<?xml version="1.0" encoding="utf-8" standalone="no"?>
<!DOCTYPE svg PUBLIC "-//W3C//DTD SVG 1.1//EN"
  "http://www.w3.org/Graphics/SVG/1.1/DTD/svg11.dtd">
<svg xmlns:xlink="http://www.w3.org/1999/xlink" width="679.832325pt" height="365.54875pt" viewBox="0 0 679.832325 365.54875" xmlns="http://www.w3.org/2000/svg" version="1.1">
 <metadata>
  <rdf:RDF xmlns:dc="http://purl.org/dc/elements/1.1/" xmlns:cc="http://creativecommons.org/ns#" xmlns:rdf="http://www.w3.org/1999/02/22-rdf-syntax-ns#">
   <cc:Work>
    <dc:type rdf:resource="http://purl.org/dc/dcmitype/StillImage"/>
    <dc:date>2024-02-12T18:47:12.944727</dc:date>
    <dc:format>image/svg+xml</dc:format>
    <dc:creator>
     <cc:Agent>
      <dc:title>Matplotlib v3.7.2, https://matplotlib.org/</dc:title>
     </cc:Agent>
    </dc:creator>
   </cc:Work>
  </rdf:RDF>
 </metadata>
 <defs>
  <style type="text/css">*{stroke-linejoin: round; stroke-linecap: butt}</style>
 </defs>
 <g id="figure_1">
  <g id="patch_1">
   <path d="M 0 365.54875 
L 679.832325 365.54875 
L 679.832325 -0 
L 0 -0 
z
" style="fill: #ffffff"/>
  </g>
  <g id="axes_1">
   <g id="patch_2">
    <path d="M 92.490625 308.63625 
L 650.490625 308.63625 
L 650.490625 31.43625 
L 92.490625 31.43625 
z
" style="fill: #ffffff"/>
   </g>
   <g id="matplotlib.axis_1">
    <g id="xtick_1">
     <g id="line2d_1">
      <defs>
       <path id="m90c81a5cf1" d="M 0 0 
L 0 3.5 
" style="stroke: #000000; stroke-width: 0.8"/>
      </defs>
      <g>
       <use xlink:href="#m90c81a5cf1" x="117.854261" y="308.63625" style="stroke: #000000; stroke-width: 0.8"/>
      </g>
     </g>
     <g id="text_1">
      <!-- 0 -->
      <g transform="translate(111.491761 330.833125) scale(0.2 -0.2)">
       <defs>
        <path id="DejaVuSans-30" d="M 2034 4250 
Q 1547 4250 1301 3770 
Q 1056 3291 1056 2328 
Q 1056 1369 1301 889 
Q 1547 409 2034 409 
Q 2525 409 2770 889 
Q 3016 1369 3016 2328 
Q 3016 3291 2770 3770 
Q 2525 4250 2034 4250 
z
M 2034 4750 
Q 2819 4750 3233 4129 
Q 3647 3509 3647 2328 
Q 3647 1150 3233 529 
Q 2819 -91 2034 -91 
Q 1250 -91 836 529 
Q 422 1150 422 2328 
Q 422 3509 836 4129 
Q 1250 4750 2034 4750 
z
" transform="scale(0.015625)"/>
       </defs>
       <use xlink:href="#DejaVuSans-30"/>
      </g>
     </g>
    </g>
    <g id="xtick_2">
     <g id="line2d_2">
      <g>
       <use xlink:href="#m90c81a5cf1" x="206.075605" y="308.63625" style="stroke: #000000; stroke-width: 0.8"/>
      </g>
     </g>
     <g id="text_2">
      <!-- 200 -->
      <g transform="translate(186.988105 330.833125) scale(0.2 -0.2)">
       <defs>
        <path id="DejaVuSans-32" d="M 1228 531 
L 3431 531 
L 3431 0 
L 469 0 
L 469 531 
Q 828 903 1448 1529 
Q 2069 2156 2228 2338 
Q 2531 2678 2651 2914 
Q 2772 3150 2772 3378 
Q 2772 3750 2511 3984 
Q 2250 4219 1831 4219 
Q 1534 4219 1204 4116 
Q 875 4013 500 3803 
L 500 4441 
Q 881 4594 1212 4672 
Q 1544 4750 1819 4750 
Q 2544 4750 2975 4387 
Q 3406 4025 3406 3419 
Q 3406 3131 3298 2873 
Q 3191 2616 2906 2266 
Q 2828 2175 2409 1742 
Q 1991 1309 1228 531 
z
" transform="scale(0.015625)"/>
       </defs>
       <use xlink:href="#DejaVuSans-32"/>
       <use xlink:href="#DejaVuSans-30" x="63.623047"/>
       <use xlink:href="#DejaVuSans-30" x="127.246094"/>
      </g>
     </g>
    </g>
    <g id="xtick_3">
     <g id="line2d_3">
      <g>
       <use xlink:href="#m90c81a5cf1" x="294.296949" y="308.63625" style="stroke: #000000; stroke-width: 0.8"/>
      </g>
     </g>
     <g id="text_3">
      <!-- 400 -->
      <g transform="translate(275.209449 330.833125) scale(0.2 -0.2)">
       <defs>
        <path id="DejaVuSans-34" d="M 2419 4116 
L 825 1625 
L 2419 1625 
L 2419 4116 
z
M 2253 4666 
L 3047 4666 
L 3047 1625 
L 3713 1625 
L 3713 1100 
L 3047 1100 
L 3047 0 
L 2419 0 
L 2419 1100 
L 313 1100 
L 313 1709 
L 2253 4666 
z
" transform="scale(0.015625)"/>
       </defs>
       <use xlink:href="#DejaVuSans-34"/>
       <use xlink:href="#DejaVuSans-30" x="63.623047"/>
       <use xlink:href="#DejaVuSans-30" x="127.246094"/>
      </g>
     </g>
    </g>
    <g id="xtick_4">
     <g id="line2d_4">
      <g>
       <use xlink:href="#m90c81a5cf1" x="382.518293" y="308.63625" style="stroke: #000000; stroke-width: 0.8"/>
      </g>
     </g>
     <g id="text_4">
      <!-- 600 -->
      <g transform="translate(363.430793 330.833125) scale(0.2 -0.2)">
       <defs>
        <path id="DejaVuSans-36" d="M 2113 2584 
Q 1688 2584 1439 2293 
Q 1191 2003 1191 1497 
Q 1191 994 1439 701 
Q 1688 409 2113 409 
Q 2538 409 2786 701 
Q 3034 994 3034 1497 
Q 3034 2003 2786 2293 
Q 2538 2584 2113 2584 
z
M 3366 4563 
L 3366 3988 
Q 3128 4100 2886 4159 
Q 2644 4219 2406 4219 
Q 1781 4219 1451 3797 
Q 1122 3375 1075 2522 
Q 1259 2794 1537 2939 
Q 1816 3084 2150 3084 
Q 2853 3084 3261 2657 
Q 3669 2231 3669 1497 
Q 3669 778 3244 343 
Q 2819 -91 2113 -91 
Q 1303 -91 875 529 
Q 447 1150 447 2328 
Q 447 3434 972 4092 
Q 1497 4750 2381 4750 
Q 2619 4750 2861 4703 
Q 3103 4656 3366 4563 
z
" transform="scale(0.015625)"/>
       </defs>
       <use xlink:href="#DejaVuSans-36"/>
       <use xlink:href="#DejaVuSans-30" x="63.623047"/>
       <use xlink:href="#DejaVuSans-30" x="127.246094"/>
      </g>
     </g>
    </g>
    <g id="xtick_5">
     <g id="line2d_5">
      <g>
       <use xlink:href="#m90c81a5cf1" x="470.739637" y="308.63625" style="stroke: #000000; stroke-width: 0.8"/>
      </g>
     </g>
     <g id="text_5">
      <!-- 800 -->
      <g transform="translate(451.652137 330.833125) scale(0.2 -0.2)">
       <defs>
        <path id="DejaVuSans-38" d="M 2034 2216 
Q 1584 2216 1326 1975 
Q 1069 1734 1069 1313 
Q 1069 891 1326 650 
Q 1584 409 2034 409 
Q 2484 409 2743 651 
Q 3003 894 3003 1313 
Q 3003 1734 2745 1975 
Q 2488 2216 2034 2216 
z
M 1403 2484 
Q 997 2584 770 2862 
Q 544 3141 544 3541 
Q 544 4100 942 4425 
Q 1341 4750 2034 4750 
Q 2731 4750 3128 4425 
Q 3525 4100 3525 3541 
Q 3525 3141 3298 2862 
Q 3072 2584 2669 2484 
Q 3125 2378 3379 2068 
Q 3634 1759 3634 1313 
Q 3634 634 3220 271 
Q 2806 -91 2034 -91 
Q 1263 -91 848 271 
Q 434 634 434 1313 
Q 434 1759 690 2068 
Q 947 2378 1403 2484 
z
M 1172 3481 
Q 1172 3119 1398 2916 
Q 1625 2713 2034 2713 
Q 2441 2713 2670 2916 
Q 2900 3119 2900 3481 
Q 2900 3844 2670 4047 
Q 2441 4250 2034 4250 
Q 1625 4250 1398 4047 
Q 1172 3844 1172 3481 
z
" transform="scale(0.015625)"/>
       </defs>
       <use xlink:href="#DejaVuSans-38"/>
       <use xlink:href="#DejaVuSans-30" x="63.623047"/>
       <use xlink:href="#DejaVuSans-30" x="127.246094"/>
      </g>
     </g>
    </g>
    <g id="xtick_6">
     <g id="line2d_6">
      <g>
       <use xlink:href="#m90c81a5cf1" x="558.960981" y="308.63625" style="stroke: #000000; stroke-width: 0.8"/>
      </g>
     </g>
     <g id="text_6">
      <!-- 1000 -->
      <g transform="translate(533.510981 330.833125) scale(0.2 -0.2)">
       <defs>
        <path id="DejaVuSans-31" d="M 794 531 
L 1825 531 
L 1825 4091 
L 703 3866 
L 703 4441 
L 1819 4666 
L 2450 4666 
L 2450 531 
L 3481 531 
L 3481 0 
L 794 0 
L 794 531 
z
" transform="scale(0.015625)"/>
       </defs>
       <use xlink:href="#DejaVuSans-31"/>
       <use xlink:href="#DejaVuSans-30" x="63.623047"/>
       <use xlink:href="#DejaVuSans-30" x="127.246094"/>
       <use xlink:href="#DejaVuSans-30" x="190.869141"/>
      </g>
     </g>
    </g>
    <g id="xtick_7">
     <g id="line2d_7">
      <g>
       <use xlink:href="#m90c81a5cf1" x="647.182325" y="308.63625" style="stroke: #000000; stroke-width: 0.8"/>
      </g>
     </g>
     <g id="text_7">
      <!-- 1200 -->
      <g transform="translate(621.732325 330.833125) scale(0.2 -0.2)">
       <use xlink:href="#DejaVuSans-31"/>
       <use xlink:href="#DejaVuSans-32" x="63.623047"/>
       <use xlink:href="#DejaVuSans-30" x="127.246094"/>
       <use xlink:href="#DejaVuSans-30" x="190.869141"/>
      </g>
     </g>
    </g>
    <g id="text_8">
     <!-- iterations -->
     <g transform="translate(324.035938 354.189375) scale(0.2 -0.2)">
      <defs>
       <path id="DejaVuSans-69" d="M 603 3500 
L 1178 3500 
L 1178 0 
L 603 0 
L 603 3500 
z
M 603 4863 
L 1178 4863 
L 1178 4134 
L 603 4134 
L 603 4863 
z
" transform="scale(0.015625)"/>
       <path id="DejaVuSans-74" d="M 1172 4494 
L 1172 3500 
L 2356 3500 
L 2356 3053 
L 1172 3053 
L 1172 1153 
Q 1172 725 1289 603 
Q 1406 481 1766 481 
L 2356 481 
L 2356 0 
L 1766 0 
Q 1100 0 847 248 
Q 594 497 594 1153 
L 594 3053 
L 172 3053 
L 172 3500 
L 594 3500 
L 594 4494 
L 1172 4494 
z
" transform="scale(0.015625)"/>
       <path id="DejaVuSans-65" d="M 3597 1894 
L 3597 1613 
L 953 1613 
Q 991 1019 1311 708 
Q 1631 397 2203 397 
Q 2534 397 2845 478 
Q 3156 559 3463 722 
L 3463 178 
Q 3153 47 2828 -22 
Q 2503 -91 2169 -91 
Q 1331 -91 842 396 
Q 353 884 353 1716 
Q 353 2575 817 3079 
Q 1281 3584 2069 3584 
Q 2775 3584 3186 3129 
Q 3597 2675 3597 1894 
z
M 3022 2063 
Q 3016 2534 2758 2815 
Q 2500 3097 2075 3097 
Q 1594 3097 1305 2825 
Q 1016 2553 972 2059 
L 3022 2063 
z
" transform="scale(0.015625)"/>
       <path id="DejaVuSans-72" d="M 2631 2963 
Q 2534 3019 2420 3045 
Q 2306 3072 2169 3072 
Q 1681 3072 1420 2755 
Q 1159 2438 1159 1844 
L 1159 0 
L 581 0 
L 581 3500 
L 1159 3500 
L 1159 2956 
Q 1341 3275 1631 3429 
Q 1922 3584 2338 3584 
Q 2397 3584 2469 3576 
Q 2541 3569 2628 3553 
L 2631 2963 
z
" transform="scale(0.015625)"/>
       <path id="DejaVuSans-61" d="M 2194 1759 
Q 1497 1759 1228 1600 
Q 959 1441 959 1056 
Q 959 750 1161 570 
Q 1363 391 1709 391 
Q 2188 391 2477 730 
Q 2766 1069 2766 1631 
L 2766 1759 
L 2194 1759 
z
M 3341 1997 
L 3341 0 
L 2766 0 
L 2766 531 
Q 2569 213 2275 61 
Q 1981 -91 1556 -91 
Q 1019 -91 701 211 
Q 384 513 384 1019 
Q 384 1609 779 1909 
Q 1175 2209 1959 2209 
L 2766 2209 
L 2766 2266 
Q 2766 2663 2505 2880 
Q 2244 3097 1772 3097 
Q 1472 3097 1187 3025 
Q 903 2953 641 2809 
L 641 3341 
Q 956 3463 1253 3523 
Q 1550 3584 1831 3584 
Q 2591 3584 2966 3190 
Q 3341 2797 3341 1997 
z
" transform="scale(0.015625)"/>
       <path id="DejaVuSans-6f" d="M 1959 3097 
Q 1497 3097 1228 2736 
Q 959 2375 959 1747 
Q 959 1119 1226 758 
Q 1494 397 1959 397 
Q 2419 397 2687 759 
Q 2956 1122 2956 1747 
Q 2956 2369 2687 2733 
Q 2419 3097 1959 3097 
z
M 1959 3584 
Q 2709 3584 3137 3096 
Q 3566 2609 3566 1747 
Q 3566 888 3137 398 
Q 2709 -91 1959 -91 
Q 1206 -91 779 398 
Q 353 888 353 1747 
Q 353 2609 779 3096 
Q 1206 3584 1959 3584 
z
" transform="scale(0.015625)"/>
       <path id="DejaVuSans-6e" d="M 3513 2113 
L 3513 0 
L 2938 0 
L 2938 2094 
Q 2938 2591 2744 2837 
Q 2550 3084 2163 3084 
Q 1697 3084 1428 2787 
Q 1159 2491 1159 1978 
L 1159 0 
L 581 0 
L 581 3500 
L 1159 3500 
L 1159 2956 
Q 1366 3272 1645 3428 
Q 1925 3584 2291 3584 
Q 2894 3584 3203 3211 
Q 3513 2838 3513 2113 
z
" transform="scale(0.015625)"/>
       <path id="DejaVuSans-73" d="M 2834 3397 
L 2834 2853 
Q 2591 2978 2328 3040 
Q 2066 3103 1784 3103 
Q 1356 3103 1142 2972 
Q 928 2841 928 2578 
Q 928 2378 1081 2264 
Q 1234 2150 1697 2047 
L 1894 2003 
Q 2506 1872 2764 1633 
Q 3022 1394 3022 966 
Q 3022 478 2636 193 
Q 2250 -91 1575 -91 
Q 1294 -91 989 -36 
Q 684 19 347 128 
L 347 722 
Q 666 556 975 473 
Q 1284 391 1588 391 
Q 1994 391 2212 530 
Q 2431 669 2431 922 
Q 2431 1156 2273 1281 
Q 2116 1406 1581 1522 
L 1381 1569 
Q 847 1681 609 1914 
Q 372 2147 372 2553 
Q 372 3047 722 3315 
Q 1072 3584 1716 3584 
Q 2034 3584 2315 3537 
Q 2597 3491 2834 3397 
z
" transform="scale(0.015625)"/>
      </defs>
      <use xlink:href="#DejaVuSans-69"/>
      <use xlink:href="#DejaVuSans-74" x="27.783203"/>
      <use xlink:href="#DejaVuSans-65" x="66.992188"/>
      <use xlink:href="#DejaVuSans-72" x="128.515625"/>
      <use xlink:href="#DejaVuSans-61" x="169.628906"/>
      <use xlink:href="#DejaVuSans-74" x="230.908203"/>
      <use xlink:href="#DejaVuSans-69" x="270.117188"/>
      <use xlink:href="#DejaVuSans-6f" x="297.900391"/>
      <use xlink:href="#DejaVuSans-6e" x="359.082031"/>
      <use xlink:href="#DejaVuSans-73" x="422.460938"/>
     </g>
    </g>
   </g>
   <g id="matplotlib.axis_2">
    <g id="ytick_1">
     <g id="line2d_8">
      <defs>
       <path id="m467447af5d" d="M 0 0 
L -3.5 0 
" style="stroke: #000000; stroke-width: 0.8"/>
      </defs>
      <g>
       <use xlink:href="#m467447af5d" x="92.490625" y="287.754235" style="stroke: #000000; stroke-width: 0.8"/>
      </g>
     </g>
     <g id="text_9">
      <!-- −200 -->
      <g transform="translate(30.55625 295.352672) scale(0.2 -0.2)">
       <defs>
        <path id="DejaVuSans-2212" d="M 678 2272 
L 4684 2272 
L 4684 1741 
L 678 1741 
L 678 2272 
z
" transform="scale(0.015625)"/>
       </defs>
       <use xlink:href="#DejaVuSans-2212"/>
       <use xlink:href="#DejaVuSans-32" x="83.789062"/>
       <use xlink:href="#DejaVuSans-30" x="147.412109"/>
       <use xlink:href="#DejaVuSans-30" x="211.035156"/>
      </g>
     </g>
    </g>
    <g id="ytick_2">
     <g id="line2d_9">
      <g>
       <use xlink:href="#m467447af5d" x="92.490625" y="227.578386" style="stroke: #000000; stroke-width: 0.8"/>
      </g>
     </g>
     <g id="text_10">
      <!-- −100 -->
      <g transform="translate(30.55625 235.176823) scale(0.2 -0.2)">
       <use xlink:href="#DejaVuSans-2212"/>
       <use xlink:href="#DejaVuSans-31" x="83.789062"/>
       <use xlink:href="#DejaVuSans-30" x="147.412109"/>
       <use xlink:href="#DejaVuSans-30" x="211.035156"/>
      </g>
     </g>
    </g>
    <g id="ytick_3">
     <g id="line2d_10">
      <g>
       <use xlink:href="#m467447af5d" x="92.490625" y="167.402537" style="stroke: #000000; stroke-width: 0.8"/>
      </g>
     </g>
     <g id="text_11">
      <!-- 0 -->
      <g transform="translate(72.765625 175.000974) scale(0.2 -0.2)">
       <use xlink:href="#DejaVuSans-30"/>
      </g>
     </g>
    </g>
    <g id="ytick_4">
     <g id="line2d_11">
      <g>
       <use xlink:href="#m467447af5d" x="92.490625" y="107.226688" style="stroke: #000000; stroke-width: 0.8"/>
      </g>
     </g>
     <g id="text_12">
      <!-- 100 -->
      <g transform="translate(47.315625 114.825125) scale(0.2 -0.2)">
       <use xlink:href="#DejaVuSans-31"/>
       <use xlink:href="#DejaVuSans-30" x="63.623047"/>
       <use xlink:href="#DejaVuSans-30" x="127.246094"/>
      </g>
     </g>
    </g>
    <g id="ytick_5">
     <g id="line2d_12">
      <g>
       <use xlink:href="#m467447af5d" x="92.490625" y="47.050838" style="stroke: #000000; stroke-width: 0.8"/>
      </g>
     </g>
     <g id="text_13">
      <!-- 200 -->
      <g transform="translate(47.315625 54.649276) scale(0.2 -0.2)">
       <use xlink:href="#DejaVuSans-32"/>
       <use xlink:href="#DejaVuSans-30" x="63.623047"/>
       <use xlink:href="#DejaVuSans-30" x="127.246094"/>
      </g>
     </g>
    </g>
    <g id="text_14">
     <!-- Loss -->
     <g transform="translate(22.396875 191.970625) rotate(-90) scale(0.2 -0.2)">
      <defs>
       <path id="DejaVuSans-4c" d="M 628 4666 
L 1259 4666 
L 1259 531 
L 3531 531 
L 3531 0 
L 628 0 
L 628 4666 
z
" transform="scale(0.015625)"/>
      </defs>
      <use xlink:href="#DejaVuSans-4c"/>
      <use xlink:href="#DejaVuSans-6f" x="53.962891"/>
      <use xlink:href="#DejaVuSans-73" x="115.144531"/>
      <use xlink:href="#DejaVuSans-73" x="167.244141"/>
     </g>
    </g>
   </g>
   <g id="line2d_13">
    <path d="M 117.854261 138.53853 
L 118.295368 97.982964 
L 118.736475 117.083744 
L 119.177582 121.777179 
L 119.618688 104.43596 
L 120.059795 128.019774 
L 120.500902 117.918638 
L 120.942008 99.792773 
L 121.383115 123.303136 
L 121.824222 113.920019 
L 122.265329 107.215809 
L 122.706435 54.185175 
L 123.147542 44.586844 
L 123.588649 50.208405 
L 124.029755 65.431701 
L 124.470862 52.62134 
L 124.911969 44.03625 
L 125.353076 47.425516 
L 125.794182 53.255988 
L 126.235289 62.20203 
L 126.676396 54.058702 
L 127.117502 59.456177 
L 127.558609 109.140656 
L 127.999716 94.805897 
L 128.440823 87.78307 
L 128.881929 75.133855 
L 129.323036 98.959252 
L 129.764143 90.513457 
L 130.20525 91.353551 
L 130.646356 94.307751 
L 131.087463 99.862324 
L 131.52857 94.958193 
L 131.969676 93.356455 
L 132.85189 79.768648 
L 133.292997 81.625829 
L 133.734103 87.639335 
L 134.17521 98.247788 
L 134.616317 97.025522 
L 135.057423 100.470922 
L 135.49853 94.009915 
L 135.939637 108.302296 
L 136.380744 106.746361 
L 136.82185 111.813688 
L 137.262957 111.321942 
L 137.704064 109.609667 
L 138.14517 111.732825 
L 139.027384 118.313446 
L 139.468491 121.128737 
L 139.909597 118.243637 
L 140.350704 122.939672 
L 140.791811 114.006144 
L 141.232917 113.402414 
L 141.674024 118.336942 
L 142.115131 126.247555 
L 142.556238 117.705982 
L 142.997344 118.938384 
L 143.438451 115.501875 
L 143.879558 121.08746 
L 144.320665 119.267918 
L 144.761771 128.786107 
L 145.202878 128.140582 
L 145.643985 126.980209 
L 146.085091 127.736057 
L 146.526198 119.824596 
L 146.967305 123.041682 
L 147.408412 125.22985 
L 147.849518 132.060951 
L 148.290625 127.742292 
L 148.731732 128.726967 
L 149.172838 132.552166 
L 149.613945 126.842327 
L 150.055052 124.849238 
L 150.496159 134.387408 
L 150.937265 128.837998 
L 151.378372 132.134935 
L 151.819479 123.78468 
L 152.260585 132.616752 
L 152.701692 133.362101 
L 153.142799 130.522423 
L 153.583906 132.295449 
L 154.025012 130.881563 
L 154.466119 130.761392 
L 154.907226 136.851809 
L 155.348333 133.13345 
L 155.789439 136.862142 
L 156.230546 132.687554 
L 156.671653 136.323725 
L 157.112759 132.024156 
L 157.553866 135.651823 
L 157.994973 134.503783 
L 158.43608 138.447324 
L 158.877186 140.302657 
L 159.318293 137.326201 
L 160.200506 133.290565 
L 160.641613 132.866831 
L 161.08272 142.596344 
L 161.523827 144.986145 
L 162.40604 140.610362 
L 162.847147 141.500038 
L 163.288253 143.686115 
L 163.72936 140.210455 
L 164.170467 143.748127 
L 164.611574 145.84987 
L 165.05268 147.376432 
L 165.493787 144.567206 
L 165.934894 148.385484 
L 166.376 146.372494 
L 166.817107 149.177832 
L 167.258214 150.583748 
L 167.699321 151.428518 
L 168.140427 151.65227 
L 168.581534 153.806823 
L 169.022641 151.359519 
L 169.463748 149.66105 
L 169.904854 150.094058 
L 170.345961 153.424061 
L 170.787068 153.379319 
L 171.228174 152.68978 
L 171.669281 148.221893 
L 172.110388 149.94797 
L 172.551495 150.801801 
L 172.992601 149.496023 
L 173.433708 153.426297 
L 173.874815 148.701191 
L 174.315921 155.673158 
L 174.757028 152.270783 
L 175.198135 152.812434 
L 175.639242 151.283283 
L 176.080348 151.61941 
L 176.521455 149.972005 
L 176.962562 149.445184 
L 177.403668 150.678389 
L 177.844775 153.782528 
L 178.285882 152.701329 
L 178.726989 150.58121 
L 179.168095 153.449759 
L 179.609202 152.054885 
L 180.932522 149.175368 
L 181.373629 152.92116 
L 181.814736 154.821874 
L 182.255842 154.122896 
L 182.696949 154.659618 
L 183.138056 154.935823 
L 183.579163 150.153039 
L 184.020269 153.838236 
L 184.461376 152.87849 
L 184.902483 156.117978 
L 185.343589 154.618691 
L 185.784696 155.286374 
L 186.225803 155.509007 
L 186.66691 155.203361 
L 187.108016 155.733462 
L 187.549123 154.610605 
L 187.99023 156.868743 
L 188.872443 154.86685 
L 189.31355 155.846898 
L 189.754657 155.5618 
L 190.195763 154.291763 
L 190.63687 156.186717 
L 191.077977 156.244531 
L 191.519083 155.715934 
L 191.96019 155.403453 
L 192.401297 155.782756 
L 192.842404 155.993486 
L 193.28351 155.337442 
L 193.724617 155.619744 
L 194.606831 157.322453 
L 195.047937 156.929476 
L 195.489044 155.284185 
L 195.930151 157.053882 
L 196.371257 154.679929 
L 196.812364 157.291986 
L 197.253471 156.903158 
L 197.694578 157.112578 
L 198.576791 158.666323 
L 199.017898 157.140524 
L 199.459004 157.121308 
L 199.900111 158.853463 
L 200.341218 159.363312 
L 200.782325 158.407733 
L 201.223431 158.277547 
L 201.664538 158.768124 
L 202.546751 159.348091 
L 202.987858 158.40205 
L 203.428965 158.776583 
L 203.870072 157.259794 
L 204.311178 157.809901 
L 204.752285 157.905638 
L 205.193392 160.304648 
L 205.634499 159.27558 
L 206.075605 160.198122 
L 206.516712 158.222625 
L 206.957819 158.653634 
L 207.398925 158.487327 
L 207.840032 158.747868 
L 208.281139 158.790748 
L 208.722246 157.779227 
L 209.163352 158.195876 
L 209.604459 158.768348 
L 210.045566 157.9548 
L 210.486672 158.883566 
L 210.927779 159.266435 
L 211.368886 158.167248 
L 211.809993 157.931008 
L 212.251099 157.269122 
L 213.133313 159.245639 
L 214.015526 159.591384 
L 214.456633 158.906913 
L 214.89774 157.982647 
L 215.338846 158.460905 
L 215.779953 158.242813 
L 216.22106 157.491546 
L 216.662167 158.890922 
L 217.103273 159.897972 
L 217.54438 159.522708 
L 217.985487 158.755006 
L 218.426593 160.102913 
L 219.308807 159.911868 
L 219.749914 158.428562 
L 220.19102 158.256503 
L 220.632127 159.280037 
L 221.955447 160.666388 
L 222.837661 158.531589 
L 223.278767 160.376333 
L 223.719874 159.592961 
L 224.160981 159.596836 
L 224.602087 158.212775 
L 225.043194 158.965149 
L 225.484301 160.221803 
L 225.925408 160.554096 
L 226.366514 160.234987 
L 226.807621 159.189843 
L 227.689834 158.4345 
L 228.130941 159.29536 
L 228.572048 159.86907 
L 229.013155 159.834532 
L 229.895368 160.513438 
L 230.336475 160.132619 
L 230.777582 160.426465 
L 231.218688 160.383222 
L 231.659795 159.592069 
L 232.100902 160.667174 
L 232.542008 159.239572 
L 232.983115 161.504711 
L 233.424222 160.711068 
L 233.865329 160.321193 
L 234.306435 160.334656 
L 234.747542 160.4783 
L 235.188649 160.244258 
L 235.629755 160.241173 
L 236.070862 160.039621 
L 237.394182 158.951886 
L 237.835289 159.1988 
L 238.276396 159.780806 
L 238.717502 159.367018 
L 239.158609 158.507879 
L 239.599716 158.913263 
L 240.040823 158.653872 
L 240.481929 158.552491 
L 240.923036 159.409902 
L 241.364143 159.175904 
L 241.80525 158.624938 
L 242.687463 158.893202 
L 243.569676 160.264354 
L 244.010783 160.201945 
L 244.892997 158.650772 
L 245.334103 159.288537 
L 245.77521 160.520795 
L 246.216317 160.457279 
L 247.09853 158.257941 
L 247.539637 158.619133 
L 247.980744 159.745309 
L 248.42185 159.48481 
L 248.862957 159.978303 
L 249.304064 159.720556 
L 249.74517 159.612132 
L 250.186277 159.841911 
L 251.068491 160.510643 
L 251.950704 159.110659 
L 252.391811 159.040226 
L 252.832917 158.709458 
L 253.274024 159.419005 
L 253.715131 159.173452 
L 254.156238 159.518919 
L 254.597344 158.566461 
L 255.479558 159.499792 
L 256.361771 158.586841 
L 256.802878 158.811935 
L 257.243985 159.308052 
L 257.685091 158.76162 
L 258.126198 157.928456 
L 258.567305 158.267043 
L 259.008412 158.073122 
L 259.449518 158.023908 
L 260.772838 159.418039 
L 261.213945 159.162644 
L 261.655052 158.305005 
L 262.096159 158.181522 
L 262.537265 158.871983 
L 262.978372 158.207984 
L 263.419479 158.920037 
L 263.860585 158.307508 
L 264.301692 158.614952 
L 264.742799 157.895699 
L 265.183906 158.923532 
L 265.625012 158.600683 
L 266.066119 159.982429 
L 266.507226 158.452746 
L 266.948333 158.364598 
L 267.389439 158.53182 
L 267.830546 158.447831 
L 268.271653 159.631004 
L 268.712759 158.702739 
L 269.594973 158.844423 
L 270.03608 158.261884 
L 270.918293 158.876161 
L 271.3594 158.704879 
L 271.800506 158.966426 
L 272.241613 159.070848 
L 272.68272 159.870111 
L 273.123827 159.975019 
L 273.564933 160.596646 
L 274.00604 159.037911 
L 274.447147 159.577581 
L 274.888253 159.919207 
L 275.32936 159.970316 
L 275.770467 160.525837 
L 276.211574 159.82942 
L 276.65268 160.372563 
L 277.093787 160.469565 
L 277.534894 160.440517 
L 277.976 160.545118 
L 278.417107 161.243255 
L 279.299321 161.95244 
L 279.740427 161.344446 
L 280.181534 162.230849 
L 280.622641 160.694473 
L 281.063748 161.529689 
L 281.504854 161.958084 
L 281.945961 161.981839 
L 282.387068 161.531251 
L 282.828174 162.091559 
L 283.269281 161.080496 
L 283.710388 161.420721 
L 284.151495 161.219607 
L 285.033708 163.802467 
L 285.474815 163.544163 
L 285.915921 162.374592 
L 286.357028 162.509576 
L 286.798135 163.184545 
L 287.239242 162.450438 
L 288.562562 161.216576 
L 289.003668 161.664394 
L 289.444775 161.362429 
L 289.885882 162.075806 
L 290.326989 161.102878 
L 290.768095 163.051107 
L 291.209202 162.817614 
L 291.650309 162.946267 
L 292.532522 162.763962 
L 292.973629 162.839012 
L 293.414736 162.000619 
L 293.855842 162.598769 
L 294.296949 162.378559 
L 294.738056 163.076137 
L 295.179163 162.571522 
L 295.620269 162.729478 
L 296.061376 162.590982 
L 296.502483 162.127056 
L 296.943589 163.018755 
L 297.384696 161.84957 
L 297.825803 162.625888 
L 298.26691 162.543089 
L 298.708016 163.183865 
L 299.149123 162.865179 
L 300.472443 162.964571 
L 300.91355 163.003534 
L 301.354657 161.98191 
L 301.795763 161.799897 
L 302.23687 163.497794 
L 302.677977 162.761521 
L 303.119083 162.260124 
L 303.56019 161.52673 
L 304.001297 162.915428 
L 304.442404 163.518571 
L 304.88351 163.511122 
L 305.324617 163.779869 
L 306.206831 163.292074 
L 306.647937 163.261754 
L 307.089044 164.209916 
L 308.412364 164.29926 
L 308.853471 163.883719 
L 309.294578 164.214976 
L 309.735684 163.611439 
L 310.176791 163.50855 
L 310.617898 163.619804 
L 311.059004 163.517998 
L 311.500111 163.762633 
L 311.941218 163.682833 
L 312.382325 163.927672 
L 312.823431 162.938326 
L 313.264538 163.558524 
L 313.705645 163.570411 
L 314.146751 162.838417 
L 314.587858 163.419215 
L 315.028965 163.034187 
L 315.470072 163.560597 
L 315.911178 162.974609 
L 316.352285 163.22759 
L 316.793392 163.897061 
L 317.675605 163.200592 
L 318.116712 163.883585 
L 318.557819 164.051239 
L 319.440032 163.416856 
L 319.881139 163.617793 
L 320.322246 163.502438 
L 320.763352 163.762088 
L 321.204459 164.287996 
L 321.645566 163.466284 
L 322.086672 163.625181 
L 322.527779 162.927845 
L 322.968886 162.924646 
L 323.409993 163.154536 
L 323.851099 162.913681 
L 324.733313 163.90003 
L 325.174419 164.07757 
L 325.615526 164.574846 
L 326.056633 164.524283 
L 326.49774 165.478911 
L 326.938846 165.009827 
L 327.379953 165.363989 
L 327.82106 165.356022 
L 328.262167 164.90985 
L 328.703273 165.135213 
L 329.14438 164.92389 
L 329.585487 165.118623 
L 330.026593 165.026908 
L 330.4677 165.352702 
L 330.908807 165.29849 
L 331.79102 163.713846 
L 332.232127 164.55012 
L 333.11434 164.198529 
L 333.555447 164.675546 
L 333.996554 164.071193 
L 334.437661 164.222628 
L 334.878767 164.527797 
L 335.319874 164.517816 
L 336.202087 165.291701 
L 336.643194 165.561032 
L 337.084301 164.811283 
L 337.525408 164.988455 
L 337.966514 164.924284 
L 338.407621 164.615151 
L 338.848728 165.583877 
L 339.289834 165.212143 
L 339.730941 165.333861 
L 340.172048 165.323854 
L 340.613155 165.041086 
L 341.054261 164.978663 
L 341.936475 165.200191 
L 342.377582 166.08 
L 342.818688 165.035632 
L 343.259795 165.603331 
L 343.700902 165.86487 
L 344.142008 165.443294 
L 344.583115 166.256202 
L 345.024222 164.694453 
L 345.465329 164.670977 
L 345.906435 164.525527 
L 346.347542 165.21686 
L 346.788649 164.912678 
L 347.229755 165.326199 
L 347.670862 164.488608 
L 348.111969 164.820524 
L 348.553076 165.524774 
L 348.994182 165.617187 
L 349.435289 165.576942 
L 349.876396 164.87486 
L 350.758609 165.961546 
L 351.640823 164.944552 
L 352.081929 165.134178 
L 352.523036 164.885828 
L 352.964143 165.370466 
L 353.40525 164.272193 
L 353.846356 164.729958 
L 354.287463 165.0006 
L 354.72857 164.976294 
L 355.169676 165.602046 
L 355.610783 165.479562 
L 356.05189 165.237788 
L 356.492997 166.108076 
L 356.934103 166.104062 
L 357.37521 165.82227 
L 357.816317 166.256527 
L 358.69853 165.469542 
L 359.139637 165.098018 
L 360.02185 165.534906 
L 360.462957 166.428739 
L 361.34517 165.721829 
L 361.786277 166.143999 
L 362.227384 165.615088 
L 362.668491 166.228039 
L 363.109597 165.061817 
L 363.550704 165.143602 
L 363.991811 165.760576 
L 364.432917 165.561899 
L 364.874024 166.216574 
L 365.756238 165.183599 
L 366.197344 165.018782 
L 366.638451 165.360501 
L 367.520665 165.419201 
L 367.961771 165.360393 
L 368.402878 164.136741 
L 368.843985 165.343897 
L 369.285091 165.572042 
L 369.726198 165.545783 
L 370.608412 164.591578 
L 371.049518 164.512763 
L 371.490625 164.747325 
L 371.931732 165.493837 
L 372.372838 165.139657 
L 372.813945 165.495464 
L 373.255052 164.968325 
L 373.696159 165.539488 
L 374.137265 164.924951 
L 374.578372 165.093261 
L 375.019479 164.996031 
L 375.460585 164.524479 
L 375.901692 164.886919 
L 376.342799 164.47752 
L 376.783906 164.371764 
L 377.225012 163.988204 
L 377.666119 164.644625 
L 378.107226 164.709602 
L 378.548333 164.279329 
L 379.430546 164.712515 
L 379.871653 164.128696 
L 380.312759 164.199866 
L 380.753866 164.096761 
L 381.194973 164.48685 
L 381.63608 164.527779 
L 382.077186 164.707487 
L 383.400506 164.760681 
L 383.841613 164.850835 
L 384.28272 164.799478 
L 384.723827 164.295248 
L 385.164933 164.533537 
L 386.047147 164.375007 
L 386.488253 164.912049 
L 386.92936 164.567608 
L 387.370467 163.712177 
L 387.811574 163.720205 
L 388.25268 164.737969 
L 388.693787 164.51053 
L 389.576 164.528611 
L 390.017107 164.159422 
L 390.458214 164.156035 
L 391.340427 164.416819 
L 392.222641 164.201238 
L 392.663748 163.689581 
L 393.104854 163.688707 
L 393.987068 164.021742 
L 394.428174 164.40091 
L 395.310388 164.1579 
L 395.751495 164.518102 
L 396.192601 163.675799 
L 396.633708 163.978809 
L 397.074815 164.113678 
L 397.515921 164.586427 
L 397.957028 163.635984 
L 398.398135 164.265889 
L 398.839242 163.462821 
L 399.280348 164.146655 
L 400.162562 164.35971 
L 400.603668 163.949097 
L 401.044775 164.500156 
L 401.485882 164.439221 
L 401.926989 164.258676 
L 402.368095 164.612078 
L 402.809202 164.474929 
L 403.250309 164.662866 
L 403.691416 164.384643 
L 404.132522 165.050381 
L 405.455842 164.638916 
L 405.896949 164.819175 
L 406.338056 164.597301 
L 406.779163 164.516941 
L 407.220269 164.688791 
L 407.661376 165.221928 
L 408.543589 165.576128 
L 408.984696 165.57446 
L 409.425803 166.125497 
L 409.86691 166.924859 
L 410.749123 166.874639 
L 411.19023 166.326228 
L 411.631336 166.215998 
L 412.072443 166.537828 
L 412.954657 166.108848 
L 413.395763 166.486851 
L 414.277977 166.322447 
L 414.719083 166.749162 
L 415.16019 166.739898 
L 415.601297 166.314309 
L 416.042404 166.29515 
L 416.48351 166.754573 
L 416.924617 166.073459 
L 417.365724 166.300046 
L 419.130151 166.655139 
L 420.453471 166.43708 
L 421.335684 166.349224 
L 421.776791 166.578572 
L 422.659004 165.911427 
L 423.100111 166.599712 
L 423.541218 166.763055 
L 424.864538 166.836537 
L 425.305645 166.292862 
L 425.746751 166.114483 
L 426.187858 166.70456 
L 426.628965 166.404543 
L 427.070072 166.949484 
L 427.952285 166.846264 
L 428.393392 167.496116 
L 428.834499 167.106541 
L 429.275605 167.269006 
L 429.716712 166.270429 
L 430.157819 167.076186 
L 430.598925 167.150597 
L 431.040032 166.690862 
L 431.922246 167.016251 
L 432.363352 166.722275 
L 432.804459 167.172367 
L 433.686672 167.300765 
L 434.568886 166.953468 
L 435.009993 166.909695 
L 435.451099 166.667897 
L 435.892206 167.128023 
L 436.333313 167.287949 
L 436.774419 166.953439 
L 437.215526 167.165798 
L 437.656633 167.176958 
L 438.09774 167.776535 
L 438.538846 167.588331 
L 439.862167 168.112648 
L 440.303273 167.814137 
L 440.74438 167.966171 
L 441.185487 167.337813 
L 441.626593 168.231724 
L 442.0677 167.864277 
L 442.508807 167.66535 
L 442.949914 167.930938 
L 443.39102 167.764538 
L 443.832127 167.800716 
L 444.273234 167.605195 
L 445.155447 167.877379 
L 445.596554 167.448346 
L 446.037661 167.595076 
L 446.478767 167.619896 
L 446.919874 167.277464 
L 447.360981 167.257352 
L 447.802087 167.622062 
L 448.684301 167.811488 
L 449.125408 167.2019 
L 449.566514 167.374296 
L 450.007621 167.108636 
L 450.448728 167.529072 
L 450.889834 167.445918 
L 451.330941 167.588031 
L 451.772048 166.986021 
L 452.213155 167.07021 
L 452.654261 167.01968 
L 453.095368 167.131119 
L 453.536475 166.706204 
L 453.977582 167.273783 
L 454.418688 167.4991 
L 454.859795 167.164137 
L 455.300902 167.278401 
L 455.742008 167.029178 
L 456.183115 166.381069 
L 456.624222 166.598948 
L 457.065329 166.362415 
L 457.506435 166.875708 
L 458.388649 166.486489 
L 458.829755 167.00153 
L 459.270862 166.338952 
L 459.711969 167.288716 
L 460.153076 166.475611 
L 460.594182 166.628849 
L 461.035289 166.578035 
L 461.476396 166.994117 
L 461.917502 166.373868 
L 462.799716 167.125379 
L 463.240823 166.9732 
L 463.681929 166.957091 
L 464.123036 167.064731 
L 464.564143 166.882958 
L 465.00525 166.514705 
L 465.446356 166.783083 
L 465.887463 166.270219 
L 466.32857 166.448122 
L 466.769676 167.096922 
L 467.210783 167.182332 
L 467.65189 167.032398 
L 468.092997 166.457706 
L 468.534103 167.0144 
L 469.416317 167.264616 
L 469.857423 166.954706 
L 470.739637 166.860758 
L 471.180744 167.200607 
L 471.62185 166.850006 
L 472.062957 167.223131 
L 472.504064 167.091588 
L 472.94517 167.73185 
L 473.386277 167.645538 
L 473.827384 167.831437 
L 474.268491 167.616765 
L 474.709597 167.043909 
L 475.150704 167.39589 
L 475.591811 166.841559 
L 476.032917 167.512002 
L 476.474024 167.50357 
L 476.915131 167.978246 
L 477.356238 167.672412 
L 478.238451 168.036219 
L 478.679558 167.420888 
L 479.120665 167.485797 
L 479.561771 168.077085 
L 480.002878 168.264032 
L 480.443985 167.662811 
L 480.885091 167.993159 
L 481.326198 167.701559 
L 481.767305 168.175583 
L 482.208412 168.068052 
L 482.649518 168.168252 
L 483.090625 167.917035 
L 483.531732 168.125004 
L 483.972838 167.61821 
L 484.413945 168.034187 
L 484.855052 168.012515 
L 485.296159 167.751495 
L 485.737265 168.214365 
L 486.619479 167.834211 
L 487.060585 168.107223 
L 487.501692 168.052522 
L 487.942799 168.754493 
L 488.383906 167.919724 
L 488.825012 168.417852 
L 489.266119 167.689991 
L 490.148333 167.980679 
L 490.589439 167.810499 
L 491.030546 167.962371 
L 491.471653 167.649031 
L 491.912759 168.198983 
L 492.353866 168.257292 
L 492.794973 167.565095 
L 493.23608 167.666777 
L 493.677186 168.134757 
L 494.118293 167.766729 
L 494.5594 168.068642 
L 495.000506 168.068813 
L 495.441613 168.376111 
L 495.88272 168.323267 
L 496.323827 168.045614 
L 496.764933 168.013065 
L 497.20604 168.729377 
L 497.647147 168.472048 
L 498.088253 167.71081 
L 498.52936 167.839083 
L 499.411574 168.607979 
L 499.85268 168.046909 
L 502.058214 168.339345 
L 503.381534 167.907877 
L 503.822641 167.996859 
L 504.704854 167.956325 
L 505.145961 168.335002 
L 506.028174 168.000615 
L 506.469281 168.34044 
L 506.910388 167.747281 
L 507.351495 167.712023 
L 507.792601 168.375882 
L 508.674815 167.865294 
L 509.115921 168.38259 
L 509.998135 168.289031 
L 510.439242 167.838615 
L 510.880348 168.052053 
L 511.321455 167.46046 
L 511.762562 167.931055 
L 512.203668 167.679184 
L 512.644775 168.034151 
L 513.085882 167.710281 
L 513.968095 167.77079 
L 514.850309 168.24578 
L 515.732522 168.200039 
L 516.173629 167.829781 
L 516.614736 167.958138 
L 517.055842 168.402189 
L 517.496949 168.554432 
L 518.379163 167.649448 
L 519.702483 167.955298 
L 520.143589 168.353654 
L 520.584696 168.307398 
L 521.46691 167.766889 
L 521.908016 167.657628 
L 522.349123 167.845189 
L 522.79023 167.687432 
L 523.231336 167.823104 
L 523.672443 167.392199 
L 524.11355 167.779666 
L 524.554657 167.685633 
L 524.995763 167.89451 
L 525.43687 167.138594 
L 525.877977 167.323921 
L 526.319083 166.796265 
L 526.76019 167.393376 
L 527.642404 167.520812 
L 528.08351 167.150663 
L 528.524617 167.495462 
L 528.965724 167.134297 
L 529.406831 167.550264 
L 529.847937 167.154746 
L 530.289044 167.587608 
L 530.730151 167.21438 
L 531.171257 167.838486 
L 531.612364 167.489968 
L 532.053471 167.505754 
L 532.494578 166.953646 
L 532.935684 167.728569 
L 533.376791 167.637567 
L 533.817898 167.782465 
L 534.259004 167.465462 
L 534.700111 167.6463 
L 535.141218 167.67675 
L 535.582325 168.102737 
L 536.023431 167.422142 
L 536.905645 168.100589 
L 537.346751 167.246586 
L 537.787858 167.871726 
L 538.228965 167.584116 
L 538.670072 167.867532 
L 539.111178 167.406948 
L 539.552285 167.775551 
L 539.993392 167.612994 
L 541.316712 168.130487 
L 542.640032 167.585704 
L 543.522246 167.628664 
L 544.404459 167.73587 
L 544.845566 167.440339 
L 545.286672 167.800343 
L 545.727779 167.998738 
L 546.168886 168.532412 
L 547.051099 167.513484 
L 547.492206 167.855203 
L 548.374419 167.451928 
L 548.815526 167.538191 
L 549.256633 168.188903 
L 549.69774 167.451479 
L 550.138846 167.977264 
L 550.579953 168.058694 
L 551.462167 167.690907 
L 552.34438 168.038624 
L 552.785487 168.365727 
L 553.226593 167.587755 
L 553.6677 168.448506 
L 554.549914 167.49746 
L 554.99102 167.476281 
L 555.432127 167.738096 
L 555.873234 167.755714 
L 556.755447 168.102064 
L 557.637661 167.973858 
L 558.078767 167.760494 
L 558.519874 167.084461 
L 558.960981 167.883118 
L 559.402087 167.614984 
L 559.843194 167.639607 
L 560.284301 168.206244 
L 560.725408 167.68942 
L 561.607621 167.964516 
L 562.048728 167.815619 
L 562.489834 168.022647 
L 562.930941 168.002625 
L 563.372048 167.824684 
L 563.813155 167.434671 
L 564.254261 167.986338 
L 565.136475 167.705748 
L 565.577582 167.930693 
L 566.018688 167.799168 
L 566.459795 168.376478 
L 566.900902 168.00842 
L 567.342008 168.025359 
L 567.783115 167.899444 
L 568.224222 167.988372 
L 569.106435 167.573388 
L 569.988649 167.762593 
L 570.870862 167.372034 
L 571.753076 167.598472 
L 572.194182 167.712845 
L 572.635289 167.160308 
L 573.076396 167.39207 
L 573.517502 167.76882 
L 573.958609 167.932979 
L 574.399716 167.720401 
L 574.840823 167.669139 
L 575.281929 167.028703 
L 575.723036 167.332513 
L 576.164143 167.119462 
L 576.60525 167.400241 
L 578.810783 167.670873 
L 579.692997 167.173844 
L 580.57521 167.124134 
L 581.016317 167.176174 
L 581.457423 166.7652 
L 581.89853 167.051205 
L 582.780744 166.885233 
L 583.22185 167.250127 
L 584.104064 166.772559 
L 584.54517 167.775936 
L 584.986277 167.00415 
L 585.427384 167.511128 
L 585.868491 167.550489 
L 587.191811 167.15025 
L 588.074024 167.213006 
L 588.515131 166.992838 
L 588.956238 167.392014 
L 589.397344 167.13368 
L 590.279558 167.218266 
L 590.720665 166.925797 
L 591.161771 167.401719 
L 591.602878 167.093697 
L 592.043985 167.136046 
L 592.485091 167.4986 
L 592.926198 166.855258 
L 593.367305 166.723251 
L 593.808412 167.33815 
L 595.131732 166.874395 
L 595.572838 167.081431 
L 596.455052 167.050043 
L 597.337265 167.536996 
L 598.219479 167.583058 
L 598.660585 168.017203 
L 599.101692 167.974535 
L 600.425012 168.39631 
L 600.866119 168.398294 
L 601.307226 168.231063 
L 601.748333 167.884159 
L 602.189439 168.345749 
L 602.630546 168.264352 
L 603.071653 167.955007 
L 603.953866 168.06413 
L 604.394973 167.618454 
L 604.83608 168.266924 
L 605.277186 167.692045 
L 606.1594 167.618105 
L 606.600506 167.379107 
L 607.923827 168.193493 
L 608.364933 167.844706 
L 608.80604 167.872502 
L 609.247147 168.180034 
L 609.688253 168.264143 
L 610.12936 167.911159 
L 610.570467 168.260087 
L 611.011574 168.390628 
L 611.45268 168.229973 
L 611.893787 168.428713 
L 612.334894 167.990621 
L 612.776 168.2936 
L 613.217107 168.134135 
L 613.658214 168.748672 
L 614.540427 168.437697 
L 614.981534 168.444157 
L 615.422641 167.793607 
L 615.863748 168.52573 
L 616.304854 168.035701 
L 616.745961 168.096286 
L 617.187068 168.496894 
L 617.628174 168.550487 
L 618.069281 168.32347 
L 618.951495 168.138543 
L 619.392601 167.913322 
L 620.715921 167.987964 
L 621.157028 168.285516 
L 621.598135 168.185153 
L 622.039242 167.832161 
L 622.480348 168.356196 
L 623.362562 167.800512 
L 623.803668 167.760334 
L 624.685882 168.074339 
L 625.126989 168.245453 
L 625.126989 168.245453 
" clip-path="url(#p0753f709be)" style="fill: none; stroke: #1f77b4; stroke-width: 1.5; stroke-linecap: square"/>
   </g>
   <g id="line2d_14">
    <path d="M 117.854261 296.03625 
L 118.736475 219.200503 
L 119.177582 230.492934 
L 119.618688 238.645685 
L 120.059795 213.261152 
L 120.500902 212.54875 
L 120.942008 215.076811 
L 121.383115 205.598168 
L 121.824222 212.181319 
L 122.265329 226.669107 
L 123.147542 196.212776 
L 123.588649 194.413947 
L 124.029755 194.780619 
L 124.470862 201.832737 
L 124.911969 195.235904 
L 125.353076 196.378027 
L 125.794182 194.532246 
L 126.235289 194.186848 
L 126.676396 195.502642 
L 127.117502 184.213625 
L 127.558609 181.165058 
L 128.440823 182.194952 
L 128.881929 186.091654 
L 129.323036 177.656689 
L 129.764143 180.557306 
L 130.20525 182.010728 
L 130.646356 182.333157 
L 131.087463 181.694365 
L 131.52857 181.32096 
L 131.969676 182.390077 
L 132.410783 183.960668 
L 132.85189 184.431872 
L 133.292997 183.194059 
L 133.734103 180.438406 
L 134.17521 181.145129 
L 134.616317 183.060858 
L 135.057423 181.048282 
L 135.49853 180.679822 
L 135.939637 178.011528 
L 136.82185 178.090941 
L 137.262957 178.969227 
L 137.704064 181.172561 
L 138.14517 178.870422 
L 138.586277 177.393865 
L 139.027384 177.781811 
L 139.468491 178.351291 
L 139.909597 176.208669 
L 140.350704 177.343197 
L 140.791811 177.985098 
L 141.232917 180.055569 
L 141.674024 176.730227 
L 142.115131 176.248777 
L 142.556238 179.231779 
L 142.997344 177.708572 
L 143.438451 177.030424 
L 143.879558 176.664959 
L 144.320665 177.691265 
L 144.761771 176.119124 
L 145.202878 176.160455 
L 145.643985 176.32796 
L 146.085091 176.294541 
L 146.526198 177.635459 
L 147.408412 175.798741 
L 147.849518 174.709478 
L 148.290625 176.153952 
L 148.731732 175.127327 
L 149.172838 173.767497 
L 149.613945 175.460951 
L 150.055052 176.586489 
L 150.496159 176.4194 
L 150.937265 177.261133 
L 151.378372 174.063869 
L 151.819479 178.121447 
L 152.260585 174.604464 
L 153.142799 174.564015 
L 153.583906 174.107088 
L 154.025012 175.394572 
L 154.466119 174.377249 
L 154.907226 173.690661 
L 155.348333 174.735638 
L 155.789439 174.466004 
L 156.230546 173.763776 
L 156.671653 174.487707 
L 157.553866 173.128249 
L 157.994973 173.783378 
L 158.43608 172.877454 
L 158.877186 174.449639 
L 159.318293 174.136157 
L 159.7594 174.131147 
L 160.200506 174.543099 
L 160.641613 174.151772 
L 161.08272 171.716959 
L 161.964933 172.9355 
L 162.40604 173.551442 
L 162.847147 171.414805 
L 163.288253 172.531184 
L 164.170467 173.528479 
L 164.611574 174.667006 
L 165.05268 172.879212 
L 165.493787 174.079173 
L 165.934894 174.417489 
L 166.817107 173.861619 
L 167.258214 174.307226 
L 167.699321 172.468632 
L 168.140427 173.093585 
L 169.022641 171.328881 
L 169.463748 172.522737 
L 169.904854 173.248832 
L 170.345961 173.248455 
L 170.787068 172.722076 
L 171.228174 173.191447 
L 171.669281 171.575761 
L 172.110388 171.514487 
L 172.551495 172.497564 
L 172.992601 172.614868 
L 173.433708 172.527716 
L 173.874815 172.901462 
L 174.315921 171.798656 
L 174.757028 172.17445 
L 175.198135 171.36876 
L 175.639242 171.860114 
L 176.080348 172.065286 
L 176.521455 172.853624 
L 176.962562 172.279056 
L 177.403668 172.345809 
L 177.844775 171.40709 
L 178.726989 173.281889 
L 179.168095 171.6027 
L 179.609202 171.572991 
L 180.050309 172.788874 
L 180.491416 173.126234 
L 180.932522 172.833694 
L 181.373629 172.21413 
L 181.814736 173.023502 
L 182.255842 173.20008 
L 182.696949 172.111453 
L 183.138056 172.345466 
L 183.579163 173.241511 
L 184.020269 173.382747 
L 184.461376 171.305869 
L 184.902483 172.329936 
L 185.343589 172.906326 
L 185.784696 172.161376 
L 186.225803 172.618973 
L 186.66691 172.868546 
L 187.108016 172.178703 
L 187.549123 172.386805 
L 187.99023 171.756797 
L 188.431336 172.613199 
L 188.872443 172.735791 
L 189.31355 171.651542 
L 189.754657 171.944659 
L 190.195763 171.896408 
L 190.63687 172.235164 
L 191.96019 172.841949 
L 192.401297 171.593369 
L 192.842404 172.130366 
L 193.28351 172.372364 
L 193.724617 172.074754 
L 194.165724 171.556562 
L 194.606831 172.602379 
L 195.047937 171.34686 
L 195.489044 171.920515 
L 195.930151 171.527562 
L 196.371257 173.732855 
L 196.812364 171.742232 
L 197.253471 172.010685 
L 197.694578 171.679803 
L 198.135684 172.867061 
L 198.576791 172.121979 
L 199.017898 172.252688 
L 199.900111 171.196761 
L 200.341218 171.68482 
L 200.782325 171.334027 
L 201.664538 171.732382 
L 202.105645 171.046097 
L 202.546751 171.840605 
L 202.987858 171.338442 
L 203.870072 171.274296 
L 204.311178 171.527496 
L 204.752285 171.463002 
L 205.634499 171.714048 
L 206.075605 171.527779 
L 206.516712 171.971782 
L 206.957819 171.808757 
L 207.398925 171.239484 
L 207.840032 171.712659 
L 208.281139 171.35515 
L 208.722246 171.253456 
L 209.163352 170.952888 
L 209.604459 171.26288 
L 210.045566 171.751968 
L 210.486672 171.851963 
L 210.927779 171.325347 
L 211.368886 171.013635 
L 212.692206 171.590286 
L 213.133313 171.297249 
L 213.574419 171.551686 
L 214.456633 170.870277 
L 214.89774 170.951387 
L 215.338846 170.706756 
L 215.779953 172.011226 
L 216.22106 171.562232 
L 216.662167 171.393369 
L 217.103273 170.624929 
L 217.54438 170.80561 
L 217.985487 171.546023 
L 219.308807 170.643849 
L 219.749914 171.28086 
L 220.19102 170.960326 
L 220.632127 170.393007 
L 221.073234 171.235045 
L 221.955447 170.199702 
L 222.396554 170.694318 
L 222.837661 171.399415 
L 223.278767 171.077521 
L 223.719874 171.099076 
L 224.160981 170.871475 
L 224.602087 172.392286 
L 225.043194 172.26415 
L 225.484301 171.124406 
L 226.807621 171.044001 
L 227.248728 171.602959 
L 227.689834 171.166176 
L 228.572048 170.812143 
L 229.013155 171.302051 
L 229.454261 172.056204 
L 229.895368 171.356412 
L 230.336475 172.162386 
L 230.777582 170.870293 
L 231.218688 170.933369 
L 231.659795 171.41883 
L 232.542008 171.6746 
L 232.983115 171.327942 
L 233.424222 171.457798 
L 233.865329 171.376492 
L 235.629755 171.6086 
L 236.070862 172.038357 
L 236.511969 171.485702 
L 236.953076 171.201776 
L 237.394182 172.03931 
L 237.835289 171.951895 
L 238.276396 171.029977 
L 238.717502 171.470733 
L 239.158609 171.33633 
L 239.599716 171.788106 
L 240.040823 171.619493 
L 240.481929 171.687032 
L 240.923036 172.066726 
L 241.364143 171.215829 
L 241.80525 170.9907 
L 242.687463 171.888345 
L 243.12857 171.568269 
L 243.569676 171.90961 
L 244.010783 170.651171 
L 244.45189 171.315803 
L 244.892997 171.7623 
L 245.334103 171.30192 
L 245.77521 170.659659 
L 246.216317 171.288779 
L 246.657423 171.490592 
L 247.09853 172.222745 
L 247.539637 172.55833 
L 247.980744 171.034898 
L 248.42185 171.498769 
L 248.862957 171.647811 
L 249.74517 171.370715 
L 250.186277 170.858276 
L 251.950704 171.90754 
L 252.391811 171.958406 
L 252.832917 172.342796 
L 253.274024 171.67289 
L 253.715131 172.154893 
L 254.156238 171.257939 
L 254.597344 171.674141 
L 255.479558 171.049011 
L 255.920665 171.724085 
L 256.361771 172.095347 
L 257.243985 171.377652 
L 257.685091 171.62404 
L 258.126198 171.390359 
L 258.567305 171.60132 
L 259.008412 171.535308 
L 259.890625 171.832293 
L 260.331732 171.367157 
L 260.772838 171.617892 
L 261.213945 171.685619 
L 261.655052 171.618568 
L 262.537265 171.860995 
L 262.978372 172.237446 
L 263.419479 171.005607 
L 263.860585 171.553755 
L 264.301692 171.490333 
L 264.742799 171.592916 
L 265.625012 171.398825 
L 266.066119 171.605477 
L 266.948333 172.38631 
L 267.389439 171.526915 
L 267.830546 171.645364 
L 268.271653 171.371208 
L 268.712759 172.147328 
L 269.153866 171.753966 
L 269.594973 173.179875 
L 270.03608 171.668005 
L 270.477186 171.579546 
L 270.918293 172.096871 
L 271.3594 172.356091 
L 271.800506 172.089167 
L 272.241613 172.553571 
L 272.68272 171.812758 
L 273.123827 171.615187 
L 274.00604 171.69413 
L 274.447147 171.766294 
L 274.888253 172.234649 
L 275.770467 171.674879 
L 276.211574 171.832849 
L 276.65268 172.280615 
L 277.093787 171.622514 
L 277.534894 171.755409 
L 277.976 172.137954 
L 278.417107 171.268446 
L 278.858214 172.07895 
L 279.299321 171.204316 
L 279.740427 172.061808 
L 280.181534 171.646001 
L 280.622641 171.927455 
L 281.063748 171.965757 
L 281.504854 171.666375 
L 281.945961 171.715999 
L 282.387068 172.314211 
L 282.828174 172.600415 
L 283.710388 172.093801 
L 284.151495 172.294227 
L 284.592601 171.622418 
L 285.474815 171.826495 
L 285.915921 171.737618 
L 286.357028 171.862572 
L 286.798135 171.810099 
L 287.239242 172.003163 
L 287.680348 171.442342 
L 288.121455 171.871399 
L 288.562562 172.112333 
L 289.003668 171.965151 
L 289.444775 171.593799 
L 289.885882 172.424699 
L 290.326989 172.280127 
L 290.768095 171.782763 
L 291.650309 172.362792 
L 292.532522 172.20061 
L 292.973629 172.371535 
L 293.414736 171.999299 
L 294.296949 171.610287 
L 294.738056 171.773116 
L 295.179163 171.682329 
L 295.620269 171.967082 
L 296.061376 171.559341 
L 296.502483 171.909636 
L 297.384696 172.294224 
L 297.825803 171.932208 
L 298.26691 172.584878 
L 298.708016 172.074051 
L 299.149123 171.992196 
L 299.59023 172.04918 
L 300.031336 172.439833 
L 301.354657 171.978719 
L 301.795763 172.222894 
L 302.23687 171.692602 
L 302.677977 172.103561 
L 303.56019 171.90705 
L 304.001297 172.379678 
L 304.442404 171.602559 
L 304.88351 172.046383 
L 305.324617 171.783138 
L 306.206831 172.085609 
L 306.647937 171.771962 
L 307.089044 172.218407 
L 307.971257 172.278004 
L 308.412364 172.469344 
L 308.853471 172.082219 
L 309.294578 172.14542 
L 309.735684 172.415526 
L 310.176791 172.448525 
L 310.617898 171.769688 
L 311.059004 172.670857 
L 311.500111 172.261742 
L 311.941218 172.179617 
L 312.382325 172.75954 
L 312.823431 172.558029 
L 313.264538 171.989123 
L 314.146751 172.108654 
L 314.587858 171.709229 
L 315.028965 172.924987 
L 315.470072 172.155324 
L 315.911178 172.460446 
L 316.352285 172.32577 
L 316.793392 172.626836 
L 317.234499 171.57441 
L 317.675605 172.098787 
L 318.116712 172.167263 
L 318.557819 171.574182 
L 319.440032 171.795719 
L 320.322246 171.727319 
L 320.763352 171.728792 
L 321.204459 172.057989 
L 321.645566 172.197913 
L 322.086672 171.68826 
L 322.527779 172.546455 
L 322.968886 171.75321 
L 323.409993 171.527242 
L 323.851099 171.579348 
L 324.292206 171.491789 
L 324.733313 171.614068 
L 325.174419 171.273213 
L 325.615526 171.721788 
L 326.938846 171.597293 
L 327.379953 171.221748 
L 327.82106 171.946635 
L 328.262167 171.54936 
L 328.703273 171.918295 
L 329.14438 171.70649 
L 329.585487 171.369587 
L 330.026593 172.016757 
L 330.908807 171.647025 
L 331.349914 171.942592 
L 331.79102 171.796667 
L 332.232127 171.462699 
L 332.673234 171.850835 
L 333.11434 171.619728 
L 333.555447 171.633126 
L 333.996554 171.98708 
L 334.437661 171.713236 
L 334.878767 172.227735 
L 335.319874 171.661024 
L 335.760981 171.646745 
L 336.643194 172.171069 
L 337.525408 171.032468 
L 337.966514 171.890426 
L 338.407621 171.742362 
L 338.848728 171.418415 
L 339.289834 172.147392 
L 339.730941 171.921093 
L 340.172048 171.482523 
L 341.054261 172.073854 
L 341.495368 171.643588 
L 342.818688 171.546255 
L 343.259795 171.764198 
L 344.142008 171.069354 
L 344.583115 171.377002 
L 345.024222 172.050453 
L 345.465329 171.849916 
L 345.906435 171.860143 
L 346.347542 171.732915 
L 346.788649 171.303851 
L 347.670862 171.520633 
L 348.111969 171.730886 
L 348.553076 171.33955 
L 348.994182 171.775897 
L 349.435289 171.614878 
L 349.876396 172.277533 
L 350.317502 171.669711 
L 350.758609 172.172951 
L 351.199716 171.577625 
L 352.081929 171.483749 
L 352.523036 171.242414 
L 352.964143 171.979101 
L 353.40525 171.568908 
L 353.846356 171.468434 
L 354.287463 171.70582 
L 355.169676 171.783909 
L 355.610783 171.418185 
L 356.934103 171.594637 
L 357.37521 171.242859 
L 357.816317 171.826873 
L 358.257423 171.309659 
L 360.02185 171.853016 
L 361.34517 171.472713 
L 361.786277 171.307203 
L 362.227384 171.710485 
L 362.668491 171.574469 
L 363.109597 171.971282 
L 363.550704 171.285448 
L 363.991811 171.703686 
L 364.432917 171.380695 
L 364.874024 171.65969 
L 365.315131 171.250398 
L 365.756238 171.299857 
L 366.197344 171.575726 
L 366.638451 171.207537 
L 367.079558 171.86768 
L 367.520665 171.19964 
L 367.961771 171.064495 
L 368.402878 171.7875 
L 368.843985 171.064782 
L 369.285091 171.187348 
L 369.726198 171.604023 
L 370.608412 171.888027 
L 371.049518 171.30301 
L 371.490625 171.529095 
L 371.931732 171.497257 
L 372.372838 171.123619 
L 372.813945 171.158037 
L 373.255052 171.644663 
L 373.696159 171.830987 
L 374.137265 171.507214 
L 374.578372 171.34703 
L 375.019479 171.353478 
L 375.460585 171.722931 
L 375.901692 171.612591 
L 376.342799 171.653517 
L 377.225012 171.530283 
L 377.666119 171.6877 
L 378.107226 171.372083 
L 378.548333 171.415048 
L 378.989439 171.635205 
L 379.430546 171.574652 
L 379.871653 171.128399 
L 380.312759 171.523431 
L 380.753866 171.600522 
L 381.63608 171.312941 
L 382.077186 171.421824 
L 383.841613 171.458953 
L 384.28272 171.765277 
L 385.164933 171.500581 
L 386.488253 171.648895 
L 386.92936 171.615499 
L 387.370467 171.336644 
L 387.811574 171.447294 
L 388.25268 171.880552 
L 388.693787 171.525351 
L 389.134894 171.413842 
L 389.576 171.716409 
L 390.017107 171.406692 
L 390.458214 171.650598 
L 392.222641 171.87875 
L 392.663748 171.544947 
L 393.104854 171.690293 
L 393.987068 171.612162 
L 394.428174 172.042311 
L 394.869281 171.602169 
L 395.310388 171.76101 
L 395.751495 171.60049 
L 396.192601 171.575155 
L 396.633708 171.782807 
L 397.074815 171.303394 
L 397.957028 172.22686 
L 398.398135 171.385557 
L 398.839242 171.749951 
L 399.280348 171.570733 
L 399.721455 171.623055 
L 400.162562 171.915835 
L 400.603668 171.576743 
L 401.044775 171.468432 
L 401.485882 171.920446 
L 401.926989 171.957665 
L 402.368095 171.390786 
L 402.809202 171.646143 
L 403.250309 171.629102 
L 404.132522 171.816926 
L 404.573629 171.68513 
L 405.014736 171.806109 
L 405.455842 172.046569 
L 405.896949 171.297708 
L 406.338056 171.603883 
L 406.779163 171.772949 
L 407.220269 171.6523 
L 407.661376 171.374826 
L 408.543589 171.427694 
L 408.984696 172.009548 
L 409.425803 171.364036 
L 410.308016 171.599214 
L 410.749123 171.182616 
L 411.19023 171.62443 
L 412.072443 171.831593 
L 412.51355 171.542116 
L 412.954657 171.764636 
L 413.395763 171.463287 
L 413.83687 171.438166 
L 414.277977 172.100975 
L 414.719083 171.765845 
L 415.16019 171.61204 
L 416.924617 172.221847 
L 417.806831 171.520257 
L 418.247937 171.400278 
L 418.689044 171.564072 
L 419.130151 171.512417 
L 420.012364 171.61739 
L 420.453471 171.554389 
L 420.894578 171.908901 
L 421.335684 171.477327 
L 421.776791 172.091608 
L 422.217898 171.467854 
L 423.541218 171.666127 
L 423.982325 172.186488 
L 424.423431 171.742804 
L 425.746751 171.590847 
L 426.187858 171.158404 
L 426.628965 171.528959 
L 428.393392 171.420891 
L 428.834499 171.722485 
L 429.275605 171.863264 
L 429.716712 171.796162 
L 430.157819 171.490731 
L 430.598925 171.445488 
L 431.040032 171.680148 
L 431.481139 171.6821 
L 431.922246 171.293901 
L 432.363352 171.103215 
L 432.804459 171.539433 
L 433.686672 171.441867 
L 435.009993 171.648299 
L 435.451099 171.515511 
L 435.892206 171.614487 
L 437.215526 171.289406 
L 437.656633 171.409006 
L 438.09774 171.19151 
L 438.538846 171.651945 
L 438.979953 170.761083 
L 439.42106 170.987507 
L 439.862167 170.596013 
L 440.303273 170.737447 
L 440.74438 170.661208 
L 441.185487 170.928541 
L 442.0677 171.102284 
L 442.508807 171.42396 
L 442.949914 170.886879 
L 443.39102 171.345256 
L 443.832127 171.01546 
L 444.273234 171.26267 
L 445.155447 171.009744 
L 445.596554 170.808042 
L 446.037661 171.328662 
L 446.478767 170.938545 
L 446.919874 170.867777 
L 447.802087 171.161667 
L 448.243194 171.29173 
L 448.684301 170.840532 
L 449.125408 171.08189 
L 449.566514 171.124606 
L 450.007621 171.29218 
L 450.448728 171.137038 
L 450.889834 171.198372 
L 451.330941 171.599172 
L 451.772048 171.300605 
L 452.213155 171.175879 
L 452.654261 171.381855 
L 453.095368 171.287735 
L 453.536475 171.65396 
L 453.977582 171.319707 
L 454.418688 171.636511 
L 454.859795 171.403219 
L 455.300902 171.330179 
L 455.742008 170.920461 
L 456.183115 171.171368 
L 456.624222 171.198484 
L 457.065329 170.872133 
L 457.506435 171.144007 
L 458.829755 171.376753 
L 459.270862 171.557049 
L 459.711969 171.08047 
L 460.153076 171.45491 
L 460.594182 171.121281 
L 461.035289 171.235663 
L 461.476396 171.595601 
L 461.917502 171.396206 
L 463.240823 171.330871 
L 463.681929 170.934157 
L 464.123036 170.870753 
L 464.564143 171.170502 
L 465.00525 170.882795 
L 465.446356 171.036573 
L 465.887463 171.026358 
L 466.769676 171.299812 
L 467.210783 170.904056 
L 467.65189 171.293444 
L 468.092997 171.157349 
L 468.97521 171.257007 
L 469.857423 171.341784 
L 470.29853 171.881538 
L 470.739637 171.190762 
L 471.180744 170.920531 
L 471.62185 171.002608 
L 472.062957 170.940161 
L 472.504064 171.236111 
L 472.94517 170.691898 
L 473.386277 170.6631 
L 473.827384 171.289256 
L 474.268491 170.834097 
L 474.709597 171.337713 
L 475.150704 170.954675 
L 475.591811 170.995028 
L 476.474024 170.695438 
L 476.915131 170.874813 
L 477.797344 171.045581 
L 478.238451 171.791283 
L 479.120665 170.743319 
L 479.561771 170.589246 
L 480.443985 171.082335 
L 480.885091 170.878595 
L 481.326198 171.202007 
L 481.767305 170.834619 
L 482.208412 170.857913 
L 483.090625 171.258332 
L 483.531732 170.645336 
L 483.972838 170.801055 
L 484.413945 171.163091 
L 485.296159 171.148606 
L 485.737265 171.214201 
L 486.178372 171.105061 
L 486.619479 170.849566 
L 487.060585 170.933592 
L 487.501692 171.135447 
L 488.383906 171.022335 
L 488.825012 171.532721 
L 489.707226 171.081306 
L 490.148333 171.417653 
L 490.589439 170.865572 
L 491.030546 171.186786 
L 491.471653 171.2233 
L 491.912759 171.100225 
L 493.677186 171.417797 
L 494.118293 171.003962 
L 494.5594 170.873678 
L 495.000506 171.19923 
L 495.441613 170.9147 
L 495.88272 171.176549 
L 496.323827 170.720087 
L 496.764933 171.221837 
L 497.20604 170.825395 
L 498.088253 170.903701 
L 498.52936 170.894215 
L 498.970467 171.263465 
L 499.411574 170.896899 
L 499.85268 171.064158 
L 500.293787 170.930889 
L 501.176 170.953442 
L 501.617107 170.660597 
L 502.058214 170.829386 
L 502.499321 171.134191 
L 502.940427 171.278856 
L 503.381534 171.285917 
L 504.263748 171.133321 
L 504.704854 171.228559 
L 505.145961 171.011475 
L 505.587068 171.071401 
L 506.028174 170.969186 
L 506.469281 171.117366 
L 506.910388 170.902941 
L 507.351495 171.340473 
L 507.792601 171.330764 
L 508.233708 171.442246 
L 508.674815 171.170754 
L 509.998135 171.073413 
L 510.439242 171.224513 
L 511.321455 171.200761 
L 511.762562 170.932061 
L 512.203668 170.85153 
L 512.644775 171.272058 
L 513.085882 170.919905 
L 513.968095 171.328001 
L 514.409202 170.945018 
L 514.850309 170.93693 
L 515.291416 171.191192 
L 515.732522 171.629335 
L 516.614736 171.045536 
L 517.055842 171.168376 
L 517.496949 171.41437 
L 517.938056 171.020584 
L 518.379163 171.11746 
L 518.820269 171.086986 
L 519.261376 171.190889 
L 520.143589 171.170039 
L 520.584696 171.433766 
L 521.025803 171.231394 
L 521.46691 171.416421 
L 523.672443 171.1695 
L 524.11355 171.255996 
L 524.554657 171.201189 
L 525.43687 170.894037 
L 527.201297 171.19389 
L 528.08351 170.958544 
L 528.965724 171.520634 
L 529.406831 171.119372 
L 529.847937 171.018045 
L 530.289044 171.67436 
L 530.730151 171.09071 
L 531.171257 171.354111 
L 532.053471 170.839483 
L 532.494578 170.719592 
L 532.935684 170.840227 
L 533.376791 170.708209 
L 533.817898 170.893917 
L 534.259004 171.223553 
L 534.700111 170.712814 
L 535.141218 170.735789 
L 535.582325 170.56253 
L 536.023431 170.978219 
L 536.464538 170.867546 
L 537.346751 171.072234 
L 537.787858 170.655839 
L 538.228965 170.698314 
L 538.670072 171.11127 
L 539.111178 170.684368 
L 540.434499 171.266159 
L 540.875605 171.20957 
L 541.316712 170.876477 
L 541.757819 171.059444 
L 542.640032 170.926751 
L 543.081139 170.696355 
L 543.522246 170.808768 
L 543.963352 171.218476 
L 545.727779 170.606371 
L 546.168886 170.938834 
L 546.609993 170.807869 
L 547.051099 170.850105 
L 547.492206 170.759542 
L 547.933313 170.856284 
L 548.374419 171.272716 
L 548.815526 170.761774 
L 549.256633 170.881607 
L 550.138846 170.761931 
L 550.579953 170.918663 
L 551.02106 170.768164 
L 551.462167 171.215186 
L 551.903273 171.017064 
L 552.34438 171.250301 
L 552.785487 170.951181 
L 554.108807 170.750064 
L 554.549914 170.934623 
L 554.99102 170.891714 
L 555.432127 171.047805 
L 555.873234 170.738098 
L 556.755447 170.735819 
L 557.196554 171.010138 
L 557.637661 170.904273 
L 558.078767 170.954422 
L 558.960981 171.288385 
L 559.402087 171.017768 
L 560.284301 170.684863 
L 560.725408 170.925244 
L 561.166514 170.765478 
L 562.048728 171.199506 
L 562.489834 171.148805 
L 562.930941 171.398969 
L 563.372048 170.721241 
L 563.813155 170.982733 
L 564.695368 171.023371 
L 565.136475 170.609744 
L 565.577582 171.056523 
L 566.900902 170.571225 
L 567.342008 170.84737 
L 567.783115 170.748957 
L 568.224222 170.807698 
L 569.547542 170.51698 
L 569.988649 170.745012 
L 570.429755 170.786442 
L 570.870862 171.193776 
L 571.311969 170.903311 
L 571.753076 171.058865 
L 572.194182 170.887706 
L 572.635289 170.952627 
L 573.076396 170.813599 
L 573.517502 171.215764 
L 573.958609 170.740278 
L 574.399716 170.613744 
L 575.281929 170.579924 
L 576.164143 171.092789 
L 577.046356 170.837638 
L 577.487463 170.913837 
L 577.92857 170.727723 
L 578.369676 170.969048 
L 578.810783 170.825615 
L 579.25189 170.889193 
L 579.692997 171.108736 
L 580.134103 171.187159 
L 580.57521 171.147762 
L 581.016317 170.533143 
L 582.780744 170.847003 
L 583.22185 170.707416 
L 583.662957 170.726416 
L 584.104064 171.098922 
L 584.54517 171.160734 
L 584.986277 170.559771 
L 585.427384 170.413832 
L 586.750704 170.938173 
L 587.191811 170.55412 
L 587.632917 170.483856 
L 588.074024 171.003681 
L 588.515131 170.953024 
L 588.956238 171.316819 
L 589.838451 170.613016 
L 590.279558 170.786452 
L 590.720665 170.736078 
L 591.161771 170.961564 
L 592.043985 170.948136 
L 592.485091 171.101096 
L 592.926198 170.735404 
L 593.808412 171.117438 
L 594.249518 170.693311 
L 595.131732 170.916796 
L 595.572838 171.203961 
L 596.455052 170.745573 
L 596.896159 171.040061 
L 597.337265 170.812139 
L 598.660585 170.704211 
L 599.101692 170.67869 
L 599.542799 170.895043 
L 599.983906 170.381518 
L 600.425012 170.93827 
L 600.866119 170.96271 
L 601.307226 170.534306 
L 601.748333 171.048113 
L 602.189439 170.651114 
L 602.630546 170.622422 
L 603.071653 170.950698 
L 603.512759 170.874743 
L 603.953866 170.64102 
L 604.394973 170.906864 
L 604.83608 170.691515 
L 605.277186 171.212719 
L 605.718293 170.834661 
L 606.1594 170.639146 
L 606.600506 170.850851 
L 607.041613 170.860258 
L 607.48272 170.667375 
L 607.923827 170.835431 
L 608.364933 170.626871 
L 608.80604 170.834009 
L 609.247147 170.866606 
L 609.688253 170.72198 
L 610.12936 170.720277 
L 610.570467 170.933455 
L 611.011574 170.451516 
L 611.45268 170.419604 
L 611.893787 170.998416 
L 612.334894 170.579085 
L 612.776 170.74032 
L 613.217107 170.768913 
L 613.658214 170.429201 
L 614.099321 170.489571 
L 614.540427 170.718454 
L 614.981534 170.603393 
L 615.422641 170.850211 
L 615.863748 170.559679 
L 616.304854 170.813131 
L 616.745961 170.52679 
L 617.187068 170.63431 
L 617.628174 170.491912 
L 618.069281 170.648642 
L 618.510388 170.571859 
L 618.951495 170.871463 
L 619.392601 170.58753 
L 619.833708 170.512779 
L 622.480348 171.03303 
L 622.921455 170.707687 
L 623.362562 170.528718 
L 624.244775 170.9274 
L 624.685882 170.733948 
L 625.126989 171.0728 
L 625.126989 171.0728 
" clip-path="url(#p0753f709be)" style="fill: none; stroke: #ff7f0e; stroke-width: 1.5; stroke-linecap: square"/>
   </g>
   <g id="patch_3">
    <path d="M 92.490625 308.63625 
L 92.490625 31.43625 
" style="fill: none; stroke: #000000; stroke-width: 0.8; stroke-linejoin: miter; stroke-linecap: square"/>
   </g>
   <g id="patch_4">
    <path d="M 650.490625 308.63625 
L 650.490625 31.43625 
" style="fill: none; stroke: #000000; stroke-width: 0.8; stroke-linejoin: miter; stroke-linecap: square"/>
   </g>
   <g id="patch_5">
    <path d="M 92.490625 308.63625 
L 650.490625 308.63625 
" style="fill: none; stroke: #000000; stroke-width: 0.8; stroke-linejoin: miter; stroke-linecap: square"/>
   </g>
   <g id="patch_6">
    <path d="M 92.490625 31.43625 
L 650.490625 31.43625 
" style="fill: none; stroke: #000000; stroke-width: 0.8; stroke-linejoin: miter; stroke-linecap: square"/>
   </g>
   <g id="text_15">
    <!-- Generator and Discriminator Loss During Training -->
    <g transform="translate(74.258125 25.43625) scale(0.24 -0.24)">
     <defs>
      <path id="DejaVuSans-47" d="M 3809 666 
L 3809 1919 
L 2778 1919 
L 2778 2438 
L 4434 2438 
L 4434 434 
Q 4069 175 3628 42 
Q 3188 -91 2688 -91 
Q 1594 -91 976 548 
Q 359 1188 359 2328 
Q 359 3472 976 4111 
Q 1594 4750 2688 4750 
Q 3144 4750 3555 4637 
Q 3966 4525 4313 4306 
L 4313 3634 
Q 3963 3931 3569 4081 
Q 3175 4231 2741 4231 
Q 1884 4231 1454 3753 
Q 1025 3275 1025 2328 
Q 1025 1384 1454 906 
Q 1884 428 2741 428 
Q 3075 428 3337 486 
Q 3600 544 3809 666 
z
" transform="scale(0.015625)"/>
      <path id="DejaVuSans-20" transform="scale(0.015625)"/>
      <path id="DejaVuSans-64" d="M 2906 2969 
L 2906 4863 
L 3481 4863 
L 3481 0 
L 2906 0 
L 2906 525 
Q 2725 213 2448 61 
Q 2172 -91 1784 -91 
Q 1150 -91 751 415 
Q 353 922 353 1747 
Q 353 2572 751 3078 
Q 1150 3584 1784 3584 
Q 2172 3584 2448 3432 
Q 2725 3281 2906 2969 
z
M 947 1747 
Q 947 1113 1208 752 
Q 1469 391 1925 391 
Q 2381 391 2643 752 
Q 2906 1113 2906 1747 
Q 2906 2381 2643 2742 
Q 2381 3103 1925 3103 
Q 1469 3103 1208 2742 
Q 947 2381 947 1747 
z
" transform="scale(0.015625)"/>
      <path id="DejaVuSans-44" d="M 1259 4147 
L 1259 519 
L 2022 519 
Q 2988 519 3436 956 
Q 3884 1394 3884 2338 
Q 3884 3275 3436 3711 
Q 2988 4147 2022 4147 
L 1259 4147 
z
M 628 4666 
L 1925 4666 
Q 3281 4666 3915 4102 
Q 4550 3538 4550 2338 
Q 4550 1131 3912 565 
Q 3275 0 1925 0 
L 628 0 
L 628 4666 
z
" transform="scale(0.015625)"/>
      <path id="DejaVuSans-63" d="M 3122 3366 
L 3122 2828 
Q 2878 2963 2633 3030 
Q 2388 3097 2138 3097 
Q 1578 3097 1268 2742 
Q 959 2388 959 1747 
Q 959 1106 1268 751 
Q 1578 397 2138 397 
Q 2388 397 2633 464 
Q 2878 531 3122 666 
L 3122 134 
Q 2881 22 2623 -34 
Q 2366 -91 2075 -91 
Q 1284 -91 818 406 
Q 353 903 353 1747 
Q 353 2603 823 3093 
Q 1294 3584 2113 3584 
Q 2378 3584 2631 3529 
Q 2884 3475 3122 3366 
z
" transform="scale(0.015625)"/>
      <path id="DejaVuSans-6d" d="M 3328 2828 
Q 3544 3216 3844 3400 
Q 4144 3584 4550 3584 
Q 5097 3584 5394 3201 
Q 5691 2819 5691 2113 
L 5691 0 
L 5113 0 
L 5113 2094 
Q 5113 2597 4934 2840 
Q 4756 3084 4391 3084 
Q 3944 3084 3684 2787 
Q 3425 2491 3425 1978 
L 3425 0 
L 2847 0 
L 2847 2094 
Q 2847 2600 2669 2842 
Q 2491 3084 2119 3084 
Q 1678 3084 1418 2786 
Q 1159 2488 1159 1978 
L 1159 0 
L 581 0 
L 581 3500 
L 1159 3500 
L 1159 2956 
Q 1356 3278 1631 3431 
Q 1906 3584 2284 3584 
Q 2666 3584 2933 3390 
Q 3200 3197 3328 2828 
z
" transform="scale(0.015625)"/>
      <path id="DejaVuSans-75" d="M 544 1381 
L 544 3500 
L 1119 3500 
L 1119 1403 
Q 1119 906 1312 657 
Q 1506 409 1894 409 
Q 2359 409 2629 706 
Q 2900 1003 2900 1516 
L 2900 3500 
L 3475 3500 
L 3475 0 
L 2900 0 
L 2900 538 
Q 2691 219 2414 64 
Q 2138 -91 1772 -91 
Q 1169 -91 856 284 
Q 544 659 544 1381 
z
M 1991 3584 
L 1991 3584 
z
" transform="scale(0.015625)"/>
      <path id="DejaVuSans-67" d="M 2906 1791 
Q 2906 2416 2648 2759 
Q 2391 3103 1925 3103 
Q 1463 3103 1205 2759 
Q 947 2416 947 1791 
Q 947 1169 1205 825 
Q 1463 481 1925 481 
Q 2391 481 2648 825 
Q 2906 1169 2906 1791 
z
M 3481 434 
Q 3481 -459 3084 -895 
Q 2688 -1331 1869 -1331 
Q 1566 -1331 1297 -1286 
Q 1028 -1241 775 -1147 
L 775 -588 
Q 1028 -725 1275 -790 
Q 1522 -856 1778 -856 
Q 2344 -856 2625 -561 
Q 2906 -266 2906 331 
L 2906 616 
Q 2728 306 2450 153 
Q 2172 0 1784 0 
Q 1141 0 747 490 
Q 353 981 353 1791 
Q 353 2603 747 3093 
Q 1141 3584 1784 3584 
Q 2172 3584 2450 3431 
Q 2728 3278 2906 2969 
L 2906 3500 
L 3481 3500 
L 3481 434 
z
" transform="scale(0.015625)"/>
      <path id="DejaVuSans-54" d="M -19 4666 
L 3928 4666 
L 3928 4134 
L 2272 4134 
L 2272 0 
L 1638 0 
L 1638 4134 
L -19 4134 
L -19 4666 
z
" transform="scale(0.015625)"/>
     </defs>
     <use xlink:href="#DejaVuSans-47"/>
     <use xlink:href="#DejaVuSans-65" x="77.490234"/>
     <use xlink:href="#DejaVuSans-6e" x="139.013672"/>
     <use xlink:href="#DejaVuSans-65" x="202.392578"/>
     <use xlink:href="#DejaVuSans-72" x="263.916016"/>
     <use xlink:href="#DejaVuSans-61" x="305.029297"/>
     <use xlink:href="#DejaVuSans-74" x="366.308594"/>
     <use xlink:href="#DejaVuSans-6f" x="405.517578"/>
     <use xlink:href="#DejaVuSans-72" x="466.699219"/>
     <use xlink:href="#DejaVuSans-20" x="507.8125"/>
     <use xlink:href="#DejaVuSans-61" x="539.599609"/>
     <use xlink:href="#DejaVuSans-6e" x="600.878906"/>
     <use xlink:href="#DejaVuSans-64" x="664.257812"/>
     <use xlink:href="#DejaVuSans-20" x="727.734375"/>
     <use xlink:href="#DejaVuSans-44" x="759.521484"/>
     <use xlink:href="#DejaVuSans-69" x="836.523438"/>
     <use xlink:href="#DejaVuSans-73" x="864.306641"/>
     <use xlink:href="#DejaVuSans-63" x="916.40625"/>
     <use xlink:href="#DejaVuSans-72" x="971.386719"/>
     <use xlink:href="#DejaVuSans-69" x="1012.5"/>
     <use xlink:href="#DejaVuSans-6d" x="1040.283203"/>
     <use xlink:href="#DejaVuSans-69" x="1137.695312"/>
     <use xlink:href="#DejaVuSans-6e" x="1165.478516"/>
     <use xlink:href="#DejaVuSans-61" x="1228.857422"/>
     <use xlink:href="#DejaVuSans-74" x="1290.136719"/>
     <use xlink:href="#DejaVuSans-6f" x="1329.345703"/>
     <use xlink:href="#DejaVuSans-72" x="1390.527344"/>
     <use xlink:href="#DejaVuSans-20" x="1431.640625"/>
     <use xlink:href="#DejaVuSans-4c" x="1463.427734"/>
     <use xlink:href="#DejaVuSans-6f" x="1517.390625"/>
     <use xlink:href="#DejaVuSans-73" x="1578.572266"/>
     <use xlink:href="#DejaVuSans-73" x="1630.671875"/>
     <use xlink:href="#DejaVuSans-20" x="1682.771484"/>
     <use xlink:href="#DejaVuSans-44" x="1714.558594"/>
     <use xlink:href="#DejaVuSans-75" x="1791.560547"/>
     <use xlink:href="#DejaVuSans-72" x="1854.939453"/>
     <use xlink:href="#DejaVuSans-69" x="1896.052734"/>
     <use xlink:href="#DejaVuSans-6e" x="1923.835938"/>
     <use xlink:href="#DejaVuSans-67" x="1987.214844"/>
     <use xlink:href="#DejaVuSans-20" x="2050.691406"/>
     <use xlink:href="#DejaVuSans-54" x="2082.478516"/>
     <use xlink:href="#DejaVuSans-72" x="2128.8125"/>
     <use xlink:href="#DejaVuSans-61" x="2169.925781"/>
     <use xlink:href="#DejaVuSans-69" x="2231.205078"/>
     <use xlink:href="#DejaVuSans-6e" x="2258.988281"/>
     <use xlink:href="#DejaVuSans-69" x="2322.367188"/>
     <use xlink:href="#DejaVuSans-6e" x="2350.150391"/>
     <use xlink:href="#DejaVuSans-67" x="2413.529297"/>
    </g>
   </g>
   <g id="legend_1">
    <g id="patch_7">
     <path d="M 556.99375 106.14875 
L 636.490625 106.14875 
Q 640.490625 106.14875 640.490625 102.14875 
L 640.490625 45.43625 
Q 640.490625 41.43625 636.490625 41.43625 
L 556.99375 41.43625 
Q 552.99375 41.43625 552.99375 45.43625 
L 552.99375 102.14875 
Q 552.99375 106.14875 556.99375 106.14875 
z
" style="fill: #ffffff; opacity: 0.8; stroke: #cccccc; stroke-linejoin: miter"/>
    </g>
    <g id="line2d_15">
     <path d="M 560.99375 57.633125 
L 580.99375 57.633125 
L 600.99375 57.633125 
" style="fill: none; stroke: #1f77b4; stroke-width: 1.5; stroke-linecap: square"/>
    </g>
    <g id="text_16">
     <!-- G -->
     <g transform="translate(616.99375 64.633125) scale(0.2 -0.2)">
      <use xlink:href="#DejaVuSans-47"/>
     </g>
    </g>
    <g id="line2d_16">
     <path d="M 560.99375 86.989375 
L 580.99375 86.989375 
L 600.99375 86.989375 
" style="fill: none; stroke: #ff7f0e; stroke-width: 1.5; stroke-linecap: square"/>
    </g>
    <g id="text_17">
     <!-- D -->
     <g transform="translate(616.99375 93.989375) scale(0.2 -0.2)">
      <use xlink:href="#DejaVuSans-44"/>
     </g>
    </g>
   </g>
  </g>
 </g>
 <defs>
  <clipPath id="p0753f709be">
   <rect x="92.490625" y="31.43625" width="558" height="277.2"/>
  </clipPath>
 </defs>
</svg>
