<?xml version="1.0" encoding="utf-8" standalone="no"?>
<!DOCTYPE svg PUBLIC "-//W3C//DTD SVG 1.1//EN"
  "http://www.w3.org/Graphics/SVG/1.1/DTD/svg11.dtd">
<svg xmlns:xlink="http://www.w3.org/1999/xlink" width="675.923125pt" height="365.54875pt" viewBox="0 0 675.923125 365.54875" xmlns="http://www.w3.org/2000/svg" version="1.1">
 <metadata>
  <rdf:RDF xmlns:dc="http://purl.org/dc/elements/1.1/" xmlns:cc="http://creativecommons.org/ns#" xmlns:rdf="http://www.w3.org/1999/02/22-rdf-syntax-ns#">
   <cc:Work>
    <dc:type rdf:resource="http://purl.org/dc/dcmitype/StillImage"/>
    <dc:date>2024-02-12T18:50:32.006053</dc:date>
    <dc:format>image/svg+xml</dc:format>
    <dc:creator>
     <cc:Agent>
      <dc:title>Matplotlib v3.7.2, https://matplotlib.org/</dc:title>
     </cc:Agent>
    </dc:creator>
   </cc:Work>
  </rdf:RDF>
 </metadata>
 <defs>
  <style type="text/css">*{stroke-linejoin: round; stroke-linecap: butt}</style>
 </defs>
 <g id="figure_1">
  <g id="patch_1">
   <path d="M 0 365.54875 
L 675.923125 365.54875 
L 675.923125 -0 
L 0 -0 
z
" style="fill: #ffffff"/>
  </g>
  <g id="axes_1">
   <g id="patch_2">
    <path d="M 92.490625 308.63625 
L 650.490625 308.63625 
L 650.490625 31.43625 
L 92.490625 31.43625 
z
" style="fill: #ffffff"/>
   </g>
   <g id="matplotlib.axis_1">
    <g id="xtick_1">
     <g id="line2d_1">
      <defs>
       <path id="mb2580a4556" d="M 0 0 
L 0 3.5 
" style="stroke: #000000; stroke-width: 0.8"/>
      </defs>
      <g>
       <use xlink:href="#mb2580a4556" x="117.854261" y="308.63625" style="stroke: #000000; stroke-width: 0.8"/>
      </g>
     </g>
     <g id="text_1">
      <!-- 0 -->
      <g transform="translate(111.491761 330.833125) scale(0.2 -0.2)">
       <defs>
        <path id="DejaVuSans-30" d="M 2034 4250 
Q 1547 4250 1301 3770 
Q 1056 3291 1056 2328 
Q 1056 1369 1301 889 
Q 1547 409 2034 409 
Q 2525 409 2770 889 
Q 3016 1369 3016 2328 
Q 3016 3291 2770 3770 
Q 2525 4250 2034 4250 
z
M 2034 4750 
Q 2819 4750 3233 4129 
Q 3647 3509 3647 2328 
Q 3647 1150 3233 529 
Q 2819 -91 2034 -91 
Q 1250 -91 836 529 
Q 422 1150 422 2328 
Q 422 3509 836 4129 
Q 1250 4750 2034 4750 
z
" transform="scale(0.015625)"/>
       </defs>
       <use xlink:href="#DejaVuSans-30"/>
      </g>
     </g>
    </g>
    <g id="xtick_2">
     <g id="line2d_2">
      <g>
       <use xlink:href="#mb2580a4556" x="195.896219" y="308.63625" style="stroke: #000000; stroke-width: 0.8"/>
      </g>
     </g>
     <g id="text_2">
      <!-- 200 -->
      <g transform="translate(176.808719 330.833125) scale(0.2 -0.2)">
       <defs>
        <path id="DejaVuSans-32" d="M 1228 531 
L 3431 531 
L 3431 0 
L 469 0 
L 469 531 
Q 828 903 1448 1529 
Q 2069 2156 2228 2338 
Q 2531 2678 2651 2914 
Q 2772 3150 2772 3378 
Q 2772 3750 2511 3984 
Q 2250 4219 1831 4219 
Q 1534 4219 1204 4116 
Q 875 4013 500 3803 
L 500 4441 
Q 881 4594 1212 4672 
Q 1544 4750 1819 4750 
Q 2544 4750 2975 4387 
Q 3406 4025 3406 3419 
Q 3406 3131 3298 2873 
Q 3191 2616 2906 2266 
Q 2828 2175 2409 1742 
Q 1991 1309 1228 531 
z
" transform="scale(0.015625)"/>
       </defs>
       <use xlink:href="#DejaVuSans-32"/>
       <use xlink:href="#DejaVuSans-30" x="63.623047"/>
       <use xlink:href="#DejaVuSans-30" x="127.246094"/>
      </g>
     </g>
    </g>
    <g id="xtick_3">
     <g id="line2d_3">
      <g>
       <use xlink:href="#mb2580a4556" x="273.938177" y="308.63625" style="stroke: #000000; stroke-width: 0.8"/>
      </g>
     </g>
     <g id="text_3">
      <!-- 400 -->
      <g transform="translate(254.850677 330.833125) scale(0.2 -0.2)">
       <defs>
        <path id="DejaVuSans-34" d="M 2419 4116 
L 825 1625 
L 2419 1625 
L 2419 4116 
z
M 2253 4666 
L 3047 4666 
L 3047 1625 
L 3713 1625 
L 3713 1100 
L 3047 1100 
L 3047 0 
L 2419 0 
L 2419 1100 
L 313 1100 
L 313 1709 
L 2253 4666 
z
" transform="scale(0.015625)"/>
       </defs>
       <use xlink:href="#DejaVuSans-34"/>
       <use xlink:href="#DejaVuSans-30" x="63.623047"/>
       <use xlink:href="#DejaVuSans-30" x="127.246094"/>
      </g>
     </g>
    </g>
    <g id="xtick_4">
     <g id="line2d_4">
      <g>
       <use xlink:href="#mb2580a4556" x="351.980135" y="308.63625" style="stroke: #000000; stroke-width: 0.8"/>
      </g>
     </g>
     <g id="text_4">
      <!-- 600 -->
      <g transform="translate(332.892635 330.833125) scale(0.2 -0.2)">
       <defs>
        <path id="DejaVuSans-36" d="M 2113 2584 
Q 1688 2584 1439 2293 
Q 1191 2003 1191 1497 
Q 1191 994 1439 701 
Q 1688 409 2113 409 
Q 2538 409 2786 701 
Q 3034 994 3034 1497 
Q 3034 2003 2786 2293 
Q 2538 2584 2113 2584 
z
M 3366 4563 
L 3366 3988 
Q 3128 4100 2886 4159 
Q 2644 4219 2406 4219 
Q 1781 4219 1451 3797 
Q 1122 3375 1075 2522 
Q 1259 2794 1537 2939 
Q 1816 3084 2150 3084 
Q 2853 3084 3261 2657 
Q 3669 2231 3669 1497 
Q 3669 778 3244 343 
Q 2819 -91 2113 -91 
Q 1303 -91 875 529 
Q 447 1150 447 2328 
Q 447 3434 972 4092 
Q 1497 4750 2381 4750 
Q 2619 4750 2861 4703 
Q 3103 4656 3366 4563 
z
" transform="scale(0.015625)"/>
       </defs>
       <use xlink:href="#DejaVuSans-36"/>
       <use xlink:href="#DejaVuSans-30" x="63.623047"/>
       <use xlink:href="#DejaVuSans-30" x="127.246094"/>
      </g>
     </g>
    </g>
    <g id="xtick_5">
     <g id="line2d_5">
      <g>
       <use xlink:href="#mb2580a4556" x="430.022094" y="308.63625" style="stroke: #000000; stroke-width: 0.8"/>
      </g>
     </g>
     <g id="text_5">
      <!-- 800 -->
      <g transform="translate(410.934594 330.833125) scale(0.2 -0.2)">
       <defs>
        <path id="DejaVuSans-38" d="M 2034 2216 
Q 1584 2216 1326 1975 
Q 1069 1734 1069 1313 
Q 1069 891 1326 650 
Q 1584 409 2034 409 
Q 2484 409 2743 651 
Q 3003 894 3003 1313 
Q 3003 1734 2745 1975 
Q 2488 2216 2034 2216 
z
M 1403 2484 
Q 997 2584 770 2862 
Q 544 3141 544 3541 
Q 544 4100 942 4425 
Q 1341 4750 2034 4750 
Q 2731 4750 3128 4425 
Q 3525 4100 3525 3541 
Q 3525 3141 3298 2862 
Q 3072 2584 2669 2484 
Q 3125 2378 3379 2068 
Q 3634 1759 3634 1313 
Q 3634 634 3220 271 
Q 2806 -91 2034 -91 
Q 1263 -91 848 271 
Q 434 634 434 1313 
Q 434 1759 690 2068 
Q 947 2378 1403 2484 
z
M 1172 3481 
Q 1172 3119 1398 2916 
Q 1625 2713 2034 2713 
Q 2441 2713 2670 2916 
Q 2900 3119 2900 3481 
Q 2900 3844 2670 4047 
Q 2441 4250 2034 4250 
Q 1625 4250 1398 4047 
Q 1172 3844 1172 3481 
z
" transform="scale(0.015625)"/>
       </defs>
       <use xlink:href="#DejaVuSans-38"/>
       <use xlink:href="#DejaVuSans-30" x="63.623047"/>
       <use xlink:href="#DejaVuSans-30" x="127.246094"/>
      </g>
     </g>
    </g>
    <g id="xtick_6">
     <g id="line2d_6">
      <g>
       <use xlink:href="#mb2580a4556" x="508.064052" y="308.63625" style="stroke: #000000; stroke-width: 0.8"/>
      </g>
     </g>
     <g id="text_6">
      <!-- 1000 -->
      <g transform="translate(482.614052 330.833125) scale(0.2 -0.2)">
       <defs>
        <path id="DejaVuSans-31" d="M 794 531 
L 1825 531 
L 1825 4091 
L 703 3866 
L 703 4441 
L 1819 4666 
L 2450 4666 
L 2450 531 
L 3481 531 
L 3481 0 
L 794 0 
L 794 531 
z
" transform="scale(0.015625)"/>
       </defs>
       <use xlink:href="#DejaVuSans-31"/>
       <use xlink:href="#DejaVuSans-30" x="63.623047"/>
       <use xlink:href="#DejaVuSans-30" x="127.246094"/>
       <use xlink:href="#DejaVuSans-30" x="190.869141"/>
      </g>
     </g>
    </g>
    <g id="xtick_7">
     <g id="line2d_7">
      <g>
       <use xlink:href="#mb2580a4556" x="586.10601" y="308.63625" style="stroke: #000000; stroke-width: 0.8"/>
      </g>
     </g>
     <g id="text_7">
      <!-- 1200 -->
      <g transform="translate(560.65601 330.833125) scale(0.2 -0.2)">
       <use xlink:href="#DejaVuSans-31"/>
       <use xlink:href="#DejaVuSans-32" x="63.623047"/>
       <use xlink:href="#DejaVuSans-30" x="127.246094"/>
       <use xlink:href="#DejaVuSans-30" x="190.869141"/>
      </g>
     </g>
    </g>
    <g id="text_8">
     <!-- iterations -->
     <g transform="translate(324.035938 354.189375) scale(0.2 -0.2)">
      <defs>
       <path id="DejaVuSans-69" d="M 603 3500 
L 1178 3500 
L 1178 0 
L 603 0 
L 603 3500 
z
M 603 4863 
L 1178 4863 
L 1178 4134 
L 603 4134 
L 603 4863 
z
" transform="scale(0.015625)"/>
       <path id="DejaVuSans-74" d="M 1172 4494 
L 1172 3500 
L 2356 3500 
L 2356 3053 
L 1172 3053 
L 1172 1153 
Q 1172 725 1289 603 
Q 1406 481 1766 481 
L 2356 481 
L 2356 0 
L 1766 0 
Q 1100 0 847 248 
Q 594 497 594 1153 
L 594 3053 
L 172 3053 
L 172 3500 
L 594 3500 
L 594 4494 
L 1172 4494 
z
" transform="scale(0.015625)"/>
       <path id="DejaVuSans-65" d="M 3597 1894 
L 3597 1613 
L 953 1613 
Q 991 1019 1311 708 
Q 1631 397 2203 397 
Q 2534 397 2845 478 
Q 3156 559 3463 722 
L 3463 178 
Q 3153 47 2828 -22 
Q 2503 -91 2169 -91 
Q 1331 -91 842 396 
Q 353 884 353 1716 
Q 353 2575 817 3079 
Q 1281 3584 2069 3584 
Q 2775 3584 3186 3129 
Q 3597 2675 3597 1894 
z
M 3022 2063 
Q 3016 2534 2758 2815 
Q 2500 3097 2075 3097 
Q 1594 3097 1305 2825 
Q 1016 2553 972 2059 
L 3022 2063 
z
" transform="scale(0.015625)"/>
       <path id="DejaVuSans-72" d="M 2631 2963 
Q 2534 3019 2420 3045 
Q 2306 3072 2169 3072 
Q 1681 3072 1420 2755 
Q 1159 2438 1159 1844 
L 1159 0 
L 581 0 
L 581 3500 
L 1159 3500 
L 1159 2956 
Q 1341 3275 1631 3429 
Q 1922 3584 2338 3584 
Q 2397 3584 2469 3576 
Q 2541 3569 2628 3553 
L 2631 2963 
z
" transform="scale(0.015625)"/>
       <path id="DejaVuSans-61" d="M 2194 1759 
Q 1497 1759 1228 1600 
Q 959 1441 959 1056 
Q 959 750 1161 570 
Q 1363 391 1709 391 
Q 2188 391 2477 730 
Q 2766 1069 2766 1631 
L 2766 1759 
L 2194 1759 
z
M 3341 1997 
L 3341 0 
L 2766 0 
L 2766 531 
Q 2569 213 2275 61 
Q 1981 -91 1556 -91 
Q 1019 -91 701 211 
Q 384 513 384 1019 
Q 384 1609 779 1909 
Q 1175 2209 1959 2209 
L 2766 2209 
L 2766 2266 
Q 2766 2663 2505 2880 
Q 2244 3097 1772 3097 
Q 1472 3097 1187 3025 
Q 903 2953 641 2809 
L 641 3341 
Q 956 3463 1253 3523 
Q 1550 3584 1831 3584 
Q 2591 3584 2966 3190 
Q 3341 2797 3341 1997 
z
" transform="scale(0.015625)"/>
       <path id="DejaVuSans-6f" d="M 1959 3097 
Q 1497 3097 1228 2736 
Q 959 2375 959 1747 
Q 959 1119 1226 758 
Q 1494 397 1959 397 
Q 2419 397 2687 759 
Q 2956 1122 2956 1747 
Q 2956 2369 2687 2733 
Q 2419 3097 1959 3097 
z
M 1959 3584 
Q 2709 3584 3137 3096 
Q 3566 2609 3566 1747 
Q 3566 888 3137 398 
Q 2709 -91 1959 -91 
Q 1206 -91 779 398 
Q 353 888 353 1747 
Q 353 2609 779 3096 
Q 1206 3584 1959 3584 
z
" transform="scale(0.015625)"/>
       <path id="DejaVuSans-6e" d="M 3513 2113 
L 3513 0 
L 2938 0 
L 2938 2094 
Q 2938 2591 2744 2837 
Q 2550 3084 2163 3084 
Q 1697 3084 1428 2787 
Q 1159 2491 1159 1978 
L 1159 0 
L 581 0 
L 581 3500 
L 1159 3500 
L 1159 2956 
Q 1366 3272 1645 3428 
Q 1925 3584 2291 3584 
Q 2894 3584 3203 3211 
Q 3513 2838 3513 2113 
z
" transform="scale(0.015625)"/>
       <path id="DejaVuSans-73" d="M 2834 3397 
L 2834 2853 
Q 2591 2978 2328 3040 
Q 2066 3103 1784 3103 
Q 1356 3103 1142 2972 
Q 928 2841 928 2578 
Q 928 2378 1081 2264 
Q 1234 2150 1697 2047 
L 1894 2003 
Q 2506 1872 2764 1633 
Q 3022 1394 3022 966 
Q 3022 478 2636 193 
Q 2250 -91 1575 -91 
Q 1294 -91 989 -36 
Q 684 19 347 128 
L 347 722 
Q 666 556 975 473 
Q 1284 391 1588 391 
Q 1994 391 2212 530 
Q 2431 669 2431 922 
Q 2431 1156 2273 1281 
Q 2116 1406 1581 1522 
L 1381 1569 
Q 847 1681 609 1914 
Q 372 2147 372 2553 
Q 372 3047 722 3315 
Q 1072 3584 1716 3584 
Q 2034 3584 2315 3537 
Q 2597 3491 2834 3397 
z
" transform="scale(0.015625)"/>
      </defs>
      <use xlink:href="#DejaVuSans-69"/>
      <use xlink:href="#DejaVuSans-74" x="27.783203"/>
      <use xlink:href="#DejaVuSans-65" x="66.992188"/>
      <use xlink:href="#DejaVuSans-72" x="128.515625"/>
      <use xlink:href="#DejaVuSans-61" x="169.628906"/>
      <use xlink:href="#DejaVuSans-74" x="230.908203"/>
      <use xlink:href="#DejaVuSans-69" x="270.117188"/>
      <use xlink:href="#DejaVuSans-6f" x="297.900391"/>
      <use xlink:href="#DejaVuSans-6e" x="359.082031"/>
      <use xlink:href="#DejaVuSans-73" x="422.460938"/>
     </g>
    </g>
   </g>
   <g id="matplotlib.axis_2">
    <g id="ytick_1">
     <g id="line2d_8">
      <defs>
       <path id="m002b6058f6" d="M 0 0 
L -3.5 0 
" style="stroke: #000000; stroke-width: 0.8"/>
      </defs>
      <g>
       <use xlink:href="#m002b6058f6" x="92.490625" y="287.754235" style="stroke: #000000; stroke-width: 0.8"/>
      </g>
     </g>
     <g id="text_9">
      <!-- −200 -->
      <g transform="translate(30.55625 295.352672) scale(0.2 -0.2)">
       <defs>
        <path id="DejaVuSans-2212" d="M 678 2272 
L 4684 2272 
L 4684 1741 
L 678 1741 
L 678 2272 
z
" transform="scale(0.015625)"/>
       </defs>
       <use xlink:href="#DejaVuSans-2212"/>
       <use xlink:href="#DejaVuSans-32" x="83.789062"/>
       <use xlink:href="#DejaVuSans-30" x="147.412109"/>
       <use xlink:href="#DejaVuSans-30" x="211.035156"/>
      </g>
     </g>
    </g>
    <g id="ytick_2">
     <g id="line2d_9">
      <g>
       <use xlink:href="#m002b6058f6" x="92.490625" y="227.578386" style="stroke: #000000; stroke-width: 0.8"/>
      </g>
     </g>
     <g id="text_10">
      <!-- −100 -->
      <g transform="translate(30.55625 235.176823) scale(0.2 -0.2)">
       <use xlink:href="#DejaVuSans-2212"/>
       <use xlink:href="#DejaVuSans-31" x="83.789062"/>
       <use xlink:href="#DejaVuSans-30" x="147.412109"/>
       <use xlink:href="#DejaVuSans-30" x="211.035156"/>
      </g>
     </g>
    </g>
    <g id="ytick_3">
     <g id="line2d_10">
      <g>
       <use xlink:href="#m002b6058f6" x="92.490625" y="167.402537" style="stroke: #000000; stroke-width: 0.8"/>
      </g>
     </g>
     <g id="text_11">
      <!-- 0 -->
      <g transform="translate(72.765625 175.000974) scale(0.2 -0.2)">
       <use xlink:href="#DejaVuSans-30"/>
      </g>
     </g>
    </g>
    <g id="ytick_4">
     <g id="line2d_11">
      <g>
       <use xlink:href="#m002b6058f6" x="92.490625" y="107.226688" style="stroke: #000000; stroke-width: 0.8"/>
      </g>
     </g>
     <g id="text_12">
      <!-- 100 -->
      <g transform="translate(47.315625 114.825125) scale(0.2 -0.2)">
       <use xlink:href="#DejaVuSans-31"/>
       <use xlink:href="#DejaVuSans-30" x="63.623047"/>
       <use xlink:href="#DejaVuSans-30" x="127.246094"/>
      </g>
     </g>
    </g>
    <g id="ytick_5">
     <g id="line2d_12">
      <g>
       <use xlink:href="#m002b6058f6" x="92.490625" y="47.050838" style="stroke: #000000; stroke-width: 0.8"/>
      </g>
     </g>
     <g id="text_13">
      <!-- 200 -->
      <g transform="translate(47.315625 54.649276) scale(0.2 -0.2)">
       <use xlink:href="#DejaVuSans-32"/>
       <use xlink:href="#DejaVuSans-30" x="63.623047"/>
       <use xlink:href="#DejaVuSans-30" x="127.246094"/>
      </g>
     </g>
    </g>
    <g id="text_14">
     <!-- Loss -->
     <g transform="translate(22.396875 191.970625) rotate(-90) scale(0.2 -0.2)">
      <defs>
       <path id="DejaVuSans-4c" d="M 628 4666 
L 1259 4666 
L 1259 531 
L 3531 531 
L 3531 0 
L 628 0 
L 628 4666 
z
" transform="scale(0.015625)"/>
      </defs>
      <use xlink:href="#DejaVuSans-4c"/>
      <use xlink:href="#DejaVuSans-6f" x="53.962891"/>
      <use xlink:href="#DejaVuSans-73" x="115.144531"/>
      <use xlink:href="#DejaVuSans-73" x="167.244141"/>
     </g>
    </g>
   </g>
   <g id="line2d_13">
    <path d="M 117.854261 138.53853 
L 118.244471 97.982964 
L 118.634681 117.083744 
L 119.024891 121.777179 
L 119.415101 104.43596 
L 119.80531 128.019774 
L 120.19552 117.918638 
L 120.58573 99.792773 
L 120.97594 123.303136 
L 121.366149 113.920019 
L 121.756359 107.215809 
L 122.146569 54.185175 
L 122.536779 44.586844 
L 122.926989 50.208405 
L 123.317198 65.431701 
L 123.707408 52.62134 
L 124.097618 44.03625 
L 124.487828 47.425516 
L 124.878038 53.255988 
L 125.268247 62.20203 
L 125.658457 54.058702 
L 126.048667 59.456177 
L 126.438877 109.140656 
L 126.829087 94.805897 
L 127.219296 87.78307 
L 127.609506 75.133855 
L 127.999716 98.959252 
L 128.389926 90.513457 
L 128.780135 91.353551 
L 129.170345 94.307751 
L 129.560555 99.862324 
L 129.950765 94.958193 
L 130.340975 93.356455 
L 131.121394 79.768648 
L 131.511604 81.625829 
L 131.901814 87.639335 
L 132.292024 98.247788 
L 132.682233 97.025522 
L 133.072443 100.470922 
L 133.462653 94.009915 
L 133.852863 108.302296 
L 134.243073 106.746361 
L 134.633282 111.813688 
L 135.023492 111.321942 
L 135.413702 109.609667 
L 135.803912 111.732825 
L 136.584331 118.313446 
L 136.974541 121.128737 
L 137.364751 118.243637 
L 137.754961 122.939672 
L 138.14517 114.006144 
L 138.53538 113.402414 
L 138.92559 118.336942 
L 139.3158 126.247555 
L 139.70601 117.705982 
L 140.096219 118.938384 
L 140.486429 115.501875 
L 140.876639 121.08746 
L 141.266849 119.267918 
L 141.657059 128.786107 
L 142.047268 128.140582 
L 142.437478 126.980209 
L 142.827688 127.736057 
L 143.217898 119.824596 
L 143.608108 123.041682 
L 143.998317 125.22985 
L 144.388527 132.060951 
L 144.778737 127.742292 
L 145.168947 128.726967 
L 145.559156 132.552166 
L 145.949366 126.842327 
L 146.339576 124.849238 
L 146.729786 134.387408 
L 147.119996 128.837998 
L 147.510205 132.134935 
L 147.900415 123.78468 
L 148.290625 132.616752 
L 148.680835 133.362101 
L 149.071045 130.522423 
L 149.461254 132.295449 
L 149.851464 130.881563 
L 150.241674 130.761392 
L 150.631884 136.851809 
L 151.022094 133.13345 
L 151.412303 136.862142 
L 151.802513 132.687554 
L 152.192723 136.323725 
L 152.582933 132.024156 
L 152.973142 135.651823 
L 153.363352 134.503783 
L 153.753562 138.447324 
L 154.143772 140.302657 
L 154.533982 137.326201 
L 155.314401 133.290565 
L 155.704611 132.866831 
L 156.094821 142.596344 
L 156.485031 144.986145 
L 157.26545 140.610362 
L 157.65566 141.500038 
L 158.04587 143.686115 
L 158.43608 140.210455 
L 158.826289 143.748127 
L 159.606709 147.376432 
L 159.996919 144.567206 
L 160.387128 148.385484 
L 160.777338 146.372494 
L 161.167548 149.177832 
L 161.557758 150.583748 
L 161.947968 151.428518 
L 162.338177 151.65227 
L 162.728387 153.806823 
L 163.118597 151.359519 
L 163.508807 149.66105 
L 163.899017 150.094058 
L 164.289226 153.424061 
L 164.679436 153.379319 
L 165.069646 152.68978 
L 165.459856 148.221893 
L 165.850066 149.94797 
L 166.240275 150.801801 
L 166.630485 149.496023 
L 167.020695 153.426297 
L 167.410905 148.701191 
L 167.801115 155.673158 
L 168.191324 152.270783 
L 168.581534 152.812434 
L 168.971744 151.283283 
L 169.361954 151.61941 
L 169.752163 149.972005 
L 170.142373 149.445184 
L 170.532583 150.678389 
L 170.922793 153.782528 
L 171.313003 152.701329 
L 171.703212 150.58121 
L 172.093422 153.449759 
L 172.483632 152.054885 
L 173.654261 149.175368 
L 174.044471 152.92116 
L 174.434681 154.821874 
L 174.824891 154.122896 
L 175.215101 154.659618 
L 175.60531 154.935823 
L 175.99552 150.153039 
L 176.38573 153.838236 
L 176.77594 152.87849 
L 177.166149 156.117978 
L 177.556359 154.618691 
L 177.946569 155.286374 
L 178.336779 155.509007 
L 178.726989 155.203361 
L 179.117198 155.733462 
L 179.507408 154.610605 
L 179.897618 156.868743 
L 180.678038 154.86685 
L 181.068247 155.846898 
L 181.458457 155.5618 
L 181.848667 154.291763 
L 182.238877 156.186717 
L 182.629087 156.244531 
L 183.019296 155.715934 
L 183.409506 155.403453 
L 183.799716 155.782756 
L 184.189926 155.993486 
L 184.580135 155.337442 
L 184.970345 155.619744 
L 185.750765 157.322453 
L 186.140975 156.929476 
L 186.531184 155.284185 
L 186.921394 157.053882 
L 187.311604 154.679929 
L 187.701814 157.291986 
L 188.092024 156.903158 
L 188.482233 157.112578 
L 189.262653 158.666323 
L 189.652863 157.140524 
L 190.043073 157.121308 
L 190.433282 158.853463 
L 190.823492 159.363312 
L 191.213702 158.407733 
L 191.603912 158.277547 
L 191.994122 158.768124 
L 192.774541 159.348091 
L 193.164751 158.40205 
L 193.554961 158.776583 
L 193.94517 157.259794 
L 194.33538 157.809901 
L 194.72559 157.905638 
L 195.1158 160.304648 
L 195.50601 159.27558 
L 195.896219 160.198122 
L 196.286429 158.222625 
L 196.676639 158.653634 
L 197.066849 158.487327 
L 197.457059 158.747868 
L 197.847268 158.790748 
L 198.237478 157.779227 
L 199.017898 158.768348 
L 199.408108 157.9548 
L 199.798317 158.883566 
L 200.188527 159.266435 
L 200.578737 158.167248 
L 200.968947 157.931008 
L 201.359156 157.269122 
L 202.139576 159.245639 
L 202.919996 159.591384 
L 203.310205 158.906913 
L 203.700415 157.982647 
L 204.090625 158.460905 
L 204.480835 158.242813 
L 204.871045 157.491546 
L 205.651464 159.897972 
L 206.041674 159.522708 
L 206.431884 158.755006 
L 206.822094 160.102913 
L 207.602513 159.911868 
L 207.992723 158.428562 
L 208.382933 158.256503 
L 208.773142 159.280037 
L 209.943772 160.666388 
L 210.724191 158.531589 
L 211.114401 160.376333 
L 211.504611 159.592961 
L 211.894821 159.596836 
L 212.285031 158.212775 
L 212.67524 158.965149 
L 213.06545 160.221803 
L 213.45566 160.554096 
L 213.84587 160.234987 
L 214.23608 159.189843 
L 215.016499 158.4345 
L 215.406709 159.29536 
L 215.796919 159.86907 
L 216.187128 159.834532 
L 216.967548 160.513438 
L 217.357758 160.132619 
L 217.747968 160.426465 
L 218.138177 160.383222 
L 218.528387 159.592069 
L 218.918597 160.667174 
L 219.308807 159.239572 
L 219.699017 161.504711 
L 220.089226 160.711068 
L 220.479436 160.321193 
L 220.869646 160.334656 
L 221.259856 160.4783 
L 221.650066 160.244258 
L 222.040275 160.241173 
L 222.430485 160.039621 
L 223.601115 158.951886 
L 223.991324 159.1988 
L 224.381534 159.780806 
L 224.771744 159.367018 
L 225.161954 158.507879 
L 225.552163 158.913263 
L 225.942373 158.653872 
L 226.332583 158.552491 
L 226.722793 159.409902 
L 227.113003 159.175904 
L 227.503212 158.624938 
L 228.283632 158.893202 
L 229.064052 160.264354 
L 229.454261 160.201945 
L 230.234681 158.650772 
L 230.624891 159.288537 
L 231.015101 160.520795 
L 231.40531 160.457279 
L 232.18573 158.257941 
L 232.57594 158.619133 
L 232.966149 159.745309 
L 233.356359 159.48481 
L 233.746569 159.978303 
L 234.136779 159.720556 
L 234.526989 159.612132 
L 234.917198 159.841911 
L 235.697618 160.510643 
L 236.478038 159.110659 
L 236.868247 159.040226 
L 237.258457 158.709458 
L 237.648667 159.419005 
L 238.038877 159.173452 
L 238.429087 159.518919 
L 238.819296 158.566461 
L 239.599716 159.499792 
L 240.380135 158.586841 
L 240.770345 158.811935 
L 241.160555 159.308052 
L 241.550765 158.76162 
L 241.940975 157.928456 
L 242.331184 158.267043 
L 242.721394 158.073122 
L 243.111604 158.023908 
L 244.282233 159.418039 
L 244.672443 159.162644 
L 245.062653 158.305005 
L 245.452863 158.181522 
L 245.843073 158.871983 
L 246.233282 158.207984 
L 246.623492 158.920037 
L 247.013702 158.307508 
L 247.403912 158.614952 
L 247.794122 157.895699 
L 248.184331 158.923532 
L 248.574541 158.600683 
L 248.964751 159.982429 
L 249.354961 158.452746 
L 249.74517 158.364598 
L 250.13538 158.53182 
L 250.52559 158.447831 
L 250.9158 159.631004 
L 251.30601 158.702739 
L 252.086429 158.844423 
L 252.476639 158.261884 
L 253.257059 158.876161 
L 253.647268 158.704879 
L 254.037478 158.966426 
L 254.427688 159.070848 
L 254.817898 159.870111 
L 255.208108 159.975019 
L 255.598317 160.596646 
L 255.988527 159.037911 
L 256.378737 159.577581 
L 256.768947 159.919207 
L 257.159156 159.970316 
L 257.549366 160.525837 
L 257.939576 159.82942 
L 258.329786 160.372563 
L 258.719996 160.469565 
L 259.110205 160.440517 
L 259.500415 160.545118 
L 259.890625 161.243255 
L 260.671045 161.95244 
L 261.061254 161.344446 
L 261.451464 162.230849 
L 261.841674 160.694473 
L 262.231884 161.529689 
L 262.622094 161.958084 
L 263.012303 161.981839 
L 263.402513 161.531251 
L 263.792723 162.091559 
L 264.182933 161.080496 
L 264.573142 161.420721 
L 264.963352 161.219607 
L 265.743772 163.802467 
L 266.133982 163.544163 
L 266.524191 162.374592 
L 266.914401 162.509576 
L 267.304611 163.184545 
L 267.694821 162.450438 
L 268.86545 161.216576 
L 269.25566 161.664394 
L 269.64587 161.362429 
L 270.03608 162.075806 
L 270.426289 161.102878 
L 270.816499 163.051107 
L 271.206709 162.817614 
L 271.596919 162.946267 
L 272.377338 162.763962 
L 272.767548 162.839012 
L 273.157758 162.000619 
L 273.547968 162.598769 
L 273.938177 162.378559 
L 274.328387 163.076137 
L 274.718597 162.571522 
L 275.108807 162.729478 
L 275.499017 162.590982 
L 275.889226 162.127056 
L 276.279436 163.018755 
L 276.669646 161.84957 
L 277.059856 162.625888 
L 277.450066 162.543089 
L 277.840275 163.183865 
L 278.230485 162.865179 
L 279.401115 162.964571 
L 279.791324 163.003534 
L 280.181534 161.98191 
L 280.571744 161.799897 
L 280.961954 163.497794 
L 281.742373 162.260124 
L 282.132583 161.52673 
L 282.522793 162.915428 
L 282.913003 163.518571 
L 283.303212 163.511122 
L 283.693422 163.779869 
L 284.473842 163.292074 
L 284.864052 163.261754 
L 285.254261 164.209916 
L 286.424891 164.29926 
L 286.815101 163.883719 
L 287.20531 164.214976 
L 287.59552 163.611439 
L 287.98573 163.50855 
L 288.37594 163.619804 
L 288.766149 163.517998 
L 289.156359 163.762633 
L 289.546569 163.682833 
L 289.936779 163.927672 
L 290.326989 162.938326 
L 290.717198 163.558524 
L 291.107408 163.570411 
L 291.497618 162.838417 
L 291.887828 163.419215 
L 292.278038 163.034187 
L 292.668247 163.560597 
L 293.058457 162.974609 
L 293.448667 163.22759 
L 293.838877 163.897061 
L 294.619296 163.200592 
L 295.009506 163.883585 
L 295.399716 164.051239 
L 296.180135 163.416856 
L 296.570345 163.617793 
L 296.960555 163.502438 
L 297.350765 163.762088 
L 297.740975 164.287996 
L 298.131184 163.466284 
L 298.521394 163.625181 
L 298.911604 162.927845 
L 299.301814 162.924646 
L 299.692024 163.154536 
L 300.082233 162.913681 
L 300.862653 163.90003 
L 301.252863 164.07757 
L 301.643073 164.574846 
L 302.033282 164.524283 
L 302.423492 165.478911 
L 302.813702 165.009827 
L 303.203912 165.363989 
L 303.594122 165.356022 
L 303.984331 164.90985 
L 304.374541 165.135213 
L 304.764751 164.92389 
L 305.154961 165.118623 
L 305.54517 165.026908 
L 305.93538 165.352702 
L 306.32559 165.29849 
L 307.10601 163.713846 
L 307.496219 164.55012 
L 308.276639 164.198529 
L 308.666849 164.675546 
L 309.057059 164.071193 
L 309.447268 164.222628 
L 309.837478 164.527797 
L 310.227688 164.517816 
L 311.008108 165.291701 
L 311.398317 165.561032 
L 311.788527 164.811283 
L 312.178737 164.988455 
L 312.568947 164.924284 
L 312.959156 164.615151 
L 313.349366 165.583877 
L 313.739576 165.212143 
L 314.129786 165.333861 
L 314.519996 165.323854 
L 314.910205 165.041086 
L 315.300415 164.978663 
L 316.080835 165.200191 
L 316.471045 166.08 
L 316.861254 165.035632 
L 317.251464 165.603331 
L 317.641674 165.86487 
L 318.031884 165.443294 
L 318.422094 166.256202 
L 318.812303 164.694453 
L 319.202513 164.670977 
L 319.592723 164.525527 
L 319.982933 165.21686 
L 320.373142 164.912678 
L 320.763352 165.326199 
L 321.153562 164.488608 
L 321.543772 164.820524 
L 321.933982 165.524774 
L 322.324191 165.617187 
L 322.714401 165.576942 
L 323.104611 164.87486 
L 323.885031 165.961546 
L 324.66545 164.944552 
L 325.05566 165.134178 
L 325.44587 164.885828 
L 325.83608 165.370466 
L 326.226289 164.272193 
L 326.616499 164.729958 
L 327.006709 165.0006 
L 327.396919 164.976294 
L 327.787128 165.602046 
L 328.177338 165.479562 
L 328.567548 165.237788 
L 328.957758 166.108076 
L 329.347968 166.104062 
L 329.738177 165.82227 
L 330.128387 166.256527 
L 330.908807 165.469542 
L 331.299017 165.098018 
L 332.079436 165.534906 
L 332.469646 166.428739 
L 333.250066 165.721829 
L 333.640275 166.143999 
L 334.030485 165.615088 
L 334.420695 166.228039 
L 334.810905 165.061817 
L 335.201115 165.143602 
L 335.591324 165.760576 
L 335.981534 165.561899 
L 336.371744 166.216574 
L 337.152163 165.183599 
L 337.542373 165.018782 
L 337.932583 165.360501 
L 338.713003 165.419201 
L 339.103212 165.360393 
L 339.493422 164.136741 
L 339.883632 165.343897 
L 340.273842 165.572042 
L 340.664052 165.545783 
L 341.444471 164.591578 
L 341.834681 164.512763 
L 342.224891 164.747325 
L 342.615101 165.493837 
L 343.00531 165.139657 
L 343.39552 165.495464 
L 343.78573 164.968325 
L 344.17594 165.539488 
L 344.566149 164.924951 
L 344.956359 165.093261 
L 345.346569 164.996031 
L 345.736779 164.524479 
L 346.126989 164.886919 
L 346.517198 164.47752 
L 346.907408 164.371764 
L 347.297618 163.988204 
L 347.687828 164.644625 
L 348.078038 164.709602 
L 348.468247 164.279329 
L 349.248667 164.712515 
L 349.638877 164.128696 
L 350.029087 164.199866 
L 350.419296 164.096761 
L 350.809506 164.48685 
L 351.199716 164.527779 
L 351.589926 164.707487 
L 352.760555 164.760681 
L 353.150765 164.850835 
L 353.540975 164.799478 
L 353.931184 164.295248 
L 354.321394 164.533537 
L 355.101814 164.375007 
L 355.492024 164.912049 
L 355.882233 164.567608 
L 356.272443 163.712177 
L 356.662653 163.720205 
L 357.052863 164.737969 
L 357.443073 164.51053 
L 358.223492 164.528611 
L 358.613702 164.159422 
L 359.003912 164.156035 
L 359.784331 164.416819 
L 360.564751 164.201238 
L 360.954961 163.689581 
L 361.34517 163.688707 
L 362.12559 164.021742 
L 362.5158 164.40091 
L 363.296219 164.1579 
L 363.686429 164.518102 
L 364.076639 163.675799 
L 364.466849 163.978809 
L 364.857059 164.113678 
L 365.247268 164.586427 
L 365.637478 163.635984 
L 366.027688 164.265889 
L 366.417898 163.462821 
L 366.808108 164.146655 
L 367.588527 164.35971 
L 367.978737 163.949097 
L 368.368947 164.500156 
L 368.759156 164.439221 
L 369.149366 164.258676 
L 369.539576 164.612078 
L 369.929786 164.474929 
L 370.319996 164.662866 
L 370.710205 164.384643 
L 371.100415 165.050381 
L 372.271045 164.638916 
L 372.661254 164.819175 
L 373.051464 164.597301 
L 373.441674 164.516941 
L 373.831884 164.688791 
L 374.222094 165.221928 
L 375.002513 165.576128 
L 375.392723 165.57446 
L 375.782933 166.125497 
L 376.173142 166.924859 
L 376.953562 166.874639 
L 377.343772 166.326228 
L 377.733982 166.215998 
L 378.124191 166.537828 
L 378.904611 166.108848 
L 379.294821 166.486851 
L 380.07524 166.322447 
L 380.46545 166.749162 
L 380.85566 166.739898 
L 381.24587 166.314309 
L 381.63608 166.29515 
L 382.026289 166.754573 
L 382.416499 166.073459 
L 382.806709 166.300046 
L 384.367548 166.655139 
L 385.538177 166.43708 
L 386.318597 166.349224 
L 386.708807 166.578572 
L 387.489226 165.911427 
L 387.879436 166.599712 
L 388.269646 166.763055 
L 389.440275 166.836537 
L 389.830485 166.292862 
L 390.220695 166.114483 
L 390.610905 166.70456 
L 391.001115 166.404543 
L 391.391324 166.949484 
L 392.171744 166.846264 
L 392.561954 167.496116 
L 392.952163 167.106541 
L 393.342373 167.269006 
L 393.732583 166.270429 
L 394.122793 167.076186 
L 394.513003 167.150597 
L 394.903212 166.690862 
L 395.683632 167.016251 
L 396.073842 166.722275 
L 396.464052 167.172367 
L 397.244471 167.300765 
L 398.024891 166.953468 
L 398.415101 166.909695 
L 398.80531 166.667897 
L 399.19552 167.128023 
L 399.58573 167.287949 
L 399.97594 166.953439 
L 400.366149 167.165798 
L 400.756359 167.176958 
L 401.146569 167.776535 
L 401.536779 167.588331 
L 402.707408 168.112648 
L 403.097618 167.814137 
L 403.487828 167.966171 
L 403.878038 167.337813 
L 404.268247 168.231724 
L 404.658457 167.864277 
L 405.048667 167.66535 
L 405.438877 167.930938 
L 405.829087 167.764538 
L 406.219296 167.800716 
L 406.609506 167.605195 
L 407.389926 167.877379 
L 407.780135 167.448346 
L 408.170345 167.595076 
L 408.560555 167.619896 
L 408.950765 167.277464 
L 409.340975 167.257352 
L 409.731184 167.622062 
L 410.511604 167.811488 
L 410.901814 167.2019 
L 411.292024 167.374296 
L 411.682233 167.108636 
L 412.072443 167.529072 
L 412.462653 167.445918 
L 412.852863 167.588031 
L 413.243073 166.986021 
L 413.633282 167.07021 
L 414.023492 167.01968 
L 414.413702 167.131119 
L 414.803912 166.706204 
L 415.194122 167.273783 
L 415.584331 167.4991 
L 415.974541 167.164137 
L 416.364751 167.278401 
L 416.754961 167.029178 
L 417.14517 166.381069 
L 417.53538 166.598948 
L 417.92559 166.362415 
L 418.3158 166.875708 
L 419.096219 166.486489 
L 419.486429 167.00153 
L 419.876639 166.338952 
L 420.266849 167.288716 
L 420.657059 166.475611 
L 421.047268 166.628849 
L 421.437478 166.578035 
L 421.827688 166.994117 
L 422.217898 166.373868 
L 422.998317 167.125379 
L 423.388527 166.9732 
L 423.778737 166.957091 
L 424.168947 167.064731 
L 424.559156 166.882958 
L 424.949366 166.514705 
L 425.339576 166.783083 
L 425.729786 166.270219 
L 426.119996 166.448122 
L 426.510205 167.096922 
L 426.900415 167.182332 
L 427.290625 167.032398 
L 427.680835 166.457706 
L 428.071045 167.0144 
L 428.851464 167.264616 
L 429.241674 166.954706 
L 430.022094 166.860758 
L 430.412303 167.200607 
L 430.802513 166.850006 
L 431.192723 167.223131 
L 431.582933 167.091588 
L 431.973142 167.73185 
L 432.363352 167.645538 
L 432.753562 167.831437 
L 433.143772 167.616765 
L 433.533982 167.043909 
L 433.924191 167.39589 
L 434.314401 166.841559 
L 434.704611 167.512002 
L 435.094821 167.50357 
L 435.485031 167.978246 
L 435.87524 167.672412 
L 436.65566 168.036219 
L 437.04587 167.420888 
L 437.43608 167.485797 
L 437.826289 168.077085 
L 438.216499 168.264032 
L 438.606709 167.662811 
L 438.996919 167.993159 
L 439.387128 167.701559 
L 439.777338 168.175583 
L 440.167548 168.068052 
L 440.557758 168.168252 
L 440.947968 167.917035 
L 441.338177 168.125004 
L 441.728387 167.61821 
L 442.118597 168.034187 
L 442.508807 168.012515 
L 442.899017 167.751495 
L 443.289226 168.214365 
L 444.069646 167.834211 
L 444.459856 168.107223 
L 444.850066 168.052522 
L 445.240275 168.754493 
L 445.630485 167.919724 
L 446.020695 168.417852 
L 446.410905 167.689991 
L 447.191324 167.980679 
L 447.581534 167.810499 
L 447.971744 167.962371 
L 448.361954 167.649031 
L 448.752163 168.198983 
L 449.142373 168.257292 
L 449.532583 167.565095 
L 449.922793 167.666777 
L 450.313003 168.134757 
L 450.703212 167.766729 
L 451.093422 168.068642 
L 451.483632 168.068813 
L 451.873842 168.376111 
L 452.264052 168.323267 
L 452.654261 168.045614 
L 453.044471 168.013065 
L 453.434681 168.729377 
L 453.824891 168.472048 
L 454.215101 167.71081 
L 454.60531 167.839083 
L 455.38573 168.607979 
L 455.77594 168.046909 
L 457.726989 168.339345 
L 458.897618 167.907877 
L 459.287828 167.996859 
L 460.068247 167.956325 
L 460.458457 168.335002 
L 461.238877 168.000615 
L 461.629087 168.34044 
L 462.019296 167.747281 
L 462.409506 167.712023 
L 462.799716 168.375882 
L 463.580135 167.865294 
L 463.970345 168.38259 
L 464.750765 168.289031 
L 465.140975 167.838615 
L 465.531184 168.052053 
L 465.921394 167.46046 
L 466.311604 167.931055 
L 466.701814 167.679184 
L 467.092024 168.034151 
L 467.482233 167.710281 
L 468.262653 167.77079 
L 469.043073 168.24578 
L 469.823492 168.200039 
L 470.213702 167.829781 
L 470.603912 167.958138 
L 470.994122 168.402189 
L 471.384331 168.554432 
L 472.164751 167.649448 
L 473.33538 167.955298 
L 473.72559 168.353654 
L 474.1158 168.307398 
L 474.896219 167.766889 
L 475.286429 167.657628 
L 475.676639 167.845189 
L 476.066849 167.687432 
L 476.457059 167.823104 
L 476.847268 167.392199 
L 477.237478 167.779666 
L 477.627688 167.685633 
L 478.017898 167.89451 
L 478.408108 167.138594 
L 478.798317 167.323921 
L 479.188527 166.796265 
L 479.578737 167.393376 
L 480.359156 167.520812 
L 480.749366 167.150663 
L 481.139576 167.495462 
L 481.529786 167.134297 
L 481.919996 167.550264 
L 482.310205 167.154746 
L 482.700415 167.587608 
L 483.090625 167.21438 
L 483.480835 167.838486 
L 483.871045 167.489968 
L 484.261254 167.505754 
L 484.651464 166.953646 
L 485.041674 167.728569 
L 485.431884 167.637567 
L 485.822094 167.782465 
L 486.212303 167.465462 
L 486.602513 167.6463 
L 486.992723 167.67675 
L 487.382933 168.102737 
L 487.773142 167.422142 
L 488.553562 168.100589 
L 488.943772 167.246586 
L 489.333982 167.871726 
L 489.724191 167.584116 
L 490.114401 167.867532 
L 490.504611 167.406948 
L 490.894821 167.775551 
L 491.285031 167.612994 
L 492.45566 168.130487 
L 493.626289 167.585704 
L 494.406709 167.628664 
L 495.187128 167.73587 
L 495.577338 167.440339 
L 495.967548 167.800343 
L 496.357758 167.998738 
L 496.747968 168.532412 
L 497.528387 167.513484 
L 497.918597 167.855203 
L 498.699017 167.451928 
L 499.089226 167.538191 
L 499.479436 168.188903 
L 499.869646 167.451479 
L 500.259856 167.977264 
L 500.650066 168.058694 
L 501.430485 167.690907 
L 502.210905 168.038624 
L 502.601115 168.365727 
L 502.991324 167.587755 
L 503.381534 168.448506 
L 504.161954 167.49746 
L 504.552163 167.476281 
L 504.942373 167.738096 
L 505.332583 167.755714 
L 506.113003 168.102064 
L 506.893422 167.973858 
L 507.283632 167.760494 
L 507.673842 167.084461 
L 508.064052 167.883118 
L 508.454261 167.614984 
L 508.844471 167.639607 
L 509.234681 168.206244 
L 509.624891 167.68942 
L 510.40531 167.964516 
L 510.79552 167.815619 
L 511.18573 168.022647 
L 511.57594 168.002625 
L 511.966149 167.824684 
L 512.356359 167.434671 
L 512.746569 167.986338 
L 513.526989 167.705748 
L 513.917198 167.930693 
L 514.307408 167.799168 
L 514.697618 168.376478 
L 515.087828 168.00842 
L 515.478038 168.025359 
L 515.868247 167.899444 
L 516.258457 167.988372 
L 517.038877 167.573388 
L 517.819296 167.762593 
L 518.599716 167.372034 
L 519.380135 167.598472 
L 519.770345 167.712845 
L 520.160555 167.160308 
L 520.550765 167.39207 
L 520.940975 167.76882 
L 521.331184 167.932979 
L 521.721394 167.720401 
L 522.111604 167.669139 
L 522.501814 167.028703 
L 522.892024 167.332513 
L 523.282233 167.119462 
L 523.672443 167.400241 
L 525.623492 167.670873 
L 526.403912 167.173844 
L 527.184331 167.124134 
L 527.574541 167.176174 
L 527.964751 166.7652 
L 528.354961 167.051205 
L 529.13538 166.885233 
L 529.52559 167.250127 
L 530.30601 166.772559 
L 530.696219 167.775936 
L 531.086429 167.00415 
L 531.476639 167.511128 
L 531.866849 167.550489 
L 533.037478 167.15025 
L 533.817898 167.213006 
L 534.208108 166.992838 
L 534.598317 167.392014 
L 534.988527 167.13368 
L 535.768947 167.218266 
L 536.159156 166.925797 
L 536.549366 167.401719 
L 536.939576 167.093697 
L 537.329786 167.136046 
L 537.719996 167.4986 
L 538.110205 166.855258 
L 538.500415 166.723251 
L 538.890625 167.33815 
L 540.061254 166.874395 
L 540.451464 167.081431 
L 541.231884 167.050043 
L 542.012303 167.536996 
L 542.792723 167.583058 
L 543.182933 168.017203 
L 543.573142 167.974535 
L 544.743772 168.39631 
L 545.133982 168.398294 
L 545.524191 168.231063 
L 545.914401 167.884159 
L 546.304611 168.345749 
L 546.694821 168.264352 
L 547.085031 167.955007 
L 547.86545 168.06413 
L 548.25566 167.618454 
L 548.64587 168.266924 
L 549.03608 167.692045 
L 549.816499 167.618105 
L 550.206709 167.379107 
L 551.377338 168.193493 
L 551.767548 167.844706 
L 552.157758 167.872502 
L 552.547968 168.180034 
L 552.938177 168.264143 
L 553.328387 167.911159 
L 553.718597 168.260087 
L 554.108807 168.390628 
L 554.499017 168.229973 
L 554.889226 168.428713 
L 555.279436 167.990621 
L 555.669646 168.2936 
L 556.059856 168.134135 
L 556.450066 168.748672 
L 557.230485 168.437697 
L 557.620695 168.444157 
L 558.010905 167.793607 
L 558.401115 168.52573 
L 558.791324 168.035701 
L 559.181534 168.096286 
L 559.571744 168.496894 
L 559.961954 168.550487 
L 560.352163 168.32347 
L 561.132583 168.138543 
L 561.522793 167.913322 
L 562.693422 167.987964 
L 563.083632 168.285516 
L 563.473842 168.185153 
L 563.864052 167.832161 
L 564.254261 168.356196 
L 565.034681 167.800512 
L 565.424891 167.760334 
L 566.20531 168.074339 
L 566.59552 168.245453 
L 566.98573 167.550487 
L 567.37594 167.50391 
L 568.156359 167.805211 
L 568.546569 168.332021 
L 568.936779 167.887094 
L 570.107408 167.815148 
L 570.497618 168.091441 
L 570.887828 167.768061 
L 571.668247 168.033631 
L 572.058457 167.610236 
L 572.838877 167.594826 
L 573.229087 167.691552 
L 573.619296 167.964029 
L 574.009506 167.81463 
L 574.399716 168.168536 
L 574.789926 168.298507 
L 575.180135 168.03599 
L 575.960555 168.317229 
L 576.350765 168.085764 
L 576.740975 168.001078 
L 577.131184 168.039892 
L 577.521394 167.786561 
L 577.911604 167.942839 
L 578.301814 167.799765 
L 578.692024 168.01421 
L 579.472443 168.000916 
L 580.252863 167.941627 
L 580.643073 168.398032 
L 581.033282 167.796766 
L 581.423492 168.207016 
L 581.813702 168.145924 
L 582.203912 167.551587 
L 582.594122 167.982367 
L 582.984331 167.286404 
L 583.374541 167.480668 
L 583.764751 167.48593 
L 584.93538 168.180176 
L 585.32559 168.230953 
L 585.7158 168.121936 
L 586.10601 168.415509 
L 586.886429 168.471111 
L 587.276639 167.922029 
L 587.666849 168.765175 
L 588.057059 167.812701 
L 588.447268 168.026679 
L 588.837478 167.967479 
L 589.227688 167.363376 
L 589.617898 167.674451 
L 590.008108 167.830774 
L 590.398317 167.540591 
L 590.788527 167.503768 
L 591.178737 168.247858 
L 591.568947 168.198391 
L 591.959156 168.270781 
L 592.349366 167.668448 
L 592.739576 167.450555 
L 593.129786 167.666598 
L 593.519996 167.544722 
L 593.910205 168.108202 
L 594.300415 167.82319 
L 594.690625 168.332072 
L 595.080835 168.313882 
L 595.471045 167.990658 
L 596.251464 167.82678 
L 597.031884 167.69071 
L 597.422094 168.580591 
L 597.812303 168.090425 
L 598.592723 168.405621 
L 598.982933 167.940651 
L 599.373142 167.920871 
L 599.763352 167.697883 
L 600.153562 167.880443 
L 601.324191 167.936594 
L 601.714401 168.187655 
L 602.494821 168.07991 
L 602.885031 168.410151 
L 603.66545 168.127815 
L 604.05566 168.42822 
L 604.83608 168.487664 
L 605.226289 168.541656 
L 605.616499 168.114351 
L 606.006709 168.043065 
L 606.396919 168.432345 
L 606.787128 168.259308 
L 607.957758 168.223765 
L 608.738177 168.471089 
L 609.128387 168.251735 
L 609.518597 168.338174 
L 609.908807 168.04233 
L 610.299017 168.05247 
L 610.689226 168.247995 
L 611.079436 168.033911 
L 611.469646 168.148847 
L 611.859856 167.944939 
L 612.250066 168.281226 
L 612.640275 167.928142 
L 613.030485 168.406232 
L 613.420695 168.259196 
L 613.810905 167.968629 
L 614.201115 167.843869 
L 614.591324 168.416682 
L 614.981534 168.394344 
L 615.371744 168.111164 
L 615.761954 168.499792 
L 616.152163 168.576082 
L 616.932583 168.551225 
L 617.322793 168.909093 
L 617.713003 168.247934 
L 618.493422 168.569364 
L 618.883632 168.216117 
L 619.664052 168.04415 
L 620.054261 167.568737 
L 620.444471 168.214966 
L 621.224891 167.616542 
L 622.39552 168.471279 
L 622.78573 167.87335 
L 623.17594 168.284962 
L 623.566149 167.906711 
L 623.956359 168.401945 
L 624.346569 167.996687 
L 624.736779 167.763797 
L 625.126989 167.870899 
L 625.126989 167.870899 
" clip-path="url(#pb0b2c4a659)" style="fill: none; stroke: #1f77b4; stroke-width: 1.5; stroke-linecap: square"/>
   </g>
   <g id="line2d_14">
    <path d="M 117.854261 296.03625 
L 118.634681 219.200503 
L 119.415101 238.645685 
L 119.80531 213.261152 
L 120.19552 212.54875 
L 120.58573 215.076811 
L 120.97594 205.598168 
L 121.366149 212.181319 
L 121.756359 226.669107 
L 122.536779 196.212776 
L 122.926989 194.413947 
L 123.317198 194.780619 
L 123.707408 201.832737 
L 124.097618 195.235904 
L 124.487828 196.378027 
L 124.878038 194.532246 
L 125.268247 194.186848 
L 125.658457 195.502642 
L 126.048667 184.213625 
L 126.438877 181.165058 
L 127.219296 182.194952 
L 127.609506 186.091654 
L 127.999716 177.656689 
L 128.389926 180.557306 
L 128.780135 182.010728 
L 129.170345 182.333157 
L 129.560555 181.694365 
L 129.950765 181.32096 
L 130.340975 182.390077 
L 130.731184 183.960668 
L 131.121394 184.431872 
L 131.511604 183.194059 
L 131.901814 180.438406 
L 132.292024 181.145129 
L 132.682233 183.060858 
L 133.072443 181.048282 
L 133.462653 180.679822 
L 133.852863 178.011528 
L 134.633282 178.090941 
L 135.023492 178.969227 
L 135.413702 181.172561 
L 135.803912 178.870422 
L 136.194122 177.393865 
L 136.584331 177.781811 
L 136.974541 178.351291 
L 137.364751 176.208669 
L 137.754961 177.343197 
L 138.14517 177.985098 
L 138.53538 180.055569 
L 138.92559 176.730227 
L 139.3158 176.248777 
L 139.70601 179.231779 
L 140.096219 177.708572 
L 140.486429 177.030424 
L 140.876639 176.664959 
L 141.266849 177.691265 
L 141.657059 176.119124 
L 142.047268 176.160455 
L 142.437478 176.32796 
L 142.827688 176.294541 
L 143.217898 177.635459 
L 144.388527 174.709478 
L 144.778737 176.153952 
L 145.168947 175.127327 
L 145.559156 173.767497 
L 145.949366 175.460951 
L 146.339576 176.586489 
L 146.729786 176.4194 
L 147.119996 177.261133 
L 147.510205 174.063869 
L 147.900415 178.121447 
L 148.290625 174.604464 
L 149.071045 174.564015 
L 149.461254 174.107088 
L 149.851464 175.394572 
L 150.241674 174.377249 
L 150.631884 173.690661 
L 151.022094 174.735638 
L 151.412303 174.466004 
L 151.802513 173.763776 
L 152.192723 174.487707 
L 152.973142 173.128249 
L 153.363352 173.783378 
L 153.753562 172.877454 
L 154.143772 174.449639 
L 154.533982 174.136157 
L 154.924191 174.131147 
L 155.314401 174.543099 
L 155.704611 174.151772 
L 156.094821 171.716959 
L 156.87524 172.9355 
L 157.26545 173.551442 
L 157.65566 171.414805 
L 158.04587 172.531184 
L 158.826289 173.528479 
L 159.216499 174.667006 
L 159.606709 172.879212 
L 159.996919 174.079173 
L 160.387128 174.417489 
L 161.167548 173.861619 
L 161.557758 174.307226 
L 161.947968 172.468632 
L 162.338177 173.093585 
L 163.118597 171.328881 
L 163.508807 172.522737 
L 163.899017 173.248832 
L 164.289226 173.248455 
L 164.679436 172.722076 
L 165.069646 173.191447 
L 165.459856 171.575761 
L 165.850066 171.514487 
L 166.240275 172.497564 
L 166.630485 172.614868 
L 167.020695 172.527716 
L 167.410905 172.901462 
L 167.801115 171.798656 
L 168.191324 172.17445 
L 168.581534 171.36876 
L 168.971744 171.860114 
L 169.361954 172.065286 
L 169.752163 172.853624 
L 170.142373 172.279056 
L 170.532583 172.345809 
L 170.922793 171.40709 
L 171.703212 173.281889 
L 172.093422 171.6027 
L 172.483632 171.572991 
L 172.873842 172.788874 
L 173.264052 173.126234 
L 173.654261 172.833694 
L 174.044471 172.21413 
L 174.434681 173.023502 
L 174.824891 173.20008 
L 175.215101 172.111453 
L 175.60531 172.345466 
L 175.99552 173.241511 
L 176.38573 173.382747 
L 176.77594 171.305869 
L 177.166149 172.329936 
L 177.556359 172.906326 
L 177.946569 172.161376 
L 178.336779 172.618973 
L 178.726989 172.868546 
L 179.117198 172.178703 
L 179.507408 172.386805 
L 179.897618 171.756797 
L 180.287828 172.613199 
L 180.678038 172.735791 
L 181.068247 171.651542 
L 181.458457 171.944659 
L 181.848667 171.896408 
L 182.238877 172.235164 
L 183.409506 172.841949 
L 183.799716 171.593369 
L 184.189926 172.130366 
L 184.580135 172.372364 
L 184.970345 172.074754 
L 185.360555 171.556562 
L 185.750765 172.602379 
L 186.140975 171.34686 
L 186.531184 171.920515 
L 186.921394 171.527562 
L 187.311604 173.732855 
L 187.701814 171.742232 
L 188.092024 172.010685 
L 188.482233 171.679803 
L 188.872443 172.867061 
L 189.262653 172.121979 
L 189.652863 172.252688 
L 190.433282 171.196761 
L 190.823492 171.68482 
L 191.213702 171.334027 
L 191.994122 171.732382 
L 192.384331 171.046097 
L 192.774541 171.840605 
L 193.164751 171.338442 
L 193.94517 171.274296 
L 194.33538 171.527496 
L 194.72559 171.463002 
L 195.50601 171.714048 
L 195.896219 171.527779 
L 196.286429 171.971782 
L 196.676639 171.808757 
L 197.066849 171.239484 
L 197.457059 171.712659 
L 197.847268 171.35515 
L 198.237478 171.253456 
L 198.627688 170.952888 
L 199.017898 171.26288 
L 199.408108 171.751968 
L 199.798317 171.851963 
L 200.188527 171.325347 
L 200.578737 171.013635 
L 201.749366 171.590286 
L 202.139576 171.297249 
L 202.529786 171.551686 
L 203.310205 170.870277 
L 203.700415 170.951387 
L 204.090625 170.706756 
L 204.480835 172.011226 
L 204.871045 171.562232 
L 205.261254 171.393369 
L 205.651464 170.624929 
L 206.041674 170.80561 
L 206.431884 171.546023 
L 207.602513 170.643849 
L 207.992723 171.28086 
L 208.382933 170.960326 
L 208.773142 170.393007 
L 209.163352 171.235045 
L 209.943772 170.199702 
L 210.333982 170.694318 
L 210.724191 171.399415 
L 211.114401 171.077521 
L 211.504611 171.099076 
L 211.894821 170.871475 
L 212.285031 172.392286 
L 212.67524 172.26415 
L 213.06545 171.124406 
L 214.23608 171.044001 
L 214.626289 171.602959 
L 215.016499 171.166176 
L 215.796919 170.812143 
L 216.187128 171.302051 
L 216.577338 172.056204 
L 216.967548 171.356412 
L 217.357758 172.162386 
L 217.747968 170.870293 
L 218.138177 170.933369 
L 218.528387 171.41883 
L 219.308807 171.6746 
L 219.699017 171.327942 
L 220.089226 171.457798 
L 220.479436 171.376492 
L 222.040275 171.6086 
L 222.430485 172.038357 
L 222.820695 171.485702 
L 223.210905 171.201776 
L 223.601115 172.03931 
L 223.991324 171.951895 
L 224.381534 171.029977 
L 224.771744 171.470733 
L 225.161954 171.33633 
L 225.552163 171.788106 
L 225.942373 171.619493 
L 226.332583 171.687032 
L 226.722793 172.066726 
L 227.113003 171.215829 
L 227.503212 170.9907 
L 228.283632 171.888345 
L 228.673842 171.568269 
L 229.064052 171.90961 
L 229.454261 170.651171 
L 230.234681 171.7623 
L 230.624891 171.30192 
L 231.015101 170.659659 
L 231.40531 171.288779 
L 231.79552 171.490592 
L 232.18573 172.222745 
L 232.57594 172.55833 
L 232.966149 171.034898 
L 233.356359 171.498769 
L 233.746569 171.647811 
L 234.526989 171.370715 
L 234.917198 170.858276 
L 236.478038 171.90754 
L 236.868247 171.958406 
L 237.258457 172.342796 
L 237.648667 171.67289 
L 238.038877 172.154893 
L 238.429087 171.257939 
L 238.819296 171.674141 
L 239.599716 171.049011 
L 239.989926 171.724085 
L 240.380135 172.095347 
L 241.160555 171.377652 
L 241.550765 171.62404 
L 241.940975 171.390359 
L 242.331184 171.60132 
L 242.721394 171.535308 
L 243.501814 171.832293 
L 243.892024 171.367157 
L 244.282233 171.617892 
L 244.672443 171.685619 
L 245.062653 171.618568 
L 245.843073 171.860995 
L 246.233282 172.237446 
L 246.623492 171.005607 
L 247.013702 171.553755 
L 247.403912 171.490333 
L 247.794122 171.592916 
L 248.574541 171.398825 
L 248.964751 171.605477 
L 249.74517 172.38631 
L 250.13538 171.526915 
L 250.52559 171.645364 
L 250.9158 171.371208 
L 251.30601 172.147328 
L 251.696219 171.753966 
L 252.086429 173.179875 
L 252.476639 171.668005 
L 252.866849 171.579546 
L 253.257059 172.096871 
L 253.647268 172.356091 
L 254.037478 172.089167 
L 254.427688 172.553571 
L 254.817898 171.812758 
L 255.208108 171.615187 
L 255.988527 171.69413 
L 256.378737 171.766294 
L 256.768947 172.234649 
L 257.549366 171.674879 
L 257.939576 171.832849 
L 258.329786 172.280615 
L 258.719996 171.622514 
L 259.110205 171.755409 
L 259.500415 172.137954 
L 259.890625 171.268446 
L 260.280835 172.07895 
L 260.671045 171.204316 
L 261.061254 172.061808 
L 261.451464 171.646001 
L 261.841674 171.927455 
L 262.231884 171.965757 
L 262.622094 171.666375 
L 263.012303 171.715999 
L 263.402513 172.314211 
L 263.792723 172.600415 
L 264.573142 172.093801 
L 264.963352 172.294227 
L 265.353562 171.622418 
L 266.133982 171.826495 
L 266.524191 171.737618 
L 266.914401 171.862572 
L 267.304611 171.810099 
L 267.694821 172.003163 
L 268.085031 171.442342 
L 268.47524 171.871399 
L 268.86545 172.112333 
L 269.25566 171.965151 
L 269.64587 171.593799 
L 270.03608 172.424699 
L 270.426289 172.280127 
L 270.816499 171.782763 
L 271.596919 172.362792 
L 272.377338 172.20061 
L 272.767548 172.371535 
L 273.157758 171.999299 
L 273.938177 171.610287 
L 274.328387 171.773116 
L 274.718597 171.682329 
L 275.108807 171.967082 
L 275.499017 171.559341 
L 275.889226 171.909636 
L 276.669646 172.294224 
L 277.059856 171.932208 
L 277.450066 172.584878 
L 277.840275 172.074051 
L 278.230485 171.992196 
L 278.620695 172.04918 
L 279.010905 172.439833 
L 280.181534 171.978719 
L 280.571744 172.222894 
L 280.961954 171.692602 
L 281.352163 172.103561 
L 282.132583 171.90705 
L 282.522793 172.379678 
L 282.913003 171.602559 
L 283.303212 172.046383 
L 283.693422 171.783138 
L 284.473842 172.085609 
L 284.864052 171.771962 
L 285.254261 172.218407 
L 286.034681 172.278004 
L 286.424891 172.469344 
L 286.815101 172.082219 
L 287.20531 172.14542 
L 287.59552 172.415526 
L 287.98573 172.448525 
L 288.37594 171.769688 
L 288.766149 172.670857 
L 289.156359 172.261742 
L 289.546569 172.179617 
L 289.936779 172.75954 
L 290.326989 172.558029 
L 290.717198 171.989123 
L 291.497618 172.108654 
L 291.887828 171.709229 
L 292.278038 172.924987 
L 292.668247 172.155324 
L 293.058457 172.460446 
L 293.448667 172.32577 
L 293.838877 172.626836 
L 294.229087 171.57441 
L 294.619296 172.098787 
L 295.009506 172.167263 
L 295.399716 171.574182 
L 296.180135 171.795719 
L 296.960555 171.727319 
L 297.350765 171.728792 
L 297.740975 172.057989 
L 298.131184 172.197913 
L 298.521394 171.68826 
L 298.911604 172.546455 
L 299.301814 171.75321 
L 299.692024 171.527242 
L 300.082233 171.579348 
L 300.472443 171.491789 
L 300.862653 171.614068 
L 301.252863 171.273213 
L 301.643073 171.721788 
L 302.813702 171.597293 
L 303.203912 171.221748 
L 303.594122 171.946635 
L 303.984331 171.54936 
L 304.374541 171.918295 
L 305.154961 171.369587 
L 305.54517 172.016757 
L 306.32559 171.647025 
L 306.7158 171.942592 
L 307.10601 171.796667 
L 307.496219 171.462699 
L 307.886429 171.850835 
L 308.276639 171.619728 
L 308.666849 171.633126 
L 309.057059 171.98708 
L 309.447268 171.713236 
L 309.837478 172.227735 
L 310.227688 171.661024 
L 310.617898 171.646745 
L 311.398317 172.171069 
L 312.178737 171.032468 
L 312.568947 171.890426 
L 312.959156 171.742362 
L 313.349366 171.418415 
L 313.739576 172.147392 
L 314.129786 171.921093 
L 314.519996 171.482523 
L 315.300415 172.073854 
L 315.690625 171.643588 
L 316.861254 171.546255 
L 317.251464 171.764198 
L 318.031884 171.069354 
L 318.422094 171.377002 
L 318.812303 172.050453 
L 319.202513 171.849916 
L 319.592723 171.860143 
L 319.982933 171.732915 
L 320.373142 171.303851 
L 321.153562 171.520633 
L 321.543772 171.730886 
L 321.933982 171.33955 
L 322.324191 171.775897 
L 322.714401 171.614878 
L 323.104611 172.277533 
L 323.494821 171.669711 
L 323.885031 172.172951 
L 324.27524 171.577625 
L 325.05566 171.483749 
L 325.44587 171.242414 
L 325.83608 171.979101 
L 326.226289 171.568908 
L 326.616499 171.468434 
L 327.006709 171.70582 
L 327.787128 171.783909 
L 328.177338 171.418185 
L 329.347968 171.594637 
L 329.738177 171.242859 
L 330.128387 171.826873 
L 330.518597 171.309659 
L 332.079436 171.853016 
L 333.250066 171.472713 
L 333.640275 171.307203 
L 334.030485 171.710485 
L 334.420695 171.574469 
L 334.810905 171.971282 
L 335.201115 171.285448 
L 335.591324 171.703686 
L 335.981534 171.380695 
L 336.371744 171.65969 
L 336.761954 171.250398 
L 337.152163 171.299857 
L 337.542373 171.575726 
L 337.932583 171.207537 
L 338.322793 171.86768 
L 338.713003 171.19964 
L 339.103212 171.064495 
L 339.493422 171.7875 
L 339.883632 171.064782 
L 340.273842 171.187348 
L 340.664052 171.604023 
L 341.444471 171.888027 
L 341.834681 171.30301 
L 342.224891 171.529095 
L 342.615101 171.497257 
L 343.00531 171.123619 
L 343.39552 171.158037 
L 343.78573 171.644663 
L 344.17594 171.830987 
L 344.566149 171.507214 
L 344.956359 171.34703 
L 345.346569 171.353478 
L 345.736779 171.722931 
L 346.126989 171.612591 
L 346.517198 171.653517 
L 347.297618 171.530283 
L 347.687828 171.6877 
L 348.078038 171.372083 
L 348.468247 171.415048 
L 348.858457 171.635205 
L 349.248667 171.574652 
L 349.638877 171.128399 
L 350.029087 171.523431 
L 350.419296 171.600522 
L 351.199716 171.312941 
L 351.589926 171.421824 
L 353.150765 171.458953 
L 353.540975 171.765277 
L 354.321394 171.500581 
L 355.492024 171.648895 
L 355.882233 171.615499 
L 356.272443 171.336644 
L 356.662653 171.447294 
L 357.052863 171.880552 
L 357.443073 171.525351 
L 357.833282 171.413842 
L 358.223492 171.716409 
L 358.613702 171.406692 
L 359.003912 171.650598 
L 360.564751 171.87875 
L 360.954961 171.544947 
L 361.34517 171.690293 
L 362.12559 171.612162 
L 362.5158 172.042311 
L 362.90601 171.602169 
L 363.296219 171.76101 
L 363.686429 171.60049 
L 364.076639 171.575155 
L 364.466849 171.782807 
L 364.857059 171.303394 
L 365.637478 172.22686 
L 366.027688 171.385557 
L 366.417898 171.749951 
L 366.808108 171.570733 
L 367.198317 171.623055 
L 367.588527 171.915835 
L 367.978737 171.576743 
L 368.368947 171.468432 
L 368.759156 171.920446 
L 369.149366 171.957665 
L 369.539576 171.390786 
L 369.929786 171.646143 
L 370.319996 171.629102 
L 371.100415 171.816926 
L 371.490625 171.68513 
L 371.880835 171.806109 
L 372.271045 172.046569 
L 372.661254 171.297708 
L 373.441674 171.772949 
L 373.831884 171.6523 
L 374.222094 171.374826 
L 375.002513 171.427694 
L 375.392723 172.009548 
L 375.782933 171.364036 
L 376.563352 171.599214 
L 376.953562 171.182616 
L 377.343772 171.62443 
L 378.124191 171.831593 
L 378.514401 171.542116 
L 378.904611 171.764636 
L 379.294821 171.463287 
L 379.685031 171.438166 
L 380.07524 172.100975 
L 380.46545 171.765845 
L 380.85566 171.61204 
L 382.416499 172.221847 
L 383.196919 171.520257 
L 383.587128 171.400278 
L 383.977338 171.564072 
L 384.367548 171.512417 
L 385.147968 171.61739 
L 385.538177 171.554389 
L 385.928387 171.908901 
L 386.318597 171.477327 
L 386.708807 172.091608 
L 387.099017 171.467854 
L 388.269646 171.666127 
L 388.659856 172.186488 
L 389.050066 171.742804 
L 390.220695 171.590847 
L 390.610905 171.158404 
L 391.001115 171.528959 
L 392.561954 171.420891 
L 392.952163 171.722485 
L 393.342373 171.863264 
L 393.732583 171.796162 
L 394.122793 171.490731 
L 394.513003 171.445488 
L 394.903212 171.680148 
L 395.293422 171.6821 
L 395.683632 171.293901 
L 396.073842 171.103215 
L 396.464052 171.539433 
L 397.244471 171.441867 
L 398.415101 171.648299 
L 398.80531 171.515511 
L 399.19552 171.614487 
L 400.366149 171.289406 
L 400.756359 171.409006 
L 401.146569 171.19151 
L 401.536779 171.651945 
L 401.926989 170.761083 
L 402.317198 170.987507 
L 402.707408 170.596013 
L 403.097618 170.737447 
L 403.487828 170.661208 
L 403.878038 170.928541 
L 404.658457 171.102284 
L 405.048667 171.42396 
L 405.438877 170.886879 
L 405.829087 171.345256 
L 406.219296 171.01546 
L 406.609506 171.26267 
L 407.780135 170.808042 
L 408.170345 171.328662 
L 408.560555 170.938545 
L 408.950765 170.867777 
L 409.731184 171.161667 
L 410.121394 171.29173 
L 410.511604 170.840532 
L 410.901814 171.08189 
L 411.292024 171.124606 
L 411.682233 171.29218 
L 412.072443 171.137038 
L 412.462653 171.198372 
L 412.852863 171.599172 
L 413.243073 171.300605 
L 413.633282 171.175879 
L 414.023492 171.381855 
L 414.413702 171.287735 
L 414.803912 171.65396 
L 415.194122 171.319707 
L 415.584331 171.636511 
L 415.974541 171.403219 
L 416.364751 171.330179 
L 416.754961 170.920461 
L 417.14517 171.171368 
L 417.53538 171.198484 
L 417.92559 170.872133 
L 418.3158 171.144007 
L 419.486429 171.376753 
L 419.876639 171.557049 
L 420.266849 171.08047 
L 420.657059 171.45491 
L 421.047268 171.121281 
L 421.437478 171.235663 
L 421.827688 171.595601 
L 422.217898 171.396206 
L 423.388527 171.330871 
L 423.778737 170.934157 
L 424.168947 170.870753 
L 424.559156 171.170502 
L 424.949366 170.882795 
L 425.339576 171.036573 
L 425.729786 171.026358 
L 426.510205 171.299812 
L 426.900415 170.904056 
L 427.290625 171.293444 
L 427.680835 171.157349 
L 428.461254 171.257007 
L 429.241674 171.341784 
L 429.631884 171.881538 
L 430.022094 171.190762 
L 430.412303 170.920531 
L 430.802513 171.002608 
L 431.192723 170.940161 
L 431.582933 171.236111 
L 431.973142 170.691898 
L 432.363352 170.6631 
L 432.753562 171.289256 
L 433.143772 170.834097 
L 433.533982 171.337713 
L 433.924191 170.954675 
L 434.314401 170.995028 
L 435.094821 170.695438 
L 435.485031 170.874813 
L 436.26545 171.045581 
L 436.65566 171.791283 
L 437.43608 170.743319 
L 437.826289 170.589246 
L 438.606709 171.082335 
L 438.996919 170.878595 
L 439.387128 171.202007 
L 439.777338 170.834619 
L 440.167548 170.857913 
L 440.947968 171.258332 
L 441.338177 170.645336 
L 441.728387 170.801055 
L 442.118597 171.163091 
L 442.899017 171.148606 
L 443.289226 171.214201 
L 443.679436 171.105061 
L 444.069646 170.849566 
L 444.459856 170.933592 
L 444.850066 171.135447 
L 445.630485 171.022335 
L 446.020695 171.532721 
L 446.801115 171.081306 
L 447.191324 171.417653 
L 447.581534 170.865572 
L 447.971744 171.186786 
L 448.361954 171.2233 
L 448.752163 171.100225 
L 450.313003 171.417797 
L 450.703212 171.003962 
L 451.093422 170.873678 
L 451.483632 171.19923 
L 451.873842 170.9147 
L 452.264052 171.176549 
L 452.654261 170.720087 
L 453.044471 171.221837 
L 453.434681 170.825395 
L 454.215101 170.903701 
L 454.60531 170.894215 
L 454.99552 171.263465 
L 455.38573 170.896899 
L 455.77594 171.064158 
L 456.166149 170.930889 
L 456.946569 170.953442 
L 457.336779 170.660597 
L 457.726989 170.829386 
L 458.117198 171.134191 
L 458.507408 171.278856 
L 458.897618 171.285917 
L 459.678038 171.133321 
L 460.068247 171.228559 
L 460.458457 171.011475 
L 460.848667 171.071401 
L 461.238877 170.969186 
L 461.629087 171.117366 
L 462.019296 170.902941 
L 462.409506 171.340473 
L 462.799716 171.330764 
L 463.189926 171.442246 
L 463.580135 171.170754 
L 464.750765 171.073413 
L 465.140975 171.224513 
L 465.921394 171.200761 
L 466.311604 170.932061 
L 466.701814 170.85153 
L 467.092024 171.272058 
L 467.482233 170.919905 
L 468.262653 171.328001 
L 468.652863 170.945018 
L 469.043073 170.93693 
L 469.433282 171.191192 
L 469.823492 171.629335 
L 470.603912 171.045536 
L 470.994122 171.168376 
L 471.384331 171.41437 
L 471.774541 171.020584 
L 472.164751 171.11746 
L 472.554961 171.086986 
L 472.94517 171.190889 
L 473.72559 171.170039 
L 474.1158 171.433766 
L 474.50601 171.231394 
L 474.896219 171.416421 
L 476.847268 171.1695 
L 477.237478 171.255996 
L 477.627688 171.201189 
L 478.408108 170.894037 
L 479.968947 171.19389 
L 480.749366 170.958544 
L 481.529786 171.520634 
L 481.919996 171.119372 
L 482.310205 171.018045 
L 482.700415 171.67436 
L 483.090625 171.09071 
L 483.480835 171.354111 
L 484.261254 170.839483 
L 484.651464 170.719592 
L 485.041674 170.840227 
L 485.431884 170.708209 
L 485.822094 170.893917 
L 486.212303 171.223553 
L 486.602513 170.712814 
L 486.992723 170.735789 
L 487.382933 170.56253 
L 487.773142 170.978219 
L 488.163352 170.867546 
L 488.943772 171.072234 
L 489.333982 170.655839 
L 489.724191 170.698314 
L 490.114401 171.11127 
L 490.504611 170.684368 
L 491.67524 171.266159 
L 492.06545 171.20957 
L 492.45566 170.876477 
L 492.84587 171.059444 
L 493.626289 170.926751 
L 494.016499 170.696355 
L 494.406709 170.808768 
L 494.796919 171.218476 
L 496.357758 170.606371 
L 496.747968 170.938834 
L 497.138177 170.807869 
L 497.528387 170.850105 
L 497.918597 170.759542 
L 498.308807 170.856284 
L 498.699017 171.272716 
L 499.089226 170.761774 
L 499.479436 170.881607 
L 500.259856 170.761931 
L 500.650066 170.918663 
L 501.040275 170.768164 
L 501.430485 171.215186 
L 501.820695 171.017064 
L 502.210905 171.250301 
L 502.601115 170.951181 
L 503.771744 170.750064 
L 504.161954 170.934623 
L 504.552163 170.891714 
L 504.942373 171.047805 
L 505.332583 170.738098 
L 506.113003 170.735819 
L 506.503212 171.010138 
L 506.893422 170.904273 
L 507.283632 170.954422 
L 508.064052 171.288385 
L 508.844471 170.87931 
L 509.234681 170.684863 
L 509.624891 170.925244 
L 510.015101 170.765478 
L 510.79552 171.199506 
L 511.18573 171.148805 
L 511.57594 171.398969 
L 511.966149 170.721241 
L 512.356359 170.982733 
L 513.136779 171.023371 
L 513.526989 170.609744 
L 513.917198 171.056523 
L 515.087828 170.571225 
L 515.478038 170.84737 
L 515.868247 170.748957 
L 516.258457 170.807698 
L 517.429087 170.51698 
L 517.819296 170.745012 
L 518.209506 170.786442 
L 518.599716 171.193776 
L 518.989926 170.903311 
L 519.380135 171.058865 
L 519.770345 170.887706 
L 520.160555 170.952627 
L 520.550765 170.813599 
L 520.940975 171.215764 
L 521.331184 170.740278 
L 521.721394 170.613744 
L 522.501814 170.579924 
L 523.282233 171.092789 
L 524.062653 170.837638 
L 524.452863 170.913837 
L 524.843073 170.727723 
L 525.233282 170.969048 
L 525.623492 170.825615 
L 526.013702 170.889193 
L 526.403912 171.108736 
L 526.794122 171.187159 
L 527.184331 171.147762 
L 527.574541 170.533143 
L 529.13538 170.847003 
L 529.52559 170.707416 
L 529.9158 170.726416 
L 530.30601 171.098922 
L 530.696219 171.160734 
L 531.086429 170.559771 
L 531.476639 170.413832 
L 532.647268 170.938173 
L 533.037478 170.55412 
L 533.427688 170.483856 
L 533.817898 171.003681 
L 534.208108 170.953024 
L 534.598317 171.316819 
L 535.378737 170.613016 
L 535.768947 170.786452 
L 536.159156 170.736078 
L 536.549366 170.961564 
L 537.329786 170.948136 
L 537.719996 171.101096 
L 538.110205 170.735404 
L 538.890625 171.117438 
L 539.280835 170.693311 
L 540.061254 170.916796 
L 540.451464 171.203961 
L 541.231884 170.745573 
L 541.622094 171.040061 
L 542.012303 170.812139 
L 543.182933 170.704211 
L 543.573142 170.67869 
L 543.963352 170.895043 
L 544.353562 170.381518 
L 544.743772 170.93827 
L 545.133982 170.96271 
L 545.524191 170.534306 
L 545.914401 171.048113 
L 546.304611 170.651114 
L 546.694821 170.622422 
L 547.085031 170.950698 
L 547.47524 170.874743 
L 547.86545 170.64102 
L 548.25566 170.906864 
L 548.64587 170.691515 
L 549.03608 171.212719 
L 549.426289 170.834661 
L 549.816499 170.639146 
L 550.206709 170.850851 
L 550.596919 170.860258 
L 550.987128 170.667375 
L 551.377338 170.835431 
L 551.767548 170.626871 
L 552.157758 170.834009 
L 552.547968 170.866606 
L 552.938177 170.72198 
L 553.328387 170.720277 
L 553.718597 170.933455 
L 554.108807 170.451516 
L 554.499017 170.419604 
L 554.889226 170.998416 
L 555.279436 170.579085 
L 555.669646 170.74032 
L 556.059856 170.768913 
L 556.450066 170.429201 
L 556.840275 170.489571 
L 557.230485 170.718454 
L 557.620695 170.603393 
L 558.010905 170.850211 
L 558.401115 170.559679 
L 558.791324 170.813131 
L 559.181534 170.52679 
L 559.571744 170.63431 
L 559.961954 170.491912 
L 560.352163 170.648642 
L 560.742373 170.571859 
L 561.132583 170.871463 
L 561.522793 170.58753 
L 561.913003 170.512779 
L 564.254261 171.03303 
L 564.644471 170.707687 
L 565.034681 170.528718 
L 565.815101 170.9274 
L 566.20531 170.733948 
L 566.59552 171.0728 
L 566.98573 170.763549 
L 567.766149 171.122912 
L 568.156359 170.841414 
L 568.546569 170.798636 
L 568.936779 170.576703 
L 569.717198 170.830291 
L 570.107408 170.589583 
L 570.497618 170.916207 
L 570.887828 170.759809 
L 571.278038 170.774932 
L 572.058457 170.359896 
L 572.838877 170.635367 
L 573.229087 171.070245 
L 573.619296 170.657707 
L 574.009506 170.550851 
L 574.399716 170.598932 
L 574.789926 170.787151 
L 575.180135 170.681688 
L 575.570345 170.387036 
L 575.960555 170.416115 
L 576.350765 170.878409 
L 576.740975 170.630899 
L 577.131184 171.071578 
L 577.521394 171.1535 
L 577.911604 170.549599 
L 578.301814 170.759775 
L 578.692024 170.538498 
L 579.862653 171.055881 
L 580.643073 170.888099 
L 581.423492 170.692511 
L 581.813702 170.725042 
L 582.203912 170.613034 
L 582.594122 170.834623 
L 583.374541 170.953865 
L 583.764751 170.604125 
L 584.154961 170.559315 
L 584.54517 170.734298 
L 584.93538 170.765653 
L 585.32559 170.934995 
L 586.10601 170.626062 
L 586.496219 170.990162 
L 587.276639 170.651681 
L 587.666849 171.145624 
L 588.057059 170.578558 
L 588.447268 170.839456 
L 588.837478 170.875805 
L 589.617898 170.471814 
L 590.008108 170.424695 
L 590.788527 170.631749 
L 591.568947 170.888186 
L 591.959156 170.744507 
L 592.739576 170.786117 
L 593.129786 170.631302 
L 593.910205 170.687728 
L 594.300415 170.972742 
L 594.690625 170.537612 
L 595.080835 170.880383 
L 595.861254 170.603943 
L 596.251464 170.819605 
L 596.641674 170.509849 
L 597.031884 170.950334 
L 597.422094 170.833115 
L 597.812303 170.558232 
L 598.592723 170.741402 
L 598.982933 170.699919 
L 599.373142 170.872233 
L 599.763352 170.279612 
L 600.153562 170.798662 
L 600.543772 170.818435 
L 600.933982 170.694929 
L 601.324191 171.134182 
L 601.714401 170.863706 
L 602.104611 170.837301 
L 602.494821 170.665313 
L 602.885031 170.786664 
L 603.27524 170.581829 
L 604.05566 170.941334 
L 604.44587 170.674548 
L 604.83608 170.602221 
L 605.226289 170.745723 
L 605.616499 170.63707 
L 606.006709 170.978944 
L 606.396919 170.78368 
L 606.787128 170.822146 
L 607.177338 171.200952 
L 607.567548 170.725629 
L 607.957758 170.707773 
L 608.738177 171.120343 
L 609.128387 170.820297 
L 609.518597 170.956407 
L 609.908807 170.59562 
L 610.299017 170.652294 
L 610.689226 170.541251 
L 611.079436 170.720733 
L 611.469646 170.676061 
L 611.859856 170.424413 
L 612.250066 170.53423 
L 612.640275 170.507187 
L 613.030485 170.281122 
L 613.420695 170.582402 
L 614.591324 170.507017 
L 614.981534 170.402274 
L 615.371744 170.630037 
L 615.761954 170.651028 
L 616.152163 170.490456 
L 616.932583 170.799205 
L 617.322793 170.571074 
L 617.713003 170.634182 
L 618.493422 170.336733 
L 618.883632 170.560438 
L 619.273842 170.590834 
L 619.664052 171.054906 
L 620.444471 170.561266 
L 622.39552 170.682939 
L 622.78573 170.770461 
L 623.17594 170.514827 
L 623.566149 170.701922 
L 623.956359 170.509819 
L 624.346569 170.445859 
L 624.736779 170.499178 
L 625.126989 170.245035 
L 625.126989 170.245035 
" clip-path="url(#pb0b2c4a659)" style="fill: none; stroke: #ff7f0e; stroke-width: 1.5; stroke-linecap: square"/>
   </g>
   <g id="patch_3">
    <path d="M 92.490625 308.63625 
L 92.490625 31.43625 
" style="fill: none; stroke: #000000; stroke-width: 0.8; stroke-linejoin: miter; stroke-linecap: square"/>
   </g>
   <g id="patch_4">
    <path d="M 650.490625 308.63625 
L 650.490625 31.43625 
" style="fill: none; stroke: #000000; stroke-width: 0.8; stroke-linejoin: miter; stroke-linecap: square"/>
   </g>
   <g id="patch_5">
    <path d="M 92.490625 308.63625 
L 650.490625 308.63625 
" style="fill: none; stroke: #000000; stroke-width: 0.8; stroke-linejoin: miter; stroke-linecap: square"/>
   </g>
   <g id="patch_6">
    <path d="M 92.490625 31.43625 
L 650.490625 31.43625 
" style="fill: none; stroke: #000000; stroke-width: 0.8; stroke-linejoin: miter; stroke-linecap: square"/>
   </g>
   <g id="text_15">
    <!-- Generator and Discriminator Loss During Training -->
    <g transform="translate(74.258125 25.43625) scale(0.24 -0.24)">
     <defs>
      <path id="DejaVuSans-47" d="M 3809 666 
L 3809 1919 
L 2778 1919 
L 2778 2438 
L 4434 2438 
L 4434 434 
Q 4069 175 3628 42 
Q 3188 -91 2688 -91 
Q 1594 -91 976 548 
Q 359 1188 359 2328 
Q 359 3472 976 4111 
Q 1594 4750 2688 4750 
Q 3144 4750 3555 4637 
Q 3966 4525 4313 4306 
L 4313 3634 
Q 3963 3931 3569 4081 
Q 3175 4231 2741 4231 
Q 1884 4231 1454 3753 
Q 1025 3275 1025 2328 
Q 1025 1384 1454 906 
Q 1884 428 2741 428 
Q 3075 428 3337 486 
Q 3600 544 3809 666 
z
" transform="scale(0.015625)"/>
      <path id="DejaVuSans-20" transform="scale(0.015625)"/>
      <path id="DejaVuSans-64" d="M 2906 2969 
L 2906 4863 
L 3481 4863 
L 3481 0 
L 2906 0 
L 2906 525 
Q 2725 213 2448 61 
Q 2172 -91 1784 -91 
Q 1150 -91 751 415 
Q 353 922 353 1747 
Q 353 2572 751 3078 
Q 1150 3584 1784 3584 
Q 2172 3584 2448 3432 
Q 2725 3281 2906 2969 
z
M 947 1747 
Q 947 1113 1208 752 
Q 1469 391 1925 391 
Q 2381 391 2643 752 
Q 2906 1113 2906 1747 
Q 2906 2381 2643 2742 
Q 2381 3103 1925 3103 
Q 1469 3103 1208 2742 
Q 947 2381 947 1747 
z
" transform="scale(0.015625)"/>
      <path id="DejaVuSans-44" d="M 1259 4147 
L 1259 519 
L 2022 519 
Q 2988 519 3436 956 
Q 3884 1394 3884 2338 
Q 3884 3275 3436 3711 
Q 2988 4147 2022 4147 
L 1259 4147 
z
M 628 4666 
L 1925 4666 
Q 3281 4666 3915 4102 
Q 4550 3538 4550 2338 
Q 4550 1131 3912 565 
Q 3275 0 1925 0 
L 628 0 
L 628 4666 
z
" transform="scale(0.015625)"/>
      <path id="DejaVuSans-63" d="M 3122 3366 
L 3122 2828 
Q 2878 2963 2633 3030 
Q 2388 3097 2138 3097 
Q 1578 3097 1268 2742 
Q 959 2388 959 1747 
Q 959 1106 1268 751 
Q 1578 397 2138 397 
Q 2388 397 2633 464 
Q 2878 531 3122 666 
L 3122 134 
Q 2881 22 2623 -34 
Q 2366 -91 2075 -91 
Q 1284 -91 818 406 
Q 353 903 353 1747 
Q 353 2603 823 3093 
Q 1294 3584 2113 3584 
Q 2378 3584 2631 3529 
Q 2884 3475 3122 3366 
z
" transform="scale(0.015625)"/>
      <path id="DejaVuSans-6d" d="M 3328 2828 
Q 3544 3216 3844 3400 
Q 4144 3584 4550 3584 
Q 5097 3584 5394 3201 
Q 5691 2819 5691 2113 
L 5691 0 
L 5113 0 
L 5113 2094 
Q 5113 2597 4934 2840 
Q 4756 3084 4391 3084 
Q 3944 3084 3684 2787 
Q 3425 2491 3425 1978 
L 3425 0 
L 2847 0 
L 2847 2094 
Q 2847 2600 2669 2842 
Q 2491 3084 2119 3084 
Q 1678 3084 1418 2786 
Q 1159 2488 1159 1978 
L 1159 0 
L 581 0 
L 581 3500 
L 1159 3500 
L 1159 2956 
Q 1356 3278 1631 3431 
Q 1906 3584 2284 3584 
Q 2666 3584 2933 3390 
Q 3200 3197 3328 2828 
z
" transform="scale(0.015625)"/>
      <path id="DejaVuSans-75" d="M 544 1381 
L 544 3500 
L 1119 3500 
L 1119 1403 
Q 1119 906 1312 657 
Q 1506 409 1894 409 
Q 2359 409 2629 706 
Q 2900 1003 2900 1516 
L 2900 3500 
L 3475 3500 
L 3475 0 
L 2900 0 
L 2900 538 
Q 2691 219 2414 64 
Q 2138 -91 1772 -91 
Q 1169 -91 856 284 
Q 544 659 544 1381 
z
M 1991 3584 
L 1991 3584 
z
" transform="scale(0.015625)"/>
      <path id="DejaVuSans-67" d="M 2906 1791 
Q 2906 2416 2648 2759 
Q 2391 3103 1925 3103 
Q 1463 3103 1205 2759 
Q 947 2416 947 1791 
Q 947 1169 1205 825 
Q 1463 481 1925 481 
Q 2391 481 2648 825 
Q 2906 1169 2906 1791 
z
M 3481 434 
Q 3481 -459 3084 -895 
Q 2688 -1331 1869 -1331 
Q 1566 -1331 1297 -1286 
Q 1028 -1241 775 -1147 
L 775 -588 
Q 1028 -725 1275 -790 
Q 1522 -856 1778 -856 
Q 2344 -856 2625 -561 
Q 2906 -266 2906 331 
L 2906 616 
Q 2728 306 2450 153 
Q 2172 0 1784 0 
Q 1141 0 747 490 
Q 353 981 353 1791 
Q 353 2603 747 3093 
Q 1141 3584 1784 3584 
Q 2172 3584 2450 3431 
Q 2728 3278 2906 2969 
L 2906 3500 
L 3481 3500 
L 3481 434 
z
" transform="scale(0.015625)"/>
      <path id="DejaVuSans-54" d="M -19 4666 
L 3928 4666 
L 3928 4134 
L 2272 4134 
L 2272 0 
L 1638 0 
L 1638 4134 
L -19 4134 
L -19 4666 
z
" transform="scale(0.015625)"/>
     </defs>
     <use xlink:href="#DejaVuSans-47"/>
     <use xlink:href="#DejaVuSans-65" x="77.490234"/>
     <use xlink:href="#DejaVuSans-6e" x="139.013672"/>
     <use xlink:href="#DejaVuSans-65" x="202.392578"/>
     <use xlink:href="#DejaVuSans-72" x="263.916016"/>
     <use xlink:href="#DejaVuSans-61" x="305.029297"/>
     <use xlink:href="#DejaVuSans-74" x="366.308594"/>
     <use xlink:href="#DejaVuSans-6f" x="405.517578"/>
     <use xlink:href="#DejaVuSans-72" x="466.699219"/>
     <use xlink:href="#DejaVuSans-20" x="507.8125"/>
     <use xlink:href="#DejaVuSans-61" x="539.599609"/>
     <use xlink:href="#DejaVuSans-6e" x="600.878906"/>
     <use xlink:href="#DejaVuSans-64" x="664.257812"/>
     <use xlink:href="#DejaVuSans-20" x="727.734375"/>
     <use xlink:href="#DejaVuSans-44" x="759.521484"/>
     <use xlink:href="#DejaVuSans-69" x="836.523438"/>
     <use xlink:href="#DejaVuSans-73" x="864.306641"/>
     <use xlink:href="#DejaVuSans-63" x="916.40625"/>
     <use xlink:href="#DejaVuSans-72" x="971.386719"/>
     <use xlink:href="#DejaVuSans-69" x="1012.5"/>
     <use xlink:href="#DejaVuSans-6d" x="1040.283203"/>
     <use xlink:href="#DejaVuSans-69" x="1137.695312"/>
     <use xlink:href="#DejaVuSans-6e" x="1165.478516"/>
     <use xlink:href="#DejaVuSans-61" x="1228.857422"/>
     <use xlink:href="#DejaVuSans-74" x="1290.136719"/>
     <use xlink:href="#DejaVuSans-6f" x="1329.345703"/>
     <use xlink:href="#DejaVuSans-72" x="1390.527344"/>
     <use xlink:href="#DejaVuSans-20" x="1431.640625"/>
     <use xlink:href="#DejaVuSans-4c" x="1463.427734"/>
     <use xlink:href="#DejaVuSans-6f" x="1517.390625"/>
     <use xlink:href="#DejaVuSans-73" x="1578.572266"/>
     <use xlink:href="#DejaVuSans-73" x="1630.671875"/>
     <use xlink:href="#DejaVuSans-20" x="1682.771484"/>
     <use xlink:href="#DejaVuSans-44" x="1714.558594"/>
     <use xlink:href="#DejaVuSans-75" x="1791.560547"/>
     <use xlink:href="#DejaVuSans-72" x="1854.939453"/>
     <use xlink:href="#DejaVuSans-69" x="1896.052734"/>
     <use xlink:href="#DejaVuSans-6e" x="1923.835938"/>
     <use xlink:href="#DejaVuSans-67" x="1987.214844"/>
     <use xlink:href="#DejaVuSans-20" x="2050.691406"/>
     <use xlink:href="#DejaVuSans-54" x="2082.478516"/>
     <use xlink:href="#DejaVuSans-72" x="2128.8125"/>
     <use xlink:href="#DejaVuSans-61" x="2169.925781"/>
     <use xlink:href="#DejaVuSans-69" x="2231.205078"/>
     <use xlink:href="#DejaVuSans-6e" x="2258.988281"/>
     <use xlink:href="#DejaVuSans-69" x="2322.367188"/>
     <use xlink:href="#DejaVuSans-6e" x="2350.150391"/>
     <use xlink:href="#DejaVuSans-67" x="2413.529297"/>
    </g>
   </g>
   <g id="legend_1">
    <g id="patch_7">
     <path d="M 556.99375 106.14875 
L 636.490625 106.14875 
Q 640.490625 106.14875 640.490625 102.14875 
L 640.490625 45.43625 
Q 640.490625 41.43625 636.490625 41.43625 
L 556.99375 41.43625 
Q 552.99375 41.43625 552.99375 45.43625 
L 552.99375 102.14875 
Q 552.99375 106.14875 556.99375 106.14875 
z
" style="fill: #ffffff; opacity: 0.8; stroke: #cccccc; stroke-linejoin: miter"/>
    </g>
    <g id="line2d_15">
     <path d="M 560.99375 57.633125 
L 580.99375 57.633125 
L 600.99375 57.633125 
" style="fill: none; stroke: #1f77b4; stroke-width: 1.5; stroke-linecap: square"/>
    </g>
    <g id="text_16">
     <!-- G -->
     <g transform="translate(616.99375 64.633125) scale(0.2 -0.2)">
      <use xlink:href="#DejaVuSans-47"/>
     </g>
    </g>
    <g id="line2d_16">
     <path d="M 560.99375 86.989375 
L 580.99375 86.989375 
L 600.99375 86.989375 
" style="fill: none; stroke: #ff7f0e; stroke-width: 1.5; stroke-linecap: square"/>
    </g>
    <g id="text_17">
     <!-- D -->
     <g transform="translate(616.99375 93.989375) scale(0.2 -0.2)">
      <use xlink:href="#DejaVuSans-44"/>
     </g>
    </g>
   </g>
  </g>
 </g>
 <defs>
  <clipPath id="pb0b2c4a659">
   <rect x="92.490625" y="31.43625" width="558" height="277.2"/>
  </clipPath>
 </defs>
</svg>
