<?xml version="1.0" encoding="utf-8" standalone="no"?>
<!DOCTYPE svg PUBLIC "-//W3C//DTD SVG 1.1//EN"
  "http://www.w3.org/Graphics/SVG/1.1/DTD/svg11.dtd">
<svg xmlns:xlink="http://www.w3.org/1999/xlink" width="675.923125pt" height="365.54875pt" viewBox="0 0 675.923125 365.54875" xmlns="http://www.w3.org/2000/svg" version="1.1">
 <metadata>
  <rdf:RDF xmlns:dc="http://purl.org/dc/elements/1.1/" xmlns:cc="http://creativecommons.org/ns#" xmlns:rdf="http://www.w3.org/1999/02/22-rdf-syntax-ns#">
   <cc:Work>
    <dc:type rdf:resource="http://purl.org/dc/dcmitype/StillImage"/>
    <dc:date>2024-02-12T18:31:45.440803</dc:date>
    <dc:format>image/svg+xml</dc:format>
    <dc:creator>
     <cc:Agent>
      <dc:title>Matplotlib v3.7.2, https://matplotlib.org/</dc:title>
     </cc:Agent>
    </dc:creator>
   </cc:Work>
  </rdf:RDF>
 </metadata>
 <defs>
  <style type="text/css">*{stroke-linejoin: round; stroke-linecap: butt}</style>
 </defs>
 <g id="figure_1">
  <g id="patch_1">
   <path d="M 0 365.54875 
L 675.923125 365.54875 
L 675.923125 -0 
L 0 -0 
z
" style="fill: #ffffff"/>
  </g>
  <g id="axes_1">
   <g id="patch_2">
    <path d="M 92.490625 308.63625 
L 650.490625 308.63625 
L 650.490625 31.43625 
L 92.490625 31.43625 
z
" style="fill: #ffffff"/>
   </g>
   <g id="matplotlib.axis_1">
    <g id="xtick_1">
     <g id="line2d_1">
      <defs>
       <path id="m4ed4cb7e34" d="M 0 0 
L 0 3.5 
" style="stroke: #000000; stroke-width: 0.8"/>
      </defs>
      <g>
       <use xlink:href="#m4ed4cb7e34" x="117.854261" y="308.63625" style="stroke: #000000; stroke-width: 0.8"/>
      </g>
     </g>
     <g id="text_1">
      <!-- 0 -->
      <g transform="translate(111.491761 330.833125) scale(0.2 -0.2)">
       <defs>
        <path id="DejaVuSans-30" d="M 2034 4250 
Q 1547 4250 1301 3770 
Q 1056 3291 1056 2328 
Q 1056 1369 1301 889 
Q 1547 409 2034 409 
Q 2525 409 2770 889 
Q 3016 1369 3016 2328 
Q 3016 3291 2770 3770 
Q 2525 4250 2034 4250 
z
M 2034 4750 
Q 2819 4750 3233 4129 
Q 3647 3509 3647 2328 
Q 3647 1150 3233 529 
Q 2819 -91 2034 -91 
Q 1250 -91 836 529 
Q 422 1150 422 2328 
Q 422 3509 836 4129 
Q 1250 4750 2034 4750 
z
" transform="scale(0.015625)"/>
       </defs>
       <use xlink:href="#DejaVuSans-30"/>
      </g>
     </g>
    </g>
    <g id="xtick_2">
     <g id="line2d_2">
      <g>
       <use xlink:href="#m4ed4cb7e34" x="230.581534" y="308.63625" style="stroke: #000000; stroke-width: 0.8"/>
      </g>
     </g>
     <g id="text_2">
      <!-- 100 -->
      <g transform="translate(211.494034 330.833125) scale(0.2 -0.2)">
       <defs>
        <path id="DejaVuSans-31" d="M 794 531 
L 1825 531 
L 1825 4091 
L 703 3866 
L 703 4441 
L 1819 4666 
L 2450 4666 
L 2450 531 
L 3481 531 
L 3481 0 
L 794 0 
L 794 531 
z
" transform="scale(0.015625)"/>
       </defs>
       <use xlink:href="#DejaVuSans-31"/>
       <use xlink:href="#DejaVuSans-30" x="63.623047"/>
       <use xlink:href="#DejaVuSans-30" x="127.246094"/>
      </g>
     </g>
    </g>
    <g id="xtick_3">
     <g id="line2d_3">
      <g>
       <use xlink:href="#m4ed4cb7e34" x="343.308807" y="308.63625" style="stroke: #000000; stroke-width: 0.8"/>
      </g>
     </g>
     <g id="text_3">
      <!-- 200 -->
      <g transform="translate(324.221307 330.833125) scale(0.2 -0.2)">
       <defs>
        <path id="DejaVuSans-32" d="M 1228 531 
L 3431 531 
L 3431 0 
L 469 0 
L 469 531 
Q 828 903 1448 1529 
Q 2069 2156 2228 2338 
Q 2531 2678 2651 2914 
Q 2772 3150 2772 3378 
Q 2772 3750 2511 3984 
Q 2250 4219 1831 4219 
Q 1534 4219 1204 4116 
Q 875 4013 500 3803 
L 500 4441 
Q 881 4594 1212 4672 
Q 1544 4750 1819 4750 
Q 2544 4750 2975 4387 
Q 3406 4025 3406 3419 
Q 3406 3131 3298 2873 
Q 3191 2616 2906 2266 
Q 2828 2175 2409 1742 
Q 1991 1309 1228 531 
z
" transform="scale(0.015625)"/>
       </defs>
       <use xlink:href="#DejaVuSans-32"/>
       <use xlink:href="#DejaVuSans-30" x="63.623047"/>
       <use xlink:href="#DejaVuSans-30" x="127.246094"/>
      </g>
     </g>
    </g>
    <g id="xtick_4">
     <g id="line2d_4">
      <g>
       <use xlink:href="#m4ed4cb7e34" x="456.03608" y="308.63625" style="stroke: #000000; stroke-width: 0.8"/>
      </g>
     </g>
     <g id="text_4">
      <!-- 300 -->
      <g transform="translate(436.94858 330.833125) scale(0.2 -0.2)">
       <defs>
        <path id="DejaVuSans-33" d="M 2597 2516 
Q 3050 2419 3304 2112 
Q 3559 1806 3559 1356 
Q 3559 666 3084 287 
Q 2609 -91 1734 -91 
Q 1441 -91 1130 -33 
Q 819 25 488 141 
L 488 750 
Q 750 597 1062 519 
Q 1375 441 1716 441 
Q 2309 441 2620 675 
Q 2931 909 2931 1356 
Q 2931 1769 2642 2001 
Q 2353 2234 1838 2234 
L 1294 2234 
L 1294 2753 
L 1863 2753 
Q 2328 2753 2575 2939 
Q 2822 3125 2822 3475 
Q 2822 3834 2567 4026 
Q 2313 4219 1838 4219 
Q 1578 4219 1281 4162 
Q 984 4106 628 3988 
L 628 4550 
Q 988 4650 1302 4700 
Q 1616 4750 1894 4750 
Q 2613 4750 3031 4423 
Q 3450 4097 3450 3541 
Q 3450 3153 3228 2886 
Q 3006 2619 2597 2516 
z
" transform="scale(0.015625)"/>
       </defs>
       <use xlink:href="#DejaVuSans-33"/>
       <use xlink:href="#DejaVuSans-30" x="63.623047"/>
       <use xlink:href="#DejaVuSans-30" x="127.246094"/>
      </g>
     </g>
    </g>
    <g id="xtick_5">
     <g id="line2d_5">
      <g>
       <use xlink:href="#m4ed4cb7e34" x="568.763352" y="308.63625" style="stroke: #000000; stroke-width: 0.8"/>
      </g>
     </g>
     <g id="text_5">
      <!-- 400 -->
      <g transform="translate(549.675852 330.833125) scale(0.2 -0.2)">
       <defs>
        <path id="DejaVuSans-34" d="M 2419 4116 
L 825 1625 
L 2419 1625 
L 2419 4116 
z
M 2253 4666 
L 3047 4666 
L 3047 1625 
L 3713 1625 
L 3713 1100 
L 3047 1100 
L 3047 0 
L 2419 0 
L 2419 1100 
L 313 1100 
L 313 1709 
L 2253 4666 
z
" transform="scale(0.015625)"/>
       </defs>
       <use xlink:href="#DejaVuSans-34"/>
       <use xlink:href="#DejaVuSans-30" x="63.623047"/>
       <use xlink:href="#DejaVuSans-30" x="127.246094"/>
      </g>
     </g>
    </g>
    <g id="text_6">
     <!-- iterations -->
     <g transform="translate(324.035938 354.189375) scale(0.2 -0.2)">
      <defs>
       <path id="DejaVuSans-69" d="M 603 3500 
L 1178 3500 
L 1178 0 
L 603 0 
L 603 3500 
z
M 603 4863 
L 1178 4863 
L 1178 4134 
L 603 4134 
L 603 4863 
z
" transform="scale(0.015625)"/>
       <path id="DejaVuSans-74" d="M 1172 4494 
L 1172 3500 
L 2356 3500 
L 2356 3053 
L 1172 3053 
L 1172 1153 
Q 1172 725 1289 603 
Q 1406 481 1766 481 
L 2356 481 
L 2356 0 
L 1766 0 
Q 1100 0 847 248 
Q 594 497 594 1153 
L 594 3053 
L 172 3053 
L 172 3500 
L 594 3500 
L 594 4494 
L 1172 4494 
z
" transform="scale(0.015625)"/>
       <path id="DejaVuSans-65" d="M 3597 1894 
L 3597 1613 
L 953 1613 
Q 991 1019 1311 708 
Q 1631 397 2203 397 
Q 2534 397 2845 478 
Q 3156 559 3463 722 
L 3463 178 
Q 3153 47 2828 -22 
Q 2503 -91 2169 -91 
Q 1331 -91 842 396 
Q 353 884 353 1716 
Q 353 2575 817 3079 
Q 1281 3584 2069 3584 
Q 2775 3584 3186 3129 
Q 3597 2675 3597 1894 
z
M 3022 2063 
Q 3016 2534 2758 2815 
Q 2500 3097 2075 3097 
Q 1594 3097 1305 2825 
Q 1016 2553 972 2059 
L 3022 2063 
z
" transform="scale(0.015625)"/>
       <path id="DejaVuSans-72" d="M 2631 2963 
Q 2534 3019 2420 3045 
Q 2306 3072 2169 3072 
Q 1681 3072 1420 2755 
Q 1159 2438 1159 1844 
L 1159 0 
L 581 0 
L 581 3500 
L 1159 3500 
L 1159 2956 
Q 1341 3275 1631 3429 
Q 1922 3584 2338 3584 
Q 2397 3584 2469 3576 
Q 2541 3569 2628 3553 
L 2631 2963 
z
" transform="scale(0.015625)"/>
       <path id="DejaVuSans-61" d="M 2194 1759 
Q 1497 1759 1228 1600 
Q 959 1441 959 1056 
Q 959 750 1161 570 
Q 1363 391 1709 391 
Q 2188 391 2477 730 
Q 2766 1069 2766 1631 
L 2766 1759 
L 2194 1759 
z
M 3341 1997 
L 3341 0 
L 2766 0 
L 2766 531 
Q 2569 213 2275 61 
Q 1981 -91 1556 -91 
Q 1019 -91 701 211 
Q 384 513 384 1019 
Q 384 1609 779 1909 
Q 1175 2209 1959 2209 
L 2766 2209 
L 2766 2266 
Q 2766 2663 2505 2880 
Q 2244 3097 1772 3097 
Q 1472 3097 1187 3025 
Q 903 2953 641 2809 
L 641 3341 
Q 956 3463 1253 3523 
Q 1550 3584 1831 3584 
Q 2591 3584 2966 3190 
Q 3341 2797 3341 1997 
z
" transform="scale(0.015625)"/>
       <path id="DejaVuSans-6f" d="M 1959 3097 
Q 1497 3097 1228 2736 
Q 959 2375 959 1747 
Q 959 1119 1226 758 
Q 1494 397 1959 397 
Q 2419 397 2687 759 
Q 2956 1122 2956 1747 
Q 2956 2369 2687 2733 
Q 2419 3097 1959 3097 
z
M 1959 3584 
Q 2709 3584 3137 3096 
Q 3566 2609 3566 1747 
Q 3566 888 3137 398 
Q 2709 -91 1959 -91 
Q 1206 -91 779 398 
Q 353 888 353 1747 
Q 353 2609 779 3096 
Q 1206 3584 1959 3584 
z
" transform="scale(0.015625)"/>
       <path id="DejaVuSans-6e" d="M 3513 2113 
L 3513 0 
L 2938 0 
L 2938 2094 
Q 2938 2591 2744 2837 
Q 2550 3084 2163 3084 
Q 1697 3084 1428 2787 
Q 1159 2491 1159 1978 
L 1159 0 
L 581 0 
L 581 3500 
L 1159 3500 
L 1159 2956 
Q 1366 3272 1645 3428 
Q 1925 3584 2291 3584 
Q 2894 3584 3203 3211 
Q 3513 2838 3513 2113 
z
" transform="scale(0.015625)"/>
       <path id="DejaVuSans-73" d="M 2834 3397 
L 2834 2853 
Q 2591 2978 2328 3040 
Q 2066 3103 1784 3103 
Q 1356 3103 1142 2972 
Q 928 2841 928 2578 
Q 928 2378 1081 2264 
Q 1234 2150 1697 2047 
L 1894 2003 
Q 2506 1872 2764 1633 
Q 3022 1394 3022 966 
Q 3022 478 2636 193 
Q 2250 -91 1575 -91 
Q 1294 -91 989 -36 
Q 684 19 347 128 
L 347 722 
Q 666 556 975 473 
Q 1284 391 1588 391 
Q 1994 391 2212 530 
Q 2431 669 2431 922 
Q 2431 1156 2273 1281 
Q 2116 1406 1581 1522 
L 1381 1569 
Q 847 1681 609 1914 
Q 372 2147 372 2553 
Q 372 3047 722 3315 
Q 1072 3584 1716 3584 
Q 2034 3584 2315 3537 
Q 2597 3491 2834 3397 
z
" transform="scale(0.015625)"/>
      </defs>
      <use xlink:href="#DejaVuSans-69"/>
      <use xlink:href="#DejaVuSans-74" x="27.783203"/>
      <use xlink:href="#DejaVuSans-65" x="66.992188"/>
      <use xlink:href="#DejaVuSans-72" x="128.515625"/>
      <use xlink:href="#DejaVuSans-61" x="169.628906"/>
      <use xlink:href="#DejaVuSans-74" x="230.908203"/>
      <use xlink:href="#DejaVuSans-69" x="270.117188"/>
      <use xlink:href="#DejaVuSans-6f" x="297.900391"/>
      <use xlink:href="#DejaVuSans-6e" x="359.082031"/>
      <use xlink:href="#DejaVuSans-73" x="422.460938"/>
     </g>
    </g>
   </g>
   <g id="matplotlib.axis_2">
    <g id="ytick_1">
     <g id="line2d_6">
      <defs>
       <path id="mb0723f2ddd" d="M 0 0 
L -3.5 0 
" style="stroke: #000000; stroke-width: 0.8"/>
      </defs>
      <g>
       <use xlink:href="#mb0723f2ddd" x="92.490625" y="287.754235" style="stroke: #000000; stroke-width: 0.8"/>
      </g>
     </g>
     <g id="text_7">
      <!-- −200 -->
      <g transform="translate(30.55625 295.352672) scale(0.2 -0.2)">
       <defs>
        <path id="DejaVuSans-2212" d="M 678 2272 
L 4684 2272 
L 4684 1741 
L 678 1741 
L 678 2272 
z
" transform="scale(0.015625)"/>
       </defs>
       <use xlink:href="#DejaVuSans-2212"/>
       <use xlink:href="#DejaVuSans-32" x="83.789062"/>
       <use xlink:href="#DejaVuSans-30" x="147.412109"/>
       <use xlink:href="#DejaVuSans-30" x="211.035156"/>
      </g>
     </g>
    </g>
    <g id="ytick_2">
     <g id="line2d_7">
      <g>
       <use xlink:href="#mb0723f2ddd" x="92.490625" y="227.578386" style="stroke: #000000; stroke-width: 0.8"/>
      </g>
     </g>
     <g id="text_8">
      <!-- −100 -->
      <g transform="translate(30.55625 235.176823) scale(0.2 -0.2)">
       <use xlink:href="#DejaVuSans-2212"/>
       <use xlink:href="#DejaVuSans-31" x="83.789062"/>
       <use xlink:href="#DejaVuSans-30" x="147.412109"/>
       <use xlink:href="#DejaVuSans-30" x="211.035156"/>
      </g>
     </g>
    </g>
    <g id="ytick_3">
     <g id="line2d_8">
      <g>
       <use xlink:href="#mb0723f2ddd" x="92.490625" y="167.402537" style="stroke: #000000; stroke-width: 0.8"/>
      </g>
     </g>
     <g id="text_9">
      <!-- 0 -->
      <g transform="translate(72.765625 175.000974) scale(0.2 -0.2)">
       <use xlink:href="#DejaVuSans-30"/>
      </g>
     </g>
    </g>
    <g id="ytick_4">
     <g id="line2d_9">
      <g>
       <use xlink:href="#mb0723f2ddd" x="92.490625" y="107.226688" style="stroke: #000000; stroke-width: 0.8"/>
      </g>
     </g>
     <g id="text_10">
      <!-- 100 -->
      <g transform="translate(47.315625 114.825125) scale(0.2 -0.2)">
       <use xlink:href="#DejaVuSans-31"/>
       <use xlink:href="#DejaVuSans-30" x="63.623047"/>
       <use xlink:href="#DejaVuSans-30" x="127.246094"/>
      </g>
     </g>
    </g>
    <g id="ytick_5">
     <g id="line2d_10">
      <g>
       <use xlink:href="#mb0723f2ddd" x="92.490625" y="47.050838" style="stroke: #000000; stroke-width: 0.8"/>
      </g>
     </g>
     <g id="text_11">
      <!-- 200 -->
      <g transform="translate(47.315625 54.649276) scale(0.2 -0.2)">
       <use xlink:href="#DejaVuSans-32"/>
       <use xlink:href="#DejaVuSans-30" x="63.623047"/>
       <use xlink:href="#DejaVuSans-30" x="127.246094"/>
      </g>
     </g>
    </g>
    <g id="text_12">
     <!-- Loss -->
     <g transform="translate(22.396875 191.970625) rotate(-90) scale(0.2 -0.2)">
      <defs>
       <path id="DejaVuSans-4c" d="M 628 4666 
L 1259 4666 
L 1259 531 
L 3531 531 
L 3531 0 
L 628 0 
L 628 4666 
z
" transform="scale(0.015625)"/>
      </defs>
      <use xlink:href="#DejaVuSans-4c"/>
      <use xlink:href="#DejaVuSans-6f" x="53.962891"/>
      <use xlink:href="#DejaVuSans-73" x="115.144531"/>
      <use xlink:href="#DejaVuSans-73" x="167.244141"/>
     </g>
    </g>
   </g>
   <g id="line2d_11">
    <path d="M 117.854261 138.53853 
L 118.981534 97.982964 
L 120.108807 117.083744 
L 121.23608 121.777179 
L 122.363352 104.43596 
L 123.490625 128.019774 
L 124.617898 117.918638 
L 125.74517 99.792773 
L 126.872443 123.303136 
L 127.999716 113.920019 
L 129.126989 107.215809 
L 130.254261 54.185175 
L 131.381534 44.586844 
L 132.508807 50.208405 
L 133.63608 65.431701 
L 134.763352 52.62134 
L 135.890625 44.03625 
L 137.017898 47.425516 
L 138.14517 53.255988 
L 139.272443 62.20203 
L 140.399716 54.058702 
L 141.526989 59.456177 
L 142.654261 109.140656 
L 143.781534 94.805897 
L 144.908807 87.78307 
L 146.03608 75.133855 
L 147.163352 98.959252 
L 148.290625 90.513457 
L 149.417898 91.353551 
L 150.54517 94.307751 
L 151.672443 99.862324 
L 152.799716 94.958193 
L 153.926989 93.356455 
L 156.181534 79.768648 
L 157.308807 81.625829 
L 158.43608 87.639335 
L 159.563352 98.247788 
L 160.690625 97.025522 
L 161.817898 100.470922 
L 162.94517 94.009915 
L 164.072443 108.302296 
L 165.199716 106.746361 
L 166.326989 111.813688 
L 167.454261 111.321942 
L 168.581534 109.609667 
L 169.708807 111.732825 
L 170.83608 115.285706 
L 173.090625 121.128737 
L 174.217898 118.243637 
L 175.34517 122.939672 
L 176.472443 114.006144 
L 177.599716 113.402414 
L 178.726989 118.336942 
L 179.854261 126.247555 
L 180.981534 117.705982 
L 182.108807 118.938384 
L 183.23608 115.501875 
L 184.363352 121.08746 
L 185.490625 119.267918 
L 186.617898 128.786107 
L 187.74517 128.140582 
L 188.872443 126.980209 
L 189.999716 127.736057 
L 191.126989 119.824596 
L 192.254261 123.041682 
L 193.381534 125.22985 
L 194.508807 132.060951 
L 195.63608 127.742292 
L 196.763352 128.726967 
L 197.890625 132.552166 
L 199.017898 126.842327 
L 200.14517 124.849238 
L 201.272443 134.387408 
L 202.399716 128.837998 
L 203.526989 132.134935 
L 204.654261 123.78468 
L 205.781534 132.616752 
L 206.908807 133.362101 
L 208.03608 130.522423 
L 209.163352 132.295449 
L 210.290625 130.881563 
L 211.417898 130.761392 
L 212.54517 136.851809 
L 213.672443 133.13345 
L 214.799716 136.862142 
L 215.926989 132.687554 
L 217.054261 136.323725 
L 218.181534 132.024156 
L 219.308807 135.651823 
L 220.43608 134.503783 
L 221.563352 138.447324 
L 222.690625 140.302657 
L 223.817898 137.326201 
L 224.94517 135.530543 
L 226.072443 133.290565 
L 227.199716 132.866831 
L 228.326989 142.596344 
L 229.454261 144.986145 
L 231.708807 140.610362 
L 232.83608 141.500038 
L 233.963352 143.686115 
L 235.090625 140.210455 
L 236.217898 143.748127 
L 237.34517 145.84987 
L 238.472443 147.376432 
L 239.599716 144.567206 
L 240.726989 148.385484 
L 241.854261 146.372494 
L 242.981534 149.177832 
L 244.108807 150.583748 
L 245.23608 151.428518 
L 246.363352 151.65227 
L 247.490625 153.806823 
L 248.617898 151.359519 
L 249.74517 149.66105 
L 250.872443 150.094058 
L 251.999716 153.424061 
L 253.126989 153.379319 
L 254.254261 152.68978 
L 255.381534 148.221893 
L 256.508807 149.94797 
L 257.63608 150.801801 
L 258.763352 149.496023 
L 259.890625 153.426297 
L 261.017898 148.701191 
L 262.14517 155.673158 
L 263.272443 152.270783 
L 264.399716 152.812434 
L 265.526989 151.283283 
L 266.654261 151.61941 
L 267.781534 149.972005 
L 268.908807 149.445184 
L 270.03608 150.678389 
L 271.163352 153.782528 
L 272.290625 152.701329 
L 273.417898 150.58121 
L 274.54517 153.449759 
L 275.672443 152.054885 
L 279.054261 149.175368 
L 280.181534 152.92116 
L 281.308807 154.821874 
L 282.43608 154.122896 
L 283.563352 154.659618 
L 284.690625 154.935823 
L 285.817898 150.153039 
L 286.94517 153.838236 
L 288.072443 152.87849 
L 289.199716 156.117978 
L 290.326989 154.618691 
L 291.454261 155.286374 
L 292.581534 155.509007 
L 293.708807 155.203361 
L 294.83608 155.733462 
L 295.963352 154.610605 
L 297.090625 156.868743 
L 298.217898 155.78001 
L 299.34517 154.86685 
L 300.472443 155.846898 
L 301.599716 155.5618 
L 302.726989 154.291763 
L 303.854261 156.186717 
L 304.981534 156.244531 
L 306.108807 155.715934 
L 307.23608 155.403453 
L 308.363352 155.782756 
L 309.490625 155.993486 
L 310.617898 155.337442 
L 311.74517 155.619744 
L 312.872443 156.597801 
L 313.999716 157.322453 
L 315.126989 156.929476 
L 316.254261 155.284185 
L 317.381534 157.053882 
L 318.508807 154.679929 
L 319.63608 157.291986 
L 320.763352 156.903158 
L 321.890625 157.112578 
L 323.017898 157.98179 
L 324.14517 158.666323 
L 325.272443 157.140524 
L 326.399716 157.121308 
L 327.526989 158.853463 
L 328.654261 159.363312 
L 329.781534 158.407733 
L 330.908807 158.277547 
L 332.03608 158.768124 
L 334.290625 159.348091 
L 335.417898 158.40205 
L 336.54517 158.776583 
L 337.672443 157.259794 
L 338.799716 157.809901 
L 339.926989 157.905638 
L 341.054261 160.304648 
L 342.181534 159.27558 
L 343.308807 160.198122 
L 344.43608 158.222625 
L 345.563352 158.653634 
L 346.690625 158.487327 
L 347.817898 158.747868 
L 348.94517 158.790748 
L 350.072443 157.779227 
L 351.199716 158.195876 
L 352.326989 158.768348 
L 353.454261 157.9548 
L 354.581534 158.883566 
L 355.708807 159.266435 
L 356.83608 158.167248 
L 357.963352 157.931008 
L 359.090625 157.269122 
L 361.34517 159.245639 
L 363.599716 159.591384 
L 364.726989 158.906913 
L 365.854261 157.982647 
L 366.981534 158.460905 
L 368.108807 158.242813 
L 369.23608 157.491546 
L 370.363352 158.890922 
L 371.490625 159.897972 
L 372.617898 159.522708 
L 373.74517 158.755006 
L 374.872443 160.102913 
L 377.126989 159.911868 
L 378.254261 158.428562 
L 379.381534 158.256503 
L 380.508807 159.280037 
L 382.763352 160.39327 
L 383.890625 160.666388 
L 386.14517 158.531589 
L 387.272443 160.376333 
L 388.399716 159.592961 
L 389.526989 159.596836 
L 390.654261 158.212775 
L 391.781534 158.965149 
L 392.908807 160.221803 
L 394.03608 160.554096 
L 395.163352 160.234987 
L 396.290625 159.189843 
L 398.54517 158.4345 
L 399.672443 159.29536 
L 400.799716 159.86907 
L 401.926989 159.834532 
L 403.054261 160.239757 
L 404.181534 160.513438 
L 405.308807 160.132619 
L 406.43608 160.426465 
L 407.563352 160.383222 
L 408.690625 159.592069 
L 409.817898 160.667174 
L 410.94517 159.239572 
L 412.072443 161.504711 
L 413.199716 160.711068 
L 414.326989 160.321193 
L 415.454261 160.334656 
L 416.581534 160.4783 
L 417.708807 160.244258 
L 418.83608 160.241173 
L 419.963352 160.039621 
L 423.34517 158.951886 
L 424.472443 159.1988 
L 425.599716 159.780806 
L 426.726989 159.367018 
L 427.854261 158.507879 
L 428.981534 158.913263 
L 430.108807 158.653872 
L 431.23608 158.552491 
L 432.363352 159.409902 
L 433.490625 159.175904 
L 434.617898 158.624938 
L 435.74517 158.816385 
L 436.872443 158.893202 
L 439.126989 160.264354 
L 440.254261 160.201945 
L 442.508807 158.650772 
L 443.63608 159.288537 
L 444.763352 160.520795 
L 445.890625 160.457279 
L 448.14517 158.257941 
L 449.272443 158.619133 
L 450.399716 159.745309 
L 451.526989 159.48481 
L 452.654261 159.978303 
L 453.781534 159.720556 
L 454.908807 159.612132 
L 456.03608 159.841911 
L 458.290625 160.510643 
L 460.54517 159.110659 
L 461.672443 159.040226 
L 462.799716 158.709458 
L 463.926989 159.419005 
L 465.054261 159.173452 
L 466.181534 159.518919 
L 467.308807 158.566461 
L 469.563352 159.499792 
L 471.817898 158.586841 
L 472.94517 158.811935 
L 474.072443 159.308052 
L 475.199716 158.76162 
L 476.326989 157.928456 
L 477.454261 158.267043 
L 478.581534 158.073122 
L 479.708807 158.023908 
L 483.090625 159.418039 
L 484.217898 159.162644 
L 485.34517 158.305005 
L 486.472443 158.181522 
L 487.599716 158.871983 
L 488.726989 158.207984 
L 489.854261 158.920037 
L 490.981534 158.307508 
L 492.108807 158.614952 
L 493.23608 157.895699 
L 494.363352 158.923532 
L 495.490625 158.600683 
L 496.617898 159.982429 
L 497.74517 158.452746 
L 498.872443 158.364598 
L 499.999716 158.53182 
L 501.126989 158.447831 
L 502.254261 159.631004 
L 503.381534 158.702739 
L 505.63608 158.844423 
L 506.763352 158.261884 
L 509.017898 158.876161 
L 510.14517 158.704879 
L 511.272443 158.966426 
L 512.399716 159.070848 
L 513.526989 159.870111 
L 514.654261 159.975019 
L 515.781534 160.596646 
L 516.908807 159.037911 
L 518.03608 159.577581 
L 519.163352 159.919207 
L 520.290625 159.970316 
L 521.417898 160.525837 
L 522.54517 159.82942 
L 523.672443 160.372563 
L 524.799716 160.469565 
L 525.926989 160.440517 
L 527.054261 160.545118 
L 528.181534 161.243255 
L 530.43608 161.95244 
L 531.563352 161.344446 
L 532.690625 162.230849 
L 533.817898 160.694473 
L 534.94517 161.529689 
L 536.072443 161.958084 
L 537.199716 161.981839 
L 538.326989 161.531251 
L 539.454261 162.091559 
L 540.581534 161.080496 
L 541.708807 161.420721 
L 542.83608 161.219607 
L 543.963352 162.599384 
L 545.090625 163.802467 
L 546.217898 163.544163 
L 547.34517 162.374592 
L 548.472443 162.509576 
L 549.599716 163.184545 
L 550.726989 162.450438 
L 554.108807 161.216576 
L 555.23608 161.664394 
L 556.363352 161.362429 
L 557.490625 162.075806 
L 558.617898 161.102878 
L 559.74517 163.051107 
L 560.872443 162.817614 
L 561.999716 162.946267 
L 564.254261 162.763962 
L 565.381534 162.839012 
L 566.508807 162.000619 
L 567.63608 162.598769 
L 568.763352 162.378559 
L 569.890625 163.076137 
L 571.017898 162.571522 
L 572.14517 162.729478 
L 573.272443 162.590982 
L 574.399716 162.127056 
L 575.526989 163.018755 
L 576.654261 161.84957 
L 577.781534 162.625888 
L 578.908807 162.543089 
L 580.03608 163.183865 
L 581.163352 162.865179 
L 584.54517 162.964571 
L 585.672443 163.003534 
L 586.799716 161.98191 
L 587.926989 161.799897 
L 589.054261 163.497794 
L 590.181534 162.761521 
L 591.308807 162.260124 
L 592.43608 161.52673 
L 593.563352 162.915428 
L 594.690625 163.518571 
L 595.817898 163.511122 
L 596.94517 163.779869 
L 599.199716 163.292074 
L 600.326989 163.261754 
L 601.454261 164.209916 
L 604.83608 164.29926 
L 605.963352 163.883719 
L 607.090625 164.214976 
L 608.217898 163.611439 
L 609.34517 163.50855 
L 610.472443 163.619804 
L 611.599716 163.517998 
L 612.726989 163.762633 
L 613.854261 163.682833 
L 614.981534 163.927672 
L 616.108807 162.938326 
L 617.23608 163.558524 
L 618.363352 163.570411 
L 619.490625 162.838417 
L 620.617898 163.419215 
L 621.74517 163.034187 
L 622.872443 163.560597 
L 623.999716 162.974609 
L 625.126989 163.22759 
L 625.126989 163.22759 
" clip-path="url(#pf9a1a50045)" style="fill: none; stroke: #1f77b4; stroke-width: 1.5; stroke-linecap: square"/>
   </g>
   <g id="line2d_12">
    <path d="M 117.854261 296.03625 
L 120.108807 219.200503 
L 121.23608 230.492934 
L 122.363352 238.645685 
L 123.490625 213.261152 
L 124.617898 212.54875 
L 125.74517 215.076811 
L 126.872443 205.598168 
L 127.999716 212.181319 
L 129.126989 226.669107 
L 130.254261 212.802004 
L 131.381534 196.212776 
L 132.508807 194.413947 
L 133.63608 194.780619 
L 134.763352 201.832737 
L 135.890625 195.235904 
L 137.017898 196.378027 
L 138.14517 194.532246 
L 139.272443 194.186848 
L 140.399716 195.502642 
L 141.526989 184.213625 
L 142.654261 181.165058 
L 144.908807 182.194952 
L 146.03608 186.091654 
L 147.163352 177.656689 
L 148.290625 180.557306 
L 149.417898 182.010728 
L 150.54517 182.333157 
L 151.672443 181.694365 
L 152.799716 181.32096 
L 153.926989 182.390077 
L 155.054261 183.960668 
L 156.181534 184.431872 
L 157.308807 183.194059 
L 158.43608 180.438406 
L 159.563352 181.145129 
L 160.690625 183.060858 
L 161.817898 181.048282 
L 162.94517 180.679822 
L 164.072443 178.011528 
L 166.326989 178.090941 
L 167.454261 178.969227 
L 168.581534 181.172561 
L 169.708807 178.870422 
L 170.83608 177.393865 
L 171.963352 177.781811 
L 173.090625 178.351291 
L 174.217898 176.208669 
L 175.34517 177.343197 
L 176.472443 177.985098 
L 177.599716 180.055569 
L 178.726989 176.730227 
L 179.854261 176.248777 
L 180.981534 179.231779 
L 182.108807 177.708572 
L 183.23608 177.030424 
L 184.363352 176.664959 
L 185.490625 177.691265 
L 186.617898 176.119124 
L 187.74517 176.160455 
L 188.872443 176.32796 
L 189.999716 176.294541 
L 191.126989 177.635459 
L 193.381534 175.798741 
L 194.508807 174.709478 
L 195.63608 176.153952 
L 196.763352 175.127327 
L 197.890625 173.767497 
L 199.017898 175.460951 
L 200.14517 176.586489 
L 201.272443 176.4194 
L 202.399716 177.261133 
L 203.526989 174.063869 
L 204.654261 178.121447 
L 205.781534 174.604464 
L 208.03608 174.564015 
L 209.163352 174.107088 
L 210.290625 175.394572 
L 211.417898 174.377249 
L 212.54517 173.690661 
L 213.672443 174.735638 
L 214.799716 174.466004 
L 215.926989 173.763776 
L 217.054261 174.487707 
L 219.308807 173.128249 
L 220.43608 173.783378 
L 221.563352 172.877454 
L 222.690625 174.449639 
L 223.817898 174.136157 
L 224.94517 174.131147 
L 226.072443 174.543099 
L 227.199716 174.151772 
L 228.326989 171.716959 
L 229.454261 172.428133 
L 231.708807 173.551442 
L 232.83608 171.414805 
L 233.963352 172.531184 
L 236.217898 173.528479 
L 237.34517 174.667006 
L 238.472443 172.879212 
L 239.599716 174.079173 
L 240.726989 174.417489 
L 242.981534 173.861619 
L 244.108807 174.307226 
L 245.23608 172.468632 
L 246.363352 173.093585 
L 248.617898 171.328881 
L 249.74517 172.522737 
L 250.872443 173.248832 
L 251.999716 173.248455 
L 253.126989 172.722076 
L 254.254261 173.191447 
L 255.381534 171.575761 
L 256.508807 171.514487 
L 257.63608 172.497564 
L 258.763352 172.614868 
L 259.890625 172.527716 
L 261.017898 172.901462 
L 262.14517 171.798656 
L 263.272443 172.17445 
L 264.399716 171.36876 
L 265.526989 171.860114 
L 266.654261 172.065286 
L 267.781534 172.853624 
L 268.908807 172.279056 
L 270.03608 172.345809 
L 271.163352 171.40709 
L 273.417898 173.281889 
L 274.54517 171.6027 
L 275.672443 171.572991 
L 276.799716 172.788874 
L 277.926989 173.126234 
L 279.054261 172.833694 
L 280.181534 172.21413 
L 281.308807 173.023502 
L 282.43608 173.20008 
L 283.563352 172.111453 
L 284.690625 172.345466 
L 285.817898 173.241511 
L 286.94517 173.382747 
L 288.072443 171.305869 
L 289.199716 172.329936 
L 290.326989 172.906326 
L 291.454261 172.161376 
L 292.581534 172.618973 
L 293.708807 172.868546 
L 294.83608 172.178703 
L 295.963352 172.386805 
L 297.090625 171.756797 
L 298.217898 172.613199 
L 299.34517 172.735791 
L 300.472443 171.651542 
L 301.599716 171.944659 
L 302.726989 171.896408 
L 303.854261 172.235164 
L 307.23608 172.841949 
L 308.363352 171.593369 
L 309.490625 172.130366 
L 310.617898 172.372364 
L 311.74517 172.074754 
L 312.872443 171.556562 
L 313.999716 172.602379 
L 315.126989 171.34686 
L 316.254261 171.920515 
L 317.381534 171.527562 
L 318.508807 173.732855 
L 319.63608 171.742232 
L 320.763352 172.010685 
L 321.890625 171.679803 
L 323.017898 172.867061 
L 324.14517 172.121979 
L 325.272443 172.252688 
L 326.399716 171.634923 
L 327.526989 171.196761 
L 328.654261 171.68482 
L 329.781534 171.334027 
L 332.03608 171.732382 
L 333.163352 171.046097 
L 334.290625 171.840605 
L 335.417898 171.338442 
L 337.672443 171.274296 
L 338.799716 171.527496 
L 339.926989 171.463002 
L 342.181534 171.714048 
L 343.308807 171.527779 
L 344.43608 171.971782 
L 345.563352 171.808757 
L 346.690625 171.239484 
L 347.817898 171.712659 
L 348.94517 171.35515 
L 350.072443 171.253456 
L 351.199716 170.952888 
L 352.326989 171.26288 
L 353.454261 171.751968 
L 354.581534 171.851963 
L 355.708807 171.325347 
L 356.83608 171.013635 
L 360.217898 171.590286 
L 361.34517 171.297249 
L 362.472443 171.551686 
L 364.726989 170.870277 
L 365.854261 170.951387 
L 366.981534 170.706756 
L 368.108807 172.011226 
L 369.23608 171.562232 
L 370.363352 171.393369 
L 371.490625 170.624929 
L 372.617898 170.80561 
L 373.74517 171.546023 
L 377.126989 170.643849 
L 378.254261 171.28086 
L 379.381534 170.960326 
L 380.508807 170.393007 
L 381.63608 171.235045 
L 383.890625 170.199702 
L 385.017898 170.694318 
L 386.14517 171.399415 
L 387.272443 171.077521 
L 388.399716 171.099076 
L 389.526989 170.871475 
L 390.654261 172.392286 
L 391.781534 172.26415 
L 392.908807 171.124406 
L 396.290625 171.044001 
L 397.417898 171.602959 
L 398.54517 171.166176 
L 400.799716 170.812143 
L 401.926989 171.302051 
L 403.054261 172.056204 
L 404.181534 171.356412 
L 405.308807 172.162386 
L 406.43608 170.870293 
L 407.563352 170.933369 
L 408.690625 171.41883 
L 410.94517 171.6746 
L 412.072443 171.327942 
L 413.199716 171.457798 
L 414.326989 171.376492 
L 418.83608 171.6086 
L 419.963352 172.038357 
L 421.090625 171.485702 
L 422.217898 171.201776 
L 423.34517 172.03931 
L 424.472443 171.951895 
L 425.599716 171.029977 
L 426.726989 171.470733 
L 427.854261 171.33633 
L 428.981534 171.788106 
L 430.108807 171.619493 
L 431.23608 171.687032 
L 432.363352 172.066726 
L 433.490625 171.215829 
L 434.617898 170.9907 
L 436.872443 171.888345 
L 437.999716 171.568269 
L 439.126989 171.90961 
L 440.254261 170.651171 
L 441.381534 171.315803 
L 442.508807 171.7623 
L 443.63608 171.30192 
L 444.763352 170.659659 
L 445.890625 171.288779 
L 447.017898 171.490592 
L 448.14517 172.222745 
L 449.272443 172.55833 
L 450.399716 171.034898 
L 451.526989 171.498769 
L 452.654261 171.647811 
L 454.908807 171.370715 
L 456.03608 170.858276 
L 457.163352 171.104962 
L 458.290625 171.234893 
L 460.54517 171.90754 
L 461.672443 171.958406 
L 462.799716 172.342796 
L 463.926989 171.67289 
L 465.054261 172.154893 
L 466.181534 171.257939 
L 467.308807 171.674141 
L 469.563352 171.049011 
L 470.690625 171.724085 
L 471.817898 172.095347 
L 474.072443 171.377652 
L 475.199716 171.62404 
L 476.326989 171.390359 
L 477.454261 171.60132 
L 478.581534 171.535308 
L 480.83608 171.832293 
L 481.963352 171.367157 
L 483.090625 171.617892 
L 484.217898 171.685619 
L 485.34517 171.618568 
L 487.599716 171.860995 
L 488.726989 172.237446 
L 489.854261 171.005607 
L 490.981534 171.553755 
L 492.108807 171.490333 
L 493.23608 171.592916 
L 495.490625 171.398825 
L 496.617898 171.605477 
L 498.872443 172.38631 
L 499.999716 171.526915 
L 501.126989 171.645364 
L 502.254261 171.371208 
L 503.381534 172.147328 
L 504.508807 171.753966 
L 505.63608 173.179875 
L 506.763352 171.668005 
L 507.890625 171.579546 
L 509.017898 172.096871 
L 510.14517 172.356091 
L 511.272443 172.089167 
L 512.399716 172.553571 
L 513.526989 171.812758 
L 514.654261 171.615187 
L 516.908807 171.69413 
L 518.03608 171.766294 
L 519.163352 172.234649 
L 521.417898 171.674879 
L 522.54517 171.832849 
L 523.672443 172.280615 
L 524.799716 171.622514 
L 525.926989 171.755409 
L 527.054261 172.137954 
L 528.181534 171.268446 
L 529.308807 172.07895 
L 530.43608 171.204316 
L 531.563352 172.061808 
L 532.690625 171.646001 
L 533.817898 171.927455 
L 534.94517 171.965757 
L 536.072443 171.666375 
L 537.199716 171.715999 
L 538.326989 172.314211 
L 539.454261 172.600415 
L 541.708807 172.093801 
L 542.83608 172.294227 
L 543.963352 171.622418 
L 545.090625 171.782635 
L 546.217898 171.826495 
L 547.34517 171.737618 
L 548.472443 171.862572 
L 549.599716 171.810099 
L 550.726989 172.003163 
L 551.854261 171.442342 
L 552.981534 171.871399 
L 554.108807 172.112333 
L 555.23608 171.965151 
L 556.363352 171.593799 
L 557.490625 172.424699 
L 558.617898 172.280127 
L 559.74517 171.782763 
L 561.999716 172.362792 
L 564.254261 172.20061 
L 565.381534 172.371535 
L 566.508807 171.999299 
L 568.763352 171.610287 
L 569.890625 171.773116 
L 571.017898 171.682329 
L 572.14517 171.967082 
L 573.272443 171.559341 
L 574.399716 171.909636 
L 576.654261 172.294224 
L 577.781534 171.932208 
L 578.908807 172.584878 
L 580.03608 172.074051 
L 581.163352 171.992196 
L 582.290625 172.04918 
L 583.417898 172.439833 
L 586.799716 171.978719 
L 587.926989 172.222894 
L 589.054261 171.692602 
L 590.181534 172.103561 
L 592.43608 171.90705 
L 593.563352 172.379678 
L 594.690625 171.602559 
L 595.817898 172.046383 
L 596.94517 171.783138 
L 599.199716 172.085609 
L 600.326989 171.771962 
L 601.454261 172.218407 
L 603.708807 172.278004 
L 604.83608 172.469344 
L 605.963352 172.082219 
L 607.090625 172.14542 
L 608.217898 172.415526 
L 609.34517 172.448525 
L 610.472443 171.769688 
L 611.599716 172.670857 
L 612.726989 172.261742 
L 613.854261 172.179617 
L 614.981534 172.75954 
L 616.108807 172.558029 
L 617.23608 171.989123 
L 619.490625 172.108654 
L 620.617898 171.709229 
L 621.74517 172.924987 
L 622.872443 172.155324 
L 623.999716 172.460446 
L 625.126989 172.32577 
L 625.126989 172.32577 
" clip-path="url(#pf9a1a50045)" style="fill: none; stroke: #ff7f0e; stroke-width: 1.5; stroke-linecap: square"/>
   </g>
   <g id="patch_3">
    <path d="M 92.490625 308.63625 
L 92.490625 31.43625 
" style="fill: none; stroke: #000000; stroke-width: 0.8; stroke-linejoin: miter; stroke-linecap: square"/>
   </g>
   <g id="patch_4">
    <path d="M 650.490625 308.63625 
L 650.490625 31.43625 
" style="fill: none; stroke: #000000; stroke-width: 0.8; stroke-linejoin: miter; stroke-linecap: square"/>
   </g>
   <g id="patch_5">
    <path d="M 92.490625 308.63625 
L 650.490625 308.63625 
" style="fill: none; stroke: #000000; stroke-width: 0.8; stroke-linejoin: miter; stroke-linecap: square"/>
   </g>
   <g id="patch_6">
    <path d="M 92.490625 31.43625 
L 650.490625 31.43625 
" style="fill: none; stroke: #000000; stroke-width: 0.8; stroke-linejoin: miter; stroke-linecap: square"/>
   </g>
   <g id="text_13">
    <!-- Generator and Discriminator Loss During Training -->
    <g transform="translate(74.258125 25.43625) scale(0.24 -0.24)">
     <defs>
      <path id="DejaVuSans-47" d="M 3809 666 
L 3809 1919 
L 2778 1919 
L 2778 2438 
L 4434 2438 
L 4434 434 
Q 4069 175 3628 42 
Q 3188 -91 2688 -91 
Q 1594 -91 976 548 
Q 359 1188 359 2328 
Q 359 3472 976 4111 
Q 1594 4750 2688 4750 
Q 3144 4750 3555 4637 
Q 3966 4525 4313 4306 
L 4313 3634 
Q 3963 3931 3569 4081 
Q 3175 4231 2741 4231 
Q 1884 4231 1454 3753 
Q 1025 3275 1025 2328 
Q 1025 1384 1454 906 
Q 1884 428 2741 428 
Q 3075 428 3337 486 
Q 3600 544 3809 666 
z
" transform="scale(0.015625)"/>
      <path id="DejaVuSans-20" transform="scale(0.015625)"/>
      <path id="DejaVuSans-64" d="M 2906 2969 
L 2906 4863 
L 3481 4863 
L 3481 0 
L 2906 0 
L 2906 525 
Q 2725 213 2448 61 
Q 2172 -91 1784 -91 
Q 1150 -91 751 415 
Q 353 922 353 1747 
Q 353 2572 751 3078 
Q 1150 3584 1784 3584 
Q 2172 3584 2448 3432 
Q 2725 3281 2906 2969 
z
M 947 1747 
Q 947 1113 1208 752 
Q 1469 391 1925 391 
Q 2381 391 2643 752 
Q 2906 1113 2906 1747 
Q 2906 2381 2643 2742 
Q 2381 3103 1925 3103 
Q 1469 3103 1208 2742 
Q 947 2381 947 1747 
z
" transform="scale(0.015625)"/>
      <path id="DejaVuSans-44" d="M 1259 4147 
L 1259 519 
L 2022 519 
Q 2988 519 3436 956 
Q 3884 1394 3884 2338 
Q 3884 3275 3436 3711 
Q 2988 4147 2022 4147 
L 1259 4147 
z
M 628 4666 
L 1925 4666 
Q 3281 4666 3915 4102 
Q 4550 3538 4550 2338 
Q 4550 1131 3912 565 
Q 3275 0 1925 0 
L 628 0 
L 628 4666 
z
" transform="scale(0.015625)"/>
      <path id="DejaVuSans-63" d="M 3122 3366 
L 3122 2828 
Q 2878 2963 2633 3030 
Q 2388 3097 2138 3097 
Q 1578 3097 1268 2742 
Q 959 2388 959 1747 
Q 959 1106 1268 751 
Q 1578 397 2138 397 
Q 2388 397 2633 464 
Q 2878 531 3122 666 
L 3122 134 
Q 2881 22 2623 -34 
Q 2366 -91 2075 -91 
Q 1284 -91 818 406 
Q 353 903 353 1747 
Q 353 2603 823 3093 
Q 1294 3584 2113 3584 
Q 2378 3584 2631 3529 
Q 2884 3475 3122 3366 
z
" transform="scale(0.015625)"/>
      <path id="DejaVuSans-6d" d="M 3328 2828 
Q 3544 3216 3844 3400 
Q 4144 3584 4550 3584 
Q 5097 3584 5394 3201 
Q 5691 2819 5691 2113 
L 5691 0 
L 5113 0 
L 5113 2094 
Q 5113 2597 4934 2840 
Q 4756 3084 4391 3084 
Q 3944 3084 3684 2787 
Q 3425 2491 3425 1978 
L 3425 0 
L 2847 0 
L 2847 2094 
Q 2847 2600 2669 2842 
Q 2491 3084 2119 3084 
Q 1678 3084 1418 2786 
Q 1159 2488 1159 1978 
L 1159 0 
L 581 0 
L 581 3500 
L 1159 3500 
L 1159 2956 
Q 1356 3278 1631 3431 
Q 1906 3584 2284 3584 
Q 2666 3584 2933 3390 
Q 3200 3197 3328 2828 
z
" transform="scale(0.015625)"/>
      <path id="DejaVuSans-75" d="M 544 1381 
L 544 3500 
L 1119 3500 
L 1119 1403 
Q 1119 906 1312 657 
Q 1506 409 1894 409 
Q 2359 409 2629 706 
Q 2900 1003 2900 1516 
L 2900 3500 
L 3475 3500 
L 3475 0 
L 2900 0 
L 2900 538 
Q 2691 219 2414 64 
Q 2138 -91 1772 -91 
Q 1169 -91 856 284 
Q 544 659 544 1381 
z
M 1991 3584 
L 1991 3584 
z
" transform="scale(0.015625)"/>
      <path id="DejaVuSans-67" d="M 2906 1791 
Q 2906 2416 2648 2759 
Q 2391 3103 1925 3103 
Q 1463 3103 1205 2759 
Q 947 2416 947 1791 
Q 947 1169 1205 825 
Q 1463 481 1925 481 
Q 2391 481 2648 825 
Q 2906 1169 2906 1791 
z
M 3481 434 
Q 3481 -459 3084 -895 
Q 2688 -1331 1869 -1331 
Q 1566 -1331 1297 -1286 
Q 1028 -1241 775 -1147 
L 775 -588 
Q 1028 -725 1275 -790 
Q 1522 -856 1778 -856 
Q 2344 -856 2625 -561 
Q 2906 -266 2906 331 
L 2906 616 
Q 2728 306 2450 153 
Q 2172 0 1784 0 
Q 1141 0 747 490 
Q 353 981 353 1791 
Q 353 2603 747 3093 
Q 1141 3584 1784 3584 
Q 2172 3584 2450 3431 
Q 2728 3278 2906 2969 
L 2906 3500 
L 3481 3500 
L 3481 434 
z
" transform="scale(0.015625)"/>
      <path id="DejaVuSans-54" d="M -19 4666 
L 3928 4666 
L 3928 4134 
L 2272 4134 
L 2272 0 
L 1638 0 
L 1638 4134 
L -19 4134 
L -19 4666 
z
" transform="scale(0.015625)"/>
     </defs>
     <use xlink:href="#DejaVuSans-47"/>
     <use xlink:href="#DejaVuSans-65" x="77.490234"/>
     <use xlink:href="#DejaVuSans-6e" x="139.013672"/>
     <use xlink:href="#DejaVuSans-65" x="202.392578"/>
     <use xlink:href="#DejaVuSans-72" x="263.916016"/>
     <use xlink:href="#DejaVuSans-61" x="305.029297"/>
     <use xlink:href="#DejaVuSans-74" x="366.308594"/>
     <use xlink:href="#DejaVuSans-6f" x="405.517578"/>
     <use xlink:href="#DejaVuSans-72" x="466.699219"/>
     <use xlink:href="#DejaVuSans-20" x="507.8125"/>
     <use xlink:href="#DejaVuSans-61" x="539.599609"/>
     <use xlink:href="#DejaVuSans-6e" x="600.878906"/>
     <use xlink:href="#DejaVuSans-64" x="664.257812"/>
     <use xlink:href="#DejaVuSans-20" x="727.734375"/>
     <use xlink:href="#DejaVuSans-44" x="759.521484"/>
     <use xlink:href="#DejaVuSans-69" x="836.523438"/>
     <use xlink:href="#DejaVuSans-73" x="864.306641"/>
     <use xlink:href="#DejaVuSans-63" x="916.40625"/>
     <use xlink:href="#DejaVuSans-72" x="971.386719"/>
     <use xlink:href="#DejaVuSans-69" x="1012.5"/>
     <use xlink:href="#DejaVuSans-6d" x="1040.283203"/>
     <use xlink:href="#DejaVuSans-69" x="1137.695312"/>
     <use xlink:href="#DejaVuSans-6e" x="1165.478516"/>
     <use xlink:href="#DejaVuSans-61" x="1228.857422"/>
     <use xlink:href="#DejaVuSans-74" x="1290.136719"/>
     <use xlink:href="#DejaVuSans-6f" x="1329.345703"/>
     <use xlink:href="#DejaVuSans-72" x="1390.527344"/>
     <use xlink:href="#DejaVuSans-20" x="1431.640625"/>
     <use xlink:href="#DejaVuSans-4c" x="1463.427734"/>
     <use xlink:href="#DejaVuSans-6f" x="1517.390625"/>
     <use xlink:href="#DejaVuSans-73" x="1578.572266"/>
     <use xlink:href="#DejaVuSans-73" x="1630.671875"/>
     <use xlink:href="#DejaVuSans-20" x="1682.771484"/>
     <use xlink:href="#DejaVuSans-44" x="1714.558594"/>
     <use xlink:href="#DejaVuSans-75" x="1791.560547"/>
     <use xlink:href="#DejaVuSans-72" x="1854.939453"/>
     <use xlink:href="#DejaVuSans-69" x="1896.052734"/>
     <use xlink:href="#DejaVuSans-6e" x="1923.835938"/>
     <use xlink:href="#DejaVuSans-67" x="1987.214844"/>
     <use xlink:href="#DejaVuSans-20" x="2050.691406"/>
     <use xlink:href="#DejaVuSans-54" x="2082.478516"/>
     <use xlink:href="#DejaVuSans-72" x="2128.8125"/>
     <use xlink:href="#DejaVuSans-61" x="2169.925781"/>
     <use xlink:href="#DejaVuSans-69" x="2231.205078"/>
     <use xlink:href="#DejaVuSans-6e" x="2258.988281"/>
     <use xlink:href="#DejaVuSans-69" x="2322.367188"/>
     <use xlink:href="#DejaVuSans-6e" x="2350.150391"/>
     <use xlink:href="#DejaVuSans-67" x="2413.529297"/>
    </g>
   </g>
   <g id="legend_1">
    <g id="patch_7">
     <path d="M 556.99375 106.14875 
L 636.490625 106.14875 
Q 640.490625 106.14875 640.490625 102.14875 
L 640.490625 45.43625 
Q 640.490625 41.43625 636.490625 41.43625 
L 556.99375 41.43625 
Q 552.99375 41.43625 552.99375 45.43625 
L 552.99375 102.14875 
Q 552.99375 106.14875 556.99375 106.14875 
z
" style="fill: #ffffff; opacity: 0.8; stroke: #cccccc; stroke-linejoin: miter"/>
    </g>
    <g id="line2d_13">
     <path d="M 560.99375 57.633125 
L 580.99375 57.633125 
L 600.99375 57.633125 
" style="fill: none; stroke: #1f77b4; stroke-width: 1.5; stroke-linecap: square"/>
    </g>
    <g id="text_14">
     <!-- G -->
     <g transform="translate(616.99375 64.633125) scale(0.2 -0.2)">
      <use xlink:href="#DejaVuSans-47"/>
     </g>
    </g>
    <g id="line2d_14">
     <path d="M 560.99375 86.989375 
L 580.99375 86.989375 
L 600.99375 86.989375 
" style="fill: none; stroke: #ff7f0e; stroke-width: 1.5; stroke-linecap: square"/>
    </g>
    <g id="text_15">
     <!-- D -->
     <g transform="translate(616.99375 93.989375) scale(0.2 -0.2)">
      <use xlink:href="#DejaVuSans-44"/>
     </g>
    </g>
   </g>
  </g>
 </g>
 <defs>
  <clipPath id="pf9a1a50045">
   <rect x="92.490625" y="31.43625" width="558" height="277.2"/>
  </clipPath>
 </defs>
</svg>
