<?xml version="1.0" encoding="utf-8" standalone="no"?>
<!DOCTYPE svg PUBLIC "-//W3C//DTD SVG 1.1//EN"
  "http://www.w3.org/Graphics/SVG/1.1/DTD/svg11.dtd">
<svg xmlns:xlink="http://www.w3.org/1999/xlink" width="675.923125pt" height="365.54875pt" viewBox="0 0 675.923125 365.54875" xmlns="http://www.w3.org/2000/svg" version="1.1">
 <metadata>
  <rdf:RDF xmlns:dc="http://purl.org/dc/elements/1.1/" xmlns:cc="http://creativecommons.org/ns#" xmlns:rdf="http://www.w3.org/1999/02/22-rdf-syntax-ns#">
   <cc:Work>
    <dc:type rdf:resource="http://purl.org/dc/dcmitype/StillImage"/>
    <dc:date>2024-02-12T18:45:00.314232</dc:date>
    <dc:format>image/svg+xml</dc:format>
    <dc:creator>
     <cc:Agent>
      <dc:title>Matplotlib v3.7.2, https://matplotlib.org/</dc:title>
     </cc:Agent>
    </dc:creator>
   </cc:Work>
  </rdf:RDF>
 </metadata>
 <defs>
  <style type="text/css">*{stroke-linejoin: round; stroke-linecap: butt}</style>
 </defs>
 <g id="figure_1">
  <g id="patch_1">
   <path d="M 0 365.54875 
L 675.923125 365.54875 
L 675.923125 -0 
L 0 -0 
z
" style="fill: #ffffff"/>
  </g>
  <g id="axes_1">
   <g id="patch_2">
    <path d="M 92.490625 308.63625 
L 650.490625 308.63625 
L 650.490625 31.43625 
L 92.490625 31.43625 
z
" style="fill: #ffffff"/>
   </g>
   <g id="matplotlib.axis_1">
    <g id="xtick_1">
     <g id="line2d_1">
      <defs>
       <path id="m36eb85a051" d="M 0 0 
L 0 3.5 
" style="stroke: #000000; stroke-width: 0.8"/>
      </defs>
      <g>
       <use xlink:href="#m36eb85a051" x="117.854261" y="308.63625" style="stroke: #000000; stroke-width: 0.8"/>
      </g>
     </g>
     <g id="text_1">
      <!-- 0 -->
      <g transform="translate(111.491761 330.833125) scale(0.2 -0.2)">
       <defs>
        <path id="DejaVuSans-30" d="M 2034 4250 
Q 1547 4250 1301 3770 
Q 1056 3291 1056 2328 
Q 1056 1369 1301 889 
Q 1547 409 2034 409 
Q 2525 409 2770 889 
Q 3016 1369 3016 2328 
Q 3016 3291 2770 3770 
Q 2525 4250 2034 4250 
z
M 2034 4750 
Q 2819 4750 3233 4129 
Q 3647 3509 3647 2328 
Q 3647 1150 3233 529 
Q 2819 -91 2034 -91 
Q 1250 -91 836 529 
Q 422 1150 422 2328 
Q 422 3509 836 4129 
Q 1250 4750 2034 4750 
z
" transform="scale(0.015625)"/>
       </defs>
       <use xlink:href="#DejaVuSans-30"/>
      </g>
     </g>
    </g>
    <g id="xtick_2">
     <g id="line2d_2">
      <g>
       <use xlink:href="#m36eb85a051" x="214.477638" y="308.63625" style="stroke: #000000; stroke-width: 0.8"/>
      </g>
     </g>
     <g id="text_2">
      <!-- 200 -->
      <g transform="translate(195.390138 330.833125) scale(0.2 -0.2)">
       <defs>
        <path id="DejaVuSans-32" d="M 1228 531 
L 3431 531 
L 3431 0 
L 469 0 
L 469 531 
Q 828 903 1448 1529 
Q 2069 2156 2228 2338 
Q 2531 2678 2651 2914 
Q 2772 3150 2772 3378 
Q 2772 3750 2511 3984 
Q 2250 4219 1831 4219 
Q 1534 4219 1204 4116 
Q 875 4013 500 3803 
L 500 4441 
Q 881 4594 1212 4672 
Q 1544 4750 1819 4750 
Q 2544 4750 2975 4387 
Q 3406 4025 3406 3419 
Q 3406 3131 3298 2873 
Q 3191 2616 2906 2266 
Q 2828 2175 2409 1742 
Q 1991 1309 1228 531 
z
" transform="scale(0.015625)"/>
       </defs>
       <use xlink:href="#DejaVuSans-32"/>
       <use xlink:href="#DejaVuSans-30" x="63.623047"/>
       <use xlink:href="#DejaVuSans-30" x="127.246094"/>
      </g>
     </g>
    </g>
    <g id="xtick_3">
     <g id="line2d_3">
      <g>
       <use xlink:href="#m36eb85a051" x="311.101015" y="308.63625" style="stroke: #000000; stroke-width: 0.8"/>
      </g>
     </g>
     <g id="text_3">
      <!-- 400 -->
      <g transform="translate(292.013515 330.833125) scale(0.2 -0.2)">
       <defs>
        <path id="DejaVuSans-34" d="M 2419 4116 
L 825 1625 
L 2419 1625 
L 2419 4116 
z
M 2253 4666 
L 3047 4666 
L 3047 1625 
L 3713 1625 
L 3713 1100 
L 3047 1100 
L 3047 0 
L 2419 0 
L 2419 1100 
L 313 1100 
L 313 1709 
L 2253 4666 
z
" transform="scale(0.015625)"/>
       </defs>
       <use xlink:href="#DejaVuSans-34"/>
       <use xlink:href="#DejaVuSans-30" x="63.623047"/>
       <use xlink:href="#DejaVuSans-30" x="127.246094"/>
      </g>
     </g>
    </g>
    <g id="xtick_4">
     <g id="line2d_4">
      <g>
       <use xlink:href="#m36eb85a051" x="407.724391" y="308.63625" style="stroke: #000000; stroke-width: 0.8"/>
      </g>
     </g>
     <g id="text_4">
      <!-- 600 -->
      <g transform="translate(388.636891 330.833125) scale(0.2 -0.2)">
       <defs>
        <path id="DejaVuSans-36" d="M 2113 2584 
Q 1688 2584 1439 2293 
Q 1191 2003 1191 1497 
Q 1191 994 1439 701 
Q 1688 409 2113 409 
Q 2538 409 2786 701 
Q 3034 994 3034 1497 
Q 3034 2003 2786 2293 
Q 2538 2584 2113 2584 
z
M 3366 4563 
L 3366 3988 
Q 3128 4100 2886 4159 
Q 2644 4219 2406 4219 
Q 1781 4219 1451 3797 
Q 1122 3375 1075 2522 
Q 1259 2794 1537 2939 
Q 1816 3084 2150 3084 
Q 2853 3084 3261 2657 
Q 3669 2231 3669 1497 
Q 3669 778 3244 343 
Q 2819 -91 2113 -91 
Q 1303 -91 875 529 
Q 447 1150 447 2328 
Q 447 3434 972 4092 
Q 1497 4750 2381 4750 
Q 2619 4750 2861 4703 
Q 3103 4656 3366 4563 
z
" transform="scale(0.015625)"/>
       </defs>
       <use xlink:href="#DejaVuSans-36"/>
       <use xlink:href="#DejaVuSans-30" x="63.623047"/>
       <use xlink:href="#DejaVuSans-30" x="127.246094"/>
      </g>
     </g>
    </g>
    <g id="xtick_5">
     <g id="line2d_5">
      <g>
       <use xlink:href="#m36eb85a051" x="504.347768" y="308.63625" style="stroke: #000000; stroke-width: 0.8"/>
      </g>
     </g>
     <g id="text_5">
      <!-- 800 -->
      <g transform="translate(485.260268 330.833125) scale(0.2 -0.2)">
       <defs>
        <path id="DejaVuSans-38" d="M 2034 2216 
Q 1584 2216 1326 1975 
Q 1069 1734 1069 1313 
Q 1069 891 1326 650 
Q 1584 409 2034 409 
Q 2484 409 2743 651 
Q 3003 894 3003 1313 
Q 3003 1734 2745 1975 
Q 2488 2216 2034 2216 
z
M 1403 2484 
Q 997 2584 770 2862 
Q 544 3141 544 3541 
Q 544 4100 942 4425 
Q 1341 4750 2034 4750 
Q 2731 4750 3128 4425 
Q 3525 4100 3525 3541 
Q 3525 3141 3298 2862 
Q 3072 2584 2669 2484 
Q 3125 2378 3379 2068 
Q 3634 1759 3634 1313 
Q 3634 634 3220 271 
Q 2806 -91 2034 -91 
Q 1263 -91 848 271 
Q 434 634 434 1313 
Q 434 1759 690 2068 
Q 947 2378 1403 2484 
z
M 1172 3481 
Q 1172 3119 1398 2916 
Q 1625 2713 2034 2713 
Q 2441 2713 2670 2916 
Q 2900 3119 2900 3481 
Q 2900 3844 2670 4047 
Q 2441 4250 2034 4250 
Q 1625 4250 1398 4047 
Q 1172 3844 1172 3481 
z
" transform="scale(0.015625)"/>
       </defs>
       <use xlink:href="#DejaVuSans-38"/>
       <use xlink:href="#DejaVuSans-30" x="63.623047"/>
       <use xlink:href="#DejaVuSans-30" x="127.246094"/>
      </g>
     </g>
    </g>
    <g id="xtick_6">
     <g id="line2d_6">
      <g>
       <use xlink:href="#m36eb85a051" x="600.971144" y="308.63625" style="stroke: #000000; stroke-width: 0.8"/>
      </g>
     </g>
     <g id="text_6">
      <!-- 1000 -->
      <g transform="translate(575.521144 330.833125) scale(0.2 -0.2)">
       <defs>
        <path id="DejaVuSans-31" d="M 794 531 
L 1825 531 
L 1825 4091 
L 703 3866 
L 703 4441 
L 1819 4666 
L 2450 4666 
L 2450 531 
L 3481 531 
L 3481 0 
L 794 0 
L 794 531 
z
" transform="scale(0.015625)"/>
       </defs>
       <use xlink:href="#DejaVuSans-31"/>
       <use xlink:href="#DejaVuSans-30" x="63.623047"/>
       <use xlink:href="#DejaVuSans-30" x="127.246094"/>
       <use xlink:href="#DejaVuSans-30" x="190.869141"/>
      </g>
     </g>
    </g>
    <g id="text_7">
     <!-- iterations -->
     <g transform="translate(324.035938 354.189375) scale(0.2 -0.2)">
      <defs>
       <path id="DejaVuSans-69" d="M 603 3500 
L 1178 3500 
L 1178 0 
L 603 0 
L 603 3500 
z
M 603 4863 
L 1178 4863 
L 1178 4134 
L 603 4134 
L 603 4863 
z
" transform="scale(0.015625)"/>
       <path id="DejaVuSans-74" d="M 1172 4494 
L 1172 3500 
L 2356 3500 
L 2356 3053 
L 1172 3053 
L 1172 1153 
Q 1172 725 1289 603 
Q 1406 481 1766 481 
L 2356 481 
L 2356 0 
L 1766 0 
Q 1100 0 847 248 
Q 594 497 594 1153 
L 594 3053 
L 172 3053 
L 172 3500 
L 594 3500 
L 594 4494 
L 1172 4494 
z
" transform="scale(0.015625)"/>
       <path id="DejaVuSans-65" d="M 3597 1894 
L 3597 1613 
L 953 1613 
Q 991 1019 1311 708 
Q 1631 397 2203 397 
Q 2534 397 2845 478 
Q 3156 559 3463 722 
L 3463 178 
Q 3153 47 2828 -22 
Q 2503 -91 2169 -91 
Q 1331 -91 842 396 
Q 353 884 353 1716 
Q 353 2575 817 3079 
Q 1281 3584 2069 3584 
Q 2775 3584 3186 3129 
Q 3597 2675 3597 1894 
z
M 3022 2063 
Q 3016 2534 2758 2815 
Q 2500 3097 2075 3097 
Q 1594 3097 1305 2825 
Q 1016 2553 972 2059 
L 3022 2063 
z
" transform="scale(0.015625)"/>
       <path id="DejaVuSans-72" d="M 2631 2963 
Q 2534 3019 2420 3045 
Q 2306 3072 2169 3072 
Q 1681 3072 1420 2755 
Q 1159 2438 1159 1844 
L 1159 0 
L 581 0 
L 581 3500 
L 1159 3500 
L 1159 2956 
Q 1341 3275 1631 3429 
Q 1922 3584 2338 3584 
Q 2397 3584 2469 3576 
Q 2541 3569 2628 3553 
L 2631 2963 
z
" transform="scale(0.015625)"/>
       <path id="DejaVuSans-61" d="M 2194 1759 
Q 1497 1759 1228 1600 
Q 959 1441 959 1056 
Q 959 750 1161 570 
Q 1363 391 1709 391 
Q 2188 391 2477 730 
Q 2766 1069 2766 1631 
L 2766 1759 
L 2194 1759 
z
M 3341 1997 
L 3341 0 
L 2766 0 
L 2766 531 
Q 2569 213 2275 61 
Q 1981 -91 1556 -91 
Q 1019 -91 701 211 
Q 384 513 384 1019 
Q 384 1609 779 1909 
Q 1175 2209 1959 2209 
L 2766 2209 
L 2766 2266 
Q 2766 2663 2505 2880 
Q 2244 3097 1772 3097 
Q 1472 3097 1187 3025 
Q 903 2953 641 2809 
L 641 3341 
Q 956 3463 1253 3523 
Q 1550 3584 1831 3584 
Q 2591 3584 2966 3190 
Q 3341 2797 3341 1997 
z
" transform="scale(0.015625)"/>
       <path id="DejaVuSans-6f" d="M 1959 3097 
Q 1497 3097 1228 2736 
Q 959 2375 959 1747 
Q 959 1119 1226 758 
Q 1494 397 1959 397 
Q 2419 397 2687 759 
Q 2956 1122 2956 1747 
Q 2956 2369 2687 2733 
Q 2419 3097 1959 3097 
z
M 1959 3584 
Q 2709 3584 3137 3096 
Q 3566 2609 3566 1747 
Q 3566 888 3137 398 
Q 2709 -91 1959 -91 
Q 1206 -91 779 398 
Q 353 888 353 1747 
Q 353 2609 779 3096 
Q 1206 3584 1959 3584 
z
" transform="scale(0.015625)"/>
       <path id="DejaVuSans-6e" d="M 3513 2113 
L 3513 0 
L 2938 0 
L 2938 2094 
Q 2938 2591 2744 2837 
Q 2550 3084 2163 3084 
Q 1697 3084 1428 2787 
Q 1159 2491 1159 1978 
L 1159 0 
L 581 0 
L 581 3500 
L 1159 3500 
L 1159 2956 
Q 1366 3272 1645 3428 
Q 1925 3584 2291 3584 
Q 2894 3584 3203 3211 
Q 3513 2838 3513 2113 
z
" transform="scale(0.015625)"/>
       <path id="DejaVuSans-73" d="M 2834 3397 
L 2834 2853 
Q 2591 2978 2328 3040 
Q 2066 3103 1784 3103 
Q 1356 3103 1142 2972 
Q 928 2841 928 2578 
Q 928 2378 1081 2264 
Q 1234 2150 1697 2047 
L 1894 2003 
Q 2506 1872 2764 1633 
Q 3022 1394 3022 966 
Q 3022 478 2636 193 
Q 2250 -91 1575 -91 
Q 1294 -91 989 -36 
Q 684 19 347 128 
L 347 722 
Q 666 556 975 473 
Q 1284 391 1588 391 
Q 1994 391 2212 530 
Q 2431 669 2431 922 
Q 2431 1156 2273 1281 
Q 2116 1406 1581 1522 
L 1381 1569 
Q 847 1681 609 1914 
Q 372 2147 372 2553 
Q 372 3047 722 3315 
Q 1072 3584 1716 3584 
Q 2034 3584 2315 3537 
Q 2597 3491 2834 3397 
z
" transform="scale(0.015625)"/>
      </defs>
      <use xlink:href="#DejaVuSans-69"/>
      <use xlink:href="#DejaVuSans-74" x="27.783203"/>
      <use xlink:href="#DejaVuSans-65" x="66.992188"/>
      <use xlink:href="#DejaVuSans-72" x="128.515625"/>
      <use xlink:href="#DejaVuSans-61" x="169.628906"/>
      <use xlink:href="#DejaVuSans-74" x="230.908203"/>
      <use xlink:href="#DejaVuSans-69" x="270.117188"/>
      <use xlink:href="#DejaVuSans-6f" x="297.900391"/>
      <use xlink:href="#DejaVuSans-6e" x="359.082031"/>
      <use xlink:href="#DejaVuSans-73" x="422.460938"/>
     </g>
    </g>
   </g>
   <g id="matplotlib.axis_2">
    <g id="ytick_1">
     <g id="line2d_7">
      <defs>
       <path id="m486e8daaf9" d="M 0 0 
L -3.5 0 
" style="stroke: #000000; stroke-width: 0.8"/>
      </defs>
      <g>
       <use xlink:href="#m486e8daaf9" x="92.490625" y="287.754235" style="stroke: #000000; stroke-width: 0.8"/>
      </g>
     </g>
     <g id="text_8">
      <!-- −200 -->
      <g transform="translate(30.55625 295.352672) scale(0.2 -0.2)">
       <defs>
        <path id="DejaVuSans-2212" d="M 678 2272 
L 4684 2272 
L 4684 1741 
L 678 1741 
L 678 2272 
z
" transform="scale(0.015625)"/>
       </defs>
       <use xlink:href="#DejaVuSans-2212"/>
       <use xlink:href="#DejaVuSans-32" x="83.789062"/>
       <use xlink:href="#DejaVuSans-30" x="147.412109"/>
       <use xlink:href="#DejaVuSans-30" x="211.035156"/>
      </g>
     </g>
    </g>
    <g id="ytick_2">
     <g id="line2d_8">
      <g>
       <use xlink:href="#m486e8daaf9" x="92.490625" y="227.578386" style="stroke: #000000; stroke-width: 0.8"/>
      </g>
     </g>
     <g id="text_9">
      <!-- −100 -->
      <g transform="translate(30.55625 235.176823) scale(0.2 -0.2)">
       <use xlink:href="#DejaVuSans-2212"/>
       <use xlink:href="#DejaVuSans-31" x="83.789062"/>
       <use xlink:href="#DejaVuSans-30" x="147.412109"/>
       <use xlink:href="#DejaVuSans-30" x="211.035156"/>
      </g>
     </g>
    </g>
    <g id="ytick_3">
     <g id="line2d_9">
      <g>
       <use xlink:href="#m486e8daaf9" x="92.490625" y="167.402537" style="stroke: #000000; stroke-width: 0.8"/>
      </g>
     </g>
     <g id="text_10">
      <!-- 0 -->
      <g transform="translate(72.765625 175.000974) scale(0.2 -0.2)">
       <use xlink:href="#DejaVuSans-30"/>
      </g>
     </g>
    </g>
    <g id="ytick_4">
     <g id="line2d_10">
      <g>
       <use xlink:href="#m486e8daaf9" x="92.490625" y="107.226688" style="stroke: #000000; stroke-width: 0.8"/>
      </g>
     </g>
     <g id="text_11">
      <!-- 100 -->
      <g transform="translate(47.315625 114.825125) scale(0.2 -0.2)">
       <use xlink:href="#DejaVuSans-31"/>
       <use xlink:href="#DejaVuSans-30" x="63.623047"/>
       <use xlink:href="#DejaVuSans-30" x="127.246094"/>
      </g>
     </g>
    </g>
    <g id="ytick_5">
     <g id="line2d_11">
      <g>
       <use xlink:href="#m486e8daaf9" x="92.490625" y="47.050838" style="stroke: #000000; stroke-width: 0.8"/>
      </g>
     </g>
     <g id="text_12">
      <!-- 200 -->
      <g transform="translate(47.315625 54.649276) scale(0.2 -0.2)">
       <use xlink:href="#DejaVuSans-32"/>
       <use xlink:href="#DejaVuSans-30" x="63.623047"/>
       <use xlink:href="#DejaVuSans-30" x="127.246094"/>
      </g>
     </g>
    </g>
    <g id="text_13">
     <!-- Loss -->
     <g transform="translate(22.396875 191.970625) rotate(-90) scale(0.2 -0.2)">
      <defs>
       <path id="DejaVuSans-4c" d="M 628 4666 
L 1259 4666 
L 1259 531 
L 3531 531 
L 3531 0 
L 628 0 
L 628 4666 
z
" transform="scale(0.015625)"/>
      </defs>
      <use xlink:href="#DejaVuSans-4c"/>
      <use xlink:href="#DejaVuSans-6f" x="53.962891"/>
      <use xlink:href="#DejaVuSans-73" x="115.144531"/>
      <use xlink:href="#DejaVuSans-73" x="167.244141"/>
     </g>
    </g>
   </g>
   <g id="line2d_12">
    <path d="M 117.854261 138.53853 
L 118.337378 97.982964 
L 118.820495 117.083744 
L 119.303612 121.777179 
L 119.786729 104.43596 
L 120.269846 128.019774 
L 120.752963 117.918638 
L 121.23608 99.792773 
L 121.719196 123.303136 
L 122.202313 113.920019 
L 122.68543 107.215809 
L 123.168547 54.185175 
L 123.651664 44.586844 
L 124.134781 50.208405 
L 124.617898 65.431701 
L 125.101015 52.62134 
L 125.584131 44.03625 
L 126.067248 47.425516 
L 126.550365 53.255988 
L 127.033482 62.20203 
L 127.516599 54.058702 
L 127.999716 59.456177 
L 128.482833 109.140656 
L 128.96595 94.805897 
L 129.449067 87.78307 
L 129.932183 75.133855 
L 130.4153 98.959252 
L 130.898417 90.513457 
L 131.381534 91.353551 
L 131.864651 94.307751 
L 132.347768 99.862324 
L 132.830885 94.958193 
L 133.314002 93.356455 
L 134.280235 79.768648 
L 134.763352 81.625829 
L 135.246469 87.639335 
L 135.729586 98.247788 
L 136.212703 97.025522 
L 136.69582 100.470922 
L 137.178937 94.009915 
L 137.662054 108.302296 
L 138.14517 106.746361 
L 138.628287 111.813688 
L 139.111404 111.321942 
L 139.594521 109.609667 
L 140.077638 111.732825 
L 141.043872 118.313446 
L 141.526989 121.128737 
L 142.010106 118.243637 
L 142.493222 122.939672 
L 142.976339 114.006144 
L 143.459456 113.402414 
L 143.942573 118.336942 
L 144.42569 126.247555 
L 144.908807 117.705982 
L 145.391924 118.938384 
L 145.875041 115.501875 
L 146.358157 121.08746 
L 146.841274 119.267918 
L 147.324391 128.786107 
L 147.807508 128.140582 
L 148.290625 126.980209 
L 148.773742 127.736057 
L 149.256859 119.824596 
L 149.739976 123.041682 
L 150.223093 125.22985 
L 150.706209 132.060951 
L 151.189326 127.742292 
L 151.672443 128.726967 
L 152.15556 132.552166 
L 152.638677 126.842327 
L 153.121794 124.849238 
L 153.604911 134.387408 
L 154.088028 128.837998 
L 154.571144 132.134935 
L 155.054261 123.78468 
L 155.537378 132.616752 
L 156.020495 133.362101 
L 156.503612 130.522423 
L 156.986729 132.295449 
L 157.469846 130.881563 
L 157.952963 130.761392 
L 158.43608 136.851809 
L 158.919196 133.13345 
L 159.402313 136.862142 
L 159.88543 132.687554 
L 160.368547 136.323725 
L 160.851664 132.024156 
L 161.334781 135.651823 
L 161.817898 134.503783 
L 162.301015 138.447324 
L 162.784131 140.302657 
L 163.267248 137.326201 
L 163.750365 135.530543 
L 164.233482 133.290565 
L 164.716599 132.866831 
L 165.199716 142.596344 
L 165.682833 144.986145 
L 166.649067 140.610362 
L 167.132183 141.500038 
L 167.6153 143.686115 
L 168.098417 140.210455 
L 168.581534 143.748127 
L 169.064651 145.84987 
L 169.547768 147.376432 
L 170.030885 144.567206 
L 170.514002 148.385484 
L 170.997119 146.372494 
L 171.480235 149.177832 
L 171.963352 150.583748 
L 172.446469 151.428518 
L 172.929586 151.65227 
L 173.412703 153.806823 
L 173.89582 151.359519 
L 174.378937 149.66105 
L 174.862054 150.094058 
L 175.34517 153.424061 
L 175.828287 153.379319 
L 176.311404 152.68978 
L 176.794521 148.221893 
L 177.277638 149.94797 
L 177.760755 150.801801 
L 178.243872 149.496023 
L 178.726989 153.426297 
L 179.210106 148.701191 
L 179.693222 155.673158 
L 180.176339 152.270783 
L 180.659456 152.812434 
L 181.142573 151.283283 
L 181.62569 151.61941 
L 182.108807 149.972005 
L 182.591924 149.445184 
L 183.075041 150.678389 
L 183.558157 153.782528 
L 184.041274 152.701329 
L 184.524391 150.58121 
L 185.007508 153.449759 
L 185.490625 152.054885 
L 186.939976 149.175368 
L 187.423093 152.92116 
L 187.906209 154.821874 
L 188.389326 154.122896 
L 188.872443 154.659618 
L 189.35556 154.935823 
L 189.838677 150.153039 
L 190.321794 153.838236 
L 190.804911 152.87849 
L 191.288028 156.117978 
L 191.771144 154.618691 
L 192.254261 155.286374 
L 192.737378 155.509007 
L 193.220495 155.203361 
L 193.703612 155.733462 
L 194.186729 154.610605 
L 194.669846 156.868743 
L 195.63608 154.86685 
L 196.119196 155.846898 
L 196.602313 155.5618 
L 197.08543 154.291763 
L 197.568547 156.186717 
L 198.051664 156.244531 
L 198.534781 155.715934 
L 199.017898 155.403453 
L 199.501015 155.782756 
L 199.984131 155.993486 
L 200.467248 155.337442 
L 200.950365 155.619744 
L 201.433482 156.597801 
L 201.916599 157.322453 
L 202.399716 156.929476 
L 202.882833 155.284185 
L 203.36595 157.053882 
L 203.849067 154.679929 
L 204.332183 157.291986 
L 204.8153 156.903158 
L 205.298417 157.112578 
L 206.264651 158.666323 
L 206.747768 157.140524 
L 207.230885 157.121308 
L 207.714002 158.853463 
L 208.197119 159.363312 
L 208.680235 158.407733 
L 209.163352 158.277547 
L 209.646469 158.768124 
L 210.612703 159.348091 
L 211.09582 158.40205 
L 211.578937 158.776583 
L 212.062054 157.259794 
L 212.54517 157.809901 
L 213.028287 157.905638 
L 213.511404 160.304648 
L 213.994521 159.27558 
L 214.477638 160.198122 
L 214.960755 158.222625 
L 215.443872 158.653634 
L 215.926989 158.487327 
L 216.410106 158.747868 
L 216.893222 158.790748 
L 217.376339 157.779227 
L 217.859456 158.195876 
L 218.342573 158.768348 
L 218.82569 157.9548 
L 219.308807 158.883566 
L 219.791924 159.266435 
L 220.275041 158.167248 
L 220.758157 157.931008 
L 221.241274 157.269122 
L 222.207508 159.245639 
L 223.173742 159.591384 
L 223.656859 158.906913 
L 224.139976 157.982647 
L 224.623093 158.460905 
L 225.106209 158.242813 
L 225.589326 157.491546 
L 226.072443 158.890922 
L 226.55556 159.897972 
L 227.038677 159.522708 
L 227.521794 158.755006 
L 228.004911 160.102913 
L 228.971144 159.911868 
L 229.454261 158.428562 
L 229.937378 158.256503 
L 230.420495 159.280037 
L 231.869846 160.666388 
L 232.83608 158.531589 
L 233.319196 160.376333 
L 233.802313 159.592961 
L 234.28543 159.596836 
L 234.768547 158.212775 
L 235.251664 158.965149 
L 235.734781 160.221803 
L 236.217898 160.554096 
L 236.701015 160.234987 
L 237.184131 159.189843 
L 238.150365 158.4345 
L 238.633482 159.29536 
L 239.116599 159.86907 
L 239.599716 159.834532 
L 240.56595 160.513438 
L 241.049067 160.132619 
L 241.532183 160.426465 
L 242.0153 160.383222 
L 242.498417 159.592069 
L 242.981534 160.667174 
L 243.464651 159.239572 
L 243.947768 161.504711 
L 244.430885 160.711068 
L 244.914002 160.321193 
L 245.397119 160.334656 
L 245.880235 160.4783 
L 246.363352 160.244258 
L 246.846469 160.241173 
L 247.329586 160.039621 
L 248.778937 158.951886 
L 249.262054 159.1988 
L 249.74517 159.780806 
L 250.228287 159.367018 
L 250.711404 158.507879 
L 251.194521 158.913263 
L 251.677638 158.653872 
L 252.160755 158.552491 
L 252.643872 159.409902 
L 253.126989 159.175904 
L 253.610106 158.624938 
L 254.576339 158.893202 
L 255.542573 160.264354 
L 256.02569 160.201945 
L 256.991924 158.650772 
L 257.475041 159.288537 
L 257.958157 160.520795 
L 258.441274 160.457279 
L 259.407508 158.257941 
L 259.890625 158.619133 
L 260.373742 159.745309 
L 260.856859 159.48481 
L 261.339976 159.978303 
L 261.823093 159.720556 
L 262.306209 159.612132 
L 262.789326 159.841911 
L 263.75556 160.510643 
L 264.721794 159.110659 
L 265.204911 159.040226 
L 265.688028 158.709458 
L 266.171144 159.419005 
L 266.654261 159.173452 
L 267.137378 159.518919 
L 267.620495 158.566461 
L 268.586729 159.499792 
L 269.552963 158.586841 
L 270.03608 158.811935 
L 270.519196 159.308052 
L 271.002313 158.76162 
L 271.48543 157.928456 
L 271.968547 158.267043 
L 272.451664 158.073122 
L 272.934781 158.023908 
L 274.384131 159.418039 
L 274.867248 159.162644 
L 275.350365 158.305005 
L 275.833482 158.181522 
L 276.316599 158.871983 
L 276.799716 158.207984 
L 277.282833 158.920037 
L 277.76595 158.307508 
L 278.249067 158.614952 
L 278.732183 157.895699 
L 279.2153 158.923532 
L 279.698417 158.600683 
L 280.181534 159.982429 
L 280.664651 158.452746 
L 281.147768 158.364598 
L 281.630885 158.53182 
L 282.114002 158.447831 
L 282.597119 159.631004 
L 283.080235 158.702739 
L 284.046469 158.844423 
L 284.529586 158.261884 
L 285.49582 158.876161 
L 285.978937 158.704879 
L 286.462054 158.966426 
L 286.94517 159.070848 
L 287.428287 159.870111 
L 287.911404 159.975019 
L 288.394521 160.596646 
L 288.877638 159.037911 
L 289.360755 159.577581 
L 289.843872 159.919207 
L 290.326989 159.970316 
L 290.810106 160.525837 
L 291.293222 159.82942 
L 291.776339 160.372563 
L 292.259456 160.469565 
L 292.742573 160.440517 
L 293.22569 160.545118 
L 293.708807 161.243255 
L 294.675041 161.95244 
L 295.158157 161.344446 
L 295.641274 162.230849 
L 296.124391 160.694473 
L 296.607508 161.529689 
L 297.090625 161.958084 
L 297.573742 161.981839 
L 298.056859 161.531251 
L 298.539976 162.091559 
L 299.023093 161.080496 
L 299.506209 161.420721 
L 299.989326 161.219607 
L 300.95556 163.802467 
L 301.438677 163.544163 
L 301.921794 162.374592 
L 302.404911 162.509576 
L 302.888028 163.184545 
L 303.371144 162.450438 
L 304.820495 161.216576 
L 305.303612 161.664394 
L 305.786729 161.362429 
L 306.269846 162.075806 
L 306.752963 161.102878 
L 307.23608 163.051107 
L 307.719196 162.817614 
L 308.202313 162.946267 
L 309.168547 162.763962 
L 309.651664 162.839012 
L 310.134781 162.000619 
L 310.617898 162.598769 
L 311.101015 162.378559 
L 311.584131 163.076137 
L 312.067248 162.571522 
L 312.550365 162.729478 
L 313.033482 162.590982 
L 313.516599 162.127056 
L 313.999716 163.018755 
L 314.482833 161.84957 
L 314.96595 162.625888 
L 315.449067 162.543089 
L 315.932183 163.183865 
L 316.4153 162.865179 
L 317.864651 162.964571 
L 318.347768 163.003534 
L 318.830885 161.98191 
L 319.314002 161.799897 
L 319.797119 163.497794 
L 320.280235 162.761521 
L 320.763352 162.260124 
L 321.246469 161.52673 
L 321.729586 162.915428 
L 322.212703 163.518571 
L 322.69582 163.511122 
L 323.178937 163.779869 
L 324.14517 163.292074 
L 324.628287 163.261754 
L 325.111404 164.209916 
L 326.560755 164.29926 
L 327.043872 163.883719 
L 327.526989 164.214976 
L 328.010106 163.611439 
L 328.493222 163.50855 
L 328.976339 163.619804 
L 329.459456 163.517998 
L 329.942573 163.762633 
L 330.42569 163.682833 
L 330.908807 163.927672 
L 331.391924 162.938326 
L 331.875041 163.558524 
L 332.358157 163.570411 
L 332.841274 162.838417 
L 333.324391 163.419215 
L 333.807508 163.034187 
L 334.290625 163.560597 
L 334.773742 162.974609 
L 335.256859 163.22759 
L 335.739976 163.897061 
L 336.706209 163.200592 
L 337.189326 163.883585 
L 337.672443 164.051239 
L 338.638677 163.416856 
L 339.121794 163.617793 
L 339.604911 163.502438 
L 340.088028 163.762088 
L 340.571144 164.287996 
L 341.054261 163.466284 
L 341.537378 163.625181 
L 342.020495 162.927845 
L 342.503612 162.924646 
L 342.986729 163.154536 
L 343.469846 162.913681 
L 344.43608 163.90003 
L 344.919196 164.07757 
L 345.402313 164.574846 
L 345.88543 164.524283 
L 346.368547 165.478911 
L 346.851664 165.009827 
L 347.334781 165.363989 
L 347.817898 165.356022 
L 348.301015 164.90985 
L 348.784131 165.135213 
L 349.267248 164.92389 
L 349.750365 165.118623 
L 350.233482 165.026908 
L 350.716599 165.352702 
L 351.199716 165.29849 
L 352.16595 163.713846 
L 352.649067 164.55012 
L 353.6153 164.198529 
L 354.098417 164.675546 
L 354.581534 164.071193 
L 355.064651 164.222628 
L 355.547768 164.527797 
L 356.030885 164.517816 
L 356.997119 165.291701 
L 357.480235 165.561032 
L 357.963352 164.811283 
L 358.446469 164.988455 
L 358.929586 164.924284 
L 359.412703 164.615151 
L 359.89582 165.583877 
L 360.378937 165.212143 
L 360.862054 165.333861 
L 361.34517 165.323854 
L 361.828287 165.041086 
L 362.311404 164.978663 
L 363.277638 165.200191 
L 363.760755 166.08 
L 364.243872 165.035632 
L 364.726989 165.603331 
L 365.210106 165.86487 
L 365.693222 165.443294 
L 366.176339 166.256202 
L 366.659456 164.694453 
L 367.142573 164.670977 
L 367.62569 164.525527 
L 368.108807 165.21686 
L 368.591924 164.912678 
L 369.075041 165.326199 
L 369.558157 164.488608 
L 370.041274 164.820524 
L 370.524391 165.524774 
L 371.007508 165.617187 
L 371.490625 165.576942 
L 371.973742 164.87486 
L 372.939976 165.961546 
L 373.906209 164.944552 
L 374.389326 165.134178 
L 374.872443 164.885828 
L 375.35556 165.370466 
L 375.838677 164.272193 
L 376.321794 164.729958 
L 376.804911 165.0006 
L 377.288028 164.976294 
L 377.771144 165.602046 
L 378.254261 165.479562 
L 378.737378 165.237788 
L 379.220495 166.108076 
L 379.703612 166.104062 
L 380.186729 165.82227 
L 380.669846 166.256527 
L 381.63608 165.469542 
L 382.119196 165.098018 
L 383.08543 165.534906 
L 383.568547 166.428739 
L 384.534781 165.721829 
L 385.017898 166.143999 
L 385.501015 165.615088 
L 385.984131 166.228039 
L 386.467248 165.061817 
L 386.950365 165.143602 
L 387.433482 165.760576 
L 387.916599 165.561899 
L 388.399716 166.216574 
L 389.36595 165.183599 
L 389.849067 165.018782 
L 390.332183 165.360501 
L 391.298417 165.419201 
L 391.781534 165.360393 
L 392.264651 164.136741 
L 392.747768 165.343897 
L 393.230885 165.572042 
L 393.714002 165.545783 
L 394.680235 164.591578 
L 395.163352 164.512763 
L 395.646469 164.747325 
L 396.129586 165.493837 
L 396.612703 165.139657 
L 397.09582 165.495464 
L 397.578937 164.968325 
L 398.062054 165.539488 
L 398.54517 164.924951 
L 399.028287 165.093261 
L 399.511404 164.996031 
L 399.994521 164.524479 
L 400.477638 164.886919 
L 400.960755 164.47752 
L 401.443872 164.371764 
L 401.926989 163.988204 
L 402.410106 164.644625 
L 402.893222 164.709602 
L 403.376339 164.279329 
L 404.342573 164.712515 
L 404.82569 164.128696 
L 405.308807 164.199866 
L 405.791924 164.096761 
L 406.275041 164.48685 
L 406.758157 164.527779 
L 407.241274 164.707487 
L 408.690625 164.760681 
L 409.173742 164.850835 
L 409.656859 164.799478 
L 410.139976 164.295248 
L 410.623093 164.533537 
L 411.589326 164.375007 
L 412.072443 164.912049 
L 412.55556 164.567608 
L 413.038677 163.712177 
L 413.521794 163.720205 
L 414.004911 164.737969 
L 414.488028 164.51053 
L 415.454261 164.528611 
L 415.937378 164.159422 
L 416.420495 164.156035 
L 417.386729 164.416819 
L 418.352963 164.201238 
L 418.83608 163.689581 
L 419.319196 163.688707 
L 420.28543 164.021742 
L 420.768547 164.40091 
L 421.734781 164.1579 
L 422.217898 164.518102 
L 422.701015 163.675799 
L 423.184131 163.978809 
L 423.667248 164.113678 
L 424.150365 164.586427 
L 424.633482 163.635984 
L 425.116599 164.265889 
L 425.599716 163.462821 
L 426.082833 164.146655 
L 427.049067 164.35971 
L 427.532183 163.949097 
L 428.0153 164.500156 
L 428.498417 164.439221 
L 428.981534 164.258676 
L 429.464651 164.612078 
L 429.947768 164.474929 
L 430.430885 164.662866 
L 430.914002 164.384643 
L 431.397119 165.050381 
L 432.846469 164.638916 
L 433.329586 164.819175 
L 433.812703 164.597301 
L 434.29582 164.516941 
L 434.778937 164.688791 
L 435.262054 165.221928 
L 436.228287 165.576128 
L 436.711404 165.57446 
L 437.194521 166.125497 
L 437.677638 166.924859 
L 438.643872 166.874639 
L 439.126989 166.326228 
L 439.610106 166.215998 
L 440.093222 166.537828 
L 441.059456 166.108848 
L 441.542573 166.486851 
L 442.508807 166.322447 
L 442.991924 166.749162 
L 443.475041 166.739898 
L 443.958157 166.314309 
L 444.441274 166.29515 
L 444.924391 166.754573 
L 445.407508 166.073459 
L 445.890625 166.300046 
L 447.823093 166.655139 
L 449.272443 166.43708 
L 450.238677 166.349224 
L 450.721794 166.578572 
L 451.688028 165.911427 
L 452.171144 166.599712 
L 452.654261 166.763055 
L 454.103612 166.836537 
L 454.586729 166.292862 
L 455.069846 166.114483 
L 455.552963 166.70456 
L 456.03608 166.404543 
L 456.519196 166.949484 
L 457.48543 166.846264 
L 457.968547 167.496116 
L 458.451664 167.106541 
L 458.934781 167.269006 
L 459.417898 166.270429 
L 459.901015 167.076186 
L 460.384131 167.150597 
L 460.867248 166.690862 
L 461.833482 167.016251 
L 462.316599 166.722275 
L 462.799716 167.172367 
L 463.76595 167.300765 
L 464.732183 166.953468 
L 465.2153 166.909695 
L 465.698417 166.667897 
L 466.181534 167.128023 
L 466.664651 167.287949 
L 467.147768 166.953439 
L 467.630885 167.165798 
L 468.114002 167.176958 
L 468.597119 167.776535 
L 469.080235 167.588331 
L 470.529586 168.112648 
L 471.012703 167.814137 
L 471.49582 167.966171 
L 471.978937 167.337813 
L 472.462054 168.231724 
L 472.94517 167.864277 
L 473.428287 167.66535 
L 473.911404 167.930938 
L 474.394521 167.764538 
L 474.877638 167.800716 
L 475.360755 167.605195 
L 476.326989 167.877379 
L 476.810106 167.448346 
L 477.293222 167.595076 
L 477.776339 167.619896 
L 478.259456 167.277464 
L 478.742573 167.257352 
L 479.22569 167.622062 
L 480.191924 167.811488 
L 480.675041 167.2019 
L 481.158157 167.374296 
L 481.641274 167.108636 
L 482.124391 167.529072 
L 482.607508 167.445918 
L 483.090625 167.588031 
L 483.573742 166.986021 
L 484.056859 167.07021 
L 484.539976 167.01968 
L 485.023093 167.131119 
L 485.506209 166.706204 
L 485.989326 167.273783 
L 486.472443 167.4991 
L 486.95556 167.164137 
L 487.438677 167.278401 
L 487.921794 167.029178 
L 488.404911 166.381069 
L 488.888028 166.598948 
L 489.371144 166.362415 
L 489.854261 166.875708 
L 490.820495 166.486489 
L 491.303612 167.00153 
L 491.786729 166.338952 
L 492.269846 167.288716 
L 492.752963 166.475611 
L 493.23608 166.628849 
L 493.719196 166.578035 
L 494.202313 166.994117 
L 494.68543 166.373868 
L 495.651664 167.125379 
L 496.134781 166.9732 
L 496.617898 166.957091 
L 497.101015 167.064731 
L 497.584131 166.882958 
L 498.067248 166.514705 
L 498.550365 166.783083 
L 499.033482 166.270219 
L 499.516599 166.448122 
L 499.999716 167.096922 
L 500.482833 167.182332 
L 500.96595 167.032398 
L 501.449067 166.457706 
L 501.932183 167.0144 
L 502.898417 167.264616 
L 503.381534 166.954706 
L 504.347768 166.860758 
L 504.830885 167.200607 
L 505.314002 166.850006 
L 505.797119 167.223131 
L 506.280235 167.091588 
L 506.763352 167.73185 
L 507.246469 167.645538 
L 507.729586 167.831437 
L 508.212703 167.616765 
L 508.69582 167.043909 
L 509.178937 167.39589 
L 509.662054 166.841559 
L 510.14517 167.512002 
L 510.628287 167.50357 
L 511.111404 167.978246 
L 511.594521 167.672412 
L 512.560755 168.036219 
L 513.043872 167.420888 
L 513.526989 167.485797 
L 514.010106 168.077085 
L 514.493222 168.264032 
L 514.976339 167.662811 
L 515.459456 167.993159 
L 515.942573 167.701559 
L 516.42569 168.175583 
L 516.908807 168.068052 
L 517.391924 168.168252 
L 517.875041 167.917035 
L 518.358157 168.125004 
L 518.841274 167.61821 
L 519.324391 168.034187 
L 519.807508 168.012515 
L 520.290625 167.751495 
L 520.773742 168.214365 
L 521.739976 167.834211 
L 522.223093 168.107223 
L 522.706209 168.052522 
L 523.189326 168.754493 
L 523.672443 167.919724 
L 524.15556 168.417852 
L 524.638677 167.689991 
L 525.604911 167.980679 
L 526.088028 167.810499 
L 526.571144 167.962371 
L 527.054261 167.649031 
L 527.537378 168.198983 
L 528.020495 168.257292 
L 528.503612 167.565095 
L 528.986729 167.666777 
L 529.469846 168.134757 
L 529.952963 167.766729 
L 530.43608 168.068642 
L 530.919196 168.068813 
L 531.402313 168.376111 
L 531.88543 168.323267 
L 532.368547 168.045614 
L 532.851664 168.013065 
L 533.334781 168.729377 
L 533.817898 168.472048 
L 534.301015 167.71081 
L 534.784131 167.839083 
L 535.750365 168.607979 
L 536.233482 168.046909 
L 538.649067 168.339345 
L 540.098417 167.907877 
L 540.581534 167.996859 
L 541.547768 167.956325 
L 542.030885 168.335002 
L 542.997119 168.000615 
L 543.480235 168.34044 
L 543.963352 167.747281 
L 544.446469 167.712023 
L 544.929586 168.375882 
L 545.89582 167.865294 
L 546.378937 168.38259 
L 547.34517 168.289031 
L 547.828287 167.838615 
L 548.311404 168.052053 
L 548.794521 167.46046 
L 549.277638 167.931055 
L 549.760755 167.679184 
L 550.243872 168.034151 
L 550.726989 167.710281 
L 551.693222 167.77079 
L 552.659456 168.24578 
L 553.62569 168.200039 
L 554.108807 167.829781 
L 554.591924 167.958138 
L 555.075041 168.402189 
L 555.558157 168.554432 
L 556.524391 167.649448 
L 557.973742 167.955298 
L 558.456859 168.353654 
L 558.939976 168.307398 
L 559.906209 167.766889 
L 560.389326 167.657628 
L 560.872443 167.845189 
L 561.35556 167.687432 
L 561.838677 167.823104 
L 562.321794 167.392199 
L 562.804911 167.779666 
L 563.288028 167.685633 
L 563.771144 167.89451 
L 564.254261 167.138594 
L 564.737378 167.323921 
L 565.220495 166.796265 
L 565.703612 167.393376 
L 566.669846 167.520812 
L 567.152963 167.150663 
L 567.63608 167.495462 
L 568.119196 167.134297 
L 568.602313 167.550264 
L 569.08543 167.154746 
L 569.568547 167.587608 
L 570.051664 167.21438 
L 570.534781 167.838486 
L 571.017898 167.489968 
L 571.501015 167.505754 
L 571.984131 166.953646 
L 572.467248 167.728569 
L 572.950365 167.637567 
L 573.433482 167.782465 
L 573.916599 167.465462 
L 574.399716 167.6463 
L 574.882833 167.67675 
L 575.36595 168.102737 
L 575.849067 167.422142 
L 576.8153 168.100589 
L 577.298417 167.246586 
L 577.781534 167.871726 
L 578.264651 167.584116 
L 578.747768 167.867532 
L 579.230885 167.406948 
L 579.714002 167.775551 
L 580.197119 167.612994 
L 581.646469 168.130487 
L 583.09582 167.585704 
L 584.062054 167.628664 
L 585.028287 167.73587 
L 585.511404 167.440339 
L 585.994521 167.800343 
L 586.477638 167.998738 
L 586.960755 168.532412 
L 587.926989 167.513484 
L 588.410106 167.855203 
L 589.376339 167.451928 
L 589.859456 167.538191 
L 590.342573 168.188903 
L 590.82569 167.451479 
L 591.308807 167.977264 
L 591.791924 168.058694 
L 592.758157 167.690907 
L 593.724391 168.038624 
L 594.207508 168.365727 
L 594.690625 167.587755 
L 595.173742 168.448506 
L 596.139976 167.49746 
L 596.623093 167.476281 
L 597.106209 167.738096 
L 597.589326 167.755714 
L 598.55556 168.102064 
L 599.521794 167.973858 
L 600.004911 167.760494 
L 600.488028 167.084461 
L 600.971144 167.883118 
L 601.454261 167.614984 
L 601.937378 167.639607 
L 602.420495 168.206244 
L 602.903612 167.68942 
L 603.869846 167.964516 
L 604.352963 167.815619 
L 604.83608 168.022647 
L 605.319196 168.002625 
L 605.802313 167.824684 
L 606.28543 167.434671 
L 606.768547 167.986338 
L 607.734781 167.705748 
L 608.217898 167.930693 
L 608.701015 167.799168 
L 609.184131 168.376478 
L 609.667248 168.00842 
L 610.150365 168.025359 
L 610.633482 167.899444 
L 611.116599 167.988372 
L 612.082833 167.573388 
L 613.049067 167.762593 
L 614.0153 167.372034 
L 614.981534 167.598472 
L 615.464651 167.712845 
L 615.947768 167.160308 
L 616.430885 167.39207 
L 616.914002 167.76882 
L 617.397119 167.932979 
L 617.880235 167.720401 
L 618.363352 167.669139 
L 618.846469 167.028703 
L 619.329586 167.332513 
L 619.812703 167.119462 
L 620.29582 167.400241 
L 622.711404 167.670873 
L 623.677638 167.173844 
L 624.643872 167.124134 
L 625.126989 167.176174 
L 625.126989 167.176174 
" clip-path="url(#p3185801c9e)" style="fill: none; stroke: #1f77b4; stroke-width: 1.5; stroke-linecap: square"/>
   </g>
   <g id="line2d_13">
    <path d="M 117.854261 296.03625 
L 118.820495 219.200503 
L 119.303612 230.492934 
L 119.786729 238.645685 
L 120.269846 213.261152 
L 120.752963 212.54875 
L 121.23608 215.076811 
L 121.719196 205.598168 
L 122.202313 212.181319 
L 122.68543 226.669107 
L 123.651664 196.212776 
L 124.134781 194.413947 
L 124.617898 194.780619 
L 125.101015 201.832737 
L 125.584131 195.235904 
L 126.067248 196.378027 
L 126.550365 194.532246 
L 127.033482 194.186848 
L 127.516599 195.502642 
L 127.999716 184.213625 
L 128.482833 181.165058 
L 129.449067 182.194952 
L 129.932183 186.091654 
L 130.4153 177.656689 
L 130.898417 180.557306 
L 131.381534 182.010728 
L 131.864651 182.333157 
L 132.347768 181.694365 
L 132.830885 181.32096 
L 133.314002 182.390077 
L 133.797119 183.960668 
L 134.280235 184.431872 
L 134.763352 183.194059 
L 135.246469 180.438406 
L 135.729586 181.145129 
L 136.212703 183.060858 
L 136.69582 181.048282 
L 137.178937 180.679822 
L 137.662054 178.011528 
L 138.628287 178.090941 
L 139.111404 178.969227 
L 139.594521 181.172561 
L 140.077638 178.870422 
L 140.560755 177.393865 
L 141.043872 177.781811 
L 141.526989 178.351291 
L 142.010106 176.208669 
L 142.493222 177.343197 
L 142.976339 177.985098 
L 143.459456 180.055569 
L 143.942573 176.730227 
L 144.42569 176.248777 
L 144.908807 179.231779 
L 145.391924 177.708572 
L 145.875041 177.030424 
L 146.358157 176.664959 
L 146.841274 177.691265 
L 147.324391 176.119124 
L 147.807508 176.160455 
L 148.290625 176.32796 
L 148.773742 176.294541 
L 149.256859 177.635459 
L 150.223093 175.798741 
L 150.706209 174.709478 
L 151.189326 176.153952 
L 151.672443 175.127327 
L 152.15556 173.767497 
L 152.638677 175.460951 
L 153.121794 176.586489 
L 153.604911 176.4194 
L 154.088028 177.261133 
L 154.571144 174.063869 
L 155.054261 178.121447 
L 155.537378 174.604464 
L 156.503612 174.564015 
L 156.986729 174.107088 
L 157.469846 175.394572 
L 157.952963 174.377249 
L 158.43608 173.690661 
L 158.919196 174.735638 
L 159.402313 174.466004 
L 159.88543 173.763776 
L 160.368547 174.487707 
L 161.334781 173.128249 
L 161.817898 173.783378 
L 162.301015 172.877454 
L 162.784131 174.449639 
L 163.267248 174.136157 
L 163.750365 174.131147 
L 164.233482 174.543099 
L 164.716599 174.151772 
L 165.199716 171.716959 
L 165.682833 172.428133 
L 166.649067 173.551442 
L 167.132183 171.414805 
L 167.6153 172.531184 
L 168.581534 173.528479 
L 169.064651 174.667006 
L 169.547768 172.879212 
L 170.030885 174.079173 
L 170.514002 174.417489 
L 171.480235 173.861619 
L 171.963352 174.307226 
L 172.446469 172.468632 
L 172.929586 173.093585 
L 173.89582 171.328881 
L 174.378937 172.522737 
L 174.862054 173.248832 
L 175.34517 173.248455 
L 175.828287 172.722076 
L 176.311404 173.191447 
L 176.794521 171.575761 
L 177.277638 171.514487 
L 177.760755 172.497564 
L 178.243872 172.614868 
L 178.726989 172.527716 
L 179.210106 172.901462 
L 179.693222 171.798656 
L 180.176339 172.17445 
L 180.659456 171.36876 
L 181.142573 171.860114 
L 181.62569 172.065286 
L 182.108807 172.853624 
L 182.591924 172.279056 
L 183.075041 172.345809 
L 183.558157 171.40709 
L 184.524391 173.281889 
L 185.007508 171.6027 
L 185.490625 171.572991 
L 185.973742 172.788874 
L 186.456859 173.126234 
L 186.939976 172.833694 
L 187.423093 172.21413 
L 187.906209 173.023502 
L 188.389326 173.20008 
L 188.872443 172.111453 
L 189.35556 172.345466 
L 189.838677 173.241511 
L 190.321794 173.382747 
L 190.804911 171.305869 
L 191.288028 172.329936 
L 191.771144 172.906326 
L 192.254261 172.161376 
L 192.737378 172.618973 
L 193.220495 172.868546 
L 193.703612 172.178703 
L 194.186729 172.386805 
L 194.669846 171.756797 
L 195.152963 172.613199 
L 195.63608 172.735791 
L 196.119196 171.651542 
L 196.602313 171.944659 
L 197.08543 171.896408 
L 197.568547 172.235164 
L 199.017898 172.841949 
L 199.501015 171.593369 
L 199.984131 172.130366 
L 200.467248 172.372364 
L 200.950365 172.074754 
L 201.433482 171.556562 
L 201.916599 172.602379 
L 202.399716 171.34686 
L 202.882833 171.920515 
L 203.36595 171.527562 
L 203.849067 173.732855 
L 204.332183 171.742232 
L 204.8153 172.010685 
L 205.298417 171.679803 
L 205.781534 172.867061 
L 206.264651 172.121979 
L 206.747768 172.252688 
L 207.714002 171.196761 
L 208.197119 171.68482 
L 208.680235 171.334027 
L 209.646469 171.732382 
L 210.129586 171.046097 
L 210.612703 171.840605 
L 211.09582 171.338442 
L 212.062054 171.274296 
L 212.54517 171.527496 
L 213.028287 171.463002 
L 213.994521 171.714048 
L 214.477638 171.527779 
L 214.960755 171.971782 
L 215.443872 171.808757 
L 215.926989 171.239484 
L 216.410106 171.712659 
L 216.893222 171.35515 
L 217.376339 171.253456 
L 217.859456 170.952888 
L 218.342573 171.26288 
L 218.82569 171.751968 
L 219.308807 171.851963 
L 219.791924 171.325347 
L 220.275041 171.013635 
L 221.724391 171.590286 
L 222.207508 171.297249 
L 222.690625 171.551686 
L 223.656859 170.870277 
L 224.139976 170.951387 
L 224.623093 170.706756 
L 225.106209 172.011226 
L 225.589326 171.562232 
L 226.072443 171.393369 
L 226.55556 170.624929 
L 227.038677 170.80561 
L 227.521794 171.546023 
L 228.971144 170.643849 
L 229.454261 171.28086 
L 229.937378 170.960326 
L 230.420495 170.393007 
L 230.903612 171.235045 
L 231.869846 170.199702 
L 232.352963 170.694318 
L 232.83608 171.399415 
L 233.319196 171.077521 
L 233.802313 171.099076 
L 234.28543 170.871475 
L 234.768547 172.392286 
L 235.251664 172.26415 
L 235.734781 171.124406 
L 237.184131 171.044001 
L 237.667248 171.602959 
L 238.150365 171.166176 
L 239.116599 170.812143 
L 239.599716 171.302051 
L 240.082833 172.056204 
L 240.56595 171.356412 
L 241.049067 172.162386 
L 241.532183 170.870293 
L 242.0153 170.933369 
L 242.498417 171.41883 
L 243.464651 171.6746 
L 243.947768 171.327942 
L 244.430885 171.457798 
L 244.914002 171.376492 
L 246.846469 171.6086 
L 247.329586 172.038357 
L 247.812703 171.485702 
L 248.29582 171.201776 
L 248.778937 172.03931 
L 249.262054 171.951895 
L 249.74517 171.029977 
L 250.228287 171.470733 
L 250.711404 171.33633 
L 251.194521 171.788106 
L 251.677638 171.619493 
L 252.160755 171.687032 
L 252.643872 172.066726 
L 253.126989 171.215829 
L 253.610106 170.9907 
L 254.576339 171.888345 
L 255.059456 171.568269 
L 255.542573 171.90961 
L 256.02569 170.651171 
L 256.508807 171.315803 
L 256.991924 171.7623 
L 257.475041 171.30192 
L 257.958157 170.659659 
L 258.441274 171.288779 
L 258.924391 171.490592 
L 259.407508 172.222745 
L 259.890625 172.55833 
L 260.373742 171.034898 
L 260.856859 171.498769 
L 261.339976 171.647811 
L 262.306209 171.370715 
L 262.789326 170.858276 
L 264.721794 171.90754 
L 265.204911 171.958406 
L 265.688028 172.342796 
L 266.171144 171.67289 
L 266.654261 172.154893 
L 267.137378 171.257939 
L 267.620495 171.674141 
L 268.586729 171.049011 
L 269.069846 171.724085 
L 269.552963 172.095347 
L 270.519196 171.377652 
L 271.002313 171.62404 
L 271.48543 171.390359 
L 271.968547 171.60132 
L 272.451664 171.535308 
L 273.417898 171.832293 
L 273.901015 171.367157 
L 274.384131 171.617892 
L 274.867248 171.685619 
L 275.350365 171.618568 
L 276.316599 171.860995 
L 276.799716 172.237446 
L 277.282833 171.005607 
L 277.76595 171.553755 
L 278.249067 171.490333 
L 278.732183 171.592916 
L 279.698417 171.398825 
L 280.181534 171.605477 
L 281.147768 172.38631 
L 281.630885 171.526915 
L 282.114002 171.645364 
L 282.597119 171.371208 
L 283.080235 172.147328 
L 283.563352 171.753966 
L 284.046469 173.179875 
L 284.529586 171.668005 
L 285.012703 171.579546 
L 285.49582 172.096871 
L 285.978937 172.356091 
L 286.462054 172.089167 
L 286.94517 172.553571 
L 287.428287 171.812758 
L 287.911404 171.615187 
L 288.877638 171.69413 
L 289.360755 171.766294 
L 289.843872 172.234649 
L 290.810106 171.674879 
L 291.293222 171.832849 
L 291.776339 172.280615 
L 292.259456 171.622514 
L 292.742573 171.755409 
L 293.22569 172.137954 
L 293.708807 171.268446 
L 294.191924 172.07895 
L 294.675041 171.204316 
L 295.158157 172.061808 
L 295.641274 171.646001 
L 296.124391 171.927455 
L 296.607508 171.965757 
L 297.090625 171.666375 
L 297.573742 171.715999 
L 298.056859 172.314211 
L 298.539976 172.600415 
L 299.506209 172.093801 
L 299.989326 172.294227 
L 300.472443 171.622418 
L 301.438677 171.826495 
L 301.921794 171.737618 
L 302.404911 171.862572 
L 302.888028 171.810099 
L 303.371144 172.003163 
L 303.854261 171.442342 
L 304.337378 171.871399 
L 304.820495 172.112333 
L 305.303612 171.965151 
L 305.786729 171.593799 
L 306.269846 172.424699 
L 306.752963 172.280127 
L 307.23608 171.782763 
L 308.202313 172.362792 
L 309.168547 172.20061 
L 309.651664 172.371535 
L 310.134781 171.999299 
L 311.101015 171.610287 
L 311.584131 171.773116 
L 312.067248 171.682329 
L 312.550365 171.967082 
L 313.033482 171.559341 
L 313.516599 171.909636 
L 314.482833 172.294224 
L 314.96595 171.932208 
L 315.449067 172.584878 
L 315.932183 172.074051 
L 316.4153 171.992196 
L 316.898417 172.04918 
L 317.381534 172.439833 
L 318.830885 171.978719 
L 319.314002 172.222894 
L 319.797119 171.692602 
L 320.280235 172.103561 
L 321.246469 171.90705 
L 321.729586 172.379678 
L 322.212703 171.602559 
L 322.69582 172.046383 
L 323.178937 171.783138 
L 324.14517 172.085609 
L 324.628287 171.771962 
L 325.111404 172.218407 
L 326.077638 172.278004 
L 326.560755 172.469344 
L 327.043872 172.082219 
L 327.526989 172.14542 
L 328.010106 172.415526 
L 328.493222 172.448525 
L 328.976339 171.769688 
L 329.459456 172.670857 
L 329.942573 172.261742 
L 330.42569 172.179617 
L 330.908807 172.75954 
L 331.391924 172.558029 
L 331.875041 171.989123 
L 332.841274 172.108654 
L 333.324391 171.709229 
L 333.807508 172.924987 
L 334.290625 172.155324 
L 334.773742 172.460446 
L 335.256859 172.32577 
L 335.739976 172.626836 
L 336.223093 171.57441 
L 336.706209 172.098787 
L 337.189326 172.167263 
L 337.672443 171.574182 
L 338.638677 171.795719 
L 339.604911 171.727319 
L 340.088028 171.728792 
L 340.571144 172.057989 
L 341.054261 172.197913 
L 341.537378 171.68826 
L 342.020495 172.546455 
L 342.503612 171.75321 
L 342.986729 171.527242 
L 343.469846 171.579348 
L 343.952963 171.491789 
L 344.43608 171.614068 
L 344.919196 171.273213 
L 345.402313 171.721788 
L 346.851664 171.597293 
L 347.334781 171.221748 
L 347.817898 171.946635 
L 348.301015 171.54936 
L 348.784131 171.918295 
L 349.267248 171.70649 
L 349.750365 171.369587 
L 350.233482 172.016757 
L 351.199716 171.647025 
L 351.682833 171.942592 
L 352.16595 171.796667 
L 352.649067 171.462699 
L 353.132183 171.850835 
L 353.6153 171.619728 
L 354.098417 171.633126 
L 354.581534 171.98708 
L 355.064651 171.713236 
L 355.547768 172.227735 
L 356.030885 171.661024 
L 356.514002 171.646745 
L 357.480235 172.171069 
L 358.446469 171.032468 
L 358.929586 171.890426 
L 359.412703 171.742362 
L 359.89582 171.418415 
L 360.378937 172.147392 
L 360.862054 171.921093 
L 361.34517 171.482523 
L 362.311404 172.073854 
L 362.794521 171.643588 
L 364.243872 171.546255 
L 364.726989 171.764198 
L 365.693222 171.069354 
L 366.176339 171.377002 
L 366.659456 172.050453 
L 367.142573 171.849916 
L 367.62569 171.860143 
L 368.108807 171.732915 
L 368.591924 171.303851 
L 369.558157 171.520633 
L 370.041274 171.730886 
L 370.524391 171.33955 
L 371.007508 171.775897 
L 371.490625 171.614878 
L 371.973742 172.277533 
L 372.456859 171.669711 
L 372.939976 172.172951 
L 373.423093 171.577625 
L 374.389326 171.483749 
L 374.872443 171.242414 
L 375.35556 171.979101 
L 375.838677 171.568908 
L 376.321794 171.468434 
L 376.804911 171.70582 
L 377.771144 171.783909 
L 378.254261 171.418185 
L 379.703612 171.594637 
L 380.186729 171.242859 
L 380.669846 171.826873 
L 381.152963 171.309659 
L 383.08543 171.853016 
L 384.534781 171.472713 
L 385.017898 171.307203 
L 385.501015 171.710485 
L 385.984131 171.574469 
L 386.467248 171.971282 
L 386.950365 171.285448 
L 387.433482 171.703686 
L 387.916599 171.380695 
L 388.399716 171.65969 
L 388.882833 171.250398 
L 389.36595 171.299857 
L 389.849067 171.575726 
L 390.332183 171.207537 
L 390.8153 171.86768 
L 391.298417 171.19964 
L 391.781534 171.064495 
L 392.264651 171.7875 
L 392.747768 171.064782 
L 393.230885 171.187348 
L 393.714002 171.604023 
L 394.680235 171.888027 
L 395.163352 171.30301 
L 395.646469 171.529095 
L 396.129586 171.497257 
L 396.612703 171.123619 
L 397.09582 171.158037 
L 397.578937 171.644663 
L 398.062054 171.830987 
L 398.54517 171.507214 
L 399.028287 171.34703 
L 399.511404 171.353478 
L 399.994521 171.722931 
L 400.477638 171.612591 
L 400.960755 171.653517 
L 401.926989 171.530283 
L 402.410106 171.6877 
L 402.893222 171.372083 
L 403.376339 171.415048 
L 403.859456 171.635205 
L 404.342573 171.574652 
L 404.82569 171.128399 
L 405.308807 171.523431 
L 405.791924 171.600522 
L 406.758157 171.312941 
L 407.241274 171.421824 
L 409.173742 171.458953 
L 409.656859 171.765277 
L 410.623093 171.500581 
L 412.072443 171.648895 
L 412.55556 171.615499 
L 413.038677 171.336644 
L 413.521794 171.447294 
L 414.004911 171.880552 
L 414.488028 171.525351 
L 414.971144 171.413842 
L 415.454261 171.716409 
L 415.937378 171.406692 
L 416.420495 171.650598 
L 417.869846 171.850013 
L 418.352963 171.87875 
L 418.83608 171.544947 
L 419.319196 171.690293 
L 420.28543 171.612162 
L 420.768547 172.042311 
L 421.251664 171.602169 
L 421.734781 171.76101 
L 422.217898 171.60049 
L 422.701015 171.575155 
L 423.184131 171.782807 
L 423.667248 171.303394 
L 424.633482 172.22686 
L 425.116599 171.385557 
L 425.599716 171.749951 
L 426.082833 171.570733 
L 426.56595 171.623055 
L 427.049067 171.915835 
L 427.532183 171.576743 
L 428.0153 171.468432 
L 428.498417 171.920446 
L 428.981534 171.957665 
L 429.464651 171.390786 
L 429.947768 171.646143 
L 430.430885 171.629102 
L 431.397119 171.816926 
L 431.880235 171.68513 
L 432.363352 171.806109 
L 432.846469 172.046569 
L 433.329586 171.297708 
L 433.812703 171.603883 
L 434.29582 171.772949 
L 434.778937 171.6523 
L 435.262054 171.374826 
L 436.228287 171.427694 
L 436.711404 172.009548 
L 437.194521 171.364036 
L 438.160755 171.599214 
L 438.643872 171.182616 
L 439.126989 171.62443 
L 440.093222 171.831593 
L 440.576339 171.542116 
L 441.059456 171.764636 
L 441.542573 171.463287 
L 442.02569 171.438166 
L 442.508807 172.100975 
L 442.991924 171.765845 
L 443.475041 171.61204 
L 445.407508 172.221847 
L 446.373742 171.520257 
L 446.856859 171.400278 
L 447.339976 171.564072 
L 447.823093 171.512417 
L 448.789326 171.61739 
L 449.272443 171.554389 
L 449.75556 171.908901 
L 450.238677 171.477327 
L 450.721794 172.091608 
L 451.204911 171.467854 
L 452.654261 171.666127 
L 453.137378 172.186488 
L 453.620495 171.742804 
L 455.069846 171.590847 
L 455.552963 171.158404 
L 456.03608 171.528959 
L 457.968547 171.420891 
L 458.451664 171.722485 
L 458.934781 171.863264 
L 459.417898 171.796162 
L 459.901015 171.490731 
L 460.384131 171.445488 
L 460.867248 171.680148 
L 461.350365 171.6821 
L 461.833482 171.293901 
L 462.316599 171.103215 
L 462.799716 171.539433 
L 463.76595 171.441867 
L 465.2153 171.648299 
L 465.698417 171.515511 
L 466.181534 171.614487 
L 467.630885 171.289406 
L 468.114002 171.409006 
L 468.597119 171.19151 
L 469.080235 171.651945 
L 469.563352 170.761083 
L 470.046469 170.987507 
L 470.529586 170.596013 
L 471.012703 170.737447 
L 471.49582 170.661208 
L 471.978937 170.928541 
L 472.94517 171.102284 
L 473.428287 171.42396 
L 473.911404 170.886879 
L 474.394521 171.345256 
L 474.877638 171.01546 
L 475.360755 171.26267 
L 476.326989 171.009744 
L 476.810106 170.808042 
L 477.293222 171.328662 
L 477.776339 170.938545 
L 478.259456 170.867777 
L 479.22569 171.161667 
L 479.708807 171.29173 
L 480.191924 170.840532 
L 480.675041 171.08189 
L 481.158157 171.124606 
L 481.641274 171.29218 
L 482.124391 171.137038 
L 482.607508 171.198372 
L 483.090625 171.599172 
L 483.573742 171.300605 
L 484.056859 171.175879 
L 484.539976 171.381855 
L 485.023093 171.287735 
L 485.506209 171.65396 
L 485.989326 171.319707 
L 486.472443 171.636511 
L 486.95556 171.403219 
L 487.438677 171.330179 
L 487.921794 170.920461 
L 488.404911 171.171368 
L 488.888028 171.198484 
L 489.371144 170.872133 
L 489.854261 171.144007 
L 491.303612 171.376753 
L 491.786729 171.557049 
L 492.269846 171.08047 
L 492.752963 171.45491 
L 493.23608 171.121281 
L 493.719196 171.235663 
L 494.202313 171.595601 
L 494.68543 171.396206 
L 496.134781 171.330871 
L 496.617898 170.934157 
L 497.101015 170.870753 
L 497.584131 171.170502 
L 498.067248 170.882795 
L 498.550365 171.036573 
L 499.033482 171.026358 
L 499.999716 171.299812 
L 500.482833 170.904056 
L 500.96595 171.293444 
L 501.449067 171.157349 
L 502.4153 171.257007 
L 503.381534 171.341784 
L 503.864651 171.881538 
L 504.347768 171.190762 
L 504.830885 170.920531 
L 505.314002 171.002608 
L 505.797119 170.940161 
L 506.280235 171.236111 
L 506.763352 170.691898 
L 507.246469 170.6631 
L 507.729586 171.289256 
L 508.212703 170.834097 
L 508.69582 171.337713 
L 509.178937 170.954675 
L 509.662054 170.995028 
L 510.628287 170.695438 
L 511.111404 170.874813 
L 512.077638 171.045581 
L 512.560755 171.791283 
L 513.526989 170.743319 
L 514.010106 170.589246 
L 514.976339 171.082335 
L 515.459456 170.878595 
L 515.942573 171.202007 
L 516.42569 170.834619 
L 516.908807 170.857913 
L 517.875041 171.258332 
L 518.358157 170.645336 
L 518.841274 170.801055 
L 519.324391 171.163091 
L 520.290625 171.148606 
L 520.773742 171.214201 
L 521.256859 171.105061 
L 521.739976 170.849566 
L 522.223093 170.933592 
L 522.706209 171.135447 
L 523.672443 171.022335 
L 524.15556 171.532721 
L 525.121794 171.081306 
L 525.604911 171.417653 
L 526.088028 170.865572 
L 526.571144 171.186786 
L 527.054261 171.2233 
L 527.537378 171.100225 
L 529.469846 171.417797 
L 529.952963 171.003962 
L 530.43608 170.873678 
L 530.919196 171.19923 
L 531.402313 170.9147 
L 531.88543 171.176549 
L 532.368547 170.720087 
L 532.851664 171.221837 
L 533.334781 170.825395 
L 534.301015 170.903701 
L 534.784131 170.894215 
L 535.267248 171.263465 
L 535.750365 170.896899 
L 536.233482 171.064158 
L 536.716599 170.930889 
L 537.682833 170.953442 
L 538.16595 170.660597 
L 538.649067 170.829386 
L 539.132183 171.134191 
L 539.6153 171.278856 
L 540.098417 171.285917 
L 541.064651 171.133321 
L 541.547768 171.228559 
L 542.030885 171.011475 
L 542.514002 171.071401 
L 542.997119 170.969186 
L 543.480235 171.117366 
L 543.963352 170.902941 
L 544.446469 171.340473 
L 544.929586 171.330764 
L 545.412703 171.442246 
L 545.89582 171.170754 
L 547.34517 171.073413 
L 547.828287 171.224513 
L 548.794521 171.200761 
L 549.277638 170.932061 
L 549.760755 170.85153 
L 550.243872 171.272058 
L 550.726989 170.919905 
L 551.693222 171.328001 
L 552.176339 170.945018 
L 552.659456 170.93693 
L 553.142573 171.191192 
L 553.62569 171.629335 
L 554.591924 171.045536 
L 555.075041 171.168376 
L 555.558157 171.41437 
L 556.041274 171.020584 
L 556.524391 171.11746 
L 557.007508 171.086986 
L 557.490625 171.190889 
L 558.456859 171.170039 
L 558.939976 171.433766 
L 559.423093 171.231394 
L 559.906209 171.416421 
L 562.321794 171.1695 
L 562.804911 171.255996 
L 563.288028 171.201189 
L 564.254261 170.894037 
L 566.186729 171.19389 
L 567.152963 170.958544 
L 568.119196 171.520634 
L 568.602313 171.119372 
L 569.08543 171.018045 
L 569.568547 171.67436 
L 570.051664 171.09071 
L 570.534781 171.354111 
L 571.501015 170.839483 
L 571.984131 170.719592 
L 572.467248 170.840227 
L 572.950365 170.708209 
L 573.433482 170.893917 
L 573.916599 171.223553 
L 574.399716 170.712814 
L 574.882833 170.735789 
L 575.36595 170.56253 
L 575.849067 170.978219 
L 576.332183 170.867546 
L 577.298417 171.072234 
L 577.781534 170.655839 
L 578.264651 170.698314 
L 578.747768 171.11127 
L 579.230885 170.684368 
L 580.680235 171.266159 
L 581.163352 171.20957 
L 581.646469 170.876477 
L 582.129586 171.059444 
L 583.09582 170.926751 
L 583.578937 170.696355 
L 584.062054 170.808768 
L 584.54517 171.218476 
L 586.477638 170.606371 
L 586.960755 170.938834 
L 587.443872 170.807869 
L 587.926989 170.850105 
L 588.410106 170.759542 
L 588.893222 170.856284 
L 589.376339 171.272716 
L 589.859456 170.761774 
L 590.342573 170.881607 
L 591.308807 170.761931 
L 591.791924 170.918663 
L 592.275041 170.768164 
L 592.758157 171.215186 
L 593.241274 171.017064 
L 593.724391 171.250301 
L 594.207508 170.951181 
L 595.656859 170.750064 
L 596.139976 170.934623 
L 596.623093 170.891714 
L 597.106209 171.047805 
L 597.589326 170.738098 
L 598.55556 170.735819 
L 599.038677 171.010138 
L 599.521794 170.904273 
L 600.004911 170.954422 
L 600.971144 171.288385 
L 601.454261 171.017768 
L 602.420495 170.684863 
L 602.903612 170.925244 
L 603.386729 170.765478 
L 604.352963 171.199506 
L 604.83608 171.148805 
L 605.319196 171.398969 
L 605.802313 170.721241 
L 606.28543 170.982733 
L 607.251664 171.023371 
L 607.734781 170.609744 
L 608.217898 171.056523 
L 609.667248 170.571225 
L 610.150365 170.84737 
L 610.633482 170.748957 
L 611.116599 170.807698 
L 612.56595 170.51698 
L 613.049067 170.745012 
L 613.532183 170.786442 
L 614.0153 171.193776 
L 614.498417 170.903311 
L 614.981534 171.058865 
L 615.464651 170.887706 
L 615.947768 170.952627 
L 616.430885 170.813599 
L 616.914002 171.215764 
L 617.397119 170.740278 
L 617.880235 170.613744 
L 618.846469 170.579924 
L 619.812703 171.092789 
L 620.778937 170.837638 
L 621.262054 170.913837 
L 621.74517 170.727723 
L 622.228287 170.969048 
L 622.711404 170.825615 
L 623.194521 170.889193 
L 623.677638 171.108736 
L 624.160755 171.187159 
L 624.643872 171.147762 
L 625.126989 170.533143 
L 625.126989 170.533143 
" clip-path="url(#p3185801c9e)" style="fill: none; stroke: #ff7f0e; stroke-width: 1.5; stroke-linecap: square"/>
   </g>
   <g id="patch_3">
    <path d="M 92.490625 308.63625 
L 92.490625 31.43625 
" style="fill: none; stroke: #000000; stroke-width: 0.8; stroke-linejoin: miter; stroke-linecap: square"/>
   </g>
   <g id="patch_4">
    <path d="M 650.490625 308.63625 
L 650.490625 31.43625 
" style="fill: none; stroke: #000000; stroke-width: 0.8; stroke-linejoin: miter; stroke-linecap: square"/>
   </g>
   <g id="patch_5">
    <path d="M 92.490625 308.63625 
L 650.490625 308.63625 
" style="fill: none; stroke: #000000; stroke-width: 0.8; stroke-linejoin: miter; stroke-linecap: square"/>
   </g>
   <g id="patch_6">
    <path d="M 92.490625 31.43625 
L 650.490625 31.43625 
" style="fill: none; stroke: #000000; stroke-width: 0.8; stroke-linejoin: miter; stroke-linecap: square"/>
   </g>
   <g id="text_14">
    <!-- Generator and Discriminator Loss During Training -->
    <g transform="translate(74.258125 25.43625) scale(0.24 -0.24)">
     <defs>
      <path id="DejaVuSans-47" d="M 3809 666 
L 3809 1919 
L 2778 1919 
L 2778 2438 
L 4434 2438 
L 4434 434 
Q 4069 175 3628 42 
Q 3188 -91 2688 -91 
Q 1594 -91 976 548 
Q 359 1188 359 2328 
Q 359 3472 976 4111 
Q 1594 4750 2688 4750 
Q 3144 4750 3555 4637 
Q 3966 4525 4313 4306 
L 4313 3634 
Q 3963 3931 3569 4081 
Q 3175 4231 2741 4231 
Q 1884 4231 1454 3753 
Q 1025 3275 1025 2328 
Q 1025 1384 1454 906 
Q 1884 428 2741 428 
Q 3075 428 3337 486 
Q 3600 544 3809 666 
z
" transform="scale(0.015625)"/>
      <path id="DejaVuSans-20" transform="scale(0.015625)"/>
      <path id="DejaVuSans-64" d="M 2906 2969 
L 2906 4863 
L 3481 4863 
L 3481 0 
L 2906 0 
L 2906 525 
Q 2725 213 2448 61 
Q 2172 -91 1784 -91 
Q 1150 -91 751 415 
Q 353 922 353 1747 
Q 353 2572 751 3078 
Q 1150 3584 1784 3584 
Q 2172 3584 2448 3432 
Q 2725 3281 2906 2969 
z
M 947 1747 
Q 947 1113 1208 752 
Q 1469 391 1925 391 
Q 2381 391 2643 752 
Q 2906 1113 2906 1747 
Q 2906 2381 2643 2742 
Q 2381 3103 1925 3103 
Q 1469 3103 1208 2742 
Q 947 2381 947 1747 
z
" transform="scale(0.015625)"/>
      <path id="DejaVuSans-44" d="M 1259 4147 
L 1259 519 
L 2022 519 
Q 2988 519 3436 956 
Q 3884 1394 3884 2338 
Q 3884 3275 3436 3711 
Q 2988 4147 2022 4147 
L 1259 4147 
z
M 628 4666 
L 1925 4666 
Q 3281 4666 3915 4102 
Q 4550 3538 4550 2338 
Q 4550 1131 3912 565 
Q 3275 0 1925 0 
L 628 0 
L 628 4666 
z
" transform="scale(0.015625)"/>
      <path id="DejaVuSans-63" d="M 3122 3366 
L 3122 2828 
Q 2878 2963 2633 3030 
Q 2388 3097 2138 3097 
Q 1578 3097 1268 2742 
Q 959 2388 959 1747 
Q 959 1106 1268 751 
Q 1578 397 2138 397 
Q 2388 397 2633 464 
Q 2878 531 3122 666 
L 3122 134 
Q 2881 22 2623 -34 
Q 2366 -91 2075 -91 
Q 1284 -91 818 406 
Q 353 903 353 1747 
Q 353 2603 823 3093 
Q 1294 3584 2113 3584 
Q 2378 3584 2631 3529 
Q 2884 3475 3122 3366 
z
" transform="scale(0.015625)"/>
      <path id="DejaVuSans-6d" d="M 3328 2828 
Q 3544 3216 3844 3400 
Q 4144 3584 4550 3584 
Q 5097 3584 5394 3201 
Q 5691 2819 5691 2113 
L 5691 0 
L 5113 0 
L 5113 2094 
Q 5113 2597 4934 2840 
Q 4756 3084 4391 3084 
Q 3944 3084 3684 2787 
Q 3425 2491 3425 1978 
L 3425 0 
L 2847 0 
L 2847 2094 
Q 2847 2600 2669 2842 
Q 2491 3084 2119 3084 
Q 1678 3084 1418 2786 
Q 1159 2488 1159 1978 
L 1159 0 
L 581 0 
L 581 3500 
L 1159 3500 
L 1159 2956 
Q 1356 3278 1631 3431 
Q 1906 3584 2284 3584 
Q 2666 3584 2933 3390 
Q 3200 3197 3328 2828 
z
" transform="scale(0.015625)"/>
      <path id="DejaVuSans-75" d="M 544 1381 
L 544 3500 
L 1119 3500 
L 1119 1403 
Q 1119 906 1312 657 
Q 1506 409 1894 409 
Q 2359 409 2629 706 
Q 2900 1003 2900 1516 
L 2900 3500 
L 3475 3500 
L 3475 0 
L 2900 0 
L 2900 538 
Q 2691 219 2414 64 
Q 2138 -91 1772 -91 
Q 1169 -91 856 284 
Q 544 659 544 1381 
z
M 1991 3584 
L 1991 3584 
z
" transform="scale(0.015625)"/>
      <path id="DejaVuSans-67" d="M 2906 1791 
Q 2906 2416 2648 2759 
Q 2391 3103 1925 3103 
Q 1463 3103 1205 2759 
Q 947 2416 947 1791 
Q 947 1169 1205 825 
Q 1463 481 1925 481 
Q 2391 481 2648 825 
Q 2906 1169 2906 1791 
z
M 3481 434 
Q 3481 -459 3084 -895 
Q 2688 -1331 1869 -1331 
Q 1566 -1331 1297 -1286 
Q 1028 -1241 775 -1147 
L 775 -588 
Q 1028 -725 1275 -790 
Q 1522 -856 1778 -856 
Q 2344 -856 2625 -561 
Q 2906 -266 2906 331 
L 2906 616 
Q 2728 306 2450 153 
Q 2172 0 1784 0 
Q 1141 0 747 490 
Q 353 981 353 1791 
Q 353 2603 747 3093 
Q 1141 3584 1784 3584 
Q 2172 3584 2450 3431 
Q 2728 3278 2906 2969 
L 2906 3500 
L 3481 3500 
L 3481 434 
z
" transform="scale(0.015625)"/>
      <path id="DejaVuSans-54" d="M -19 4666 
L 3928 4666 
L 3928 4134 
L 2272 4134 
L 2272 0 
L 1638 0 
L 1638 4134 
L -19 4134 
L -19 4666 
z
" transform="scale(0.015625)"/>
     </defs>
     <use xlink:href="#DejaVuSans-47"/>
     <use xlink:href="#DejaVuSans-65" x="77.490234"/>
     <use xlink:href="#DejaVuSans-6e" x="139.013672"/>
     <use xlink:href="#DejaVuSans-65" x="202.392578"/>
     <use xlink:href="#DejaVuSans-72" x="263.916016"/>
     <use xlink:href="#DejaVuSans-61" x="305.029297"/>
     <use xlink:href="#DejaVuSans-74" x="366.308594"/>
     <use xlink:href="#DejaVuSans-6f" x="405.517578"/>
     <use xlink:href="#DejaVuSans-72" x="466.699219"/>
     <use xlink:href="#DejaVuSans-20" x="507.8125"/>
     <use xlink:href="#DejaVuSans-61" x="539.599609"/>
     <use xlink:href="#DejaVuSans-6e" x="600.878906"/>
     <use xlink:href="#DejaVuSans-64" x="664.257812"/>
     <use xlink:href="#DejaVuSans-20" x="727.734375"/>
     <use xlink:href="#DejaVuSans-44" x="759.521484"/>
     <use xlink:href="#DejaVuSans-69" x="836.523438"/>
     <use xlink:href="#DejaVuSans-73" x="864.306641"/>
     <use xlink:href="#DejaVuSans-63" x="916.40625"/>
     <use xlink:href="#DejaVuSans-72" x="971.386719"/>
     <use xlink:href="#DejaVuSans-69" x="1012.5"/>
     <use xlink:href="#DejaVuSans-6d" x="1040.283203"/>
     <use xlink:href="#DejaVuSans-69" x="1137.695312"/>
     <use xlink:href="#DejaVuSans-6e" x="1165.478516"/>
     <use xlink:href="#DejaVuSans-61" x="1228.857422"/>
     <use xlink:href="#DejaVuSans-74" x="1290.136719"/>
     <use xlink:href="#DejaVuSans-6f" x="1329.345703"/>
     <use xlink:href="#DejaVuSans-72" x="1390.527344"/>
     <use xlink:href="#DejaVuSans-20" x="1431.640625"/>
     <use xlink:href="#DejaVuSans-4c" x="1463.427734"/>
     <use xlink:href="#DejaVuSans-6f" x="1517.390625"/>
     <use xlink:href="#DejaVuSans-73" x="1578.572266"/>
     <use xlink:href="#DejaVuSans-73" x="1630.671875"/>
     <use xlink:href="#DejaVuSans-20" x="1682.771484"/>
     <use xlink:href="#DejaVuSans-44" x="1714.558594"/>
     <use xlink:href="#DejaVuSans-75" x="1791.560547"/>
     <use xlink:href="#DejaVuSans-72" x="1854.939453"/>
     <use xlink:href="#DejaVuSans-69" x="1896.052734"/>
     <use xlink:href="#DejaVuSans-6e" x="1923.835938"/>
     <use xlink:href="#DejaVuSans-67" x="1987.214844"/>
     <use xlink:href="#DejaVuSans-20" x="2050.691406"/>
     <use xlink:href="#DejaVuSans-54" x="2082.478516"/>
     <use xlink:href="#DejaVuSans-72" x="2128.8125"/>
     <use xlink:href="#DejaVuSans-61" x="2169.925781"/>
     <use xlink:href="#DejaVuSans-69" x="2231.205078"/>
     <use xlink:href="#DejaVuSans-6e" x="2258.988281"/>
     <use xlink:href="#DejaVuSans-69" x="2322.367188"/>
     <use xlink:href="#DejaVuSans-6e" x="2350.150391"/>
     <use xlink:href="#DejaVuSans-67" x="2413.529297"/>
    </g>
   </g>
   <g id="legend_1">
    <g id="patch_7">
     <path d="M 556.99375 106.14875 
L 636.490625 106.14875 
Q 640.490625 106.14875 640.490625 102.14875 
L 640.490625 45.43625 
Q 640.490625 41.43625 636.490625 41.43625 
L 556.99375 41.43625 
Q 552.99375 41.43625 552.99375 45.43625 
L 552.99375 102.14875 
Q 552.99375 106.14875 556.99375 106.14875 
z
" style="fill: #ffffff; opacity: 0.8; stroke: #cccccc; stroke-linejoin: miter"/>
    </g>
    <g id="line2d_14">
     <path d="M 560.99375 57.633125 
L 580.99375 57.633125 
L 600.99375 57.633125 
" style="fill: none; stroke: #1f77b4; stroke-width: 1.5; stroke-linecap: square"/>
    </g>
    <g id="text_15">
     <!-- G -->
     <g transform="translate(616.99375 64.633125) scale(0.2 -0.2)">
      <use xlink:href="#DejaVuSans-47"/>
     </g>
    </g>
    <g id="line2d_15">
     <path d="M 560.99375 86.989375 
L 580.99375 86.989375 
L 600.99375 86.989375 
" style="fill: none; stroke: #ff7f0e; stroke-width: 1.5; stroke-linecap: square"/>
    </g>
    <g id="text_16">
     <!-- D -->
     <g transform="translate(616.99375 93.989375) scale(0.2 -0.2)">
      <use xlink:href="#DejaVuSans-44"/>
     </g>
    </g>
   </g>
  </g>
 </g>
 <defs>
  <clipPath id="p3185801c9e">
   <rect x="92.490625" y="31.43625" width="558" height="277.2"/>
  </clipPath>
 </defs>
</svg>
