<?xml version="1.0" encoding="utf-8" standalone="no"?>
<!DOCTYPE svg PUBLIC "-//W3C//DTD SVG 1.1//EN"
  "http://www.w3.org/Graphics/SVG/1.1/DTD/svg11.dtd">
<svg xmlns:xlink="http://www.w3.org/1999/xlink" width="675.923125pt" height="365.54875pt" viewBox="0 0 675.923125 365.54875" xmlns="http://www.w3.org/2000/svg" version="1.1">
 <metadata>
  <rdf:RDF xmlns:dc="http://purl.org/dc/elements/1.1/" xmlns:cc="http://creativecommons.org/ns#" xmlns:rdf="http://www.w3.org/1999/02/22-rdf-syntax-ns#">
   <cc:Work>
    <dc:type rdf:resource="http://purl.org/dc/dcmitype/StillImage"/>
    <dc:date>2024-02-12T18:52:44.544717</dc:date>
    <dc:format>image/svg+xml</dc:format>
    <dc:creator>
     <cc:Agent>
      <dc:title>Matplotlib v3.7.2, https://matplotlib.org/</dc:title>
     </cc:Agent>
    </dc:creator>
   </cc:Work>
  </rdf:RDF>
 </metadata>
 <defs>
  <style type="text/css">*{stroke-linejoin: round; stroke-linecap: butt}</style>
 </defs>
 <g id="figure_1">
  <g id="patch_1">
   <path d="M 0 365.54875 
L 675.923125 365.54875 
L 675.923125 -0 
L 0 -0 
z
" style="fill: #ffffff"/>
  </g>
  <g id="axes_1">
   <g id="patch_2">
    <path d="M 92.490625 308.63625 
L 650.490625 308.63625 
L 650.490625 31.43625 
L 92.490625 31.43625 
z
" style="fill: #ffffff"/>
   </g>
   <g id="matplotlib.axis_1">
    <g id="xtick_1">
     <g id="line2d_1">
      <defs>
       <path id="m8f0faec632" d="M 0 0 
L 0 3.5 
" style="stroke: #000000; stroke-width: 0.8"/>
      </defs>
      <g>
       <use xlink:href="#m8f0faec632" x="117.854261" y="308.63625" style="stroke: #000000; stroke-width: 0.8"/>
      </g>
     </g>
     <g id="text_1">
      <!-- 0 -->
      <g transform="translate(111.491761 330.833125) scale(0.2 -0.2)">
       <defs>
        <path id="DejaVuSans-30" d="M 2034 4250 
Q 1547 4250 1301 3770 
Q 1056 3291 1056 2328 
Q 1056 1369 1301 889 
Q 1547 409 2034 409 
Q 2525 409 2770 889 
Q 3016 1369 3016 2328 
Q 3016 3291 2770 3770 
Q 2525 4250 2034 4250 
z
M 2034 4750 
Q 2819 4750 3233 4129 
Q 3647 3509 3647 2328 
Q 3647 1150 3233 529 
Q 2819 -91 2034 -91 
Q 1250 -91 836 529 
Q 422 1150 422 2328 
Q 422 3509 836 4129 
Q 1250 4750 2034 4750 
z
" transform="scale(0.015625)"/>
       </defs>
       <use xlink:href="#DejaVuSans-30"/>
      </g>
     </g>
    </g>
    <g id="xtick_2">
     <g id="line2d_2">
      <g>
       <use xlink:href="#m8f0faec632" x="190.321794" y="308.63625" style="stroke: #000000; stroke-width: 0.8"/>
      </g>
     </g>
     <g id="text_2">
      <!-- 200 -->
      <g transform="translate(171.234294 330.833125) scale(0.2 -0.2)">
       <defs>
        <path id="DejaVuSans-32" d="M 1228 531 
L 3431 531 
L 3431 0 
L 469 0 
L 469 531 
Q 828 903 1448 1529 
Q 2069 2156 2228 2338 
Q 2531 2678 2651 2914 
Q 2772 3150 2772 3378 
Q 2772 3750 2511 3984 
Q 2250 4219 1831 4219 
Q 1534 4219 1204 4116 
Q 875 4013 500 3803 
L 500 4441 
Q 881 4594 1212 4672 
Q 1544 4750 1819 4750 
Q 2544 4750 2975 4387 
Q 3406 4025 3406 3419 
Q 3406 3131 3298 2873 
Q 3191 2616 2906 2266 
Q 2828 2175 2409 1742 
Q 1991 1309 1228 531 
z
" transform="scale(0.015625)"/>
       </defs>
       <use xlink:href="#DejaVuSans-32"/>
       <use xlink:href="#DejaVuSans-30" x="63.623047"/>
       <use xlink:href="#DejaVuSans-30" x="127.246094"/>
      </g>
     </g>
    </g>
    <g id="xtick_3">
     <g id="line2d_3">
      <g>
       <use xlink:href="#m8f0faec632" x="262.789326" y="308.63625" style="stroke: #000000; stroke-width: 0.8"/>
      </g>
     </g>
     <g id="text_3">
      <!-- 400 -->
      <g transform="translate(243.701826 330.833125) scale(0.2 -0.2)">
       <defs>
        <path id="DejaVuSans-34" d="M 2419 4116 
L 825 1625 
L 2419 1625 
L 2419 4116 
z
M 2253 4666 
L 3047 4666 
L 3047 1625 
L 3713 1625 
L 3713 1100 
L 3047 1100 
L 3047 0 
L 2419 0 
L 2419 1100 
L 313 1100 
L 313 1709 
L 2253 4666 
z
" transform="scale(0.015625)"/>
       </defs>
       <use xlink:href="#DejaVuSans-34"/>
       <use xlink:href="#DejaVuSans-30" x="63.623047"/>
       <use xlink:href="#DejaVuSans-30" x="127.246094"/>
      </g>
     </g>
    </g>
    <g id="xtick_4">
     <g id="line2d_4">
      <g>
       <use xlink:href="#m8f0faec632" x="335.256859" y="308.63625" style="stroke: #000000; stroke-width: 0.8"/>
      </g>
     </g>
     <g id="text_4">
      <!-- 600 -->
      <g transform="translate(316.169359 330.833125) scale(0.2 -0.2)">
       <defs>
        <path id="DejaVuSans-36" d="M 2113 2584 
Q 1688 2584 1439 2293 
Q 1191 2003 1191 1497 
Q 1191 994 1439 701 
Q 1688 409 2113 409 
Q 2538 409 2786 701 
Q 3034 994 3034 1497 
Q 3034 2003 2786 2293 
Q 2538 2584 2113 2584 
z
M 3366 4563 
L 3366 3988 
Q 3128 4100 2886 4159 
Q 2644 4219 2406 4219 
Q 1781 4219 1451 3797 
Q 1122 3375 1075 2522 
Q 1259 2794 1537 2939 
Q 1816 3084 2150 3084 
Q 2853 3084 3261 2657 
Q 3669 2231 3669 1497 
Q 3669 778 3244 343 
Q 2819 -91 2113 -91 
Q 1303 -91 875 529 
Q 447 1150 447 2328 
Q 447 3434 972 4092 
Q 1497 4750 2381 4750 
Q 2619 4750 2861 4703 
Q 3103 4656 3366 4563 
z
" transform="scale(0.015625)"/>
       </defs>
       <use xlink:href="#DejaVuSans-36"/>
       <use xlink:href="#DejaVuSans-30" x="63.623047"/>
       <use xlink:href="#DejaVuSans-30" x="127.246094"/>
      </g>
     </g>
    </g>
    <g id="xtick_5">
     <g id="line2d_5">
      <g>
       <use xlink:href="#m8f0faec632" x="407.724391" y="308.63625" style="stroke: #000000; stroke-width: 0.8"/>
      </g>
     </g>
     <g id="text_5">
      <!-- 800 -->
      <g transform="translate(388.636891 330.833125) scale(0.2 -0.2)">
       <defs>
        <path id="DejaVuSans-38" d="M 2034 2216 
Q 1584 2216 1326 1975 
Q 1069 1734 1069 1313 
Q 1069 891 1326 650 
Q 1584 409 2034 409 
Q 2484 409 2743 651 
Q 3003 894 3003 1313 
Q 3003 1734 2745 1975 
Q 2488 2216 2034 2216 
z
M 1403 2484 
Q 997 2584 770 2862 
Q 544 3141 544 3541 
Q 544 4100 942 4425 
Q 1341 4750 2034 4750 
Q 2731 4750 3128 4425 
Q 3525 4100 3525 3541 
Q 3525 3141 3298 2862 
Q 3072 2584 2669 2484 
Q 3125 2378 3379 2068 
Q 3634 1759 3634 1313 
Q 3634 634 3220 271 
Q 2806 -91 2034 -91 
Q 1263 -91 848 271 
Q 434 634 434 1313 
Q 434 1759 690 2068 
Q 947 2378 1403 2484 
z
M 1172 3481 
Q 1172 3119 1398 2916 
Q 1625 2713 2034 2713 
Q 2441 2713 2670 2916 
Q 2900 3119 2900 3481 
Q 2900 3844 2670 4047 
Q 2441 4250 2034 4250 
Q 1625 4250 1398 4047 
Q 1172 3844 1172 3481 
z
" transform="scale(0.015625)"/>
       </defs>
       <use xlink:href="#DejaVuSans-38"/>
       <use xlink:href="#DejaVuSans-30" x="63.623047"/>
       <use xlink:href="#DejaVuSans-30" x="127.246094"/>
      </g>
     </g>
    </g>
    <g id="xtick_6">
     <g id="line2d_6">
      <g>
       <use xlink:href="#m8f0faec632" x="480.191924" y="308.63625" style="stroke: #000000; stroke-width: 0.8"/>
      </g>
     </g>
     <g id="text_6">
      <!-- 1000 -->
      <g transform="translate(454.741924 330.833125) scale(0.2 -0.2)">
       <defs>
        <path id="DejaVuSans-31" d="M 794 531 
L 1825 531 
L 1825 4091 
L 703 3866 
L 703 4441 
L 1819 4666 
L 2450 4666 
L 2450 531 
L 3481 531 
L 3481 0 
L 794 0 
L 794 531 
z
" transform="scale(0.015625)"/>
       </defs>
       <use xlink:href="#DejaVuSans-31"/>
       <use xlink:href="#DejaVuSans-30" x="63.623047"/>
       <use xlink:href="#DejaVuSans-30" x="127.246094"/>
       <use xlink:href="#DejaVuSans-30" x="190.869141"/>
      </g>
     </g>
    </g>
    <g id="xtick_7">
     <g id="line2d_7">
      <g>
       <use xlink:href="#m8f0faec632" x="552.659456" y="308.63625" style="stroke: #000000; stroke-width: 0.8"/>
      </g>
     </g>
     <g id="text_7">
      <!-- 1200 -->
      <g transform="translate(527.209456 330.833125) scale(0.2 -0.2)">
       <use xlink:href="#DejaVuSans-31"/>
       <use xlink:href="#DejaVuSans-32" x="63.623047"/>
       <use xlink:href="#DejaVuSans-30" x="127.246094"/>
       <use xlink:href="#DejaVuSans-30" x="190.869141"/>
      </g>
     </g>
    </g>
    <g id="xtick_8">
     <g id="line2d_8">
      <g>
       <use xlink:href="#m8f0faec632" x="625.126989" y="308.63625" style="stroke: #000000; stroke-width: 0.8"/>
      </g>
     </g>
     <g id="text_8">
      <!-- 1400 -->
      <g transform="translate(599.676989 330.833125) scale(0.2 -0.2)">
       <use xlink:href="#DejaVuSans-31"/>
       <use xlink:href="#DejaVuSans-34" x="63.623047"/>
       <use xlink:href="#DejaVuSans-30" x="127.246094"/>
       <use xlink:href="#DejaVuSans-30" x="190.869141"/>
      </g>
     </g>
    </g>
    <g id="text_9">
     <!-- iterations -->
     <g transform="translate(324.035938 354.189375) scale(0.2 -0.2)">
      <defs>
       <path id="DejaVuSans-69" d="M 603 3500 
L 1178 3500 
L 1178 0 
L 603 0 
L 603 3500 
z
M 603 4863 
L 1178 4863 
L 1178 4134 
L 603 4134 
L 603 4863 
z
" transform="scale(0.015625)"/>
       <path id="DejaVuSans-74" d="M 1172 4494 
L 1172 3500 
L 2356 3500 
L 2356 3053 
L 1172 3053 
L 1172 1153 
Q 1172 725 1289 603 
Q 1406 481 1766 481 
L 2356 481 
L 2356 0 
L 1766 0 
Q 1100 0 847 248 
Q 594 497 594 1153 
L 594 3053 
L 172 3053 
L 172 3500 
L 594 3500 
L 594 4494 
L 1172 4494 
z
" transform="scale(0.015625)"/>
       <path id="DejaVuSans-65" d="M 3597 1894 
L 3597 1613 
L 953 1613 
Q 991 1019 1311 708 
Q 1631 397 2203 397 
Q 2534 397 2845 478 
Q 3156 559 3463 722 
L 3463 178 
Q 3153 47 2828 -22 
Q 2503 -91 2169 -91 
Q 1331 -91 842 396 
Q 353 884 353 1716 
Q 353 2575 817 3079 
Q 1281 3584 2069 3584 
Q 2775 3584 3186 3129 
Q 3597 2675 3597 1894 
z
M 3022 2063 
Q 3016 2534 2758 2815 
Q 2500 3097 2075 3097 
Q 1594 3097 1305 2825 
Q 1016 2553 972 2059 
L 3022 2063 
z
" transform="scale(0.015625)"/>
       <path id="DejaVuSans-72" d="M 2631 2963 
Q 2534 3019 2420 3045 
Q 2306 3072 2169 3072 
Q 1681 3072 1420 2755 
Q 1159 2438 1159 1844 
L 1159 0 
L 581 0 
L 581 3500 
L 1159 3500 
L 1159 2956 
Q 1341 3275 1631 3429 
Q 1922 3584 2338 3584 
Q 2397 3584 2469 3576 
Q 2541 3569 2628 3553 
L 2631 2963 
z
" transform="scale(0.015625)"/>
       <path id="DejaVuSans-61" d="M 2194 1759 
Q 1497 1759 1228 1600 
Q 959 1441 959 1056 
Q 959 750 1161 570 
Q 1363 391 1709 391 
Q 2188 391 2477 730 
Q 2766 1069 2766 1631 
L 2766 1759 
L 2194 1759 
z
M 3341 1997 
L 3341 0 
L 2766 0 
L 2766 531 
Q 2569 213 2275 61 
Q 1981 -91 1556 -91 
Q 1019 -91 701 211 
Q 384 513 384 1019 
Q 384 1609 779 1909 
Q 1175 2209 1959 2209 
L 2766 2209 
L 2766 2266 
Q 2766 2663 2505 2880 
Q 2244 3097 1772 3097 
Q 1472 3097 1187 3025 
Q 903 2953 641 2809 
L 641 3341 
Q 956 3463 1253 3523 
Q 1550 3584 1831 3584 
Q 2591 3584 2966 3190 
Q 3341 2797 3341 1997 
z
" transform="scale(0.015625)"/>
       <path id="DejaVuSans-6f" d="M 1959 3097 
Q 1497 3097 1228 2736 
Q 959 2375 959 1747 
Q 959 1119 1226 758 
Q 1494 397 1959 397 
Q 2419 397 2687 759 
Q 2956 1122 2956 1747 
Q 2956 2369 2687 2733 
Q 2419 3097 1959 3097 
z
M 1959 3584 
Q 2709 3584 3137 3096 
Q 3566 2609 3566 1747 
Q 3566 888 3137 398 
Q 2709 -91 1959 -91 
Q 1206 -91 779 398 
Q 353 888 353 1747 
Q 353 2609 779 3096 
Q 1206 3584 1959 3584 
z
" transform="scale(0.015625)"/>
       <path id="DejaVuSans-6e" d="M 3513 2113 
L 3513 0 
L 2938 0 
L 2938 2094 
Q 2938 2591 2744 2837 
Q 2550 3084 2163 3084 
Q 1697 3084 1428 2787 
Q 1159 2491 1159 1978 
L 1159 0 
L 581 0 
L 581 3500 
L 1159 3500 
L 1159 2956 
Q 1366 3272 1645 3428 
Q 1925 3584 2291 3584 
Q 2894 3584 3203 3211 
Q 3513 2838 3513 2113 
z
" transform="scale(0.015625)"/>
       <path id="DejaVuSans-73" d="M 2834 3397 
L 2834 2853 
Q 2591 2978 2328 3040 
Q 2066 3103 1784 3103 
Q 1356 3103 1142 2972 
Q 928 2841 928 2578 
Q 928 2378 1081 2264 
Q 1234 2150 1697 2047 
L 1894 2003 
Q 2506 1872 2764 1633 
Q 3022 1394 3022 966 
Q 3022 478 2636 193 
Q 2250 -91 1575 -91 
Q 1294 -91 989 -36 
Q 684 19 347 128 
L 347 722 
Q 666 556 975 473 
Q 1284 391 1588 391 
Q 1994 391 2212 530 
Q 2431 669 2431 922 
Q 2431 1156 2273 1281 
Q 2116 1406 1581 1522 
L 1381 1569 
Q 847 1681 609 1914 
Q 372 2147 372 2553 
Q 372 3047 722 3315 
Q 1072 3584 1716 3584 
Q 2034 3584 2315 3537 
Q 2597 3491 2834 3397 
z
" transform="scale(0.015625)"/>
      </defs>
      <use xlink:href="#DejaVuSans-69"/>
      <use xlink:href="#DejaVuSans-74" x="27.783203"/>
      <use xlink:href="#DejaVuSans-65" x="66.992188"/>
      <use xlink:href="#DejaVuSans-72" x="128.515625"/>
      <use xlink:href="#DejaVuSans-61" x="169.628906"/>
      <use xlink:href="#DejaVuSans-74" x="230.908203"/>
      <use xlink:href="#DejaVuSans-69" x="270.117188"/>
      <use xlink:href="#DejaVuSans-6f" x="297.900391"/>
      <use xlink:href="#DejaVuSans-6e" x="359.082031"/>
      <use xlink:href="#DejaVuSans-73" x="422.460938"/>
     </g>
    </g>
   </g>
   <g id="matplotlib.axis_2">
    <g id="ytick_1">
     <g id="line2d_9">
      <defs>
       <path id="mba848cbc8a" d="M 0 0 
L -3.5 0 
" style="stroke: #000000; stroke-width: 0.8"/>
      </defs>
      <g>
       <use xlink:href="#mba848cbc8a" x="92.490625" y="287.754235" style="stroke: #000000; stroke-width: 0.8"/>
      </g>
     </g>
     <g id="text_10">
      <!-- −200 -->
      <g transform="translate(30.55625 295.352672) scale(0.2 -0.2)">
       <defs>
        <path id="DejaVuSans-2212" d="M 678 2272 
L 4684 2272 
L 4684 1741 
L 678 1741 
L 678 2272 
z
" transform="scale(0.015625)"/>
       </defs>
       <use xlink:href="#DejaVuSans-2212"/>
       <use xlink:href="#DejaVuSans-32" x="83.789062"/>
       <use xlink:href="#DejaVuSans-30" x="147.412109"/>
       <use xlink:href="#DejaVuSans-30" x="211.035156"/>
      </g>
     </g>
    </g>
    <g id="ytick_2">
     <g id="line2d_10">
      <g>
       <use xlink:href="#mba848cbc8a" x="92.490625" y="227.578386" style="stroke: #000000; stroke-width: 0.8"/>
      </g>
     </g>
     <g id="text_11">
      <!-- −100 -->
      <g transform="translate(30.55625 235.176823) scale(0.2 -0.2)">
       <use xlink:href="#DejaVuSans-2212"/>
       <use xlink:href="#DejaVuSans-31" x="83.789062"/>
       <use xlink:href="#DejaVuSans-30" x="147.412109"/>
       <use xlink:href="#DejaVuSans-30" x="211.035156"/>
      </g>
     </g>
    </g>
    <g id="ytick_3">
     <g id="line2d_11">
      <g>
       <use xlink:href="#mba848cbc8a" x="92.490625" y="167.402537" style="stroke: #000000; stroke-width: 0.8"/>
      </g>
     </g>
     <g id="text_12">
      <!-- 0 -->
      <g transform="translate(72.765625 175.000974) scale(0.2 -0.2)">
       <use xlink:href="#DejaVuSans-30"/>
      </g>
     </g>
    </g>
    <g id="ytick_4">
     <g id="line2d_12">
      <g>
       <use xlink:href="#mba848cbc8a" x="92.490625" y="107.226688" style="stroke: #000000; stroke-width: 0.8"/>
      </g>
     </g>
     <g id="text_13">
      <!-- 100 -->
      <g transform="translate(47.315625 114.825125) scale(0.2 -0.2)">
       <use xlink:href="#DejaVuSans-31"/>
       <use xlink:href="#DejaVuSans-30" x="63.623047"/>
       <use xlink:href="#DejaVuSans-30" x="127.246094"/>
      </g>
     </g>
    </g>
    <g id="ytick_5">
     <g id="line2d_13">
      <g>
       <use xlink:href="#mba848cbc8a" x="92.490625" y="47.050838" style="stroke: #000000; stroke-width: 0.8"/>
      </g>
     </g>
     <g id="text_14">
      <!-- 200 -->
      <g transform="translate(47.315625 54.649276) scale(0.2 -0.2)">
       <use xlink:href="#DejaVuSans-32"/>
       <use xlink:href="#DejaVuSans-30" x="63.623047"/>
       <use xlink:href="#DejaVuSans-30" x="127.246094"/>
      </g>
     </g>
    </g>
    <g id="text_15">
     <!-- Loss -->
     <g transform="translate(22.396875 191.970625) rotate(-90) scale(0.2 -0.2)">
      <defs>
       <path id="DejaVuSans-4c" d="M 628 4666 
L 1259 4666 
L 1259 531 
L 3531 531 
L 3531 0 
L 628 0 
L 628 4666 
z
" transform="scale(0.015625)"/>
      </defs>
      <use xlink:href="#DejaVuSans-4c"/>
      <use xlink:href="#DejaVuSans-6f" x="53.962891"/>
      <use xlink:href="#DejaVuSans-73" x="115.144531"/>
      <use xlink:href="#DejaVuSans-73" x="167.244141"/>
     </g>
    </g>
   </g>
   <g id="line2d_14">
    <path d="M 117.854261 138.53853 
L 118.216599 97.982964 
L 118.578937 117.083744 
L 118.941274 121.777179 
L 119.303612 104.43596 
L 119.66595 128.019774 
L 120.028287 117.918638 
L 120.390625 99.792773 
L 120.752963 123.303136 
L 121.477638 107.215809 
L 121.839976 54.185175 
L 122.202313 44.586844 
L 122.564651 50.208405 
L 122.926989 65.431701 
L 123.289326 52.62134 
L 123.651664 44.03625 
L 124.014002 47.425516 
L 124.376339 53.255988 
L 124.738677 62.20203 
L 125.101015 54.058702 
L 125.463352 59.456177 
L 125.82569 109.140656 
L 126.188028 94.805897 
L 126.550365 87.78307 
L 126.912703 75.133855 
L 127.275041 98.959252 
L 127.637378 90.513457 
L 127.999716 91.353551 
L 128.362054 94.307751 
L 128.724391 99.862324 
L 129.086729 94.958193 
L 129.449067 93.356455 
L 130.173742 79.768648 
L 130.53608 81.625829 
L 130.898417 87.639335 
L 131.260755 98.247788 
L 131.623093 97.025522 
L 131.98543 100.470922 
L 132.347768 94.009915 
L 132.710106 108.302296 
L 133.072443 106.746361 
L 133.434781 111.813688 
L 133.797119 111.321942 
L 134.159456 109.609667 
L 134.521794 111.732825 
L 135.246469 118.313446 
L 135.608807 121.128737 
L 135.971144 118.243637 
L 136.333482 122.939672 
L 136.69582 114.006144 
L 137.058157 113.402414 
L 137.420495 118.336942 
L 137.782833 126.247555 
L 138.14517 117.705982 
L 138.507508 118.938384 
L 138.869846 115.501875 
L 139.232183 121.08746 
L 139.594521 119.267918 
L 139.956859 128.786107 
L 140.319196 128.140582 
L 140.681534 126.980209 
L 141.043872 127.736057 
L 141.406209 119.824596 
L 141.768547 123.041682 
L 142.130885 125.22985 
L 142.493222 132.060951 
L 142.85556 127.742292 
L 143.217898 128.726967 
L 143.580235 132.552166 
L 143.942573 126.842327 
L 144.304911 124.849238 
L 144.667248 134.387408 
L 145.029586 128.837998 
L 145.391924 132.134935 
L 145.754261 123.78468 
L 146.116599 132.616752 
L 146.478937 133.362101 
L 146.841274 130.522423 
L 147.203612 132.295449 
L 147.56595 130.881563 
L 147.928287 130.761392 
L 148.290625 136.851809 
L 148.652963 133.13345 
L 149.0153 136.862142 
L 149.377638 132.687554 
L 149.739976 136.323725 
L 150.102313 132.024156 
L 150.464651 135.651823 
L 150.826989 134.503783 
L 151.189326 138.447324 
L 151.551664 140.302657 
L 151.914002 137.326201 
L 152.638677 133.290565 
L 153.001015 132.866831 
L 153.363352 142.596344 
L 153.72569 144.986145 
L 154.450365 140.610362 
L 154.812703 141.500038 
L 155.175041 143.686115 
L 155.537378 140.210455 
L 155.899716 143.748127 
L 156.624391 147.376432 
L 156.986729 144.567206 
L 157.349067 148.385484 
L 157.711404 146.372494 
L 158.073742 149.177832 
L 158.43608 150.583748 
L 158.798417 151.428518 
L 159.160755 151.65227 
L 159.523093 153.806823 
L 160.247768 149.66105 
L 160.610106 150.094058 
L 160.972443 153.424061 
L 161.334781 153.379319 
L 161.697119 152.68978 
L 162.059456 148.221893 
L 162.421794 149.94797 
L 162.784131 150.801801 
L 163.146469 149.496023 
L 163.508807 153.426297 
L 163.871144 148.701191 
L 164.233482 155.673158 
L 164.59582 152.270783 
L 164.958157 152.812434 
L 165.320495 151.283283 
L 165.682833 151.61941 
L 166.04517 149.972005 
L 166.407508 149.445184 
L 166.769846 150.678389 
L 167.132183 153.782528 
L 167.494521 152.701329 
L 167.856859 150.58121 
L 168.219196 153.449759 
L 168.581534 152.054885 
L 169.668547 149.175368 
L 170.030885 152.92116 
L 170.393222 154.821874 
L 170.75556 154.122896 
L 171.117898 154.659618 
L 171.480235 154.935823 
L 171.842573 150.153039 
L 172.204911 153.838236 
L 172.567248 152.87849 
L 172.929586 156.117978 
L 173.291924 154.618691 
L 173.654261 155.286374 
L 174.016599 155.509007 
L 174.378937 155.203361 
L 174.741274 155.733462 
L 175.103612 154.610605 
L 175.46595 156.868743 
L 176.190625 154.86685 
L 176.552963 155.846898 
L 176.9153 155.5618 
L 177.277638 154.291763 
L 177.639976 156.186717 
L 178.002313 156.244531 
L 178.364651 155.715934 
L 178.726989 155.403453 
L 179.089326 155.782756 
L 179.451664 155.993486 
L 179.814002 155.337442 
L 180.176339 155.619744 
L 180.901015 157.322453 
L 181.263352 156.929476 
L 181.62569 155.284185 
L 181.988028 157.053882 
L 182.350365 154.679929 
L 182.712703 157.291986 
L 183.075041 156.903158 
L 183.437378 157.112578 
L 184.162054 158.666323 
L 184.524391 157.140524 
L 184.886729 157.121308 
L 185.249067 158.853463 
L 185.611404 159.363312 
L 185.973742 158.407733 
L 186.33608 158.277547 
L 186.698417 158.768124 
L 187.423093 159.348091 
L 187.78543 158.40205 
L 188.147768 158.776583 
L 188.510106 157.259794 
L 188.872443 157.809901 
L 189.234781 157.905638 
L 189.597119 160.304648 
L 189.959456 159.27558 
L 190.321794 160.198122 
L 190.684131 158.222625 
L 191.046469 158.653634 
L 191.408807 158.487327 
L 191.771144 158.747868 
L 192.133482 158.790748 
L 192.49582 157.779227 
L 193.220495 158.768348 
L 193.582833 157.9548 
L 193.94517 158.883566 
L 194.307508 159.266435 
L 194.669846 158.167248 
L 195.032183 157.931008 
L 195.394521 157.269122 
L 196.119196 159.245639 
L 196.843872 159.591384 
L 197.206209 158.906913 
L 197.568547 157.982647 
L 197.930885 158.460905 
L 198.293222 158.242813 
L 198.65556 157.491546 
L 199.380235 159.897972 
L 199.742573 159.522708 
L 200.104911 158.755006 
L 200.467248 160.102913 
L 201.191924 159.911868 
L 201.554261 158.428562 
L 201.916599 158.256503 
L 202.278937 159.280037 
L 203.36595 160.666388 
L 204.090625 158.531589 
L 204.452963 160.376333 
L 204.8153 159.592961 
L 205.177638 159.596836 
L 205.539976 158.212775 
L 205.902313 158.965149 
L 206.264651 160.221803 
L 206.626989 160.554096 
L 206.989326 160.234987 
L 207.351664 159.189843 
L 208.076339 158.4345 
L 208.438677 159.29536 
L 208.801015 159.86907 
L 209.163352 159.834532 
L 209.888028 160.513438 
L 210.250365 160.132619 
L 210.612703 160.426465 
L 210.975041 160.383222 
L 211.337378 159.592069 
L 211.699716 160.667174 
L 212.062054 159.239572 
L 212.424391 161.504711 
L 212.786729 160.711068 
L 213.149067 160.321193 
L 213.511404 160.334656 
L 213.873742 160.4783 
L 214.23608 160.244258 
L 214.598417 160.241173 
L 214.960755 160.039621 
L 216.047768 158.951886 
L 216.410106 159.1988 
L 216.772443 159.780806 
L 217.134781 159.367018 
L 217.497119 158.507879 
L 217.859456 158.913263 
L 218.221794 158.653872 
L 218.584131 158.552491 
L 218.946469 159.409902 
L 219.308807 159.175904 
L 219.671144 158.624938 
L 220.39582 158.893202 
L 221.120495 160.264354 
L 221.482833 160.201945 
L 222.207508 158.650772 
L 222.569846 159.288537 
L 222.932183 160.520795 
L 223.294521 160.457279 
L 224.019196 158.257941 
L 224.381534 158.619133 
L 224.743872 159.745309 
L 225.106209 159.48481 
L 225.468547 159.978303 
L 225.830885 159.720556 
L 226.193222 159.612132 
L 226.55556 159.841911 
L 227.280235 160.510643 
L 228.004911 159.110659 
L 228.367248 159.040226 
L 228.729586 158.709458 
L 229.091924 159.419005 
L 229.454261 159.173452 
L 229.816599 159.518919 
L 230.178937 158.566461 
L 230.903612 159.499792 
L 231.628287 158.586841 
L 231.990625 158.811935 
L 232.352963 159.308052 
L 232.7153 158.76162 
L 233.077638 157.928456 
L 233.439976 158.267043 
L 233.802313 158.073122 
L 234.164651 158.023908 
L 235.251664 159.418039 
L 235.614002 159.162644 
L 235.976339 158.305005 
L 236.338677 158.181522 
L 236.701015 158.871983 
L 237.063352 158.207984 
L 237.42569 158.920037 
L 237.788028 158.307508 
L 238.150365 158.614952 
L 238.512703 157.895699 
L 238.875041 158.923532 
L 239.237378 158.600683 
L 239.599716 159.982429 
L 239.962054 158.452746 
L 240.324391 158.364598 
L 240.686729 158.53182 
L 241.049067 158.447831 
L 241.411404 159.631004 
L 241.773742 158.702739 
L 242.498417 158.844423 
L 242.860755 158.261884 
L 243.58543 158.876161 
L 243.947768 158.704879 
L 244.310106 158.966426 
L 244.672443 159.070848 
L 245.034781 159.870111 
L 245.397119 159.975019 
L 245.759456 160.596646 
L 246.121794 159.037911 
L 246.846469 159.919207 
L 247.208807 159.970316 
L 247.571144 160.525837 
L 247.933482 159.82942 
L 248.29582 160.372563 
L 248.658157 160.469565 
L 249.020495 160.440517 
L 249.382833 160.545118 
L 249.74517 161.243255 
L 250.469846 161.95244 
L 250.832183 161.344446 
L 251.194521 162.230849 
L 251.556859 160.694473 
L 251.919196 161.529689 
L 252.281534 161.958084 
L 252.643872 161.981839 
L 253.006209 161.531251 
L 253.368547 162.091559 
L 253.730885 161.080496 
L 254.093222 161.420721 
L 254.45556 161.219607 
L 255.180235 163.802467 
L 255.542573 163.544163 
L 255.904911 162.374592 
L 256.267248 162.509576 
L 256.629586 163.184545 
L 256.991924 162.450438 
L 258.078937 161.216576 
L 258.441274 161.664394 
L 258.803612 161.362429 
L 259.16595 162.075806 
L 259.528287 161.102878 
L 259.890625 163.051107 
L 260.252963 162.817614 
L 260.6153 162.946267 
L 261.339976 162.763962 
L 261.702313 162.839012 
L 262.064651 162.000619 
L 262.426989 162.598769 
L 262.789326 162.378559 
L 263.151664 163.076137 
L 263.514002 162.571522 
L 263.876339 162.729478 
L 264.238677 162.590982 
L 264.601015 162.127056 
L 264.963352 163.018755 
L 265.32569 161.84957 
L 265.688028 162.625888 
L 266.050365 162.543089 
L 266.412703 163.183865 
L 266.775041 162.865179 
L 267.862054 162.964571 
L 268.224391 163.003534 
L 268.586729 161.98191 
L 268.949067 161.799897 
L 269.311404 163.497794 
L 270.398417 161.52673 
L 270.760755 162.915428 
L 271.123093 163.518571 
L 271.48543 163.511122 
L 271.847768 163.779869 
L 272.572443 163.292074 
L 272.934781 163.261754 
L 273.297119 164.209916 
L 274.384131 164.29926 
L 274.746469 163.883719 
L 275.108807 164.214976 
L 275.471144 163.611439 
L 275.833482 163.50855 
L 276.19582 163.619804 
L 276.558157 163.517998 
L 276.920495 163.762633 
L 277.282833 163.682833 
L 277.64517 163.927672 
L 278.007508 162.938326 
L 278.369846 163.558524 
L 278.732183 163.570411 
L 279.094521 162.838417 
L 279.456859 163.419215 
L 279.819196 163.034187 
L 280.181534 163.560597 
L 280.543872 162.974609 
L 280.906209 163.22759 
L 281.268547 163.897061 
L 281.993222 163.200592 
L 282.35556 163.883585 
L 282.717898 164.051239 
L 283.442573 163.416856 
L 283.804911 163.617793 
L 284.167248 163.502438 
L 284.529586 163.762088 
L 284.891924 164.287996 
L 285.254261 163.466284 
L 285.616599 163.625181 
L 285.978937 162.927845 
L 286.341274 162.924646 
L 286.703612 163.154536 
L 287.06595 162.913681 
L 287.790625 163.90003 
L 288.152963 164.07757 
L 288.5153 164.574846 
L 288.877638 164.524283 
L 289.239976 165.478911 
L 289.602313 165.009827 
L 289.964651 165.363989 
L 290.326989 165.356022 
L 290.689326 164.90985 
L 291.051664 165.135213 
L 291.414002 164.92389 
L 291.776339 165.118623 
L 292.138677 165.026908 
L 292.501015 165.352702 
L 292.863352 165.29849 
L 293.588028 163.713846 
L 293.950365 164.55012 
L 294.675041 164.198529 
L 295.037378 164.675546 
L 295.399716 164.071193 
L 295.762054 164.222628 
L 296.124391 164.527797 
L 296.486729 164.517816 
L 297.211404 165.291701 
L 297.573742 165.561032 
L 297.93608 164.811283 
L 298.298417 164.988455 
L 298.660755 164.924284 
L 299.023093 164.615151 
L 299.38543 165.583877 
L 299.747768 165.212143 
L 300.110106 165.333861 
L 300.472443 165.323854 
L 300.834781 165.041086 
L 301.197119 164.978663 
L 301.921794 165.200191 
L 302.284131 166.08 
L 302.646469 165.035632 
L 303.008807 165.603331 
L 303.371144 165.86487 
L 303.733482 165.443294 
L 304.09582 166.256202 
L 304.458157 164.694453 
L 304.820495 164.670977 
L 305.182833 164.525527 
L 305.54517 165.21686 
L 305.907508 164.912678 
L 306.269846 165.326199 
L 306.632183 164.488608 
L 306.994521 164.820524 
L 307.356859 165.524774 
L 307.719196 165.617187 
L 308.081534 165.576942 
L 308.443872 164.87486 
L 309.168547 165.961546 
L 309.893222 164.944552 
L 310.25556 165.134178 
L 310.617898 164.885828 
L 310.980235 165.370466 
L 311.342573 164.272193 
L 311.704911 164.729958 
L 312.067248 165.0006 
L 312.429586 164.976294 
L 312.791924 165.602046 
L 313.154261 165.479562 
L 313.516599 165.237788 
L 313.878937 166.108076 
L 314.241274 166.104062 
L 314.603612 165.82227 
L 314.96595 166.256527 
L 315.690625 165.469542 
L 316.052963 165.098018 
L 316.777638 165.534906 
L 317.139976 166.428739 
L 317.864651 165.721829 
L 318.226989 166.143999 
L 318.589326 165.615088 
L 318.951664 166.228039 
L 319.314002 165.061817 
L 319.676339 165.143602 
L 320.038677 165.760576 
L 320.401015 165.561899 
L 320.763352 166.216574 
L 321.488028 165.183599 
L 321.850365 165.018782 
L 322.212703 165.360501 
L 322.937378 165.419201 
L 323.299716 165.360393 
L 323.662054 164.136741 
L 324.024391 165.343897 
L 324.386729 165.572042 
L 324.749067 165.545783 
L 325.473742 164.591578 
L 325.83608 164.512763 
L 326.198417 164.747325 
L 326.560755 165.493837 
L 326.923093 165.139657 
L 327.28543 165.495464 
L 327.647768 164.968325 
L 328.010106 165.539488 
L 328.372443 164.924951 
L 328.734781 165.093261 
L 329.097119 164.996031 
L 329.459456 164.524479 
L 329.821794 164.886919 
L 330.184131 164.47752 
L 330.546469 164.371764 
L 330.908807 163.988204 
L 331.271144 164.644625 
L 331.633482 164.709602 
L 331.99582 164.279329 
L 332.720495 164.712515 
L 333.082833 164.128696 
L 333.44517 164.199866 
L 333.807508 164.096761 
L 334.169846 164.48685 
L 334.532183 164.527779 
L 334.894521 164.707487 
L 335.981534 164.760681 
L 336.343872 164.850835 
L 336.706209 164.799478 
L 337.068547 164.295248 
L 337.430885 164.533537 
L 338.15556 164.375007 
L 338.517898 164.912049 
L 338.880235 164.567608 
L 339.242573 163.712177 
L 339.604911 163.720205 
L 339.967248 164.737969 
L 340.329586 164.51053 
L 341.054261 164.528611 
L 341.416599 164.159422 
L 341.778937 164.156035 
L 342.503612 164.416819 
L 343.228287 164.201238 
L 343.590625 163.689581 
L 343.952963 163.688707 
L 344.677638 164.021742 
L 345.039976 164.40091 
L 345.764651 164.1579 
L 346.126989 164.518102 
L 346.489326 163.675799 
L 346.851664 163.978809 
L 347.214002 164.113678 
L 347.576339 164.586427 
L 347.938677 163.635984 
L 348.301015 164.265889 
L 348.663352 163.462821 
L 349.02569 164.146655 
L 349.750365 164.35971 
L 350.112703 163.949097 
L 350.475041 164.500156 
L 350.837378 164.439221 
L 351.199716 164.258676 
L 351.562054 164.612078 
L 351.924391 164.474929 
L 352.286729 164.662866 
L 352.649067 164.384643 
L 353.011404 165.050381 
L 354.098417 164.638916 
L 354.460755 164.819175 
L 354.823093 164.597301 
L 355.18543 164.516941 
L 355.547768 164.688791 
L 355.910106 165.221928 
L 356.634781 165.576128 
L 356.997119 165.57446 
L 357.359456 166.125497 
L 357.721794 166.924859 
L 358.446469 166.874639 
L 358.808807 166.326228 
L 359.171144 166.215998 
L 359.533482 166.537828 
L 360.258157 166.108848 
L 360.620495 166.486851 
L 361.34517 166.322447 
L 361.707508 166.749162 
L 362.069846 166.739898 
L 362.432183 166.314309 
L 362.794521 166.29515 
L 363.156859 166.754573 
L 363.519196 166.073459 
L 363.881534 166.300046 
L 365.330885 166.655139 
L 366.417898 166.43708 
L 367.142573 166.349224 
L 367.504911 166.578572 
L 368.229586 165.911427 
L 368.591924 166.599712 
L 368.954261 166.763055 
L 370.041274 166.836537 
L 370.403612 166.292862 
L 370.76595 166.114483 
L 371.128287 166.70456 
L 371.490625 166.404543 
L 371.852963 166.949484 
L 372.577638 166.846264 
L 372.939976 167.496116 
L 373.302313 167.106541 
L 373.664651 167.269006 
L 374.026989 166.270429 
L 374.389326 167.076186 
L 374.751664 167.150597 
L 375.114002 166.690862 
L 375.838677 167.016251 
L 376.201015 166.722275 
L 376.563352 167.172367 
L 377.288028 167.300765 
L 378.012703 166.953468 
L 378.375041 166.909695 
L 378.737378 166.667897 
L 379.099716 167.128023 
L 379.462054 167.287949 
L 379.824391 166.953439 
L 380.186729 167.165798 
L 380.549067 167.176958 
L 380.911404 167.776535 
L 381.273742 167.588331 
L 382.360755 168.112648 
L 382.723093 167.814137 
L 383.08543 167.966171 
L 383.447768 167.337813 
L 383.810106 168.231724 
L 384.172443 167.864277 
L 384.534781 167.66535 
L 384.897119 167.930938 
L 385.259456 167.764538 
L 385.621794 167.800716 
L 385.984131 167.605195 
L 386.708807 167.877379 
L 387.071144 167.448346 
L 387.433482 167.595076 
L 387.79582 167.619896 
L 388.158157 167.277464 
L 388.520495 167.257352 
L 388.882833 167.622062 
L 389.607508 167.811488 
L 389.969846 167.2019 
L 390.332183 167.374296 
L 390.694521 167.108636 
L 391.056859 167.529072 
L 391.419196 167.445918 
L 391.781534 167.588031 
L 392.143872 166.986021 
L 392.506209 167.07021 
L 392.868547 167.01968 
L 393.230885 167.131119 
L 393.593222 166.706204 
L 393.95556 167.273783 
L 394.317898 167.4991 
L 394.680235 167.164137 
L 395.042573 167.278401 
L 395.404911 167.029178 
L 395.767248 166.381069 
L 396.129586 166.598948 
L 396.491924 166.362415 
L 396.854261 166.875708 
L 397.578937 166.486489 
L 397.941274 167.00153 
L 398.303612 166.338952 
L 398.66595 167.288716 
L 399.028287 166.475611 
L 399.390625 166.628849 
L 399.752963 166.578035 
L 400.1153 166.994117 
L 400.477638 166.373868 
L 401.202313 167.125379 
L 401.564651 166.9732 
L 401.926989 166.957091 
L 402.289326 167.064731 
L 402.651664 166.882958 
L 403.014002 166.514705 
L 403.376339 166.783083 
L 403.738677 166.270219 
L 404.101015 166.448122 
L 404.463352 167.096922 
L 404.82569 167.182332 
L 405.188028 167.032398 
L 405.550365 166.457706 
L 405.912703 167.0144 
L 406.637378 167.264616 
L 406.999716 166.954706 
L 407.724391 166.860758 
L 408.086729 167.200607 
L 408.449067 166.850006 
L 408.811404 167.223131 
L 409.173742 167.091588 
L 409.53608 167.73185 
L 409.898417 167.645538 
L 410.260755 167.831437 
L 410.623093 167.616765 
L 410.98543 167.043909 
L 411.347768 167.39589 
L 411.710106 166.841559 
L 412.072443 167.512002 
L 412.434781 167.50357 
L 412.797119 167.978246 
L 413.159456 167.672412 
L 413.884131 168.036219 
L 414.246469 167.420888 
L 414.608807 167.485797 
L 414.971144 168.077085 
L 415.333482 168.264032 
L 415.69582 167.662811 
L 416.058157 167.993159 
L 416.420495 167.701559 
L 416.782833 168.175583 
L 417.14517 168.068052 
L 417.507508 168.168252 
L 417.869846 167.917035 
L 418.232183 168.125004 
L 418.594521 167.61821 
L 418.956859 168.034187 
L 419.319196 168.012515 
L 419.681534 167.751495 
L 420.043872 168.214365 
L 420.768547 167.834211 
L 421.130885 168.107223 
L 421.493222 168.052522 
L 421.85556 168.754493 
L 422.217898 167.919724 
L 422.580235 168.417852 
L 422.942573 167.689991 
L 423.667248 167.980679 
L 424.029586 167.810499 
L 424.391924 167.962371 
L 424.754261 167.649031 
L 425.116599 168.198983 
L 425.478937 168.257292 
L 425.841274 167.565095 
L 426.203612 167.666777 
L 426.56595 168.134757 
L 426.928287 167.766729 
L 427.290625 168.068642 
L 427.652963 168.068813 
L 428.0153 168.376111 
L 428.377638 168.323267 
L 428.739976 168.045614 
L 429.102313 168.013065 
L 429.464651 168.729377 
L 429.826989 168.472048 
L 430.189326 167.71081 
L 430.551664 167.839083 
L 431.276339 168.607979 
L 431.638677 168.046909 
L 433.450365 168.339345 
L 434.537378 167.907877 
L 434.899716 167.996859 
L 435.624391 167.956325 
L 435.986729 168.335002 
L 436.711404 168.000615 
L 437.073742 168.34044 
L 437.43608 167.747281 
L 437.798417 167.712023 
L 438.160755 168.375882 
L 438.88543 167.865294 
L 439.247768 168.38259 
L 439.972443 168.289031 
L 440.334781 167.838615 
L 440.697119 168.052053 
L 441.059456 167.46046 
L 441.421794 167.931055 
L 441.784131 167.679184 
L 442.146469 168.034151 
L 442.508807 167.710281 
L 443.233482 167.77079 
L 443.958157 168.24578 
L 444.682833 168.200039 
L 445.04517 167.829781 
L 445.407508 167.958138 
L 445.769846 168.402189 
L 446.132183 168.554432 
L 446.856859 167.649448 
L 447.943872 167.955298 
L 448.306209 168.353654 
L 448.668547 168.307398 
L 449.393222 167.766889 
L 449.75556 167.657628 
L 450.117898 167.845189 
L 450.480235 167.687432 
L 450.842573 167.823104 
L 451.204911 167.392199 
L 451.567248 167.779666 
L 451.929586 167.685633 
L 452.291924 167.89451 
L 452.654261 167.138594 
L 453.016599 167.323921 
L 453.378937 166.796265 
L 453.741274 167.393376 
L 454.46595 167.520812 
L 454.828287 167.150663 
L 455.190625 167.495462 
L 455.552963 167.134297 
L 455.9153 167.550264 
L 456.277638 167.154746 
L 456.639976 167.587608 
L 457.002313 167.21438 
L 457.364651 167.838486 
L 457.726989 167.489968 
L 458.089326 167.505754 
L 458.451664 166.953646 
L 458.814002 167.728569 
L 459.176339 167.637567 
L 459.538677 167.782465 
L 459.901015 167.465462 
L 460.263352 167.6463 
L 460.62569 167.67675 
L 460.988028 168.102737 
L 461.350365 167.422142 
L 462.075041 168.100589 
L 462.437378 167.246586 
L 462.799716 167.871726 
L 463.162054 167.584116 
L 463.524391 167.867532 
L 463.886729 167.406948 
L 464.249067 167.775551 
L 464.611404 167.612994 
L 465.698417 168.130487 
L 466.78543 167.585704 
L 467.510106 167.628664 
L 468.234781 167.73587 
L 468.597119 167.440339 
L 468.959456 167.800343 
L 469.321794 167.998738 
L 469.684131 168.532412 
L 470.408807 167.513484 
L 470.771144 167.855203 
L 471.49582 167.451928 
L 471.858157 167.538191 
L 472.220495 168.188903 
L 472.582833 167.451479 
L 472.94517 167.977264 
L 473.307508 168.058694 
L 474.032183 167.690907 
L 474.756859 168.038624 
L 475.119196 168.365727 
L 475.481534 167.587755 
L 475.843872 168.448506 
L 476.568547 167.49746 
L 476.930885 167.476281 
L 477.293222 167.738096 
L 477.65556 167.755714 
L 478.380235 168.102064 
L 479.104911 167.973858 
L 479.467248 167.760494 
L 479.829586 167.084461 
L 480.191924 167.883118 
L 480.554261 167.614984 
L 480.916599 167.639607 
L 481.278937 168.206244 
L 481.641274 167.68942 
L 482.36595 167.964516 
L 482.728287 167.815619 
L 483.090625 168.022647 
L 483.452963 168.002625 
L 483.8153 167.824684 
L 484.177638 167.434671 
L 484.539976 167.986338 
L 485.264651 167.705748 
L 485.626989 167.930693 
L 485.989326 167.799168 
L 486.351664 168.376478 
L 486.714002 168.00842 
L 487.076339 168.025359 
L 487.438677 167.899444 
L 487.801015 167.988372 
L 488.52569 167.573388 
L 489.250365 167.762593 
L 489.975041 167.372034 
L 490.699716 167.598472 
L 491.062054 167.712845 
L 491.424391 167.160308 
L 491.786729 167.39207 
L 492.149067 167.76882 
L 492.511404 167.932979 
L 492.873742 167.720401 
L 493.23608 167.669139 
L 493.598417 167.028703 
L 493.960755 167.332513 
L 494.323093 167.119462 
L 494.68543 167.400241 
L 496.497119 167.670873 
L 497.221794 167.173844 
L 497.946469 167.124134 
L 498.308807 167.176174 
L 498.671144 166.7652 
L 499.033482 167.051205 
L 499.758157 166.885233 
L 500.120495 167.250127 
L 500.84517 166.772559 
L 501.207508 167.775936 
L 501.569846 167.00415 
L 501.932183 167.511128 
L 502.294521 167.550489 
L 503.381534 167.15025 
L 504.106209 167.213006 
L 504.468547 166.992838 
L 504.830885 167.392014 
L 505.193222 167.13368 
L 505.917898 167.218266 
L 506.280235 166.925797 
L 506.642573 167.401719 
L 507.004911 167.093697 
L 507.367248 167.136046 
L 507.729586 167.4986 
L 508.091924 166.855258 
L 508.454261 166.723251 
L 508.816599 167.33815 
L 509.903612 166.874395 
L 510.26595 167.081431 
L 510.990625 167.050043 
L 511.7153 167.536996 
L 512.439976 167.583058 
L 512.802313 168.017203 
L 513.164651 167.974535 
L 514.251664 168.39631 
L 514.614002 168.398294 
L 514.976339 168.231063 
L 515.338677 167.884159 
L 515.701015 168.345749 
L 516.063352 168.264352 
L 516.42569 167.955007 
L 517.150365 168.06413 
L 517.512703 167.618454 
L 517.875041 168.266924 
L 518.237378 167.692045 
L 518.962054 167.618105 
L 519.324391 167.379107 
L 520.411404 168.193493 
L 520.773742 167.844706 
L 521.13608 167.872502 
L 521.498417 168.180034 
L 521.860755 168.264143 
L 522.223093 167.911159 
L 522.58543 168.260087 
L 522.947768 168.390628 
L 523.310106 168.229973 
L 523.672443 168.428713 
L 524.034781 167.990621 
L 524.397119 168.2936 
L 524.759456 168.134135 
L 525.121794 168.748672 
L 525.846469 168.437697 
L 526.208807 168.444157 
L 526.571144 167.793607 
L 526.933482 168.52573 
L 527.29582 168.035701 
L 527.658157 168.096286 
L 528.020495 168.496894 
L 528.382833 168.550487 
L 528.74517 168.32347 
L 529.469846 168.138543 
L 529.832183 167.913322 
L 530.919196 167.987964 
L 531.281534 168.285516 
L 531.643872 168.185153 
L 532.006209 167.832161 
L 532.368547 168.356196 
L 533.093222 167.800512 
L 533.45556 167.760334 
L 534.180235 168.074339 
L 534.542573 168.245453 
L 534.904911 167.550487 
L 535.267248 167.50391 
L 535.991924 167.805211 
L 536.354261 168.332021 
L 536.716599 167.887094 
L 537.803612 167.815148 
L 538.16595 168.091441 
L 538.528287 167.768061 
L 539.252963 168.033631 
L 539.6153 167.610236 
L 540.339976 167.594826 
L 540.702313 167.691552 
L 541.064651 167.964029 
L 541.426989 167.81463 
L 541.789326 168.168536 
L 542.151664 168.298507 
L 542.514002 168.03599 
L 543.238677 168.317229 
L 543.601015 168.085764 
L 543.963352 168.001078 
L 544.32569 168.039892 
L 544.688028 167.786561 
L 545.050365 167.942839 
L 545.412703 167.799765 
L 545.775041 168.01421 
L 546.499716 168.000916 
L 547.224391 167.941627 
L 547.586729 168.398032 
L 547.949067 167.796766 
L 548.311404 168.207016 
L 548.673742 168.145924 
L 549.03608 167.551587 
L 549.398417 167.982367 
L 549.760755 167.286404 
L 550.123093 167.480668 
L 550.48543 167.48593 
L 551.572443 168.180176 
L 551.934781 168.230953 
L 552.297119 168.121936 
L 552.659456 168.415509 
L 553.384131 168.471111 
L 553.746469 167.922029 
L 554.108807 168.765175 
L 554.471144 167.812701 
L 554.833482 168.026679 
L 555.19582 167.967479 
L 555.558157 167.363376 
L 555.920495 167.674451 
L 556.282833 167.830774 
L 556.64517 167.540591 
L 557.007508 167.503768 
L 557.369846 168.247858 
L 557.732183 168.198391 
L 558.094521 168.270781 
L 558.456859 167.668448 
L 558.819196 167.450555 
L 559.181534 167.666598 
L 559.543872 167.544722 
L 559.906209 168.108202 
L 560.268547 167.82319 
L 560.630885 168.332072 
L 560.993222 168.313882 
L 561.35556 167.990658 
L 562.080235 167.82678 
L 562.804911 167.69071 
L 563.167248 168.580591 
L 563.529586 168.090425 
L 564.254261 168.405621 
L 564.616599 167.940651 
L 564.978937 167.920871 
L 565.341274 167.697883 
L 565.703612 167.880443 
L 566.790625 167.936594 
L 567.152963 168.187655 
L 567.877638 168.07991 
L 568.239976 168.410151 
L 568.964651 168.127815 
L 569.326989 168.42822 
L 570.051664 168.487664 
L 570.414002 168.541656 
L 570.776339 168.114351 
L 571.138677 168.043065 
L 571.501015 168.432345 
L 571.863352 168.259308 
L 572.950365 168.223765 
L 573.675041 168.471089 
L 574.037378 168.251735 
L 574.399716 168.338174 
L 574.762054 168.04233 
L 575.124391 168.05247 
L 575.486729 168.247995 
L 575.849067 168.033911 
L 576.211404 168.148847 
L 576.573742 167.944939 
L 576.93608 168.281226 
L 577.298417 167.928142 
L 577.660755 168.406232 
L 578.023093 168.259196 
L 578.38543 167.968629 
L 578.747768 167.843869 
L 579.110106 168.416682 
L 579.472443 168.394344 
L 579.834781 168.111164 
L 580.197119 168.499792 
L 580.559456 168.576082 
L 581.284131 168.551225 
L 581.646469 168.909093 
L 582.008807 168.247934 
L 582.733482 168.569364 
L 583.09582 168.216117 
L 583.820495 168.04415 
L 584.182833 167.568737 
L 584.54517 168.214966 
L 585.269846 167.616542 
L 586.356859 168.471279 
L 586.719196 167.87335 
L 587.081534 168.284962 
L 587.443872 167.906711 
L 587.806209 168.401945 
L 588.168547 167.996687 
L 588.530885 167.763797 
L 588.893222 167.870899 
L 589.617898 167.907257 
L 589.980235 168.338732 
L 590.342573 168.301489 
L 590.704911 167.837146 
L 591.067248 167.61481 
L 591.429586 168.124018 
L 591.791924 168.155883 
L 592.154261 168.019492 
L 592.878937 168.2485 
L 593.603612 168.04768 
L 593.96595 168.637877 
L 594.328287 168.619907 
L 594.690625 168.186857 
L 595.4153 168.859491 
L 595.777638 168.829869 
L 596.139976 168.551741 
L 596.502313 168.844235 
L 596.864651 168.586502 
L 597.226989 168.796241 
L 597.589326 168.610927 
L 598.314002 168.651249 
L 598.676339 169.121849 
L 599.038677 168.775384 
L 600.12569 168.797475 
L 600.850365 168.214288 
L 601.212703 168.542471 
L 601.575041 168.225737 
L 601.937378 168.503472 
L 602.662054 168.408387 
L 603.024391 168.744115 
L 603.386729 168.800099 
L 603.749067 168.361216 
L 605.560755 168.712691 
L 606.28543 168.390598 
L 606.647768 168.620616 
L 607.010106 168.591809 
L 607.372443 168.742247 
L 607.734781 168.571679 
L 608.097119 168.774246 
L 608.459456 168.63304 
L 608.821794 168.898085 
L 609.184131 168.44036 
L 609.908807 168.853976 
L 610.271144 168.503483 
L 610.633482 168.85389 
L 610.99582 168.898816 
L 611.358157 168.464622 
L 611.720495 168.716828 
L 612.082833 169.272118 
L 612.44517 168.79067 
L 613.169846 168.87071 
L 613.532183 168.654211 
L 614.619196 168.51374 
L 615.343872 169.226336 
L 615.706209 168.668929 
L 616.068547 168.905214 
L 616.430885 168.996057 
L 616.793222 168.960977 
L 617.517898 169.191144 
L 617.880235 168.645525 
L 618.242573 169.440792 
L 618.604911 169.292029 
L 618.967248 168.702876 
L 619.691924 168.853649 
L 620.054261 169.485689 
L 620.416599 168.915131 
L 621.503612 169.125036 
L 621.86595 168.465254 
L 622.228287 168.948123 
L 622.952963 168.889659 
L 623.3153 168.868332 
L 623.677638 168.734287 
L 624.039976 168.942391 
L 625.126989 169.065631 
L 625.126989 169.065631 
" clip-path="url(#pe8731f84b5)" style="fill: none; stroke: #1f77b4; stroke-width: 1.5; stroke-linecap: square"/>
   </g>
   <g id="line2d_15">
    <path d="M 117.854261 296.03625 
L 118.578937 219.200503 
L 119.303612 238.645685 
L 119.66595 213.261152 
L 120.028287 212.54875 
L 120.390625 215.076811 
L 120.752963 205.598168 
L 121.1153 212.181319 
L 121.477638 226.669107 
L 122.202313 196.212776 
L 122.564651 194.413947 
L 122.926989 194.780619 
L 123.289326 201.832737 
L 123.651664 195.235904 
L 124.014002 196.378027 
L 124.376339 194.532246 
L 124.738677 194.186848 
L 125.101015 195.502642 
L 125.463352 184.213625 
L 125.82569 181.165058 
L 126.550365 182.194952 
L 126.912703 186.091654 
L 127.275041 177.656689 
L 127.637378 180.557306 
L 127.999716 182.010728 
L 128.362054 182.333157 
L 128.724391 181.694365 
L 129.086729 181.32096 
L 129.449067 182.390077 
L 129.811404 183.960668 
L 130.173742 184.431872 
L 130.53608 183.194059 
L 130.898417 180.438406 
L 131.260755 181.145129 
L 131.623093 183.060858 
L 131.98543 181.048282 
L 132.347768 180.679822 
L 132.710106 178.011528 
L 133.434781 178.090941 
L 133.797119 178.969227 
L 134.159456 181.172561 
L 134.521794 178.870422 
L 134.884131 177.393865 
L 135.246469 177.781811 
L 135.608807 178.351291 
L 135.971144 176.208669 
L 136.333482 177.343197 
L 136.69582 177.985098 
L 137.058157 180.055569 
L 137.420495 176.730227 
L 137.782833 176.248777 
L 138.14517 179.231779 
L 138.507508 177.708572 
L 138.869846 177.030424 
L 139.232183 176.664959 
L 139.594521 177.691265 
L 139.956859 176.119124 
L 140.319196 176.160455 
L 140.681534 176.32796 
L 141.043872 176.294541 
L 141.406209 177.635459 
L 142.493222 174.709478 
L 142.85556 176.153952 
L 143.580235 173.767497 
L 143.942573 175.460951 
L 144.304911 176.586489 
L 144.667248 176.4194 
L 145.029586 177.261133 
L 145.391924 174.063869 
L 145.754261 178.121447 
L 146.116599 174.604464 
L 146.841274 174.564015 
L 147.203612 174.107088 
L 147.56595 175.394572 
L 148.290625 173.690661 
L 148.652963 174.735638 
L 149.0153 174.466004 
L 149.377638 173.763776 
L 149.739976 174.487707 
L 150.464651 173.128249 
L 150.826989 173.783378 
L 151.189326 172.877454 
L 151.551664 174.449639 
L 151.914002 174.136157 
L 152.276339 174.131147 
L 152.638677 174.543099 
L 153.001015 174.151772 
L 153.363352 171.716959 
L 154.088028 172.9355 
L 154.450365 173.551442 
L 154.812703 171.414805 
L 155.175041 172.531184 
L 155.899716 173.528479 
L 156.262054 174.667006 
L 156.624391 172.879212 
L 156.986729 174.079173 
L 157.349067 174.417489 
L 158.073742 173.861619 
L 158.43608 174.307226 
L 158.798417 172.468632 
L 159.160755 173.093585 
L 159.88543 171.328881 
L 160.247768 172.522737 
L 160.610106 173.248832 
L 160.972443 173.248455 
L 161.334781 172.722076 
L 161.697119 173.191447 
L 162.059456 171.575761 
L 162.421794 171.514487 
L 162.784131 172.497564 
L 163.146469 172.614868 
L 163.508807 172.527716 
L 163.871144 172.901462 
L 164.233482 171.798656 
L 164.59582 172.17445 
L 164.958157 171.36876 
L 165.320495 171.860114 
L 165.682833 172.065286 
L 166.04517 172.853624 
L 166.407508 172.279056 
L 166.769846 172.345809 
L 167.132183 171.40709 
L 167.856859 173.281889 
L 168.219196 171.6027 
L 168.581534 171.572991 
L 168.943872 172.788874 
L 169.306209 173.126234 
L 169.668547 172.833694 
L 170.030885 172.21413 
L 170.393222 173.023502 
L 170.75556 173.20008 
L 171.117898 172.111453 
L 171.480235 172.345466 
L 171.842573 173.241511 
L 172.204911 173.382747 
L 172.567248 171.305869 
L 172.929586 172.329936 
L 173.291924 172.906326 
L 173.654261 172.161376 
L 174.016599 172.618973 
L 174.378937 172.868546 
L 174.741274 172.178703 
L 175.103612 172.386805 
L 175.46595 171.756797 
L 175.828287 172.613199 
L 176.190625 172.735791 
L 176.552963 171.651542 
L 176.9153 171.944659 
L 177.277638 171.896408 
L 178.002313 172.423398 
L 178.364651 172.514977 
L 178.726989 172.841949 
L 179.089326 171.593369 
L 179.451664 172.130366 
L 179.814002 172.372364 
L 180.176339 172.074754 
L 180.538677 171.556562 
L 180.901015 172.602379 
L 181.263352 171.34686 
L 181.62569 171.920515 
L 181.988028 171.527562 
L 182.350365 173.732855 
L 182.712703 171.742232 
L 183.075041 172.010685 
L 183.437378 171.679803 
L 183.799716 172.867061 
L 184.162054 172.121979 
L 184.524391 172.252688 
L 185.249067 171.196761 
L 185.611404 171.68482 
L 185.973742 171.334027 
L 186.698417 171.732382 
L 187.060755 171.046097 
L 187.423093 171.840605 
L 187.78543 171.338442 
L 188.510106 171.274296 
L 188.872443 171.527496 
L 189.234781 171.463002 
L 189.959456 171.714048 
L 190.321794 171.527779 
L 190.684131 171.971782 
L 191.046469 171.808757 
L 191.408807 171.239484 
L 191.771144 171.712659 
L 192.133482 171.35515 
L 192.49582 171.253456 
L 192.858157 170.952888 
L 193.220495 171.26288 
L 193.582833 171.751968 
L 193.94517 171.851963 
L 194.307508 171.325347 
L 194.669846 171.013635 
L 195.756859 171.590286 
L 196.119196 171.297249 
L 196.481534 171.551686 
L 197.206209 170.870277 
L 197.568547 170.951387 
L 197.930885 170.706756 
L 198.293222 172.011226 
L 198.65556 171.562232 
L 199.017898 171.393369 
L 199.380235 170.624929 
L 199.742573 170.80561 
L 200.104911 171.546023 
L 201.191924 170.643849 
L 201.554261 171.28086 
L 201.916599 170.960326 
L 202.278937 170.393007 
L 202.641274 171.235045 
L 203.36595 170.199702 
L 203.728287 170.694318 
L 204.090625 171.399415 
L 204.452963 171.077521 
L 204.8153 171.099076 
L 205.177638 170.871475 
L 205.539976 172.392286 
L 205.902313 172.26415 
L 206.264651 171.124406 
L 207.351664 171.044001 
L 207.714002 171.602959 
L 208.076339 171.166176 
L 208.801015 170.812143 
L 209.163352 171.302051 
L 209.52569 172.056204 
L 209.888028 171.356412 
L 210.250365 172.162386 
L 210.612703 170.870293 
L 210.975041 170.933369 
L 211.337378 171.41883 
L 212.062054 171.6746 
L 212.424391 171.327942 
L 212.786729 171.457798 
L 213.149067 171.376492 
L 214.598417 171.6086 
L 214.960755 172.038357 
L 215.323093 171.485702 
L 215.68543 171.201776 
L 216.047768 172.03931 
L 216.410106 171.951895 
L 216.772443 171.029977 
L 217.134781 171.470733 
L 217.497119 171.33633 
L 217.859456 171.788106 
L 218.221794 171.619493 
L 218.584131 171.687032 
L 218.946469 172.066726 
L 219.308807 171.215829 
L 219.671144 170.9907 
L 220.39582 171.888345 
L 220.758157 171.568269 
L 221.120495 171.90961 
L 221.482833 170.651171 
L 222.207508 171.7623 
L 222.569846 171.30192 
L 222.932183 170.659659 
L 223.294521 171.288779 
L 223.656859 171.490592 
L 224.019196 172.222745 
L 224.381534 172.55833 
L 224.743872 171.034898 
L 225.106209 171.498769 
L 225.468547 171.647811 
L 226.193222 171.370715 
L 226.55556 170.858276 
L 228.729586 172.342796 
L 229.091924 171.67289 
L 229.454261 172.154893 
L 229.816599 171.257939 
L 230.178937 171.674141 
L 230.903612 171.049011 
L 231.26595 171.724085 
L 231.628287 172.095347 
L 232.352963 171.377652 
L 232.7153 171.62404 
L 233.077638 171.390359 
L 233.439976 171.60132 
L 233.802313 171.535308 
L 234.526989 171.832293 
L 234.889326 171.367157 
L 235.251664 171.617892 
L 235.614002 171.685619 
L 235.976339 171.618568 
L 236.701015 171.860995 
L 237.063352 172.237446 
L 237.42569 171.005607 
L 237.788028 171.553755 
L 238.150365 171.490333 
L 238.512703 171.592916 
L 239.237378 171.398825 
L 239.599716 171.605477 
L 240.324391 172.38631 
L 240.686729 171.526915 
L 241.049067 171.645364 
L 241.411404 171.371208 
L 241.773742 172.147328 
L 242.13608 171.753966 
L 242.498417 173.179875 
L 242.860755 171.668005 
L 243.223093 171.579546 
L 243.58543 172.096871 
L 243.947768 172.356091 
L 244.310106 172.089167 
L 244.672443 172.553571 
L 245.034781 171.812758 
L 245.397119 171.615187 
L 246.121794 171.69413 
L 246.484131 171.766294 
L 246.846469 172.234649 
L 247.571144 171.674879 
L 247.933482 171.832849 
L 248.29582 172.280615 
L 248.658157 171.622514 
L 249.020495 171.755409 
L 249.382833 172.137954 
L 249.74517 171.268446 
L 250.107508 172.07895 
L 250.469846 171.204316 
L 250.832183 172.061808 
L 251.194521 171.646001 
L 251.556859 171.927455 
L 251.919196 171.965757 
L 252.281534 171.666375 
L 252.643872 171.715999 
L 253.006209 172.314211 
L 253.368547 172.600415 
L 254.093222 172.093801 
L 254.45556 172.294227 
L 254.817898 171.622418 
L 255.542573 171.826495 
L 255.904911 171.737618 
L 256.267248 171.862572 
L 256.629586 171.810099 
L 256.991924 172.003163 
L 257.354261 171.442342 
L 257.716599 171.871399 
L 258.078937 172.112333 
L 258.441274 171.965151 
L 258.803612 171.593799 
L 259.16595 172.424699 
L 259.528287 172.280127 
L 259.890625 171.782763 
L 260.6153 172.362792 
L 261.339976 172.20061 
L 261.702313 172.371535 
L 262.064651 171.999299 
L 262.789326 171.610287 
L 263.151664 171.773116 
L 263.514002 171.682329 
L 263.876339 171.967082 
L 264.238677 171.559341 
L 264.601015 171.909636 
L 265.32569 172.294224 
L 265.688028 171.932208 
L 266.050365 172.584878 
L 266.412703 172.074051 
L 266.775041 171.992196 
L 267.137378 172.04918 
L 267.499716 172.439833 
L 268.586729 171.978719 
L 268.949067 172.222894 
L 269.311404 171.692602 
L 269.673742 172.103561 
L 270.398417 171.90705 
L 270.760755 172.379678 
L 271.123093 171.602559 
L 271.48543 172.046383 
L 271.847768 171.783138 
L 272.572443 172.085609 
L 272.934781 171.771962 
L 273.297119 172.218407 
L 274.021794 172.278004 
L 274.384131 172.469344 
L 274.746469 172.082219 
L 275.108807 172.14542 
L 275.471144 172.415526 
L 275.833482 172.448525 
L 276.19582 171.769688 
L 276.558157 172.670857 
L 276.920495 172.261742 
L 277.282833 172.179617 
L 277.64517 172.75954 
L 278.007508 172.558029 
L 278.369846 171.989123 
L 279.094521 172.108654 
L 279.456859 171.709229 
L 279.819196 172.924987 
L 280.181534 172.155324 
L 280.543872 172.460446 
L 280.906209 172.32577 
L 281.268547 172.626836 
L 281.630885 171.57441 
L 281.993222 172.098787 
L 282.35556 172.167263 
L 282.717898 171.574182 
L 283.442573 171.795719 
L 284.167248 171.727319 
L 284.529586 171.728792 
L 284.891924 172.057989 
L 285.254261 172.197913 
L 285.616599 171.68826 
L 285.978937 172.546455 
L 286.341274 171.75321 
L 286.703612 171.527242 
L 287.06595 171.579348 
L 287.428287 171.491789 
L 287.790625 171.614068 
L 288.152963 171.273213 
L 288.5153 171.721788 
L 289.602313 171.597293 
L 289.964651 171.221748 
L 290.326989 171.946635 
L 290.689326 171.54936 
L 291.051664 171.918295 
L 291.776339 171.369587 
L 292.138677 172.016757 
L 292.863352 171.647025 
L 293.22569 171.942592 
L 293.588028 171.796667 
L 293.950365 171.462699 
L 294.312703 171.850835 
L 294.675041 171.619728 
L 295.037378 171.633126 
L 295.399716 171.98708 
L 295.762054 171.713236 
L 296.124391 172.227735 
L 296.486729 171.661024 
L 296.849067 171.646745 
L 297.573742 172.171069 
L 298.298417 171.032468 
L 298.660755 171.890426 
L 299.023093 171.742362 
L 299.38543 171.418415 
L 299.747768 172.147392 
L 300.110106 171.921093 
L 300.472443 171.482523 
L 301.197119 172.073854 
L 301.559456 171.643588 
L 302.646469 171.546255 
L 303.008807 171.764198 
L 303.733482 171.069354 
L 304.09582 171.377002 
L 304.458157 172.050453 
L 304.820495 171.849916 
L 305.182833 171.860143 
L 305.54517 171.732915 
L 305.907508 171.303851 
L 306.632183 171.520633 
L 306.994521 171.730886 
L 307.356859 171.33955 
L 307.719196 171.775897 
L 308.081534 171.614878 
L 308.443872 172.277533 
L 308.806209 171.669711 
L 309.168547 172.172951 
L 309.530885 171.577625 
L 310.25556 171.483749 
L 310.617898 171.242414 
L 310.980235 171.979101 
L 311.342573 171.568908 
L 311.704911 171.468434 
L 312.067248 171.70582 
L 312.791924 171.783909 
L 313.154261 171.418185 
L 314.241274 171.594637 
L 314.603612 171.242859 
L 314.96595 171.826873 
L 315.328287 171.309659 
L 316.777638 171.853016 
L 317.864651 171.472713 
L 318.226989 171.307203 
L 318.589326 171.710485 
L 318.951664 171.574469 
L 319.314002 171.971282 
L 319.676339 171.285448 
L 320.038677 171.703686 
L 320.401015 171.380695 
L 320.763352 171.65969 
L 321.12569 171.250398 
L 321.488028 171.299857 
L 321.850365 171.575726 
L 322.212703 171.207537 
L 322.575041 171.86768 
L 322.937378 171.19964 
L 323.299716 171.064495 
L 323.662054 171.7875 
L 324.024391 171.064782 
L 324.386729 171.187348 
L 324.749067 171.604023 
L 325.473742 171.888027 
L 325.83608 171.30301 
L 326.198417 171.529095 
L 326.560755 171.497257 
L 326.923093 171.123619 
L 327.28543 171.158037 
L 327.647768 171.644663 
L 328.010106 171.830987 
L 328.372443 171.507214 
L 328.734781 171.34703 
L 329.097119 171.353478 
L 329.459456 171.722931 
L 329.821794 171.612591 
L 330.184131 171.653517 
L 330.908807 171.530283 
L 331.271144 171.6877 
L 331.633482 171.372083 
L 331.99582 171.415048 
L 332.358157 171.635205 
L 332.720495 171.574652 
L 333.082833 171.128399 
L 333.44517 171.523431 
L 333.807508 171.600522 
L 334.532183 171.312941 
L 334.894521 171.421824 
L 336.343872 171.458953 
L 336.706209 171.765277 
L 337.430885 171.500581 
L 338.517898 171.648895 
L 338.880235 171.615499 
L 339.242573 171.336644 
L 339.604911 171.447294 
L 339.967248 171.880552 
L 340.329586 171.525351 
L 340.691924 171.413842 
L 341.054261 171.716409 
L 341.416599 171.406692 
L 341.778937 171.650598 
L 343.228287 171.87875 
L 343.590625 171.544947 
L 343.952963 171.690293 
L 344.677638 171.612162 
L 345.039976 172.042311 
L 345.402313 171.602169 
L 345.764651 171.76101 
L 346.126989 171.60049 
L 346.489326 171.575155 
L 346.851664 171.782807 
L 347.214002 171.303394 
L 347.938677 172.22686 
L 348.301015 171.385557 
L 348.663352 171.749951 
L 349.02569 171.570733 
L 349.388028 171.623055 
L 349.750365 171.915835 
L 350.112703 171.576743 
L 350.475041 171.468432 
L 350.837378 171.920446 
L 351.199716 171.957665 
L 351.562054 171.390786 
L 351.924391 171.646143 
L 352.286729 171.629102 
L 353.011404 171.816926 
L 353.373742 171.68513 
L 353.73608 171.806109 
L 354.098417 172.046569 
L 354.460755 171.297708 
L 355.18543 171.772949 
L 355.547768 171.6523 
L 355.910106 171.374826 
L 356.634781 171.427694 
L 356.997119 172.009548 
L 357.359456 171.364036 
L 358.084131 171.599214 
L 358.446469 171.182616 
L 358.808807 171.62443 
L 359.533482 171.831593 
L 359.89582 171.542116 
L 360.258157 171.764636 
L 360.620495 171.463287 
L 360.982833 171.438166 
L 361.34517 172.100975 
L 361.707508 171.765845 
L 362.069846 171.61204 
L 363.519196 172.221847 
L 364.243872 171.520257 
L 364.606209 171.400278 
L 364.968547 171.564072 
L 365.330885 171.512417 
L 366.05556 171.61739 
L 366.417898 171.554389 
L 366.780235 171.908901 
L 367.142573 171.477327 
L 367.504911 172.091608 
L 367.867248 171.467854 
L 368.954261 171.666127 
L 369.316599 172.186488 
L 369.678937 171.742804 
L 370.76595 171.590847 
L 371.128287 171.158404 
L 371.490625 171.528959 
L 372.939976 171.420891 
L 373.302313 171.722485 
L 373.664651 171.863264 
L 374.026989 171.796162 
L 374.389326 171.490731 
L 374.751664 171.445488 
L 375.114002 171.680148 
L 375.476339 171.6821 
L 375.838677 171.293901 
L 376.201015 171.103215 
L 376.563352 171.539433 
L 377.288028 171.441867 
L 378.375041 171.648299 
L 378.737378 171.515511 
L 379.099716 171.614487 
L 380.186729 171.289406 
L 380.549067 171.409006 
L 380.911404 171.19151 
L 381.273742 171.651945 
L 381.63608 170.761083 
L 381.998417 170.987507 
L 382.360755 170.596013 
L 382.723093 170.737447 
L 383.08543 170.661208 
L 383.447768 170.928541 
L 384.172443 171.102284 
L 384.534781 171.42396 
L 384.897119 170.886879 
L 385.259456 171.345256 
L 385.621794 171.01546 
L 385.984131 171.26267 
L 387.071144 170.808042 
L 387.433482 171.328662 
L 387.79582 170.938545 
L 388.158157 170.867777 
L 388.882833 171.161667 
L 389.24517 171.29173 
L 389.607508 170.840532 
L 389.969846 171.08189 
L 390.332183 171.124606 
L 390.694521 171.29218 
L 391.056859 171.137038 
L 391.419196 171.198372 
L 391.781534 171.599172 
L 392.143872 171.300605 
L 392.506209 171.175879 
L 392.868547 171.381855 
L 393.230885 171.287735 
L 393.593222 171.65396 
L 393.95556 171.319707 
L 394.317898 171.636511 
L 394.680235 171.403219 
L 395.042573 171.330179 
L 395.404911 170.920461 
L 395.767248 171.171368 
L 396.129586 171.198484 
L 396.491924 170.872133 
L 396.854261 171.144007 
L 397.941274 171.376753 
L 398.303612 171.557049 
L 398.66595 171.08047 
L 399.028287 171.45491 
L 399.390625 171.121281 
L 399.752963 171.235663 
L 400.1153 171.595601 
L 400.477638 171.396206 
L 401.564651 171.330871 
L 401.926989 170.934157 
L 402.289326 170.870753 
L 402.651664 171.170502 
L 403.014002 170.882795 
L 403.376339 171.036573 
L 403.738677 171.026358 
L 404.463352 171.299812 
L 404.82569 170.904056 
L 405.188028 171.293444 
L 405.550365 171.157349 
L 406.275041 171.257007 
L 406.999716 171.341784 
L 407.362054 171.881538 
L 407.724391 171.190762 
L 408.086729 170.920531 
L 408.449067 171.002608 
L 408.811404 170.940161 
L 409.173742 171.236111 
L 409.53608 170.691898 
L 409.898417 170.6631 
L 410.260755 171.289256 
L 410.623093 170.834097 
L 410.98543 171.337713 
L 411.347768 170.954675 
L 411.710106 170.995028 
L 412.434781 170.695438 
L 412.797119 170.874813 
L 413.521794 171.045581 
L 413.884131 171.791283 
L 414.608807 170.743319 
L 414.971144 170.589246 
L 415.69582 171.082335 
L 416.058157 170.878595 
L 416.420495 171.202007 
L 416.782833 170.834619 
L 417.14517 170.857913 
L 417.869846 171.258332 
L 418.232183 170.645336 
L 418.594521 170.801055 
L 418.956859 171.163091 
L 419.681534 171.148606 
L 420.043872 171.214201 
L 420.406209 171.105061 
L 420.768547 170.849566 
L 421.130885 170.933592 
L 421.493222 171.135447 
L 422.217898 171.022335 
L 422.580235 171.532721 
L 423.304911 171.081306 
L 423.667248 171.417653 
L 424.029586 170.865572 
L 424.391924 171.186786 
L 424.754261 171.2233 
L 425.116599 171.100225 
L 426.56595 171.417797 
L 426.928287 171.003962 
L 427.290625 170.873678 
L 427.652963 171.19923 
L 428.0153 170.9147 
L 428.377638 171.176549 
L 428.739976 170.720087 
L 429.102313 171.221837 
L 429.464651 170.825395 
L 430.189326 170.903701 
L 430.551664 170.894215 
L 430.914002 171.263465 
L 431.276339 170.896899 
L 431.638677 171.064158 
L 432.001015 170.930889 
L 432.72569 170.953442 
L 433.088028 170.660597 
L 433.450365 170.829386 
L 433.812703 171.134191 
L 434.175041 171.278856 
L 434.537378 171.285917 
L 435.262054 171.133321 
L 435.624391 171.228559 
L 435.986729 171.011475 
L 436.349067 171.071401 
L 436.711404 170.969186 
L 437.073742 171.117366 
L 437.43608 170.902941 
L 437.798417 171.340473 
L 438.160755 171.330764 
L 438.523093 171.442246 
L 438.88543 171.170754 
L 439.972443 171.073413 
L 440.334781 171.224513 
L 441.059456 171.200761 
L 441.421794 170.932061 
L 441.784131 170.85153 
L 442.146469 171.272058 
L 442.508807 170.919905 
L 443.233482 171.328001 
L 443.59582 170.945018 
L 443.958157 170.93693 
L 444.320495 171.191192 
L 444.682833 171.629335 
L 445.407508 171.045536 
L 445.769846 171.168376 
L 446.132183 171.41437 
L 446.494521 171.020584 
L 446.856859 171.11746 
L 447.219196 171.086986 
L 447.581534 171.190889 
L 448.306209 171.170039 
L 448.668547 171.433766 
L 449.030885 171.231394 
L 449.393222 171.416421 
L 451.204911 171.1695 
L 451.567248 171.255996 
L 451.929586 171.201189 
L 452.654261 170.894037 
L 454.103612 171.19389 
L 454.828287 170.958544 
L 455.552963 171.520634 
L 455.9153 171.119372 
L 456.277638 171.018045 
L 456.639976 171.67436 
L 457.002313 171.09071 
L 457.364651 171.354111 
L 458.089326 170.839483 
L 458.451664 170.719592 
L 458.814002 170.840227 
L 459.176339 170.708209 
L 459.538677 170.893917 
L 459.901015 171.223553 
L 460.263352 170.712814 
L 460.62569 170.735789 
L 460.988028 170.56253 
L 461.350365 170.978219 
L 461.712703 170.867546 
L 462.437378 171.072234 
L 462.799716 170.655839 
L 463.162054 170.698314 
L 463.524391 171.11127 
L 463.886729 170.684368 
L 464.973742 171.266159 
L 465.33608 171.20957 
L 465.698417 170.876477 
L 466.060755 171.059444 
L 466.78543 170.926751 
L 467.147768 170.696355 
L 467.510106 170.808768 
L 467.872443 171.218476 
L 469.321794 170.606371 
L 469.684131 170.938834 
L 470.046469 170.807869 
L 470.408807 170.850105 
L 470.771144 170.759542 
L 471.133482 170.856284 
L 471.49582 171.272716 
L 471.858157 170.761774 
L 472.220495 170.881607 
L 472.94517 170.761931 
L 473.307508 170.918663 
L 473.669846 170.768164 
L 474.032183 171.215186 
L 474.394521 171.017064 
L 474.756859 171.250301 
L 475.119196 170.951181 
L 476.206209 170.750064 
L 476.568547 170.934623 
L 476.930885 170.891714 
L 477.293222 171.047805 
L 477.65556 170.738098 
L 478.380235 170.735819 
L 478.742573 171.010138 
L 479.104911 170.904273 
L 479.467248 170.954422 
L 480.191924 171.288385 
L 480.916599 170.87931 
L 481.278937 170.684863 
L 481.641274 170.925244 
L 482.003612 170.765478 
L 482.728287 171.199506 
L 483.090625 171.148805 
L 483.452963 171.398969 
L 483.8153 170.721241 
L 484.177638 170.982733 
L 484.902313 171.023371 
L 485.264651 170.609744 
L 485.626989 171.056523 
L 486.714002 170.571225 
L 487.076339 170.84737 
L 487.438677 170.748957 
L 487.801015 170.807698 
L 488.888028 170.51698 
L 489.250365 170.745012 
L 489.612703 170.786442 
L 489.975041 171.193776 
L 490.337378 170.903311 
L 490.699716 171.058865 
L 491.062054 170.887706 
L 491.424391 170.952627 
L 491.786729 170.813599 
L 492.149067 171.215764 
L 492.511404 170.740278 
L 492.873742 170.613744 
L 493.598417 170.579924 
L 494.323093 171.092789 
L 495.047768 170.837638 
L 495.410106 170.913837 
L 495.772443 170.727723 
L 496.134781 170.969048 
L 496.497119 170.825615 
L 496.859456 170.889193 
L 497.221794 171.108736 
L 497.584131 171.187159 
L 497.946469 171.147762 
L 498.308807 170.533143 
L 499.758157 170.847003 
L 500.120495 170.707416 
L 500.482833 170.726416 
L 500.84517 171.098922 
L 501.207508 171.160734 
L 501.569846 170.559771 
L 501.932183 170.413832 
L 503.019196 170.938173 
L 503.381534 170.55412 
L 503.743872 170.483856 
L 504.106209 171.003681 
L 504.468547 170.953024 
L 504.830885 171.316819 
L 505.55556 170.613016 
L 505.917898 170.786452 
L 506.280235 170.736078 
L 506.642573 170.961564 
L 507.367248 170.948136 
L 507.729586 171.101096 
L 508.091924 170.735404 
L 508.816599 171.117438 
L 509.178937 170.693311 
L 509.903612 170.916796 
L 510.26595 171.203961 
L 510.990625 170.745573 
L 511.352963 171.040061 
L 511.7153 170.812139 
L 512.802313 170.704211 
L 513.164651 170.67869 
L 513.526989 170.895043 
L 513.889326 170.381518 
L 514.251664 170.93827 
L 514.614002 170.96271 
L 514.976339 170.534306 
L 515.338677 171.048113 
L 515.701015 170.651114 
L 516.063352 170.622422 
L 516.42569 170.950698 
L 516.788028 170.874743 
L 517.150365 170.64102 
L 517.512703 170.906864 
L 517.875041 170.691515 
L 518.237378 171.212719 
L 518.599716 170.834661 
L 518.962054 170.639146 
L 519.324391 170.850851 
L 519.686729 170.860258 
L 520.049067 170.667375 
L 520.411404 170.835431 
L 520.773742 170.626871 
L 521.13608 170.834009 
L 521.498417 170.866606 
L 521.860755 170.72198 
L 522.223093 170.720277 
L 522.58543 170.933455 
L 522.947768 170.451516 
L 523.310106 170.419604 
L 523.672443 170.998416 
L 524.034781 170.579085 
L 524.397119 170.74032 
L 524.759456 170.768913 
L 525.121794 170.429201 
L 525.484131 170.489571 
L 525.846469 170.718454 
L 526.208807 170.603393 
L 526.571144 170.850211 
L 526.933482 170.559679 
L 527.29582 170.813131 
L 527.658157 170.52679 
L 528.020495 170.63431 
L 528.382833 170.491912 
L 528.74517 170.648642 
L 529.107508 170.571859 
L 529.469846 170.871463 
L 529.832183 170.58753 
L 530.194521 170.512779 
L 532.368547 171.03303 
L 533.093222 170.528718 
L 533.817898 170.9274 
L 534.180235 170.733948 
L 534.542573 171.0728 
L 534.904911 170.763549 
L 535.629586 171.122912 
L 535.991924 170.841414 
L 536.354261 170.798636 
L 536.716599 170.576703 
L 537.441274 170.830291 
L 537.803612 170.589583 
L 538.16595 170.916207 
L 538.528287 170.759809 
L 538.890625 170.774932 
L 539.6153 170.359896 
L 540.339976 170.635367 
L 540.702313 171.070245 
L 541.064651 170.657707 
L 541.426989 170.550851 
L 541.789326 170.598932 
L 542.151664 170.787151 
L 542.514002 170.681688 
L 542.876339 170.387036 
L 543.238677 170.416115 
L 543.601015 170.878409 
L 543.963352 170.630899 
L 544.32569 171.071578 
L 544.688028 171.1535 
L 545.050365 170.549599 
L 545.412703 170.759775 
L 545.775041 170.538498 
L 546.862054 171.055881 
L 547.586729 170.888099 
L 548.311404 170.692511 
L 548.673742 170.725042 
L 549.03608 170.613034 
L 549.398417 170.834623 
L 550.123093 170.953865 
L 550.48543 170.604125 
L 550.847768 170.559315 
L 551.210106 170.734298 
L 551.572443 170.765653 
L 551.934781 170.934995 
L 552.659456 170.626062 
L 553.021794 170.990162 
L 553.746469 170.651681 
L 554.108807 171.145624 
L 554.471144 170.578558 
L 554.833482 170.839456 
L 555.19582 170.875805 
L 555.920495 170.471814 
L 556.282833 170.424695 
L 557.007508 170.631749 
L 557.732183 170.888186 
L 558.094521 170.744507 
L 558.819196 170.786117 
L 559.181534 170.631302 
L 559.906209 170.687728 
L 560.268547 170.972742 
L 560.630885 170.537612 
L 560.993222 170.880383 
L 561.717898 170.603943 
L 562.080235 170.819605 
L 562.442573 170.509849 
L 562.804911 170.950334 
L 563.167248 170.833115 
L 563.529586 170.558232 
L 564.254261 170.741402 
L 564.616599 170.699919 
L 564.978937 170.872233 
L 565.341274 170.279612 
L 565.703612 170.798662 
L 566.06595 170.818435 
L 566.428287 170.694929 
L 566.790625 171.134182 
L 567.152963 170.863706 
L 567.5153 170.837301 
L 567.877638 170.665313 
L 568.239976 170.786664 
L 568.602313 170.581829 
L 569.326989 170.941334 
L 569.689326 170.674548 
L 570.051664 170.602221 
L 570.414002 170.745723 
L 570.776339 170.63707 
L 571.138677 170.978944 
L 571.501015 170.78368 
L 571.863352 170.822146 
L 572.22569 171.200952 
L 572.588028 170.725629 
L 572.950365 170.707773 
L 573.675041 171.120343 
L 574.037378 170.820297 
L 574.399716 170.956407 
L 574.762054 170.59562 
L 575.124391 170.652294 
L 575.486729 170.541251 
L 575.849067 170.720733 
L 576.211404 170.676061 
L 576.573742 170.424413 
L 576.93608 170.53423 
L 577.298417 170.507187 
L 577.660755 170.281122 
L 578.023093 170.582402 
L 579.110106 170.507017 
L 579.472443 170.402274 
L 579.834781 170.630037 
L 580.197119 170.651028 
L 580.559456 170.490456 
L 581.284131 170.799205 
L 581.646469 170.571074 
L 582.008807 170.634182 
L 582.733482 170.336733 
L 583.09582 170.560438 
L 583.458157 170.590834 
L 583.820495 171.054906 
L 584.54517 170.561266 
L 586.356859 170.682939 
L 586.719196 170.770461 
L 587.081534 170.514827 
L 587.443872 170.701922 
L 587.806209 170.509819 
L 588.168547 170.445859 
L 588.530885 170.499178 
L 588.893222 170.245035 
L 589.25556 170.655261 
L 589.617898 170.786104 
L 589.980235 170.671702 
L 590.342573 170.437481 
L 590.704911 170.740617 
L 591.067248 170.807076 
L 591.429586 170.69044 
L 591.791924 170.804829 
L 592.154261 170.645536 
L 592.516599 170.328209 
L 592.878937 170.545485 
L 593.241274 170.484062 
L 593.603612 170.681486 
L 594.690625 170.603993 
L 595.052963 170.859693 
L 595.4153 170.390122 
L 596.139976 170.705633 
L 596.502313 170.632732 
L 596.864651 170.894376 
L 597.226989 170.517912 
L 597.951664 170.691512 
L 598.314002 170.43232 
L 598.676339 170.560201 
L 599.038677 170.325376 
L 599.401015 170.6138 
L 599.763352 170.508865 
L 600.12569 170.979107 
L 600.488028 170.974679 
L 600.850365 170.375334 
L 601.212703 170.711939 
L 601.937378 170.638454 
L 602.299716 170.677264 
L 602.662054 170.510359 
L 603.386729 170.642513 
L 603.749067 171.146759 
L 604.111404 170.48617 
L 605.198417 170.793886 
L 605.560755 170.961593 
L 605.923093 170.927388 
L 606.28543 170.488995 
L 606.647768 171.086491 
L 607.010106 170.69472 
L 607.372443 170.567617 
L 607.734781 170.963608 
L 608.097119 170.539445 
L 608.459456 170.684739 
L 608.821794 170.423255 
L 609.184131 170.857426 
L 609.546469 170.542898 
L 609.908807 170.50515 
L 610.271144 170.243769 
L 610.633482 170.74702 
L 610.99582 170.774729 
L 611.358157 170.924798 
L 611.720495 170.596336 
L 612.082833 170.963638 
L 612.44517 170.497692 
L 612.807508 170.360859 
L 613.169846 170.616801 
L 613.532183 170.47359 
L 613.894521 170.664628 
L 614.256859 170.61835 
L 614.619196 170.895543 
L 614.981534 170.631459 
L 615.343872 170.834951 
L 615.706209 170.821059 
L 616.068547 170.511219 
L 616.430885 171.085793 
L 616.793222 170.618325 
L 617.15556 170.748792 
L 617.880235 170.517406 
L 618.242573 170.644483 
L 618.604911 170.505008 
L 619.691924 170.728019 
L 620.054261 171.000412 
L 620.416599 170.803728 
L 621.141274 170.805451 
L 621.503612 170.80358 
L 621.86595 171.009155 
L 622.228287 170.642632 
L 622.590625 170.504354 
L 623.677638 171.033433 
L 624.039976 170.888476 
L 624.402313 170.545554 
L 624.764651 170.52884 
L 625.126989 170.705485 
L 625.126989 170.705485 
" clip-path="url(#pe8731f84b5)" style="fill: none; stroke: #ff7f0e; stroke-width: 1.5; stroke-linecap: square"/>
   </g>
   <g id="patch_3">
    <path d="M 92.490625 308.63625 
L 92.490625 31.43625 
" style="fill: none; stroke: #000000; stroke-width: 0.8; stroke-linejoin: miter; stroke-linecap: square"/>
   </g>
   <g id="patch_4">
    <path d="M 650.490625 308.63625 
L 650.490625 31.43625 
" style="fill: none; stroke: #000000; stroke-width: 0.8; stroke-linejoin: miter; stroke-linecap: square"/>
   </g>
   <g id="patch_5">
    <path d="M 92.490625 308.63625 
L 650.490625 308.63625 
" style="fill: none; stroke: #000000; stroke-width: 0.8; stroke-linejoin: miter; stroke-linecap: square"/>
   </g>
   <g id="patch_6">
    <path d="M 92.490625 31.43625 
L 650.490625 31.43625 
" style="fill: none; stroke: #000000; stroke-width: 0.8; stroke-linejoin: miter; stroke-linecap: square"/>
   </g>
   <g id="text_16">
    <!-- Generator and Discriminator Loss During Training -->
    <g transform="translate(74.258125 25.43625) scale(0.24 -0.24)">
     <defs>
      <path id="DejaVuSans-47" d="M 3809 666 
L 3809 1919 
L 2778 1919 
L 2778 2438 
L 4434 2438 
L 4434 434 
Q 4069 175 3628 42 
Q 3188 -91 2688 -91 
Q 1594 -91 976 548 
Q 359 1188 359 2328 
Q 359 3472 976 4111 
Q 1594 4750 2688 4750 
Q 3144 4750 3555 4637 
Q 3966 4525 4313 4306 
L 4313 3634 
Q 3963 3931 3569 4081 
Q 3175 4231 2741 4231 
Q 1884 4231 1454 3753 
Q 1025 3275 1025 2328 
Q 1025 1384 1454 906 
Q 1884 428 2741 428 
Q 3075 428 3337 486 
Q 3600 544 3809 666 
z
" transform="scale(0.015625)"/>
      <path id="DejaVuSans-20" transform="scale(0.015625)"/>
      <path id="DejaVuSans-64" d="M 2906 2969 
L 2906 4863 
L 3481 4863 
L 3481 0 
L 2906 0 
L 2906 525 
Q 2725 213 2448 61 
Q 2172 -91 1784 -91 
Q 1150 -91 751 415 
Q 353 922 353 1747 
Q 353 2572 751 3078 
Q 1150 3584 1784 3584 
Q 2172 3584 2448 3432 
Q 2725 3281 2906 2969 
z
M 947 1747 
Q 947 1113 1208 752 
Q 1469 391 1925 391 
Q 2381 391 2643 752 
Q 2906 1113 2906 1747 
Q 2906 2381 2643 2742 
Q 2381 3103 1925 3103 
Q 1469 3103 1208 2742 
Q 947 2381 947 1747 
z
" transform="scale(0.015625)"/>
      <path id="DejaVuSans-44" d="M 1259 4147 
L 1259 519 
L 2022 519 
Q 2988 519 3436 956 
Q 3884 1394 3884 2338 
Q 3884 3275 3436 3711 
Q 2988 4147 2022 4147 
L 1259 4147 
z
M 628 4666 
L 1925 4666 
Q 3281 4666 3915 4102 
Q 4550 3538 4550 2338 
Q 4550 1131 3912 565 
Q 3275 0 1925 0 
L 628 0 
L 628 4666 
z
" transform="scale(0.015625)"/>
      <path id="DejaVuSans-63" d="M 3122 3366 
L 3122 2828 
Q 2878 2963 2633 3030 
Q 2388 3097 2138 3097 
Q 1578 3097 1268 2742 
Q 959 2388 959 1747 
Q 959 1106 1268 751 
Q 1578 397 2138 397 
Q 2388 397 2633 464 
Q 2878 531 3122 666 
L 3122 134 
Q 2881 22 2623 -34 
Q 2366 -91 2075 -91 
Q 1284 -91 818 406 
Q 353 903 353 1747 
Q 353 2603 823 3093 
Q 1294 3584 2113 3584 
Q 2378 3584 2631 3529 
Q 2884 3475 3122 3366 
z
" transform="scale(0.015625)"/>
      <path id="DejaVuSans-6d" d="M 3328 2828 
Q 3544 3216 3844 3400 
Q 4144 3584 4550 3584 
Q 5097 3584 5394 3201 
Q 5691 2819 5691 2113 
L 5691 0 
L 5113 0 
L 5113 2094 
Q 5113 2597 4934 2840 
Q 4756 3084 4391 3084 
Q 3944 3084 3684 2787 
Q 3425 2491 3425 1978 
L 3425 0 
L 2847 0 
L 2847 2094 
Q 2847 2600 2669 2842 
Q 2491 3084 2119 3084 
Q 1678 3084 1418 2786 
Q 1159 2488 1159 1978 
L 1159 0 
L 581 0 
L 581 3500 
L 1159 3500 
L 1159 2956 
Q 1356 3278 1631 3431 
Q 1906 3584 2284 3584 
Q 2666 3584 2933 3390 
Q 3200 3197 3328 2828 
z
" transform="scale(0.015625)"/>
      <path id="DejaVuSans-75" d="M 544 1381 
L 544 3500 
L 1119 3500 
L 1119 1403 
Q 1119 906 1312 657 
Q 1506 409 1894 409 
Q 2359 409 2629 706 
Q 2900 1003 2900 1516 
L 2900 3500 
L 3475 3500 
L 3475 0 
L 2900 0 
L 2900 538 
Q 2691 219 2414 64 
Q 2138 -91 1772 -91 
Q 1169 -91 856 284 
Q 544 659 544 1381 
z
M 1991 3584 
L 1991 3584 
z
" transform="scale(0.015625)"/>
      <path id="DejaVuSans-67" d="M 2906 1791 
Q 2906 2416 2648 2759 
Q 2391 3103 1925 3103 
Q 1463 3103 1205 2759 
Q 947 2416 947 1791 
Q 947 1169 1205 825 
Q 1463 481 1925 481 
Q 2391 481 2648 825 
Q 2906 1169 2906 1791 
z
M 3481 434 
Q 3481 -459 3084 -895 
Q 2688 -1331 1869 -1331 
Q 1566 -1331 1297 -1286 
Q 1028 -1241 775 -1147 
L 775 -588 
Q 1028 -725 1275 -790 
Q 1522 -856 1778 -856 
Q 2344 -856 2625 -561 
Q 2906 -266 2906 331 
L 2906 616 
Q 2728 306 2450 153 
Q 2172 0 1784 0 
Q 1141 0 747 490 
Q 353 981 353 1791 
Q 353 2603 747 3093 
Q 1141 3584 1784 3584 
Q 2172 3584 2450 3431 
Q 2728 3278 2906 2969 
L 2906 3500 
L 3481 3500 
L 3481 434 
z
" transform="scale(0.015625)"/>
      <path id="DejaVuSans-54" d="M -19 4666 
L 3928 4666 
L 3928 4134 
L 2272 4134 
L 2272 0 
L 1638 0 
L 1638 4134 
L -19 4134 
L -19 4666 
z
" transform="scale(0.015625)"/>
     </defs>
     <use xlink:href="#DejaVuSans-47"/>
     <use xlink:href="#DejaVuSans-65" x="77.490234"/>
     <use xlink:href="#DejaVuSans-6e" x="139.013672"/>
     <use xlink:href="#DejaVuSans-65" x="202.392578"/>
     <use xlink:href="#DejaVuSans-72" x="263.916016"/>
     <use xlink:href="#DejaVuSans-61" x="305.029297"/>
     <use xlink:href="#DejaVuSans-74" x="366.308594"/>
     <use xlink:href="#DejaVuSans-6f" x="405.517578"/>
     <use xlink:href="#DejaVuSans-72" x="466.699219"/>
     <use xlink:href="#DejaVuSans-20" x="507.8125"/>
     <use xlink:href="#DejaVuSans-61" x="539.599609"/>
     <use xlink:href="#DejaVuSans-6e" x="600.878906"/>
     <use xlink:href="#DejaVuSans-64" x="664.257812"/>
     <use xlink:href="#DejaVuSans-20" x="727.734375"/>
     <use xlink:href="#DejaVuSans-44" x="759.521484"/>
     <use xlink:href="#DejaVuSans-69" x="836.523438"/>
     <use xlink:href="#DejaVuSans-73" x="864.306641"/>
     <use xlink:href="#DejaVuSans-63" x="916.40625"/>
     <use xlink:href="#DejaVuSans-72" x="971.386719"/>
     <use xlink:href="#DejaVuSans-69" x="1012.5"/>
     <use xlink:href="#DejaVuSans-6d" x="1040.283203"/>
     <use xlink:href="#DejaVuSans-69" x="1137.695312"/>
     <use xlink:href="#DejaVuSans-6e" x="1165.478516"/>
     <use xlink:href="#DejaVuSans-61" x="1228.857422"/>
     <use xlink:href="#DejaVuSans-74" x="1290.136719"/>
     <use xlink:href="#DejaVuSans-6f" x="1329.345703"/>
     <use xlink:href="#DejaVuSans-72" x="1390.527344"/>
     <use xlink:href="#DejaVuSans-20" x="1431.640625"/>
     <use xlink:href="#DejaVuSans-4c" x="1463.427734"/>
     <use xlink:href="#DejaVuSans-6f" x="1517.390625"/>
     <use xlink:href="#DejaVuSans-73" x="1578.572266"/>
     <use xlink:href="#DejaVuSans-73" x="1630.671875"/>
     <use xlink:href="#DejaVuSans-20" x="1682.771484"/>
     <use xlink:href="#DejaVuSans-44" x="1714.558594"/>
     <use xlink:href="#DejaVuSans-75" x="1791.560547"/>
     <use xlink:href="#DejaVuSans-72" x="1854.939453"/>
     <use xlink:href="#DejaVuSans-69" x="1896.052734"/>
     <use xlink:href="#DejaVuSans-6e" x="1923.835938"/>
     <use xlink:href="#DejaVuSans-67" x="1987.214844"/>
     <use xlink:href="#DejaVuSans-20" x="2050.691406"/>
     <use xlink:href="#DejaVuSans-54" x="2082.478516"/>
     <use xlink:href="#DejaVuSans-72" x="2128.8125"/>
     <use xlink:href="#DejaVuSans-61" x="2169.925781"/>
     <use xlink:href="#DejaVuSans-69" x="2231.205078"/>
     <use xlink:href="#DejaVuSans-6e" x="2258.988281"/>
     <use xlink:href="#DejaVuSans-69" x="2322.367188"/>
     <use xlink:href="#DejaVuSans-6e" x="2350.150391"/>
     <use xlink:href="#DejaVuSans-67" x="2413.529297"/>
    </g>
   </g>
   <g id="legend_1">
    <g id="patch_7">
     <path d="M 556.99375 106.14875 
L 636.490625 106.14875 
Q 640.490625 106.14875 640.490625 102.14875 
L 640.490625 45.43625 
Q 640.490625 41.43625 636.490625 41.43625 
L 556.99375 41.43625 
Q 552.99375 41.43625 552.99375 45.43625 
L 552.99375 102.14875 
Q 552.99375 106.14875 556.99375 106.14875 
z
" style="fill: #ffffff; opacity: 0.8; stroke: #cccccc; stroke-linejoin: miter"/>
    </g>
    <g id="line2d_16">
     <path d="M 560.99375 57.633125 
L 580.99375 57.633125 
L 600.99375 57.633125 
" style="fill: none; stroke: #1f77b4; stroke-width: 1.5; stroke-linecap: square"/>
    </g>
    <g id="text_17">
     <!-- G -->
     <g transform="translate(616.99375 64.633125) scale(0.2 -0.2)">
      <use xlink:href="#DejaVuSans-47"/>
     </g>
    </g>
    <g id="line2d_17">
     <path d="M 560.99375 86.989375 
L 580.99375 86.989375 
L 600.99375 86.989375 
" style="fill: none; stroke: #ff7f0e; stroke-width: 1.5; stroke-linecap: square"/>
    </g>
    <g id="text_18">
     <!-- D -->
     <g transform="translate(616.99375 93.989375) scale(0.2 -0.2)">
      <use xlink:href="#DejaVuSans-44"/>
     </g>
    </g>
   </g>
  </g>
 </g>
 <defs>
  <clipPath id="pe8731f84b5">
   <rect x="92.490625" y="31.43625" width="558" height="277.2"/>
  </clipPath>
 </defs>
</svg>
