<?xml version="1.0" encoding="utf-8" standalone="no"?>
<!DOCTYPE svg PUBLIC "-//W3C//DTD SVG 1.1//EN"
  "http://www.w3.org/Graphics/SVG/1.1/DTD/svg11.dtd">
<svg xmlns:xlink="http://www.w3.org/1999/xlink" width="675.923125pt" height="365.54875pt" viewBox="0 0 675.923125 365.54875" xmlns="http://www.w3.org/2000/svg" version="1.1">
 <metadata>
  <rdf:RDF xmlns:dc="http://purl.org/dc/elements/1.1/" xmlns:cc="http://creativecommons.org/ns#" xmlns:rdf="http://www.w3.org/1999/02/22-rdf-syntax-ns#">
   <cc:Work>
    <dc:type rdf:resource="http://purl.org/dc/dcmitype/StillImage"/>
    <dc:date>2024-02-12T18:30:39.287647</dc:date>
    <dc:format>image/svg+xml</dc:format>
    <dc:creator>
     <cc:Agent>
      <dc:title>Matplotlib v3.7.2, https://matplotlib.org/</dc:title>
     </cc:Agent>
    </dc:creator>
   </cc:Work>
  </rdf:RDF>
 </metadata>
 <defs>
  <style type="text/css">*{stroke-linejoin: round; stroke-linecap: butt}</style>
 </defs>
 <g id="figure_1">
  <g id="patch_1">
   <path d="M 0 365.54875 
L 675.923125 365.54875 
L 675.923125 -0 
L 0 -0 
z
" style="fill: #ffffff"/>
  </g>
  <g id="axes_1">
   <g id="patch_2">
    <path d="M 92.490625 308.63625 
L 650.490625 308.63625 
L 650.490625 31.43625 
L 92.490625 31.43625 
z
" style="fill: #ffffff"/>
   </g>
   <g id="matplotlib.axis_1">
    <g id="xtick_1">
     <g id="line2d_1">
      <defs>
       <path id="ma64dde9ae1" d="M 0 0 
L 0 3.5 
" style="stroke: #000000; stroke-width: 0.8"/>
      </defs>
      <g>
       <use xlink:href="#ma64dde9ae1" x="117.854261" y="308.63625" style="stroke: #000000; stroke-width: 0.8"/>
      </g>
     </g>
     <g id="text_1">
      <!-- 0 -->
      <g transform="translate(111.491761 330.833125) scale(0.2 -0.2)">
       <defs>
        <path id="DejaVuSans-30" d="M 2034 4250 
Q 1547 4250 1301 3770 
Q 1056 3291 1056 2328 
Q 1056 1369 1301 889 
Q 1547 409 2034 409 
Q 2525 409 2770 889 
Q 3016 1369 3016 2328 
Q 3016 3291 2770 3770 
Q 2525 4250 2034 4250 
z
M 2034 4750 
Q 2819 4750 3233 4129 
Q 3647 3509 3647 2328 
Q 3647 1150 3233 529 
Q 2819 -91 2034 -91 
Q 1250 -91 836 529 
Q 422 1150 422 2328 
Q 422 3509 836 4129 
Q 1250 4750 2034 4750 
z
" transform="scale(0.015625)"/>
       </defs>
       <use xlink:href="#DejaVuSans-30"/>
      </g>
     </g>
    </g>
    <g id="xtick_2">
     <g id="line2d_2">
      <g>
       <use xlink:href="#ma64dde9ae1" x="181.263352" y="308.63625" style="stroke: #000000; stroke-width: 0.8"/>
      </g>
     </g>
     <g id="text_2">
      <!-- 50 -->
      <g transform="translate(168.538352 330.833125) scale(0.2 -0.2)">
       <defs>
        <path id="DejaVuSans-35" d="M 691 4666 
L 3169 4666 
L 3169 4134 
L 1269 4134 
L 1269 2991 
Q 1406 3038 1543 3061 
Q 1681 3084 1819 3084 
Q 2600 3084 3056 2656 
Q 3513 2228 3513 1497 
Q 3513 744 3044 326 
Q 2575 -91 1722 -91 
Q 1428 -91 1123 -41 
Q 819 9 494 109 
L 494 744 
Q 775 591 1075 516 
Q 1375 441 1709 441 
Q 2250 441 2565 725 
Q 2881 1009 2881 1497 
Q 2881 1984 2565 2268 
Q 2250 2553 1709 2553 
Q 1456 2553 1204 2497 
Q 953 2441 691 2322 
L 691 4666 
z
" transform="scale(0.015625)"/>
       </defs>
       <use xlink:href="#DejaVuSans-35"/>
       <use xlink:href="#DejaVuSans-30" x="63.623047"/>
      </g>
     </g>
    </g>
    <g id="xtick_3">
     <g id="line2d_3">
      <g>
       <use xlink:href="#ma64dde9ae1" x="244.672443" y="308.63625" style="stroke: #000000; stroke-width: 0.8"/>
      </g>
     </g>
     <g id="text_3">
      <!-- 100 -->
      <g transform="translate(225.584943 330.833125) scale(0.2 -0.2)">
       <defs>
        <path id="DejaVuSans-31" d="M 794 531 
L 1825 531 
L 1825 4091 
L 703 3866 
L 703 4441 
L 1819 4666 
L 2450 4666 
L 2450 531 
L 3481 531 
L 3481 0 
L 794 0 
L 794 531 
z
" transform="scale(0.015625)"/>
       </defs>
       <use xlink:href="#DejaVuSans-31"/>
       <use xlink:href="#DejaVuSans-30" x="63.623047"/>
       <use xlink:href="#DejaVuSans-30" x="127.246094"/>
      </g>
     </g>
    </g>
    <g id="xtick_4">
     <g id="line2d_4">
      <g>
       <use xlink:href="#ma64dde9ae1" x="308.081534" y="308.63625" style="stroke: #000000; stroke-width: 0.8"/>
      </g>
     </g>
     <g id="text_4">
      <!-- 150 -->
      <g transform="translate(288.994034 330.833125) scale(0.2 -0.2)">
       <use xlink:href="#DejaVuSans-31"/>
       <use xlink:href="#DejaVuSans-35" x="63.623047"/>
       <use xlink:href="#DejaVuSans-30" x="127.246094"/>
      </g>
     </g>
    </g>
    <g id="xtick_5">
     <g id="line2d_5">
      <g>
       <use xlink:href="#ma64dde9ae1" x="371.490625" y="308.63625" style="stroke: #000000; stroke-width: 0.8"/>
      </g>
     </g>
     <g id="text_5">
      <!-- 200 -->
      <g transform="translate(352.403125 330.833125) scale(0.2 -0.2)">
       <defs>
        <path id="DejaVuSans-32" d="M 1228 531 
L 3431 531 
L 3431 0 
L 469 0 
L 469 531 
Q 828 903 1448 1529 
Q 2069 2156 2228 2338 
Q 2531 2678 2651 2914 
Q 2772 3150 2772 3378 
Q 2772 3750 2511 3984 
Q 2250 4219 1831 4219 
Q 1534 4219 1204 4116 
Q 875 4013 500 3803 
L 500 4441 
Q 881 4594 1212 4672 
Q 1544 4750 1819 4750 
Q 2544 4750 2975 4387 
Q 3406 4025 3406 3419 
Q 3406 3131 3298 2873 
Q 3191 2616 2906 2266 
Q 2828 2175 2409 1742 
Q 1991 1309 1228 531 
z
" transform="scale(0.015625)"/>
       </defs>
       <use xlink:href="#DejaVuSans-32"/>
       <use xlink:href="#DejaVuSans-30" x="63.623047"/>
       <use xlink:href="#DejaVuSans-30" x="127.246094"/>
      </g>
     </g>
    </g>
    <g id="xtick_6">
     <g id="line2d_6">
      <g>
       <use xlink:href="#ma64dde9ae1" x="434.899716" y="308.63625" style="stroke: #000000; stroke-width: 0.8"/>
      </g>
     </g>
     <g id="text_6">
      <!-- 250 -->
      <g transform="translate(415.812216 330.833125) scale(0.2 -0.2)">
       <use xlink:href="#DejaVuSans-32"/>
       <use xlink:href="#DejaVuSans-35" x="63.623047"/>
       <use xlink:href="#DejaVuSans-30" x="127.246094"/>
      </g>
     </g>
    </g>
    <g id="xtick_7">
     <g id="line2d_7">
      <g>
       <use xlink:href="#ma64dde9ae1" x="498.308807" y="308.63625" style="stroke: #000000; stroke-width: 0.8"/>
      </g>
     </g>
     <g id="text_7">
      <!-- 300 -->
      <g transform="translate(479.221307 330.833125) scale(0.2 -0.2)">
       <defs>
        <path id="DejaVuSans-33" d="M 2597 2516 
Q 3050 2419 3304 2112 
Q 3559 1806 3559 1356 
Q 3559 666 3084 287 
Q 2609 -91 1734 -91 
Q 1441 -91 1130 -33 
Q 819 25 488 141 
L 488 750 
Q 750 597 1062 519 
Q 1375 441 1716 441 
Q 2309 441 2620 675 
Q 2931 909 2931 1356 
Q 2931 1769 2642 2001 
Q 2353 2234 1838 2234 
L 1294 2234 
L 1294 2753 
L 1863 2753 
Q 2328 2753 2575 2939 
Q 2822 3125 2822 3475 
Q 2822 3834 2567 4026 
Q 2313 4219 1838 4219 
Q 1578 4219 1281 4162 
Q 984 4106 628 3988 
L 628 4550 
Q 988 4650 1302 4700 
Q 1616 4750 1894 4750 
Q 2613 4750 3031 4423 
Q 3450 4097 3450 3541 
Q 3450 3153 3228 2886 
Q 3006 2619 2597 2516 
z
" transform="scale(0.015625)"/>
       </defs>
       <use xlink:href="#DejaVuSans-33"/>
       <use xlink:href="#DejaVuSans-30" x="63.623047"/>
       <use xlink:href="#DejaVuSans-30" x="127.246094"/>
      </g>
     </g>
    </g>
    <g id="xtick_8">
     <g id="line2d_8">
      <g>
       <use xlink:href="#ma64dde9ae1" x="561.717898" y="308.63625" style="stroke: #000000; stroke-width: 0.8"/>
      </g>
     </g>
     <g id="text_8">
      <!-- 350 -->
      <g transform="translate(542.630398 330.833125) scale(0.2 -0.2)">
       <use xlink:href="#DejaVuSans-33"/>
       <use xlink:href="#DejaVuSans-35" x="63.623047"/>
       <use xlink:href="#DejaVuSans-30" x="127.246094"/>
      </g>
     </g>
    </g>
    <g id="xtick_9">
     <g id="line2d_9">
      <g>
       <use xlink:href="#ma64dde9ae1" x="625.126989" y="308.63625" style="stroke: #000000; stroke-width: 0.8"/>
      </g>
     </g>
     <g id="text_9">
      <!-- 400 -->
      <g transform="translate(606.039489 330.833125) scale(0.2 -0.2)">
       <defs>
        <path id="DejaVuSans-34" d="M 2419 4116 
L 825 1625 
L 2419 1625 
L 2419 4116 
z
M 2253 4666 
L 3047 4666 
L 3047 1625 
L 3713 1625 
L 3713 1100 
L 3047 1100 
L 3047 0 
L 2419 0 
L 2419 1100 
L 313 1100 
L 313 1709 
L 2253 4666 
z
" transform="scale(0.015625)"/>
       </defs>
       <use xlink:href="#DejaVuSans-34"/>
       <use xlink:href="#DejaVuSans-30" x="63.623047"/>
       <use xlink:href="#DejaVuSans-30" x="127.246094"/>
      </g>
     </g>
    </g>
    <g id="text_10">
     <!-- iterations -->
     <g transform="translate(324.035938 354.189375) scale(0.2 -0.2)">
      <defs>
       <path id="DejaVuSans-69" d="M 603 3500 
L 1178 3500 
L 1178 0 
L 603 0 
L 603 3500 
z
M 603 4863 
L 1178 4863 
L 1178 4134 
L 603 4134 
L 603 4863 
z
" transform="scale(0.015625)"/>
       <path id="DejaVuSans-74" d="M 1172 4494 
L 1172 3500 
L 2356 3500 
L 2356 3053 
L 1172 3053 
L 1172 1153 
Q 1172 725 1289 603 
Q 1406 481 1766 481 
L 2356 481 
L 2356 0 
L 1766 0 
Q 1100 0 847 248 
Q 594 497 594 1153 
L 594 3053 
L 172 3053 
L 172 3500 
L 594 3500 
L 594 4494 
L 1172 4494 
z
" transform="scale(0.015625)"/>
       <path id="DejaVuSans-65" d="M 3597 1894 
L 3597 1613 
L 953 1613 
Q 991 1019 1311 708 
Q 1631 397 2203 397 
Q 2534 397 2845 478 
Q 3156 559 3463 722 
L 3463 178 
Q 3153 47 2828 -22 
Q 2503 -91 2169 -91 
Q 1331 -91 842 396 
Q 353 884 353 1716 
Q 353 2575 817 3079 
Q 1281 3584 2069 3584 
Q 2775 3584 3186 3129 
Q 3597 2675 3597 1894 
z
M 3022 2063 
Q 3016 2534 2758 2815 
Q 2500 3097 2075 3097 
Q 1594 3097 1305 2825 
Q 1016 2553 972 2059 
L 3022 2063 
z
" transform="scale(0.015625)"/>
       <path id="DejaVuSans-72" d="M 2631 2963 
Q 2534 3019 2420 3045 
Q 2306 3072 2169 3072 
Q 1681 3072 1420 2755 
Q 1159 2438 1159 1844 
L 1159 0 
L 581 0 
L 581 3500 
L 1159 3500 
L 1159 2956 
Q 1341 3275 1631 3429 
Q 1922 3584 2338 3584 
Q 2397 3584 2469 3576 
Q 2541 3569 2628 3553 
L 2631 2963 
z
" transform="scale(0.015625)"/>
       <path id="DejaVuSans-61" d="M 2194 1759 
Q 1497 1759 1228 1600 
Q 959 1441 959 1056 
Q 959 750 1161 570 
Q 1363 391 1709 391 
Q 2188 391 2477 730 
Q 2766 1069 2766 1631 
L 2766 1759 
L 2194 1759 
z
M 3341 1997 
L 3341 0 
L 2766 0 
L 2766 531 
Q 2569 213 2275 61 
Q 1981 -91 1556 -91 
Q 1019 -91 701 211 
Q 384 513 384 1019 
Q 384 1609 779 1909 
Q 1175 2209 1959 2209 
L 2766 2209 
L 2766 2266 
Q 2766 2663 2505 2880 
Q 2244 3097 1772 3097 
Q 1472 3097 1187 3025 
Q 903 2953 641 2809 
L 641 3341 
Q 956 3463 1253 3523 
Q 1550 3584 1831 3584 
Q 2591 3584 2966 3190 
Q 3341 2797 3341 1997 
z
" transform="scale(0.015625)"/>
       <path id="DejaVuSans-6f" d="M 1959 3097 
Q 1497 3097 1228 2736 
Q 959 2375 959 1747 
Q 959 1119 1226 758 
Q 1494 397 1959 397 
Q 2419 397 2687 759 
Q 2956 1122 2956 1747 
Q 2956 2369 2687 2733 
Q 2419 3097 1959 3097 
z
M 1959 3584 
Q 2709 3584 3137 3096 
Q 3566 2609 3566 1747 
Q 3566 888 3137 398 
Q 2709 -91 1959 -91 
Q 1206 -91 779 398 
Q 353 888 353 1747 
Q 353 2609 779 3096 
Q 1206 3584 1959 3584 
z
" transform="scale(0.015625)"/>
       <path id="DejaVuSans-6e" d="M 3513 2113 
L 3513 0 
L 2938 0 
L 2938 2094 
Q 2938 2591 2744 2837 
Q 2550 3084 2163 3084 
Q 1697 3084 1428 2787 
Q 1159 2491 1159 1978 
L 1159 0 
L 581 0 
L 581 3500 
L 1159 3500 
L 1159 2956 
Q 1366 3272 1645 3428 
Q 1925 3584 2291 3584 
Q 2894 3584 3203 3211 
Q 3513 2838 3513 2113 
z
" transform="scale(0.015625)"/>
       <path id="DejaVuSans-73" d="M 2834 3397 
L 2834 2853 
Q 2591 2978 2328 3040 
Q 2066 3103 1784 3103 
Q 1356 3103 1142 2972 
Q 928 2841 928 2578 
Q 928 2378 1081 2264 
Q 1234 2150 1697 2047 
L 1894 2003 
Q 2506 1872 2764 1633 
Q 3022 1394 3022 966 
Q 3022 478 2636 193 
Q 2250 -91 1575 -91 
Q 1294 -91 989 -36 
Q 684 19 347 128 
L 347 722 
Q 666 556 975 473 
Q 1284 391 1588 391 
Q 1994 391 2212 530 
Q 2431 669 2431 922 
Q 2431 1156 2273 1281 
Q 2116 1406 1581 1522 
L 1381 1569 
Q 847 1681 609 1914 
Q 372 2147 372 2553 
Q 372 3047 722 3315 
Q 1072 3584 1716 3584 
Q 2034 3584 2315 3537 
Q 2597 3491 2834 3397 
z
" transform="scale(0.015625)"/>
      </defs>
      <use xlink:href="#DejaVuSans-69"/>
      <use xlink:href="#DejaVuSans-74" x="27.783203"/>
      <use xlink:href="#DejaVuSans-65" x="66.992188"/>
      <use xlink:href="#DejaVuSans-72" x="128.515625"/>
      <use xlink:href="#DejaVuSans-61" x="169.628906"/>
      <use xlink:href="#DejaVuSans-74" x="230.908203"/>
      <use xlink:href="#DejaVuSans-69" x="270.117188"/>
      <use xlink:href="#DejaVuSans-6f" x="297.900391"/>
      <use xlink:href="#DejaVuSans-6e" x="359.082031"/>
      <use xlink:href="#DejaVuSans-73" x="422.460938"/>
     </g>
    </g>
   </g>
   <g id="matplotlib.axis_2">
    <g id="ytick_1">
     <g id="line2d_10">
      <defs>
       <path id="m3cb8aa5cc3" d="M 0 0 
L -3.5 0 
" style="stroke: #000000; stroke-width: 0.8"/>
      </defs>
      <g>
       <use xlink:href="#m3cb8aa5cc3" x="92.490625" y="287.754235" style="stroke: #000000; stroke-width: 0.8"/>
      </g>
     </g>
     <g id="text_11">
      <!-- −200 -->
      <g transform="translate(30.55625 295.352672) scale(0.2 -0.2)">
       <defs>
        <path id="DejaVuSans-2212" d="M 678 2272 
L 4684 2272 
L 4684 1741 
L 678 1741 
L 678 2272 
z
" transform="scale(0.015625)"/>
       </defs>
       <use xlink:href="#DejaVuSans-2212"/>
       <use xlink:href="#DejaVuSans-32" x="83.789062"/>
       <use xlink:href="#DejaVuSans-30" x="147.412109"/>
       <use xlink:href="#DejaVuSans-30" x="211.035156"/>
      </g>
     </g>
    </g>
    <g id="ytick_2">
     <g id="line2d_11">
      <g>
       <use xlink:href="#m3cb8aa5cc3" x="92.490625" y="227.578386" style="stroke: #000000; stroke-width: 0.8"/>
      </g>
     </g>
     <g id="text_12">
      <!-- −100 -->
      <g transform="translate(30.55625 235.176823) scale(0.2 -0.2)">
       <use xlink:href="#DejaVuSans-2212"/>
       <use xlink:href="#DejaVuSans-31" x="83.789062"/>
       <use xlink:href="#DejaVuSans-30" x="147.412109"/>
       <use xlink:href="#DejaVuSans-30" x="211.035156"/>
      </g>
     </g>
    </g>
    <g id="ytick_3">
     <g id="line2d_12">
      <g>
       <use xlink:href="#m3cb8aa5cc3" x="92.490625" y="167.402537" style="stroke: #000000; stroke-width: 0.8"/>
      </g>
     </g>
     <g id="text_13">
      <!-- 0 -->
      <g transform="translate(72.765625 175.000974) scale(0.2 -0.2)">
       <use xlink:href="#DejaVuSans-30"/>
      </g>
     </g>
    </g>
    <g id="ytick_4">
     <g id="line2d_13">
      <g>
       <use xlink:href="#m3cb8aa5cc3" x="92.490625" y="107.226688" style="stroke: #000000; stroke-width: 0.8"/>
      </g>
     </g>
     <g id="text_14">
      <!-- 100 -->
      <g transform="translate(47.315625 114.825125) scale(0.2 -0.2)">
       <use xlink:href="#DejaVuSans-31"/>
       <use xlink:href="#DejaVuSans-30" x="63.623047"/>
       <use xlink:href="#DejaVuSans-30" x="127.246094"/>
      </g>
     </g>
    </g>
    <g id="ytick_5">
     <g id="line2d_14">
      <g>
       <use xlink:href="#m3cb8aa5cc3" x="92.490625" y="47.050838" style="stroke: #000000; stroke-width: 0.8"/>
      </g>
     </g>
     <g id="text_15">
      <!-- 200 -->
      <g transform="translate(47.315625 54.649276) scale(0.2 -0.2)">
       <use xlink:href="#DejaVuSans-32"/>
       <use xlink:href="#DejaVuSans-30" x="63.623047"/>
       <use xlink:href="#DejaVuSans-30" x="127.246094"/>
      </g>
     </g>
    </g>
    <g id="text_16">
     <!-- Loss -->
     <g transform="translate(22.396875 191.970625) rotate(-90) scale(0.2 -0.2)">
      <defs>
       <path id="DejaVuSans-4c" d="M 628 4666 
L 1259 4666 
L 1259 531 
L 3531 531 
L 3531 0 
L 628 0 
L 628 4666 
z
" transform="scale(0.015625)"/>
      </defs>
      <use xlink:href="#DejaVuSans-4c"/>
      <use xlink:href="#DejaVuSans-6f" x="53.962891"/>
      <use xlink:href="#DejaVuSans-73" x="115.144531"/>
      <use xlink:href="#DejaVuSans-73" x="167.244141"/>
     </g>
    </g>
   </g>
   <g id="line2d_15">
    <path d="M 117.854261 138.53853 
L 119.122443 97.982964 
L 120.390625 117.083744 
L 121.658807 121.777179 
L 122.926989 104.43596 
L 124.19517 128.019774 
L 125.463352 117.918638 
L 126.731534 99.792773 
L 127.999716 123.303136 
L 129.267898 113.920019 
L 130.53608 107.215809 
L 131.804261 54.185175 
L 133.072443 44.586844 
L 134.340625 50.208405 
L 135.608807 65.431701 
L 136.876989 52.62134 
L 138.14517 44.03625 
L 139.413352 47.425516 
L 140.681534 53.255988 
L 141.949716 62.20203 
L 143.217898 54.058702 
L 144.48608 59.456177 
L 145.754261 109.140656 
L 147.022443 94.805897 
L 148.290625 87.78307 
L 149.558807 75.133855 
L 150.826989 98.959252 
L 152.09517 90.513457 
L 153.363352 91.353551 
L 154.631534 94.307751 
L 155.899716 99.862324 
L 157.167898 94.958193 
L 158.43608 93.356455 
L 160.972443 79.768648 
L 162.240625 81.625829 
L 163.508807 87.639335 
L 164.776989 98.247788 
L 166.04517 97.025522 
L 167.313352 100.470922 
L 168.581534 94.009915 
L 169.849716 108.302296 
L 171.117898 106.746361 
L 172.38608 111.813688 
L 173.654261 111.321942 
L 174.922443 109.609667 
L 176.190625 111.732825 
L 177.458807 115.285706 
L 179.99517 121.128737 
L 181.263352 118.243637 
L 182.531534 122.939672 
L 183.799716 114.006144 
L 185.067898 113.402414 
L 186.33608 118.336942 
L 187.604261 126.247555 
L 188.872443 117.705982 
L 190.140625 118.938384 
L 191.408807 115.501875 
L 192.676989 121.08746 
L 193.94517 119.267918 
L 195.213352 128.786107 
L 196.481534 128.140582 
L 197.749716 126.980209 
L 199.017898 127.736057 
L 200.28608 119.824596 
L 201.554261 123.041682 
L 202.822443 125.22985 
L 204.090625 132.060951 
L 205.358807 127.742292 
L 206.626989 128.726967 
L 207.89517 132.552166 
L 209.163352 126.842327 
L 210.431534 124.849238 
L 211.699716 134.387408 
L 212.967898 128.837998 
L 214.23608 132.134935 
L 215.504261 123.78468 
L 216.772443 132.616752 
L 218.040625 133.362101 
L 219.308807 130.522423 
L 220.576989 132.295449 
L 221.84517 130.881563 
L 223.113352 130.761392 
L 224.381534 136.851809 
L 225.649716 133.13345 
L 226.917898 136.862142 
L 228.18608 132.687554 
L 229.454261 136.323725 
L 230.722443 132.024156 
L 231.990625 135.651823 
L 233.258807 134.503783 
L 234.526989 138.447324 
L 235.79517 140.302657 
L 237.063352 137.326201 
L 238.331534 135.530543 
L 239.599716 133.290565 
L 240.867898 132.866831 
L 242.13608 142.596344 
L 243.404261 144.986145 
L 245.940625 140.610362 
L 247.208807 141.500038 
L 248.476989 143.686115 
L 249.74517 140.210455 
L 251.013352 143.748127 
L 252.281534 145.84987 
L 253.549716 147.376432 
L 254.817898 144.567206 
L 256.08608 148.385484 
L 257.354261 146.372494 
L 258.622443 149.177832 
L 259.890625 150.583748 
L 261.158807 151.428518 
L 262.426989 151.65227 
L 263.69517 153.806823 
L 264.963352 151.359519 
L 266.231534 149.66105 
L 267.499716 150.094058 
L 268.767898 153.424061 
L 270.03608 153.379319 
L 271.304261 152.68978 
L 272.572443 148.221893 
L 273.840625 149.94797 
L 275.108807 150.801801 
L 276.376989 149.496023 
L 277.64517 153.426297 
L 278.913352 148.701191 
L 280.181534 155.673158 
L 281.449716 152.270783 
L 282.717898 152.812434 
L 283.98608 151.283283 
L 285.254261 151.61941 
L 286.522443 149.972005 
L 287.790625 149.445184 
L 289.058807 150.678389 
L 290.326989 153.782528 
L 291.59517 152.701329 
L 292.863352 150.58121 
L 294.131534 153.449759 
L 295.399716 152.054885 
L 299.204261 149.175368 
L 300.472443 152.92116 
L 301.740625 154.821874 
L 303.008807 154.122896 
L 304.276989 154.659618 
L 305.54517 154.935823 
L 306.813352 150.153039 
L 308.081534 153.838236 
L 309.349716 152.87849 
L 310.617898 156.117978 
L 311.88608 154.618691 
L 313.154261 155.286374 
L 314.422443 155.509007 
L 315.690625 155.203361 
L 316.958807 155.733462 
L 318.226989 154.610605 
L 319.49517 156.868743 
L 320.763352 155.78001 
L 322.031534 154.86685 
L 323.299716 155.846898 
L 324.567898 155.5618 
L 325.83608 154.291763 
L 327.104261 156.186717 
L 328.372443 156.244531 
L 329.640625 155.715934 
L 330.908807 155.403453 
L 332.176989 155.782756 
L 333.44517 155.993486 
L 334.713352 155.337442 
L 335.981534 155.619744 
L 337.249716 156.597801 
L 338.517898 157.322453 
L 339.78608 156.929476 
L 341.054261 155.284185 
L 342.322443 157.053882 
L 343.590625 154.679929 
L 344.858807 157.291986 
L 346.126989 156.903158 
L 347.39517 157.112578 
L 348.663352 157.98179 
L 349.931534 158.666323 
L 351.199716 157.140524 
L 352.467898 157.121308 
L 353.73608 158.853463 
L 355.004261 159.363312 
L 356.272443 158.407733 
L 357.540625 158.277547 
L 358.808807 158.768124 
L 361.34517 159.348091 
L 362.613352 158.40205 
L 363.881534 158.776583 
L 365.149716 157.259794 
L 366.417898 157.809901 
L 367.68608 157.905638 
L 368.954261 160.304648 
L 370.222443 159.27558 
L 371.490625 160.198122 
L 372.758807 158.222625 
L 374.026989 158.653634 
L 375.29517 158.487327 
L 376.563352 158.747868 
L 377.831534 158.790748 
L 379.099716 157.779227 
L 380.367898 158.195876 
L 381.63608 158.768348 
L 382.904261 157.9548 
L 384.172443 158.883566 
L 385.440625 159.266435 
L 386.708807 158.167248 
L 387.976989 157.931008 
L 389.24517 157.269122 
L 391.781534 159.245639 
L 394.317898 159.591384 
L 395.58608 158.906913 
L 396.854261 157.982647 
L 398.122443 158.460905 
L 399.390625 158.242813 
L 400.658807 157.491546 
L 401.926989 158.890922 
L 403.19517 159.897972 
L 404.463352 159.522708 
L 405.731534 158.755006 
L 406.999716 160.102913 
L 409.53608 159.911868 
L 410.804261 158.428562 
L 412.072443 158.256503 
L 413.340625 159.280037 
L 415.876989 160.39327 
L 417.14517 160.666388 
L 419.681534 158.531589 
L 420.949716 160.376333 
L 422.217898 159.592961 
L 423.48608 159.596836 
L 424.754261 158.212775 
L 426.022443 158.965149 
L 427.290625 160.221803 
L 428.558807 160.554096 
L 429.826989 160.234987 
L 431.09517 159.189843 
L 433.631534 158.4345 
L 434.899716 159.29536 
L 436.167898 159.86907 
L 437.43608 159.834532 
L 438.704261 160.239757 
L 439.972443 160.513438 
L 441.240625 160.132619 
L 442.508807 160.426465 
L 443.776989 160.383222 
L 445.04517 159.592069 
L 446.313352 160.667174 
L 447.581534 159.239572 
L 448.849716 161.504711 
L 450.117898 160.711068 
L 451.38608 160.321193 
L 452.654261 160.334656 
L 453.922443 160.4783 
L 455.190625 160.244258 
L 456.458807 160.241173 
L 457.726989 160.039621 
L 461.531534 158.951886 
L 462.799716 159.1988 
L 464.067898 159.780806 
L 465.33608 159.367018 
L 466.604261 158.507879 
L 467.872443 158.913263 
L 469.140625 158.653872 
L 470.408807 158.552491 
L 471.676989 159.409902 
L 472.94517 159.175904 
L 474.213352 158.624938 
L 475.481534 158.816385 
L 476.749716 158.893202 
L 479.28608 160.264354 
L 480.554261 160.201945 
L 483.090625 158.650772 
L 484.358807 159.288537 
L 485.626989 160.520795 
L 486.89517 160.457279 
L 488.163352 159.429701 
L 489.431534 158.257941 
L 490.699716 158.619133 
L 491.967898 159.745309 
L 493.23608 159.48481 
L 494.504261 159.978303 
L 495.772443 159.720556 
L 497.040625 159.612132 
L 498.308807 159.841911 
L 500.84517 160.510643 
L 503.381534 159.110659 
L 504.649716 159.040226 
L 505.917898 158.709458 
L 507.18608 159.419005 
L 508.454261 159.173452 
L 509.722443 159.518919 
L 510.990625 158.566461 
L 513.526989 159.499792 
L 516.063352 158.586841 
L 517.331534 158.811935 
L 518.599716 159.308052 
L 519.867898 158.76162 
L 521.13608 157.928456 
L 522.404261 158.267043 
L 523.672443 158.073122 
L 524.940625 158.023908 
L 528.74517 159.418039 
L 530.013352 159.162644 
L 531.281534 158.305005 
L 532.549716 158.181522 
L 533.817898 158.871983 
L 535.08608 158.207984 
L 536.354261 158.920037 
L 537.622443 158.307508 
L 538.890625 158.614952 
L 540.158807 157.895699 
L 541.426989 158.923532 
L 542.69517 158.600683 
L 543.963352 159.982429 
L 545.231534 158.452746 
L 546.499716 158.364598 
L 547.767898 158.53182 
L 549.03608 158.447831 
L 550.304261 159.631004 
L 551.572443 158.702739 
L 554.108807 158.844423 
L 555.376989 158.261884 
L 557.913352 158.876161 
L 559.181534 158.704879 
L 560.449716 158.966426 
L 561.717898 159.070848 
L 562.98608 159.870111 
L 564.254261 159.975019 
L 565.522443 160.596646 
L 566.790625 159.037911 
L 568.058807 159.577581 
L 569.326989 159.919207 
L 570.59517 159.970316 
L 571.863352 160.525837 
L 573.131534 159.82942 
L 574.399716 160.372563 
L 575.667898 160.469565 
L 576.93608 160.440517 
L 578.204261 160.545118 
L 579.472443 161.243255 
L 582.008807 161.95244 
L 583.276989 161.344446 
L 584.54517 162.230849 
L 585.813352 160.694473 
L 587.081534 161.529689 
L 588.349716 161.958084 
L 589.617898 161.981839 
L 590.88608 161.531251 
L 592.154261 162.091559 
L 593.422443 161.080496 
L 594.690625 161.420721 
L 595.958807 161.219607 
L 597.226989 162.599384 
L 598.49517 163.802467 
L 599.763352 163.544163 
L 601.031534 162.374592 
L 602.299716 162.509576 
L 603.567898 163.184545 
L 604.83608 162.450438 
L 608.640625 161.216576 
L 609.908807 161.664394 
L 611.176989 161.362429 
L 612.44517 162.075806 
L 613.713352 161.102878 
L 614.981534 163.051107 
L 616.249716 162.817614 
L 617.517898 162.946267 
L 620.054261 162.763962 
L 621.322443 162.839012 
L 622.590625 162.000619 
L 623.858807 162.598769 
L 625.126989 162.378559 
L 625.126989 162.378559 
" clip-path="url(#p738ac262b1)" style="fill: none; stroke: #1f77b4; stroke-width: 1.5; stroke-linecap: square"/>
   </g>
   <g id="line2d_16">
    <path d="M 117.854261 296.03625 
L 120.390625 219.200503 
L 121.658807 230.492934 
L 122.926989 238.645685 
L 124.19517 213.261152 
L 125.463352 212.54875 
L 126.731534 215.076811 
L 127.999716 205.598168 
L 129.267898 212.181319 
L 130.53608 226.669107 
L 131.804261 212.802004 
L 133.072443 196.212776 
L 134.340625 194.413947 
L 135.608807 194.780619 
L 136.876989 201.832737 
L 138.14517 195.235904 
L 139.413352 196.378027 
L 140.681534 194.532246 
L 141.949716 194.186848 
L 143.217898 195.502642 
L 144.48608 184.213625 
L 145.754261 181.165058 
L 148.290625 182.194952 
L 149.558807 186.091654 
L 150.826989 177.656689 
L 152.09517 180.557306 
L 153.363352 182.010728 
L 154.631534 182.333157 
L 155.899716 181.694365 
L 157.167898 181.32096 
L 158.43608 182.390077 
L 159.704261 183.960668 
L 160.972443 184.431872 
L 162.240625 183.194059 
L 163.508807 180.438406 
L 164.776989 181.145129 
L 166.04517 183.060858 
L 167.313352 181.048282 
L 168.581534 180.679822 
L 169.849716 178.011528 
L 172.38608 178.090941 
L 173.654261 178.969227 
L 174.922443 181.172561 
L 176.190625 178.870422 
L 177.458807 177.393865 
L 178.726989 177.781811 
L 179.99517 178.351291 
L 181.263352 176.208669 
L 182.531534 177.343197 
L 183.799716 177.985098 
L 185.067898 180.055569 
L 186.33608 176.730227 
L 187.604261 176.248777 
L 188.872443 179.231779 
L 190.140625 177.708572 
L 191.408807 177.030424 
L 192.676989 176.664959 
L 193.94517 177.691265 
L 195.213352 176.119124 
L 196.481534 176.160455 
L 197.749716 176.32796 
L 199.017898 176.294541 
L 200.28608 177.635459 
L 202.822443 175.798741 
L 204.090625 174.709478 
L 205.358807 176.153952 
L 206.626989 175.127327 
L 207.89517 173.767497 
L 209.163352 175.460951 
L 210.431534 176.586489 
L 211.699716 176.4194 
L 212.967898 177.261133 
L 214.23608 174.063869 
L 215.504261 178.121447 
L 216.772443 174.604464 
L 219.308807 174.564015 
L 220.576989 174.107088 
L 221.84517 175.394572 
L 223.113352 174.377249 
L 224.381534 173.690661 
L 225.649716 174.735638 
L 226.917898 174.466004 
L 228.18608 173.763776 
L 229.454261 174.487707 
L 231.990625 173.128249 
L 233.258807 173.783378 
L 234.526989 172.877454 
L 235.79517 174.449639 
L 237.063352 174.136157 
L 238.331534 174.131147 
L 239.599716 174.543099 
L 240.867898 174.151772 
L 242.13608 171.716959 
L 243.404261 172.428133 
L 245.940625 173.551442 
L 247.208807 171.414805 
L 248.476989 172.531184 
L 251.013352 173.528479 
L 252.281534 174.667006 
L 253.549716 172.879212 
L 254.817898 174.079173 
L 256.08608 174.417489 
L 258.622443 173.861619 
L 259.890625 174.307226 
L 261.158807 172.468632 
L 262.426989 173.093585 
L 264.963352 171.328881 
L 266.231534 172.522737 
L 267.499716 173.248832 
L 268.767898 173.248455 
L 270.03608 172.722076 
L 271.304261 173.191447 
L 272.572443 171.575761 
L 273.840625 171.514487 
L 275.108807 172.497564 
L 276.376989 172.614868 
L 277.64517 172.527716 
L 278.913352 172.901462 
L 280.181534 171.798656 
L 281.449716 172.17445 
L 282.717898 171.36876 
L 283.98608 171.860114 
L 285.254261 172.065286 
L 286.522443 172.853624 
L 287.790625 172.279056 
L 289.058807 172.345809 
L 290.326989 171.40709 
L 292.863352 173.281889 
L 294.131534 171.6027 
L 295.399716 171.572991 
L 296.667898 172.788874 
L 297.93608 173.126234 
L 299.204261 172.833694 
L 300.472443 172.21413 
L 301.740625 173.023502 
L 303.008807 173.20008 
L 304.276989 172.111453 
L 305.54517 172.345466 
L 306.813352 173.241511 
L 308.081534 173.382747 
L 309.349716 171.305869 
L 310.617898 172.329936 
L 311.88608 172.906326 
L 313.154261 172.161376 
L 314.422443 172.618973 
L 315.690625 172.868546 
L 316.958807 172.178703 
L 318.226989 172.386805 
L 319.49517 171.756797 
L 320.763352 172.613199 
L 322.031534 172.735791 
L 323.299716 171.651542 
L 324.567898 171.944659 
L 325.83608 171.896408 
L 327.104261 172.235164 
L 330.908807 172.841949 
L 332.176989 171.593369 
L 333.44517 172.130366 
L 334.713352 172.372364 
L 335.981534 172.074754 
L 337.249716 171.556562 
L 338.517898 172.602379 
L 339.78608 171.34686 
L 341.054261 171.920515 
L 342.322443 171.527562 
L 343.590625 173.732855 
L 344.858807 171.742232 
L 346.126989 172.010685 
L 347.39517 171.679803 
L 348.663352 172.867061 
L 349.931534 172.121979 
L 351.199716 172.252688 
L 352.467898 171.634923 
L 353.73608 171.196761 
L 355.004261 171.68482 
L 356.272443 171.334027 
L 358.808807 171.732382 
L 360.076989 171.046097 
L 361.34517 171.840605 
L 362.613352 171.338442 
L 365.149716 171.274296 
L 366.417898 171.527496 
L 367.68608 171.463002 
L 370.222443 171.714048 
L 371.490625 171.527779 
L 372.758807 171.971782 
L 374.026989 171.808757 
L 375.29517 171.239484 
L 376.563352 171.712659 
L 377.831534 171.35515 
L 379.099716 171.253456 
L 380.367898 170.952888 
L 381.63608 171.26288 
L 382.904261 171.751968 
L 384.172443 171.851963 
L 385.440625 171.325347 
L 386.708807 171.013635 
L 390.513352 171.590286 
L 391.781534 171.297249 
L 393.049716 171.551686 
L 395.58608 170.870277 
L 396.854261 170.951387 
L 398.122443 170.706756 
L 399.390625 172.011226 
L 400.658807 171.562232 
L 401.926989 171.393369 
L 403.19517 170.624929 
L 404.463352 170.80561 
L 405.731534 171.546023 
L 409.53608 170.643849 
L 410.804261 171.28086 
L 412.072443 170.960326 
L 413.340625 170.393007 
L 414.608807 171.235045 
L 417.14517 170.199702 
L 418.413352 170.694318 
L 419.681534 171.399415 
L 420.949716 171.077521 
L 422.217898 171.099076 
L 423.48608 170.871475 
L 424.754261 172.392286 
L 426.022443 172.26415 
L 427.290625 171.124406 
L 431.09517 171.044001 
L 432.363352 171.602959 
L 433.631534 171.166176 
L 436.167898 170.812143 
L 437.43608 171.302051 
L 438.704261 172.056204 
L 439.972443 171.356412 
L 441.240625 172.162386 
L 442.508807 170.870293 
L 443.776989 170.933369 
L 445.04517 171.41883 
L 447.581534 171.6746 
L 448.849716 171.327942 
L 450.117898 171.457798 
L 451.38608 171.376492 
L 456.458807 171.6086 
L 457.726989 172.038357 
L 458.99517 171.485702 
L 460.263352 171.201776 
L 461.531534 172.03931 
L 462.799716 171.951895 
L 464.067898 171.029977 
L 465.33608 171.470733 
L 466.604261 171.33633 
L 467.872443 171.788106 
L 469.140625 171.619493 
L 470.408807 171.687032 
L 471.676989 172.066726 
L 472.94517 171.215829 
L 474.213352 170.9907 
L 476.749716 171.888345 
L 478.017898 171.568269 
L 479.28608 171.90961 
L 480.554261 170.651171 
L 481.822443 171.315803 
L 483.090625 171.7623 
L 484.358807 171.30192 
L 485.626989 170.659659 
L 486.89517 171.288779 
L 488.163352 171.490592 
L 489.431534 172.222745 
L 490.699716 172.55833 
L 491.967898 171.034898 
L 493.23608 171.498769 
L 494.504261 171.647811 
L 497.040625 171.370715 
L 498.308807 170.858276 
L 499.576989 171.104962 
L 500.84517 171.234893 
L 503.381534 171.90754 
L 504.649716 171.958406 
L 505.917898 172.342796 
L 507.18608 171.67289 
L 508.454261 172.154893 
L 509.722443 171.257939 
L 510.990625 171.674141 
L 513.526989 171.049011 
L 514.79517 171.724085 
L 516.063352 172.095347 
L 518.599716 171.377652 
L 519.867898 171.62404 
L 521.13608 171.390359 
L 522.404261 171.60132 
L 523.672443 171.535308 
L 526.208807 171.832293 
L 527.476989 171.367157 
L 528.74517 171.617892 
L 530.013352 171.685619 
L 531.281534 171.618568 
L 533.817898 171.860995 
L 535.08608 172.237446 
L 536.354261 171.005607 
L 537.622443 171.553755 
L 538.890625 171.490333 
L 540.158807 171.592916 
L 542.69517 171.398825 
L 543.963352 171.605477 
L 546.499716 172.38631 
L 547.767898 171.526915 
L 549.03608 171.645364 
L 550.304261 171.371208 
L 551.572443 172.147328 
L 552.840625 171.753966 
L 554.108807 173.179875 
L 555.376989 171.668005 
L 556.64517 171.579546 
L 557.913352 172.096871 
L 559.181534 172.356091 
L 560.449716 172.089167 
L 561.717898 172.553571 
L 562.98608 171.812758 
L 564.254261 171.615187 
L 566.790625 171.69413 
L 568.058807 171.766294 
L 569.326989 172.234649 
L 571.863352 171.674879 
L 573.131534 171.832849 
L 574.399716 172.280615 
L 575.667898 171.622514 
L 576.93608 171.755409 
L 578.204261 172.137954 
L 579.472443 171.268446 
L 580.740625 172.07895 
L 582.008807 171.204316 
L 583.276989 172.061808 
L 584.54517 171.646001 
L 585.813352 171.927455 
L 587.081534 171.965757 
L 588.349716 171.666375 
L 589.617898 171.715999 
L 590.88608 172.314211 
L 592.154261 172.600415 
L 594.690625 172.093801 
L 595.958807 172.294227 
L 597.226989 171.622418 
L 598.49517 171.782635 
L 599.763352 171.826495 
L 601.031534 171.737618 
L 602.299716 171.862572 
L 603.567898 171.810099 
L 604.83608 172.003163 
L 606.104261 171.442342 
L 607.372443 171.871399 
L 608.640625 172.112333 
L 609.908807 171.965151 
L 611.176989 171.593799 
L 612.44517 172.424699 
L 613.713352 172.280127 
L 614.981534 171.782763 
L 617.517898 172.362792 
L 620.054261 172.20061 
L 621.322443 172.371535 
L 622.590625 171.999299 
L 625.126989 171.610287 
L 625.126989 171.610287 
" clip-path="url(#p738ac262b1)" style="fill: none; stroke: #ff7f0e; stroke-width: 1.5; stroke-linecap: square"/>
   </g>
   <g id="patch_3">
    <path d="M 92.490625 308.63625 
L 92.490625 31.43625 
" style="fill: none; stroke: #000000; stroke-width: 0.8; stroke-linejoin: miter; stroke-linecap: square"/>
   </g>
   <g id="patch_4">
    <path d="M 650.490625 308.63625 
L 650.490625 31.43625 
" style="fill: none; stroke: #000000; stroke-width: 0.8; stroke-linejoin: miter; stroke-linecap: square"/>
   </g>
   <g id="patch_5">
    <path d="M 92.490625 308.63625 
L 650.490625 308.63625 
" style="fill: none; stroke: #000000; stroke-width: 0.8; stroke-linejoin: miter; stroke-linecap: square"/>
   </g>
   <g id="patch_6">
    <path d="M 92.490625 31.43625 
L 650.490625 31.43625 
" style="fill: none; stroke: #000000; stroke-width: 0.8; stroke-linejoin: miter; stroke-linecap: square"/>
   </g>
   <g id="text_17">
    <!-- Generator and Discriminator Loss During Training -->
    <g transform="translate(74.258125 25.43625) scale(0.24 -0.24)">
     <defs>
      <path id="DejaVuSans-47" d="M 3809 666 
L 3809 1919 
L 2778 1919 
L 2778 2438 
L 4434 2438 
L 4434 434 
Q 4069 175 3628 42 
Q 3188 -91 2688 -91 
Q 1594 -91 976 548 
Q 359 1188 359 2328 
Q 359 3472 976 4111 
Q 1594 4750 2688 4750 
Q 3144 4750 3555 4637 
Q 3966 4525 4313 4306 
L 4313 3634 
Q 3963 3931 3569 4081 
Q 3175 4231 2741 4231 
Q 1884 4231 1454 3753 
Q 1025 3275 1025 2328 
Q 1025 1384 1454 906 
Q 1884 428 2741 428 
Q 3075 428 3337 486 
Q 3600 544 3809 666 
z
" transform="scale(0.015625)"/>
      <path id="DejaVuSans-20" transform="scale(0.015625)"/>
      <path id="DejaVuSans-64" d="M 2906 2969 
L 2906 4863 
L 3481 4863 
L 3481 0 
L 2906 0 
L 2906 525 
Q 2725 213 2448 61 
Q 2172 -91 1784 -91 
Q 1150 -91 751 415 
Q 353 922 353 1747 
Q 353 2572 751 3078 
Q 1150 3584 1784 3584 
Q 2172 3584 2448 3432 
Q 2725 3281 2906 2969 
z
M 947 1747 
Q 947 1113 1208 752 
Q 1469 391 1925 391 
Q 2381 391 2643 752 
Q 2906 1113 2906 1747 
Q 2906 2381 2643 2742 
Q 2381 3103 1925 3103 
Q 1469 3103 1208 2742 
Q 947 2381 947 1747 
z
" transform="scale(0.015625)"/>
      <path id="DejaVuSans-44" d="M 1259 4147 
L 1259 519 
L 2022 519 
Q 2988 519 3436 956 
Q 3884 1394 3884 2338 
Q 3884 3275 3436 3711 
Q 2988 4147 2022 4147 
L 1259 4147 
z
M 628 4666 
L 1925 4666 
Q 3281 4666 3915 4102 
Q 4550 3538 4550 2338 
Q 4550 1131 3912 565 
Q 3275 0 1925 0 
L 628 0 
L 628 4666 
z
" transform="scale(0.015625)"/>
      <path id="DejaVuSans-63" d="M 3122 3366 
L 3122 2828 
Q 2878 2963 2633 3030 
Q 2388 3097 2138 3097 
Q 1578 3097 1268 2742 
Q 959 2388 959 1747 
Q 959 1106 1268 751 
Q 1578 397 2138 397 
Q 2388 397 2633 464 
Q 2878 531 3122 666 
L 3122 134 
Q 2881 22 2623 -34 
Q 2366 -91 2075 -91 
Q 1284 -91 818 406 
Q 353 903 353 1747 
Q 353 2603 823 3093 
Q 1294 3584 2113 3584 
Q 2378 3584 2631 3529 
Q 2884 3475 3122 3366 
z
" transform="scale(0.015625)"/>
      <path id="DejaVuSans-6d" d="M 3328 2828 
Q 3544 3216 3844 3400 
Q 4144 3584 4550 3584 
Q 5097 3584 5394 3201 
Q 5691 2819 5691 2113 
L 5691 0 
L 5113 0 
L 5113 2094 
Q 5113 2597 4934 2840 
Q 4756 3084 4391 3084 
Q 3944 3084 3684 2787 
Q 3425 2491 3425 1978 
L 3425 0 
L 2847 0 
L 2847 2094 
Q 2847 2600 2669 2842 
Q 2491 3084 2119 3084 
Q 1678 3084 1418 2786 
Q 1159 2488 1159 1978 
L 1159 0 
L 581 0 
L 581 3500 
L 1159 3500 
L 1159 2956 
Q 1356 3278 1631 3431 
Q 1906 3584 2284 3584 
Q 2666 3584 2933 3390 
Q 3200 3197 3328 2828 
z
" transform="scale(0.015625)"/>
      <path id="DejaVuSans-75" d="M 544 1381 
L 544 3500 
L 1119 3500 
L 1119 1403 
Q 1119 906 1312 657 
Q 1506 409 1894 409 
Q 2359 409 2629 706 
Q 2900 1003 2900 1516 
L 2900 3500 
L 3475 3500 
L 3475 0 
L 2900 0 
L 2900 538 
Q 2691 219 2414 64 
Q 2138 -91 1772 -91 
Q 1169 -91 856 284 
Q 544 659 544 1381 
z
M 1991 3584 
L 1991 3584 
z
" transform="scale(0.015625)"/>
      <path id="DejaVuSans-67" d="M 2906 1791 
Q 2906 2416 2648 2759 
Q 2391 3103 1925 3103 
Q 1463 3103 1205 2759 
Q 947 2416 947 1791 
Q 947 1169 1205 825 
Q 1463 481 1925 481 
Q 2391 481 2648 825 
Q 2906 1169 2906 1791 
z
M 3481 434 
Q 3481 -459 3084 -895 
Q 2688 -1331 1869 -1331 
Q 1566 -1331 1297 -1286 
Q 1028 -1241 775 -1147 
L 775 -588 
Q 1028 -725 1275 -790 
Q 1522 -856 1778 -856 
Q 2344 -856 2625 -561 
Q 2906 -266 2906 331 
L 2906 616 
Q 2728 306 2450 153 
Q 2172 0 1784 0 
Q 1141 0 747 490 
Q 353 981 353 1791 
Q 353 2603 747 3093 
Q 1141 3584 1784 3584 
Q 2172 3584 2450 3431 
Q 2728 3278 2906 2969 
L 2906 3500 
L 3481 3500 
L 3481 434 
z
" transform="scale(0.015625)"/>
      <path id="DejaVuSans-54" d="M -19 4666 
L 3928 4666 
L 3928 4134 
L 2272 4134 
L 2272 0 
L 1638 0 
L 1638 4134 
L -19 4134 
L -19 4666 
z
" transform="scale(0.015625)"/>
     </defs>
     <use xlink:href="#DejaVuSans-47"/>
     <use xlink:href="#DejaVuSans-65" x="77.490234"/>
     <use xlink:href="#DejaVuSans-6e" x="139.013672"/>
     <use xlink:href="#DejaVuSans-65" x="202.392578"/>
     <use xlink:href="#DejaVuSans-72" x="263.916016"/>
     <use xlink:href="#DejaVuSans-61" x="305.029297"/>
     <use xlink:href="#DejaVuSans-74" x="366.308594"/>
     <use xlink:href="#DejaVuSans-6f" x="405.517578"/>
     <use xlink:href="#DejaVuSans-72" x="466.699219"/>
     <use xlink:href="#DejaVuSans-20" x="507.8125"/>
     <use xlink:href="#DejaVuSans-61" x="539.599609"/>
     <use xlink:href="#DejaVuSans-6e" x="600.878906"/>
     <use xlink:href="#DejaVuSans-64" x="664.257812"/>
     <use xlink:href="#DejaVuSans-20" x="727.734375"/>
     <use xlink:href="#DejaVuSans-44" x="759.521484"/>
     <use xlink:href="#DejaVuSans-69" x="836.523438"/>
     <use xlink:href="#DejaVuSans-73" x="864.306641"/>
     <use xlink:href="#DejaVuSans-63" x="916.40625"/>
     <use xlink:href="#DejaVuSans-72" x="971.386719"/>
     <use xlink:href="#DejaVuSans-69" x="1012.5"/>
     <use xlink:href="#DejaVuSans-6d" x="1040.283203"/>
     <use xlink:href="#DejaVuSans-69" x="1137.695312"/>
     <use xlink:href="#DejaVuSans-6e" x="1165.478516"/>
     <use xlink:href="#DejaVuSans-61" x="1228.857422"/>
     <use xlink:href="#DejaVuSans-74" x="1290.136719"/>
     <use xlink:href="#DejaVuSans-6f" x="1329.345703"/>
     <use xlink:href="#DejaVuSans-72" x="1390.527344"/>
     <use xlink:href="#DejaVuSans-20" x="1431.640625"/>
     <use xlink:href="#DejaVuSans-4c" x="1463.427734"/>
     <use xlink:href="#DejaVuSans-6f" x="1517.390625"/>
     <use xlink:href="#DejaVuSans-73" x="1578.572266"/>
     <use xlink:href="#DejaVuSans-73" x="1630.671875"/>
     <use xlink:href="#DejaVuSans-20" x="1682.771484"/>
     <use xlink:href="#DejaVuSans-44" x="1714.558594"/>
     <use xlink:href="#DejaVuSans-75" x="1791.560547"/>
     <use xlink:href="#DejaVuSans-72" x="1854.939453"/>
     <use xlink:href="#DejaVuSans-69" x="1896.052734"/>
     <use xlink:href="#DejaVuSans-6e" x="1923.835938"/>
     <use xlink:href="#DejaVuSans-67" x="1987.214844"/>
     <use xlink:href="#DejaVuSans-20" x="2050.691406"/>
     <use xlink:href="#DejaVuSans-54" x="2082.478516"/>
     <use xlink:href="#DejaVuSans-72" x="2128.8125"/>
     <use xlink:href="#DejaVuSans-61" x="2169.925781"/>
     <use xlink:href="#DejaVuSans-69" x="2231.205078"/>
     <use xlink:href="#DejaVuSans-6e" x="2258.988281"/>
     <use xlink:href="#DejaVuSans-69" x="2322.367188"/>
     <use xlink:href="#DejaVuSans-6e" x="2350.150391"/>
     <use xlink:href="#DejaVuSans-67" x="2413.529297"/>
    </g>
   </g>
   <g id="legend_1">
    <g id="patch_7">
     <path d="M 556.99375 106.14875 
L 636.490625 106.14875 
Q 640.490625 106.14875 640.490625 102.14875 
L 640.490625 45.43625 
Q 640.490625 41.43625 636.490625 41.43625 
L 556.99375 41.43625 
Q 552.99375 41.43625 552.99375 45.43625 
L 552.99375 102.14875 
Q 552.99375 106.14875 556.99375 106.14875 
z
" style="fill: #ffffff; opacity: 0.8; stroke: #cccccc; stroke-linejoin: miter"/>
    </g>
    <g id="line2d_17">
     <path d="M 560.99375 57.633125 
L 580.99375 57.633125 
L 600.99375 57.633125 
" style="fill: none; stroke: #1f77b4; stroke-width: 1.5; stroke-linecap: square"/>
    </g>
    <g id="text_18">
     <!-- G -->
     <g transform="translate(616.99375 64.633125) scale(0.2 -0.2)">
      <use xlink:href="#DejaVuSans-47"/>
     </g>
    </g>
    <g id="line2d_18">
     <path d="M 560.99375 86.989375 
L 580.99375 86.989375 
L 600.99375 86.989375 
" style="fill: none; stroke: #ff7f0e; stroke-width: 1.5; stroke-linecap: square"/>
    </g>
    <g id="text_19">
     <!-- D -->
     <g transform="translate(616.99375 93.989375) scale(0.2 -0.2)">
      <use xlink:href="#DejaVuSans-44"/>
     </g>
    </g>
   </g>
  </g>
 </g>
 <defs>
  <clipPath id="p738ac262b1">
   <rect x="92.490625" y="31.43625" width="558" height="277.2"/>
  </clipPath>
 </defs>
</svg>
