<?xml version="1.0" encoding="utf-8" standalone="no"?>
<!DOCTYPE svg PUBLIC "-//W3C//DTD SVG 1.1//EN"
  "http://www.w3.org/Graphics/SVG/1.1/DTD/svg11.dtd">
<svg xmlns:xlink="http://www.w3.org/1999/xlink" width="675.923125pt" height="365.54875pt" viewBox="0 0 675.923125 365.54875" xmlns="http://www.w3.org/2000/svg" version="1.1">
 <metadata>
  <rdf:RDF xmlns:dc="http://purl.org/dc/elements/1.1/" xmlns:cc="http://creativecommons.org/ns#" xmlns:rdf="http://www.w3.org/1999/02/22-rdf-syntax-ns#">
   <cc:Work>
    <dc:type rdf:resource="http://purl.org/dc/dcmitype/StillImage"/>
    <dc:date>2024-02-12T18:57:09.633486</dc:date>
    <dc:format>image/svg+xml</dc:format>
    <dc:creator>
     <cc:Agent>
      <dc:title>Matplotlib v3.7.2, https://matplotlib.org/</dc:title>
     </cc:Agent>
    </dc:creator>
   </cc:Work>
  </rdf:RDF>
 </metadata>
 <defs>
  <style type="text/css">*{stroke-linejoin: round; stroke-linecap: butt}</style>
 </defs>
 <g id="figure_1">
  <g id="patch_1">
   <path d="M 0 365.54875 
L 675.923125 365.54875 
L 675.923125 -0 
L 0 -0 
z
" style="fill: #ffffff"/>
  </g>
  <g id="axes_1">
   <g id="patch_2">
    <path d="M 92.490625 308.63625 
L 650.490625 308.63625 
L 650.490625 31.43625 
L 92.490625 31.43625 
z
" style="fill: #ffffff"/>
   </g>
   <g id="matplotlib.axis_1">
    <g id="xtick_1">
     <g id="line2d_1">
      <defs>
       <path id="m0884cc2200" d="M 0 0 
L 0 3.5 
" style="stroke: #000000; stroke-width: 0.8"/>
      </defs>
      <g>
       <use xlink:href="#m0884cc2200" x="117.854261" y="308.63625" style="stroke: #000000; stroke-width: 0.8"/>
      </g>
     </g>
     <g id="text_1">
      <!-- 0 -->
      <g transform="translate(111.491761 330.833125) scale(0.2 -0.2)">
       <defs>
        <path id="DejaVuSans-30" d="M 2034 4250 
Q 1547 4250 1301 3770 
Q 1056 3291 1056 2328 
Q 1056 1369 1301 889 
Q 1547 409 2034 409 
Q 2525 409 2770 889 
Q 3016 1369 3016 2328 
Q 3016 3291 2770 3770 
Q 2525 4250 2034 4250 
z
M 2034 4750 
Q 2819 4750 3233 4129 
Q 3647 3509 3647 2328 
Q 3647 1150 3233 529 
Q 2819 -91 2034 -91 
Q 1250 -91 836 529 
Q 422 1150 422 2328 
Q 422 3509 836 4129 
Q 1250 4750 2034 4750 
z
" transform="scale(0.015625)"/>
       </defs>
       <use xlink:href="#DejaVuSans-30"/>
      </g>
     </g>
    </g>
    <g id="xtick_2">
     <g id="line2d_2">
      <g>
       <use xlink:href="#m0884cc2200" x="181.263352" y="308.63625" style="stroke: #000000; stroke-width: 0.8"/>
      </g>
     </g>
     <g id="text_2">
      <!-- 200 -->
      <g transform="translate(162.175852 330.833125) scale(0.2 -0.2)">
       <defs>
        <path id="DejaVuSans-32" d="M 1228 531 
L 3431 531 
L 3431 0 
L 469 0 
L 469 531 
Q 828 903 1448 1529 
Q 2069 2156 2228 2338 
Q 2531 2678 2651 2914 
Q 2772 3150 2772 3378 
Q 2772 3750 2511 3984 
Q 2250 4219 1831 4219 
Q 1534 4219 1204 4116 
Q 875 4013 500 3803 
L 500 4441 
Q 881 4594 1212 4672 
Q 1544 4750 1819 4750 
Q 2544 4750 2975 4387 
Q 3406 4025 3406 3419 
Q 3406 3131 3298 2873 
Q 3191 2616 2906 2266 
Q 2828 2175 2409 1742 
Q 1991 1309 1228 531 
z
" transform="scale(0.015625)"/>
       </defs>
       <use xlink:href="#DejaVuSans-32"/>
       <use xlink:href="#DejaVuSans-30" x="63.623047"/>
       <use xlink:href="#DejaVuSans-30" x="127.246094"/>
      </g>
     </g>
    </g>
    <g id="xtick_3">
     <g id="line2d_3">
      <g>
       <use xlink:href="#m0884cc2200" x="244.672443" y="308.63625" style="stroke: #000000; stroke-width: 0.8"/>
      </g>
     </g>
     <g id="text_3">
      <!-- 400 -->
      <g transform="translate(225.584943 330.833125) scale(0.2 -0.2)">
       <defs>
        <path id="DejaVuSans-34" d="M 2419 4116 
L 825 1625 
L 2419 1625 
L 2419 4116 
z
M 2253 4666 
L 3047 4666 
L 3047 1625 
L 3713 1625 
L 3713 1100 
L 3047 1100 
L 3047 0 
L 2419 0 
L 2419 1100 
L 313 1100 
L 313 1709 
L 2253 4666 
z
" transform="scale(0.015625)"/>
       </defs>
       <use xlink:href="#DejaVuSans-34"/>
       <use xlink:href="#DejaVuSans-30" x="63.623047"/>
       <use xlink:href="#DejaVuSans-30" x="127.246094"/>
      </g>
     </g>
    </g>
    <g id="xtick_4">
     <g id="line2d_4">
      <g>
       <use xlink:href="#m0884cc2200" x="308.081534" y="308.63625" style="stroke: #000000; stroke-width: 0.8"/>
      </g>
     </g>
     <g id="text_4">
      <!-- 600 -->
      <g transform="translate(288.994034 330.833125) scale(0.2 -0.2)">
       <defs>
        <path id="DejaVuSans-36" d="M 2113 2584 
Q 1688 2584 1439 2293 
Q 1191 2003 1191 1497 
Q 1191 994 1439 701 
Q 1688 409 2113 409 
Q 2538 409 2786 701 
Q 3034 994 3034 1497 
Q 3034 2003 2786 2293 
Q 2538 2584 2113 2584 
z
M 3366 4563 
L 3366 3988 
Q 3128 4100 2886 4159 
Q 2644 4219 2406 4219 
Q 1781 4219 1451 3797 
Q 1122 3375 1075 2522 
Q 1259 2794 1537 2939 
Q 1816 3084 2150 3084 
Q 2853 3084 3261 2657 
Q 3669 2231 3669 1497 
Q 3669 778 3244 343 
Q 2819 -91 2113 -91 
Q 1303 -91 875 529 
Q 447 1150 447 2328 
Q 447 3434 972 4092 
Q 1497 4750 2381 4750 
Q 2619 4750 2861 4703 
Q 3103 4656 3366 4563 
z
" transform="scale(0.015625)"/>
       </defs>
       <use xlink:href="#DejaVuSans-36"/>
       <use xlink:href="#DejaVuSans-30" x="63.623047"/>
       <use xlink:href="#DejaVuSans-30" x="127.246094"/>
      </g>
     </g>
    </g>
    <g id="xtick_5">
     <g id="line2d_5">
      <g>
       <use xlink:href="#m0884cc2200" x="371.490625" y="308.63625" style="stroke: #000000; stroke-width: 0.8"/>
      </g>
     </g>
     <g id="text_5">
      <!-- 800 -->
      <g transform="translate(352.403125 330.833125) scale(0.2 -0.2)">
       <defs>
        <path id="DejaVuSans-38" d="M 2034 2216 
Q 1584 2216 1326 1975 
Q 1069 1734 1069 1313 
Q 1069 891 1326 650 
Q 1584 409 2034 409 
Q 2484 409 2743 651 
Q 3003 894 3003 1313 
Q 3003 1734 2745 1975 
Q 2488 2216 2034 2216 
z
M 1403 2484 
Q 997 2584 770 2862 
Q 544 3141 544 3541 
Q 544 4100 942 4425 
Q 1341 4750 2034 4750 
Q 2731 4750 3128 4425 
Q 3525 4100 3525 3541 
Q 3525 3141 3298 2862 
Q 3072 2584 2669 2484 
Q 3125 2378 3379 2068 
Q 3634 1759 3634 1313 
Q 3634 634 3220 271 
Q 2806 -91 2034 -91 
Q 1263 -91 848 271 
Q 434 634 434 1313 
Q 434 1759 690 2068 
Q 947 2378 1403 2484 
z
M 1172 3481 
Q 1172 3119 1398 2916 
Q 1625 2713 2034 2713 
Q 2441 2713 2670 2916 
Q 2900 3119 2900 3481 
Q 2900 3844 2670 4047 
Q 2441 4250 2034 4250 
Q 1625 4250 1398 4047 
Q 1172 3844 1172 3481 
z
" transform="scale(0.015625)"/>
       </defs>
       <use xlink:href="#DejaVuSans-38"/>
       <use xlink:href="#DejaVuSans-30" x="63.623047"/>
       <use xlink:href="#DejaVuSans-30" x="127.246094"/>
      </g>
     </g>
    </g>
    <g id="xtick_6">
     <g id="line2d_6">
      <g>
       <use xlink:href="#m0884cc2200" x="434.899716" y="308.63625" style="stroke: #000000; stroke-width: 0.8"/>
      </g>
     </g>
     <g id="text_6">
      <!-- 1000 -->
      <g transform="translate(409.449716 330.833125) scale(0.2 -0.2)">
       <defs>
        <path id="DejaVuSans-31" d="M 794 531 
L 1825 531 
L 1825 4091 
L 703 3866 
L 703 4441 
L 1819 4666 
L 2450 4666 
L 2450 531 
L 3481 531 
L 3481 0 
L 794 0 
L 794 531 
z
" transform="scale(0.015625)"/>
       </defs>
       <use xlink:href="#DejaVuSans-31"/>
       <use xlink:href="#DejaVuSans-30" x="63.623047"/>
       <use xlink:href="#DejaVuSans-30" x="127.246094"/>
       <use xlink:href="#DejaVuSans-30" x="190.869141"/>
      </g>
     </g>
    </g>
    <g id="xtick_7">
     <g id="line2d_7">
      <g>
       <use xlink:href="#m0884cc2200" x="498.308807" y="308.63625" style="stroke: #000000; stroke-width: 0.8"/>
      </g>
     </g>
     <g id="text_7">
      <!-- 1200 -->
      <g transform="translate(472.858807 330.833125) scale(0.2 -0.2)">
       <use xlink:href="#DejaVuSans-31"/>
       <use xlink:href="#DejaVuSans-32" x="63.623047"/>
       <use xlink:href="#DejaVuSans-30" x="127.246094"/>
       <use xlink:href="#DejaVuSans-30" x="190.869141"/>
      </g>
     </g>
    </g>
    <g id="xtick_8">
     <g id="line2d_8">
      <g>
       <use xlink:href="#m0884cc2200" x="561.717898" y="308.63625" style="stroke: #000000; stroke-width: 0.8"/>
      </g>
     </g>
     <g id="text_8">
      <!-- 1400 -->
      <g transform="translate(536.267898 330.833125) scale(0.2 -0.2)">
       <use xlink:href="#DejaVuSans-31"/>
       <use xlink:href="#DejaVuSans-34" x="63.623047"/>
       <use xlink:href="#DejaVuSans-30" x="127.246094"/>
       <use xlink:href="#DejaVuSans-30" x="190.869141"/>
      </g>
     </g>
    </g>
    <g id="xtick_9">
     <g id="line2d_9">
      <g>
       <use xlink:href="#m0884cc2200" x="625.126989" y="308.63625" style="stroke: #000000; stroke-width: 0.8"/>
      </g>
     </g>
     <g id="text_9">
      <!-- 1600 -->
      <g transform="translate(599.676989 330.833125) scale(0.2 -0.2)">
       <use xlink:href="#DejaVuSans-31"/>
       <use xlink:href="#DejaVuSans-36" x="63.623047"/>
       <use xlink:href="#DejaVuSans-30" x="127.246094"/>
       <use xlink:href="#DejaVuSans-30" x="190.869141"/>
      </g>
     </g>
    </g>
    <g id="text_10">
     <!-- iterations -->
     <g transform="translate(324.035938 354.189375) scale(0.2 -0.2)">
      <defs>
       <path id="DejaVuSans-69" d="M 603 3500 
L 1178 3500 
L 1178 0 
L 603 0 
L 603 3500 
z
M 603 4863 
L 1178 4863 
L 1178 4134 
L 603 4134 
L 603 4863 
z
" transform="scale(0.015625)"/>
       <path id="DejaVuSans-74" d="M 1172 4494 
L 1172 3500 
L 2356 3500 
L 2356 3053 
L 1172 3053 
L 1172 1153 
Q 1172 725 1289 603 
Q 1406 481 1766 481 
L 2356 481 
L 2356 0 
L 1766 0 
Q 1100 0 847 248 
Q 594 497 594 1153 
L 594 3053 
L 172 3053 
L 172 3500 
L 594 3500 
L 594 4494 
L 1172 4494 
z
" transform="scale(0.015625)"/>
       <path id="DejaVuSans-65" d="M 3597 1894 
L 3597 1613 
L 953 1613 
Q 991 1019 1311 708 
Q 1631 397 2203 397 
Q 2534 397 2845 478 
Q 3156 559 3463 722 
L 3463 178 
Q 3153 47 2828 -22 
Q 2503 -91 2169 -91 
Q 1331 -91 842 396 
Q 353 884 353 1716 
Q 353 2575 817 3079 
Q 1281 3584 2069 3584 
Q 2775 3584 3186 3129 
Q 3597 2675 3597 1894 
z
M 3022 2063 
Q 3016 2534 2758 2815 
Q 2500 3097 2075 3097 
Q 1594 3097 1305 2825 
Q 1016 2553 972 2059 
L 3022 2063 
z
" transform="scale(0.015625)"/>
       <path id="DejaVuSans-72" d="M 2631 2963 
Q 2534 3019 2420 3045 
Q 2306 3072 2169 3072 
Q 1681 3072 1420 2755 
Q 1159 2438 1159 1844 
L 1159 0 
L 581 0 
L 581 3500 
L 1159 3500 
L 1159 2956 
Q 1341 3275 1631 3429 
Q 1922 3584 2338 3584 
Q 2397 3584 2469 3576 
Q 2541 3569 2628 3553 
L 2631 2963 
z
" transform="scale(0.015625)"/>
       <path id="DejaVuSans-61" d="M 2194 1759 
Q 1497 1759 1228 1600 
Q 959 1441 959 1056 
Q 959 750 1161 570 
Q 1363 391 1709 391 
Q 2188 391 2477 730 
Q 2766 1069 2766 1631 
L 2766 1759 
L 2194 1759 
z
M 3341 1997 
L 3341 0 
L 2766 0 
L 2766 531 
Q 2569 213 2275 61 
Q 1981 -91 1556 -91 
Q 1019 -91 701 211 
Q 384 513 384 1019 
Q 384 1609 779 1909 
Q 1175 2209 1959 2209 
L 2766 2209 
L 2766 2266 
Q 2766 2663 2505 2880 
Q 2244 3097 1772 3097 
Q 1472 3097 1187 3025 
Q 903 2953 641 2809 
L 641 3341 
Q 956 3463 1253 3523 
Q 1550 3584 1831 3584 
Q 2591 3584 2966 3190 
Q 3341 2797 3341 1997 
z
" transform="scale(0.015625)"/>
       <path id="DejaVuSans-6f" d="M 1959 3097 
Q 1497 3097 1228 2736 
Q 959 2375 959 1747 
Q 959 1119 1226 758 
Q 1494 397 1959 397 
Q 2419 397 2687 759 
Q 2956 1122 2956 1747 
Q 2956 2369 2687 2733 
Q 2419 3097 1959 3097 
z
M 1959 3584 
Q 2709 3584 3137 3096 
Q 3566 2609 3566 1747 
Q 3566 888 3137 398 
Q 2709 -91 1959 -91 
Q 1206 -91 779 398 
Q 353 888 353 1747 
Q 353 2609 779 3096 
Q 1206 3584 1959 3584 
z
" transform="scale(0.015625)"/>
       <path id="DejaVuSans-6e" d="M 3513 2113 
L 3513 0 
L 2938 0 
L 2938 2094 
Q 2938 2591 2744 2837 
Q 2550 3084 2163 3084 
Q 1697 3084 1428 2787 
Q 1159 2491 1159 1978 
L 1159 0 
L 581 0 
L 581 3500 
L 1159 3500 
L 1159 2956 
Q 1366 3272 1645 3428 
Q 1925 3584 2291 3584 
Q 2894 3584 3203 3211 
Q 3513 2838 3513 2113 
z
" transform="scale(0.015625)"/>
       <path id="DejaVuSans-73" d="M 2834 3397 
L 2834 2853 
Q 2591 2978 2328 3040 
Q 2066 3103 1784 3103 
Q 1356 3103 1142 2972 
Q 928 2841 928 2578 
Q 928 2378 1081 2264 
Q 1234 2150 1697 2047 
L 1894 2003 
Q 2506 1872 2764 1633 
Q 3022 1394 3022 966 
Q 3022 478 2636 193 
Q 2250 -91 1575 -91 
Q 1294 -91 989 -36 
Q 684 19 347 128 
L 347 722 
Q 666 556 975 473 
Q 1284 391 1588 391 
Q 1994 391 2212 530 
Q 2431 669 2431 922 
Q 2431 1156 2273 1281 
Q 2116 1406 1581 1522 
L 1381 1569 
Q 847 1681 609 1914 
Q 372 2147 372 2553 
Q 372 3047 722 3315 
Q 1072 3584 1716 3584 
Q 2034 3584 2315 3537 
Q 2597 3491 2834 3397 
z
" transform="scale(0.015625)"/>
      </defs>
      <use xlink:href="#DejaVuSans-69"/>
      <use xlink:href="#DejaVuSans-74" x="27.783203"/>
      <use xlink:href="#DejaVuSans-65" x="66.992188"/>
      <use xlink:href="#DejaVuSans-72" x="128.515625"/>
      <use xlink:href="#DejaVuSans-61" x="169.628906"/>
      <use xlink:href="#DejaVuSans-74" x="230.908203"/>
      <use xlink:href="#DejaVuSans-69" x="270.117188"/>
      <use xlink:href="#DejaVuSans-6f" x="297.900391"/>
      <use xlink:href="#DejaVuSans-6e" x="359.082031"/>
      <use xlink:href="#DejaVuSans-73" x="422.460938"/>
     </g>
    </g>
   </g>
   <g id="matplotlib.axis_2">
    <g id="ytick_1">
     <g id="line2d_10">
      <defs>
       <path id="m30f856fc2e" d="M 0 0 
L -3.5 0 
" style="stroke: #000000; stroke-width: 0.8"/>
      </defs>
      <g>
       <use xlink:href="#m30f856fc2e" x="92.490625" y="287.754235" style="stroke: #000000; stroke-width: 0.8"/>
      </g>
     </g>
     <g id="text_11">
      <!-- −200 -->
      <g transform="translate(30.55625 295.352672) scale(0.2 -0.2)">
       <defs>
        <path id="DejaVuSans-2212" d="M 678 2272 
L 4684 2272 
L 4684 1741 
L 678 1741 
L 678 2272 
z
" transform="scale(0.015625)"/>
       </defs>
       <use xlink:href="#DejaVuSans-2212"/>
       <use xlink:href="#DejaVuSans-32" x="83.789062"/>
       <use xlink:href="#DejaVuSans-30" x="147.412109"/>
       <use xlink:href="#DejaVuSans-30" x="211.035156"/>
      </g>
     </g>
    </g>
    <g id="ytick_2">
     <g id="line2d_11">
      <g>
       <use xlink:href="#m30f856fc2e" x="92.490625" y="227.578386" style="stroke: #000000; stroke-width: 0.8"/>
      </g>
     </g>
     <g id="text_12">
      <!-- −100 -->
      <g transform="translate(30.55625 235.176823) scale(0.2 -0.2)">
       <use xlink:href="#DejaVuSans-2212"/>
       <use xlink:href="#DejaVuSans-31" x="83.789062"/>
       <use xlink:href="#DejaVuSans-30" x="147.412109"/>
       <use xlink:href="#DejaVuSans-30" x="211.035156"/>
      </g>
     </g>
    </g>
    <g id="ytick_3">
     <g id="line2d_12">
      <g>
       <use xlink:href="#m30f856fc2e" x="92.490625" y="167.402537" style="stroke: #000000; stroke-width: 0.8"/>
      </g>
     </g>
     <g id="text_13">
      <!-- 0 -->
      <g transform="translate(72.765625 175.000974) scale(0.2 -0.2)">
       <use xlink:href="#DejaVuSans-30"/>
      </g>
     </g>
    </g>
    <g id="ytick_4">
     <g id="line2d_13">
      <g>
       <use xlink:href="#m30f856fc2e" x="92.490625" y="107.226688" style="stroke: #000000; stroke-width: 0.8"/>
      </g>
     </g>
     <g id="text_14">
      <!-- 100 -->
      <g transform="translate(47.315625 114.825125) scale(0.2 -0.2)">
       <use xlink:href="#DejaVuSans-31"/>
       <use xlink:href="#DejaVuSans-30" x="63.623047"/>
       <use xlink:href="#DejaVuSans-30" x="127.246094"/>
      </g>
     </g>
    </g>
    <g id="ytick_5">
     <g id="line2d_14">
      <g>
       <use xlink:href="#m30f856fc2e" x="92.490625" y="47.050838" style="stroke: #000000; stroke-width: 0.8"/>
      </g>
     </g>
     <g id="text_15">
      <!-- 200 -->
      <g transform="translate(47.315625 54.649276) scale(0.2 -0.2)">
       <use xlink:href="#DejaVuSans-32"/>
       <use xlink:href="#DejaVuSans-30" x="63.623047"/>
       <use xlink:href="#DejaVuSans-30" x="127.246094"/>
      </g>
     </g>
    </g>
    <g id="text_16">
     <!-- Loss -->
     <g transform="translate(22.396875 191.970625) rotate(-90) scale(0.2 -0.2)">
      <defs>
       <path id="DejaVuSans-4c" d="M 628 4666 
L 1259 4666 
L 1259 531 
L 3531 531 
L 3531 0 
L 628 0 
L 628 4666 
z
" transform="scale(0.015625)"/>
      </defs>
      <use xlink:href="#DejaVuSans-4c"/>
      <use xlink:href="#DejaVuSans-6f" x="53.962891"/>
      <use xlink:href="#DejaVuSans-73" x="115.144531"/>
      <use xlink:href="#DejaVuSans-73" x="167.244141"/>
     </g>
    </g>
   </g>
   <g id="line2d_15">
    <path d="M 117.854261 138.53853 
L 118.171307 97.982964 
L 118.488352 117.083744 
L 118.805398 121.777179 
L 119.122443 104.43596 
L 119.439489 128.019774 
L 119.756534 117.918638 
L 120.07358 99.792773 
L 120.390625 123.303136 
L 121.024716 107.215809 
L 121.341761 54.185175 
L 121.658807 44.586844 
L 121.975852 50.208405 
L 122.292898 65.431701 
L 122.926989 44.03625 
L 123.244034 47.425516 
L 123.56108 53.255988 
L 123.878125 62.20203 
L 124.19517 54.058702 
L 124.512216 59.456177 
L 124.829261 109.140656 
L 125.146307 94.805897 
L 125.463352 87.78307 
L 125.780398 75.133855 
L 126.097443 98.959252 
L 126.414489 90.513457 
L 126.731534 91.353551 
L 127.04858 94.307751 
L 127.365625 99.862324 
L 127.68267 94.958193 
L 127.999716 93.356455 
L 128.633807 79.768648 
L 128.950852 81.625829 
L 129.267898 87.639335 
L 129.584943 98.247788 
L 129.901989 97.025522 
L 130.219034 100.470922 
L 130.53608 94.009915 
L 130.853125 108.302296 
L 131.17017 106.746361 
L 131.487216 111.813688 
L 131.804261 111.321942 
L 132.121307 109.609667 
L 132.438352 111.732825 
L 133.072443 118.313446 
L 133.389489 121.128737 
L 133.706534 118.243637 
L 134.02358 122.939672 
L 134.340625 114.006144 
L 134.65767 113.402414 
L 134.974716 118.336942 
L 135.291761 126.247555 
L 135.608807 117.705982 
L 135.925852 118.938384 
L 136.242898 115.501875 
L 136.559943 121.08746 
L 136.876989 119.267918 
L 137.194034 128.786107 
L 137.51108 128.140582 
L 137.828125 126.980209 
L 138.14517 127.736057 
L 138.462216 119.824596 
L 139.096307 125.22985 
L 139.413352 132.060951 
L 139.730398 127.742292 
L 140.047443 128.726967 
L 140.364489 132.552166 
L 140.681534 126.842327 
L 140.99858 124.849238 
L 141.315625 134.387408 
L 141.63267 128.837998 
L 141.949716 132.134935 
L 142.266761 123.78468 
L 142.583807 132.616752 
L 142.900852 133.362101 
L 143.217898 130.522423 
L 143.534943 132.295449 
L 143.851989 130.881563 
L 144.169034 130.761392 
L 144.48608 136.851809 
L 144.803125 133.13345 
L 145.12017 136.862142 
L 145.437216 132.687554 
L 145.754261 136.323725 
L 146.071307 132.024156 
L 146.388352 135.651823 
L 146.705398 134.503783 
L 147.022443 138.447324 
L 147.339489 140.302657 
L 147.656534 137.326201 
L 148.290625 133.290565 
L 148.60767 132.866831 
L 148.924716 142.596344 
L 149.241761 144.986145 
L 149.875852 140.610362 
L 150.192898 141.500038 
L 150.509943 143.686115 
L 150.826989 140.210455 
L 151.144034 143.748127 
L 151.778125 147.376432 
L 152.09517 144.567206 
L 152.412216 148.385484 
L 152.729261 146.372494 
L 153.046307 149.177832 
L 153.363352 150.583748 
L 153.680398 151.428518 
L 153.997443 151.65227 
L 154.314489 153.806823 
L 154.94858 149.66105 
L 155.265625 150.094058 
L 155.58267 153.424061 
L 155.899716 153.379319 
L 156.216761 152.68978 
L 156.533807 148.221893 
L 156.850852 149.94797 
L 157.167898 150.801801 
L 157.484943 149.496023 
L 157.801989 153.426297 
L 158.119034 148.701191 
L 158.43608 155.673158 
L 158.753125 152.270783 
L 159.07017 152.812434 
L 159.387216 151.283283 
L 159.704261 151.61941 
L 160.021307 149.972005 
L 160.338352 149.445184 
L 160.655398 150.678389 
L 160.972443 153.782528 
L 161.289489 152.701329 
L 161.606534 150.58121 
L 161.92358 153.449759 
L 162.55767 151.134056 
L 163.191761 149.175368 
L 163.508807 152.92116 
L 163.825852 154.821874 
L 164.142898 154.122896 
L 164.459943 154.659618 
L 164.776989 154.935823 
L 165.094034 150.153039 
L 165.41108 153.838236 
L 165.728125 152.87849 
L 166.04517 156.117978 
L 166.362216 154.618691 
L 166.679261 155.286374 
L 166.996307 155.509007 
L 167.313352 155.203361 
L 167.630398 155.733462 
L 167.947443 154.610605 
L 168.264489 156.868743 
L 168.89858 154.86685 
L 169.215625 155.846898 
L 169.53267 155.5618 
L 169.849716 154.291763 
L 170.166761 156.186717 
L 170.483807 156.244531 
L 170.800852 155.715934 
L 171.117898 155.403453 
L 171.751989 155.993486 
L 172.069034 155.337442 
L 172.38608 155.619744 
L 173.02017 157.322453 
L 173.337216 156.929476 
L 173.654261 155.284185 
L 173.971307 157.053882 
L 174.288352 154.679929 
L 174.605398 157.291986 
L 174.922443 156.903158 
L 175.239489 157.112578 
L 175.87358 158.666323 
L 176.190625 157.140524 
L 176.50767 157.121308 
L 176.824716 158.853463 
L 177.141761 159.363312 
L 177.458807 158.407733 
L 177.775852 158.277547 
L 178.092898 158.768124 
L 178.726989 159.348091 
L 179.044034 158.40205 
L 179.36108 158.776583 
L 179.678125 157.259794 
L 179.99517 157.809901 
L 180.312216 157.905638 
L 180.629261 160.304648 
L 180.946307 159.27558 
L 181.263352 160.198122 
L 181.580398 158.222625 
L 181.897443 158.653634 
L 182.214489 158.487327 
L 182.531534 158.747868 
L 182.84858 158.790748 
L 183.165625 157.779227 
L 183.799716 158.768348 
L 184.116761 157.9548 
L 184.433807 158.883566 
L 184.750852 159.266435 
L 185.067898 158.167248 
L 185.384943 157.931008 
L 185.701989 157.269122 
L 186.33608 159.245639 
L 186.97017 159.591384 
L 187.604261 157.982647 
L 187.921307 158.460905 
L 188.238352 158.242813 
L 188.555398 157.491546 
L 189.189489 159.897972 
L 189.506534 159.522708 
L 189.82358 158.755006 
L 190.140625 160.102913 
L 190.774716 159.911868 
L 191.091761 158.428562 
L 191.408807 158.256503 
L 191.725852 159.280037 
L 192.676989 160.666388 
L 193.31108 158.531589 
L 193.628125 160.376333 
L 193.94517 159.592961 
L 194.262216 159.596836 
L 194.579261 158.212775 
L 194.896307 158.965149 
L 195.213352 160.221803 
L 195.530398 160.554096 
L 195.847443 160.234987 
L 196.164489 159.189843 
L 196.79858 158.4345 
L 197.43267 159.86907 
L 197.749716 159.834532 
L 198.383807 160.513438 
L 198.700852 160.132619 
L 199.017898 160.426465 
L 199.334943 160.383222 
L 199.651989 159.592069 
L 199.969034 160.667174 
L 200.28608 159.239572 
L 200.603125 161.504711 
L 200.92017 160.711068 
L 201.237216 160.321193 
L 201.554261 160.334656 
L 201.871307 160.4783 
L 202.188352 160.244258 
L 202.505398 160.241173 
L 202.822443 160.039621 
L 203.77358 158.951886 
L 204.090625 159.1988 
L 204.40767 159.780806 
L 204.724716 159.367018 
L 205.041761 158.507879 
L 205.358807 158.913263 
L 205.675852 158.653872 
L 205.992898 158.552491 
L 206.309943 159.409902 
L 206.626989 159.175904 
L 206.944034 158.624938 
L 207.578125 158.893202 
L 208.212216 160.264354 
L 208.529261 160.201945 
L 209.163352 158.650772 
L 209.480398 159.288537 
L 209.797443 160.520795 
L 210.114489 160.457279 
L 210.74858 158.257941 
L 211.065625 158.619133 
L 211.38267 159.745309 
L 211.699716 159.48481 
L 212.016761 159.978303 
L 212.333807 159.720556 
L 212.650852 159.612132 
L 212.967898 159.841911 
L 213.601989 160.510643 
L 214.23608 159.110659 
L 214.553125 159.040226 
L 214.87017 158.709458 
L 215.187216 159.419005 
L 215.504261 159.173452 
L 215.821307 159.518919 
L 216.138352 158.566461 
L 216.772443 159.499792 
L 217.406534 158.586841 
L 217.72358 158.811935 
L 218.040625 159.308052 
L 218.35767 158.76162 
L 218.674716 157.928456 
L 218.991761 158.267043 
L 219.308807 158.073122 
L 219.625852 158.023908 
L 220.576989 159.418039 
L 220.894034 159.162644 
L 221.21108 158.305005 
L 221.528125 158.181522 
L 221.84517 158.871983 
L 222.162216 158.207984 
L 222.479261 158.920037 
L 222.796307 158.307508 
L 223.113352 158.614952 
L 223.430398 157.895699 
L 223.747443 158.923532 
L 224.064489 158.600683 
L 224.381534 159.982429 
L 224.69858 158.452746 
L 225.015625 158.364598 
L 225.33267 158.53182 
L 225.649716 158.447831 
L 225.966761 159.631004 
L 226.283807 158.702739 
L 226.917898 158.844423 
L 227.234943 158.261884 
L 227.869034 158.876161 
L 228.18608 158.704879 
L 228.503125 158.966426 
L 228.82017 159.070848 
L 229.137216 159.870111 
L 229.454261 159.975019 
L 229.771307 160.596646 
L 230.088352 159.037911 
L 230.722443 159.919207 
L 231.039489 159.970316 
L 231.356534 160.525837 
L 231.67358 159.82942 
L 231.990625 160.372563 
L 232.30767 160.469565 
L 232.624716 160.440517 
L 232.941761 160.545118 
L 233.258807 161.243255 
L 233.892898 161.95244 
L 234.209943 161.344446 
L 234.526989 162.230849 
L 234.844034 160.694473 
L 235.16108 161.529689 
L 235.478125 161.958084 
L 235.79517 161.981839 
L 236.112216 161.531251 
L 236.429261 162.091559 
L 236.746307 161.080496 
L 237.063352 161.420721 
L 237.380398 161.219607 
L 238.014489 163.802467 
L 238.331534 163.544163 
L 238.64858 162.374592 
L 238.965625 162.509576 
L 239.28267 163.184545 
L 239.599716 162.450438 
L 240.550852 161.216576 
L 240.867898 161.664394 
L 241.184943 161.362429 
L 241.501989 162.075806 
L 241.819034 161.102878 
L 242.13608 163.051107 
L 242.453125 162.817614 
L 242.77017 162.946267 
L 243.404261 162.763962 
L 243.721307 162.839012 
L 244.038352 162.000619 
L 244.355398 162.598769 
L 244.672443 162.378559 
L 244.989489 163.076137 
L 245.306534 162.571522 
L 245.62358 162.729478 
L 245.940625 162.590982 
L 246.25767 162.127056 
L 246.574716 163.018755 
L 246.891761 161.84957 
L 247.208807 162.625888 
L 247.525852 162.543089 
L 247.842898 163.183865 
L 248.159943 162.865179 
L 249.11108 162.964571 
L 249.428125 163.003534 
L 249.74517 161.98191 
L 250.062216 161.799897 
L 250.379261 163.497794 
L 251.330398 161.52673 
L 251.647443 162.915428 
L 251.964489 163.518571 
L 252.281534 163.511122 
L 252.59858 163.779869 
L 253.23267 163.292074 
L 253.549716 163.261754 
L 253.866761 164.209916 
L 254.817898 164.29926 
L 255.134943 163.883719 
L 255.451989 164.214976 
L 255.769034 163.611439 
L 256.08608 163.50855 
L 256.403125 163.619804 
L 256.72017 163.517998 
L 257.037216 163.762633 
L 257.354261 163.682833 
L 257.671307 163.927672 
L 257.988352 162.938326 
L 258.305398 163.558524 
L 258.622443 163.570411 
L 258.939489 162.838417 
L 259.256534 163.419215 
L 259.57358 163.034187 
L 259.890625 163.560597 
L 260.20767 162.974609 
L 260.524716 163.22759 
L 260.841761 163.897061 
L 261.475852 163.200592 
L 261.792898 163.883585 
L 262.109943 164.051239 
L 262.744034 163.416856 
L 263.06108 163.617793 
L 263.378125 163.502438 
L 263.69517 163.762088 
L 264.012216 164.287996 
L 264.329261 163.466284 
L 264.646307 163.625181 
L 264.963352 162.927845 
L 265.280398 162.924646 
L 265.597443 163.154536 
L 265.914489 162.913681 
L 266.54858 163.90003 
L 266.865625 164.07757 
L 267.18267 164.574846 
L 267.499716 164.524283 
L 267.816761 165.478911 
L 268.133807 165.009827 
L 268.450852 165.363989 
L 268.767898 165.356022 
L 269.084943 164.90985 
L 269.401989 165.135213 
L 269.719034 164.92389 
L 270.03608 165.118623 
L 270.353125 165.026908 
L 270.67017 165.352702 
L 270.987216 165.29849 
L 271.621307 163.713846 
L 271.938352 164.55012 
L 272.572443 164.198529 
L 272.889489 164.675546 
L 273.206534 164.071193 
L 273.52358 164.222628 
L 273.840625 164.527797 
L 274.15767 164.517816 
L 274.791761 165.291701 
L 275.108807 165.561032 
L 275.425852 164.811283 
L 275.742898 164.988455 
L 276.059943 164.924284 
L 276.376989 164.615151 
L 276.694034 165.583877 
L 277.01108 165.212143 
L 277.328125 165.333861 
L 277.64517 165.323854 
L 277.962216 165.041086 
L 278.279261 164.978663 
L 278.913352 165.200191 
L 279.230398 166.08 
L 279.547443 165.035632 
L 279.864489 165.603331 
L 280.181534 165.86487 
L 280.49858 165.443294 
L 280.815625 166.256202 
L 281.13267 164.694453 
L 281.449716 164.670977 
L 281.766761 164.525527 
L 282.083807 165.21686 
L 282.400852 164.912678 
L 282.717898 165.326199 
L 283.034943 164.488608 
L 283.351989 164.820524 
L 283.669034 165.524774 
L 283.98608 165.617187 
L 284.303125 165.576942 
L 284.62017 164.87486 
L 285.254261 165.961546 
L 285.888352 164.944552 
L 286.205398 165.134178 
L 286.522443 164.885828 
L 286.839489 165.370466 
L 287.156534 164.272193 
L 287.790625 165.0006 
L 288.10767 164.976294 
L 288.424716 165.602046 
L 288.741761 165.479562 
L 289.058807 165.237788 
L 289.375852 166.108076 
L 289.692898 166.104062 
L 290.009943 165.82227 
L 290.326989 166.256527 
L 290.96108 165.469542 
L 291.278125 165.098018 
L 291.912216 165.534906 
L 292.229261 166.428739 
L 292.863352 165.721829 
L 293.180398 166.143999 
L 293.497443 165.615088 
L 293.814489 166.228039 
L 294.131534 165.061817 
L 294.44858 165.143602 
L 294.765625 165.760576 
L 295.08267 165.561899 
L 295.399716 166.216574 
L 296.033807 165.183599 
L 296.350852 165.018782 
L 296.667898 165.360501 
L 297.301989 165.419201 
L 297.619034 165.360393 
L 297.93608 164.136741 
L 298.253125 165.343897 
L 298.57017 165.572042 
L 298.887216 165.545783 
L 299.521307 164.591578 
L 299.838352 164.512763 
L 300.155398 164.747325 
L 300.472443 165.493837 
L 300.789489 165.139657 
L 301.106534 165.495464 
L 301.42358 164.968325 
L 301.740625 165.539488 
L 302.05767 164.924951 
L 302.374716 165.093261 
L 302.691761 164.996031 
L 303.008807 164.524479 
L 303.325852 164.886919 
L 303.642898 164.47752 
L 303.959943 164.371764 
L 304.276989 163.988204 
L 304.594034 164.644625 
L 304.91108 164.709602 
L 305.228125 164.279329 
L 305.862216 164.712515 
L 306.179261 164.128696 
L 306.496307 164.199866 
L 306.813352 164.096761 
L 307.130398 164.48685 
L 307.447443 164.527779 
L 307.764489 164.707487 
L 308.715625 164.760681 
L 309.03267 164.850835 
L 309.349716 164.799478 
L 309.666761 164.295248 
L 309.983807 164.533537 
L 310.617898 164.375007 
L 310.934943 164.912049 
L 311.251989 164.567608 
L 311.569034 163.712177 
L 311.88608 163.720205 
L 312.203125 164.737969 
L 312.52017 164.51053 
L 313.154261 164.528611 
L 313.471307 164.159422 
L 313.788352 164.156035 
L 314.422443 164.416819 
L 315.056534 164.201238 
L 315.37358 163.689581 
L 315.690625 163.688707 
L 316.324716 164.021742 
L 316.641761 164.40091 
L 317.275852 164.1579 
L 317.592898 164.518102 
L 317.909943 163.675799 
L 318.226989 163.978809 
L 318.544034 164.113678 
L 318.86108 164.586427 
L 319.178125 163.635984 
L 319.49517 164.265889 
L 319.812216 163.462821 
L 320.129261 164.146655 
L 320.763352 164.35971 
L 321.080398 163.949097 
L 321.397443 164.500156 
L 321.714489 164.439221 
L 322.031534 164.258676 
L 322.34858 164.612078 
L 322.665625 164.474929 
L 322.98267 164.662866 
L 323.299716 164.384643 
L 323.616761 165.050381 
L 324.567898 164.638916 
L 324.884943 164.819175 
L 325.201989 164.597301 
L 325.519034 164.516941 
L 325.83608 164.688791 
L 326.153125 165.221928 
L 327.104261 165.57446 
L 327.421307 166.125497 
L 327.738352 166.924859 
L 328.372443 166.874639 
L 328.689489 166.326228 
L 329.006534 166.215998 
L 329.32358 166.537828 
L 329.95767 166.108848 
L 330.274716 166.486851 
L 330.908807 166.322447 
L 331.225852 166.749162 
L 331.542898 166.739898 
L 331.859943 166.314309 
L 332.176989 166.29515 
L 332.494034 166.754573 
L 332.81108 166.073459 
L 333.44517 166.394029 
L 334.079261 166.580613 
L 334.396307 166.655139 
L 335.347443 166.43708 
L 335.981534 166.349224 
L 336.29858 166.578572 
L 336.93267 165.911427 
L 337.249716 166.599712 
L 337.566761 166.763055 
L 338.517898 166.836537 
L 338.834943 166.292862 
L 339.151989 166.114483 
L 339.469034 166.70456 
L 339.78608 166.404543 
L 340.103125 166.949484 
L 340.737216 166.846264 
L 341.054261 167.496116 
L 341.371307 167.106541 
L 341.688352 167.269006 
L 342.005398 166.270429 
L 342.322443 167.076186 
L 342.639489 167.150597 
L 342.956534 166.690862 
L 343.590625 167.016251 
L 343.90767 166.722275 
L 344.224716 167.172367 
L 344.858807 167.300765 
L 345.492898 166.953468 
L 345.809943 166.909695 
L 346.126989 166.667897 
L 346.444034 167.128023 
L 346.76108 167.287949 
L 347.078125 166.953439 
L 347.39517 167.165798 
L 347.712216 167.176958 
L 348.029261 167.776535 
L 348.346307 167.588331 
L 349.297443 168.112648 
L 349.614489 167.814137 
L 349.931534 167.966171 
L 350.24858 167.337813 
L 350.565625 168.231724 
L 351.199716 167.66535 
L 351.516761 167.930938 
L 351.833807 167.764538 
L 352.150852 167.800716 
L 352.467898 167.605195 
L 353.101989 167.877379 
L 353.419034 167.448346 
L 354.053125 167.619896 
L 354.37017 167.277464 
L 354.687216 167.257352 
L 355.004261 167.622062 
L 355.638352 167.811488 
L 355.955398 167.2019 
L 356.272443 167.374296 
L 356.589489 167.108636 
L 356.906534 167.529072 
L 357.22358 167.445918 
L 357.540625 167.588031 
L 357.85767 166.986021 
L 358.174716 167.07021 
L 358.491761 167.01968 
L 358.808807 167.131119 
L 359.125852 166.706204 
L 359.442898 167.273783 
L 359.759943 167.4991 
L 360.076989 167.164137 
L 360.394034 167.278401 
L 360.71108 167.029178 
L 361.028125 166.381069 
L 361.34517 166.598948 
L 361.662216 166.362415 
L 361.979261 166.875708 
L 362.613352 166.486489 
L 362.930398 167.00153 
L 363.247443 166.338952 
L 363.564489 167.288716 
L 363.881534 166.475611 
L 364.19858 166.628849 
L 364.515625 166.578035 
L 364.83267 166.994117 
L 365.149716 166.373868 
L 365.783807 167.125379 
L 366.100852 166.9732 
L 366.417898 166.957091 
L 366.734943 167.064731 
L 367.051989 166.882958 
L 367.369034 166.514705 
L 367.68608 166.783083 
L 368.003125 166.270219 
L 368.32017 166.448122 
L 368.637216 167.096922 
L 368.954261 167.182332 
L 369.271307 167.032398 
L 369.588352 166.457706 
L 369.905398 167.0144 
L 370.539489 167.264616 
L 370.856534 166.954706 
L 371.490625 166.860758 
L 371.80767 167.200607 
L 372.124716 166.850006 
L 372.441761 167.223131 
L 372.758807 167.091588 
L 373.075852 167.73185 
L 373.392898 167.645538 
L 373.709943 167.831437 
L 374.026989 167.616765 
L 374.344034 167.043909 
L 374.66108 167.39589 
L 374.978125 166.841559 
L 375.29517 167.512002 
L 375.612216 167.50357 
L 375.929261 167.978246 
L 376.246307 167.672412 
L 376.880398 168.036219 
L 377.197443 167.420888 
L 377.514489 167.485797 
L 377.831534 168.077085 
L 378.14858 168.264032 
L 378.465625 167.662811 
L 378.78267 167.993159 
L 379.099716 167.701559 
L 379.416761 168.175583 
L 379.733807 168.068052 
L 380.050852 168.168252 
L 380.367898 167.917035 
L 380.684943 168.125004 
L 381.001989 167.61821 
L 381.319034 168.034187 
L 381.63608 168.012515 
L 381.953125 167.751495 
L 382.27017 168.214365 
L 382.904261 167.834211 
L 383.221307 168.107223 
L 383.538352 168.052522 
L 383.855398 168.754493 
L 384.172443 167.919724 
L 384.489489 168.417852 
L 384.806534 167.689991 
L 385.440625 167.980679 
L 385.75767 167.810499 
L 386.074716 167.962371 
L 386.391761 167.649031 
L 386.708807 168.198983 
L 387.025852 168.257292 
L 387.342898 167.565095 
L 387.659943 167.666777 
L 387.976989 168.134757 
L 388.294034 167.766729 
L 388.61108 168.068642 
L 388.928125 168.068813 
L 389.24517 168.376111 
L 389.562216 168.323267 
L 389.879261 168.045614 
L 390.196307 168.013065 
L 390.513352 168.729377 
L 390.830398 168.472048 
L 391.147443 167.71081 
L 391.464489 167.839083 
L 392.09858 168.607979 
L 392.415625 168.046909 
L 394.000852 168.339345 
L 394.951989 167.907877 
L 395.269034 167.996859 
L 395.903125 167.956325 
L 396.22017 168.335002 
L 396.854261 168.000615 
L 397.171307 168.34044 
L 397.488352 167.747281 
L 397.805398 167.712023 
L 398.122443 168.375882 
L 398.756534 167.865294 
L 399.07358 168.38259 
L 399.70767 168.289031 
L 400.024716 167.838615 
L 400.341761 168.052053 
L 400.658807 167.46046 
L 400.975852 167.931055 
L 401.292898 167.679184 
L 401.609943 168.034151 
L 401.926989 167.710281 
L 402.56108 167.77079 
L 403.19517 168.24578 
L 403.829261 168.200039 
L 404.146307 167.829781 
L 404.463352 167.958138 
L 404.780398 168.402189 
L 405.097443 168.554432 
L 405.731534 167.649448 
L 406.68267 167.955298 
L 406.999716 168.353654 
L 407.316761 168.307398 
L 407.950852 167.766889 
L 408.267898 167.657628 
L 408.584943 167.845189 
L 408.901989 167.687432 
L 409.219034 167.823104 
L 409.53608 167.392199 
L 409.853125 167.779666 
L 410.17017 167.685633 
L 410.487216 167.89451 
L 410.804261 167.138594 
L 411.121307 167.323921 
L 411.438352 166.796265 
L 411.755398 167.393376 
L 412.389489 167.520812 
L 412.706534 167.150663 
L 413.02358 167.495462 
L 413.340625 167.134297 
L 413.65767 167.550264 
L 413.974716 167.154746 
L 414.291761 167.587608 
L 414.608807 167.21438 
L 414.925852 167.838486 
L 415.242898 167.489968 
L 415.559943 167.505754 
L 415.876989 166.953646 
L 416.194034 167.728569 
L 416.51108 167.637567 
L 416.828125 167.782465 
L 417.14517 167.465462 
L 417.462216 167.6463 
L 417.779261 167.67675 
L 418.096307 168.102737 
L 418.413352 167.422142 
L 419.047443 168.100589 
L 419.364489 167.246586 
L 419.681534 167.871726 
L 419.99858 167.584116 
L 420.315625 167.867532 
L 420.63267 167.406948 
L 420.949716 167.775551 
L 421.266761 167.612994 
L 422.217898 168.130487 
L 423.169034 167.585704 
L 423.803125 167.628664 
L 424.437216 167.73587 
L 424.754261 167.440339 
L 425.705398 168.532412 
L 426.339489 167.513484 
L 426.656534 167.855203 
L 427.290625 167.451928 
L 427.60767 167.538191 
L 427.924716 168.188903 
L 428.241761 167.451479 
L 428.558807 167.977264 
L 428.875852 168.058694 
L 429.509943 167.690907 
L 430.144034 168.038624 
L 430.46108 168.365727 
L 430.778125 167.587755 
L 431.09517 168.448506 
L 431.729261 167.49746 
L 432.046307 167.476281 
L 432.363352 167.738096 
L 432.680398 167.755714 
L 433.314489 168.102064 
L 433.94858 167.973858 
L 434.265625 167.760494 
L 434.58267 167.084461 
L 434.899716 167.883118 
L 435.216761 167.614984 
L 435.533807 167.639607 
L 435.850852 168.206244 
L 436.167898 167.68942 
L 436.801989 167.964516 
L 437.119034 167.815619 
L 437.43608 168.022647 
L 437.753125 168.002625 
L 438.07017 167.824684 
L 438.387216 167.434671 
L 438.704261 167.986338 
L 439.338352 167.705748 
L 439.655398 167.930693 
L 439.972443 167.799168 
L 440.289489 168.376478 
L 440.606534 168.00842 
L 440.92358 168.025359 
L 441.240625 167.899444 
L 441.55767 167.988372 
L 442.191761 167.573388 
L 442.825852 167.762593 
L 443.459943 167.372034 
L 444.094034 167.598472 
L 444.41108 167.712845 
L 444.728125 167.160308 
L 445.04517 167.39207 
L 445.362216 167.76882 
L 445.679261 167.932979 
L 445.996307 167.720401 
L 446.313352 167.669139 
L 446.630398 167.028703 
L 446.947443 167.332513 
L 447.264489 167.119462 
L 447.581534 167.400241 
L 449.166761 167.670873 
L 449.800852 167.173844 
L 450.434943 167.124134 
L 450.751989 167.176174 
L 451.069034 166.7652 
L 451.38608 167.051205 
L 452.02017 166.885233 
L 452.337216 167.250127 
L 452.971307 166.772559 
L 453.288352 167.775936 
L 453.605398 167.00415 
L 453.922443 167.511128 
L 454.239489 167.550489 
L 455.190625 167.15025 
L 455.824716 167.213006 
L 456.141761 166.992838 
L 456.458807 167.392014 
L 456.775852 167.13368 
L 457.409943 167.218266 
L 457.726989 166.925797 
L 458.044034 167.401719 
L 458.36108 167.093697 
L 458.678125 167.136046 
L 458.99517 167.4986 
L 459.312216 166.855258 
L 459.629261 166.723251 
L 459.946307 167.33815 
L 460.897443 166.874395 
L 461.214489 167.081431 
L 461.84858 167.050043 
L 462.48267 167.536996 
L 463.116761 167.583058 
L 463.433807 168.017203 
L 463.750852 167.974535 
L 464.701989 168.39631 
L 465.019034 168.398294 
L 465.33608 168.231063 
L 465.653125 167.884159 
L 465.97017 168.345749 
L 466.287216 168.264352 
L 466.604261 167.955007 
L 467.238352 168.06413 
L 467.555398 167.618454 
L 467.872443 168.266924 
L 468.189489 167.692045 
L 468.82358 167.618105 
L 469.140625 167.379107 
L 470.091761 168.193493 
L 470.408807 167.844706 
L 470.725852 167.872502 
L 471.042898 168.180034 
L 471.359943 168.264143 
L 471.676989 167.911159 
L 471.994034 168.260087 
L 472.31108 168.390628 
L 472.628125 168.229973 
L 472.94517 168.428713 
L 473.262216 167.990621 
L 473.579261 168.2936 
L 473.896307 168.134135 
L 474.213352 168.748672 
L 474.847443 168.437697 
L 475.164489 168.444157 
L 475.481534 167.793607 
L 475.79858 168.52573 
L 476.115625 168.035701 
L 476.43267 168.096286 
L 476.749716 168.496894 
L 477.066761 168.550487 
L 477.383807 168.32347 
L 478.017898 168.138543 
L 478.334943 167.913322 
L 479.28608 167.987964 
L 479.603125 168.285516 
L 479.92017 168.185153 
L 480.237216 167.832161 
L 480.554261 168.356196 
L 481.188352 167.800512 
L 481.505398 167.760334 
L 482.139489 168.074339 
L 482.456534 168.245453 
L 482.77358 167.550487 
L 483.090625 167.50391 
L 483.724716 167.805211 
L 484.041761 168.332021 
L 484.358807 167.887094 
L 485.309943 167.815148 
L 485.626989 168.091441 
L 485.944034 167.768061 
L 486.578125 168.033631 
L 486.89517 167.610236 
L 487.529261 167.594826 
L 487.846307 167.691552 
L 488.163352 167.964029 
L 488.480398 167.81463 
L 488.797443 168.168536 
L 489.114489 168.298507 
L 489.431534 168.03599 
L 490.065625 168.317229 
L 490.38267 168.085764 
L 490.699716 168.001078 
L 491.016761 168.039892 
L 491.333807 167.786561 
L 491.650852 167.942839 
L 491.967898 167.799765 
L 492.284943 168.01421 
L 492.919034 168.000916 
L 493.553125 167.941627 
L 493.87017 168.398032 
L 494.187216 167.796766 
L 494.504261 168.207016 
L 494.821307 168.145924 
L 495.138352 167.551587 
L 495.455398 167.982367 
L 495.772443 167.286404 
L 496.089489 167.480668 
L 496.406534 167.48593 
L 497.35767 168.180176 
L 497.674716 168.230953 
L 497.991761 168.121936 
L 498.308807 168.415509 
L 498.942898 168.471111 
L 499.259943 167.922029 
L 499.576989 168.765175 
L 499.894034 167.812701 
L 500.21108 168.026679 
L 500.528125 167.967479 
L 500.84517 167.363376 
L 501.479261 167.830774 
L 501.796307 167.540591 
L 502.113352 167.503768 
L 502.430398 168.247858 
L 502.747443 168.198391 
L 503.064489 168.270781 
L 503.381534 167.668448 
L 503.69858 167.450555 
L 504.015625 167.666598 
L 504.33267 167.544722 
L 504.649716 168.108202 
L 504.966761 167.82319 
L 505.283807 168.332072 
L 505.600852 168.313882 
L 505.917898 167.990658 
L 506.551989 167.82678 
L 507.18608 167.69071 
L 507.503125 168.580591 
L 507.82017 168.090425 
L 508.454261 168.405621 
L 508.771307 167.940651 
L 509.088352 167.920871 
L 509.405398 167.697883 
L 509.722443 167.880443 
L 510.67358 167.936594 
L 510.990625 168.187655 
L 511.624716 168.07991 
L 511.941761 168.410151 
L 512.575852 168.127815 
L 512.892898 168.42822 
L 513.526989 168.487664 
L 513.844034 168.541656 
L 514.16108 168.114351 
L 514.478125 168.043065 
L 514.79517 168.432345 
L 515.112216 168.259308 
L 516.063352 168.223765 
L 516.697443 168.471089 
L 517.014489 168.251735 
L 517.331534 168.338174 
L 517.64858 168.04233 
L 517.965625 168.05247 
L 518.28267 168.247995 
L 518.599716 168.033911 
L 518.916761 168.148847 
L 519.233807 167.944939 
L 519.550852 168.281226 
L 519.867898 167.928142 
L 520.184943 168.406232 
L 520.501989 168.259196 
L 520.819034 167.968629 
L 521.13608 167.843869 
L 521.453125 168.416682 
L 521.77017 168.394344 
L 522.087216 168.111164 
L 522.404261 168.499792 
L 522.721307 168.576082 
L 523.355398 168.551225 
L 523.672443 168.909093 
L 523.989489 168.247934 
L 524.62358 168.569364 
L 524.940625 168.216117 
L 525.574716 168.04415 
L 525.891761 167.568737 
L 526.208807 168.214966 
L 526.842898 167.616542 
L 527.794034 168.471279 
L 528.11108 167.87335 
L 528.428125 168.284962 
L 528.74517 167.906711 
L 529.062216 168.401945 
L 529.696307 167.763797 
L 530.013352 167.870899 
L 530.647443 167.907257 
L 530.964489 168.338732 
L 531.281534 168.301489 
L 531.59858 167.837146 
L 531.915625 167.61481 
L 532.23267 168.124018 
L 532.549716 168.155883 
L 532.866761 168.019492 
L 533.500852 168.2485 
L 534.134943 168.04768 
L 534.451989 168.637877 
L 534.769034 168.619907 
L 535.08608 168.186857 
L 535.72017 168.859491 
L 536.037216 168.829869 
L 536.354261 168.551741 
L 536.671307 168.844235 
L 536.988352 168.586502 
L 537.305398 168.796241 
L 537.622443 168.610927 
L 538.256534 168.651249 
L 538.57358 169.121849 
L 538.890625 168.775384 
L 539.841761 168.797475 
L 540.475852 168.214288 
L 540.792898 168.542471 
L 541.109943 168.225737 
L 541.426989 168.503472 
L 542.06108 168.408387 
L 542.378125 168.744115 
L 542.69517 168.800099 
L 543.012216 168.361216 
L 544.597443 168.712691 
L 545.231534 168.390598 
L 545.54858 168.620616 
L 545.865625 168.591809 
L 546.18267 168.742247 
L 546.499716 168.571679 
L 546.816761 168.774246 
L 547.133807 168.63304 
L 547.450852 168.898085 
L 547.767898 168.44036 
L 548.401989 168.853976 
L 548.719034 168.503483 
L 549.03608 168.85389 
L 549.353125 168.898816 
L 549.67017 168.464622 
L 549.987216 168.716828 
L 550.304261 169.272118 
L 550.621307 168.79067 
L 551.255398 168.87071 
L 551.572443 168.654211 
L 552.52358 168.51374 
L 553.15767 169.226336 
L 553.474716 168.668929 
L 553.791761 168.905214 
L 554.108807 168.996057 
L 554.425852 168.960977 
L 555.059943 169.191144 
L 555.376989 168.645525 
L 555.694034 169.440792 
L 556.01108 169.292029 
L 556.328125 168.702876 
L 556.962216 168.853649 
L 557.279261 169.485689 
L 557.596307 168.915131 
L 558.547443 169.125036 
L 558.864489 168.465254 
L 559.181534 168.948123 
L 559.815625 168.889659 
L 560.13267 168.868332 
L 560.449716 168.734287 
L 560.766761 168.942391 
L 562.034943 168.895866 
L 562.351989 169.193881 
L 562.669034 168.791528 
L 562.98608 169.060181 
L 563.303125 169.145252 
L 563.937216 168.805697 
L 564.571307 168.922657 
L 564.888352 168.682899 
L 565.205398 168.804906 
L 565.522443 169.354496 
L 565.839489 169.029645 
L 567.10767 168.789353 
L 567.424716 168.916208 
L 567.741761 169.274517 
L 568.058807 169.045197 
L 568.375852 169.201318 
L 568.692898 169.221087 
L 569.009943 169.55058 
L 569.96108 168.467127 
L 570.278125 169.537811 
L 570.59517 168.834971 
L 570.912216 168.537625 
L 571.229261 166.726399 
L 571.546307 169.596803 
L 572.497443 169.264414 
L 572.814489 167.824122 
L 573.131534 169.484878 
L 573.44858 169.065136 
L 573.765625 169.004806 
L 574.08267 167.528907 
L 574.399716 168.743992 
L 574.716761 169.179387 
L 575.033807 169.073314 
L 575.350852 168.723643 
L 575.667898 169.682532 
L 576.301989 169.775577 
L 576.93608 168.465843 
L 577.253125 169.074197 
L 577.57017 169.286885 
L 577.887216 168.815984 
L 578.204261 169.038755 
L 578.521307 169.41003 
L 578.838352 169.40841 
L 579.155398 169.525041 
L 579.472443 169.140879 
L 579.789489 169.385056 
L 580.106534 168.890757 
L 580.42358 169.403838 
L 580.740625 169.612176 
L 581.05767 169.424529 
L 581.374716 169.519933 
L 581.691761 169.84631 
L 582.008807 169.619469 
L 582.642898 169.4843 
L 582.959943 169.805336 
L 583.276989 169.43624 
L 583.594034 169.494662 
L 584.228125 169.83285 
L 584.54517 168.977793 
L 584.862216 169.595058 
L 585.179261 169.213901 
L 585.496307 169.725994 
L 585.813352 169.878611 
L 586.130398 169.728346 
L 586.447443 169.74232 
L 586.764489 169.199929 
L 587.081534 170.000342 
L 587.39858 169.602325 
L 587.715625 170.112417 
L 588.666761 169.348341 
L 588.983807 169.244459 
L 589.300852 169.507269 
L 589.617898 169.261613 
L 589.934943 169.254055 
L 590.251989 170.033429 
L 590.569034 169.347109 
L 591.203125 169.112098 
L 591.52017 169.598879 
L 591.837216 169.818128 
L 592.154261 169.405114 
L 592.471307 169.251895 
L 592.788352 168.824345 
L 593.422443 169.374799 
L 593.739489 169.13155 
L 594.056534 169.339092 
L 594.37358 168.981533 
L 594.690625 169.123091 
L 595.00767 168.786749 
L 595.324716 169.407278 
L 595.641761 169.174652 
L 595.958807 169.090171 
L 596.275852 169.17804 
L 596.592898 168.907481 
L 596.909943 168.789111 
L 597.226989 168.791602 
L 597.544034 169.034128 
L 598.178125 168.817673 
L 599.129261 169.230012 
L 599.446307 168.840982 
L 599.763352 168.670644 
L 600.080398 169.079504 
L 600.397443 168.939936 
L 600.714489 169.001279 
L 601.031534 168.47014 
L 601.34858 168.805435 
L 601.665625 168.649595 
L 601.98267 168.914814 
L 602.299716 168.82525 
L 602.616761 169.105887 
L 602.933807 169.10166 
L 603.250852 168.874755 
L 603.567898 169.014781 
L 603.884943 168.84784 
L 604.201989 168.833824 
L 604.519034 169.204892 
L 604.83608 168.733234 
L 605.153125 169.037191 
L 605.47017 168.837744 
L 606.421307 168.779012 
L 606.738352 169.213218 
L 607.055398 168.831534 
L 607.689489 168.817112 
L 608.006534 169.080779 
L 608.32358 168.457488 
L 608.640625 168.712813 
L 608.95767 168.574573 
L 609.274716 168.728717 
L 609.591761 168.496332 
L 609.908807 168.588965 
L 610.542898 169.049835 
L 611.494034 168.578193 
L 611.81108 168.994604 
L 612.44517 168.99297 
L 613.396307 168.90913 
L 613.713352 168.625723 
L 614.030398 168.640273 
L 614.664489 169.031201 
L 615.29858 169.266782 
L 615.93267 168.933292 
L 616.883807 169.285956 
L 617.200852 168.864496 
L 617.517898 168.777383 
L 617.834943 168.432997 
L 618.469034 168.544313 
L 618.78608 168.946638 
L 619.103125 168.73146 
L 619.42017 168.90651 
L 619.737216 168.92296 
L 620.054261 168.704791 
L 620.371307 168.979392 
L 620.688352 168.624496 
L 621.005398 169.587425 
L 621.639489 169.209442 
L 621.956534 169.110096 
L 622.27358 169.359498 
L 622.590625 169.459664 
L 622.90767 168.77345 
L 623.224716 169.439148 
L 623.541761 169.208993 
L 623.858807 169.395001 
L 624.175852 169.135009 
L 624.492898 169.476452 
L 625.126989 169.246126 
L 625.126989 169.246126 
" clip-path="url(#p94a8ff22b7)" style="fill: none; stroke: #1f77b4; stroke-width: 1.5; stroke-linecap: square"/>
   </g>
   <g id="line2d_16">
    <path d="M 117.854261 296.03625 
L 118.488352 219.200503 
L 119.122443 238.645685 
L 119.439489 213.261152 
L 119.756534 212.54875 
L 120.07358 215.076811 
L 120.390625 205.598168 
L 120.70767 212.181319 
L 121.024716 226.669107 
L 121.658807 196.212776 
L 121.975852 194.413947 
L 122.292898 194.780619 
L 122.609943 201.832737 
L 122.926989 195.235904 
L 123.244034 196.378027 
L 123.56108 194.532246 
L 123.878125 194.186848 
L 124.19517 195.502642 
L 124.512216 184.213625 
L 124.829261 181.165058 
L 125.463352 182.194952 
L 125.780398 186.091654 
L 126.097443 177.656689 
L 126.414489 180.557306 
L 126.731534 182.010728 
L 127.04858 182.333157 
L 127.365625 181.694365 
L 127.68267 181.32096 
L 127.999716 182.390077 
L 128.316761 183.960668 
L 128.633807 184.431872 
L 128.950852 183.194059 
L 129.267898 180.438406 
L 129.584943 181.145129 
L 129.901989 183.060858 
L 130.219034 181.048282 
L 130.53608 180.679822 
L 130.853125 178.011528 
L 131.487216 178.090941 
L 131.804261 178.969227 
L 132.121307 181.172561 
L 132.438352 178.870422 
L 132.755398 177.393865 
L 133.072443 177.781811 
L 133.389489 178.351291 
L 133.706534 176.208669 
L 134.02358 177.343197 
L 134.340625 177.985098 
L 134.65767 180.055569 
L 134.974716 176.730227 
L 135.291761 176.248777 
L 135.608807 179.231779 
L 135.925852 177.708572 
L 136.242898 177.030424 
L 136.559943 176.664959 
L 136.876989 177.691265 
L 137.194034 176.119124 
L 137.51108 176.160455 
L 137.828125 176.32796 
L 138.14517 176.294541 
L 138.462216 177.635459 
L 139.413352 174.709478 
L 139.730398 176.153952 
L 140.364489 173.767497 
L 140.99858 176.586489 
L 141.315625 176.4194 
L 141.63267 177.261133 
L 141.949716 174.063869 
L 142.266761 178.121447 
L 142.583807 174.604464 
L 143.217898 174.564015 
L 143.534943 174.107088 
L 143.851989 175.394572 
L 144.48608 173.690661 
L 144.803125 174.735638 
L 145.12017 174.466004 
L 145.437216 173.763776 
L 145.754261 174.487707 
L 146.388352 173.128249 
L 146.705398 173.783378 
L 147.022443 172.877454 
L 147.339489 174.449639 
L 147.656534 174.136157 
L 147.97358 174.131147 
L 148.290625 174.543099 
L 148.60767 174.151772 
L 148.924716 171.716959 
L 149.558807 172.9355 
L 149.875852 173.551442 
L 150.192898 171.414805 
L 150.509943 172.531184 
L 151.144034 173.528479 
L 151.46108 174.667006 
L 151.778125 172.879212 
L 152.09517 174.079173 
L 152.412216 174.417489 
L 153.046307 173.861619 
L 153.363352 174.307226 
L 153.680398 172.468632 
L 153.997443 173.093585 
L 154.631534 171.328881 
L 154.94858 172.522737 
L 155.265625 173.248832 
L 155.58267 173.248455 
L 155.899716 172.722076 
L 156.216761 173.191447 
L 156.533807 171.575761 
L 156.850852 171.514487 
L 157.167898 172.497564 
L 157.484943 172.614868 
L 157.801989 172.527716 
L 158.119034 172.901462 
L 158.43608 171.798656 
L 158.753125 172.17445 
L 159.07017 171.36876 
L 159.387216 171.860114 
L 159.704261 172.065286 
L 160.021307 172.853624 
L 160.338352 172.279056 
L 160.655398 172.345809 
L 160.972443 171.40709 
L 161.606534 173.281889 
L 161.92358 171.6027 
L 162.240625 171.572991 
L 162.55767 172.788874 
L 162.874716 173.126234 
L 163.191761 172.833694 
L 163.508807 172.21413 
L 163.825852 173.023502 
L 164.142898 173.20008 
L 164.459943 172.111453 
L 164.776989 172.345466 
L 165.094034 173.241511 
L 165.41108 173.382747 
L 165.728125 171.305869 
L 166.04517 172.329936 
L 166.362216 172.906326 
L 166.679261 172.161376 
L 166.996307 172.618973 
L 167.313352 172.868546 
L 167.630398 172.178703 
L 167.947443 172.386805 
L 168.264489 171.756797 
L 168.581534 172.613199 
L 168.89858 172.735791 
L 169.215625 171.651542 
L 169.53267 171.944659 
L 169.849716 171.896408 
L 170.483807 172.423398 
L 170.800852 172.514977 
L 171.117898 172.841949 
L 171.434943 171.593369 
L 171.751989 172.130366 
L 172.069034 172.372364 
L 172.38608 172.074754 
L 172.703125 171.556562 
L 173.02017 172.602379 
L 173.337216 171.34686 
L 173.654261 171.920515 
L 173.971307 171.527562 
L 174.288352 173.732855 
L 174.605398 171.742232 
L 174.922443 172.010685 
L 175.239489 171.679803 
L 175.556534 172.867061 
L 175.87358 172.121979 
L 176.190625 172.252688 
L 176.824716 171.196761 
L 177.141761 171.68482 
L 177.458807 171.334027 
L 178.092898 171.732382 
L 178.409943 171.046097 
L 178.726989 171.840605 
L 179.044034 171.338442 
L 179.678125 171.274296 
L 179.99517 171.527496 
L 180.312216 171.463002 
L 180.946307 171.714048 
L 181.263352 171.527779 
L 181.580398 171.971782 
L 181.897443 171.808757 
L 182.214489 171.239484 
L 182.531534 171.712659 
L 182.84858 171.35515 
L 183.165625 171.253456 
L 183.48267 170.952888 
L 183.799716 171.26288 
L 184.116761 171.751968 
L 184.433807 171.851963 
L 185.067898 171.013635 
L 186.019034 171.590286 
L 186.33608 171.297249 
L 186.653125 171.551686 
L 187.287216 170.870277 
L 187.604261 170.951387 
L 187.921307 170.706756 
L 188.238352 172.011226 
L 188.555398 171.562232 
L 188.872443 171.393369 
L 189.189489 170.624929 
L 189.506534 170.80561 
L 189.82358 171.546023 
L 190.774716 170.643849 
L 191.091761 171.28086 
L 191.408807 170.960326 
L 191.725852 170.393007 
L 192.042898 171.235045 
L 192.676989 170.199702 
L 192.994034 170.694318 
L 193.31108 171.399415 
L 193.628125 171.077521 
L 193.94517 171.099076 
L 194.262216 170.871475 
L 194.579261 172.392286 
L 194.896307 172.26415 
L 195.213352 171.124406 
L 196.164489 171.044001 
L 196.481534 171.602959 
L 196.79858 171.166176 
L 197.43267 170.812143 
L 197.749716 171.302051 
L 198.066761 172.056204 
L 198.383807 171.356412 
L 198.700852 172.162386 
L 199.017898 170.870293 
L 199.334943 170.933369 
L 199.651989 171.41883 
L 200.28608 171.6746 
L 200.603125 171.327942 
L 200.92017 171.457798 
L 201.237216 171.376492 
L 202.505398 171.6086 
L 202.822443 172.038357 
L 203.139489 171.485702 
L 203.456534 171.201776 
L 203.77358 172.03931 
L 204.090625 171.951895 
L 204.40767 171.029977 
L 204.724716 171.470733 
L 205.041761 171.33633 
L 205.358807 171.788106 
L 205.675852 171.619493 
L 205.992898 171.687032 
L 206.309943 172.066726 
L 206.626989 171.215829 
L 206.944034 170.9907 
L 207.578125 171.888345 
L 207.89517 171.568269 
L 208.212216 171.90961 
L 208.529261 170.651171 
L 209.163352 171.7623 
L 209.797443 170.659659 
L 210.114489 171.288779 
L 210.431534 171.490592 
L 210.74858 172.222745 
L 211.065625 172.55833 
L 211.38267 171.034898 
L 211.699716 171.498769 
L 212.016761 171.647811 
L 212.650852 171.370715 
L 212.967898 170.858276 
L 214.87017 172.342796 
L 215.187216 171.67289 
L 215.504261 172.154893 
L 215.821307 171.257939 
L 216.138352 171.674141 
L 216.772443 171.049011 
L 217.089489 171.724085 
L 217.406534 172.095347 
L 218.040625 171.377652 
L 218.35767 171.62404 
L 218.674716 171.390359 
L 218.991761 171.60132 
L 219.308807 171.535308 
L 219.942898 171.832293 
L 220.259943 171.367157 
L 220.576989 171.617892 
L 220.894034 171.685619 
L 221.21108 171.618568 
L 221.84517 171.860995 
L 222.162216 172.237446 
L 222.479261 171.005607 
L 222.796307 171.553755 
L 223.113352 171.490333 
L 223.430398 171.592916 
L 224.064489 171.398825 
L 224.381534 171.605477 
L 225.015625 172.38631 
L 225.33267 171.526915 
L 225.649716 171.645364 
L 225.966761 171.371208 
L 226.283807 172.147328 
L 226.600852 171.753966 
L 226.917898 173.179875 
L 227.234943 171.668005 
L 227.551989 171.579546 
L 227.869034 172.096871 
L 228.18608 172.356091 
L 228.503125 172.089167 
L 228.82017 172.553571 
L 229.137216 171.812758 
L 229.454261 171.615187 
L 230.088352 171.69413 
L 230.405398 171.766294 
L 230.722443 172.234649 
L 231.356534 171.674879 
L 231.67358 171.832849 
L 231.990625 172.280615 
L 232.30767 171.622514 
L 232.624716 171.755409 
L 232.941761 172.137954 
L 233.258807 171.268446 
L 233.575852 172.07895 
L 233.892898 171.204316 
L 234.209943 172.061808 
L 234.526989 171.646001 
L 234.844034 171.927455 
L 235.16108 171.965757 
L 235.478125 171.666375 
L 235.79517 171.715999 
L 236.112216 172.314211 
L 236.429261 172.600415 
L 237.063352 172.093801 
L 237.380398 172.294227 
L 237.697443 171.622418 
L 238.331534 171.826495 
L 238.64858 171.737618 
L 238.965625 171.862572 
L 239.28267 171.810099 
L 239.599716 172.003163 
L 239.916761 171.442342 
L 240.233807 171.871399 
L 240.550852 172.112333 
L 240.867898 171.965151 
L 241.184943 171.593799 
L 241.501989 172.424699 
L 241.819034 172.280127 
L 242.13608 171.782763 
L 242.77017 172.362792 
L 243.404261 172.20061 
L 243.721307 172.371535 
L 244.038352 171.999299 
L 244.672443 171.610287 
L 244.989489 171.773116 
L 245.306534 171.682329 
L 245.62358 171.967082 
L 245.940625 171.559341 
L 246.25767 171.909636 
L 246.891761 172.294224 
L 247.208807 171.932208 
L 247.525852 172.584878 
L 247.842898 172.074051 
L 248.159943 171.992196 
L 248.476989 172.04918 
L 248.794034 172.439833 
L 249.74517 171.978719 
L 250.062216 172.222894 
L 250.379261 171.692602 
L 250.696307 172.103561 
L 251.330398 171.90705 
L 251.647443 172.379678 
L 251.964489 171.602559 
L 252.281534 172.046383 
L 252.59858 171.783138 
L 253.23267 172.085609 
L 253.549716 171.771962 
L 253.866761 172.218407 
L 254.500852 172.278004 
L 254.817898 172.469344 
L 255.134943 172.082219 
L 255.451989 172.14542 
L 255.769034 172.415526 
L 256.08608 172.448525 
L 256.403125 171.769688 
L 256.72017 172.670857 
L 257.037216 172.261742 
L 257.354261 172.179617 
L 257.671307 172.75954 
L 257.988352 172.558029 
L 258.305398 171.989123 
L 258.939489 172.108654 
L 259.256534 171.709229 
L 259.57358 172.924987 
L 259.890625 172.155324 
L 260.20767 172.460446 
L 260.524716 172.32577 
L 260.841761 172.626836 
L 261.158807 171.57441 
L 261.475852 172.098787 
L 261.792898 172.167263 
L 262.109943 171.574182 
L 262.744034 171.795719 
L 263.378125 171.727319 
L 263.69517 171.728792 
L 264.012216 172.057989 
L 264.329261 172.197913 
L 264.646307 171.68826 
L 264.963352 172.546455 
L 265.280398 171.75321 
L 265.597443 171.527242 
L 265.914489 171.579348 
L 266.231534 171.491789 
L 266.54858 171.614068 
L 266.865625 171.273213 
L 267.18267 171.721788 
L 268.133807 171.597293 
L 268.450852 171.221748 
L 268.767898 171.946635 
L 269.084943 171.54936 
L 269.401989 171.918295 
L 270.03608 171.369587 
L 270.353125 172.016757 
L 270.987216 171.647025 
L 271.304261 171.942592 
L 271.621307 171.796667 
L 271.938352 171.462699 
L 272.255398 171.850835 
L 272.572443 171.619728 
L 272.889489 171.633126 
L 273.206534 171.98708 
L 273.52358 171.713236 
L 273.840625 172.227735 
L 274.15767 171.661024 
L 274.474716 171.646745 
L 275.108807 172.171069 
L 275.742898 171.032468 
L 276.059943 171.890426 
L 276.376989 171.742362 
L 276.694034 171.418415 
L 277.01108 172.147392 
L 277.328125 171.921093 
L 277.64517 171.482523 
L 278.279261 172.073854 
L 278.596307 171.643588 
L 279.547443 171.546255 
L 279.864489 171.764198 
L 280.49858 171.069354 
L 280.815625 171.377002 
L 281.13267 172.050453 
L 281.449716 171.849916 
L 281.766761 171.860143 
L 282.083807 171.732915 
L 282.400852 171.303851 
L 283.034943 171.520633 
L 283.351989 171.730886 
L 283.669034 171.33955 
L 283.98608 171.775897 
L 284.303125 171.614878 
L 284.62017 172.277533 
L 284.937216 171.669711 
L 285.254261 172.172951 
L 285.571307 171.577625 
L 286.205398 171.483749 
L 286.522443 171.242414 
L 286.839489 171.979101 
L 287.156534 171.568908 
L 287.47358 171.468434 
L 287.790625 171.70582 
L 288.424716 171.783909 
L 288.741761 171.418185 
L 289.692898 171.594637 
L 290.009943 171.242859 
L 290.326989 171.826873 
L 290.644034 171.309659 
L 291.912216 171.853016 
L 292.863352 171.472713 
L 293.180398 171.307203 
L 293.497443 171.710485 
L 293.814489 171.574469 
L 294.131534 171.971282 
L 294.44858 171.285448 
L 294.765625 171.703686 
L 295.08267 171.380695 
L 295.399716 171.65969 
L 295.716761 171.250398 
L 296.033807 171.299857 
L 296.350852 171.575726 
L 296.667898 171.207537 
L 296.984943 171.86768 
L 297.301989 171.19964 
L 297.619034 171.064495 
L 297.93608 171.7875 
L 298.253125 171.064782 
L 298.57017 171.187348 
L 298.887216 171.604023 
L 299.521307 171.888027 
L 299.838352 171.30301 
L 300.155398 171.529095 
L 300.472443 171.497257 
L 300.789489 171.123619 
L 301.106534 171.158037 
L 301.42358 171.644663 
L 301.740625 171.830987 
L 302.05767 171.507214 
L 302.374716 171.34703 
L 302.691761 171.353478 
L 303.008807 171.722931 
L 303.325852 171.612591 
L 303.642898 171.653517 
L 304.276989 171.530283 
L 304.594034 171.6877 
L 304.91108 171.372083 
L 305.228125 171.415048 
L 305.54517 171.635205 
L 305.862216 171.574652 
L 306.179261 171.128399 
L 306.496307 171.523431 
L 306.813352 171.600522 
L 307.447443 171.312941 
L 307.764489 171.421824 
L 309.03267 171.458953 
L 309.349716 171.765277 
L 309.983807 171.500581 
L 310.934943 171.648895 
L 311.251989 171.615499 
L 311.569034 171.336644 
L 311.88608 171.447294 
L 312.203125 171.880552 
L 312.52017 171.525351 
L 312.837216 171.413842 
L 313.154261 171.716409 
L 313.471307 171.406692 
L 313.788352 171.650598 
L 315.056534 171.87875 
L 315.37358 171.544947 
L 315.690625 171.690293 
L 316.324716 171.612162 
L 316.641761 172.042311 
L 316.958807 171.602169 
L 317.275852 171.76101 
L 317.592898 171.60049 
L 317.909943 171.575155 
L 318.226989 171.782807 
L 318.544034 171.303394 
L 319.178125 172.22686 
L 319.49517 171.385557 
L 319.812216 171.749951 
L 320.129261 171.570733 
L 320.446307 171.623055 
L 320.763352 171.915835 
L 321.080398 171.576743 
L 321.397443 171.468432 
L 321.714489 171.920446 
L 322.031534 171.957665 
L 322.34858 171.390786 
L 322.665625 171.646143 
L 322.98267 171.629102 
L 323.616761 171.816926 
L 323.933807 171.68513 
L 324.250852 171.806109 
L 324.567898 172.046569 
L 324.884943 171.297708 
L 325.519034 171.772949 
L 325.83608 171.6523 
L 326.153125 171.374826 
L 326.787216 171.427694 
L 327.104261 172.009548 
L 327.421307 171.364036 
L 328.055398 171.599214 
L 328.372443 171.182616 
L 328.689489 171.62443 
L 329.32358 171.831593 
L 329.640625 171.542116 
L 329.95767 171.764636 
L 330.274716 171.463287 
L 330.591761 171.438166 
L 330.908807 172.100975 
L 331.225852 171.765845 
L 331.542898 171.61204 
L 332.81108 172.221847 
L 333.44517 171.520257 
L 333.762216 171.400278 
L 334.079261 171.564072 
L 334.396307 171.512417 
L 335.030398 171.61739 
L 335.347443 171.554389 
L 335.664489 171.908901 
L 335.981534 171.477327 
L 336.29858 172.091608 
L 336.615625 171.467854 
L 337.566761 171.666127 
L 337.883807 172.186488 
L 338.200852 171.742804 
L 339.151989 171.590847 
L 339.469034 171.158404 
L 339.78608 171.528959 
L 341.054261 171.420891 
L 341.371307 171.722485 
L 341.688352 171.863264 
L 342.005398 171.796162 
L 342.322443 171.490731 
L 342.639489 171.445488 
L 342.956534 171.680148 
L 343.27358 171.6821 
L 343.590625 171.293901 
L 343.90767 171.103215 
L 344.224716 171.539433 
L 344.858807 171.441867 
L 345.809943 171.648299 
L 346.126989 171.515511 
L 346.444034 171.614487 
L 347.39517 171.289406 
L 347.712216 171.409006 
L 348.029261 171.19151 
L 348.346307 171.651945 
L 348.663352 170.761083 
L 348.980398 170.987507 
L 349.297443 170.596013 
L 349.614489 170.737447 
L 349.931534 170.661208 
L 350.24858 170.928541 
L 350.88267 171.102284 
L 351.199716 171.42396 
L 351.516761 170.886879 
L 351.833807 171.345256 
L 352.150852 171.01546 
L 352.467898 171.26267 
L 353.419034 170.808042 
L 353.73608 171.328662 
L 354.053125 170.938545 
L 354.37017 170.867777 
L 355.321307 171.29173 
L 355.638352 170.840532 
L 355.955398 171.08189 
L 356.272443 171.124606 
L 356.589489 171.29218 
L 356.906534 171.137038 
L 357.22358 171.198372 
L 357.540625 171.599172 
L 357.85767 171.300605 
L 358.174716 171.175879 
L 358.491761 171.381855 
L 358.808807 171.287735 
L 359.125852 171.65396 
L 359.442898 171.319707 
L 359.759943 171.636511 
L 360.076989 171.403219 
L 360.394034 171.330179 
L 360.71108 170.920461 
L 361.028125 171.171368 
L 361.34517 171.198484 
L 361.662216 170.872133 
L 361.979261 171.144007 
L 362.930398 171.376753 
L 363.247443 171.557049 
L 363.564489 171.08047 
L 363.881534 171.45491 
L 364.19858 171.121281 
L 364.515625 171.235663 
L 364.83267 171.595601 
L 365.149716 171.396206 
L 366.100852 171.330871 
L 366.417898 170.934157 
L 366.734943 170.870753 
L 367.051989 171.170502 
L 367.369034 170.882795 
L 367.68608 171.036573 
L 368.003125 171.026358 
L 368.637216 171.299812 
L 368.954261 170.904056 
L 369.271307 171.293444 
L 369.588352 171.157349 
L 370.222443 171.257007 
L 370.856534 171.341784 
L 371.17358 171.881538 
L 371.490625 171.190762 
L 371.80767 170.920531 
L 372.124716 171.002608 
L 372.441761 170.940161 
L 372.758807 171.236111 
L 373.075852 170.691898 
L 373.392898 170.6631 
L 373.709943 171.289256 
L 374.026989 170.834097 
L 374.344034 171.337713 
L 374.66108 170.954675 
L 374.978125 170.995028 
L 375.612216 170.695438 
L 375.929261 170.874813 
L 376.563352 171.045581 
L 376.880398 171.791283 
L 377.514489 170.743319 
L 377.831534 170.589246 
L 378.465625 171.082335 
L 378.78267 170.878595 
L 379.099716 171.202007 
L 379.416761 170.834619 
L 379.733807 170.857913 
L 380.367898 171.258332 
L 380.684943 170.645336 
L 381.001989 170.801055 
L 381.319034 171.163091 
L 381.953125 171.148606 
L 382.27017 171.214201 
L 382.587216 171.105061 
L 382.904261 170.849566 
L 383.221307 170.933592 
L 383.538352 171.135447 
L 384.172443 171.022335 
L 384.489489 171.532721 
L 385.12358 171.081306 
L 385.440625 171.417653 
L 385.75767 170.865572 
L 386.074716 171.186786 
L 386.391761 171.2233 
L 386.708807 171.100225 
L 387.976989 171.417797 
L 388.294034 171.003962 
L 388.61108 170.873678 
L 388.928125 171.19923 
L 389.24517 170.9147 
L 389.562216 171.176549 
L 389.879261 170.720087 
L 390.196307 171.221837 
L 390.513352 170.825395 
L 391.147443 170.903701 
L 391.464489 170.894215 
L 391.781534 171.263465 
L 392.09858 170.896899 
L 392.415625 171.064158 
L 392.73267 170.930889 
L 393.366761 170.953442 
L 393.683807 170.660597 
L 394.000852 170.829386 
L 394.317898 171.134191 
L 394.634943 171.278856 
L 394.951989 171.285917 
L 395.58608 171.133321 
L 395.903125 171.228559 
L 396.22017 171.011475 
L 396.537216 171.071401 
L 396.854261 170.969186 
L 397.171307 171.117366 
L 397.488352 170.902941 
L 397.805398 171.340473 
L 398.122443 171.330764 
L 398.439489 171.442246 
L 398.756534 171.170754 
L 399.70767 171.073413 
L 400.024716 171.224513 
L 400.658807 171.200761 
L 400.975852 170.932061 
L 401.292898 170.85153 
L 401.609943 171.272058 
L 401.926989 170.919905 
L 402.56108 171.328001 
L 402.878125 170.945018 
L 403.19517 170.93693 
L 403.512216 171.191192 
L 403.829261 171.629335 
L 404.463352 171.045536 
L 404.780398 171.168376 
L 405.097443 171.41437 
L 405.414489 171.020584 
L 405.731534 171.11746 
L 406.04858 171.086986 
L 406.365625 171.190889 
L 406.999716 171.170039 
L 407.316761 171.433766 
L 407.633807 171.231394 
L 407.950852 171.416421 
L 409.53608 171.1695 
L 409.853125 171.255996 
L 410.17017 171.201189 
L 410.804261 170.894037 
L 412.072443 171.19389 
L 412.706534 170.958544 
L 413.340625 171.520634 
L 413.65767 171.119372 
L 413.974716 171.018045 
L 414.291761 171.67436 
L 414.608807 171.09071 
L 414.925852 171.354111 
L 415.559943 170.839483 
L 415.876989 170.719592 
L 416.194034 170.840227 
L 416.51108 170.708209 
L 416.828125 170.893917 
L 417.14517 171.223553 
L 417.462216 170.712814 
L 417.779261 170.735789 
L 418.096307 170.56253 
L 418.413352 170.978219 
L 418.730398 170.867546 
L 419.364489 171.072234 
L 419.681534 170.655839 
L 419.99858 170.698314 
L 420.315625 171.11127 
L 420.63267 170.684368 
L 421.583807 171.266159 
L 421.900852 171.20957 
L 422.217898 170.876477 
L 422.534943 171.059444 
L 423.169034 170.926751 
L 423.48608 170.696355 
L 423.803125 170.808768 
L 424.12017 171.218476 
L 425.388352 170.606371 
L 425.705398 170.938834 
L 426.022443 170.807869 
L 426.339489 170.850105 
L 426.656534 170.759542 
L 426.97358 170.856284 
L 427.290625 171.272716 
L 427.60767 170.761774 
L 427.924716 170.881607 
L 428.558807 170.761931 
L 428.875852 170.918663 
L 429.192898 170.768164 
L 429.509943 171.215186 
L 429.826989 171.017064 
L 430.144034 171.250301 
L 430.46108 170.951181 
L 431.412216 170.750064 
L 431.729261 170.934623 
L 432.046307 170.891714 
L 432.363352 171.047805 
L 432.680398 170.738098 
L 433.314489 170.735819 
L 433.631534 171.010138 
L 433.94858 170.904273 
L 434.265625 170.954422 
L 434.899716 171.288385 
L 435.533807 170.87931 
L 435.850852 170.684863 
L 436.167898 170.925244 
L 436.484943 170.765478 
L 437.119034 171.199506 
L 437.43608 171.148805 
L 437.753125 171.398969 
L 438.07017 170.721241 
L 438.387216 170.982733 
L 439.021307 171.023371 
L 439.338352 170.609744 
L 439.655398 171.056523 
L 440.606534 170.571225 
L 440.92358 170.84737 
L 441.240625 170.748957 
L 441.55767 170.807698 
L 442.508807 170.51698 
L 442.825852 170.745012 
L 443.142898 170.786442 
L 443.459943 171.193776 
L 443.776989 170.903311 
L 444.094034 171.058865 
L 444.41108 170.887706 
L 444.728125 170.952627 
L 445.04517 170.813599 
L 445.362216 171.215764 
L 445.679261 170.740278 
L 445.996307 170.613744 
L 446.630398 170.579924 
L 447.264489 171.092789 
L 447.89858 170.837638 
L 448.215625 170.913837 
L 448.53267 170.727723 
L 448.849716 170.969048 
L 449.166761 170.825615 
L 449.483807 170.889193 
L 449.800852 171.108736 
L 450.117898 171.187159 
L 450.434943 171.147762 
L 450.751989 170.533143 
L 452.02017 170.847003 
L 452.337216 170.707416 
L 452.654261 170.726416 
L 452.971307 171.098922 
L 453.288352 171.160734 
L 453.605398 170.559771 
L 453.922443 170.413832 
L 454.87358 170.938173 
L 455.190625 170.55412 
L 455.50767 170.483856 
L 455.824716 171.003681 
L 456.141761 170.953024 
L 456.458807 171.316819 
L 457.092898 170.613016 
L 457.409943 170.786452 
L 457.726989 170.736078 
L 458.044034 170.961564 
L 458.678125 170.948136 
L 458.99517 171.101096 
L 459.312216 170.735404 
L 459.946307 171.117438 
L 460.263352 170.693311 
L 460.897443 170.916796 
L 461.214489 171.203961 
L 461.84858 170.745573 
L 462.165625 171.040061 
L 462.48267 170.812139 
L 463.433807 170.704211 
L 463.750852 170.67869 
L 464.067898 170.895043 
L 464.384943 170.381518 
L 464.701989 170.93827 
L 465.019034 170.96271 
L 465.33608 170.534306 
L 465.653125 171.048113 
L 465.97017 170.651114 
L 466.287216 170.622422 
L 466.604261 170.950698 
L 466.921307 170.874743 
L 467.238352 170.64102 
L 467.555398 170.906864 
L 467.872443 170.691515 
L 468.189489 171.212719 
L 468.506534 170.834661 
L 468.82358 170.639146 
L 469.140625 170.850851 
L 469.45767 170.860258 
L 469.774716 170.667375 
L 470.091761 170.835431 
L 470.408807 170.626871 
L 470.725852 170.834009 
L 471.042898 170.866606 
L 471.359943 170.72198 
L 471.676989 170.720277 
L 471.994034 170.933455 
L 472.31108 170.451516 
L 472.628125 170.419604 
L 472.94517 170.998416 
L 473.262216 170.579085 
L 473.579261 170.74032 
L 473.896307 170.768913 
L 474.213352 170.429201 
L 474.530398 170.489571 
L 474.847443 170.718454 
L 475.164489 170.603393 
L 475.481534 170.850211 
L 475.79858 170.559679 
L 476.115625 170.813131 
L 476.43267 170.52679 
L 476.749716 170.63431 
L 477.066761 170.491912 
L 477.383807 170.648642 
L 477.700852 170.571859 
L 478.017898 170.871463 
L 478.334943 170.58753 
L 478.651989 170.512779 
L 480.554261 171.03303 
L 481.188352 170.528718 
L 481.822443 170.9274 
L 482.139489 170.733948 
L 482.456534 171.0728 
L 482.77358 170.763549 
L 483.40767 171.122912 
L 483.724716 170.841414 
L 484.041761 170.798636 
L 484.358807 170.576703 
L 484.992898 170.830291 
L 485.309943 170.589583 
L 485.626989 170.916207 
L 485.944034 170.759809 
L 486.26108 170.774932 
L 486.89517 170.359896 
L 487.529261 170.635367 
L 487.846307 171.070245 
L 488.163352 170.657707 
L 488.480398 170.550851 
L 488.797443 170.598932 
L 489.114489 170.787151 
L 489.431534 170.681688 
L 489.74858 170.387036 
L 490.065625 170.416115 
L 490.38267 170.878409 
L 490.699716 170.630899 
L 491.016761 171.071578 
L 491.333807 171.1535 
L 491.650852 170.549599 
L 491.967898 170.759775 
L 492.284943 170.538498 
L 493.23608 171.055881 
L 493.87017 170.888099 
L 494.504261 170.692511 
L 494.821307 170.725042 
L 495.138352 170.613034 
L 495.455398 170.834623 
L 496.089489 170.953865 
L 496.406534 170.604125 
L 496.72358 170.559315 
L 497.040625 170.734298 
L 497.35767 170.765653 
L 497.674716 170.934995 
L 498.308807 170.626062 
L 498.625852 170.990162 
L 499.259943 170.651681 
L 499.576989 171.145624 
L 499.894034 170.578558 
L 500.21108 170.839456 
L 500.528125 170.875805 
L 501.162216 170.471814 
L 501.479261 170.424695 
L 502.113352 170.631749 
L 502.747443 170.888186 
L 503.064489 170.744507 
L 503.69858 170.786117 
L 504.015625 170.631302 
L 504.649716 170.687728 
L 504.966761 170.972742 
L 505.283807 170.537612 
L 505.600852 170.880383 
L 506.234943 170.603943 
L 506.551989 170.819605 
L 506.869034 170.509849 
L 507.18608 170.950334 
L 507.503125 170.833115 
L 507.82017 170.558232 
L 508.454261 170.741402 
L 508.771307 170.699919 
L 509.088352 170.872233 
L 509.405398 170.279612 
L 509.722443 170.798662 
L 510.039489 170.818435 
L 510.356534 170.694929 
L 510.67358 171.134182 
L 510.990625 170.863706 
L 511.30767 170.837301 
L 511.624716 170.665313 
L 511.941761 170.786664 
L 512.258807 170.581829 
L 512.892898 170.941334 
L 513.209943 170.674548 
L 513.526989 170.602221 
L 513.844034 170.745723 
L 514.16108 170.63707 
L 514.478125 170.978944 
L 514.79517 170.78368 
L 515.112216 170.822146 
L 515.429261 171.200952 
L 515.746307 170.725629 
L 516.063352 170.707773 
L 516.697443 171.120343 
L 517.014489 170.820297 
L 517.331534 170.956407 
L 517.64858 170.59562 
L 517.965625 170.652294 
L 518.28267 170.541251 
L 518.599716 170.720733 
L 518.916761 170.676061 
L 519.233807 170.424413 
L 519.550852 170.53423 
L 519.867898 170.507187 
L 520.184943 170.281122 
L 520.501989 170.582402 
L 521.453125 170.507017 
L 521.77017 170.402274 
L 522.087216 170.630037 
L 522.404261 170.651028 
L 522.721307 170.490456 
L 523.355398 170.799205 
L 523.672443 170.571074 
L 523.989489 170.634182 
L 524.62358 170.336733 
L 524.940625 170.560438 
L 525.25767 170.590834 
L 525.574716 171.054906 
L 526.208807 170.561266 
L 527.794034 170.682939 
L 528.11108 170.770461 
L 528.428125 170.514827 
L 528.74517 170.701922 
L 529.379261 170.445859 
L 529.696307 170.499178 
L 530.013352 170.245035 
L 530.330398 170.655261 
L 530.647443 170.786104 
L 530.964489 170.671702 
L 531.281534 170.437481 
L 531.59858 170.740617 
L 531.915625 170.807076 
L 532.23267 170.69044 
L 532.549716 170.804829 
L 532.866761 170.645536 
L 533.183807 170.328209 
L 533.500852 170.545485 
L 533.817898 170.484062 
L 534.134943 170.681486 
L 535.08608 170.603993 
L 535.403125 170.859693 
L 535.72017 170.390122 
L 536.354261 170.705633 
L 536.671307 170.632732 
L 536.988352 170.894376 
L 537.305398 170.517912 
L 537.939489 170.691512 
L 538.256534 170.43232 
L 538.57358 170.560201 
L 538.890625 170.325376 
L 539.20767 170.6138 
L 539.524716 170.508865 
L 539.841761 170.979107 
L 540.158807 170.974679 
L 540.475852 170.375334 
L 540.792898 170.711939 
L 541.426989 170.638454 
L 541.744034 170.677264 
L 542.06108 170.510359 
L 542.69517 170.642513 
L 543.012216 171.146759 
L 543.329261 170.48617 
L 544.280398 170.793886 
L 544.597443 170.961593 
L 544.914489 170.927388 
L 545.231534 170.488995 
L 545.54858 171.086491 
L 545.865625 170.69472 
L 546.18267 170.567617 
L 546.499716 170.963608 
L 546.816761 170.539445 
L 547.133807 170.684739 
L 547.450852 170.423255 
L 547.767898 170.857426 
L 548.084943 170.542898 
L 548.401989 170.50515 
L 548.719034 170.243769 
L 549.03608 170.74702 
L 549.353125 170.774729 
L 549.67017 170.924798 
L 549.987216 170.596336 
L 550.304261 170.963638 
L 550.621307 170.497692 
L 550.938352 170.360859 
L 551.255398 170.616801 
L 551.572443 170.47359 
L 551.889489 170.664628 
L 552.206534 170.61835 
L 552.52358 170.895543 
L 552.840625 170.631459 
L 553.15767 170.834951 
L 553.474716 170.821059 
L 553.791761 170.511219 
L 554.108807 171.085793 
L 554.425852 170.618325 
L 554.742898 170.748792 
L 555.376989 170.517406 
L 555.694034 170.644483 
L 556.01108 170.505008 
L 556.962216 170.728019 
L 557.279261 171.000412 
L 557.596307 170.803728 
L 558.230398 170.805451 
L 558.547443 170.80358 
L 558.864489 171.009155 
L 559.181534 170.642632 
L 559.49858 170.504354 
L 560.449716 171.033433 
L 560.766761 170.888476 
L 561.083807 170.545554 
L 561.400852 170.52884 
L 561.717898 170.705485 
L 562.034943 170.521681 
L 562.351989 170.98988 
L 562.669034 170.917422 
L 562.98608 171.186403 
L 563.303125 170.696213 
L 563.937216 170.800665 
L 564.254261 170.7198 
L 564.571307 171.064536 
L 564.888352 170.557683 
L 565.522443 170.662075 
L 565.839489 170.922326 
L 566.156534 170.839294 
L 566.47358 170.48447 
L 566.790625 170.989119 
L 567.10767 170.767451 
L 567.424716 170.684102 
L 567.741761 170.766274 
L 568.058807 171.156028 
L 568.375852 170.50815 
L 568.692898 170.498005 
L 569.009943 170.718828 
L 569.326989 170.310759 
L 569.644034 170.5364 
L 569.96108 169.379687 
L 570.278125 170.221347 
L 570.59517 170.488203 
L 571.229261 169.40758 
L 571.546307 169.457488 
L 571.863352 169.909514 
L 572.497443 170.220064 
L 572.814489 169.559103 
L 573.131534 169.81567 
L 573.44858 170.503716 
L 573.765625 170.543719 
L 574.08267 170.429359 
L 574.399716 169.9001 
L 574.716761 170.186184 
L 575.033807 170.103023 
L 575.350852 170.140931 
L 575.667898 169.75304 
L 576.301989 170.209605 
L 576.93608 169.897364 
L 577.253125 170.003408 
L 577.57017 169.786 
L 577.887216 170.235262 
L 578.521307 170.173283 
L 578.838352 169.856806 
L 579.155398 170.607807 
L 579.472443 170.295063 
L 579.789489 170.433463 
L 580.106534 170.028358 
L 580.42358 170.25451 
L 580.740625 169.803228 
L 581.05767 170.111661 
L 581.374716 170.090383 
L 581.691761 170.193615 
L 582.008807 170.04925 
L 582.325852 170.240987 
L 582.642898 170.019245 
L 582.959943 170.356316 
L 583.276989 169.932978 
L 583.594034 169.781861 
L 583.91108 170.119561 
L 584.228125 170.240678 
L 584.54517 169.796625 
L 584.862216 169.740291 
L 585.496307 169.868125 
L 585.813352 169.789548 
L 586.130398 170.306549 
L 586.764489 169.943338 
L 587.081534 169.964621 
L 587.39858 170.112339 
L 587.715625 169.890079 
L 588.666761 170.154252 
L 589.300852 169.830085 
L 589.934943 170.035574 
L 590.251989 169.96411 
L 590.569034 170.19651 
L 590.88608 170.124903 
L 591.203125 169.750201 
L 591.52017 170.142028 
L 591.837216 170.089279 
L 592.154261 170.169625 
L 592.471307 169.980181 
L 592.788352 170.072679 
L 593.105398 169.69679 
L 594.056534 170.067291 
L 594.37358 169.768436 
L 595.00767 170.329441 
L 595.324716 169.717476 
L 596.275852 170.37033 
L 596.909943 169.798504 
L 597.544034 169.892785 
L 597.86108 169.838695 
L 599.129261 170.142603 
L 599.446307 169.815969 
L 600.397443 170.255645 
L 600.714489 169.837573 
L 601.34858 170.514473 
L 601.665625 170.115136 
L 601.98267 170.179203 
L 602.933807 169.914225 
L 603.250852 170.14048 
L 603.567898 169.886364 
L 604.201989 170.130107 
L 604.519034 170.514416 
L 605.153125 170.139558 
L 605.47017 170.229449 
L 605.787216 170.066506 
L 606.421307 170.166213 
L 606.738352 169.769202 
L 607.689489 170.101046 
L 608.006534 170.553017 
L 608.32358 169.945876 
L 608.640625 170.468837 
L 608.95767 169.981586 
L 609.908807 170.300559 
L 610.225852 169.990864 
L 610.542898 170.087962 
L 610.859943 169.895133 
L 611.494034 170.269235 
L 611.81108 170.07151 
L 612.128125 170.142151 
L 612.762216 169.926903 
L 613.396307 170.201349 
L 614.030398 169.999603 
L 614.347443 170.569194 
L 614.664489 170.222117 
L 614.981534 170.172443 
L 615.29858 170.006709 
L 615.615625 170.544964 
L 615.93267 170.251139 
L 616.249716 170.214946 
L 616.566761 170.354834 
L 617.200852 170.13552 
L 617.517898 170.345892 
L 618.151989 170.285244 
L 618.469034 170.107642 
L 618.78608 170.313011 
L 619.103125 170.033929 
L 619.42017 170.206589 
L 620.054261 170.005461 
L 620.371307 170.317936 
L 620.688352 170.414495 
L 621.005398 170.223989 
L 621.956534 170.459556 
L 622.27358 170.165012 
L 622.590625 170.269226 
L 622.90767 170.568363 
L 623.224716 170.262678 
L 623.541761 170.177004 
L 623.858807 170.322934 
L 624.492898 170.022706 
L 625.126989 170.28113 
L 625.126989 170.28113 
" clip-path="url(#p94a8ff22b7)" style="fill: none; stroke: #ff7f0e; stroke-width: 1.5; stroke-linecap: square"/>
   </g>
   <g id="patch_3">
    <path d="M 92.490625 308.63625 
L 92.490625 31.43625 
" style="fill: none; stroke: #000000; stroke-width: 0.8; stroke-linejoin: miter; stroke-linecap: square"/>
   </g>
   <g id="patch_4">
    <path d="M 650.490625 308.63625 
L 650.490625 31.43625 
" style="fill: none; stroke: #000000; stroke-width: 0.8; stroke-linejoin: miter; stroke-linecap: square"/>
   </g>
   <g id="patch_5">
    <path d="M 92.490625 308.63625 
L 650.490625 308.63625 
" style="fill: none; stroke: #000000; stroke-width: 0.8; stroke-linejoin: miter; stroke-linecap: square"/>
   </g>
   <g id="patch_6">
    <path d="M 92.490625 31.43625 
L 650.490625 31.43625 
" style="fill: none; stroke: #000000; stroke-width: 0.8; stroke-linejoin: miter; stroke-linecap: square"/>
   </g>
   <g id="text_17">
    <!-- Generator and Discriminator Loss During Training -->
    <g transform="translate(74.258125 25.43625) scale(0.24 -0.24)">
     <defs>
      <path id="DejaVuSans-47" d="M 3809 666 
L 3809 1919 
L 2778 1919 
L 2778 2438 
L 4434 2438 
L 4434 434 
Q 4069 175 3628 42 
Q 3188 -91 2688 -91 
Q 1594 -91 976 548 
Q 359 1188 359 2328 
Q 359 3472 976 4111 
Q 1594 4750 2688 4750 
Q 3144 4750 3555 4637 
Q 3966 4525 4313 4306 
L 4313 3634 
Q 3963 3931 3569 4081 
Q 3175 4231 2741 4231 
Q 1884 4231 1454 3753 
Q 1025 3275 1025 2328 
Q 1025 1384 1454 906 
Q 1884 428 2741 428 
Q 3075 428 3337 486 
Q 3600 544 3809 666 
z
" transform="scale(0.015625)"/>
      <path id="DejaVuSans-20" transform="scale(0.015625)"/>
      <path id="DejaVuSans-64" d="M 2906 2969 
L 2906 4863 
L 3481 4863 
L 3481 0 
L 2906 0 
L 2906 525 
Q 2725 213 2448 61 
Q 2172 -91 1784 -91 
Q 1150 -91 751 415 
Q 353 922 353 1747 
Q 353 2572 751 3078 
Q 1150 3584 1784 3584 
Q 2172 3584 2448 3432 
Q 2725 3281 2906 2969 
z
M 947 1747 
Q 947 1113 1208 752 
Q 1469 391 1925 391 
Q 2381 391 2643 752 
Q 2906 1113 2906 1747 
Q 2906 2381 2643 2742 
Q 2381 3103 1925 3103 
Q 1469 3103 1208 2742 
Q 947 2381 947 1747 
z
" transform="scale(0.015625)"/>
      <path id="DejaVuSans-44" d="M 1259 4147 
L 1259 519 
L 2022 519 
Q 2988 519 3436 956 
Q 3884 1394 3884 2338 
Q 3884 3275 3436 3711 
Q 2988 4147 2022 4147 
L 1259 4147 
z
M 628 4666 
L 1925 4666 
Q 3281 4666 3915 4102 
Q 4550 3538 4550 2338 
Q 4550 1131 3912 565 
Q 3275 0 1925 0 
L 628 0 
L 628 4666 
z
" transform="scale(0.015625)"/>
      <path id="DejaVuSans-63" d="M 3122 3366 
L 3122 2828 
Q 2878 2963 2633 3030 
Q 2388 3097 2138 3097 
Q 1578 3097 1268 2742 
Q 959 2388 959 1747 
Q 959 1106 1268 751 
Q 1578 397 2138 397 
Q 2388 397 2633 464 
Q 2878 531 3122 666 
L 3122 134 
Q 2881 22 2623 -34 
Q 2366 -91 2075 -91 
Q 1284 -91 818 406 
Q 353 903 353 1747 
Q 353 2603 823 3093 
Q 1294 3584 2113 3584 
Q 2378 3584 2631 3529 
Q 2884 3475 3122 3366 
z
" transform="scale(0.015625)"/>
      <path id="DejaVuSans-6d" d="M 3328 2828 
Q 3544 3216 3844 3400 
Q 4144 3584 4550 3584 
Q 5097 3584 5394 3201 
Q 5691 2819 5691 2113 
L 5691 0 
L 5113 0 
L 5113 2094 
Q 5113 2597 4934 2840 
Q 4756 3084 4391 3084 
Q 3944 3084 3684 2787 
Q 3425 2491 3425 1978 
L 3425 0 
L 2847 0 
L 2847 2094 
Q 2847 2600 2669 2842 
Q 2491 3084 2119 3084 
Q 1678 3084 1418 2786 
Q 1159 2488 1159 1978 
L 1159 0 
L 581 0 
L 581 3500 
L 1159 3500 
L 1159 2956 
Q 1356 3278 1631 3431 
Q 1906 3584 2284 3584 
Q 2666 3584 2933 3390 
Q 3200 3197 3328 2828 
z
" transform="scale(0.015625)"/>
      <path id="DejaVuSans-75" d="M 544 1381 
L 544 3500 
L 1119 3500 
L 1119 1403 
Q 1119 906 1312 657 
Q 1506 409 1894 409 
Q 2359 409 2629 706 
Q 2900 1003 2900 1516 
L 2900 3500 
L 3475 3500 
L 3475 0 
L 2900 0 
L 2900 538 
Q 2691 219 2414 64 
Q 2138 -91 1772 -91 
Q 1169 -91 856 284 
Q 544 659 544 1381 
z
M 1991 3584 
L 1991 3584 
z
" transform="scale(0.015625)"/>
      <path id="DejaVuSans-67" d="M 2906 1791 
Q 2906 2416 2648 2759 
Q 2391 3103 1925 3103 
Q 1463 3103 1205 2759 
Q 947 2416 947 1791 
Q 947 1169 1205 825 
Q 1463 481 1925 481 
Q 2391 481 2648 825 
Q 2906 1169 2906 1791 
z
M 3481 434 
Q 3481 -459 3084 -895 
Q 2688 -1331 1869 -1331 
Q 1566 -1331 1297 -1286 
Q 1028 -1241 775 -1147 
L 775 -588 
Q 1028 -725 1275 -790 
Q 1522 -856 1778 -856 
Q 2344 -856 2625 -561 
Q 2906 -266 2906 331 
L 2906 616 
Q 2728 306 2450 153 
Q 2172 0 1784 0 
Q 1141 0 747 490 
Q 353 981 353 1791 
Q 353 2603 747 3093 
Q 1141 3584 1784 3584 
Q 2172 3584 2450 3431 
Q 2728 3278 2906 2969 
L 2906 3500 
L 3481 3500 
L 3481 434 
z
" transform="scale(0.015625)"/>
      <path id="DejaVuSans-54" d="M -19 4666 
L 3928 4666 
L 3928 4134 
L 2272 4134 
L 2272 0 
L 1638 0 
L 1638 4134 
L -19 4134 
L -19 4666 
z
" transform="scale(0.015625)"/>
     </defs>
     <use xlink:href="#DejaVuSans-47"/>
     <use xlink:href="#DejaVuSans-65" x="77.490234"/>
     <use xlink:href="#DejaVuSans-6e" x="139.013672"/>
     <use xlink:href="#DejaVuSans-65" x="202.392578"/>
     <use xlink:href="#DejaVuSans-72" x="263.916016"/>
     <use xlink:href="#DejaVuSans-61" x="305.029297"/>
     <use xlink:href="#DejaVuSans-74" x="366.308594"/>
     <use xlink:href="#DejaVuSans-6f" x="405.517578"/>
     <use xlink:href="#DejaVuSans-72" x="466.699219"/>
     <use xlink:href="#DejaVuSans-20" x="507.8125"/>
     <use xlink:href="#DejaVuSans-61" x="539.599609"/>
     <use xlink:href="#DejaVuSans-6e" x="600.878906"/>
     <use xlink:href="#DejaVuSans-64" x="664.257812"/>
     <use xlink:href="#DejaVuSans-20" x="727.734375"/>
     <use xlink:href="#DejaVuSans-44" x="759.521484"/>
     <use xlink:href="#DejaVuSans-69" x="836.523438"/>
     <use xlink:href="#DejaVuSans-73" x="864.306641"/>
     <use xlink:href="#DejaVuSans-63" x="916.40625"/>
     <use xlink:href="#DejaVuSans-72" x="971.386719"/>
     <use xlink:href="#DejaVuSans-69" x="1012.5"/>
     <use xlink:href="#DejaVuSans-6d" x="1040.283203"/>
     <use xlink:href="#DejaVuSans-69" x="1137.695312"/>
     <use xlink:href="#DejaVuSans-6e" x="1165.478516"/>
     <use xlink:href="#DejaVuSans-61" x="1228.857422"/>
     <use xlink:href="#DejaVuSans-74" x="1290.136719"/>
     <use xlink:href="#DejaVuSans-6f" x="1329.345703"/>
     <use xlink:href="#DejaVuSans-72" x="1390.527344"/>
     <use xlink:href="#DejaVuSans-20" x="1431.640625"/>
     <use xlink:href="#DejaVuSans-4c" x="1463.427734"/>
     <use xlink:href="#DejaVuSans-6f" x="1517.390625"/>
     <use xlink:href="#DejaVuSans-73" x="1578.572266"/>
     <use xlink:href="#DejaVuSans-73" x="1630.671875"/>
     <use xlink:href="#DejaVuSans-20" x="1682.771484"/>
     <use xlink:href="#DejaVuSans-44" x="1714.558594"/>
     <use xlink:href="#DejaVuSans-75" x="1791.560547"/>
     <use xlink:href="#DejaVuSans-72" x="1854.939453"/>
     <use xlink:href="#DejaVuSans-69" x="1896.052734"/>
     <use xlink:href="#DejaVuSans-6e" x="1923.835938"/>
     <use xlink:href="#DejaVuSans-67" x="1987.214844"/>
     <use xlink:href="#DejaVuSans-20" x="2050.691406"/>
     <use xlink:href="#DejaVuSans-54" x="2082.478516"/>
     <use xlink:href="#DejaVuSans-72" x="2128.8125"/>
     <use xlink:href="#DejaVuSans-61" x="2169.925781"/>
     <use xlink:href="#DejaVuSans-69" x="2231.205078"/>
     <use xlink:href="#DejaVuSans-6e" x="2258.988281"/>
     <use xlink:href="#DejaVuSans-69" x="2322.367188"/>
     <use xlink:href="#DejaVuSans-6e" x="2350.150391"/>
     <use xlink:href="#DejaVuSans-67" x="2413.529297"/>
    </g>
   </g>
   <g id="legend_1">
    <g id="patch_7">
     <path d="M 556.99375 106.14875 
L 636.490625 106.14875 
Q 640.490625 106.14875 640.490625 102.14875 
L 640.490625 45.43625 
Q 640.490625 41.43625 636.490625 41.43625 
L 556.99375 41.43625 
Q 552.99375 41.43625 552.99375 45.43625 
L 552.99375 102.14875 
Q 552.99375 106.14875 556.99375 106.14875 
z
" style="fill: #ffffff; opacity: 0.8; stroke: #cccccc; stroke-linejoin: miter"/>
    </g>
    <g id="line2d_17">
     <path d="M 560.99375 57.633125 
L 580.99375 57.633125 
L 600.99375 57.633125 
" style="fill: none; stroke: #1f77b4; stroke-width: 1.5; stroke-linecap: square"/>
    </g>
    <g id="text_18">
     <!-- G -->
     <g transform="translate(616.99375 64.633125) scale(0.2 -0.2)">
      <use xlink:href="#DejaVuSans-47"/>
     </g>
    </g>
    <g id="line2d_18">
     <path d="M 560.99375 86.989375 
L 580.99375 86.989375 
L 600.99375 86.989375 
" style="fill: none; stroke: #ff7f0e; stroke-width: 1.5; stroke-linecap: square"/>
    </g>
    <g id="text_19">
     <!-- D -->
     <g transform="translate(616.99375 93.989375) scale(0.2 -0.2)">
      <use xlink:href="#DejaVuSans-44"/>
     </g>
    </g>
   </g>
  </g>
 </g>
 <defs>
  <clipPath id="p94a8ff22b7">
   <rect x="92.490625" y="31.43625" width="558" height="277.2"/>
  </clipPath>
 </defs>
</svg>
