<?xml version="1.0" encoding="utf-8" standalone="no"?>
<!DOCTYPE svg PUBLIC "-//W3C//DTD SVG 1.1//EN"
  "http://www.w3.org/Graphics/SVG/1.1/DTD/svg11.dtd">
<svg xmlns:xlink="http://www.w3.org/1999/xlink" width="675.923125pt" height="365.54875pt" viewBox="0 0 675.923125 365.54875" xmlns="http://www.w3.org/2000/svg" version="1.1">
 <metadata>
  <rdf:RDF xmlns:dc="http://purl.org/dc/elements/1.1/" xmlns:cc="http://creativecommons.org/ns#" xmlns:rdf="http://www.w3.org/1999/02/22-rdf-syntax-ns#">
   <cc:Work>
    <dc:type rdf:resource="http://purl.org/dc/dcmitype/StillImage"/>
    <dc:date>2024-02-12T18:40:35.239835</dc:date>
    <dc:format>image/svg+xml</dc:format>
    <dc:creator>
     <cc:Agent>
      <dc:title>Matplotlib v3.7.2, https://matplotlib.org/</dc:title>
     </cc:Agent>
    </dc:creator>
   </cc:Work>
  </rdf:RDF>
 </metadata>
 <defs>
  <style type="text/css">*{stroke-linejoin: round; stroke-linecap: butt}</style>
 </defs>
 <g id="figure_1">
  <g id="patch_1">
   <path d="M 0 365.54875 
L 675.923125 365.54875 
L 675.923125 -0 
L 0 -0 
z
" style="fill: #ffffff"/>
  </g>
  <g id="axes_1">
   <g id="patch_2">
    <path d="M 92.490625 308.63625 
L 650.490625 308.63625 
L 650.490625 31.43625 
L 92.490625 31.43625 
z
" style="fill: #ffffff"/>
   </g>
   <g id="matplotlib.axis_1">
    <g id="xtick_1">
     <g id="line2d_1">
      <defs>
       <path id="m9ffca952cf" d="M 0 0 
L 0 3.5 
" style="stroke: #000000; stroke-width: 0.8"/>
      </defs>
      <g>
       <use xlink:href="#m9ffca952cf" x="117.854261" y="308.63625" style="stroke: #000000; stroke-width: 0.8"/>
      </g>
     </g>
     <g id="text_1">
      <!-- 0 -->
      <g transform="translate(111.491761 330.833125) scale(0.2 -0.2)">
       <defs>
        <path id="DejaVuSans-30" d="M 2034 4250 
Q 1547 4250 1301 3770 
Q 1056 3291 1056 2328 
Q 1056 1369 1301 889 
Q 1547 409 2034 409 
Q 2525 409 2770 889 
Q 3016 1369 3016 2328 
Q 3016 3291 2770 3770 
Q 2525 4250 2034 4250 
z
M 2034 4750 
Q 2819 4750 3233 4129 
Q 3647 3509 3647 2328 
Q 3647 1150 3233 529 
Q 2819 -91 2034 -91 
Q 1250 -91 836 529 
Q 422 1150 422 2328 
Q 422 3509 836 4129 
Q 1250 4750 2034 4750 
z
" transform="scale(0.015625)"/>
       </defs>
       <use xlink:href="#DejaVuSans-30"/>
      </g>
     </g>
    </g>
    <g id="xtick_2">
     <g id="line2d_2">
      <g>
       <use xlink:href="#m9ffca952cf" x="237.21255" y="308.63625" style="stroke: #000000; stroke-width: 0.8"/>
      </g>
     </g>
     <g id="text_2">
      <!-- 200 -->
      <g transform="translate(218.12505 330.833125) scale(0.2 -0.2)">
       <defs>
        <path id="DejaVuSans-32" d="M 1228 531 
L 3431 531 
L 3431 0 
L 469 0 
L 469 531 
Q 828 903 1448 1529 
Q 2069 2156 2228 2338 
Q 2531 2678 2651 2914 
Q 2772 3150 2772 3378 
Q 2772 3750 2511 3984 
Q 2250 4219 1831 4219 
Q 1534 4219 1204 4116 
Q 875 4013 500 3803 
L 500 4441 
Q 881 4594 1212 4672 
Q 1544 4750 1819 4750 
Q 2544 4750 2975 4387 
Q 3406 4025 3406 3419 
Q 3406 3131 3298 2873 
Q 3191 2616 2906 2266 
Q 2828 2175 2409 1742 
Q 1991 1309 1228 531 
z
" transform="scale(0.015625)"/>
       </defs>
       <use xlink:href="#DejaVuSans-32"/>
       <use xlink:href="#DejaVuSans-30" x="63.623047"/>
       <use xlink:href="#DejaVuSans-30" x="127.246094"/>
      </g>
     </g>
    </g>
    <g id="xtick_3">
     <g id="line2d_3">
      <g>
       <use xlink:href="#m9ffca952cf" x="356.570839" y="308.63625" style="stroke: #000000; stroke-width: 0.8"/>
      </g>
     </g>
     <g id="text_3">
      <!-- 400 -->
      <g transform="translate(337.483339 330.833125) scale(0.2 -0.2)">
       <defs>
        <path id="DejaVuSans-34" d="M 2419 4116 
L 825 1625 
L 2419 1625 
L 2419 4116 
z
M 2253 4666 
L 3047 4666 
L 3047 1625 
L 3713 1625 
L 3713 1100 
L 3047 1100 
L 3047 0 
L 2419 0 
L 2419 1100 
L 313 1100 
L 313 1709 
L 2253 4666 
z
" transform="scale(0.015625)"/>
       </defs>
       <use xlink:href="#DejaVuSans-34"/>
       <use xlink:href="#DejaVuSans-30" x="63.623047"/>
       <use xlink:href="#DejaVuSans-30" x="127.246094"/>
      </g>
     </g>
    </g>
    <g id="xtick_4">
     <g id="line2d_4">
      <g>
       <use xlink:href="#m9ffca952cf" x="475.929128" y="308.63625" style="stroke: #000000; stroke-width: 0.8"/>
      </g>
     </g>
     <g id="text_4">
      <!-- 600 -->
      <g transform="translate(456.841628 330.833125) scale(0.2 -0.2)">
       <defs>
        <path id="DejaVuSans-36" d="M 2113 2584 
Q 1688 2584 1439 2293 
Q 1191 2003 1191 1497 
Q 1191 994 1439 701 
Q 1688 409 2113 409 
Q 2538 409 2786 701 
Q 3034 994 3034 1497 
Q 3034 2003 2786 2293 
Q 2538 2584 2113 2584 
z
M 3366 4563 
L 3366 3988 
Q 3128 4100 2886 4159 
Q 2644 4219 2406 4219 
Q 1781 4219 1451 3797 
Q 1122 3375 1075 2522 
Q 1259 2794 1537 2939 
Q 1816 3084 2150 3084 
Q 2853 3084 3261 2657 
Q 3669 2231 3669 1497 
Q 3669 778 3244 343 
Q 2819 -91 2113 -91 
Q 1303 -91 875 529 
Q 447 1150 447 2328 
Q 447 3434 972 4092 
Q 1497 4750 2381 4750 
Q 2619 4750 2861 4703 
Q 3103 4656 3366 4563 
z
" transform="scale(0.015625)"/>
       </defs>
       <use xlink:href="#DejaVuSans-36"/>
       <use xlink:href="#DejaVuSans-30" x="63.623047"/>
       <use xlink:href="#DejaVuSans-30" x="127.246094"/>
      </g>
     </g>
    </g>
    <g id="xtick_5">
     <g id="line2d_5">
      <g>
       <use xlink:href="#m9ffca952cf" x="595.287416" y="308.63625" style="stroke: #000000; stroke-width: 0.8"/>
      </g>
     </g>
     <g id="text_5">
      <!-- 800 -->
      <g transform="translate(576.199916 330.833125) scale(0.2 -0.2)">
       <defs>
        <path id="DejaVuSans-38" d="M 2034 2216 
Q 1584 2216 1326 1975 
Q 1069 1734 1069 1313 
Q 1069 891 1326 650 
Q 1584 409 2034 409 
Q 2484 409 2743 651 
Q 3003 894 3003 1313 
Q 3003 1734 2745 1975 
Q 2488 2216 2034 2216 
z
M 1403 2484 
Q 997 2584 770 2862 
Q 544 3141 544 3541 
Q 544 4100 942 4425 
Q 1341 4750 2034 4750 
Q 2731 4750 3128 4425 
Q 3525 4100 3525 3541 
Q 3525 3141 3298 2862 
Q 3072 2584 2669 2484 
Q 3125 2378 3379 2068 
Q 3634 1759 3634 1313 
Q 3634 634 3220 271 
Q 2806 -91 2034 -91 
Q 1263 -91 848 271 
Q 434 634 434 1313 
Q 434 1759 690 2068 
Q 947 2378 1403 2484 
z
M 1172 3481 
Q 1172 3119 1398 2916 
Q 1625 2713 2034 2713 
Q 2441 2713 2670 2916 
Q 2900 3119 2900 3481 
Q 2900 3844 2670 4047 
Q 2441 4250 2034 4250 
Q 1625 4250 1398 4047 
Q 1172 3844 1172 3481 
z
" transform="scale(0.015625)"/>
       </defs>
       <use xlink:href="#DejaVuSans-38"/>
       <use xlink:href="#DejaVuSans-30" x="63.623047"/>
       <use xlink:href="#DejaVuSans-30" x="127.246094"/>
      </g>
     </g>
    </g>
    <g id="text_6">
     <!-- iterations -->
     <g transform="translate(324.035938 354.189375) scale(0.2 -0.2)">
      <defs>
       <path id="DejaVuSans-69" d="M 603 3500 
L 1178 3500 
L 1178 0 
L 603 0 
L 603 3500 
z
M 603 4863 
L 1178 4863 
L 1178 4134 
L 603 4134 
L 603 4863 
z
" transform="scale(0.015625)"/>
       <path id="DejaVuSans-74" d="M 1172 4494 
L 1172 3500 
L 2356 3500 
L 2356 3053 
L 1172 3053 
L 1172 1153 
Q 1172 725 1289 603 
Q 1406 481 1766 481 
L 2356 481 
L 2356 0 
L 1766 0 
Q 1100 0 847 248 
Q 594 497 594 1153 
L 594 3053 
L 172 3053 
L 172 3500 
L 594 3500 
L 594 4494 
L 1172 4494 
z
" transform="scale(0.015625)"/>
       <path id="DejaVuSans-65" d="M 3597 1894 
L 3597 1613 
L 953 1613 
Q 991 1019 1311 708 
Q 1631 397 2203 397 
Q 2534 397 2845 478 
Q 3156 559 3463 722 
L 3463 178 
Q 3153 47 2828 -22 
Q 2503 -91 2169 -91 
Q 1331 -91 842 396 
Q 353 884 353 1716 
Q 353 2575 817 3079 
Q 1281 3584 2069 3584 
Q 2775 3584 3186 3129 
Q 3597 2675 3597 1894 
z
M 3022 2063 
Q 3016 2534 2758 2815 
Q 2500 3097 2075 3097 
Q 1594 3097 1305 2825 
Q 1016 2553 972 2059 
L 3022 2063 
z
" transform="scale(0.015625)"/>
       <path id="DejaVuSans-72" d="M 2631 2963 
Q 2534 3019 2420 3045 
Q 2306 3072 2169 3072 
Q 1681 3072 1420 2755 
Q 1159 2438 1159 1844 
L 1159 0 
L 581 0 
L 581 3500 
L 1159 3500 
L 1159 2956 
Q 1341 3275 1631 3429 
Q 1922 3584 2338 3584 
Q 2397 3584 2469 3576 
Q 2541 3569 2628 3553 
L 2631 2963 
z
" transform="scale(0.015625)"/>
       <path id="DejaVuSans-61" d="M 2194 1759 
Q 1497 1759 1228 1600 
Q 959 1441 959 1056 
Q 959 750 1161 570 
Q 1363 391 1709 391 
Q 2188 391 2477 730 
Q 2766 1069 2766 1631 
L 2766 1759 
L 2194 1759 
z
M 3341 1997 
L 3341 0 
L 2766 0 
L 2766 531 
Q 2569 213 2275 61 
Q 1981 -91 1556 -91 
Q 1019 -91 701 211 
Q 384 513 384 1019 
Q 384 1609 779 1909 
Q 1175 2209 1959 2209 
L 2766 2209 
L 2766 2266 
Q 2766 2663 2505 2880 
Q 2244 3097 1772 3097 
Q 1472 3097 1187 3025 
Q 903 2953 641 2809 
L 641 3341 
Q 956 3463 1253 3523 
Q 1550 3584 1831 3584 
Q 2591 3584 2966 3190 
Q 3341 2797 3341 1997 
z
" transform="scale(0.015625)"/>
       <path id="DejaVuSans-6f" d="M 1959 3097 
Q 1497 3097 1228 2736 
Q 959 2375 959 1747 
Q 959 1119 1226 758 
Q 1494 397 1959 397 
Q 2419 397 2687 759 
Q 2956 1122 2956 1747 
Q 2956 2369 2687 2733 
Q 2419 3097 1959 3097 
z
M 1959 3584 
Q 2709 3584 3137 3096 
Q 3566 2609 3566 1747 
Q 3566 888 3137 398 
Q 2709 -91 1959 -91 
Q 1206 -91 779 398 
Q 353 888 353 1747 
Q 353 2609 779 3096 
Q 1206 3584 1959 3584 
z
" transform="scale(0.015625)"/>
       <path id="DejaVuSans-6e" d="M 3513 2113 
L 3513 0 
L 2938 0 
L 2938 2094 
Q 2938 2591 2744 2837 
Q 2550 3084 2163 3084 
Q 1697 3084 1428 2787 
Q 1159 2491 1159 1978 
L 1159 0 
L 581 0 
L 581 3500 
L 1159 3500 
L 1159 2956 
Q 1366 3272 1645 3428 
Q 1925 3584 2291 3584 
Q 2894 3584 3203 3211 
Q 3513 2838 3513 2113 
z
" transform="scale(0.015625)"/>
       <path id="DejaVuSans-73" d="M 2834 3397 
L 2834 2853 
Q 2591 2978 2328 3040 
Q 2066 3103 1784 3103 
Q 1356 3103 1142 2972 
Q 928 2841 928 2578 
Q 928 2378 1081 2264 
Q 1234 2150 1697 2047 
L 1894 2003 
Q 2506 1872 2764 1633 
Q 3022 1394 3022 966 
Q 3022 478 2636 193 
Q 2250 -91 1575 -91 
Q 1294 -91 989 -36 
Q 684 19 347 128 
L 347 722 
Q 666 556 975 473 
Q 1284 391 1588 391 
Q 1994 391 2212 530 
Q 2431 669 2431 922 
Q 2431 1156 2273 1281 
Q 2116 1406 1581 1522 
L 1381 1569 
Q 847 1681 609 1914 
Q 372 2147 372 2553 
Q 372 3047 722 3315 
Q 1072 3584 1716 3584 
Q 2034 3584 2315 3537 
Q 2597 3491 2834 3397 
z
" transform="scale(0.015625)"/>
      </defs>
      <use xlink:href="#DejaVuSans-69"/>
      <use xlink:href="#DejaVuSans-74" x="27.783203"/>
      <use xlink:href="#DejaVuSans-65" x="66.992188"/>
      <use xlink:href="#DejaVuSans-72" x="128.515625"/>
      <use xlink:href="#DejaVuSans-61" x="169.628906"/>
      <use xlink:href="#DejaVuSans-74" x="230.908203"/>
      <use xlink:href="#DejaVuSans-69" x="270.117188"/>
      <use xlink:href="#DejaVuSans-6f" x="297.900391"/>
      <use xlink:href="#DejaVuSans-6e" x="359.082031"/>
      <use xlink:href="#DejaVuSans-73" x="422.460938"/>
     </g>
    </g>
   </g>
   <g id="matplotlib.axis_2">
    <g id="ytick_1">
     <g id="line2d_6">
      <defs>
       <path id="m3a2820061d" d="M 0 0 
L -3.5 0 
" style="stroke: #000000; stroke-width: 0.8"/>
      </defs>
      <g>
       <use xlink:href="#m3a2820061d" x="92.490625" y="287.754235" style="stroke: #000000; stroke-width: 0.8"/>
      </g>
     </g>
     <g id="text_7">
      <!-- −200 -->
      <g transform="translate(30.55625 295.352672) scale(0.2 -0.2)">
       <defs>
        <path id="DejaVuSans-2212" d="M 678 2272 
L 4684 2272 
L 4684 1741 
L 678 1741 
L 678 2272 
z
" transform="scale(0.015625)"/>
       </defs>
       <use xlink:href="#DejaVuSans-2212"/>
       <use xlink:href="#DejaVuSans-32" x="83.789062"/>
       <use xlink:href="#DejaVuSans-30" x="147.412109"/>
       <use xlink:href="#DejaVuSans-30" x="211.035156"/>
      </g>
     </g>
    </g>
    <g id="ytick_2">
     <g id="line2d_7">
      <g>
       <use xlink:href="#m3a2820061d" x="92.490625" y="227.578386" style="stroke: #000000; stroke-width: 0.8"/>
      </g>
     </g>
     <g id="text_8">
      <!-- −100 -->
      <g transform="translate(30.55625 235.176823) scale(0.2 -0.2)">
       <defs>
        <path id="DejaVuSans-31" d="M 794 531 
L 1825 531 
L 1825 4091 
L 703 3866 
L 703 4441 
L 1819 4666 
L 2450 4666 
L 2450 531 
L 3481 531 
L 3481 0 
L 794 0 
L 794 531 
z
" transform="scale(0.015625)"/>
       </defs>
       <use xlink:href="#DejaVuSans-2212"/>
       <use xlink:href="#DejaVuSans-31" x="83.789062"/>
       <use xlink:href="#DejaVuSans-30" x="147.412109"/>
       <use xlink:href="#DejaVuSans-30" x="211.035156"/>
      </g>
     </g>
    </g>
    <g id="ytick_3">
     <g id="line2d_8">
      <g>
       <use xlink:href="#m3a2820061d" x="92.490625" y="167.402537" style="stroke: #000000; stroke-width: 0.8"/>
      </g>
     </g>
     <g id="text_9">
      <!-- 0 -->
      <g transform="translate(72.765625 175.000974) scale(0.2 -0.2)">
       <use xlink:href="#DejaVuSans-30"/>
      </g>
     </g>
    </g>
    <g id="ytick_4">
     <g id="line2d_9">
      <g>
       <use xlink:href="#m3a2820061d" x="92.490625" y="107.226688" style="stroke: #000000; stroke-width: 0.8"/>
      </g>
     </g>
     <g id="text_10">
      <!-- 100 -->
      <g transform="translate(47.315625 114.825125) scale(0.2 -0.2)">
       <use xlink:href="#DejaVuSans-31"/>
       <use xlink:href="#DejaVuSans-30" x="63.623047"/>
       <use xlink:href="#DejaVuSans-30" x="127.246094"/>
      </g>
     </g>
    </g>
    <g id="ytick_5">
     <g id="line2d_10">
      <g>
       <use xlink:href="#m3a2820061d" x="92.490625" y="47.050838" style="stroke: #000000; stroke-width: 0.8"/>
      </g>
     </g>
     <g id="text_11">
      <!-- 200 -->
      <g transform="translate(47.315625 54.649276) scale(0.2 -0.2)">
       <use xlink:href="#DejaVuSans-32"/>
       <use xlink:href="#DejaVuSans-30" x="63.623047"/>
       <use xlink:href="#DejaVuSans-30" x="127.246094"/>
      </g>
     </g>
    </g>
    <g id="text_12">
     <!-- Loss -->
     <g transform="translate(22.396875 191.970625) rotate(-90) scale(0.2 -0.2)">
      <defs>
       <path id="DejaVuSans-4c" d="M 628 4666 
L 1259 4666 
L 1259 531 
L 3531 531 
L 3531 0 
L 628 0 
L 628 4666 
z
" transform="scale(0.015625)"/>
      </defs>
      <use xlink:href="#DejaVuSans-4c"/>
      <use xlink:href="#DejaVuSans-6f" x="53.962891"/>
      <use xlink:href="#DejaVuSans-73" x="115.144531"/>
      <use xlink:href="#DejaVuSans-73" x="167.244141"/>
     </g>
    </g>
   </g>
   <g id="line2d_11">
    <path d="M 117.854261 138.53853 
L 118.451053 97.982964 
L 119.047844 117.083744 
L 119.644636 121.777179 
L 120.241427 104.43596 
L 120.838219 128.019774 
L 121.43501 117.918638 
L 122.031801 99.792773 
L 122.628593 123.303136 
L 123.225384 113.920019 
L 123.822176 107.215809 
L 124.418967 54.185175 
L 125.015759 44.586844 
L 125.61255 50.208405 
L 126.209342 65.431701 
L 126.806133 52.62134 
L 127.402924 44.03625 
L 127.999716 47.425516 
L 128.596507 53.255988 
L 129.193299 62.20203 
L 129.79009 54.058702 
L 130.386882 59.456177 
L 130.983673 109.140656 
L 131.580465 94.805897 
L 132.177256 87.78307 
L 132.774047 75.133855 
L 133.370839 98.959252 
L 133.96763 90.513457 
L 134.564422 91.353551 
L 135.161213 94.307751 
L 135.758005 99.862324 
L 136.354796 94.958193 
L 136.951588 93.356455 
L 138.14517 79.768648 
L 138.741962 81.625829 
L 139.338753 87.639335 
L 139.935545 98.247788 
L 140.532336 97.025522 
L 141.129128 100.470922 
L 141.725919 94.009915 
L 142.322711 108.302296 
L 142.919502 106.746361 
L 143.516293 111.813688 
L 144.113085 111.321942 
L 144.709876 109.609667 
L 145.306668 111.732825 
L 146.500251 118.313446 
L 147.097042 121.128737 
L 147.693834 118.243637 
L 148.290625 122.939672 
L 148.887416 114.006144 
L 149.484208 113.402414 
L 150.080999 118.336942 
L 150.677791 126.247555 
L 151.274582 117.705982 
L 151.871374 118.938384 
L 152.468165 115.501875 
L 153.064957 121.08746 
L 153.661748 119.267918 
L 154.258539 128.786107 
L 154.855331 128.140582 
L 155.452122 126.980209 
L 156.048914 127.736057 
L 156.645705 119.824596 
L 157.242497 123.041682 
L 157.839288 125.22985 
L 158.43608 132.060951 
L 159.032871 127.742292 
L 159.629662 128.726967 
L 160.226454 132.552166 
L 160.823245 126.842327 
L 161.420037 124.849238 
L 162.016828 134.387408 
L 162.61362 128.837998 
L 163.210411 132.134935 
L 163.807203 123.78468 
L 164.403994 132.616752 
L 165.000785 133.362101 
L 165.597577 130.522423 
L 166.194368 132.295449 
L 166.79116 130.881563 
L 167.387951 130.761392 
L 167.984743 136.851809 
L 168.581534 133.13345 
L 169.178326 136.862142 
L 169.775117 132.687554 
L 170.371908 136.323725 
L 170.9687 132.024156 
L 171.565491 135.651823 
L 172.162283 134.503783 
L 172.759074 138.447324 
L 173.355866 140.302657 
L 173.952657 137.326201 
L 174.549449 135.530543 
L 175.14624 133.290565 
L 175.743031 132.866831 
L 176.339823 142.596344 
L 176.936614 144.986145 
L 178.130197 140.610362 
L 178.726989 141.500038 
L 179.32378 143.686115 
L 179.920572 140.210455 
L 180.517363 143.748127 
L 181.114154 145.84987 
L 181.710946 147.376432 
L 182.307737 144.567206 
L 182.904529 148.385484 
L 183.50132 146.372494 
L 184.098112 149.177832 
L 184.694903 150.583748 
L 185.291695 151.428518 
L 185.888486 151.65227 
L 186.485277 153.806823 
L 187.082069 151.359519 
L 187.67886 149.66105 
L 188.275652 150.094058 
L 188.872443 153.424061 
L 189.469235 153.379319 
L 190.066026 152.68978 
L 190.662818 148.221893 
L 191.259609 149.94797 
L 191.8564 150.801801 
L 192.453192 149.496023 
L 193.049983 153.426297 
L 193.646775 148.701191 
L 194.243566 155.673158 
L 194.840358 152.270783 
L 195.437149 152.812434 
L 196.033941 151.283283 
L 196.630732 151.61941 
L 197.227523 149.972005 
L 197.824315 149.445184 
L 198.421106 150.678389 
L 199.017898 153.782528 
L 199.614689 152.701329 
L 200.211481 150.58121 
L 200.808272 153.449759 
L 201.405064 152.054885 
L 203.195438 149.175368 
L 203.792229 152.92116 
L 204.389021 154.821874 
L 204.985812 154.122896 
L 205.582604 154.659618 
L 206.179395 154.935823 
L 206.776186 150.153039 
L 207.372978 153.838236 
L 207.969769 152.87849 
L 208.566561 156.117978 
L 209.163352 154.618691 
L 209.760144 155.286374 
L 210.356935 155.509007 
L 210.953727 155.203361 
L 211.550518 155.733462 
L 212.147309 154.610605 
L 212.744101 156.868743 
L 213.937684 154.86685 
L 214.534475 155.846898 
L 215.131267 155.5618 
L 215.728058 154.291763 
L 216.32485 156.186717 
L 216.921641 156.244531 
L 217.518432 155.715934 
L 218.115224 155.403453 
L 218.712015 155.782756 
L 219.308807 155.993486 
L 219.905598 155.337442 
L 220.50239 155.619744 
L 221.099181 156.597801 
L 221.695973 157.322453 
L 222.292764 156.929476 
L 222.889555 155.284185 
L 223.486347 157.053882 
L 224.083138 154.679929 
L 224.67993 157.291986 
L 225.276721 156.903158 
L 225.873513 157.112578 
L 227.067096 158.666323 
L 227.663887 157.140524 
L 228.260678 157.121308 
L 228.85747 158.853463 
L 229.454261 159.363312 
L 230.051053 158.407733 
L 230.647844 158.277547 
L 231.244636 158.768124 
L 232.438219 159.348091 
L 233.03501 158.40205 
L 233.631801 158.776583 
L 234.228593 157.259794 
L 234.825384 157.809901 
L 235.422176 157.905638 
L 236.018967 160.304648 
L 236.615759 159.27558 
L 237.21255 160.198122 
L 237.809342 158.222625 
L 238.406133 158.653634 
L 239.002924 158.487327 
L 239.599716 158.747868 
L 240.196507 158.790748 
L 240.793299 157.779227 
L 241.39009 158.195876 
L 241.986882 158.768348 
L 242.583673 157.9548 
L 243.180465 158.883566 
L 243.777256 159.266435 
L 244.374047 158.167248 
L 244.970839 157.931008 
L 245.56763 157.269122 
L 246.761213 159.245639 
L 247.954796 159.591384 
L 248.551588 158.906913 
L 249.148379 157.982647 
L 249.74517 158.460905 
L 250.341962 158.242813 
L 250.938753 157.491546 
L 251.535545 158.890922 
L 252.132336 159.897972 
L 252.729128 159.522708 
L 253.325919 158.755006 
L 253.922711 160.102913 
L 255.116293 159.911868 
L 255.713085 158.428562 
L 256.309876 158.256503 
L 256.906668 159.280037 
L 258.697042 160.666388 
L 259.890625 158.531589 
L 260.487416 160.376333 
L 261.084208 159.592961 
L 261.680999 159.596836 
L 262.277791 158.212775 
L 262.874582 158.965149 
L 263.471374 160.221803 
L 264.068165 160.554096 
L 264.664957 160.234987 
L 265.261748 159.189843 
L 266.455331 158.4345 
L 267.052122 159.29536 
L 267.648914 159.86907 
L 268.245705 159.834532 
L 269.439288 160.513438 
L 270.03608 160.132619 
L 270.632871 160.426465 
L 271.229662 160.383222 
L 271.826454 159.592069 
L 272.423245 160.667174 
L 273.020037 159.239572 
L 273.616828 161.504711 
L 274.21362 160.711068 
L 274.810411 160.321193 
L 275.407203 160.334656 
L 276.003994 160.4783 
L 276.600785 160.244258 
L 277.197577 160.241173 
L 277.794368 160.039621 
L 279.584743 158.951886 
L 280.181534 159.1988 
L 280.778326 159.780806 
L 281.375117 159.367018 
L 281.971908 158.507879 
L 282.5687 158.913263 
L 283.165491 158.653872 
L 283.762283 158.552491 
L 284.359074 159.409902 
L 284.955866 159.175904 
L 285.552657 158.624938 
L 286.74624 158.893202 
L 287.939823 160.264354 
L 288.536614 160.201945 
L 289.730197 158.650772 
L 290.326989 159.288537 
L 290.92378 160.520795 
L 291.520572 160.457279 
L 292.714154 158.257941 
L 293.310946 158.619133 
L 293.907737 159.745309 
L 294.504529 159.48481 
L 295.10132 159.978303 
L 295.698112 159.720556 
L 296.294903 159.612132 
L 296.891695 159.841911 
L 298.085277 160.510643 
L 299.27886 159.110659 
L 299.875652 159.040226 
L 300.472443 158.709458 
L 301.069235 159.419005 
L 301.666026 159.173452 
L 302.262818 159.518919 
L 302.859609 158.566461 
L 304.053192 159.499792 
L 305.246775 158.586841 
L 305.843566 158.811935 
L 306.440358 159.308052 
L 307.037149 158.76162 
L 307.633941 157.928456 
L 308.230732 158.267043 
L 308.827523 158.073122 
L 309.424315 158.023908 
L 311.214689 159.418039 
L 311.811481 159.162644 
L 312.408272 158.305005 
L 313.005064 158.181522 
L 313.601855 158.871983 
L 314.198646 158.207984 
L 314.795438 158.920037 
L 315.392229 158.307508 
L 315.989021 158.614952 
L 316.585812 157.895699 
L 317.182604 158.923532 
L 317.779395 158.600683 
L 318.376186 159.982429 
L 318.972978 158.452746 
L 319.569769 158.364598 
L 320.166561 158.53182 
L 320.763352 158.447831 
L 321.360144 159.631004 
L 321.956935 158.702739 
L 323.150518 158.844423 
L 323.747309 158.261884 
L 324.940892 158.876161 
L 325.537684 158.704879 
L 326.134475 158.966426 
L 326.731267 159.070848 
L 327.328058 159.870111 
L 327.92485 159.975019 
L 328.521641 160.596646 
L 329.118432 159.037911 
L 329.715224 159.577581 
L 330.312015 159.919207 
L 330.908807 159.970316 
L 331.505598 160.525837 
L 332.10239 159.82942 
L 332.699181 160.372563 
L 333.295973 160.469565 
L 333.892764 160.440517 
L 334.489555 160.545118 
L 335.086347 161.243255 
L 336.27993 161.95244 
L 336.876721 161.344446 
L 337.473513 162.230849 
L 338.070304 160.694473 
L 338.667096 161.529689 
L 339.263887 161.958084 
L 339.860678 161.981839 
L 340.45747 161.531251 
L 341.054261 162.091559 
L 341.651053 161.080496 
L 342.247844 161.420721 
L 342.844636 161.219607 
L 344.038219 163.802467 
L 344.63501 163.544163 
L 345.231801 162.374592 
L 345.828593 162.509576 
L 346.425384 163.184545 
L 347.022176 162.450438 
L 348.81255 161.216576 
L 349.409342 161.664394 
L 350.006133 161.362429 
L 350.602924 162.075806 
L 351.199716 161.102878 
L 351.796507 163.051107 
L 352.393299 162.817614 
L 352.99009 162.946267 
L 354.183673 162.763962 
L 354.780465 162.839012 
L 355.377256 162.000619 
L 355.974047 162.598769 
L 356.570839 162.378559 
L 357.16763 163.076137 
L 357.764422 162.571522 
L 358.361213 162.729478 
L 358.958005 162.590982 
L 359.554796 162.127056 
L 360.151588 163.018755 
L 360.748379 161.84957 
L 361.34517 162.625888 
L 361.941962 162.543089 
L 362.538753 163.183865 
L 363.135545 162.865179 
L 364.925919 162.964571 
L 365.522711 163.003534 
L 366.119502 161.98191 
L 366.716293 161.799897 
L 367.313085 163.497794 
L 367.909876 162.761521 
L 368.506668 162.260124 
L 369.103459 161.52673 
L 369.700251 162.915428 
L 370.297042 163.518571 
L 370.893834 163.511122 
L 371.490625 163.779869 
L 372.684208 163.292074 
L 373.280999 163.261754 
L 373.877791 164.209916 
L 375.668165 164.29926 
L 376.264957 163.883719 
L 376.861748 164.214976 
L 377.458539 163.611439 
L 378.055331 163.50855 
L 378.652122 163.619804 
L 379.248914 163.517998 
L 379.845705 163.762633 
L 380.442497 163.682833 
L 381.039288 163.927672 
L 381.63608 162.938326 
L 382.232871 163.558524 
L 382.829662 163.570411 
L 383.426454 162.838417 
L 384.023245 163.419215 
L 384.620037 163.034187 
L 385.216828 163.560597 
L 385.81362 162.974609 
L 386.410411 163.22759 
L 387.007203 163.897061 
L 388.200785 163.200592 
L 388.797577 163.883585 
L 389.394368 164.051239 
L 390.587951 163.416856 
L 391.184743 163.617793 
L 391.781534 163.502438 
L 392.378326 163.762088 
L 392.975117 164.287996 
L 393.571908 163.466284 
L 394.1687 163.625181 
L 394.765491 162.927845 
L 395.362283 162.924646 
L 395.959074 163.154536 
L 396.555866 162.913681 
L 397.749449 163.90003 
L 398.34624 164.07757 
L 398.943031 164.574846 
L 399.539823 164.524283 
L 400.136614 165.478911 
L 400.733406 165.009827 
L 401.330197 165.363989 
L 401.926989 165.356022 
L 402.52378 164.90985 
L 403.120572 165.135213 
L 403.717363 164.92389 
L 404.314154 165.118623 
L 404.910946 165.026908 
L 405.507737 165.352702 
L 406.104529 165.29849 
L 407.298112 163.713846 
L 407.894903 164.55012 
L 409.088486 164.198529 
L 409.685277 164.675546 
L 410.282069 164.071193 
L 410.87886 164.222628 
L 411.475652 164.527797 
L 412.072443 164.517816 
L 413.266026 165.291701 
L 413.862818 165.561032 
L 414.459609 164.811283 
L 415.0564 164.988455 
L 415.653192 164.924284 
L 416.249983 164.615151 
L 416.846775 165.583877 
L 417.443566 165.212143 
L 418.040358 165.333861 
L 418.637149 165.323854 
L 419.233941 165.041086 
L 419.830732 164.978663 
L 421.024315 165.200191 
L 421.621106 166.08 
L 422.217898 165.035632 
L 422.814689 165.603331 
L 423.411481 165.86487 
L 424.008272 165.443294 
L 424.605064 166.256202 
L 425.201855 164.694453 
L 425.798646 164.670977 
L 426.395438 164.525527 
L 426.992229 165.21686 
L 427.589021 164.912678 
L 428.185812 165.326199 
L 428.782604 164.488608 
L 429.379395 164.820524 
L 429.976186 165.524774 
L 430.572978 165.617187 
L 431.169769 165.576942 
L 431.766561 164.87486 
L 432.960144 165.961546 
L 433.556935 165.367041 
L 434.153727 164.944552 
L 434.750518 165.134178 
L 435.347309 164.885828 
L 435.944101 165.370466 
L 436.540892 164.272193 
L 437.137684 164.729958 
L 437.734475 165.0006 
L 438.331267 164.976294 
L 438.928058 165.602046 
L 439.52485 165.479562 
L 440.121641 165.237788 
L 440.718432 166.108076 
L 441.315224 166.104062 
L 441.912015 165.82227 
L 442.508807 166.256527 
L 443.105598 165.788274 
L 444.299181 165.098018 
L 445.492764 165.534906 
L 446.089555 166.428739 
L 447.283138 165.721829 
L 447.87993 166.143999 
L 448.476721 165.615088 
L 449.073513 166.228039 
L 449.670304 165.061817 
L 450.267096 165.143602 
L 450.863887 165.760576 
L 451.460678 165.561899 
L 452.05747 166.216574 
L 453.251053 165.183599 
L 453.847844 165.018782 
L 454.444636 165.360501 
L 455.638219 165.419201 
L 456.23501 165.360393 
L 456.831801 164.136741 
L 457.428593 165.343897 
L 458.025384 165.572042 
L 458.622176 165.545783 
L 459.815759 164.591578 
L 460.41255 164.512763 
L 461.009342 164.747325 
L 461.606133 165.493837 
L 462.202924 165.139657 
L 462.799716 165.495464 
L 463.396507 164.968325 
L 463.993299 165.539488 
L 464.59009 164.924951 
L 465.186882 165.093261 
L 465.783673 164.996031 
L 466.380465 164.524479 
L 466.977256 164.886919 
L 467.574047 164.47752 
L 468.170839 164.371764 
L 468.76763 163.988204 
L 469.364422 164.644625 
L 469.961213 164.709602 
L 470.558005 164.279329 
L 471.751588 164.712515 
L 472.348379 164.128696 
L 472.94517 164.199866 
L 473.541962 164.096761 
L 474.138753 164.48685 
L 474.735545 164.527779 
L 475.332336 164.707487 
L 477.122711 164.760681 
L 477.719502 164.850835 
L 478.316293 164.799478 
L 478.913085 164.295248 
L 479.509876 164.533537 
L 480.703459 164.375007 
L 481.300251 164.912049 
L 481.897042 164.567608 
L 482.493834 163.712177 
L 483.090625 163.720205 
L 483.687416 164.737969 
L 484.284208 164.51053 
L 485.477791 164.528611 
L 486.074582 164.159422 
L 486.671374 164.156035 
L 487.268165 164.345714 
L 487.864957 164.416819 
L 489.058539 164.201238 
L 489.655331 163.689581 
L 490.252122 163.688707 
L 491.445705 164.021742 
L 492.042497 164.40091 
L 493.23608 164.1579 
L 493.832871 164.518102 
L 494.429662 163.675799 
L 495.026454 163.978809 
L 495.623245 164.113678 
L 496.220037 164.586427 
L 496.816828 163.635984 
L 497.41362 164.265889 
L 498.010411 163.462821 
L 498.607203 164.146655 
L 499.800785 164.35971 
L 500.397577 163.949097 
L 500.994368 164.500156 
L 501.59116 164.439221 
L 502.187951 164.258676 
L 502.784743 164.612078 
L 503.381534 164.474929 
L 503.978326 164.662866 
L 504.575117 164.384643 
L 505.171908 165.050381 
L 506.962283 164.638916 
L 507.559074 164.819175 
L 508.155866 164.597301 
L 508.752657 164.516941 
L 509.349449 164.688791 
L 509.94624 165.221928 
L 511.139823 165.576128 
L 511.736614 165.57446 
L 512.333406 166.125497 
L 512.930197 166.924859 
L 514.12378 166.874639 
L 514.720572 166.326228 
L 515.317363 166.215998 
L 515.914154 166.537828 
L 517.107737 166.108848 
L 517.704529 166.486851 
L 518.898112 166.322447 
L 519.494903 166.749162 
L 520.091695 166.739898 
L 520.688486 166.314309 
L 521.285277 166.29515 
L 521.882069 166.754573 
L 522.47886 166.073459 
L 523.075652 166.300046 
L 525.462818 166.655139 
L 527.253192 166.43708 
L 528.446775 166.349224 
L 529.043566 166.578572 
L 530.237149 165.911427 
L 530.833941 166.599712 
L 531.430732 166.763055 
L 533.221106 166.836537 
L 533.817898 166.292862 
L 534.414689 166.114483 
L 535.011481 166.70456 
L 535.608272 166.404543 
L 536.205064 166.949484 
L 537.398646 166.846264 
L 537.995438 167.496116 
L 538.592229 167.106541 
L 539.189021 167.269006 
L 539.785812 166.270429 
L 540.382604 167.076186 
L 540.979395 167.150597 
L 541.576186 166.690862 
L 542.769769 167.016251 
L 543.366561 166.722275 
L 543.963352 167.172367 
L 545.156935 167.300765 
L 546.350518 166.953468 
L 546.947309 166.909695 
L 547.544101 166.667897 
L 548.140892 167.128023 
L 548.737684 167.287949 
L 549.334475 166.953439 
L 549.931267 167.165798 
L 550.528058 167.176958 
L 551.12485 167.776535 
L 551.721641 167.588331 
L 553.512015 168.112648 
L 554.108807 167.814137 
L 554.705598 167.966171 
L 555.30239 167.337813 
L 555.899181 168.231724 
L 556.495973 167.864277 
L 557.092764 167.66535 
L 557.689555 167.930938 
L 558.286347 167.764538 
L 558.883138 167.800716 
L 559.47993 167.605195 
L 560.673513 167.877379 
L 561.270304 167.448346 
L 561.867096 167.595076 
L 562.463887 167.619896 
L 563.060678 167.277464 
L 563.65747 167.257352 
L 564.254261 167.622062 
L 565.447844 167.811488 
L 566.044636 167.2019 
L 566.641427 167.374296 
L 567.238219 167.108636 
L 567.83501 167.529072 
L 568.431801 167.445918 
L 569.028593 167.588031 
L 569.625384 166.986021 
L 570.222176 167.07021 
L 570.818967 167.01968 
L 571.415759 167.131119 
L 572.01255 166.706204 
L 572.609342 167.273783 
L 573.206133 167.4991 
L 573.802924 167.164137 
L 574.399716 167.278401 
L 574.996507 167.029178 
L 575.593299 166.381069 
L 576.19009 166.598948 
L 576.786882 166.362415 
L 577.383673 166.875708 
L 578.577256 166.486489 
L 579.174047 167.00153 
L 579.770839 166.338952 
L 580.36763 167.288716 
L 580.964422 166.475611 
L 581.561213 166.628849 
L 582.158005 166.578035 
L 582.754796 166.994117 
L 583.351588 166.373868 
L 584.54517 167.125379 
L 585.141962 166.9732 
L 585.738753 166.957091 
L 586.335545 167.064731 
L 586.932336 166.882958 
L 587.529128 166.514705 
L 588.125919 166.783083 
L 588.722711 166.270219 
L 589.319502 166.448122 
L 589.916293 167.096922 
L 590.513085 167.182332 
L 591.109876 167.032398 
L 591.706668 166.457706 
L 592.303459 167.0144 
L 593.497042 167.264616 
L 594.093834 166.954706 
L 595.287416 166.860758 
L 595.884208 167.200607 
L 596.480999 166.850006 
L 597.077791 167.223131 
L 597.674582 167.091588 
L 598.271374 167.73185 
L 598.868165 167.645538 
L 599.464957 167.831437 
L 600.061748 167.616765 
L 600.658539 167.043909 
L 601.255331 167.39589 
L 601.852122 166.841559 
L 602.448914 167.512002 
L 603.045705 167.50357 
L 603.642497 167.978246 
L 604.239288 167.672412 
L 605.432871 168.036219 
L 606.029662 167.420888 
L 606.626454 167.485797 
L 607.223245 168.077085 
L 607.820037 168.264032 
L 608.416828 167.662811 
L 609.01362 167.993159 
L 609.610411 167.701559 
L 610.207203 168.175583 
L 610.803994 168.068052 
L 611.400785 168.168252 
L 611.997577 167.917035 
L 612.594368 168.125004 
L 613.19116 167.61821 
L 613.787951 168.034187 
L 614.384743 168.012515 
L 614.981534 167.751495 
L 615.578326 168.214365 
L 616.771908 167.834211 
L 617.3687 168.107223 
L 617.965491 168.052522 
L 618.562283 168.754493 
L 619.159074 167.919724 
L 619.755866 168.417852 
L 620.352657 167.689991 
L 621.54624 167.980679 
L 622.143031 167.810499 
L 622.739823 167.962371 
L 623.336614 167.649031 
L 623.933406 168.198983 
L 624.530197 168.257292 
L 625.126989 167.565095 
L 625.126989 167.565095 
" clip-path="url(#p0baf369db5)" style="fill: none; stroke: #1f77b4; stroke-width: 1.5; stroke-linecap: square"/>
   </g>
   <g id="line2d_12">
    <path d="M 117.854261 296.03625 
L 119.047844 219.200503 
L 119.644636 230.492934 
L 120.241427 238.645685 
L 120.838219 213.261152 
L 121.43501 212.54875 
L 122.031801 215.076811 
L 122.628593 205.598168 
L 123.225384 212.181319 
L 123.822176 226.669107 
L 124.418967 212.802004 
L 125.015759 196.212776 
L 125.61255 194.413947 
L 126.209342 194.780619 
L 126.806133 201.832737 
L 127.402924 195.235904 
L 127.999716 196.378027 
L 128.596507 194.532246 
L 129.193299 194.186848 
L 129.79009 195.502642 
L 130.386882 184.213625 
L 130.983673 181.165058 
L 132.177256 182.194952 
L 132.774047 186.091654 
L 133.370839 177.656689 
L 133.96763 180.557306 
L 134.564422 182.010728 
L 135.161213 182.333157 
L 135.758005 181.694365 
L 136.354796 181.32096 
L 136.951588 182.390077 
L 137.548379 183.960668 
L 138.14517 184.431872 
L 138.741962 183.194059 
L 139.338753 180.438406 
L 139.935545 181.145129 
L 140.532336 183.060858 
L 141.129128 181.048282 
L 141.725919 180.679822 
L 142.322711 178.011528 
L 143.516293 178.090941 
L 144.113085 178.969227 
L 144.709876 181.172561 
L 145.306668 178.870422 
L 145.903459 177.393865 
L 146.500251 177.781811 
L 147.097042 178.351291 
L 147.693834 176.208669 
L 148.290625 177.343197 
L 148.887416 177.985098 
L 149.484208 180.055569 
L 150.080999 176.730227 
L 150.677791 176.248777 
L 151.274582 179.231779 
L 151.871374 177.708572 
L 152.468165 177.030424 
L 153.064957 176.664959 
L 153.661748 177.691265 
L 154.258539 176.119124 
L 154.855331 176.160455 
L 155.452122 176.32796 
L 156.048914 176.294541 
L 156.645705 177.635459 
L 157.839288 175.798741 
L 158.43608 174.709478 
L 159.032871 176.153952 
L 159.629662 175.127327 
L 160.226454 173.767497 
L 160.823245 175.460951 
L 161.420037 176.586489 
L 162.016828 176.4194 
L 162.61362 177.261133 
L 163.210411 174.063869 
L 163.807203 178.121447 
L 164.403994 174.604464 
L 165.597577 174.564015 
L 166.194368 174.107088 
L 166.79116 175.394572 
L 167.387951 174.377249 
L 167.984743 173.690661 
L 168.581534 174.735638 
L 169.178326 174.466004 
L 169.775117 173.763776 
L 170.371908 174.487707 
L 171.565491 173.128249 
L 172.162283 173.783378 
L 172.759074 172.877454 
L 173.355866 174.449639 
L 173.952657 174.136157 
L 174.549449 174.131147 
L 175.14624 174.543099 
L 175.743031 174.151772 
L 176.339823 171.716959 
L 176.936614 172.428133 
L 178.130197 173.551442 
L 178.726989 171.414805 
L 179.32378 172.531184 
L 180.517363 173.528479 
L 181.114154 174.667006 
L 181.710946 172.879212 
L 182.307737 174.079173 
L 182.904529 174.417489 
L 184.098112 173.861619 
L 184.694903 174.307226 
L 185.291695 172.468632 
L 185.888486 173.093585 
L 187.082069 171.328881 
L 187.67886 172.522737 
L 188.275652 173.248832 
L 188.872443 173.248455 
L 189.469235 172.722076 
L 190.066026 173.191447 
L 190.662818 171.575761 
L 191.259609 171.514487 
L 191.8564 172.497564 
L 192.453192 172.614868 
L 193.049983 172.527716 
L 193.646775 172.901462 
L 194.243566 171.798656 
L 194.840358 172.17445 
L 195.437149 171.36876 
L 196.033941 171.860114 
L 196.630732 172.065286 
L 197.227523 172.853624 
L 197.824315 172.279056 
L 198.421106 172.345809 
L 199.017898 171.40709 
L 200.211481 173.281889 
L 200.808272 171.6027 
L 201.405064 171.572991 
L 202.001855 172.788874 
L 202.598646 173.126234 
L 203.195438 172.833694 
L 203.792229 172.21413 
L 204.389021 173.023502 
L 204.985812 173.20008 
L 205.582604 172.111453 
L 206.179395 172.345466 
L 206.776186 173.241511 
L 207.372978 173.382747 
L 207.969769 171.305869 
L 208.566561 172.329936 
L 209.163352 172.906326 
L 209.760144 172.161376 
L 210.356935 172.618973 
L 210.953727 172.868546 
L 211.550518 172.178703 
L 212.147309 172.386805 
L 212.744101 171.756797 
L 213.340892 172.613199 
L 213.937684 172.735791 
L 214.534475 171.651542 
L 215.131267 171.944659 
L 215.728058 171.896408 
L 216.32485 172.235164 
L 218.115224 172.841949 
L 218.712015 171.593369 
L 219.308807 172.130366 
L 219.905598 172.372364 
L 220.50239 172.074754 
L 221.099181 171.556562 
L 221.695973 172.602379 
L 222.292764 171.34686 
L 222.889555 171.920515 
L 223.486347 171.527562 
L 224.083138 173.732855 
L 224.67993 171.742232 
L 225.276721 172.010685 
L 225.873513 171.679803 
L 226.470304 172.867061 
L 227.067096 172.121979 
L 227.663887 172.252688 
L 228.260678 171.634923 
L 228.85747 171.196761 
L 229.454261 171.68482 
L 230.051053 171.334027 
L 231.244636 171.732382 
L 231.841427 171.046097 
L 232.438219 171.840605 
L 233.03501 171.338442 
L 234.228593 171.274296 
L 234.825384 171.527496 
L 235.422176 171.463002 
L 236.615759 171.714048 
L 237.21255 171.527779 
L 237.809342 171.971782 
L 238.406133 171.808757 
L 239.002924 171.239484 
L 239.599716 171.712659 
L 240.196507 171.35515 
L 240.793299 171.253456 
L 241.39009 170.952888 
L 241.986882 171.26288 
L 242.583673 171.751968 
L 243.180465 171.851963 
L 243.777256 171.325347 
L 244.374047 171.013635 
L 246.164422 171.590286 
L 246.761213 171.297249 
L 247.358005 171.551686 
L 248.551588 170.870277 
L 249.148379 170.951387 
L 249.74517 170.706756 
L 250.341962 172.011226 
L 250.938753 171.562232 
L 251.535545 171.393369 
L 252.132336 170.624929 
L 252.729128 170.80561 
L 253.325919 171.546023 
L 255.116293 170.643849 
L 255.713085 171.28086 
L 256.309876 170.960326 
L 256.906668 170.393007 
L 257.503459 171.235045 
L 258.697042 170.199702 
L 259.293834 170.694318 
L 259.890625 171.399415 
L 260.487416 171.077521 
L 261.084208 171.099076 
L 261.680999 170.871475 
L 262.277791 172.392286 
L 262.874582 172.26415 
L 263.471374 171.124406 
L 265.261748 171.044001 
L 265.858539 171.602959 
L 266.455331 171.166176 
L 267.648914 170.812143 
L 268.245705 171.302051 
L 268.842497 172.056204 
L 269.439288 171.356412 
L 270.03608 172.162386 
L 270.632871 170.870293 
L 271.229662 170.933369 
L 271.826454 171.41883 
L 273.020037 171.6746 
L 273.616828 171.327942 
L 274.21362 171.457798 
L 274.810411 171.376492 
L 277.197577 171.6086 
L 277.794368 172.038357 
L 278.39116 171.485702 
L 278.987951 171.201776 
L 279.584743 172.03931 
L 280.181534 171.951895 
L 280.778326 171.029977 
L 281.375117 171.470733 
L 281.971908 171.33633 
L 282.5687 171.788106 
L 283.165491 171.619493 
L 283.762283 171.687032 
L 284.359074 172.066726 
L 284.955866 171.215829 
L 285.552657 170.9907 
L 286.74624 171.888345 
L 287.343031 171.568269 
L 287.939823 171.90961 
L 288.536614 170.651171 
L 289.133406 171.315803 
L 289.730197 171.7623 
L 290.326989 171.30192 
L 290.92378 170.659659 
L 291.520572 171.288779 
L 292.117363 171.490592 
L 292.714154 172.222745 
L 293.310946 172.55833 
L 293.907737 171.034898 
L 294.504529 171.498769 
L 295.10132 171.647811 
L 296.294903 171.370715 
L 296.891695 170.858276 
L 299.27886 171.90754 
L 299.875652 171.958406 
L 300.472443 172.342796 
L 301.069235 171.67289 
L 301.666026 172.154893 
L 302.262818 171.257939 
L 302.859609 171.674141 
L 304.053192 171.049011 
L 304.649983 171.724085 
L 305.246775 172.095347 
L 306.440358 171.377652 
L 307.037149 171.62404 
L 307.633941 171.390359 
L 308.230732 171.60132 
L 308.827523 171.535308 
L 310.021106 171.832293 
L 310.617898 171.367157 
L 311.214689 171.617892 
L 311.811481 171.685619 
L 312.408272 171.618568 
L 313.601855 171.860995 
L 314.198646 172.237446 
L 314.795438 171.005607 
L 315.392229 171.553755 
L 315.989021 171.490333 
L 316.585812 171.592916 
L 317.779395 171.398825 
L 318.376186 171.605477 
L 319.569769 172.38631 
L 320.166561 171.526915 
L 320.763352 171.645364 
L 321.360144 171.371208 
L 321.956935 172.147328 
L 322.553727 171.753966 
L 323.150518 173.179875 
L 323.747309 171.668005 
L 324.344101 171.579546 
L 324.940892 172.096871 
L 325.537684 172.356091 
L 326.134475 172.089167 
L 326.731267 172.553571 
L 327.328058 171.812758 
L 327.92485 171.615187 
L 329.118432 171.69413 
L 329.715224 171.766294 
L 330.312015 172.234649 
L 331.505598 171.674879 
L 332.10239 171.832849 
L 332.699181 172.280615 
L 333.295973 171.622514 
L 333.892764 171.755409 
L 334.489555 172.137954 
L 335.086347 171.268446 
L 335.683138 172.07895 
L 336.27993 171.204316 
L 336.876721 172.061808 
L 337.473513 171.646001 
L 338.070304 171.927455 
L 338.667096 171.965757 
L 339.263887 171.666375 
L 339.860678 171.715999 
L 340.45747 172.314211 
L 341.054261 172.600415 
L 342.247844 172.093801 
L 342.844636 172.294227 
L 343.441427 171.622418 
L 344.038219 171.782635 
L 344.63501 171.826495 
L 345.231801 171.737618 
L 345.828593 171.862572 
L 346.425384 171.810099 
L 347.022176 172.003163 
L 347.618967 171.442342 
L 348.215759 171.871399 
L 348.81255 172.112333 
L 349.409342 171.965151 
L 350.006133 171.593799 
L 350.602924 172.424699 
L 351.199716 172.280127 
L 351.796507 171.782763 
L 352.99009 172.362792 
L 354.183673 172.20061 
L 354.780465 172.371535 
L 355.377256 171.999299 
L 356.570839 171.610287 
L 357.16763 171.773116 
L 357.764422 171.682329 
L 358.361213 171.967082 
L 358.958005 171.559341 
L 359.554796 171.909636 
L 360.748379 172.294224 
L 361.34517 171.932208 
L 361.941962 172.584878 
L 362.538753 172.074051 
L 363.135545 171.992196 
L 363.732336 172.04918 
L 364.329128 172.439833 
L 366.119502 171.978719 
L 366.716293 172.222894 
L 367.313085 171.692602 
L 367.909876 172.103561 
L 369.103459 171.90705 
L 369.700251 172.379678 
L 370.297042 171.602559 
L 370.893834 172.046383 
L 371.490625 171.783138 
L 372.684208 172.085609 
L 373.280999 171.771962 
L 373.877791 172.218407 
L 375.071374 172.278004 
L 375.668165 172.469344 
L 376.264957 172.082219 
L 376.861748 172.14542 
L 377.458539 172.415526 
L 378.055331 172.448525 
L 378.652122 171.769688 
L 379.248914 172.670857 
L 379.845705 172.261742 
L 380.442497 172.179617 
L 381.039288 172.75954 
L 381.63608 172.558029 
L 382.232871 171.989123 
L 383.426454 172.108654 
L 384.023245 171.709229 
L 384.620037 172.924987 
L 385.216828 172.155324 
L 385.81362 172.460446 
L 386.410411 172.32577 
L 387.007203 172.626836 
L 387.603994 171.57441 
L 388.200785 172.098787 
L 388.797577 172.167263 
L 389.394368 171.574182 
L 390.587951 171.795719 
L 391.781534 171.727319 
L 392.378326 171.728792 
L 392.975117 172.057989 
L 393.571908 172.197913 
L 394.1687 171.68826 
L 394.765491 172.546455 
L 395.362283 171.75321 
L 395.959074 171.527242 
L 396.555866 171.579348 
L 397.152657 171.491789 
L 397.749449 171.614068 
L 398.34624 171.273213 
L 398.943031 171.721788 
L 400.733406 171.597293 
L 401.330197 171.221748 
L 401.926989 171.946635 
L 402.52378 171.54936 
L 403.120572 171.918295 
L 403.717363 171.70649 
L 404.314154 171.369587 
L 404.910946 172.016757 
L 406.104529 171.647025 
L 406.70132 171.942592 
L 407.298112 171.796667 
L 407.894903 171.462699 
L 408.491695 171.850835 
L 409.088486 171.619728 
L 409.685277 171.633126 
L 410.282069 171.98708 
L 410.87886 171.713236 
L 411.475652 172.227735 
L 412.072443 171.661024 
L 412.669235 171.646745 
L 413.862818 172.171069 
L 415.0564 171.032468 
L 415.653192 171.890426 
L 416.249983 171.742362 
L 416.846775 171.418415 
L 417.443566 172.147392 
L 418.040358 171.921093 
L 418.637149 171.482523 
L 419.830732 172.073854 
L 420.427523 171.643588 
L 422.217898 171.546255 
L 422.814689 171.764198 
L 424.008272 171.069354 
L 424.605064 171.377002 
L 425.201855 172.050453 
L 425.798646 171.849916 
L 426.395438 171.860143 
L 426.992229 171.732915 
L 427.589021 171.303851 
L 428.782604 171.520633 
L 429.379395 171.730886 
L 429.976186 171.33955 
L 430.572978 171.775897 
L 431.169769 171.614878 
L 431.766561 172.277533 
L 432.363352 171.669711 
L 432.960144 172.172951 
L 433.556935 171.577625 
L 434.750518 171.483749 
L 435.347309 171.242414 
L 435.944101 171.979101 
L 436.540892 171.568908 
L 437.137684 171.468434 
L 437.734475 171.70582 
L 438.928058 171.783909 
L 439.52485 171.418185 
L 441.315224 171.594637 
L 441.912015 171.242859 
L 442.508807 171.826873 
L 443.105598 171.309659 
L 444.895973 171.902367 
L 446.686347 171.749917 
L 447.87993 171.307203 
L 448.476721 171.710485 
L 449.073513 171.574469 
L 449.670304 171.971282 
L 450.267096 171.285448 
L 450.863887 171.703686 
L 451.460678 171.380695 
L 452.05747 171.65969 
L 452.654261 171.250398 
L 453.251053 171.299857 
L 453.847844 171.575726 
L 454.444636 171.207537 
L 455.041427 171.86768 
L 455.638219 171.19964 
L 456.23501 171.064495 
L 456.831801 171.7875 
L 457.428593 171.064782 
L 458.025384 171.187348 
L 458.622176 171.604023 
L 459.815759 171.888027 
L 460.41255 171.30301 
L 461.009342 171.529095 
L 461.606133 171.497257 
L 462.202924 171.123619 
L 462.799716 171.158037 
L 463.396507 171.644663 
L 463.993299 171.830987 
L 464.59009 171.507214 
L 465.186882 171.34703 
L 465.783673 171.353478 
L 466.380465 171.722931 
L 466.977256 171.612591 
L 467.574047 171.653517 
L 468.76763 171.530283 
L 469.364422 171.6877 
L 469.961213 171.372083 
L 470.558005 171.415048 
L 471.154796 171.635205 
L 471.751588 171.574652 
L 472.348379 171.128399 
L 472.94517 171.523431 
L 473.541962 171.600522 
L 474.138753 171.396718 
L 474.735545 171.312941 
L 475.332336 171.421824 
L 477.719502 171.458953 
L 478.316293 171.765277 
L 479.509876 171.500581 
L 481.300251 171.648895 
L 481.897042 171.615499 
L 482.493834 171.336644 
L 483.090625 171.447294 
L 483.687416 171.880552 
L 484.284208 171.525351 
L 484.880999 171.413842 
L 485.477791 171.716409 
L 486.074582 171.406692 
L 486.671374 171.650598 
L 488.461748 171.850013 
L 489.058539 171.87875 
L 489.655331 171.544947 
L 490.252122 171.690293 
L 491.445705 171.612162 
L 492.042497 172.042311 
L 492.639288 171.602169 
L 493.23608 171.76101 
L 493.832871 171.60049 
L 494.429662 171.575155 
L 495.026454 171.782807 
L 495.623245 171.303394 
L 496.220037 171.846943 
L 496.816828 172.22686 
L 497.41362 171.385557 
L 498.010411 171.749951 
L 498.607203 171.570733 
L 499.203994 171.623055 
L 499.800785 171.915835 
L 500.397577 171.576743 
L 500.994368 171.468432 
L 501.59116 171.920446 
L 502.187951 171.957665 
L 502.784743 171.390786 
L 503.381534 171.646143 
L 503.978326 171.629102 
L 505.171908 171.816926 
L 505.7687 171.68513 
L 506.365491 171.806109 
L 506.962283 172.046569 
L 507.559074 171.297708 
L 508.155866 171.603883 
L 508.752657 171.772949 
L 509.349449 171.6523 
L 509.94624 171.374826 
L 511.139823 171.427694 
L 511.736614 172.009548 
L 512.333406 171.364036 
L 513.526989 171.599214 
L 514.12378 171.182616 
L 514.720572 171.62443 
L 515.914154 171.831593 
L 516.510946 171.542116 
L 517.107737 171.764636 
L 517.704529 171.463287 
L 518.30132 171.438166 
L 518.898112 172.100975 
L 519.494903 171.765845 
L 520.091695 171.61204 
L 522.47886 172.221847 
L 523.672443 171.520257 
L 524.269235 171.400278 
L 524.866026 171.564072 
L 525.462818 171.512417 
L 526.6564 171.61739 
L 527.253192 171.554389 
L 527.849983 171.908901 
L 528.446775 171.477327 
L 529.043566 172.091608 
L 529.640358 171.467854 
L 531.430732 171.666127 
L 532.027523 172.186488 
L 532.624315 171.742804 
L 534.414689 171.590847 
L 535.011481 171.158404 
L 535.608272 171.528959 
L 537.995438 171.420891 
L 538.592229 171.722485 
L 539.189021 171.863264 
L 539.785812 171.796162 
L 540.382604 171.490731 
L 540.979395 171.445488 
L 541.576186 171.680148 
L 542.172978 171.6821 
L 542.769769 171.293901 
L 543.366561 171.103215 
L 543.963352 171.539433 
L 545.156935 171.441867 
L 546.947309 171.648299 
L 547.544101 171.515511 
L 548.140892 171.614487 
L 549.931267 171.289406 
L 550.528058 171.409006 
L 551.12485 171.19151 
L 551.721641 171.651945 
L 552.318432 170.761083 
L 552.915224 170.987507 
L 553.512015 170.596013 
L 554.108807 170.737447 
L 554.705598 170.661208 
L 555.30239 170.928541 
L 556.495973 171.102284 
L 557.092764 171.42396 
L 557.689555 170.886879 
L 558.286347 171.345256 
L 558.883138 171.01546 
L 559.47993 171.26267 
L 560.673513 171.009744 
L 561.270304 170.808042 
L 561.867096 171.328662 
L 562.463887 170.938545 
L 563.060678 170.867777 
L 564.254261 171.161667 
L 564.851053 171.29173 
L 565.447844 170.840532 
L 566.044636 171.08189 
L 566.641427 171.124606 
L 567.238219 171.29218 
L 567.83501 171.137038 
L 568.431801 171.198372 
L 569.028593 171.599172 
L 569.625384 171.300605 
L 570.222176 171.175879 
L 570.818967 171.381855 
L 571.415759 171.287735 
L 572.01255 171.65396 
L 572.609342 171.319707 
L 573.206133 171.636511 
L 573.802924 171.403219 
L 574.399716 171.330179 
L 574.996507 170.920461 
L 575.593299 171.171368 
L 576.19009 171.198484 
L 576.786882 170.872133 
L 577.383673 171.144007 
L 579.174047 171.376753 
L 579.770839 171.557049 
L 580.36763 171.08047 
L 580.964422 171.45491 
L 581.561213 171.121281 
L 582.158005 171.235663 
L 582.754796 171.595601 
L 583.351588 171.396206 
L 585.141962 171.330871 
L 585.738753 170.934157 
L 586.335545 170.870753 
L 586.932336 171.170502 
L 587.529128 170.882795 
L 588.125919 171.036573 
L 588.722711 171.026358 
L 589.916293 171.299812 
L 590.513085 170.904056 
L 591.109876 171.293444 
L 591.706668 171.157349 
L 592.900251 171.257007 
L 594.093834 171.341784 
L 594.690625 171.881538 
L 595.287416 171.190762 
L 595.884208 170.920531 
L 596.480999 171.002608 
L 597.077791 170.940161 
L 597.674582 171.236111 
L 598.271374 170.691898 
L 598.868165 170.6631 
L 599.464957 171.289256 
L 600.061748 170.834097 
L 600.658539 171.337713 
L 601.255331 170.954675 
L 601.852122 170.995028 
L 603.045705 170.695438 
L 603.642497 170.874813 
L 604.83608 171.045581 
L 605.432871 171.791283 
L 606.626454 170.743319 
L 607.223245 170.589246 
L 608.416828 171.082335 
L 609.01362 170.878595 
L 609.610411 171.202007 
L 610.207203 170.834619 
L 610.803994 170.857913 
L 611.997577 171.258332 
L 612.594368 170.645336 
L 613.19116 170.801055 
L 613.787951 171.163091 
L 614.981534 171.148606 
L 615.578326 171.214201 
L 616.175117 171.105061 
L 616.771908 170.849566 
L 617.3687 170.933592 
L 617.965491 171.135447 
L 619.159074 171.022335 
L 619.755866 171.532721 
L 620.949449 171.081306 
L 621.54624 171.417653 
L 622.143031 170.865572 
L 622.739823 171.186786 
L 623.336614 171.2233 
L 623.933406 171.100225 
L 625.126989 171.250457 
L 625.126989 171.250457 
" clip-path="url(#p0baf369db5)" style="fill: none; stroke: #ff7f0e; stroke-width: 1.5; stroke-linecap: square"/>
   </g>
   <g id="patch_3">
    <path d="M 92.490625 308.63625 
L 92.490625 31.43625 
" style="fill: none; stroke: #000000; stroke-width: 0.8; stroke-linejoin: miter; stroke-linecap: square"/>
   </g>
   <g id="patch_4">
    <path d="M 650.490625 308.63625 
L 650.490625 31.43625 
" style="fill: none; stroke: #000000; stroke-width: 0.8; stroke-linejoin: miter; stroke-linecap: square"/>
   </g>
   <g id="patch_5">
    <path d="M 92.490625 308.63625 
L 650.490625 308.63625 
" style="fill: none; stroke: #000000; stroke-width: 0.8; stroke-linejoin: miter; stroke-linecap: square"/>
   </g>
   <g id="patch_6">
    <path d="M 92.490625 31.43625 
L 650.490625 31.43625 
" style="fill: none; stroke: #000000; stroke-width: 0.8; stroke-linejoin: miter; stroke-linecap: square"/>
   </g>
   <g id="text_13">
    <!-- Generator and Discriminator Loss During Training -->
    <g transform="translate(74.258125 25.43625) scale(0.24 -0.24)">
     <defs>
      <path id="DejaVuSans-47" d="M 3809 666 
L 3809 1919 
L 2778 1919 
L 2778 2438 
L 4434 2438 
L 4434 434 
Q 4069 175 3628 42 
Q 3188 -91 2688 -91 
Q 1594 -91 976 548 
Q 359 1188 359 2328 
Q 359 3472 976 4111 
Q 1594 4750 2688 4750 
Q 3144 4750 3555 4637 
Q 3966 4525 4313 4306 
L 4313 3634 
Q 3963 3931 3569 4081 
Q 3175 4231 2741 4231 
Q 1884 4231 1454 3753 
Q 1025 3275 1025 2328 
Q 1025 1384 1454 906 
Q 1884 428 2741 428 
Q 3075 428 3337 486 
Q 3600 544 3809 666 
z
" transform="scale(0.015625)"/>
      <path id="DejaVuSans-20" transform="scale(0.015625)"/>
      <path id="DejaVuSans-64" d="M 2906 2969 
L 2906 4863 
L 3481 4863 
L 3481 0 
L 2906 0 
L 2906 525 
Q 2725 213 2448 61 
Q 2172 -91 1784 -91 
Q 1150 -91 751 415 
Q 353 922 353 1747 
Q 353 2572 751 3078 
Q 1150 3584 1784 3584 
Q 2172 3584 2448 3432 
Q 2725 3281 2906 2969 
z
M 947 1747 
Q 947 1113 1208 752 
Q 1469 391 1925 391 
Q 2381 391 2643 752 
Q 2906 1113 2906 1747 
Q 2906 2381 2643 2742 
Q 2381 3103 1925 3103 
Q 1469 3103 1208 2742 
Q 947 2381 947 1747 
z
" transform="scale(0.015625)"/>
      <path id="DejaVuSans-44" d="M 1259 4147 
L 1259 519 
L 2022 519 
Q 2988 519 3436 956 
Q 3884 1394 3884 2338 
Q 3884 3275 3436 3711 
Q 2988 4147 2022 4147 
L 1259 4147 
z
M 628 4666 
L 1925 4666 
Q 3281 4666 3915 4102 
Q 4550 3538 4550 2338 
Q 4550 1131 3912 565 
Q 3275 0 1925 0 
L 628 0 
L 628 4666 
z
" transform="scale(0.015625)"/>
      <path id="DejaVuSans-63" d="M 3122 3366 
L 3122 2828 
Q 2878 2963 2633 3030 
Q 2388 3097 2138 3097 
Q 1578 3097 1268 2742 
Q 959 2388 959 1747 
Q 959 1106 1268 751 
Q 1578 397 2138 397 
Q 2388 397 2633 464 
Q 2878 531 3122 666 
L 3122 134 
Q 2881 22 2623 -34 
Q 2366 -91 2075 -91 
Q 1284 -91 818 406 
Q 353 903 353 1747 
Q 353 2603 823 3093 
Q 1294 3584 2113 3584 
Q 2378 3584 2631 3529 
Q 2884 3475 3122 3366 
z
" transform="scale(0.015625)"/>
      <path id="DejaVuSans-6d" d="M 3328 2828 
Q 3544 3216 3844 3400 
Q 4144 3584 4550 3584 
Q 5097 3584 5394 3201 
Q 5691 2819 5691 2113 
L 5691 0 
L 5113 0 
L 5113 2094 
Q 5113 2597 4934 2840 
Q 4756 3084 4391 3084 
Q 3944 3084 3684 2787 
Q 3425 2491 3425 1978 
L 3425 0 
L 2847 0 
L 2847 2094 
Q 2847 2600 2669 2842 
Q 2491 3084 2119 3084 
Q 1678 3084 1418 2786 
Q 1159 2488 1159 1978 
L 1159 0 
L 581 0 
L 581 3500 
L 1159 3500 
L 1159 2956 
Q 1356 3278 1631 3431 
Q 1906 3584 2284 3584 
Q 2666 3584 2933 3390 
Q 3200 3197 3328 2828 
z
" transform="scale(0.015625)"/>
      <path id="DejaVuSans-75" d="M 544 1381 
L 544 3500 
L 1119 3500 
L 1119 1403 
Q 1119 906 1312 657 
Q 1506 409 1894 409 
Q 2359 409 2629 706 
Q 2900 1003 2900 1516 
L 2900 3500 
L 3475 3500 
L 3475 0 
L 2900 0 
L 2900 538 
Q 2691 219 2414 64 
Q 2138 -91 1772 -91 
Q 1169 -91 856 284 
Q 544 659 544 1381 
z
M 1991 3584 
L 1991 3584 
z
" transform="scale(0.015625)"/>
      <path id="DejaVuSans-67" d="M 2906 1791 
Q 2906 2416 2648 2759 
Q 2391 3103 1925 3103 
Q 1463 3103 1205 2759 
Q 947 2416 947 1791 
Q 947 1169 1205 825 
Q 1463 481 1925 481 
Q 2391 481 2648 825 
Q 2906 1169 2906 1791 
z
M 3481 434 
Q 3481 -459 3084 -895 
Q 2688 -1331 1869 -1331 
Q 1566 -1331 1297 -1286 
Q 1028 -1241 775 -1147 
L 775 -588 
Q 1028 -725 1275 -790 
Q 1522 -856 1778 -856 
Q 2344 -856 2625 -561 
Q 2906 -266 2906 331 
L 2906 616 
Q 2728 306 2450 153 
Q 2172 0 1784 0 
Q 1141 0 747 490 
Q 353 981 353 1791 
Q 353 2603 747 3093 
Q 1141 3584 1784 3584 
Q 2172 3584 2450 3431 
Q 2728 3278 2906 2969 
L 2906 3500 
L 3481 3500 
L 3481 434 
z
" transform="scale(0.015625)"/>
      <path id="DejaVuSans-54" d="M -19 4666 
L 3928 4666 
L 3928 4134 
L 2272 4134 
L 2272 0 
L 1638 0 
L 1638 4134 
L -19 4134 
L -19 4666 
z
" transform="scale(0.015625)"/>
     </defs>
     <use xlink:href="#DejaVuSans-47"/>
     <use xlink:href="#DejaVuSans-65" x="77.490234"/>
     <use xlink:href="#DejaVuSans-6e" x="139.013672"/>
     <use xlink:href="#DejaVuSans-65" x="202.392578"/>
     <use xlink:href="#DejaVuSans-72" x="263.916016"/>
     <use xlink:href="#DejaVuSans-61" x="305.029297"/>
     <use xlink:href="#DejaVuSans-74" x="366.308594"/>
     <use xlink:href="#DejaVuSans-6f" x="405.517578"/>
     <use xlink:href="#DejaVuSans-72" x="466.699219"/>
     <use xlink:href="#DejaVuSans-20" x="507.8125"/>
     <use xlink:href="#DejaVuSans-61" x="539.599609"/>
     <use xlink:href="#DejaVuSans-6e" x="600.878906"/>
     <use xlink:href="#DejaVuSans-64" x="664.257812"/>
     <use xlink:href="#DejaVuSans-20" x="727.734375"/>
     <use xlink:href="#DejaVuSans-44" x="759.521484"/>
     <use xlink:href="#DejaVuSans-69" x="836.523438"/>
     <use xlink:href="#DejaVuSans-73" x="864.306641"/>
     <use xlink:href="#DejaVuSans-63" x="916.40625"/>
     <use xlink:href="#DejaVuSans-72" x="971.386719"/>
     <use xlink:href="#DejaVuSans-69" x="1012.5"/>
     <use xlink:href="#DejaVuSans-6d" x="1040.283203"/>
     <use xlink:href="#DejaVuSans-69" x="1137.695312"/>
     <use xlink:href="#DejaVuSans-6e" x="1165.478516"/>
     <use xlink:href="#DejaVuSans-61" x="1228.857422"/>
     <use xlink:href="#DejaVuSans-74" x="1290.136719"/>
     <use xlink:href="#DejaVuSans-6f" x="1329.345703"/>
     <use xlink:href="#DejaVuSans-72" x="1390.527344"/>
     <use xlink:href="#DejaVuSans-20" x="1431.640625"/>
     <use xlink:href="#DejaVuSans-4c" x="1463.427734"/>
     <use xlink:href="#DejaVuSans-6f" x="1517.390625"/>
     <use xlink:href="#DejaVuSans-73" x="1578.572266"/>
     <use xlink:href="#DejaVuSans-73" x="1630.671875"/>
     <use xlink:href="#DejaVuSans-20" x="1682.771484"/>
     <use xlink:href="#DejaVuSans-44" x="1714.558594"/>
     <use xlink:href="#DejaVuSans-75" x="1791.560547"/>
     <use xlink:href="#DejaVuSans-72" x="1854.939453"/>
     <use xlink:href="#DejaVuSans-69" x="1896.052734"/>
     <use xlink:href="#DejaVuSans-6e" x="1923.835938"/>
     <use xlink:href="#DejaVuSans-67" x="1987.214844"/>
     <use xlink:href="#DejaVuSans-20" x="2050.691406"/>
     <use xlink:href="#DejaVuSans-54" x="2082.478516"/>
     <use xlink:href="#DejaVuSans-72" x="2128.8125"/>
     <use xlink:href="#DejaVuSans-61" x="2169.925781"/>
     <use xlink:href="#DejaVuSans-69" x="2231.205078"/>
     <use xlink:href="#DejaVuSans-6e" x="2258.988281"/>
     <use xlink:href="#DejaVuSans-69" x="2322.367188"/>
     <use xlink:href="#DejaVuSans-6e" x="2350.150391"/>
     <use xlink:href="#DejaVuSans-67" x="2413.529297"/>
    </g>
   </g>
   <g id="legend_1">
    <g id="patch_7">
     <path d="M 556.99375 106.14875 
L 636.490625 106.14875 
Q 640.490625 106.14875 640.490625 102.14875 
L 640.490625 45.43625 
Q 640.490625 41.43625 636.490625 41.43625 
L 556.99375 41.43625 
Q 552.99375 41.43625 552.99375 45.43625 
L 552.99375 102.14875 
Q 552.99375 106.14875 556.99375 106.14875 
z
" style="fill: #ffffff; opacity: 0.8; stroke: #cccccc; stroke-linejoin: miter"/>
    </g>
    <g id="line2d_13">
     <path d="M 560.99375 57.633125 
L 580.99375 57.633125 
L 600.99375 57.633125 
" style="fill: none; stroke: #1f77b4; stroke-width: 1.5; stroke-linecap: square"/>
    </g>
    <g id="text_14">
     <!-- G -->
     <g transform="translate(616.99375 64.633125) scale(0.2 -0.2)">
      <use xlink:href="#DejaVuSans-47"/>
     </g>
    </g>
    <g id="line2d_14">
     <path d="M 560.99375 86.989375 
L 580.99375 86.989375 
L 600.99375 86.989375 
" style="fill: none; stroke: #ff7f0e; stroke-width: 1.5; stroke-linecap: square"/>
    </g>
    <g id="text_15">
     <!-- D -->
     <g transform="translate(616.99375 93.989375) scale(0.2 -0.2)">
      <use xlink:href="#DejaVuSans-44"/>
     </g>
    </g>
   </g>
  </g>
 </g>
 <defs>
  <clipPath id="p0baf369db5">
   <rect x="92.490625" y="31.43625" width="558" height="277.2"/>
  </clipPath>
 </defs>
</svg>
