<?xml version="1.0" encoding="utf-8" standalone="no"?>
<!DOCTYPE svg PUBLIC "-//W3C//DTD SVG 1.1//EN"
  "http://www.w3.org/Graphics/SVG/1.1/DTD/svg11.dtd">
<svg xmlns:xlink="http://www.w3.org/1999/xlink" width="675.923125pt" height="365.54875pt" viewBox="0 0 675.923125 365.54875" xmlns="http://www.w3.org/2000/svg" version="1.1">
 <metadata>
  <rdf:RDF xmlns:dc="http://purl.org/dc/elements/1.1/" xmlns:cc="http://creativecommons.org/ns#" xmlns:rdf="http://www.w3.org/1999/02/22-rdf-syntax-ns#">
   <cc:Work>
    <dc:type rdf:resource="http://purl.org/dc/dcmitype/StillImage"/>
    <dc:date>2024-02-02T15:28:10.598517</dc:date>
    <dc:format>image/svg+xml</dc:format>
    <dc:creator>
     <cc:Agent>
      <dc:title>Matplotlib v3.7.2, https://matplotlib.org/</dc:title>
     </cc:Agent>
    </dc:creator>
   </cc:Work>
  </rdf:RDF>
 </metadata>
 <defs>
  <style type="text/css">*{stroke-linejoin: round; stroke-linecap: butt}</style>
 </defs>
 <g id="figure_1">
  <g id="patch_1">
   <path d="M 0 365.54875 
L 675.923125 365.54875 
L 675.923125 -0 
L 0 -0 
z
" style="fill: #ffffff"/>
  </g>
  <g id="axes_1">
   <g id="patch_2">
    <path d="M 92.490625 308.63625 
L 650.490625 308.63625 
L 650.490625 31.43625 
L 92.490625 31.43625 
z
" style="fill: #ffffff"/>
   </g>
   <g id="matplotlib.axis_1">
    <g id="xtick_1">
     <g id="line2d_1">
      <defs>
       <path id="mb25b14915b" d="M 0 0 
L 0 3.5 
" style="stroke: #000000; stroke-width: 0.8"/>
      </defs>
      <g>
       <use xlink:href="#mb25b14915b" x="117.854261" y="308.63625" style="stroke: #000000; stroke-width: 0.8"/>
      </g>
     </g>
     <g id="text_1">
      <!-- 0 -->
      <g transform="translate(111.491761 330.833125) scale(0.2 -0.2)">
       <defs>
        <path id="DejaVuSans-30" d="M 2034 4250 
Q 1547 4250 1301 3770 
Q 1056 3291 1056 2328 
Q 1056 1369 1301 889 
Q 1547 409 2034 409 
Q 2525 409 2770 889 
Q 3016 1369 3016 2328 
Q 3016 3291 2770 3770 
Q 2525 4250 2034 4250 
z
M 2034 4750 
Q 2819 4750 3233 4129 
Q 3647 3509 3647 2328 
Q 3647 1150 3233 529 
Q 2819 -91 2034 -91 
Q 1250 -91 836 529 
Q 422 1150 422 2328 
Q 422 3509 836 4129 
Q 1250 4750 2034 4750 
z
" transform="scale(0.015625)"/>
       </defs>
       <use xlink:href="#DejaVuSans-30"/>
      </g>
     </g>
    </g>
    <g id="xtick_2">
     <g id="line2d_2">
      <g>
       <use xlink:href="#mb25b14915b" x="202.399716" y="308.63625" style="stroke: #000000; stroke-width: 0.8"/>
      </g>
     </g>
     <g id="text_2">
      <!-- 50 -->
      <g transform="translate(189.674716 330.833125) scale(0.2 -0.2)">
       <defs>
        <path id="DejaVuSans-35" d="M 691 4666 
L 3169 4666 
L 3169 4134 
L 1269 4134 
L 1269 2991 
Q 1406 3038 1543 3061 
Q 1681 3084 1819 3084 
Q 2600 3084 3056 2656 
Q 3513 2228 3513 1497 
Q 3513 744 3044 326 
Q 2575 -91 1722 -91 
Q 1428 -91 1123 -41 
Q 819 9 494 109 
L 494 744 
Q 775 591 1075 516 
Q 1375 441 1709 441 
Q 2250 441 2565 725 
Q 2881 1009 2881 1497 
Q 2881 1984 2565 2268 
Q 2250 2553 1709 2553 
Q 1456 2553 1204 2497 
Q 953 2441 691 2322 
L 691 4666 
z
" transform="scale(0.015625)"/>
       </defs>
       <use xlink:href="#DejaVuSans-35"/>
       <use xlink:href="#DejaVuSans-30" x="63.623047"/>
      </g>
     </g>
    </g>
    <g id="xtick_3">
     <g id="line2d_3">
      <g>
       <use xlink:href="#mb25b14915b" x="286.94517" y="308.63625" style="stroke: #000000; stroke-width: 0.8"/>
      </g>
     </g>
     <g id="text_3">
      <!-- 100 -->
      <g transform="translate(267.85767 330.833125) scale(0.2 -0.2)">
       <defs>
        <path id="DejaVuSans-31" d="M 794 531 
L 1825 531 
L 1825 4091 
L 703 3866 
L 703 4441 
L 1819 4666 
L 2450 4666 
L 2450 531 
L 3481 531 
L 3481 0 
L 794 0 
L 794 531 
z
" transform="scale(0.015625)"/>
       </defs>
       <use xlink:href="#DejaVuSans-31"/>
       <use xlink:href="#DejaVuSans-30" x="63.623047"/>
       <use xlink:href="#DejaVuSans-30" x="127.246094"/>
      </g>
     </g>
    </g>
    <g id="xtick_4">
     <g id="line2d_4">
      <g>
       <use xlink:href="#mb25b14915b" x="371.490625" y="308.63625" style="stroke: #000000; stroke-width: 0.8"/>
      </g>
     </g>
     <g id="text_4">
      <!-- 150 -->
      <g transform="translate(352.403125 330.833125) scale(0.2 -0.2)">
       <use xlink:href="#DejaVuSans-31"/>
       <use xlink:href="#DejaVuSans-35" x="63.623047"/>
       <use xlink:href="#DejaVuSans-30" x="127.246094"/>
      </g>
     </g>
    </g>
    <g id="xtick_5">
     <g id="line2d_5">
      <g>
       <use xlink:href="#mb25b14915b" x="456.03608" y="308.63625" style="stroke: #000000; stroke-width: 0.8"/>
      </g>
     </g>
     <g id="text_5">
      <!-- 200 -->
      <g transform="translate(436.94858 330.833125) scale(0.2 -0.2)">
       <defs>
        <path id="DejaVuSans-32" d="M 1228 531 
L 3431 531 
L 3431 0 
L 469 0 
L 469 531 
Q 828 903 1448 1529 
Q 2069 2156 2228 2338 
Q 2531 2678 2651 2914 
Q 2772 3150 2772 3378 
Q 2772 3750 2511 3984 
Q 2250 4219 1831 4219 
Q 1534 4219 1204 4116 
Q 875 4013 500 3803 
L 500 4441 
Q 881 4594 1212 4672 
Q 1544 4750 1819 4750 
Q 2544 4750 2975 4387 
Q 3406 4025 3406 3419 
Q 3406 3131 3298 2873 
Q 3191 2616 2906 2266 
Q 2828 2175 2409 1742 
Q 1991 1309 1228 531 
z
" transform="scale(0.015625)"/>
       </defs>
       <use xlink:href="#DejaVuSans-32"/>
       <use xlink:href="#DejaVuSans-30" x="63.623047"/>
       <use xlink:href="#DejaVuSans-30" x="127.246094"/>
      </g>
     </g>
    </g>
    <g id="xtick_6">
     <g id="line2d_6">
      <g>
       <use xlink:href="#mb25b14915b" x="540.581534" y="308.63625" style="stroke: #000000; stroke-width: 0.8"/>
      </g>
     </g>
     <g id="text_6">
      <!-- 250 -->
      <g transform="translate(521.494034 330.833125) scale(0.2 -0.2)">
       <use xlink:href="#DejaVuSans-32"/>
       <use xlink:href="#DejaVuSans-35" x="63.623047"/>
       <use xlink:href="#DejaVuSans-30" x="127.246094"/>
      </g>
     </g>
    </g>
    <g id="xtick_7">
     <g id="line2d_7">
      <g>
       <use xlink:href="#mb25b14915b" x="625.126989" y="308.63625" style="stroke: #000000; stroke-width: 0.8"/>
      </g>
     </g>
     <g id="text_7">
      <!-- 300 -->
      <g transform="translate(606.039489 330.833125) scale(0.2 -0.2)">
       <defs>
        <path id="DejaVuSans-33" d="M 2597 2516 
Q 3050 2419 3304 2112 
Q 3559 1806 3559 1356 
Q 3559 666 3084 287 
Q 2609 -91 1734 -91 
Q 1441 -91 1130 -33 
Q 819 25 488 141 
L 488 750 
Q 750 597 1062 519 
Q 1375 441 1716 441 
Q 2309 441 2620 675 
Q 2931 909 2931 1356 
Q 2931 1769 2642 2001 
Q 2353 2234 1838 2234 
L 1294 2234 
L 1294 2753 
L 1863 2753 
Q 2328 2753 2575 2939 
Q 2822 3125 2822 3475 
Q 2822 3834 2567 4026 
Q 2313 4219 1838 4219 
Q 1578 4219 1281 4162 
Q 984 4106 628 3988 
L 628 4550 
Q 988 4650 1302 4700 
Q 1616 4750 1894 4750 
Q 2613 4750 3031 4423 
Q 3450 4097 3450 3541 
Q 3450 3153 3228 2886 
Q 3006 2619 2597 2516 
z
" transform="scale(0.015625)"/>
       </defs>
       <use xlink:href="#DejaVuSans-33"/>
       <use xlink:href="#DejaVuSans-30" x="63.623047"/>
       <use xlink:href="#DejaVuSans-30" x="127.246094"/>
      </g>
     </g>
    </g>
    <g id="text_8">
     <!-- iterations -->
     <g transform="translate(324.035938 354.189375) scale(0.2 -0.2)">
      <defs>
       <path id="DejaVuSans-69" d="M 603 3500 
L 1178 3500 
L 1178 0 
L 603 0 
L 603 3500 
z
M 603 4863 
L 1178 4863 
L 1178 4134 
L 603 4134 
L 603 4863 
z
" transform="scale(0.015625)"/>
       <path id="DejaVuSans-74" d="M 1172 4494 
L 1172 3500 
L 2356 3500 
L 2356 3053 
L 1172 3053 
L 1172 1153 
Q 1172 725 1289 603 
Q 1406 481 1766 481 
L 2356 481 
L 2356 0 
L 1766 0 
Q 1100 0 847 248 
Q 594 497 594 1153 
L 594 3053 
L 172 3053 
L 172 3500 
L 594 3500 
L 594 4494 
L 1172 4494 
z
" transform="scale(0.015625)"/>
       <path id="DejaVuSans-65" d="M 3597 1894 
L 3597 1613 
L 953 1613 
Q 991 1019 1311 708 
Q 1631 397 2203 397 
Q 2534 397 2845 478 
Q 3156 559 3463 722 
L 3463 178 
Q 3153 47 2828 -22 
Q 2503 -91 2169 -91 
Q 1331 -91 842 396 
Q 353 884 353 1716 
Q 353 2575 817 3079 
Q 1281 3584 2069 3584 
Q 2775 3584 3186 3129 
Q 3597 2675 3597 1894 
z
M 3022 2063 
Q 3016 2534 2758 2815 
Q 2500 3097 2075 3097 
Q 1594 3097 1305 2825 
Q 1016 2553 972 2059 
L 3022 2063 
z
" transform="scale(0.015625)"/>
       <path id="DejaVuSans-72" d="M 2631 2963 
Q 2534 3019 2420 3045 
Q 2306 3072 2169 3072 
Q 1681 3072 1420 2755 
Q 1159 2438 1159 1844 
L 1159 0 
L 581 0 
L 581 3500 
L 1159 3500 
L 1159 2956 
Q 1341 3275 1631 3429 
Q 1922 3584 2338 3584 
Q 2397 3584 2469 3576 
Q 2541 3569 2628 3553 
L 2631 2963 
z
" transform="scale(0.015625)"/>
       <path id="DejaVuSans-61" d="M 2194 1759 
Q 1497 1759 1228 1600 
Q 959 1441 959 1056 
Q 959 750 1161 570 
Q 1363 391 1709 391 
Q 2188 391 2477 730 
Q 2766 1069 2766 1631 
L 2766 1759 
L 2194 1759 
z
M 3341 1997 
L 3341 0 
L 2766 0 
L 2766 531 
Q 2569 213 2275 61 
Q 1981 -91 1556 -91 
Q 1019 -91 701 211 
Q 384 513 384 1019 
Q 384 1609 779 1909 
Q 1175 2209 1959 2209 
L 2766 2209 
L 2766 2266 
Q 2766 2663 2505 2880 
Q 2244 3097 1772 3097 
Q 1472 3097 1187 3025 
Q 903 2953 641 2809 
L 641 3341 
Q 956 3463 1253 3523 
Q 1550 3584 1831 3584 
Q 2591 3584 2966 3190 
Q 3341 2797 3341 1997 
z
" transform="scale(0.015625)"/>
       <path id="DejaVuSans-6f" d="M 1959 3097 
Q 1497 3097 1228 2736 
Q 959 2375 959 1747 
Q 959 1119 1226 758 
Q 1494 397 1959 397 
Q 2419 397 2687 759 
Q 2956 1122 2956 1747 
Q 2956 2369 2687 2733 
Q 2419 3097 1959 3097 
z
M 1959 3584 
Q 2709 3584 3137 3096 
Q 3566 2609 3566 1747 
Q 3566 888 3137 398 
Q 2709 -91 1959 -91 
Q 1206 -91 779 398 
Q 353 888 353 1747 
Q 353 2609 779 3096 
Q 1206 3584 1959 3584 
z
" transform="scale(0.015625)"/>
       <path id="DejaVuSans-6e" d="M 3513 2113 
L 3513 0 
L 2938 0 
L 2938 2094 
Q 2938 2591 2744 2837 
Q 2550 3084 2163 3084 
Q 1697 3084 1428 2787 
Q 1159 2491 1159 1978 
L 1159 0 
L 581 0 
L 581 3500 
L 1159 3500 
L 1159 2956 
Q 1366 3272 1645 3428 
Q 1925 3584 2291 3584 
Q 2894 3584 3203 3211 
Q 3513 2838 3513 2113 
z
" transform="scale(0.015625)"/>
       <path id="DejaVuSans-73" d="M 2834 3397 
L 2834 2853 
Q 2591 2978 2328 3040 
Q 2066 3103 1784 3103 
Q 1356 3103 1142 2972 
Q 928 2841 928 2578 
Q 928 2378 1081 2264 
Q 1234 2150 1697 2047 
L 1894 2003 
Q 2506 1872 2764 1633 
Q 3022 1394 3022 966 
Q 3022 478 2636 193 
Q 2250 -91 1575 -91 
Q 1294 -91 989 -36 
Q 684 19 347 128 
L 347 722 
Q 666 556 975 473 
Q 1284 391 1588 391 
Q 1994 391 2212 530 
Q 2431 669 2431 922 
Q 2431 1156 2273 1281 
Q 2116 1406 1581 1522 
L 1381 1569 
Q 847 1681 609 1914 
Q 372 2147 372 2553 
Q 372 3047 722 3315 
Q 1072 3584 1716 3584 
Q 2034 3584 2315 3537 
Q 2597 3491 2834 3397 
z
" transform="scale(0.015625)"/>
      </defs>
      <use xlink:href="#DejaVuSans-69"/>
      <use xlink:href="#DejaVuSans-74" x="27.783203"/>
      <use xlink:href="#DejaVuSans-65" x="66.992188"/>
      <use xlink:href="#DejaVuSans-72" x="128.515625"/>
      <use xlink:href="#DejaVuSans-61" x="169.628906"/>
      <use xlink:href="#DejaVuSans-74" x="230.908203"/>
      <use xlink:href="#DejaVuSans-69" x="270.117188"/>
      <use xlink:href="#DejaVuSans-6f" x="297.900391"/>
      <use xlink:href="#DejaVuSans-6e" x="359.082031"/>
      <use xlink:href="#DejaVuSans-73" x="422.460938"/>
     </g>
    </g>
   </g>
   <g id="matplotlib.axis_2">
    <g id="ytick_1">
     <g id="line2d_8">
      <defs>
       <path id="m866d646189" d="M 0 0 
L -3.5 0 
" style="stroke: #000000; stroke-width: 0.8"/>
      </defs>
      <g>
       <use xlink:href="#m866d646189" x="92.490625" y="279.562782" style="stroke: #000000; stroke-width: 0.8"/>
      </g>
     </g>
     <g id="text_9">
      <!-- −200 -->
      <g transform="translate(30.55625 287.16122) scale(0.2 -0.2)">
       <defs>
        <path id="DejaVuSans-2212" d="M 678 2272 
L 4684 2272 
L 4684 1741 
L 678 1741 
L 678 2272 
z
" transform="scale(0.015625)"/>
       </defs>
       <use xlink:href="#DejaVuSans-2212"/>
       <use xlink:href="#DejaVuSans-32" x="83.789062"/>
       <use xlink:href="#DejaVuSans-30" x="147.412109"/>
       <use xlink:href="#DejaVuSans-30" x="211.035156"/>
      </g>
     </g>
    </g>
    <g id="ytick_2">
     <g id="line2d_9">
      <g>
       <use xlink:href="#m866d646189" x="92.490625" y="229.718252" style="stroke: #000000; stroke-width: 0.8"/>
      </g>
     </g>
     <g id="text_10">
      <!-- −100 -->
      <g transform="translate(30.55625 237.316689) scale(0.2 -0.2)">
       <use xlink:href="#DejaVuSans-2212"/>
       <use xlink:href="#DejaVuSans-31" x="83.789062"/>
       <use xlink:href="#DejaVuSans-30" x="147.412109"/>
       <use xlink:href="#DejaVuSans-30" x="211.035156"/>
      </g>
     </g>
    </g>
    <g id="ytick_3">
     <g id="line2d_10">
      <g>
       <use xlink:href="#m866d646189" x="92.490625" y="179.873722" style="stroke: #000000; stroke-width: 0.8"/>
      </g>
     </g>
     <g id="text_11">
      <!-- 0 -->
      <g transform="translate(72.765625 187.472159) scale(0.2 -0.2)">
       <use xlink:href="#DejaVuSans-30"/>
      </g>
     </g>
    </g>
    <g id="ytick_4">
     <g id="line2d_11">
      <g>
       <use xlink:href="#m866d646189" x="92.490625" y="130.029191" style="stroke: #000000; stroke-width: 0.8"/>
      </g>
     </g>
     <g id="text_12">
      <!-- 100 -->
      <g transform="translate(47.315625 137.627629) scale(0.2 -0.2)">
       <use xlink:href="#DejaVuSans-31"/>
       <use xlink:href="#DejaVuSans-30" x="63.623047"/>
       <use xlink:href="#DejaVuSans-30" x="127.246094"/>
      </g>
     </g>
    </g>
    <g id="ytick_5">
     <g id="line2d_12">
      <g>
       <use xlink:href="#m866d646189" x="92.490625" y="80.184661" style="stroke: #000000; stroke-width: 0.8"/>
      </g>
     </g>
     <g id="text_13">
      <!-- 200 -->
      <g transform="translate(47.315625 87.783098) scale(0.2 -0.2)">
       <use xlink:href="#DejaVuSans-32"/>
       <use xlink:href="#DejaVuSans-30" x="63.623047"/>
       <use xlink:href="#DejaVuSans-30" x="127.246094"/>
      </g>
     </g>
    </g>
    <g id="text_14">
     <!-- Loss -->
     <g transform="translate(22.396875 191.970625) rotate(-90) scale(0.2 -0.2)">
      <defs>
       <path id="DejaVuSans-4c" d="M 628 4666 
L 1259 4666 
L 1259 531 
L 3531 531 
L 3531 0 
L 628 0 
L 628 4666 
z
" transform="scale(0.015625)"/>
      </defs>
      <use xlink:href="#DejaVuSans-4c"/>
      <use xlink:href="#DejaVuSans-6f" x="53.962891"/>
      <use xlink:href="#DejaVuSans-73" x="115.144531"/>
      <use xlink:href="#DejaVuSans-73" x="167.244141"/>
     </g>
    </g>
   </g>
   <g id="line2d_13">
    <path d="M 117.854261 124.531878 
L 119.54517 113.612244 
L 121.23608 120.519891 
L 122.926989 104.349251 
L 124.617898 82.758685 
L 126.308807 52.516894 
L 127.999716 44.03625 
L 129.690625 61.970005 
L 131.381534 47.184644 
L 133.072443 64.749193 
L 134.763352 80.314335 
L 136.454261 92.451127 
L 138.14517 90.170035 
L 139.83608 95.880516 
L 141.526989 102.578324 
L 143.217898 95.671232 
L 144.908807 100.331578 
L 146.599716 100.663401 
L 148.290625 98.525286 
L 149.981534 104.282319 
L 151.672443 116.142604 
L 153.363352 120.516331 
L 155.054261 130.835256 
L 156.74517 129.173552 
L 158.43608 127.698731 
L 160.126989 125.168182 
L 161.817898 126.943921 
L 163.508807 124.005949 
L 166.890625 122.923807 
L 168.581534 123.257928 
L 170.272443 118.898656 
L 171.963352 119.56434 
L 173.654261 115.700499 
L 175.34517 117.745463 
L 177.03608 123.442567 
L 178.726989 123.774871 
L 180.417898 122.857969 
L 182.108807 122.302379 
L 183.799716 120.942223 
L 185.490625 119.124284 
L 187.181534 125.017556 
L 188.872443 133.214281 
L 190.563352 129.161825 
L 192.254261 123.543387 
L 193.94517 122.23231 
L 195.63608 123.023945 
L 197.326989 127.784878 
L 199.017898 121.940687 
L 200.708807 123.981988 
L 202.399716 127.193599 
L 204.090625 131.485114 
L 205.781534 128.917539 
L 207.472443 136.589669 
L 209.163352 136.567041 
L 210.854261 125.362361 
L 212.54517 126.824283 
L 214.23608 135.707324 
L 215.926989 137.326724 
L 217.617898 136.946144 
L 220.999716 141.297559 
L 222.690625 145.047706 
L 224.381534 145.805225 
L 226.072443 141.997796 
L 229.454261 139.025662 
L 231.14517 137.019952 
L 232.83608 138.139239 
L 234.526989 136.827967 
L 236.217898 138.508057 
L 237.908807 138.220575 
L 239.599716 138.101893 
L 241.290625 135.608969 
L 242.981534 141.338619 
L 246.363352 134.107495 
L 248.054261 138.24287 
L 249.74517 138.539082 
L 251.43608 134.882217 
L 253.126989 125.534589 
L 254.817898 130.92867 
L 256.508807 130.995844 
L 258.199716 129.896139 
L 259.890625 130.701701 
L 261.581534 134.78225 
L 263.272443 136.964739 
L 264.963352 139.833902 
L 266.654261 134.538663 
L 268.34517 132.112555 
L 270.03608 132.679362 
L 271.726989 137.227089 
L 273.417898 136.509092 
L 275.108807 134.164532 
L 276.799716 138.634416 
L 278.490625 137.086605 
L 280.181534 139.48127 
L 281.872443 140.847521 
L 283.563352 136.401101 
L 285.254261 136.610398 
L 286.94517 141.120117 
L 288.63608 141.657382 
L 290.326989 141.745369 
L 293.708807 145.930699 
L 295.399716 144.353858 
L 297.090625 147.068299 
L 300.472443 143.872919 
L 302.163352 144.823045 
L 303.854261 145.322043 
L 305.54517 149.160657 
L 307.23608 151.758086 
L 308.926989 147.409346 
L 310.617898 147.688363 
L 312.308807 145.632317 
L 313.999716 143.905424 
L 315.690625 146.884967 
L 319.072443 147.688029 
L 320.763352 143.357887 
L 322.454261 140.161348 
L 324.14517 143.441326 
L 325.83608 141.701099 
L 327.526989 143.244373 
L 329.217898 141.485977 
L 330.908807 143.743617 
L 332.599716 141.752809 
L 334.290625 144.378451 
L 335.981534 145.924998 
L 339.363352 145.710239 
L 341.054261 146.822277 
L 342.74517 145.065893 
L 344.43608 142.812817 
L 346.126989 146.722669 
L 347.817898 142.762511 
L 349.508807 145.958757 
L 351.199716 145.805341 
L 352.890625 143.312113 
L 354.581534 144.758427 
L 356.272443 147.303361 
L 357.963352 146.89064 
L 359.654261 147.574506 
L 361.34517 148.59455 
L 363.03608 150.653775 
L 364.726989 152.506974 
L 366.417898 150.388494 
L 368.108807 151.806019 
L 369.799716 150.902817 
L 371.490625 151.840849 
L 373.181534 149.806097 
L 374.872443 146.162209 
L 376.563352 148.368318 
L 378.254261 152.27345 
L 379.94517 151.466282 
L 381.63608 152.492185 
L 383.326989 150.095374 
L 385.017898 151.430663 
L 386.708807 152.38361 
L 388.399716 151.164398 
L 390.090625 152.661597 
L 391.781534 153.504509 
L 393.472443 153.070374 
L 395.163352 153.701229 
L 396.854261 155.076172 
L 398.54517 155.925178 
L 400.23608 154.789715 
L 401.926989 153.860758 
L 403.617898 153.674296 
L 405.308807 153.035097 
L 406.999716 154.346622 
L 408.690625 153.598921 
L 410.381534 153.137666 
L 412.072443 153.719381 
L 413.763352 151.537183 
L 415.454261 152.382328 
L 417.14517 153.754748 
L 418.83608 152.730595 
L 420.526989 153.912518 
L 422.217898 155.763226 
L 423.908807 154.635505 
L 425.599716 156.375225 
L 427.290625 154.862806 
L 428.981534 157.097058 
L 430.672443 158.475495 
L 432.363352 159.246486 
L 434.054261 160.579032 
L 435.74517 160.177923 
L 437.43608 158.198611 
L 439.126989 157.632745 
L 440.817898 158.695304 
L 442.508807 158.058747 
L 447.581534 161.274453 
L 449.272443 161.049882 
L 450.963352 162.072976 
L 452.654261 162.780169 
L 454.34517 162.93181 
L 456.03608 162.909826 
L 457.726989 163.16357 
L 459.417898 163.590409 
L 462.799716 163.028633 
L 464.490625 164.160838 
L 466.181534 163.43676 
L 467.872443 163.598174 
L 469.563352 163.302926 
L 471.254261 163.467349 
L 472.94517 163.018195 
L 474.63608 164.735424 
L 476.326989 163.474858 
L 478.017898 161.245375 
L 479.708807 162.806307 
L 483.090625 163.762132 
L 484.781534 163.922568 
L 486.472443 162.747043 
L 488.163352 162.225773 
L 489.854261 162.846469 
L 491.54517 165.236295 
L 493.23608 163.231114 
L 494.926989 163.010536 
L 496.617898 163.003862 
L 498.308807 164.481228 
L 499.999716 164.159237 
L 501.690625 165.05063 
L 503.381534 167.617109 
L 505.072443 166.927606 
L 506.763352 166.829197 
L 508.454261 167.045429 
L 510.14517 167.040901 
L 511.83608 168.045201 
L 515.217898 166.198974 
L 516.908807 166.800597 
L 518.599716 168.759688 
L 520.290625 168.974249 
L 521.981534 166.434748 
L 523.672443 165.174013 
L 525.363352 167.03687 
L 528.74517 167.675998 
L 530.43608 167.355134 
L 532.126989 166.638156 
L 533.817898 167.116547 
L 535.508807 167.266925 
L 537.199716 168.14975 
L 538.890625 167.908898 
L 540.581534 168.146553 
L 542.272443 168.238457 
L 545.654261 167.240999 
L 547.34517 168.253029 
L 549.03608 166.399731 
L 550.726989 167.169623 
L 552.417898 166.210275 
L 554.108807 167.497068 
L 555.799716 165.698517 
L 559.181534 166.698603 
L 560.872443 166.841433 
L 562.563352 166.310281 
L 564.254261 165.479998 
L 565.94517 165.215218 
L 567.63608 165.668773 
L 569.326989 167.322442 
L 571.017898 165.913513 
L 572.708807 165.804076 
L 574.399716 165.367667 
L 576.090625 166.220259 
L 577.781534 166.206106 
L 579.472443 165.972338 
L 581.163352 166.913536 
L 582.854261 166.170453 
L 584.54517 165.912273 
L 586.23608 166.548458 
L 587.926989 165.862925 
L 589.617898 166.657325 
L 591.308807 167.181714 
L 592.999716 166.678216 
L 594.690625 166.675568 
L 596.381534 167.875845 
L 598.072443 168.366442 
L 599.763352 168.449603 
L 601.454261 168.998448 
L 603.14517 169.32032 
L 604.83608 167.9225 
L 606.526989 168.46892 
L 608.217898 168.843936 
L 609.908807 168.960531 
L 611.599716 168.782386 
L 613.290625 168.317253 
L 614.981534 169.688678 
L 616.672443 169.233972 
L 618.363352 169.06092 
L 620.054261 169.872163 
L 621.74517 170.546879 
L 623.43608 170.171745 
L 625.126989 171.878035 
L 625.126989 171.878035 
" clip-path="url(#p871ffa1cb7)" style="fill: none; stroke: #1f77b4; stroke-width: 1.5; stroke-linecap: square"/>
   </g>
   <g id="line2d_14">
    <path d="M 117.854261 296.03625 
L 119.54517 293.670519 
L 121.23608 246.011862 
L 122.926989 269.986081 
L 124.617898 278.80496 
L 126.308807 248.797222 
L 127.999716 230.620247 
L 129.690625 249.231156 
L 131.381534 223.688053 
L 133.072443 220.004876 
L 134.763352 208.447941 
L 136.454261 211.42837 
L 138.14517 210.881812 
L 139.83608 207.172589 
L 141.526989 205.397716 
L 143.217898 204.796222 
L 144.908807 201.902029 
L 146.599716 204.825475 
L 148.290625 199.039532 
L 149.981534 198.542908 
L 151.672443 192.649877 
L 153.363352 193.698227 
L 155.054261 192.006893 
L 156.74517 194.531603 
L 158.43608 193.321072 
L 160.126989 195.950344 
L 161.817898 197.127018 
L 163.508807 197.851664 
L 165.199716 197.33166 
L 166.890625 192.321801 
L 168.581534 190.967719 
L 170.272443 193.33488 
L 171.963352 192.207896 
L 175.34517 192.261632 
L 177.03608 189.654198 
L 178.726989 190.520908 
L 180.417898 191.107552 
L 183.799716 192.103944 
L 185.490625 192.268471 
L 187.181534 189.139459 
L 188.872443 187.000513 
L 190.563352 188.560084 
L 192.254261 190.703189 
L 193.94517 191.730823 
L 195.63608 190.152641 
L 197.326989 189.313256 
L 199.017898 190.141136 
L 200.708807 189.859756 
L 202.399716 189.199789 
L 204.090625 188.181538 
L 205.781534 189.724939 
L 207.472443 185.408925 
L 209.163352 186.78425 
L 210.854261 189.527407 
L 212.54517 190.100574 
L 214.23608 186.043988 
L 215.926989 188.646009 
L 217.617898 187.302461 
L 219.308807 187.322897 
L 220.999716 188.79512 
L 222.690625 187.482793 
L 224.381534 184.947255 
L 226.072443 187.693612 
L 227.763352 186.691977 
L 229.454261 188.118964 
L 231.14517 188.999593 
L 232.83608 187.801246 
L 234.526989 186.831658 
L 236.217898 188.620825 
L 237.908807 188.360617 
L 239.599716 188.945293 
L 241.290625 187.132025 
L 242.981534 186.201876 
L 244.672443 188.283568 
L 248.054261 187.196792 
L 249.74517 186.938449 
L 251.43608 187.869209 
L 253.126989 189.448849 
L 254.817898 186.718774 
L 256.508807 187.926137 
L 258.199716 188.029027 
L 259.890625 190.577963 
L 261.581534 188.203017 
L 263.272443 187.138785 
L 264.963352 187.142223 
L 266.654261 186.650825 
L 268.34517 187.646986 
L 270.03608 189.119807 
L 271.726989 187.357287 
L 275.108807 186.780915 
L 278.490625 187.368904 
L 281.872443 186.468459 
L 283.563352 186.8359 
L 285.254261 186.971379 
L 286.94517 186.899701 
L 288.63608 185.093429 
L 290.326989 186.339165 
L 292.017898 187.794619 
L 293.708807 185.873828 
L 295.399716 187.042895 
L 297.090625 187.159686 
L 298.781534 186.253183 
L 300.472443 188.14548 
L 302.163352 186.173962 
L 303.854261 185.537409 
L 305.54517 184.507913 
L 307.23608 185.289264 
L 308.926989 185.491353 
L 312.308807 185.50605 
L 313.999716 186.706911 
L 319.072443 186.282175 
L 320.763352 187.690941 
L 322.454261 187.862135 
L 324.14517 187.247781 
L 325.83608 187.676233 
L 327.526989 187.559511 
L 329.217898 186.670892 
L 330.908807 186.806549 
L 332.599716 187.357622 
L 334.290625 185.867307 
L 335.981534 187.427715 
L 337.672443 187.569171 
L 339.363352 186.07568 
L 341.054261 187.16852 
L 342.74517 186.5731 
L 346.126989 187.488045 
L 347.817898 188.414262 
L 349.508807 186.39198 
L 351.199716 186.976814 
L 352.890625 187.007496 
L 354.581534 187.455282 
L 356.272443 187.062753 
L 357.963352 187.688059 
L 359.654261 188.913983 
L 361.34517 187.573495 
L 364.726989 187.191744 
L 366.417898 188.389262 
L 368.108807 187.798525 
L 369.799716 188.176457 
L 371.490625 187.385669 
L 373.181534 187.75249 
L 374.872443 188.699782 
L 376.563352 187.992732 
L 379.94517 187.416289 
L 381.63608 187.418395 
L 383.326989 188.303428 
L 385.017898 188.623496 
L 386.708807 187.288899 
L 388.399716 187.427393 
L 390.090625 186.829265 
L 395.163352 187.035494 
L 396.854261 187.28354 
L 398.54517 186.891307 
L 400.23608 186.72 
L 401.926989 188.287451 
L 403.617898 187.859376 
L 405.308807 187.743438 
L 406.999716 188.356273 
L 408.690625 188.02346 
L 410.381534 188.876462 
L 412.072443 188.073269 
L 413.763352 188.013018 
L 415.454261 188.164853 
L 418.83608 188.680438 
L 420.526989 188.271192 
L 422.217898 187.5247 
L 423.908807 188.341547 
L 425.599716 188.324353 
L 427.290625 189.009177 
L 428.981534 188.05667 
L 430.672443 188.160156 
L 434.054261 187.39402 
L 435.74517 188.24029 
L 437.43608 188.117727 
L 439.126989 188.362317 
L 442.508807 187.579802 
L 444.199716 188.523492 
L 445.890625 187.779426 
L 447.581534 188.004608 
L 449.272443 188.050907 
L 450.963352 187.705057 
L 454.34517 188.714194 
L 456.03608 188.091426 
L 457.726989 188.294446 
L 459.417898 188.372829 
L 461.108807 187.862224 
L 464.490625 189.328308 
L 466.181534 188.385363 
L 467.872443 188.20942 
L 469.563352 187.831949 
L 471.254261 189.396933 
L 472.94517 188.005285 
L 474.63608 188.784901 
L 476.326989 187.040929 
L 478.017898 188.521028 
L 479.708807 188.971472 
L 481.399716 189.738808 
L 483.090625 189.229262 
L 484.781534 189.357389 
L 486.472443 188.446275 
L 488.163352 187.861986 
L 489.854261 189.002622 
L 491.54517 188.464863 
L 493.23608 188.759545 
L 494.926989 188.493274 
L 498.308807 187.552388 
L 499.999716 188.515434 
L 501.690625 187.482559 
L 503.381534 188.208671 
L 505.072443 188.294128 
L 506.763352 188.216891 
L 508.454261 187.922589 
L 510.14517 188.012822 
L 511.83608 187.853364 
L 513.526989 187.512304 
L 516.908807 188.52519 
L 518.599716 188.286137 
L 520.290625 188.223808 
L 521.981534 188.930585 
L 523.672443 188.287846 
L 525.363352 187.929877 
L 527.054261 188.750086 
L 528.74517 188.931987 
L 530.43608 188.828422 
L 532.126989 187.992121 
L 535.508807 188.912342 
L 538.890625 188.581938 
L 540.581534 188.857937 
L 542.272443 188.733222 
L 543.963352 188.460897 
L 547.34517 189.477394 
L 549.03608 189.028242 
L 550.726989 189.131799 
L 552.417898 188.861658 
L 554.108807 189.526858 
L 555.799716 189.535713 
L 559.181534 188.843236 
L 560.872443 188.902469 
L 562.563352 188.297058 
L 564.254261 189.54924 
L 565.94517 188.985136 
L 571.017898 189.774629 
L 572.708807 189.788429 
L 576.090625 189.519565 
L 577.781534 190.233118 
L 579.472443 189.702311 
L 581.163352 189.514199 
L 582.854261 190.08353 
L 584.54517 190.008336 
L 586.23608 189.565447 
L 587.926989 189.583096 
L 589.617898 190.037254 
L 591.308807 189.91953 
L 594.690625 190.246258 
L 596.381534 188.569576 
L 598.072443 189.174707 
L 599.763352 189.990945 
L 601.454261 189.358044 
L 603.14517 189.515732 
L 604.83608 190.11674 
L 606.526989 190.121262 
L 608.217898 190.574514 
L 609.908807 190.013054 
L 613.290625 190.082704 
L 616.672443 189.159987 
L 618.363352 189.122912 
L 620.054261 190.043139 
L 621.74517 189.066995 
L 623.43608 189.494748 
L 625.126989 189.70741 
L 625.126989 189.70741 
" clip-path="url(#p871ffa1cb7)" style="fill: none; stroke: #ff7f0e; stroke-width: 1.5; stroke-linecap: square"/>
   </g>
   <g id="patch_3">
    <path d="M 92.490625 308.63625 
L 92.490625 31.43625 
" style="fill: none; stroke: #000000; stroke-width: 0.8; stroke-linejoin: miter; stroke-linecap: square"/>
   </g>
   <g id="patch_4">
    <path d="M 650.490625 308.63625 
L 650.490625 31.43625 
" style="fill: none; stroke: #000000; stroke-width: 0.8; stroke-linejoin: miter; stroke-linecap: square"/>
   </g>
   <g id="patch_5">
    <path d="M 92.490625 308.63625 
L 650.490625 308.63625 
" style="fill: none; stroke: #000000; stroke-width: 0.8; stroke-linejoin: miter; stroke-linecap: square"/>
   </g>
   <g id="patch_6">
    <path d="M 92.490625 31.43625 
L 650.490625 31.43625 
" style="fill: none; stroke: #000000; stroke-width: 0.8; stroke-linejoin: miter; stroke-linecap: square"/>
   </g>
   <g id="text_15">
    <!-- Generator and Discriminator Loss During Training -->
    <g transform="translate(74.258125 25.43625) scale(0.24 -0.24)">
     <defs>
      <path id="DejaVuSans-47" d="M 3809 666 
L 3809 1919 
L 2778 1919 
L 2778 2438 
L 4434 2438 
L 4434 434 
Q 4069 175 3628 42 
Q 3188 -91 2688 -91 
Q 1594 -91 976 548 
Q 359 1188 359 2328 
Q 359 3472 976 4111 
Q 1594 4750 2688 4750 
Q 3144 4750 3555 4637 
Q 3966 4525 4313 4306 
L 4313 3634 
Q 3963 3931 3569 4081 
Q 3175 4231 2741 4231 
Q 1884 4231 1454 3753 
Q 1025 3275 1025 2328 
Q 1025 1384 1454 906 
Q 1884 428 2741 428 
Q 3075 428 3337 486 
Q 3600 544 3809 666 
z
" transform="scale(0.015625)"/>
      <path id="DejaVuSans-20" transform="scale(0.015625)"/>
      <path id="DejaVuSans-64" d="M 2906 2969 
L 2906 4863 
L 3481 4863 
L 3481 0 
L 2906 0 
L 2906 525 
Q 2725 213 2448 61 
Q 2172 -91 1784 -91 
Q 1150 -91 751 415 
Q 353 922 353 1747 
Q 353 2572 751 3078 
Q 1150 3584 1784 3584 
Q 2172 3584 2448 3432 
Q 2725 3281 2906 2969 
z
M 947 1747 
Q 947 1113 1208 752 
Q 1469 391 1925 391 
Q 2381 391 2643 752 
Q 2906 1113 2906 1747 
Q 2906 2381 2643 2742 
Q 2381 3103 1925 3103 
Q 1469 3103 1208 2742 
Q 947 2381 947 1747 
z
" transform="scale(0.015625)"/>
      <path id="DejaVuSans-44" d="M 1259 4147 
L 1259 519 
L 2022 519 
Q 2988 519 3436 956 
Q 3884 1394 3884 2338 
Q 3884 3275 3436 3711 
Q 2988 4147 2022 4147 
L 1259 4147 
z
M 628 4666 
L 1925 4666 
Q 3281 4666 3915 4102 
Q 4550 3538 4550 2338 
Q 4550 1131 3912 565 
Q 3275 0 1925 0 
L 628 0 
L 628 4666 
z
" transform="scale(0.015625)"/>
      <path id="DejaVuSans-63" d="M 3122 3366 
L 3122 2828 
Q 2878 2963 2633 3030 
Q 2388 3097 2138 3097 
Q 1578 3097 1268 2742 
Q 959 2388 959 1747 
Q 959 1106 1268 751 
Q 1578 397 2138 397 
Q 2388 397 2633 464 
Q 2878 531 3122 666 
L 3122 134 
Q 2881 22 2623 -34 
Q 2366 -91 2075 -91 
Q 1284 -91 818 406 
Q 353 903 353 1747 
Q 353 2603 823 3093 
Q 1294 3584 2113 3584 
Q 2378 3584 2631 3529 
Q 2884 3475 3122 3366 
z
" transform="scale(0.015625)"/>
      <path id="DejaVuSans-6d" d="M 3328 2828 
Q 3544 3216 3844 3400 
Q 4144 3584 4550 3584 
Q 5097 3584 5394 3201 
Q 5691 2819 5691 2113 
L 5691 0 
L 5113 0 
L 5113 2094 
Q 5113 2597 4934 2840 
Q 4756 3084 4391 3084 
Q 3944 3084 3684 2787 
Q 3425 2491 3425 1978 
L 3425 0 
L 2847 0 
L 2847 2094 
Q 2847 2600 2669 2842 
Q 2491 3084 2119 3084 
Q 1678 3084 1418 2786 
Q 1159 2488 1159 1978 
L 1159 0 
L 581 0 
L 581 3500 
L 1159 3500 
L 1159 2956 
Q 1356 3278 1631 3431 
Q 1906 3584 2284 3584 
Q 2666 3584 2933 3390 
Q 3200 3197 3328 2828 
z
" transform="scale(0.015625)"/>
      <path id="DejaVuSans-75" d="M 544 1381 
L 544 3500 
L 1119 3500 
L 1119 1403 
Q 1119 906 1312 657 
Q 1506 409 1894 409 
Q 2359 409 2629 706 
Q 2900 1003 2900 1516 
L 2900 3500 
L 3475 3500 
L 3475 0 
L 2900 0 
L 2900 538 
Q 2691 219 2414 64 
Q 2138 -91 1772 -91 
Q 1169 -91 856 284 
Q 544 659 544 1381 
z
M 1991 3584 
L 1991 3584 
z
" transform="scale(0.015625)"/>
      <path id="DejaVuSans-67" d="M 2906 1791 
Q 2906 2416 2648 2759 
Q 2391 3103 1925 3103 
Q 1463 3103 1205 2759 
Q 947 2416 947 1791 
Q 947 1169 1205 825 
Q 1463 481 1925 481 
Q 2391 481 2648 825 
Q 2906 1169 2906 1791 
z
M 3481 434 
Q 3481 -459 3084 -895 
Q 2688 -1331 1869 -1331 
Q 1566 -1331 1297 -1286 
Q 1028 -1241 775 -1147 
L 775 -588 
Q 1028 -725 1275 -790 
Q 1522 -856 1778 -856 
Q 2344 -856 2625 -561 
Q 2906 -266 2906 331 
L 2906 616 
Q 2728 306 2450 153 
Q 2172 0 1784 0 
Q 1141 0 747 490 
Q 353 981 353 1791 
Q 353 2603 747 3093 
Q 1141 3584 1784 3584 
Q 2172 3584 2450 3431 
Q 2728 3278 2906 2969 
L 2906 3500 
L 3481 3500 
L 3481 434 
z
" transform="scale(0.015625)"/>
      <path id="DejaVuSans-54" d="M -19 4666 
L 3928 4666 
L 3928 4134 
L 2272 4134 
L 2272 0 
L 1638 0 
L 1638 4134 
L -19 4134 
L -19 4666 
z
" transform="scale(0.015625)"/>
     </defs>
     <use xlink:href="#DejaVuSans-47"/>
     <use xlink:href="#DejaVuSans-65" x="77.490234"/>
     <use xlink:href="#DejaVuSans-6e" x="139.013672"/>
     <use xlink:href="#DejaVuSans-65" x="202.392578"/>
     <use xlink:href="#DejaVuSans-72" x="263.916016"/>
     <use xlink:href="#DejaVuSans-61" x="305.029297"/>
     <use xlink:href="#DejaVuSans-74" x="366.308594"/>
     <use xlink:href="#DejaVuSans-6f" x="405.517578"/>
     <use xlink:href="#DejaVuSans-72" x="466.699219"/>
     <use xlink:href="#DejaVuSans-20" x="507.8125"/>
     <use xlink:href="#DejaVuSans-61" x="539.599609"/>
     <use xlink:href="#DejaVuSans-6e" x="600.878906"/>
     <use xlink:href="#DejaVuSans-64" x="664.257812"/>
     <use xlink:href="#DejaVuSans-20" x="727.734375"/>
     <use xlink:href="#DejaVuSans-44" x="759.521484"/>
     <use xlink:href="#DejaVuSans-69" x="836.523438"/>
     <use xlink:href="#DejaVuSans-73" x="864.306641"/>
     <use xlink:href="#DejaVuSans-63" x="916.40625"/>
     <use xlink:href="#DejaVuSans-72" x="971.386719"/>
     <use xlink:href="#DejaVuSans-69" x="1012.5"/>
     <use xlink:href="#DejaVuSans-6d" x="1040.283203"/>
     <use xlink:href="#DejaVuSans-69" x="1137.695312"/>
     <use xlink:href="#DejaVuSans-6e" x="1165.478516"/>
     <use xlink:href="#DejaVuSans-61" x="1228.857422"/>
     <use xlink:href="#DejaVuSans-74" x="1290.136719"/>
     <use xlink:href="#DejaVuSans-6f" x="1329.345703"/>
     <use xlink:href="#DejaVuSans-72" x="1390.527344"/>
     <use xlink:href="#DejaVuSans-20" x="1431.640625"/>
     <use xlink:href="#DejaVuSans-4c" x="1463.427734"/>
     <use xlink:href="#DejaVuSans-6f" x="1517.390625"/>
     <use xlink:href="#DejaVuSans-73" x="1578.572266"/>
     <use xlink:href="#DejaVuSans-73" x="1630.671875"/>
     <use xlink:href="#DejaVuSans-20" x="1682.771484"/>
     <use xlink:href="#DejaVuSans-44" x="1714.558594"/>
     <use xlink:href="#DejaVuSans-75" x="1791.560547"/>
     <use xlink:href="#DejaVuSans-72" x="1854.939453"/>
     <use xlink:href="#DejaVuSans-69" x="1896.052734"/>
     <use xlink:href="#DejaVuSans-6e" x="1923.835938"/>
     <use xlink:href="#DejaVuSans-67" x="1987.214844"/>
     <use xlink:href="#DejaVuSans-20" x="2050.691406"/>
     <use xlink:href="#DejaVuSans-54" x="2082.478516"/>
     <use xlink:href="#DejaVuSans-72" x="2128.8125"/>
     <use xlink:href="#DejaVuSans-61" x="2169.925781"/>
     <use xlink:href="#DejaVuSans-69" x="2231.205078"/>
     <use xlink:href="#DejaVuSans-6e" x="2258.988281"/>
     <use xlink:href="#DejaVuSans-69" x="2322.367188"/>
     <use xlink:href="#DejaVuSans-6e" x="2350.150391"/>
     <use xlink:href="#DejaVuSans-67" x="2413.529297"/>
    </g>
   </g>
   <g id="legend_1">
    <g id="patch_7">
     <path d="M 556.99375 106.14875 
L 636.490625 106.14875 
Q 640.490625 106.14875 640.490625 102.14875 
L 640.490625 45.43625 
Q 640.490625 41.43625 636.490625 41.43625 
L 556.99375 41.43625 
Q 552.99375 41.43625 552.99375 45.43625 
L 552.99375 102.14875 
Q 552.99375 106.14875 556.99375 106.14875 
z
" style="fill: #ffffff; opacity: 0.8; stroke: #cccccc; stroke-linejoin: miter"/>
    </g>
    <g id="line2d_15">
     <path d="M 560.99375 57.633125 
L 580.99375 57.633125 
L 600.99375 57.633125 
" style="fill: none; stroke: #1f77b4; stroke-width: 1.5; stroke-linecap: square"/>
    </g>
    <g id="text_16">
     <!-- G -->
     <g transform="translate(616.99375 64.633125) scale(0.2 -0.2)">
      <use xlink:href="#DejaVuSans-47"/>
     </g>
    </g>
    <g id="line2d_16">
     <path d="M 560.99375 86.989375 
L 580.99375 86.989375 
L 600.99375 86.989375 
" style="fill: none; stroke: #ff7f0e; stroke-width: 1.5; stroke-linecap: square"/>
    </g>
    <g id="text_17">
     <!-- D -->
     <g transform="translate(616.99375 93.989375) scale(0.2 -0.2)">
      <use xlink:href="#DejaVuSans-44"/>
     </g>
    </g>
   </g>
  </g>
 </g>
 <defs>
  <clipPath id="p871ffa1cb7">
   <rect x="92.490625" y="31.43625" width="558" height="277.2"/>
  </clipPath>
 </defs>
</svg>
