<?xml version="1.0" encoding="utf-8" standalone="no"?>
<!DOCTYPE svg PUBLIC "-//W3C//DTD SVG 1.1//EN"
  "http://www.w3.org/Graphics/SVG/1.1/DTD/svg11.dtd">
<svg xmlns:xlink="http://www.w3.org/1999/xlink" width="675.923125pt" height="365.54875pt" viewBox="0 0 675.923125 365.54875" xmlns="http://www.w3.org/2000/svg" version="1.1">
 <metadata>
  <rdf:RDF xmlns:dc="http://purl.org/dc/elements/1.1/" xmlns:cc="http://creativecommons.org/ns#" xmlns:rdf="http://www.w3.org/1999/02/22-rdf-syntax-ns#">
   <cc:Work>
    <dc:type rdf:resource="http://purl.org/dc/dcmitype/StillImage"/>
    <dc:date>2024-02-02T15:59:13.403849</dc:date>
    <dc:format>image/svg+xml</dc:format>
    <dc:creator>
     <cc:Agent>
      <dc:title>Matplotlib v3.7.2, https://matplotlib.org/</dc:title>
     </cc:Agent>
    </dc:creator>
   </cc:Work>
  </rdf:RDF>
 </metadata>
 <defs>
  <style type="text/css">*{stroke-linejoin: round; stroke-linecap: butt}</style>
 </defs>
 <g id="figure_1">
  <g id="patch_1">
   <path d="M 0 365.54875 
L 675.923125 365.54875 
L 675.923125 -0 
L 0 -0 
z
" style="fill: #ffffff"/>
  </g>
  <g id="axes_1">
   <g id="patch_2">
    <path d="M 92.490625 308.63625 
L 650.490625 308.63625 
L 650.490625 31.43625 
L 92.490625 31.43625 
z
" style="fill: #ffffff"/>
   </g>
   <g id="matplotlib.axis_1">
    <g id="xtick_1">
     <g id="line2d_1">
      <defs>
       <path id="mf57b6e14fd" d="M 0 0 
L 0 3.5 
" style="stroke: #000000; stroke-width: 0.8"/>
      </defs>
      <g>
       <use xlink:href="#mf57b6e14fd" x="117.854261" y="308.63625" style="stroke: #000000; stroke-width: 0.8"/>
      </g>
     </g>
     <g id="text_1">
      <!-- 0 -->
      <g transform="translate(111.491761 330.833125) scale(0.2 -0.2)">
       <defs>
        <path id="DejaVuSans-30" d="M 2034 4250 
Q 1547 4250 1301 3770 
Q 1056 3291 1056 2328 
Q 1056 1369 1301 889 
Q 1547 409 2034 409 
Q 2525 409 2770 889 
Q 3016 1369 3016 2328 
Q 3016 3291 2770 3770 
Q 2525 4250 2034 4250 
z
M 2034 4750 
Q 2819 4750 3233 4129 
Q 3647 3509 3647 2328 
Q 3647 1150 3233 529 
Q 2819 -91 2034 -91 
Q 1250 -91 836 529 
Q 422 1150 422 2328 
Q 422 3509 836 4129 
Q 1250 4750 2034 4750 
z
" transform="scale(0.015625)"/>
       </defs>
       <use xlink:href="#DejaVuSans-30"/>
      </g>
     </g>
    </g>
    <g id="xtick_2">
     <g id="line2d_2">
      <g>
       <use xlink:href="#mf57b6e14fd" x="192.453192" y="308.63625" style="stroke: #000000; stroke-width: 0.8"/>
      </g>
     </g>
     <g id="text_2">
      <!-- 250 -->
      <g transform="translate(173.365692 330.833125) scale(0.2 -0.2)">
       <defs>
        <path id="DejaVuSans-32" d="M 1228 531 
L 3431 531 
L 3431 0 
L 469 0 
L 469 531 
Q 828 903 1448 1529 
Q 2069 2156 2228 2338 
Q 2531 2678 2651 2914 
Q 2772 3150 2772 3378 
Q 2772 3750 2511 3984 
Q 2250 4219 1831 4219 
Q 1534 4219 1204 4116 
Q 875 4013 500 3803 
L 500 4441 
Q 881 4594 1212 4672 
Q 1544 4750 1819 4750 
Q 2544 4750 2975 4387 
Q 3406 4025 3406 3419 
Q 3406 3131 3298 2873 
Q 3191 2616 2906 2266 
Q 2828 2175 2409 1742 
Q 1991 1309 1228 531 
z
" transform="scale(0.015625)"/>
        <path id="DejaVuSans-35" d="M 691 4666 
L 3169 4666 
L 3169 4134 
L 1269 4134 
L 1269 2991 
Q 1406 3038 1543 3061 
Q 1681 3084 1819 3084 
Q 2600 3084 3056 2656 
Q 3513 2228 3513 1497 
Q 3513 744 3044 326 
Q 2575 -91 1722 -91 
Q 1428 -91 1123 -41 
Q 819 9 494 109 
L 494 744 
Q 775 591 1075 516 
Q 1375 441 1709 441 
Q 2250 441 2565 725 
Q 2881 1009 2881 1497 
Q 2881 1984 2565 2268 
Q 2250 2553 1709 2553 
Q 1456 2553 1204 2497 
Q 953 2441 691 2322 
L 691 4666 
z
" transform="scale(0.015625)"/>
       </defs>
       <use xlink:href="#DejaVuSans-32"/>
       <use xlink:href="#DejaVuSans-35" x="63.623047"/>
       <use xlink:href="#DejaVuSans-30" x="127.246094"/>
      </g>
     </g>
    </g>
    <g id="xtick_3">
     <g id="line2d_3">
      <g>
       <use xlink:href="#mf57b6e14fd" x="267.052122" y="308.63625" style="stroke: #000000; stroke-width: 0.8"/>
      </g>
     </g>
     <g id="text_3">
      <!-- 500 -->
      <g transform="translate(247.964622 330.833125) scale(0.2 -0.2)">
       <use xlink:href="#DejaVuSans-35"/>
       <use xlink:href="#DejaVuSans-30" x="63.623047"/>
       <use xlink:href="#DejaVuSans-30" x="127.246094"/>
      </g>
     </g>
    </g>
    <g id="xtick_4">
     <g id="line2d_4">
      <g>
       <use xlink:href="#mf57b6e14fd" x="341.651053" y="308.63625" style="stroke: #000000; stroke-width: 0.8"/>
      </g>
     </g>
     <g id="text_4">
      <!-- 750 -->
      <g transform="translate(322.563553 330.833125) scale(0.2 -0.2)">
       <defs>
        <path id="DejaVuSans-37" d="M 525 4666 
L 3525 4666 
L 3525 4397 
L 1831 0 
L 1172 0 
L 2766 4134 
L 525 4134 
L 525 4666 
z
" transform="scale(0.015625)"/>
       </defs>
       <use xlink:href="#DejaVuSans-37"/>
       <use xlink:href="#DejaVuSans-35" x="63.623047"/>
       <use xlink:href="#DejaVuSans-30" x="127.246094"/>
      </g>
     </g>
    </g>
    <g id="xtick_5">
     <g id="line2d_5">
      <g>
       <use xlink:href="#mf57b6e14fd" x="416.249983" y="308.63625" style="stroke: #000000; stroke-width: 0.8"/>
      </g>
     </g>
     <g id="text_5">
      <!-- 1000 -->
      <g transform="translate(390.799983 330.833125) scale(0.2 -0.2)">
       <defs>
        <path id="DejaVuSans-31" d="M 794 531 
L 1825 531 
L 1825 4091 
L 703 3866 
L 703 4441 
L 1819 4666 
L 2450 4666 
L 2450 531 
L 3481 531 
L 3481 0 
L 794 0 
L 794 531 
z
" transform="scale(0.015625)"/>
       </defs>
       <use xlink:href="#DejaVuSans-31"/>
       <use xlink:href="#DejaVuSans-30" x="63.623047"/>
       <use xlink:href="#DejaVuSans-30" x="127.246094"/>
       <use xlink:href="#DejaVuSans-30" x="190.869141"/>
      </g>
     </g>
    </g>
    <g id="xtick_6">
     <g id="line2d_6">
      <g>
       <use xlink:href="#mf57b6e14fd" x="490.848914" y="308.63625" style="stroke: #000000; stroke-width: 0.8"/>
      </g>
     </g>
     <g id="text_6">
      <!-- 1250 -->
      <g transform="translate(465.398914 330.833125) scale(0.2 -0.2)">
       <use xlink:href="#DejaVuSans-31"/>
       <use xlink:href="#DejaVuSans-32" x="63.623047"/>
       <use xlink:href="#DejaVuSans-35" x="127.246094"/>
       <use xlink:href="#DejaVuSans-30" x="190.869141"/>
      </g>
     </g>
    </g>
    <g id="xtick_7">
     <g id="line2d_7">
      <g>
       <use xlink:href="#mf57b6e14fd" x="565.447844" y="308.63625" style="stroke: #000000; stroke-width: 0.8"/>
      </g>
     </g>
     <g id="text_7">
      <!-- 1500 -->
      <g transform="translate(539.997844 330.833125) scale(0.2 -0.2)">
       <use xlink:href="#DejaVuSans-31"/>
       <use xlink:href="#DejaVuSans-35" x="63.623047"/>
       <use xlink:href="#DejaVuSans-30" x="127.246094"/>
       <use xlink:href="#DejaVuSans-30" x="190.869141"/>
      </g>
     </g>
    </g>
    <g id="xtick_8">
     <g id="line2d_8">
      <g>
       <use xlink:href="#mf57b6e14fd" x="640.046775" y="308.63625" style="stroke: #000000; stroke-width: 0.8"/>
      </g>
     </g>
     <g id="text_8">
      <!-- 1750 -->
      <g transform="translate(614.596775 330.833125) scale(0.2 -0.2)">
       <use xlink:href="#DejaVuSans-31"/>
       <use xlink:href="#DejaVuSans-37" x="63.623047"/>
       <use xlink:href="#DejaVuSans-35" x="127.246094"/>
       <use xlink:href="#DejaVuSans-30" x="190.869141"/>
      </g>
     </g>
    </g>
    <g id="text_9">
     <!-- iterations -->
     <g transform="translate(324.035938 354.189375) scale(0.2 -0.2)">
      <defs>
       <path id="DejaVuSans-69" d="M 603 3500 
L 1178 3500 
L 1178 0 
L 603 0 
L 603 3500 
z
M 603 4863 
L 1178 4863 
L 1178 4134 
L 603 4134 
L 603 4863 
z
" transform="scale(0.015625)"/>
       <path id="DejaVuSans-74" d="M 1172 4494 
L 1172 3500 
L 2356 3500 
L 2356 3053 
L 1172 3053 
L 1172 1153 
Q 1172 725 1289 603 
Q 1406 481 1766 481 
L 2356 481 
L 2356 0 
L 1766 0 
Q 1100 0 847 248 
Q 594 497 594 1153 
L 594 3053 
L 172 3053 
L 172 3500 
L 594 3500 
L 594 4494 
L 1172 4494 
z
" transform="scale(0.015625)"/>
       <path id="DejaVuSans-65" d="M 3597 1894 
L 3597 1613 
L 953 1613 
Q 991 1019 1311 708 
Q 1631 397 2203 397 
Q 2534 397 2845 478 
Q 3156 559 3463 722 
L 3463 178 
Q 3153 47 2828 -22 
Q 2503 -91 2169 -91 
Q 1331 -91 842 396 
Q 353 884 353 1716 
Q 353 2575 817 3079 
Q 1281 3584 2069 3584 
Q 2775 3584 3186 3129 
Q 3597 2675 3597 1894 
z
M 3022 2063 
Q 3016 2534 2758 2815 
Q 2500 3097 2075 3097 
Q 1594 3097 1305 2825 
Q 1016 2553 972 2059 
L 3022 2063 
z
" transform="scale(0.015625)"/>
       <path id="DejaVuSans-72" d="M 2631 2963 
Q 2534 3019 2420 3045 
Q 2306 3072 2169 3072 
Q 1681 3072 1420 2755 
Q 1159 2438 1159 1844 
L 1159 0 
L 581 0 
L 581 3500 
L 1159 3500 
L 1159 2956 
Q 1341 3275 1631 3429 
Q 1922 3584 2338 3584 
Q 2397 3584 2469 3576 
Q 2541 3569 2628 3553 
L 2631 2963 
z
" transform="scale(0.015625)"/>
       <path id="DejaVuSans-61" d="M 2194 1759 
Q 1497 1759 1228 1600 
Q 959 1441 959 1056 
Q 959 750 1161 570 
Q 1363 391 1709 391 
Q 2188 391 2477 730 
Q 2766 1069 2766 1631 
L 2766 1759 
L 2194 1759 
z
M 3341 1997 
L 3341 0 
L 2766 0 
L 2766 531 
Q 2569 213 2275 61 
Q 1981 -91 1556 -91 
Q 1019 -91 701 211 
Q 384 513 384 1019 
Q 384 1609 779 1909 
Q 1175 2209 1959 2209 
L 2766 2209 
L 2766 2266 
Q 2766 2663 2505 2880 
Q 2244 3097 1772 3097 
Q 1472 3097 1187 3025 
Q 903 2953 641 2809 
L 641 3341 
Q 956 3463 1253 3523 
Q 1550 3584 1831 3584 
Q 2591 3584 2966 3190 
Q 3341 2797 3341 1997 
z
" transform="scale(0.015625)"/>
       <path id="DejaVuSans-6f" d="M 1959 3097 
Q 1497 3097 1228 2736 
Q 959 2375 959 1747 
Q 959 1119 1226 758 
Q 1494 397 1959 397 
Q 2419 397 2687 759 
Q 2956 1122 2956 1747 
Q 2956 2369 2687 2733 
Q 2419 3097 1959 3097 
z
M 1959 3584 
Q 2709 3584 3137 3096 
Q 3566 2609 3566 1747 
Q 3566 888 3137 398 
Q 2709 -91 1959 -91 
Q 1206 -91 779 398 
Q 353 888 353 1747 
Q 353 2609 779 3096 
Q 1206 3584 1959 3584 
z
" transform="scale(0.015625)"/>
       <path id="DejaVuSans-6e" d="M 3513 2113 
L 3513 0 
L 2938 0 
L 2938 2094 
Q 2938 2591 2744 2837 
Q 2550 3084 2163 3084 
Q 1697 3084 1428 2787 
Q 1159 2491 1159 1978 
L 1159 0 
L 581 0 
L 581 3500 
L 1159 3500 
L 1159 2956 
Q 1366 3272 1645 3428 
Q 1925 3584 2291 3584 
Q 2894 3584 3203 3211 
Q 3513 2838 3513 2113 
z
" transform="scale(0.015625)"/>
       <path id="DejaVuSans-73" d="M 2834 3397 
L 2834 2853 
Q 2591 2978 2328 3040 
Q 2066 3103 1784 3103 
Q 1356 3103 1142 2972 
Q 928 2841 928 2578 
Q 928 2378 1081 2264 
Q 1234 2150 1697 2047 
L 1894 2003 
Q 2506 1872 2764 1633 
Q 3022 1394 3022 966 
Q 3022 478 2636 193 
Q 2250 -91 1575 -91 
Q 1294 -91 989 -36 
Q 684 19 347 128 
L 347 722 
Q 666 556 975 473 
Q 1284 391 1588 391 
Q 1994 391 2212 530 
Q 2431 669 2431 922 
Q 2431 1156 2273 1281 
Q 2116 1406 1581 1522 
L 1381 1569 
Q 847 1681 609 1914 
Q 372 2147 372 2553 
Q 372 3047 722 3315 
Q 1072 3584 1716 3584 
Q 2034 3584 2315 3537 
Q 2597 3491 2834 3397 
z
" transform="scale(0.015625)"/>
      </defs>
      <use xlink:href="#DejaVuSans-69"/>
      <use xlink:href="#DejaVuSans-74" x="27.783203"/>
      <use xlink:href="#DejaVuSans-65" x="66.992188"/>
      <use xlink:href="#DejaVuSans-72" x="128.515625"/>
      <use xlink:href="#DejaVuSans-61" x="169.628906"/>
      <use xlink:href="#DejaVuSans-74" x="230.908203"/>
      <use xlink:href="#DejaVuSans-69" x="270.117188"/>
      <use xlink:href="#DejaVuSans-6f" x="297.900391"/>
      <use xlink:href="#DejaVuSans-6e" x="359.082031"/>
      <use xlink:href="#DejaVuSans-73" x="422.460938"/>
     </g>
    </g>
   </g>
   <g id="matplotlib.axis_2">
    <g id="ytick_1">
     <g id="line2d_9">
      <defs>
       <path id="mf49b22213e" d="M 0 0 
L -3.5 0 
" style="stroke: #000000; stroke-width: 0.8"/>
      </defs>
      <g>
       <use xlink:href="#mf49b22213e" x="92.490625" y="279.562782" style="stroke: #000000; stroke-width: 0.8"/>
      </g>
     </g>
     <g id="text_10">
      <!-- −200 -->
      <g transform="translate(30.55625 287.16122) scale(0.2 -0.2)">
       <defs>
        <path id="DejaVuSans-2212" d="M 678 2272 
L 4684 2272 
L 4684 1741 
L 678 1741 
L 678 2272 
z
" transform="scale(0.015625)"/>
       </defs>
       <use xlink:href="#DejaVuSans-2212"/>
       <use xlink:href="#DejaVuSans-32" x="83.789062"/>
       <use xlink:href="#DejaVuSans-30" x="147.412109"/>
       <use xlink:href="#DejaVuSans-30" x="211.035156"/>
      </g>
     </g>
    </g>
    <g id="ytick_2">
     <g id="line2d_10">
      <g>
       <use xlink:href="#mf49b22213e" x="92.490625" y="229.718252" style="stroke: #000000; stroke-width: 0.8"/>
      </g>
     </g>
     <g id="text_11">
      <!-- −100 -->
      <g transform="translate(30.55625 237.316689) scale(0.2 -0.2)">
       <use xlink:href="#DejaVuSans-2212"/>
       <use xlink:href="#DejaVuSans-31" x="83.789062"/>
       <use xlink:href="#DejaVuSans-30" x="147.412109"/>
       <use xlink:href="#DejaVuSans-30" x="211.035156"/>
      </g>
     </g>
    </g>
    <g id="ytick_3">
     <g id="line2d_11">
      <g>
       <use xlink:href="#mf49b22213e" x="92.490625" y="179.873722" style="stroke: #000000; stroke-width: 0.8"/>
      </g>
     </g>
     <g id="text_12">
      <!-- 0 -->
      <g transform="translate(72.765625 187.472159) scale(0.2 -0.2)">
       <use xlink:href="#DejaVuSans-30"/>
      </g>
     </g>
    </g>
    <g id="ytick_4">
     <g id="line2d_12">
      <g>
       <use xlink:href="#mf49b22213e" x="92.490625" y="130.029191" style="stroke: #000000; stroke-width: 0.8"/>
      </g>
     </g>
     <g id="text_13">
      <!-- 100 -->
      <g transform="translate(47.315625 137.627629) scale(0.2 -0.2)">
       <use xlink:href="#DejaVuSans-31"/>
       <use xlink:href="#DejaVuSans-30" x="63.623047"/>
       <use xlink:href="#DejaVuSans-30" x="127.246094"/>
      </g>
     </g>
    </g>
    <g id="ytick_5">
     <g id="line2d_13">
      <g>
       <use xlink:href="#mf49b22213e" x="92.490625" y="80.184661" style="stroke: #000000; stroke-width: 0.8"/>
      </g>
     </g>
     <g id="text_14">
      <!-- 200 -->
      <g transform="translate(47.315625 87.783098) scale(0.2 -0.2)">
       <use xlink:href="#DejaVuSans-32"/>
       <use xlink:href="#DejaVuSans-30" x="63.623047"/>
       <use xlink:href="#DejaVuSans-30" x="127.246094"/>
      </g>
     </g>
    </g>
    <g id="text_15">
     <!-- Loss -->
     <g transform="translate(22.396875 191.970625) rotate(-90) scale(0.2 -0.2)">
      <defs>
       <path id="DejaVuSans-4c" d="M 628 4666 
L 1259 4666 
L 1259 531 
L 3531 531 
L 3531 0 
L 628 0 
L 628 4666 
z
" transform="scale(0.015625)"/>
      </defs>
      <use xlink:href="#DejaVuSans-4c"/>
      <use xlink:href="#DejaVuSans-6f" x="53.962891"/>
      <use xlink:href="#DejaVuSans-73" x="115.144531"/>
      <use xlink:href="#DejaVuSans-73" x="167.244141"/>
     </g>
    </g>
   </g>
   <g id="line2d_14">
    <path d="M 117.854261 124.531878 
L 118.152657 113.612244 
L 118.451053 120.519891 
L 119.047844 82.758685 
L 119.34624 52.516894 
L 119.644636 44.03625 
L 119.943031 61.970005 
L 120.241427 47.184644 
L 120.838219 80.314335 
L 121.136614 92.451127 
L 121.43501 90.170035 
L 122.031801 102.578324 
L 122.330197 95.671232 
L 122.628593 100.331578 
L 122.926989 100.663401 
L 123.225384 98.525286 
L 123.52378 104.282319 
L 123.822176 116.142604 
L 124.120572 120.516331 
L 124.418967 130.835256 
L 125.015759 127.698731 
L 125.314154 125.168182 
L 125.61255 126.943921 
L 125.910946 124.005949 
L 126.507737 122.923807 
L 126.806133 123.257928 
L 127.104529 118.898656 
L 127.402924 119.56434 
L 127.70132 115.700499 
L 127.999716 117.745463 
L 128.298112 123.442567 
L 128.596507 123.774871 
L 128.894903 122.857969 
L 129.193299 122.302379 
L 129.79009 119.124284 
L 130.088486 125.017556 
L 130.386882 133.214281 
L 130.685277 129.161825 
L 130.983673 123.543387 
L 131.282069 122.23231 
L 131.580465 123.023945 
L 131.87886 127.784878 
L 132.177256 121.940687 
L 132.475652 123.981988 
L 133.072443 131.485114 
L 133.370839 128.917539 
L 133.669235 136.589669 
L 133.96763 136.567041 
L 134.266026 125.362361 
L 134.564422 126.824283 
L 134.862818 135.707324 
L 135.161213 137.326724 
L 135.459609 136.946144 
L 136.0564 141.297559 
L 136.354796 145.047706 
L 136.653192 145.805225 
L 136.951588 141.997796 
L 137.548379 139.025662 
L 137.846775 137.019952 
L 138.14517 138.139239 
L 138.443566 136.827967 
L 138.741962 138.508057 
L 139.040358 138.220575 
L 139.338753 138.101893 
L 139.637149 135.608969 
L 139.935545 141.338619 
L 140.532336 134.107495 
L 140.830732 138.24287 
L 141.129128 138.539082 
L 141.427523 134.882217 
L 141.725919 125.534589 
L 142.024315 130.92867 
L 142.322711 130.995844 
L 142.621106 129.896139 
L 142.919502 130.701701 
L 143.217898 134.78225 
L 143.814689 139.833902 
L 144.113085 134.538663 
L 144.411481 132.112555 
L 144.709876 132.679362 
L 145.008272 137.227089 
L 145.306668 136.509092 
L 145.605064 134.164532 
L 145.903459 138.634416 
L 146.201855 137.086605 
L 146.500251 139.48127 
L 146.798646 140.847521 
L 147.097042 136.401101 
L 147.395438 136.610398 
L 147.693834 141.120117 
L 147.992229 141.657382 
L 148.290625 141.745369 
L 148.887416 145.930699 
L 149.185812 144.353858 
L 149.484208 147.068299 
L 150.080999 143.872919 
L 150.379395 144.823045 
L 150.677791 145.322043 
L 151.274582 151.758086 
L 151.572978 147.409346 
L 151.871374 147.688363 
L 152.468165 143.905424 
L 152.766561 146.884967 
L 153.363352 147.688029 
L 153.960144 140.161348 
L 154.258539 143.441326 
L 154.556935 141.701099 
L 154.855331 143.244373 
L 155.153727 141.485977 
L 155.452122 143.743617 
L 155.750518 141.752809 
L 156.048914 144.378451 
L 156.347309 145.924998 
L 156.944101 145.710239 
L 157.242497 146.822277 
L 157.839288 142.812817 
L 158.137684 146.722669 
L 158.43608 142.762511 
L 158.734475 145.958757 
L 159.032871 145.805341 
L 159.331267 143.312113 
L 159.629662 144.758427 
L 159.928058 147.303361 
L 160.226454 146.89064 
L 160.52485 147.574506 
L 160.823245 148.59455 
L 161.420037 152.506974 
L 161.718432 150.388494 
L 162.016828 151.806019 
L 162.315224 150.902817 
L 162.61362 151.840849 
L 162.912015 149.806097 
L 163.210411 146.162209 
L 163.508807 148.368318 
L 163.807203 152.27345 
L 164.105598 151.466282 
L 164.403994 152.492185 
L 164.70239 150.095374 
L 165.299181 152.38361 
L 165.597577 151.164398 
L 165.895973 152.661597 
L 166.194368 153.504509 
L 166.492764 153.070374 
L 166.79116 153.701229 
L 167.089555 155.076172 
L 167.387951 155.925178 
L 167.984743 153.860758 
L 168.283138 153.674296 
L 168.581534 153.035097 
L 168.87993 154.346622 
L 169.476721 153.137666 
L 169.775117 153.719381 
L 170.073513 151.537183 
L 170.371908 152.382328 
L 170.670304 153.754748 
L 170.9687 152.730595 
L 171.267096 153.912518 
L 171.565491 155.763226 
L 171.863887 154.635505 
L 172.162283 156.375225 
L 172.460678 154.862806 
L 172.759074 157.097058 
L 173.05747 158.475495 
L 173.355866 159.246486 
L 173.654261 160.579032 
L 173.952657 160.177923 
L 174.251053 158.198611 
L 174.549449 157.632745 
L 174.847844 158.695304 
L 175.14624 158.058747 
L 176.041427 161.274453 
L 176.339823 161.049882 
L 176.936614 162.780169 
L 177.23501 162.93181 
L 177.533406 162.909826 
L 177.831801 163.16357 
L 178.130197 163.590409 
L 178.726989 163.028633 
L 179.025384 164.160838 
L 179.32378 163.43676 
L 179.622176 163.598174 
L 179.920572 163.302926 
L 180.218967 163.467349 
L 180.517363 163.018195 
L 180.815759 164.735424 
L 181.114154 163.474858 
L 181.41255 161.245375 
L 181.710946 162.806307 
L 182.606133 163.922568 
L 182.904529 162.747043 
L 183.202924 162.225773 
L 183.50132 162.846469 
L 183.799716 165.236295 
L 184.098112 163.231114 
L 184.396507 163.010536 
L 184.694903 163.003862 
L 184.993299 164.481228 
L 185.291695 164.159237 
L 185.59009 165.05063 
L 185.888486 167.617109 
L 186.186882 166.927606 
L 186.485277 166.829197 
L 186.783673 167.045429 
L 187.082069 167.040901 
L 187.380465 168.045201 
L 187.977256 166.198974 
L 188.275652 166.800597 
L 188.574047 168.759688 
L 188.872443 168.974249 
L 189.170839 166.434748 
L 189.469235 165.174013 
L 189.76763 167.03687 
L 190.364422 167.675998 
L 190.662818 167.355134 
L 190.961213 166.638156 
L 191.259609 167.116547 
L 191.558005 167.266925 
L 191.8564 168.14975 
L 192.154796 167.908898 
L 192.453192 168.146553 
L 192.751588 168.238457 
L 193.348379 167.240999 
L 193.646775 168.253029 
L 193.94517 166.399731 
L 194.243566 167.169623 
L 194.541962 166.210275 
L 194.840358 167.497068 
L 195.138753 165.698517 
L 195.735545 166.698603 
L 196.033941 166.841433 
L 196.332336 166.310281 
L 196.630732 165.479998 
L 196.929128 165.215218 
L 197.227523 165.668773 
L 197.525919 167.322442 
L 197.824315 165.913513 
L 198.122711 165.804076 
L 198.421106 165.367667 
L 198.719502 166.220259 
L 199.017898 166.206106 
L 199.316293 165.972338 
L 199.614689 166.913536 
L 199.913085 166.170453 
L 200.211481 165.912273 
L 200.509876 166.548458 
L 200.808272 165.862925 
L 201.405064 167.181714 
L 201.703459 166.678216 
L 202.001855 166.675568 
L 202.300251 167.875845 
L 202.598646 168.366442 
L 202.897042 168.449603 
L 203.493834 169.32032 
L 203.792229 167.9225 
L 204.389021 168.843936 
L 204.687416 168.960531 
L 204.985812 168.782386 
L 205.284208 168.317253 
L 205.582604 169.688678 
L 205.880999 169.233972 
L 206.179395 169.06092 
L 206.776186 170.546879 
L 207.074582 170.171745 
L 207.372978 171.878035 
L 207.969769 171.137158 
L 208.268165 169.278403 
L 208.566561 169.725672 
L 208.864957 170.615596 
L 209.163352 169.496235 
L 209.461748 169.782768 
L 209.760144 169.890141 
L 210.058539 171.456883 
L 210.655331 170.001103 
L 210.953727 169.926751 
L 211.550518 171.37963 
L 211.848914 171.029107 
L 212.147309 171.124863 
L 212.445705 170.681482 
L 212.744101 170.87703 
L 213.042497 170.384301 
L 213.340892 170.986704 
L 213.639288 170.791971 
L 213.937684 169.625101 
L 214.23608 171.288955 
L 214.534475 170.927486 
L 214.832871 170.864856 
L 215.131267 171.211611 
L 215.429662 172.079021 
L 215.728058 171.845111 
L 216.026454 170.97074 
L 216.32485 171.625128 
L 216.623245 170.983582 
L 217.220037 171.02878 
L 217.518432 171.560573 
L 217.816828 172.322231 
L 218.115224 171.627739 
L 218.41362 171.467542 
L 218.712015 172.467587 
L 219.010411 171.02565 
L 219.308807 171.947077 
L 219.607203 171.483687 
L 219.905598 172.050066 
L 220.800785 169.947551 
L 221.099181 170.733685 
L 221.397577 170.584067 
L 221.695973 171.103421 
L 221.994368 171.348453 
L 222.292764 171.120201 
L 222.889555 170.210684 
L 223.187951 170.789454 
L 223.486347 170.980313 
L 223.784743 172.211916 
L 224.083138 171.753866 
L 224.381534 172.058202 
L 224.67993 170.710387 
L 224.978326 171.610416 
L 225.575117 170.275572 
L 225.873513 170.921107 
L 226.171908 170.142906 
L 226.470304 171.335557 
L 226.7687 170.05853 
L 227.067096 170.093304 
L 227.365491 170.469731 
L 227.663887 171.273628 
L 227.962283 171.728208 
L 228.260678 171.723017 
L 228.559074 170.898618 
L 229.155866 171.377761 
L 229.454261 171.45996 
L 229.752657 170.901117 
L 230.051053 169.754796 
L 230.94624 171.283549 
L 231.244636 170.797232 
L 231.543031 171.524636 
L 231.841427 171.480676 
L 232.139823 171.125477 
L 233.03501 171.450506 
L 233.333406 170.746657 
L 233.631801 171.893811 
L 234.228593 169.705521 
L 234.526989 169.357828 
L 234.825384 169.628308 
L 235.12378 170.894575 
L 235.422176 171.221226 
L 235.720572 171.32752 
L 236.018967 171.762098 
L 236.317363 171.419549 
L 236.615759 171.510481 
L 236.914154 170.604535 
L 237.21255 172.064219 
L 237.510946 172.504472 
L 237.809342 171.730852 
L 238.107737 171.717936 
L 238.406133 171.126913 
L 238.704529 171.028055 
L 239.002924 171.81357 
L 239.30132 171.842793 
L 239.599716 171.260918 
L 239.898112 171.661503 
L 240.196507 171.18838 
L 241.091695 171.680532 
L 241.39009 172.343042 
L 241.688486 170.773445 
L 241.986882 171.850861 
L 242.285277 171.335879 
L 242.583673 171.470768 
L 242.882069 171.404438 
L 243.180465 170.42896 
L 243.47886 170.751651 
L 243.777256 170.623119 
L 244.075652 171.204737 
L 244.374047 169.869313 
L 244.672443 169.636724 
L 245.269235 170.828434 
L 245.56763 170.552112 
L 245.866026 170.519111 
L 246.164422 170.941655 
L 246.462818 169.718798 
L 246.761213 169.862972 
L 247.059609 170.788851 
L 247.358005 169.308966 
L 247.6564 168.405074 
L 247.954796 169.592541 
L 248.551588 168.929275 
L 248.849983 168.277422 
L 249.148379 168.303997 
L 249.74517 169.461484 
L 250.341962 168.954341 
L 250.640358 167.445263 
L 250.938753 168.252356 
L 251.833941 169.043828 
L 252.132336 170.208008 
L 252.430732 169.180695 
L 252.729128 168.673338 
L 253.027523 168.707785 
L 253.325919 169.243154 
L 253.624315 169.377209 
L 253.922711 168.851158 
L 254.221106 166.81334 
L 254.519502 168.761281 
L 254.817898 168.000392 
L 255.116293 167.564612 
L 255.713085 168.156309 
L 256.011481 168.13164 
L 256.309876 168.675291 
L 256.608272 168.119421 
L 256.906668 168.305333 
L 257.205064 167.535693 
L 257.503459 169.078896 
L 257.801855 168.406488 
L 258.100251 169.281049 
L 258.398646 168.148249 
L 258.697042 168.593674 
L 258.995438 168.732842 
L 259.293834 168.470857 
L 259.592229 169.372396 
L 259.890625 169.29299 
L 260.487416 167.88763 
L 260.785812 167.936869 
L 261.084208 168.913264 
L 261.382604 167.685689 
L 261.979395 168.452807 
L 262.277791 168.225701 
L 262.576186 170.2633 
L 262.874582 169.857828 
L 263.172978 168.55073 
L 263.471374 168.94689 
L 264.068165 167.836903 
L 264.366561 168.529338 
L 264.664957 168.526433 
L 264.963352 168.242491 
L 265.261748 168.845629 
L 265.560144 168.793187 
L 265.858539 169.295145 
L 266.156935 168.568328 
L 266.455331 169.156795 
L 266.753727 168.842294 
L 267.052122 169.404308 
L 267.350518 168.600934 
L 267.648914 169.158425 
L 267.947309 169.261816 
L 268.245705 169.167373 
L 268.544101 168.318719 
L 268.842497 168.55359 
L 269.439288 169.344485 
L 269.737684 168.986347 
L 270.03608 169.062865 
L 270.334475 167.845035 
L 270.632871 168.951697 
L 271.229662 166.987109 
L 271.826454 168.536455 
L 272.12485 167.813438 
L 273.020037 168.653876 
L 273.318432 169.890846 
L 273.616828 168.602198 
L 273.915224 168.122958 
L 274.21362 166.912785 
L 274.512015 168.156099 
L 274.810411 167.661884 
L 275.108807 169.488083 
L 275.407203 169.485607 
L 276.30239 168.073372 
L 276.600785 169.155096 
L 276.899181 167.873866 
L 277.197577 168.345896 
L 277.495973 168.076867 
L 277.794368 169.271937 
L 278.689555 165.679123 
L 279.584743 168.312368 
L 279.883138 167.853324 
L 280.181534 168.205852 
L 280.47993 167.419576 
L 280.778326 167.036538 
L 281.076721 168.70488 
L 281.971908 166.654306 
L 282.270304 167.786472 
L 282.5687 167.416425 
L 282.867096 168.569706 
L 283.165491 168.490675 
L 283.463887 169.154549 
L 283.762283 167.278725 
L 284.060678 168.560299 
L 284.359074 168.787789 
L 284.65747 167.280913 
L 284.955866 167.403509 
L 285.254261 166.122042 
L 285.552657 167.890703 
L 285.851053 166.99708 
L 286.149449 168.252917 
L 286.447844 166.923159 
L 286.74624 167.016084 
L 287.044636 167.241264 
L 287.641427 167.045006 
L 287.939823 166.305466 
L 288.238219 165.975857 
L 288.536614 167.000925 
L 288.83501 166.83386 
L 289.133406 167.60513 
L 289.431801 167.629385 
L 290.028593 167.104138 
L 290.326989 166.397981 
L 290.625384 167.148153 
L 290.92378 166.744054 
L 291.222176 165.842051 
L 291.520572 165.51877 
L 291.818967 166.309628 
L 292.117363 165.740703 
L 292.415759 166.816051 
L 293.01255 165.723097 
L 293.310946 166.108493 
L 293.907737 165.4902 
L 294.504529 166.795149 
L 294.802924 166.654096 
L 295.399716 167.621033 
L 295.698112 166.864147 
L 295.996507 167.267206 
L 296.294903 168.778092 
L 296.593299 169.05499 
L 296.891695 168.761897 
L 297.19009 168.71093 
L 297.488486 167.742667 
L 298.085277 169.264613 
L 298.383673 167.432988 
L 298.682069 168.344806 
L 298.980465 168.502555 
L 299.27886 169.430815 
L 299.577256 169.685325 
L 299.875652 168.870997 
L 300.174047 169.484155 
L 300.770839 169.27929 
L 301.069235 168.891965 
L 301.964422 170.281456 
L 302.262818 169.650673 
L 302.561213 169.556229 
L 302.859609 169.332334 
L 303.158005 169.753204 
L 303.4564 169.245746 
L 303.754796 169.301257 
L 304.053192 168.308343 
L 304.351588 168.719347 
L 304.649983 169.428888 
L 304.948379 170.479059 
L 305.246775 169.745954 
L 305.54517 170.42337 
L 306.141962 170.868408 
L 306.440358 170.270927 
L 306.738753 169.303986 
L 307.037149 170.119499 
L 307.335545 169.767772 
L 307.633941 169.857879 
L 307.932336 169.586723 
L 308.230732 169.716683 
L 308.529128 171.181534 
L 308.827523 170.772517 
L 309.125919 171.187108 
L 309.424315 170.514292 
L 309.722711 170.129486 
L 310.021106 170.984094 
L 310.319502 171.01828 
L 310.617898 171.330471 
L 310.916293 170.098185 
L 311.214689 171.20177 
L 311.513085 170.094581 
L 311.811481 170.641587 
L 312.109876 170.954885 
L 312.408272 170.937869 
L 312.706668 171.877335 
L 313.005064 171.940686 
L 313.303459 171.802314 
L 313.601855 170.553515 
L 313.900251 170.961193 
L 314.198646 170.871702 
L 314.497042 171.781641 
L 314.795438 171.652601 
L 315.392229 169.934908 
L 315.690625 169.855105 
L 315.989021 169.93931 
L 316.287416 170.289627 
L 316.585812 171.688032 
L 316.884208 171.08577 
L 317.182604 171.519824 
L 317.480999 171.452305 
L 317.779395 170.690751 
L 318.077791 170.4779 
L 318.376186 170.686815 
L 318.674582 171.598358 
L 318.972978 171.429171 
L 319.271374 170.468689 
L 319.569769 170.552143 
L 319.868165 171.170605 
L 320.166561 171.076991 
L 320.464957 170.857447 
L 320.763352 172.026858 
L 321.061748 171.897187 
L 321.360144 172.552691 
L 321.658539 172.187376 
L 321.956935 172.119924 
L 322.255331 172.812751 
L 322.553727 172.431816 
L 322.852122 171.504635 
L 323.150518 171.078927 
L 323.448914 172.052269 
L 323.747309 172.01934 
L 324.045705 171.139247 
L 324.344101 171.456836 
L 324.642497 172.361364 
L 324.940892 171.736331 
L 325.239288 172.752857 
L 325.537684 172.572182 
L 325.83608 171.777554 
L 326.134475 171.812087 
L 326.432871 172.632344 
L 326.731267 173.098525 
L 327.029662 172.871148 
L 327.328058 171.911924 
L 327.626454 172.195097 
L 327.92485 172.633227 
L 328.223245 172.795828 
L 328.521641 172.498574 
L 328.820037 172.657809 
L 329.118432 172.305638 
L 329.416828 173.087526 
L 329.715224 172.752212 
L 330.01362 171.853783 
L 330.312015 172.249377 
L 330.610411 173.237597 
L 330.908807 172.465509 
L 331.207203 172.943736 
L 331.803994 172.308294 
L 332.10239 172.475761 
L 332.400785 172.805779 
L 332.699181 173.509988 
L 332.997577 173.535105 
L 333.295973 172.965856 
L 333.594368 173.195651 
L 333.892764 173.028642 
L 334.19116 173.17028 
L 334.489555 173.69358 
L 334.787951 173.695534 
L 335.086347 173.025585 
L 335.384743 173.163722 
L 335.683138 172.773572 
L 335.981534 172.143886 
L 336.27993 172.728104 
L 336.876721 173.301175 
L 337.175117 173.212307 
L 337.473513 173.473794 
L 337.771908 173.354617 
L 338.070304 172.340577 
L 338.965491 173.545899 
L 339.263887 173.717131 
L 340.45747 172.846439 
L 340.755866 172.830841 
L 341.352657 173.914986 
L 341.651053 173.328633 
L 341.949449 173.220606 
L 342.247844 172.633549 
L 342.844636 172.524903 
L 343.143031 172.899515 
L 343.441427 172.995464 
L 343.739823 173.52655 
L 344.038219 172.911105 
L 344.63501 173.067123 
L 344.933406 172.580127 
L 345.231801 173.506689 
L 345.530197 173.224257 
L 346.126989 173.550066 
L 346.425384 173.870253 
L 346.72378 173.463889 
L 347.022176 173.309775 
L 347.320572 174.370365 
L 347.618967 174.641543 
L 347.917363 173.336782 
L 348.215759 174.511969 
L 348.514154 174.789815 
L 348.81255 174.779389 
L 349.110946 174.237352 
L 349.409342 174.548939 
L 349.707737 174.300293 
L 350.006133 174.250603 
L 350.304529 174.571552 
L 350.602924 174.630708 
L 350.90132 174.100518 
L 351.199716 174.358606 
L 351.498112 173.547171 
L 352.393299 174.726061 
L 352.691695 174.763368 
L 352.99009 174.404266 
L 353.288486 173.868562 
L 353.586882 174.002336 
L 353.885277 174.499336 
L 354.183673 174.761793 
L 354.482069 174.237576 
L 354.780465 173.960542 
L 355.07886 174.456797 
L 355.377256 174.608312 
L 355.675652 173.651449 
L 355.974047 174.262652 
L 356.272443 173.571319 
L 356.570839 173.445559 
L 356.869235 174.284243 
L 357.16763 174.647367 
L 357.466026 174.143819 
L 357.764422 175.098752 
L 358.062818 174.592985 
L 358.361213 174.67441 
L 358.659609 173.986843 
L 358.958005 174.89315 
L 359.2564 175.040789 
L 359.554796 174.521271 
L 359.853192 174.31169 
L 360.151588 174.409975 
L 360.449983 174.844725 
L 360.748379 174.091942 
L 361.046775 174.054085 
L 361.34517 175.056739 
L 361.643566 175.179453 
L 361.941962 174.76291 
L 362.240358 175.188881 
L 362.538753 174.606071 
L 362.837149 174.643741 
L 363.135545 175.360247 
L 363.433941 174.345135 
L 363.732336 174.196209 
L 364.030732 174.545014 
L 364.329128 174.055634 
L 364.627523 174.603814 
L 364.925919 174.591183 
L 365.224315 174.85815 
L 365.522711 175.470077 
L 366.417898 174.592355 
L 366.716293 175.085638 
L 367.611481 175.479677 
L 368.208272 174.720709 
L 368.506668 175.256771 
L 368.805064 174.918766 
L 369.103459 175.417736 
L 369.401855 174.536108 
L 369.700251 174.684633 
L 369.998646 174.961427 
L 370.297042 174.675325 
L 370.595438 174.602429 
L 370.893834 174.976565 
L 371.192229 175.109405 
L 371.490625 175.082062 
L 371.789021 175.327841 
L 372.087416 175.332892 
L 372.385812 175.704394 
L 372.684208 175.749832 
L 372.982604 176.00514 
L 373.579395 175.331336 
L 373.877791 175.820725 
L 374.176186 175.670553 
L 374.474582 176.437552 
L 375.071374 175.79007 
L 375.369769 175.892828 
L 375.668165 176.684125 
L 375.966561 176.529924 
L 376.264957 176.862434 
L 376.563352 176.827581 
L 377.160144 176.121104 
L 377.458539 176.371403 
L 377.756935 176.282667 
L 378.055331 176.55121 
L 378.353727 175.998972 
L 378.652122 176.438404 
L 378.950518 176.232709 
L 380.442497 176.191065 
L 381.039288 176.740455 
L 381.337684 176.851348 
L 381.63608 176.071476 
L 381.934475 176.531128 
L 382.232871 176.313304 
L 382.531267 176.241809 
L 382.829662 176.342322 
L 383.128058 176.154964 
L 383.426454 176.730567 
L 384.023245 176.218591 
L 384.321641 175.822586 
L 384.620037 176.737825 
L 385.216828 176.679438 
L 385.515224 176.37128 
L 385.81362 176.406383 
L 386.112015 176.716217 
L 386.410411 176.815412 
L 386.708807 177.092024 
L 387.007203 177.029247 
L 387.305598 176.541315 
L 387.603994 176.447746 
L 387.90239 177.045527 
L 388.499181 176.949279 
L 388.797577 177.623724 
L 389.095973 177.333461 
L 389.394368 177.417731 
L 389.99116 177.852056 
L 390.289555 177.331983 
L 390.587951 177.404682 
L 390.886347 177.087448 
L 391.184743 177.158187 
L 391.483138 177.398378 
L 391.781534 177.790668 
L 392.07993 177.673758 
L 392.378326 177.360908 
L 392.676721 177.671818 
L 392.975117 177.4662 
L 393.273513 177.428796 
L 393.571908 177.569326 
L 393.870304 177.546279 
L 394.1687 177.915382 
L 394.467096 177.810681 
L 395.063887 178.110901 
L 395.362283 178.166555 
L 395.660678 178.094477 
L 395.959074 178.494665 
L 396.25747 178.181803 
L 396.555866 178.777438 
L 396.854261 178.034988 
L 397.451053 178.678885 
L 397.749449 178.273268 
L 398.047844 178.558078 
L 398.34624 178.645732 
L 398.644636 178.979903 
L 398.943031 178.604421 
L 399.241427 178.72779 
L 399.539823 179.086753 
L 399.838219 179.201082 
L 400.136614 179.159582 
L 400.43501 179.666424 
L 400.733406 178.766806 
L 401.628593 179.450476 
L 401.926989 178.899028 
L 402.225384 178.941914 
L 402.52378 178.499958 
L 402.822176 178.50986 
L 403.120572 178.949115 
L 404.015759 178.963947 
L 404.314154 179.468592 
L 404.61255 178.957596 
L 404.910946 179.146655 
L 405.209342 179.543453 
L 405.507737 179.427571 
L 405.806133 179.127683 
L 406.104529 179.518266 
L 406.402924 179.204089 
L 406.70132 179.222719 
L 406.999716 178.98623 
L 407.596507 179.874376 
L 407.894903 179.517771 
L 408.491695 179.686319 
L 408.79009 179.129207 
L 409.088486 179.487302 
L 409.386882 179.333922 
L 409.685277 179.358981 
L 409.983673 179.26307 
L 410.282069 179.425154 
L 410.580465 179.749735 
L 411.475652 179.776525 
L 412.072443 179.344682 
L 412.370839 179.001729 
L 412.669235 179.286516 
L 412.96763 179.275482 
L 413.266026 179.092813 
L 413.862818 179.884484 
L 414.161213 179.531372 
L 414.758005 179.715287 
L 415.0564 180.303038 
L 415.354796 179.626734 
L 415.653192 179.711593 
L 415.951588 180.147627 
L 416.249983 179.670431 
L 416.548379 179.744088 
L 416.846775 179.947498 
L 417.443566 179.938698 
L 417.741962 180.335198 
L 418.040358 179.565856 
L 418.338753 179.855395 
L 418.637149 179.740909 
L 419.532336 179.74427 
L 419.830732 179.931039 
L 420.129128 179.520946 
L 420.427523 180.09352 
L 420.725919 180.325481 
L 421.024315 180.140308 
L 421.322711 180.371481 
L 421.621106 179.869368 
L 421.919502 179.963973 
L 422.217898 179.778552 
L 422.516293 180.202878 
L 422.814689 179.514326 
L 423.113085 179.482513 
L 423.411481 180.026128 
L 423.709876 179.427368 
L 424.008272 180.162905 
L 424.306668 180.306756 
L 424.605064 180.214288 
L 424.903459 180.380419 
L 425.500251 180.086379 
L 425.798646 180.226138 
L 426.097042 180.13434 
L 426.395438 180.485126 
L 426.693834 179.700224 
L 426.992229 180.485923 
L 427.290625 180.18604 
L 427.589021 180.300664 
L 427.887416 179.763172 
L 428.185812 180.343231 
L 428.484208 180.165772 
L 428.782604 179.744616 
L 429.080999 179.91302 
L 429.379395 180.310773 
L 429.677791 180.22706 
L 429.976186 179.954252 
L 430.274582 180.26877 
L 431.169769 179.54126 
L 431.468165 180.330199 
L 431.766561 179.814204 
L 432.064957 180.189141 
L 432.363352 179.754376 
L 432.661748 179.853491 
L 432.960144 179.818375 
L 433.258539 180.340954 
L 433.556935 179.605927 
L 433.855331 179.87026 
L 434.750518 180.07964 
L 435.645705 179.896924 
L 435.944101 180.110488 
L 436.839288 179.963066 
L 437.137684 179.986136 
L 437.43608 179.786335 
L 437.734475 180.758785 
L 438.032871 180.032607 
L 438.331267 179.725176 
L 438.629662 180.118395 
L 439.226454 180.137444 
L 439.52485 179.824126 
L 439.823245 180.373565 
L 440.121641 180.011501 
L 440.420037 180.842442 
L 441.016828 179.845933 
L 441.61362 180.704952 
L 441.912015 180.052903 
L 442.210411 180.440301 
L 442.508807 180.109915 
L 442.807203 180.557143 
L 443.105598 179.928409 
L 443.403994 180.445121 
L 443.70239 180.182771 
L 444.000785 180.431568 
L 444.299181 180.367132 
L 444.597577 179.936347 
L 444.895973 179.76118 
L 445.194368 180.23181 
L 445.492764 180.466946 
L 446.089555 180.41052 
L 446.387951 179.999994 
L 446.686347 180.530902 
L 446.984743 180.113117 
L 447.283138 179.963953 
L 448.178326 180.459806 
L 448.476721 180.126073 
L 448.775117 180.086951 
L 449.073513 180.429204 
L 449.371908 179.835401 
L 449.670304 179.932744 
L 449.9687 180.477864 
L 450.565491 180.413045 
L 450.863887 180.786465 
L 451.162283 180.680939 
L 451.460678 181.04021 
L 451.759074 180.618574 
L 452.05747 180.82221 
L 452.355866 181.161888 
L 452.654261 181.009758 
L 452.952657 180.357643 
L 453.251053 181.03261 
L 453.847844 180.65069 
L 454.444636 180.962039 
L 454.743031 180.873817 
L 455.041427 181.058111 
L 455.339823 180.777752 
L 455.638219 180.886168 
L 455.936614 180.622959 
L 456.23501 180.617082 
L 456.533406 180.960957 
L 456.831801 180.67538 
L 457.130197 180.828634 
L 457.428593 180.788095 
L 457.726989 181.055961 
L 458.025384 180.313954 
L 458.32378 180.775309 
L 458.622176 180.938638 
L 458.920572 180.542884 
L 459.517363 181.168604 
L 459.815759 179.688472 
L 460.114154 180.392513 
L 460.41255 178.640427 
L 460.710946 180.57413 
L 461.009342 180.541096 
L 461.904529 179.634978 
L 462.50132 180.678679 
L 462.799716 181.001879 
L 463.098112 179.692597 
L 463.396507 179.872039 
L 463.694903 179.911641 
L 463.993299 179.702042 
L 464.291695 179.916145 
L 464.59009 180.866377 
L 464.888486 181.119183 
L 465.186882 180.870432 
L 465.783673 181.317297 
L 466.380465 181.259107 
L 466.67886 181.713421 
L 466.977256 181.801746 
L 467.275652 181.342694 
L 467.574047 181.740323 
L 467.872443 181.870945 
L 468.469235 181.379809 
L 468.76763 181.10921 
L 469.066026 181.578598 
L 469.364422 181.457262 
L 469.662818 181.756397 
L 469.961213 181.833844 
L 470.259609 181.452956 
L 470.558005 180.758443 
L 470.8564 181.092783 
L 471.154796 181.698405 
L 471.453192 181.772995 
L 471.751588 181.05467 
L 472.049983 181.089973 
L 472.348379 181.50234 
L 472.646775 181.66487 
L 472.94517 181.35546 
L 473.243566 181.225757 
L 473.541962 181.543379 
L 474.437149 181.080672 
L 475.033941 181.726543 
L 475.332336 181.237467 
L 475.630732 181.032272 
L 475.929128 181.377015 
L 476.227523 181.301601 
L 476.525919 181.535514 
L 476.824315 181.258281 
L 477.122711 181.493265 
L 477.719502 181.256666 
L 478.017898 181.513799 
L 478.316293 181.435503 
L 478.614689 181.514314 
L 479.509876 181.189708 
L 479.808272 181.198173 
L 480.106668 180.7601 
L 480.703459 181.34693 
L 481.001855 181.245781 
L 481.300251 181.498462 
L 481.598646 181.550906 
L 482.195438 180.992424 
L 482.493834 181.268454 
L 483.090625 181.035894 
L 483.389021 180.820112 
L 483.687416 181.13928 
L 483.985812 181.229345 
L 484.284208 181.017003 
L 484.582604 180.951223 
L 484.880999 180.76528 
L 485.179395 180.995814 
L 485.477791 180.902129 
L 486.074582 181.354898 
L 486.969769 181.077253 
L 487.268165 181.562308 
L 487.566561 181.129142 
L 488.760144 181.024166 
L 489.058539 180.608327 
L 489.356935 180.84078 
L 489.655331 180.342192 
L 490.252122 180.471055 
L 490.550518 180.088666 
L 490.848914 180.506601 
L 491.445705 180.773344 
L 491.744101 180.569682 
L 492.042497 180.692288 
L 492.639288 180.742516 
L 492.937684 180.806807 
L 493.23608 180.719669 
L 493.534475 180.47129 
L 494.131267 181.015355 
L 494.429662 180.70871 
L 495.026454 180.550199 
L 495.623245 180.648926 
L 495.921641 180.427252 
L 496.816828 180.915069 
L 497.41362 180.821858 
L 497.712015 180.62099 
L 498.010411 181.404136 
L 498.308807 180.454013 
L 498.607203 180.56572 
L 498.905598 180.270258 
L 499.50239 180.815892 
L 499.800785 180.959847 
L 500.099181 180.681966 
L 500.397577 180.77097 
L 500.695973 180.436864 
L 501.292764 181.367257 
L 501.59116 181.425191 
L 501.889555 180.975402 
L 502.187951 181.394564 
L 502.486347 181.243575 
L 503.381534 181.439895 
L 504.276721 181.038546 
L 504.575117 181.078359 
L 504.873513 180.805165 
L 505.171908 181.109987 
L 505.470304 180.894622 
L 505.7687 180.885497 
L 506.067096 181.030231 
L 506.663887 180.582459 
L 506.962283 180.5819 
L 507.260678 181.301521 
L 508.155866 180.850515 
L 508.454261 180.596543 
L 508.752657 181.03422 
L 509.051053 180.387739 
L 509.349449 180.595513 
L 509.647844 180.992694 
L 509.94624 180.906266 
L 510.543031 180.964894 
L 510.841427 180.463233 
L 511.139823 180.413894 
L 511.438219 180.688925 
L 511.736614 180.572082 
L 512.333406 180.593941 
L 512.631801 180.817773 
L 512.930197 180.273597 
L 513.526989 180.300158 
L 513.825384 180.730083 
L 514.422176 181.065862 
L 514.720572 181.07676 
L 515.018967 180.729234 
L 515.317363 181.182576 
L 515.615759 181.067842 
L 515.914154 181.205744 
L 516.809342 180.753324 
L 517.406133 181.150151 
L 517.704529 180.58805 
L 518.002924 181.350497 
L 518.30132 180.81243 
L 518.599716 180.63374 
L 519.196507 181.003007 
L 519.494903 181.941892 
L 520.091695 181.543051 
L 520.39009 181.754085 
L 520.688486 181.610898 
L 520.986882 180.954346 
L 521.285277 181.59882 
L 521.583673 181.325681 
L 521.882069 181.27557 
L 522.180465 181.004722 
L 522.47886 181.055718 
L 522.777256 180.747448 
L 523.075652 181.066094 
L 523.374047 181.051048 
L 523.672443 181.267209 
L 524.269235 180.62789 
L 524.56763 181.382941 
L 524.866026 180.932179 
L 525.164422 180.82115 
L 525.761213 180.968331 
L 526.059609 180.532245 
L 526.358005 180.797535 
L 526.6564 180.77279 
L 526.954796 180.5937 
L 527.253192 180.66505 
L 527.551588 181.171911 
L 528.148379 180.830612 
L 528.446775 181.058228 
L 528.74517 180.702383 
L 529.043566 181.53683 
L 529.341962 180.985928 
L 529.640358 180.681202 
L 530.237149 180.754547 
L 530.535545 180.449857 
L 530.833941 180.816854 
L 531.132336 180.729683 
L 531.430732 181.090441 
L 531.729128 180.750473 
L 532.325919 180.964601 
L 532.624315 180.968534 
L 532.922711 181.427189 
L 533.221106 181.365353 
L 533.519502 181.070849 
L 533.817898 181.437569 
L 534.414689 181.191414 
L 535.011481 181.239322 
L 535.309876 181.198415 
L 535.906668 181.561854 
L 536.503459 181.654299 
L 536.801855 181.167515 
L 537.100251 181.02352 
L 537.697042 180.99732 
L 537.995438 180.830116 
L 538.293834 181.266327 
L 538.592229 180.895491 
L 538.890625 181.437192 
L 539.487416 180.6598 
L 539.785812 180.863089 
L 540.084208 180.926796 
L 540.680999 181.30559 
L 540.979395 180.611412 
L 541.277791 181.089032 
L 541.576186 180.353987 
L 541.874582 180.85321 
L 542.172978 180.702608 
L 542.471374 181.158002 
L 542.769769 181.162582 
L 543.068165 181.017174 
L 543.366561 181.091327 
L 543.963352 180.642218 
L 544.560144 180.970936 
L 544.858539 180.304453 
L 545.156935 181.094927 
L 545.753727 180.995537 
L 546.052122 180.782287 
L 546.350518 180.924361 
L 546.648914 180.891018 
L 546.947309 180.308226 
L 547.245705 180.384108 
L 547.544101 180.216092 
L 547.842497 180.419858 
L 548.140892 180.373463 
L 548.439288 180.09461 
L 548.737684 180.283628 
L 549.03608 180.695648 
L 549.334475 180.275217 
L 549.632871 180.355095 
L 549.931267 180.752406 
L 550.528058 180.686666 
L 550.826454 180.545878 
L 551.12485 180.685748 
L 551.423245 180.592957 
L 552.020037 181.485827 
L 552.318432 181.055496 
L 552.616828 181.512296 
L 552.915224 181.050615 
L 553.21362 180.827786 
L 553.810411 180.884563 
L 554.108807 181.202102 
L 554.407203 180.650656 
L 554.705598 180.823764 
L 555.003994 180.727668 
L 555.600785 181.31409 
L 556.197577 180.373238 
L 556.495973 180.744619 
L 556.794368 180.05181 
L 557.092764 179.901931 
L 558.286347 180.837801 
L 559.181534 181.259173 
L 559.47993 180.644991 
L 559.778326 181.11426 
L 560.076721 181.159168 
L 560.375117 180.746381 
L 560.673513 180.698586 
L 561.270304 181.113565 
L 561.5687 180.972924 
L 561.867096 181.257505 
L 562.165491 180.695665 
L 562.762283 181.216332 
L 563.060678 180.964219 
L 563.359074 180.87865 
L 563.65747 181.119521 
L 563.955866 181.607793 
L 564.254261 181.122925 
L 564.552657 181.126172 
L 564.851053 181.370888 
L 565.149449 181.43704 
L 565.447844 181.093536 
L 565.74624 181.212693 
L 566.044636 181.019488 
L 566.343031 181.104517 
L 566.641427 181.313435 
L 566.939823 181.263302 
L 567.238219 181.060523 
L 567.536614 181.379133 
L 567.83501 181.056778 
L 568.431801 181.824746 
L 568.730197 181.161291 
L 569.028593 180.902771 
L 569.326989 180.852171 
L 569.625384 181.064476 
L 570.222176 181.065349 
L 570.520572 181.386164 
L 570.818967 180.846129 
L 571.117363 181.129251 
L 571.415759 180.717284 
L 572.907737 181.167349 
L 573.206133 180.999915 
L 573.504529 180.967955 
L 573.802924 181.051937 
L 574.10132 180.81279 
L 574.399716 181.059271 
L 574.698112 180.702309 
L 574.996507 180.588755 
L 575.294903 180.703216 
L 575.593299 181.00155 
L 575.891695 181.056528 
L 577.383673 180.596252 
L 577.682069 181.115839 
L 577.980465 180.5885 
L 578.27886 180.583452 
L 578.577256 181.075765 
L 578.875652 180.902829 
L 579.174047 181.082691 
L 579.770839 180.516812 
L 580.069235 180.882191 
L 580.36763 180.754055 
L 580.666026 180.228423 
L 580.964422 180.743409 
L 581.262818 180.613445 
L 581.859609 180.631908 
L 582.4564 180.376303 
L 582.754796 180.595608 
L 583.053192 180.033503 
L 583.351588 180.308104 
L 584.246775 179.882956 
L 584.54517 180.347983 
L 584.843566 180.459488 
L 585.141962 180.037707 
L 585.440358 180.493574 
L 585.738753 180.331093 
L 586.037149 180.34676 
L 586.335545 180.532316 
L 586.633941 180.117255 
L 586.932336 180.389801 
L 587.230732 179.972239 
L 587.529128 180.378161 
L 587.827523 179.639195 
L 588.125919 180.001312 
L 588.424315 180.150588 
L 588.722711 180.017005 
L 589.021106 180.29023 
L 589.319502 180.344243 
L 589.617898 179.773913 
L 589.916293 180.443003 
L 590.513085 180.046541 
L 590.811481 180.588751 
L 591.109876 180.630909 
L 591.408272 180.422205 
L 591.706668 179.979481 
L 592.005064 179.980021 
L 592.303459 180.267887 
L 592.900251 180.459654 
L 593.198646 180.355328 
L 593.497042 180.414516 
L 593.795438 180.679357 
L 594.093834 179.984639 
L 594.392229 180.452226 
L 594.690625 180.335344 
L 594.989021 180.36438 
L 595.287416 180.134694 
L 595.585812 180.174247 
L 595.884208 180.054276 
L 596.480999 180.915646 
L 597.077791 180.043054 
L 597.376186 180.680668 
L 597.674582 180.727511 
L 597.972978 180.458417 
L 599.166561 180.379402 
L 599.464957 180.514897 
L 599.763352 180.227952 
L 600.061748 180.124723 
L 600.360144 179.850348 
L 600.658539 180.090286 
L 600.956935 179.917352 
L 601.255331 180.512762 
L 601.852122 180.823261 
L 602.448914 179.958638 
L 602.747309 180.321717 
L 603.045705 180.328139 
L 603.344101 180.156723 
L 603.642497 180.114062 
L 603.940892 180.687849 
L 604.239288 180.392449 
L 604.537684 180.269831 
L 604.83608 180.747104 
L 605.432871 180.036172 
L 605.731267 180.563158 
L 606.328058 180.062253 
L 606.92485 180.242465 
L 607.223245 180.186906 
L 607.521641 179.803245 
L 607.820037 180.048928 
L 608.118432 180.503668 
L 608.416828 180.519481 
L 608.715224 180.213884 
L 609.610411 180.57193 
L 609.908807 180.1393 
L 610.207203 179.994116 
L 610.505598 180.241309 
L 610.803994 180.693579 
L 611.10239 180.123898 
L 611.400785 180.546062 
L 611.699181 180.316657 
L 611.997577 180.855769 
L 612.295973 180.623698 
L 612.594368 180.673502 
L 612.892764 179.953548 
L 613.787951 180.670177 
L 614.086347 180.729558 
L 614.384743 180.371113 
L 614.981534 180.607704 
L 615.27993 180.520945 
L 615.578326 180.56989 
L 615.876721 180.185434 
L 616.175117 180.157958 
L 616.473513 180.363142 
L 616.771908 180.41126 
L 617.070304 180.241071 
L 617.3687 180.415905 
L 617.667096 180.021148 
L 618.263887 180.421487 
L 618.562283 180.285984 
L 619.45747 180.217228 
L 619.755866 179.837688 
L 620.054261 180.347061 
L 620.352657 180.003514 
L 620.651053 180.152873 
L 620.949449 180.697102 
L 621.247844 180.202317 
L 621.54624 180.720307 
L 621.844636 180.508126 
L 622.143031 180.719585 
L 622.441427 180.2235 
L 622.739823 180.435391 
L 623.038219 180.909896 
L 623.336614 180.790144 
L 623.63501 180.527332 
L 623.933406 180.110063 
L 624.231801 180.933318 
L 624.828593 180.226193 
L 625.126989 180.721908 
L 625.126989 180.721908 
" clip-path="url(#pdb5f7cc619)" style="fill: none; stroke: #1f77b4; stroke-width: 1.5; stroke-linecap: square"/>
   </g>
   <g id="line2d_15">
    <path d="M 117.854261 296.03625 
L 118.152657 293.670519 
L 118.451053 246.011862 
L 118.749449 269.986081 
L 119.047844 278.80496 
L 119.34624 248.797222 
L 119.644636 230.620247 
L 119.943031 249.231156 
L 120.241427 223.688053 
L 120.539823 220.004876 
L 120.838219 208.447941 
L 121.136614 211.42837 
L 121.43501 210.881812 
L 121.733406 207.172589 
L 122.031801 205.397716 
L 122.330197 204.796222 
L 122.628593 201.902029 
L 122.926989 204.825475 
L 123.225384 199.039532 
L 123.52378 198.542908 
L 123.822176 192.649877 
L 124.120572 193.698227 
L 124.418967 192.006893 
L 124.717363 194.531603 
L 125.015759 193.321072 
L 125.314154 195.950344 
L 125.61255 197.127018 
L 125.910946 197.851664 
L 126.209342 197.33166 
L 126.507737 192.321801 
L 126.806133 190.967719 
L 127.104529 193.33488 
L 127.402924 192.207896 
L 127.999716 192.261632 
L 128.298112 189.654198 
L 128.894903 191.107552 
L 129.79009 192.268471 
L 130.386882 187.000513 
L 131.282069 191.730823 
L 131.580465 190.152641 
L 131.87886 189.313256 
L 132.177256 190.141136 
L 132.475652 189.859756 
L 132.774047 189.199789 
L 133.072443 188.181538 
L 133.370839 189.724939 
L 133.669235 185.408925 
L 133.96763 186.78425 
L 134.266026 189.527407 
L 134.564422 190.100574 
L 134.862818 186.043988 
L 135.161213 188.646009 
L 135.459609 187.302461 
L 135.758005 187.322897 
L 136.0564 188.79512 
L 136.354796 187.482793 
L 136.653192 184.947255 
L 136.951588 187.693612 
L 137.249983 186.691977 
L 137.548379 188.118964 
L 137.846775 188.999593 
L 138.443566 186.831658 
L 138.741962 188.620825 
L 139.040358 188.360617 
L 139.338753 188.945293 
L 139.637149 187.132025 
L 139.935545 186.201876 
L 140.233941 188.283568 
L 140.830732 187.196792 
L 141.129128 186.938449 
L 141.427523 187.869209 
L 141.725919 189.448849 
L 142.024315 186.718774 
L 142.322711 187.926137 
L 142.621106 188.029027 
L 142.919502 190.577963 
L 143.217898 188.203017 
L 143.516293 187.138785 
L 143.814689 187.142223 
L 144.113085 186.650825 
L 144.411481 187.646986 
L 144.709876 189.119807 
L 145.008272 187.357287 
L 145.605064 186.780915 
L 146.201855 187.368904 
L 146.798646 186.468459 
L 147.097042 186.8359 
L 147.395438 186.971379 
L 147.693834 186.899701 
L 147.992229 185.093429 
L 148.589021 187.794619 
L 148.887416 185.873828 
L 149.185812 187.042895 
L 149.484208 187.159686 
L 149.782604 186.253183 
L 150.080999 188.14548 
L 150.379395 186.173962 
L 150.677791 185.537409 
L 150.976186 184.507913 
L 151.274582 185.289264 
L 151.572978 185.491353 
L 152.169769 185.50605 
L 152.468165 186.706911 
L 153.363352 186.282175 
L 153.661748 187.690941 
L 153.960144 187.862135 
L 154.258539 187.247781 
L 154.556935 187.676233 
L 154.855331 187.559511 
L 155.153727 186.670892 
L 155.452122 186.806549 
L 155.750518 187.357622 
L 156.048914 185.867307 
L 156.347309 187.427715 
L 156.645705 187.569171 
L 156.944101 186.07568 
L 157.242497 187.16852 
L 157.540892 186.5731 
L 158.137684 187.488045 
L 158.43608 188.414262 
L 158.734475 186.39198 
L 159.032871 186.976814 
L 159.331267 187.007496 
L 159.629662 187.455282 
L 159.928058 187.062753 
L 160.226454 187.688059 
L 160.52485 188.913983 
L 160.823245 187.573495 
L 161.420037 187.191744 
L 161.718432 188.389262 
L 162.016828 187.798525 
L 162.315224 188.176457 
L 162.61362 187.385669 
L 162.912015 187.75249 
L 163.210411 188.699782 
L 163.508807 187.992732 
L 164.105598 187.416289 
L 164.403994 187.418395 
L 164.70239 188.303428 
L 165.000785 188.623496 
L 165.299181 187.288899 
L 165.597577 187.427393 
L 165.895973 186.829265 
L 166.79116 187.035494 
L 167.089555 187.28354 
L 167.387951 186.891307 
L 167.686347 186.72 
L 167.984743 188.287451 
L 168.283138 187.859376 
L 168.581534 187.743438 
L 168.87993 188.356273 
L 169.178326 188.02346 
L 169.476721 188.876462 
L 169.775117 188.073269 
L 170.073513 188.013018 
L 170.371908 188.164853 
L 170.9687 188.680438 
L 171.267096 188.271192 
L 171.565491 187.5247 
L 171.863887 188.341547 
L 172.162283 188.324353 
L 172.460678 189.009177 
L 172.759074 188.05667 
L 173.05747 188.160156 
L 173.654261 187.39402 
L 173.952657 188.24029 
L 174.251053 188.117727 
L 174.549449 188.362317 
L 175.14624 187.579802 
L 175.444636 188.523492 
L 175.743031 187.779426 
L 176.041427 188.004608 
L 176.339823 188.050907 
L 176.638219 187.705057 
L 177.23501 188.714194 
L 177.533406 188.091426 
L 178.130197 188.372829 
L 178.428593 187.862224 
L 179.025384 189.328308 
L 179.32378 188.385363 
L 179.622176 188.20942 
L 179.920572 187.831949 
L 180.218967 189.396933 
L 180.517363 188.005285 
L 180.815759 188.784901 
L 181.114154 187.040929 
L 181.41255 188.521028 
L 181.710946 188.971472 
L 182.009342 189.738808 
L 182.307737 189.229262 
L 182.606133 189.357389 
L 183.202924 187.861986 
L 183.50132 189.002622 
L 183.799716 188.464863 
L 184.098112 188.759545 
L 184.396507 188.493274 
L 184.993299 187.552388 
L 185.291695 188.515434 
L 185.59009 187.482559 
L 185.888486 188.208671 
L 186.186882 188.294128 
L 186.485277 188.216891 
L 186.783673 187.922589 
L 187.082069 188.012822 
L 187.380465 187.853364 
L 187.67886 187.512304 
L 188.275652 188.52519 
L 188.574047 188.286137 
L 188.872443 188.223808 
L 189.170839 188.930585 
L 189.469235 188.287846 
L 189.76763 187.929877 
L 190.066026 188.750086 
L 190.364422 188.931987 
L 190.662818 188.828422 
L 190.961213 187.992121 
L 191.558005 188.912342 
L 192.154796 188.581938 
L 192.453192 188.857937 
L 192.751588 188.733222 
L 193.049983 188.460897 
L 193.646775 189.477394 
L 193.94517 189.028242 
L 194.243566 189.131799 
L 194.541962 188.861658 
L 194.840358 189.526858 
L 195.138753 189.535713 
L 195.735545 188.843236 
L 196.033941 188.902469 
L 196.332336 188.297058 
L 196.630732 189.54924 
L 196.929128 188.985136 
L 197.824315 189.774629 
L 198.122711 189.788429 
L 198.719502 189.519565 
L 199.017898 190.233118 
L 199.316293 189.702311 
L 199.614689 189.514199 
L 199.913085 190.08353 
L 200.211481 190.008336 
L 200.509876 189.565447 
L 200.808272 189.583096 
L 201.106668 190.037254 
L 201.405064 189.91953 
L 202.001855 190.246258 
L 202.300251 188.569576 
L 202.897042 189.990945 
L 203.195438 189.358044 
L 203.493834 189.515732 
L 203.792229 190.11674 
L 204.090625 190.121262 
L 204.389021 190.574514 
L 204.687416 190.013054 
L 205.284208 190.082704 
L 205.880999 189.159987 
L 206.179395 189.122912 
L 206.477791 190.043139 
L 206.776186 189.066995 
L 207.074582 189.494748 
L 207.372978 189.70741 
L 207.671374 189.284489 
L 207.969769 188.605509 
L 208.268165 188.988014 
L 208.566561 188.617698 
L 208.864957 189.643596 
L 209.163352 189.470632 
L 209.461748 188.767958 
L 210.058539 188.195484 
L 210.356935 189.182142 
L 210.655331 189.285755 
L 210.953727 188.604241 
L 211.252122 188.630051 
L 211.848914 189.001234 
L 212.147309 188.555197 
L 212.445705 188.711234 
L 212.744101 188.331132 
L 213.042497 188.216426 
L 213.340892 188.946966 
L 213.639288 188.868593 
L 213.937684 186.61303 
L 214.23608 187.3314 
L 214.534475 187.278921 
L 214.832871 188.626443 
L 215.131267 188.356777 
L 215.429662 188.236927 
L 215.728058 189.014136 
L 216.026454 188.35781 
L 216.32485 188.732627 
L 216.623245 188.594183 
L 217.220037 187.977919 
L 217.518432 188.852699 
L 217.816828 188.838792 
L 218.115224 188.572765 
L 218.41362 187.58102 
L 218.712015 188.035673 
L 219.010411 188.068834 
L 219.308807 188.700876 
L 219.607203 188.052588 
L 219.905598 188.169167 
L 220.203994 188.687222 
L 220.50239 187.943018 
L 220.800785 188.021358 
L 221.099181 188.77915 
L 221.397577 187.496709 
L 221.695973 188.089395 
L 221.994368 188.053076 
L 222.292764 188.150853 
L 223.187951 187.922646 
L 223.486347 186.703195 
L 223.784743 187.536367 
L 224.083138 188.008924 
L 224.67993 187.626979 
L 224.978326 187.479456 
L 225.276721 187.854597 
L 225.575117 188.015779 
L 226.171908 187.371093 
L 226.7687 187.613359 
L 227.067096 187.426125 
L 227.365491 187.772992 
L 228.260678 187.031821 
L 228.559074 187.559654 
L 228.85747 187.190519 
L 229.155866 187.5633 
L 229.454261 187.427299 
L 229.752657 187.129459 
L 230.349449 187.940556 
L 230.647844 187.680124 
L 230.94624 187.68277 
L 231.244636 187.422893 
L 231.543031 187.429192 
L 231.841427 187.247293 
L 232.139823 187.229189 
L 232.438219 187.632436 
L 232.736614 187.059433 
L 233.03501 186.9121 
L 233.333406 187.470026 
L 233.631801 186.911189 
L 233.930197 186.861304 
L 234.526989 188.172784 
L 234.825384 188.13753 
L 235.12378 186.583549 
L 235.720572 187.521703 
L 236.018967 186.950001 
L 236.317363 187.320842 
L 236.615759 187.351116 
L 236.914154 187.18988 
L 237.21255 187.486731 
L 237.510946 187.064197 
L 237.809342 188.068991 
L 238.107737 187.438666 
L 238.406133 187.525588 
L 238.704529 187.213787 
L 239.002924 187.064928 
L 239.30132 187.534254 
L 239.599716 186.999843 
L 239.898112 186.926129 
L 240.494903 187.337595 
L 240.793299 187.268334 
L 241.091695 187.325297 
L 241.688486 188.006475 
L 241.986882 187.257402 
L 242.285277 187.061195 
L 242.583673 187.293884 
L 242.882069 187.793211 
L 243.180465 187.372868 
L 243.47886 187.207817 
L 243.777256 187.337196 
L 244.075652 187.697688 
L 244.374047 187.695944 
L 244.970839 187.27155 
L 245.269235 187.498069 
L 245.56763 186.499071 
L 245.866026 187.45085 
L 246.164422 187.487471 
L 246.761213 187.079629 
L 247.059609 187.896338 
L 247.358005 188.090981 
L 247.6564 187.424129 
L 247.954796 187.19887 
L 248.253192 187.659776 
L 248.551588 187.411044 
L 248.849983 188.069676 
L 249.446775 187.84988 
L 249.74517 187.070756 
L 250.043566 187.950427 
L 250.640358 187.633012 
L 250.938753 188.045176 
L 251.237149 187.762842 
L 251.535545 188.078089 
L 251.833941 187.860503 
L 252.132336 187.220608 
L 252.430732 187.392386 
L 253.027523 187.36011 
L 253.325919 187.501666 
L 253.624315 187.962535 
L 253.922711 188.130643 
L 254.221106 187.961241 
L 254.519502 188.060456 
L 254.817898 187.395321 
L 255.116293 188.152944 
L 255.713085 187.777553 
L 256.011481 188.221934 
L 256.309876 188.327467 
L 256.608272 187.334414 
L 256.906668 187.575282 
L 257.205064 187.386209 
L 257.503459 187.621626 
L 258.100251 187.691807 
L 258.398646 187.598309 
L 258.697042 187.866171 
L 258.995438 188.502235 
L 259.293834 187.314569 
L 259.592229 187.493962 
L 259.890625 187.450727 
L 260.189021 187.814029 
L 260.487416 187.417195 
L 260.785812 187.974649 
L 261.382604 187.508638 
L 261.680999 187.346572 
L 261.979395 187.041069 
L 262.277791 187.641585 
L 262.576186 186.948475 
L 263.471374 187.407369 
L 263.769769 187.783451 
L 264.068165 186.782889 
L 264.366561 186.524814 
L 264.664957 187.174069 
L 264.963352 186.954514 
L 265.560144 187.170452 
L 265.858539 186.948924 
L 266.156935 187.357923 
L 266.455331 186.64722 
L 266.753727 186.591312 
L 267.052122 187.170567 
L 267.350518 186.922178 
L 267.648914 187.859855 
L 267.947309 187.608934 
L 268.245705 186.862467 
L 268.544101 187.229374 
L 268.842497 187.81697 
L 269.140892 187.636123 
L 269.439288 187.21291 
L 269.737684 187.445551 
L 270.03608 188.112018 
L 270.334475 187.574905 
L 270.632871 188.25343 
L 271.229662 187.376497 
L 271.528058 187.700975 
L 271.826454 187.308583 
L 272.423245 187.314403 
L 272.721641 186.835633 
L 273.020037 187.844397 
L 273.915224 187.208921 
L 274.21362 186.666028 
L 274.512015 187.334858 
L 274.810411 186.874302 
L 275.407203 187.869404 
L 275.705598 187.228491 
L 276.003994 187.823869 
L 276.30239 187.239268 
L 276.600785 187.020496 
L 276.899181 187.197063 
L 277.197577 187.932748 
L 277.495973 187.430735 
L 277.794368 187.394432 
L 278.092764 187.476013 
L 278.39116 187.297475 
L 278.689555 187.682553 
L 279.286347 187.372028 
L 279.584743 187.628201 
L 279.883138 186.783212 
L 280.181534 187.074856 
L 280.47993 186.839405 
L 280.778326 187.515935 
L 281.076721 187.763284 
L 281.375117 187.505691 
L 281.673513 186.969055 
L 281.971908 187.109494 
L 282.270304 187.535298 
L 282.5687 187.599074 
L 282.867096 187.05674 
L 283.165491 187.478947 
L 283.463887 186.890404 
L 283.762283 187.426476 
L 284.060678 186.929427 
L 284.65747 187.451987 
L 284.955866 187.646823 
L 285.254261 187.341754 
L 285.851053 187.365084 
L 286.149449 188.043789 
L 286.447844 187.491406 
L 286.74624 187.225406 
L 287.641427 187.781165 
L 287.939823 187.21531 
L 288.238219 187.431781 
L 288.536614 187.030991 
L 288.83501 187.667348 
L 289.133406 187.632509 
L 289.431801 187.483169 
L 289.730197 187.892397 
L 290.028593 188.030297 
L 290.326989 187.892854 
L 290.625384 187.209789 
L 290.92378 187.498252 
L 291.222176 187.144424 
L 291.520572 187.409736 
L 291.818967 187.265258 
L 292.117363 187.92355 
L 292.415759 187.202294 
L 292.714154 188.344075 
L 293.01255 187.628879 
L 293.310946 187.287634 
L 293.609342 187.250385 
L 293.907737 187.988552 
L 294.206133 187.071004 
L 294.504529 187.082474 
L 294.802924 187.294689 
L 295.10132 187.221526 
L 295.399716 187.028633 
L 295.698112 185.158508 
L 295.996507 184.299615 
L 296.294903 184.500074 
L 296.593299 185.277536 
L 297.19009 185.268716 
L 297.488486 185.015152 
L 297.786882 185.796076 
L 298.085277 185.957616 
L 298.383673 185.848003 
L 298.980465 185.892563 
L 299.577256 185.735179 
L 299.875652 186.276245 
L 300.174047 185.92426 
L 300.770839 186.411477 
L 301.069235 185.734071 
L 301.36763 185.479624 
L 301.666026 185.718253 
L 301.964422 185.690473 
L 302.262818 186.112403 
L 302.561213 186.273486 
L 302.859609 186.295534 
L 303.158005 185.989211 
L 303.4564 186.997044 
L 304.053192 186.170765 
L 304.351588 185.977352 
L 304.948379 186.875185 
L 305.246775 185.986072 
L 305.54517 185.923514 
L 305.843566 186.399051 
L 306.141962 186.190623 
L 306.440358 186.267194 
L 306.738753 186.775894 
L 307.037149 186.365425 
L 307.335545 186.908483 
L 307.633941 186.091172 
L 307.932336 185.744954 
L 308.230732 186.419137 
L 308.529128 186.485364 
L 308.827523 186.161955 
L 309.125919 186.35255 
L 310.319502 186.435734 
L 310.617898 186.270934 
L 310.916293 186.280163 
L 311.214689 186.571571 
L 311.811481 186.138949 
L 312.109876 186.467975 
L 312.408272 186.182124 
L 312.706668 186.297055 
L 313.303459 186.071706 
L 313.601855 185.619711 
L 313.900251 186.231998 
L 314.198646 186.019974 
L 314.497042 186.273818 
L 315.392229 186.389846 
L 315.690625 186.049325 
L 315.989021 186.585675 
L 316.287416 185.907984 
L 316.585812 185.839286 
L 317.182604 185.906247 
L 317.480999 186.203396 
L 317.779395 186.185789 
L 318.674582 186.534952 
L 318.972978 186.425753 
L 319.271374 187.20929 
L 319.569769 186.719798 
L 319.868165 186.52465 
L 320.166561 186.153964 
L 320.464957 186.784297 
L 320.763352 186.40804 
L 321.360144 186.201713 
L 321.658539 186.48308 
L 322.852122 186.353096 
L 323.448914 186.642501 
L 323.747309 186.526376 
L 324.045705 185.881085 
L 324.344101 185.85757 
L 324.940892 186.964825 
L 325.239288 187.053255 
L 325.537684 186.680356 
L 325.83608 186.720612 
L 326.134475 186.554846 
L 326.432871 186.154126 
L 327.029662 186.243824 
L 327.328058 186.221894 
L 327.626454 185.734358 
L 327.92485 186.339099 
L 328.223245 186.253976 
L 328.521641 186.357352 
L 328.820037 186.635677 
L 329.416828 186.401728 
L 329.715224 186.75468 
L 330.01362 186.846287 
L 330.312015 186.299263 
L 330.610411 186.117263 
L 330.908807 186.345605 
L 331.207203 186.360191 
L 331.505598 186.623006 
L 331.803994 186.388703 
L 332.10239 186.617551 
L 332.400785 186.09062 
L 332.699181 186.586596 
L 332.997577 186.190007 
L 333.295973 186.660059 
L 333.594368 186.198314 
L 333.892764 186.091641 
L 334.489555 185.492679 
L 335.086347 186.105814 
L 335.384743 186.26005 
L 335.981534 185.864112 
L 336.27993 186.417145 
L 336.578326 186.632897 
L 336.876721 185.933708 
L 337.175117 186.047637 
L 337.473513 186.288551 
L 337.771908 185.935597 
L 338.070304 186.265923 
L 338.3687 185.779064 
L 338.667096 186.225575 
L 338.965491 186.262343 
L 339.263887 186.175022 
L 339.860678 186.227135 
L 340.159074 186.45161 
L 340.45747 185.973284 
L 340.755866 186.244271 
L 341.054261 186.168642 
L 341.352657 185.807737 
L 341.651053 185.955103 
L 341.949449 185.719193 
L 342.247844 185.649423 
L 342.54624 185.813152 
L 342.844636 185.62288 
L 343.143031 185.698558 
L 343.441427 186.135217 
L 343.739823 186.148878 
L 344.038219 185.919774 
L 344.336614 186.061994 
L 344.63501 185.963711 
L 344.933406 186.235315 
L 346.126989 185.818094 
L 346.425384 185.097689 
L 346.72378 185.180212 
L 347.022176 185.592678 
L 347.320572 185.437189 
L 347.618967 185.40739 
L 347.917363 185.814178 
L 348.215759 185.288091 
L 348.514154 185.297282 
L 349.110946 186.011659 
L 349.409342 185.750687 
L 349.707737 185.921088 
L 350.304529 185.553697 
L 350.602924 185.815104 
L 350.90132 186.233264 
L 351.199716 186.316116 
L 351.498112 186.106491 
L 351.796507 186.302507 
L 352.393299 186.116011 
L 352.691695 186.737963 
L 352.99009 186.254033 
L 353.288486 186.364181 
L 353.586882 186.005004 
L 354.482069 185.818936 
L 354.780465 186.107107 
L 355.377256 186.203682 
L 355.675652 185.955973 
L 355.974047 186.32537 
L 356.272443 185.95286 
L 356.570839 186.028157 
L 356.869235 185.742714 
L 357.16763 185.72313 
L 357.466026 186.013151 
L 358.062818 185.709862 
L 358.659609 185.929628 
L 358.958005 185.404373 
L 359.2564 185.736935 
L 359.554796 186.478309 
L 359.853192 185.97255 
L 360.151588 186.223972 
L 360.449983 185.852485 
L 361.046775 186.277131 
L 361.34517 186.02464 
L 361.643566 186.005793 
L 361.941962 185.790291 
L 362.240358 185.379349 
L 362.538753 185.745231 
L 363.135545 185.577989 
L 363.433941 185.490213 
L 363.732336 185.71399 
L 364.030732 185.547125 
L 364.329128 186.376341 
L 364.627523 185.685145 
L 364.925919 185.437634 
L 365.224315 185.782203 
L 365.522711 185.450856 
L 365.821106 185.439633 
L 366.417898 185.955089 
L 366.716293 185.591906 
L 367.313085 185.952991 
L 367.611481 185.654438 
L 367.909876 185.861792 
L 368.208272 185.674963 
L 368.506668 185.971651 
L 368.805064 186.050419 
L 369.103459 185.671561 
L 369.401855 185.714797 
L 369.700251 185.910593 
L 369.998646 185.816853 
L 370.297042 185.941182 
L 370.595438 185.56361 
L 370.893834 185.856095 
L 371.192229 185.937247 
L 371.490625 185.525211 
L 372.087416 185.502809 
L 372.385812 185.799641 
L 372.684208 185.316523 
L 372.982604 185.723265 
L 373.280999 185.748763 
L 373.579395 185.469673 
L 373.877791 186.073279 
L 374.176186 185.85243 
L 374.474582 186.304317 
L 374.772978 185.806278 
L 375.071374 185.647092 
L 375.369769 185.774718 
L 375.668165 185.772281 
L 375.966561 185.331673 
L 376.264957 185.665762 
L 376.563352 185.342823 
L 377.458539 186.082109 
L 377.756935 186.089877 
L 378.055331 184.787684 
L 378.353727 185.59565 
L 378.950518 185.976348 
L 379.248914 185.979838 
L 379.547309 185.464481 
L 380.144101 185.766317 
L 380.442497 185.304157 
L 380.740892 185.241858 
L 381.039288 185.630348 
L 381.63608 185.863152 
L 381.934475 185.674776 
L 382.232871 185.842227 
L 382.531267 185.839063 
L 382.829662 185.343559 
L 383.426454 185.748516 
L 383.72485 185.667737 
L 384.023245 185.860776 
L 384.321641 185.722093 
L 384.620037 185.396313 
L 385.216828 185.501576 
L 385.515224 185.122117 
L 385.81362 185.89944 
L 386.112015 185.378716 
L 386.410411 185.717443 
L 386.708807 185.3795 
L 387.007203 185.614582 
L 387.603994 185.826792 
L 387.90239 185.921637 
L 388.499181 185.273631 
L 388.797577 185.393312 
L 389.095973 185.974657 
L 389.394368 184.983217 
L 389.99116 185.771134 
L 390.289555 185.812377 
L 390.587951 185.487687 
L 391.184743 185.658713 
L 391.483138 185.350863 
L 391.781534 185.208361 
L 392.07993 185.581589 
L 392.378326 185.215886 
L 392.676721 185.230168 
L 393.273513 184.996668 
L 393.870304 185.660728 
L 394.1687 185.400554 
L 394.467096 185.493324 
L 395.063887 185.242921 
L 395.362283 185.382258 
L 395.660678 185.666778 
L 396.25747 185.047268 
L 396.854261 185.643121 
L 397.152657 185.291113 
L 397.451053 185.600169 
L 397.749449 185.163958 
L 398.047844 185.262357 
L 398.34624 185.641168 
L 398.644636 185.21704 
L 398.943031 185.502371 
L 399.241427 185.237078 
L 399.539823 185.503319 
L 399.838219 184.951404 
L 400.136614 185.278299 
L 400.43501 185.06473 
L 400.733406 185.618755 
L 401.628593 184.901788 
L 401.926989 185.055061 
L 402.225384 185.341415 
L 402.52378 185.35212 
L 402.822176 185.230386 
L 403.120572 185.557566 
L 403.418967 185.138828 
L 404.015759 185.212811 
L 404.314154 185.110931 
L 404.61255 184.766846 
L 404.910946 185.098531 
L 405.209342 184.858957 
L 405.507737 185.366991 
L 405.806133 184.832966 
L 406.104529 185.304899 
L 406.402924 185.348768 
L 406.70132 185.019933 
L 406.999716 184.066157 
L 407.298112 184.953365 
L 407.596507 185.029033 
L 407.894903 184.580125 
L 408.491695 184.812666 
L 408.79009 185.011276 
L 409.088486 185.488328 
L 409.386882 184.839575 
L 409.983673 185.46906 
L 410.580465 184.708155 
L 410.87886 184.612363 
L 411.177256 185.073962 
L 411.475652 185.00207 
L 411.774047 184.667401 
L 412.072443 185.660946 
L 412.370839 185.387543 
L 412.96763 184.554148 
L 413.862818 184.994997 
L 414.161213 184.615874 
L 414.758005 185.217749 
L 415.0564 184.890171 
L 415.354796 185.107049 
L 415.653192 184.634478 
L 416.846775 185.260286 
L 417.14517 184.963435 
L 417.443566 185.088686 
L 417.741962 184.95617 
L 418.040358 185.05309 
L 418.338753 185.289761 
L 418.637149 185.137012 
L 418.935545 185.338344 
L 419.532336 184.990153 
L 420.427523 185.089635 
L 420.725919 185.092262 
L 421.024315 184.908988 
L 421.322711 184.89784 
L 421.621106 185.154122 
L 421.919502 185.214908 
L 422.217898 185.076644 
L 422.516293 185.285548 
L 422.814689 185.064083 
L 423.113085 185.229144 
L 423.411481 184.883728 
L 423.709876 184.752453 
L 424.008272 185.124473 
L 424.306668 184.638999 
L 424.605064 184.873653 
L 424.903459 185.464575 
L 425.500251 185.282802 
L 425.798646 185.285787 
L 426.097042 185.473608 
L 426.395438 184.54076 
L 426.992229 185.16694 
L 427.290625 184.770681 
L 427.589021 184.939562 
L 427.887416 184.880314 
L 428.185812 185.155055 
L 428.484208 184.841595 
L 428.782604 185.55881 
L 429.080999 185.067812 
L 429.379395 184.951094 
L 429.677791 185.066114 
L 429.976186 184.687902 
L 430.274582 184.900511 
L 430.572978 184.912242 
L 430.871374 184.660179 
L 431.468165 184.620449 
L 431.766561 184.937311 
L 432.064957 184.615958 
L 432.363352 184.728864 
L 432.661748 184.961336 
L 433.258539 184.537369 
L 434.153727 184.902272 
L 434.452122 185.005211 
L 434.750518 184.782223 
L 435.048914 184.413976 
L 435.347309 184.733595 
L 435.944101 184.808739 
L 436.242497 185.145023 
L 436.540892 184.699711 
L 436.839288 184.865599 
L 437.137684 184.612051 
L 437.43608 185.049187 
L 438.032871 185.289952 
L 438.331267 184.809121 
L 438.629662 185.01908 
L 438.928058 184.829658 
L 439.226454 184.945658 
L 439.823245 184.921307 
L 440.121641 185.744583 
L 440.420037 185.289857 
L 441.315224 185.204668 
L 441.61362 185.02375 
L 441.912015 185.851191 
L 442.210411 185.202026 
L 442.508807 185.299428 
L 442.807203 185.258903 
L 443.105598 185.765713 
L 443.403994 185.017931 
L 443.70239 185.223402 
L 444.000785 184.843359 
L 444.299181 185.161111 
L 444.597577 184.758296 
L 444.895973 184.801805 
L 445.194368 185.203225 
L 445.492764 184.830448 
L 445.79116 185.276529 
L 446.089555 185.156063 
L 446.387951 185.401703 
L 446.686347 185.368559 
L 446.984743 185.039974 
L 447.283138 185.364377 
L 447.581534 185.372773 
L 447.87993 185.124982 
L 448.775117 185.338046 
L 449.073513 185.160352 
L 449.371908 185.622062 
L 449.670304 185.638071 
L 449.9687 184.985756 
L 450.267096 185.545884 
L 450.565491 185.73752 
L 450.863887 185.255421 
L 451.460678 185.100956 
L 451.759074 185.390662 
L 452.355866 185.383446 
L 452.654261 185.138582 
L 452.952657 185.081053 
L 453.251053 185.36929 
L 453.549449 185.155861 
L 453.847844 185.25123 
L 454.444636 184.964765 
L 454.743031 184.843631 
L 455.041427 185.11617 
L 455.339823 184.955133 
L 455.638219 185.018476 
L 455.936614 184.872595 
L 456.23501 185.073209 
L 456.533406 184.859193 
L 456.831801 185.007464 
L 457.130197 184.919116 
L 457.428593 185.160708 
L 458.025384 184.992052 
L 458.32378 185.448633 
L 458.622176 185.129941 
L 458.920572 185.317515 
L 459.218967 185.290708 
L 459.517363 184.780939 
L 459.815759 180.036991 
L 460.114154 182.56178 
L 460.41255 183.98074 
L 460.710946 183.608499 
L 461.009342 183.802444 
L 461.307737 182.828187 
L 461.606133 183.003421 
L 461.904529 182.664868 
L 462.202924 182.660828 
L 462.50132 182.797474 
L 463.098112 182.332724 
L 463.396507 182.871875 
L 463.694903 182.77053 
L 463.993299 182.828017 
L 464.291695 183.259699 
L 464.59009 183.433791 
L 464.888486 183.009316 
L 465.783673 183.394681 
L 466.082069 183.724366 
L 466.67886 183.204305 
L 466.977256 183.679701 
L 467.574047 183.20975 
L 467.872443 183.655039 
L 468.170839 183.597079 
L 468.469235 183.933037 
L 469.066026 183.312294 
L 469.364422 183.714128 
L 469.662818 183.471159 
L 469.961213 183.50005 
L 470.558005 184.314002 
L 470.8564 183.612529 
L 471.154796 183.560315 
L 471.751588 183.656162 
L 472.049983 183.468498 
L 472.348379 183.717202 
L 472.646775 184.223634 
L 472.94517 183.773258 
L 473.243566 183.63697 
L 473.840358 184.015264 
L 474.437149 183.788114 
L 474.735545 183.96905 
L 475.033941 183.494329 
L 475.332336 183.749704 
L 475.630732 183.728994 
L 475.929128 183.879491 
L 476.525919 183.43429 
L 477.122711 183.806607 
L 477.421106 183.222694 
L 477.719502 183.761326 
L 478.017898 183.553487 
L 478.316293 183.785491 
L 479.211481 183.709997 
L 479.509876 183.463813 
L 479.808272 183.723789 
L 480.106668 183.340668 
L 480.405064 183.923346 
L 480.703459 183.457319 
L 481.001855 183.66021 
L 481.598646 183.269472 
L 482.493834 183.935596 
L 482.792229 183.566451 
L 483.389021 183.387112 
L 483.687416 183.70615 
L 483.985812 183.314692 
L 484.284208 183.848061 
L 484.582604 183.628863 
L 484.880999 183.181817 
L 485.179395 183.388481 
L 485.477791 183.744475 
L 485.776186 183.755057 
L 486.074582 183.646553 
L 486.671374 183.873659 
L 486.969769 183.949715 
L 487.268165 183.213537 
L 487.566561 183.281806 
L 487.864957 183.690155 
L 488.163352 183.578216 
L 488.461748 183.856638 
L 488.760144 183.406458 
L 489.058539 183.567542 
L 489.356935 184.027791 
L 489.655331 183.50691 
L 489.953727 183.562667 
L 490.252122 183.266677 
L 490.550518 183.180689 
L 490.848914 183.610598 
L 491.147309 183.30321 
L 491.445705 183.695 
L 491.744101 183.035239 
L 492.042497 183.881584 
L 492.340892 183.475687 
L 492.639288 183.371651 
L 493.23608 183.993367 
L 493.534475 183.741462 
L 493.832871 183.815634 
L 494.131267 183.339237 
L 494.728058 183.644082 
L 495.026454 183.348002 
L 495.32485 183.473453 
L 495.623245 184.147805 
L 495.921641 184.015953 
L 496.220037 183.542469 
L 496.518432 183.331938 
L 496.816828 183.69612 
L 497.115224 183.159634 
L 497.41362 183.464488 
L 498.010411 183.428491 
L 498.308807 183.274972 
L 498.607203 183.374157 
L 498.905598 183.116363 
L 499.203994 183.503453 
L 499.50239 183.699039 
L 499.800785 183.354238 
L 500.099181 183.542265 
L 500.397577 183.262553 
L 500.695973 183.595958 
L 500.994368 183.61165 
L 501.292764 183.447239 
L 501.59116 183.742063 
L 501.889555 183.720341 
L 502.187951 183.845882 
L 502.486347 183.254979 
L 503.381534 183.287191 
L 503.67993 183.187968 
L 503.978326 183.636825 
L 504.276721 183.267348 
L 504.575117 183.562088 
L 504.873513 183.502068 
L 505.171908 183.297027 
L 505.470304 183.322349 
L 506.067096 183.551254 
L 506.663887 183.350554 
L 506.962283 183.603973 
L 507.260678 183.098763 
L 507.559074 183.042062 
L 508.155866 183.669447 
L 508.454261 183.466858 
L 508.752657 183.401992 
L 509.051053 184.102038 
L 509.349449 183.599398 
L 509.647844 183.645449 
L 509.94624 183.565669 
L 510.244636 183.804148 
L 511.139823 183.269829 
L 511.438219 183.606135 
L 511.736614 183.452829 
L 512.333406 183.393455 
L 512.631801 183.82691 
L 512.930197 183.346234 
L 513.228593 183.577972 
L 513.526989 183.587448 
L 513.825384 183.423884 
L 514.12378 183.627187 
L 514.422176 183.393281 
L 514.720572 183.65609 
L 515.018967 183.515589 
L 515.317363 183.626813 
L 515.615759 183.311961 
L 516.21255 183.426901 
L 516.510946 182.992038 
L 516.809342 183.071403 
L 517.107737 183.401835 
L 517.406133 183.497815 
L 517.704529 182.924655 
L 518.30132 183.498596 
L 519.196507 183.323552 
L 519.494903 183.129153 
L 519.793299 183.42482 
L 520.091695 183.361321 
L 520.39009 183.086464 
L 520.688486 183.136548 
L 520.986882 183.505101 
L 521.285277 183.340691 
L 521.583673 183.484262 
L 522.180465 183.184531 
L 523.075652 183.449026 
L 523.374047 183.20795 
L 523.672443 183.7038 
L 524.56763 183.531942 
L 524.866026 183.258673 
L 525.164422 183.441936 
L 525.462818 183.444441 
L 525.761213 183.565086 
L 526.059609 183.165658 
L 526.954796 183.152049 
L 527.551588 183.107586 
L 527.849983 183.384105 
L 528.148379 182.973842 
L 528.74517 183.76319 
L 529.043566 183.343807 
L 530.535545 183.465705 
L 530.833941 183.712417 
L 531.132336 183.657732 
L 531.729128 182.70531 
L 532.325919 182.429954 
L 532.624315 182.483317 
L 533.221106 183.320078 
L 534.713085 183.022061 
L 535.011481 183.386519 
L 535.608272 183.217535 
L 535.906668 183.623722 
L 536.503459 183.171696 
L 536.801855 183.117825 
L 537.398646 182.617823 
L 537.697042 182.696155 
L 537.995438 183.076463 
L 538.293834 182.911318 
L 539.189021 183.206343 
L 539.487416 183.036375 
L 540.680999 183.149778 
L 540.979395 183.497997 
L 541.277791 183.001253 
L 541.576186 183.099563 
L 541.874582 183.583056 
L 542.172978 183.160004 
L 542.471374 183.020948 
L 543.366561 183.323396 
L 543.963352 183.041196 
L 544.261748 182.915704 
L 544.560144 183.015766 
L 544.858539 183.420561 
L 545.156935 183.533616 
L 545.753727 183.097874 
L 546.052122 182.773374 
L 546.350518 183.516329 
L 546.648914 183.154724 
L 547.245705 183.158788 
L 547.544101 183.348349 
L 547.842497 183.348833 
L 548.140892 183.077512 
L 549.632871 182.441261 
L 549.931267 182.6167 
L 550.229662 182.979482 
L 550.528058 182.662028 
L 550.826454 182.768526 
L 551.12485 182.613882 
L 551.721641 182.998654 
L 552.020037 182.612261 
L 552.318432 182.699188 
L 552.616828 182.393298 
L 552.915224 182.697021 
L 553.21362 182.712989 
L 553.512015 182.328841 
L 553.810411 182.816708 
L 554.108807 182.572083 
L 554.407203 182.978271 
L 554.705598 182.550365 
L 555.003994 182.777252 
L 555.600785 182.417953 
L 556.197577 182.714185 
L 556.495973 182.668187 
L 556.794368 182.787581 
L 557.092764 182.287962 
L 557.689555 182.519827 
L 557.987951 182.318817 
L 558.584743 182.312334 
L 558.883138 182.567052 
L 559.181534 182.527408 
L 559.47993 182.806326 
L 559.778326 182.503238 
L 560.076721 182.48821 
L 560.375117 182.612087 
L 560.673513 182.385311 
L 561.270304 182.601009 
L 561.867096 182.125806 
L 562.165491 182.645717 
L 562.463887 182.411736 
L 563.359074 182.298394 
L 563.65747 182.866667 
L 564.254261 182.75749 
L 564.552657 182.557725 
L 564.851053 182.603123 
L 565.447844 182.270885 
L 565.74624 181.964599 
L 566.044636 182.22335 
L 566.641427 181.776029 
L 567.238219 182.3505 
L 567.536614 182.340268 
L 567.83501 182.520741 
L 568.431801 182.523605 
L 568.730197 182.238641 
L 569.028593 182.277821 
L 569.326989 182.4905 
L 569.625384 182.156534 
L 570.222176 182.384129 
L 570.520572 182.146866 
L 571.117363 182.066737 
L 571.415759 182.388662 
L 571.714154 182.498932 
L 572.01255 182.183845 
L 572.310946 182.322671 
L 572.609342 182.211071 
L 572.907737 182.422352 
L 573.206133 182.48971 
L 573.504529 182.729717 
L 573.802924 182.393239 
L 574.399716 182.735363 
L 574.698112 182.327999 
L 574.996507 182.338891 
L 575.593299 182.599993 
L 575.891695 182.466046 
L 576.19009 182.69844 
L 576.488486 182.38232 
L 576.786882 182.442558 
L 577.085277 182.362258 
L 577.383673 182.586701 
L 577.980465 182.419876 
L 578.27886 182.295667 
L 578.577256 182.456317 
L 578.875652 182.461302 
L 579.174047 182.224138 
L 579.770839 182.186657 
L 580.36763 182.622206 
L 580.666026 182.367919 
L 581.859609 182.174806 
L 582.158005 182.346741 
L 582.754796 182.330894 
L 583.351588 182.340062 
L 583.649983 182.131605 
L 584.246775 182.46111 
L 584.54517 182.411937 
L 584.843566 182.212611 
L 585.440358 182.477282 
L 586.037149 182.283253 
L 586.633941 182.504761 
L 586.932336 182.056743 
L 587.827523 182.046057 
L 588.125919 181.847828 
L 588.722711 182.310119 
L 589.021106 182.038079 
L 589.319502 182.276506 
L 589.617898 182.738705 
L 590.214689 182.299761 
L 590.513085 182.571966 
L 590.811481 182.000154 
L 591.408272 182.251631 
L 591.706668 182.082969 
L 592.005064 182.140549 
L 592.303459 182.341278 
L 593.497042 182.329414 
L 594.690625 182.35191 
L 595.287416 182.309092 
L 595.585812 182.350223 
L 595.884208 182.256163 
L 596.182604 182.347059 
L 596.480999 182.157633 
L 596.779395 182.385586 
L 597.077791 182.384132 
L 597.376186 182.504546 
L 597.674582 182.249162 
L 598.569769 182.184146 
L 598.868165 182.330889 
L 599.166561 181.942761 
L 599.464957 182.094773 
L 599.763352 182.39769 
L 600.061748 182.184823 
L 600.360144 182.122614 
L 600.956935 182.354128 
L 601.255331 182.159576 
L 602.150518 182.071083 
L 602.448914 182.330678 
L 603.940892 182.091639 
L 604.239288 182.392439 
L 604.537684 182.28186 
L 605.134475 182.305347 
L 605.432871 182.166866 
L 606.029662 182.459293 
L 606.626454 182.478516 
L 606.92485 182.664681 
L 607.223245 182.309044 
L 607.521641 182.751354 
L 608.118432 182.38066 
L 608.715224 182.767456 
L 609.312015 182.559118 
L 609.610411 182.58821 
L 609.908807 182.203366 
L 610.207203 182.269519 
L 610.505598 182.672369 
L 610.803994 182.194848 
L 611.10239 182.355663 
L 612.295973 182.283822 
L 612.594368 182.535192 
L 612.892764 182.240762 
L 613.489555 182.326357 
L 613.787951 182.213775 
L 614.086347 182.643433 
L 614.384743 182.149178 
L 614.683138 182.315982 
L 614.981534 182.266031 
L 615.27993 182.393188 
L 615.578326 182.152417 
L 615.876721 182.272767 
L 616.473513 182.298863 
L 616.771908 182.684431 
L 617.070304 182.262631 
L 617.3687 182.394064 
L 617.667096 182.207273 
L 617.965491 182.184849 
L 618.263887 182.429083 
L 618.562283 182.163767 
L 620.054261 182.305717 
L 620.352657 182.230983 
L 620.651053 182.546988 
L 620.949449 182.26587 
L 621.54624 182.359449 
L 621.844636 182.636811 
L 622.143031 182.176751 
L 622.441427 182.517018 
L 622.739823 182.330393 
L 623.038219 182.443774 
L 623.336614 182.14642 
L 623.933406 182.399277 
L 624.231801 181.964021 
L 625.126989 182.037121 
L 625.126989 182.037121 
" clip-path="url(#pdb5f7cc619)" style="fill: none; stroke: #ff7f0e; stroke-width: 1.5; stroke-linecap: square"/>
   </g>
   <g id="patch_3">
    <path d="M 92.490625 308.63625 
L 92.490625 31.43625 
" style="fill: none; stroke: #000000; stroke-width: 0.8; stroke-linejoin: miter; stroke-linecap: square"/>
   </g>
   <g id="patch_4">
    <path d="M 650.490625 308.63625 
L 650.490625 31.43625 
" style="fill: none; stroke: #000000; stroke-width: 0.8; stroke-linejoin: miter; stroke-linecap: square"/>
   </g>
   <g id="patch_5">
    <path d="M 92.490625 308.63625 
L 650.490625 308.63625 
" style="fill: none; stroke: #000000; stroke-width: 0.8; stroke-linejoin: miter; stroke-linecap: square"/>
   </g>
   <g id="patch_6">
    <path d="M 92.490625 31.43625 
L 650.490625 31.43625 
" style="fill: none; stroke: #000000; stroke-width: 0.8; stroke-linejoin: miter; stroke-linecap: square"/>
   </g>
   <g id="text_16">
    <!-- Generator and Discriminator Loss During Training -->
    <g transform="translate(74.258125 25.43625) scale(0.24 -0.24)">
     <defs>
      <path id="DejaVuSans-47" d="M 3809 666 
L 3809 1919 
L 2778 1919 
L 2778 2438 
L 4434 2438 
L 4434 434 
Q 4069 175 3628 42 
Q 3188 -91 2688 -91 
Q 1594 -91 976 548 
Q 359 1188 359 2328 
Q 359 3472 976 4111 
Q 1594 4750 2688 4750 
Q 3144 4750 3555 4637 
Q 3966 4525 4313 4306 
L 4313 3634 
Q 3963 3931 3569 4081 
Q 3175 4231 2741 4231 
Q 1884 4231 1454 3753 
Q 1025 3275 1025 2328 
Q 1025 1384 1454 906 
Q 1884 428 2741 428 
Q 3075 428 3337 486 
Q 3600 544 3809 666 
z
" transform="scale(0.015625)"/>
      <path id="DejaVuSans-20" transform="scale(0.015625)"/>
      <path id="DejaVuSans-64" d="M 2906 2969 
L 2906 4863 
L 3481 4863 
L 3481 0 
L 2906 0 
L 2906 525 
Q 2725 213 2448 61 
Q 2172 -91 1784 -91 
Q 1150 -91 751 415 
Q 353 922 353 1747 
Q 353 2572 751 3078 
Q 1150 3584 1784 3584 
Q 2172 3584 2448 3432 
Q 2725 3281 2906 2969 
z
M 947 1747 
Q 947 1113 1208 752 
Q 1469 391 1925 391 
Q 2381 391 2643 752 
Q 2906 1113 2906 1747 
Q 2906 2381 2643 2742 
Q 2381 3103 1925 3103 
Q 1469 3103 1208 2742 
Q 947 2381 947 1747 
z
" transform="scale(0.015625)"/>
      <path id="DejaVuSans-44" d="M 1259 4147 
L 1259 519 
L 2022 519 
Q 2988 519 3436 956 
Q 3884 1394 3884 2338 
Q 3884 3275 3436 3711 
Q 2988 4147 2022 4147 
L 1259 4147 
z
M 628 4666 
L 1925 4666 
Q 3281 4666 3915 4102 
Q 4550 3538 4550 2338 
Q 4550 1131 3912 565 
Q 3275 0 1925 0 
L 628 0 
L 628 4666 
z
" transform="scale(0.015625)"/>
      <path id="DejaVuSans-63" d="M 3122 3366 
L 3122 2828 
Q 2878 2963 2633 3030 
Q 2388 3097 2138 3097 
Q 1578 3097 1268 2742 
Q 959 2388 959 1747 
Q 959 1106 1268 751 
Q 1578 397 2138 397 
Q 2388 397 2633 464 
Q 2878 531 3122 666 
L 3122 134 
Q 2881 22 2623 -34 
Q 2366 -91 2075 -91 
Q 1284 -91 818 406 
Q 353 903 353 1747 
Q 353 2603 823 3093 
Q 1294 3584 2113 3584 
Q 2378 3584 2631 3529 
Q 2884 3475 3122 3366 
z
" transform="scale(0.015625)"/>
      <path id="DejaVuSans-6d" d="M 3328 2828 
Q 3544 3216 3844 3400 
Q 4144 3584 4550 3584 
Q 5097 3584 5394 3201 
Q 5691 2819 5691 2113 
L 5691 0 
L 5113 0 
L 5113 2094 
Q 5113 2597 4934 2840 
Q 4756 3084 4391 3084 
Q 3944 3084 3684 2787 
Q 3425 2491 3425 1978 
L 3425 0 
L 2847 0 
L 2847 2094 
Q 2847 2600 2669 2842 
Q 2491 3084 2119 3084 
Q 1678 3084 1418 2786 
Q 1159 2488 1159 1978 
L 1159 0 
L 581 0 
L 581 3500 
L 1159 3500 
L 1159 2956 
Q 1356 3278 1631 3431 
Q 1906 3584 2284 3584 
Q 2666 3584 2933 3390 
Q 3200 3197 3328 2828 
z
" transform="scale(0.015625)"/>
      <path id="DejaVuSans-75" d="M 544 1381 
L 544 3500 
L 1119 3500 
L 1119 1403 
Q 1119 906 1312 657 
Q 1506 409 1894 409 
Q 2359 409 2629 706 
Q 2900 1003 2900 1516 
L 2900 3500 
L 3475 3500 
L 3475 0 
L 2900 0 
L 2900 538 
Q 2691 219 2414 64 
Q 2138 -91 1772 -91 
Q 1169 -91 856 284 
Q 544 659 544 1381 
z
M 1991 3584 
L 1991 3584 
z
" transform="scale(0.015625)"/>
      <path id="DejaVuSans-67" d="M 2906 1791 
Q 2906 2416 2648 2759 
Q 2391 3103 1925 3103 
Q 1463 3103 1205 2759 
Q 947 2416 947 1791 
Q 947 1169 1205 825 
Q 1463 481 1925 481 
Q 2391 481 2648 825 
Q 2906 1169 2906 1791 
z
M 3481 434 
Q 3481 -459 3084 -895 
Q 2688 -1331 1869 -1331 
Q 1566 -1331 1297 -1286 
Q 1028 -1241 775 -1147 
L 775 -588 
Q 1028 -725 1275 -790 
Q 1522 -856 1778 -856 
Q 2344 -856 2625 -561 
Q 2906 -266 2906 331 
L 2906 616 
Q 2728 306 2450 153 
Q 2172 0 1784 0 
Q 1141 0 747 490 
Q 353 981 353 1791 
Q 353 2603 747 3093 
Q 1141 3584 1784 3584 
Q 2172 3584 2450 3431 
Q 2728 3278 2906 2969 
L 2906 3500 
L 3481 3500 
L 3481 434 
z
" transform="scale(0.015625)"/>
      <path id="DejaVuSans-54" d="M -19 4666 
L 3928 4666 
L 3928 4134 
L 2272 4134 
L 2272 0 
L 1638 0 
L 1638 4134 
L -19 4134 
L -19 4666 
z
" transform="scale(0.015625)"/>
     </defs>
     <use xlink:href="#DejaVuSans-47"/>
     <use xlink:href="#DejaVuSans-65" x="77.490234"/>
     <use xlink:href="#DejaVuSans-6e" x="139.013672"/>
     <use xlink:href="#DejaVuSans-65" x="202.392578"/>
     <use xlink:href="#DejaVuSans-72" x="263.916016"/>
     <use xlink:href="#DejaVuSans-61" x="305.029297"/>
     <use xlink:href="#DejaVuSans-74" x="366.308594"/>
     <use xlink:href="#DejaVuSans-6f" x="405.517578"/>
     <use xlink:href="#DejaVuSans-72" x="466.699219"/>
     <use xlink:href="#DejaVuSans-20" x="507.8125"/>
     <use xlink:href="#DejaVuSans-61" x="539.599609"/>
     <use xlink:href="#DejaVuSans-6e" x="600.878906"/>
     <use xlink:href="#DejaVuSans-64" x="664.257812"/>
     <use xlink:href="#DejaVuSans-20" x="727.734375"/>
     <use xlink:href="#DejaVuSans-44" x="759.521484"/>
     <use xlink:href="#DejaVuSans-69" x="836.523438"/>
     <use xlink:href="#DejaVuSans-73" x="864.306641"/>
     <use xlink:href="#DejaVuSans-63" x="916.40625"/>
     <use xlink:href="#DejaVuSans-72" x="971.386719"/>
     <use xlink:href="#DejaVuSans-69" x="1012.5"/>
     <use xlink:href="#DejaVuSans-6d" x="1040.283203"/>
     <use xlink:href="#DejaVuSans-69" x="1137.695312"/>
     <use xlink:href="#DejaVuSans-6e" x="1165.478516"/>
     <use xlink:href="#DejaVuSans-61" x="1228.857422"/>
     <use xlink:href="#DejaVuSans-74" x="1290.136719"/>
     <use xlink:href="#DejaVuSans-6f" x="1329.345703"/>
     <use xlink:href="#DejaVuSans-72" x="1390.527344"/>
     <use xlink:href="#DejaVuSans-20" x="1431.640625"/>
     <use xlink:href="#DejaVuSans-4c" x="1463.427734"/>
     <use xlink:href="#DejaVuSans-6f" x="1517.390625"/>
     <use xlink:href="#DejaVuSans-73" x="1578.572266"/>
     <use xlink:href="#DejaVuSans-73" x="1630.671875"/>
     <use xlink:href="#DejaVuSans-20" x="1682.771484"/>
     <use xlink:href="#DejaVuSans-44" x="1714.558594"/>
     <use xlink:href="#DejaVuSans-75" x="1791.560547"/>
     <use xlink:href="#DejaVuSans-72" x="1854.939453"/>
     <use xlink:href="#DejaVuSans-69" x="1896.052734"/>
     <use xlink:href="#DejaVuSans-6e" x="1923.835938"/>
     <use xlink:href="#DejaVuSans-67" x="1987.214844"/>
     <use xlink:href="#DejaVuSans-20" x="2050.691406"/>
     <use xlink:href="#DejaVuSans-54" x="2082.478516"/>
     <use xlink:href="#DejaVuSans-72" x="2128.8125"/>
     <use xlink:href="#DejaVuSans-61" x="2169.925781"/>
     <use xlink:href="#DejaVuSans-69" x="2231.205078"/>
     <use xlink:href="#DejaVuSans-6e" x="2258.988281"/>
     <use xlink:href="#DejaVuSans-69" x="2322.367188"/>
     <use xlink:href="#DejaVuSans-6e" x="2350.150391"/>
     <use xlink:href="#DejaVuSans-67" x="2413.529297"/>
    </g>
   </g>
   <g id="legend_1">
    <g id="patch_7">
     <path d="M 556.99375 106.14875 
L 636.490625 106.14875 
Q 640.490625 106.14875 640.490625 102.14875 
L 640.490625 45.43625 
Q 640.490625 41.43625 636.490625 41.43625 
L 556.99375 41.43625 
Q 552.99375 41.43625 552.99375 45.43625 
L 552.99375 102.14875 
Q 552.99375 106.14875 556.99375 106.14875 
z
" style="fill: #ffffff; opacity: 0.8; stroke: #cccccc; stroke-linejoin: miter"/>
    </g>
    <g id="line2d_16">
     <path d="M 560.99375 57.633125 
L 580.99375 57.633125 
L 600.99375 57.633125 
" style="fill: none; stroke: #1f77b4; stroke-width: 1.5; stroke-linecap: square"/>
    </g>
    <g id="text_17">
     <!-- G -->
     <g transform="translate(616.99375 64.633125) scale(0.2 -0.2)">
      <use xlink:href="#DejaVuSans-47"/>
     </g>
    </g>
    <g id="line2d_17">
     <path d="M 560.99375 86.989375 
L 580.99375 86.989375 
L 600.99375 86.989375 
" style="fill: none; stroke: #ff7f0e; stroke-width: 1.5; stroke-linecap: square"/>
    </g>
    <g id="text_18">
     <!-- D -->
     <g transform="translate(616.99375 93.989375) scale(0.2 -0.2)">
      <use xlink:href="#DejaVuSans-44"/>
     </g>
    </g>
   </g>
  </g>
 </g>
 <defs>
  <clipPath id="pdb5f7cc619">
   <rect x="92.490625" y="31.43625" width="558" height="277.2"/>
  </clipPath>
 </defs>
</svg>
