<?xml version="1.0" encoding="utf-8" standalone="no"?>
<!DOCTYPE svg PUBLIC "-//W3C//DTD SVG 1.1//EN"
  "http://www.w3.org/Graphics/SVG/1.1/DTD/svg11.dtd">
<svg xmlns:xlink="http://www.w3.org/1999/xlink" width="675.923125pt" height="365.54875pt" viewBox="0 0 675.923125 365.54875" xmlns="http://www.w3.org/2000/svg" version="1.1">
 <metadata>
  <rdf:RDF xmlns:dc="http://purl.org/dc/elements/1.1/" xmlns:cc="http://creativecommons.org/ns#" xmlns:rdf="http://www.w3.org/1999/02/22-rdf-syntax-ns#">
   <cc:Work>
    <dc:type rdf:resource="http://purl.org/dc/dcmitype/StillImage"/>
    <dc:date>2024-02-02T16:02:32.399164</dc:date>
    <dc:format>image/svg+xml</dc:format>
    <dc:creator>
     <cc:Agent>
      <dc:title>Matplotlib v3.7.2, https://matplotlib.org/</dc:title>
     </cc:Agent>
    </dc:creator>
   </cc:Work>
  </rdf:RDF>
 </metadata>
 <defs>
  <style type="text/css">*{stroke-linejoin: round; stroke-linecap: butt}</style>
 </defs>
 <g id="figure_1">
  <g id="patch_1">
   <path d="M 0 365.54875 
L 675.923125 365.54875 
L 675.923125 -0 
L 0 -0 
z
" style="fill: #ffffff"/>
  </g>
  <g id="axes_1">
   <g id="patch_2">
    <path d="M 92.490625 308.63625 
L 650.490625 308.63625 
L 650.490625 31.43625 
L 92.490625 31.43625 
z
" style="fill: #ffffff"/>
   </g>
   <g id="matplotlib.axis_1">
    <g id="xtick_1">
     <g id="line2d_1">
      <defs>
       <path id="m5866e6de28" d="M 0 0 
L 0 3.5 
" style="stroke: #000000; stroke-width: 0.8"/>
      </defs>
      <g>
       <use xlink:href="#m5866e6de28" x="117.854261" y="308.63625" style="stroke: #000000; stroke-width: 0.8"/>
      </g>
     </g>
     <g id="text_1">
      <!-- 0 -->
      <g transform="translate(111.491761 330.833125) scale(0.2 -0.2)">
       <defs>
        <path id="DejaVuSans-30" d="M 2034 4250 
Q 1547 4250 1301 3770 
Q 1056 3291 1056 2328 
Q 1056 1369 1301 889 
Q 1547 409 2034 409 
Q 2525 409 2770 889 
Q 3016 1369 3016 2328 
Q 3016 3291 2770 3770 
Q 2525 4250 2034 4250 
z
M 2034 4750 
Q 2819 4750 3233 4129 
Q 3647 3509 3647 2328 
Q 3647 1150 3233 529 
Q 2819 -91 2034 -91 
Q 1250 -91 836 529 
Q 422 1150 422 2328 
Q 422 3509 836 4129 
Q 1250 4750 2034 4750 
z
" transform="scale(0.015625)"/>
       </defs>
       <use xlink:href="#DejaVuSans-30"/>
      </g>
     </g>
    </g>
    <g id="xtick_2">
     <g id="line2d_2">
      <g>
       <use xlink:href="#m5866e6de28" x="186.40463" y="308.63625" style="stroke: #000000; stroke-width: 0.8"/>
      </g>
     </g>
     <g id="text_2">
      <!-- 250 -->
      <g transform="translate(167.31713 330.833125) scale(0.2 -0.2)">
       <defs>
        <path id="DejaVuSans-32" d="M 1228 531 
L 3431 531 
L 3431 0 
L 469 0 
L 469 531 
Q 828 903 1448 1529 
Q 2069 2156 2228 2338 
Q 2531 2678 2651 2914 
Q 2772 3150 2772 3378 
Q 2772 3750 2511 3984 
Q 2250 4219 1831 4219 
Q 1534 4219 1204 4116 
Q 875 4013 500 3803 
L 500 4441 
Q 881 4594 1212 4672 
Q 1544 4750 1819 4750 
Q 2544 4750 2975 4387 
Q 3406 4025 3406 3419 
Q 3406 3131 3298 2873 
Q 3191 2616 2906 2266 
Q 2828 2175 2409 1742 
Q 1991 1309 1228 531 
z
" transform="scale(0.015625)"/>
        <path id="DejaVuSans-35" d="M 691 4666 
L 3169 4666 
L 3169 4134 
L 1269 4134 
L 1269 2991 
Q 1406 3038 1543 3061 
Q 1681 3084 1819 3084 
Q 2600 3084 3056 2656 
Q 3513 2228 3513 1497 
Q 3513 744 3044 326 
Q 2575 -91 1722 -91 
Q 1428 -91 1123 -41 
Q 819 9 494 109 
L 494 744 
Q 775 591 1075 516 
Q 1375 441 1709 441 
Q 2250 441 2565 725 
Q 2881 1009 2881 1497 
Q 2881 1984 2565 2268 
Q 2250 2553 1709 2553 
Q 1456 2553 1204 2497 
Q 953 2441 691 2322 
L 691 4666 
z
" transform="scale(0.015625)"/>
       </defs>
       <use xlink:href="#DejaVuSans-32"/>
       <use xlink:href="#DejaVuSans-35" x="63.623047"/>
       <use xlink:href="#DejaVuSans-30" x="127.246094"/>
      </g>
     </g>
    </g>
    <g id="xtick_3">
     <g id="line2d_3">
      <g>
       <use xlink:href="#m5866e6de28" x="254.954998" y="308.63625" style="stroke: #000000; stroke-width: 0.8"/>
      </g>
     </g>
     <g id="text_3">
      <!-- 500 -->
      <g transform="translate(235.867498 330.833125) scale(0.2 -0.2)">
       <use xlink:href="#DejaVuSans-35"/>
       <use xlink:href="#DejaVuSans-30" x="63.623047"/>
       <use xlink:href="#DejaVuSans-30" x="127.246094"/>
      </g>
     </g>
    </g>
    <g id="xtick_4">
     <g id="line2d_4">
      <g>
       <use xlink:href="#m5866e6de28" x="323.505367" y="308.63625" style="stroke: #000000; stroke-width: 0.8"/>
      </g>
     </g>
     <g id="text_4">
      <!-- 750 -->
      <g transform="translate(304.417867 330.833125) scale(0.2 -0.2)">
       <defs>
        <path id="DejaVuSans-37" d="M 525 4666 
L 3525 4666 
L 3525 4397 
L 1831 0 
L 1172 0 
L 2766 4134 
L 525 4134 
L 525 4666 
z
" transform="scale(0.015625)"/>
       </defs>
       <use xlink:href="#DejaVuSans-37"/>
       <use xlink:href="#DejaVuSans-35" x="63.623047"/>
       <use xlink:href="#DejaVuSans-30" x="127.246094"/>
      </g>
     </g>
    </g>
    <g id="xtick_5">
     <g id="line2d_5">
      <g>
       <use xlink:href="#m5866e6de28" x="392.055736" y="308.63625" style="stroke: #000000; stroke-width: 0.8"/>
      </g>
     </g>
     <g id="text_5">
      <!-- 1000 -->
      <g transform="translate(366.605736 330.833125) scale(0.2 -0.2)">
       <defs>
        <path id="DejaVuSans-31" d="M 794 531 
L 1825 531 
L 1825 4091 
L 703 3866 
L 703 4441 
L 1819 4666 
L 2450 4666 
L 2450 531 
L 3481 531 
L 3481 0 
L 794 0 
L 794 531 
z
" transform="scale(0.015625)"/>
       </defs>
       <use xlink:href="#DejaVuSans-31"/>
       <use xlink:href="#DejaVuSans-30" x="63.623047"/>
       <use xlink:href="#DejaVuSans-30" x="127.246094"/>
       <use xlink:href="#DejaVuSans-30" x="190.869141"/>
      </g>
     </g>
    </g>
    <g id="xtick_6">
     <g id="line2d_6">
      <g>
       <use xlink:href="#m5866e6de28" x="460.606104" y="308.63625" style="stroke: #000000; stroke-width: 0.8"/>
      </g>
     </g>
     <g id="text_6">
      <!-- 1250 -->
      <g transform="translate(435.156104 330.833125) scale(0.2 -0.2)">
       <use xlink:href="#DejaVuSans-31"/>
       <use xlink:href="#DejaVuSans-32" x="63.623047"/>
       <use xlink:href="#DejaVuSans-35" x="127.246094"/>
       <use xlink:href="#DejaVuSans-30" x="190.869141"/>
      </g>
     </g>
    </g>
    <g id="xtick_7">
     <g id="line2d_7">
      <g>
       <use xlink:href="#m5866e6de28" x="529.156473" y="308.63625" style="stroke: #000000; stroke-width: 0.8"/>
      </g>
     </g>
     <g id="text_7">
      <!-- 1500 -->
      <g transform="translate(503.706473 330.833125) scale(0.2 -0.2)">
       <use xlink:href="#DejaVuSans-31"/>
       <use xlink:href="#DejaVuSans-35" x="63.623047"/>
       <use xlink:href="#DejaVuSans-30" x="127.246094"/>
       <use xlink:href="#DejaVuSans-30" x="190.869141"/>
      </g>
     </g>
    </g>
    <g id="xtick_8">
     <g id="line2d_8">
      <g>
       <use xlink:href="#m5866e6de28" x="597.706841" y="308.63625" style="stroke: #000000; stroke-width: 0.8"/>
      </g>
     </g>
     <g id="text_8">
      <!-- 1750 -->
      <g transform="translate(572.256841 330.833125) scale(0.2 -0.2)">
       <use xlink:href="#DejaVuSans-31"/>
       <use xlink:href="#DejaVuSans-37" x="63.623047"/>
       <use xlink:href="#DejaVuSans-35" x="127.246094"/>
       <use xlink:href="#DejaVuSans-30" x="190.869141"/>
      </g>
     </g>
    </g>
    <g id="text_9">
     <!-- iterations -->
     <g transform="translate(324.035938 354.189375) scale(0.2 -0.2)">
      <defs>
       <path id="DejaVuSans-69" d="M 603 3500 
L 1178 3500 
L 1178 0 
L 603 0 
L 603 3500 
z
M 603 4863 
L 1178 4863 
L 1178 4134 
L 603 4134 
L 603 4863 
z
" transform="scale(0.015625)"/>
       <path id="DejaVuSans-74" d="M 1172 4494 
L 1172 3500 
L 2356 3500 
L 2356 3053 
L 1172 3053 
L 1172 1153 
Q 1172 725 1289 603 
Q 1406 481 1766 481 
L 2356 481 
L 2356 0 
L 1766 0 
Q 1100 0 847 248 
Q 594 497 594 1153 
L 594 3053 
L 172 3053 
L 172 3500 
L 594 3500 
L 594 4494 
L 1172 4494 
z
" transform="scale(0.015625)"/>
       <path id="DejaVuSans-65" d="M 3597 1894 
L 3597 1613 
L 953 1613 
Q 991 1019 1311 708 
Q 1631 397 2203 397 
Q 2534 397 2845 478 
Q 3156 559 3463 722 
L 3463 178 
Q 3153 47 2828 -22 
Q 2503 -91 2169 -91 
Q 1331 -91 842 396 
Q 353 884 353 1716 
Q 353 2575 817 3079 
Q 1281 3584 2069 3584 
Q 2775 3584 3186 3129 
Q 3597 2675 3597 1894 
z
M 3022 2063 
Q 3016 2534 2758 2815 
Q 2500 3097 2075 3097 
Q 1594 3097 1305 2825 
Q 1016 2553 972 2059 
L 3022 2063 
z
" transform="scale(0.015625)"/>
       <path id="DejaVuSans-72" d="M 2631 2963 
Q 2534 3019 2420 3045 
Q 2306 3072 2169 3072 
Q 1681 3072 1420 2755 
Q 1159 2438 1159 1844 
L 1159 0 
L 581 0 
L 581 3500 
L 1159 3500 
L 1159 2956 
Q 1341 3275 1631 3429 
Q 1922 3584 2338 3584 
Q 2397 3584 2469 3576 
Q 2541 3569 2628 3553 
L 2631 2963 
z
" transform="scale(0.015625)"/>
       <path id="DejaVuSans-61" d="M 2194 1759 
Q 1497 1759 1228 1600 
Q 959 1441 959 1056 
Q 959 750 1161 570 
Q 1363 391 1709 391 
Q 2188 391 2477 730 
Q 2766 1069 2766 1631 
L 2766 1759 
L 2194 1759 
z
M 3341 1997 
L 3341 0 
L 2766 0 
L 2766 531 
Q 2569 213 2275 61 
Q 1981 -91 1556 -91 
Q 1019 -91 701 211 
Q 384 513 384 1019 
Q 384 1609 779 1909 
Q 1175 2209 1959 2209 
L 2766 2209 
L 2766 2266 
Q 2766 2663 2505 2880 
Q 2244 3097 1772 3097 
Q 1472 3097 1187 3025 
Q 903 2953 641 2809 
L 641 3341 
Q 956 3463 1253 3523 
Q 1550 3584 1831 3584 
Q 2591 3584 2966 3190 
Q 3341 2797 3341 1997 
z
" transform="scale(0.015625)"/>
       <path id="DejaVuSans-6f" d="M 1959 3097 
Q 1497 3097 1228 2736 
Q 959 2375 959 1747 
Q 959 1119 1226 758 
Q 1494 397 1959 397 
Q 2419 397 2687 759 
Q 2956 1122 2956 1747 
Q 2956 2369 2687 2733 
Q 2419 3097 1959 3097 
z
M 1959 3584 
Q 2709 3584 3137 3096 
Q 3566 2609 3566 1747 
Q 3566 888 3137 398 
Q 2709 -91 1959 -91 
Q 1206 -91 779 398 
Q 353 888 353 1747 
Q 353 2609 779 3096 
Q 1206 3584 1959 3584 
z
" transform="scale(0.015625)"/>
       <path id="DejaVuSans-6e" d="M 3513 2113 
L 3513 0 
L 2938 0 
L 2938 2094 
Q 2938 2591 2744 2837 
Q 2550 3084 2163 3084 
Q 1697 3084 1428 2787 
Q 1159 2491 1159 1978 
L 1159 0 
L 581 0 
L 581 3500 
L 1159 3500 
L 1159 2956 
Q 1366 3272 1645 3428 
Q 1925 3584 2291 3584 
Q 2894 3584 3203 3211 
Q 3513 2838 3513 2113 
z
" transform="scale(0.015625)"/>
       <path id="DejaVuSans-73" d="M 2834 3397 
L 2834 2853 
Q 2591 2978 2328 3040 
Q 2066 3103 1784 3103 
Q 1356 3103 1142 2972 
Q 928 2841 928 2578 
Q 928 2378 1081 2264 
Q 1234 2150 1697 2047 
L 1894 2003 
Q 2506 1872 2764 1633 
Q 3022 1394 3022 966 
Q 3022 478 2636 193 
Q 2250 -91 1575 -91 
Q 1294 -91 989 -36 
Q 684 19 347 128 
L 347 722 
Q 666 556 975 473 
Q 1284 391 1588 391 
Q 1994 391 2212 530 
Q 2431 669 2431 922 
Q 2431 1156 2273 1281 
Q 2116 1406 1581 1522 
L 1381 1569 
Q 847 1681 609 1914 
Q 372 2147 372 2553 
Q 372 3047 722 3315 
Q 1072 3584 1716 3584 
Q 2034 3584 2315 3537 
Q 2597 3491 2834 3397 
z
" transform="scale(0.015625)"/>
      </defs>
      <use xlink:href="#DejaVuSans-69"/>
      <use xlink:href="#DejaVuSans-74" x="27.783203"/>
      <use xlink:href="#DejaVuSans-65" x="66.992188"/>
      <use xlink:href="#DejaVuSans-72" x="128.515625"/>
      <use xlink:href="#DejaVuSans-61" x="169.628906"/>
      <use xlink:href="#DejaVuSans-74" x="230.908203"/>
      <use xlink:href="#DejaVuSans-69" x="270.117188"/>
      <use xlink:href="#DejaVuSans-6f" x="297.900391"/>
      <use xlink:href="#DejaVuSans-6e" x="359.082031"/>
      <use xlink:href="#DejaVuSans-73" x="422.460938"/>
     </g>
    </g>
   </g>
   <g id="matplotlib.axis_2">
    <g id="ytick_1">
     <g id="line2d_9">
      <defs>
       <path id="m30b1068d11" d="M 0 0 
L -3.5 0 
" style="stroke: #000000; stroke-width: 0.8"/>
      </defs>
      <g>
       <use xlink:href="#m30b1068d11" x="92.490625" y="279.562782" style="stroke: #000000; stroke-width: 0.8"/>
      </g>
     </g>
     <g id="text_10">
      <!-- −200 -->
      <g transform="translate(30.55625 287.16122) scale(0.2 -0.2)">
       <defs>
        <path id="DejaVuSans-2212" d="M 678 2272 
L 4684 2272 
L 4684 1741 
L 678 1741 
L 678 2272 
z
" transform="scale(0.015625)"/>
       </defs>
       <use xlink:href="#DejaVuSans-2212"/>
       <use xlink:href="#DejaVuSans-32" x="83.789062"/>
       <use xlink:href="#DejaVuSans-30" x="147.412109"/>
       <use xlink:href="#DejaVuSans-30" x="211.035156"/>
      </g>
     </g>
    </g>
    <g id="ytick_2">
     <g id="line2d_10">
      <g>
       <use xlink:href="#m30b1068d11" x="92.490625" y="229.718252" style="stroke: #000000; stroke-width: 0.8"/>
      </g>
     </g>
     <g id="text_11">
      <!-- −100 -->
      <g transform="translate(30.55625 237.316689) scale(0.2 -0.2)">
       <use xlink:href="#DejaVuSans-2212"/>
       <use xlink:href="#DejaVuSans-31" x="83.789062"/>
       <use xlink:href="#DejaVuSans-30" x="147.412109"/>
       <use xlink:href="#DejaVuSans-30" x="211.035156"/>
      </g>
     </g>
    </g>
    <g id="ytick_3">
     <g id="line2d_11">
      <g>
       <use xlink:href="#m30b1068d11" x="92.490625" y="179.873722" style="stroke: #000000; stroke-width: 0.8"/>
      </g>
     </g>
     <g id="text_12">
      <!-- 0 -->
      <g transform="translate(72.765625 187.472159) scale(0.2 -0.2)">
       <use xlink:href="#DejaVuSans-30"/>
      </g>
     </g>
    </g>
    <g id="ytick_4">
     <g id="line2d_12">
      <g>
       <use xlink:href="#m30b1068d11" x="92.490625" y="130.029191" style="stroke: #000000; stroke-width: 0.8"/>
      </g>
     </g>
     <g id="text_13">
      <!-- 100 -->
      <g transform="translate(47.315625 137.627629) scale(0.2 -0.2)">
       <use xlink:href="#DejaVuSans-31"/>
       <use xlink:href="#DejaVuSans-30" x="63.623047"/>
       <use xlink:href="#DejaVuSans-30" x="127.246094"/>
      </g>
     </g>
    </g>
    <g id="ytick_5">
     <g id="line2d_13">
      <g>
       <use xlink:href="#m30b1068d11" x="92.490625" y="80.184661" style="stroke: #000000; stroke-width: 0.8"/>
      </g>
     </g>
     <g id="text_14">
      <!-- 200 -->
      <g transform="translate(47.315625 87.783098) scale(0.2 -0.2)">
       <use xlink:href="#DejaVuSans-32"/>
       <use xlink:href="#DejaVuSans-30" x="63.623047"/>
       <use xlink:href="#DejaVuSans-30" x="127.246094"/>
      </g>
     </g>
    </g>
    <g id="text_15">
     <!-- Loss -->
     <g transform="translate(22.396875 191.970625) rotate(-90) scale(0.2 -0.2)">
      <defs>
       <path id="DejaVuSans-4c" d="M 628 4666 
L 1259 4666 
L 1259 531 
L 3531 531 
L 3531 0 
L 628 0 
L 628 4666 
z
" transform="scale(0.015625)"/>
      </defs>
      <use xlink:href="#DejaVuSans-4c"/>
      <use xlink:href="#DejaVuSans-6f" x="53.962891"/>
      <use xlink:href="#DejaVuSans-73" x="115.144531"/>
      <use xlink:href="#DejaVuSans-73" x="167.244141"/>
     </g>
    </g>
   </g>
   <g id="line2d_14">
    <path d="M 117.854261 124.531878 
L 118.128463 113.612244 
L 118.402664 120.519891 
L 118.951067 82.758685 
L 119.225269 52.516894 
L 119.49947 44.03625 
L 119.773672 61.970005 
L 120.047873 47.184644 
L 120.596276 80.314335 
L 120.870478 92.451127 
L 121.144679 90.170035 
L 121.693082 102.578324 
L 121.967283 95.671232 
L 122.241485 100.331578 
L 122.515686 100.663401 
L 122.789888 98.525286 
L 123.064089 104.282319 
L 123.338291 116.142604 
L 123.612492 120.516331 
L 123.886694 130.835256 
L 124.709298 125.168182 
L 124.9835 126.943921 
L 125.257701 124.005949 
L 125.806104 122.923807 
L 126.080306 123.257928 
L 126.354507 118.898656 
L 126.628709 119.56434 
L 126.90291 115.700499 
L 127.177111 117.745463 
L 127.451313 123.442567 
L 127.725514 123.774871 
L 128.548119 120.942223 
L 128.82232 119.124284 
L 129.370723 133.214281 
L 130.193328 122.23231 
L 130.467529 123.023945 
L 130.741731 127.784878 
L 131.015932 121.940687 
L 131.290134 123.981988 
L 131.838537 131.485114 
L 132.112738 128.917539 
L 132.386939 136.589669 
L 132.661141 136.567041 
L 132.935342 125.362361 
L 133.209544 126.824283 
L 133.483745 135.707324 
L 133.757947 137.326724 
L 134.032148 136.946144 
L 134.580551 141.297559 
L 134.854753 145.047706 
L 135.128954 145.805225 
L 135.403156 141.997796 
L 135.951559 139.025662 
L 136.22576 137.019952 
L 136.499962 138.139239 
L 136.774163 136.827967 
L 137.048365 138.508057 
L 137.322566 138.220575 
L 137.596768 138.101893 
L 137.870969 135.608969 
L 138.14517 141.338619 
L 138.693573 134.107495 
L 138.967775 138.24287 
L 139.241976 138.539082 
L 139.516178 134.882217 
L 139.790379 125.534589 
L 140.064581 130.92867 
L 140.338782 130.995844 
L 140.612984 129.896139 
L 140.887185 130.701701 
L 141.161387 134.78225 
L 141.70979 139.833902 
L 141.983991 134.538663 
L 142.258193 132.112555 
L 142.532394 132.679362 
L 142.806596 137.227089 
L 143.080797 136.509092 
L 143.354998 134.164532 
L 143.6292 138.634416 
L 143.903401 137.086605 
L 144.177603 139.48127 
L 144.451804 140.847521 
L 144.726006 136.401101 
L 145.000207 136.610398 
L 145.274409 141.120117 
L 145.54861 141.657382 
L 145.822812 141.745369 
L 146.371215 145.930699 
L 146.645416 144.353858 
L 146.919618 147.068299 
L 147.468021 143.872919 
L 147.742222 144.823045 
L 148.016424 145.322043 
L 148.564826 151.758086 
L 148.839028 147.409346 
L 149.113229 147.688363 
L 149.661632 143.905424 
L 149.935834 146.884967 
L 150.484237 147.688029 
L 151.03264 140.161348 
L 151.306841 143.441326 
L 151.581043 141.701099 
L 151.855244 143.244373 
L 152.129446 141.485977 
L 152.403647 143.743617 
L 152.677849 141.752809 
L 152.95205 144.378451 
L 153.226252 145.924998 
L 153.774654 145.710239 
L 154.048856 146.822277 
L 154.597259 142.812817 
L 154.87146 146.722669 
L 155.145662 142.762511 
L 155.419863 145.958757 
L 155.694065 145.805341 
L 155.968266 143.312113 
L 156.242468 144.758427 
L 156.516669 147.303361 
L 156.790871 146.89064 
L 157.065072 147.574506 
L 157.339274 148.59455 
L 157.887677 152.506974 
L 158.161878 150.388494 
L 158.43608 151.806019 
L 158.710281 150.902817 
L 158.984482 151.840849 
L 159.258684 149.806097 
L 159.532885 146.162209 
L 159.807087 148.368318 
L 160.081288 152.27345 
L 160.35549 151.466282 
L 160.629691 152.492185 
L 160.903893 150.095374 
L 161.452296 152.38361 
L 161.726497 151.164398 
L 162.000699 152.661597 
L 162.2749 153.504509 
L 162.549102 153.070374 
L 162.823303 153.701229 
L 163.371706 155.925178 
L 163.920109 153.860758 
L 164.194311 153.674296 
L 164.468512 153.035097 
L 164.742713 154.346622 
L 165.291116 153.137666 
L 165.565318 153.719381 
L 165.839519 151.537183 
L 166.113721 152.382328 
L 166.387922 153.754748 
L 166.662124 152.730595 
L 166.936325 153.912518 
L 167.210527 155.763226 
L 167.484728 154.635505 
L 167.75893 156.375225 
L 168.033131 154.862806 
L 168.581534 158.475495 
L 168.855736 159.246486 
L 169.129937 160.579032 
L 169.404139 160.177923 
L 169.67834 158.198611 
L 169.952541 157.632745 
L 170.226743 158.695304 
L 170.500944 158.058747 
L 171.323549 161.274453 
L 171.59775 161.049882 
L 172.146153 162.780169 
L 172.420355 162.93181 
L 172.694556 162.909826 
L 172.968758 163.16357 
L 173.242959 163.590409 
L 173.791362 163.028633 
L 174.065564 164.160838 
L 174.339765 163.43676 
L 174.613967 163.598174 
L 174.888168 163.302926 
L 175.162369 163.467349 
L 175.436571 163.018195 
L 175.710772 164.735424 
L 175.984974 163.474858 
L 176.259175 161.245375 
L 176.533377 162.806307 
L 177.355981 163.922568 
L 177.630183 162.747043 
L 177.904384 162.225773 
L 178.178586 162.846469 
L 178.452787 165.236295 
L 178.726989 163.231114 
L 179.00119 163.010536 
L 179.275392 163.003862 
L 179.549593 164.481228 
L 179.823795 164.159237 
L 180.097996 165.05063 
L 180.372197 167.617109 
L 180.646399 166.927606 
L 180.9206 166.829197 
L 181.194802 167.045429 
L 181.469003 167.040901 
L 181.743205 168.045201 
L 182.291608 166.198974 
L 182.565809 166.800597 
L 182.840011 168.759688 
L 183.114212 168.974249 
L 183.388414 166.434748 
L 183.662615 165.174013 
L 183.936817 167.03687 
L 184.48522 167.675998 
L 184.759421 167.355134 
L 185.033623 166.638156 
L 185.307824 167.116547 
L 185.582025 167.266925 
L 185.856227 168.14975 
L 186.130428 167.908898 
L 186.678831 168.238457 
L 187.227234 167.240999 
L 187.501436 168.253029 
L 187.775637 166.399731 
L 188.049839 167.169623 
L 188.32404 166.210275 
L 188.598242 167.497068 
L 188.872443 165.698517 
L 189.420846 166.698603 
L 189.695048 166.841433 
L 189.969249 166.310281 
L 190.243451 165.479998 
L 190.517652 165.215218 
L 190.791854 165.668773 
L 191.066055 167.322442 
L 191.340256 165.913513 
L 191.614458 165.804076 
L 191.888659 165.367667 
L 192.162861 166.220259 
L 192.437062 166.206106 
L 192.711264 165.972338 
L 192.985465 166.913536 
L 193.259667 166.170453 
L 193.533868 165.912273 
L 193.80807 166.548458 
L 194.082271 165.862925 
L 194.630674 167.181714 
L 194.904876 166.678216 
L 195.179077 166.675568 
L 195.453279 167.875845 
L 195.72748 168.366442 
L 196.001682 168.449603 
L 196.550084 169.32032 
L 196.824286 167.9225 
L 197.372689 168.843936 
L 197.64689 168.960531 
L 197.921092 168.782386 
L 198.195293 168.317253 
L 198.469495 169.688678 
L 198.743696 169.233972 
L 199.017898 169.06092 
L 199.566301 170.546879 
L 199.840502 170.171745 
L 200.114704 171.878035 
L 200.663107 171.137158 
L 200.937308 169.278403 
L 201.21151 169.725672 
L 201.485711 170.615596 
L 201.759912 169.496235 
L 202.034114 169.782768 
L 202.308315 169.890141 
L 202.582517 171.456883 
L 203.13092 170.001103 
L 203.405121 169.926751 
L 203.953524 171.37963 
L 204.227726 171.029107 
L 204.501927 171.124863 
L 204.776129 170.681482 
L 205.05033 170.87703 
L 205.324532 170.384301 
L 205.598733 170.986704 
L 205.872935 170.791971 
L 206.147136 169.625101 
L 206.421338 171.288955 
L 206.695539 170.927486 
L 206.96974 170.864856 
L 207.243942 171.211611 
L 207.518143 172.079021 
L 207.792345 171.845111 
L 208.066546 170.97074 
L 208.340748 171.625128 
L 208.614949 170.983582 
L 209.163352 171.02878 
L 209.711755 172.322231 
L 209.985957 171.627739 
L 210.260158 171.467542 
L 210.53436 172.467587 
L 210.808561 171.02565 
L 211.082763 171.947077 
L 211.356964 171.483687 
L 211.631166 172.050066 
L 212.45377 169.947551 
L 212.727971 170.733685 
L 213.002173 170.584067 
L 213.276374 171.103421 
L 213.550576 171.348453 
L 213.824777 171.120201 
L 214.37318 170.210684 
L 214.647382 170.789454 
L 214.921583 170.980313 
L 215.195785 172.211916 
L 215.469986 171.753866 
L 215.744188 172.058202 
L 216.018389 170.710387 
L 216.292591 171.610416 
L 216.840994 170.275572 
L 217.115195 170.921107 
L 217.389396 170.142906 
L 217.663598 171.335557 
L 217.937799 170.05853 
L 218.212001 170.093304 
L 218.486202 170.469731 
L 218.760404 171.273628 
L 219.034605 171.728208 
L 219.308807 171.723017 
L 219.583008 170.898618 
L 220.131411 171.377761 
L 220.405613 171.45996 
L 220.679814 170.901117 
L 220.954016 169.754796 
L 221.77662 171.283549 
L 222.050822 170.797232 
L 222.325023 171.524636 
L 222.599225 171.480676 
L 222.873426 171.125477 
L 223.69603 171.450506 
L 223.970232 170.746657 
L 224.244433 171.893811 
L 224.792836 169.705521 
L 225.067038 169.357828 
L 225.341239 169.628308 
L 225.615441 170.894575 
L 225.889642 171.221226 
L 226.163844 171.32752 
L 226.438045 171.762098 
L 226.712247 171.419549 
L 226.986448 171.510481 
L 227.26065 170.604535 
L 227.534851 172.064219 
L 227.809053 172.504472 
L 228.083254 171.730852 
L 228.357455 171.717936 
L 228.631657 171.126913 
L 228.905858 171.028055 
L 229.18006 171.81357 
L 229.454261 171.842793 
L 229.728463 171.260918 
L 230.002664 171.661503 
L 230.276866 171.18838 
L 231.09947 171.680532 
L 231.373672 172.343042 
L 231.647873 170.773445 
L 231.922075 171.850861 
L 232.196276 171.335879 
L 232.470478 171.470768 
L 232.744679 171.404438 
L 233.018881 170.42896 
L 233.293082 170.751651 
L 233.567283 170.623119 
L 233.841485 171.204737 
L 234.115686 169.869313 
L 234.389888 169.636724 
L 234.938291 170.828434 
L 235.212492 170.552112 
L 235.486694 170.519111 
L 235.760895 170.941655 
L 236.035097 169.718798 
L 236.309298 169.862972 
L 236.5835 170.788851 
L 237.131903 168.405074 
L 237.406104 169.592541 
L 237.954507 168.929275 
L 238.228709 168.277422 
L 238.50291 168.303997 
L 239.051313 169.461484 
L 239.599716 168.954341 
L 239.873917 167.445263 
L 240.148119 168.252356 
L 240.970723 169.043828 
L 241.244925 170.208008 
L 241.519126 169.180695 
L 241.793328 168.673338 
L 242.067529 168.707785 
L 242.341731 169.243154 
L 242.615932 169.377209 
L 242.890134 168.851158 
L 243.164335 166.81334 
L 243.438537 168.761281 
L 243.986939 167.564612 
L 244.535342 168.156309 
L 244.809544 168.13164 
L 245.083745 168.675291 
L 245.357947 168.119421 
L 245.632148 168.305333 
L 245.90635 167.535693 
L 246.180551 169.078896 
L 246.454753 168.406488 
L 246.728954 169.281049 
L 247.003156 168.148249 
L 247.277357 168.593674 
L 247.551559 168.732842 
L 247.82576 168.470857 
L 248.099962 169.372396 
L 248.374163 169.29299 
L 248.922566 167.88763 
L 249.196768 167.936869 
L 249.470969 168.913264 
L 249.74517 167.685689 
L 250.293573 168.452807 
L 250.567775 168.225701 
L 250.841976 170.2633 
L 251.116178 169.857828 
L 251.390379 168.55073 
L 251.664581 168.94689 
L 252.212984 167.836903 
L 252.487185 168.529338 
L 252.761387 168.526433 
L 253.035588 168.242491 
L 253.30979 168.845629 
L 253.583991 168.793187 
L 253.858193 169.295145 
L 254.132394 168.568328 
L 254.406596 169.156795 
L 254.680797 168.842294 
L 254.954998 169.404308 
L 255.2292 168.600934 
L 255.503401 169.158425 
L 255.777603 169.261816 
L 256.051804 169.167373 
L 256.326006 168.318719 
L 256.600207 168.55359 
L 257.14861 169.344485 
L 257.422812 168.986347 
L 257.697013 169.062865 
L 257.971215 167.845035 
L 258.245416 168.951697 
L 258.793819 166.987109 
L 259.342222 168.536455 
L 259.616424 167.813438 
L 260.439028 168.653876 
L 260.713229 169.890846 
L 260.987431 168.602198 
L 261.261632 168.122958 
L 261.535834 166.912785 
L 261.810035 168.156099 
L 262.084237 167.661884 
L 262.358438 169.488083 
L 262.63264 169.485607 
L 263.455244 168.073372 
L 263.729446 169.155096 
L 264.003647 167.873866 
L 264.277849 168.345896 
L 264.55205 168.076867 
L 264.826252 169.271937 
L 265.648856 165.679123 
L 266.47146 168.312368 
L 266.745662 167.853324 
L 267.019863 168.205852 
L 267.294065 167.419576 
L 267.568266 167.036538 
L 267.842468 168.70488 
L 268.665072 166.654306 
L 268.939274 167.786472 
L 269.213475 167.416425 
L 269.487677 168.569706 
L 269.761878 168.490675 
L 270.03608 169.154549 
L 270.310281 167.278725 
L 270.584482 168.560299 
L 270.858684 168.787789 
L 271.132885 167.280913 
L 271.407087 167.403509 
L 271.681288 166.122042 
L 271.95549 167.890703 
L 272.229691 166.99708 
L 272.503893 168.252917 
L 272.778094 166.923159 
L 273.052296 167.016084 
L 273.326497 167.241264 
L 273.8749 167.045006 
L 274.149102 166.305466 
L 274.423303 165.975857 
L 274.697505 167.000925 
L 274.971706 166.83386 
L 275.245908 167.60513 
L 275.520109 167.629385 
L 276.068512 167.104138 
L 276.342713 166.397981 
L 276.616915 167.148153 
L 276.891116 166.744054 
L 277.165318 165.842051 
L 277.439519 165.51877 
L 277.713721 166.309628 
L 277.987922 165.740703 
L 278.262124 166.816051 
L 278.810527 165.723097 
L 279.084728 166.108493 
L 279.633131 165.4902 
L 280.181534 166.795149 
L 280.455736 166.654096 
L 281.004139 167.621033 
L 281.27834 166.864147 
L 281.552541 167.267206 
L 281.826743 168.778092 
L 282.100944 169.05499 
L 282.375146 168.761897 
L 282.649347 168.71093 
L 282.923549 167.742667 
L 283.471952 169.264613 
L 283.746153 167.432988 
L 284.020355 168.344806 
L 284.294556 168.502555 
L 284.568758 169.430815 
L 284.842959 169.685325 
L 285.117161 168.870997 
L 285.391362 169.484155 
L 285.939765 169.27929 
L 286.213967 168.891965 
L 287.036571 170.281456 
L 287.310772 169.650673 
L 287.584974 169.556229 
L 287.859175 169.332334 
L 288.133377 169.753204 
L 288.407578 169.245746 
L 288.68178 169.301257 
L 288.955981 168.308343 
L 289.230183 168.719347 
L 289.504384 169.428888 
L 289.778586 170.479059 
L 290.052787 169.745954 
L 290.326989 170.42337 
L 290.875392 170.868408 
L 291.149593 170.270927 
L 291.423795 169.303986 
L 291.697996 170.119499 
L 291.972197 169.767772 
L 292.246399 169.857879 
L 292.5206 169.586723 
L 292.794802 169.716683 
L 293.069003 171.181534 
L 293.343205 170.772517 
L 293.617406 171.187108 
L 294.165809 170.129486 
L 294.440011 170.984094 
L 294.714212 171.01828 
L 294.988414 171.330471 
L 295.262615 170.098185 
L 295.536817 171.20177 
L 295.811018 170.094581 
L 296.359421 170.954885 
L 296.633623 170.937869 
L 296.907824 171.877335 
L 297.182025 171.940686 
L 297.456227 171.802314 
L 297.730428 170.553515 
L 298.00463 170.961193 
L 298.278831 170.871702 
L 298.553033 171.781641 
L 298.827234 171.652601 
L 299.375637 169.934908 
L 299.649839 169.855105 
L 299.92404 169.93931 
L 300.198242 170.289627 
L 300.472443 171.688032 
L 300.746645 171.08577 
L 301.020846 171.519824 
L 301.295048 171.452305 
L 301.569249 170.690751 
L 301.843451 170.4779 
L 302.117652 170.686815 
L 302.391854 171.598358 
L 302.666055 171.429171 
L 302.940256 170.468689 
L 303.214458 170.552143 
L 303.488659 171.170605 
L 303.762861 171.076991 
L 304.037062 170.857447 
L 304.311264 172.026858 
L 304.585465 171.897187 
L 304.859667 172.552691 
L 305.133868 172.187376 
L 305.40807 172.119924 
L 305.682271 172.812751 
L 305.956473 172.431816 
L 306.230674 171.504635 
L 306.504876 171.078927 
L 306.779077 172.052269 
L 307.053279 172.01934 
L 307.32748 171.139247 
L 307.601682 171.456836 
L 307.875883 172.361364 
L 308.150084 171.736331 
L 308.424286 172.752857 
L 308.698487 172.572182 
L 308.972689 171.777554 
L 309.24689 171.812087 
L 309.521092 172.632344 
L 309.795293 173.098525 
L 310.069495 172.871148 
L 310.343696 171.911924 
L 311.166301 172.795828 
L 311.440502 172.498574 
L 311.714704 172.657809 
L 311.988905 172.305638 
L 312.263107 173.087526 
L 312.537308 172.752212 
L 312.81151 171.853783 
L 313.085711 172.249377 
L 313.359912 173.237597 
L 313.634114 172.465509 
L 313.908315 172.943736 
L 314.456718 172.308294 
L 314.73092 172.475761 
L 315.005121 172.805779 
L 315.279323 173.509988 
L 315.553524 173.535105 
L 315.827726 172.965856 
L 316.101927 173.195651 
L 316.376129 173.028642 
L 316.65033 173.17028 
L 316.924532 173.69358 
L 317.198733 173.695534 
L 317.472935 173.025585 
L 317.747136 173.163722 
L 318.021338 172.773572 
L 318.295539 172.143886 
L 318.56974 172.728104 
L 319.118143 173.301175 
L 319.392345 173.212307 
L 319.666546 173.473794 
L 319.940748 173.354617 
L 320.214949 172.340577 
L 321.037554 173.545899 
L 321.311755 173.717131 
L 322.408561 172.846439 
L 322.682763 172.830841 
L 323.231166 173.914986 
L 323.505367 173.328633 
L 323.779568 173.220606 
L 324.05377 172.633549 
L 324.602173 172.524903 
L 324.876374 172.899515 
L 325.150576 172.995464 
L 325.424777 173.52655 
L 325.698979 172.911105 
L 326.247382 173.067123 
L 326.521583 172.580127 
L 326.795785 173.506689 
L 327.069986 173.224257 
L 327.618389 173.550066 
L 327.892591 173.870253 
L 328.166792 173.463889 
L 328.440994 173.309775 
L 328.715195 174.370365 
L 328.989396 174.641543 
L 329.263598 173.336782 
L 329.537799 174.511969 
L 329.812001 174.789815 
L 330.086202 174.779389 
L 330.360404 174.237352 
L 330.634605 174.548939 
L 330.908807 174.300293 
L 331.183008 174.250603 
L 331.45721 174.571552 
L 331.731411 174.630708 
L 332.005613 174.100518 
L 332.279814 174.358606 
L 332.554016 173.547171 
L 333.37662 174.726061 
L 333.650822 174.763368 
L 334.199225 173.868562 
L 334.473426 174.002336 
L 334.747627 174.499336 
L 335.021829 174.761793 
L 335.29603 174.237576 
L 335.570232 173.960542 
L 335.844433 174.456797 
L 336.118635 174.608312 
L 336.392836 173.651449 
L 336.667038 174.262652 
L 336.941239 173.571319 
L 337.215441 173.445559 
L 337.489642 174.284243 
L 337.763844 174.647367 
L 338.038045 174.143819 
L 338.312247 175.098752 
L 338.586448 174.592985 
L 338.86065 174.67441 
L 339.134851 173.986843 
L 339.409053 174.89315 
L 339.683254 175.040789 
L 339.957455 174.521271 
L 340.231657 174.31169 
L 340.505858 174.409975 
L 340.78006 174.844725 
L 341.054261 174.091942 
L 341.328463 174.054085 
L 341.602664 175.056739 
L 341.876866 175.179453 
L 342.151067 174.76291 
L 342.425269 175.188881 
L 342.69947 174.606071 
L 342.973672 174.643741 
L 343.247873 175.360247 
L 343.522075 174.345135 
L 343.796276 174.196209 
L 344.070478 174.545014 
L 344.344679 174.055634 
L 344.618881 174.603814 
L 344.893082 174.591183 
L 345.167283 174.85815 
L 345.441485 175.470077 
L 346.264089 174.592355 
L 346.538291 175.085638 
L 347.360895 175.479677 
L 347.909298 174.720709 
L 348.1835 175.256771 
L 348.457701 174.918766 
L 348.731903 175.417736 
L 349.006104 174.536108 
L 349.280306 174.684633 
L 349.554507 174.961427 
L 349.828709 174.675325 
L 350.10291 174.602429 
L 350.377111 174.976565 
L 350.651313 175.109405 
L 350.925514 175.082062 
L 351.199716 175.327841 
L 351.473917 175.332892 
L 351.748119 175.704394 
L 352.02232 175.749832 
L 352.296522 176.00514 
L 352.844925 175.331336 
L 353.119126 175.820725 
L 353.393328 175.670553 
L 353.667529 176.437552 
L 354.215932 175.79007 
L 354.490134 175.892828 
L 354.764335 176.684125 
L 355.038537 176.529924 
L 355.312738 176.862434 
L 355.586939 176.827581 
L 356.135342 176.121104 
L 356.409544 176.371403 
L 356.683745 176.282667 
L 356.957947 176.55121 
L 357.232148 175.998972 
L 357.50635 176.438404 
L 357.780551 176.232709 
L 359.151559 176.191065 
L 359.699962 176.740455 
L 359.974163 176.851348 
L 360.248365 176.071476 
L 360.522566 176.531128 
L 360.796768 176.313304 
L 361.070969 176.241809 
L 361.34517 176.342322 
L 361.619372 176.154964 
L 361.893573 176.730567 
L 362.441976 176.218591 
L 362.716178 175.822586 
L 362.990379 176.737825 
L 363.538782 176.679438 
L 363.812984 176.37128 
L 364.087185 176.406383 
L 364.361387 176.716217 
L 364.635588 176.815412 
L 364.90979 177.092024 
L 365.183991 177.029247 
L 365.458193 176.541315 
L 365.732394 176.447746 
L 366.006596 177.045527 
L 366.554998 176.949279 
L 366.8292 177.623724 
L 367.103401 177.333461 
L 367.377603 177.417731 
L 367.926006 177.852056 
L 368.200207 177.331983 
L 368.474409 177.404682 
L 368.74861 177.087448 
L 369.022812 177.158187 
L 369.297013 177.398378 
L 369.571215 177.790668 
L 369.845416 177.673758 
L 370.119618 177.360908 
L 370.393819 177.671818 
L 370.668021 177.4662 
L 370.942222 177.428796 
L 371.216424 177.569326 
L 371.490625 177.546279 
L 371.764826 177.915382 
L 372.039028 177.810681 
L 372.587431 178.110901 
L 372.861632 178.166555 
L 373.135834 178.094477 
L 373.410035 178.494665 
L 373.684237 178.181803 
L 373.958438 178.777438 
L 374.23264 178.034988 
L 374.781043 178.678885 
L 375.055244 178.273268 
L 375.329446 178.558078 
L 375.603647 178.645732 
L 375.877849 178.979903 
L 376.15205 178.604421 
L 376.426252 178.72779 
L 376.700453 179.086753 
L 376.974654 179.201082 
L 377.248856 179.159582 
L 377.523057 179.666424 
L 377.797259 178.766806 
L 378.619863 179.450476 
L 378.894065 178.899028 
L 379.168266 178.941914 
L 379.442468 178.499958 
L 379.716669 178.50986 
L 379.990871 178.949115 
L 380.813475 178.963947 
L 381.087677 179.468592 
L 381.361878 178.957596 
L 381.63608 179.146655 
L 381.910281 179.543453 
L 382.184482 179.427571 
L 382.458684 179.127683 
L 382.732885 179.518266 
L 383.007087 179.204089 
L 383.281288 179.222719 
L 383.55549 178.98623 
L 384.103893 179.874376 
L 384.378094 179.517771 
L 384.926497 179.686319 
L 385.200699 179.129207 
L 385.4749 179.487302 
L 385.749102 179.333922 
L 386.023303 179.358981 
L 386.297505 179.26307 
L 386.571706 179.425154 
L 386.845908 179.749735 
L 387.668512 179.776525 
L 388.216915 179.344682 
L 388.491116 179.001729 
L 388.765318 179.286516 
L 389.039519 179.275482 
L 389.313721 179.092813 
L 389.862124 179.884484 
L 390.136325 179.531372 
L 390.684728 179.715287 
L 390.95893 180.303038 
L 391.233131 179.626734 
L 391.507333 179.711593 
L 391.781534 180.147627 
L 392.055736 179.670431 
L 392.329937 179.744088 
L 392.604139 179.947498 
L 393.152541 179.938698 
L 393.426743 180.335198 
L 393.700944 179.565856 
L 393.975146 179.855395 
L 394.523549 179.746231 
L 394.79775 179.656306 
L 395.346153 179.931039 
L 395.620355 179.520946 
L 395.894556 180.09352 
L 396.168758 180.325481 
L 396.442959 180.140308 
L 396.717161 180.371481 
L 396.991362 179.869368 
L 397.265564 179.963973 
L 397.539765 179.778552 
L 397.813967 180.202878 
L 398.088168 179.514326 
L 398.362369 179.482513 
L 398.636571 180.026128 
L 398.910772 179.427368 
L 399.184974 180.162905 
L 399.459175 180.306756 
L 399.733377 180.214288 
L 400.007578 180.380419 
L 400.555981 180.086379 
L 400.830183 180.226138 
L 401.104384 180.13434 
L 401.378586 180.485126 
L 401.652787 179.700224 
L 401.926989 180.485923 
L 402.20119 180.18604 
L 402.475392 180.300664 
L 402.749593 179.763172 
L 403.023795 180.343231 
L 403.297996 180.165772 
L 403.572197 179.744616 
L 403.846399 179.91302 
L 404.1206 180.310773 
L 404.394802 180.22706 
L 404.669003 179.954252 
L 404.943205 180.26877 
L 405.765809 179.54126 
L 406.040011 180.330199 
L 406.314212 179.814204 
L 406.588414 180.189141 
L 406.862615 179.754376 
L 407.136817 179.853491 
L 407.411018 179.818375 
L 407.68522 180.340954 
L 407.959421 179.605927 
L 408.233623 179.87026 
L 409.056227 180.07964 
L 409.878831 179.896924 
L 410.153033 180.110488 
L 410.975637 179.963066 
L 411.249839 179.986136 
L 411.52404 179.786335 
L 411.798242 180.758785 
L 412.072443 180.032607 
L 412.346645 179.725176 
L 412.620846 180.118395 
L 413.169249 180.137444 
L 413.443451 179.824126 
L 413.717652 180.373565 
L 413.991854 180.011501 
L 414.266055 180.842442 
L 414.814458 179.845933 
L 415.362861 180.704952 
L 415.637062 180.052903 
L 415.911264 180.440301 
L 416.185465 180.109915 
L 416.459667 180.557143 
L 416.733868 179.928409 
L 417.00807 180.445121 
L 417.282271 180.182771 
L 417.556473 180.431568 
L 417.830674 180.367132 
L 418.104876 179.936347 
L 418.379077 179.76118 
L 418.653279 180.23181 
L 418.92748 180.466946 
L 419.475883 180.41052 
L 419.750084 179.999994 
L 420.024286 180.530902 
L 420.298487 180.113117 
L 420.572689 179.963953 
L 421.395293 180.459806 
L 421.669495 180.126073 
L 421.943696 180.086951 
L 422.217898 180.429204 
L 422.492099 179.835401 
L 422.766301 179.932744 
L 423.040502 180.477864 
L 423.588905 180.413045 
L 423.863107 180.786465 
L 424.137308 180.680939 
L 424.41151 181.04021 
L 424.685711 180.618574 
L 425.234114 181.161888 
L 425.508315 181.009758 
L 425.782517 180.357643 
L 426.056718 181.03261 
L 426.605121 180.65069 
L 427.153524 180.962039 
L 427.427726 180.873817 
L 427.701927 181.058111 
L 427.976129 180.777752 
L 428.25033 180.886168 
L 428.524532 180.622959 
L 428.798733 180.617082 
L 429.072935 180.960957 
L 429.347136 180.67538 
L 429.621338 180.828634 
L 429.895539 180.788095 
L 430.16974 181.055961 
L 430.443942 180.313954 
L 430.718143 180.775309 
L 430.992345 180.938638 
L 431.266546 180.542884 
L 431.814949 181.168604 
L 432.089151 179.688472 
L 432.363352 180.392513 
L 432.637554 178.640427 
L 432.911755 180.57413 
L 433.185957 180.541096 
L 434.008561 179.634978 
L 434.556964 180.678679 
L 434.831166 181.001879 
L 435.105367 179.692597 
L 435.379568 179.872039 
L 435.65377 179.911641 
L 435.927971 179.702042 
L 436.202173 179.916145 
L 436.476374 180.866377 
L 436.750576 181.119183 
L 437.024777 180.870432 
L 437.57318 181.317297 
L 438.121583 181.259107 
L 438.395785 181.713421 
L 438.669986 181.801746 
L 438.944188 181.342694 
L 439.218389 181.740323 
L 439.492591 181.870945 
L 440.040994 181.379809 
L 440.315195 181.10921 
L 440.589396 181.578598 
L 440.863598 181.457262 
L 441.137799 181.756397 
L 441.412001 181.833844 
L 441.686202 181.452956 
L 441.960404 180.758443 
L 442.234605 181.092783 
L 442.508807 181.698405 
L 442.783008 181.772995 
L 443.05721 181.05467 
L 443.331411 181.089973 
L 443.605613 181.50234 
L 443.879814 181.66487 
L 444.154016 181.35546 
L 444.428217 181.225757 
L 444.702419 181.543379 
L 445.525023 181.080672 
L 446.073426 181.726543 
L 446.347627 181.237467 
L 446.621829 181.032272 
L 446.89603 181.377015 
L 447.170232 181.301601 
L 447.444433 181.535514 
L 447.718635 181.258281 
L 447.992836 181.493265 
L 448.541239 181.256666 
L 448.815441 181.513799 
L 449.089642 181.435503 
L 449.363844 181.514314 
L 450.186448 181.189708 
L 450.46065 181.198173 
L 450.734851 180.7601 
L 451.283254 181.34693 
L 451.557455 181.245781 
L 451.831657 181.498462 
L 452.105858 181.550906 
L 452.654261 180.992424 
L 452.928463 181.268454 
L 453.476866 181.035894 
L 453.751067 180.820112 
L 454.025269 181.13928 
L 454.29947 181.229345 
L 454.573672 181.017003 
L 454.847873 180.951223 
L 455.122075 180.76528 
L 455.396276 180.995814 
L 455.670478 180.902129 
L 456.218881 181.354898 
L 457.041485 181.077253 
L 457.315686 181.562308 
L 457.589888 181.129142 
L 458.686694 181.024166 
L 458.960895 180.608327 
L 459.235097 180.84078 
L 459.509298 180.342192 
L 460.057701 180.471055 
L 460.331903 180.088666 
L 460.606104 180.506601 
L 461.154507 180.773344 
L 461.428709 180.569682 
L 461.70291 180.692288 
L 462.251313 180.742516 
L 462.525514 180.806807 
L 462.799716 180.719669 
L 463.073917 180.47129 
L 463.62232 181.015355 
L 463.896522 180.70871 
L 464.444925 180.550199 
L 464.993328 180.648926 
L 465.267529 180.427252 
L 466.090134 180.915069 
L 466.638537 180.821858 
L 466.912738 180.62099 
L 467.186939 181.404136 
L 467.461141 180.454013 
L 467.735342 180.56572 
L 468.009544 180.270258 
L 468.557947 180.815892 
L 468.832148 180.959847 
L 469.10635 180.681966 
L 469.380551 180.77097 
L 469.654753 180.436864 
L 470.203156 181.367257 
L 470.477357 181.425191 
L 470.751559 180.975402 
L 471.02576 181.394564 
L 471.299962 181.243575 
L 472.122566 181.439895 
L 472.94517 181.038546 
L 473.219372 181.078359 
L 473.493573 180.805165 
L 473.767775 181.109987 
L 474.041976 180.894622 
L 474.316178 180.885497 
L 474.590379 181.030231 
L 475.138782 180.582459 
L 475.412984 180.5819 
L 475.687185 181.301521 
L 476.50979 180.850515 
L 476.783991 180.596543 
L 477.058193 181.03422 
L 477.332394 180.387739 
L 477.606596 180.595513 
L 477.880797 180.992694 
L 478.154998 180.906266 
L 478.703401 180.964894 
L 478.977603 180.463233 
L 479.251804 180.413894 
L 479.526006 180.688925 
L 479.800207 180.572082 
L 480.34861 180.593941 
L 480.622812 180.817773 
L 480.897013 180.273597 
L 481.445416 180.300158 
L 481.719618 180.730083 
L 482.268021 181.065862 
L 482.542222 181.07676 
L 482.816424 180.729234 
L 483.090625 181.182576 
L 483.364826 181.067842 
L 483.639028 181.205744 
L 484.461632 180.753324 
L 485.010035 181.150151 
L 485.284237 180.58805 
L 485.558438 181.350497 
L 485.83264 180.81243 
L 486.106841 180.63374 
L 486.655244 181.003007 
L 486.929446 181.941892 
L 487.477849 181.543051 
L 487.75205 181.754085 
L 488.026252 181.610898 
L 488.300453 180.954346 
L 488.574654 181.59882 
L 488.848856 181.325681 
L 489.123057 181.27557 
L 489.397259 181.004722 
L 489.67146 181.055718 
L 489.945662 180.747448 
L 490.219863 181.066094 
L 490.494065 181.051048 
L 490.768266 181.267209 
L 491.316669 180.62789 
L 491.590871 181.382941 
L 491.865072 180.932179 
L 492.139274 180.82115 
L 492.687677 180.968331 
L 492.961878 180.532245 
L 493.23608 180.797535 
L 493.510281 180.77279 
L 493.784482 180.5937 
L 494.058684 180.66505 
L 494.332885 181.171911 
L 494.881288 180.830612 
L 495.15549 181.058228 
L 495.429691 180.702383 
L 495.703893 181.53683 
L 496.252296 180.681202 
L 496.800699 180.754547 
L 497.0749 180.449857 
L 497.349102 180.816854 
L 497.623303 180.729683 
L 497.897505 181.090441 
L 498.171706 180.750473 
L 498.720109 180.964601 
L 498.994311 180.968534 
L 499.268512 181.427189 
L 499.542713 181.365353 
L 499.816915 181.070849 
L 500.091116 181.437569 
L 500.639519 181.191414 
L 501.187922 181.239322 
L 501.462124 181.198415 
L 502.010527 181.561854 
L 502.55893 181.654299 
L 502.833131 181.167515 
L 503.107333 181.02352 
L 503.655736 180.99732 
L 503.929937 180.830116 
L 504.204139 181.266327 
L 504.47834 180.895491 
L 504.752541 181.437192 
L 505.300944 180.6598 
L 505.575146 180.863089 
L 505.849347 180.926796 
L 506.39775 181.30559 
L 506.671952 180.611412 
L 506.946153 181.089032 
L 507.220355 180.353987 
L 507.494556 180.85321 
L 507.768758 180.702608 
L 508.042959 181.158002 
L 508.317161 181.162582 
L 508.591362 181.017174 
L 508.865564 181.091327 
L 509.413967 180.642218 
L 509.962369 180.970936 
L 510.236571 180.304453 
L 510.510772 181.094927 
L 511.059175 180.995537 
L 511.333377 180.782287 
L 511.607578 180.924361 
L 511.88178 180.891018 
L 512.155981 180.308226 
L 512.430183 180.384108 
L 512.704384 180.216092 
L 512.978586 180.419858 
L 513.252787 180.373463 
L 513.526989 180.09461 
L 513.80119 180.283628 
L 514.075392 180.695648 
L 514.349593 180.275217 
L 514.623795 180.355095 
L 514.897996 180.752406 
L 515.446399 180.686666 
L 515.7206 180.545878 
L 515.994802 180.685748 
L 516.269003 180.592957 
L 516.817406 181.485827 
L 517.091608 181.055496 
L 517.365809 181.512296 
L 517.640011 181.050615 
L 517.914212 180.827786 
L 518.462615 180.884563 
L 518.736817 181.202102 
L 519.011018 180.650656 
L 519.28522 180.823764 
L 519.559421 180.727668 
L 520.107824 181.31409 
L 520.656227 180.373238 
L 520.930428 180.744619 
L 521.20463 180.05181 
L 521.478831 179.901931 
L 522.575637 180.837801 
L 523.398242 181.259173 
L 523.672443 180.644991 
L 523.946645 181.11426 
L 524.220846 181.159168 
L 524.495048 180.746381 
L 524.769249 180.698586 
L 525.317652 181.113565 
L 525.591854 180.972924 
L 525.866055 181.257505 
L 526.140256 180.695665 
L 526.688659 181.216332 
L 526.962861 180.964219 
L 527.237062 180.87865 
L 527.511264 181.119521 
L 527.785465 181.607793 
L 528.059667 181.122925 
L 528.333868 181.126172 
L 528.60807 181.370888 
L 528.882271 181.43704 
L 529.156473 181.093536 
L 529.430674 181.212693 
L 529.704876 181.019488 
L 529.979077 181.104517 
L 530.253279 181.313435 
L 530.52748 181.263302 
L 530.801682 181.060523 
L 531.075883 181.379133 
L 531.350084 181.056778 
L 531.898487 181.824746 
L 532.172689 181.161291 
L 532.44689 180.902771 
L 532.721092 180.852171 
L 532.995293 181.064476 
L 533.543696 181.065349 
L 533.817898 181.386164 
L 534.092099 180.846129 
L 534.366301 181.129251 
L 534.640502 180.717284 
L 536.01151 181.167349 
L 536.285711 180.999915 
L 536.559912 180.967955 
L 536.834114 181.051937 
L 537.108315 180.81279 
L 537.382517 181.059271 
L 537.656718 180.702309 
L 537.93092 180.588755 
L 538.205121 180.703216 
L 538.479323 181.00155 
L 538.753524 181.056528 
L 540.124532 180.596252 
L 540.398733 181.115839 
L 540.672935 180.5885 
L 540.947136 180.583452 
L 541.221338 181.075765 
L 541.495539 180.902829 
L 541.76974 181.082691 
L 542.318143 180.516812 
L 542.592345 180.882191 
L 542.866546 180.754055 
L 543.140748 180.228423 
L 543.414949 180.743409 
L 543.689151 180.613445 
L 544.237554 180.631908 
L 544.785957 180.376303 
L 545.060158 180.595608 
L 545.33436 180.033503 
L 545.608561 180.308104 
L 546.431166 179.882956 
L 546.705367 180.347983 
L 546.979568 180.459488 
L 547.25377 180.037707 
L 547.527971 180.493574 
L 547.802173 180.331093 
L 548.076374 180.34676 
L 548.350576 180.532316 
L 548.624777 180.117255 
L 548.898979 180.389801 
L 549.17318 179.972239 
L 549.447382 180.378161 
L 549.721583 179.639195 
L 549.995785 180.001312 
L 550.269986 180.150588 
L 550.544188 180.017005 
L 550.818389 180.29023 
L 551.092591 180.344243 
L 551.366792 179.773913 
L 551.640994 180.443003 
L 552.189396 180.046541 
L 552.463598 180.588751 
L 552.737799 180.630909 
L 553.012001 180.422205 
L 553.286202 179.979481 
L 553.560404 179.980021 
L 553.834605 180.267887 
L 554.383008 180.459654 
L 554.65721 180.355328 
L 554.931411 180.414516 
L 555.205613 180.679357 
L 555.479814 179.984639 
L 555.754016 180.452226 
L 556.028217 180.335344 
L 556.302419 180.36438 
L 556.57662 180.134694 
L 556.850822 180.174247 
L 557.125023 180.054276 
L 557.673426 180.915646 
L 558.221829 180.043054 
L 558.49603 180.680668 
L 558.770232 180.727511 
L 559.044433 180.458417 
L 560.141239 180.379402 
L 560.415441 180.514897 
L 560.689642 180.227952 
L 560.963844 180.124723 
L 561.238045 179.850348 
L 561.512247 180.090286 
L 561.786448 179.917352 
L 562.06065 180.512762 
L 562.609053 180.823261 
L 563.157455 179.958638 
L 563.431657 180.321717 
L 563.705858 180.328139 
L 564.254261 180.114062 
L 564.528463 180.687849 
L 564.802664 180.392449 
L 565.076866 180.269831 
L 565.351067 180.747104 
L 565.89947 180.036172 
L 566.173672 180.563158 
L 566.722075 180.062253 
L 567.270478 180.242465 
L 567.544679 180.186906 
L 567.818881 179.803245 
L 568.093082 180.048928 
L 568.367283 180.503668 
L 568.641485 180.519481 
L 568.915686 180.213884 
L 569.738291 180.57193 
L 570.012492 180.1393 
L 570.286694 179.994116 
L 570.560895 180.241309 
L 570.835097 180.693579 
L 571.109298 180.123898 
L 571.3835 180.546062 
L 571.657701 180.316657 
L 571.931903 180.855769 
L 572.206104 180.623698 
L 572.480306 180.673502 
L 572.754507 179.953548 
L 573.577111 180.670177 
L 573.851313 180.729558 
L 574.125514 180.371113 
L 574.673917 180.607704 
L 574.948119 180.520945 
L 575.22232 180.56989 
L 575.496522 180.185434 
L 575.770723 180.157958 
L 576.044925 180.363142 
L 576.319126 180.41126 
L 576.593328 180.241071 
L 576.867529 180.415905 
L 577.141731 180.021148 
L 577.690134 180.421487 
L 577.964335 180.285984 
L 578.786939 180.217228 
L 579.061141 179.837688 
L 579.335342 180.347061 
L 579.609544 180.003514 
L 579.883745 180.152873 
L 580.157947 180.697102 
L 580.432148 180.202317 
L 580.70635 180.720307 
L 580.980551 180.508126 
L 581.254753 180.719585 
L 581.528954 180.2235 
L 581.803156 180.435391 
L 582.077357 180.909896 
L 582.351559 180.790144 
L 582.62576 180.527332 
L 582.899962 180.110063 
L 583.174163 180.933318 
L 583.722566 180.226193 
L 583.996768 180.721908 
L 584.270969 180.470099 
L 584.54517 180.627478 
L 585.093573 180.250679 
L 585.367775 180.27313 
L 585.641976 180.149119 
L 586.190379 180.460859 
L 586.464581 180.188218 
L 586.738782 180.493573 
L 587.012984 180.219084 
L 587.287185 180.391988 
L 587.561387 180.328702 
L 587.835588 180.662315 
L 588.10979 180.446469 
L 588.383991 180.836737 
L 588.658193 180.278614 
L 588.932394 180.419412 
L 589.206596 180.860093 
L 589.754998 180.521863 
L 590.577603 180.701684 
L 590.851804 180.509794 
L 591.400207 180.797169 
L 591.674409 180.502845 
L 592.222812 180.549016 
L 592.497013 180.575103 
L 592.771215 180.938795 
L 593.045416 180.866178 
L 593.319618 180.640907 
L 593.593819 180.816311 
L 593.868021 180.611711 
L 594.142222 180.711766 
L 594.416424 181.27283 
L 594.964826 180.715314 
L 595.239028 181.054777 
L 595.513229 181.151669 
L 595.787431 180.78642 
L 596.061632 180.820464 
L 596.335834 181.143475 
L 596.610035 180.94288 
L 597.158438 181.179736 
L 597.43264 180.641793 
L 597.706841 180.643329 
L 597.981043 180.490232 
L 598.529446 181.145202 
L 598.803647 180.612057 
L 599.077849 180.912185 
L 599.35205 180.670918 
L 599.626252 180.640465 
L 599.900453 181.225938 
L 600.174654 180.538707 
L 600.448856 181.229867 
L 600.723057 180.916651 
L 600.997259 181.205705 
L 601.545662 180.708872 
L 602.094065 181.083043 
L 602.368266 180.526652 
L 602.642468 180.952256 
L 603.465072 181.025195 
L 604.013475 181.2689 
L 604.561878 181.175654 
L 604.83608 181.464753 
L 605.110281 181.382898 
L 605.384482 181.49231 
L 605.658684 181.35982 
L 605.932885 181.001593 
L 606.481288 181.421532 
L 606.75549 181.066199 
L 607.029691 181.098343 
L 607.303893 180.893422 
L 607.852296 181.097884 
L 608.400699 180.960945 
L 608.6749 180.742823 
L 609.223303 180.905863 
L 609.771706 180.568554 
L 610.045908 181.043934 
L 610.320109 180.809179 
L 610.594311 181.09004 
L 610.868512 180.954893 
L 611.142713 180.627446 
L 611.691116 180.58382 
L 611.965318 180.690555 
L 612.239519 180.605296 
L 612.513721 180.378925 
L 613.062124 181.026564 
L 613.336325 180.992848 
L 613.610527 181.190455 
L 614.15893 180.749288 
L 614.433131 180.681348 
L 614.707333 181.339908 
L 614.981534 180.987316 
L 615.255736 180.444921 
L 615.529937 181.001393 
L 615.804139 180.537749 
L 616.07834 180.79801 
L 616.626743 180.868117 
L 616.900944 180.490376 
L 617.175146 180.690695 
L 617.449347 180.335621 
L 617.723549 180.68674 
L 617.99775 180.789783 
L 618.271952 181.043069 
L 618.546153 180.767696 
L 618.820355 180.928655 
L 619.094556 180.467817 
L 619.368758 180.450791 
L 619.642959 180.223998 
L 619.917161 180.355155 
L 620.191362 180.900141 
L 620.465564 180.588691 
L 620.739765 180.46013 
L 621.013967 180.585112 
L 621.288168 181.16542 
L 621.562369 180.76162 
L 621.836571 180.727314 
L 622.384974 180.925857 
L 622.659175 180.879781 
L 623.207578 181.208465 
L 623.48178 181.129358 
L 624.030183 181.402599 
L 624.304384 180.722663 
L 624.852787 180.752399 
L 625.126989 180.883338 
L 625.126989 180.883338 
" clip-path="url(#pde2628cf1d)" style="fill: none; stroke: #1f77b4; stroke-width: 1.5; stroke-linecap: square"/>
   </g>
   <g id="line2d_15">
    <path d="M 117.854261 296.03625 
L 118.128463 293.670519 
L 118.402664 246.011862 
L 118.676866 269.986081 
L 118.951067 278.80496 
L 119.49947 230.620247 
L 119.773672 249.231156 
L 120.047873 223.688053 
L 120.322075 220.004876 
L 120.596276 208.447941 
L 120.870478 211.42837 
L 121.144679 210.881812 
L 121.418881 207.172589 
L 121.693082 205.397716 
L 121.967283 204.796222 
L 122.241485 201.902029 
L 122.515686 204.825475 
L 122.789888 199.039532 
L 123.064089 198.542908 
L 123.338291 192.649877 
L 123.612492 193.698227 
L 123.886694 192.006893 
L 124.160895 194.531603 
L 124.435097 193.321072 
L 124.709298 195.950344 
L 125.257701 197.851664 
L 125.531903 197.33166 
L 125.806104 192.321801 
L 126.080306 190.967719 
L 126.354507 193.33488 
L 126.628709 192.207896 
L 127.177111 192.261632 
L 127.451313 189.654198 
L 127.999716 191.107552 
L 128.82232 192.268471 
L 129.370723 187.000513 
L 130.193328 191.730823 
L 130.467529 190.152641 
L 130.741731 189.313256 
L 131.015932 190.141136 
L 131.290134 189.859756 
L 131.564335 189.199789 
L 131.838537 188.181538 
L 132.112738 189.724939 
L 132.386939 185.408925 
L 132.661141 186.78425 
L 132.935342 189.527407 
L 133.209544 190.100574 
L 133.483745 186.043988 
L 133.757947 188.646009 
L 134.032148 187.302461 
L 134.30635 187.322897 
L 134.580551 188.79512 
L 134.854753 187.482793 
L 135.128954 184.947255 
L 135.403156 187.693612 
L 135.677357 186.691977 
L 136.22576 188.999593 
L 136.774163 186.831658 
L 137.048365 188.620825 
L 137.322566 188.360617 
L 137.596768 188.945293 
L 137.870969 187.132025 
L 138.14517 186.201876 
L 138.419372 188.283568 
L 138.967775 187.196792 
L 139.241976 186.938449 
L 139.516178 187.869209 
L 139.790379 189.448849 
L 140.064581 186.718774 
L 140.338782 187.926137 
L 140.612984 188.029027 
L 140.887185 190.577963 
L 141.161387 188.203017 
L 141.435588 187.138785 
L 141.70979 187.142223 
L 141.983991 186.650825 
L 142.258193 187.646986 
L 142.532394 189.119807 
L 142.806596 187.357287 
L 143.354998 186.780915 
L 143.903401 187.368904 
L 144.451804 186.468459 
L 144.726006 186.8359 
L 145.000207 186.971379 
L 145.274409 186.899701 
L 145.54861 185.093429 
L 146.097013 187.794619 
L 146.371215 185.873828 
L 146.645416 187.042895 
L 146.919618 187.159686 
L 147.193819 186.253183 
L 147.468021 188.14548 
L 147.742222 186.173962 
L 148.016424 185.537409 
L 148.290625 184.507913 
L 148.564826 185.289264 
L 148.839028 185.491353 
L 149.387431 185.50605 
L 149.661632 186.706911 
L 150.484237 186.282175 
L 150.758438 187.690941 
L 151.03264 187.862135 
L 151.306841 187.247781 
L 151.581043 187.676233 
L 151.855244 187.559511 
L 152.129446 186.670892 
L 152.403647 186.806549 
L 152.677849 187.357622 
L 152.95205 185.867307 
L 153.226252 187.427715 
L 153.500453 187.569171 
L 153.774654 186.07568 
L 154.048856 187.16852 
L 154.323057 186.5731 
L 154.87146 187.488045 
L 155.145662 188.414262 
L 155.419863 186.39198 
L 155.694065 186.976814 
L 155.968266 187.007496 
L 156.242468 187.455282 
L 156.516669 187.062753 
L 156.790871 187.688059 
L 157.065072 188.913983 
L 157.339274 187.573495 
L 157.887677 187.191744 
L 158.161878 188.389262 
L 158.43608 187.798525 
L 158.710281 188.176457 
L 158.984482 187.385669 
L 159.258684 187.75249 
L 159.532885 188.699782 
L 159.807087 187.992732 
L 160.35549 187.416289 
L 160.629691 187.418395 
L 160.903893 188.303428 
L 161.178094 188.623496 
L 161.452296 187.288899 
L 161.726497 187.427393 
L 162.000699 186.829265 
L 162.823303 187.035494 
L 163.097505 187.28354 
L 163.371706 186.891307 
L 163.645908 186.72 
L 163.920109 188.287451 
L 164.194311 187.859376 
L 164.468512 187.743438 
L 164.742713 188.356273 
L 165.016915 188.02346 
L 165.291116 188.876462 
L 165.565318 188.073269 
L 165.839519 188.013018 
L 166.113721 188.164853 
L 166.662124 188.680438 
L 166.936325 188.271192 
L 167.210527 187.5247 
L 167.484728 188.341547 
L 167.75893 188.324353 
L 168.033131 189.009177 
L 168.307333 188.05667 
L 168.581534 188.160156 
L 169.129937 187.39402 
L 169.404139 188.24029 
L 169.67834 188.117727 
L 169.952541 188.362317 
L 170.500944 187.579802 
L 170.775146 188.523492 
L 171.049347 187.779426 
L 171.323549 188.004608 
L 171.59775 188.050907 
L 171.871952 187.705057 
L 172.420355 188.714194 
L 172.694556 188.091426 
L 173.242959 188.372829 
L 173.517161 187.862224 
L 174.065564 189.328308 
L 174.339765 188.385363 
L 174.613967 188.20942 
L 174.888168 187.831949 
L 175.162369 189.396933 
L 175.436571 188.005285 
L 175.710772 188.784901 
L 175.984974 187.040929 
L 176.259175 188.521028 
L 176.533377 188.971472 
L 176.807578 189.738808 
L 177.08178 189.229262 
L 177.355981 189.357389 
L 177.904384 187.861986 
L 178.178586 189.002622 
L 178.452787 188.464863 
L 178.726989 188.759545 
L 179.275392 188.074181 
L 179.549593 187.552388 
L 179.823795 188.515434 
L 180.097996 187.482559 
L 180.372197 188.208671 
L 180.646399 188.294128 
L 180.9206 188.216891 
L 181.194802 187.922589 
L 181.469003 188.012822 
L 181.743205 187.853364 
L 182.017406 187.512304 
L 182.565809 188.52519 
L 182.840011 188.286137 
L 183.114212 188.223808 
L 183.388414 188.930585 
L 183.662615 188.287846 
L 183.936817 187.929877 
L 184.211018 188.750086 
L 184.48522 188.931987 
L 184.759421 188.828422 
L 185.033623 187.992121 
L 185.582025 188.912342 
L 186.130428 188.581938 
L 186.40463 188.857937 
L 186.678831 188.733222 
L 186.953033 188.460897 
L 187.501436 189.477394 
L 187.775637 189.028242 
L 188.049839 189.131799 
L 188.32404 188.861658 
L 188.598242 189.526858 
L 188.872443 189.535713 
L 189.420846 188.843236 
L 189.695048 188.902469 
L 189.969249 188.297058 
L 190.243451 189.54924 
L 190.517652 188.985136 
L 191.340256 189.774629 
L 191.614458 189.788429 
L 192.162861 189.519565 
L 192.437062 190.233118 
L 192.711264 189.702311 
L 192.985465 189.514199 
L 193.259667 190.08353 
L 193.533868 190.008336 
L 193.80807 189.565447 
L 194.082271 189.583096 
L 194.356473 190.037254 
L 194.630674 189.91953 
L 195.179077 190.246258 
L 195.453279 188.569576 
L 196.001682 189.990945 
L 196.275883 189.358044 
L 196.550084 189.515732 
L 196.824286 190.11674 
L 197.098487 190.121262 
L 197.372689 190.574514 
L 197.64689 190.013054 
L 198.195293 190.082704 
L 198.743696 189.159987 
L 199.017898 189.122912 
L 199.292099 190.043139 
L 199.566301 189.066995 
L 199.840502 189.494748 
L 200.114704 189.70741 
L 200.388905 189.284489 
L 200.663107 188.605509 
L 200.937308 188.988014 
L 201.21151 188.617698 
L 201.485711 189.643596 
L 201.759912 189.470632 
L 202.034114 188.767958 
L 202.582517 188.195484 
L 202.856718 189.182142 
L 203.13092 189.285755 
L 203.405121 188.604241 
L 203.679323 188.630051 
L 204.227726 189.001234 
L 204.501927 188.555197 
L 204.776129 188.711234 
L 205.05033 188.331132 
L 205.324532 188.216426 
L 205.598733 188.946966 
L 205.872935 188.868593 
L 206.147136 186.61303 
L 206.421338 187.3314 
L 206.695539 187.278921 
L 206.96974 188.626443 
L 207.518143 188.236927 
L 207.792345 189.014136 
L 208.066546 188.35781 
L 208.340748 188.732627 
L 208.614949 188.594183 
L 209.163352 187.977919 
L 209.437554 188.852699 
L 209.711755 188.838792 
L 209.985957 188.572765 
L 210.260158 187.58102 
L 210.53436 188.035673 
L 210.808561 188.068834 
L 211.082763 188.700876 
L 211.356964 188.052588 
L 211.631166 188.169167 
L 211.905367 188.687222 
L 212.179568 187.943018 
L 212.45377 188.021358 
L 212.727971 188.77915 
L 213.002173 187.496709 
L 213.276374 188.089395 
L 213.550576 188.053076 
L 213.824777 188.150853 
L 214.647382 187.922646 
L 214.921583 186.703195 
L 215.195785 187.536367 
L 215.469986 188.008924 
L 216.018389 187.626979 
L 216.292591 187.479456 
L 216.566792 187.854597 
L 216.840994 188.015779 
L 217.389396 187.371093 
L 217.937799 187.613359 
L 218.212001 187.426125 
L 218.486202 187.772992 
L 219.308807 187.031821 
L 219.583008 187.559654 
L 219.85721 187.190519 
L 220.131411 187.5633 
L 220.405613 187.427299 
L 220.679814 187.129459 
L 221.228217 187.940556 
L 221.502419 187.680124 
L 221.77662 187.68277 
L 222.050822 187.422893 
L 222.325023 187.429192 
L 222.599225 187.247293 
L 222.873426 187.229189 
L 223.147627 187.632436 
L 223.421829 187.059433 
L 223.69603 186.9121 
L 223.970232 187.470026 
L 224.244433 186.911189 
L 224.518635 186.861304 
L 225.067038 188.172784 
L 225.341239 188.13753 
L 225.615441 186.583549 
L 226.163844 187.521703 
L 226.438045 186.950001 
L 226.712247 187.320842 
L 226.986448 187.351116 
L 227.26065 187.18988 
L 227.534851 187.486731 
L 227.809053 187.064197 
L 228.083254 188.068991 
L 228.357455 187.438666 
L 228.631657 187.525588 
L 229.18006 187.064928 
L 229.454261 187.534254 
L 229.728463 186.999843 
L 230.002664 186.926129 
L 230.551067 187.337595 
L 230.825269 187.268334 
L 231.09947 187.325297 
L 231.647873 188.006475 
L 231.922075 187.257402 
L 232.196276 187.061195 
L 232.470478 187.293884 
L 232.744679 187.793211 
L 233.018881 187.372868 
L 233.293082 187.207817 
L 233.567283 187.337196 
L 233.841485 187.697688 
L 234.115686 187.695944 
L 234.664089 187.27155 
L 234.938291 187.498069 
L 235.212492 186.499071 
L 235.486694 187.45085 
L 235.760895 187.487471 
L 236.309298 187.079629 
L 236.5835 187.896338 
L 236.857701 188.090981 
L 237.131903 187.424129 
L 237.406104 187.19887 
L 237.680306 187.659776 
L 237.954507 187.411044 
L 238.228709 188.069676 
L 238.777111 187.84988 
L 239.051313 187.070756 
L 239.325514 187.950427 
L 239.873917 187.633012 
L 240.148119 188.045176 
L 240.42232 187.762842 
L 240.696522 188.078089 
L 240.970723 187.860503 
L 241.244925 187.220608 
L 241.519126 187.392386 
L 242.067529 187.36011 
L 242.341731 187.501666 
L 242.615932 187.962535 
L 242.890134 188.130643 
L 243.164335 187.961241 
L 243.438537 188.060456 
L 243.712738 187.395321 
L 243.986939 188.152944 
L 244.535342 187.777553 
L 244.809544 188.221934 
L 245.083745 188.327467 
L 245.357947 187.334414 
L 245.632148 187.575282 
L 245.90635 187.386209 
L 246.180551 187.621626 
L 246.728954 187.691807 
L 247.003156 187.598309 
L 247.277357 187.866171 
L 247.551559 188.502235 
L 247.82576 187.314569 
L 248.099962 187.493962 
L 248.374163 187.450727 
L 248.648365 187.814029 
L 248.922566 187.417195 
L 249.196768 187.974649 
L 249.74517 187.508638 
L 250.019372 187.346572 
L 250.293573 187.041069 
L 250.567775 187.641585 
L 250.841976 186.948475 
L 251.664581 187.407369 
L 251.938782 187.783451 
L 252.212984 186.782889 
L 252.487185 186.524814 
L 252.761387 187.174069 
L 253.035588 186.954514 
L 253.583991 187.170452 
L 253.858193 186.948924 
L 254.132394 187.357923 
L 254.406596 186.64722 
L 254.680797 186.591312 
L 254.954998 187.170567 
L 255.2292 186.922178 
L 255.503401 187.859855 
L 255.777603 187.608934 
L 256.051804 186.862467 
L 256.326006 187.229374 
L 256.600207 187.81697 
L 256.874409 187.636123 
L 257.14861 187.21291 
L 257.422812 187.445551 
L 257.697013 188.112018 
L 257.971215 187.574905 
L 258.245416 188.25343 
L 258.793819 187.376497 
L 259.068021 187.700975 
L 259.342222 187.308583 
L 259.890625 187.314403 
L 260.164826 186.835633 
L 260.439028 187.844397 
L 261.261632 187.208921 
L 261.535834 186.666028 
L 261.810035 187.334858 
L 262.084237 186.874302 
L 262.63264 187.869404 
L 262.906841 187.228491 
L 263.181043 187.823869 
L 263.455244 187.239268 
L 263.729446 187.020496 
L 264.003647 187.197063 
L 264.277849 187.932748 
L 264.55205 187.430735 
L 264.826252 187.394432 
L 265.100453 187.476013 
L 265.374654 187.297475 
L 265.648856 187.682553 
L 266.197259 187.372028 
L 266.47146 187.628201 
L 266.745662 186.783212 
L 267.019863 187.074856 
L 267.294065 186.839405 
L 267.568266 187.515935 
L 267.842468 187.763284 
L 268.116669 187.505691 
L 268.390871 186.969055 
L 268.665072 187.109494 
L 268.939274 187.535298 
L 269.213475 187.599074 
L 269.487677 187.05674 
L 269.761878 187.478947 
L 270.03608 186.890404 
L 270.310281 187.426476 
L 270.584482 186.929427 
L 271.132885 187.451987 
L 271.407087 187.646823 
L 271.681288 187.341754 
L 272.229691 187.365084 
L 272.503893 188.043789 
L 272.778094 187.491406 
L 273.052296 187.225406 
L 273.8749 187.781165 
L 274.149102 187.21531 
L 274.423303 187.431781 
L 274.697505 187.030991 
L 274.971706 187.667348 
L 275.245908 187.632509 
L 275.520109 187.483169 
L 275.794311 187.892397 
L 276.068512 188.030297 
L 276.342713 187.892854 
L 276.616915 187.209789 
L 276.891116 187.498252 
L 277.165318 187.144424 
L 277.439519 187.409736 
L 277.713721 187.265258 
L 277.987922 187.92355 
L 278.262124 187.202294 
L 278.536325 188.344075 
L 278.810527 187.628879 
L 279.084728 187.287634 
L 279.35893 187.250385 
L 279.633131 187.988552 
L 279.907333 187.071004 
L 280.181534 187.082474 
L 280.455736 187.294689 
L 280.729937 187.221526 
L 281.004139 187.028633 
L 281.27834 185.158508 
L 281.552541 184.299615 
L 281.826743 184.500074 
L 282.100944 185.277536 
L 282.649347 185.268716 
L 282.923549 185.015152 
L 283.19775 185.796076 
L 283.471952 185.957616 
L 283.746153 185.848003 
L 284.294556 185.892563 
L 284.842959 185.735179 
L 285.117161 186.276245 
L 285.391362 185.92426 
L 285.939765 186.411477 
L 286.213967 185.734071 
L 286.488168 185.479624 
L 286.762369 185.718253 
L 287.036571 185.690473 
L 287.310772 186.112403 
L 287.584974 186.273486 
L 287.859175 186.295534 
L 288.133377 185.989211 
L 288.407578 186.997044 
L 288.955981 186.170765 
L 289.230183 185.977352 
L 289.778586 186.875185 
L 290.052787 185.986072 
L 290.326989 185.923514 
L 290.60119 186.399051 
L 290.875392 186.190623 
L 291.149593 186.267194 
L 291.423795 186.775894 
L 291.697996 186.365425 
L 291.972197 186.908483 
L 292.246399 186.091172 
L 292.5206 185.744954 
L 292.794802 186.419137 
L 293.069003 186.485364 
L 293.343205 186.161955 
L 293.617406 186.35255 
L 294.714212 186.435734 
L 294.988414 186.270934 
L 295.262615 186.280163 
L 295.536817 186.571571 
L 296.08522 186.138949 
L 296.359421 186.467975 
L 296.633623 186.182124 
L 296.907824 186.297055 
L 297.456227 186.071706 
L 297.730428 185.619711 
L 298.00463 186.231998 
L 298.278831 186.019974 
L 298.553033 186.273818 
L 299.375637 186.389846 
L 299.649839 186.049325 
L 299.92404 186.585675 
L 300.198242 185.907984 
L 300.472443 185.839286 
L 301.020846 185.906247 
L 301.295048 186.203396 
L 301.569249 186.185789 
L 302.391854 186.534952 
L 302.666055 186.425753 
L 302.940256 187.20929 
L 303.214458 186.719798 
L 303.488659 186.52465 
L 303.762861 186.153964 
L 304.037062 186.784297 
L 304.311264 186.40804 
L 304.859667 186.201713 
L 305.133868 186.48308 
L 306.230674 186.353096 
L 306.779077 186.642501 
L 307.053279 186.526376 
L 307.32748 185.881085 
L 307.601682 185.85757 
L 308.150084 186.964825 
L 308.424286 187.053255 
L 308.698487 186.680356 
L 308.972689 186.720612 
L 309.24689 186.554846 
L 309.521092 186.154126 
L 310.069495 186.243824 
L 310.343696 186.221894 
L 310.617898 185.734358 
L 310.892099 186.339099 
L 311.166301 186.253976 
L 311.440502 186.357352 
L 311.714704 186.635677 
L 312.263107 186.401728 
L 312.537308 186.75468 
L 312.81151 186.846287 
L 313.085711 186.299263 
L 313.359912 186.117263 
L 313.634114 186.345605 
L 313.908315 186.360191 
L 314.182517 186.623006 
L 314.456718 186.388703 
L 314.73092 186.617551 
L 315.005121 186.09062 
L 315.279323 186.586596 
L 315.553524 186.190007 
L 315.827726 186.660059 
L 316.101927 186.198314 
L 316.376129 186.091641 
L 316.924532 185.492679 
L 317.472935 186.105814 
L 317.747136 186.26005 
L 318.295539 185.864112 
L 318.56974 186.417145 
L 318.843942 186.632897 
L 319.118143 185.933708 
L 319.392345 186.047637 
L 319.666546 186.288551 
L 319.940748 185.935597 
L 320.214949 186.265923 
L 320.489151 185.779064 
L 320.763352 186.225575 
L 321.037554 186.262343 
L 321.311755 186.175022 
L 321.860158 186.227135 
L 322.13436 186.45161 
L 322.408561 185.973284 
L 322.682763 186.244271 
L 322.956964 186.168642 
L 323.231166 185.807737 
L 323.505367 185.955103 
L 323.779568 185.719193 
L 324.05377 185.649423 
L 324.327971 185.813152 
L 324.602173 185.62288 
L 324.876374 185.698558 
L 325.150576 186.135217 
L 325.424777 186.148878 
L 325.698979 185.919774 
L 325.97318 186.061994 
L 326.247382 185.963711 
L 326.521583 186.235315 
L 327.618389 185.818094 
L 327.892591 185.097689 
L 328.166792 185.180212 
L 328.440994 185.592678 
L 328.989396 185.40739 
L 329.263598 185.814178 
L 329.537799 185.288091 
L 329.812001 185.297282 
L 330.360404 186.011659 
L 330.634605 185.750687 
L 330.908807 185.921088 
L 331.45721 185.553697 
L 331.731411 185.815104 
L 332.005613 186.233264 
L 332.279814 186.316116 
L 332.554016 186.106491 
L 332.828217 186.302507 
L 333.37662 186.116011 
L 333.650822 186.737963 
L 333.925023 186.254033 
L 334.199225 186.364181 
L 334.473426 186.005004 
L 335.29603 185.818936 
L 335.570232 186.107107 
L 336.118635 186.203682 
L 336.392836 185.955973 
L 336.667038 186.32537 
L 336.941239 185.95286 
L 337.215441 186.028157 
L 337.489642 185.742714 
L 337.763844 185.72313 
L 338.038045 186.013151 
L 338.586448 185.709862 
L 339.134851 185.929628 
L 339.409053 185.404373 
L 339.683254 185.736935 
L 339.957455 186.478309 
L 340.231657 185.97255 
L 340.505858 186.223972 
L 340.78006 185.852485 
L 341.328463 186.277131 
L 341.602664 186.02464 
L 341.876866 186.005793 
L 342.151067 185.790291 
L 342.425269 185.379349 
L 342.69947 185.745231 
L 343.247873 185.577989 
L 343.522075 185.490213 
L 343.796276 185.71399 
L 344.070478 185.547125 
L 344.344679 186.376341 
L 344.618881 185.685145 
L 344.893082 185.437634 
L 345.167283 185.782203 
L 345.441485 185.450856 
L 345.715686 185.439633 
L 346.264089 185.955089 
L 346.538291 185.591906 
L 347.086694 185.952991 
L 347.360895 185.654438 
L 347.635097 185.861792 
L 347.909298 185.674963 
L 348.1835 185.971651 
L 348.457701 186.050419 
L 348.731903 185.671561 
L 349.006104 185.714797 
L 349.280306 185.910593 
L 349.554507 185.816853 
L 349.828709 185.941182 
L 350.10291 185.56361 
L 350.377111 185.856095 
L 350.651313 185.937247 
L 350.925514 185.525211 
L 351.473917 185.502809 
L 351.748119 185.799641 
L 352.02232 185.316523 
L 352.296522 185.723265 
L 352.570723 185.748763 
L 352.844925 185.469673 
L 353.119126 186.073279 
L 353.393328 185.85243 
L 353.667529 186.304317 
L 353.941731 185.806278 
L 354.215932 185.647092 
L 354.490134 185.774718 
L 354.764335 185.772281 
L 355.038537 185.331673 
L 355.312738 185.665762 
L 355.586939 185.342823 
L 356.409544 186.082109 
L 356.683745 186.089877 
L 356.957947 184.787684 
L 357.232148 185.59565 
L 357.780551 185.976348 
L 358.054753 185.979838 
L 358.328954 185.464481 
L 358.877357 185.766317 
L 359.151559 185.304157 
L 359.42576 185.241858 
L 359.699962 185.630348 
L 360.248365 185.863152 
L 360.522566 185.674776 
L 360.796768 185.842227 
L 361.070969 185.839063 
L 361.34517 185.343559 
L 361.893573 185.748516 
L 362.167775 185.667737 
L 362.441976 185.860776 
L 362.716178 185.722093 
L 362.990379 185.396313 
L 363.538782 185.501576 
L 363.812984 185.122117 
L 364.087185 185.89944 
L 364.361387 185.378716 
L 364.635588 185.717443 
L 364.90979 185.3795 
L 365.183991 185.614582 
L 365.732394 185.826792 
L 366.006596 185.921637 
L 366.554998 185.273631 
L 366.8292 185.393312 
L 367.103401 185.974657 
L 367.377603 184.983217 
L 367.926006 185.771134 
L 368.200207 185.812377 
L 368.474409 185.487687 
L 369.022812 185.658713 
L 369.571215 185.208361 
L 369.845416 185.581589 
L 370.119618 185.215886 
L 370.393819 185.230168 
L 370.942222 184.996668 
L 371.490625 185.660728 
L 371.764826 185.400554 
L 372.039028 185.493324 
L 372.587431 185.242921 
L 372.861632 185.382258 
L 373.135834 185.666778 
L 373.684237 185.047268 
L 374.23264 185.643121 
L 374.506841 185.291113 
L 374.781043 185.600169 
L 375.055244 185.163958 
L 375.329446 185.262357 
L 375.603647 185.641168 
L 375.877849 185.21704 
L 376.15205 185.502371 
L 376.426252 185.237078 
L 376.700453 185.503319 
L 376.974654 184.951404 
L 377.248856 185.278299 
L 377.523057 185.06473 
L 377.797259 185.618755 
L 378.619863 184.901788 
L 378.894065 185.055061 
L 379.168266 185.341415 
L 379.442468 185.35212 
L 379.716669 185.230386 
L 379.990871 185.557566 
L 380.265072 185.138828 
L 380.813475 185.212811 
L 381.087677 185.110931 
L 381.361878 184.766846 
L 381.63608 185.098531 
L 381.910281 184.858957 
L 382.184482 185.366991 
L 382.458684 184.832966 
L 382.732885 185.304899 
L 383.007087 185.348768 
L 383.281288 185.019933 
L 383.55549 184.066157 
L 383.829691 184.953365 
L 384.103893 185.029033 
L 384.378094 184.580125 
L 384.926497 184.812666 
L 385.200699 185.011276 
L 385.4749 185.488328 
L 385.749102 184.839575 
L 386.297505 185.46906 
L 386.845908 184.708155 
L 387.120109 184.612363 
L 387.394311 185.073962 
L 387.668512 185.00207 
L 387.942713 184.667401 
L 388.216915 185.660946 
L 388.491116 185.387543 
L 389.039519 184.554148 
L 389.862124 184.994997 
L 390.136325 184.615874 
L 390.684728 185.217749 
L 390.95893 184.890171 
L 391.233131 185.107049 
L 391.507333 184.634478 
L 392.604139 185.260286 
L 392.87834 184.963435 
L 393.152541 185.088686 
L 393.426743 184.95617 
L 393.700944 185.05309 
L 393.975146 185.289761 
L 394.249347 185.137012 
L 394.523549 185.338344 
L 395.071952 184.990153 
L 395.894556 185.089635 
L 396.168758 185.092262 
L 396.442959 184.908988 
L 396.717161 184.89784 
L 396.991362 185.154122 
L 397.265564 185.214908 
L 397.539765 185.076644 
L 397.813967 185.285548 
L 398.088168 185.064083 
L 398.362369 185.229144 
L 398.636571 184.883728 
L 398.910772 184.752453 
L 399.184974 185.124473 
L 399.459175 184.638999 
L 399.733377 184.873653 
L 400.007578 185.464575 
L 400.555981 185.282802 
L 400.830183 185.285787 
L 401.104384 185.473608 
L 401.378586 184.54076 
L 401.926989 185.16694 
L 402.20119 184.770681 
L 402.475392 184.939562 
L 402.749593 184.880314 
L 403.023795 185.155055 
L 403.297996 184.841595 
L 403.572197 185.55881 
L 403.846399 185.067812 
L 404.1206 184.951094 
L 404.394802 185.066114 
L 404.669003 184.687902 
L 404.943205 184.900511 
L 405.217406 184.912242 
L 405.491608 184.660179 
L 406.040011 184.620449 
L 406.314212 184.937311 
L 406.588414 184.615958 
L 407.136817 184.961336 
L 407.68522 184.537369 
L 408.507824 184.902272 
L 408.782025 185.005211 
L 409.056227 184.782223 
L 409.330428 184.413976 
L 409.60463 184.733595 
L 410.153033 184.808739 
L 410.427234 185.145023 
L 410.701436 184.699711 
L 410.975637 184.865599 
L 411.249839 184.612051 
L 411.52404 185.049187 
L 412.072443 185.289952 
L 412.346645 184.809121 
L 412.620846 185.01908 
L 412.895048 184.829658 
L 413.169249 184.945658 
L 413.717652 184.921307 
L 413.991854 185.744583 
L 414.266055 185.289857 
L 415.088659 185.204668 
L 415.362861 185.02375 
L 415.637062 185.851191 
L 415.911264 185.202026 
L 416.185465 185.299428 
L 416.459667 185.258903 
L 416.733868 185.765713 
L 417.00807 185.017931 
L 417.282271 185.223402 
L 417.556473 184.843359 
L 417.830674 185.161111 
L 418.104876 184.758296 
L 418.379077 184.801805 
L 418.653279 185.203225 
L 418.92748 184.830448 
L 419.201682 185.276529 
L 419.475883 185.156063 
L 419.750084 185.401703 
L 420.024286 185.368559 
L 420.298487 185.039974 
L 420.572689 185.364377 
L 420.84689 185.372773 
L 421.121092 185.124982 
L 421.943696 185.338046 
L 422.217898 185.160352 
L 422.492099 185.622062 
L 422.766301 185.638071 
L 423.040502 184.985756 
L 423.314704 185.545884 
L 423.588905 185.73752 
L 423.863107 185.255421 
L 424.41151 185.100956 
L 424.685711 185.390662 
L 425.234114 185.383446 
L 425.508315 185.138582 
L 425.782517 185.081053 
L 426.056718 185.36929 
L 426.33092 185.155861 
L 426.605121 185.25123 
L 427.153524 184.964765 
L 427.427726 184.843631 
L 427.701927 185.11617 
L 427.976129 184.955133 
L 428.25033 185.018476 
L 428.524532 184.872595 
L 428.798733 185.073209 
L 429.072935 184.859193 
L 429.347136 185.007464 
L 429.621338 184.919116 
L 429.895539 185.160708 
L 430.443942 184.992052 
L 430.718143 185.448633 
L 430.992345 185.129941 
L 431.266546 185.317515 
L 431.540748 185.290708 
L 431.814949 184.780939 
L 432.089151 180.036991 
L 432.363352 182.56178 
L 432.637554 183.98074 
L 432.911755 183.608499 
L 433.185957 183.802444 
L 433.460158 182.828187 
L 433.73436 183.003421 
L 434.008561 182.664868 
L 434.282763 182.660828 
L 434.556964 182.797474 
L 435.105367 182.332724 
L 435.379568 182.871875 
L 435.65377 182.77053 
L 435.927971 182.828017 
L 436.202173 183.259699 
L 436.476374 183.433791 
L 436.750576 183.009316 
L 437.57318 183.394681 
L 437.847382 183.724366 
L 438.395785 183.204305 
L 438.669986 183.679701 
L 439.218389 183.20975 
L 439.492591 183.655039 
L 439.766792 183.597079 
L 440.040994 183.933037 
L 440.589396 183.312294 
L 440.863598 183.714128 
L 441.137799 183.471159 
L 441.412001 183.50005 
L 441.960404 184.314002 
L 442.234605 183.612529 
L 442.508807 183.560315 
L 443.05721 183.656162 
L 443.331411 183.468498 
L 443.605613 183.717202 
L 443.879814 184.223634 
L 444.154016 183.773258 
L 444.428217 183.63697 
L 444.97662 184.015264 
L 445.525023 183.788114 
L 445.799225 183.96905 
L 446.073426 183.494329 
L 446.347627 183.749704 
L 446.621829 183.728994 
L 446.89603 183.879491 
L 447.444433 183.43429 
L 447.992836 183.806607 
L 448.267038 183.222694 
L 448.541239 183.761326 
L 448.815441 183.553487 
L 449.089642 183.785491 
L 449.912247 183.709997 
L 450.186448 183.463813 
L 450.46065 183.723789 
L 450.734851 183.340668 
L 451.009053 183.923346 
L 451.283254 183.457319 
L 451.557455 183.66021 
L 452.105858 183.269472 
L 452.928463 183.935596 
L 453.202664 183.566451 
L 453.751067 183.387112 
L 454.025269 183.70615 
L 454.29947 183.314692 
L 454.573672 183.848061 
L 454.847873 183.628863 
L 455.122075 183.181817 
L 455.396276 183.388481 
L 455.670478 183.744475 
L 455.944679 183.755057 
L 456.218881 183.646553 
L 456.767283 183.873659 
L 457.041485 183.949715 
L 457.315686 183.213537 
L 457.589888 183.281806 
L 457.864089 183.690155 
L 458.138291 183.578216 
L 458.412492 183.856638 
L 458.686694 183.406458 
L 458.960895 183.567542 
L 459.235097 184.027791 
L 459.509298 183.50691 
L 459.7835 183.562667 
L 460.057701 183.266677 
L 460.331903 183.180689 
L 460.606104 183.610598 
L 460.880306 183.30321 
L 461.154507 183.695 
L 461.428709 183.035239 
L 461.70291 183.881584 
L 461.977111 183.475687 
L 462.251313 183.371651 
L 462.799716 183.993367 
L 463.073917 183.741462 
L 463.348119 183.815634 
L 463.62232 183.339237 
L 464.170723 183.644082 
L 464.444925 183.348002 
L 464.719126 183.473453 
L 464.993328 184.147805 
L 465.267529 184.015953 
L 465.541731 183.542469 
L 465.815932 183.331938 
L 466.090134 183.69612 
L 466.364335 183.159634 
L 466.638537 183.464488 
L 467.186939 183.428491 
L 467.461141 183.274972 
L 467.735342 183.374157 
L 468.009544 183.116363 
L 468.557947 183.699039 
L 468.832148 183.354238 
L 469.10635 183.542265 
L 469.380551 183.262553 
L 469.654753 183.595958 
L 469.928954 183.61165 
L 470.203156 183.447239 
L 470.477357 183.742063 
L 470.751559 183.720341 
L 471.02576 183.845882 
L 471.299962 183.254979 
L 472.122566 183.287191 
L 472.396768 183.187968 
L 472.670969 183.636825 
L 472.94517 183.267348 
L 473.219372 183.562088 
L 473.493573 183.502068 
L 473.767775 183.297027 
L 474.041976 183.322349 
L 474.590379 183.551254 
L 475.138782 183.350554 
L 475.412984 183.603973 
L 475.687185 183.098763 
L 475.961387 183.042062 
L 476.50979 183.669447 
L 477.058193 183.401992 
L 477.332394 184.102038 
L 477.606596 183.599398 
L 477.880797 183.645449 
L 478.154998 183.565669 
L 478.4292 183.804148 
L 479.251804 183.269829 
L 479.526006 183.606135 
L 479.800207 183.452829 
L 480.34861 183.393455 
L 480.622812 183.82691 
L 480.897013 183.346234 
L 481.171215 183.577972 
L 481.445416 183.587448 
L 481.719618 183.423884 
L 481.993819 183.627187 
L 482.268021 183.393281 
L 482.542222 183.65609 
L 482.816424 183.515589 
L 483.090625 183.626813 
L 483.364826 183.311961 
L 483.913229 183.426901 
L 484.187431 182.992038 
L 484.461632 183.071403 
L 484.735834 183.401835 
L 485.010035 183.497815 
L 485.284237 182.924655 
L 485.83264 183.498596 
L 486.655244 183.323552 
L 486.929446 183.129153 
L 487.203647 183.42482 
L 487.477849 183.361321 
L 487.75205 183.086464 
L 488.026252 183.136548 
L 488.300453 183.505101 
L 488.574654 183.340691 
L 488.848856 183.484262 
L 489.397259 183.184531 
L 490.219863 183.449026 
L 490.494065 183.20795 
L 490.768266 183.7038 
L 491.590871 183.531942 
L 491.865072 183.258673 
L 492.139274 183.441936 
L 492.413475 183.444441 
L 492.687677 183.565086 
L 492.961878 183.165658 
L 493.784482 183.152049 
L 494.332885 183.107586 
L 494.607087 183.384105 
L 494.881288 182.973842 
L 495.429691 183.76319 
L 495.703893 183.343807 
L 497.0749 183.465705 
L 497.349102 183.712417 
L 497.623303 183.657732 
L 498.171706 182.70531 
L 498.720109 182.429954 
L 498.994311 182.483317 
L 499.542713 183.320078 
L 500.913721 183.022061 
L 501.187922 183.386519 
L 501.736325 183.217535 
L 502.010527 183.623722 
L 502.55893 183.171696 
L 502.833131 183.117825 
L 503.381534 182.617823 
L 503.655736 182.696155 
L 503.929937 183.076463 
L 504.204139 182.911318 
L 505.026743 183.206343 
L 505.300944 183.036375 
L 506.39775 183.149778 
L 506.671952 183.497997 
L 506.946153 183.001253 
L 507.220355 183.099563 
L 507.494556 183.583056 
L 507.768758 183.160004 
L 508.042959 183.020948 
L 508.865564 183.323396 
L 509.413967 183.041196 
L 509.688168 182.915704 
L 509.962369 183.015766 
L 510.236571 183.420561 
L 510.510772 183.533616 
L 511.059175 183.097874 
L 511.333377 182.773374 
L 511.607578 183.516329 
L 511.88178 183.154724 
L 512.430183 183.158788 
L 512.704384 183.348349 
L 512.978586 183.348833 
L 513.526989 182.961896 
L 514.623795 182.441261 
L 514.897996 182.6167 
L 515.172197 182.979482 
L 515.446399 182.662028 
L 515.7206 182.768526 
L 515.994802 182.613882 
L 516.543205 182.998654 
L 516.817406 182.612261 
L 517.091608 182.699188 
L 517.365809 182.393298 
L 517.640011 182.697021 
L 517.914212 182.712989 
L 518.188414 182.328841 
L 518.462615 182.816708 
L 518.736817 182.572083 
L 519.011018 182.978271 
L 519.28522 182.550365 
L 519.559421 182.777252 
L 520.107824 182.417953 
L 520.656227 182.714185 
L 520.930428 182.668187 
L 521.20463 182.787581 
L 521.478831 182.287962 
L 522.027234 182.519827 
L 522.301436 182.318817 
L 522.849839 182.312334 
L 523.12404 182.567052 
L 523.398242 182.527408 
L 523.672443 182.806326 
L 523.946645 182.503238 
L 524.220846 182.48821 
L 524.495048 182.612087 
L 524.769249 182.385311 
L 525.317652 182.601009 
L 525.866055 182.125806 
L 526.140256 182.645717 
L 526.414458 182.411736 
L 527.237062 182.298394 
L 527.511264 182.866667 
L 528.059667 182.75749 
L 528.333868 182.557725 
L 528.60807 182.603123 
L 529.156473 182.270885 
L 529.430674 181.964599 
L 529.704876 182.22335 
L 530.253279 181.776029 
L 530.801682 182.3505 
L 531.075883 182.340268 
L 531.350084 182.520741 
L 531.898487 182.523605 
L 532.172689 182.238641 
L 532.44689 182.277821 
L 532.721092 182.4905 
L 532.995293 182.156534 
L 533.543696 182.384129 
L 534.092099 182.054566 
L 534.366301 182.066737 
L 534.640502 182.388662 
L 534.914704 182.498932 
L 535.188905 182.183845 
L 535.463107 182.322671 
L 535.737308 182.211071 
L 536.01151 182.422352 
L 536.285711 182.48971 
L 536.559912 182.729717 
L 536.834114 182.393239 
L 537.382517 182.735363 
L 537.656718 182.327999 
L 537.93092 182.338891 
L 538.479323 182.599993 
L 538.753524 182.466046 
L 539.027726 182.69844 
L 539.301927 182.38232 
L 539.576129 182.442558 
L 539.85033 182.362258 
L 540.124532 182.586701 
L 540.672935 182.419876 
L 540.947136 182.295667 
L 541.221338 182.456317 
L 541.495539 182.461302 
L 541.76974 182.224138 
L 542.318143 182.186657 
L 542.866546 182.622206 
L 543.140748 182.367919 
L 544.237554 182.174806 
L 544.511755 182.346741 
L 545.060158 182.330894 
L 545.608561 182.340062 
L 545.882763 182.131605 
L 546.431166 182.46111 
L 546.705367 182.411937 
L 546.979568 182.212611 
L 547.527971 182.477282 
L 548.076374 182.283253 
L 548.624777 182.504761 
L 548.898979 182.056743 
L 549.721583 182.046057 
L 549.995785 181.847828 
L 550.544188 182.310119 
L 550.818389 182.038079 
L 551.092591 182.276506 
L 551.366792 182.738705 
L 551.915195 182.299761 
L 552.189396 182.571966 
L 552.463598 182.000154 
L 553.012001 182.251631 
L 553.286202 182.082969 
L 553.560404 182.140549 
L 553.834605 182.341278 
L 554.931411 182.329414 
L 556.028217 182.35191 
L 556.57662 182.309092 
L 556.850822 182.350223 
L 557.125023 182.256163 
L 557.399225 182.347059 
L 557.673426 182.157633 
L 557.947627 182.385586 
L 558.221829 182.384132 
L 558.49603 182.504546 
L 558.770232 182.249162 
L 559.592836 182.184146 
L 559.867038 182.330889 
L 560.141239 181.942761 
L 560.415441 182.094773 
L 560.689642 182.39769 
L 560.963844 182.184823 
L 561.238045 182.122614 
L 561.786448 182.354128 
L 562.06065 182.159576 
L 562.883254 182.071083 
L 563.157455 182.330678 
L 564.528463 182.091639 
L 564.802664 182.392439 
L 565.076866 182.28186 
L 565.625269 182.305347 
L 565.89947 182.166866 
L 566.447873 182.459293 
L 566.996276 182.478516 
L 567.270478 182.664681 
L 567.544679 182.309044 
L 567.818881 182.751354 
L 568.367283 182.38066 
L 568.915686 182.767456 
L 569.464089 182.559118 
L 569.738291 182.58821 
L 570.012492 182.203366 
L 570.286694 182.269519 
L 570.560895 182.672369 
L 570.835097 182.194848 
L 571.109298 182.355663 
L 572.206104 182.283822 
L 572.480306 182.535192 
L 572.754507 182.240762 
L 573.30291 182.326357 
L 573.577111 182.213775 
L 573.851313 182.643433 
L 574.125514 182.149178 
L 574.399716 182.315982 
L 574.673917 182.266031 
L 574.948119 182.393188 
L 575.22232 182.152417 
L 575.496522 182.272767 
L 576.044925 182.298863 
L 576.319126 182.684431 
L 576.593328 182.262631 
L 576.867529 182.394064 
L 577.141731 182.207273 
L 577.415932 182.184849 
L 577.690134 182.429083 
L 577.964335 182.163767 
L 579.335342 182.305717 
L 579.609544 182.230983 
L 579.883745 182.546988 
L 580.157947 182.26587 
L 580.70635 182.359449 
L 580.980551 182.636811 
L 581.254753 182.176751 
L 581.528954 182.517018 
L 581.803156 182.330393 
L 582.077357 182.443774 
L 582.351559 182.14642 
L 582.899962 182.399277 
L 583.174163 181.964021 
L 584.270969 182.053783 
L 584.54517 182.450467 
L 585.093573 181.833146 
L 585.367775 182.25715 
L 585.641976 182.037174 
L 585.916178 182.113034 
L 586.190379 181.986759 
L 586.738782 182.332728 
L 587.012984 182.119482 
L 587.287185 181.758075 
L 588.10979 182.655678 
L 588.658193 182.319435 
L 589.206596 181.935206 
L 589.480797 182.013737 
L 589.754998 182.288837 
L 590.303401 182.160295 
L 590.851804 181.891785 
L 591.400207 182.0306 
L 591.674409 181.925614 
L 592.222812 182.046479 
L 592.771215 182.059735 
L 593.593819 182.188095 
L 593.868021 182.65131 
L 594.142222 182.19252 
L 594.416424 182.516961 
L 594.690625 182.632907 
L 594.964826 182.212735 
L 595.239028 182.231731 
L 595.513229 182.42514 
L 595.787431 182.438277 
L 596.061632 182.207937 
L 596.884237 182.191734 
L 597.158438 182.003203 
L 597.43264 182.177258 
L 597.981043 182.261426 
L 598.255244 182.033008 
L 598.529446 181.975198 
L 599.077849 182.308359 
L 599.900453 182.79928 
L 600.174654 182.879149 
L 600.723057 182.526982 
L 600.997259 182.701059 
L 601.545662 182.457266 
L 602.368266 182.030523 
L 602.916669 182.326733 
L 603.190871 182.133712 
L 603.465072 182.415534 
L 604.013475 182.175065 
L 604.287677 182.311002 
L 604.561878 182.264421 
L 605.110281 182.491615 
L 605.384482 182.280444 
L 605.658684 182.649942 
L 605.932885 182.137365 
L 606.207087 182.341957 
L 606.481288 182.343052 
L 606.75549 182.110635 
L 607.029691 182.045178 
L 607.303893 182.275203 
L 607.578094 182.121103 
L 608.126497 182.310687 
L 608.400699 182.228913 
L 608.6749 182.342465 
L 609.497505 181.98579 
L 610.045908 182.25031 
L 610.320109 182.087961 
L 610.594311 182.590542 
L 610.868512 182.497836 
L 611.142713 182.615811 
L 611.691116 182.340378 
L 611.965318 181.867996 
L 612.239519 182.209611 
L 612.513721 182.042645 
L 612.787922 182.03428 
L 613.062124 182.26937 
L 613.336325 182.266108 
L 613.610527 182.091573 
L 613.884728 182.170495 
L 614.15893 182.080177 
L 614.433131 182.455622 
L 614.707333 182.404727 
L 614.981534 182.098309 
L 615.255736 182.258843 
L 616.07834 182.15583 
L 616.626743 182.281279 
L 616.900944 182.238294 
L 617.175146 182.513017 
L 617.449347 182.432162 
L 617.723549 182.480448 
L 617.99775 182.055357 
L 618.271952 182.427247 
L 618.546153 182.367624 
L 618.820355 182.170449 
L 619.094556 182.164937 
L 619.368758 182.286803 
L 619.642959 181.979428 
L 619.917161 182.117189 
L 620.465564 182.047412 
L 620.739765 182.648446 
L 621.013967 182.327954 
L 621.562369 182.094653 
L 621.836571 182.233806 
L 622.110772 182.028468 
L 622.384974 182.515734 
L 622.659175 182.488112 
L 622.933377 182.318317 
L 623.207578 182.447288 
L 623.48178 182.778623 
L 623.755981 182.678325 
L 624.304384 182.132005 
L 624.578586 182.12149 
L 625.126989 182.409117 
L 625.126989 182.409117 
" clip-path="url(#pde2628cf1d)" style="fill: none; stroke: #ff7f0e; stroke-width: 1.5; stroke-linecap: square"/>
   </g>
   <g id="patch_3">
    <path d="M 92.490625 308.63625 
L 92.490625 31.43625 
" style="fill: none; stroke: #000000; stroke-width: 0.8; stroke-linejoin: miter; stroke-linecap: square"/>
   </g>
   <g id="patch_4">
    <path d="M 650.490625 308.63625 
L 650.490625 31.43625 
" style="fill: none; stroke: #000000; stroke-width: 0.8; stroke-linejoin: miter; stroke-linecap: square"/>
   </g>
   <g id="patch_5">
    <path d="M 92.490625 308.63625 
L 650.490625 308.63625 
" style="fill: none; stroke: #000000; stroke-width: 0.8; stroke-linejoin: miter; stroke-linecap: square"/>
   </g>
   <g id="patch_6">
    <path d="M 92.490625 31.43625 
L 650.490625 31.43625 
" style="fill: none; stroke: #000000; stroke-width: 0.8; stroke-linejoin: miter; stroke-linecap: square"/>
   </g>
   <g id="text_16">
    <!-- Generator and Discriminator Loss During Training -->
    <g transform="translate(74.258125 25.43625) scale(0.24 -0.24)">
     <defs>
      <path id="DejaVuSans-47" d="M 3809 666 
L 3809 1919 
L 2778 1919 
L 2778 2438 
L 4434 2438 
L 4434 434 
Q 4069 175 3628 42 
Q 3188 -91 2688 -91 
Q 1594 -91 976 548 
Q 359 1188 359 2328 
Q 359 3472 976 4111 
Q 1594 4750 2688 4750 
Q 3144 4750 3555 4637 
Q 3966 4525 4313 4306 
L 4313 3634 
Q 3963 3931 3569 4081 
Q 3175 4231 2741 4231 
Q 1884 4231 1454 3753 
Q 1025 3275 1025 2328 
Q 1025 1384 1454 906 
Q 1884 428 2741 428 
Q 3075 428 3337 486 
Q 3600 544 3809 666 
z
" transform="scale(0.015625)"/>
      <path id="DejaVuSans-20" transform="scale(0.015625)"/>
      <path id="DejaVuSans-64" d="M 2906 2969 
L 2906 4863 
L 3481 4863 
L 3481 0 
L 2906 0 
L 2906 525 
Q 2725 213 2448 61 
Q 2172 -91 1784 -91 
Q 1150 -91 751 415 
Q 353 922 353 1747 
Q 353 2572 751 3078 
Q 1150 3584 1784 3584 
Q 2172 3584 2448 3432 
Q 2725 3281 2906 2969 
z
M 947 1747 
Q 947 1113 1208 752 
Q 1469 391 1925 391 
Q 2381 391 2643 752 
Q 2906 1113 2906 1747 
Q 2906 2381 2643 2742 
Q 2381 3103 1925 3103 
Q 1469 3103 1208 2742 
Q 947 2381 947 1747 
z
" transform="scale(0.015625)"/>
      <path id="DejaVuSans-44" d="M 1259 4147 
L 1259 519 
L 2022 519 
Q 2988 519 3436 956 
Q 3884 1394 3884 2338 
Q 3884 3275 3436 3711 
Q 2988 4147 2022 4147 
L 1259 4147 
z
M 628 4666 
L 1925 4666 
Q 3281 4666 3915 4102 
Q 4550 3538 4550 2338 
Q 4550 1131 3912 565 
Q 3275 0 1925 0 
L 628 0 
L 628 4666 
z
" transform="scale(0.015625)"/>
      <path id="DejaVuSans-63" d="M 3122 3366 
L 3122 2828 
Q 2878 2963 2633 3030 
Q 2388 3097 2138 3097 
Q 1578 3097 1268 2742 
Q 959 2388 959 1747 
Q 959 1106 1268 751 
Q 1578 397 2138 397 
Q 2388 397 2633 464 
Q 2878 531 3122 666 
L 3122 134 
Q 2881 22 2623 -34 
Q 2366 -91 2075 -91 
Q 1284 -91 818 406 
Q 353 903 353 1747 
Q 353 2603 823 3093 
Q 1294 3584 2113 3584 
Q 2378 3584 2631 3529 
Q 2884 3475 3122 3366 
z
" transform="scale(0.015625)"/>
      <path id="DejaVuSans-6d" d="M 3328 2828 
Q 3544 3216 3844 3400 
Q 4144 3584 4550 3584 
Q 5097 3584 5394 3201 
Q 5691 2819 5691 2113 
L 5691 0 
L 5113 0 
L 5113 2094 
Q 5113 2597 4934 2840 
Q 4756 3084 4391 3084 
Q 3944 3084 3684 2787 
Q 3425 2491 3425 1978 
L 3425 0 
L 2847 0 
L 2847 2094 
Q 2847 2600 2669 2842 
Q 2491 3084 2119 3084 
Q 1678 3084 1418 2786 
Q 1159 2488 1159 1978 
L 1159 0 
L 581 0 
L 581 3500 
L 1159 3500 
L 1159 2956 
Q 1356 3278 1631 3431 
Q 1906 3584 2284 3584 
Q 2666 3584 2933 3390 
Q 3200 3197 3328 2828 
z
" transform="scale(0.015625)"/>
      <path id="DejaVuSans-75" d="M 544 1381 
L 544 3500 
L 1119 3500 
L 1119 1403 
Q 1119 906 1312 657 
Q 1506 409 1894 409 
Q 2359 409 2629 706 
Q 2900 1003 2900 1516 
L 2900 3500 
L 3475 3500 
L 3475 0 
L 2900 0 
L 2900 538 
Q 2691 219 2414 64 
Q 2138 -91 1772 -91 
Q 1169 -91 856 284 
Q 544 659 544 1381 
z
M 1991 3584 
L 1991 3584 
z
" transform="scale(0.015625)"/>
      <path id="DejaVuSans-67" d="M 2906 1791 
Q 2906 2416 2648 2759 
Q 2391 3103 1925 3103 
Q 1463 3103 1205 2759 
Q 947 2416 947 1791 
Q 947 1169 1205 825 
Q 1463 481 1925 481 
Q 2391 481 2648 825 
Q 2906 1169 2906 1791 
z
M 3481 434 
Q 3481 -459 3084 -895 
Q 2688 -1331 1869 -1331 
Q 1566 -1331 1297 -1286 
Q 1028 -1241 775 -1147 
L 775 -588 
Q 1028 -725 1275 -790 
Q 1522 -856 1778 -856 
Q 2344 -856 2625 -561 
Q 2906 -266 2906 331 
L 2906 616 
Q 2728 306 2450 153 
Q 2172 0 1784 0 
Q 1141 0 747 490 
Q 353 981 353 1791 
Q 353 2603 747 3093 
Q 1141 3584 1784 3584 
Q 2172 3584 2450 3431 
Q 2728 3278 2906 2969 
L 2906 3500 
L 3481 3500 
L 3481 434 
z
" transform="scale(0.015625)"/>
      <path id="DejaVuSans-54" d="M -19 4666 
L 3928 4666 
L 3928 4134 
L 2272 4134 
L 2272 0 
L 1638 0 
L 1638 4134 
L -19 4134 
L -19 4666 
z
" transform="scale(0.015625)"/>
     </defs>
     <use xlink:href="#DejaVuSans-47"/>
     <use xlink:href="#DejaVuSans-65" x="77.490234"/>
     <use xlink:href="#DejaVuSans-6e" x="139.013672"/>
     <use xlink:href="#DejaVuSans-65" x="202.392578"/>
     <use xlink:href="#DejaVuSans-72" x="263.916016"/>
     <use xlink:href="#DejaVuSans-61" x="305.029297"/>
     <use xlink:href="#DejaVuSans-74" x="366.308594"/>
     <use xlink:href="#DejaVuSans-6f" x="405.517578"/>
     <use xlink:href="#DejaVuSans-72" x="466.699219"/>
     <use xlink:href="#DejaVuSans-20" x="507.8125"/>
     <use xlink:href="#DejaVuSans-61" x="539.599609"/>
     <use xlink:href="#DejaVuSans-6e" x="600.878906"/>
     <use xlink:href="#DejaVuSans-64" x="664.257812"/>
     <use xlink:href="#DejaVuSans-20" x="727.734375"/>
     <use xlink:href="#DejaVuSans-44" x="759.521484"/>
     <use xlink:href="#DejaVuSans-69" x="836.523438"/>
     <use xlink:href="#DejaVuSans-73" x="864.306641"/>
     <use xlink:href="#DejaVuSans-63" x="916.40625"/>
     <use xlink:href="#DejaVuSans-72" x="971.386719"/>
     <use xlink:href="#DejaVuSans-69" x="1012.5"/>
     <use xlink:href="#DejaVuSans-6d" x="1040.283203"/>
     <use xlink:href="#DejaVuSans-69" x="1137.695312"/>
     <use xlink:href="#DejaVuSans-6e" x="1165.478516"/>
     <use xlink:href="#DejaVuSans-61" x="1228.857422"/>
     <use xlink:href="#DejaVuSans-74" x="1290.136719"/>
     <use xlink:href="#DejaVuSans-6f" x="1329.345703"/>
     <use xlink:href="#DejaVuSans-72" x="1390.527344"/>
     <use xlink:href="#DejaVuSans-20" x="1431.640625"/>
     <use xlink:href="#DejaVuSans-4c" x="1463.427734"/>
     <use xlink:href="#DejaVuSans-6f" x="1517.390625"/>
     <use xlink:href="#DejaVuSans-73" x="1578.572266"/>
     <use xlink:href="#DejaVuSans-73" x="1630.671875"/>
     <use xlink:href="#DejaVuSans-20" x="1682.771484"/>
     <use xlink:href="#DejaVuSans-44" x="1714.558594"/>
     <use xlink:href="#DejaVuSans-75" x="1791.560547"/>
     <use xlink:href="#DejaVuSans-72" x="1854.939453"/>
     <use xlink:href="#DejaVuSans-69" x="1896.052734"/>
     <use xlink:href="#DejaVuSans-6e" x="1923.835938"/>
     <use xlink:href="#DejaVuSans-67" x="1987.214844"/>
     <use xlink:href="#DejaVuSans-20" x="2050.691406"/>
     <use xlink:href="#DejaVuSans-54" x="2082.478516"/>
     <use xlink:href="#DejaVuSans-72" x="2128.8125"/>
     <use xlink:href="#DejaVuSans-61" x="2169.925781"/>
     <use xlink:href="#DejaVuSans-69" x="2231.205078"/>
     <use xlink:href="#DejaVuSans-6e" x="2258.988281"/>
     <use xlink:href="#DejaVuSans-69" x="2322.367188"/>
     <use xlink:href="#DejaVuSans-6e" x="2350.150391"/>
     <use xlink:href="#DejaVuSans-67" x="2413.529297"/>
    </g>
   </g>
   <g id="legend_1">
    <g id="patch_7">
     <path d="M 556.99375 106.14875 
L 636.490625 106.14875 
Q 640.490625 106.14875 640.490625 102.14875 
L 640.490625 45.43625 
Q 640.490625 41.43625 636.490625 41.43625 
L 556.99375 41.43625 
Q 552.99375 41.43625 552.99375 45.43625 
L 552.99375 102.14875 
Q 552.99375 106.14875 556.99375 106.14875 
z
" style="fill: #ffffff; opacity: 0.8; stroke: #cccccc; stroke-linejoin: miter"/>
    </g>
    <g id="line2d_16">
     <path d="M 560.99375 57.633125 
L 580.99375 57.633125 
L 600.99375 57.633125 
" style="fill: none; stroke: #1f77b4; stroke-width: 1.5; stroke-linecap: square"/>
    </g>
    <g id="text_17">
     <!-- G -->
     <g transform="translate(616.99375 64.633125) scale(0.2 -0.2)">
      <use xlink:href="#DejaVuSans-47"/>
     </g>
    </g>
    <g id="line2d_17">
     <path d="M 560.99375 86.989375 
L 580.99375 86.989375 
L 600.99375 86.989375 
" style="fill: none; stroke: #ff7f0e; stroke-width: 1.5; stroke-linecap: square"/>
    </g>
    <g id="text_18">
     <!-- D -->
     <g transform="translate(616.99375 93.989375) scale(0.2 -0.2)">
      <use xlink:href="#DejaVuSans-44"/>
     </g>
    </g>
   </g>
  </g>
 </g>
 <defs>
  <clipPath id="pde2628cf1d">
   <rect x="92.490625" y="31.43625" width="558" height="277.2"/>
  </clipPath>
 </defs>
</svg>
