<?xml version="1.0" encoding="utf-8" standalone="no"?>
<!DOCTYPE svg PUBLIC "-//W3C//DTD SVG 1.1//EN"
  "http://www.w3.org/Graphics/SVG/1.1/DTD/svg11.dtd">
<svg xmlns:xlink="http://www.w3.org/1999/xlink" width="675.923125pt" height="365.54875pt" viewBox="0 0 675.923125 365.54875" xmlns="http://www.w3.org/2000/svg" version="1.1">
 <metadata>
  <rdf:RDF xmlns:dc="http://purl.org/dc/elements/1.1/" xmlns:cc="http://creativecommons.org/ns#" xmlns:rdf="http://www.w3.org/1999/02/22-rdf-syntax-ns#">
   <cc:Work>
    <dc:type rdf:resource="http://purl.org/dc/dcmitype/StillImage"/>
    <dc:date>2024-02-02T15:53:43.263503</dc:date>
    <dc:format>image/svg+xml</dc:format>
    <dc:creator>
     <cc:Agent>
      <dc:title>Matplotlib v3.7.2, https://matplotlib.org/</dc:title>
     </cc:Agent>
    </dc:creator>
   </cc:Work>
  </rdf:RDF>
 </metadata>
 <defs>
  <style type="text/css">*{stroke-linejoin: round; stroke-linecap: butt}</style>
 </defs>
 <g id="figure_1">
  <g id="patch_1">
   <path d="M 0 365.54875 
L 675.923125 365.54875 
L 675.923125 -0 
L 0 -0 
z
" style="fill: #ffffff"/>
  </g>
  <g id="axes_1">
   <g id="patch_2">
    <path d="M 92.490625 308.63625 
L 650.490625 308.63625 
L 650.490625 31.43625 
L 92.490625 31.43625 
z
" style="fill: #ffffff"/>
   </g>
   <g id="matplotlib.axis_1">
    <g id="xtick_1">
     <g id="line2d_1">
      <defs>
       <path id="md46f9d94a8" d="M 0 0 
L 0 3.5 
" style="stroke: #000000; stroke-width: 0.8"/>
      </defs>
      <g>
       <use xlink:href="#md46f9d94a8" x="117.854261" y="308.63625" style="stroke: #000000; stroke-width: 0.8"/>
      </g>
     </g>
     <g id="text_1">
      <!-- 0 -->
      <g transform="translate(111.491761 330.833125) scale(0.2 -0.2)">
       <defs>
        <path id="DejaVuSans-30" d="M 2034 4250 
Q 1547 4250 1301 3770 
Q 1056 3291 1056 2328 
Q 1056 1369 1301 889 
Q 1547 409 2034 409 
Q 2525 409 2770 889 
Q 3016 1369 3016 2328 
Q 3016 3291 2770 3770 
Q 2525 4250 2034 4250 
z
M 2034 4750 
Q 2819 4750 3233 4129 
Q 3647 3509 3647 2328 
Q 3647 1150 3233 529 
Q 2819 -91 2034 -91 
Q 1250 -91 836 529 
Q 422 1150 422 2328 
Q 422 3509 836 4129 
Q 1250 4750 2034 4750 
z
" transform="scale(0.015625)"/>
       </defs>
       <use xlink:href="#DejaVuSans-30"/>
      </g>
     </g>
    </g>
    <g id="xtick_2">
     <g id="line2d_2">
      <g>
       <use xlink:href="#md46f9d94a8" x="187.822913" y="308.63625" style="stroke: #000000; stroke-width: 0.8"/>
      </g>
     </g>
     <g id="text_2">
      <!-- 200 -->
      <g transform="translate(168.735413 330.833125) scale(0.2 -0.2)">
       <defs>
        <path id="DejaVuSans-32" d="M 1228 531 
L 3431 531 
L 3431 0 
L 469 0 
L 469 531 
Q 828 903 1448 1529 
Q 2069 2156 2228 2338 
Q 2531 2678 2651 2914 
Q 2772 3150 2772 3378 
Q 2772 3750 2511 3984 
Q 2250 4219 1831 4219 
Q 1534 4219 1204 4116 
Q 875 4013 500 3803 
L 500 4441 
Q 881 4594 1212 4672 
Q 1544 4750 1819 4750 
Q 2544 4750 2975 4387 
Q 3406 4025 3406 3419 
Q 3406 3131 3298 2873 
Q 3191 2616 2906 2266 
Q 2828 2175 2409 1742 
Q 1991 1309 1228 531 
z
" transform="scale(0.015625)"/>
       </defs>
       <use xlink:href="#DejaVuSans-32"/>
       <use xlink:href="#DejaVuSans-30" x="63.623047"/>
       <use xlink:href="#DejaVuSans-30" x="127.246094"/>
      </g>
     </g>
    </g>
    <g id="xtick_3">
     <g id="line2d_3">
      <g>
       <use xlink:href="#md46f9d94a8" x="257.791565" y="308.63625" style="stroke: #000000; stroke-width: 0.8"/>
      </g>
     </g>
     <g id="text_3">
      <!-- 400 -->
      <g transform="translate(238.704065 330.833125) scale(0.2 -0.2)">
       <defs>
        <path id="DejaVuSans-34" d="M 2419 4116 
L 825 1625 
L 2419 1625 
L 2419 4116 
z
M 2253 4666 
L 3047 4666 
L 3047 1625 
L 3713 1625 
L 3713 1100 
L 3047 1100 
L 3047 0 
L 2419 0 
L 2419 1100 
L 313 1100 
L 313 1709 
L 2253 4666 
z
" transform="scale(0.015625)"/>
       </defs>
       <use xlink:href="#DejaVuSans-34"/>
       <use xlink:href="#DejaVuSans-30" x="63.623047"/>
       <use xlink:href="#DejaVuSans-30" x="127.246094"/>
      </g>
     </g>
    </g>
    <g id="xtick_4">
     <g id="line2d_4">
      <g>
       <use xlink:href="#md46f9d94a8" x="327.760217" y="308.63625" style="stroke: #000000; stroke-width: 0.8"/>
      </g>
     </g>
     <g id="text_4">
      <!-- 600 -->
      <g transform="translate(308.672717 330.833125) scale(0.2 -0.2)">
       <defs>
        <path id="DejaVuSans-36" d="M 2113 2584 
Q 1688 2584 1439 2293 
Q 1191 2003 1191 1497 
Q 1191 994 1439 701 
Q 1688 409 2113 409 
Q 2538 409 2786 701 
Q 3034 994 3034 1497 
Q 3034 2003 2786 2293 
Q 2538 2584 2113 2584 
z
M 3366 4563 
L 3366 3988 
Q 3128 4100 2886 4159 
Q 2644 4219 2406 4219 
Q 1781 4219 1451 3797 
Q 1122 3375 1075 2522 
Q 1259 2794 1537 2939 
Q 1816 3084 2150 3084 
Q 2853 3084 3261 2657 
Q 3669 2231 3669 1497 
Q 3669 778 3244 343 
Q 2819 -91 2113 -91 
Q 1303 -91 875 529 
Q 447 1150 447 2328 
Q 447 3434 972 4092 
Q 1497 4750 2381 4750 
Q 2619 4750 2861 4703 
Q 3103 4656 3366 4563 
z
" transform="scale(0.015625)"/>
       </defs>
       <use xlink:href="#DejaVuSans-36"/>
       <use xlink:href="#DejaVuSans-30" x="63.623047"/>
       <use xlink:href="#DejaVuSans-30" x="127.246094"/>
      </g>
     </g>
    </g>
    <g id="xtick_5">
     <g id="line2d_5">
      <g>
       <use xlink:href="#md46f9d94a8" x="397.72887" y="308.63625" style="stroke: #000000; stroke-width: 0.8"/>
      </g>
     </g>
     <g id="text_5">
      <!-- 800 -->
      <g transform="translate(378.64137 330.833125) scale(0.2 -0.2)">
       <defs>
        <path id="DejaVuSans-38" d="M 2034 2216 
Q 1584 2216 1326 1975 
Q 1069 1734 1069 1313 
Q 1069 891 1326 650 
Q 1584 409 2034 409 
Q 2484 409 2743 651 
Q 3003 894 3003 1313 
Q 3003 1734 2745 1975 
Q 2488 2216 2034 2216 
z
M 1403 2484 
Q 997 2584 770 2862 
Q 544 3141 544 3541 
Q 544 4100 942 4425 
Q 1341 4750 2034 4750 
Q 2731 4750 3128 4425 
Q 3525 4100 3525 3541 
Q 3525 3141 3298 2862 
Q 3072 2584 2669 2484 
Q 3125 2378 3379 2068 
Q 3634 1759 3634 1313 
Q 3634 634 3220 271 
Q 2806 -91 2034 -91 
Q 1263 -91 848 271 
Q 434 634 434 1313 
Q 434 1759 690 2068 
Q 947 2378 1403 2484 
z
M 1172 3481 
Q 1172 3119 1398 2916 
Q 1625 2713 2034 2713 
Q 2441 2713 2670 2916 
Q 2900 3119 2900 3481 
Q 2900 3844 2670 4047 
Q 2441 4250 2034 4250 
Q 1625 4250 1398 4047 
Q 1172 3844 1172 3481 
z
" transform="scale(0.015625)"/>
       </defs>
       <use xlink:href="#DejaVuSans-38"/>
       <use xlink:href="#DejaVuSans-30" x="63.623047"/>
       <use xlink:href="#DejaVuSans-30" x="127.246094"/>
      </g>
     </g>
    </g>
    <g id="xtick_6">
     <g id="line2d_6">
      <g>
       <use xlink:href="#md46f9d94a8" x="467.697522" y="308.63625" style="stroke: #000000; stroke-width: 0.8"/>
      </g>
     </g>
     <g id="text_6">
      <!-- 1000 -->
      <g transform="translate(442.247522 330.833125) scale(0.2 -0.2)">
       <defs>
        <path id="DejaVuSans-31" d="M 794 531 
L 1825 531 
L 1825 4091 
L 703 3866 
L 703 4441 
L 1819 4666 
L 2450 4666 
L 2450 531 
L 3481 531 
L 3481 0 
L 794 0 
L 794 531 
z
" transform="scale(0.015625)"/>
       </defs>
       <use xlink:href="#DejaVuSans-31"/>
       <use xlink:href="#DejaVuSans-30" x="63.623047"/>
       <use xlink:href="#DejaVuSans-30" x="127.246094"/>
       <use xlink:href="#DejaVuSans-30" x="190.869141"/>
      </g>
     </g>
    </g>
    <g id="xtick_7">
     <g id="line2d_7">
      <g>
       <use xlink:href="#md46f9d94a8" x="537.666174" y="308.63625" style="stroke: #000000; stroke-width: 0.8"/>
      </g>
     </g>
     <g id="text_7">
      <!-- 1200 -->
      <g transform="translate(512.216174 330.833125) scale(0.2 -0.2)">
       <use xlink:href="#DejaVuSans-31"/>
       <use xlink:href="#DejaVuSans-32" x="63.623047"/>
       <use xlink:href="#DejaVuSans-30" x="127.246094"/>
       <use xlink:href="#DejaVuSans-30" x="190.869141"/>
      </g>
     </g>
    </g>
    <g id="xtick_8">
     <g id="line2d_8">
      <g>
       <use xlink:href="#md46f9d94a8" x="607.634826" y="308.63625" style="stroke: #000000; stroke-width: 0.8"/>
      </g>
     </g>
     <g id="text_8">
      <!-- 1400 -->
      <g transform="translate(582.184826 330.833125) scale(0.2 -0.2)">
       <use xlink:href="#DejaVuSans-31"/>
       <use xlink:href="#DejaVuSans-34" x="63.623047"/>
       <use xlink:href="#DejaVuSans-30" x="127.246094"/>
       <use xlink:href="#DejaVuSans-30" x="190.869141"/>
      </g>
     </g>
    </g>
    <g id="text_9">
     <!-- iterations -->
     <g transform="translate(324.035938 354.189375) scale(0.2 -0.2)">
      <defs>
       <path id="DejaVuSans-69" d="M 603 3500 
L 1178 3500 
L 1178 0 
L 603 0 
L 603 3500 
z
M 603 4863 
L 1178 4863 
L 1178 4134 
L 603 4134 
L 603 4863 
z
" transform="scale(0.015625)"/>
       <path id="DejaVuSans-74" d="M 1172 4494 
L 1172 3500 
L 2356 3500 
L 2356 3053 
L 1172 3053 
L 1172 1153 
Q 1172 725 1289 603 
Q 1406 481 1766 481 
L 2356 481 
L 2356 0 
L 1766 0 
Q 1100 0 847 248 
Q 594 497 594 1153 
L 594 3053 
L 172 3053 
L 172 3500 
L 594 3500 
L 594 4494 
L 1172 4494 
z
" transform="scale(0.015625)"/>
       <path id="DejaVuSans-65" d="M 3597 1894 
L 3597 1613 
L 953 1613 
Q 991 1019 1311 708 
Q 1631 397 2203 397 
Q 2534 397 2845 478 
Q 3156 559 3463 722 
L 3463 178 
Q 3153 47 2828 -22 
Q 2503 -91 2169 -91 
Q 1331 -91 842 396 
Q 353 884 353 1716 
Q 353 2575 817 3079 
Q 1281 3584 2069 3584 
Q 2775 3584 3186 3129 
Q 3597 2675 3597 1894 
z
M 3022 2063 
Q 3016 2534 2758 2815 
Q 2500 3097 2075 3097 
Q 1594 3097 1305 2825 
Q 1016 2553 972 2059 
L 3022 2063 
z
" transform="scale(0.015625)"/>
       <path id="DejaVuSans-72" d="M 2631 2963 
Q 2534 3019 2420 3045 
Q 2306 3072 2169 3072 
Q 1681 3072 1420 2755 
Q 1159 2438 1159 1844 
L 1159 0 
L 581 0 
L 581 3500 
L 1159 3500 
L 1159 2956 
Q 1341 3275 1631 3429 
Q 1922 3584 2338 3584 
Q 2397 3584 2469 3576 
Q 2541 3569 2628 3553 
L 2631 2963 
z
" transform="scale(0.015625)"/>
       <path id="DejaVuSans-61" d="M 2194 1759 
Q 1497 1759 1228 1600 
Q 959 1441 959 1056 
Q 959 750 1161 570 
Q 1363 391 1709 391 
Q 2188 391 2477 730 
Q 2766 1069 2766 1631 
L 2766 1759 
L 2194 1759 
z
M 3341 1997 
L 3341 0 
L 2766 0 
L 2766 531 
Q 2569 213 2275 61 
Q 1981 -91 1556 -91 
Q 1019 -91 701 211 
Q 384 513 384 1019 
Q 384 1609 779 1909 
Q 1175 2209 1959 2209 
L 2766 2209 
L 2766 2266 
Q 2766 2663 2505 2880 
Q 2244 3097 1772 3097 
Q 1472 3097 1187 3025 
Q 903 2953 641 2809 
L 641 3341 
Q 956 3463 1253 3523 
Q 1550 3584 1831 3584 
Q 2591 3584 2966 3190 
Q 3341 2797 3341 1997 
z
" transform="scale(0.015625)"/>
       <path id="DejaVuSans-6f" d="M 1959 3097 
Q 1497 3097 1228 2736 
Q 959 2375 959 1747 
Q 959 1119 1226 758 
Q 1494 397 1959 397 
Q 2419 397 2687 759 
Q 2956 1122 2956 1747 
Q 2956 2369 2687 2733 
Q 2419 3097 1959 3097 
z
M 1959 3584 
Q 2709 3584 3137 3096 
Q 3566 2609 3566 1747 
Q 3566 888 3137 398 
Q 2709 -91 1959 -91 
Q 1206 -91 779 398 
Q 353 888 353 1747 
Q 353 2609 779 3096 
Q 1206 3584 1959 3584 
z
" transform="scale(0.015625)"/>
       <path id="DejaVuSans-6e" d="M 3513 2113 
L 3513 0 
L 2938 0 
L 2938 2094 
Q 2938 2591 2744 2837 
Q 2550 3084 2163 3084 
Q 1697 3084 1428 2787 
Q 1159 2491 1159 1978 
L 1159 0 
L 581 0 
L 581 3500 
L 1159 3500 
L 1159 2956 
Q 1366 3272 1645 3428 
Q 1925 3584 2291 3584 
Q 2894 3584 3203 3211 
Q 3513 2838 3513 2113 
z
" transform="scale(0.015625)"/>
       <path id="DejaVuSans-73" d="M 2834 3397 
L 2834 2853 
Q 2591 2978 2328 3040 
Q 2066 3103 1784 3103 
Q 1356 3103 1142 2972 
Q 928 2841 928 2578 
Q 928 2378 1081 2264 
Q 1234 2150 1697 2047 
L 1894 2003 
Q 2506 1872 2764 1633 
Q 3022 1394 3022 966 
Q 3022 478 2636 193 
Q 2250 -91 1575 -91 
Q 1294 -91 989 -36 
Q 684 19 347 128 
L 347 722 
Q 666 556 975 473 
Q 1284 391 1588 391 
Q 1994 391 2212 530 
Q 2431 669 2431 922 
Q 2431 1156 2273 1281 
Q 2116 1406 1581 1522 
L 1381 1569 
Q 847 1681 609 1914 
Q 372 2147 372 2553 
Q 372 3047 722 3315 
Q 1072 3584 1716 3584 
Q 2034 3584 2315 3537 
Q 2597 3491 2834 3397 
z
" transform="scale(0.015625)"/>
      </defs>
      <use xlink:href="#DejaVuSans-69"/>
      <use xlink:href="#DejaVuSans-74" x="27.783203"/>
      <use xlink:href="#DejaVuSans-65" x="66.992188"/>
      <use xlink:href="#DejaVuSans-72" x="128.515625"/>
      <use xlink:href="#DejaVuSans-61" x="169.628906"/>
      <use xlink:href="#DejaVuSans-74" x="230.908203"/>
      <use xlink:href="#DejaVuSans-69" x="270.117188"/>
      <use xlink:href="#DejaVuSans-6f" x="297.900391"/>
      <use xlink:href="#DejaVuSans-6e" x="359.082031"/>
      <use xlink:href="#DejaVuSans-73" x="422.460938"/>
     </g>
    </g>
   </g>
   <g id="matplotlib.axis_2">
    <g id="ytick_1">
     <g id="line2d_9">
      <defs>
       <path id="m159830f0a4" d="M 0 0 
L -3.5 0 
" style="stroke: #000000; stroke-width: 0.8"/>
      </defs>
      <g>
       <use xlink:href="#m159830f0a4" x="92.490625" y="279.562782" style="stroke: #000000; stroke-width: 0.8"/>
      </g>
     </g>
     <g id="text_10">
      <!-- −200 -->
      <g transform="translate(30.55625 287.16122) scale(0.2 -0.2)">
       <defs>
        <path id="DejaVuSans-2212" d="M 678 2272 
L 4684 2272 
L 4684 1741 
L 678 1741 
L 678 2272 
z
" transform="scale(0.015625)"/>
       </defs>
       <use xlink:href="#DejaVuSans-2212"/>
       <use xlink:href="#DejaVuSans-32" x="83.789062"/>
       <use xlink:href="#DejaVuSans-30" x="147.412109"/>
       <use xlink:href="#DejaVuSans-30" x="211.035156"/>
      </g>
     </g>
    </g>
    <g id="ytick_2">
     <g id="line2d_10">
      <g>
       <use xlink:href="#m159830f0a4" x="92.490625" y="229.718252" style="stroke: #000000; stroke-width: 0.8"/>
      </g>
     </g>
     <g id="text_11">
      <!-- −100 -->
      <g transform="translate(30.55625 237.316689) scale(0.2 -0.2)">
       <use xlink:href="#DejaVuSans-2212"/>
       <use xlink:href="#DejaVuSans-31" x="83.789062"/>
       <use xlink:href="#DejaVuSans-30" x="147.412109"/>
       <use xlink:href="#DejaVuSans-30" x="211.035156"/>
      </g>
     </g>
    </g>
    <g id="ytick_3">
     <g id="line2d_11">
      <g>
       <use xlink:href="#m159830f0a4" x="92.490625" y="179.873722" style="stroke: #000000; stroke-width: 0.8"/>
      </g>
     </g>
     <g id="text_12">
      <!-- 0 -->
      <g transform="translate(72.765625 187.472159) scale(0.2 -0.2)">
       <use xlink:href="#DejaVuSans-30"/>
      </g>
     </g>
    </g>
    <g id="ytick_4">
     <g id="line2d_12">
      <g>
       <use xlink:href="#m159830f0a4" x="92.490625" y="130.029191" style="stroke: #000000; stroke-width: 0.8"/>
      </g>
     </g>
     <g id="text_13">
      <!-- 100 -->
      <g transform="translate(47.315625 137.627629) scale(0.2 -0.2)">
       <use xlink:href="#DejaVuSans-31"/>
       <use xlink:href="#DejaVuSans-30" x="63.623047"/>
       <use xlink:href="#DejaVuSans-30" x="127.246094"/>
      </g>
     </g>
    </g>
    <g id="ytick_5">
     <g id="line2d_13">
      <g>
       <use xlink:href="#m159830f0a4" x="92.490625" y="80.184661" style="stroke: #000000; stroke-width: 0.8"/>
      </g>
     </g>
     <g id="text_14">
      <!-- 200 -->
      <g transform="translate(47.315625 87.783098) scale(0.2 -0.2)">
       <use xlink:href="#DejaVuSans-32"/>
       <use xlink:href="#DejaVuSans-30" x="63.623047"/>
       <use xlink:href="#DejaVuSans-30" x="127.246094"/>
      </g>
     </g>
    </g>
    <g id="text_15">
     <!-- Loss -->
     <g transform="translate(22.396875 191.970625) rotate(-90) scale(0.2 -0.2)">
      <defs>
       <path id="DejaVuSans-4c" d="M 628 4666 
L 1259 4666 
L 1259 531 
L 3531 531 
L 3531 0 
L 628 0 
L 628 4666 
z
" transform="scale(0.015625)"/>
      </defs>
      <use xlink:href="#DejaVuSans-4c"/>
      <use xlink:href="#DejaVuSans-6f" x="53.962891"/>
      <use xlink:href="#DejaVuSans-73" x="115.144531"/>
      <use xlink:href="#DejaVuSans-73" x="167.244141"/>
     </g>
    </g>
   </g>
   <g id="line2d_14">
    <path d="M 117.854261 124.531878 
L 118.204105 113.612244 
L 118.553948 120.519891 
L 118.903791 104.349251 
L 119.253634 82.758685 
L 119.603478 52.516894 
L 119.953321 44.03625 
L 120.303164 61.970005 
L 120.653007 47.184644 
L 121.352694 80.314335 
L 121.702537 92.451127 
L 122.05238 90.170035 
L 122.752067 102.578324 
L 123.10191 95.671232 
L 123.451754 100.331578 
L 123.801597 100.663401 
L 124.15144 98.525286 
L 124.501283 104.282319 
L 124.851127 116.142604 
L 125.20097 120.516331 
L 125.550813 130.835256 
L 126.2505 127.698731 
L 126.600343 125.168182 
L 126.950186 126.943921 
L 127.300029 124.005949 
L 127.999716 122.923807 
L 128.349559 123.257928 
L 128.699402 118.898656 
L 129.049246 119.56434 
L 129.399089 115.700499 
L 129.748932 117.745463 
L 130.098775 123.442567 
L 130.448619 123.774871 
L 130.798462 122.857969 
L 131.148305 122.302379 
L 131.498149 120.942223 
L 131.847992 119.124284 
L 132.197835 125.017556 
L 132.547678 133.214281 
L 132.897522 129.161825 
L 133.247365 123.543387 
L 133.597208 122.23231 
L 133.947051 123.023945 
L 134.296895 127.784878 
L 134.646738 121.940687 
L 134.996581 123.981988 
L 135.346424 127.193599 
L 135.696268 131.485114 
L 136.046111 128.917539 
L 136.395954 136.589669 
L 136.745797 136.567041 
L 137.095641 125.362361 
L 137.445484 126.824283 
L 137.795327 135.707324 
L 138.14517 137.326724 
L 138.495014 136.946144 
L 139.1947 141.297559 
L 139.544543 145.047706 
L 139.894387 145.805225 
L 140.24423 141.997796 
L 140.943917 139.025662 
L 141.29376 137.019952 
L 141.643603 138.139239 
L 141.993446 136.827967 
L 142.34329 138.508057 
L 142.693133 138.220575 
L 143.042976 138.101893 
L 143.392819 135.608969 
L 143.742663 141.338619 
L 144.442349 134.107495 
L 144.792192 138.24287 
L 145.142036 138.539082 
L 145.491879 134.882217 
L 145.841722 125.534589 
L 146.191565 130.92867 
L 146.541409 130.995844 
L 146.891252 129.896139 
L 147.241095 130.701701 
L 147.590938 134.78225 
L 148.290625 139.833902 
L 148.640468 134.538663 
L 148.990312 132.112555 
L 149.340155 132.679362 
L 149.689998 137.227089 
L 150.039841 136.509092 
L 150.389685 134.164532 
L 150.739528 138.634416 
L 151.089371 137.086605 
L 151.439214 139.48127 
L 151.789058 140.847521 
L 152.138901 136.401101 
L 152.488744 136.610398 
L 152.838587 141.120117 
L 153.188431 141.657382 
L 153.538274 141.745369 
L 154.23796 145.930699 
L 154.587804 144.353858 
L 154.937647 147.068299 
L 155.637333 143.872919 
L 155.987177 144.823045 
L 156.33702 145.322043 
L 156.686863 149.160657 
L 157.036707 151.758086 
L 157.38655 147.409346 
L 157.736393 147.688363 
L 158.43608 143.905424 
L 158.785923 146.884967 
L 159.485609 147.688029 
L 160.185296 140.161348 
L 160.535139 143.441326 
L 160.884982 141.701099 
L 161.234826 143.244373 
L 161.584669 141.485977 
L 161.934512 143.743617 
L 162.284355 141.752809 
L 162.634199 144.378451 
L 162.984042 145.924998 
L 163.683728 145.710239 
L 164.033572 146.822277 
L 164.733258 142.812817 
L 165.083101 146.722669 
L 165.432945 142.762511 
L 165.782788 145.958757 
L 166.132631 145.805341 
L 166.482475 143.312113 
L 166.832318 144.758427 
L 167.182161 147.303361 
L 167.532004 146.89064 
L 167.881848 147.574506 
L 168.231691 148.59455 
L 168.931377 152.506974 
L 169.281221 150.388494 
L 169.631064 151.806019 
L 169.980907 150.902817 
L 170.33075 151.840849 
L 170.680594 149.806097 
L 171.030437 146.162209 
L 171.38028 148.368318 
L 171.730123 152.27345 
L 172.079967 151.466282 
L 172.42981 152.492185 
L 172.779653 150.095374 
L 173.47934 152.38361 
L 173.829183 151.164398 
L 174.179026 152.661597 
L 174.52887 153.504509 
L 174.878713 153.070374 
L 175.228556 153.701229 
L 175.578399 155.076172 
L 175.928243 155.925178 
L 176.627929 153.860758 
L 176.977772 153.674296 
L 177.327616 153.035097 
L 177.677459 154.346622 
L 178.027302 153.598921 
L 178.377145 153.137666 
L 178.726989 153.719381 
L 179.076832 151.537183 
L 179.426675 152.382328 
L 179.776518 153.754748 
L 180.126362 152.730595 
L 180.476205 153.912518 
L 180.826048 155.763226 
L 181.175891 154.635505 
L 181.525735 156.375225 
L 181.875578 154.862806 
L 182.225421 157.097058 
L 182.575264 158.475495 
L 182.925108 159.246486 
L 183.274951 160.579032 
L 183.624794 160.177923 
L 183.974638 158.198611 
L 184.324481 157.632745 
L 184.674324 158.695304 
L 185.024167 158.058747 
L 186.073697 161.274453 
L 186.42354 161.049882 
L 187.123227 162.780169 
L 187.47307 162.93181 
L 187.822913 162.909826 
L 188.172757 163.16357 
L 188.5226 163.590409 
L 189.222286 163.028633 
L 189.57213 164.160838 
L 189.921973 163.43676 
L 190.271816 163.598174 
L 190.621659 163.302926 
L 190.971503 163.467349 
L 191.321346 163.018195 
L 191.671189 164.735424 
L 192.021033 163.474858 
L 192.370876 161.245375 
L 192.720719 162.806307 
L 193.770249 163.922568 
L 194.120092 162.747043 
L 194.469935 162.225773 
L 194.819779 162.846469 
L 195.169622 165.236295 
L 195.519465 163.231114 
L 195.869308 163.010536 
L 196.219152 163.003862 
L 196.568995 164.481228 
L 196.918838 164.159237 
L 197.268681 165.05063 
L 197.618525 167.617109 
L 197.968368 166.927606 
L 198.318211 166.829197 
L 198.668054 167.045429 
L 199.017898 167.040901 
L 199.367741 168.045201 
L 200.067428 166.198974 
L 200.417271 166.800597 
L 200.767114 168.759688 
L 201.116957 168.974249 
L 201.466801 166.434748 
L 201.816644 165.174013 
L 202.166487 167.03687 
L 202.866174 167.675998 
L 203.216017 167.355134 
L 203.56586 166.638156 
L 203.915703 167.116547 
L 204.265547 167.266925 
L 204.61539 168.14975 
L 204.965233 167.908898 
L 205.315076 168.146553 
L 205.66492 168.238457 
L 206.364606 167.240999 
L 206.714449 168.253029 
L 207.064293 166.399731 
L 207.414136 167.169623 
L 207.763979 166.210275 
L 208.113822 167.497068 
L 208.463666 165.698517 
L 209.163352 166.698603 
L 209.513196 166.841433 
L 209.863039 166.310281 
L 210.212882 165.479998 
L 210.562725 165.215218 
L 210.912569 165.668773 
L 211.262412 167.322442 
L 211.612255 165.913513 
L 211.962098 165.804076 
L 212.311942 165.367667 
L 212.661785 166.220259 
L 213.011628 166.206106 
L 213.361471 165.972338 
L 213.711315 166.913536 
L 214.061158 166.170453 
L 214.411001 165.912273 
L 214.760844 166.548458 
L 215.110688 165.862925 
L 215.810374 167.181714 
L 216.160217 166.678216 
L 216.510061 166.675568 
L 216.859904 167.875845 
L 217.209747 168.366442 
L 217.559591 168.449603 
L 217.909434 168.998448 
L 218.259277 169.32032 
L 218.60912 167.9225 
L 219.308807 168.843936 
L 219.65865 168.960531 
L 220.008493 168.782386 
L 220.358337 168.317253 
L 220.70818 169.688678 
L 221.058023 169.233972 
L 221.407866 169.06092 
L 222.107553 170.546879 
L 222.457396 170.171745 
L 222.807239 171.878035 
L 223.506926 171.137158 
L 223.856769 169.278403 
L 224.206612 169.725672 
L 224.556456 170.615596 
L 224.906299 169.496235 
L 225.256142 169.782768 
L 225.605986 169.890141 
L 225.955829 171.456883 
L 226.655515 170.001103 
L 227.005359 169.926751 
L 227.705045 171.37963 
L 228.054888 171.029107 
L 228.404732 171.124863 
L 228.754575 170.681482 
L 229.104418 170.87703 
L 229.454261 170.384301 
L 229.804105 170.986704 
L 230.153948 170.791971 
L 230.503791 169.625101 
L 230.853634 171.288955 
L 231.203478 170.927486 
L 231.553321 170.864856 
L 231.903164 171.211611 
L 232.253007 172.079021 
L 232.602851 171.845111 
L 232.952694 170.97074 
L 233.302537 171.625128 
L 233.65238 170.983582 
L 234.352067 171.02878 
L 234.70191 171.560573 
L 235.051754 172.322231 
L 235.401597 171.627739 
L 235.75144 171.467542 
L 236.101283 172.467587 
L 236.451127 171.02565 
L 236.80097 171.947077 
L 237.150813 171.483687 
L 237.500656 172.050066 
L 238.550186 169.947551 
L 238.900029 170.733685 
L 239.249873 170.584067 
L 239.599716 171.103421 
L 239.949559 171.348453 
L 240.299402 171.120201 
L 240.649246 170.558887 
L 240.999089 170.210684 
L 241.348932 170.789454 
L 241.698775 170.980313 
L 242.048619 172.211916 
L 242.398462 171.753866 
L 242.748305 172.058202 
L 243.098149 170.710387 
L 243.447992 171.610416 
L 244.147678 170.275572 
L 244.497522 170.921107 
L 244.847365 170.142906 
L 245.197208 171.335557 
L 245.547051 170.05853 
L 245.896895 170.093304 
L 246.246738 170.469731 
L 246.596581 171.273628 
L 246.946424 171.728208 
L 247.296268 171.723017 
L 247.646111 170.898618 
L 248.345797 171.377761 
L 248.695641 171.45996 
L 249.045484 170.901117 
L 249.395327 169.754796 
L 250.444857 171.283549 
L 250.7947 170.797232 
L 251.144543 171.524636 
L 251.494387 171.480676 
L 251.84423 171.125477 
L 252.89376 171.450506 
L 253.243603 170.746657 
L 253.593446 171.893811 
L 254.293133 169.705521 
L 254.642976 169.357828 
L 254.992819 169.628308 
L 255.342663 170.894575 
L 255.692506 171.221226 
L 256.042349 171.32752 
L 256.392192 171.762098 
L 256.742036 171.419549 
L 257.091879 171.510481 
L 257.441722 170.604535 
L 257.791565 172.064219 
L 258.141409 172.504472 
L 258.491252 171.730852 
L 258.841095 171.717936 
L 259.190938 171.126913 
L 259.540782 171.028055 
L 259.890625 171.81357 
L 260.240468 171.842793 
L 260.590312 171.260918 
L 260.940155 171.661503 
L 261.289998 171.18838 
L 262.339528 171.680532 
L 262.689371 172.343042 
L 263.039214 170.773445 
L 263.389058 171.850861 
L 263.738901 171.335879 
L 264.088744 171.470768 
L 264.438587 171.404438 
L 264.788431 170.42896 
L 265.138274 170.751651 
L 265.488117 170.623119 
L 265.83796 171.204737 
L 266.187804 169.869313 
L 266.537647 169.636724 
L 267.237333 170.828434 
L 267.587177 170.552112 
L 267.93702 170.519111 
L 268.286863 170.941655 
L 268.636707 169.718798 
L 268.98655 169.862972 
L 269.336393 170.788851 
L 269.686236 169.308966 
L 270.03608 168.405074 
L 270.385923 169.592541 
L 271.085609 168.929275 
L 271.435453 168.277422 
L 271.785296 168.303997 
L 272.135139 169.014105 
L 272.484982 169.461484 
L 273.184669 168.954341 
L 273.534512 167.445263 
L 273.884355 168.252356 
L 274.234199 168.568639 
L 274.584042 168.729843 
L 274.933885 169.043828 
L 275.283728 170.208008 
L 275.633572 169.180695 
L 275.983415 168.673338 
L 276.333258 168.707785 
L 276.683101 169.243154 
L 277.032945 169.377209 
L 277.382788 168.851158 
L 277.732631 166.81334 
L 278.082475 168.761281 
L 278.432318 168.000392 
L 278.782161 167.564612 
L 279.481848 168.156309 
L 279.831691 168.13164 
L 280.181534 168.675291 
L 280.531377 168.119421 
L 280.881221 168.305333 
L 281.231064 167.535693 
L 281.580907 169.078896 
L 281.93075 168.406488 
L 282.280594 169.281049 
L 282.630437 168.148249 
L 282.98028 168.593674 
L 283.330123 168.732842 
L 283.679967 168.470857 
L 284.02981 169.372396 
L 284.379653 169.29299 
L 285.07934 167.88763 
L 285.429183 167.936869 
L 285.779026 168.913264 
L 286.12887 167.685689 
L 286.828556 168.452807 
L 287.178399 168.225701 
L 287.528243 170.2633 
L 287.878086 169.857828 
L 288.227929 168.55073 
L 288.577772 168.94689 
L 289.277459 167.836903 
L 289.627302 168.529338 
L 289.977145 168.526433 
L 290.326989 168.242491 
L 290.676832 168.845629 
L 291.026675 168.793187 
L 291.376518 169.295145 
L 291.726362 168.568328 
L 292.076205 169.156795 
L 292.426048 168.842294 
L 292.775891 169.404308 
L 293.125735 168.600934 
L 293.475578 169.158425 
L 293.825421 169.261816 
L 294.175264 169.167373 
L 294.525108 168.318719 
L 294.874951 168.55359 
L 295.574638 169.344485 
L 295.924481 168.986347 
L 296.274324 169.062865 
L 296.624167 167.845035 
L 296.974011 168.951697 
L 297.673697 166.987109 
L 298.373384 168.536455 
L 298.723227 167.813438 
L 299.772757 168.653876 
L 300.1226 169.890846 
L 300.472443 168.602198 
L 300.822286 168.122958 
L 301.17213 166.912785 
L 301.521973 168.156099 
L 301.871816 167.661884 
L 302.221659 169.488083 
L 302.571503 169.485607 
L 303.621033 168.073372 
L 303.970876 169.155096 
L 304.320719 167.873866 
L 304.670562 168.345896 
L 305.020406 168.076867 
L 305.370249 169.271937 
L 306.419779 165.679123 
L 307.469308 168.312368 
L 307.819152 167.853324 
L 308.168995 168.205852 
L 308.518838 167.419576 
L 308.868681 167.036538 
L 309.218525 168.70488 
L 309.918211 167.08679 
L 310.268054 166.654306 
L 310.617898 167.786472 
L 310.967741 167.416425 
L 311.317584 168.569706 
L 311.667428 168.490675 
L 312.017271 169.154549 
L 312.367114 167.278725 
L 312.716957 168.560299 
L 313.066801 168.787789 
L 313.416644 167.280913 
L 313.766487 167.403509 
L 314.11633 166.122042 
L 314.466174 167.890703 
L 314.816017 166.99708 
L 315.16586 168.252917 
L 315.515703 166.923159 
L 315.865547 167.016084 
L 316.21539 167.241264 
L 316.915076 167.045006 
L 317.26492 166.305466 
L 317.614763 165.975857 
L 317.964606 167.000925 
L 318.314449 166.83386 
L 318.664293 167.60513 
L 319.014136 167.629385 
L 319.363979 167.287727 
L 319.713822 167.104138 
L 320.063666 166.397981 
L 320.413509 167.148153 
L 320.763352 166.744054 
L 321.113196 165.842051 
L 321.463039 165.51877 
L 321.812882 166.309628 
L 322.162725 165.740703 
L 322.512569 166.816051 
L 323.212255 165.723097 
L 323.562098 166.108493 
L 324.261785 165.4902 
L 324.961471 166.795149 
L 325.311315 166.654096 
L 326.011001 167.621033 
L 326.360844 166.864147 
L 326.710688 167.267206 
L 327.060531 168.778092 
L 327.410374 169.05499 
L 327.760217 168.761897 
L 328.110061 168.71093 
L 328.459904 167.742667 
L 329.159591 169.264613 
L 329.509434 167.432988 
L 329.859277 168.344806 
L 330.20912 168.502555 
L 330.558964 169.430815 
L 330.908807 169.685325 
L 331.25865 168.870997 
L 331.608493 169.484155 
L 332.30818 169.27929 
L 332.658023 168.891965 
L 333.707553 170.281456 
L 334.057396 169.650673 
L 334.407239 169.556229 
L 334.757083 169.332334 
L 335.106926 169.753204 
L 335.456769 169.245746 
L 335.806612 169.301257 
L 336.156456 168.308343 
L 336.506299 168.719347 
L 336.856142 169.428888 
L 337.205986 170.479059 
L 337.555829 169.745954 
L 337.905672 170.42337 
L 338.605359 170.868408 
L 338.955202 170.270927 
L 339.305045 169.303986 
L 339.654888 170.119499 
L 340.004732 169.767772 
L 340.354575 169.857879 
L 340.704418 169.586723 
L 341.054261 169.716683 
L 341.404105 171.181534 
L 341.753948 170.772517 
L 342.103791 171.187108 
L 342.453634 170.514292 
L 342.803478 170.129486 
L 343.153321 170.984094 
L 343.503164 171.01828 
L 343.853007 171.330471 
L 344.202851 170.098185 
L 344.552694 171.20177 
L 344.902537 170.094581 
L 345.25238 170.641587 
L 345.602224 170.954885 
L 345.952067 170.937869 
L 346.30191 171.877335 
L 346.651754 171.940686 
L 347.001597 171.802314 
L 347.35144 170.553515 
L 347.701283 170.961193 
L 348.051127 170.871702 
L 348.40097 171.781641 
L 348.750813 171.652601 
L 349.4505 169.934908 
L 349.800343 169.855105 
L 350.150186 169.93931 
L 350.500029 170.289627 
L 350.849873 171.688032 
L 351.199716 171.08577 
L 351.549559 171.519824 
L 351.899402 171.452305 
L 352.249246 170.690751 
L 352.599089 170.4779 
L 352.948932 170.686815 
L 353.298775 171.598358 
L 353.648619 171.429171 
L 353.998462 170.468689 
L 354.348305 170.552143 
L 354.698149 171.170605 
L 355.047992 171.076991 
L 355.397835 170.857447 
L 355.747678 172.026858 
L 356.097522 171.897187 
L 356.447365 172.552691 
L 356.797208 172.187376 
L 357.147051 172.119924 
L 357.496895 172.812751 
L 357.846738 172.431816 
L 358.196581 171.504635 
L 358.546424 171.078927 
L 358.896268 172.052269 
L 359.246111 172.01934 
L 359.595954 171.139247 
L 359.945797 171.456836 
L 360.295641 172.361364 
L 360.645484 171.736331 
L 360.995327 172.752857 
L 361.34517 172.572182 
L 361.695014 171.777554 
L 362.044857 171.812087 
L 362.3947 172.632344 
L 362.744543 173.098525 
L 363.094387 172.871148 
L 363.44423 171.911924 
L 363.794073 172.195097 
L 364.143917 172.633227 
L 364.49376 172.795828 
L 364.843603 172.498574 
L 365.193446 172.657809 
L 365.54329 172.305638 
L 365.893133 173.087526 
L 366.242976 172.752212 
L 366.592819 171.853783 
L 366.942663 172.249377 
L 367.292506 173.237597 
L 367.642349 172.465509 
L 367.992192 172.943736 
L 368.342036 172.53879 
L 368.691879 172.308294 
L 369.041722 172.475761 
L 369.391565 172.805779 
L 369.741409 173.509988 
L 370.091252 173.535105 
L 370.441095 172.965856 
L 370.790938 173.195651 
L 371.140782 173.028642 
L 371.490625 173.17028 
L 371.840468 173.69358 
L 372.190312 173.695534 
L 372.540155 173.025585 
L 372.889998 173.163722 
L 373.239841 172.773572 
L 373.589685 172.143886 
L 373.939528 172.728104 
L 374.639214 173.301175 
L 374.989058 173.212307 
L 375.338901 173.473794 
L 375.688744 173.354617 
L 376.038587 172.340577 
L 377.088117 173.545899 
L 377.43796 173.717131 
L 378.837333 172.846439 
L 379.187177 172.830841 
L 379.886863 173.914986 
L 380.236707 173.328633 
L 380.58655 173.220606 
L 380.936393 172.633549 
L 381.63608 172.524903 
L 381.985923 172.899515 
L 382.335766 172.995464 
L 382.685609 173.52655 
L 383.035453 172.911105 
L 383.735139 173.067123 
L 384.084982 172.580127 
L 384.434826 173.506689 
L 384.784669 173.224257 
L 385.484355 173.550066 
L 385.834199 173.870253 
L 386.184042 173.463889 
L 386.533885 173.309775 
L 386.883728 174.370365 
L 387.233572 174.641543 
L 387.583415 173.336782 
L 387.933258 174.511969 
L 388.283101 174.789815 
L 388.632945 174.779389 
L 388.982788 174.237352 
L 389.332631 174.548939 
L 389.682475 174.300293 
L 390.032318 174.250603 
L 390.382161 174.571552 
L 390.732004 174.630708 
L 391.081848 174.100518 
L 391.431691 174.358606 
L 391.781534 173.547171 
L 392.831064 174.726061 
L 393.180907 174.763368 
L 393.53075 174.404266 
L 393.880594 173.868562 
L 394.230437 174.002336 
L 394.58028 174.499336 
L 394.930123 174.761793 
L 395.279967 174.237576 
L 395.62981 173.960542 
L 395.979653 174.456797 
L 396.329496 174.608312 
L 396.67934 173.651449 
L 397.029183 174.262652 
L 397.379026 173.571319 
L 397.72887 173.445559 
L 398.078713 174.284243 
L 398.428556 174.647367 
L 398.778399 174.143819 
L 399.128243 175.098752 
L 399.478086 174.592985 
L 399.827929 174.67441 
L 400.177772 173.986843 
L 400.527616 174.89315 
L 400.877459 175.040789 
L 401.227302 174.521271 
L 401.577145 174.31169 
L 401.926989 174.409975 
L 402.276832 174.844725 
L 402.626675 174.091942 
L 402.976518 174.054085 
L 403.326362 175.056739 
L 403.676205 175.179453 
L 404.026048 174.76291 
L 404.375891 175.188881 
L 404.725735 174.606071 
L 405.075578 174.643741 
L 405.425421 175.360247 
L 405.775264 174.345135 
L 406.125108 174.196209 
L 406.474951 174.545014 
L 406.824794 174.055634 
L 407.174638 174.603814 
L 407.524481 174.591183 
L 407.874324 174.85815 
L 408.224167 175.470077 
L 409.273697 174.592355 
L 409.62354 175.085638 
L 410.67307 175.479677 
L 411.372757 174.720709 
L 411.7226 175.256771 
L 412.072443 174.918766 
L 412.422286 175.417736 
L 412.77213 174.536108 
L 413.121973 174.684633 
L 413.471816 174.961427 
L 413.821659 174.675325 
L 414.171503 174.602429 
L 414.521346 174.976565 
L 414.871189 175.109405 
L 415.221033 175.082062 
L 415.570876 175.327841 
L 415.920719 175.332892 
L 416.270562 175.704394 
L 416.620406 175.749832 
L 416.970249 176.00514 
L 417.669935 175.331336 
L 418.019779 175.820725 
L 418.369622 175.670553 
L 418.719465 176.437552 
L 419.069308 176.022944 
L 419.419152 175.79007 
L 419.768995 175.892828 
L 420.118838 176.684125 
L 420.468681 176.529924 
L 420.818525 176.862434 
L 421.168368 176.827581 
L 421.868054 176.121104 
L 422.217898 176.371403 
L 422.567741 176.282667 
L 422.917584 176.55121 
L 423.267428 175.998972 
L 423.617271 176.438404 
L 423.967114 176.232709 
L 425.71633 176.191065 
L 426.416017 176.740455 
L 426.76586 176.851348 
L 427.115703 176.071476 
L 427.465547 176.531128 
L 427.81539 176.313304 
L 428.165233 176.241809 
L 428.515076 176.342322 
L 428.86492 176.154964 
L 429.214763 176.730567 
L 429.914449 176.218591 
L 430.264293 175.822586 
L 430.614136 176.737825 
L 431.313822 176.679438 
L 431.663666 176.37128 
L 432.013509 176.406383 
L 432.363352 176.716217 
L 432.713196 176.815412 
L 433.063039 177.092024 
L 433.412882 177.029247 
L 433.762725 176.541315 
L 434.112569 176.447746 
L 434.462412 177.045527 
L 435.162098 176.949279 
L 435.511942 177.623724 
L 435.861785 177.333461 
L 436.211628 177.417731 
L 436.911315 177.852056 
L 437.261158 177.331983 
L 437.611001 177.404682 
L 437.960844 177.087448 
L 438.310688 177.158187 
L 438.660531 177.398378 
L 439.010374 177.790668 
L 439.360217 177.673758 
L 439.710061 177.360908 
L 440.059904 177.671818 
L 440.409747 177.4662 
L 440.759591 177.428796 
L 441.109434 177.569326 
L 441.459277 177.546279 
L 441.80912 177.915382 
L 442.158964 177.810681 
L 442.85865 178.110901 
L 443.208493 178.166555 
L 443.558337 178.094477 
L 443.90818 178.494665 
L 444.258023 178.181803 
L 444.607866 178.777438 
L 444.95771 178.034988 
L 445.657396 178.678885 
L 446.007239 178.273268 
L 446.357083 178.558078 
L 446.706926 178.645732 
L 447.056769 178.979903 
L 447.406612 178.604421 
L 447.756456 178.72779 
L 448.106299 179.086753 
L 448.456142 179.201082 
L 448.805986 179.159582 
L 449.155829 179.666424 
L 449.505672 178.766806 
L 450.555202 179.450476 
L 450.905045 178.899028 
L 451.254888 178.941914 
L 451.604732 178.499958 
L 451.954575 178.50986 
L 452.304418 178.949115 
L 453.353948 178.963947 
L 453.703791 179.468592 
L 454.053634 178.957596 
L 454.403478 179.146655 
L 454.753321 179.543453 
L 455.103164 179.427571 
L 455.453007 179.127683 
L 455.802851 179.518266 
L 456.152694 179.204089 
L 456.502537 179.222719 
L 456.85238 178.98623 
L 457.552067 179.874376 
L 457.90191 179.517771 
L 458.601597 179.686319 
L 458.95144 179.129207 
L 459.301283 179.487302 
L 459.651127 179.333922 
L 460.00097 179.358981 
L 460.350813 179.26307 
L 460.700656 179.425154 
L 461.0505 179.749735 
L 462.100029 179.776525 
L 462.799716 179.344682 
L 463.149559 179.001729 
L 463.499402 179.286516 
L 463.849246 179.275482 
L 464.199089 179.092813 
L 464.898775 179.884484 
L 465.248619 179.531372 
L 465.948305 179.715287 
L 466.298149 180.303038 
L 466.647992 179.626734 
L 466.997835 179.711593 
L 467.347678 180.147627 
L 467.697522 179.670431 
L 468.047365 179.744088 
L 468.397208 179.947498 
L 469.096895 179.938698 
L 469.446738 180.335198 
L 469.796581 179.565856 
L 470.146424 179.855395 
L 470.496268 179.740909 
L 471.545797 179.74427 
L 471.895641 179.931039 
L 472.245484 179.520946 
L 472.595327 180.09352 
L 472.94517 180.325481 
L 473.295014 180.140308 
L 473.644857 180.371481 
L 473.9947 179.869368 
L 474.344543 179.963973 
L 474.694387 179.778552 
L 475.04423 180.202878 
L 475.394073 179.514326 
L 475.743917 179.482513 
L 476.09376 180.026128 
L 476.443603 179.427368 
L 476.793446 180.162905 
L 477.14329 180.306756 
L 477.493133 180.214288 
L 477.842976 180.380419 
L 478.542663 180.086379 
L 478.892506 180.226138 
L 479.242349 180.13434 
L 479.592192 180.485126 
L 479.942036 179.700224 
L 480.291879 180.485923 
L 480.641722 180.18604 
L 480.991565 180.300664 
L 481.341409 179.763172 
L 481.691252 180.343231 
L 482.041095 180.165772 
L 482.390938 179.744616 
L 482.740782 179.91302 
L 483.090625 180.310773 
L 483.440468 180.22706 
L 483.790312 179.954252 
L 484.140155 180.26877 
L 485.189685 179.54126 
L 485.539528 180.330199 
L 485.889371 179.814204 
L 486.239214 180.189141 
L 486.589058 179.754376 
L 486.938901 179.853491 
L 487.288744 179.818375 
L 487.638587 180.340954 
L 487.988431 179.605927 
L 488.338274 179.87026 
L 489.387804 180.07964 
L 490.437333 179.896924 
L 490.787177 180.110488 
L 491.836707 179.963066 
L 492.18655 179.986136 
L 492.536393 179.786335 
L 492.886236 180.758785 
L 493.23608 180.032607 
L 493.585923 179.725176 
L 493.935766 180.118395 
L 494.635453 180.137444 
L 494.985296 179.824126 
L 495.335139 180.373565 
L 495.684982 180.011501 
L 496.034826 180.842442 
L 496.384669 180.21516 
L 496.734512 179.845933 
L 497.434199 180.704952 
L 497.784042 180.052903 
L 498.133885 180.440301 
L 498.483728 180.109915 
L 498.833572 180.557143 
L 499.183415 179.928409 
L 499.533258 180.445121 
L 499.883101 180.182771 
L 500.232945 180.431568 
L 500.582788 180.367132 
L 500.932631 179.936347 
L 501.282475 179.76118 
L 501.632318 180.23181 
L 501.982161 180.466946 
L 502.681848 180.41052 
L 503.031691 179.999994 
L 503.381534 180.530902 
L 503.731377 180.113117 
L 504.081221 179.963953 
L 505.13075 180.459806 
L 505.480594 180.126073 
L 505.830437 180.086951 
L 506.18028 180.429204 
L 506.530123 179.835401 
L 506.879967 179.932744 
L 507.22981 180.477864 
L 507.929496 180.413045 
L 508.27934 180.786465 
L 508.629183 180.680939 
L 508.979026 181.04021 
L 509.32887 180.618574 
L 509.678713 180.82221 
L 510.028556 181.161888 
L 510.378399 181.009758 
L 510.728243 180.357643 
L 511.078086 181.03261 
L 511.777772 180.65069 
L 512.477459 180.962039 
L 512.827302 180.873817 
L 513.177145 181.058111 
L 513.526989 180.777752 
L 513.876832 180.886168 
L 514.226675 180.622959 
L 514.576518 180.617082 
L 514.926362 180.960957 
L 515.276205 180.67538 
L 515.626048 180.828634 
L 515.975891 180.788095 
L 516.325735 181.055961 
L 516.675578 180.313954 
L 517.025421 180.775309 
L 517.375264 180.938638 
L 517.725108 180.542884 
L 518.424794 181.168604 
L 518.774638 179.688472 
L 519.124481 180.392513 
L 519.474324 178.640427 
L 519.824167 180.57413 
L 520.174011 180.541096 
L 521.22354 179.634978 
L 521.923227 180.678679 
L 522.27307 181.001879 
L 522.622913 179.692597 
L 522.972757 179.872039 
L 523.3226 179.911641 
L 523.672443 179.702042 
L 524.022286 179.916145 
L 524.37213 180.866377 
L 524.721973 181.119183 
L 525.071816 180.870432 
L 525.771503 181.317297 
L 526.471189 181.259107 
L 526.821033 181.713421 
L 527.170876 181.801746 
L 527.520719 181.342694 
L 527.870562 181.740323 
L 528.220406 181.870945 
L 528.920092 181.379809 
L 529.269935 181.10921 
L 529.619779 181.578598 
L 529.969622 181.457262 
L 530.319465 181.756397 
L 530.669308 181.833844 
L 531.019152 181.452956 
L 531.368995 180.758443 
L 531.718838 181.092783 
L 532.068681 181.698405 
L 532.418525 181.772995 
L 532.768368 181.05467 
L 533.118211 181.089973 
L 533.468054 181.50234 
L 533.817898 181.66487 
L 534.167741 181.35546 
L 534.517584 181.225757 
L 534.867428 181.543379 
L 535.916957 181.080672 
L 536.616644 181.726543 
L 536.966487 181.237467 
L 537.31633 181.032272 
L 537.666174 181.377015 
L 538.016017 181.301601 
L 538.36586 181.535514 
L 538.715703 181.258281 
L 539.065547 181.493265 
L 539.765233 181.256666 
L 540.115076 181.513799 
L 540.46492 181.435503 
L 540.814763 181.514314 
L 541.864293 181.189708 
L 542.214136 181.198173 
L 542.563979 180.7601 
L 543.263666 181.34693 
L 543.613509 181.245781 
L 543.963352 181.498462 
L 544.313196 181.550906 
L 545.012882 180.992424 
L 545.362725 181.268454 
L 546.062412 181.035894 
L 546.412255 180.820112 
L 546.762098 181.13928 
L 547.111942 181.229345 
L 547.461785 181.017003 
L 547.811628 180.951223 
L 548.161471 180.76528 
L 548.511315 180.995814 
L 548.861158 180.902129 
L 549.560844 181.354898 
L 550.610374 181.077253 
L 550.960217 181.562308 
L 551.310061 181.129142 
L 552.709434 181.024166 
L 553.059277 180.608327 
L 553.40912 180.84078 
L 553.758964 180.342192 
L 554.45865 180.471055 
L 554.808493 180.088666 
L 555.158337 180.506601 
L 555.858023 180.773344 
L 556.207866 180.569682 
L 556.55771 180.692288 
L 557.257396 180.742516 
L 557.607239 180.806807 
L 557.957083 180.719669 
L 558.306926 180.47129 
L 559.006612 181.015355 
L 559.356456 180.70871 
L 560.056142 180.550199 
L 560.755829 180.648926 
L 561.105672 180.427252 
L 562.155202 180.915069 
L 562.854888 180.821858 
L 563.204732 180.62099 
L 563.554575 181.404136 
L 563.904418 180.454013 
L 564.254261 180.56572 
L 564.604105 180.270258 
L 565.303791 180.815892 
L 565.653634 180.959847 
L 566.003478 180.681966 
L 566.353321 180.77097 
L 566.703164 180.436864 
L 567.402851 181.367257 
L 567.752694 181.425191 
L 568.102537 180.975402 
L 568.45238 181.394564 
L 568.802224 181.243575 
L 569.851754 181.439895 
L 570.901283 181.038546 
L 571.251127 181.078359 
L 571.60097 180.805165 
L 571.950813 181.109987 
L 572.300656 180.894622 
L 572.6505 180.885497 
L 573.000343 181.030231 
L 573.700029 180.582459 
L 574.049873 180.5819 
L 574.399716 181.301521 
L 575.449246 180.850515 
L 575.799089 180.596543 
L 576.148932 181.03422 
L 576.498775 180.387739 
L 576.848619 180.595513 
L 577.198462 180.992694 
L 577.548305 180.906266 
L 578.247992 180.964894 
L 578.597835 180.463233 
L 578.947678 180.413894 
L 579.297522 180.688925 
L 579.647365 180.572082 
L 580.347051 180.593941 
L 580.696895 180.817773 
L 581.046738 180.273597 
L 581.746424 180.300158 
L 582.096268 180.730083 
L 582.795954 181.065862 
L 583.145797 181.07676 
L 583.495641 180.729234 
L 583.845484 181.182576 
L 584.195327 181.067842 
L 584.54517 181.205744 
L 585.5947 180.753324 
L 586.294387 181.150151 
L 586.64423 180.58805 
L 586.994073 181.350497 
L 587.343917 180.81243 
L 587.69376 180.63374 
L 588.393446 181.003007 
L 588.74329 181.941892 
L 589.442976 181.543051 
L 589.792819 181.754085 
L 590.142663 181.610898 
L 590.492506 180.954346 
L 590.842349 181.59882 
L 591.192192 181.325681 
L 591.542036 181.27557 
L 591.891879 181.004722 
L 592.241722 181.055718 
L 592.591565 180.747448 
L 592.941409 181.066094 
L 593.291252 181.051048 
L 593.641095 181.267209 
L 594.340782 180.62789 
L 594.690625 181.382941 
L 595.040468 180.932179 
L 595.390312 180.82115 
L 596.089998 180.968331 
L 596.439841 180.532245 
L 596.789685 180.797535 
L 597.139528 180.77279 
L 597.489371 180.5937 
L 597.839214 180.66505 
L 598.189058 181.171911 
L 598.888744 180.830612 
L 599.238587 181.058228 
L 599.588431 180.702383 
L 599.938274 181.53683 
L 600.288117 180.985928 
L 600.63796 180.681202 
L 601.337647 180.754547 
L 601.68749 180.449857 
L 602.037333 180.816854 
L 602.387177 180.729683 
L 602.73702 181.090441 
L 603.086863 180.750473 
L 603.78655 180.964601 
L 604.136393 180.968534 
L 604.486236 181.427189 
L 604.83608 181.365353 
L 605.185923 181.070849 
L 605.535766 181.437569 
L 606.235453 181.191414 
L 606.935139 181.239322 
L 607.284982 181.198415 
L 607.984669 181.561854 
L 608.684355 181.654299 
L 609.034199 181.167515 
L 609.384042 181.02352 
L 610.083728 180.99732 
L 610.433572 180.830116 
L 610.783415 181.266327 
L 611.133258 180.895491 
L 611.483101 181.437192 
L 612.182788 180.6598 
L 612.532631 180.863089 
L 612.882475 180.926796 
L 613.232318 181.188622 
L 613.582161 181.30559 
L 613.932004 180.611412 
L 614.281848 181.089032 
L 614.631691 180.353987 
L 614.981534 180.85321 
L 615.331377 180.702608 
L 615.681221 181.158002 
L 616.031064 181.162582 
L 616.380907 181.017174 
L 616.73075 181.091327 
L 617.430437 180.642218 
L 618.130123 180.970936 
L 618.479967 180.304453 
L 618.82981 181.094927 
L 619.529496 180.995537 
L 619.87934 180.782287 
L 620.229183 180.924361 
L 620.579026 180.891018 
L 620.92887 180.308226 
L 621.278713 180.384108 
L 621.628556 180.216092 
L 621.978399 180.419858 
L 622.328243 180.373463 
L 622.678086 180.09461 
L 623.027929 180.283628 
L 623.377772 180.695648 
L 623.727616 180.275217 
L 624.077459 180.355095 
L 624.427302 180.752406 
L 625.126989 180.686666 
L 625.126989 180.686666 
" clip-path="url(#p3baa0029da)" style="fill: none; stroke: #1f77b4; stroke-width: 1.5; stroke-linecap: square"/>
   </g>
   <g id="line2d_15">
    <path d="M 117.854261 296.03625 
L 118.204105 293.670519 
L 118.553948 246.011862 
L 118.903791 269.986081 
L 119.253634 278.80496 
L 119.603478 248.797222 
L 119.953321 230.620247 
L 120.303164 249.231156 
L 120.653007 223.688053 
L 121.002851 220.004876 
L 121.352694 208.447941 
L 121.702537 211.42837 
L 122.05238 210.881812 
L 122.402224 207.172589 
L 122.752067 205.397716 
L 123.10191 204.796222 
L 123.451754 201.902029 
L 123.801597 204.825475 
L 124.15144 199.039532 
L 124.501283 198.542908 
L 124.851127 192.649877 
L 125.20097 193.698227 
L 125.550813 192.006893 
L 125.900656 194.531603 
L 126.2505 193.321072 
L 126.600343 195.950344 
L 126.950186 197.127018 
L 127.300029 197.851664 
L 127.649873 197.33166 
L 127.999716 192.321801 
L 128.349559 190.967719 
L 128.699402 193.33488 
L 129.049246 192.207896 
L 129.748932 192.261632 
L 130.098775 189.654198 
L 130.798462 191.107552 
L 131.847992 192.268471 
L 132.547678 187.000513 
L 132.897522 188.560084 
L 133.247365 190.703189 
L 133.597208 191.730823 
L 133.947051 190.152641 
L 134.296895 189.313256 
L 134.646738 190.141136 
L 134.996581 189.859756 
L 135.346424 189.199789 
L 135.696268 188.181538 
L 136.046111 189.724939 
L 136.395954 185.408925 
L 136.745797 186.78425 
L 137.095641 189.527407 
L 137.445484 190.100574 
L 137.795327 186.043988 
L 138.14517 188.646009 
L 138.495014 187.302461 
L 138.844857 187.322897 
L 139.1947 188.79512 
L 139.544543 187.482793 
L 139.894387 184.947255 
L 140.24423 187.693612 
L 140.594073 186.691977 
L 140.943917 188.118964 
L 141.29376 188.999593 
L 141.993446 186.831658 
L 142.34329 188.620825 
L 142.693133 188.360617 
L 143.042976 188.945293 
L 143.392819 187.132025 
L 143.742663 186.201876 
L 144.092506 188.283568 
L 144.792192 187.196792 
L 145.142036 186.938449 
L 145.491879 187.869209 
L 145.841722 189.448849 
L 146.191565 186.718774 
L 146.541409 187.926137 
L 146.891252 188.029027 
L 147.241095 190.577963 
L 147.590938 188.203017 
L 147.940782 187.138785 
L 148.290625 187.142223 
L 148.640468 186.650825 
L 148.990312 187.646986 
L 149.340155 189.119807 
L 149.689998 187.357287 
L 150.389685 186.780915 
L 151.089371 187.368904 
L 151.789058 186.468459 
L 152.138901 186.8359 
L 152.488744 186.971379 
L 152.838587 186.899701 
L 153.188431 185.093429 
L 153.888117 187.794619 
L 154.23796 185.873828 
L 154.587804 187.042895 
L 154.937647 187.159686 
L 155.28749 186.253183 
L 155.637333 188.14548 
L 155.987177 186.173962 
L 156.33702 185.537409 
L 156.686863 184.507913 
L 157.036707 185.289264 
L 157.38655 185.491353 
L 158.086236 185.50605 
L 158.43608 186.706911 
L 159.485609 186.282175 
L 159.835453 187.690941 
L 160.185296 187.862135 
L 160.535139 187.247781 
L 160.884982 187.676233 
L 161.234826 187.559511 
L 161.584669 186.670892 
L 161.934512 186.806549 
L 162.284355 187.357622 
L 162.634199 185.867307 
L 162.984042 187.427715 
L 163.333885 187.569171 
L 163.683728 186.07568 
L 164.033572 187.16852 
L 164.383415 186.5731 
L 165.083101 187.488045 
L 165.432945 188.414262 
L 165.782788 186.39198 
L 166.132631 186.976814 
L 166.482475 187.007496 
L 166.832318 187.455282 
L 167.182161 187.062753 
L 167.532004 187.688059 
L 167.881848 188.913983 
L 168.231691 187.573495 
L 168.931377 187.191744 
L 169.281221 188.389262 
L 169.631064 187.798525 
L 169.980907 188.176457 
L 170.33075 187.385669 
L 170.680594 187.75249 
L 171.030437 188.699782 
L 171.38028 187.992732 
L 172.079967 187.416289 
L 172.42981 187.418395 
L 172.779653 188.303428 
L 173.129496 188.623496 
L 173.47934 187.288899 
L 173.829183 187.427393 
L 174.179026 186.829265 
L 175.228556 187.035494 
L 175.578399 187.28354 
L 175.928243 186.891307 
L 176.278086 186.72 
L 176.627929 188.287451 
L 176.977772 187.859376 
L 177.327616 187.743438 
L 177.677459 188.356273 
L 178.027302 188.02346 
L 178.377145 188.876462 
L 178.726989 188.073269 
L 179.076832 188.013018 
L 179.426675 188.164853 
L 180.126362 188.680438 
L 180.476205 188.271192 
L 180.826048 187.5247 
L 181.175891 188.341547 
L 181.525735 188.324353 
L 181.875578 189.009177 
L 182.225421 188.05667 
L 182.575264 188.160156 
L 183.274951 187.39402 
L 183.624794 188.24029 
L 183.974638 188.117727 
L 184.324481 188.362317 
L 185.024167 187.579802 
L 185.374011 188.523492 
L 185.723854 187.779426 
L 186.073697 188.004608 
L 186.42354 188.050907 
L 186.773384 187.705057 
L 187.47307 188.714194 
L 187.822913 188.091426 
L 188.5226 188.372829 
L 188.872443 187.862224 
L 189.57213 189.328308 
L 189.921973 188.385363 
L 190.271816 188.20942 
L 190.621659 187.831949 
L 190.971503 189.396933 
L 191.321346 188.005285 
L 191.671189 188.784901 
L 192.021033 187.040929 
L 192.370876 188.521028 
L 192.720719 188.971472 
L 193.070562 189.738808 
L 193.420406 189.229262 
L 193.770249 189.357389 
L 194.120092 188.446275 
L 194.469935 187.861986 
L 194.819779 189.002622 
L 195.169622 188.464863 
L 195.519465 188.759545 
L 195.869308 188.493274 
L 196.568995 187.552388 
L 196.918838 188.515434 
L 197.268681 187.482559 
L 197.618525 188.208671 
L 197.968368 188.294128 
L 198.318211 188.216891 
L 198.668054 187.922589 
L 199.017898 188.012822 
L 199.367741 187.853364 
L 199.717584 187.512304 
L 200.417271 188.52519 
L 200.767114 188.286137 
L 201.116957 188.223808 
L 201.466801 188.930585 
L 201.816644 188.287846 
L 202.166487 187.929877 
L 202.51633 188.750086 
L 202.866174 188.931987 
L 203.216017 188.828422 
L 203.56586 187.992121 
L 204.265547 188.912342 
L 204.965233 188.581938 
L 205.315076 188.857937 
L 205.66492 188.733222 
L 206.014763 188.460897 
L 206.714449 189.477394 
L 207.064293 189.028242 
L 207.414136 189.131799 
L 207.763979 188.861658 
L 208.113822 189.526858 
L 208.463666 189.535713 
L 209.163352 188.843236 
L 209.513196 188.902469 
L 209.863039 188.297058 
L 210.212882 189.54924 
L 210.562725 188.985136 
L 211.612255 189.774629 
L 211.962098 189.788429 
L 212.661785 189.519565 
L 213.011628 190.233118 
L 213.361471 189.702311 
L 213.711315 189.514199 
L 214.061158 190.08353 
L 214.411001 190.008336 
L 214.760844 189.565447 
L 215.110688 189.583096 
L 215.460531 190.037254 
L 215.810374 189.91953 
L 216.510061 190.246258 
L 216.859904 188.569576 
L 217.559591 189.990945 
L 217.909434 189.358044 
L 218.259277 189.515732 
L 218.60912 190.11674 
L 218.958964 190.121262 
L 219.308807 190.574514 
L 219.65865 190.013054 
L 220.358337 190.082704 
L 221.058023 189.159987 
L 221.407866 189.122912 
L 221.75771 190.043139 
L 222.107553 189.066995 
L 222.457396 189.494748 
L 222.807239 189.70741 
L 223.157083 189.284489 
L 223.506926 188.605509 
L 223.856769 188.988014 
L 224.206612 188.617698 
L 224.556456 189.643596 
L 224.906299 189.470632 
L 225.256142 188.767958 
L 225.955829 188.195484 
L 226.305672 189.182142 
L 226.655515 189.285755 
L 227.005359 188.604241 
L 227.355202 188.630051 
L 228.054888 189.001234 
L 228.404732 188.555197 
L 228.754575 188.711234 
L 229.104418 188.331132 
L 229.454261 188.216426 
L 229.804105 188.946966 
L 230.153948 188.868593 
L 230.503791 186.61303 
L 230.853634 187.3314 
L 231.203478 187.278921 
L 231.553321 188.626443 
L 231.903164 188.356777 
L 232.253007 188.236927 
L 232.602851 189.014136 
L 232.952694 188.35781 
L 233.302537 188.732627 
L 233.65238 188.594183 
L 234.352067 187.977919 
L 234.70191 188.852699 
L 235.051754 188.838792 
L 235.401597 188.572765 
L 235.75144 187.58102 
L 236.101283 188.035673 
L 236.451127 188.068834 
L 236.80097 188.700876 
L 237.150813 188.052588 
L 237.500656 188.169167 
L 237.8505 188.687222 
L 238.200343 187.943018 
L 238.550186 188.021358 
L 238.900029 188.77915 
L 239.249873 187.496709 
L 239.599716 188.089395 
L 239.949559 188.053076 
L 240.299402 188.150853 
L 241.348932 187.922646 
L 241.698775 186.703195 
L 242.048619 187.536367 
L 242.398462 188.008924 
L 243.098149 187.626979 
L 243.447992 187.479456 
L 243.797835 187.854597 
L 244.147678 188.015779 
L 244.847365 187.371093 
L 245.547051 187.613359 
L 245.896895 187.426125 
L 246.246738 187.772992 
L 247.296268 187.031821 
L 247.646111 187.559654 
L 247.995954 187.190519 
L 248.345797 187.5633 
L 248.695641 187.427299 
L 249.045484 187.129459 
L 249.74517 187.940556 
L 250.095014 187.680124 
L 250.444857 187.68277 
L 250.7947 187.422893 
L 251.144543 187.429192 
L 251.494387 187.247293 
L 251.84423 187.229189 
L 252.194073 187.632436 
L 252.543917 187.059433 
L 252.89376 186.9121 
L 253.243603 187.470026 
L 253.593446 186.911189 
L 253.94329 186.861304 
L 254.642976 188.172784 
L 254.992819 188.13753 
L 255.342663 186.583549 
L 256.042349 187.521703 
L 256.392192 186.950001 
L 256.742036 187.320842 
L 257.091879 187.351116 
L 257.441722 187.18988 
L 257.791565 187.486731 
L 258.141409 187.064197 
L 258.491252 188.068991 
L 258.841095 187.438666 
L 259.190938 187.525588 
L 259.540782 187.213787 
L 259.890625 187.064928 
L 260.240468 187.534254 
L 260.590312 186.999843 
L 260.940155 186.926129 
L 261.639841 187.337595 
L 261.989685 187.268334 
L 262.339528 187.325297 
L 263.039214 188.006475 
L 263.389058 187.257402 
L 263.738901 187.061195 
L 264.088744 187.293884 
L 264.438587 187.793211 
L 264.788431 187.372868 
L 265.138274 187.207817 
L 265.488117 187.337196 
L 265.83796 187.697688 
L 266.187804 187.695944 
L 266.88749 187.27155 
L 267.237333 187.498069 
L 267.587177 186.499071 
L 267.93702 187.45085 
L 268.286863 187.487471 
L 268.98655 187.079629 
L 269.336393 187.896338 
L 269.686236 188.090981 
L 270.03608 187.424129 
L 270.385923 187.19887 
L 270.735766 187.659776 
L 271.085609 187.411044 
L 271.435453 188.069676 
L 272.135139 187.84988 
L 272.484982 187.070756 
L 272.834826 187.950427 
L 273.534512 187.633012 
L 273.884355 188.045176 
L 274.234199 187.762842 
L 274.584042 188.078089 
L 274.933885 187.860503 
L 275.283728 187.220608 
L 275.633572 187.392386 
L 276.333258 187.36011 
L 276.683101 187.501666 
L 277.032945 187.962535 
L 277.382788 188.130643 
L 277.732631 187.961241 
L 278.082475 188.060456 
L 278.432318 187.395321 
L 278.782161 188.152944 
L 279.481848 187.777553 
L 279.831691 188.221934 
L 280.181534 188.327467 
L 280.531377 187.334414 
L 280.881221 187.575282 
L 281.231064 187.386209 
L 281.580907 187.621626 
L 282.280594 187.691807 
L 282.630437 187.598309 
L 282.98028 187.866171 
L 283.330123 188.502235 
L 283.679967 187.314569 
L 284.02981 187.493962 
L 284.379653 187.450727 
L 284.729496 187.814029 
L 285.07934 187.417195 
L 285.429183 187.974649 
L 286.12887 187.508638 
L 286.478713 187.346572 
L 286.828556 187.041069 
L 287.178399 187.641585 
L 287.528243 186.948475 
L 288.577772 187.407369 
L 288.927616 187.783451 
L 289.277459 186.782889 
L 289.627302 186.524814 
L 289.977145 187.174069 
L 290.326989 186.954514 
L 291.026675 187.170452 
L 291.376518 186.948924 
L 291.726362 187.357923 
L 292.076205 186.64722 
L 292.426048 186.591312 
L 292.775891 187.170567 
L 293.125735 186.922178 
L 293.475578 187.859855 
L 293.825421 187.608934 
L 294.175264 186.862467 
L 294.525108 187.229374 
L 294.874951 187.81697 
L 295.224794 187.636123 
L 295.574638 187.21291 
L 295.924481 187.445551 
L 296.274324 188.112018 
L 296.624167 187.574905 
L 296.974011 188.25343 
L 297.673697 187.376497 
L 298.02354 187.700975 
L 298.373384 187.308583 
L 299.07307 187.314403 
L 299.422913 186.835633 
L 299.772757 187.844397 
L 300.822286 187.208921 
L 301.17213 186.666028 
L 301.521973 187.334858 
L 301.871816 186.874302 
L 302.571503 187.869404 
L 302.921346 187.228491 
L 303.271189 187.823869 
L 303.621033 187.239268 
L 303.970876 187.020496 
L 304.320719 187.197063 
L 304.670562 187.932748 
L 305.020406 187.430735 
L 305.370249 187.394432 
L 305.720092 187.476013 
L 306.069935 187.297475 
L 306.419779 187.682553 
L 307.119465 187.372028 
L 307.469308 187.628201 
L 307.819152 186.783212 
L 308.168995 187.074856 
L 308.518838 186.839405 
L 308.868681 187.515935 
L 309.218525 187.763284 
L 309.568368 187.505691 
L 309.918211 186.969055 
L 310.268054 187.109494 
L 310.617898 187.535298 
L 310.967741 187.599074 
L 311.317584 187.05674 
L 311.667428 187.478947 
L 312.017271 186.890404 
L 312.367114 187.426476 
L 312.716957 186.929427 
L 313.416644 187.451987 
L 313.766487 187.646823 
L 314.11633 187.341754 
L 314.816017 187.365084 
L 315.16586 188.043789 
L 315.515703 187.491406 
L 315.865547 187.225406 
L 316.915076 187.781165 
L 317.26492 187.21531 
L 317.614763 187.431781 
L 317.964606 187.030991 
L 318.314449 187.667348 
L 318.664293 187.632509 
L 319.014136 187.483169 
L 319.363979 187.892397 
L 319.713822 188.030297 
L 320.063666 187.892854 
L 320.413509 187.209789 
L 320.763352 187.498252 
L 321.113196 187.144424 
L 321.463039 187.409736 
L 321.812882 187.265258 
L 322.162725 187.92355 
L 322.512569 187.202294 
L 322.862412 188.344075 
L 323.212255 187.628879 
L 323.562098 187.287634 
L 323.911942 187.250385 
L 324.261785 187.988552 
L 324.611628 187.071004 
L 324.961471 187.082474 
L 325.311315 187.294689 
L 325.661158 187.221526 
L 326.011001 187.028633 
L 326.360844 185.158508 
L 326.710688 184.299615 
L 327.060531 184.500074 
L 327.410374 185.277536 
L 328.110061 185.268716 
L 328.459904 185.015152 
L 328.809747 185.796076 
L 329.159591 185.957616 
L 329.509434 185.848003 
L 330.20912 185.892563 
L 330.908807 185.735179 
L 331.25865 186.276245 
L 331.608493 185.92426 
L 331.958337 186.247262 
L 332.30818 186.411477 
L 332.658023 185.734071 
L 333.007866 185.479624 
L 333.35771 185.718253 
L 333.707553 185.690473 
L 334.057396 186.112403 
L 334.407239 186.273486 
L 334.757083 186.295534 
L 335.106926 185.989211 
L 335.456769 186.997044 
L 336.156456 186.170765 
L 336.506299 185.977352 
L 337.205986 186.875185 
L 337.555829 185.986072 
L 337.905672 185.923514 
L 338.255515 186.399051 
L 338.605359 186.190623 
L 338.955202 186.267194 
L 339.305045 186.775894 
L 339.654888 186.365425 
L 340.004732 186.908483 
L 340.354575 186.091172 
L 340.704418 185.744954 
L 341.054261 186.419137 
L 341.404105 186.485364 
L 341.753948 186.161955 
L 342.103791 186.35255 
L 343.503164 186.435734 
L 343.853007 186.270934 
L 344.202851 186.280163 
L 344.552694 186.571571 
L 344.902537 186.277754 
L 345.25238 186.138949 
L 345.602224 186.467975 
L 345.952067 186.182124 
L 346.30191 186.297055 
L 347.001597 186.071706 
L 347.35144 185.619711 
L 347.701283 186.231998 
L 348.051127 186.019974 
L 348.40097 186.273818 
L 349.4505 186.389846 
L 349.800343 186.049325 
L 350.150186 186.585675 
L 350.500029 185.907984 
L 350.849873 185.839286 
L 351.549559 185.906247 
L 351.899402 186.203396 
L 352.249246 186.185789 
L 353.298775 186.534952 
L 353.648619 186.425753 
L 353.998462 187.20929 
L 354.348305 186.719798 
L 354.698149 186.52465 
L 355.047992 186.153964 
L 355.397835 186.784297 
L 355.747678 186.40804 
L 356.447365 186.201713 
L 356.797208 186.48308 
L 358.196581 186.353096 
L 358.896268 186.642501 
L 359.246111 186.526376 
L 359.595954 185.881085 
L 359.945797 185.85757 
L 360.645484 186.964825 
L 360.995327 187.053255 
L 361.34517 186.680356 
L 361.695014 186.720612 
L 362.044857 186.554846 
L 362.3947 186.154126 
L 363.094387 186.243824 
L 363.44423 186.221894 
L 363.794073 185.734358 
L 364.143917 186.339099 
L 364.49376 186.253976 
L 364.843603 186.357352 
L 365.193446 186.635677 
L 365.54329 186.454912 
L 365.893133 186.401728 
L 366.242976 186.75468 
L 366.592819 186.846287 
L 366.942663 186.299263 
L 367.292506 186.117263 
L 367.642349 186.345605 
L 367.992192 186.360191 
L 368.342036 186.623006 
L 368.691879 186.388703 
L 369.041722 186.617551 
L 369.391565 186.09062 
L 369.741409 186.586596 
L 370.091252 186.190007 
L 370.441095 186.660059 
L 370.790938 186.198314 
L 371.140782 186.091641 
L 371.840468 185.492679 
L 372.190312 185.887332 
L 372.889998 186.26005 
L 373.589685 185.864112 
L 373.939528 186.417145 
L 374.289371 186.632897 
L 374.639214 185.933708 
L 374.989058 186.047637 
L 375.338901 186.288551 
L 375.688744 185.935597 
L 376.038587 186.265923 
L 376.388431 185.779064 
L 376.738274 186.225575 
L 377.088117 186.262343 
L 377.43796 186.175022 
L 378.137647 186.227135 
L 378.48749 186.45161 
L 378.837333 185.973284 
L 379.187177 186.244271 
L 379.53702 186.168642 
L 379.886863 185.807737 
L 380.236707 185.955103 
L 380.58655 185.719193 
L 380.936393 185.649423 
L 381.286236 185.813152 
L 381.63608 185.62288 
L 381.985923 185.698558 
L 382.335766 186.135217 
L 382.685609 186.148878 
L 383.035453 185.919774 
L 383.385296 186.061994 
L 383.735139 185.963711 
L 384.084982 186.235315 
L 385.484355 185.818094 
L 385.834199 185.097689 
L 386.184042 185.180212 
L 386.533885 185.592678 
L 386.883728 185.437189 
L 387.233572 185.40739 
L 387.583415 185.814178 
L 387.933258 185.288091 
L 388.283101 185.297282 
L 388.632945 185.748318 
L 388.982788 186.011659 
L 389.332631 185.750687 
L 389.682475 185.921088 
L 390.382161 185.553697 
L 390.732004 185.815104 
L 391.081848 186.233264 
L 391.431691 186.316116 
L 391.781534 186.106491 
L 392.131377 186.302507 
L 392.831064 186.116011 
L 393.180907 186.737963 
L 393.53075 186.254033 
L 393.880594 186.364181 
L 394.230437 186.005004 
L 395.279967 185.818936 
L 395.62981 186.107107 
L 396.329496 186.203682 
L 396.67934 185.955973 
L 397.029183 186.32537 
L 397.379026 185.95286 
L 397.72887 186.028157 
L 398.078713 185.742714 
L 398.428556 185.72313 
L 398.778399 186.013151 
L 399.478086 185.709862 
L 400.177772 185.929628 
L 400.527616 185.404373 
L 400.877459 185.736935 
L 401.227302 186.478309 
L 401.577145 185.97255 
L 401.926989 186.223972 
L 402.276832 185.852485 
L 402.976518 186.277131 
L 403.326362 186.02464 
L 403.676205 186.005793 
L 404.026048 185.790291 
L 404.375891 185.379349 
L 404.725735 185.745231 
L 405.425421 185.577989 
L 405.775264 185.490213 
L 406.125108 185.71399 
L 406.474951 185.547125 
L 406.824794 186.376341 
L 407.174638 185.685145 
L 407.524481 185.437634 
L 407.874324 185.782203 
L 408.224167 185.450856 
L 408.574011 185.439633 
L 409.273697 185.955089 
L 409.62354 185.591906 
L 410.323227 185.952991 
L 410.67307 185.654438 
L 411.022913 185.861792 
L 411.372757 185.674963 
L 411.7226 185.971651 
L 412.072443 186.050419 
L 412.422286 185.671561 
L 412.77213 185.714797 
L 413.121973 185.910593 
L 413.471816 185.816853 
L 413.821659 185.941182 
L 414.171503 185.56361 
L 414.521346 185.856095 
L 414.871189 185.937247 
L 415.221033 185.525211 
L 415.920719 185.502809 
L 416.270562 185.799641 
L 416.620406 185.316523 
L 416.970249 185.723265 
L 417.320092 185.748763 
L 417.669935 185.469673 
L 418.019779 186.073279 
L 418.369622 185.85243 
L 418.719465 186.304317 
L 419.069308 185.806278 
L 419.419152 185.647092 
L 419.768995 185.774718 
L 420.118838 185.772281 
L 420.468681 185.331673 
L 420.818525 185.665762 
L 421.168368 185.342823 
L 422.217898 186.082109 
L 422.567741 186.089877 
L 422.917584 184.787684 
L 423.267428 185.59565 
L 423.967114 185.976348 
L 424.316957 185.979838 
L 424.666801 185.464481 
L 425.366487 185.766317 
L 425.71633 185.304157 
L 426.066174 185.241858 
L 426.416017 185.630348 
L 427.115703 185.863152 
L 427.465547 185.674776 
L 427.81539 185.842227 
L 428.165233 185.839063 
L 428.515076 185.343559 
L 429.214763 185.748516 
L 429.564606 185.667737 
L 429.914449 185.860776 
L 430.264293 185.722093 
L 430.614136 185.396313 
L 431.313822 185.501576 
L 431.663666 185.122117 
L 432.013509 185.89944 
L 432.363352 185.378716 
L 432.713196 185.717443 
L 433.063039 185.3795 
L 433.412882 185.614582 
L 434.112569 185.826792 
L 434.462412 185.921637 
L 435.162098 185.273631 
L 435.511942 185.393312 
L 435.861785 185.974657 
L 436.211628 184.983217 
L 436.911315 185.771134 
L 437.261158 185.812377 
L 437.611001 185.487687 
L 438.310688 185.658713 
L 438.660531 185.350863 
L 439.010374 185.208361 
L 439.360217 185.581589 
L 439.710061 185.215886 
L 440.059904 185.230168 
L 440.759591 184.996668 
L 441.459277 185.660728 
L 441.80912 185.400554 
L 442.158964 185.493324 
L 442.85865 185.242921 
L 443.208493 185.382258 
L 443.558337 185.666778 
L 444.258023 185.047268 
L 444.95771 185.643121 
L 445.307553 185.291113 
L 445.657396 185.600169 
L 446.007239 185.163958 
L 446.357083 185.262357 
L 446.706926 185.641168 
L 447.056769 185.21704 
L 447.406612 185.502371 
L 447.756456 185.237078 
L 448.106299 185.503319 
L 448.456142 184.951404 
L 448.805986 185.278299 
L 449.155829 185.06473 
L 449.505672 185.618755 
L 450.555202 184.901788 
L 450.905045 185.055061 
L 451.254888 185.341415 
L 451.604732 185.35212 
L 451.954575 185.230386 
L 452.304418 185.557566 
L 452.654261 185.138828 
L 453.353948 185.212811 
L 453.703791 185.110931 
L 454.053634 184.766846 
L 454.403478 185.098531 
L 454.753321 184.858957 
L 455.103164 185.366991 
L 455.453007 184.832966 
L 455.802851 185.304899 
L 456.152694 185.348768 
L 456.502537 185.019933 
L 456.85238 184.066157 
L 457.202224 184.953365 
L 457.552067 185.029033 
L 457.90191 184.580125 
L 458.601597 184.812666 
L 458.95144 185.011276 
L 459.301283 185.488328 
L 459.651127 184.839575 
L 460.00097 185.246628 
L 460.350813 185.46906 
L 461.0505 184.708155 
L 461.400343 184.612363 
L 461.750186 185.073962 
L 462.100029 185.00207 
L 462.449873 184.667401 
L 462.799716 185.660946 
L 463.149559 185.387543 
L 463.849246 184.554148 
L 464.898775 184.994997 
L 465.248619 184.615874 
L 465.948305 185.217749 
L 466.298149 184.890171 
L 466.647992 185.107049 
L 466.997835 184.634478 
L 468.397208 185.260286 
L 468.747051 184.963435 
L 469.096895 185.088686 
L 469.446738 184.95617 
L 469.796581 185.05309 
L 470.146424 185.289761 
L 470.496268 185.137012 
L 470.846111 185.338344 
L 471.545797 184.990153 
L 472.595327 185.089635 
L 472.94517 185.092262 
L 473.295014 184.908988 
L 473.644857 184.89784 
L 473.9947 185.154122 
L 474.344543 185.214908 
L 474.694387 185.076644 
L 475.04423 185.285548 
L 475.394073 185.064083 
L 475.743917 185.229144 
L 476.09376 184.883728 
L 476.443603 184.752453 
L 476.793446 185.124473 
L 477.14329 184.638999 
L 477.493133 184.873653 
L 477.842976 185.464575 
L 478.192819 185.312124 
L 478.892506 185.285787 
L 479.242349 185.473608 
L 479.592192 184.54076 
L 480.291879 185.16694 
L 480.641722 184.770681 
L 480.991565 184.939562 
L 481.341409 184.880314 
L 481.691252 185.155055 
L 482.041095 184.841595 
L 482.390938 185.55881 
L 482.740782 185.067812 
L 483.090625 184.951094 
L 483.440468 185.066114 
L 483.790312 184.687902 
L 484.140155 184.900511 
L 484.489998 184.912242 
L 484.839841 184.660179 
L 485.539528 184.620449 
L 485.889371 184.937311 
L 486.239214 184.615958 
L 486.589058 184.728864 
L 486.938901 184.961336 
L 487.638587 184.537369 
L 488.688117 184.902272 
L 489.03796 185.005211 
L 489.387804 184.782223 
L 489.737647 184.413976 
L 490.08749 184.733595 
L 490.787177 184.808739 
L 491.13702 185.145023 
L 491.486863 184.699711 
L 491.836707 184.865599 
L 492.18655 184.612051 
L 492.536393 185.049187 
L 493.23608 185.289952 
L 493.585923 184.809121 
L 493.935766 185.01908 
L 494.285609 184.829658 
L 494.635453 184.945658 
L 495.335139 184.921307 
L 495.684982 185.744583 
L 496.034826 185.289857 
L 497.084355 185.204668 
L 497.434199 185.02375 
L 497.784042 185.851191 
L 498.133885 185.202026 
L 498.483728 185.299428 
L 498.833572 185.258903 
L 499.183415 185.765713 
L 499.533258 185.017931 
L 499.883101 185.223402 
L 500.232945 184.843359 
L 500.582788 185.161111 
L 500.932631 184.758296 
L 501.282475 184.801805 
L 501.632318 185.203225 
L 501.982161 184.830448 
L 502.332004 185.276529 
L 502.681848 185.156063 
L 503.031691 185.401703 
L 503.381534 185.368559 
L 503.731377 185.039974 
L 504.081221 185.364377 
L 504.431064 185.372773 
L 504.780907 185.124982 
L 505.830437 185.338046 
L 506.18028 185.160352 
L 506.530123 185.622062 
L 506.879967 185.638071 
L 507.22981 184.985756 
L 507.579653 185.545884 
L 507.929496 185.73752 
L 508.27934 185.255421 
L 508.979026 185.100956 
L 509.32887 185.390662 
L 510.028556 185.383446 
L 510.378399 185.138582 
L 510.728243 185.081053 
L 511.078086 185.36929 
L 511.427929 185.155861 
L 511.777772 185.25123 
L 512.477459 184.964765 
L 512.827302 184.843631 
L 513.177145 185.11617 
L 513.526989 184.955133 
L 513.876832 185.018476 
L 514.226675 184.872595 
L 514.576518 185.073209 
L 514.926362 184.859193 
L 515.276205 185.007464 
L 515.626048 184.919116 
L 515.975891 185.160708 
L 516.675578 184.992052 
L 517.025421 185.448633 
L 517.375264 185.129941 
L 517.725108 185.317515 
L 518.074951 185.290708 
L 518.424794 184.780939 
L 518.774638 180.036991 
L 519.124481 182.56178 
L 519.474324 183.98074 
L 519.824167 183.608499 
L 520.174011 183.802444 
L 520.523854 182.828187 
L 520.873697 183.003421 
L 521.22354 182.664868 
L 521.573384 182.660828 
L 521.923227 182.797474 
L 522.622913 182.332724 
L 522.972757 182.871875 
L 523.3226 182.77053 
L 523.672443 182.828017 
L 524.022286 183.259699 
L 524.37213 183.433791 
L 524.721973 183.009316 
L 525.771503 183.394681 
L 526.121346 183.724366 
L 526.821033 183.204305 
L 527.170876 183.679701 
L 527.870562 183.20975 
L 528.220406 183.655039 
L 528.570249 183.597079 
L 528.920092 183.933037 
L 529.269935 183.533879 
L 529.619779 183.312294 
L 529.969622 183.714128 
L 530.319465 183.471159 
L 530.669308 183.50005 
L 531.019152 183.830161 
L 531.368995 184.314002 
L 531.718838 183.612529 
L 532.068681 183.560315 
L 532.768368 183.656162 
L 533.118211 183.468498 
L 533.468054 183.717202 
L 533.817898 184.223634 
L 534.167741 183.773258 
L 534.517584 183.63697 
L 535.217271 184.015264 
L 535.916957 183.788114 
L 536.266801 183.96905 
L 536.616644 183.494329 
L 536.966487 183.749704 
L 537.31633 183.728994 
L 537.666174 183.879491 
L 538.36586 183.43429 
L 539.065547 183.806607 
L 539.41539 183.222694 
L 539.765233 183.761326 
L 540.115076 183.553487 
L 540.46492 183.785491 
L 541.514449 183.709997 
L 541.864293 183.463813 
L 542.214136 183.723789 
L 542.563979 183.340668 
L 542.913822 183.923346 
L 543.263666 183.457319 
L 543.613509 183.66021 
L 544.313196 183.269472 
L 545.362725 183.935596 
L 545.712569 183.566451 
L 546.412255 183.387112 
L 546.762098 183.70615 
L 547.111942 183.314692 
L 547.461785 183.848061 
L 547.811628 183.628863 
L 548.161471 183.181817 
L 548.511315 183.388481 
L 548.861158 183.744475 
L 549.211001 183.755057 
L 549.560844 183.646553 
L 550.260531 183.873659 
L 550.610374 183.949715 
L 550.960217 183.213537 
L 551.310061 183.281806 
L 551.659904 183.690155 
L 552.009747 183.578216 
L 552.359591 183.856638 
L 552.709434 183.406458 
L 553.059277 183.567542 
L 553.40912 184.027791 
L 553.758964 183.50691 
L 554.108807 183.562667 
L 554.45865 183.266677 
L 554.808493 183.180689 
L 555.158337 183.610598 
L 555.50818 183.30321 
L 555.858023 183.695 
L 556.207866 183.035239 
L 556.55771 183.881584 
L 556.907553 183.475687 
L 557.257396 183.371651 
L 557.957083 183.993367 
L 558.306926 183.741462 
L 558.656769 183.815634 
L 559.006612 183.339237 
L 559.706299 183.644082 
L 560.056142 183.348002 
L 560.405986 183.473453 
L 560.755829 184.147805 
L 561.105672 184.015953 
L 561.455515 183.542469 
L 561.805359 183.331938 
L 562.155202 183.69612 
L 562.505045 183.159634 
L 562.854888 183.464488 
L 563.554575 183.428491 
L 563.904418 183.274972 
L 564.254261 183.374157 
L 564.604105 183.116363 
L 564.953948 183.503453 
L 565.303791 183.699039 
L 565.653634 183.354238 
L 566.003478 183.542265 
L 566.353321 183.262553 
L 566.703164 183.595958 
L 567.053007 183.61165 
L 567.402851 183.447239 
L 567.752694 183.742063 
L 568.102537 183.720341 
L 568.45238 183.845882 
L 568.802224 183.254979 
L 569.851754 183.287191 
L 570.201597 183.187968 
L 570.55144 183.636825 
L 570.901283 183.267348 
L 571.251127 183.562088 
L 571.60097 183.502068 
L 571.950813 183.297027 
L 572.300656 183.322349 
L 572.6505 183.499291 
L 573.000343 183.551254 
L 573.700029 183.350554 
L 574.049873 183.603973 
L 574.399716 183.098763 
L 574.749559 183.042062 
L 575.449246 183.669447 
L 575.799089 183.466858 
L 576.148932 183.401992 
L 576.498775 184.102038 
L 576.848619 183.599398 
L 577.198462 183.645449 
L 577.548305 183.565669 
L 577.898149 183.804148 
L 578.947678 183.269829 
L 579.297522 183.606135 
L 579.647365 183.452829 
L 580.347051 183.393455 
L 580.696895 183.82691 
L 581.046738 183.346234 
L 581.396581 183.577972 
L 581.746424 183.587448 
L 582.096268 183.423884 
L 582.446111 183.627187 
L 582.795954 183.393281 
L 583.145797 183.65609 
L 583.495641 183.515589 
L 583.845484 183.626813 
L 584.195327 183.311961 
L 584.895014 183.426901 
L 585.244857 182.992038 
L 585.5947 183.071403 
L 585.944543 183.401835 
L 586.294387 183.497815 
L 586.64423 182.924655 
L 587.343917 183.498596 
L 588.393446 183.323552 
L 588.74329 183.129153 
L 589.093133 183.42482 
L 589.442976 183.361321 
L 589.792819 183.086464 
L 590.142663 183.136548 
L 590.492506 183.505101 
L 590.842349 183.340691 
L 591.192192 183.484262 
L 591.891879 183.184531 
L 592.941409 183.449026 
L 593.291252 183.20795 
L 593.641095 183.7038 
L 594.690625 183.531942 
L 595.040468 183.258673 
L 595.390312 183.441936 
L 595.740155 183.444441 
L 596.089998 183.565086 
L 596.439841 183.165658 
L 597.489371 183.152049 
L 598.189058 183.107586 
L 598.538901 183.384105 
L 598.888744 182.973842 
L 599.238587 183.473798 
L 599.588431 183.76319 
L 599.938274 183.343807 
L 601.68749 183.465705 
L 602.037333 183.712417 
L 602.387177 183.657732 
L 603.086863 182.70531 
L 603.78655 182.429954 
L 604.136393 182.483317 
L 604.83608 183.320078 
L 606.585296 183.022061 
L 606.935139 183.386519 
L 607.634826 183.217535 
L 607.984669 183.623722 
L 608.684355 183.171696 
L 609.034199 183.117825 
L 609.733885 182.617823 
L 610.083728 182.696155 
L 610.433572 183.076463 
L 610.783415 182.911318 
L 611.832945 183.206343 
L 612.182788 183.036375 
L 613.582161 183.149778 
L 613.932004 183.497997 
L 614.281848 183.001253 
L 614.631691 183.099563 
L 614.981534 183.583056 
L 615.331377 183.160004 
L 615.681221 183.020948 
L 616.73075 183.323396 
L 617.430437 183.041196 
L 617.78028 182.915704 
L 618.130123 183.015766 
L 618.479967 183.420561 
L 618.82981 183.533616 
L 619.529496 183.097874 
L 619.87934 182.773374 
L 620.229183 183.516329 
L 620.579026 183.154724 
L 621.278713 183.158788 
L 621.628556 183.348349 
L 621.978399 183.348833 
L 622.328243 183.077512 
L 624.077459 182.441261 
L 624.427302 182.6167 
L 624.777145 182.979482 
L 625.126989 182.662028 
L 625.126989 182.662028 
" clip-path="url(#p3baa0029da)" style="fill: none; stroke: #ff7f0e; stroke-width: 1.5; stroke-linecap: square"/>
   </g>
   <g id="patch_3">
    <path d="M 92.490625 308.63625 
L 92.490625 31.43625 
" style="fill: none; stroke: #000000; stroke-width: 0.8; stroke-linejoin: miter; stroke-linecap: square"/>
   </g>
   <g id="patch_4">
    <path d="M 650.490625 308.63625 
L 650.490625 31.43625 
" style="fill: none; stroke: #000000; stroke-width: 0.8; stroke-linejoin: miter; stroke-linecap: square"/>
   </g>
   <g id="patch_5">
    <path d="M 92.490625 308.63625 
L 650.490625 308.63625 
" style="fill: none; stroke: #000000; stroke-width: 0.8; stroke-linejoin: miter; stroke-linecap: square"/>
   </g>
   <g id="patch_6">
    <path d="M 92.490625 31.43625 
L 650.490625 31.43625 
" style="fill: none; stroke: #000000; stroke-width: 0.8; stroke-linejoin: miter; stroke-linecap: square"/>
   </g>
   <g id="text_16">
    <!-- Generator and Discriminator Loss During Training -->
    <g transform="translate(74.258125 25.43625) scale(0.24 -0.24)">
     <defs>
      <path id="DejaVuSans-47" d="M 3809 666 
L 3809 1919 
L 2778 1919 
L 2778 2438 
L 4434 2438 
L 4434 434 
Q 4069 175 3628 42 
Q 3188 -91 2688 -91 
Q 1594 -91 976 548 
Q 359 1188 359 2328 
Q 359 3472 976 4111 
Q 1594 4750 2688 4750 
Q 3144 4750 3555 4637 
Q 3966 4525 4313 4306 
L 4313 3634 
Q 3963 3931 3569 4081 
Q 3175 4231 2741 4231 
Q 1884 4231 1454 3753 
Q 1025 3275 1025 2328 
Q 1025 1384 1454 906 
Q 1884 428 2741 428 
Q 3075 428 3337 486 
Q 3600 544 3809 666 
z
" transform="scale(0.015625)"/>
      <path id="DejaVuSans-20" transform="scale(0.015625)"/>
      <path id="DejaVuSans-64" d="M 2906 2969 
L 2906 4863 
L 3481 4863 
L 3481 0 
L 2906 0 
L 2906 525 
Q 2725 213 2448 61 
Q 2172 -91 1784 -91 
Q 1150 -91 751 415 
Q 353 922 353 1747 
Q 353 2572 751 3078 
Q 1150 3584 1784 3584 
Q 2172 3584 2448 3432 
Q 2725 3281 2906 2969 
z
M 947 1747 
Q 947 1113 1208 752 
Q 1469 391 1925 391 
Q 2381 391 2643 752 
Q 2906 1113 2906 1747 
Q 2906 2381 2643 2742 
Q 2381 3103 1925 3103 
Q 1469 3103 1208 2742 
Q 947 2381 947 1747 
z
" transform="scale(0.015625)"/>
      <path id="DejaVuSans-44" d="M 1259 4147 
L 1259 519 
L 2022 519 
Q 2988 519 3436 956 
Q 3884 1394 3884 2338 
Q 3884 3275 3436 3711 
Q 2988 4147 2022 4147 
L 1259 4147 
z
M 628 4666 
L 1925 4666 
Q 3281 4666 3915 4102 
Q 4550 3538 4550 2338 
Q 4550 1131 3912 565 
Q 3275 0 1925 0 
L 628 0 
L 628 4666 
z
" transform="scale(0.015625)"/>
      <path id="DejaVuSans-63" d="M 3122 3366 
L 3122 2828 
Q 2878 2963 2633 3030 
Q 2388 3097 2138 3097 
Q 1578 3097 1268 2742 
Q 959 2388 959 1747 
Q 959 1106 1268 751 
Q 1578 397 2138 397 
Q 2388 397 2633 464 
Q 2878 531 3122 666 
L 3122 134 
Q 2881 22 2623 -34 
Q 2366 -91 2075 -91 
Q 1284 -91 818 406 
Q 353 903 353 1747 
Q 353 2603 823 3093 
Q 1294 3584 2113 3584 
Q 2378 3584 2631 3529 
Q 2884 3475 3122 3366 
z
" transform="scale(0.015625)"/>
      <path id="DejaVuSans-6d" d="M 3328 2828 
Q 3544 3216 3844 3400 
Q 4144 3584 4550 3584 
Q 5097 3584 5394 3201 
Q 5691 2819 5691 2113 
L 5691 0 
L 5113 0 
L 5113 2094 
Q 5113 2597 4934 2840 
Q 4756 3084 4391 3084 
Q 3944 3084 3684 2787 
Q 3425 2491 3425 1978 
L 3425 0 
L 2847 0 
L 2847 2094 
Q 2847 2600 2669 2842 
Q 2491 3084 2119 3084 
Q 1678 3084 1418 2786 
Q 1159 2488 1159 1978 
L 1159 0 
L 581 0 
L 581 3500 
L 1159 3500 
L 1159 2956 
Q 1356 3278 1631 3431 
Q 1906 3584 2284 3584 
Q 2666 3584 2933 3390 
Q 3200 3197 3328 2828 
z
" transform="scale(0.015625)"/>
      <path id="DejaVuSans-75" d="M 544 1381 
L 544 3500 
L 1119 3500 
L 1119 1403 
Q 1119 906 1312 657 
Q 1506 409 1894 409 
Q 2359 409 2629 706 
Q 2900 1003 2900 1516 
L 2900 3500 
L 3475 3500 
L 3475 0 
L 2900 0 
L 2900 538 
Q 2691 219 2414 64 
Q 2138 -91 1772 -91 
Q 1169 -91 856 284 
Q 544 659 544 1381 
z
M 1991 3584 
L 1991 3584 
z
" transform="scale(0.015625)"/>
      <path id="DejaVuSans-67" d="M 2906 1791 
Q 2906 2416 2648 2759 
Q 2391 3103 1925 3103 
Q 1463 3103 1205 2759 
Q 947 2416 947 1791 
Q 947 1169 1205 825 
Q 1463 481 1925 481 
Q 2391 481 2648 825 
Q 2906 1169 2906 1791 
z
M 3481 434 
Q 3481 -459 3084 -895 
Q 2688 -1331 1869 -1331 
Q 1566 -1331 1297 -1286 
Q 1028 -1241 775 -1147 
L 775 -588 
Q 1028 -725 1275 -790 
Q 1522 -856 1778 -856 
Q 2344 -856 2625 -561 
Q 2906 -266 2906 331 
L 2906 616 
Q 2728 306 2450 153 
Q 2172 0 1784 0 
Q 1141 0 747 490 
Q 353 981 353 1791 
Q 353 2603 747 3093 
Q 1141 3584 1784 3584 
Q 2172 3584 2450 3431 
Q 2728 3278 2906 2969 
L 2906 3500 
L 3481 3500 
L 3481 434 
z
" transform="scale(0.015625)"/>
      <path id="DejaVuSans-54" d="M -19 4666 
L 3928 4666 
L 3928 4134 
L 2272 4134 
L 2272 0 
L 1638 0 
L 1638 4134 
L -19 4134 
L -19 4666 
z
" transform="scale(0.015625)"/>
     </defs>
     <use xlink:href="#DejaVuSans-47"/>
     <use xlink:href="#DejaVuSans-65" x="77.490234"/>
     <use xlink:href="#DejaVuSans-6e" x="139.013672"/>
     <use xlink:href="#DejaVuSans-65" x="202.392578"/>
     <use xlink:href="#DejaVuSans-72" x="263.916016"/>
     <use xlink:href="#DejaVuSans-61" x="305.029297"/>
     <use xlink:href="#DejaVuSans-74" x="366.308594"/>
     <use xlink:href="#DejaVuSans-6f" x="405.517578"/>
     <use xlink:href="#DejaVuSans-72" x="466.699219"/>
     <use xlink:href="#DejaVuSans-20" x="507.8125"/>
     <use xlink:href="#DejaVuSans-61" x="539.599609"/>
     <use xlink:href="#DejaVuSans-6e" x="600.878906"/>
     <use xlink:href="#DejaVuSans-64" x="664.257812"/>
     <use xlink:href="#DejaVuSans-20" x="727.734375"/>
     <use xlink:href="#DejaVuSans-44" x="759.521484"/>
     <use xlink:href="#DejaVuSans-69" x="836.523438"/>
     <use xlink:href="#DejaVuSans-73" x="864.306641"/>
     <use xlink:href="#DejaVuSans-63" x="916.40625"/>
     <use xlink:href="#DejaVuSans-72" x="971.386719"/>
     <use xlink:href="#DejaVuSans-69" x="1012.5"/>
     <use xlink:href="#DejaVuSans-6d" x="1040.283203"/>
     <use xlink:href="#DejaVuSans-69" x="1137.695312"/>
     <use xlink:href="#DejaVuSans-6e" x="1165.478516"/>
     <use xlink:href="#DejaVuSans-61" x="1228.857422"/>
     <use xlink:href="#DejaVuSans-74" x="1290.136719"/>
     <use xlink:href="#DejaVuSans-6f" x="1329.345703"/>
     <use xlink:href="#DejaVuSans-72" x="1390.527344"/>
     <use xlink:href="#DejaVuSans-20" x="1431.640625"/>
     <use xlink:href="#DejaVuSans-4c" x="1463.427734"/>
     <use xlink:href="#DejaVuSans-6f" x="1517.390625"/>
     <use xlink:href="#DejaVuSans-73" x="1578.572266"/>
     <use xlink:href="#DejaVuSans-73" x="1630.671875"/>
     <use xlink:href="#DejaVuSans-20" x="1682.771484"/>
     <use xlink:href="#DejaVuSans-44" x="1714.558594"/>
     <use xlink:href="#DejaVuSans-75" x="1791.560547"/>
     <use xlink:href="#DejaVuSans-72" x="1854.939453"/>
     <use xlink:href="#DejaVuSans-69" x="1896.052734"/>
     <use xlink:href="#DejaVuSans-6e" x="1923.835938"/>
     <use xlink:href="#DejaVuSans-67" x="1987.214844"/>
     <use xlink:href="#DejaVuSans-20" x="2050.691406"/>
     <use xlink:href="#DejaVuSans-54" x="2082.478516"/>
     <use xlink:href="#DejaVuSans-72" x="2128.8125"/>
     <use xlink:href="#DejaVuSans-61" x="2169.925781"/>
     <use xlink:href="#DejaVuSans-69" x="2231.205078"/>
     <use xlink:href="#DejaVuSans-6e" x="2258.988281"/>
     <use xlink:href="#DejaVuSans-69" x="2322.367188"/>
     <use xlink:href="#DejaVuSans-6e" x="2350.150391"/>
     <use xlink:href="#DejaVuSans-67" x="2413.529297"/>
    </g>
   </g>
   <g id="legend_1">
    <g id="patch_7">
     <path d="M 556.99375 106.14875 
L 636.490625 106.14875 
Q 640.490625 106.14875 640.490625 102.14875 
L 640.490625 45.43625 
Q 640.490625 41.43625 636.490625 41.43625 
L 556.99375 41.43625 
Q 552.99375 41.43625 552.99375 45.43625 
L 552.99375 102.14875 
Q 552.99375 106.14875 556.99375 106.14875 
z
" style="fill: #ffffff; opacity: 0.8; stroke: #cccccc; stroke-linejoin: miter"/>
    </g>
    <g id="line2d_16">
     <path d="M 560.99375 57.633125 
L 580.99375 57.633125 
L 600.99375 57.633125 
" style="fill: none; stroke: #1f77b4; stroke-width: 1.5; stroke-linecap: square"/>
    </g>
    <g id="text_17">
     <!-- G -->
     <g transform="translate(616.99375 64.633125) scale(0.2 -0.2)">
      <use xlink:href="#DejaVuSans-47"/>
     </g>
    </g>
    <g id="line2d_17">
     <path d="M 560.99375 86.989375 
L 580.99375 86.989375 
L 600.99375 86.989375 
" style="fill: none; stroke: #ff7f0e; stroke-width: 1.5; stroke-linecap: square"/>
    </g>
    <g id="text_18">
     <!-- D -->
     <g transform="translate(616.99375 93.989375) scale(0.2 -0.2)">
      <use xlink:href="#DejaVuSans-44"/>
     </g>
    </g>
   </g>
  </g>
 </g>
 <defs>
  <clipPath id="p3baa0029da">
   <rect x="92.490625" y="31.43625" width="558" height="277.2"/>
  </clipPath>
 </defs>
</svg>
