<?xml version="1.0" encoding="utf-8" standalone="no"?>
<!DOCTYPE svg PUBLIC "-//W3C//DTD SVG 1.1//EN"
  "http://www.w3.org/Graphics/SVG/1.1/DTD/svg11.dtd">
<svg xmlns:xlink="http://www.w3.org/1999/xlink" width="675.923125pt" height="365.54875pt" viewBox="0 0 675.923125 365.54875" xmlns="http://www.w3.org/2000/svg" version="1.1">
 <metadata>
  <rdf:RDF xmlns:dc="http://purl.org/dc/elements/1.1/" xmlns:cc="http://creativecommons.org/ns#" xmlns:rdf="http://www.w3.org/1999/02/22-rdf-syntax-ns#">
   <cc:Work>
    <dc:type rdf:resource="http://purl.org/dc/dcmitype/StillImage"/>
    <dc:date>2024-02-02T15:34:48.632684</dc:date>
    <dc:format>image/svg+xml</dc:format>
    <dc:creator>
     <cc:Agent>
      <dc:title>Matplotlib v3.7.2, https://matplotlib.org/</dc:title>
     </cc:Agent>
    </dc:creator>
   </cc:Work>
  </rdf:RDF>
 </metadata>
 <defs>
  <style type="text/css">*{stroke-linejoin: round; stroke-linecap: butt}</style>
 </defs>
 <g id="figure_1">
  <g id="patch_1">
   <path d="M 0 365.54875 
L 675.923125 365.54875 
L 675.923125 -0 
L 0 -0 
z
" style="fill: #ffffff"/>
  </g>
  <g id="axes_1">
   <g id="patch_2">
    <path d="M 92.490625 308.63625 
L 650.490625 308.63625 
L 650.490625 31.43625 
L 92.490625 31.43625 
z
" style="fill: #ffffff"/>
   </g>
   <g id="matplotlib.axis_1">
    <g id="xtick_1">
     <g id="line2d_1">
      <defs>
       <path id="mcbf9b74dc4" d="M 0 0 
L 0 3.5 
" style="stroke: #000000; stroke-width: 0.8"/>
      </defs>
      <g>
       <use xlink:href="#mcbf9b74dc4" x="117.854261" y="308.63625" style="stroke: #000000; stroke-width: 0.8"/>
      </g>
     </g>
     <g id="text_1">
      <!-- 0 -->
      <g transform="translate(111.491761 330.833125) scale(0.2 -0.2)">
       <defs>
        <path id="DejaVuSans-30" d="M 2034 4250 
Q 1547 4250 1301 3770 
Q 1056 3291 1056 2328 
Q 1056 1369 1301 889 
Q 1547 409 2034 409 
Q 2525 409 2770 889 
Q 3016 1369 3016 2328 
Q 3016 3291 2770 3770 
Q 2525 4250 2034 4250 
z
M 2034 4750 
Q 2819 4750 3233 4129 
Q 3647 3509 3647 2328 
Q 3647 1150 3233 529 
Q 2819 -91 2034 -91 
Q 1250 -91 836 529 
Q 422 1150 422 2328 
Q 422 3509 836 4129 
Q 1250 4750 2034 4750 
z
" transform="scale(0.015625)"/>
       </defs>
       <use xlink:href="#DejaVuSans-30"/>
      </g>
     </g>
    </g>
    <g id="xtick_2">
     <g id="line2d_2">
      <g>
       <use xlink:href="#mcbf9b74dc4" x="202.399716" y="308.63625" style="stroke: #000000; stroke-width: 0.8"/>
      </g>
     </g>
     <g id="text_2">
      <!-- 100 -->
      <g transform="translate(183.312216 330.833125) scale(0.2 -0.2)">
       <defs>
        <path id="DejaVuSans-31" d="M 794 531 
L 1825 531 
L 1825 4091 
L 703 3866 
L 703 4441 
L 1819 4666 
L 2450 4666 
L 2450 531 
L 3481 531 
L 3481 0 
L 794 0 
L 794 531 
z
" transform="scale(0.015625)"/>
       </defs>
       <use xlink:href="#DejaVuSans-31"/>
       <use xlink:href="#DejaVuSans-30" x="63.623047"/>
       <use xlink:href="#DejaVuSans-30" x="127.246094"/>
      </g>
     </g>
    </g>
    <g id="xtick_3">
     <g id="line2d_3">
      <g>
       <use xlink:href="#mcbf9b74dc4" x="286.94517" y="308.63625" style="stroke: #000000; stroke-width: 0.8"/>
      </g>
     </g>
     <g id="text_3">
      <!-- 200 -->
      <g transform="translate(267.85767 330.833125) scale(0.2 -0.2)">
       <defs>
        <path id="DejaVuSans-32" d="M 1228 531 
L 3431 531 
L 3431 0 
L 469 0 
L 469 531 
Q 828 903 1448 1529 
Q 2069 2156 2228 2338 
Q 2531 2678 2651 2914 
Q 2772 3150 2772 3378 
Q 2772 3750 2511 3984 
Q 2250 4219 1831 4219 
Q 1534 4219 1204 4116 
Q 875 4013 500 3803 
L 500 4441 
Q 881 4594 1212 4672 
Q 1544 4750 1819 4750 
Q 2544 4750 2975 4387 
Q 3406 4025 3406 3419 
Q 3406 3131 3298 2873 
Q 3191 2616 2906 2266 
Q 2828 2175 2409 1742 
Q 1991 1309 1228 531 
z
" transform="scale(0.015625)"/>
       </defs>
       <use xlink:href="#DejaVuSans-32"/>
       <use xlink:href="#DejaVuSans-30" x="63.623047"/>
       <use xlink:href="#DejaVuSans-30" x="127.246094"/>
      </g>
     </g>
    </g>
    <g id="xtick_4">
     <g id="line2d_4">
      <g>
       <use xlink:href="#mcbf9b74dc4" x="371.490625" y="308.63625" style="stroke: #000000; stroke-width: 0.8"/>
      </g>
     </g>
     <g id="text_4">
      <!-- 300 -->
      <g transform="translate(352.403125 330.833125) scale(0.2 -0.2)">
       <defs>
        <path id="DejaVuSans-33" d="M 2597 2516 
Q 3050 2419 3304 2112 
Q 3559 1806 3559 1356 
Q 3559 666 3084 287 
Q 2609 -91 1734 -91 
Q 1441 -91 1130 -33 
Q 819 25 488 141 
L 488 750 
Q 750 597 1062 519 
Q 1375 441 1716 441 
Q 2309 441 2620 675 
Q 2931 909 2931 1356 
Q 2931 1769 2642 2001 
Q 2353 2234 1838 2234 
L 1294 2234 
L 1294 2753 
L 1863 2753 
Q 2328 2753 2575 2939 
Q 2822 3125 2822 3475 
Q 2822 3834 2567 4026 
Q 2313 4219 1838 4219 
Q 1578 4219 1281 4162 
Q 984 4106 628 3988 
L 628 4550 
Q 988 4650 1302 4700 
Q 1616 4750 1894 4750 
Q 2613 4750 3031 4423 
Q 3450 4097 3450 3541 
Q 3450 3153 3228 2886 
Q 3006 2619 2597 2516 
z
" transform="scale(0.015625)"/>
       </defs>
       <use xlink:href="#DejaVuSans-33"/>
       <use xlink:href="#DejaVuSans-30" x="63.623047"/>
       <use xlink:href="#DejaVuSans-30" x="127.246094"/>
      </g>
     </g>
    </g>
    <g id="xtick_5">
     <g id="line2d_5">
      <g>
       <use xlink:href="#mcbf9b74dc4" x="456.03608" y="308.63625" style="stroke: #000000; stroke-width: 0.8"/>
      </g>
     </g>
     <g id="text_5">
      <!-- 400 -->
      <g transform="translate(436.94858 330.833125) scale(0.2 -0.2)">
       <defs>
        <path id="DejaVuSans-34" d="M 2419 4116 
L 825 1625 
L 2419 1625 
L 2419 4116 
z
M 2253 4666 
L 3047 4666 
L 3047 1625 
L 3713 1625 
L 3713 1100 
L 3047 1100 
L 3047 0 
L 2419 0 
L 2419 1100 
L 313 1100 
L 313 1709 
L 2253 4666 
z
" transform="scale(0.015625)"/>
       </defs>
       <use xlink:href="#DejaVuSans-34"/>
       <use xlink:href="#DejaVuSans-30" x="63.623047"/>
       <use xlink:href="#DejaVuSans-30" x="127.246094"/>
      </g>
     </g>
    </g>
    <g id="xtick_6">
     <g id="line2d_6">
      <g>
       <use xlink:href="#mcbf9b74dc4" x="540.581534" y="308.63625" style="stroke: #000000; stroke-width: 0.8"/>
      </g>
     </g>
     <g id="text_6">
      <!-- 500 -->
      <g transform="translate(521.494034 330.833125) scale(0.2 -0.2)">
       <defs>
        <path id="DejaVuSans-35" d="M 691 4666 
L 3169 4666 
L 3169 4134 
L 1269 4134 
L 1269 2991 
Q 1406 3038 1543 3061 
Q 1681 3084 1819 3084 
Q 2600 3084 3056 2656 
Q 3513 2228 3513 1497 
Q 3513 744 3044 326 
Q 2575 -91 1722 -91 
Q 1428 -91 1123 -41 
Q 819 9 494 109 
L 494 744 
Q 775 591 1075 516 
Q 1375 441 1709 441 
Q 2250 441 2565 725 
Q 2881 1009 2881 1497 
Q 2881 1984 2565 2268 
Q 2250 2553 1709 2553 
Q 1456 2553 1204 2497 
Q 953 2441 691 2322 
L 691 4666 
z
" transform="scale(0.015625)"/>
       </defs>
       <use xlink:href="#DejaVuSans-35"/>
       <use xlink:href="#DejaVuSans-30" x="63.623047"/>
       <use xlink:href="#DejaVuSans-30" x="127.246094"/>
      </g>
     </g>
    </g>
    <g id="xtick_7">
     <g id="line2d_7">
      <g>
       <use xlink:href="#mcbf9b74dc4" x="625.126989" y="308.63625" style="stroke: #000000; stroke-width: 0.8"/>
      </g>
     </g>
     <g id="text_7">
      <!-- 600 -->
      <g transform="translate(606.039489 330.833125) scale(0.2 -0.2)">
       <defs>
        <path id="DejaVuSans-36" d="M 2113 2584 
Q 1688 2584 1439 2293 
Q 1191 2003 1191 1497 
Q 1191 994 1439 701 
Q 1688 409 2113 409 
Q 2538 409 2786 701 
Q 3034 994 3034 1497 
Q 3034 2003 2786 2293 
Q 2538 2584 2113 2584 
z
M 3366 4563 
L 3366 3988 
Q 3128 4100 2886 4159 
Q 2644 4219 2406 4219 
Q 1781 4219 1451 3797 
Q 1122 3375 1075 2522 
Q 1259 2794 1537 2939 
Q 1816 3084 2150 3084 
Q 2853 3084 3261 2657 
Q 3669 2231 3669 1497 
Q 3669 778 3244 343 
Q 2819 -91 2113 -91 
Q 1303 -91 875 529 
Q 447 1150 447 2328 
Q 447 3434 972 4092 
Q 1497 4750 2381 4750 
Q 2619 4750 2861 4703 
Q 3103 4656 3366 4563 
z
" transform="scale(0.015625)"/>
       </defs>
       <use xlink:href="#DejaVuSans-36"/>
       <use xlink:href="#DejaVuSans-30" x="63.623047"/>
       <use xlink:href="#DejaVuSans-30" x="127.246094"/>
      </g>
     </g>
    </g>
    <g id="text_8">
     <!-- iterations -->
     <g transform="translate(324.035938 354.189375) scale(0.2 -0.2)">
      <defs>
       <path id="DejaVuSans-69" d="M 603 3500 
L 1178 3500 
L 1178 0 
L 603 0 
L 603 3500 
z
M 603 4863 
L 1178 4863 
L 1178 4134 
L 603 4134 
L 603 4863 
z
" transform="scale(0.015625)"/>
       <path id="DejaVuSans-74" d="M 1172 4494 
L 1172 3500 
L 2356 3500 
L 2356 3053 
L 1172 3053 
L 1172 1153 
Q 1172 725 1289 603 
Q 1406 481 1766 481 
L 2356 481 
L 2356 0 
L 1766 0 
Q 1100 0 847 248 
Q 594 497 594 1153 
L 594 3053 
L 172 3053 
L 172 3500 
L 594 3500 
L 594 4494 
L 1172 4494 
z
" transform="scale(0.015625)"/>
       <path id="DejaVuSans-65" d="M 3597 1894 
L 3597 1613 
L 953 1613 
Q 991 1019 1311 708 
Q 1631 397 2203 397 
Q 2534 397 2845 478 
Q 3156 559 3463 722 
L 3463 178 
Q 3153 47 2828 -22 
Q 2503 -91 2169 -91 
Q 1331 -91 842 396 
Q 353 884 353 1716 
Q 353 2575 817 3079 
Q 1281 3584 2069 3584 
Q 2775 3584 3186 3129 
Q 3597 2675 3597 1894 
z
M 3022 2063 
Q 3016 2534 2758 2815 
Q 2500 3097 2075 3097 
Q 1594 3097 1305 2825 
Q 1016 2553 972 2059 
L 3022 2063 
z
" transform="scale(0.015625)"/>
       <path id="DejaVuSans-72" d="M 2631 2963 
Q 2534 3019 2420 3045 
Q 2306 3072 2169 3072 
Q 1681 3072 1420 2755 
Q 1159 2438 1159 1844 
L 1159 0 
L 581 0 
L 581 3500 
L 1159 3500 
L 1159 2956 
Q 1341 3275 1631 3429 
Q 1922 3584 2338 3584 
Q 2397 3584 2469 3576 
Q 2541 3569 2628 3553 
L 2631 2963 
z
" transform="scale(0.015625)"/>
       <path id="DejaVuSans-61" d="M 2194 1759 
Q 1497 1759 1228 1600 
Q 959 1441 959 1056 
Q 959 750 1161 570 
Q 1363 391 1709 391 
Q 2188 391 2477 730 
Q 2766 1069 2766 1631 
L 2766 1759 
L 2194 1759 
z
M 3341 1997 
L 3341 0 
L 2766 0 
L 2766 531 
Q 2569 213 2275 61 
Q 1981 -91 1556 -91 
Q 1019 -91 701 211 
Q 384 513 384 1019 
Q 384 1609 779 1909 
Q 1175 2209 1959 2209 
L 2766 2209 
L 2766 2266 
Q 2766 2663 2505 2880 
Q 2244 3097 1772 3097 
Q 1472 3097 1187 3025 
Q 903 2953 641 2809 
L 641 3341 
Q 956 3463 1253 3523 
Q 1550 3584 1831 3584 
Q 2591 3584 2966 3190 
Q 3341 2797 3341 1997 
z
" transform="scale(0.015625)"/>
       <path id="DejaVuSans-6f" d="M 1959 3097 
Q 1497 3097 1228 2736 
Q 959 2375 959 1747 
Q 959 1119 1226 758 
Q 1494 397 1959 397 
Q 2419 397 2687 759 
Q 2956 1122 2956 1747 
Q 2956 2369 2687 2733 
Q 2419 3097 1959 3097 
z
M 1959 3584 
Q 2709 3584 3137 3096 
Q 3566 2609 3566 1747 
Q 3566 888 3137 398 
Q 2709 -91 1959 -91 
Q 1206 -91 779 398 
Q 353 888 353 1747 
Q 353 2609 779 3096 
Q 1206 3584 1959 3584 
z
" transform="scale(0.015625)"/>
       <path id="DejaVuSans-6e" d="M 3513 2113 
L 3513 0 
L 2938 0 
L 2938 2094 
Q 2938 2591 2744 2837 
Q 2550 3084 2163 3084 
Q 1697 3084 1428 2787 
Q 1159 2491 1159 1978 
L 1159 0 
L 581 0 
L 581 3500 
L 1159 3500 
L 1159 2956 
Q 1366 3272 1645 3428 
Q 1925 3584 2291 3584 
Q 2894 3584 3203 3211 
Q 3513 2838 3513 2113 
z
" transform="scale(0.015625)"/>
       <path id="DejaVuSans-73" d="M 2834 3397 
L 2834 2853 
Q 2591 2978 2328 3040 
Q 2066 3103 1784 3103 
Q 1356 3103 1142 2972 
Q 928 2841 928 2578 
Q 928 2378 1081 2264 
Q 1234 2150 1697 2047 
L 1894 2003 
Q 2506 1872 2764 1633 
Q 3022 1394 3022 966 
Q 3022 478 2636 193 
Q 2250 -91 1575 -91 
Q 1294 -91 989 -36 
Q 684 19 347 128 
L 347 722 
Q 666 556 975 473 
Q 1284 391 1588 391 
Q 1994 391 2212 530 
Q 2431 669 2431 922 
Q 2431 1156 2273 1281 
Q 2116 1406 1581 1522 
L 1381 1569 
Q 847 1681 609 1914 
Q 372 2147 372 2553 
Q 372 3047 722 3315 
Q 1072 3584 1716 3584 
Q 2034 3584 2315 3537 
Q 2597 3491 2834 3397 
z
" transform="scale(0.015625)"/>
      </defs>
      <use xlink:href="#DejaVuSans-69"/>
      <use xlink:href="#DejaVuSans-74" x="27.783203"/>
      <use xlink:href="#DejaVuSans-65" x="66.992188"/>
      <use xlink:href="#DejaVuSans-72" x="128.515625"/>
      <use xlink:href="#DejaVuSans-61" x="169.628906"/>
      <use xlink:href="#DejaVuSans-74" x="230.908203"/>
      <use xlink:href="#DejaVuSans-69" x="270.117188"/>
      <use xlink:href="#DejaVuSans-6f" x="297.900391"/>
      <use xlink:href="#DejaVuSans-6e" x="359.082031"/>
      <use xlink:href="#DejaVuSans-73" x="422.460938"/>
     </g>
    </g>
   </g>
   <g id="matplotlib.axis_2">
    <g id="ytick_1">
     <g id="line2d_8">
      <defs>
       <path id="m3516116bf5" d="M 0 0 
L -3.5 0 
" style="stroke: #000000; stroke-width: 0.8"/>
      </defs>
      <g>
       <use xlink:href="#m3516116bf5" x="92.490625" y="279.562782" style="stroke: #000000; stroke-width: 0.8"/>
      </g>
     </g>
     <g id="text_9">
      <!-- −200 -->
      <g transform="translate(30.55625 287.16122) scale(0.2 -0.2)">
       <defs>
        <path id="DejaVuSans-2212" d="M 678 2272 
L 4684 2272 
L 4684 1741 
L 678 1741 
L 678 2272 
z
" transform="scale(0.015625)"/>
       </defs>
       <use xlink:href="#DejaVuSans-2212"/>
       <use xlink:href="#DejaVuSans-32" x="83.789062"/>
       <use xlink:href="#DejaVuSans-30" x="147.412109"/>
       <use xlink:href="#DejaVuSans-30" x="211.035156"/>
      </g>
     </g>
    </g>
    <g id="ytick_2">
     <g id="line2d_9">
      <g>
       <use xlink:href="#m3516116bf5" x="92.490625" y="229.718252" style="stroke: #000000; stroke-width: 0.8"/>
      </g>
     </g>
     <g id="text_10">
      <!-- −100 -->
      <g transform="translate(30.55625 237.316689) scale(0.2 -0.2)">
       <use xlink:href="#DejaVuSans-2212"/>
       <use xlink:href="#DejaVuSans-31" x="83.789062"/>
       <use xlink:href="#DejaVuSans-30" x="147.412109"/>
       <use xlink:href="#DejaVuSans-30" x="211.035156"/>
      </g>
     </g>
    </g>
    <g id="ytick_3">
     <g id="line2d_10">
      <g>
       <use xlink:href="#m3516116bf5" x="92.490625" y="179.873722" style="stroke: #000000; stroke-width: 0.8"/>
      </g>
     </g>
     <g id="text_11">
      <!-- 0 -->
      <g transform="translate(72.765625 187.472159) scale(0.2 -0.2)">
       <use xlink:href="#DejaVuSans-30"/>
      </g>
     </g>
    </g>
    <g id="ytick_4">
     <g id="line2d_11">
      <g>
       <use xlink:href="#m3516116bf5" x="92.490625" y="130.029191" style="stroke: #000000; stroke-width: 0.8"/>
      </g>
     </g>
     <g id="text_12">
      <!-- 100 -->
      <g transform="translate(47.315625 137.627629) scale(0.2 -0.2)">
       <use xlink:href="#DejaVuSans-31"/>
       <use xlink:href="#DejaVuSans-30" x="63.623047"/>
       <use xlink:href="#DejaVuSans-30" x="127.246094"/>
      </g>
     </g>
    </g>
    <g id="ytick_5">
     <g id="line2d_12">
      <g>
       <use xlink:href="#m3516116bf5" x="92.490625" y="80.184661" style="stroke: #000000; stroke-width: 0.8"/>
      </g>
     </g>
     <g id="text_13">
      <!-- 200 -->
      <g transform="translate(47.315625 87.783098) scale(0.2 -0.2)">
       <use xlink:href="#DejaVuSans-32"/>
       <use xlink:href="#DejaVuSans-30" x="63.623047"/>
       <use xlink:href="#DejaVuSans-30" x="127.246094"/>
      </g>
     </g>
    </g>
    <g id="text_14">
     <!-- Loss -->
     <g transform="translate(22.396875 191.970625) rotate(-90) scale(0.2 -0.2)">
      <defs>
       <path id="DejaVuSans-4c" d="M 628 4666 
L 1259 4666 
L 1259 531 
L 3531 531 
L 3531 0 
L 628 0 
L 628 4666 
z
" transform="scale(0.015625)"/>
      </defs>
      <use xlink:href="#DejaVuSans-4c"/>
      <use xlink:href="#DejaVuSans-6f" x="53.962891"/>
      <use xlink:href="#DejaVuSans-73" x="115.144531"/>
      <use xlink:href="#DejaVuSans-73" x="167.244141"/>
     </g>
    </g>
   </g>
   <g id="line2d_13">
    <path d="M 117.854261 124.531878 
L 118.699716 113.612244 
L 119.54517 120.519891 
L 120.390625 104.349251 
L 121.23608 82.758685 
L 122.081534 52.516894 
L 122.926989 44.03625 
L 123.772443 61.970005 
L 124.617898 47.184644 
L 126.308807 80.314335 
L 127.154261 92.451127 
L 127.999716 90.170035 
L 128.84517 95.880516 
L 129.690625 102.578324 
L 130.53608 95.671232 
L 131.381534 100.331578 
L 132.226989 100.663401 
L 133.072443 98.525286 
L 133.917898 104.282319 
L 134.763352 116.142604 
L 135.608807 120.516331 
L 136.454261 130.835256 
L 138.14517 127.698731 
L 138.990625 125.168182 
L 139.83608 126.943921 
L 140.681534 124.005949 
L 142.372443 122.923807 
L 143.217898 123.257928 
L 144.063352 118.898656 
L 144.908807 119.56434 
L 145.754261 115.700499 
L 146.599716 117.745463 
L 147.44517 123.442567 
L 148.290625 123.774871 
L 149.13608 122.857969 
L 149.981534 122.302379 
L 150.826989 120.942223 
L 151.672443 119.124284 
L 152.517898 125.017556 
L 153.363352 133.214281 
L 154.208807 129.161825 
L 155.054261 123.543387 
L 155.899716 122.23231 
L 156.74517 123.023945 
L 157.590625 127.784878 
L 158.43608 121.940687 
L 159.281534 123.981988 
L 160.126989 127.193599 
L 160.972443 131.485114 
L 161.817898 128.917539 
L 162.663352 136.589669 
L 163.508807 136.567041 
L 164.354261 125.362361 
L 165.199716 126.824283 
L 166.04517 135.707324 
L 166.890625 137.326724 
L 167.73608 136.946144 
L 169.426989 141.297559 
L 170.272443 145.047706 
L 171.117898 145.805225 
L 171.963352 141.997796 
L 173.654261 139.025662 
L 174.499716 137.019952 
L 175.34517 138.139239 
L 176.190625 136.827967 
L 177.03608 138.508057 
L 177.881534 138.220575 
L 178.726989 138.101893 
L 179.572443 135.608969 
L 180.417898 141.338619 
L 182.108807 134.107495 
L 182.954261 138.24287 
L 183.799716 138.539082 
L 184.64517 134.882217 
L 185.490625 125.534589 
L 186.33608 130.92867 
L 187.181534 130.995844 
L 188.026989 129.896139 
L 188.872443 130.701701 
L 189.717898 134.78225 
L 190.563352 136.964739 
L 191.408807 139.833902 
L 192.254261 134.538663 
L 193.099716 132.112555 
L 193.94517 132.679362 
L 194.790625 137.227089 
L 195.63608 136.509092 
L 196.481534 134.164532 
L 197.326989 138.634416 
L 198.172443 137.086605 
L 199.017898 139.48127 
L 199.863352 140.847521 
L 200.708807 136.401101 
L 201.554261 136.610398 
L 202.399716 141.120117 
L 203.24517 141.657382 
L 204.090625 141.745369 
L 205.781534 145.930699 
L 206.626989 144.353858 
L 207.472443 147.068299 
L 209.163352 143.872919 
L 210.008807 144.823045 
L 210.854261 145.322043 
L 211.699716 149.160657 
L 212.54517 151.758086 
L 213.390625 147.409346 
L 214.23608 147.688363 
L 215.081534 145.632317 
L 215.926989 143.905424 
L 216.772443 146.884967 
L 218.463352 147.688029 
L 219.308807 143.357887 
L 220.154261 140.161348 
L 220.999716 143.441326 
L 221.84517 141.701099 
L 222.690625 143.244373 
L 223.53608 141.485977 
L 224.381534 143.743617 
L 225.226989 141.752809 
L 226.072443 144.378451 
L 226.917898 145.924998 
L 228.608807 145.710239 
L 229.454261 146.822277 
L 230.299716 145.065893 
L 231.14517 142.812817 
L 231.990625 146.722669 
L 232.83608 142.762511 
L 233.681534 145.958757 
L 234.526989 145.805341 
L 235.372443 143.312113 
L 236.217898 144.758427 
L 237.063352 147.303361 
L 237.908807 146.89064 
L 238.754261 147.574506 
L 239.599716 148.59455 
L 241.290625 152.506974 
L 242.13608 150.388494 
L 242.981534 151.806019 
L 243.826989 150.902817 
L 244.672443 151.840849 
L 245.517898 149.806097 
L 246.363352 146.162209 
L 247.208807 148.368318 
L 248.054261 152.27345 
L 248.899716 151.466282 
L 249.74517 152.492185 
L 250.590625 150.095374 
L 251.43608 151.430663 
L 252.281534 152.38361 
L 253.126989 151.164398 
L 253.972443 152.661597 
L 254.817898 153.504509 
L 255.663352 153.070374 
L 256.508807 153.701229 
L 257.354261 155.076172 
L 258.199716 155.925178 
L 259.04517 154.789715 
L 259.890625 153.860758 
L 260.73608 153.674296 
L 261.581534 153.035097 
L 262.426989 154.346622 
L 263.272443 153.598921 
L 264.117898 153.137666 
L 264.963352 153.719381 
L 265.808807 151.537183 
L 266.654261 152.382328 
L 267.499716 153.754748 
L 268.34517 152.730595 
L 269.190625 153.912518 
L 270.03608 155.763226 
L 270.881534 154.635505 
L 271.726989 156.375225 
L 272.572443 154.862806 
L 273.417898 157.097058 
L 274.263352 158.475495 
L 275.108807 159.246486 
L 275.954261 160.579032 
L 276.799716 160.177923 
L 277.64517 158.198611 
L 278.490625 157.632745 
L 279.33608 158.695304 
L 280.181534 158.058747 
L 282.717898 161.274453 
L 283.563352 161.049882 
L 284.408807 162.072976 
L 285.254261 162.780169 
L 286.099716 162.93181 
L 286.94517 162.909826 
L 287.790625 163.16357 
L 288.63608 163.590409 
L 290.326989 163.028633 
L 291.172443 164.160838 
L 292.017898 163.43676 
L 292.863352 163.598174 
L 293.708807 163.302926 
L 294.554261 163.467349 
L 295.399716 163.018195 
L 296.24517 164.735424 
L 297.090625 163.474858 
L 297.93608 161.245375 
L 298.781534 162.806307 
L 300.472443 163.762132 
L 301.317898 163.922568 
L 302.163352 162.747043 
L 303.008807 162.225773 
L 303.854261 162.846469 
L 304.699716 165.236295 
L 305.54517 163.231114 
L 306.390625 163.010536 
L 307.23608 163.003862 
L 308.081534 164.481228 
L 308.926989 164.159237 
L 309.772443 165.05063 
L 310.617898 167.617109 
L 311.463352 166.927606 
L 312.308807 166.829197 
L 313.154261 167.045429 
L 313.999716 167.040901 
L 314.84517 168.045201 
L 316.53608 166.198974 
L 317.381534 166.800597 
L 318.226989 168.759688 
L 319.072443 168.974249 
L 319.917898 166.434748 
L 320.763352 165.174013 
L 321.608807 167.03687 
L 323.299716 167.675998 
L 324.14517 167.355134 
L 324.990625 166.638156 
L 325.83608 167.116547 
L 326.681534 167.266925 
L 327.526989 168.14975 
L 328.372443 167.908898 
L 329.217898 168.146553 
L 330.063352 168.238457 
L 331.754261 167.240999 
L 332.599716 168.253029 
L 333.44517 166.399731 
L 334.290625 167.169623 
L 335.13608 166.210275 
L 335.981534 167.497068 
L 336.826989 165.698517 
L 338.517898 166.698603 
L 339.363352 166.841433 
L 340.208807 166.310281 
L 341.054261 165.479998 
L 341.899716 165.215218 
L 342.74517 165.668773 
L 343.590625 167.322442 
L 344.43608 165.913513 
L 345.281534 165.804076 
L 346.126989 165.367667 
L 346.972443 166.220259 
L 347.817898 166.206106 
L 348.663352 165.972338 
L 349.508807 166.913536 
L 350.354261 166.170453 
L 351.199716 165.912273 
L 352.04517 166.548458 
L 352.890625 165.862925 
L 353.73608 166.657325 
L 354.581534 167.181714 
L 355.426989 166.678216 
L 356.272443 166.675568 
L 357.117898 167.875845 
L 357.963352 168.366442 
L 358.808807 168.449603 
L 359.654261 168.998448 
L 360.499716 169.32032 
L 361.34517 167.9225 
L 362.190625 168.46892 
L 363.03608 168.843936 
L 363.881534 168.960531 
L 364.726989 168.782386 
L 365.572443 168.317253 
L 366.417898 169.688678 
L 367.263352 169.233972 
L 368.108807 169.06092 
L 369.799716 170.546879 
L 370.64517 170.171745 
L 371.490625 171.878035 
L 373.181534 171.137158 
L 374.026989 169.278403 
L 374.872443 169.725672 
L 375.717898 170.615596 
L 376.563352 169.496235 
L 377.408807 169.782768 
L 378.254261 169.890141 
L 379.099716 171.456883 
L 380.790625 170.001103 
L 381.63608 169.926751 
L 383.326989 171.37963 
L 384.172443 171.029107 
L 385.017898 171.124863 
L 385.863352 170.681482 
L 386.708807 170.87703 
L 387.554261 170.384301 
L 388.399716 170.986704 
L 389.24517 170.791971 
L 390.090625 169.625101 
L 390.93608 171.288955 
L 391.781534 170.927486 
L 392.626989 170.864856 
L 393.472443 171.211611 
L 394.317898 172.079021 
L 395.163352 171.845111 
L 396.008807 170.97074 
L 396.854261 171.625128 
L 397.699716 170.983582 
L 399.390625 171.02878 
L 400.23608 171.560573 
L 401.081534 172.322231 
L 401.926989 171.627739 
L 402.772443 171.467542 
L 403.617898 172.467587 
L 404.463352 171.02565 
L 405.308807 171.947077 
L 406.154261 171.483687 
L 406.999716 172.050066 
L 408.690625 170.660141 
L 409.53608 169.947551 
L 410.381534 170.733685 
L 411.226989 170.584067 
L 412.072443 171.103421 
L 412.917898 171.348453 
L 413.763352 171.120201 
L 414.608807 170.558887 
L 415.454261 170.210684 
L 416.299716 170.789454 
L 417.14517 170.980313 
L 417.990625 172.211916 
L 418.83608 171.753866 
L 419.681534 172.058202 
L 420.526989 170.710387 
L 421.372443 171.610416 
L 422.217898 171.04566 
L 423.063352 170.275572 
L 423.908807 170.921107 
L 424.754261 170.142906 
L 425.599716 171.335557 
L 426.44517 170.05853 
L 427.290625 170.093304 
L 428.13608 170.469731 
L 428.981534 171.273628 
L 429.826989 171.728208 
L 430.672443 171.723017 
L 431.517898 170.898618 
L 433.208807 171.377761 
L 434.054261 171.45996 
L 434.899716 170.901117 
L 435.74517 169.754796 
L 437.43608 170.794903 
L 438.281534 171.283549 
L 439.126989 170.797232 
L 439.972443 171.524636 
L 440.817898 171.480676 
L 441.663352 171.125477 
L 444.199716 171.450506 
L 445.04517 170.746657 
L 445.890625 171.893811 
L 446.73608 170.693534 
L 447.581534 169.705521 
L 448.426989 169.357828 
L 449.272443 169.628308 
L 450.117898 170.894575 
L 450.963352 171.221226 
L 451.808807 171.32752 
L 452.654261 171.762098 
L 453.499716 171.419549 
L 454.34517 171.510481 
L 455.190625 170.604535 
L 456.03608 172.064219 
L 456.881534 172.504472 
L 457.726989 171.730852 
L 458.572443 171.717936 
L 459.417898 171.126913 
L 460.263352 171.028055 
L 461.108807 171.81357 
L 461.954261 171.842793 
L 462.799716 171.260918 
L 463.64517 171.661503 
L 464.490625 171.18838 
L 466.181534 171.637524 
L 467.026989 171.680532 
L 467.872443 172.343042 
L 468.717898 170.773445 
L 469.563352 171.850861 
L 470.408807 171.335879 
L 471.254261 171.470768 
L 472.099716 171.404438 
L 472.94517 170.42896 
L 473.790625 170.751651 
L 474.63608 170.623119 
L 475.481534 171.204737 
L 476.326989 169.869313 
L 477.172443 169.636724 
L 478.863352 170.828434 
L 479.708807 170.552112 
L 480.554261 170.519111 
L 481.399716 170.941655 
L 482.24517 169.718798 
L 483.090625 169.862972 
L 483.93608 170.788851 
L 484.781534 169.308966 
L 485.626989 168.405074 
L 486.472443 169.592541 
L 488.163352 168.929275 
L 489.008807 168.277422 
L 489.854261 168.303997 
L 490.699716 169.014105 
L 491.54517 169.461484 
L 493.23608 168.954341 
L 494.081534 167.445263 
L 494.926989 168.252356 
L 495.772443 168.568639 
L 496.617898 168.729843 
L 497.463352 169.043828 
L 498.308807 170.208008 
L 499.154261 169.180695 
L 499.999716 168.673338 
L 500.84517 168.707785 
L 501.690625 169.243154 
L 502.53608 169.377209 
L 503.381534 168.851158 
L 504.226989 166.81334 
L 505.072443 168.761281 
L 505.917898 168.000392 
L 506.763352 167.564612 
L 508.454261 168.156309 
L 509.299716 168.13164 
L 510.14517 168.675291 
L 510.990625 168.119421 
L 511.83608 168.305333 
L 512.681534 167.535693 
L 513.526989 169.078896 
L 514.372443 168.406488 
L 515.217898 169.281049 
L 516.063352 168.148249 
L 516.908807 168.593674 
L 517.754261 168.732842 
L 518.599716 168.470857 
L 519.44517 169.372396 
L 520.290625 169.29299 
L 521.981534 167.88763 
L 522.826989 167.936869 
L 523.672443 168.913264 
L 524.517898 167.685689 
L 526.208807 168.452807 
L 527.054261 168.225701 
L 527.899716 170.2633 
L 528.74517 169.857828 
L 529.590625 168.55073 
L 530.43608 168.94689 
L 532.126989 167.836903 
L 532.972443 168.529338 
L 533.817898 168.526433 
L 534.663352 168.242491 
L 535.508807 168.845629 
L 536.354261 168.793187 
L 537.199716 169.295145 
L 538.04517 168.568328 
L 538.890625 169.156795 
L 539.73608 168.842294 
L 540.581534 169.404308 
L 541.426989 168.600934 
L 542.272443 169.158425 
L 543.117898 169.261816 
L 543.963352 169.167373 
L 544.808807 168.318719 
L 545.654261 168.55359 
L 546.499716 169.043764 
L 547.34517 169.344485 
L 548.190625 168.986347 
L 549.03608 169.062865 
L 549.881534 167.845035 
L 550.726989 168.951697 
L 552.417898 166.987109 
L 554.108807 168.536455 
L 554.954261 167.813438 
L 557.490625 168.653876 
L 558.33608 169.890846 
L 559.181534 168.602198 
L 560.026989 168.122958 
L 560.872443 166.912785 
L 561.717898 168.156099 
L 562.563352 167.661884 
L 563.408807 169.488083 
L 564.254261 169.485607 
L 566.790625 168.073372 
L 567.63608 169.155096 
L 568.481534 167.873866 
L 569.326989 168.345896 
L 570.172443 168.076867 
L 571.017898 169.271937 
L 571.863352 168.161362 
L 573.554261 165.679123 
L 574.399716 166.576745 
L 575.24517 167.755652 
L 576.090625 168.312368 
L 576.93608 167.853324 
L 577.781534 168.205852 
L 578.626989 167.419576 
L 579.472443 167.036538 
L 580.317898 168.70488 
L 582.008807 167.08679 
L 582.854261 166.654306 
L 583.699716 167.786472 
L 584.54517 167.416425 
L 585.390625 168.569706 
L 586.23608 168.490675 
L 587.081534 169.154549 
L 587.926989 167.278725 
L 588.772443 168.560299 
L 589.617898 168.787789 
L 590.463352 167.280913 
L 591.308807 167.403509 
L 592.154261 166.122042 
L 592.999716 167.890703 
L 593.84517 166.99708 
L 594.690625 168.252917 
L 595.53608 166.923159 
L 596.381534 167.016084 
L 597.226989 167.241264 
L 598.917898 167.045006 
L 599.763352 166.305466 
L 600.608807 165.975857 
L 601.454261 167.000925 
L 602.299716 166.83386 
L 603.14517 167.60513 
L 603.990625 167.629385 
L 604.83608 167.287727 
L 605.681534 167.104138 
L 606.526989 166.397981 
L 607.372443 167.148153 
L 608.217898 166.744054 
L 609.063352 165.842051 
L 609.908807 165.51877 
L 610.754261 166.309628 
L 611.599716 165.740703 
L 612.44517 166.816051 
L 613.290625 166.165061 
L 614.13608 165.723097 
L 614.981534 166.108493 
L 616.672443 165.4902 
L 618.363352 166.795149 
L 619.208807 166.654096 
L 620.899716 167.621033 
L 621.74517 166.864147 
L 622.590625 167.267206 
L 623.43608 168.778092 
L 624.281534 169.05499 
L 625.126989 168.761897 
L 625.126989 168.761897 
" clip-path="url(#pd28487acbf)" style="fill: none; stroke: #1f77b4; stroke-width: 1.5; stroke-linecap: square"/>
   </g>
   <g id="line2d_14">
    <path d="M 117.854261 296.03625 
L 118.699716 293.670519 
L 119.54517 246.011862 
L 120.390625 269.986081 
L 121.23608 278.80496 
L 122.081534 248.797222 
L 122.926989 230.620247 
L 123.772443 249.231156 
L 124.617898 223.688053 
L 125.463352 220.004876 
L 126.308807 208.447941 
L 127.154261 211.42837 
L 127.999716 210.881812 
L 128.84517 207.172589 
L 129.690625 205.397716 
L 130.53608 204.796222 
L 131.381534 201.902029 
L 132.226989 204.825475 
L 133.072443 199.039532 
L 133.917898 198.542908 
L 134.763352 192.649877 
L 135.608807 193.698227 
L 136.454261 192.006893 
L 137.299716 194.531603 
L 138.14517 193.321072 
L 138.990625 195.950344 
L 139.83608 197.127018 
L 140.681534 197.851664 
L 141.526989 197.33166 
L 142.372443 192.321801 
L 143.217898 190.967719 
L 144.063352 193.33488 
L 144.908807 192.207896 
L 146.599716 192.261632 
L 147.44517 189.654198 
L 148.290625 190.520908 
L 149.13608 191.107552 
L 150.826989 192.103944 
L 151.672443 192.268471 
L 152.517898 189.139459 
L 153.363352 187.000513 
L 154.208807 188.560084 
L 155.054261 190.703189 
L 155.899716 191.730823 
L 156.74517 190.152641 
L 157.590625 189.313256 
L 158.43608 190.141136 
L 159.281534 189.859756 
L 160.126989 189.199789 
L 160.972443 188.181538 
L 161.817898 189.724939 
L 162.663352 185.408925 
L 163.508807 186.78425 
L 164.354261 189.527407 
L 165.199716 190.100574 
L 166.04517 186.043988 
L 166.890625 188.646009 
L 167.73608 187.302461 
L 168.581534 187.322897 
L 169.426989 188.79512 
L 170.272443 187.482793 
L 171.117898 184.947255 
L 171.963352 187.693612 
L 172.808807 186.691977 
L 173.654261 188.118964 
L 174.499716 188.999593 
L 175.34517 187.801246 
L 176.190625 186.831658 
L 177.03608 188.620825 
L 177.881534 188.360617 
L 178.726989 188.945293 
L 179.572443 187.132025 
L 180.417898 186.201876 
L 181.263352 188.283568 
L 182.954261 187.196792 
L 183.799716 186.938449 
L 184.64517 187.869209 
L 185.490625 189.448849 
L 186.33608 186.718774 
L 187.181534 187.926137 
L 188.026989 188.029027 
L 188.872443 190.577963 
L 189.717898 188.203017 
L 190.563352 187.138785 
L 191.408807 187.142223 
L 192.254261 186.650825 
L 193.099716 187.646986 
L 193.94517 189.119807 
L 194.790625 187.357287 
L 196.481534 186.780915 
L 198.172443 187.368904 
L 199.863352 186.468459 
L 200.708807 186.8359 
L 201.554261 186.971379 
L 202.399716 186.899701 
L 203.24517 185.093429 
L 204.090625 186.339165 
L 204.93608 187.794619 
L 205.781534 185.873828 
L 206.626989 187.042895 
L 207.472443 187.159686 
L 208.317898 186.253183 
L 209.163352 188.14548 
L 210.008807 186.173962 
L 210.854261 185.537409 
L 211.699716 184.507913 
L 212.54517 185.289264 
L 213.390625 185.491353 
L 215.081534 185.50605 
L 215.926989 186.706911 
L 218.463352 186.282175 
L 219.308807 187.690941 
L 220.154261 187.862135 
L 220.999716 187.247781 
L 221.84517 187.676233 
L 222.690625 187.559511 
L 223.53608 186.670892 
L 224.381534 186.806549 
L 225.226989 187.357622 
L 226.072443 185.867307 
L 226.917898 187.427715 
L 227.763352 187.569171 
L 228.608807 186.07568 
L 229.454261 187.16852 
L 230.299716 186.5731 
L 231.990625 187.488045 
L 232.83608 188.414262 
L 233.681534 186.39198 
L 234.526989 186.976814 
L 235.372443 187.007496 
L 236.217898 187.455282 
L 237.063352 187.062753 
L 237.908807 187.688059 
L 238.754261 188.913983 
L 239.599716 187.573495 
L 241.290625 187.191744 
L 242.13608 188.389262 
L 242.981534 187.798525 
L 243.826989 188.176457 
L 244.672443 187.385669 
L 245.517898 187.75249 
L 246.363352 188.699782 
L 247.208807 187.992732 
L 248.899716 187.416289 
L 249.74517 187.418395 
L 250.590625 188.303428 
L 251.43608 188.623496 
L 252.281534 187.288899 
L 253.126989 187.427393 
L 253.972443 186.829265 
L 256.508807 187.035494 
L 257.354261 187.28354 
L 258.199716 186.891307 
L 259.04517 186.72 
L 259.890625 188.287451 
L 260.73608 187.859376 
L 261.581534 187.743438 
L 262.426989 188.356273 
L 263.272443 188.02346 
L 264.117898 188.876462 
L 264.963352 188.073269 
L 265.808807 188.013018 
L 266.654261 188.164853 
L 268.34517 188.680438 
L 269.190625 188.271192 
L 270.03608 187.5247 
L 270.881534 188.341547 
L 271.726989 188.324353 
L 272.572443 189.009177 
L 273.417898 188.05667 
L 274.263352 188.160156 
L 275.954261 187.39402 
L 276.799716 188.24029 
L 277.64517 188.117727 
L 278.490625 188.362317 
L 280.181534 187.579802 
L 281.026989 188.523492 
L 281.872443 187.779426 
L 282.717898 188.004608 
L 283.563352 188.050907 
L 284.408807 187.705057 
L 286.099716 188.714194 
L 286.94517 188.091426 
L 287.790625 188.294446 
L 288.63608 188.372829 
L 289.481534 187.862224 
L 291.172443 189.328308 
L 292.017898 188.385363 
L 292.863352 188.20942 
L 293.708807 187.831949 
L 294.554261 189.396933 
L 295.399716 188.005285 
L 296.24517 188.784901 
L 297.090625 187.040929 
L 297.93608 188.521028 
L 298.781534 188.971472 
L 299.626989 189.738808 
L 300.472443 189.229262 
L 301.317898 189.357389 
L 302.163352 188.446275 
L 303.008807 187.861986 
L 303.854261 189.002622 
L 304.699716 188.464863 
L 305.54517 188.759545 
L 306.390625 188.493274 
L 308.081534 187.552388 
L 308.926989 188.515434 
L 309.772443 187.482559 
L 310.617898 188.208671 
L 311.463352 188.294128 
L 312.308807 188.216891 
L 313.154261 187.922589 
L 313.999716 188.012822 
L 314.84517 187.853364 
L 315.690625 187.512304 
L 317.381534 188.52519 
L 318.226989 188.286137 
L 319.072443 188.223808 
L 319.917898 188.930585 
L 320.763352 188.287846 
L 321.608807 187.929877 
L 322.454261 188.750086 
L 323.299716 188.931987 
L 324.14517 188.828422 
L 324.990625 187.992121 
L 326.681534 188.912342 
L 328.372443 188.581938 
L 329.217898 188.857937 
L 330.063352 188.733222 
L 330.908807 188.460897 
L 332.599716 189.477394 
L 333.44517 189.028242 
L 334.290625 189.131799 
L 335.13608 188.861658 
L 335.981534 189.526858 
L 336.826989 189.535713 
L 338.517898 188.843236 
L 339.363352 188.902469 
L 340.208807 188.297058 
L 341.054261 189.54924 
L 341.899716 188.985136 
L 344.43608 189.774629 
L 345.281534 189.788429 
L 346.972443 189.519565 
L 347.817898 190.233118 
L 348.663352 189.702311 
L 349.508807 189.514199 
L 350.354261 190.08353 
L 351.199716 190.008336 
L 352.04517 189.565447 
L 352.890625 189.583096 
L 353.73608 190.037254 
L 354.581534 189.91953 
L 356.272443 190.246258 
L 357.117898 188.569576 
L 357.963352 189.174707 
L 358.808807 189.990945 
L 359.654261 189.358044 
L 360.499716 189.515732 
L 361.34517 190.11674 
L 362.190625 190.121262 
L 363.03608 190.574514 
L 363.881534 190.013054 
L 365.572443 190.082704 
L 367.263352 189.159987 
L 368.108807 189.122912 
L 368.954261 190.043139 
L 369.799716 189.066995 
L 370.64517 189.494748 
L 371.490625 189.70741 
L 372.33608 189.284489 
L 373.181534 188.605509 
L 374.026989 188.988014 
L 374.872443 188.617698 
L 375.717898 189.643596 
L 376.563352 189.470632 
L 377.408807 188.767958 
L 378.254261 188.414101 
L 379.099716 188.195484 
L 379.94517 189.182142 
L 380.790625 189.285755 
L 381.63608 188.604241 
L 382.481534 188.630051 
L 384.172443 189.001234 
L 385.017898 188.555197 
L 385.863352 188.711234 
L 386.708807 188.331132 
L 387.554261 188.216426 
L 388.399716 188.946966 
L 389.24517 188.868593 
L 390.090625 186.61303 
L 390.93608 187.3314 
L 391.781534 187.278921 
L 392.626989 188.626443 
L 393.472443 188.356777 
L 394.317898 188.236927 
L 395.163352 189.014136 
L 396.008807 188.35781 
L 396.854261 188.732627 
L 397.699716 188.594183 
L 399.390625 187.977919 
L 400.23608 188.852699 
L 401.081534 188.838792 
L 401.926989 188.572765 
L 402.772443 187.58102 
L 403.617898 188.035673 
L 404.463352 188.068834 
L 405.308807 188.700876 
L 406.154261 188.052588 
L 406.999716 188.169167 
L 407.84517 188.687222 
L 408.690625 187.943018 
L 409.53608 188.021358 
L 410.381534 188.77915 
L 411.226989 187.496709 
L 412.072443 188.089395 
L 412.917898 188.053076 
L 413.763352 188.150853 
L 416.299716 187.922646 
L 417.14517 186.703195 
L 417.990625 187.536367 
L 418.83608 188.008924 
L 420.526989 187.626979 
L 421.372443 187.479456 
L 422.217898 187.854597 
L 423.063352 188.015779 
L 424.754261 187.371093 
L 426.44517 187.613359 
L 427.290625 187.426125 
L 428.13608 187.772992 
L 430.672443 187.031821 
L 431.517898 187.559654 
L 432.363352 187.190519 
L 433.208807 187.5633 
L 434.054261 187.427299 
L 434.899716 187.129459 
L 436.590625 187.940556 
L 437.43608 187.680124 
L 438.281534 187.68277 
L 439.126989 187.422893 
L 439.972443 187.429192 
L 440.817898 187.247293 
L 441.663352 187.229189 
L 442.508807 187.632436 
L 443.354261 187.059433 
L 444.199716 186.9121 
L 445.04517 187.470026 
L 445.890625 186.911189 
L 446.73608 186.861304 
L 448.426989 188.172784 
L 449.272443 188.13753 
L 450.117898 186.583549 
L 450.963352 186.979654 
L 451.808807 187.521703 
L 452.654261 186.950001 
L 453.499716 187.320842 
L 454.34517 187.351116 
L 455.190625 187.18988 
L 456.03608 187.486731 
L 456.881534 187.064197 
L 457.726989 188.068991 
L 458.572443 187.438666 
L 459.417898 187.525588 
L 460.263352 187.213787 
L 461.108807 187.064928 
L 461.954261 187.534254 
L 462.799716 186.999843 
L 463.64517 186.926129 
L 465.33608 187.337595 
L 466.181534 187.268334 
L 467.026989 187.325297 
L 468.717898 188.006475 
L 469.563352 187.257402 
L 470.408807 187.061195 
L 471.254261 187.293884 
L 472.099716 187.793211 
L 472.94517 187.372868 
L 473.790625 187.207817 
L 474.63608 187.337196 
L 475.481534 187.697688 
L 476.326989 187.695944 
L 477.172443 187.416677 
L 478.017898 187.27155 
L 478.863352 187.498069 
L 479.708807 186.499071 
L 480.554261 187.45085 
L 481.399716 187.487471 
L 483.090625 187.079629 
L 483.93608 187.896338 
L 484.781534 188.090981 
L 485.626989 187.424129 
L 486.472443 187.19887 
L 487.317898 187.659776 
L 488.163352 187.411044 
L 489.008807 188.069676 
L 490.699716 187.84988 
L 491.54517 187.070756 
L 492.390625 187.950427 
L 494.081534 187.633012 
L 494.926989 188.045176 
L 495.772443 187.762842 
L 496.617898 188.078089 
L 497.463352 187.860503 
L 498.308807 187.220608 
L 499.154261 187.392386 
L 500.84517 187.36011 
L 501.690625 187.501666 
L 502.53608 187.962535 
L 503.381534 188.130643 
L 504.226989 187.961241 
L 505.072443 188.060456 
L 505.917898 187.395321 
L 506.763352 188.152944 
L 507.608807 187.906673 
L 508.454261 187.777553 
L 509.299716 188.221934 
L 510.14517 188.327467 
L 510.990625 187.334414 
L 511.83608 187.575282 
L 512.681534 187.386209 
L 513.526989 187.621626 
L 515.217898 187.691807 
L 516.063352 187.598309 
L 516.908807 187.866171 
L 517.754261 188.502235 
L 518.599716 187.314569 
L 519.44517 187.493962 
L 520.290625 187.450727 
L 521.13608 187.814029 
L 521.981534 187.417195 
L 522.826989 187.974649 
L 524.517898 187.508638 
L 525.363352 187.346572 
L 526.208807 187.041069 
L 527.054261 187.641585 
L 527.899716 186.948475 
L 530.43608 187.407369 
L 531.281534 187.783451 
L 532.126989 186.782889 
L 532.972443 186.524814 
L 533.817898 187.174069 
L 534.663352 186.954514 
L 536.354261 187.170452 
L 537.199716 186.948924 
L 538.04517 187.357923 
L 538.890625 186.64722 
L 539.73608 186.591312 
L 540.581534 187.170567 
L 541.426989 186.922178 
L 542.272443 187.859855 
L 543.117898 187.608934 
L 543.963352 186.862467 
L 544.808807 187.229374 
L 545.654261 187.81697 
L 546.499716 187.636123 
L 547.34517 187.21291 
L 548.190625 187.445551 
L 549.03608 188.112018 
L 549.881534 187.574905 
L 550.726989 188.25343 
L 552.417898 187.376497 
L 553.263352 187.700975 
L 554.108807 187.308583 
L 555.799716 187.314403 
L 556.64517 186.835633 
L 557.490625 187.844397 
L 560.026989 187.208921 
L 560.872443 186.666028 
L 561.717898 187.334858 
L 562.563352 186.874302 
L 564.254261 187.869404 
L 565.099716 187.228491 
L 565.94517 187.823869 
L 566.790625 187.239268 
L 567.63608 187.020496 
L 568.481534 187.197063 
L 569.326989 187.932748 
L 570.172443 187.430735 
L 571.017898 187.394432 
L 571.863352 187.476013 
L 572.708807 187.297475 
L 573.554261 187.682553 
L 575.24517 187.372028 
L 576.090625 187.628201 
L 576.93608 186.783212 
L 577.781534 187.074856 
L 578.626989 186.839405 
L 579.472443 187.515935 
L 580.317898 187.763284 
L 581.163352 187.505691 
L 582.008807 186.969055 
L 582.854261 187.109494 
L 583.699716 187.535298 
L 584.54517 187.599074 
L 585.390625 187.05674 
L 586.23608 187.478947 
L 587.081534 186.890404 
L 587.926989 187.426476 
L 588.772443 186.929427 
L 589.617898 187.25694 
L 591.308807 187.646823 
L 592.154261 187.341754 
L 593.84517 187.365084 
L 594.690625 188.043789 
L 595.53608 187.491406 
L 596.381534 187.225406 
L 598.917898 187.781165 
L 599.763352 187.21531 
L 600.608807 187.431781 
L 601.454261 187.030991 
L 602.299716 187.667348 
L 603.14517 187.632509 
L 603.990625 187.483169 
L 604.83608 187.892397 
L 605.681534 188.030297 
L 606.526989 187.892854 
L 607.372443 187.209789 
L 608.217898 187.498252 
L 609.063352 187.144424 
L 609.908807 187.409736 
L 610.754261 187.265258 
L 611.599716 187.92355 
L 612.44517 187.202294 
L 613.290625 188.344075 
L 614.13608 187.628879 
L 614.981534 187.287634 
L 615.826989 187.250385 
L 616.672443 187.988552 
L 617.517898 187.071004 
L 618.363352 187.082474 
L 619.208807 187.294689 
L 620.054261 187.221526 
L 620.899716 187.028633 
L 621.74517 185.158508 
L 622.590625 184.299615 
L 623.43608 184.500074 
L 624.281534 185.277536 
L 625.126989 185.319732 
L 625.126989 185.319732 
" clip-path="url(#pd28487acbf)" style="fill: none; stroke: #ff7f0e; stroke-width: 1.5; stroke-linecap: square"/>
   </g>
   <g id="patch_3">
    <path d="M 92.490625 308.63625 
L 92.490625 31.43625 
" style="fill: none; stroke: #000000; stroke-width: 0.8; stroke-linejoin: miter; stroke-linecap: square"/>
   </g>
   <g id="patch_4">
    <path d="M 650.490625 308.63625 
L 650.490625 31.43625 
" style="fill: none; stroke: #000000; stroke-width: 0.8; stroke-linejoin: miter; stroke-linecap: square"/>
   </g>
   <g id="patch_5">
    <path d="M 92.490625 308.63625 
L 650.490625 308.63625 
" style="fill: none; stroke: #000000; stroke-width: 0.8; stroke-linejoin: miter; stroke-linecap: square"/>
   </g>
   <g id="patch_6">
    <path d="M 92.490625 31.43625 
L 650.490625 31.43625 
" style="fill: none; stroke: #000000; stroke-width: 0.8; stroke-linejoin: miter; stroke-linecap: square"/>
   </g>
   <g id="text_15">
    <!-- Generator and Discriminator Loss During Training -->
    <g transform="translate(74.258125 25.43625) scale(0.24 -0.24)">
     <defs>
      <path id="DejaVuSans-47" d="M 3809 666 
L 3809 1919 
L 2778 1919 
L 2778 2438 
L 4434 2438 
L 4434 434 
Q 4069 175 3628 42 
Q 3188 -91 2688 -91 
Q 1594 -91 976 548 
Q 359 1188 359 2328 
Q 359 3472 976 4111 
Q 1594 4750 2688 4750 
Q 3144 4750 3555 4637 
Q 3966 4525 4313 4306 
L 4313 3634 
Q 3963 3931 3569 4081 
Q 3175 4231 2741 4231 
Q 1884 4231 1454 3753 
Q 1025 3275 1025 2328 
Q 1025 1384 1454 906 
Q 1884 428 2741 428 
Q 3075 428 3337 486 
Q 3600 544 3809 666 
z
" transform="scale(0.015625)"/>
      <path id="DejaVuSans-20" transform="scale(0.015625)"/>
      <path id="DejaVuSans-64" d="M 2906 2969 
L 2906 4863 
L 3481 4863 
L 3481 0 
L 2906 0 
L 2906 525 
Q 2725 213 2448 61 
Q 2172 -91 1784 -91 
Q 1150 -91 751 415 
Q 353 922 353 1747 
Q 353 2572 751 3078 
Q 1150 3584 1784 3584 
Q 2172 3584 2448 3432 
Q 2725 3281 2906 2969 
z
M 947 1747 
Q 947 1113 1208 752 
Q 1469 391 1925 391 
Q 2381 391 2643 752 
Q 2906 1113 2906 1747 
Q 2906 2381 2643 2742 
Q 2381 3103 1925 3103 
Q 1469 3103 1208 2742 
Q 947 2381 947 1747 
z
" transform="scale(0.015625)"/>
      <path id="DejaVuSans-44" d="M 1259 4147 
L 1259 519 
L 2022 519 
Q 2988 519 3436 956 
Q 3884 1394 3884 2338 
Q 3884 3275 3436 3711 
Q 2988 4147 2022 4147 
L 1259 4147 
z
M 628 4666 
L 1925 4666 
Q 3281 4666 3915 4102 
Q 4550 3538 4550 2338 
Q 4550 1131 3912 565 
Q 3275 0 1925 0 
L 628 0 
L 628 4666 
z
" transform="scale(0.015625)"/>
      <path id="DejaVuSans-63" d="M 3122 3366 
L 3122 2828 
Q 2878 2963 2633 3030 
Q 2388 3097 2138 3097 
Q 1578 3097 1268 2742 
Q 959 2388 959 1747 
Q 959 1106 1268 751 
Q 1578 397 2138 397 
Q 2388 397 2633 464 
Q 2878 531 3122 666 
L 3122 134 
Q 2881 22 2623 -34 
Q 2366 -91 2075 -91 
Q 1284 -91 818 406 
Q 353 903 353 1747 
Q 353 2603 823 3093 
Q 1294 3584 2113 3584 
Q 2378 3584 2631 3529 
Q 2884 3475 3122 3366 
z
" transform="scale(0.015625)"/>
      <path id="DejaVuSans-6d" d="M 3328 2828 
Q 3544 3216 3844 3400 
Q 4144 3584 4550 3584 
Q 5097 3584 5394 3201 
Q 5691 2819 5691 2113 
L 5691 0 
L 5113 0 
L 5113 2094 
Q 5113 2597 4934 2840 
Q 4756 3084 4391 3084 
Q 3944 3084 3684 2787 
Q 3425 2491 3425 1978 
L 3425 0 
L 2847 0 
L 2847 2094 
Q 2847 2600 2669 2842 
Q 2491 3084 2119 3084 
Q 1678 3084 1418 2786 
Q 1159 2488 1159 1978 
L 1159 0 
L 581 0 
L 581 3500 
L 1159 3500 
L 1159 2956 
Q 1356 3278 1631 3431 
Q 1906 3584 2284 3584 
Q 2666 3584 2933 3390 
Q 3200 3197 3328 2828 
z
" transform="scale(0.015625)"/>
      <path id="DejaVuSans-75" d="M 544 1381 
L 544 3500 
L 1119 3500 
L 1119 1403 
Q 1119 906 1312 657 
Q 1506 409 1894 409 
Q 2359 409 2629 706 
Q 2900 1003 2900 1516 
L 2900 3500 
L 3475 3500 
L 3475 0 
L 2900 0 
L 2900 538 
Q 2691 219 2414 64 
Q 2138 -91 1772 -91 
Q 1169 -91 856 284 
Q 544 659 544 1381 
z
M 1991 3584 
L 1991 3584 
z
" transform="scale(0.015625)"/>
      <path id="DejaVuSans-67" d="M 2906 1791 
Q 2906 2416 2648 2759 
Q 2391 3103 1925 3103 
Q 1463 3103 1205 2759 
Q 947 2416 947 1791 
Q 947 1169 1205 825 
Q 1463 481 1925 481 
Q 2391 481 2648 825 
Q 2906 1169 2906 1791 
z
M 3481 434 
Q 3481 -459 3084 -895 
Q 2688 -1331 1869 -1331 
Q 1566 -1331 1297 -1286 
Q 1028 -1241 775 -1147 
L 775 -588 
Q 1028 -725 1275 -790 
Q 1522 -856 1778 -856 
Q 2344 -856 2625 -561 
Q 2906 -266 2906 331 
L 2906 616 
Q 2728 306 2450 153 
Q 2172 0 1784 0 
Q 1141 0 747 490 
Q 353 981 353 1791 
Q 353 2603 747 3093 
Q 1141 3584 1784 3584 
Q 2172 3584 2450 3431 
Q 2728 3278 2906 2969 
L 2906 3500 
L 3481 3500 
L 3481 434 
z
" transform="scale(0.015625)"/>
      <path id="DejaVuSans-54" d="M -19 4666 
L 3928 4666 
L 3928 4134 
L 2272 4134 
L 2272 0 
L 1638 0 
L 1638 4134 
L -19 4134 
L -19 4666 
z
" transform="scale(0.015625)"/>
     </defs>
     <use xlink:href="#DejaVuSans-47"/>
     <use xlink:href="#DejaVuSans-65" x="77.490234"/>
     <use xlink:href="#DejaVuSans-6e" x="139.013672"/>
     <use xlink:href="#DejaVuSans-65" x="202.392578"/>
     <use xlink:href="#DejaVuSans-72" x="263.916016"/>
     <use xlink:href="#DejaVuSans-61" x="305.029297"/>
     <use xlink:href="#DejaVuSans-74" x="366.308594"/>
     <use xlink:href="#DejaVuSans-6f" x="405.517578"/>
     <use xlink:href="#DejaVuSans-72" x="466.699219"/>
     <use xlink:href="#DejaVuSans-20" x="507.8125"/>
     <use xlink:href="#DejaVuSans-61" x="539.599609"/>
     <use xlink:href="#DejaVuSans-6e" x="600.878906"/>
     <use xlink:href="#DejaVuSans-64" x="664.257812"/>
     <use xlink:href="#DejaVuSans-20" x="727.734375"/>
     <use xlink:href="#DejaVuSans-44" x="759.521484"/>
     <use xlink:href="#DejaVuSans-69" x="836.523438"/>
     <use xlink:href="#DejaVuSans-73" x="864.306641"/>
     <use xlink:href="#DejaVuSans-63" x="916.40625"/>
     <use xlink:href="#DejaVuSans-72" x="971.386719"/>
     <use xlink:href="#DejaVuSans-69" x="1012.5"/>
     <use xlink:href="#DejaVuSans-6d" x="1040.283203"/>
     <use xlink:href="#DejaVuSans-69" x="1137.695312"/>
     <use xlink:href="#DejaVuSans-6e" x="1165.478516"/>
     <use xlink:href="#DejaVuSans-61" x="1228.857422"/>
     <use xlink:href="#DejaVuSans-74" x="1290.136719"/>
     <use xlink:href="#DejaVuSans-6f" x="1329.345703"/>
     <use xlink:href="#DejaVuSans-72" x="1390.527344"/>
     <use xlink:href="#DejaVuSans-20" x="1431.640625"/>
     <use xlink:href="#DejaVuSans-4c" x="1463.427734"/>
     <use xlink:href="#DejaVuSans-6f" x="1517.390625"/>
     <use xlink:href="#DejaVuSans-73" x="1578.572266"/>
     <use xlink:href="#DejaVuSans-73" x="1630.671875"/>
     <use xlink:href="#DejaVuSans-20" x="1682.771484"/>
     <use xlink:href="#DejaVuSans-44" x="1714.558594"/>
     <use xlink:href="#DejaVuSans-75" x="1791.560547"/>
     <use xlink:href="#DejaVuSans-72" x="1854.939453"/>
     <use xlink:href="#DejaVuSans-69" x="1896.052734"/>
     <use xlink:href="#DejaVuSans-6e" x="1923.835938"/>
     <use xlink:href="#DejaVuSans-67" x="1987.214844"/>
     <use xlink:href="#DejaVuSans-20" x="2050.691406"/>
     <use xlink:href="#DejaVuSans-54" x="2082.478516"/>
     <use xlink:href="#DejaVuSans-72" x="2128.8125"/>
     <use xlink:href="#DejaVuSans-61" x="2169.925781"/>
     <use xlink:href="#DejaVuSans-69" x="2231.205078"/>
     <use xlink:href="#DejaVuSans-6e" x="2258.988281"/>
     <use xlink:href="#DejaVuSans-69" x="2322.367188"/>
     <use xlink:href="#DejaVuSans-6e" x="2350.150391"/>
     <use xlink:href="#DejaVuSans-67" x="2413.529297"/>
    </g>
   </g>
   <g id="legend_1">
    <g id="patch_7">
     <path d="M 556.99375 106.14875 
L 636.490625 106.14875 
Q 640.490625 106.14875 640.490625 102.14875 
L 640.490625 45.43625 
Q 640.490625 41.43625 636.490625 41.43625 
L 556.99375 41.43625 
Q 552.99375 41.43625 552.99375 45.43625 
L 552.99375 102.14875 
Q 552.99375 106.14875 556.99375 106.14875 
z
" style="fill: #ffffff; opacity: 0.8; stroke: #cccccc; stroke-linejoin: miter"/>
    </g>
    <g id="line2d_15">
     <path d="M 560.99375 57.633125 
L 580.99375 57.633125 
L 600.99375 57.633125 
" style="fill: none; stroke: #1f77b4; stroke-width: 1.5; stroke-linecap: square"/>
    </g>
    <g id="text_16">
     <!-- G -->
     <g transform="translate(616.99375 64.633125) scale(0.2 -0.2)">
      <use xlink:href="#DejaVuSans-47"/>
     </g>
    </g>
    <g id="line2d_16">
     <path d="M 560.99375 86.989375 
L 580.99375 86.989375 
L 600.99375 86.989375 
" style="fill: none; stroke: #ff7f0e; stroke-width: 1.5; stroke-linecap: square"/>
    </g>
    <g id="text_17">
     <!-- D -->
     <g transform="translate(616.99375 93.989375) scale(0.2 -0.2)">
      <use xlink:href="#DejaVuSans-44"/>
     </g>
    </g>
   </g>
  </g>
 </g>
 <defs>
  <clipPath id="pd28487acbf">
   <rect x="92.490625" y="31.43625" width="558" height="277.2"/>
  </clipPath>
 </defs>
</svg>
