<?xml version="1.0" encoding="utf-8" standalone="no"?>
<!DOCTYPE svg PUBLIC "-//W3C//DTD SVG 1.1//EN"
  "http://www.w3.org/Graphics/SVG/1.1/DTD/svg11.dtd">
<svg xmlns:xlink="http://www.w3.org/1999/xlink" width="675.923125pt" height="365.54875pt" viewBox="0 0 675.923125 365.54875" xmlns="http://www.w3.org/2000/svg" version="1.1">
 <metadata>
  <rdf:RDF xmlns:dc="http://purl.org/dc/elements/1.1/" xmlns:cc="http://creativecommons.org/ns#" xmlns:rdf="http://www.w3.org/1999/02/22-rdf-syntax-ns#">
   <cc:Work>
    <dc:type rdf:resource="http://purl.org/dc/dcmitype/StillImage"/>
    <dc:date>2024-02-02T15:55:55.052734</dc:date>
    <dc:format>image/svg+xml</dc:format>
    <dc:creator>
     <cc:Agent>
      <dc:title>Matplotlib v3.7.2, https://matplotlib.org/</dc:title>
     </cc:Agent>
    </dc:creator>
   </cc:Work>
  </rdf:RDF>
 </metadata>
 <defs>
  <style type="text/css">*{stroke-linejoin: round; stroke-linecap: butt}</style>
 </defs>
 <g id="figure_1">
  <g id="patch_1">
   <path d="M 0 365.54875 
L 675.923125 365.54875 
L 675.923125 -0 
L 0 -0 
z
" style="fill: #ffffff"/>
  </g>
  <g id="axes_1">
   <g id="patch_2">
    <path d="M 92.490625 308.63625 
L 650.490625 308.63625 
L 650.490625 31.43625 
L 92.490625 31.43625 
z
" style="fill: #ffffff"/>
   </g>
   <g id="matplotlib.axis_1">
    <g id="xtick_1">
     <g id="line2d_1">
      <defs>
       <path id="md64f5673d2" d="M 0 0 
L 0 3.5 
" style="stroke: #000000; stroke-width: 0.8"/>
      </defs>
      <g>
       <use xlink:href="#md64f5673d2" x="117.854261" y="308.63625" style="stroke: #000000; stroke-width: 0.8"/>
      </g>
     </g>
     <g id="text_1">
      <!-- 0 -->
      <g transform="translate(111.491761 330.833125) scale(0.2 -0.2)">
       <defs>
        <path id="DejaVuSans-30" d="M 2034 4250 
Q 1547 4250 1301 3770 
Q 1056 3291 1056 2328 
Q 1056 1369 1301 889 
Q 1547 409 2034 409 
Q 2525 409 2770 889 
Q 3016 1369 3016 2328 
Q 3016 3291 2770 3770 
Q 2525 4250 2034 4250 
z
M 2034 4750 
Q 2819 4750 3233 4129 
Q 3647 3509 3647 2328 
Q 3647 1150 3233 529 
Q 2819 -91 2034 -91 
Q 1250 -91 836 529 
Q 422 1150 422 2328 
Q 422 3509 836 4129 
Q 1250 4750 2034 4750 
z
" transform="scale(0.015625)"/>
       </defs>
       <use xlink:href="#DejaVuSans-30"/>
      </g>
     </g>
    </g>
    <g id="xtick_2">
     <g id="line2d_2">
      <g>
       <use xlink:href="#md64f5673d2" x="183.308807" y="308.63625" style="stroke: #000000; stroke-width: 0.8"/>
      </g>
     </g>
     <g id="text_2">
      <!-- 200 -->
      <g transform="translate(164.221307 330.833125) scale(0.2 -0.2)">
       <defs>
        <path id="DejaVuSans-32" d="M 1228 531 
L 3431 531 
L 3431 0 
L 469 0 
L 469 531 
Q 828 903 1448 1529 
Q 2069 2156 2228 2338 
Q 2531 2678 2651 2914 
Q 2772 3150 2772 3378 
Q 2772 3750 2511 3984 
Q 2250 4219 1831 4219 
Q 1534 4219 1204 4116 
Q 875 4013 500 3803 
L 500 4441 
Q 881 4594 1212 4672 
Q 1544 4750 1819 4750 
Q 2544 4750 2975 4387 
Q 3406 4025 3406 3419 
Q 3406 3131 3298 2873 
Q 3191 2616 2906 2266 
Q 2828 2175 2409 1742 
Q 1991 1309 1228 531 
z
" transform="scale(0.015625)"/>
       </defs>
       <use xlink:href="#DejaVuSans-32"/>
       <use xlink:href="#DejaVuSans-30" x="63.623047"/>
       <use xlink:href="#DejaVuSans-30" x="127.246094"/>
      </g>
     </g>
    </g>
    <g id="xtick_3">
     <g id="line2d_3">
      <g>
       <use xlink:href="#md64f5673d2" x="248.763352" y="308.63625" style="stroke: #000000; stroke-width: 0.8"/>
      </g>
     </g>
     <g id="text_3">
      <!-- 400 -->
      <g transform="translate(229.675852 330.833125) scale(0.2 -0.2)">
       <defs>
        <path id="DejaVuSans-34" d="M 2419 4116 
L 825 1625 
L 2419 1625 
L 2419 4116 
z
M 2253 4666 
L 3047 4666 
L 3047 1625 
L 3713 1625 
L 3713 1100 
L 3047 1100 
L 3047 0 
L 2419 0 
L 2419 1100 
L 313 1100 
L 313 1709 
L 2253 4666 
z
" transform="scale(0.015625)"/>
       </defs>
       <use xlink:href="#DejaVuSans-34"/>
       <use xlink:href="#DejaVuSans-30" x="63.623047"/>
       <use xlink:href="#DejaVuSans-30" x="127.246094"/>
      </g>
     </g>
    </g>
    <g id="xtick_4">
     <g id="line2d_4">
      <g>
       <use xlink:href="#md64f5673d2" x="314.217898" y="308.63625" style="stroke: #000000; stroke-width: 0.8"/>
      </g>
     </g>
     <g id="text_4">
      <!-- 600 -->
      <g transform="translate(295.130398 330.833125) scale(0.2 -0.2)">
       <defs>
        <path id="DejaVuSans-36" d="M 2113 2584 
Q 1688 2584 1439 2293 
Q 1191 2003 1191 1497 
Q 1191 994 1439 701 
Q 1688 409 2113 409 
Q 2538 409 2786 701 
Q 3034 994 3034 1497 
Q 3034 2003 2786 2293 
Q 2538 2584 2113 2584 
z
M 3366 4563 
L 3366 3988 
Q 3128 4100 2886 4159 
Q 2644 4219 2406 4219 
Q 1781 4219 1451 3797 
Q 1122 3375 1075 2522 
Q 1259 2794 1537 2939 
Q 1816 3084 2150 3084 
Q 2853 3084 3261 2657 
Q 3669 2231 3669 1497 
Q 3669 778 3244 343 
Q 2819 -91 2113 -91 
Q 1303 -91 875 529 
Q 447 1150 447 2328 
Q 447 3434 972 4092 
Q 1497 4750 2381 4750 
Q 2619 4750 2861 4703 
Q 3103 4656 3366 4563 
z
" transform="scale(0.015625)"/>
       </defs>
       <use xlink:href="#DejaVuSans-36"/>
       <use xlink:href="#DejaVuSans-30" x="63.623047"/>
       <use xlink:href="#DejaVuSans-30" x="127.246094"/>
      </g>
     </g>
    </g>
    <g id="xtick_5">
     <g id="line2d_5">
      <g>
       <use xlink:href="#md64f5673d2" x="379.672443" y="308.63625" style="stroke: #000000; stroke-width: 0.8"/>
      </g>
     </g>
     <g id="text_5">
      <!-- 800 -->
      <g transform="translate(360.584943 330.833125) scale(0.2 -0.2)">
       <defs>
        <path id="DejaVuSans-38" d="M 2034 2216 
Q 1584 2216 1326 1975 
Q 1069 1734 1069 1313 
Q 1069 891 1326 650 
Q 1584 409 2034 409 
Q 2484 409 2743 651 
Q 3003 894 3003 1313 
Q 3003 1734 2745 1975 
Q 2488 2216 2034 2216 
z
M 1403 2484 
Q 997 2584 770 2862 
Q 544 3141 544 3541 
Q 544 4100 942 4425 
Q 1341 4750 2034 4750 
Q 2731 4750 3128 4425 
Q 3525 4100 3525 3541 
Q 3525 3141 3298 2862 
Q 3072 2584 2669 2484 
Q 3125 2378 3379 2068 
Q 3634 1759 3634 1313 
Q 3634 634 3220 271 
Q 2806 -91 2034 -91 
Q 1263 -91 848 271 
Q 434 634 434 1313 
Q 434 1759 690 2068 
Q 947 2378 1403 2484 
z
M 1172 3481 
Q 1172 3119 1398 2916 
Q 1625 2713 2034 2713 
Q 2441 2713 2670 2916 
Q 2900 3119 2900 3481 
Q 2900 3844 2670 4047 
Q 2441 4250 2034 4250 
Q 1625 4250 1398 4047 
Q 1172 3844 1172 3481 
z
" transform="scale(0.015625)"/>
       </defs>
       <use xlink:href="#DejaVuSans-38"/>
       <use xlink:href="#DejaVuSans-30" x="63.623047"/>
       <use xlink:href="#DejaVuSans-30" x="127.246094"/>
      </g>
     </g>
    </g>
    <g id="xtick_6">
     <g id="line2d_6">
      <g>
       <use xlink:href="#md64f5673d2" x="445.126989" y="308.63625" style="stroke: #000000; stroke-width: 0.8"/>
      </g>
     </g>
     <g id="text_6">
      <!-- 1000 -->
      <g transform="translate(419.676989 330.833125) scale(0.2 -0.2)">
       <defs>
        <path id="DejaVuSans-31" d="M 794 531 
L 1825 531 
L 1825 4091 
L 703 3866 
L 703 4441 
L 1819 4666 
L 2450 4666 
L 2450 531 
L 3481 531 
L 3481 0 
L 794 0 
L 794 531 
z
" transform="scale(0.015625)"/>
       </defs>
       <use xlink:href="#DejaVuSans-31"/>
       <use xlink:href="#DejaVuSans-30" x="63.623047"/>
       <use xlink:href="#DejaVuSans-30" x="127.246094"/>
       <use xlink:href="#DejaVuSans-30" x="190.869141"/>
      </g>
     </g>
    </g>
    <g id="xtick_7">
     <g id="line2d_7">
      <g>
       <use xlink:href="#md64f5673d2" x="510.581534" y="308.63625" style="stroke: #000000; stroke-width: 0.8"/>
      </g>
     </g>
     <g id="text_7">
      <!-- 1200 -->
      <g transform="translate(485.131534 330.833125) scale(0.2 -0.2)">
       <use xlink:href="#DejaVuSans-31"/>
       <use xlink:href="#DejaVuSans-32" x="63.623047"/>
       <use xlink:href="#DejaVuSans-30" x="127.246094"/>
       <use xlink:href="#DejaVuSans-30" x="190.869141"/>
      </g>
     </g>
    </g>
    <g id="xtick_8">
     <g id="line2d_8">
      <g>
       <use xlink:href="#md64f5673d2" x="576.03608" y="308.63625" style="stroke: #000000; stroke-width: 0.8"/>
      </g>
     </g>
     <g id="text_8">
      <!-- 1400 -->
      <g transform="translate(550.58608 330.833125) scale(0.2 -0.2)">
       <use xlink:href="#DejaVuSans-31"/>
       <use xlink:href="#DejaVuSans-34" x="63.623047"/>
       <use xlink:href="#DejaVuSans-30" x="127.246094"/>
       <use xlink:href="#DejaVuSans-30" x="190.869141"/>
      </g>
     </g>
    </g>
    <g id="xtick_9">
     <g id="line2d_9">
      <g>
       <use xlink:href="#md64f5673d2" x="641.490625" y="308.63625" style="stroke: #000000; stroke-width: 0.8"/>
      </g>
     </g>
     <g id="text_9">
      <!-- 1600 -->
      <g transform="translate(616.040625 330.833125) scale(0.2 -0.2)">
       <use xlink:href="#DejaVuSans-31"/>
       <use xlink:href="#DejaVuSans-36" x="63.623047"/>
       <use xlink:href="#DejaVuSans-30" x="127.246094"/>
       <use xlink:href="#DejaVuSans-30" x="190.869141"/>
      </g>
     </g>
    </g>
    <g id="text_10">
     <!-- iterations -->
     <g transform="translate(324.035938 354.189375) scale(0.2 -0.2)">
      <defs>
       <path id="DejaVuSans-69" d="M 603 3500 
L 1178 3500 
L 1178 0 
L 603 0 
L 603 3500 
z
M 603 4863 
L 1178 4863 
L 1178 4134 
L 603 4134 
L 603 4863 
z
" transform="scale(0.015625)"/>
       <path id="DejaVuSans-74" d="M 1172 4494 
L 1172 3500 
L 2356 3500 
L 2356 3053 
L 1172 3053 
L 1172 1153 
Q 1172 725 1289 603 
Q 1406 481 1766 481 
L 2356 481 
L 2356 0 
L 1766 0 
Q 1100 0 847 248 
Q 594 497 594 1153 
L 594 3053 
L 172 3053 
L 172 3500 
L 594 3500 
L 594 4494 
L 1172 4494 
z
" transform="scale(0.015625)"/>
       <path id="DejaVuSans-65" d="M 3597 1894 
L 3597 1613 
L 953 1613 
Q 991 1019 1311 708 
Q 1631 397 2203 397 
Q 2534 397 2845 478 
Q 3156 559 3463 722 
L 3463 178 
Q 3153 47 2828 -22 
Q 2503 -91 2169 -91 
Q 1331 -91 842 396 
Q 353 884 353 1716 
Q 353 2575 817 3079 
Q 1281 3584 2069 3584 
Q 2775 3584 3186 3129 
Q 3597 2675 3597 1894 
z
M 3022 2063 
Q 3016 2534 2758 2815 
Q 2500 3097 2075 3097 
Q 1594 3097 1305 2825 
Q 1016 2553 972 2059 
L 3022 2063 
z
" transform="scale(0.015625)"/>
       <path id="DejaVuSans-72" d="M 2631 2963 
Q 2534 3019 2420 3045 
Q 2306 3072 2169 3072 
Q 1681 3072 1420 2755 
Q 1159 2438 1159 1844 
L 1159 0 
L 581 0 
L 581 3500 
L 1159 3500 
L 1159 2956 
Q 1341 3275 1631 3429 
Q 1922 3584 2338 3584 
Q 2397 3584 2469 3576 
Q 2541 3569 2628 3553 
L 2631 2963 
z
" transform="scale(0.015625)"/>
       <path id="DejaVuSans-61" d="M 2194 1759 
Q 1497 1759 1228 1600 
Q 959 1441 959 1056 
Q 959 750 1161 570 
Q 1363 391 1709 391 
Q 2188 391 2477 730 
Q 2766 1069 2766 1631 
L 2766 1759 
L 2194 1759 
z
M 3341 1997 
L 3341 0 
L 2766 0 
L 2766 531 
Q 2569 213 2275 61 
Q 1981 -91 1556 -91 
Q 1019 -91 701 211 
Q 384 513 384 1019 
Q 384 1609 779 1909 
Q 1175 2209 1959 2209 
L 2766 2209 
L 2766 2266 
Q 2766 2663 2505 2880 
Q 2244 3097 1772 3097 
Q 1472 3097 1187 3025 
Q 903 2953 641 2809 
L 641 3341 
Q 956 3463 1253 3523 
Q 1550 3584 1831 3584 
Q 2591 3584 2966 3190 
Q 3341 2797 3341 1997 
z
" transform="scale(0.015625)"/>
       <path id="DejaVuSans-6f" d="M 1959 3097 
Q 1497 3097 1228 2736 
Q 959 2375 959 1747 
Q 959 1119 1226 758 
Q 1494 397 1959 397 
Q 2419 397 2687 759 
Q 2956 1122 2956 1747 
Q 2956 2369 2687 2733 
Q 2419 3097 1959 3097 
z
M 1959 3584 
Q 2709 3584 3137 3096 
Q 3566 2609 3566 1747 
Q 3566 888 3137 398 
Q 2709 -91 1959 -91 
Q 1206 -91 779 398 
Q 353 888 353 1747 
Q 353 2609 779 3096 
Q 1206 3584 1959 3584 
z
" transform="scale(0.015625)"/>
       <path id="DejaVuSans-6e" d="M 3513 2113 
L 3513 0 
L 2938 0 
L 2938 2094 
Q 2938 2591 2744 2837 
Q 2550 3084 2163 3084 
Q 1697 3084 1428 2787 
Q 1159 2491 1159 1978 
L 1159 0 
L 581 0 
L 581 3500 
L 1159 3500 
L 1159 2956 
Q 1366 3272 1645 3428 
Q 1925 3584 2291 3584 
Q 2894 3584 3203 3211 
Q 3513 2838 3513 2113 
z
" transform="scale(0.015625)"/>
       <path id="DejaVuSans-73" d="M 2834 3397 
L 2834 2853 
Q 2591 2978 2328 3040 
Q 2066 3103 1784 3103 
Q 1356 3103 1142 2972 
Q 928 2841 928 2578 
Q 928 2378 1081 2264 
Q 1234 2150 1697 2047 
L 1894 2003 
Q 2506 1872 2764 1633 
Q 3022 1394 3022 966 
Q 3022 478 2636 193 
Q 2250 -91 1575 -91 
Q 1294 -91 989 -36 
Q 684 19 347 128 
L 347 722 
Q 666 556 975 473 
Q 1284 391 1588 391 
Q 1994 391 2212 530 
Q 2431 669 2431 922 
Q 2431 1156 2273 1281 
Q 2116 1406 1581 1522 
L 1381 1569 
Q 847 1681 609 1914 
Q 372 2147 372 2553 
Q 372 3047 722 3315 
Q 1072 3584 1716 3584 
Q 2034 3584 2315 3537 
Q 2597 3491 2834 3397 
z
" transform="scale(0.015625)"/>
      </defs>
      <use xlink:href="#DejaVuSans-69"/>
      <use xlink:href="#DejaVuSans-74" x="27.783203"/>
      <use xlink:href="#DejaVuSans-65" x="66.992188"/>
      <use xlink:href="#DejaVuSans-72" x="128.515625"/>
      <use xlink:href="#DejaVuSans-61" x="169.628906"/>
      <use xlink:href="#DejaVuSans-74" x="230.908203"/>
      <use xlink:href="#DejaVuSans-69" x="270.117188"/>
      <use xlink:href="#DejaVuSans-6f" x="297.900391"/>
      <use xlink:href="#DejaVuSans-6e" x="359.082031"/>
      <use xlink:href="#DejaVuSans-73" x="422.460938"/>
     </g>
    </g>
   </g>
   <g id="matplotlib.axis_2">
    <g id="ytick_1">
     <g id="line2d_10">
      <defs>
       <path id="mdb68937512" d="M 0 0 
L -3.5 0 
" style="stroke: #000000; stroke-width: 0.8"/>
      </defs>
      <g>
       <use xlink:href="#mdb68937512" x="92.490625" y="279.562782" style="stroke: #000000; stroke-width: 0.8"/>
      </g>
     </g>
     <g id="text_11">
      <!-- −200 -->
      <g transform="translate(30.55625 287.16122) scale(0.2 -0.2)">
       <defs>
        <path id="DejaVuSans-2212" d="M 678 2272 
L 4684 2272 
L 4684 1741 
L 678 1741 
L 678 2272 
z
" transform="scale(0.015625)"/>
       </defs>
       <use xlink:href="#DejaVuSans-2212"/>
       <use xlink:href="#DejaVuSans-32" x="83.789062"/>
       <use xlink:href="#DejaVuSans-30" x="147.412109"/>
       <use xlink:href="#DejaVuSans-30" x="211.035156"/>
      </g>
     </g>
    </g>
    <g id="ytick_2">
     <g id="line2d_11">
      <g>
       <use xlink:href="#mdb68937512" x="92.490625" y="229.718252" style="stroke: #000000; stroke-width: 0.8"/>
      </g>
     </g>
     <g id="text_12">
      <!-- −100 -->
      <g transform="translate(30.55625 237.316689) scale(0.2 -0.2)">
       <use xlink:href="#DejaVuSans-2212"/>
       <use xlink:href="#DejaVuSans-31" x="83.789062"/>
       <use xlink:href="#DejaVuSans-30" x="147.412109"/>
       <use xlink:href="#DejaVuSans-30" x="211.035156"/>
      </g>
     </g>
    </g>
    <g id="ytick_3">
     <g id="line2d_12">
      <g>
       <use xlink:href="#mdb68937512" x="92.490625" y="179.873722" style="stroke: #000000; stroke-width: 0.8"/>
      </g>
     </g>
     <g id="text_13">
      <!-- 0 -->
      <g transform="translate(72.765625 187.472159) scale(0.2 -0.2)">
       <use xlink:href="#DejaVuSans-30"/>
      </g>
     </g>
    </g>
    <g id="ytick_4">
     <g id="line2d_13">
      <g>
       <use xlink:href="#mdb68937512" x="92.490625" y="130.029191" style="stroke: #000000; stroke-width: 0.8"/>
      </g>
     </g>
     <g id="text_14">
      <!-- 100 -->
      <g transform="translate(47.315625 137.627629) scale(0.2 -0.2)">
       <use xlink:href="#DejaVuSans-31"/>
       <use xlink:href="#DejaVuSans-30" x="63.623047"/>
       <use xlink:href="#DejaVuSans-30" x="127.246094"/>
      </g>
     </g>
    </g>
    <g id="ytick_5">
     <g id="line2d_14">
      <g>
       <use xlink:href="#mdb68937512" x="92.490625" y="80.184661" style="stroke: #000000; stroke-width: 0.8"/>
      </g>
     </g>
     <g id="text_15">
      <!-- 200 -->
      <g transform="translate(47.315625 87.783098) scale(0.2 -0.2)">
       <use xlink:href="#DejaVuSans-32"/>
       <use xlink:href="#DejaVuSans-30" x="63.623047"/>
       <use xlink:href="#DejaVuSans-30" x="127.246094"/>
      </g>
     </g>
    </g>
    <g id="text_16">
     <!-- Loss -->
     <g transform="translate(22.396875 191.970625) rotate(-90) scale(0.2 -0.2)">
      <defs>
       <path id="DejaVuSans-4c" d="M 628 4666 
L 1259 4666 
L 1259 531 
L 3531 531 
L 3531 0 
L 628 0 
L 628 4666 
z
" transform="scale(0.015625)"/>
      </defs>
      <use xlink:href="#DejaVuSans-4c"/>
      <use xlink:href="#DejaVuSans-6f" x="53.962891"/>
      <use xlink:href="#DejaVuSans-73" x="115.144531"/>
      <use xlink:href="#DejaVuSans-73" x="167.244141"/>
     </g>
    </g>
   </g>
   <g id="line2d_15">
    <path d="M 117.854261 124.531878 
L 118.181534 113.612244 
L 118.508807 120.519891 
L 119.163352 82.758685 
L 119.490625 52.516894 
L 119.817898 44.03625 
L 120.14517 61.970005 
L 120.472443 47.184644 
L 121.126989 80.314335 
L 121.454261 92.451127 
L 121.781534 90.170035 
L 122.43608 102.578324 
L 122.763352 95.671232 
L 123.090625 100.331578 
L 123.417898 100.663401 
L 123.74517 98.525286 
L 124.072443 104.282319 
L 124.399716 116.142604 
L 124.726989 120.516331 
L 125.054261 130.835256 
L 125.708807 127.698731 
L 126.03608 125.168182 
L 126.363352 126.943921 
L 126.690625 124.005949 
L 127.34517 122.923807 
L 127.672443 123.257928 
L 127.999716 118.898656 
L 128.326989 119.56434 
L 128.654261 115.700499 
L 128.981534 117.745463 
L 129.308807 123.442567 
L 129.63608 123.774871 
L 129.963352 122.857969 
L 130.290625 122.302379 
L 130.94517 119.124284 
L 131.272443 125.017556 
L 131.599716 133.214281 
L 131.926989 129.161825 
L 132.254261 123.543387 
L 132.581534 122.23231 
L 132.908807 123.023945 
L 133.23608 127.784878 
L 133.563352 121.940687 
L 133.890625 123.981988 
L 134.54517 131.485114 
L 134.872443 128.917539 
L 135.199716 136.589669 
L 135.526989 136.567041 
L 135.854261 125.362361 
L 136.181534 126.824283 
L 136.508807 135.707324 
L 136.83608 137.326724 
L 137.163352 136.946144 
L 137.817898 141.297559 
L 138.14517 145.047706 
L 138.472443 145.805225 
L 138.799716 141.997796 
L 139.454261 139.025662 
L 139.781534 137.019952 
L 140.108807 138.139239 
L 140.43608 136.827967 
L 140.763352 138.508057 
L 141.090625 138.220575 
L 141.417898 138.101893 
L 141.74517 135.608969 
L 142.072443 141.338619 
L 142.726989 134.107495 
L 143.054261 138.24287 
L 143.381534 138.539082 
L 143.708807 134.882217 
L 144.03608 125.534589 
L 144.363352 130.92867 
L 144.690625 130.995844 
L 145.017898 129.896139 
L 145.34517 130.701701 
L 145.672443 134.78225 
L 146.326989 139.833902 
L 146.654261 134.538663 
L 146.981534 132.112555 
L 147.308807 132.679362 
L 147.63608 137.227089 
L 147.963352 136.509092 
L 148.290625 134.164532 
L 148.617898 138.634416 
L 148.94517 137.086605 
L 149.272443 139.48127 
L 149.599716 140.847521 
L 149.926989 136.401101 
L 150.254261 136.610398 
L 150.581534 141.120117 
L 150.908807 141.657382 
L 151.23608 141.745369 
L 151.890625 145.930699 
L 152.217898 144.353858 
L 152.54517 147.068299 
L 153.199716 143.872919 
L 153.526989 144.823045 
L 153.854261 145.322043 
L 154.508807 151.758086 
L 154.83608 147.409346 
L 155.163352 147.688363 
L 155.817898 143.905424 
L 156.14517 146.884967 
L 156.799716 147.688029 
L 157.454261 140.161348 
L 157.781534 143.441326 
L 158.108807 141.701099 
L 158.43608 143.244373 
L 158.763352 141.485977 
L 159.090625 143.743617 
L 159.417898 141.752809 
L 159.74517 144.378451 
L 160.072443 145.924998 
L 160.726989 145.710239 
L 161.054261 146.822277 
L 161.708807 142.812817 
L 162.03608 146.722669 
L 162.363352 142.762511 
L 162.690625 145.958757 
L 163.017898 145.805341 
L 163.34517 143.312113 
L 163.672443 144.758427 
L 163.999716 147.303361 
L 164.326989 146.89064 
L 164.654261 147.574506 
L 164.981534 148.59455 
L 165.63608 152.506974 
L 165.963352 150.388494 
L 166.290625 151.806019 
L 166.617898 150.902817 
L 166.94517 151.840849 
L 167.272443 149.806097 
L 167.599716 146.162209 
L 167.926989 148.368318 
L 168.254261 152.27345 
L 168.581534 151.466282 
L 168.908807 152.492185 
L 169.23608 150.095374 
L 169.890625 152.38361 
L 170.217898 151.164398 
L 170.54517 152.661597 
L 170.872443 153.504509 
L 171.199716 153.070374 
L 171.526989 153.701229 
L 171.854261 155.076172 
L 172.181534 155.925178 
L 172.83608 153.860758 
L 173.163352 153.674296 
L 173.490625 153.035097 
L 173.817898 154.346622 
L 174.14517 153.598921 
L 174.472443 153.137666 
L 174.799716 153.719381 
L 175.126989 151.537183 
L 175.454261 152.382328 
L 175.781534 153.754748 
L 176.108807 152.730595 
L 176.43608 153.912518 
L 176.763352 155.763226 
L 177.090625 154.635505 
L 177.417898 156.375225 
L 177.74517 154.862806 
L 178.072443 157.097058 
L 178.399716 158.475495 
L 178.726989 159.246486 
L 179.054261 160.579032 
L 179.381534 160.177923 
L 179.708807 158.198611 
L 180.03608 157.632745 
L 180.363352 158.695304 
L 180.690625 158.058747 
L 181.672443 161.274453 
L 181.999716 161.049882 
L 182.654261 162.780169 
L 182.981534 162.93181 
L 183.308807 162.909826 
L 183.63608 163.16357 
L 183.963352 163.590409 
L 184.617898 163.028633 
L 184.94517 164.160838 
L 185.272443 163.43676 
L 185.599716 163.598174 
L 185.926989 163.302926 
L 186.254261 163.467349 
L 186.581534 163.018195 
L 186.908807 164.735424 
L 187.23608 163.474858 
L 187.563352 161.245375 
L 187.890625 162.806307 
L 188.872443 163.922568 
L 189.199716 162.747043 
L 189.526989 162.225773 
L 189.854261 162.846469 
L 190.181534 165.236295 
L 190.508807 163.231114 
L 190.83608 163.010536 
L 191.163352 163.003862 
L 191.490625 164.481228 
L 191.817898 164.159237 
L 192.14517 165.05063 
L 192.472443 167.617109 
L 192.799716 166.927606 
L 193.126989 166.829197 
L 193.454261 167.045429 
L 193.781534 167.040901 
L 194.108807 168.045201 
L 194.763352 166.198974 
L 195.090625 166.800597 
L 195.417898 168.759688 
L 195.74517 168.974249 
L 196.072443 166.434748 
L 196.399716 165.174013 
L 196.726989 167.03687 
L 197.381534 167.675998 
L 197.708807 167.355134 
L 198.03608 166.638156 
L 198.363352 167.116547 
L 198.690625 167.266925 
L 199.017898 168.14975 
L 199.34517 167.908898 
L 199.672443 168.146553 
L 199.999716 168.238457 
L 200.654261 167.240999 
L 200.981534 168.253029 
L 201.308807 166.399731 
L 201.63608 167.169623 
L 201.963352 166.210275 
L 202.290625 167.497068 
L 202.617898 165.698517 
L 203.272443 166.698603 
L 203.599716 166.841433 
L 203.926989 166.310281 
L 204.254261 165.479998 
L 204.581534 165.215218 
L 204.908807 165.668773 
L 205.23608 167.322442 
L 205.563352 165.913513 
L 205.890625 165.804076 
L 206.217898 165.367667 
L 206.54517 166.220259 
L 206.872443 166.206106 
L 207.199716 165.972338 
L 207.526989 166.913536 
L 207.854261 166.170453 
L 208.181534 165.912273 
L 208.508807 166.548458 
L 208.83608 165.862925 
L 209.490625 167.181714 
L 209.817898 166.678216 
L 210.14517 166.675568 
L 210.472443 167.875845 
L 210.799716 168.366442 
L 211.126989 168.449603 
L 211.454261 168.998448 
L 211.781534 169.32032 
L 212.108807 167.9225 
L 212.763352 168.843936 
L 213.090625 168.960531 
L 213.417898 168.782386 
L 213.74517 168.317253 
L 214.072443 169.688678 
L 214.399716 169.233972 
L 214.726989 169.06092 
L 215.381534 170.546879 
L 215.708807 170.171745 
L 216.03608 171.878035 
L 216.690625 171.137158 
L 217.017898 169.278403 
L 217.34517 169.725672 
L 217.672443 170.615596 
L 217.999716 169.496235 
L 218.326989 169.782768 
L 218.654261 169.890141 
L 218.981534 171.456883 
L 219.63608 170.001103 
L 219.963352 169.926751 
L 220.617898 171.37963 
L 220.94517 171.029107 
L 221.272443 171.124863 
L 221.599716 170.681482 
L 221.926989 170.87703 
L 222.254261 170.384301 
L 222.581534 170.986704 
L 222.908807 170.791971 
L 223.23608 169.625101 
L 223.563352 171.288955 
L 223.890625 170.927486 
L 224.217898 170.864856 
L 224.54517 171.211611 
L 224.872443 172.079021 
L 225.199716 171.845111 
L 225.526989 170.97074 
L 225.854261 171.625128 
L 226.181534 170.983582 
L 226.83608 171.02878 
L 227.163352 171.560573 
L 227.490625 172.322231 
L 227.817898 171.627739 
L 228.14517 171.467542 
L 228.472443 172.467587 
L 228.799716 171.02565 
L 229.126989 171.947077 
L 229.454261 171.483687 
L 229.781534 172.050066 
L 230.763352 169.947551 
L 231.090625 170.733685 
L 231.417898 170.584067 
L 231.74517 171.103421 
L 232.072443 171.348453 
L 232.399716 171.120201 
L 233.054261 170.210684 
L 233.381534 170.789454 
L 233.708807 170.980313 
L 234.03608 172.211916 
L 234.363352 171.753866 
L 234.690625 172.058202 
L 235.017898 170.710387 
L 235.34517 171.610416 
L 235.999716 170.275572 
L 236.326989 170.921107 
L 236.654261 170.142906 
L 236.981534 171.335557 
L 237.308807 170.05853 
L 237.63608 170.093304 
L 237.963352 170.469731 
L 238.290625 171.273628 
L 238.617898 171.728208 
L 238.94517 171.723017 
L 239.272443 170.898618 
L 239.926989 171.377761 
L 240.254261 171.45996 
L 240.581534 170.901117 
L 240.908807 169.754796 
L 241.890625 171.283549 
L 242.217898 170.797232 
L 242.54517 171.524636 
L 242.872443 171.480676 
L 243.199716 171.125477 
L 244.181534 171.450506 
L 244.508807 170.746657 
L 244.83608 171.893811 
L 245.490625 169.705521 
L 245.817898 169.357828 
L 246.14517 169.628308 
L 246.472443 170.894575 
L 246.799716 171.221226 
L 247.126989 171.32752 
L 247.454261 171.762098 
L 247.781534 171.419549 
L 248.108807 171.510481 
L 248.43608 170.604535 
L 248.763352 172.064219 
L 249.090625 172.504472 
L 249.417898 171.730852 
L 249.74517 171.717936 
L 250.072443 171.126913 
L 250.399716 171.028055 
L 250.726989 171.81357 
L 251.054261 171.842793 
L 251.381534 171.260918 
L 251.708807 171.661503 
L 252.03608 171.18838 
L 253.017898 171.680532 
L 253.34517 172.343042 
L 253.672443 170.773445 
L 253.999716 171.850861 
L 254.326989 171.335879 
L 254.654261 171.470768 
L 254.981534 171.404438 
L 255.308807 170.42896 
L 255.63608 170.751651 
L 255.963352 170.623119 
L 256.290625 171.204737 
L 256.617898 169.869313 
L 256.94517 169.636724 
L 257.599716 170.828434 
L 257.926989 170.552112 
L 258.254261 170.519111 
L 258.581534 170.941655 
L 258.908807 169.718798 
L 259.23608 169.862972 
L 259.563352 170.788851 
L 259.890625 169.308966 
L 260.217898 168.405074 
L 260.54517 169.592541 
L 261.199716 168.929275 
L 261.526989 168.277422 
L 261.854261 168.303997 
L 262.508807 169.461484 
L 263.163352 168.954341 
L 263.490625 167.445263 
L 263.817898 168.252356 
L 264.14517 168.568639 
L 264.472443 168.729843 
L 264.799716 169.043828 
L 265.126989 170.208008 
L 265.454261 169.180695 
L 265.781534 168.673338 
L 266.108807 168.707785 
L 266.43608 169.243154 
L 266.763352 169.377209 
L 267.090625 168.851158 
L 267.417898 166.81334 
L 267.74517 168.761281 
L 268.072443 168.000392 
L 268.399716 167.564612 
L 269.054261 168.156309 
L 269.381534 168.13164 
L 269.708807 168.675291 
L 270.03608 168.119421 
L 270.363352 168.305333 
L 270.690625 167.535693 
L 271.017898 169.078896 
L 271.34517 168.406488 
L 271.672443 169.281049 
L 271.999716 168.148249 
L 272.326989 168.593674 
L 272.654261 168.732842 
L 272.981534 168.470857 
L 273.308807 169.372396 
L 273.63608 169.29299 
L 274.290625 167.88763 
L 274.617898 167.936869 
L 274.94517 168.913264 
L 275.272443 167.685689 
L 275.926989 168.452807 
L 276.254261 168.225701 
L 276.581534 170.2633 
L 276.908807 169.857828 
L 277.23608 168.55073 
L 277.563352 168.94689 
L 278.217898 167.836903 
L 278.54517 168.529338 
L 278.872443 168.526433 
L 279.199716 168.242491 
L 279.526989 168.845629 
L 279.854261 168.793187 
L 280.181534 169.295145 
L 280.508807 168.568328 
L 280.83608 169.156795 
L 281.163352 168.842294 
L 281.490625 169.404308 
L 281.817898 168.600934 
L 282.14517 169.158425 
L 282.472443 169.261816 
L 282.799716 169.167373 
L 283.126989 168.318719 
L 283.454261 168.55359 
L 284.108807 169.344485 
L 284.43608 168.986347 
L 284.763352 169.062865 
L 285.090625 167.845035 
L 285.417898 168.951697 
L 286.072443 166.987109 
L 286.726989 168.536455 
L 287.054261 167.813438 
L 288.03608 168.653876 
L 288.363352 169.890846 
L 288.690625 168.602198 
L 289.017898 168.122958 
L 289.34517 166.912785 
L 289.672443 168.156099 
L 289.999716 167.661884 
L 290.326989 169.488083 
L 290.654261 169.485607 
L 291.63608 168.073372 
L 291.963352 169.155096 
L 292.290625 167.873866 
L 292.617898 168.345896 
L 292.94517 168.076867 
L 293.272443 169.271937 
L 294.254261 165.679123 
L 295.23608 168.312368 
L 295.563352 167.853324 
L 295.890625 168.205852 
L 296.217898 167.419576 
L 296.54517 167.036538 
L 296.872443 168.70488 
L 297.526989 167.08679 
L 297.854261 166.654306 
L 298.181534 167.786472 
L 298.508807 167.416425 
L 298.83608 168.569706 
L 299.163352 168.490675 
L 299.490625 169.154549 
L 299.817898 167.278725 
L 300.14517 168.560299 
L 300.472443 168.787789 
L 300.799716 167.280913 
L 301.126989 167.403509 
L 301.454261 166.122042 
L 301.781534 167.890703 
L 302.108807 166.99708 
L 302.43608 168.252917 
L 302.763352 166.923159 
L 303.090625 167.016084 
L 303.417898 167.241264 
L 304.072443 167.045006 
L 304.399716 166.305466 
L 304.726989 165.975857 
L 305.054261 167.000925 
L 305.381534 166.83386 
L 305.708807 167.60513 
L 306.03608 167.629385 
L 306.690625 167.104138 
L 307.017898 166.397981 
L 307.34517 167.148153 
L 307.672443 166.744054 
L 307.999716 165.842051 
L 308.326989 165.51877 
L 308.654261 166.309628 
L 308.981534 165.740703 
L 309.308807 166.816051 
L 309.963352 165.723097 
L 310.290625 166.108493 
L 310.94517 165.4902 
L 311.599716 166.795149 
L 311.926989 166.654096 
L 312.581534 167.621033 
L 312.908807 166.864147 
L 313.23608 167.267206 
L 313.563352 168.778092 
L 313.890625 169.05499 
L 314.217898 168.761897 
L 314.54517 168.71093 
L 314.872443 167.742667 
L 315.526989 169.264613 
L 315.854261 167.432988 
L 316.181534 168.344806 
L 316.508807 168.502555 
L 316.83608 169.430815 
L 317.163352 169.685325 
L 317.490625 168.870997 
L 317.817898 169.484155 
L 318.472443 169.27929 
L 318.799716 168.891965 
L 319.781534 170.281456 
L 320.108807 169.650673 
L 320.43608 169.556229 
L 320.763352 169.332334 
L 321.090625 169.753204 
L 321.417898 169.245746 
L 321.74517 169.301257 
L 322.072443 168.308343 
L 322.399716 168.719347 
L 322.726989 169.428888 
L 323.054261 170.479059 
L 323.381534 169.745954 
L 323.708807 170.42337 
L 324.363352 170.868408 
L 324.690625 170.270927 
L 325.017898 169.303986 
L 325.34517 170.119499 
L 325.672443 169.767772 
L 325.999716 169.857879 
L 326.326989 169.586723 
L 326.654261 169.716683 
L 326.981534 171.181534 
L 327.308807 170.772517 
L 327.63608 171.187108 
L 327.963352 170.514292 
L 328.290625 170.129486 
L 328.617898 170.984094 
L 328.94517 171.01828 
L 329.272443 171.330471 
L 329.599716 170.098185 
L 329.926989 171.20177 
L 330.254261 170.094581 
L 330.581534 170.641587 
L 330.908807 170.954885 
L 331.23608 170.937869 
L 331.563352 171.877335 
L 331.890625 171.940686 
L 332.217898 171.802314 
L 332.54517 170.553515 
L 332.872443 170.961193 
L 333.199716 170.871702 
L 333.526989 171.781641 
L 333.854261 171.652601 
L 334.508807 169.934908 
L 334.83608 169.855105 
L 335.163352 169.93931 
L 335.490625 170.289627 
L 335.817898 171.688032 
L 336.14517 171.08577 
L 336.472443 171.519824 
L 336.799716 171.452305 
L 337.126989 170.690751 
L 337.454261 170.4779 
L 337.781534 170.686815 
L 338.108807 171.598358 
L 338.43608 171.429171 
L 338.763352 170.468689 
L 339.090625 170.552143 
L 339.417898 171.170605 
L 339.74517 171.076991 
L 340.072443 170.857447 
L 340.399716 172.026858 
L 340.726989 171.897187 
L 341.054261 172.552691 
L 341.381534 172.187376 
L 341.708807 172.119924 
L 342.03608 172.812751 
L 342.363352 172.431816 
L 342.690625 171.504635 
L 343.017898 171.078927 
L 343.34517 172.052269 
L 343.672443 172.01934 
L 343.999716 171.139247 
L 344.326989 171.456836 
L 344.654261 172.361364 
L 344.981534 171.736331 
L 345.308807 172.752857 
L 345.63608 172.572182 
L 345.963352 171.777554 
L 346.290625 171.812087 
L 346.617898 172.632344 
L 346.94517 173.098525 
L 347.272443 172.871148 
L 347.599716 171.911924 
L 347.926989 172.195097 
L 348.254261 172.633227 
L 348.581534 172.795828 
L 348.908807 172.498574 
L 349.23608 172.657809 
L 349.563352 172.305638 
L 349.890625 173.087526 
L 350.217898 172.752212 
L 350.54517 171.853783 
L 350.872443 172.249377 
L 351.199716 173.237597 
L 351.526989 172.465509 
L 351.854261 172.943736 
L 352.508807 172.308294 
L 352.83608 172.475761 
L 353.163352 172.805779 
L 353.490625 173.509988 
L 353.817898 173.535105 
L 354.14517 172.965856 
L 354.472443 173.195651 
L 354.799716 173.028642 
L 355.126989 173.17028 
L 355.454261 173.69358 
L 355.781534 173.695534 
L 356.108807 173.025585 
L 356.43608 173.163722 
L 356.763352 172.773572 
L 357.090625 172.143886 
L 357.417898 172.728104 
L 358.072443 173.301175 
L 358.399716 173.212307 
L 358.726989 173.473794 
L 359.054261 173.354617 
L 359.381534 172.340577 
L 360.363352 173.545899 
L 360.690625 173.717131 
L 361.999716 172.846439 
L 362.326989 172.830841 
L 362.981534 173.914986 
L 363.308807 173.328633 
L 363.63608 173.220606 
L 363.963352 172.633549 
L 364.617898 172.524903 
L 364.94517 172.899515 
L 365.272443 172.995464 
L 365.599716 173.52655 
L 365.926989 172.911105 
L 366.581534 173.067123 
L 366.908807 172.580127 
L 367.23608 173.506689 
L 367.563352 173.224257 
L 368.217898 173.550066 
L 368.54517 173.870253 
L 368.872443 173.463889 
L 369.199716 173.309775 
L 369.526989 174.370365 
L 369.854261 174.641543 
L 370.181534 173.336782 
L 370.508807 174.511969 
L 370.83608 174.789815 
L 371.163352 174.779389 
L 371.490625 174.237352 
L 371.817898 174.548939 
L 372.14517 174.300293 
L 372.472443 174.250603 
L 372.799716 174.571552 
L 373.126989 174.630708 
L 373.454261 174.100518 
L 373.781534 174.358606 
L 374.108807 173.547171 
L 375.090625 174.726061 
L 375.417898 174.763368 
L 375.74517 174.404266 
L 376.072443 173.868562 
L 376.399716 174.002336 
L 376.726989 174.499336 
L 377.054261 174.761793 
L 377.381534 174.237576 
L 377.708807 173.960542 
L 378.03608 174.456797 
L 378.363352 174.608312 
L 378.690625 173.651449 
L 379.017898 174.262652 
L 379.34517 173.571319 
L 379.672443 173.445559 
L 379.999716 174.284243 
L 380.326989 174.647367 
L 380.654261 174.143819 
L 380.981534 175.098752 
L 381.308807 174.592985 
L 381.63608 174.67441 
L 381.963352 173.986843 
L 382.290625 174.89315 
L 382.617898 175.040789 
L 382.94517 174.521271 
L 383.272443 174.31169 
L 383.599716 174.409975 
L 383.926989 174.844725 
L 384.254261 174.091942 
L 384.581534 174.054085 
L 384.908807 175.056739 
L 385.23608 175.179453 
L 385.563352 174.76291 
L 385.890625 175.188881 
L 386.217898 174.606071 
L 386.54517 174.643741 
L 386.872443 175.360247 
L 387.199716 174.345135 
L 387.526989 174.196209 
L 387.854261 174.545014 
L 388.181534 174.055634 
L 388.508807 174.603814 
L 388.83608 174.591183 
L 389.163352 174.85815 
L 389.490625 175.470077 
L 390.472443 174.592355 
L 390.799716 175.085638 
L 391.781534 175.479677 
L 392.43608 174.720709 
L 392.763352 175.256771 
L 393.090625 174.918766 
L 393.417898 175.417736 
L 393.74517 174.536108 
L 394.072443 174.684633 
L 394.399716 174.961427 
L 394.726989 174.675325 
L 395.054261 174.602429 
L 395.381534 174.976565 
L 395.708807 175.109405 
L 396.03608 175.082062 
L 396.363352 175.327841 
L 396.690625 175.332892 
L 397.017898 175.704394 
L 397.34517 175.749832 
L 397.672443 176.00514 
L 398.326989 175.331336 
L 398.654261 175.820725 
L 398.981534 175.670553 
L 399.308807 176.437552 
L 399.63608 176.022944 
L 399.963352 175.79007 
L 400.290625 175.892828 
L 400.617898 176.684125 
L 400.94517 176.529924 
L 401.272443 176.862434 
L 401.599716 176.827581 
L 402.254261 176.121104 
L 402.581534 176.371403 
L 402.908807 176.282667 
L 403.23608 176.55121 
L 403.563352 175.998972 
L 403.890625 176.438404 
L 404.217898 176.232709 
L 405.854261 176.191065 
L 406.508807 176.740455 
L 406.83608 176.851348 
L 407.163352 176.071476 
L 407.490625 176.531128 
L 407.817898 176.313304 
L 408.14517 176.241809 
L 408.472443 176.342322 
L 408.799716 176.154964 
L 409.126989 176.730567 
L 409.781534 176.218591 
L 410.108807 175.822586 
L 410.43608 176.737825 
L 411.090625 176.679438 
L 411.417898 176.37128 
L 411.74517 176.406383 
L 412.072443 176.716217 
L 412.399716 176.815412 
L 412.726989 177.092024 
L 413.054261 177.029247 
L 413.381534 176.541315 
L 413.708807 176.447746 
L 414.03608 177.045527 
L 414.690625 176.949279 
L 415.017898 177.623724 
L 415.34517 177.333461 
L 415.672443 177.417731 
L 416.326989 177.852056 
L 416.654261 177.331983 
L 416.981534 177.404682 
L 417.308807 177.087448 
L 417.63608 177.158187 
L 417.963352 177.398378 
L 418.290625 177.790668 
L 418.617898 177.673758 
L 418.94517 177.360908 
L 419.272443 177.671818 
L 419.599716 177.4662 
L 419.926989 177.428796 
L 420.254261 177.569326 
L 420.581534 177.546279 
L 420.908807 177.915382 
L 421.23608 177.810681 
L 421.890625 178.110901 
L 422.217898 178.166555 
L 422.54517 178.094477 
L 422.872443 178.494665 
L 423.199716 178.181803 
L 423.526989 178.777438 
L 423.854261 178.034988 
L 424.508807 178.678885 
L 424.83608 178.273268 
L 425.163352 178.558078 
L 425.490625 178.645732 
L 425.817898 178.979903 
L 426.14517 178.604421 
L 426.472443 178.72779 
L 426.799716 179.086753 
L 427.126989 179.201082 
L 427.454261 179.159582 
L 427.781534 179.666424 
L 428.108807 178.766806 
L 429.090625 179.450476 
L 429.417898 178.899028 
L 429.74517 178.941914 
L 430.072443 178.499958 
L 430.399716 178.50986 
L 430.726989 178.949115 
L 431.708807 178.963947 
L 432.03608 179.468592 
L 432.363352 178.957596 
L 432.690625 179.146655 
L 433.017898 179.543453 
L 433.34517 179.427571 
L 433.672443 179.127683 
L 433.999716 179.518266 
L 434.326989 179.204089 
L 434.654261 179.222719 
L 434.981534 178.98623 
L 435.63608 179.874376 
L 435.963352 179.517771 
L 436.617898 179.686319 
L 436.94517 179.129207 
L 437.272443 179.487302 
L 437.599716 179.333922 
L 437.926989 179.358981 
L 438.254261 179.26307 
L 438.581534 179.425154 
L 438.908807 179.749735 
L 439.890625 179.776525 
L 440.54517 179.344682 
L 440.872443 179.001729 
L 441.199716 179.286516 
L 441.526989 179.275482 
L 441.854261 179.092813 
L 442.508807 179.884484 
L 442.83608 179.531372 
L 443.490625 179.715287 
L 443.817898 180.303038 
L 444.14517 179.626734 
L 444.472443 179.711593 
L 444.799716 180.147627 
L 445.126989 179.670431 
L 445.454261 179.744088 
L 445.781534 179.947498 
L 446.43608 179.938698 
L 446.763352 180.335198 
L 447.090625 179.565856 
L 447.417898 179.855395 
L 447.74517 179.740909 
L 448.726989 179.74427 
L 449.054261 179.931039 
L 449.381534 179.520946 
L 449.708807 180.09352 
L 450.03608 180.325481 
L 450.363352 180.140308 
L 450.690625 180.371481 
L 451.017898 179.869368 
L 451.34517 179.963973 
L 451.672443 179.778552 
L 451.999716 180.202878 
L 452.326989 179.514326 
L 452.654261 179.482513 
L 452.981534 180.026128 
L 453.308807 179.427368 
L 453.63608 180.162905 
L 453.963352 180.306756 
L 454.290625 180.214288 
L 454.617898 180.380419 
L 455.272443 180.086379 
L 455.599716 180.226138 
L 455.926989 180.13434 
L 456.254261 180.485126 
L 456.581534 179.700224 
L 456.908807 180.485923 
L 457.23608 180.18604 
L 457.563352 180.300664 
L 457.890625 179.763172 
L 458.217898 180.343231 
L 458.54517 180.165772 
L 458.872443 179.744616 
L 459.199716 179.91302 
L 459.526989 180.310773 
L 459.854261 180.22706 
L 460.181534 179.954252 
L 460.508807 180.26877 
L 461.490625 179.54126 
L 461.817898 180.330199 
L 462.14517 179.814204 
L 462.472443 180.189141 
L 462.799716 179.754376 
L 463.126989 179.853491 
L 463.454261 179.818375 
L 463.781534 180.340954 
L 464.108807 179.605927 
L 464.43608 179.87026 
L 465.417898 180.07964 
L 466.399716 179.896924 
L 466.726989 180.110488 
L 467.708807 179.963066 
L 468.03608 179.986136 
L 468.363352 179.786335 
L 468.690625 180.758785 
L 469.017898 180.032607 
L 469.34517 179.725176 
L 469.672443 180.118395 
L 470.326989 180.137444 
L 470.654261 179.824126 
L 470.981534 180.373565 
L 471.308807 180.011501 
L 471.63608 180.842442 
L 471.963352 180.21516 
L 472.290625 179.845933 
L 472.94517 180.704952 
L 473.272443 180.052903 
L 473.599716 180.440301 
L 473.926989 180.109915 
L 474.254261 180.557143 
L 474.581534 179.928409 
L 474.908807 180.445121 
L 475.23608 180.182771 
L 475.563352 180.431568 
L 475.890625 180.367132 
L 476.217898 179.936347 
L 476.54517 179.76118 
L 476.872443 180.23181 
L 477.199716 180.466946 
L 477.854261 180.41052 
L 478.181534 179.999994 
L 478.508807 180.530902 
L 478.83608 180.113117 
L 479.163352 179.963953 
L 480.14517 180.459806 
L 480.472443 180.126073 
L 480.799716 180.086951 
L 481.126989 180.429204 
L 481.454261 179.835401 
L 481.781534 179.932744 
L 482.108807 180.477864 
L 482.763352 180.413045 
L 483.090625 180.786465 
L 483.417898 180.680939 
L 483.74517 181.04021 
L 484.072443 180.618574 
L 484.399716 180.82221 
L 484.726989 181.161888 
L 485.054261 181.009758 
L 485.381534 180.357643 
L 485.708807 181.03261 
L 486.363352 180.65069 
L 487.017898 180.962039 
L 487.34517 180.873817 
L 487.672443 181.058111 
L 487.999716 180.777752 
L 488.326989 180.886168 
L 488.654261 180.622959 
L 488.981534 180.617082 
L 489.308807 180.960957 
L 489.63608 180.67538 
L 489.963352 180.828634 
L 490.290625 180.788095 
L 490.617898 181.055961 
L 490.94517 180.313954 
L 491.272443 180.775309 
L 491.599716 180.938638 
L 491.926989 180.542884 
L 492.581534 181.168604 
L 492.908807 179.688472 
L 493.23608 180.392513 
L 493.563352 178.640427 
L 493.890625 180.57413 
L 494.217898 180.541096 
L 495.199716 179.634978 
L 495.854261 180.678679 
L 496.181534 181.001879 
L 496.508807 179.692597 
L 496.83608 179.872039 
L 497.163352 179.911641 
L 497.490625 179.702042 
L 497.817898 179.916145 
L 498.14517 180.866377 
L 498.472443 181.119183 
L 498.799716 180.870432 
L 499.454261 181.317297 
L 500.108807 181.259107 
L 500.43608 181.713421 
L 500.763352 181.801746 
L 501.090625 181.342694 
L 501.417898 181.740323 
L 501.74517 181.870945 
L 502.399716 181.379809 
L 502.726989 181.10921 
L 503.054261 181.578598 
L 503.381534 181.457262 
L 503.708807 181.756397 
L 504.03608 181.833844 
L 504.363352 181.452956 
L 504.690625 180.758443 
L 505.017898 181.092783 
L 505.34517 181.698405 
L 505.672443 181.772995 
L 505.999716 181.05467 
L 506.326989 181.089973 
L 506.654261 181.50234 
L 506.981534 181.66487 
L 507.308807 181.35546 
L 507.63608 181.225757 
L 507.963352 181.543379 
L 508.94517 181.080672 
L 509.599716 181.726543 
L 509.926989 181.237467 
L 510.254261 181.032272 
L 510.581534 181.377015 
L 510.908807 181.301601 
L 511.23608 181.535514 
L 511.563352 181.258281 
L 511.890625 181.493265 
L 512.54517 181.256666 
L 512.872443 181.513799 
L 513.199716 181.435503 
L 513.526989 181.514314 
L 514.508807 181.189708 
L 514.83608 181.198173 
L 515.163352 180.7601 
L 515.817898 181.34693 
L 516.14517 181.245781 
L 516.472443 181.498462 
L 516.799716 181.550906 
L 517.454261 180.992424 
L 517.781534 181.268454 
L 518.43608 181.035894 
L 518.763352 180.820112 
L 519.090625 181.13928 
L 519.417898 181.229345 
L 519.74517 181.017003 
L 520.072443 180.951223 
L 520.399716 180.76528 
L 520.726989 180.995814 
L 521.054261 180.902129 
L 521.708807 181.354898 
L 522.690625 181.077253 
L 523.017898 181.562308 
L 523.34517 181.129142 
L 524.654261 181.024166 
L 524.981534 180.608327 
L 525.308807 180.84078 
L 525.63608 180.342192 
L 526.290625 180.471055 
L 526.617898 180.088666 
L 526.94517 180.506601 
L 527.599716 180.773344 
L 527.926989 180.569682 
L 528.254261 180.692288 
L 528.908807 180.742516 
L 529.23608 180.806807 
L 529.563352 180.719669 
L 529.890625 180.47129 
L 530.54517 181.015355 
L 530.872443 180.70871 
L 531.526989 180.550199 
L 532.181534 180.648926 
L 532.508807 180.427252 
L 533.490625 180.915069 
L 534.14517 180.821858 
L 534.472443 180.62099 
L 534.799716 181.404136 
L 535.126989 180.454013 
L 535.454261 180.56572 
L 535.781534 180.270258 
L 536.43608 180.815892 
L 536.763352 180.959847 
L 537.090625 180.681966 
L 537.417898 180.77097 
L 537.74517 180.436864 
L 538.399716 181.367257 
L 538.726989 181.425191 
L 539.054261 180.975402 
L 539.381534 181.394564 
L 539.708807 181.243575 
L 540.690625 181.439895 
L 541.672443 181.038546 
L 541.999716 181.078359 
L 542.326989 180.805165 
L 542.654261 181.109987 
L 542.981534 180.894622 
L 543.308807 180.885497 
L 543.63608 181.030231 
L 544.290625 180.582459 
L 544.617898 180.5819 
L 544.94517 181.301521 
L 545.926989 180.850515 
L 546.254261 180.596543 
L 546.581534 181.03422 
L 546.908807 180.387739 
L 547.23608 180.595513 
L 547.563352 180.992694 
L 547.890625 180.906266 
L 548.54517 180.964894 
L 548.872443 180.463233 
L 549.199716 180.413894 
L 549.526989 180.688925 
L 549.854261 180.572082 
L 550.508807 180.593941 
L 550.83608 180.817773 
L 551.163352 180.273597 
L 551.817898 180.300158 
L 552.14517 180.730083 
L 552.799716 181.065862 
L 553.126989 181.07676 
L 553.454261 180.729234 
L 553.781534 181.182576 
L 554.108807 181.067842 
L 554.43608 181.205744 
L 555.417898 180.753324 
L 556.072443 181.150151 
L 556.399716 180.58805 
L 556.726989 181.350497 
L 557.054261 180.81243 
L 557.381534 180.63374 
L 558.03608 181.003007 
L 558.363352 181.941892 
L 559.017898 181.543051 
L 559.34517 181.754085 
L 559.672443 181.610898 
L 559.999716 180.954346 
L 560.326989 181.59882 
L 560.654261 181.325681 
L 560.981534 181.27557 
L 561.308807 181.004722 
L 561.63608 181.055718 
L 561.963352 180.747448 
L 562.290625 181.066094 
L 562.617898 181.051048 
L 562.94517 181.267209 
L 563.599716 180.62789 
L 563.926989 181.382941 
L 564.254261 180.932179 
L 564.581534 180.82115 
L 565.23608 180.968331 
L 565.563352 180.532245 
L 565.890625 180.797535 
L 566.217898 180.77279 
L 566.54517 180.5937 
L 566.872443 180.66505 
L 567.199716 181.171911 
L 567.854261 180.830612 
L 568.181534 181.058228 
L 568.508807 180.702383 
L 568.83608 181.53683 
L 569.163352 180.985928 
L 569.490625 180.681202 
L 570.14517 180.754547 
L 570.472443 180.449857 
L 570.799716 180.816854 
L 571.126989 180.729683 
L 571.454261 181.090441 
L 571.781534 180.750473 
L 572.43608 180.964601 
L 572.763352 180.968534 
L 573.090625 181.427189 
L 573.417898 181.365353 
L 573.74517 181.070849 
L 574.072443 181.437569 
L 574.726989 181.191414 
L 575.381534 181.239322 
L 575.708807 181.198415 
L 576.363352 181.561854 
L 577.017898 181.654299 
L 577.34517 181.167515 
L 577.672443 181.02352 
L 578.326989 180.99732 
L 578.654261 180.830116 
L 578.981534 181.266327 
L 579.308807 180.895491 
L 579.63608 181.437192 
L 580.290625 180.6598 
L 580.617898 180.863089 
L 580.94517 180.926796 
L 581.272443 181.188622 
L 581.599716 181.30559 
L 581.926989 180.611412 
L 582.254261 181.089032 
L 582.581534 180.353987 
L 582.908807 180.85321 
L 583.23608 180.702608 
L 583.563352 181.158002 
L 583.890625 181.162582 
L 584.217898 181.017174 
L 584.54517 181.091327 
L 585.199716 180.642218 
L 585.854261 180.970936 
L 586.181534 180.304453 
L 586.508807 181.094927 
L 587.163352 180.995537 
L 587.490625 180.782287 
L 587.817898 180.924361 
L 588.14517 180.891018 
L 588.472443 180.308226 
L 588.799716 180.384108 
L 589.126989 180.216092 
L 589.454261 180.419858 
L 589.781534 180.373463 
L 590.108807 180.09461 
L 590.43608 180.283628 
L 590.763352 180.695648 
L 591.090625 180.275217 
L 591.417898 180.355095 
L 591.74517 180.752406 
L 592.399716 180.686666 
L 592.726989 180.545878 
L 593.054261 180.685748 
L 593.381534 180.592957 
L 594.03608 181.485827 
L 594.363352 181.055496 
L 594.690625 181.512296 
L 595.017898 181.050615 
L 595.34517 180.827786 
L 595.999716 180.884563 
L 596.326989 181.202102 
L 596.654261 180.650656 
L 596.981534 180.823764 
L 597.308807 180.727668 
L 597.963352 181.31409 
L 598.617898 180.373238 
L 598.94517 180.744619 
L 599.272443 180.05181 
L 599.599716 179.901931 
L 600.908807 180.837801 
L 601.890625 181.259173 
L 602.217898 180.644991 
L 602.54517 181.11426 
L 602.872443 181.159168 
L 603.199716 180.746381 
L 603.526989 180.698586 
L 604.181534 181.113565 
L 604.508807 180.972924 
L 604.83608 181.257505 
L 605.163352 180.695665 
L 605.817898 181.216332 
L 606.14517 180.964219 
L 606.472443 180.87865 
L 606.799716 181.119521 
L 607.126989 181.607793 
L 607.454261 181.122925 
L 607.781534 181.126172 
L 608.108807 181.370888 
L 608.43608 181.43704 
L 608.763352 181.093536 
L 609.090625 181.212693 
L 609.417898 181.019488 
L 609.74517 181.104517 
L 610.072443 181.313435 
L 610.399716 181.263302 
L 610.726989 181.060523 
L 611.054261 181.379133 
L 611.381534 181.056778 
L 612.03608 181.824746 
L 612.363352 181.161291 
L 612.690625 180.902771 
L 613.017898 180.852171 
L 613.34517 181.064476 
L 613.999716 181.065349 
L 614.326989 181.386164 
L 614.654261 180.846129 
L 614.981534 181.129251 
L 615.308807 180.717284 
L 616.94517 181.167349 
L 617.272443 180.999915 
L 617.599716 180.967955 
L 617.926989 181.051937 
L 618.254261 180.81279 
L 618.581534 181.059271 
L 618.908807 180.702309 
L 619.23608 180.588755 
L 619.563352 180.703216 
L 619.890625 181.00155 
L 620.217898 181.056528 
L 621.854261 180.596252 
L 622.181534 181.115839 
L 622.508807 180.5885 
L 622.83608 180.583452 
L 623.163352 181.075765 
L 623.490625 180.902829 
L 623.817898 181.082691 
L 624.472443 180.516812 
L 624.799716 180.882191 
L 625.126989 180.754055 
L 625.126989 180.754055 
" clip-path="url(#paa536f7b4b)" style="fill: none; stroke: #1f77b4; stroke-width: 1.5; stroke-linecap: square"/>
   </g>
   <g id="line2d_16">
    <path d="M 117.854261 296.03625 
L 118.181534 293.670519 
L 118.508807 246.011862 
L 118.83608 269.986081 
L 119.163352 278.80496 
L 119.490625 248.797222 
L 119.817898 230.620247 
L 120.14517 249.231156 
L 120.472443 223.688053 
L 120.799716 220.004876 
L 121.126989 208.447941 
L 121.454261 211.42837 
L 121.781534 210.881812 
L 122.108807 207.172589 
L 122.43608 205.397716 
L 122.763352 204.796222 
L 123.090625 201.902029 
L 123.417898 204.825475 
L 123.74517 199.039532 
L 124.072443 198.542908 
L 124.399716 192.649877 
L 124.726989 193.698227 
L 125.054261 192.006893 
L 125.381534 194.531603 
L 125.708807 193.321072 
L 126.03608 195.950344 
L 126.363352 197.127018 
L 126.690625 197.851664 
L 127.017898 197.33166 
L 127.34517 192.321801 
L 127.672443 190.967719 
L 127.999716 193.33488 
L 128.326989 192.207896 
L 128.981534 192.261632 
L 129.308807 189.654198 
L 129.963352 191.107552 
L 130.94517 192.268471 
L 131.599716 187.000513 
L 131.926989 188.560084 
L 132.254261 190.703189 
L 132.581534 191.730823 
L 132.908807 190.152641 
L 133.23608 189.313256 
L 133.563352 190.141136 
L 133.890625 189.859756 
L 134.217898 189.199789 
L 134.54517 188.181538 
L 134.872443 189.724939 
L 135.199716 185.408925 
L 135.526989 186.78425 
L 135.854261 189.527407 
L 136.181534 190.100574 
L 136.508807 186.043988 
L 136.83608 188.646009 
L 137.163352 187.302461 
L 137.490625 187.322897 
L 137.817898 188.79512 
L 138.14517 187.482793 
L 138.472443 184.947255 
L 138.799716 187.693612 
L 139.126989 186.691977 
L 139.454261 188.118964 
L 139.781534 188.999593 
L 140.43608 186.831658 
L 140.763352 188.620825 
L 141.090625 188.360617 
L 141.417898 188.945293 
L 141.74517 187.132025 
L 142.072443 186.201876 
L 142.399716 188.283568 
L 143.054261 187.196792 
L 143.381534 186.938449 
L 143.708807 187.869209 
L 144.03608 189.448849 
L 144.363352 186.718774 
L 144.690625 187.926137 
L 145.017898 188.029027 
L 145.34517 190.577963 
L 145.672443 188.203017 
L 145.999716 187.138785 
L 146.326989 187.142223 
L 146.654261 186.650825 
L 146.981534 187.646986 
L 147.308807 189.119807 
L 147.63608 187.357287 
L 148.290625 186.780915 
L 148.94517 187.368904 
L 149.599716 186.468459 
L 149.926989 186.8359 
L 150.254261 186.971379 
L 150.581534 186.899701 
L 150.908807 185.093429 
L 151.563352 187.794619 
L 151.890625 185.873828 
L 152.217898 187.042895 
L 152.54517 187.159686 
L 152.872443 186.253183 
L 153.199716 188.14548 
L 153.526989 186.173962 
L 153.854261 185.537409 
L 154.181534 184.507913 
L 154.508807 185.289264 
L 154.83608 185.491353 
L 155.490625 185.50605 
L 155.817898 186.706911 
L 156.799716 186.282175 
L 157.126989 187.690941 
L 157.454261 187.862135 
L 157.781534 187.247781 
L 158.108807 187.676233 
L 158.43608 187.559511 
L 158.763352 186.670892 
L 159.090625 186.806549 
L 159.417898 187.357622 
L 159.74517 185.867307 
L 160.072443 187.427715 
L 160.399716 187.569171 
L 160.726989 186.07568 
L 161.054261 187.16852 
L 161.381534 186.5731 
L 162.03608 187.488045 
L 162.363352 188.414262 
L 162.690625 186.39198 
L 163.017898 186.976814 
L 163.34517 187.007496 
L 163.672443 187.455282 
L 163.999716 187.062753 
L 164.326989 187.688059 
L 164.654261 188.913983 
L 164.981534 187.573495 
L 165.63608 187.191744 
L 165.963352 188.389262 
L 166.290625 187.798525 
L 166.617898 188.176457 
L 166.94517 187.385669 
L 167.272443 187.75249 
L 167.599716 188.699782 
L 167.926989 187.992732 
L 168.581534 187.416289 
L 168.908807 187.418395 
L 169.23608 188.303428 
L 169.563352 188.623496 
L 169.890625 187.288899 
L 170.217898 187.427393 
L 170.54517 186.829265 
L 171.526989 187.035494 
L 171.854261 187.28354 
L 172.181534 186.891307 
L 172.508807 186.72 
L 172.83608 188.287451 
L 173.163352 187.859376 
L 173.490625 187.743438 
L 173.817898 188.356273 
L 174.14517 188.02346 
L 174.472443 188.876462 
L 174.799716 188.073269 
L 175.126989 188.013018 
L 175.454261 188.164853 
L 176.108807 188.680438 
L 176.43608 188.271192 
L 176.763352 187.5247 
L 177.090625 188.341547 
L 177.417898 188.324353 
L 177.74517 189.009177 
L 178.072443 188.05667 
L 178.399716 188.160156 
L 179.054261 187.39402 
L 179.381534 188.24029 
L 179.708807 188.117727 
L 180.03608 188.362317 
L 180.690625 187.579802 
L 181.017898 188.523492 
L 181.34517 187.779426 
L 181.672443 188.004608 
L 181.999716 188.050907 
L 182.326989 187.705057 
L 182.981534 188.714194 
L 183.308807 188.091426 
L 183.963352 188.372829 
L 184.290625 187.862224 
L 184.94517 189.328308 
L 185.272443 188.385363 
L 185.599716 188.20942 
L 185.926989 187.831949 
L 186.254261 189.396933 
L 186.581534 188.005285 
L 186.908807 188.784901 
L 187.23608 187.040929 
L 187.563352 188.521028 
L 187.890625 188.971472 
L 188.217898 189.738808 
L 188.54517 189.229262 
L 188.872443 189.357389 
L 189.526989 187.861986 
L 189.854261 189.002622 
L 190.181534 188.464863 
L 190.508807 188.759545 
L 190.83608 188.493274 
L 191.490625 187.552388 
L 191.817898 188.515434 
L 192.14517 187.482559 
L 192.472443 188.208671 
L 192.799716 188.294128 
L 193.126989 188.216891 
L 193.454261 187.922589 
L 193.781534 188.012822 
L 194.108807 187.853364 
L 194.43608 187.512304 
L 195.090625 188.52519 
L 195.417898 188.286137 
L 195.74517 188.223808 
L 196.072443 188.930585 
L 196.399716 188.287846 
L 196.726989 187.929877 
L 197.054261 188.750086 
L 197.381534 188.931987 
L 197.708807 188.828422 
L 198.03608 187.992121 
L 198.690625 188.912342 
L 199.34517 188.581938 
L 199.672443 188.857937 
L 199.999716 188.733222 
L 200.326989 188.460897 
L 200.981534 189.477394 
L 201.308807 189.028242 
L 201.63608 189.131799 
L 201.963352 188.861658 
L 202.290625 189.526858 
L 202.617898 189.535713 
L 203.272443 188.843236 
L 203.599716 188.902469 
L 203.926989 188.297058 
L 204.254261 189.54924 
L 204.581534 188.985136 
L 205.563352 189.774629 
L 205.890625 189.788429 
L 206.54517 189.519565 
L 206.872443 190.233118 
L 207.199716 189.702311 
L 207.526989 189.514199 
L 207.854261 190.08353 
L 208.181534 190.008336 
L 208.508807 189.565447 
L 208.83608 189.583096 
L 209.163352 190.037254 
L 209.490625 189.91953 
L 210.14517 190.246258 
L 210.472443 188.569576 
L 211.126989 189.990945 
L 211.454261 189.358044 
L 211.781534 189.515732 
L 212.108807 190.11674 
L 212.43608 190.121262 
L 212.763352 190.574514 
L 213.090625 190.013054 
L 213.74517 190.082704 
L 214.399716 189.159987 
L 214.726989 189.122912 
L 215.054261 190.043139 
L 215.381534 189.066995 
L 215.708807 189.494748 
L 216.03608 189.70741 
L 216.363352 189.284489 
L 216.690625 188.605509 
L 217.017898 188.988014 
L 217.34517 188.617698 
L 217.672443 189.643596 
L 217.999716 189.470632 
L 218.326989 188.767958 
L 218.981534 188.195484 
L 219.308807 189.182142 
L 219.63608 189.285755 
L 219.963352 188.604241 
L 220.290625 188.630051 
L 220.94517 189.001234 
L 221.272443 188.555197 
L 221.599716 188.711234 
L 221.926989 188.331132 
L 222.254261 188.216426 
L 222.581534 188.946966 
L 222.908807 188.868593 
L 223.23608 186.61303 
L 223.563352 187.3314 
L 223.890625 187.278921 
L 224.217898 188.626443 
L 224.54517 188.356777 
L 224.872443 188.236927 
L 225.199716 189.014136 
L 225.526989 188.35781 
L 225.854261 188.732627 
L 226.181534 188.594183 
L 226.83608 187.977919 
L 227.163352 188.852699 
L 227.490625 188.838792 
L 227.817898 188.572765 
L 228.14517 187.58102 
L 228.472443 188.035673 
L 228.799716 188.068834 
L 229.126989 188.700876 
L 229.454261 188.052588 
L 229.781534 188.169167 
L 230.108807 188.687222 
L 230.43608 187.943018 
L 230.763352 188.021358 
L 231.090625 188.77915 
L 231.417898 187.496709 
L 231.74517 188.089395 
L 232.072443 188.053076 
L 232.399716 188.150853 
L 233.381534 187.922646 
L 233.708807 186.703195 
L 234.03608 187.536367 
L 234.363352 188.008924 
L 235.017898 187.626979 
L 235.34517 187.479456 
L 235.672443 187.854597 
L 235.999716 188.015779 
L 236.654261 187.371093 
L 237.308807 187.613359 
L 237.63608 187.426125 
L 237.963352 187.772992 
L 238.94517 187.031821 
L 239.272443 187.559654 
L 239.599716 187.190519 
L 239.926989 187.5633 
L 240.254261 187.427299 
L 240.581534 187.129459 
L 241.23608 187.940556 
L 241.563352 187.680124 
L 241.890625 187.68277 
L 242.217898 187.422893 
L 242.54517 187.429192 
L 242.872443 187.247293 
L 243.199716 187.229189 
L 243.526989 187.632436 
L 243.854261 187.059433 
L 244.181534 186.9121 
L 244.508807 187.470026 
L 244.83608 186.911189 
L 245.163352 186.861304 
L 245.817898 188.172784 
L 246.14517 188.13753 
L 246.472443 186.583549 
L 247.126989 187.521703 
L 247.454261 186.950001 
L 247.781534 187.320842 
L 248.108807 187.351116 
L 248.43608 187.18988 
L 248.763352 187.486731 
L 249.090625 187.064197 
L 249.417898 188.068991 
L 249.74517 187.438666 
L 250.072443 187.525588 
L 250.399716 187.213787 
L 250.726989 187.064928 
L 251.054261 187.534254 
L 251.381534 186.999843 
L 251.708807 186.926129 
L 252.363352 187.337595 
L 252.690625 187.268334 
L 253.017898 187.325297 
L 253.672443 188.006475 
L 253.999716 187.257402 
L 254.326989 187.061195 
L 254.654261 187.293884 
L 254.981534 187.793211 
L 255.308807 187.372868 
L 255.63608 187.207817 
L 255.963352 187.337196 
L 256.290625 187.697688 
L 256.617898 187.695944 
L 257.272443 187.27155 
L 257.599716 187.498069 
L 257.926989 186.499071 
L 258.254261 187.45085 
L 258.581534 187.487471 
L 259.23608 187.079629 
L 259.563352 187.896338 
L 259.890625 188.090981 
L 260.217898 187.424129 
L 260.54517 187.19887 
L 260.872443 187.659776 
L 261.199716 187.411044 
L 261.526989 188.069676 
L 262.181534 187.84988 
L 262.508807 187.070756 
L 262.83608 187.950427 
L 263.490625 187.633012 
L 263.817898 188.045176 
L 264.14517 187.762842 
L 264.472443 188.078089 
L 264.799716 187.860503 
L 265.126989 187.220608 
L 265.454261 187.392386 
L 266.108807 187.36011 
L 266.43608 187.501666 
L 266.763352 187.962535 
L 267.090625 188.130643 
L 267.417898 187.961241 
L 267.74517 188.060456 
L 268.072443 187.395321 
L 268.399716 188.152944 
L 269.054261 187.777553 
L 269.381534 188.221934 
L 269.708807 188.327467 
L 270.03608 187.334414 
L 270.363352 187.575282 
L 270.690625 187.386209 
L 271.017898 187.621626 
L 271.672443 187.691807 
L 271.999716 187.598309 
L 272.326989 187.866171 
L 272.654261 188.502235 
L 272.981534 187.314569 
L 273.308807 187.493962 
L 273.63608 187.450727 
L 273.963352 187.814029 
L 274.290625 187.417195 
L 274.617898 187.974649 
L 275.272443 187.508638 
L 275.599716 187.346572 
L 275.926989 187.041069 
L 276.254261 187.641585 
L 276.581534 186.948475 
L 277.563352 187.407369 
L 277.890625 187.783451 
L 278.217898 186.782889 
L 278.54517 186.524814 
L 278.872443 187.174069 
L 279.199716 186.954514 
L 279.854261 187.170452 
L 280.181534 186.948924 
L 280.508807 187.357923 
L 280.83608 186.64722 
L 281.163352 186.591312 
L 281.490625 187.170567 
L 281.817898 186.922178 
L 282.14517 187.859855 
L 282.472443 187.608934 
L 282.799716 186.862467 
L 283.126989 187.229374 
L 283.454261 187.81697 
L 283.781534 187.636123 
L 284.108807 187.21291 
L 284.43608 187.445551 
L 284.763352 188.112018 
L 285.090625 187.574905 
L 285.417898 188.25343 
L 286.072443 187.376497 
L 286.399716 187.700975 
L 286.726989 187.308583 
L 287.381534 187.314403 
L 287.708807 186.835633 
L 288.03608 187.844397 
L 289.017898 187.208921 
L 289.34517 186.666028 
L 289.672443 187.334858 
L 289.999716 186.874302 
L 290.654261 187.869404 
L 290.981534 187.228491 
L 291.308807 187.823869 
L 291.63608 187.239268 
L 291.963352 187.020496 
L 292.290625 187.197063 
L 292.617898 187.932748 
L 292.94517 187.430735 
L 293.272443 187.394432 
L 293.599716 187.476013 
L 293.926989 187.297475 
L 294.254261 187.682553 
L 294.908807 187.372028 
L 295.23608 187.628201 
L 295.563352 186.783212 
L 295.890625 187.074856 
L 296.217898 186.839405 
L 296.54517 187.515935 
L 296.872443 187.763284 
L 297.199716 187.505691 
L 297.526989 186.969055 
L 297.854261 187.109494 
L 298.181534 187.535298 
L 298.508807 187.599074 
L 298.83608 187.05674 
L 299.163352 187.478947 
L 299.490625 186.890404 
L 299.817898 187.426476 
L 300.14517 186.929427 
L 300.799716 187.451987 
L 301.126989 187.646823 
L 301.454261 187.341754 
L 302.108807 187.365084 
L 302.43608 188.043789 
L 302.763352 187.491406 
L 303.090625 187.225406 
L 304.072443 187.781165 
L 304.399716 187.21531 
L 304.726989 187.431781 
L 305.054261 187.030991 
L 305.381534 187.667348 
L 305.708807 187.632509 
L 306.03608 187.483169 
L 306.363352 187.892397 
L 306.690625 188.030297 
L 307.017898 187.892854 
L 307.34517 187.209789 
L 307.672443 187.498252 
L 307.999716 187.144424 
L 308.326989 187.409736 
L 308.654261 187.265258 
L 308.981534 187.92355 
L 309.308807 187.202294 
L 309.63608 188.344075 
L 309.963352 187.628879 
L 310.290625 187.287634 
L 310.617898 187.250385 
L 310.94517 187.988552 
L 311.272443 187.071004 
L 311.599716 187.082474 
L 311.926989 187.294689 
L 312.254261 187.221526 
L 312.581534 187.028633 
L 312.908807 185.158508 
L 313.23608 184.299615 
L 313.563352 184.500074 
L 313.890625 185.277536 
L 314.54517 185.268716 
L 314.872443 185.015152 
L 315.199716 185.796076 
L 315.526989 185.957616 
L 315.854261 185.848003 
L 316.508807 185.892563 
L 317.163352 185.735179 
L 317.490625 186.276245 
L 317.817898 185.92426 
L 318.14517 186.247262 
L 318.472443 186.411477 
L 318.799716 185.734071 
L 319.126989 185.479624 
L 319.454261 185.718253 
L 319.781534 185.690473 
L 320.108807 186.112403 
L 320.43608 186.273486 
L 320.763352 186.295534 
L 321.090625 185.989211 
L 321.417898 186.997044 
L 322.072443 186.170765 
L 322.399716 185.977352 
L 323.054261 186.875185 
L 323.381534 185.986072 
L 323.708807 185.923514 
L 324.03608 186.399051 
L 324.363352 186.190623 
L 324.690625 186.267194 
L 325.017898 186.775894 
L 325.34517 186.365425 
L 325.672443 186.908483 
L 325.999716 186.091172 
L 326.326989 185.744954 
L 326.654261 186.419137 
L 326.981534 186.485364 
L 327.308807 186.161955 
L 327.63608 186.35255 
L 328.94517 186.435734 
L 329.272443 186.270934 
L 329.599716 186.280163 
L 329.926989 186.571571 
L 330.254261 186.277754 
L 330.581534 186.138949 
L 330.908807 186.467975 
L 331.23608 186.182124 
L 331.563352 186.297055 
L 332.217898 186.071706 
L 332.54517 185.619711 
L 332.872443 186.231998 
L 333.199716 186.019974 
L 333.526989 186.273818 
L 334.508807 186.389846 
L 334.83608 186.049325 
L 335.163352 186.585675 
L 335.490625 185.907984 
L 335.817898 185.839286 
L 336.472443 185.906247 
L 336.799716 186.203396 
L 337.126989 186.185789 
L 338.108807 186.534952 
L 338.43608 186.425753 
L 338.763352 187.20929 
L 339.090625 186.719798 
L 339.417898 186.52465 
L 339.74517 186.153964 
L 340.072443 186.784297 
L 340.399716 186.40804 
L 341.054261 186.201713 
L 341.381534 186.48308 
L 342.690625 186.353096 
L 343.34517 186.642501 
L 343.672443 186.526376 
L 343.999716 185.881085 
L 344.326989 185.85757 
L 344.981534 186.964825 
L 345.308807 187.053255 
L 345.63608 186.680356 
L 345.963352 186.720612 
L 346.290625 186.554846 
L 346.617898 186.154126 
L 347.272443 186.243824 
L 347.599716 186.221894 
L 347.926989 185.734358 
L 348.254261 186.339099 
L 348.581534 186.253976 
L 348.908807 186.357352 
L 349.23608 186.635677 
L 349.563352 186.454912 
L 349.890625 186.401728 
L 350.217898 186.75468 
L 350.54517 186.846287 
L 350.872443 186.299263 
L 351.199716 186.117263 
L 351.526989 186.345605 
L 351.854261 186.360191 
L 352.181534 186.623006 
L 352.508807 186.388703 
L 352.83608 186.617551 
L 353.163352 186.09062 
L 353.490625 186.586596 
L 353.817898 186.190007 
L 354.14517 186.660059 
L 354.472443 186.198314 
L 354.799716 186.091641 
L 355.454261 185.492679 
L 355.781534 185.887332 
L 356.43608 186.26005 
L 357.090625 185.864112 
L 357.417898 186.417145 
L 357.74517 186.632897 
L 358.072443 185.933708 
L 358.399716 186.047637 
L 358.726989 186.288551 
L 359.054261 185.935597 
L 359.381534 186.265923 
L 359.708807 185.779064 
L 360.03608 186.225575 
L 360.363352 186.262343 
L 360.690625 186.175022 
L 361.34517 186.227135 
L 361.672443 186.45161 
L 361.999716 185.973284 
L 362.326989 186.244271 
L 362.654261 186.168642 
L 362.981534 185.807737 
L 363.308807 185.955103 
L 363.63608 185.719193 
L 363.963352 185.649423 
L 364.290625 185.813152 
L 364.617898 185.62288 
L 364.94517 185.698558 
L 365.272443 186.135217 
L 365.599716 186.148878 
L 365.926989 185.919774 
L 366.254261 186.061994 
L 366.581534 185.963711 
L 366.908807 186.235315 
L 368.217898 185.818094 
L 368.54517 185.097689 
L 368.872443 185.180212 
L 369.199716 185.592678 
L 369.526989 185.437189 
L 369.854261 185.40739 
L 370.181534 185.814178 
L 370.508807 185.288091 
L 370.83608 185.297282 
L 371.490625 186.011659 
L 371.817898 185.750687 
L 372.14517 185.921088 
L 372.799716 185.553697 
L 373.126989 185.815104 
L 373.454261 186.233264 
L 373.781534 186.316116 
L 374.108807 186.106491 
L 374.43608 186.302507 
L 375.090625 186.116011 
L 375.417898 186.737963 
L 375.74517 186.254033 
L 376.072443 186.364181 
L 376.399716 186.005004 
L 377.381534 185.818936 
L 377.708807 186.107107 
L 378.363352 186.203682 
L 378.690625 185.955973 
L 379.017898 186.32537 
L 379.34517 185.95286 
L 379.672443 186.028157 
L 379.999716 185.742714 
L 380.326989 185.72313 
L 380.654261 186.013151 
L 381.308807 185.709862 
L 381.963352 185.929628 
L 382.290625 185.404373 
L 382.617898 185.736935 
L 382.94517 186.478309 
L 383.272443 185.97255 
L 383.599716 186.223972 
L 383.926989 185.852485 
L 384.581534 186.277131 
L 384.908807 186.02464 
L 385.23608 186.005793 
L 385.563352 185.790291 
L 385.890625 185.379349 
L 386.217898 185.745231 
L 386.872443 185.577989 
L 387.199716 185.490213 
L 387.526989 185.71399 
L 387.854261 185.547125 
L 388.181534 186.376341 
L 388.508807 185.685145 
L 388.83608 185.437634 
L 389.163352 185.782203 
L 389.490625 185.450856 
L 389.817898 185.439633 
L 390.472443 185.955089 
L 390.799716 185.591906 
L 391.454261 185.952991 
L 391.781534 185.654438 
L 392.108807 185.861792 
L 392.43608 185.674963 
L 392.763352 185.971651 
L 393.090625 186.050419 
L 393.417898 185.671561 
L 393.74517 185.714797 
L 394.072443 185.910593 
L 394.399716 185.816853 
L 394.726989 185.941182 
L 395.054261 185.56361 
L 395.381534 185.856095 
L 395.708807 185.937247 
L 396.03608 185.525211 
L 396.690625 185.502809 
L 397.017898 185.799641 
L 397.34517 185.316523 
L 397.672443 185.723265 
L 397.999716 185.748763 
L 398.326989 185.469673 
L 398.654261 186.073279 
L 398.981534 185.85243 
L 399.308807 186.304317 
L 399.63608 185.806278 
L 399.963352 185.647092 
L 400.290625 185.774718 
L 400.617898 185.772281 
L 400.94517 185.331673 
L 401.272443 185.665762 
L 401.599716 185.342823 
L 402.581534 186.082109 
L 402.908807 186.089877 
L 403.23608 184.787684 
L 403.563352 185.59565 
L 404.217898 185.976348 
L 404.54517 185.979838 
L 404.872443 185.464481 
L 405.526989 185.766317 
L 405.854261 185.304157 
L 406.181534 185.241858 
L 406.508807 185.630348 
L 407.163352 185.863152 
L 407.490625 185.674776 
L 407.817898 185.842227 
L 408.14517 185.839063 
L 408.472443 185.343559 
L 409.126989 185.748516 
L 409.454261 185.667737 
L 409.781534 185.860776 
L 410.108807 185.722093 
L 410.43608 185.396313 
L 411.090625 185.501576 
L 411.417898 185.122117 
L 411.74517 185.89944 
L 412.072443 185.378716 
L 412.399716 185.717443 
L 412.726989 185.3795 
L 413.054261 185.614582 
L 413.708807 185.826792 
L 414.03608 185.921637 
L 414.690625 185.273631 
L 415.017898 185.393312 
L 415.34517 185.974657 
L 415.672443 184.983217 
L 416.326989 185.771134 
L 416.654261 185.812377 
L 416.981534 185.487687 
L 417.63608 185.658713 
L 417.963352 185.350863 
L 418.290625 185.208361 
L 418.617898 185.581589 
L 418.94517 185.215886 
L 419.272443 185.230168 
L 419.926989 184.996668 
L 420.581534 185.660728 
L 420.908807 185.400554 
L 421.23608 185.493324 
L 421.890625 185.242921 
L 422.217898 185.382258 
L 422.54517 185.666778 
L 423.199716 185.047268 
L 423.854261 185.643121 
L 424.181534 185.291113 
L 424.508807 185.600169 
L 424.83608 185.163958 
L 425.163352 185.262357 
L 425.490625 185.641168 
L 425.817898 185.21704 
L 426.14517 185.502371 
L 426.472443 185.237078 
L 426.799716 185.503319 
L 427.126989 184.951404 
L 427.454261 185.278299 
L 427.781534 185.06473 
L 428.108807 185.618755 
L 429.090625 184.901788 
L 429.417898 185.055061 
L 429.74517 185.341415 
L 430.072443 185.35212 
L 430.399716 185.230386 
L 430.726989 185.557566 
L 431.054261 185.138828 
L 431.708807 185.212811 
L 432.03608 185.110931 
L 432.363352 184.766846 
L 432.690625 185.098531 
L 433.017898 184.858957 
L 433.34517 185.366991 
L 433.672443 184.832966 
L 433.999716 185.304899 
L 434.326989 185.348768 
L 434.654261 185.019933 
L 434.981534 184.066157 
L 435.308807 184.953365 
L 435.63608 185.029033 
L 435.963352 184.580125 
L 436.617898 184.812666 
L 436.94517 185.011276 
L 437.272443 185.488328 
L 437.599716 184.839575 
L 437.926989 185.246628 
L 438.254261 185.46906 
L 438.908807 184.708155 
L 439.23608 184.612363 
L 439.563352 185.073962 
L 439.890625 185.00207 
L 440.217898 184.667401 
L 440.54517 185.660946 
L 440.872443 185.387543 
L 441.526989 184.554148 
L 442.508807 184.994997 
L 442.83608 184.615874 
L 443.490625 185.217749 
L 443.817898 184.890171 
L 444.14517 185.107049 
L 444.472443 184.634478 
L 445.781534 185.260286 
L 446.108807 184.963435 
L 446.43608 185.088686 
L 446.763352 184.95617 
L 447.090625 185.05309 
L 447.417898 185.289761 
L 447.74517 185.137012 
L 448.072443 185.338344 
L 448.726989 184.990153 
L 449.708807 185.089635 
L 450.03608 185.092262 
L 450.363352 184.908988 
L 450.690625 184.89784 
L 451.017898 185.154122 
L 451.34517 185.214908 
L 451.672443 185.076644 
L 451.999716 185.285548 
L 452.326989 185.064083 
L 452.654261 185.229144 
L 452.981534 184.883728 
L 453.308807 184.752453 
L 453.63608 185.124473 
L 453.963352 184.638999 
L 454.290625 184.873653 
L 454.617898 185.464575 
L 454.94517 185.312124 
L 455.599716 185.285787 
L 455.926989 185.473608 
L 456.254261 184.54076 
L 456.908807 185.16694 
L 457.23608 184.770681 
L 457.563352 184.939562 
L 457.890625 184.880314 
L 458.217898 185.155055 
L 458.54517 184.841595 
L 458.872443 185.55881 
L 459.199716 185.067812 
L 459.526989 184.951094 
L 459.854261 185.066114 
L 460.181534 184.687902 
L 460.508807 184.900511 
L 460.83608 184.912242 
L 461.163352 184.660179 
L 461.817898 184.620449 
L 462.14517 184.937311 
L 462.472443 184.615958 
L 462.799716 184.728864 
L 463.126989 184.961336 
L 463.781534 184.537369 
L 464.763352 184.902272 
L 465.090625 185.005211 
L 465.417898 184.782223 
L 465.74517 184.413976 
L 466.072443 184.733595 
L 466.726989 184.808739 
L 467.054261 185.145023 
L 467.381534 184.699711 
L 467.708807 184.865599 
L 468.03608 184.612051 
L 468.363352 185.049187 
L 469.017898 185.289952 
L 469.34517 184.809121 
L 469.672443 185.01908 
L 469.999716 184.829658 
L 470.326989 184.945658 
L 470.981534 184.921307 
L 471.308807 185.744583 
L 471.63608 185.289857 
L 472.617898 185.204668 
L 472.94517 185.02375 
L 473.272443 185.851191 
L 473.599716 185.202026 
L 473.926989 185.299428 
L 474.254261 185.258903 
L 474.581534 185.765713 
L 474.908807 185.017931 
L 475.23608 185.223402 
L 475.563352 184.843359 
L 475.890625 185.161111 
L 476.217898 184.758296 
L 476.54517 184.801805 
L 476.872443 185.203225 
L 477.199716 184.830448 
L 477.526989 185.276529 
L 477.854261 185.156063 
L 478.181534 185.401703 
L 478.508807 185.368559 
L 478.83608 185.039974 
L 479.163352 185.364377 
L 479.490625 185.372773 
L 479.817898 185.124982 
L 480.799716 185.338046 
L 481.126989 185.160352 
L 481.454261 185.622062 
L 481.781534 185.638071 
L 482.108807 184.985756 
L 482.43608 185.545884 
L 482.763352 185.73752 
L 483.090625 185.255421 
L 483.74517 185.100956 
L 484.072443 185.390662 
L 484.726989 185.383446 
L 485.054261 185.138582 
L 485.381534 185.081053 
L 485.708807 185.36929 
L 486.03608 185.155861 
L 486.363352 185.25123 
L 487.017898 184.964765 
L 487.34517 184.843631 
L 487.672443 185.11617 
L 487.999716 184.955133 
L 488.326989 185.018476 
L 488.654261 184.872595 
L 488.981534 185.073209 
L 489.308807 184.859193 
L 489.63608 185.007464 
L 489.963352 184.919116 
L 490.290625 185.160708 
L 490.94517 184.992052 
L 491.272443 185.448633 
L 491.599716 185.129941 
L 491.926989 185.317515 
L 492.254261 185.290708 
L 492.581534 184.780939 
L 492.908807 180.036991 
L 493.23608 182.56178 
L 493.563352 183.98074 
L 493.890625 183.608499 
L 494.217898 183.802444 
L 494.54517 182.828187 
L 494.872443 183.003421 
L 495.199716 182.664868 
L 495.526989 182.660828 
L 495.854261 182.797474 
L 496.508807 182.332724 
L 496.83608 182.871875 
L 497.163352 182.77053 
L 497.490625 182.828017 
L 497.817898 183.259699 
L 498.14517 183.433791 
L 498.472443 183.009316 
L 499.454261 183.394681 
L 499.781534 183.724366 
L 500.43608 183.204305 
L 500.763352 183.679701 
L 501.417898 183.20975 
L 501.74517 183.655039 
L 502.072443 183.597079 
L 502.399716 183.933037 
L 502.726989 183.533879 
L 503.054261 183.312294 
L 503.381534 183.714128 
L 503.708807 183.471159 
L 504.03608 183.50005 
L 504.690625 184.314002 
L 505.017898 183.612529 
L 505.34517 183.560315 
L 505.999716 183.656162 
L 506.326989 183.468498 
L 506.654261 183.717202 
L 506.981534 184.223634 
L 507.308807 183.773258 
L 507.63608 183.63697 
L 508.290625 184.015264 
L 508.94517 183.788114 
L 509.272443 183.96905 
L 509.599716 183.494329 
L 509.926989 183.749704 
L 510.254261 183.728994 
L 510.581534 183.879491 
L 511.23608 183.43429 
L 511.890625 183.806607 
L 512.217898 183.222694 
L 512.54517 183.761326 
L 512.872443 183.553487 
L 513.199716 183.785491 
L 514.181534 183.709997 
L 514.508807 183.463813 
L 514.83608 183.723789 
L 515.163352 183.340668 
L 515.490625 183.923346 
L 515.817898 183.457319 
L 516.14517 183.66021 
L 516.799716 183.269472 
L 517.781534 183.935596 
L 518.108807 183.566451 
L 518.763352 183.387112 
L 519.090625 183.70615 
L 519.417898 183.314692 
L 519.74517 183.848061 
L 520.072443 183.628863 
L 520.399716 183.181817 
L 520.726989 183.388481 
L 521.054261 183.744475 
L 521.381534 183.755057 
L 521.708807 183.646553 
L 522.363352 183.873659 
L 522.690625 183.949715 
L 523.017898 183.213537 
L 523.34517 183.281806 
L 523.672443 183.690155 
L 523.999716 183.578216 
L 524.326989 183.856638 
L 524.654261 183.406458 
L 524.981534 183.567542 
L 525.308807 184.027791 
L 525.63608 183.50691 
L 525.963352 183.562667 
L 526.290625 183.266677 
L 526.617898 183.180689 
L 526.94517 183.610598 
L 527.272443 183.30321 
L 527.599716 183.695 
L 527.926989 183.035239 
L 528.254261 183.881584 
L 528.581534 183.475687 
L 528.908807 183.371651 
L 529.563352 183.993367 
L 529.890625 183.741462 
L 530.217898 183.815634 
L 530.54517 183.339237 
L 531.199716 183.644082 
L 531.526989 183.348002 
L 531.854261 183.473453 
L 532.181534 184.147805 
L 532.508807 184.015953 
L 532.83608 183.542469 
L 533.163352 183.331938 
L 533.490625 183.69612 
L 533.817898 183.159634 
L 534.14517 183.464488 
L 534.799716 183.428491 
L 535.126989 183.274972 
L 535.454261 183.374157 
L 535.781534 183.116363 
L 536.108807 183.503453 
L 536.43608 183.699039 
L 536.763352 183.354238 
L 537.090625 183.542265 
L 537.417898 183.262553 
L 537.74517 183.595958 
L 538.072443 183.61165 
L 538.399716 183.447239 
L 538.726989 183.742063 
L 539.054261 183.720341 
L 539.381534 183.845882 
L 539.708807 183.254979 
L 540.690625 183.287191 
L 541.017898 183.187968 
L 541.34517 183.636825 
L 541.672443 183.267348 
L 541.999716 183.562088 
L 542.326989 183.502068 
L 542.654261 183.297027 
L 542.981534 183.322349 
L 543.63608 183.551254 
L 544.290625 183.350554 
L 544.617898 183.603973 
L 544.94517 183.098763 
L 545.272443 183.042062 
L 545.926989 183.669447 
L 546.254261 183.466858 
L 546.581534 183.401992 
L 546.908807 184.102038 
L 547.23608 183.599398 
L 547.563352 183.645449 
L 547.890625 183.565669 
L 548.217898 183.804148 
L 549.199716 183.269829 
L 549.526989 183.606135 
L 549.854261 183.452829 
L 550.508807 183.393455 
L 550.83608 183.82691 
L 551.163352 183.346234 
L 551.490625 183.577972 
L 551.817898 183.587448 
L 552.14517 183.423884 
L 552.472443 183.627187 
L 552.799716 183.393281 
L 553.126989 183.65609 
L 553.454261 183.515589 
L 553.781534 183.626813 
L 554.108807 183.311961 
L 554.763352 183.426901 
L 555.090625 182.992038 
L 555.417898 183.071403 
L 555.74517 183.401835 
L 556.072443 183.497815 
L 556.399716 182.924655 
L 557.054261 183.498596 
L 558.03608 183.323552 
L 558.363352 183.129153 
L 558.690625 183.42482 
L 559.017898 183.361321 
L 559.34517 183.086464 
L 559.672443 183.136548 
L 559.999716 183.505101 
L 560.326989 183.340691 
L 560.654261 183.484262 
L 561.308807 183.184531 
L 562.290625 183.449026 
L 562.617898 183.20795 
L 562.94517 183.7038 
L 563.926989 183.531942 
L 564.254261 183.258673 
L 564.581534 183.441936 
L 564.908807 183.444441 
L 565.23608 183.565086 
L 565.563352 183.165658 
L 566.54517 183.152049 
L 567.199716 183.107586 
L 567.526989 183.384105 
L 567.854261 182.973842 
L 568.181534 183.473798 
L 568.508807 183.76319 
L 568.83608 183.343807 
L 570.472443 183.465705 
L 570.799716 183.712417 
L 571.126989 183.657732 
L 571.781534 182.70531 
L 572.43608 182.429954 
L 572.763352 182.483317 
L 573.417898 183.320078 
L 575.054261 183.022061 
L 575.381534 183.386519 
L 576.03608 183.217535 
L 576.363352 183.623722 
L 577.017898 183.171696 
L 577.34517 183.117825 
L 577.999716 182.617823 
L 578.326989 182.696155 
L 578.654261 183.076463 
L 578.981534 182.911318 
L 579.963352 183.206343 
L 580.290625 183.036375 
L 581.599716 183.149778 
L 581.926989 183.497997 
L 582.254261 183.001253 
L 582.581534 183.099563 
L 582.908807 183.583056 
L 583.23608 183.160004 
L 583.563352 183.020948 
L 584.54517 183.323396 
L 585.199716 183.041196 
L 585.526989 182.915704 
L 585.854261 183.015766 
L 586.181534 183.420561 
L 586.508807 183.533616 
L 587.163352 183.097874 
L 587.490625 182.773374 
L 587.817898 183.516329 
L 588.14517 183.154724 
L 588.799716 183.158788 
L 589.126989 183.348349 
L 589.454261 183.348833 
L 589.781534 183.077512 
L 591.417898 182.441261 
L 591.74517 182.6167 
L 592.072443 182.979482 
L 592.399716 182.662028 
L 592.726989 182.768526 
L 593.054261 182.613882 
L 593.708807 182.998654 
L 594.03608 182.612261 
L 594.363352 182.699188 
L 594.690625 182.393298 
L 595.017898 182.697021 
L 595.34517 182.712989 
L 595.672443 182.328841 
L 595.999716 182.816708 
L 596.326989 182.572083 
L 596.654261 182.978271 
L 596.981534 182.550365 
L 597.308807 182.777252 
L 597.963352 182.417953 
L 598.617898 182.714185 
L 598.94517 182.668187 
L 599.272443 182.787581 
L 599.599716 182.287962 
L 600.254261 182.519827 
L 600.581534 182.318817 
L 601.23608 182.312334 
L 601.563352 182.567052 
L 601.890625 182.527408 
L 602.217898 182.806326 
L 602.54517 182.503238 
L 602.872443 182.48821 
L 603.199716 182.612087 
L 603.526989 182.385311 
L 604.181534 182.601009 
L 604.83608 182.125806 
L 605.163352 182.645717 
L 605.490625 182.411736 
L 606.472443 182.298394 
L 606.799716 182.866667 
L 607.454261 182.75749 
L 607.781534 182.557725 
L 608.108807 182.603123 
L 608.763352 182.270885 
L 609.090625 181.964599 
L 609.417898 182.22335 
L 610.072443 181.776029 
L 610.399716 182.148271 
L 610.726989 182.3505 
L 611.054261 182.340268 
L 611.381534 182.520741 
L 612.03608 182.523605 
L 612.363352 182.238641 
L 612.690625 182.277821 
L 613.017898 182.4905 
L 613.34517 182.156534 
L 613.999716 182.384129 
L 614.326989 182.146866 
L 614.981534 182.066737 
L 615.308807 182.388662 
L 615.63608 182.498932 
L 615.963352 182.183845 
L 616.290625 182.322671 
L 616.617898 182.211071 
L 616.94517 182.422352 
L 617.272443 182.48971 
L 617.599716 182.729717 
L 617.926989 182.393239 
L 618.581534 182.735363 
L 618.908807 182.327999 
L 619.23608 182.338891 
L 619.890625 182.599993 
L 620.217898 182.466046 
L 620.54517 182.69844 
L 620.872443 182.38232 
L 621.199716 182.442558 
L 621.526989 182.362258 
L 621.854261 182.586701 
L 622.508807 182.419876 
L 622.83608 182.295667 
L 623.163352 182.456317 
L 623.490625 182.461302 
L 623.817898 182.224138 
L 624.472443 182.186657 
L 625.126989 182.622206 
L 625.126989 182.622206 
" clip-path="url(#paa536f7b4b)" style="fill: none; stroke: #ff7f0e; stroke-width: 1.5; stroke-linecap: square"/>
   </g>
   <g id="patch_3">
    <path d="M 92.490625 308.63625 
L 92.490625 31.43625 
" style="fill: none; stroke: #000000; stroke-width: 0.8; stroke-linejoin: miter; stroke-linecap: square"/>
   </g>
   <g id="patch_4">
    <path d="M 650.490625 308.63625 
L 650.490625 31.43625 
" style="fill: none; stroke: #000000; stroke-width: 0.8; stroke-linejoin: miter; stroke-linecap: square"/>
   </g>
   <g id="patch_5">
    <path d="M 92.490625 308.63625 
L 650.490625 308.63625 
" style="fill: none; stroke: #000000; stroke-width: 0.8; stroke-linejoin: miter; stroke-linecap: square"/>
   </g>
   <g id="patch_6">
    <path d="M 92.490625 31.43625 
L 650.490625 31.43625 
" style="fill: none; stroke: #000000; stroke-width: 0.8; stroke-linejoin: miter; stroke-linecap: square"/>
   </g>
   <g id="text_17">
    <!-- Generator and Discriminator Loss During Training -->
    <g transform="translate(74.258125 25.43625) scale(0.24 -0.24)">
     <defs>
      <path id="DejaVuSans-47" d="M 3809 666 
L 3809 1919 
L 2778 1919 
L 2778 2438 
L 4434 2438 
L 4434 434 
Q 4069 175 3628 42 
Q 3188 -91 2688 -91 
Q 1594 -91 976 548 
Q 359 1188 359 2328 
Q 359 3472 976 4111 
Q 1594 4750 2688 4750 
Q 3144 4750 3555 4637 
Q 3966 4525 4313 4306 
L 4313 3634 
Q 3963 3931 3569 4081 
Q 3175 4231 2741 4231 
Q 1884 4231 1454 3753 
Q 1025 3275 1025 2328 
Q 1025 1384 1454 906 
Q 1884 428 2741 428 
Q 3075 428 3337 486 
Q 3600 544 3809 666 
z
" transform="scale(0.015625)"/>
      <path id="DejaVuSans-20" transform="scale(0.015625)"/>
      <path id="DejaVuSans-64" d="M 2906 2969 
L 2906 4863 
L 3481 4863 
L 3481 0 
L 2906 0 
L 2906 525 
Q 2725 213 2448 61 
Q 2172 -91 1784 -91 
Q 1150 -91 751 415 
Q 353 922 353 1747 
Q 353 2572 751 3078 
Q 1150 3584 1784 3584 
Q 2172 3584 2448 3432 
Q 2725 3281 2906 2969 
z
M 947 1747 
Q 947 1113 1208 752 
Q 1469 391 1925 391 
Q 2381 391 2643 752 
Q 2906 1113 2906 1747 
Q 2906 2381 2643 2742 
Q 2381 3103 1925 3103 
Q 1469 3103 1208 2742 
Q 947 2381 947 1747 
z
" transform="scale(0.015625)"/>
      <path id="DejaVuSans-44" d="M 1259 4147 
L 1259 519 
L 2022 519 
Q 2988 519 3436 956 
Q 3884 1394 3884 2338 
Q 3884 3275 3436 3711 
Q 2988 4147 2022 4147 
L 1259 4147 
z
M 628 4666 
L 1925 4666 
Q 3281 4666 3915 4102 
Q 4550 3538 4550 2338 
Q 4550 1131 3912 565 
Q 3275 0 1925 0 
L 628 0 
L 628 4666 
z
" transform="scale(0.015625)"/>
      <path id="DejaVuSans-63" d="M 3122 3366 
L 3122 2828 
Q 2878 2963 2633 3030 
Q 2388 3097 2138 3097 
Q 1578 3097 1268 2742 
Q 959 2388 959 1747 
Q 959 1106 1268 751 
Q 1578 397 2138 397 
Q 2388 397 2633 464 
Q 2878 531 3122 666 
L 3122 134 
Q 2881 22 2623 -34 
Q 2366 -91 2075 -91 
Q 1284 -91 818 406 
Q 353 903 353 1747 
Q 353 2603 823 3093 
Q 1294 3584 2113 3584 
Q 2378 3584 2631 3529 
Q 2884 3475 3122 3366 
z
" transform="scale(0.015625)"/>
      <path id="DejaVuSans-6d" d="M 3328 2828 
Q 3544 3216 3844 3400 
Q 4144 3584 4550 3584 
Q 5097 3584 5394 3201 
Q 5691 2819 5691 2113 
L 5691 0 
L 5113 0 
L 5113 2094 
Q 5113 2597 4934 2840 
Q 4756 3084 4391 3084 
Q 3944 3084 3684 2787 
Q 3425 2491 3425 1978 
L 3425 0 
L 2847 0 
L 2847 2094 
Q 2847 2600 2669 2842 
Q 2491 3084 2119 3084 
Q 1678 3084 1418 2786 
Q 1159 2488 1159 1978 
L 1159 0 
L 581 0 
L 581 3500 
L 1159 3500 
L 1159 2956 
Q 1356 3278 1631 3431 
Q 1906 3584 2284 3584 
Q 2666 3584 2933 3390 
Q 3200 3197 3328 2828 
z
" transform="scale(0.015625)"/>
      <path id="DejaVuSans-75" d="M 544 1381 
L 544 3500 
L 1119 3500 
L 1119 1403 
Q 1119 906 1312 657 
Q 1506 409 1894 409 
Q 2359 409 2629 706 
Q 2900 1003 2900 1516 
L 2900 3500 
L 3475 3500 
L 3475 0 
L 2900 0 
L 2900 538 
Q 2691 219 2414 64 
Q 2138 -91 1772 -91 
Q 1169 -91 856 284 
Q 544 659 544 1381 
z
M 1991 3584 
L 1991 3584 
z
" transform="scale(0.015625)"/>
      <path id="DejaVuSans-67" d="M 2906 1791 
Q 2906 2416 2648 2759 
Q 2391 3103 1925 3103 
Q 1463 3103 1205 2759 
Q 947 2416 947 1791 
Q 947 1169 1205 825 
Q 1463 481 1925 481 
Q 2391 481 2648 825 
Q 2906 1169 2906 1791 
z
M 3481 434 
Q 3481 -459 3084 -895 
Q 2688 -1331 1869 -1331 
Q 1566 -1331 1297 -1286 
Q 1028 -1241 775 -1147 
L 775 -588 
Q 1028 -725 1275 -790 
Q 1522 -856 1778 -856 
Q 2344 -856 2625 -561 
Q 2906 -266 2906 331 
L 2906 616 
Q 2728 306 2450 153 
Q 2172 0 1784 0 
Q 1141 0 747 490 
Q 353 981 353 1791 
Q 353 2603 747 3093 
Q 1141 3584 1784 3584 
Q 2172 3584 2450 3431 
Q 2728 3278 2906 2969 
L 2906 3500 
L 3481 3500 
L 3481 434 
z
" transform="scale(0.015625)"/>
      <path id="DejaVuSans-54" d="M -19 4666 
L 3928 4666 
L 3928 4134 
L 2272 4134 
L 2272 0 
L 1638 0 
L 1638 4134 
L -19 4134 
L -19 4666 
z
" transform="scale(0.015625)"/>
     </defs>
     <use xlink:href="#DejaVuSans-47"/>
     <use xlink:href="#DejaVuSans-65" x="77.490234"/>
     <use xlink:href="#DejaVuSans-6e" x="139.013672"/>
     <use xlink:href="#DejaVuSans-65" x="202.392578"/>
     <use xlink:href="#DejaVuSans-72" x="263.916016"/>
     <use xlink:href="#DejaVuSans-61" x="305.029297"/>
     <use xlink:href="#DejaVuSans-74" x="366.308594"/>
     <use xlink:href="#DejaVuSans-6f" x="405.517578"/>
     <use xlink:href="#DejaVuSans-72" x="466.699219"/>
     <use xlink:href="#DejaVuSans-20" x="507.8125"/>
     <use xlink:href="#DejaVuSans-61" x="539.599609"/>
     <use xlink:href="#DejaVuSans-6e" x="600.878906"/>
     <use xlink:href="#DejaVuSans-64" x="664.257812"/>
     <use xlink:href="#DejaVuSans-20" x="727.734375"/>
     <use xlink:href="#DejaVuSans-44" x="759.521484"/>
     <use xlink:href="#DejaVuSans-69" x="836.523438"/>
     <use xlink:href="#DejaVuSans-73" x="864.306641"/>
     <use xlink:href="#DejaVuSans-63" x="916.40625"/>
     <use xlink:href="#DejaVuSans-72" x="971.386719"/>
     <use xlink:href="#DejaVuSans-69" x="1012.5"/>
     <use xlink:href="#DejaVuSans-6d" x="1040.283203"/>
     <use xlink:href="#DejaVuSans-69" x="1137.695312"/>
     <use xlink:href="#DejaVuSans-6e" x="1165.478516"/>
     <use xlink:href="#DejaVuSans-61" x="1228.857422"/>
     <use xlink:href="#DejaVuSans-74" x="1290.136719"/>
     <use xlink:href="#DejaVuSans-6f" x="1329.345703"/>
     <use xlink:href="#DejaVuSans-72" x="1390.527344"/>
     <use xlink:href="#DejaVuSans-20" x="1431.640625"/>
     <use xlink:href="#DejaVuSans-4c" x="1463.427734"/>
     <use xlink:href="#DejaVuSans-6f" x="1517.390625"/>
     <use xlink:href="#DejaVuSans-73" x="1578.572266"/>
     <use xlink:href="#DejaVuSans-73" x="1630.671875"/>
     <use xlink:href="#DejaVuSans-20" x="1682.771484"/>
     <use xlink:href="#DejaVuSans-44" x="1714.558594"/>
     <use xlink:href="#DejaVuSans-75" x="1791.560547"/>
     <use xlink:href="#DejaVuSans-72" x="1854.939453"/>
     <use xlink:href="#DejaVuSans-69" x="1896.052734"/>
     <use xlink:href="#DejaVuSans-6e" x="1923.835938"/>
     <use xlink:href="#DejaVuSans-67" x="1987.214844"/>
     <use xlink:href="#DejaVuSans-20" x="2050.691406"/>
     <use xlink:href="#DejaVuSans-54" x="2082.478516"/>
     <use xlink:href="#DejaVuSans-72" x="2128.8125"/>
     <use xlink:href="#DejaVuSans-61" x="2169.925781"/>
     <use xlink:href="#DejaVuSans-69" x="2231.205078"/>
     <use xlink:href="#DejaVuSans-6e" x="2258.988281"/>
     <use xlink:href="#DejaVuSans-69" x="2322.367188"/>
     <use xlink:href="#DejaVuSans-6e" x="2350.150391"/>
     <use xlink:href="#DejaVuSans-67" x="2413.529297"/>
    </g>
   </g>
   <g id="legend_1">
    <g id="patch_7">
     <path d="M 556.99375 106.14875 
L 636.490625 106.14875 
Q 640.490625 106.14875 640.490625 102.14875 
L 640.490625 45.43625 
Q 640.490625 41.43625 636.490625 41.43625 
L 556.99375 41.43625 
Q 552.99375 41.43625 552.99375 45.43625 
L 552.99375 102.14875 
Q 552.99375 106.14875 556.99375 106.14875 
z
" style="fill: #ffffff; opacity: 0.8; stroke: #cccccc; stroke-linejoin: miter"/>
    </g>
    <g id="line2d_17">
     <path d="M 560.99375 57.633125 
L 580.99375 57.633125 
L 600.99375 57.633125 
" style="fill: none; stroke: #1f77b4; stroke-width: 1.5; stroke-linecap: square"/>
    </g>
    <g id="text_18">
     <!-- G -->
     <g transform="translate(616.99375 64.633125) scale(0.2 -0.2)">
      <use xlink:href="#DejaVuSans-47"/>
     </g>
    </g>
    <g id="line2d_18">
     <path d="M 560.99375 86.989375 
L 580.99375 86.989375 
L 600.99375 86.989375 
" style="fill: none; stroke: #ff7f0e; stroke-width: 1.5; stroke-linecap: square"/>
    </g>
    <g id="text_19">
     <!-- D -->
     <g transform="translate(616.99375 93.989375) scale(0.2 -0.2)">
      <use xlink:href="#DejaVuSans-44"/>
     </g>
    </g>
   </g>
  </g>
 </g>
 <defs>
  <clipPath id="paa536f7b4b">
   <rect x="92.490625" y="31.43625" width="558" height="277.2"/>
  </clipPath>
 </defs>
</svg>
