<?xml version="1.0" encoding="utf-8" standalone="no"?>
<!DOCTYPE svg PUBLIC "-//W3C//DTD SVG 1.1//EN"
  "http://www.w3.org/Graphics/SVG/1.1/DTD/svg11.dtd">
<svg xmlns:xlink="http://www.w3.org/1999/xlink" width="675.923125pt" height="365.54875pt" viewBox="0 0 675.923125 365.54875" xmlns="http://www.w3.org/2000/svg" version="1.1">
 <metadata>
  <rdf:RDF xmlns:dc="http://purl.org/dc/elements/1.1/" xmlns:cc="http://creativecommons.org/ns#" xmlns:rdf="http://www.w3.org/1999/02/22-rdf-syntax-ns#">
   <cc:Work>
    <dc:type rdf:resource="http://purl.org/dc/dcmitype/StillImage"/>
    <dc:date>2024-02-12T19:03:47.452314</dc:date>
    <dc:format>image/svg+xml</dc:format>
    <dc:creator>
     <cc:Agent>
      <dc:title>Matplotlib v3.7.2, https://matplotlib.org/</dc:title>
     </cc:Agent>
    </dc:creator>
   </cc:Work>
  </rdf:RDF>
 </metadata>
 <defs>
  <style type="text/css">*{stroke-linejoin: round; stroke-linecap: butt}</style>
 </defs>
 <g id="figure_1">
  <g id="patch_1">
   <path d="M 0 365.54875 
L 675.923125 365.54875 
L 675.923125 -0 
L 0 -0 
z
" style="fill: #ffffff"/>
  </g>
  <g id="axes_1">
   <g id="patch_2">
    <path d="M 92.490625 308.63625 
L 650.490625 308.63625 
L 650.490625 31.43625 
L 92.490625 31.43625 
z
" style="fill: #ffffff"/>
   </g>
   <g id="matplotlib.axis_1">
    <g id="xtick_1">
     <g id="line2d_1">
      <defs>
       <path id="m7730ca2b86" d="M 0 0 
L 0 3.5 
" style="stroke: #000000; stroke-width: 0.8"/>
      </defs>
      <g>
       <use xlink:href="#m7730ca2b86" x="117.854261" y="308.63625" style="stroke: #000000; stroke-width: 0.8"/>
      </g>
     </g>
     <g id="text_1">
      <!-- 0 -->
      <g transform="translate(111.491761 330.833125) scale(0.2 -0.2)">
       <defs>
        <path id="DejaVuSans-30" d="M 2034 4250 
Q 1547 4250 1301 3770 
Q 1056 3291 1056 2328 
Q 1056 1369 1301 889 
Q 1547 409 2034 409 
Q 2525 409 2770 889 
Q 3016 1369 3016 2328 
Q 3016 3291 2770 3770 
Q 2525 4250 2034 4250 
z
M 2034 4750 
Q 2819 4750 3233 4129 
Q 3647 3509 3647 2328 
Q 3647 1150 3233 529 
Q 2819 -91 2034 -91 
Q 1250 -91 836 529 
Q 422 1150 422 2328 
Q 422 3509 836 4129 
Q 1250 4750 2034 4750 
z
" transform="scale(0.015625)"/>
       </defs>
       <use xlink:href="#DejaVuSans-30"/>
      </g>
     </g>
    </g>
    <g id="xtick_2">
     <g id="line2d_2">
      <g>
       <use xlink:href="#m7730ca2b86" x="184.600673" y="308.63625" style="stroke: #000000; stroke-width: 0.8"/>
      </g>
     </g>
     <g id="text_2">
      <!-- 250 -->
      <g transform="translate(165.513173 330.833125) scale(0.2 -0.2)">
       <defs>
        <path id="DejaVuSans-32" d="M 1228 531 
L 3431 531 
L 3431 0 
L 469 0 
L 469 531 
Q 828 903 1448 1529 
Q 2069 2156 2228 2338 
Q 2531 2678 2651 2914 
Q 2772 3150 2772 3378 
Q 2772 3750 2511 3984 
Q 2250 4219 1831 4219 
Q 1534 4219 1204 4116 
Q 875 4013 500 3803 
L 500 4441 
Q 881 4594 1212 4672 
Q 1544 4750 1819 4750 
Q 2544 4750 2975 4387 
Q 3406 4025 3406 3419 
Q 3406 3131 3298 2873 
Q 3191 2616 2906 2266 
Q 2828 2175 2409 1742 
Q 1991 1309 1228 531 
z
" transform="scale(0.015625)"/>
        <path id="DejaVuSans-35" d="M 691 4666 
L 3169 4666 
L 3169 4134 
L 1269 4134 
L 1269 2991 
Q 1406 3038 1543 3061 
Q 1681 3084 1819 3084 
Q 2600 3084 3056 2656 
Q 3513 2228 3513 1497 
Q 3513 744 3044 326 
Q 2575 -91 1722 -91 
Q 1428 -91 1123 -41 
Q 819 9 494 109 
L 494 744 
Q 775 591 1075 516 
Q 1375 441 1709 441 
Q 2250 441 2565 725 
Q 2881 1009 2881 1497 
Q 2881 1984 2565 2268 
Q 2250 2553 1709 2553 
Q 1456 2553 1204 2497 
Q 953 2441 691 2322 
L 691 4666 
z
" transform="scale(0.015625)"/>
       </defs>
       <use xlink:href="#DejaVuSans-32"/>
       <use xlink:href="#DejaVuSans-35" x="63.623047"/>
       <use xlink:href="#DejaVuSans-30" x="127.246094"/>
      </g>
     </g>
    </g>
    <g id="xtick_3">
     <g id="line2d_3">
      <g>
       <use xlink:href="#m7730ca2b86" x="251.347084" y="308.63625" style="stroke: #000000; stroke-width: 0.8"/>
      </g>
     </g>
     <g id="text_3">
      <!-- 500 -->
      <g transform="translate(232.259584 330.833125) scale(0.2 -0.2)">
       <use xlink:href="#DejaVuSans-35"/>
       <use xlink:href="#DejaVuSans-30" x="63.623047"/>
       <use xlink:href="#DejaVuSans-30" x="127.246094"/>
      </g>
     </g>
    </g>
    <g id="xtick_4">
     <g id="line2d_4">
      <g>
       <use xlink:href="#m7730ca2b86" x="318.093496" y="308.63625" style="stroke: #000000; stroke-width: 0.8"/>
      </g>
     </g>
     <g id="text_4">
      <!-- 750 -->
      <g transform="translate(299.005996 330.833125) scale(0.2 -0.2)">
       <defs>
        <path id="DejaVuSans-37" d="M 525 4666 
L 3525 4666 
L 3525 4397 
L 1831 0 
L 1172 0 
L 2766 4134 
L 525 4134 
L 525 4666 
z
" transform="scale(0.015625)"/>
       </defs>
       <use xlink:href="#DejaVuSans-37"/>
       <use xlink:href="#DejaVuSans-35" x="63.623047"/>
       <use xlink:href="#DejaVuSans-30" x="127.246094"/>
      </g>
     </g>
    </g>
    <g id="xtick_5">
     <g id="line2d_5">
      <g>
       <use xlink:href="#m7730ca2b86" x="384.839907" y="308.63625" style="stroke: #000000; stroke-width: 0.8"/>
      </g>
     </g>
     <g id="text_5">
      <!-- 1000 -->
      <g transform="translate(359.389907 330.833125) scale(0.2 -0.2)">
       <defs>
        <path id="DejaVuSans-31" d="M 794 531 
L 1825 531 
L 1825 4091 
L 703 3866 
L 703 4441 
L 1819 4666 
L 2450 4666 
L 2450 531 
L 3481 531 
L 3481 0 
L 794 0 
L 794 531 
z
" transform="scale(0.015625)"/>
       </defs>
       <use xlink:href="#DejaVuSans-31"/>
       <use xlink:href="#DejaVuSans-30" x="63.623047"/>
       <use xlink:href="#DejaVuSans-30" x="127.246094"/>
       <use xlink:href="#DejaVuSans-30" x="190.869141"/>
      </g>
     </g>
    </g>
    <g id="xtick_6">
     <g id="line2d_6">
      <g>
       <use xlink:href="#m7730ca2b86" x="451.586319" y="308.63625" style="stroke: #000000; stroke-width: 0.8"/>
      </g>
     </g>
     <g id="text_6">
      <!-- 1250 -->
      <g transform="translate(426.136319 330.833125) scale(0.2 -0.2)">
       <use xlink:href="#DejaVuSans-31"/>
       <use xlink:href="#DejaVuSans-32" x="63.623047"/>
       <use xlink:href="#DejaVuSans-35" x="127.246094"/>
       <use xlink:href="#DejaVuSans-30" x="190.869141"/>
      </g>
     </g>
    </g>
    <g id="xtick_7">
     <g id="line2d_7">
      <g>
       <use xlink:href="#m7730ca2b86" x="518.33273" y="308.63625" style="stroke: #000000; stroke-width: 0.8"/>
      </g>
     </g>
     <g id="text_7">
      <!-- 1500 -->
      <g transform="translate(492.88273 330.833125) scale(0.2 -0.2)">
       <use xlink:href="#DejaVuSans-31"/>
       <use xlink:href="#DejaVuSans-35" x="63.623047"/>
       <use xlink:href="#DejaVuSans-30" x="127.246094"/>
       <use xlink:href="#DejaVuSans-30" x="190.869141"/>
      </g>
     </g>
    </g>
    <g id="xtick_8">
     <g id="line2d_8">
      <g>
       <use xlink:href="#m7730ca2b86" x="585.079142" y="308.63625" style="stroke: #000000; stroke-width: 0.8"/>
      </g>
     </g>
     <g id="text_8">
      <!-- 1750 -->
      <g transform="translate(559.629142 330.833125) scale(0.2 -0.2)">
       <use xlink:href="#DejaVuSans-31"/>
       <use xlink:href="#DejaVuSans-37" x="63.623047"/>
       <use xlink:href="#DejaVuSans-35" x="127.246094"/>
       <use xlink:href="#DejaVuSans-30" x="190.869141"/>
      </g>
     </g>
    </g>
    <g id="text_9">
     <!-- iterations -->
     <g transform="translate(324.035938 354.189375) scale(0.2 -0.2)">
      <defs>
       <path id="DejaVuSans-69" d="M 603 3500 
L 1178 3500 
L 1178 0 
L 603 0 
L 603 3500 
z
M 603 4863 
L 1178 4863 
L 1178 4134 
L 603 4134 
L 603 4863 
z
" transform="scale(0.015625)"/>
       <path id="DejaVuSans-74" d="M 1172 4494 
L 1172 3500 
L 2356 3500 
L 2356 3053 
L 1172 3053 
L 1172 1153 
Q 1172 725 1289 603 
Q 1406 481 1766 481 
L 2356 481 
L 2356 0 
L 1766 0 
Q 1100 0 847 248 
Q 594 497 594 1153 
L 594 3053 
L 172 3053 
L 172 3500 
L 594 3500 
L 594 4494 
L 1172 4494 
z
" transform="scale(0.015625)"/>
       <path id="DejaVuSans-65" d="M 3597 1894 
L 3597 1613 
L 953 1613 
Q 991 1019 1311 708 
Q 1631 397 2203 397 
Q 2534 397 2845 478 
Q 3156 559 3463 722 
L 3463 178 
Q 3153 47 2828 -22 
Q 2503 -91 2169 -91 
Q 1331 -91 842 396 
Q 353 884 353 1716 
Q 353 2575 817 3079 
Q 1281 3584 2069 3584 
Q 2775 3584 3186 3129 
Q 3597 2675 3597 1894 
z
M 3022 2063 
Q 3016 2534 2758 2815 
Q 2500 3097 2075 3097 
Q 1594 3097 1305 2825 
Q 1016 2553 972 2059 
L 3022 2063 
z
" transform="scale(0.015625)"/>
       <path id="DejaVuSans-72" d="M 2631 2963 
Q 2534 3019 2420 3045 
Q 2306 3072 2169 3072 
Q 1681 3072 1420 2755 
Q 1159 2438 1159 1844 
L 1159 0 
L 581 0 
L 581 3500 
L 1159 3500 
L 1159 2956 
Q 1341 3275 1631 3429 
Q 1922 3584 2338 3584 
Q 2397 3584 2469 3576 
Q 2541 3569 2628 3553 
L 2631 2963 
z
" transform="scale(0.015625)"/>
       <path id="DejaVuSans-61" d="M 2194 1759 
Q 1497 1759 1228 1600 
Q 959 1441 959 1056 
Q 959 750 1161 570 
Q 1363 391 1709 391 
Q 2188 391 2477 730 
Q 2766 1069 2766 1631 
L 2766 1759 
L 2194 1759 
z
M 3341 1997 
L 3341 0 
L 2766 0 
L 2766 531 
Q 2569 213 2275 61 
Q 1981 -91 1556 -91 
Q 1019 -91 701 211 
Q 384 513 384 1019 
Q 384 1609 779 1909 
Q 1175 2209 1959 2209 
L 2766 2209 
L 2766 2266 
Q 2766 2663 2505 2880 
Q 2244 3097 1772 3097 
Q 1472 3097 1187 3025 
Q 903 2953 641 2809 
L 641 3341 
Q 956 3463 1253 3523 
Q 1550 3584 1831 3584 
Q 2591 3584 2966 3190 
Q 3341 2797 3341 1997 
z
" transform="scale(0.015625)"/>
       <path id="DejaVuSans-6f" d="M 1959 3097 
Q 1497 3097 1228 2736 
Q 959 2375 959 1747 
Q 959 1119 1226 758 
Q 1494 397 1959 397 
Q 2419 397 2687 759 
Q 2956 1122 2956 1747 
Q 2956 2369 2687 2733 
Q 2419 3097 1959 3097 
z
M 1959 3584 
Q 2709 3584 3137 3096 
Q 3566 2609 3566 1747 
Q 3566 888 3137 398 
Q 2709 -91 1959 -91 
Q 1206 -91 779 398 
Q 353 888 353 1747 
Q 353 2609 779 3096 
Q 1206 3584 1959 3584 
z
" transform="scale(0.015625)"/>
       <path id="DejaVuSans-6e" d="M 3513 2113 
L 3513 0 
L 2938 0 
L 2938 2094 
Q 2938 2591 2744 2837 
Q 2550 3084 2163 3084 
Q 1697 3084 1428 2787 
Q 1159 2491 1159 1978 
L 1159 0 
L 581 0 
L 581 3500 
L 1159 3500 
L 1159 2956 
Q 1366 3272 1645 3428 
Q 1925 3584 2291 3584 
Q 2894 3584 3203 3211 
Q 3513 2838 3513 2113 
z
" transform="scale(0.015625)"/>
       <path id="DejaVuSans-73" d="M 2834 3397 
L 2834 2853 
Q 2591 2978 2328 3040 
Q 2066 3103 1784 3103 
Q 1356 3103 1142 2972 
Q 928 2841 928 2578 
Q 928 2378 1081 2264 
Q 1234 2150 1697 2047 
L 1894 2003 
Q 2506 1872 2764 1633 
Q 3022 1394 3022 966 
Q 3022 478 2636 193 
Q 2250 -91 1575 -91 
Q 1294 -91 989 -36 
Q 684 19 347 128 
L 347 722 
Q 666 556 975 473 
Q 1284 391 1588 391 
Q 1994 391 2212 530 
Q 2431 669 2431 922 
Q 2431 1156 2273 1281 
Q 2116 1406 1581 1522 
L 1381 1569 
Q 847 1681 609 1914 
Q 372 2147 372 2553 
Q 372 3047 722 3315 
Q 1072 3584 1716 3584 
Q 2034 3584 2315 3537 
Q 2597 3491 2834 3397 
z
" transform="scale(0.015625)"/>
      </defs>
      <use xlink:href="#DejaVuSans-69"/>
      <use xlink:href="#DejaVuSans-74" x="27.783203"/>
      <use xlink:href="#DejaVuSans-65" x="66.992188"/>
      <use xlink:href="#DejaVuSans-72" x="128.515625"/>
      <use xlink:href="#DejaVuSans-61" x="169.628906"/>
      <use xlink:href="#DejaVuSans-74" x="230.908203"/>
      <use xlink:href="#DejaVuSans-69" x="270.117188"/>
      <use xlink:href="#DejaVuSans-6f" x="297.900391"/>
      <use xlink:href="#DejaVuSans-6e" x="359.082031"/>
      <use xlink:href="#DejaVuSans-73" x="422.460938"/>
     </g>
    </g>
   </g>
   <g id="matplotlib.axis_2">
    <g id="ytick_1">
     <g id="line2d_9">
      <defs>
       <path id="mf3e131086f" d="M 0 0 
L -3.5 0 
" style="stroke: #000000; stroke-width: 0.8"/>
      </defs>
      <g>
       <use xlink:href="#mf3e131086f" x="92.490625" y="287.754235" style="stroke: #000000; stroke-width: 0.8"/>
      </g>
     </g>
     <g id="text_10">
      <!-- −200 -->
      <g transform="translate(30.55625 295.352672) scale(0.2 -0.2)">
       <defs>
        <path id="DejaVuSans-2212" d="M 678 2272 
L 4684 2272 
L 4684 1741 
L 678 1741 
L 678 2272 
z
" transform="scale(0.015625)"/>
       </defs>
       <use xlink:href="#DejaVuSans-2212"/>
       <use xlink:href="#DejaVuSans-32" x="83.789062"/>
       <use xlink:href="#DejaVuSans-30" x="147.412109"/>
       <use xlink:href="#DejaVuSans-30" x="211.035156"/>
      </g>
     </g>
    </g>
    <g id="ytick_2">
     <g id="line2d_10">
      <g>
       <use xlink:href="#mf3e131086f" x="92.490625" y="227.578386" style="stroke: #000000; stroke-width: 0.8"/>
      </g>
     </g>
     <g id="text_11">
      <!-- −100 -->
      <g transform="translate(30.55625 235.176823) scale(0.2 -0.2)">
       <use xlink:href="#DejaVuSans-2212"/>
       <use xlink:href="#DejaVuSans-31" x="83.789062"/>
       <use xlink:href="#DejaVuSans-30" x="147.412109"/>
       <use xlink:href="#DejaVuSans-30" x="211.035156"/>
      </g>
     </g>
    </g>
    <g id="ytick_3">
     <g id="line2d_11">
      <g>
       <use xlink:href="#mf3e131086f" x="92.490625" y="167.402537" style="stroke: #000000; stroke-width: 0.8"/>
      </g>
     </g>
     <g id="text_12">
      <!-- 0 -->
      <g transform="translate(72.765625 175.000974) scale(0.2 -0.2)">
       <use xlink:href="#DejaVuSans-30"/>
      </g>
     </g>
    </g>
    <g id="ytick_4">
     <g id="line2d_12">
      <g>
       <use xlink:href="#mf3e131086f" x="92.490625" y="107.226688" style="stroke: #000000; stroke-width: 0.8"/>
      </g>
     </g>
     <g id="text_13">
      <!-- 100 -->
      <g transform="translate(47.315625 114.825125) scale(0.2 -0.2)">
       <use xlink:href="#DejaVuSans-31"/>
       <use xlink:href="#DejaVuSans-30" x="63.623047"/>
       <use xlink:href="#DejaVuSans-30" x="127.246094"/>
      </g>
     </g>
    </g>
    <g id="ytick_5">
     <g id="line2d_13">
      <g>
       <use xlink:href="#mf3e131086f" x="92.490625" y="47.050838" style="stroke: #000000; stroke-width: 0.8"/>
      </g>
     </g>
     <g id="text_14">
      <!-- 200 -->
      <g transform="translate(47.315625 54.649276) scale(0.2 -0.2)">
       <use xlink:href="#DejaVuSans-32"/>
       <use xlink:href="#DejaVuSans-30" x="63.623047"/>
       <use xlink:href="#DejaVuSans-30" x="127.246094"/>
      </g>
     </g>
    </g>
    <g id="text_15">
     <!-- Loss -->
     <g transform="translate(22.396875 191.970625) rotate(-90) scale(0.2 -0.2)">
      <defs>
       <path id="DejaVuSans-4c" d="M 628 4666 
L 1259 4666 
L 1259 531 
L 3531 531 
L 3531 0 
L 628 0 
L 628 4666 
z
" transform="scale(0.015625)"/>
      </defs>
      <use xlink:href="#DejaVuSans-4c"/>
      <use xlink:href="#DejaVuSans-6f" x="53.962891"/>
      <use xlink:href="#DejaVuSans-73" x="115.144531"/>
      <use xlink:href="#DejaVuSans-73" x="167.244141"/>
     </g>
    </g>
   </g>
   <g id="line2d_14">
    <path d="M 117.854261 138.53853 
L 118.121247 97.982964 
L 118.388233 117.083744 
L 118.655218 121.777179 
L 118.922204 104.43596 
L 119.18919 128.019774 
L 119.456175 117.918638 
L 119.723161 99.792773 
L 119.990147 123.303136 
L 120.524118 107.215809 
L 120.791103 54.185175 
L 121.058089 44.586844 
L 121.325075 50.208405 
L 121.59206 65.431701 
L 122.126032 44.03625 
L 122.393017 47.425516 
L 122.660003 53.255988 
L 122.926989 62.20203 
L 123.193974 54.058702 
L 123.46096 59.456177 
L 123.727946 109.140656 
L 123.994931 94.805897 
L 124.261917 87.78307 
L 124.528903 75.133855 
L 124.795888 98.959252 
L 125.062874 90.513457 
L 125.329859 91.353551 
L 125.596845 94.307751 
L 125.863831 99.862324 
L 126.130816 94.958193 
L 126.397802 93.356455 
L 126.931773 79.768648 
L 127.198759 81.625829 
L 127.465745 87.639335 
L 127.73273 98.247788 
L 127.999716 97.025522 
L 128.266702 100.470922 
L 128.533687 94.009915 
L 128.800673 108.302296 
L 129.067658 106.746361 
L 129.334644 111.813688 
L 129.60163 111.321942 
L 129.868615 109.609667 
L 130.135601 111.732825 
L 130.936558 121.128737 
L 131.203544 118.243637 
L 131.470529 122.939672 
L 131.737515 114.006144 
L 132.004501 113.402414 
L 132.271486 118.336942 
L 132.538472 126.247555 
L 132.805458 117.705982 
L 133.072443 118.938384 
L 133.339429 115.501875 
L 133.606414 121.08746 
L 133.8734 119.267918 
L 134.140386 128.786107 
L 134.407371 128.140582 
L 134.674357 126.980209 
L 134.941343 127.736057 
L 135.208328 119.824596 
L 135.7423 125.22985 
L 136.009285 132.060951 
L 136.276271 127.742292 
L 136.543257 128.726967 
L 136.810242 132.552166 
L 137.077228 126.842327 
L 137.344214 124.849238 
L 137.611199 134.387408 
L 137.878185 128.837998 
L 138.14517 132.134935 
L 138.412156 123.78468 
L 138.679142 132.616752 
L 138.946127 133.362101 
L 139.213113 130.522423 
L 139.480099 132.295449 
L 139.747084 130.881563 
L 140.01407 130.761392 
L 140.281056 136.851809 
L 140.548041 133.13345 
L 140.815027 136.862142 
L 141.082013 132.687554 
L 141.348998 136.323725 
L 141.615984 132.024156 
L 141.882969 135.651823 
L 142.149955 134.503783 
L 142.416941 138.447324 
L 142.683926 140.302657 
L 143.217898 135.530543 
L 143.484883 133.290565 
L 143.751869 132.866831 
L 144.018855 142.596344 
L 144.28584 144.986145 
L 144.819812 140.610362 
L 145.086797 141.500038 
L 145.353783 143.686115 
L 145.620769 140.210455 
L 146.15474 145.84987 
L 146.421725 147.376432 
L 146.688711 144.567206 
L 146.955697 148.385484 
L 147.222682 146.372494 
L 147.489668 149.177832 
L 148.023639 151.428518 
L 148.290625 151.65227 
L 148.557611 153.806823 
L 149.091582 149.66105 
L 149.358568 150.094058 
L 149.625553 153.424061 
L 149.892539 153.379319 
L 150.159525 152.68978 
L 150.42651 148.221893 
L 150.693496 149.94797 
L 150.960481 150.801801 
L 151.227467 149.496023 
L 151.494453 153.426297 
L 151.761438 148.701191 
L 152.028424 155.673158 
L 152.29541 152.270783 
L 152.562395 152.812434 
L 152.829381 151.283283 
L 153.096367 151.61941 
L 153.363352 149.972005 
L 153.630338 149.445184 
L 153.897324 150.678389 
L 154.164309 153.782528 
L 154.431295 152.701329 
L 154.698281 150.58121 
L 154.965266 153.449759 
L 155.499237 151.134056 
L 156.033209 149.175368 
L 156.300194 152.92116 
L 156.56718 154.821874 
L 156.834166 154.122896 
L 157.101151 154.659618 
L 157.368137 154.935823 
L 157.635123 150.153039 
L 157.902108 153.838236 
L 158.169094 152.87849 
L 158.43608 156.117978 
L 158.703065 154.618691 
L 158.970051 155.286374 
L 159.237036 155.509007 
L 159.504022 155.203361 
L 159.771008 155.733462 
L 160.037993 154.610605 
L 160.304979 156.868743 
L 160.83895 154.86685 
L 161.105936 155.846898 
L 161.372922 155.5618 
L 161.639907 154.291763 
L 161.906893 156.186717 
L 162.173879 156.244531 
L 162.70785 155.403453 
L 163.241821 155.993486 
L 163.508807 155.337442 
L 163.775792 155.619744 
L 164.309764 157.322453 
L 164.576749 156.929476 
L 164.843735 155.284185 
L 165.110721 157.053882 
L 165.377706 154.679929 
L 165.644692 157.291986 
L 165.911678 156.903158 
L 166.178663 157.112578 
L 166.712635 158.666323 
L 166.97962 157.140524 
L 167.246606 157.121308 
L 167.513592 158.853463 
L 167.780577 159.363312 
L 168.047563 158.407733 
L 168.314548 158.277547 
L 168.84852 159.045141 
L 169.115505 159.348091 
L 169.382491 158.40205 
L 169.649477 158.776583 
L 169.916462 157.259794 
L 170.183448 157.809901 
L 170.450434 157.905638 
L 170.717419 160.304648 
L 170.984405 159.27558 
L 171.251391 160.198122 
L 171.518376 158.222625 
L 171.785362 158.653634 
L 172.052347 158.487327 
L 172.319333 158.747868 
L 172.586319 158.790748 
L 172.853304 157.779227 
L 173.387276 158.768348 
L 173.654261 157.9548 
L 173.921247 158.883566 
L 174.188233 159.266435 
L 174.455218 158.167248 
L 174.722204 157.931008 
L 174.98919 157.269122 
L 175.523161 159.245639 
L 176.057132 159.591384 
L 176.591103 157.982647 
L 176.858089 158.460905 
L 177.125075 158.242813 
L 177.39206 157.491546 
L 177.926032 159.897972 
L 178.193017 159.522708 
L 178.460003 158.755006 
L 178.726989 160.102913 
L 179.26096 159.911868 
L 179.527946 158.428562 
L 179.794931 158.256503 
L 180.061917 159.280037 
L 180.862874 160.666388 
L 181.396845 158.531589 
L 181.663831 160.376333 
L 181.930816 159.592961 
L 182.197802 159.596836 
L 182.464788 158.212775 
L 182.731773 158.965149 
L 182.998759 160.221803 
L 183.265745 160.554096 
L 183.53273 160.234987 
L 183.799716 159.189843 
L 184.333687 158.4345 
L 184.867658 159.86907 
L 185.134644 159.834532 
L 185.668615 160.513438 
L 185.935601 160.132619 
L 186.202587 160.426465 
L 186.469572 160.383222 
L 186.736558 159.592069 
L 187.003544 160.667174 
L 187.270529 159.239572 
L 187.537515 161.504711 
L 187.804501 160.711068 
L 188.071486 160.321193 
L 188.338472 160.334656 
L 188.605458 160.4783 
L 188.872443 160.244258 
L 189.139429 160.241173 
L 189.406414 160.039621 
L 190.207371 158.951886 
L 190.474357 159.1988 
L 190.741343 159.780806 
L 191.008328 159.367018 
L 191.275314 158.507879 
L 191.5423 158.913263 
L 191.809285 158.653872 
L 192.076271 158.552491 
L 192.343257 159.409902 
L 192.610242 159.175904 
L 192.877228 158.624938 
L 193.411199 158.893202 
L 193.94517 160.264354 
L 194.212156 160.201945 
L 194.746127 158.650772 
L 195.013113 159.288537 
L 195.280099 160.520795 
L 195.547084 160.457279 
L 196.081056 158.257941 
L 196.348041 158.619133 
L 196.615027 159.745309 
L 196.882013 159.48481 
L 197.148998 159.978303 
L 197.682969 159.612132 
L 197.949955 159.841911 
L 198.483926 160.510643 
L 199.017898 159.110659 
L 199.284883 159.040226 
L 199.551869 158.709458 
L 199.818855 159.419005 
L 200.08584 159.173452 
L 200.352826 159.518919 
L 200.619812 158.566461 
L 201.153783 159.499792 
L 201.687754 158.586841 
L 201.95474 158.811935 
L 202.221725 159.308052 
L 202.488711 158.76162 
L 202.755697 157.928456 
L 203.022682 158.267043 
L 203.289668 158.073122 
L 203.556654 158.023908 
L 204.357611 159.418039 
L 204.624596 159.162644 
L 204.891582 158.305005 
L 205.158568 158.181522 
L 205.425553 158.871983 
L 205.692539 158.207984 
L 205.959525 158.920037 
L 206.22651 158.307508 
L 206.493496 158.614952 
L 206.760481 157.895699 
L 207.027467 158.923532 
L 207.294453 158.600683 
L 207.561438 159.982429 
L 207.828424 158.452746 
L 208.09541 158.364598 
L 208.362395 158.53182 
L 208.629381 158.447831 
L 208.896367 159.631004 
L 209.163352 158.702739 
L 209.697324 158.844423 
L 209.964309 158.261884 
L 210.498281 158.876161 
L 210.765266 158.704879 
L 211.032252 158.966426 
L 211.299237 159.070848 
L 211.566223 159.870111 
L 211.833209 159.975019 
L 212.100194 160.596646 
L 212.36718 159.037911 
L 212.901151 159.919207 
L 213.168137 159.970316 
L 213.435123 160.525837 
L 213.702108 159.82942 
L 213.969094 160.372563 
L 214.23608 160.469565 
L 214.503065 160.440517 
L 214.770051 160.545118 
L 215.037036 161.243255 
L 215.571008 161.95244 
L 215.837993 161.344446 
L 216.104979 162.230849 
L 216.371965 160.694473 
L 216.63895 161.529689 
L 216.905936 161.958084 
L 217.172922 161.981839 
L 217.439907 161.531251 
L 217.706893 162.091559 
L 217.973879 161.080496 
L 218.240864 161.420721 
L 218.50785 161.219607 
L 219.041821 163.802467 
L 219.308807 163.544163 
L 219.575792 162.374592 
L 219.842778 162.509576 
L 220.109764 163.184545 
L 220.376749 162.450438 
L 221.177706 161.216576 
L 221.444692 161.664394 
L 221.711678 161.362429 
L 221.978663 162.075806 
L 222.245649 161.102878 
L 222.512635 163.051107 
L 222.77962 162.817614 
L 223.046606 162.946267 
L 223.580577 162.763962 
L 223.847563 162.839012 
L 224.114548 162.000619 
L 224.381534 162.598769 
L 224.64852 162.378559 
L 224.915505 163.076137 
L 225.182491 162.571522 
L 225.449477 162.729478 
L 225.716462 162.590982 
L 225.983448 162.127056 
L 226.250434 163.018755 
L 226.517419 161.84957 
L 226.784405 162.625888 
L 227.051391 162.543089 
L 227.318376 163.183865 
L 227.585362 162.865179 
L 228.386319 162.964571 
L 228.653304 163.003534 
L 228.92029 161.98191 
L 229.187276 161.799897 
L 229.454261 163.497794 
L 230.255218 161.52673 
L 230.522204 162.915428 
L 230.78919 163.518571 
L 231.056175 163.511122 
L 231.323161 163.779869 
L 231.857132 163.292074 
L 232.124118 163.261754 
L 232.391103 164.209916 
L 233.19206 164.29926 
L 233.459046 163.883719 
L 233.726032 164.214976 
L 233.993017 163.611439 
L 234.260003 163.50855 
L 234.526989 163.619804 
L 234.793974 163.517998 
L 235.06096 163.762633 
L 235.327946 163.682833 
L 235.594931 163.927672 
L 235.861917 162.938326 
L 236.128903 163.558524 
L 236.395888 163.570411 
L 236.662874 162.838417 
L 236.929859 163.419215 
L 237.196845 163.034187 
L 237.463831 163.560597 
L 237.730816 162.974609 
L 237.997802 163.22759 
L 238.264788 163.897061 
L 238.798759 163.200592 
L 239.065745 163.883585 
L 239.33273 164.051239 
L 239.866702 163.416856 
L 240.133687 163.617793 
L 240.400673 163.502438 
L 240.667658 163.762088 
L 240.934644 164.287996 
L 241.20163 163.466284 
L 241.468615 163.625181 
L 241.735601 162.927845 
L 242.002587 162.924646 
L 242.269572 163.154536 
L 242.536558 162.913681 
L 243.070529 163.90003 
L 243.337515 164.07757 
L 243.604501 164.574846 
L 243.871486 164.524283 
L 244.138472 165.478911 
L 244.405458 165.009827 
L 244.672443 165.363989 
L 244.939429 165.356022 
L 245.206414 164.90985 
L 245.4734 165.135213 
L 245.740386 164.92389 
L 246.007371 165.118623 
L 246.274357 165.026908 
L 246.541343 165.352702 
L 246.808328 165.29849 
L 247.3423 163.713846 
L 247.609285 164.55012 
L 248.143257 164.198529 
L 248.410242 164.675546 
L 248.677228 164.071193 
L 248.944214 164.222628 
L 249.211199 164.527797 
L 249.478185 164.517816 
L 250.012156 165.291701 
L 250.279142 165.561032 
L 250.546127 164.811283 
L 250.813113 164.988455 
L 251.080099 164.924284 
L 251.347084 164.615151 
L 251.61407 165.583877 
L 251.881056 165.212143 
L 252.148041 165.333861 
L 252.415027 165.323854 
L 252.682013 165.041086 
L 252.948998 164.978663 
L 253.482969 165.200191 
L 253.749955 166.08 
L 254.016941 165.035632 
L 254.283926 165.603331 
L 254.550912 165.86487 
L 254.817898 165.443294 
L 255.084883 166.256202 
L 255.351869 164.694453 
L 255.618855 164.670977 
L 255.88584 164.525527 
L 256.152826 165.21686 
L 256.419812 164.912678 
L 256.686797 165.326199 
L 256.953783 164.488608 
L 257.220769 164.820524 
L 257.487754 165.524774 
L 257.75474 165.617187 
L 258.021725 165.576942 
L 258.288711 164.87486 
L 258.822682 165.961546 
L 259.356654 164.944552 
L 259.623639 165.134178 
L 259.890625 164.885828 
L 260.157611 165.370466 
L 260.424596 164.272193 
L 260.958568 165.0006 
L 261.225553 164.976294 
L 261.492539 165.602046 
L 262.02651 165.237788 
L 262.293496 166.108076 
L 262.560481 166.104062 
L 262.827467 165.82227 
L 263.094453 166.256527 
L 263.628424 165.469542 
L 263.89541 165.098018 
L 264.429381 165.534906 
L 264.696367 166.428739 
L 265.230338 165.721829 
L 265.497324 166.143999 
L 265.764309 165.615088 
L 266.031295 166.228039 
L 266.298281 165.061817 
L 266.565266 165.143602 
L 266.832252 165.760576 
L 267.099237 165.561899 
L 267.366223 166.216574 
L 267.900194 165.183599 
L 268.16718 165.018782 
L 268.434166 165.360501 
L 268.968137 165.419201 
L 269.235123 165.360393 
L 269.502108 164.136741 
L 269.769094 165.343897 
L 270.03608 165.572042 
L 270.303065 165.545783 
L 270.837036 164.591578 
L 271.104022 164.512763 
L 271.371008 164.747325 
L 271.637993 165.493837 
L 271.904979 165.139657 
L 272.171965 165.495464 
L 272.43895 164.968325 
L 272.705936 165.539488 
L 272.972922 164.924951 
L 273.239907 165.093261 
L 273.506893 164.996031 
L 273.773879 164.524479 
L 274.040864 164.886919 
L 274.30785 164.47752 
L 274.574836 164.371764 
L 274.841821 163.988204 
L 275.108807 164.644625 
L 275.375792 164.709602 
L 275.642778 164.279329 
L 276.176749 164.712515 
L 276.443735 164.128696 
L 276.710721 164.199866 
L 276.977706 164.096761 
L 277.244692 164.48685 
L 277.511678 164.527779 
L 277.778663 164.707487 
L 278.57962 164.760681 
L 278.846606 164.850835 
L 279.113592 164.799478 
L 279.380577 164.295248 
L 279.647563 164.533537 
L 280.181534 164.375007 
L 280.44852 164.912049 
L 280.715505 164.567608 
L 280.982491 163.712177 
L 281.249477 163.720205 
L 281.516462 164.737969 
L 281.783448 164.51053 
L 282.317419 164.528611 
L 282.584405 164.159422 
L 282.851391 164.156035 
L 283.385362 164.416819 
L 283.919333 164.201238 
L 284.186319 163.689581 
L 284.453304 163.688707 
L 284.987276 164.021742 
L 285.254261 164.40091 
L 285.788233 164.1579 
L 286.055218 164.518102 
L 286.322204 163.675799 
L 286.58919 163.978809 
L 286.856175 164.113678 
L 287.123161 164.586427 
L 287.390147 163.635984 
L 287.657132 164.265889 
L 287.924118 163.462821 
L 288.191103 164.146655 
L 288.725075 164.35971 
L 288.99206 163.949097 
L 289.259046 164.500156 
L 289.526032 164.439221 
L 289.793017 164.258676 
L 290.060003 164.612078 
L 290.326989 164.474929 
L 290.593974 164.662866 
L 290.86096 164.384643 
L 291.127946 165.050381 
L 291.928903 164.638916 
L 292.195888 164.819175 
L 292.729859 164.516941 
L 292.996845 164.688791 
L 293.263831 165.221928 
L 294.064788 165.57446 
L 294.598759 166.924859 
L 295.13273 166.874639 
L 295.399716 166.326228 
L 295.666702 166.215998 
L 295.933687 166.537828 
L 296.467658 166.108848 
L 296.734644 166.486851 
L 297.268615 166.322447 
L 297.535601 166.749162 
L 297.802587 166.739898 
L 298.069572 166.314309 
L 298.336558 166.29515 
L 298.603544 166.754573 
L 298.870529 166.073459 
L 299.404501 166.394029 
L 299.938472 166.580613 
L 300.205458 166.655139 
L 301.006414 166.43708 
L 301.540386 166.349224 
L 301.807371 166.578572 
L 302.341343 165.911427 
L 302.608328 166.599712 
L 302.875314 166.763055 
L 303.676271 166.836537 
L 303.943257 166.292862 
L 304.210242 166.114483 
L 304.477228 166.70456 
L 304.744214 166.404543 
L 305.011199 166.949484 
L 305.54517 166.846264 
L 305.812156 167.496116 
L 306.079142 167.106541 
L 306.346127 167.269006 
L 306.613113 166.270429 
L 306.880099 167.076186 
L 307.147084 167.150597 
L 307.41407 166.690862 
L 307.948041 167.016251 
L 308.215027 166.722275 
L 308.482013 167.172367 
L 309.015984 167.300765 
L 309.549955 166.953468 
L 309.816941 166.909695 
L 310.083926 166.667897 
L 310.350912 167.128023 
L 310.617898 167.287949 
L 310.884883 166.953439 
L 311.151869 167.165798 
L 311.418855 167.176958 
L 311.68584 167.776535 
L 311.952826 167.588331 
L 312.753783 168.112648 
L 313.020769 167.814137 
L 313.287754 167.966171 
L 313.55474 167.337813 
L 313.821725 168.231724 
L 314.355697 167.66535 
L 314.622682 167.930938 
L 314.889668 167.764538 
L 315.156654 167.800716 
L 315.423639 167.605195 
L 315.957611 167.877379 
L 316.224596 167.448346 
L 316.758568 167.619896 
L 317.025553 167.277464 
L 317.292539 167.257352 
L 317.559525 167.622062 
L 318.093496 167.811488 
L 318.360481 167.2019 
L 318.627467 167.374296 
L 318.894453 167.108636 
L 319.161438 167.529072 
L 319.428424 167.445918 
L 319.69541 167.588031 
L 319.962395 166.986021 
L 320.229381 167.07021 
L 320.496367 167.01968 
L 320.763352 167.131119 
L 321.030338 166.706204 
L 321.297324 167.273783 
L 321.564309 167.4991 
L 321.831295 167.164137 
L 322.098281 167.278401 
L 322.365266 167.029178 
L 322.632252 166.381069 
L 322.899237 166.598948 
L 323.166223 166.362415 
L 323.433209 166.875708 
L 323.96718 166.486489 
L 324.234166 167.00153 
L 324.501151 166.338952 
L 324.768137 167.288716 
L 325.035123 166.475611 
L 325.302108 166.628849 
L 325.569094 166.578035 
L 325.83608 166.994117 
L 326.103065 166.373868 
L 326.637036 167.125379 
L 326.904022 166.9732 
L 327.171008 166.957091 
L 327.437993 167.064731 
L 327.704979 166.882958 
L 327.971965 166.514705 
L 328.23895 166.783083 
L 328.505936 166.270219 
L 328.772922 166.448122 
L 329.039907 167.096922 
L 329.306893 167.182332 
L 329.573879 167.032398 
L 329.840864 166.457706 
L 330.10785 167.0144 
L 330.641821 167.264616 
L 330.908807 166.954706 
L 331.442778 166.860758 
L 331.709764 167.200607 
L 331.976749 166.850006 
L 332.243735 167.223131 
L 332.510721 167.091588 
L 332.777706 167.73185 
L 333.044692 167.645538 
L 333.311678 167.831437 
L 333.578663 167.616765 
L 333.845649 167.043909 
L 334.112635 167.39589 
L 334.37962 166.841559 
L 334.646606 167.512002 
L 334.913592 167.50357 
L 335.180577 167.978246 
L 335.447563 167.672412 
L 335.981534 168.036219 
L 336.24852 167.420888 
L 336.515505 167.485797 
L 336.782491 168.077085 
L 337.049477 168.264032 
L 337.316462 167.662811 
L 337.583448 167.993159 
L 337.850434 167.701559 
L 338.117419 168.175583 
L 338.384405 168.068052 
L 338.651391 168.168252 
L 338.918376 167.917035 
L 339.185362 168.125004 
L 339.452347 167.61821 
L 339.719333 168.034187 
L 339.986319 168.012515 
L 340.253304 167.751495 
L 340.52029 168.214365 
L 341.054261 167.834211 
L 341.321247 168.107223 
L 341.588233 168.052522 
L 341.855218 168.754493 
L 342.122204 167.919724 
L 342.38919 168.417852 
L 342.656175 167.689991 
L 343.190147 167.980679 
L 343.457132 167.810499 
L 343.724118 167.962371 
L 343.991103 167.649031 
L 344.258089 168.198983 
L 344.525075 168.257292 
L 344.79206 167.565095 
L 345.059046 167.666777 
L 345.326032 168.134757 
L 345.593017 167.766729 
L 345.860003 168.068642 
L 346.126989 168.068813 
L 346.393974 168.376111 
L 346.66096 168.323267 
L 346.927946 168.045614 
L 347.194931 168.013065 
L 347.461917 168.729377 
L 347.728903 168.472048 
L 347.995888 167.71081 
L 348.262874 167.839083 
L 348.796845 168.607979 
L 349.063831 168.046909 
L 350.398759 168.339345 
L 351.199716 167.907877 
L 351.466702 167.996859 
L 352.000673 167.956325 
L 352.267658 168.335002 
L 352.80163 168.000615 
L 353.068615 168.34044 
L 353.335601 167.747281 
L 353.602587 167.712023 
L 353.869572 168.375882 
L 354.403544 167.865294 
L 354.670529 168.38259 
L 355.204501 168.289031 
L 355.471486 167.838615 
L 355.738472 168.052053 
L 356.005458 167.46046 
L 356.272443 167.931055 
L 356.539429 167.679184 
L 356.806414 168.034151 
L 357.0734 167.710281 
L 357.607371 167.77079 
L 358.141343 168.24578 
L 358.675314 168.200039 
L 358.9423 167.829781 
L 359.209285 167.958138 
L 359.476271 168.402189 
L 359.743257 168.554432 
L 360.277228 167.649448 
L 361.078185 167.955298 
L 361.34517 168.353654 
L 361.612156 168.307398 
L 362.146127 167.766889 
L 362.413113 167.657628 
L 362.680099 167.845189 
L 362.947084 167.687432 
L 363.21407 167.823104 
L 363.481056 167.392199 
L 363.748041 167.779666 
L 364.015027 167.685633 
L 364.282013 167.89451 
L 364.548998 167.138594 
L 364.815984 167.323921 
L 365.082969 166.796265 
L 365.349955 167.393376 
L 365.883926 167.520812 
L 366.150912 167.150663 
L 366.417898 167.495462 
L 366.684883 167.134297 
L 366.951869 167.550264 
L 367.218855 167.154746 
L 367.48584 167.587608 
L 367.752826 167.21438 
L 368.019812 167.838486 
L 368.286797 167.489968 
L 368.553783 167.505754 
L 368.820769 166.953646 
L 369.087754 167.728569 
L 369.35474 167.637567 
L 369.621725 167.782465 
L 369.888711 167.465462 
L 370.155697 167.6463 
L 370.422682 167.67675 
L 370.689668 168.102737 
L 370.956654 167.422142 
L 371.490625 168.100589 
L 371.757611 167.246586 
L 372.024596 167.871726 
L 372.291582 167.584116 
L 372.558568 167.867532 
L 372.825553 167.406948 
L 373.092539 167.775551 
L 373.359525 167.612994 
L 374.160481 168.130487 
L 374.961438 167.585704 
L 375.49541 167.628664 
L 376.029381 167.73587 
L 376.296367 167.440339 
L 377.097324 168.532412 
L 377.631295 167.513484 
L 377.898281 167.855203 
L 378.432252 167.451928 
L 378.699237 167.538191 
L 378.966223 168.188903 
L 379.233209 167.451479 
L 379.500194 167.977264 
L 379.76718 168.058694 
L 380.301151 167.690907 
L 380.835123 168.038624 
L 381.102108 168.365727 
L 381.369094 167.587755 
L 381.63608 168.448506 
L 382.170051 167.49746 
L 382.437036 167.476281 
L 382.704022 167.738096 
L 382.971008 167.755714 
L 383.504979 168.102064 
L 384.03895 167.973858 
L 384.305936 167.760494 
L 384.572922 167.084461 
L 384.839907 167.883118 
L 385.106893 167.614984 
L 385.373879 167.639607 
L 385.640864 168.206244 
L 385.90785 167.68942 
L 386.441821 167.964516 
L 386.708807 167.815619 
L 386.975792 168.022647 
L 387.242778 168.002625 
L 387.509764 167.824684 
L 387.776749 167.434671 
L 388.043735 167.986338 
L 388.577706 167.705748 
L 388.844692 167.930693 
L 389.111678 167.799168 
L 389.378663 168.376478 
L 389.645649 168.00842 
L 389.912635 168.025359 
L 390.17962 167.899444 
L 390.446606 167.988372 
L 390.980577 167.573388 
L 391.514548 167.762593 
L 392.04852 167.372034 
L 392.582491 167.598472 
L 392.849477 167.712845 
L 393.116462 167.160308 
L 393.917419 167.932979 
L 394.184405 167.720401 
L 394.451391 167.669139 
L 394.718376 167.028703 
L 394.985362 167.332513 
L 395.252347 167.119462 
L 395.519333 167.400241 
L 396.854261 167.670873 
L 397.388233 167.173844 
L 397.922204 167.124134 
L 398.18919 167.176174 
L 398.456175 166.7652 
L 398.723161 167.051205 
L 399.257132 166.885233 
L 399.524118 167.250127 
L 400.058089 166.772559 
L 400.325075 167.775936 
L 400.59206 167.00415 
L 400.859046 167.511128 
L 401.126032 167.550489 
L 401.926989 167.15025 
L 402.46096 167.213006 
L 402.727946 166.992838 
L 402.994931 167.392014 
L 403.261917 167.13368 
L 403.795888 167.218266 
L 404.062874 166.925797 
L 404.329859 167.401719 
L 404.596845 167.093697 
L 404.863831 167.136046 
L 405.130816 167.4986 
L 405.397802 166.855258 
L 405.664788 166.723251 
L 405.931773 167.33815 
L 406.73273 166.874395 
L 406.999716 167.081431 
L 407.533687 167.050043 
L 408.067658 167.536996 
L 408.60163 167.583058 
L 408.868615 168.017203 
L 409.135601 167.974535 
L 409.936558 168.39631 
L 410.203544 168.398294 
L 410.470529 168.231063 
L 410.737515 167.884159 
L 411.004501 168.345749 
L 411.271486 168.264352 
L 411.538472 167.955007 
L 412.072443 168.06413 
L 412.339429 167.618454 
L 412.606414 168.266924 
L 412.8734 167.692045 
L 413.407371 167.618105 
L 413.674357 167.379107 
L 414.475314 168.193493 
L 414.7423 167.844706 
L 415.009285 167.872502 
L 415.276271 168.180034 
L 415.543257 168.264143 
L 415.810242 167.911159 
L 416.077228 168.260087 
L 416.344214 168.390628 
L 416.611199 168.229973 
L 416.878185 168.428713 
L 417.14517 167.990621 
L 417.412156 168.2936 
L 417.679142 168.134135 
L 417.946127 168.748672 
L 418.480099 168.437697 
L 418.747084 168.444157 
L 419.01407 167.793607 
L 419.281056 168.52573 
L 419.548041 168.035701 
L 419.815027 168.096286 
L 420.082013 168.496894 
L 420.348998 168.550487 
L 420.615984 168.32347 
L 421.149955 168.138543 
L 421.416941 167.913322 
L 422.217898 167.987964 
L 422.484883 168.285516 
L 422.751869 168.185153 
L 423.018855 167.832161 
L 423.28584 168.356196 
L 423.819812 167.800512 
L 424.086797 167.760334 
L 424.887754 168.245453 
L 425.15474 167.550487 
L 425.421725 167.50391 
L 425.955697 167.805211 
L 426.222682 168.332021 
L 426.489668 167.887094 
L 427.290625 167.815148 
L 427.557611 168.091441 
L 427.824596 167.768061 
L 428.358568 168.033631 
L 428.625553 167.610236 
L 429.159525 167.594826 
L 429.42651 167.691552 
L 429.693496 167.964029 
L 429.960481 167.81463 
L 430.227467 168.168536 
L 430.494453 168.298507 
L 430.761438 168.03599 
L 431.29541 168.317229 
L 431.829381 168.001078 
L 432.096367 168.039892 
L 432.363352 167.786561 
L 432.630338 167.942839 
L 432.897324 167.799765 
L 433.164309 168.01421 
L 433.698281 168.000916 
L 434.232252 167.941627 
L 434.499237 168.398032 
L 434.766223 167.796766 
L 435.033209 168.207016 
L 435.300194 168.145924 
L 435.56718 167.551587 
L 435.834166 167.982367 
L 436.101151 167.286404 
L 436.368137 167.480668 
L 436.635123 167.48593 
L 437.43608 168.180176 
L 437.703065 168.230953 
L 437.970051 168.121936 
L 438.237036 168.415509 
L 438.771008 168.471111 
L 439.037993 167.922029 
L 439.304979 168.765175 
L 439.571965 167.812701 
L 439.83895 168.026679 
L 440.105936 167.967479 
L 440.372922 167.363376 
L 440.906893 167.830774 
L 441.173879 167.540591 
L 441.440864 167.503768 
L 441.70785 168.247858 
L 441.974836 168.198391 
L 442.241821 168.270781 
L 442.508807 167.668448 
L 442.775792 167.450555 
L 443.042778 167.666598 
L 443.309764 167.544722 
L 443.576749 168.108202 
L 443.843735 167.82319 
L 444.110721 168.332072 
L 444.377706 168.313882 
L 444.644692 167.990658 
L 445.178663 167.82678 
L 445.712635 167.69071 
L 445.97962 168.580591 
L 446.246606 168.090425 
L 446.780577 168.405621 
L 447.047563 167.940651 
L 447.314548 167.920871 
L 447.581534 167.697883 
L 447.84852 167.880443 
L 448.649477 167.936594 
L 448.916462 168.187655 
L 449.450434 168.07991 
L 449.717419 168.410151 
L 450.251391 168.127815 
L 450.518376 168.42822 
L 451.052347 168.487664 
L 451.319333 168.541656 
L 451.586319 168.114351 
L 451.853304 168.043065 
L 452.12029 168.432345 
L 452.387276 168.259308 
L 453.188233 168.223765 
L 453.722204 168.471089 
L 453.98919 168.251735 
L 454.256175 168.338174 
L 454.523161 168.04233 
L 454.790147 168.05247 
L 455.057132 168.247995 
L 455.324118 168.033911 
L 455.591103 168.148847 
L 455.858089 167.944939 
L 456.125075 168.281226 
L 456.39206 167.928142 
L 456.659046 168.406232 
L 456.926032 168.259196 
L 457.193017 167.968629 
L 457.460003 167.843869 
L 457.726989 168.416682 
L 457.993974 168.394344 
L 458.26096 168.111164 
L 458.527946 168.499792 
L 458.794931 168.576082 
L 459.328903 168.551225 
L 459.595888 168.909093 
L 459.862874 168.247934 
L 460.396845 168.569364 
L 460.663831 168.216117 
L 461.197802 168.04415 
L 461.464788 167.568737 
L 461.731773 168.214966 
L 462.265745 167.616542 
L 463.066702 168.471279 
L 463.333687 167.87335 
L 463.600673 168.284962 
L 463.867658 167.906711 
L 464.134644 168.401945 
L 464.668615 167.763797 
L 464.935601 167.870899 
L 465.469572 167.907257 
L 465.736558 168.338732 
L 466.003544 168.301489 
L 466.270529 167.837146 
L 466.537515 167.61481 
L 466.804501 168.124018 
L 467.071486 168.155883 
L 467.338472 168.019492 
L 467.872443 168.2485 
L 468.406414 168.04768 
L 468.6734 168.637877 
L 468.940386 168.619907 
L 469.207371 168.186857 
L 469.741343 168.859491 
L 470.008328 168.829869 
L 470.275314 168.551741 
L 470.5423 168.844235 
L 470.809285 168.586502 
L 471.076271 168.796241 
L 471.343257 168.610927 
L 471.877228 168.651249 
L 472.144214 169.121849 
L 472.411199 168.775384 
L 473.212156 168.797475 
L 473.746127 168.214288 
L 474.013113 168.542471 
L 474.280099 168.225737 
L 474.547084 168.503472 
L 475.081056 168.408387 
L 475.348041 168.744115 
L 475.615027 168.800099 
L 475.882013 168.361216 
L 477.216941 168.712691 
L 477.750912 168.390598 
L 478.017898 168.620616 
L 478.284883 168.591809 
L 478.551869 168.742247 
L 478.818855 168.571679 
L 479.08584 168.774246 
L 479.352826 168.63304 
L 479.619812 168.898085 
L 479.886797 168.44036 
L 480.420769 168.853976 
L 480.687754 168.503483 
L 480.95474 168.85389 
L 481.221725 168.898816 
L 481.488711 168.464622 
L 481.755697 168.716828 
L 482.022682 169.272118 
L 482.289668 168.79067 
L 482.823639 168.87071 
L 483.090625 168.654211 
L 483.891582 168.51374 
L 484.425553 169.226336 
L 484.692539 168.668929 
L 485.22651 168.996057 
L 485.493496 168.960977 
L 486.027467 169.191144 
L 486.294453 168.645525 
L 486.561438 169.440792 
L 486.828424 169.292029 
L 487.09541 168.702876 
L 487.629381 168.853649 
L 487.896367 169.485689 
L 488.163352 168.915131 
L 488.964309 169.125036 
L 489.231295 168.465254 
L 489.498281 168.948123 
L 490.032252 168.889659 
L 490.299237 168.868332 
L 490.566223 168.734287 
L 490.833209 168.942391 
L 491.901151 168.895866 
L 492.168137 169.193881 
L 492.435123 168.791528 
L 492.702108 169.060181 
L 492.969094 169.145252 
L 493.503065 168.805697 
L 494.037036 168.922657 
L 494.304022 168.682899 
L 494.571008 168.804906 
L 494.837993 169.354496 
L 495.104979 169.029645 
L 496.172922 168.789353 
L 496.439907 168.916208 
L 496.706893 169.274517 
L 496.973879 169.045197 
L 497.240864 169.201318 
L 497.50785 169.221087 
L 497.774836 169.55058 
L 498.575792 168.467127 
L 498.842778 169.537811 
L 499.109764 168.834971 
L 499.376749 168.537625 
L 499.643735 166.726399 
L 499.910721 169.596803 
L 500.711678 169.264414 
L 500.978663 167.824122 
L 501.245649 169.484878 
L 501.512635 169.065136 
L 501.77962 169.004806 
L 502.046606 167.528907 
L 502.313592 168.743992 
L 502.580577 169.179387 
L 502.847563 169.073314 
L 503.114548 168.723643 
L 503.381534 169.682532 
L 503.915505 169.775577 
L 504.449477 168.465843 
L 504.716462 169.074197 
L 504.983448 169.286885 
L 505.250434 168.815984 
L 505.517419 169.038755 
L 505.784405 169.41003 
L 506.051391 169.40841 
L 506.318376 169.525041 
L 506.585362 169.140879 
L 506.852347 169.385056 
L 507.119333 168.890757 
L 507.386319 169.403838 
L 507.653304 169.612176 
L 507.92029 169.424529 
L 508.187276 169.519933 
L 508.454261 169.84631 
L 508.721247 169.619469 
L 509.255218 169.4843 
L 509.522204 169.805336 
L 509.78919 169.43624 
L 510.056175 169.494662 
L 510.590147 169.83285 
L 510.857132 168.977793 
L 511.124118 169.595058 
L 511.391103 169.213901 
L 511.658089 169.725994 
L 511.925075 169.878611 
L 512.19206 169.728346 
L 512.459046 169.74232 
L 512.726032 169.199929 
L 512.993017 170.000342 
L 513.260003 169.602325 
L 513.526989 170.112417 
L 514.327946 169.348341 
L 514.594931 169.244459 
L 514.861917 169.507269 
L 515.128903 169.261613 
L 515.395888 169.254055 
L 515.662874 170.033429 
L 515.929859 169.347109 
L 516.463831 169.112098 
L 516.730816 169.598879 
L 516.997802 169.818128 
L 517.264788 169.405114 
L 517.531773 169.251895 
L 517.798759 168.824345 
L 518.33273 169.374799 
L 518.599716 169.13155 
L 518.866702 169.339092 
L 519.133687 168.981533 
L 519.400673 169.123091 
L 519.667658 168.786749 
L 519.934644 169.407278 
L 520.20163 169.174652 
L 520.468615 169.090171 
L 520.735601 169.17804 
L 521.269572 168.789111 
L 521.536558 168.791602 
L 521.803544 169.034128 
L 522.337515 168.817673 
L 523.138472 169.230012 
L 523.405458 168.840982 
L 523.672443 168.670644 
L 523.939429 169.079504 
L 524.206414 168.939936 
L 524.4734 169.001279 
L 524.740386 168.47014 
L 525.007371 168.805435 
L 525.274357 168.649595 
L 525.541343 168.914814 
L 525.808328 168.82525 
L 526.075314 169.105887 
L 526.3423 169.10166 
L 526.609285 168.874755 
L 526.876271 169.014781 
L 527.143257 168.84784 
L 527.410242 168.833824 
L 527.677228 169.204892 
L 527.944214 168.733234 
L 528.211199 169.037191 
L 528.478185 168.837744 
L 529.279142 168.779012 
L 529.546127 169.213218 
L 529.813113 168.831534 
L 530.347084 168.817112 
L 530.61407 169.080779 
L 530.881056 168.457488 
L 531.148041 168.712813 
L 531.415027 168.574573 
L 531.682013 168.728717 
L 531.948998 168.496332 
L 532.215984 168.588965 
L 532.749955 169.049835 
L 533.550912 168.578193 
L 533.817898 168.994604 
L 534.351869 168.99297 
L 535.152826 168.90913 
L 535.419812 168.625723 
L 535.686797 168.640273 
L 536.220769 169.031201 
L 536.75474 169.266782 
L 537.288711 168.933292 
L 538.089668 169.285956 
L 538.356654 168.864496 
L 538.623639 168.777383 
L 538.890625 168.432997 
L 539.424596 168.544313 
L 539.691582 168.946638 
L 539.958568 168.73146 
L 540.225553 168.90651 
L 540.492539 168.92296 
L 540.759525 168.704791 
L 541.02651 168.979392 
L 541.293496 168.624496 
L 541.560481 169.587425 
L 542.094453 169.209442 
L 542.361438 169.110096 
L 542.89541 169.459664 
L 543.162395 168.77345 
L 543.429381 169.439148 
L 543.696367 169.208993 
L 543.963352 169.395001 
L 544.230338 169.135009 
L 544.497324 169.476452 
L 545.031295 169.246126 
L 545.298281 168.906879 
L 545.832252 169.48511 
L 546.099237 169.29611 
L 546.366223 169.399139 
L 546.633209 169.249617 
L 546.900194 169.858085 
L 547.16718 170.035297 
L 547.434166 169.60287 
L 547.701151 169.434 
L 547.968137 169.094804 
L 548.235123 169.332372 
L 548.769094 169.482758 
L 549.03608 169.164578 
L 549.303065 169.394639 
L 549.570051 169.409681 
L 549.837036 169.090199 
L 550.371008 169.355301 
L 550.637993 169.43645 
L 550.904979 169.712998 
L 551.171965 169.611991 
L 551.43895 168.972357 
L 551.705936 169.324265 
L 552.239907 169.507226 
L 552.506893 169.259209 
L 552.773879 169.945123 
L 553.040864 169.273543 
L 553.30785 169.173723 
L 553.574836 169.20841 
L 553.841821 169.637732 
L 554.108807 169.291598 
L 554.375792 169.582355 
L 554.909764 169.287296 
L 555.176749 169.365569 
L 555.443735 169.063508 
L 555.710721 169.566959 
L 555.977706 169.345002 
L 556.244692 169.482085 
L 556.511678 169.24341 
L 556.778663 169.295217 
L 557.045649 168.99716 
L 557.312635 169.600539 
L 557.57962 169.5698 
L 558.113592 170.039253 
L 558.380577 169.546179 
L 558.647563 169.599691 
L 558.914548 168.991402 
L 559.181534 169.300403 
L 559.44852 169.200134 
L 559.715505 169.255359 
L 559.982491 169.045757 
L 560.249477 169.102056 
L 560.516462 169.019204 
L 560.783448 169.359394 
L 561.584405 169.638957 
L 562.118376 169.236134 
L 562.385362 169.321951 
L 562.652347 169.049778 
L 563.186319 169.110911 
L 563.453304 169.407115 
L 563.72029 169.498306 
L 563.987276 169.26342 
L 564.254261 169.467393 
L 564.521247 169.356704 
L 564.788233 169.719772 
L 565.055218 169.715203 
L 565.322204 169.578953 
L 565.58919 170.165558 
L 565.856175 169.483789 
L 566.123161 169.689361 
L 566.657132 169.528036 
L 566.924118 169.673261 
L 567.191103 169.367846 
L 567.458089 169.623873 
L 567.99206 169.488816 
L 568.259046 169.250883 
L 568.793017 169.548915 
L 569.060003 169.401107 
L 569.326989 169.484775 
L 569.593974 169.436232 
L 569.86096 169.58351 
L 570.127946 168.953397 
L 570.394931 169.223813 
L 570.661917 169.326057 
L 570.928903 169.266831 
L 571.195888 169.087944 
L 571.462874 169.094647 
L 571.729859 169.508781 
L 571.996845 168.888391 
L 572.530816 169.244362 
L 573.331773 169.04635 
L 573.598759 169.524978 
L 573.865745 168.910987 
L 574.13273 168.937779 
L 574.399716 169.402627 
L 574.666702 168.974912 
L 574.933687 169.101872 
L 575.200673 169.565013 
L 575.467658 169.224931 
L 575.734644 169.241872 
L 576.00163 169.379239 
L 576.268615 169.144498 
L 576.535601 169.58562 
L 576.802587 169.233447 
L 577.069572 169.50811 
L 577.336558 169.572256 
L 577.603544 169.344466 
L 577.870529 169.545597 
L 578.137515 169.292118 
L 578.404501 169.886939 
L 578.671486 169.578726 
L 578.938472 169.455828 
L 579.205458 168.962926 
L 579.472443 169.252531 
L 579.739429 169.367889 
L 580.006414 169.033664 
L 580.2734 169.357026 
L 580.540386 168.998808 
L 580.807371 168.986947 
L 581.341343 169.218035 
L 581.608328 168.846604 
L 581.875314 168.99448 
L 582.409285 168.73588 
L 582.676271 169.065742 
L 582.943257 169.819589 
L 583.210242 169.129616 
L 583.477228 169.437977 
L 583.744214 169.000513 
L 584.011199 169.430808 
L 584.278185 169.538506 
L 584.54517 169.412597 
L 584.812156 169.67208 
L 585.079142 169.207799 
L 585.613113 169.838166 
L 585.880099 169.063792 
L 586.147084 169.31032 
L 586.681056 169.218348 
L 586.948041 169.777202 
L 587.215027 169.270688 
L 587.482013 169.520249 
L 587.748998 169.309362 
L 588.015984 169.531339 
L 588.549955 169.434894 
L 588.816941 169.001929 
L 589.083926 169.230926 
L 589.350912 169.040763 
L 589.617898 169.789444 
L 589.884883 169.454733 
L 590.151869 169.567367 
L 590.418855 169.535578 
L 590.68584 169.236255 
L 590.952826 169.737504 
L 591.219812 169.632027 
L 591.753783 169.628992 
L 592.020769 169.197422 
L 592.821725 169.165817 
L 593.088711 168.965216 
L 593.355697 169.028513 
L 593.622682 169.257439 
L 593.889668 169.041191 
L 594.156654 169.417645 
L 594.690625 169.243916 
L 595.224596 169.540675 
L 595.491582 169.085158 
L 595.758568 169.181811 
L 596.025553 168.897505 
L 596.82651 169.452504 
L 597.093496 169.167733 
L 597.627467 169.0832 
L 597.894453 169.371138 
L 598.161438 169.424358 
L 598.428424 169.27372 
L 598.69541 168.893108 
L 598.962395 169.505134 
L 599.496367 169.057745 
L 599.763352 169.172447 
L 600.297324 169.02965 
L 600.831295 168.63109 
L 601.098281 168.739478 
L 602.433209 168.537626 
L 602.700194 168.18538 
L 602.96718 168.621239 
L 603.234166 168.409735 
L 603.768137 168.766967 
L 604.035123 168.704245 
L 604.302108 168.916193 
L 604.569094 168.434456 
L 605.370051 168.306351 
L 605.637036 168.643175 
L 605.904022 168.69676 
L 606.437993 168.187025 
L 606.704979 168.530083 
L 607.23895 168.53151 
L 607.505936 168.547305 
L 607.772922 168.282014 
L 608.039907 168.480252 
L 608.306893 168.842769 
L 608.573879 168.512815 
L 609.374836 168.634138 
L 609.641821 168.790655 
L 609.908807 168.426806 
L 610.175792 168.389914 
L 610.442778 168.510963 
L 610.709764 168.214485 
L 610.976749 168.347143 
L 611.243735 168.623033 
L 611.510721 168.474195 
L 611.777706 168.495637 
L 612.311678 168.867318 
L 612.578663 168.798915 
L 612.845649 168.934328 
L 613.112635 168.821592 
L 613.37962 168.991158 
L 613.913592 168.491154 
L 614.180577 168.908454 
L 614.447563 168.853626 
L 614.714548 169.27308 
L 614.981534 168.892051 
L 615.24852 169.145778 
L 615.782491 168.777326 
L 616.316462 169.201022 
L 616.583448 169.085041 
L 616.850434 168.517729 
L 617.117419 168.698507 
L 617.384405 168.422531 
L 617.918376 169.008825 
L 618.185362 169.088506 
L 618.719333 168.941032 
L 618.986319 168.539668 
L 619.253304 169.485903 
L 619.787276 168.689267 
L 620.054261 169.020896 
L 620.321247 168.480581 
L 620.588233 168.449341 
L 620.855218 168.917479 
L 621.122204 168.662199 
L 621.38919 168.99877 
L 622.457132 168.733603 
L 622.724118 169.017267 
L 623.525075 168.883372 
L 624.059046 168.63927 
L 624.326032 168.935408 
L 624.593017 168.699944 
L 624.860003 169.039512 
L 625.126989 169.165025 
L 625.126989 169.165025 
" clip-path="url(#p6c0dec8803)" style="fill: none; stroke: #1f77b4; stroke-width: 1.5; stroke-linecap: square"/>
   </g>
   <g id="line2d_15">
    <path d="M 117.854261 296.03625 
L 118.388233 219.200503 
L 118.922204 238.645685 
L 119.18919 213.261152 
L 119.456175 212.54875 
L 119.723161 215.076811 
L 119.990147 205.598168 
L 120.257132 212.181319 
L 120.524118 226.669107 
L 121.058089 196.212776 
L 121.325075 194.413947 
L 121.59206 194.780619 
L 121.859046 201.832737 
L 122.126032 195.235904 
L 122.393017 196.378027 
L 122.660003 194.532246 
L 122.926989 194.186848 
L 123.193974 195.502642 
L 123.46096 184.213625 
L 123.727946 181.165058 
L 124.261917 182.194952 
L 124.528903 186.091654 
L 124.795888 177.656689 
L 125.062874 180.557306 
L 125.329859 182.010728 
L 125.596845 182.333157 
L 126.130816 181.32096 
L 126.397802 182.390077 
L 126.664788 183.960668 
L 126.931773 184.431872 
L 127.198759 183.194059 
L 127.465745 180.438406 
L 127.73273 181.145129 
L 127.999716 183.060858 
L 128.266702 181.048282 
L 128.533687 180.679822 
L 128.800673 178.011528 
L 129.334644 178.090941 
L 129.60163 178.969227 
L 129.868615 181.172561 
L 130.402587 177.393865 
L 130.936558 178.351291 
L 131.203544 176.208669 
L 131.470529 177.343197 
L 131.737515 177.985098 
L 132.004501 180.055569 
L 132.271486 176.730227 
L 132.538472 176.248777 
L 132.805458 179.231779 
L 133.072443 177.708572 
L 133.339429 177.030424 
L 133.606414 176.664959 
L 133.8734 177.691265 
L 134.140386 176.119124 
L 134.407371 176.160455 
L 134.674357 176.32796 
L 134.941343 176.294541 
L 135.208328 177.635459 
L 136.009285 174.709478 
L 136.276271 176.153952 
L 136.810242 173.767497 
L 137.344214 176.586489 
L 137.611199 176.4194 
L 137.878185 177.261133 
L 138.14517 174.063869 
L 138.412156 178.121447 
L 138.679142 174.604464 
L 139.213113 174.564015 
L 139.480099 174.107088 
L 139.747084 175.394572 
L 140.281056 173.690661 
L 140.548041 174.735638 
L 140.815027 174.466004 
L 141.082013 173.763776 
L 141.348998 174.487707 
L 141.882969 173.128249 
L 142.149955 173.783378 
L 142.416941 172.877454 
L 142.683926 174.449639 
L 142.950912 174.136157 
L 143.217898 174.131147 
L 143.484883 174.543099 
L 143.751869 174.151772 
L 144.018855 171.716959 
L 144.819812 173.551442 
L 145.086797 171.414805 
L 145.353783 172.531184 
L 145.887754 173.528479 
L 146.15474 174.667006 
L 146.421725 172.879212 
L 146.688711 174.079173 
L 146.955697 174.417489 
L 147.489668 173.861619 
L 147.756654 174.307226 
L 148.023639 172.468632 
L 148.290625 173.093585 
L 148.824596 171.328881 
L 149.358568 173.248832 
L 149.625553 173.248455 
L 149.892539 172.722076 
L 150.159525 173.191447 
L 150.42651 171.575761 
L 150.693496 171.514487 
L 150.960481 172.497564 
L 151.227467 172.614868 
L 151.494453 172.527716 
L 151.761438 172.901462 
L 152.028424 171.798656 
L 152.29541 172.17445 
L 152.562395 171.36876 
L 152.829381 171.860114 
L 153.096367 172.065286 
L 153.363352 172.853624 
L 153.630338 172.279056 
L 153.897324 172.345809 
L 154.164309 171.40709 
L 154.698281 173.281889 
L 154.965266 171.6027 
L 155.232252 171.572991 
L 155.499237 172.788874 
L 155.766223 173.126234 
L 156.033209 172.833694 
L 156.300194 172.21413 
L 156.56718 173.023502 
L 156.834166 173.20008 
L 157.101151 172.111453 
L 157.368137 172.345466 
L 157.635123 173.241511 
L 157.902108 173.382747 
L 158.169094 171.305869 
L 158.43608 172.329936 
L 158.703065 172.906326 
L 158.970051 172.161376 
L 159.504022 172.868546 
L 159.771008 172.178703 
L 160.037993 172.386805 
L 160.304979 171.756797 
L 160.571965 172.613199 
L 160.83895 172.735791 
L 161.105936 171.651542 
L 161.372922 171.944659 
L 161.639907 171.896408 
L 162.173879 172.423398 
L 162.440864 172.514977 
L 162.70785 172.841949 
L 162.974836 171.593369 
L 163.241821 172.130366 
L 163.508807 172.372364 
L 163.775792 172.074754 
L 164.042778 171.556562 
L 164.309764 172.602379 
L 164.576749 171.34686 
L 164.843735 171.920515 
L 165.110721 171.527562 
L 165.377706 173.732855 
L 165.644692 171.742232 
L 165.911678 172.010685 
L 166.178663 171.679803 
L 166.445649 172.867061 
L 166.712635 172.121979 
L 166.97962 172.252688 
L 167.513592 171.196761 
L 167.780577 171.68482 
L 168.047563 171.334027 
L 168.581534 171.732382 
L 168.84852 171.046097 
L 169.115505 171.840605 
L 169.382491 171.338442 
L 169.916462 171.274296 
L 170.183448 171.527496 
L 170.450434 171.463002 
L 170.984405 171.714048 
L 171.251391 171.527779 
L 171.518376 171.971782 
L 171.785362 171.808757 
L 172.052347 171.239484 
L 172.319333 171.712659 
L 172.586319 171.35515 
L 172.853304 171.253456 
L 173.12029 170.952888 
L 173.387276 171.26288 
L 173.654261 171.751968 
L 173.921247 171.851963 
L 174.455218 171.013635 
L 175.256175 171.590286 
L 175.523161 171.297249 
L 175.790147 171.551686 
L 176.324118 170.870277 
L 176.591103 170.951387 
L 176.858089 170.706756 
L 177.125075 172.011226 
L 177.39206 171.562232 
L 177.659046 171.393369 
L 177.926032 170.624929 
L 178.193017 170.80561 
L 178.460003 171.546023 
L 179.26096 170.643849 
L 179.527946 171.28086 
L 179.794931 170.960326 
L 180.061917 170.393007 
L 180.328903 171.235045 
L 180.862874 170.199702 
L 181.396845 171.399415 
L 181.663831 171.077521 
L 181.930816 171.099076 
L 182.197802 170.871475 
L 182.464788 172.392286 
L 182.731773 172.26415 
L 182.998759 171.124406 
L 183.799716 171.044001 
L 184.066702 171.602959 
L 184.333687 171.166176 
L 184.867658 170.812143 
L 185.134644 171.302051 
L 185.40163 172.056204 
L 185.668615 171.356412 
L 185.935601 172.162386 
L 186.202587 170.870293 
L 186.469572 170.933369 
L 186.736558 171.41883 
L 187.270529 171.6746 
L 187.537515 171.327942 
L 187.804501 171.457798 
L 188.071486 171.376492 
L 189.139429 171.6086 
L 189.406414 172.038357 
L 189.6734 171.485702 
L 189.940386 171.201776 
L 190.207371 172.03931 
L 190.474357 171.951895 
L 190.741343 171.029977 
L 191.008328 171.470733 
L 191.275314 171.33633 
L 191.5423 171.788106 
L 191.809285 171.619493 
L 192.076271 171.687032 
L 192.343257 172.066726 
L 192.610242 171.215829 
L 192.877228 170.9907 
L 193.411199 171.888345 
L 193.678185 171.568269 
L 193.94517 171.90961 
L 194.212156 170.651171 
L 194.746127 171.7623 
L 195.280099 170.659659 
L 195.547084 171.288779 
L 195.81407 171.490592 
L 196.081056 172.222745 
L 196.348041 172.55833 
L 196.615027 171.034898 
L 196.882013 171.498769 
L 197.148998 171.647811 
L 197.682969 171.370715 
L 197.949955 170.858276 
L 199.551869 172.342796 
L 199.818855 171.67289 
L 200.08584 172.154893 
L 200.352826 171.257939 
L 200.619812 171.674141 
L 201.153783 171.049011 
L 201.420769 171.724085 
L 201.687754 172.095347 
L 202.221725 171.377652 
L 202.488711 171.62404 
L 202.755697 171.390359 
L 203.022682 171.60132 
L 203.289668 171.535308 
L 203.823639 171.832293 
L 204.090625 171.367157 
L 204.357611 171.617892 
L 204.624596 171.685619 
L 204.891582 171.618568 
L 205.425553 171.860995 
L 205.692539 172.237446 
L 205.959525 171.005607 
L 206.22651 171.553755 
L 206.493496 171.490333 
L 206.760481 171.592916 
L 207.294453 171.398825 
L 207.561438 171.605477 
L 208.09541 172.38631 
L 208.362395 171.526915 
L 208.629381 171.645364 
L 208.896367 171.371208 
L 209.163352 172.147328 
L 209.430338 171.753966 
L 209.697324 173.179875 
L 209.964309 171.668005 
L 210.231295 171.579546 
L 210.498281 172.096871 
L 210.765266 172.356091 
L 211.032252 172.089167 
L 211.299237 172.553571 
L 211.566223 171.812758 
L 211.833209 171.615187 
L 212.36718 171.69413 
L 212.634166 171.766294 
L 212.901151 172.234649 
L 213.435123 171.674879 
L 213.702108 171.832849 
L 213.969094 172.280615 
L 214.23608 171.622514 
L 214.503065 171.755409 
L 214.770051 172.137954 
L 215.037036 171.268446 
L 215.304022 172.07895 
L 215.571008 171.204316 
L 215.837993 172.061808 
L 216.104979 171.646001 
L 216.371965 171.927455 
L 216.63895 171.965757 
L 216.905936 171.666375 
L 217.172922 171.715999 
L 217.439907 172.314211 
L 217.706893 172.600415 
L 218.240864 172.093801 
L 218.50785 172.294227 
L 218.774836 171.622418 
L 219.308807 171.826495 
L 219.575792 171.737618 
L 219.842778 171.862572 
L 220.109764 171.810099 
L 220.376749 172.003163 
L 220.643735 171.442342 
L 221.177706 172.112333 
L 221.444692 171.965151 
L 221.711678 171.593799 
L 221.978663 172.424699 
L 222.245649 172.280127 
L 222.512635 171.782763 
L 223.046606 172.362792 
L 223.580577 172.20061 
L 223.847563 172.371535 
L 224.114548 171.999299 
L 224.64852 171.610287 
L 224.915505 171.773116 
L 225.182491 171.682329 
L 225.449477 171.967082 
L 225.716462 171.559341 
L 225.983448 171.909636 
L 226.517419 172.294224 
L 226.784405 171.932208 
L 227.051391 172.584878 
L 227.318376 172.074051 
L 227.585362 171.992196 
L 227.852347 172.04918 
L 228.119333 172.439833 
L 228.92029 171.978719 
L 229.187276 172.222894 
L 229.454261 171.692602 
L 229.721247 172.103561 
L 230.255218 171.90705 
L 230.522204 172.379678 
L 230.78919 171.602559 
L 231.056175 172.046383 
L 231.323161 171.783138 
L 231.857132 172.085609 
L 232.124118 171.771962 
L 232.391103 172.218407 
L 232.925075 172.278004 
L 233.19206 172.469344 
L 233.459046 172.082219 
L 233.726032 172.14542 
L 233.993017 172.415526 
L 234.260003 172.448525 
L 234.526989 171.769688 
L 234.793974 172.670857 
L 235.06096 172.261742 
L 235.327946 172.179617 
L 235.594931 172.75954 
L 235.861917 172.558029 
L 236.128903 171.989123 
L 236.662874 172.108654 
L 236.929859 171.709229 
L 237.196845 172.924987 
L 237.463831 172.155324 
L 237.730816 172.460446 
L 237.997802 172.32577 
L 238.264788 172.626836 
L 238.531773 171.57441 
L 238.798759 172.098787 
L 239.065745 172.167263 
L 239.33273 171.574182 
L 239.866702 171.795719 
L 240.400673 171.727319 
L 240.667658 171.728792 
L 240.934644 172.057989 
L 241.20163 172.197913 
L 241.468615 171.68826 
L 241.735601 172.546455 
L 242.002587 171.75321 
L 242.269572 171.527242 
L 242.536558 171.579348 
L 242.803544 171.491789 
L 243.070529 171.614068 
L 243.337515 171.273213 
L 243.604501 171.721788 
L 244.405458 171.597293 
L 244.672443 171.221748 
L 244.939429 171.946635 
L 245.206414 171.54936 
L 245.4734 171.918295 
L 246.007371 171.369587 
L 246.274357 172.016757 
L 246.808328 171.647025 
L 247.075314 171.942592 
L 247.3423 171.796667 
L 247.609285 171.462699 
L 247.876271 171.850835 
L 248.143257 171.619728 
L 248.410242 171.633126 
L 248.677228 171.98708 
L 248.944214 171.713236 
L 249.211199 172.227735 
L 249.478185 171.661024 
L 249.74517 171.646745 
L 250.279142 172.171069 
L 250.813113 171.032468 
L 251.080099 171.890426 
L 251.347084 171.742362 
L 251.61407 171.418415 
L 251.881056 172.147392 
L 252.148041 171.921093 
L 252.415027 171.482523 
L 252.948998 172.073854 
L 253.215984 171.643588 
L 254.016941 171.546255 
L 254.283926 171.764198 
L 254.817898 171.069354 
L 255.084883 171.377002 
L 255.351869 172.050453 
L 255.618855 171.849916 
L 255.88584 171.860143 
L 256.152826 171.732915 
L 256.419812 171.303851 
L 256.953783 171.520633 
L 257.220769 171.730886 
L 257.487754 171.33955 
L 257.75474 171.775897 
L 258.021725 171.614878 
L 258.288711 172.277533 
L 258.555697 171.669711 
L 258.822682 172.172951 
L 259.089668 171.577625 
L 259.623639 171.483749 
L 259.890625 171.242414 
L 260.157611 171.979101 
L 260.424596 171.568908 
L 260.691582 171.468434 
L 260.958568 171.70582 
L 261.492539 171.783909 
L 261.759525 171.418185 
L 262.560481 171.594637 
L 262.827467 171.242859 
L 263.094453 171.826873 
L 263.361438 171.309659 
L 264.429381 171.853016 
L 265.230338 171.472713 
L 265.497324 171.307203 
L 265.764309 171.710485 
L 266.031295 171.574469 
L 266.298281 171.971282 
L 266.565266 171.285448 
L 266.832252 171.703686 
L 267.099237 171.380695 
L 267.366223 171.65969 
L 267.633209 171.250398 
L 267.900194 171.299857 
L 268.16718 171.575726 
L 268.434166 171.207537 
L 268.701151 171.86768 
L 268.968137 171.19964 
L 269.235123 171.064495 
L 269.502108 171.7875 
L 269.769094 171.064782 
L 270.03608 171.187348 
L 270.303065 171.604023 
L 270.837036 171.888027 
L 271.104022 171.30301 
L 271.371008 171.529095 
L 271.637993 171.497257 
L 271.904979 171.123619 
L 272.171965 171.158037 
L 272.43895 171.644663 
L 272.705936 171.830987 
L 273.239907 171.34703 
L 273.506893 171.353478 
L 273.773879 171.722931 
L 274.040864 171.612591 
L 274.30785 171.653517 
L 274.841821 171.530283 
L 275.108807 171.6877 
L 275.375792 171.372083 
L 275.642778 171.415048 
L 275.909764 171.635205 
L 276.176749 171.574652 
L 276.443735 171.128399 
L 276.710721 171.523431 
L 276.977706 171.600522 
L 277.511678 171.312941 
L 277.778663 171.421824 
L 278.846606 171.458953 
L 279.113592 171.765277 
L 279.647563 171.500581 
L 280.44852 171.648895 
L 280.715505 171.615499 
L 280.982491 171.336644 
L 281.249477 171.447294 
L 281.516462 171.880552 
L 281.783448 171.525351 
L 282.050434 171.413842 
L 282.317419 171.716409 
L 282.584405 171.406692 
L 282.851391 171.650598 
L 283.919333 171.87875 
L 284.186319 171.544947 
L 284.453304 171.690293 
L 284.987276 171.612162 
L 285.254261 172.042311 
L 285.521247 171.602169 
L 285.788233 171.76101 
L 286.055218 171.60049 
L 286.322204 171.575155 
L 286.58919 171.782807 
L 286.856175 171.303394 
L 287.390147 172.22686 
L 287.657132 171.385557 
L 287.924118 171.749951 
L 288.191103 171.570733 
L 288.458089 171.623055 
L 288.725075 171.915835 
L 288.99206 171.576743 
L 289.259046 171.468432 
L 289.526032 171.920446 
L 289.793017 171.957665 
L 290.060003 171.390786 
L 290.326989 171.646143 
L 290.593974 171.629102 
L 291.127946 171.816926 
L 291.394931 171.68513 
L 291.928903 172.046569 
L 292.195888 171.297708 
L 292.729859 171.772949 
L 292.996845 171.6523 
L 293.263831 171.374826 
L 293.797802 171.427694 
L 294.064788 172.009548 
L 294.331773 171.364036 
L 294.865745 171.599214 
L 295.13273 171.182616 
L 295.399716 171.62443 
L 295.933687 171.831593 
L 296.200673 171.542116 
L 296.467658 171.764636 
L 296.734644 171.463287 
L 297.00163 171.438166 
L 297.268615 172.100975 
L 297.535601 171.765845 
L 297.802587 171.61204 
L 298.870529 172.221847 
L 299.671486 171.400278 
L 299.938472 171.564072 
L 300.205458 171.512417 
L 300.739429 171.61739 
L 301.006414 171.554389 
L 301.2734 171.908901 
L 301.540386 171.477327 
L 301.807371 172.091608 
L 302.074357 171.467854 
L 302.875314 171.666127 
L 303.1423 172.186488 
L 303.409285 171.742804 
L 304.210242 171.590847 
L 304.477228 171.158404 
L 304.744214 171.528959 
L 305.812156 171.420891 
L 306.346127 171.863264 
L 306.613113 171.796162 
L 306.880099 171.490731 
L 307.147084 171.445488 
L 307.41407 171.680148 
L 307.681056 171.6821 
L 307.948041 171.293901 
L 308.215027 171.103215 
L 308.482013 171.539433 
L 309.015984 171.441867 
L 309.816941 171.648299 
L 310.083926 171.515511 
L 310.350912 171.614487 
L 311.151869 171.289406 
L 311.418855 171.409006 
L 311.68584 171.19151 
L 311.952826 171.651945 
L 312.219812 170.761083 
L 312.486797 170.987507 
L 312.753783 170.596013 
L 313.020769 170.737447 
L 313.287754 170.661208 
L 313.821725 171.04777 
L 314.088711 171.102284 
L 314.355697 171.42396 
L 314.622682 170.886879 
L 314.889668 171.345256 
L 315.156654 171.01546 
L 315.423639 171.26267 
L 316.224596 170.808042 
L 316.491582 171.328662 
L 316.758568 170.938545 
L 317.025553 170.867777 
L 317.82651 171.29173 
L 318.093496 170.840532 
L 318.360481 171.08189 
L 318.627467 171.124606 
L 318.894453 171.29218 
L 319.161438 171.137038 
L 319.428424 171.198372 
L 319.69541 171.599172 
L 319.962395 171.300605 
L 320.229381 171.175879 
L 320.496367 171.381855 
L 320.763352 171.287735 
L 321.030338 171.65396 
L 321.297324 171.319707 
L 321.564309 171.636511 
L 321.831295 171.403219 
L 322.098281 171.330179 
L 322.365266 170.920461 
L 322.632252 171.171368 
L 322.899237 171.198484 
L 323.166223 170.872133 
L 323.433209 171.144007 
L 324.234166 171.376753 
L 324.501151 171.557049 
L 324.768137 171.08047 
L 325.035123 171.45491 
L 325.302108 171.121281 
L 325.569094 171.235663 
L 325.83608 171.595601 
L 326.103065 171.396206 
L 326.904022 171.330871 
L 327.171008 170.934157 
L 327.437993 170.870753 
L 327.704979 171.170502 
L 327.971965 170.882795 
L 328.23895 171.036573 
L 328.505936 171.026358 
L 329.039907 171.299812 
L 329.306893 170.904056 
L 329.573879 171.293444 
L 329.840864 171.157349 
L 330.374836 171.257007 
L 330.908807 171.341784 
L 331.175792 171.881538 
L 331.442778 171.190762 
L 331.709764 170.920531 
L 331.976749 171.002608 
L 332.243735 170.940161 
L 332.510721 171.236111 
L 332.777706 170.691898 
L 333.044692 170.6631 
L 333.311678 171.289256 
L 333.578663 170.834097 
L 333.845649 171.337713 
L 334.112635 170.954675 
L 334.37962 170.995028 
L 334.913592 170.695438 
L 335.180577 170.874813 
L 335.714548 171.045581 
L 335.981534 171.791283 
L 336.515505 170.743319 
L 336.782491 170.589246 
L 337.316462 171.082335 
L 337.583448 170.878595 
L 337.850434 171.202007 
L 338.117419 170.834619 
L 338.384405 170.857913 
L 338.918376 171.258332 
L 339.185362 170.645336 
L 339.452347 170.801055 
L 339.719333 171.163091 
L 340.253304 171.148606 
L 340.52029 171.214201 
L 340.787276 171.105061 
L 341.054261 170.849566 
L 341.321247 170.933592 
L 341.588233 171.135447 
L 342.122204 171.022335 
L 342.38919 171.532721 
L 342.923161 171.081306 
L 343.190147 171.417653 
L 343.457132 170.865572 
L 343.724118 171.186786 
L 343.991103 171.2233 
L 344.258089 171.100225 
L 345.326032 171.417797 
L 345.593017 171.003962 
L 345.860003 170.873678 
L 346.126989 171.19923 
L 346.393974 170.9147 
L 346.66096 171.176549 
L 346.927946 170.720087 
L 347.194931 171.221837 
L 347.461917 170.825395 
L 347.995888 170.903701 
L 348.262874 170.894215 
L 348.529859 171.263465 
L 348.796845 170.896899 
L 349.063831 171.064158 
L 349.330816 170.930889 
L 349.864788 170.953442 
L 350.131773 170.660597 
L 350.398759 170.829386 
L 350.93273 171.278856 
L 351.199716 171.285917 
L 351.733687 171.133321 
L 352.000673 171.228559 
L 352.267658 171.011475 
L 352.534644 171.071401 
L 352.80163 170.969186 
L 353.068615 171.117366 
L 353.335601 170.902941 
L 353.602587 171.340473 
L 353.869572 171.330764 
L 354.136558 171.442246 
L 354.403544 171.170754 
L 355.204501 171.073413 
L 355.471486 171.224513 
L 356.005458 171.200761 
L 356.272443 170.932061 
L 356.539429 170.85153 
L 356.806414 171.272058 
L 357.0734 170.919905 
L 357.607371 171.328001 
L 357.874357 170.945018 
L 358.141343 170.93693 
L 358.408328 171.191192 
L 358.675314 171.629335 
L 359.209285 171.045536 
L 359.476271 171.168376 
L 359.743257 171.41437 
L 360.010242 171.020584 
L 360.277228 171.11746 
L 360.544214 171.086986 
L 360.811199 171.190889 
L 361.34517 171.170039 
L 361.612156 171.433766 
L 361.879142 171.231394 
L 362.146127 171.416421 
L 363.481056 171.1695 
L 363.748041 171.255996 
L 364.015027 171.201189 
L 364.548998 170.894037 
L 365.616941 171.19389 
L 366.150912 170.958544 
L 366.684883 171.520634 
L 366.951869 171.119372 
L 367.218855 171.018045 
L 367.48584 171.67436 
L 367.752826 171.09071 
L 368.019812 171.354111 
L 368.553783 170.839483 
L 368.820769 170.719592 
L 369.087754 170.840227 
L 369.35474 170.708209 
L 369.621725 170.893917 
L 369.888711 171.223553 
L 370.155697 170.712814 
L 370.422682 170.735789 
L 370.689668 170.56253 
L 370.956654 170.978219 
L 371.223639 170.867546 
L 371.757611 171.072234 
L 372.024596 170.655839 
L 372.291582 170.698314 
L 372.558568 171.11127 
L 372.825553 170.684368 
L 373.62651 171.266159 
L 373.893496 171.20957 
L 374.160481 170.876477 
L 374.427467 171.059444 
L 374.961438 170.926751 
L 375.228424 170.696355 
L 375.49541 170.808768 
L 375.762395 171.218476 
L 376.830338 170.606371 
L 377.097324 170.938834 
L 377.364309 170.807869 
L 377.631295 170.850105 
L 377.898281 170.759542 
L 378.165266 170.856284 
L 378.432252 171.272716 
L 378.699237 170.761774 
L 378.966223 170.881607 
L 379.500194 170.761931 
L 379.76718 170.918663 
L 380.034166 170.768164 
L 380.301151 171.215186 
L 380.568137 171.017064 
L 380.835123 171.250301 
L 381.102108 170.951181 
L 381.903065 170.750064 
L 382.170051 170.934623 
L 382.437036 170.891714 
L 382.704022 171.047805 
L 382.971008 170.738098 
L 383.504979 170.735819 
L 383.771965 171.010138 
L 384.03895 170.904273 
L 384.305936 170.954422 
L 384.839907 171.288385 
L 385.373879 170.87931 
L 385.640864 170.684863 
L 385.90785 170.925244 
L 386.174836 170.765478 
L 386.708807 171.199506 
L 386.975792 171.148805 
L 387.242778 171.398969 
L 387.509764 170.721241 
L 387.776749 170.982733 
L 388.310721 171.023371 
L 388.577706 170.609744 
L 388.844692 171.056523 
L 389.645649 170.571225 
L 389.912635 170.84737 
L 390.17962 170.748957 
L 390.446606 170.807698 
L 391.247563 170.51698 
L 391.514548 170.745012 
L 391.781534 170.786442 
L 392.04852 171.193776 
L 392.315505 170.903311 
L 392.582491 171.058865 
L 392.849477 170.887706 
L 393.116462 170.952627 
L 393.383448 170.813599 
L 393.650434 171.215764 
L 393.917419 170.740278 
L 394.184405 170.613744 
L 394.718376 170.579924 
L 395.252347 171.092789 
L 395.786319 170.837638 
L 396.053304 170.913837 
L 396.32029 170.727723 
L 396.587276 170.969048 
L 396.854261 170.825615 
L 397.121247 170.889193 
L 397.655218 171.187159 
L 397.922204 171.147762 
L 398.18919 170.533143 
L 399.257132 170.847003 
L 399.524118 170.707416 
L 399.791103 170.726416 
L 400.058089 171.098922 
L 400.325075 171.160734 
L 400.59206 170.559771 
L 400.859046 170.413832 
L 401.660003 170.938173 
L 401.926989 170.55412 
L 402.193974 170.483856 
L 402.46096 171.003681 
L 402.727946 170.953024 
L 402.994931 171.316819 
L 403.528903 170.613016 
L 403.795888 170.786452 
L 404.062874 170.736078 
L 404.329859 170.961564 
L 404.863831 170.948136 
L 405.130816 171.101096 
L 405.397802 170.735404 
L 405.931773 171.117438 
L 406.198759 170.693311 
L 406.73273 170.916796 
L 406.999716 171.203961 
L 407.533687 170.745573 
L 407.800673 171.040061 
L 408.067658 170.812139 
L 408.868615 170.704211 
L 409.135601 170.67869 
L 409.402587 170.895043 
L 409.669572 170.381518 
L 409.936558 170.93827 
L 410.203544 170.96271 
L 410.470529 170.534306 
L 410.737515 171.048113 
L 411.004501 170.651114 
L 411.271486 170.622422 
L 411.538472 170.950698 
L 411.805458 170.874743 
L 412.072443 170.64102 
L 412.339429 170.906864 
L 412.606414 170.691515 
L 412.8734 171.212719 
L 413.407371 170.639146 
L 413.674357 170.850851 
L 413.941343 170.860258 
L 414.208328 170.667375 
L 414.475314 170.835431 
L 414.7423 170.626871 
L 415.009285 170.834009 
L 415.276271 170.866606 
L 415.543257 170.72198 
L 415.810242 170.720277 
L 416.077228 170.933455 
L 416.344214 170.451516 
L 416.611199 170.419604 
L 416.878185 170.998416 
L 417.14517 170.579085 
L 417.412156 170.74032 
L 417.679142 170.768913 
L 417.946127 170.429201 
L 418.213113 170.489571 
L 418.480099 170.718454 
L 418.747084 170.603393 
L 419.01407 170.850211 
L 419.281056 170.559679 
L 419.548041 170.813131 
L 419.815027 170.52679 
L 420.082013 170.63431 
L 420.348998 170.491912 
L 420.615984 170.648642 
L 420.882969 170.571859 
L 421.149955 170.871463 
L 421.416941 170.58753 
L 421.683926 170.512779 
L 423.28584 171.03303 
L 423.819812 170.528718 
L 424.353783 170.9274 
L 424.620769 170.733948 
L 424.887754 171.0728 
L 425.15474 170.763549 
L 425.688711 171.122912 
L 425.955697 170.841414 
L 426.222682 170.798636 
L 426.489668 170.576703 
L 427.023639 170.830291 
L 427.290625 170.589583 
L 427.557611 170.916207 
L 427.824596 170.759809 
L 428.091582 170.774932 
L 428.625553 170.359896 
L 429.159525 170.635367 
L 429.42651 171.070245 
L 429.693496 170.657707 
L 429.960481 170.550851 
L 430.227467 170.598932 
L 430.494453 170.787151 
L 430.761438 170.681688 
L 431.028424 170.387036 
L 431.29541 170.416115 
L 431.562395 170.878409 
L 431.829381 170.630899 
L 432.096367 171.071578 
L 432.363352 171.1535 
L 432.630338 170.549599 
L 432.897324 170.759775 
L 433.164309 170.538498 
L 433.965266 171.055881 
L 434.499237 170.888099 
L 435.033209 170.692511 
L 435.300194 170.725042 
L 435.56718 170.613034 
L 435.834166 170.834623 
L 436.368137 170.953865 
L 436.635123 170.604125 
L 436.902108 170.559315 
L 437.169094 170.734298 
L 437.43608 170.765653 
L 437.703065 170.934995 
L 438.237036 170.626062 
L 438.504022 170.990162 
L 439.037993 170.651681 
L 439.304979 171.145624 
L 439.571965 170.578558 
L 439.83895 170.839456 
L 440.105936 170.875805 
L 440.639907 170.471814 
L 440.906893 170.424695 
L 441.440864 170.631749 
L 441.974836 170.888186 
L 442.241821 170.744507 
L 442.775792 170.786117 
L 443.042778 170.631302 
L 443.576749 170.687728 
L 443.843735 170.972742 
L 444.110721 170.537612 
L 444.377706 170.880383 
L 444.911678 170.603943 
L 445.178663 170.819605 
L 445.445649 170.509849 
L 445.712635 170.950334 
L 445.97962 170.833115 
L 446.246606 170.558232 
L 446.780577 170.741402 
L 447.047563 170.699919 
L 447.314548 170.872233 
L 447.581534 170.279612 
L 447.84852 170.798662 
L 448.115505 170.818435 
L 448.382491 170.694929 
L 448.649477 171.134182 
L 448.916462 170.863706 
L 449.183448 170.837301 
L 449.450434 170.665313 
L 449.717419 170.786664 
L 449.984405 170.581829 
L 450.518376 170.941334 
L 450.785362 170.674548 
L 451.052347 170.602221 
L 451.319333 170.745723 
L 451.586319 170.63707 
L 451.853304 170.978944 
L 452.12029 170.78368 
L 452.387276 170.822146 
L 452.654261 171.200952 
L 452.921247 170.725629 
L 453.188233 170.707773 
L 453.722204 171.120343 
L 453.98919 170.820297 
L 454.256175 170.956407 
L 454.523161 170.59562 
L 454.790147 170.652294 
L 455.057132 170.541251 
L 455.324118 170.720733 
L 455.591103 170.676061 
L 455.858089 170.424413 
L 456.125075 170.53423 
L 456.39206 170.507187 
L 456.659046 170.281122 
L 456.926032 170.582402 
L 457.726989 170.507017 
L 457.993974 170.402274 
L 458.26096 170.630037 
L 458.527946 170.651028 
L 458.794931 170.490456 
L 459.328903 170.799205 
L 459.595888 170.571074 
L 459.862874 170.634182 
L 460.396845 170.336733 
L 460.663831 170.560438 
L 460.930816 170.590834 
L 461.197802 171.054906 
L 461.731773 170.561266 
L 463.066702 170.682939 
L 463.333687 170.770461 
L 463.600673 170.514827 
L 463.867658 170.701922 
L 464.40163 170.445859 
L 464.668615 170.499178 
L 464.935601 170.245035 
L 465.202587 170.655261 
L 465.469572 170.786104 
L 466.003544 170.437481 
L 466.270529 170.740617 
L 466.537515 170.807076 
L 466.804501 170.69044 
L 467.071486 170.804829 
L 467.338472 170.645536 
L 467.605458 170.328209 
L 467.872443 170.545485 
L 468.139429 170.484062 
L 468.406414 170.681486 
L 469.207371 170.603993 
L 469.474357 170.859693 
L 469.741343 170.390122 
L 470.275314 170.705633 
L 470.5423 170.632732 
L 470.809285 170.894376 
L 471.076271 170.517912 
L 471.610242 170.691512 
L 471.877228 170.43232 
L 472.144214 170.560201 
L 472.411199 170.325376 
L 472.678185 170.6138 
L 472.94517 170.508865 
L 473.212156 170.979107 
L 473.479142 170.974679 
L 473.746127 170.375334 
L 474.013113 170.711939 
L 474.547084 170.638454 
L 474.81407 170.677264 
L 475.081056 170.510359 
L 475.615027 170.642513 
L 475.882013 171.146759 
L 476.148998 170.48617 
L 476.949955 170.793886 
L 477.216941 170.961593 
L 477.483926 170.927388 
L 477.750912 170.488995 
L 478.017898 171.086491 
L 478.284883 170.69472 
L 478.551869 170.567617 
L 478.818855 170.963608 
L 479.08584 170.539445 
L 479.352826 170.684739 
L 479.619812 170.423255 
L 479.886797 170.857426 
L 480.153783 170.542898 
L 480.420769 170.50515 
L 480.687754 170.243769 
L 480.95474 170.74702 
L 481.221725 170.774729 
L 481.488711 170.924798 
L 481.755697 170.596336 
L 482.022682 170.963638 
L 482.289668 170.497692 
L 482.556654 170.360859 
L 482.823639 170.616801 
L 483.090625 170.47359 
L 483.357611 170.664628 
L 483.624596 170.61835 
L 483.891582 170.895543 
L 484.158568 170.631459 
L 484.425553 170.834951 
L 484.692539 170.821059 
L 484.959525 170.511219 
L 485.22651 171.085793 
L 485.493496 170.618325 
L 485.760481 170.748792 
L 486.294453 170.517406 
L 486.561438 170.644483 
L 486.828424 170.505008 
L 487.629381 170.728019 
L 487.896367 171.000412 
L 488.163352 170.803728 
L 488.697324 170.805451 
L 488.964309 170.80358 
L 489.231295 171.009155 
L 489.498281 170.642632 
L 489.765266 170.504354 
L 490.566223 171.033433 
L 490.833209 170.888476 
L 491.100194 170.545554 
L 491.36718 170.52884 
L 491.634166 170.705485 
L 491.901151 170.521681 
L 492.168137 170.98988 
L 492.435123 170.917422 
L 492.702108 171.186403 
L 492.969094 170.696213 
L 493.503065 170.800665 
L 493.770051 170.7198 
L 494.037036 171.064536 
L 494.304022 170.557683 
L 494.837993 170.662075 
L 495.104979 170.922326 
L 495.371965 170.839294 
L 495.63895 170.48447 
L 495.905936 170.989119 
L 496.439907 170.684102 
L 496.706893 170.766274 
L 496.973879 171.156028 
L 497.240864 170.50815 
L 497.50785 170.498005 
L 497.774836 170.718828 
L 498.041821 170.310759 
L 498.308807 170.5364 
L 498.575792 169.379687 
L 498.842778 170.221347 
L 499.109764 170.488203 
L 499.643735 169.40758 
L 499.910721 169.457488 
L 500.177706 169.909514 
L 500.711678 170.220064 
L 500.978663 169.559103 
L 501.245649 169.81567 
L 501.512635 170.503716 
L 501.77962 170.543719 
L 502.046606 170.429359 
L 502.313592 169.9001 
L 502.580577 170.186184 
L 502.847563 170.103023 
L 503.114548 170.140931 
L 503.381534 169.75304 
L 503.915505 170.209605 
L 504.449477 169.897364 
L 504.716462 170.003408 
L 504.983448 169.786 
L 505.250434 170.235262 
L 505.784405 170.173283 
L 506.051391 169.856806 
L 506.318376 170.607807 
L 506.585362 170.295063 
L 506.852347 170.433463 
L 507.119333 170.028358 
L 507.386319 170.25451 
L 507.653304 169.803228 
L 507.92029 170.111661 
L 508.187276 170.090383 
L 508.454261 170.193615 
L 508.721247 170.04925 
L 508.988233 170.240987 
L 509.255218 170.019245 
L 509.522204 170.356316 
L 509.78919 169.932978 
L 510.056175 169.781861 
L 510.323161 170.119561 
L 510.590147 170.240678 
L 510.857132 169.796625 
L 511.124118 169.740291 
L 511.658089 169.868125 
L 511.925075 169.789548 
L 512.19206 170.306549 
L 512.726032 169.943338 
L 512.993017 169.964621 
L 513.260003 170.112339 
L 513.526989 169.890079 
L 514.327946 170.154252 
L 514.861917 169.830085 
L 515.395888 170.035574 
L 515.662874 169.96411 
L 515.929859 170.19651 
L 516.196845 170.124903 
L 516.463831 169.750201 
L 516.730816 170.142028 
L 516.997802 170.089279 
L 517.264788 170.169625 
L 517.531773 169.980181 
L 517.798759 170.072679 
L 518.065745 169.69679 
L 518.866702 170.067291 
L 519.133687 169.768436 
L 519.667658 170.329441 
L 519.934644 169.717476 
L 520.735601 170.37033 
L 521.269572 169.798504 
L 521.803544 169.892785 
L 522.070529 169.838695 
L 523.138472 170.142603 
L 523.405458 169.815969 
L 524.206414 170.255645 
L 524.4734 169.837573 
L 525.007371 170.514473 
L 525.274357 170.115136 
L 525.541343 170.179203 
L 526.3423 169.914225 
L 526.609285 170.14048 
L 526.876271 169.886364 
L 527.410242 170.130107 
L 527.677228 170.514416 
L 528.211199 170.139558 
L 528.478185 170.229449 
L 528.74517 170.066506 
L 529.279142 170.166213 
L 529.546127 169.769202 
L 530.347084 170.101046 
L 530.61407 170.553017 
L 530.881056 169.945876 
L 531.148041 170.468837 
L 531.415027 169.981586 
L 532.215984 170.300559 
L 532.482969 169.990864 
L 532.749955 170.087962 
L 533.016941 169.895133 
L 533.550912 170.269235 
L 533.817898 170.07151 
L 534.084883 170.142151 
L 534.618855 169.926903 
L 535.152826 170.201349 
L 535.686797 169.999603 
L 535.953783 170.569194 
L 536.220769 170.222117 
L 536.487754 170.172443 
L 536.75474 170.006709 
L 537.021725 170.544964 
L 537.288711 170.251139 
L 537.555697 170.214946 
L 537.822682 170.354834 
L 538.356654 170.13552 
L 538.623639 170.345892 
L 539.157611 170.285244 
L 539.424596 170.107642 
L 539.691582 170.313011 
L 539.958568 170.033929 
L 540.225553 170.206589 
L 540.759525 170.005461 
L 541.02651 170.317936 
L 541.293496 170.414495 
L 541.560481 170.223989 
L 542.361438 170.459556 
L 542.628424 170.165012 
L 542.89541 170.269226 
L 543.162395 170.568363 
L 543.429381 170.262678 
L 543.696367 170.177004 
L 543.963352 170.322934 
L 544.497324 170.022706 
L 545.031295 170.28113 
L 545.298281 169.990611 
L 545.832252 169.916602 
L 546.099237 170.237079 
L 546.366223 169.960911 
L 546.633209 170.364318 
L 546.900194 169.965113 
L 547.16718 170.44508 
L 547.434166 169.935285 
L 547.701151 170.511652 
L 548.235123 170.04903 
L 548.502108 170.1393 
L 548.769094 170.043227 
L 549.03608 169.752425 
L 549.303065 170.087228 
L 550.637993 170.180613 
L 550.904979 170.137237 
L 551.171965 170.420739 
L 551.43895 170.187108 
L 551.705936 170.172829 
L 551.972922 170.288888 
L 552.239907 170.227955 
L 552.506893 170.372897 
L 552.773879 170.339441 
L 553.040864 170.052828 
L 553.30785 170.430456 
L 553.574836 170.512966 
L 553.841821 170.216632 
L 554.108807 170.168394 
L 554.375792 170.597179 
L 554.642778 170.415844 
L 554.909764 170.407801 
L 555.443735 170.251961 
L 555.710721 170.301238 
L 555.977706 170.201765 
L 556.244692 170.343465 
L 556.511678 170.155091 
L 556.778663 170.534622 
L 557.045649 170.115658 
L 557.57962 170.632504 
L 557.846606 170.520263 
L 558.113592 170.746337 
L 558.380577 170.512268 
L 558.647563 170.558273 
L 558.914548 170.107103 
L 560.783448 170.420587 
L 561.050434 170.24225 
L 561.317419 170.329623 
L 562.118376 170.901106 
L 562.919333 170.302748 
L 563.186319 170.283435 
L 563.453304 170.415477 
L 564.254261 170.181385 
L 564.521247 170.340429 
L 564.788233 170.212499 
L 565.055218 170.510135 
L 565.322204 170.370799 
L 565.58919 170.458278 
L 565.856175 170.313058 
L 566.657132 170.690659 
L 567.191103 170.191558 
L 567.725075 170.579398 
L 567.99206 170.520471 
L 568.259046 170.711689 
L 568.526032 170.443268 
L 569.060003 170.331373 
L 569.326989 170.402224 
L 569.593974 170.025763 
L 570.394931 170.639004 
L 570.661917 170.36777 
L 570.928903 170.425402 
L 571.462874 170.263628 
L 571.729859 170.454974 
L 571.996845 170.345345 
L 572.263831 170.528494 
L 572.797802 170.372336 
L 573.064788 170.651882 
L 573.598759 170.474469 
L 573.865745 170.872342 
L 574.13273 170.764049 
L 574.399716 170.875791 
L 574.666702 170.605405 
L 574.933687 170.726558 
L 575.200673 170.248236 
L 575.467658 170.544836 
L 576.00163 170.690939 
L 576.802587 170.490801 
L 577.069572 170.727427 
L 577.336558 170.516969 
L 577.603544 170.460856 
L 577.870529 170.812739 
L 578.137515 170.204815 
L 578.404501 170.737862 
L 579.472443 170.691841 
L 579.739429 170.44867 
L 580.006414 170.51276 
L 580.2734 170.769484 
L 580.540386 170.483301 
L 580.807371 170.649491 
L 581.074357 170.460552 
L 581.341343 170.594565 
L 582.1423 170.464806 
L 582.409285 170.852139 
L 582.676271 170.623217 
L 582.943257 170.707789 
L 583.210242 170.430543 
L 583.744214 170.535105 
L 584.011199 170.401987 
L 584.278185 170.457276 
L 584.54517 170.803882 
L 584.812156 170.400976 
L 585.079142 170.584671 
L 585.346127 170.349334 
L 585.613113 170.6198 
L 585.880099 170.65072 
L 586.147084 170.550202 
L 586.41407 170.269772 
L 586.681056 170.360432 
L 586.948041 170.703495 
L 587.482013 170.241523 
L 587.748998 170.508442 
L 588.015984 170.360002 
L 589.884883 170.589898 
L 590.151869 170.837574 
L 590.68584 170.403738 
L 591.219812 170.579392 
L 591.486797 170.450817 
L 591.753783 170.655335 
L 592.020769 170.717163 
L 592.55474 170.393596 
L 592.821725 170.828214 
L 593.088711 170.746754 
L 593.355697 170.488625 
L 593.622682 170.647759 
L 593.889668 170.499064 
L 594.156654 170.73663 
L 594.423639 170.432625 
L 594.690625 170.345994 
L 594.957611 170.639852 
L 595.224596 170.653434 
L 595.491582 170.489194 
L 595.758568 170.825032 
L 596.025553 170.622037 
L 596.292539 170.715074 
L 597.093496 170.084795 
L 597.627467 170.425009 
L 597.894453 170.25709 
L 598.428424 170.278545 
L 598.69541 170.655594 
L 599.229381 170.787419 
L 599.763352 170.548815 
L 600.297324 170.777925 
L 600.564309 170.778932 
L 600.831295 170.512427 
L 601.098281 170.500808 
L 601.365266 170.628518 
L 601.632252 170.336654 
L 602.166223 170.422338 
L 602.433209 170.392938 
L 602.700194 170.516628 
L 602.96718 170.09332 
L 603.501151 170.362118 
L 603.768137 169.998221 
L 604.035123 170.497909 
L 604.302108 170.71975 
L 604.83608 170.498646 
L 605.103065 170.148379 
L 605.637036 170.50447 
L 605.904022 170.262047 
L 606.171008 170.190208 
L 606.437993 170.391272 
L 606.704979 170.358679 
L 606.971965 170.460531 
L 607.23895 170.440554 
L 607.505936 170.561935 
L 607.772922 170.41809 
L 608.039907 170.55911 
L 608.306893 170.086966 
L 608.840864 170.562912 
L 609.10785 170.524219 
L 609.374836 170.152743 
L 609.641821 170.579328 
L 609.908807 170.436715 
L 610.175792 170.629091 
L 610.709764 170.521151 
L 610.976749 170.511858 
L 611.243735 170.296122 
L 611.510721 170.282533 
L 611.777706 170.430841 
L 612.044692 170.144739 
L 612.845649 170.164471 
L 613.112635 170.498687 
L 613.37962 169.93833 
L 613.646606 170.211707 
L 613.913592 170.308455 
L 614.180577 170.139535 
L 614.447563 170.327841 
L 614.714548 169.982071 
L 614.981534 170.53603 
L 615.24852 170.480425 
L 615.515505 169.846305 
L 615.782491 169.895353 
L 616.049477 170.168401 
L 616.316462 169.945919 
L 616.583448 169.966635 
L 616.850434 170.105821 
L 617.117419 170.072844 
L 617.384405 170.328344 
L 617.918376 169.852469 
L 618.452347 170.19562 
L 618.719333 169.958257 
L 619.253304 170.426024 
L 619.52029 170.200551 
L 619.787276 170.249158 
L 620.054261 169.87675 
L 620.588233 169.954489 
L 620.855218 170.086245 
L 621.122204 170.088584 
L 621.38919 169.900003 
L 621.923161 170.23931 
L 622.190147 170.084407 
L 622.457132 170.233623 
L 622.724118 170.083505 
L 623.79206 170.223239 
L 624.059046 170.020715 
L 625.126989 170.318751 
L 625.126989 170.318751 
" clip-path="url(#p6c0dec8803)" style="fill: none; stroke: #ff7f0e; stroke-width: 1.5; stroke-linecap: square"/>
   </g>
   <g id="patch_3">
    <path d="M 92.490625 308.63625 
L 92.490625 31.43625 
" style="fill: none; stroke: #000000; stroke-width: 0.8; stroke-linejoin: miter; stroke-linecap: square"/>
   </g>
   <g id="patch_4">
    <path d="M 650.490625 308.63625 
L 650.490625 31.43625 
" style="fill: none; stroke: #000000; stroke-width: 0.8; stroke-linejoin: miter; stroke-linecap: square"/>
   </g>
   <g id="patch_5">
    <path d="M 92.490625 308.63625 
L 650.490625 308.63625 
" style="fill: none; stroke: #000000; stroke-width: 0.8; stroke-linejoin: miter; stroke-linecap: square"/>
   </g>
   <g id="patch_6">
    <path d="M 92.490625 31.43625 
L 650.490625 31.43625 
" style="fill: none; stroke: #000000; stroke-width: 0.8; stroke-linejoin: miter; stroke-linecap: square"/>
   </g>
   <g id="text_16">
    <!-- Generator and Discriminator Loss During Training -->
    <g transform="translate(74.258125 25.43625) scale(0.24 -0.24)">
     <defs>
      <path id="DejaVuSans-47" d="M 3809 666 
L 3809 1919 
L 2778 1919 
L 2778 2438 
L 4434 2438 
L 4434 434 
Q 4069 175 3628 42 
Q 3188 -91 2688 -91 
Q 1594 -91 976 548 
Q 359 1188 359 2328 
Q 359 3472 976 4111 
Q 1594 4750 2688 4750 
Q 3144 4750 3555 4637 
Q 3966 4525 4313 4306 
L 4313 3634 
Q 3963 3931 3569 4081 
Q 3175 4231 2741 4231 
Q 1884 4231 1454 3753 
Q 1025 3275 1025 2328 
Q 1025 1384 1454 906 
Q 1884 428 2741 428 
Q 3075 428 3337 486 
Q 3600 544 3809 666 
z
" transform="scale(0.015625)"/>
      <path id="DejaVuSans-20" transform="scale(0.015625)"/>
      <path id="DejaVuSans-64" d="M 2906 2969 
L 2906 4863 
L 3481 4863 
L 3481 0 
L 2906 0 
L 2906 525 
Q 2725 213 2448 61 
Q 2172 -91 1784 -91 
Q 1150 -91 751 415 
Q 353 922 353 1747 
Q 353 2572 751 3078 
Q 1150 3584 1784 3584 
Q 2172 3584 2448 3432 
Q 2725 3281 2906 2969 
z
M 947 1747 
Q 947 1113 1208 752 
Q 1469 391 1925 391 
Q 2381 391 2643 752 
Q 2906 1113 2906 1747 
Q 2906 2381 2643 2742 
Q 2381 3103 1925 3103 
Q 1469 3103 1208 2742 
Q 947 2381 947 1747 
z
" transform="scale(0.015625)"/>
      <path id="DejaVuSans-44" d="M 1259 4147 
L 1259 519 
L 2022 519 
Q 2988 519 3436 956 
Q 3884 1394 3884 2338 
Q 3884 3275 3436 3711 
Q 2988 4147 2022 4147 
L 1259 4147 
z
M 628 4666 
L 1925 4666 
Q 3281 4666 3915 4102 
Q 4550 3538 4550 2338 
Q 4550 1131 3912 565 
Q 3275 0 1925 0 
L 628 0 
L 628 4666 
z
" transform="scale(0.015625)"/>
      <path id="DejaVuSans-63" d="M 3122 3366 
L 3122 2828 
Q 2878 2963 2633 3030 
Q 2388 3097 2138 3097 
Q 1578 3097 1268 2742 
Q 959 2388 959 1747 
Q 959 1106 1268 751 
Q 1578 397 2138 397 
Q 2388 397 2633 464 
Q 2878 531 3122 666 
L 3122 134 
Q 2881 22 2623 -34 
Q 2366 -91 2075 -91 
Q 1284 -91 818 406 
Q 353 903 353 1747 
Q 353 2603 823 3093 
Q 1294 3584 2113 3584 
Q 2378 3584 2631 3529 
Q 2884 3475 3122 3366 
z
" transform="scale(0.015625)"/>
      <path id="DejaVuSans-6d" d="M 3328 2828 
Q 3544 3216 3844 3400 
Q 4144 3584 4550 3584 
Q 5097 3584 5394 3201 
Q 5691 2819 5691 2113 
L 5691 0 
L 5113 0 
L 5113 2094 
Q 5113 2597 4934 2840 
Q 4756 3084 4391 3084 
Q 3944 3084 3684 2787 
Q 3425 2491 3425 1978 
L 3425 0 
L 2847 0 
L 2847 2094 
Q 2847 2600 2669 2842 
Q 2491 3084 2119 3084 
Q 1678 3084 1418 2786 
Q 1159 2488 1159 1978 
L 1159 0 
L 581 0 
L 581 3500 
L 1159 3500 
L 1159 2956 
Q 1356 3278 1631 3431 
Q 1906 3584 2284 3584 
Q 2666 3584 2933 3390 
Q 3200 3197 3328 2828 
z
" transform="scale(0.015625)"/>
      <path id="DejaVuSans-75" d="M 544 1381 
L 544 3500 
L 1119 3500 
L 1119 1403 
Q 1119 906 1312 657 
Q 1506 409 1894 409 
Q 2359 409 2629 706 
Q 2900 1003 2900 1516 
L 2900 3500 
L 3475 3500 
L 3475 0 
L 2900 0 
L 2900 538 
Q 2691 219 2414 64 
Q 2138 -91 1772 -91 
Q 1169 -91 856 284 
Q 544 659 544 1381 
z
M 1991 3584 
L 1991 3584 
z
" transform="scale(0.015625)"/>
      <path id="DejaVuSans-67" d="M 2906 1791 
Q 2906 2416 2648 2759 
Q 2391 3103 1925 3103 
Q 1463 3103 1205 2759 
Q 947 2416 947 1791 
Q 947 1169 1205 825 
Q 1463 481 1925 481 
Q 2391 481 2648 825 
Q 2906 1169 2906 1791 
z
M 3481 434 
Q 3481 -459 3084 -895 
Q 2688 -1331 1869 -1331 
Q 1566 -1331 1297 -1286 
Q 1028 -1241 775 -1147 
L 775 -588 
Q 1028 -725 1275 -790 
Q 1522 -856 1778 -856 
Q 2344 -856 2625 -561 
Q 2906 -266 2906 331 
L 2906 616 
Q 2728 306 2450 153 
Q 2172 0 1784 0 
Q 1141 0 747 490 
Q 353 981 353 1791 
Q 353 2603 747 3093 
Q 1141 3584 1784 3584 
Q 2172 3584 2450 3431 
Q 2728 3278 2906 2969 
L 2906 3500 
L 3481 3500 
L 3481 434 
z
" transform="scale(0.015625)"/>
      <path id="DejaVuSans-54" d="M -19 4666 
L 3928 4666 
L 3928 4134 
L 2272 4134 
L 2272 0 
L 1638 0 
L 1638 4134 
L -19 4134 
L -19 4666 
z
" transform="scale(0.015625)"/>
     </defs>
     <use xlink:href="#DejaVuSans-47"/>
     <use xlink:href="#DejaVuSans-65" x="77.490234"/>
     <use xlink:href="#DejaVuSans-6e" x="139.013672"/>
     <use xlink:href="#DejaVuSans-65" x="202.392578"/>
     <use xlink:href="#DejaVuSans-72" x="263.916016"/>
     <use xlink:href="#DejaVuSans-61" x="305.029297"/>
     <use xlink:href="#DejaVuSans-74" x="366.308594"/>
     <use xlink:href="#DejaVuSans-6f" x="405.517578"/>
     <use xlink:href="#DejaVuSans-72" x="466.699219"/>
     <use xlink:href="#DejaVuSans-20" x="507.8125"/>
     <use xlink:href="#DejaVuSans-61" x="539.599609"/>
     <use xlink:href="#DejaVuSans-6e" x="600.878906"/>
     <use xlink:href="#DejaVuSans-64" x="664.257812"/>
     <use xlink:href="#DejaVuSans-20" x="727.734375"/>
     <use xlink:href="#DejaVuSans-44" x="759.521484"/>
     <use xlink:href="#DejaVuSans-69" x="836.523438"/>
     <use xlink:href="#DejaVuSans-73" x="864.306641"/>
     <use xlink:href="#DejaVuSans-63" x="916.40625"/>
     <use xlink:href="#DejaVuSans-72" x="971.386719"/>
     <use xlink:href="#DejaVuSans-69" x="1012.5"/>
     <use xlink:href="#DejaVuSans-6d" x="1040.283203"/>
     <use xlink:href="#DejaVuSans-69" x="1137.695312"/>
     <use xlink:href="#DejaVuSans-6e" x="1165.478516"/>
     <use xlink:href="#DejaVuSans-61" x="1228.857422"/>
     <use xlink:href="#DejaVuSans-74" x="1290.136719"/>
     <use xlink:href="#DejaVuSans-6f" x="1329.345703"/>
     <use xlink:href="#DejaVuSans-72" x="1390.527344"/>
     <use xlink:href="#DejaVuSans-20" x="1431.640625"/>
     <use xlink:href="#DejaVuSans-4c" x="1463.427734"/>
     <use xlink:href="#DejaVuSans-6f" x="1517.390625"/>
     <use xlink:href="#DejaVuSans-73" x="1578.572266"/>
     <use xlink:href="#DejaVuSans-73" x="1630.671875"/>
     <use xlink:href="#DejaVuSans-20" x="1682.771484"/>
     <use xlink:href="#DejaVuSans-44" x="1714.558594"/>
     <use xlink:href="#DejaVuSans-75" x="1791.560547"/>
     <use xlink:href="#DejaVuSans-72" x="1854.939453"/>
     <use xlink:href="#DejaVuSans-69" x="1896.052734"/>
     <use xlink:href="#DejaVuSans-6e" x="1923.835938"/>
     <use xlink:href="#DejaVuSans-67" x="1987.214844"/>
     <use xlink:href="#DejaVuSans-20" x="2050.691406"/>
     <use xlink:href="#DejaVuSans-54" x="2082.478516"/>
     <use xlink:href="#DejaVuSans-72" x="2128.8125"/>
     <use xlink:href="#DejaVuSans-61" x="2169.925781"/>
     <use xlink:href="#DejaVuSans-69" x="2231.205078"/>
     <use xlink:href="#DejaVuSans-6e" x="2258.988281"/>
     <use xlink:href="#DejaVuSans-69" x="2322.367188"/>
     <use xlink:href="#DejaVuSans-6e" x="2350.150391"/>
     <use xlink:href="#DejaVuSans-67" x="2413.529297"/>
    </g>
   </g>
   <g id="legend_1">
    <g id="patch_7">
     <path d="M 556.99375 106.14875 
L 636.490625 106.14875 
Q 640.490625 106.14875 640.490625 102.14875 
L 640.490625 45.43625 
Q 640.490625 41.43625 636.490625 41.43625 
L 556.99375 41.43625 
Q 552.99375 41.43625 552.99375 45.43625 
L 552.99375 102.14875 
Q 552.99375 106.14875 556.99375 106.14875 
z
" style="fill: #ffffff; opacity: 0.8; stroke: #cccccc; stroke-linejoin: miter"/>
    </g>
    <g id="line2d_16">
     <path d="M 560.99375 57.633125 
L 580.99375 57.633125 
L 600.99375 57.633125 
" style="fill: none; stroke: #1f77b4; stroke-width: 1.5; stroke-linecap: square"/>
    </g>
    <g id="text_17">
     <!-- G -->
     <g transform="translate(616.99375 64.633125) scale(0.2 -0.2)">
      <use xlink:href="#DejaVuSans-47"/>
     </g>
    </g>
    <g id="line2d_17">
     <path d="M 560.99375 86.989375 
L 580.99375 86.989375 
L 600.99375 86.989375 
" style="fill: none; stroke: #ff7f0e; stroke-width: 1.5; stroke-linecap: square"/>
    </g>
    <g id="text_18">
     <!-- D -->
     <g transform="translate(616.99375 93.989375) scale(0.2 -0.2)">
      <use xlink:href="#DejaVuSans-44"/>
     </g>
    </g>
   </g>
  </g>
 </g>
 <defs>
  <clipPath id="p6c0dec8803">
   <rect x="92.490625" y="31.43625" width="558" height="277.2"/>
  </clipPath>
 </defs>
</svg>
