<?xml version="1.0" encoding="utf-8" standalone="no"?>
<!DOCTYPE svg PUBLIC "-//W3C//DTD SVG 1.1//EN"
  "http://www.w3.org/Graphics/SVG/1.1/DTD/svg11.dtd">
<svg xmlns:xlink="http://www.w3.org/1999/xlink" width="675.923125pt" height="365.54875pt" viewBox="0 0 675.923125 365.54875" xmlns="http://www.w3.org/2000/svg" version="1.1">
 <metadata>
  <rdf:RDF xmlns:dc="http://purl.org/dc/elements/1.1/" xmlns:cc="http://creativecommons.org/ns#" xmlns:rdf="http://www.w3.org/1999/02/22-rdf-syntax-ns#">
   <cc:Work>
    <dc:type rdf:resource="http://purl.org/dc/dcmitype/StillImage"/>
    <dc:date>2024-02-12T18:33:57.765111</dc:date>
    <dc:format>image/svg+xml</dc:format>
    <dc:creator>
     <cc:Agent>
      <dc:title>Matplotlib v3.7.2, https://matplotlib.org/</dc:title>
     </cc:Agent>
    </dc:creator>
   </cc:Work>
  </rdf:RDF>
 </metadata>
 <defs>
  <style type="text/css">*{stroke-linejoin: round; stroke-linecap: butt}</style>
 </defs>
 <g id="figure_1">
  <g id="patch_1">
   <path d="M 0 365.54875 
L 675.923125 365.54875 
L 675.923125 -0 
L 0 -0 
z
" style="fill: #ffffff"/>
  </g>
  <g id="axes_1">
   <g id="patch_2">
    <path d="M 92.490625 308.63625 
L 650.490625 308.63625 
L 650.490625 31.43625 
L 92.490625 31.43625 
z
" style="fill: #ffffff"/>
   </g>
   <g id="matplotlib.axis_1">
    <g id="xtick_1">
     <g id="line2d_1">
      <defs>
       <path id="m2a65c9d047" d="M 0 0 
L 0 3.5 
" style="stroke: #000000; stroke-width: 0.8"/>
      </defs>
      <g>
       <use xlink:href="#m2a65c9d047" x="117.854261" y="308.63625" style="stroke: #000000; stroke-width: 0.8"/>
      </g>
     </g>
     <g id="text_1">
      <!-- 0 -->
      <g transform="translate(111.491761 330.833125) scale(0.2 -0.2)">
       <defs>
        <path id="DejaVuSans-30" d="M 2034 4250 
Q 1547 4250 1301 3770 
Q 1056 3291 1056 2328 
Q 1056 1369 1301 889 
Q 1547 409 2034 409 
Q 2525 409 2770 889 
Q 3016 1369 3016 2328 
Q 3016 3291 2770 3770 
Q 2525 4250 2034 4250 
z
M 2034 4750 
Q 2819 4750 3233 4129 
Q 3647 3509 3647 2328 
Q 3647 1150 3233 529 
Q 2819 -91 2034 -91 
Q 1250 -91 836 529 
Q 422 1150 422 2328 
Q 422 3509 836 4129 
Q 1250 4750 2034 4750 
z
" transform="scale(0.015625)"/>
       </defs>
       <use xlink:href="#DejaVuSans-30"/>
      </g>
     </g>
    </g>
    <g id="xtick_2">
     <g id="line2d_2">
      <g>
       <use xlink:href="#m2a65c9d047" x="210.085666" y="308.63625" style="stroke: #000000; stroke-width: 0.8"/>
      </g>
     </g>
     <g id="text_2">
      <!-- 100 -->
      <g transform="translate(190.998166 330.833125) scale(0.2 -0.2)">
       <defs>
        <path id="DejaVuSans-31" d="M 794 531 
L 1825 531 
L 1825 4091 
L 703 3866 
L 703 4441 
L 1819 4666 
L 2450 4666 
L 2450 531 
L 3481 531 
L 3481 0 
L 794 0 
L 794 531 
z
" transform="scale(0.015625)"/>
       </defs>
       <use xlink:href="#DejaVuSans-31"/>
       <use xlink:href="#DejaVuSans-30" x="63.623047"/>
       <use xlink:href="#DejaVuSans-30" x="127.246094"/>
      </g>
     </g>
    </g>
    <g id="xtick_3">
     <g id="line2d_3">
      <g>
       <use xlink:href="#m2a65c9d047" x="302.317071" y="308.63625" style="stroke: #000000; stroke-width: 0.8"/>
      </g>
     </g>
     <g id="text_3">
      <!-- 200 -->
      <g transform="translate(283.229571 330.833125) scale(0.2 -0.2)">
       <defs>
        <path id="DejaVuSans-32" d="M 1228 531 
L 3431 531 
L 3431 0 
L 469 0 
L 469 531 
Q 828 903 1448 1529 
Q 2069 2156 2228 2338 
Q 2531 2678 2651 2914 
Q 2772 3150 2772 3378 
Q 2772 3750 2511 3984 
Q 2250 4219 1831 4219 
Q 1534 4219 1204 4116 
Q 875 4013 500 3803 
L 500 4441 
Q 881 4594 1212 4672 
Q 1544 4750 1819 4750 
Q 2544 4750 2975 4387 
Q 3406 4025 3406 3419 
Q 3406 3131 3298 2873 
Q 3191 2616 2906 2266 
Q 2828 2175 2409 1742 
Q 1991 1309 1228 531 
z
" transform="scale(0.015625)"/>
       </defs>
       <use xlink:href="#DejaVuSans-32"/>
       <use xlink:href="#DejaVuSans-30" x="63.623047"/>
       <use xlink:href="#DejaVuSans-30" x="127.246094"/>
      </g>
     </g>
    </g>
    <g id="xtick_4">
     <g id="line2d_4">
      <g>
       <use xlink:href="#m2a65c9d047" x="394.548476" y="308.63625" style="stroke: #000000; stroke-width: 0.8"/>
      </g>
     </g>
     <g id="text_4">
      <!-- 300 -->
      <g transform="translate(375.460976 330.833125) scale(0.2 -0.2)">
       <defs>
        <path id="DejaVuSans-33" d="M 2597 2516 
Q 3050 2419 3304 2112 
Q 3559 1806 3559 1356 
Q 3559 666 3084 287 
Q 2609 -91 1734 -91 
Q 1441 -91 1130 -33 
Q 819 25 488 141 
L 488 750 
Q 750 597 1062 519 
Q 1375 441 1716 441 
Q 2309 441 2620 675 
Q 2931 909 2931 1356 
Q 2931 1769 2642 2001 
Q 2353 2234 1838 2234 
L 1294 2234 
L 1294 2753 
L 1863 2753 
Q 2328 2753 2575 2939 
Q 2822 3125 2822 3475 
Q 2822 3834 2567 4026 
Q 2313 4219 1838 4219 
Q 1578 4219 1281 4162 
Q 984 4106 628 3988 
L 628 4550 
Q 988 4650 1302 4700 
Q 1616 4750 1894 4750 
Q 2613 4750 3031 4423 
Q 3450 4097 3450 3541 
Q 3450 3153 3228 2886 
Q 3006 2619 2597 2516 
z
" transform="scale(0.015625)"/>
       </defs>
       <use xlink:href="#DejaVuSans-33"/>
       <use xlink:href="#DejaVuSans-30" x="63.623047"/>
       <use xlink:href="#DejaVuSans-30" x="127.246094"/>
      </g>
     </g>
    </g>
    <g id="xtick_5">
     <g id="line2d_5">
      <g>
       <use xlink:href="#m2a65c9d047" x="486.779881" y="308.63625" style="stroke: #000000; stroke-width: 0.8"/>
      </g>
     </g>
     <g id="text_5">
      <!-- 400 -->
      <g transform="translate(467.692381 330.833125) scale(0.2 -0.2)">
       <defs>
        <path id="DejaVuSans-34" d="M 2419 4116 
L 825 1625 
L 2419 1625 
L 2419 4116 
z
M 2253 4666 
L 3047 4666 
L 3047 1625 
L 3713 1625 
L 3713 1100 
L 3047 1100 
L 3047 0 
L 2419 0 
L 2419 1100 
L 313 1100 
L 313 1709 
L 2253 4666 
z
" transform="scale(0.015625)"/>
       </defs>
       <use xlink:href="#DejaVuSans-34"/>
       <use xlink:href="#DejaVuSans-30" x="63.623047"/>
       <use xlink:href="#DejaVuSans-30" x="127.246094"/>
      </g>
     </g>
    </g>
    <g id="xtick_6">
     <g id="line2d_6">
      <g>
       <use xlink:href="#m2a65c9d047" x="579.011286" y="308.63625" style="stroke: #000000; stroke-width: 0.8"/>
      </g>
     </g>
     <g id="text_6">
      <!-- 500 -->
      <g transform="translate(559.923786 330.833125) scale(0.2 -0.2)">
       <defs>
        <path id="DejaVuSans-35" d="M 691 4666 
L 3169 4666 
L 3169 4134 
L 1269 4134 
L 1269 2991 
Q 1406 3038 1543 3061 
Q 1681 3084 1819 3084 
Q 2600 3084 3056 2656 
Q 3513 2228 3513 1497 
Q 3513 744 3044 326 
Q 2575 -91 1722 -91 
Q 1428 -91 1123 -41 
Q 819 9 494 109 
L 494 744 
Q 775 591 1075 516 
Q 1375 441 1709 441 
Q 2250 441 2565 725 
Q 2881 1009 2881 1497 
Q 2881 1984 2565 2268 
Q 2250 2553 1709 2553 
Q 1456 2553 1204 2497 
Q 953 2441 691 2322 
L 691 4666 
z
" transform="scale(0.015625)"/>
       </defs>
       <use xlink:href="#DejaVuSans-35"/>
       <use xlink:href="#DejaVuSans-30" x="63.623047"/>
       <use xlink:href="#DejaVuSans-30" x="127.246094"/>
      </g>
     </g>
    </g>
    <g id="text_7">
     <!-- iterations -->
     <g transform="translate(324.035938 354.189375) scale(0.2 -0.2)">
      <defs>
       <path id="DejaVuSans-69" d="M 603 3500 
L 1178 3500 
L 1178 0 
L 603 0 
L 603 3500 
z
M 603 4863 
L 1178 4863 
L 1178 4134 
L 603 4134 
L 603 4863 
z
" transform="scale(0.015625)"/>
       <path id="DejaVuSans-74" d="M 1172 4494 
L 1172 3500 
L 2356 3500 
L 2356 3053 
L 1172 3053 
L 1172 1153 
Q 1172 725 1289 603 
Q 1406 481 1766 481 
L 2356 481 
L 2356 0 
L 1766 0 
Q 1100 0 847 248 
Q 594 497 594 1153 
L 594 3053 
L 172 3053 
L 172 3500 
L 594 3500 
L 594 4494 
L 1172 4494 
z
" transform="scale(0.015625)"/>
       <path id="DejaVuSans-65" d="M 3597 1894 
L 3597 1613 
L 953 1613 
Q 991 1019 1311 708 
Q 1631 397 2203 397 
Q 2534 397 2845 478 
Q 3156 559 3463 722 
L 3463 178 
Q 3153 47 2828 -22 
Q 2503 -91 2169 -91 
Q 1331 -91 842 396 
Q 353 884 353 1716 
Q 353 2575 817 3079 
Q 1281 3584 2069 3584 
Q 2775 3584 3186 3129 
Q 3597 2675 3597 1894 
z
M 3022 2063 
Q 3016 2534 2758 2815 
Q 2500 3097 2075 3097 
Q 1594 3097 1305 2825 
Q 1016 2553 972 2059 
L 3022 2063 
z
" transform="scale(0.015625)"/>
       <path id="DejaVuSans-72" d="M 2631 2963 
Q 2534 3019 2420 3045 
Q 2306 3072 2169 3072 
Q 1681 3072 1420 2755 
Q 1159 2438 1159 1844 
L 1159 0 
L 581 0 
L 581 3500 
L 1159 3500 
L 1159 2956 
Q 1341 3275 1631 3429 
Q 1922 3584 2338 3584 
Q 2397 3584 2469 3576 
Q 2541 3569 2628 3553 
L 2631 2963 
z
" transform="scale(0.015625)"/>
       <path id="DejaVuSans-61" d="M 2194 1759 
Q 1497 1759 1228 1600 
Q 959 1441 959 1056 
Q 959 750 1161 570 
Q 1363 391 1709 391 
Q 2188 391 2477 730 
Q 2766 1069 2766 1631 
L 2766 1759 
L 2194 1759 
z
M 3341 1997 
L 3341 0 
L 2766 0 
L 2766 531 
Q 2569 213 2275 61 
Q 1981 -91 1556 -91 
Q 1019 -91 701 211 
Q 384 513 384 1019 
Q 384 1609 779 1909 
Q 1175 2209 1959 2209 
L 2766 2209 
L 2766 2266 
Q 2766 2663 2505 2880 
Q 2244 3097 1772 3097 
Q 1472 3097 1187 3025 
Q 903 2953 641 2809 
L 641 3341 
Q 956 3463 1253 3523 
Q 1550 3584 1831 3584 
Q 2591 3584 2966 3190 
Q 3341 2797 3341 1997 
z
" transform="scale(0.015625)"/>
       <path id="DejaVuSans-6f" d="M 1959 3097 
Q 1497 3097 1228 2736 
Q 959 2375 959 1747 
Q 959 1119 1226 758 
Q 1494 397 1959 397 
Q 2419 397 2687 759 
Q 2956 1122 2956 1747 
Q 2956 2369 2687 2733 
Q 2419 3097 1959 3097 
z
M 1959 3584 
Q 2709 3584 3137 3096 
Q 3566 2609 3566 1747 
Q 3566 888 3137 398 
Q 2709 -91 1959 -91 
Q 1206 -91 779 398 
Q 353 888 353 1747 
Q 353 2609 779 3096 
Q 1206 3584 1959 3584 
z
" transform="scale(0.015625)"/>
       <path id="DejaVuSans-6e" d="M 3513 2113 
L 3513 0 
L 2938 0 
L 2938 2094 
Q 2938 2591 2744 2837 
Q 2550 3084 2163 3084 
Q 1697 3084 1428 2787 
Q 1159 2491 1159 1978 
L 1159 0 
L 581 0 
L 581 3500 
L 1159 3500 
L 1159 2956 
Q 1366 3272 1645 3428 
Q 1925 3584 2291 3584 
Q 2894 3584 3203 3211 
Q 3513 2838 3513 2113 
z
" transform="scale(0.015625)"/>
       <path id="DejaVuSans-73" d="M 2834 3397 
L 2834 2853 
Q 2591 2978 2328 3040 
Q 2066 3103 1784 3103 
Q 1356 3103 1142 2972 
Q 928 2841 928 2578 
Q 928 2378 1081 2264 
Q 1234 2150 1697 2047 
L 1894 2003 
Q 2506 1872 2764 1633 
Q 3022 1394 3022 966 
Q 3022 478 2636 193 
Q 2250 -91 1575 -91 
Q 1294 -91 989 -36 
Q 684 19 347 128 
L 347 722 
Q 666 556 975 473 
Q 1284 391 1588 391 
Q 1994 391 2212 530 
Q 2431 669 2431 922 
Q 2431 1156 2273 1281 
Q 2116 1406 1581 1522 
L 1381 1569 
Q 847 1681 609 1914 
Q 372 2147 372 2553 
Q 372 3047 722 3315 
Q 1072 3584 1716 3584 
Q 2034 3584 2315 3537 
Q 2597 3491 2834 3397 
z
" transform="scale(0.015625)"/>
      </defs>
      <use xlink:href="#DejaVuSans-69"/>
      <use xlink:href="#DejaVuSans-74" x="27.783203"/>
      <use xlink:href="#DejaVuSans-65" x="66.992188"/>
      <use xlink:href="#DejaVuSans-72" x="128.515625"/>
      <use xlink:href="#DejaVuSans-61" x="169.628906"/>
      <use xlink:href="#DejaVuSans-74" x="230.908203"/>
      <use xlink:href="#DejaVuSans-69" x="270.117188"/>
      <use xlink:href="#DejaVuSans-6f" x="297.900391"/>
      <use xlink:href="#DejaVuSans-6e" x="359.082031"/>
      <use xlink:href="#DejaVuSans-73" x="422.460938"/>
     </g>
    </g>
   </g>
   <g id="matplotlib.axis_2">
    <g id="ytick_1">
     <g id="line2d_7">
      <defs>
       <path id="mf3c44e55e0" d="M 0 0 
L -3.5 0 
" style="stroke: #000000; stroke-width: 0.8"/>
      </defs>
      <g>
       <use xlink:href="#mf3c44e55e0" x="92.490625" y="287.754235" style="stroke: #000000; stroke-width: 0.8"/>
      </g>
     </g>
     <g id="text_8">
      <!-- −200 -->
      <g transform="translate(30.55625 295.352672) scale(0.2 -0.2)">
       <defs>
        <path id="DejaVuSans-2212" d="M 678 2272 
L 4684 2272 
L 4684 1741 
L 678 1741 
L 678 2272 
z
" transform="scale(0.015625)"/>
       </defs>
       <use xlink:href="#DejaVuSans-2212"/>
       <use xlink:href="#DejaVuSans-32" x="83.789062"/>
       <use xlink:href="#DejaVuSans-30" x="147.412109"/>
       <use xlink:href="#DejaVuSans-30" x="211.035156"/>
      </g>
     </g>
    </g>
    <g id="ytick_2">
     <g id="line2d_8">
      <g>
       <use xlink:href="#mf3c44e55e0" x="92.490625" y="227.578386" style="stroke: #000000; stroke-width: 0.8"/>
      </g>
     </g>
     <g id="text_9">
      <!-- −100 -->
      <g transform="translate(30.55625 235.176823) scale(0.2 -0.2)">
       <use xlink:href="#DejaVuSans-2212"/>
       <use xlink:href="#DejaVuSans-31" x="83.789062"/>
       <use xlink:href="#DejaVuSans-30" x="147.412109"/>
       <use xlink:href="#DejaVuSans-30" x="211.035156"/>
      </g>
     </g>
    </g>
    <g id="ytick_3">
     <g id="line2d_9">
      <g>
       <use xlink:href="#mf3c44e55e0" x="92.490625" y="167.402537" style="stroke: #000000; stroke-width: 0.8"/>
      </g>
     </g>
     <g id="text_10">
      <!-- 0 -->
      <g transform="translate(72.765625 175.000974) scale(0.2 -0.2)">
       <use xlink:href="#DejaVuSans-30"/>
      </g>
     </g>
    </g>
    <g id="ytick_4">
     <g id="line2d_10">
      <g>
       <use xlink:href="#mf3c44e55e0" x="92.490625" y="107.226688" style="stroke: #000000; stroke-width: 0.8"/>
      </g>
     </g>
     <g id="text_11">
      <!-- 100 -->
      <g transform="translate(47.315625 114.825125) scale(0.2 -0.2)">
       <use xlink:href="#DejaVuSans-31"/>
       <use xlink:href="#DejaVuSans-30" x="63.623047"/>
       <use xlink:href="#DejaVuSans-30" x="127.246094"/>
      </g>
     </g>
    </g>
    <g id="ytick_5">
     <g id="line2d_11">
      <g>
       <use xlink:href="#mf3c44e55e0" x="92.490625" y="47.050838" style="stroke: #000000; stroke-width: 0.8"/>
      </g>
     </g>
     <g id="text_12">
      <!-- 200 -->
      <g transform="translate(47.315625 54.649276) scale(0.2 -0.2)">
       <use xlink:href="#DejaVuSans-32"/>
       <use xlink:href="#DejaVuSans-30" x="63.623047"/>
       <use xlink:href="#DejaVuSans-30" x="127.246094"/>
      </g>
     </g>
    </g>
    <g id="text_13">
     <!-- Loss -->
     <g transform="translate(22.396875 191.970625) rotate(-90) scale(0.2 -0.2)">
      <defs>
       <path id="DejaVuSans-4c" d="M 628 4666 
L 1259 4666 
L 1259 531 
L 3531 531 
L 3531 0 
L 628 0 
L 628 4666 
z
" transform="scale(0.015625)"/>
      </defs>
      <use xlink:href="#DejaVuSans-4c"/>
      <use xlink:href="#DejaVuSans-6f" x="53.962891"/>
      <use xlink:href="#DejaVuSans-73" x="115.144531"/>
      <use xlink:href="#DejaVuSans-73" x="167.244141"/>
     </g>
    </g>
   </g>
   <g id="line2d_12">
    <path d="M 117.854261 138.53853 
L 118.776575 97.982964 
L 119.698889 117.083744 
L 120.621204 121.777179 
L 121.543518 104.43596 
L 122.465832 128.019774 
L 123.388146 117.918638 
L 124.31046 99.792773 
L 125.232774 123.303136 
L 126.155088 113.920019 
L 127.077402 107.215809 
L 127.999716 54.185175 
L 128.92203 44.586844 
L 129.844344 50.208405 
L 130.766658 65.431701 
L 131.688972 52.62134 
L 132.611286 44.03625 
L 133.5336 47.425516 
L 134.455914 53.255988 
L 135.378228 62.20203 
L 136.300542 54.058702 
L 137.222856 59.456177 
L 138.14517 109.140656 
L 139.067485 94.805897 
L 139.989799 87.78307 
L 140.912113 75.133855 
L 141.834427 98.959252 
L 142.756741 90.513457 
L 143.679055 91.353551 
L 144.601369 94.307751 
L 145.523683 99.862324 
L 146.445997 94.958193 
L 147.368311 93.356455 
L 149.212939 79.768648 
L 150.135253 81.625829 
L 151.057567 87.639335 
L 151.979881 98.247788 
L 152.902195 97.025522 
L 153.824509 100.470922 
L 154.746823 94.009915 
L 155.669137 108.302296 
L 156.591451 106.746361 
L 157.513765 111.813688 
L 158.43608 111.321942 
L 159.358394 109.609667 
L 160.280708 111.732825 
L 161.203022 115.285706 
L 163.04765 121.128737 
L 163.969964 118.243637 
L 164.892278 122.939672 
L 165.814592 114.006144 
L 166.736906 113.402414 
L 167.65922 118.336942 
L 168.581534 126.247555 
L 169.503848 117.705982 
L 170.426162 118.938384 
L 171.348476 115.501875 
L 172.27079 121.08746 
L 173.193104 119.267918 
L 174.115418 128.786107 
L 175.037732 128.140582 
L 175.960046 126.980209 
L 176.882361 127.736057 
L 177.804675 119.824596 
L 178.726989 123.041682 
L 179.649303 125.22985 
L 180.571617 132.060951 
L 181.493931 127.742292 
L 182.416245 128.726967 
L 183.338559 132.552166 
L 184.260873 126.842327 
L 185.183187 124.849238 
L 186.105501 134.387408 
L 187.027815 128.837998 
L 187.950129 132.134935 
L 188.872443 123.78468 
L 189.794757 132.616752 
L 190.717071 133.362101 
L 191.639385 130.522423 
L 192.561699 132.295449 
L 193.484013 130.881563 
L 194.406327 130.761392 
L 195.328642 136.851809 
L 196.250956 133.13345 
L 197.17327 136.862142 
L 198.095584 132.687554 
L 199.017898 136.323725 
L 199.940212 132.024156 
L 200.862526 135.651823 
L 201.78484 134.503783 
L 202.707154 138.447324 
L 203.629468 140.302657 
L 204.551782 137.326201 
L 205.474096 135.530543 
L 206.39641 133.290565 
L 207.318724 132.866831 
L 208.241038 142.596344 
L 209.163352 144.986145 
L 211.00798 140.610362 
L 211.930294 141.500038 
L 212.852608 143.686115 
L 213.774923 140.210455 
L 214.697237 143.748127 
L 215.619551 145.84987 
L 216.541865 147.376432 
L 217.464179 144.567206 
L 218.386493 148.385484 
L 219.308807 146.372494 
L 220.231121 149.177832 
L 221.153435 150.583748 
L 222.075749 151.428518 
L 222.998063 151.65227 
L 223.920377 153.806823 
L 224.842691 151.359519 
L 225.765005 149.66105 
L 226.687319 150.094058 
L 227.609633 153.424061 
L 228.531947 153.379319 
L 229.454261 152.68978 
L 230.376575 148.221893 
L 231.298889 149.94797 
L 232.221204 150.801801 
L 233.143518 149.496023 
L 234.065832 153.426297 
L 234.988146 148.701191 
L 235.91046 155.673158 
L 236.832774 152.270783 
L 237.755088 152.812434 
L 238.677402 151.283283 
L 239.599716 151.61941 
L 240.52203 149.972005 
L 241.444344 149.445184 
L 242.366658 150.678389 
L 243.288972 153.782528 
L 244.211286 152.701329 
L 245.1336 150.58121 
L 246.055914 153.449759 
L 246.978228 152.054885 
L 249.74517 149.175368 
L 250.667485 152.92116 
L 251.589799 154.821874 
L 252.512113 154.122896 
L 253.434427 154.659618 
L 254.356741 154.935823 
L 255.279055 150.153039 
L 256.201369 153.838236 
L 257.123683 152.87849 
L 258.045997 156.117978 
L 258.968311 154.618691 
L 259.890625 155.286374 
L 260.812939 155.509007 
L 261.735253 155.203361 
L 262.657567 155.733462 
L 263.579881 154.610605 
L 264.502195 156.868743 
L 265.424509 155.78001 
L 266.346823 154.86685 
L 267.269137 155.846898 
L 268.191451 155.5618 
L 269.113765 154.291763 
L 270.03608 156.186717 
L 270.958394 156.244531 
L 271.880708 155.715934 
L 272.803022 155.403453 
L 273.725336 155.782756 
L 274.64765 155.993486 
L 275.569964 155.337442 
L 276.492278 155.619744 
L 277.414592 156.597801 
L 278.336906 157.322453 
L 279.25922 156.929476 
L 280.181534 155.284185 
L 281.103848 157.053882 
L 282.026162 154.679929 
L 282.948476 157.291986 
L 283.87079 156.903158 
L 284.793104 157.112578 
L 285.715418 157.98179 
L 286.637732 158.666323 
L 287.560046 157.140524 
L 288.482361 157.121308 
L 289.404675 158.853463 
L 290.326989 159.363312 
L 291.249303 158.407733 
L 292.171617 158.277547 
L 293.093931 158.768124 
L 294.938559 159.348091 
L 295.860873 158.40205 
L 296.783187 158.776583 
L 297.705501 157.259794 
L 298.627815 157.809901 
L 299.550129 157.905638 
L 300.472443 160.304648 
L 301.394757 159.27558 
L 302.317071 160.198122 
L 303.239385 158.222625 
L 304.161699 158.653634 
L 305.084013 158.487327 
L 306.006327 158.747868 
L 306.928642 158.790748 
L 307.850956 157.779227 
L 308.77327 158.195876 
L 309.695584 158.768348 
L 310.617898 157.9548 
L 311.540212 158.883566 
L 312.462526 159.266435 
L 313.38484 158.167248 
L 314.307154 157.931008 
L 315.229468 157.269122 
L 317.074096 159.245639 
L 318.918724 159.591384 
L 319.841038 158.906913 
L 320.763352 157.982647 
L 321.685666 158.460905 
L 322.60798 158.242813 
L 323.530294 157.491546 
L 324.452608 158.890922 
L 325.374923 159.897972 
L 326.297237 159.522708 
L 327.219551 158.755006 
L 328.141865 160.102913 
L 329.986493 159.911868 
L 330.908807 158.428562 
L 331.831121 158.256503 
L 332.753435 159.280037 
L 335.520377 160.666388 
L 337.365005 158.531589 
L 338.287319 160.376333 
L 339.209633 159.592961 
L 340.131947 159.596836 
L 341.054261 158.212775 
L 341.976575 158.965149 
L 342.898889 160.221803 
L 343.821204 160.554096 
L 344.743518 160.234987 
L 345.665832 159.189843 
L 347.51046 158.4345 
L 348.432774 159.29536 
L 349.355088 159.86907 
L 350.277402 159.834532 
L 351.199716 160.239757 
L 352.12203 160.513438 
L 353.044344 160.132619 
L 353.966658 160.426465 
L 354.888972 160.383222 
L 355.811286 159.592069 
L 356.7336 160.667174 
L 357.655914 159.239572 
L 358.578228 161.504711 
L 359.500542 160.711068 
L 360.422856 160.321193 
L 361.34517 160.334656 
L 362.267485 160.4783 
L 363.189799 160.244258 
L 364.112113 160.241173 
L 365.034427 160.039621 
L 367.801369 158.951886 
L 368.723683 159.1988 
L 369.645997 159.780806 
L 370.568311 159.367018 
L 371.490625 158.507879 
L 372.412939 158.913263 
L 373.335253 158.653872 
L 374.257567 158.552491 
L 375.179881 159.409902 
L 376.102195 159.175904 
L 377.024509 158.624938 
L 377.946823 158.816385 
L 378.869137 158.893202 
L 380.713765 160.264354 
L 381.63608 160.201945 
L 383.480708 158.650772 
L 384.403022 159.288537 
L 385.325336 160.520795 
L 386.24765 160.457279 
L 388.092278 158.257941 
L 389.014592 158.619133 
L 389.936906 159.745309 
L 390.85922 159.48481 
L 391.781534 159.978303 
L 392.703848 159.720556 
L 393.626162 159.612132 
L 394.548476 159.841911 
L 396.393104 160.510643 
L 398.237732 159.110659 
L 399.160046 159.040226 
L 400.082361 158.709458 
L 401.004675 159.419005 
L 401.926989 159.173452 
L 402.849303 159.518919 
L 403.771617 158.566461 
L 405.616245 159.499792 
L 407.460873 158.586841 
L 408.383187 158.811935 
L 409.305501 159.308052 
L 410.227815 158.76162 
L 411.150129 157.928456 
L 412.072443 158.267043 
L 412.994757 158.073122 
L 413.917071 158.023908 
L 416.684013 159.418039 
L 417.606327 159.162644 
L 418.528642 158.305005 
L 419.450956 158.181522 
L 420.37327 158.871983 
L 421.295584 158.207984 
L 422.217898 158.920037 
L 423.140212 158.307508 
L 424.062526 158.614952 
L 424.98484 157.895699 
L 425.907154 158.923532 
L 426.829468 158.600683 
L 427.751782 159.982429 
L 428.674096 158.452746 
L 429.59641 158.364598 
L 430.518724 158.53182 
L 431.441038 158.447831 
L 432.363352 159.631004 
L 433.285666 158.702739 
L 435.130294 158.844423 
L 436.052608 158.261884 
L 437.897237 158.876161 
L 438.819551 158.704879 
L 439.741865 158.966426 
L 440.664179 159.070848 
L 441.586493 159.870111 
L 442.508807 159.975019 
L 443.431121 160.596646 
L 444.353435 159.037911 
L 445.275749 159.577581 
L 446.198063 159.919207 
L 447.120377 159.970316 
L 448.042691 160.525837 
L 448.965005 159.82942 
L 449.887319 160.372563 
L 450.809633 160.469565 
L 451.731947 160.440517 
L 452.654261 160.545118 
L 453.576575 161.243255 
L 455.421204 161.95244 
L 456.343518 161.344446 
L 457.265832 162.230849 
L 458.188146 160.694473 
L 459.11046 161.529689 
L 460.032774 161.958084 
L 460.955088 161.981839 
L 461.877402 161.531251 
L 462.799716 162.091559 
L 463.72203 161.080496 
L 464.644344 161.420721 
L 465.566658 161.219607 
L 467.411286 163.802467 
L 468.3336 163.544163 
L 469.255914 162.374592 
L 470.178228 162.509576 
L 471.100542 163.184545 
L 472.022856 162.450438 
L 474.789799 161.216576 
L 475.712113 161.664394 
L 476.634427 161.362429 
L 477.556741 162.075806 
L 478.479055 161.102878 
L 479.401369 163.051107 
L 480.323683 162.817614 
L 481.245997 162.946267 
L 483.090625 162.763962 
L 484.012939 162.839012 
L 484.935253 162.000619 
L 485.857567 162.598769 
L 486.779881 162.378559 
L 487.702195 163.076137 
L 488.624509 162.571522 
L 489.546823 162.729478 
L 490.469137 162.590982 
L 491.391451 162.127056 
L 492.313765 163.018755 
L 493.23608 161.84957 
L 494.158394 162.625888 
L 495.080708 162.543089 
L 496.003022 163.183865 
L 496.925336 162.865179 
L 499.692278 162.964571 
L 500.614592 163.003534 
L 501.536906 161.98191 
L 502.45922 161.799897 
L 503.381534 163.497794 
L 504.303848 162.761521 
L 505.226162 162.260124 
L 506.148476 161.52673 
L 507.07079 162.915428 
L 507.993104 163.518571 
L 508.915418 163.511122 
L 509.837732 163.779869 
L 511.682361 163.292074 
L 512.604675 163.261754 
L 513.526989 164.209916 
L 516.293931 164.29926 
L 517.216245 163.883719 
L 518.138559 164.214976 
L 519.060873 163.611439 
L 519.983187 163.50855 
L 520.905501 163.619804 
L 521.827815 163.517998 
L 522.750129 163.762633 
L 523.672443 163.682833 
L 524.594757 163.927672 
L 525.517071 162.938326 
L 526.439385 163.558524 
L 527.361699 163.570411 
L 528.284013 162.838417 
L 529.206327 163.419215 
L 530.128642 163.034187 
L 531.050956 163.560597 
L 531.97327 162.974609 
L 532.895584 163.22759 
L 533.817898 163.897061 
L 535.662526 163.200592 
L 536.58484 163.883585 
L 537.507154 164.051239 
L 539.351782 163.416856 
L 540.274096 163.617793 
L 541.19641 163.502438 
L 542.118724 163.762088 
L 543.041038 164.287996 
L 543.963352 163.466284 
L 544.885666 163.625181 
L 545.80798 162.927845 
L 546.730294 162.924646 
L 547.652608 163.154536 
L 548.574923 162.913681 
L 550.419551 163.90003 
L 551.341865 164.07757 
L 552.264179 164.574846 
L 553.186493 164.524283 
L 554.108807 165.478911 
L 555.031121 165.009827 
L 555.953435 165.363989 
L 556.875749 165.356022 
L 557.798063 164.90985 
L 558.720377 165.135213 
L 559.642691 164.92389 
L 560.565005 165.118623 
L 561.487319 165.026908 
L 562.409633 165.352702 
L 563.331947 165.29849 
L 565.176575 163.713846 
L 566.098889 164.55012 
L 567.943518 164.198529 
L 568.865832 164.675546 
L 569.788146 164.071193 
L 570.71046 164.222628 
L 571.632774 164.527797 
L 572.555088 164.517816 
L 574.399716 165.291701 
L 575.32203 165.561032 
L 576.244344 164.811283 
L 577.166658 164.988455 
L 578.088972 164.924284 
L 579.011286 164.615151 
L 579.9336 165.583877 
L 580.855914 165.212143 
L 581.778228 165.333861 
L 582.700542 165.323854 
L 583.622856 165.041086 
L 584.54517 164.978663 
L 586.389799 165.200191 
L 587.312113 166.08 
L 588.234427 165.035632 
L 589.156741 165.603331 
L 590.079055 165.86487 
L 591.001369 165.443294 
L 591.923683 166.256202 
L 592.845997 164.694453 
L 593.768311 164.670977 
L 594.690625 164.525527 
L 595.612939 165.21686 
L 596.535253 164.912678 
L 597.457567 165.326199 
L 598.379881 164.488608 
L 599.302195 164.820524 
L 600.224509 165.524774 
L 601.146823 165.617187 
L 602.069137 165.576942 
L 602.991451 164.87486 
L 603.913765 165.491482 
L 604.83608 165.961546 
L 605.758394 165.367041 
L 606.680708 164.944552 
L 607.603022 165.134178 
L 608.525336 164.885828 
L 609.44765 165.370466 
L 610.369964 164.272193 
L 611.292278 164.729958 
L 612.214592 165.0006 
L 613.136906 164.976294 
L 614.05922 165.602046 
L 614.981534 165.479562 
L 615.903848 165.237788 
L 616.826162 166.108076 
L 617.748476 166.104062 
L 618.67079 165.82227 
L 619.593104 166.256527 
L 620.515418 165.788274 
L 622.360046 165.098018 
L 624.204675 165.534906 
L 625.126989 166.428739 
L 625.126989 166.428739 
" clip-path="url(#p56e6048820)" style="fill: none; stroke: #1f77b4; stroke-width: 1.5; stroke-linecap: square"/>
   </g>
   <g id="line2d_13">
    <path d="M 117.854261 296.03625 
L 119.698889 219.200503 
L 120.621204 230.492934 
L 121.543518 238.645685 
L 122.465832 213.261152 
L 123.388146 212.54875 
L 124.31046 215.076811 
L 125.232774 205.598168 
L 126.155088 212.181319 
L 127.077402 226.669107 
L 127.999716 212.802004 
L 128.92203 196.212776 
L 129.844344 194.413947 
L 130.766658 194.780619 
L 131.688972 201.832737 
L 132.611286 195.235904 
L 133.5336 196.378027 
L 134.455914 194.532246 
L 135.378228 194.186848 
L 136.300542 195.502642 
L 137.222856 184.213625 
L 138.14517 181.165058 
L 139.989799 182.194952 
L 140.912113 186.091654 
L 141.834427 177.656689 
L 142.756741 180.557306 
L 143.679055 182.010728 
L 144.601369 182.333157 
L 145.523683 181.694365 
L 146.445997 181.32096 
L 147.368311 182.390077 
L 148.290625 183.960668 
L 149.212939 184.431872 
L 150.135253 183.194059 
L 151.057567 180.438406 
L 151.979881 181.145129 
L 152.902195 183.060858 
L 153.824509 181.048282 
L 154.746823 180.679822 
L 155.669137 178.011528 
L 157.513765 178.090941 
L 158.43608 178.969227 
L 159.358394 181.172561 
L 160.280708 178.870422 
L 161.203022 177.393865 
L 162.125336 177.781811 
L 163.04765 178.351291 
L 163.969964 176.208669 
L 164.892278 177.343197 
L 165.814592 177.985098 
L 166.736906 180.055569 
L 167.65922 176.730227 
L 168.581534 176.248777 
L 169.503848 179.231779 
L 170.426162 177.708572 
L 171.348476 177.030424 
L 172.27079 176.664959 
L 173.193104 177.691265 
L 174.115418 176.119124 
L 175.037732 176.160455 
L 175.960046 176.32796 
L 176.882361 176.294541 
L 177.804675 177.635459 
L 179.649303 175.798741 
L 180.571617 174.709478 
L 181.493931 176.153952 
L 182.416245 175.127327 
L 183.338559 173.767497 
L 184.260873 175.460951 
L 185.183187 176.586489 
L 186.105501 176.4194 
L 187.027815 177.261133 
L 187.950129 174.063869 
L 188.872443 178.121447 
L 189.794757 174.604464 
L 191.639385 174.564015 
L 192.561699 174.107088 
L 193.484013 175.394572 
L 194.406327 174.377249 
L 195.328642 173.690661 
L 196.250956 174.735638 
L 197.17327 174.466004 
L 198.095584 173.763776 
L 199.017898 174.487707 
L 200.862526 173.128249 
L 201.78484 173.783378 
L 202.707154 172.877454 
L 203.629468 174.449639 
L 204.551782 174.136157 
L 205.474096 174.131147 
L 206.39641 174.543099 
L 207.318724 174.151772 
L 208.241038 171.716959 
L 209.163352 172.428133 
L 211.00798 173.551442 
L 211.930294 171.414805 
L 212.852608 172.531184 
L 214.697237 173.528479 
L 215.619551 174.667006 
L 216.541865 172.879212 
L 217.464179 174.079173 
L 218.386493 174.417489 
L 220.231121 173.861619 
L 221.153435 174.307226 
L 222.075749 172.468632 
L 222.998063 173.093585 
L 224.842691 171.328881 
L 225.765005 172.522737 
L 226.687319 173.248832 
L 227.609633 173.248455 
L 228.531947 172.722076 
L 229.454261 173.191447 
L 230.376575 171.575761 
L 231.298889 171.514487 
L 232.221204 172.497564 
L 233.143518 172.614868 
L 234.065832 172.527716 
L 234.988146 172.901462 
L 235.91046 171.798656 
L 236.832774 172.17445 
L 237.755088 171.36876 
L 238.677402 171.860114 
L 239.599716 172.065286 
L 240.52203 172.853624 
L 241.444344 172.279056 
L 242.366658 172.345809 
L 243.288972 171.40709 
L 245.1336 173.281889 
L 246.055914 171.6027 
L 246.978228 171.572991 
L 247.900542 172.788874 
L 248.822856 173.126234 
L 249.74517 172.833694 
L 250.667485 172.21413 
L 251.589799 173.023502 
L 252.512113 173.20008 
L 253.434427 172.111453 
L 254.356741 172.345466 
L 255.279055 173.241511 
L 256.201369 173.382747 
L 257.123683 171.305869 
L 258.045997 172.329936 
L 258.968311 172.906326 
L 259.890625 172.161376 
L 260.812939 172.618973 
L 261.735253 172.868546 
L 262.657567 172.178703 
L 263.579881 172.386805 
L 264.502195 171.756797 
L 265.424509 172.613199 
L 266.346823 172.735791 
L 267.269137 171.651542 
L 268.191451 171.944659 
L 269.113765 171.896408 
L 270.03608 172.235164 
L 272.803022 172.841949 
L 273.725336 171.593369 
L 274.64765 172.130366 
L 275.569964 172.372364 
L 276.492278 172.074754 
L 277.414592 171.556562 
L 278.336906 172.602379 
L 279.25922 171.34686 
L 280.181534 171.920515 
L 281.103848 171.527562 
L 282.026162 173.732855 
L 282.948476 171.742232 
L 283.87079 172.010685 
L 284.793104 171.679803 
L 285.715418 172.867061 
L 286.637732 172.121979 
L 287.560046 172.252688 
L 288.482361 171.634923 
L 289.404675 171.196761 
L 290.326989 171.68482 
L 291.249303 171.334027 
L 293.093931 171.732382 
L 294.016245 171.046097 
L 294.938559 171.840605 
L 295.860873 171.338442 
L 297.705501 171.274296 
L 298.627815 171.527496 
L 299.550129 171.463002 
L 301.394757 171.714048 
L 302.317071 171.527779 
L 303.239385 171.971782 
L 304.161699 171.808757 
L 305.084013 171.239484 
L 306.006327 171.712659 
L 306.928642 171.35515 
L 307.850956 171.253456 
L 308.77327 170.952888 
L 309.695584 171.26288 
L 310.617898 171.751968 
L 311.540212 171.851963 
L 312.462526 171.325347 
L 313.38484 171.013635 
L 316.151782 171.590286 
L 317.074096 171.297249 
L 317.99641 171.551686 
L 319.841038 170.870277 
L 320.763352 170.951387 
L 321.685666 170.706756 
L 322.60798 172.011226 
L 323.530294 171.562232 
L 324.452608 171.393369 
L 325.374923 170.624929 
L 326.297237 170.80561 
L 327.219551 171.546023 
L 329.986493 170.643849 
L 330.908807 171.28086 
L 331.831121 170.960326 
L 332.753435 170.393007 
L 333.675749 171.235045 
L 335.520377 170.199702 
L 336.442691 170.694318 
L 337.365005 171.399415 
L 338.287319 171.077521 
L 339.209633 171.099076 
L 340.131947 170.871475 
L 341.054261 172.392286 
L 341.976575 172.26415 
L 342.898889 171.124406 
L 345.665832 171.044001 
L 346.588146 171.602959 
L 347.51046 171.166176 
L 349.355088 170.812143 
L 350.277402 171.302051 
L 351.199716 172.056204 
L 352.12203 171.356412 
L 353.044344 172.162386 
L 353.966658 170.870293 
L 354.888972 170.933369 
L 355.811286 171.41883 
L 357.655914 171.6746 
L 358.578228 171.327942 
L 359.500542 171.457798 
L 360.422856 171.376492 
L 364.112113 171.6086 
L 365.034427 172.038357 
L 365.956741 171.485702 
L 366.879055 171.201776 
L 367.801369 172.03931 
L 368.723683 171.951895 
L 369.645997 171.029977 
L 370.568311 171.470733 
L 371.490625 171.33633 
L 372.412939 171.788106 
L 373.335253 171.619493 
L 374.257567 171.687032 
L 375.179881 172.066726 
L 376.102195 171.215829 
L 377.024509 170.9907 
L 378.869137 171.888345 
L 379.791451 171.568269 
L 380.713765 171.90961 
L 381.63608 170.651171 
L 382.558394 171.315803 
L 383.480708 171.7623 
L 384.403022 171.30192 
L 385.325336 170.659659 
L 386.24765 171.288779 
L 387.169964 171.490592 
L 388.092278 172.222745 
L 389.014592 172.55833 
L 389.936906 171.034898 
L 390.85922 171.498769 
L 391.781534 171.647811 
L 393.626162 171.370715 
L 394.548476 170.858276 
L 395.47079 171.104962 
L 396.393104 171.234893 
L 398.237732 171.90754 
L 399.160046 171.958406 
L 400.082361 172.342796 
L 401.004675 171.67289 
L 401.926989 172.154893 
L 402.849303 171.257939 
L 403.771617 171.674141 
L 405.616245 171.049011 
L 406.538559 171.724085 
L 407.460873 172.095347 
L 409.305501 171.377652 
L 410.227815 171.62404 
L 411.150129 171.390359 
L 412.072443 171.60132 
L 412.994757 171.535308 
L 414.839385 171.832293 
L 415.761699 171.367157 
L 416.684013 171.617892 
L 417.606327 171.685619 
L 418.528642 171.618568 
L 420.37327 171.860995 
L 421.295584 172.237446 
L 422.217898 171.005607 
L 423.140212 171.553755 
L 424.062526 171.490333 
L 424.98484 171.592916 
L 426.829468 171.398825 
L 427.751782 171.605477 
L 429.59641 172.38631 
L 430.518724 171.526915 
L 431.441038 171.645364 
L 432.363352 171.371208 
L 433.285666 172.147328 
L 434.20798 171.753966 
L 435.130294 173.179875 
L 436.052608 171.668005 
L 436.974923 171.579546 
L 437.897237 172.096871 
L 438.819551 172.356091 
L 439.741865 172.089167 
L 440.664179 172.553571 
L 441.586493 171.812758 
L 442.508807 171.615187 
L 444.353435 171.69413 
L 445.275749 171.766294 
L 446.198063 172.234649 
L 448.042691 171.674879 
L 448.965005 171.832849 
L 449.887319 172.280615 
L 450.809633 171.622514 
L 451.731947 171.755409 
L 452.654261 172.137954 
L 453.576575 171.268446 
L 454.498889 172.07895 
L 455.421204 171.204316 
L 456.343518 172.061808 
L 457.265832 171.646001 
L 458.188146 171.927455 
L 459.11046 171.965757 
L 460.032774 171.666375 
L 460.955088 171.715999 
L 461.877402 172.314211 
L 462.799716 172.600415 
L 464.644344 172.093801 
L 465.566658 172.294227 
L 466.488972 171.622418 
L 467.411286 171.782635 
L 468.3336 171.826495 
L 469.255914 171.737618 
L 470.178228 171.862572 
L 471.100542 171.810099 
L 472.022856 172.003163 
L 472.94517 171.442342 
L 473.867485 171.871399 
L 474.789799 172.112333 
L 475.712113 171.965151 
L 476.634427 171.593799 
L 477.556741 172.424699 
L 478.479055 172.280127 
L 479.401369 171.782763 
L 481.245997 172.362792 
L 483.090625 172.20061 
L 484.012939 172.371535 
L 484.935253 171.999299 
L 486.779881 171.610287 
L 487.702195 171.773116 
L 488.624509 171.682329 
L 489.546823 171.967082 
L 490.469137 171.559341 
L 491.391451 171.909636 
L 493.23608 172.294224 
L 494.158394 171.932208 
L 495.080708 172.584878 
L 496.003022 172.074051 
L 496.925336 171.992196 
L 497.84765 172.04918 
L 498.769964 172.439833 
L 501.536906 171.978719 
L 502.45922 172.222894 
L 503.381534 171.692602 
L 504.303848 172.103561 
L 506.148476 171.90705 
L 507.07079 172.379678 
L 507.993104 171.602559 
L 508.915418 172.046383 
L 509.837732 171.783138 
L 511.682361 172.085609 
L 512.604675 171.771962 
L 513.526989 172.218407 
L 515.371617 172.278004 
L 516.293931 172.469344 
L 517.216245 172.082219 
L 518.138559 172.14542 
L 519.060873 172.415526 
L 519.983187 172.448525 
L 520.905501 171.769688 
L 521.827815 172.670857 
L 522.750129 172.261742 
L 523.672443 172.179617 
L 524.594757 172.75954 
L 525.517071 172.558029 
L 526.439385 171.989123 
L 528.284013 172.108654 
L 529.206327 171.709229 
L 530.128642 172.924987 
L 531.050956 172.155324 
L 531.97327 172.460446 
L 532.895584 172.32577 
L 533.817898 172.626836 
L 534.740212 171.57441 
L 535.662526 172.098787 
L 536.58484 172.167263 
L 537.507154 171.574182 
L 539.351782 171.795719 
L 541.19641 171.727319 
L 542.118724 171.728792 
L 543.041038 172.057989 
L 543.963352 172.197913 
L 544.885666 171.68826 
L 545.80798 172.546455 
L 546.730294 171.75321 
L 547.652608 171.527242 
L 548.574923 171.579348 
L 549.497237 171.491789 
L 550.419551 171.614068 
L 551.341865 171.273213 
L 552.264179 171.721788 
L 555.031121 171.597293 
L 555.953435 171.221748 
L 556.875749 171.946635 
L 557.798063 171.54936 
L 558.720377 171.918295 
L 559.642691 171.70649 
L 560.565005 171.369587 
L 561.487319 172.016757 
L 563.331947 171.647025 
L 564.254261 171.942592 
L 565.176575 171.796667 
L 566.098889 171.462699 
L 567.021204 171.850835 
L 567.943518 171.619728 
L 568.865832 171.633126 
L 569.788146 171.98708 
L 570.71046 171.713236 
L 571.632774 172.227735 
L 572.555088 171.661024 
L 573.477402 171.646745 
L 575.32203 172.171069 
L 577.166658 171.032468 
L 578.088972 171.890426 
L 579.011286 171.742362 
L 579.9336 171.418415 
L 580.855914 172.147392 
L 581.778228 171.921093 
L 582.700542 171.482523 
L 584.54517 172.073854 
L 585.467485 171.643588 
L 588.234427 171.546255 
L 589.156741 171.764198 
L 591.001369 171.069354 
L 591.923683 171.377002 
L 592.845997 172.050453 
L 593.768311 171.849916 
L 594.690625 171.860143 
L 595.612939 171.732915 
L 596.535253 171.303851 
L 598.379881 171.520633 
L 599.302195 171.730886 
L 600.224509 171.33955 
L 601.146823 171.775897 
L 602.069137 171.614878 
L 602.991451 172.277533 
L 603.913765 171.669711 
L 604.83608 172.172951 
L 605.758394 171.577625 
L 607.603022 171.483749 
L 608.525336 171.242414 
L 609.44765 171.979101 
L 610.369964 171.568908 
L 611.292278 171.468434 
L 612.214592 171.70582 
L 614.05922 171.783909 
L 614.981534 171.418185 
L 617.748476 171.594637 
L 618.67079 171.242859 
L 619.593104 171.826873 
L 620.515418 171.309659 
L 623.282361 171.902367 
L 625.126989 171.752288 
L 625.126989 171.752288 
" clip-path="url(#p56e6048820)" style="fill: none; stroke: #ff7f0e; stroke-width: 1.5; stroke-linecap: square"/>
   </g>
   <g id="patch_3">
    <path d="M 92.490625 308.63625 
L 92.490625 31.43625 
" style="fill: none; stroke: #000000; stroke-width: 0.8; stroke-linejoin: miter; stroke-linecap: square"/>
   </g>
   <g id="patch_4">
    <path d="M 650.490625 308.63625 
L 650.490625 31.43625 
" style="fill: none; stroke: #000000; stroke-width: 0.8; stroke-linejoin: miter; stroke-linecap: square"/>
   </g>
   <g id="patch_5">
    <path d="M 92.490625 308.63625 
L 650.490625 308.63625 
" style="fill: none; stroke: #000000; stroke-width: 0.8; stroke-linejoin: miter; stroke-linecap: square"/>
   </g>
   <g id="patch_6">
    <path d="M 92.490625 31.43625 
L 650.490625 31.43625 
" style="fill: none; stroke: #000000; stroke-width: 0.8; stroke-linejoin: miter; stroke-linecap: square"/>
   </g>
   <g id="text_14">
    <!-- Generator and Discriminator Loss During Training -->
    <g transform="translate(74.258125 25.43625) scale(0.24 -0.24)">
     <defs>
      <path id="DejaVuSans-47" d="M 3809 666 
L 3809 1919 
L 2778 1919 
L 2778 2438 
L 4434 2438 
L 4434 434 
Q 4069 175 3628 42 
Q 3188 -91 2688 -91 
Q 1594 -91 976 548 
Q 359 1188 359 2328 
Q 359 3472 976 4111 
Q 1594 4750 2688 4750 
Q 3144 4750 3555 4637 
Q 3966 4525 4313 4306 
L 4313 3634 
Q 3963 3931 3569 4081 
Q 3175 4231 2741 4231 
Q 1884 4231 1454 3753 
Q 1025 3275 1025 2328 
Q 1025 1384 1454 906 
Q 1884 428 2741 428 
Q 3075 428 3337 486 
Q 3600 544 3809 666 
z
" transform="scale(0.015625)"/>
      <path id="DejaVuSans-20" transform="scale(0.015625)"/>
      <path id="DejaVuSans-64" d="M 2906 2969 
L 2906 4863 
L 3481 4863 
L 3481 0 
L 2906 0 
L 2906 525 
Q 2725 213 2448 61 
Q 2172 -91 1784 -91 
Q 1150 -91 751 415 
Q 353 922 353 1747 
Q 353 2572 751 3078 
Q 1150 3584 1784 3584 
Q 2172 3584 2448 3432 
Q 2725 3281 2906 2969 
z
M 947 1747 
Q 947 1113 1208 752 
Q 1469 391 1925 391 
Q 2381 391 2643 752 
Q 2906 1113 2906 1747 
Q 2906 2381 2643 2742 
Q 2381 3103 1925 3103 
Q 1469 3103 1208 2742 
Q 947 2381 947 1747 
z
" transform="scale(0.015625)"/>
      <path id="DejaVuSans-44" d="M 1259 4147 
L 1259 519 
L 2022 519 
Q 2988 519 3436 956 
Q 3884 1394 3884 2338 
Q 3884 3275 3436 3711 
Q 2988 4147 2022 4147 
L 1259 4147 
z
M 628 4666 
L 1925 4666 
Q 3281 4666 3915 4102 
Q 4550 3538 4550 2338 
Q 4550 1131 3912 565 
Q 3275 0 1925 0 
L 628 0 
L 628 4666 
z
" transform="scale(0.015625)"/>
      <path id="DejaVuSans-63" d="M 3122 3366 
L 3122 2828 
Q 2878 2963 2633 3030 
Q 2388 3097 2138 3097 
Q 1578 3097 1268 2742 
Q 959 2388 959 1747 
Q 959 1106 1268 751 
Q 1578 397 2138 397 
Q 2388 397 2633 464 
Q 2878 531 3122 666 
L 3122 134 
Q 2881 22 2623 -34 
Q 2366 -91 2075 -91 
Q 1284 -91 818 406 
Q 353 903 353 1747 
Q 353 2603 823 3093 
Q 1294 3584 2113 3584 
Q 2378 3584 2631 3529 
Q 2884 3475 3122 3366 
z
" transform="scale(0.015625)"/>
      <path id="DejaVuSans-6d" d="M 3328 2828 
Q 3544 3216 3844 3400 
Q 4144 3584 4550 3584 
Q 5097 3584 5394 3201 
Q 5691 2819 5691 2113 
L 5691 0 
L 5113 0 
L 5113 2094 
Q 5113 2597 4934 2840 
Q 4756 3084 4391 3084 
Q 3944 3084 3684 2787 
Q 3425 2491 3425 1978 
L 3425 0 
L 2847 0 
L 2847 2094 
Q 2847 2600 2669 2842 
Q 2491 3084 2119 3084 
Q 1678 3084 1418 2786 
Q 1159 2488 1159 1978 
L 1159 0 
L 581 0 
L 581 3500 
L 1159 3500 
L 1159 2956 
Q 1356 3278 1631 3431 
Q 1906 3584 2284 3584 
Q 2666 3584 2933 3390 
Q 3200 3197 3328 2828 
z
" transform="scale(0.015625)"/>
      <path id="DejaVuSans-75" d="M 544 1381 
L 544 3500 
L 1119 3500 
L 1119 1403 
Q 1119 906 1312 657 
Q 1506 409 1894 409 
Q 2359 409 2629 706 
Q 2900 1003 2900 1516 
L 2900 3500 
L 3475 3500 
L 3475 0 
L 2900 0 
L 2900 538 
Q 2691 219 2414 64 
Q 2138 -91 1772 -91 
Q 1169 -91 856 284 
Q 544 659 544 1381 
z
M 1991 3584 
L 1991 3584 
z
" transform="scale(0.015625)"/>
      <path id="DejaVuSans-67" d="M 2906 1791 
Q 2906 2416 2648 2759 
Q 2391 3103 1925 3103 
Q 1463 3103 1205 2759 
Q 947 2416 947 1791 
Q 947 1169 1205 825 
Q 1463 481 1925 481 
Q 2391 481 2648 825 
Q 2906 1169 2906 1791 
z
M 3481 434 
Q 3481 -459 3084 -895 
Q 2688 -1331 1869 -1331 
Q 1566 -1331 1297 -1286 
Q 1028 -1241 775 -1147 
L 775 -588 
Q 1028 -725 1275 -790 
Q 1522 -856 1778 -856 
Q 2344 -856 2625 -561 
Q 2906 -266 2906 331 
L 2906 616 
Q 2728 306 2450 153 
Q 2172 0 1784 0 
Q 1141 0 747 490 
Q 353 981 353 1791 
Q 353 2603 747 3093 
Q 1141 3584 1784 3584 
Q 2172 3584 2450 3431 
Q 2728 3278 2906 2969 
L 2906 3500 
L 3481 3500 
L 3481 434 
z
" transform="scale(0.015625)"/>
      <path id="DejaVuSans-54" d="M -19 4666 
L 3928 4666 
L 3928 4134 
L 2272 4134 
L 2272 0 
L 1638 0 
L 1638 4134 
L -19 4134 
L -19 4666 
z
" transform="scale(0.015625)"/>
     </defs>
     <use xlink:href="#DejaVuSans-47"/>
     <use xlink:href="#DejaVuSans-65" x="77.490234"/>
     <use xlink:href="#DejaVuSans-6e" x="139.013672"/>
     <use xlink:href="#DejaVuSans-65" x="202.392578"/>
     <use xlink:href="#DejaVuSans-72" x="263.916016"/>
     <use xlink:href="#DejaVuSans-61" x="305.029297"/>
     <use xlink:href="#DejaVuSans-74" x="366.308594"/>
     <use xlink:href="#DejaVuSans-6f" x="405.517578"/>
     <use xlink:href="#DejaVuSans-72" x="466.699219"/>
     <use xlink:href="#DejaVuSans-20" x="507.8125"/>
     <use xlink:href="#DejaVuSans-61" x="539.599609"/>
     <use xlink:href="#DejaVuSans-6e" x="600.878906"/>
     <use xlink:href="#DejaVuSans-64" x="664.257812"/>
     <use xlink:href="#DejaVuSans-20" x="727.734375"/>
     <use xlink:href="#DejaVuSans-44" x="759.521484"/>
     <use xlink:href="#DejaVuSans-69" x="836.523438"/>
     <use xlink:href="#DejaVuSans-73" x="864.306641"/>
     <use xlink:href="#DejaVuSans-63" x="916.40625"/>
     <use xlink:href="#DejaVuSans-72" x="971.386719"/>
     <use xlink:href="#DejaVuSans-69" x="1012.5"/>
     <use xlink:href="#DejaVuSans-6d" x="1040.283203"/>
     <use xlink:href="#DejaVuSans-69" x="1137.695312"/>
     <use xlink:href="#DejaVuSans-6e" x="1165.478516"/>
     <use xlink:href="#DejaVuSans-61" x="1228.857422"/>
     <use xlink:href="#DejaVuSans-74" x="1290.136719"/>
     <use xlink:href="#DejaVuSans-6f" x="1329.345703"/>
     <use xlink:href="#DejaVuSans-72" x="1390.527344"/>
     <use xlink:href="#DejaVuSans-20" x="1431.640625"/>
     <use xlink:href="#DejaVuSans-4c" x="1463.427734"/>
     <use xlink:href="#DejaVuSans-6f" x="1517.390625"/>
     <use xlink:href="#DejaVuSans-73" x="1578.572266"/>
     <use xlink:href="#DejaVuSans-73" x="1630.671875"/>
     <use xlink:href="#DejaVuSans-20" x="1682.771484"/>
     <use xlink:href="#DejaVuSans-44" x="1714.558594"/>
     <use xlink:href="#DejaVuSans-75" x="1791.560547"/>
     <use xlink:href="#DejaVuSans-72" x="1854.939453"/>
     <use xlink:href="#DejaVuSans-69" x="1896.052734"/>
     <use xlink:href="#DejaVuSans-6e" x="1923.835938"/>
     <use xlink:href="#DejaVuSans-67" x="1987.214844"/>
     <use xlink:href="#DejaVuSans-20" x="2050.691406"/>
     <use xlink:href="#DejaVuSans-54" x="2082.478516"/>
     <use xlink:href="#DejaVuSans-72" x="2128.8125"/>
     <use xlink:href="#DejaVuSans-61" x="2169.925781"/>
     <use xlink:href="#DejaVuSans-69" x="2231.205078"/>
     <use xlink:href="#DejaVuSans-6e" x="2258.988281"/>
     <use xlink:href="#DejaVuSans-69" x="2322.367188"/>
     <use xlink:href="#DejaVuSans-6e" x="2350.150391"/>
     <use xlink:href="#DejaVuSans-67" x="2413.529297"/>
    </g>
   </g>
   <g id="legend_1">
    <g id="patch_7">
     <path d="M 556.99375 106.14875 
L 636.490625 106.14875 
Q 640.490625 106.14875 640.490625 102.14875 
L 640.490625 45.43625 
Q 640.490625 41.43625 636.490625 41.43625 
L 556.99375 41.43625 
Q 552.99375 41.43625 552.99375 45.43625 
L 552.99375 102.14875 
Q 552.99375 106.14875 556.99375 106.14875 
z
" style="fill: #ffffff; opacity: 0.8; stroke: #cccccc; stroke-linejoin: miter"/>
    </g>
    <g id="line2d_14">
     <path d="M 560.99375 57.633125 
L 580.99375 57.633125 
L 600.99375 57.633125 
" style="fill: none; stroke: #1f77b4; stroke-width: 1.5; stroke-linecap: square"/>
    </g>
    <g id="text_15">
     <!-- G -->
     <g transform="translate(616.99375 64.633125) scale(0.2 -0.2)">
      <use xlink:href="#DejaVuSans-47"/>
     </g>
    </g>
    <g id="line2d_15">
     <path d="M 560.99375 86.989375 
L 580.99375 86.989375 
L 600.99375 86.989375 
" style="fill: none; stroke: #ff7f0e; stroke-width: 1.5; stroke-linecap: square"/>
    </g>
    <g id="text_16">
     <!-- D -->
     <g transform="translate(616.99375 93.989375) scale(0.2 -0.2)">
      <use xlink:href="#DejaVuSans-44"/>
     </g>
    </g>
   </g>
  </g>
 </g>
 <defs>
  <clipPath id="p56e6048820">
   <rect x="92.490625" y="31.43625" width="558" height="277.2"/>
  </clipPath>
 </defs>
</svg>
