<?xml version="1.0" encoding="utf-8" standalone="no"?>
<!DOCTYPE svg PUBLIC "-//W3C//DTD SVG 1.1//EN"
  "http://www.w3.org/Graphics/SVG/1.1/DTD/svg11.dtd">
<svg xmlns:xlink="http://www.w3.org/1999/xlink" width="675.923125pt" height="365.54875pt" viewBox="0 0 675.923125 365.54875" xmlns="http://www.w3.org/2000/svg" version="1.1">
 <metadata>
  <rdf:RDF xmlns:dc="http://purl.org/dc/elements/1.1/" xmlns:cc="http://creativecommons.org/ns#" xmlns:rdf="http://www.w3.org/1999/02/22-rdf-syntax-ns#">
   <cc:Work>
    <dc:type rdf:resource="http://purl.org/dc/dcmitype/StillImage"/>
    <dc:date>2024-02-12T19:01:34.901616</dc:date>
    <dc:format>image/svg+xml</dc:format>
    <dc:creator>
     <cc:Agent>
      <dc:title>Matplotlib v3.7.2, https://matplotlib.org/</dc:title>
     </cc:Agent>
    </dc:creator>
   </cc:Work>
  </rdf:RDF>
 </metadata>
 <defs>
  <style type="text/css">*{stroke-linejoin: round; stroke-linecap: butt}</style>
 </defs>
 <g id="figure_1">
  <g id="patch_1">
   <path d="M 0 365.54875 
L 675.923125 365.54875 
L 675.923125 -0 
L 0 -0 
z
" style="fill: #ffffff"/>
  </g>
  <g id="axes_1">
   <g id="patch_2">
    <path d="M 92.490625 308.63625 
L 650.490625 308.63625 
L 650.490625 31.43625 
L 92.490625 31.43625 
z
" style="fill: #ffffff"/>
   </g>
   <g id="matplotlib.axis_1">
    <g id="xtick_1">
     <g id="line2d_1">
      <defs>
       <path id="m5a87fc58af" d="M 0 0 
L 0 3.5 
" style="stroke: #000000; stroke-width: 0.8"/>
      </defs>
      <g>
       <use xlink:href="#m5a87fc58af" x="117.854261" y="308.63625" style="stroke: #000000; stroke-width: 0.8"/>
      </g>
     </g>
     <g id="text_1">
      <!-- 0 -->
      <g transform="translate(111.491761 330.833125) scale(0.2 -0.2)">
       <defs>
        <path id="DejaVuSans-30" d="M 2034 4250 
Q 1547 4250 1301 3770 
Q 1056 3291 1056 2328 
Q 1056 1369 1301 889 
Q 1547 409 2034 409 
Q 2525 409 2770 889 
Q 3016 1369 3016 2328 
Q 3016 3291 2770 3770 
Q 2525 4250 2034 4250 
z
M 2034 4750 
Q 2819 4750 3233 4129 
Q 3647 3509 3647 2328 
Q 3647 1150 3233 529 
Q 2819 -91 2034 -91 
Q 1250 -91 836 529 
Q 422 1150 422 2328 
Q 422 3509 836 4129 
Q 1250 4750 2034 4750 
z
" transform="scale(0.015625)"/>
       </defs>
       <use xlink:href="#DejaVuSans-30"/>
      </g>
     </g>
    </g>
    <g id="xtick_2">
     <g id="line2d_2">
      <g>
       <use xlink:href="#m5a87fc58af" x="188.308807" y="308.63625" style="stroke: #000000; stroke-width: 0.8"/>
      </g>
     </g>
     <g id="text_2">
      <!-- 250 -->
      <g transform="translate(169.221307 330.833125) scale(0.2 -0.2)">
       <defs>
        <path id="DejaVuSans-32" d="M 1228 531 
L 3431 531 
L 3431 0 
L 469 0 
L 469 531 
Q 828 903 1448 1529 
Q 2069 2156 2228 2338 
Q 2531 2678 2651 2914 
Q 2772 3150 2772 3378 
Q 2772 3750 2511 3984 
Q 2250 4219 1831 4219 
Q 1534 4219 1204 4116 
Q 875 4013 500 3803 
L 500 4441 
Q 881 4594 1212 4672 
Q 1544 4750 1819 4750 
Q 2544 4750 2975 4387 
Q 3406 4025 3406 3419 
Q 3406 3131 3298 2873 
Q 3191 2616 2906 2266 
Q 2828 2175 2409 1742 
Q 1991 1309 1228 531 
z
" transform="scale(0.015625)"/>
        <path id="DejaVuSans-35" d="M 691 4666 
L 3169 4666 
L 3169 4134 
L 1269 4134 
L 1269 2991 
Q 1406 3038 1543 3061 
Q 1681 3084 1819 3084 
Q 2600 3084 3056 2656 
Q 3513 2228 3513 1497 
Q 3513 744 3044 326 
Q 2575 -91 1722 -91 
Q 1428 -91 1123 -41 
Q 819 9 494 109 
L 494 744 
Q 775 591 1075 516 
Q 1375 441 1709 441 
Q 2250 441 2565 725 
Q 2881 1009 2881 1497 
Q 2881 1984 2565 2268 
Q 2250 2553 1709 2553 
Q 1456 2553 1204 2497 
Q 953 2441 691 2322 
L 691 4666 
z
" transform="scale(0.015625)"/>
       </defs>
       <use xlink:href="#DejaVuSans-32"/>
       <use xlink:href="#DejaVuSans-35" x="63.623047"/>
       <use xlink:href="#DejaVuSans-30" x="127.246094"/>
      </g>
     </g>
    </g>
    <g id="xtick_3">
     <g id="line2d_3">
      <g>
       <use xlink:href="#m5a87fc58af" x="258.763352" y="308.63625" style="stroke: #000000; stroke-width: 0.8"/>
      </g>
     </g>
     <g id="text_3">
      <!-- 500 -->
      <g transform="translate(239.675852 330.833125) scale(0.2 -0.2)">
       <use xlink:href="#DejaVuSans-35"/>
       <use xlink:href="#DejaVuSans-30" x="63.623047"/>
       <use xlink:href="#DejaVuSans-30" x="127.246094"/>
      </g>
     </g>
    </g>
    <g id="xtick_4">
     <g id="line2d_4">
      <g>
       <use xlink:href="#m5a87fc58af" x="329.217898" y="308.63625" style="stroke: #000000; stroke-width: 0.8"/>
      </g>
     </g>
     <g id="text_4">
      <!-- 750 -->
      <g transform="translate(310.130398 330.833125) scale(0.2 -0.2)">
       <defs>
        <path id="DejaVuSans-37" d="M 525 4666 
L 3525 4666 
L 3525 4397 
L 1831 0 
L 1172 0 
L 2766 4134 
L 525 4134 
L 525 4666 
z
" transform="scale(0.015625)"/>
       </defs>
       <use xlink:href="#DejaVuSans-37"/>
       <use xlink:href="#DejaVuSans-35" x="63.623047"/>
       <use xlink:href="#DejaVuSans-30" x="127.246094"/>
      </g>
     </g>
    </g>
    <g id="xtick_5">
     <g id="line2d_5">
      <g>
       <use xlink:href="#m5a87fc58af" x="399.672443" y="308.63625" style="stroke: #000000; stroke-width: 0.8"/>
      </g>
     </g>
     <g id="text_5">
      <!-- 1000 -->
      <g transform="translate(374.222443 330.833125) scale(0.2 -0.2)">
       <defs>
        <path id="DejaVuSans-31" d="M 794 531 
L 1825 531 
L 1825 4091 
L 703 3866 
L 703 4441 
L 1819 4666 
L 2450 4666 
L 2450 531 
L 3481 531 
L 3481 0 
L 794 0 
L 794 531 
z
" transform="scale(0.015625)"/>
       </defs>
       <use xlink:href="#DejaVuSans-31"/>
       <use xlink:href="#DejaVuSans-30" x="63.623047"/>
       <use xlink:href="#DejaVuSans-30" x="127.246094"/>
       <use xlink:href="#DejaVuSans-30" x="190.869141"/>
      </g>
     </g>
    </g>
    <g id="xtick_6">
     <g id="line2d_6">
      <g>
       <use xlink:href="#m5a87fc58af" x="470.126989" y="308.63625" style="stroke: #000000; stroke-width: 0.8"/>
      </g>
     </g>
     <g id="text_6">
      <!-- 1250 -->
      <g transform="translate(444.676989 330.833125) scale(0.2 -0.2)">
       <use xlink:href="#DejaVuSans-31"/>
       <use xlink:href="#DejaVuSans-32" x="63.623047"/>
       <use xlink:href="#DejaVuSans-35" x="127.246094"/>
       <use xlink:href="#DejaVuSans-30" x="190.869141"/>
      </g>
     </g>
    </g>
    <g id="xtick_7">
     <g id="line2d_7">
      <g>
       <use xlink:href="#m5a87fc58af" x="540.581534" y="308.63625" style="stroke: #000000; stroke-width: 0.8"/>
      </g>
     </g>
     <g id="text_7">
      <!-- 1500 -->
      <g transform="translate(515.131534 330.833125) scale(0.2 -0.2)">
       <use xlink:href="#DejaVuSans-31"/>
       <use xlink:href="#DejaVuSans-35" x="63.623047"/>
       <use xlink:href="#DejaVuSans-30" x="127.246094"/>
       <use xlink:href="#DejaVuSans-30" x="190.869141"/>
      </g>
     </g>
    </g>
    <g id="xtick_8">
     <g id="line2d_8">
      <g>
       <use xlink:href="#m5a87fc58af" x="611.03608" y="308.63625" style="stroke: #000000; stroke-width: 0.8"/>
      </g>
     </g>
     <g id="text_8">
      <!-- 1750 -->
      <g transform="translate(585.58608 330.833125) scale(0.2 -0.2)">
       <use xlink:href="#DejaVuSans-31"/>
       <use xlink:href="#DejaVuSans-37" x="63.623047"/>
       <use xlink:href="#DejaVuSans-35" x="127.246094"/>
       <use xlink:href="#DejaVuSans-30" x="190.869141"/>
      </g>
     </g>
    </g>
    <g id="text_9">
     <!-- iterations -->
     <g transform="translate(324.035938 354.189375) scale(0.2 -0.2)">
      <defs>
       <path id="DejaVuSans-69" d="M 603 3500 
L 1178 3500 
L 1178 0 
L 603 0 
L 603 3500 
z
M 603 4863 
L 1178 4863 
L 1178 4134 
L 603 4134 
L 603 4863 
z
" transform="scale(0.015625)"/>
       <path id="DejaVuSans-74" d="M 1172 4494 
L 1172 3500 
L 2356 3500 
L 2356 3053 
L 1172 3053 
L 1172 1153 
Q 1172 725 1289 603 
Q 1406 481 1766 481 
L 2356 481 
L 2356 0 
L 1766 0 
Q 1100 0 847 248 
Q 594 497 594 1153 
L 594 3053 
L 172 3053 
L 172 3500 
L 594 3500 
L 594 4494 
L 1172 4494 
z
" transform="scale(0.015625)"/>
       <path id="DejaVuSans-65" d="M 3597 1894 
L 3597 1613 
L 953 1613 
Q 991 1019 1311 708 
Q 1631 397 2203 397 
Q 2534 397 2845 478 
Q 3156 559 3463 722 
L 3463 178 
Q 3153 47 2828 -22 
Q 2503 -91 2169 -91 
Q 1331 -91 842 396 
Q 353 884 353 1716 
Q 353 2575 817 3079 
Q 1281 3584 2069 3584 
Q 2775 3584 3186 3129 
Q 3597 2675 3597 1894 
z
M 3022 2063 
Q 3016 2534 2758 2815 
Q 2500 3097 2075 3097 
Q 1594 3097 1305 2825 
Q 1016 2553 972 2059 
L 3022 2063 
z
" transform="scale(0.015625)"/>
       <path id="DejaVuSans-72" d="M 2631 2963 
Q 2534 3019 2420 3045 
Q 2306 3072 2169 3072 
Q 1681 3072 1420 2755 
Q 1159 2438 1159 1844 
L 1159 0 
L 581 0 
L 581 3500 
L 1159 3500 
L 1159 2956 
Q 1341 3275 1631 3429 
Q 1922 3584 2338 3584 
Q 2397 3584 2469 3576 
Q 2541 3569 2628 3553 
L 2631 2963 
z
" transform="scale(0.015625)"/>
       <path id="DejaVuSans-61" d="M 2194 1759 
Q 1497 1759 1228 1600 
Q 959 1441 959 1056 
Q 959 750 1161 570 
Q 1363 391 1709 391 
Q 2188 391 2477 730 
Q 2766 1069 2766 1631 
L 2766 1759 
L 2194 1759 
z
M 3341 1997 
L 3341 0 
L 2766 0 
L 2766 531 
Q 2569 213 2275 61 
Q 1981 -91 1556 -91 
Q 1019 -91 701 211 
Q 384 513 384 1019 
Q 384 1609 779 1909 
Q 1175 2209 1959 2209 
L 2766 2209 
L 2766 2266 
Q 2766 2663 2505 2880 
Q 2244 3097 1772 3097 
Q 1472 3097 1187 3025 
Q 903 2953 641 2809 
L 641 3341 
Q 956 3463 1253 3523 
Q 1550 3584 1831 3584 
Q 2591 3584 2966 3190 
Q 3341 2797 3341 1997 
z
" transform="scale(0.015625)"/>
       <path id="DejaVuSans-6f" d="M 1959 3097 
Q 1497 3097 1228 2736 
Q 959 2375 959 1747 
Q 959 1119 1226 758 
Q 1494 397 1959 397 
Q 2419 397 2687 759 
Q 2956 1122 2956 1747 
Q 2956 2369 2687 2733 
Q 2419 3097 1959 3097 
z
M 1959 3584 
Q 2709 3584 3137 3096 
Q 3566 2609 3566 1747 
Q 3566 888 3137 398 
Q 2709 -91 1959 -91 
Q 1206 -91 779 398 
Q 353 888 353 1747 
Q 353 2609 779 3096 
Q 1206 3584 1959 3584 
z
" transform="scale(0.015625)"/>
       <path id="DejaVuSans-6e" d="M 3513 2113 
L 3513 0 
L 2938 0 
L 2938 2094 
Q 2938 2591 2744 2837 
Q 2550 3084 2163 3084 
Q 1697 3084 1428 2787 
Q 1159 2491 1159 1978 
L 1159 0 
L 581 0 
L 581 3500 
L 1159 3500 
L 1159 2956 
Q 1366 3272 1645 3428 
Q 1925 3584 2291 3584 
Q 2894 3584 3203 3211 
Q 3513 2838 3513 2113 
z
" transform="scale(0.015625)"/>
       <path id="DejaVuSans-73" d="M 2834 3397 
L 2834 2853 
Q 2591 2978 2328 3040 
Q 2066 3103 1784 3103 
Q 1356 3103 1142 2972 
Q 928 2841 928 2578 
Q 928 2378 1081 2264 
Q 1234 2150 1697 2047 
L 1894 2003 
Q 2506 1872 2764 1633 
Q 3022 1394 3022 966 
Q 3022 478 2636 193 
Q 2250 -91 1575 -91 
Q 1294 -91 989 -36 
Q 684 19 347 128 
L 347 722 
Q 666 556 975 473 
Q 1284 391 1588 391 
Q 1994 391 2212 530 
Q 2431 669 2431 922 
Q 2431 1156 2273 1281 
Q 2116 1406 1581 1522 
L 1381 1569 
Q 847 1681 609 1914 
Q 372 2147 372 2553 
Q 372 3047 722 3315 
Q 1072 3584 1716 3584 
Q 2034 3584 2315 3537 
Q 2597 3491 2834 3397 
z
" transform="scale(0.015625)"/>
      </defs>
      <use xlink:href="#DejaVuSans-69"/>
      <use xlink:href="#DejaVuSans-74" x="27.783203"/>
      <use xlink:href="#DejaVuSans-65" x="66.992188"/>
      <use xlink:href="#DejaVuSans-72" x="128.515625"/>
      <use xlink:href="#DejaVuSans-61" x="169.628906"/>
      <use xlink:href="#DejaVuSans-74" x="230.908203"/>
      <use xlink:href="#DejaVuSans-69" x="270.117188"/>
      <use xlink:href="#DejaVuSans-6f" x="297.900391"/>
      <use xlink:href="#DejaVuSans-6e" x="359.082031"/>
      <use xlink:href="#DejaVuSans-73" x="422.460938"/>
     </g>
    </g>
   </g>
   <g id="matplotlib.axis_2">
    <g id="ytick_1">
     <g id="line2d_9">
      <defs>
       <path id="m6e56bc262e" d="M 0 0 
L -3.5 0 
" style="stroke: #000000; stroke-width: 0.8"/>
      </defs>
      <g>
       <use xlink:href="#m6e56bc262e" x="92.490625" y="287.754235" style="stroke: #000000; stroke-width: 0.8"/>
      </g>
     </g>
     <g id="text_10">
      <!-- −200 -->
      <g transform="translate(30.55625 295.352672) scale(0.2 -0.2)">
       <defs>
        <path id="DejaVuSans-2212" d="M 678 2272 
L 4684 2272 
L 4684 1741 
L 678 1741 
L 678 2272 
z
" transform="scale(0.015625)"/>
       </defs>
       <use xlink:href="#DejaVuSans-2212"/>
       <use xlink:href="#DejaVuSans-32" x="83.789062"/>
       <use xlink:href="#DejaVuSans-30" x="147.412109"/>
       <use xlink:href="#DejaVuSans-30" x="211.035156"/>
      </g>
     </g>
    </g>
    <g id="ytick_2">
     <g id="line2d_10">
      <g>
       <use xlink:href="#m6e56bc262e" x="92.490625" y="227.578386" style="stroke: #000000; stroke-width: 0.8"/>
      </g>
     </g>
     <g id="text_11">
      <!-- −100 -->
      <g transform="translate(30.55625 235.176823) scale(0.2 -0.2)">
       <use xlink:href="#DejaVuSans-2212"/>
       <use xlink:href="#DejaVuSans-31" x="83.789062"/>
       <use xlink:href="#DejaVuSans-30" x="147.412109"/>
       <use xlink:href="#DejaVuSans-30" x="211.035156"/>
      </g>
     </g>
    </g>
    <g id="ytick_3">
     <g id="line2d_11">
      <g>
       <use xlink:href="#m6e56bc262e" x="92.490625" y="167.402537" style="stroke: #000000; stroke-width: 0.8"/>
      </g>
     </g>
     <g id="text_12">
      <!-- 0 -->
      <g transform="translate(72.765625 175.000974) scale(0.2 -0.2)">
       <use xlink:href="#DejaVuSans-30"/>
      </g>
     </g>
    </g>
    <g id="ytick_4">
     <g id="line2d_12">
      <g>
       <use xlink:href="#m6e56bc262e" x="92.490625" y="107.226688" style="stroke: #000000; stroke-width: 0.8"/>
      </g>
     </g>
     <g id="text_13">
      <!-- 100 -->
      <g transform="translate(47.315625 114.825125) scale(0.2 -0.2)">
       <use xlink:href="#DejaVuSans-31"/>
       <use xlink:href="#DejaVuSans-30" x="63.623047"/>
       <use xlink:href="#DejaVuSans-30" x="127.246094"/>
      </g>
     </g>
    </g>
    <g id="ytick_5">
     <g id="line2d_13">
      <g>
       <use xlink:href="#m6e56bc262e" x="92.490625" y="47.050838" style="stroke: #000000; stroke-width: 0.8"/>
      </g>
     </g>
     <g id="text_14">
      <!-- 200 -->
      <g transform="translate(47.315625 54.649276) scale(0.2 -0.2)">
       <use xlink:href="#DejaVuSans-32"/>
       <use xlink:href="#DejaVuSans-30" x="63.623047"/>
       <use xlink:href="#DejaVuSans-30" x="127.246094"/>
      </g>
     </g>
    </g>
    <g id="text_15">
     <!-- Loss -->
     <g transform="translate(22.396875 191.970625) rotate(-90) scale(0.2 -0.2)">
      <defs>
       <path id="DejaVuSans-4c" d="M 628 4666 
L 1259 4666 
L 1259 531 
L 3531 531 
L 3531 0 
L 628 0 
L 628 4666 
z
" transform="scale(0.015625)"/>
      </defs>
      <use xlink:href="#DejaVuSans-4c"/>
      <use xlink:href="#DejaVuSans-6f" x="53.962891"/>
      <use xlink:href="#DejaVuSans-73" x="115.144531"/>
      <use xlink:href="#DejaVuSans-73" x="167.244141"/>
     </g>
    </g>
   </g>
   <g id="line2d_14">
    <path d="M 117.854261 138.53853 
L 118.13608 97.982964 
L 118.417898 117.083744 
L 118.699716 121.777179 
L 118.981534 104.43596 
L 119.263352 128.019774 
L 119.54517 117.918638 
L 119.826989 99.792773 
L 120.108807 123.303136 
L 120.672443 107.215809 
L 120.954261 54.185175 
L 121.23608 44.586844 
L 121.517898 50.208405 
L 121.799716 65.431701 
L 122.363352 44.03625 
L 122.64517 47.425516 
L 122.926989 53.255988 
L 123.208807 62.20203 
L 123.490625 54.058702 
L 123.772443 59.456177 
L 124.054261 109.140656 
L 124.33608 94.805897 
L 124.617898 87.78307 
L 124.899716 75.133855 
L 125.181534 98.959252 
L 125.463352 90.513457 
L 125.74517 91.353551 
L 126.026989 94.307751 
L 126.308807 99.862324 
L 126.590625 94.958193 
L 126.872443 93.356455 
L 127.43608 79.768648 
L 127.717898 81.625829 
L 127.999716 87.639335 
L 128.281534 98.247788 
L 128.563352 97.025522 
L 128.84517 100.470922 
L 129.126989 94.009915 
L 129.408807 108.302296 
L 129.690625 106.746361 
L 129.972443 111.813688 
L 130.254261 111.321942 
L 130.53608 109.609667 
L 130.817898 111.732825 
L 131.663352 121.128737 
L 131.94517 118.243637 
L 132.226989 122.939672 
L 132.508807 114.006144 
L 132.790625 113.402414 
L 133.072443 118.336942 
L 133.354261 126.247555 
L 133.63608 117.705982 
L 133.917898 118.938384 
L 134.199716 115.501875 
L 134.481534 121.08746 
L 134.763352 119.267918 
L 135.04517 128.786107 
L 135.326989 128.140582 
L 135.608807 126.980209 
L 135.890625 127.736057 
L 136.172443 119.824596 
L 136.73608 125.22985 
L 137.017898 132.060951 
L 137.299716 127.742292 
L 137.581534 128.726967 
L 137.863352 132.552166 
L 138.14517 126.842327 
L 138.426989 124.849238 
L 138.708807 134.387408 
L 138.990625 128.837998 
L 139.272443 132.134935 
L 139.554261 123.78468 
L 139.83608 132.616752 
L 140.117898 133.362101 
L 140.399716 130.522423 
L 140.681534 132.295449 
L 140.963352 130.881563 
L 141.24517 130.761392 
L 141.526989 136.851809 
L 141.808807 133.13345 
L 142.090625 136.862142 
L 142.372443 132.687554 
L 142.654261 136.323725 
L 142.93608 132.024156 
L 143.217898 135.651823 
L 143.499716 134.503783 
L 143.781534 138.447324 
L 144.063352 140.302657 
L 144.34517 137.326201 
L 144.908807 133.290565 
L 145.190625 132.866831 
L 145.472443 142.596344 
L 145.754261 144.986145 
L 146.317898 140.610362 
L 146.599716 141.500038 
L 146.881534 143.686115 
L 147.163352 140.210455 
L 147.44517 143.748127 
L 148.008807 147.376432 
L 148.290625 144.567206 
L 148.572443 148.385484 
L 148.854261 146.372494 
L 149.13608 149.177832 
L 149.699716 151.428518 
L 149.981534 151.65227 
L 150.263352 153.806823 
L 150.826989 149.66105 
L 151.108807 150.094058 
L 151.390625 153.424061 
L 151.672443 153.379319 
L 151.954261 152.68978 
L 152.23608 148.221893 
L 152.517898 149.94797 
L 152.799716 150.801801 
L 153.081534 149.496023 
L 153.363352 153.426297 
L 153.64517 148.701191 
L 153.926989 155.673158 
L 154.208807 152.270783 
L 154.490625 152.812434 
L 154.772443 151.283283 
L 155.054261 151.61941 
L 155.33608 149.972005 
L 155.617898 149.445184 
L 155.899716 150.678389 
L 156.181534 153.782528 
L 156.463352 152.701329 
L 156.74517 150.58121 
L 157.026989 153.449759 
L 157.590625 151.134056 
L 158.154261 149.175368 
L 158.43608 152.92116 
L 158.717898 154.821874 
L 158.999716 154.122896 
L 159.281534 154.659618 
L 159.563352 154.935823 
L 159.84517 150.153039 
L 160.126989 153.838236 
L 160.408807 152.87849 
L 160.690625 156.117978 
L 160.972443 154.618691 
L 161.254261 155.286374 
L 161.53608 155.509007 
L 161.817898 155.203361 
L 162.099716 155.733462 
L 162.381534 154.610605 
L 162.663352 156.868743 
L 163.226989 154.86685 
L 163.508807 155.846898 
L 163.790625 155.5618 
L 164.072443 154.291763 
L 164.354261 156.186717 
L 164.63608 156.244531 
L 165.199716 155.403453 
L 165.763352 155.993486 
L 166.04517 155.337442 
L 166.326989 155.619744 
L 166.890625 157.322453 
L 167.172443 156.929476 
L 167.454261 155.284185 
L 167.73608 157.053882 
L 168.017898 154.679929 
L 168.299716 157.291986 
L 168.581534 156.903158 
L 168.863352 157.112578 
L 169.426989 158.666323 
L 169.708807 157.140524 
L 169.990625 157.121308 
L 170.272443 158.853463 
L 170.554261 159.363312 
L 170.83608 158.407733 
L 171.117898 158.277547 
L 171.681534 159.045141 
L 171.963352 159.348091 
L 172.24517 158.40205 
L 172.526989 158.776583 
L 172.808807 157.259794 
L 173.090625 157.809901 
L 173.372443 157.905638 
L 173.654261 160.304648 
L 173.93608 159.27558 
L 174.217898 160.198122 
L 174.499716 158.222625 
L 174.781534 158.653634 
L 175.063352 158.487327 
L 175.34517 158.747868 
L 175.626989 158.790748 
L 175.908807 157.779227 
L 176.472443 158.768348 
L 176.754261 157.9548 
L 177.03608 158.883566 
L 177.317898 159.266435 
L 177.599716 158.167248 
L 177.881534 157.931008 
L 178.163352 157.269122 
L 178.726989 159.245639 
L 179.290625 159.591384 
L 179.854261 157.982647 
L 180.13608 158.460905 
L 180.417898 158.242813 
L 180.699716 157.491546 
L 181.263352 159.897972 
L 181.54517 159.522708 
L 181.826989 158.755006 
L 182.108807 160.102913 
L 182.672443 159.911868 
L 182.954261 158.428562 
L 183.23608 158.256503 
L 183.517898 159.280037 
L 184.363352 160.666388 
L 184.926989 158.531589 
L 185.208807 160.376333 
L 185.490625 159.592961 
L 185.772443 159.596836 
L 186.054261 158.212775 
L 186.33608 158.965149 
L 186.617898 160.221803 
L 186.899716 160.554096 
L 187.181534 160.234987 
L 187.463352 159.189843 
L 188.026989 158.4345 
L 188.590625 159.86907 
L 188.872443 159.834532 
L 189.43608 160.513438 
L 189.717898 160.132619 
L 189.999716 160.426465 
L 190.281534 160.383222 
L 190.563352 159.592069 
L 190.84517 160.667174 
L 191.126989 159.239572 
L 191.408807 161.504711 
L 191.690625 160.711068 
L 191.972443 160.321193 
L 192.254261 160.334656 
L 192.53608 160.4783 
L 192.817898 160.244258 
L 193.099716 160.241173 
L 193.381534 160.039621 
L 194.226989 158.951886 
L 194.508807 159.1988 
L 194.790625 159.780806 
L 195.072443 159.367018 
L 195.354261 158.507879 
L 195.63608 158.913263 
L 195.917898 158.653872 
L 196.199716 158.552491 
L 196.481534 159.409902 
L 196.763352 159.175904 
L 197.04517 158.624938 
L 197.608807 158.893202 
L 198.172443 160.264354 
L 198.454261 160.201945 
L 199.017898 158.650772 
L 199.299716 159.288537 
L 199.581534 160.520795 
L 199.863352 160.457279 
L 200.426989 158.257941 
L 200.708807 158.619133 
L 200.990625 159.745309 
L 201.272443 159.48481 
L 201.554261 159.978303 
L 202.117898 159.612132 
L 202.399716 159.841911 
L 202.963352 160.510643 
L 203.526989 159.110659 
L 203.808807 159.040226 
L 204.090625 158.709458 
L 204.372443 159.419005 
L 204.654261 159.173452 
L 204.93608 159.518919 
L 205.217898 158.566461 
L 205.781534 159.499792 
L 206.34517 158.586841 
L 206.626989 158.811935 
L 206.908807 159.308052 
L 207.190625 158.76162 
L 207.472443 157.928456 
L 207.754261 158.267043 
L 208.03608 158.073122 
L 208.317898 158.023908 
L 209.163352 159.418039 
L 209.44517 159.162644 
L 209.726989 158.305005 
L 210.008807 158.181522 
L 210.290625 158.871983 
L 210.572443 158.207984 
L 210.854261 158.920037 
L 211.13608 158.307508 
L 211.417898 158.614952 
L 211.699716 157.895699 
L 211.981534 158.923532 
L 212.263352 158.600683 
L 212.54517 159.982429 
L 212.826989 158.452746 
L 213.108807 158.364598 
L 213.390625 158.53182 
L 213.672443 158.447831 
L 213.954261 159.631004 
L 214.23608 158.702739 
L 214.799716 158.844423 
L 215.081534 158.261884 
L 215.64517 158.876161 
L 215.926989 158.704879 
L 216.208807 158.966426 
L 216.490625 159.070848 
L 216.772443 159.870111 
L 217.054261 159.975019 
L 217.33608 160.596646 
L 217.617898 159.037911 
L 218.181534 159.919207 
L 218.463352 159.970316 
L 218.74517 160.525837 
L 219.026989 159.82942 
L 219.308807 160.372563 
L 219.590625 160.469565 
L 219.872443 160.440517 
L 220.154261 160.545118 
L 220.43608 161.243255 
L 220.999716 161.95244 
L 221.281534 161.344446 
L 221.563352 162.230849 
L 221.84517 160.694473 
L 222.126989 161.529689 
L 222.408807 161.958084 
L 222.690625 161.981839 
L 222.972443 161.531251 
L 223.254261 162.091559 
L 223.53608 161.080496 
L 223.817898 161.420721 
L 224.099716 161.219607 
L 224.663352 163.802467 
L 224.94517 163.544163 
L 225.226989 162.374592 
L 225.508807 162.509576 
L 225.790625 163.184545 
L 226.072443 162.450438 
L 226.917898 161.216576 
L 227.199716 161.664394 
L 227.481534 161.362429 
L 227.763352 162.075806 
L 228.04517 161.102878 
L 228.326989 163.051107 
L 228.608807 162.817614 
L 228.890625 162.946267 
L 229.454261 162.763962 
L 229.73608 162.839012 
L 230.017898 162.000619 
L 230.299716 162.598769 
L 230.581534 162.378559 
L 230.863352 163.076137 
L 231.14517 162.571522 
L 231.426989 162.729478 
L 231.708807 162.590982 
L 231.990625 162.127056 
L 232.272443 163.018755 
L 232.554261 161.84957 
L 232.83608 162.625888 
L 233.117898 162.543089 
L 233.399716 163.183865 
L 233.681534 162.865179 
L 234.526989 162.964571 
L 234.808807 163.003534 
L 235.090625 161.98191 
L 235.372443 161.799897 
L 235.654261 163.497794 
L 236.499716 161.52673 
L 236.781534 162.915428 
L 237.063352 163.518571 
L 237.34517 163.511122 
L 237.626989 163.779869 
L 238.190625 163.292074 
L 238.472443 163.261754 
L 238.754261 164.209916 
L 239.599716 164.29926 
L 239.881534 163.883719 
L 240.163352 164.214976 
L 240.44517 163.611439 
L 240.726989 163.50855 
L 241.008807 163.619804 
L 241.290625 163.517998 
L 241.572443 163.762633 
L 241.854261 163.682833 
L 242.13608 163.927672 
L 242.417898 162.938326 
L 242.699716 163.558524 
L 242.981534 163.570411 
L 243.263352 162.838417 
L 243.54517 163.419215 
L 243.826989 163.034187 
L 244.108807 163.560597 
L 244.390625 162.974609 
L 244.672443 163.22759 
L 244.954261 163.897061 
L 245.517898 163.200592 
L 245.799716 163.883585 
L 246.081534 164.051239 
L 246.64517 163.416856 
L 246.926989 163.617793 
L 247.208807 163.502438 
L 247.490625 163.762088 
L 247.772443 164.287996 
L 248.054261 163.466284 
L 248.33608 163.625181 
L 248.617898 162.927845 
L 248.899716 162.924646 
L 249.181534 163.154536 
L 249.463352 162.913681 
L 250.026989 163.90003 
L 250.308807 164.07757 
L 250.590625 164.574846 
L 250.872443 164.524283 
L 251.154261 165.478911 
L 251.43608 165.009827 
L 251.717898 165.363989 
L 251.999716 165.356022 
L 252.281534 164.90985 
L 252.563352 165.135213 
L 252.84517 164.92389 
L 253.126989 165.118623 
L 253.408807 165.026908 
L 253.690625 165.352702 
L 253.972443 165.29849 
L 254.53608 163.713846 
L 254.817898 164.55012 
L 255.381534 164.198529 
L 255.663352 164.675546 
L 255.94517 164.071193 
L 256.226989 164.222628 
L 256.508807 164.527797 
L 256.790625 164.517816 
L 257.354261 165.291701 
L 257.63608 165.561032 
L 257.917898 164.811283 
L 258.199716 164.988455 
L 258.481534 164.924284 
L 258.763352 164.615151 
L 259.04517 165.583877 
L 259.326989 165.212143 
L 259.608807 165.333861 
L 259.890625 165.323854 
L 260.172443 165.041086 
L 260.454261 164.978663 
L 261.017898 165.200191 
L 261.299716 166.08 
L 261.581534 165.035632 
L 261.863352 165.603331 
L 262.14517 165.86487 
L 262.426989 165.443294 
L 262.708807 166.256202 
L 262.990625 164.694453 
L 263.272443 164.670977 
L 263.554261 164.525527 
L 263.83608 165.21686 
L 264.117898 164.912678 
L 264.399716 165.326199 
L 264.681534 164.488608 
L 264.963352 164.820524 
L 265.24517 165.524774 
L 265.526989 165.617187 
L 265.808807 165.576942 
L 266.090625 164.87486 
L 266.654261 165.961546 
L 267.217898 164.944552 
L 267.499716 165.134178 
L 267.781534 164.885828 
L 268.063352 165.370466 
L 268.34517 164.272193 
L 268.908807 165.0006 
L 269.190625 164.976294 
L 269.472443 165.602046 
L 270.03608 165.237788 
L 270.317898 166.108076 
L 270.599716 166.104062 
L 270.881534 165.82227 
L 271.163352 166.256527 
L 271.726989 165.469542 
L 272.008807 165.098018 
L 272.572443 165.534906 
L 272.854261 166.428739 
L 273.417898 165.721829 
L 273.699716 166.143999 
L 273.981534 165.615088 
L 274.263352 166.228039 
L 274.54517 165.061817 
L 274.826989 165.143602 
L 275.108807 165.760576 
L 275.390625 165.561899 
L 275.672443 166.216574 
L 276.23608 165.183599 
L 276.517898 165.018782 
L 276.799716 165.360501 
L 277.363352 165.419201 
L 277.64517 165.360393 
L 277.926989 164.136741 
L 278.208807 165.343897 
L 278.490625 165.572042 
L 278.772443 165.545783 
L 279.33608 164.591578 
L 279.617898 164.512763 
L 279.899716 164.747325 
L 280.181534 165.493837 
L 280.463352 165.139657 
L 280.74517 165.495464 
L 281.026989 164.968325 
L 281.308807 165.539488 
L 281.590625 164.924951 
L 281.872443 165.093261 
L 282.154261 164.996031 
L 282.43608 164.524479 
L 282.717898 164.886919 
L 282.999716 164.47752 
L 283.281534 164.371764 
L 283.563352 163.988204 
L 283.84517 164.644625 
L 284.126989 164.709602 
L 284.408807 164.279329 
L 284.972443 164.712515 
L 285.254261 164.128696 
L 285.53608 164.199866 
L 285.817898 164.096761 
L 286.099716 164.48685 
L 286.381534 164.527779 
L 286.663352 164.707487 
L 287.508807 164.760681 
L 287.790625 164.850835 
L 288.072443 164.799478 
L 288.354261 164.295248 
L 288.63608 164.533537 
L 289.199716 164.375007 
L 289.481534 164.912049 
L 289.763352 164.567608 
L 290.04517 163.712177 
L 290.326989 163.720205 
L 290.608807 164.737969 
L 290.890625 164.51053 
L 291.454261 164.528611 
L 291.73608 164.159422 
L 292.017898 164.156035 
L 292.581534 164.416819 
L 293.14517 164.201238 
L 293.426989 163.689581 
L 293.708807 163.688707 
L 294.272443 164.021742 
L 294.554261 164.40091 
L 295.117898 164.1579 
L 295.399716 164.518102 
L 295.681534 163.675799 
L 295.963352 163.978809 
L 296.24517 164.113678 
L 296.526989 164.586427 
L 296.808807 163.635984 
L 297.090625 164.265889 
L 297.372443 163.462821 
L 297.654261 164.146655 
L 298.217898 164.35971 
L 298.499716 163.949097 
L 298.781534 164.500156 
L 299.063352 164.439221 
L 299.34517 164.258676 
L 299.626989 164.612078 
L 299.908807 164.474929 
L 300.190625 164.662866 
L 300.472443 164.384643 
L 300.754261 165.050381 
L 301.599716 164.638916 
L 301.881534 164.819175 
L 302.163352 164.597301 
L 302.44517 164.516941 
L 302.726989 164.688791 
L 303.008807 165.221928 
L 303.854261 165.57446 
L 304.13608 166.125497 
L 304.417898 166.924859 
L 304.981534 166.874639 
L 305.263352 166.326228 
L 305.54517 166.215998 
L 305.826989 166.537828 
L 306.390625 166.108848 
L 306.672443 166.486851 
L 307.23608 166.322447 
L 307.517898 166.749162 
L 307.799716 166.739898 
L 308.081534 166.314309 
L 308.363352 166.29515 
L 308.64517 166.754573 
L 308.926989 166.073459 
L 309.490625 166.394029 
L 310.054261 166.580613 
L 310.33608 166.655139 
L 311.181534 166.43708 
L 311.74517 166.349224 
L 312.026989 166.578572 
L 312.590625 165.911427 
L 312.872443 166.599712 
L 313.154261 166.763055 
L 313.999716 166.836537 
L 314.281534 166.292862 
L 314.563352 166.114483 
L 314.84517 166.70456 
L 315.126989 166.404543 
L 315.408807 166.949484 
L 315.972443 166.846264 
L 316.254261 167.496116 
L 316.53608 167.106541 
L 316.817898 167.269006 
L 317.099716 166.270429 
L 317.381534 167.076186 
L 317.663352 167.150597 
L 317.94517 166.690862 
L 318.508807 167.016251 
L 318.790625 166.722275 
L 319.072443 167.172367 
L 319.63608 167.300765 
L 320.199716 166.953468 
L 320.481534 166.909695 
L 320.763352 166.667897 
L 321.04517 167.128023 
L 321.326989 167.287949 
L 321.608807 166.953439 
L 321.890625 167.165798 
L 322.172443 167.176958 
L 322.454261 167.776535 
L 322.73608 167.588331 
L 323.581534 168.112648 
L 323.863352 167.814137 
L 324.14517 167.966171 
L 324.426989 167.337813 
L 324.708807 168.231724 
L 325.272443 167.66535 
L 325.554261 167.930938 
L 325.83608 167.764538 
L 326.117898 167.800716 
L 326.399716 167.605195 
L 326.963352 167.877379 
L 327.24517 167.448346 
L 327.808807 167.619896 
L 328.090625 167.277464 
L 328.372443 167.257352 
L 328.654261 167.622062 
L 329.217898 167.811488 
L 329.499716 167.2019 
L 329.781534 167.374296 
L 330.063352 167.108636 
L 330.34517 167.529072 
L 330.626989 167.445918 
L 330.908807 167.588031 
L 331.190625 166.986021 
L 331.472443 167.07021 
L 331.754261 167.01968 
L 332.03608 167.131119 
L 332.317898 166.706204 
L 332.599716 167.273783 
L 332.881534 167.4991 
L 333.163352 167.164137 
L 333.44517 167.278401 
L 333.726989 167.029178 
L 334.008807 166.381069 
L 334.290625 166.598948 
L 334.572443 166.362415 
L 334.854261 166.875708 
L 335.417898 166.486489 
L 335.699716 167.00153 
L 335.981534 166.338952 
L 336.263352 167.288716 
L 336.54517 166.475611 
L 336.826989 166.628849 
L 337.108807 166.578035 
L 337.390625 166.994117 
L 337.672443 166.373868 
L 338.23608 167.125379 
L 338.517898 166.9732 
L 338.799716 166.957091 
L 339.081534 167.064731 
L 339.363352 166.882958 
L 339.64517 166.514705 
L 339.926989 166.783083 
L 340.208807 166.270219 
L 340.490625 166.448122 
L 340.772443 167.096922 
L 341.054261 167.182332 
L 341.33608 167.032398 
L 341.617898 166.457706 
L 341.899716 167.0144 
L 342.463352 167.264616 
L 342.74517 166.954706 
L 343.308807 166.860758 
L 343.590625 167.200607 
L 343.872443 166.850006 
L 344.154261 167.223131 
L 344.43608 167.091588 
L 344.717898 167.73185 
L 344.999716 167.645538 
L 345.281534 167.831437 
L 345.563352 167.616765 
L 345.84517 167.043909 
L 346.126989 167.39589 
L 346.408807 166.841559 
L 346.690625 167.512002 
L 346.972443 167.50357 
L 347.254261 167.978246 
L 347.53608 167.672412 
L 348.099716 168.036219 
L 348.381534 167.420888 
L 348.663352 167.485797 
L 348.94517 168.077085 
L 349.226989 168.264032 
L 349.508807 167.662811 
L 349.790625 167.993159 
L 350.072443 167.701559 
L 350.354261 168.175583 
L 350.63608 168.068052 
L 350.917898 168.168252 
L 351.199716 167.917035 
L 351.481534 168.125004 
L 351.763352 167.61821 
L 352.04517 168.034187 
L 352.326989 168.012515 
L 352.608807 167.751495 
L 352.890625 168.214365 
L 353.454261 167.834211 
L 353.73608 168.107223 
L 354.017898 168.052522 
L 354.299716 168.754493 
L 354.581534 167.919724 
L 354.863352 168.417852 
L 355.14517 167.689991 
L 355.708807 167.980679 
L 355.990625 167.810499 
L 356.272443 167.962371 
L 356.554261 167.649031 
L 356.83608 168.198983 
L 357.117898 168.257292 
L 357.399716 167.565095 
L 357.681534 167.666777 
L 357.963352 168.134757 
L 358.24517 167.766729 
L 358.526989 168.068642 
L 358.808807 168.068813 
L 359.090625 168.376111 
L 359.372443 168.323267 
L 359.654261 168.045614 
L 359.93608 168.013065 
L 360.217898 168.729377 
L 360.499716 168.472048 
L 360.781534 167.71081 
L 361.063352 167.839083 
L 361.626989 168.607979 
L 361.908807 168.046909 
L 363.317898 168.339345 
L 364.163352 167.907877 
L 364.44517 167.996859 
L 365.008807 167.956325 
L 365.290625 168.335002 
L 365.854261 168.000615 
L 366.13608 168.34044 
L 366.417898 167.747281 
L 366.699716 167.712023 
L 366.981534 168.375882 
L 367.54517 167.865294 
L 367.826989 168.38259 
L 368.390625 168.289031 
L 368.672443 167.838615 
L 368.954261 168.052053 
L 369.23608 167.46046 
L 369.517898 167.931055 
L 369.799716 167.679184 
L 370.081534 168.034151 
L 370.363352 167.710281 
L 370.926989 167.77079 
L 371.490625 168.24578 
L 372.054261 168.200039 
L 372.33608 167.829781 
L 372.617898 167.958138 
L 372.899716 168.402189 
L 373.181534 168.554432 
L 373.74517 167.649448 
L 374.590625 167.955298 
L 374.872443 168.353654 
L 375.154261 168.307398 
L 375.717898 167.766889 
L 375.999716 167.657628 
L 376.281534 167.845189 
L 376.563352 167.687432 
L 376.84517 167.823104 
L 377.126989 167.392199 
L 377.408807 167.779666 
L 377.690625 167.685633 
L 377.972443 167.89451 
L 378.254261 167.138594 
L 378.53608 167.323921 
L 378.817898 166.796265 
L 379.099716 167.393376 
L 379.663352 167.520812 
L 379.94517 167.150663 
L 380.226989 167.495462 
L 380.508807 167.134297 
L 380.790625 167.550264 
L 381.072443 167.154746 
L 381.354261 167.587608 
L 381.63608 167.21438 
L 381.917898 167.838486 
L 382.199716 167.489968 
L 382.481534 167.505754 
L 382.763352 166.953646 
L 383.04517 167.728569 
L 383.326989 167.637567 
L 383.608807 167.782465 
L 383.890625 167.465462 
L 384.172443 167.6463 
L 384.454261 167.67675 
L 384.73608 168.102737 
L 385.017898 167.422142 
L 385.581534 168.100589 
L 385.863352 167.246586 
L 386.14517 167.871726 
L 386.426989 167.584116 
L 386.708807 167.867532 
L 386.990625 167.406948 
L 387.272443 167.775551 
L 387.554261 167.612994 
L 388.399716 168.130487 
L 389.24517 167.585704 
L 389.808807 167.628664 
L 390.372443 167.73587 
L 390.654261 167.440339 
L 391.499716 168.532412 
L 392.063352 167.513484 
L 392.34517 167.855203 
L 392.908807 167.451928 
L 393.190625 167.538191 
L 393.472443 168.188903 
L 393.754261 167.451479 
L 394.03608 167.977264 
L 394.317898 168.058694 
L 394.881534 167.690907 
L 395.44517 168.038624 
L 395.726989 168.365727 
L 396.008807 167.587755 
L 396.290625 168.448506 
L 396.854261 167.49746 
L 397.13608 167.476281 
L 397.417898 167.738096 
L 397.699716 167.755714 
L 398.263352 168.102064 
L 398.826989 167.973858 
L 399.108807 167.760494 
L 399.390625 167.084461 
L 399.672443 167.883118 
L 399.954261 167.614984 
L 400.23608 167.639607 
L 400.517898 168.206244 
L 400.799716 167.68942 
L 401.363352 167.964516 
L 401.64517 167.815619 
L 401.926989 168.022647 
L 402.208807 168.002625 
L 402.490625 167.824684 
L 402.772443 167.434671 
L 403.054261 167.986338 
L 403.617898 167.705748 
L 403.899716 167.930693 
L 404.181534 167.799168 
L 404.463352 168.376478 
L 404.74517 168.00842 
L 405.026989 168.025359 
L 405.308807 167.899444 
L 405.590625 167.988372 
L 406.154261 167.573388 
L 406.717898 167.762593 
L 407.281534 167.372034 
L 407.84517 167.598472 
L 408.126989 167.712845 
L 408.408807 167.160308 
L 408.690625 167.39207 
L 408.972443 167.76882 
L 409.254261 167.932979 
L 409.53608 167.720401 
L 409.817898 167.669139 
L 410.099716 167.028703 
L 410.381534 167.332513 
L 410.663352 167.119462 
L 410.94517 167.400241 
L 412.354261 167.670873 
L 412.917898 167.173844 
L 413.481534 167.124134 
L 413.763352 167.176174 
L 414.04517 166.7652 
L 414.326989 167.051205 
L 414.890625 166.885233 
L 415.172443 167.250127 
L 415.73608 166.772559 
L 416.017898 167.775936 
L 416.299716 167.00415 
L 416.581534 167.511128 
L 416.863352 167.550489 
L 417.708807 167.15025 
L 418.272443 167.213006 
L 418.554261 166.992838 
L 418.83608 167.392014 
L 419.117898 167.13368 
L 419.681534 167.218266 
L 419.963352 166.925797 
L 420.24517 167.401719 
L 420.526989 167.093697 
L 420.808807 167.136046 
L 421.090625 167.4986 
L 421.372443 166.855258 
L 421.654261 166.723251 
L 421.93608 167.33815 
L 422.781534 166.874395 
L 423.063352 167.081431 
L 423.626989 167.050043 
L 424.190625 167.536996 
L 424.754261 167.583058 
L 425.03608 168.017203 
L 425.317898 167.974535 
L 426.163352 168.39631 
L 426.44517 168.398294 
L 426.726989 168.231063 
L 427.008807 167.884159 
L 427.290625 168.345749 
L 427.572443 168.264352 
L 427.854261 167.955007 
L 428.417898 168.06413 
L 428.699716 167.618454 
L 428.981534 168.266924 
L 429.263352 167.692045 
L 429.826989 167.618105 
L 430.108807 167.379107 
L 430.954261 168.193493 
L 431.23608 167.844706 
L 431.517898 167.872502 
L 431.799716 168.180034 
L 432.081534 168.264143 
L 432.363352 167.911159 
L 432.64517 168.260087 
L 432.926989 168.390628 
L 433.208807 168.229973 
L 433.490625 168.428713 
L 433.772443 167.990621 
L 434.054261 168.2936 
L 434.33608 168.134135 
L 434.617898 168.748672 
L 435.181534 168.437697 
L 435.463352 168.444157 
L 435.74517 167.793607 
L 436.026989 168.52573 
L 436.308807 168.035701 
L 436.590625 168.096286 
L 436.872443 168.496894 
L 437.154261 168.550487 
L 437.43608 168.32347 
L 437.999716 168.138543 
L 438.281534 167.913322 
L 439.126989 167.987964 
L 439.408807 168.285516 
L 439.690625 168.185153 
L 439.972443 167.832161 
L 440.254261 168.356196 
L 440.817898 167.800512 
L 441.099716 167.760334 
L 441.94517 168.245453 
L 442.226989 167.550487 
L 442.508807 167.50391 
L 443.072443 167.805211 
L 443.354261 168.332021 
L 443.63608 167.887094 
L 444.481534 167.815148 
L 444.763352 168.091441 
L 445.04517 167.768061 
L 445.608807 168.033631 
L 445.890625 167.610236 
L 446.454261 167.594826 
L 446.73608 167.691552 
L 447.017898 167.964029 
L 447.299716 167.81463 
L 447.581534 168.168536 
L 447.863352 168.298507 
L 448.14517 168.03599 
L 448.708807 168.317229 
L 448.990625 168.085764 
L 449.272443 168.001078 
L 449.554261 168.039892 
L 449.83608 167.786561 
L 450.117898 167.942839 
L 450.399716 167.799765 
L 450.681534 168.01421 
L 451.24517 168.000916 
L 451.808807 167.941627 
L 452.090625 168.398032 
L 452.372443 167.796766 
L 452.654261 168.207016 
L 452.93608 168.145924 
L 453.217898 167.551587 
L 453.499716 167.982367 
L 453.781534 167.286404 
L 454.063352 167.480668 
L 454.34517 167.48593 
L 455.190625 168.180176 
L 455.472443 168.230953 
L 455.754261 168.121936 
L 456.03608 168.415509 
L 456.599716 168.471111 
L 456.881534 167.922029 
L 457.163352 168.765175 
L 457.44517 167.812701 
L 457.726989 168.026679 
L 458.008807 167.967479 
L 458.290625 167.363376 
L 458.854261 167.830774 
L 459.13608 167.540591 
L 459.417898 167.503768 
L 459.699716 168.247858 
L 459.981534 168.198391 
L 460.263352 168.270781 
L 460.54517 167.668448 
L 460.826989 167.450555 
L 461.108807 167.666598 
L 461.390625 167.544722 
L 461.672443 168.108202 
L 461.954261 167.82319 
L 462.23608 168.332072 
L 462.517898 168.313882 
L 462.799716 167.990658 
L 463.363352 167.82678 
L 463.926989 167.69071 
L 464.208807 168.580591 
L 464.490625 168.090425 
L 465.054261 168.405621 
L 465.33608 167.940651 
L 465.617898 167.920871 
L 465.899716 167.697883 
L 466.181534 167.880443 
L 467.026989 167.936594 
L 467.308807 168.187655 
L 467.872443 168.07991 
L 468.154261 168.410151 
L 468.717898 168.127815 
L 468.999716 168.42822 
L 469.563352 168.487664 
L 469.84517 168.541656 
L 470.126989 168.114351 
L 470.408807 168.043065 
L 470.690625 168.432345 
L 470.972443 168.259308 
L 471.817898 168.223765 
L 472.381534 168.471089 
L 472.663352 168.251735 
L 472.94517 168.338174 
L 473.226989 168.04233 
L 473.508807 168.05247 
L 473.790625 168.247995 
L 474.072443 168.033911 
L 474.354261 168.148847 
L 474.63608 167.944939 
L 474.917898 168.281226 
L 475.199716 167.928142 
L 475.481534 168.406232 
L 475.763352 168.259196 
L 476.04517 167.968629 
L 476.326989 167.843869 
L 476.608807 168.416682 
L 476.890625 168.394344 
L 477.172443 168.111164 
L 477.454261 168.499792 
L 477.73608 168.576082 
L 478.299716 168.551225 
L 478.581534 168.909093 
L 478.863352 168.247934 
L 479.426989 168.569364 
L 479.708807 168.216117 
L 480.272443 168.04415 
L 480.554261 167.568737 
L 480.83608 168.214966 
L 481.399716 167.616542 
L 482.24517 168.471279 
L 482.526989 167.87335 
L 482.808807 168.284962 
L 483.090625 167.906711 
L 483.372443 168.401945 
L 483.93608 167.763797 
L 484.217898 167.870899 
L 484.781534 167.907257 
L 485.063352 168.338732 
L 485.34517 168.301489 
L 485.626989 167.837146 
L 485.908807 167.61481 
L 486.190625 168.124018 
L 486.472443 168.155883 
L 486.754261 168.019492 
L 487.317898 168.2485 
L 487.881534 168.04768 
L 488.163352 168.637877 
L 488.44517 168.619907 
L 488.726989 168.186857 
L 489.290625 168.859491 
L 489.572443 168.829869 
L 489.854261 168.551741 
L 490.13608 168.844235 
L 490.417898 168.586502 
L 490.699716 168.796241 
L 490.981534 168.610927 
L 491.54517 168.651249 
L 491.826989 169.121849 
L 492.108807 168.775384 
L 492.954261 168.797475 
L 493.517898 168.214288 
L 493.799716 168.542471 
L 494.081534 168.225737 
L 494.363352 168.503472 
L 494.926989 168.408387 
L 495.208807 168.744115 
L 495.490625 168.800099 
L 495.772443 168.361216 
L 497.181534 168.712691 
L 497.74517 168.390598 
L 498.026989 168.620616 
L 498.308807 168.591809 
L 498.590625 168.742247 
L 498.872443 168.571679 
L 499.154261 168.774246 
L 499.43608 168.63304 
L 499.717898 168.898085 
L 499.999716 168.44036 
L 500.563352 168.853976 
L 500.84517 168.503483 
L 501.126989 168.85389 
L 501.408807 168.898816 
L 501.690625 168.464622 
L 501.972443 168.716828 
L 502.254261 169.272118 
L 502.53608 168.79067 
L 503.099716 168.87071 
L 503.381534 168.654211 
L 504.226989 168.51374 
L 504.790625 169.226336 
L 505.072443 168.668929 
L 505.354261 168.905214 
L 505.63608 168.996057 
L 505.917898 168.960977 
L 506.481534 169.191144 
L 506.763352 168.645525 
L 507.04517 169.440792 
L 507.326989 169.292029 
L 507.608807 168.702876 
L 508.172443 168.853649 
L 508.454261 169.485689 
L 508.73608 168.915131 
L 509.581534 169.125036 
L 509.863352 168.465254 
L 510.14517 168.948123 
L 510.708807 168.889659 
L 510.990625 168.868332 
L 511.272443 168.734287 
L 511.554261 168.942391 
L 512.681534 168.895866 
L 512.963352 169.193881 
L 513.24517 168.791528 
L 513.526989 169.060181 
L 513.808807 169.145252 
L 514.372443 168.805697 
L 514.93608 168.922657 
L 515.217898 168.682899 
L 515.499716 168.804906 
L 515.781534 169.354496 
L 516.063352 169.029645 
L 517.190625 168.789353 
L 517.472443 168.916208 
L 517.754261 169.274517 
L 518.03608 169.045197 
L 518.317898 169.201318 
L 518.599716 169.221087 
L 518.881534 169.55058 
L 519.726989 168.467127 
L 520.008807 169.537811 
L 520.290625 168.834971 
L 520.572443 168.537625 
L 520.854261 166.726399 
L 521.13608 169.596803 
L 521.981534 169.264414 
L 522.263352 167.824122 
L 522.54517 169.484878 
L 522.826989 169.065136 
L 523.108807 169.004806 
L 523.390625 167.528907 
L 523.672443 168.743992 
L 523.954261 169.179387 
L 524.23608 169.073314 
L 524.517898 168.723643 
L 524.799716 169.682532 
L 525.363352 169.775577 
L 525.926989 168.465843 
L 526.208807 169.074197 
L 526.490625 169.286885 
L 526.772443 168.815984 
L 527.054261 169.038755 
L 527.33608 169.41003 
L 527.617898 169.40841 
L 527.899716 169.525041 
L 528.181534 169.140879 
L 528.463352 169.385056 
L 528.74517 168.890757 
L 529.026989 169.403838 
L 529.308807 169.612176 
L 529.590625 169.424529 
L 529.872443 169.519933 
L 530.154261 169.84631 
L 530.43608 169.619469 
L 530.999716 169.4843 
L 531.281534 169.805336 
L 531.563352 169.43624 
L 531.84517 169.494662 
L 532.408807 169.83285 
L 532.690625 168.977793 
L 532.972443 169.595058 
L 533.254261 169.213901 
L 533.53608 169.725994 
L 533.817898 169.878611 
L 534.099716 169.728346 
L 534.381534 169.74232 
L 534.663352 169.199929 
L 534.94517 170.000342 
L 535.226989 169.602325 
L 535.508807 170.112417 
L 536.354261 169.348341 
L 536.63608 169.244459 
L 536.917898 169.507269 
L 537.199716 169.261613 
L 537.481534 169.254055 
L 537.763352 170.033429 
L 538.04517 169.347109 
L 538.608807 169.112098 
L 538.890625 169.598879 
L 539.172443 169.818128 
L 539.454261 169.405114 
L 539.73608 169.251895 
L 540.017898 168.824345 
L 540.581534 169.374799 
L 540.863352 169.13155 
L 541.14517 169.339092 
L 541.426989 168.981533 
L 541.708807 169.123091 
L 541.990625 168.786749 
L 542.272443 169.407278 
L 542.554261 169.174652 
L 542.83608 169.090171 
L 543.117898 169.17804 
L 543.681534 168.789111 
L 543.963352 168.791602 
L 544.24517 169.034128 
L 544.808807 168.817673 
L 545.654261 169.230012 
L 545.93608 168.840982 
L 546.217898 168.670644 
L 546.499716 169.079504 
L 546.781534 168.939936 
L 547.063352 169.001279 
L 547.34517 168.47014 
L 547.626989 168.805435 
L 547.908807 168.649595 
L 548.190625 168.914814 
L 548.472443 168.82525 
L 548.754261 169.105887 
L 549.03608 169.10166 
L 549.317898 168.874755 
L 549.599716 169.014781 
L 549.881534 168.84784 
L 550.163352 168.833824 
L 550.44517 169.204892 
L 550.726989 168.733234 
L 551.008807 169.037191 
L 551.290625 168.837744 
L 552.13608 168.779012 
L 552.417898 169.213218 
L 552.699716 168.831534 
L 553.263352 168.817112 
L 553.54517 169.080779 
L 553.826989 168.457488 
L 554.108807 168.712813 
L 554.390625 168.574573 
L 554.672443 168.728717 
L 554.954261 168.496332 
L 555.23608 168.588965 
L 555.799716 169.049835 
L 556.64517 168.578193 
L 556.926989 168.994604 
L 557.490625 168.99297 
L 558.33608 168.90913 
L 558.617898 168.625723 
L 558.899716 168.640273 
L 559.463352 169.031201 
L 560.026989 169.266782 
L 560.590625 168.933292 
L 561.43608 169.285956 
L 561.717898 168.864496 
L 561.999716 168.777383 
L 562.281534 168.432997 
L 562.84517 168.544313 
L 563.126989 168.946638 
L 563.408807 168.73146 
L 563.690625 168.90651 
L 563.972443 168.92296 
L 564.254261 168.704791 
L 564.53608 168.979392 
L 564.817898 168.624496 
L 565.099716 169.587425 
L 565.663352 169.209442 
L 565.94517 169.110096 
L 566.226989 169.359498 
L 566.508807 169.459664 
L 566.790625 168.77345 
L 567.072443 169.439148 
L 567.354261 169.208993 
L 567.63608 169.395001 
L 567.917898 169.135009 
L 568.199716 169.476452 
L 568.763352 169.246126 
L 569.04517 168.906879 
L 569.608807 169.48511 
L 569.890625 169.29611 
L 570.172443 169.399139 
L 570.454261 169.249617 
L 570.73608 169.858085 
L 571.017898 170.035297 
L 571.299716 169.60287 
L 571.581534 169.434 
L 571.863352 169.094804 
L 572.14517 169.332372 
L 572.708807 169.482758 
L 572.990625 169.164578 
L 573.272443 169.394639 
L 573.554261 169.409681 
L 573.83608 169.090199 
L 574.399716 169.355301 
L 574.681534 169.43645 
L 574.963352 169.712998 
L 575.24517 169.611991 
L 575.526989 168.972357 
L 575.808807 169.324265 
L 576.372443 169.507226 
L 576.654261 169.259209 
L 576.93608 169.945123 
L 577.217898 169.273543 
L 577.499716 169.173723 
L 577.781534 169.20841 
L 578.063352 169.637732 
L 578.34517 169.291598 
L 578.626989 169.582355 
L 579.190625 169.287296 
L 579.472443 169.365569 
L 579.754261 169.063508 
L 580.03608 169.566959 
L 580.317898 169.345002 
L 580.599716 169.482085 
L 580.881534 169.24341 
L 581.163352 169.295217 
L 581.44517 168.99716 
L 581.726989 169.600539 
L 582.008807 169.5698 
L 582.572443 170.039253 
L 582.854261 169.546179 
L 583.13608 169.599691 
L 583.417898 168.991402 
L 583.699716 169.300403 
L 583.981534 169.200134 
L 584.263352 169.255359 
L 584.54517 169.045757 
L 584.826989 169.102056 
L 585.108807 169.019204 
L 585.390625 169.359394 
L 586.23608 169.638957 
L 586.799716 169.236134 
L 587.081534 169.321951 
L 587.363352 169.049778 
L 587.926989 169.110911 
L 588.208807 169.407115 
L 588.490625 169.498306 
L 588.772443 169.26342 
L 589.054261 169.467393 
L 589.33608 169.356704 
L 589.617898 169.719772 
L 589.899716 169.715203 
L 590.181534 169.578953 
L 590.463352 170.165558 
L 590.74517 169.483789 
L 591.026989 169.689361 
L 591.590625 169.528036 
L 591.872443 169.673261 
L 592.154261 169.367846 
L 592.43608 169.623873 
L 592.999716 169.488816 
L 593.281534 169.250883 
L 593.84517 169.548915 
L 594.126989 169.401107 
L 594.408807 169.484775 
L 594.690625 169.436232 
L 594.972443 169.58351 
L 595.254261 168.953397 
L 595.53608 169.223813 
L 595.817898 169.326057 
L 596.099716 169.266831 
L 596.381534 169.087944 
L 596.663352 169.094647 
L 596.94517 169.508781 
L 597.226989 168.888391 
L 597.790625 169.244362 
L 598.63608 169.04635 
L 598.917898 169.524978 
L 599.199716 168.910987 
L 599.481534 168.937779 
L 599.763352 169.402627 
L 600.04517 168.974912 
L 600.326989 169.101872 
L 600.608807 169.565013 
L 600.890625 169.224931 
L 601.172443 169.241872 
L 601.454261 169.379239 
L 601.73608 169.144498 
L 602.017898 169.58562 
L 602.299716 169.233447 
L 602.581534 169.50811 
L 602.863352 169.572256 
L 603.14517 169.344466 
L 603.426989 169.545597 
L 603.708807 169.292118 
L 603.990625 169.886939 
L 604.272443 169.578726 
L 604.554261 169.455828 
L 604.83608 168.962926 
L 605.117898 169.252531 
L 605.399716 169.367889 
L 605.681534 169.033664 
L 605.963352 169.357026 
L 606.24517 168.998808 
L 606.526989 168.986947 
L 607.090625 169.218035 
L 607.372443 168.846604 
L 607.654261 168.99448 
L 608.217898 168.73588 
L 608.499716 169.065742 
L 608.781534 169.819589 
L 609.063352 169.129616 
L 609.34517 169.437977 
L 609.626989 169.000513 
L 609.908807 169.430808 
L 610.190625 169.538506 
L 610.472443 169.412597 
L 610.754261 169.67208 
L 611.03608 169.207799 
L 611.599716 169.838166 
L 611.881534 169.063792 
L 612.163352 169.31032 
L 612.726989 169.218348 
L 613.008807 169.777202 
L 613.290625 169.270688 
L 613.572443 169.520249 
L 613.854261 169.309362 
L 614.13608 169.531339 
L 614.699716 169.434894 
L 614.981534 169.001929 
L 615.263352 169.230926 
L 615.54517 169.040763 
L 615.826989 169.789444 
L 616.108807 169.454733 
L 616.390625 169.567367 
L 616.672443 169.535578 
L 616.954261 169.236255 
L 617.23608 169.737504 
L 617.517898 169.632027 
L 618.081534 169.628992 
L 618.363352 169.197422 
L 619.208807 169.165817 
L 619.490625 168.965216 
L 619.772443 169.028513 
L 620.054261 169.257439 
L 620.33608 169.041191 
L 620.617898 169.417645 
L 621.181534 169.243916 
L 621.74517 169.540675 
L 622.026989 169.085158 
L 622.308807 169.181811 
L 622.590625 168.897505 
L 623.43608 169.452504 
L 623.717898 169.167733 
L 624.281534 169.0832 
L 624.563352 169.371138 
L 624.84517 169.424358 
L 625.126989 169.27372 
L 625.126989 169.27372 
" clip-path="url(#p8345550717)" style="fill: none; stroke: #1f77b4; stroke-width: 1.5; stroke-linecap: square"/>
   </g>
   <g id="line2d_15">
    <path d="M 117.854261 296.03625 
L 118.417898 219.200503 
L 118.981534 238.645685 
L 119.263352 213.261152 
L 119.54517 212.54875 
L 119.826989 215.076811 
L 120.108807 205.598168 
L 120.390625 212.181319 
L 120.672443 226.669107 
L 121.23608 196.212776 
L 121.517898 194.413947 
L 121.799716 194.780619 
L 122.081534 201.832737 
L 122.363352 195.235904 
L 122.64517 196.378027 
L 122.926989 194.532246 
L 123.208807 194.186848 
L 123.490625 195.502642 
L 123.772443 184.213625 
L 124.054261 181.165058 
L 124.617898 182.194952 
L 124.899716 186.091654 
L 125.181534 177.656689 
L 125.463352 180.557306 
L 125.74517 182.010728 
L 126.026989 182.333157 
L 126.590625 181.32096 
L 126.872443 182.390077 
L 127.154261 183.960668 
L 127.43608 184.431872 
L 127.717898 183.194059 
L 127.999716 180.438406 
L 128.281534 181.145129 
L 128.563352 183.060858 
L 128.84517 181.048282 
L 129.126989 180.679822 
L 129.408807 178.011528 
L 129.972443 178.090941 
L 130.254261 178.969227 
L 130.53608 181.172561 
L 131.099716 177.393865 
L 131.663352 178.351291 
L 131.94517 176.208669 
L 132.226989 177.343197 
L 132.508807 177.985098 
L 132.790625 180.055569 
L 133.072443 176.730227 
L 133.354261 176.248777 
L 133.63608 179.231779 
L 133.917898 177.708572 
L 134.199716 177.030424 
L 134.481534 176.664959 
L 134.763352 177.691265 
L 135.04517 176.119124 
L 135.326989 176.160455 
L 135.608807 176.32796 
L 135.890625 176.294541 
L 136.172443 177.635459 
L 137.017898 174.709478 
L 137.299716 176.153952 
L 137.863352 173.767497 
L 138.426989 176.586489 
L 138.708807 176.4194 
L 138.990625 177.261133 
L 139.272443 174.063869 
L 139.554261 178.121447 
L 139.83608 174.604464 
L 140.399716 174.564015 
L 140.681534 174.107088 
L 140.963352 175.394572 
L 141.526989 173.690661 
L 141.808807 174.735638 
L 142.090625 174.466004 
L 142.372443 173.763776 
L 142.654261 174.487707 
L 143.217898 173.128249 
L 143.499716 173.783378 
L 143.781534 172.877454 
L 144.063352 174.449639 
L 144.34517 174.136157 
L 144.626989 174.131147 
L 144.908807 174.543099 
L 145.190625 174.151772 
L 145.472443 171.716959 
L 146.317898 173.551442 
L 146.599716 171.414805 
L 146.881534 172.531184 
L 147.44517 173.528479 
L 147.726989 174.667006 
L 148.008807 172.879212 
L 148.290625 174.079173 
L 148.572443 174.417489 
L 149.13608 173.861619 
L 149.417898 174.307226 
L 149.699716 172.468632 
L 149.981534 173.093585 
L 150.54517 171.328881 
L 151.108807 173.248832 
L 151.390625 173.248455 
L 151.672443 172.722076 
L 151.954261 173.191447 
L 152.23608 171.575761 
L 152.517898 171.514487 
L 152.799716 172.497564 
L 153.081534 172.614868 
L 153.363352 172.527716 
L 153.64517 172.901462 
L 153.926989 171.798656 
L 154.208807 172.17445 
L 154.490625 171.36876 
L 154.772443 171.860114 
L 155.054261 172.065286 
L 155.33608 172.853624 
L 155.617898 172.279056 
L 155.899716 172.345809 
L 156.181534 171.40709 
L 156.74517 173.281889 
L 157.026989 171.6027 
L 157.308807 171.572991 
L 157.590625 172.788874 
L 157.872443 173.126234 
L 158.154261 172.833694 
L 158.43608 172.21413 
L 158.717898 173.023502 
L 158.999716 173.20008 
L 159.281534 172.111453 
L 159.563352 172.345466 
L 159.84517 173.241511 
L 160.126989 173.382747 
L 160.408807 171.305869 
L 160.690625 172.329936 
L 160.972443 172.906326 
L 161.254261 172.161376 
L 161.817898 172.868546 
L 162.099716 172.178703 
L 162.381534 172.386805 
L 162.663352 171.756797 
L 162.94517 172.613199 
L 163.226989 172.735791 
L 163.508807 171.651542 
L 163.790625 171.944659 
L 164.072443 171.896408 
L 164.63608 172.423398 
L 164.917898 172.514977 
L 165.199716 172.841949 
L 165.481534 171.593369 
L 165.763352 172.130366 
L 166.04517 172.372364 
L 166.326989 172.074754 
L 166.608807 171.556562 
L 166.890625 172.602379 
L 167.172443 171.34686 
L 167.454261 171.920515 
L 167.73608 171.527562 
L 168.017898 173.732855 
L 168.299716 171.742232 
L 168.581534 172.010685 
L 168.863352 171.679803 
L 169.14517 172.867061 
L 169.426989 172.121979 
L 169.708807 172.252688 
L 170.272443 171.196761 
L 170.554261 171.68482 
L 170.83608 171.334027 
L 171.399716 171.732382 
L 171.681534 171.046097 
L 171.963352 171.840605 
L 172.24517 171.338442 
L 172.808807 171.274296 
L 173.090625 171.527496 
L 173.372443 171.463002 
L 173.93608 171.714048 
L 174.217898 171.527779 
L 174.499716 171.971782 
L 174.781534 171.808757 
L 175.063352 171.239484 
L 175.34517 171.712659 
L 175.626989 171.35515 
L 175.908807 171.253456 
L 176.190625 170.952888 
L 176.472443 171.26288 
L 176.754261 171.751968 
L 177.03608 171.851963 
L 177.599716 171.013635 
L 178.44517 171.590286 
L 178.726989 171.297249 
L 179.008807 171.551686 
L 179.572443 170.870277 
L 179.854261 170.951387 
L 180.13608 170.706756 
L 180.417898 172.011226 
L 180.699716 171.562232 
L 180.981534 171.393369 
L 181.263352 170.624929 
L 181.54517 170.80561 
L 181.826989 171.546023 
L 182.672443 170.643849 
L 182.954261 171.28086 
L 183.23608 170.960326 
L 183.517898 170.393007 
L 183.799716 171.235045 
L 184.363352 170.199702 
L 184.926989 171.399415 
L 185.208807 171.077521 
L 185.490625 171.099076 
L 185.772443 170.871475 
L 186.054261 172.392286 
L 186.33608 172.26415 
L 186.617898 171.124406 
L 187.463352 171.044001 
L 187.74517 171.602959 
L 188.026989 171.166176 
L 188.590625 170.812143 
L 188.872443 171.302051 
L 189.154261 172.056204 
L 189.43608 171.356412 
L 189.717898 172.162386 
L 189.999716 170.870293 
L 190.281534 170.933369 
L 190.563352 171.41883 
L 191.126989 171.6746 
L 191.408807 171.327942 
L 191.690625 171.457798 
L 191.972443 171.376492 
L 193.099716 171.6086 
L 193.381534 172.038357 
L 193.663352 171.485702 
L 193.94517 171.201776 
L 194.226989 172.03931 
L 194.508807 171.951895 
L 194.790625 171.029977 
L 195.072443 171.470733 
L 195.354261 171.33633 
L 195.63608 171.788106 
L 195.917898 171.619493 
L 196.199716 171.687032 
L 196.481534 172.066726 
L 196.763352 171.215829 
L 197.04517 170.9907 
L 197.608807 171.888345 
L 197.890625 171.568269 
L 198.172443 171.90961 
L 198.454261 170.651171 
L 199.017898 171.7623 
L 199.581534 170.659659 
L 199.863352 171.288779 
L 200.14517 171.490592 
L 200.426989 172.222745 
L 200.708807 172.55833 
L 200.990625 171.034898 
L 201.272443 171.498769 
L 201.554261 171.647811 
L 202.117898 171.370715 
L 202.399716 170.858276 
L 204.090625 172.342796 
L 204.372443 171.67289 
L 204.654261 172.154893 
L 204.93608 171.257939 
L 205.217898 171.674141 
L 205.781534 171.049011 
L 206.063352 171.724085 
L 206.34517 172.095347 
L 206.908807 171.377652 
L 207.190625 171.62404 
L 207.472443 171.390359 
L 207.754261 171.60132 
L 208.03608 171.535308 
L 208.599716 171.832293 
L 208.881534 171.367157 
L 209.163352 171.617892 
L 209.44517 171.685619 
L 209.726989 171.618568 
L 210.290625 171.860995 
L 210.572443 172.237446 
L 210.854261 171.005607 
L 211.13608 171.553755 
L 211.417898 171.490333 
L 211.699716 171.592916 
L 212.263352 171.398825 
L 212.54517 171.605477 
L 213.108807 172.38631 
L 213.390625 171.526915 
L 213.672443 171.645364 
L 213.954261 171.371208 
L 214.23608 172.147328 
L 214.517898 171.753966 
L 214.799716 173.179875 
L 215.081534 171.668005 
L 215.363352 171.579546 
L 215.64517 172.096871 
L 215.926989 172.356091 
L 216.208807 172.089167 
L 216.490625 172.553571 
L 216.772443 171.812758 
L 217.054261 171.615187 
L 217.617898 171.69413 
L 217.899716 171.766294 
L 218.181534 172.234649 
L 218.74517 171.674879 
L 219.026989 171.832849 
L 219.308807 172.280615 
L 219.590625 171.622514 
L 219.872443 171.755409 
L 220.154261 172.137954 
L 220.43608 171.268446 
L 220.717898 172.07895 
L 220.999716 171.204316 
L 221.281534 172.061808 
L 221.563352 171.646001 
L 221.84517 171.927455 
L 222.126989 171.965757 
L 222.408807 171.666375 
L 222.690625 171.715999 
L 222.972443 172.314211 
L 223.254261 172.600415 
L 223.817898 172.093801 
L 224.099716 172.294227 
L 224.381534 171.622418 
L 224.94517 171.826495 
L 225.226989 171.737618 
L 225.508807 171.862572 
L 225.790625 171.810099 
L 226.072443 172.003163 
L 226.354261 171.442342 
L 226.917898 172.112333 
L 227.199716 171.965151 
L 227.481534 171.593799 
L 227.763352 172.424699 
L 228.04517 172.280127 
L 228.326989 171.782763 
L 228.890625 172.362792 
L 229.454261 172.20061 
L 229.73608 172.371535 
L 230.017898 171.999299 
L 230.581534 171.610287 
L 230.863352 171.773116 
L 231.14517 171.682329 
L 231.426989 171.967082 
L 231.708807 171.559341 
L 231.990625 171.909636 
L 232.554261 172.294224 
L 232.83608 171.932208 
L 233.117898 172.584878 
L 233.399716 172.074051 
L 233.681534 171.992196 
L 233.963352 172.04918 
L 234.24517 172.439833 
L 235.090625 171.978719 
L 235.372443 172.222894 
L 235.654261 171.692602 
L 235.93608 172.103561 
L 236.499716 171.90705 
L 236.781534 172.379678 
L 237.063352 171.602559 
L 237.34517 172.046383 
L 237.626989 171.783138 
L 238.190625 172.085609 
L 238.472443 171.771962 
L 238.754261 172.218407 
L 239.317898 172.278004 
L 239.599716 172.469344 
L 239.881534 172.082219 
L 240.163352 172.14542 
L 240.44517 172.415526 
L 240.726989 172.448525 
L 241.008807 171.769688 
L 241.290625 172.670857 
L 241.572443 172.261742 
L 241.854261 172.179617 
L 242.13608 172.75954 
L 242.417898 172.558029 
L 242.699716 171.989123 
L 243.263352 172.108654 
L 243.54517 171.709229 
L 243.826989 172.924987 
L 244.108807 172.155324 
L 244.390625 172.460446 
L 244.672443 172.32577 
L 244.954261 172.626836 
L 245.23608 171.57441 
L 245.517898 172.098787 
L 245.799716 172.167263 
L 246.081534 171.574182 
L 246.64517 171.795719 
L 247.208807 171.727319 
L 247.490625 171.728792 
L 247.772443 172.057989 
L 248.054261 172.197913 
L 248.33608 171.68826 
L 248.617898 172.546455 
L 248.899716 171.75321 
L 249.181534 171.527242 
L 249.463352 171.579348 
L 249.74517 171.491789 
L 250.026989 171.614068 
L 250.308807 171.273213 
L 250.590625 171.721788 
L 251.43608 171.597293 
L 251.717898 171.221748 
L 251.999716 171.946635 
L 252.281534 171.54936 
L 252.563352 171.918295 
L 253.126989 171.369587 
L 253.408807 172.016757 
L 253.972443 171.647025 
L 254.254261 171.942592 
L 254.53608 171.796667 
L 254.817898 171.462699 
L 255.099716 171.850835 
L 255.381534 171.619728 
L 255.663352 171.633126 
L 255.94517 171.98708 
L 256.226989 171.713236 
L 256.508807 172.227735 
L 256.790625 171.661024 
L 257.072443 171.646745 
L 257.63608 172.171069 
L 258.199716 171.032468 
L 258.481534 171.890426 
L 258.763352 171.742362 
L 259.04517 171.418415 
L 259.326989 172.147392 
L 259.608807 171.921093 
L 259.890625 171.482523 
L 260.454261 172.073854 
L 260.73608 171.643588 
L 261.581534 171.546255 
L 261.863352 171.764198 
L 262.426989 171.069354 
L 262.708807 171.377002 
L 262.990625 172.050453 
L 263.272443 171.849916 
L 263.554261 171.860143 
L 263.83608 171.732915 
L 264.117898 171.303851 
L 264.681534 171.520633 
L 264.963352 171.730886 
L 265.24517 171.33955 
L 265.526989 171.775897 
L 265.808807 171.614878 
L 266.090625 172.277533 
L 266.372443 171.669711 
L 266.654261 172.172951 
L 266.93608 171.577625 
L 267.499716 171.483749 
L 267.781534 171.242414 
L 268.063352 171.979101 
L 268.34517 171.568908 
L 268.626989 171.468434 
L 268.908807 171.70582 
L 269.472443 171.783909 
L 269.754261 171.418185 
L 270.599716 171.594637 
L 270.881534 171.242859 
L 271.163352 171.826873 
L 271.44517 171.309659 
L 272.572443 171.853016 
L 273.417898 171.472713 
L 273.699716 171.307203 
L 273.981534 171.710485 
L 274.263352 171.574469 
L 274.54517 171.971282 
L 274.826989 171.285448 
L 275.108807 171.703686 
L 275.390625 171.380695 
L 275.672443 171.65969 
L 275.954261 171.250398 
L 276.23608 171.299857 
L 276.517898 171.575726 
L 276.799716 171.207537 
L 277.081534 171.86768 
L 277.363352 171.19964 
L 277.64517 171.064495 
L 277.926989 171.7875 
L 278.208807 171.064782 
L 278.490625 171.187348 
L 278.772443 171.604023 
L 279.33608 171.888027 
L 279.617898 171.30301 
L 279.899716 171.529095 
L 280.181534 171.497257 
L 280.463352 171.123619 
L 280.74517 171.158037 
L 281.026989 171.644663 
L 281.308807 171.830987 
L 281.872443 171.34703 
L 282.154261 171.353478 
L 282.43608 171.722931 
L 282.717898 171.612591 
L 282.999716 171.653517 
L 283.563352 171.530283 
L 283.84517 171.6877 
L 284.126989 171.372083 
L 284.408807 171.415048 
L 284.690625 171.635205 
L 284.972443 171.574652 
L 285.254261 171.128399 
L 285.53608 171.523431 
L 285.817898 171.600522 
L 286.381534 171.312941 
L 286.663352 171.421824 
L 287.790625 171.458953 
L 288.072443 171.765277 
L 288.63608 171.500581 
L 289.481534 171.648895 
L 289.763352 171.615499 
L 290.04517 171.336644 
L 290.326989 171.447294 
L 290.608807 171.880552 
L 290.890625 171.525351 
L 291.172443 171.413842 
L 291.454261 171.716409 
L 291.73608 171.406692 
L 292.017898 171.650598 
L 293.14517 171.87875 
L 293.426989 171.544947 
L 293.708807 171.690293 
L 294.272443 171.612162 
L 294.554261 172.042311 
L 294.83608 171.602169 
L 295.117898 171.76101 
L 295.399716 171.60049 
L 295.681534 171.575155 
L 295.963352 171.782807 
L 296.24517 171.303394 
L 296.808807 172.22686 
L 297.090625 171.385557 
L 297.372443 171.749951 
L 297.654261 171.570733 
L 297.93608 171.623055 
L 298.217898 171.915835 
L 298.499716 171.576743 
L 298.781534 171.468432 
L 299.063352 171.920446 
L 299.34517 171.957665 
L 299.626989 171.390786 
L 299.908807 171.646143 
L 300.190625 171.629102 
L 300.754261 171.816926 
L 301.03608 171.68513 
L 301.599716 172.046569 
L 301.881534 171.297708 
L 302.44517 171.772949 
L 302.726989 171.6523 
L 303.008807 171.374826 
L 303.572443 171.427694 
L 303.854261 172.009548 
L 304.13608 171.364036 
L 304.699716 171.599214 
L 304.981534 171.182616 
L 305.263352 171.62443 
L 305.826989 171.831593 
L 306.108807 171.542116 
L 306.390625 171.764636 
L 306.672443 171.463287 
L 306.954261 171.438166 
L 307.23608 172.100975 
L 307.517898 171.765845 
L 307.799716 171.61204 
L 308.926989 172.221847 
L 309.772443 171.400278 
L 310.054261 171.564072 
L 310.33608 171.512417 
L 310.899716 171.61739 
L 311.181534 171.554389 
L 311.463352 171.908901 
L 311.74517 171.477327 
L 312.026989 172.091608 
L 312.308807 171.467854 
L 313.154261 171.666127 
L 313.43608 172.186488 
L 313.717898 171.742804 
L 314.563352 171.590847 
L 314.84517 171.158404 
L 315.126989 171.528959 
L 316.254261 171.420891 
L 316.817898 171.863264 
L 317.099716 171.796162 
L 317.381534 171.490731 
L 317.663352 171.445488 
L 317.94517 171.680148 
L 318.226989 171.6821 
L 318.508807 171.293901 
L 318.790625 171.103215 
L 319.072443 171.539433 
L 319.63608 171.441867 
L 320.481534 171.648299 
L 320.763352 171.515511 
L 321.04517 171.614487 
L 321.890625 171.289406 
L 322.172443 171.409006 
L 322.454261 171.19151 
L 322.73608 171.651945 
L 323.017898 170.761083 
L 323.299716 170.987507 
L 323.581534 170.596013 
L 323.863352 170.737447 
L 324.14517 170.661208 
L 324.708807 171.04777 
L 324.990625 171.102284 
L 325.272443 171.42396 
L 325.554261 170.886879 
L 325.83608 171.345256 
L 326.117898 171.01546 
L 326.399716 171.26267 
L 327.24517 170.808042 
L 327.526989 171.328662 
L 327.808807 170.938545 
L 328.090625 170.867777 
L 328.93608 171.29173 
L 329.217898 170.840532 
L 329.499716 171.08189 
L 329.781534 171.124606 
L 330.063352 171.29218 
L 330.34517 171.137038 
L 330.626989 171.198372 
L 330.908807 171.599172 
L 331.190625 171.300605 
L 331.472443 171.175879 
L 331.754261 171.381855 
L 332.03608 171.287735 
L 332.317898 171.65396 
L 332.599716 171.319707 
L 332.881534 171.636511 
L 333.163352 171.403219 
L 333.44517 171.330179 
L 333.726989 170.920461 
L 334.008807 171.171368 
L 334.290625 171.198484 
L 334.572443 170.872133 
L 334.854261 171.144007 
L 335.699716 171.376753 
L 335.981534 171.557049 
L 336.263352 171.08047 
L 336.54517 171.45491 
L 336.826989 171.121281 
L 337.108807 171.235663 
L 337.390625 171.595601 
L 337.672443 171.396206 
L 338.517898 171.330871 
L 338.799716 170.934157 
L 339.081534 170.870753 
L 339.363352 171.170502 
L 339.64517 170.882795 
L 339.926989 171.036573 
L 340.208807 171.026358 
L 340.772443 171.299812 
L 341.054261 170.904056 
L 341.33608 171.293444 
L 341.617898 171.157349 
L 342.181534 171.257007 
L 342.74517 171.341784 
L 343.026989 171.881538 
L 343.308807 171.190762 
L 343.590625 170.920531 
L 343.872443 171.002608 
L 344.154261 170.940161 
L 344.43608 171.236111 
L 344.717898 170.691898 
L 344.999716 170.6631 
L 345.281534 171.289256 
L 345.563352 170.834097 
L 345.84517 171.337713 
L 346.126989 170.954675 
L 346.408807 170.995028 
L 346.972443 170.695438 
L 347.254261 170.874813 
L 347.817898 171.045581 
L 348.099716 171.791283 
L 348.663352 170.743319 
L 348.94517 170.589246 
L 349.508807 171.082335 
L 349.790625 170.878595 
L 350.072443 171.202007 
L 350.354261 170.834619 
L 350.63608 170.857913 
L 351.199716 171.258332 
L 351.481534 170.645336 
L 351.763352 170.801055 
L 352.04517 171.163091 
L 352.608807 171.148606 
L 352.890625 171.214201 
L 353.172443 171.105061 
L 353.454261 170.849566 
L 353.73608 170.933592 
L 354.017898 171.135447 
L 354.581534 171.022335 
L 354.863352 171.532721 
L 355.426989 171.081306 
L 355.708807 171.417653 
L 355.990625 170.865572 
L 356.272443 171.186786 
L 356.554261 171.2233 
L 356.83608 171.100225 
L 357.963352 171.417797 
L 358.24517 171.003962 
L 358.526989 170.873678 
L 358.808807 171.19923 
L 359.090625 170.9147 
L 359.372443 171.176549 
L 359.654261 170.720087 
L 359.93608 171.221837 
L 360.217898 170.825395 
L 360.781534 170.903701 
L 361.063352 170.894215 
L 361.34517 171.263465 
L 361.626989 170.896899 
L 361.908807 171.064158 
L 362.190625 170.930889 
L 362.754261 170.953442 
L 363.03608 170.660597 
L 363.317898 170.829386 
L 363.881534 171.278856 
L 364.163352 171.285917 
L 364.726989 171.133321 
L 365.008807 171.228559 
L 365.290625 171.011475 
L 365.572443 171.071401 
L 365.854261 170.969186 
L 366.13608 171.117366 
L 366.417898 170.902941 
L 366.699716 171.340473 
L 366.981534 171.330764 
L 367.263352 171.442246 
L 367.54517 171.170754 
L 368.390625 171.073413 
L 368.672443 171.224513 
L 369.23608 171.200761 
L 369.517898 170.932061 
L 369.799716 170.85153 
L 370.081534 171.272058 
L 370.363352 170.919905 
L 370.926989 171.328001 
L 371.208807 170.945018 
L 371.490625 170.93693 
L 371.772443 171.191192 
L 372.054261 171.629335 
L 372.617898 171.045536 
L 372.899716 171.168376 
L 373.181534 171.41437 
L 373.463352 171.020584 
L 373.74517 171.11746 
L 374.026989 171.086986 
L 374.308807 171.190889 
L 374.872443 171.170039 
L 375.154261 171.433766 
L 375.43608 171.231394 
L 375.717898 171.416421 
L 377.126989 171.1695 
L 377.408807 171.255996 
L 377.690625 171.201189 
L 378.254261 170.894037 
L 379.381534 171.19389 
L 379.94517 170.958544 
L 380.508807 171.520634 
L 380.790625 171.119372 
L 381.072443 171.018045 
L 381.354261 171.67436 
L 381.63608 171.09071 
L 381.917898 171.354111 
L 382.481534 170.839483 
L 382.763352 170.719592 
L 383.04517 170.840227 
L 383.326989 170.708209 
L 383.608807 170.893917 
L 383.890625 171.223553 
L 384.172443 170.712814 
L 384.454261 170.735789 
L 384.73608 170.56253 
L 385.017898 170.978219 
L 385.299716 170.867546 
L 385.863352 171.072234 
L 386.14517 170.655839 
L 386.426989 170.698314 
L 386.708807 171.11127 
L 386.990625 170.684368 
L 387.83608 171.266159 
L 388.117898 171.20957 
L 388.399716 170.876477 
L 388.681534 171.059444 
L 389.24517 170.926751 
L 389.526989 170.696355 
L 389.808807 170.808768 
L 390.090625 171.218476 
L 391.217898 170.606371 
L 391.499716 170.938834 
L 391.781534 170.807869 
L 392.063352 170.850105 
L 392.34517 170.759542 
L 392.626989 170.856284 
L 392.908807 171.272716 
L 393.190625 170.761774 
L 393.472443 170.881607 
L 394.03608 170.761931 
L 394.317898 170.918663 
L 394.599716 170.768164 
L 394.881534 171.215186 
L 395.163352 171.017064 
L 395.44517 171.250301 
L 395.726989 170.951181 
L 396.572443 170.750064 
L 396.854261 170.934623 
L 397.13608 170.891714 
L 397.417898 171.047805 
L 397.699716 170.738098 
L 398.263352 170.735819 
L 398.54517 171.010138 
L 398.826989 170.904273 
L 399.108807 170.954422 
L 399.672443 171.288385 
L 400.23608 170.87931 
L 400.517898 170.684863 
L 400.799716 170.925244 
L 401.081534 170.765478 
L 401.64517 171.199506 
L 401.926989 171.148805 
L 402.208807 171.398969 
L 402.490625 170.721241 
L 402.772443 170.982733 
L 403.33608 171.023371 
L 403.617898 170.609744 
L 403.899716 171.056523 
L 404.74517 170.571225 
L 405.026989 170.84737 
L 405.308807 170.748957 
L 405.590625 170.807698 
L 406.43608 170.51698 
L 406.717898 170.745012 
L 406.999716 170.786442 
L 407.281534 171.193776 
L 407.563352 170.903311 
L 407.84517 171.058865 
L 408.126989 170.887706 
L 408.408807 170.952627 
L 408.690625 170.813599 
L 408.972443 171.215764 
L 409.254261 170.740278 
L 409.53608 170.613744 
L 410.099716 170.579924 
L 410.663352 171.092789 
L 411.226989 170.837638 
L 411.508807 170.913837 
L 411.790625 170.727723 
L 412.072443 170.969048 
L 412.354261 170.825615 
L 412.63608 170.889193 
L 412.917898 171.108736 
L 413.199716 171.187159 
L 413.481534 171.147762 
L 413.763352 170.533143 
L 414.890625 170.847003 
L 415.172443 170.707416 
L 415.454261 170.726416 
L 415.73608 171.098922 
L 416.017898 171.160734 
L 416.299716 170.559771 
L 416.581534 170.413832 
L 417.426989 170.938173 
L 417.708807 170.55412 
L 417.990625 170.483856 
L 418.272443 171.003681 
L 418.554261 170.953024 
L 418.83608 171.316819 
L 419.399716 170.613016 
L 419.681534 170.786452 
L 419.963352 170.736078 
L 420.24517 170.961564 
L 420.808807 170.948136 
L 421.090625 171.101096 
L 421.372443 170.735404 
L 421.93608 171.117438 
L 422.217898 170.693311 
L 422.781534 170.916796 
L 423.063352 171.203961 
L 423.626989 170.745573 
L 423.908807 171.040061 
L 424.190625 170.812139 
L 425.03608 170.704211 
L 425.317898 170.67869 
L 425.599716 170.895043 
L 425.881534 170.381518 
L 426.163352 170.93827 
L 426.44517 170.96271 
L 426.726989 170.534306 
L 427.008807 171.048113 
L 427.290625 170.651114 
L 427.572443 170.622422 
L 427.854261 170.950698 
L 428.13608 170.874743 
L 428.417898 170.64102 
L 428.699716 170.906864 
L 428.981534 170.691515 
L 429.263352 171.212719 
L 429.826989 170.639146 
L 430.108807 170.850851 
L 430.390625 170.860258 
L 430.672443 170.667375 
L 430.954261 170.835431 
L 431.23608 170.626871 
L 431.517898 170.834009 
L 431.799716 170.866606 
L 432.081534 170.72198 
L 432.363352 170.720277 
L 432.64517 170.933455 
L 432.926989 170.451516 
L 433.208807 170.419604 
L 433.490625 170.998416 
L 433.772443 170.579085 
L 434.054261 170.74032 
L 434.33608 170.768913 
L 434.617898 170.429201 
L 434.899716 170.489571 
L 435.181534 170.718454 
L 435.463352 170.603393 
L 435.74517 170.850211 
L 436.026989 170.559679 
L 436.308807 170.813131 
L 436.590625 170.52679 
L 436.872443 170.63431 
L 437.154261 170.491912 
L 437.43608 170.648642 
L 437.717898 170.571859 
L 437.999716 170.871463 
L 438.281534 170.58753 
L 438.563352 170.512779 
L 440.254261 171.03303 
L 440.817898 170.528718 
L 441.381534 170.9274 
L 441.663352 170.733948 
L 441.94517 171.0728 
L 442.226989 170.763549 
L 442.790625 171.122912 
L 443.072443 170.841414 
L 443.354261 170.798636 
L 443.63608 170.576703 
L 444.199716 170.830291 
L 444.481534 170.589583 
L 444.763352 170.916207 
L 445.04517 170.759809 
L 445.326989 170.774932 
L 445.890625 170.359896 
L 446.454261 170.635367 
L 446.73608 171.070245 
L 447.017898 170.657707 
L 447.299716 170.550851 
L 447.581534 170.598932 
L 447.863352 170.787151 
L 448.14517 170.681688 
L 448.426989 170.387036 
L 448.708807 170.416115 
L 448.990625 170.878409 
L 449.272443 170.630899 
L 449.554261 171.071578 
L 449.83608 171.1535 
L 450.117898 170.549599 
L 450.399716 170.759775 
L 450.681534 170.538498 
L 451.526989 171.055881 
L 452.090625 170.888099 
L 452.654261 170.692511 
L 452.93608 170.725042 
L 453.217898 170.613034 
L 453.499716 170.834623 
L 454.063352 170.953865 
L 454.34517 170.604125 
L 454.626989 170.559315 
L 454.908807 170.734298 
L 455.190625 170.765653 
L 455.472443 170.934995 
L 456.03608 170.626062 
L 456.317898 170.990162 
L 456.881534 170.651681 
L 457.163352 171.145624 
L 457.44517 170.578558 
L 457.726989 170.839456 
L 458.008807 170.875805 
L 458.572443 170.471814 
L 458.854261 170.424695 
L 459.417898 170.631749 
L 459.981534 170.888186 
L 460.263352 170.744507 
L 460.826989 170.786117 
L 461.108807 170.631302 
L 461.672443 170.687728 
L 461.954261 170.972742 
L 462.23608 170.537612 
L 462.517898 170.880383 
L 463.081534 170.603943 
L 463.363352 170.819605 
L 463.64517 170.509849 
L 463.926989 170.950334 
L 464.208807 170.833115 
L 464.490625 170.558232 
L 465.054261 170.741402 
L 465.33608 170.699919 
L 465.617898 170.872233 
L 465.899716 170.279612 
L 466.181534 170.798662 
L 466.463352 170.818435 
L 466.74517 170.694929 
L 467.026989 171.134182 
L 467.308807 170.863706 
L 467.590625 170.837301 
L 467.872443 170.665313 
L 468.154261 170.786664 
L 468.43608 170.581829 
L 468.999716 170.941334 
L 469.281534 170.674548 
L 469.563352 170.602221 
L 469.84517 170.745723 
L 470.126989 170.63707 
L 470.408807 170.978944 
L 470.690625 170.78368 
L 470.972443 170.822146 
L 471.254261 171.200952 
L 471.53608 170.725629 
L 471.817898 170.707773 
L 472.381534 171.120343 
L 472.663352 170.820297 
L 472.94517 170.956407 
L 473.226989 170.59562 
L 473.508807 170.652294 
L 473.790625 170.541251 
L 474.072443 170.720733 
L 474.354261 170.676061 
L 474.63608 170.424413 
L 474.917898 170.53423 
L 475.199716 170.507187 
L 475.481534 170.281122 
L 475.763352 170.582402 
L 476.608807 170.507017 
L 476.890625 170.402274 
L 477.172443 170.630037 
L 477.454261 170.651028 
L 477.73608 170.490456 
L 478.299716 170.799205 
L 478.581534 170.571074 
L 478.863352 170.634182 
L 479.426989 170.336733 
L 479.708807 170.560438 
L 479.990625 170.590834 
L 480.272443 171.054906 
L 480.83608 170.561266 
L 482.24517 170.682939 
L 482.526989 170.770461 
L 482.808807 170.514827 
L 483.090625 170.701922 
L 483.654261 170.445859 
L 483.93608 170.499178 
L 484.217898 170.245035 
L 484.499716 170.655261 
L 484.781534 170.786104 
L 485.34517 170.437481 
L 485.626989 170.740617 
L 485.908807 170.807076 
L 486.190625 170.69044 
L 486.472443 170.804829 
L 486.754261 170.645536 
L 487.03608 170.328209 
L 487.317898 170.545485 
L 487.599716 170.484062 
L 487.881534 170.681486 
L 488.726989 170.603993 
L 489.008807 170.859693 
L 489.290625 170.390122 
L 489.854261 170.705633 
L 490.13608 170.632732 
L 490.417898 170.894376 
L 490.699716 170.517912 
L 491.263352 170.691512 
L 491.54517 170.43232 
L 491.826989 170.560201 
L 492.108807 170.325376 
L 492.390625 170.6138 
L 492.672443 170.508865 
L 492.954261 170.979107 
L 493.23608 170.974679 
L 493.517898 170.375334 
L 493.799716 170.711939 
L 494.363352 170.638454 
L 494.64517 170.677264 
L 494.926989 170.510359 
L 495.490625 170.642513 
L 495.772443 171.146759 
L 496.054261 170.48617 
L 496.899716 170.793886 
L 497.181534 170.961593 
L 497.463352 170.927388 
L 497.74517 170.488995 
L 498.026989 171.086491 
L 498.308807 170.69472 
L 498.590625 170.567617 
L 498.872443 170.963608 
L 499.154261 170.539445 
L 499.43608 170.684739 
L 499.717898 170.423255 
L 499.999716 170.857426 
L 500.281534 170.542898 
L 500.563352 170.50515 
L 500.84517 170.243769 
L 501.126989 170.74702 
L 501.408807 170.774729 
L 501.690625 170.924798 
L 501.972443 170.596336 
L 502.254261 170.963638 
L 502.53608 170.497692 
L 502.817898 170.360859 
L 503.099716 170.616801 
L 503.381534 170.47359 
L 503.663352 170.664628 
L 503.94517 170.61835 
L 504.226989 170.895543 
L 504.508807 170.631459 
L 504.790625 170.834951 
L 505.072443 170.821059 
L 505.354261 170.511219 
L 505.63608 171.085793 
L 505.917898 170.618325 
L 506.199716 170.748792 
L 506.763352 170.517406 
L 507.04517 170.644483 
L 507.326989 170.505008 
L 508.172443 170.728019 
L 508.454261 171.000412 
L 508.73608 170.803728 
L 509.299716 170.805451 
L 509.581534 170.80358 
L 509.863352 171.009155 
L 510.14517 170.642632 
L 510.426989 170.504354 
L 511.272443 171.033433 
L 511.554261 170.888476 
L 511.83608 170.545554 
L 512.117898 170.52884 
L 512.399716 170.705485 
L 512.681534 170.521681 
L 512.963352 170.98988 
L 513.24517 170.917422 
L 513.526989 171.186403 
L 513.808807 170.696213 
L 514.372443 170.800665 
L 514.654261 170.7198 
L 514.93608 171.064536 
L 515.217898 170.557683 
L 515.781534 170.662075 
L 516.063352 170.922326 
L 516.34517 170.839294 
L 516.626989 170.48447 
L 516.908807 170.989119 
L 517.472443 170.684102 
L 517.754261 170.766274 
L 518.03608 171.156028 
L 518.317898 170.50815 
L 518.599716 170.498005 
L 518.881534 170.718828 
L 519.163352 170.310759 
L 519.44517 170.5364 
L 519.726989 169.379687 
L 520.008807 170.221347 
L 520.290625 170.488203 
L 520.854261 169.40758 
L 521.13608 169.457488 
L 521.417898 169.909514 
L 521.981534 170.220064 
L 522.263352 169.559103 
L 522.54517 169.81567 
L 522.826989 170.503716 
L 523.108807 170.543719 
L 523.390625 170.429359 
L 523.672443 169.9001 
L 523.954261 170.186184 
L 524.23608 170.103023 
L 524.517898 170.140931 
L 524.799716 169.75304 
L 525.363352 170.209605 
L 525.926989 169.897364 
L 526.208807 170.003408 
L 526.490625 169.786 
L 526.772443 170.235262 
L 527.33608 170.173283 
L 527.617898 169.856806 
L 527.899716 170.607807 
L 528.181534 170.295063 
L 528.463352 170.433463 
L 528.74517 170.028358 
L 529.026989 170.25451 
L 529.308807 169.803228 
L 529.590625 170.111661 
L 529.872443 170.090383 
L 530.154261 170.193615 
L 530.43608 170.04925 
L 530.717898 170.240987 
L 530.999716 170.019245 
L 531.281534 170.356316 
L 531.563352 169.932978 
L 531.84517 169.781861 
L 532.126989 170.119561 
L 532.408807 170.240678 
L 532.690625 169.796625 
L 532.972443 169.740291 
L 533.53608 169.868125 
L 533.817898 169.789548 
L 534.099716 170.306549 
L 534.663352 169.943338 
L 534.94517 169.964621 
L 535.226989 170.112339 
L 535.508807 169.890079 
L 536.354261 170.154252 
L 536.917898 169.830085 
L 537.481534 170.035574 
L 537.763352 169.96411 
L 538.04517 170.19651 
L 538.326989 170.124903 
L 538.608807 169.750201 
L 538.890625 170.142028 
L 539.172443 170.089279 
L 539.454261 170.169625 
L 539.73608 169.980181 
L 540.017898 170.072679 
L 540.299716 169.69679 
L 541.14517 170.067291 
L 541.426989 169.768436 
L 541.990625 170.329441 
L 542.272443 169.717476 
L 543.117898 170.37033 
L 543.681534 169.798504 
L 544.24517 169.892785 
L 544.526989 169.838695 
L 545.654261 170.142603 
L 545.93608 169.815969 
L 546.781534 170.255645 
L 547.063352 169.837573 
L 547.626989 170.514473 
L 547.908807 170.115136 
L 548.190625 170.179203 
L 549.03608 169.914225 
L 549.317898 170.14048 
L 549.599716 169.886364 
L 550.163352 170.130107 
L 550.44517 170.514416 
L 551.008807 170.139558 
L 551.290625 170.229449 
L 551.572443 170.066506 
L 552.13608 170.166213 
L 552.417898 169.769202 
L 553.263352 170.101046 
L 553.54517 170.553017 
L 553.826989 169.945876 
L 554.108807 170.468837 
L 554.390625 169.981586 
L 555.23608 170.300559 
L 555.517898 169.990864 
L 555.799716 170.087962 
L 556.081534 169.895133 
L 556.64517 170.269235 
L 556.926989 170.07151 
L 557.208807 170.142151 
L 557.772443 169.926903 
L 558.33608 170.201349 
L 558.899716 169.999603 
L 559.181534 170.569194 
L 559.463352 170.222117 
L 559.74517 170.172443 
L 560.026989 170.006709 
L 560.308807 170.544964 
L 560.590625 170.251139 
L 560.872443 170.214946 
L 561.154261 170.354834 
L 561.717898 170.13552 
L 561.999716 170.345892 
L 562.563352 170.285244 
L 562.84517 170.107642 
L 563.126989 170.313011 
L 563.408807 170.033929 
L 563.690625 170.206589 
L 564.254261 170.005461 
L 564.53608 170.317936 
L 564.817898 170.414495 
L 565.099716 170.223989 
L 565.94517 170.459556 
L 566.226989 170.165012 
L 566.508807 170.269226 
L 566.790625 170.568363 
L 567.072443 170.262678 
L 567.354261 170.177004 
L 567.63608 170.322934 
L 568.199716 170.022706 
L 568.763352 170.28113 
L 569.04517 169.990611 
L 569.608807 169.916602 
L 569.890625 170.237079 
L 570.172443 169.960911 
L 570.454261 170.364318 
L 570.73608 169.965113 
L 571.017898 170.44508 
L 571.299716 169.935285 
L 571.581534 170.511652 
L 572.14517 170.04903 
L 572.426989 170.1393 
L 572.708807 170.043227 
L 572.990625 169.752425 
L 573.272443 170.087228 
L 574.681534 170.180613 
L 574.963352 170.137237 
L 575.24517 170.420739 
L 575.526989 170.187108 
L 575.808807 170.172829 
L 576.090625 170.288888 
L 576.372443 170.227955 
L 576.654261 170.372897 
L 576.93608 170.339441 
L 577.217898 170.052828 
L 577.499716 170.430456 
L 577.781534 170.512966 
L 578.063352 170.216632 
L 578.34517 170.168394 
L 578.626989 170.597179 
L 578.908807 170.415844 
L 579.190625 170.407801 
L 579.754261 170.251961 
L 580.03608 170.301238 
L 580.317898 170.201765 
L 580.599716 170.343465 
L 580.881534 170.155091 
L 581.163352 170.534622 
L 581.44517 170.115658 
L 582.008807 170.632504 
L 582.290625 170.520263 
L 582.572443 170.746337 
L 582.854261 170.512268 
L 583.13608 170.558273 
L 583.417898 170.107103 
L 585.390625 170.420587 
L 585.672443 170.24225 
L 585.954261 170.329623 
L 586.799716 170.901106 
L 587.64517 170.302748 
L 587.926989 170.283435 
L 588.208807 170.415477 
L 589.054261 170.181385 
L 589.33608 170.340429 
L 589.617898 170.212499 
L 589.899716 170.510135 
L 590.181534 170.370799 
L 590.463352 170.458278 
L 590.74517 170.313058 
L 591.590625 170.690659 
L 592.154261 170.191558 
L 592.717898 170.579398 
L 592.999716 170.520471 
L 593.281534 170.711689 
L 593.563352 170.443268 
L 594.126989 170.331373 
L 594.408807 170.402224 
L 594.690625 170.025763 
L 595.53608 170.639004 
L 595.817898 170.36777 
L 596.099716 170.425402 
L 596.663352 170.263628 
L 596.94517 170.454974 
L 597.226989 170.345345 
L 597.508807 170.528494 
L 598.072443 170.372336 
L 598.354261 170.651882 
L 598.917898 170.474469 
L 599.199716 170.872342 
L 599.481534 170.764049 
L 599.763352 170.875791 
L 600.04517 170.605405 
L 600.326989 170.726558 
L 600.608807 170.248236 
L 600.890625 170.544836 
L 601.454261 170.690939 
L 602.299716 170.490801 
L 602.581534 170.727427 
L 602.863352 170.516969 
L 603.14517 170.460856 
L 603.426989 170.812739 
L 603.708807 170.204815 
L 603.990625 170.737862 
L 605.117898 170.691841 
L 605.399716 170.44867 
L 605.681534 170.51276 
L 605.963352 170.769484 
L 606.24517 170.483301 
L 606.526989 170.649491 
L 606.808807 170.460552 
L 607.090625 170.594565 
L 607.93608 170.464806 
L 608.217898 170.852139 
L 608.499716 170.623217 
L 608.781534 170.707789 
L 609.063352 170.430543 
L 609.626989 170.535105 
L 609.908807 170.401987 
L 610.190625 170.457276 
L 610.472443 170.803882 
L 610.754261 170.400976 
L 611.03608 170.584671 
L 611.317898 170.349334 
L 611.599716 170.6198 
L 611.881534 170.65072 
L 612.163352 170.550202 
L 612.44517 170.269772 
L 612.726989 170.360432 
L 613.008807 170.703495 
L 613.572443 170.241523 
L 613.854261 170.508442 
L 614.13608 170.360002 
L 616.108807 170.589898 
L 616.390625 170.837574 
L 616.954261 170.403738 
L 617.517898 170.579392 
L 617.799716 170.450817 
L 618.081534 170.655335 
L 618.363352 170.717163 
L 618.926989 170.393596 
L 619.208807 170.828214 
L 619.490625 170.746754 
L 619.772443 170.488625 
L 620.054261 170.647759 
L 620.33608 170.499064 
L 620.617898 170.73663 
L 620.899716 170.432625 
L 621.181534 170.345994 
L 621.463352 170.639852 
L 621.74517 170.653434 
L 622.026989 170.489194 
L 622.308807 170.825032 
L 622.590625 170.622037 
L 622.872443 170.715074 
L 623.717898 170.084795 
L 624.281534 170.425009 
L 624.563352 170.25709 
L 625.126989 170.278545 
L 625.126989 170.278545 
" clip-path="url(#p8345550717)" style="fill: none; stroke: #ff7f0e; stroke-width: 1.5; stroke-linecap: square"/>
   </g>
   <g id="patch_3">
    <path d="M 92.490625 308.63625 
L 92.490625 31.43625 
" style="fill: none; stroke: #000000; stroke-width: 0.8; stroke-linejoin: miter; stroke-linecap: square"/>
   </g>
   <g id="patch_4">
    <path d="M 650.490625 308.63625 
L 650.490625 31.43625 
" style="fill: none; stroke: #000000; stroke-width: 0.8; stroke-linejoin: miter; stroke-linecap: square"/>
   </g>
   <g id="patch_5">
    <path d="M 92.490625 308.63625 
L 650.490625 308.63625 
" style="fill: none; stroke: #000000; stroke-width: 0.8; stroke-linejoin: miter; stroke-linecap: square"/>
   </g>
   <g id="patch_6">
    <path d="M 92.490625 31.43625 
L 650.490625 31.43625 
" style="fill: none; stroke: #000000; stroke-width: 0.8; stroke-linejoin: miter; stroke-linecap: square"/>
   </g>
   <g id="text_16">
    <!-- Generator and Discriminator Loss During Training -->
    <g transform="translate(74.258125 25.43625) scale(0.24 -0.24)">
     <defs>
      <path id="DejaVuSans-47" d="M 3809 666 
L 3809 1919 
L 2778 1919 
L 2778 2438 
L 4434 2438 
L 4434 434 
Q 4069 175 3628 42 
Q 3188 -91 2688 -91 
Q 1594 -91 976 548 
Q 359 1188 359 2328 
Q 359 3472 976 4111 
Q 1594 4750 2688 4750 
Q 3144 4750 3555 4637 
Q 3966 4525 4313 4306 
L 4313 3634 
Q 3963 3931 3569 4081 
Q 3175 4231 2741 4231 
Q 1884 4231 1454 3753 
Q 1025 3275 1025 2328 
Q 1025 1384 1454 906 
Q 1884 428 2741 428 
Q 3075 428 3337 486 
Q 3600 544 3809 666 
z
" transform="scale(0.015625)"/>
      <path id="DejaVuSans-20" transform="scale(0.015625)"/>
      <path id="DejaVuSans-64" d="M 2906 2969 
L 2906 4863 
L 3481 4863 
L 3481 0 
L 2906 0 
L 2906 525 
Q 2725 213 2448 61 
Q 2172 -91 1784 -91 
Q 1150 -91 751 415 
Q 353 922 353 1747 
Q 353 2572 751 3078 
Q 1150 3584 1784 3584 
Q 2172 3584 2448 3432 
Q 2725 3281 2906 2969 
z
M 947 1747 
Q 947 1113 1208 752 
Q 1469 391 1925 391 
Q 2381 391 2643 752 
Q 2906 1113 2906 1747 
Q 2906 2381 2643 2742 
Q 2381 3103 1925 3103 
Q 1469 3103 1208 2742 
Q 947 2381 947 1747 
z
" transform="scale(0.015625)"/>
      <path id="DejaVuSans-44" d="M 1259 4147 
L 1259 519 
L 2022 519 
Q 2988 519 3436 956 
Q 3884 1394 3884 2338 
Q 3884 3275 3436 3711 
Q 2988 4147 2022 4147 
L 1259 4147 
z
M 628 4666 
L 1925 4666 
Q 3281 4666 3915 4102 
Q 4550 3538 4550 2338 
Q 4550 1131 3912 565 
Q 3275 0 1925 0 
L 628 0 
L 628 4666 
z
" transform="scale(0.015625)"/>
      <path id="DejaVuSans-63" d="M 3122 3366 
L 3122 2828 
Q 2878 2963 2633 3030 
Q 2388 3097 2138 3097 
Q 1578 3097 1268 2742 
Q 959 2388 959 1747 
Q 959 1106 1268 751 
Q 1578 397 2138 397 
Q 2388 397 2633 464 
Q 2878 531 3122 666 
L 3122 134 
Q 2881 22 2623 -34 
Q 2366 -91 2075 -91 
Q 1284 -91 818 406 
Q 353 903 353 1747 
Q 353 2603 823 3093 
Q 1294 3584 2113 3584 
Q 2378 3584 2631 3529 
Q 2884 3475 3122 3366 
z
" transform="scale(0.015625)"/>
      <path id="DejaVuSans-6d" d="M 3328 2828 
Q 3544 3216 3844 3400 
Q 4144 3584 4550 3584 
Q 5097 3584 5394 3201 
Q 5691 2819 5691 2113 
L 5691 0 
L 5113 0 
L 5113 2094 
Q 5113 2597 4934 2840 
Q 4756 3084 4391 3084 
Q 3944 3084 3684 2787 
Q 3425 2491 3425 1978 
L 3425 0 
L 2847 0 
L 2847 2094 
Q 2847 2600 2669 2842 
Q 2491 3084 2119 3084 
Q 1678 3084 1418 2786 
Q 1159 2488 1159 1978 
L 1159 0 
L 581 0 
L 581 3500 
L 1159 3500 
L 1159 2956 
Q 1356 3278 1631 3431 
Q 1906 3584 2284 3584 
Q 2666 3584 2933 3390 
Q 3200 3197 3328 2828 
z
" transform="scale(0.015625)"/>
      <path id="DejaVuSans-75" d="M 544 1381 
L 544 3500 
L 1119 3500 
L 1119 1403 
Q 1119 906 1312 657 
Q 1506 409 1894 409 
Q 2359 409 2629 706 
Q 2900 1003 2900 1516 
L 2900 3500 
L 3475 3500 
L 3475 0 
L 2900 0 
L 2900 538 
Q 2691 219 2414 64 
Q 2138 -91 1772 -91 
Q 1169 -91 856 284 
Q 544 659 544 1381 
z
M 1991 3584 
L 1991 3584 
z
" transform="scale(0.015625)"/>
      <path id="DejaVuSans-67" d="M 2906 1791 
Q 2906 2416 2648 2759 
Q 2391 3103 1925 3103 
Q 1463 3103 1205 2759 
Q 947 2416 947 1791 
Q 947 1169 1205 825 
Q 1463 481 1925 481 
Q 2391 481 2648 825 
Q 2906 1169 2906 1791 
z
M 3481 434 
Q 3481 -459 3084 -895 
Q 2688 -1331 1869 -1331 
Q 1566 -1331 1297 -1286 
Q 1028 -1241 775 -1147 
L 775 -588 
Q 1028 -725 1275 -790 
Q 1522 -856 1778 -856 
Q 2344 -856 2625 -561 
Q 2906 -266 2906 331 
L 2906 616 
Q 2728 306 2450 153 
Q 2172 0 1784 0 
Q 1141 0 747 490 
Q 353 981 353 1791 
Q 353 2603 747 3093 
Q 1141 3584 1784 3584 
Q 2172 3584 2450 3431 
Q 2728 3278 2906 2969 
L 2906 3500 
L 3481 3500 
L 3481 434 
z
" transform="scale(0.015625)"/>
      <path id="DejaVuSans-54" d="M -19 4666 
L 3928 4666 
L 3928 4134 
L 2272 4134 
L 2272 0 
L 1638 0 
L 1638 4134 
L -19 4134 
L -19 4666 
z
" transform="scale(0.015625)"/>
     </defs>
     <use xlink:href="#DejaVuSans-47"/>
     <use xlink:href="#DejaVuSans-65" x="77.490234"/>
     <use xlink:href="#DejaVuSans-6e" x="139.013672"/>
     <use xlink:href="#DejaVuSans-65" x="202.392578"/>
     <use xlink:href="#DejaVuSans-72" x="263.916016"/>
     <use xlink:href="#DejaVuSans-61" x="305.029297"/>
     <use xlink:href="#DejaVuSans-74" x="366.308594"/>
     <use xlink:href="#DejaVuSans-6f" x="405.517578"/>
     <use xlink:href="#DejaVuSans-72" x="466.699219"/>
     <use xlink:href="#DejaVuSans-20" x="507.8125"/>
     <use xlink:href="#DejaVuSans-61" x="539.599609"/>
     <use xlink:href="#DejaVuSans-6e" x="600.878906"/>
     <use xlink:href="#DejaVuSans-64" x="664.257812"/>
     <use xlink:href="#DejaVuSans-20" x="727.734375"/>
     <use xlink:href="#DejaVuSans-44" x="759.521484"/>
     <use xlink:href="#DejaVuSans-69" x="836.523438"/>
     <use xlink:href="#DejaVuSans-73" x="864.306641"/>
     <use xlink:href="#DejaVuSans-63" x="916.40625"/>
     <use xlink:href="#DejaVuSans-72" x="971.386719"/>
     <use xlink:href="#DejaVuSans-69" x="1012.5"/>
     <use xlink:href="#DejaVuSans-6d" x="1040.283203"/>
     <use xlink:href="#DejaVuSans-69" x="1137.695312"/>
     <use xlink:href="#DejaVuSans-6e" x="1165.478516"/>
     <use xlink:href="#DejaVuSans-61" x="1228.857422"/>
     <use xlink:href="#DejaVuSans-74" x="1290.136719"/>
     <use xlink:href="#DejaVuSans-6f" x="1329.345703"/>
     <use xlink:href="#DejaVuSans-72" x="1390.527344"/>
     <use xlink:href="#DejaVuSans-20" x="1431.640625"/>
     <use xlink:href="#DejaVuSans-4c" x="1463.427734"/>
     <use xlink:href="#DejaVuSans-6f" x="1517.390625"/>
     <use xlink:href="#DejaVuSans-73" x="1578.572266"/>
     <use xlink:href="#DejaVuSans-73" x="1630.671875"/>
     <use xlink:href="#DejaVuSans-20" x="1682.771484"/>
     <use xlink:href="#DejaVuSans-44" x="1714.558594"/>
     <use xlink:href="#DejaVuSans-75" x="1791.560547"/>
     <use xlink:href="#DejaVuSans-72" x="1854.939453"/>
     <use xlink:href="#DejaVuSans-69" x="1896.052734"/>
     <use xlink:href="#DejaVuSans-6e" x="1923.835938"/>
     <use xlink:href="#DejaVuSans-67" x="1987.214844"/>
     <use xlink:href="#DejaVuSans-20" x="2050.691406"/>
     <use xlink:href="#DejaVuSans-54" x="2082.478516"/>
     <use xlink:href="#DejaVuSans-72" x="2128.8125"/>
     <use xlink:href="#DejaVuSans-61" x="2169.925781"/>
     <use xlink:href="#DejaVuSans-69" x="2231.205078"/>
     <use xlink:href="#DejaVuSans-6e" x="2258.988281"/>
     <use xlink:href="#DejaVuSans-69" x="2322.367188"/>
     <use xlink:href="#DejaVuSans-6e" x="2350.150391"/>
     <use xlink:href="#DejaVuSans-67" x="2413.529297"/>
    </g>
   </g>
   <g id="legend_1">
    <g id="patch_7">
     <path d="M 556.99375 106.14875 
L 636.490625 106.14875 
Q 640.490625 106.14875 640.490625 102.14875 
L 640.490625 45.43625 
Q 640.490625 41.43625 636.490625 41.43625 
L 556.99375 41.43625 
Q 552.99375 41.43625 552.99375 45.43625 
L 552.99375 102.14875 
Q 552.99375 106.14875 556.99375 106.14875 
z
" style="fill: #ffffff; opacity: 0.8; stroke: #cccccc; stroke-linejoin: miter"/>
    </g>
    <g id="line2d_16">
     <path d="M 560.99375 57.633125 
L 580.99375 57.633125 
L 600.99375 57.633125 
" style="fill: none; stroke: #1f77b4; stroke-width: 1.5; stroke-linecap: square"/>
    </g>
    <g id="text_17">
     <!-- G -->
     <g transform="translate(616.99375 64.633125) scale(0.2 -0.2)">
      <use xlink:href="#DejaVuSans-47"/>
     </g>
    </g>
    <g id="line2d_17">
     <path d="M 560.99375 86.989375 
L 580.99375 86.989375 
L 600.99375 86.989375 
" style="fill: none; stroke: #ff7f0e; stroke-width: 1.5; stroke-linecap: square"/>
    </g>
    <g id="text_18">
     <!-- D -->
     <g transform="translate(616.99375 93.989375) scale(0.2 -0.2)">
      <use xlink:href="#DejaVuSans-44"/>
     </g>
    </g>
   </g>
  </g>
 </g>
 <defs>
  <clipPath id="p8345550717">
   <rect x="92.490625" y="31.43625" width="558" height="277.2"/>
  </clipPath>
 </defs>
</svg>
