<?xml version="1.0" encoding="utf-8" standalone="no"?>
<!DOCTYPE svg PUBLIC "-//W3C//DTD SVG 1.1//EN"
  "http://www.w3.org/Graphics/SVG/1.1/DTD/svg11.dtd">
<svg xmlns:xlink="http://www.w3.org/1999/xlink" width="675.923125pt" height="365.54875pt" viewBox="0 0 675.923125 365.54875" xmlns="http://www.w3.org/2000/svg" version="1.1">
 <metadata>
  <rdf:RDF xmlns:dc="http://purl.org/dc/elements/1.1/" xmlns:cc="http://creativecommons.org/ns#" xmlns:rdf="http://www.w3.org/1999/02/22-rdf-syntax-ns#">
   <cc:Work>
    <dc:type rdf:resource="http://purl.org/dc/dcmitype/StillImage"/>
    <dc:date>2024-02-12T18:48:19.224720</dc:date>
    <dc:format>image/svg+xml</dc:format>
    <dc:creator>
     <cc:Agent>
      <dc:title>Matplotlib v3.7.2, https://matplotlib.org/</dc:title>
     </cc:Agent>
    </dc:creator>
   </cc:Work>
  </rdf:RDF>
 </metadata>
 <defs>
  <style type="text/css">*{stroke-linejoin: round; stroke-linecap: butt}</style>
 </defs>
 <g id="figure_1">
  <g id="patch_1">
   <path d="M 0 365.54875 
L 675.923125 365.54875 
L 675.923125 -0 
L 0 -0 
z
" style="fill: #ffffff"/>
  </g>
  <g id="axes_1">
   <g id="patch_2">
    <path d="M 92.490625 308.63625 
L 650.490625 308.63625 
L 650.490625 31.43625 
L 92.490625 31.43625 
z
" style="fill: #ffffff"/>
   </g>
   <g id="matplotlib.axis_1">
    <g id="xtick_1">
     <g id="line2d_1">
      <defs>
       <path id="m8ede2bc609" d="M 0 0 
L 0 3.5 
" style="stroke: #000000; stroke-width: 0.8"/>
      </defs>
      <g>
       <use xlink:href="#m8ede2bc609" x="117.854261" y="308.63625" style="stroke: #000000; stroke-width: 0.8"/>
      </g>
     </g>
     <g id="text_1">
      <!-- 0 -->
      <g transform="translate(111.491761 330.833125) scale(0.2 -0.2)">
       <defs>
        <path id="DejaVuSans-30" d="M 2034 4250 
Q 1547 4250 1301 3770 
Q 1056 3291 1056 2328 
Q 1056 1369 1301 889 
Q 1547 409 2034 409 
Q 2525 409 2770 889 
Q 3016 1369 3016 2328 
Q 3016 3291 2770 3770 
Q 2525 4250 2034 4250 
z
M 2034 4750 
Q 2819 4750 3233 4129 
Q 3647 3509 3647 2328 
Q 3647 1150 3233 529 
Q 2819 -91 2034 -91 
Q 1250 -91 836 529 
Q 422 1150 422 2328 
Q 422 3509 836 4129 
Q 1250 4750 2034 4750 
z
" transform="scale(0.015625)"/>
       </defs>
       <use xlink:href="#DejaVuSans-30"/>
      </g>
     </g>
    </g>
    <g id="xtick_2">
     <g id="line2d_2">
      <g>
       <use xlink:href="#m8ede2bc609" x="202.399716" y="308.63625" style="stroke: #000000; stroke-width: 0.8"/>
      </g>
     </g>
     <g id="text_2">
      <!-- 200 -->
      <g transform="translate(183.312216 330.833125) scale(0.2 -0.2)">
       <defs>
        <path id="DejaVuSans-32" d="M 1228 531 
L 3431 531 
L 3431 0 
L 469 0 
L 469 531 
Q 828 903 1448 1529 
Q 2069 2156 2228 2338 
Q 2531 2678 2651 2914 
Q 2772 3150 2772 3378 
Q 2772 3750 2511 3984 
Q 2250 4219 1831 4219 
Q 1534 4219 1204 4116 
Q 875 4013 500 3803 
L 500 4441 
Q 881 4594 1212 4672 
Q 1544 4750 1819 4750 
Q 2544 4750 2975 4387 
Q 3406 4025 3406 3419 
Q 3406 3131 3298 2873 
Q 3191 2616 2906 2266 
Q 2828 2175 2409 1742 
Q 1991 1309 1228 531 
z
" transform="scale(0.015625)"/>
       </defs>
       <use xlink:href="#DejaVuSans-32"/>
       <use xlink:href="#DejaVuSans-30" x="63.623047"/>
       <use xlink:href="#DejaVuSans-30" x="127.246094"/>
      </g>
     </g>
    </g>
    <g id="xtick_3">
     <g id="line2d_3">
      <g>
       <use xlink:href="#m8ede2bc609" x="286.94517" y="308.63625" style="stroke: #000000; stroke-width: 0.8"/>
      </g>
     </g>
     <g id="text_3">
      <!-- 400 -->
      <g transform="translate(267.85767 330.833125) scale(0.2 -0.2)">
       <defs>
        <path id="DejaVuSans-34" d="M 2419 4116 
L 825 1625 
L 2419 1625 
L 2419 4116 
z
M 2253 4666 
L 3047 4666 
L 3047 1625 
L 3713 1625 
L 3713 1100 
L 3047 1100 
L 3047 0 
L 2419 0 
L 2419 1100 
L 313 1100 
L 313 1709 
L 2253 4666 
z
" transform="scale(0.015625)"/>
       </defs>
       <use xlink:href="#DejaVuSans-34"/>
       <use xlink:href="#DejaVuSans-30" x="63.623047"/>
       <use xlink:href="#DejaVuSans-30" x="127.246094"/>
      </g>
     </g>
    </g>
    <g id="xtick_4">
     <g id="line2d_4">
      <g>
       <use xlink:href="#m8ede2bc609" x="371.490625" y="308.63625" style="stroke: #000000; stroke-width: 0.8"/>
      </g>
     </g>
     <g id="text_4">
      <!-- 600 -->
      <g transform="translate(352.403125 330.833125) scale(0.2 -0.2)">
       <defs>
        <path id="DejaVuSans-36" d="M 2113 2584 
Q 1688 2584 1439 2293 
Q 1191 2003 1191 1497 
Q 1191 994 1439 701 
Q 1688 409 2113 409 
Q 2538 409 2786 701 
Q 3034 994 3034 1497 
Q 3034 2003 2786 2293 
Q 2538 2584 2113 2584 
z
M 3366 4563 
L 3366 3988 
Q 3128 4100 2886 4159 
Q 2644 4219 2406 4219 
Q 1781 4219 1451 3797 
Q 1122 3375 1075 2522 
Q 1259 2794 1537 2939 
Q 1816 3084 2150 3084 
Q 2853 3084 3261 2657 
Q 3669 2231 3669 1497 
Q 3669 778 3244 343 
Q 2819 -91 2113 -91 
Q 1303 -91 875 529 
Q 447 1150 447 2328 
Q 447 3434 972 4092 
Q 1497 4750 2381 4750 
Q 2619 4750 2861 4703 
Q 3103 4656 3366 4563 
z
" transform="scale(0.015625)"/>
       </defs>
       <use xlink:href="#DejaVuSans-36"/>
       <use xlink:href="#DejaVuSans-30" x="63.623047"/>
       <use xlink:href="#DejaVuSans-30" x="127.246094"/>
      </g>
     </g>
    </g>
    <g id="xtick_5">
     <g id="line2d_5">
      <g>
       <use xlink:href="#m8ede2bc609" x="456.03608" y="308.63625" style="stroke: #000000; stroke-width: 0.8"/>
      </g>
     </g>
     <g id="text_5">
      <!-- 800 -->
      <g transform="translate(436.94858 330.833125) scale(0.2 -0.2)">
       <defs>
        <path id="DejaVuSans-38" d="M 2034 2216 
Q 1584 2216 1326 1975 
Q 1069 1734 1069 1313 
Q 1069 891 1326 650 
Q 1584 409 2034 409 
Q 2484 409 2743 651 
Q 3003 894 3003 1313 
Q 3003 1734 2745 1975 
Q 2488 2216 2034 2216 
z
M 1403 2484 
Q 997 2584 770 2862 
Q 544 3141 544 3541 
Q 544 4100 942 4425 
Q 1341 4750 2034 4750 
Q 2731 4750 3128 4425 
Q 3525 4100 3525 3541 
Q 3525 3141 3298 2862 
Q 3072 2584 2669 2484 
Q 3125 2378 3379 2068 
Q 3634 1759 3634 1313 
Q 3634 634 3220 271 
Q 2806 -91 2034 -91 
Q 1263 -91 848 271 
Q 434 634 434 1313 
Q 434 1759 690 2068 
Q 947 2378 1403 2484 
z
M 1172 3481 
Q 1172 3119 1398 2916 
Q 1625 2713 2034 2713 
Q 2441 2713 2670 2916 
Q 2900 3119 2900 3481 
Q 2900 3844 2670 4047 
Q 2441 4250 2034 4250 
Q 1625 4250 1398 4047 
Q 1172 3844 1172 3481 
z
" transform="scale(0.015625)"/>
       </defs>
       <use xlink:href="#DejaVuSans-38"/>
       <use xlink:href="#DejaVuSans-30" x="63.623047"/>
       <use xlink:href="#DejaVuSans-30" x="127.246094"/>
      </g>
     </g>
    </g>
    <g id="xtick_6">
     <g id="line2d_6">
      <g>
       <use xlink:href="#m8ede2bc609" x="540.581534" y="308.63625" style="stroke: #000000; stroke-width: 0.8"/>
      </g>
     </g>
     <g id="text_6">
      <!-- 1000 -->
      <g transform="translate(515.131534 330.833125) scale(0.2 -0.2)">
       <defs>
        <path id="DejaVuSans-31" d="M 794 531 
L 1825 531 
L 1825 4091 
L 703 3866 
L 703 4441 
L 1819 4666 
L 2450 4666 
L 2450 531 
L 3481 531 
L 3481 0 
L 794 0 
L 794 531 
z
" transform="scale(0.015625)"/>
       </defs>
       <use xlink:href="#DejaVuSans-31"/>
       <use xlink:href="#DejaVuSans-30" x="63.623047"/>
       <use xlink:href="#DejaVuSans-30" x="127.246094"/>
       <use xlink:href="#DejaVuSans-30" x="190.869141"/>
      </g>
     </g>
    </g>
    <g id="xtick_7">
     <g id="line2d_7">
      <g>
       <use xlink:href="#m8ede2bc609" x="625.126989" y="308.63625" style="stroke: #000000; stroke-width: 0.8"/>
      </g>
     </g>
     <g id="text_7">
      <!-- 1200 -->
      <g transform="translate(599.676989 330.833125) scale(0.2 -0.2)">
       <use xlink:href="#DejaVuSans-31"/>
       <use xlink:href="#DejaVuSans-32" x="63.623047"/>
       <use xlink:href="#DejaVuSans-30" x="127.246094"/>
       <use xlink:href="#DejaVuSans-30" x="190.869141"/>
      </g>
     </g>
    </g>
    <g id="text_8">
     <!-- iterations -->
     <g transform="translate(324.035938 354.189375) scale(0.2 -0.2)">
      <defs>
       <path id="DejaVuSans-69" d="M 603 3500 
L 1178 3500 
L 1178 0 
L 603 0 
L 603 3500 
z
M 603 4863 
L 1178 4863 
L 1178 4134 
L 603 4134 
L 603 4863 
z
" transform="scale(0.015625)"/>
       <path id="DejaVuSans-74" d="M 1172 4494 
L 1172 3500 
L 2356 3500 
L 2356 3053 
L 1172 3053 
L 1172 1153 
Q 1172 725 1289 603 
Q 1406 481 1766 481 
L 2356 481 
L 2356 0 
L 1766 0 
Q 1100 0 847 248 
Q 594 497 594 1153 
L 594 3053 
L 172 3053 
L 172 3500 
L 594 3500 
L 594 4494 
L 1172 4494 
z
" transform="scale(0.015625)"/>
       <path id="DejaVuSans-65" d="M 3597 1894 
L 3597 1613 
L 953 1613 
Q 991 1019 1311 708 
Q 1631 397 2203 397 
Q 2534 397 2845 478 
Q 3156 559 3463 722 
L 3463 178 
Q 3153 47 2828 -22 
Q 2503 -91 2169 -91 
Q 1331 -91 842 396 
Q 353 884 353 1716 
Q 353 2575 817 3079 
Q 1281 3584 2069 3584 
Q 2775 3584 3186 3129 
Q 3597 2675 3597 1894 
z
M 3022 2063 
Q 3016 2534 2758 2815 
Q 2500 3097 2075 3097 
Q 1594 3097 1305 2825 
Q 1016 2553 972 2059 
L 3022 2063 
z
" transform="scale(0.015625)"/>
       <path id="DejaVuSans-72" d="M 2631 2963 
Q 2534 3019 2420 3045 
Q 2306 3072 2169 3072 
Q 1681 3072 1420 2755 
Q 1159 2438 1159 1844 
L 1159 0 
L 581 0 
L 581 3500 
L 1159 3500 
L 1159 2956 
Q 1341 3275 1631 3429 
Q 1922 3584 2338 3584 
Q 2397 3584 2469 3576 
Q 2541 3569 2628 3553 
L 2631 2963 
z
" transform="scale(0.015625)"/>
       <path id="DejaVuSans-61" d="M 2194 1759 
Q 1497 1759 1228 1600 
Q 959 1441 959 1056 
Q 959 750 1161 570 
Q 1363 391 1709 391 
Q 2188 391 2477 730 
Q 2766 1069 2766 1631 
L 2766 1759 
L 2194 1759 
z
M 3341 1997 
L 3341 0 
L 2766 0 
L 2766 531 
Q 2569 213 2275 61 
Q 1981 -91 1556 -91 
Q 1019 -91 701 211 
Q 384 513 384 1019 
Q 384 1609 779 1909 
Q 1175 2209 1959 2209 
L 2766 2209 
L 2766 2266 
Q 2766 2663 2505 2880 
Q 2244 3097 1772 3097 
Q 1472 3097 1187 3025 
Q 903 2953 641 2809 
L 641 3341 
Q 956 3463 1253 3523 
Q 1550 3584 1831 3584 
Q 2591 3584 2966 3190 
Q 3341 2797 3341 1997 
z
" transform="scale(0.015625)"/>
       <path id="DejaVuSans-6f" d="M 1959 3097 
Q 1497 3097 1228 2736 
Q 959 2375 959 1747 
Q 959 1119 1226 758 
Q 1494 397 1959 397 
Q 2419 397 2687 759 
Q 2956 1122 2956 1747 
Q 2956 2369 2687 2733 
Q 2419 3097 1959 3097 
z
M 1959 3584 
Q 2709 3584 3137 3096 
Q 3566 2609 3566 1747 
Q 3566 888 3137 398 
Q 2709 -91 1959 -91 
Q 1206 -91 779 398 
Q 353 888 353 1747 
Q 353 2609 779 3096 
Q 1206 3584 1959 3584 
z
" transform="scale(0.015625)"/>
       <path id="DejaVuSans-6e" d="M 3513 2113 
L 3513 0 
L 2938 0 
L 2938 2094 
Q 2938 2591 2744 2837 
Q 2550 3084 2163 3084 
Q 1697 3084 1428 2787 
Q 1159 2491 1159 1978 
L 1159 0 
L 581 0 
L 581 3500 
L 1159 3500 
L 1159 2956 
Q 1366 3272 1645 3428 
Q 1925 3584 2291 3584 
Q 2894 3584 3203 3211 
Q 3513 2838 3513 2113 
z
" transform="scale(0.015625)"/>
       <path id="DejaVuSans-73" d="M 2834 3397 
L 2834 2853 
Q 2591 2978 2328 3040 
Q 2066 3103 1784 3103 
Q 1356 3103 1142 2972 
Q 928 2841 928 2578 
Q 928 2378 1081 2264 
Q 1234 2150 1697 2047 
L 1894 2003 
Q 2506 1872 2764 1633 
Q 3022 1394 3022 966 
Q 3022 478 2636 193 
Q 2250 -91 1575 -91 
Q 1294 -91 989 -36 
Q 684 19 347 128 
L 347 722 
Q 666 556 975 473 
Q 1284 391 1588 391 
Q 1994 391 2212 530 
Q 2431 669 2431 922 
Q 2431 1156 2273 1281 
Q 2116 1406 1581 1522 
L 1381 1569 
Q 847 1681 609 1914 
Q 372 2147 372 2553 
Q 372 3047 722 3315 
Q 1072 3584 1716 3584 
Q 2034 3584 2315 3537 
Q 2597 3491 2834 3397 
z
" transform="scale(0.015625)"/>
      </defs>
      <use xlink:href="#DejaVuSans-69"/>
      <use xlink:href="#DejaVuSans-74" x="27.783203"/>
      <use xlink:href="#DejaVuSans-65" x="66.992188"/>
      <use xlink:href="#DejaVuSans-72" x="128.515625"/>
      <use xlink:href="#DejaVuSans-61" x="169.628906"/>
      <use xlink:href="#DejaVuSans-74" x="230.908203"/>
      <use xlink:href="#DejaVuSans-69" x="270.117188"/>
      <use xlink:href="#DejaVuSans-6f" x="297.900391"/>
      <use xlink:href="#DejaVuSans-6e" x="359.082031"/>
      <use xlink:href="#DejaVuSans-73" x="422.460938"/>
     </g>
    </g>
   </g>
   <g id="matplotlib.axis_2">
    <g id="ytick_1">
     <g id="line2d_8">
      <defs>
       <path id="m10534a154d" d="M 0 0 
L -3.5 0 
" style="stroke: #000000; stroke-width: 0.8"/>
      </defs>
      <g>
       <use xlink:href="#m10534a154d" x="92.490625" y="287.754235" style="stroke: #000000; stroke-width: 0.8"/>
      </g>
     </g>
     <g id="text_9">
      <!-- −200 -->
      <g transform="translate(30.55625 295.352672) scale(0.2 -0.2)">
       <defs>
        <path id="DejaVuSans-2212" d="M 678 2272 
L 4684 2272 
L 4684 1741 
L 678 1741 
L 678 2272 
z
" transform="scale(0.015625)"/>
       </defs>
       <use xlink:href="#DejaVuSans-2212"/>
       <use xlink:href="#DejaVuSans-32" x="83.789062"/>
       <use xlink:href="#DejaVuSans-30" x="147.412109"/>
       <use xlink:href="#DejaVuSans-30" x="211.035156"/>
      </g>
     </g>
    </g>
    <g id="ytick_2">
     <g id="line2d_9">
      <g>
       <use xlink:href="#m10534a154d" x="92.490625" y="227.578386" style="stroke: #000000; stroke-width: 0.8"/>
      </g>
     </g>
     <g id="text_10">
      <!-- −100 -->
      <g transform="translate(30.55625 235.176823) scale(0.2 -0.2)">
       <use xlink:href="#DejaVuSans-2212"/>
       <use xlink:href="#DejaVuSans-31" x="83.789062"/>
       <use xlink:href="#DejaVuSans-30" x="147.412109"/>
       <use xlink:href="#DejaVuSans-30" x="211.035156"/>
      </g>
     </g>
    </g>
    <g id="ytick_3">
     <g id="line2d_10">
      <g>
       <use xlink:href="#m10534a154d" x="92.490625" y="167.402537" style="stroke: #000000; stroke-width: 0.8"/>
      </g>
     </g>
     <g id="text_11">
      <!-- 0 -->
      <g transform="translate(72.765625 175.000974) scale(0.2 -0.2)">
       <use xlink:href="#DejaVuSans-30"/>
      </g>
     </g>
    </g>
    <g id="ytick_4">
     <g id="line2d_11">
      <g>
       <use xlink:href="#m10534a154d" x="92.490625" y="107.226688" style="stroke: #000000; stroke-width: 0.8"/>
      </g>
     </g>
     <g id="text_12">
      <!-- 100 -->
      <g transform="translate(47.315625 114.825125) scale(0.2 -0.2)">
       <use xlink:href="#DejaVuSans-31"/>
       <use xlink:href="#DejaVuSans-30" x="63.623047"/>
       <use xlink:href="#DejaVuSans-30" x="127.246094"/>
      </g>
     </g>
    </g>
    <g id="ytick_5">
     <g id="line2d_12">
      <g>
       <use xlink:href="#m10534a154d" x="92.490625" y="47.050838" style="stroke: #000000; stroke-width: 0.8"/>
      </g>
     </g>
     <g id="text_13">
      <!-- 200 -->
      <g transform="translate(47.315625 54.649276) scale(0.2 -0.2)">
       <use xlink:href="#DejaVuSans-32"/>
       <use xlink:href="#DejaVuSans-30" x="63.623047"/>
       <use xlink:href="#DejaVuSans-30" x="127.246094"/>
      </g>
     </g>
    </g>
    <g id="text_14">
     <!-- Loss -->
     <g transform="translate(22.396875 191.970625) rotate(-90) scale(0.2 -0.2)">
      <defs>
       <path id="DejaVuSans-4c" d="M 628 4666 
L 1259 4666 
L 1259 531 
L 3531 531 
L 3531 0 
L 628 0 
L 628 4666 
z
" transform="scale(0.015625)"/>
      </defs>
      <use xlink:href="#DejaVuSans-4c"/>
      <use xlink:href="#DejaVuSans-6f" x="53.962891"/>
      <use xlink:href="#DejaVuSans-73" x="115.144531"/>
      <use xlink:href="#DejaVuSans-73" x="167.244141"/>
     </g>
    </g>
   </g>
   <g id="line2d_13">
    <path d="M 117.854261 138.53853 
L 118.276989 97.982964 
L 118.699716 117.083744 
L 119.122443 121.777179 
L 119.54517 104.43596 
L 119.967898 128.019774 
L 120.390625 117.918638 
L 120.813352 99.792773 
L 121.23608 123.303136 
L 121.658807 113.920019 
L 122.081534 107.215809 
L 122.504261 54.185175 
L 122.926989 44.586844 
L 123.349716 50.208405 
L 123.772443 65.431701 
L 124.19517 52.62134 
L 124.617898 44.03625 
L 125.040625 47.425516 
L 125.463352 53.255988 
L 125.88608 62.20203 
L 126.308807 54.058702 
L 126.731534 59.456177 
L 127.154261 109.140656 
L 127.576989 94.805897 
L 127.999716 87.78307 
L 128.422443 75.133855 
L 128.84517 98.959252 
L 129.267898 90.513457 
L 129.690625 91.353551 
L 130.113352 94.307751 
L 130.53608 99.862324 
L 130.958807 94.958193 
L 131.381534 93.356455 
L 132.226989 79.768648 
L 132.649716 81.625829 
L 133.072443 87.639335 
L 133.49517 98.247788 
L 133.917898 97.025522 
L 134.340625 100.470922 
L 134.763352 94.009915 
L 135.18608 108.302296 
L 135.608807 106.746361 
L 136.031534 111.813688 
L 136.454261 111.321942 
L 136.876989 109.609667 
L 137.299716 111.732825 
L 138.14517 118.313446 
L 138.567898 121.128737 
L 138.990625 118.243637 
L 139.413352 122.939672 
L 139.83608 114.006144 
L 140.258807 113.402414 
L 140.681534 118.336942 
L 141.104261 126.247555 
L 141.526989 117.705982 
L 141.949716 118.938384 
L 142.372443 115.501875 
L 142.79517 121.08746 
L 143.217898 119.267918 
L 143.640625 128.786107 
L 144.063352 128.140582 
L 144.48608 126.980209 
L 144.908807 127.736057 
L 145.331534 119.824596 
L 145.754261 123.041682 
L 146.176989 125.22985 
L 146.599716 132.060951 
L 147.022443 127.742292 
L 147.44517 128.726967 
L 147.867898 132.552166 
L 148.290625 126.842327 
L 148.713352 124.849238 
L 149.13608 134.387408 
L 149.558807 128.837998 
L 149.981534 132.134935 
L 150.404261 123.78468 
L 150.826989 132.616752 
L 151.249716 133.362101 
L 151.672443 130.522423 
L 152.09517 132.295449 
L 152.517898 130.881563 
L 152.940625 130.761392 
L 153.363352 136.851809 
L 153.78608 133.13345 
L 154.208807 136.862142 
L 154.631534 132.687554 
L 155.054261 136.323725 
L 155.476989 132.024156 
L 155.899716 135.651823 
L 156.322443 134.503783 
L 156.74517 138.447324 
L 157.167898 140.302657 
L 157.590625 137.326201 
L 158.43608 133.290565 
L 158.858807 132.866831 
L 159.281534 142.596344 
L 159.704261 144.986145 
L 160.549716 140.610362 
L 160.972443 141.500038 
L 161.39517 143.686115 
L 161.817898 140.210455 
L 162.240625 143.748127 
L 162.663352 145.84987 
L 163.08608 147.376432 
L 163.508807 144.567206 
L 163.931534 148.385484 
L 164.354261 146.372494 
L 164.776989 149.177832 
L 165.199716 150.583748 
L 165.622443 151.428518 
L 166.04517 151.65227 
L 166.467898 153.806823 
L 166.890625 151.359519 
L 167.313352 149.66105 
L 167.73608 150.094058 
L 168.158807 153.424061 
L 168.581534 153.379319 
L 169.004261 152.68978 
L 169.426989 148.221893 
L 169.849716 149.94797 
L 170.272443 150.801801 
L 170.69517 149.496023 
L 171.117898 153.426297 
L 171.540625 148.701191 
L 171.963352 155.673158 
L 172.38608 152.270783 
L 172.808807 152.812434 
L 173.231534 151.283283 
L 173.654261 151.61941 
L 174.076989 149.972005 
L 174.499716 149.445184 
L 174.922443 150.678389 
L 175.34517 153.782528 
L 175.767898 152.701329 
L 176.190625 150.58121 
L 176.613352 153.449759 
L 177.03608 152.054885 
L 178.304261 149.175368 
L 178.726989 152.92116 
L 179.149716 154.821874 
L 179.572443 154.122896 
L 179.99517 154.659618 
L 180.417898 154.935823 
L 180.840625 150.153039 
L 181.263352 153.838236 
L 181.68608 152.87849 
L 182.108807 156.117978 
L 182.531534 154.618691 
L 182.954261 155.286374 
L 183.376989 155.509007 
L 183.799716 155.203361 
L 184.222443 155.733462 
L 184.64517 154.610605 
L 185.067898 156.868743 
L 185.913352 154.86685 
L 186.33608 155.846898 
L 186.758807 155.5618 
L 187.181534 154.291763 
L 187.604261 156.186717 
L 188.026989 156.244531 
L 188.449716 155.715934 
L 188.872443 155.403453 
L 189.29517 155.782756 
L 189.717898 155.993486 
L 190.140625 155.337442 
L 190.563352 155.619744 
L 191.408807 157.322453 
L 191.831534 156.929476 
L 192.254261 155.284185 
L 192.676989 157.053882 
L 193.099716 154.679929 
L 193.522443 157.291986 
L 193.94517 156.903158 
L 194.367898 157.112578 
L 195.213352 158.666323 
L 195.63608 157.140524 
L 196.058807 157.121308 
L 196.481534 158.853463 
L 196.904261 159.363312 
L 197.326989 158.407733 
L 197.749716 158.277547 
L 198.172443 158.768124 
L 199.017898 159.348091 
L 199.440625 158.40205 
L 199.863352 158.776583 
L 200.28608 157.259794 
L 200.708807 157.809901 
L 201.131534 157.905638 
L 201.554261 160.304648 
L 201.976989 159.27558 
L 202.399716 160.198122 
L 202.822443 158.222625 
L 203.24517 158.653634 
L 203.667898 158.487327 
L 204.090625 158.747868 
L 204.513352 158.790748 
L 204.93608 157.779227 
L 205.781534 158.768348 
L 206.204261 157.9548 
L 206.626989 158.883566 
L 207.049716 159.266435 
L 207.472443 158.167248 
L 207.89517 157.931008 
L 208.317898 157.269122 
L 209.163352 159.245639 
L 210.008807 159.591384 
L 210.431534 158.906913 
L 210.854261 157.982647 
L 211.276989 158.460905 
L 211.699716 158.242813 
L 212.122443 157.491546 
L 212.54517 158.890922 
L 212.967898 159.897972 
L 213.390625 159.522708 
L 213.813352 158.755006 
L 214.23608 160.102913 
L 215.081534 159.911868 
L 215.504261 158.428562 
L 215.926989 158.256503 
L 216.349716 159.280037 
L 217.617898 160.666388 
L 218.463352 158.531589 
L 218.88608 160.376333 
L 219.308807 159.592961 
L 219.731534 159.596836 
L 220.154261 158.212775 
L 220.576989 158.965149 
L 220.999716 160.221803 
L 221.422443 160.554096 
L 221.84517 160.234987 
L 222.267898 159.189843 
L 223.113352 158.4345 
L 223.53608 159.29536 
L 223.958807 159.86907 
L 224.381534 159.834532 
L 225.226989 160.513438 
L 225.649716 160.132619 
L 226.072443 160.426465 
L 226.49517 160.383222 
L 226.917898 159.592069 
L 227.340625 160.667174 
L 227.763352 159.239572 
L 228.18608 161.504711 
L 228.608807 160.711068 
L 229.031534 160.321193 
L 229.454261 160.334656 
L 229.876989 160.4783 
L 230.299716 160.244258 
L 230.722443 160.241173 
L 231.14517 160.039621 
L 232.413352 158.951886 
L 232.83608 159.1988 
L 233.258807 159.780806 
L 233.681534 159.367018 
L 234.104261 158.507879 
L 234.526989 158.913263 
L 234.949716 158.653872 
L 235.372443 158.552491 
L 235.79517 159.409902 
L 236.217898 159.175904 
L 236.640625 158.624938 
L 237.48608 158.893202 
L 238.331534 160.264354 
L 238.754261 160.201945 
L 239.599716 158.650772 
L 240.022443 159.288537 
L 240.44517 160.520795 
L 240.867898 160.457279 
L 241.713352 158.257941 
L 242.13608 158.619133 
L 242.558807 159.745309 
L 242.981534 159.48481 
L 243.404261 159.978303 
L 243.826989 159.720556 
L 244.249716 159.612132 
L 244.672443 159.841911 
L 245.517898 160.510643 
L 246.363352 159.110659 
L 246.78608 159.040226 
L 247.208807 158.709458 
L 247.631534 159.419005 
L 248.054261 159.173452 
L 248.476989 159.518919 
L 248.899716 158.566461 
L 249.74517 159.499792 
L 250.590625 158.586841 
L 251.013352 158.811935 
L 251.43608 159.308052 
L 251.858807 158.76162 
L 252.281534 157.928456 
L 252.704261 158.267043 
L 253.126989 158.073122 
L 253.549716 158.023908 
L 254.817898 159.418039 
L 255.240625 159.162644 
L 255.663352 158.305005 
L 256.08608 158.181522 
L 256.508807 158.871983 
L 256.931534 158.207984 
L 257.354261 158.920037 
L 257.776989 158.307508 
L 258.199716 158.614952 
L 258.622443 157.895699 
L 259.04517 158.923532 
L 259.467898 158.600683 
L 259.890625 159.982429 
L 260.313352 158.452746 
L 260.73608 158.364598 
L 261.158807 158.53182 
L 261.581534 158.447831 
L 262.004261 159.631004 
L 262.426989 158.702739 
L 263.272443 158.844423 
L 263.69517 158.261884 
L 264.540625 158.876161 
L 264.963352 158.704879 
L 265.38608 158.966426 
L 265.808807 159.070848 
L 266.231534 159.870111 
L 266.654261 159.975019 
L 267.076989 160.596646 
L 267.499716 159.037911 
L 267.922443 159.577581 
L 268.34517 159.919207 
L 268.767898 159.970316 
L 269.190625 160.525837 
L 269.613352 159.82942 
L 270.03608 160.372563 
L 270.458807 160.469565 
L 270.881534 160.440517 
L 271.304261 160.545118 
L 271.726989 161.243255 
L 272.572443 161.95244 
L 272.99517 161.344446 
L 273.417898 162.230849 
L 273.840625 160.694473 
L 274.263352 161.529689 
L 274.68608 161.958084 
L 275.108807 161.981839 
L 275.531534 161.531251 
L 275.954261 162.091559 
L 276.376989 161.080496 
L 276.799716 161.420721 
L 277.222443 161.219607 
L 278.067898 163.802467 
L 278.490625 163.544163 
L 278.913352 162.374592 
L 279.33608 162.509576 
L 279.758807 163.184545 
L 280.181534 162.450438 
L 281.449716 161.216576 
L 281.872443 161.664394 
L 282.29517 161.362429 
L 282.717898 162.075806 
L 283.140625 161.102878 
L 283.563352 163.051107 
L 283.98608 162.817614 
L 284.408807 162.946267 
L 285.254261 162.763962 
L 285.676989 162.839012 
L 286.099716 162.000619 
L 286.522443 162.598769 
L 286.94517 162.378559 
L 287.367898 163.076137 
L 287.790625 162.571522 
L 288.213352 162.729478 
L 288.63608 162.590982 
L 289.058807 162.127056 
L 289.481534 163.018755 
L 289.904261 161.84957 
L 290.326989 162.625888 
L 290.749716 162.543089 
L 291.172443 163.183865 
L 291.59517 162.865179 
L 292.863352 162.964571 
L 293.28608 163.003534 
L 293.708807 161.98191 
L 294.131534 161.799897 
L 294.554261 163.497794 
L 294.976989 162.761521 
L 295.399716 162.260124 
L 295.822443 161.52673 
L 296.24517 162.915428 
L 296.667898 163.518571 
L 297.090625 163.511122 
L 297.513352 163.779869 
L 298.358807 163.292074 
L 298.781534 163.261754 
L 299.204261 164.209916 
L 300.472443 164.29926 
L 300.89517 163.883719 
L 301.317898 164.214976 
L 301.740625 163.611439 
L 302.163352 163.50855 
L 302.58608 163.619804 
L 303.008807 163.517998 
L 303.431534 163.762633 
L 303.854261 163.682833 
L 304.276989 163.927672 
L 304.699716 162.938326 
L 305.122443 163.558524 
L 305.54517 163.570411 
L 305.967898 162.838417 
L 306.390625 163.419215 
L 306.813352 163.034187 
L 307.23608 163.560597 
L 307.658807 162.974609 
L 308.081534 163.22759 
L 308.504261 163.897061 
L 309.349716 163.200592 
L 309.772443 163.883585 
L 310.19517 164.051239 
L 311.040625 163.416856 
L 311.463352 163.617793 
L 311.88608 163.502438 
L 312.308807 163.762088 
L 312.731534 164.287996 
L 313.154261 163.466284 
L 313.576989 163.625181 
L 313.999716 162.927845 
L 314.422443 162.924646 
L 314.84517 163.154536 
L 315.267898 162.913681 
L 316.113352 163.90003 
L 316.53608 164.07757 
L 316.958807 164.574846 
L 317.381534 164.524283 
L 317.804261 165.478911 
L 318.226989 165.009827 
L 318.649716 165.363989 
L 319.072443 165.356022 
L 319.49517 164.90985 
L 319.917898 165.135213 
L 320.340625 164.92389 
L 320.763352 165.118623 
L 321.18608 165.026908 
L 321.608807 165.352702 
L 322.031534 165.29849 
L 322.876989 163.713846 
L 323.299716 164.55012 
L 324.14517 164.198529 
L 324.567898 164.675546 
L 324.990625 164.071193 
L 325.413352 164.222628 
L 325.83608 164.527797 
L 326.258807 164.517816 
L 327.104261 165.291701 
L 327.526989 165.561032 
L 327.949716 164.811283 
L 328.372443 164.988455 
L 328.79517 164.924284 
L 329.217898 164.615151 
L 329.640625 165.583877 
L 330.063352 165.212143 
L 330.48608 165.333861 
L 330.908807 165.323854 
L 331.331534 165.041086 
L 331.754261 164.978663 
L 332.599716 165.200191 
L 333.022443 166.08 
L 333.44517 165.035632 
L 333.867898 165.603331 
L 334.290625 165.86487 
L 334.713352 165.443294 
L 335.13608 166.256202 
L 335.558807 164.694453 
L 335.981534 164.670977 
L 336.404261 164.525527 
L 336.826989 165.21686 
L 337.249716 164.912678 
L 337.672443 165.326199 
L 338.09517 164.488608 
L 338.517898 164.820524 
L 338.940625 165.524774 
L 339.363352 165.617187 
L 339.78608 165.576942 
L 340.208807 164.87486 
L 341.054261 165.961546 
L 341.899716 164.944552 
L 342.322443 165.134178 
L 342.74517 164.885828 
L 343.167898 165.370466 
L 343.590625 164.272193 
L 344.013352 164.729958 
L 344.43608 165.0006 
L 344.858807 164.976294 
L 345.281534 165.602046 
L 345.704261 165.479562 
L 346.126989 165.237788 
L 346.549716 166.108076 
L 346.972443 166.104062 
L 347.39517 165.82227 
L 347.817898 166.256527 
L 348.663352 165.469542 
L 349.08608 165.098018 
L 349.931534 165.534906 
L 350.354261 166.428739 
L 351.199716 165.721829 
L 351.622443 166.143999 
L 352.04517 165.615088 
L 352.467898 166.228039 
L 352.890625 165.061817 
L 353.313352 165.143602 
L 353.73608 165.760576 
L 354.158807 165.561899 
L 354.581534 166.216574 
L 355.426989 165.183599 
L 355.849716 165.018782 
L 356.272443 165.360501 
L 357.117898 165.419201 
L 357.540625 165.360393 
L 357.963352 164.136741 
L 358.38608 165.343897 
L 358.808807 165.572042 
L 359.231534 165.545783 
L 360.076989 164.591578 
L 360.499716 164.512763 
L 360.922443 164.747325 
L 361.34517 165.493837 
L 361.767898 165.139657 
L 362.190625 165.495464 
L 362.613352 164.968325 
L 363.03608 165.539488 
L 363.458807 164.924951 
L 363.881534 165.093261 
L 364.304261 164.996031 
L 364.726989 164.524479 
L 365.149716 164.886919 
L 365.572443 164.47752 
L 365.99517 164.371764 
L 366.417898 163.988204 
L 366.840625 164.644625 
L 367.263352 164.709602 
L 367.68608 164.279329 
L 368.531534 164.712515 
L 368.954261 164.128696 
L 369.376989 164.199866 
L 369.799716 164.096761 
L 370.222443 164.48685 
L 370.64517 164.527779 
L 371.067898 164.707487 
L 372.33608 164.760681 
L 372.758807 164.850835 
L 373.181534 164.799478 
L 373.604261 164.295248 
L 374.026989 164.533537 
L 374.872443 164.375007 
L 375.29517 164.912049 
L 375.717898 164.567608 
L 376.140625 163.712177 
L 376.563352 163.720205 
L 376.98608 164.737969 
L 377.408807 164.51053 
L 378.254261 164.528611 
L 378.676989 164.159422 
L 379.099716 164.156035 
L 379.94517 164.416819 
L 380.790625 164.201238 
L 381.213352 163.689581 
L 381.63608 163.688707 
L 382.481534 164.021742 
L 382.904261 164.40091 
L 383.749716 164.1579 
L 384.172443 164.518102 
L 384.59517 163.675799 
L 385.017898 163.978809 
L 385.440625 164.113678 
L 385.863352 164.586427 
L 386.28608 163.635984 
L 386.708807 164.265889 
L 387.131534 163.462821 
L 387.554261 164.146655 
L 388.399716 164.35971 
L 388.822443 163.949097 
L 389.24517 164.500156 
L 389.667898 164.439221 
L 390.090625 164.258676 
L 390.513352 164.612078 
L 390.93608 164.474929 
L 391.358807 164.662866 
L 391.781534 164.384643 
L 392.204261 165.050381 
L 393.472443 164.638916 
L 393.89517 164.819175 
L 394.317898 164.597301 
L 394.740625 164.516941 
L 395.163352 164.688791 
L 395.58608 165.221928 
L 396.431534 165.576128 
L 396.854261 165.57446 
L 397.276989 166.125497 
L 397.699716 166.924859 
L 398.54517 166.874639 
L 398.967898 166.326228 
L 399.390625 166.215998 
L 399.813352 166.537828 
L 400.658807 166.108848 
L 401.081534 166.486851 
L 401.926989 166.322447 
L 402.349716 166.749162 
L 402.772443 166.739898 
L 403.19517 166.314309 
L 403.617898 166.29515 
L 404.040625 166.754573 
L 404.463352 166.073459 
L 404.88608 166.300046 
L 406.576989 166.655139 
L 407.84517 166.43708 
L 408.690625 166.349224 
L 409.113352 166.578572 
L 409.958807 165.911427 
L 410.381534 166.599712 
L 410.804261 166.763055 
L 412.072443 166.836537 
L 412.49517 166.292862 
L 412.917898 166.114483 
L 413.340625 166.70456 
L 413.763352 166.404543 
L 414.18608 166.949484 
L 415.031534 166.846264 
L 415.454261 167.496116 
L 415.876989 167.106541 
L 416.299716 167.269006 
L 416.722443 166.270429 
L 417.14517 167.076186 
L 417.567898 167.150597 
L 417.990625 166.690862 
L 418.83608 167.016251 
L 419.258807 166.722275 
L 419.681534 167.172367 
L 420.526989 167.300765 
L 421.372443 166.953468 
L 421.79517 166.909695 
L 422.217898 166.667897 
L 422.640625 167.128023 
L 423.063352 167.287949 
L 423.48608 166.953439 
L 423.908807 167.165798 
L 424.331534 167.176958 
L 424.754261 167.776535 
L 425.176989 167.588331 
L 426.44517 168.112648 
L 426.867898 167.814137 
L 427.290625 167.966171 
L 427.713352 167.337813 
L 428.13608 168.231724 
L 428.558807 167.864277 
L 428.981534 167.66535 
L 429.404261 167.930938 
L 429.826989 167.764538 
L 430.249716 167.800716 
L 430.672443 167.605195 
L 431.517898 167.877379 
L 431.940625 167.448346 
L 432.363352 167.595076 
L 432.78608 167.619896 
L 433.208807 167.277464 
L 433.631534 167.257352 
L 434.054261 167.622062 
L 434.899716 167.811488 
L 435.322443 167.2019 
L 435.74517 167.374296 
L 436.167898 167.108636 
L 436.590625 167.529072 
L 437.013352 167.445918 
L 437.43608 167.588031 
L 437.858807 166.986021 
L 438.281534 167.07021 
L 438.704261 167.01968 
L 439.126989 167.131119 
L 439.549716 166.706204 
L 439.972443 167.273783 
L 440.39517 167.4991 
L 440.817898 167.164137 
L 441.240625 167.278401 
L 441.663352 167.029178 
L 442.08608 166.381069 
L 442.508807 166.598948 
L 442.931534 166.362415 
L 443.354261 166.875708 
L 444.199716 166.486489 
L 444.622443 167.00153 
L 445.04517 166.338952 
L 445.467898 167.288716 
L 445.890625 166.475611 
L 446.313352 166.628849 
L 446.73608 166.578035 
L 447.158807 166.994117 
L 447.581534 166.373868 
L 448.426989 167.125379 
L 448.849716 166.9732 
L 449.272443 166.957091 
L 449.69517 167.064731 
L 450.117898 166.882958 
L 450.540625 166.514705 
L 450.963352 166.783083 
L 451.38608 166.270219 
L 451.808807 166.448122 
L 452.231534 167.096922 
L 452.654261 167.182332 
L 453.076989 167.032398 
L 453.499716 166.457706 
L 453.922443 167.0144 
L 454.767898 167.264616 
L 455.190625 166.954706 
L 456.03608 166.860758 
L 456.458807 167.200607 
L 456.881534 166.850006 
L 457.304261 167.223131 
L 457.726989 167.091588 
L 458.149716 167.73185 
L 458.572443 167.645538 
L 458.99517 167.831437 
L 459.417898 167.616765 
L 459.840625 167.043909 
L 460.263352 167.39589 
L 460.68608 166.841559 
L 461.108807 167.512002 
L 461.531534 167.50357 
L 461.954261 167.978246 
L 462.376989 167.672412 
L 463.222443 168.036219 
L 463.64517 167.420888 
L 464.067898 167.485797 
L 464.490625 168.077085 
L 464.913352 168.264032 
L 465.33608 167.662811 
L 465.758807 167.993159 
L 466.181534 167.701559 
L 466.604261 168.175583 
L 467.026989 168.068052 
L 467.449716 168.168252 
L 467.872443 167.917035 
L 468.29517 168.125004 
L 468.717898 167.61821 
L 469.140625 168.034187 
L 469.563352 168.012515 
L 469.98608 167.751495 
L 470.408807 168.214365 
L 471.254261 167.834211 
L 471.676989 168.107223 
L 472.099716 168.052522 
L 472.522443 168.754493 
L 472.94517 167.919724 
L 473.367898 168.417852 
L 473.790625 167.689991 
L 474.63608 167.980679 
L 475.058807 167.810499 
L 475.481534 167.962371 
L 475.904261 167.649031 
L 476.326989 168.198983 
L 476.749716 168.257292 
L 477.172443 167.565095 
L 477.59517 167.666777 
L 478.017898 168.134757 
L 478.440625 167.766729 
L 478.863352 168.068642 
L 479.28608 168.068813 
L 479.708807 168.376111 
L 480.131534 168.323267 
L 480.554261 168.045614 
L 480.976989 168.013065 
L 481.399716 168.729377 
L 481.822443 168.472048 
L 482.24517 167.71081 
L 482.667898 167.839083 
L 483.513352 168.607979 
L 483.93608 168.046909 
L 486.049716 168.339345 
L 487.317898 167.907877 
L 487.740625 167.996859 
L 488.58608 167.956325 
L 489.008807 168.335002 
L 489.854261 168.000615 
L 490.276989 168.34044 
L 490.699716 167.747281 
L 491.122443 167.712023 
L 491.54517 168.375882 
L 492.390625 167.865294 
L 492.813352 168.38259 
L 493.658807 168.289031 
L 494.081534 167.838615 
L 494.504261 168.052053 
L 494.926989 167.46046 
L 495.349716 167.931055 
L 495.772443 167.679184 
L 496.19517 168.034151 
L 496.617898 167.710281 
L 497.463352 167.77079 
L 498.308807 168.24578 
L 499.154261 168.200039 
L 499.576989 167.829781 
L 499.999716 167.958138 
L 500.422443 168.402189 
L 500.84517 168.554432 
L 501.690625 167.649448 
L 502.958807 167.955298 
L 503.381534 168.353654 
L 503.804261 168.307398 
L 504.649716 167.766889 
L 505.072443 167.657628 
L 505.49517 167.845189 
L 505.917898 167.687432 
L 506.340625 167.823104 
L 506.763352 167.392199 
L 507.18608 167.779666 
L 507.608807 167.685633 
L 508.031534 167.89451 
L 508.454261 167.138594 
L 508.876989 167.323921 
L 509.299716 166.796265 
L 509.722443 167.393376 
L 510.567898 167.520812 
L 510.990625 167.150663 
L 511.413352 167.495462 
L 511.83608 167.134297 
L 512.258807 167.550264 
L 512.681534 167.154746 
L 513.104261 167.587608 
L 513.526989 167.21438 
L 513.949716 167.838486 
L 514.372443 167.489968 
L 514.79517 167.505754 
L 515.217898 166.953646 
L 515.640625 167.728569 
L 516.063352 167.637567 
L 516.48608 167.782465 
L 516.908807 167.465462 
L 517.331534 167.6463 
L 517.754261 167.67675 
L 518.176989 168.102737 
L 518.599716 167.422142 
L 519.44517 168.100589 
L 519.867898 167.246586 
L 520.290625 167.871726 
L 520.713352 167.584116 
L 521.13608 167.867532 
L 521.558807 167.406948 
L 521.981534 167.775551 
L 522.404261 167.612994 
L 523.672443 168.130487 
L 524.940625 167.585704 
L 525.78608 167.628664 
L 526.631534 167.73587 
L 527.054261 167.440339 
L 527.476989 167.800343 
L 527.899716 167.998738 
L 528.322443 168.532412 
L 529.167898 167.513484 
L 529.590625 167.855203 
L 530.43608 167.451928 
L 530.858807 167.538191 
L 531.281534 168.188903 
L 531.704261 167.451479 
L 532.126989 167.977264 
L 532.549716 168.058694 
L 533.39517 167.690907 
L 534.240625 168.038624 
L 534.663352 168.365727 
L 535.08608 167.587755 
L 535.508807 168.448506 
L 536.354261 167.49746 
L 536.776989 167.476281 
L 537.199716 167.738096 
L 537.622443 167.755714 
L 538.467898 168.102064 
L 539.313352 167.973858 
L 539.73608 167.760494 
L 540.158807 167.084461 
L 540.581534 167.883118 
L 541.004261 167.614984 
L 541.426989 167.639607 
L 541.849716 168.206244 
L 542.272443 167.68942 
L 543.117898 167.964516 
L 543.540625 167.815619 
L 543.963352 168.022647 
L 544.38608 168.002625 
L 544.808807 167.824684 
L 545.231534 167.434671 
L 545.654261 167.986338 
L 546.499716 167.705748 
L 546.922443 167.930693 
L 547.34517 167.799168 
L 547.767898 168.376478 
L 548.190625 168.00842 
L 548.613352 168.025359 
L 549.03608 167.899444 
L 549.458807 167.988372 
L 550.304261 167.573388 
L 551.149716 167.762593 
L 551.99517 167.372034 
L 552.840625 167.598472 
L 553.263352 167.712845 
L 553.68608 167.160308 
L 554.108807 167.39207 
L 554.531534 167.76882 
L 554.954261 167.932979 
L 555.376989 167.720401 
L 555.799716 167.669139 
L 556.222443 167.028703 
L 556.64517 167.332513 
L 557.067898 167.119462 
L 557.490625 167.400241 
L 559.604261 167.670873 
L 560.449716 167.173844 
L 561.29517 167.124134 
L 561.717898 167.176174 
L 562.140625 166.7652 
L 562.563352 167.051205 
L 563.408807 166.885233 
L 563.831534 167.250127 
L 564.676989 166.772559 
L 565.099716 167.775936 
L 565.522443 167.00415 
L 565.94517 167.511128 
L 566.367898 167.550489 
L 567.63608 167.15025 
L 568.481534 167.213006 
L 568.904261 166.992838 
L 569.326989 167.392014 
L 569.749716 167.13368 
L 570.59517 167.218266 
L 571.017898 166.925797 
L 571.440625 167.401719 
L 571.863352 167.093697 
L 572.28608 167.136046 
L 572.708807 167.4986 
L 573.131534 166.855258 
L 573.554261 166.723251 
L 573.976989 167.33815 
L 575.24517 166.874395 
L 575.667898 167.081431 
L 576.513352 167.050043 
L 577.358807 167.536996 
L 578.204261 167.583058 
L 578.626989 168.017203 
L 579.049716 167.974535 
L 580.317898 168.39631 
L 580.740625 168.398294 
L 581.163352 168.231063 
L 581.58608 167.884159 
L 582.008807 168.345749 
L 582.431534 168.264352 
L 582.854261 167.955007 
L 583.699716 168.06413 
L 584.122443 167.618454 
L 584.54517 168.266924 
L 584.967898 167.692045 
L 585.813352 167.618105 
L 586.23608 167.379107 
L 587.504261 168.193493 
L 587.926989 167.844706 
L 588.349716 167.872502 
L 588.772443 168.180034 
L 589.19517 168.264143 
L 589.617898 167.911159 
L 590.040625 168.260087 
L 590.463352 168.390628 
L 590.88608 168.229973 
L 591.308807 168.428713 
L 591.731534 167.990621 
L 592.154261 168.2936 
L 592.576989 168.134135 
L 592.999716 168.748672 
L 593.84517 168.437697 
L 594.267898 168.444157 
L 594.690625 167.793607 
L 595.113352 168.52573 
L 595.53608 168.035701 
L 595.958807 168.096286 
L 596.381534 168.496894 
L 596.804261 168.550487 
L 597.226989 168.32347 
L 598.072443 168.138543 
L 598.49517 167.913322 
L 599.763352 167.987964 
L 600.18608 168.285516 
L 600.608807 168.185153 
L 601.031534 167.832161 
L 601.454261 168.356196 
L 602.299716 167.800512 
L 602.722443 167.760334 
L 603.567898 168.074339 
L 603.990625 168.245453 
L 604.413352 167.550487 
L 604.83608 167.50391 
L 605.681534 167.805211 
L 606.104261 168.332021 
L 606.526989 167.887094 
L 607.79517 167.815148 
L 608.217898 168.091441 
L 608.640625 167.768061 
L 609.48608 168.033631 
L 609.908807 167.610236 
L 610.754261 167.594826 
L 611.176989 167.691552 
L 611.599716 167.964029 
L 612.022443 167.81463 
L 612.44517 168.168536 
L 612.867898 168.298507 
L 613.290625 168.03599 
L 614.13608 168.317229 
L 614.558807 168.085764 
L 614.981534 168.001078 
L 615.404261 168.039892 
L 615.826989 167.786561 
L 616.249716 167.942839 
L 616.672443 167.799765 
L 617.09517 168.01421 
L 617.940625 168.000916 
L 618.78608 167.941627 
L 619.208807 168.398032 
L 619.631534 167.796766 
L 620.054261 168.207016 
L 620.476989 168.145924 
L 620.899716 167.551587 
L 621.322443 167.982367 
L 621.74517 167.286404 
L 622.167898 167.480668 
L 622.590625 167.48593 
L 623.858807 168.180176 
L 624.281534 168.230953 
L 624.704261 168.121936 
L 625.126989 168.415509 
L 625.126989 168.415509 
" clip-path="url(#p21cdcf690c)" style="fill: none; stroke: #1f77b4; stroke-width: 1.5; stroke-linecap: square"/>
   </g>
   <g id="line2d_14">
    <path d="M 117.854261 296.03625 
L 118.699716 219.200503 
L 119.122443 230.492934 
L 119.54517 238.645685 
L 119.967898 213.261152 
L 120.390625 212.54875 
L 120.813352 215.076811 
L 121.23608 205.598168 
L 121.658807 212.181319 
L 122.081534 226.669107 
L 122.926989 196.212776 
L 123.349716 194.413947 
L 123.772443 194.780619 
L 124.19517 201.832737 
L 124.617898 195.235904 
L 125.040625 196.378027 
L 125.463352 194.532246 
L 125.88608 194.186848 
L 126.308807 195.502642 
L 126.731534 184.213625 
L 127.154261 181.165058 
L 127.999716 182.194952 
L 128.422443 186.091654 
L 128.84517 177.656689 
L 129.267898 180.557306 
L 129.690625 182.010728 
L 130.113352 182.333157 
L 130.53608 181.694365 
L 130.958807 181.32096 
L 131.381534 182.390077 
L 131.804261 183.960668 
L 132.226989 184.431872 
L 132.649716 183.194059 
L 133.072443 180.438406 
L 133.49517 181.145129 
L 133.917898 183.060858 
L 134.340625 181.048282 
L 134.763352 180.679822 
L 135.18608 178.011528 
L 136.031534 178.090941 
L 136.454261 178.969227 
L 136.876989 181.172561 
L 137.299716 178.870422 
L 137.722443 177.393865 
L 138.14517 177.781811 
L 138.567898 178.351291 
L 138.990625 176.208669 
L 139.413352 177.343197 
L 139.83608 177.985098 
L 140.258807 180.055569 
L 140.681534 176.730227 
L 141.104261 176.248777 
L 141.526989 179.231779 
L 141.949716 177.708572 
L 142.372443 177.030424 
L 142.79517 176.664959 
L 143.217898 177.691265 
L 143.640625 176.119124 
L 144.063352 176.160455 
L 144.48608 176.32796 
L 144.908807 176.294541 
L 145.331534 177.635459 
L 146.176989 175.798741 
L 146.599716 174.709478 
L 147.022443 176.153952 
L 147.44517 175.127327 
L 147.867898 173.767497 
L 148.290625 175.460951 
L 148.713352 176.586489 
L 149.13608 176.4194 
L 149.558807 177.261133 
L 149.981534 174.063869 
L 150.404261 178.121447 
L 150.826989 174.604464 
L 151.672443 174.564015 
L 152.09517 174.107088 
L 152.517898 175.394572 
L 152.940625 174.377249 
L 153.363352 173.690661 
L 153.78608 174.735638 
L 154.208807 174.466004 
L 154.631534 173.763776 
L 155.054261 174.487707 
L 155.899716 173.128249 
L 156.322443 173.783378 
L 156.74517 172.877454 
L 157.167898 174.449639 
L 157.590625 174.136157 
L 158.013352 174.131147 
L 158.43608 174.543099 
L 158.858807 174.151772 
L 159.281534 171.716959 
L 160.126989 172.9355 
L 160.549716 173.551442 
L 160.972443 171.414805 
L 161.39517 172.531184 
L 162.240625 173.528479 
L 162.663352 174.667006 
L 163.08608 172.879212 
L 163.508807 174.079173 
L 163.931534 174.417489 
L 164.776989 173.861619 
L 165.199716 174.307226 
L 165.622443 172.468632 
L 166.04517 173.093585 
L 166.890625 171.328881 
L 167.313352 172.522737 
L 167.73608 173.248832 
L 168.158807 173.248455 
L 168.581534 172.722076 
L 169.004261 173.191447 
L 169.426989 171.575761 
L 169.849716 171.514487 
L 170.272443 172.497564 
L 170.69517 172.614868 
L 171.117898 172.527716 
L 171.540625 172.901462 
L 171.963352 171.798656 
L 172.38608 172.17445 
L 172.808807 171.36876 
L 173.231534 171.860114 
L 173.654261 172.065286 
L 174.076989 172.853624 
L 174.499716 172.279056 
L 174.922443 172.345809 
L 175.34517 171.40709 
L 176.190625 173.281889 
L 176.613352 171.6027 
L 177.03608 171.572991 
L 177.458807 172.788874 
L 177.881534 173.126234 
L 178.304261 172.833694 
L 178.726989 172.21413 
L 179.149716 173.023502 
L 179.572443 173.20008 
L 179.99517 172.111453 
L 180.417898 172.345466 
L 180.840625 173.241511 
L 181.263352 173.382747 
L 181.68608 171.305869 
L 182.108807 172.329936 
L 182.531534 172.906326 
L 182.954261 172.161376 
L 183.376989 172.618973 
L 183.799716 172.868546 
L 184.222443 172.178703 
L 184.64517 172.386805 
L 185.067898 171.756797 
L 185.490625 172.613199 
L 185.913352 172.735791 
L 186.33608 171.651542 
L 186.758807 171.944659 
L 187.181534 171.896408 
L 187.604261 172.235164 
L 188.872443 172.841949 
L 189.29517 171.593369 
L 189.717898 172.130366 
L 190.140625 172.372364 
L 190.563352 172.074754 
L 190.98608 171.556562 
L 191.408807 172.602379 
L 191.831534 171.34686 
L 192.254261 171.920515 
L 192.676989 171.527562 
L 193.099716 173.732855 
L 193.522443 171.742232 
L 193.94517 172.010685 
L 194.367898 171.679803 
L 194.790625 172.867061 
L 195.213352 172.121979 
L 195.63608 172.252688 
L 196.481534 171.196761 
L 196.904261 171.68482 
L 197.326989 171.334027 
L 198.172443 171.732382 
L 198.59517 171.046097 
L 199.017898 171.840605 
L 199.440625 171.338442 
L 200.28608 171.274296 
L 200.708807 171.527496 
L 201.131534 171.463002 
L 201.976989 171.714048 
L 202.399716 171.527779 
L 202.822443 171.971782 
L 203.24517 171.808757 
L 203.667898 171.239484 
L 204.090625 171.712659 
L 204.513352 171.35515 
L 204.93608 171.253456 
L 205.358807 170.952888 
L 205.781534 171.26288 
L 206.204261 171.751968 
L 206.626989 171.851963 
L 207.049716 171.325347 
L 207.472443 171.013635 
L 208.740625 171.590286 
L 209.163352 171.297249 
L 209.58608 171.551686 
L 210.431534 170.870277 
L 210.854261 170.951387 
L 211.276989 170.706756 
L 211.699716 172.011226 
L 212.122443 171.562232 
L 212.54517 171.393369 
L 212.967898 170.624929 
L 213.390625 170.80561 
L 213.813352 171.546023 
L 215.081534 170.643849 
L 215.504261 171.28086 
L 215.926989 170.960326 
L 216.349716 170.393007 
L 216.772443 171.235045 
L 217.617898 170.199702 
L 218.040625 170.694318 
L 218.463352 171.399415 
L 218.88608 171.077521 
L 219.308807 171.099076 
L 219.731534 170.871475 
L 220.154261 172.392286 
L 220.576989 172.26415 
L 220.999716 171.124406 
L 222.267898 171.044001 
L 222.690625 171.602959 
L 223.113352 171.166176 
L 223.958807 170.812143 
L 224.381534 171.302051 
L 224.804261 172.056204 
L 225.226989 171.356412 
L 225.649716 172.162386 
L 226.072443 170.870293 
L 226.49517 170.933369 
L 226.917898 171.41883 
L 227.763352 171.6746 
L 228.18608 171.327942 
L 228.608807 171.457798 
L 229.031534 171.376492 
L 230.722443 171.6086 
L 231.14517 172.038357 
L 231.567898 171.485702 
L 231.990625 171.201776 
L 232.413352 172.03931 
L 232.83608 171.951895 
L 233.258807 171.029977 
L 233.681534 171.470733 
L 234.104261 171.33633 
L 234.526989 171.788106 
L 234.949716 171.619493 
L 235.372443 171.687032 
L 235.79517 172.066726 
L 236.217898 171.215829 
L 236.640625 170.9907 
L 237.48608 171.888345 
L 237.908807 171.568269 
L 238.331534 171.90961 
L 238.754261 170.651171 
L 239.176989 171.315803 
L 239.599716 171.7623 
L 240.022443 171.30192 
L 240.44517 170.659659 
L 240.867898 171.288779 
L 241.290625 171.490592 
L 241.713352 172.222745 
L 242.13608 172.55833 
L 242.558807 171.034898 
L 242.981534 171.498769 
L 243.404261 171.647811 
L 244.249716 171.370715 
L 244.672443 170.858276 
L 246.363352 171.90754 
L 246.78608 171.958406 
L 247.208807 172.342796 
L 247.631534 171.67289 
L 248.054261 172.154893 
L 248.476989 171.257939 
L 248.899716 171.674141 
L 249.74517 171.049011 
L 250.167898 171.724085 
L 250.590625 172.095347 
L 251.43608 171.377652 
L 251.858807 171.62404 
L 252.281534 171.390359 
L 252.704261 171.60132 
L 253.126989 171.535308 
L 253.972443 171.832293 
L 254.39517 171.367157 
L 254.817898 171.617892 
L 255.240625 171.685619 
L 255.663352 171.618568 
L 256.508807 171.860995 
L 256.931534 172.237446 
L 257.354261 171.005607 
L 257.776989 171.553755 
L 258.199716 171.490333 
L 258.622443 171.592916 
L 259.467898 171.398825 
L 259.890625 171.605477 
L 260.73608 172.38631 
L 261.158807 171.526915 
L 261.581534 171.645364 
L 262.004261 171.371208 
L 262.426989 172.147328 
L 262.849716 171.753966 
L 263.272443 173.179875 
L 263.69517 171.668005 
L 264.117898 171.579546 
L 264.540625 172.096871 
L 264.963352 172.356091 
L 265.38608 172.089167 
L 265.808807 172.553571 
L 266.231534 171.812758 
L 266.654261 171.615187 
L 267.499716 171.69413 
L 267.922443 171.766294 
L 268.34517 172.234649 
L 269.190625 171.674879 
L 269.613352 171.832849 
L 270.03608 172.280615 
L 270.458807 171.622514 
L 270.881534 171.755409 
L 271.304261 172.137954 
L 271.726989 171.268446 
L 272.149716 172.07895 
L 272.572443 171.204316 
L 272.99517 172.061808 
L 273.417898 171.646001 
L 273.840625 171.927455 
L 274.263352 171.965757 
L 274.68608 171.666375 
L 275.108807 171.715999 
L 275.531534 172.314211 
L 275.954261 172.600415 
L 276.799716 172.093801 
L 277.222443 172.294227 
L 277.64517 171.622418 
L 278.490625 171.826495 
L 278.913352 171.737618 
L 279.33608 171.862572 
L 279.758807 171.810099 
L 280.181534 172.003163 
L 280.604261 171.442342 
L 281.026989 171.871399 
L 281.449716 172.112333 
L 281.872443 171.965151 
L 282.29517 171.593799 
L 282.717898 172.424699 
L 283.140625 172.280127 
L 283.563352 171.782763 
L 284.408807 172.362792 
L 285.254261 172.20061 
L 285.676989 172.371535 
L 286.099716 171.999299 
L 286.94517 171.610287 
L 287.367898 171.773116 
L 287.790625 171.682329 
L 288.213352 171.967082 
L 288.63608 171.559341 
L 289.058807 171.909636 
L 289.904261 172.294224 
L 290.326989 171.932208 
L 290.749716 172.584878 
L 291.172443 172.074051 
L 291.59517 171.992196 
L 292.017898 172.04918 
L 292.440625 172.439833 
L 293.708807 171.978719 
L 294.131534 172.222894 
L 294.554261 171.692602 
L 294.976989 172.103561 
L 295.822443 171.90705 
L 296.24517 172.379678 
L 296.667898 171.602559 
L 297.090625 172.046383 
L 297.513352 171.783138 
L 298.358807 172.085609 
L 298.781534 171.771962 
L 299.204261 172.218407 
L 300.049716 172.278004 
L 300.472443 172.469344 
L 300.89517 172.082219 
L 301.317898 172.14542 
L 301.740625 172.415526 
L 302.163352 172.448525 
L 302.58608 171.769688 
L 303.008807 172.670857 
L 303.431534 172.261742 
L 303.854261 172.179617 
L 304.276989 172.75954 
L 304.699716 172.558029 
L 305.122443 171.989123 
L 305.967898 172.108654 
L 306.390625 171.709229 
L 306.813352 172.924987 
L 307.23608 172.155324 
L 307.658807 172.460446 
L 308.081534 172.32577 
L 308.504261 172.626836 
L 308.926989 171.57441 
L 309.349716 172.098787 
L 309.772443 172.167263 
L 310.19517 171.574182 
L 311.040625 171.795719 
L 311.88608 171.727319 
L 312.308807 171.728792 
L 312.731534 172.057989 
L 313.154261 172.197913 
L 313.576989 171.68826 
L 313.999716 172.546455 
L 314.422443 171.75321 
L 314.84517 171.527242 
L 315.267898 171.579348 
L 315.690625 171.491789 
L 316.113352 171.614068 
L 316.53608 171.273213 
L 316.958807 171.721788 
L 318.226989 171.597293 
L 318.649716 171.221748 
L 319.072443 171.946635 
L 319.49517 171.54936 
L 319.917898 171.918295 
L 320.340625 171.70649 
L 320.763352 171.369587 
L 321.18608 172.016757 
L 322.031534 171.647025 
L 322.454261 171.942592 
L 322.876989 171.796667 
L 323.299716 171.462699 
L 323.722443 171.850835 
L 324.14517 171.619728 
L 324.567898 171.633126 
L 324.990625 171.98708 
L 325.413352 171.713236 
L 325.83608 172.227735 
L 326.258807 171.661024 
L 326.681534 171.646745 
L 327.526989 172.171069 
L 328.372443 171.032468 
L 328.79517 171.890426 
L 329.217898 171.742362 
L 329.640625 171.418415 
L 330.063352 172.147392 
L 330.48608 171.921093 
L 330.908807 171.482523 
L 331.754261 172.073854 
L 332.176989 171.643588 
L 333.44517 171.546255 
L 333.867898 171.764198 
L 334.713352 171.069354 
L 335.13608 171.377002 
L 335.558807 172.050453 
L 335.981534 171.849916 
L 336.404261 171.860143 
L 336.826989 171.732915 
L 337.249716 171.303851 
L 338.09517 171.520633 
L 338.517898 171.730886 
L 338.940625 171.33955 
L 339.363352 171.775897 
L 339.78608 171.614878 
L 340.208807 172.277533 
L 340.631534 171.669711 
L 341.054261 172.172951 
L 341.476989 171.577625 
L 342.322443 171.483749 
L 342.74517 171.242414 
L 343.167898 171.979101 
L 343.590625 171.568908 
L 344.013352 171.468434 
L 344.43608 171.70582 
L 345.281534 171.783909 
L 345.704261 171.418185 
L 346.972443 171.594637 
L 347.39517 171.242859 
L 347.817898 171.826873 
L 348.240625 171.309659 
L 349.931534 171.853016 
L 351.199716 171.472713 
L 351.622443 171.307203 
L 352.04517 171.710485 
L 352.467898 171.574469 
L 352.890625 171.971282 
L 353.313352 171.285448 
L 353.73608 171.703686 
L 354.158807 171.380695 
L 354.581534 171.65969 
L 355.004261 171.250398 
L 355.426989 171.299857 
L 355.849716 171.575726 
L 356.272443 171.207537 
L 356.69517 171.86768 
L 357.117898 171.19964 
L 357.540625 171.064495 
L 357.963352 171.7875 
L 358.38608 171.064782 
L 358.808807 171.187348 
L 359.231534 171.604023 
L 360.076989 171.888027 
L 360.499716 171.30301 
L 360.922443 171.529095 
L 361.34517 171.497257 
L 361.767898 171.123619 
L 362.190625 171.158037 
L 362.613352 171.644663 
L 363.03608 171.830987 
L 363.458807 171.507214 
L 363.881534 171.34703 
L 364.304261 171.353478 
L 364.726989 171.722931 
L 365.149716 171.612591 
L 365.572443 171.653517 
L 366.417898 171.530283 
L 366.840625 171.6877 
L 367.263352 171.372083 
L 367.68608 171.415048 
L 368.108807 171.635205 
L 368.531534 171.574652 
L 368.954261 171.128399 
L 369.376989 171.523431 
L 369.799716 171.600522 
L 370.64517 171.312941 
L 371.067898 171.421824 
L 372.758807 171.458953 
L 373.181534 171.765277 
L 374.026989 171.500581 
L 375.29517 171.648895 
L 375.717898 171.615499 
L 376.140625 171.336644 
L 376.563352 171.447294 
L 376.98608 171.880552 
L 377.408807 171.525351 
L 377.831534 171.413842 
L 378.254261 171.716409 
L 378.676989 171.406692 
L 379.099716 171.650598 
L 380.790625 171.87875 
L 381.213352 171.544947 
L 381.63608 171.690293 
L 382.481534 171.612162 
L 382.904261 172.042311 
L 383.326989 171.602169 
L 383.749716 171.76101 
L 384.172443 171.60049 
L 384.59517 171.575155 
L 385.017898 171.782807 
L 385.440625 171.303394 
L 386.28608 172.22686 
L 386.708807 171.385557 
L 387.131534 171.749951 
L 387.554261 171.570733 
L 387.976989 171.623055 
L 388.399716 171.915835 
L 388.822443 171.576743 
L 389.24517 171.468432 
L 389.667898 171.920446 
L 390.090625 171.957665 
L 390.513352 171.390786 
L 390.93608 171.646143 
L 391.358807 171.629102 
L 392.204261 171.816926 
L 392.626989 171.68513 
L 393.049716 171.806109 
L 393.472443 172.046569 
L 393.89517 171.297708 
L 394.740625 171.772949 
L 395.163352 171.6523 
L 395.58608 171.374826 
L 396.431534 171.427694 
L 396.854261 172.009548 
L 397.276989 171.364036 
L 398.122443 171.599214 
L 398.54517 171.182616 
L 398.967898 171.62443 
L 399.813352 171.831593 
L 400.23608 171.542116 
L 400.658807 171.764636 
L 401.081534 171.463287 
L 401.504261 171.438166 
L 401.926989 172.100975 
L 402.349716 171.765845 
L 402.772443 171.61204 
L 404.463352 172.221847 
L 405.308807 171.520257 
L 405.731534 171.400278 
L 406.154261 171.564072 
L 406.576989 171.512417 
L 407.422443 171.61739 
L 407.84517 171.554389 
L 408.267898 171.908901 
L 408.690625 171.477327 
L 409.113352 172.091608 
L 409.53608 171.467854 
L 410.804261 171.666127 
L 411.226989 172.186488 
L 411.649716 171.742804 
L 412.917898 171.590847 
L 413.340625 171.158404 
L 413.763352 171.528959 
L 415.454261 171.420891 
L 415.876989 171.722485 
L 416.299716 171.863264 
L 416.722443 171.796162 
L 417.14517 171.490731 
L 417.567898 171.445488 
L 417.990625 171.680148 
L 418.413352 171.6821 
L 418.83608 171.293901 
L 419.258807 171.103215 
L 419.681534 171.539433 
L 420.526989 171.441867 
L 421.79517 171.648299 
L 422.217898 171.515511 
L 422.640625 171.614487 
L 423.908807 171.289406 
L 424.331534 171.409006 
L 424.754261 171.19151 
L 425.176989 171.651945 
L 425.599716 170.761083 
L 426.022443 170.987507 
L 426.44517 170.596013 
L 426.867898 170.737447 
L 427.290625 170.661208 
L 427.713352 170.928541 
L 428.558807 171.102284 
L 428.981534 171.42396 
L 429.404261 170.886879 
L 429.826989 171.345256 
L 430.249716 171.01546 
L 430.672443 171.26267 
L 431.940625 170.808042 
L 432.363352 171.328662 
L 432.78608 170.938545 
L 433.208807 170.867777 
L 434.054261 171.161667 
L 434.476989 171.29173 
L 434.899716 170.840532 
L 435.322443 171.08189 
L 435.74517 171.124606 
L 436.167898 171.29218 
L 436.590625 171.137038 
L 437.013352 171.198372 
L 437.43608 171.599172 
L 437.858807 171.300605 
L 438.281534 171.175879 
L 438.704261 171.381855 
L 439.126989 171.287735 
L 439.549716 171.65396 
L 439.972443 171.319707 
L 440.39517 171.636511 
L 440.817898 171.403219 
L 441.240625 171.330179 
L 441.663352 170.920461 
L 442.08608 171.171368 
L 442.508807 171.198484 
L 442.931534 170.872133 
L 443.354261 171.144007 
L 444.622443 171.376753 
L 445.04517 171.557049 
L 445.467898 171.08047 
L 445.890625 171.45491 
L 446.313352 171.121281 
L 446.73608 171.235663 
L 447.158807 171.595601 
L 447.581534 171.396206 
L 448.849716 171.330871 
L 449.272443 170.934157 
L 449.69517 170.870753 
L 450.117898 171.170502 
L 450.540625 170.882795 
L 450.963352 171.036573 
L 451.38608 171.026358 
L 452.231534 171.299812 
L 452.654261 170.904056 
L 453.076989 171.293444 
L 453.499716 171.157349 
L 454.34517 171.257007 
L 455.190625 171.341784 
L 455.613352 171.881538 
L 456.03608 171.190762 
L 456.458807 170.920531 
L 456.881534 171.002608 
L 457.304261 170.940161 
L 457.726989 171.236111 
L 458.149716 170.691898 
L 458.572443 170.6631 
L 458.99517 171.289256 
L 459.417898 170.834097 
L 459.840625 171.337713 
L 460.263352 170.954675 
L 460.68608 170.995028 
L 461.531534 170.695438 
L 461.954261 170.874813 
L 462.799716 171.045581 
L 463.222443 171.791283 
L 464.067898 170.743319 
L 464.490625 170.589246 
L 465.33608 171.082335 
L 465.758807 170.878595 
L 466.181534 171.202007 
L 466.604261 170.834619 
L 467.026989 170.857913 
L 467.872443 171.258332 
L 468.29517 170.645336 
L 468.717898 170.801055 
L 469.140625 171.163091 
L 469.98608 171.148606 
L 470.408807 171.214201 
L 470.831534 171.105061 
L 471.254261 170.849566 
L 471.676989 170.933592 
L 472.099716 171.135447 
L 472.94517 171.022335 
L 473.367898 171.532721 
L 474.213352 171.081306 
L 474.63608 171.417653 
L 475.058807 170.865572 
L 475.481534 171.186786 
L 475.904261 171.2233 
L 476.326989 171.100225 
L 478.017898 171.417797 
L 478.440625 171.003962 
L 478.863352 170.873678 
L 479.28608 171.19923 
L 479.708807 170.9147 
L 480.131534 171.176549 
L 480.554261 170.720087 
L 480.976989 171.221837 
L 481.399716 170.825395 
L 482.24517 170.903701 
L 482.667898 170.894215 
L 483.090625 171.263465 
L 483.513352 170.896899 
L 483.93608 171.064158 
L 484.358807 170.930889 
L 485.204261 170.953442 
L 485.626989 170.660597 
L 486.049716 170.829386 
L 486.472443 171.134191 
L 486.89517 171.278856 
L 487.317898 171.285917 
L 488.163352 171.133321 
L 488.58608 171.228559 
L 489.008807 171.011475 
L 489.431534 171.071401 
L 489.854261 170.969186 
L 490.276989 171.117366 
L 490.699716 170.902941 
L 491.122443 171.340473 
L 491.54517 171.330764 
L 491.967898 171.442246 
L 492.390625 171.170754 
L 493.658807 171.073413 
L 494.081534 171.224513 
L 494.926989 171.200761 
L 495.349716 170.932061 
L 495.772443 170.85153 
L 496.19517 171.272058 
L 496.617898 170.919905 
L 497.463352 171.328001 
L 497.88608 170.945018 
L 498.308807 170.93693 
L 498.731534 171.191192 
L 499.154261 171.629335 
L 499.999716 171.045536 
L 500.422443 171.168376 
L 500.84517 171.41437 
L 501.267898 171.020584 
L 501.690625 171.11746 
L 502.113352 171.086986 
L 502.53608 171.190889 
L 503.381534 171.170039 
L 503.804261 171.433766 
L 504.226989 171.231394 
L 504.649716 171.416421 
L 506.763352 171.1695 
L 507.18608 171.255996 
L 507.608807 171.201189 
L 508.454261 170.894037 
L 510.14517 171.19389 
L 510.990625 170.958544 
L 511.83608 171.520634 
L 512.258807 171.119372 
L 512.681534 171.018045 
L 513.104261 171.67436 
L 513.526989 171.09071 
L 513.949716 171.354111 
L 514.79517 170.839483 
L 515.217898 170.719592 
L 515.640625 170.840227 
L 516.063352 170.708209 
L 516.48608 170.893917 
L 516.908807 171.223553 
L 517.331534 170.712814 
L 517.754261 170.735789 
L 518.176989 170.56253 
L 518.599716 170.978219 
L 519.022443 170.867546 
L 519.867898 171.072234 
L 520.290625 170.655839 
L 520.713352 170.698314 
L 521.13608 171.11127 
L 521.558807 170.684368 
L 522.826989 171.266159 
L 523.249716 171.20957 
L 523.672443 170.876477 
L 524.09517 171.059444 
L 524.940625 170.926751 
L 525.363352 170.696355 
L 525.78608 170.808768 
L 526.208807 171.218476 
L 527.899716 170.606371 
L 528.322443 170.938834 
L 528.74517 170.807869 
L 529.167898 170.850105 
L 529.590625 170.759542 
L 530.013352 170.856284 
L 530.43608 171.272716 
L 530.858807 170.761774 
L 531.281534 170.881607 
L 532.126989 170.761931 
L 532.549716 170.918663 
L 532.972443 170.768164 
L 533.39517 171.215186 
L 533.817898 171.017064 
L 534.240625 171.250301 
L 534.663352 170.951181 
L 535.931534 170.750064 
L 536.354261 170.934623 
L 536.776989 170.891714 
L 537.199716 171.047805 
L 537.622443 170.738098 
L 538.467898 170.735819 
L 538.890625 171.010138 
L 539.313352 170.904273 
L 539.73608 170.954422 
L 540.581534 171.288385 
L 541.004261 171.017768 
L 541.849716 170.684863 
L 542.272443 170.925244 
L 542.69517 170.765478 
L 543.540625 171.199506 
L 543.963352 171.148805 
L 544.38608 171.398969 
L 544.808807 170.721241 
L 545.231534 170.982733 
L 546.076989 171.023371 
L 546.499716 170.609744 
L 546.922443 171.056523 
L 548.190625 170.571225 
L 548.613352 170.84737 
L 549.03608 170.748957 
L 549.458807 170.807698 
L 550.726989 170.51698 
L 551.149716 170.745012 
L 551.572443 170.786442 
L 551.99517 171.193776 
L 552.417898 170.903311 
L 552.840625 171.058865 
L 553.263352 170.887706 
L 553.68608 170.952627 
L 554.108807 170.813599 
L 554.531534 171.215764 
L 554.954261 170.740278 
L 555.376989 170.613744 
L 556.222443 170.579924 
L 557.067898 171.092789 
L 557.913352 170.837638 
L 558.33608 170.913837 
L 558.758807 170.727723 
L 559.181534 170.969048 
L 559.604261 170.825615 
L 560.026989 170.889193 
L 560.449716 171.108736 
L 560.872443 171.187159 
L 561.29517 171.147762 
L 561.717898 170.533143 
L 563.408807 170.847003 
L 563.831534 170.707416 
L 564.254261 170.726416 
L 564.676989 171.098922 
L 565.099716 171.160734 
L 565.522443 170.559771 
L 565.94517 170.413832 
L 567.213352 170.938173 
L 567.63608 170.55412 
L 568.058807 170.483856 
L 568.481534 171.003681 
L 568.904261 170.953024 
L 569.326989 171.316819 
L 570.172443 170.613016 
L 570.59517 170.786452 
L 571.017898 170.736078 
L 571.440625 170.961564 
L 572.28608 170.948136 
L 572.708807 171.101096 
L 573.131534 170.735404 
L 573.976989 171.117438 
L 574.399716 170.693311 
L 575.24517 170.916796 
L 575.667898 171.203961 
L 576.513352 170.745573 
L 576.93608 171.040061 
L 577.358807 170.812139 
L 578.626989 170.704211 
L 579.049716 170.67869 
L 579.472443 170.895043 
L 579.89517 170.381518 
L 580.317898 170.93827 
L 580.740625 170.96271 
L 581.163352 170.534306 
L 581.58608 171.048113 
L 582.008807 170.651114 
L 582.431534 170.622422 
L 582.854261 170.950698 
L 583.276989 170.874743 
L 583.699716 170.64102 
L 584.122443 170.906864 
L 584.54517 170.691515 
L 584.967898 171.212719 
L 585.390625 170.834661 
L 585.813352 170.639146 
L 586.23608 170.850851 
L 586.658807 170.860258 
L 587.081534 170.667375 
L 587.504261 170.835431 
L 587.926989 170.626871 
L 588.349716 170.834009 
L 588.772443 170.866606 
L 589.19517 170.72198 
L 589.617898 170.720277 
L 590.040625 170.933455 
L 590.463352 170.451516 
L 590.88608 170.419604 
L 591.308807 170.998416 
L 591.731534 170.579085 
L 592.154261 170.74032 
L 592.576989 170.768913 
L 592.999716 170.429201 
L 593.422443 170.489571 
L 593.84517 170.718454 
L 594.267898 170.603393 
L 594.690625 170.850211 
L 595.113352 170.559679 
L 595.53608 170.813131 
L 595.958807 170.52679 
L 596.381534 170.63431 
L 596.804261 170.491912 
L 597.226989 170.648642 
L 597.649716 170.571859 
L 598.072443 170.871463 
L 598.49517 170.58753 
L 598.917898 170.512779 
L 601.454261 171.03303 
L 601.876989 170.707687 
L 602.299716 170.528718 
L 603.14517 170.9274 
L 603.567898 170.733948 
L 603.990625 171.0728 
L 604.413352 170.763549 
L 605.258807 171.122912 
L 605.681534 170.841414 
L 606.104261 170.798636 
L 606.526989 170.576703 
L 607.372443 170.830291 
L 607.79517 170.589583 
L 608.217898 170.916207 
L 608.640625 170.759809 
L 609.063352 170.774932 
L 609.908807 170.359896 
L 610.754261 170.635367 
L 611.176989 171.070245 
L 611.599716 170.657707 
L 612.022443 170.550851 
L 612.44517 170.598932 
L 612.867898 170.787151 
L 613.290625 170.681688 
L 613.713352 170.387036 
L 614.13608 170.416115 
L 614.558807 170.878409 
L 614.981534 170.630899 
L 615.404261 171.071578 
L 615.826989 171.1535 
L 616.249716 170.549599 
L 616.672443 170.759775 
L 617.09517 170.538498 
L 618.363352 171.055881 
L 619.208807 170.888099 
L 620.054261 170.692511 
L 620.476989 170.725042 
L 620.899716 170.613034 
L 621.322443 170.834623 
L 622.167898 170.953865 
L 622.590625 170.604125 
L 623.013352 170.559315 
L 623.43608 170.734298 
L 623.858807 170.765653 
L 624.281534 170.934995 
L 625.126989 170.626062 
L 625.126989 170.626062 
" clip-path="url(#p21cdcf690c)" style="fill: none; stroke: #ff7f0e; stroke-width: 1.5; stroke-linecap: square"/>
   </g>
   <g id="patch_3">
    <path d="M 92.490625 308.63625 
L 92.490625 31.43625 
" style="fill: none; stroke: #000000; stroke-width: 0.8; stroke-linejoin: miter; stroke-linecap: square"/>
   </g>
   <g id="patch_4">
    <path d="M 650.490625 308.63625 
L 650.490625 31.43625 
" style="fill: none; stroke: #000000; stroke-width: 0.8; stroke-linejoin: miter; stroke-linecap: square"/>
   </g>
   <g id="patch_5">
    <path d="M 92.490625 308.63625 
L 650.490625 308.63625 
" style="fill: none; stroke: #000000; stroke-width: 0.8; stroke-linejoin: miter; stroke-linecap: square"/>
   </g>
   <g id="patch_6">
    <path d="M 92.490625 31.43625 
L 650.490625 31.43625 
" style="fill: none; stroke: #000000; stroke-width: 0.8; stroke-linejoin: miter; stroke-linecap: square"/>
   </g>
   <g id="text_15">
    <!-- Generator and Discriminator Loss During Training -->
    <g transform="translate(74.258125 25.43625) scale(0.24 -0.24)">
     <defs>
      <path id="DejaVuSans-47" d="M 3809 666 
L 3809 1919 
L 2778 1919 
L 2778 2438 
L 4434 2438 
L 4434 434 
Q 4069 175 3628 42 
Q 3188 -91 2688 -91 
Q 1594 -91 976 548 
Q 359 1188 359 2328 
Q 359 3472 976 4111 
Q 1594 4750 2688 4750 
Q 3144 4750 3555 4637 
Q 3966 4525 4313 4306 
L 4313 3634 
Q 3963 3931 3569 4081 
Q 3175 4231 2741 4231 
Q 1884 4231 1454 3753 
Q 1025 3275 1025 2328 
Q 1025 1384 1454 906 
Q 1884 428 2741 428 
Q 3075 428 3337 486 
Q 3600 544 3809 666 
z
" transform="scale(0.015625)"/>
      <path id="DejaVuSans-20" transform="scale(0.015625)"/>
      <path id="DejaVuSans-64" d="M 2906 2969 
L 2906 4863 
L 3481 4863 
L 3481 0 
L 2906 0 
L 2906 525 
Q 2725 213 2448 61 
Q 2172 -91 1784 -91 
Q 1150 -91 751 415 
Q 353 922 353 1747 
Q 353 2572 751 3078 
Q 1150 3584 1784 3584 
Q 2172 3584 2448 3432 
Q 2725 3281 2906 2969 
z
M 947 1747 
Q 947 1113 1208 752 
Q 1469 391 1925 391 
Q 2381 391 2643 752 
Q 2906 1113 2906 1747 
Q 2906 2381 2643 2742 
Q 2381 3103 1925 3103 
Q 1469 3103 1208 2742 
Q 947 2381 947 1747 
z
" transform="scale(0.015625)"/>
      <path id="DejaVuSans-44" d="M 1259 4147 
L 1259 519 
L 2022 519 
Q 2988 519 3436 956 
Q 3884 1394 3884 2338 
Q 3884 3275 3436 3711 
Q 2988 4147 2022 4147 
L 1259 4147 
z
M 628 4666 
L 1925 4666 
Q 3281 4666 3915 4102 
Q 4550 3538 4550 2338 
Q 4550 1131 3912 565 
Q 3275 0 1925 0 
L 628 0 
L 628 4666 
z
" transform="scale(0.015625)"/>
      <path id="DejaVuSans-63" d="M 3122 3366 
L 3122 2828 
Q 2878 2963 2633 3030 
Q 2388 3097 2138 3097 
Q 1578 3097 1268 2742 
Q 959 2388 959 1747 
Q 959 1106 1268 751 
Q 1578 397 2138 397 
Q 2388 397 2633 464 
Q 2878 531 3122 666 
L 3122 134 
Q 2881 22 2623 -34 
Q 2366 -91 2075 -91 
Q 1284 -91 818 406 
Q 353 903 353 1747 
Q 353 2603 823 3093 
Q 1294 3584 2113 3584 
Q 2378 3584 2631 3529 
Q 2884 3475 3122 3366 
z
" transform="scale(0.015625)"/>
      <path id="DejaVuSans-6d" d="M 3328 2828 
Q 3544 3216 3844 3400 
Q 4144 3584 4550 3584 
Q 5097 3584 5394 3201 
Q 5691 2819 5691 2113 
L 5691 0 
L 5113 0 
L 5113 2094 
Q 5113 2597 4934 2840 
Q 4756 3084 4391 3084 
Q 3944 3084 3684 2787 
Q 3425 2491 3425 1978 
L 3425 0 
L 2847 0 
L 2847 2094 
Q 2847 2600 2669 2842 
Q 2491 3084 2119 3084 
Q 1678 3084 1418 2786 
Q 1159 2488 1159 1978 
L 1159 0 
L 581 0 
L 581 3500 
L 1159 3500 
L 1159 2956 
Q 1356 3278 1631 3431 
Q 1906 3584 2284 3584 
Q 2666 3584 2933 3390 
Q 3200 3197 3328 2828 
z
" transform="scale(0.015625)"/>
      <path id="DejaVuSans-75" d="M 544 1381 
L 544 3500 
L 1119 3500 
L 1119 1403 
Q 1119 906 1312 657 
Q 1506 409 1894 409 
Q 2359 409 2629 706 
Q 2900 1003 2900 1516 
L 2900 3500 
L 3475 3500 
L 3475 0 
L 2900 0 
L 2900 538 
Q 2691 219 2414 64 
Q 2138 -91 1772 -91 
Q 1169 -91 856 284 
Q 544 659 544 1381 
z
M 1991 3584 
L 1991 3584 
z
" transform="scale(0.015625)"/>
      <path id="DejaVuSans-67" d="M 2906 1791 
Q 2906 2416 2648 2759 
Q 2391 3103 1925 3103 
Q 1463 3103 1205 2759 
Q 947 2416 947 1791 
Q 947 1169 1205 825 
Q 1463 481 1925 481 
Q 2391 481 2648 825 
Q 2906 1169 2906 1791 
z
M 3481 434 
Q 3481 -459 3084 -895 
Q 2688 -1331 1869 -1331 
Q 1566 -1331 1297 -1286 
Q 1028 -1241 775 -1147 
L 775 -588 
Q 1028 -725 1275 -790 
Q 1522 -856 1778 -856 
Q 2344 -856 2625 -561 
Q 2906 -266 2906 331 
L 2906 616 
Q 2728 306 2450 153 
Q 2172 0 1784 0 
Q 1141 0 747 490 
Q 353 981 353 1791 
Q 353 2603 747 3093 
Q 1141 3584 1784 3584 
Q 2172 3584 2450 3431 
Q 2728 3278 2906 2969 
L 2906 3500 
L 3481 3500 
L 3481 434 
z
" transform="scale(0.015625)"/>
      <path id="DejaVuSans-54" d="M -19 4666 
L 3928 4666 
L 3928 4134 
L 2272 4134 
L 2272 0 
L 1638 0 
L 1638 4134 
L -19 4134 
L -19 4666 
z
" transform="scale(0.015625)"/>
     </defs>
     <use xlink:href="#DejaVuSans-47"/>
     <use xlink:href="#DejaVuSans-65" x="77.490234"/>
     <use xlink:href="#DejaVuSans-6e" x="139.013672"/>
     <use xlink:href="#DejaVuSans-65" x="202.392578"/>
     <use xlink:href="#DejaVuSans-72" x="263.916016"/>
     <use xlink:href="#DejaVuSans-61" x="305.029297"/>
     <use xlink:href="#DejaVuSans-74" x="366.308594"/>
     <use xlink:href="#DejaVuSans-6f" x="405.517578"/>
     <use xlink:href="#DejaVuSans-72" x="466.699219"/>
     <use xlink:href="#DejaVuSans-20" x="507.8125"/>
     <use xlink:href="#DejaVuSans-61" x="539.599609"/>
     <use xlink:href="#DejaVuSans-6e" x="600.878906"/>
     <use xlink:href="#DejaVuSans-64" x="664.257812"/>
     <use xlink:href="#DejaVuSans-20" x="727.734375"/>
     <use xlink:href="#DejaVuSans-44" x="759.521484"/>
     <use xlink:href="#DejaVuSans-69" x="836.523438"/>
     <use xlink:href="#DejaVuSans-73" x="864.306641"/>
     <use xlink:href="#DejaVuSans-63" x="916.40625"/>
     <use xlink:href="#DejaVuSans-72" x="971.386719"/>
     <use xlink:href="#DejaVuSans-69" x="1012.5"/>
     <use xlink:href="#DejaVuSans-6d" x="1040.283203"/>
     <use xlink:href="#DejaVuSans-69" x="1137.695312"/>
     <use xlink:href="#DejaVuSans-6e" x="1165.478516"/>
     <use xlink:href="#DejaVuSans-61" x="1228.857422"/>
     <use xlink:href="#DejaVuSans-74" x="1290.136719"/>
     <use xlink:href="#DejaVuSans-6f" x="1329.345703"/>
     <use xlink:href="#DejaVuSans-72" x="1390.527344"/>
     <use xlink:href="#DejaVuSans-20" x="1431.640625"/>
     <use xlink:href="#DejaVuSans-4c" x="1463.427734"/>
     <use xlink:href="#DejaVuSans-6f" x="1517.390625"/>
     <use xlink:href="#DejaVuSans-73" x="1578.572266"/>
     <use xlink:href="#DejaVuSans-73" x="1630.671875"/>
     <use xlink:href="#DejaVuSans-20" x="1682.771484"/>
     <use xlink:href="#DejaVuSans-44" x="1714.558594"/>
     <use xlink:href="#DejaVuSans-75" x="1791.560547"/>
     <use xlink:href="#DejaVuSans-72" x="1854.939453"/>
     <use xlink:href="#DejaVuSans-69" x="1896.052734"/>
     <use xlink:href="#DejaVuSans-6e" x="1923.835938"/>
     <use xlink:href="#DejaVuSans-67" x="1987.214844"/>
     <use xlink:href="#DejaVuSans-20" x="2050.691406"/>
     <use xlink:href="#DejaVuSans-54" x="2082.478516"/>
     <use xlink:href="#DejaVuSans-72" x="2128.8125"/>
     <use xlink:href="#DejaVuSans-61" x="2169.925781"/>
     <use xlink:href="#DejaVuSans-69" x="2231.205078"/>
     <use xlink:href="#DejaVuSans-6e" x="2258.988281"/>
     <use xlink:href="#DejaVuSans-69" x="2322.367188"/>
     <use xlink:href="#DejaVuSans-6e" x="2350.150391"/>
     <use xlink:href="#DejaVuSans-67" x="2413.529297"/>
    </g>
   </g>
   <g id="legend_1">
    <g id="patch_7">
     <path d="M 556.99375 106.14875 
L 636.490625 106.14875 
Q 640.490625 106.14875 640.490625 102.14875 
L 640.490625 45.43625 
Q 640.490625 41.43625 636.490625 41.43625 
L 556.99375 41.43625 
Q 552.99375 41.43625 552.99375 45.43625 
L 552.99375 102.14875 
Q 552.99375 106.14875 556.99375 106.14875 
z
" style="fill: #ffffff; opacity: 0.8; stroke: #cccccc; stroke-linejoin: miter"/>
    </g>
    <g id="line2d_15">
     <path d="M 560.99375 57.633125 
L 580.99375 57.633125 
L 600.99375 57.633125 
" style="fill: none; stroke: #1f77b4; stroke-width: 1.5; stroke-linecap: square"/>
    </g>
    <g id="text_16">
     <!-- G -->
     <g transform="translate(616.99375 64.633125) scale(0.2 -0.2)">
      <use xlink:href="#DejaVuSans-47"/>
     </g>
    </g>
    <g id="line2d_16">
     <path d="M 560.99375 86.989375 
L 580.99375 86.989375 
L 600.99375 86.989375 
" style="fill: none; stroke: #ff7f0e; stroke-width: 1.5; stroke-linecap: square"/>
    </g>
    <g id="text_17">
     <!-- D -->
     <g transform="translate(616.99375 93.989375) scale(0.2 -0.2)">
      <use xlink:href="#DejaVuSans-44"/>
     </g>
    </g>
   </g>
  </g>
 </g>
 <defs>
  <clipPath id="p21cdcf690c">
   <rect x="92.490625" y="31.43625" width="558" height="277.2"/>
  </clipPath>
 </defs>
</svg>
