<?xml version="1.0" encoding="utf-8" standalone="no"?>
<!DOCTYPE svg PUBLIC "-//W3C//DTD SVG 1.1//EN"
  "http://www.w3.org/Graphics/SVG/1.1/DTD/svg11.dtd">
<svg xmlns:xlink="http://www.w3.org/1999/xlink" width="675.923125pt" height="365.54875pt" viewBox="0 0 675.923125 365.54875" xmlns="http://www.w3.org/2000/svg" version="1.1">
 <metadata>
  <rdf:RDF xmlns:dc="http://purl.org/dc/elements/1.1/" xmlns:cc="http://creativecommons.org/ns#" xmlns:rdf="http://www.w3.org/1999/02/22-rdf-syntax-ns#">
   <cc:Work>
    <dc:type rdf:resource="http://purl.org/dc/dcmitype/StillImage"/>
    <dc:date>2024-02-12T18:43:53.944265</dc:date>
    <dc:format>image/svg+xml</dc:format>
    <dc:creator>
     <cc:Agent>
      <dc:title>Matplotlib v3.7.2, https://matplotlib.org/</dc:title>
     </cc:Agent>
    </dc:creator>
   </cc:Work>
  </rdf:RDF>
 </metadata>
 <defs>
  <style type="text/css">*{stroke-linejoin: round; stroke-linecap: butt}</style>
 </defs>
 <g id="figure_1">
  <g id="patch_1">
   <path d="M 0 365.54875 
L 675.923125 365.54875 
L 675.923125 -0 
L 0 -0 
z
" style="fill: #ffffff"/>
  </g>
  <g id="axes_1">
   <g id="patch_2">
    <path d="M 92.490625 308.63625 
L 650.490625 308.63625 
L 650.490625 31.43625 
L 92.490625 31.43625 
z
" style="fill: #ffffff"/>
   </g>
   <g id="matplotlib.axis_1">
    <g id="xtick_1">
     <g id="line2d_1">
      <defs>
       <path id="mcb0efc2ebd" d="M 0 0 
L 0 3.5 
" style="stroke: #000000; stroke-width: 0.8"/>
      </defs>
      <g>
       <use xlink:href="#mcb0efc2ebd" x="117.854261" y="308.63625" style="stroke: #000000; stroke-width: 0.8"/>
      </g>
     </g>
     <g id="text_1">
      <!-- 0 -->
      <g transform="translate(111.491761 330.833125) scale(0.2 -0.2)">
       <defs>
        <path id="DejaVuSans-30" d="M 2034 4250 
Q 1547 4250 1301 3770 
Q 1056 3291 1056 2328 
Q 1056 1369 1301 889 
Q 1547 409 2034 409 
Q 2525 409 2770 889 
Q 3016 1369 3016 2328 
Q 3016 3291 2770 3770 
Q 2525 4250 2034 4250 
z
M 2034 4750 
Q 2819 4750 3233 4129 
Q 3647 3509 3647 2328 
Q 3647 1150 3233 529 
Q 2819 -91 2034 -91 
Q 1250 -91 836 529 
Q 422 1150 422 2328 
Q 422 3509 836 4129 
Q 1250 4750 2034 4750 
z
" transform="scale(0.015625)"/>
       </defs>
       <use xlink:href="#DejaVuSans-30"/>
      </g>
     </g>
    </g>
    <g id="xtick_2">
     <g id="line2d_2">
      <g>
       <use xlink:href="#mcb0efc2ebd" x="219.308807" y="308.63625" style="stroke: #000000; stroke-width: 0.8"/>
      </g>
     </g>
     <g id="text_2">
      <!-- 200 -->
      <g transform="translate(200.221307 330.833125) scale(0.2 -0.2)">
       <defs>
        <path id="DejaVuSans-32" d="M 1228 531 
L 3431 531 
L 3431 0 
L 469 0 
L 469 531 
Q 828 903 1448 1529 
Q 2069 2156 2228 2338 
Q 2531 2678 2651 2914 
Q 2772 3150 2772 3378 
Q 2772 3750 2511 3984 
Q 2250 4219 1831 4219 
Q 1534 4219 1204 4116 
Q 875 4013 500 3803 
L 500 4441 
Q 881 4594 1212 4672 
Q 1544 4750 1819 4750 
Q 2544 4750 2975 4387 
Q 3406 4025 3406 3419 
Q 3406 3131 3298 2873 
Q 3191 2616 2906 2266 
Q 2828 2175 2409 1742 
Q 1991 1309 1228 531 
z
" transform="scale(0.015625)"/>
       </defs>
       <use xlink:href="#DejaVuSans-32"/>
       <use xlink:href="#DejaVuSans-30" x="63.623047"/>
       <use xlink:href="#DejaVuSans-30" x="127.246094"/>
      </g>
     </g>
    </g>
    <g id="xtick_3">
     <g id="line2d_3">
      <g>
       <use xlink:href="#mcb0efc2ebd" x="320.763352" y="308.63625" style="stroke: #000000; stroke-width: 0.8"/>
      </g>
     </g>
     <g id="text_3">
      <!-- 400 -->
      <g transform="translate(301.675852 330.833125) scale(0.2 -0.2)">
       <defs>
        <path id="DejaVuSans-34" d="M 2419 4116 
L 825 1625 
L 2419 1625 
L 2419 4116 
z
M 2253 4666 
L 3047 4666 
L 3047 1625 
L 3713 1625 
L 3713 1100 
L 3047 1100 
L 3047 0 
L 2419 0 
L 2419 1100 
L 313 1100 
L 313 1709 
L 2253 4666 
z
" transform="scale(0.015625)"/>
       </defs>
       <use xlink:href="#DejaVuSans-34"/>
       <use xlink:href="#DejaVuSans-30" x="63.623047"/>
       <use xlink:href="#DejaVuSans-30" x="127.246094"/>
      </g>
     </g>
    </g>
    <g id="xtick_4">
     <g id="line2d_4">
      <g>
       <use xlink:href="#mcb0efc2ebd" x="422.217898" y="308.63625" style="stroke: #000000; stroke-width: 0.8"/>
      </g>
     </g>
     <g id="text_4">
      <!-- 600 -->
      <g transform="translate(403.130398 330.833125) scale(0.2 -0.2)">
       <defs>
        <path id="DejaVuSans-36" d="M 2113 2584 
Q 1688 2584 1439 2293 
Q 1191 2003 1191 1497 
Q 1191 994 1439 701 
Q 1688 409 2113 409 
Q 2538 409 2786 701 
Q 3034 994 3034 1497 
Q 3034 2003 2786 2293 
Q 2538 2584 2113 2584 
z
M 3366 4563 
L 3366 3988 
Q 3128 4100 2886 4159 
Q 2644 4219 2406 4219 
Q 1781 4219 1451 3797 
Q 1122 3375 1075 2522 
Q 1259 2794 1537 2939 
Q 1816 3084 2150 3084 
Q 2853 3084 3261 2657 
Q 3669 2231 3669 1497 
Q 3669 778 3244 343 
Q 2819 -91 2113 -91 
Q 1303 -91 875 529 
Q 447 1150 447 2328 
Q 447 3434 972 4092 
Q 1497 4750 2381 4750 
Q 2619 4750 2861 4703 
Q 3103 4656 3366 4563 
z
" transform="scale(0.015625)"/>
       </defs>
       <use xlink:href="#DejaVuSans-36"/>
       <use xlink:href="#DejaVuSans-30" x="63.623047"/>
       <use xlink:href="#DejaVuSans-30" x="127.246094"/>
      </g>
     </g>
    </g>
    <g id="xtick_5">
     <g id="line2d_5">
      <g>
       <use xlink:href="#mcb0efc2ebd" x="523.672443" y="308.63625" style="stroke: #000000; stroke-width: 0.8"/>
      </g>
     </g>
     <g id="text_5">
      <!-- 800 -->
      <g transform="translate(504.584943 330.833125) scale(0.2 -0.2)">
       <defs>
        <path id="DejaVuSans-38" d="M 2034 2216 
Q 1584 2216 1326 1975 
Q 1069 1734 1069 1313 
Q 1069 891 1326 650 
Q 1584 409 2034 409 
Q 2484 409 2743 651 
Q 3003 894 3003 1313 
Q 3003 1734 2745 1975 
Q 2488 2216 2034 2216 
z
M 1403 2484 
Q 997 2584 770 2862 
Q 544 3141 544 3541 
Q 544 4100 942 4425 
Q 1341 4750 2034 4750 
Q 2731 4750 3128 4425 
Q 3525 4100 3525 3541 
Q 3525 3141 3298 2862 
Q 3072 2584 2669 2484 
Q 3125 2378 3379 2068 
Q 3634 1759 3634 1313 
Q 3634 634 3220 271 
Q 2806 -91 2034 -91 
Q 1263 -91 848 271 
Q 434 634 434 1313 
Q 434 1759 690 2068 
Q 947 2378 1403 2484 
z
M 1172 3481 
Q 1172 3119 1398 2916 
Q 1625 2713 2034 2713 
Q 2441 2713 2670 2916 
Q 2900 3119 2900 3481 
Q 2900 3844 2670 4047 
Q 2441 4250 2034 4250 
Q 1625 4250 1398 4047 
Q 1172 3844 1172 3481 
z
" transform="scale(0.015625)"/>
       </defs>
       <use xlink:href="#DejaVuSans-38"/>
       <use xlink:href="#DejaVuSans-30" x="63.623047"/>
       <use xlink:href="#DejaVuSans-30" x="127.246094"/>
      </g>
     </g>
    </g>
    <g id="xtick_6">
     <g id="line2d_6">
      <g>
       <use xlink:href="#mcb0efc2ebd" x="625.126989" y="308.63625" style="stroke: #000000; stroke-width: 0.8"/>
      </g>
     </g>
     <g id="text_6">
      <!-- 1000 -->
      <g transform="translate(599.676989 330.833125) scale(0.2 -0.2)">
       <defs>
        <path id="DejaVuSans-31" d="M 794 531 
L 1825 531 
L 1825 4091 
L 703 3866 
L 703 4441 
L 1819 4666 
L 2450 4666 
L 2450 531 
L 3481 531 
L 3481 0 
L 794 0 
L 794 531 
z
" transform="scale(0.015625)"/>
       </defs>
       <use xlink:href="#DejaVuSans-31"/>
       <use xlink:href="#DejaVuSans-30" x="63.623047"/>
       <use xlink:href="#DejaVuSans-30" x="127.246094"/>
       <use xlink:href="#DejaVuSans-30" x="190.869141"/>
      </g>
     </g>
    </g>
    <g id="text_7">
     <!-- iterations -->
     <g transform="translate(324.035938 354.189375) scale(0.2 -0.2)">
      <defs>
       <path id="DejaVuSans-69" d="M 603 3500 
L 1178 3500 
L 1178 0 
L 603 0 
L 603 3500 
z
M 603 4863 
L 1178 4863 
L 1178 4134 
L 603 4134 
L 603 4863 
z
" transform="scale(0.015625)"/>
       <path id="DejaVuSans-74" d="M 1172 4494 
L 1172 3500 
L 2356 3500 
L 2356 3053 
L 1172 3053 
L 1172 1153 
Q 1172 725 1289 603 
Q 1406 481 1766 481 
L 2356 481 
L 2356 0 
L 1766 0 
Q 1100 0 847 248 
Q 594 497 594 1153 
L 594 3053 
L 172 3053 
L 172 3500 
L 594 3500 
L 594 4494 
L 1172 4494 
z
" transform="scale(0.015625)"/>
       <path id="DejaVuSans-65" d="M 3597 1894 
L 3597 1613 
L 953 1613 
Q 991 1019 1311 708 
Q 1631 397 2203 397 
Q 2534 397 2845 478 
Q 3156 559 3463 722 
L 3463 178 
Q 3153 47 2828 -22 
Q 2503 -91 2169 -91 
Q 1331 -91 842 396 
Q 353 884 353 1716 
Q 353 2575 817 3079 
Q 1281 3584 2069 3584 
Q 2775 3584 3186 3129 
Q 3597 2675 3597 1894 
z
M 3022 2063 
Q 3016 2534 2758 2815 
Q 2500 3097 2075 3097 
Q 1594 3097 1305 2825 
Q 1016 2553 972 2059 
L 3022 2063 
z
" transform="scale(0.015625)"/>
       <path id="DejaVuSans-72" d="M 2631 2963 
Q 2534 3019 2420 3045 
Q 2306 3072 2169 3072 
Q 1681 3072 1420 2755 
Q 1159 2438 1159 1844 
L 1159 0 
L 581 0 
L 581 3500 
L 1159 3500 
L 1159 2956 
Q 1341 3275 1631 3429 
Q 1922 3584 2338 3584 
Q 2397 3584 2469 3576 
Q 2541 3569 2628 3553 
L 2631 2963 
z
" transform="scale(0.015625)"/>
       <path id="DejaVuSans-61" d="M 2194 1759 
Q 1497 1759 1228 1600 
Q 959 1441 959 1056 
Q 959 750 1161 570 
Q 1363 391 1709 391 
Q 2188 391 2477 730 
Q 2766 1069 2766 1631 
L 2766 1759 
L 2194 1759 
z
M 3341 1997 
L 3341 0 
L 2766 0 
L 2766 531 
Q 2569 213 2275 61 
Q 1981 -91 1556 -91 
Q 1019 -91 701 211 
Q 384 513 384 1019 
Q 384 1609 779 1909 
Q 1175 2209 1959 2209 
L 2766 2209 
L 2766 2266 
Q 2766 2663 2505 2880 
Q 2244 3097 1772 3097 
Q 1472 3097 1187 3025 
Q 903 2953 641 2809 
L 641 3341 
Q 956 3463 1253 3523 
Q 1550 3584 1831 3584 
Q 2591 3584 2966 3190 
Q 3341 2797 3341 1997 
z
" transform="scale(0.015625)"/>
       <path id="DejaVuSans-6f" d="M 1959 3097 
Q 1497 3097 1228 2736 
Q 959 2375 959 1747 
Q 959 1119 1226 758 
Q 1494 397 1959 397 
Q 2419 397 2687 759 
Q 2956 1122 2956 1747 
Q 2956 2369 2687 2733 
Q 2419 3097 1959 3097 
z
M 1959 3584 
Q 2709 3584 3137 3096 
Q 3566 2609 3566 1747 
Q 3566 888 3137 398 
Q 2709 -91 1959 -91 
Q 1206 -91 779 398 
Q 353 888 353 1747 
Q 353 2609 779 3096 
Q 1206 3584 1959 3584 
z
" transform="scale(0.015625)"/>
       <path id="DejaVuSans-6e" d="M 3513 2113 
L 3513 0 
L 2938 0 
L 2938 2094 
Q 2938 2591 2744 2837 
Q 2550 3084 2163 3084 
Q 1697 3084 1428 2787 
Q 1159 2491 1159 1978 
L 1159 0 
L 581 0 
L 581 3500 
L 1159 3500 
L 1159 2956 
Q 1366 3272 1645 3428 
Q 1925 3584 2291 3584 
Q 2894 3584 3203 3211 
Q 3513 2838 3513 2113 
z
" transform="scale(0.015625)"/>
       <path id="DejaVuSans-73" d="M 2834 3397 
L 2834 2853 
Q 2591 2978 2328 3040 
Q 2066 3103 1784 3103 
Q 1356 3103 1142 2972 
Q 928 2841 928 2578 
Q 928 2378 1081 2264 
Q 1234 2150 1697 2047 
L 1894 2003 
Q 2506 1872 2764 1633 
Q 3022 1394 3022 966 
Q 3022 478 2636 193 
Q 2250 -91 1575 -91 
Q 1294 -91 989 -36 
Q 684 19 347 128 
L 347 722 
Q 666 556 975 473 
Q 1284 391 1588 391 
Q 1994 391 2212 530 
Q 2431 669 2431 922 
Q 2431 1156 2273 1281 
Q 2116 1406 1581 1522 
L 1381 1569 
Q 847 1681 609 1914 
Q 372 2147 372 2553 
Q 372 3047 722 3315 
Q 1072 3584 1716 3584 
Q 2034 3584 2315 3537 
Q 2597 3491 2834 3397 
z
" transform="scale(0.015625)"/>
      </defs>
      <use xlink:href="#DejaVuSans-69"/>
      <use xlink:href="#DejaVuSans-74" x="27.783203"/>
      <use xlink:href="#DejaVuSans-65" x="66.992188"/>
      <use xlink:href="#DejaVuSans-72" x="128.515625"/>
      <use xlink:href="#DejaVuSans-61" x="169.628906"/>
      <use xlink:href="#DejaVuSans-74" x="230.908203"/>
      <use xlink:href="#DejaVuSans-69" x="270.117188"/>
      <use xlink:href="#DejaVuSans-6f" x="297.900391"/>
      <use xlink:href="#DejaVuSans-6e" x="359.082031"/>
      <use xlink:href="#DejaVuSans-73" x="422.460938"/>
     </g>
    </g>
   </g>
   <g id="matplotlib.axis_2">
    <g id="ytick_1">
     <g id="line2d_7">
      <defs>
       <path id="m4630e45125" d="M 0 0 
L -3.5 0 
" style="stroke: #000000; stroke-width: 0.8"/>
      </defs>
      <g>
       <use xlink:href="#m4630e45125" x="92.490625" y="287.754235" style="stroke: #000000; stroke-width: 0.8"/>
      </g>
     </g>
     <g id="text_8">
      <!-- −200 -->
      <g transform="translate(30.55625 295.352672) scale(0.2 -0.2)">
       <defs>
        <path id="DejaVuSans-2212" d="M 678 2272 
L 4684 2272 
L 4684 1741 
L 678 1741 
L 678 2272 
z
" transform="scale(0.015625)"/>
       </defs>
       <use xlink:href="#DejaVuSans-2212"/>
       <use xlink:href="#DejaVuSans-32" x="83.789062"/>
       <use xlink:href="#DejaVuSans-30" x="147.412109"/>
       <use xlink:href="#DejaVuSans-30" x="211.035156"/>
      </g>
     </g>
    </g>
    <g id="ytick_2">
     <g id="line2d_8">
      <g>
       <use xlink:href="#m4630e45125" x="92.490625" y="227.578386" style="stroke: #000000; stroke-width: 0.8"/>
      </g>
     </g>
     <g id="text_9">
      <!-- −100 -->
      <g transform="translate(30.55625 235.176823) scale(0.2 -0.2)">
       <use xlink:href="#DejaVuSans-2212"/>
       <use xlink:href="#DejaVuSans-31" x="83.789062"/>
       <use xlink:href="#DejaVuSans-30" x="147.412109"/>
       <use xlink:href="#DejaVuSans-30" x="211.035156"/>
      </g>
     </g>
    </g>
    <g id="ytick_3">
     <g id="line2d_9">
      <g>
       <use xlink:href="#m4630e45125" x="92.490625" y="167.402537" style="stroke: #000000; stroke-width: 0.8"/>
      </g>
     </g>
     <g id="text_10">
      <!-- 0 -->
      <g transform="translate(72.765625 175.000974) scale(0.2 -0.2)">
       <use xlink:href="#DejaVuSans-30"/>
      </g>
     </g>
    </g>
    <g id="ytick_4">
     <g id="line2d_10">
      <g>
       <use xlink:href="#m4630e45125" x="92.490625" y="107.226688" style="stroke: #000000; stroke-width: 0.8"/>
      </g>
     </g>
     <g id="text_11">
      <!-- 100 -->
      <g transform="translate(47.315625 114.825125) scale(0.2 -0.2)">
       <use xlink:href="#DejaVuSans-31"/>
       <use xlink:href="#DejaVuSans-30" x="63.623047"/>
       <use xlink:href="#DejaVuSans-30" x="127.246094"/>
      </g>
     </g>
    </g>
    <g id="ytick_5">
     <g id="line2d_11">
      <g>
       <use xlink:href="#m4630e45125" x="92.490625" y="47.050838" style="stroke: #000000; stroke-width: 0.8"/>
      </g>
     </g>
     <g id="text_12">
      <!-- 200 -->
      <g transform="translate(47.315625 54.649276) scale(0.2 -0.2)">
       <use xlink:href="#DejaVuSans-32"/>
       <use xlink:href="#DejaVuSans-30" x="63.623047"/>
       <use xlink:href="#DejaVuSans-30" x="127.246094"/>
      </g>
     </g>
    </g>
    <g id="text_13">
     <!-- Loss -->
     <g transform="translate(22.396875 191.970625) rotate(-90) scale(0.2 -0.2)">
      <defs>
       <path id="DejaVuSans-4c" d="M 628 4666 
L 1259 4666 
L 1259 531 
L 3531 531 
L 3531 0 
L 628 0 
L 628 4666 
z
" transform="scale(0.015625)"/>
      </defs>
      <use xlink:href="#DejaVuSans-4c"/>
      <use xlink:href="#DejaVuSans-6f" x="53.962891"/>
      <use xlink:href="#DejaVuSans-73" x="115.144531"/>
      <use xlink:href="#DejaVuSans-73" x="167.244141"/>
     </g>
    </g>
   </g>
   <g id="line2d_12">
    <path d="M 117.854261 138.53853 
L 118.361534 97.982964 
L 118.868807 117.083744 
L 119.37608 121.777179 
L 119.883352 104.43596 
L 120.390625 128.019774 
L 120.897898 117.918638 
L 121.40517 99.792773 
L 121.912443 123.303136 
L 122.419716 113.920019 
L 122.926989 107.215809 
L 123.434261 54.185175 
L 123.941534 44.586844 
L 124.448807 50.208405 
L 124.95608 65.431701 
L 125.463352 52.62134 
L 125.970625 44.03625 
L 126.477898 47.425516 
L 126.98517 53.255988 
L 127.492443 62.20203 
L 127.999716 54.058702 
L 128.506989 59.456177 
L 129.014261 109.140656 
L 129.521534 94.805897 
L 130.028807 87.78307 
L 130.53608 75.133855 
L 131.043352 98.959252 
L 131.550625 90.513457 
L 132.057898 91.353551 
L 132.56517 94.307751 
L 133.072443 99.862324 
L 133.579716 94.958193 
L 134.086989 93.356455 
L 135.101534 79.768648 
L 135.608807 81.625829 
L 136.11608 87.639335 
L 136.623352 98.247788 
L 137.130625 97.025522 
L 137.637898 100.470922 
L 138.14517 94.009915 
L 138.652443 108.302296 
L 139.159716 106.746361 
L 139.666989 111.813688 
L 140.174261 111.321942 
L 140.681534 109.609667 
L 141.188807 111.732825 
L 142.203352 118.313446 
L 142.710625 121.128737 
L 143.217898 118.243637 
L 143.72517 122.939672 
L 144.232443 114.006144 
L 144.739716 113.402414 
L 145.246989 118.336942 
L 145.754261 126.247555 
L 146.261534 117.705982 
L 146.768807 118.938384 
L 147.27608 115.501875 
L 147.783352 121.08746 
L 148.290625 119.267918 
L 148.797898 128.786107 
L 149.30517 128.140582 
L 149.812443 126.980209 
L 150.319716 127.736057 
L 150.826989 119.824596 
L 151.334261 123.041682 
L 151.841534 125.22985 
L 152.348807 132.060951 
L 152.85608 127.742292 
L 153.363352 128.726967 
L 153.870625 132.552166 
L 154.377898 126.842327 
L 154.88517 124.849238 
L 155.392443 134.387408 
L 155.899716 128.837998 
L 156.406989 132.134935 
L 156.914261 123.78468 
L 157.421534 132.616752 
L 157.928807 133.362101 
L 158.43608 130.522423 
L 158.943352 132.295449 
L 159.450625 130.881563 
L 159.957898 130.761392 
L 160.46517 136.851809 
L 160.972443 133.13345 
L 161.479716 136.862142 
L 161.986989 132.687554 
L 162.494261 136.323725 
L 163.001534 132.024156 
L 163.508807 135.651823 
L 164.01608 134.503783 
L 164.523352 138.447324 
L 165.030625 140.302657 
L 165.537898 137.326201 
L 166.04517 135.530543 
L 166.552443 133.290565 
L 167.059716 132.866831 
L 167.566989 142.596344 
L 168.074261 144.986145 
L 169.088807 140.610362 
L 169.59608 141.500038 
L 170.103352 143.686115 
L 170.610625 140.210455 
L 171.117898 143.748127 
L 171.62517 145.84987 
L 172.132443 147.376432 
L 172.639716 144.567206 
L 173.146989 148.385484 
L 173.654261 146.372494 
L 174.161534 149.177832 
L 174.668807 150.583748 
L 175.17608 151.428518 
L 175.683352 151.65227 
L 176.190625 153.806823 
L 176.697898 151.359519 
L 177.20517 149.66105 
L 177.712443 150.094058 
L 178.219716 153.424061 
L 178.726989 153.379319 
L 179.234261 152.68978 
L 179.741534 148.221893 
L 180.248807 149.94797 
L 180.75608 150.801801 
L 181.263352 149.496023 
L 181.770625 153.426297 
L 182.277898 148.701191 
L 182.78517 155.673158 
L 183.292443 152.270783 
L 183.799716 152.812434 
L 184.306989 151.283283 
L 184.814261 151.61941 
L 185.321534 149.972005 
L 185.828807 149.445184 
L 186.33608 150.678389 
L 186.843352 153.782528 
L 187.350625 152.701329 
L 187.857898 150.58121 
L 188.36517 153.449759 
L 188.872443 152.054885 
L 190.394261 149.175368 
L 190.901534 152.92116 
L 191.408807 154.821874 
L 191.91608 154.122896 
L 192.423352 154.659618 
L 192.930625 154.935823 
L 193.437898 150.153039 
L 193.94517 153.838236 
L 194.452443 152.87849 
L 194.959716 156.117978 
L 195.466989 154.618691 
L 195.974261 155.286374 
L 196.481534 155.509007 
L 196.988807 155.203361 
L 197.49608 155.733462 
L 198.003352 154.610605 
L 198.510625 156.868743 
L 199.52517 154.86685 
L 200.032443 155.846898 
L 200.539716 155.5618 
L 201.046989 154.291763 
L 201.554261 156.186717 
L 202.061534 156.244531 
L 202.568807 155.715934 
L 203.07608 155.403453 
L 203.583352 155.782756 
L 204.090625 155.993486 
L 204.597898 155.337442 
L 205.10517 155.619744 
L 205.612443 156.597801 
L 206.119716 157.322453 
L 206.626989 156.929476 
L 207.134261 155.284185 
L 207.641534 157.053882 
L 208.148807 154.679929 
L 208.65608 157.291986 
L 209.163352 156.903158 
L 209.670625 157.112578 
L 210.68517 158.666323 
L 211.192443 157.140524 
L 211.699716 157.121308 
L 212.206989 158.853463 
L 212.714261 159.363312 
L 213.221534 158.407733 
L 213.728807 158.277547 
L 214.23608 158.768124 
L 215.250625 159.348091 
L 215.757898 158.40205 
L 216.26517 158.776583 
L 216.772443 157.259794 
L 217.279716 157.809901 
L 217.786989 157.905638 
L 218.294261 160.304648 
L 218.801534 159.27558 
L 219.308807 160.198122 
L 219.81608 158.222625 
L 220.323352 158.653634 
L 220.830625 158.487327 
L 221.337898 158.747868 
L 221.84517 158.790748 
L 222.352443 157.779227 
L 222.859716 158.195876 
L 223.366989 158.768348 
L 223.874261 157.9548 
L 224.381534 158.883566 
L 224.888807 159.266435 
L 225.39608 158.167248 
L 225.903352 157.931008 
L 226.410625 157.269122 
L 227.42517 159.245639 
L 228.439716 159.591384 
L 228.946989 158.906913 
L 229.454261 157.982647 
L 229.961534 158.460905 
L 230.468807 158.242813 
L 230.97608 157.491546 
L 231.483352 158.890922 
L 231.990625 159.897972 
L 232.497898 159.522708 
L 233.00517 158.755006 
L 233.512443 160.102913 
L 234.526989 159.911868 
L 235.034261 158.428562 
L 235.541534 158.256503 
L 236.048807 159.280037 
L 237.570625 160.666388 
L 238.58517 158.531589 
L 239.092443 160.376333 
L 239.599716 159.592961 
L 240.106989 159.596836 
L 240.614261 158.212775 
L 241.121534 158.965149 
L 241.628807 160.221803 
L 242.13608 160.554096 
L 242.643352 160.234987 
L 243.150625 159.189843 
L 244.16517 158.4345 
L 244.672443 159.29536 
L 245.179716 159.86907 
L 245.686989 159.834532 
L 246.701534 160.513438 
L 247.208807 160.132619 
L 247.71608 160.426465 
L 248.223352 160.383222 
L 248.730625 159.592069 
L 249.237898 160.667174 
L 249.74517 159.239572 
L 250.252443 161.504711 
L 250.759716 160.711068 
L 251.266989 160.321193 
L 251.774261 160.334656 
L 252.281534 160.4783 
L 252.788807 160.244258 
L 253.29608 160.241173 
L 253.803352 160.039621 
L 255.32517 158.951886 
L 255.832443 159.1988 
L 256.339716 159.780806 
L 256.846989 159.367018 
L 257.354261 158.507879 
L 257.861534 158.913263 
L 258.368807 158.653872 
L 258.87608 158.552491 
L 259.383352 159.409902 
L 259.890625 159.175904 
L 260.397898 158.624938 
L 261.412443 158.893202 
L 262.426989 160.264354 
L 262.934261 160.201945 
L 263.948807 158.650772 
L 264.45608 159.288537 
L 264.963352 160.520795 
L 265.470625 160.457279 
L 266.48517 158.257941 
L 266.992443 158.619133 
L 267.499716 159.745309 
L 268.006989 159.48481 
L 268.514261 159.978303 
L 269.021534 159.720556 
L 269.528807 159.612132 
L 270.03608 159.841911 
L 271.050625 160.510643 
L 272.06517 159.110659 
L 272.572443 159.040226 
L 273.079716 158.709458 
L 273.586989 159.419005 
L 274.094261 159.173452 
L 274.601534 159.518919 
L 275.108807 158.566461 
L 276.123352 159.499792 
L 277.137898 158.586841 
L 277.64517 158.811935 
L 278.152443 159.308052 
L 278.659716 158.76162 
L 279.166989 157.928456 
L 279.674261 158.267043 
L 280.181534 158.073122 
L 280.688807 158.023908 
L 282.210625 159.418039 
L 282.717898 159.162644 
L 283.22517 158.305005 
L 283.732443 158.181522 
L 284.239716 158.871983 
L 284.746989 158.207984 
L 285.254261 158.920037 
L 285.761534 158.307508 
L 286.268807 158.614952 
L 286.77608 157.895699 
L 287.283352 158.923532 
L 287.790625 158.600683 
L 288.297898 159.982429 
L 288.80517 158.452746 
L 289.312443 158.364598 
L 289.819716 158.53182 
L 290.326989 158.447831 
L 290.834261 159.631004 
L 291.341534 158.702739 
L 292.35608 158.844423 
L 292.863352 158.261884 
L 293.877898 158.876161 
L 294.38517 158.704879 
L 294.892443 158.966426 
L 295.399716 159.070848 
L 295.906989 159.870111 
L 296.414261 159.975019 
L 296.921534 160.596646 
L 297.428807 159.037911 
L 297.93608 159.577581 
L 298.443352 159.919207 
L 298.950625 159.970316 
L 299.457898 160.525837 
L 299.96517 159.82942 
L 300.472443 160.372563 
L 300.979716 160.469565 
L 301.486989 160.440517 
L 301.994261 160.545118 
L 302.501534 161.243255 
L 303.51608 161.95244 
L 304.023352 161.344446 
L 304.530625 162.230849 
L 305.037898 160.694473 
L 305.54517 161.529689 
L 306.052443 161.958084 
L 306.559716 161.981839 
L 307.066989 161.531251 
L 307.574261 162.091559 
L 308.081534 161.080496 
L 308.588807 161.420721 
L 309.09608 161.219607 
L 310.110625 163.802467 
L 310.617898 163.544163 
L 311.12517 162.374592 
L 311.632443 162.509576 
L 312.139716 163.184545 
L 312.646989 162.450438 
L 314.168807 161.216576 
L 314.67608 161.664394 
L 315.183352 161.362429 
L 315.690625 162.075806 
L 316.197898 161.102878 
L 316.70517 163.051107 
L 317.212443 162.817614 
L 317.719716 162.946267 
L 318.734261 162.763962 
L 319.241534 162.839012 
L 319.748807 162.000619 
L 320.25608 162.598769 
L 320.763352 162.378559 
L 321.270625 163.076137 
L 321.777898 162.571522 
L 322.28517 162.729478 
L 322.792443 162.590982 
L 323.299716 162.127056 
L 323.806989 163.018755 
L 324.314261 161.84957 
L 324.821534 162.625888 
L 325.328807 162.543089 
L 325.83608 163.183865 
L 326.343352 162.865179 
L 327.86517 162.964571 
L 328.372443 163.003534 
L 328.879716 161.98191 
L 329.386989 161.799897 
L 329.894261 163.497794 
L 330.401534 162.761521 
L 330.908807 162.260124 
L 331.41608 161.52673 
L 331.923352 162.915428 
L 332.430625 163.518571 
L 332.937898 163.511122 
L 333.44517 163.779869 
L 334.459716 163.292074 
L 334.966989 163.261754 
L 335.474261 164.209916 
L 336.99608 164.29926 
L 337.503352 163.883719 
L 338.010625 164.214976 
L 338.517898 163.611439 
L 339.02517 163.50855 
L 339.532443 163.619804 
L 340.039716 163.517998 
L 340.546989 163.762633 
L 341.054261 163.682833 
L 341.561534 163.927672 
L 342.068807 162.938326 
L 342.57608 163.558524 
L 343.083352 163.570411 
L 343.590625 162.838417 
L 344.097898 163.419215 
L 344.60517 163.034187 
L 345.112443 163.560597 
L 345.619716 162.974609 
L 346.126989 163.22759 
L 346.634261 163.897061 
L 347.648807 163.200592 
L 348.15608 163.883585 
L 348.663352 164.051239 
L 349.677898 163.416856 
L 350.18517 163.617793 
L 350.692443 163.502438 
L 351.199716 163.762088 
L 351.706989 164.287996 
L 352.214261 163.466284 
L 352.721534 163.625181 
L 353.228807 162.927845 
L 353.73608 162.924646 
L 354.243352 163.154536 
L 354.750625 162.913681 
L 355.76517 163.90003 
L 356.272443 164.07757 
L 356.779716 164.574846 
L 357.286989 164.524283 
L 357.794261 165.478911 
L 358.301534 165.009827 
L 358.808807 165.363989 
L 359.31608 165.356022 
L 359.823352 164.90985 
L 360.330625 165.135213 
L 360.837898 164.92389 
L 361.34517 165.118623 
L 361.852443 165.026908 
L 362.359716 165.352702 
L 362.866989 165.29849 
L 363.881534 163.713846 
L 364.388807 164.55012 
L 365.403352 164.198529 
L 365.910625 164.675546 
L 366.417898 164.071193 
L 366.92517 164.222628 
L 367.432443 164.527797 
L 367.939716 164.517816 
L 368.954261 165.291701 
L 369.461534 165.561032 
L 369.968807 164.811283 
L 370.47608 164.988455 
L 370.983352 164.924284 
L 371.490625 164.615151 
L 371.997898 165.583877 
L 372.50517 165.212143 
L 373.012443 165.333861 
L 373.519716 165.323854 
L 374.026989 165.041086 
L 374.534261 164.978663 
L 375.548807 165.200191 
L 376.05608 166.08 
L 376.563352 165.035632 
L 377.070625 165.603331 
L 377.577898 165.86487 
L 378.08517 165.443294 
L 378.592443 166.256202 
L 379.099716 164.694453 
L 379.606989 164.670977 
L 380.114261 164.525527 
L 380.621534 165.21686 
L 381.128807 164.912678 
L 381.63608 165.326199 
L 382.143352 164.488608 
L 382.650625 164.820524 
L 383.157898 165.524774 
L 383.66517 165.617187 
L 384.172443 165.576942 
L 384.679716 164.87486 
L 385.694261 165.961546 
L 386.201534 165.367041 
L 386.708807 164.944552 
L 387.21608 165.134178 
L 387.723352 164.885828 
L 388.230625 165.370466 
L 388.737898 164.272193 
L 389.24517 164.729958 
L 389.752443 165.0006 
L 390.259716 164.976294 
L 390.766989 165.602046 
L 391.274261 165.479562 
L 391.781534 165.237788 
L 392.288807 166.108076 
L 392.79608 166.104062 
L 393.303352 165.82227 
L 393.810625 166.256527 
L 394.82517 165.469542 
L 395.332443 165.098018 
L 396.346989 165.534906 
L 396.854261 166.428739 
L 397.868807 165.721829 
L 398.37608 166.143999 
L 398.883352 165.615088 
L 399.390625 166.228039 
L 399.897898 165.061817 
L 400.40517 165.143602 
L 400.912443 165.760576 
L 401.419716 165.561899 
L 401.926989 166.216574 
L 402.941534 165.183599 
L 403.448807 165.018782 
L 403.95608 165.360501 
L 404.970625 165.419201 
L 405.477898 165.360393 
L 405.98517 164.136741 
L 406.492443 165.343897 
L 406.999716 165.572042 
L 407.506989 165.545783 
L 408.521534 164.591578 
L 409.028807 164.512763 
L 409.53608 164.747325 
L 410.043352 165.493837 
L 410.550625 165.139657 
L 411.057898 165.495464 
L 411.56517 164.968325 
L 412.072443 165.539488 
L 412.579716 164.924951 
L 413.086989 165.093261 
L 413.594261 164.996031 
L 414.101534 164.524479 
L 414.608807 164.886919 
L 415.11608 164.47752 
L 415.623352 164.371764 
L 416.130625 163.988204 
L 416.637898 164.644625 
L 417.14517 164.709602 
L 417.652443 164.279329 
L 418.666989 164.712515 
L 419.174261 164.128696 
L 419.681534 164.199866 
L 420.188807 164.096761 
L 420.69608 164.48685 
L 421.203352 164.527779 
L 421.710625 164.707487 
L 423.232443 164.760681 
L 423.739716 164.850835 
L 424.246989 164.799478 
L 424.754261 164.295248 
L 425.261534 164.533537 
L 426.27608 164.375007 
L 426.783352 164.912049 
L 427.290625 164.567608 
L 427.797898 163.712177 
L 428.30517 163.720205 
L 428.812443 164.737969 
L 429.319716 164.51053 
L 430.334261 164.528611 
L 430.841534 164.159422 
L 431.348807 164.156035 
L 432.363352 164.416819 
L 433.377898 164.201238 
L 433.88517 163.689581 
L 434.392443 163.688707 
L 435.406989 164.021742 
L 435.914261 164.40091 
L 436.928807 164.1579 
L 437.43608 164.518102 
L 437.943352 163.675799 
L 438.450625 163.978809 
L 438.957898 164.113678 
L 439.46517 164.586427 
L 439.972443 163.635984 
L 440.479716 164.265889 
L 440.986989 163.462821 
L 441.494261 164.146655 
L 442.508807 164.35971 
L 443.01608 163.949097 
L 443.523352 164.500156 
L 444.030625 164.439221 
L 444.537898 164.258676 
L 445.04517 164.612078 
L 445.552443 164.474929 
L 446.059716 164.662866 
L 446.566989 164.384643 
L 447.074261 165.050381 
L 448.59608 164.638916 
L 449.103352 164.819175 
L 449.610625 164.597301 
L 450.117898 164.516941 
L 450.62517 164.688791 
L 451.132443 165.221928 
L 452.146989 165.576128 
L 452.654261 165.57446 
L 453.161534 166.125497 
L 453.668807 166.924859 
L 454.683352 166.874639 
L 455.190625 166.326228 
L 455.697898 166.215998 
L 456.20517 166.537828 
L 457.219716 166.108848 
L 457.726989 166.486851 
L 458.741534 166.322447 
L 459.248807 166.749162 
L 459.75608 166.739898 
L 460.263352 166.314309 
L 460.770625 166.29515 
L 461.277898 166.754573 
L 461.78517 166.073459 
L 462.292443 166.300046 
L 464.321534 166.655139 
L 465.843352 166.43708 
L 466.857898 166.349224 
L 467.36517 166.578572 
L 468.379716 165.911427 
L 468.886989 166.599712 
L 469.394261 166.763055 
L 470.91608 166.836537 
L 471.423352 166.292862 
L 471.930625 166.114483 
L 472.437898 166.70456 
L 472.94517 166.404543 
L 473.452443 166.949484 
L 474.466989 166.846264 
L 474.974261 167.496116 
L 475.481534 167.106541 
L 475.988807 167.269006 
L 476.49608 166.270429 
L 477.003352 167.076186 
L 477.510625 167.150597 
L 478.017898 166.690862 
L 479.032443 167.016251 
L 479.539716 166.722275 
L 480.046989 167.172367 
L 481.061534 167.300765 
L 482.07608 166.953468 
L 482.583352 166.909695 
L 483.090625 166.667897 
L 483.597898 167.128023 
L 484.10517 167.287949 
L 484.612443 166.953439 
L 485.119716 167.165798 
L 485.626989 167.176958 
L 486.134261 167.776535 
L 486.641534 167.588331 
L 488.163352 168.112648 
L 488.670625 167.814137 
L 489.177898 167.966171 
L 489.68517 167.337813 
L 490.192443 168.231724 
L 490.699716 167.864277 
L 491.206989 167.66535 
L 491.714261 167.930938 
L 492.221534 167.764538 
L 492.728807 167.800716 
L 493.23608 167.605195 
L 494.250625 167.877379 
L 494.757898 167.448346 
L 495.26517 167.595076 
L 495.772443 167.619896 
L 496.279716 167.277464 
L 496.786989 167.257352 
L 497.294261 167.622062 
L 498.308807 167.811488 
L 498.81608 167.2019 
L 499.323352 167.374296 
L 499.830625 167.108636 
L 500.337898 167.529072 
L 500.84517 167.445918 
L 501.352443 167.588031 
L 501.859716 166.986021 
L 502.366989 167.07021 
L 502.874261 167.01968 
L 503.381534 167.131119 
L 503.888807 166.706204 
L 504.39608 167.273783 
L 504.903352 167.4991 
L 505.410625 167.164137 
L 505.917898 167.278401 
L 506.42517 167.029178 
L 506.932443 166.381069 
L 507.439716 166.598948 
L 507.946989 166.362415 
L 508.454261 166.875708 
L 509.468807 166.486489 
L 509.97608 167.00153 
L 510.483352 166.338952 
L 510.990625 167.288716 
L 511.497898 166.475611 
L 512.00517 166.628849 
L 512.512443 166.578035 
L 513.019716 166.994117 
L 513.526989 166.373868 
L 514.541534 167.125379 
L 515.048807 166.9732 
L 515.55608 166.957091 
L 516.063352 167.064731 
L 516.570625 166.882958 
L 517.077898 166.514705 
L 517.58517 166.783083 
L 518.092443 166.270219 
L 518.599716 166.448122 
L 519.106989 167.096922 
L 519.614261 167.182332 
L 520.121534 167.032398 
L 520.628807 166.457706 
L 521.13608 167.0144 
L 522.150625 167.264616 
L 522.657898 166.954706 
L 523.672443 166.860758 
L 524.179716 167.200607 
L 524.686989 166.850006 
L 525.194261 167.223131 
L 525.701534 167.091588 
L 526.208807 167.73185 
L 526.71608 167.645538 
L 527.223352 167.831437 
L 527.730625 167.616765 
L 528.237898 167.043909 
L 528.74517 167.39589 
L 529.252443 166.841559 
L 529.759716 167.512002 
L 530.266989 167.50357 
L 530.774261 167.978246 
L 531.281534 167.672412 
L 532.29608 168.036219 
L 532.803352 167.420888 
L 533.310625 167.485797 
L 533.817898 168.077085 
L 534.32517 168.264032 
L 534.832443 167.662811 
L 535.339716 167.993159 
L 535.846989 167.701559 
L 536.354261 168.175583 
L 536.861534 168.068052 
L 537.368807 168.168252 
L 537.87608 167.917035 
L 538.383352 168.125004 
L 538.890625 167.61821 
L 539.397898 168.034187 
L 539.90517 168.012515 
L 540.412443 167.751495 
L 540.919716 168.214365 
L 541.934261 167.834211 
L 542.441534 168.107223 
L 542.948807 168.052522 
L 543.45608 168.754493 
L 543.963352 167.919724 
L 544.470625 168.417852 
L 544.977898 167.689991 
L 545.992443 167.980679 
L 546.499716 167.810499 
L 547.006989 167.962371 
L 547.514261 167.649031 
L 548.021534 168.198983 
L 548.528807 168.257292 
L 549.03608 167.565095 
L 549.543352 167.666777 
L 550.050625 168.134757 
L 550.557898 167.766729 
L 551.06517 168.068642 
L 551.572443 168.068813 
L 552.079716 168.376111 
L 552.586989 168.323267 
L 553.094261 168.045614 
L 553.601534 168.013065 
L 554.108807 168.729377 
L 554.61608 168.472048 
L 555.123352 167.71081 
L 555.630625 167.839083 
L 556.64517 168.607979 
L 557.152443 168.046909 
L 559.688807 168.339345 
L 561.210625 167.907877 
L 561.717898 167.996859 
L 562.732443 167.956325 
L 563.239716 168.335002 
L 564.254261 168.000615 
L 564.761534 168.34044 
L 565.268807 167.747281 
L 565.77608 167.712023 
L 566.283352 168.375882 
L 567.297898 167.865294 
L 567.80517 168.38259 
L 568.819716 168.289031 
L 569.326989 167.838615 
L 569.834261 168.052053 
L 570.341534 167.46046 
L 570.848807 167.931055 
L 571.35608 167.679184 
L 571.863352 168.034151 
L 572.370625 167.710281 
L 573.38517 167.77079 
L 574.399716 168.24578 
L 575.414261 168.200039 
L 575.921534 167.829781 
L 576.428807 167.958138 
L 576.93608 168.402189 
L 577.443352 168.554432 
L 578.457898 167.649448 
L 579.979716 167.955298 
L 580.486989 168.353654 
L 580.994261 168.307398 
L 582.008807 167.766889 
L 582.51608 167.657628 
L 583.023352 167.845189 
L 583.530625 167.687432 
L 584.037898 167.823104 
L 584.54517 167.392199 
L 585.052443 167.779666 
L 585.559716 167.685633 
L 586.066989 167.89451 
L 586.574261 167.138594 
L 587.081534 167.323921 
L 587.588807 166.796265 
L 588.09608 167.393376 
L 589.110625 167.520812 
L 589.617898 167.150663 
L 590.12517 167.495462 
L 590.632443 167.134297 
L 591.139716 167.550264 
L 591.646989 167.154746 
L 592.154261 167.587608 
L 592.661534 167.21438 
L 593.168807 167.838486 
L 593.67608 167.489968 
L 594.183352 167.505754 
L 594.690625 166.953646 
L 595.197898 167.728569 
L 595.70517 167.637567 
L 596.212443 167.782465 
L 596.719716 167.465462 
L 597.226989 167.6463 
L 597.734261 167.67675 
L 598.241534 168.102737 
L 598.748807 167.422142 
L 599.763352 168.100589 
L 600.270625 167.246586 
L 600.777898 167.871726 
L 601.28517 167.584116 
L 601.792443 167.867532 
L 602.299716 167.406948 
L 602.806989 167.775551 
L 603.314261 167.612994 
L 604.83608 168.130487 
L 606.357898 167.585704 
L 607.372443 167.628664 
L 608.386989 167.73587 
L 608.894261 167.440339 
L 609.401534 167.800343 
L 609.908807 167.998738 
L 610.41608 168.532412 
L 610.923352 167.934997 
L 611.430625 167.513484 
L 611.937898 167.855203 
L 612.952443 167.451928 
L 613.459716 167.538191 
L 613.966989 168.188903 
L 614.474261 167.451479 
L 614.981534 167.977264 
L 615.488807 168.058694 
L 616.503352 167.690907 
L 617.517898 168.038624 
L 618.02517 168.365727 
L 618.532443 167.587755 
L 619.039716 168.448506 
L 620.054261 167.49746 
L 620.561534 167.476281 
L 621.068807 167.738096 
L 621.57608 167.755714 
L 622.590625 168.102064 
L 623.60517 167.973858 
L 624.112443 167.760494 
L 624.619716 167.084461 
L 625.126989 167.883118 
L 625.126989 167.883118 
" clip-path="url(#p6c49554a0c)" style="fill: none; stroke: #1f77b4; stroke-width: 1.5; stroke-linecap: square"/>
   </g>
   <g id="line2d_13">
    <path d="M 117.854261 296.03625 
L 118.868807 219.200503 
L 119.37608 230.492934 
L 119.883352 238.645685 
L 120.390625 213.261152 
L 120.897898 212.54875 
L 121.40517 215.076811 
L 121.912443 205.598168 
L 122.419716 212.181319 
L 122.926989 226.669107 
L 123.941534 196.212776 
L 124.448807 194.413947 
L 124.95608 194.780619 
L 125.463352 201.832737 
L 125.970625 195.235904 
L 126.477898 196.378027 
L 126.98517 194.532246 
L 127.492443 194.186848 
L 127.999716 195.502642 
L 128.506989 184.213625 
L 129.014261 181.165058 
L 130.028807 182.194952 
L 130.53608 186.091654 
L 131.043352 177.656689 
L 131.550625 180.557306 
L 132.057898 182.010728 
L 132.56517 182.333157 
L 133.072443 181.694365 
L 133.579716 181.32096 
L 134.086989 182.390077 
L 134.594261 183.960668 
L 135.101534 184.431872 
L 135.608807 183.194059 
L 136.11608 180.438406 
L 136.623352 181.145129 
L 137.130625 183.060858 
L 137.637898 181.048282 
L 138.14517 180.679822 
L 138.652443 178.011528 
L 139.666989 178.090941 
L 140.174261 178.969227 
L 140.681534 181.172561 
L 141.188807 178.870422 
L 141.69608 177.393865 
L 142.203352 177.781811 
L 142.710625 178.351291 
L 143.217898 176.208669 
L 143.72517 177.343197 
L 144.232443 177.985098 
L 144.739716 180.055569 
L 145.246989 176.730227 
L 145.754261 176.248777 
L 146.261534 179.231779 
L 146.768807 177.708572 
L 147.27608 177.030424 
L 147.783352 176.664959 
L 148.290625 177.691265 
L 148.797898 176.119124 
L 149.30517 176.160455 
L 149.812443 176.32796 
L 150.319716 176.294541 
L 150.826989 177.635459 
L 151.841534 175.798741 
L 152.348807 174.709478 
L 152.85608 176.153952 
L 153.363352 175.127327 
L 153.870625 173.767497 
L 154.377898 175.460951 
L 154.88517 176.586489 
L 155.392443 176.4194 
L 155.899716 177.261133 
L 156.406989 174.063869 
L 156.914261 178.121447 
L 157.421534 174.604464 
L 158.43608 174.564015 
L 158.943352 174.107088 
L 159.450625 175.394572 
L 159.957898 174.377249 
L 160.46517 173.690661 
L 160.972443 174.735638 
L 161.479716 174.466004 
L 161.986989 173.763776 
L 162.494261 174.487707 
L 163.508807 173.128249 
L 164.01608 173.783378 
L 164.523352 172.877454 
L 165.030625 174.449639 
L 165.537898 174.136157 
L 166.04517 174.131147 
L 166.552443 174.543099 
L 167.059716 174.151772 
L 167.566989 171.716959 
L 168.074261 172.428133 
L 169.088807 173.551442 
L 169.59608 171.414805 
L 170.103352 172.531184 
L 171.117898 173.528479 
L 171.62517 174.667006 
L 172.132443 172.879212 
L 172.639716 174.079173 
L 173.146989 174.417489 
L 174.161534 173.861619 
L 174.668807 174.307226 
L 175.17608 172.468632 
L 175.683352 173.093585 
L 176.697898 171.328881 
L 177.20517 172.522737 
L 177.712443 173.248832 
L 178.219716 173.248455 
L 178.726989 172.722076 
L 179.234261 173.191447 
L 179.741534 171.575761 
L 180.248807 171.514487 
L 180.75608 172.497564 
L 181.263352 172.614868 
L 181.770625 172.527716 
L 182.277898 172.901462 
L 182.78517 171.798656 
L 183.292443 172.17445 
L 183.799716 171.36876 
L 184.306989 171.860114 
L 184.814261 172.065286 
L 185.321534 172.853624 
L 185.828807 172.279056 
L 186.33608 172.345809 
L 186.843352 171.40709 
L 187.857898 173.281889 
L 188.36517 171.6027 
L 188.872443 171.572991 
L 189.379716 172.788874 
L 189.886989 173.126234 
L 190.394261 172.833694 
L 190.901534 172.21413 
L 191.408807 173.023502 
L 191.91608 173.20008 
L 192.423352 172.111453 
L 192.930625 172.345466 
L 193.437898 173.241511 
L 193.94517 173.382747 
L 194.452443 171.305869 
L 194.959716 172.329936 
L 195.466989 172.906326 
L 195.974261 172.161376 
L 196.481534 172.618973 
L 196.988807 172.868546 
L 197.49608 172.178703 
L 198.003352 172.386805 
L 198.510625 171.756797 
L 199.017898 172.613199 
L 199.52517 172.735791 
L 200.032443 171.651542 
L 200.539716 171.944659 
L 201.046989 171.896408 
L 201.554261 172.235164 
L 203.07608 172.841949 
L 203.583352 171.593369 
L 204.090625 172.130366 
L 204.597898 172.372364 
L 205.10517 172.074754 
L 205.612443 171.556562 
L 206.119716 172.602379 
L 206.626989 171.34686 
L 207.134261 171.920515 
L 207.641534 171.527562 
L 208.148807 173.732855 
L 208.65608 171.742232 
L 209.163352 172.010685 
L 209.670625 171.679803 
L 210.177898 172.867061 
L 210.68517 172.121979 
L 211.192443 172.252688 
L 211.699716 171.634923 
L 212.206989 171.196761 
L 212.714261 171.68482 
L 213.221534 171.334027 
L 214.23608 171.732382 
L 214.743352 171.046097 
L 215.250625 171.840605 
L 215.757898 171.338442 
L 216.772443 171.274296 
L 217.279716 171.527496 
L 217.786989 171.463002 
L 218.801534 171.714048 
L 219.308807 171.527779 
L 219.81608 171.971782 
L 220.323352 171.808757 
L 220.830625 171.239484 
L 221.337898 171.712659 
L 221.84517 171.35515 
L 222.352443 171.253456 
L 222.859716 170.952888 
L 223.366989 171.26288 
L 223.874261 171.751968 
L 224.381534 171.851963 
L 224.888807 171.325347 
L 225.39608 171.013635 
L 226.917898 171.590286 
L 227.42517 171.297249 
L 227.932443 171.551686 
L 228.946989 170.870277 
L 229.454261 170.951387 
L 229.961534 170.706756 
L 230.468807 172.011226 
L 230.97608 171.562232 
L 231.483352 171.393369 
L 231.990625 170.624929 
L 232.497898 170.80561 
L 233.00517 171.546023 
L 234.526989 170.643849 
L 235.034261 171.28086 
L 235.541534 170.960326 
L 236.048807 170.393007 
L 236.55608 171.235045 
L 237.570625 170.199702 
L 238.077898 170.694318 
L 238.58517 171.399415 
L 239.092443 171.077521 
L 239.599716 171.099076 
L 240.106989 170.871475 
L 240.614261 172.392286 
L 241.121534 172.26415 
L 241.628807 171.124406 
L 243.150625 171.044001 
L 243.657898 171.602959 
L 244.16517 171.166176 
L 245.179716 170.812143 
L 245.686989 171.302051 
L 246.194261 172.056204 
L 246.701534 171.356412 
L 247.208807 172.162386 
L 247.71608 170.870293 
L 248.223352 170.933369 
L 248.730625 171.41883 
L 249.74517 171.6746 
L 250.252443 171.327942 
L 250.759716 171.457798 
L 251.266989 171.376492 
L 253.29608 171.6086 
L 253.803352 172.038357 
L 254.310625 171.485702 
L 254.817898 171.201776 
L 255.32517 172.03931 
L 255.832443 171.951895 
L 256.339716 171.029977 
L 256.846989 171.470733 
L 257.354261 171.33633 
L 257.861534 171.788106 
L 258.368807 171.619493 
L 258.87608 171.687032 
L 259.383352 172.066726 
L 259.890625 171.215829 
L 260.397898 170.9907 
L 261.412443 171.888345 
L 261.919716 171.568269 
L 262.426989 171.90961 
L 262.934261 170.651171 
L 263.441534 171.315803 
L 263.948807 171.7623 
L 264.45608 171.30192 
L 264.963352 170.659659 
L 265.470625 171.288779 
L 265.977898 171.490592 
L 266.48517 172.222745 
L 266.992443 172.55833 
L 267.499716 171.034898 
L 268.006989 171.498769 
L 268.514261 171.647811 
L 269.528807 171.370715 
L 270.03608 170.858276 
L 272.06517 171.90754 
L 272.572443 171.958406 
L 273.079716 172.342796 
L 273.586989 171.67289 
L 274.094261 172.154893 
L 274.601534 171.257939 
L 275.108807 171.674141 
L 276.123352 171.049011 
L 276.630625 171.724085 
L 277.137898 172.095347 
L 278.152443 171.377652 
L 278.659716 171.62404 
L 279.166989 171.390359 
L 279.674261 171.60132 
L 280.181534 171.535308 
L 281.19608 171.832293 
L 281.703352 171.367157 
L 282.210625 171.617892 
L 282.717898 171.685619 
L 283.22517 171.618568 
L 284.239716 171.860995 
L 284.746989 172.237446 
L 285.254261 171.005607 
L 285.761534 171.553755 
L 286.268807 171.490333 
L 286.77608 171.592916 
L 287.790625 171.398825 
L 288.297898 171.605477 
L 289.312443 172.38631 
L 289.819716 171.526915 
L 290.326989 171.645364 
L 290.834261 171.371208 
L 291.341534 172.147328 
L 291.848807 171.753966 
L 292.35608 173.179875 
L 292.863352 171.668005 
L 293.370625 171.579546 
L 293.877898 172.096871 
L 294.38517 172.356091 
L 294.892443 172.089167 
L 295.399716 172.553571 
L 295.906989 171.812758 
L 296.414261 171.615187 
L 297.428807 171.69413 
L 297.93608 171.766294 
L 298.443352 172.234649 
L 299.457898 171.674879 
L 299.96517 171.832849 
L 300.472443 172.280615 
L 300.979716 171.622514 
L 301.486989 171.755409 
L 301.994261 172.137954 
L 302.501534 171.268446 
L 303.008807 172.07895 
L 303.51608 171.204316 
L 304.023352 172.061808 
L 304.530625 171.646001 
L 305.037898 171.927455 
L 305.54517 171.965757 
L 306.052443 171.666375 
L 306.559716 171.715999 
L 307.066989 172.314211 
L 307.574261 172.600415 
L 308.588807 172.093801 
L 309.09608 172.294227 
L 309.603352 171.622418 
L 310.617898 171.826495 
L 311.12517 171.737618 
L 311.632443 171.862572 
L 312.139716 171.810099 
L 312.646989 172.003163 
L 313.154261 171.442342 
L 313.661534 171.871399 
L 314.168807 172.112333 
L 314.67608 171.965151 
L 315.183352 171.593799 
L 315.690625 172.424699 
L 316.197898 172.280127 
L 316.70517 171.782763 
L 317.719716 172.362792 
L 318.734261 172.20061 
L 319.241534 172.371535 
L 319.748807 171.999299 
L 320.763352 171.610287 
L 321.270625 171.773116 
L 321.777898 171.682329 
L 322.28517 171.967082 
L 322.792443 171.559341 
L 323.299716 171.909636 
L 324.314261 172.294224 
L 324.821534 171.932208 
L 325.328807 172.584878 
L 325.83608 172.074051 
L 326.343352 171.992196 
L 326.850625 172.04918 
L 327.357898 172.439833 
L 328.879716 171.978719 
L 329.386989 172.222894 
L 329.894261 171.692602 
L 330.401534 172.103561 
L 331.41608 171.90705 
L 331.923352 172.379678 
L 332.430625 171.602559 
L 332.937898 172.046383 
L 333.44517 171.783138 
L 334.459716 172.085609 
L 334.966989 171.771962 
L 335.474261 172.218407 
L 336.488807 172.278004 
L 336.99608 172.469344 
L 337.503352 172.082219 
L 338.010625 172.14542 
L 338.517898 172.415526 
L 339.02517 172.448525 
L 339.532443 171.769688 
L 340.039716 172.670857 
L 340.546989 172.261742 
L 341.054261 172.179617 
L 341.561534 172.75954 
L 342.068807 172.558029 
L 342.57608 171.989123 
L 343.590625 172.108654 
L 344.097898 171.709229 
L 344.60517 172.924987 
L 345.112443 172.155324 
L 345.619716 172.460446 
L 346.126989 172.32577 
L 346.634261 172.626836 
L 347.141534 171.57441 
L 347.648807 172.098787 
L 348.15608 172.167263 
L 348.663352 171.574182 
L 349.677898 171.795719 
L 350.692443 171.727319 
L 351.199716 171.728792 
L 351.706989 172.057989 
L 352.214261 172.197913 
L 352.721534 171.68826 
L 353.228807 172.546455 
L 353.73608 171.75321 
L 354.243352 171.527242 
L 354.750625 171.579348 
L 355.257898 171.491789 
L 355.76517 171.614068 
L 356.272443 171.273213 
L 356.779716 171.721788 
L 358.301534 171.597293 
L 358.808807 171.221748 
L 359.31608 171.946635 
L 359.823352 171.54936 
L 360.330625 171.918295 
L 360.837898 171.70649 
L 361.34517 171.369587 
L 361.852443 172.016757 
L 362.866989 171.647025 
L 363.374261 171.942592 
L 363.881534 171.796667 
L 364.388807 171.462699 
L 364.89608 171.850835 
L 365.403352 171.619728 
L 365.910625 171.633126 
L 366.417898 171.98708 
L 366.92517 171.713236 
L 367.432443 172.227735 
L 367.939716 171.661024 
L 368.446989 171.646745 
L 369.461534 172.171069 
L 370.47608 171.032468 
L 370.983352 171.890426 
L 371.490625 171.742362 
L 371.997898 171.418415 
L 372.50517 172.147392 
L 373.012443 171.921093 
L 373.519716 171.482523 
L 374.534261 172.073854 
L 375.041534 171.643588 
L 376.563352 171.546255 
L 377.070625 171.764198 
L 378.08517 171.069354 
L 378.592443 171.377002 
L 379.099716 172.050453 
L 379.606989 171.849916 
L 380.114261 171.860143 
L 380.621534 171.732915 
L 381.128807 171.303851 
L 382.143352 171.520633 
L 382.650625 171.730886 
L 383.157898 171.33955 
L 383.66517 171.775897 
L 384.172443 171.614878 
L 384.679716 172.277533 
L 385.186989 171.669711 
L 385.694261 172.172951 
L 386.201534 171.577625 
L 387.21608 171.483749 
L 387.723352 171.242414 
L 388.230625 171.979101 
L 388.737898 171.568908 
L 389.24517 171.468434 
L 389.752443 171.70582 
L 390.766989 171.783909 
L 391.274261 171.418185 
L 392.79608 171.594637 
L 393.303352 171.242859 
L 393.810625 171.826873 
L 394.317898 171.309659 
L 395.839716 171.902367 
L 397.361534 171.749917 
L 398.37608 171.307203 
L 398.883352 171.710485 
L 399.390625 171.574469 
L 399.897898 171.971282 
L 400.40517 171.285448 
L 400.912443 171.703686 
L 401.419716 171.380695 
L 401.926989 171.65969 
L 402.434261 171.250398 
L 402.941534 171.299857 
L 403.448807 171.575726 
L 403.95608 171.207537 
L 404.463352 171.86768 
L 404.970625 171.19964 
L 405.477898 171.064495 
L 405.98517 171.7875 
L 406.492443 171.064782 
L 406.999716 171.187348 
L 407.506989 171.604023 
L 408.521534 171.888027 
L 409.028807 171.30301 
L 409.53608 171.529095 
L 410.043352 171.497257 
L 410.550625 171.123619 
L 411.057898 171.158037 
L 411.56517 171.644663 
L 412.072443 171.830987 
L 412.579716 171.507214 
L 413.086989 171.34703 
L 413.594261 171.353478 
L 414.101534 171.722931 
L 414.608807 171.612591 
L 415.11608 171.653517 
L 416.130625 171.530283 
L 416.637898 171.6877 
L 417.14517 171.372083 
L 417.652443 171.415048 
L 418.159716 171.635205 
L 418.666989 171.574652 
L 419.174261 171.128399 
L 419.681534 171.523431 
L 420.188807 171.600522 
L 420.69608 171.396718 
L 421.203352 171.312941 
L 421.710625 171.421824 
L 423.739716 171.458953 
L 424.246989 171.765277 
L 425.261534 171.500581 
L 426.783352 171.648895 
L 427.290625 171.615499 
L 427.797898 171.336644 
L 428.30517 171.447294 
L 428.812443 171.880552 
L 429.319716 171.525351 
L 429.826989 171.413842 
L 430.334261 171.716409 
L 430.841534 171.406692 
L 431.348807 171.650598 
L 432.870625 171.850013 
L 433.377898 171.87875 
L 433.88517 171.544947 
L 434.392443 171.690293 
L 435.406989 171.612162 
L 435.914261 172.042311 
L 436.421534 171.602169 
L 436.928807 171.76101 
L 437.43608 171.60049 
L 437.943352 171.575155 
L 438.450625 171.782807 
L 438.957898 171.303394 
L 439.46517 171.846943 
L 439.972443 172.22686 
L 440.479716 171.385557 
L 440.986989 171.749951 
L 441.494261 171.570733 
L 442.001534 171.623055 
L 442.508807 171.915835 
L 443.01608 171.576743 
L 443.523352 171.468432 
L 444.030625 171.920446 
L 444.537898 171.957665 
L 445.04517 171.390786 
L 445.552443 171.646143 
L 446.059716 171.629102 
L 447.074261 171.816926 
L 447.581534 171.68513 
L 448.088807 171.806109 
L 448.59608 172.046569 
L 449.103352 171.297708 
L 449.610625 171.603883 
L 450.117898 171.772949 
L 450.62517 171.6523 
L 451.132443 171.374826 
L 452.146989 171.427694 
L 452.654261 172.009548 
L 453.161534 171.364036 
L 454.17608 171.599214 
L 454.683352 171.182616 
L 455.190625 171.62443 
L 456.20517 171.831593 
L 456.712443 171.542116 
L 457.219716 171.764636 
L 457.726989 171.463287 
L 458.234261 171.438166 
L 458.741534 172.100975 
L 459.248807 171.765845 
L 459.75608 171.61204 
L 461.78517 172.221847 
L 462.799716 171.520257 
L 463.306989 171.400278 
L 463.814261 171.564072 
L 464.321534 171.512417 
L 465.33608 171.61739 
L 465.843352 171.554389 
L 466.350625 171.908901 
L 466.857898 171.477327 
L 467.36517 172.091608 
L 467.872443 171.467854 
L 469.394261 171.666127 
L 469.901534 172.186488 
L 470.408807 171.742804 
L 471.930625 171.590847 
L 472.437898 171.158404 
L 472.94517 171.528959 
L 474.974261 171.420891 
L 475.481534 171.722485 
L 475.988807 171.863264 
L 476.49608 171.796162 
L 477.003352 171.490731 
L 477.510625 171.445488 
L 478.017898 171.680148 
L 478.52517 171.6821 
L 479.032443 171.293901 
L 479.539716 171.103215 
L 480.046989 171.539433 
L 481.061534 171.441867 
L 482.583352 171.648299 
L 483.090625 171.515511 
L 483.597898 171.614487 
L 485.119716 171.289406 
L 485.626989 171.409006 
L 486.134261 171.19151 
L 486.641534 171.651945 
L 487.148807 170.761083 
L 487.65608 170.987507 
L 488.163352 170.596013 
L 488.670625 170.737447 
L 489.177898 170.661208 
L 489.68517 170.928541 
L 490.699716 171.102284 
L 491.206989 171.42396 
L 491.714261 170.886879 
L 492.221534 171.345256 
L 492.728807 171.01546 
L 493.23608 171.26267 
L 494.250625 171.009744 
L 494.757898 170.808042 
L 495.26517 171.328662 
L 495.772443 170.938545 
L 496.279716 170.867777 
L 497.294261 171.161667 
L 497.801534 171.29173 
L 498.308807 170.840532 
L 498.81608 171.08189 
L 499.323352 171.124606 
L 499.830625 171.29218 
L 500.337898 171.137038 
L 500.84517 171.198372 
L 501.352443 171.599172 
L 501.859716 171.300605 
L 502.366989 171.175879 
L 502.874261 171.381855 
L 503.381534 171.287735 
L 503.888807 171.65396 
L 504.39608 171.319707 
L 504.903352 171.636511 
L 505.410625 171.403219 
L 505.917898 171.330179 
L 506.42517 170.920461 
L 506.932443 171.171368 
L 507.439716 171.198484 
L 507.946989 170.872133 
L 508.454261 171.144007 
L 509.97608 171.376753 
L 510.483352 171.557049 
L 510.990625 171.08047 
L 511.497898 171.45491 
L 512.00517 171.121281 
L 512.512443 171.235663 
L 513.019716 171.595601 
L 513.526989 171.396206 
L 515.048807 171.330871 
L 515.55608 170.934157 
L 516.063352 170.870753 
L 516.570625 171.170502 
L 517.077898 170.882795 
L 517.58517 171.036573 
L 518.092443 171.026358 
L 519.106989 171.299812 
L 519.614261 170.904056 
L 520.121534 171.293444 
L 520.628807 171.157349 
L 521.643352 171.257007 
L 522.657898 171.341784 
L 523.16517 171.881538 
L 523.672443 171.190762 
L 524.179716 170.920531 
L 524.686989 171.002608 
L 525.194261 170.940161 
L 525.701534 171.236111 
L 526.208807 170.691898 
L 526.71608 170.6631 
L 527.223352 171.289256 
L 527.730625 170.834097 
L 528.237898 171.337713 
L 528.74517 170.954675 
L 529.252443 170.995028 
L 530.266989 170.695438 
L 530.774261 170.874813 
L 531.788807 171.045581 
L 532.29608 171.791283 
L 533.310625 170.743319 
L 533.817898 170.589246 
L 534.832443 171.082335 
L 535.339716 170.878595 
L 535.846989 171.202007 
L 536.354261 170.834619 
L 536.861534 170.857913 
L 537.87608 171.258332 
L 538.383352 170.645336 
L 538.890625 170.801055 
L 539.397898 171.163091 
L 540.412443 171.148606 
L 540.919716 171.214201 
L 541.426989 171.105061 
L 541.934261 170.849566 
L 542.441534 170.933592 
L 542.948807 171.135447 
L 543.963352 171.022335 
L 544.470625 171.532721 
L 545.48517 171.081306 
L 545.992443 171.417653 
L 546.499716 170.865572 
L 547.006989 171.186786 
L 547.514261 171.2233 
L 548.021534 171.100225 
L 549.03608 171.250457 
L 550.050625 171.417797 
L 550.557898 171.003962 
L 551.06517 170.873678 
L 551.572443 171.19923 
L 552.079716 170.9147 
L 552.586989 171.176549 
L 553.094261 170.720087 
L 553.601534 171.221837 
L 554.108807 170.825395 
L 555.123352 170.903701 
L 555.630625 170.894215 
L 556.137898 171.263465 
L 556.64517 170.896899 
L 557.152443 171.064158 
L 557.659716 170.930889 
L 558.674261 170.953442 
L 559.181534 170.660597 
L 559.688807 170.829386 
L 560.19608 171.134191 
L 560.703352 171.278856 
L 561.210625 171.285917 
L 562.22517 171.133321 
L 562.732443 171.228559 
L 563.239716 171.011475 
L 563.746989 171.071401 
L 564.254261 170.969186 
L 564.761534 171.117366 
L 565.268807 170.902941 
L 565.77608 171.340473 
L 566.283352 171.330764 
L 566.790625 171.442246 
L 567.297898 171.170754 
L 568.819716 171.073413 
L 569.326989 171.224513 
L 570.341534 171.200761 
L 570.848807 170.932061 
L 571.35608 170.85153 
L 571.863352 171.272058 
L 572.370625 170.919905 
L 573.38517 171.328001 
L 573.892443 170.945018 
L 574.399716 170.93693 
L 574.906989 171.191192 
L 575.414261 171.629335 
L 576.428807 171.045536 
L 576.93608 171.168376 
L 577.443352 171.41437 
L 577.950625 171.020584 
L 578.457898 171.11746 
L 578.96517 171.086986 
L 579.472443 171.190889 
L 580.486989 171.170039 
L 580.994261 171.433766 
L 581.501534 171.231394 
L 582.008807 171.416421 
L 584.54517 171.1695 
L 585.052443 171.255996 
L 585.559716 171.201189 
L 586.574261 170.894037 
L 588.603352 171.19389 
L 589.617898 170.958544 
L 590.632443 171.520634 
L 591.139716 171.119372 
L 591.646989 171.018045 
L 592.154261 171.67436 
L 592.661534 171.09071 
L 593.168807 171.354111 
L 594.183352 170.839483 
L 594.690625 170.719592 
L 595.197898 170.840227 
L 595.70517 170.708209 
L 596.212443 170.893917 
L 596.719716 171.223553 
L 597.226989 170.712814 
L 597.734261 170.735789 
L 598.241534 170.56253 
L 598.748807 170.978219 
L 599.25608 170.867546 
L 600.270625 171.072234 
L 600.777898 170.655839 
L 601.28517 170.698314 
L 601.792443 171.11127 
L 602.299716 170.684368 
L 603.821534 171.266159 
L 604.328807 171.20957 
L 604.83608 170.876477 
L 605.343352 171.059444 
L 606.357898 170.926751 
L 606.86517 170.696355 
L 607.372443 170.808768 
L 607.879716 171.218476 
L 609.908807 170.606371 
L 610.41608 170.938834 
L 610.923352 170.807869 
L 611.430625 170.850105 
L 611.937898 170.759542 
L 612.44517 170.856284 
L 612.952443 171.272716 
L 613.459716 170.761774 
L 613.966989 170.881607 
L 614.981534 170.761931 
L 615.488807 170.918663 
L 615.99608 170.768164 
L 616.503352 171.215186 
L 617.010625 171.017064 
L 617.517898 171.250301 
L 618.02517 170.951181 
L 619.546989 170.750064 
L 620.054261 170.934623 
L 620.561534 170.891714 
L 621.068807 171.047805 
L 621.57608 170.738098 
L 622.590625 170.735819 
L 623.097898 171.010138 
L 623.60517 170.904273 
L 624.112443 170.954422 
L 625.126989 171.288385 
L 625.126989 171.288385 
" clip-path="url(#p6c49554a0c)" style="fill: none; stroke: #ff7f0e; stroke-width: 1.5; stroke-linecap: square"/>
   </g>
   <g id="patch_3">
    <path d="M 92.490625 308.63625 
L 92.490625 31.43625 
" style="fill: none; stroke: #000000; stroke-width: 0.8; stroke-linejoin: miter; stroke-linecap: square"/>
   </g>
   <g id="patch_4">
    <path d="M 650.490625 308.63625 
L 650.490625 31.43625 
" style="fill: none; stroke: #000000; stroke-width: 0.8; stroke-linejoin: miter; stroke-linecap: square"/>
   </g>
   <g id="patch_5">
    <path d="M 92.490625 308.63625 
L 650.490625 308.63625 
" style="fill: none; stroke: #000000; stroke-width: 0.8; stroke-linejoin: miter; stroke-linecap: square"/>
   </g>
   <g id="patch_6">
    <path d="M 92.490625 31.43625 
L 650.490625 31.43625 
" style="fill: none; stroke: #000000; stroke-width: 0.8; stroke-linejoin: miter; stroke-linecap: square"/>
   </g>
   <g id="text_14">
    <!-- Generator and Discriminator Loss During Training -->
    <g transform="translate(74.258125 25.43625) scale(0.24 -0.24)">
     <defs>
      <path id="DejaVuSans-47" d="M 3809 666 
L 3809 1919 
L 2778 1919 
L 2778 2438 
L 4434 2438 
L 4434 434 
Q 4069 175 3628 42 
Q 3188 -91 2688 -91 
Q 1594 -91 976 548 
Q 359 1188 359 2328 
Q 359 3472 976 4111 
Q 1594 4750 2688 4750 
Q 3144 4750 3555 4637 
Q 3966 4525 4313 4306 
L 4313 3634 
Q 3963 3931 3569 4081 
Q 3175 4231 2741 4231 
Q 1884 4231 1454 3753 
Q 1025 3275 1025 2328 
Q 1025 1384 1454 906 
Q 1884 428 2741 428 
Q 3075 428 3337 486 
Q 3600 544 3809 666 
z
" transform="scale(0.015625)"/>
      <path id="DejaVuSans-20" transform="scale(0.015625)"/>
      <path id="DejaVuSans-64" d="M 2906 2969 
L 2906 4863 
L 3481 4863 
L 3481 0 
L 2906 0 
L 2906 525 
Q 2725 213 2448 61 
Q 2172 -91 1784 -91 
Q 1150 -91 751 415 
Q 353 922 353 1747 
Q 353 2572 751 3078 
Q 1150 3584 1784 3584 
Q 2172 3584 2448 3432 
Q 2725 3281 2906 2969 
z
M 947 1747 
Q 947 1113 1208 752 
Q 1469 391 1925 391 
Q 2381 391 2643 752 
Q 2906 1113 2906 1747 
Q 2906 2381 2643 2742 
Q 2381 3103 1925 3103 
Q 1469 3103 1208 2742 
Q 947 2381 947 1747 
z
" transform="scale(0.015625)"/>
      <path id="DejaVuSans-44" d="M 1259 4147 
L 1259 519 
L 2022 519 
Q 2988 519 3436 956 
Q 3884 1394 3884 2338 
Q 3884 3275 3436 3711 
Q 2988 4147 2022 4147 
L 1259 4147 
z
M 628 4666 
L 1925 4666 
Q 3281 4666 3915 4102 
Q 4550 3538 4550 2338 
Q 4550 1131 3912 565 
Q 3275 0 1925 0 
L 628 0 
L 628 4666 
z
" transform="scale(0.015625)"/>
      <path id="DejaVuSans-63" d="M 3122 3366 
L 3122 2828 
Q 2878 2963 2633 3030 
Q 2388 3097 2138 3097 
Q 1578 3097 1268 2742 
Q 959 2388 959 1747 
Q 959 1106 1268 751 
Q 1578 397 2138 397 
Q 2388 397 2633 464 
Q 2878 531 3122 666 
L 3122 134 
Q 2881 22 2623 -34 
Q 2366 -91 2075 -91 
Q 1284 -91 818 406 
Q 353 903 353 1747 
Q 353 2603 823 3093 
Q 1294 3584 2113 3584 
Q 2378 3584 2631 3529 
Q 2884 3475 3122 3366 
z
" transform="scale(0.015625)"/>
      <path id="DejaVuSans-6d" d="M 3328 2828 
Q 3544 3216 3844 3400 
Q 4144 3584 4550 3584 
Q 5097 3584 5394 3201 
Q 5691 2819 5691 2113 
L 5691 0 
L 5113 0 
L 5113 2094 
Q 5113 2597 4934 2840 
Q 4756 3084 4391 3084 
Q 3944 3084 3684 2787 
Q 3425 2491 3425 1978 
L 3425 0 
L 2847 0 
L 2847 2094 
Q 2847 2600 2669 2842 
Q 2491 3084 2119 3084 
Q 1678 3084 1418 2786 
Q 1159 2488 1159 1978 
L 1159 0 
L 581 0 
L 581 3500 
L 1159 3500 
L 1159 2956 
Q 1356 3278 1631 3431 
Q 1906 3584 2284 3584 
Q 2666 3584 2933 3390 
Q 3200 3197 3328 2828 
z
" transform="scale(0.015625)"/>
      <path id="DejaVuSans-75" d="M 544 1381 
L 544 3500 
L 1119 3500 
L 1119 1403 
Q 1119 906 1312 657 
Q 1506 409 1894 409 
Q 2359 409 2629 706 
Q 2900 1003 2900 1516 
L 2900 3500 
L 3475 3500 
L 3475 0 
L 2900 0 
L 2900 538 
Q 2691 219 2414 64 
Q 2138 -91 1772 -91 
Q 1169 -91 856 284 
Q 544 659 544 1381 
z
M 1991 3584 
L 1991 3584 
z
" transform="scale(0.015625)"/>
      <path id="DejaVuSans-67" d="M 2906 1791 
Q 2906 2416 2648 2759 
Q 2391 3103 1925 3103 
Q 1463 3103 1205 2759 
Q 947 2416 947 1791 
Q 947 1169 1205 825 
Q 1463 481 1925 481 
Q 2391 481 2648 825 
Q 2906 1169 2906 1791 
z
M 3481 434 
Q 3481 -459 3084 -895 
Q 2688 -1331 1869 -1331 
Q 1566 -1331 1297 -1286 
Q 1028 -1241 775 -1147 
L 775 -588 
Q 1028 -725 1275 -790 
Q 1522 -856 1778 -856 
Q 2344 -856 2625 -561 
Q 2906 -266 2906 331 
L 2906 616 
Q 2728 306 2450 153 
Q 2172 0 1784 0 
Q 1141 0 747 490 
Q 353 981 353 1791 
Q 353 2603 747 3093 
Q 1141 3584 1784 3584 
Q 2172 3584 2450 3431 
Q 2728 3278 2906 2969 
L 2906 3500 
L 3481 3500 
L 3481 434 
z
" transform="scale(0.015625)"/>
      <path id="DejaVuSans-54" d="M -19 4666 
L 3928 4666 
L 3928 4134 
L 2272 4134 
L 2272 0 
L 1638 0 
L 1638 4134 
L -19 4134 
L -19 4666 
z
" transform="scale(0.015625)"/>
     </defs>
     <use xlink:href="#DejaVuSans-47"/>
     <use xlink:href="#DejaVuSans-65" x="77.490234"/>
     <use xlink:href="#DejaVuSans-6e" x="139.013672"/>
     <use xlink:href="#DejaVuSans-65" x="202.392578"/>
     <use xlink:href="#DejaVuSans-72" x="263.916016"/>
     <use xlink:href="#DejaVuSans-61" x="305.029297"/>
     <use xlink:href="#DejaVuSans-74" x="366.308594"/>
     <use xlink:href="#DejaVuSans-6f" x="405.517578"/>
     <use xlink:href="#DejaVuSans-72" x="466.699219"/>
     <use xlink:href="#DejaVuSans-20" x="507.8125"/>
     <use xlink:href="#DejaVuSans-61" x="539.599609"/>
     <use xlink:href="#DejaVuSans-6e" x="600.878906"/>
     <use xlink:href="#DejaVuSans-64" x="664.257812"/>
     <use xlink:href="#DejaVuSans-20" x="727.734375"/>
     <use xlink:href="#DejaVuSans-44" x="759.521484"/>
     <use xlink:href="#DejaVuSans-69" x="836.523438"/>
     <use xlink:href="#DejaVuSans-73" x="864.306641"/>
     <use xlink:href="#DejaVuSans-63" x="916.40625"/>
     <use xlink:href="#DejaVuSans-72" x="971.386719"/>
     <use xlink:href="#DejaVuSans-69" x="1012.5"/>
     <use xlink:href="#DejaVuSans-6d" x="1040.283203"/>
     <use xlink:href="#DejaVuSans-69" x="1137.695312"/>
     <use xlink:href="#DejaVuSans-6e" x="1165.478516"/>
     <use xlink:href="#DejaVuSans-61" x="1228.857422"/>
     <use xlink:href="#DejaVuSans-74" x="1290.136719"/>
     <use xlink:href="#DejaVuSans-6f" x="1329.345703"/>
     <use xlink:href="#DejaVuSans-72" x="1390.527344"/>
     <use xlink:href="#DejaVuSans-20" x="1431.640625"/>
     <use xlink:href="#DejaVuSans-4c" x="1463.427734"/>
     <use xlink:href="#DejaVuSans-6f" x="1517.390625"/>
     <use xlink:href="#DejaVuSans-73" x="1578.572266"/>
     <use xlink:href="#DejaVuSans-73" x="1630.671875"/>
     <use xlink:href="#DejaVuSans-20" x="1682.771484"/>
     <use xlink:href="#DejaVuSans-44" x="1714.558594"/>
     <use xlink:href="#DejaVuSans-75" x="1791.560547"/>
     <use xlink:href="#DejaVuSans-72" x="1854.939453"/>
     <use xlink:href="#DejaVuSans-69" x="1896.052734"/>
     <use xlink:href="#DejaVuSans-6e" x="1923.835938"/>
     <use xlink:href="#DejaVuSans-67" x="1987.214844"/>
     <use xlink:href="#DejaVuSans-20" x="2050.691406"/>
     <use xlink:href="#DejaVuSans-54" x="2082.478516"/>
     <use xlink:href="#DejaVuSans-72" x="2128.8125"/>
     <use xlink:href="#DejaVuSans-61" x="2169.925781"/>
     <use xlink:href="#DejaVuSans-69" x="2231.205078"/>
     <use xlink:href="#DejaVuSans-6e" x="2258.988281"/>
     <use xlink:href="#DejaVuSans-69" x="2322.367188"/>
     <use xlink:href="#DejaVuSans-6e" x="2350.150391"/>
     <use xlink:href="#DejaVuSans-67" x="2413.529297"/>
    </g>
   </g>
   <g id="legend_1">
    <g id="patch_7">
     <path d="M 556.99375 106.14875 
L 636.490625 106.14875 
Q 640.490625 106.14875 640.490625 102.14875 
L 640.490625 45.43625 
Q 640.490625 41.43625 636.490625 41.43625 
L 556.99375 41.43625 
Q 552.99375 41.43625 552.99375 45.43625 
L 552.99375 102.14875 
Q 552.99375 106.14875 556.99375 106.14875 
z
" style="fill: #ffffff; opacity: 0.8; stroke: #cccccc; stroke-linejoin: miter"/>
    </g>
    <g id="line2d_14">
     <path d="M 560.99375 57.633125 
L 580.99375 57.633125 
L 600.99375 57.633125 
" style="fill: none; stroke: #1f77b4; stroke-width: 1.5; stroke-linecap: square"/>
    </g>
    <g id="text_15">
     <!-- G -->
     <g transform="translate(616.99375 64.633125) scale(0.2 -0.2)">
      <use xlink:href="#DejaVuSans-47"/>
     </g>
    </g>
    <g id="line2d_15">
     <path d="M 560.99375 86.989375 
L 580.99375 86.989375 
L 600.99375 86.989375 
" style="fill: none; stroke: #ff7f0e; stroke-width: 1.5; stroke-linecap: square"/>
    </g>
    <g id="text_16">
     <!-- D -->
     <g transform="translate(616.99375 93.989375) scale(0.2 -0.2)">
      <use xlink:href="#DejaVuSans-44"/>
     </g>
    </g>
   </g>
  </g>
 </g>
 <defs>
  <clipPath id="p6c49554a0c">
   <rect x="92.490625" y="31.43625" width="558" height="277.2"/>
  </clipPath>
 </defs>
</svg>
