<?xml version="1.0" encoding="utf-8" standalone="no"?>
<!DOCTYPE svg PUBLIC "-//W3C//DTD SVG 1.1//EN"
  "http://www.w3.org/Graphics/SVG/1.1/DTD/svg11.dtd">
<svg xmlns:xlink="http://www.w3.org/1999/xlink" width="675.923125pt" height="365.54875pt" viewBox="0 0 675.923125 365.54875" xmlns="http://www.w3.org/2000/svg" version="1.1">
 <metadata>
  <rdf:RDF xmlns:dc="http://purl.org/dc/elements/1.1/" xmlns:cc="http://creativecommons.org/ns#" xmlns:rdf="http://www.w3.org/1999/02/22-rdf-syntax-ns#">
   <cc:Work>
    <dc:type rdf:resource="http://purl.org/dc/dcmitype/StillImage"/>
    <dc:date>2024-02-02T19:10:19.303265</dc:date>
    <dc:format>image/svg+xml</dc:format>
    <dc:creator>
     <cc:Agent>
      <dc:title>Matplotlib v3.7.2, https://matplotlib.org/</dc:title>
     </cc:Agent>
    </dc:creator>
   </cc:Work>
  </rdf:RDF>
 </metadata>
 <defs>
  <style type="text/css">*{stroke-linejoin: round; stroke-linecap: butt}</style>
 </defs>
 <g id="figure_1">
  <g id="patch_1">
   <path d="M 0 365.54875 
L 675.923125 365.54875 
L 675.923125 -0 
L 0 -0 
z
" style="fill: #ffffff"/>
  </g>
  <g id="axes_1">
   <g id="patch_2">
    <path d="M 92.490625 308.63625 
L 650.490625 308.63625 
L 650.490625 31.43625 
L 92.490625 31.43625 
z
" style="fill: #ffffff"/>
   </g>
   <g id="matplotlib.axis_1">
    <g id="xtick_1">
     <g id="line2d_1">
      <defs>
       <path id="mab2f9750da" d="M 0 0 
L 0 3.5 
" style="stroke: #000000; stroke-width: 0.8"/>
      </defs>
      <g>
       <use xlink:href="#mab2f9750da" x="117.854261" y="308.63625" style="stroke: #000000; stroke-width: 0.8"/>
      </g>
     </g>
     <g id="text_1">
      <!-- 0 -->
      <g transform="translate(111.491761 330.833125) scale(0.2 -0.2)">
       <defs>
        <path id="DejaVuSans-30" d="M 2034 4250 
Q 1547 4250 1301 3770 
Q 1056 3291 1056 2328 
Q 1056 1369 1301 889 
Q 1547 409 2034 409 
Q 2525 409 2770 889 
Q 3016 1369 3016 2328 
Q 3016 3291 2770 3770 
Q 2525 4250 2034 4250 
z
M 2034 4750 
Q 2819 4750 3233 4129 
Q 3647 3509 3647 2328 
Q 3647 1150 3233 529 
Q 2819 -91 2034 -91 
Q 1250 -91 836 529 
Q 422 1150 422 2328 
Q 422 3509 836 4129 
Q 1250 4750 2034 4750 
z
" transform="scale(0.015625)"/>
       </defs>
       <use xlink:href="#DejaVuSans-30"/>
      </g>
     </g>
    </g>
    <g id="xtick_2">
     <g id="line2d_2">
      <g>
       <use xlink:href="#mab2f9750da" x="185.490625" y="308.63625" style="stroke: #000000; stroke-width: 0.8"/>
      </g>
     </g>
     <g id="text_2">
      <!-- 100 -->
      <g transform="translate(166.403125 330.833125) scale(0.2 -0.2)">
       <defs>
        <path id="DejaVuSans-31" d="M 794 531 
L 1825 531 
L 1825 4091 
L 703 3866 
L 703 4441 
L 1819 4666 
L 2450 4666 
L 2450 531 
L 3481 531 
L 3481 0 
L 794 0 
L 794 531 
z
" transform="scale(0.015625)"/>
       </defs>
       <use xlink:href="#DejaVuSans-31"/>
       <use xlink:href="#DejaVuSans-30" x="63.623047"/>
       <use xlink:href="#DejaVuSans-30" x="127.246094"/>
      </g>
     </g>
    </g>
    <g id="xtick_3">
     <g id="line2d_3">
      <g>
       <use xlink:href="#mab2f9750da" x="253.126989" y="308.63625" style="stroke: #000000; stroke-width: 0.8"/>
      </g>
     </g>
     <g id="text_3">
      <!-- 200 -->
      <g transform="translate(234.039489 330.833125) scale(0.2 -0.2)">
       <defs>
        <path id="DejaVuSans-32" d="M 1228 531 
L 3431 531 
L 3431 0 
L 469 0 
L 469 531 
Q 828 903 1448 1529 
Q 2069 2156 2228 2338 
Q 2531 2678 2651 2914 
Q 2772 3150 2772 3378 
Q 2772 3750 2511 3984 
Q 2250 4219 1831 4219 
Q 1534 4219 1204 4116 
Q 875 4013 500 3803 
L 500 4441 
Q 881 4594 1212 4672 
Q 1544 4750 1819 4750 
Q 2544 4750 2975 4387 
Q 3406 4025 3406 3419 
Q 3406 3131 3298 2873 
Q 3191 2616 2906 2266 
Q 2828 2175 2409 1742 
Q 1991 1309 1228 531 
z
" transform="scale(0.015625)"/>
       </defs>
       <use xlink:href="#DejaVuSans-32"/>
       <use xlink:href="#DejaVuSans-30" x="63.623047"/>
       <use xlink:href="#DejaVuSans-30" x="127.246094"/>
      </g>
     </g>
    </g>
    <g id="xtick_4">
     <g id="line2d_4">
      <g>
       <use xlink:href="#mab2f9750da" x="320.763352" y="308.63625" style="stroke: #000000; stroke-width: 0.8"/>
      </g>
     </g>
     <g id="text_4">
      <!-- 300 -->
      <g transform="translate(301.675852 330.833125) scale(0.2 -0.2)">
       <defs>
        <path id="DejaVuSans-33" d="M 2597 2516 
Q 3050 2419 3304 2112 
Q 3559 1806 3559 1356 
Q 3559 666 3084 287 
Q 2609 -91 1734 -91 
Q 1441 -91 1130 -33 
Q 819 25 488 141 
L 488 750 
Q 750 597 1062 519 
Q 1375 441 1716 441 
Q 2309 441 2620 675 
Q 2931 909 2931 1356 
Q 2931 1769 2642 2001 
Q 2353 2234 1838 2234 
L 1294 2234 
L 1294 2753 
L 1863 2753 
Q 2328 2753 2575 2939 
Q 2822 3125 2822 3475 
Q 2822 3834 2567 4026 
Q 2313 4219 1838 4219 
Q 1578 4219 1281 4162 
Q 984 4106 628 3988 
L 628 4550 
Q 988 4650 1302 4700 
Q 1616 4750 1894 4750 
Q 2613 4750 3031 4423 
Q 3450 4097 3450 3541 
Q 3450 3153 3228 2886 
Q 3006 2619 2597 2516 
z
" transform="scale(0.015625)"/>
       </defs>
       <use xlink:href="#DejaVuSans-33"/>
       <use xlink:href="#DejaVuSans-30" x="63.623047"/>
       <use xlink:href="#DejaVuSans-30" x="127.246094"/>
      </g>
     </g>
    </g>
    <g id="xtick_5">
     <g id="line2d_5">
      <g>
       <use xlink:href="#mab2f9750da" x="388.399716" y="308.63625" style="stroke: #000000; stroke-width: 0.8"/>
      </g>
     </g>
     <g id="text_5">
      <!-- 400 -->
      <g transform="translate(369.312216 330.833125) scale(0.2 -0.2)">
       <defs>
        <path id="DejaVuSans-34" d="M 2419 4116 
L 825 1625 
L 2419 1625 
L 2419 4116 
z
M 2253 4666 
L 3047 4666 
L 3047 1625 
L 3713 1625 
L 3713 1100 
L 3047 1100 
L 3047 0 
L 2419 0 
L 2419 1100 
L 313 1100 
L 313 1709 
L 2253 4666 
z
" transform="scale(0.015625)"/>
       </defs>
       <use xlink:href="#DejaVuSans-34"/>
       <use xlink:href="#DejaVuSans-30" x="63.623047"/>
       <use xlink:href="#DejaVuSans-30" x="127.246094"/>
      </g>
     </g>
    </g>
    <g id="xtick_6">
     <g id="line2d_6">
      <g>
       <use xlink:href="#mab2f9750da" x="456.03608" y="308.63625" style="stroke: #000000; stroke-width: 0.8"/>
      </g>
     </g>
     <g id="text_6">
      <!-- 500 -->
      <g transform="translate(436.94858 330.833125) scale(0.2 -0.2)">
       <defs>
        <path id="DejaVuSans-35" d="M 691 4666 
L 3169 4666 
L 3169 4134 
L 1269 4134 
L 1269 2991 
Q 1406 3038 1543 3061 
Q 1681 3084 1819 3084 
Q 2600 3084 3056 2656 
Q 3513 2228 3513 1497 
Q 3513 744 3044 326 
Q 2575 -91 1722 -91 
Q 1428 -91 1123 -41 
Q 819 9 494 109 
L 494 744 
Q 775 591 1075 516 
Q 1375 441 1709 441 
Q 2250 441 2565 725 
Q 2881 1009 2881 1497 
Q 2881 1984 2565 2268 
Q 2250 2553 1709 2553 
Q 1456 2553 1204 2497 
Q 953 2441 691 2322 
L 691 4666 
z
" transform="scale(0.015625)"/>
       </defs>
       <use xlink:href="#DejaVuSans-35"/>
       <use xlink:href="#DejaVuSans-30" x="63.623047"/>
       <use xlink:href="#DejaVuSans-30" x="127.246094"/>
      </g>
     </g>
    </g>
    <g id="xtick_7">
     <g id="line2d_7">
      <g>
       <use xlink:href="#mab2f9750da" x="523.672443" y="308.63625" style="stroke: #000000; stroke-width: 0.8"/>
      </g>
     </g>
     <g id="text_7">
      <!-- 600 -->
      <g transform="translate(504.584943 330.833125) scale(0.2 -0.2)">
       <defs>
        <path id="DejaVuSans-36" d="M 2113 2584 
Q 1688 2584 1439 2293 
Q 1191 2003 1191 1497 
Q 1191 994 1439 701 
Q 1688 409 2113 409 
Q 2538 409 2786 701 
Q 3034 994 3034 1497 
Q 3034 2003 2786 2293 
Q 2538 2584 2113 2584 
z
M 3366 4563 
L 3366 3988 
Q 3128 4100 2886 4159 
Q 2644 4219 2406 4219 
Q 1781 4219 1451 3797 
Q 1122 3375 1075 2522 
Q 1259 2794 1537 2939 
Q 1816 3084 2150 3084 
Q 2853 3084 3261 2657 
Q 3669 2231 3669 1497 
Q 3669 778 3244 343 
Q 2819 -91 2113 -91 
Q 1303 -91 875 529 
Q 447 1150 447 2328 
Q 447 3434 972 4092 
Q 1497 4750 2381 4750 
Q 2619 4750 2861 4703 
Q 3103 4656 3366 4563 
z
" transform="scale(0.015625)"/>
       </defs>
       <use xlink:href="#DejaVuSans-36"/>
       <use xlink:href="#DejaVuSans-30" x="63.623047"/>
       <use xlink:href="#DejaVuSans-30" x="127.246094"/>
      </g>
     </g>
    </g>
    <g id="xtick_8">
     <g id="line2d_8">
      <g>
       <use xlink:href="#mab2f9750da" x="591.308807" y="308.63625" style="stroke: #000000; stroke-width: 0.8"/>
      </g>
     </g>
     <g id="text_8">
      <!-- 700 -->
      <g transform="translate(572.221307 330.833125) scale(0.2 -0.2)">
       <defs>
        <path id="DejaVuSans-37" d="M 525 4666 
L 3525 4666 
L 3525 4397 
L 1831 0 
L 1172 0 
L 2766 4134 
L 525 4134 
L 525 4666 
z
" transform="scale(0.015625)"/>
       </defs>
       <use xlink:href="#DejaVuSans-37"/>
       <use xlink:href="#DejaVuSans-30" x="63.623047"/>
       <use xlink:href="#DejaVuSans-30" x="127.246094"/>
      </g>
     </g>
    </g>
    <g id="text_9">
     <!-- iterations -->
     <g transform="translate(324.035938 354.189375) scale(0.2 -0.2)">
      <defs>
       <path id="DejaVuSans-69" d="M 603 3500 
L 1178 3500 
L 1178 0 
L 603 0 
L 603 3500 
z
M 603 4863 
L 1178 4863 
L 1178 4134 
L 603 4134 
L 603 4863 
z
" transform="scale(0.015625)"/>
       <path id="DejaVuSans-74" d="M 1172 4494 
L 1172 3500 
L 2356 3500 
L 2356 3053 
L 1172 3053 
L 1172 1153 
Q 1172 725 1289 603 
Q 1406 481 1766 481 
L 2356 481 
L 2356 0 
L 1766 0 
Q 1100 0 847 248 
Q 594 497 594 1153 
L 594 3053 
L 172 3053 
L 172 3500 
L 594 3500 
L 594 4494 
L 1172 4494 
z
" transform="scale(0.015625)"/>
       <path id="DejaVuSans-65" d="M 3597 1894 
L 3597 1613 
L 953 1613 
Q 991 1019 1311 708 
Q 1631 397 2203 397 
Q 2534 397 2845 478 
Q 3156 559 3463 722 
L 3463 178 
Q 3153 47 2828 -22 
Q 2503 -91 2169 -91 
Q 1331 -91 842 396 
Q 353 884 353 1716 
Q 353 2575 817 3079 
Q 1281 3584 2069 3584 
Q 2775 3584 3186 3129 
Q 3597 2675 3597 1894 
z
M 3022 2063 
Q 3016 2534 2758 2815 
Q 2500 3097 2075 3097 
Q 1594 3097 1305 2825 
Q 1016 2553 972 2059 
L 3022 2063 
z
" transform="scale(0.015625)"/>
       <path id="DejaVuSans-72" d="M 2631 2963 
Q 2534 3019 2420 3045 
Q 2306 3072 2169 3072 
Q 1681 3072 1420 2755 
Q 1159 2438 1159 1844 
L 1159 0 
L 581 0 
L 581 3500 
L 1159 3500 
L 1159 2956 
Q 1341 3275 1631 3429 
Q 1922 3584 2338 3584 
Q 2397 3584 2469 3576 
Q 2541 3569 2628 3553 
L 2631 2963 
z
" transform="scale(0.015625)"/>
       <path id="DejaVuSans-61" d="M 2194 1759 
Q 1497 1759 1228 1600 
Q 959 1441 959 1056 
Q 959 750 1161 570 
Q 1363 391 1709 391 
Q 2188 391 2477 730 
Q 2766 1069 2766 1631 
L 2766 1759 
L 2194 1759 
z
M 3341 1997 
L 3341 0 
L 2766 0 
L 2766 531 
Q 2569 213 2275 61 
Q 1981 -91 1556 -91 
Q 1019 -91 701 211 
Q 384 513 384 1019 
Q 384 1609 779 1909 
Q 1175 2209 1959 2209 
L 2766 2209 
L 2766 2266 
Q 2766 2663 2505 2880 
Q 2244 3097 1772 3097 
Q 1472 3097 1187 3025 
Q 903 2953 641 2809 
L 641 3341 
Q 956 3463 1253 3523 
Q 1550 3584 1831 3584 
Q 2591 3584 2966 3190 
Q 3341 2797 3341 1997 
z
" transform="scale(0.015625)"/>
       <path id="DejaVuSans-6f" d="M 1959 3097 
Q 1497 3097 1228 2736 
Q 959 2375 959 1747 
Q 959 1119 1226 758 
Q 1494 397 1959 397 
Q 2419 397 2687 759 
Q 2956 1122 2956 1747 
Q 2956 2369 2687 2733 
Q 2419 3097 1959 3097 
z
M 1959 3584 
Q 2709 3584 3137 3096 
Q 3566 2609 3566 1747 
Q 3566 888 3137 398 
Q 2709 -91 1959 -91 
Q 1206 -91 779 398 
Q 353 888 353 1747 
Q 353 2609 779 3096 
Q 1206 3584 1959 3584 
z
" transform="scale(0.015625)"/>
       <path id="DejaVuSans-6e" d="M 3513 2113 
L 3513 0 
L 2938 0 
L 2938 2094 
Q 2938 2591 2744 2837 
Q 2550 3084 2163 3084 
Q 1697 3084 1428 2787 
Q 1159 2491 1159 1978 
L 1159 0 
L 581 0 
L 581 3500 
L 1159 3500 
L 1159 2956 
Q 1366 3272 1645 3428 
Q 1925 3584 2291 3584 
Q 2894 3584 3203 3211 
Q 3513 2838 3513 2113 
z
" transform="scale(0.015625)"/>
       <path id="DejaVuSans-73" d="M 2834 3397 
L 2834 2853 
Q 2591 2978 2328 3040 
Q 2066 3103 1784 3103 
Q 1356 3103 1142 2972 
Q 928 2841 928 2578 
Q 928 2378 1081 2264 
Q 1234 2150 1697 2047 
L 1894 2003 
Q 2506 1872 2764 1633 
Q 3022 1394 3022 966 
Q 3022 478 2636 193 
Q 2250 -91 1575 -91 
Q 1294 -91 989 -36 
Q 684 19 347 128 
L 347 722 
Q 666 556 975 473 
Q 1284 391 1588 391 
Q 1994 391 2212 530 
Q 2431 669 2431 922 
Q 2431 1156 2273 1281 
Q 2116 1406 1581 1522 
L 1381 1569 
Q 847 1681 609 1914 
Q 372 2147 372 2553 
Q 372 3047 722 3315 
Q 1072 3584 1716 3584 
Q 2034 3584 2315 3537 
Q 2597 3491 2834 3397 
z
" transform="scale(0.015625)"/>
      </defs>
      <use xlink:href="#DejaVuSans-69"/>
      <use xlink:href="#DejaVuSans-74" x="27.783203"/>
      <use xlink:href="#DejaVuSans-65" x="66.992188"/>
      <use xlink:href="#DejaVuSans-72" x="128.515625"/>
      <use xlink:href="#DejaVuSans-61" x="169.628906"/>
      <use xlink:href="#DejaVuSans-74" x="230.908203"/>
      <use xlink:href="#DejaVuSans-69" x="270.117188"/>
      <use xlink:href="#DejaVuSans-6f" x="297.900391"/>
      <use xlink:href="#DejaVuSans-6e" x="359.082031"/>
      <use xlink:href="#DejaVuSans-73" x="422.460938"/>
     </g>
    </g>
   </g>
   <g id="matplotlib.axis_2">
    <g id="ytick_1">
     <g id="line2d_9">
      <defs>
       <path id="mb62451e1d5" d="M 0 0 
L -3.5 0 
" style="stroke: #000000; stroke-width: 0.8"/>
      </defs>
      <g>
       <use xlink:href="#mb62451e1d5" x="92.490625" y="308.076474" style="stroke: #000000; stroke-width: 0.8"/>
      </g>
     </g>
     <g id="text_10">
      <!-- −300 -->
      <g transform="translate(30.55625 315.674911) scale(0.2 -0.2)">
       <defs>
        <path id="DejaVuSans-2212" d="M 678 2272 
L 4684 2272 
L 4684 1741 
L 678 1741 
L 678 2272 
z
" transform="scale(0.015625)"/>
       </defs>
       <use xlink:href="#DejaVuSans-2212"/>
       <use xlink:href="#DejaVuSans-33" x="83.789062"/>
       <use xlink:href="#DejaVuSans-30" x="147.412109"/>
       <use xlink:href="#DejaVuSans-30" x="211.035156"/>
      </g>
     </g>
    </g>
    <g id="ytick_2">
     <g id="line2d_10">
      <g>
       <use xlink:href="#mb62451e1d5" x="92.490625" y="260.333863" style="stroke: #000000; stroke-width: 0.8"/>
      </g>
     </g>
     <g id="text_11">
      <!-- −200 -->
      <g transform="translate(30.55625 267.9323) scale(0.2 -0.2)">
       <use xlink:href="#DejaVuSans-2212"/>
       <use xlink:href="#DejaVuSans-32" x="83.789062"/>
       <use xlink:href="#DejaVuSans-30" x="147.412109"/>
       <use xlink:href="#DejaVuSans-30" x="211.035156"/>
      </g>
     </g>
    </g>
    <g id="ytick_3">
     <g id="line2d_11">
      <g>
       <use xlink:href="#mb62451e1d5" x="92.490625" y="212.591251" style="stroke: #000000; stroke-width: 0.8"/>
      </g>
     </g>
     <g id="text_12">
      <!-- −100 -->
      <g transform="translate(30.55625 220.189689) scale(0.2 -0.2)">
       <use xlink:href="#DejaVuSans-2212"/>
       <use xlink:href="#DejaVuSans-31" x="83.789062"/>
       <use xlink:href="#DejaVuSans-30" x="147.412109"/>
       <use xlink:href="#DejaVuSans-30" x="211.035156"/>
      </g>
     </g>
    </g>
    <g id="ytick_4">
     <g id="line2d_12">
      <g>
       <use xlink:href="#mb62451e1d5" x="92.490625" y="164.84864" style="stroke: #000000; stroke-width: 0.8"/>
      </g>
     </g>
     <g id="text_13">
      <!-- 0 -->
      <g transform="translate(72.765625 172.447078) scale(0.2 -0.2)">
       <use xlink:href="#DejaVuSans-30"/>
      </g>
     </g>
    </g>
    <g id="ytick_5">
     <g id="line2d_13">
      <g>
       <use xlink:href="#mb62451e1d5" x="92.490625" y="117.106029" style="stroke: #000000; stroke-width: 0.8"/>
      </g>
     </g>
     <g id="text_14">
      <!-- 100 -->
      <g transform="translate(47.315625 124.704466) scale(0.2 -0.2)">
       <use xlink:href="#DejaVuSans-31"/>
       <use xlink:href="#DejaVuSans-30" x="63.623047"/>
       <use xlink:href="#DejaVuSans-30" x="127.246094"/>
      </g>
     </g>
    </g>
    <g id="ytick_6">
     <g id="line2d_14">
      <g>
       <use xlink:href="#mb62451e1d5" x="92.490625" y="69.363418" style="stroke: #000000; stroke-width: 0.8"/>
      </g>
     </g>
     <g id="text_15">
      <!-- 200 -->
      <g transform="translate(47.315625 76.961855) scale(0.2 -0.2)">
       <use xlink:href="#DejaVuSans-32"/>
       <use xlink:href="#DejaVuSans-30" x="63.623047"/>
       <use xlink:href="#DejaVuSans-30" x="127.246094"/>
      </g>
     </g>
    </g>
    <g id="text_16">
     <!-- Loss -->
     <g transform="translate(22.396875 191.970625) rotate(-90) scale(0.2 -0.2)">
      <defs>
       <path id="DejaVuSans-4c" d="M 628 4666 
L 1259 4666 
L 1259 531 
L 3531 531 
L 3531 0 
L 628 0 
L 628 4666 
z
" transform="scale(0.015625)"/>
      </defs>
      <use xlink:href="#DejaVuSans-4c"/>
      <use xlink:href="#DejaVuSans-6f" x="53.962891"/>
      <use xlink:href="#DejaVuSans-73" x="115.144531"/>
      <use xlink:href="#DejaVuSans-73" x="167.244141"/>
     </g>
    </g>
   </g>
   <g id="line2d_15">
    <path d="M 117.854261 146.813401 
L 118.530625 108.371969 
L 119.206989 80.391515 
L 119.883352 93.97479 
L 121.23608 106.442787 
L 121.912443 102.548887 
L 122.588807 66.652339 
L 123.26517 44.03625 
L 123.941534 55.803627 
L 124.617898 64.165815 
L 125.294261 68.653032 
L 125.970625 61.460956 
L 126.646989 63.790343 
L 127.323352 62.242846 
L 127.999716 69.057708 
L 128.67608 80.741477 
L 129.352443 87.131444 
L 130.028807 98.140049 
L 130.70517 103.093068 
L 131.381534 93.825742 
L 132.057898 104.094745 
L 132.734261 107.308578 
L 133.410625 107.992912 
L 134.086989 109.644738 
L 134.763352 119.773596 
L 135.439716 118.892841 
L 136.11608 114.429748 
L 136.792443 114.41171 
L 137.468807 118.415431 
L 138.14517 117.206988 
L 138.821534 117.824206 
L 139.497898 124.735137 
L 140.174261 128.258738 
L 140.850625 123.195727 
L 141.526989 122.886145 
L 142.203352 125.843859 
L 142.879716 125.967041 
L 143.55608 131.582295 
L 144.232443 131.871905 
L 144.908807 133.114474 
L 145.58517 127.878369 
L 146.261534 129.495931 
L 146.937898 127.712842 
L 147.614261 124.552253 
L 148.290625 129.481497 
L 148.966989 130.09079 
L 149.643352 138.115362 
L 150.319716 141.78177 
L 150.99608 134.414925 
L 151.672443 137.67643 
L 152.348807 136.065027 
L 153.02517 137.869639 
L 153.701534 132.690907 
L 154.377898 140.119834 
L 155.054261 137.644756 
L 155.730625 136.745389 
L 156.406989 135.335573 
L 157.083352 138.130464 
L 157.759716 142.002796 
L 158.43608 141.84562 
L 159.112443 142.578861 
L 159.788807 142.251124 
L 160.46517 142.172145 
L 161.141534 141.417091 
L 161.817898 140.224809 
L 162.494261 143.217005 
L 163.170625 144.687951 
L 163.846989 143.797342 
L 164.523352 144.278274 
L 165.199716 146.270732 
L 165.87608 146.701501 
L 166.552443 145.461789 
L 167.228807 145.833763 
L 167.90517 143.692652 
L 168.581534 147.194435 
L 169.257898 146.821302 
L 169.934261 147.072493 
L 170.610625 148.093813 
L 171.286989 147.234276 
L 172.639716 150.883918 
L 173.31608 150.092965 
L 173.992443 150.882584 
L 174.668807 151.093285 
L 175.34517 150.889117 
L 176.021534 152.174483 
L 176.697898 152.94296 
L 177.374261 151.837858 
L 178.050625 153.425732 
L 178.726989 152.601994 
L 179.403352 154.162992 
L 180.079716 155.336526 
L 180.75608 153.768577 
L 181.432443 155.985871 
L 182.108807 156.51429 
L 182.78517 156.791584 
L 183.461534 158.00526 
L 184.137898 156.319263 
L 184.814261 157.103248 
L 185.490625 155.953429 
L 186.166989 157.745158 
L 186.843352 158.683875 
L 187.519716 158.244609 
L 188.19608 154.730314 
L 188.872443 156.566221 
L 189.548807 157.700492 
L 190.22517 156.920326 
L 190.901534 157.017393 
L 191.577898 158.068498 
L 192.254261 156.190997 
L 192.930625 157.968617 
L 193.606989 157.662547 
L 194.959716 159.727833 
L 195.63608 161.236052 
L 196.988807 160.847517 
L 197.66517 159.687739 
L 198.341534 158.799593 
L 199.017898 160.259755 
L 199.694261 159.926854 
L 200.370625 160.268099 
L 201.046989 160.364639 
L 201.723352 159.709332 
L 202.399716 158.883726 
L 203.752443 162.122629 
L 204.428807 161.527582 
L 205.10517 159.785258 
L 205.781534 160.608374 
L 206.457898 159.759418 
L 207.134261 161.088617 
L 208.486989 159.732294 
L 209.163352 161.106603 
L 209.839716 160.441163 
L 210.51608 161.629867 
L 211.192443 161.67122 
L 211.868807 162.151759 
L 212.54517 163.316399 
L 213.897898 161.53737 
L 214.574261 162.63625 
L 215.926989 162.150268 
L 216.603352 164.664075 
L 217.279716 165.211228 
L 217.95608 165.140243 
L 218.632443 165.829806 
L 219.308807 166.831469 
L 219.98517 166.91882 
L 220.661534 167.478491 
L 221.337898 167.575725 
L 222.014261 165.443178 
L 222.690625 165.627313 
L 223.366989 166.592773 
L 224.043352 165.96152 
L 224.719716 166.931254 
L 225.39608 166.917131 
L 226.072443 165.406154 
L 226.748807 166.035049 
L 227.42517 164.400182 
L 228.101534 164.527758 
L 228.777898 164.778149 
L 229.454261 165.583527 
L 230.130625 167.012243 
L 230.806989 164.441019 
L 232.159716 166.745217 
L 233.512443 164.955568 
L 234.188807 165.543819 
L 234.86517 168.059276 
L 235.541534 166.862587 
L 236.217898 166.852146 
L 236.894261 167.158344 
L 237.570625 167.610948 
L 238.246989 163.137368 
L 238.923352 166.852458 
L 239.599716 164.939072 
L 240.27608 164.213958 
L 240.952443 164.386659 
L 241.628807 167.063814 
L 242.30517 167.008493 
L 242.981534 166.463196 
L 243.657898 166.887252 
L 244.334261 166.910252 
L 245.010625 167.962763 
L 245.686989 166.681478 
L 246.363352 167.175909 
L 247.039716 167.245556 
L 247.71608 168.843924 
L 248.392443 167.709087 
L 249.068807 168.158478 
L 249.74517 169.017948 
L 250.421534 167.592203 
L 251.097898 168.116261 
L 251.774261 167.660477 
L 253.126989 165.994739 
L 253.803352 166.959647 
L 254.479716 167.091176 
L 255.15608 166.721602 
L 255.832443 167.801531 
L 256.508807 167.452339 
L 257.18517 167.493911 
L 257.861534 166.976974 
L 258.537898 164.934127 
L 259.214261 165.345127 
L 259.890625 166.14828 
L 260.566989 166.617358 
L 261.919716 163.956945 
L 262.59608 163.966765 
L 263.272443 164.243007 
L 263.948807 164.33267 
L 264.62517 164.564122 
L 265.301534 164.054355 
L 265.977898 165.162294 
L 266.654261 164.311079 
L 267.330625 163.895203 
L 268.006989 162.229669 
L 268.683352 163.02108 
L 269.359716 163.191493 
L 270.03608 163.821427 
L 270.712443 164.095406 
L 271.388807 163.815524 
L 272.06517 163.811161 
L 272.741534 164.365739 
L 273.417898 164.153971 
L 274.094261 164.380678 
L 274.770625 163.315187 
L 275.446989 163.671799 
L 276.123352 162.34971 
L 276.799716 162.174869 
L 277.47608 163.137305 
L 278.152443 163.467982 
L 278.828807 164.097514 
L 279.50517 164.051731 
L 280.181534 163.19249 
L 280.857898 163.338166 
L 281.534261 163.609537 
L 282.210625 163.409286 
L 282.886989 162.704454 
L 283.563352 163.022985 
L 284.239716 163.529448 
L 284.91608 162.514471 
L 285.592443 161.906048 
L 286.268807 162.753296 
L 286.94517 163.801088 
L 287.621534 163.662423 
L 288.297898 162.76663 
L 288.974261 163.428382 
L 289.650625 163.457511 
L 290.326989 162.018732 
L 291.003352 163.01992 
L 291.679716 162.950906 
L 292.35608 162.106919 
L 293.708807 162.228724 
L 295.061534 162.468102 
L 295.737898 162.912715 
L 296.414261 162.77536 
L 297.090625 162.843327 
L 297.766989 163.355386 
L 298.443352 162.62776 
L 299.119716 162.306488 
L 299.79608 162.595105 
L 300.472443 163.279859 
L 301.148807 163.234508 
L 301.82517 161.797956 
L 302.501534 162.181096 
L 303.177898 163.30094 
L 303.854261 163.675187 
L 304.530625 163.380859 
L 305.206989 162.733879 
L 305.883352 163.610364 
L 306.559716 163.322777 
L 307.23608 163.352923 
L 307.912443 162.602164 
L 308.588807 163.122249 
L 309.26517 162.569941 
L 309.941534 163.908707 
L 310.617898 164.132175 
L 311.294261 164.182415 
L 311.970625 164.06866 
L 312.646989 164.587901 
L 313.323352 164.740009 
L 313.999716 164.282625 
L 315.352443 164.185717 
L 316.028807 164.616448 
L 316.70517 165.503936 
L 318.057898 165.766536 
L 319.410625 165.438424 
L 320.086989 165.165958 
L 321.439716 165.820635 
L 322.11608 166.698822 
L 322.792443 166.090311 
L 323.468807 166.546281 
L 324.14517 167.201853 
L 324.821534 166.721574 
L 326.174261 167.357401 
L 326.850625 166.925706 
L 327.526989 166.361246 
L 328.203352 166.196017 
L 328.879716 166.671504 
L 329.55608 166.873768 
L 330.232443 166.185705 
L 331.58517 164.468642 
L 332.261534 165.366566 
L 332.937898 165.737146 
L 334.290625 165.388637 
L 334.966989 166.118239 
L 335.643352 166.045435 
L 336.319716 165.651529 
L 336.99608 166.464095 
L 337.672443 165.812214 
L 338.348807 165.811342 
L 339.02517 166.233304 
L 339.701534 166.328533 
L 340.377898 166.183783 
L 341.054261 165.83156 
L 342.406989 165.619053 
L 343.083352 166.240895 
L 343.759716 166.331851 
L 344.43608 166.229317 
L 345.112443 166.537021 
L 345.788807 166.706569 
L 347.141534 166.056973 
L 347.817898 166.36659 
L 348.494261 167.259645 
L 349.170625 167.00779 
L 349.846989 167.161823 
L 350.523352 167.141942 
L 351.199716 167.917632 
L 351.87608 167.265631 
L 352.552443 167.629537 
L 353.228807 167.501643 
L 353.90517 168.160859 
L 355.257898 166.86691 
L 355.934261 166.920471 
L 356.610625 166.549066 
L 357.286989 167.038505 
L 357.963352 166.612435 
L 359.992443 167.228123 
L 360.668807 166.976342 
L 361.34517 166.452188 
L 362.021534 166.488802 
L 362.697898 166.091526 
L 363.374261 166.502338 
L 364.050625 166.560258 
L 364.726989 165.909882 
L 366.75608 166.006467 
L 368.108807 166.348677 
L 368.78517 166.322912 
L 370.137898 165.845957 
L 370.814261 166.437074 
L 371.490625 165.983663 
L 372.166989 166.38031 
L 374.19608 166.068 
L 374.872443 166.069951 
L 375.548807 166.237616 
L 376.22517 166.275353 
L 376.901534 166.559866 
L 377.577898 166.42806 
L 378.254261 165.903486 
L 378.930625 166.414469 
L 379.606989 165.688138 
L 380.283352 166.209658 
L 380.959716 166.443395 
L 381.63608 167.174898 
L 382.312443 166.546986 
L 382.988807 166.811977 
L 383.66517 166.533579 
L 384.341534 166.875147 
L 385.017898 167.081266 
L 386.370625 166.839537 
L 387.046989 166.368862 
L 388.399716 166.87614 
L 389.07608 166.808474 
L 389.752443 166.56272 
L 390.428807 166.009525 
L 391.10517 166.357339 
L 391.781534 166.028483 
L 392.457898 166.255005 
L 393.134261 166.696161 
L 393.810625 166.183707 
L 394.486989 166.003365 
L 395.163352 166.706365 
L 395.839716 166.21531 
L 396.51608 166.14197 
L 397.192443 165.532035 
L 397.868807 166.138229 
L 398.54517 165.987485 
L 399.221534 165.611724 
L 401.250625 166.712348 
L 401.926989 166.03513 
L 402.603352 165.851345 
L 403.279716 165.784352 
L 405.308807 166.055311 
L 406.661534 165.583788 
L 407.337898 165.646263 
L 408.014261 165.846987 
L 408.690625 165.521687 
L 409.366989 165.978731 
L 410.043352 166.035145 
L 410.719716 166.661504 
L 411.39608 166.760297 
L 413.42517 166.435477 
L 414.101534 166.783371 
L 414.777898 166.141324 
L 415.454261 165.874838 
L 416.130625 165.97542 
L 416.806989 166.270776 
L 417.483352 165.838433 
L 418.83608 165.769593 
L 420.188807 166.178324 
L 420.86517 166.191207 
L 421.541534 165.81833 
L 422.894261 166.51138 
L 423.570625 166.448924 
L 424.246989 166.241097 
L 426.952443 166.882604 
L 427.628807 166.459606 
L 428.30517 166.757516 
L 429.657898 166.516183 
L 430.334261 166.007551 
L 431.010625 166.12876 
L 432.363352 166.844733 
L 433.039716 166.274435 
L 433.71608 166.281576 
L 435.068807 166.711753 
L 435.74517 166.497263 
L 436.421534 166.610833 
L 437.097898 166.443589 
L 437.774261 166.729574 
L 438.450625 166.436764 
L 439.126989 166.704082 
L 439.803352 166.441254 
L 440.479716 166.890386 
L 441.15608 166.502654 
L 442.508807 166.926292 
L 443.18517 166.802534 
L 443.861534 166.976452 
L 444.537898 166.899472 
L 445.214261 166.984121 
L 445.890625 166.475711 
L 447.243352 166.278405 
L 447.919716 166.503053 
L 448.59608 166.569999 
L 449.272443 166.369568 
L 449.948807 166.852875 
L 450.62517 166.530569 
L 451.301534 167.047616 
L 451.977898 166.761014 
L 452.654261 166.88594 
L 454.006989 166.645192 
L 454.683352 166.825855 
L 455.359716 167.224149 
L 456.03608 167.398477 
L 457.388807 167.136946 
L 458.06517 167.250324 
L 459.417898 166.93557 
L 460.094261 167.181139 
L 461.446989 167.295278 
L 462.123352 167.000585 
L 462.799716 167.301564 
L 463.47608 166.535478 
L 464.152443 166.396558 
L 464.828807 166.434709 
L 465.50517 166.783238 
L 466.857898 166.731299 
L 467.534261 166.216886 
L 468.210625 166.566691 
L 468.886989 166.529329 
L 469.563352 166.719295 
L 470.239716 166.46481 
L 470.91608 166.682676 
L 471.592443 167.027086 
L 472.268807 166.683276 
L 472.94517 167.335819 
L 473.621534 167.091504 
L 474.297898 166.566761 
L 474.974261 166.988799 
L 475.650625 166.623194 
L 477.679716 166.675388 
L 478.35608 167.061763 
L 479.032443 166.723804 
L 480.38517 166.844911 
L 481.061534 166.961732 
L 482.414261 166.983111 
L 483.090625 166.841912 
L 483.766989 166.501931 
L 484.443352 167.418016 
L 485.119716 167.30157 
L 485.79608 167.366067 
L 487.148807 167.02388 
L 487.82517 167.390764 
L 488.501534 166.756981 
L 489.177898 167.057009 
L 490.530625 166.957972 
L 491.206989 167.276026 
L 491.883352 167.375123 
L 492.559716 166.84129 
L 494.588807 167.11316 
L 495.941534 166.971584 
L 496.617898 167.290888 
L 497.294261 167.066544 
L 497.970625 165.323307 
L 498.646989 166.545885 
L 499.323352 166.380095 
L 499.999716 166.350188 
L 500.67608 166.50404 
L 502.028807 166.555807 
L 502.70517 166.356261 
L 503.381534 166.793856 
L 504.057898 166.395077 
L 506.086989 166.557929 
L 506.763352 167.176148 
L 507.439716 166.286676 
L 508.11608 166.511268 
L 508.792443 166.462493 
L 510.14517 166.764231 
L 510.821534 166.130331 
L 511.497898 166.802709 
L 512.174261 166.742324 
L 513.526989 165.927039 
L 515.55608 166.933795 
L 516.908807 166.745378 
L 517.58517 166.369924 
L 518.261534 166.800786 
L 518.937898 166.995365 
L 519.614261 167.07098 
L 520.290625 166.816037 
L 520.966989 167.223374 
L 522.319716 167.362637 
L 522.99608 166.969143 
L 523.672443 166.753254 
L 524.348807 166.998402 
L 525.02517 166.382302 
L 525.701534 166.995114 
L 526.377898 167.874512 
L 527.054261 166.987137 
L 527.730625 166.825792 
L 529.083352 167.048812 
L 529.759716 166.644523 
L 530.43608 166.909597 
L 531.112443 166.632009 
L 531.788807 166.784255 
L 532.46517 166.544729 
L 533.141534 166.455566 
L 533.817898 166.537231 
L 534.494261 167.145024 
L 535.170625 166.201103 
L 535.846989 166.478157 
L 537.199716 166.526268 
L 537.87608 166.161988 
L 538.552443 166.0622 
L 539.228807 166.734352 
L 539.90517 167.214498 
L 540.581534 166.755575 
L 541.257898 166.973666 
L 541.934261 166.737883 
L 542.610625 167.536392 
L 543.286989 167.145261 
L 543.963352 166.919932 
L 544.639716 166.985462 
L 545.31608 166.843619 
L 545.992443 167.331072 
L 546.668807 167.095779 
L 547.34517 167.413069 
L 548.021534 167.981538 
L 548.697898 167.302931 
L 549.374261 167.114096 
L 550.050625 167.372238 
L 551.403352 167.021455 
L 552.079716 167.14747 
L 552.75608 167.058253 
L 553.432443 167.107391 
L 554.78517 166.768336 
L 555.461534 166.903449 
L 556.814261 166.860062 
L 557.490625 166.763995 
L 558.166989 167.353189 
L 558.843352 166.946869 
L 559.519716 166.896951 
L 560.19608 167.015569 
L 560.872443 166.461696 
L 562.22517 167.159127 
L 563.577898 166.939349 
L 564.254261 166.851717 
L 564.930625 166.907606 
L 565.606989 166.615213 
L 566.283352 166.527251 
L 566.959716 166.990676 
L 567.63608 167.131883 
L 568.312443 166.87159 
L 568.988807 167.064202 
L 570.341534 167.055898 
L 571.017898 167.200545 
L 571.694261 167.045965 
L 572.370625 167.141436 
L 573.046989 166.671473 
L 574.399716 167.15067 
L 575.752443 167.093419 
L 576.428807 166.961498 
L 577.10517 167.238443 
L 577.781534 167.067239 
L 578.457898 167.194622 
L 579.810625 166.997806 
L 580.486989 167.05962 
L 581.163352 167.288663 
L 581.839716 167.065158 
L 582.51608 167.092838 
L 583.868807 166.717651 
L 584.54517 166.926468 
L 585.221534 167.257168 
L 585.897898 166.84786 
L 586.574261 166.864819 
L 587.250625 167.268105 
L 589.279716 167.314542 
L 589.95608 167.11197 
L 590.632443 167.047703 
L 591.308807 167.417386 
L 591.98517 166.858553 
L 592.661534 166.975317 
L 593.337898 167.212109 
L 594.014261 166.952572 
L 594.690625 167.154298 
L 596.043352 166.886214 
L 596.719716 166.962463 
L 597.39608 166.795377 
L 598.072443 167.377051 
L 598.748807 167.534359 
L 599.42517 167.193189 
L 600.101534 167.395914 
L 600.777898 166.865444 
L 602.130625 167.310023 
L 602.806989 167.143646 
L 603.483352 167.839257 
L 604.159716 167.391751 
L 604.83608 167.624121 
L 605.512443 167.266595 
L 608.217898 167.197231 
L 608.894261 167.238835 
L 610.246989 167.601499 
L 610.923352 167.566912 
L 611.599716 167.343159 
L 612.27608 167.627105 
L 612.952443 167.185018 
L 614.981534 167.75358 
L 615.657898 167.193165 
L 617.010625 167.345123 
L 617.686989 167.275755 
L 618.363352 167.33833 
L 619.039716 167.218481 
L 619.71608 167.524625 
L 620.392443 167.485847 
L 621.068807 167.146254 
L 621.74517 166.934059 
L 622.421534 167.598699 
L 623.097898 167.195997 
L 623.774261 167.07312 
L 624.450625 167.231047 
L 625.126989 167.088166 
L 625.126989 167.088166 
" clip-path="url(#p9cbd85a095)" style="fill: none; stroke: #1f77b4; stroke-width: 1.5; stroke-linecap: square"/>
   </g>
   <g id="line2d_16">
    <path d="M 117.854261 279.873572 
L 118.530625 296.03625 
L 119.206989 229.281287 
L 119.883352 236.122226 
L 120.559716 248.683705 
L 121.23608 218.367146 
L 121.912443 218.400539 
L 122.588807 211.195002 
L 123.26517 212.309144 
L 123.941534 198.962672 
L 124.617898 190.346982 
L 125.294261 196.462808 
L 125.970625 197.599644 
L 126.646989 188.094759 
L 127.323352 190.045917 
L 127.999716 186.494612 
L 128.67608 182.039231 
L 129.352443 184.063975 
L 130.028807 178.165499 
L 130.70517 185.158377 
L 131.381534 189.378565 
L 132.057898 176.672747 
L 133.410625 183.472574 
L 134.086989 179.997455 
L 134.763352 178.764802 
L 135.439716 179.431397 
L 136.11608 182.701853 
L 136.792443 182.914498 
L 137.468807 180.090675 
L 138.14517 177.760056 
L 138.821534 179.800106 
L 139.497898 178.200928 
L 140.174261 177.564652 
L 140.850625 182.456204 
L 141.526989 180.002798 
L 142.203352 180.160606 
L 142.879716 177.633725 
L 143.55608 171.751738 
L 144.232443 175.715035 
L 144.908807 176.917602 
L 145.58517 180.125995 
L 146.261534 180.754979 
L 146.937898 181.196825 
L 147.614261 177.825646 
L 148.290625 172.58093 
L 148.966989 176.092026 
L 149.643352 173.568487 
L 150.319716 176.855695 
L 150.99608 172.650635 
L 151.672443 173.922036 
L 152.348807 173.975875 
L 153.02517 176.504977 
L 153.701534 175.221635 
L 154.377898 174.523708 
L 155.054261 174.930204 
L 155.730625 173.528425 
L 156.406989 173.39019 
L 157.083352 173.696387 
L 157.759716 172.941273 
L 158.43608 173.272394 
L 159.112443 172.507198 
L 159.788807 171.465539 
L 160.46517 173.366213 
L 161.141534 174.304074 
L 161.817898 173.084636 
L 163.170625 171.892487 
L 163.846989 173.810638 
L 164.523352 171.464085 
L 165.199716 172.166575 
L 165.87608 171.781889 
L 166.552443 173.27443 
L 167.228807 173.75368 
L 167.90517 172.98322 
L 168.581534 172.752532 
L 169.257898 171.319888 
L 169.934261 172.930911 
L 170.610625 172.60628 
L 171.286989 172.42504 
L 171.963352 172.06188 
L 172.639716 172.467343 
L 173.31608 173.41976 
L 173.992443 172.478722 
L 174.668807 172.219409 
L 175.34517 172.697218 
L 176.021534 171.90948 
L 176.697898 172.378783 
L 177.374261 171.586432 
L 178.050625 171.869044 
L 178.726989 171.526817 
L 179.403352 170.921173 
L 180.079716 171.461252 
L 180.75608 171.83602 
L 181.432443 171.57401 
L 182.108807 170.570799 
L 182.78517 170.899908 
L 183.461534 170.631288 
L 184.137898 170.626831 
L 184.814261 171.536026 
L 185.490625 171.903319 
L 186.166989 171.117061 
L 186.843352 170.543677 
L 187.519716 170.406881 
L 188.19608 171.779958 
L 188.872443 171.60602 
L 189.548807 170.761067 
L 190.22517 171.723131 
L 190.901534 172.054827 
L 191.577898 171.475037 
L 192.254261 172.41331 
L 192.930625 170.467703 
L 193.606989 170.643053 
L 194.283352 171.659859 
L 194.959716 172.318618 
L 195.63608 171.77277 
L 196.312443 170.608154 
L 196.988807 170.90237 
L 197.66517 170.988016 
L 198.341534 171.349299 
L 199.017898 171.397261 
L 199.694261 170.114963 
L 200.370625 170.751939 
L 201.046989 170.629996 
L 201.723352 170.773039 
L 202.399716 169.586336 
L 203.07608 171.048779 
L 203.752443 172.064358 
L 204.428807 170.821795 
L 205.10517 170.186214 
L 205.781534 171.034565 
L 206.457898 170.430537 
L 207.134261 170.719736 
L 207.810625 170.830545 
L 209.163352 170.704124 
L 211.192443 171.807075 
L 211.868807 170.82302 
L 212.54517 170.941997 
L 213.221534 170.739885 
L 213.897898 171.1053 
L 215.250625 170.846343 
L 215.926989 170.275569 
L 216.603352 171.007003 
L 217.279716 170.317854 
L 217.95608 170.045591 
L 218.632443 170.058158 
L 219.308807 169.565035 
L 219.98517 171.321042 
L 220.661534 170.030748 
L 221.337898 170.162693 
L 222.014261 170.965113 
L 222.690625 171.410399 
L 223.366989 170.487894 
L 224.043352 170.52781 
L 224.719716 170.74821 
L 225.39608 170.162101 
L 226.072443 170.190171 
L 227.42517 171.636929 
L 228.101534 170.866164 
L 228.777898 170.810881 
L 230.130625 171.681934 
L 230.806989 170.616611 
L 231.483352 170.565592 
L 232.159716 171.141648 
L 232.83608 170.184501 
L 233.512443 171.161076 
L 234.188807 170.901531 
L 234.86517 170.791018 
L 235.541534 171.147726 
L 236.217898 171.722995 
L 236.894261 172.623044 
L 237.570625 171.459207 
L 238.246989 171.681699 
L 238.923352 171.57636 
L 239.599716 172.06863 
L 240.27608 171.753699 
L 240.952443 172.544106 
L 241.628807 171.423933 
L 242.30517 171.005426 
L 242.981534 171.843317 
L 244.334261 171.640797 
L 245.686989 172.14075 
L 247.039716 172.954871 
L 247.71608 172.450178 
L 248.392443 172.095974 
L 249.068807 172.188807 
L 249.74517 173.760838 
L 250.421534 172.562795 
L 251.774261 173.052606 
L 252.450625 172.443163 
L 253.126989 173.142692 
L 253.803352 172.775511 
L 255.15608 173.084929 
L 255.832443 173.920099 
L 256.508807 173.144824 
L 257.18517 172.101883 
L 257.861534 172.398162 
L 258.537898 172.541096 
L 259.214261 172.803393 
L 259.890625 172.85655 
L 260.566989 172.351432 
L 261.243352 171.509069 
L 261.919716 171.321223 
L 262.59608 171.419382 
L 263.272443 171.285774 
L 263.948807 172.108168 
L 265.301534 171.253369 
L 265.977898 171.974652 
L 266.654261 172.49078 
L 267.330625 172.608069 
L 268.006989 173.112575 
L 268.683352 172.269899 
L 269.359716 171.918521 
L 270.03608 172.153425 
L 270.712443 172.02884 
L 271.388807 172.719266 
L 272.741534 172.177208 
L 273.417898 172.423473 
L 274.094261 172.513332 
L 274.770625 172.845066 
L 275.446989 172.658453 
L 276.123352 171.245621 
L 276.799716 172.38168 
L 277.47608 172.28215 
L 278.152443 173.372593 
L 278.828807 172.186195 
L 279.50517 172.165862 
L 280.857898 172.337176 
L 282.210625 171.738366 
L 282.886989 171.665087 
L 283.563352 172.437338 
L 284.239716 172.733014 
L 284.91608 172.696569 
L 285.592443 172.782286 
L 286.268807 172.151995 
L 286.94517 172.602721 
L 288.297898 172.812256 
L 288.974261 172.508644 
L 289.650625 172.662115 
L 290.326989 172.388833 
L 291.003352 172.616574 
L 291.679716 172.498701 
L 292.35608 172.122567 
L 293.032443 172.47289 
L 293.708807 172.364584 
L 295.061534 172.871487 
L 295.737898 172.517568 
L 297.090625 172.59048 
L 298.443352 172.624459 
L 299.119716 173.175465 
L 299.79608 172.992484 
L 300.472443 172.353261 
L 301.148807 172.5161 
L 301.82517 172.116873 
L 302.501534 171.884285 
L 303.177898 172.097075 
L 303.854261 172.109714 
L 304.530625 171.864138 
L 305.206989 171.240428 
L 305.883352 171.567323 
L 306.559716 172.146654 
L 307.23608 171.994954 
L 307.912443 171.425419 
L 310.617898 171.522025 
L 311.294261 171.31688 
L 311.970625 171.770494 
L 312.646989 171.386278 
L 313.323352 171.928892 
L 313.999716 171.259012 
L 314.67608 171.4512 
L 315.352443 170.369318 
L 316.028807 170.40821 
L 316.70517 171.24932 
L 318.057898 171.645808 
L 318.734261 171.432089 
L 319.410625 170.870355 
L 320.086989 170.705431 
L 321.439716 171.496114 
L 322.11608 171.357391 
L 322.792443 171.090043 
L 324.14517 171.195128 
L 324.821534 170.567788 
L 325.497898 171.1952 
L 326.174261 171.372187 
L 327.526989 171.282026 
L 328.203352 171.504699 
L 328.879716 171.413546 
L 329.55608 171.482663 
L 330.232443 171.283417 
L 330.908807 170.488237 
L 331.58517 170.14749 
L 332.261534 170.217916 
L 332.937898 170.620474 
L 333.614261 170.588689 
L 334.290625 170.770071 
L 334.966989 171.479387 
L 335.643352 171.577134 
L 337.672443 169.732971 
L 339.02517 170.853654 
L 339.701534 171.834664 
L 341.054261 169.863961 
L 341.730625 170.01213 
L 342.406989 170.679295 
L 343.083352 170.809484 
L 343.759716 170.373653 
L 344.43608 170.646982 
L 345.112443 170.706901 
L 345.788807 171.397387 
L 346.46517 171.649515 
L 347.141534 170.914472 
L 348.494261 171.327974 
L 349.170625 171.237939 
L 349.846989 171.673736 
L 351.199716 171.156738 
L 351.87608 171.678756 
L 352.552443 171.908632 
L 353.228807 171.920126 
L 353.90517 172.136642 
L 354.581534 171.43629 
L 355.257898 172.067896 
L 355.934261 171.752724 
L 356.610625 171.255918 
L 357.286989 171.689928 
L 357.963352 171.761018 
L 358.639716 171.126637 
L 359.31608 171.644371 
L 359.992443 171.762199 
L 360.668807 171.024279 
L 361.34517 170.619721 
L 362.697898 171.182932 
L 363.374261 171.228709 
L 364.050625 172.165991 
L 364.726989 170.488334 
L 365.403352 170.738428 
L 366.75608 170.361173 
L 368.108807 170.765861 
L 368.78517 170.67092 
L 369.461534 170.332637 
L 370.137898 170.253046 
L 371.490625 170.94447 
L 372.166989 170.847824 
L 374.19608 170.808926 
L 374.872443 170.111458 
L 375.548807 170.489234 
L 376.22517 170.271381 
L 376.901534 170.959132 
L 377.577898 170.820191 
L 378.254261 170.369069 
L 378.930625 170.638293 
L 380.283352 170.1911 
L 380.959716 170.466663 
L 381.63608 170.581859 
L 382.312443 171.227926 
L 382.988807 170.580491 
L 383.66517 170.653676 
L 384.341534 170.451126 
L 385.017898 170.944141 
L 387.046989 170.110239 
L 387.723352 170.330278 
L 388.399716 171.00966 
L 389.752443 170.360234 
L 391.10517 170.717318 
L 391.781534 170.471237 
L 392.457898 170.075147 
L 393.134261 170.575221 
L 393.810625 170.607303 
L 394.486989 171.228849 
L 395.839716 170.540423 
L 396.51608 170.754063 
L 397.192443 170.564182 
L 397.868807 170.554935 
L 398.54517 170.878559 
L 399.221534 171.075504 
L 400.574261 170.495544 
L 401.250625 170.914215 
L 401.926989 170.258211 
L 402.603352 170.444911 
L 403.279716 171.156295 
L 403.95608 170.631476 
L 404.632443 170.687671 
L 405.308807 170.969143 
L 405.98517 171.027482 
L 406.661534 170.651871 
L 407.337898 171.264681 
L 408.014261 170.833352 
L 408.690625 171.104245 
L 409.366989 171.049843 
L 410.043352 170.797557 
L 410.719716 171.194854 
L 411.39608 170.688947 
L 412.072443 170.853175 
L 414.101534 170.609858 
L 414.777898 170.932736 
L 415.454261 170.881473 
L 417.483352 171.164751 
L 418.159716 171.039106 
L 418.83608 171.263688 
L 420.188807 170.682666 
L 420.86517 171.0841 
L 421.541534 170.865254 
L 422.217898 170.919221 
L 423.570625 169.970601 
L 424.246989 170.716222 
L 426.27608 170.824175 
L 426.952443 171.040578 
L 427.628807 170.842447 
L 428.30517 171.139937 
L 428.981534 170.725562 
L 429.657898 170.723661 
L 430.334261 171.404812 
L 431.010625 171.520254 
L 431.686989 171.04479 
L 432.363352 171.109308 
L 433.039716 170.499166 
L 433.71608 170.538778 
L 434.392443 170.372335 
L 435.068807 170.553715 
L 435.74517 170.509947 
L 436.421534 170.322723 
L 437.097898 170.603899 
L 437.774261 170.523176 
L 438.450625 171.179263 
L 439.126989 170.524289 
L 439.803352 170.359959 
L 440.479716 170.562681 
L 442.508807 170.824989 
L 443.18517 171.195004 
L 443.861534 170.871304 
L 444.537898 170.723989 
L 446.566989 170.931994 
L 447.243352 170.610474 
L 448.59608 170.723797 
L 449.272443 170.663586 
L 449.948807 170.220067 
L 450.62517 170.623727 
L 451.301534 170.470245 
L 451.977898 170.651572 
L 453.330625 170.687737 
L 454.006989 170.913263 
L 454.683352 171.407915 
L 455.359716 171.001143 
L 456.03608 171.088535 
L 456.712443 170.53874 
L 457.388807 170.487934 
L 458.06517 170.994191 
L 458.741534 170.748104 
L 459.417898 170.35788 
L 460.094261 170.819966 
L 462.799716 170.541169 
L 463.47608 171.107514 
L 464.152443 171.014682 
L 464.828807 170.751041 
L 465.50517 171.028125 
L 466.181534 170.895951 
L 466.857898 171.079823 
L 467.534261 170.895905 
L 468.886989 171.318046 
L 469.563352 171.257973 
L 470.239716 170.889967 
L 470.91608 171.1763 
L 471.592443 170.916294 
L 472.268807 171.377944 
L 472.94517 171.162762 
L 473.621534 171.180479 
L 474.297898 170.558245 
L 474.974261 171.138559 
L 475.650625 171.548957 
L 476.326989 171.032995 
L 477.003352 171.463148 
L 477.679716 170.882761 
L 478.35608 170.59282 
L 479.032443 171.253108 
L 479.708807 170.78524 
L 480.38517 171.021826 
L 481.737898 170.645328 
L 482.414261 171.000515 
L 483.090625 170.860525 
L 484.443352 171.094552 
L 485.119716 170.364914 
L 485.79608 170.866997 
L 486.472443 170.831859 
L 487.148807 171.290416 
L 487.82517 171.293254 
L 488.501534 170.908916 
L 489.177898 171.048758 
L 489.854261 170.913447 
L 490.530625 171.070581 
L 491.206989 170.749205 
L 492.559716 170.848254 
L 493.23608 170.962731 
L 494.588807 170.782693 
L 495.26517 170.933034 
L 495.941534 170.949966 
L 496.617898 171.301036 
L 497.294261 169.332539 
L 497.970625 169.926711 
L 499.323352 170.49499 
L 500.67608 170.405228 
L 502.70517 170.811339 
L 503.381534 170.612967 
L 504.057898 170.642198 
L 504.734261 170.455008 
L 505.410625 170.731423 
L 506.763352 170.809703 
L 507.439716 170.577778 
L 508.11608 170.505986 
L 508.792443 170.677812 
L 510.821534 170.609635 
L 511.497898 170.225772 
L 512.174261 170.528325 
L 512.850625 170.568146 
L 513.526989 170.439006 
L 514.203352 170.782697 
L 514.879716 170.641427 
L 515.55608 170.035326 
L 516.232443 170.041078 
L 516.908807 170.726867 
L 517.58517 171.248826 
L 518.261534 170.746982 
L 519.614261 170.667659 
L 520.290625 170.477283 
L 520.966989 171.042017 
L 521.643352 170.825114 
L 522.319716 171.00509 
L 522.99608 171.56915 
L 523.672443 171.049443 
L 524.348807 170.327246 
L 525.02517 170.535135 
L 525.701534 170.962961 
L 526.377898 170.77303 
L 527.054261 170.441492 
L 527.730625 170.657906 
L 528.406989 170.720379 
L 529.083352 170.290958 
L 529.759716 170.997113 
L 530.43608 170.501205 
L 531.112443 171.006051 
L 531.788807 170.707502 
L 532.46517 170.674827 
L 533.141534 170.45803 
L 533.817898 170.61639 
L 534.494261 172.325143 
L 535.170625 171.185924 
L 535.846989 171.618554 
L 536.523352 170.854029 
L 537.199716 170.917794 
L 537.87608 171.271686 
L 538.552443 170.88346 
L 539.228807 171.182975 
L 540.581534 170.945011 
L 541.257898 170.78515 
L 541.934261 171.311183 
L 542.610625 171.256314 
L 543.286989 170.719517 
L 543.963352 171.386026 
L 544.639716 170.838861 
L 545.992443 171.202269 
L 546.668807 170.874266 
L 547.34517 170.84593 
L 548.021534 170.54823 
L 548.697898 170.867128 
L 550.050625 170.53779 
L 550.726989 170.924849 
L 551.403352 171.054051 
L 552.079716 171.547175 
L 552.75608 170.712395 
L 553.432443 170.824263 
L 554.108807 171.641213 
L 554.78517 171.108665 
L 555.461534 171.620599 
L 556.137898 171.096028 
L 556.814261 171.280202 
L 557.490625 170.916987 
L 558.166989 171.126795 
L 558.843352 171.162409 
L 559.519716 170.940667 
L 560.19608 171.351826 
L 560.872443 170.151216 
L 561.548807 170.686556 
L 562.22517 170.974301 
L 562.901534 170.84513 
L 563.577898 171.255612 
L 566.283352 171.129073 
L 566.959716 170.605783 
L 567.63608 170.924165 
L 568.988807 170.892578 
L 569.66517 171.174157 
L 572.370625 171.039056 
L 573.046989 170.75442 
L 573.723352 170.972632 
L 574.399716 170.780145 
L 575.07608 171.070128 
L 575.752443 170.743612 
L 576.428807 170.932481 
L 577.781534 170.893091 
L 579.810625 170.910405 
L 580.486989 170.771546 
L 581.163352 170.408399 
L 581.839716 170.846615 
L 583.192443 171.151511 
L 583.868807 171.363946 
L 584.54517 171.270962 
L 585.221534 170.580653 
L 585.897898 171.562097 
L 586.574261 170.570145 
L 587.250625 171.126438 
L 587.926989 171.103101 
L 588.603352 170.853095 
L 589.279716 170.920671 
L 589.95608 170.615124 
L 590.632443 170.682173 
L 591.308807 170.591477 
L 591.98517 170.385041 
L 592.661534 170.625611 
L 593.337898 170.422309 
L 594.014261 170.678709 
L 594.690625 170.575004 
L 596.719716 169.848171 
L 597.39608 170.460824 
L 598.072443 170.255669 
L 598.748807 171.026152 
L 599.42517 170.522831 
L 600.101534 170.536451 
L 600.777898 170.135789 
L 601.454261 170.098764 
L 603.483352 170.710914 
L 604.159716 170.414901 
L 604.83608 170.63194 
L 605.512443 170.129311 
L 606.188807 170.130603 
L 607.541534 169.887663 
L 608.217898 169.874953 
L 608.894261 170.316266 
L 609.570625 170.502616 
L 610.923352 170.119472 
L 611.599716 170.159134 
L 612.27608 170.662215 
L 613.628807 170.279717 
L 614.981534 170.34651 
L 615.657898 170.069146 
L 616.334261 170.374545 
L 617.010625 170.491802 
L 617.686989 170.216185 
L 618.363352 170.749537 
L 619.039716 170.813786 
L 619.71608 170.617648 
L 620.392443 170.661828 
L 621.068807 170.133418 
L 621.74517 170.464369 
L 622.421534 170.979377 
L 624.450625 170.197248 
L 625.126989 170.520642 
L 625.126989 170.520642 
" clip-path="url(#p9cbd85a095)" style="fill: none; stroke: #ff7f0e; stroke-width: 1.5; stroke-linecap: square"/>
   </g>
   <g id="patch_3">
    <path d="M 92.490625 308.63625 
L 92.490625 31.43625 
" style="fill: none; stroke: #000000; stroke-width: 0.8; stroke-linejoin: miter; stroke-linecap: square"/>
   </g>
   <g id="patch_4">
    <path d="M 650.490625 308.63625 
L 650.490625 31.43625 
" style="fill: none; stroke: #000000; stroke-width: 0.8; stroke-linejoin: miter; stroke-linecap: square"/>
   </g>
   <g id="patch_5">
    <path d="M 92.490625 308.63625 
L 650.490625 308.63625 
" style="fill: none; stroke: #000000; stroke-width: 0.8; stroke-linejoin: miter; stroke-linecap: square"/>
   </g>
   <g id="patch_6">
    <path d="M 92.490625 31.43625 
L 650.490625 31.43625 
" style="fill: none; stroke: #000000; stroke-width: 0.8; stroke-linejoin: miter; stroke-linecap: square"/>
   </g>
   <g id="text_17">
    <!-- Generator and Discriminator Loss During Training -->
    <g transform="translate(74.258125 25.43625) scale(0.24 -0.24)">
     <defs>
      <path id="DejaVuSans-47" d="M 3809 666 
L 3809 1919 
L 2778 1919 
L 2778 2438 
L 4434 2438 
L 4434 434 
Q 4069 175 3628 42 
Q 3188 -91 2688 -91 
Q 1594 -91 976 548 
Q 359 1188 359 2328 
Q 359 3472 976 4111 
Q 1594 4750 2688 4750 
Q 3144 4750 3555 4637 
Q 3966 4525 4313 4306 
L 4313 3634 
Q 3963 3931 3569 4081 
Q 3175 4231 2741 4231 
Q 1884 4231 1454 3753 
Q 1025 3275 1025 2328 
Q 1025 1384 1454 906 
Q 1884 428 2741 428 
Q 3075 428 3337 486 
Q 3600 544 3809 666 
z
" transform="scale(0.015625)"/>
      <path id="DejaVuSans-20" transform="scale(0.015625)"/>
      <path id="DejaVuSans-64" d="M 2906 2969 
L 2906 4863 
L 3481 4863 
L 3481 0 
L 2906 0 
L 2906 525 
Q 2725 213 2448 61 
Q 2172 -91 1784 -91 
Q 1150 -91 751 415 
Q 353 922 353 1747 
Q 353 2572 751 3078 
Q 1150 3584 1784 3584 
Q 2172 3584 2448 3432 
Q 2725 3281 2906 2969 
z
M 947 1747 
Q 947 1113 1208 752 
Q 1469 391 1925 391 
Q 2381 391 2643 752 
Q 2906 1113 2906 1747 
Q 2906 2381 2643 2742 
Q 2381 3103 1925 3103 
Q 1469 3103 1208 2742 
Q 947 2381 947 1747 
z
" transform="scale(0.015625)"/>
      <path id="DejaVuSans-44" d="M 1259 4147 
L 1259 519 
L 2022 519 
Q 2988 519 3436 956 
Q 3884 1394 3884 2338 
Q 3884 3275 3436 3711 
Q 2988 4147 2022 4147 
L 1259 4147 
z
M 628 4666 
L 1925 4666 
Q 3281 4666 3915 4102 
Q 4550 3538 4550 2338 
Q 4550 1131 3912 565 
Q 3275 0 1925 0 
L 628 0 
L 628 4666 
z
" transform="scale(0.015625)"/>
      <path id="DejaVuSans-63" d="M 3122 3366 
L 3122 2828 
Q 2878 2963 2633 3030 
Q 2388 3097 2138 3097 
Q 1578 3097 1268 2742 
Q 959 2388 959 1747 
Q 959 1106 1268 751 
Q 1578 397 2138 397 
Q 2388 397 2633 464 
Q 2878 531 3122 666 
L 3122 134 
Q 2881 22 2623 -34 
Q 2366 -91 2075 -91 
Q 1284 -91 818 406 
Q 353 903 353 1747 
Q 353 2603 823 3093 
Q 1294 3584 2113 3584 
Q 2378 3584 2631 3529 
Q 2884 3475 3122 3366 
z
" transform="scale(0.015625)"/>
      <path id="DejaVuSans-6d" d="M 3328 2828 
Q 3544 3216 3844 3400 
Q 4144 3584 4550 3584 
Q 5097 3584 5394 3201 
Q 5691 2819 5691 2113 
L 5691 0 
L 5113 0 
L 5113 2094 
Q 5113 2597 4934 2840 
Q 4756 3084 4391 3084 
Q 3944 3084 3684 2787 
Q 3425 2491 3425 1978 
L 3425 0 
L 2847 0 
L 2847 2094 
Q 2847 2600 2669 2842 
Q 2491 3084 2119 3084 
Q 1678 3084 1418 2786 
Q 1159 2488 1159 1978 
L 1159 0 
L 581 0 
L 581 3500 
L 1159 3500 
L 1159 2956 
Q 1356 3278 1631 3431 
Q 1906 3584 2284 3584 
Q 2666 3584 2933 3390 
Q 3200 3197 3328 2828 
z
" transform="scale(0.015625)"/>
      <path id="DejaVuSans-75" d="M 544 1381 
L 544 3500 
L 1119 3500 
L 1119 1403 
Q 1119 906 1312 657 
Q 1506 409 1894 409 
Q 2359 409 2629 706 
Q 2900 1003 2900 1516 
L 2900 3500 
L 3475 3500 
L 3475 0 
L 2900 0 
L 2900 538 
Q 2691 219 2414 64 
Q 2138 -91 1772 -91 
Q 1169 -91 856 284 
Q 544 659 544 1381 
z
M 1991 3584 
L 1991 3584 
z
" transform="scale(0.015625)"/>
      <path id="DejaVuSans-67" d="M 2906 1791 
Q 2906 2416 2648 2759 
Q 2391 3103 1925 3103 
Q 1463 3103 1205 2759 
Q 947 2416 947 1791 
Q 947 1169 1205 825 
Q 1463 481 1925 481 
Q 2391 481 2648 825 
Q 2906 1169 2906 1791 
z
M 3481 434 
Q 3481 -459 3084 -895 
Q 2688 -1331 1869 -1331 
Q 1566 -1331 1297 -1286 
Q 1028 -1241 775 -1147 
L 775 -588 
Q 1028 -725 1275 -790 
Q 1522 -856 1778 -856 
Q 2344 -856 2625 -561 
Q 2906 -266 2906 331 
L 2906 616 
Q 2728 306 2450 153 
Q 2172 0 1784 0 
Q 1141 0 747 490 
Q 353 981 353 1791 
Q 353 2603 747 3093 
Q 1141 3584 1784 3584 
Q 2172 3584 2450 3431 
Q 2728 3278 2906 2969 
L 2906 3500 
L 3481 3500 
L 3481 434 
z
" transform="scale(0.015625)"/>
      <path id="DejaVuSans-54" d="M -19 4666 
L 3928 4666 
L 3928 4134 
L 2272 4134 
L 2272 0 
L 1638 0 
L 1638 4134 
L -19 4134 
L -19 4666 
z
" transform="scale(0.015625)"/>
     </defs>
     <use xlink:href="#DejaVuSans-47"/>
     <use xlink:href="#DejaVuSans-65" x="77.490234"/>
     <use xlink:href="#DejaVuSans-6e" x="139.013672"/>
     <use xlink:href="#DejaVuSans-65" x="202.392578"/>
     <use xlink:href="#DejaVuSans-72" x="263.916016"/>
     <use xlink:href="#DejaVuSans-61" x="305.029297"/>
     <use xlink:href="#DejaVuSans-74" x="366.308594"/>
     <use xlink:href="#DejaVuSans-6f" x="405.517578"/>
     <use xlink:href="#DejaVuSans-72" x="466.699219"/>
     <use xlink:href="#DejaVuSans-20" x="507.8125"/>
     <use xlink:href="#DejaVuSans-61" x="539.599609"/>
     <use xlink:href="#DejaVuSans-6e" x="600.878906"/>
     <use xlink:href="#DejaVuSans-64" x="664.257812"/>
     <use xlink:href="#DejaVuSans-20" x="727.734375"/>
     <use xlink:href="#DejaVuSans-44" x="759.521484"/>
     <use xlink:href="#DejaVuSans-69" x="836.523438"/>
     <use xlink:href="#DejaVuSans-73" x="864.306641"/>
     <use xlink:href="#DejaVuSans-63" x="916.40625"/>
     <use xlink:href="#DejaVuSans-72" x="971.386719"/>
     <use xlink:href="#DejaVuSans-69" x="1012.5"/>
     <use xlink:href="#DejaVuSans-6d" x="1040.283203"/>
     <use xlink:href="#DejaVuSans-69" x="1137.695312"/>
     <use xlink:href="#DejaVuSans-6e" x="1165.478516"/>
     <use xlink:href="#DejaVuSans-61" x="1228.857422"/>
     <use xlink:href="#DejaVuSans-74" x="1290.136719"/>
     <use xlink:href="#DejaVuSans-6f" x="1329.345703"/>
     <use xlink:href="#DejaVuSans-72" x="1390.527344"/>
     <use xlink:href="#DejaVuSans-20" x="1431.640625"/>
     <use xlink:href="#DejaVuSans-4c" x="1463.427734"/>
     <use xlink:href="#DejaVuSans-6f" x="1517.390625"/>
     <use xlink:href="#DejaVuSans-73" x="1578.572266"/>
     <use xlink:href="#DejaVuSans-73" x="1630.671875"/>
     <use xlink:href="#DejaVuSans-20" x="1682.771484"/>
     <use xlink:href="#DejaVuSans-44" x="1714.558594"/>
     <use xlink:href="#DejaVuSans-75" x="1791.560547"/>
     <use xlink:href="#DejaVuSans-72" x="1854.939453"/>
     <use xlink:href="#DejaVuSans-69" x="1896.052734"/>
     <use xlink:href="#DejaVuSans-6e" x="1923.835938"/>
     <use xlink:href="#DejaVuSans-67" x="1987.214844"/>
     <use xlink:href="#DejaVuSans-20" x="2050.691406"/>
     <use xlink:href="#DejaVuSans-54" x="2082.478516"/>
     <use xlink:href="#DejaVuSans-72" x="2128.8125"/>
     <use xlink:href="#DejaVuSans-61" x="2169.925781"/>
     <use xlink:href="#DejaVuSans-69" x="2231.205078"/>
     <use xlink:href="#DejaVuSans-6e" x="2258.988281"/>
     <use xlink:href="#DejaVuSans-69" x="2322.367188"/>
     <use xlink:href="#DejaVuSans-6e" x="2350.150391"/>
     <use xlink:href="#DejaVuSans-67" x="2413.529297"/>
    </g>
   </g>
   <g id="legend_1">
    <g id="patch_7">
     <path d="M 556.99375 106.14875 
L 636.490625 106.14875 
Q 640.490625 106.14875 640.490625 102.14875 
L 640.490625 45.43625 
Q 640.490625 41.43625 636.490625 41.43625 
L 556.99375 41.43625 
Q 552.99375 41.43625 552.99375 45.43625 
L 552.99375 102.14875 
Q 552.99375 106.14875 556.99375 106.14875 
z
" style="fill: #ffffff; opacity: 0.8; stroke: #cccccc; stroke-linejoin: miter"/>
    </g>
    <g id="line2d_17">
     <path d="M 560.99375 57.633125 
L 580.99375 57.633125 
L 600.99375 57.633125 
" style="fill: none; stroke: #1f77b4; stroke-width: 1.5; stroke-linecap: square"/>
    </g>
    <g id="text_18">
     <!-- G -->
     <g transform="translate(616.99375 64.633125) scale(0.2 -0.2)">
      <use xlink:href="#DejaVuSans-47"/>
     </g>
    </g>
    <g id="line2d_18">
     <path d="M 560.99375 86.989375 
L 580.99375 86.989375 
L 600.99375 86.989375 
" style="fill: none; stroke: #ff7f0e; stroke-width: 1.5; stroke-linecap: square"/>
    </g>
    <g id="text_19">
     <!-- D -->
     <g transform="translate(616.99375 93.989375) scale(0.2 -0.2)">
      <use xlink:href="#DejaVuSans-44"/>
     </g>
    </g>
   </g>
  </g>
 </g>
 <defs>
  <clipPath id="p9cbd85a095">
   <rect x="92.490625" y="31.43625" width="558" height="277.2"/>
  </clipPath>
 </defs>
</svg>
