<?xml version="1.0" encoding="utf-8" standalone="no"?>
<!DOCTYPE svg PUBLIC "-//W3C//DTD SVG 1.1//EN"
  "http://www.w3.org/Graphics/SVG/1.1/DTD/svg11.dtd">
<svg xmlns:xlink="http://www.w3.org/1999/xlink" width="676.564867pt" height="365.54875pt" viewBox="0 0 676.564867 365.54875" xmlns="http://www.w3.org/2000/svg" version="1.1">
 <metadata>
  <rdf:RDF xmlns:dc="http://purl.org/dc/elements/1.1/" xmlns:cc="http://creativecommons.org/ns#" xmlns:rdf="http://www.w3.org/1999/02/22-rdf-syntax-ns#">
   <cc:Work>
    <dc:type rdf:resource="http://purl.org/dc/dcmitype/StillImage"/>
    <dc:date>2024-02-02T19:23:37.519084</dc:date>
    <dc:format>image/svg+xml</dc:format>
    <dc:creator>
     <cc:Agent>
      <dc:title>Matplotlib v3.7.2, https://matplotlib.org/</dc:title>
     </cc:Agent>
    </dc:creator>
   </cc:Work>
  </rdf:RDF>
 </metadata>
 <defs>
  <style type="text/css">*{stroke-linejoin: round; stroke-linecap: butt}</style>
 </defs>
 <g id="figure_1">
  <g id="patch_1">
   <path d="M 0 365.54875 
L 676.564867 365.54875 
L 676.564867 -0 
L 0 -0 
z
" style="fill: #ffffff"/>
  </g>
  <g id="axes_1">
   <g id="patch_2">
    <path d="M 92.490625 308.63625 
L 650.490625 308.63625 
L 650.490625 31.43625 
L 92.490625 31.43625 
z
" style="fill: #ffffff"/>
   </g>
   <g id="matplotlib.axis_1">
    <g id="xtick_1">
     <g id="line2d_1">
      <defs>
       <path id="m190c72aa3a" d="M 0 0 
L 0 3.5 
" style="stroke: #000000; stroke-width: 0.8"/>
      </defs>
      <g>
       <use xlink:href="#m190c72aa3a" x="117.854261" y="308.63625" style="stroke: #000000; stroke-width: 0.8"/>
      </g>
     </g>
     <g id="text_1">
      <!-- 0 -->
      <g transform="translate(111.491761 330.833125) scale(0.2 -0.2)">
       <defs>
        <path id="DejaVuSans-30" d="M 2034 4250 
Q 1547 4250 1301 3770 
Q 1056 3291 1056 2328 
Q 1056 1369 1301 889 
Q 1547 409 2034 409 
Q 2525 409 2770 889 
Q 3016 1369 3016 2328 
Q 3016 3291 2770 3770 
Q 2525 4250 2034 4250 
z
M 2034 4750 
Q 2819 4750 3233 4129 
Q 3647 3509 3647 2328 
Q 3647 1150 3233 529 
Q 2819 -91 2034 -91 
Q 1250 -91 836 529 
Q 422 1150 422 2328 
Q 422 3509 836 4129 
Q 1250 4750 2034 4750 
z
" transform="scale(0.015625)"/>
       </defs>
       <use xlink:href="#DejaVuSans-30"/>
      </g>
     </g>
    </g>
    <g id="xtick_2">
     <g id="line2d_2">
      <g>
       <use xlink:href="#m190c72aa3a" x="193.005777" y="308.63625" style="stroke: #000000; stroke-width: 0.8"/>
      </g>
     </g>
     <g id="text_2">
      <!-- 200 -->
      <g transform="translate(173.918277 330.833125) scale(0.2 -0.2)">
       <defs>
        <path id="DejaVuSans-32" d="M 1228 531 
L 3431 531 
L 3431 0 
L 469 0 
L 469 531 
Q 828 903 1448 1529 
Q 2069 2156 2228 2338 
Q 2531 2678 2651 2914 
Q 2772 3150 2772 3378 
Q 2772 3750 2511 3984 
Q 2250 4219 1831 4219 
Q 1534 4219 1204 4116 
Q 875 4013 500 3803 
L 500 4441 
Q 881 4594 1212 4672 
Q 1544 4750 1819 4750 
Q 2544 4750 2975 4387 
Q 3406 4025 3406 3419 
Q 3406 3131 3298 2873 
Q 3191 2616 2906 2266 
Q 2828 2175 2409 1742 
Q 1991 1309 1228 531 
z
" transform="scale(0.015625)"/>
       </defs>
       <use xlink:href="#DejaVuSans-32"/>
       <use xlink:href="#DejaVuSans-30" x="63.623047"/>
       <use xlink:href="#DejaVuSans-30" x="127.246094"/>
      </g>
     </g>
    </g>
    <g id="xtick_3">
     <g id="line2d_3">
      <g>
       <use xlink:href="#m190c72aa3a" x="268.157292" y="308.63625" style="stroke: #000000; stroke-width: 0.8"/>
      </g>
     </g>
     <g id="text_3">
      <!-- 400 -->
      <g transform="translate(249.069792 330.833125) scale(0.2 -0.2)">
       <defs>
        <path id="DejaVuSans-34" d="M 2419 4116 
L 825 1625 
L 2419 1625 
L 2419 4116 
z
M 2253 4666 
L 3047 4666 
L 3047 1625 
L 3713 1625 
L 3713 1100 
L 3047 1100 
L 3047 0 
L 2419 0 
L 2419 1100 
L 313 1100 
L 313 1709 
L 2253 4666 
z
" transform="scale(0.015625)"/>
       </defs>
       <use xlink:href="#DejaVuSans-34"/>
       <use xlink:href="#DejaVuSans-30" x="63.623047"/>
       <use xlink:href="#DejaVuSans-30" x="127.246094"/>
      </g>
     </g>
    </g>
    <g id="xtick_4">
     <g id="line2d_4">
      <g>
       <use xlink:href="#m190c72aa3a" x="343.308807" y="308.63625" style="stroke: #000000; stroke-width: 0.8"/>
      </g>
     </g>
     <g id="text_4">
      <!-- 600 -->
      <g transform="translate(324.221307 330.833125) scale(0.2 -0.2)">
       <defs>
        <path id="DejaVuSans-36" d="M 2113 2584 
Q 1688 2584 1439 2293 
Q 1191 2003 1191 1497 
Q 1191 994 1439 701 
Q 1688 409 2113 409 
Q 2538 409 2786 701 
Q 3034 994 3034 1497 
Q 3034 2003 2786 2293 
Q 2538 2584 2113 2584 
z
M 3366 4563 
L 3366 3988 
Q 3128 4100 2886 4159 
Q 2644 4219 2406 4219 
Q 1781 4219 1451 3797 
Q 1122 3375 1075 2522 
Q 1259 2794 1537 2939 
Q 1816 3084 2150 3084 
Q 2853 3084 3261 2657 
Q 3669 2231 3669 1497 
Q 3669 778 3244 343 
Q 2819 -91 2113 -91 
Q 1303 -91 875 529 
Q 447 1150 447 2328 
Q 447 3434 972 4092 
Q 1497 4750 2381 4750 
Q 2619 4750 2861 4703 
Q 3103 4656 3366 4563 
z
" transform="scale(0.015625)"/>
       </defs>
       <use xlink:href="#DejaVuSans-36"/>
       <use xlink:href="#DejaVuSans-30" x="63.623047"/>
       <use xlink:href="#DejaVuSans-30" x="127.246094"/>
      </g>
     </g>
    </g>
    <g id="xtick_5">
     <g id="line2d_5">
      <g>
       <use xlink:href="#m190c72aa3a" x="418.460322" y="308.63625" style="stroke: #000000; stroke-width: 0.8"/>
      </g>
     </g>
     <g id="text_5">
      <!-- 800 -->
      <g transform="translate(399.372822 330.833125) scale(0.2 -0.2)">
       <defs>
        <path id="DejaVuSans-38" d="M 2034 2216 
Q 1584 2216 1326 1975 
Q 1069 1734 1069 1313 
Q 1069 891 1326 650 
Q 1584 409 2034 409 
Q 2484 409 2743 651 
Q 3003 894 3003 1313 
Q 3003 1734 2745 1975 
Q 2488 2216 2034 2216 
z
M 1403 2484 
Q 997 2584 770 2862 
Q 544 3141 544 3541 
Q 544 4100 942 4425 
Q 1341 4750 2034 4750 
Q 2731 4750 3128 4425 
Q 3525 4100 3525 3541 
Q 3525 3141 3298 2862 
Q 3072 2584 2669 2484 
Q 3125 2378 3379 2068 
Q 3634 1759 3634 1313 
Q 3634 634 3220 271 
Q 2806 -91 2034 -91 
Q 1263 -91 848 271 
Q 434 634 434 1313 
Q 434 1759 690 2068 
Q 947 2378 1403 2484 
z
M 1172 3481 
Q 1172 3119 1398 2916 
Q 1625 2713 2034 2713 
Q 2441 2713 2670 2916 
Q 2900 3119 2900 3481 
Q 2900 3844 2670 4047 
Q 2441 4250 2034 4250 
Q 1625 4250 1398 4047 
Q 1172 3844 1172 3481 
z
" transform="scale(0.015625)"/>
       </defs>
       <use xlink:href="#DejaVuSans-38"/>
       <use xlink:href="#DejaVuSans-30" x="63.623047"/>
       <use xlink:href="#DejaVuSans-30" x="127.246094"/>
      </g>
     </g>
    </g>
    <g id="xtick_6">
     <g id="line2d_6">
      <g>
       <use xlink:href="#m190c72aa3a" x="493.611837" y="308.63625" style="stroke: #000000; stroke-width: 0.8"/>
      </g>
     </g>
     <g id="text_6">
      <!-- 1000 -->
      <g transform="translate(468.161837 330.833125) scale(0.2 -0.2)">
       <defs>
        <path id="DejaVuSans-31" d="M 794 531 
L 1825 531 
L 1825 4091 
L 703 3866 
L 703 4441 
L 1819 4666 
L 2450 4666 
L 2450 531 
L 3481 531 
L 3481 0 
L 794 0 
L 794 531 
z
" transform="scale(0.015625)"/>
       </defs>
       <use xlink:href="#DejaVuSans-31"/>
       <use xlink:href="#DejaVuSans-30" x="63.623047"/>
       <use xlink:href="#DejaVuSans-30" x="127.246094"/>
       <use xlink:href="#DejaVuSans-30" x="190.869141"/>
      </g>
     </g>
    </g>
    <g id="xtick_7">
     <g id="line2d_7">
      <g>
       <use xlink:href="#m190c72aa3a" x="568.763352" y="308.63625" style="stroke: #000000; stroke-width: 0.8"/>
      </g>
     </g>
     <g id="text_7">
      <!-- 1200 -->
      <g transform="translate(543.313352 330.833125) scale(0.2 -0.2)">
       <use xlink:href="#DejaVuSans-31"/>
       <use xlink:href="#DejaVuSans-32" x="63.623047"/>
       <use xlink:href="#DejaVuSans-30" x="127.246094"/>
       <use xlink:href="#DejaVuSans-30" x="190.869141"/>
      </g>
     </g>
    </g>
    <g id="xtick_8">
     <g id="line2d_8">
      <g>
       <use xlink:href="#m190c72aa3a" x="643.914867" y="308.63625" style="stroke: #000000; stroke-width: 0.8"/>
      </g>
     </g>
     <g id="text_8">
      <!-- 1400 -->
      <g transform="translate(618.464867 330.833125) scale(0.2 -0.2)">
       <use xlink:href="#DejaVuSans-31"/>
       <use xlink:href="#DejaVuSans-34" x="63.623047"/>
       <use xlink:href="#DejaVuSans-30" x="127.246094"/>
       <use xlink:href="#DejaVuSans-30" x="190.869141"/>
      </g>
     </g>
    </g>
    <g id="text_9">
     <!-- iterations -->
     <g transform="translate(324.035938 354.189375) scale(0.2 -0.2)">
      <defs>
       <path id="DejaVuSans-69" d="M 603 3500 
L 1178 3500 
L 1178 0 
L 603 0 
L 603 3500 
z
M 603 4863 
L 1178 4863 
L 1178 4134 
L 603 4134 
L 603 4863 
z
" transform="scale(0.015625)"/>
       <path id="DejaVuSans-74" d="M 1172 4494 
L 1172 3500 
L 2356 3500 
L 2356 3053 
L 1172 3053 
L 1172 1153 
Q 1172 725 1289 603 
Q 1406 481 1766 481 
L 2356 481 
L 2356 0 
L 1766 0 
Q 1100 0 847 248 
Q 594 497 594 1153 
L 594 3053 
L 172 3053 
L 172 3500 
L 594 3500 
L 594 4494 
L 1172 4494 
z
" transform="scale(0.015625)"/>
       <path id="DejaVuSans-65" d="M 3597 1894 
L 3597 1613 
L 953 1613 
Q 991 1019 1311 708 
Q 1631 397 2203 397 
Q 2534 397 2845 478 
Q 3156 559 3463 722 
L 3463 178 
Q 3153 47 2828 -22 
Q 2503 -91 2169 -91 
Q 1331 -91 842 396 
Q 353 884 353 1716 
Q 353 2575 817 3079 
Q 1281 3584 2069 3584 
Q 2775 3584 3186 3129 
Q 3597 2675 3597 1894 
z
M 3022 2063 
Q 3016 2534 2758 2815 
Q 2500 3097 2075 3097 
Q 1594 3097 1305 2825 
Q 1016 2553 972 2059 
L 3022 2063 
z
" transform="scale(0.015625)"/>
       <path id="DejaVuSans-72" d="M 2631 2963 
Q 2534 3019 2420 3045 
Q 2306 3072 2169 3072 
Q 1681 3072 1420 2755 
Q 1159 2438 1159 1844 
L 1159 0 
L 581 0 
L 581 3500 
L 1159 3500 
L 1159 2956 
Q 1341 3275 1631 3429 
Q 1922 3584 2338 3584 
Q 2397 3584 2469 3576 
Q 2541 3569 2628 3553 
L 2631 2963 
z
" transform="scale(0.015625)"/>
       <path id="DejaVuSans-61" d="M 2194 1759 
Q 1497 1759 1228 1600 
Q 959 1441 959 1056 
Q 959 750 1161 570 
Q 1363 391 1709 391 
Q 2188 391 2477 730 
Q 2766 1069 2766 1631 
L 2766 1759 
L 2194 1759 
z
M 3341 1997 
L 3341 0 
L 2766 0 
L 2766 531 
Q 2569 213 2275 61 
Q 1981 -91 1556 -91 
Q 1019 -91 701 211 
Q 384 513 384 1019 
Q 384 1609 779 1909 
Q 1175 2209 1959 2209 
L 2766 2209 
L 2766 2266 
Q 2766 2663 2505 2880 
Q 2244 3097 1772 3097 
Q 1472 3097 1187 3025 
Q 903 2953 641 2809 
L 641 3341 
Q 956 3463 1253 3523 
Q 1550 3584 1831 3584 
Q 2591 3584 2966 3190 
Q 3341 2797 3341 1997 
z
" transform="scale(0.015625)"/>
       <path id="DejaVuSans-6f" d="M 1959 3097 
Q 1497 3097 1228 2736 
Q 959 2375 959 1747 
Q 959 1119 1226 758 
Q 1494 397 1959 397 
Q 2419 397 2687 759 
Q 2956 1122 2956 1747 
Q 2956 2369 2687 2733 
Q 2419 3097 1959 3097 
z
M 1959 3584 
Q 2709 3584 3137 3096 
Q 3566 2609 3566 1747 
Q 3566 888 3137 398 
Q 2709 -91 1959 -91 
Q 1206 -91 779 398 
Q 353 888 353 1747 
Q 353 2609 779 3096 
Q 1206 3584 1959 3584 
z
" transform="scale(0.015625)"/>
       <path id="DejaVuSans-6e" d="M 3513 2113 
L 3513 0 
L 2938 0 
L 2938 2094 
Q 2938 2591 2744 2837 
Q 2550 3084 2163 3084 
Q 1697 3084 1428 2787 
Q 1159 2491 1159 1978 
L 1159 0 
L 581 0 
L 581 3500 
L 1159 3500 
L 1159 2956 
Q 1366 3272 1645 3428 
Q 1925 3584 2291 3584 
Q 2894 3584 3203 3211 
Q 3513 2838 3513 2113 
z
" transform="scale(0.015625)"/>
       <path id="DejaVuSans-73" d="M 2834 3397 
L 2834 2853 
Q 2591 2978 2328 3040 
Q 2066 3103 1784 3103 
Q 1356 3103 1142 2972 
Q 928 2841 928 2578 
Q 928 2378 1081 2264 
Q 1234 2150 1697 2047 
L 1894 2003 
Q 2506 1872 2764 1633 
Q 3022 1394 3022 966 
Q 3022 478 2636 193 
Q 2250 -91 1575 -91 
Q 1294 -91 989 -36 
Q 684 19 347 128 
L 347 722 
Q 666 556 975 473 
Q 1284 391 1588 391 
Q 1994 391 2212 530 
Q 2431 669 2431 922 
Q 2431 1156 2273 1281 
Q 2116 1406 1581 1522 
L 1381 1569 
Q 847 1681 609 1914 
Q 372 2147 372 2553 
Q 372 3047 722 3315 
Q 1072 3584 1716 3584 
Q 2034 3584 2315 3537 
Q 2597 3491 2834 3397 
z
" transform="scale(0.015625)"/>
      </defs>
      <use xlink:href="#DejaVuSans-69"/>
      <use xlink:href="#DejaVuSans-74" x="27.783203"/>
      <use xlink:href="#DejaVuSans-65" x="66.992188"/>
      <use xlink:href="#DejaVuSans-72" x="128.515625"/>
      <use xlink:href="#DejaVuSans-61" x="169.628906"/>
      <use xlink:href="#DejaVuSans-74" x="230.908203"/>
      <use xlink:href="#DejaVuSans-69" x="270.117188"/>
      <use xlink:href="#DejaVuSans-6f" x="297.900391"/>
      <use xlink:href="#DejaVuSans-6e" x="359.082031"/>
      <use xlink:href="#DejaVuSans-73" x="422.460938"/>
     </g>
    </g>
   </g>
   <g id="matplotlib.axis_2">
    <g id="ytick_1">
     <g id="line2d_9">
      <defs>
       <path id="m8e6391b70d" d="M 0 0 
L -3.5 0 
" style="stroke: #000000; stroke-width: 0.8"/>
      </defs>
      <g>
       <use xlink:href="#m8e6391b70d" x="92.490625" y="308.076474" style="stroke: #000000; stroke-width: 0.8"/>
      </g>
     </g>
     <g id="text_10">
      <!-- −300 -->
      <g transform="translate(30.55625 315.674911) scale(0.2 -0.2)">
       <defs>
        <path id="DejaVuSans-2212" d="M 678 2272 
L 4684 2272 
L 4684 1741 
L 678 1741 
L 678 2272 
z
" transform="scale(0.015625)"/>
        <path id="DejaVuSans-33" d="M 2597 2516 
Q 3050 2419 3304 2112 
Q 3559 1806 3559 1356 
Q 3559 666 3084 287 
Q 2609 -91 1734 -91 
Q 1441 -91 1130 -33 
Q 819 25 488 141 
L 488 750 
Q 750 597 1062 519 
Q 1375 441 1716 441 
Q 2309 441 2620 675 
Q 2931 909 2931 1356 
Q 2931 1769 2642 2001 
Q 2353 2234 1838 2234 
L 1294 2234 
L 1294 2753 
L 1863 2753 
Q 2328 2753 2575 2939 
Q 2822 3125 2822 3475 
Q 2822 3834 2567 4026 
Q 2313 4219 1838 4219 
Q 1578 4219 1281 4162 
Q 984 4106 628 3988 
L 628 4550 
Q 988 4650 1302 4700 
Q 1616 4750 1894 4750 
Q 2613 4750 3031 4423 
Q 3450 4097 3450 3541 
Q 3450 3153 3228 2886 
Q 3006 2619 2597 2516 
z
" transform="scale(0.015625)"/>
       </defs>
       <use xlink:href="#DejaVuSans-2212"/>
       <use xlink:href="#DejaVuSans-33" x="83.789062"/>
       <use xlink:href="#DejaVuSans-30" x="147.412109"/>
       <use xlink:href="#DejaVuSans-30" x="211.035156"/>
      </g>
     </g>
    </g>
    <g id="ytick_2">
     <g id="line2d_10">
      <g>
       <use xlink:href="#m8e6391b70d" x="92.490625" y="260.333863" style="stroke: #000000; stroke-width: 0.8"/>
      </g>
     </g>
     <g id="text_11">
      <!-- −200 -->
      <g transform="translate(30.55625 267.9323) scale(0.2 -0.2)">
       <use xlink:href="#DejaVuSans-2212"/>
       <use xlink:href="#DejaVuSans-32" x="83.789062"/>
       <use xlink:href="#DejaVuSans-30" x="147.412109"/>
       <use xlink:href="#DejaVuSans-30" x="211.035156"/>
      </g>
     </g>
    </g>
    <g id="ytick_3">
     <g id="line2d_11">
      <g>
       <use xlink:href="#m8e6391b70d" x="92.490625" y="212.591251" style="stroke: #000000; stroke-width: 0.8"/>
      </g>
     </g>
     <g id="text_12">
      <!-- −100 -->
      <g transform="translate(30.55625 220.189689) scale(0.2 -0.2)">
       <use xlink:href="#DejaVuSans-2212"/>
       <use xlink:href="#DejaVuSans-31" x="83.789062"/>
       <use xlink:href="#DejaVuSans-30" x="147.412109"/>
       <use xlink:href="#DejaVuSans-30" x="211.035156"/>
      </g>
     </g>
    </g>
    <g id="ytick_4">
     <g id="line2d_12">
      <g>
       <use xlink:href="#m8e6391b70d" x="92.490625" y="164.84864" style="stroke: #000000; stroke-width: 0.8"/>
      </g>
     </g>
     <g id="text_13">
      <!-- 0 -->
      <g transform="translate(72.765625 172.447078) scale(0.2 -0.2)">
       <use xlink:href="#DejaVuSans-30"/>
      </g>
     </g>
    </g>
    <g id="ytick_5">
     <g id="line2d_13">
      <g>
       <use xlink:href="#m8e6391b70d" x="92.490625" y="117.106029" style="stroke: #000000; stroke-width: 0.8"/>
      </g>
     </g>
     <g id="text_14">
      <!-- 100 -->
      <g transform="translate(47.315625 124.704466) scale(0.2 -0.2)">
       <use xlink:href="#DejaVuSans-31"/>
       <use xlink:href="#DejaVuSans-30" x="63.623047"/>
       <use xlink:href="#DejaVuSans-30" x="127.246094"/>
      </g>
     </g>
    </g>
    <g id="ytick_6">
     <g id="line2d_14">
      <g>
       <use xlink:href="#m8e6391b70d" x="92.490625" y="69.363418" style="stroke: #000000; stroke-width: 0.8"/>
      </g>
     </g>
     <g id="text_15">
      <!-- 200 -->
      <g transform="translate(47.315625 76.961855) scale(0.2 -0.2)">
       <use xlink:href="#DejaVuSans-32"/>
       <use xlink:href="#DejaVuSans-30" x="63.623047"/>
       <use xlink:href="#DejaVuSans-30" x="127.246094"/>
      </g>
     </g>
    </g>
    <g id="text_16">
     <!-- Loss -->
     <g transform="translate(22.396875 191.970625) rotate(-90) scale(0.2 -0.2)">
      <defs>
       <path id="DejaVuSans-4c" d="M 628 4666 
L 1259 4666 
L 1259 531 
L 3531 531 
L 3531 0 
L 628 0 
L 628 4666 
z
" transform="scale(0.015625)"/>
      </defs>
      <use xlink:href="#DejaVuSans-4c"/>
      <use xlink:href="#DejaVuSans-6f" x="53.962891"/>
      <use xlink:href="#DejaVuSans-73" x="115.144531"/>
      <use xlink:href="#DejaVuSans-73" x="167.244141"/>
     </g>
    </g>
   </g>
   <g id="line2d_15">
    <path d="M 117.854261 146.813401 
L 118.605777 80.391515 
L 118.981534 93.97479 
L 119.733049 106.442787 
L 120.108807 102.548887 
L 120.484564 66.652339 
L 120.860322 44.03625 
L 121.611837 64.165815 
L 121.987595 68.653032 
L 122.363352 61.460956 
L 122.73911 63.790343 
L 123.114867 62.242846 
L 123.490625 69.057708 
L 123.866383 80.741477 
L 124.24214 87.131444 
L 124.617898 98.140049 
L 124.993655 103.093068 
L 125.369413 93.825742 
L 125.74517 104.094745 
L 126.120928 107.308578 
L 126.496686 107.992912 
L 126.872443 109.644738 
L 127.248201 119.773596 
L 127.623958 118.892841 
L 127.999716 114.429748 
L 128.375473 114.41171 
L 128.751231 118.415431 
L 129.126989 117.206988 
L 129.502746 117.824206 
L 129.878504 124.735137 
L 130.254261 128.258738 
L 130.630019 123.195727 
L 131.005777 122.886145 
L 131.381534 125.843859 
L 131.757292 125.967041 
L 132.133049 131.582295 
L 132.508807 131.871905 
L 132.884564 133.114474 
L 133.260322 127.878369 
L 133.63608 129.495931 
L 134.011837 127.712842 
L 134.387595 124.552253 
L 134.763352 129.481497 
L 135.13911 130.09079 
L 135.514867 138.115362 
L 135.890625 141.78177 
L 136.266383 134.414925 
L 136.64214 137.67643 
L 137.017898 136.065027 
L 137.393655 137.869639 
L 137.769413 132.690907 
L 138.14517 140.119834 
L 138.520928 137.644756 
L 138.896686 136.745389 
L 139.272443 135.335573 
L 139.648201 138.130464 
L 140.023958 142.002796 
L 140.399716 141.84562 
L 140.775473 142.578861 
L 141.151231 142.251124 
L 141.526989 142.172145 
L 141.902746 141.417091 
L 142.278504 140.224809 
L 142.654261 143.217005 
L 143.030019 144.687951 
L 143.405777 143.797342 
L 143.781534 144.278274 
L 144.157292 146.270732 
L 144.533049 146.701501 
L 144.908807 145.461789 
L 145.284564 145.833763 
L 145.660322 143.692652 
L 146.03608 147.194435 
L 146.411837 146.821302 
L 146.787595 147.072493 
L 147.163352 148.093813 
L 147.53911 147.234276 
L 148.290625 150.883918 
L 148.666383 150.092965 
L 149.04214 150.882584 
L 149.417898 151.093285 
L 149.793655 150.889117 
L 150.169413 152.174483 
L 150.54517 152.94296 
L 150.920928 151.837858 
L 151.296686 153.425732 
L 151.672443 152.601994 
L 152.423958 155.336526 
L 152.799716 153.768577 
L 153.175473 155.985871 
L 153.551231 156.51429 
L 153.926989 156.791584 
L 154.302746 158.00526 
L 154.678504 156.319263 
L 155.054261 157.103248 
L 155.430019 155.953429 
L 155.805777 157.745158 
L 156.181534 158.683875 
L 156.557292 158.244609 
L 156.933049 154.730314 
L 157.308807 156.566221 
L 157.684564 157.700492 
L 158.060322 156.920326 
L 158.43608 157.017393 
L 158.811837 158.068498 
L 159.187595 156.190997 
L 159.563352 157.968617 
L 159.93911 157.662547 
L 160.690625 159.727833 
L 161.066383 161.236052 
L 161.817898 160.847517 
L 162.569413 158.799593 
L 162.94517 160.259755 
L 163.320928 159.926854 
L 163.696686 160.268099 
L 164.072443 160.364639 
L 164.823958 158.883726 
L 165.575473 162.122629 
L 165.951231 161.527582 
L 166.326989 159.785258 
L 166.702746 160.608374 
L 167.078504 159.759418 
L 167.454261 161.088617 
L 168.205777 159.732294 
L 168.581534 161.106603 
L 168.957292 160.441163 
L 169.333049 161.629867 
L 169.708807 161.67122 
L 170.084564 162.151759 
L 170.460322 163.316399 
L 171.211837 161.53737 
L 171.587595 162.63625 
L 172.33911 162.150268 
L 172.714867 164.664075 
L 173.090625 165.211228 
L 173.466383 165.140243 
L 173.84214 165.829806 
L 174.217898 166.831469 
L 174.593655 166.91882 
L 174.969413 167.478491 
L 175.34517 167.575725 
L 175.720928 165.443178 
L 176.096686 165.627313 
L 176.472443 166.592773 
L 176.848201 165.96152 
L 177.223958 166.931254 
L 177.599716 166.917131 
L 177.975473 165.406154 
L 178.351231 166.035049 
L 178.726989 164.400182 
L 179.102746 164.527758 
L 179.478504 164.778149 
L 179.854261 165.583527 
L 180.230019 167.012243 
L 180.605777 164.441019 
L 181.357292 166.745217 
L 182.108807 164.955568 
L 182.484564 165.543819 
L 182.860322 168.059276 
L 183.23608 166.862587 
L 183.611837 166.852146 
L 183.987595 167.158344 
L 184.363352 167.610948 
L 184.73911 163.137368 
L 185.114867 166.852458 
L 185.490625 164.939072 
L 185.866383 164.213958 
L 186.24214 164.386659 
L 186.617898 167.063814 
L 186.993655 167.008493 
L 187.369413 166.463196 
L 187.74517 166.887252 
L 188.120928 166.910252 
L 188.496686 167.962763 
L 188.872443 166.681478 
L 189.248201 167.175909 
L 189.623958 167.245556 
L 189.999716 168.843924 
L 190.375473 167.709087 
L 190.751231 168.158478 
L 191.126989 169.017948 
L 191.502746 167.592203 
L 191.878504 168.116261 
L 192.254261 167.660477 
L 193.005777 165.994739 
L 193.381534 166.959647 
L 193.757292 167.091176 
L 194.133049 166.721602 
L 194.508807 167.801531 
L 194.884564 167.452339 
L 195.260322 167.493911 
L 195.63608 166.976974 
L 196.011837 164.934127 
L 196.387595 165.345127 
L 196.763352 166.14828 
L 197.13911 166.617358 
L 197.890625 163.956945 
L 198.266383 163.966765 
L 198.64214 164.243007 
L 199.017898 164.33267 
L 199.393655 164.564122 
L 199.769413 164.054355 
L 200.14517 165.162294 
L 200.520928 164.311079 
L 200.896686 163.895203 
L 201.272443 162.229669 
L 201.648201 163.02108 
L 202.023958 163.191493 
L 202.399716 163.821427 
L 202.775473 164.095406 
L 203.151231 163.815524 
L 203.526989 163.811161 
L 203.902746 164.365739 
L 204.278504 164.153971 
L 204.654261 164.380678 
L 205.030019 163.315187 
L 205.405777 163.671799 
L 205.781534 162.34971 
L 206.157292 162.174869 
L 206.533049 163.137305 
L 206.908807 163.467982 
L 207.284564 164.097514 
L 207.660322 164.051731 
L 208.03608 163.19249 
L 208.411837 163.338166 
L 208.787595 163.609537 
L 209.163352 163.409286 
L 209.53911 162.704454 
L 209.914867 163.022985 
L 210.290625 163.529448 
L 210.666383 162.514471 
L 211.04214 161.906048 
L 211.793655 163.801088 
L 212.169413 163.662423 
L 212.54517 162.76663 
L 212.920928 163.428382 
L 213.296686 163.457511 
L 213.672443 162.018732 
L 214.048201 163.01992 
L 214.423958 162.950906 
L 214.799716 162.106919 
L 215.551231 162.228724 
L 216.302746 162.468102 
L 216.678504 162.912715 
L 217.054261 162.77536 
L 217.430019 162.843327 
L 217.805777 163.355386 
L 218.181534 162.62776 
L 218.557292 162.306488 
L 218.933049 162.595105 
L 219.308807 163.279859 
L 219.684564 163.234508 
L 220.060322 161.797956 
L 220.43608 162.181096 
L 220.811837 163.30094 
L 221.187595 163.675187 
L 221.563352 163.380859 
L 221.93911 162.733879 
L 222.314867 163.610364 
L 222.690625 163.322777 
L 223.066383 163.352923 
L 223.44214 162.602164 
L 223.817898 163.122249 
L 224.193655 162.569941 
L 224.569413 163.908707 
L 224.94517 164.132175 
L 225.320928 164.182415 
L 225.696686 164.06866 
L 226.072443 164.587901 
L 226.448201 164.740009 
L 226.823958 164.282625 
L 227.575473 164.185717 
L 227.951231 164.616448 
L 228.326989 165.503936 
L 229.078504 165.766536 
L 229.830019 165.438424 
L 230.205777 165.165958 
L 230.957292 165.820635 
L 231.333049 166.698822 
L 231.708807 166.090311 
L 232.084564 166.546281 
L 232.460322 167.201853 
L 232.83608 166.721574 
L 233.587595 167.357401 
L 234.714867 166.196017 
L 235.090625 166.671504 
L 235.466383 166.873768 
L 235.84214 166.185705 
L 236.593655 164.468642 
L 236.969413 165.366566 
L 237.34517 165.737146 
L 238.096686 165.388637 
L 238.472443 166.118239 
L 238.848201 166.045435 
L 239.223958 165.651529 
L 239.599716 166.464095 
L 239.975473 165.812214 
L 240.351231 165.811342 
L 240.726989 166.233304 
L 241.102746 166.328533 
L 241.478504 166.183783 
L 241.854261 165.83156 
L 242.605777 165.619053 
L 242.981534 166.240895 
L 243.357292 166.331851 
L 243.733049 166.229317 
L 244.484564 166.706569 
L 245.23608 166.056973 
L 245.611837 166.36659 
L 245.987595 167.259645 
L 246.363352 167.00779 
L 246.73911 167.161823 
L 247.114867 167.141942 
L 247.490625 167.917632 
L 247.866383 167.265631 
L 248.24214 167.629537 
L 248.617898 167.501643 
L 248.993655 168.160859 
L 249.74517 166.86691 
L 250.120928 166.920471 
L 250.496686 166.549066 
L 250.872443 167.038505 
L 251.248201 166.612435 
L 252.375473 167.228123 
L 252.751231 166.976342 
L 253.126989 166.452188 
L 253.502746 166.488802 
L 253.878504 166.091526 
L 254.254261 166.502338 
L 254.630019 166.560258 
L 255.005777 165.909882 
L 256.133049 166.006467 
L 256.884564 166.348677 
L 257.260322 166.322912 
L 258.011837 165.845957 
L 258.387595 166.437074 
L 258.763352 165.983663 
L 259.13911 166.38031 
L 260.266383 166.068 
L 260.64214 166.069951 
L 261.017898 166.237616 
L 261.393655 166.275353 
L 261.769413 166.559866 
L 262.14517 166.42806 
L 262.520928 165.903486 
L 262.896686 166.414469 
L 263.272443 165.688138 
L 263.648201 166.209658 
L 264.023958 166.443395 
L 264.399716 167.174898 
L 264.775473 166.546986 
L 265.151231 166.811977 
L 265.526989 166.533579 
L 266.278504 167.081266 
L 267.030019 166.839537 
L 267.405777 166.368862 
L 268.157292 166.87614 
L 268.533049 166.808474 
L 268.908807 166.56272 
L 269.284564 166.009525 
L 269.660322 166.357339 
L 270.03608 166.028483 
L 270.411837 166.255005 
L 270.787595 166.696161 
L 271.163352 166.183707 
L 271.53911 166.003365 
L 271.914867 166.706365 
L 272.290625 166.21531 
L 272.666383 166.14197 
L 273.04214 165.532035 
L 273.417898 166.138229 
L 273.793655 165.987485 
L 274.169413 165.611724 
L 275.296686 166.712348 
L 275.672443 166.03513 
L 276.423958 165.784352 
L 277.551231 166.055311 
L 278.302746 165.583788 
L 278.678504 165.646263 
L 279.054261 165.846987 
L 279.430019 165.521687 
L 279.805777 165.978731 
L 280.181534 166.035145 
L 280.557292 166.661504 
L 280.933049 166.760297 
L 282.060322 166.435477 
L 282.43608 166.783371 
L 282.811837 166.141324 
L 283.187595 165.874838 
L 283.563352 165.97542 
L 283.93911 166.270776 
L 284.314867 165.838433 
L 285.066383 165.769593 
L 285.817898 166.178324 
L 286.193655 166.191207 
L 286.569413 165.81833 
L 287.320928 166.51138 
L 287.696686 166.448924 
L 288.072443 166.241097 
L 289.575473 166.882604 
L 289.951231 166.459606 
L 290.326989 166.757516 
L 291.078504 166.516183 
L 291.454261 166.007551 
L 291.830019 166.12876 
L 292.581534 166.844733 
L 292.957292 166.274435 
L 293.333049 166.281576 
L 294.084564 166.711753 
L 294.460322 166.497263 
L 294.83608 166.610833 
L 295.211837 166.443589 
L 295.587595 166.729574 
L 295.963352 166.436764 
L 296.33911 166.704082 
L 296.714867 166.441254 
L 297.090625 166.890386 
L 297.466383 166.502654 
L 298.217898 166.926292 
L 298.593655 166.802534 
L 298.969413 166.976452 
L 299.34517 166.899472 
L 299.720928 166.984121 
L 300.096686 166.475711 
L 300.848201 166.278405 
L 301.223958 166.503053 
L 301.599716 166.569999 
L 301.975473 166.369568 
L 302.351231 166.852875 
L 302.726989 166.530569 
L 303.102746 167.047616 
L 303.478504 166.761014 
L 303.854261 166.88594 
L 304.605777 166.645192 
L 304.981534 166.825855 
L 305.357292 167.224149 
L 305.733049 167.398477 
L 306.484564 167.136946 
L 306.860322 167.250324 
L 307.611837 166.93557 
L 307.987595 167.181139 
L 308.73911 167.295278 
L 309.114867 167.000585 
L 309.490625 167.301564 
L 309.866383 166.535478 
L 310.24214 166.396558 
L 310.617898 166.434709 
L 310.993655 166.783238 
L 311.74517 166.731299 
L 312.120928 166.216886 
L 312.496686 166.566691 
L 312.872443 166.529329 
L 313.248201 166.719295 
L 313.623958 166.46481 
L 314.375473 167.027086 
L 314.751231 166.683276 
L 315.126989 167.335819 
L 315.502746 167.091504 
L 315.878504 166.566761 
L 316.254261 166.988799 
L 316.630019 166.623194 
L 317.757292 166.675388 
L 318.133049 167.061763 
L 318.508807 166.723804 
L 319.260322 166.844911 
L 320.011837 166.96288 
L 320.387595 166.983111 
L 320.763352 166.841912 
L 321.13911 166.501931 
L 321.514867 167.418016 
L 321.890625 167.30157 
L 322.266383 167.366067 
L 323.017898 167.02388 
L 323.393655 167.390764 
L 323.769413 166.756981 
L 324.14517 167.057009 
L 324.896686 166.957972 
L 325.272443 167.276026 
L 325.648201 167.375123 
L 326.023958 166.84129 
L 327.151231 167.11316 
L 327.902746 166.971584 
L 328.278504 167.290888 
L 328.654261 167.066544 
L 329.030019 165.323307 
L 329.405777 166.545885 
L 329.781534 166.380095 
L 330.157292 166.350188 
L 330.533049 166.50404 
L 331.284564 166.555807 
L 331.660322 166.356261 
L 332.03608 166.793856 
L 332.411837 166.395077 
L 333.53911 166.557929 
L 333.914867 167.176148 
L 334.290625 166.286676 
L 334.666383 166.511268 
L 335.04214 166.462493 
L 335.793655 166.764231 
L 336.169413 166.130331 
L 336.54517 166.802709 
L 336.920928 166.742324 
L 337.672443 165.927039 
L 338.799716 166.933795 
L 339.551231 166.745378 
L 339.926989 166.369924 
L 340.302746 166.800786 
L 341.054261 167.07098 
L 341.430019 166.816037 
L 341.805777 167.223374 
L 342.557292 167.362637 
L 342.933049 166.969143 
L 343.308807 166.753254 
L 343.684564 166.998402 
L 344.060322 166.382302 
L 344.43608 166.995114 
L 344.811837 167.874512 
L 345.187595 166.987137 
L 345.563352 166.825792 
L 346.314867 167.048812 
L 346.690625 166.644523 
L 347.066383 166.909597 
L 347.44214 166.632009 
L 347.817898 166.784255 
L 348.193655 166.544729 
L 348.569413 166.455566 
L 348.94517 166.537231 
L 349.320928 167.145024 
L 349.696686 166.201103 
L 350.072443 166.478157 
L 350.823958 166.526268 
L 351.199716 166.161988 
L 351.575473 166.0622 
L 352.326989 167.214498 
L 352.702746 166.755575 
L 353.078504 166.973666 
L 353.454261 166.737883 
L 353.830019 167.536392 
L 354.205777 167.145261 
L 354.581534 166.919932 
L 354.957292 166.985462 
L 355.333049 166.843619 
L 355.708807 167.331072 
L 356.084564 167.095779 
L 356.460322 167.413069 
L 356.83608 167.981538 
L 357.211837 167.302931 
L 357.587595 167.114096 
L 357.963352 167.372238 
L 358.714867 167.021455 
L 359.090625 167.14747 
L 359.466383 167.058253 
L 359.84214 167.107391 
L 360.593655 166.768336 
L 360.969413 166.903449 
L 361.720928 166.860062 
L 362.096686 166.763995 
L 362.472443 167.353189 
L 362.848201 166.946869 
L 363.223958 166.896951 
L 363.599716 167.015569 
L 363.975473 166.461696 
L 364.726989 167.159127 
L 365.478504 166.939349 
L 365.854261 166.851717 
L 366.230019 166.907606 
L 366.605777 166.615213 
L 366.981534 166.527251 
L 367.357292 166.990676 
L 367.733049 167.131883 
L 368.108807 166.87159 
L 368.484564 167.064202 
L 369.23608 167.055898 
L 369.611837 167.200545 
L 369.987595 167.045965 
L 370.363352 167.141436 
L 370.73911 166.671473 
L 371.490625 167.15067 
L 372.24214 167.093419 
L 372.617898 166.961498 
L 372.993655 167.238443 
L 373.369413 167.067239 
L 373.74517 167.194622 
L 374.496686 166.997806 
L 374.872443 167.05962 
L 375.248201 167.288663 
L 375.623958 167.065158 
L 375.999716 167.092838 
L 376.751231 166.717651 
L 377.502746 167.257168 
L 377.878504 166.84786 
L 378.254261 166.864819 
L 378.630019 167.268105 
L 379.757292 167.314542 
L 380.133049 167.11197 
L 380.508807 167.047703 
L 380.884564 167.417386 
L 381.260322 166.858553 
L 381.63608 166.975317 
L 382.011837 167.212109 
L 382.387595 166.952572 
L 382.763352 167.154298 
L 383.514867 166.886214 
L 383.890625 166.962463 
L 384.266383 166.795377 
L 384.64214 167.377051 
L 385.017898 167.534359 
L 385.393655 167.193189 
L 385.769413 167.395914 
L 386.14517 166.865444 
L 386.896686 167.310023 
L 387.272443 167.143646 
L 387.648201 167.839257 
L 388.023958 167.391751 
L 388.399716 167.624121 
L 388.775473 167.266595 
L 390.278504 167.197231 
L 390.654261 167.238835 
L 391.405777 167.601499 
L 391.781534 167.566912 
L 392.157292 167.343159 
L 392.533049 167.627105 
L 392.908807 167.185018 
L 394.03608 167.75358 
L 394.411837 167.193165 
L 395.163352 167.345123 
L 395.53911 167.275755 
L 395.914867 167.33833 
L 396.290625 167.218481 
L 396.666383 167.524625 
L 397.04214 167.485847 
L 397.793655 166.934059 
L 398.169413 167.598699 
L 398.54517 167.195997 
L 398.920928 167.07312 
L 399.296686 167.231047 
L 399.672443 167.088166 
L 400.048201 167.193842 
L 400.423958 167.140813 
L 400.799716 167.287539 
L 401.175473 167.258121 
L 401.926989 166.999258 
L 402.678504 167.023811 
L 403.054261 167.265694 
L 403.430019 167.302736 
L 403.805777 166.628543 
L 404.181534 166.868234 
L 404.557292 167.276377 
L 404.933049 167.516864 
L 405.308807 167.131464 
L 406.43608 167.05853 
L 406.811837 167.225277 
L 407.187595 167.074134 
L 407.563352 167.300374 
L 407.93911 167.004552 
L 408.314867 167.180986 
L 408.690625 166.781859 
L 409.066383 167.195129 
L 409.817898 167.097083 
L 410.193655 167.292166 
L 410.569413 167.158983 
L 410.94517 167.28468 
L 411.320928 166.966519 
L 411.696686 167.693968 
L 412.072443 167.503178 
L 412.448201 167.513798 
L 412.823958 167.160503 
L 413.575473 167.502693 
L 414.326989 166.898246 
L 414.702746 167.309784 
L 415.454261 167.0164 
L 415.830019 167.250778 
L 416.957292 167.416309 
L 417.333049 167.210728 
L 417.708807 166.433808 
L 418.084564 166.127449 
L 418.460322 166.373511 
L 418.83608 166.339871 
L 419.587595 166.698783 
L 419.963352 166.366816 
L 420.33911 166.288825 
L 420.714867 166.736823 
L 421.090625 166.210298 
L 421.466383 166.205723 
L 421.84214 166.469254 
L 422.217898 166.893486 
L 422.593655 166.70044 
L 422.969413 166.797322 
L 423.720928 166.497499 
L 424.096686 166.169747 
L 424.472443 166.417518 
L 425.223958 166.052766 
L 425.599716 166.192371 
L 425.975473 166.458809 
L 426.726989 166.547735 
L 427.102746 166.246446 
L 427.854261 166.631007 
L 428.605777 165.866555 
L 429.733049 166.255021 
L 430.484564 166.262861 
L 430.860322 166.559212 
L 431.611837 165.905145 
L 432.363352 165.974496 
L 432.73911 165.350545 
L 433.114867 165.297679 
L 433.490625 165.698049 
L 435.74517 165.774658 
L 436.120928 165.533159 
L 436.496686 165.743569 
L 436.872443 165.64798 
L 437.248201 165.786708 
L 438.375473 165.80996 
L 438.751231 165.0623 
L 439.126989 165.784689 
L 439.502746 165.418918 
L 440.254261 165.781192 
L 440.630019 165.647521 
L 442.133049 166.187874 
L 442.508807 165.338447 
L 442.884564 165.297218 
L 443.260322 165.514819 
L 443.63608 165.50545 
L 444.011837 165.657646 
L 444.387595 165.549139 
L 444.763352 165.653896 
L 445.13911 165.39391 
L 445.514867 165.753425 
L 445.890625 165.820735 
L 446.266383 165.605532 
L 446.64214 166.029359 
L 447.017898 165.869283 
L 447.769413 165.945625 
L 448.520928 165.76486 
L 448.896686 165.98245 
L 449.648201 166.00156 
L 450.023958 165.787654 
L 450.399716 166.287165 
L 451.151231 166.210825 
L 451.526989 166.457298 
L 452.278504 166.18791 
L 452.654261 165.779754 
L 453.030019 166.208858 
L 453.781534 165.893258 
L 454.157292 165.82723 
L 454.533049 166.02958 
L 454.908807 166.003079 
L 455.284564 166.121423 
L 456.03608 165.924299 
L 456.411837 165.720731 
L 456.787595 165.697142 
L 457.163352 165.404708 
L 457.53911 165.597086 
L 458.290625 165.339743 
L 458.666383 165.681835 
L 459.04214 165.580475 
L 459.417898 165.730561 
L 459.793655 165.65167 
L 460.169413 165.688021 
L 460.54517 165.883927 
L 460.920928 165.58446 
L 461.672443 165.404099 
L 462.048201 165.352046 
L 462.423958 165.579946 
L 463.551231 165.60261 
L 463.926989 165.346274 
L 465.054261 165.159108 
L 465.430019 165.340775 
L 466.181534 164.955487 
L 466.557292 164.961174 
L 466.933049 165.192407 
L 468.060322 164.957008 
L 468.43608 165.14609 
L 469.187595 165.081873 
L 469.563352 165.095156 
L 469.93911 164.807499 
L 470.314867 165.227654 
L 470.690625 165.265696 
L 471.066383 165.102711 
L 471.44214 165.185314 
L 471.817898 165.01151 
L 472.193655 164.705123 
L 472.569413 165.269076 
L 472.94517 164.957094 
L 473.320928 165.006678 
L 473.696686 165.341122 
L 475.199716 164.661598 
L 475.575473 164.945137 
L 475.951231 164.734969 
L 476.702746 164.692162 
L 477.078504 165.130199 
L 478.205777 164.760042 
L 478.581534 164.834812 
L 478.957292 164.605401 
L 479.333049 164.753951 
L 479.708807 164.640127 
L 480.084564 164.66802 
L 480.460322 165.084929 
L 480.83608 164.800336 
L 481.211837 164.702486 
L 481.587595 165.092238 
L 481.963352 164.784989 
L 482.714867 164.654922 
L 483.090625 165.050918 
L 483.466383 165.093622 
L 483.84214 165.015084 
L 484.217898 165.172939 
L 484.969413 164.853587 
L 485.34517 164.752789 
L 485.720928 164.881242 
L 487.223958 164.767417 
L 487.599716 164.537673 
L 489.102746 164.844207 
L 489.478504 164.598544 
L 489.854261 164.904032 
L 490.230019 164.632145 
L 490.605777 164.646115 
L 490.981534 164.791362 
L 491.357292 164.208409 
L 491.733049 164.719849 
L 492.108807 164.686455 
L 492.484564 164.972158 
L 492.860322 164.608045 
L 493.23608 164.512367 
L 493.611837 164.873126 
L 493.987595 164.519728 
L 494.363352 164.652589 
L 494.73911 164.555593 
L 496.24214 164.682474 
L 496.617898 164.428386 
L 496.993655 164.624395 
L 497.369413 164.293484 
L 497.74517 164.24004 
L 498.120928 164.454602 
L 498.496686 164.292867 
L 498.872443 164.303185 
L 499.248201 164.651095 
L 499.999716 164.280737 
L 500.375473 164.557873 
L 500.751231 164.271067 
L 501.126989 164.266 
L 501.502746 164.44347 
L 501.878504 164.195717 
L 502.254261 164.480342 
L 502.630019 164.262198 
L 503.005777 164.47356 
L 504.508807 164.474068 
L 504.884564 164.274049 
L 505.260322 164.2959 
L 505.63608 164.543015 
L 506.011837 164.4575 
L 506.387595 164.096063 
L 506.763352 164.069542 
L 507.890625 164.533253 
L 508.64214 164.003254 
L 509.017898 164.192278 
L 509.393655 164.001959 
L 509.769413 164.387457 
L 510.14517 163.97977 
L 511.648201 164.528569 
L 512.023958 164.349138 
L 512.399716 164.334457 
L 513.151231 164.653693 
L 513.526989 164.513392 
L 513.902746 164.249343 
L 514.654261 164.180747 
L 515.030019 164.086963 
L 516.157292 164.528379 
L 516.533049 164.58565 
L 518.03608 163.922121 
L 518.411837 164.462573 
L 519.53911 163.850728 
L 520.290625 163.889815 
L 520.666383 164.066193 
L 521.417898 163.871367 
L 521.793655 164.048066 
L 522.169413 163.984092 
L 522.54517 164.183415 
L 522.920928 163.935769 
L 523.672443 164.274146 
L 524.423958 164.070609 
L 524.799716 164.312891 
L 525.175473 163.686835 
L 525.926989 164.360954 
L 526.302746 164.122158 
L 526.678504 164.114516 
L 527.054261 164.334064 
L 527.430019 164.137498 
L 528.181534 163.311133 
L 528.557292 163.220176 
L 528.933049 163.550361 
L 529.308807 163.448418 
L 529.684564 163.71331 
L 530.060322 163.351477 
L 530.43608 163.172701 
L 531.563352 163.263854 
L 531.93911 163.151975 
L 532.314867 163.343163 
L 533.066383 162.793354 
L 533.44214 163.166055 
L 534.193655 163.046597 
L 535.320928 162.993135 
L 535.696686 162.682104 
L 536.072443 163.00989 
L 536.448201 162.76588 
L 536.823958 163.042647 
L 537.199716 162.971003 
L 537.575473 163.169542 
L 537.951231 163.025507 
L 538.326989 162.715005 
L 540.205777 163.120688 
L 540.581534 162.887892 
L 540.957292 162.861099 
L 541.333049 162.605368 
L 541.708807 162.718996 
L 542.084564 163.119639 
L 542.460322 163.036418 
L 542.83608 163.323475 
L 543.211837 162.959207 
L 544.33911 163.009442 
L 545.090625 163.040084 
L 545.466383 162.830066 
L 545.84214 162.901827 
L 546.217898 162.797376 
L 546.593655 162.475898 
L 546.969413 162.791582 
L 547.34517 162.640072 
L 547.720928 163.394182 
L 548.096686 162.886997 
L 548.472443 163.447382 
L 548.848201 162.934262 
L 549.223958 162.727804 
L 549.599716 162.685986 
L 549.975473 162.775527 
L 550.351231 163.118003 
L 550.726989 163.029959 
L 551.478504 163.580475 
L 551.854261 163.307008 
L 552.230019 163.212574 
L 552.605777 163.684076 
L 552.981534 163.105919 
L 553.357292 163.019657 
L 554.108807 163.315244 
L 554.484564 163.477329 
L 554.860322 163.444926 
L 555.23608 163.690502 
L 555.611837 163.648543 
L 556.363352 163.3947 
L 556.73911 163.744203 
L 557.866383 163.143768 
L 558.24214 163.415798 
L 558.617898 163.310896 
L 558.993655 163.67192 
L 559.369413 163.190308 
L 559.74517 163.697398 
L 560.120928 163.33503 
L 560.872443 163.443772 
L 561.248201 163.437266 
L 561.623958 163.627919 
L 561.999716 163.250961 
L 562.375473 163.463307 
L 562.751231 163.297489 
L 563.126989 163.707538 
L 563.878504 163.488831 
L 564.630019 163.635926 
L 565.005777 163.571218 
L 565.381534 162.969432 
L 565.757292 162.92423 
L 566.508807 163.194457 
L 566.884564 163.047116 
L 567.63608 163.328055 
L 568.011837 162.946821 
L 568.387595 162.85899 
L 568.763352 162.971228 
L 569.13911 163.386788 
L 569.514867 163.444905 
L 569.890625 163.125637 
L 570.266383 163.273733 
L 570.64214 162.927007 
L 571.017898 163.151833 
L 571.393655 163.123786 
L 572.896686 163.534105 
L 573.272443 163.331042 
L 574.023958 163.854146 
L 574.399716 163.527955 
L 575.526989 163.508207 
L 575.902746 163.741828 
L 576.278504 163.796721 
L 576.654261 163.499965 
L 577.030019 163.539115 
L 577.405777 163.334905 
L 578.157292 163.186907 
L 578.908807 163.673722 
L 579.284564 163.735178 
L 579.660322 164.048334 
L 580.03608 163.92189 
L 581.163352 164.304807 
L 581.53911 164.15404 
L 581.914867 164.125634 
L 582.666383 164.252523 
L 583.04214 164.62846 
L 583.417898 164.602421 
L 583.793655 164.358821 
L 584.54517 165.029742 
L 584.920928 164.726724 
L 586.048201 165.276789 
L 586.423958 165.193341 
L 587.175473 165.498359 
L 587.551231 165.31553 
L 587.926989 165.578749 
L 588.302746 165.225906 
L 588.678504 165.475287 
L 589.054261 165.34384 
L 589.430019 164.817678 
L 589.805777 165.300054 
L 590.181534 165.344604 
L 590.557292 165.08636 
L 590.933049 165.64437 
L 591.308807 165.404755 
L 591.684564 165.726027 
L 592.060322 165.371264 
L 592.811837 165.271767 
L 593.93911 165.553845 
L 594.314867 165.469172 
L 594.690625 165.752799 
L 595.066383 165.570409 
L 595.44214 165.727335 
L 595.817898 165.467782 
L 596.193655 165.635921 
L 596.569413 165.430688 
L 596.94517 165.549762 
L 597.320928 165.806105 
L 597.696686 165.224773 
L 598.072443 165.129538 
L 598.448201 165.225561 
L 598.823958 165.732816 
L 599.199716 165.525223 
L 599.575473 165.58756 
L 599.951231 165.477502 
L 600.326989 165.196641 
L 600.702746 165.234042 
L 601.454261 164.933286 
L 601.830019 165.292502 
L 602.581534 165.39771 
L 604.084564 165.239165 
L 605.211837 164.966709 
L 605.587595 165.05344 
L 605.963352 164.891523 
L 606.33911 164.945722 
L 606.714867 164.861902 
L 607.090625 165.331493 
L 607.466383 165.255016 
L 607.84214 164.928494 
L 608.969413 165.024896 
L 609.34517 164.694183 
L 610.472443 165.093285 
L 610.848201 165.17883 
L 611.223958 165.093513 
L 611.599716 165.384542 
L 611.975473 165.513496 
L 612.726989 165.431312 
L 613.102746 165.090467 
L 613.478504 165.447336 
L 614.230019 165.467546 
L 614.605777 165.595144 
L 615.733049 165.073434 
L 616.484564 165.356666 
L 616.860322 165.305978 
L 617.23608 165.369707 
L 617.611837 165.622049 
L 618.363352 165.426455 
L 619.114867 165.50094 
L 619.490625 165.154777 
L 619.866383 165.524367 
L 620.617898 165.410721 
L 621.369413 165.263614 
L 621.74517 165.499795 
L 622.496686 165.187199 
L 622.872443 165.160398 
L 623.248201 165.368079 
L 623.623958 165.306856 
L 623.999716 165.127878 
L 624.375473 165.301659 
L 624.751231 165.681492 
L 625.126989 165.48874 
L 625.126989 165.48874 
" clip-path="url(#p29da2745a0)" style="fill: none; stroke: #1f77b4; stroke-width: 1.5; stroke-linecap: square"/>
   </g>
   <g id="line2d_16">
    <path d="M 117.854261 279.873572 
L 118.230019 296.03625 
L 118.605777 229.281287 
L 118.981534 236.122226 
L 119.357292 248.683705 
L 119.733049 218.367146 
L 120.108807 218.400539 
L 120.484564 211.195002 
L 120.860322 212.309144 
L 121.23608 198.962672 
L 121.611837 190.346982 
L 121.987595 196.462808 
L 122.363352 197.599644 
L 122.73911 188.094759 
L 123.114867 190.045917 
L 123.866383 182.039231 
L 124.24214 184.063975 
L 124.617898 178.165499 
L 124.993655 185.158377 
L 125.369413 189.378565 
L 125.74517 176.672747 
L 126.496686 183.472574 
L 126.872443 179.997455 
L 127.248201 178.764802 
L 127.623958 179.431397 
L 127.999716 182.701853 
L 128.375473 182.914498 
L 129.126989 177.760056 
L 129.502746 179.800106 
L 129.878504 178.200928 
L 130.254261 177.564652 
L 130.630019 182.456204 
L 131.005777 180.002798 
L 131.381534 180.160606 
L 131.757292 177.633725 
L 132.133049 171.751738 
L 132.508807 175.715035 
L 132.884564 176.917602 
L 133.260322 180.125995 
L 134.011837 181.196825 
L 134.387595 177.825646 
L 134.763352 172.58093 
L 135.13911 176.092026 
L 135.514867 173.568487 
L 135.890625 176.855695 
L 136.266383 172.650635 
L 136.64214 173.922036 
L 137.017898 173.975875 
L 137.393655 176.504977 
L 137.769413 175.221635 
L 138.14517 174.523708 
L 138.520928 174.930204 
L 138.896686 173.528425 
L 139.272443 173.39019 
L 139.648201 173.696387 
L 140.023958 172.941273 
L 140.399716 173.272394 
L 140.775473 172.507198 
L 141.151231 171.465539 
L 141.526989 173.366213 
L 141.902746 174.304074 
L 142.278504 173.084636 
L 143.030019 171.892487 
L 143.405777 173.810638 
L 143.781534 171.464085 
L 144.157292 172.166575 
L 144.533049 171.781889 
L 144.908807 173.27443 
L 145.284564 173.75368 
L 145.660322 172.98322 
L 146.03608 172.752532 
L 146.411837 171.319888 
L 146.787595 172.930911 
L 147.914867 172.06188 
L 148.290625 172.467343 
L 148.666383 173.41976 
L 149.04214 172.478722 
L 149.417898 172.219409 
L 149.793655 172.697218 
L 150.169413 171.90948 
L 150.54517 172.378783 
L 150.920928 171.586432 
L 151.296686 171.869044 
L 151.672443 171.526817 
L 152.048201 170.921173 
L 152.799716 171.83602 
L 153.175473 171.57401 
L 153.551231 170.570799 
L 153.926989 170.899908 
L 154.302746 170.631288 
L 154.678504 170.626831 
L 155.054261 171.536026 
L 155.430019 171.903319 
L 156.181534 170.543677 
L 156.557292 170.406881 
L 156.933049 171.779958 
L 157.308807 171.60602 
L 157.684564 170.761067 
L 158.060322 171.723131 
L 158.43608 172.054827 
L 158.811837 171.475037 
L 159.187595 172.41331 
L 159.563352 170.467703 
L 159.93911 170.643053 
L 160.314867 171.659859 
L 160.690625 172.318618 
L 161.066383 171.77277 
L 161.44214 170.608154 
L 161.817898 170.90237 
L 162.193655 170.988016 
L 162.569413 171.349299 
L 162.94517 171.397261 
L 163.320928 170.114963 
L 163.696686 170.751939 
L 164.072443 170.629996 
L 164.448201 170.773039 
L 164.823958 169.586336 
L 165.199716 171.048779 
L 165.575473 172.064358 
L 165.951231 170.821795 
L 166.326989 170.186214 
L 166.702746 171.034565 
L 167.078504 170.430537 
L 167.454261 170.719736 
L 167.830019 170.830545 
L 168.581534 170.704124 
L 169.708807 171.807075 
L 170.084564 170.82302 
L 170.460322 170.941997 
L 170.83608 170.739885 
L 171.211837 171.1053 
L 171.963352 170.846343 
L 172.33911 170.275569 
L 172.714867 171.007003 
L 173.090625 170.317854 
L 173.466383 170.045591 
L 173.84214 170.058158 
L 174.217898 169.565035 
L 174.593655 171.321042 
L 174.969413 170.030748 
L 175.34517 170.162693 
L 175.720928 170.965113 
L 176.096686 171.410399 
L 176.472443 170.487894 
L 176.848201 170.52781 
L 177.223958 170.74821 
L 177.599716 170.162101 
L 177.975473 170.190171 
L 178.726989 171.636929 
L 179.102746 170.866164 
L 179.478504 170.810881 
L 180.230019 171.681934 
L 180.605777 170.616611 
L 180.981534 170.565592 
L 181.357292 171.141648 
L 181.733049 170.184501 
L 182.108807 171.161076 
L 182.484564 170.901531 
L 182.860322 170.791018 
L 183.23608 171.147726 
L 183.611837 171.722995 
L 183.987595 172.623044 
L 184.363352 171.459207 
L 184.73911 171.681699 
L 185.114867 171.57636 
L 185.490625 172.06863 
L 185.866383 171.753699 
L 186.24214 172.544106 
L 186.617898 171.423933 
L 186.993655 171.005426 
L 187.369413 171.843317 
L 188.120928 171.640797 
L 188.872443 172.14075 
L 189.623958 172.954871 
L 190.375473 172.095974 
L 190.751231 172.188807 
L 191.126989 173.760838 
L 191.502746 172.562795 
L 192.254261 173.052606 
L 192.630019 172.443163 
L 193.005777 173.142692 
L 193.381534 172.775511 
L 194.133049 173.084929 
L 194.508807 173.920099 
L 194.884564 173.144824 
L 195.260322 172.101883 
L 195.63608 172.398162 
L 196.011837 172.541096 
L 196.387595 172.803393 
L 196.763352 172.85655 
L 197.13911 172.351432 
L 197.514867 171.509069 
L 197.890625 171.321223 
L 198.266383 171.419382 
L 198.64214 171.285774 
L 199.017898 172.108168 
L 199.769413 171.253369 
L 200.520928 172.49078 
L 200.896686 172.608069 
L 201.272443 173.112575 
L 201.648201 172.269899 
L 202.023958 171.918521 
L 202.399716 172.153425 
L 202.775473 172.02884 
L 203.151231 172.719266 
L 203.902746 172.177208 
L 204.278504 172.423473 
L 204.654261 172.513332 
L 205.030019 172.845066 
L 205.405777 172.658453 
L 205.781534 171.245621 
L 206.157292 172.38168 
L 206.533049 172.28215 
L 206.908807 173.372593 
L 207.284564 172.186195 
L 207.660322 172.165862 
L 208.411837 172.337176 
L 209.163352 171.738366 
L 209.53911 171.665087 
L 209.914867 172.437338 
L 210.290625 172.733014 
L 210.666383 172.696569 
L 211.04214 172.782286 
L 211.417898 172.151995 
L 211.793655 172.602721 
L 212.54517 172.812256 
L 212.920928 172.508644 
L 213.296686 172.662115 
L 213.672443 172.388833 
L 214.048201 172.616574 
L 214.423958 172.498701 
L 214.799716 172.122567 
L 215.175473 172.47289 
L 215.551231 172.364584 
L 216.302746 172.871487 
L 216.678504 172.517568 
L 217.430019 172.59048 
L 218.181534 172.624459 
L 218.557292 173.175465 
L 218.933049 172.992484 
L 219.308807 172.353261 
L 219.684564 172.5161 
L 220.060322 172.116873 
L 220.43608 171.884285 
L 220.811837 172.097075 
L 221.187595 172.109714 
L 221.563352 171.864138 
L 221.93911 171.240428 
L 222.314867 171.567323 
L 222.690625 172.146654 
L 223.066383 171.994954 
L 223.44214 171.425419 
L 224.94517 171.522025 
L 225.320928 171.31688 
L 225.696686 171.770494 
L 226.072443 171.386278 
L 226.448201 171.928892 
L 226.823958 171.259012 
L 227.199716 171.4512 
L 227.575473 170.369318 
L 227.951231 170.40821 
L 228.326989 171.24932 
L 229.078504 171.645808 
L 229.454261 171.432089 
L 229.830019 170.870355 
L 230.205777 170.705431 
L 230.957292 171.496114 
L 231.333049 171.357391 
L 231.708807 171.090043 
L 232.460322 171.195128 
L 232.83608 170.567788 
L 233.211837 171.1952 
L 233.587595 171.372187 
L 234.33911 171.282026 
L 234.714867 171.504699 
L 235.090625 171.413546 
L 235.466383 171.482663 
L 235.84214 171.283417 
L 236.217898 170.488237 
L 236.593655 170.14749 
L 236.969413 170.217916 
L 237.34517 170.620474 
L 237.720928 170.588689 
L 238.096686 170.770071 
L 238.472443 171.479387 
L 238.848201 171.577134 
L 239.975473 169.732971 
L 240.726989 170.853654 
L 241.102746 171.834664 
L 241.854261 169.863961 
L 242.230019 170.01213 
L 242.605777 170.679295 
L 242.981534 170.809484 
L 243.357292 170.373653 
L 243.733049 170.646982 
L 244.108807 170.706901 
L 244.484564 171.397387 
L 244.860322 171.649515 
L 245.23608 170.914472 
L 245.987595 171.327974 
L 246.363352 171.237939 
L 246.73911 171.673736 
L 247.490625 171.156738 
L 247.866383 171.678756 
L 248.24214 171.908632 
L 248.617898 171.920126 
L 248.993655 172.136642 
L 249.369413 171.43629 
L 249.74517 172.067896 
L 250.120928 171.752724 
L 250.496686 171.255918 
L 250.872443 171.689928 
L 251.248201 171.761018 
L 251.623958 171.126637 
L 251.999716 171.644371 
L 252.375473 171.762199 
L 252.751231 171.024279 
L 253.126989 170.619721 
L 253.878504 171.182932 
L 254.254261 171.228709 
L 254.630019 172.165991 
L 255.005777 170.488334 
L 255.381534 170.738428 
L 256.133049 170.361173 
L 256.884564 170.765861 
L 257.260322 170.67092 
L 257.63608 170.332637 
L 258.011837 170.253046 
L 258.763352 170.94447 
L 259.13911 170.847824 
L 260.266383 170.808926 
L 260.64214 170.111458 
L 261.017898 170.489234 
L 261.393655 170.271381 
L 261.769413 170.959132 
L 262.14517 170.820191 
L 262.520928 170.369069 
L 262.896686 170.638293 
L 263.648201 170.1911 
L 264.023958 170.466663 
L 264.399716 170.581859 
L 264.775473 171.227926 
L 265.151231 170.580491 
L 265.526989 170.653676 
L 265.902746 170.451126 
L 266.278504 170.944141 
L 267.405777 170.110239 
L 267.781534 170.330278 
L 268.157292 171.00966 
L 268.908807 170.360234 
L 269.660322 170.717318 
L 270.03608 170.471237 
L 270.411837 170.075147 
L 270.787595 170.575221 
L 271.163352 170.607303 
L 271.53911 171.228849 
L 272.290625 170.540423 
L 272.666383 170.754063 
L 273.04214 170.564182 
L 273.417898 170.554935 
L 274.169413 171.075504 
L 274.920928 170.495544 
L 275.296686 170.914215 
L 275.672443 170.258211 
L 276.048201 170.444911 
L 276.423958 171.156295 
L 276.799716 170.631476 
L 277.175473 170.687671 
L 277.551231 170.969143 
L 277.926989 171.027482 
L 278.302746 170.651871 
L 278.678504 171.264681 
L 279.054261 170.833352 
L 279.430019 171.104245 
L 279.805777 171.049843 
L 280.181534 170.797557 
L 280.557292 171.194854 
L 280.933049 170.688947 
L 281.308807 170.853175 
L 282.43608 170.609858 
L 282.811837 170.932736 
L 283.187595 170.881473 
L 284.314867 171.164751 
L 284.690625 171.039106 
L 285.066383 171.263688 
L 285.817898 170.682666 
L 286.193655 171.0841 
L 286.569413 170.865254 
L 286.94517 170.919221 
L 287.696686 169.970601 
L 288.072443 170.716222 
L 289.199716 170.824175 
L 289.575473 171.040578 
L 289.951231 170.842447 
L 290.326989 171.139937 
L 290.702746 170.725562 
L 291.078504 170.723661 
L 291.454261 171.404812 
L 291.830019 171.520254 
L 292.205777 171.04479 
L 292.581534 171.109308 
L 292.957292 170.499166 
L 293.333049 170.538778 
L 293.708807 170.372335 
L 294.084564 170.553715 
L 294.460322 170.509947 
L 294.83608 170.322723 
L 295.211837 170.603899 
L 295.587595 170.523176 
L 295.963352 171.179263 
L 296.33911 170.524289 
L 296.714867 170.359959 
L 297.090625 170.562681 
L 298.217898 170.824989 
L 298.593655 171.195004 
L 298.969413 170.871304 
L 299.34517 170.723989 
L 300.472443 170.931994 
L 300.848201 170.610474 
L 301.599716 170.723797 
L 301.975473 170.663586 
L 302.351231 170.220067 
L 302.726989 170.623727 
L 303.102746 170.470245 
L 303.478504 170.651572 
L 304.230019 170.687737 
L 304.605777 170.913263 
L 304.981534 171.407915 
L 305.357292 171.001143 
L 305.733049 171.088535 
L 306.108807 170.53874 
L 306.484564 170.487934 
L 306.860322 170.994191 
L 307.23608 170.748104 
L 307.611837 170.35788 
L 307.987595 170.819966 
L 309.490625 170.541169 
L 309.866383 171.107514 
L 310.24214 171.014682 
L 310.617898 170.751041 
L 310.993655 171.028125 
L 311.369413 170.895951 
L 311.74517 171.079823 
L 312.120928 170.895905 
L 312.872443 171.318046 
L 313.248201 171.257973 
L 313.623958 170.889967 
L 313.999716 171.1763 
L 314.375473 170.916294 
L 314.751231 171.377944 
L 315.126989 171.162762 
L 315.502746 171.180479 
L 315.878504 170.558245 
L 316.630019 171.548957 
L 317.005777 171.032995 
L 317.381534 171.463148 
L 317.757292 170.882761 
L 318.133049 170.59282 
L 318.508807 171.253108 
L 318.884564 170.78524 
L 319.260322 171.021826 
L 320.011837 170.645328 
L 320.387595 171.000515 
L 320.763352 170.860525 
L 321.514867 171.094552 
L 321.890625 170.364914 
L 322.266383 170.866997 
L 322.64214 170.831859 
L 323.017898 171.290416 
L 323.393655 171.293254 
L 323.769413 170.908916 
L 324.14517 171.048758 
L 324.520928 170.913447 
L 324.896686 171.070581 
L 325.272443 170.749205 
L 326.023958 170.848254 
L 326.399716 170.962731 
L 327.151231 170.782693 
L 327.526989 170.933034 
L 327.902746 170.949966 
L 328.278504 171.301036 
L 328.654261 169.332539 
L 329.030019 169.926711 
L 329.781534 170.49499 
L 330.533049 170.405228 
L 331.660322 170.811339 
L 332.03608 170.612967 
L 332.411837 170.642198 
L 332.787595 170.455008 
L 333.163352 170.731423 
L 333.914867 170.809703 
L 334.290625 170.577778 
L 334.666383 170.505986 
L 335.04214 170.677812 
L 336.169413 170.609635 
L 336.54517 170.225772 
L 336.920928 170.528325 
L 337.296686 170.568146 
L 337.672443 170.439006 
L 338.048201 170.782697 
L 338.423958 170.641427 
L 338.799716 170.035326 
L 339.175473 170.041078 
L 339.926989 171.248826 
L 340.302746 170.746982 
L 341.054261 170.667659 
L 341.430019 170.477283 
L 341.805777 171.042017 
L 342.181534 170.825114 
L 342.557292 171.00509 
L 342.933049 171.56915 
L 343.308807 171.049443 
L 343.684564 170.327246 
L 344.060322 170.535135 
L 344.43608 170.962961 
L 344.811837 170.77303 
L 345.187595 170.441492 
L 345.563352 170.657906 
L 345.93911 170.720379 
L 346.314867 170.290958 
L 346.690625 170.997113 
L 347.066383 170.501205 
L 347.44214 171.006051 
L 347.817898 170.707502 
L 348.193655 170.674827 
L 348.569413 170.45803 
L 348.94517 170.61639 
L 349.320928 172.325143 
L 349.696686 171.185924 
L 350.072443 171.618554 
L 350.448201 170.854029 
L 350.823958 170.917794 
L 351.199716 171.271686 
L 351.575473 170.88346 
L 351.951231 171.182975 
L 352.702746 170.945011 
L 353.078504 170.78515 
L 353.454261 171.311183 
L 353.830019 171.256314 
L 354.205777 170.719517 
L 354.581534 171.386026 
L 354.957292 170.838861 
L 355.708807 171.202269 
L 356.084564 170.874266 
L 356.460322 170.84593 
L 356.83608 170.54823 
L 357.211837 170.867128 
L 357.963352 170.53779 
L 358.33911 170.924849 
L 358.714867 171.054051 
L 359.090625 171.547175 
L 359.466383 170.712395 
L 359.84214 170.824263 
L 360.217898 171.641213 
L 360.593655 171.108665 
L 360.969413 171.620599 
L 361.34517 171.096028 
L 361.720928 171.280202 
L 362.096686 170.916987 
L 362.472443 171.126795 
L 362.848201 171.162409 
L 363.223958 170.940667 
L 363.599716 171.351826 
L 363.975473 170.151216 
L 364.351231 170.686556 
L 364.726989 170.974301 
L 365.102746 170.84513 
L 365.478504 171.255612 
L 366.981534 171.129073 
L 367.357292 170.605783 
L 367.733049 170.924165 
L 368.484564 170.892578 
L 368.860322 171.174157 
L 370.363352 171.039056 
L 370.73911 170.75442 
L 371.114867 170.972632 
L 371.490625 170.780145 
L 371.866383 171.070128 
L 372.24214 170.743612 
L 372.617898 170.932481 
L 373.369413 170.893091 
L 374.496686 170.910405 
L 374.872443 170.771546 
L 375.248201 170.408399 
L 375.623958 170.846615 
L 376.375473 171.151511 
L 376.751231 171.363946 
L 377.126989 171.270962 
L 377.502746 170.580653 
L 377.878504 171.562097 
L 378.254261 170.570145 
L 378.630019 171.126438 
L 379.005777 171.103101 
L 379.381534 170.853095 
L 379.757292 170.920671 
L 380.133049 170.615124 
L 380.508807 170.682173 
L 380.884564 170.591477 
L 381.260322 170.385041 
L 381.63608 170.625611 
L 382.011837 170.422309 
L 382.387595 170.678709 
L 382.763352 170.575004 
L 383.890625 169.848171 
L 384.266383 170.460824 
L 384.64214 170.255669 
L 385.017898 171.026152 
L 385.393655 170.522831 
L 385.769413 170.536451 
L 386.14517 170.135789 
L 386.520928 170.098764 
L 387.648201 170.710914 
L 388.023958 170.414901 
L 388.399716 170.63194 
L 388.775473 170.129311 
L 389.151231 170.130603 
L 389.902746 169.887663 
L 390.278504 169.874953 
L 390.654261 170.316266 
L 391.030019 170.502616 
L 391.781534 170.119472 
L 392.157292 170.159134 
L 392.533049 170.662215 
L 393.284564 170.279717 
L 394.03608 170.34651 
L 394.411837 170.069146 
L 394.787595 170.374545 
L 395.163352 170.491802 
L 395.53911 170.216185 
L 395.914867 170.749537 
L 396.290625 170.813786 
L 396.666383 170.617648 
L 397.04214 170.661828 
L 397.417898 170.133418 
L 397.793655 170.464369 
L 398.169413 170.979377 
L 399.296686 170.197248 
L 399.672443 170.520642 
L 400.048201 170.321574 
L 400.423958 170.425701 
L 400.799716 170.117817 
L 401.175473 170.439945 
L 401.551231 170.242221 
L 401.926989 170.408411 
L 402.678504 170.060405 
L 403.054261 170.250804 
L 403.430019 170.167196 
L 403.805777 170.302541 
L 404.557292 170.212723 
L 404.933049 170.535555 
L 405.308807 170.368037 
L 405.684564 170.546681 
L 406.060322 170.03399 
L 406.43608 170.354272 
L 406.811837 170.124131 
L 407.187595 170.374013 
L 407.563352 170.083487 
L 407.93911 170.100018 
L 408.314867 169.97173 
L 408.690625 170.318687 
L 409.066383 170.376881 
L 409.44214 170.122507 
L 409.817898 170.314316 
L 410.193655 170.073596 
L 410.569413 170.370768 
L 410.94517 170.264862 
L 411.320928 170.412241 
L 411.696686 170.838574 
L 412.072443 170.282593 
L 412.448201 170.348494 
L 412.823958 169.93179 
L 413.199716 170.131248 
L 413.575473 169.840465 
L 413.951231 170.324899 
L 414.702746 170.065878 
L 415.078504 169.89356 
L 415.454261 169.855657 
L 415.830019 170.009696 
L 416.205777 170.493488 
L 416.581534 170.242058 
L 417.333049 170.538344 
L 417.708807 170.252216 
L 418.084564 170.415828 
L 418.460322 170.044925 
L 418.83608 170.063647 
L 419.211837 169.915651 
L 419.587595 170.417419 
L 419.963352 170.427913 
L 420.33911 170.846237 
L 421.090625 170.142493 
L 421.466383 170.341243 
L 421.84214 170.691597 
L 422.593655 170.892928 
L 423.34517 171.120652 
L 423.720928 170.728451 
L 424.096686 170.85151 
L 424.472443 171.110739 
L 425.599716 170.77133 
L 425.975473 170.90171 
L 426.351231 170.854564 
L 426.726989 170.925761 
L 427.102746 170.649481 
L 427.478504 170.805442 
L 427.854261 170.81924 
L 428.230019 170.559292 
L 428.605777 171.124981 
L 428.981534 171.2993 
L 429.357292 170.762827 
L 429.733049 171.028866 
L 430.108807 171.09506 
L 430.484564 171.609669 
L 430.860322 171.188789 
L 431.23608 171.281541 
L 431.611837 170.928361 
L 431.987595 171.110586 
L 432.363352 171.089306 
L 432.73911 170.879606 
L 433.114867 170.860786 
L 433.490625 171.113281 
L 433.866383 170.846153 
L 434.24214 171.311583 
L 434.617898 171.210715 
L 434.993655 170.668596 
L 435.369413 170.869015 
L 435.74517 170.589399 
L 436.120928 170.871449 
L 436.872443 170.943933 
L 437.248201 170.6563 
L 437.623958 170.771053 
L 437.999716 170.48415 
L 438.751231 170.756563 
L 439.126989 170.709858 
L 439.502746 171.286731 
L 439.878504 170.91314 
L 440.254261 171.253242 
L 440.630019 170.921944 
L 441.005777 171.252282 
L 441.381534 171.17014 
L 441.757292 170.884132 
L 443.63608 171.057768 
L 444.011837 170.745244 
L 444.763352 170.677015 
L 445.13911 170.763415 
L 445.890625 170.263252 
L 446.266383 170.507545 
L 447.017898 170.363127 
L 447.393655 170.089164 
L 447.769413 170.420628 
L 448.520928 170.016914 
L 448.896686 170.271502 
L 449.648201 170.023458 
L 450.023958 170.0542 
L 450.399716 170.479579 
L 450.775473 170.578667 
L 451.151231 170.33761 
L 451.526989 170.646129 
L 451.902746 170.686021 
L 452.278504 170.881125 
L 452.654261 169.948732 
L 453.030019 170.562044 
L 453.405777 170.569201 
L 453.781534 170.025146 
L 454.157292 170.052905 
L 454.533049 170.286068 
L 454.908807 170.3356 
L 455.284564 170.798744 
L 455.660322 170.779287 
L 456.03608 170.29529 
L 456.787595 170.692191 
L 457.163352 170.394517 
L 457.53911 170.509295 
L 458.290625 170.40034 
L 458.666383 170.642438 
L 459.04214 170.573191 
L 459.417898 170.667713 
L 459.793655 170.879313 
L 460.169413 170.661327 
L 460.54517 170.73691 
L 461.296686 170.677608 
L 463.551231 171.002538 
L 463.926989 170.756244 
L 464.302746 170.773272 
L 464.678504 170.959438 
L 465.054261 170.699644 
L 465.430019 170.73429 
L 465.805777 170.607199 
L 466.181534 170.750103 
L 466.557292 170.540203 
L 466.933049 170.746863 
L 467.308807 170.659646 
L 467.684564 170.310499 
L 468.060322 170.374529 
L 468.43608 170.569105 
L 468.811837 170.573168 
L 469.187595 170.405482 
L 469.563352 170.816978 
L 469.93911 170.724727 
L 470.314867 171.17465 
L 470.690625 170.950989 
L 471.066383 171.001581 
L 471.817898 170.53722 
L 472.193655 170.852213 
L 472.569413 170.498689 
L 473.320928 171.005971 
L 473.696686 171.086147 
L 474.448201 170.613077 
L 474.823958 170.319721 
L 475.199716 170.728763 
L 475.575473 170.588431 
L 475.951231 170.748251 
L 477.078504 170.580194 
L 477.454261 170.195688 
L 477.830019 170.678286 
L 478.205777 170.480931 
L 478.581534 170.718711 
L 478.957292 170.205389 
L 479.333049 170.797843 
L 480.460322 170.251503 
L 480.83608 170.461242 
L 481.587595 170.313301 
L 481.963352 170.534969 
L 483.090625 170.15283 
L 483.466383 170.295025 
L 483.84214 170.048229 
L 484.217898 170.114739 
L 484.593655 170.512989 
L 485.34517 170.335186 
L 485.720928 170.362647 
L 486.096686 170.239345 
L 486.472443 170.399845 
L 486.848201 170.682307 
L 487.223958 170.579261 
L 487.599716 170.628872 
L 487.975473 170.225182 
L 488.351231 170.154729 
L 488.726989 170.570562 
L 489.478504 170.44947 
L 489.854261 170.764033 
L 490.230019 170.149969 
L 490.605777 170.511641 
L 490.981534 170.036745 
L 491.357292 170.239178 
L 491.733049 170.244168 
L 492.108807 170.013723 
L 492.484564 170.385081 
L 492.860322 170.565675 
L 493.23608 170.114187 
L 493.611837 170.497564 
L 493.987595 169.853196 
L 494.363352 170.456234 
L 495.114867 170.205666 
L 495.490625 170.390788 
L 495.866383 170.061969 
L 496.24214 170.135122 
L 496.993655 170.470297 
L 497.74517 170.440059 
L 498.120928 170.413844 
L 498.496686 170.155735 
L 498.872443 170.631221 
L 499.248201 170.331966 
L 499.623958 170.239005 
L 499.999716 169.896883 
L 500.375473 170.209516 
L 500.751231 170.162665 
L 501.126989 170.404332 
L 501.502746 170.344384 
L 501.878504 170.42002 
L 502.254261 170.657113 
L 502.630019 170.320771 
L 503.005777 170.603148 
L 503.757292 170.770289 
L 504.133049 171.228524 
L 506.011837 170.576857 
L 506.387595 170.560361 
L 506.763352 170.409331 
L 507.13911 170.441528 
L 507.514867 170.648481 
L 507.890625 170.514168 
L 508.64214 170.412106 
L 509.017898 170.63745 
L 509.769413 170.266096 
L 510.14517 170.254527 
L 510.520928 170.654633 
L 511.272443 170.224479 
L 511.648201 170.088686 
L 512.023958 170.456989 
L 512.399716 170.40277 
L 512.775473 170.168849 
L 513.151231 170.531798 
L 513.526989 170.182117 
L 513.902746 170.595361 
L 514.278504 170.551233 
L 514.654261 170.886565 
L 515.030019 170.186528 
L 515.405777 170.777777 
L 515.781534 170.435066 
L 516.157292 170.396211 
L 516.533049 170.587465 
L 516.908807 170.233774 
L 517.284564 170.549602 
L 518.03608 170.398302 
L 518.411837 170.511693 
L 518.787595 171.166909 
L 519.163352 169.90524 
L 519.53911 170.502048 
L 519.914867 170.226683 
L 520.290625 170.297527 
L 520.666383 170.694603 
L 521.04214 170.384832 
L 521.417898 170.260816 
L 521.793655 170.573808 
L 522.169413 170.430531 
L 522.54517 170.868914 
L 522.920928 170.484324 
L 523.672443 170.196895 
L 524.048201 170.638435 
L 524.423958 170.465257 
L 524.799716 170.500538 
L 525.175473 170.747357 
L 525.551231 170.377012 
L 525.926989 170.281126 
L 526.302746 170.436639 
L 526.678504 170.258582 
L 527.054261 170.23765 
L 527.430019 170.083642 
L 527.805777 170.344276 
L 528.181534 170.382209 
L 528.557292 170.772592 
L 528.933049 170.478221 
L 529.684564 170.600297 
L 530.060322 170.867239 
L 530.43608 170.437768 
L 531.187595 170.493132 
L 531.563352 170.363617 
L 532.314867 170.739448 
L 532.690625 170.380923 
L 533.44214 170.807733 
L 533.817898 170.386541 
L 534.94517 170.382289 
L 535.320928 170.859489 
L 535.696686 170.555383 
L 536.072443 170.618773 
L 536.823958 170.42805 
L 537.199716 170.670602 
L 537.951231 170.698931 
L 538.326989 170.863229 
L 539.078504 170.386751 
L 539.454261 170.249012 
L 539.830019 170.296039 
L 540.205777 170.823523 
L 540.581534 170.421857 
L 540.957292 170.265593 
L 541.708807 171.063652 
L 542.460322 170.638225 
L 542.83608 171.180404 
L 543.211837 170.643681 
L 543.587595 170.532616 
L 544.33911 170.540122 
L 544.714867 170.233207 
L 545.090625 170.540417 
L 545.466383 170.245143 
L 545.84214 170.352134 
L 546.217898 170.304395 
L 546.969413 170.859982 
L 547.34517 170.240652 
L 547.720928 170.057575 
L 548.096686 170.050911 
L 548.472443 170.762939 
L 549.223958 170.172914 
L 549.975473 170.526685 
L 551.102746 170.398742 
L 551.478504 170.623417 
L 552.230019 169.988015 
L 552.605777 170.239757 
L 553.357292 170.395402 
L 553.733049 170.336346 
L 554.108807 169.81964 
L 554.484564 170.311265 
L 555.23608 169.783199 
L 555.611837 170.624094 
L 556.363352 170.35223 
L 556.73911 170.435739 
L 557.114867 170.26328 
L 557.490625 170.65577 
L 557.866383 170.671847 
L 558.24214 170.167598 
L 558.617898 170.374515 
L 558.993655 170.228043 
L 559.369413 170.352585 
L 560.120928 170.381284 
L 560.496686 170.718997 
L 561.248201 170.719208 
L 561.623958 170.905696 
L 561.999716 170.597329 
L 562.375473 170.551678 
L 562.751231 170.308314 
L 563.126989 170.611617 
L 563.502746 170.4794 
L 563.878504 169.871969 
L 564.254261 170.722698 
L 564.630019 170.682401 
L 565.005777 170.094838 
L 565.381534 170.241462 
L 565.757292 170.528314 
L 566.133049 170.133133 
L 566.508807 170.365091 
L 566.884564 170.09935 
L 567.63608 170.587396 
L 568.011837 170.737262 
L 568.387595 170.425347 
L 568.763352 170.553876 
L 569.13911 170.454318 
L 569.514867 170.172806 
L 569.890625 170.173519 
L 570.266383 170.34265 
L 571.017898 170.292417 
L 571.393655 170.152405 
L 571.769413 170.394686 
L 572.520928 170.387164 
L 572.896686 169.997105 
L 573.272443 170.396244 
L 573.648201 170.131163 
L 574.023958 170.412408 
L 575.526989 170.273136 
L 575.902746 170.649423 
L 576.278504 170.607917 
L 576.654261 170.261428 
L 577.781534 170.393654 
L 578.157292 170.169015 
L 578.533049 170.152554 
L 579.284564 170.530669 
L 579.660322 170.445928 
L 580.03608 170.506006 
L 580.411837 170.295568 
L 580.787595 170.64945 
L 581.163352 170.609979 
L 581.53911 170.363366 
L 582.666383 170.544431 
L 583.04214 170.510515 
L 583.417898 170.588862 
L 584.169413 170.539724 
L 584.54517 170.748594 
L 584.920928 170.722735 
L 585.296686 170.445318 
L 586.048201 170.952351 
L 586.423958 170.682579 
L 587.175473 170.665574 
L 587.551231 170.733615 
L 587.926989 170.295217 
L 588.302746 170.676239 
L 590.181534 170.393075 
L 591.308807 169.780493 
L 591.684564 170.378136 
L 592.060322 170.655222 
L 592.811837 170.164862 
L 593.187595 170.309889 
L 593.563352 170.330768 
L 593.93911 170.489996 
L 594.314867 170.042483 
L 594.690625 170.439047 
L 595.44214 170.562297 
L 595.817898 170.063383 
L 596.569413 170.411481 
L 597.320928 169.957629 
L 598.072443 170.369044 
L 598.448201 170.135743 
L 598.823958 170.603576 
L 599.199716 170.28128 
L 599.575473 170.623768 
L 599.951231 170.606179 
L 600.326989 170.256719 
L 600.702746 170.633676 
L 601.454261 170.045871 
L 601.830019 170.374341 
L 602.205777 170.483257 
L 602.581534 170.208235 
L 602.957292 170.320007 
L 603.333049 170.663655 
L 603.708807 170.506491 
L 604.084564 170.665546 
L 604.460322 170.384405 
L 605.211837 170.582592 
L 605.587595 170.749544 
L 606.33911 170.723543 
L 606.714867 170.890519 
L 607.090625 170.271498 
L 607.466383 170.698199 
L 607.84214 170.557686 
L 608.217898 170.613648 
L 608.969413 170.997659 
L 609.34517 170.573588 
L 609.720928 170.467432 
L 610.096686 170.898174 
L 610.848201 170.193471 
L 611.223958 170.310352 
L 611.599716 170.190545 
L 611.975473 170.644672 
L 612.351231 170.263241 
L 612.726989 170.775145 
L 613.102746 170.525173 
L 613.478504 170.517206 
L 613.854261 170.806731 
L 614.230019 170.759528 
L 614.981534 170.374285 
L 615.357292 170.633155 
L 615.733049 170.589507 
L 616.108807 170.102548 
L 616.484564 170.568043 
L 616.860322 170.330495 
L 617.23608 170.345015 
L 617.611837 170.496058 
L 617.987595 170.459066 
L 618.363352 170.151635 
L 618.73911 170.271258 
L 619.490625 170.705217 
L 619.866383 170.778941 
L 620.617898 170.493705 
L 620.993655 170.878474 
L 621.369413 170.521978 
L 621.74517 170.462177 
L 622.120928 170.670536 
L 622.496686 170.265916 
L 622.872443 170.462756 
L 623.248201 170.367111 
L 623.623958 170.611585 
L 623.999716 170.380179 
L 624.375473 170.30174 
L 624.751231 170.685449 
L 625.126989 170.554379 
L 625.126989 170.554379 
" clip-path="url(#p29da2745a0)" style="fill: none; stroke: #ff7f0e; stroke-width: 1.5; stroke-linecap: square"/>
   </g>
   <g id="patch_3">
    <path d="M 92.490625 308.63625 
L 92.490625 31.43625 
" style="fill: none; stroke: #000000; stroke-width: 0.8; stroke-linejoin: miter; stroke-linecap: square"/>
   </g>
   <g id="patch_4">
    <path d="M 650.490625 308.63625 
L 650.490625 31.43625 
" style="fill: none; stroke: #000000; stroke-width: 0.8; stroke-linejoin: miter; stroke-linecap: square"/>
   </g>
   <g id="patch_5">
    <path d="M 92.490625 308.63625 
L 650.490625 308.63625 
" style="fill: none; stroke: #000000; stroke-width: 0.8; stroke-linejoin: miter; stroke-linecap: square"/>
   </g>
   <g id="patch_6">
    <path d="M 92.490625 31.43625 
L 650.490625 31.43625 
" style="fill: none; stroke: #000000; stroke-width: 0.8; stroke-linejoin: miter; stroke-linecap: square"/>
   </g>
   <g id="text_17">
    <!-- Generator and Discriminator Loss During Training -->
    <g transform="translate(74.258125 25.43625) scale(0.24 -0.24)">
     <defs>
      <path id="DejaVuSans-47" d="M 3809 666 
L 3809 1919 
L 2778 1919 
L 2778 2438 
L 4434 2438 
L 4434 434 
Q 4069 175 3628 42 
Q 3188 -91 2688 -91 
Q 1594 -91 976 548 
Q 359 1188 359 2328 
Q 359 3472 976 4111 
Q 1594 4750 2688 4750 
Q 3144 4750 3555 4637 
Q 3966 4525 4313 4306 
L 4313 3634 
Q 3963 3931 3569 4081 
Q 3175 4231 2741 4231 
Q 1884 4231 1454 3753 
Q 1025 3275 1025 2328 
Q 1025 1384 1454 906 
Q 1884 428 2741 428 
Q 3075 428 3337 486 
Q 3600 544 3809 666 
z
" transform="scale(0.015625)"/>
      <path id="DejaVuSans-20" transform="scale(0.015625)"/>
      <path id="DejaVuSans-64" d="M 2906 2969 
L 2906 4863 
L 3481 4863 
L 3481 0 
L 2906 0 
L 2906 525 
Q 2725 213 2448 61 
Q 2172 -91 1784 -91 
Q 1150 -91 751 415 
Q 353 922 353 1747 
Q 353 2572 751 3078 
Q 1150 3584 1784 3584 
Q 2172 3584 2448 3432 
Q 2725 3281 2906 2969 
z
M 947 1747 
Q 947 1113 1208 752 
Q 1469 391 1925 391 
Q 2381 391 2643 752 
Q 2906 1113 2906 1747 
Q 2906 2381 2643 2742 
Q 2381 3103 1925 3103 
Q 1469 3103 1208 2742 
Q 947 2381 947 1747 
z
" transform="scale(0.015625)"/>
      <path id="DejaVuSans-44" d="M 1259 4147 
L 1259 519 
L 2022 519 
Q 2988 519 3436 956 
Q 3884 1394 3884 2338 
Q 3884 3275 3436 3711 
Q 2988 4147 2022 4147 
L 1259 4147 
z
M 628 4666 
L 1925 4666 
Q 3281 4666 3915 4102 
Q 4550 3538 4550 2338 
Q 4550 1131 3912 565 
Q 3275 0 1925 0 
L 628 0 
L 628 4666 
z
" transform="scale(0.015625)"/>
      <path id="DejaVuSans-63" d="M 3122 3366 
L 3122 2828 
Q 2878 2963 2633 3030 
Q 2388 3097 2138 3097 
Q 1578 3097 1268 2742 
Q 959 2388 959 1747 
Q 959 1106 1268 751 
Q 1578 397 2138 397 
Q 2388 397 2633 464 
Q 2878 531 3122 666 
L 3122 134 
Q 2881 22 2623 -34 
Q 2366 -91 2075 -91 
Q 1284 -91 818 406 
Q 353 903 353 1747 
Q 353 2603 823 3093 
Q 1294 3584 2113 3584 
Q 2378 3584 2631 3529 
Q 2884 3475 3122 3366 
z
" transform="scale(0.015625)"/>
      <path id="DejaVuSans-6d" d="M 3328 2828 
Q 3544 3216 3844 3400 
Q 4144 3584 4550 3584 
Q 5097 3584 5394 3201 
Q 5691 2819 5691 2113 
L 5691 0 
L 5113 0 
L 5113 2094 
Q 5113 2597 4934 2840 
Q 4756 3084 4391 3084 
Q 3944 3084 3684 2787 
Q 3425 2491 3425 1978 
L 3425 0 
L 2847 0 
L 2847 2094 
Q 2847 2600 2669 2842 
Q 2491 3084 2119 3084 
Q 1678 3084 1418 2786 
Q 1159 2488 1159 1978 
L 1159 0 
L 581 0 
L 581 3500 
L 1159 3500 
L 1159 2956 
Q 1356 3278 1631 3431 
Q 1906 3584 2284 3584 
Q 2666 3584 2933 3390 
Q 3200 3197 3328 2828 
z
" transform="scale(0.015625)"/>
      <path id="DejaVuSans-75" d="M 544 1381 
L 544 3500 
L 1119 3500 
L 1119 1403 
Q 1119 906 1312 657 
Q 1506 409 1894 409 
Q 2359 409 2629 706 
Q 2900 1003 2900 1516 
L 2900 3500 
L 3475 3500 
L 3475 0 
L 2900 0 
L 2900 538 
Q 2691 219 2414 64 
Q 2138 -91 1772 -91 
Q 1169 -91 856 284 
Q 544 659 544 1381 
z
M 1991 3584 
L 1991 3584 
z
" transform="scale(0.015625)"/>
      <path id="DejaVuSans-67" d="M 2906 1791 
Q 2906 2416 2648 2759 
Q 2391 3103 1925 3103 
Q 1463 3103 1205 2759 
Q 947 2416 947 1791 
Q 947 1169 1205 825 
Q 1463 481 1925 481 
Q 2391 481 2648 825 
Q 2906 1169 2906 1791 
z
M 3481 434 
Q 3481 -459 3084 -895 
Q 2688 -1331 1869 -1331 
Q 1566 -1331 1297 -1286 
Q 1028 -1241 775 -1147 
L 775 -588 
Q 1028 -725 1275 -790 
Q 1522 -856 1778 -856 
Q 2344 -856 2625 -561 
Q 2906 -266 2906 331 
L 2906 616 
Q 2728 306 2450 153 
Q 2172 0 1784 0 
Q 1141 0 747 490 
Q 353 981 353 1791 
Q 353 2603 747 3093 
Q 1141 3584 1784 3584 
Q 2172 3584 2450 3431 
Q 2728 3278 2906 2969 
L 2906 3500 
L 3481 3500 
L 3481 434 
z
" transform="scale(0.015625)"/>
      <path id="DejaVuSans-54" d="M -19 4666 
L 3928 4666 
L 3928 4134 
L 2272 4134 
L 2272 0 
L 1638 0 
L 1638 4134 
L -19 4134 
L -19 4666 
z
" transform="scale(0.015625)"/>
     </defs>
     <use xlink:href="#DejaVuSans-47"/>
     <use xlink:href="#DejaVuSans-65" x="77.490234"/>
     <use xlink:href="#DejaVuSans-6e" x="139.013672"/>
     <use xlink:href="#DejaVuSans-65" x="202.392578"/>
     <use xlink:href="#DejaVuSans-72" x="263.916016"/>
     <use xlink:href="#DejaVuSans-61" x="305.029297"/>
     <use xlink:href="#DejaVuSans-74" x="366.308594"/>
     <use xlink:href="#DejaVuSans-6f" x="405.517578"/>
     <use xlink:href="#DejaVuSans-72" x="466.699219"/>
     <use xlink:href="#DejaVuSans-20" x="507.8125"/>
     <use xlink:href="#DejaVuSans-61" x="539.599609"/>
     <use xlink:href="#DejaVuSans-6e" x="600.878906"/>
     <use xlink:href="#DejaVuSans-64" x="664.257812"/>
     <use xlink:href="#DejaVuSans-20" x="727.734375"/>
     <use xlink:href="#DejaVuSans-44" x="759.521484"/>
     <use xlink:href="#DejaVuSans-69" x="836.523438"/>
     <use xlink:href="#DejaVuSans-73" x="864.306641"/>
     <use xlink:href="#DejaVuSans-63" x="916.40625"/>
     <use xlink:href="#DejaVuSans-72" x="971.386719"/>
     <use xlink:href="#DejaVuSans-69" x="1012.5"/>
     <use xlink:href="#DejaVuSans-6d" x="1040.283203"/>
     <use xlink:href="#DejaVuSans-69" x="1137.695312"/>
     <use xlink:href="#DejaVuSans-6e" x="1165.478516"/>
     <use xlink:href="#DejaVuSans-61" x="1228.857422"/>
     <use xlink:href="#DejaVuSans-74" x="1290.136719"/>
     <use xlink:href="#DejaVuSans-6f" x="1329.345703"/>
     <use xlink:href="#DejaVuSans-72" x="1390.527344"/>
     <use xlink:href="#DejaVuSans-20" x="1431.640625"/>
     <use xlink:href="#DejaVuSans-4c" x="1463.427734"/>
     <use xlink:href="#DejaVuSans-6f" x="1517.390625"/>
     <use xlink:href="#DejaVuSans-73" x="1578.572266"/>
     <use xlink:href="#DejaVuSans-73" x="1630.671875"/>
     <use xlink:href="#DejaVuSans-20" x="1682.771484"/>
     <use xlink:href="#DejaVuSans-44" x="1714.558594"/>
     <use xlink:href="#DejaVuSans-75" x="1791.560547"/>
     <use xlink:href="#DejaVuSans-72" x="1854.939453"/>
     <use xlink:href="#DejaVuSans-69" x="1896.052734"/>
     <use xlink:href="#DejaVuSans-6e" x="1923.835938"/>
     <use xlink:href="#DejaVuSans-67" x="1987.214844"/>
     <use xlink:href="#DejaVuSans-20" x="2050.691406"/>
     <use xlink:href="#DejaVuSans-54" x="2082.478516"/>
     <use xlink:href="#DejaVuSans-72" x="2128.8125"/>
     <use xlink:href="#DejaVuSans-61" x="2169.925781"/>
     <use xlink:href="#DejaVuSans-69" x="2231.205078"/>
     <use xlink:href="#DejaVuSans-6e" x="2258.988281"/>
     <use xlink:href="#DejaVuSans-69" x="2322.367188"/>
     <use xlink:href="#DejaVuSans-6e" x="2350.150391"/>
     <use xlink:href="#DejaVuSans-67" x="2413.529297"/>
    </g>
   </g>
   <g id="legend_1">
    <g id="patch_7">
     <path d="M 556.99375 106.14875 
L 636.490625 106.14875 
Q 640.490625 106.14875 640.490625 102.14875 
L 640.490625 45.43625 
Q 640.490625 41.43625 636.490625 41.43625 
L 556.99375 41.43625 
Q 552.99375 41.43625 552.99375 45.43625 
L 552.99375 102.14875 
Q 552.99375 106.14875 556.99375 106.14875 
z
" style="fill: #ffffff; opacity: 0.8; stroke: #cccccc; stroke-linejoin: miter"/>
    </g>
    <g id="line2d_17">
     <path d="M 560.99375 57.633125 
L 580.99375 57.633125 
L 600.99375 57.633125 
" style="fill: none; stroke: #1f77b4; stroke-width: 1.5; stroke-linecap: square"/>
    </g>
    <g id="text_18">
     <!-- G -->
     <g transform="translate(616.99375 64.633125) scale(0.2 -0.2)">
      <use xlink:href="#DejaVuSans-47"/>
     </g>
    </g>
    <g id="line2d_18">
     <path d="M 560.99375 86.989375 
L 580.99375 86.989375 
L 600.99375 86.989375 
" style="fill: none; stroke: #ff7f0e; stroke-width: 1.5; stroke-linecap: square"/>
    </g>
    <g id="text_19">
     <!-- D -->
     <g transform="translate(616.99375 93.989375) scale(0.2 -0.2)">
      <use xlink:href="#DejaVuSans-44"/>
     </g>
    </g>
   </g>
  </g>
 </g>
 <defs>
  <clipPath id="p29da2745a0">
   <rect x="92.490625" y="31.43625" width="558" height="277.2"/>
  </clipPath>
 </defs>
</svg>
