<?xml version="1.0" encoding="utf-8" standalone="no"?>
<!DOCTYPE svg PUBLIC "-//W3C//DTD SVG 1.1//EN"
  "http://www.w3.org/Graphics/SVG/1.1/DTD/svg11.dtd">
<svg xmlns:xlink="http://www.w3.org/1999/xlink" width="675.923125pt" height="365.54875pt" viewBox="0 0 675.923125 365.54875" xmlns="http://www.w3.org/2000/svg" version="1.1">
 <metadata>
  <rdf:RDF xmlns:dc="http://purl.org/dc/elements/1.1/" xmlns:cc="http://creativecommons.org/ns#" xmlns:rdf="http://www.w3.org/1999/02/22-rdf-syntax-ns#">
   <cc:Work>
    <dc:type rdf:resource="http://purl.org/dc/dcmitype/StillImage"/>
    <dc:date>2024-02-02T19:33:34.475496</dc:date>
    <dc:format>image/svg+xml</dc:format>
    <dc:creator>
     <cc:Agent>
      <dc:title>Matplotlib v3.7.2, https://matplotlib.org/</dc:title>
     </cc:Agent>
    </dc:creator>
   </cc:Work>
  </rdf:RDF>
 </metadata>
 <defs>
  <style type="text/css">*{stroke-linejoin: round; stroke-linecap: butt}</style>
 </defs>
 <g id="figure_1">
  <g id="patch_1">
   <path d="M 0 365.54875 
L 675.923125 365.54875 
L 675.923125 -0 
L 0 -0 
z
" style="fill: #ffffff"/>
  </g>
  <g id="axes_1">
   <g id="patch_2">
    <path d="M 92.490625 308.63625 
L 650.490625 308.63625 
L 650.490625 31.43625 
L 92.490625 31.43625 
z
" style="fill: #ffffff"/>
   </g>
   <g id="matplotlib.axis_1">
    <g id="xtick_1">
     <g id="line2d_1">
      <defs>
       <path id="m192d123169" d="M 0 0 
L 0 3.5 
" style="stroke: #000000; stroke-width: 0.8"/>
      </defs>
      <g>
       <use xlink:href="#m192d123169" x="117.854261" y="308.63625" style="stroke: #000000; stroke-width: 0.8"/>
      </g>
     </g>
     <g id="text_1">
      <!-- 0 -->
      <g transform="translate(111.491761 330.833125) scale(0.2 -0.2)">
       <defs>
        <path id="DejaVuSans-30" d="M 2034 4250 
Q 1547 4250 1301 3770 
Q 1056 3291 1056 2328 
Q 1056 1369 1301 889 
Q 1547 409 2034 409 
Q 2525 409 2770 889 
Q 3016 1369 3016 2328 
Q 3016 3291 2770 3770 
Q 2525 4250 2034 4250 
z
M 2034 4750 
Q 2819 4750 3233 4129 
Q 3647 3509 3647 2328 
Q 3647 1150 3233 529 
Q 2819 -91 2034 -91 
Q 1250 -91 836 529 
Q 422 1150 422 2328 
Q 422 3509 836 4129 
Q 1250 4750 2034 4750 
z
" transform="scale(0.015625)"/>
       </defs>
       <use xlink:href="#DejaVuSans-30"/>
      </g>
     </g>
    </g>
    <g id="xtick_2">
     <g id="line2d_2">
      <g>
       <use xlink:href="#m192d123169" x="188.308807" y="308.63625" style="stroke: #000000; stroke-width: 0.8"/>
      </g>
     </g>
     <g id="text_2">
      <!-- 250 -->
      <g transform="translate(169.221307 330.833125) scale(0.2 -0.2)">
       <defs>
        <path id="DejaVuSans-32" d="M 1228 531 
L 3431 531 
L 3431 0 
L 469 0 
L 469 531 
Q 828 903 1448 1529 
Q 2069 2156 2228 2338 
Q 2531 2678 2651 2914 
Q 2772 3150 2772 3378 
Q 2772 3750 2511 3984 
Q 2250 4219 1831 4219 
Q 1534 4219 1204 4116 
Q 875 4013 500 3803 
L 500 4441 
Q 881 4594 1212 4672 
Q 1544 4750 1819 4750 
Q 2544 4750 2975 4387 
Q 3406 4025 3406 3419 
Q 3406 3131 3298 2873 
Q 3191 2616 2906 2266 
Q 2828 2175 2409 1742 
Q 1991 1309 1228 531 
z
" transform="scale(0.015625)"/>
        <path id="DejaVuSans-35" d="M 691 4666 
L 3169 4666 
L 3169 4134 
L 1269 4134 
L 1269 2991 
Q 1406 3038 1543 3061 
Q 1681 3084 1819 3084 
Q 2600 3084 3056 2656 
Q 3513 2228 3513 1497 
Q 3513 744 3044 326 
Q 2575 -91 1722 -91 
Q 1428 -91 1123 -41 
Q 819 9 494 109 
L 494 744 
Q 775 591 1075 516 
Q 1375 441 1709 441 
Q 2250 441 2565 725 
Q 2881 1009 2881 1497 
Q 2881 1984 2565 2268 
Q 2250 2553 1709 2553 
Q 1456 2553 1204 2497 
Q 953 2441 691 2322 
L 691 4666 
z
" transform="scale(0.015625)"/>
       </defs>
       <use xlink:href="#DejaVuSans-32"/>
       <use xlink:href="#DejaVuSans-35" x="63.623047"/>
       <use xlink:href="#DejaVuSans-30" x="127.246094"/>
      </g>
     </g>
    </g>
    <g id="xtick_3">
     <g id="line2d_3">
      <g>
       <use xlink:href="#m192d123169" x="258.763352" y="308.63625" style="stroke: #000000; stroke-width: 0.8"/>
      </g>
     </g>
     <g id="text_3">
      <!-- 500 -->
      <g transform="translate(239.675852 330.833125) scale(0.2 -0.2)">
       <use xlink:href="#DejaVuSans-35"/>
       <use xlink:href="#DejaVuSans-30" x="63.623047"/>
       <use xlink:href="#DejaVuSans-30" x="127.246094"/>
      </g>
     </g>
    </g>
    <g id="xtick_4">
     <g id="line2d_4">
      <g>
       <use xlink:href="#m192d123169" x="329.217898" y="308.63625" style="stroke: #000000; stroke-width: 0.8"/>
      </g>
     </g>
     <g id="text_4">
      <!-- 750 -->
      <g transform="translate(310.130398 330.833125) scale(0.2 -0.2)">
       <defs>
        <path id="DejaVuSans-37" d="M 525 4666 
L 3525 4666 
L 3525 4397 
L 1831 0 
L 1172 0 
L 2766 4134 
L 525 4134 
L 525 4666 
z
" transform="scale(0.015625)"/>
       </defs>
       <use xlink:href="#DejaVuSans-37"/>
       <use xlink:href="#DejaVuSans-35" x="63.623047"/>
       <use xlink:href="#DejaVuSans-30" x="127.246094"/>
      </g>
     </g>
    </g>
    <g id="xtick_5">
     <g id="line2d_5">
      <g>
       <use xlink:href="#m192d123169" x="399.672443" y="308.63625" style="stroke: #000000; stroke-width: 0.8"/>
      </g>
     </g>
     <g id="text_5">
      <!-- 1000 -->
      <g transform="translate(374.222443 330.833125) scale(0.2 -0.2)">
       <defs>
        <path id="DejaVuSans-31" d="M 794 531 
L 1825 531 
L 1825 4091 
L 703 3866 
L 703 4441 
L 1819 4666 
L 2450 4666 
L 2450 531 
L 3481 531 
L 3481 0 
L 794 0 
L 794 531 
z
" transform="scale(0.015625)"/>
       </defs>
       <use xlink:href="#DejaVuSans-31"/>
       <use xlink:href="#DejaVuSans-30" x="63.623047"/>
       <use xlink:href="#DejaVuSans-30" x="127.246094"/>
       <use xlink:href="#DejaVuSans-30" x="190.869141"/>
      </g>
     </g>
    </g>
    <g id="xtick_6">
     <g id="line2d_6">
      <g>
       <use xlink:href="#m192d123169" x="470.126989" y="308.63625" style="stroke: #000000; stroke-width: 0.8"/>
      </g>
     </g>
     <g id="text_6">
      <!-- 1250 -->
      <g transform="translate(444.676989 330.833125) scale(0.2 -0.2)">
       <use xlink:href="#DejaVuSans-31"/>
       <use xlink:href="#DejaVuSans-32" x="63.623047"/>
       <use xlink:href="#DejaVuSans-35" x="127.246094"/>
       <use xlink:href="#DejaVuSans-30" x="190.869141"/>
      </g>
     </g>
    </g>
    <g id="xtick_7">
     <g id="line2d_7">
      <g>
       <use xlink:href="#m192d123169" x="540.581534" y="308.63625" style="stroke: #000000; stroke-width: 0.8"/>
      </g>
     </g>
     <g id="text_7">
      <!-- 1500 -->
      <g transform="translate(515.131534 330.833125) scale(0.2 -0.2)">
       <use xlink:href="#DejaVuSans-31"/>
       <use xlink:href="#DejaVuSans-35" x="63.623047"/>
       <use xlink:href="#DejaVuSans-30" x="127.246094"/>
       <use xlink:href="#DejaVuSans-30" x="190.869141"/>
      </g>
     </g>
    </g>
    <g id="xtick_8">
     <g id="line2d_8">
      <g>
       <use xlink:href="#m192d123169" x="611.03608" y="308.63625" style="stroke: #000000; stroke-width: 0.8"/>
      </g>
     </g>
     <g id="text_8">
      <!-- 1750 -->
      <g transform="translate(585.58608 330.833125) scale(0.2 -0.2)">
       <use xlink:href="#DejaVuSans-31"/>
       <use xlink:href="#DejaVuSans-37" x="63.623047"/>
       <use xlink:href="#DejaVuSans-35" x="127.246094"/>
       <use xlink:href="#DejaVuSans-30" x="190.869141"/>
      </g>
     </g>
    </g>
    <g id="text_9">
     <!-- iterations -->
     <g transform="translate(324.035938 354.189375) scale(0.2 -0.2)">
      <defs>
       <path id="DejaVuSans-69" d="M 603 3500 
L 1178 3500 
L 1178 0 
L 603 0 
L 603 3500 
z
M 603 4863 
L 1178 4863 
L 1178 4134 
L 603 4134 
L 603 4863 
z
" transform="scale(0.015625)"/>
       <path id="DejaVuSans-74" d="M 1172 4494 
L 1172 3500 
L 2356 3500 
L 2356 3053 
L 1172 3053 
L 1172 1153 
Q 1172 725 1289 603 
Q 1406 481 1766 481 
L 2356 481 
L 2356 0 
L 1766 0 
Q 1100 0 847 248 
Q 594 497 594 1153 
L 594 3053 
L 172 3053 
L 172 3500 
L 594 3500 
L 594 4494 
L 1172 4494 
z
" transform="scale(0.015625)"/>
       <path id="DejaVuSans-65" d="M 3597 1894 
L 3597 1613 
L 953 1613 
Q 991 1019 1311 708 
Q 1631 397 2203 397 
Q 2534 397 2845 478 
Q 3156 559 3463 722 
L 3463 178 
Q 3153 47 2828 -22 
Q 2503 -91 2169 -91 
Q 1331 -91 842 396 
Q 353 884 353 1716 
Q 353 2575 817 3079 
Q 1281 3584 2069 3584 
Q 2775 3584 3186 3129 
Q 3597 2675 3597 1894 
z
M 3022 2063 
Q 3016 2534 2758 2815 
Q 2500 3097 2075 3097 
Q 1594 3097 1305 2825 
Q 1016 2553 972 2059 
L 3022 2063 
z
" transform="scale(0.015625)"/>
       <path id="DejaVuSans-72" d="M 2631 2963 
Q 2534 3019 2420 3045 
Q 2306 3072 2169 3072 
Q 1681 3072 1420 2755 
Q 1159 2438 1159 1844 
L 1159 0 
L 581 0 
L 581 3500 
L 1159 3500 
L 1159 2956 
Q 1341 3275 1631 3429 
Q 1922 3584 2338 3584 
Q 2397 3584 2469 3576 
Q 2541 3569 2628 3553 
L 2631 2963 
z
" transform="scale(0.015625)"/>
       <path id="DejaVuSans-61" d="M 2194 1759 
Q 1497 1759 1228 1600 
Q 959 1441 959 1056 
Q 959 750 1161 570 
Q 1363 391 1709 391 
Q 2188 391 2477 730 
Q 2766 1069 2766 1631 
L 2766 1759 
L 2194 1759 
z
M 3341 1997 
L 3341 0 
L 2766 0 
L 2766 531 
Q 2569 213 2275 61 
Q 1981 -91 1556 -91 
Q 1019 -91 701 211 
Q 384 513 384 1019 
Q 384 1609 779 1909 
Q 1175 2209 1959 2209 
L 2766 2209 
L 2766 2266 
Q 2766 2663 2505 2880 
Q 2244 3097 1772 3097 
Q 1472 3097 1187 3025 
Q 903 2953 641 2809 
L 641 3341 
Q 956 3463 1253 3523 
Q 1550 3584 1831 3584 
Q 2591 3584 2966 3190 
Q 3341 2797 3341 1997 
z
" transform="scale(0.015625)"/>
       <path id="DejaVuSans-6f" d="M 1959 3097 
Q 1497 3097 1228 2736 
Q 959 2375 959 1747 
Q 959 1119 1226 758 
Q 1494 397 1959 397 
Q 2419 397 2687 759 
Q 2956 1122 2956 1747 
Q 2956 2369 2687 2733 
Q 2419 3097 1959 3097 
z
M 1959 3584 
Q 2709 3584 3137 3096 
Q 3566 2609 3566 1747 
Q 3566 888 3137 398 
Q 2709 -91 1959 -91 
Q 1206 -91 779 398 
Q 353 888 353 1747 
Q 353 2609 779 3096 
Q 1206 3584 1959 3584 
z
" transform="scale(0.015625)"/>
       <path id="DejaVuSans-6e" d="M 3513 2113 
L 3513 0 
L 2938 0 
L 2938 2094 
Q 2938 2591 2744 2837 
Q 2550 3084 2163 3084 
Q 1697 3084 1428 2787 
Q 1159 2491 1159 1978 
L 1159 0 
L 581 0 
L 581 3500 
L 1159 3500 
L 1159 2956 
Q 1366 3272 1645 3428 
Q 1925 3584 2291 3584 
Q 2894 3584 3203 3211 
Q 3513 2838 3513 2113 
z
" transform="scale(0.015625)"/>
       <path id="DejaVuSans-73" d="M 2834 3397 
L 2834 2853 
Q 2591 2978 2328 3040 
Q 2066 3103 1784 3103 
Q 1356 3103 1142 2972 
Q 928 2841 928 2578 
Q 928 2378 1081 2264 
Q 1234 2150 1697 2047 
L 1894 2003 
Q 2506 1872 2764 1633 
Q 3022 1394 3022 966 
Q 3022 478 2636 193 
Q 2250 -91 1575 -91 
Q 1294 -91 989 -36 
Q 684 19 347 128 
L 347 722 
Q 666 556 975 473 
Q 1284 391 1588 391 
Q 1994 391 2212 530 
Q 2431 669 2431 922 
Q 2431 1156 2273 1281 
Q 2116 1406 1581 1522 
L 1381 1569 
Q 847 1681 609 1914 
Q 372 2147 372 2553 
Q 372 3047 722 3315 
Q 1072 3584 1716 3584 
Q 2034 3584 2315 3537 
Q 2597 3491 2834 3397 
z
" transform="scale(0.015625)"/>
      </defs>
      <use xlink:href="#DejaVuSans-69"/>
      <use xlink:href="#DejaVuSans-74" x="27.783203"/>
      <use xlink:href="#DejaVuSans-65" x="66.992188"/>
      <use xlink:href="#DejaVuSans-72" x="128.515625"/>
      <use xlink:href="#DejaVuSans-61" x="169.628906"/>
      <use xlink:href="#DejaVuSans-74" x="230.908203"/>
      <use xlink:href="#DejaVuSans-69" x="270.117188"/>
      <use xlink:href="#DejaVuSans-6f" x="297.900391"/>
      <use xlink:href="#DejaVuSans-6e" x="359.082031"/>
      <use xlink:href="#DejaVuSans-73" x="422.460938"/>
     </g>
    </g>
   </g>
   <g id="matplotlib.axis_2">
    <g id="ytick_1">
     <g id="line2d_9">
      <defs>
       <path id="m85c8121f0b" d="M 0 0 
L -3.5 0 
" style="stroke: #000000; stroke-width: 0.8"/>
      </defs>
      <g>
       <use xlink:href="#m85c8121f0b" x="92.490625" y="308.076474" style="stroke: #000000; stroke-width: 0.8"/>
      </g>
     </g>
     <g id="text_10">
      <!-- −300 -->
      <g transform="translate(30.55625 315.674911) scale(0.2 -0.2)">
       <defs>
        <path id="DejaVuSans-2212" d="M 678 2272 
L 4684 2272 
L 4684 1741 
L 678 1741 
L 678 2272 
z
" transform="scale(0.015625)"/>
        <path id="DejaVuSans-33" d="M 2597 2516 
Q 3050 2419 3304 2112 
Q 3559 1806 3559 1356 
Q 3559 666 3084 287 
Q 2609 -91 1734 -91 
Q 1441 -91 1130 -33 
Q 819 25 488 141 
L 488 750 
Q 750 597 1062 519 
Q 1375 441 1716 441 
Q 2309 441 2620 675 
Q 2931 909 2931 1356 
Q 2931 1769 2642 2001 
Q 2353 2234 1838 2234 
L 1294 2234 
L 1294 2753 
L 1863 2753 
Q 2328 2753 2575 2939 
Q 2822 3125 2822 3475 
Q 2822 3834 2567 4026 
Q 2313 4219 1838 4219 
Q 1578 4219 1281 4162 
Q 984 4106 628 3988 
L 628 4550 
Q 988 4650 1302 4700 
Q 1616 4750 1894 4750 
Q 2613 4750 3031 4423 
Q 3450 4097 3450 3541 
Q 3450 3153 3228 2886 
Q 3006 2619 2597 2516 
z
" transform="scale(0.015625)"/>
       </defs>
       <use xlink:href="#DejaVuSans-2212"/>
       <use xlink:href="#DejaVuSans-33" x="83.789062"/>
       <use xlink:href="#DejaVuSans-30" x="147.412109"/>
       <use xlink:href="#DejaVuSans-30" x="211.035156"/>
      </g>
     </g>
    </g>
    <g id="ytick_2">
     <g id="line2d_10">
      <g>
       <use xlink:href="#m85c8121f0b" x="92.490625" y="260.333863" style="stroke: #000000; stroke-width: 0.8"/>
      </g>
     </g>
     <g id="text_11">
      <!-- −200 -->
      <g transform="translate(30.55625 267.9323) scale(0.2 -0.2)">
       <use xlink:href="#DejaVuSans-2212"/>
       <use xlink:href="#DejaVuSans-32" x="83.789062"/>
       <use xlink:href="#DejaVuSans-30" x="147.412109"/>
       <use xlink:href="#DejaVuSans-30" x="211.035156"/>
      </g>
     </g>
    </g>
    <g id="ytick_3">
     <g id="line2d_11">
      <g>
       <use xlink:href="#m85c8121f0b" x="92.490625" y="212.591251" style="stroke: #000000; stroke-width: 0.8"/>
      </g>
     </g>
     <g id="text_12">
      <!-- −100 -->
      <g transform="translate(30.55625 220.189689) scale(0.2 -0.2)">
       <use xlink:href="#DejaVuSans-2212"/>
       <use xlink:href="#DejaVuSans-31" x="83.789062"/>
       <use xlink:href="#DejaVuSans-30" x="147.412109"/>
       <use xlink:href="#DejaVuSans-30" x="211.035156"/>
      </g>
     </g>
    </g>
    <g id="ytick_4">
     <g id="line2d_12">
      <g>
       <use xlink:href="#m85c8121f0b" x="92.490625" y="164.84864" style="stroke: #000000; stroke-width: 0.8"/>
      </g>
     </g>
     <g id="text_13">
      <!-- 0 -->
      <g transform="translate(72.765625 172.447078) scale(0.2 -0.2)">
       <use xlink:href="#DejaVuSans-30"/>
      </g>
     </g>
    </g>
    <g id="ytick_5">
     <g id="line2d_13">
      <g>
       <use xlink:href="#m85c8121f0b" x="92.490625" y="117.106029" style="stroke: #000000; stroke-width: 0.8"/>
      </g>
     </g>
     <g id="text_14">
      <!-- 100 -->
      <g transform="translate(47.315625 124.704466) scale(0.2 -0.2)">
       <use xlink:href="#DejaVuSans-31"/>
       <use xlink:href="#DejaVuSans-30" x="63.623047"/>
       <use xlink:href="#DejaVuSans-30" x="127.246094"/>
      </g>
     </g>
    </g>
    <g id="ytick_6">
     <g id="line2d_14">
      <g>
       <use xlink:href="#m85c8121f0b" x="92.490625" y="69.363418" style="stroke: #000000; stroke-width: 0.8"/>
      </g>
     </g>
     <g id="text_15">
      <!-- 200 -->
      <g transform="translate(47.315625 76.961855) scale(0.2 -0.2)">
       <use xlink:href="#DejaVuSans-32"/>
       <use xlink:href="#DejaVuSans-30" x="63.623047"/>
       <use xlink:href="#DejaVuSans-30" x="127.246094"/>
      </g>
     </g>
    </g>
    <g id="text_16">
     <!-- Loss -->
     <g transform="translate(22.396875 191.970625) rotate(-90) scale(0.2 -0.2)">
      <defs>
       <path id="DejaVuSans-4c" d="M 628 4666 
L 1259 4666 
L 1259 531 
L 3531 531 
L 3531 0 
L 628 0 
L 628 4666 
z
" transform="scale(0.015625)"/>
      </defs>
      <use xlink:href="#DejaVuSans-4c"/>
      <use xlink:href="#DejaVuSans-6f" x="53.962891"/>
      <use xlink:href="#DejaVuSans-73" x="115.144531"/>
      <use xlink:href="#DejaVuSans-73" x="167.244141"/>
     </g>
    </g>
   </g>
   <g id="line2d_15">
    <path d="M 117.854261 146.813401 
L 118.417898 80.391515 
L 118.699716 93.97479 
L 119.263352 106.442787 
L 119.54517 102.548887 
L 120.108807 44.03625 
L 120.672443 64.165815 
L 120.954261 68.653032 
L 121.23608 61.460956 
L 121.517898 63.790343 
L 121.799716 62.242846 
L 122.081534 69.057708 
L 122.363352 80.741477 
L 122.64517 87.131444 
L 122.926989 98.140049 
L 123.208807 103.093068 
L 123.490625 93.825742 
L 123.772443 104.094745 
L 124.054261 107.308578 
L 124.33608 107.992912 
L 124.617898 109.644738 
L 124.899716 119.773596 
L 125.181534 118.892841 
L 125.463352 114.429748 
L 125.74517 114.41171 
L 126.026989 118.415431 
L 126.308807 117.206988 
L 126.590625 117.824206 
L 126.872443 124.735137 
L 127.154261 128.258738 
L 127.43608 123.195727 
L 127.717898 122.886145 
L 127.999716 125.843859 
L 128.281534 125.967041 
L 128.563352 131.582295 
L 128.84517 131.871905 
L 129.126989 133.114474 
L 129.408807 127.878369 
L 129.690625 129.495931 
L 129.972443 127.712842 
L 130.254261 124.552253 
L 130.53608 129.481497 
L 130.817898 130.09079 
L 131.099716 138.115362 
L 131.381534 141.78177 
L 131.663352 134.414925 
L 131.94517 137.67643 
L 132.226989 136.065027 
L 132.508807 137.869639 
L 132.790625 132.690907 
L 133.072443 140.119834 
L 133.354261 137.644756 
L 133.63608 136.745389 
L 133.917898 135.335573 
L 134.481534 142.002796 
L 134.763352 141.84562 
L 135.04517 142.578861 
L 135.326989 142.251124 
L 135.608807 142.172145 
L 135.890625 141.417091 
L 136.172443 140.224809 
L 136.454261 143.217005 
L 136.73608 144.687951 
L 137.017898 143.797342 
L 137.299716 144.278274 
L 137.581534 146.270732 
L 137.863352 146.701501 
L 138.14517 145.461789 
L 138.426989 145.833763 
L 138.708807 143.692652 
L 138.990625 147.194435 
L 139.272443 146.821302 
L 139.554261 147.072493 
L 139.83608 148.093813 
L 140.117898 147.234276 
L 140.681534 150.883918 
L 140.963352 150.092965 
L 141.24517 150.882584 
L 141.526989 151.093285 
L 141.808807 150.889117 
L 142.372443 152.94296 
L 142.654261 151.837858 
L 142.93608 153.425732 
L 143.217898 152.601994 
L 143.781534 155.336526 
L 144.063352 153.768577 
L 144.34517 155.985871 
L 144.626989 156.51429 
L 144.908807 156.791584 
L 145.190625 158.00526 
L 145.472443 156.319263 
L 145.754261 157.103248 
L 146.03608 155.953429 
L 146.317898 157.745158 
L 146.599716 158.683875 
L 146.881534 158.244609 
L 147.163352 154.730314 
L 147.726989 157.700492 
L 148.008807 156.920326 
L 148.290625 157.017393 
L 148.572443 158.068498 
L 148.854261 156.190997 
L 149.13608 157.968617 
L 149.417898 157.662547 
L 149.981534 159.727833 
L 150.263352 161.236052 
L 150.826989 160.847517 
L 151.390625 158.799593 
L 151.672443 160.259755 
L 151.954261 159.926854 
L 152.23608 160.268099 
L 152.517898 160.364639 
L 153.081534 158.883726 
L 153.64517 162.122629 
L 153.926989 161.527582 
L 154.208807 159.785258 
L 154.490625 160.608374 
L 154.772443 159.759418 
L 155.054261 161.088617 
L 155.617898 159.732294 
L 155.899716 161.106603 
L 156.181534 160.441163 
L 156.463352 161.629867 
L 156.74517 161.67122 
L 157.026989 162.151759 
L 157.308807 163.316399 
L 157.872443 161.53737 
L 158.154261 162.63625 
L 158.717898 162.150268 
L 158.999716 164.664075 
L 159.281534 165.211228 
L 159.563352 165.140243 
L 159.84517 165.829806 
L 160.126989 166.831469 
L 160.408807 166.91882 
L 160.690625 167.478491 
L 160.972443 167.575725 
L 161.254261 165.443178 
L 161.53608 165.627313 
L 161.817898 166.592773 
L 162.099716 165.96152 
L 162.381534 166.931254 
L 162.663352 166.917131 
L 162.94517 165.406154 
L 163.226989 166.035049 
L 163.508807 164.400182 
L 163.790625 164.527758 
L 164.072443 164.778149 
L 164.354261 165.583527 
L 164.63608 167.012243 
L 164.917898 164.441019 
L 165.481534 166.745217 
L 166.04517 164.955568 
L 166.326989 165.543819 
L 166.608807 168.059276 
L 166.890625 166.862587 
L 167.172443 166.852146 
L 167.73608 167.610948 
L 168.017898 163.137368 
L 168.299716 166.852458 
L 168.581534 164.939072 
L 168.863352 164.213958 
L 169.14517 164.386659 
L 169.426989 167.063814 
L 169.708807 167.008493 
L 169.990625 166.463196 
L 170.272443 166.887252 
L 170.554261 166.910252 
L 170.83608 167.962763 
L 171.117898 166.681478 
L 171.399716 167.175909 
L 171.681534 167.245556 
L 171.963352 168.843924 
L 172.24517 167.709087 
L 172.526989 168.158478 
L 172.808807 169.017948 
L 173.090625 167.592203 
L 173.372443 168.116261 
L 173.654261 167.660477 
L 174.217898 165.994739 
L 174.499716 166.959647 
L 174.781534 167.091176 
L 175.063352 166.721602 
L 175.34517 167.801531 
L 175.626989 167.452339 
L 175.908807 167.493911 
L 176.190625 166.976974 
L 176.472443 164.934127 
L 176.754261 165.345127 
L 177.317898 166.617358 
L 177.881534 163.956945 
L 178.163352 163.966765 
L 178.44517 164.243007 
L 178.726989 164.33267 
L 179.008807 164.564122 
L 179.290625 164.054355 
L 179.572443 165.162294 
L 179.854261 164.311079 
L 180.13608 163.895203 
L 180.417898 162.229669 
L 180.699716 163.02108 
L 180.981534 163.191493 
L 181.263352 163.821427 
L 181.54517 164.095406 
L 181.826989 163.815524 
L 182.108807 163.811161 
L 182.390625 164.365739 
L 182.672443 164.153971 
L 182.954261 164.380678 
L 183.23608 163.315187 
L 183.517898 163.671799 
L 183.799716 162.34971 
L 184.081534 162.174869 
L 184.363352 163.137305 
L 184.64517 163.467982 
L 184.926989 164.097514 
L 185.208807 164.051731 
L 185.490625 163.19249 
L 185.772443 163.338166 
L 186.054261 163.609537 
L 186.33608 163.409286 
L 186.617898 162.704454 
L 186.899716 163.022985 
L 187.181534 163.529448 
L 187.74517 161.906048 
L 188.308807 163.801088 
L 188.590625 163.662423 
L 188.872443 162.76663 
L 189.154261 163.428382 
L 189.43608 163.457511 
L 189.717898 162.018732 
L 189.999716 163.01992 
L 190.281534 162.950906 
L 190.563352 162.106919 
L 191.126989 162.228724 
L 191.690625 162.468102 
L 191.972443 162.912715 
L 192.254261 162.77536 
L 192.53608 162.843327 
L 192.817898 163.355386 
L 193.099716 162.62776 
L 193.381534 162.306488 
L 193.663352 162.595105 
L 193.94517 163.279859 
L 194.226989 163.234508 
L 194.508807 161.797956 
L 194.790625 162.181096 
L 195.072443 163.30094 
L 195.354261 163.675187 
L 195.63608 163.380859 
L 195.917898 162.733879 
L 196.199716 163.610364 
L 196.481534 163.322777 
L 196.763352 163.352923 
L 197.04517 162.602164 
L 197.326989 163.122249 
L 197.608807 162.569941 
L 197.890625 163.908707 
L 198.172443 164.132175 
L 198.454261 164.182415 
L 198.73608 164.06866 
L 199.017898 164.587901 
L 199.299716 164.740009 
L 199.581534 164.282625 
L 200.14517 164.185717 
L 200.426989 164.616448 
L 200.708807 165.503936 
L 201.272443 165.766536 
L 201.83608 165.438424 
L 202.117898 165.165958 
L 202.681534 165.820635 
L 202.963352 166.698822 
L 203.24517 166.090311 
L 203.808807 167.201853 
L 204.090625 166.721574 
L 204.654261 167.357401 
L 205.499716 166.196017 
L 205.781534 166.671504 
L 206.063352 166.873768 
L 206.626989 165.241765 
L 206.908807 164.468642 
L 207.190625 165.366566 
L 207.472443 165.737146 
L 208.03608 165.388637 
L 208.317898 166.118239 
L 208.599716 166.045435 
L 208.881534 165.651529 
L 209.163352 166.464095 
L 209.44517 165.812214 
L 209.726989 165.811342 
L 210.008807 166.233304 
L 210.290625 166.328533 
L 210.572443 166.183783 
L 210.854261 165.83156 
L 211.417898 165.619053 
L 211.699716 166.240895 
L 211.981534 166.331851 
L 212.263352 166.229317 
L 212.826989 166.706569 
L 213.390625 166.056973 
L 213.672443 166.36659 
L 213.954261 167.259645 
L 214.23608 167.00779 
L 214.517898 167.161823 
L 214.799716 167.141942 
L 215.081534 167.917632 
L 215.363352 167.265631 
L 215.64517 167.629537 
L 215.926989 167.501643 
L 216.208807 168.160859 
L 216.772443 166.86691 
L 217.054261 166.920471 
L 217.33608 166.549066 
L 217.617898 167.038505 
L 217.899716 166.612435 
L 218.74517 167.228123 
L 219.026989 166.976342 
L 219.308807 166.452188 
L 219.590625 166.488802 
L 219.872443 166.091526 
L 220.154261 166.502338 
L 220.43608 166.560258 
L 220.717898 165.909882 
L 221.563352 166.006467 
L 222.126989 166.348677 
L 222.408807 166.322912 
L 222.972443 165.845957 
L 223.254261 166.437074 
L 223.53608 165.983663 
L 223.817898 166.38031 
L 224.663352 166.068 
L 224.94517 166.069951 
L 225.226989 166.237616 
L 225.508807 166.275353 
L 225.790625 166.559866 
L 226.072443 166.42806 
L 226.354261 165.903486 
L 226.63608 166.414469 
L 226.917898 165.688138 
L 227.199716 166.209658 
L 227.481534 166.443395 
L 227.763352 167.174898 
L 228.04517 166.546986 
L 228.326989 166.811977 
L 228.608807 166.533579 
L 229.172443 167.081266 
L 229.73608 166.839537 
L 230.017898 166.368862 
L 230.581534 166.87614 
L 230.863352 166.808474 
L 231.14517 166.56272 
L 231.426989 166.009525 
L 231.708807 166.357339 
L 231.990625 166.028483 
L 232.272443 166.255005 
L 232.554261 166.696161 
L 232.83608 166.183707 
L 233.117898 166.003365 
L 233.399716 166.706365 
L 233.681534 166.21531 
L 233.963352 166.14197 
L 234.24517 165.532035 
L 234.526989 166.138229 
L 234.808807 165.987485 
L 235.090625 165.611724 
L 235.93608 166.712348 
L 236.217898 166.03513 
L 236.781534 165.784352 
L 237.626989 166.055311 
L 238.190625 165.583788 
L 238.472443 165.646263 
L 238.754261 165.846987 
L 239.03608 165.521687 
L 239.317898 165.978731 
L 239.599716 166.035145 
L 239.881534 166.661504 
L 240.163352 166.760297 
L 241.008807 166.435477 
L 241.290625 166.783371 
L 241.572443 166.141324 
L 241.854261 165.874838 
L 242.13608 165.97542 
L 242.417898 166.270776 
L 242.699716 165.838433 
L 243.263352 165.769593 
L 243.826989 166.178324 
L 244.108807 166.191207 
L 244.390625 165.81833 
L 244.954261 166.51138 
L 245.23608 166.448924 
L 245.517898 166.241097 
L 246.64517 166.882604 
L 246.926989 166.459606 
L 247.208807 166.757516 
L 247.772443 166.516183 
L 248.054261 166.007551 
L 248.33608 166.12876 
L 248.899716 166.844733 
L 249.181534 166.274435 
L 249.463352 166.281576 
L 250.026989 166.711753 
L 250.308807 166.497263 
L 250.590625 166.610833 
L 250.872443 166.443589 
L 251.154261 166.729574 
L 251.43608 166.436764 
L 251.717898 166.704082 
L 251.999716 166.441254 
L 252.281534 166.890386 
L 252.563352 166.502654 
L 253.126989 166.926292 
L 253.408807 166.802534 
L 253.690625 166.976452 
L 253.972443 166.899472 
L 254.254261 166.984121 
L 254.53608 166.475711 
L 255.099716 166.278405 
L 255.381534 166.503053 
L 255.663352 166.569999 
L 255.94517 166.369568 
L 256.226989 166.852875 
L 256.508807 166.530569 
L 256.790625 167.047616 
L 257.072443 166.761014 
L 257.354261 166.88594 
L 257.917898 166.645192 
L 258.199716 166.825855 
L 258.481534 167.224149 
L 258.763352 167.398477 
L 259.326989 167.136946 
L 259.608807 167.250324 
L 260.172443 166.93557 
L 260.454261 167.181139 
L 261.017898 167.295278 
L 261.299716 167.000585 
L 261.581534 167.301564 
L 261.863352 166.535478 
L 262.14517 166.396558 
L 262.426989 166.434709 
L 262.708807 166.783238 
L 263.272443 166.731299 
L 263.554261 166.216886 
L 263.83608 166.566691 
L 264.117898 166.529329 
L 264.399716 166.719295 
L 264.681534 166.46481 
L 265.24517 167.027086 
L 265.526989 166.683276 
L 265.808807 167.335819 
L 266.090625 167.091504 
L 266.372443 166.566761 
L 266.654261 166.988799 
L 266.93608 166.623194 
L 267.781534 166.675388 
L 268.063352 167.061763 
L 268.34517 166.723804 
L 268.908807 166.844911 
L 269.472443 166.96288 
L 269.754261 166.983111 
L 270.03608 166.841912 
L 270.317898 166.501931 
L 270.599716 167.418016 
L 270.881534 167.30157 
L 271.163352 167.366067 
L 271.726989 167.02388 
L 272.008807 167.390764 
L 272.290625 166.756981 
L 272.572443 167.057009 
L 273.13608 166.957972 
L 273.417898 167.276026 
L 273.699716 167.375123 
L 273.981534 166.84129 
L 274.826989 167.11316 
L 275.390625 166.971584 
L 275.672443 167.290888 
L 275.954261 167.066544 
L 276.23608 165.323307 
L 276.517898 166.545885 
L 276.799716 166.380095 
L 277.081534 166.350188 
L 277.64517 166.535385 
L 277.926989 166.555807 
L 278.208807 166.356261 
L 278.490625 166.793856 
L 278.772443 166.395077 
L 279.617898 166.557929 
L 279.899716 167.176148 
L 280.181534 166.286676 
L 280.463352 166.511268 
L 280.74517 166.462493 
L 281.308807 166.764231 
L 281.590625 166.130331 
L 281.872443 166.802709 
L 282.154261 166.742324 
L 282.717898 165.927039 
L 283.563352 166.933795 
L 284.126989 166.745378 
L 284.408807 166.369924 
L 284.690625 166.800786 
L 285.254261 167.07098 
L 285.53608 166.816037 
L 285.817898 167.223374 
L 286.381534 167.362637 
L 286.94517 166.753254 
L 287.226989 166.998402 
L 287.508807 166.382302 
L 287.790625 166.995114 
L 288.072443 167.874512 
L 288.354261 166.987137 
L 288.63608 166.825792 
L 289.199716 167.048812 
L 289.481534 166.644523 
L 289.763352 166.909597 
L 290.04517 166.632009 
L 290.326989 166.784255 
L 290.608807 166.544729 
L 290.890625 166.455566 
L 291.172443 166.537231 
L 291.454261 167.145024 
L 291.73608 166.201103 
L 292.017898 166.478157 
L 292.581534 166.526268 
L 292.863352 166.161988 
L 293.14517 166.0622 
L 293.708807 167.214498 
L 293.990625 166.755575 
L 294.272443 166.973666 
L 294.554261 166.737883 
L 294.83608 167.536392 
L 295.399716 166.919932 
L 295.681534 166.985462 
L 295.963352 166.843619 
L 296.24517 167.331072 
L 296.526989 167.095779 
L 296.808807 167.413069 
L 297.090625 167.981538 
L 297.372443 167.302931 
L 297.654261 167.114096 
L 297.93608 167.372238 
L 298.499716 167.021455 
L 298.781534 167.14747 
L 299.063352 167.058253 
L 299.34517 167.107391 
L 299.908807 166.768336 
L 300.190625 166.903449 
L 300.754261 166.860062 
L 301.03608 166.763995 
L 301.317898 167.353189 
L 301.599716 166.946869 
L 301.881534 166.896951 
L 302.163352 167.015569 
L 302.44517 166.461696 
L 303.008807 167.159127 
L 303.572443 166.939349 
L 303.854261 166.851717 
L 304.13608 166.907606 
L 304.417898 166.615213 
L 304.699716 166.527251 
L 304.981534 166.990676 
L 305.263352 167.131883 
L 305.54517 166.87159 
L 305.826989 167.064202 
L 306.390625 167.055898 
L 306.672443 167.200545 
L 306.954261 167.045965 
L 307.23608 167.141436 
L 307.517898 166.671473 
L 308.081534 167.15067 
L 308.64517 167.093419 
L 308.926989 166.961498 
L 309.208807 167.238443 
L 309.490625 167.067239 
L 309.772443 167.194622 
L 310.33608 166.997806 
L 310.617898 167.05962 
L 310.899716 167.288663 
L 311.181534 167.065158 
L 311.463352 167.092838 
L 312.026989 166.717651 
L 312.590625 167.257168 
L 312.872443 166.84786 
L 313.154261 166.864819 
L 313.43608 167.268105 
L 314.281534 167.314542 
L 314.563352 167.11197 
L 314.84517 167.047703 
L 315.126989 167.417386 
L 315.408807 166.858553 
L 315.972443 167.212109 
L 316.254261 166.952572 
L 316.53608 167.154298 
L 317.099716 166.886214 
L 317.381534 166.962463 
L 317.663352 166.795377 
L 317.94517 167.377051 
L 318.226989 167.534359 
L 318.508807 167.193189 
L 318.790625 167.395914 
L 319.072443 166.865444 
L 319.63608 167.310023 
L 319.917898 167.143646 
L 320.199716 167.839257 
L 320.481534 167.391751 
L 320.763352 167.624121 
L 321.04517 167.266595 
L 322.172443 167.197231 
L 322.454261 167.238835 
L 323.017898 167.601499 
L 323.299716 167.566912 
L 323.581534 167.343159 
L 323.863352 167.627105 
L 324.14517 167.185018 
L 324.990625 167.75358 
L 325.272443 167.193165 
L 325.83608 167.345123 
L 326.117898 167.275755 
L 326.399716 167.33833 
L 326.681534 167.218481 
L 326.963352 167.524625 
L 327.24517 167.485847 
L 327.808807 166.934059 
L 328.090625 167.598699 
L 328.372443 167.195997 
L 328.654261 167.07312 
L 328.93608 167.231047 
L 329.217898 167.088166 
L 329.499716 167.193842 
L 329.781534 167.140813 
L 330.063352 167.287539 
L 330.34517 167.258121 
L 330.908807 166.999258 
L 331.472443 167.023811 
L 331.754261 167.265694 
L 332.03608 167.302736 
L 332.317898 166.628543 
L 332.599716 166.868234 
L 333.163352 167.516864 
L 333.44517 167.131464 
L 334.290625 167.05853 
L 334.572443 167.225277 
L 334.854261 167.074134 
L 335.13608 167.300374 
L 335.417898 167.004552 
L 335.699716 167.180986 
L 335.981534 166.781859 
L 336.263352 167.195129 
L 336.826989 167.097083 
L 337.108807 167.292166 
L 337.390625 167.158983 
L 337.672443 167.28468 
L 337.954261 166.966519 
L 338.23608 167.693968 
L 338.517898 167.503178 
L 338.799716 167.513798 
L 339.081534 167.160503 
L 339.64517 167.502693 
L 340.208807 166.898246 
L 340.490625 167.309784 
L 341.054261 167.0164 
L 341.33608 167.250778 
L 342.181534 167.416309 
L 342.463352 167.210728 
L 342.74517 166.433808 
L 343.026989 166.127449 
L 343.308807 166.373511 
L 343.590625 166.339871 
L 344.154261 166.698783 
L 344.43608 166.366816 
L 344.717898 166.288825 
L 344.999716 166.736823 
L 345.281534 166.210298 
L 345.563352 166.205723 
L 345.84517 166.469254 
L 346.126989 166.893486 
L 346.408807 166.70044 
L 346.690625 166.797322 
L 347.254261 166.497499 
L 347.53608 166.169747 
L 347.817898 166.417518 
L 348.381534 166.052766 
L 348.663352 166.192371 
L 348.94517 166.458809 
L 349.508807 166.547735 
L 349.790625 166.246446 
L 350.354261 166.631007 
L 350.917898 165.866555 
L 351.763352 166.255021 
L 352.326989 166.262861 
L 352.608807 166.559212 
L 353.172443 165.905145 
L 353.73608 165.974496 
L 354.017898 165.350545 
L 354.299716 165.297679 
L 354.581534 165.698049 
L 356.272443 165.774658 
L 356.554261 165.533159 
L 356.83608 165.743569 
L 357.117898 165.64798 
L 357.399716 165.786708 
L 358.24517 165.80996 
L 358.526989 165.0623 
L 358.808807 165.784689 
L 359.090625 165.418918 
L 359.654261 165.781192 
L 359.93608 165.647521 
L 361.063352 166.187874 
L 361.34517 165.338447 
L 361.626989 165.297218 
L 361.908807 165.514819 
L 362.190625 165.50545 
L 362.472443 165.657646 
L 362.754261 165.549139 
L 363.03608 165.653896 
L 363.317898 165.39391 
L 363.599716 165.753425 
L 363.881534 165.820735 
L 364.163352 165.605532 
L 364.44517 166.029359 
L 364.726989 165.869283 
L 365.290625 165.945625 
L 365.854261 165.76486 
L 366.13608 165.98245 
L 366.699716 166.00156 
L 366.981534 165.787654 
L 367.263352 166.287165 
L 367.826989 166.210825 
L 368.108807 166.457298 
L 368.672443 166.18791 
L 368.954261 165.779754 
L 369.23608 166.208858 
L 369.799716 165.893258 
L 370.081534 165.82723 
L 370.363352 166.02958 
L 370.64517 166.003079 
L 370.926989 166.121423 
L 371.490625 165.924299 
L 371.772443 165.720731 
L 372.054261 165.697142 
L 372.33608 165.404708 
L 372.617898 165.597086 
L 373.181534 165.339743 
L 373.463352 165.681835 
L 373.74517 165.580475 
L 374.026989 165.730561 
L 374.590625 165.688021 
L 374.872443 165.883927 
L 375.154261 165.58446 
L 375.717898 165.404099 
L 375.999716 165.352046 
L 376.281534 165.579946 
L 377.126989 165.60261 
L 377.408807 165.346274 
L 378.254261 165.159108 
L 378.53608 165.340775 
L 379.099716 164.955487 
L 379.381534 164.961174 
L 379.663352 165.192407 
L 380.508807 164.957008 
L 380.790625 165.14609 
L 381.354261 165.081873 
L 381.63608 165.095156 
L 381.917898 164.807499 
L 382.199716 165.227654 
L 382.481534 165.265696 
L 382.763352 165.102711 
L 383.04517 165.185314 
L 383.326989 165.01151 
L 383.608807 164.705123 
L 383.890625 165.269076 
L 384.172443 164.957094 
L 384.454261 165.006678 
L 384.73608 165.341122 
L 385.863352 164.661598 
L 386.14517 164.945137 
L 386.426989 164.734969 
L 386.990625 164.692162 
L 387.272443 165.130199 
L 388.117898 164.760042 
L 388.399716 164.834812 
L 388.681534 164.605401 
L 388.963352 164.753951 
L 389.24517 164.640127 
L 389.526989 164.66802 
L 389.808807 165.084929 
L 390.090625 164.800336 
L 390.372443 164.702486 
L 390.654261 165.092238 
L 390.93608 164.784989 
L 391.499716 164.654922 
L 391.781534 165.050918 
L 392.063352 165.093622 
L 392.34517 165.015084 
L 392.626989 165.172939 
L 393.190625 164.853587 
L 393.472443 164.752789 
L 393.754261 164.881242 
L 394.881534 164.767417 
L 395.163352 164.537673 
L 396.290625 164.844207 
L 396.572443 164.598544 
L 396.854261 164.904032 
L 397.13608 164.632145 
L 397.417898 164.646115 
L 397.699716 164.791362 
L 397.981534 164.208409 
L 398.263352 164.719849 
L 398.54517 164.686455 
L 398.826989 164.972158 
L 399.108807 164.608045 
L 399.390625 164.512367 
L 399.672443 164.873126 
L 399.954261 164.519728 
L 400.23608 164.652589 
L 400.517898 164.555593 
L 401.64517 164.682474 
L 401.926989 164.428386 
L 402.208807 164.624395 
L 402.490625 164.293484 
L 402.772443 164.24004 
L 403.054261 164.454602 
L 403.33608 164.292867 
L 403.617898 164.303185 
L 403.899716 164.651095 
L 404.463352 164.280737 
L 404.74517 164.557873 
L 405.026989 164.271067 
L 405.308807 164.266 
L 405.590625 164.44347 
L 405.872443 164.195717 
L 406.154261 164.480342 
L 406.43608 164.262198 
L 406.717898 164.47356 
L 407.84517 164.474068 
L 408.126989 164.274049 
L 408.408807 164.2959 
L 408.690625 164.543015 
L 408.972443 164.4575 
L 409.254261 164.096063 
L 409.53608 164.069542 
L 410.381534 164.533253 
L 410.94517 164.003254 
L 411.226989 164.192278 
L 411.508807 164.001959 
L 411.790625 164.387457 
L 412.072443 163.97977 
L 413.199716 164.528569 
L 413.481534 164.349138 
L 413.763352 164.334457 
L 414.326989 164.653693 
L 415.454261 164.180747 
L 415.73608 164.086963 
L 416.581534 164.528379 
L 416.863352 164.58565 
L 417.990625 163.922121 
L 418.272443 164.462573 
L 419.399716 163.85215 
L 419.681534 163.889815 
L 419.963352 164.066193 
L 420.526989 163.871367 
L 420.808807 164.048066 
L 421.090625 163.984092 
L 421.372443 164.183415 
L 421.654261 163.935769 
L 422.217898 164.274146 
L 422.781534 164.070609 
L 423.063352 164.312891 
L 423.34517 163.686835 
L 423.908807 164.360954 
L 424.190625 164.122158 
L 424.472443 164.114516 
L 424.754261 164.334064 
L 425.03608 164.137498 
L 425.599716 163.311133 
L 425.881534 163.220176 
L 426.163352 163.550361 
L 426.44517 163.448418 
L 426.726989 163.71331 
L 427.008807 163.351477 
L 427.290625 163.172701 
L 428.13608 163.263854 
L 428.417898 163.151975 
L 428.699716 163.343163 
L 429.263352 162.793354 
L 429.54517 163.166055 
L 430.108807 163.046597 
L 430.954261 162.993135 
L 431.23608 162.682104 
L 431.517898 163.00989 
L 431.799716 162.76588 
L 432.081534 163.042647 
L 432.363352 162.971003 
L 432.64517 163.169542 
L 432.926989 163.025507 
L 433.208807 162.715005 
L 434.617898 163.120688 
L 434.899716 162.887892 
L 435.181534 162.861099 
L 435.463352 162.605368 
L 435.74517 162.718996 
L 436.026989 163.119639 
L 436.308807 163.036418 
L 436.590625 163.323475 
L 436.872443 162.959207 
L 437.717898 163.009442 
L 438.281534 163.040084 
L 438.563352 162.830066 
L 438.84517 162.901827 
L 439.126989 162.797376 
L 439.408807 162.475898 
L 439.690625 162.791582 
L 439.972443 162.640072 
L 440.254261 163.394182 
L 440.53608 162.886997 
L 440.817898 163.447382 
L 441.099716 162.934262 
L 441.381534 162.727804 
L 441.663352 162.685986 
L 441.94517 162.775527 
L 442.226989 163.118003 
L 442.508807 163.029959 
L 443.072443 163.580475 
L 443.354261 163.307008 
L 443.63608 163.212574 
L 443.917898 163.684076 
L 444.199716 163.105919 
L 444.481534 163.019657 
L 445.04517 163.315244 
L 445.326989 163.477329 
L 445.608807 163.444926 
L 445.890625 163.690502 
L 446.172443 163.648543 
L 446.73608 163.3947 
L 447.017898 163.744203 
L 447.863352 163.143768 
L 448.14517 163.415798 
L 448.426989 163.310896 
L 448.708807 163.67192 
L 448.990625 163.190308 
L 449.272443 163.697398 
L 449.554261 163.33503 
L 450.117898 163.443772 
L 450.399716 163.437266 
L 450.681534 163.627919 
L 450.963352 163.250961 
L 451.24517 163.463307 
L 451.526989 163.297489 
L 451.808807 163.707538 
L 452.372443 163.488831 
L 452.93608 163.635926 
L 453.217898 163.571218 
L 453.499716 162.969432 
L 453.781534 162.92423 
L 454.34517 163.194457 
L 454.626989 163.047116 
L 455.190625 163.328055 
L 455.472443 162.946821 
L 455.754261 162.85899 
L 456.03608 162.971228 
L 456.317898 163.386788 
L 456.599716 163.444905 
L 456.881534 163.125637 
L 457.163352 163.273733 
L 457.44517 162.927007 
L 457.726989 163.151833 
L 458.008807 163.123786 
L 459.13608 163.534105 
L 459.417898 163.331042 
L 459.981534 163.854146 
L 460.263352 163.527955 
L 461.108807 163.508207 
L 461.390625 163.741828 
L 461.672443 163.796721 
L 461.954261 163.499965 
L 462.23608 163.539115 
L 462.517898 163.334905 
L 463.081534 163.186907 
L 463.64517 163.673722 
L 463.926989 163.735178 
L 464.208807 164.048334 
L 464.490625 163.92189 
L 465.33608 164.304807 
L 465.899716 164.125634 
L 466.463352 164.252523 
L 466.74517 164.62846 
L 467.026989 164.602421 
L 467.308807 164.358821 
L 467.872443 165.029742 
L 468.154261 164.726724 
L 468.999716 165.276789 
L 469.281534 165.193341 
L 469.84517 165.498359 
L 470.126989 165.31553 
L 470.408807 165.578749 
L 470.690625 165.225906 
L 470.972443 165.475287 
L 471.254261 165.34384 
L 471.53608 164.817678 
L 471.817898 165.300054 
L 472.099716 165.344604 
L 472.381534 165.08636 
L 472.663352 165.64437 
L 472.94517 165.404755 
L 473.226989 165.726027 
L 473.508807 165.371264 
L 474.072443 165.271767 
L 474.917898 165.553845 
L 475.199716 165.469172 
L 475.481534 165.752799 
L 475.763352 165.570409 
L 476.04517 165.727335 
L 476.326989 165.467782 
L 476.608807 165.635921 
L 476.890625 165.430688 
L 477.172443 165.549762 
L 477.454261 165.806105 
L 477.73608 165.224773 
L 478.017898 165.129538 
L 478.299716 165.225561 
L 478.581534 165.732816 
L 478.863352 165.525223 
L 479.14517 165.58756 
L 479.426989 165.477502 
L 479.708807 165.196641 
L 479.990625 165.234042 
L 480.554261 164.933286 
L 480.83608 165.292502 
L 481.399716 165.39771 
L 482.526989 165.239165 
L 483.372443 164.966709 
L 483.654261 165.05344 
L 483.93608 164.891523 
L 484.217898 164.945722 
L 484.499716 164.861902 
L 484.781534 165.331493 
L 485.063352 165.255016 
L 485.34517 164.928494 
L 486.190625 165.024896 
L 486.472443 164.694183 
L 487.317898 165.093285 
L 487.599716 165.17883 
L 487.881534 165.093513 
L 488.163352 165.384542 
L 488.44517 165.513496 
L 489.008807 165.431312 
L 489.290625 165.090467 
L 489.572443 165.447336 
L 490.13608 165.467546 
L 490.417898 165.595144 
L 491.263352 165.073434 
L 491.826989 165.356666 
L 492.108807 165.305978 
L 492.390625 165.369707 
L 492.672443 165.622049 
L 493.23608 165.426455 
L 493.799716 165.50094 
L 494.081534 165.154777 
L 494.363352 165.524367 
L 494.926989 165.410721 
L 495.490625 165.263614 
L 495.772443 165.499795 
L 496.33608 165.187199 
L 496.617898 165.160398 
L 496.899716 165.368079 
L 497.181534 165.306856 
L 497.463352 165.127878 
L 497.74517 165.301659 
L 498.026989 165.681492 
L 498.590625 165.415697 
L 498.872443 165.382634 
L 499.154261 165.123403 
L 499.43608 165.07401 
L 500.281534 165.486412 
L 500.563352 165.54138 
L 501.690625 165.227077 
L 501.972443 165.375299 
L 502.817898 165.315846 
L 503.099716 165.827471 
L 503.381534 165.409328 
L 503.663352 165.669738 
L 503.94517 165.420516 
L 504.226989 165.535169 
L 504.508807 165.51177 
L 505.072443 165.994836 
L 505.917898 165.489104 
L 506.199716 165.473907 
L 506.481534 166.09311 
L 507.04517 165.639348 
L 507.326989 165.587344 
L 507.608807 165.844879 
L 508.172443 165.737144 
L 508.454261 165.672052 
L 509.299716 166.424055 
L 509.581534 165.894902 
L 509.863352 166.143328 
L 510.14517 166.229895 
L 510.708807 166.641475 
L 510.990625 166.33069 
L 511.272443 166.222131 
L 511.554261 166.586801 
L 511.83608 166.399723 
L 512.117898 166.609522 
L 512.399716 166.427219 
L 512.681534 166.660964 
L 512.963352 166.39671 
L 513.24517 166.284962 
L 513.526989 166.756875 
L 514.372443 166.607576 
L 514.654261 166.622132 
L 514.93608 166.301418 
L 515.217898 166.531905 
L 515.499716 166.338922 
L 516.063352 166.813478 
L 516.626989 166.401922 
L 516.908807 166.771612 
L 517.190625 166.757206 
L 517.472443 166.408875 
L 517.754261 166.256474 
L 518.03608 166.610034 
L 518.599716 166.422235 
L 518.881534 166.604948 
L 519.163352 166.428411 
L 519.44517 166.773806 
L 520.290625 166.745929 
L 520.572443 166.609996 
L 520.854261 166.812342 
L 521.13608 166.800659 
L 521.417898 167.088221 
L 521.699716 167.119058 
L 521.981534 166.897972 
L 522.263352 167.463814 
L 522.54517 166.96357 
L 522.826989 166.889133 
L 523.390625 167.155291 
L 524.517898 167.25136 
L 524.799716 167.142209 
L 525.64517 167.445478 
L 526.208807 167.225898 
L 526.490625 167.290456 
L 526.772443 167.091189 
L 527.054261 167.241972 
L 527.33608 167.15485 
L 527.617898 166.944896 
L 527.899716 167.179009 
L 528.181534 167.078729 
L 528.463352 166.691969 
L 528.74517 167.161117 
L 529.026989 166.707503 
L 529.308807 167.243958 
L 529.590625 167.209632 
L 529.872443 166.934781 
L 530.43608 167.182068 
L 531.281534 167.118337 
L 531.563352 167.283874 
L 531.84517 167.193547 
L 532.126989 167.515341 
L 532.408807 167.410547 
L 532.690625 167.010089 
L 533.53608 167.376477 
L 533.817898 167.227316 
L 534.099716 166.920654 
L 534.381534 167.208641 
L 534.663352 167.202293 
L 534.94517 167.473153 
L 535.508807 167.381152 
L 535.790625 167.582576 
L 536.072443 167.097117 
L 536.63608 167.078117 
L 536.917898 166.932825 
L 537.199716 167.100937 
L 538.326989 167.161149 
L 538.608807 167.442351 
L 539.172443 166.944769 
L 539.454261 166.94633 
L 539.73608 167.200211 
L 540.017898 166.99337 
L 540.299716 167.031194 
L 540.581534 166.902595 
L 540.863352 166.98044 
L 541.14517 167.292674 
L 541.708807 167.175885 
L 541.990625 167.120249 
L 542.272443 167.323454 
L 542.554261 167.097371 
L 542.83608 167.09636 
L 543.399716 167.278723 
L 543.681534 167.016345 
L 543.963352 167.361537 
L 544.24517 166.986929 
L 544.808807 167.163103 
L 545.090625 167.03355 
L 546.217898 167.29192 
L 546.499716 167.046887 
L 546.781534 167.157359 
L 547.063352 167.436682 
L 547.626989 167.303664 
L 547.908807 167.05332 
L 548.472443 167.158038 
L 548.754261 167.355554 
L 549.03608 167.120093 
L 549.317898 167.256021 
L 549.599716 167.209383 
L 549.881534 167.332926 
L 550.163352 167.195862 
L 550.44517 167.49375 
L 551.008807 167.36022 
L 551.290625 167.221159 
L 551.572443 167.341792 
L 551.854261 167.178892 
L 552.13608 167.352791 
L 552.417898 167.290657 
L 552.699716 166.95641 
L 552.981534 167.234351 
L 553.263352 167.179096 
L 553.54517 167.002065 
L 554.390625 166.886782 
L 554.954261 167.351689 
L 555.23608 167.090581 
L 555.517898 167.412938 
L 555.799716 167.142867 
L 556.081534 167.122391 
L 556.363352 166.866045 
L 556.64517 167.109817 
L 556.926989 167.184099 
L 557.208807 167.051088 
L 557.490625 167.2718 
L 558.617898 167.064556 
L 559.181534 167.19897 
L 559.463352 167.124766 
L 559.74517 167.278452 
L 560.026989 167.129922 
L 560.308807 166.680033 
L 560.590625 167.119867 
L 560.872443 167.287252 
L 562.563352 167.097818 
L 563.126989 167.302329 
L 563.408807 167.586221 
L 563.690625 167.134862 
L 563.972443 167.236625 
L 564.817898 166.735327 
L 565.663352 167.117434 
L 565.94517 166.788169 
L 567.354261 166.966404 
L 567.917898 166.811171 
L 568.199716 166.758692 
L 568.481534 167.034201 
L 568.763352 166.919761 
L 569.04517 166.995458 
L 569.608807 166.886735 
L 570.172443 167.10995 
L 570.454261 167.033702 
L 570.73608 166.809664 
L 571.017898 166.828297 
L 571.299716 167.048953 
L 571.581534 167.043926 
L 571.863352 166.890093 
L 572.14517 166.89041 
L 572.426989 166.662337 
L 572.990625 167.17164 
L 573.83608 167.201193 
L 574.681534 166.914889 
L 574.963352 167.100228 
L 575.526989 166.935225 
L 576.654261 166.99107 
L 577.499716 166.681341 
L 578.063352 166.99984 
L 578.34517 167.110983 
L 579.472443 167.148076 
L 579.754261 166.733197 
L 580.03608 166.898245 
L 580.599716 166.894702 
L 580.881534 167.100171 
L 581.163352 166.99988 
L 581.44517 167.164622 
L 582.008807 167.039218 
L 582.572443 166.791866 
L 582.854261 166.751196 
L 583.13608 166.879025 
L 583.417898 166.812579 
L 583.699716 166.930833 
L 583.981534 166.780987 
L 584.826989 167.000787 
L 585.108807 166.767412 
L 585.390625 167.016392 
L 585.672443 167.018942 
L 585.954261 166.760195 
L 586.23608 166.758844 
L 586.517898 166.920795 
L 587.081534 166.646311 
L 587.64517 166.757888 
L 587.926989 166.943589 
L 588.208807 166.965975 
L 588.490625 166.758076 
L 588.772443 166.873025 
L 589.054261 166.853923 
L 589.33608 166.67732 
L 589.617898 166.819284 
L 589.899716 166.701164 
L 591.308807 166.917384 
L 591.590625 166.781098 
L 591.872443 166.965104 
L 592.154261 167.011042 
L 592.43608 166.903857 
L 592.717898 166.963833 
L 592.999716 167.140109 
L 593.563352 166.865821 
L 593.84517 167.051344 
L 594.408807 166.894241 
L 594.972443 166.763541 
L 595.53608 166.735959 
L 595.817898 166.574168 
L 596.94517 167.245232 
L 597.226989 166.836654 
L 597.790625 167.050461 
L 598.072443 167.057976 
L 598.354261 166.949687 
L 598.63608 167.407858 
L 598.917898 167.190563 
L 599.763352 166.978036 
L 600.326989 167.215635 
L 600.608807 167.130182 
L 600.890625 167.278835 
L 601.73608 167.118266 
L 602.017898 167.050038 
L 602.299716 167.274917 
L 602.581534 166.872602 
L 603.990625 167.455422 
L 604.272443 167.074112 
L 605.117898 167.383287 
L 605.399716 167.245902 
L 606.526989 167.291854 
L 606.808807 167.457617 
L 607.090625 167.264008 
L 607.654261 167.230342 
L 607.93608 167.54201 
L 608.217898 167.330509 
L 608.499716 167.487305 
L 609.626989 167.389959 
L 609.908807 167.386045 
L 610.190625 167.655118 
L 610.472443 167.255956 
L 610.754261 167.213944 
L 611.599716 167.469216 
L 611.881534 167.542995 
L 612.163352 167.289612 
L 612.44517 167.517772 
L 612.726989 167.413866 
L 613.008807 167.625718 
L 613.572443 167.35077 
L 613.854261 167.565641 
L 614.13608 167.300319 
L 614.417898 167.318338 
L 614.699716 167.458244 
L 614.981534 167.438914 
L 615.263352 167.243882 
L 615.54517 167.610682 
L 615.826989 167.323279 
L 616.108807 167.321791 
L 616.390625 167.1938 
L 616.672443 167.560044 
L 616.954261 167.431891 
L 618.081534 167.620014 
L 618.363352 167.452328 
L 618.64517 167.571482 
L 618.926989 167.384692 
L 619.208807 167.403196 
L 619.490625 167.557126 
L 619.772443 167.43465 
L 620.33608 167.425182 
L 620.617898 167.289413 
L 621.181534 167.329787 
L 621.463352 167.053066 
L 622.026989 167.420044 
L 622.308807 167.004471 
L 622.590625 167.098606 
L 622.872443 167.046687 
L 623.43608 167.257707 
L 623.717898 166.86132 
L 623.999716 167.436012 
L 624.281534 167.032337 
L 624.563352 167.277715 
L 624.84517 167.280643 
L 625.126989 167.403377 
L 625.126989 167.403377 
" clip-path="url(#p7c89b4d60f)" style="fill: none; stroke: #1f77b4; stroke-width: 1.5; stroke-linecap: square"/>
   </g>
   <g id="line2d_16">
    <path d="M 117.854261 279.873572 
L 118.13608 296.03625 
L 118.417898 229.281287 
L 118.699716 236.122226 
L 118.981534 248.683705 
L 119.263352 218.367146 
L 119.54517 218.400539 
L 119.826989 211.195002 
L 120.108807 212.309144 
L 120.672443 190.346982 
L 120.954261 196.462808 
L 121.23608 197.599644 
L 121.517898 188.094759 
L 121.799716 190.045917 
L 122.363352 182.039231 
L 122.64517 184.063975 
L 122.926989 178.165499 
L 123.208807 185.158377 
L 123.490625 189.378565 
L 123.772443 176.672747 
L 124.33608 183.472574 
L 124.617898 179.997455 
L 124.899716 178.764802 
L 125.181534 179.431397 
L 125.463352 182.701853 
L 125.74517 182.914498 
L 126.308807 177.760056 
L 126.590625 179.800106 
L 126.872443 178.200928 
L 127.154261 177.564652 
L 127.43608 182.456204 
L 127.717898 180.002798 
L 127.999716 180.160606 
L 128.281534 177.633725 
L 128.563352 171.751738 
L 128.84517 175.715035 
L 129.126989 176.917602 
L 129.408807 180.125995 
L 129.972443 181.196825 
L 130.254261 177.825646 
L 130.53608 172.58093 
L 130.817898 176.092026 
L 131.099716 173.568487 
L 131.381534 176.855695 
L 131.663352 172.650635 
L 131.94517 173.922036 
L 132.226989 173.975875 
L 132.508807 176.504977 
L 132.790625 175.221635 
L 133.072443 174.523708 
L 133.354261 174.930204 
L 133.63608 173.528425 
L 133.917898 173.39019 
L 134.199716 173.696387 
L 134.481534 172.941273 
L 134.763352 173.272394 
L 135.326989 171.465539 
L 135.608807 173.366213 
L 135.890625 174.304074 
L 136.172443 173.084636 
L 136.73608 171.892487 
L 137.017898 173.810638 
L 137.299716 171.464085 
L 137.581534 172.166575 
L 137.863352 171.781889 
L 138.14517 173.27443 
L 138.426989 173.75368 
L 138.708807 172.98322 
L 138.990625 172.752532 
L 139.272443 171.319888 
L 139.554261 172.930911 
L 140.399716 172.06188 
L 140.681534 172.467343 
L 140.963352 173.41976 
L 141.24517 172.478722 
L 141.526989 172.219409 
L 141.808807 172.697218 
L 142.090625 171.90948 
L 142.372443 172.378783 
L 142.654261 171.586432 
L 142.93608 171.869044 
L 143.217898 171.526817 
L 143.499716 170.921173 
L 144.063352 171.83602 
L 144.34517 171.57401 
L 144.626989 170.570799 
L 144.908807 170.899908 
L 145.190625 170.631288 
L 145.472443 170.626831 
L 145.754261 171.536026 
L 146.03608 171.903319 
L 146.599716 170.543677 
L 146.881534 170.406881 
L 147.163352 171.779958 
L 147.44517 171.60602 
L 147.726989 170.761067 
L 148.008807 171.723131 
L 148.290625 172.054827 
L 148.572443 171.475037 
L 148.854261 172.41331 
L 149.13608 170.467703 
L 149.417898 170.643053 
L 149.981534 172.318618 
L 150.263352 171.77277 
L 150.54517 170.608154 
L 150.826989 170.90237 
L 151.108807 170.988016 
L 151.390625 171.349299 
L 151.672443 171.397261 
L 151.954261 170.114963 
L 152.23608 170.751939 
L 152.517898 170.629996 
L 152.799716 170.773039 
L 153.081534 169.586336 
L 153.64517 172.064358 
L 153.926989 170.821795 
L 154.208807 170.186214 
L 154.490625 171.034565 
L 154.772443 170.430537 
L 155.054261 170.719736 
L 155.33608 170.830545 
L 155.899716 170.704124 
L 156.74517 171.807075 
L 157.026989 170.82302 
L 157.308807 170.941997 
L 157.590625 170.739885 
L 157.872443 171.1053 
L 158.43608 170.846343 
L 158.717898 170.275569 
L 158.999716 171.007003 
L 159.281534 170.317854 
L 159.563352 170.045591 
L 159.84517 170.058158 
L 160.126989 169.565035 
L 160.408807 171.321042 
L 160.690625 170.030748 
L 160.972443 170.162693 
L 161.254261 170.965113 
L 161.53608 171.410399 
L 161.817898 170.487894 
L 162.099716 170.52781 
L 162.381534 170.74821 
L 162.663352 170.162101 
L 162.94517 170.190171 
L 163.508807 171.636929 
L 163.790625 170.866164 
L 164.072443 170.810881 
L 164.63608 171.681934 
L 164.917898 170.616611 
L 165.199716 170.565592 
L 165.481534 171.141648 
L 165.763352 170.184501 
L 166.04517 171.161076 
L 166.608807 170.791018 
L 166.890625 171.147726 
L 167.172443 171.722995 
L 167.454261 172.623044 
L 167.73608 171.459207 
L 168.017898 171.681699 
L 168.299716 171.57636 
L 168.581534 172.06863 
L 168.863352 171.753699 
L 169.14517 172.544106 
L 169.426989 171.423933 
L 169.708807 171.005426 
L 169.990625 171.843317 
L 170.554261 171.640797 
L 171.117898 172.14075 
L 171.681534 172.954871 
L 172.24517 172.095974 
L 172.526989 172.188807 
L 172.808807 173.760838 
L 173.090625 172.562795 
L 173.654261 173.052606 
L 173.93608 172.443163 
L 174.217898 173.142692 
L 174.499716 172.775511 
L 175.063352 173.084929 
L 175.34517 173.920099 
L 175.908807 172.101883 
L 176.472443 172.541096 
L 176.754261 172.803393 
L 177.03608 172.85655 
L 177.317898 172.351432 
L 177.599716 171.509069 
L 177.881534 171.321223 
L 178.163352 171.419382 
L 178.44517 171.285774 
L 178.726989 172.108168 
L 179.290625 171.253369 
L 179.854261 172.49078 
L 180.13608 172.608069 
L 180.417898 173.112575 
L 180.699716 172.269899 
L 180.981534 171.918521 
L 181.263352 172.153425 
L 181.54517 172.02884 
L 181.826989 172.719266 
L 182.390625 172.177208 
L 182.672443 172.423473 
L 182.954261 172.513332 
L 183.23608 172.845066 
L 183.517898 172.658453 
L 183.799716 171.245621 
L 184.081534 172.38168 
L 184.363352 172.28215 
L 184.64517 173.372593 
L 184.926989 172.186195 
L 185.208807 172.165862 
L 185.772443 172.337176 
L 186.33608 171.738366 
L 186.617898 171.665087 
L 186.899716 172.437338 
L 187.181534 172.733014 
L 187.463352 172.696569 
L 187.74517 172.782286 
L 188.026989 172.151995 
L 188.308807 172.602721 
L 188.872443 172.812256 
L 189.154261 172.508644 
L 189.43608 172.662115 
L 189.717898 172.388833 
L 189.999716 172.616574 
L 190.281534 172.498701 
L 190.563352 172.122567 
L 190.84517 172.47289 
L 191.126989 172.364584 
L 191.690625 172.871487 
L 191.972443 172.517568 
L 192.53608 172.59048 
L 193.099716 172.624459 
L 193.381534 173.175465 
L 193.663352 172.992484 
L 193.94517 172.353261 
L 194.226989 172.5161 
L 194.790625 171.884285 
L 195.072443 172.097075 
L 195.354261 172.109714 
L 195.63608 171.864138 
L 195.917898 171.240428 
L 196.199716 171.567323 
L 196.481534 172.146654 
L 196.763352 171.994954 
L 197.04517 171.425419 
L 198.172443 171.522025 
L 198.454261 171.31688 
L 198.73608 171.770494 
L 199.017898 171.386278 
L 199.299716 171.928892 
L 199.581534 171.259012 
L 199.863352 171.4512 
L 200.14517 170.369318 
L 200.426989 170.40821 
L 200.708807 171.24932 
L 201.272443 171.645808 
L 201.554261 171.432089 
L 201.83608 170.870355 
L 202.117898 170.705431 
L 202.681534 171.496114 
L 202.963352 171.357391 
L 203.24517 171.090043 
L 203.808807 171.195128 
L 204.090625 170.567788 
L 204.372443 171.1952 
L 204.654261 171.372187 
L 205.217898 171.282026 
L 205.499716 171.504699 
L 205.781534 171.413546 
L 206.063352 171.482663 
L 206.34517 171.283417 
L 206.626989 170.488237 
L 206.908807 170.14749 
L 207.190625 170.217916 
L 207.472443 170.620474 
L 207.754261 170.588689 
L 208.03608 170.770071 
L 208.317898 171.479387 
L 208.599716 171.577134 
L 209.44517 169.732971 
L 210.008807 170.853654 
L 210.290625 171.834664 
L 210.854261 169.863961 
L 211.13608 170.01213 
L 211.417898 170.679295 
L 211.699716 170.809484 
L 211.981534 170.373653 
L 212.263352 170.646982 
L 212.54517 170.706901 
L 212.826989 171.397387 
L 213.108807 171.649515 
L 213.390625 170.914472 
L 213.954261 171.327974 
L 214.23608 171.237939 
L 214.517898 171.673736 
L 215.081534 171.156738 
L 215.363352 171.678756 
L 215.64517 171.908632 
L 215.926989 171.920126 
L 216.208807 172.136642 
L 216.490625 171.43629 
L 216.772443 172.067896 
L 217.054261 171.752724 
L 217.33608 171.255918 
L 217.617898 171.689928 
L 217.899716 171.761018 
L 218.181534 171.126637 
L 218.463352 171.644371 
L 218.74517 171.762199 
L 219.026989 171.024279 
L 219.308807 170.619721 
L 219.872443 171.182932 
L 220.154261 171.228709 
L 220.43608 172.165991 
L 220.717898 170.488334 
L 220.999716 170.738428 
L 221.563352 170.361173 
L 222.126989 170.765861 
L 222.408807 170.67092 
L 222.690625 170.332637 
L 222.972443 170.253046 
L 223.53608 170.94447 
L 223.817898 170.847824 
L 224.663352 170.808926 
L 224.94517 170.111458 
L 225.226989 170.489234 
L 225.508807 170.271381 
L 225.790625 170.959132 
L 226.072443 170.820191 
L 226.354261 170.369069 
L 226.63608 170.638293 
L 227.199716 170.1911 
L 227.481534 170.466663 
L 227.763352 170.581859 
L 228.04517 171.227926 
L 228.326989 170.580491 
L 228.608807 170.653676 
L 228.890625 170.451126 
L 229.172443 170.944141 
L 230.017898 170.110239 
L 230.299716 170.330278 
L 230.581534 171.00966 
L 231.14517 170.360234 
L 231.708807 170.717318 
L 231.990625 170.471237 
L 232.272443 170.075147 
L 232.554261 170.575221 
L 232.83608 170.607303 
L 233.117898 171.228849 
L 233.681534 170.540423 
L 233.963352 170.754063 
L 234.24517 170.564182 
L 234.526989 170.554935 
L 235.090625 171.075504 
L 235.654261 170.495544 
L 235.93608 170.914215 
L 236.217898 170.258211 
L 236.499716 170.444911 
L 236.781534 171.156295 
L 237.063352 170.631476 
L 237.34517 170.687671 
L 237.626989 170.969143 
L 237.908807 171.027482 
L 238.190625 170.651871 
L 238.472443 171.264681 
L 238.754261 170.833352 
L 239.03608 171.104245 
L 239.317898 171.049843 
L 239.599716 170.797557 
L 239.881534 171.194854 
L 240.163352 170.688947 
L 240.44517 170.853175 
L 241.290625 170.609858 
L 241.572443 170.932736 
L 241.854261 170.881473 
L 242.699716 171.164751 
L 242.981534 171.039106 
L 243.263352 171.263688 
L 243.826989 170.682666 
L 244.108807 171.0841 
L 244.390625 170.865254 
L 244.672443 170.919221 
L 245.23608 169.970601 
L 245.517898 170.716222 
L 246.363352 170.824175 
L 246.64517 171.040578 
L 246.926989 170.842447 
L 247.208807 171.139937 
L 247.490625 170.725562 
L 247.772443 170.723661 
L 248.054261 171.404812 
L 248.33608 171.520254 
L 248.617898 171.04479 
L 248.899716 171.109308 
L 249.181534 170.499166 
L 249.463352 170.538778 
L 249.74517 170.372335 
L 250.026989 170.553715 
L 250.308807 170.509947 
L 250.590625 170.322723 
L 250.872443 170.603899 
L 251.154261 170.523176 
L 251.43608 171.179263 
L 251.717898 170.524289 
L 251.999716 170.359959 
L 252.281534 170.562681 
L 253.126989 170.824989 
L 253.408807 171.195004 
L 253.690625 170.871304 
L 253.972443 170.723989 
L 254.817898 170.931994 
L 255.099716 170.610474 
L 255.663352 170.723797 
L 255.94517 170.663586 
L 256.226989 170.220067 
L 256.508807 170.623727 
L 256.790625 170.470245 
L 257.072443 170.651572 
L 257.63608 170.687737 
L 257.917898 170.913263 
L 258.199716 171.407915 
L 258.481534 171.001143 
L 258.763352 171.088535 
L 259.04517 170.53874 
L 259.326989 170.487934 
L 259.608807 170.994191 
L 260.172443 170.35788 
L 260.454261 170.819966 
L 261.581534 170.541169 
L 261.863352 171.107514 
L 262.14517 171.014682 
L 262.426989 170.751041 
L 262.708807 171.028125 
L 262.990625 170.895951 
L 263.272443 171.079823 
L 263.554261 170.895905 
L 264.117898 171.318046 
L 264.399716 171.257973 
L 264.681534 170.889967 
L 264.963352 171.1763 
L 265.24517 170.916294 
L 265.526989 171.377944 
L 265.808807 171.162762 
L 266.090625 171.180479 
L 266.372443 170.558245 
L 266.93608 171.548957 
L 267.217898 171.032995 
L 267.499716 171.463148 
L 267.781534 170.882761 
L 268.063352 170.59282 
L 268.34517 171.253108 
L 268.626989 170.78524 
L 268.908807 171.021826 
L 269.472443 170.645328 
L 269.754261 171.000515 
L 270.03608 170.860525 
L 270.599716 171.094552 
L 270.881534 170.364914 
L 271.163352 170.866997 
L 271.44517 170.831859 
L 271.726989 171.290416 
L 272.008807 171.293254 
L 272.290625 170.908916 
L 272.572443 171.048758 
L 272.854261 170.913447 
L 273.13608 171.070581 
L 273.417898 170.749205 
L 273.981534 170.848254 
L 274.263352 170.962731 
L 274.826989 170.782693 
L 275.108807 170.933034 
L 275.390625 170.949966 
L 275.672443 171.301036 
L 275.954261 169.332539 
L 276.23608 169.926711 
L 276.799716 170.49499 
L 277.363352 170.405228 
L 278.208807 170.811339 
L 278.490625 170.612967 
L 278.772443 170.642198 
L 279.054261 170.455008 
L 279.33608 170.731423 
L 279.899716 170.809703 
L 280.181534 170.577778 
L 280.463352 170.505986 
L 280.74517 170.677812 
L 281.590625 170.609635 
L 281.872443 170.225772 
L 282.154261 170.528325 
L 282.43608 170.568146 
L 282.717898 170.439006 
L 282.999716 170.782697 
L 283.281534 170.641427 
L 283.563352 170.035326 
L 283.84517 170.041078 
L 284.408807 171.248826 
L 284.690625 170.746982 
L 285.254261 170.667659 
L 285.53608 170.477283 
L 285.817898 171.042017 
L 286.099716 170.825114 
L 286.381534 171.00509 
L 286.663352 171.56915 
L 287.226989 170.327246 
L 287.508807 170.535135 
L 287.790625 170.962961 
L 288.072443 170.77303 
L 288.354261 170.441492 
L 288.63608 170.657906 
L 288.917898 170.720379 
L 289.199716 170.290958 
L 289.481534 170.997113 
L 289.763352 170.501205 
L 290.04517 171.006051 
L 290.326989 170.707502 
L 290.608807 170.674827 
L 290.890625 170.45803 
L 291.172443 170.61639 
L 291.454261 172.325143 
L 291.73608 171.185924 
L 292.017898 171.618554 
L 292.299716 170.854029 
L 292.581534 170.917794 
L 292.863352 171.271686 
L 293.14517 170.88346 
L 293.426989 171.182975 
L 294.272443 170.78515 
L 294.554261 171.311183 
L 294.83608 171.256314 
L 295.117898 170.719517 
L 295.399716 171.386026 
L 295.681534 170.838861 
L 296.24517 171.202269 
L 296.526989 170.874266 
L 296.808807 170.84593 
L 297.090625 170.54823 
L 297.372443 170.867128 
L 297.93608 170.53779 
L 298.217898 170.924849 
L 298.499716 171.054051 
L 298.781534 171.547175 
L 299.063352 170.712395 
L 299.34517 170.824263 
L 299.626989 171.641213 
L 299.908807 171.108665 
L 300.190625 171.620599 
L 300.472443 171.096028 
L 300.754261 171.280202 
L 301.03608 170.916987 
L 301.317898 171.126795 
L 301.599716 171.162409 
L 301.881534 170.940667 
L 302.163352 171.351826 
L 302.44517 170.151216 
L 302.726989 170.686556 
L 303.008807 170.974301 
L 303.290625 170.84513 
L 303.572443 171.255612 
L 304.699716 171.129073 
L 304.981534 170.605783 
L 305.263352 170.924165 
L 305.826989 170.892578 
L 306.108807 171.174157 
L 307.23608 171.039056 
L 307.517898 170.75442 
L 307.799716 170.972632 
L 308.081534 170.780145 
L 308.363352 171.070128 
L 308.64517 170.743612 
L 308.926989 170.932481 
L 309.490625 170.893091 
L 310.33608 170.910405 
L 310.617898 170.771546 
L 310.899716 170.408399 
L 311.181534 170.846615 
L 311.74517 171.151511 
L 312.026989 171.363946 
L 312.308807 171.270962 
L 312.590625 170.580653 
L 312.872443 171.562097 
L 313.154261 170.570145 
L 313.43608 171.126438 
L 313.717898 171.103101 
L 313.999716 170.853095 
L 314.281534 170.920671 
L 314.563352 170.615124 
L 314.84517 170.682173 
L 315.408807 170.385041 
L 315.690625 170.625611 
L 315.972443 170.422309 
L 316.254261 170.678709 
L 316.53608 170.575004 
L 317.381534 169.848171 
L 317.663352 170.460824 
L 317.94517 170.255669 
L 318.226989 171.026152 
L 318.508807 170.522831 
L 318.790625 170.536451 
L 319.072443 170.135789 
L 319.354261 170.098764 
L 320.199716 170.710914 
L 320.481534 170.414901 
L 320.763352 170.63194 
L 321.04517 170.129311 
L 321.326989 170.130603 
L 321.890625 169.887663 
L 322.172443 169.874953 
L 322.454261 170.316266 
L 322.73608 170.502616 
L 323.299716 170.119472 
L 323.581534 170.159134 
L 323.863352 170.662215 
L 324.426989 170.279717 
L 324.990625 170.34651 
L 325.272443 170.069146 
L 325.554261 170.374545 
L 325.83608 170.491802 
L 326.117898 170.216185 
L 326.399716 170.749537 
L 326.681534 170.813786 
L 326.963352 170.617648 
L 327.24517 170.661828 
L 327.526989 170.133418 
L 327.808807 170.464369 
L 328.090625 170.979377 
L 328.93608 170.197248 
L 329.217898 170.520642 
L 329.499716 170.321574 
L 329.781534 170.425701 
L 330.063352 170.117817 
L 330.34517 170.439945 
L 330.626989 170.242221 
L 330.908807 170.408411 
L 331.472443 170.060405 
L 331.754261 170.250804 
L 332.03608 170.167196 
L 332.317898 170.302541 
L 332.881534 170.212723 
L 333.163352 170.535555 
L 333.44517 170.368037 
L 333.726989 170.546681 
L 334.008807 170.03399 
L 334.290625 170.354272 
L 334.572443 170.124131 
L 334.854261 170.374013 
L 335.13608 170.083487 
L 335.417898 170.100018 
L 335.699716 169.97173 
L 335.981534 170.318687 
L 336.263352 170.376881 
L 336.54517 170.122507 
L 336.826989 170.314316 
L 337.108807 170.073596 
L 337.390625 170.370768 
L 337.672443 170.264862 
L 337.954261 170.412241 
L 338.23608 170.838574 
L 338.517898 170.282593 
L 338.799716 170.348494 
L 339.081534 169.93179 
L 339.363352 170.131248 
L 339.64517 169.840465 
L 339.926989 170.324899 
L 340.490625 170.065878 
L 340.772443 169.89356 
L 341.054261 169.855657 
L 341.33608 170.009696 
L 341.617898 170.493488 
L 341.899716 170.242058 
L 342.463352 170.538344 
L 342.74517 170.252216 
L 343.026989 170.415828 
L 343.308807 170.044925 
L 343.590625 170.063647 
L 343.872443 169.915651 
L 344.154261 170.417419 
L 344.43608 170.427913 
L 344.717898 170.846237 
L 345.281534 170.142493 
L 345.563352 170.341243 
L 345.84517 170.691597 
L 346.408807 170.892928 
L 346.972443 171.120652 
L 347.254261 170.728451 
L 347.53608 170.85151 
L 347.817898 171.110739 
L 348.663352 170.77133 
L 348.94517 170.90171 
L 349.226989 170.854564 
L 349.508807 170.925761 
L 349.790625 170.649481 
L 350.072443 170.805442 
L 350.354261 170.81924 
L 350.63608 170.559292 
L 350.917898 171.124981 
L 351.199716 171.2993 
L 351.481534 170.762827 
L 351.763352 171.028866 
L 352.04517 171.09506 
L 352.326989 171.609669 
L 352.608807 171.188789 
L 352.890625 171.281541 
L 353.172443 170.928361 
L 353.454261 171.110586 
L 353.73608 171.089306 
L 354.017898 170.879606 
L 354.299716 170.860786 
L 354.581534 171.113281 
L 354.863352 170.846153 
L 355.14517 171.311583 
L 355.426989 171.210715 
L 355.708807 170.668596 
L 355.990625 170.869015 
L 356.272443 170.589399 
L 356.554261 170.871449 
L 357.117898 170.943933 
L 357.399716 170.6563 
L 357.681534 170.771053 
L 357.963352 170.48415 
L 358.526989 170.756563 
L 358.808807 170.709858 
L 359.090625 171.286731 
L 359.372443 170.91314 
L 359.654261 171.253242 
L 359.93608 170.921944 
L 360.217898 171.252282 
L 360.499716 171.17014 
L 360.781534 170.884132 
L 362.190625 171.057768 
L 362.472443 170.745244 
L 363.03608 170.677015 
L 363.317898 170.763415 
L 363.881534 170.263252 
L 364.163352 170.507545 
L 364.726989 170.363127 
L 365.008807 170.089164 
L 365.290625 170.420628 
L 365.854261 170.016914 
L 366.13608 170.271502 
L 366.699716 170.023458 
L 366.981534 170.0542 
L 367.263352 170.479579 
L 367.54517 170.578667 
L 367.826989 170.33761 
L 368.108807 170.646129 
L 368.390625 170.686021 
L 368.672443 170.881125 
L 368.954261 169.948732 
L 369.23608 170.562044 
L 369.517898 170.569201 
L 369.799716 170.025146 
L 370.081534 170.052905 
L 370.363352 170.286068 
L 370.64517 170.3356 
L 370.926989 170.798744 
L 371.208807 170.779287 
L 371.490625 170.29529 
L 372.054261 170.692191 
L 372.33608 170.394517 
L 372.617898 170.509295 
L 373.181534 170.40034 
L 373.463352 170.642438 
L 373.74517 170.573191 
L 374.308807 170.879313 
L 374.590625 170.661327 
L 374.872443 170.73691 
L 375.43608 170.677608 
L 377.126989 171.002538 
L 377.408807 170.756244 
L 377.690625 170.773272 
L 377.972443 170.959438 
L 378.254261 170.699644 
L 378.53608 170.73429 
L 378.817898 170.607199 
L 379.099716 170.750103 
L 379.381534 170.540203 
L 379.663352 170.746863 
L 379.94517 170.659646 
L 380.226989 170.310499 
L 380.508807 170.374529 
L 380.790625 170.569105 
L 381.072443 170.573168 
L 381.354261 170.405482 
L 381.63608 170.816978 
L 381.917898 170.724727 
L 382.199716 171.17465 
L 382.481534 170.950989 
L 382.763352 171.001581 
L 383.326989 170.53722 
L 383.608807 170.852213 
L 383.890625 170.498689 
L 384.454261 171.005971 
L 384.73608 171.086147 
L 385.299716 170.613077 
L 385.581534 170.319721 
L 385.863352 170.728763 
L 386.14517 170.588431 
L 386.426989 170.748251 
L 387.272443 170.580194 
L 387.554261 170.195688 
L 387.83608 170.678286 
L 388.117898 170.480931 
L 388.399716 170.718711 
L 388.681534 170.205389 
L 388.963352 170.797843 
L 389.808807 170.251503 
L 390.090625 170.461242 
L 390.654261 170.313301 
L 390.93608 170.534969 
L 391.781534 170.15283 
L 392.063352 170.295025 
L 392.34517 170.048229 
L 392.626989 170.114739 
L 392.908807 170.512989 
L 393.472443 170.335186 
L 393.754261 170.362647 
L 394.03608 170.239345 
L 394.599716 170.682307 
L 394.881534 170.579261 
L 395.163352 170.628872 
L 395.44517 170.225182 
L 395.726989 170.154729 
L 396.008807 170.570562 
L 396.572443 170.44947 
L 396.854261 170.764033 
L 397.13608 170.149969 
L 397.417898 170.511641 
L 397.699716 170.036745 
L 397.981534 170.239178 
L 398.263352 170.244168 
L 398.54517 170.013723 
L 398.826989 170.385081 
L 399.108807 170.565675 
L 399.390625 170.114187 
L 399.672443 170.497564 
L 399.954261 169.853196 
L 400.23608 170.456234 
L 400.799716 170.205666 
L 401.081534 170.390788 
L 401.363352 170.061969 
L 401.64517 170.135122 
L 402.208807 170.470297 
L 402.772443 170.440059 
L 403.054261 170.413844 
L 403.33608 170.155735 
L 403.617898 170.631221 
L 403.899716 170.331966 
L 404.181534 170.239005 
L 404.463352 169.896883 
L 404.74517 170.209516 
L 405.026989 170.162665 
L 405.308807 170.404332 
L 405.590625 170.344384 
L 405.872443 170.42002 
L 406.154261 170.657113 
L 406.43608 170.320771 
L 406.717898 170.603148 
L 407.281534 170.770289 
L 407.563352 171.228524 
L 408.972443 170.576857 
L 409.254261 170.560361 
L 409.53608 170.409331 
L 409.817898 170.441528 
L 410.099716 170.648481 
L 410.381534 170.514168 
L 410.94517 170.412106 
L 411.226989 170.63745 
L 411.790625 170.266096 
L 412.072443 170.254527 
L 412.354261 170.654633 
L 412.917898 170.224479 
L 413.199716 170.088686 
L 413.481534 170.456989 
L 413.763352 170.40277 
L 414.04517 170.168849 
L 414.326989 170.531798 
L 414.608807 170.182117 
L 414.890625 170.595361 
L 415.172443 170.551233 
L 415.454261 170.886565 
L 415.73608 170.186528 
L 416.017898 170.777777 
L 416.299716 170.435066 
L 416.581534 170.396211 
L 416.863352 170.587465 
L 417.14517 170.233774 
L 417.426989 170.549602 
L 417.990625 170.398302 
L 418.272443 170.511693 
L 418.554261 171.166909 
L 418.83608 169.90524 
L 419.117898 170.502048 
L 419.399716 170.226683 
L 419.681534 170.297527 
L 419.963352 170.694603 
L 420.24517 170.384832 
L 420.526989 170.260816 
L 420.808807 170.573808 
L 421.090625 170.430531 
L 421.372443 170.868914 
L 421.654261 170.484324 
L 422.217898 170.196895 
L 422.499716 170.638435 
L 422.781534 170.465257 
L 423.063352 170.500538 
L 423.34517 170.747357 
L 423.626989 170.377012 
L 423.908807 170.281126 
L 424.190625 170.436639 
L 424.472443 170.258582 
L 424.754261 170.23765 
L 425.03608 170.083642 
L 425.317898 170.344276 
L 425.599716 170.382209 
L 425.881534 170.772592 
L 426.163352 170.478221 
L 426.726989 170.600297 
L 427.008807 170.867239 
L 427.290625 170.437768 
L 427.854261 170.493132 
L 428.13608 170.363617 
L 428.699716 170.739448 
L 428.981534 170.380923 
L 429.54517 170.807733 
L 429.826989 170.386541 
L 430.672443 170.382289 
L 430.954261 170.859489 
L 431.23608 170.555383 
L 431.517898 170.618773 
L 432.081534 170.42805 
L 432.363352 170.670602 
L 432.926989 170.698931 
L 433.208807 170.863229 
L 433.772443 170.386751 
L 434.054261 170.249012 
L 434.33608 170.296039 
L 434.617898 170.823523 
L 434.899716 170.421857 
L 435.181534 170.265593 
L 435.74517 171.063652 
L 436.308807 170.638225 
L 436.590625 171.180404 
L 436.872443 170.643681 
L 437.154261 170.532616 
L 437.717898 170.540122 
L 437.999716 170.233207 
L 438.281534 170.540417 
L 438.563352 170.245143 
L 438.84517 170.352134 
L 439.126989 170.304395 
L 439.690625 170.859982 
L 439.972443 170.240652 
L 440.254261 170.057575 
L 440.53608 170.050911 
L 440.817898 170.762939 
L 441.381534 170.172914 
L 441.94517 170.526685 
L 442.790625 170.398742 
L 443.072443 170.623417 
L 443.63608 169.988015 
L 443.917898 170.239757 
L 444.481534 170.395402 
L 444.763352 170.336346 
L 445.04517 169.81964 
L 445.326989 170.311265 
L 445.890625 169.783199 
L 446.172443 170.624094 
L 446.73608 170.35223 
L 447.017898 170.435739 
L 447.299716 170.26328 
L 447.581534 170.65577 
L 447.863352 170.671847 
L 448.14517 170.167598 
L 448.426989 170.374515 
L 448.708807 170.228043 
L 448.990625 170.352585 
L 449.554261 170.381284 
L 449.83608 170.718997 
L 450.399716 170.719208 
L 450.681534 170.905696 
L 450.963352 170.597329 
L 451.24517 170.551678 
L 451.526989 170.308314 
L 451.808807 170.611617 
L 452.090625 170.4794 
L 452.372443 169.871969 
L 452.654261 170.722698 
L 452.93608 170.682401 
L 453.217898 170.094838 
L 453.499716 170.241462 
L 453.781534 170.528314 
L 454.063352 170.133133 
L 454.34517 170.365091 
L 454.626989 170.09935 
L 455.190625 170.587396 
L 455.472443 170.737262 
L 455.754261 170.425347 
L 456.03608 170.553876 
L 456.317898 170.454318 
L 456.599716 170.172806 
L 456.881534 170.173519 
L 457.163352 170.34265 
L 457.726989 170.292417 
L 458.008807 170.152405 
L 458.290625 170.394686 
L 458.854261 170.387164 
L 459.13608 169.997105 
L 459.417898 170.396244 
L 459.699716 170.131163 
L 459.981534 170.412408 
L 461.108807 170.273136 
L 461.390625 170.649423 
L 461.672443 170.607917 
L 461.954261 170.261428 
L 462.799716 170.393654 
L 463.081534 170.169015 
L 463.363352 170.152554 
L 463.926989 170.530669 
L 464.208807 170.445928 
L 464.490625 170.506006 
L 464.772443 170.295568 
L 465.054261 170.64945 
L 465.33608 170.609979 
L 465.617898 170.363366 
L 466.463352 170.544431 
L 466.74517 170.510515 
L 467.026989 170.588862 
L 467.590625 170.539724 
L 467.872443 170.748594 
L 468.154261 170.722735 
L 468.43608 170.445318 
L 468.999716 170.952351 
L 469.281534 170.682579 
L 469.84517 170.665574 
L 470.126989 170.733615 
L 470.408807 170.295217 
L 470.690625 170.676239 
L 472.099716 170.393075 
L 472.94517 169.780493 
L 473.226989 170.378136 
L 473.508807 170.655222 
L 474.072443 170.164862 
L 474.917898 170.489996 
L 475.199716 170.042483 
L 475.481534 170.439047 
L 476.04517 170.562297 
L 476.326989 170.063383 
L 476.890625 170.411481 
L 477.454261 169.957629 
L 478.017898 170.369044 
L 478.299716 170.135743 
L 478.581534 170.603576 
L 478.863352 170.28128 
L 479.14517 170.623768 
L 479.426989 170.606179 
L 479.708807 170.256719 
L 479.990625 170.633676 
L 480.554261 170.045871 
L 480.83608 170.374341 
L 481.117898 170.483257 
L 481.399716 170.208235 
L 481.681534 170.320007 
L 481.963352 170.663655 
L 482.24517 170.506491 
L 482.526989 170.665546 
L 482.808807 170.384405 
L 483.372443 170.582592 
L 483.654261 170.749544 
L 484.217898 170.723543 
L 484.499716 170.890519 
L 484.781534 170.271498 
L 485.063352 170.698199 
L 485.34517 170.557686 
L 485.626989 170.613648 
L 486.190625 170.997659 
L 486.472443 170.573588 
L 486.754261 170.467432 
L 487.03608 170.898174 
L 487.599716 170.193471 
L 487.881534 170.310352 
L 488.163352 170.190545 
L 488.44517 170.644672 
L 488.726989 170.263241 
L 489.008807 170.775145 
L 489.290625 170.525173 
L 489.572443 170.517206 
L 489.854261 170.806731 
L 490.13608 170.759528 
L 490.699716 170.374285 
L 490.981534 170.633155 
L 491.263352 170.589507 
L 491.54517 170.102548 
L 491.826989 170.568043 
L 492.108807 170.330495 
L 492.390625 170.345015 
L 492.672443 170.496058 
L 492.954261 170.459066 
L 493.23608 170.151635 
L 493.517898 170.271258 
L 494.081534 170.705217 
L 494.363352 170.778941 
L 494.926989 170.493705 
L 495.208807 170.878474 
L 495.490625 170.521978 
L 495.772443 170.462177 
L 496.054261 170.670536 
L 496.33608 170.265916 
L 496.617898 170.462756 
L 496.899716 170.367111 
L 497.181534 170.611585 
L 497.463352 170.380179 
L 497.74517 170.30174 
L 498.026989 170.685449 
L 498.308807 170.554379 
L 498.590625 170.66172 
L 499.154261 170.340657 
L 499.43608 170.709333 
L 499.717898 170.393501 
L 499.999716 170.359585 
L 500.281534 170.668595 
L 500.84517 170.298065 
L 501.408807 170.446664 
L 501.690625 170.446043 
L 502.254261 170.765481 
L 502.53608 170.354547 
L 502.817898 170.449538 
L 503.099716 170.240941 
L 503.381534 170.475473 
L 503.663352 170.515563 
L 503.94517 170.966228 
L 504.790625 170.170425 
L 505.072443 170.403402 
L 505.354261 170.131905 
L 505.63608 170.140738 
L 505.917898 170.022196 
L 506.199716 169.53246 
L 506.481534 170.459689 
L 506.763352 170.227974 
L 507.04517 170.496672 
L 507.326989 170.107953 
L 507.608807 170.532413 
L 507.890625 170.075847 
L 508.172443 170.058779 
L 508.454261 170.34702 
L 509.299716 170.192783 
L 509.863352 170.034461 
L 510.14517 170.156547 
L 510.426989 170.029504 
L 510.708807 170.121334 
L 511.272443 169.610563 
L 511.554261 170.009812 
L 511.83608 169.77725 
L 512.117898 170.307059 
L 512.399716 170.053747 
L 512.963352 170.633885 
L 513.24517 170.196629 
L 513.526989 170.077452 
L 513.808807 170.486372 
L 514.372443 170.532719 
L 514.654261 170.84661 
L 514.93608 170.196999 
L 515.499716 170.023756 
L 515.781534 169.955509 
L 516.063352 170.190601 
L 516.626989 169.965269 
L 516.908807 170.262678 
L 517.190625 169.921515 
L 517.754261 170.211834 
L 518.03608 169.900218 
L 518.317898 170.096706 
L 518.599716 170.032152 
L 518.881534 170.119196 
L 519.163352 170.341824 
L 519.726989 170.052103 
L 520.008807 170.268636 
L 520.290625 170.044453 
L 520.854261 170.272614 
L 521.13608 170.468715 
L 521.417898 170.169113 
L 521.699716 170.552467 
L 521.981534 170.424892 
L 522.263352 170.593741 
L 522.54517 170.250827 
L 522.826989 170.382989 
L 523.672443 169.989981 
L 523.954261 170.134072 
L 524.23608 169.928699 
L 524.517898 170.015377 
L 524.799716 169.85215 
L 525.081534 169.859582 
L 525.363352 170.123828 
L 525.64517 170.090284 
L 525.926989 169.930781 
L 526.772443 169.866299 
L 527.054261 170.157969 
L 527.33608 170.222445 
L 528.181534 169.474091 
L 528.463352 169.694514 
L 528.74517 169.713429 
L 529.026989 169.582471 
L 529.308807 169.820095 
L 529.590625 169.53683 
L 529.872443 169.948859 
L 530.154261 169.830341 
L 530.43608 169.529625 
L 530.999716 170.140691 
L 531.281534 170.009481 
L 531.563352 169.668231 
L 531.84517 169.691062 
L 532.126989 169.965759 
L 532.408807 169.612601 
L 532.972443 169.633156 
L 533.254261 169.750409 
L 533.53608 169.543999 
L 533.817898 169.566594 
L 534.381534 170.035635 
L 535.226989 169.63598 
L 535.508807 169.653893 
L 535.790625 170.080931 
L 536.072443 169.603993 
L 536.63608 169.59928 
L 537.481534 170.293698 
L 537.763352 169.920582 
L 538.04517 170.159729 
L 538.608807 169.911524 
L 539.454261 169.689181 
L 539.73608 169.806678 
L 540.017898 169.393463 
L 540.299716 169.860769 
L 540.581534 170.00918 
L 540.863352 169.783334 
L 541.14517 170.131996 
L 541.708807 169.808339 
L 541.990625 169.87599 
L 542.272443 169.695584 
L 542.554261 170.006764 
L 542.83608 169.741268 
L 543.117898 170.293733 
L 543.681534 170.026803 
L 543.963352 169.761863 
L 544.24517 170.099061 
L 544.526989 170.024618 
L 544.808807 169.564569 
L 545.372443 169.786134 
L 545.654261 169.604561 
L 545.93608 169.590208 
L 546.217898 169.808041 
L 546.499716 169.718163 
L 547.063352 169.903166 
L 547.34517 169.707099 
L 547.626989 169.744699 
L 547.908807 169.979637 
L 548.190625 169.767014 
L 548.754261 169.931966 
L 549.03608 169.666788 
L 549.317898 169.964955 
L 549.599716 169.81918 
L 550.163352 170.549003 
L 550.44517 170.328914 
L 551.008807 170.318192 
L 551.290625 169.942986 
L 551.572443 170.32906 
L 551.854261 169.808123 
L 552.13608 170.119191 
L 552.417898 169.958243 
L 553.54517 169.955512 
L 553.826989 169.92211 
L 554.108807 170.278075 
L 554.390625 169.869727 
L 554.672443 170.231794 
L 555.23608 170.07997 
L 555.517898 170.502061 
L 555.799716 170.024493 
L 556.081534 170.034527 
L 556.64517 169.881838 
L 557.208807 170.289964 
L 557.772443 169.824857 
L 558.899716 170.063064 
L 559.181534 170.01578 
L 559.463352 170.347274 
L 559.74517 170.02583 
L 560.308807 170.020613 
L 560.590625 169.629155 
L 560.872443 169.802336 
L 561.154261 170.106548 
L 561.43608 170.154501 
L 561.717898 169.538971 
L 561.999716 170.123663 
L 562.281534 170.273832 
L 562.563352 170.108184 
L 562.84517 169.749581 
L 563.126989 170.050908 
L 563.408807 169.905158 
L 563.690625 170.134026 
L 563.972443 169.84054 
L 564.254261 169.872111 
L 564.53608 169.728576 
L 564.817898 169.79365 
L 565.099716 170.160594 
L 565.381534 169.795449 
L 565.94517 169.887889 
L 566.226989 170.286989 
L 566.508807 169.878309 
L 566.790625 170.042555 
L 567.354261 169.980458 
L 567.63608 169.952925 
L 567.917898 169.643501 
L 568.481534 169.51818 
L 569.326989 169.991589 
L 569.890625 170.016245 
L 570.172443 170.563841 
L 570.454261 169.930799 
L 571.017898 169.584291 
L 572.14517 169.835442 
L 572.426989 169.721372 
L 572.708807 170.077312 
L 572.990625 169.850648 
L 573.554261 170.077588 
L 573.83608 169.985014 
L 574.117898 169.619515 
L 574.399716 169.682097 
L 574.681534 169.887071 
L 574.963352 169.651334 
L 575.808807 170.039474 
L 576.090625 169.66983 
L 576.372443 169.642127 
L 576.654261 170.003351 
L 577.499716 169.571914 
L 577.781534 169.649756 
L 578.063352 169.373638 
L 578.34517 170.034328 
L 578.908807 169.587263 
L 579.190625 169.623408 
L 579.754261 169.336575 
L 580.03608 169.502482 
L 580.317898 169.382143 
L 581.163352 169.671971 
L 582.008807 169.391952 
L 582.290625 169.619015 
L 582.572443 169.370474 
L 582.854261 169.503112 
L 583.13608 169.837209 
L 583.417898 169.852677 
L 583.981534 169.504032 
L 584.263352 169.339108 
L 584.54517 169.322873 
L 584.826989 169.550142 
L 585.108807 169.955195 
L 585.390625 169.472076 
L 585.954261 169.649044 
L 586.517898 169.804733 
L 586.799716 169.585823 
L 587.081534 169.683604 
L 587.363352 169.414145 
L 587.64517 169.650066 
L 587.926989 169.657949 
L 588.208807 169.407376 
L 588.490625 169.760541 
L 588.772443 169.505533 
L 589.054261 169.757175 
L 589.33608 169.556896 
L 589.617898 169.706233 
L 589.899716 169.432863 
L 590.463352 169.680705 
L 590.74517 169.605581 
L 591.308807 169.988857 
L 591.872443 169.579337 
L 592.154261 169.714232 
L 592.43608 169.468074 
L 592.717898 169.735166 
L 592.999716 169.629414 
L 593.84517 169.793239 
L 594.126989 170.031997 
L 594.408807 169.871094 
L 594.690625 170.175536 
L 594.972443 169.879228 
L 595.817898 169.87124 
L 596.381534 169.457375 
L 596.663352 169.857702 
L 596.94517 169.931382 
L 597.226989 169.678911 
L 597.508807 169.814089 
L 597.790625 169.538053 
L 598.072443 170.127507 
L 598.354261 169.940083 
L 598.63608 170.405106 
L 598.917898 169.859891 
L 599.199716 169.834492 
L 599.481534 170.002895 
L 600.04517 169.291132 
L 600.326989 169.749021 
L 601.172443 169.991498 
L 601.454261 169.478866 
L 601.73608 169.472286 
L 602.299716 169.849766 
L 602.581534 169.427937 
L 602.863352 169.441407 
L 603.426989 170.32047 
L 603.990625 169.925772 
L 604.272443 169.888124 
L 604.554261 170.141651 
L 604.83608 169.955218 
L 605.117898 170.222009 
L 605.399716 169.919928 
L 605.681534 170.161843 
L 606.24517 169.8891 
L 606.808807 169.758923 
L 607.090625 169.991536 
L 607.372443 169.716806 
L 607.654261 170.106396 
L 607.93608 169.692819 
L 608.499716 169.909472 
L 609.063352 169.567291 
L 609.908807 169.916858 
L 610.190625 170.223443 
L 610.472443 169.827351 
L 610.754261 169.942694 
L 611.03608 169.741943 
L 611.599716 170.06554 
L 611.881534 169.822222 
L 612.163352 170.101651 
L 612.44517 169.924631 
L 612.726989 170.113309 
L 613.008807 169.827555 
L 613.290625 169.72195 
L 613.854261 169.852111 
L 614.13608 169.359656 
L 614.417898 169.684018 
L 615.263352 169.622079 
L 615.54517 169.829165 
L 615.826989 169.471317 
L 616.108807 169.885403 
L 616.390625 169.842659 
L 616.672443 169.449797 
L 616.954261 169.556496 
L 617.23608 169.360999 
L 617.517898 169.557923 
L 617.799716 169.260577 
L 618.363352 169.317588 
L 618.64517 168.446706 
L 618.926989 169.164544 
L 619.490625 169.555198 
L 619.772443 169.257533 
L 620.054261 169.585724 
L 620.33608 169.310791 
L 621.463352 169.341372 
L 621.74517 169.32156 
L 622.308807 168.9827 
L 622.590625 169.241282 
L 622.872443 169.248465 
L 623.154261 169.088827 
L 623.43608 169.178226 
L 623.717898 169.519475 
L 623.999716 169.023652 
L 624.281534 169.203584 
L 624.563352 168.958875 
L 625.126989 169.451471 
L 625.126989 169.451471 
" clip-path="url(#p7c89b4d60f)" style="fill: none; stroke: #ff7f0e; stroke-width: 1.5; stroke-linecap: square"/>
   </g>
   <g id="patch_3">
    <path d="M 92.490625 308.63625 
L 92.490625 31.43625 
" style="fill: none; stroke: #000000; stroke-width: 0.8; stroke-linejoin: miter; stroke-linecap: square"/>
   </g>
   <g id="patch_4">
    <path d="M 650.490625 308.63625 
L 650.490625 31.43625 
" style="fill: none; stroke: #000000; stroke-width: 0.8; stroke-linejoin: miter; stroke-linecap: square"/>
   </g>
   <g id="patch_5">
    <path d="M 92.490625 308.63625 
L 650.490625 308.63625 
" style="fill: none; stroke: #000000; stroke-width: 0.8; stroke-linejoin: miter; stroke-linecap: square"/>
   </g>
   <g id="patch_6">
    <path d="M 92.490625 31.43625 
L 650.490625 31.43625 
" style="fill: none; stroke: #000000; stroke-width: 0.8; stroke-linejoin: miter; stroke-linecap: square"/>
   </g>
   <g id="text_17">
    <!-- Generator and Discriminator Loss During Training -->
    <g transform="translate(74.258125 25.43625) scale(0.24 -0.24)">
     <defs>
      <path id="DejaVuSans-47" d="M 3809 666 
L 3809 1919 
L 2778 1919 
L 2778 2438 
L 4434 2438 
L 4434 434 
Q 4069 175 3628 42 
Q 3188 -91 2688 -91 
Q 1594 -91 976 548 
Q 359 1188 359 2328 
Q 359 3472 976 4111 
Q 1594 4750 2688 4750 
Q 3144 4750 3555 4637 
Q 3966 4525 4313 4306 
L 4313 3634 
Q 3963 3931 3569 4081 
Q 3175 4231 2741 4231 
Q 1884 4231 1454 3753 
Q 1025 3275 1025 2328 
Q 1025 1384 1454 906 
Q 1884 428 2741 428 
Q 3075 428 3337 486 
Q 3600 544 3809 666 
z
" transform="scale(0.015625)"/>
      <path id="DejaVuSans-20" transform="scale(0.015625)"/>
      <path id="DejaVuSans-64" d="M 2906 2969 
L 2906 4863 
L 3481 4863 
L 3481 0 
L 2906 0 
L 2906 525 
Q 2725 213 2448 61 
Q 2172 -91 1784 -91 
Q 1150 -91 751 415 
Q 353 922 353 1747 
Q 353 2572 751 3078 
Q 1150 3584 1784 3584 
Q 2172 3584 2448 3432 
Q 2725 3281 2906 2969 
z
M 947 1747 
Q 947 1113 1208 752 
Q 1469 391 1925 391 
Q 2381 391 2643 752 
Q 2906 1113 2906 1747 
Q 2906 2381 2643 2742 
Q 2381 3103 1925 3103 
Q 1469 3103 1208 2742 
Q 947 2381 947 1747 
z
" transform="scale(0.015625)"/>
      <path id="DejaVuSans-44" d="M 1259 4147 
L 1259 519 
L 2022 519 
Q 2988 519 3436 956 
Q 3884 1394 3884 2338 
Q 3884 3275 3436 3711 
Q 2988 4147 2022 4147 
L 1259 4147 
z
M 628 4666 
L 1925 4666 
Q 3281 4666 3915 4102 
Q 4550 3538 4550 2338 
Q 4550 1131 3912 565 
Q 3275 0 1925 0 
L 628 0 
L 628 4666 
z
" transform="scale(0.015625)"/>
      <path id="DejaVuSans-63" d="M 3122 3366 
L 3122 2828 
Q 2878 2963 2633 3030 
Q 2388 3097 2138 3097 
Q 1578 3097 1268 2742 
Q 959 2388 959 1747 
Q 959 1106 1268 751 
Q 1578 397 2138 397 
Q 2388 397 2633 464 
Q 2878 531 3122 666 
L 3122 134 
Q 2881 22 2623 -34 
Q 2366 -91 2075 -91 
Q 1284 -91 818 406 
Q 353 903 353 1747 
Q 353 2603 823 3093 
Q 1294 3584 2113 3584 
Q 2378 3584 2631 3529 
Q 2884 3475 3122 3366 
z
" transform="scale(0.015625)"/>
      <path id="DejaVuSans-6d" d="M 3328 2828 
Q 3544 3216 3844 3400 
Q 4144 3584 4550 3584 
Q 5097 3584 5394 3201 
Q 5691 2819 5691 2113 
L 5691 0 
L 5113 0 
L 5113 2094 
Q 5113 2597 4934 2840 
Q 4756 3084 4391 3084 
Q 3944 3084 3684 2787 
Q 3425 2491 3425 1978 
L 3425 0 
L 2847 0 
L 2847 2094 
Q 2847 2600 2669 2842 
Q 2491 3084 2119 3084 
Q 1678 3084 1418 2786 
Q 1159 2488 1159 1978 
L 1159 0 
L 581 0 
L 581 3500 
L 1159 3500 
L 1159 2956 
Q 1356 3278 1631 3431 
Q 1906 3584 2284 3584 
Q 2666 3584 2933 3390 
Q 3200 3197 3328 2828 
z
" transform="scale(0.015625)"/>
      <path id="DejaVuSans-75" d="M 544 1381 
L 544 3500 
L 1119 3500 
L 1119 1403 
Q 1119 906 1312 657 
Q 1506 409 1894 409 
Q 2359 409 2629 706 
Q 2900 1003 2900 1516 
L 2900 3500 
L 3475 3500 
L 3475 0 
L 2900 0 
L 2900 538 
Q 2691 219 2414 64 
Q 2138 -91 1772 -91 
Q 1169 -91 856 284 
Q 544 659 544 1381 
z
M 1991 3584 
L 1991 3584 
z
" transform="scale(0.015625)"/>
      <path id="DejaVuSans-67" d="M 2906 1791 
Q 2906 2416 2648 2759 
Q 2391 3103 1925 3103 
Q 1463 3103 1205 2759 
Q 947 2416 947 1791 
Q 947 1169 1205 825 
Q 1463 481 1925 481 
Q 2391 481 2648 825 
Q 2906 1169 2906 1791 
z
M 3481 434 
Q 3481 -459 3084 -895 
Q 2688 -1331 1869 -1331 
Q 1566 -1331 1297 -1286 
Q 1028 -1241 775 -1147 
L 775 -588 
Q 1028 -725 1275 -790 
Q 1522 -856 1778 -856 
Q 2344 -856 2625 -561 
Q 2906 -266 2906 331 
L 2906 616 
Q 2728 306 2450 153 
Q 2172 0 1784 0 
Q 1141 0 747 490 
Q 353 981 353 1791 
Q 353 2603 747 3093 
Q 1141 3584 1784 3584 
Q 2172 3584 2450 3431 
Q 2728 3278 2906 2969 
L 2906 3500 
L 3481 3500 
L 3481 434 
z
" transform="scale(0.015625)"/>
      <path id="DejaVuSans-54" d="M -19 4666 
L 3928 4666 
L 3928 4134 
L 2272 4134 
L 2272 0 
L 1638 0 
L 1638 4134 
L -19 4134 
L -19 4666 
z
" transform="scale(0.015625)"/>
     </defs>
     <use xlink:href="#DejaVuSans-47"/>
     <use xlink:href="#DejaVuSans-65" x="77.490234"/>
     <use xlink:href="#DejaVuSans-6e" x="139.013672"/>
     <use xlink:href="#DejaVuSans-65" x="202.392578"/>
     <use xlink:href="#DejaVuSans-72" x="263.916016"/>
     <use xlink:href="#DejaVuSans-61" x="305.029297"/>
     <use xlink:href="#DejaVuSans-74" x="366.308594"/>
     <use xlink:href="#DejaVuSans-6f" x="405.517578"/>
     <use xlink:href="#DejaVuSans-72" x="466.699219"/>
     <use xlink:href="#DejaVuSans-20" x="507.8125"/>
     <use xlink:href="#DejaVuSans-61" x="539.599609"/>
     <use xlink:href="#DejaVuSans-6e" x="600.878906"/>
     <use xlink:href="#DejaVuSans-64" x="664.257812"/>
     <use xlink:href="#DejaVuSans-20" x="727.734375"/>
     <use xlink:href="#DejaVuSans-44" x="759.521484"/>
     <use xlink:href="#DejaVuSans-69" x="836.523438"/>
     <use xlink:href="#DejaVuSans-73" x="864.306641"/>
     <use xlink:href="#DejaVuSans-63" x="916.40625"/>
     <use xlink:href="#DejaVuSans-72" x="971.386719"/>
     <use xlink:href="#DejaVuSans-69" x="1012.5"/>
     <use xlink:href="#DejaVuSans-6d" x="1040.283203"/>
     <use xlink:href="#DejaVuSans-69" x="1137.695312"/>
     <use xlink:href="#DejaVuSans-6e" x="1165.478516"/>
     <use xlink:href="#DejaVuSans-61" x="1228.857422"/>
     <use xlink:href="#DejaVuSans-74" x="1290.136719"/>
     <use xlink:href="#DejaVuSans-6f" x="1329.345703"/>
     <use xlink:href="#DejaVuSans-72" x="1390.527344"/>
     <use xlink:href="#DejaVuSans-20" x="1431.640625"/>
     <use xlink:href="#DejaVuSans-4c" x="1463.427734"/>
     <use xlink:href="#DejaVuSans-6f" x="1517.390625"/>
     <use xlink:href="#DejaVuSans-73" x="1578.572266"/>
     <use xlink:href="#DejaVuSans-73" x="1630.671875"/>
     <use xlink:href="#DejaVuSans-20" x="1682.771484"/>
     <use xlink:href="#DejaVuSans-44" x="1714.558594"/>
     <use xlink:href="#DejaVuSans-75" x="1791.560547"/>
     <use xlink:href="#DejaVuSans-72" x="1854.939453"/>
     <use xlink:href="#DejaVuSans-69" x="1896.052734"/>
     <use xlink:href="#DejaVuSans-6e" x="1923.835938"/>
     <use xlink:href="#DejaVuSans-67" x="1987.214844"/>
     <use xlink:href="#DejaVuSans-20" x="2050.691406"/>
     <use xlink:href="#DejaVuSans-54" x="2082.478516"/>
     <use xlink:href="#DejaVuSans-72" x="2128.8125"/>
     <use xlink:href="#DejaVuSans-61" x="2169.925781"/>
     <use xlink:href="#DejaVuSans-69" x="2231.205078"/>
     <use xlink:href="#DejaVuSans-6e" x="2258.988281"/>
     <use xlink:href="#DejaVuSans-69" x="2322.367188"/>
     <use xlink:href="#DejaVuSans-6e" x="2350.150391"/>
     <use xlink:href="#DejaVuSans-67" x="2413.529297"/>
    </g>
   </g>
   <g id="legend_1">
    <g id="patch_7">
     <path d="M 556.99375 106.14875 
L 636.490625 106.14875 
Q 640.490625 106.14875 640.490625 102.14875 
L 640.490625 45.43625 
Q 640.490625 41.43625 636.490625 41.43625 
L 556.99375 41.43625 
Q 552.99375 41.43625 552.99375 45.43625 
L 552.99375 102.14875 
Q 552.99375 106.14875 556.99375 106.14875 
z
" style="fill: #ffffff; opacity: 0.8; stroke: #cccccc; stroke-linejoin: miter"/>
    </g>
    <g id="line2d_17">
     <path d="M 560.99375 57.633125 
L 580.99375 57.633125 
L 600.99375 57.633125 
" style="fill: none; stroke: #1f77b4; stroke-width: 1.5; stroke-linecap: square"/>
    </g>
    <g id="text_18">
     <!-- G -->
     <g transform="translate(616.99375 64.633125) scale(0.2 -0.2)">
      <use xlink:href="#DejaVuSans-47"/>
     </g>
    </g>
    <g id="line2d_18">
     <path d="M 560.99375 86.989375 
L 580.99375 86.989375 
L 600.99375 86.989375 
" style="fill: none; stroke: #ff7f0e; stroke-width: 1.5; stroke-linecap: square"/>
    </g>
    <g id="text_19">
     <!-- D -->
     <g transform="translate(616.99375 93.989375) scale(0.2 -0.2)">
      <use xlink:href="#DejaVuSans-44"/>
     </g>
    </g>
   </g>
  </g>
 </g>
 <defs>
  <clipPath id="p7c89b4d60f">
   <rect x="92.490625" y="31.43625" width="558" height="277.2"/>
  </clipPath>
 </defs>
</svg>
