<?xml version="1.0" encoding="utf-8" standalone="no"?>
<!DOCTYPE svg PUBLIC "-//W3C//DTD SVG 1.1//EN"
  "http://www.w3.org/Graphics/SVG/1.1/DTD/svg11.dtd">
<svg xmlns:xlink="http://www.w3.org/1999/xlink" width="675.923125pt" height="365.54875pt" viewBox="0 0 675.923125 365.54875" xmlns="http://www.w3.org/2000/svg" version="1.1">
 <metadata>
  <rdf:RDF xmlns:dc="http://purl.org/dc/elements/1.1/" xmlns:cc="http://creativecommons.org/ns#" xmlns:rdf="http://www.w3.org/1999/02/22-rdf-syntax-ns#">
   <cc:Work>
    <dc:type rdf:resource="http://purl.org/dc/dcmitype/StillImage"/>
    <dc:date>2024-02-01T18:10:37.611654</dc:date>
    <dc:format>image/svg+xml</dc:format>
    <dc:creator>
     <cc:Agent>
      <dc:title>Matplotlib v3.7.2, https://matplotlib.org/</dc:title>
     </cc:Agent>
    </dc:creator>
   </cc:Work>
  </rdf:RDF>
 </metadata>
 <defs>
  <style type="text/css">*{stroke-linejoin: round; stroke-linecap: butt}</style>
 </defs>
 <g id="figure_1">
  <g id="patch_1">
   <path d="M 0 365.54875 
L 675.923125 365.54875 
L 675.923125 -0 
L 0 -0 
z
" style="fill: #ffffff"/>
  </g>
  <g id="axes_1">
   <g id="patch_2">
    <path d="M 92.490625 308.63625 
L 650.490625 308.63625 
L 650.490625 31.43625 
L 92.490625 31.43625 
z
" style="fill: #ffffff"/>
   </g>
   <g id="matplotlib.axis_1">
    <g id="xtick_1">
     <g id="line2d_1">
      <defs>
       <path id="m65aeb18fcb" d="M 0 0 
L 0 3.5 
" style="stroke: #000000; stroke-width: 0.8"/>
      </defs>
      <g>
       <use xlink:href="#m65aeb18fcb" x="117.854261" y="308.63625" style="stroke: #000000; stroke-width: 0.8"/>
      </g>
     </g>
     <g id="text_1">
      <!-- 0 -->
      <g transform="translate(111.491761 330.833125) scale(0.2 -0.2)">
       <defs>
        <path id="DejaVuSans-30" d="M 2034 4250 
Q 1547 4250 1301 3770 
Q 1056 3291 1056 2328 
Q 1056 1369 1301 889 
Q 1547 409 2034 409 
Q 2525 409 2770 889 
Q 3016 1369 3016 2328 
Q 3016 3291 2770 3770 
Q 2525 4250 2034 4250 
z
M 2034 4750 
Q 2819 4750 3233 4129 
Q 3647 3509 3647 2328 
Q 3647 1150 3233 529 
Q 2819 -91 2034 -91 
Q 1250 -91 836 529 
Q 422 1150 422 2328 
Q 422 3509 836 4129 
Q 1250 4750 2034 4750 
z
" transform="scale(0.015625)"/>
       </defs>
       <use xlink:href="#DejaVuSans-30"/>
      </g>
     </g>
    </g>
    <g id="xtick_2">
     <g id="line2d_2">
      <g>
       <use xlink:href="#m65aeb18fcb" x="181.263352" y="308.63625" style="stroke: #000000; stroke-width: 0.8"/>
      </g>
     </g>
     <g id="text_2">
      <!-- 200 -->
      <g transform="translate(162.175852 330.833125) scale(0.2 -0.2)">
       <defs>
        <path id="DejaVuSans-32" d="M 1228 531 
L 3431 531 
L 3431 0 
L 469 0 
L 469 531 
Q 828 903 1448 1529 
Q 2069 2156 2228 2338 
Q 2531 2678 2651 2914 
Q 2772 3150 2772 3378 
Q 2772 3750 2511 3984 
Q 2250 4219 1831 4219 
Q 1534 4219 1204 4116 
Q 875 4013 500 3803 
L 500 4441 
Q 881 4594 1212 4672 
Q 1544 4750 1819 4750 
Q 2544 4750 2975 4387 
Q 3406 4025 3406 3419 
Q 3406 3131 3298 2873 
Q 3191 2616 2906 2266 
Q 2828 2175 2409 1742 
Q 1991 1309 1228 531 
z
" transform="scale(0.015625)"/>
       </defs>
       <use xlink:href="#DejaVuSans-32"/>
       <use xlink:href="#DejaVuSans-30" x="63.623047"/>
       <use xlink:href="#DejaVuSans-30" x="127.246094"/>
      </g>
     </g>
    </g>
    <g id="xtick_3">
     <g id="line2d_3">
      <g>
       <use xlink:href="#m65aeb18fcb" x="244.672443" y="308.63625" style="stroke: #000000; stroke-width: 0.8"/>
      </g>
     </g>
     <g id="text_3">
      <!-- 400 -->
      <g transform="translate(225.584943 330.833125) scale(0.2 -0.2)">
       <defs>
        <path id="DejaVuSans-34" d="M 2419 4116 
L 825 1625 
L 2419 1625 
L 2419 4116 
z
M 2253 4666 
L 3047 4666 
L 3047 1625 
L 3713 1625 
L 3713 1100 
L 3047 1100 
L 3047 0 
L 2419 0 
L 2419 1100 
L 313 1100 
L 313 1709 
L 2253 4666 
z
" transform="scale(0.015625)"/>
       </defs>
       <use xlink:href="#DejaVuSans-34"/>
       <use xlink:href="#DejaVuSans-30" x="63.623047"/>
       <use xlink:href="#DejaVuSans-30" x="127.246094"/>
      </g>
     </g>
    </g>
    <g id="xtick_4">
     <g id="line2d_4">
      <g>
       <use xlink:href="#m65aeb18fcb" x="308.081534" y="308.63625" style="stroke: #000000; stroke-width: 0.8"/>
      </g>
     </g>
     <g id="text_4">
      <!-- 600 -->
      <g transform="translate(288.994034 330.833125) scale(0.2 -0.2)">
       <defs>
        <path id="DejaVuSans-36" d="M 2113 2584 
Q 1688 2584 1439 2293 
Q 1191 2003 1191 1497 
Q 1191 994 1439 701 
Q 1688 409 2113 409 
Q 2538 409 2786 701 
Q 3034 994 3034 1497 
Q 3034 2003 2786 2293 
Q 2538 2584 2113 2584 
z
M 3366 4563 
L 3366 3988 
Q 3128 4100 2886 4159 
Q 2644 4219 2406 4219 
Q 1781 4219 1451 3797 
Q 1122 3375 1075 2522 
Q 1259 2794 1537 2939 
Q 1816 3084 2150 3084 
Q 2853 3084 3261 2657 
Q 3669 2231 3669 1497 
Q 3669 778 3244 343 
Q 2819 -91 2113 -91 
Q 1303 -91 875 529 
Q 447 1150 447 2328 
Q 447 3434 972 4092 
Q 1497 4750 2381 4750 
Q 2619 4750 2861 4703 
Q 3103 4656 3366 4563 
z
" transform="scale(0.015625)"/>
       </defs>
       <use xlink:href="#DejaVuSans-36"/>
       <use xlink:href="#DejaVuSans-30" x="63.623047"/>
       <use xlink:href="#DejaVuSans-30" x="127.246094"/>
      </g>
     </g>
    </g>
    <g id="xtick_5">
     <g id="line2d_5">
      <g>
       <use xlink:href="#m65aeb18fcb" x="371.490625" y="308.63625" style="stroke: #000000; stroke-width: 0.8"/>
      </g>
     </g>
     <g id="text_5">
      <!-- 800 -->
      <g transform="translate(352.403125 330.833125) scale(0.2 -0.2)">
       <defs>
        <path id="DejaVuSans-38" d="M 2034 2216 
Q 1584 2216 1326 1975 
Q 1069 1734 1069 1313 
Q 1069 891 1326 650 
Q 1584 409 2034 409 
Q 2484 409 2743 651 
Q 3003 894 3003 1313 
Q 3003 1734 2745 1975 
Q 2488 2216 2034 2216 
z
M 1403 2484 
Q 997 2584 770 2862 
Q 544 3141 544 3541 
Q 544 4100 942 4425 
Q 1341 4750 2034 4750 
Q 2731 4750 3128 4425 
Q 3525 4100 3525 3541 
Q 3525 3141 3298 2862 
Q 3072 2584 2669 2484 
Q 3125 2378 3379 2068 
Q 3634 1759 3634 1313 
Q 3634 634 3220 271 
Q 2806 -91 2034 -91 
Q 1263 -91 848 271 
Q 434 634 434 1313 
Q 434 1759 690 2068 
Q 947 2378 1403 2484 
z
M 1172 3481 
Q 1172 3119 1398 2916 
Q 1625 2713 2034 2713 
Q 2441 2713 2670 2916 
Q 2900 3119 2900 3481 
Q 2900 3844 2670 4047 
Q 2441 4250 2034 4250 
Q 1625 4250 1398 4047 
Q 1172 3844 1172 3481 
z
" transform="scale(0.015625)"/>
       </defs>
       <use xlink:href="#DejaVuSans-38"/>
       <use xlink:href="#DejaVuSans-30" x="63.623047"/>
       <use xlink:href="#DejaVuSans-30" x="127.246094"/>
      </g>
     </g>
    </g>
    <g id="xtick_6">
     <g id="line2d_6">
      <g>
       <use xlink:href="#m65aeb18fcb" x="434.899716" y="308.63625" style="stroke: #000000; stroke-width: 0.8"/>
      </g>
     </g>
     <g id="text_6">
      <!-- 1000 -->
      <g transform="translate(409.449716 330.833125) scale(0.2 -0.2)">
       <defs>
        <path id="DejaVuSans-31" d="M 794 531 
L 1825 531 
L 1825 4091 
L 703 3866 
L 703 4441 
L 1819 4666 
L 2450 4666 
L 2450 531 
L 3481 531 
L 3481 0 
L 794 0 
L 794 531 
z
" transform="scale(0.015625)"/>
       </defs>
       <use xlink:href="#DejaVuSans-31"/>
       <use xlink:href="#DejaVuSans-30" x="63.623047"/>
       <use xlink:href="#DejaVuSans-30" x="127.246094"/>
       <use xlink:href="#DejaVuSans-30" x="190.869141"/>
      </g>
     </g>
    </g>
    <g id="xtick_7">
     <g id="line2d_7">
      <g>
       <use xlink:href="#m65aeb18fcb" x="498.308807" y="308.63625" style="stroke: #000000; stroke-width: 0.8"/>
      </g>
     </g>
     <g id="text_7">
      <!-- 1200 -->
      <g transform="translate(472.858807 330.833125) scale(0.2 -0.2)">
       <use xlink:href="#DejaVuSans-31"/>
       <use xlink:href="#DejaVuSans-32" x="63.623047"/>
       <use xlink:href="#DejaVuSans-30" x="127.246094"/>
       <use xlink:href="#DejaVuSans-30" x="190.869141"/>
      </g>
     </g>
    </g>
    <g id="xtick_8">
     <g id="line2d_8">
      <g>
       <use xlink:href="#m65aeb18fcb" x="561.717898" y="308.63625" style="stroke: #000000; stroke-width: 0.8"/>
      </g>
     </g>
     <g id="text_8">
      <!-- 1400 -->
      <g transform="translate(536.267898 330.833125) scale(0.2 -0.2)">
       <use xlink:href="#DejaVuSans-31"/>
       <use xlink:href="#DejaVuSans-34" x="63.623047"/>
       <use xlink:href="#DejaVuSans-30" x="127.246094"/>
       <use xlink:href="#DejaVuSans-30" x="190.869141"/>
      </g>
     </g>
    </g>
    <g id="xtick_9">
     <g id="line2d_9">
      <g>
       <use xlink:href="#m65aeb18fcb" x="625.126989" y="308.63625" style="stroke: #000000; stroke-width: 0.8"/>
      </g>
     </g>
     <g id="text_9">
      <!-- 1600 -->
      <g transform="translate(599.676989 330.833125) scale(0.2 -0.2)">
       <use xlink:href="#DejaVuSans-31"/>
       <use xlink:href="#DejaVuSans-36" x="63.623047"/>
       <use xlink:href="#DejaVuSans-30" x="127.246094"/>
       <use xlink:href="#DejaVuSans-30" x="190.869141"/>
      </g>
     </g>
    </g>
    <g id="text_10">
     <!-- iterations -->
     <g transform="translate(324.035938 354.189375) scale(0.2 -0.2)">
      <defs>
       <path id="DejaVuSans-69" d="M 603 3500 
L 1178 3500 
L 1178 0 
L 603 0 
L 603 3500 
z
M 603 4863 
L 1178 4863 
L 1178 4134 
L 603 4134 
L 603 4863 
z
" transform="scale(0.015625)"/>
       <path id="DejaVuSans-74" d="M 1172 4494 
L 1172 3500 
L 2356 3500 
L 2356 3053 
L 1172 3053 
L 1172 1153 
Q 1172 725 1289 603 
Q 1406 481 1766 481 
L 2356 481 
L 2356 0 
L 1766 0 
Q 1100 0 847 248 
Q 594 497 594 1153 
L 594 3053 
L 172 3053 
L 172 3500 
L 594 3500 
L 594 4494 
L 1172 4494 
z
" transform="scale(0.015625)"/>
       <path id="DejaVuSans-65" d="M 3597 1894 
L 3597 1613 
L 953 1613 
Q 991 1019 1311 708 
Q 1631 397 2203 397 
Q 2534 397 2845 478 
Q 3156 559 3463 722 
L 3463 178 
Q 3153 47 2828 -22 
Q 2503 -91 2169 -91 
Q 1331 -91 842 396 
Q 353 884 353 1716 
Q 353 2575 817 3079 
Q 1281 3584 2069 3584 
Q 2775 3584 3186 3129 
Q 3597 2675 3597 1894 
z
M 3022 2063 
Q 3016 2534 2758 2815 
Q 2500 3097 2075 3097 
Q 1594 3097 1305 2825 
Q 1016 2553 972 2059 
L 3022 2063 
z
" transform="scale(0.015625)"/>
       <path id="DejaVuSans-72" d="M 2631 2963 
Q 2534 3019 2420 3045 
Q 2306 3072 2169 3072 
Q 1681 3072 1420 2755 
Q 1159 2438 1159 1844 
L 1159 0 
L 581 0 
L 581 3500 
L 1159 3500 
L 1159 2956 
Q 1341 3275 1631 3429 
Q 1922 3584 2338 3584 
Q 2397 3584 2469 3576 
Q 2541 3569 2628 3553 
L 2631 2963 
z
" transform="scale(0.015625)"/>
       <path id="DejaVuSans-61" d="M 2194 1759 
Q 1497 1759 1228 1600 
Q 959 1441 959 1056 
Q 959 750 1161 570 
Q 1363 391 1709 391 
Q 2188 391 2477 730 
Q 2766 1069 2766 1631 
L 2766 1759 
L 2194 1759 
z
M 3341 1997 
L 3341 0 
L 2766 0 
L 2766 531 
Q 2569 213 2275 61 
Q 1981 -91 1556 -91 
Q 1019 -91 701 211 
Q 384 513 384 1019 
Q 384 1609 779 1909 
Q 1175 2209 1959 2209 
L 2766 2209 
L 2766 2266 
Q 2766 2663 2505 2880 
Q 2244 3097 1772 3097 
Q 1472 3097 1187 3025 
Q 903 2953 641 2809 
L 641 3341 
Q 956 3463 1253 3523 
Q 1550 3584 1831 3584 
Q 2591 3584 2966 3190 
Q 3341 2797 3341 1997 
z
" transform="scale(0.015625)"/>
       <path id="DejaVuSans-6f" d="M 1959 3097 
Q 1497 3097 1228 2736 
Q 959 2375 959 1747 
Q 959 1119 1226 758 
Q 1494 397 1959 397 
Q 2419 397 2687 759 
Q 2956 1122 2956 1747 
Q 2956 2369 2687 2733 
Q 2419 3097 1959 3097 
z
M 1959 3584 
Q 2709 3584 3137 3096 
Q 3566 2609 3566 1747 
Q 3566 888 3137 398 
Q 2709 -91 1959 -91 
Q 1206 -91 779 398 
Q 353 888 353 1747 
Q 353 2609 779 3096 
Q 1206 3584 1959 3584 
z
" transform="scale(0.015625)"/>
       <path id="DejaVuSans-6e" d="M 3513 2113 
L 3513 0 
L 2938 0 
L 2938 2094 
Q 2938 2591 2744 2837 
Q 2550 3084 2163 3084 
Q 1697 3084 1428 2787 
Q 1159 2491 1159 1978 
L 1159 0 
L 581 0 
L 581 3500 
L 1159 3500 
L 1159 2956 
Q 1366 3272 1645 3428 
Q 1925 3584 2291 3584 
Q 2894 3584 3203 3211 
Q 3513 2838 3513 2113 
z
" transform="scale(0.015625)"/>
       <path id="DejaVuSans-73" d="M 2834 3397 
L 2834 2853 
Q 2591 2978 2328 3040 
Q 2066 3103 1784 3103 
Q 1356 3103 1142 2972 
Q 928 2841 928 2578 
Q 928 2378 1081 2264 
Q 1234 2150 1697 2047 
L 1894 2003 
Q 2506 1872 2764 1633 
Q 3022 1394 3022 966 
Q 3022 478 2636 193 
Q 2250 -91 1575 -91 
Q 1294 -91 989 -36 
Q 684 19 347 128 
L 347 722 
Q 666 556 975 473 
Q 1284 391 1588 391 
Q 1994 391 2212 530 
Q 2431 669 2431 922 
Q 2431 1156 2273 1281 
Q 2116 1406 1581 1522 
L 1381 1569 
Q 847 1681 609 1914 
Q 372 2147 372 2553 
Q 372 3047 722 3315 
Q 1072 3584 1716 3584 
Q 2034 3584 2315 3537 
Q 2597 3491 2834 3397 
z
" transform="scale(0.015625)"/>
      </defs>
      <use xlink:href="#DejaVuSans-69"/>
      <use xlink:href="#DejaVuSans-74" x="27.783203"/>
      <use xlink:href="#DejaVuSans-65" x="66.992188"/>
      <use xlink:href="#DejaVuSans-72" x="128.515625"/>
      <use xlink:href="#DejaVuSans-61" x="169.628906"/>
      <use xlink:href="#DejaVuSans-74" x="230.908203"/>
      <use xlink:href="#DejaVuSans-69" x="270.117188"/>
      <use xlink:href="#DejaVuSans-6f" x="297.900391"/>
      <use xlink:href="#DejaVuSans-6e" x="359.082031"/>
      <use xlink:href="#DejaVuSans-73" x="422.460938"/>
     </g>
    </g>
   </g>
   <g id="matplotlib.axis_2">
    <g id="ytick_1">
     <g id="line2d_10">
      <defs>
       <path id="mf4a8366c68" d="M 0 0 
L -3.5 0 
" style="stroke: #000000; stroke-width: 0.8"/>
      </defs>
      <g>
       <use xlink:href="#mf4a8366c68" x="92.490625" y="278.050314" style="stroke: #000000; stroke-width: 0.8"/>
      </g>
     </g>
     <g id="text_11">
      <!-- −200 -->
      <g transform="translate(30.55625 285.648751) scale(0.2 -0.2)">
       <defs>
        <path id="DejaVuSans-2212" d="M 678 2272 
L 4684 2272 
L 4684 1741 
L 678 1741 
L 678 2272 
z
" transform="scale(0.015625)"/>
       </defs>
       <use xlink:href="#DejaVuSans-2212"/>
       <use xlink:href="#DejaVuSans-32" x="83.789062"/>
       <use xlink:href="#DejaVuSans-30" x="147.412109"/>
       <use xlink:href="#DejaVuSans-30" x="211.035156"/>
      </g>
     </g>
    </g>
    <g id="ytick_2">
     <g id="line2d_11">
      <g>
       <use xlink:href="#mf4a8366c68" x="92.490625" y="225.895764" style="stroke: #000000; stroke-width: 0.8"/>
      </g>
     </g>
     <g id="text_12">
      <!-- −100 -->
      <g transform="translate(30.55625 233.494202) scale(0.2 -0.2)">
       <use xlink:href="#DejaVuSans-2212"/>
       <use xlink:href="#DejaVuSans-31" x="83.789062"/>
       <use xlink:href="#DejaVuSans-30" x="147.412109"/>
       <use xlink:href="#DejaVuSans-30" x="211.035156"/>
      </g>
     </g>
    </g>
    <g id="ytick_3">
     <g id="line2d_12">
      <g>
       <use xlink:href="#mf4a8366c68" x="92.490625" y="173.741215" style="stroke: #000000; stroke-width: 0.8"/>
      </g>
     </g>
     <g id="text_13">
      <!-- 0 -->
      <g transform="translate(72.765625 181.339652) scale(0.2 -0.2)">
       <use xlink:href="#DejaVuSans-30"/>
      </g>
     </g>
    </g>
    <g id="ytick_4">
     <g id="line2d_13">
      <g>
       <use xlink:href="#mf4a8366c68" x="92.490625" y="121.586665" style="stroke: #000000; stroke-width: 0.8"/>
      </g>
     </g>
     <g id="text_14">
      <!-- 100 -->
      <g transform="translate(47.315625 129.185102) scale(0.2 -0.2)">
       <use xlink:href="#DejaVuSans-31"/>
       <use xlink:href="#DejaVuSans-30" x="63.623047"/>
       <use xlink:href="#DejaVuSans-30" x="127.246094"/>
      </g>
     </g>
    </g>
    <g id="ytick_5">
     <g id="line2d_14">
      <g>
       <use xlink:href="#mf4a8366c68" x="92.490625" y="69.432115" style="stroke: #000000; stroke-width: 0.8"/>
      </g>
     </g>
     <g id="text_15">
      <!-- 200 -->
      <g transform="translate(47.315625 77.030553) scale(0.2 -0.2)">
       <use xlink:href="#DejaVuSans-32"/>
       <use xlink:href="#DejaVuSans-30" x="63.623047"/>
       <use xlink:href="#DejaVuSans-30" x="127.246094"/>
      </g>
     </g>
    </g>
    <g id="text_16">
     <!-- Loss -->
     <g transform="translate(22.396875 191.970625) rotate(-90) scale(0.2 -0.2)">
      <defs>
       <path id="DejaVuSans-4c" d="M 628 4666 
L 1259 4666 
L 1259 531 
L 3531 531 
L 3531 0 
L 628 0 
L 628 4666 
z
" transform="scale(0.015625)"/>
      </defs>
      <use xlink:href="#DejaVuSans-4c"/>
      <use xlink:href="#DejaVuSans-6f" x="53.962891"/>
      <use xlink:href="#DejaVuSans-73" x="115.144531"/>
      <use xlink:href="#DejaVuSans-73" x="167.244141"/>
     </g>
    </g>
   </g>
   <g id="line2d_15">
    <path d="M 117.854261 116.730416 
L 118.171307 62.430435 
L 118.488352 101.446911 
L 118.805398 97.742273 
L 119.122443 71.891481 
L 119.439489 66.005259 
L 119.756534 53.003453 
L 120.07358 50.572912 
L 120.390625 59.282987 
L 120.70767 64.407922 
L 121.024716 63.027834 
L 121.975852 76.15716 
L 122.292898 51.933022 
L 122.609943 73.641653 
L 122.926989 118.042353 
L 123.244034 125.137272 
L 123.878125 60.941522 
L 124.19517 44.03625 
L 124.512216 52.703352 
L 124.829261 66.415864 
L 125.463352 80.271673 
L 125.780398 77.046844 
L 126.097443 85.974109 
L 126.414489 89.320307 
L 126.731534 99.781725 
L 127.04858 103.629806 
L 127.365625 95.490293 
L 127.68267 93.742179 
L 127.999716 96.556052 
L 128.316761 104.56955 
L 128.633807 103.315712 
L 128.950852 106.314088 
L 129.267898 101.622759 
L 129.584943 103.726444 
L 129.901989 97.099143 
L 130.219034 105.59913 
L 130.53608 102.090241 
L 130.853125 108.846517 
L 131.17017 107.115866 
L 131.487216 107.768741 
L 131.804261 94.854922 
L 132.121307 103.509892 
L 132.438352 99.688151 
L 132.755398 99.279356 
L 133.072443 102.538264 
L 133.389489 101.345011 
L 133.706534 103.441635 
L 134.02358 100.626615 
L 134.340625 103.77917 
L 134.65767 108.446027 
L 134.974716 104.135863 
L 135.291761 113.024366 
L 135.608807 113.256683 
L 135.925852 118.953402 
L 136.242898 121.504437 
L 136.559943 125.536059 
L 136.876989 125.084203 
L 137.194034 124.975704 
L 137.51108 129.12069 
L 137.828125 129.965285 
L 138.14517 127.601113 
L 138.462216 122.813187 
L 138.779261 121.044518 
L 139.096307 125.340201 
L 139.413352 125.222212 
L 139.730398 129.200338 
L 140.047443 126.028649 
L 140.364489 128.68786 
L 140.99858 125.98626 
L 141.315625 127.841862 
L 141.63267 125.227578 
L 142.266761 134.240456 
L 142.583807 133.266292 
L 142.900852 131.370037 
L 143.217898 133.221224 
L 143.534943 131.530508 
L 143.851989 127.304061 
L 144.169034 127.021545 
L 144.48608 131.504403 
L 144.803125 129.12013 
L 145.12017 130.155912 
L 145.437216 129.13671 
L 146.071307 135.649824 
L 146.388352 130.074104 
L 146.705398 129.476486 
L 147.022443 129.449765 
L 147.339489 127.07422 
L 147.97358 128.405043 
L 148.290625 132.155688 
L 148.60767 129.996242 
L 148.924716 130.068832 
L 149.241761 128.264842 
L 149.558807 131.050036 
L 149.875852 130.94195 
L 150.192898 128.470743 
L 150.509943 131.531211 
L 150.826989 131.612299 
L 151.144034 132.350694 
L 151.46108 131.23145 
L 151.778125 134.408219 
L 152.09517 133.259949 
L 152.412216 133.451761 
L 152.729261 135.868165 
L 153.046307 136.567827 
L 153.363352 137.964817 
L 153.680398 137.904629 
L 153.997443 140.59013 
L 154.314489 140.248142 
L 154.631534 142.320233 
L 155.265625 143.305748 
L 155.58267 144.681703 
L 155.899716 144.519549 
L 156.216761 145.240951 
L 156.533807 143.606707 
L 156.850852 147.202116 
L 157.167898 147.401776 
L 157.484943 145.312951 
L 157.801989 147.788315 
L 158.119034 144.771762 
L 158.43608 147.864716 
L 158.753125 144.354608 
L 159.07017 149.00043 
L 159.387216 148.864368 
L 159.704261 147.326535 
L 160.021307 147.287939 
L 160.338352 149.193091 
L 160.655398 147.831455 
L 160.972443 148.825769 
L 161.289489 148.096776 
L 161.606534 148.745121 
L 161.92358 151.093129 
L 162.240625 147.222083 
L 162.55767 147.173949 
L 162.874716 149.684394 
L 163.191761 150.670233 
L 163.508807 150.083711 
L 163.825852 151.347509 
L 164.142898 149.72187 
L 164.459943 149.97145 
L 164.776989 152.818688 
L 165.094034 153.166956 
L 165.41108 151.635056 
L 165.728125 152.261085 
L 166.04517 150.388173 
L 166.362216 149.701996 
L 166.679261 148.135366 
L 166.996307 150.229807 
L 167.313352 149.605711 
L 167.947443 151.22725 
L 168.264489 150.754788 
L 168.581534 152.243257 
L 168.89858 151.654234 
L 169.215625 154.11977 
L 169.53267 155.048733 
L 169.849716 153.344866 
L 170.166761 153.231589 
L 170.483807 154.848303 
L 170.800852 153.800574 
L 171.117898 157.048832 
L 171.434943 156.893901 
L 171.751989 155.884159 
L 172.069034 156.207196 
L 172.703125 155.9323 
L 173.337216 160.584037 
L 173.654261 159.109185 
L 173.971307 160.133137 
L 174.288352 157.417522 
L 174.605398 158.294861 
L 174.922443 157.179436 
L 175.239489 156.74332 
L 175.556534 152.371756 
L 175.87358 154.608543 
L 176.190625 154.732663 
L 176.50767 156.74822 
L 176.824716 153.888262 
L 177.141761 153.0428 
L 177.458807 149.447487 
L 177.775852 149.480507 
L 178.092898 149.219328 
L 179.044034 154.868603 
L 179.36108 153.249777 
L 179.678125 154.622314 
L 179.99517 153.342076 
L 180.312216 153.92423 
L 180.629261 155.062312 
L 180.946307 156.883775 
L 181.263352 155.221922 
L 181.580398 156.801697 
L 182.214489 155.609429 
L 182.531534 154.116463 
L 183.165625 156.80764 
L 183.48267 155.756673 
L 183.799716 156.419443 
L 184.116761 154.641703 
L 184.433807 156.161499 
L 184.750852 154.121002 
L 185.067898 156.645991 
L 185.384943 155.529907 
L 185.701989 156.176916 
L 186.019034 155.396429 
L 186.33608 155.88568 
L 186.653125 155.259632 
L 186.97017 153.799706 
L 187.287216 154.311158 
L 187.604261 153.059434 
L 187.921307 154.648248 
L 188.238352 155.120642 
L 188.555398 153.132141 
L 188.872443 153.483931 
L 189.189489 154.04572 
L 189.506534 154.987186 
L 189.82358 154.816669 
L 190.45767 153.202575 
L 190.774716 153.916273 
L 191.091761 152.705682 
L 191.408807 152.166556 
L 191.725852 152.402338 
L 192.042898 152.180249 
L 192.359943 154.11953 
L 192.676989 152.016894 
L 192.994034 153.003526 
L 193.31108 151.826107 
L 193.628125 152.171399 
L 193.94517 153.165678 
L 194.262216 152.958836 
L 194.579261 151.2627 
L 194.896307 152.237006 
L 195.213352 152.790376 
L 195.847443 149.160309 
L 196.481534 150.86653 
L 196.79858 150.354096 
L 197.115625 149.479063 
L 197.43267 152.676587 
L 197.749716 151.047918 
L 198.066761 152.469854 
L 198.383807 152.266123 
L 198.700852 153.462899 
L 199.017898 154.069147 
L 199.334943 154.003291 
L 199.651989 154.910829 
L 200.28608 155.294215 
L 200.603125 154.960983 
L 200.92017 154.061296 
L 201.237216 155.470938 
L 201.554261 153.968602 
L 201.871307 153.381538 
L 202.188352 153.259493 
L 202.505398 154.500778 
L 202.822443 155.292109 
L 203.139489 154.850473 
L 203.456534 155.670758 
L 203.77358 154.673209 
L 204.090625 154.525595 
L 204.40767 155.551714 
L 204.724716 155.152165 
L 205.358807 157.010189 
L 205.675852 156.050296 
L 205.992898 155.985973 
L 206.626989 156.386478 
L 206.944034 157.272418 
L 207.26108 156.749003 
L 207.578125 157.107192 
L 207.89517 157.119295 
L 208.212216 157.761971 
L 208.529261 157.134318 
L 208.846307 156.145483 
L 209.163352 158.606781 
L 209.480398 157.442978 
L 209.797443 157.059694 
L 210.114489 157.835689 
L 210.431534 157.316152 
L 211.065625 157.854228 
L 211.38267 159.260742 
L 211.699716 158.661202 
L 212.016761 158.869777 
L 212.333807 159.238682 
L 212.650852 160.284156 
L 212.967898 159.663591 
L 213.284943 159.433966 
L 213.601989 159.789577 
L 214.23608 159.882359 
L 214.553125 160.25701 
L 214.87017 161.289905 
L 215.187216 158.838544 
L 215.504261 159.924778 
L 216.138352 160.777332 
L 216.455398 162.658706 
L 216.772443 162.11453 
L 217.089489 162.229981 
L 217.406534 160.98345 
L 218.040625 163.379221 
L 218.35767 163.181533 
L 218.674716 163.880014 
L 218.991761 163.180675 
L 219.308807 162.92911 
L 219.942898 162.673332 
L 220.259943 164.01015 
L 220.576989 163.898086 
L 220.894034 163.587924 
L 221.21108 163.629103 
L 221.528125 164.448835 
L 221.84517 164.678214 
L 222.162216 165.504125 
L 222.479261 164.692579 
L 222.796307 166.342899 
L 223.113352 167.152715 
L 223.430398 165.965846 
L 223.747443 167.413876 
L 224.064489 166.665451 
L 224.381534 166.885093 
L 225.015625 165.964408 
L 225.33267 165.434706 
L 225.649716 165.631563 
L 225.966761 166.035931 
L 226.283807 165.705315 
L 226.917898 166.525807 
L 227.234943 166.210813 
L 227.551989 166.169597 
L 227.869034 166.418649 
L 228.18608 165.309747 
L 228.503125 165.436775 
L 228.82017 166.031096 
L 229.137216 165.914072 
L 229.454261 167.508869 
L 229.771307 166.783678 
L 230.088352 166.803441 
L 230.405398 166.419973 
L 230.722443 165.84882 
L 231.039489 166.801295 
L 231.356534 166.075255 
L 231.990625 167.123316 
L 232.30767 167.002987 
L 232.624716 167.874705 
L 232.941761 167.313398 
L 233.258807 168.063886 
L 233.892898 167.5642 
L 234.209943 168.792709 
L 234.526989 168.642832 
L 234.844034 167.815961 
L 235.16108 168.876404 
L 235.79517 169.44384 
L 236.112216 169.245245 
L 236.429261 169.40812 
L 236.746307 169.727721 
L 237.697443 169.380179 
L 238.014489 168.682531 
L 238.331534 168.772326 
L 238.64858 169.343754 
L 238.965625 168.172043 
L 239.28267 168.854283 
L 240.233807 169.872072 
L 240.550852 169.938352 
L 240.867898 169.719371 
L 241.184943 168.183161 
L 241.501989 169.845163 
L 241.819034 169.297504 
L 242.13608 170.613594 
L 243.087216 170.480542 
L 243.404261 170.525653 
L 243.721307 169.977587 
L 244.038352 170.364696 
L 244.355398 169.181846 
L 244.672443 170.062413 
L 244.989489 168.886077 
L 245.306534 169.394782 
L 245.62358 169.662922 
L 245.940625 170.145244 
L 246.25767 169.927706 
L 246.574716 170.004292 
L 246.891761 169.875281 
L 247.208807 168.776072 
L 247.525852 168.991334 
L 247.842898 170.365659 
L 248.159943 171.176641 
L 248.476989 171.202022 
L 248.794034 170.910612 
L 249.428125 170.81527 
L 249.74517 171.004884 
L 250.062216 170.949 
L 250.379261 171.33907 
L 250.696307 170.94787 
L 251.013352 171.197713 
L 251.330398 171.714517 
L 251.647443 171.475357 
L 251.964489 171.483979 
L 252.915625 171.036587 
L 253.23267 171.608698 
L 253.549716 171.845687 
L 253.866761 170.643028 
L 254.183807 170.670747 
L 254.500852 171.285834 
L 254.817898 170.540197 
L 255.134943 171.206933 
L 255.451989 171.295074 
L 255.769034 170.80643 
L 256.08608 170.955732 
L 256.403125 171.29138 
L 256.72017 171.91542 
L 257.037216 170.798087 
L 257.671307 172.396778 
L 257.988352 171.585403 
L 258.305398 171.605385 
L 258.622443 171.166604 
L 258.939489 172.321859 
L 259.256534 172.257516 
L 259.57358 173.085883 
L 260.20767 172.209607 
L 260.524716 172.172332 
L 260.841761 172.281268 
L 261.158807 172.82213 
L 261.792898 172.079089 
L 262.109943 172.578862 
L 262.426989 172.245953 
L 262.744034 172.597846 
L 263.06108 172.410781 
L 263.378125 172.673752 
L 263.69517 172.11368 
L 264.012216 172.760862 
L 264.329261 172.901058 
L 264.646307 172.8115 
L 264.963352 172.944725 
L 265.280398 172.884963 
L 265.597443 173.067699 
L 265.914489 172.387809 
L 266.231534 172.65821 
L 266.54858 172.570902 
L 266.865625 173.384998 
L 267.18267 172.353634 
L 267.499716 172.340497 
L 267.816761 172.085243 
L 268.450852 173.137002 
L 268.767898 172.492417 
L 269.401989 172.834667 
L 269.719034 172.629771 
L 270.03608 172.593443 
L 270.353125 172.907705 
L 270.67017 172.320619 
L 270.987216 172.453421 
L 271.304261 172.330282 
L 271.621307 172.595965 
L 271.938352 172.528293 
L 272.255398 172.861315 
L 272.572443 172.896261 
L 272.889489 173.496203 
L 273.52358 172.827251 
L 273.840625 173.139689 
L 274.15767 173.266205 
L 274.474716 173.642314 
L 274.791761 173.416752 
L 275.108807 172.83362 
L 275.425852 172.80055 
L 275.742898 172.93646 
L 276.059943 173.231901 
L 276.376989 173.197898 
L 276.694034 173.481921 
L 277.01108 173.240156 
L 277.962216 173.864126 
L 278.279261 173.678847 
L 278.596307 173.868298 
L 278.913352 173.729008 
L 279.230398 173.863457 
L 279.547443 173.579213 
L 279.864489 173.71759 
L 280.181534 173.392521 
L 280.49858 174.005318 
L 281.13267 174.1466 
L 281.449716 173.144914 
L 281.766761 173.671143 
L 282.400852 174.144585 
L 282.717898 174.019534 
L 283.034943 173.687268 
L 283.669034 174.288035 
L 283.98608 174.1292 
L 284.303125 174.242572 
L 284.62017 174.970998 
L 284.937216 174.148864 
L 285.254261 174.472383 
L 285.571307 173.912354 
L 285.888352 174.929903 
L 286.205398 174.810248 
L 286.522443 174.379742 
L 287.47358 173.893045 
L 287.790625 173.93676 
L 288.10767 174.381656 
L 288.741761 174.031575 
L 289.058807 173.335467 
L 289.375852 174.324617 
L 289.692898 174.571458 
L 290.009943 174.284473 
L 290.326989 175.075052 
L 290.644034 174.592264 
L 291.278125 174.200782 
L 291.59517 174.356521 
L 291.912216 174.179814 
L 292.229261 174.241436 
L 292.546307 174.705087 
L 292.863352 174.679353 
L 293.180398 175.121293 
L 293.497443 175.179036 
L 293.814489 174.430687 
L 294.131534 174.649242 
L 294.44858 175.257114 
L 294.765625 175.436165 
L 295.08267 175.287799 
L 295.399716 174.561613 
L 295.716761 174.723566 
L 296.033807 174.37005 
L 296.350852 174.652566 
L 296.667898 174.067515 
L 296.984943 174.41544 
L 297.301989 174.313536 
L 297.619034 173.964429 
L 297.93608 175.090529 
L 298.253125 174.400231 
L 298.57017 174.447379 
L 298.887216 174.233904 
L 299.204261 174.975875 
L 299.521307 174.326316 
L 299.838352 175.300385 
L 300.155398 174.82901 
L 300.789489 175.127618 
L 301.42358 174.46174 
L 301.740625 174.729816 
L 302.05767 174.81318 
L 302.374716 175.237349 
L 302.691761 175.075744 
L 303.008807 175.140725 
L 303.325852 175.423618 
L 303.642898 175.255391 
L 303.959943 174.372277 
L 304.276989 175.023375 
L 305.228125 174.296632 
L 305.54517 174.415329 
L 305.862216 174.011729 
L 306.179261 173.923366 
L 306.496307 174.913864 
L 306.813352 174.884597 
L 307.130398 174.594898 
L 307.447443 175.163894 
L 307.764489 174.999425 
L 308.081534 174.408347 
L 308.39858 174.79119 
L 309.03267 174.39759 
L 309.349716 174.925129 
L 309.666761 175.055533 
L 310.617898 174.800814 
L 310.934943 174.936818 
L 311.251989 174.810069 
L 311.569034 174.461777 
L 311.88608 174.900441 
L 312.203125 174.840383 
L 312.52017 174.327729 
L 312.837216 174.398339 
L 313.154261 174.61807 
L 313.471307 174.995317 
L 313.788352 174.346549 
L 314.105398 174.179704 
L 314.739489 174.718233 
L 315.056534 174.316179 
L 315.37358 174.535876 
L 315.690625 174.370798 
L 316.00767 174.537744 
L 316.641761 175.518156 
L 316.958807 175.645277 
L 317.275852 175.611891 
L 317.592898 175.052068 
L 317.909943 174.974856 
L 318.226989 175.427324 
L 318.544034 175.271629 
L 318.86108 175.61701 
L 319.178125 175.247906 
L 319.49517 175.294735 
L 320.129261 175.89879 
L 320.446307 176.077742 
L 321.080398 175.413471 
L 321.397443 175.623908 
L 321.714489 175.198067 
L 322.34858 175.44581 
L 322.665625 175.927804 
L 322.98267 175.219054 
L 323.299716 175.687479 
L 323.616761 175.794876 
L 323.933807 175.43702 
L 324.250852 175.328583 
L 325.519034 175.825537 
L 325.83608 176.583016 
L 326.47017 176.896142 
L 327.104261 175.911554 
L 327.421307 176.351337 
L 327.738352 176.181965 
L 328.055398 175.349774 
L 328.372443 176.114277 
L 328.689489 176.114064 
L 329.006534 176.672723 
L 329.640625 176.794847 
L 329.95767 176.325163 
L 330.274716 176.152382 
L 330.591761 176.214148 
L 330.908807 176.505449 
L 331.225852 176.472516 
L 331.542898 176.315092 
L 331.859943 176.027412 
L 332.176989 175.987551 
L 332.494034 176.178034 
L 333.128125 175.706594 
L 333.44517 175.723933 
L 333.762216 175.382591 
L 334.396307 176.010723 
L 334.713352 176.041978 
L 335.347443 175.815828 
L 335.664489 175.496626 
L 335.981534 175.553821 
L 336.29858 175.759455 
L 336.93267 175.844381 
L 337.249716 175.513322 
L 337.566761 175.601948 
L 337.883807 175.865583 
L 338.200852 175.970531 
L 338.834943 175.09015 
L 339.151989 174.097807 
L 339.469034 173.960914 
L 339.78608 175.204017 
L 340.103125 175.655793 
L 340.42017 175.423121 
L 340.737216 175.631669 
L 341.054261 175.399722 
L 341.688352 176.051574 
L 342.005398 175.853567 
L 342.322443 175.970963 
L 342.639489 175.320615 
L 342.956534 175.441648 
L 343.590625 174.876387 
L 343.90767 174.870139 
L 344.224716 175.364116 
L 344.541761 174.282222 
L 344.858807 175.180443 
L 345.175852 175.13155 
L 345.492898 173.969377 
L 345.809943 174.97548 
L 346.126989 175.185995 
L 346.444034 175.592498 
L 346.76108 174.224 
L 347.078125 174.801255 
L 347.39517 174.91318 
L 347.712216 174.655643 
L 348.346307 175.51598 
L 348.663352 174.805268 
L 348.980398 174.946519 
L 349.297443 174.673955 
L 349.614489 175.576337 
L 349.931534 175.910655 
L 350.565625 174.921067 
L 350.88267 175.43875 
L 351.199716 174.862004 
L 351.516761 175.643429 
L 351.833807 175.346209 
L 352.150852 175.821889 
L 352.467898 175.425669 
L 353.101989 175.266382 
L 353.419034 175.036475 
L 353.73608 175.681982 
L 354.687216 174.957426 
L 355.004261 175.009111 
L 355.321307 175.237253 
L 355.638352 175.090847 
L 355.955398 175.476843 
L 356.272443 175.38795 
L 356.589489 175.687296 
L 356.906534 175.334876 
L 357.22358 175.78399 
L 357.540625 175.347002 
L 357.85767 175.32446 
L 358.174716 175.159546 
L 358.491761 175.583069 
L 358.808807 175.228515 
L 359.125852 176.02991 
L 359.442898 175.340675 
L 359.759943 175.748797 
L 360.076989 175.759824 
L 360.394034 175.502586 
L 360.71108 175.409135 
L 361.028125 175.853548 
L 361.34517 175.920658 
L 361.979261 175.379425 
L 362.296307 176.221307 
L 362.613352 175.55776 
L 362.930398 175.671852 
L 363.247443 176.33195 
L 364.19858 175.693488 
L 364.515625 175.451603 
L 364.83267 176.452433 
L 365.149716 176.21655 
L 365.466761 176.977168 
L 365.783807 175.887416 
L 366.100852 176.256904 
L 366.417898 176.362777 
L 366.734943 175.833331 
L 367.369034 175.793318 
L 367.68608 176.410457 
L 368.003125 176.010869 
L 368.32017 175.973294 
L 368.954261 175.635988 
L 369.271307 175.867813 
L 369.588352 175.84295 
L 370.222443 176.308433 
L 370.539489 176.530575 
L 370.856534 175.556151 
L 371.17358 176.013475 
L 371.490625 176.017003 
L 371.80767 176.345195 
L 372.124716 175.139508 
L 372.758807 175.377084 
L 373.075852 175.782979 
L 373.392898 175.4227 
L 373.709943 175.800744 
L 374.026989 175.668727 
L 374.344034 175.788994 
L 374.66108 175.527982 
L 375.29517 175.857657 
L 376.563352 175.85444 
L 376.880398 175.697297 
L 377.197443 176.20142 
L 377.831534 175.237599 
L 378.14858 175.776461 
L 378.78267 175.51335 
L 379.099716 175.51361 
L 379.416761 175.284847 
L 379.733807 175.988658 
L 380.050852 175.15682 
L 380.367898 175.828069 
L 380.684943 175.4534 
L 381.001989 175.76782 
L 381.953125 175.604725 
L 382.27017 175.797928 
L 382.587216 175.773003 
L 382.904261 175.578627 
L 383.221307 175.859677 
L 383.538352 175.333468 
L 383.855398 175.829719 
L 384.172443 175.65768 
L 384.806534 175.757424 
L 385.12358 176.020463 
L 385.440625 175.659318 
L 385.75767 175.960948 
L 386.074716 175.952687 
L 386.391761 176.320597 
L 386.708807 175.984955 
L 387.025852 176.126386 
L 387.342898 175.913653 
L 387.659943 175.519525 
L 387.976989 175.791608 
L 388.294034 175.351093 
L 388.61108 175.282828 
L 388.928125 175.970826 
L 389.24517 175.400552 
L 389.562216 175.178384 
L 389.879261 175.532004 
L 390.196307 175.700844 
L 390.830398 175.876546 
L 391.147443 175.29351 
L 392.09858 175.80121 
L 392.415625 175.731596 
L 392.73267 176.07433 
L 393.049716 175.832862 
L 393.683807 175.590428 
L 394.000852 175.82564 
L 394.317898 175.881331 
L 394.634943 176.103466 
L 394.951989 175.817807 
L 395.58608 175.589772 
L 396.537216 175.276529 
L 396.854261 174.986334 
L 397.805398 175.154045 
L 398.122443 174.90375 
L 398.439489 175.098655 
L 398.756534 174.969489 
L 399.07358 175.503733 
L 399.390625 174.699281 
L 399.70767 174.830775 
L 400.024716 174.606166 
L 400.341761 174.633752 
L 400.658807 174.794433 
L 400.975852 175.391126 
L 401.292898 174.277606 
L 402.244034 174.969307 
L 402.56108 174.620509 
L 402.878125 174.539502 
L 403.19517 174.604974 
L 403.512216 174.23742 
L 403.829261 174.810782 
L 404.146307 175.007167 
L 404.463352 174.51024 
L 404.780398 174.737232 
L 405.414489 174.761644 
L 405.731534 174.322663 
L 406.04858 174.866683 
L 406.68267 174.71044 
L 406.999716 174.335361 
L 407.316761 174.262668 
L 407.633807 174.890004 
L 407.950852 174.503134 
L 408.267898 174.750501 
L 408.584943 174.163995 
L 408.901989 175.057433 
L 409.53608 175.289857 
L 410.487216 175.032269 
L 411.121307 174.917818 
L 411.438352 175.166812 
L 411.755398 174.878764 
L 412.072443 174.897581 
L 412.706534 175.763753 
L 413.02358 175.513465 
L 413.340625 176.060368 
L 413.65767 175.325711 
L 413.974716 175.853369 
L 414.608807 174.817698 
L 414.925852 175.369934 
L 415.242898 174.990136 
L 415.559943 175.154369 
L 415.876989 175.499432 
L 416.194034 175.659211 
L 416.51108 175.602143 
L 417.14517 175.101298 
L 417.462216 175.393486 
L 417.779261 175.477245 
L 418.096307 175.193113 
L 418.413352 175.065682 
L 418.730398 175.310346 
L 419.047443 175.089074 
L 419.364489 174.589455 
L 419.681534 175.020915 
L 419.99858 174.789942 
L 420.315625 175.170339 
L 420.63267 174.946715 
L 421.900852 174.91047 
L 422.534943 175.034176 
L 423.169034 174.7419 
L 423.48608 175.353119 
L 423.803125 174.799489 
L 424.12017 175.076352 
L 424.437216 175.054057 
L 424.754261 175.155637 
L 425.071307 175.007391 
L 426.022443 175.080506 
L 426.339489 175.45836 
L 426.656534 175.097267 
L 426.97358 175.103046 
L 427.290625 174.84033 
L 427.924716 175.588443 
L 428.241761 175.226543 
L 428.875852 175.090935 
L 429.192898 175.331811 
L 430.144034 175.065495 
L 430.46108 175.659041 
L 430.778125 174.817642 
L 431.09517 175.154506 
L 432.046307 175.271672 
L 432.363352 175.981782 
L 433.314489 175.099164 
L 433.631534 175.10675 
L 433.94858 174.819697 
L 434.265625 175.458157 
L 434.58267 175.075811 
L 434.899716 175.090511 
L 435.216761 174.59064 
L 436.167898 175.066074 
L 436.484943 174.907704 
L 436.801989 175.031484 
L 437.119034 174.974791 
L 437.43608 175.370817 
L 437.753125 175.277961 
L 438.07017 175.574394 
L 438.387216 175.621487 
L 439.021307 175.01501 
L 439.338352 175.226884 
L 439.655398 175.197485 
L 439.972443 175.563862 
L 440.606534 175.056835 
L 440.92358 175.087308 
L 441.55767 176.028915 
L 441.874716 175.482654 
L 442.508807 175.421469 
L 442.825852 175.655308 
L 443.142898 175.350954 
L 443.459943 175.284323 
L 443.776989 175.867679 
L 444.094034 175.623143 
L 444.41108 175.74287 
L 444.728125 176.090551 
L 445.04517 175.536243 
L 445.362216 175.437969 
L 445.679261 175.585184 
L 446.313352 175.407295 
L 446.630398 175.396844 
L 446.947443 175.512791 
L 447.264489 175.506006 
L 447.581534 175.677124 
L 448.215625 175.620495 
L 448.53267 175.912077 
L 448.849716 175.748044 
L 449.166761 175.907883 
L 449.483807 175.842888 
L 449.800852 175.570896 
L 450.117898 175.719322 
L 450.434943 175.366759 
L 450.751989 175.554968 
L 451.38608 175.619115 
L 451.703125 175.734084 
L 452.337216 175.418141 
L 452.654261 175.665256 
L 452.971307 175.42406 
L 453.605398 175.794127 
L 453.922443 175.439307 
L 454.239489 175.374074 
L 454.87358 175.81214 
L 455.190625 175.170856 
L 455.824716 176.05492 
L 456.141761 175.800837 
L 456.458807 176.17742 
L 456.775852 176.098905 
L 457.092898 175.668089 
L 457.409943 175.762785 
L 458.36108 175.407749 
L 458.678125 175.401051 
L 458.99517 175.14226 
L 459.312216 175.453254 
L 459.629261 175.296474 
L 460.580398 175.843262 
L 461.214489 175.359082 
L 461.531534 175.553939 
L 461.84858 175.953125 
L 462.165625 175.649579 
L 462.48267 175.86551 
L 462.799716 175.538244 
L 463.116761 175.60639 
L 463.433807 175.239481 
L 464.067898 175.029724 
L 464.384943 175.358277 
L 464.701989 175.38395 
L 465.019034 175.705881 
L 465.653125 175.534206 
L 466.287216 175.979912 
L 466.604261 175.951493 
L 466.921307 175.451366 
L 467.238352 175.692163 
L 467.555398 175.154082 
L 467.872443 175.62435 
L 468.189489 175.801177 
L 468.82358 175.250213 
L 469.140625 175.269055 
L 469.45767 175.004577 
L 469.774716 175.243714 
L 470.408807 175.222212 
L 470.725852 174.925321 
L 471.042898 175.719609 
L 471.359943 175.018409 
L 471.676989 174.866172 
L 472.31108 175.126445 
L 473.262216 175.063008 
L 473.579261 175.164063 
L 473.896307 175.082637 
L 474.213352 174.753869 
L 474.530398 175.529251 
L 474.847443 174.745589 
L 475.164489 175.200306 
L 475.481534 174.640105 
L 476.115625 174.773496 
L 476.43267 174.628807 
L 476.749716 174.816999 
L 477.066761 174.320973 
L 477.383807 174.891058 
L 477.700852 174.758141 
L 478.017898 175.333721 
L 478.334943 174.615325 
L 478.651989 174.957255 
L 478.969034 174.519125 
L 479.28608 174.369485 
L 479.603125 174.547141 
L 479.92017 174.596875 
L 480.237216 174.871741 
L 480.554261 174.476228 
L 481.505398 174.865028 
L 481.822443 174.663183 
L 482.139489 174.300513 
L 482.456534 174.332176 
L 482.77358 174.122625 
L 483.090625 174.063657 
L 483.40767 174.617358 
L 484.041761 174.055997 
L 484.358807 174.793337 
L 484.675852 174.703346 
L 485.309943 173.79846 
L 485.626989 174.224563 
L 485.944034 173.957166 
L 486.26108 174.163236 
L 486.578125 174.076515 
L 486.89517 174.60678 
L 487.212216 174.63188 
L 487.529261 174.09173 
L 487.846307 174.231991 
L 488.163352 174.029099 
L 488.797443 174.196165 
L 489.114489 173.860625 
L 489.431534 174.039714 
L 489.74858 174.080424 
L 490.065625 174.535802 
L 490.38267 174.68288 
L 490.699716 174.496243 
L 491.650852 174.624444 
L 491.967898 175.370094 
L 492.284943 175.459105 
L 492.601989 175.062151 
L 492.919034 175.70813 
L 493.23608 175.378239 
L 493.553125 175.605805 
L 493.87017 175.415055 
L 494.187216 175.426081 
L 494.504261 175.671406 
L 495.455398 175.141591 
L 495.772443 175.120498 
L 496.089489 175.228699 
L 496.72358 175.126698 
L 497.040625 175.180075 
L 497.35767 175.114895 
L 497.674716 175.495082 
L 497.991761 175.249774 
L 498.625852 175.353477 
L 498.942898 175.104242 
L 499.259943 175.302763 
L 499.576989 175.137802 
L 499.894034 175.286 
L 500.21108 174.993177 
L 500.528125 175.069556 
L 500.84517 174.911829 
L 501.162216 175.487017 
L 501.479261 175.348699 
L 501.796307 174.875487 
L 502.113352 175.107768 
L 502.430398 175.009889 
L 502.747443 175.148257 
L 503.064489 174.844329 
L 503.381534 174.962495 
L 503.69858 174.917892 
L 504.015625 174.723767 
L 504.33267 175.071114 
L 504.649716 175.143572 
L 505.283807 174.715026 
L 505.600852 174.857994 
L 506.234943 174.403719 
L 507.18608 174.587568 
L 507.503125 174.70854 
L 507.82017 174.958381 
L 508.137216 174.865504 
L 508.454261 175.156834 
L 509.088352 174.812023 
L 509.405398 175.153412 
L 509.722443 174.694456 
L 510.039489 175.073319 
L 510.356534 174.532314 
L 510.990625 174.548813 
L 511.30767 174.19441 
L 511.624716 174.577263 
L 511.941761 174.607275 
L 512.575852 174.430975 
L 513.209943 174.944196 
L 513.526989 174.943773 
L 513.844034 175.128253 
L 514.16108 174.756729 
L 514.478125 174.867139 
L 514.79517 174.271487 
L 515.429261 174.795752 
L 515.746307 174.594237 
L 516.063352 174.686828 
L 516.380398 174.967619 
L 517.014489 175.112421 
L 517.331534 174.799983 
L 517.965625 175.050415 
L 518.28267 174.966384 
L 518.916761 175.142008 
L 519.233807 174.940542 
L 519.550852 174.901938 
L 519.867898 175.041994 
L 520.184943 174.448311 
L 520.501989 174.955053 
L 520.819034 174.588529 
L 521.13608 174.582603 
L 521.453125 175.09925 
L 521.77017 174.769751 
L 522.087216 174.624125 
L 522.404261 174.763725 
L 523.355398 174.804461 
L 523.672443 174.839987 
L 523.989489 175.24804 
L 524.306534 174.811241 
L 524.62358 174.790241 
L 524.940625 174.615793 
L 525.25767 175.098092 
L 525.574716 174.706094 
L 525.891761 175.053526 
L 526.842898 174.658289 
L 527.476989 175.04318 
L 527.794034 174.987099 
L 528.428125 174.469332 
L 528.74517 174.094224 
L 529.696307 174.711585 
L 530.013352 174.852807 
L 530.647443 174.893967 
L 530.964489 174.348255 
L 531.59858 174.325425 
L 531.915625 174.577391 
L 532.23267 174.499028 
L 532.549716 174.940602 
L 532.866761 174.680428 
L 533.183807 174.775048 
L 533.500852 174.083276 
L 533.817898 174.597451 
L 534.134943 174.431522 
L 534.451989 174.893013 
L 534.769034 175.00367 
L 535.08608 174.67851 
L 535.403125 174.998638 
L 535.72017 175.097126 
L 536.037216 174.55285 
L 536.354261 174.432433 
L 536.671307 174.880158 
L 536.988352 174.638881 
L 537.305398 174.889929 
L 537.622443 175.365795 
L 537.939489 174.846776 
L 538.256534 175.294389 
L 538.57358 175.221588 
L 538.890625 175.351925 
L 539.524716 174.967717 
L 539.841761 174.865309 
L 540.158807 175.17812 
L 540.475852 174.70866 
L 540.792898 175.115616 
L 541.109943 175.295787 
L 541.744034 175.296309 
L 542.378125 175.137059 
L 542.69517 175.597111 
L 543.012216 175.39247 
L 543.329261 175.470972 
L 543.646307 175.22056 
L 543.963352 175.179252 
L 544.280398 175.262955 
L 544.597443 175.028791 
L 544.914489 175.606401 
L 545.231534 175.388649 
L 545.54858 174.96081 
L 545.865625 175.232376 
L 546.18267 175.022308 
L 546.499716 175.253861 
L 546.816761 174.939458 
L 547.133807 174.826633 
L 547.450852 175.216153 
L 547.767898 175.147765 
L 548.084943 175.453132 
L 548.719034 175.185711 
L 549.03608 175.289441 
L 549.353125 174.992861 
L 549.67017 175.043686 
L 549.987216 174.870666 
L 550.621307 175.337491 
L 550.938352 174.688911 
L 551.255398 174.941765 
L 551.572443 175.380579 
L 551.889489 174.959569 
L 552.206534 175.218896 
L 552.52358 174.785331 
L 552.840625 174.960916 
L 553.15767 174.774772 
L 554.108807 175.375697 
L 554.425852 174.951433 
L 555.059943 174.723969 
L 555.376989 174.871619 
L 555.694034 174.747094 
L 556.01108 174.815317 
L 556.328125 175.238504 
L 556.64517 175.158214 
L 556.962216 175.248126 
L 557.279261 175.016585 
L 557.596307 175.042835 
L 557.913352 174.643303 
L 558.230398 175.422416 
L 558.547443 175.322629 
L 558.864489 175.09364 
L 559.181534 175.064613 
L 559.49858 175.203828 
L 559.815625 174.96301 
L 560.13267 175.07807 
L 560.449716 175.620663 
L 560.766761 175.166139 
L 561.083807 175.048569 
L 561.717898 175.248919 
L 562.034943 175.615296 
L 562.98608 175.100458 
L 563.303125 175.251338 
L 563.62017 175.545411 
L 563.937216 175.364173 
L 564.571307 175.672359 
L 565.205398 175.086736 
L 565.522443 175.632781 
L 566.156534 176.064291 
L 566.47358 175.514316 
L 566.790625 175.343734 
L 567.10767 174.895813 
L 567.424716 175.439754 
L 567.741761 175.14674 
L 568.058807 175.634281 
L 568.375852 175.039696 
L 568.692898 174.964348 
L 569.009943 175.69932 
L 569.326989 175.296152 
L 569.644034 175.337905 
L 570.278125 175.951326 
L 570.59517 175.600356 
L 570.912216 175.888594 
L 571.229261 175.617654 
L 571.546307 175.871485 
L 572.180398 175.363879 
L 572.497443 175.649272 
L 572.814489 175.56723 
L 573.131534 175.802924 
L 573.765625 174.882236 
L 574.08267 175.344673 
L 574.716761 175.385966 
L 575.033807 175.078017 
L 575.350852 175.473733 
L 575.667898 175.124845 
L 575.984943 175.283917 
L 576.301989 175.792895 
L 576.619034 175.597265 
L 576.93608 175.173999 
L 577.887216 175.756028 
L 578.204261 175.554913 
L 578.521307 175.763851 
L 578.838352 175.301956 
L 579.472443 175.408335 
L 579.789489 175.208986 
L 580.106534 175.588446 
L 580.740625 175.480746 
L 581.05767 175.678893 
L 581.691761 175.479779 
L 582.008807 175.592575 
L 582.325852 175.331644 
L 582.642898 175.474381 
L 582.959943 175.473202 
L 583.276989 175.676392 
L 583.594034 175.311062 
L 583.91108 175.55298 
L 584.228125 175.239088 
L 584.54517 175.580171 
L 584.862216 175.507804 
L 585.179261 175.763151 
L 585.496307 175.576982 
L 585.813352 175.615082 
L 586.130398 175.856428 
L 586.447443 175.758517 
L 586.764489 176.070196 
L 587.081534 175.663719 
L 587.39858 175.762353 
L 587.715625 176.021927 
L 588.349716 175.72439 
L 588.983807 175.81963 
L 589.300852 175.614079 
L 589.617898 175.777816 
L 590.88608 175.618249 
L 591.203125 175.885414 
L 591.52017 175.545019 
L 591.837216 175.940653 
L 592.154261 175.450501 
L 592.471307 175.797207 
L 592.788352 175.852539 
L 593.422443 175.214069 
L 593.739489 175.676092 
L 594.056534 175.702748 
L 594.37358 175.518764 
L 594.690625 175.673419 
L 595.00767 175.624572 
L 595.324716 175.450378 
L 595.641761 176.021336 
L 595.958807 175.617465 
L 596.275852 175.528101 
L 596.592898 175.890892 
L 597.226989 175.527386 
L 597.544034 175.609489 
L 597.86108 175.83111 
L 598.178125 175.320427 
L 598.49517 175.442482 
L 598.812216 175.173037 
L 599.446307 175.311092 
L 599.763352 175.761221 
L 600.397443 175.493672 
L 600.714489 175.719575 
L 601.031534 175.445867 
L 601.34858 175.549888 
L 601.665625 175.3331 
L 601.98267 174.806685 
L 602.299716 175.158016 
L 602.616761 175.32919 
L 602.933807 175.681753 
L 603.250852 175.427869 
L 603.567898 175.728936 
L 604.201989 175.378389 
L 604.519034 175.674792 
L 604.83608 175.419796 
L 605.153125 175.855168 
L 605.47017 175.293996 
L 605.787216 175.926299 
L 606.104261 175.704351 
L 606.421307 175.698299 
L 606.738352 175.837231 
L 607.372443 175.900627 
L 607.689489 175.645392 
L 608.006534 175.754482 
L 608.32358 175.337907 
L 608.95767 176.020574 
L 609.274716 175.48677 
L 609.591761 175.825988 
L 609.908807 175.702732 
L 610.225852 175.95259 
L 610.542898 175.568646 
L 610.859943 175.422245 
L 611.176989 175.461458 
L 611.494034 175.8291 
L 612.762216 175.372926 
L 613.079261 175.484833 
L 613.396307 175.732042 
L 613.713352 175.717323 
L 614.030398 175.919078 
L 614.347443 175.958051 
L 614.981534 175.4555 
L 615.29858 175.7029 
L 615.93267 175.291253 
L 616.249716 176.052325 
L 616.566761 175.674892 
L 616.883807 175.646451 
L 617.834943 175.211757 
L 618.151989 175.771463 
L 618.469034 176.101548 
L 618.78608 175.52758 
L 619.103125 175.994913 
L 619.42017 175.446995 
L 619.737216 175.960564 
L 620.054261 175.36042 
L 620.371307 175.57811 
L 621.005398 175.236235 
L 621.322443 175.6112 
L 621.639489 175.769327 
L 621.956534 175.610343 
L 622.90767 176.176888 
L 623.224716 175.810729 
L 623.858807 175.599074 
L 624.175852 175.515889 
L 624.492898 175.709597 
L 624.809943 176.087347 
L 625.126989 175.526378 
L 625.126989 175.526378 
" clip-path="url(#pc7fccebf0d)" style="fill: none; stroke: #1f77b4; stroke-width: 1.5; stroke-linecap: square"/>
   </g>
   <g id="line2d_16">
    <path d="M 117.854261 283.817858 
L 118.171307 296.03625 
L 118.488352 270.616898 
L 118.805398 261.343127 
L 119.122443 266.675624 
L 119.439489 254.3987 
L 119.756534 253.78483 
L 120.07358 234.718979 
L 120.390625 243.174054 
L 120.70767 233.622601 
L 121.024716 255.831372 
L 121.341761 226.820111 
L 121.658807 231.623087 
L 121.975852 222.755458 
L 122.292898 237.090497 
L 122.609943 221.800231 
L 122.926989 220.580769 
L 123.244034 239.851293 
L 123.56108 218.690556 
L 123.878125 208.012777 
L 124.19517 213.077702 
L 124.512216 203.210023 
L 124.829261 204.36703 
L 125.146307 200.127711 
L 125.463352 197.699217 
L 125.780398 197.009593 
L 126.097443 192.778947 
L 126.414489 193.284367 
L 127.04858 190.032498 
L 127.365625 190.98049 
L 127.68267 192.754977 
L 127.999716 191.632475 
L 128.633807 187.702186 
L 128.950852 186.31986 
L 129.267898 189.750291 
L 129.584943 188.198746 
L 129.901989 189.00049 
L 130.219034 189.320823 
L 130.53608 185.316259 
L 131.17017 184.835969 
L 131.487216 185.979726 
L 131.804261 188.292898 
L 132.121307 184.413948 
L 132.438352 186.018381 
L 132.755398 185.564117 
L 133.072443 183.829002 
L 133.389489 185.263654 
L 133.706534 184.827063 
L 134.02358 185.642403 
L 134.340625 185.081576 
L 134.65767 185.318168 
L 135.291761 183.054028 
L 135.608807 183.091849 
L 135.925852 181.620767 
L 136.242898 181.838532 
L 136.559943 182.869973 
L 136.876989 182.690779 
L 137.194034 182.28129 
L 137.51108 180.870267 
L 137.828125 183.116401 
L 138.462216 184.052396 
L 138.779261 184.34861 
L 139.096307 182.464961 
L 139.730398 182.093607 
L 140.047443 184.792872 
L 140.364489 183.634699 
L 140.681534 183.261662 
L 140.99858 184.624761 
L 141.315625 183.487667 
L 141.63267 184.04581 
L 141.949716 182.432324 
L 142.266761 182.812326 
L 142.583807 182.662128 
L 142.900852 182.709696 
L 143.217898 182.390061 
L 143.534943 182.933603 
L 143.851989 185.113963 
L 144.169034 183.825193 
L 144.48608 181.5119 
L 144.803125 182.332163 
L 145.12017 182.657852 
L 145.437216 183.310738 
L 145.754261 183.531447 
L 146.071307 183.308215 
L 146.388352 183.62141 
L 146.705398 184.483335 
L 147.022443 183.45188 
L 147.656534 184.197178 
L 147.97358 183.120905 
L 148.290625 182.57126 
L 148.60767 183.383851 
L 148.924716 182.947738 
L 149.241761 183.167254 
L 149.558807 183.694203 
L 149.875852 183.057892 
L 150.192898 183.707169 
L 150.509943 182.282464 
L 150.826989 184.110702 
L 151.144034 183.132366 
L 151.46108 184.305063 
L 151.778125 182.879901 
L 152.09517 183.550493 
L 152.729261 183.501126 
L 153.046307 182.388915 
L 153.363352 182.417677 
L 153.680398 182.173322 
L 153.997443 183.391072 
L 154.631534 182.940126 
L 154.94858 182.46022 
L 155.265625 182.325477 
L 155.58267 181.724674 
L 155.899716 181.502345 
L 156.533807 182.799914 
L 157.167898 182.042545 
L 157.484943 182.333771 
L 157.801989 181.160114 
L 158.119034 183.896472 
L 158.43608 182.550055 
L 158.753125 182.064496 
L 159.07017 181.125233 
L 159.387216 181.238594 
L 159.704261 182.004937 
L 160.021307 182.161104 
L 160.338352 181.414516 
L 160.655398 182.304203 
L 160.972443 181.874481 
L 161.289489 181.798224 
L 161.606534 181.982022 
L 161.92358 181.109051 
L 162.240625 182.125077 
L 162.55767 182.440727 
L 163.191761 181.187696 
L 163.508807 181.751393 
L 163.825852 181.583518 
L 164.142898 182.175445 
L 164.459943 183.160066 
L 164.776989 182.022578 
L 165.094034 181.400837 
L 165.728125 182.736279 
L 166.04517 182.132305 
L 166.362216 183.201044 
L 166.679261 183.390734 
L 166.996307 183.243412 
L 167.313352 181.991815 
L 167.947443 182.274377 
L 168.264489 183.17882 
L 168.581534 183.428812 
L 168.89858 183.886167 
L 169.215625 182.608761 
L 169.53267 183.712115 
L 170.166761 183.277566 
L 170.483807 183.511026 
L 171.434943 183.633084 
L 171.751989 183.299605 
L 172.069034 183.783579 
L 172.38608 183.910268 
L 173.02017 184.92944 
L 173.337216 183.203228 
L 173.654261 183.314599 
L 173.971307 184.512217 
L 174.288352 183.829892 
L 174.605398 184.829618 
L 174.922443 183.795532 
L 175.556534 181.114258 
L 176.190625 183.511928 
L 176.50767 183.577943 
L 176.824716 183.326592 
L 177.141761 182.786861 
L 177.458807 183.101856 
L 177.775852 182.860106 
L 178.092898 182.896584 
L 178.409943 183.097378 
L 178.726989 182.191737 
L 179.044034 183.797359 
L 179.36108 182.707522 
L 179.678125 182.50586 
L 179.99517 183.114747 
L 180.312216 182.718723 
L 180.629261 182.923467 
L 180.946307 182.183745 
L 181.263352 183.353683 
L 181.580398 182.7453 
L 181.897443 183.01248 
L 182.214489 183.68453 
L 182.531534 181.987794 
L 183.165625 183.064775 
L 183.48267 183.524069 
L 183.799716 183.241964 
L 184.116761 183.384202 
L 184.433807 183.856913 
L 184.750852 184.648702 
L 185.067898 182.602124 
L 185.384943 183.351471 
L 185.701989 182.881703 
L 186.019034 182.699623 
L 186.33608 182.807006 
L 187.604261 184.604789 
L 187.921307 184.052045 
L 188.238352 183.243903 
L 188.555398 184.052092 
L 189.189489 183.603225 
L 189.506534 183.57647 
L 189.82358 184.190813 
L 190.140625 183.846776 
L 190.45767 183.1117 
L 190.774716 183.575398 
L 191.091761 183.826855 
L 191.408807 183.216567 
L 191.725852 183.100553 
L 192.042898 183.61975 
L 192.359943 183.712894 
L 192.676989 183.597435 
L 192.994034 182.929186 
L 193.31108 183.970208 
L 193.628125 183.329715 
L 194.262216 183.487367 
L 194.579261 184.025893 
L 194.896307 183.355025 
L 195.530398 184.172635 
L 195.847443 183.89308 
L 196.481534 185.250018 
L 196.79858 183.991193 
L 197.115625 180.264595 
L 197.43267 179.379729 
L 197.749716 179.979928 
L 198.066761 179.808172 
L 198.383807 179.831676 
L 198.700852 180.597556 
L 199.017898 180.60864 
L 199.334943 181.204994 
L 199.651989 180.571995 
L 199.969034 180.389812 
L 200.28608 180.927543 
L 200.603125 181.159789 
L 200.92017 180.95655 
L 201.237216 181.658681 
L 201.554261 181.65998 
L 201.871307 181.207524 
L 202.188352 181.268454 
L 202.505398 181.946299 
L 202.822443 181.462368 
L 203.139489 181.327931 
L 203.456534 181.405739 
L 203.77358 181.830208 
L 204.090625 181.243396 
L 204.40767 181.198737 
L 204.724716 181.023432 
L 205.041761 181.396091 
L 205.358807 180.38087 
L 205.675852 181.313379 
L 205.992898 180.376577 
L 206.309943 180.39457 
L 206.626989 181.042059 
L 206.944034 180.401476 
L 207.26108 180.903968 
L 207.578125 181.080735 
L 207.89517 180.79097 
L 208.529261 181.338014 
L 208.846307 181.292395 
L 209.163352 181.127015 
L 209.480398 181.168368 
L 209.797443 180.728198 
L 210.114489 181.203847 
L 210.74858 180.210731 
L 211.699716 181.131196 
L 212.016761 180.356829 
L 212.967898 181.13129 
L 213.284943 180.48727 
L 213.601989 181.316777 
L 213.919034 180.843416 
L 214.23608 181.182363 
L 214.553125 181.339458 
L 214.87017 180.784706 
L 215.187216 180.901468 
L 215.504261 180.547993 
L 215.821307 180.537567 
L 216.138352 181.04459 
L 216.455398 180.596105 
L 217.089489 180.738678 
L 217.406534 181.393769 
L 217.72358 180.752169 
L 218.040625 180.657503 
L 218.35767 180.737657 
L 218.674716 181.107062 
L 218.991761 180.712911 
L 219.625852 181.124472 
L 219.942898 180.84352 
L 220.259943 181.219557 
L 220.576989 180.44609 
L 220.894034 181.06896 
L 221.21108 181.178658 
L 221.528125 180.837517 
L 222.162216 181.567467 
L 222.479261 181.012683 
L 222.796307 181.07599 
L 223.113352 180.666583 
L 223.430398 180.522667 
L 223.747443 180.75596 
L 224.064489 180.732957 
L 224.381534 181.094926 
L 225.015625 180.734951 
L 225.33267 180.631432 
L 225.649716 180.665116 
L 226.283807 181.598188 
L 226.600852 180.864201 
L 226.917898 180.568699 
L 227.234943 180.707393 
L 227.551989 181.512054 
L 228.503125 181.481038 
L 228.82017 181.815024 
L 229.137216 181.333635 
L 229.454261 181.233244 
L 229.771307 180.895049 
L 230.088352 181.152924 
L 230.405398 181.111089 
L 231.039489 181.190319 
L 231.356534 181.018222 
L 231.67358 181.32288 
L 231.990625 181.040865 
L 232.30767 181.211261 
L 232.624716 180.891106 
L 232.941761 181.268086 
L 233.258807 181.388344 
L 233.575852 181.081676 
L 233.892898 181.037959 
L 234.209943 180.683913 
L 234.526989 181.45284 
L 234.844034 181.600966 
L 235.16108 180.824199 
L 235.478125 180.767479 
L 235.79517 181.045496 
L 236.112216 180.946243 
L 236.429261 180.980867 
L 236.746307 180.565906 
L 237.063352 181.129756 
L 237.380398 180.275914 
L 237.697443 180.746793 
L 239.28267 180.354044 
L 239.599716 180.75142 
L 239.916761 180.748254 
L 240.233807 180.873944 
L 240.550852 180.736618 
L 240.867898 181.217443 
L 241.184943 180.804086 
L 241.501989 180.653515 
L 241.819034 181.057363 
L 242.13608 180.652628 
L 242.453125 180.766028 
L 242.77017 181.346359 
L 243.087216 180.19628 
L 243.404261 180.998391 
L 244.038352 180.976858 
L 244.355398 180.774304 
L 244.989489 181.364204 
L 245.306534 180.015446 
L 245.940625 181.177205 
L 246.25767 180.721899 
L 246.574716 180.500829 
L 246.891761 180.702456 
L 247.525852 176.307169 
L 247.842898 177.511804 
L 248.159943 177.385175 
L 248.476989 177.852736 
L 249.11108 178.433903 
L 249.428125 178.181649 
L 249.74517 178.338894 
L 250.062216 178.111825 
L 250.379261 178.553982 
L 250.696307 178.428131 
L 251.013352 178.580703 
L 251.330398 178.411208 
L 251.647443 178.595047 
L 251.964489 178.583323 
L 252.281534 178.704573 
L 252.59858 178.524822 
L 253.549716 179.340203 
L 253.866761 178.721279 
L 254.183807 179.195154 
L 254.500852 178.863247 
L 255.134943 178.904504 
L 255.769034 179.17992 
L 256.08608 178.598338 
L 256.403125 178.499958 
L 256.72017 178.959039 
L 257.037216 178.914453 
L 257.354261 178.258735 
L 257.671307 178.66337 
L 257.988352 178.254882 
L 258.305398 178.706815 
L 258.622443 178.492793 
L 258.939489 178.803644 
L 259.256534 178.574321 
L 259.57358 178.670493 
L 259.890625 178.526605 
L 260.20767 178.608478 
L 260.524716 179.052171 
L 260.841761 178.470828 
L 261.475852 178.955696 
L 262.109943 179.056176 
L 262.426989 178.722849 
L 262.744034 179.108168 
L 263.378125 179.04044 
L 263.69517 179.339111 
L 264.012216 178.821481 
L 264.329261 178.828895 
L 264.646307 178.372158 
L 265.280398 179.071322 
L 265.597443 178.823105 
L 266.54858 178.854966 
L 266.865625 178.638637 
L 267.499716 179.102823 
L 267.816761 178.935124 
L 268.133807 178.629359 
L 268.450852 179.069866 
L 268.767898 179.27838 
L 269.084943 179.042123 
L 269.401989 178.640631 
L 269.719034 178.912032 
L 270.353125 179.065539 
L 270.67017 178.941235 
L 270.987216 179.1502 
L 271.304261 179.023144 
L 271.621307 179.363355 
L 271.938352 178.954135 
L 272.255398 178.992939 
L 272.572443 179.443323 
L 272.889489 179.645349 
L 273.206534 178.806777 
L 273.52358 179.401296 
L 274.15767 178.679273 
L 274.474716 179.34932 
L 274.791761 179.115861 
L 275.108807 179.583493 
L 275.425852 179.197347 
L 276.059943 178.990594 
L 276.376989 179.357427 
L 277.01108 179.506311 
L 277.328125 179.485305 
L 277.64517 178.780965 
L 277.962216 179.151367 
L 278.279261 179.013556 
L 278.596307 179.135437 
L 279.230398 179.042252 
L 279.547443 179.472047 
L 279.864489 179.219821 
L 280.181534 179.364226 
L 280.49858 179.358175 
L 280.815625 179.004647 
L 281.13267 179.014748 
L 281.449716 179.397583 
L 281.766761 178.693202 
L 282.400852 179.419855 
L 283.034943 178.889672 
L 283.351989 178.929942 
L 283.669034 179.249873 
L 283.98608 179.169529 
L 284.303125 178.710206 
L 284.62017 179.049115 
L 285.254261 178.837573 
L 285.571307 178.79757 
L 285.888352 178.966607 
L 286.205398 178.738942 
L 286.522443 179.272193 
L 286.839489 178.8278 
L 287.156534 178.895308 
L 287.47358 179.253174 
L 288.10767 179.440098 
L 288.424716 179.186068 
L 289.058807 179.265858 
L 289.375852 179.092749 
L 289.692898 179.164606 
L 290.009943 178.955908 
L 290.326989 178.881991 
L 290.644034 178.564917 
L 290.96108 178.695836 
L 291.278125 179.29003 
L 291.59517 179.437605 
L 291.912216 178.950038 
L 293.180398 179.195519 
L 293.497443 179.007149 
L 294.44858 179.42847 
L 294.765625 178.795757 
L 295.08267 178.69425 
L 295.716761 179.310704 
L 296.033807 178.856549 
L 296.350852 178.975556 
L 296.667898 179.433609 
L 296.984943 179.442179 
L 297.301989 178.94465 
L 297.93608 178.815202 
L 298.887216 178.477733 
L 299.204261 178.114107 
L 299.521307 178.64986 
L 299.838352 178.578177 
L 300.155398 179.115575 
L 300.789489 178.53909 
L 301.106534 178.845721 
L 301.42358 178.880085 
L 301.740625 179.131845 
L 302.05767 178.54065 
L 303.008807 178.706631 
L 303.325852 178.630018 
L 303.642898 178.677452 
L 303.959943 178.434561 
L 304.276989 179.006029 
L 304.594034 178.741302 
L 304.91108 179.194279 
L 305.228125 179.260951 
L 305.54517 179.191975 
L 305.862216 178.984786 
L 306.179261 179.185696 
L 306.813352 179.056956 
L 307.130398 179.137147 
L 307.447443 179.05843 
L 307.764489 178.759519 
L 308.081534 179.310868 
L 308.39858 178.868002 
L 308.715625 178.694117 
L 309.349716 178.9388 
L 309.666761 178.571324 
L 309.983807 179.132231 
L 310.300852 179.162256 
L 310.617898 178.782115 
L 310.934943 178.882387 
L 311.251989 178.708396 
L 311.569034 178.844637 
L 311.88608 178.779997 
L 312.203125 179.182431 
L 313.154261 178.875146 
L 313.471307 179.323337 
L 313.788352 179.191612 
L 314.105398 179.233337 
L 314.422443 179.028099 
L 314.739489 179.215886 
L 315.056534 178.892683 
L 315.37358 178.952811 
L 315.690625 178.803125 
L 316.958807 179.240258 
L 317.275852 179.068686 
L 317.592898 178.660861 
L 317.909943 178.658637 
L 318.226989 178.895783 
L 318.544034 178.579373 
L 319.178125 178.4952 
L 319.49517 178.801094 
L 319.812216 178.906604 
L 320.129261 178.386062 
L 321.080398 178.324831 
L 321.397443 178.630576 
L 322.031534 178.467981 
L 322.34858 178.548062 
L 322.665625 178.874228 
L 323.299716 178.417217 
L 323.616761 178.742675 
L 324.250852 178.235246 
L 324.884943 178.685491 
L 325.201989 178.603752 
L 325.519034 178.646164 
L 326.153125 178.342603 
L 326.47017 178.461334 
L 326.787216 178.215457 
L 327.104261 178.496797 
L 327.421307 178.551274 
L 327.738352 178.449548 
L 328.055398 178.600133 
L 329.006534 178.732442 
L 329.32358 179.012389 
L 329.640625 178.867877 
L 329.95767 178.586218 
L 330.274716 178.706716 
L 330.591761 179.022021 
L 330.908807 178.855143 
L 331.542898 179.334006 
L 331.859943 178.04463 
L 332.176989 178.856063 
L 332.494034 179.220334 
L 332.81108 178.730664 
L 333.128125 179.094774 
L 333.44517 178.792007 
L 333.762216 178.785669 
L 334.079261 178.992825 
L 334.396307 178.877804 
L 336.29858 178.995964 
L 337.249716 178.571518 
L 337.566761 178.878843 
L 337.883807 178.876594 
L 338.200852 178.7059 
L 338.517898 178.674572 
L 338.834943 178.451724 
L 339.151989 177.283083 
L 339.469034 177.517113 
L 339.78608 178.409482 
L 340.103125 178.541538 
L 340.42017 178.504045 
L 340.737216 178.165852 
L 341.054261 178.367274 
L 341.371307 179.048832 
L 341.688352 179.06605 
L 342.639489 178.136257 
L 342.956534 178.453629 
L 343.27358 178.395558 
L 343.590625 178.06291 
L 343.90767 178.169817 
L 344.224716 178.550845 
L 344.541761 178.260967 
L 344.858807 178.422489 
L 345.175852 178.437498 
L 345.492898 178.20868 
L 345.809943 177.831384 
L 346.126989 178.375971 
L 346.444034 177.778779 
L 346.76108 176.356567 
L 347.39517 177.258387 
L 347.712216 177.304316 
L 348.663352 177.717315 
L 349.297443 177.815701 
L 349.614489 177.507966 
L 350.24858 177.424103 
L 350.565625 177.490708 
L 351.199716 177.292338 
L 351.833807 178.300794 
L 352.150852 178.085515 
L 352.467898 178.436069 
L 352.784943 178.042457 
L 353.101989 177.006199 
L 353.419034 177.608689 
L 353.73608 177.794829 
L 354.053125 177.650742 
L 354.37017 178.096042 
L 354.687216 177.845612 
L 355.321307 177.919014 
L 355.955398 178.002204 
L 356.272443 177.627559 
L 356.589489 178.074846 
L 356.906534 178.063833 
L 357.540625 177.697961 
L 357.85767 177.852067 
L 358.174716 178.157186 
L 358.491761 177.888062 
L 358.808807 178.266098 
L 359.125852 178.081566 
L 359.442898 177.563687 
L 359.759943 177.630044 
L 360.076989 177.948154 
L 360.394034 177.919448 
L 360.71108 177.460672 
L 361.028125 177.940087 
L 361.34517 177.907446 
L 361.979261 177.149796 
L 362.613352 178.086275 
L 362.930398 177.875391 
L 363.247443 177.827473 
L 363.564489 177.428997 
L 363.881534 177.707046 
L 364.19858 177.796431 
L 364.515625 177.61867 
L 364.83267 177.743852 
L 365.149716 178.210744 
L 365.466761 178.235982 
L 365.783807 177.858813 
L 366.100852 178.153955 
L 366.734943 178.032912 
L 367.051989 177.874922 
L 367.369034 178.017389 
L 367.68608 177.795975 
L 368.32017 178.158146 
L 368.637216 177.61645 
L 368.954261 178.124577 
L 369.271307 177.874549 
L 369.588352 177.902825 
L 369.905398 177.655145 
L 370.222443 177.823791 
L 371.17358 177.543045 
L 371.490625 177.943777 
L 371.80767 177.654174 
L 372.441761 178.014056 
L 372.758807 177.767172 
L 373.075852 178.061381 
L 373.392898 178.012416 
L 374.026989 177.784691 
L 374.344034 177.890452 
L 374.66108 177.582448 
L 374.978125 178.045734 
L 375.29517 177.688063 
L 375.929261 177.795479 
L 376.246307 177.781499 
L 376.563352 178.085286 
L 377.197443 177.866619 
L 377.831534 177.575934 
L 378.14858 178.207843 
L 378.465625 177.68741 
L 378.78267 177.646399 
L 379.099716 177.996321 
L 379.416761 178.155769 
L 379.733807 177.779382 
L 380.050852 177.581883 
L 380.684943 177.728854 
L 381.001989 177.601826 
L 381.319034 177.299808 
L 381.63608 177.720555 
L 381.953125 177.771553 
L 382.27017 177.986081 
L 382.587216 177.917202 
L 382.904261 178.056569 
L 383.221307 177.881752 
L 383.538352 178.013289 
L 383.855398 177.845746 
L 384.806534 178.000163 
L 385.440625 178.09435 
L 386.708807 178.028538 
L 387.025852 177.575061 
L 387.342898 177.903325 
L 388.294034 177.92304 
L 388.61108 178.296702 
L 388.928125 177.536041 
L 389.562216 178.299139 
L 390.196307 177.597842 
L 390.513352 177.571086 
L 390.830398 178.083496 
L 391.147443 177.795569 
L 391.464489 178.260632 
L 391.781534 177.783564 
L 392.09858 177.63248 
L 392.415625 177.853258 
L 392.73267 177.876817 
L 393.049716 178.025955 
L 393.366761 178.30027 
L 393.683807 177.978471 
L 394.000852 178.253196 
L 394.317898 178.281086 
L 394.634943 177.919674 
L 394.951989 177.731118 
L 395.269034 178.128675 
L 395.58608 177.977383 
L 395.903125 177.955703 
L 396.537216 177.571691 
L 396.854261 177.732882 
L 397.171307 177.715864 
L 397.488352 177.523051 
L 397.805398 177.942678 
L 398.439489 177.802956 
L 399.390625 177.785892 
L 399.70767 177.602954 
L 400.341761 177.613392 
L 400.658807 177.858624 
L 400.975852 177.713087 
L 401.292898 178.067712 
L 401.609943 178.040431 
L 401.926989 177.677158 
L 402.244034 177.98925 
L 402.56108 178.460061 
L 403.19517 177.764607 
L 403.829261 177.900637 
L 404.146307 177.608285 
L 404.463352 177.506282 
L 404.780398 177.830049 
L 405.097443 177.85087 
L 405.414489 178.206318 
L 405.731534 177.991505 
L 407.316761 177.904066 
L 407.633807 177.609825 
L 407.950852 177.935633 
L 408.584943 177.593403 
L 408.901989 178.000685 
L 409.219034 177.477818 
L 409.53608 177.196323 
L 409.853125 177.346474 
L 410.17017 177.253075 
L 410.804261 177.796553 
L 411.438352 177.323836 
L 412.072443 177.705141 
L 412.389489 177.616126 
L 412.706534 177.672933 
L 413.02358 177.425612 
L 413.65767 177.67359 
L 413.974716 177.478151 
L 414.608807 177.493176 
L 414.925852 177.631309 
L 415.559943 177.351125 
L 415.876989 177.683864 
L 416.194034 177.323841 
L 416.828125 177.793755 
L 417.14517 177.534712 
L 417.462216 177.61511 
L 417.779261 177.548197 
L 418.096307 177.778557 
L 418.413352 177.545677 
L 418.730398 177.855182 
L 419.047443 177.636581 
L 419.364489 177.696012 
L 419.681534 177.174064 
L 419.99858 177.704685 
L 420.315625 177.760027 
L 420.63267 177.226968 
L 421.266761 177.536344 
L 421.900852 177.571081 
L 422.217898 177.639889 
L 422.534943 177.566215 
L 422.851989 177.108226 
L 423.169034 177.259375 
L 423.48608 177.267482 
L 423.803125 177.559062 
L 424.12017 177.52698 
L 424.437216 177.324201 
L 425.071307 177.3596 
L 426.022443 177.391282 
L 426.339489 177.669879 
L 426.656534 177.393594 
L 426.97358 177.417006 
L 427.290625 177.634143 
L 427.60767 177.420856 
L 428.241761 177.795727 
L 428.558807 177.478947 
L 428.875852 177.79415 
L 429.192898 177.415404 
L 429.509943 177.603085 
L 429.826989 177.194883 
L 430.46108 177.503105 
L 430.778125 177.498209 
L 431.09517 177.725308 
L 431.412216 177.256331 
L 431.729261 177.579251 
L 432.680398 177.829098 
L 433.314489 177.239961 
L 433.631534 177.373218 
L 433.94858 177.19942 
L 434.58267 177.382436 
L 434.899716 177.04825 
L 435.216761 177.5372 
L 436.801989 177.143614 
L 437.119034 177.187188 
L 437.43608 177.487592 
L 437.753125 177.445601 
L 438.07017 177.517355 
L 438.704261 177.051098 
L 439.021307 177.264154 
L 439.338352 177.21569 
L 439.655398 177.617506 
L 439.972443 177.284331 
L 440.606534 177.568931 
L 441.240625 177.4427 
L 441.55767 177.565758 
L 441.874716 177.27728 
L 442.191761 177.314649 
L 442.508807 177.464521 
L 443.459943 177.313854 
L 443.776989 177.39347 
L 444.094034 177.308063 
L 444.41108 177.620741 
L 444.728125 177.496708 
L 445.04517 177.524718 
L 445.362216 177.423802 
L 445.996307 177.515055 
L 446.313352 177.21551 
L 446.630398 177.41034 
L 446.947443 177.216722 
L 447.581534 177.224484 
L 447.89858 177.536705 
L 448.215625 177.447248 
L 448.849716 177.447939 
L 449.483807 177.199634 
L 449.800852 177.384945 
L 450.117898 177.292905 
L 450.434943 177.413947 
L 450.751989 177.333702 
L 451.38608 177.562299 
L 451.703125 177.384449 
L 452.02017 177.542955 
L 452.337216 177.431033 
L 453.605398 177.627174 
L 453.922443 177.363271 
L 454.239489 177.372632 
L 454.556534 177.205327 
L 454.87358 177.38526 
L 455.190625 177.076211 
L 455.824716 177.444314 
L 456.141761 177.242951 
L 456.458807 177.368122 
L 456.775852 177.080414 
L 457.092898 177.347099 
L 457.726989 177.026433 
L 458.044034 177.1768 
L 458.678125 177.028097 
L 458.99517 177.100126 
L 459.312216 176.972115 
L 459.629261 177.068654 
L 459.946307 177.494952 
L 460.263352 177.185032 
L 460.897443 177.385306 
L 461.214489 177.107246 
L 461.531534 177.406274 
L 461.84858 177.221372 
L 462.48267 177.105469 
L 462.799716 177.211271 
L 463.116761 177.109471 
L 463.433807 177.313174 
L 463.750852 176.91902 
L 464.067898 177.240559 
L 464.701989 177.207394 
L 465.019034 177.375151 
L 465.33608 177.170007 
L 465.97017 177.225124 
L 466.287216 177.471201 
L 466.604261 177.145233 
L 468.82358 177.050052 
L 469.140625 177.525836 
L 469.45767 177.563772 
L 469.774716 176.77707 
L 470.091761 176.928335 
L 470.725852 177.011568 
L 471.042898 176.757037 
L 471.359943 176.67573 
L 471.994034 176.974521 
L 472.31108 176.730409 
L 472.628125 176.669991 
L 472.94517 176.937863 
L 473.262216 176.909039 
L 473.579261 176.561085 
L 473.896307 176.808391 
L 474.213352 176.852271 
L 474.530398 177.077189 
L 474.847443 176.76503 
L 475.79858 176.91867 
L 476.115625 176.801559 
L 476.749716 176.914031 
L 477.066761 177.053432 
L 477.383807 177.036548 
L 477.700852 176.672695 
L 478.334943 177.09383 
L 478.651989 177.426862 
L 478.969034 177.204336 
L 479.28608 176.790725 
L 479.603125 176.658547 
L 479.92017 176.8656 
L 480.237216 176.747908 
L 480.554261 176.796739 
L 480.871307 177.162728 
L 481.188352 176.704809 
L 481.822443 176.827744 
L 482.139489 176.720319 
L 482.77358 176.943031 
L 483.090625 176.754891 
L 483.40767 176.98803 
L 483.724716 176.82597 
L 484.041761 176.938219 
L 484.358807 177.172628 
L 485.309943 176.919058 
L 485.626989 177.09385 
L 485.944034 176.848367 
L 486.26108 176.937287 
L 486.578125 176.841954 
L 486.89517 177.060215 
L 488.163352 177.360961 
L 488.480398 177.000992 
L 488.797443 177.068446 
L 489.114489 176.961793 
L 490.065625 177.234087 
L 490.38267 177.019088 
L 491.016761 176.947948 
L 491.650852 176.827865 
L 491.967898 176.868111 
L 492.601989 177.343572 
L 492.919034 176.639358 
L 493.23608 176.952866 
L 493.553125 176.885712 
L 493.87017 177.198339 
L 494.504261 177.086263 
L 495.772443 177.078116 
L 496.089489 176.935333 
L 496.406534 177.421 
L 497.040625 176.864784 
L 497.35767 177.185512 
L 497.674716 177.292385 
L 498.308807 177.291676 
L 498.942898 177.48032 
L 499.259943 177.014991 
L 499.576989 177.421508 
L 499.894034 176.837506 
L 500.528125 176.948537 
L 500.84517 177.083945 
L 501.162216 177.063255 
L 501.796307 176.688769 
L 502.113352 176.87413 
L 502.747443 176.824708 
L 503.064489 177.080654 
L 503.381534 176.883058 
L 503.69858 177.150074 
L 504.015625 176.822227 
L 504.33267 177.220801 
L 504.966761 176.885472 
L 505.283807 176.948225 
L 505.917898 176.838725 
L 507.18608 177.030155 
L 507.503125 177.113192 
L 508.771307 176.941307 
L 509.088352 177.216422 
L 509.405398 177.0715 
L 509.722443 176.749692 
L 510.990625 176.855799 
L 511.30767 177.302895 
L 511.624716 176.702194 
L 512.258807 176.879696 
L 512.892898 177.262478 
L 513.209943 176.891439 
L 513.526989 177.086103 
L 513.844034 176.939443 
L 514.16108 177.08215 
L 514.478125 176.91568 
L 514.79517 177.140695 
L 515.112216 176.564308 
L 515.429261 176.748101 
L 515.746307 176.632991 
L 516.380398 177.228868 
L 516.697443 176.968957 
L 517.331534 177.000699 
L 517.64858 177.046369 
L 517.965625 176.915792 
L 518.916761 177.028881 
L 519.233807 176.815194 
L 519.867898 177.193528 
L 520.819034 177.066771 
L 521.13608 176.776171 
L 521.453125 177.009432 
L 522.404261 176.754545 
L 522.721307 176.834474 
L 523.038352 176.553647 
L 523.355398 176.598635 
L 523.989489 177.233792 
L 524.306534 177.087655 
L 524.62358 176.686539 
L 524.940625 176.834051 
L 525.25767 176.625862 
L 525.574716 176.904345 
L 526.842898 176.846643 
L 527.159943 176.918835 
L 527.476989 176.798165 
L 527.794034 177.016373 
L 528.11108 176.801931 
L 528.428125 176.802418 
L 528.74517 177.06533 
L 529.062216 176.845681 
L 529.696307 177.282223 
L 530.013352 177.389364 
L 530.330398 176.890125 
L 530.964489 176.64128 
L 531.281534 176.832643 
L 531.59858 176.721689 
L 531.915625 177.003486 
L 532.23267 176.964232 
L 532.549716 176.348124 
L 532.866761 176.464538 
L 533.183807 176.862491 
L 533.500852 177.009542 
L 533.817898 176.900509 
L 534.134943 177.085592 
L 534.451989 176.882199 
L 534.769034 176.952801 
L 535.403125 176.884267 
L 535.72017 176.61444 
L 536.671307 177.117157 
L 537.305398 176.311826 
L 537.939489 176.567716 
L 538.256534 176.409771 
L 538.57358 176.425195 
L 538.890625 176.705677 
L 539.20767 176.38355 
L 539.524716 176.461522 
L 539.841761 176.353858 
L 540.158807 176.847341 
L 540.475852 176.674799 
L 541.109943 176.709777 
L 541.426989 176.535212 
L 541.744034 176.666492 
L 542.06108 176.617644 
L 542.378125 176.806423 
L 542.69517 176.691997 
L 543.012216 176.78729 
L 543.329261 176.601672 
L 543.646307 176.617892 
L 543.963352 176.421578 
L 544.280398 176.646928 
L 544.597443 176.509849 
L 544.914489 176.540546 
L 545.231534 176.748245 
L 545.54858 176.409655 
L 546.816761 176.671167 
L 547.133807 176.257026 
L 547.450852 176.622751 
L 547.767898 176.509147 
L 548.401989 176.78122 
L 548.719034 176.550826 
L 549.03608 176.768006 
L 549.353125 176.527554 
L 549.67017 176.716134 
L 549.987216 176.537919 
L 550.304261 176.826295 
L 550.621307 176.697354 
L 550.938352 176.723795 
L 551.255398 176.905307 
L 551.572443 176.580067 
L 551.889489 176.968965 
L 552.206534 176.963992 
L 553.15767 176.447719 
L 553.474716 176.91135 
L 554.108807 176.756639 
L 554.742898 176.761863 
L 555.376989 176.006868 
L 556.962216 176.770917 
L 557.279261 176.614227 
L 557.596307 176.312562 
L 558.230398 177.040576 
L 558.864489 176.38258 
L 559.49858 176.734414 
L 560.13267 176.713965 
L 560.449716 176.83896 
L 560.766761 176.527204 
L 561.083807 176.967047 
L 561.717898 176.916944 
L 562.034943 176.64275 
L 562.669034 176.79026 
L 563.62017 176.735619 
L 563.937216 176.893738 
L 564.254261 176.885846 
L 564.571307 176.603605 
L 564.888352 177.128598 
L 565.205398 176.585898 
L 565.522443 176.673675 
L 566.156534 176.610445 
L 566.47358 176.342576 
L 566.790625 176.415824 
L 567.10767 176.636933 
L 567.424716 176.340258 
L 567.741761 176.518017 
L 568.375852 176.594589 
L 568.692898 176.850843 
L 569.326989 176.578251 
L 569.644034 176.715695 
L 570.278125 176.601723 
L 570.59517 176.91697 
L 570.912216 176.716238 
L 571.229261 176.655579 
L 571.546307 176.919993 
L 571.863352 176.610525 
L 573.131534 176.988822 
L 573.44858 176.840042 
L 573.765625 176.490836 
L 574.08267 176.542949 
L 574.399716 176.479016 
L 574.716761 176.676515 
L 575.033807 176.434875 
L 575.984943 176.635202 
L 576.301989 176.422845 
L 576.619034 176.695154 
L 577.57017 176.524661 
L 577.887216 176.725904 
L 578.204261 176.648795 
L 578.521307 176.758361 
L 578.838352 176.658182 
L 579.472443 176.832937 
L 580.106534 176.535208 
L 580.42358 176.672264 
L 581.05767 176.393898 
L 581.374716 176.631772 
L 581.691761 176.693014 
L 582.325852 176.476422 
L 582.642898 176.699574 
L 582.959943 176.346537 
L 583.276989 176.598905 
L 583.594034 176.490328 
L 583.91108 176.642498 
L 584.228125 176.612602 
L 584.54517 176.466617 
L 585.179261 176.518245 
L 585.496307 176.467739 
L 585.813352 176.610102 
L 586.447443 176.356529 
L 586.764489 176.628227 
L 587.081534 176.433142 
L 587.39858 176.416927 
L 587.715625 176.708532 
L 588.349716 176.57261 
L 588.666761 176.773502 
L 588.983807 176.595481 
L 589.300852 176.545123 
L 589.617898 176.710602 
L 589.934943 176.562824 
L 590.88608 176.748896 
L 591.203125 176.856836 
L 591.52017 176.791274 
L 591.837216 176.498647 
L 592.154261 176.47585 
L 592.471307 176.786986 
L 592.788352 176.687765 
L 593.739489 176.983925 
L 594.056534 176.588689 
L 594.37358 176.695612 
L 594.690625 176.533439 
L 595.324716 176.640399 
L 595.641761 176.528234 
L 595.958807 176.657909 
L 596.275852 176.559142 
L 596.592898 176.774683 
L 596.909943 176.419238 
L 597.226989 176.885895 
L 597.544034 176.592221 
L 597.86108 176.535616 
L 598.178125 176.741534 
L 598.49517 176.401837 
L 598.812216 176.655534 
L 599.129261 176.621592 
L 599.446307 176.850346 
L 599.763352 176.593433 
L 600.080398 176.711597 
L 600.397443 176.525169 
L 601.34858 176.521094 
L 601.665625 176.889011 
L 601.98267 176.573284 
L 602.299716 176.783856 
L 603.250852 176.623893 
L 603.567898 176.906114 
L 604.201989 176.504512 
L 604.519034 176.771689 
L 604.83608 176.538174 
L 605.153125 176.799008 
L 605.47017 176.915047 
L 606.421307 176.65899 
L 606.738352 176.64411 
L 607.055398 176.879279 
L 607.372443 176.755984 
L 607.689489 176.829179 
L 608.32358 176.563108 
L 608.640625 176.756788 
L 609.274716 176.699406 
L 609.908807 176.37622 
L 610.225852 176.653129 
L 610.542898 176.678497 
L 611.176989 176.265359 
L 611.494034 176.478434 
L 611.81108 176.335222 
L 612.128125 176.476653 
L 612.762216 176.394994 
L 613.396307 176.949887 
L 614.030398 176.704053 
L 614.981534 176.485273 
L 615.29858 176.235151 
L 615.615625 176.482404 
L 616.249716 176.314351 
L 616.566761 176.416467 
L 616.883807 176.24924 
L 617.200852 176.617368 
L 617.517898 176.667894 
L 617.834943 176.370362 
L 618.151989 176.611499 
L 618.469034 176.328617 
L 618.78608 176.43102 
L 619.103125 176.233364 
L 619.737216 176.526456 
L 620.054261 176.30062 
L 620.371307 176.321676 
L 620.688352 176.672282 
L 621.005398 176.397633 
L 621.639489 176.58529 
L 621.956534 176.424142 
L 622.27358 176.415562 
L 622.90767 176.75157 
L 623.541761 176.434844 
L 624.809943 176.407567 
L 625.126989 176.578969 
L 625.126989 176.578969 
" clip-path="url(#pc7fccebf0d)" style="fill: none; stroke: #ff7f0e; stroke-width: 1.5; stroke-linecap: square"/>
   </g>
   <g id="patch_3">
    <path d="M 92.490625 308.63625 
L 92.490625 31.43625 
" style="fill: none; stroke: #000000; stroke-width: 0.8; stroke-linejoin: miter; stroke-linecap: square"/>
   </g>
   <g id="patch_4">
    <path d="M 650.490625 308.63625 
L 650.490625 31.43625 
" style="fill: none; stroke: #000000; stroke-width: 0.8; stroke-linejoin: miter; stroke-linecap: square"/>
   </g>
   <g id="patch_5">
    <path d="M 92.490625 308.63625 
L 650.490625 308.63625 
" style="fill: none; stroke: #000000; stroke-width: 0.8; stroke-linejoin: miter; stroke-linecap: square"/>
   </g>
   <g id="patch_6">
    <path d="M 92.490625 31.43625 
L 650.490625 31.43625 
" style="fill: none; stroke: #000000; stroke-width: 0.8; stroke-linejoin: miter; stroke-linecap: square"/>
   </g>
   <g id="text_17">
    <!-- Generator and Discriminator Loss During Training -->
    <g transform="translate(74.258125 25.43625) scale(0.24 -0.24)">
     <defs>
      <path id="DejaVuSans-47" d="M 3809 666 
L 3809 1919 
L 2778 1919 
L 2778 2438 
L 4434 2438 
L 4434 434 
Q 4069 175 3628 42 
Q 3188 -91 2688 -91 
Q 1594 -91 976 548 
Q 359 1188 359 2328 
Q 359 3472 976 4111 
Q 1594 4750 2688 4750 
Q 3144 4750 3555 4637 
Q 3966 4525 4313 4306 
L 4313 3634 
Q 3963 3931 3569 4081 
Q 3175 4231 2741 4231 
Q 1884 4231 1454 3753 
Q 1025 3275 1025 2328 
Q 1025 1384 1454 906 
Q 1884 428 2741 428 
Q 3075 428 3337 486 
Q 3600 544 3809 666 
z
" transform="scale(0.015625)"/>
      <path id="DejaVuSans-20" transform="scale(0.015625)"/>
      <path id="DejaVuSans-64" d="M 2906 2969 
L 2906 4863 
L 3481 4863 
L 3481 0 
L 2906 0 
L 2906 525 
Q 2725 213 2448 61 
Q 2172 -91 1784 -91 
Q 1150 -91 751 415 
Q 353 922 353 1747 
Q 353 2572 751 3078 
Q 1150 3584 1784 3584 
Q 2172 3584 2448 3432 
Q 2725 3281 2906 2969 
z
M 947 1747 
Q 947 1113 1208 752 
Q 1469 391 1925 391 
Q 2381 391 2643 752 
Q 2906 1113 2906 1747 
Q 2906 2381 2643 2742 
Q 2381 3103 1925 3103 
Q 1469 3103 1208 2742 
Q 947 2381 947 1747 
z
" transform="scale(0.015625)"/>
      <path id="DejaVuSans-44" d="M 1259 4147 
L 1259 519 
L 2022 519 
Q 2988 519 3436 956 
Q 3884 1394 3884 2338 
Q 3884 3275 3436 3711 
Q 2988 4147 2022 4147 
L 1259 4147 
z
M 628 4666 
L 1925 4666 
Q 3281 4666 3915 4102 
Q 4550 3538 4550 2338 
Q 4550 1131 3912 565 
Q 3275 0 1925 0 
L 628 0 
L 628 4666 
z
" transform="scale(0.015625)"/>
      <path id="DejaVuSans-63" d="M 3122 3366 
L 3122 2828 
Q 2878 2963 2633 3030 
Q 2388 3097 2138 3097 
Q 1578 3097 1268 2742 
Q 959 2388 959 1747 
Q 959 1106 1268 751 
Q 1578 397 2138 397 
Q 2388 397 2633 464 
Q 2878 531 3122 666 
L 3122 134 
Q 2881 22 2623 -34 
Q 2366 -91 2075 -91 
Q 1284 -91 818 406 
Q 353 903 353 1747 
Q 353 2603 823 3093 
Q 1294 3584 2113 3584 
Q 2378 3584 2631 3529 
Q 2884 3475 3122 3366 
z
" transform="scale(0.015625)"/>
      <path id="DejaVuSans-6d" d="M 3328 2828 
Q 3544 3216 3844 3400 
Q 4144 3584 4550 3584 
Q 5097 3584 5394 3201 
Q 5691 2819 5691 2113 
L 5691 0 
L 5113 0 
L 5113 2094 
Q 5113 2597 4934 2840 
Q 4756 3084 4391 3084 
Q 3944 3084 3684 2787 
Q 3425 2491 3425 1978 
L 3425 0 
L 2847 0 
L 2847 2094 
Q 2847 2600 2669 2842 
Q 2491 3084 2119 3084 
Q 1678 3084 1418 2786 
Q 1159 2488 1159 1978 
L 1159 0 
L 581 0 
L 581 3500 
L 1159 3500 
L 1159 2956 
Q 1356 3278 1631 3431 
Q 1906 3584 2284 3584 
Q 2666 3584 2933 3390 
Q 3200 3197 3328 2828 
z
" transform="scale(0.015625)"/>
      <path id="DejaVuSans-75" d="M 544 1381 
L 544 3500 
L 1119 3500 
L 1119 1403 
Q 1119 906 1312 657 
Q 1506 409 1894 409 
Q 2359 409 2629 706 
Q 2900 1003 2900 1516 
L 2900 3500 
L 3475 3500 
L 3475 0 
L 2900 0 
L 2900 538 
Q 2691 219 2414 64 
Q 2138 -91 1772 -91 
Q 1169 -91 856 284 
Q 544 659 544 1381 
z
M 1991 3584 
L 1991 3584 
z
" transform="scale(0.015625)"/>
      <path id="DejaVuSans-67" d="M 2906 1791 
Q 2906 2416 2648 2759 
Q 2391 3103 1925 3103 
Q 1463 3103 1205 2759 
Q 947 2416 947 1791 
Q 947 1169 1205 825 
Q 1463 481 1925 481 
Q 2391 481 2648 825 
Q 2906 1169 2906 1791 
z
M 3481 434 
Q 3481 -459 3084 -895 
Q 2688 -1331 1869 -1331 
Q 1566 -1331 1297 -1286 
Q 1028 -1241 775 -1147 
L 775 -588 
Q 1028 -725 1275 -790 
Q 1522 -856 1778 -856 
Q 2344 -856 2625 -561 
Q 2906 -266 2906 331 
L 2906 616 
Q 2728 306 2450 153 
Q 2172 0 1784 0 
Q 1141 0 747 490 
Q 353 981 353 1791 
Q 353 2603 747 3093 
Q 1141 3584 1784 3584 
Q 2172 3584 2450 3431 
Q 2728 3278 2906 2969 
L 2906 3500 
L 3481 3500 
L 3481 434 
z
" transform="scale(0.015625)"/>
      <path id="DejaVuSans-54" d="M -19 4666 
L 3928 4666 
L 3928 4134 
L 2272 4134 
L 2272 0 
L 1638 0 
L 1638 4134 
L -19 4134 
L -19 4666 
z
" transform="scale(0.015625)"/>
     </defs>
     <use xlink:href="#DejaVuSans-47"/>
     <use xlink:href="#DejaVuSans-65" x="77.490234"/>
     <use xlink:href="#DejaVuSans-6e" x="139.013672"/>
     <use xlink:href="#DejaVuSans-65" x="202.392578"/>
     <use xlink:href="#DejaVuSans-72" x="263.916016"/>
     <use xlink:href="#DejaVuSans-61" x="305.029297"/>
     <use xlink:href="#DejaVuSans-74" x="366.308594"/>
     <use xlink:href="#DejaVuSans-6f" x="405.517578"/>
     <use xlink:href="#DejaVuSans-72" x="466.699219"/>
     <use xlink:href="#DejaVuSans-20" x="507.8125"/>
     <use xlink:href="#DejaVuSans-61" x="539.599609"/>
     <use xlink:href="#DejaVuSans-6e" x="600.878906"/>
     <use xlink:href="#DejaVuSans-64" x="664.257812"/>
     <use xlink:href="#DejaVuSans-20" x="727.734375"/>
     <use xlink:href="#DejaVuSans-44" x="759.521484"/>
     <use xlink:href="#DejaVuSans-69" x="836.523438"/>
     <use xlink:href="#DejaVuSans-73" x="864.306641"/>
     <use xlink:href="#DejaVuSans-63" x="916.40625"/>
     <use xlink:href="#DejaVuSans-72" x="971.386719"/>
     <use xlink:href="#DejaVuSans-69" x="1012.5"/>
     <use xlink:href="#DejaVuSans-6d" x="1040.283203"/>
     <use xlink:href="#DejaVuSans-69" x="1137.695312"/>
     <use xlink:href="#DejaVuSans-6e" x="1165.478516"/>
     <use xlink:href="#DejaVuSans-61" x="1228.857422"/>
     <use xlink:href="#DejaVuSans-74" x="1290.136719"/>
     <use xlink:href="#DejaVuSans-6f" x="1329.345703"/>
     <use xlink:href="#DejaVuSans-72" x="1390.527344"/>
     <use xlink:href="#DejaVuSans-20" x="1431.640625"/>
     <use xlink:href="#DejaVuSans-4c" x="1463.427734"/>
     <use xlink:href="#DejaVuSans-6f" x="1517.390625"/>
     <use xlink:href="#DejaVuSans-73" x="1578.572266"/>
     <use xlink:href="#DejaVuSans-73" x="1630.671875"/>
     <use xlink:href="#DejaVuSans-20" x="1682.771484"/>
     <use xlink:href="#DejaVuSans-44" x="1714.558594"/>
     <use xlink:href="#DejaVuSans-75" x="1791.560547"/>
     <use xlink:href="#DejaVuSans-72" x="1854.939453"/>
     <use xlink:href="#DejaVuSans-69" x="1896.052734"/>
     <use xlink:href="#DejaVuSans-6e" x="1923.835938"/>
     <use xlink:href="#DejaVuSans-67" x="1987.214844"/>
     <use xlink:href="#DejaVuSans-20" x="2050.691406"/>
     <use xlink:href="#DejaVuSans-54" x="2082.478516"/>
     <use xlink:href="#DejaVuSans-72" x="2128.8125"/>
     <use xlink:href="#DejaVuSans-61" x="2169.925781"/>
     <use xlink:href="#DejaVuSans-69" x="2231.205078"/>
     <use xlink:href="#DejaVuSans-6e" x="2258.988281"/>
     <use xlink:href="#DejaVuSans-69" x="2322.367188"/>
     <use xlink:href="#DejaVuSans-6e" x="2350.150391"/>
     <use xlink:href="#DejaVuSans-67" x="2413.529297"/>
    </g>
   </g>
   <g id="legend_1">
    <g id="patch_7">
     <path d="M 556.99375 106.14875 
L 636.490625 106.14875 
Q 640.490625 106.14875 640.490625 102.14875 
L 640.490625 45.43625 
Q 640.490625 41.43625 636.490625 41.43625 
L 556.99375 41.43625 
Q 552.99375 41.43625 552.99375 45.43625 
L 552.99375 102.14875 
Q 552.99375 106.14875 556.99375 106.14875 
z
" style="fill: #ffffff; opacity: 0.8; stroke: #cccccc; stroke-linejoin: miter"/>
    </g>
    <g id="line2d_17">
     <path d="M 560.99375 57.633125 
L 580.99375 57.633125 
L 600.99375 57.633125 
" style="fill: none; stroke: #1f77b4; stroke-width: 1.5; stroke-linecap: square"/>
    </g>
    <g id="text_18">
     <!-- G -->
     <g transform="translate(616.99375 64.633125) scale(0.2 -0.2)">
      <use xlink:href="#DejaVuSans-47"/>
     </g>
    </g>
    <g id="line2d_18">
     <path d="M 560.99375 86.989375 
L 580.99375 86.989375 
L 600.99375 86.989375 
" style="fill: none; stroke: #ff7f0e; stroke-width: 1.5; stroke-linecap: square"/>
    </g>
    <g id="text_19">
     <!-- D -->
     <g transform="translate(616.99375 93.989375) scale(0.2 -0.2)">
      <use xlink:href="#DejaVuSans-44"/>
     </g>
    </g>
   </g>
  </g>
 </g>
 <defs>
  <clipPath id="pc7fccebf0d">
   <rect x="92.490625" y="31.43625" width="558" height="277.2"/>
  </clipPath>
 </defs>
</svg>
