<?xml version="1.0" encoding="utf-8" standalone="no"?>
<!DOCTYPE svg PUBLIC "-//W3C//DTD SVG 1.1//EN"
  "http://www.w3.org/Graphics/SVG/1.1/DTD/svg11.dtd">
<svg xmlns:xlink="http://www.w3.org/1999/xlink" width="675.923125pt" height="365.54875pt" viewBox="0 0 675.923125 365.54875" xmlns="http://www.w3.org/2000/svg" version="1.1">
 <metadata>
  <rdf:RDF xmlns:dc="http://purl.org/dc/elements/1.1/" xmlns:cc="http://creativecommons.org/ns#" xmlns:rdf="http://www.w3.org/1999/02/22-rdf-syntax-ns#">
   <cc:Work>
    <dc:type rdf:resource="http://purl.org/dc/dcmitype/StillImage"/>
    <dc:date>2024-02-01T17:53:31.703223</dc:date>
    <dc:format>image/svg+xml</dc:format>
    <dc:creator>
     <cc:Agent>
      <dc:title>Matplotlib v3.7.2, https://matplotlib.org/</dc:title>
     </cc:Agent>
    </dc:creator>
   </cc:Work>
  </rdf:RDF>
 </metadata>
 <defs>
  <style type="text/css">*{stroke-linejoin: round; stroke-linecap: butt}</style>
 </defs>
 <g id="figure_1">
  <g id="patch_1">
   <path d="M 0 365.54875 
L 675.923125 365.54875 
L 675.923125 -0 
L 0 -0 
z
" style="fill: #ffffff"/>
  </g>
  <g id="axes_1">
   <g id="patch_2">
    <path d="M 92.490625 308.63625 
L 650.490625 308.63625 
L 650.490625 31.43625 
L 92.490625 31.43625 
z
" style="fill: #ffffff"/>
   </g>
   <g id="matplotlib.axis_1">
    <g id="xtick_1">
     <g id="line2d_1">
      <defs>
       <path id="mbbc2bc577b" d="M 0 0 
L 0 3.5 
" style="stroke: #000000; stroke-width: 0.8"/>
      </defs>
      <g>
       <use xlink:href="#mbbc2bc577b" x="117.854261" y="308.63625" style="stroke: #000000; stroke-width: 0.8"/>
      </g>
     </g>
     <g id="text_1">
      <!-- 0 -->
      <g transform="translate(111.491761 330.833125) scale(0.2 -0.2)">
       <defs>
        <path id="DejaVuSans-30" d="M 2034 4250 
Q 1547 4250 1301 3770 
Q 1056 3291 1056 2328 
Q 1056 1369 1301 889 
Q 1547 409 2034 409 
Q 2525 409 2770 889 
Q 3016 1369 3016 2328 
Q 3016 3291 2770 3770 
Q 2525 4250 2034 4250 
z
M 2034 4750 
Q 2819 4750 3233 4129 
Q 3647 3509 3647 2328 
Q 3647 1150 3233 529 
Q 2819 -91 2034 -91 
Q 1250 -91 836 529 
Q 422 1150 422 2328 
Q 422 3509 836 4129 
Q 1250 4750 2034 4750 
z
" transform="scale(0.015625)"/>
       </defs>
       <use xlink:href="#DejaVuSans-30"/>
      </g>
     </g>
    </g>
    <g id="xtick_2">
     <g id="line2d_2">
      <g>
       <use xlink:href="#mbbc2bc577b" x="237.21255" y="308.63625" style="stroke: #000000; stroke-width: 0.8"/>
      </g>
     </g>
     <g id="text_2">
      <!-- 200 -->
      <g transform="translate(218.12505 330.833125) scale(0.2 -0.2)">
       <defs>
        <path id="DejaVuSans-32" d="M 1228 531 
L 3431 531 
L 3431 0 
L 469 0 
L 469 531 
Q 828 903 1448 1529 
Q 2069 2156 2228 2338 
Q 2531 2678 2651 2914 
Q 2772 3150 2772 3378 
Q 2772 3750 2511 3984 
Q 2250 4219 1831 4219 
Q 1534 4219 1204 4116 
Q 875 4013 500 3803 
L 500 4441 
Q 881 4594 1212 4672 
Q 1544 4750 1819 4750 
Q 2544 4750 2975 4387 
Q 3406 4025 3406 3419 
Q 3406 3131 3298 2873 
Q 3191 2616 2906 2266 
Q 2828 2175 2409 1742 
Q 1991 1309 1228 531 
z
" transform="scale(0.015625)"/>
       </defs>
       <use xlink:href="#DejaVuSans-32"/>
       <use xlink:href="#DejaVuSans-30" x="63.623047"/>
       <use xlink:href="#DejaVuSans-30" x="127.246094"/>
      </g>
     </g>
    </g>
    <g id="xtick_3">
     <g id="line2d_3">
      <g>
       <use xlink:href="#mbbc2bc577b" x="356.570839" y="308.63625" style="stroke: #000000; stroke-width: 0.8"/>
      </g>
     </g>
     <g id="text_3">
      <!-- 400 -->
      <g transform="translate(337.483339 330.833125) scale(0.2 -0.2)">
       <defs>
        <path id="DejaVuSans-34" d="M 2419 4116 
L 825 1625 
L 2419 1625 
L 2419 4116 
z
M 2253 4666 
L 3047 4666 
L 3047 1625 
L 3713 1625 
L 3713 1100 
L 3047 1100 
L 3047 0 
L 2419 0 
L 2419 1100 
L 313 1100 
L 313 1709 
L 2253 4666 
z
" transform="scale(0.015625)"/>
       </defs>
       <use xlink:href="#DejaVuSans-34"/>
       <use xlink:href="#DejaVuSans-30" x="63.623047"/>
       <use xlink:href="#DejaVuSans-30" x="127.246094"/>
      </g>
     </g>
    </g>
    <g id="xtick_4">
     <g id="line2d_4">
      <g>
       <use xlink:href="#mbbc2bc577b" x="475.929128" y="308.63625" style="stroke: #000000; stroke-width: 0.8"/>
      </g>
     </g>
     <g id="text_4">
      <!-- 600 -->
      <g transform="translate(456.841628 330.833125) scale(0.2 -0.2)">
       <defs>
        <path id="DejaVuSans-36" d="M 2113 2584 
Q 1688 2584 1439 2293 
Q 1191 2003 1191 1497 
Q 1191 994 1439 701 
Q 1688 409 2113 409 
Q 2538 409 2786 701 
Q 3034 994 3034 1497 
Q 3034 2003 2786 2293 
Q 2538 2584 2113 2584 
z
M 3366 4563 
L 3366 3988 
Q 3128 4100 2886 4159 
Q 2644 4219 2406 4219 
Q 1781 4219 1451 3797 
Q 1122 3375 1075 2522 
Q 1259 2794 1537 2939 
Q 1816 3084 2150 3084 
Q 2853 3084 3261 2657 
Q 3669 2231 3669 1497 
Q 3669 778 3244 343 
Q 2819 -91 2113 -91 
Q 1303 -91 875 529 
Q 447 1150 447 2328 
Q 447 3434 972 4092 
Q 1497 4750 2381 4750 
Q 2619 4750 2861 4703 
Q 3103 4656 3366 4563 
z
" transform="scale(0.015625)"/>
       </defs>
       <use xlink:href="#DejaVuSans-36"/>
       <use xlink:href="#DejaVuSans-30" x="63.623047"/>
       <use xlink:href="#DejaVuSans-30" x="127.246094"/>
      </g>
     </g>
    </g>
    <g id="xtick_5">
     <g id="line2d_5">
      <g>
       <use xlink:href="#mbbc2bc577b" x="595.287416" y="308.63625" style="stroke: #000000; stroke-width: 0.8"/>
      </g>
     </g>
     <g id="text_5">
      <!-- 800 -->
      <g transform="translate(576.199916 330.833125) scale(0.2 -0.2)">
       <defs>
        <path id="DejaVuSans-38" d="M 2034 2216 
Q 1584 2216 1326 1975 
Q 1069 1734 1069 1313 
Q 1069 891 1326 650 
Q 1584 409 2034 409 
Q 2484 409 2743 651 
Q 3003 894 3003 1313 
Q 3003 1734 2745 1975 
Q 2488 2216 2034 2216 
z
M 1403 2484 
Q 997 2584 770 2862 
Q 544 3141 544 3541 
Q 544 4100 942 4425 
Q 1341 4750 2034 4750 
Q 2731 4750 3128 4425 
Q 3525 4100 3525 3541 
Q 3525 3141 3298 2862 
Q 3072 2584 2669 2484 
Q 3125 2378 3379 2068 
Q 3634 1759 3634 1313 
Q 3634 634 3220 271 
Q 2806 -91 2034 -91 
Q 1263 -91 848 271 
Q 434 634 434 1313 
Q 434 1759 690 2068 
Q 947 2378 1403 2484 
z
M 1172 3481 
Q 1172 3119 1398 2916 
Q 1625 2713 2034 2713 
Q 2441 2713 2670 2916 
Q 2900 3119 2900 3481 
Q 2900 3844 2670 4047 
Q 2441 4250 2034 4250 
Q 1625 4250 1398 4047 
Q 1172 3844 1172 3481 
z
" transform="scale(0.015625)"/>
       </defs>
       <use xlink:href="#DejaVuSans-38"/>
       <use xlink:href="#DejaVuSans-30" x="63.623047"/>
       <use xlink:href="#DejaVuSans-30" x="127.246094"/>
      </g>
     </g>
    </g>
    <g id="text_6">
     <!-- iterations -->
     <g transform="translate(324.035938 354.189375) scale(0.2 -0.2)">
      <defs>
       <path id="DejaVuSans-69" d="M 603 3500 
L 1178 3500 
L 1178 0 
L 603 0 
L 603 3500 
z
M 603 4863 
L 1178 4863 
L 1178 4134 
L 603 4134 
L 603 4863 
z
" transform="scale(0.015625)"/>
       <path id="DejaVuSans-74" d="M 1172 4494 
L 1172 3500 
L 2356 3500 
L 2356 3053 
L 1172 3053 
L 1172 1153 
Q 1172 725 1289 603 
Q 1406 481 1766 481 
L 2356 481 
L 2356 0 
L 1766 0 
Q 1100 0 847 248 
Q 594 497 594 1153 
L 594 3053 
L 172 3053 
L 172 3500 
L 594 3500 
L 594 4494 
L 1172 4494 
z
" transform="scale(0.015625)"/>
       <path id="DejaVuSans-65" d="M 3597 1894 
L 3597 1613 
L 953 1613 
Q 991 1019 1311 708 
Q 1631 397 2203 397 
Q 2534 397 2845 478 
Q 3156 559 3463 722 
L 3463 178 
Q 3153 47 2828 -22 
Q 2503 -91 2169 -91 
Q 1331 -91 842 396 
Q 353 884 353 1716 
Q 353 2575 817 3079 
Q 1281 3584 2069 3584 
Q 2775 3584 3186 3129 
Q 3597 2675 3597 1894 
z
M 3022 2063 
Q 3016 2534 2758 2815 
Q 2500 3097 2075 3097 
Q 1594 3097 1305 2825 
Q 1016 2553 972 2059 
L 3022 2063 
z
" transform="scale(0.015625)"/>
       <path id="DejaVuSans-72" d="M 2631 2963 
Q 2534 3019 2420 3045 
Q 2306 3072 2169 3072 
Q 1681 3072 1420 2755 
Q 1159 2438 1159 1844 
L 1159 0 
L 581 0 
L 581 3500 
L 1159 3500 
L 1159 2956 
Q 1341 3275 1631 3429 
Q 1922 3584 2338 3584 
Q 2397 3584 2469 3576 
Q 2541 3569 2628 3553 
L 2631 2963 
z
" transform="scale(0.015625)"/>
       <path id="DejaVuSans-61" d="M 2194 1759 
Q 1497 1759 1228 1600 
Q 959 1441 959 1056 
Q 959 750 1161 570 
Q 1363 391 1709 391 
Q 2188 391 2477 730 
Q 2766 1069 2766 1631 
L 2766 1759 
L 2194 1759 
z
M 3341 1997 
L 3341 0 
L 2766 0 
L 2766 531 
Q 2569 213 2275 61 
Q 1981 -91 1556 -91 
Q 1019 -91 701 211 
Q 384 513 384 1019 
Q 384 1609 779 1909 
Q 1175 2209 1959 2209 
L 2766 2209 
L 2766 2266 
Q 2766 2663 2505 2880 
Q 2244 3097 1772 3097 
Q 1472 3097 1187 3025 
Q 903 2953 641 2809 
L 641 3341 
Q 956 3463 1253 3523 
Q 1550 3584 1831 3584 
Q 2591 3584 2966 3190 
Q 3341 2797 3341 1997 
z
" transform="scale(0.015625)"/>
       <path id="DejaVuSans-6f" d="M 1959 3097 
Q 1497 3097 1228 2736 
Q 959 2375 959 1747 
Q 959 1119 1226 758 
Q 1494 397 1959 397 
Q 2419 397 2687 759 
Q 2956 1122 2956 1747 
Q 2956 2369 2687 2733 
Q 2419 3097 1959 3097 
z
M 1959 3584 
Q 2709 3584 3137 3096 
Q 3566 2609 3566 1747 
Q 3566 888 3137 398 
Q 2709 -91 1959 -91 
Q 1206 -91 779 398 
Q 353 888 353 1747 
Q 353 2609 779 3096 
Q 1206 3584 1959 3584 
z
" transform="scale(0.015625)"/>
       <path id="DejaVuSans-6e" d="M 3513 2113 
L 3513 0 
L 2938 0 
L 2938 2094 
Q 2938 2591 2744 2837 
Q 2550 3084 2163 3084 
Q 1697 3084 1428 2787 
Q 1159 2491 1159 1978 
L 1159 0 
L 581 0 
L 581 3500 
L 1159 3500 
L 1159 2956 
Q 1366 3272 1645 3428 
Q 1925 3584 2291 3584 
Q 2894 3584 3203 3211 
Q 3513 2838 3513 2113 
z
" transform="scale(0.015625)"/>
       <path id="DejaVuSans-73" d="M 2834 3397 
L 2834 2853 
Q 2591 2978 2328 3040 
Q 2066 3103 1784 3103 
Q 1356 3103 1142 2972 
Q 928 2841 928 2578 
Q 928 2378 1081 2264 
Q 1234 2150 1697 2047 
L 1894 2003 
Q 2506 1872 2764 1633 
Q 3022 1394 3022 966 
Q 3022 478 2636 193 
Q 2250 -91 1575 -91 
Q 1294 -91 989 -36 
Q 684 19 347 128 
L 347 722 
Q 666 556 975 473 
Q 1284 391 1588 391 
Q 1994 391 2212 530 
Q 2431 669 2431 922 
Q 2431 1156 2273 1281 
Q 2116 1406 1581 1522 
L 1381 1569 
Q 847 1681 609 1914 
Q 372 2147 372 2553 
Q 372 3047 722 3315 
Q 1072 3584 1716 3584 
Q 2034 3584 2315 3537 
Q 2597 3491 2834 3397 
z
" transform="scale(0.015625)"/>
      </defs>
      <use xlink:href="#DejaVuSans-69"/>
      <use xlink:href="#DejaVuSans-74" x="27.783203"/>
      <use xlink:href="#DejaVuSans-65" x="66.992188"/>
      <use xlink:href="#DejaVuSans-72" x="128.515625"/>
      <use xlink:href="#DejaVuSans-61" x="169.628906"/>
      <use xlink:href="#DejaVuSans-74" x="230.908203"/>
      <use xlink:href="#DejaVuSans-69" x="270.117188"/>
      <use xlink:href="#DejaVuSans-6f" x="297.900391"/>
      <use xlink:href="#DejaVuSans-6e" x="359.082031"/>
      <use xlink:href="#DejaVuSans-73" x="422.460938"/>
     </g>
    </g>
   </g>
   <g id="matplotlib.axis_2">
    <g id="ytick_1">
     <g id="line2d_6">
      <defs>
       <path id="m723370c60b" d="M 0 0 
L -3.5 0 
" style="stroke: #000000; stroke-width: 0.8"/>
      </defs>
      <g>
       <use xlink:href="#m723370c60b" x="92.490625" y="278.050314" style="stroke: #000000; stroke-width: 0.8"/>
      </g>
     </g>
     <g id="text_7">
      <!-- −200 -->
      <g transform="translate(30.55625 285.648751) scale(0.2 -0.2)">
       <defs>
        <path id="DejaVuSans-2212" d="M 678 2272 
L 4684 2272 
L 4684 1741 
L 678 1741 
L 678 2272 
z
" transform="scale(0.015625)"/>
       </defs>
       <use xlink:href="#DejaVuSans-2212"/>
       <use xlink:href="#DejaVuSans-32" x="83.789062"/>
       <use xlink:href="#DejaVuSans-30" x="147.412109"/>
       <use xlink:href="#DejaVuSans-30" x="211.035156"/>
      </g>
     </g>
    </g>
    <g id="ytick_2">
     <g id="line2d_7">
      <g>
       <use xlink:href="#m723370c60b" x="92.490625" y="225.895764" style="stroke: #000000; stroke-width: 0.8"/>
      </g>
     </g>
     <g id="text_8">
      <!-- −100 -->
      <g transform="translate(30.55625 233.494202) scale(0.2 -0.2)">
       <defs>
        <path id="DejaVuSans-31" d="M 794 531 
L 1825 531 
L 1825 4091 
L 703 3866 
L 703 4441 
L 1819 4666 
L 2450 4666 
L 2450 531 
L 3481 531 
L 3481 0 
L 794 0 
L 794 531 
z
" transform="scale(0.015625)"/>
       </defs>
       <use xlink:href="#DejaVuSans-2212"/>
       <use xlink:href="#DejaVuSans-31" x="83.789062"/>
       <use xlink:href="#DejaVuSans-30" x="147.412109"/>
       <use xlink:href="#DejaVuSans-30" x="211.035156"/>
      </g>
     </g>
    </g>
    <g id="ytick_3">
     <g id="line2d_8">
      <g>
       <use xlink:href="#m723370c60b" x="92.490625" y="173.741215" style="stroke: #000000; stroke-width: 0.8"/>
      </g>
     </g>
     <g id="text_9">
      <!-- 0 -->
      <g transform="translate(72.765625 181.339652) scale(0.2 -0.2)">
       <use xlink:href="#DejaVuSans-30"/>
      </g>
     </g>
    </g>
    <g id="ytick_4">
     <g id="line2d_9">
      <g>
       <use xlink:href="#m723370c60b" x="92.490625" y="121.586665" style="stroke: #000000; stroke-width: 0.8"/>
      </g>
     </g>
     <g id="text_10">
      <!-- 100 -->
      <g transform="translate(47.315625 129.185102) scale(0.2 -0.2)">
       <use xlink:href="#DejaVuSans-31"/>
       <use xlink:href="#DejaVuSans-30" x="63.623047"/>
       <use xlink:href="#DejaVuSans-30" x="127.246094"/>
      </g>
     </g>
    </g>
    <g id="ytick_5">
     <g id="line2d_10">
      <g>
       <use xlink:href="#m723370c60b" x="92.490625" y="69.432115" style="stroke: #000000; stroke-width: 0.8"/>
      </g>
     </g>
     <g id="text_11">
      <!-- 200 -->
      <g transform="translate(47.315625 77.030553) scale(0.2 -0.2)">
       <use xlink:href="#DejaVuSans-32"/>
       <use xlink:href="#DejaVuSans-30" x="63.623047"/>
       <use xlink:href="#DejaVuSans-30" x="127.246094"/>
      </g>
     </g>
    </g>
    <g id="text_12">
     <!-- Loss -->
     <g transform="translate(22.396875 191.970625) rotate(-90) scale(0.2 -0.2)">
      <defs>
       <path id="DejaVuSans-4c" d="M 628 4666 
L 1259 4666 
L 1259 531 
L 3531 531 
L 3531 0 
L 628 0 
L 628 4666 
z
" transform="scale(0.015625)"/>
      </defs>
      <use xlink:href="#DejaVuSans-4c"/>
      <use xlink:href="#DejaVuSans-6f" x="53.962891"/>
      <use xlink:href="#DejaVuSans-73" x="115.144531"/>
      <use xlink:href="#DejaVuSans-73" x="167.244141"/>
     </g>
    </g>
   </g>
   <g id="line2d_11">
    <path d="M 117.854261 116.730416 
L 118.451053 62.430435 
L 119.047844 101.446911 
L 119.644636 97.742273 
L 120.241427 71.891481 
L 120.838219 66.005259 
L 121.43501 53.003453 
L 122.031801 50.572912 
L 122.628593 59.282987 
L 123.225384 64.407922 
L 123.822176 63.027834 
L 125.015759 72.758823 
L 125.61255 76.15716 
L 126.209342 51.933022 
L 126.806133 73.641653 
L 127.402924 118.042353 
L 127.999716 125.137272 
L 129.193299 60.941522 
L 129.79009 44.03625 
L 130.386882 52.703352 
L 130.983673 66.415864 
L 132.177256 80.271673 
L 132.774047 77.046844 
L 133.370839 85.974109 
L 133.96763 89.320307 
L 134.564422 99.781725 
L 135.161213 103.629806 
L 135.758005 95.490293 
L 136.354796 93.742179 
L 136.951588 96.556052 
L 137.548379 104.56955 
L 138.14517 103.315712 
L 138.741962 106.314088 
L 139.338753 101.622759 
L 139.935545 103.726444 
L 140.532336 97.099143 
L 141.129128 105.59913 
L 141.725919 102.090241 
L 142.322711 108.846517 
L 142.919502 107.115866 
L 143.516293 107.768741 
L 144.113085 94.854922 
L 144.709876 103.509892 
L 145.306668 99.688151 
L 145.903459 99.279356 
L 146.500251 102.538264 
L 147.097042 101.345011 
L 147.693834 103.441635 
L 148.290625 100.626615 
L 148.887416 103.77917 
L 149.484208 108.446027 
L 150.080999 104.135863 
L 150.677791 113.024366 
L 151.274582 113.256683 
L 151.871374 118.953402 
L 152.468165 121.504437 
L 153.064957 125.536059 
L 153.661748 125.084203 
L 154.258539 124.975704 
L 154.855331 129.12069 
L 155.452122 129.965285 
L 156.048914 127.601113 
L 156.645705 122.813187 
L 157.242497 121.044518 
L 157.839288 125.340201 
L 158.43608 125.222212 
L 159.032871 129.200338 
L 159.629662 126.028649 
L 160.226454 128.68786 
L 161.420037 125.98626 
L 162.016828 127.841862 
L 162.61362 125.227578 
L 163.210411 130.64839 
L 163.807203 134.240456 
L 164.403994 133.266292 
L 165.000785 131.370037 
L 165.597577 133.221224 
L 166.194368 131.530508 
L 166.79116 127.304061 
L 167.387951 127.021545 
L 167.984743 131.504403 
L 168.581534 129.12013 
L 169.178326 130.155912 
L 169.775117 129.13671 
L 170.9687 135.649824 
L 171.565491 130.074104 
L 172.162283 129.476486 
L 172.759074 129.449765 
L 173.355866 127.07422 
L 174.549449 128.405043 
L 175.14624 132.155688 
L 175.743031 129.996242 
L 176.339823 130.068832 
L 176.936614 128.264842 
L 177.533406 131.050036 
L 178.130197 130.94195 
L 178.726989 128.470743 
L 179.32378 131.531211 
L 179.920572 131.612299 
L 180.517363 132.350694 
L 181.114154 131.23145 
L 181.710946 134.408219 
L 182.307737 133.259949 
L 182.904529 133.451761 
L 183.50132 135.868165 
L 184.098112 136.567827 
L 184.694903 137.964817 
L 185.291695 137.904629 
L 185.888486 140.59013 
L 186.485277 140.248142 
L 187.082069 142.320233 
L 188.275652 143.305748 
L 188.872443 144.681703 
L 189.469235 144.519549 
L 190.066026 145.240951 
L 190.662818 143.606707 
L 191.259609 147.202116 
L 191.8564 147.401776 
L 192.453192 145.312951 
L 193.049983 147.788315 
L 193.646775 144.771762 
L 194.243566 147.864716 
L 194.840358 144.354608 
L 195.437149 149.00043 
L 196.033941 148.864368 
L 196.630732 147.326535 
L 197.227523 147.287939 
L 197.824315 149.193091 
L 198.421106 147.831455 
L 199.017898 148.825769 
L 199.614689 148.096776 
L 200.211481 148.745121 
L 200.808272 151.093129 
L 201.405064 147.222083 
L 202.001855 147.173949 
L 202.598646 149.684394 
L 203.195438 150.670233 
L 203.792229 150.083711 
L 204.389021 151.347509 
L 204.985812 149.72187 
L 205.582604 149.97145 
L 206.179395 152.818688 
L 206.776186 153.166956 
L 207.372978 151.635056 
L 207.969769 152.261085 
L 208.566561 150.388173 
L 209.163352 149.701996 
L 209.760144 148.135366 
L 210.356935 150.229807 
L 210.953727 149.605711 
L 211.550518 150.325038 
L 212.147309 151.22725 
L 212.744101 150.754788 
L 213.340892 152.243257 
L 213.937684 151.654234 
L 214.534475 154.11977 
L 215.131267 155.048733 
L 215.728058 153.344866 
L 216.32485 153.231589 
L 216.921641 154.848303 
L 217.518432 153.800574 
L 218.115224 157.048832 
L 218.712015 156.893901 
L 219.308807 155.884159 
L 219.905598 156.207196 
L 221.099181 155.9323 
L 221.695973 157.966988 
L 222.292764 160.584037 
L 222.889555 159.109185 
L 223.486347 160.133137 
L 224.083138 157.417522 
L 224.67993 158.294861 
L 225.276721 157.179436 
L 225.873513 156.74332 
L 226.470304 152.371756 
L 227.067096 154.608543 
L 227.663887 154.732663 
L 228.260678 156.74822 
L 228.85747 153.888262 
L 229.454261 153.0428 
L 230.051053 149.447487 
L 230.647844 149.480507 
L 231.244636 149.219328 
L 231.841427 150.998212 
L 232.438219 153.308223 
L 233.03501 154.868603 
L 233.631801 153.249777 
L 234.228593 154.622314 
L 234.825384 153.342076 
L 235.422176 153.92423 
L 236.018967 155.062312 
L 236.615759 156.883775 
L 237.21255 155.221922 
L 237.809342 156.801697 
L 239.002924 155.609429 
L 239.599716 154.116463 
L 240.196507 155.313135 
L 240.793299 156.80764 
L 241.39009 155.756673 
L 241.986882 156.419443 
L 242.583673 154.641703 
L 243.180465 156.161499 
L 243.777256 154.121002 
L 244.374047 156.645991 
L 244.970839 155.529907 
L 245.56763 156.176916 
L 246.164422 155.396429 
L 246.761213 155.88568 
L 247.358005 155.259632 
L 247.954796 153.799706 
L 248.551588 154.311158 
L 249.148379 153.059434 
L 249.74517 154.648248 
L 250.341962 155.120642 
L 250.938753 153.132141 
L 251.535545 153.483931 
L 252.132336 154.04572 
L 252.729128 154.987186 
L 253.325919 154.816669 
L 253.922711 154.119129 
L 254.519502 153.202575 
L 255.116293 153.916273 
L 255.713085 152.705682 
L 256.309876 152.166556 
L 256.906668 152.402338 
L 257.503459 152.180249 
L 258.100251 154.11953 
L 258.697042 152.016894 
L 259.293834 153.003526 
L 259.890625 151.826107 
L 260.487416 152.171399 
L 261.084208 153.165678 
L 261.680999 152.958836 
L 262.277791 151.2627 
L 262.874582 152.237006 
L 263.471374 152.790376 
L 264.664957 149.160309 
L 265.858539 150.86653 
L 266.455331 150.354096 
L 267.052122 149.479063 
L 267.648914 152.676587 
L 268.245705 151.047918 
L 268.842497 152.469854 
L 269.439288 152.266123 
L 270.03608 153.462899 
L 270.632871 154.069147 
L 271.229662 154.003291 
L 271.826454 154.910829 
L 273.020037 155.294215 
L 273.616828 154.960983 
L 274.21362 154.061296 
L 274.810411 155.470938 
L 275.407203 153.968602 
L 276.003994 153.381538 
L 276.600785 153.259493 
L 277.197577 154.500778 
L 277.794368 155.292109 
L 278.39116 154.850473 
L 278.987951 155.670758 
L 279.584743 154.673209 
L 280.181534 154.525595 
L 280.778326 155.551714 
L 281.375117 155.152165 
L 281.971908 155.936404 
L 282.5687 157.010189 
L 283.165491 156.050296 
L 283.762283 155.985973 
L 284.955866 156.386478 
L 285.552657 157.272418 
L 286.149449 156.749003 
L 286.74624 157.107192 
L 287.343031 157.119295 
L 287.939823 157.761971 
L 288.536614 157.134318 
L 289.133406 156.145483 
L 289.730197 158.606781 
L 290.326989 157.442978 
L 290.92378 157.059694 
L 291.520572 157.835689 
L 292.117363 157.316152 
L 293.310946 157.854228 
L 293.907737 159.260742 
L 294.504529 158.661202 
L 295.10132 158.869777 
L 295.698112 159.238682 
L 296.294903 160.284156 
L 296.891695 159.663591 
L 297.488486 159.433966 
L 298.085277 159.789577 
L 299.27886 159.882359 
L 299.875652 160.25701 
L 300.472443 161.289905 
L 301.069235 158.838544 
L 301.666026 159.924778 
L 302.262818 160.45698 
L 302.859609 160.777332 
L 303.4564 162.658706 
L 304.053192 162.11453 
L 304.649983 162.229981 
L 305.246775 160.98345 
L 305.843566 162.000164 
L 306.440358 163.379221 
L 307.037149 163.181533 
L 307.633941 163.880014 
L 308.230732 163.180675 
L 308.827523 162.92911 
L 310.021106 162.673332 
L 310.617898 164.01015 
L 311.214689 163.898086 
L 311.811481 163.587924 
L 312.408272 163.629103 
L 313.005064 164.448835 
L 313.601855 164.678214 
L 314.198646 165.504125 
L 314.795438 164.692579 
L 315.392229 166.342899 
L 315.989021 167.152715 
L 316.585812 165.965846 
L 317.182604 167.413876 
L 317.779395 166.665451 
L 318.376186 166.885093 
L 318.972978 166.510555 
L 320.166561 165.434706 
L 320.763352 165.631563 
L 321.360144 166.035931 
L 321.956935 165.705315 
L 322.553727 166.050312 
L 323.150518 166.525807 
L 323.747309 166.210813 
L 324.344101 166.169597 
L 324.940892 166.418649 
L 325.537684 165.309747 
L 326.134475 165.436775 
L 326.731267 166.031096 
L 327.328058 165.914072 
L 327.92485 167.508869 
L 328.521641 166.783678 
L 329.118432 166.803441 
L 329.715224 166.419973 
L 330.312015 165.84882 
L 330.908807 166.801295 
L 331.505598 166.075255 
L 332.699181 167.123316 
L 333.295973 167.002987 
L 333.892764 167.874705 
L 334.489555 167.313398 
L 335.086347 168.063886 
L 336.27993 167.5642 
L 336.876721 168.792709 
L 337.473513 168.642832 
L 338.070304 167.815961 
L 338.667096 168.876404 
L 339.860678 169.44384 
L 340.45747 169.245245 
L 341.054261 169.40812 
L 341.651053 169.727721 
L 343.441427 169.380179 
L 344.038219 168.682531 
L 344.63501 168.772326 
L 345.231801 169.343754 
L 345.828593 168.172043 
L 346.425384 168.854283 
L 348.215759 169.872072 
L 348.81255 169.938352 
L 349.409342 169.719371 
L 350.006133 168.183161 
L 350.602924 169.845163 
L 351.199716 169.297504 
L 351.796507 170.613594 
L 353.586882 170.480542 
L 354.183673 170.525653 
L 354.780465 169.977587 
L 355.377256 170.364696 
L 355.974047 169.181846 
L 356.570839 170.062413 
L 357.16763 168.886077 
L 357.764422 169.394782 
L 358.361213 169.662922 
L 358.958005 170.145244 
L 359.554796 169.927706 
L 360.151588 170.004292 
L 360.748379 169.875281 
L 361.34517 168.776072 
L 361.941962 168.991334 
L 362.538753 170.365659 
L 363.135545 171.176641 
L 363.732336 171.202022 
L 364.329128 170.910612 
L 365.522711 170.81527 
L 366.119502 171.004884 
L 366.716293 170.949 
L 367.313085 171.33907 
L 367.909876 170.94787 
L 368.506668 171.197713 
L 369.103459 171.714517 
L 369.700251 171.475357 
L 370.297042 171.483979 
L 372.087416 171.036587 
L 372.684208 171.608698 
L 373.280999 171.845687 
L 373.877791 170.643028 
L 374.474582 170.670747 
L 375.071374 171.285834 
L 375.668165 170.540197 
L 376.264957 171.206933 
L 376.861748 171.295074 
L 377.458539 170.80643 
L 378.055331 170.955732 
L 378.652122 171.29138 
L 379.248914 171.91542 
L 379.845705 170.798087 
L 381.039288 172.396778 
L 381.63608 171.585403 
L 382.232871 171.605385 
L 382.829662 171.166604 
L 383.426454 172.321859 
L 384.023245 172.257516 
L 384.620037 173.085883 
L 385.81362 172.209607 
L 386.410411 172.172332 
L 387.007203 172.281268 
L 387.603994 172.82213 
L 388.797577 172.079089 
L 389.394368 172.578862 
L 389.99116 172.245953 
L 390.587951 172.597846 
L 391.184743 172.410781 
L 391.781534 172.673752 
L 392.378326 172.11368 
L 392.975117 172.760862 
L 393.571908 172.901058 
L 394.1687 172.8115 
L 394.765491 172.944725 
L 395.362283 172.884963 
L 395.959074 173.067699 
L 396.555866 172.387809 
L 397.152657 172.65821 
L 397.749449 172.570902 
L 398.34624 173.384998 
L 398.943031 172.353634 
L 399.539823 172.340497 
L 400.136614 172.085243 
L 401.330197 173.137002 
L 401.926989 172.492417 
L 403.120572 172.834667 
L 403.717363 172.629771 
L 404.314154 172.593443 
L 404.910946 172.907705 
L 405.507737 172.320619 
L 406.104529 172.453421 
L 406.70132 172.330282 
L 407.298112 172.595965 
L 407.894903 172.528293 
L 408.491695 172.861315 
L 409.088486 172.896261 
L 409.685277 173.496203 
L 410.282069 173.090749 
L 410.87886 172.827251 
L 411.475652 173.139689 
L 412.072443 173.266205 
L 412.669235 173.642314 
L 413.266026 173.416752 
L 413.862818 172.83362 
L 414.459609 172.80055 
L 415.0564 172.93646 
L 415.653192 173.231901 
L 416.249983 173.197898 
L 416.846775 173.481921 
L 417.443566 173.240156 
L 419.233941 173.864126 
L 419.830732 173.678847 
L 420.427523 173.868298 
L 421.024315 173.729008 
L 421.621106 173.863457 
L 422.217898 173.579213 
L 422.814689 173.71759 
L 423.411481 173.392521 
L 424.008272 174.005318 
L 425.201855 174.1466 
L 425.798646 173.144914 
L 426.395438 173.671143 
L 427.589021 174.144585 
L 428.185812 174.019534 
L 428.782604 173.687268 
L 429.976186 174.288035 
L 430.572978 174.1292 
L 431.169769 174.242572 
L 431.766561 174.970998 
L 432.363352 174.148864 
L 432.960144 174.472383 
L 433.556935 173.912354 
L 434.153727 174.929903 
L 434.750518 174.810248 
L 435.347309 174.379742 
L 437.137684 173.893045 
L 437.734475 173.93676 
L 438.331267 174.381656 
L 439.52485 174.031575 
L 440.121641 173.335467 
L 440.718432 174.324617 
L 441.315224 174.571458 
L 441.912015 174.284473 
L 442.508807 175.075052 
L 443.105598 174.592264 
L 444.299181 174.200782 
L 444.895973 174.356521 
L 445.492764 174.179814 
L 446.089555 174.241436 
L 446.686347 174.705087 
L 447.283138 174.679353 
L 447.87993 175.121293 
L 448.476721 175.179036 
L 449.073513 174.430687 
L 449.670304 174.649242 
L 450.267096 175.257114 
L 450.863887 175.436165 
L 451.460678 175.287799 
L 452.05747 174.561613 
L 452.654261 174.723566 
L 453.251053 174.37005 
L 453.847844 174.652566 
L 454.444636 174.067515 
L 455.041427 174.41544 
L 455.638219 174.313536 
L 456.23501 173.964429 
L 456.831801 175.090529 
L 457.428593 174.400231 
L 458.025384 174.447379 
L 458.622176 174.233904 
L 459.218967 174.975875 
L 459.815759 174.326316 
L 460.41255 175.300385 
L 461.009342 174.82901 
L 462.202924 175.127618 
L 462.799716 174.705087 
L 463.396507 174.46174 
L 463.993299 174.729816 
L 464.59009 174.81318 
L 465.186882 175.237349 
L 465.783673 175.075744 
L 466.380465 175.140725 
L 466.977256 175.423618 
L 467.574047 175.255391 
L 468.170839 174.372277 
L 468.76763 175.023375 
L 469.961213 174.500111 
L 470.558005 174.296632 
L 471.154796 174.415329 
L 471.751588 174.011729 
L 472.348379 173.923366 
L 472.94517 174.913864 
L 473.541962 174.884597 
L 474.138753 174.594898 
L 474.735545 175.163894 
L 475.332336 174.999425 
L 475.929128 174.408347 
L 476.525919 174.79119 
L 477.719502 174.39759 
L 478.316293 174.925129 
L 478.913085 175.055533 
L 480.703459 174.800814 
L 481.300251 174.936818 
L 481.897042 174.810069 
L 482.493834 174.461777 
L 483.090625 174.900441 
L 483.687416 174.840383 
L 484.284208 174.327729 
L 484.880999 174.398339 
L 485.477791 174.61807 
L 486.074582 174.995317 
L 486.671374 174.346549 
L 487.268165 174.179704 
L 488.461748 174.718233 
L 489.058539 174.316179 
L 489.655331 174.535876 
L 490.252122 174.370798 
L 490.848914 174.537744 
L 492.042497 175.518156 
L 492.639288 175.645277 
L 493.23608 175.611891 
L 493.832871 175.052068 
L 494.429662 174.974856 
L 495.026454 175.427324 
L 495.623245 175.271629 
L 496.220037 175.61701 
L 496.816828 175.247906 
L 497.41362 175.294735 
L 498.010411 175.678974 
L 499.203994 176.077742 
L 500.397577 175.413471 
L 500.994368 175.623908 
L 501.59116 175.198067 
L 502.784743 175.44581 
L 503.381534 175.927804 
L 503.978326 175.219054 
L 504.575117 175.687479 
L 505.171908 175.794876 
L 505.7687 175.43702 
L 506.365491 175.328583 
L 506.962283 175.466767 
L 507.559074 175.485727 
L 508.752657 175.825537 
L 509.349449 176.583016 
L 510.543031 176.896142 
L 511.139823 176.304604 
L 511.736614 175.911554 
L 512.333406 176.351337 
L 512.930197 176.181965 
L 513.526989 175.349774 
L 514.12378 176.114277 
L 514.720572 176.114064 
L 515.317363 176.672723 
L 516.510946 176.794847 
L 517.107737 176.325163 
L 517.704529 176.152382 
L 518.30132 176.214148 
L 518.898112 176.505449 
L 519.494903 176.472516 
L 520.091695 176.315092 
L 520.688486 176.027412 
L 521.285277 175.987551 
L 521.882069 176.178034 
L 523.075652 175.706594 
L 523.672443 175.723933 
L 524.269235 175.382591 
L 525.462818 176.010723 
L 526.059609 176.041978 
L 527.253192 175.815828 
L 527.849983 175.496626 
L 528.446775 175.553821 
L 529.043566 175.759455 
L 530.237149 175.844381 
L 530.833941 175.513322 
L 531.430732 175.601948 
L 532.027523 175.865583 
L 532.624315 175.970531 
L 533.817898 175.09015 
L 534.414689 174.097807 
L 535.011481 173.960914 
L 535.608272 175.204017 
L 536.205064 175.655793 
L 536.801855 175.423121 
L 537.398646 175.631669 
L 537.995438 175.399722 
L 538.592229 175.805438 
L 539.189021 176.051574 
L 539.785812 175.853567 
L 540.382604 175.970963 
L 540.979395 175.320615 
L 541.576186 175.441648 
L 542.769769 174.876387 
L 543.366561 174.870139 
L 543.963352 175.364116 
L 544.560144 174.282222 
L 545.156935 175.180443 
L 545.753727 175.13155 
L 546.350518 173.969377 
L 546.947309 174.97548 
L 547.544101 175.185995 
L 548.140892 175.592498 
L 548.737684 174.224 
L 549.334475 174.801255 
L 549.931267 174.91318 
L 550.528058 174.655643 
L 551.721641 175.51598 
L 552.318432 174.805268 
L 552.915224 174.946519 
L 553.512015 174.673955 
L 554.108807 175.576337 
L 554.705598 175.910655 
L 555.899181 174.921067 
L 556.495973 175.43875 
L 557.092764 174.862004 
L 557.689555 175.643429 
L 558.286347 175.346209 
L 558.883138 175.821889 
L 559.47993 175.425669 
L 560.673513 175.266382 
L 561.270304 175.036475 
L 561.867096 175.681982 
L 563.65747 174.957426 
L 564.254261 175.009111 
L 564.851053 175.237253 
L 565.447844 175.090847 
L 566.044636 175.476843 
L 566.641427 175.38795 
L 567.238219 175.687296 
L 567.83501 175.334876 
L 568.431801 175.78399 
L 569.028593 175.347002 
L 569.625384 175.32446 
L 570.222176 175.159546 
L 570.818967 175.583069 
L 571.415759 175.228515 
L 572.01255 176.02991 
L 572.609342 175.340675 
L 573.206133 175.748797 
L 573.802924 175.759824 
L 574.399716 175.502586 
L 574.996507 175.409135 
L 575.593299 175.853548 
L 576.19009 175.920658 
L 577.383673 175.379425 
L 577.980465 176.221307 
L 578.577256 175.55776 
L 579.174047 175.671852 
L 579.770839 176.33195 
L 581.561213 175.693488 
L 582.158005 175.451603 
L 582.754796 176.452433 
L 583.351588 176.21655 
L 583.948379 176.977168 
L 584.54517 175.887416 
L 585.141962 176.256904 
L 585.738753 176.362777 
L 586.335545 175.833331 
L 587.529128 175.793318 
L 588.125919 176.410457 
L 588.722711 176.010869 
L 589.319502 175.973294 
L 590.513085 175.635988 
L 591.109876 175.867813 
L 591.706668 175.84295 
L 592.900251 176.308433 
L 593.497042 176.530575 
L 594.093834 175.556151 
L 594.690625 176.013475 
L 595.287416 176.017003 
L 595.884208 176.345195 
L 596.480999 175.139508 
L 597.674582 175.377084 
L 598.271374 175.782979 
L 598.868165 175.4227 
L 599.464957 175.800744 
L 600.061748 175.668727 
L 600.658539 175.788994 
L 601.255331 175.527982 
L 602.448914 175.857657 
L 604.83608 175.85444 
L 605.432871 175.697297 
L 606.029662 176.20142 
L 607.223245 175.237599 
L 607.820037 175.776461 
L 609.01362 175.51335 
L 609.610411 175.51361 
L 610.207203 175.284847 
L 610.803994 175.988658 
L 611.400785 175.15682 
L 611.997577 175.828069 
L 612.594368 175.4534 
L 613.19116 175.76782 
L 613.787951 175.675099 
L 614.384743 175.469242 
L 616.175117 175.773003 
L 616.771908 175.578627 
L 617.3687 175.859677 
L 617.965491 175.333468 
L 618.562283 175.829719 
L 619.159074 175.65768 
L 620.352657 175.757424 
L 620.949449 176.020463 
L 621.54624 175.659318 
L 622.143031 175.960948 
L 622.739823 175.952687 
L 623.336614 176.320597 
L 623.933406 175.984955 
L 624.530197 176.126386 
L 625.126989 175.913653 
L 625.126989 175.913653 
" clip-path="url(#pdd12365832)" style="fill: none; stroke: #1f77b4; stroke-width: 1.5; stroke-linecap: square"/>
   </g>
   <g id="line2d_12">
    <path d="M 117.854261 283.817858 
L 118.451053 296.03625 
L 119.047844 270.616898 
L 119.644636 261.343127 
L 120.241427 266.675624 
L 120.838219 254.3987 
L 121.43501 253.78483 
L 122.031801 234.718979 
L 122.628593 243.174054 
L 123.225384 233.622601 
L 123.822176 255.831372 
L 124.418967 226.820111 
L 125.015759 231.623087 
L 125.61255 222.755458 
L 126.209342 237.090497 
L 126.806133 221.800231 
L 127.402924 220.580769 
L 127.999716 239.851293 
L 128.596507 218.690556 
L 129.193299 208.012777 
L 129.79009 213.077702 
L 130.386882 203.210023 
L 130.983673 204.36703 
L 131.580465 200.127711 
L 132.177256 197.699217 
L 132.774047 197.009593 
L 133.370839 192.778947 
L 133.96763 193.284367 
L 134.564422 191.367776 
L 135.161213 190.032498 
L 135.758005 190.98049 
L 136.354796 192.754977 
L 136.951588 191.632475 
L 138.14517 187.702186 
L 138.741962 186.31986 
L 139.338753 189.750291 
L 139.935545 188.198746 
L 140.532336 189.00049 
L 141.129128 189.320823 
L 141.725919 185.316259 
L 142.919502 184.835969 
L 143.516293 185.979726 
L 144.113085 188.292898 
L 144.709876 184.413948 
L 145.306668 186.018381 
L 145.903459 185.564117 
L 146.500251 183.829002 
L 147.097042 185.263654 
L 147.693834 184.827063 
L 148.290625 185.642403 
L 148.887416 185.081576 
L 149.484208 185.318168 
L 150.080999 184.356218 
L 150.677791 183.054028 
L 151.274582 183.091849 
L 151.871374 181.620767 
L 152.468165 181.838532 
L 153.064957 182.869973 
L 153.661748 182.690779 
L 154.258539 182.28129 
L 154.855331 180.870267 
L 155.452122 183.116401 
L 156.645705 184.052396 
L 157.242497 184.34861 
L 157.839288 182.464961 
L 159.032871 182.093607 
L 159.629662 184.792872 
L 160.226454 183.634699 
L 160.823245 183.261662 
L 161.420037 184.624761 
L 162.016828 183.487667 
L 162.61362 184.04581 
L 163.210411 182.432324 
L 163.807203 182.812326 
L 164.403994 182.662128 
L 165.000785 182.709696 
L 165.597577 182.390061 
L 166.194368 182.933603 
L 166.79116 185.113963 
L 167.387951 183.825193 
L 167.984743 181.5119 
L 168.581534 182.332163 
L 169.178326 182.657852 
L 169.775117 183.310738 
L 170.371908 183.531447 
L 170.9687 183.308215 
L 171.565491 183.62141 
L 172.162283 184.483335 
L 172.759074 183.45188 
L 173.952657 184.197178 
L 174.549449 183.120905 
L 175.14624 182.57126 
L 175.743031 183.383851 
L 176.339823 182.947738 
L 176.936614 183.167254 
L 177.533406 183.694203 
L 178.130197 183.057892 
L 178.726989 183.707169 
L 179.32378 182.282464 
L 179.920572 184.110702 
L 180.517363 183.132366 
L 181.114154 184.305063 
L 181.710946 182.879901 
L 182.307737 183.550493 
L 183.50132 183.501126 
L 184.098112 182.388915 
L 184.694903 182.417677 
L 185.291695 182.173322 
L 185.888486 183.391072 
L 187.082069 182.940126 
L 187.67886 182.46022 
L 188.275652 182.325477 
L 188.872443 181.724674 
L 189.469235 181.502345 
L 190.066026 182.064616 
L 190.662818 182.799914 
L 191.8564 182.042545 
L 192.453192 182.333771 
L 193.049983 181.160114 
L 193.646775 183.896472 
L 194.243566 182.550055 
L 194.840358 182.064496 
L 195.437149 181.125233 
L 196.033941 181.238594 
L 196.630732 182.004937 
L 197.227523 182.161104 
L 197.824315 181.414516 
L 198.421106 182.304203 
L 199.017898 181.874481 
L 199.614689 181.798224 
L 200.211481 181.982022 
L 200.808272 181.109051 
L 201.405064 182.125077 
L 202.001855 182.440727 
L 203.195438 181.187696 
L 203.792229 181.751393 
L 204.389021 181.583518 
L 204.985812 182.175445 
L 205.582604 183.160066 
L 206.179395 182.022578 
L 206.776186 181.400837 
L 207.969769 182.736279 
L 208.566561 182.132305 
L 209.163352 183.201044 
L 209.760144 183.390734 
L 210.356935 183.243412 
L 210.953727 181.991815 
L 212.147309 182.274377 
L 212.744101 183.17882 
L 213.340892 183.428812 
L 213.937684 183.886167 
L 214.534475 182.608761 
L 215.131267 183.712115 
L 216.32485 183.277566 
L 216.921641 183.511026 
L 218.712015 183.633084 
L 219.308807 183.299605 
L 219.905598 183.783579 
L 220.50239 183.910268 
L 221.695973 184.92944 
L 222.292764 183.203228 
L 222.889555 183.314599 
L 223.486347 184.512217 
L 224.083138 183.829892 
L 224.67993 184.829618 
L 225.276721 183.795532 
L 226.470304 181.114258 
L 227.663887 183.511928 
L 228.260678 183.577943 
L 228.85747 183.326592 
L 229.454261 182.786861 
L 230.051053 183.101856 
L 230.647844 182.860106 
L 231.244636 182.896584 
L 231.841427 183.097378 
L 232.438219 182.191737 
L 233.03501 183.797359 
L 233.631801 182.707522 
L 234.228593 182.50586 
L 234.825384 183.114747 
L 235.422176 182.718723 
L 236.018967 182.923467 
L 236.615759 182.183745 
L 237.21255 183.353683 
L 237.809342 182.7453 
L 238.406133 183.01248 
L 239.002924 183.68453 
L 239.599716 181.987794 
L 240.196507 182.613563 
L 241.39009 183.524069 
L 241.986882 183.241964 
L 242.583673 183.384202 
L 243.180465 183.856913 
L 243.777256 184.648702 
L 244.374047 182.602124 
L 244.970839 183.351471 
L 245.56763 182.881703 
L 246.164422 182.699623 
L 246.761213 182.807006 
L 247.358005 183.289597 
L 247.954796 183.602981 
L 248.551588 184.277064 
L 249.148379 184.604789 
L 249.74517 184.052045 
L 250.341962 183.243903 
L 250.938753 184.052092 
L 252.132336 183.603225 
L 252.729128 183.57647 
L 253.325919 184.190813 
L 253.922711 183.846776 
L 254.519502 183.1117 
L 255.116293 183.575398 
L 255.713085 183.826855 
L 256.309876 183.216567 
L 256.906668 183.100553 
L 257.503459 183.61975 
L 258.100251 183.712894 
L 258.697042 183.597435 
L 259.293834 182.929186 
L 259.890625 183.970208 
L 260.487416 183.329715 
L 261.680999 183.487367 
L 262.277791 184.025893 
L 262.874582 183.355025 
L 264.068165 184.172635 
L 264.664957 183.89308 
L 265.261748 184.720582 
L 265.858539 185.250018 
L 266.455331 183.991193 
L 267.052122 180.264595 
L 267.648914 179.379729 
L 268.245705 179.979928 
L 268.842497 179.808172 
L 269.439288 179.831676 
L 270.03608 180.597556 
L 270.632871 180.60864 
L 271.229662 181.204994 
L 271.826454 180.571995 
L 272.423245 180.389812 
L 273.020037 180.927543 
L 273.616828 181.159789 
L 274.21362 180.95655 
L 274.810411 181.658681 
L 275.407203 181.65998 
L 276.003994 181.207524 
L 276.600785 181.268454 
L 277.197577 181.946299 
L 277.794368 181.462368 
L 278.39116 181.327931 
L 278.987951 181.405739 
L 279.584743 181.830208 
L 280.181534 181.243396 
L 280.778326 181.198737 
L 281.375117 181.023432 
L 281.971908 181.396091 
L 282.5687 180.38087 
L 283.165491 181.313379 
L 283.762283 180.376577 
L 284.359074 180.39457 
L 284.955866 181.042059 
L 285.552657 180.401476 
L 286.149449 180.903968 
L 286.74624 181.080735 
L 287.343031 180.79097 
L 288.536614 181.338014 
L 289.133406 181.292395 
L 289.730197 181.127015 
L 290.326989 181.168368 
L 290.92378 180.728198 
L 291.520572 181.203847 
L 292.714154 180.210731 
L 294.504529 181.131196 
L 295.10132 180.356829 
L 296.891695 181.13129 
L 297.488486 180.48727 
L 298.085277 181.316777 
L 298.682069 180.843416 
L 299.27886 181.182363 
L 299.875652 181.339458 
L 300.472443 180.784706 
L 301.069235 180.901468 
L 301.666026 180.547993 
L 302.262818 180.537567 
L 302.859609 181.04459 
L 303.4564 180.596105 
L 304.649983 180.738678 
L 305.246775 181.393769 
L 305.843566 180.752169 
L 306.440358 180.657503 
L 307.037149 180.737657 
L 307.633941 181.107062 
L 308.230732 180.712911 
L 309.424315 181.124472 
L 310.021106 180.84352 
L 310.617898 181.219557 
L 311.214689 180.44609 
L 311.811481 181.06896 
L 312.408272 181.178658 
L 313.005064 180.837517 
L 313.601855 181.300394 
L 314.198646 181.567467 
L 314.795438 181.012683 
L 315.392229 181.07599 
L 315.989021 180.666583 
L 316.585812 180.522667 
L 317.182604 180.75596 
L 317.779395 180.732957 
L 318.376186 181.094926 
L 318.972978 180.850864 
L 320.166561 180.631432 
L 320.763352 180.665116 
L 321.956935 181.598188 
L 322.553727 180.864201 
L 323.150518 180.568699 
L 323.747309 180.707393 
L 324.344101 181.512054 
L 326.134475 181.481038 
L 326.731267 181.815024 
L 327.328058 181.333635 
L 327.92485 181.233244 
L 328.521641 180.895049 
L 329.118432 181.152924 
L 329.715224 181.111089 
L 330.908807 181.190319 
L 331.505598 181.018222 
L 332.10239 181.32288 
L 332.699181 181.040865 
L 333.295973 181.211261 
L 333.892764 180.891106 
L 334.489555 181.268086 
L 335.086347 181.388344 
L 335.683138 181.081676 
L 336.27993 181.037959 
L 336.876721 180.683913 
L 337.473513 181.45284 
L 338.070304 181.600966 
L 338.667096 180.824199 
L 339.263887 180.767479 
L 339.860678 181.045496 
L 340.45747 180.946243 
L 341.054261 180.980867 
L 341.651053 180.565906 
L 342.247844 181.129756 
L 342.844636 180.275914 
L 343.441427 180.746793 
L 344.63501 180.556783 
L 345.231801 180.362598 
L 345.828593 180.4968 
L 346.425384 180.354044 
L 347.022176 180.75142 
L 347.618967 180.748254 
L 348.215759 180.873944 
L 348.81255 180.736618 
L 349.409342 181.217443 
L 350.006133 180.804086 
L 350.602924 180.653515 
L 351.199716 181.057363 
L 351.796507 180.652628 
L 352.393299 180.766028 
L 352.99009 181.346359 
L 353.586882 180.19628 
L 354.183673 180.998391 
L 355.377256 180.976858 
L 355.974047 180.774304 
L 357.16763 181.364204 
L 357.764422 180.015446 
L 358.958005 181.177205 
L 359.554796 180.721899 
L 360.151588 180.500829 
L 360.748379 180.702456 
L 361.941962 176.307169 
L 362.538753 177.511804 
L 363.135545 177.385175 
L 363.732336 177.852736 
L 364.925919 178.433903 
L 365.522711 178.181649 
L 366.119502 178.338894 
L 366.716293 178.111825 
L 367.313085 178.553982 
L 367.909876 178.428131 
L 368.506668 178.580703 
L 369.103459 178.411208 
L 369.700251 178.595047 
L 370.297042 178.583323 
L 370.893834 178.704573 
L 371.490625 178.524822 
L 373.280999 179.340203 
L 373.877791 178.721279 
L 374.474582 179.195154 
L 375.071374 178.863247 
L 376.264957 178.904504 
L 377.458539 179.17992 
L 378.055331 178.598338 
L 378.652122 178.499958 
L 379.248914 178.959039 
L 379.845705 178.914453 
L 380.442497 178.258735 
L 381.039288 178.66337 
L 381.63608 178.254882 
L 382.232871 178.706815 
L 382.829662 178.492793 
L 383.426454 178.803644 
L 384.023245 178.574321 
L 384.620037 178.670493 
L 385.216828 178.526605 
L 385.81362 178.608478 
L 386.410411 179.052171 
L 387.007203 178.470828 
L 388.200785 178.955696 
L 389.394368 179.056176 
L 389.99116 178.722849 
L 390.587951 179.108168 
L 391.781534 179.04044 
L 392.378326 179.339111 
L 392.975117 178.821481 
L 393.571908 178.828895 
L 394.1687 178.372158 
L 395.362283 179.071322 
L 395.959074 178.823105 
L 397.749449 178.854966 
L 398.34624 178.638637 
L 399.539823 179.102823 
L 400.136614 178.935124 
L 400.733406 178.629359 
L 401.330197 179.069866 
L 401.926989 179.27838 
L 402.52378 179.042123 
L 403.120572 178.640631 
L 403.717363 178.912032 
L 404.910946 179.065539 
L 405.507737 178.941235 
L 406.104529 179.1502 
L 406.70132 179.023144 
L 407.298112 179.363355 
L 407.894903 178.954135 
L 408.491695 178.992939 
L 409.088486 179.443323 
L 409.685277 179.645349 
L 410.282069 178.806777 
L 410.87886 179.401296 
L 412.072443 178.679273 
L 412.669235 179.34932 
L 413.266026 179.115861 
L 413.862818 179.583493 
L 414.459609 179.197347 
L 415.653192 178.990594 
L 416.249983 179.357427 
L 417.443566 179.506311 
L 418.040358 179.485305 
L 418.637149 178.780965 
L 419.233941 179.151367 
L 419.830732 179.013556 
L 420.427523 179.135437 
L 421.621106 179.042252 
L 422.217898 179.472047 
L 422.814689 179.219821 
L 423.411481 179.364226 
L 424.008272 179.358175 
L 424.605064 179.004647 
L 425.201855 179.014748 
L 425.798646 179.397583 
L 426.395438 178.693202 
L 427.589021 179.419855 
L 428.782604 178.889672 
L 429.379395 178.929942 
L 429.976186 179.249873 
L 430.572978 179.169529 
L 431.169769 178.710206 
L 431.766561 179.049115 
L 432.960144 178.837573 
L 433.556935 178.79757 
L 434.153727 178.966607 
L 434.750518 178.738942 
L 435.347309 179.272193 
L 435.944101 178.8278 
L 436.540892 178.895308 
L 437.137684 179.253174 
L 438.331267 179.440098 
L 438.928058 179.186068 
L 440.121641 179.265858 
L 440.718432 179.092749 
L 441.315224 179.164606 
L 441.912015 178.955908 
L 442.508807 178.881991 
L 443.105598 178.564917 
L 443.70239 178.695836 
L 444.299181 179.29003 
L 444.895973 179.437605 
L 445.492764 178.950038 
L 447.87993 179.195519 
L 448.476721 179.007149 
L 450.267096 179.42847 
L 450.863887 178.795757 
L 451.460678 178.69425 
L 452.654261 179.310704 
L 453.251053 178.856549 
L 453.847844 178.975556 
L 454.444636 179.433609 
L 455.041427 179.442179 
L 455.638219 178.94465 
L 456.831801 178.815202 
L 458.622176 178.477733 
L 459.218967 178.114107 
L 459.815759 178.64986 
L 460.41255 178.578177 
L 461.009342 179.115575 
L 461.606133 178.742501 
L 462.202924 178.53909 
L 462.799716 178.845721 
L 463.396507 178.880085 
L 463.993299 179.131845 
L 464.59009 178.54065 
L 466.380465 178.706631 
L 466.977256 178.630018 
L 467.574047 178.677452 
L 468.170839 178.434561 
L 468.76763 179.006029 
L 469.364422 178.741302 
L 469.961213 179.194279 
L 470.558005 179.260951 
L 471.154796 179.191975 
L 471.751588 178.984786 
L 472.348379 179.185696 
L 473.541962 179.056956 
L 474.138753 179.137147 
L 474.735545 179.05843 
L 475.332336 178.759519 
L 475.929128 179.310868 
L 476.525919 178.868002 
L 477.122711 178.694117 
L 478.316293 178.9388 
L 478.913085 178.571324 
L 479.509876 179.132231 
L 480.106668 179.162256 
L 480.703459 178.782115 
L 481.300251 178.882387 
L 481.897042 178.708396 
L 482.493834 178.844637 
L 483.090625 178.779997 
L 483.687416 179.182431 
L 485.477791 178.875146 
L 486.074582 179.323337 
L 486.671374 179.191612 
L 487.268165 179.233337 
L 487.864957 179.028099 
L 488.461748 179.215886 
L 489.058539 178.892683 
L 489.655331 178.952811 
L 490.252122 178.803125 
L 492.639288 179.240258 
L 493.23608 179.068686 
L 493.832871 178.660861 
L 494.429662 178.658637 
L 495.026454 178.895783 
L 495.623245 178.579373 
L 496.816828 178.4952 
L 497.41362 178.801094 
L 498.010411 178.906604 
L 498.607203 178.386062 
L 500.397577 178.324831 
L 500.994368 178.630576 
L 502.187951 178.467981 
L 502.784743 178.548062 
L 503.381534 178.874228 
L 504.575117 178.417217 
L 505.171908 178.742675 
L 506.365491 178.235246 
L 507.559074 178.685491 
L 508.155866 178.603752 
L 508.752657 178.646164 
L 509.94624 178.342603 
L 510.543031 178.461334 
L 511.139823 178.215457 
L 511.736614 178.496797 
L 512.333406 178.551274 
L 512.930197 178.449548 
L 513.526989 178.600133 
L 515.317363 178.732442 
L 515.914154 179.012389 
L 516.510946 178.867877 
L 517.107737 178.586218 
L 517.704529 178.706716 
L 518.30132 179.022021 
L 518.898112 178.855143 
L 520.091695 179.334006 
L 520.688486 178.04463 
L 521.285277 178.856063 
L 521.882069 179.220334 
L 522.47886 178.730664 
L 523.075652 179.094774 
L 523.672443 178.792007 
L 524.269235 178.785669 
L 524.866026 178.992825 
L 525.462818 178.877804 
L 529.043566 178.995964 
L 530.833941 178.571518 
L 531.430732 178.878843 
L 532.027523 178.876594 
L 532.624315 178.7059 
L 533.221106 178.674572 
L 533.817898 178.451724 
L 534.414689 177.283083 
L 535.011481 177.517113 
L 535.608272 178.409482 
L 536.205064 178.541538 
L 536.801855 178.504045 
L 537.398646 178.165852 
L 537.995438 178.367274 
L 538.592229 179.048832 
L 539.189021 179.06605 
L 539.785812 178.751179 
L 540.382604 178.59141 
L 540.979395 178.136257 
L 541.576186 178.453629 
L 542.172978 178.395558 
L 542.769769 178.06291 
L 543.366561 178.169817 
L 543.963352 178.550845 
L 544.560144 178.260967 
L 545.156935 178.422489 
L 545.753727 178.437498 
L 546.350518 178.20868 
L 546.947309 177.831384 
L 547.544101 178.375971 
L 548.140892 177.778779 
L 548.737684 176.356567 
L 549.334475 176.884801 
L 549.931267 177.258387 
L 550.528058 177.304316 
L 552.318432 177.717315 
L 553.512015 177.815701 
L 554.108807 177.507966 
L 555.30239 177.424103 
L 555.899181 177.490708 
L 557.092764 177.292338 
L 557.689555 177.71878 
L 558.286347 178.300794 
L 558.883138 178.085515 
L 559.47993 178.436069 
L 560.076721 178.042457 
L 560.673513 177.006199 
L 561.270304 177.608689 
L 561.867096 177.794829 
L 562.463887 177.650742 
L 563.060678 178.096042 
L 563.65747 177.845612 
L 564.851053 177.919014 
L 566.044636 178.002204 
L 566.641427 177.627559 
L 567.238219 178.074846 
L 567.83501 178.063833 
L 569.028593 177.697961 
L 569.625384 177.852067 
L 570.222176 178.157186 
L 570.818967 177.888062 
L 571.415759 178.266098 
L 572.01255 178.081566 
L 572.609342 177.563687 
L 573.206133 177.630044 
L 573.802924 177.948154 
L 574.399716 177.919448 
L 574.996507 177.460672 
L 575.593299 177.940087 
L 576.19009 177.907446 
L 577.383673 177.149796 
L 578.577256 178.086275 
L 579.174047 177.875391 
L 579.770839 177.827473 
L 580.36763 177.428997 
L 580.964422 177.707046 
L 581.561213 177.796431 
L 582.158005 177.61867 
L 582.754796 177.743852 
L 583.351588 178.210744 
L 583.948379 178.235982 
L 584.54517 177.858813 
L 585.141962 178.153955 
L 586.335545 178.032912 
L 586.932336 177.874922 
L 587.529128 178.017389 
L 588.125919 177.795975 
L 588.722711 178.041335 
L 589.319502 178.158146 
L 589.916293 177.61645 
L 590.513085 178.124577 
L 591.109876 177.874549 
L 591.706668 177.902825 
L 592.303459 177.655145 
L 592.900251 177.823791 
L 594.093834 177.482297 
L 594.690625 177.543045 
L 595.287416 177.943777 
L 595.884208 177.654174 
L 597.077791 178.014056 
L 597.674582 177.767172 
L 598.271374 178.061381 
L 598.868165 178.012416 
L 599.464957 177.840347 
L 600.061748 177.784691 
L 600.658539 177.890452 
L 601.255331 177.582448 
L 601.852122 178.045734 
L 602.448914 177.688063 
L 603.642497 177.795479 
L 604.239288 177.781499 
L 604.83608 178.085286 
L 606.029662 177.866619 
L 607.223245 177.575934 
L 607.820037 178.207843 
L 608.416828 177.68741 
L 609.01362 177.646399 
L 609.610411 177.996321 
L 610.207203 178.155769 
L 610.803994 177.779382 
L 611.400785 177.581883 
L 612.594368 177.728854 
L 613.19116 177.601826 
L 613.787951 177.299808 
L 614.384743 177.720555 
L 614.981534 177.771553 
L 615.578326 177.986081 
L 616.175117 177.917202 
L 616.771908 178.056569 
L 617.3687 177.881752 
L 617.965491 178.013289 
L 618.562283 177.845746 
L 620.352657 178.000163 
L 621.54624 178.09435 
L 623.933406 178.028538 
L 624.530197 177.575061 
L 625.126989 177.903325 
L 625.126989 177.903325 
" clip-path="url(#pdd12365832)" style="fill: none; stroke: #ff7f0e; stroke-width: 1.5; stroke-linecap: square"/>
   </g>
   <g id="patch_3">
    <path d="M 92.490625 308.63625 
L 92.490625 31.43625 
" style="fill: none; stroke: #000000; stroke-width: 0.8; stroke-linejoin: miter; stroke-linecap: square"/>
   </g>
   <g id="patch_4">
    <path d="M 650.490625 308.63625 
L 650.490625 31.43625 
" style="fill: none; stroke: #000000; stroke-width: 0.8; stroke-linejoin: miter; stroke-linecap: square"/>
   </g>
   <g id="patch_5">
    <path d="M 92.490625 308.63625 
L 650.490625 308.63625 
" style="fill: none; stroke: #000000; stroke-width: 0.8; stroke-linejoin: miter; stroke-linecap: square"/>
   </g>
   <g id="patch_6">
    <path d="M 92.490625 31.43625 
L 650.490625 31.43625 
" style="fill: none; stroke: #000000; stroke-width: 0.8; stroke-linejoin: miter; stroke-linecap: square"/>
   </g>
   <g id="text_13">
    <!-- Generator and Discriminator Loss During Training -->
    <g transform="translate(74.258125 25.43625) scale(0.24 -0.24)">
     <defs>
      <path id="DejaVuSans-47" d="M 3809 666 
L 3809 1919 
L 2778 1919 
L 2778 2438 
L 4434 2438 
L 4434 434 
Q 4069 175 3628 42 
Q 3188 -91 2688 -91 
Q 1594 -91 976 548 
Q 359 1188 359 2328 
Q 359 3472 976 4111 
Q 1594 4750 2688 4750 
Q 3144 4750 3555 4637 
Q 3966 4525 4313 4306 
L 4313 3634 
Q 3963 3931 3569 4081 
Q 3175 4231 2741 4231 
Q 1884 4231 1454 3753 
Q 1025 3275 1025 2328 
Q 1025 1384 1454 906 
Q 1884 428 2741 428 
Q 3075 428 3337 486 
Q 3600 544 3809 666 
z
" transform="scale(0.015625)"/>
      <path id="DejaVuSans-20" transform="scale(0.015625)"/>
      <path id="DejaVuSans-64" d="M 2906 2969 
L 2906 4863 
L 3481 4863 
L 3481 0 
L 2906 0 
L 2906 525 
Q 2725 213 2448 61 
Q 2172 -91 1784 -91 
Q 1150 -91 751 415 
Q 353 922 353 1747 
Q 353 2572 751 3078 
Q 1150 3584 1784 3584 
Q 2172 3584 2448 3432 
Q 2725 3281 2906 2969 
z
M 947 1747 
Q 947 1113 1208 752 
Q 1469 391 1925 391 
Q 2381 391 2643 752 
Q 2906 1113 2906 1747 
Q 2906 2381 2643 2742 
Q 2381 3103 1925 3103 
Q 1469 3103 1208 2742 
Q 947 2381 947 1747 
z
" transform="scale(0.015625)"/>
      <path id="DejaVuSans-44" d="M 1259 4147 
L 1259 519 
L 2022 519 
Q 2988 519 3436 956 
Q 3884 1394 3884 2338 
Q 3884 3275 3436 3711 
Q 2988 4147 2022 4147 
L 1259 4147 
z
M 628 4666 
L 1925 4666 
Q 3281 4666 3915 4102 
Q 4550 3538 4550 2338 
Q 4550 1131 3912 565 
Q 3275 0 1925 0 
L 628 0 
L 628 4666 
z
" transform="scale(0.015625)"/>
      <path id="DejaVuSans-63" d="M 3122 3366 
L 3122 2828 
Q 2878 2963 2633 3030 
Q 2388 3097 2138 3097 
Q 1578 3097 1268 2742 
Q 959 2388 959 1747 
Q 959 1106 1268 751 
Q 1578 397 2138 397 
Q 2388 397 2633 464 
Q 2878 531 3122 666 
L 3122 134 
Q 2881 22 2623 -34 
Q 2366 -91 2075 -91 
Q 1284 -91 818 406 
Q 353 903 353 1747 
Q 353 2603 823 3093 
Q 1294 3584 2113 3584 
Q 2378 3584 2631 3529 
Q 2884 3475 3122 3366 
z
" transform="scale(0.015625)"/>
      <path id="DejaVuSans-6d" d="M 3328 2828 
Q 3544 3216 3844 3400 
Q 4144 3584 4550 3584 
Q 5097 3584 5394 3201 
Q 5691 2819 5691 2113 
L 5691 0 
L 5113 0 
L 5113 2094 
Q 5113 2597 4934 2840 
Q 4756 3084 4391 3084 
Q 3944 3084 3684 2787 
Q 3425 2491 3425 1978 
L 3425 0 
L 2847 0 
L 2847 2094 
Q 2847 2600 2669 2842 
Q 2491 3084 2119 3084 
Q 1678 3084 1418 2786 
Q 1159 2488 1159 1978 
L 1159 0 
L 581 0 
L 581 3500 
L 1159 3500 
L 1159 2956 
Q 1356 3278 1631 3431 
Q 1906 3584 2284 3584 
Q 2666 3584 2933 3390 
Q 3200 3197 3328 2828 
z
" transform="scale(0.015625)"/>
      <path id="DejaVuSans-75" d="M 544 1381 
L 544 3500 
L 1119 3500 
L 1119 1403 
Q 1119 906 1312 657 
Q 1506 409 1894 409 
Q 2359 409 2629 706 
Q 2900 1003 2900 1516 
L 2900 3500 
L 3475 3500 
L 3475 0 
L 2900 0 
L 2900 538 
Q 2691 219 2414 64 
Q 2138 -91 1772 -91 
Q 1169 -91 856 284 
Q 544 659 544 1381 
z
M 1991 3584 
L 1991 3584 
z
" transform="scale(0.015625)"/>
      <path id="DejaVuSans-67" d="M 2906 1791 
Q 2906 2416 2648 2759 
Q 2391 3103 1925 3103 
Q 1463 3103 1205 2759 
Q 947 2416 947 1791 
Q 947 1169 1205 825 
Q 1463 481 1925 481 
Q 2391 481 2648 825 
Q 2906 1169 2906 1791 
z
M 3481 434 
Q 3481 -459 3084 -895 
Q 2688 -1331 1869 -1331 
Q 1566 -1331 1297 -1286 
Q 1028 -1241 775 -1147 
L 775 -588 
Q 1028 -725 1275 -790 
Q 1522 -856 1778 -856 
Q 2344 -856 2625 -561 
Q 2906 -266 2906 331 
L 2906 616 
Q 2728 306 2450 153 
Q 2172 0 1784 0 
Q 1141 0 747 490 
Q 353 981 353 1791 
Q 353 2603 747 3093 
Q 1141 3584 1784 3584 
Q 2172 3584 2450 3431 
Q 2728 3278 2906 2969 
L 2906 3500 
L 3481 3500 
L 3481 434 
z
" transform="scale(0.015625)"/>
      <path id="DejaVuSans-54" d="M -19 4666 
L 3928 4666 
L 3928 4134 
L 2272 4134 
L 2272 0 
L 1638 0 
L 1638 4134 
L -19 4134 
L -19 4666 
z
" transform="scale(0.015625)"/>
     </defs>
     <use xlink:href="#DejaVuSans-47"/>
     <use xlink:href="#DejaVuSans-65" x="77.490234"/>
     <use xlink:href="#DejaVuSans-6e" x="139.013672"/>
     <use xlink:href="#DejaVuSans-65" x="202.392578"/>
     <use xlink:href="#DejaVuSans-72" x="263.916016"/>
     <use xlink:href="#DejaVuSans-61" x="305.029297"/>
     <use xlink:href="#DejaVuSans-74" x="366.308594"/>
     <use xlink:href="#DejaVuSans-6f" x="405.517578"/>
     <use xlink:href="#DejaVuSans-72" x="466.699219"/>
     <use xlink:href="#DejaVuSans-20" x="507.8125"/>
     <use xlink:href="#DejaVuSans-61" x="539.599609"/>
     <use xlink:href="#DejaVuSans-6e" x="600.878906"/>
     <use xlink:href="#DejaVuSans-64" x="664.257812"/>
     <use xlink:href="#DejaVuSans-20" x="727.734375"/>
     <use xlink:href="#DejaVuSans-44" x="759.521484"/>
     <use xlink:href="#DejaVuSans-69" x="836.523438"/>
     <use xlink:href="#DejaVuSans-73" x="864.306641"/>
     <use xlink:href="#DejaVuSans-63" x="916.40625"/>
     <use xlink:href="#DejaVuSans-72" x="971.386719"/>
     <use xlink:href="#DejaVuSans-69" x="1012.5"/>
     <use xlink:href="#DejaVuSans-6d" x="1040.283203"/>
     <use xlink:href="#DejaVuSans-69" x="1137.695312"/>
     <use xlink:href="#DejaVuSans-6e" x="1165.478516"/>
     <use xlink:href="#DejaVuSans-61" x="1228.857422"/>
     <use xlink:href="#DejaVuSans-74" x="1290.136719"/>
     <use xlink:href="#DejaVuSans-6f" x="1329.345703"/>
     <use xlink:href="#DejaVuSans-72" x="1390.527344"/>
     <use xlink:href="#DejaVuSans-20" x="1431.640625"/>
     <use xlink:href="#DejaVuSans-4c" x="1463.427734"/>
     <use xlink:href="#DejaVuSans-6f" x="1517.390625"/>
     <use xlink:href="#DejaVuSans-73" x="1578.572266"/>
     <use xlink:href="#DejaVuSans-73" x="1630.671875"/>
     <use xlink:href="#DejaVuSans-20" x="1682.771484"/>
     <use xlink:href="#DejaVuSans-44" x="1714.558594"/>
     <use xlink:href="#DejaVuSans-75" x="1791.560547"/>
     <use xlink:href="#DejaVuSans-72" x="1854.939453"/>
     <use xlink:href="#DejaVuSans-69" x="1896.052734"/>
     <use xlink:href="#DejaVuSans-6e" x="1923.835938"/>
     <use xlink:href="#DejaVuSans-67" x="1987.214844"/>
     <use xlink:href="#DejaVuSans-20" x="2050.691406"/>
     <use xlink:href="#DejaVuSans-54" x="2082.478516"/>
     <use xlink:href="#DejaVuSans-72" x="2128.8125"/>
     <use xlink:href="#DejaVuSans-61" x="2169.925781"/>
     <use xlink:href="#DejaVuSans-69" x="2231.205078"/>
     <use xlink:href="#DejaVuSans-6e" x="2258.988281"/>
     <use xlink:href="#DejaVuSans-69" x="2322.367188"/>
     <use xlink:href="#DejaVuSans-6e" x="2350.150391"/>
     <use xlink:href="#DejaVuSans-67" x="2413.529297"/>
    </g>
   </g>
   <g id="legend_1">
    <g id="patch_7">
     <path d="M 556.99375 106.14875 
L 636.490625 106.14875 
Q 640.490625 106.14875 640.490625 102.14875 
L 640.490625 45.43625 
Q 640.490625 41.43625 636.490625 41.43625 
L 556.99375 41.43625 
Q 552.99375 41.43625 552.99375 45.43625 
L 552.99375 102.14875 
Q 552.99375 106.14875 556.99375 106.14875 
z
" style="fill: #ffffff; opacity: 0.8; stroke: #cccccc; stroke-linejoin: miter"/>
    </g>
    <g id="line2d_13">
     <path d="M 560.99375 57.633125 
L 580.99375 57.633125 
L 600.99375 57.633125 
" style="fill: none; stroke: #1f77b4; stroke-width: 1.5; stroke-linecap: square"/>
    </g>
    <g id="text_14">
     <!-- G -->
     <g transform="translate(616.99375 64.633125) scale(0.2 -0.2)">
      <use xlink:href="#DejaVuSans-47"/>
     </g>
    </g>
    <g id="line2d_14">
     <path d="M 560.99375 86.989375 
L 580.99375 86.989375 
L 600.99375 86.989375 
" style="fill: none; stroke: #ff7f0e; stroke-width: 1.5; stroke-linecap: square"/>
    </g>
    <g id="text_15">
     <!-- D -->
     <g transform="translate(616.99375 93.989375) scale(0.2 -0.2)">
      <use xlink:href="#DejaVuSans-44"/>
     </g>
    </g>
   </g>
  </g>
 </g>
 <defs>
  <clipPath id="pdd12365832">
   <rect x="92.490625" y="31.43625" width="558" height="277.2"/>
  </clipPath>
 </defs>
</svg>
