<?xml version="1.0" encoding="utf-8" standalone="no"?>
<!DOCTYPE svg PUBLIC "-//W3C//DTD SVG 1.1//EN"
  "http://www.w3.org/Graphics/SVG/1.1/DTD/svg11.dtd">
<svg xmlns:xlink="http://www.w3.org/1999/xlink" width="675.923125pt" height="365.54875pt" viewBox="0 0 675.923125 365.54875" xmlns="http://www.w3.org/2000/svg" version="1.1">
 <metadata>
  <rdf:RDF xmlns:dc="http://purl.org/dc/elements/1.1/" xmlns:cc="http://creativecommons.org/ns#" xmlns:rdf="http://www.w3.org/1999/02/22-rdf-syntax-ns#">
   <cc:Work>
    <dc:type rdf:resource="http://purl.org/dc/dcmitype/StillImage"/>
    <dc:date>2024-02-01T17:47:52.070660</dc:date>
    <dc:format>image/svg+xml</dc:format>
    <dc:creator>
     <cc:Agent>
      <dc:title>Matplotlib v3.7.2, https://matplotlib.org/</dc:title>
     </cc:Agent>
    </dc:creator>
   </cc:Work>
  </rdf:RDF>
 </metadata>
 <defs>
  <style type="text/css">*{stroke-linejoin: round; stroke-linecap: butt}</style>
 </defs>
 <g id="figure_1">
  <g id="patch_1">
   <path d="M 0 365.54875 
L 675.923125 365.54875 
L 675.923125 -0 
L 0 -0 
z
" style="fill: #ffffff"/>
  </g>
  <g id="axes_1">
   <g id="patch_2">
    <path d="M 92.490625 308.63625 
L 650.490625 308.63625 
L 650.490625 31.43625 
L 92.490625 31.43625 
z
" style="fill: #ffffff"/>
   </g>
   <g id="matplotlib.axis_1">
    <g id="xtick_1">
     <g id="line2d_1">
      <defs>
       <path id="m75af5ff846" d="M 0 0 
L 0 3.5 
" style="stroke: #000000; stroke-width: 0.8"/>
      </defs>
      <g>
       <use xlink:href="#m75af5ff846" x="117.854261" y="308.63625" style="stroke: #000000; stroke-width: 0.8"/>
      </g>
     </g>
     <g id="text_1">
      <!-- 0 -->
      <g transform="translate(111.491761 330.833125) scale(0.2 -0.2)">
       <defs>
        <path id="DejaVuSans-30" d="M 2034 4250 
Q 1547 4250 1301 3770 
Q 1056 3291 1056 2328 
Q 1056 1369 1301 889 
Q 1547 409 2034 409 
Q 2525 409 2770 889 
Q 3016 1369 3016 2328 
Q 3016 3291 2770 3770 
Q 2525 4250 2034 4250 
z
M 2034 4750 
Q 2819 4750 3233 4129 
Q 3647 3509 3647 2328 
Q 3647 1150 3233 529 
Q 2819 -91 2034 -91 
Q 1250 -91 836 529 
Q 422 1150 422 2328 
Q 422 3509 836 4129 
Q 1250 4750 2034 4750 
z
" transform="scale(0.015625)"/>
       </defs>
       <use xlink:href="#DejaVuSans-30"/>
      </g>
     </g>
    </g>
    <g id="xtick_2">
     <g id="line2d_2">
      <g>
       <use xlink:href="#m75af5ff846" x="202.399716" y="308.63625" style="stroke: #000000; stroke-width: 0.8"/>
      </g>
     </g>
     <g id="text_2">
      <!-- 100 -->
      <g transform="translate(183.312216 330.833125) scale(0.2 -0.2)">
       <defs>
        <path id="DejaVuSans-31" d="M 794 531 
L 1825 531 
L 1825 4091 
L 703 3866 
L 703 4441 
L 1819 4666 
L 2450 4666 
L 2450 531 
L 3481 531 
L 3481 0 
L 794 0 
L 794 531 
z
" transform="scale(0.015625)"/>
       </defs>
       <use xlink:href="#DejaVuSans-31"/>
       <use xlink:href="#DejaVuSans-30" x="63.623047"/>
       <use xlink:href="#DejaVuSans-30" x="127.246094"/>
      </g>
     </g>
    </g>
    <g id="xtick_3">
     <g id="line2d_3">
      <g>
       <use xlink:href="#m75af5ff846" x="286.94517" y="308.63625" style="stroke: #000000; stroke-width: 0.8"/>
      </g>
     </g>
     <g id="text_3">
      <!-- 200 -->
      <g transform="translate(267.85767 330.833125) scale(0.2 -0.2)">
       <defs>
        <path id="DejaVuSans-32" d="M 1228 531 
L 3431 531 
L 3431 0 
L 469 0 
L 469 531 
Q 828 903 1448 1529 
Q 2069 2156 2228 2338 
Q 2531 2678 2651 2914 
Q 2772 3150 2772 3378 
Q 2772 3750 2511 3984 
Q 2250 4219 1831 4219 
Q 1534 4219 1204 4116 
Q 875 4013 500 3803 
L 500 4441 
Q 881 4594 1212 4672 
Q 1544 4750 1819 4750 
Q 2544 4750 2975 4387 
Q 3406 4025 3406 3419 
Q 3406 3131 3298 2873 
Q 3191 2616 2906 2266 
Q 2828 2175 2409 1742 
Q 1991 1309 1228 531 
z
" transform="scale(0.015625)"/>
       </defs>
       <use xlink:href="#DejaVuSans-32"/>
       <use xlink:href="#DejaVuSans-30" x="63.623047"/>
       <use xlink:href="#DejaVuSans-30" x="127.246094"/>
      </g>
     </g>
    </g>
    <g id="xtick_4">
     <g id="line2d_4">
      <g>
       <use xlink:href="#m75af5ff846" x="371.490625" y="308.63625" style="stroke: #000000; stroke-width: 0.8"/>
      </g>
     </g>
     <g id="text_4">
      <!-- 300 -->
      <g transform="translate(352.403125 330.833125) scale(0.2 -0.2)">
       <defs>
        <path id="DejaVuSans-33" d="M 2597 2516 
Q 3050 2419 3304 2112 
Q 3559 1806 3559 1356 
Q 3559 666 3084 287 
Q 2609 -91 1734 -91 
Q 1441 -91 1130 -33 
Q 819 25 488 141 
L 488 750 
Q 750 597 1062 519 
Q 1375 441 1716 441 
Q 2309 441 2620 675 
Q 2931 909 2931 1356 
Q 2931 1769 2642 2001 
Q 2353 2234 1838 2234 
L 1294 2234 
L 1294 2753 
L 1863 2753 
Q 2328 2753 2575 2939 
Q 2822 3125 2822 3475 
Q 2822 3834 2567 4026 
Q 2313 4219 1838 4219 
Q 1578 4219 1281 4162 
Q 984 4106 628 3988 
L 628 4550 
Q 988 4650 1302 4700 
Q 1616 4750 1894 4750 
Q 2613 4750 3031 4423 
Q 3450 4097 3450 3541 
Q 3450 3153 3228 2886 
Q 3006 2619 2597 2516 
z
" transform="scale(0.015625)"/>
       </defs>
       <use xlink:href="#DejaVuSans-33"/>
       <use xlink:href="#DejaVuSans-30" x="63.623047"/>
       <use xlink:href="#DejaVuSans-30" x="127.246094"/>
      </g>
     </g>
    </g>
    <g id="xtick_5">
     <g id="line2d_5">
      <g>
       <use xlink:href="#m75af5ff846" x="456.03608" y="308.63625" style="stroke: #000000; stroke-width: 0.8"/>
      </g>
     </g>
     <g id="text_5">
      <!-- 400 -->
      <g transform="translate(436.94858 330.833125) scale(0.2 -0.2)">
       <defs>
        <path id="DejaVuSans-34" d="M 2419 4116 
L 825 1625 
L 2419 1625 
L 2419 4116 
z
M 2253 4666 
L 3047 4666 
L 3047 1625 
L 3713 1625 
L 3713 1100 
L 3047 1100 
L 3047 0 
L 2419 0 
L 2419 1100 
L 313 1100 
L 313 1709 
L 2253 4666 
z
" transform="scale(0.015625)"/>
       </defs>
       <use xlink:href="#DejaVuSans-34"/>
       <use xlink:href="#DejaVuSans-30" x="63.623047"/>
       <use xlink:href="#DejaVuSans-30" x="127.246094"/>
      </g>
     </g>
    </g>
    <g id="xtick_6">
     <g id="line2d_6">
      <g>
       <use xlink:href="#m75af5ff846" x="540.581534" y="308.63625" style="stroke: #000000; stroke-width: 0.8"/>
      </g>
     </g>
     <g id="text_6">
      <!-- 500 -->
      <g transform="translate(521.494034 330.833125) scale(0.2 -0.2)">
       <defs>
        <path id="DejaVuSans-35" d="M 691 4666 
L 3169 4666 
L 3169 4134 
L 1269 4134 
L 1269 2991 
Q 1406 3038 1543 3061 
Q 1681 3084 1819 3084 
Q 2600 3084 3056 2656 
Q 3513 2228 3513 1497 
Q 3513 744 3044 326 
Q 2575 -91 1722 -91 
Q 1428 -91 1123 -41 
Q 819 9 494 109 
L 494 744 
Q 775 591 1075 516 
Q 1375 441 1709 441 
Q 2250 441 2565 725 
Q 2881 1009 2881 1497 
Q 2881 1984 2565 2268 
Q 2250 2553 1709 2553 
Q 1456 2553 1204 2497 
Q 953 2441 691 2322 
L 691 4666 
z
" transform="scale(0.015625)"/>
       </defs>
       <use xlink:href="#DejaVuSans-35"/>
       <use xlink:href="#DejaVuSans-30" x="63.623047"/>
       <use xlink:href="#DejaVuSans-30" x="127.246094"/>
      </g>
     </g>
    </g>
    <g id="xtick_7">
     <g id="line2d_7">
      <g>
       <use xlink:href="#m75af5ff846" x="625.126989" y="308.63625" style="stroke: #000000; stroke-width: 0.8"/>
      </g>
     </g>
     <g id="text_7">
      <!-- 600 -->
      <g transform="translate(606.039489 330.833125) scale(0.2 -0.2)">
       <defs>
        <path id="DejaVuSans-36" d="M 2113 2584 
Q 1688 2584 1439 2293 
Q 1191 2003 1191 1497 
Q 1191 994 1439 701 
Q 1688 409 2113 409 
Q 2538 409 2786 701 
Q 3034 994 3034 1497 
Q 3034 2003 2786 2293 
Q 2538 2584 2113 2584 
z
M 3366 4563 
L 3366 3988 
Q 3128 4100 2886 4159 
Q 2644 4219 2406 4219 
Q 1781 4219 1451 3797 
Q 1122 3375 1075 2522 
Q 1259 2794 1537 2939 
Q 1816 3084 2150 3084 
Q 2853 3084 3261 2657 
Q 3669 2231 3669 1497 
Q 3669 778 3244 343 
Q 2819 -91 2113 -91 
Q 1303 -91 875 529 
Q 447 1150 447 2328 
Q 447 3434 972 4092 
Q 1497 4750 2381 4750 
Q 2619 4750 2861 4703 
Q 3103 4656 3366 4563 
z
" transform="scale(0.015625)"/>
       </defs>
       <use xlink:href="#DejaVuSans-36"/>
       <use xlink:href="#DejaVuSans-30" x="63.623047"/>
       <use xlink:href="#DejaVuSans-30" x="127.246094"/>
      </g>
     </g>
    </g>
    <g id="text_8">
     <!-- iterations -->
     <g transform="translate(324.035938 354.189375) scale(0.2 -0.2)">
      <defs>
       <path id="DejaVuSans-69" d="M 603 3500 
L 1178 3500 
L 1178 0 
L 603 0 
L 603 3500 
z
M 603 4863 
L 1178 4863 
L 1178 4134 
L 603 4134 
L 603 4863 
z
" transform="scale(0.015625)"/>
       <path id="DejaVuSans-74" d="M 1172 4494 
L 1172 3500 
L 2356 3500 
L 2356 3053 
L 1172 3053 
L 1172 1153 
Q 1172 725 1289 603 
Q 1406 481 1766 481 
L 2356 481 
L 2356 0 
L 1766 0 
Q 1100 0 847 248 
Q 594 497 594 1153 
L 594 3053 
L 172 3053 
L 172 3500 
L 594 3500 
L 594 4494 
L 1172 4494 
z
" transform="scale(0.015625)"/>
       <path id="DejaVuSans-65" d="M 3597 1894 
L 3597 1613 
L 953 1613 
Q 991 1019 1311 708 
Q 1631 397 2203 397 
Q 2534 397 2845 478 
Q 3156 559 3463 722 
L 3463 178 
Q 3153 47 2828 -22 
Q 2503 -91 2169 -91 
Q 1331 -91 842 396 
Q 353 884 353 1716 
Q 353 2575 817 3079 
Q 1281 3584 2069 3584 
Q 2775 3584 3186 3129 
Q 3597 2675 3597 1894 
z
M 3022 2063 
Q 3016 2534 2758 2815 
Q 2500 3097 2075 3097 
Q 1594 3097 1305 2825 
Q 1016 2553 972 2059 
L 3022 2063 
z
" transform="scale(0.015625)"/>
       <path id="DejaVuSans-72" d="M 2631 2963 
Q 2534 3019 2420 3045 
Q 2306 3072 2169 3072 
Q 1681 3072 1420 2755 
Q 1159 2438 1159 1844 
L 1159 0 
L 581 0 
L 581 3500 
L 1159 3500 
L 1159 2956 
Q 1341 3275 1631 3429 
Q 1922 3584 2338 3584 
Q 2397 3584 2469 3576 
Q 2541 3569 2628 3553 
L 2631 2963 
z
" transform="scale(0.015625)"/>
       <path id="DejaVuSans-61" d="M 2194 1759 
Q 1497 1759 1228 1600 
Q 959 1441 959 1056 
Q 959 750 1161 570 
Q 1363 391 1709 391 
Q 2188 391 2477 730 
Q 2766 1069 2766 1631 
L 2766 1759 
L 2194 1759 
z
M 3341 1997 
L 3341 0 
L 2766 0 
L 2766 531 
Q 2569 213 2275 61 
Q 1981 -91 1556 -91 
Q 1019 -91 701 211 
Q 384 513 384 1019 
Q 384 1609 779 1909 
Q 1175 2209 1959 2209 
L 2766 2209 
L 2766 2266 
Q 2766 2663 2505 2880 
Q 2244 3097 1772 3097 
Q 1472 3097 1187 3025 
Q 903 2953 641 2809 
L 641 3341 
Q 956 3463 1253 3523 
Q 1550 3584 1831 3584 
Q 2591 3584 2966 3190 
Q 3341 2797 3341 1997 
z
" transform="scale(0.015625)"/>
       <path id="DejaVuSans-6f" d="M 1959 3097 
Q 1497 3097 1228 2736 
Q 959 2375 959 1747 
Q 959 1119 1226 758 
Q 1494 397 1959 397 
Q 2419 397 2687 759 
Q 2956 1122 2956 1747 
Q 2956 2369 2687 2733 
Q 2419 3097 1959 3097 
z
M 1959 3584 
Q 2709 3584 3137 3096 
Q 3566 2609 3566 1747 
Q 3566 888 3137 398 
Q 2709 -91 1959 -91 
Q 1206 -91 779 398 
Q 353 888 353 1747 
Q 353 2609 779 3096 
Q 1206 3584 1959 3584 
z
" transform="scale(0.015625)"/>
       <path id="DejaVuSans-6e" d="M 3513 2113 
L 3513 0 
L 2938 0 
L 2938 2094 
Q 2938 2591 2744 2837 
Q 2550 3084 2163 3084 
Q 1697 3084 1428 2787 
Q 1159 2491 1159 1978 
L 1159 0 
L 581 0 
L 581 3500 
L 1159 3500 
L 1159 2956 
Q 1366 3272 1645 3428 
Q 1925 3584 2291 3584 
Q 2894 3584 3203 3211 
Q 3513 2838 3513 2113 
z
" transform="scale(0.015625)"/>
       <path id="DejaVuSans-73" d="M 2834 3397 
L 2834 2853 
Q 2591 2978 2328 3040 
Q 2066 3103 1784 3103 
Q 1356 3103 1142 2972 
Q 928 2841 928 2578 
Q 928 2378 1081 2264 
Q 1234 2150 1697 2047 
L 1894 2003 
Q 2506 1872 2764 1633 
Q 3022 1394 3022 966 
Q 3022 478 2636 193 
Q 2250 -91 1575 -91 
Q 1294 -91 989 -36 
Q 684 19 347 128 
L 347 722 
Q 666 556 975 473 
Q 1284 391 1588 391 
Q 1994 391 2212 530 
Q 2431 669 2431 922 
Q 2431 1156 2273 1281 
Q 2116 1406 1581 1522 
L 1381 1569 
Q 847 1681 609 1914 
Q 372 2147 372 2553 
Q 372 3047 722 3315 
Q 1072 3584 1716 3584 
Q 2034 3584 2315 3537 
Q 2597 3491 2834 3397 
z
" transform="scale(0.015625)"/>
      </defs>
      <use xlink:href="#DejaVuSans-69"/>
      <use xlink:href="#DejaVuSans-74" x="27.783203"/>
      <use xlink:href="#DejaVuSans-65" x="66.992188"/>
      <use xlink:href="#DejaVuSans-72" x="128.515625"/>
      <use xlink:href="#DejaVuSans-61" x="169.628906"/>
      <use xlink:href="#DejaVuSans-74" x="230.908203"/>
      <use xlink:href="#DejaVuSans-69" x="270.117188"/>
      <use xlink:href="#DejaVuSans-6f" x="297.900391"/>
      <use xlink:href="#DejaVuSans-6e" x="359.082031"/>
      <use xlink:href="#DejaVuSans-73" x="422.460938"/>
     </g>
    </g>
   </g>
   <g id="matplotlib.axis_2">
    <g id="ytick_1">
     <g id="line2d_8">
      <defs>
       <path id="mcc72fd80bd" d="M 0 0 
L -3.5 0 
" style="stroke: #000000; stroke-width: 0.8"/>
      </defs>
      <g>
       <use xlink:href="#mcc72fd80bd" x="92.490625" y="278.050314" style="stroke: #000000; stroke-width: 0.8"/>
      </g>
     </g>
     <g id="text_9">
      <!-- −200 -->
      <g transform="translate(30.55625 285.648751) scale(0.2 -0.2)">
       <defs>
        <path id="DejaVuSans-2212" d="M 678 2272 
L 4684 2272 
L 4684 1741 
L 678 1741 
L 678 2272 
z
" transform="scale(0.015625)"/>
       </defs>
       <use xlink:href="#DejaVuSans-2212"/>
       <use xlink:href="#DejaVuSans-32" x="83.789062"/>
       <use xlink:href="#DejaVuSans-30" x="147.412109"/>
       <use xlink:href="#DejaVuSans-30" x="211.035156"/>
      </g>
     </g>
    </g>
    <g id="ytick_2">
     <g id="line2d_9">
      <g>
       <use xlink:href="#mcc72fd80bd" x="92.490625" y="225.895764" style="stroke: #000000; stroke-width: 0.8"/>
      </g>
     </g>
     <g id="text_10">
      <!-- −100 -->
      <g transform="translate(30.55625 233.494202) scale(0.2 -0.2)">
       <use xlink:href="#DejaVuSans-2212"/>
       <use xlink:href="#DejaVuSans-31" x="83.789062"/>
       <use xlink:href="#DejaVuSans-30" x="147.412109"/>
       <use xlink:href="#DejaVuSans-30" x="211.035156"/>
      </g>
     </g>
    </g>
    <g id="ytick_3">
     <g id="line2d_10">
      <g>
       <use xlink:href="#mcc72fd80bd" x="92.490625" y="173.741215" style="stroke: #000000; stroke-width: 0.8"/>
      </g>
     </g>
     <g id="text_11">
      <!-- 0 -->
      <g transform="translate(72.765625 181.339652) scale(0.2 -0.2)">
       <use xlink:href="#DejaVuSans-30"/>
      </g>
     </g>
    </g>
    <g id="ytick_4">
     <g id="line2d_11">
      <g>
       <use xlink:href="#mcc72fd80bd" x="92.490625" y="121.586665" style="stroke: #000000; stroke-width: 0.8"/>
      </g>
     </g>
     <g id="text_12">
      <!-- 100 -->
      <g transform="translate(47.315625 129.185102) scale(0.2 -0.2)">
       <use xlink:href="#DejaVuSans-31"/>
       <use xlink:href="#DejaVuSans-30" x="63.623047"/>
       <use xlink:href="#DejaVuSans-30" x="127.246094"/>
      </g>
     </g>
    </g>
    <g id="ytick_5">
     <g id="line2d_12">
      <g>
       <use xlink:href="#mcc72fd80bd" x="92.490625" y="69.432115" style="stroke: #000000; stroke-width: 0.8"/>
      </g>
     </g>
     <g id="text_13">
      <!-- 200 -->
      <g transform="translate(47.315625 77.030553) scale(0.2 -0.2)">
       <use xlink:href="#DejaVuSans-32"/>
       <use xlink:href="#DejaVuSans-30" x="63.623047"/>
       <use xlink:href="#DejaVuSans-30" x="127.246094"/>
      </g>
     </g>
    </g>
    <g id="text_14">
     <!-- Loss -->
     <g transform="translate(22.396875 191.970625) rotate(-90) scale(0.2 -0.2)">
      <defs>
       <path id="DejaVuSans-4c" d="M 628 4666 
L 1259 4666 
L 1259 531 
L 3531 531 
L 3531 0 
L 628 0 
L 628 4666 
z
" transform="scale(0.015625)"/>
      </defs>
      <use xlink:href="#DejaVuSans-4c"/>
      <use xlink:href="#DejaVuSans-6f" x="53.962891"/>
      <use xlink:href="#DejaVuSans-73" x="115.144531"/>
      <use xlink:href="#DejaVuSans-73" x="167.244141"/>
     </g>
    </g>
   </g>
   <g id="line2d_13">
    <path d="M 117.854261 116.730416 
L 118.699716 62.430435 
L 119.54517 101.446911 
L 120.390625 97.742273 
L 121.23608 71.891481 
L 122.081534 66.005259 
L 122.926989 53.003453 
L 123.772443 50.572912 
L 124.617898 59.282987 
L 125.463352 64.407922 
L 126.308807 63.027834 
L 127.999716 72.758823 
L 128.84517 76.15716 
L 129.690625 51.933022 
L 130.53608 73.641653 
L 131.381534 118.042353 
L 132.226989 125.137272 
L 133.072443 90.657659 
L 133.917898 60.941522 
L 134.763352 44.03625 
L 135.608807 52.703352 
L 136.454261 66.415864 
L 138.14517 80.271673 
L 138.990625 77.046844 
L 139.83608 85.974109 
L 140.681534 89.320307 
L 141.526989 99.781725 
L 142.372443 103.629806 
L 143.217898 95.490293 
L 144.063352 93.742179 
L 144.908807 96.556052 
L 145.754261 104.56955 
L 146.599716 103.315712 
L 147.44517 106.314088 
L 148.290625 101.622759 
L 149.13608 103.726444 
L 149.981534 97.099143 
L 150.826989 105.59913 
L 151.672443 102.090241 
L 152.517898 108.846517 
L 153.363352 107.115866 
L 154.208807 107.768741 
L 155.054261 94.854922 
L 155.899716 103.509892 
L 156.74517 99.688151 
L 157.590625 99.279356 
L 158.43608 102.538264 
L 159.281534 101.345011 
L 160.126989 103.441635 
L 160.972443 100.626615 
L 161.817898 103.77917 
L 162.663352 108.446027 
L 163.508807 104.135863 
L 164.354261 113.024366 
L 165.199716 113.256683 
L 166.04517 118.953402 
L 166.890625 121.504437 
L 167.73608 125.536059 
L 168.581534 125.084203 
L 169.426989 124.975704 
L 170.272443 129.12069 
L 171.117898 129.965285 
L 171.963352 127.601113 
L 172.808807 122.813187 
L 173.654261 121.044518 
L 174.499716 125.340201 
L 175.34517 125.222212 
L 176.190625 129.200338 
L 177.03608 126.028649 
L 177.881534 128.68786 
L 179.572443 125.98626 
L 180.417898 127.841862 
L 181.263352 125.227578 
L 182.108807 130.64839 
L 182.954261 134.240456 
L 183.799716 133.266292 
L 184.64517 131.370037 
L 185.490625 133.221224 
L 186.33608 131.530508 
L 187.181534 127.304061 
L 188.026989 127.021545 
L 188.872443 131.504403 
L 189.717898 129.12013 
L 190.563352 130.155912 
L 191.408807 129.13671 
L 193.099716 135.649824 
L 193.94517 130.074104 
L 194.790625 129.476486 
L 195.63608 129.449765 
L 196.481534 127.07422 
L 198.172443 128.405043 
L 199.017898 132.155688 
L 199.863352 129.996242 
L 200.708807 130.068832 
L 201.554261 128.264842 
L 202.399716 131.050036 
L 203.24517 130.94195 
L 204.090625 128.470743 
L 204.93608 131.531211 
L 205.781534 131.612299 
L 206.626989 132.350694 
L 207.472443 131.23145 
L 208.317898 134.408219 
L 209.163352 133.259949 
L 210.008807 133.451761 
L 210.854261 135.868165 
L 211.699716 136.567827 
L 212.54517 137.964817 
L 213.390625 137.904629 
L 214.23608 140.59013 
L 215.081534 140.248142 
L 215.926989 142.320233 
L 217.617898 143.305748 
L 218.463352 144.681703 
L 219.308807 144.519549 
L 220.154261 145.240951 
L 220.999716 143.606707 
L 221.84517 147.202116 
L 222.690625 147.401776 
L 223.53608 145.312951 
L 224.381534 147.788315 
L 225.226989 144.771762 
L 226.072443 147.864716 
L 226.917898 144.354608 
L 227.763352 149.00043 
L 228.608807 148.864368 
L 229.454261 147.326535 
L 230.299716 147.287939 
L 231.14517 149.193091 
L 231.990625 147.831455 
L 232.83608 148.825769 
L 233.681534 148.096776 
L 234.526989 148.745121 
L 235.372443 151.093129 
L 236.217898 147.222083 
L 237.063352 147.173949 
L 237.908807 149.684394 
L 238.754261 150.670233 
L 239.599716 150.083711 
L 240.44517 151.347509 
L 241.290625 149.72187 
L 242.13608 149.97145 
L 242.981534 152.818688 
L 243.826989 153.166956 
L 244.672443 151.635056 
L 245.517898 152.261085 
L 246.363352 150.388173 
L 247.208807 149.701996 
L 248.054261 148.135366 
L 248.899716 150.229807 
L 249.74517 149.605711 
L 250.590625 150.325038 
L 251.43608 151.22725 
L 252.281534 150.754788 
L 253.126989 152.243257 
L 253.972443 151.654234 
L 254.817898 154.11977 
L 255.663352 155.048733 
L 256.508807 153.344866 
L 257.354261 153.231589 
L 258.199716 154.848303 
L 259.04517 153.800574 
L 259.890625 157.048832 
L 260.73608 156.893901 
L 261.581534 155.884159 
L 262.426989 156.207196 
L 264.117898 155.9323 
L 264.963352 157.966988 
L 265.808807 160.584037 
L 266.654261 159.109185 
L 267.499716 160.133137 
L 268.34517 157.417522 
L 269.190625 158.294861 
L 270.03608 157.179436 
L 270.881534 156.74332 
L 271.726989 152.371756 
L 272.572443 154.608543 
L 273.417898 154.732663 
L 274.263352 156.74822 
L 275.108807 153.888262 
L 275.954261 153.0428 
L 276.799716 149.447487 
L 277.64517 149.480507 
L 278.490625 149.219328 
L 279.33608 150.998212 
L 280.181534 153.308223 
L 281.026989 154.868603 
L 281.872443 153.249777 
L 282.717898 154.622314 
L 283.563352 153.342076 
L 284.408807 153.92423 
L 285.254261 155.062312 
L 286.099716 156.883775 
L 286.94517 155.221922 
L 287.790625 156.801697 
L 289.481534 155.609429 
L 290.326989 154.116463 
L 291.172443 155.313135 
L 292.017898 156.80764 
L 292.863352 155.756673 
L 293.708807 156.419443 
L 294.554261 154.641703 
L 295.399716 156.161499 
L 296.24517 154.121002 
L 297.090625 156.645991 
L 297.93608 155.529907 
L 298.781534 156.176916 
L 299.626989 155.396429 
L 300.472443 155.88568 
L 301.317898 155.259632 
L 302.163352 153.799706 
L 303.008807 154.311158 
L 303.854261 153.059434 
L 304.699716 154.648248 
L 305.54517 155.120642 
L 306.390625 153.132141 
L 307.23608 153.483931 
L 308.081534 154.04572 
L 308.926989 154.987186 
L 309.772443 154.816669 
L 310.617898 154.119129 
L 311.463352 153.202575 
L 312.308807 153.916273 
L 313.154261 152.705682 
L 313.999716 152.166556 
L 314.84517 152.402338 
L 315.690625 152.180249 
L 316.53608 154.11953 
L 317.381534 152.016894 
L 318.226989 153.003526 
L 319.072443 151.826107 
L 319.917898 152.171399 
L 320.763352 153.165678 
L 321.608807 152.958836 
L 322.454261 151.2627 
L 323.299716 152.237006 
L 324.14517 152.790376 
L 325.83608 149.160309 
L 327.526989 150.86653 
L 328.372443 150.354096 
L 329.217898 149.479063 
L 330.063352 152.676587 
L 330.908807 151.047918 
L 331.754261 152.469854 
L 332.599716 152.266123 
L 333.44517 153.462899 
L 334.290625 154.069147 
L 335.13608 154.003291 
L 335.981534 154.910829 
L 337.672443 155.294215 
L 338.517898 154.960983 
L 339.363352 154.061296 
L 340.208807 155.470938 
L 341.054261 153.968602 
L 341.899716 153.381538 
L 342.74517 153.259493 
L 343.590625 154.500778 
L 344.43608 155.292109 
L 345.281534 154.850473 
L 346.126989 155.670758 
L 346.972443 154.673209 
L 347.817898 154.525595 
L 348.663352 155.551714 
L 349.508807 155.152165 
L 350.354261 155.936404 
L 351.199716 157.010189 
L 352.04517 156.050296 
L 352.890625 155.985973 
L 354.581534 156.386478 
L 355.426989 157.272418 
L 356.272443 156.749003 
L 357.117898 157.107192 
L 357.963352 157.119295 
L 358.808807 157.761971 
L 359.654261 157.134318 
L 360.499716 156.145483 
L 361.34517 158.606781 
L 362.190625 157.442978 
L 363.03608 157.059694 
L 363.881534 157.835689 
L 364.726989 157.316152 
L 366.417898 157.854228 
L 367.263352 159.260742 
L 368.108807 158.661202 
L 368.954261 158.869777 
L 369.799716 159.238682 
L 370.64517 160.284156 
L 371.490625 159.663591 
L 372.33608 159.433966 
L 373.181534 159.789577 
L 374.872443 159.882359 
L 375.717898 160.25701 
L 376.563352 161.289905 
L 377.408807 158.838544 
L 378.254261 159.924778 
L 379.099716 160.45698 
L 379.94517 160.777332 
L 380.790625 162.658706 
L 381.63608 162.11453 
L 382.481534 162.229981 
L 383.326989 160.98345 
L 384.172443 162.000164 
L 385.017898 163.379221 
L 385.863352 163.181533 
L 386.708807 163.880014 
L 387.554261 163.180675 
L 388.399716 162.92911 
L 390.090625 162.673332 
L 390.93608 164.01015 
L 391.781534 163.898086 
L 392.626989 163.587924 
L 393.472443 163.629103 
L 394.317898 164.448835 
L 395.163352 164.678214 
L 396.008807 165.504125 
L 396.854261 164.692579 
L 397.699716 166.342899 
L 398.54517 167.152715 
L 399.390625 165.965846 
L 400.23608 167.413876 
L 401.081534 166.665451 
L 401.926989 166.885093 
L 402.772443 166.510555 
L 404.463352 165.434706 
L 405.308807 165.631563 
L 406.154261 166.035931 
L 406.999716 165.705315 
L 407.84517 166.050312 
L 408.690625 166.525807 
L 409.53608 166.210813 
L 410.381534 166.169597 
L 411.226989 166.418649 
L 412.072443 165.309747 
L 412.917898 165.436775 
L 413.763352 166.031096 
L 414.608807 165.914072 
L 415.454261 167.508869 
L 416.299716 166.783678 
L 417.14517 166.803441 
L 417.990625 166.419973 
L 418.83608 165.84882 
L 419.681534 166.801295 
L 420.526989 166.075255 
L 421.372443 166.532946 
L 422.217898 167.123316 
L 423.063352 167.002987 
L 423.908807 167.874705 
L 424.754261 167.313398 
L 425.599716 168.063886 
L 427.290625 167.5642 
L 428.13608 168.792709 
L 428.981534 168.642832 
L 429.826989 167.815961 
L 430.672443 168.876404 
L 431.517898 169.223698 
L 432.363352 169.44384 
L 433.208807 169.245245 
L 434.054261 169.40812 
L 434.899716 169.727721 
L 437.43608 169.380179 
L 438.281534 168.682531 
L 439.126989 168.772326 
L 439.972443 169.343754 
L 440.817898 168.172043 
L 441.663352 168.854283 
L 444.199716 169.872072 
L 445.04517 169.938352 
L 445.890625 169.719371 
L 446.73608 168.183161 
L 447.581534 169.845163 
L 448.426989 169.297504 
L 449.272443 170.613594 
L 451.808807 170.480542 
L 452.654261 170.525653 
L 453.499716 169.977587 
L 454.34517 170.364696 
L 455.190625 169.181846 
L 456.03608 170.062413 
L 456.881534 168.886077 
L 457.726989 169.394782 
L 458.572443 169.662922 
L 459.417898 170.145244 
L 460.263352 169.927706 
L 461.108807 170.004292 
L 461.954261 169.875281 
L 462.799716 168.776072 
L 463.64517 168.991334 
L 464.490625 170.365659 
L 465.33608 171.176641 
L 466.181534 171.202022 
L 467.026989 170.910612 
L 468.717898 170.81527 
L 469.563352 171.004884 
L 470.408807 170.949 
L 471.254261 171.33907 
L 472.099716 170.94787 
L 472.94517 171.197713 
L 473.790625 171.714517 
L 474.63608 171.475357 
L 475.481534 171.483979 
L 478.017898 171.036587 
L 478.863352 171.608698 
L 479.708807 171.845687 
L 480.554261 170.643028 
L 481.399716 170.670747 
L 482.24517 171.285834 
L 483.090625 170.540197 
L 483.93608 171.206933 
L 484.781534 171.295074 
L 485.626989 170.80643 
L 486.472443 170.955732 
L 487.317898 171.29138 
L 488.163352 171.91542 
L 489.008807 170.798087 
L 489.854261 171.52144 
L 490.699716 172.396778 
L 491.54517 171.585403 
L 492.390625 171.605385 
L 493.23608 171.166604 
L 494.081534 172.321859 
L 494.926989 172.257516 
L 495.772443 173.085883 
L 497.463352 172.209607 
L 498.308807 172.172332 
L 499.154261 172.281268 
L 499.999716 172.82213 
L 501.690625 172.079089 
L 502.53608 172.578862 
L 503.381534 172.245953 
L 504.226989 172.597846 
L 505.072443 172.410781 
L 505.917898 172.673752 
L 506.763352 172.11368 
L 507.608807 172.760862 
L 508.454261 172.901058 
L 509.299716 172.8115 
L 510.14517 172.944725 
L 510.990625 172.884963 
L 511.83608 173.067699 
L 512.681534 172.387809 
L 513.526989 172.65821 
L 514.372443 172.570902 
L 515.217898 173.384998 
L 516.063352 172.353634 
L 516.908807 172.340497 
L 517.754261 172.085243 
L 518.599716 172.686637 
L 519.44517 173.137002 
L 520.290625 172.492417 
L 521.981534 172.834667 
L 522.826989 172.629771 
L 523.672443 172.593443 
L 524.517898 172.907705 
L 525.363352 172.320619 
L 526.208807 172.453421 
L 527.054261 172.330282 
L 527.899716 172.595965 
L 528.74517 172.528293 
L 529.590625 172.861315 
L 530.43608 172.896261 
L 531.281534 173.496203 
L 532.126989 173.090749 
L 532.972443 172.827251 
L 533.817898 173.139689 
L 534.663352 173.266205 
L 535.508807 173.642314 
L 536.354261 173.416752 
L 537.199716 172.83362 
L 538.04517 172.80055 
L 538.890625 172.93646 
L 539.73608 173.231901 
L 540.581534 173.197898 
L 541.426989 173.481921 
L 542.272443 173.240156 
L 544.808807 173.864126 
L 545.654261 173.678847 
L 546.499716 173.868298 
L 547.34517 173.729008 
L 548.190625 173.863457 
L 549.03608 173.579213 
L 549.881534 173.71759 
L 550.726989 173.392521 
L 551.572443 174.005318 
L 553.263352 174.1466 
L 554.108807 173.144914 
L 554.954261 173.671143 
L 556.64517 174.144585 
L 557.490625 174.019534 
L 558.33608 173.687268 
L 560.026989 174.288035 
L 560.872443 174.1292 
L 561.717898 174.242572 
L 562.563352 174.970998 
L 563.408807 174.148864 
L 564.254261 174.472383 
L 565.099716 173.912354 
L 565.94517 174.929903 
L 566.790625 174.810248 
L 567.63608 174.379742 
L 570.172443 173.893045 
L 571.017898 173.93676 
L 571.863352 174.381656 
L 573.554261 174.031575 
L 574.399716 173.335467 
L 575.24517 174.324617 
L 576.090625 174.571458 
L 576.93608 174.284473 
L 577.781534 175.075052 
L 578.626989 174.592264 
L 580.317898 174.200782 
L 581.163352 174.356521 
L 582.008807 174.179814 
L 582.854261 174.241436 
L 583.699716 174.705087 
L 584.54517 174.679353 
L 585.390625 175.121293 
L 586.23608 175.179036 
L 587.081534 174.430687 
L 587.926989 174.649242 
L 588.772443 175.257114 
L 589.617898 175.436165 
L 590.463352 175.287799 
L 591.308807 174.561613 
L 592.154261 174.723566 
L 592.999716 174.37005 
L 593.84517 174.652566 
L 594.690625 174.067515 
L 595.53608 174.41544 
L 596.381534 174.313536 
L 597.226989 173.964429 
L 598.072443 175.090529 
L 598.917898 174.400231 
L 599.763352 174.447379 
L 600.608807 174.233904 
L 601.454261 174.975875 
L 602.299716 174.326316 
L 603.14517 175.300385 
L 603.990625 174.82901 
L 605.681534 175.127618 
L 606.526989 174.705087 
L 607.372443 174.46174 
L 608.217898 174.729816 
L 609.063352 174.81318 
L 609.908807 175.237349 
L 610.754261 175.075744 
L 611.599716 175.140725 
L 612.44517 175.423618 
L 613.290625 175.255391 
L 614.13608 174.372277 
L 614.981534 175.023375 
L 616.672443 174.500111 
L 617.517898 174.296632 
L 618.363352 174.415329 
L 619.208807 174.011729 
L 620.054261 173.923366 
L 620.899716 174.913864 
L 621.74517 174.884597 
L 622.590625 174.594898 
L 623.43608 175.163894 
L 624.281534 174.999425 
L 625.126989 174.408347 
L 625.126989 174.408347 
" clip-path="url(#pa5447950fb)" style="fill: none; stroke: #1f77b4; stroke-width: 1.5; stroke-linecap: square"/>
   </g>
   <g id="line2d_14">
    <path d="M 117.854261 283.817858 
L 118.699716 296.03625 
L 119.54517 270.616898 
L 120.390625 261.343127 
L 121.23608 266.675624 
L 122.081534 254.3987 
L 122.926989 253.78483 
L 123.772443 234.718979 
L 124.617898 243.174054 
L 125.463352 233.622601 
L 126.308807 255.831372 
L 127.154261 226.820111 
L 127.999716 231.623087 
L 128.84517 222.755458 
L 129.690625 237.090497 
L 130.53608 221.800231 
L 131.381534 220.580769 
L 132.226989 239.851293 
L 133.072443 218.690556 
L 133.917898 208.012777 
L 134.763352 213.077702 
L 135.608807 203.210023 
L 136.454261 204.36703 
L 137.299716 200.127711 
L 138.14517 197.699217 
L 138.990625 197.009593 
L 139.83608 192.778947 
L 140.681534 193.284367 
L 141.526989 191.367776 
L 142.372443 190.032498 
L 143.217898 190.98049 
L 144.063352 192.754977 
L 144.908807 191.632475 
L 145.754261 189.511802 
L 146.599716 187.702186 
L 147.44517 186.31986 
L 148.290625 189.750291 
L 149.13608 188.198746 
L 149.981534 189.00049 
L 150.826989 189.320823 
L 151.672443 185.316259 
L 153.363352 184.835969 
L 154.208807 185.979726 
L 155.054261 188.292898 
L 155.899716 184.413948 
L 156.74517 186.018381 
L 157.590625 185.564117 
L 158.43608 183.829002 
L 159.281534 185.263654 
L 160.126989 184.827063 
L 160.972443 185.642403 
L 161.817898 185.081576 
L 162.663352 185.318168 
L 163.508807 184.356218 
L 164.354261 183.054028 
L 165.199716 183.091849 
L 166.04517 181.620767 
L 166.890625 181.838532 
L 167.73608 182.869973 
L 168.581534 182.690779 
L 169.426989 182.28129 
L 170.272443 180.870267 
L 171.117898 183.116401 
L 172.808807 184.052396 
L 173.654261 184.34861 
L 174.499716 182.464961 
L 176.190625 182.093607 
L 177.03608 184.792872 
L 177.881534 183.634699 
L 178.726989 183.261662 
L 179.572443 184.624761 
L 180.417898 183.487667 
L 181.263352 184.04581 
L 182.108807 182.432324 
L 182.954261 182.812326 
L 183.799716 182.662128 
L 184.64517 182.709696 
L 185.490625 182.390061 
L 186.33608 182.933603 
L 187.181534 185.113963 
L 188.026989 183.825193 
L 188.872443 181.5119 
L 189.717898 182.332163 
L 190.563352 182.657852 
L 191.408807 183.310738 
L 192.254261 183.531447 
L 193.099716 183.308215 
L 193.94517 183.62141 
L 194.790625 184.483335 
L 195.63608 183.45188 
L 197.326989 184.197178 
L 198.172443 183.120905 
L 199.017898 182.57126 
L 199.863352 183.383851 
L 200.708807 182.947738 
L 201.554261 183.167254 
L 202.399716 183.694203 
L 203.24517 183.057892 
L 204.090625 183.707169 
L 204.93608 182.282464 
L 205.781534 184.110702 
L 206.626989 183.132366 
L 207.472443 184.305063 
L 208.317898 182.879901 
L 209.163352 183.550493 
L 210.854261 183.501126 
L 211.699716 182.388915 
L 212.54517 182.417677 
L 213.390625 182.173322 
L 214.23608 183.391072 
L 215.926989 182.940126 
L 216.772443 182.46022 
L 217.617898 182.325477 
L 218.463352 181.724674 
L 219.308807 181.502345 
L 220.154261 182.064616 
L 220.999716 182.799914 
L 222.690625 182.042545 
L 223.53608 182.333771 
L 224.381534 181.160114 
L 225.226989 183.896472 
L 226.072443 182.550055 
L 226.917898 182.064496 
L 227.763352 181.125233 
L 228.608807 181.238594 
L 229.454261 182.004937 
L 230.299716 182.161104 
L 231.14517 181.414516 
L 231.990625 182.304203 
L 232.83608 181.874481 
L 233.681534 181.798224 
L 234.526989 181.982022 
L 235.372443 181.109051 
L 236.217898 182.125077 
L 237.063352 182.440727 
L 238.754261 181.187696 
L 239.599716 181.751393 
L 240.44517 181.583518 
L 241.290625 182.175445 
L 242.13608 183.160066 
L 242.981534 182.022578 
L 243.826989 181.400837 
L 245.517898 182.736279 
L 246.363352 182.132305 
L 247.208807 183.201044 
L 248.054261 183.390734 
L 248.899716 183.243412 
L 249.74517 181.991815 
L 251.43608 182.274377 
L 252.281534 183.17882 
L 253.126989 183.428812 
L 253.972443 183.886167 
L 254.817898 182.608761 
L 255.663352 183.712115 
L 257.354261 183.277566 
L 258.199716 183.511026 
L 260.73608 183.633084 
L 261.581534 183.299605 
L 262.426989 183.783579 
L 263.272443 183.910268 
L 264.963352 184.92944 
L 265.808807 183.203228 
L 266.654261 183.314599 
L 267.499716 184.512217 
L 268.34517 183.829892 
L 269.190625 184.829618 
L 270.03608 183.795532 
L 270.881534 182.312542 
L 271.726989 181.114258 
L 273.417898 183.511928 
L 274.263352 183.577943 
L 275.108807 183.326592 
L 275.954261 182.786861 
L 276.799716 183.101856 
L 277.64517 182.860106 
L 278.490625 182.896584 
L 279.33608 183.097378 
L 280.181534 182.191737 
L 281.026989 183.797359 
L 281.872443 182.707522 
L 282.717898 182.50586 
L 283.563352 183.114747 
L 284.408807 182.718723 
L 285.254261 182.923467 
L 286.099716 182.183745 
L 286.94517 183.353683 
L 287.790625 182.7453 
L 288.63608 183.01248 
L 289.481534 183.68453 
L 290.326989 181.987794 
L 291.172443 182.613563 
L 292.863352 183.524069 
L 293.708807 183.241964 
L 294.554261 183.384202 
L 295.399716 183.856913 
L 296.24517 184.648702 
L 297.090625 182.602124 
L 297.93608 183.351471 
L 298.781534 182.881703 
L 299.626989 182.699623 
L 300.472443 182.807006 
L 301.317898 183.289597 
L 302.163352 183.602981 
L 303.008807 184.277064 
L 303.854261 184.604789 
L 304.699716 184.052045 
L 305.54517 183.243903 
L 306.390625 184.052092 
L 308.081534 183.603225 
L 308.926989 183.57647 
L 309.772443 184.190813 
L 310.617898 183.846776 
L 311.463352 183.1117 
L 312.308807 183.575398 
L 313.154261 183.826855 
L 313.999716 183.216567 
L 314.84517 183.100553 
L 315.690625 183.61975 
L 316.53608 183.712894 
L 317.381534 183.597435 
L 318.226989 182.929186 
L 319.072443 183.970208 
L 319.917898 183.329715 
L 321.608807 183.487367 
L 322.454261 184.025893 
L 323.299716 183.355025 
L 324.990625 184.172635 
L 325.83608 183.89308 
L 326.681534 184.720582 
L 327.526989 185.250018 
L 328.372443 183.991193 
L 329.217898 180.264595 
L 330.063352 179.379729 
L 330.908807 179.979928 
L 331.754261 179.808172 
L 332.599716 179.831676 
L 333.44517 180.597556 
L 334.290625 180.60864 
L 335.13608 181.204994 
L 335.981534 180.571995 
L 336.826989 180.389812 
L 337.672443 180.927543 
L 338.517898 181.159789 
L 339.363352 180.95655 
L 340.208807 181.658681 
L 341.054261 181.65998 
L 341.899716 181.207524 
L 342.74517 181.268454 
L 343.590625 181.946299 
L 344.43608 181.462368 
L 345.281534 181.327931 
L 346.126989 181.405739 
L 346.972443 181.830208 
L 347.817898 181.243396 
L 348.663352 181.198737 
L 349.508807 181.023432 
L 350.354261 181.396091 
L 351.199716 180.38087 
L 352.04517 181.313379 
L 352.890625 180.376577 
L 353.73608 180.39457 
L 354.581534 181.042059 
L 355.426989 180.401476 
L 356.272443 180.903968 
L 357.117898 181.080735 
L 357.963352 180.79097 
L 359.654261 181.338014 
L 360.499716 181.292395 
L 361.34517 181.127015 
L 362.190625 181.168368 
L 363.03608 180.728198 
L 363.881534 181.203847 
L 365.572443 180.210731 
L 368.108807 181.131196 
L 368.954261 180.356829 
L 371.490625 181.13129 
L 372.33608 180.48727 
L 373.181534 181.316777 
L 374.026989 180.843416 
L 374.872443 181.182363 
L 375.717898 181.339458 
L 376.563352 180.784706 
L 377.408807 180.901468 
L 378.254261 180.547993 
L 379.099716 180.537567 
L 379.94517 181.04459 
L 380.790625 180.596105 
L 382.481534 180.738678 
L 383.326989 181.393769 
L 384.172443 180.752169 
L 385.017898 180.657503 
L 385.863352 180.737657 
L 386.708807 181.107062 
L 387.554261 180.712911 
L 389.24517 181.124472 
L 390.090625 180.84352 
L 390.93608 181.219557 
L 391.781534 180.44609 
L 392.626989 181.06896 
L 393.472443 181.178658 
L 394.317898 180.837517 
L 395.163352 181.300394 
L 396.008807 181.567467 
L 396.854261 181.012683 
L 397.699716 181.07599 
L 398.54517 180.666583 
L 399.390625 180.522667 
L 400.23608 180.75596 
L 401.081534 180.732957 
L 401.926989 181.094926 
L 402.772443 180.850864 
L 404.463352 180.631432 
L 405.308807 180.665116 
L 406.999716 181.598188 
L 407.84517 180.864201 
L 408.690625 180.568699 
L 409.53608 180.707393 
L 410.381534 181.512054 
L 412.917898 181.481038 
L 413.763352 181.815024 
L 414.608807 181.333635 
L 415.454261 181.233244 
L 416.299716 180.895049 
L 417.14517 181.152924 
L 417.990625 181.111089 
L 419.681534 181.190319 
L 420.526989 181.018222 
L 421.372443 181.32288 
L 422.217898 181.040865 
L 423.063352 181.211261 
L 423.908807 180.891106 
L 424.754261 181.268086 
L 425.599716 181.388344 
L 426.44517 181.081676 
L 427.290625 181.037959 
L 428.13608 180.683913 
L 428.981534 181.45284 
L 429.826989 181.600966 
L 430.672443 180.824199 
L 431.517898 180.767479 
L 432.363352 181.045496 
L 433.208807 180.946243 
L 434.054261 180.980867 
L 434.899716 180.565906 
L 435.74517 181.129756 
L 436.590625 180.275914 
L 437.43608 180.746793 
L 439.126989 180.556783 
L 439.972443 180.362598 
L 440.817898 180.4968 
L 441.663352 180.354044 
L 442.508807 180.75142 
L 443.354261 180.748254 
L 444.199716 180.873944 
L 445.04517 180.736618 
L 445.890625 181.217443 
L 446.73608 180.804086 
L 447.581534 180.653515 
L 448.426989 181.057363 
L 449.272443 180.652628 
L 450.117898 180.766028 
L 450.963352 181.346359 
L 451.808807 180.19628 
L 452.654261 180.998391 
L 454.34517 180.976858 
L 455.190625 180.774304 
L 456.881534 181.364204 
L 457.726989 180.015446 
L 459.417898 181.177205 
L 460.263352 180.721899 
L 461.108807 180.500829 
L 461.954261 180.702456 
L 462.799716 178.283228 
L 463.64517 176.307169 
L 464.490625 177.511804 
L 465.33608 177.385175 
L 466.181534 177.852736 
L 467.872443 178.433903 
L 468.717898 178.181649 
L 469.563352 178.338894 
L 470.408807 178.111825 
L 471.254261 178.553982 
L 472.099716 178.428131 
L 472.94517 178.580703 
L 473.790625 178.411208 
L 474.63608 178.595047 
L 475.481534 178.583323 
L 476.326989 178.704573 
L 477.172443 178.524822 
L 478.017898 178.774881 
L 478.863352 178.906729 
L 479.708807 179.340203 
L 480.554261 178.721279 
L 481.399716 179.195154 
L 482.24517 178.863247 
L 483.93608 178.904504 
L 485.626989 179.17992 
L 486.472443 178.598338 
L 487.317898 178.499958 
L 488.163352 178.959039 
L 489.008807 178.914453 
L 489.854261 178.258735 
L 490.699716 178.66337 
L 491.54517 178.254882 
L 492.390625 178.706815 
L 493.23608 178.492793 
L 494.081534 178.803644 
L 494.926989 178.574321 
L 495.772443 178.670493 
L 496.617898 178.526605 
L 497.463352 178.608478 
L 498.308807 179.052171 
L 499.154261 178.470828 
L 500.84517 178.955696 
L 502.53608 179.056176 
L 503.381534 178.722849 
L 504.226989 179.108168 
L 505.917898 179.04044 
L 506.763352 179.339111 
L 507.608807 178.821481 
L 508.454261 178.828895 
L 509.299716 178.372158 
L 510.990625 179.071322 
L 511.83608 178.823105 
L 514.372443 178.854966 
L 515.217898 178.638637 
L 516.063352 178.929585 
L 516.908807 179.102823 
L 517.754261 178.935124 
L 518.599716 178.629359 
L 519.44517 179.069866 
L 520.290625 179.27838 
L 521.13608 179.042123 
L 521.981534 178.640631 
L 522.826989 178.912032 
L 524.517898 179.065539 
L 525.363352 178.941235 
L 526.208807 179.1502 
L 527.054261 179.023144 
L 527.899716 179.363355 
L 528.74517 178.954135 
L 529.590625 178.992939 
L 530.43608 179.443323 
L 531.281534 179.645349 
L 532.126989 178.806777 
L 532.972443 179.401296 
L 534.663352 178.679273 
L 535.508807 179.34932 
L 536.354261 179.115861 
L 537.199716 179.583493 
L 538.04517 179.197347 
L 539.73608 178.990594 
L 540.581534 179.357427 
L 542.272443 179.506311 
L 543.117898 179.485305 
L 543.963352 178.780965 
L 544.808807 179.151367 
L 545.654261 179.013556 
L 546.499716 179.135437 
L 548.190625 179.042252 
L 549.03608 179.472047 
L 549.881534 179.219821 
L 550.726989 179.364226 
L 551.572443 179.358175 
L 552.417898 179.004647 
L 553.263352 179.014748 
L 554.108807 179.397583 
L 554.954261 178.693202 
L 556.64517 179.419855 
L 558.33608 178.889672 
L 559.181534 178.929942 
L 560.026989 179.249873 
L 560.872443 179.169529 
L 561.717898 178.710206 
L 562.563352 179.049115 
L 564.254261 178.837573 
L 565.099716 178.79757 
L 565.94517 178.966607 
L 566.790625 178.738942 
L 567.63608 179.272193 
L 568.481534 178.8278 
L 569.326989 178.895308 
L 570.172443 179.253174 
L 571.863352 179.440098 
L 572.708807 179.186068 
L 574.399716 179.265858 
L 575.24517 179.092749 
L 576.090625 179.164606 
L 576.93608 178.955908 
L 577.781534 178.881991 
L 578.626989 178.564917 
L 579.472443 178.695836 
L 580.317898 179.29003 
L 581.163352 179.437605 
L 582.008807 178.950038 
L 585.390625 179.195519 
L 586.23608 179.007149 
L 588.772443 179.42847 
L 589.617898 178.795757 
L 590.463352 178.69425 
L 592.154261 179.310704 
L 592.999716 178.856549 
L 593.84517 178.975556 
L 594.690625 179.433609 
L 595.53608 179.442179 
L 596.381534 178.94465 
L 598.072443 178.815202 
L 600.608807 178.477733 
L 601.454261 178.114107 
L 602.299716 178.64986 
L 603.14517 178.578177 
L 603.990625 179.115575 
L 604.83608 178.742501 
L 605.681534 178.53909 
L 606.526989 178.845721 
L 607.372443 178.880085 
L 608.217898 179.131845 
L 609.063352 178.54065 
L 611.599716 178.706631 
L 612.44517 178.630018 
L 613.290625 178.677452 
L 614.13608 178.434561 
L 614.981534 179.006029 
L 615.826989 178.741302 
L 616.672443 179.194279 
L 617.517898 179.260951 
L 618.363352 179.191975 
L 619.208807 178.984786 
L 620.054261 179.185696 
L 621.74517 179.056956 
L 622.590625 179.137147 
L 623.43608 179.05843 
L 624.281534 178.759519 
L 625.126989 179.310868 
L 625.126989 179.310868 
" clip-path="url(#pa5447950fb)" style="fill: none; stroke: #ff7f0e; stroke-width: 1.5; stroke-linecap: square"/>
   </g>
   <g id="patch_3">
    <path d="M 92.490625 308.63625 
L 92.490625 31.43625 
" style="fill: none; stroke: #000000; stroke-width: 0.8; stroke-linejoin: miter; stroke-linecap: square"/>
   </g>
   <g id="patch_4">
    <path d="M 650.490625 308.63625 
L 650.490625 31.43625 
" style="fill: none; stroke: #000000; stroke-width: 0.8; stroke-linejoin: miter; stroke-linecap: square"/>
   </g>
   <g id="patch_5">
    <path d="M 92.490625 308.63625 
L 650.490625 308.63625 
" style="fill: none; stroke: #000000; stroke-width: 0.8; stroke-linejoin: miter; stroke-linecap: square"/>
   </g>
   <g id="patch_6">
    <path d="M 92.490625 31.43625 
L 650.490625 31.43625 
" style="fill: none; stroke: #000000; stroke-width: 0.8; stroke-linejoin: miter; stroke-linecap: square"/>
   </g>
   <g id="text_15">
    <!-- Generator and Discriminator Loss During Training -->
    <g transform="translate(74.258125 25.43625) scale(0.24 -0.24)">
     <defs>
      <path id="DejaVuSans-47" d="M 3809 666 
L 3809 1919 
L 2778 1919 
L 2778 2438 
L 4434 2438 
L 4434 434 
Q 4069 175 3628 42 
Q 3188 -91 2688 -91 
Q 1594 -91 976 548 
Q 359 1188 359 2328 
Q 359 3472 976 4111 
Q 1594 4750 2688 4750 
Q 3144 4750 3555 4637 
Q 3966 4525 4313 4306 
L 4313 3634 
Q 3963 3931 3569 4081 
Q 3175 4231 2741 4231 
Q 1884 4231 1454 3753 
Q 1025 3275 1025 2328 
Q 1025 1384 1454 906 
Q 1884 428 2741 428 
Q 3075 428 3337 486 
Q 3600 544 3809 666 
z
" transform="scale(0.015625)"/>
      <path id="DejaVuSans-20" transform="scale(0.015625)"/>
      <path id="DejaVuSans-64" d="M 2906 2969 
L 2906 4863 
L 3481 4863 
L 3481 0 
L 2906 0 
L 2906 525 
Q 2725 213 2448 61 
Q 2172 -91 1784 -91 
Q 1150 -91 751 415 
Q 353 922 353 1747 
Q 353 2572 751 3078 
Q 1150 3584 1784 3584 
Q 2172 3584 2448 3432 
Q 2725 3281 2906 2969 
z
M 947 1747 
Q 947 1113 1208 752 
Q 1469 391 1925 391 
Q 2381 391 2643 752 
Q 2906 1113 2906 1747 
Q 2906 2381 2643 2742 
Q 2381 3103 1925 3103 
Q 1469 3103 1208 2742 
Q 947 2381 947 1747 
z
" transform="scale(0.015625)"/>
      <path id="DejaVuSans-44" d="M 1259 4147 
L 1259 519 
L 2022 519 
Q 2988 519 3436 956 
Q 3884 1394 3884 2338 
Q 3884 3275 3436 3711 
Q 2988 4147 2022 4147 
L 1259 4147 
z
M 628 4666 
L 1925 4666 
Q 3281 4666 3915 4102 
Q 4550 3538 4550 2338 
Q 4550 1131 3912 565 
Q 3275 0 1925 0 
L 628 0 
L 628 4666 
z
" transform="scale(0.015625)"/>
      <path id="DejaVuSans-63" d="M 3122 3366 
L 3122 2828 
Q 2878 2963 2633 3030 
Q 2388 3097 2138 3097 
Q 1578 3097 1268 2742 
Q 959 2388 959 1747 
Q 959 1106 1268 751 
Q 1578 397 2138 397 
Q 2388 397 2633 464 
Q 2878 531 3122 666 
L 3122 134 
Q 2881 22 2623 -34 
Q 2366 -91 2075 -91 
Q 1284 -91 818 406 
Q 353 903 353 1747 
Q 353 2603 823 3093 
Q 1294 3584 2113 3584 
Q 2378 3584 2631 3529 
Q 2884 3475 3122 3366 
z
" transform="scale(0.015625)"/>
      <path id="DejaVuSans-6d" d="M 3328 2828 
Q 3544 3216 3844 3400 
Q 4144 3584 4550 3584 
Q 5097 3584 5394 3201 
Q 5691 2819 5691 2113 
L 5691 0 
L 5113 0 
L 5113 2094 
Q 5113 2597 4934 2840 
Q 4756 3084 4391 3084 
Q 3944 3084 3684 2787 
Q 3425 2491 3425 1978 
L 3425 0 
L 2847 0 
L 2847 2094 
Q 2847 2600 2669 2842 
Q 2491 3084 2119 3084 
Q 1678 3084 1418 2786 
Q 1159 2488 1159 1978 
L 1159 0 
L 581 0 
L 581 3500 
L 1159 3500 
L 1159 2956 
Q 1356 3278 1631 3431 
Q 1906 3584 2284 3584 
Q 2666 3584 2933 3390 
Q 3200 3197 3328 2828 
z
" transform="scale(0.015625)"/>
      <path id="DejaVuSans-75" d="M 544 1381 
L 544 3500 
L 1119 3500 
L 1119 1403 
Q 1119 906 1312 657 
Q 1506 409 1894 409 
Q 2359 409 2629 706 
Q 2900 1003 2900 1516 
L 2900 3500 
L 3475 3500 
L 3475 0 
L 2900 0 
L 2900 538 
Q 2691 219 2414 64 
Q 2138 -91 1772 -91 
Q 1169 -91 856 284 
Q 544 659 544 1381 
z
M 1991 3584 
L 1991 3584 
z
" transform="scale(0.015625)"/>
      <path id="DejaVuSans-67" d="M 2906 1791 
Q 2906 2416 2648 2759 
Q 2391 3103 1925 3103 
Q 1463 3103 1205 2759 
Q 947 2416 947 1791 
Q 947 1169 1205 825 
Q 1463 481 1925 481 
Q 2391 481 2648 825 
Q 2906 1169 2906 1791 
z
M 3481 434 
Q 3481 -459 3084 -895 
Q 2688 -1331 1869 -1331 
Q 1566 -1331 1297 -1286 
Q 1028 -1241 775 -1147 
L 775 -588 
Q 1028 -725 1275 -790 
Q 1522 -856 1778 -856 
Q 2344 -856 2625 -561 
Q 2906 -266 2906 331 
L 2906 616 
Q 2728 306 2450 153 
Q 2172 0 1784 0 
Q 1141 0 747 490 
Q 353 981 353 1791 
Q 353 2603 747 3093 
Q 1141 3584 1784 3584 
Q 2172 3584 2450 3431 
Q 2728 3278 2906 2969 
L 2906 3500 
L 3481 3500 
L 3481 434 
z
" transform="scale(0.015625)"/>
      <path id="DejaVuSans-54" d="M -19 4666 
L 3928 4666 
L 3928 4134 
L 2272 4134 
L 2272 0 
L 1638 0 
L 1638 4134 
L -19 4134 
L -19 4666 
z
" transform="scale(0.015625)"/>
     </defs>
     <use xlink:href="#DejaVuSans-47"/>
     <use xlink:href="#DejaVuSans-65" x="77.490234"/>
     <use xlink:href="#DejaVuSans-6e" x="139.013672"/>
     <use xlink:href="#DejaVuSans-65" x="202.392578"/>
     <use xlink:href="#DejaVuSans-72" x="263.916016"/>
     <use xlink:href="#DejaVuSans-61" x="305.029297"/>
     <use xlink:href="#DejaVuSans-74" x="366.308594"/>
     <use xlink:href="#DejaVuSans-6f" x="405.517578"/>
     <use xlink:href="#DejaVuSans-72" x="466.699219"/>
     <use xlink:href="#DejaVuSans-20" x="507.8125"/>
     <use xlink:href="#DejaVuSans-61" x="539.599609"/>
     <use xlink:href="#DejaVuSans-6e" x="600.878906"/>
     <use xlink:href="#DejaVuSans-64" x="664.257812"/>
     <use xlink:href="#DejaVuSans-20" x="727.734375"/>
     <use xlink:href="#DejaVuSans-44" x="759.521484"/>
     <use xlink:href="#DejaVuSans-69" x="836.523438"/>
     <use xlink:href="#DejaVuSans-73" x="864.306641"/>
     <use xlink:href="#DejaVuSans-63" x="916.40625"/>
     <use xlink:href="#DejaVuSans-72" x="971.386719"/>
     <use xlink:href="#DejaVuSans-69" x="1012.5"/>
     <use xlink:href="#DejaVuSans-6d" x="1040.283203"/>
     <use xlink:href="#DejaVuSans-69" x="1137.695312"/>
     <use xlink:href="#DejaVuSans-6e" x="1165.478516"/>
     <use xlink:href="#DejaVuSans-61" x="1228.857422"/>
     <use xlink:href="#DejaVuSans-74" x="1290.136719"/>
     <use xlink:href="#DejaVuSans-6f" x="1329.345703"/>
     <use xlink:href="#DejaVuSans-72" x="1390.527344"/>
     <use xlink:href="#DejaVuSans-20" x="1431.640625"/>
     <use xlink:href="#DejaVuSans-4c" x="1463.427734"/>
     <use xlink:href="#DejaVuSans-6f" x="1517.390625"/>
     <use xlink:href="#DejaVuSans-73" x="1578.572266"/>
     <use xlink:href="#DejaVuSans-73" x="1630.671875"/>
     <use xlink:href="#DejaVuSans-20" x="1682.771484"/>
     <use xlink:href="#DejaVuSans-44" x="1714.558594"/>
     <use xlink:href="#DejaVuSans-75" x="1791.560547"/>
     <use xlink:href="#DejaVuSans-72" x="1854.939453"/>
     <use xlink:href="#DejaVuSans-69" x="1896.052734"/>
     <use xlink:href="#DejaVuSans-6e" x="1923.835938"/>
     <use xlink:href="#DejaVuSans-67" x="1987.214844"/>
     <use xlink:href="#DejaVuSans-20" x="2050.691406"/>
     <use xlink:href="#DejaVuSans-54" x="2082.478516"/>
     <use xlink:href="#DejaVuSans-72" x="2128.8125"/>
     <use xlink:href="#DejaVuSans-61" x="2169.925781"/>
     <use xlink:href="#DejaVuSans-69" x="2231.205078"/>
     <use xlink:href="#DejaVuSans-6e" x="2258.988281"/>
     <use xlink:href="#DejaVuSans-69" x="2322.367188"/>
     <use xlink:href="#DejaVuSans-6e" x="2350.150391"/>
     <use xlink:href="#DejaVuSans-67" x="2413.529297"/>
    </g>
   </g>
   <g id="legend_1">
    <g id="patch_7">
     <path d="M 556.99375 106.14875 
L 636.490625 106.14875 
Q 640.490625 106.14875 640.490625 102.14875 
L 640.490625 45.43625 
Q 640.490625 41.43625 636.490625 41.43625 
L 556.99375 41.43625 
Q 552.99375 41.43625 552.99375 45.43625 
L 552.99375 102.14875 
Q 552.99375 106.14875 556.99375 106.14875 
z
" style="fill: #ffffff; opacity: 0.8; stroke: #cccccc; stroke-linejoin: miter"/>
    </g>
    <g id="line2d_15">
     <path d="M 560.99375 57.633125 
L 580.99375 57.633125 
L 600.99375 57.633125 
" style="fill: none; stroke: #1f77b4; stroke-width: 1.5; stroke-linecap: square"/>
    </g>
    <g id="text_16">
     <!-- G -->
     <g transform="translate(616.99375 64.633125) scale(0.2 -0.2)">
      <use xlink:href="#DejaVuSans-47"/>
     </g>
    </g>
    <g id="line2d_16">
     <path d="M 560.99375 86.989375 
L 580.99375 86.989375 
L 600.99375 86.989375 
" style="fill: none; stroke: #ff7f0e; stroke-width: 1.5; stroke-linecap: square"/>
    </g>
    <g id="text_17">
     <!-- D -->
     <g transform="translate(616.99375 93.989375) scale(0.2 -0.2)">
      <use xlink:href="#DejaVuSans-44"/>
     </g>
    </g>
   </g>
  </g>
 </g>
 <defs>
  <clipPath id="pa5447950fb">
   <rect x="92.490625" y="31.43625" width="558" height="277.2"/>
  </clipPath>
 </defs>
</svg>
