<?xml version="1.0" encoding="utf-8" standalone="no"?>
<!DOCTYPE svg PUBLIC "-//W3C//DTD SVG 1.1//EN"
  "http://www.w3.org/Graphics/SVG/1.1/DTD/svg11.dtd">
<svg xmlns:xlink="http://www.w3.org/1999/xlink" width="675.923125pt" height="365.54875pt" viewBox="0 0 675.923125 365.54875" xmlns="http://www.w3.org/2000/svg" version="1.1">
 <metadata>
  <rdf:RDF xmlns:dc="http://purl.org/dc/elements/1.1/" xmlns:cc="http://creativecommons.org/ns#" xmlns:rdf="http://www.w3.org/1999/02/22-rdf-syntax-ns#">
   <cc:Work>
    <dc:type rdf:resource="http://purl.org/dc/dcmitype/StillImage"/>
    <dc:date>2024-02-01T18:15:11.160455</dc:date>
    <dc:format>image/svg+xml</dc:format>
    <dc:creator>
     <cc:Agent>
      <dc:title>Matplotlib v3.7.2, https://matplotlib.org/</dc:title>
     </cc:Agent>
    </dc:creator>
   </cc:Work>
  </rdf:RDF>
 </metadata>
 <defs>
  <style type="text/css">*{stroke-linejoin: round; stroke-linecap: butt}</style>
 </defs>
 <g id="figure_1">
  <g id="patch_1">
   <path d="M 0 365.54875 
L 675.923125 365.54875 
L 675.923125 -0 
L 0 -0 
z
" style="fill: #ffffff"/>
  </g>
  <g id="axes_1">
   <g id="patch_2">
    <path d="M 92.490625 308.63625 
L 650.490625 308.63625 
L 650.490625 31.43625 
L 92.490625 31.43625 
z
" style="fill: #ffffff"/>
   </g>
   <g id="matplotlib.axis_1">
    <g id="xtick_1">
     <g id="line2d_1">
      <defs>
       <path id="m7204f841e8" d="M 0 0 
L 0 3.5 
" style="stroke: #000000; stroke-width: 0.8"/>
      </defs>
      <g>
       <use xlink:href="#m7204f841e8" x="117.854261" y="308.63625" style="stroke: #000000; stroke-width: 0.8"/>
      </g>
     </g>
     <g id="text_1">
      <!-- 0 -->
      <g transform="translate(111.491761 330.833125) scale(0.2 -0.2)">
       <defs>
        <path id="DejaVuSans-30" d="M 2034 4250 
Q 1547 4250 1301 3770 
Q 1056 3291 1056 2328 
Q 1056 1369 1301 889 
Q 1547 409 2034 409 
Q 2525 409 2770 889 
Q 3016 1369 3016 2328 
Q 3016 3291 2770 3770 
Q 2525 4250 2034 4250 
z
M 2034 4750 
Q 2819 4750 3233 4129 
Q 3647 3509 3647 2328 
Q 3647 1150 3233 529 
Q 2819 -91 2034 -91 
Q 1250 -91 836 529 
Q 422 1150 422 2328 
Q 422 3509 836 4129 
Q 1250 4750 2034 4750 
z
" transform="scale(0.015625)"/>
       </defs>
       <use xlink:href="#DejaVuSans-30"/>
      </g>
     </g>
    </g>
    <g id="xtick_2">
     <g id="line2d_2">
      <g>
       <use xlink:href="#m7204f841e8" x="188.308807" y="308.63625" style="stroke: #000000; stroke-width: 0.8"/>
      </g>
     </g>
     <g id="text_2">
      <!-- 250 -->
      <g transform="translate(169.221307 330.833125) scale(0.2 -0.2)">
       <defs>
        <path id="DejaVuSans-32" d="M 1228 531 
L 3431 531 
L 3431 0 
L 469 0 
L 469 531 
Q 828 903 1448 1529 
Q 2069 2156 2228 2338 
Q 2531 2678 2651 2914 
Q 2772 3150 2772 3378 
Q 2772 3750 2511 3984 
Q 2250 4219 1831 4219 
Q 1534 4219 1204 4116 
Q 875 4013 500 3803 
L 500 4441 
Q 881 4594 1212 4672 
Q 1544 4750 1819 4750 
Q 2544 4750 2975 4387 
Q 3406 4025 3406 3419 
Q 3406 3131 3298 2873 
Q 3191 2616 2906 2266 
Q 2828 2175 2409 1742 
Q 1991 1309 1228 531 
z
" transform="scale(0.015625)"/>
        <path id="DejaVuSans-35" d="M 691 4666 
L 3169 4666 
L 3169 4134 
L 1269 4134 
L 1269 2991 
Q 1406 3038 1543 3061 
Q 1681 3084 1819 3084 
Q 2600 3084 3056 2656 
Q 3513 2228 3513 1497 
Q 3513 744 3044 326 
Q 2575 -91 1722 -91 
Q 1428 -91 1123 -41 
Q 819 9 494 109 
L 494 744 
Q 775 591 1075 516 
Q 1375 441 1709 441 
Q 2250 441 2565 725 
Q 2881 1009 2881 1497 
Q 2881 1984 2565 2268 
Q 2250 2553 1709 2553 
Q 1456 2553 1204 2497 
Q 953 2441 691 2322 
L 691 4666 
z
" transform="scale(0.015625)"/>
       </defs>
       <use xlink:href="#DejaVuSans-32"/>
       <use xlink:href="#DejaVuSans-35" x="63.623047"/>
       <use xlink:href="#DejaVuSans-30" x="127.246094"/>
      </g>
     </g>
    </g>
    <g id="xtick_3">
     <g id="line2d_3">
      <g>
       <use xlink:href="#m7204f841e8" x="258.763352" y="308.63625" style="stroke: #000000; stroke-width: 0.8"/>
      </g>
     </g>
     <g id="text_3">
      <!-- 500 -->
      <g transform="translate(239.675852 330.833125) scale(0.2 -0.2)">
       <use xlink:href="#DejaVuSans-35"/>
       <use xlink:href="#DejaVuSans-30" x="63.623047"/>
       <use xlink:href="#DejaVuSans-30" x="127.246094"/>
      </g>
     </g>
    </g>
    <g id="xtick_4">
     <g id="line2d_4">
      <g>
       <use xlink:href="#m7204f841e8" x="329.217898" y="308.63625" style="stroke: #000000; stroke-width: 0.8"/>
      </g>
     </g>
     <g id="text_4">
      <!-- 750 -->
      <g transform="translate(310.130398 330.833125) scale(0.2 -0.2)">
       <defs>
        <path id="DejaVuSans-37" d="M 525 4666 
L 3525 4666 
L 3525 4397 
L 1831 0 
L 1172 0 
L 2766 4134 
L 525 4134 
L 525 4666 
z
" transform="scale(0.015625)"/>
       </defs>
       <use xlink:href="#DejaVuSans-37"/>
       <use xlink:href="#DejaVuSans-35" x="63.623047"/>
       <use xlink:href="#DejaVuSans-30" x="127.246094"/>
      </g>
     </g>
    </g>
    <g id="xtick_5">
     <g id="line2d_5">
      <g>
       <use xlink:href="#m7204f841e8" x="399.672443" y="308.63625" style="stroke: #000000; stroke-width: 0.8"/>
      </g>
     </g>
     <g id="text_5">
      <!-- 1000 -->
      <g transform="translate(374.222443 330.833125) scale(0.2 -0.2)">
       <defs>
        <path id="DejaVuSans-31" d="M 794 531 
L 1825 531 
L 1825 4091 
L 703 3866 
L 703 4441 
L 1819 4666 
L 2450 4666 
L 2450 531 
L 3481 531 
L 3481 0 
L 794 0 
L 794 531 
z
" transform="scale(0.015625)"/>
       </defs>
       <use xlink:href="#DejaVuSans-31"/>
       <use xlink:href="#DejaVuSans-30" x="63.623047"/>
       <use xlink:href="#DejaVuSans-30" x="127.246094"/>
       <use xlink:href="#DejaVuSans-30" x="190.869141"/>
      </g>
     </g>
    </g>
    <g id="xtick_6">
     <g id="line2d_6">
      <g>
       <use xlink:href="#m7204f841e8" x="470.126989" y="308.63625" style="stroke: #000000; stroke-width: 0.8"/>
      </g>
     </g>
     <g id="text_6">
      <!-- 1250 -->
      <g transform="translate(444.676989 330.833125) scale(0.2 -0.2)">
       <use xlink:href="#DejaVuSans-31"/>
       <use xlink:href="#DejaVuSans-32" x="63.623047"/>
       <use xlink:href="#DejaVuSans-35" x="127.246094"/>
       <use xlink:href="#DejaVuSans-30" x="190.869141"/>
      </g>
     </g>
    </g>
    <g id="xtick_7">
     <g id="line2d_7">
      <g>
       <use xlink:href="#m7204f841e8" x="540.581534" y="308.63625" style="stroke: #000000; stroke-width: 0.8"/>
      </g>
     </g>
     <g id="text_7">
      <!-- 1500 -->
      <g transform="translate(515.131534 330.833125) scale(0.2 -0.2)">
       <use xlink:href="#DejaVuSans-31"/>
       <use xlink:href="#DejaVuSans-35" x="63.623047"/>
       <use xlink:href="#DejaVuSans-30" x="127.246094"/>
       <use xlink:href="#DejaVuSans-30" x="190.869141"/>
      </g>
     </g>
    </g>
    <g id="xtick_8">
     <g id="line2d_8">
      <g>
       <use xlink:href="#m7204f841e8" x="611.03608" y="308.63625" style="stroke: #000000; stroke-width: 0.8"/>
      </g>
     </g>
     <g id="text_8">
      <!-- 1750 -->
      <g transform="translate(585.58608 330.833125) scale(0.2 -0.2)">
       <use xlink:href="#DejaVuSans-31"/>
       <use xlink:href="#DejaVuSans-37" x="63.623047"/>
       <use xlink:href="#DejaVuSans-35" x="127.246094"/>
       <use xlink:href="#DejaVuSans-30" x="190.869141"/>
      </g>
     </g>
    </g>
    <g id="text_9">
     <!-- iterations -->
     <g transform="translate(324.035938 354.189375) scale(0.2 -0.2)">
      <defs>
       <path id="DejaVuSans-69" d="M 603 3500 
L 1178 3500 
L 1178 0 
L 603 0 
L 603 3500 
z
M 603 4863 
L 1178 4863 
L 1178 4134 
L 603 4134 
L 603 4863 
z
" transform="scale(0.015625)"/>
       <path id="DejaVuSans-74" d="M 1172 4494 
L 1172 3500 
L 2356 3500 
L 2356 3053 
L 1172 3053 
L 1172 1153 
Q 1172 725 1289 603 
Q 1406 481 1766 481 
L 2356 481 
L 2356 0 
L 1766 0 
Q 1100 0 847 248 
Q 594 497 594 1153 
L 594 3053 
L 172 3053 
L 172 3500 
L 594 3500 
L 594 4494 
L 1172 4494 
z
" transform="scale(0.015625)"/>
       <path id="DejaVuSans-65" d="M 3597 1894 
L 3597 1613 
L 953 1613 
Q 991 1019 1311 708 
Q 1631 397 2203 397 
Q 2534 397 2845 478 
Q 3156 559 3463 722 
L 3463 178 
Q 3153 47 2828 -22 
Q 2503 -91 2169 -91 
Q 1331 -91 842 396 
Q 353 884 353 1716 
Q 353 2575 817 3079 
Q 1281 3584 2069 3584 
Q 2775 3584 3186 3129 
Q 3597 2675 3597 1894 
z
M 3022 2063 
Q 3016 2534 2758 2815 
Q 2500 3097 2075 3097 
Q 1594 3097 1305 2825 
Q 1016 2553 972 2059 
L 3022 2063 
z
" transform="scale(0.015625)"/>
       <path id="DejaVuSans-72" d="M 2631 2963 
Q 2534 3019 2420 3045 
Q 2306 3072 2169 3072 
Q 1681 3072 1420 2755 
Q 1159 2438 1159 1844 
L 1159 0 
L 581 0 
L 581 3500 
L 1159 3500 
L 1159 2956 
Q 1341 3275 1631 3429 
Q 1922 3584 2338 3584 
Q 2397 3584 2469 3576 
Q 2541 3569 2628 3553 
L 2631 2963 
z
" transform="scale(0.015625)"/>
       <path id="DejaVuSans-61" d="M 2194 1759 
Q 1497 1759 1228 1600 
Q 959 1441 959 1056 
Q 959 750 1161 570 
Q 1363 391 1709 391 
Q 2188 391 2477 730 
Q 2766 1069 2766 1631 
L 2766 1759 
L 2194 1759 
z
M 3341 1997 
L 3341 0 
L 2766 0 
L 2766 531 
Q 2569 213 2275 61 
Q 1981 -91 1556 -91 
Q 1019 -91 701 211 
Q 384 513 384 1019 
Q 384 1609 779 1909 
Q 1175 2209 1959 2209 
L 2766 2209 
L 2766 2266 
Q 2766 2663 2505 2880 
Q 2244 3097 1772 3097 
Q 1472 3097 1187 3025 
Q 903 2953 641 2809 
L 641 3341 
Q 956 3463 1253 3523 
Q 1550 3584 1831 3584 
Q 2591 3584 2966 3190 
Q 3341 2797 3341 1997 
z
" transform="scale(0.015625)"/>
       <path id="DejaVuSans-6f" d="M 1959 3097 
Q 1497 3097 1228 2736 
Q 959 2375 959 1747 
Q 959 1119 1226 758 
Q 1494 397 1959 397 
Q 2419 397 2687 759 
Q 2956 1122 2956 1747 
Q 2956 2369 2687 2733 
Q 2419 3097 1959 3097 
z
M 1959 3584 
Q 2709 3584 3137 3096 
Q 3566 2609 3566 1747 
Q 3566 888 3137 398 
Q 2709 -91 1959 -91 
Q 1206 -91 779 398 
Q 353 888 353 1747 
Q 353 2609 779 3096 
Q 1206 3584 1959 3584 
z
" transform="scale(0.015625)"/>
       <path id="DejaVuSans-6e" d="M 3513 2113 
L 3513 0 
L 2938 0 
L 2938 2094 
Q 2938 2591 2744 2837 
Q 2550 3084 2163 3084 
Q 1697 3084 1428 2787 
Q 1159 2491 1159 1978 
L 1159 0 
L 581 0 
L 581 3500 
L 1159 3500 
L 1159 2956 
Q 1366 3272 1645 3428 
Q 1925 3584 2291 3584 
Q 2894 3584 3203 3211 
Q 3513 2838 3513 2113 
z
" transform="scale(0.015625)"/>
       <path id="DejaVuSans-73" d="M 2834 3397 
L 2834 2853 
Q 2591 2978 2328 3040 
Q 2066 3103 1784 3103 
Q 1356 3103 1142 2972 
Q 928 2841 928 2578 
Q 928 2378 1081 2264 
Q 1234 2150 1697 2047 
L 1894 2003 
Q 2506 1872 2764 1633 
Q 3022 1394 3022 966 
Q 3022 478 2636 193 
Q 2250 -91 1575 -91 
Q 1294 -91 989 -36 
Q 684 19 347 128 
L 347 722 
Q 666 556 975 473 
Q 1284 391 1588 391 
Q 1994 391 2212 530 
Q 2431 669 2431 922 
Q 2431 1156 2273 1281 
Q 2116 1406 1581 1522 
L 1381 1569 
Q 847 1681 609 1914 
Q 372 2147 372 2553 
Q 372 3047 722 3315 
Q 1072 3584 1716 3584 
Q 2034 3584 2315 3537 
Q 2597 3491 2834 3397 
z
" transform="scale(0.015625)"/>
      </defs>
      <use xlink:href="#DejaVuSans-69"/>
      <use xlink:href="#DejaVuSans-74" x="27.783203"/>
      <use xlink:href="#DejaVuSans-65" x="66.992188"/>
      <use xlink:href="#DejaVuSans-72" x="128.515625"/>
      <use xlink:href="#DejaVuSans-61" x="169.628906"/>
      <use xlink:href="#DejaVuSans-74" x="230.908203"/>
      <use xlink:href="#DejaVuSans-69" x="270.117188"/>
      <use xlink:href="#DejaVuSans-6f" x="297.900391"/>
      <use xlink:href="#DejaVuSans-6e" x="359.082031"/>
      <use xlink:href="#DejaVuSans-73" x="422.460938"/>
     </g>
    </g>
   </g>
   <g id="matplotlib.axis_2">
    <g id="ytick_1">
     <g id="line2d_9">
      <defs>
       <path id="m6c25ea3542" d="M 0 0 
L -3.5 0 
" style="stroke: #000000; stroke-width: 0.8"/>
      </defs>
      <g>
       <use xlink:href="#m6c25ea3542" x="92.490625" y="278.050314" style="stroke: #000000; stroke-width: 0.8"/>
      </g>
     </g>
     <g id="text_10">
      <!-- −200 -->
      <g transform="translate(30.55625 285.648751) scale(0.2 -0.2)">
       <defs>
        <path id="DejaVuSans-2212" d="M 678 2272 
L 4684 2272 
L 4684 1741 
L 678 1741 
L 678 2272 
z
" transform="scale(0.015625)"/>
       </defs>
       <use xlink:href="#DejaVuSans-2212"/>
       <use xlink:href="#DejaVuSans-32" x="83.789062"/>
       <use xlink:href="#DejaVuSans-30" x="147.412109"/>
       <use xlink:href="#DejaVuSans-30" x="211.035156"/>
      </g>
     </g>
    </g>
    <g id="ytick_2">
     <g id="line2d_10">
      <g>
       <use xlink:href="#m6c25ea3542" x="92.490625" y="225.895764" style="stroke: #000000; stroke-width: 0.8"/>
      </g>
     </g>
     <g id="text_11">
      <!-- −100 -->
      <g transform="translate(30.55625 233.494202) scale(0.2 -0.2)">
       <use xlink:href="#DejaVuSans-2212"/>
       <use xlink:href="#DejaVuSans-31" x="83.789062"/>
       <use xlink:href="#DejaVuSans-30" x="147.412109"/>
       <use xlink:href="#DejaVuSans-30" x="211.035156"/>
      </g>
     </g>
    </g>
    <g id="ytick_3">
     <g id="line2d_11">
      <g>
       <use xlink:href="#m6c25ea3542" x="92.490625" y="173.741215" style="stroke: #000000; stroke-width: 0.8"/>
      </g>
     </g>
     <g id="text_12">
      <!-- 0 -->
      <g transform="translate(72.765625 181.339652) scale(0.2 -0.2)">
       <use xlink:href="#DejaVuSans-30"/>
      </g>
     </g>
    </g>
    <g id="ytick_4">
     <g id="line2d_12">
      <g>
       <use xlink:href="#m6c25ea3542" x="92.490625" y="121.586665" style="stroke: #000000; stroke-width: 0.8"/>
      </g>
     </g>
     <g id="text_13">
      <!-- 100 -->
      <g transform="translate(47.315625 129.185102) scale(0.2 -0.2)">
       <use xlink:href="#DejaVuSans-31"/>
       <use xlink:href="#DejaVuSans-30" x="63.623047"/>
       <use xlink:href="#DejaVuSans-30" x="127.246094"/>
      </g>
     </g>
    </g>
    <g id="ytick_5">
     <g id="line2d_13">
      <g>
       <use xlink:href="#m6c25ea3542" x="92.490625" y="69.432115" style="stroke: #000000; stroke-width: 0.8"/>
      </g>
     </g>
     <g id="text_14">
      <!-- 200 -->
      <g transform="translate(47.315625 77.030553) scale(0.2 -0.2)">
       <use xlink:href="#DejaVuSans-32"/>
       <use xlink:href="#DejaVuSans-30" x="63.623047"/>
       <use xlink:href="#DejaVuSans-30" x="127.246094"/>
      </g>
     </g>
    </g>
    <g id="text_15">
     <!-- Loss -->
     <g transform="translate(22.396875 191.970625) rotate(-90) scale(0.2 -0.2)">
      <defs>
       <path id="DejaVuSans-4c" d="M 628 4666 
L 1259 4666 
L 1259 531 
L 3531 531 
L 3531 0 
L 628 0 
L 628 4666 
z
" transform="scale(0.015625)"/>
      </defs>
      <use xlink:href="#DejaVuSans-4c"/>
      <use xlink:href="#DejaVuSans-6f" x="53.962891"/>
      <use xlink:href="#DejaVuSans-73" x="115.144531"/>
      <use xlink:href="#DejaVuSans-73" x="167.244141"/>
     </g>
    </g>
   </g>
   <g id="line2d_14">
    <path d="M 117.854261 116.730416 
L 118.13608 62.430435 
L 118.417898 101.446911 
L 118.699716 97.742273 
L 118.981534 71.891481 
L 119.263352 66.005259 
L 119.54517 53.003453 
L 119.826989 50.572912 
L 120.108807 59.282987 
L 120.390625 64.407922 
L 120.672443 63.027834 
L 121.517898 76.15716 
L 121.799716 51.933022 
L 122.081534 73.641653 
L 122.363352 118.042353 
L 122.64517 125.137272 
L 123.208807 60.941522 
L 123.490625 44.03625 
L 123.772443 52.703352 
L 124.054261 66.415864 
L 124.617898 80.271673 
L 124.899716 77.046844 
L 125.181534 85.974109 
L 125.463352 89.320307 
L 125.74517 99.781725 
L 126.026989 103.629806 
L 126.308807 95.490293 
L 126.590625 93.742179 
L 126.872443 96.556052 
L 127.154261 104.56955 
L 127.43608 103.315712 
L 127.717898 106.314088 
L 127.999716 101.622759 
L 128.281534 103.726444 
L 128.563352 97.099143 
L 128.84517 105.59913 
L 129.126989 102.090241 
L 129.408807 108.846517 
L 129.690625 107.115866 
L 129.972443 107.768741 
L 130.254261 94.854922 
L 130.53608 103.509892 
L 130.817898 99.688151 
L 131.099716 99.279356 
L 131.381534 102.538264 
L 131.663352 101.345011 
L 131.94517 103.441635 
L 132.226989 100.626615 
L 132.508807 103.77917 
L 132.790625 108.446027 
L 133.072443 104.135863 
L 133.354261 113.024366 
L 133.63608 113.256683 
L 133.917898 118.953402 
L 134.199716 121.504437 
L 134.481534 125.536059 
L 134.763352 125.084203 
L 135.04517 124.975704 
L 135.326989 129.12069 
L 135.608807 129.965285 
L 135.890625 127.601113 
L 136.172443 122.813187 
L 136.454261 121.044518 
L 136.73608 125.340201 
L 137.017898 125.222212 
L 137.299716 129.200338 
L 137.581534 126.028649 
L 137.863352 128.68786 
L 138.426989 125.98626 
L 138.708807 127.841862 
L 138.990625 125.227578 
L 139.554261 134.240456 
L 139.83608 133.266292 
L 140.117898 131.370037 
L 140.399716 133.221224 
L 140.681534 131.530508 
L 140.963352 127.304061 
L 141.24517 127.021545 
L 141.526989 131.504403 
L 141.808807 129.12013 
L 142.090625 130.155912 
L 142.372443 129.13671 
L 142.93608 135.649824 
L 143.217898 130.074104 
L 143.499716 129.476486 
L 143.781534 129.449765 
L 144.063352 127.07422 
L 144.626989 128.405043 
L 144.908807 132.155688 
L 145.190625 129.996242 
L 145.472443 130.068832 
L 145.754261 128.264842 
L 146.03608 131.050036 
L 146.317898 130.94195 
L 146.599716 128.470743 
L 146.881534 131.531211 
L 147.163352 131.612299 
L 147.44517 132.350694 
L 147.726989 131.23145 
L 148.008807 134.408219 
L 148.290625 133.259949 
L 148.572443 133.451761 
L 148.854261 135.868165 
L 149.13608 136.567827 
L 149.417898 137.964817 
L 149.699716 137.904629 
L 149.981534 140.59013 
L 150.263352 140.248142 
L 150.54517 142.320233 
L 151.108807 143.305748 
L 151.390625 144.681703 
L 151.672443 144.519549 
L 151.954261 145.240951 
L 152.23608 143.606707 
L 152.517898 147.202116 
L 152.799716 147.401776 
L 153.081534 145.312951 
L 153.363352 147.788315 
L 153.64517 144.771762 
L 153.926989 147.864716 
L 154.208807 144.354608 
L 154.490625 149.00043 
L 154.772443 148.864368 
L 155.054261 147.326535 
L 155.33608 147.287939 
L 155.617898 149.193091 
L 155.899716 147.831455 
L 156.181534 148.825769 
L 156.463352 148.096776 
L 156.74517 148.745121 
L 157.026989 151.093129 
L 157.308807 147.222083 
L 157.590625 147.173949 
L 157.872443 149.684394 
L 158.154261 150.670233 
L 158.43608 150.083711 
L 158.717898 151.347509 
L 158.999716 149.72187 
L 159.281534 149.97145 
L 159.563352 152.818688 
L 159.84517 153.166956 
L 160.126989 151.635056 
L 160.408807 152.261085 
L 160.690625 150.388173 
L 160.972443 149.701996 
L 161.254261 148.135366 
L 161.53608 150.229807 
L 161.817898 149.605711 
L 162.381534 151.22725 
L 162.663352 150.754788 
L 162.94517 152.243257 
L 163.226989 151.654234 
L 163.508807 154.11977 
L 163.790625 155.048733 
L 164.072443 153.344866 
L 164.354261 153.231589 
L 164.63608 154.848303 
L 164.917898 153.800574 
L 165.199716 157.048832 
L 165.481534 156.893901 
L 165.763352 155.884159 
L 166.04517 156.207196 
L 166.608807 155.9323 
L 167.172443 160.584037 
L 167.454261 159.109185 
L 167.73608 160.133137 
L 168.017898 157.417522 
L 168.299716 158.294861 
L 168.581534 157.179436 
L 168.863352 156.74332 
L 169.14517 152.371756 
L 169.426989 154.608543 
L 169.708807 154.732663 
L 169.990625 156.74822 
L 170.272443 153.888262 
L 170.554261 153.0428 
L 170.83608 149.447487 
L 171.117898 149.480507 
L 171.399716 149.219328 
L 172.24517 154.868603 
L 172.526989 153.249777 
L 172.808807 154.622314 
L 173.090625 153.342076 
L 173.372443 153.92423 
L 173.654261 155.062312 
L 173.93608 156.883775 
L 174.217898 155.221922 
L 174.499716 156.801697 
L 175.063352 155.609429 
L 175.34517 154.116463 
L 175.908807 156.80764 
L 176.190625 155.756673 
L 176.472443 156.419443 
L 176.754261 154.641703 
L 177.03608 156.161499 
L 177.317898 154.121002 
L 177.599716 156.645991 
L 177.881534 155.529907 
L 178.163352 156.176916 
L 178.44517 155.396429 
L 178.726989 155.88568 
L 179.008807 155.259632 
L 179.290625 153.799706 
L 179.572443 154.311158 
L 179.854261 153.059434 
L 180.13608 154.648248 
L 180.417898 155.120642 
L 180.699716 153.132141 
L 180.981534 153.483931 
L 181.263352 154.04572 
L 181.54517 154.987186 
L 181.826989 154.816669 
L 182.390625 153.202575 
L 182.672443 153.916273 
L 182.954261 152.705682 
L 183.23608 152.166556 
L 183.517898 152.402338 
L 183.799716 152.180249 
L 184.081534 154.11953 
L 184.363352 152.016894 
L 184.64517 153.003526 
L 184.926989 151.826107 
L 185.208807 152.171399 
L 185.490625 153.165678 
L 185.772443 152.958836 
L 186.054261 151.2627 
L 186.33608 152.237006 
L 186.617898 152.790376 
L 187.181534 149.160309 
L 187.74517 150.86653 
L 188.026989 150.354096 
L 188.308807 149.479063 
L 188.590625 152.676587 
L 188.872443 151.047918 
L 189.154261 152.469854 
L 189.43608 152.266123 
L 189.717898 153.462899 
L 189.999716 154.069147 
L 190.281534 154.003291 
L 190.563352 154.910829 
L 191.126989 155.294215 
L 191.408807 154.960983 
L 191.690625 154.061296 
L 191.972443 155.470938 
L 192.254261 153.968602 
L 192.53608 153.381538 
L 192.817898 153.259493 
L 193.381534 155.292109 
L 193.663352 154.850473 
L 193.94517 155.670758 
L 194.226989 154.673209 
L 194.508807 154.525595 
L 194.790625 155.551714 
L 195.072443 155.152165 
L 195.63608 157.010189 
L 195.917898 156.050296 
L 196.199716 155.985973 
L 196.763352 156.386478 
L 197.04517 157.272418 
L 197.326989 156.749003 
L 197.608807 157.107192 
L 197.890625 157.119295 
L 198.172443 157.761971 
L 198.454261 157.134318 
L 198.73608 156.145483 
L 199.017898 158.606781 
L 199.299716 157.442978 
L 199.581534 157.059694 
L 199.863352 157.835689 
L 200.14517 157.316152 
L 200.708807 157.854228 
L 200.990625 159.260742 
L 201.272443 158.661202 
L 201.554261 158.869777 
L 201.83608 159.238682 
L 202.117898 160.284156 
L 202.399716 159.663591 
L 202.681534 159.433966 
L 202.963352 159.789577 
L 203.526989 159.882359 
L 203.808807 160.25701 
L 204.090625 161.289905 
L 204.372443 158.838544 
L 204.654261 159.924778 
L 205.217898 160.777332 
L 205.499716 162.658706 
L 205.781534 162.11453 
L 206.063352 162.229981 
L 206.34517 160.98345 
L 206.908807 163.379221 
L 207.190625 163.181533 
L 207.472443 163.880014 
L 207.754261 163.180675 
L 208.317898 162.823045 
L 208.599716 162.673332 
L 208.881534 164.01015 
L 209.163352 163.898086 
L 209.44517 163.587924 
L 209.726989 163.629103 
L 210.008807 164.448835 
L 210.290625 164.678214 
L 210.572443 165.504125 
L 210.854261 164.692579 
L 211.13608 166.342899 
L 211.417898 167.152715 
L 211.699716 165.965846 
L 211.981534 167.413876 
L 212.263352 166.665451 
L 212.54517 166.885093 
L 213.108807 165.964408 
L 213.390625 165.434706 
L 213.672443 165.631563 
L 213.954261 166.035931 
L 214.23608 165.705315 
L 214.799716 166.525807 
L 215.081534 166.210813 
L 215.363352 166.169597 
L 215.64517 166.418649 
L 215.926989 165.309747 
L 216.208807 165.436775 
L 216.490625 166.031096 
L 216.772443 165.914072 
L 217.054261 167.508869 
L 217.33608 166.783678 
L 217.617898 166.803441 
L 217.899716 166.419973 
L 218.181534 165.84882 
L 218.463352 166.801295 
L 218.74517 166.075255 
L 219.308807 167.123316 
L 219.590625 167.002987 
L 219.872443 167.874705 
L 220.154261 167.313398 
L 220.43608 168.063886 
L 220.999716 167.5642 
L 221.281534 168.792709 
L 221.563352 168.642832 
L 221.84517 167.815961 
L 222.126989 168.876404 
L 222.690625 169.44384 
L 222.972443 169.245245 
L 223.254261 169.40812 
L 223.53608 169.727721 
L 224.381534 169.380179 
L 224.663352 168.682531 
L 224.94517 168.772326 
L 225.226989 169.343754 
L 225.508807 168.172043 
L 225.790625 168.854283 
L 226.63608 169.872072 
L 226.917898 169.938352 
L 227.199716 169.719371 
L 227.481534 168.183161 
L 227.763352 169.845163 
L 228.04517 169.297504 
L 228.326989 170.613594 
L 229.172443 170.480542 
L 229.454261 170.525653 
L 229.73608 169.977587 
L 230.017898 170.364696 
L 230.299716 169.181846 
L 230.581534 170.062413 
L 230.863352 168.886077 
L 231.14517 169.394782 
L 231.426989 169.662922 
L 231.708807 170.145244 
L 231.990625 169.927706 
L 232.272443 170.004292 
L 232.554261 169.875281 
L 232.83608 168.776072 
L 233.117898 168.991334 
L 233.399716 170.365659 
L 233.681534 171.176641 
L 233.963352 171.202022 
L 234.24517 170.910612 
L 234.808807 170.81527 
L 235.090625 171.004884 
L 235.372443 170.949 
L 235.654261 171.33907 
L 235.93608 170.94787 
L 236.217898 171.197713 
L 236.499716 171.714517 
L 236.781534 171.475357 
L 237.063352 171.483979 
L 237.908807 171.036587 
L 238.190625 171.608698 
L 238.472443 171.845687 
L 238.754261 170.643028 
L 239.03608 170.670747 
L 239.317898 171.285834 
L 239.599716 170.540197 
L 239.881534 171.206933 
L 240.163352 171.295074 
L 240.44517 170.80643 
L 240.726989 170.955732 
L 241.008807 171.29138 
L 241.290625 171.91542 
L 241.572443 170.798087 
L 242.13608 172.396778 
L 242.417898 171.585403 
L 242.699716 171.605385 
L 242.981534 171.166604 
L 243.263352 172.321859 
L 243.54517 172.257516 
L 243.826989 173.085883 
L 244.390625 172.209607 
L 244.672443 172.172332 
L 244.954261 172.281268 
L 245.23608 172.82213 
L 245.799716 172.079089 
L 246.081534 172.578862 
L 246.363352 172.245953 
L 246.64517 172.597846 
L 246.926989 172.410781 
L 247.208807 172.673752 
L 247.490625 172.11368 
L 247.772443 172.760862 
L 248.054261 172.901058 
L 248.33608 172.8115 
L 248.617898 172.944725 
L 248.899716 172.884963 
L 249.181534 173.067699 
L 249.463352 172.387809 
L 249.74517 172.65821 
L 250.026989 172.570902 
L 250.308807 173.384998 
L 250.590625 172.353634 
L 250.872443 172.340497 
L 251.154261 172.085243 
L 251.717898 173.137002 
L 251.999716 172.492417 
L 252.563352 172.834667 
L 252.84517 172.629771 
L 253.126989 172.593443 
L 253.408807 172.907705 
L 253.690625 172.320619 
L 253.972443 172.453421 
L 254.254261 172.330282 
L 254.53608 172.595965 
L 254.817898 172.528293 
L 255.099716 172.861315 
L 255.381534 172.896261 
L 255.663352 173.496203 
L 256.226989 172.827251 
L 256.508807 173.139689 
L 256.790625 173.266205 
L 257.072443 173.642314 
L 257.354261 173.416752 
L 257.63608 172.83362 
L 257.917898 172.80055 
L 258.199716 172.93646 
L 258.481534 173.231901 
L 258.763352 173.197898 
L 259.04517 173.481921 
L 259.326989 173.240156 
L 260.172443 173.864126 
L 260.454261 173.678847 
L 260.73608 173.868298 
L 261.017898 173.729008 
L 261.299716 173.863457 
L 261.581534 173.579213 
L 261.863352 173.71759 
L 262.14517 173.392521 
L 262.426989 174.005318 
L 262.990625 174.1466 
L 263.272443 173.144914 
L 263.554261 173.671143 
L 264.117898 174.144585 
L 264.399716 174.019534 
L 264.681534 173.687268 
L 265.24517 174.288035 
L 265.526989 174.1292 
L 265.808807 174.242572 
L 266.090625 174.970998 
L 266.372443 174.148864 
L 266.654261 174.472383 
L 266.93608 173.912354 
L 267.217898 174.929903 
L 267.499716 174.810248 
L 267.781534 174.379742 
L 268.626989 173.893045 
L 268.908807 173.93676 
L 269.190625 174.381656 
L 269.754261 174.031575 
L 270.03608 173.335467 
L 270.317898 174.324617 
L 270.599716 174.571458 
L 270.881534 174.284473 
L 271.163352 175.075052 
L 271.44517 174.592264 
L 272.008807 174.200782 
L 272.290625 174.356521 
L 272.572443 174.179814 
L 272.854261 174.241436 
L 273.13608 174.705087 
L 273.417898 174.679353 
L 273.699716 175.121293 
L 273.981534 175.179036 
L 274.263352 174.430687 
L 274.54517 174.649242 
L 274.826989 175.257114 
L 275.108807 175.436165 
L 275.390625 175.287799 
L 275.672443 174.561613 
L 275.954261 174.723566 
L 276.23608 174.37005 
L 276.517898 174.652566 
L 276.799716 174.067515 
L 277.081534 174.41544 
L 277.363352 174.313536 
L 277.64517 173.964429 
L 277.926989 175.090529 
L 278.208807 174.400231 
L 278.490625 174.447379 
L 278.772443 174.233904 
L 279.054261 174.975875 
L 279.33608 174.326316 
L 279.617898 175.300385 
L 279.899716 174.82901 
L 280.463352 175.127618 
L 281.026989 174.46174 
L 281.308807 174.729816 
L 281.590625 174.81318 
L 281.872443 175.237349 
L 282.154261 175.075744 
L 282.43608 175.140725 
L 282.717898 175.423618 
L 282.999716 175.255391 
L 283.281534 174.372277 
L 283.563352 175.023375 
L 284.408807 174.296632 
L 284.690625 174.415329 
L 284.972443 174.011729 
L 285.254261 173.923366 
L 285.53608 174.913864 
L 285.817898 174.884597 
L 286.099716 174.594898 
L 286.381534 175.163894 
L 286.663352 174.999425 
L 286.94517 174.408347 
L 287.226989 174.79119 
L 287.790625 174.39759 
L 288.072443 174.925129 
L 288.354261 175.055533 
L 289.199716 174.800814 
L 289.481534 174.936818 
L 289.763352 174.810069 
L 290.04517 174.461777 
L 290.326989 174.900441 
L 290.608807 174.840383 
L 290.890625 174.327729 
L 291.172443 174.398339 
L 291.454261 174.61807 
L 291.73608 174.995317 
L 292.017898 174.346549 
L 292.299716 174.179704 
L 292.863352 174.718233 
L 293.14517 174.316179 
L 293.426989 174.535876 
L 293.708807 174.370798 
L 293.990625 174.537744 
L 294.554261 175.518156 
L 294.83608 175.645277 
L 295.117898 175.611891 
L 295.399716 175.052068 
L 295.681534 174.974856 
L 295.963352 175.427324 
L 296.24517 175.271629 
L 296.526989 175.61701 
L 296.808807 175.247906 
L 297.090625 175.294735 
L 297.654261 175.89879 
L 297.93608 176.077742 
L 298.499716 175.413471 
L 298.781534 175.623908 
L 299.063352 175.198067 
L 299.626989 175.44581 
L 299.908807 175.927804 
L 300.190625 175.219054 
L 300.472443 175.687479 
L 300.754261 175.794876 
L 301.03608 175.43702 
L 301.317898 175.328583 
L 302.44517 175.825537 
L 302.726989 176.583016 
L 303.290625 176.896142 
L 303.854261 175.911554 
L 304.13608 176.351337 
L 304.417898 176.181965 
L 304.699716 175.349774 
L 304.981534 176.114277 
L 305.263352 176.114064 
L 305.54517 176.672723 
L 306.108807 176.794847 
L 306.390625 176.325163 
L 306.672443 176.152382 
L 306.954261 176.214148 
L 307.23608 176.505449 
L 307.517898 176.472516 
L 307.799716 176.315092 
L 308.081534 176.027412 
L 308.363352 175.987551 
L 308.64517 176.178034 
L 309.208807 175.706594 
L 309.490625 175.723933 
L 309.772443 175.382591 
L 310.33608 176.010723 
L 310.617898 176.041978 
L 311.181534 175.815828 
L 311.463352 175.496626 
L 311.74517 175.553821 
L 312.026989 175.759455 
L 312.590625 175.844381 
L 312.872443 175.513322 
L 313.154261 175.601948 
L 313.43608 175.865583 
L 313.717898 175.970531 
L 314.281534 175.09015 
L 314.563352 174.097807 
L 314.84517 173.960914 
L 315.126989 175.204017 
L 315.408807 175.655793 
L 315.690625 175.423121 
L 315.972443 175.631669 
L 316.254261 175.399722 
L 316.817898 176.051574 
L 317.099716 175.853567 
L 317.381534 175.970963 
L 317.663352 175.320615 
L 317.94517 175.441648 
L 318.508807 174.876387 
L 318.790625 174.870139 
L 319.072443 175.364116 
L 319.354261 174.282222 
L 319.63608 175.180443 
L 319.917898 175.13155 
L 320.199716 173.969377 
L 320.481534 174.97548 
L 320.763352 175.185995 
L 321.04517 175.592498 
L 321.326989 174.224 
L 321.608807 174.801255 
L 321.890625 174.91318 
L 322.172443 174.655643 
L 322.73608 175.51598 
L 323.017898 174.805268 
L 323.299716 174.946519 
L 323.581534 174.673955 
L 323.863352 175.576337 
L 324.14517 175.910655 
L 324.708807 174.921067 
L 324.990625 175.43875 
L 325.272443 174.862004 
L 325.554261 175.643429 
L 325.83608 175.346209 
L 326.117898 175.821889 
L 326.399716 175.425669 
L 326.963352 175.266382 
L 327.24517 175.036475 
L 327.526989 175.681982 
L 328.372443 174.957426 
L 328.654261 175.009111 
L 328.93608 175.237253 
L 329.217898 175.090847 
L 329.499716 175.476843 
L 329.781534 175.38795 
L 330.063352 175.687296 
L 330.34517 175.334876 
L 330.626989 175.78399 
L 330.908807 175.347002 
L 331.190625 175.32446 
L 331.472443 175.159546 
L 331.754261 175.583069 
L 332.03608 175.228515 
L 332.317898 176.02991 
L 332.599716 175.340675 
L 332.881534 175.748797 
L 333.163352 175.759824 
L 333.44517 175.502586 
L 333.726989 175.409135 
L 334.008807 175.853548 
L 334.290625 175.920658 
L 334.854261 175.379425 
L 335.13608 176.221307 
L 335.417898 175.55776 
L 335.699716 175.671852 
L 335.981534 176.33195 
L 336.826989 175.693488 
L 337.108807 175.451603 
L 337.390625 176.452433 
L 337.672443 176.21655 
L 337.954261 176.977168 
L 338.23608 175.887416 
L 338.517898 176.256904 
L 338.799716 176.362777 
L 339.081534 175.833331 
L 339.64517 175.793318 
L 339.926989 176.410457 
L 340.208807 176.010869 
L 340.490625 175.973294 
L 341.054261 175.635988 
L 341.33608 175.867813 
L 341.617898 175.84295 
L 342.463352 176.530575 
L 342.74517 175.556151 
L 343.026989 176.013475 
L 343.308807 176.017003 
L 343.590625 176.345195 
L 343.872443 175.139508 
L 344.43608 175.377084 
L 344.717898 175.782979 
L 344.999716 175.4227 
L 345.281534 175.800744 
L 345.563352 175.668727 
L 345.84517 175.788994 
L 346.126989 175.527982 
L 346.690625 175.857657 
L 347.817898 175.85444 
L 348.099716 175.697297 
L 348.381534 176.20142 
L 348.94517 175.237599 
L 349.226989 175.776461 
L 349.790625 175.51335 
L 350.072443 175.51361 
L 350.354261 175.284847 
L 350.63608 175.988658 
L 350.917898 175.15682 
L 351.199716 175.828069 
L 351.481534 175.4534 
L 351.763352 175.76782 
L 352.608807 175.604725 
L 352.890625 175.797928 
L 353.172443 175.773003 
L 353.454261 175.578627 
L 353.73608 175.859677 
L 354.017898 175.333468 
L 354.299716 175.829719 
L 354.581534 175.65768 
L 355.14517 175.757424 
L 355.426989 176.020463 
L 355.708807 175.659318 
L 355.990625 175.960948 
L 356.272443 175.952687 
L 356.554261 176.320597 
L 356.83608 175.984955 
L 357.117898 176.126386 
L 357.399716 175.913653 
L 357.681534 175.519525 
L 357.963352 175.791608 
L 358.24517 175.351093 
L 358.526989 175.282828 
L 358.808807 175.970826 
L 359.090625 175.400552 
L 359.372443 175.178384 
L 359.654261 175.532004 
L 360.217898 175.742053 
L 360.499716 175.876546 
L 360.781534 175.29351 
L 361.626989 175.80121 
L 361.908807 175.731596 
L 362.190625 176.07433 
L 362.472443 175.832862 
L 363.03608 175.590428 
L 363.317898 175.82564 
L 363.599716 175.881331 
L 363.881534 176.103466 
L 364.163352 175.817807 
L 364.726989 175.589772 
L 365.572443 175.276529 
L 365.854261 174.986334 
L 366.699716 175.154045 
L 366.981534 174.90375 
L 367.263352 175.098655 
L 367.54517 174.969489 
L 367.826989 175.503733 
L 368.108807 174.699281 
L 368.390625 174.830775 
L 368.672443 174.606166 
L 368.954261 174.633752 
L 369.23608 174.794433 
L 369.517898 175.391126 
L 369.799716 174.277606 
L 370.64517 174.969307 
L 370.926989 174.620509 
L 371.208807 174.539502 
L 371.490625 174.604974 
L 371.772443 174.23742 
L 372.054261 174.810782 
L 372.33608 175.007167 
L 372.617898 174.51024 
L 372.899716 174.737232 
L 373.463352 174.761644 
L 373.74517 174.322663 
L 374.026989 174.866683 
L 374.590625 174.71044 
L 374.872443 174.335361 
L 375.154261 174.262668 
L 375.43608 174.890004 
L 375.717898 174.503134 
L 375.999716 174.750501 
L 376.281534 174.163995 
L 376.563352 175.057433 
L 377.126989 175.289857 
L 377.972443 175.032269 
L 378.53608 174.917818 
L 378.817898 175.166812 
L 379.099716 174.878764 
L 379.381534 174.897581 
L 379.94517 175.763753 
L 380.226989 175.513465 
L 380.508807 176.060368 
L 380.790625 175.325711 
L 381.072443 175.853369 
L 381.63608 174.817698 
L 381.917898 175.369934 
L 382.199716 174.990136 
L 382.481534 175.154369 
L 382.763352 175.499432 
L 383.04517 175.659211 
L 383.326989 175.602143 
L 383.890625 175.101298 
L 384.172443 175.393486 
L 384.454261 175.477245 
L 385.017898 175.065682 
L 385.299716 175.310346 
L 385.581534 175.089074 
L 385.863352 174.589455 
L 386.14517 175.020915 
L 386.426989 174.789942 
L 386.708807 175.170339 
L 386.990625 174.946715 
L 388.117898 174.91047 
L 388.681534 175.034176 
L 389.24517 174.7419 
L 389.526989 175.353119 
L 389.808807 174.799489 
L 390.090625 175.076352 
L 390.372443 175.054057 
L 390.654261 175.155637 
L 390.93608 175.007391 
L 391.781534 175.080506 
L 392.063352 175.45836 
L 392.34517 175.097267 
L 392.626989 175.103046 
L 392.908807 174.84033 
L 393.472443 175.588443 
L 393.754261 175.226543 
L 394.317898 175.090935 
L 394.599716 175.331811 
L 395.44517 175.065495 
L 395.726989 175.659041 
L 396.008807 174.817642 
L 396.290625 175.154506 
L 397.13608 175.271672 
L 397.417898 175.981782 
L 398.263352 175.099164 
L 398.54517 175.10675 
L 398.826989 174.819697 
L 399.108807 175.458157 
L 399.390625 175.075811 
L 399.672443 175.090511 
L 399.954261 174.59064 
L 400.799716 175.066074 
L 401.081534 174.907704 
L 401.363352 175.031484 
L 401.64517 174.974791 
L 401.926989 175.370817 
L 402.208807 175.277961 
L 402.490625 175.574394 
L 402.772443 175.621487 
L 403.33608 175.01501 
L 403.617898 175.226884 
L 403.899716 175.197485 
L 404.181534 175.563862 
L 404.74517 175.056835 
L 405.026989 175.087308 
L 405.590625 176.028915 
L 405.872443 175.482654 
L 406.43608 175.421469 
L 406.717898 175.655308 
L 406.999716 175.350954 
L 407.281534 175.284323 
L 407.563352 175.867679 
L 407.84517 175.623143 
L 408.126989 175.74287 
L 408.408807 176.090551 
L 408.690625 175.536243 
L 408.972443 175.437969 
L 409.254261 175.585184 
L 409.817898 175.407295 
L 410.099716 175.396844 
L 410.381534 175.512791 
L 410.663352 175.506006 
L 410.94517 175.677124 
L 411.508807 175.620495 
L 411.790625 175.912077 
L 412.072443 175.748044 
L 412.354261 175.907883 
L 412.63608 175.842888 
L 412.917898 175.570896 
L 413.199716 175.719322 
L 413.481534 175.366759 
L 413.763352 175.554968 
L 414.326989 175.619115 
L 414.608807 175.734084 
L 415.172443 175.418141 
L 415.454261 175.665256 
L 415.73608 175.42406 
L 416.299716 175.794127 
L 416.581534 175.439307 
L 416.863352 175.374074 
L 417.426989 175.81214 
L 417.708807 175.170856 
L 418.272443 176.05492 
L 418.554261 175.800837 
L 418.83608 176.17742 
L 419.117898 176.098905 
L 419.399716 175.668089 
L 419.681534 175.762785 
L 420.526989 175.407749 
L 420.808807 175.401051 
L 421.090625 175.14226 
L 421.372443 175.453254 
L 421.654261 175.296474 
L 422.499716 175.843262 
L 423.063352 175.359082 
L 423.34517 175.553939 
L 423.626989 175.953125 
L 423.908807 175.649579 
L 424.190625 175.86551 
L 424.472443 175.538244 
L 424.754261 175.60639 
L 425.03608 175.239481 
L 425.599716 175.029724 
L 425.881534 175.358277 
L 426.163352 175.38395 
L 426.44517 175.705881 
L 427.008807 175.534206 
L 427.572443 175.979912 
L 427.854261 175.951493 
L 428.13608 175.451366 
L 428.417898 175.692163 
L 428.699716 175.154082 
L 428.981534 175.62435 
L 429.263352 175.801177 
L 429.826989 175.250213 
L 430.108807 175.269055 
L 430.390625 175.004577 
L 430.672443 175.243714 
L 431.23608 175.222212 
L 431.517898 174.925321 
L 431.799716 175.719609 
L 432.081534 175.018409 
L 432.363352 174.866172 
L 432.926989 175.126445 
L 433.772443 175.063008 
L 434.054261 175.164063 
L 434.33608 175.082637 
L 434.617898 174.753869 
L 434.899716 175.529251 
L 435.181534 174.745589 
L 435.463352 175.200306 
L 435.74517 174.640105 
L 436.308807 174.773496 
L 436.590625 174.628807 
L 436.872443 174.816999 
L 437.154261 174.320973 
L 437.43608 174.891058 
L 437.717898 174.758141 
L 437.999716 175.333721 
L 438.281534 174.615325 
L 438.563352 174.957255 
L 438.84517 174.519125 
L 439.126989 174.369485 
L 439.972443 174.871741 
L 440.254261 174.476228 
L 441.099716 174.865028 
L 441.381534 174.663183 
L 441.663352 174.300513 
L 441.94517 174.332176 
L 442.226989 174.122625 
L 442.508807 174.063657 
L 442.790625 174.617358 
L 443.354261 174.055997 
L 443.63608 174.793337 
L 443.917898 174.703346 
L 444.481534 173.79846 
L 444.763352 174.224563 
L 445.04517 173.957166 
L 445.326989 174.163236 
L 445.608807 174.076515 
L 445.890625 174.60678 
L 446.172443 174.63188 
L 446.454261 174.09173 
L 446.73608 174.231991 
L 447.017898 174.029099 
L 447.581534 174.196165 
L 447.863352 173.860625 
L 448.14517 174.039714 
L 448.426989 174.080424 
L 448.708807 174.535802 
L 448.990625 174.68288 
L 449.272443 174.496243 
L 450.117898 174.624444 
L 450.399716 175.370094 
L 450.681534 175.459105 
L 450.963352 175.062151 
L 451.24517 175.70813 
L 451.526989 175.378239 
L 451.808807 175.605805 
L 452.090625 175.415055 
L 452.372443 175.426081 
L 452.654261 175.671406 
L 453.499716 175.141591 
L 453.781534 175.120498 
L 454.063352 175.228699 
L 454.626989 175.126698 
L 454.908807 175.180075 
L 455.190625 175.114895 
L 455.472443 175.495082 
L 455.754261 175.249774 
L 456.317898 175.353477 
L 456.599716 175.104242 
L 456.881534 175.302763 
L 457.163352 175.137802 
L 457.44517 175.286 
L 457.726989 174.993177 
L 458.008807 175.069556 
L 458.290625 174.911829 
L 458.572443 175.487017 
L 458.854261 175.348699 
L 459.13608 174.875487 
L 459.417898 175.107768 
L 459.699716 175.009889 
L 459.981534 175.148257 
L 460.263352 174.844329 
L 460.54517 174.962495 
L 460.826989 174.917892 
L 461.108807 174.723767 
L 461.390625 175.071114 
L 461.672443 175.143572 
L 462.23608 174.715026 
L 462.517898 174.857994 
L 463.081534 174.403719 
L 463.926989 174.587568 
L 464.208807 174.70854 
L 464.490625 174.958381 
L 464.772443 174.865504 
L 465.054261 175.156834 
L 465.617898 174.812023 
L 465.899716 175.153412 
L 466.181534 174.694456 
L 466.463352 175.073319 
L 466.74517 174.532314 
L 467.308807 174.548813 
L 467.590625 174.19441 
L 467.872443 174.577263 
L 468.154261 174.607275 
L 468.717898 174.430975 
L 469.281534 174.944196 
L 469.563352 174.943773 
L 469.84517 175.128253 
L 470.126989 174.756729 
L 470.408807 174.867139 
L 470.690625 174.271487 
L 471.254261 174.795752 
L 471.53608 174.594237 
L 471.817898 174.686828 
L 472.099716 174.967619 
L 472.663352 175.112421 
L 472.94517 174.799983 
L 473.508807 175.050415 
L 473.790625 174.966384 
L 474.354261 175.142008 
L 474.63608 174.940542 
L 474.917898 174.901938 
L 475.199716 175.041994 
L 475.481534 174.448311 
L 475.763352 174.955053 
L 476.04517 174.588529 
L 476.326989 174.582603 
L 476.608807 175.09925 
L 476.890625 174.769751 
L 477.172443 174.624125 
L 477.454261 174.763725 
L 478.299716 174.804461 
L 478.581534 174.839987 
L 478.863352 175.24804 
L 479.14517 174.811241 
L 479.426989 174.790241 
L 479.708807 174.615793 
L 479.990625 175.098092 
L 480.272443 174.706094 
L 480.554261 175.053526 
L 481.399716 174.658289 
L 481.963352 175.04318 
L 482.24517 174.987099 
L 482.808807 174.469332 
L 483.090625 174.094224 
L 483.93608 174.711585 
L 484.217898 174.852807 
L 484.781534 174.893967 
L 485.063352 174.348255 
L 485.626989 174.325425 
L 485.908807 174.577391 
L 486.190625 174.499028 
L 486.472443 174.940602 
L 486.754261 174.680428 
L 487.03608 174.775048 
L 487.317898 174.083276 
L 487.599716 174.597451 
L 487.881534 174.431522 
L 488.163352 174.893013 
L 488.44517 175.00367 
L 488.726989 174.67851 
L 489.008807 174.998638 
L 489.290625 175.097126 
L 489.572443 174.55285 
L 489.854261 174.432433 
L 490.13608 174.880158 
L 490.417898 174.638881 
L 490.699716 174.889929 
L 490.981534 175.365795 
L 491.263352 174.846776 
L 491.54517 175.294389 
L 491.826989 175.221588 
L 492.108807 175.351925 
L 492.672443 174.967717 
L 492.954261 174.865309 
L 493.23608 175.17812 
L 493.517898 174.70866 
L 493.799716 175.115616 
L 494.081534 175.295787 
L 494.64517 175.296309 
L 495.208807 175.137059 
L 495.490625 175.597111 
L 495.772443 175.39247 
L 496.054261 175.470972 
L 496.33608 175.22056 
L 496.617898 175.179252 
L 496.899716 175.262955 
L 497.181534 175.028791 
L 497.463352 175.606401 
L 497.74517 175.388649 
L 498.026989 174.96081 
L 498.308807 175.232376 
L 498.590625 175.022308 
L 498.872443 175.253861 
L 499.154261 174.939458 
L 499.43608 174.826633 
L 499.717898 175.216153 
L 499.999716 175.147765 
L 500.281534 175.453132 
L 500.84517 175.185711 
L 501.126989 175.289441 
L 501.408807 174.992861 
L 501.690625 175.043686 
L 501.972443 174.870666 
L 502.53608 175.337491 
L 502.817898 174.688911 
L 503.099716 174.941765 
L 503.381534 175.380579 
L 503.663352 174.959569 
L 503.94517 175.218896 
L 504.226989 174.785331 
L 504.508807 174.960916 
L 504.790625 174.774772 
L 505.63608 175.375697 
L 505.917898 174.951433 
L 506.481534 174.723969 
L 506.763352 174.871619 
L 507.04517 174.747094 
L 507.326989 174.815317 
L 507.608807 175.238504 
L 507.890625 175.158214 
L 508.172443 175.248126 
L 508.454261 175.016585 
L 508.73608 175.042835 
L 509.017898 174.643303 
L 509.299716 175.422416 
L 509.581534 175.322629 
L 509.863352 175.09364 
L 510.14517 175.064613 
L 510.426989 175.203828 
L 510.708807 174.96301 
L 510.990625 175.07807 
L 511.272443 175.620663 
L 511.554261 175.166139 
L 511.83608 175.048569 
L 512.399716 175.248919 
L 512.681534 175.615296 
L 513.526989 175.100458 
L 513.808807 175.251338 
L 514.090625 175.545411 
L 514.372443 175.364173 
L 514.93608 175.672359 
L 515.499716 175.086736 
L 515.781534 175.632781 
L 516.34517 176.064291 
L 516.626989 175.514316 
L 516.908807 175.343734 
L 517.190625 174.895813 
L 517.472443 175.439754 
L 517.754261 175.14674 
L 518.03608 175.634281 
L 518.317898 175.039696 
L 518.599716 174.964348 
L 518.881534 175.69932 
L 519.163352 175.296152 
L 519.44517 175.337905 
L 520.008807 175.951326 
L 520.290625 175.600356 
L 520.572443 175.888594 
L 520.854261 175.617654 
L 521.13608 175.871485 
L 521.699716 175.363879 
L 521.981534 175.649272 
L 522.263352 175.56723 
L 522.54517 175.802924 
L 523.108807 174.882236 
L 523.390625 175.344673 
L 523.954261 175.385966 
L 524.23608 175.078017 
L 524.517898 175.473733 
L 524.799716 175.124845 
L 525.081534 175.283917 
L 525.363352 175.792895 
L 525.64517 175.597265 
L 525.926989 175.173999 
L 526.772443 175.756028 
L 527.054261 175.554913 
L 527.33608 175.763851 
L 527.617898 175.301956 
L 528.181534 175.408335 
L 528.463352 175.208986 
L 528.74517 175.588446 
L 529.308807 175.480746 
L 529.590625 175.678893 
L 530.154261 175.479779 
L 530.43608 175.592575 
L 530.717898 175.331644 
L 530.999716 175.474381 
L 531.281534 175.473202 
L 531.563352 175.676392 
L 531.84517 175.311062 
L 532.126989 175.55298 
L 532.408807 175.239088 
L 532.690625 175.580171 
L 532.972443 175.507804 
L 533.254261 175.763151 
L 533.53608 175.576982 
L 533.817898 175.615082 
L 534.099716 175.856428 
L 534.381534 175.758517 
L 534.663352 176.070196 
L 534.94517 175.663719 
L 535.226989 175.762353 
L 535.508807 176.021927 
L 536.072443 175.72439 
L 536.63608 175.81963 
L 536.917898 175.614079 
L 537.199716 175.777816 
L 538.326989 175.618249 
L 538.608807 175.885414 
L 538.890625 175.545019 
L 539.172443 175.940653 
L 539.454261 175.450501 
L 539.73608 175.797207 
L 540.017898 175.852539 
L 540.581534 175.214069 
L 540.863352 175.676092 
L 541.14517 175.702748 
L 541.426989 175.518764 
L 541.708807 175.673419 
L 541.990625 175.624572 
L 542.272443 175.450378 
L 542.554261 176.021336 
L 542.83608 175.617465 
L 543.117898 175.528101 
L 543.399716 175.890892 
L 543.963352 175.527386 
L 544.24517 175.609489 
L 544.526989 175.83111 
L 544.808807 175.320427 
L 545.090625 175.442482 
L 545.372443 175.173037 
L 545.93608 175.311092 
L 546.217898 175.761221 
L 546.781534 175.493672 
L 547.063352 175.719575 
L 547.34517 175.445867 
L 547.626989 175.549888 
L 547.908807 175.3331 
L 548.190625 174.806685 
L 548.472443 175.158016 
L 548.754261 175.32919 
L 549.03608 175.681753 
L 549.317898 175.427869 
L 549.599716 175.728936 
L 550.163352 175.378389 
L 550.44517 175.674792 
L 550.726989 175.419796 
L 551.008807 175.855168 
L 551.290625 175.293996 
L 551.572443 175.926299 
L 551.854261 175.704351 
L 552.13608 175.698299 
L 552.417898 175.837231 
L 552.981534 175.900627 
L 553.263352 175.645392 
L 553.54517 175.754482 
L 553.826989 175.337907 
L 554.390625 176.020574 
L 554.672443 175.48677 
L 554.954261 175.825988 
L 555.23608 175.702732 
L 555.517898 175.95259 
L 555.799716 175.568646 
L 556.081534 175.422245 
L 556.363352 175.461458 
L 556.64517 175.8291 
L 557.772443 175.372926 
L 558.054261 175.484833 
L 558.33608 175.732042 
L 558.617898 175.717323 
L 558.899716 175.919078 
L 559.181534 175.958051 
L 559.74517 175.4555 
L 560.026989 175.7029 
L 560.590625 175.291253 
L 560.872443 176.052325 
L 561.154261 175.674892 
L 561.43608 175.646451 
L 562.281534 175.211757 
L 562.84517 176.101548 
L 563.126989 175.52758 
L 563.408807 175.994913 
L 563.690625 175.446995 
L 563.972443 175.960564 
L 564.254261 175.36042 
L 564.53608 175.57811 
L 565.099716 175.236235 
L 565.381534 175.6112 
L 565.663352 175.769327 
L 565.94517 175.610343 
L 566.790625 176.176888 
L 567.072443 175.810729 
L 567.63608 175.599074 
L 567.917898 175.515889 
L 568.199716 175.709597 
L 568.481534 176.087347 
L 568.763352 175.526378 
L 569.04517 175.976907 
L 569.326989 175.574563 
L 569.608807 175.990661 
L 569.890625 175.703629 
L 570.172443 175.944771 
L 570.454261 175.67491 
L 571.017898 175.655113 
L 571.299716 175.271597 
L 571.581534 175.5247 
L 571.863352 175.2768 
L 572.14517 175.492061 
L 572.708807 175.41336 
L 572.990625 175.240543 
L 573.272443 175.222218 
L 573.554261 175.374513 
L 573.83608 175.369879 
L 574.117898 175.146569 
L 574.681534 175.365489 
L 574.963352 175.217246 
L 575.24517 175.468609 
L 575.526989 175.332125 
L 575.808807 175.569691 
L 576.090625 175.436751 
L 576.372443 175.554806 
L 576.654261 175.465363 
L 576.93608 175.147203 
L 577.217898 175.209791 
L 577.499716 175.796975 
L 578.063352 175.125351 
L 578.34517 175.028371 
L 578.626989 175.519863 
L 579.190625 175.330491 
L 579.472443 175.709775 
L 579.754261 175.400471 
L 580.03608 175.286301 
L 580.317898 175.634823 
L 580.599716 175.152263 
L 580.881534 175.488832 
L 581.163352 175.156415 
L 581.44517 175.065273 
L 581.726989 175.594939 
L 582.008807 175.280251 
L 582.290625 175.173711 
L 582.854261 175.347285 
L 583.13608 174.88341 
L 583.417898 175.315185 
L 583.699716 175.153648 
L 583.981534 175.311707 
L 584.263352 174.980719 
L 584.54517 175.43016 
L 585.108807 174.994788 
L 585.390625 175.190922 
L 585.672443 175.233395 
L 585.954261 174.958145 
L 586.23608 175.019971 
L 586.517898 175.224512 
L 587.64517 175.280177 
L 587.926989 174.983173 
L 588.208807 175.04256 
L 588.772443 174.795303 
L 589.054261 175.040323 
L 589.617898 175.039494 
L 589.899716 174.894217 
L 590.181534 175.130132 
L 590.74517 174.886693 
L 591.026989 175.418204 
L 591.308807 175.080755 
L 591.590625 175.327428 
L 591.872443 175.146726 
L 592.154261 174.757201 
L 592.43608 175.058716 
L 592.717898 175.186683 
L 592.999716 174.70871 
L 593.281534 175.295124 
L 593.563352 175.234571 
L 593.84517 174.978478 
L 594.408807 175.317456 
L 594.972443 174.852633 
L 595.254261 175.227384 
L 595.817898 175.062411 
L 596.099716 174.836441 
L 596.381534 175.143298 
L 596.663352 174.98913 
L 596.94517 175.282811 
L 597.226989 175.006385 
L 597.508807 175.049566 
L 597.790625 174.932634 
L 598.072443 175.322024 
L 598.354261 174.734692 
L 598.63608 174.906168 
L 598.917898 174.784093 
L 599.199716 175.036994 
L 599.481534 174.896105 
L 600.04517 174.994199 
L 600.326989 174.666352 
L 600.608807 175.248922 
L 601.172443 174.835809 
L 601.454261 174.952742 
L 601.73608 174.645795 
L 602.017898 174.763874 
L 602.299716 174.653879 
L 602.581534 174.78039 
L 602.863352 175.108591 
L 603.14517 174.385839 
L 603.708807 174.585023 
L 603.990625 174.448388 
L 604.272443 174.603571 
L 604.554261 174.270432 
L 604.83608 174.363748 
L 605.117898 174.633236 
L 605.399716 174.287233 
L 605.681534 174.5222 
L 606.24517 174.272131 
L 607.090625 174.717198 
L 607.654261 174.521783 
L 607.93608 174.803775 
L 608.217898 174.713901 
L 608.499716 174.334741 
L 608.781534 174.293206 
L 609.34517 174.538035 
L 609.626989 174.348688 
L 609.908807 173.919949 
L 610.190625 174.657914 
L 610.472443 174.727155 
L 611.03608 174.293517 
L 611.317898 174.468649 
L 611.599716 174.184092 
L 611.881534 174.08376 
L 612.163352 174.597585 
L 612.44517 174.314298 
L 612.726989 174.226223 
L 613.008807 174.299967 
L 613.290625 174.626112 
L 613.572443 174.40891 
L 613.854261 174.376859 
L 614.13608 174.217096 
L 614.417898 174.410202 
L 614.699716 174.302438 
L 614.981534 174.738619 
L 615.263352 174.038915 
L 615.54517 174.535054 
L 615.826989 174.164852 
L 616.390625 174.046286 
L 616.672443 174.621549 
L 617.517898 174.386916 
L 617.799716 174.533126 
L 618.363352 174.171688 
L 618.64517 174.426708 
L 619.490625 174.285909 
L 619.772443 174.375445 
L 620.054261 174.325684 
L 620.33608 174.035971 
L 620.617898 174.515154 
L 621.181534 174.729754 
L 621.463352 174.419359 
L 621.74517 174.724127 
L 622.026989 174.525604 
L 622.308807 174.004567 
L 622.872443 174.207118 
L 623.154261 174.166419 
L 623.717898 174.609619 
L 623.999716 174.155139 
L 624.281534 173.96369 
L 624.563352 174.008041 
L 624.84517 174.577773 
L 625.126989 174.106965 
L 625.126989 174.106965 
" clip-path="url(#pcb425f4473)" style="fill: none; stroke: #1f77b4; stroke-width: 1.5; stroke-linecap: square"/>
   </g>
   <g id="line2d_15">
    <path d="M 117.854261 283.817858 
L 118.13608 296.03625 
L 118.417898 270.616898 
L 118.699716 261.343127 
L 118.981534 266.675624 
L 119.263352 254.3987 
L 119.54517 253.78483 
L 119.826989 234.718979 
L 120.108807 243.174054 
L 120.390625 233.622601 
L 120.672443 255.831372 
L 120.954261 226.820111 
L 121.23608 231.623087 
L 121.517898 222.755458 
L 121.799716 237.090497 
L 122.081534 221.800231 
L 122.363352 220.580769 
L 122.64517 239.851293 
L 122.926989 218.690556 
L 123.208807 208.012777 
L 123.490625 213.077702 
L 123.772443 203.210023 
L 124.054261 204.36703 
L 124.33608 200.127711 
L 124.617898 197.699217 
L 124.899716 197.009593 
L 125.181534 192.778947 
L 125.463352 193.284367 
L 126.026989 190.032498 
L 126.308807 190.98049 
L 126.590625 192.754977 
L 126.872443 191.632475 
L 127.43608 187.702186 
L 127.717898 186.31986 
L 127.999716 189.750291 
L 128.281534 188.198746 
L 128.563352 189.00049 
L 128.84517 189.320823 
L 129.126989 185.316259 
L 129.690625 184.835969 
L 129.972443 185.979726 
L 130.254261 188.292898 
L 130.53608 184.413948 
L 130.817898 186.018381 
L 131.099716 185.564117 
L 131.381534 183.829002 
L 131.663352 185.263654 
L 131.94517 184.827063 
L 132.226989 185.642403 
L 132.508807 185.081576 
L 132.790625 185.318168 
L 133.354261 183.054028 
L 133.63608 183.091849 
L 133.917898 181.620767 
L 134.199716 181.838532 
L 134.481534 182.869973 
L 134.763352 182.690779 
L 135.04517 182.28129 
L 135.326989 180.870267 
L 135.608807 183.116401 
L 136.172443 184.052396 
L 136.454261 184.34861 
L 136.73608 182.464961 
L 137.299716 182.093607 
L 137.581534 184.792872 
L 137.863352 183.634699 
L 138.14517 183.261662 
L 138.426989 184.624761 
L 138.708807 183.487667 
L 138.990625 184.04581 
L 139.272443 182.432324 
L 139.554261 182.812326 
L 139.83608 182.662128 
L 140.117898 182.709696 
L 140.399716 182.390061 
L 140.681534 182.933603 
L 140.963352 185.113963 
L 141.24517 183.825193 
L 141.526989 181.5119 
L 141.808807 182.332163 
L 142.090625 182.657852 
L 142.372443 183.310738 
L 142.654261 183.531447 
L 142.93608 183.308215 
L 143.217898 183.62141 
L 143.499716 184.483335 
L 143.781534 183.45188 
L 144.34517 184.197178 
L 144.626989 183.120905 
L 144.908807 182.57126 
L 145.190625 183.383851 
L 145.472443 182.947738 
L 145.754261 183.167254 
L 146.03608 183.694203 
L 146.317898 183.057892 
L 146.599716 183.707169 
L 146.881534 182.282464 
L 147.163352 184.110702 
L 147.44517 183.132366 
L 147.726989 184.305063 
L 148.008807 182.879901 
L 148.290625 183.550493 
L 148.854261 183.501126 
L 149.13608 182.388915 
L 149.417898 182.417677 
L 149.699716 182.173322 
L 149.981534 183.391072 
L 150.54517 182.940126 
L 150.826989 182.46022 
L 151.108807 182.325477 
L 151.390625 181.724674 
L 151.672443 181.502345 
L 152.23608 182.799914 
L 152.799716 182.042545 
L 153.081534 182.333771 
L 153.363352 181.160114 
L 153.64517 183.896472 
L 153.926989 182.550055 
L 154.208807 182.064496 
L 154.490625 181.125233 
L 154.772443 181.238594 
L 155.054261 182.004937 
L 155.33608 182.161104 
L 155.617898 181.414516 
L 155.899716 182.304203 
L 156.181534 181.874481 
L 156.463352 181.798224 
L 156.74517 181.982022 
L 157.026989 181.109051 
L 157.308807 182.125077 
L 157.590625 182.440727 
L 158.154261 181.187696 
L 158.43608 181.751393 
L 158.717898 181.583518 
L 158.999716 182.175445 
L 159.281534 183.160066 
L 159.563352 182.022578 
L 159.84517 181.400837 
L 160.408807 182.736279 
L 160.690625 182.132305 
L 160.972443 183.201044 
L 161.254261 183.390734 
L 161.53608 183.243412 
L 161.817898 181.991815 
L 162.381534 182.274377 
L 162.663352 183.17882 
L 162.94517 183.428812 
L 163.226989 183.886167 
L 163.508807 182.608761 
L 163.790625 183.712115 
L 164.354261 183.277566 
L 164.63608 183.511026 
L 165.481534 183.633084 
L 165.763352 183.299605 
L 166.04517 183.783579 
L 166.326989 183.910268 
L 166.890625 184.92944 
L 167.172443 183.203228 
L 167.454261 183.314599 
L 167.73608 184.512217 
L 168.017898 183.829892 
L 168.299716 184.829618 
L 168.581534 183.795532 
L 169.14517 181.114258 
L 169.708807 183.511928 
L 169.990625 183.577943 
L 170.272443 183.326592 
L 170.554261 182.786861 
L 170.83608 183.101856 
L 171.117898 182.860106 
L 171.399716 182.896584 
L 171.681534 183.097378 
L 171.963352 182.191737 
L 172.24517 183.797359 
L 172.526989 182.707522 
L 172.808807 182.50586 
L 173.090625 183.114747 
L 173.372443 182.718723 
L 173.654261 182.923467 
L 173.93608 182.183745 
L 174.217898 183.353683 
L 174.499716 182.7453 
L 174.781534 183.01248 
L 175.063352 183.68453 
L 175.34517 181.987794 
L 175.908807 183.064775 
L 176.190625 183.524069 
L 176.472443 183.241964 
L 176.754261 183.384202 
L 177.03608 183.856913 
L 177.317898 184.648702 
L 177.599716 182.602124 
L 177.881534 183.351471 
L 178.163352 182.881703 
L 178.44517 182.699623 
L 178.726989 182.807006 
L 179.854261 184.604789 
L 180.13608 184.052045 
L 180.417898 183.243903 
L 180.699716 184.052092 
L 181.263352 183.603225 
L 181.54517 183.57647 
L 181.826989 184.190813 
L 182.108807 183.846776 
L 182.390625 183.1117 
L 182.954261 183.826855 
L 183.23608 183.216567 
L 183.517898 183.100553 
L 183.799716 183.61975 
L 184.081534 183.712894 
L 184.363352 183.597435 
L 184.64517 182.929186 
L 184.926989 183.970208 
L 185.208807 183.329715 
L 185.772443 183.487367 
L 186.054261 184.025893 
L 186.33608 183.355025 
L 186.899716 184.172635 
L 187.181534 183.89308 
L 187.74517 185.250018 
L 188.026989 183.991193 
L 188.308807 180.264595 
L 188.590625 179.379729 
L 188.872443 179.979928 
L 189.154261 179.808172 
L 189.43608 179.831676 
L 189.717898 180.597556 
L 189.999716 180.60864 
L 190.281534 181.204994 
L 190.563352 180.571995 
L 190.84517 180.389812 
L 191.126989 180.927543 
L 191.408807 181.159789 
L 191.690625 180.95655 
L 191.972443 181.658681 
L 192.254261 181.65998 
L 192.53608 181.207524 
L 192.817898 181.268454 
L 193.099716 181.946299 
L 193.381534 181.462368 
L 193.663352 181.327931 
L 193.94517 181.405739 
L 194.226989 181.830208 
L 194.508807 181.243396 
L 194.790625 181.198737 
L 195.072443 181.023432 
L 195.354261 181.396091 
L 195.63608 180.38087 
L 195.917898 181.313379 
L 196.199716 180.376577 
L 196.481534 180.39457 
L 196.763352 181.042059 
L 197.04517 180.401476 
L 197.326989 180.903968 
L 197.608807 181.080735 
L 197.890625 180.79097 
L 198.454261 181.338014 
L 198.73608 181.292395 
L 199.017898 181.127015 
L 199.299716 181.168368 
L 199.581534 180.728198 
L 199.863352 181.203847 
L 200.426989 180.210731 
L 201.272443 181.131196 
L 201.554261 180.356829 
L 202.399716 181.13129 
L 202.681534 180.48727 
L 202.963352 181.316777 
L 203.24517 180.843416 
L 203.526989 181.182363 
L 203.808807 181.339458 
L 204.090625 180.784706 
L 204.372443 180.901468 
L 204.654261 180.547993 
L 204.93608 180.537567 
L 205.217898 181.04459 
L 205.499716 180.596105 
L 206.063352 180.738678 
L 206.34517 181.393769 
L 206.626989 180.752169 
L 206.908807 180.657503 
L 207.190625 180.737657 
L 207.472443 181.107062 
L 207.754261 180.712911 
L 208.317898 181.124472 
L 208.599716 180.84352 
L 208.881534 181.219557 
L 209.163352 180.44609 
L 209.44517 181.06896 
L 209.726989 181.178658 
L 210.008807 180.837517 
L 210.572443 181.567467 
L 210.854261 181.012683 
L 211.13608 181.07599 
L 211.417898 180.666583 
L 211.699716 180.522667 
L 211.981534 180.75596 
L 212.263352 180.732957 
L 212.54517 181.094926 
L 213.108807 180.734951 
L 213.390625 180.631432 
L 213.672443 180.665116 
L 214.23608 181.598188 
L 214.517898 180.864201 
L 214.799716 180.568699 
L 215.081534 180.707393 
L 215.363352 181.512054 
L 216.208807 181.481038 
L 216.490625 181.815024 
L 216.772443 181.333635 
L 217.054261 181.233244 
L 217.33608 180.895049 
L 217.617898 181.152924 
L 217.899716 181.111089 
L 218.463352 181.190319 
L 218.74517 181.018222 
L 219.026989 181.32288 
L 219.308807 181.040865 
L 219.590625 181.211261 
L 219.872443 180.891106 
L 220.154261 181.268086 
L 220.43608 181.388344 
L 220.717898 181.081676 
L 220.999716 181.037959 
L 221.281534 180.683913 
L 221.563352 181.45284 
L 221.84517 181.600966 
L 222.126989 180.824199 
L 222.408807 180.767479 
L 222.690625 181.045496 
L 222.972443 180.946243 
L 223.254261 180.980867 
L 223.53608 180.565906 
L 223.817898 181.129756 
L 224.099716 180.275914 
L 224.381534 180.746793 
L 225.790625 180.354044 
L 226.072443 180.75142 
L 226.354261 180.748254 
L 226.63608 180.873944 
L 226.917898 180.736618 
L 227.199716 181.217443 
L 227.481534 180.804086 
L 227.763352 180.653515 
L 228.04517 181.057363 
L 228.326989 180.652628 
L 228.608807 180.766028 
L 228.890625 181.346359 
L 229.172443 180.19628 
L 229.454261 180.998391 
L 230.017898 180.976858 
L 230.299716 180.774304 
L 230.863352 181.364204 
L 231.14517 180.015446 
L 231.708807 181.177205 
L 231.990625 180.721899 
L 232.272443 180.500829 
L 232.554261 180.702456 
L 233.117898 176.307169 
L 233.399716 177.511804 
L 233.681534 177.385175 
L 233.963352 177.852736 
L 234.526989 178.433903 
L 234.808807 178.181649 
L 235.090625 178.338894 
L 235.372443 178.111825 
L 235.654261 178.553982 
L 235.93608 178.428131 
L 236.217898 178.580703 
L 236.499716 178.411208 
L 236.781534 178.595047 
L 237.063352 178.583323 
L 237.34517 178.704573 
L 237.626989 178.524822 
L 238.472443 179.340203 
L 238.754261 178.721279 
L 239.03608 179.195154 
L 239.317898 178.863247 
L 239.881534 178.904504 
L 240.44517 179.17992 
L 240.726989 178.598338 
L 241.008807 178.499958 
L 241.290625 178.959039 
L 241.572443 178.914453 
L 241.854261 178.258735 
L 242.13608 178.66337 
L 242.417898 178.254882 
L 242.699716 178.706815 
L 242.981534 178.492793 
L 243.263352 178.803644 
L 243.54517 178.574321 
L 243.826989 178.670493 
L 244.108807 178.526605 
L 244.390625 178.608478 
L 244.672443 179.052171 
L 244.954261 178.470828 
L 245.517898 178.955696 
L 246.081534 179.056176 
L 246.363352 178.722849 
L 246.64517 179.108168 
L 247.208807 179.04044 
L 247.490625 179.339111 
L 247.772443 178.821481 
L 248.054261 178.828895 
L 248.33608 178.372158 
L 248.899716 179.071322 
L 249.181534 178.823105 
L 250.026989 178.854966 
L 250.308807 178.638637 
L 250.872443 179.102823 
L 251.154261 178.935124 
L 251.43608 178.629359 
L 251.717898 179.069866 
L 251.999716 179.27838 
L 252.281534 179.042123 
L 252.563352 178.640631 
L 252.84517 178.912032 
L 253.408807 179.065539 
L 253.690625 178.941235 
L 253.972443 179.1502 
L 254.254261 179.023144 
L 254.53608 179.363355 
L 254.817898 178.954135 
L 255.099716 178.992939 
L 255.381534 179.443323 
L 255.663352 179.645349 
L 255.94517 178.806777 
L 256.226989 179.401296 
L 256.790625 178.679273 
L 257.072443 179.34932 
L 257.354261 179.115861 
L 257.63608 179.583493 
L 257.917898 179.197347 
L 258.481534 178.990594 
L 258.763352 179.357427 
L 259.326989 179.506311 
L 259.608807 179.485305 
L 259.890625 178.780965 
L 260.172443 179.151367 
L 260.454261 179.013556 
L 260.73608 179.135437 
L 261.299716 179.042252 
L 261.581534 179.472047 
L 261.863352 179.219821 
L 262.14517 179.364226 
L 262.426989 179.358175 
L 262.708807 179.004647 
L 262.990625 179.014748 
L 263.272443 179.397583 
L 263.554261 178.693202 
L 264.117898 179.419855 
L 264.681534 178.889672 
L 264.963352 178.929942 
L 265.24517 179.249873 
L 265.526989 179.169529 
L 265.808807 178.710206 
L 266.090625 179.049115 
L 266.654261 178.837573 
L 266.93608 178.79757 
L 267.217898 178.966607 
L 267.499716 178.738942 
L 267.781534 179.272193 
L 268.063352 178.8278 
L 268.34517 178.895308 
L 268.626989 179.253174 
L 269.190625 179.440098 
L 269.472443 179.186068 
L 270.03608 179.265858 
L 270.317898 179.092749 
L 270.599716 179.164606 
L 271.44517 178.564917 
L 271.726989 178.695836 
L 272.008807 179.29003 
L 272.290625 179.437605 
L 272.572443 178.950038 
L 273.699716 179.195519 
L 273.981534 179.007149 
L 274.826989 179.42847 
L 275.108807 178.795757 
L 275.390625 178.69425 
L 275.954261 179.310704 
L 276.23608 178.856549 
L 276.517898 178.975556 
L 276.799716 179.433609 
L 277.081534 179.442179 
L 277.363352 178.94465 
L 278.208807 178.733222 
L 278.772443 178.477733 
L 279.054261 178.114107 
L 279.33608 178.64986 
L 279.617898 178.578177 
L 279.899716 179.115575 
L 280.463352 178.53909 
L 280.74517 178.845721 
L 281.026989 178.880085 
L 281.308807 179.131845 
L 281.590625 178.54065 
L 282.43608 178.706631 
L 282.717898 178.630018 
L 282.999716 178.677452 
L 283.281534 178.434561 
L 283.563352 179.006029 
L 283.84517 178.741302 
L 284.126989 179.194279 
L 284.408807 179.260951 
L 284.690625 179.191975 
L 284.972443 178.984786 
L 285.254261 179.185696 
L 285.817898 179.056956 
L 286.099716 179.137147 
L 286.381534 179.05843 
L 286.663352 178.759519 
L 286.94517 179.310868 
L 287.226989 178.868002 
L 287.508807 178.694117 
L 288.072443 178.9388 
L 288.354261 178.571324 
L 288.63608 179.132231 
L 288.917898 179.162256 
L 289.199716 178.782115 
L 289.481534 178.882387 
L 289.763352 178.708396 
L 290.04517 178.844637 
L 290.326989 178.779997 
L 290.608807 179.182431 
L 291.454261 178.875146 
L 291.73608 179.323337 
L 292.017898 179.191612 
L 292.299716 179.233337 
L 292.581534 179.028099 
L 292.863352 179.215886 
L 293.14517 178.892683 
L 293.426989 178.952811 
L 293.708807 178.803125 
L 294.83608 179.240258 
L 295.117898 179.068686 
L 295.399716 178.660861 
L 295.681534 178.658637 
L 295.963352 178.895783 
L 296.24517 178.579373 
L 296.808807 178.4952 
L 297.090625 178.801094 
L 297.372443 178.906604 
L 297.654261 178.386062 
L 298.499716 178.324831 
L 298.781534 178.630576 
L 299.34517 178.467981 
L 299.626989 178.548062 
L 299.908807 178.874228 
L 300.472443 178.417217 
L 300.754261 178.742675 
L 301.317898 178.235246 
L 301.881534 178.685491 
L 302.163352 178.603752 
L 302.44517 178.646164 
L 303.008807 178.342603 
L 303.290625 178.461334 
L 303.572443 178.215457 
L 303.854261 178.496797 
L 304.13608 178.551274 
L 304.417898 178.449548 
L 304.699716 178.600133 
L 305.54517 178.732442 
L 305.826989 179.012389 
L 306.108807 178.867877 
L 306.390625 178.586218 
L 306.672443 178.706716 
L 306.954261 179.022021 
L 307.23608 178.855143 
L 307.799716 179.334006 
L 308.081534 178.04463 
L 308.363352 178.856063 
L 308.64517 179.220334 
L 308.926989 178.730664 
L 309.208807 179.094774 
L 309.490625 178.792007 
L 309.772443 178.785669 
L 310.054261 178.992825 
L 310.33608 178.877804 
L 312.026989 178.995964 
L 312.872443 178.571518 
L 313.154261 178.878843 
L 313.43608 178.876594 
L 313.717898 178.7059 
L 313.999716 178.674572 
L 314.281534 178.451724 
L 314.563352 177.283083 
L 314.84517 177.517113 
L 315.126989 178.409482 
L 315.408807 178.541538 
L 315.690625 178.504045 
L 315.972443 178.165852 
L 316.254261 178.367274 
L 316.53608 179.048832 
L 316.817898 179.06605 
L 317.663352 178.136257 
L 317.94517 178.453629 
L 318.226989 178.395558 
L 318.508807 178.06291 
L 318.790625 178.169817 
L 319.072443 178.550845 
L 319.354261 178.260967 
L 319.63608 178.422489 
L 319.917898 178.437498 
L 320.199716 178.20868 
L 320.481534 177.831384 
L 320.763352 178.375971 
L 321.04517 177.778779 
L 321.326989 176.356567 
L 321.890625 177.258387 
L 322.172443 177.304316 
L 323.017898 177.717315 
L 323.581534 177.815701 
L 323.863352 177.507966 
L 324.426989 177.424103 
L 324.708807 177.490708 
L 325.272443 177.292338 
L 325.83608 178.300794 
L 326.117898 178.085515 
L 326.399716 178.436069 
L 326.681534 178.042457 
L 326.963352 177.006199 
L 327.24517 177.608689 
L 327.526989 177.794829 
L 327.808807 177.650742 
L 328.090625 178.096042 
L 328.372443 177.845612 
L 328.93608 177.919014 
L 329.499716 178.002204 
L 329.781534 177.627559 
L 330.063352 178.074846 
L 330.34517 178.063833 
L 330.908807 177.697961 
L 331.190625 177.852067 
L 331.472443 178.157186 
L 331.754261 177.888062 
L 332.03608 178.266098 
L 332.317898 178.081566 
L 332.599716 177.563687 
L 332.881534 177.630044 
L 333.163352 177.948154 
L 333.44517 177.919448 
L 333.726989 177.460672 
L 334.008807 177.940087 
L 334.290625 177.907446 
L 334.854261 177.149796 
L 335.417898 178.086275 
L 335.699716 177.875391 
L 335.981534 177.827473 
L 336.263352 177.428997 
L 336.54517 177.707046 
L 336.826989 177.796431 
L 337.108807 177.61867 
L 337.390625 177.743852 
L 337.672443 178.210744 
L 337.954261 178.235982 
L 338.23608 177.858813 
L 338.517898 178.153955 
L 339.081534 178.032912 
L 339.363352 177.874922 
L 339.64517 178.017389 
L 339.926989 177.795975 
L 340.490625 178.158146 
L 340.772443 177.61645 
L 341.054261 178.124577 
L 341.33608 177.874549 
L 341.617898 177.902825 
L 341.899716 177.655145 
L 342.181534 177.823791 
L 343.026989 177.543045 
L 343.308807 177.943777 
L 343.590625 177.654174 
L 344.154261 178.014056 
L 344.43608 177.767172 
L 344.717898 178.061381 
L 344.999716 178.012416 
L 345.563352 177.784691 
L 345.84517 177.890452 
L 346.126989 177.582448 
L 346.408807 178.045734 
L 346.690625 177.688063 
L 347.254261 177.795479 
L 347.53608 177.781499 
L 347.817898 178.085286 
L 348.381534 177.866619 
L 348.94517 177.575934 
L 349.226989 178.207843 
L 349.508807 177.68741 
L 349.790625 177.646399 
L 350.072443 177.996321 
L 350.354261 178.155769 
L 350.917898 177.581883 
L 351.481534 177.728854 
L 351.763352 177.601826 
L 352.04517 177.299808 
L 352.326989 177.720555 
L 352.608807 177.771553 
L 352.890625 177.986081 
L 353.172443 177.917202 
L 353.454261 178.056569 
L 353.73608 177.881752 
L 354.017898 178.013289 
L 354.299716 177.845746 
L 355.14517 178.000163 
L 355.708807 178.09435 
L 356.83608 178.028538 
L 357.117898 177.575061 
L 357.399716 177.903325 
L 358.24517 177.92304 
L 358.526989 178.296702 
L 358.808807 177.536041 
L 359.372443 178.299139 
L 359.93608 177.597842 
L 360.217898 177.571086 
L 360.499716 178.083496 
L 360.781534 177.795569 
L 361.063352 178.260632 
L 361.34517 177.783564 
L 361.626989 177.63248 
L 361.908807 177.853258 
L 362.190625 177.876817 
L 362.754261 178.30027 
L 363.03608 177.978471 
L 363.317898 178.253196 
L 363.599716 178.281086 
L 364.163352 177.731118 
L 364.44517 178.128675 
L 364.726989 177.977383 
L 365.008807 177.955703 
L 365.572443 177.571691 
L 365.854261 177.732882 
L 366.13608 177.715864 
L 366.417898 177.523051 
L 366.699716 177.942678 
L 367.263352 177.802956 
L 368.108807 177.785892 
L 368.390625 177.602954 
L 368.954261 177.613392 
L 369.23608 177.858624 
L 369.517898 177.713087 
L 369.799716 178.067712 
L 370.081534 178.040431 
L 370.363352 177.677158 
L 370.926989 178.460061 
L 371.490625 177.764607 
L 372.054261 177.900637 
L 372.33608 177.608285 
L 372.617898 177.506282 
L 372.899716 177.830049 
L 373.181534 177.85087 
L 373.463352 178.206318 
L 373.74517 177.991505 
L 375.154261 177.904066 
L 375.43608 177.609825 
L 375.717898 177.935633 
L 376.281534 177.593403 
L 376.563352 178.000685 
L 376.84517 177.477818 
L 377.126989 177.196323 
L 377.408807 177.346474 
L 377.690625 177.253075 
L 378.254261 177.796553 
L 378.817898 177.323836 
L 379.381534 177.705141 
L 379.663352 177.616126 
L 379.94517 177.672933 
L 380.226989 177.425612 
L 380.790625 177.67359 
L 381.072443 177.478151 
L 381.63608 177.493176 
L 381.917898 177.631309 
L 382.481534 177.351125 
L 382.763352 177.683864 
L 383.04517 177.323841 
L 383.608807 177.793755 
L 383.890625 177.534712 
L 384.172443 177.61511 
L 384.454261 177.548197 
L 384.73608 177.778557 
L 385.017898 177.545677 
L 385.299716 177.855182 
L 385.581534 177.636581 
L 385.863352 177.696012 
L 386.14517 177.174064 
L 386.426989 177.704685 
L 386.708807 177.760027 
L 386.990625 177.226968 
L 387.554261 177.536344 
L 388.117898 177.571081 
L 388.399716 177.639889 
L 388.681534 177.566215 
L 388.963352 177.108226 
L 389.24517 177.259375 
L 389.526989 177.267482 
L 389.808807 177.559062 
L 390.090625 177.52698 
L 390.372443 177.324201 
L 390.93608 177.3596 
L 391.781534 177.391282 
L 392.063352 177.669879 
L 392.34517 177.393594 
L 392.626989 177.417006 
L 392.908807 177.634143 
L 393.190625 177.420856 
L 393.754261 177.795727 
L 394.03608 177.478947 
L 394.317898 177.79415 
L 394.599716 177.415404 
L 394.881534 177.603085 
L 395.163352 177.194883 
L 395.726989 177.503105 
L 396.008807 177.498209 
L 396.290625 177.725308 
L 396.572443 177.256331 
L 396.854261 177.579251 
L 397.699716 177.829098 
L 398.263352 177.239961 
L 398.54517 177.373218 
L 398.826989 177.19942 
L 399.390625 177.382436 
L 399.672443 177.04825 
L 399.954261 177.5372 
L 401.363352 177.143614 
L 401.64517 177.187188 
L 401.926989 177.487592 
L 402.208807 177.445601 
L 402.490625 177.517355 
L 403.054261 177.051098 
L 403.33608 177.264154 
L 403.617898 177.21569 
L 403.899716 177.617506 
L 404.181534 177.284331 
L 404.74517 177.568931 
L 405.308807 177.4427 
L 405.590625 177.565758 
L 405.872443 177.27728 
L 406.154261 177.314649 
L 406.43608 177.464521 
L 407.281534 177.313854 
L 407.563352 177.39347 
L 407.84517 177.308063 
L 408.126989 177.620741 
L 408.408807 177.496708 
L 408.690625 177.524718 
L 408.972443 177.423802 
L 409.53608 177.515055 
L 409.817898 177.21551 
L 410.099716 177.41034 
L 410.381534 177.216722 
L 410.94517 177.224484 
L 411.226989 177.536705 
L 411.508807 177.447248 
L 412.072443 177.447939 
L 412.63608 177.199634 
L 412.917898 177.384945 
L 413.199716 177.292905 
L 413.481534 177.413947 
L 413.763352 177.333702 
L 414.326989 177.562299 
L 414.608807 177.384449 
L 414.890625 177.542955 
L 415.172443 177.431033 
L 416.299716 177.627174 
L 416.581534 177.363271 
L 416.863352 177.372632 
L 417.14517 177.205327 
L 417.426989 177.38526 
L 417.708807 177.076211 
L 418.272443 177.444314 
L 418.554261 177.242951 
L 418.83608 177.368122 
L 419.117898 177.080414 
L 419.399716 177.347099 
L 419.963352 177.026433 
L 420.24517 177.1768 
L 420.808807 177.028097 
L 421.090625 177.100126 
L 421.372443 176.972115 
L 421.654261 177.068654 
L 421.93608 177.494952 
L 422.217898 177.185032 
L 422.781534 177.385306 
L 423.063352 177.107246 
L 423.34517 177.406274 
L 423.908807 177.166474 
L 424.190625 177.105469 
L 424.472443 177.211271 
L 424.754261 177.109471 
L 425.03608 177.313174 
L 425.317898 176.91902 
L 425.599716 177.240559 
L 426.163352 177.207394 
L 426.44517 177.375151 
L 426.726989 177.170007 
L 427.290625 177.225124 
L 427.572443 177.471201 
L 427.854261 177.145233 
L 429.826989 177.050052 
L 430.108807 177.525836 
L 430.390625 177.563772 
L 430.672443 176.77707 
L 430.954261 176.928335 
L 431.517898 177.011568 
L 431.799716 176.757037 
L 432.081534 176.67573 
L 432.64517 176.974521 
L 432.926989 176.730409 
L 433.208807 176.669991 
L 433.490625 176.937863 
L 433.772443 176.909039 
L 434.054261 176.561085 
L 434.33608 176.808391 
L 434.617898 176.852271 
L 434.899716 177.077189 
L 435.181534 176.76503 
L 436.026989 176.91867 
L 436.308807 176.801559 
L 436.872443 176.914031 
L 437.154261 177.053432 
L 437.43608 177.036548 
L 437.717898 176.672695 
L 438.281534 177.09383 
L 438.563352 177.426862 
L 438.84517 177.204336 
L 439.126989 176.790725 
L 439.408807 176.658547 
L 439.690625 176.8656 
L 439.972443 176.747908 
L 440.254261 176.796739 
L 440.53608 177.162728 
L 440.817898 176.704809 
L 441.381534 176.827744 
L 441.663352 176.720319 
L 442.226989 176.943031 
L 442.508807 176.754891 
L 442.790625 176.98803 
L 443.072443 176.82597 
L 443.354261 176.938219 
L 443.63608 177.172628 
L 444.481534 176.919058 
L 444.763352 177.09385 
L 445.04517 176.848367 
L 445.326989 176.937287 
L 445.608807 176.841954 
L 445.890625 177.060215 
L 447.017898 177.360961 
L 447.299716 177.000992 
L 447.581534 177.068446 
L 447.863352 176.961793 
L 448.708807 177.234087 
L 448.990625 177.019088 
L 449.554261 176.947948 
L 450.117898 176.827865 
L 450.399716 176.868111 
L 450.963352 177.343572 
L 451.24517 176.639358 
L 451.526989 176.952866 
L 451.808807 176.885712 
L 452.090625 177.198339 
L 452.654261 177.086263 
L 453.781534 177.078116 
L 454.063352 176.935333 
L 454.34517 177.421 
L 454.908807 176.864784 
L 455.190625 177.185512 
L 455.472443 177.292385 
L 456.03608 177.291676 
L 456.599716 177.48032 
L 456.881534 177.014991 
L 457.163352 177.421508 
L 457.44517 176.837506 
L 458.008807 176.948537 
L 458.290625 177.083945 
L 458.572443 177.063255 
L 459.13608 176.688769 
L 459.417898 176.87413 
L 459.981534 176.824708 
L 460.263352 177.080654 
L 460.54517 176.883058 
L 460.826989 177.150074 
L 461.108807 176.822227 
L 461.390625 177.220801 
L 461.954261 176.885472 
L 462.23608 176.948225 
L 462.799716 176.838725 
L 463.926989 177.030155 
L 464.208807 177.113192 
L 465.33608 176.941307 
L 465.617898 177.216422 
L 465.899716 177.0715 
L 466.181534 176.749692 
L 467.308807 176.855799 
L 467.590625 177.302895 
L 467.872443 176.702194 
L 468.43608 176.879696 
L 468.999716 177.262478 
L 469.281534 176.891439 
L 469.563352 177.086103 
L 469.84517 176.939443 
L 470.126989 177.08215 
L 470.408807 176.91568 
L 470.690625 177.140695 
L 470.972443 176.564308 
L 471.254261 176.748101 
L 471.53608 176.632991 
L 472.099716 177.228868 
L 472.381534 176.968957 
L 472.94517 177.000699 
L 473.226989 177.046369 
L 473.508807 176.915792 
L 474.354261 177.028881 
L 474.63608 176.815194 
L 475.199716 177.193528 
L 476.04517 177.066771 
L 476.326989 176.776171 
L 476.608807 177.009432 
L 477.454261 176.754545 
L 477.73608 176.834474 
L 478.017898 176.553647 
L 478.299716 176.598635 
L 478.863352 177.233792 
L 479.14517 177.087655 
L 479.426989 176.686539 
L 479.708807 176.834051 
L 479.990625 176.625862 
L 480.272443 176.904345 
L 481.399716 176.846643 
L 481.681534 176.918835 
L 481.963352 176.798165 
L 482.24517 177.016373 
L 482.526989 176.801931 
L 482.808807 176.802418 
L 483.090625 177.06533 
L 483.372443 176.845681 
L 483.93608 177.282223 
L 484.217898 177.389364 
L 484.499716 176.890125 
L 485.063352 176.64128 
L 485.34517 176.832643 
L 485.626989 176.721689 
L 485.908807 177.003486 
L 486.190625 176.964232 
L 486.472443 176.348124 
L 486.754261 176.464538 
L 487.03608 176.862491 
L 487.317898 177.009542 
L 487.599716 176.900509 
L 487.881534 177.085592 
L 488.163352 176.882199 
L 488.44517 176.952801 
L 489.008807 176.884267 
L 489.290625 176.61444 
L 490.13608 177.117157 
L 490.699716 176.311826 
L 491.263352 176.567716 
L 491.54517 176.409771 
L 491.826989 176.425195 
L 492.108807 176.705677 
L 492.390625 176.38355 
L 492.672443 176.461522 
L 492.954261 176.353858 
L 493.23608 176.847341 
L 493.517898 176.674799 
L 494.081534 176.709777 
L 494.363352 176.535212 
L 494.64517 176.666492 
L 494.926989 176.617644 
L 495.208807 176.806423 
L 495.490625 176.691997 
L 495.772443 176.78729 
L 496.054261 176.601672 
L 496.33608 176.617892 
L 496.617898 176.421578 
L 496.899716 176.646928 
L 497.181534 176.509849 
L 497.463352 176.540546 
L 497.74517 176.748245 
L 498.026989 176.409655 
L 499.154261 176.671167 
L 499.43608 176.257026 
L 499.717898 176.622751 
L 499.999716 176.509147 
L 500.563352 176.78122 
L 500.84517 176.550826 
L 501.126989 176.768006 
L 501.408807 176.527554 
L 501.690625 176.716134 
L 501.972443 176.537919 
L 502.254261 176.826295 
L 502.53608 176.697354 
L 502.817898 176.723795 
L 503.099716 176.905307 
L 503.381534 176.580067 
L 503.663352 176.968965 
L 503.94517 176.963992 
L 504.790625 176.447719 
L 505.072443 176.91135 
L 505.63608 176.756639 
L 506.199716 176.761863 
L 506.763352 176.006868 
L 508.172443 176.770917 
L 508.454261 176.614227 
L 508.73608 176.312562 
L 509.299716 177.040576 
L 509.863352 176.38258 
L 510.426989 176.734414 
L 510.990625 176.713965 
L 511.272443 176.83896 
L 511.554261 176.527204 
L 511.83608 176.967047 
L 512.399716 176.916944 
L 512.681534 176.64275 
L 513.24517 176.79026 
L 514.090625 176.735619 
L 514.372443 176.893738 
L 514.654261 176.885846 
L 514.93608 176.603605 
L 515.217898 177.128598 
L 515.499716 176.585898 
L 515.781534 176.673675 
L 516.34517 176.610445 
L 516.626989 176.342576 
L 516.908807 176.415824 
L 517.190625 176.636933 
L 517.472443 176.340258 
L 517.754261 176.518017 
L 518.317898 176.594589 
L 518.599716 176.850843 
L 519.163352 176.578251 
L 519.44517 176.715695 
L 520.008807 176.601723 
L 520.290625 176.91697 
L 520.572443 176.716238 
L 520.854261 176.655579 
L 521.13608 176.919993 
L 521.417898 176.610525 
L 522.54517 176.988822 
L 522.826989 176.840042 
L 523.108807 176.490836 
L 523.390625 176.542949 
L 523.672443 176.479016 
L 523.954261 176.676515 
L 524.23608 176.434875 
L 525.081534 176.635202 
L 525.363352 176.422845 
L 525.64517 176.695154 
L 526.490625 176.524661 
L 526.772443 176.725904 
L 527.054261 176.648795 
L 527.33608 176.758361 
L 527.617898 176.658182 
L 528.181534 176.832937 
L 528.74517 176.535208 
L 529.026989 176.672264 
L 529.590625 176.393898 
L 529.872443 176.631772 
L 530.154261 176.693014 
L 530.717898 176.476422 
L 530.999716 176.699574 
L 531.281534 176.346537 
L 531.563352 176.598905 
L 531.84517 176.490328 
L 532.126989 176.642498 
L 532.408807 176.612602 
L 532.690625 176.466617 
L 533.254261 176.518245 
L 533.53608 176.467739 
L 533.817898 176.610102 
L 534.381534 176.356529 
L 534.663352 176.628227 
L 534.94517 176.433142 
L 535.226989 176.416927 
L 535.508807 176.708532 
L 536.072443 176.57261 
L 536.354261 176.773502 
L 536.917898 176.545123 
L 537.199716 176.710602 
L 537.481534 176.562824 
L 538.326989 176.748896 
L 538.608807 176.856836 
L 538.890625 176.791274 
L 539.172443 176.498647 
L 539.454261 176.47585 
L 539.73608 176.786986 
L 540.017898 176.687765 
L 540.863352 176.983925 
L 541.14517 176.588689 
L 541.426989 176.695612 
L 541.708807 176.533439 
L 542.272443 176.640399 
L 542.554261 176.528234 
L 542.83608 176.657909 
L 543.117898 176.559142 
L 543.399716 176.774683 
L 543.681534 176.419238 
L 543.963352 176.885895 
L 544.24517 176.592221 
L 544.526989 176.535616 
L 544.808807 176.741534 
L 545.090625 176.401837 
L 545.372443 176.655534 
L 545.654261 176.621592 
L 545.93608 176.850346 
L 546.217898 176.593433 
L 546.499716 176.711597 
L 546.781534 176.525169 
L 547.626989 176.521094 
L 547.908807 176.889011 
L 548.190625 176.573284 
L 548.472443 176.783856 
L 549.317898 176.623893 
L 549.599716 176.906114 
L 550.163352 176.504512 
L 550.44517 176.771689 
L 550.726989 176.538174 
L 551.290625 176.915047 
L 552.13608 176.65899 
L 552.417898 176.64411 
L 552.699716 176.879279 
L 552.981534 176.755984 
L 553.263352 176.829179 
L 553.826989 176.563108 
L 554.108807 176.756788 
L 554.672443 176.699406 
L 555.23608 176.37622 
L 555.517898 176.653129 
L 555.799716 176.678497 
L 556.363352 176.265359 
L 556.64517 176.478434 
L 556.926989 176.335222 
L 557.208807 176.476653 
L 557.772443 176.394994 
L 558.33608 176.949887 
L 558.899716 176.704053 
L 559.74517 176.485273 
L 560.026989 176.235151 
L 560.308807 176.482404 
L 560.872443 176.314351 
L 561.154261 176.416467 
L 561.43608 176.24924 
L 561.717898 176.617368 
L 561.999716 176.667894 
L 562.281534 176.370362 
L 562.563352 176.611499 
L 562.84517 176.328617 
L 563.126989 176.43102 
L 563.408807 176.233364 
L 563.972443 176.526456 
L 564.254261 176.30062 
L 564.53608 176.321676 
L 564.817898 176.672282 
L 565.099716 176.397633 
L 565.663352 176.58529 
L 565.94517 176.424142 
L 566.226989 176.415562 
L 566.790625 176.75157 
L 567.354261 176.434844 
L 568.481534 176.407567 
L 569.04517 176.632683 
L 569.326989 176.487228 
L 569.890625 176.586844 
L 570.454261 176.4047 
L 570.73608 176.565549 
L 571.017898 176.546582 
L 571.299716 176.831548 
L 571.581534 176.762645 
L 571.863352 176.351381 
L 572.14517 176.25921 
L 572.426989 176.551584 
L 572.708807 176.310787 
L 572.990625 176.325028 
L 573.272443 176.561664 
L 573.554261 176.50322 
L 574.117898 176.628415 
L 574.399716 176.558756 
L 574.963352 176.886818 
L 575.526989 176.621818 
L 575.808807 176.739237 
L 576.372443 176.397637 
L 576.654261 176.219563 
L 576.93608 176.40898 
L 577.217898 176.330107 
L 577.499716 176.462109 
L 577.781534 176.741776 
L 578.063352 176.627067 
L 578.34517 176.309172 
L 578.626989 176.706 
L 578.908807 176.905117 
L 579.190625 176.545042 
L 579.472443 176.825811 
L 579.754261 176.393059 
L 580.317898 176.633011 
L 580.599716 176.424875 
L 580.881534 176.59642 
L 582.008807 176.341222 
L 582.290625 176.580333 
L 582.572443 176.653347 
L 582.854261 176.56968 
L 583.13608 176.608926 
L 583.417898 176.233106 
L 583.981534 176.825652 
L 584.263352 176.765691 
L 584.54517 176.587569 
L 584.826989 176.980453 
L 585.390625 176.734464 
L 585.672443 176.961886 
L 586.517898 176.361402 
L 586.799716 176.663691 
L 587.081534 176.765203 
L 587.363352 176.695592 
L 587.64517 177.054945 
L 587.926989 177.087684 
L 588.208807 176.529646 
L 588.772443 176.764946 
L 589.33608 176.539982 
L 589.617898 176.644771 
L 590.181534 176.467447 
L 591.026989 176.974721 
L 591.308807 176.750436 
L 591.872443 176.824062 
L 592.154261 176.541661 
L 592.43608 176.743923 
L 592.999716 176.888228 
L 593.281534 176.699393 
L 593.563352 176.788669 
L 593.84517 177.02661 
L 594.126989 176.725659 
L 594.408807 176.724508 
L 594.690625 176.438756 
L 594.972443 176.66803 
L 595.254261 176.439631 
L 595.53608 176.779391 
L 596.099716 176.483722 
L 596.663352 176.578209 
L 596.94517 176.400909 
L 597.508807 176.806743 
L 597.790625 176.867722 
L 598.072443 177.15493 
L 598.354261 176.648428 
L 598.63608 176.867117 
L 599.763352 176.61643 
L 600.326989 176.943236 
L 600.890625 177.07052 
L 601.172443 176.630595 
L 601.454261 176.621241 
L 602.017898 176.83572 
L 602.299716 176.725813 
L 602.581534 176.339262 
L 602.863352 176.740169 
L 603.14517 176.35747 
L 603.426989 176.248919 
L 603.990625 176.493674 
L 604.272443 176.715714 
L 604.83608 176.475171 
L 605.117898 176.175288 
L 605.399716 176.151643 
L 605.681534 176.388506 
L 606.24517 176.179788 
L 606.808807 176.38024 
L 607.372443 176.247591 
L 607.654261 176.273009 
L 608.217898 176.776621 
L 608.499716 176.657325 
L 608.781534 176.227435 
L 609.34517 176.676727 
L 609.626989 176.611852 
L 609.908807 176.429794 
L 610.472443 176.649998 
L 610.754261 176.79158 
L 611.03608 176.224705 
L 611.317898 176.332164 
L 612.163352 176.214521 
L 612.44517 176.243522 
L 612.726989 176.524601 
L 613.008807 176.207357 
L 613.290625 176.64761 
L 613.854261 176.478355 
L 614.13608 176.256953 
L 614.417898 176.604656 
L 614.981534 176.881051 
L 615.263352 176.54194 
L 615.54517 176.558704 
L 615.826989 176.701141 
L 616.390625 176.646521 
L 616.672443 176.305823 
L 617.23608 176.495189 
L 617.517898 176.709023 
L 617.799716 176.773652 
L 618.363352 176.499633 
L 618.926989 176.86331 
L 619.208807 176.890027 
L 619.490625 176.32355 
L 619.772443 176.495474 
L 620.054261 176.465626 
L 620.33608 176.795004 
L 620.899716 176.602009 
L 621.181534 176.68245 
L 621.463352 176.587304 
L 622.026989 176.668808 
L 622.308807 176.724223 
L 622.590625 176.143268 
L 622.872443 176.527927 
L 623.43608 176.348906 
L 623.717898 176.730322 
L 623.999716 176.259684 
L 624.281534 176.185384 
L 624.563352 176.445901 
L 625.126989 176.603684 
L 625.126989 176.603684 
" clip-path="url(#pcb425f4473)" style="fill: none; stroke: #ff7f0e; stroke-width: 1.5; stroke-linecap: square"/>
   </g>
   <g id="patch_3">
    <path d="M 92.490625 308.63625 
L 92.490625 31.43625 
" style="fill: none; stroke: #000000; stroke-width: 0.8; stroke-linejoin: miter; stroke-linecap: square"/>
   </g>
   <g id="patch_4">
    <path d="M 650.490625 308.63625 
L 650.490625 31.43625 
" style="fill: none; stroke: #000000; stroke-width: 0.8; stroke-linejoin: miter; stroke-linecap: square"/>
   </g>
   <g id="patch_5">
    <path d="M 92.490625 308.63625 
L 650.490625 308.63625 
" style="fill: none; stroke: #000000; stroke-width: 0.8; stroke-linejoin: miter; stroke-linecap: square"/>
   </g>
   <g id="patch_6">
    <path d="M 92.490625 31.43625 
L 650.490625 31.43625 
" style="fill: none; stroke: #000000; stroke-width: 0.8; stroke-linejoin: miter; stroke-linecap: square"/>
   </g>
   <g id="text_16">
    <!-- Generator and Discriminator Loss During Training -->
    <g transform="translate(74.258125 25.43625) scale(0.24 -0.24)">
     <defs>
      <path id="DejaVuSans-47" d="M 3809 666 
L 3809 1919 
L 2778 1919 
L 2778 2438 
L 4434 2438 
L 4434 434 
Q 4069 175 3628 42 
Q 3188 -91 2688 -91 
Q 1594 -91 976 548 
Q 359 1188 359 2328 
Q 359 3472 976 4111 
Q 1594 4750 2688 4750 
Q 3144 4750 3555 4637 
Q 3966 4525 4313 4306 
L 4313 3634 
Q 3963 3931 3569 4081 
Q 3175 4231 2741 4231 
Q 1884 4231 1454 3753 
Q 1025 3275 1025 2328 
Q 1025 1384 1454 906 
Q 1884 428 2741 428 
Q 3075 428 3337 486 
Q 3600 544 3809 666 
z
" transform="scale(0.015625)"/>
      <path id="DejaVuSans-20" transform="scale(0.015625)"/>
      <path id="DejaVuSans-64" d="M 2906 2969 
L 2906 4863 
L 3481 4863 
L 3481 0 
L 2906 0 
L 2906 525 
Q 2725 213 2448 61 
Q 2172 -91 1784 -91 
Q 1150 -91 751 415 
Q 353 922 353 1747 
Q 353 2572 751 3078 
Q 1150 3584 1784 3584 
Q 2172 3584 2448 3432 
Q 2725 3281 2906 2969 
z
M 947 1747 
Q 947 1113 1208 752 
Q 1469 391 1925 391 
Q 2381 391 2643 752 
Q 2906 1113 2906 1747 
Q 2906 2381 2643 2742 
Q 2381 3103 1925 3103 
Q 1469 3103 1208 2742 
Q 947 2381 947 1747 
z
" transform="scale(0.015625)"/>
      <path id="DejaVuSans-44" d="M 1259 4147 
L 1259 519 
L 2022 519 
Q 2988 519 3436 956 
Q 3884 1394 3884 2338 
Q 3884 3275 3436 3711 
Q 2988 4147 2022 4147 
L 1259 4147 
z
M 628 4666 
L 1925 4666 
Q 3281 4666 3915 4102 
Q 4550 3538 4550 2338 
Q 4550 1131 3912 565 
Q 3275 0 1925 0 
L 628 0 
L 628 4666 
z
" transform="scale(0.015625)"/>
      <path id="DejaVuSans-63" d="M 3122 3366 
L 3122 2828 
Q 2878 2963 2633 3030 
Q 2388 3097 2138 3097 
Q 1578 3097 1268 2742 
Q 959 2388 959 1747 
Q 959 1106 1268 751 
Q 1578 397 2138 397 
Q 2388 397 2633 464 
Q 2878 531 3122 666 
L 3122 134 
Q 2881 22 2623 -34 
Q 2366 -91 2075 -91 
Q 1284 -91 818 406 
Q 353 903 353 1747 
Q 353 2603 823 3093 
Q 1294 3584 2113 3584 
Q 2378 3584 2631 3529 
Q 2884 3475 3122 3366 
z
" transform="scale(0.015625)"/>
      <path id="DejaVuSans-6d" d="M 3328 2828 
Q 3544 3216 3844 3400 
Q 4144 3584 4550 3584 
Q 5097 3584 5394 3201 
Q 5691 2819 5691 2113 
L 5691 0 
L 5113 0 
L 5113 2094 
Q 5113 2597 4934 2840 
Q 4756 3084 4391 3084 
Q 3944 3084 3684 2787 
Q 3425 2491 3425 1978 
L 3425 0 
L 2847 0 
L 2847 2094 
Q 2847 2600 2669 2842 
Q 2491 3084 2119 3084 
Q 1678 3084 1418 2786 
Q 1159 2488 1159 1978 
L 1159 0 
L 581 0 
L 581 3500 
L 1159 3500 
L 1159 2956 
Q 1356 3278 1631 3431 
Q 1906 3584 2284 3584 
Q 2666 3584 2933 3390 
Q 3200 3197 3328 2828 
z
" transform="scale(0.015625)"/>
      <path id="DejaVuSans-75" d="M 544 1381 
L 544 3500 
L 1119 3500 
L 1119 1403 
Q 1119 906 1312 657 
Q 1506 409 1894 409 
Q 2359 409 2629 706 
Q 2900 1003 2900 1516 
L 2900 3500 
L 3475 3500 
L 3475 0 
L 2900 0 
L 2900 538 
Q 2691 219 2414 64 
Q 2138 -91 1772 -91 
Q 1169 -91 856 284 
Q 544 659 544 1381 
z
M 1991 3584 
L 1991 3584 
z
" transform="scale(0.015625)"/>
      <path id="DejaVuSans-67" d="M 2906 1791 
Q 2906 2416 2648 2759 
Q 2391 3103 1925 3103 
Q 1463 3103 1205 2759 
Q 947 2416 947 1791 
Q 947 1169 1205 825 
Q 1463 481 1925 481 
Q 2391 481 2648 825 
Q 2906 1169 2906 1791 
z
M 3481 434 
Q 3481 -459 3084 -895 
Q 2688 -1331 1869 -1331 
Q 1566 -1331 1297 -1286 
Q 1028 -1241 775 -1147 
L 775 -588 
Q 1028 -725 1275 -790 
Q 1522 -856 1778 -856 
Q 2344 -856 2625 -561 
Q 2906 -266 2906 331 
L 2906 616 
Q 2728 306 2450 153 
Q 2172 0 1784 0 
Q 1141 0 747 490 
Q 353 981 353 1791 
Q 353 2603 747 3093 
Q 1141 3584 1784 3584 
Q 2172 3584 2450 3431 
Q 2728 3278 2906 2969 
L 2906 3500 
L 3481 3500 
L 3481 434 
z
" transform="scale(0.015625)"/>
      <path id="DejaVuSans-54" d="M -19 4666 
L 3928 4666 
L 3928 4134 
L 2272 4134 
L 2272 0 
L 1638 0 
L 1638 4134 
L -19 4134 
L -19 4666 
z
" transform="scale(0.015625)"/>
     </defs>
     <use xlink:href="#DejaVuSans-47"/>
     <use xlink:href="#DejaVuSans-65" x="77.490234"/>
     <use xlink:href="#DejaVuSans-6e" x="139.013672"/>
     <use xlink:href="#DejaVuSans-65" x="202.392578"/>
     <use xlink:href="#DejaVuSans-72" x="263.916016"/>
     <use xlink:href="#DejaVuSans-61" x="305.029297"/>
     <use xlink:href="#DejaVuSans-74" x="366.308594"/>
     <use xlink:href="#DejaVuSans-6f" x="405.517578"/>
     <use xlink:href="#DejaVuSans-72" x="466.699219"/>
     <use xlink:href="#DejaVuSans-20" x="507.8125"/>
     <use xlink:href="#DejaVuSans-61" x="539.599609"/>
     <use xlink:href="#DejaVuSans-6e" x="600.878906"/>
     <use xlink:href="#DejaVuSans-64" x="664.257812"/>
     <use xlink:href="#DejaVuSans-20" x="727.734375"/>
     <use xlink:href="#DejaVuSans-44" x="759.521484"/>
     <use xlink:href="#DejaVuSans-69" x="836.523438"/>
     <use xlink:href="#DejaVuSans-73" x="864.306641"/>
     <use xlink:href="#DejaVuSans-63" x="916.40625"/>
     <use xlink:href="#DejaVuSans-72" x="971.386719"/>
     <use xlink:href="#DejaVuSans-69" x="1012.5"/>
     <use xlink:href="#DejaVuSans-6d" x="1040.283203"/>
     <use xlink:href="#DejaVuSans-69" x="1137.695312"/>
     <use xlink:href="#DejaVuSans-6e" x="1165.478516"/>
     <use xlink:href="#DejaVuSans-61" x="1228.857422"/>
     <use xlink:href="#DejaVuSans-74" x="1290.136719"/>
     <use xlink:href="#DejaVuSans-6f" x="1329.345703"/>
     <use xlink:href="#DejaVuSans-72" x="1390.527344"/>
     <use xlink:href="#DejaVuSans-20" x="1431.640625"/>
     <use xlink:href="#DejaVuSans-4c" x="1463.427734"/>
     <use xlink:href="#DejaVuSans-6f" x="1517.390625"/>
     <use xlink:href="#DejaVuSans-73" x="1578.572266"/>
     <use xlink:href="#DejaVuSans-73" x="1630.671875"/>
     <use xlink:href="#DejaVuSans-20" x="1682.771484"/>
     <use xlink:href="#DejaVuSans-44" x="1714.558594"/>
     <use xlink:href="#DejaVuSans-75" x="1791.560547"/>
     <use xlink:href="#DejaVuSans-72" x="1854.939453"/>
     <use xlink:href="#DejaVuSans-69" x="1896.052734"/>
     <use xlink:href="#DejaVuSans-6e" x="1923.835938"/>
     <use xlink:href="#DejaVuSans-67" x="1987.214844"/>
     <use xlink:href="#DejaVuSans-20" x="2050.691406"/>
     <use xlink:href="#DejaVuSans-54" x="2082.478516"/>
     <use xlink:href="#DejaVuSans-72" x="2128.8125"/>
     <use xlink:href="#DejaVuSans-61" x="2169.925781"/>
     <use xlink:href="#DejaVuSans-69" x="2231.205078"/>
     <use xlink:href="#DejaVuSans-6e" x="2258.988281"/>
     <use xlink:href="#DejaVuSans-69" x="2322.367188"/>
     <use xlink:href="#DejaVuSans-6e" x="2350.150391"/>
     <use xlink:href="#DejaVuSans-67" x="2413.529297"/>
    </g>
   </g>
   <g id="legend_1">
    <g id="patch_7">
     <path d="M 556.99375 106.14875 
L 636.490625 106.14875 
Q 640.490625 106.14875 640.490625 102.14875 
L 640.490625 45.43625 
Q 640.490625 41.43625 636.490625 41.43625 
L 556.99375 41.43625 
Q 552.99375 41.43625 552.99375 45.43625 
L 552.99375 102.14875 
Q 552.99375 106.14875 556.99375 106.14875 
z
" style="fill: #ffffff; opacity: 0.8; stroke: #cccccc; stroke-linejoin: miter"/>
    </g>
    <g id="line2d_16">
     <path d="M 560.99375 57.633125 
L 580.99375 57.633125 
L 600.99375 57.633125 
" style="fill: none; stroke: #1f77b4; stroke-width: 1.5; stroke-linecap: square"/>
    </g>
    <g id="text_17">
     <!-- G -->
     <g transform="translate(616.99375 64.633125) scale(0.2 -0.2)">
      <use xlink:href="#DejaVuSans-47"/>
     </g>
    </g>
    <g id="line2d_17">
     <path d="M 560.99375 86.989375 
L 580.99375 86.989375 
L 600.99375 86.989375 
" style="fill: none; stroke: #ff7f0e; stroke-width: 1.5; stroke-linecap: square"/>
    </g>
    <g id="text_18">
     <!-- D -->
     <g transform="translate(616.99375 93.989375) scale(0.2 -0.2)">
      <use xlink:href="#DejaVuSans-44"/>
     </g>
    </g>
   </g>
  </g>
 </g>
 <defs>
  <clipPath id="pcb425f4473">
   <rect x="92.490625" y="31.43625" width="558" height="277.2"/>
  </clipPath>
 </defs>
</svg>
