<?xml version="1.0" encoding="utf-8" standalone="no"?>
<!DOCTYPE svg PUBLIC "-//W3C//DTD SVG 1.1//EN"
  "http://www.w3.org/Graphics/SVG/1.1/DTD/svg11.dtd">
<svg xmlns:xlink="http://www.w3.org/1999/xlink" width="675.923125pt" height="365.54875pt" viewBox="0 0 675.923125 365.54875" xmlns="http://www.w3.org/2000/svg" version="1.1">
 <metadata>
  <rdf:RDF xmlns:dc="http://purl.org/dc/elements/1.1/" xmlns:cc="http://creativecommons.org/ns#" xmlns:rdf="http://www.w3.org/1999/02/22-rdf-syntax-ns#">
   <cc:Work>
    <dc:type rdf:resource="http://purl.org/dc/dcmitype/StillImage"/>
    <dc:date>2024-02-01T17:55:46.805288</dc:date>
    <dc:format>image/svg+xml</dc:format>
    <dc:creator>
     <cc:Agent>
      <dc:title>Matplotlib v3.7.2, https://matplotlib.org/</dc:title>
     </cc:Agent>
    </dc:creator>
   </cc:Work>
  </rdf:RDF>
 </metadata>
 <defs>
  <style type="text/css">*{stroke-linejoin: round; stroke-linecap: butt}</style>
 </defs>
 <g id="figure_1">
  <g id="patch_1">
   <path d="M 0 365.54875 
L 675.923125 365.54875 
L 675.923125 -0 
L 0 -0 
z
" style="fill: #ffffff"/>
  </g>
  <g id="axes_1">
   <g id="patch_2">
    <path d="M 92.490625 308.63625 
L 650.490625 308.63625 
L 650.490625 31.43625 
L 92.490625 31.43625 
z
" style="fill: #ffffff"/>
   </g>
   <g id="matplotlib.axis_1">
    <g id="xtick_1">
     <g id="line2d_1">
      <defs>
       <path id="m68028d59aa" d="M 0 0 
L 0 3.5 
" style="stroke: #000000; stroke-width: 0.8"/>
      </defs>
      <g>
       <use xlink:href="#m68028d59aa" x="117.854261" y="308.63625" style="stroke: #000000; stroke-width: 0.8"/>
      </g>
     </g>
     <g id="text_1">
      <!-- 0 -->
      <g transform="translate(111.491761 330.833125) scale(0.2 -0.2)">
       <defs>
        <path id="DejaVuSans-30" d="M 2034 4250 
Q 1547 4250 1301 3770 
Q 1056 3291 1056 2328 
Q 1056 1369 1301 889 
Q 1547 409 2034 409 
Q 2525 409 2770 889 
Q 3016 1369 3016 2328 
Q 3016 3291 2770 3770 
Q 2525 4250 2034 4250 
z
M 2034 4750 
Q 2819 4750 3233 4129 
Q 3647 3509 3647 2328 
Q 3647 1150 3233 529 
Q 2819 -91 2034 -91 
Q 1250 -91 836 529 
Q 422 1150 422 2328 
Q 422 3509 836 4129 
Q 1250 4750 2034 4750 
z
" transform="scale(0.015625)"/>
       </defs>
       <use xlink:href="#DejaVuSans-30"/>
      </g>
     </g>
    </g>
    <g id="xtick_2">
     <g id="line2d_2">
      <g>
       <use xlink:href="#m68028d59aa" x="224.64852" y="308.63625" style="stroke: #000000; stroke-width: 0.8"/>
      </g>
     </g>
     <g id="text_2">
      <!-- 200 -->
      <g transform="translate(205.56102 330.833125) scale(0.2 -0.2)">
       <defs>
        <path id="DejaVuSans-32" d="M 1228 531 
L 3431 531 
L 3431 0 
L 469 0 
L 469 531 
Q 828 903 1448 1529 
Q 2069 2156 2228 2338 
Q 2531 2678 2651 2914 
Q 2772 3150 2772 3378 
Q 2772 3750 2511 3984 
Q 2250 4219 1831 4219 
Q 1534 4219 1204 4116 
Q 875 4013 500 3803 
L 500 4441 
Q 881 4594 1212 4672 
Q 1544 4750 1819 4750 
Q 2544 4750 2975 4387 
Q 3406 4025 3406 3419 
Q 3406 3131 3298 2873 
Q 3191 2616 2906 2266 
Q 2828 2175 2409 1742 
Q 1991 1309 1228 531 
z
" transform="scale(0.015625)"/>
       </defs>
       <use xlink:href="#DejaVuSans-32"/>
       <use xlink:href="#DejaVuSans-30" x="63.623047"/>
       <use xlink:href="#DejaVuSans-30" x="127.246094"/>
      </g>
     </g>
    </g>
    <g id="xtick_3">
     <g id="line2d_3">
      <g>
       <use xlink:href="#m68028d59aa" x="331.442778" y="308.63625" style="stroke: #000000; stroke-width: 0.8"/>
      </g>
     </g>
     <g id="text_3">
      <!-- 400 -->
      <g transform="translate(312.355278 330.833125) scale(0.2 -0.2)">
       <defs>
        <path id="DejaVuSans-34" d="M 2419 4116 
L 825 1625 
L 2419 1625 
L 2419 4116 
z
M 2253 4666 
L 3047 4666 
L 3047 1625 
L 3713 1625 
L 3713 1100 
L 3047 1100 
L 3047 0 
L 2419 0 
L 2419 1100 
L 313 1100 
L 313 1709 
L 2253 4666 
z
" transform="scale(0.015625)"/>
       </defs>
       <use xlink:href="#DejaVuSans-34"/>
       <use xlink:href="#DejaVuSans-30" x="63.623047"/>
       <use xlink:href="#DejaVuSans-30" x="127.246094"/>
      </g>
     </g>
    </g>
    <g id="xtick_4">
     <g id="line2d_4">
      <g>
       <use xlink:href="#m68028d59aa" x="438.237036" y="308.63625" style="stroke: #000000; stroke-width: 0.8"/>
      </g>
     </g>
     <g id="text_4">
      <!-- 600 -->
      <g transform="translate(419.149536 330.833125) scale(0.2 -0.2)">
       <defs>
        <path id="DejaVuSans-36" d="M 2113 2584 
Q 1688 2584 1439 2293 
Q 1191 2003 1191 1497 
Q 1191 994 1439 701 
Q 1688 409 2113 409 
Q 2538 409 2786 701 
Q 3034 994 3034 1497 
Q 3034 2003 2786 2293 
Q 2538 2584 2113 2584 
z
M 3366 4563 
L 3366 3988 
Q 3128 4100 2886 4159 
Q 2644 4219 2406 4219 
Q 1781 4219 1451 3797 
Q 1122 3375 1075 2522 
Q 1259 2794 1537 2939 
Q 1816 3084 2150 3084 
Q 2853 3084 3261 2657 
Q 3669 2231 3669 1497 
Q 3669 778 3244 343 
Q 2819 -91 2113 -91 
Q 1303 -91 875 529 
Q 447 1150 447 2328 
Q 447 3434 972 4092 
Q 1497 4750 2381 4750 
Q 2619 4750 2861 4703 
Q 3103 4656 3366 4563 
z
" transform="scale(0.015625)"/>
       </defs>
       <use xlink:href="#DejaVuSans-36"/>
       <use xlink:href="#DejaVuSans-30" x="63.623047"/>
       <use xlink:href="#DejaVuSans-30" x="127.246094"/>
      </g>
     </g>
    </g>
    <g id="xtick_5">
     <g id="line2d_5">
      <g>
       <use xlink:href="#m68028d59aa" x="545.031295" y="308.63625" style="stroke: #000000; stroke-width: 0.8"/>
      </g>
     </g>
     <g id="text_5">
      <!-- 800 -->
      <g transform="translate(525.943795 330.833125) scale(0.2 -0.2)">
       <defs>
        <path id="DejaVuSans-38" d="M 2034 2216 
Q 1584 2216 1326 1975 
Q 1069 1734 1069 1313 
Q 1069 891 1326 650 
Q 1584 409 2034 409 
Q 2484 409 2743 651 
Q 3003 894 3003 1313 
Q 3003 1734 2745 1975 
Q 2488 2216 2034 2216 
z
M 1403 2484 
Q 997 2584 770 2862 
Q 544 3141 544 3541 
Q 544 4100 942 4425 
Q 1341 4750 2034 4750 
Q 2731 4750 3128 4425 
Q 3525 4100 3525 3541 
Q 3525 3141 3298 2862 
Q 3072 2584 2669 2484 
Q 3125 2378 3379 2068 
Q 3634 1759 3634 1313 
Q 3634 634 3220 271 
Q 2806 -91 2034 -91 
Q 1263 -91 848 271 
Q 434 634 434 1313 
Q 434 1759 690 2068 
Q 947 2378 1403 2484 
z
M 1172 3481 
Q 1172 3119 1398 2916 
Q 1625 2713 2034 2713 
Q 2441 2713 2670 2916 
Q 2900 3119 2900 3481 
Q 2900 3844 2670 4047 
Q 2441 4250 2034 4250 
Q 1625 4250 1398 4047 
Q 1172 3844 1172 3481 
z
" transform="scale(0.015625)"/>
       </defs>
       <use xlink:href="#DejaVuSans-38"/>
       <use xlink:href="#DejaVuSans-30" x="63.623047"/>
       <use xlink:href="#DejaVuSans-30" x="127.246094"/>
      </g>
     </g>
    </g>
    <g id="text_6">
     <!-- iterations -->
     <g transform="translate(324.035938 354.189375) scale(0.2 -0.2)">
      <defs>
       <path id="DejaVuSans-69" d="M 603 3500 
L 1178 3500 
L 1178 0 
L 603 0 
L 603 3500 
z
M 603 4863 
L 1178 4863 
L 1178 4134 
L 603 4134 
L 603 4863 
z
" transform="scale(0.015625)"/>
       <path id="DejaVuSans-74" d="M 1172 4494 
L 1172 3500 
L 2356 3500 
L 2356 3053 
L 1172 3053 
L 1172 1153 
Q 1172 725 1289 603 
Q 1406 481 1766 481 
L 2356 481 
L 2356 0 
L 1766 0 
Q 1100 0 847 248 
Q 594 497 594 1153 
L 594 3053 
L 172 3053 
L 172 3500 
L 594 3500 
L 594 4494 
L 1172 4494 
z
" transform="scale(0.015625)"/>
       <path id="DejaVuSans-65" d="M 3597 1894 
L 3597 1613 
L 953 1613 
Q 991 1019 1311 708 
Q 1631 397 2203 397 
Q 2534 397 2845 478 
Q 3156 559 3463 722 
L 3463 178 
Q 3153 47 2828 -22 
Q 2503 -91 2169 -91 
Q 1331 -91 842 396 
Q 353 884 353 1716 
Q 353 2575 817 3079 
Q 1281 3584 2069 3584 
Q 2775 3584 3186 3129 
Q 3597 2675 3597 1894 
z
M 3022 2063 
Q 3016 2534 2758 2815 
Q 2500 3097 2075 3097 
Q 1594 3097 1305 2825 
Q 1016 2553 972 2059 
L 3022 2063 
z
" transform="scale(0.015625)"/>
       <path id="DejaVuSans-72" d="M 2631 2963 
Q 2534 3019 2420 3045 
Q 2306 3072 2169 3072 
Q 1681 3072 1420 2755 
Q 1159 2438 1159 1844 
L 1159 0 
L 581 0 
L 581 3500 
L 1159 3500 
L 1159 2956 
Q 1341 3275 1631 3429 
Q 1922 3584 2338 3584 
Q 2397 3584 2469 3576 
Q 2541 3569 2628 3553 
L 2631 2963 
z
" transform="scale(0.015625)"/>
       <path id="DejaVuSans-61" d="M 2194 1759 
Q 1497 1759 1228 1600 
Q 959 1441 959 1056 
Q 959 750 1161 570 
Q 1363 391 1709 391 
Q 2188 391 2477 730 
Q 2766 1069 2766 1631 
L 2766 1759 
L 2194 1759 
z
M 3341 1997 
L 3341 0 
L 2766 0 
L 2766 531 
Q 2569 213 2275 61 
Q 1981 -91 1556 -91 
Q 1019 -91 701 211 
Q 384 513 384 1019 
Q 384 1609 779 1909 
Q 1175 2209 1959 2209 
L 2766 2209 
L 2766 2266 
Q 2766 2663 2505 2880 
Q 2244 3097 1772 3097 
Q 1472 3097 1187 3025 
Q 903 2953 641 2809 
L 641 3341 
Q 956 3463 1253 3523 
Q 1550 3584 1831 3584 
Q 2591 3584 2966 3190 
Q 3341 2797 3341 1997 
z
" transform="scale(0.015625)"/>
       <path id="DejaVuSans-6f" d="M 1959 3097 
Q 1497 3097 1228 2736 
Q 959 2375 959 1747 
Q 959 1119 1226 758 
Q 1494 397 1959 397 
Q 2419 397 2687 759 
Q 2956 1122 2956 1747 
Q 2956 2369 2687 2733 
Q 2419 3097 1959 3097 
z
M 1959 3584 
Q 2709 3584 3137 3096 
Q 3566 2609 3566 1747 
Q 3566 888 3137 398 
Q 2709 -91 1959 -91 
Q 1206 -91 779 398 
Q 353 888 353 1747 
Q 353 2609 779 3096 
Q 1206 3584 1959 3584 
z
" transform="scale(0.015625)"/>
       <path id="DejaVuSans-6e" d="M 3513 2113 
L 3513 0 
L 2938 0 
L 2938 2094 
Q 2938 2591 2744 2837 
Q 2550 3084 2163 3084 
Q 1697 3084 1428 2787 
Q 1159 2491 1159 1978 
L 1159 0 
L 581 0 
L 581 3500 
L 1159 3500 
L 1159 2956 
Q 1366 3272 1645 3428 
Q 1925 3584 2291 3584 
Q 2894 3584 3203 3211 
Q 3513 2838 3513 2113 
z
" transform="scale(0.015625)"/>
       <path id="DejaVuSans-73" d="M 2834 3397 
L 2834 2853 
Q 2591 2978 2328 3040 
Q 2066 3103 1784 3103 
Q 1356 3103 1142 2972 
Q 928 2841 928 2578 
Q 928 2378 1081 2264 
Q 1234 2150 1697 2047 
L 1894 2003 
Q 2506 1872 2764 1633 
Q 3022 1394 3022 966 
Q 3022 478 2636 193 
Q 2250 -91 1575 -91 
Q 1294 -91 989 -36 
Q 684 19 347 128 
L 347 722 
Q 666 556 975 473 
Q 1284 391 1588 391 
Q 1994 391 2212 530 
Q 2431 669 2431 922 
Q 2431 1156 2273 1281 
Q 2116 1406 1581 1522 
L 1381 1569 
Q 847 1681 609 1914 
Q 372 2147 372 2553 
Q 372 3047 722 3315 
Q 1072 3584 1716 3584 
Q 2034 3584 2315 3537 
Q 2597 3491 2834 3397 
z
" transform="scale(0.015625)"/>
      </defs>
      <use xlink:href="#DejaVuSans-69"/>
      <use xlink:href="#DejaVuSans-74" x="27.783203"/>
      <use xlink:href="#DejaVuSans-65" x="66.992188"/>
      <use xlink:href="#DejaVuSans-72" x="128.515625"/>
      <use xlink:href="#DejaVuSans-61" x="169.628906"/>
      <use xlink:href="#DejaVuSans-74" x="230.908203"/>
      <use xlink:href="#DejaVuSans-69" x="270.117188"/>
      <use xlink:href="#DejaVuSans-6f" x="297.900391"/>
      <use xlink:href="#DejaVuSans-6e" x="359.082031"/>
      <use xlink:href="#DejaVuSans-73" x="422.460938"/>
     </g>
    </g>
   </g>
   <g id="matplotlib.axis_2">
    <g id="ytick_1">
     <g id="line2d_6">
      <defs>
       <path id="m33f736a686" d="M 0 0 
L -3.5 0 
" style="stroke: #000000; stroke-width: 0.8"/>
      </defs>
      <g>
       <use xlink:href="#m33f736a686" x="92.490625" y="278.050314" style="stroke: #000000; stroke-width: 0.8"/>
      </g>
     </g>
     <g id="text_7">
      <!-- −200 -->
      <g transform="translate(30.55625 285.648751) scale(0.2 -0.2)">
       <defs>
        <path id="DejaVuSans-2212" d="M 678 2272 
L 4684 2272 
L 4684 1741 
L 678 1741 
L 678 2272 
z
" transform="scale(0.015625)"/>
       </defs>
       <use xlink:href="#DejaVuSans-2212"/>
       <use xlink:href="#DejaVuSans-32" x="83.789062"/>
       <use xlink:href="#DejaVuSans-30" x="147.412109"/>
       <use xlink:href="#DejaVuSans-30" x="211.035156"/>
      </g>
     </g>
    </g>
    <g id="ytick_2">
     <g id="line2d_7">
      <g>
       <use xlink:href="#m33f736a686" x="92.490625" y="225.895764" style="stroke: #000000; stroke-width: 0.8"/>
      </g>
     </g>
     <g id="text_8">
      <!-- −100 -->
      <g transform="translate(30.55625 233.494202) scale(0.2 -0.2)">
       <defs>
        <path id="DejaVuSans-31" d="M 794 531 
L 1825 531 
L 1825 4091 
L 703 3866 
L 703 4441 
L 1819 4666 
L 2450 4666 
L 2450 531 
L 3481 531 
L 3481 0 
L 794 0 
L 794 531 
z
" transform="scale(0.015625)"/>
       </defs>
       <use xlink:href="#DejaVuSans-2212"/>
       <use xlink:href="#DejaVuSans-31" x="83.789062"/>
       <use xlink:href="#DejaVuSans-30" x="147.412109"/>
       <use xlink:href="#DejaVuSans-30" x="211.035156"/>
      </g>
     </g>
    </g>
    <g id="ytick_3">
     <g id="line2d_8">
      <g>
       <use xlink:href="#m33f736a686" x="92.490625" y="173.741215" style="stroke: #000000; stroke-width: 0.8"/>
      </g>
     </g>
     <g id="text_9">
      <!-- 0 -->
      <g transform="translate(72.765625 181.339652) scale(0.2 -0.2)">
       <use xlink:href="#DejaVuSans-30"/>
      </g>
     </g>
    </g>
    <g id="ytick_4">
     <g id="line2d_9">
      <g>
       <use xlink:href="#m33f736a686" x="92.490625" y="121.586665" style="stroke: #000000; stroke-width: 0.8"/>
      </g>
     </g>
     <g id="text_10">
      <!-- 100 -->
      <g transform="translate(47.315625 129.185102) scale(0.2 -0.2)">
       <use xlink:href="#DejaVuSans-31"/>
       <use xlink:href="#DejaVuSans-30" x="63.623047"/>
       <use xlink:href="#DejaVuSans-30" x="127.246094"/>
      </g>
     </g>
    </g>
    <g id="ytick_5">
     <g id="line2d_10">
      <g>
       <use xlink:href="#m33f736a686" x="92.490625" y="69.432115" style="stroke: #000000; stroke-width: 0.8"/>
      </g>
     </g>
     <g id="text_11">
      <!-- 200 -->
      <g transform="translate(47.315625 77.030553) scale(0.2 -0.2)">
       <use xlink:href="#DejaVuSans-32"/>
       <use xlink:href="#DejaVuSans-30" x="63.623047"/>
       <use xlink:href="#DejaVuSans-30" x="127.246094"/>
      </g>
     </g>
    </g>
    <g id="text_12">
     <!-- Loss -->
     <g transform="translate(22.396875 191.970625) rotate(-90) scale(0.2 -0.2)">
      <defs>
       <path id="DejaVuSans-4c" d="M 628 4666 
L 1259 4666 
L 1259 531 
L 3531 531 
L 3531 0 
L 628 0 
L 628 4666 
z
" transform="scale(0.015625)"/>
      </defs>
      <use xlink:href="#DejaVuSans-4c"/>
      <use xlink:href="#DejaVuSans-6f" x="53.962891"/>
      <use xlink:href="#DejaVuSans-73" x="115.144531"/>
      <use xlink:href="#DejaVuSans-73" x="167.244141"/>
     </g>
    </g>
   </g>
   <g id="line2d_11">
    <path d="M 117.854261 116.730416 
L 118.388233 62.430435 
L 118.922204 101.446911 
L 119.456175 97.742273 
L 119.990147 71.891481 
L 120.524118 66.005259 
L 121.058089 53.003453 
L 121.59206 50.572912 
L 122.126032 59.282987 
L 122.660003 64.407922 
L 123.193974 63.027834 
L 124.795888 76.15716 
L 125.329859 51.933022 
L 125.863831 73.641653 
L 126.397802 118.042353 
L 126.931773 125.137272 
L 127.999716 60.941522 
L 128.533687 44.03625 
L 129.067658 52.703352 
L 129.60163 66.415864 
L 130.669572 80.271673 
L 131.203544 77.046844 
L 131.737515 85.974109 
L 132.271486 89.320307 
L 132.805458 99.781725 
L 133.339429 103.629806 
L 133.8734 95.490293 
L 134.407371 93.742179 
L 134.941343 96.556052 
L 135.475314 104.56955 
L 136.009285 103.315712 
L 136.543257 106.314088 
L 137.077228 101.622759 
L 137.611199 103.726444 
L 138.14517 97.099143 
L 138.679142 105.59913 
L 139.213113 102.090241 
L 139.747084 108.846517 
L 140.281056 107.115866 
L 140.815027 107.768741 
L 141.348998 94.854922 
L 141.882969 103.509892 
L 142.416941 99.688151 
L 142.950912 99.279356 
L 143.484883 102.538264 
L 144.018855 101.345011 
L 144.552826 103.441635 
L 145.086797 100.626615 
L 145.620769 103.77917 
L 146.15474 108.446027 
L 146.688711 104.135863 
L 147.222682 113.024366 
L 147.756654 113.256683 
L 148.290625 118.953402 
L 148.824596 121.504437 
L 149.358568 125.536059 
L 149.892539 125.084203 
L 150.42651 124.975704 
L 150.960481 129.12069 
L 151.494453 129.965285 
L 152.028424 127.601113 
L 152.562395 122.813187 
L 153.096367 121.044518 
L 153.630338 125.340201 
L 154.164309 125.222212 
L 154.698281 129.200338 
L 155.232252 126.028649 
L 155.766223 128.68786 
L 156.834166 125.98626 
L 157.368137 127.841862 
L 157.902108 125.227578 
L 158.43608 130.64839 
L 158.970051 134.240456 
L 159.504022 133.266292 
L 160.037993 131.370037 
L 160.571965 133.221224 
L 161.105936 131.530508 
L 161.639907 127.304061 
L 162.173879 127.021545 
L 162.70785 131.504403 
L 163.241821 129.12013 
L 163.775792 130.155912 
L 164.309764 129.13671 
L 165.377706 135.649824 
L 165.911678 130.074104 
L 166.445649 129.476486 
L 166.97962 129.449765 
L 167.513592 127.07422 
L 168.581534 128.405043 
L 169.115505 132.155688 
L 169.649477 129.996242 
L 170.183448 130.068832 
L 170.717419 128.264842 
L 171.251391 131.050036 
L 171.785362 130.94195 
L 172.319333 128.470743 
L 172.853304 131.531211 
L 173.387276 131.612299 
L 173.921247 132.350694 
L 174.455218 131.23145 
L 174.98919 134.408219 
L 175.523161 133.259949 
L 176.057132 133.451761 
L 176.591103 135.868165 
L 177.125075 136.567827 
L 177.659046 137.964817 
L 178.193017 137.904629 
L 178.726989 140.59013 
L 179.26096 140.248142 
L 179.794931 142.320233 
L 180.862874 143.305748 
L 181.396845 144.681703 
L 181.930816 144.519549 
L 182.464788 145.240951 
L 182.998759 143.606707 
L 183.53273 147.202116 
L 184.066702 147.401776 
L 184.600673 145.312951 
L 185.134644 147.788315 
L 185.668615 144.771762 
L 186.202587 147.864716 
L 186.736558 144.354608 
L 187.270529 149.00043 
L 187.804501 148.864368 
L 188.338472 147.326535 
L 188.872443 147.287939 
L 189.406414 149.193091 
L 189.940386 147.831455 
L 190.474357 148.825769 
L 191.008328 148.096776 
L 191.5423 148.745121 
L 192.076271 151.093129 
L 192.610242 147.222083 
L 193.144214 147.173949 
L 193.678185 149.684394 
L 194.212156 150.670233 
L 194.746127 150.083711 
L 195.280099 151.347509 
L 195.81407 149.72187 
L 196.348041 149.97145 
L 196.882013 152.818688 
L 197.415984 153.166956 
L 197.949955 151.635056 
L 198.483926 152.261085 
L 199.017898 150.388173 
L 199.551869 149.701996 
L 200.08584 148.135366 
L 200.619812 150.229807 
L 201.153783 149.605711 
L 202.221725 151.22725 
L 202.755697 150.754788 
L 203.289668 152.243257 
L 203.823639 151.654234 
L 204.357611 154.11977 
L 204.891582 155.048733 
L 205.425553 153.344866 
L 205.959525 153.231589 
L 206.493496 154.848303 
L 207.027467 153.800574 
L 207.561438 157.048832 
L 208.09541 156.893901 
L 208.629381 155.884159 
L 209.163352 156.207196 
L 210.231295 155.9323 
L 210.765266 157.966988 
L 211.299237 160.584037 
L 211.833209 159.109185 
L 212.36718 160.133137 
L 212.901151 157.417522 
L 213.435123 158.294861 
L 213.969094 157.179436 
L 214.503065 156.74332 
L 215.037036 152.371756 
L 215.571008 154.608543 
L 216.104979 154.732663 
L 216.63895 156.74822 
L 217.172922 153.888262 
L 217.706893 153.0428 
L 218.240864 149.447487 
L 218.774836 149.480507 
L 219.308807 149.219328 
L 219.842778 150.998212 
L 220.376749 153.308223 
L 220.910721 154.868603 
L 221.444692 153.249777 
L 221.978663 154.622314 
L 222.512635 153.342076 
L 223.046606 153.92423 
L 223.580577 155.062312 
L 224.114548 156.883775 
L 224.64852 155.221922 
L 225.182491 156.801697 
L 226.250434 155.609429 
L 226.784405 154.116463 
L 227.318376 155.313135 
L 227.852347 156.80764 
L 228.386319 155.756673 
L 228.92029 156.419443 
L 229.454261 154.641703 
L 229.988233 156.161499 
L 230.522204 154.121002 
L 231.056175 156.645991 
L 231.590147 155.529907 
L 232.124118 156.176916 
L 232.658089 155.396429 
L 233.19206 155.88568 
L 233.726032 155.259632 
L 234.260003 153.799706 
L 234.793974 154.311158 
L 235.327946 153.059434 
L 235.861917 154.648248 
L 236.395888 155.120642 
L 236.929859 153.132141 
L 237.463831 153.483931 
L 237.997802 154.04572 
L 238.531773 154.987186 
L 239.065745 154.816669 
L 239.599716 154.119129 
L 240.133687 153.202575 
L 240.667658 153.916273 
L 241.20163 152.705682 
L 241.735601 152.166556 
L 242.269572 152.402338 
L 242.803544 152.180249 
L 243.337515 154.11953 
L 243.871486 152.016894 
L 244.405458 153.003526 
L 244.939429 151.826107 
L 245.4734 152.171399 
L 246.007371 153.165678 
L 246.541343 152.958836 
L 247.075314 151.2627 
L 247.609285 152.237006 
L 248.143257 152.790376 
L 249.211199 149.160309 
L 250.279142 150.86653 
L 250.813113 150.354096 
L 251.347084 149.479063 
L 251.881056 152.676587 
L 252.415027 151.047918 
L 252.948998 152.469854 
L 253.482969 152.266123 
L 254.016941 153.462899 
L 254.550912 154.069147 
L 255.084883 154.003291 
L 255.618855 154.910829 
L 256.686797 155.294215 
L 257.220769 154.960983 
L 257.75474 154.061296 
L 258.288711 155.470938 
L 258.822682 153.968602 
L 259.356654 153.381538 
L 259.890625 153.259493 
L 260.424596 154.500778 
L 260.958568 155.292109 
L 261.492539 154.850473 
L 262.02651 155.670758 
L 262.560481 154.673209 
L 263.094453 154.525595 
L 263.628424 155.551714 
L 264.162395 155.152165 
L 264.696367 155.936404 
L 265.230338 157.010189 
L 265.764309 156.050296 
L 266.298281 155.985973 
L 267.366223 156.386478 
L 267.900194 157.272418 
L 268.434166 156.749003 
L 268.968137 157.107192 
L 269.502108 157.119295 
L 270.03608 157.761971 
L 270.570051 157.134318 
L 271.104022 156.145483 
L 271.637993 158.606781 
L 272.171965 157.442978 
L 272.705936 157.059694 
L 273.239907 157.835689 
L 273.773879 157.316152 
L 274.841821 157.854228 
L 275.375792 159.260742 
L 275.909764 158.661202 
L 276.443735 158.869777 
L 276.977706 159.238682 
L 277.511678 160.284156 
L 278.045649 159.663591 
L 278.57962 159.433966 
L 279.113592 159.789577 
L 280.181534 159.882359 
L 280.715505 160.25701 
L 281.249477 161.289905 
L 281.783448 158.838544 
L 282.317419 159.924778 
L 282.851391 160.45698 
L 283.385362 160.777332 
L 283.919333 162.658706 
L 284.453304 162.11453 
L 284.987276 162.229981 
L 285.521247 160.98345 
L 286.055218 162.000164 
L 286.58919 163.379221 
L 287.123161 163.181533 
L 287.657132 163.880014 
L 288.191103 163.180675 
L 288.725075 162.92911 
L 289.793017 162.673332 
L 290.326989 164.01015 
L 290.86096 163.898086 
L 291.394931 163.587924 
L 291.928903 163.629103 
L 292.462874 164.448835 
L 292.996845 164.678214 
L 293.530816 165.504125 
L 294.064788 164.692579 
L 294.598759 166.342899 
L 295.13273 167.152715 
L 295.666702 165.965846 
L 296.200673 167.413876 
L 296.734644 166.665451 
L 297.268615 166.885093 
L 297.802587 166.510555 
L 298.870529 165.434706 
L 299.404501 165.631563 
L 299.938472 166.035931 
L 300.472443 165.705315 
L 301.540386 166.525807 
L 302.074357 166.210813 
L 302.608328 166.169597 
L 303.1423 166.418649 
L 303.676271 165.309747 
L 304.210242 165.436775 
L 304.744214 166.031096 
L 305.278185 165.914072 
L 305.812156 167.508869 
L 306.346127 166.783678 
L 306.880099 166.803441 
L 307.41407 166.419973 
L 307.948041 165.84882 
L 308.482013 166.801295 
L 309.015984 166.075255 
L 310.083926 167.123316 
L 310.617898 167.002987 
L 311.151869 167.874705 
L 311.68584 167.313398 
L 312.219812 168.063886 
L 313.287754 167.5642 
L 313.821725 168.792709 
L 314.355697 168.642832 
L 314.889668 167.815961 
L 315.423639 168.876404 
L 316.491582 169.44384 
L 317.025553 169.245245 
L 317.559525 169.40812 
L 318.093496 169.727721 
L 319.69541 169.380179 
L 320.229381 168.682531 
L 320.763352 168.772326 
L 321.297324 169.343754 
L 321.831295 168.172043 
L 322.365266 168.854283 
L 323.96718 169.872072 
L 324.501151 169.938352 
L 325.035123 169.719371 
L 325.569094 168.183161 
L 326.103065 169.845163 
L 326.637036 169.297504 
L 327.171008 170.613594 
L 328.772922 170.480542 
L 329.306893 170.525653 
L 329.840864 169.977587 
L 330.374836 170.364696 
L 330.908807 169.181846 
L 331.442778 170.062413 
L 331.976749 168.886077 
L 332.510721 169.394782 
L 333.044692 169.662922 
L 333.578663 170.145244 
L 334.112635 169.927706 
L 334.646606 170.004292 
L 335.180577 169.875281 
L 335.714548 168.776072 
L 336.24852 168.991334 
L 336.782491 170.365659 
L 337.316462 171.176641 
L 337.850434 171.202022 
L 338.384405 170.910612 
L 339.452347 170.81527 
L 339.986319 171.004884 
L 340.52029 170.949 
L 341.054261 171.33907 
L 341.588233 170.94787 
L 342.122204 171.197713 
L 342.656175 171.714517 
L 343.190147 171.475357 
L 343.724118 171.483979 
L 345.326032 171.036587 
L 345.860003 171.608698 
L 346.393974 171.845687 
L 346.927946 170.643028 
L 347.461917 170.670747 
L 347.995888 171.285834 
L 348.529859 170.540197 
L 349.063831 171.206933 
L 349.597802 171.295074 
L 350.131773 170.80643 
L 350.665745 170.955732 
L 351.199716 171.29138 
L 351.733687 171.91542 
L 352.267658 170.798087 
L 353.335601 172.396778 
L 353.869572 171.585403 
L 354.403544 171.605385 
L 354.937515 171.166604 
L 355.471486 172.321859 
L 356.005458 172.257516 
L 356.539429 173.085883 
L 357.607371 172.209607 
L 358.141343 172.172332 
L 358.675314 172.281268 
L 359.209285 172.82213 
L 360.277228 172.079089 
L 360.811199 172.578862 
L 361.34517 172.245953 
L 361.879142 172.597846 
L 362.413113 172.410781 
L 362.947084 172.673752 
L 363.481056 172.11368 
L 364.015027 172.760862 
L 364.548998 172.901058 
L 365.082969 172.8115 
L 365.616941 172.944725 
L 366.150912 172.884963 
L 366.684883 173.067699 
L 367.218855 172.387809 
L 367.752826 172.65821 
L 368.286797 172.570902 
L 368.820769 173.384998 
L 369.35474 172.353634 
L 369.888711 172.340497 
L 370.422682 172.085243 
L 371.490625 173.137002 
L 372.024596 172.492417 
L 373.092539 172.834667 
L 373.62651 172.629771 
L 374.160481 172.593443 
L 374.694453 172.907705 
L 375.228424 172.320619 
L 375.762395 172.453421 
L 376.296367 172.330282 
L 376.830338 172.595965 
L 377.364309 172.528293 
L 377.898281 172.861315 
L 378.432252 172.896261 
L 378.966223 173.496203 
L 379.500194 173.090749 
L 380.034166 172.827251 
L 380.568137 173.139689 
L 381.102108 173.266205 
L 381.63608 173.642314 
L 382.170051 173.416752 
L 382.704022 172.83362 
L 383.237993 172.80055 
L 383.771965 172.93646 
L 384.305936 173.231901 
L 384.839907 173.197898 
L 385.373879 173.481921 
L 385.90785 173.240156 
L 387.509764 173.864126 
L 388.043735 173.678847 
L 388.577706 173.868298 
L 389.111678 173.729008 
L 389.645649 173.863457 
L 390.17962 173.579213 
L 390.713592 173.71759 
L 391.247563 173.392521 
L 391.781534 174.005318 
L 392.849477 174.1466 
L 393.383448 173.144914 
L 393.917419 173.671143 
L 394.985362 174.144585 
L 395.519333 174.019534 
L 396.053304 173.687268 
L 397.121247 174.288035 
L 397.655218 174.1292 
L 398.18919 174.242572 
L 398.723161 174.970998 
L 399.257132 174.148864 
L 399.791103 174.472383 
L 400.325075 173.912354 
L 400.859046 174.929903 
L 401.393017 174.810248 
L 401.926989 174.379742 
L 403.528903 173.893045 
L 404.062874 173.93676 
L 404.596845 174.381656 
L 405.664788 174.031575 
L 406.198759 173.335467 
L 406.73273 174.324617 
L 407.266702 174.571458 
L 407.800673 174.284473 
L 408.334644 175.075052 
L 408.868615 174.592264 
L 409.936558 174.200782 
L 410.470529 174.356521 
L 411.004501 174.179814 
L 411.538472 174.241436 
L 412.072443 174.705087 
L 412.606414 174.679353 
L 413.140386 175.121293 
L 413.674357 175.179036 
L 414.208328 174.430687 
L 414.7423 174.649242 
L 415.276271 175.257114 
L 415.810242 175.436165 
L 416.344214 175.287799 
L 416.878185 174.561613 
L 417.412156 174.723566 
L 417.946127 174.37005 
L 418.480099 174.652566 
L 419.01407 174.067515 
L 419.548041 174.41544 
L 420.082013 174.313536 
L 420.615984 173.964429 
L 421.149955 175.090529 
L 421.683926 174.400231 
L 422.217898 174.447379 
L 422.751869 174.233904 
L 423.28584 174.975875 
L 423.819812 174.326316 
L 424.353783 175.300385 
L 424.887754 174.82901 
L 425.955697 175.127618 
L 426.489668 174.705087 
L 427.023639 174.46174 
L 427.557611 174.729816 
L 428.091582 174.81318 
L 428.625553 175.237349 
L 429.159525 175.075744 
L 429.693496 175.140725 
L 430.227467 175.423618 
L 430.761438 175.255391 
L 431.29541 174.372277 
L 431.829381 175.023375 
L 432.897324 174.500111 
L 433.431295 174.296632 
L 433.965266 174.415329 
L 434.499237 174.011729 
L 435.033209 173.923366 
L 435.56718 174.913864 
L 436.101151 174.884597 
L 436.635123 174.594898 
L 437.169094 175.163894 
L 437.703065 174.999425 
L 438.237036 174.408347 
L 438.771008 174.79119 
L 439.83895 174.39759 
L 440.372922 174.925129 
L 440.906893 175.055533 
L 442.508807 174.800814 
L 443.042778 174.936818 
L 443.576749 174.810069 
L 444.110721 174.461777 
L 444.644692 174.900441 
L 445.178663 174.840383 
L 445.712635 174.327729 
L 446.246606 174.398339 
L 446.780577 174.61807 
L 447.314548 174.995317 
L 447.84852 174.346549 
L 448.382491 174.179704 
L 449.450434 174.718233 
L 449.984405 174.316179 
L 450.518376 174.535876 
L 451.052347 174.370798 
L 451.586319 174.537744 
L 452.654261 175.518156 
L 453.188233 175.645277 
L 453.722204 175.611891 
L 454.256175 175.052068 
L 454.790147 174.974856 
L 455.324118 175.427324 
L 455.858089 175.271629 
L 456.39206 175.61701 
L 456.926032 175.247906 
L 457.460003 175.294735 
L 457.993974 175.678974 
L 459.061917 176.077742 
L 460.129859 175.413471 
L 460.663831 175.623908 
L 461.197802 175.198067 
L 462.265745 175.44581 
L 462.799716 175.927804 
L 463.333687 175.219054 
L 463.867658 175.687479 
L 464.40163 175.794876 
L 464.935601 175.43702 
L 465.469572 175.328583 
L 466.003544 175.466767 
L 466.537515 175.485727 
L 467.605458 175.825537 
L 468.139429 176.583016 
L 469.207371 176.896142 
L 469.741343 176.304604 
L 470.275314 175.911554 
L 470.809285 176.351337 
L 471.343257 176.181965 
L 471.877228 175.349774 
L 472.411199 176.114277 
L 472.94517 176.114064 
L 473.479142 176.672723 
L 474.547084 176.794847 
L 475.081056 176.325163 
L 475.615027 176.152382 
L 476.148998 176.214148 
L 476.682969 176.505449 
L 477.216941 176.472516 
L 477.750912 176.315092 
L 478.284883 176.027412 
L 478.818855 175.987551 
L 479.352826 176.178034 
L 480.420769 175.706594 
L 480.95474 175.723933 
L 481.488711 175.382591 
L 482.556654 176.010723 
L 483.090625 176.041978 
L 484.158568 175.815828 
L 484.692539 175.496626 
L 485.22651 175.553821 
L 485.760481 175.759455 
L 486.828424 175.844381 
L 487.362395 175.513322 
L 487.896367 175.601948 
L 488.430338 175.865583 
L 488.964309 175.970531 
L 490.032252 175.09015 
L 490.566223 174.097807 
L 491.100194 173.960914 
L 491.634166 175.204017 
L 492.168137 175.655793 
L 492.702108 175.423121 
L 493.23608 175.631669 
L 493.770051 175.399722 
L 494.304022 175.805438 
L 494.837993 176.051574 
L 495.371965 175.853567 
L 495.905936 175.970963 
L 496.439907 175.320615 
L 496.973879 175.441648 
L 498.041821 174.876387 
L 498.575792 174.870139 
L 499.109764 175.364116 
L 499.643735 174.282222 
L 500.177706 175.180443 
L 500.711678 175.13155 
L 501.245649 173.969377 
L 501.77962 174.97548 
L 502.313592 175.185995 
L 502.847563 175.592498 
L 503.381534 174.224 
L 503.915505 174.801255 
L 504.449477 174.91318 
L 504.983448 174.655643 
L 506.051391 175.51598 
L 506.585362 174.805268 
L 507.119333 174.946519 
L 507.653304 174.673955 
L 508.187276 175.576337 
L 508.721247 175.910655 
L 509.78919 174.921067 
L 510.323161 175.43875 
L 510.857132 174.862004 
L 511.391103 175.643429 
L 511.925075 175.346209 
L 512.459046 175.821889 
L 512.993017 175.425669 
L 514.06096 175.266382 
L 514.594931 175.036475 
L 515.128903 175.681982 
L 516.730816 174.957426 
L 517.264788 175.009111 
L 517.798759 175.237253 
L 518.33273 175.090847 
L 518.866702 175.476843 
L 519.400673 175.38795 
L 519.934644 175.687296 
L 520.468615 175.334876 
L 521.002587 175.78399 
L 521.536558 175.347002 
L 522.070529 175.32446 
L 522.604501 175.159546 
L 523.138472 175.583069 
L 523.672443 175.228515 
L 524.206414 176.02991 
L 524.740386 175.340675 
L 525.274357 175.748797 
L 525.808328 175.759824 
L 526.3423 175.502586 
L 526.876271 175.409135 
L 527.410242 175.853548 
L 527.944214 175.920658 
L 529.012156 175.379425 
L 529.546127 176.221307 
L 530.080099 175.55776 
L 530.61407 175.671852 
L 531.148041 176.33195 
L 532.749955 175.693488 
L 533.283926 175.451603 
L 533.817898 176.452433 
L 534.351869 176.21655 
L 534.88584 176.977168 
L 535.419812 175.887416 
L 535.953783 176.256904 
L 536.487754 176.362777 
L 537.021725 175.833331 
L 538.089668 175.793318 
L 538.623639 176.410457 
L 539.157611 176.010869 
L 539.691582 175.973294 
L 540.759525 175.635988 
L 541.293496 175.867813 
L 541.827467 175.84295 
L 542.89541 176.308433 
L 543.429381 176.530575 
L 543.963352 175.556151 
L 544.497324 176.013475 
L 545.031295 176.017003 
L 545.565266 176.345195 
L 546.099237 175.139508 
L 547.16718 175.377084 
L 547.701151 175.782979 
L 548.235123 175.4227 
L 548.769094 175.800744 
L 549.303065 175.668727 
L 549.837036 175.788994 
L 550.371008 175.527982 
L 551.43895 175.857657 
L 553.574836 175.85444 
L 554.108807 175.697297 
L 554.642778 176.20142 
L 555.710721 175.237599 
L 556.244692 175.776461 
L 557.312635 175.51335 
L 557.846606 175.51361 
L 558.380577 175.284847 
L 558.914548 175.988658 
L 559.44852 175.15682 
L 559.982491 175.828069 
L 560.516462 175.4534 
L 561.050434 175.76782 
L 561.584405 175.675099 
L 562.118376 175.469242 
L 563.72029 175.773003 
L 564.254261 175.578627 
L 564.788233 175.859677 
L 565.322204 175.333468 
L 565.856175 175.829719 
L 566.390147 175.65768 
L 567.458089 175.757424 
L 567.99206 176.020463 
L 568.526032 175.659318 
L 569.060003 175.960948 
L 569.593974 175.952687 
L 570.127946 176.320597 
L 570.661917 175.984955 
L 571.195888 176.126386 
L 571.729859 175.913653 
L 572.263831 175.519525 
L 572.797802 175.791608 
L 573.331773 175.351093 
L 573.865745 175.282828 
L 574.399716 175.970826 
L 574.933687 175.400552 
L 575.467658 175.178384 
L 576.00163 175.532004 
L 576.535601 175.700844 
L 577.603544 175.876546 
L 578.137515 175.29351 
L 579.739429 175.80121 
L 580.2734 175.731596 
L 580.807371 176.07433 
L 581.341343 175.832862 
L 582.409285 175.590428 
L 582.943257 175.82564 
L 583.477228 175.881331 
L 584.011199 176.103466 
L 584.54517 175.817807 
L 585.613113 175.589772 
L 587.215027 175.276529 
L 587.748998 174.986334 
L 588.816941 175.148397 
L 589.350912 175.154045 
L 589.884883 174.90375 
L 590.418855 175.098655 
L 590.952826 174.969489 
L 591.486797 175.503733 
L 592.020769 174.699281 
L 592.55474 174.830775 
L 593.088711 174.606166 
L 593.622682 174.633752 
L 594.156654 174.794433 
L 594.690625 175.391126 
L 595.224596 174.277606 
L 596.82651 174.969307 
L 597.360481 174.620509 
L 597.894453 174.539502 
L 598.428424 174.604974 
L 598.962395 174.23742 
L 599.496367 174.810782 
L 600.030338 175.007167 
L 600.564309 174.51024 
L 601.098281 174.737232 
L 602.166223 174.761644 
L 602.700194 174.322663 
L 603.234166 174.866683 
L 604.302108 174.71044 
L 604.83608 174.335361 
L 605.370051 174.262668 
L 605.904022 174.890004 
L 606.437993 174.503134 
L 606.971965 174.750501 
L 607.505936 174.163995 
L 608.039907 175.057433 
L 609.10785 175.289857 
L 610.709764 175.032269 
L 611.777706 174.917818 
L 612.311678 175.166812 
L 612.845649 174.878764 
L 613.37962 174.897581 
L 614.447563 175.763753 
L 614.981534 175.513465 
L 615.515505 176.060368 
L 616.049477 175.325711 
L 616.583448 175.853369 
L 617.651391 174.817698 
L 618.185362 175.369934 
L 618.719333 174.990136 
L 619.253304 175.154369 
L 619.787276 175.499432 
L 620.321247 175.659211 
L 620.855218 175.602143 
L 621.923161 175.101298 
L 622.457132 175.393486 
L 622.991103 175.477245 
L 623.525075 175.193113 
L 624.059046 175.065682 
L 624.593017 175.310346 
L 625.126989 175.089074 
L 625.126989 175.089074 
" clip-path="url(#pd91df8b7fd)" style="fill: none; stroke: #1f77b4; stroke-width: 1.5; stroke-linecap: square"/>
   </g>
   <g id="line2d_12">
    <path d="M 117.854261 283.817858 
L 118.388233 296.03625 
L 118.922204 270.616898 
L 119.456175 261.343127 
L 119.990147 266.675624 
L 120.524118 254.3987 
L 121.058089 253.78483 
L 121.59206 234.718979 
L 122.126032 243.174054 
L 122.660003 233.622601 
L 123.193974 255.831372 
L 123.727946 226.820111 
L 124.261917 231.623087 
L 124.795888 222.755458 
L 125.329859 237.090497 
L 125.863831 221.800231 
L 126.397802 220.580769 
L 126.931773 239.851293 
L 127.465745 218.690556 
L 127.999716 208.012777 
L 128.533687 213.077702 
L 129.067658 203.210023 
L 129.60163 204.36703 
L 130.135601 200.127711 
L 130.669572 197.699217 
L 131.203544 197.009593 
L 131.737515 192.778947 
L 132.271486 193.284367 
L 132.805458 191.367776 
L 133.339429 190.032498 
L 133.8734 190.98049 
L 134.407371 192.754977 
L 134.941343 191.632475 
L 136.009285 187.702186 
L 136.543257 186.31986 
L 137.077228 189.750291 
L 137.611199 188.198746 
L 138.14517 189.00049 
L 138.679142 189.320823 
L 139.213113 185.316259 
L 140.281056 184.835969 
L 140.815027 185.979726 
L 141.348998 188.292898 
L 141.882969 184.413948 
L 142.416941 186.018381 
L 142.950912 185.564117 
L 143.484883 183.829002 
L 144.018855 185.263654 
L 144.552826 184.827063 
L 145.086797 185.642403 
L 145.620769 185.081576 
L 146.15474 185.318168 
L 146.688711 184.356218 
L 147.222682 183.054028 
L 147.756654 183.091849 
L 148.290625 181.620767 
L 148.824596 181.838532 
L 149.358568 182.869973 
L 149.892539 182.690779 
L 150.42651 182.28129 
L 150.960481 180.870267 
L 151.494453 183.116401 
L 152.562395 184.052396 
L 153.096367 184.34861 
L 153.630338 182.464961 
L 154.698281 182.093607 
L 155.232252 184.792872 
L 155.766223 183.634699 
L 156.300194 183.261662 
L 156.834166 184.624761 
L 157.368137 183.487667 
L 157.902108 184.04581 
L 158.43608 182.432324 
L 158.970051 182.812326 
L 159.504022 182.662128 
L 160.037993 182.709696 
L 160.571965 182.390061 
L 161.105936 182.933603 
L 161.639907 185.113963 
L 162.173879 183.825193 
L 162.70785 181.5119 
L 163.241821 182.332163 
L 163.775792 182.657852 
L 164.309764 183.310738 
L 164.843735 183.531447 
L 165.377706 183.308215 
L 165.911678 183.62141 
L 166.445649 184.483335 
L 166.97962 183.45188 
L 168.047563 184.197178 
L 168.581534 183.120905 
L 169.115505 182.57126 
L 169.649477 183.383851 
L 170.183448 182.947738 
L 170.717419 183.167254 
L 171.251391 183.694203 
L 171.785362 183.057892 
L 172.319333 183.707169 
L 172.853304 182.282464 
L 173.387276 184.110702 
L 173.921247 183.132366 
L 174.455218 184.305063 
L 174.98919 182.879901 
L 175.523161 183.550493 
L 176.591103 183.501126 
L 177.125075 182.388915 
L 177.659046 182.417677 
L 178.193017 182.173322 
L 178.726989 183.391072 
L 179.794931 182.940126 
L 180.328903 182.46022 
L 180.862874 182.325477 
L 181.396845 181.724674 
L 181.930816 181.502345 
L 182.464788 182.064616 
L 182.998759 182.799914 
L 184.066702 182.042545 
L 184.600673 182.333771 
L 185.134644 181.160114 
L 185.668615 183.896472 
L 186.202587 182.550055 
L 186.736558 182.064496 
L 187.270529 181.125233 
L 187.804501 181.238594 
L 188.338472 182.004937 
L 188.872443 182.161104 
L 189.406414 181.414516 
L 189.940386 182.304203 
L 190.474357 181.874481 
L 191.008328 181.798224 
L 191.5423 181.982022 
L 192.076271 181.109051 
L 192.610242 182.125077 
L 193.144214 182.440727 
L 194.212156 181.187696 
L 194.746127 181.751393 
L 195.280099 181.583518 
L 195.81407 182.175445 
L 196.348041 183.160066 
L 196.882013 182.022578 
L 197.415984 181.400837 
L 198.483926 182.736279 
L 199.017898 182.132305 
L 199.551869 183.201044 
L 200.08584 183.390734 
L 200.619812 183.243412 
L 201.153783 181.991815 
L 202.221725 182.274377 
L 202.755697 183.17882 
L 203.289668 183.428812 
L 203.823639 183.886167 
L 204.357611 182.608761 
L 204.891582 183.712115 
L 205.959525 183.277566 
L 206.493496 183.511026 
L 208.09541 183.633084 
L 208.629381 183.299605 
L 209.163352 183.783579 
L 209.697324 183.910268 
L 210.765266 184.92944 
L 211.299237 183.203228 
L 211.833209 183.314599 
L 212.36718 184.512217 
L 212.901151 183.829892 
L 213.435123 184.829618 
L 213.969094 183.795532 
L 215.037036 181.114258 
L 216.104979 183.511928 
L 216.63895 183.577943 
L 217.172922 183.326592 
L 217.706893 182.786861 
L 218.240864 183.101856 
L 218.774836 182.860106 
L 219.308807 182.896584 
L 219.842778 183.097378 
L 220.376749 182.191737 
L 220.910721 183.797359 
L 221.444692 182.707522 
L 221.978663 182.50586 
L 222.512635 183.114747 
L 223.046606 182.718723 
L 223.580577 182.923467 
L 224.114548 182.183745 
L 224.64852 183.353683 
L 225.182491 182.7453 
L 225.716462 183.01248 
L 226.250434 183.68453 
L 226.784405 181.987794 
L 227.318376 182.613563 
L 228.386319 183.524069 
L 228.92029 183.241964 
L 229.454261 183.384202 
L 229.988233 183.856913 
L 230.522204 184.648702 
L 231.056175 182.602124 
L 231.590147 183.351471 
L 232.124118 182.881703 
L 232.658089 182.699623 
L 233.19206 182.807006 
L 233.726032 183.289597 
L 234.260003 183.602981 
L 234.793974 184.277064 
L 235.327946 184.604789 
L 235.861917 184.052045 
L 236.395888 183.243903 
L 236.929859 184.052092 
L 237.997802 183.603225 
L 238.531773 183.57647 
L 239.065745 184.190813 
L 239.599716 183.846776 
L 240.133687 183.1117 
L 240.667658 183.575398 
L 241.20163 183.826855 
L 241.735601 183.216567 
L 242.269572 183.100553 
L 242.803544 183.61975 
L 243.337515 183.712894 
L 243.871486 183.597435 
L 244.405458 182.929186 
L 244.939429 183.970208 
L 245.4734 183.329715 
L 246.541343 183.487367 
L 247.075314 184.025893 
L 247.609285 183.355025 
L 248.677228 184.172635 
L 249.211199 183.89308 
L 249.74517 184.720582 
L 250.279142 185.250018 
L 250.813113 183.991193 
L 251.347084 180.264595 
L 251.881056 179.379729 
L 252.415027 179.979928 
L 252.948998 179.808172 
L 253.482969 179.831676 
L 254.016941 180.597556 
L 254.550912 180.60864 
L 255.084883 181.204994 
L 255.618855 180.571995 
L 256.152826 180.389812 
L 256.686797 180.927543 
L 257.220769 181.159789 
L 257.75474 180.95655 
L 258.288711 181.658681 
L 258.822682 181.65998 
L 259.356654 181.207524 
L 259.890625 181.268454 
L 260.424596 181.946299 
L 260.958568 181.462368 
L 261.492539 181.327931 
L 262.02651 181.405739 
L 262.560481 181.830208 
L 263.094453 181.243396 
L 263.628424 181.198737 
L 264.162395 181.023432 
L 264.696367 181.396091 
L 265.230338 180.38087 
L 265.764309 181.313379 
L 266.298281 180.376577 
L 266.832252 180.39457 
L 267.366223 181.042059 
L 267.900194 180.401476 
L 268.434166 180.903968 
L 268.968137 181.080735 
L 269.502108 180.79097 
L 270.570051 181.338014 
L 271.104022 181.292395 
L 271.637993 181.127015 
L 272.171965 181.168368 
L 272.705936 180.728198 
L 273.239907 181.203847 
L 274.30785 180.210731 
L 275.909764 181.131196 
L 276.443735 180.356829 
L 278.045649 181.13129 
L 278.57962 180.48727 
L 279.113592 181.316777 
L 279.647563 180.843416 
L 280.181534 181.182363 
L 280.715505 181.339458 
L 281.249477 180.784706 
L 281.783448 180.901468 
L 282.317419 180.547993 
L 282.851391 180.537567 
L 283.385362 181.04459 
L 283.919333 180.596105 
L 284.987276 180.738678 
L 285.521247 181.393769 
L 286.055218 180.752169 
L 286.58919 180.657503 
L 287.123161 180.737657 
L 287.657132 181.107062 
L 288.191103 180.712911 
L 289.259046 181.124472 
L 289.793017 180.84352 
L 290.326989 181.219557 
L 290.86096 180.44609 
L 291.394931 181.06896 
L 291.928903 181.178658 
L 292.462874 180.837517 
L 292.996845 181.300394 
L 293.530816 181.567467 
L 294.064788 181.012683 
L 294.598759 181.07599 
L 295.13273 180.666583 
L 295.666702 180.522667 
L 296.200673 180.75596 
L 296.734644 180.732957 
L 297.268615 181.094926 
L 297.802587 180.850864 
L 298.870529 180.631432 
L 299.404501 180.665116 
L 300.472443 181.598188 
L 301.006414 180.864201 
L 301.540386 180.568699 
L 302.074357 180.707393 
L 302.608328 181.512054 
L 304.210242 181.481038 
L 304.744214 181.815024 
L 305.278185 181.333635 
L 305.812156 181.233244 
L 306.346127 180.895049 
L 306.880099 181.152924 
L 307.41407 181.111089 
L 308.482013 181.190319 
L 309.015984 181.018222 
L 309.549955 181.32288 
L 310.083926 181.040865 
L 310.617898 181.211261 
L 311.151869 180.891106 
L 311.68584 181.268086 
L 312.219812 181.388344 
L 312.753783 181.081676 
L 313.287754 181.037959 
L 313.821725 180.683913 
L 314.355697 181.45284 
L 314.889668 181.600966 
L 315.423639 180.824199 
L 315.957611 180.767479 
L 316.491582 181.045496 
L 317.025553 180.946243 
L 317.559525 180.980867 
L 318.093496 180.565906 
L 318.627467 181.129756 
L 319.161438 180.275914 
L 319.69541 180.746793 
L 320.763352 180.556783 
L 321.297324 180.362598 
L 321.831295 180.4968 
L 322.365266 180.354044 
L 322.899237 180.75142 
L 323.433209 180.748254 
L 323.96718 180.873944 
L 324.501151 180.736618 
L 325.035123 181.217443 
L 325.569094 180.804086 
L 326.103065 180.653515 
L 326.637036 181.057363 
L 327.171008 180.652628 
L 327.704979 180.766028 
L 328.23895 181.346359 
L 328.772922 180.19628 
L 329.306893 180.998391 
L 330.374836 180.976858 
L 330.908807 180.774304 
L 331.976749 181.364204 
L 332.510721 180.015446 
L 333.578663 181.177205 
L 334.112635 180.721899 
L 334.646606 180.500829 
L 335.180577 180.702456 
L 336.24852 176.307169 
L 336.782491 177.511804 
L 337.316462 177.385175 
L 337.850434 177.852736 
L 338.918376 178.433903 
L 339.452347 178.181649 
L 339.986319 178.338894 
L 340.52029 178.111825 
L 341.054261 178.553982 
L 341.588233 178.428131 
L 342.122204 178.580703 
L 342.656175 178.411208 
L 343.190147 178.595047 
L 343.724118 178.583323 
L 344.258089 178.704573 
L 344.79206 178.524822 
L 346.393974 179.340203 
L 346.927946 178.721279 
L 347.461917 179.195154 
L 347.995888 178.863247 
L 349.063831 178.904504 
L 350.131773 179.17992 
L 350.665745 178.598338 
L 351.199716 178.499958 
L 351.733687 178.959039 
L 352.267658 178.914453 
L 352.80163 178.258735 
L 353.335601 178.66337 
L 353.869572 178.254882 
L 354.403544 178.706815 
L 354.937515 178.492793 
L 355.471486 178.803644 
L 356.005458 178.574321 
L 356.539429 178.670493 
L 357.0734 178.526605 
L 357.607371 178.608478 
L 358.141343 179.052171 
L 358.675314 178.470828 
L 359.743257 178.955696 
L 360.811199 179.056176 
L 361.34517 178.722849 
L 361.879142 179.108168 
L 362.947084 179.04044 
L 363.481056 179.339111 
L 364.015027 178.821481 
L 364.548998 178.828895 
L 365.082969 178.372158 
L 366.150912 179.071322 
L 366.684883 178.823105 
L 368.286797 178.854966 
L 368.820769 178.638637 
L 369.888711 179.102823 
L 370.422682 178.935124 
L 370.956654 178.629359 
L 371.490625 179.069866 
L 372.024596 179.27838 
L 372.558568 179.042123 
L 373.092539 178.640631 
L 373.62651 178.912032 
L 374.694453 179.065539 
L 375.228424 178.941235 
L 375.762395 179.1502 
L 376.296367 179.023144 
L 376.830338 179.363355 
L 377.364309 178.954135 
L 377.898281 178.992939 
L 378.432252 179.443323 
L 378.966223 179.645349 
L 379.500194 178.806777 
L 380.034166 179.401296 
L 381.102108 178.679273 
L 381.63608 179.34932 
L 382.170051 179.115861 
L 382.704022 179.583493 
L 383.237993 179.197347 
L 384.305936 178.990594 
L 384.839907 179.357427 
L 385.90785 179.506311 
L 386.441821 179.485305 
L 386.975792 178.780965 
L 387.509764 179.151367 
L 388.043735 179.013556 
L 388.577706 179.135437 
L 389.645649 179.042252 
L 390.17962 179.472047 
L 390.713592 179.219821 
L 391.247563 179.364226 
L 391.781534 179.358175 
L 392.315505 179.004647 
L 392.849477 179.014748 
L 393.383448 179.397583 
L 393.917419 178.693202 
L 394.985362 179.419855 
L 396.053304 178.889672 
L 396.587276 178.929942 
L 397.121247 179.249873 
L 397.655218 179.169529 
L 398.18919 178.710206 
L 398.723161 179.049115 
L 399.791103 178.837573 
L 400.325075 178.79757 
L 400.859046 178.966607 
L 401.393017 178.738942 
L 401.926989 179.272193 
L 402.46096 178.8278 
L 402.994931 178.895308 
L 403.528903 179.253174 
L 404.596845 179.440098 
L 405.130816 179.186068 
L 406.198759 179.265858 
L 406.73273 179.092749 
L 407.266702 179.164606 
L 407.800673 178.955908 
L 408.334644 178.881991 
L 408.868615 178.564917 
L 409.402587 178.695836 
L 409.936558 179.29003 
L 410.470529 179.437605 
L 411.004501 178.950038 
L 413.140386 179.195519 
L 413.674357 179.007149 
L 415.276271 179.42847 
L 415.810242 178.795757 
L 416.344214 178.69425 
L 417.412156 179.310704 
L 417.946127 178.856549 
L 418.480099 178.975556 
L 419.01407 179.433609 
L 419.548041 179.442179 
L 420.082013 178.94465 
L 421.149955 178.815202 
L 422.751869 178.477733 
L 423.28584 178.114107 
L 423.819812 178.64986 
L 424.353783 178.578177 
L 424.887754 179.115575 
L 425.421725 178.742501 
L 425.955697 178.53909 
L 426.489668 178.845721 
L 427.023639 178.880085 
L 427.557611 179.131845 
L 428.091582 178.54065 
L 429.693496 178.706631 
L 430.227467 178.630018 
L 430.761438 178.677452 
L 431.29541 178.434561 
L 431.829381 179.006029 
L 432.363352 178.741302 
L 432.897324 179.194279 
L 433.431295 179.260951 
L 433.965266 179.191975 
L 434.499237 178.984786 
L 435.033209 179.185696 
L 436.101151 179.056956 
L 436.635123 179.137147 
L 437.169094 179.05843 
L 437.703065 178.759519 
L 438.237036 179.310868 
L 438.771008 178.868002 
L 439.304979 178.694117 
L 440.372922 178.9388 
L 440.906893 178.571324 
L 441.440864 179.132231 
L 441.974836 179.162256 
L 442.508807 178.782115 
L 443.042778 178.882387 
L 443.576749 178.708396 
L 444.110721 178.844637 
L 444.644692 178.779997 
L 445.178663 179.182431 
L 446.780577 178.875146 
L 447.314548 179.323337 
L 447.84852 179.191612 
L 448.382491 179.233337 
L 448.916462 179.028099 
L 449.450434 179.215886 
L 449.984405 178.892683 
L 450.518376 178.952811 
L 451.052347 178.803125 
L 453.188233 179.240258 
L 453.722204 179.068686 
L 454.256175 178.660861 
L 454.790147 178.658637 
L 455.324118 178.895783 
L 455.858089 178.579373 
L 456.926032 178.4952 
L 457.460003 178.801094 
L 457.993974 178.906604 
L 458.527946 178.386062 
L 460.129859 178.324831 
L 460.663831 178.630576 
L 461.731773 178.467981 
L 462.265745 178.548062 
L 462.799716 178.874228 
L 463.867658 178.417217 
L 464.40163 178.742675 
L 465.469572 178.235246 
L 466.537515 178.685491 
L 467.071486 178.603752 
L 467.605458 178.646164 
L 468.6734 178.342603 
L 469.207371 178.461334 
L 469.741343 178.215457 
L 470.275314 178.496797 
L 470.809285 178.551274 
L 471.343257 178.449548 
L 471.877228 178.600133 
L 473.479142 178.732442 
L 474.013113 179.012389 
L 474.547084 178.867877 
L 475.081056 178.586218 
L 475.615027 178.706716 
L 476.148998 179.022021 
L 476.682969 178.855143 
L 477.750912 179.334006 
L 478.284883 178.04463 
L 478.818855 178.856063 
L 479.352826 179.220334 
L 479.886797 178.730664 
L 480.420769 179.094774 
L 480.95474 178.792007 
L 481.488711 178.785669 
L 482.022682 178.992825 
L 482.556654 178.877804 
L 485.760481 178.995964 
L 487.362395 178.571518 
L 487.896367 178.878843 
L 488.430338 178.876594 
L 488.964309 178.7059 
L 489.498281 178.674572 
L 490.032252 178.451724 
L 490.566223 177.283083 
L 491.100194 177.517113 
L 491.634166 178.409482 
L 492.168137 178.541538 
L 492.702108 178.504045 
L 493.23608 178.165852 
L 493.770051 178.367274 
L 494.304022 179.048832 
L 494.837993 179.06605 
L 495.371965 178.751179 
L 495.905936 178.59141 
L 496.439907 178.136257 
L 496.973879 178.453629 
L 497.50785 178.395558 
L 498.041821 178.06291 
L 498.575792 178.169817 
L 499.109764 178.550845 
L 499.643735 178.260967 
L 500.177706 178.422489 
L 500.711678 178.437498 
L 501.245649 178.20868 
L 501.77962 177.831384 
L 502.313592 178.375971 
L 502.847563 177.778779 
L 503.381534 176.356567 
L 504.449477 177.258387 
L 504.983448 177.304316 
L 506.585362 177.717315 
L 507.653304 177.815701 
L 508.187276 177.507966 
L 509.255218 177.424103 
L 509.78919 177.490708 
L 510.857132 177.292338 
L 511.391103 177.71878 
L 511.925075 178.300794 
L 512.459046 178.085515 
L 512.993017 178.436069 
L 513.526989 178.042457 
L 514.06096 177.006199 
L 514.594931 177.608689 
L 515.128903 177.794829 
L 515.662874 177.650742 
L 516.196845 178.096042 
L 516.730816 177.845612 
L 517.798759 177.919014 
L 518.866702 178.002204 
L 519.400673 177.627559 
L 519.934644 178.074846 
L 520.468615 178.063833 
L 521.536558 177.697961 
L 522.070529 177.852067 
L 522.604501 178.157186 
L 523.138472 177.888062 
L 523.672443 178.266098 
L 524.206414 178.081566 
L 524.740386 177.563687 
L 525.274357 177.630044 
L 525.808328 177.948154 
L 526.3423 177.919448 
L 526.876271 177.460672 
L 527.410242 177.940087 
L 527.944214 177.907446 
L 529.012156 177.149796 
L 530.080099 178.086275 
L 530.61407 177.875391 
L 531.148041 177.827473 
L 531.682013 177.428997 
L 532.215984 177.707046 
L 532.749955 177.796431 
L 533.283926 177.61867 
L 533.817898 177.743852 
L 534.351869 178.210744 
L 534.88584 178.235982 
L 535.419812 177.858813 
L 535.953783 178.153955 
L 537.021725 178.032912 
L 537.555697 177.874922 
L 538.089668 178.017389 
L 538.623639 177.795975 
L 539.157611 178.041335 
L 539.691582 178.158146 
L 540.225553 177.61645 
L 540.759525 178.124577 
L 541.293496 177.874549 
L 541.827467 177.902825 
L 542.361438 177.655145 
L 542.89541 177.823791 
L 543.963352 177.482297 
L 544.497324 177.543045 
L 545.031295 177.943777 
L 545.565266 177.654174 
L 546.633209 178.014056 
L 547.16718 177.767172 
L 547.701151 178.061381 
L 548.235123 178.012416 
L 549.303065 177.784691 
L 549.837036 177.890452 
L 550.371008 177.582448 
L 550.904979 178.045734 
L 551.43895 177.688063 
L 552.506893 177.795479 
L 553.040864 177.781499 
L 553.574836 178.085286 
L 554.642778 177.866619 
L 555.710721 177.575934 
L 556.244692 178.207843 
L 556.778663 177.68741 
L 557.312635 177.646399 
L 557.846606 177.996321 
L 558.380577 178.155769 
L 558.914548 177.779382 
L 559.44852 177.581883 
L 560.516462 177.728854 
L 561.050434 177.601826 
L 561.584405 177.299808 
L 562.118376 177.720555 
L 562.652347 177.771553 
L 563.186319 177.986081 
L 563.72029 177.917202 
L 564.254261 178.056569 
L 564.788233 177.881752 
L 565.322204 178.013289 
L 565.856175 177.845746 
L 567.458089 178.000163 
L 568.526032 178.09435 
L 570.661917 178.028538 
L 571.195888 177.575061 
L 571.729859 177.903325 
L 573.331773 177.92304 
L 573.865745 178.296702 
L 574.399716 177.536041 
L 575.467658 178.299139 
L 576.535601 177.597842 
L 577.069572 177.571086 
L 577.603544 178.083496 
L 578.137515 177.795569 
L 578.671486 178.260632 
L 579.205458 177.783564 
L 579.739429 177.63248 
L 580.2734 177.853258 
L 580.807371 177.876817 
L 581.341343 178.025955 
L 581.875314 178.30027 
L 582.409285 177.978471 
L 582.943257 178.253196 
L 583.477228 178.281086 
L 584.011199 177.919674 
L 584.54517 177.731118 
L 585.079142 178.128675 
L 585.613113 177.977383 
L 586.147084 177.955703 
L 586.681056 177.697787 
L 587.215027 177.571691 
L 587.748998 177.732882 
L 588.282969 177.715864 
L 588.816941 177.523051 
L 589.350912 177.942678 
L 590.418855 177.802956 
L 592.020769 177.785892 
L 592.55474 177.602954 
L 593.622682 177.613392 
L 594.156654 177.858624 
L 594.690625 177.713087 
L 595.224596 178.067712 
L 595.758568 178.040431 
L 596.292539 177.677158 
L 596.82651 177.98925 
L 597.360481 178.460061 
L 598.428424 177.764607 
L 599.496367 177.900637 
L 600.030338 177.608285 
L 600.564309 177.506282 
L 601.098281 177.830049 
L 601.632252 177.85087 
L 602.166223 178.206318 
L 602.700194 177.991505 
L 605.370051 177.904066 
L 605.904022 177.609825 
L 606.437993 177.935633 
L 607.505936 177.593403 
L 608.039907 178.000685 
L 608.573879 177.477818 
L 609.10785 177.196323 
L 609.641821 177.346474 
L 610.175792 177.253075 
L 611.243735 177.796553 
L 612.311678 177.323836 
L 613.37962 177.705141 
L 613.913592 177.616126 
L 614.447563 177.672933 
L 614.981534 177.425612 
L 616.049477 177.67359 
L 616.583448 177.478151 
L 617.651391 177.493176 
L 618.185362 177.631309 
L 619.253304 177.351125 
L 619.787276 177.683864 
L 620.321247 177.323841 
L 621.38919 177.793755 
L 621.923161 177.534712 
L 622.457132 177.61511 
L 622.991103 177.548197 
L 623.525075 177.778557 
L 624.059046 177.545677 
L 624.593017 177.855182 
L 625.126989 177.636581 
L 625.126989 177.636581 
" clip-path="url(#pd91df8b7fd)" style="fill: none; stroke: #ff7f0e; stroke-width: 1.5; stroke-linecap: square"/>
   </g>
   <g id="patch_3">
    <path d="M 92.490625 308.63625 
L 92.490625 31.43625 
" style="fill: none; stroke: #000000; stroke-width: 0.8; stroke-linejoin: miter; stroke-linecap: square"/>
   </g>
   <g id="patch_4">
    <path d="M 650.490625 308.63625 
L 650.490625 31.43625 
" style="fill: none; stroke: #000000; stroke-width: 0.8; stroke-linejoin: miter; stroke-linecap: square"/>
   </g>
   <g id="patch_5">
    <path d="M 92.490625 308.63625 
L 650.490625 308.63625 
" style="fill: none; stroke: #000000; stroke-width: 0.8; stroke-linejoin: miter; stroke-linecap: square"/>
   </g>
   <g id="patch_6">
    <path d="M 92.490625 31.43625 
L 650.490625 31.43625 
" style="fill: none; stroke: #000000; stroke-width: 0.8; stroke-linejoin: miter; stroke-linecap: square"/>
   </g>
   <g id="text_13">
    <!-- Generator and Discriminator Loss During Training -->
    <g transform="translate(74.258125 25.43625) scale(0.24 -0.24)">
     <defs>
      <path id="DejaVuSans-47" d="M 3809 666 
L 3809 1919 
L 2778 1919 
L 2778 2438 
L 4434 2438 
L 4434 434 
Q 4069 175 3628 42 
Q 3188 -91 2688 -91 
Q 1594 -91 976 548 
Q 359 1188 359 2328 
Q 359 3472 976 4111 
Q 1594 4750 2688 4750 
Q 3144 4750 3555 4637 
Q 3966 4525 4313 4306 
L 4313 3634 
Q 3963 3931 3569 4081 
Q 3175 4231 2741 4231 
Q 1884 4231 1454 3753 
Q 1025 3275 1025 2328 
Q 1025 1384 1454 906 
Q 1884 428 2741 428 
Q 3075 428 3337 486 
Q 3600 544 3809 666 
z
" transform="scale(0.015625)"/>
      <path id="DejaVuSans-20" transform="scale(0.015625)"/>
      <path id="DejaVuSans-64" d="M 2906 2969 
L 2906 4863 
L 3481 4863 
L 3481 0 
L 2906 0 
L 2906 525 
Q 2725 213 2448 61 
Q 2172 -91 1784 -91 
Q 1150 -91 751 415 
Q 353 922 353 1747 
Q 353 2572 751 3078 
Q 1150 3584 1784 3584 
Q 2172 3584 2448 3432 
Q 2725 3281 2906 2969 
z
M 947 1747 
Q 947 1113 1208 752 
Q 1469 391 1925 391 
Q 2381 391 2643 752 
Q 2906 1113 2906 1747 
Q 2906 2381 2643 2742 
Q 2381 3103 1925 3103 
Q 1469 3103 1208 2742 
Q 947 2381 947 1747 
z
" transform="scale(0.015625)"/>
      <path id="DejaVuSans-44" d="M 1259 4147 
L 1259 519 
L 2022 519 
Q 2988 519 3436 956 
Q 3884 1394 3884 2338 
Q 3884 3275 3436 3711 
Q 2988 4147 2022 4147 
L 1259 4147 
z
M 628 4666 
L 1925 4666 
Q 3281 4666 3915 4102 
Q 4550 3538 4550 2338 
Q 4550 1131 3912 565 
Q 3275 0 1925 0 
L 628 0 
L 628 4666 
z
" transform="scale(0.015625)"/>
      <path id="DejaVuSans-63" d="M 3122 3366 
L 3122 2828 
Q 2878 2963 2633 3030 
Q 2388 3097 2138 3097 
Q 1578 3097 1268 2742 
Q 959 2388 959 1747 
Q 959 1106 1268 751 
Q 1578 397 2138 397 
Q 2388 397 2633 464 
Q 2878 531 3122 666 
L 3122 134 
Q 2881 22 2623 -34 
Q 2366 -91 2075 -91 
Q 1284 -91 818 406 
Q 353 903 353 1747 
Q 353 2603 823 3093 
Q 1294 3584 2113 3584 
Q 2378 3584 2631 3529 
Q 2884 3475 3122 3366 
z
" transform="scale(0.015625)"/>
      <path id="DejaVuSans-6d" d="M 3328 2828 
Q 3544 3216 3844 3400 
Q 4144 3584 4550 3584 
Q 5097 3584 5394 3201 
Q 5691 2819 5691 2113 
L 5691 0 
L 5113 0 
L 5113 2094 
Q 5113 2597 4934 2840 
Q 4756 3084 4391 3084 
Q 3944 3084 3684 2787 
Q 3425 2491 3425 1978 
L 3425 0 
L 2847 0 
L 2847 2094 
Q 2847 2600 2669 2842 
Q 2491 3084 2119 3084 
Q 1678 3084 1418 2786 
Q 1159 2488 1159 1978 
L 1159 0 
L 581 0 
L 581 3500 
L 1159 3500 
L 1159 2956 
Q 1356 3278 1631 3431 
Q 1906 3584 2284 3584 
Q 2666 3584 2933 3390 
Q 3200 3197 3328 2828 
z
" transform="scale(0.015625)"/>
      <path id="DejaVuSans-75" d="M 544 1381 
L 544 3500 
L 1119 3500 
L 1119 1403 
Q 1119 906 1312 657 
Q 1506 409 1894 409 
Q 2359 409 2629 706 
Q 2900 1003 2900 1516 
L 2900 3500 
L 3475 3500 
L 3475 0 
L 2900 0 
L 2900 538 
Q 2691 219 2414 64 
Q 2138 -91 1772 -91 
Q 1169 -91 856 284 
Q 544 659 544 1381 
z
M 1991 3584 
L 1991 3584 
z
" transform="scale(0.015625)"/>
      <path id="DejaVuSans-67" d="M 2906 1791 
Q 2906 2416 2648 2759 
Q 2391 3103 1925 3103 
Q 1463 3103 1205 2759 
Q 947 2416 947 1791 
Q 947 1169 1205 825 
Q 1463 481 1925 481 
Q 2391 481 2648 825 
Q 2906 1169 2906 1791 
z
M 3481 434 
Q 3481 -459 3084 -895 
Q 2688 -1331 1869 -1331 
Q 1566 -1331 1297 -1286 
Q 1028 -1241 775 -1147 
L 775 -588 
Q 1028 -725 1275 -790 
Q 1522 -856 1778 -856 
Q 2344 -856 2625 -561 
Q 2906 -266 2906 331 
L 2906 616 
Q 2728 306 2450 153 
Q 2172 0 1784 0 
Q 1141 0 747 490 
Q 353 981 353 1791 
Q 353 2603 747 3093 
Q 1141 3584 1784 3584 
Q 2172 3584 2450 3431 
Q 2728 3278 2906 2969 
L 2906 3500 
L 3481 3500 
L 3481 434 
z
" transform="scale(0.015625)"/>
      <path id="DejaVuSans-54" d="M -19 4666 
L 3928 4666 
L 3928 4134 
L 2272 4134 
L 2272 0 
L 1638 0 
L 1638 4134 
L -19 4134 
L -19 4666 
z
" transform="scale(0.015625)"/>
     </defs>
     <use xlink:href="#DejaVuSans-47"/>
     <use xlink:href="#DejaVuSans-65" x="77.490234"/>
     <use xlink:href="#DejaVuSans-6e" x="139.013672"/>
     <use xlink:href="#DejaVuSans-65" x="202.392578"/>
     <use xlink:href="#DejaVuSans-72" x="263.916016"/>
     <use xlink:href="#DejaVuSans-61" x="305.029297"/>
     <use xlink:href="#DejaVuSans-74" x="366.308594"/>
     <use xlink:href="#DejaVuSans-6f" x="405.517578"/>
     <use xlink:href="#DejaVuSans-72" x="466.699219"/>
     <use xlink:href="#DejaVuSans-20" x="507.8125"/>
     <use xlink:href="#DejaVuSans-61" x="539.599609"/>
     <use xlink:href="#DejaVuSans-6e" x="600.878906"/>
     <use xlink:href="#DejaVuSans-64" x="664.257812"/>
     <use xlink:href="#DejaVuSans-20" x="727.734375"/>
     <use xlink:href="#DejaVuSans-44" x="759.521484"/>
     <use xlink:href="#DejaVuSans-69" x="836.523438"/>
     <use xlink:href="#DejaVuSans-73" x="864.306641"/>
     <use xlink:href="#DejaVuSans-63" x="916.40625"/>
     <use xlink:href="#DejaVuSans-72" x="971.386719"/>
     <use xlink:href="#DejaVuSans-69" x="1012.5"/>
     <use xlink:href="#DejaVuSans-6d" x="1040.283203"/>
     <use xlink:href="#DejaVuSans-69" x="1137.695312"/>
     <use xlink:href="#DejaVuSans-6e" x="1165.478516"/>
     <use xlink:href="#DejaVuSans-61" x="1228.857422"/>
     <use xlink:href="#DejaVuSans-74" x="1290.136719"/>
     <use xlink:href="#DejaVuSans-6f" x="1329.345703"/>
     <use xlink:href="#DejaVuSans-72" x="1390.527344"/>
     <use xlink:href="#DejaVuSans-20" x="1431.640625"/>
     <use xlink:href="#DejaVuSans-4c" x="1463.427734"/>
     <use xlink:href="#DejaVuSans-6f" x="1517.390625"/>
     <use xlink:href="#DejaVuSans-73" x="1578.572266"/>
     <use xlink:href="#DejaVuSans-73" x="1630.671875"/>
     <use xlink:href="#DejaVuSans-20" x="1682.771484"/>
     <use xlink:href="#DejaVuSans-44" x="1714.558594"/>
     <use xlink:href="#DejaVuSans-75" x="1791.560547"/>
     <use xlink:href="#DejaVuSans-72" x="1854.939453"/>
     <use xlink:href="#DejaVuSans-69" x="1896.052734"/>
     <use xlink:href="#DejaVuSans-6e" x="1923.835938"/>
     <use xlink:href="#DejaVuSans-67" x="1987.214844"/>
     <use xlink:href="#DejaVuSans-20" x="2050.691406"/>
     <use xlink:href="#DejaVuSans-54" x="2082.478516"/>
     <use xlink:href="#DejaVuSans-72" x="2128.8125"/>
     <use xlink:href="#DejaVuSans-61" x="2169.925781"/>
     <use xlink:href="#DejaVuSans-69" x="2231.205078"/>
     <use xlink:href="#DejaVuSans-6e" x="2258.988281"/>
     <use xlink:href="#DejaVuSans-69" x="2322.367188"/>
     <use xlink:href="#DejaVuSans-6e" x="2350.150391"/>
     <use xlink:href="#DejaVuSans-67" x="2413.529297"/>
    </g>
   </g>
   <g id="legend_1">
    <g id="patch_7">
     <path d="M 556.99375 106.14875 
L 636.490625 106.14875 
Q 640.490625 106.14875 640.490625 102.14875 
L 640.490625 45.43625 
Q 640.490625 41.43625 636.490625 41.43625 
L 556.99375 41.43625 
Q 552.99375 41.43625 552.99375 45.43625 
L 552.99375 102.14875 
Q 552.99375 106.14875 556.99375 106.14875 
z
" style="fill: #ffffff; opacity: 0.8; stroke: #cccccc; stroke-linejoin: miter"/>
    </g>
    <g id="line2d_13">
     <path d="M 560.99375 57.633125 
L 580.99375 57.633125 
L 600.99375 57.633125 
" style="fill: none; stroke: #1f77b4; stroke-width: 1.5; stroke-linecap: square"/>
    </g>
    <g id="text_14">
     <!-- G -->
     <g transform="translate(616.99375 64.633125) scale(0.2 -0.2)">
      <use xlink:href="#DejaVuSans-47"/>
     </g>
    </g>
    <g id="line2d_14">
     <path d="M 560.99375 86.989375 
L 580.99375 86.989375 
L 600.99375 86.989375 
" style="fill: none; stroke: #ff7f0e; stroke-width: 1.5; stroke-linecap: square"/>
    </g>
    <g id="text_15">
     <!-- D -->
     <g transform="translate(616.99375 93.989375) scale(0.2 -0.2)">
      <use xlink:href="#DejaVuSans-44"/>
     </g>
    </g>
   </g>
  </g>
 </g>
 <defs>
  <clipPath id="pd91df8b7fd">
   <rect x="92.490625" y="31.43625" width="558" height="277.2"/>
  </clipPath>
 </defs>
</svg>
