<?xml version="1.0" encoding="utf-8" standalone="no"?>
<!DOCTYPE svg PUBLIC "-//W3C//DTD SVG 1.1//EN"
  "http://www.w3.org/Graphics/SVG/1.1/DTD/svg11.dtd">
<svg xmlns:xlink="http://www.w3.org/1999/xlink" width="676.564867pt" height="365.54875pt" viewBox="0 0 676.564867 365.54875" xmlns="http://www.w3.org/2000/svg" version="1.1">
 <metadata>
  <rdf:RDF xmlns:dc="http://purl.org/dc/elements/1.1/" xmlns:cc="http://creativecommons.org/ns#" xmlns:rdf="http://www.w3.org/1999/02/22-rdf-syntax-ns#">
   <cc:Work>
    <dc:type rdf:resource="http://purl.org/dc/dcmitype/StillImage"/>
    <dc:date>2024-02-01T18:04:56.742723</dc:date>
    <dc:format>image/svg+xml</dc:format>
    <dc:creator>
     <cc:Agent>
      <dc:title>Matplotlib v3.7.2, https://matplotlib.org/</dc:title>
     </cc:Agent>
    </dc:creator>
   </cc:Work>
  </rdf:RDF>
 </metadata>
 <defs>
  <style type="text/css">*{stroke-linejoin: round; stroke-linecap: butt}</style>
 </defs>
 <g id="figure_1">
  <g id="patch_1">
   <path d="M 0 365.54875 
L 676.564867 365.54875 
L 676.564867 -0 
L 0 -0 
z
" style="fill: #ffffff"/>
  </g>
  <g id="axes_1">
   <g id="patch_2">
    <path d="M 92.490625 308.63625 
L 650.490625 308.63625 
L 650.490625 31.43625 
L 92.490625 31.43625 
z
" style="fill: #ffffff"/>
   </g>
   <g id="matplotlib.axis_1">
    <g id="xtick_1">
     <g id="line2d_1">
      <defs>
       <path id="m09062fce7a" d="M 0 0 
L 0 3.5 
" style="stroke: #000000; stroke-width: 0.8"/>
      </defs>
      <g>
       <use xlink:href="#m09062fce7a" x="117.854261" y="308.63625" style="stroke: #000000; stroke-width: 0.8"/>
      </g>
     </g>
     <g id="text_1">
      <!-- 0 -->
      <g transform="translate(111.491761 330.833125) scale(0.2 -0.2)">
       <defs>
        <path id="DejaVuSans-30" d="M 2034 4250 
Q 1547 4250 1301 3770 
Q 1056 3291 1056 2328 
Q 1056 1369 1301 889 
Q 1547 409 2034 409 
Q 2525 409 2770 889 
Q 3016 1369 3016 2328 
Q 3016 3291 2770 3770 
Q 2525 4250 2034 4250 
z
M 2034 4750 
Q 2819 4750 3233 4129 
Q 3647 3509 3647 2328 
Q 3647 1150 3233 529 
Q 2819 -91 2034 -91 
Q 1250 -91 836 529 
Q 422 1150 422 2328 
Q 422 3509 836 4129 
Q 1250 4750 2034 4750 
z
" transform="scale(0.015625)"/>
       </defs>
       <use xlink:href="#DejaVuSans-30"/>
      </g>
     </g>
    </g>
    <g id="xtick_2">
     <g id="line2d_2">
      <g>
       <use xlink:href="#m09062fce7a" x="193.005777" y="308.63625" style="stroke: #000000; stroke-width: 0.8"/>
      </g>
     </g>
     <g id="text_2">
      <!-- 200 -->
      <g transform="translate(173.918277 330.833125) scale(0.2 -0.2)">
       <defs>
        <path id="DejaVuSans-32" d="M 1228 531 
L 3431 531 
L 3431 0 
L 469 0 
L 469 531 
Q 828 903 1448 1529 
Q 2069 2156 2228 2338 
Q 2531 2678 2651 2914 
Q 2772 3150 2772 3378 
Q 2772 3750 2511 3984 
Q 2250 4219 1831 4219 
Q 1534 4219 1204 4116 
Q 875 4013 500 3803 
L 500 4441 
Q 881 4594 1212 4672 
Q 1544 4750 1819 4750 
Q 2544 4750 2975 4387 
Q 3406 4025 3406 3419 
Q 3406 3131 3298 2873 
Q 3191 2616 2906 2266 
Q 2828 2175 2409 1742 
Q 1991 1309 1228 531 
z
" transform="scale(0.015625)"/>
       </defs>
       <use xlink:href="#DejaVuSans-32"/>
       <use xlink:href="#DejaVuSans-30" x="63.623047"/>
       <use xlink:href="#DejaVuSans-30" x="127.246094"/>
      </g>
     </g>
    </g>
    <g id="xtick_3">
     <g id="line2d_3">
      <g>
       <use xlink:href="#m09062fce7a" x="268.157292" y="308.63625" style="stroke: #000000; stroke-width: 0.8"/>
      </g>
     </g>
     <g id="text_3">
      <!-- 400 -->
      <g transform="translate(249.069792 330.833125) scale(0.2 -0.2)">
       <defs>
        <path id="DejaVuSans-34" d="M 2419 4116 
L 825 1625 
L 2419 1625 
L 2419 4116 
z
M 2253 4666 
L 3047 4666 
L 3047 1625 
L 3713 1625 
L 3713 1100 
L 3047 1100 
L 3047 0 
L 2419 0 
L 2419 1100 
L 313 1100 
L 313 1709 
L 2253 4666 
z
" transform="scale(0.015625)"/>
       </defs>
       <use xlink:href="#DejaVuSans-34"/>
       <use xlink:href="#DejaVuSans-30" x="63.623047"/>
       <use xlink:href="#DejaVuSans-30" x="127.246094"/>
      </g>
     </g>
    </g>
    <g id="xtick_4">
     <g id="line2d_4">
      <g>
       <use xlink:href="#m09062fce7a" x="343.308807" y="308.63625" style="stroke: #000000; stroke-width: 0.8"/>
      </g>
     </g>
     <g id="text_4">
      <!-- 600 -->
      <g transform="translate(324.221307 330.833125) scale(0.2 -0.2)">
       <defs>
        <path id="DejaVuSans-36" d="M 2113 2584 
Q 1688 2584 1439 2293 
Q 1191 2003 1191 1497 
Q 1191 994 1439 701 
Q 1688 409 2113 409 
Q 2538 409 2786 701 
Q 3034 994 3034 1497 
Q 3034 2003 2786 2293 
Q 2538 2584 2113 2584 
z
M 3366 4563 
L 3366 3988 
Q 3128 4100 2886 4159 
Q 2644 4219 2406 4219 
Q 1781 4219 1451 3797 
Q 1122 3375 1075 2522 
Q 1259 2794 1537 2939 
Q 1816 3084 2150 3084 
Q 2853 3084 3261 2657 
Q 3669 2231 3669 1497 
Q 3669 778 3244 343 
Q 2819 -91 2113 -91 
Q 1303 -91 875 529 
Q 447 1150 447 2328 
Q 447 3434 972 4092 
Q 1497 4750 2381 4750 
Q 2619 4750 2861 4703 
Q 3103 4656 3366 4563 
z
" transform="scale(0.015625)"/>
       </defs>
       <use xlink:href="#DejaVuSans-36"/>
       <use xlink:href="#DejaVuSans-30" x="63.623047"/>
       <use xlink:href="#DejaVuSans-30" x="127.246094"/>
      </g>
     </g>
    </g>
    <g id="xtick_5">
     <g id="line2d_5">
      <g>
       <use xlink:href="#m09062fce7a" x="418.460322" y="308.63625" style="stroke: #000000; stroke-width: 0.8"/>
      </g>
     </g>
     <g id="text_5">
      <!-- 800 -->
      <g transform="translate(399.372822 330.833125) scale(0.2 -0.2)">
       <defs>
        <path id="DejaVuSans-38" d="M 2034 2216 
Q 1584 2216 1326 1975 
Q 1069 1734 1069 1313 
Q 1069 891 1326 650 
Q 1584 409 2034 409 
Q 2484 409 2743 651 
Q 3003 894 3003 1313 
Q 3003 1734 2745 1975 
Q 2488 2216 2034 2216 
z
M 1403 2484 
Q 997 2584 770 2862 
Q 544 3141 544 3541 
Q 544 4100 942 4425 
Q 1341 4750 2034 4750 
Q 2731 4750 3128 4425 
Q 3525 4100 3525 3541 
Q 3525 3141 3298 2862 
Q 3072 2584 2669 2484 
Q 3125 2378 3379 2068 
Q 3634 1759 3634 1313 
Q 3634 634 3220 271 
Q 2806 -91 2034 -91 
Q 1263 -91 848 271 
Q 434 634 434 1313 
Q 434 1759 690 2068 
Q 947 2378 1403 2484 
z
M 1172 3481 
Q 1172 3119 1398 2916 
Q 1625 2713 2034 2713 
Q 2441 2713 2670 2916 
Q 2900 3119 2900 3481 
Q 2900 3844 2670 4047 
Q 2441 4250 2034 4250 
Q 1625 4250 1398 4047 
Q 1172 3844 1172 3481 
z
" transform="scale(0.015625)"/>
       </defs>
       <use xlink:href="#DejaVuSans-38"/>
       <use xlink:href="#DejaVuSans-30" x="63.623047"/>
       <use xlink:href="#DejaVuSans-30" x="127.246094"/>
      </g>
     </g>
    </g>
    <g id="xtick_6">
     <g id="line2d_6">
      <g>
       <use xlink:href="#m09062fce7a" x="493.611837" y="308.63625" style="stroke: #000000; stroke-width: 0.8"/>
      </g>
     </g>
     <g id="text_6">
      <!-- 1000 -->
      <g transform="translate(468.161837 330.833125) scale(0.2 -0.2)">
       <defs>
        <path id="DejaVuSans-31" d="M 794 531 
L 1825 531 
L 1825 4091 
L 703 3866 
L 703 4441 
L 1819 4666 
L 2450 4666 
L 2450 531 
L 3481 531 
L 3481 0 
L 794 0 
L 794 531 
z
" transform="scale(0.015625)"/>
       </defs>
       <use xlink:href="#DejaVuSans-31"/>
       <use xlink:href="#DejaVuSans-30" x="63.623047"/>
       <use xlink:href="#DejaVuSans-30" x="127.246094"/>
       <use xlink:href="#DejaVuSans-30" x="190.869141"/>
      </g>
     </g>
    </g>
    <g id="xtick_7">
     <g id="line2d_7">
      <g>
       <use xlink:href="#m09062fce7a" x="568.763352" y="308.63625" style="stroke: #000000; stroke-width: 0.8"/>
      </g>
     </g>
     <g id="text_7">
      <!-- 1200 -->
      <g transform="translate(543.313352 330.833125) scale(0.2 -0.2)">
       <use xlink:href="#DejaVuSans-31"/>
       <use xlink:href="#DejaVuSans-32" x="63.623047"/>
       <use xlink:href="#DejaVuSans-30" x="127.246094"/>
       <use xlink:href="#DejaVuSans-30" x="190.869141"/>
      </g>
     </g>
    </g>
    <g id="xtick_8">
     <g id="line2d_8">
      <g>
       <use xlink:href="#m09062fce7a" x="643.914867" y="308.63625" style="stroke: #000000; stroke-width: 0.8"/>
      </g>
     </g>
     <g id="text_8">
      <!-- 1400 -->
      <g transform="translate(618.464867 330.833125) scale(0.2 -0.2)">
       <use xlink:href="#DejaVuSans-31"/>
       <use xlink:href="#DejaVuSans-34" x="63.623047"/>
       <use xlink:href="#DejaVuSans-30" x="127.246094"/>
       <use xlink:href="#DejaVuSans-30" x="190.869141"/>
      </g>
     </g>
    </g>
    <g id="text_9">
     <!-- iterations -->
     <g transform="translate(324.035938 354.189375) scale(0.2 -0.2)">
      <defs>
       <path id="DejaVuSans-69" d="M 603 3500 
L 1178 3500 
L 1178 0 
L 603 0 
L 603 3500 
z
M 603 4863 
L 1178 4863 
L 1178 4134 
L 603 4134 
L 603 4863 
z
" transform="scale(0.015625)"/>
       <path id="DejaVuSans-74" d="M 1172 4494 
L 1172 3500 
L 2356 3500 
L 2356 3053 
L 1172 3053 
L 1172 1153 
Q 1172 725 1289 603 
Q 1406 481 1766 481 
L 2356 481 
L 2356 0 
L 1766 0 
Q 1100 0 847 248 
Q 594 497 594 1153 
L 594 3053 
L 172 3053 
L 172 3500 
L 594 3500 
L 594 4494 
L 1172 4494 
z
" transform="scale(0.015625)"/>
       <path id="DejaVuSans-65" d="M 3597 1894 
L 3597 1613 
L 953 1613 
Q 991 1019 1311 708 
Q 1631 397 2203 397 
Q 2534 397 2845 478 
Q 3156 559 3463 722 
L 3463 178 
Q 3153 47 2828 -22 
Q 2503 -91 2169 -91 
Q 1331 -91 842 396 
Q 353 884 353 1716 
Q 353 2575 817 3079 
Q 1281 3584 2069 3584 
Q 2775 3584 3186 3129 
Q 3597 2675 3597 1894 
z
M 3022 2063 
Q 3016 2534 2758 2815 
Q 2500 3097 2075 3097 
Q 1594 3097 1305 2825 
Q 1016 2553 972 2059 
L 3022 2063 
z
" transform="scale(0.015625)"/>
       <path id="DejaVuSans-72" d="M 2631 2963 
Q 2534 3019 2420 3045 
Q 2306 3072 2169 3072 
Q 1681 3072 1420 2755 
Q 1159 2438 1159 1844 
L 1159 0 
L 581 0 
L 581 3500 
L 1159 3500 
L 1159 2956 
Q 1341 3275 1631 3429 
Q 1922 3584 2338 3584 
Q 2397 3584 2469 3576 
Q 2541 3569 2628 3553 
L 2631 2963 
z
" transform="scale(0.015625)"/>
       <path id="DejaVuSans-61" d="M 2194 1759 
Q 1497 1759 1228 1600 
Q 959 1441 959 1056 
Q 959 750 1161 570 
Q 1363 391 1709 391 
Q 2188 391 2477 730 
Q 2766 1069 2766 1631 
L 2766 1759 
L 2194 1759 
z
M 3341 1997 
L 3341 0 
L 2766 0 
L 2766 531 
Q 2569 213 2275 61 
Q 1981 -91 1556 -91 
Q 1019 -91 701 211 
Q 384 513 384 1019 
Q 384 1609 779 1909 
Q 1175 2209 1959 2209 
L 2766 2209 
L 2766 2266 
Q 2766 2663 2505 2880 
Q 2244 3097 1772 3097 
Q 1472 3097 1187 3025 
Q 903 2953 641 2809 
L 641 3341 
Q 956 3463 1253 3523 
Q 1550 3584 1831 3584 
Q 2591 3584 2966 3190 
Q 3341 2797 3341 1997 
z
" transform="scale(0.015625)"/>
       <path id="DejaVuSans-6f" d="M 1959 3097 
Q 1497 3097 1228 2736 
Q 959 2375 959 1747 
Q 959 1119 1226 758 
Q 1494 397 1959 397 
Q 2419 397 2687 759 
Q 2956 1122 2956 1747 
Q 2956 2369 2687 2733 
Q 2419 3097 1959 3097 
z
M 1959 3584 
Q 2709 3584 3137 3096 
Q 3566 2609 3566 1747 
Q 3566 888 3137 398 
Q 2709 -91 1959 -91 
Q 1206 -91 779 398 
Q 353 888 353 1747 
Q 353 2609 779 3096 
Q 1206 3584 1959 3584 
z
" transform="scale(0.015625)"/>
       <path id="DejaVuSans-6e" d="M 3513 2113 
L 3513 0 
L 2938 0 
L 2938 2094 
Q 2938 2591 2744 2837 
Q 2550 3084 2163 3084 
Q 1697 3084 1428 2787 
Q 1159 2491 1159 1978 
L 1159 0 
L 581 0 
L 581 3500 
L 1159 3500 
L 1159 2956 
Q 1366 3272 1645 3428 
Q 1925 3584 2291 3584 
Q 2894 3584 3203 3211 
Q 3513 2838 3513 2113 
z
" transform="scale(0.015625)"/>
       <path id="DejaVuSans-73" d="M 2834 3397 
L 2834 2853 
Q 2591 2978 2328 3040 
Q 2066 3103 1784 3103 
Q 1356 3103 1142 2972 
Q 928 2841 928 2578 
Q 928 2378 1081 2264 
Q 1234 2150 1697 2047 
L 1894 2003 
Q 2506 1872 2764 1633 
Q 3022 1394 3022 966 
Q 3022 478 2636 193 
Q 2250 -91 1575 -91 
Q 1294 -91 989 -36 
Q 684 19 347 128 
L 347 722 
Q 666 556 975 473 
Q 1284 391 1588 391 
Q 1994 391 2212 530 
Q 2431 669 2431 922 
Q 2431 1156 2273 1281 
Q 2116 1406 1581 1522 
L 1381 1569 
Q 847 1681 609 1914 
Q 372 2147 372 2553 
Q 372 3047 722 3315 
Q 1072 3584 1716 3584 
Q 2034 3584 2315 3537 
Q 2597 3491 2834 3397 
z
" transform="scale(0.015625)"/>
      </defs>
      <use xlink:href="#DejaVuSans-69"/>
      <use xlink:href="#DejaVuSans-74" x="27.783203"/>
      <use xlink:href="#DejaVuSans-65" x="66.992188"/>
      <use xlink:href="#DejaVuSans-72" x="128.515625"/>
      <use xlink:href="#DejaVuSans-61" x="169.628906"/>
      <use xlink:href="#DejaVuSans-74" x="230.908203"/>
      <use xlink:href="#DejaVuSans-69" x="270.117188"/>
      <use xlink:href="#DejaVuSans-6f" x="297.900391"/>
      <use xlink:href="#DejaVuSans-6e" x="359.082031"/>
      <use xlink:href="#DejaVuSans-73" x="422.460938"/>
     </g>
    </g>
   </g>
   <g id="matplotlib.axis_2">
    <g id="ytick_1">
     <g id="line2d_9">
      <defs>
       <path id="m1de5ad6e7b" d="M 0 0 
L -3.5 0 
" style="stroke: #000000; stroke-width: 0.8"/>
      </defs>
      <g>
       <use xlink:href="#m1de5ad6e7b" x="92.490625" y="278.050314" style="stroke: #000000; stroke-width: 0.8"/>
      </g>
     </g>
     <g id="text_10">
      <!-- −200 -->
      <g transform="translate(30.55625 285.648751) scale(0.2 -0.2)">
       <defs>
        <path id="DejaVuSans-2212" d="M 678 2272 
L 4684 2272 
L 4684 1741 
L 678 1741 
L 678 2272 
z
" transform="scale(0.015625)"/>
       </defs>
       <use xlink:href="#DejaVuSans-2212"/>
       <use xlink:href="#DejaVuSans-32" x="83.789062"/>
       <use xlink:href="#DejaVuSans-30" x="147.412109"/>
       <use xlink:href="#DejaVuSans-30" x="211.035156"/>
      </g>
     </g>
    </g>
    <g id="ytick_2">
     <g id="line2d_10">
      <g>
       <use xlink:href="#m1de5ad6e7b" x="92.490625" y="225.895764" style="stroke: #000000; stroke-width: 0.8"/>
      </g>
     </g>
     <g id="text_11">
      <!-- −100 -->
      <g transform="translate(30.55625 233.494202) scale(0.2 -0.2)">
       <use xlink:href="#DejaVuSans-2212"/>
       <use xlink:href="#DejaVuSans-31" x="83.789062"/>
       <use xlink:href="#DejaVuSans-30" x="147.412109"/>
       <use xlink:href="#DejaVuSans-30" x="211.035156"/>
      </g>
     </g>
    </g>
    <g id="ytick_3">
     <g id="line2d_11">
      <g>
       <use xlink:href="#m1de5ad6e7b" x="92.490625" y="173.741215" style="stroke: #000000; stroke-width: 0.8"/>
      </g>
     </g>
     <g id="text_12">
      <!-- 0 -->
      <g transform="translate(72.765625 181.339652) scale(0.2 -0.2)">
       <use xlink:href="#DejaVuSans-30"/>
      </g>
     </g>
    </g>
    <g id="ytick_4">
     <g id="line2d_12">
      <g>
       <use xlink:href="#m1de5ad6e7b" x="92.490625" y="121.586665" style="stroke: #000000; stroke-width: 0.8"/>
      </g>
     </g>
     <g id="text_13">
      <!-- 100 -->
      <g transform="translate(47.315625 129.185102) scale(0.2 -0.2)">
       <use xlink:href="#DejaVuSans-31"/>
       <use xlink:href="#DejaVuSans-30" x="63.623047"/>
       <use xlink:href="#DejaVuSans-30" x="127.246094"/>
      </g>
     </g>
    </g>
    <g id="ytick_5">
     <g id="line2d_13">
      <g>
       <use xlink:href="#m1de5ad6e7b" x="92.490625" y="69.432115" style="stroke: #000000; stroke-width: 0.8"/>
      </g>
     </g>
     <g id="text_14">
      <!-- 200 -->
      <g transform="translate(47.315625 77.030553) scale(0.2 -0.2)">
       <use xlink:href="#DejaVuSans-32"/>
       <use xlink:href="#DejaVuSans-30" x="63.623047"/>
       <use xlink:href="#DejaVuSans-30" x="127.246094"/>
      </g>
     </g>
    </g>
    <g id="text_15">
     <!-- Loss -->
     <g transform="translate(22.396875 191.970625) rotate(-90) scale(0.2 -0.2)">
      <defs>
       <path id="DejaVuSans-4c" d="M 628 4666 
L 1259 4666 
L 1259 531 
L 3531 531 
L 3531 0 
L 628 0 
L 628 4666 
z
" transform="scale(0.015625)"/>
      </defs>
      <use xlink:href="#DejaVuSans-4c"/>
      <use xlink:href="#DejaVuSans-6f" x="53.962891"/>
      <use xlink:href="#DejaVuSans-73" x="115.144531"/>
      <use xlink:href="#DejaVuSans-73" x="167.244141"/>
     </g>
    </g>
   </g>
   <g id="line2d_14">
    <path d="M 117.854261 116.730416 
L 118.230019 62.430435 
L 118.605777 101.446911 
L 118.981534 97.742273 
L 119.357292 71.891481 
L 119.733049 66.005259 
L 120.108807 53.003453 
L 120.484564 50.572912 
L 120.860322 59.282987 
L 121.23608 64.407922 
L 121.611837 63.027834 
L 122.73911 76.15716 
L 123.114867 51.933022 
L 123.490625 73.641653 
L 123.866383 118.042353 
L 124.24214 125.137272 
L 124.993655 60.941522 
L 125.369413 44.03625 
L 125.74517 52.703352 
L 126.120928 66.415864 
L 126.872443 80.271673 
L 127.248201 77.046844 
L 127.623958 85.974109 
L 127.999716 89.320307 
L 128.375473 99.781725 
L 128.751231 103.629806 
L 129.126989 95.490293 
L 129.502746 93.742179 
L 129.878504 96.556052 
L 130.254261 104.56955 
L 130.630019 103.315712 
L 131.005777 106.314088 
L 131.381534 101.622759 
L 131.757292 103.726444 
L 132.133049 97.099143 
L 132.508807 105.59913 
L 132.884564 102.090241 
L 133.260322 108.846517 
L 133.63608 107.115866 
L 134.011837 107.768741 
L 134.387595 94.854922 
L 134.763352 103.509892 
L 135.13911 99.688151 
L 135.514867 99.279356 
L 135.890625 102.538264 
L 136.266383 101.345011 
L 136.64214 103.441635 
L 137.017898 100.626615 
L 137.393655 103.77917 
L 137.769413 108.446027 
L 138.14517 104.135863 
L 138.520928 113.024366 
L 138.896686 113.256683 
L 139.272443 118.953402 
L 139.648201 121.504437 
L 140.023958 125.536059 
L 140.399716 125.084203 
L 140.775473 124.975704 
L 141.151231 129.12069 
L 141.526989 129.965285 
L 141.902746 127.601113 
L 142.278504 122.813187 
L 142.654261 121.044518 
L 143.030019 125.340201 
L 143.405777 125.222212 
L 143.781534 129.200338 
L 144.157292 126.028649 
L 144.533049 128.68786 
L 145.284564 125.98626 
L 145.660322 127.841862 
L 146.03608 125.227578 
L 146.411837 130.64839 
L 146.787595 134.240456 
L 147.163352 133.266292 
L 147.53911 131.370037 
L 147.914867 133.221224 
L 148.290625 131.530508 
L 148.666383 127.304061 
L 149.04214 127.021545 
L 149.417898 131.504403 
L 149.793655 129.12013 
L 150.169413 130.155912 
L 150.54517 129.13671 
L 151.296686 135.649824 
L 151.672443 130.074104 
L 152.048201 129.476486 
L 152.423958 129.449765 
L 152.799716 127.07422 
L 153.551231 128.405043 
L 153.926989 132.155688 
L 154.302746 129.996242 
L 154.678504 130.068832 
L 155.054261 128.264842 
L 155.430019 131.050036 
L 155.805777 130.94195 
L 156.181534 128.470743 
L 156.557292 131.531211 
L 156.933049 131.612299 
L 157.308807 132.350694 
L 157.684564 131.23145 
L 158.060322 134.408219 
L 158.43608 133.259949 
L 158.811837 133.451761 
L 159.187595 135.868165 
L 159.563352 136.567827 
L 159.93911 137.964817 
L 160.314867 137.904629 
L 160.690625 140.59013 
L 161.066383 140.248142 
L 161.44214 142.320233 
L 162.193655 143.305748 
L 162.569413 144.681703 
L 162.94517 144.519549 
L 163.320928 145.240951 
L 163.696686 143.606707 
L 164.072443 147.202116 
L 164.448201 147.401776 
L 164.823958 145.312951 
L 165.199716 147.788315 
L 165.575473 144.771762 
L 165.951231 147.864716 
L 166.326989 144.354608 
L 166.702746 149.00043 
L 167.078504 148.864368 
L 167.454261 147.326535 
L 167.830019 147.287939 
L 168.205777 149.193091 
L 168.581534 147.831455 
L 168.957292 148.825769 
L 169.333049 148.096776 
L 169.708807 148.745121 
L 170.084564 151.093129 
L 170.460322 147.222083 
L 170.83608 147.173949 
L 171.211837 149.684394 
L 171.587595 150.670233 
L 171.963352 150.083711 
L 172.33911 151.347509 
L 172.714867 149.72187 
L 173.090625 149.97145 
L 173.466383 152.818688 
L 173.84214 153.166956 
L 174.217898 151.635056 
L 174.593655 152.261085 
L 174.969413 150.388173 
L 175.34517 149.701996 
L 175.720928 148.135366 
L 176.096686 150.229807 
L 176.472443 149.605711 
L 177.223958 151.22725 
L 177.599716 150.754788 
L 177.975473 152.243257 
L 178.351231 151.654234 
L 178.726989 154.11977 
L 179.102746 155.048733 
L 179.478504 153.344866 
L 179.854261 153.231589 
L 180.230019 154.848303 
L 180.605777 153.800574 
L 180.981534 157.048832 
L 181.357292 156.893901 
L 181.733049 155.884159 
L 182.108807 156.207196 
L 182.860322 155.9323 
L 183.611837 160.584037 
L 183.987595 159.109185 
L 184.363352 160.133137 
L 184.73911 157.417522 
L 185.114867 158.294861 
L 185.490625 157.179436 
L 185.866383 156.74332 
L 186.24214 152.371756 
L 186.617898 154.608543 
L 186.993655 154.732663 
L 187.369413 156.74822 
L 187.74517 153.888262 
L 188.120928 153.0428 
L 188.496686 149.447487 
L 188.872443 149.480507 
L 189.248201 149.219328 
L 190.375473 154.868603 
L 190.751231 153.249777 
L 191.126989 154.622314 
L 191.502746 153.342076 
L 191.878504 153.92423 
L 192.254261 155.062312 
L 192.630019 156.883775 
L 193.005777 155.221922 
L 193.381534 156.801697 
L 194.133049 155.609429 
L 194.508807 154.116463 
L 195.260322 156.80764 
L 195.63608 155.756673 
L 196.011837 156.419443 
L 196.387595 154.641703 
L 196.763352 156.161499 
L 197.13911 154.121002 
L 197.514867 156.645991 
L 197.890625 155.529907 
L 198.266383 156.176916 
L 198.64214 155.396429 
L 199.017898 155.88568 
L 199.393655 155.259632 
L 199.769413 153.799706 
L 200.14517 154.311158 
L 200.520928 153.059434 
L 200.896686 154.648248 
L 201.272443 155.120642 
L 201.648201 153.132141 
L 202.023958 153.483931 
L 202.399716 154.04572 
L 202.775473 154.987186 
L 203.151231 154.816669 
L 203.902746 153.202575 
L 204.278504 153.916273 
L 204.654261 152.705682 
L 205.030019 152.166556 
L 205.405777 152.402338 
L 205.781534 152.180249 
L 206.157292 154.11953 
L 206.533049 152.016894 
L 206.908807 153.003526 
L 207.284564 151.826107 
L 207.660322 152.171399 
L 208.03608 153.165678 
L 208.411837 152.958836 
L 208.787595 151.2627 
L 209.163352 152.237006 
L 209.53911 152.790376 
L 210.290625 149.160309 
L 211.04214 150.86653 
L 211.417898 150.354096 
L 211.793655 149.479063 
L 212.169413 152.676587 
L 212.54517 151.047918 
L 212.920928 152.469854 
L 213.296686 152.266123 
L 213.672443 153.462899 
L 214.048201 154.069147 
L 214.423958 154.003291 
L 214.799716 154.910829 
L 215.551231 155.294215 
L 215.926989 154.960983 
L 216.302746 154.061296 
L 216.678504 155.470938 
L 217.054261 153.968602 
L 217.430019 153.381538 
L 217.805777 153.259493 
L 218.181534 154.500778 
L 218.557292 155.292109 
L 218.933049 154.850473 
L 219.308807 155.670758 
L 219.684564 154.673209 
L 220.060322 154.525595 
L 220.43608 155.551714 
L 220.811837 155.152165 
L 221.187595 155.936404 
L 221.563352 157.010189 
L 221.93911 156.050296 
L 222.314867 155.985973 
L 223.066383 156.386478 
L 223.44214 157.272418 
L 223.817898 156.749003 
L 224.193655 157.107192 
L 224.569413 157.119295 
L 224.94517 157.761971 
L 225.320928 157.134318 
L 225.696686 156.145483 
L 226.072443 158.606781 
L 226.448201 157.442978 
L 226.823958 157.059694 
L 227.199716 157.835689 
L 227.575473 157.316152 
L 228.326989 157.854228 
L 228.702746 159.260742 
L 229.078504 158.661202 
L 229.454261 158.869777 
L 229.830019 159.238682 
L 230.205777 160.284156 
L 230.581534 159.663591 
L 230.957292 159.433966 
L 231.333049 159.789577 
L 232.084564 159.882359 
L 232.460322 160.25701 
L 232.83608 161.289905 
L 233.211837 158.838544 
L 233.587595 159.924778 
L 233.963352 160.45698 
L 234.33911 160.777332 
L 234.714867 162.658706 
L 235.090625 162.11453 
L 235.466383 162.229981 
L 235.84214 160.98345 
L 236.217898 162.000164 
L 236.593655 163.379221 
L 236.969413 163.181533 
L 237.34517 163.880014 
L 237.720928 163.180675 
L 238.096686 162.92911 
L 238.848201 162.673332 
L 239.223958 164.01015 
L 239.599716 163.898086 
L 239.975473 163.587924 
L 240.351231 163.629103 
L 240.726989 164.448835 
L 241.102746 164.678214 
L 241.478504 165.504125 
L 241.854261 164.692579 
L 242.230019 166.342899 
L 242.605777 167.152715 
L 242.981534 165.965846 
L 243.357292 167.413876 
L 243.733049 166.665451 
L 244.108807 166.885093 
L 244.484564 166.510555 
L 245.23608 165.434706 
L 245.611837 165.631563 
L 245.987595 166.035931 
L 246.363352 165.705315 
L 247.114867 166.525807 
L 247.490625 166.210813 
L 247.866383 166.169597 
L 248.24214 166.418649 
L 248.617898 165.309747 
L 248.993655 165.436775 
L 249.369413 166.031096 
L 249.74517 165.914072 
L 250.120928 167.508869 
L 250.496686 166.783678 
L 250.872443 166.803441 
L 251.248201 166.419973 
L 251.623958 165.84882 
L 251.999716 166.801295 
L 252.375473 166.075255 
L 253.126989 167.123316 
L 253.502746 167.002987 
L 253.878504 167.874705 
L 254.254261 167.313398 
L 254.630019 168.063886 
L 255.381534 167.5642 
L 255.757292 168.792709 
L 256.133049 168.642832 
L 256.508807 167.815961 
L 256.884564 168.876404 
L 257.63608 169.44384 
L 258.011837 169.245245 
L 258.387595 169.40812 
L 258.763352 169.727721 
L 259.890625 169.380179 
L 260.266383 168.682531 
L 260.64214 168.772326 
L 261.017898 169.343754 
L 261.393655 168.172043 
L 261.769413 168.854283 
L 262.896686 169.872072 
L 263.272443 169.938352 
L 263.648201 169.719371 
L 264.023958 168.183161 
L 264.399716 169.845163 
L 264.775473 169.297504 
L 265.151231 170.613594 
L 266.278504 170.480542 
L 266.654261 170.525653 
L 267.030019 169.977587 
L 267.405777 170.364696 
L 267.781534 169.181846 
L 268.157292 170.062413 
L 268.533049 168.886077 
L 268.908807 169.394782 
L 269.284564 169.662922 
L 269.660322 170.145244 
L 270.03608 169.927706 
L 270.411837 170.004292 
L 270.787595 169.875281 
L 271.163352 168.776072 
L 271.53911 168.991334 
L 271.914867 170.365659 
L 272.290625 171.176641 
L 272.666383 171.202022 
L 273.04214 170.910612 
L 273.793655 170.81527 
L 274.169413 171.004884 
L 274.54517 170.949 
L 274.920928 171.33907 
L 275.296686 170.94787 
L 275.672443 171.197713 
L 276.048201 171.714517 
L 276.423958 171.475357 
L 276.799716 171.483979 
L 277.926989 171.036587 
L 278.302746 171.608698 
L 278.678504 171.845687 
L 279.054261 170.643028 
L 279.430019 170.670747 
L 279.805777 171.285834 
L 280.181534 170.540197 
L 280.557292 171.206933 
L 280.933049 171.295074 
L 281.308807 170.80643 
L 281.684564 170.955732 
L 282.060322 171.29138 
L 282.43608 171.91542 
L 282.811837 170.798087 
L 283.563352 172.396778 
L 283.93911 171.585403 
L 284.314867 171.605385 
L 284.690625 171.166604 
L 285.066383 172.321859 
L 285.44214 172.257516 
L 285.817898 173.085883 
L 286.569413 172.209607 
L 286.94517 172.172332 
L 287.320928 172.281268 
L 287.696686 172.82213 
L 288.448201 172.079089 
L 288.823958 172.578862 
L 289.199716 172.245953 
L 289.575473 172.597846 
L 289.951231 172.410781 
L 290.326989 172.673752 
L 290.702746 172.11368 
L 291.078504 172.760862 
L 291.454261 172.901058 
L 291.830019 172.8115 
L 292.205777 172.944725 
L 292.581534 172.884963 
L 292.957292 173.067699 
L 293.333049 172.387809 
L 293.708807 172.65821 
L 294.084564 172.570902 
L 294.460322 173.384998 
L 294.83608 172.353634 
L 295.211837 172.340497 
L 295.587595 172.085243 
L 296.33911 173.137002 
L 296.714867 172.492417 
L 297.466383 172.834667 
L 297.84214 172.629771 
L 298.217898 172.593443 
L 298.593655 172.907705 
L 298.969413 172.320619 
L 299.34517 172.453421 
L 299.720928 172.330282 
L 300.096686 172.595965 
L 300.472443 172.528293 
L 300.848201 172.861315 
L 301.223958 172.896261 
L 301.599716 173.496203 
L 302.351231 172.827251 
L 302.726989 173.139689 
L 303.102746 173.266205 
L 303.478504 173.642314 
L 303.854261 173.416752 
L 304.230019 172.83362 
L 304.605777 172.80055 
L 304.981534 172.93646 
L 305.357292 173.231901 
L 305.733049 173.197898 
L 306.108807 173.481921 
L 306.484564 173.240156 
L 307.611837 173.864126 
L 307.987595 173.678847 
L 308.363352 173.868298 
L 308.73911 173.729008 
L 309.114867 173.863457 
L 309.490625 173.579213 
L 309.866383 173.71759 
L 310.24214 173.392521 
L 310.617898 174.005318 
L 311.369413 174.1466 
L 311.74517 173.144914 
L 312.120928 173.671143 
L 312.872443 174.144585 
L 313.248201 174.019534 
L 313.623958 173.687268 
L 314.375473 174.288035 
L 314.751231 174.1292 
L 315.126989 174.242572 
L 315.502746 174.970998 
L 315.878504 174.148864 
L 316.254261 174.472383 
L 316.630019 173.912354 
L 317.005777 174.929903 
L 317.381534 174.810248 
L 317.757292 174.379742 
L 318.884564 173.893045 
L 319.260322 173.93676 
L 319.63608 174.381656 
L 320.387595 174.031575 
L 320.763352 173.335467 
L 321.13911 174.324617 
L 321.514867 174.571458 
L 321.890625 174.284473 
L 322.266383 175.075052 
L 322.64214 174.592264 
L 323.393655 174.200782 
L 323.769413 174.356521 
L 324.14517 174.179814 
L 324.520928 174.241436 
L 324.896686 174.705087 
L 325.272443 174.679353 
L 325.648201 175.121293 
L 326.023958 175.179036 
L 326.399716 174.430687 
L 326.775473 174.649242 
L 327.151231 175.257114 
L 327.526989 175.436165 
L 327.902746 175.287799 
L 328.278504 174.561613 
L 328.654261 174.723566 
L 329.030019 174.37005 
L 329.405777 174.652566 
L 329.781534 174.067515 
L 330.157292 174.41544 
L 330.533049 174.313536 
L 330.908807 173.964429 
L 331.284564 175.090529 
L 331.660322 174.400231 
L 332.03608 174.447379 
L 332.411837 174.233904 
L 332.787595 174.975875 
L 333.163352 174.326316 
L 333.53911 175.300385 
L 333.914867 174.82901 
L 334.666383 175.127618 
L 335.04214 174.705087 
L 335.417898 174.46174 
L 335.793655 174.729816 
L 336.169413 174.81318 
L 336.54517 175.237349 
L 336.920928 175.075744 
L 337.296686 175.140725 
L 337.672443 175.423618 
L 338.048201 175.255391 
L 338.423958 174.372277 
L 338.799716 175.023375 
L 339.551231 174.500111 
L 339.926989 174.296632 
L 340.302746 174.415329 
L 340.678504 174.011729 
L 341.054261 173.923366 
L 341.430019 174.913864 
L 341.805777 174.884597 
L 342.181534 174.594898 
L 342.557292 175.163894 
L 342.933049 174.999425 
L 343.308807 174.408347 
L 343.684564 174.79119 
L 344.43608 174.39759 
L 344.811837 174.925129 
L 345.187595 175.055533 
L 346.314867 174.800814 
L 346.690625 174.936818 
L 347.066383 174.810069 
L 347.44214 174.461777 
L 347.817898 174.900441 
L 348.193655 174.840383 
L 348.569413 174.327729 
L 348.94517 174.398339 
L 349.320928 174.61807 
L 349.696686 174.995317 
L 350.072443 174.346549 
L 350.448201 174.179704 
L 351.199716 174.718233 
L 351.575473 174.316179 
L 351.951231 174.535876 
L 352.326989 174.370798 
L 352.702746 174.537744 
L 353.454261 175.518156 
L 353.830019 175.645277 
L 354.205777 175.611891 
L 354.581534 175.052068 
L 354.957292 174.974856 
L 355.333049 175.427324 
L 355.708807 175.271629 
L 356.084564 175.61701 
L 356.460322 175.247906 
L 356.83608 175.294735 
L 357.211837 175.678974 
L 357.963352 176.077742 
L 358.714867 175.413471 
L 359.090625 175.623908 
L 359.466383 175.198067 
L 360.217898 175.44581 
L 360.593655 175.927804 
L 360.969413 175.219054 
L 361.34517 175.687479 
L 361.720928 175.794876 
L 362.096686 175.43702 
L 362.472443 175.328583 
L 362.848201 175.466767 
L 363.223958 175.485727 
L 363.975473 175.825537 
L 364.351231 176.583016 
L 365.102746 176.896142 
L 365.854261 175.911554 
L 366.230019 176.351337 
L 366.605777 176.181965 
L 366.981534 175.349774 
L 367.357292 176.114277 
L 367.733049 176.114064 
L 368.108807 176.672723 
L 368.860322 176.794847 
L 369.23608 176.325163 
L 369.611837 176.152382 
L 369.987595 176.214148 
L 370.363352 176.505449 
L 370.73911 176.472516 
L 371.114867 176.315092 
L 371.490625 176.027412 
L 371.866383 175.987551 
L 372.24214 176.178034 
L 372.993655 175.706594 
L 373.369413 175.723933 
L 373.74517 175.382591 
L 374.496686 176.010723 
L 374.872443 176.041978 
L 375.623958 175.815828 
L 375.999716 175.496626 
L 376.375473 175.553821 
L 376.751231 175.759455 
L 377.502746 175.844381 
L 377.878504 175.513322 
L 378.254261 175.601948 
L 378.630019 175.865583 
L 379.005777 175.970531 
L 379.757292 175.09015 
L 380.133049 174.097807 
L 380.508807 173.960914 
L 380.884564 175.204017 
L 381.260322 175.655793 
L 381.63608 175.423121 
L 382.011837 175.631669 
L 382.387595 175.399722 
L 383.13911 176.051574 
L 383.514867 175.853567 
L 383.890625 175.970963 
L 384.266383 175.320615 
L 384.64214 175.441648 
L 385.393655 174.876387 
L 385.769413 174.870139 
L 386.14517 175.364116 
L 386.520928 174.282222 
L 386.896686 175.180443 
L 387.272443 175.13155 
L 387.648201 173.969377 
L 388.023958 174.97548 
L 388.399716 175.185995 
L 388.775473 175.592498 
L 389.151231 174.224 
L 389.526989 174.801255 
L 389.902746 174.91318 
L 390.278504 174.655643 
L 391.030019 175.51598 
L 391.405777 174.805268 
L 391.781534 174.946519 
L 392.157292 174.673955 
L 392.533049 175.576337 
L 392.908807 175.910655 
L 393.660322 174.921067 
L 394.03608 175.43875 
L 394.411837 174.862004 
L 394.787595 175.643429 
L 395.163352 175.346209 
L 395.53911 175.821889 
L 395.914867 175.425669 
L 396.666383 175.266382 
L 397.04214 175.036475 
L 397.417898 175.681982 
L 398.54517 174.957426 
L 398.920928 175.009111 
L 399.296686 175.237253 
L 399.672443 175.090847 
L 400.048201 175.476843 
L 400.423958 175.38795 
L 400.799716 175.687296 
L 401.175473 175.334876 
L 401.551231 175.78399 
L 401.926989 175.347002 
L 402.302746 175.32446 
L 402.678504 175.159546 
L 403.054261 175.583069 
L 403.430019 175.228515 
L 403.805777 176.02991 
L 404.181534 175.340675 
L 404.557292 175.748797 
L 404.933049 175.759824 
L 405.308807 175.502586 
L 405.684564 175.409135 
L 406.060322 175.853548 
L 406.43608 175.920658 
L 407.187595 175.379425 
L 407.563352 176.221307 
L 407.93911 175.55776 
L 408.314867 175.671852 
L 408.690625 176.33195 
L 409.817898 175.693488 
L 410.193655 175.451603 
L 410.569413 176.452433 
L 410.94517 176.21655 
L 411.320928 176.977168 
L 411.696686 175.887416 
L 412.072443 176.256904 
L 412.448201 176.362777 
L 412.823958 175.833331 
L 413.575473 175.793318 
L 413.951231 176.410457 
L 414.326989 176.010869 
L 414.702746 175.973294 
L 415.454261 175.635988 
L 415.830019 175.867813 
L 416.205777 175.84295 
L 416.957292 176.308433 
L 417.333049 176.530575 
L 417.708807 175.556151 
L 418.084564 176.013475 
L 418.460322 176.017003 
L 418.83608 176.345195 
L 419.211837 175.139508 
L 419.963352 175.377084 
L 420.33911 175.782979 
L 420.714867 175.4227 
L 421.090625 175.800744 
L 421.466383 175.668727 
L 421.84214 175.788994 
L 422.217898 175.527982 
L 422.969413 175.857657 
L 424.472443 175.85444 
L 424.848201 175.697297 
L 425.223958 176.20142 
L 425.975473 175.237599 
L 426.351231 175.776461 
L 427.102746 175.51335 
L 427.478504 175.51361 
L 427.854261 175.284847 
L 428.230019 175.988658 
L 428.605777 175.15682 
L 428.981534 175.828069 
L 429.357292 175.4534 
L 429.733049 175.76782 
L 430.484564 175.469242 
L 431.611837 175.773003 
L 431.987595 175.578627 
L 432.363352 175.859677 
L 432.73911 175.333468 
L 433.114867 175.829719 
L 433.490625 175.65768 
L 434.24214 175.757424 
L 434.617898 176.020463 
L 434.993655 175.659318 
L 435.369413 175.960948 
L 435.74517 175.952687 
L 436.120928 176.320597 
L 436.496686 175.984955 
L 436.872443 176.126386 
L 437.248201 175.913653 
L 437.623958 175.519525 
L 437.999716 175.791608 
L 438.375473 175.351093 
L 438.751231 175.282828 
L 439.126989 175.970826 
L 439.502746 175.400552 
L 439.878504 175.178384 
L 440.254261 175.532004 
L 440.630019 175.700844 
L 441.381534 175.876546 
L 441.757292 175.29351 
L 442.884564 175.80121 
L 443.260322 175.731596 
L 443.63608 176.07433 
L 444.011837 175.832862 
L 444.763352 175.590428 
L 445.13911 175.82564 
L 445.514867 175.881331 
L 445.890625 176.103466 
L 446.266383 175.817807 
L 447.017898 175.589772 
L 448.14517 175.276529 
L 448.520928 174.986334 
L 449.272443 175.148397 
L 449.648201 175.154045 
L 450.023958 174.90375 
L 450.399716 175.098655 
L 450.775473 174.969489 
L 451.151231 175.503733 
L 451.526989 174.699281 
L 451.902746 174.830775 
L 452.278504 174.606166 
L 452.654261 174.633752 
L 453.030019 174.794433 
L 453.405777 175.391126 
L 453.781534 174.277606 
L 454.908807 174.969307 
L 455.284564 174.620509 
L 455.660322 174.539502 
L 456.03608 174.604974 
L 456.411837 174.23742 
L 456.787595 174.810782 
L 457.163352 175.007167 
L 457.53911 174.51024 
L 457.914867 174.737232 
L 458.666383 174.761644 
L 459.04214 174.322663 
L 459.417898 174.866683 
L 460.169413 174.71044 
L 460.54517 174.335361 
L 460.920928 174.262668 
L 461.296686 174.890004 
L 461.672443 174.503134 
L 462.048201 174.750501 
L 462.423958 174.163995 
L 462.799716 175.057433 
L 463.551231 175.289857 
L 464.678504 175.032269 
L 465.430019 174.917818 
L 465.805777 175.166812 
L 466.181534 174.878764 
L 466.557292 174.897581 
L 467.308807 175.763753 
L 467.684564 175.513465 
L 468.060322 176.060368 
L 468.43608 175.325711 
L 468.811837 175.853369 
L 469.563352 174.817698 
L 469.93911 175.369934 
L 470.314867 174.990136 
L 470.690625 175.154369 
L 471.066383 175.499432 
L 471.44214 175.659211 
L 471.817898 175.602143 
L 472.569413 175.101298 
L 472.94517 175.393486 
L 473.320928 175.477245 
L 473.696686 175.193113 
L 474.072443 175.065682 
L 474.448201 175.310346 
L 474.823958 175.089074 
L 475.199716 174.589455 
L 475.575473 175.020915 
L 475.951231 174.789942 
L 476.326989 175.170339 
L 476.702746 174.946715 
L 478.205777 174.91047 
L 478.957292 175.034176 
L 479.708807 174.7419 
L 480.084564 175.353119 
L 480.460322 174.799489 
L 480.83608 175.076352 
L 481.211837 175.054057 
L 481.587595 175.155637 
L 481.963352 175.007391 
L 483.090625 175.080506 
L 483.466383 175.45836 
L 483.84214 175.097267 
L 484.217898 175.103046 
L 484.593655 174.84033 
L 485.34517 175.588443 
L 485.720928 175.226543 
L 486.472443 175.090935 
L 486.848201 175.331811 
L 487.975473 175.065495 
L 488.351231 175.659041 
L 488.726989 174.817642 
L 489.102746 175.154506 
L 490.230019 175.271672 
L 490.605777 175.981782 
L 491.733049 175.099164 
L 492.108807 175.10675 
L 492.484564 174.819697 
L 492.860322 175.458157 
L 493.23608 175.075811 
L 493.611837 175.090511 
L 493.987595 174.59064 
L 495.114867 175.066074 
L 495.490625 174.907704 
L 495.866383 175.031484 
L 496.24214 174.974791 
L 496.617898 175.370817 
L 496.993655 175.277961 
L 497.369413 175.574394 
L 497.74517 175.621487 
L 498.496686 175.01501 
L 498.872443 175.226884 
L 499.248201 175.197485 
L 499.623958 175.563862 
L 500.375473 175.056835 
L 500.751231 175.087308 
L 501.502746 176.028915 
L 501.878504 175.482654 
L 502.630019 175.421469 
L 503.005777 175.655308 
L 503.381534 175.350954 
L 503.757292 175.284323 
L 504.133049 175.867679 
L 504.508807 175.623143 
L 504.884564 175.74287 
L 505.260322 176.090551 
L 505.63608 175.536243 
L 506.011837 175.437969 
L 506.387595 175.585184 
L 507.13911 175.407295 
L 507.514867 175.396844 
L 507.890625 175.512791 
L 508.266383 175.506006 
L 508.64214 175.677124 
L 509.393655 175.620495 
L 509.769413 175.912077 
L 510.14517 175.748044 
L 510.520928 175.907883 
L 510.896686 175.842888 
L 511.272443 175.570896 
L 511.648201 175.719322 
L 512.023958 175.366759 
L 512.399716 175.554968 
L 513.151231 175.619115 
L 513.526989 175.734084 
L 514.278504 175.418141 
L 514.654261 175.665256 
L 515.030019 175.42406 
L 515.405777 175.678868 
L 515.781534 175.794127 
L 516.157292 175.439307 
L 516.533049 175.374074 
L 517.284564 175.81214 
L 517.660322 175.170856 
L 518.411837 176.05492 
L 518.787595 175.800837 
L 519.163352 176.17742 
L 519.53911 176.098905 
L 519.914867 175.668089 
L 520.290625 175.762785 
L 521.417898 175.407749 
L 521.793655 175.401051 
L 522.169413 175.14226 
L 522.54517 175.453254 
L 522.920928 175.296474 
L 524.048201 175.843262 
L 524.799716 175.359082 
L 525.175473 175.553939 
L 525.551231 175.953125 
L 525.926989 175.649579 
L 526.302746 175.86551 
L 526.678504 175.538244 
L 527.054261 175.60639 
L 527.430019 175.239481 
L 528.181534 175.029724 
L 528.557292 175.358277 
L 528.933049 175.38395 
L 529.308807 175.705881 
L 530.060322 175.534206 
L 530.811837 175.979912 
L 531.187595 175.951493 
L 531.563352 175.451366 
L 531.93911 175.692163 
L 532.314867 175.154082 
L 532.690625 175.62435 
L 533.066383 175.801177 
L 533.817898 175.250213 
L 534.193655 175.269055 
L 534.569413 175.004577 
L 534.94517 175.243714 
L 535.696686 175.222212 
L 536.072443 174.925321 
L 536.448201 175.719609 
L 536.823958 175.018409 
L 537.199716 174.866172 
L 537.951231 175.126445 
L 539.078504 175.063008 
L 539.454261 175.164063 
L 539.830019 175.082637 
L 540.205777 174.753869 
L 540.581534 175.529251 
L 540.957292 174.745589 
L 541.333049 175.200306 
L 541.708807 174.640105 
L 542.460322 174.773496 
L 542.83608 174.628807 
L 543.211837 174.816999 
L 543.587595 174.320973 
L 543.963352 174.891058 
L 544.33911 174.758141 
L 544.714867 175.333721 
L 545.090625 174.615325 
L 545.466383 174.957255 
L 545.84214 174.519125 
L 546.217898 174.369485 
L 546.593655 174.547141 
L 546.969413 174.596875 
L 547.34517 174.871741 
L 547.720928 174.476228 
L 548.848201 174.865028 
L 549.223958 174.663183 
L 549.599716 174.300513 
L 549.975473 174.332176 
L 550.351231 174.122625 
L 550.726989 174.063657 
L 551.102746 174.617358 
L 551.854261 174.055997 
L 552.230019 174.793337 
L 552.605777 174.703346 
L 553.357292 173.79846 
L 553.733049 174.224563 
L 554.108807 173.957166 
L 554.484564 174.163236 
L 554.860322 174.076515 
L 555.23608 174.60678 
L 555.611837 174.63188 
L 555.987595 174.09173 
L 556.363352 174.231991 
L 556.73911 174.029099 
L 557.490625 174.196165 
L 557.866383 173.860625 
L 558.24214 174.039714 
L 558.617898 174.080424 
L 558.993655 174.535802 
L 559.369413 174.68288 
L 559.74517 174.496243 
L 560.872443 174.624444 
L 561.248201 175.370094 
L 561.623958 175.459105 
L 561.999716 175.062151 
L 562.375473 175.70813 
L 562.751231 175.378239 
L 563.126989 175.605805 
L 563.502746 175.415055 
L 563.878504 175.426081 
L 564.254261 175.671406 
L 565.381534 175.141591 
L 565.757292 175.120498 
L 566.133049 175.228699 
L 566.884564 175.126698 
L 567.260322 175.180075 
L 567.63608 175.114895 
L 568.011837 175.495082 
L 568.387595 175.249774 
L 569.13911 175.353477 
L 569.514867 175.104242 
L 569.890625 175.302763 
L 570.266383 175.137802 
L 570.64214 175.286 
L 571.017898 174.993177 
L 571.393655 175.069556 
L 571.769413 174.911829 
L 572.14517 175.487017 
L 572.520928 175.348699 
L 572.896686 174.875487 
L 573.272443 175.107768 
L 573.648201 175.009889 
L 574.023958 175.148257 
L 574.399716 174.844329 
L 574.775473 174.962495 
L 575.151231 174.917892 
L 575.526989 174.723767 
L 575.902746 175.071114 
L 576.278504 175.143572 
L 577.030019 174.715026 
L 577.405777 174.857994 
L 578.157292 174.403719 
L 579.284564 174.587568 
L 579.660322 174.70854 
L 580.03608 174.958381 
L 580.411837 174.865504 
L 580.787595 175.156834 
L 581.53911 174.812023 
L 581.914867 175.153412 
L 582.290625 174.694456 
L 582.666383 175.073319 
L 583.04214 174.532314 
L 583.793655 174.548813 
L 584.169413 174.19441 
L 584.54517 174.577263 
L 584.920928 174.607275 
L 585.672443 174.430975 
L 586.423958 174.944196 
L 586.799716 174.943773 
L 587.175473 175.128253 
L 587.551231 174.756729 
L 587.926989 174.867139 
L 588.302746 174.271487 
L 589.054261 174.795752 
L 589.430019 174.594237 
L 589.805777 174.686828 
L 590.181534 174.967619 
L 590.933049 175.112421 
L 591.308807 174.799983 
L 592.060322 175.050415 
L 592.43608 174.966384 
L 593.187595 175.142008 
L 593.563352 174.940542 
L 593.93911 174.901938 
L 594.314867 175.041994 
L 594.690625 174.448311 
L 595.066383 174.955053 
L 595.44214 174.588529 
L 595.817898 174.582603 
L 596.193655 175.09925 
L 596.569413 174.769751 
L 596.94517 174.624125 
L 597.320928 174.763725 
L 598.448201 174.804461 
L 598.823958 174.839987 
L 599.199716 175.24804 
L 599.575473 174.811241 
L 599.951231 174.790241 
L 600.326989 174.615793 
L 600.702746 175.098092 
L 601.078504 174.706094 
L 601.454261 175.053526 
L 602.581534 174.658289 
L 603.333049 175.04318 
L 603.708807 174.987099 
L 604.460322 174.469332 
L 604.83608 174.094224 
L 605.963352 174.711585 
L 606.33911 174.852807 
L 607.090625 174.893967 
L 607.466383 174.348255 
L 608.217898 174.325425 
L 608.593655 174.577391 
L 608.969413 174.499028 
L 609.34517 174.940602 
L 609.720928 174.680428 
L 610.096686 174.775048 
L 610.472443 174.083276 
L 610.848201 174.597451 
L 611.223958 174.431522 
L 611.599716 174.893013 
L 611.975473 175.00367 
L 612.351231 174.67851 
L 612.726989 174.998638 
L 613.102746 175.097126 
L 613.478504 174.55285 
L 613.854261 174.432433 
L 614.230019 174.880158 
L 614.605777 174.638881 
L 614.981534 174.889929 
L 615.357292 175.365795 
L 615.733049 174.846776 
L 616.108807 175.294389 
L 616.484564 175.221588 
L 616.860322 175.351925 
L 617.611837 174.967717 
L 617.987595 174.865309 
L 618.363352 175.17812 
L 618.73911 174.70866 
L 619.114867 175.115616 
L 619.490625 175.295787 
L 620.24214 175.296309 
L 620.993655 175.137059 
L 621.369413 175.597111 
L 621.74517 175.39247 
L 622.120928 175.470972 
L 622.496686 175.22056 
L 622.872443 175.179252 
L 623.248201 175.262955 
L 623.623958 175.028791 
L 623.999716 175.606401 
L 624.375473 175.388649 
L 624.751231 174.96081 
L 625.126989 175.232376 
L 625.126989 175.232376 
" clip-path="url(#pe543cce53f)" style="fill: none; stroke: #1f77b4; stroke-width: 1.5; stroke-linecap: square"/>
   </g>
   <g id="line2d_15">
    <path d="M 117.854261 283.817858 
L 118.230019 296.03625 
L 118.605777 270.616898 
L 118.981534 261.343127 
L 119.357292 266.675624 
L 119.733049 254.3987 
L 120.108807 253.78483 
L 120.484564 234.718979 
L 120.860322 243.174054 
L 121.23608 233.622601 
L 121.611837 255.831372 
L 121.987595 226.820111 
L 122.363352 231.623087 
L 122.73911 222.755458 
L 123.114867 237.090497 
L 123.490625 221.800231 
L 123.866383 220.580769 
L 124.24214 239.851293 
L 124.617898 218.690556 
L 124.993655 208.012777 
L 125.369413 213.077702 
L 125.74517 203.210023 
L 126.120928 204.36703 
L 126.496686 200.127711 
L 126.872443 197.699217 
L 127.248201 197.009593 
L 127.623958 192.778947 
L 127.999716 193.284367 
L 128.375473 191.367776 
L 128.751231 190.032498 
L 129.126989 190.98049 
L 129.502746 192.754977 
L 129.878504 191.632475 
L 130.630019 187.702186 
L 131.005777 186.31986 
L 131.381534 189.750291 
L 131.757292 188.198746 
L 132.133049 189.00049 
L 132.508807 189.320823 
L 132.884564 185.316259 
L 133.63608 184.835969 
L 134.011837 185.979726 
L 134.387595 188.292898 
L 134.763352 184.413948 
L 135.13911 186.018381 
L 135.514867 185.564117 
L 135.890625 183.829002 
L 136.266383 185.263654 
L 136.64214 184.827063 
L 137.017898 185.642403 
L 137.393655 185.081576 
L 137.769413 185.318168 
L 138.14517 184.356218 
L 138.520928 183.054028 
L 138.896686 183.091849 
L 139.272443 181.620767 
L 139.648201 181.838532 
L 140.023958 182.869973 
L 140.399716 182.690779 
L 140.775473 182.28129 
L 141.151231 180.870267 
L 141.526989 183.116401 
L 142.278504 184.052396 
L 142.654261 184.34861 
L 143.030019 182.464961 
L 143.781534 182.093607 
L 144.157292 184.792872 
L 144.533049 183.634699 
L 144.908807 183.261662 
L 145.284564 184.624761 
L 145.660322 183.487667 
L 146.03608 184.04581 
L 146.411837 182.432324 
L 146.787595 182.812326 
L 147.163352 182.662128 
L 147.53911 182.709696 
L 147.914867 182.390061 
L 148.290625 182.933603 
L 148.666383 185.113963 
L 149.04214 183.825193 
L 149.417898 181.5119 
L 149.793655 182.332163 
L 150.169413 182.657852 
L 150.54517 183.310738 
L 150.920928 183.531447 
L 151.296686 183.308215 
L 151.672443 183.62141 
L 152.048201 184.483335 
L 152.423958 183.45188 
L 153.175473 184.197178 
L 153.551231 183.120905 
L 153.926989 182.57126 
L 154.302746 183.383851 
L 154.678504 182.947738 
L 155.054261 183.167254 
L 155.430019 183.694203 
L 155.805777 183.057892 
L 156.181534 183.707169 
L 156.557292 182.282464 
L 156.933049 184.110702 
L 157.308807 183.132366 
L 157.684564 184.305063 
L 158.060322 182.879901 
L 158.43608 183.550493 
L 159.187595 183.501126 
L 159.563352 182.388915 
L 159.93911 182.417677 
L 160.314867 182.173322 
L 160.690625 183.391072 
L 161.44214 182.940126 
L 161.817898 182.46022 
L 162.193655 182.325477 
L 162.569413 181.724674 
L 162.94517 181.502345 
L 163.696686 182.799914 
L 164.448201 182.042545 
L 164.823958 182.333771 
L 165.199716 181.160114 
L 165.575473 183.896472 
L 165.951231 182.550055 
L 166.326989 182.064496 
L 166.702746 181.125233 
L 167.078504 181.238594 
L 167.454261 182.004937 
L 167.830019 182.161104 
L 168.205777 181.414516 
L 168.581534 182.304203 
L 168.957292 181.874481 
L 169.333049 181.798224 
L 169.708807 181.982022 
L 170.084564 181.109051 
L 170.460322 182.125077 
L 170.83608 182.440727 
L 171.587595 181.187696 
L 171.963352 181.751393 
L 172.33911 181.583518 
L 172.714867 182.175445 
L 173.090625 183.160066 
L 173.466383 182.022578 
L 173.84214 181.400837 
L 174.593655 182.736279 
L 174.969413 182.132305 
L 175.34517 183.201044 
L 175.720928 183.390734 
L 176.096686 183.243412 
L 176.472443 181.991815 
L 177.223958 182.274377 
L 177.599716 183.17882 
L 177.975473 183.428812 
L 178.351231 183.886167 
L 178.726989 182.608761 
L 179.102746 183.712115 
L 179.854261 183.277566 
L 180.230019 183.511026 
L 181.357292 183.633084 
L 181.733049 183.299605 
L 182.108807 183.783579 
L 182.484564 183.910268 
L 183.23608 184.92944 
L 183.611837 183.203228 
L 183.987595 183.314599 
L 184.363352 184.512217 
L 184.73911 183.829892 
L 185.114867 184.829618 
L 185.490625 183.795532 
L 186.24214 181.114258 
L 186.993655 183.511928 
L 187.369413 183.577943 
L 187.74517 183.326592 
L 188.120928 182.786861 
L 188.496686 183.101856 
L 188.872443 182.860106 
L 189.248201 182.896584 
L 189.623958 183.097378 
L 189.999716 182.191737 
L 190.375473 183.797359 
L 190.751231 182.707522 
L 191.126989 182.50586 
L 191.502746 183.114747 
L 191.878504 182.718723 
L 192.254261 182.923467 
L 192.630019 182.183745 
L 193.005777 183.353683 
L 193.381534 182.7453 
L 193.757292 183.01248 
L 194.133049 183.68453 
L 194.508807 181.987794 
L 195.260322 183.064775 
L 195.63608 183.524069 
L 196.011837 183.241964 
L 196.387595 183.384202 
L 196.763352 183.856913 
L 197.13911 184.648702 
L 197.514867 182.602124 
L 197.890625 183.351471 
L 198.266383 182.881703 
L 198.64214 182.699623 
L 199.017898 182.807006 
L 200.520928 184.604789 
L 200.896686 184.052045 
L 201.272443 183.243903 
L 201.648201 184.052092 
L 202.399716 183.603225 
L 202.775473 183.57647 
L 203.151231 184.190813 
L 203.526989 183.846776 
L 203.902746 183.1117 
L 204.278504 183.575398 
L 204.654261 183.826855 
L 205.030019 183.216567 
L 205.405777 183.100553 
L 205.781534 183.61975 
L 206.157292 183.712894 
L 206.533049 183.597435 
L 206.908807 182.929186 
L 207.284564 183.970208 
L 207.660322 183.329715 
L 208.411837 183.487367 
L 208.787595 184.025893 
L 209.163352 183.355025 
L 209.914867 184.172635 
L 210.290625 183.89308 
L 210.666383 184.720582 
L 211.04214 185.250018 
L 211.417898 183.991193 
L 211.793655 180.264595 
L 212.169413 179.379729 
L 212.54517 179.979928 
L 212.920928 179.808172 
L 213.296686 179.831676 
L 213.672443 180.597556 
L 214.048201 180.60864 
L 214.423958 181.204994 
L 214.799716 180.571995 
L 215.175473 180.389812 
L 215.551231 180.927543 
L 215.926989 181.159789 
L 216.302746 180.95655 
L 216.678504 181.658681 
L 217.054261 181.65998 
L 217.430019 181.207524 
L 217.805777 181.268454 
L 218.181534 181.946299 
L 218.557292 181.462368 
L 218.933049 181.327931 
L 219.308807 181.405739 
L 219.684564 181.830208 
L 220.060322 181.243396 
L 220.43608 181.198737 
L 220.811837 181.023432 
L 221.187595 181.396091 
L 221.563352 180.38087 
L 221.93911 181.313379 
L 222.314867 180.376577 
L 222.690625 180.39457 
L 223.066383 181.042059 
L 223.44214 180.401476 
L 223.817898 180.903968 
L 224.193655 181.080735 
L 224.569413 180.79097 
L 225.320928 181.338014 
L 225.696686 181.292395 
L 226.072443 181.127015 
L 226.448201 181.168368 
L 226.823958 180.728198 
L 227.199716 181.203847 
L 227.951231 180.210731 
L 229.078504 181.131196 
L 229.454261 180.356829 
L 230.581534 181.13129 
L 230.957292 180.48727 
L 231.333049 181.316777 
L 231.708807 180.843416 
L 232.084564 181.182363 
L 232.460322 181.339458 
L 232.83608 180.784706 
L 233.211837 180.901468 
L 233.587595 180.547993 
L 233.963352 180.537567 
L 234.33911 181.04459 
L 234.714867 180.596105 
L 235.466383 180.738678 
L 235.84214 181.393769 
L 236.217898 180.752169 
L 236.593655 180.657503 
L 236.969413 180.737657 
L 237.34517 181.107062 
L 237.720928 180.712911 
L 238.472443 181.124472 
L 238.848201 180.84352 
L 239.223958 181.219557 
L 239.599716 180.44609 
L 239.975473 181.06896 
L 240.351231 181.178658 
L 240.726989 180.837517 
L 241.102746 181.300394 
L 241.478504 181.567467 
L 241.854261 181.012683 
L 242.230019 181.07599 
L 242.605777 180.666583 
L 242.981534 180.522667 
L 243.357292 180.75596 
L 243.733049 180.732957 
L 244.108807 181.094926 
L 244.860322 180.734951 
L 245.23608 180.631432 
L 245.611837 180.665116 
L 246.363352 181.598188 
L 246.73911 180.864201 
L 247.114867 180.568699 
L 247.490625 180.707393 
L 247.866383 181.512054 
L 248.993655 181.481038 
L 249.369413 181.815024 
L 249.74517 181.333635 
L 250.120928 181.233244 
L 250.496686 180.895049 
L 250.872443 181.152924 
L 251.248201 181.111089 
L 251.999716 181.190319 
L 252.375473 181.018222 
L 252.751231 181.32288 
L 253.126989 181.040865 
L 253.502746 181.211261 
L 253.878504 180.891106 
L 254.254261 181.268086 
L 254.630019 181.388344 
L 255.005777 181.081676 
L 255.381534 181.037959 
L 255.757292 180.683913 
L 256.133049 181.45284 
L 256.508807 181.600966 
L 256.884564 180.824199 
L 257.260322 180.767479 
L 257.63608 181.045496 
L 258.011837 180.946243 
L 258.387595 180.980867 
L 258.763352 180.565906 
L 259.13911 181.129756 
L 259.514867 180.275914 
L 259.890625 180.746793 
L 260.64214 180.556783 
L 261.017898 180.362598 
L 261.393655 180.4968 
L 261.769413 180.354044 
L 262.14517 180.75142 
L 262.520928 180.748254 
L 262.896686 180.873944 
L 263.272443 180.736618 
L 263.648201 181.217443 
L 264.023958 180.804086 
L 264.399716 180.653515 
L 264.775473 181.057363 
L 265.151231 180.652628 
L 265.526989 180.766028 
L 265.902746 181.346359 
L 266.278504 180.19628 
L 266.654261 180.998391 
L 267.405777 180.976858 
L 267.781534 180.774304 
L 268.533049 181.364204 
L 268.908807 180.015446 
L 269.660322 181.177205 
L 270.03608 180.721899 
L 270.411837 180.500829 
L 270.787595 180.702456 
L 271.53911 176.307169 
L 271.914867 177.511804 
L 272.290625 177.385175 
L 272.666383 177.852736 
L 273.417898 178.433903 
L 273.793655 178.181649 
L 274.169413 178.338894 
L 274.54517 178.111825 
L 274.920928 178.553982 
L 275.296686 178.428131 
L 275.672443 178.580703 
L 276.048201 178.411208 
L 276.423958 178.595047 
L 276.799716 178.583323 
L 277.175473 178.704573 
L 277.551231 178.524822 
L 278.678504 179.340203 
L 279.054261 178.721279 
L 279.430019 179.195154 
L 279.805777 178.863247 
L 280.557292 178.904504 
L 281.308807 179.17992 
L 281.684564 178.598338 
L 282.060322 178.499958 
L 282.43608 178.959039 
L 282.811837 178.914453 
L 283.187595 178.258735 
L 283.563352 178.66337 
L 283.93911 178.254882 
L 284.314867 178.706815 
L 284.690625 178.492793 
L 285.066383 178.803644 
L 285.44214 178.574321 
L 285.817898 178.670493 
L 286.193655 178.526605 
L 286.569413 178.608478 
L 286.94517 179.052171 
L 287.320928 178.470828 
L 288.072443 178.955696 
L 288.823958 179.056176 
L 289.199716 178.722849 
L 289.575473 179.108168 
L 290.326989 179.04044 
L 290.702746 179.339111 
L 291.078504 178.821481 
L 291.454261 178.828895 
L 291.830019 178.372158 
L 292.581534 179.071322 
L 292.957292 178.823105 
L 294.084564 178.854966 
L 294.460322 178.638637 
L 295.211837 179.102823 
L 295.587595 178.935124 
L 295.963352 178.629359 
L 296.33911 179.069866 
L 296.714867 179.27838 
L 297.090625 179.042123 
L 297.466383 178.640631 
L 297.84214 178.912032 
L 298.593655 179.065539 
L 298.969413 178.941235 
L 299.34517 179.1502 
L 299.720928 179.023144 
L 300.096686 179.363355 
L 300.472443 178.954135 
L 300.848201 178.992939 
L 301.223958 179.443323 
L 301.599716 179.645349 
L 301.975473 178.806777 
L 302.351231 179.401296 
L 303.102746 178.679273 
L 303.478504 179.34932 
L 303.854261 179.115861 
L 304.230019 179.583493 
L 304.605777 179.197347 
L 305.357292 178.990594 
L 305.733049 179.357427 
L 306.484564 179.506311 
L 306.860322 179.485305 
L 307.23608 178.780965 
L 307.611837 179.151367 
L 307.987595 179.013556 
L 308.363352 179.135437 
L 309.114867 179.042252 
L 309.490625 179.472047 
L 309.866383 179.219821 
L 310.24214 179.364226 
L 310.617898 179.358175 
L 310.993655 179.004647 
L 311.369413 179.014748 
L 311.74517 179.397583 
L 312.120928 178.693202 
L 312.872443 179.419855 
L 313.623958 178.889672 
L 313.999716 178.929942 
L 314.375473 179.249873 
L 314.751231 179.169529 
L 315.126989 178.710206 
L 315.502746 179.049115 
L 316.254261 178.837573 
L 316.630019 178.79757 
L 317.005777 178.966607 
L 317.381534 178.738942 
L 317.757292 179.272193 
L 318.133049 178.8278 
L 318.508807 178.895308 
L 318.884564 179.253174 
L 319.63608 179.440098 
L 320.011837 179.186068 
L 320.763352 179.265858 
L 321.13911 179.092749 
L 321.514867 179.164606 
L 321.890625 178.955908 
L 322.266383 178.881991 
L 322.64214 178.564917 
L 323.017898 178.695836 
L 323.393655 179.29003 
L 323.769413 179.437605 
L 324.14517 178.950038 
L 325.648201 179.195519 
L 326.023958 179.007149 
L 327.151231 179.42847 
L 327.526989 178.795757 
L 327.902746 178.69425 
L 328.654261 179.310704 
L 329.030019 178.856549 
L 329.405777 178.975556 
L 329.781534 179.433609 
L 330.157292 179.442179 
L 330.533049 178.94465 
L 331.284564 178.815202 
L 332.411837 178.477733 
L 332.787595 178.114107 
L 333.163352 178.64986 
L 333.53911 178.578177 
L 333.914867 179.115575 
L 334.290625 178.742501 
L 334.666383 178.53909 
L 335.04214 178.845721 
L 335.417898 178.880085 
L 335.793655 179.131845 
L 336.169413 178.54065 
L 337.296686 178.706631 
L 337.672443 178.630018 
L 338.048201 178.677452 
L 338.423958 178.434561 
L 338.799716 179.006029 
L 339.175473 178.741302 
L 339.551231 179.194279 
L 339.926989 179.260951 
L 340.302746 179.191975 
L 340.678504 178.984786 
L 341.054261 179.185696 
L 341.805777 179.056956 
L 342.181534 179.137147 
L 342.557292 179.05843 
L 342.933049 178.759519 
L 343.308807 179.310868 
L 343.684564 178.868002 
L 344.060322 178.694117 
L 344.811837 178.9388 
L 345.187595 178.571324 
L 345.563352 179.132231 
L 345.93911 179.162256 
L 346.314867 178.782115 
L 346.690625 178.882387 
L 347.066383 178.708396 
L 347.44214 178.844637 
L 347.817898 178.779997 
L 348.193655 179.182431 
L 349.320928 178.875146 
L 349.696686 179.323337 
L 350.072443 179.191612 
L 350.448201 179.233337 
L 350.823958 179.028099 
L 351.199716 179.215886 
L 351.575473 178.892683 
L 351.951231 178.952811 
L 352.326989 178.803125 
L 353.830019 179.240258 
L 354.205777 179.068686 
L 354.581534 178.660861 
L 354.957292 178.658637 
L 355.333049 178.895783 
L 355.708807 178.579373 
L 356.460322 178.4952 
L 356.83608 178.801094 
L 357.211837 178.906604 
L 357.587595 178.386062 
L 358.714867 178.324831 
L 359.090625 178.630576 
L 359.84214 178.467981 
L 360.217898 178.548062 
L 360.593655 178.874228 
L 361.34517 178.417217 
L 361.720928 178.742675 
L 362.472443 178.235246 
L 363.223958 178.685491 
L 363.599716 178.603752 
L 363.975473 178.646164 
L 364.726989 178.342603 
L 365.102746 178.461334 
L 365.478504 178.215457 
L 365.854261 178.496797 
L 366.230019 178.551274 
L 366.605777 178.449548 
L 366.981534 178.600133 
L 368.108807 178.732442 
L 368.484564 179.012389 
L 368.860322 178.867877 
L 369.23608 178.586218 
L 369.611837 178.706716 
L 369.987595 179.022021 
L 370.363352 178.855143 
L 371.114867 179.334006 
L 371.490625 178.04463 
L 371.866383 178.856063 
L 372.24214 179.220334 
L 372.617898 178.730664 
L 372.993655 179.094774 
L 373.369413 178.792007 
L 373.74517 178.785669 
L 374.120928 178.992825 
L 374.496686 178.877804 
L 376.751231 178.995964 
L 377.878504 178.571518 
L 378.254261 178.878843 
L 378.630019 178.876594 
L 379.005777 178.7059 
L 379.381534 178.674572 
L 379.757292 178.451724 
L 380.133049 177.283083 
L 380.508807 177.517113 
L 380.884564 178.409482 
L 381.260322 178.541538 
L 381.63608 178.504045 
L 382.011837 178.165852 
L 382.387595 178.367274 
L 382.763352 179.048832 
L 383.13911 179.06605 
L 383.514867 178.751179 
L 383.890625 178.59141 
L 384.266383 178.136257 
L 384.64214 178.453629 
L 385.017898 178.395558 
L 385.393655 178.06291 
L 385.769413 178.169817 
L 386.14517 178.550845 
L 386.520928 178.260967 
L 386.896686 178.422489 
L 387.272443 178.437498 
L 387.648201 178.20868 
L 388.023958 177.831384 
L 388.399716 178.375971 
L 388.775473 177.778779 
L 389.151231 176.356567 
L 389.902746 177.258387 
L 390.278504 177.304316 
L 391.405777 177.717315 
L 392.157292 177.815701 
L 392.533049 177.507966 
L 393.284564 177.424103 
L 393.660322 177.490708 
L 394.411837 177.292338 
L 395.163352 178.300794 
L 395.53911 178.085515 
L 395.914867 178.436069 
L 396.290625 178.042457 
L 396.666383 177.006199 
L 397.04214 177.608689 
L 397.417898 177.794829 
L 397.793655 177.650742 
L 398.169413 178.096042 
L 398.54517 177.845612 
L 399.296686 177.919014 
L 400.048201 178.002204 
L 400.423958 177.627559 
L 400.799716 178.074846 
L 401.175473 178.063833 
L 401.926989 177.697961 
L 402.302746 177.852067 
L 402.678504 178.157186 
L 403.054261 177.888062 
L 403.430019 178.266098 
L 403.805777 178.081566 
L 404.181534 177.563687 
L 404.557292 177.630044 
L 404.933049 177.948154 
L 405.308807 177.919448 
L 405.684564 177.460672 
L 406.060322 177.940087 
L 406.43608 177.907446 
L 407.187595 177.149796 
L 407.93911 178.086275 
L 408.314867 177.875391 
L 408.690625 177.827473 
L 409.066383 177.428997 
L 409.44214 177.707046 
L 409.817898 177.796431 
L 410.193655 177.61867 
L 410.569413 177.743852 
L 410.94517 178.210744 
L 411.320928 178.235982 
L 411.696686 177.858813 
L 412.072443 178.153955 
L 412.823958 178.032912 
L 413.199716 177.874922 
L 413.575473 178.017389 
L 413.951231 177.795975 
L 414.702746 178.158146 
L 415.078504 177.61645 
L 415.454261 178.124577 
L 415.830019 177.874549 
L 416.205777 177.902825 
L 416.581534 177.655145 
L 416.957292 177.823791 
L 417.708807 177.482297 
L 418.084564 177.543045 
L 418.460322 177.943777 
L 418.83608 177.654174 
L 419.587595 178.014056 
L 419.963352 177.767172 
L 420.33911 178.061381 
L 420.714867 178.012416 
L 421.466383 177.784691 
L 421.84214 177.890452 
L 422.217898 177.582448 
L 422.593655 178.045734 
L 422.969413 177.688063 
L 423.720928 177.795479 
L 424.096686 177.781499 
L 424.472443 178.085286 
L 425.223958 177.866619 
L 425.975473 177.575934 
L 426.351231 178.207843 
L 426.726989 177.68741 
L 427.102746 177.646399 
L 427.478504 177.996321 
L 427.854261 178.155769 
L 428.230019 177.779382 
L 428.605777 177.581883 
L 429.357292 177.728854 
L 429.733049 177.601826 
L 430.108807 177.299808 
L 430.484564 177.720555 
L 430.860322 177.771553 
L 431.23608 177.986081 
L 431.611837 177.917202 
L 431.987595 178.056569 
L 432.363352 177.881752 
L 432.73911 178.013289 
L 433.114867 177.845746 
L 434.24214 178.000163 
L 434.993655 178.09435 
L 436.496686 178.028538 
L 436.872443 177.575061 
L 437.248201 177.903325 
L 438.375473 177.92304 
L 438.751231 178.296702 
L 439.126989 177.536041 
L 439.878504 178.299139 
L 440.630019 177.597842 
L 441.005777 177.571086 
L 441.381534 178.083496 
L 441.757292 177.795569 
L 442.133049 178.260632 
L 442.508807 177.783564 
L 442.884564 177.63248 
L 443.260322 177.853258 
L 443.63608 177.876817 
L 444.011837 178.025955 
L 444.387595 178.30027 
L 444.763352 177.978471 
L 445.13911 178.253196 
L 445.514867 178.281086 
L 445.890625 177.919674 
L 446.266383 177.731118 
L 446.64214 178.128675 
L 447.017898 177.977383 
L 447.393655 177.955703 
L 448.14517 177.571691 
L 448.520928 177.732882 
L 448.896686 177.715864 
L 449.272443 177.523051 
L 449.648201 177.942678 
L 450.399716 177.802956 
L 451.526989 177.785892 
L 451.902746 177.602954 
L 452.654261 177.613392 
L 453.030019 177.858624 
L 453.405777 177.713087 
L 453.781534 178.067712 
L 454.157292 178.040431 
L 454.533049 177.677158 
L 454.908807 177.98925 
L 455.284564 178.460061 
L 456.03608 177.764607 
L 456.787595 177.900637 
L 457.163352 177.608285 
L 457.53911 177.506282 
L 457.914867 177.830049 
L 458.290625 177.85087 
L 458.666383 178.206318 
L 459.04214 177.991505 
L 460.920928 177.904066 
L 461.296686 177.609825 
L 461.672443 177.935633 
L 462.423958 177.593403 
L 462.799716 178.000685 
L 463.175473 177.477818 
L 463.551231 177.196323 
L 463.926989 177.346474 
L 464.302746 177.253075 
L 465.054261 177.796553 
L 465.805777 177.323836 
L 466.557292 177.705141 
L 466.933049 177.616126 
L 467.308807 177.672933 
L 467.684564 177.425612 
L 468.43608 177.67359 
L 468.811837 177.478151 
L 469.563352 177.493176 
L 469.93911 177.631309 
L 470.690625 177.351125 
L 471.066383 177.683864 
L 471.44214 177.323841 
L 472.193655 177.793755 
L 472.569413 177.534712 
L 472.94517 177.61511 
L 473.320928 177.548197 
L 473.696686 177.778557 
L 474.072443 177.545677 
L 474.448201 177.855182 
L 474.823958 177.636581 
L 475.199716 177.696012 
L 475.575473 177.174064 
L 475.951231 177.704685 
L 476.326989 177.760027 
L 476.702746 177.226968 
L 477.454261 177.536344 
L 478.205777 177.571081 
L 478.581534 177.639889 
L 478.957292 177.566215 
L 479.333049 177.108226 
L 479.708807 177.259375 
L 480.084564 177.267482 
L 480.460322 177.559062 
L 480.83608 177.52698 
L 481.211837 177.324201 
L 481.963352 177.3596 
L 483.090625 177.391282 
L 483.466383 177.669879 
L 483.84214 177.393594 
L 484.217898 177.417006 
L 484.593655 177.634143 
L 484.969413 177.420856 
L 485.720928 177.795727 
L 486.096686 177.478947 
L 486.472443 177.79415 
L 486.848201 177.415404 
L 487.223958 177.603085 
L 487.599716 177.194883 
L 488.351231 177.503105 
L 488.726989 177.498209 
L 489.102746 177.725308 
L 489.478504 177.256331 
L 489.854261 177.579251 
L 490.981534 177.829098 
L 491.733049 177.239961 
L 492.108807 177.373218 
L 492.484564 177.19942 
L 493.23608 177.382436 
L 493.611837 177.04825 
L 493.987595 177.5372 
L 495.866383 177.143614 
L 496.24214 177.187188 
L 496.617898 177.487592 
L 496.993655 177.445601 
L 497.369413 177.517355 
L 498.120928 177.051098 
L 498.496686 177.264154 
L 498.872443 177.21569 
L 499.248201 177.617506 
L 499.623958 177.284331 
L 500.375473 177.568931 
L 501.126989 177.4427 
L 501.502746 177.565758 
L 501.878504 177.27728 
L 502.254261 177.314649 
L 502.630019 177.464521 
L 503.757292 177.313854 
L 504.133049 177.39347 
L 504.508807 177.308063 
L 504.884564 177.620741 
L 505.260322 177.496708 
L 505.63608 177.524718 
L 506.011837 177.423802 
L 506.763352 177.515055 
L 507.13911 177.21551 
L 507.514867 177.41034 
L 507.890625 177.216722 
L 508.64214 177.224484 
L 509.017898 177.536705 
L 509.393655 177.447248 
L 510.14517 177.447939 
L 510.896686 177.199634 
L 511.272443 177.384945 
L 511.648201 177.292905 
L 512.023958 177.413947 
L 512.399716 177.333702 
L 513.151231 177.562299 
L 513.526989 177.384449 
L 513.902746 177.542955 
L 514.278504 177.431033 
L 515.781534 177.627174 
L 516.157292 177.363271 
L 516.533049 177.372632 
L 516.908807 177.205327 
L 517.284564 177.38526 
L 517.660322 177.076211 
L 518.411837 177.444314 
L 518.787595 177.242951 
L 519.163352 177.368122 
L 519.53911 177.080414 
L 519.914867 177.347099 
L 520.666383 177.026433 
L 521.04214 177.1768 
L 521.793655 177.028097 
L 522.169413 177.100126 
L 522.54517 176.972115 
L 522.920928 177.068654 
L 523.296686 177.494952 
L 523.672443 177.185032 
L 524.423958 177.385306 
L 524.799716 177.107246 
L 525.175473 177.406274 
L 525.551231 177.221372 
L 526.302746 177.105469 
L 526.678504 177.211271 
L 527.054261 177.109471 
L 527.430019 177.313174 
L 527.805777 176.91902 
L 528.181534 177.240559 
L 528.933049 177.207394 
L 529.308807 177.375151 
L 529.684564 177.170007 
L 530.43608 177.225124 
L 530.811837 177.471201 
L 531.187595 177.145233 
L 533.817898 177.050052 
L 534.193655 177.525836 
L 534.569413 177.563772 
L 534.94517 176.77707 
L 535.320928 176.928335 
L 536.072443 177.011568 
L 536.448201 176.757037 
L 536.823958 176.67573 
L 537.575473 176.974521 
L 537.951231 176.730409 
L 538.326989 176.669991 
L 538.702746 176.937863 
L 539.078504 176.909039 
L 539.454261 176.561085 
L 539.830019 176.808391 
L 540.205777 176.852271 
L 540.581534 177.077189 
L 540.957292 176.76503 
L 542.084564 176.91867 
L 542.460322 176.801559 
L 543.211837 176.914031 
L 543.587595 177.053432 
L 543.963352 177.036548 
L 544.33911 176.672695 
L 545.090625 177.09383 
L 545.466383 177.426862 
L 545.84214 177.204336 
L 546.217898 176.790725 
L 546.593655 176.658547 
L 546.969413 176.8656 
L 547.34517 176.747908 
L 547.720928 176.796739 
L 548.096686 177.162728 
L 548.472443 176.704809 
L 549.223958 176.827744 
L 549.599716 176.720319 
L 550.351231 176.943031 
L 550.726989 176.754891 
L 551.102746 176.98803 
L 551.478504 176.82597 
L 551.854261 176.938219 
L 552.230019 177.172628 
L 553.357292 176.919058 
L 553.733049 177.09385 
L 554.108807 176.848367 
L 554.484564 176.937287 
L 554.860322 176.841954 
L 555.23608 177.060215 
L 556.73911 177.360961 
L 557.114867 177.000992 
L 557.490625 177.068446 
L 557.866383 176.961793 
L 558.993655 177.234087 
L 559.369413 177.019088 
L 560.120928 176.947948 
L 560.872443 176.827865 
L 561.248201 176.868111 
L 561.999716 177.343572 
L 562.375473 176.639358 
L 562.751231 176.952866 
L 563.126989 176.885712 
L 563.502746 177.198339 
L 564.254261 177.086263 
L 565.757292 177.078116 
L 566.133049 176.935333 
L 566.508807 177.421 
L 567.260322 176.864784 
L 567.63608 177.185512 
L 568.011837 177.292385 
L 568.763352 177.291676 
L 569.514867 177.48032 
L 569.890625 177.014991 
L 570.266383 177.421508 
L 570.64214 176.837506 
L 571.393655 176.948537 
L 571.769413 177.083945 
L 572.14517 177.063255 
L 572.896686 176.688769 
L 573.272443 176.87413 
L 574.023958 176.824708 
L 574.399716 177.080654 
L 574.775473 176.883058 
L 575.151231 177.150074 
L 575.526989 176.822227 
L 575.902746 177.220801 
L 576.654261 176.885472 
L 577.030019 176.948225 
L 577.781534 176.838725 
L 579.284564 177.030155 
L 579.660322 177.113192 
L 581.163352 176.941307 
L 581.53911 177.216422 
L 581.914867 177.0715 
L 582.290625 176.749692 
L 583.793655 176.855799 
L 584.169413 177.302895 
L 584.54517 176.702194 
L 585.296686 176.879696 
L 586.048201 177.262478 
L 586.423958 176.891439 
L 586.799716 177.086103 
L 587.175473 176.939443 
L 587.551231 177.08215 
L 587.926989 176.91568 
L 588.302746 177.140695 
L 588.678504 176.564308 
L 589.054261 176.748101 
L 589.430019 176.632991 
L 590.181534 177.228868 
L 590.557292 176.968957 
L 591.308807 177.000699 
L 591.684564 177.046369 
L 592.060322 176.915792 
L 593.187595 177.028881 
L 593.563352 176.815194 
L 594.314867 177.193528 
L 595.44214 177.066771 
L 595.817898 176.776171 
L 596.193655 177.009432 
L 597.320928 176.754545 
L 597.696686 176.834474 
L 598.072443 176.553647 
L 598.448201 176.598635 
L 599.199716 177.233792 
L 599.575473 177.087655 
L 599.951231 176.686539 
L 600.326989 176.834051 
L 600.702746 176.625862 
L 601.078504 176.904345 
L 602.581534 176.846643 
L 602.957292 176.918835 
L 603.333049 176.798165 
L 603.708807 177.016373 
L 604.084564 176.801931 
L 604.460322 176.802418 
L 604.83608 177.06533 
L 605.211837 176.845681 
L 605.963352 177.282223 
L 606.33911 177.389364 
L 606.714867 176.890125 
L 607.466383 176.64128 
L 607.84214 176.832643 
L 608.217898 176.721689 
L 608.593655 177.003486 
L 608.969413 176.964232 
L 609.34517 176.348124 
L 609.720928 176.464538 
L 610.096686 176.862491 
L 610.472443 177.009542 
L 610.848201 176.900509 
L 611.223958 177.085592 
L 611.599716 176.882199 
L 611.975473 176.952801 
L 612.726989 176.884267 
L 613.102746 176.61444 
L 614.230019 177.117157 
L 614.981534 176.311826 
L 615.733049 176.567716 
L 616.108807 176.409771 
L 616.484564 176.425195 
L 616.860322 176.705677 
L 617.23608 176.38355 
L 617.611837 176.461522 
L 617.987595 176.353858 
L 618.363352 176.847341 
L 618.73911 176.674799 
L 619.490625 176.709777 
L 619.866383 176.535212 
L 620.24214 176.666492 
L 620.617898 176.617644 
L 620.993655 176.806423 
L 621.369413 176.691997 
L 621.74517 176.78729 
L 622.120928 176.601672 
L 622.496686 176.617892 
L 622.872443 176.421578 
L 623.248201 176.646928 
L 623.623958 176.509849 
L 623.999716 176.540546 
L 624.375473 176.748245 
L 624.751231 176.409655 
L 625.126989 176.494151 
L 625.126989 176.494151 
" clip-path="url(#pe543cce53f)" style="fill: none; stroke: #ff7f0e; stroke-width: 1.5; stroke-linecap: square"/>
   </g>
   <g id="patch_3">
    <path d="M 92.490625 308.63625 
L 92.490625 31.43625 
" style="fill: none; stroke: #000000; stroke-width: 0.8; stroke-linejoin: miter; stroke-linecap: square"/>
   </g>
   <g id="patch_4">
    <path d="M 650.490625 308.63625 
L 650.490625 31.43625 
" style="fill: none; stroke: #000000; stroke-width: 0.8; stroke-linejoin: miter; stroke-linecap: square"/>
   </g>
   <g id="patch_5">
    <path d="M 92.490625 308.63625 
L 650.490625 308.63625 
" style="fill: none; stroke: #000000; stroke-width: 0.8; stroke-linejoin: miter; stroke-linecap: square"/>
   </g>
   <g id="patch_6">
    <path d="M 92.490625 31.43625 
L 650.490625 31.43625 
" style="fill: none; stroke: #000000; stroke-width: 0.8; stroke-linejoin: miter; stroke-linecap: square"/>
   </g>
   <g id="text_16">
    <!-- Generator and Discriminator Loss During Training -->
    <g transform="translate(74.258125 25.43625) scale(0.24 -0.24)">
     <defs>
      <path id="DejaVuSans-47" d="M 3809 666 
L 3809 1919 
L 2778 1919 
L 2778 2438 
L 4434 2438 
L 4434 434 
Q 4069 175 3628 42 
Q 3188 -91 2688 -91 
Q 1594 -91 976 548 
Q 359 1188 359 2328 
Q 359 3472 976 4111 
Q 1594 4750 2688 4750 
Q 3144 4750 3555 4637 
Q 3966 4525 4313 4306 
L 4313 3634 
Q 3963 3931 3569 4081 
Q 3175 4231 2741 4231 
Q 1884 4231 1454 3753 
Q 1025 3275 1025 2328 
Q 1025 1384 1454 906 
Q 1884 428 2741 428 
Q 3075 428 3337 486 
Q 3600 544 3809 666 
z
" transform="scale(0.015625)"/>
      <path id="DejaVuSans-20" transform="scale(0.015625)"/>
      <path id="DejaVuSans-64" d="M 2906 2969 
L 2906 4863 
L 3481 4863 
L 3481 0 
L 2906 0 
L 2906 525 
Q 2725 213 2448 61 
Q 2172 -91 1784 -91 
Q 1150 -91 751 415 
Q 353 922 353 1747 
Q 353 2572 751 3078 
Q 1150 3584 1784 3584 
Q 2172 3584 2448 3432 
Q 2725 3281 2906 2969 
z
M 947 1747 
Q 947 1113 1208 752 
Q 1469 391 1925 391 
Q 2381 391 2643 752 
Q 2906 1113 2906 1747 
Q 2906 2381 2643 2742 
Q 2381 3103 1925 3103 
Q 1469 3103 1208 2742 
Q 947 2381 947 1747 
z
" transform="scale(0.015625)"/>
      <path id="DejaVuSans-44" d="M 1259 4147 
L 1259 519 
L 2022 519 
Q 2988 519 3436 956 
Q 3884 1394 3884 2338 
Q 3884 3275 3436 3711 
Q 2988 4147 2022 4147 
L 1259 4147 
z
M 628 4666 
L 1925 4666 
Q 3281 4666 3915 4102 
Q 4550 3538 4550 2338 
Q 4550 1131 3912 565 
Q 3275 0 1925 0 
L 628 0 
L 628 4666 
z
" transform="scale(0.015625)"/>
      <path id="DejaVuSans-63" d="M 3122 3366 
L 3122 2828 
Q 2878 2963 2633 3030 
Q 2388 3097 2138 3097 
Q 1578 3097 1268 2742 
Q 959 2388 959 1747 
Q 959 1106 1268 751 
Q 1578 397 2138 397 
Q 2388 397 2633 464 
Q 2878 531 3122 666 
L 3122 134 
Q 2881 22 2623 -34 
Q 2366 -91 2075 -91 
Q 1284 -91 818 406 
Q 353 903 353 1747 
Q 353 2603 823 3093 
Q 1294 3584 2113 3584 
Q 2378 3584 2631 3529 
Q 2884 3475 3122 3366 
z
" transform="scale(0.015625)"/>
      <path id="DejaVuSans-6d" d="M 3328 2828 
Q 3544 3216 3844 3400 
Q 4144 3584 4550 3584 
Q 5097 3584 5394 3201 
Q 5691 2819 5691 2113 
L 5691 0 
L 5113 0 
L 5113 2094 
Q 5113 2597 4934 2840 
Q 4756 3084 4391 3084 
Q 3944 3084 3684 2787 
Q 3425 2491 3425 1978 
L 3425 0 
L 2847 0 
L 2847 2094 
Q 2847 2600 2669 2842 
Q 2491 3084 2119 3084 
Q 1678 3084 1418 2786 
Q 1159 2488 1159 1978 
L 1159 0 
L 581 0 
L 581 3500 
L 1159 3500 
L 1159 2956 
Q 1356 3278 1631 3431 
Q 1906 3584 2284 3584 
Q 2666 3584 2933 3390 
Q 3200 3197 3328 2828 
z
" transform="scale(0.015625)"/>
      <path id="DejaVuSans-75" d="M 544 1381 
L 544 3500 
L 1119 3500 
L 1119 1403 
Q 1119 906 1312 657 
Q 1506 409 1894 409 
Q 2359 409 2629 706 
Q 2900 1003 2900 1516 
L 2900 3500 
L 3475 3500 
L 3475 0 
L 2900 0 
L 2900 538 
Q 2691 219 2414 64 
Q 2138 -91 1772 -91 
Q 1169 -91 856 284 
Q 544 659 544 1381 
z
M 1991 3584 
L 1991 3584 
z
" transform="scale(0.015625)"/>
      <path id="DejaVuSans-67" d="M 2906 1791 
Q 2906 2416 2648 2759 
Q 2391 3103 1925 3103 
Q 1463 3103 1205 2759 
Q 947 2416 947 1791 
Q 947 1169 1205 825 
Q 1463 481 1925 481 
Q 2391 481 2648 825 
Q 2906 1169 2906 1791 
z
M 3481 434 
Q 3481 -459 3084 -895 
Q 2688 -1331 1869 -1331 
Q 1566 -1331 1297 -1286 
Q 1028 -1241 775 -1147 
L 775 -588 
Q 1028 -725 1275 -790 
Q 1522 -856 1778 -856 
Q 2344 -856 2625 -561 
Q 2906 -266 2906 331 
L 2906 616 
Q 2728 306 2450 153 
Q 2172 0 1784 0 
Q 1141 0 747 490 
Q 353 981 353 1791 
Q 353 2603 747 3093 
Q 1141 3584 1784 3584 
Q 2172 3584 2450 3431 
Q 2728 3278 2906 2969 
L 2906 3500 
L 3481 3500 
L 3481 434 
z
" transform="scale(0.015625)"/>
      <path id="DejaVuSans-54" d="M -19 4666 
L 3928 4666 
L 3928 4134 
L 2272 4134 
L 2272 0 
L 1638 0 
L 1638 4134 
L -19 4134 
L -19 4666 
z
" transform="scale(0.015625)"/>
     </defs>
     <use xlink:href="#DejaVuSans-47"/>
     <use xlink:href="#DejaVuSans-65" x="77.490234"/>
     <use xlink:href="#DejaVuSans-6e" x="139.013672"/>
     <use xlink:href="#DejaVuSans-65" x="202.392578"/>
     <use xlink:href="#DejaVuSans-72" x="263.916016"/>
     <use xlink:href="#DejaVuSans-61" x="305.029297"/>
     <use xlink:href="#DejaVuSans-74" x="366.308594"/>
     <use xlink:href="#DejaVuSans-6f" x="405.517578"/>
     <use xlink:href="#DejaVuSans-72" x="466.699219"/>
     <use xlink:href="#DejaVuSans-20" x="507.8125"/>
     <use xlink:href="#DejaVuSans-61" x="539.599609"/>
     <use xlink:href="#DejaVuSans-6e" x="600.878906"/>
     <use xlink:href="#DejaVuSans-64" x="664.257812"/>
     <use xlink:href="#DejaVuSans-20" x="727.734375"/>
     <use xlink:href="#DejaVuSans-44" x="759.521484"/>
     <use xlink:href="#DejaVuSans-69" x="836.523438"/>
     <use xlink:href="#DejaVuSans-73" x="864.306641"/>
     <use xlink:href="#DejaVuSans-63" x="916.40625"/>
     <use xlink:href="#DejaVuSans-72" x="971.386719"/>
     <use xlink:href="#DejaVuSans-69" x="1012.5"/>
     <use xlink:href="#DejaVuSans-6d" x="1040.283203"/>
     <use xlink:href="#DejaVuSans-69" x="1137.695312"/>
     <use xlink:href="#DejaVuSans-6e" x="1165.478516"/>
     <use xlink:href="#DejaVuSans-61" x="1228.857422"/>
     <use xlink:href="#DejaVuSans-74" x="1290.136719"/>
     <use xlink:href="#DejaVuSans-6f" x="1329.345703"/>
     <use xlink:href="#DejaVuSans-72" x="1390.527344"/>
     <use xlink:href="#DejaVuSans-20" x="1431.640625"/>
     <use xlink:href="#DejaVuSans-4c" x="1463.427734"/>
     <use xlink:href="#DejaVuSans-6f" x="1517.390625"/>
     <use xlink:href="#DejaVuSans-73" x="1578.572266"/>
     <use xlink:href="#DejaVuSans-73" x="1630.671875"/>
     <use xlink:href="#DejaVuSans-20" x="1682.771484"/>
     <use xlink:href="#DejaVuSans-44" x="1714.558594"/>
     <use xlink:href="#DejaVuSans-75" x="1791.560547"/>
     <use xlink:href="#DejaVuSans-72" x="1854.939453"/>
     <use xlink:href="#DejaVuSans-69" x="1896.052734"/>
     <use xlink:href="#DejaVuSans-6e" x="1923.835938"/>
     <use xlink:href="#DejaVuSans-67" x="1987.214844"/>
     <use xlink:href="#DejaVuSans-20" x="2050.691406"/>
     <use xlink:href="#DejaVuSans-54" x="2082.478516"/>
     <use xlink:href="#DejaVuSans-72" x="2128.8125"/>
     <use xlink:href="#DejaVuSans-61" x="2169.925781"/>
     <use xlink:href="#DejaVuSans-69" x="2231.205078"/>
     <use xlink:href="#DejaVuSans-6e" x="2258.988281"/>
     <use xlink:href="#DejaVuSans-69" x="2322.367188"/>
     <use xlink:href="#DejaVuSans-6e" x="2350.150391"/>
     <use xlink:href="#DejaVuSans-67" x="2413.529297"/>
    </g>
   </g>
   <g id="legend_1">
    <g id="patch_7">
     <path d="M 556.99375 106.14875 
L 636.490625 106.14875 
Q 640.490625 106.14875 640.490625 102.14875 
L 640.490625 45.43625 
Q 640.490625 41.43625 636.490625 41.43625 
L 556.99375 41.43625 
Q 552.99375 41.43625 552.99375 45.43625 
L 552.99375 102.14875 
Q 552.99375 106.14875 556.99375 106.14875 
z
" style="fill: #ffffff; opacity: 0.8; stroke: #cccccc; stroke-linejoin: miter"/>
    </g>
    <g id="line2d_16">
     <path d="M 560.99375 57.633125 
L 580.99375 57.633125 
L 600.99375 57.633125 
" style="fill: none; stroke: #1f77b4; stroke-width: 1.5; stroke-linecap: square"/>
    </g>
    <g id="text_17">
     <!-- G -->
     <g transform="translate(616.99375 64.633125) scale(0.2 -0.2)">
      <use xlink:href="#DejaVuSans-47"/>
     </g>
    </g>
    <g id="line2d_17">
     <path d="M 560.99375 86.989375 
L 580.99375 86.989375 
L 600.99375 86.989375 
" style="fill: none; stroke: #ff7f0e; stroke-width: 1.5; stroke-linecap: square"/>
    </g>
    <g id="text_18">
     <!-- D -->
     <g transform="translate(616.99375 93.989375) scale(0.2 -0.2)">
      <use xlink:href="#DejaVuSans-44"/>
     </g>
    </g>
   </g>
  </g>
 </g>
 <defs>
  <clipPath id="pe543cce53f">
   <rect x="92.490625" y="31.43625" width="558" height="277.2"/>
  </clipPath>
 </defs>
</svg>
