<?xml version="1.0" encoding="utf-8" standalone="no"?>
<!DOCTYPE svg PUBLIC "-//W3C//DTD SVG 1.1//EN"
  "http://www.w3.org/Graphics/SVG/1.1/DTD/svg11.dtd">
<svg xmlns:xlink="http://www.w3.org/1999/xlink" width="675.923125pt" height="365.54875pt" viewBox="0 0 675.923125 365.54875" xmlns="http://www.w3.org/2000/svg" version="1.1">
 <metadata>
  <rdf:RDF xmlns:dc="http://purl.org/dc/elements/1.1/" xmlns:cc="http://creativecommons.org/ns#" xmlns:rdf="http://www.w3.org/1999/02/22-rdf-syntax-ns#">
   <cc:Work>
    <dc:type rdf:resource="http://purl.org/dc/dcmitype/StillImage"/>
    <dc:date>2024-02-07T04:36:23.349731</dc:date>
    <dc:format>image/svg+xml</dc:format>
    <dc:creator>
     <cc:Agent>
      <dc:title>Matplotlib v3.7.2, https://matplotlib.org/</dc:title>
     </cc:Agent>
    </dc:creator>
   </cc:Work>
  </rdf:RDF>
 </metadata>
 <defs>
  <style type="text/css">*{stroke-linejoin: round; stroke-linecap: butt}</style>
 </defs>
 <g id="figure_1">
  <g id="patch_1">
   <path d="M 0 365.54875 
L 675.923125 365.54875 
L 675.923125 -0 
L 0 -0 
z
" style="fill: #ffffff"/>
  </g>
  <g id="axes_1">
   <g id="patch_2">
    <path d="M 92.490625 308.63625 
L 650.490625 308.63625 
L 650.490625 31.43625 
L 92.490625 31.43625 
z
" style="fill: #ffffff"/>
   </g>
   <g id="matplotlib.axis_1">
    <g id="xtick_1">
     <g id="line2d_1">
      <defs>
       <path id="m615b7a2b85" d="M 0 0 
L 0 3.5 
" style="stroke: #000000; stroke-width: 0.8"/>
      </defs>
      <g>
       <use xlink:href="#m615b7a2b85" x="117.854261" y="308.63625" style="stroke: #000000; stroke-width: 0.8"/>
      </g>
     </g>
     <g id="text_1">
      <!-- 0 -->
      <g transform="translate(111.491761 330.833125) scale(0.2 -0.2)">
       <defs>
        <path id="DejaVuSans-30" d="M 2034 4250 
Q 1547 4250 1301 3770 
Q 1056 3291 1056 2328 
Q 1056 1369 1301 889 
Q 1547 409 2034 409 
Q 2525 409 2770 889 
Q 3016 1369 3016 2328 
Q 3016 3291 2770 3770 
Q 2525 4250 2034 4250 
z
M 2034 4750 
Q 2819 4750 3233 4129 
Q 3647 3509 3647 2328 
Q 3647 1150 3233 529 
Q 2819 -91 2034 -91 
Q 1250 -91 836 529 
Q 422 1150 422 2328 
Q 422 3509 836 4129 
Q 1250 4750 2034 4750 
z
" transform="scale(0.015625)"/>
       </defs>
       <use xlink:href="#DejaVuSans-30"/>
      </g>
     </g>
    </g>
    <g id="xtick_2">
     <g id="line2d_2">
      <g>
       <use xlink:href="#m615b7a2b85" x="202.399716" y="308.63625" style="stroke: #000000; stroke-width: 0.8"/>
      </g>
     </g>
     <g id="text_2">
      <!-- 200 -->
      <g transform="translate(183.312216 330.833125) scale(0.2 -0.2)">
       <defs>
        <path id="DejaVuSans-32" d="M 1228 531 
L 3431 531 
L 3431 0 
L 469 0 
L 469 531 
Q 828 903 1448 1529 
Q 2069 2156 2228 2338 
Q 2531 2678 2651 2914 
Q 2772 3150 2772 3378 
Q 2772 3750 2511 3984 
Q 2250 4219 1831 4219 
Q 1534 4219 1204 4116 
Q 875 4013 500 3803 
L 500 4441 
Q 881 4594 1212 4672 
Q 1544 4750 1819 4750 
Q 2544 4750 2975 4387 
Q 3406 4025 3406 3419 
Q 3406 3131 3298 2873 
Q 3191 2616 2906 2266 
Q 2828 2175 2409 1742 
Q 1991 1309 1228 531 
z
" transform="scale(0.015625)"/>
       </defs>
       <use xlink:href="#DejaVuSans-32"/>
       <use xlink:href="#DejaVuSans-30" x="63.623047"/>
       <use xlink:href="#DejaVuSans-30" x="127.246094"/>
      </g>
     </g>
    </g>
    <g id="xtick_3">
     <g id="line2d_3">
      <g>
       <use xlink:href="#m615b7a2b85" x="286.94517" y="308.63625" style="stroke: #000000; stroke-width: 0.8"/>
      </g>
     </g>
     <g id="text_3">
      <!-- 400 -->
      <g transform="translate(267.85767 330.833125) scale(0.2 -0.2)">
       <defs>
        <path id="DejaVuSans-34" d="M 2419 4116 
L 825 1625 
L 2419 1625 
L 2419 4116 
z
M 2253 4666 
L 3047 4666 
L 3047 1625 
L 3713 1625 
L 3713 1100 
L 3047 1100 
L 3047 0 
L 2419 0 
L 2419 1100 
L 313 1100 
L 313 1709 
L 2253 4666 
z
" transform="scale(0.015625)"/>
       </defs>
       <use xlink:href="#DejaVuSans-34"/>
       <use xlink:href="#DejaVuSans-30" x="63.623047"/>
       <use xlink:href="#DejaVuSans-30" x="127.246094"/>
      </g>
     </g>
    </g>
    <g id="xtick_4">
     <g id="line2d_4">
      <g>
       <use xlink:href="#m615b7a2b85" x="371.490625" y="308.63625" style="stroke: #000000; stroke-width: 0.8"/>
      </g>
     </g>
     <g id="text_4">
      <!-- 600 -->
      <g transform="translate(352.403125 330.833125) scale(0.2 -0.2)">
       <defs>
        <path id="DejaVuSans-36" d="M 2113 2584 
Q 1688 2584 1439 2293 
Q 1191 2003 1191 1497 
Q 1191 994 1439 701 
Q 1688 409 2113 409 
Q 2538 409 2786 701 
Q 3034 994 3034 1497 
Q 3034 2003 2786 2293 
Q 2538 2584 2113 2584 
z
M 3366 4563 
L 3366 3988 
Q 3128 4100 2886 4159 
Q 2644 4219 2406 4219 
Q 1781 4219 1451 3797 
Q 1122 3375 1075 2522 
Q 1259 2794 1537 2939 
Q 1816 3084 2150 3084 
Q 2853 3084 3261 2657 
Q 3669 2231 3669 1497 
Q 3669 778 3244 343 
Q 2819 -91 2113 -91 
Q 1303 -91 875 529 
Q 447 1150 447 2328 
Q 447 3434 972 4092 
Q 1497 4750 2381 4750 
Q 2619 4750 2861 4703 
Q 3103 4656 3366 4563 
z
" transform="scale(0.015625)"/>
       </defs>
       <use xlink:href="#DejaVuSans-36"/>
       <use xlink:href="#DejaVuSans-30" x="63.623047"/>
       <use xlink:href="#DejaVuSans-30" x="127.246094"/>
      </g>
     </g>
    </g>
    <g id="xtick_5">
     <g id="line2d_5">
      <g>
       <use xlink:href="#m615b7a2b85" x="456.03608" y="308.63625" style="stroke: #000000; stroke-width: 0.8"/>
      </g>
     </g>
     <g id="text_5">
      <!-- 800 -->
      <g transform="translate(436.94858 330.833125) scale(0.2 -0.2)">
       <defs>
        <path id="DejaVuSans-38" d="M 2034 2216 
Q 1584 2216 1326 1975 
Q 1069 1734 1069 1313 
Q 1069 891 1326 650 
Q 1584 409 2034 409 
Q 2484 409 2743 651 
Q 3003 894 3003 1313 
Q 3003 1734 2745 1975 
Q 2488 2216 2034 2216 
z
M 1403 2484 
Q 997 2584 770 2862 
Q 544 3141 544 3541 
Q 544 4100 942 4425 
Q 1341 4750 2034 4750 
Q 2731 4750 3128 4425 
Q 3525 4100 3525 3541 
Q 3525 3141 3298 2862 
Q 3072 2584 2669 2484 
Q 3125 2378 3379 2068 
Q 3634 1759 3634 1313 
Q 3634 634 3220 271 
Q 2806 -91 2034 -91 
Q 1263 -91 848 271 
Q 434 634 434 1313 
Q 434 1759 690 2068 
Q 947 2378 1403 2484 
z
M 1172 3481 
Q 1172 3119 1398 2916 
Q 1625 2713 2034 2713 
Q 2441 2713 2670 2916 
Q 2900 3119 2900 3481 
Q 2900 3844 2670 4047 
Q 2441 4250 2034 4250 
Q 1625 4250 1398 4047 
Q 1172 3844 1172 3481 
z
" transform="scale(0.015625)"/>
       </defs>
       <use xlink:href="#DejaVuSans-38"/>
       <use xlink:href="#DejaVuSans-30" x="63.623047"/>
       <use xlink:href="#DejaVuSans-30" x="127.246094"/>
      </g>
     </g>
    </g>
    <g id="xtick_6">
     <g id="line2d_6">
      <g>
       <use xlink:href="#m615b7a2b85" x="540.581534" y="308.63625" style="stroke: #000000; stroke-width: 0.8"/>
      </g>
     </g>
     <g id="text_6">
      <!-- 1000 -->
      <g transform="translate(515.131534 330.833125) scale(0.2 -0.2)">
       <defs>
        <path id="DejaVuSans-31" d="M 794 531 
L 1825 531 
L 1825 4091 
L 703 3866 
L 703 4441 
L 1819 4666 
L 2450 4666 
L 2450 531 
L 3481 531 
L 3481 0 
L 794 0 
L 794 531 
z
" transform="scale(0.015625)"/>
       </defs>
       <use xlink:href="#DejaVuSans-31"/>
       <use xlink:href="#DejaVuSans-30" x="63.623047"/>
       <use xlink:href="#DejaVuSans-30" x="127.246094"/>
       <use xlink:href="#DejaVuSans-30" x="190.869141"/>
      </g>
     </g>
    </g>
    <g id="xtick_7">
     <g id="line2d_7">
      <g>
       <use xlink:href="#m615b7a2b85" x="625.126989" y="308.63625" style="stroke: #000000; stroke-width: 0.8"/>
      </g>
     </g>
     <g id="text_7">
      <!-- 1200 -->
      <g transform="translate(599.676989 330.833125) scale(0.2 -0.2)">
       <use xlink:href="#DejaVuSans-31"/>
       <use xlink:href="#DejaVuSans-32" x="63.623047"/>
       <use xlink:href="#DejaVuSans-30" x="127.246094"/>
       <use xlink:href="#DejaVuSans-30" x="190.869141"/>
      </g>
     </g>
    </g>
    <g id="text_8">
     <!-- iterations -->
     <g transform="translate(324.035938 354.189375) scale(0.2 -0.2)">
      <defs>
       <path id="DejaVuSans-69" d="M 603 3500 
L 1178 3500 
L 1178 0 
L 603 0 
L 603 3500 
z
M 603 4863 
L 1178 4863 
L 1178 4134 
L 603 4134 
L 603 4863 
z
" transform="scale(0.015625)"/>
       <path id="DejaVuSans-74" d="M 1172 4494 
L 1172 3500 
L 2356 3500 
L 2356 3053 
L 1172 3053 
L 1172 1153 
Q 1172 725 1289 603 
Q 1406 481 1766 481 
L 2356 481 
L 2356 0 
L 1766 0 
Q 1100 0 847 248 
Q 594 497 594 1153 
L 594 3053 
L 172 3053 
L 172 3500 
L 594 3500 
L 594 4494 
L 1172 4494 
z
" transform="scale(0.015625)"/>
       <path id="DejaVuSans-65" d="M 3597 1894 
L 3597 1613 
L 953 1613 
Q 991 1019 1311 708 
Q 1631 397 2203 397 
Q 2534 397 2845 478 
Q 3156 559 3463 722 
L 3463 178 
Q 3153 47 2828 -22 
Q 2503 -91 2169 -91 
Q 1331 -91 842 396 
Q 353 884 353 1716 
Q 353 2575 817 3079 
Q 1281 3584 2069 3584 
Q 2775 3584 3186 3129 
Q 3597 2675 3597 1894 
z
M 3022 2063 
Q 3016 2534 2758 2815 
Q 2500 3097 2075 3097 
Q 1594 3097 1305 2825 
Q 1016 2553 972 2059 
L 3022 2063 
z
" transform="scale(0.015625)"/>
       <path id="DejaVuSans-72" d="M 2631 2963 
Q 2534 3019 2420 3045 
Q 2306 3072 2169 3072 
Q 1681 3072 1420 2755 
Q 1159 2438 1159 1844 
L 1159 0 
L 581 0 
L 581 3500 
L 1159 3500 
L 1159 2956 
Q 1341 3275 1631 3429 
Q 1922 3584 2338 3584 
Q 2397 3584 2469 3576 
Q 2541 3569 2628 3553 
L 2631 2963 
z
" transform="scale(0.015625)"/>
       <path id="DejaVuSans-61" d="M 2194 1759 
Q 1497 1759 1228 1600 
Q 959 1441 959 1056 
Q 959 750 1161 570 
Q 1363 391 1709 391 
Q 2188 391 2477 730 
Q 2766 1069 2766 1631 
L 2766 1759 
L 2194 1759 
z
M 3341 1997 
L 3341 0 
L 2766 0 
L 2766 531 
Q 2569 213 2275 61 
Q 1981 -91 1556 -91 
Q 1019 -91 701 211 
Q 384 513 384 1019 
Q 384 1609 779 1909 
Q 1175 2209 1959 2209 
L 2766 2209 
L 2766 2266 
Q 2766 2663 2505 2880 
Q 2244 3097 1772 3097 
Q 1472 3097 1187 3025 
Q 903 2953 641 2809 
L 641 3341 
Q 956 3463 1253 3523 
Q 1550 3584 1831 3584 
Q 2591 3584 2966 3190 
Q 3341 2797 3341 1997 
z
" transform="scale(0.015625)"/>
       <path id="DejaVuSans-6f" d="M 1959 3097 
Q 1497 3097 1228 2736 
Q 959 2375 959 1747 
Q 959 1119 1226 758 
Q 1494 397 1959 397 
Q 2419 397 2687 759 
Q 2956 1122 2956 1747 
Q 2956 2369 2687 2733 
Q 2419 3097 1959 3097 
z
M 1959 3584 
Q 2709 3584 3137 3096 
Q 3566 2609 3566 1747 
Q 3566 888 3137 398 
Q 2709 -91 1959 -91 
Q 1206 -91 779 398 
Q 353 888 353 1747 
Q 353 2609 779 3096 
Q 1206 3584 1959 3584 
z
" transform="scale(0.015625)"/>
       <path id="DejaVuSans-6e" d="M 3513 2113 
L 3513 0 
L 2938 0 
L 2938 2094 
Q 2938 2591 2744 2837 
Q 2550 3084 2163 3084 
Q 1697 3084 1428 2787 
Q 1159 2491 1159 1978 
L 1159 0 
L 581 0 
L 581 3500 
L 1159 3500 
L 1159 2956 
Q 1366 3272 1645 3428 
Q 1925 3584 2291 3584 
Q 2894 3584 3203 3211 
Q 3513 2838 3513 2113 
z
" transform="scale(0.015625)"/>
       <path id="DejaVuSans-73" d="M 2834 3397 
L 2834 2853 
Q 2591 2978 2328 3040 
Q 2066 3103 1784 3103 
Q 1356 3103 1142 2972 
Q 928 2841 928 2578 
Q 928 2378 1081 2264 
Q 1234 2150 1697 2047 
L 1894 2003 
Q 2506 1872 2764 1633 
Q 3022 1394 3022 966 
Q 3022 478 2636 193 
Q 2250 -91 1575 -91 
Q 1294 -91 989 -36 
Q 684 19 347 128 
L 347 722 
Q 666 556 975 473 
Q 1284 391 1588 391 
Q 1994 391 2212 530 
Q 2431 669 2431 922 
Q 2431 1156 2273 1281 
Q 2116 1406 1581 1522 
L 1381 1569 
Q 847 1681 609 1914 
Q 372 2147 372 2553 
Q 372 3047 722 3315 
Q 1072 3584 1716 3584 
Q 2034 3584 2315 3537 
Q 2597 3491 2834 3397 
z
" transform="scale(0.015625)"/>
      </defs>
      <use xlink:href="#DejaVuSans-69"/>
      <use xlink:href="#DejaVuSans-74" x="27.783203"/>
      <use xlink:href="#DejaVuSans-65" x="66.992188"/>
      <use xlink:href="#DejaVuSans-72" x="128.515625"/>
      <use xlink:href="#DejaVuSans-61" x="169.628906"/>
      <use xlink:href="#DejaVuSans-74" x="230.908203"/>
      <use xlink:href="#DejaVuSans-69" x="270.117188"/>
      <use xlink:href="#DejaVuSans-6f" x="297.900391"/>
      <use xlink:href="#DejaVuSans-6e" x="359.082031"/>
      <use xlink:href="#DejaVuSans-73" x="422.460938"/>
     </g>
    </g>
   </g>
   <g id="matplotlib.axis_2">
    <g id="ytick_1">
     <g id="line2d_8">
      <defs>
       <path id="m06ee0e91b0" d="M 0 0 
L -3.5 0 
" style="stroke: #000000; stroke-width: 0.8"/>
      </defs>
      <g>
       <use xlink:href="#m06ee0e91b0" x="92.490625" y="308.301222" style="stroke: #000000; stroke-width: 0.8"/>
      </g>
     </g>
     <g id="text_9">
      <!-- −400 -->
      <g transform="translate(30.55625 315.89966) scale(0.2 -0.2)">
       <defs>
        <path id="DejaVuSans-2212" d="M 678 2272 
L 4684 2272 
L 4684 1741 
L 678 1741 
L 678 2272 
z
" transform="scale(0.015625)"/>
       </defs>
       <use xlink:href="#DejaVuSans-2212"/>
       <use xlink:href="#DejaVuSans-34" x="83.789062"/>
       <use xlink:href="#DejaVuSans-30" x="147.412109"/>
       <use xlink:href="#DejaVuSans-30" x="211.035156"/>
      </g>
     </g>
    </g>
    <g id="ytick_2">
     <g id="line2d_9">
      <g>
       <use xlink:href="#m06ee0e91b0" x="92.490625" y="216.520244" style="stroke: #000000; stroke-width: 0.8"/>
      </g>
     </g>
     <g id="text_10">
      <!-- −200 -->
      <g transform="translate(30.55625 224.118682) scale(0.2 -0.2)">
       <use xlink:href="#DejaVuSans-2212"/>
       <use xlink:href="#DejaVuSans-32" x="83.789062"/>
       <use xlink:href="#DejaVuSans-30" x="147.412109"/>
       <use xlink:href="#DejaVuSans-30" x="211.035156"/>
      </g>
     </g>
    </g>
    <g id="ytick_3">
     <g id="line2d_10">
      <g>
       <use xlink:href="#m06ee0e91b0" x="92.490625" y="124.739266" style="stroke: #000000; stroke-width: 0.8"/>
      </g>
     </g>
     <g id="text_11">
      <!-- 0 -->
      <g transform="translate(72.765625 132.337703) scale(0.2 -0.2)">
       <use xlink:href="#DejaVuSans-30"/>
      </g>
     </g>
    </g>
    <g id="ytick_4">
     <g id="line2d_11">
      <g>
       <use xlink:href="#m06ee0e91b0" x="92.490625" y="32.958288" style="stroke: #000000; stroke-width: 0.8"/>
      </g>
     </g>
     <g id="text_12">
      <!-- 200 -->
      <g transform="translate(47.315625 40.556725) scale(0.2 -0.2)">
       <use xlink:href="#DejaVuSans-32"/>
       <use xlink:href="#DejaVuSans-30" x="63.623047"/>
       <use xlink:href="#DejaVuSans-30" x="127.246094"/>
      </g>
     </g>
    </g>
    <g id="text_13">
     <!-- Loss -->
     <g transform="translate(22.396875 191.970625) rotate(-90) scale(0.2 -0.2)">
      <defs>
       <path id="DejaVuSans-4c" d="M 628 4666 
L 1259 4666 
L 1259 531 
L 3531 531 
L 3531 0 
L 628 0 
L 628 4666 
z
" transform="scale(0.015625)"/>
      </defs>
      <use xlink:href="#DejaVuSans-4c"/>
      <use xlink:href="#DejaVuSans-6f" x="53.962891"/>
      <use xlink:href="#DejaVuSans-73" x="115.144531"/>
      <use xlink:href="#DejaVuSans-73" x="167.244141"/>
     </g>
    </g>
   </g>
   <g id="line2d_12">
    <path d="M 117.854261 68.010133 
L 118.276989 44.03625 
L 118.699716 82.894351 
L 119.122443 135.352713 
L 119.54517 149.038488 
L 119.967898 131.291508 
L 120.390625 102.480738 
L 120.813352 114.663802 
L 121.23608 109.036371 
L 121.658807 138.147454 
L 122.081534 138.134175 
L 122.926989 115.734088 
L 123.349716 94.696244 
L 124.19517 139.285864 
L 124.617898 148.794628 
L 125.463352 156.877753 
L 125.88608 83.249261 
L 126.308807 75.174256 
L 126.731534 90.472575 
L 127.154261 116.457012 
L 127.576989 96.256189 
L 127.999716 94.259751 
L 128.422443 95.075452 
L 128.84517 105.7445 
L 129.267898 103.501109 
L 129.690625 98.938048 
L 130.113352 98.781496 
L 130.53608 115.658893 
L 130.958807 104.793282 
L 131.381534 107.674873 
L 131.804261 115.096063 
L 132.226989 112.159413 
L 132.649716 107.601371 
L 133.072443 104.28473 
L 133.49517 96.706982 
L 133.917898 93.680446 
L 134.340625 98.193758 
L 134.763352 106.085946 
L 135.18608 105.036287 
L 135.608807 102.32328 
L 136.031534 103.945881 
L 136.454261 99.317411 
L 136.876989 110.564882 
L 137.299716 112.307272 
L 137.722443 111.665537 
L 138.14517 108.167608 
L 138.567898 111.994753 
L 138.990625 117.502876 
L 139.413352 119.774341 
L 139.83608 119.367335 
L 140.258807 113.051816 
L 140.681534 123.794414 
L 141.104261 123.121725 
L 141.526989 116.751972 
L 141.949716 119.486809 
L 142.372443 125.7908 
L 142.79517 120.97786 
L 143.217898 122.459209 
L 143.640625 119.601567 
L 144.063352 123.368147 
L 144.48608 125.26741 
L 144.908807 126.254064 
L 145.754261 123.83292 
L 146.176989 125.066543 
L 146.599716 124.405088 
L 147.022443 124.342819 
L 147.44517 129.684678 
L 148.290625 122.440892 
L 148.713352 125.291613 
L 149.13608 126.638633 
L 149.558807 127.489029 
L 149.981534 124.104561 
L 150.404261 127.006761 
L 150.826989 124.634792 
L 151.249716 130.008476 
L 151.672443 132.148012 
L 152.09517 129.332871 
L 152.517898 130.19862 
L 152.940625 128.532356 
L 153.363352 130.615072 
L 153.78608 129.75035 
L 154.208807 131.974644 
L 154.631534 133.042215 
L 155.054261 130.869486 
L 155.476989 131.244071 
L 156.322443 129.485777 
L 156.74517 131.902921 
L 157.167898 130.300497 
L 157.590625 132.787354 
L 158.013352 130.1042 
L 158.43608 132.296661 
L 158.858807 128.828173 
L 159.704261 133.624985 
L 160.126989 133.67938 
L 160.549716 132.890623 
L 160.972443 131.166154 
L 161.39517 130.029175 
L 161.817898 136.267329 
L 162.240625 133.171776 
L 162.663352 131.366796 
L 163.08608 131.143967 
L 163.508807 134.254403 
L 163.931534 133.153225 
L 164.354261 135.194366 
L 164.776989 132.960254 
L 165.622443 131.082405 
L 166.04517 132.584999 
L 166.467898 133.28086 
L 166.890625 131.34064 
L 167.313352 128.753412 
L 167.73608 129.527871 
L 168.158807 133.657564 
L 168.581534 133.308306 
L 169.004261 134.759946 
L 169.849716 132.202234 
L 170.272443 132.039851 
L 171.117898 128.292917 
L 171.540625 131.624082 
L 171.963352 132.367101 
L 172.38608 133.574511 
L 172.808807 133.467695 
L 173.231534 132.013518 
L 173.654261 133.775036 
L 174.499716 135.816838 
L 174.922443 134.15553 
L 175.34517 133.039205 
L 175.767898 132.365518 
L 176.190625 130.732202 
L 176.613352 130.422276 
L 177.458807 131.352335 
L 177.881534 130.397482 
L 178.304261 132.385544 
L 178.726989 133.44874 
L 179.149716 130.621022 
L 179.572443 129.915593 
L 179.99517 130.780378 
L 180.417898 130.366748 
L 180.840625 133.018114 
L 181.263352 129.699722 
L 181.68608 128.315437 
L 182.108807 131.243071 
L 182.531534 129.040349 
L 182.954261 129.159144 
L 183.376989 131.657577 
L 183.799716 130.8775 
L 184.222443 132.068264 
L 185.067898 129.381879 
L 185.490625 131.489051 
L 185.913352 132.135005 
L 186.33608 129.520044 
L 186.758807 128.526529 
L 187.181534 128.62714 
L 187.604261 129.507322 
L 188.026989 130.753813 
L 188.449716 131.148931 
L 188.872443 130.542598 
L 189.29517 130.694105 
L 189.717898 129.90088 
L 190.140625 130.887488 
L 190.563352 130.639837 
L 190.98608 129.355283 
L 191.408807 130.364738 
L 191.831534 132.129378 
L 192.254261 131.451921 
L 192.676989 133.778023 
L 193.099716 132.793608 
L 193.522443 132.710615 
L 193.94517 130.760632 
L 194.367898 131.242131 
L 194.790625 132.939387 
L 195.213352 133.68315 
L 195.63608 132.669464 
L 196.481534 132.445423 
L 196.904261 132.99424 
L 197.326989 133.06021 
L 197.749716 133.884776 
L 198.172443 132.891875 
L 198.59517 133.233263 
L 199.017898 133.746225 
L 199.440625 133.738837 
L 199.863352 134.525428 
L 200.28608 135.704528 
L 200.708807 132.744017 
L 201.131534 135.219024 
L 201.554261 135.591216 
L 201.976989 136.432579 
L 202.399716 132.965228 
L 202.822443 134.074961 
L 203.24517 133.540772 
L 203.667898 133.421911 
L 204.090625 135.236827 
L 204.513352 134.063046 
L 204.93608 133.228807 
L 205.358807 131.970848 
L 205.781534 134.240862 
L 206.204261 134.068398 
L 206.626989 134.936951 
L 207.049716 132.84045 
L 207.472443 131.756121 
L 207.89517 131.859176 
L 208.317898 132.698611 
L 208.740625 132.988609 
L 209.163352 131.533742 
L 209.58608 131.9431 
L 210.008807 132.900108 
L 210.431534 132.248788 
L 210.854261 134.623461 
L 211.276989 132.871426 
L 211.699716 133.638704 
L 212.122443 133.327539 
L 212.54517 131.803134 
L 212.967898 132.483812 
L 213.390625 131.304209 
L 213.813352 132.833603 
L 214.23608 131.565009 
L 214.658807 132.345541 
L 215.081534 132.763423 
L 215.504261 132.03401 
L 215.926989 132.010279 
L 216.349716 131.256279 
L 216.772443 133.787578 
L 217.19517 130.493204 
L 217.617898 130.135762 
L 218.040625 131.669798 
L 218.463352 129.935866 
L 218.88608 131.293905 
L 219.308807 131.094286 
L 220.154261 132.187449 
L 220.999716 131.860606 
L 221.422443 132.639894 
L 221.84517 131.282355 
L 222.267898 129.529896 
L 222.690625 132.111943 
L 223.53608 130.58016 
L 223.958807 130.407129 
L 224.381534 130.956694 
L 224.804261 129.941585 
L 225.226989 129.765758 
L 225.649716 130.065677 
L 226.072443 130.203255 
L 226.49517 129.980455 
L 226.917898 130.627125 
L 227.340625 129.133283 
L 227.763352 129.835422 
L 228.608807 129.364363 
L 229.031534 130.856948 
L 229.454261 129.246312 
L 229.876989 129.706363 
L 230.299716 130.420866 
L 230.722443 129.545153 
L 231.14517 130.94038 
L 231.567898 129.371043 
L 231.990625 130.738 
L 232.413352 128.822413 
L 232.83608 130.609681 
L 233.258807 130.102713 
L 234.104261 128.586713 
L 234.526989 129.331779 
L 235.372443 130.013815 
L 235.79517 130.004582 
L 236.217898 129.563682 
L 236.640625 128.277651 
L 237.063352 129.132506 
L 237.48608 129.444018 
L 238.331534 131.421887 
L 239.176989 129.226555 
L 239.599716 128.386728 
L 240.022443 130.002226 
L 240.44517 128.766129 
L 240.867898 129.727915 
L 241.290625 130.295393 
L 242.13608 130.22921 
L 242.558807 129.990359 
L 242.981534 130.146286 
L 243.404261 130.742029 
L 243.826989 130.232945 
L 244.249716 130.335787 
L 244.672443 130.008628 
L 245.09517 129.832388 
L 245.517898 129.938118 
L 245.940625 130.276968 
L 246.363352 129.159825 
L 246.78608 128.427935 
L 247.208807 128.815487 
L 247.631534 128.502613 
L 248.054261 130.018413 
L 248.476989 128.712991 
L 248.899716 129.533333 
L 249.322443 129.687427 
L 249.74517 128.563167 
L 250.167898 128.720108 
L 250.590625 129.560897 
L 251.013352 129.261363 
L 251.43608 129.333281 
L 251.858807 130.124582 
L 252.281534 128.725848 
L 253.126989 128.192742 
L 253.972443 128.481323 
L 254.39517 129.22743 
L 254.817898 129.363656 
L 255.240625 129.292759 
L 255.663352 128.9788 
L 256.508807 128.90032 
L 256.931534 130.108556 
L 257.354261 129.085007 
L 258.199716 128.25835 
L 258.622443 128.582519 
L 259.04517 128.639878 
L 259.467898 127.829148 
L 260.313352 127.621747 
L 260.73608 129.027438 
L 261.158807 128.3083 
L 261.581534 129.060965 
L 262.004261 128.862738 
L 262.426989 128.027623 
L 262.849716 127.590238 
L 263.272443 127.417529 
L 263.69517 128.046032 
L 264.117898 127.509991 
L 264.540625 127.816074 
L 264.963352 127.724732 
L 265.38608 128.205471 
L 265.808807 127.909681 
L 266.231534 128.495895 
L 266.654261 127.306562 
L 267.076989 127.660654 
L 267.499716 127.074124 
L 267.922443 127.464054 
L 268.34517 127.567987 
L 268.767898 127.49324 
L 269.613352 128.934154 
L 270.458807 127.494717 
L 270.881534 127.974081 
L 271.304261 127.963539 
L 271.726989 127.433418 
L 272.149716 128.445598 
L 272.572443 128.005912 
L 273.417898 127.934451 
L 273.840625 127.502908 
L 274.263352 128.276474 
L 274.68608 127.592299 
L 275.108807 127.820724 
L 275.531534 126.41959 
L 275.954261 127.184355 
L 276.376989 128.350894 
L 277.222443 126.478268 
L 277.64517 127.287549 
L 278.490625 127.097101 
L 278.913352 127.943905 
L 279.33608 127.522738 
L 279.758807 127.369173 
L 280.181534 128.15539 
L 280.604261 127.606288 
L 281.026989 128.470277 
L 281.449716 127.53738 
L 281.872443 128.0492 
L 282.29517 127.705244 
L 283.140625 128.758381 
L 283.563352 128.176185 
L 283.98608 128.949204 
L 284.408807 127.88594 
L 284.831534 128.758213 
L 285.676989 127.763718 
L 286.099716 128.040503 
L 286.522443 127.818379 
L 286.94517 128.539413 
L 287.367898 127.909191 
L 287.790625 127.620119 
L 288.213352 128.215233 
L 288.63608 127.871823 
L 289.058807 128.730731 
L 289.481534 127.830667 
L 289.904261 127.973207 
L 290.326989 128.302131 
L 290.749716 128.874641 
L 291.172443 128.730779 
L 291.59517 127.936563 
L 292.017898 128.147492 
L 293.28608 126.865166 
L 293.708807 126.205635 
L 294.131534 127.195389 
L 294.554261 127.405704 
L 294.976989 125.752486 
L 295.399716 127.181242 
L 295.822443 127.621653 
L 296.24517 128.285453 
L 297.090625 127.952824 
L 297.513352 127.320872 
L 297.93608 128.138393 
L 298.358807 127.595705 
L 298.781534 127.777125 
L 299.204261 127.076334 
L 299.626989 128.23788 
L 300.049716 127.355098 
L 300.472443 127.310545 
L 300.89517 127.383422 
L 301.317898 128.051083 
L 301.740625 127.910596 
L 302.163352 127.191374 
L 302.58608 127.862572 
L 303.008807 127.925051 
L 303.431534 128.140637 
L 303.854261 126.966591 
L 304.276989 127.601789 
L 304.699716 127.303259 
L 305.122443 128.020273 
L 305.54517 127.395705 
L 306.390625 127.549729 
L 306.813352 127.240643 
L 307.23608 127.562493 
L 307.658807 127.469046 
L 308.081534 127.017582 
L 308.504261 126.329977 
L 308.926989 123.594003 
L 309.349716 125.641018 
L 309.772443 126.194417 
L 310.19517 127.565289 
L 310.617898 125.926257 
L 311.040625 126.83942 
L 311.88608 127.662776 
L 312.308807 127.0441 
L 312.731534 127.646191 
L 313.154261 126.217146 
L 313.576989 127.246878 
L 313.999716 126.968989 
L 314.422443 127.389283 
L 314.84517 127.366595 
L 315.267898 126.909622 
L 315.690625 126.920462 
L 316.113352 127.869458 
L 316.53608 127.673739 
L 316.958807 128.140586 
L 317.381534 128.296592 
L 317.804261 127.668539 
L 318.226989 127.522494 
L 318.649716 127.864583 
L 319.072443 128.588431 
L 319.49517 128.132745 
L 319.917898 128.535777 
L 320.763352 126.453202 
L 321.608807 127.878267 
L 322.031534 127.473338 
L 322.876989 127.994517 
L 323.299716 127.785176 
L 323.722443 127.876873 
L 324.14517 128.483396 
L 324.567898 128.793588 
L 324.990625 128.220969 
L 325.413352 127.947937 
L 325.83608 128.312831 
L 326.258807 128.854793 
L 326.681534 128.997201 
L 327.104261 129.420327 
L 327.526989 127.991662 
L 327.949716 128.745344 
L 328.372443 128.776292 
L 328.79517 128.306823 
L 330.063352 127.365727 
L 330.48608 128.478041 
L 330.908807 127.867424 
L 331.331534 128.945239 
L 331.754261 127.881041 
L 332.176989 127.1771 
L 332.599716 128.168141 
L 333.022443 126.793318 
L 333.44517 127.978285 
L 333.867898 128.793073 
L 334.290625 128.765525 
L 334.713352 127.131237 
L 335.13608 128.101187 
L 335.981534 127.293432 
L 336.404261 127.158085 
L 336.826989 128.714304 
L 337.249716 128.370978 
L 337.672443 128.486902 
L 338.09517 128.947382 
L 338.517898 128.838007 
L 338.940625 128.260208 
L 339.363352 127.950895 
L 339.78608 126.283135 
L 340.208807 128.140022 
L 341.054261 126.207577 
L 341.476989 127.539877 
L 341.899716 127.357292 
L 342.74517 126.763006 
L 343.167898 127.259967 
L 343.590625 126.996985 
L 344.013352 126.529472 
L 344.858807 127.412347 
L 345.281534 127.049697 
L 345.704261 126.292813 
L 346.126989 126.895689 
L 346.549716 126.452249 
L 346.972443 126.552457 
L 347.39517 125.732269 
L 347.817898 127.180789 
L 348.240625 126.470533 
L 348.663352 128.10307 
L 349.08608 127.623482 
L 349.508807 126.756451 
L 349.931534 126.674386 
L 350.354261 126.430197 
L 350.776989 126.382953 
L 351.199716 126.125891 
L 351.622443 126.832502 
L 352.04517 126.755911 
L 352.467898 127.53797 
L 352.890625 126.623237 
L 353.313352 127.500371 
L 353.73608 127.788318 
L 354.158807 127.217003 
L 354.581534 125.721419 
L 355.004261 127.374596 
L 355.426989 126.931644 
L 355.849716 126.74159 
L 356.272443 127.096731 
L 356.69517 126.733166 
L 357.117898 126.862768 
L 357.540625 127.330305 
L 357.963352 126.593448 
L 358.38608 127.082128 
L 358.808807 126.241215 
L 359.231534 126.633846 
L 359.654261 126.147503 
L 360.076989 126.651037 
L 360.499716 127.735513 
L 361.34517 127.235319 
L 361.767898 126.961516 
L 362.190625 127.437199 
L 362.613352 127.198821 
L 363.03608 128.460895 
L 363.881534 127.468841 
L 364.726989 126.841378 
L 365.149716 128.237104 
L 365.572443 128.194875 
L 365.99517 127.590703 
L 366.417898 128.171441 
L 366.840625 128.288059 
L 367.263352 127.73191 
L 367.68608 125.465954 
L 368.108807 127.135651 
L 368.531534 127.340297 
L 368.954261 127.065755 
L 370.222443 126.838191 
L 370.64517 127.52029 
L 371.067898 127.098561 
L 371.490625 126.969432 
L 371.913352 126.098803 
L 372.33608 126.906418 
L 372.758807 127.215905 
L 373.181534 127.302956 
L 373.604261 127.894747 
L 374.026989 127.955347 
L 374.449716 127.820972 
L 375.29517 127.888876 
L 375.717898 128.066486 
L 376.140625 128.803499 
L 376.563352 128.845657 
L 376.98608 127.944364 
L 377.408807 127.772268 
L 377.831534 127.404629 
L 378.254261 128.84971 
L 378.676989 128.150776 
L 379.522443 128.344491 
L 379.94517 128.322087 
L 380.367898 128.418924 
L 380.790625 129.027839 
L 381.213352 127.744921 
L 381.63608 128.373087 
L 382.058807 128.703798 
L 382.481534 128.760818 
L 382.904261 128.525646 
L 383.326989 127.503979 
L 383.749716 128.062294 
L 384.59517 128.643735 
L 385.863352 128.131017 
L 386.28608 128.268253 
L 386.708807 128.735457 
L 387.131534 128.723364 
L 387.554261 128.321858 
L 387.976989 128.121742 
L 388.399716 128.456856 
L 389.24517 127.55073 
L 389.667898 128.638946 
L 390.090625 127.979961 
L 390.513352 127.939318 
L 390.93608 128.899886 
L 392.204261 128.486266 
L 392.626989 128.134005 
L 393.472443 128.665262 
L 393.89517 128.103499 
L 394.317898 128.333266 
L 394.740625 128.272072 
L 395.163352 128.749882 
L 395.58608 128.50958 
L 396.854261 128.499473 
L 397.699716 127.554026 
L 398.967898 128.884605 
L 399.390625 127.878574 
L 399.813352 128.530693 
L 400.23608 128.326842 
L 400.658807 127.605462 
L 401.081534 128.513567 
L 401.504261 128.938562 
L 402.349716 128.72805 
L 402.772443 128.386151 
L 403.19517 128.783101 
L 403.617898 128.184901 
L 404.463352 128.133105 
L 404.88608 128.750582 
L 405.308807 129.568759 
L 405.731534 129.101744 
L 406.154261 128.148939 
L 406.576989 128.871646 
L 406.999716 128.615969 
L 407.422443 129.793413 
L 407.84517 129.034977 
L 408.267898 128.759412 
L 408.690625 128.825487 
L 409.113352 128.702248 
L 409.958807 128.989234 
L 410.381534 129.501328 
L 410.804261 128.900245 
L 411.226989 128.86146 
L 411.649716 129.53309 
L 412.072443 128.054782 
L 412.49517 129.236677 
L 412.917898 129.465643 
L 413.340625 129.964422 
L 413.763352 128.734684 
L 414.18608 128.215194 
L 414.608807 129.03556 
L 415.031534 128.773163 
L 415.454261 129.047373 
L 416.299716 129.044006 
L 416.722443 129.319321 
L 417.14517 128.563791 
L 417.567898 129.011729 
L 417.990625 128.318426 
L 418.413352 128.286183 
L 418.83608 127.138914 
L 419.258807 128.622457 
L 419.681534 128.504327 
L 420.104261 128.592736 
L 420.526989 128.832187 
L 421.372443 129.037423 
L 422.217898 127.809104 
L 422.640625 128.392742 
L 423.063352 127.990917 
L 423.48608 128.813058 
L 423.908807 128.313435 
L 424.331534 128.162896 
L 424.754261 127.789042 
L 425.176989 128.223701 
L 425.599716 128.43314 
L 426.022443 128.489887 
L 426.44517 128.121951 
L 426.867898 127.979753 
L 427.290625 128.462189 
L 427.713352 128.703921 
L 428.13608 127.683583 
L 428.558807 127.67312 
L 428.981534 128.074475 
L 429.404261 127.454904 
L 429.826989 127.970714 
L 430.249716 129.080553 
L 430.672443 129.154413 
L 431.09517 128.514427 
L 431.517898 129.011695 
L 431.940625 128.909241 
L 432.363352 128.977208 
L 432.78608 128.132629 
L 433.208807 128.556288 
L 433.631534 127.716828 
L 434.054261 128.307662 
L 434.476989 128.415071 
L 434.899716 128.86873 
L 435.322443 129.115289 
L 435.74517 128.582988 
L 436.167898 128.590721 
L 437.013352 128.286928 
L 437.858807 128.424822 
L 438.281534 128.333838 
L 438.704261 128.597987 
L 439.126989 127.948214 
L 439.549716 128.183036 
L 439.972443 128.928406 
L 440.39517 128.505044 
L 440.817898 128.977094 
L 441.240625 127.945485 
L 441.663352 128.972658 
L 442.08608 128.971656 
L 442.508807 128.845404 
L 442.931534 129.12386 
L 443.354261 128.708879 
L 443.776989 128.582957 
L 444.199716 127.836887 
L 444.622443 130.04573 
L 445.04517 128.798843 
L 445.467898 129.143693 
L 445.890625 128.329285 
L 446.313352 129.239804 
L 446.73608 128.930261 
L 447.158807 128.951432 
L 447.581534 129.382906 
L 448.004261 129.070555 
L 448.426989 128.082144 
L 448.849716 128.609262 
L 449.69517 128.725486 
L 450.117898 128.285281 
L 450.540625 128.905435 
L 450.963352 128.931916 
L 451.38608 128.470201 
L 451.808807 128.500942 
L 452.231534 128.307246 
L 453.076989 128.803581 
L 453.499716 128.133226 
L 454.34517 127.877252 
L 454.767898 128.187444 
L 455.190625 128.324657 
L 455.613352 128.133732 
L 456.03608 129.491465 
L 456.458807 128.420976 
L 456.881534 128.626047 
L 457.304261 127.814621 
L 458.149716 128.600698 
L 458.99517 127.53657 
L 459.417898 128.289323 
L 460.263352 127.848374 
L 460.68608 128.013614 
L 461.108807 128.374404 
L 461.531534 128.276493 
L 461.954261 127.726133 
L 463.64517 128.123373 
L 464.067898 128.593274 
L 464.490625 128.025183 
L 464.913352 127.879194 
L 465.33608 127.872547 
L 465.758807 127.585772 
L 467.026989 128.033239 
L 467.449716 127.882367 
L 467.872443 128.339916 
L 468.29517 128.303777 
L 468.717898 127.588442 
L 469.140625 127.78635 
L 469.98608 127.472765 
L 470.408807 128.308491 
L 470.831534 127.703087 
L 471.254261 128.154555 
L 471.676989 128.117919 
L 472.099716 127.952047 
L 472.522443 128.172754 
L 472.94517 128.193837 
L 473.367898 127.598257 
L 473.790625 127.688815 
L 474.213352 127.294305 
L 474.63608 127.750466 
L 475.058807 127.921249 
L 475.481534 127.733347 
L 475.904261 127.694063 
L 476.326989 127.786505 
L 476.749716 128.272949 
L 477.172443 127.79188 
L 477.59517 128.087616 
L 478.017898 127.834081 
L 478.863352 128.306809 
L 479.708807 128.167171 
L 480.131534 127.649578 
L 480.554261 128.319063 
L 480.976989 127.208487 
L 481.399716 127.670107 
L 481.822443 128.719482 
L 482.24517 127.621998 
L 482.667898 128.342651 
L 483.090625 127.951814 
L 483.513352 128.124872 
L 483.93608 128.104059 
L 484.358807 128.446385 
L 484.781534 127.959925 
L 485.626989 128.137055 
L 486.049716 128.542693 
L 486.89517 127.845509 
L 487.317898 128.096267 
L 487.740625 128.485013 
L 488.163352 128.309247 
L 488.58608 127.077541 
L 489.431534 127.773553 
L 490.276989 127.545165 
L 490.699716 128.473183 
L 491.122443 128.18567 
L 491.54517 127.167599 
L 492.813352 127.629923 
L 493.23608 127.983582 
L 493.658807 127.646028 
L 494.081534 128.271904 
L 494.504261 127.599941 
L 494.926989 127.737622 
L 495.349716 127.453109 
L 495.772443 127.813961 
L 496.19517 127.507727 
L 496.617898 128.200919 
L 497.040625 128.335249 
L 497.88608 127.612635 
L 498.731534 127.424422 
L 499.154261 127.572679 
L 499.576989 125.891945 
L 499.999716 127.173782 
L 500.422443 127.84229 
L 500.84517 127.952828 
L 501.690625 127.588948 
L 502.113352 128.086194 
L 502.53608 127.791232 
L 502.958807 127.288656 
L 503.381534 127.075581 
L 503.804261 127.47013 
L 504.226989 127.702949 
L 504.649716 127.18889 
L 505.072443 127.915919 
L 505.49517 128.084911 
L 505.917898 127.275617 
L 506.340625 126.949414 
L 506.763352 127.666678 
L 507.18608 128.157093 
L 508.031534 127.462313 
L 508.454261 127.990181 
L 508.876989 126.915693 
L 509.299716 127.125149 
L 510.14517 126.893283 
L 510.567898 127.640379 
L 510.990625 127.747758 
L 511.413352 127.703928 
L 511.83608 127.395001 
L 512.258807 126.906893 
L 512.681534 127.338218 
L 513.104261 127.592494 
L 513.526989 127.474913 
L 513.949716 128.158564 
L 514.79517 127.531598 
L 515.217898 127.621877 
L 515.640625 127.910986 
L 516.063352 128.007929 
L 516.908807 127.73232 
L 517.331534 127.46652 
L 517.754261 128.089422 
L 518.176989 127.795202 
L 518.599716 128.47234 
L 519.022443 127.679575 
L 519.44517 127.596604 
L 519.867898 127.763637 
L 520.290625 127.090065 
L 521.13608 127.482469 
L 521.558807 127.251639 
L 521.981534 128.213374 
L 522.404261 127.612115 
L 522.826989 127.494466 
L 523.249716 128.19617 
L 524.09517 127.999238 
L 524.940625 127.48116 
L 525.363352 127.838092 
L 525.78608 127.969765 
L 526.208807 127.679034 
L 527.054261 128.012391 
L 527.899716 127.930562 
L 528.322443 127.672991 
L 528.74517 127.696994 
L 529.167898 128.267994 
L 530.013352 128.452634 
L 530.43608 128.563551 
L 531.704261 128.102766 
L 532.126989 128.409777 
L 532.549716 127.840502 
L 532.972443 128.087208 
L 534.240625 128.496903 
L 534.663352 127.695491 
L 535.08608 127.89008 
L 535.508807 127.845634 
L 535.931534 128.225364 
L 536.354261 128.321429 
L 536.776989 127.718541 
L 537.199716 128.108086 
L 538.04517 127.772109 
L 538.467898 127.695736 
L 539.73608 128.475804 
L 540.158807 127.693832 
L 540.581534 128.277375 
L 541.004261 128.054634 
L 541.426989 127.699902 
L 542.272443 127.697513 
L 543.117898 127.249776 
L 543.540625 127.825069 
L 544.38608 127.047545 
L 544.808807 128.100615 
L 545.231534 126.908696 
L 546.076989 127.965902 
L 546.499716 128.072124 
L 546.922443 127.928944 
L 547.34517 128.081196 
L 548.190625 127.330396 
L 548.613352 127.251411 
L 549.03608 127.555699 
L 549.458807 127.127047 
L 549.881534 127.769072 
L 550.304261 127.279089 
L 550.726989 127.672423 
L 551.149716 127.367881 
L 551.572443 127.344589 
L 551.99517 127.156747 
L 552.417898 127.500759 
L 552.840625 127.564655 
L 553.263352 127.078006 
L 554.108807 127.537489 
L 554.531534 127.75117 
L 554.954261 128.113672 
L 555.376989 127.692191 
L 555.799716 127.492538 
L 556.222443 127.736669 
L 556.64517 127.395651 
L 557.067898 127.238436 
L 557.490625 127.849291 
L 557.913352 127.31017 
L 558.33608 127.920972 
L 558.758807 128.226687 
L 559.181534 128.675367 
L 560.026989 127.48701 
L 560.872443 126.894699 
L 561.29517 127.556987 
L 561.717898 127.759698 
L 562.140625 127.041677 
L 562.563352 127.48991 
L 562.98608 126.958709 
L 563.408807 125.827001 
L 563.831534 127.098844 
L 564.254261 127.557037 
L 564.676989 127.071524 
L 565.099716 127.22973 
L 565.94517 126.91431 
L 566.367898 127.55524 
L 566.790625 129.069233 
L 567.213352 127.717443 
L 568.058807 128.541842 
L 568.481534 128.548889 
L 568.904261 128.396757 
L 569.326989 127.394366 
L 569.749716 127.716887 
L 570.172443 127.25978 
L 570.59517 127.431042 
L 571.017898 127.321301 
L 571.440625 128.026349 
L 571.863352 127.820932 
L 572.708807 128.17302 
L 573.131534 127.943062 
L 573.554261 128.49432 
L 574.399716 127.702263 
L 574.822443 128.291246 
L 575.24517 128.103132 
L 575.667898 128.178476 
L 576.090625 127.624702 
L 576.513352 128.316546 
L 576.93608 128.342179 
L 577.358807 128.017746 
L 577.781534 128.074345 
L 578.204261 127.74964 
L 579.472443 127.652277 
L 579.89517 127.220382 
L 580.317898 128.288529 
L 581.163352 127.402581 
L 582.008807 123.871576 
L 582.431534 126.680226 
L 582.854261 128.130099 
L 583.276989 127.744199 
L 583.699716 127.040784 
L 584.122443 126.749992 
L 584.967898 127.715379 
L 585.390625 127.828865 
L 586.23608 126.920697 
L 586.658807 127.91969 
L 587.081534 128.193002 
L 587.504261 127.299768 
L 587.926989 127.504828 
L 588.349716 127.435135 
L 588.772443 127.189371 
L 589.19517 127.73022 
L 589.617898 128.007199 
L 590.040625 127.39641 
L 590.463352 127.337453 
L 591.308807 127.465881 
L 591.731534 127.890897 
L 592.154261 127.582663 
L 592.576989 127.821589 
L 594.267898 127.414752 
L 594.690625 127.682765 
L 595.113352 127.339779 
L 595.53608 127.37472 
L 595.958807 127.24827 
L 596.381534 127.759085 
L 596.804261 127.389256 
L 597.226989 127.923922 
L 597.649716 128.039553 
L 598.072443 127.905366 
L 598.49517 128.788361 
L 598.917898 128.148829 
L 599.340625 128.81063 
L 600.18608 128.183465 
L 600.608807 128.106482 
L 601.454261 128.411687 
L 601.876989 128.340169 
L 602.299716 128.701319 
L 603.14517 128.167492 
L 603.567898 128.671259 
L 604.413352 128.026179 
L 605.258807 127.703185 
L 605.681534 127.975413 
L 606.104261 128.484376 
L 606.526989 128.768287 
L 606.949716 128.676664 
L 607.372443 128.928172 
L 607.79517 127.780946 
L 608.640625 128.691961 
L 609.48608 128.486904 
L 609.908807 129.147189 
L 610.331534 127.697568 
L 610.754261 127.36636 
L 611.176989 127.490537 
L 612.022443 128.456929 
L 612.44517 128.351157 
L 612.867898 127.821503 
L 613.290625 128.440631 
L 613.713352 128.340979 
L 614.13608 127.839542 
L 614.558807 128.183897 
L 614.981534 129.060217 
L 615.404261 128.290644 
L 615.826989 128.277735 
L 616.249716 127.816516 
L 616.672443 128.587264 
L 617.09517 127.712004 
L 617.517898 128.004859 
L 617.940625 127.761841 
L 618.363352 128.279528 
L 618.78608 127.252879 
L 619.208807 127.503452 
L 619.631534 127.943295 
L 620.054261 128.192713 
L 620.476989 127.928758 
L 620.899716 127.880828 
L 621.322443 129.005345 
L 622.167898 128.314704 
L 622.590625 128.335302 
L 623.013352 129.039509 
L 623.43608 128.535691 
L 623.858807 127.711742 
L 624.281534 127.527929 
L 624.704261 128.695724 
L 625.126989 128.391718 
L 625.126989 128.391718 
" clip-path="url(#p03f7a67a31)" style="fill: none; stroke: #1f77b4; stroke-width: 1.5; stroke-linecap: square"/>
   </g>
   <g id="line2d_13">
    <path d="M 117.854261 272.296377 
L 118.276989 296.03625 
L 118.699716 264.026086 
L 119.122443 207.799987 
L 119.54517 243.066594 
L 119.967898 193.629605 
L 120.390625 187.417065 
L 120.813352 175.612571 
L 121.23608 188.708502 
L 121.658807 182.468813 
L 122.081534 171.245586 
L 122.504261 163.200798 
L 122.926989 165.079255 
L 123.349716 164.641227 
L 123.772443 164.583714 
L 124.19517 170.878139 
L 124.617898 192.699071 
L 125.040625 175.336276 
L 125.463352 168.049861 
L 125.88608 151.28019 
L 126.308807 159.248282 
L 126.731534 146.28808 
L 127.154261 140.901759 
L 127.576989 145.551194 
L 127.999716 142.666678 
L 128.422443 143.648375 
L 128.84517 145.606527 
L 129.267898 140.852092 
L 129.690625 145.328446 
L 130.113352 143.822301 
L 130.53608 139.007021 
L 130.958807 137.082641 
L 131.381534 136.292485 
L 131.804261 134.505795 
L 132.226989 136.254305 
L 132.649716 137.319965 
L 133.072443 137.857859 
L 133.49517 137.248942 
L 133.917898 137.370009 
L 134.340625 140.140774 
L 134.763352 136.559143 
L 135.18608 136.20536 
L 135.608807 136.796645 
L 136.031534 135.641941 
L 136.454261 138.298132 
L 136.876989 136.548575 
L 137.299716 138.086089 
L 137.722443 137.093049 
L 138.14517 139.686466 
L 138.567898 134.660049 
L 138.990625 136.760201 
L 139.413352 136.928963 
L 139.83608 137.545384 
L 140.681534 135.145935 
L 141.526989 138.556555 
L 141.949716 138.551237 
L 142.372443 137.30024 
L 142.79517 134.618055 
L 143.217898 136.359067 
L 143.640625 135.329998 
L 144.48608 134.580303 
L 144.908807 133.586949 
L 145.331534 134.311701 
L 145.754261 134.512647 
L 146.176989 134.178027 
L 146.599716 133.276789 
L 147.022443 134.796104 
L 147.44517 135.5698 
L 147.867898 133.398496 
L 148.290625 134.94464 
L 148.713352 135.594839 
L 149.13608 136.023794 
L 149.558807 134.271671 
L 149.981534 133.52041 
L 150.404261 134.134421 
L 150.826989 134.354601 
L 151.249716 134.101571 
L 151.672443 134.851017 
L 152.09517 135.281328 
L 152.940625 133.753552 
L 153.363352 134.350299 
L 153.78608 134.197715 
L 154.208807 135.957243 
L 154.631534 133.746004 
L 155.054261 134.598264 
L 155.476989 133.655918 
L 155.899716 134.480093 
L 156.322443 134.348458 
L 156.74517 134.696788 
L 157.167898 133.512672 
L 157.590625 135.221075 
L 158.013352 133.730723 
L 158.43608 134.529465 
L 158.858807 132.370661 
L 159.704261 134.572126 
L 160.126989 134.072371 
L 160.549716 134.627531 
L 160.972443 133.686821 
L 161.39517 135.793761 
L 161.817898 136.798164 
L 162.240625 135.970146 
L 162.663352 136.020147 
L 163.508807 133.937679 
L 163.931534 133.883375 
L 164.354261 135.783679 
L 164.776989 134.246771 
L 165.199716 134.67069 
L 165.622443 133.787839 
L 166.04517 133.98603 
L 166.467898 133.749291 
L 166.890625 134.937766 
L 167.313352 133.590693 
L 167.73608 133.948955 
L 168.581534 135.163464 
L 169.004261 135.250225 
L 169.426989 133.417657 
L 169.849716 134.83951 
L 170.272443 134.042226 
L 170.69517 133.857755 
L 171.117898 132.744474 
L 171.540625 133.127158 
L 171.963352 133.733979 
L 172.808807 132.540356 
L 173.231534 132.381644 
L 173.654261 133.468012 
L 174.076989 132.89523 
L 174.499716 133.132457 
L 174.922443 133.054752 
L 175.34517 134.444325 
L 175.767898 134.492291 
L 176.190625 132.703812 
L 176.613352 132.803628 
L 177.03608 132.034225 
L 177.458807 131.855089 
L 177.881534 132.523579 
L 178.304261 133.899917 
L 178.726989 133.3576 
L 179.149716 133.204065 
L 179.572443 132.664753 
L 179.99517 133.850222 
L 180.417898 132.380251 
L 180.840625 134.508646 
L 181.263352 132.891838 
L 181.68608 132.60006 
L 182.531534 133.371722 
L 183.376989 133.289836 
L 183.799716 133.233779 
L 184.222443 132.59753 
L 184.64517 133.140671 
L 185.067898 133.469409 
L 185.490625 135.298431 
L 185.913352 133.081593 
L 186.33608 133.76687 
L 186.758807 133.628306 
L 187.181534 134.142602 
L 188.026989 133.234211 
L 188.449716 133.387198 
L 188.872443 132.977919 
L 189.29517 133.963267 
L 189.717898 133.314476 
L 190.140625 132.411628 
L 190.563352 133.066124 
L 190.98608 134.496277 
L 191.408807 133.755932 
L 191.831534 135.162542 
L 192.254261 133.581566 
L 192.676989 133.305612 
L 193.099716 133.524542 
L 193.94517 133.266223 
L 194.367898 134.589685 
L 194.790625 133.405029 
L 195.63608 134.669077 
L 196.058807 133.501361 
L 196.481534 134.54872 
L 196.904261 134.330751 
L 197.326989 133.594184 
L 197.749716 133.685259 
L 198.172443 133.132268 
L 199.017898 134.556337 
L 199.440625 134.747522 
L 199.863352 133.734818 
L 200.28608 134.057103 
L 200.708807 133.400449 
L 201.554261 135.078663 
L 201.976989 134.763415 
L 202.399716 132.670398 
L 202.822443 133.845273 
L 203.24517 134.183134 
L 203.667898 135.394309 
L 204.090625 134.32218 
L 204.513352 135.40424 
L 204.93608 135.965906 
L 205.358807 134.883353 
L 205.781534 135.13337 
L 206.204261 133.912702 
L 206.626989 134.390122 
L 207.049716 133.280426 
L 207.472443 133.387114 
L 208.317898 133.884612 
L 208.740625 134.965188 
L 209.163352 135.665181 
L 209.58608 133.526647 
L 210.008807 134.958716 
L 210.431534 134.407457 
L 210.854261 133.612359 
L 211.276989 132.453903 
L 211.699716 132.901754 
L 212.122443 134.501656 
L 212.54517 132.691125 
L 212.967898 132.707572 
L 213.390625 133.549338 
L 213.813352 133.084856 
L 214.23608 134.094326 
L 214.658807 134.739972 
L 215.081534 133.289971 
L 215.504261 133.717798 
L 215.926989 134.941621 
L 216.349716 133.779234 
L 216.772443 134.403515 
L 217.19517 132.779398 
L 217.617898 134.351158 
L 218.040625 134.337696 
L 218.463352 134.155492 
L 218.88608 132.525546 
L 219.308807 133.086877 
L 219.731534 131.931183 
L 220.154261 134.582029 
L 220.576989 134.47649 
L 221.84517 133.335482 
L 222.690625 133.982783 
L 223.113352 133.474433 
L 223.53608 133.545177 
L 223.958807 134.065804 
L 224.381534 133.091783 
L 224.804261 133.394984 
L 225.226989 133.362916 
L 225.649716 133.734817 
L 226.49517 133.935786 
L 226.917898 134.215488 
L 227.340625 133.965623 
L 227.763352 135.494185 
L 228.608807 133.550128 
L 229.031534 133.11194 
L 229.454261 132.238664 
L 229.876989 132.453043 
L 230.299716 130.810441 
L 231.14517 134.124518 
L 231.567898 135.103878 
L 231.990625 133.781092 
L 232.413352 133.99295 
L 232.83608 132.891941 
L 233.258807 133.912624 
L 233.681534 133.264993 
L 234.526989 131.713326 
L 234.949716 132.090483 
L 235.372443 132.856766 
L 235.79517 133.123812 
L 236.217898 133.135695 
L 236.640625 132.27877 
L 237.063352 132.610056 
L 237.48608 134.40004 
L 237.908807 133.040585 
L 238.331534 133.285989 
L 238.754261 133.033763 
L 239.176989 134.071489 
L 239.599716 133.40679 
L 240.44517 133.948797 
L 240.867898 133.393113 
L 241.290625 134.972785 
L 241.713352 133.784309 
L 242.13608 134.35198 
L 242.558807 133.539669 
L 242.981534 133.178662 
L 243.404261 134.394646 
L 243.826989 132.953353 
L 244.249716 132.700312 
L 245.09517 133.674356 
L 245.517898 132.279369 
L 245.940625 132.540283 
L 246.363352 132.63201 
L 246.78608 132.106652 
L 247.631534 131.875436 
L 248.054261 132.101985 
L 248.476989 131.632349 
L 248.899716 132.243352 
L 249.322443 131.312647 
L 249.74517 132.518016 
L 250.167898 132.074249 
L 250.590625 133.525432 
L 251.43608 131.365266 
L 251.858807 132.376833 
L 252.281534 132.470925 
L 253.126989 131.396327 
L 253.549716 131.54476 
L 253.972443 132.302675 
L 254.39517 131.590595 
L 254.817898 132.470348 
L 255.240625 132.412599 
L 255.663352 131.673215 
L 256.508807 133.198533 
L 256.931534 133.673751 
L 257.776989 131.4986 
L 258.199716 132.618971 
L 258.622443 132.490221 
L 259.04517 132.556169 
L 259.467898 131.788266 
L 259.890625 131.942189 
L 260.313352 131.903216 
L 260.73608 132.539686 
L 261.158807 130.569412 
L 261.581534 131.466622 
L 262.004261 132.033561 
L 262.426989 131.906376 
L 262.849716 130.992269 
L 263.69517 132.544933 
L 264.117898 132.199204 
L 264.540625 132.783126 
L 264.963352 132.067351 
L 265.38608 132.47541 
L 265.808807 132.238959 
L 266.231534 132.671792 
L 266.654261 132.285419 
L 267.076989 132.183509 
L 267.499716 131.733499 
L 268.34517 132.243679 
L 268.767898 132.787757 
L 270.03608 132.398486 
L 270.881534 132.428882 
L 271.304261 131.97184 
L 271.726989 132.431972 
L 272.149716 133.559509 
L 272.572443 133.063622 
L 272.99517 133.288699 
L 273.417898 132.205903 
L 273.840625 132.12337 
L 274.263352 131.742718 
L 274.68608 132.882066 
L 275.954261 132.404978 
L 276.799716 132.463904 
L 277.222443 131.924399 
L 277.64517 132.932016 
L 278.067898 132.058467 
L 278.490625 131.58803 
L 278.913352 132.137126 
L 279.33608 131.581192 
L 280.181534 132.978092 
L 280.604261 133.131272 
L 281.026989 134.108581 
L 281.449716 132.805618 
L 281.872443 132.444667 
L 282.29517 132.462697 
L 282.717898 132.82047 
L 283.140625 132.728157 
L 283.98608 132.097278 
L 284.408807 132.340179 
L 284.831534 132.742722 
L 285.254261 133.609747 
L 285.676989 132.67693 
L 286.099716 132.79041 
L 286.522443 132.485461 
L 286.94517 132.365072 
L 287.367898 133.161963 
L 287.790625 133.657013 
L 288.213352 132.932014 
L 288.63608 133.725188 
L 289.481534 133.602527 
L 290.326989 132.317633 
L 291.172443 134.369376 
L 291.59517 133.267726 
L 292.017898 134.488446 
L 292.440625 133.333287 
L 292.863352 133.597625 
L 293.28608 135.119699 
L 293.708807 133.710805 
L 294.131534 134.149777 
L 294.554261 133.742468 
L 294.976989 131.405445 
L 295.822443 134.263899 
L 296.24517 132.946087 
L 296.667898 133.713455 
L 297.090625 133.403473 
L 297.513352 132.451649 
L 297.93608 132.25086 
L 298.358807 132.746294 
L 299.204261 134.145032 
L 299.626989 133.773815 
L 300.049716 132.745112 
L 300.472443 133.204419 
L 300.89517 132.526789 
L 301.740625 132.501007 
L 302.163352 132.877976 
L 302.58608 132.827072 
L 303.008807 133.125438 
L 303.431534 133.077798 
L 304.276989 132.281847 
L 304.699716 132.139013 
L 305.122443 133.059999 
L 305.54517 132.847204 
L 305.967898 133.215277 
L 306.390625 133.038088 
L 306.813352 133.341311 
L 307.23608 133.198229 
L 307.658807 132.869768 
L 308.081534 131.541686 
L 308.504261 130.601714 
L 308.926989 130.221287 
L 309.349716 132.44365 
L 309.772443 132.860736 
L 310.19517 132.116999 
L 310.617898 132.416893 
L 311.040625 132.019425 
L 311.463352 132.093121 
L 311.88608 131.574188 
L 312.308807 131.30707 
L 312.731534 131.666799 
L 313.154261 131.029464 
L 313.576989 133.131409 
L 314.422443 131.66752 
L 314.84517 130.991933 
L 315.267898 131.632793 
L 316.113352 132.233251 
L 316.53608 131.305001 
L 316.958807 130.814976 
L 317.381534 131.642424 
L 317.804261 132.145508 
L 318.226989 131.893631 
L 318.649716 131.26196 
L 319.072443 131.298169 
L 319.49517 132.251309 
L 319.917898 131.744891 
L 320.340625 131.722877 
L 320.763352 131.213984 
L 321.18608 133.009789 
L 321.608807 132.112158 
L 322.454261 132.428836 
L 322.876989 132.054355 
L 323.722443 133.03029 
L 324.14517 132.790353 
L 324.567898 133.726846 
L 324.990625 131.680295 
L 325.413352 132.280318 
L 325.83608 133.309699 
L 326.258807 132.588921 
L 326.681534 132.646088 
L 327.104261 132.094469 
L 327.526989 132.633491 
L 327.949716 132.299455 
L 328.372443 132.719236 
L 328.79517 132.658564 
L 329.217898 130.7238 
L 329.640625 132.541882 
L 330.063352 131.890837 
L 330.48608 132.252463 
L 330.908807 132.059202 
L 331.754261 131.33064 
L 332.176989 131.620803 
L 332.599716 132.843674 
L 333.022443 132.807016 
L 333.44517 132.123512 
L 333.867898 132.344499 
L 334.290625 132.697557 
L 334.713352 132.59924 
L 335.13608 131.928732 
L 335.558807 132.041675 
L 335.981534 132.651605 
L 336.404261 132.183978 
L 337.249716 133.385368 
L 338.09517 133.234771 
L 338.940625 133.314622 
L 339.363352 133.123202 
L 339.78608 130.267198 
L 340.208807 131.961519 
L 340.631534 132.457787 
L 341.054261 131.922502 
L 341.476989 132.137043 
L 341.899716 131.904927 
L 342.322443 132.655 
L 342.74517 132.616746 
L 343.167898 131.219268 
L 343.590625 130.828335 
L 344.013352 131.633501 
L 344.43608 131.692301 
L 344.858807 133.00353 
L 345.281534 131.70666 
L 345.704261 132.741796 
L 346.126989 131.429345 
L 346.972443 131.603527 
L 347.39517 132.149271 
L 347.817898 131.578289 
L 348.240625 131.710636 
L 348.663352 133.077386 
L 349.08608 133.171804 
L 349.508807 131.927192 
L 349.931534 131.326142 
L 350.354261 131.693857 
L 350.776989 131.160785 
L 351.199716 132.014318 
L 352.04517 131.679714 
L 352.467898 131.938007 
L 352.890625 131.955963 
L 353.313352 132.66614 
L 353.73608 132.074235 
L 354.581534 131.45893 
L 355.004261 131.684332 
L 355.426989 132.235263 
L 355.849716 131.630971 
L 356.272443 132.221324 
L 356.69517 132.119814 
L 357.117898 132.407691 
L 357.540625 132.042115 
L 357.963352 131.368889 
L 358.38608 132.476174 
L 358.808807 132.517321 
L 359.231534 131.085981 
L 359.654261 131.956984 
L 360.076989 131.732544 
L 360.499716 132.372228 
L 360.922443 131.597795 
L 361.34517 131.822922 
L 361.767898 130.872069 
L 362.190625 132.252918 
L 362.613352 131.896233 
L 363.03608 132.798829 
L 363.881534 131.423575 
L 364.304261 132.113453 
L 364.726989 131.16003 
L 365.149716 132.417548 
L 365.572443 132.480037 
L 365.99517 131.610612 
L 366.417898 131.893874 
L 367.263352 130.508775 
L 367.68608 129.977019 
L 368.108807 131.37025 
L 368.531534 130.291315 
L 368.954261 131.423547 
L 369.376989 130.796264 
L 369.799716 131.738487 
L 370.222443 131.537825 
L 370.64517 130.668533 
L 371.067898 131.041875 
L 371.490625 130.949823 
L 371.913352 131.078029 
L 372.33608 131.601004 
L 372.758807 131.066591 
L 373.181534 130.974 
L 373.604261 130.53843 
L 374.026989 131.155066 
L 374.449716 131.48501 
L 374.872443 131.632228 
L 375.717898 130.628291 
L 376.140625 132.335118 
L 376.563352 131.484981 
L 376.98608 131.950548 
L 377.408807 131.455994 
L 377.831534 131.328138 
L 378.676989 130.68959 
L 379.099716 131.92097 
L 379.522443 131.415325 
L 379.94517 131.543803 
L 380.367898 131.519969 
L 380.790625 131.803965 
L 381.213352 131.677254 
L 381.63608 131.359358 
L 382.058807 131.90808 
L 382.481534 131.520382 
L 382.904261 131.787374 
L 383.326989 131.411736 
L 383.749716 131.404292 
L 384.172443 132.255072 
L 384.59517 131.798463 
L 385.017898 130.909378 
L 385.440625 131.273687 
L 385.863352 131.908029 
L 386.28608 131.302501 
L 386.708807 131.099072 
L 387.131534 131.333146 
L 387.554261 131.356257 
L 387.976989 130.961632 
L 388.399716 131.366747 
L 388.822443 130.951825 
L 389.24517 131.143372 
L 389.667898 131.212655 
L 390.090625 131.168558 
L 390.513352 130.967352 
L 390.93608 131.518516 
L 391.781534 131.433964 
L 392.204261 131.759866 
L 393.049716 131.484234 
L 393.472443 131.763791 
L 393.89517 131.549835 
L 394.317898 131.751839 
L 394.740625 131.656265 
L 395.163352 132.157738 
L 395.58608 131.513777 
L 396.008807 131.526221 
L 396.431534 131.854591 
L 396.854261 132.654571 
L 397.699716 131.865287 
L 398.122443 130.593149 
L 398.54517 131.921112 
L 398.967898 131.63564 
L 399.390625 130.461283 
L 400.23608 130.893114 
L 400.658807 131.384476 
L 401.081534 130.934519 
L 401.504261 131.984969 
L 401.926989 131.163396 
L 402.349716 131.732841 
L 402.772443 131.006899 
L 403.19517 131.856539 
L 403.617898 131.359202 
L 404.040625 132.228461 
L 404.463352 130.795866 
L 404.88608 131.643273 
L 405.308807 132.082196 
L 405.731534 131.832027 
L 406.154261 132.757849 
L 406.576989 132.44943 
L 406.999716 132.587832 
L 407.422443 131.584111 
L 407.84517 131.543406 
L 408.267898 131.805415 
L 408.690625 131.450258 
L 409.53608 131.646294 
L 409.958807 132.107408 
L 410.381534 131.880479 
L 410.804261 132.134369 
L 411.226989 131.970307 
L 411.649716 132.386177 
L 412.072443 132.565465 
L 412.49517 131.64731 
L 412.917898 132.947028 
L 413.340625 131.513955 
L 413.763352 130.972511 
L 414.18608 131.252736 
L 414.608807 131.206001 
L 416.299716 132.653737 
L 416.722443 131.817172 
L 417.14517 132.11926 
L 417.567898 132.101248 
L 417.990625 131.966333 
L 418.413352 132.36078 
L 418.83608 131.258936 
L 419.258807 131.780393 
L 419.681534 131.54957 
L 420.526989 132.062622 
L 420.949716 131.957732 
L 421.372443 131.340718 
L 422.217898 131.670869 
L 422.640625 132.04183 
L 423.063352 132.236152 
L 423.48608 131.734186 
L 424.331534 131.782786 
L 424.754261 132.226408 
L 425.176989 132.283621 
L 425.599716 132.111478 
L 426.022443 132.220502 
L 426.44517 131.680684 
L 426.867898 132.290601 
L 427.290625 132.376387 
L 427.713352 133.543685 
L 428.13608 132.38326 
L 428.558807 131.997624 
L 428.981534 132.406125 
L 429.404261 131.864386 
L 430.672443 132.973723 
L 431.09517 132.207043 
L 431.517898 132.183732 
L 431.940625 132.917983 
L 432.363352 132.879916 
L 432.78608 131.609121 
L 433.208807 131.75248 
L 433.631534 131.61044 
L 434.054261 132.08651 
L 434.476989 131.515783 
L 434.899716 131.668492 
L 435.74517 130.424179 
L 436.167898 131.188671 
L 436.590625 131.541565 
L 437.013352 131.578801 
L 437.43608 131.760852 
L 437.858807 132.089249 
L 438.281534 131.078796 
L 438.704261 132.11539 
L 439.126989 131.641106 
L 439.549716 131.402283 
L 439.972443 130.979465 
L 440.39517 131.242137 
L 441.240625 131.105524 
L 441.663352 132.424635 
L 442.08608 132.220091 
L 442.508807 131.791997 
L 442.931534 131.938228 
L 443.354261 131.510736 
L 443.776989 132.098564 
L 444.199716 132.012834 
L 444.622443 133.27861 
L 445.467898 132.277825 
L 445.890625 132.339868 
L 446.313352 132.847564 
L 446.73608 132.572358 
L 447.158807 133.344471 
L 447.581534 133.44242 
L 448.004261 132.453226 
L 448.426989 132.987202 
L 448.849716 132.14924 
L 449.272443 132.405849 
L 450.117898 132.268171 
L 450.540625 132.281259 
L 450.963352 132.721498 
L 451.38608 132.325764 
L 451.808807 133.125103 
L 452.231534 133.109208 
L 452.654261 132.866023 
L 453.076989 133.262784 
L 453.499716 132.177378 
L 453.922443 132.36252 
L 454.34517 132.07249 
L 454.767898 132.346752 
L 455.613352 131.733131 
L 456.03608 132.763355 
L 456.458807 132.709225 
L 456.881534 132.462485 
L 457.726989 131.213038 
L 458.149716 131.659717 
L 458.572443 130.566539 
L 458.99517 130.559564 
L 459.417898 131.276871 
L 459.840625 130.846549 
L 460.263352 131.440441 
L 460.68608 130.957548 
L 461.108807 131.844636 
L 461.531534 131.094976 
L 461.954261 131.335715 
L 462.376989 131.407347 
L 462.799716 131.85281 
L 463.222443 131.305705 
L 463.64517 131.308068 
L 464.067898 131.126722 
L 464.490625 131.168921 
L 464.913352 130.91508 
L 465.33608 130.92399 
L 465.758807 130.733538 
L 466.181534 131.131068 
L 466.604261 131.184255 
L 467.026989 130.941223 
L 467.449716 131.384591 
L 467.872443 131.049911 
L 468.29517 131.456985 
L 468.717898 131.590332 
L 469.563352 131.392327 
L 469.98608 131.21249 
L 470.408807 131.931509 
L 470.831534 131.14334 
L 471.254261 131.232342 
L 471.676989 131.723453 
L 472.099716 131.587985 
L 472.94517 131.615276 
L 473.367898 131.440857 
L 474.213352 132.056708 
L 474.63608 131.762927 
L 475.058807 131.632992 
L 475.481534 132.353469 
L 476.326989 132.599687 
L 476.749716 132.971818 
L 477.59517 131.790298 
L 478.017898 132.466741 
L 478.440625 131.938196 
L 478.863352 131.1858 
L 479.28608 131.753227 
L 479.708807 131.454488 
L 480.131534 131.32602 
L 480.554261 131.732054 
L 481.822443 131.451028 
L 482.24517 131.069915 
L 482.667898 131.545053 
L 483.090625 132.321151 
L 483.513352 131.661514 
L 483.93608 131.759212 
L 484.781534 131.447085 
L 485.626989 132.403037 
L 486.049716 132.550619 
L 486.472443 132.262497 
L 487.317898 132.502361 
L 487.740625 131.712199 
L 488.163352 131.984447 
L 488.58608 131.804647 
L 489.008807 131.906886 
L 489.431534 131.496733 
L 489.854261 131.928376 
L 490.276989 131.837591 
L 490.699716 131.989177 
L 491.122443 131.447812 
L 491.54517 132.31555 
L 492.390625 131.861633 
L 492.813352 131.085775 
L 493.658807 131.103766 
L 494.081534 131.831547 
L 494.504261 132.165961 
L 494.926989 131.924331 
L 495.349716 132.49913 
L 495.772443 132.133288 
L 496.19517 132.703963 
L 496.617898 131.519711 
L 497.040625 131.787084 
L 497.463352 131.61516 
L 497.88608 131.905243 
L 498.308807 132.023337 
L 498.731534 131.424601 
L 499.154261 131.941062 
L 499.576989 131.584992 
L 499.999716 131.396081 
L 500.84517 131.734183 
L 501.267898 132.120899 
L 501.690625 131.868529 
L 502.113352 131.330176 
L 502.53608 131.950312 
L 502.958807 132.09371 
L 503.381534 131.285402 
L 503.804261 131.09023 
L 504.226989 131.418014 
L 505.49517 130.349473 
L 506.340625 130.653642 
L 506.763352 131.671098 
L 507.18608 131.704918 
L 508.031534 131.017815 
L 508.454261 131.587552 
L 508.876989 130.190526 
L 509.299716 131.64654 
L 509.722443 130.790442 
L 510.14517 131.176106 
L 510.567898 131.278116 
L 510.990625 132.267317 
L 511.413352 132.623179 
L 511.83608 131.651776 
L 512.258807 131.352801 
L 512.681534 131.294282 
L 513.104261 131.836177 
L 513.526989 131.318101 
L 513.949716 131.550916 
L 514.372443 131.334676 
L 514.79517 131.388509 
L 515.640625 131.856621 
L 516.063352 132.054724 
L 516.48608 131.115779 
L 516.908807 130.623342 
L 517.331534 130.862776 
L 517.754261 131.410627 
L 518.176989 131.349292 
L 518.599716 131.637476 
L 519.022443 130.877067 
L 519.44517 130.668975 
L 519.867898 131.473748 
L 520.290625 131.673314 
L 520.713352 132.305557 
L 521.13608 130.570695 
L 521.558807 131.524208 
L 521.981534 131.254612 
L 522.404261 131.168066 
L 522.826989 131.483211 
L 523.249716 130.980283 
L 524.09517 130.639009 
L 524.517898 131.405517 
L 524.940625 131.013127 
L 525.363352 131.049724 
L 525.78608 130.651157 
L 526.631534 131.651566 
L 527.054261 131.527573 
L 527.476989 131.633015 
L 527.899716 131.866406 
L 528.322443 131.748473 
L 528.74517 132.402915 
L 529.167898 132.503654 
L 530.013352 130.610999 
L 530.43608 131.411022 
L 530.858807 131.806313 
L 531.281534 131.121768 
L 531.704261 131.700637 
L 532.126989 131.62757 
L 532.549716 131.238641 
L 532.972443 131.260974 
L 534.240625 131.616936 
L 534.663352 131.295897 
L 535.08608 130.745783 
L 535.508807 130.782025 
L 535.931534 131.695054 
L 536.354261 131.024701 
L 536.776989 130.822981 
L 537.199716 131.750217 
L 537.622443 131.740044 
L 538.467898 130.129551 
L 538.890625 130.751975 
L 539.313352 131.003511 
L 539.73608 130.501422 
L 540.158807 130.73707 
L 540.581534 130.607715 
L 541.004261 129.985918 
L 541.426989 130.368178 
L 541.849716 131.084768 
L 542.272443 131.174641 
L 542.69517 130.543423 
L 543.117898 130.139932 
L 543.540625 131.065379 
L 543.963352 130.833717 
L 544.808807 131.372946 
L 545.231534 131.291543 
L 545.654261 130.667029 
L 546.499716 130.97347 
L 546.922443 131.307341 
L 547.34517 131.831564 
L 547.767898 131.625404 
L 548.190625 131.179196 
L 548.613352 130.424577 
L 549.03608 131.765082 
L 549.458807 131.368139 
L 549.881534 131.226704 
L 550.304261 129.60527 
L 550.726989 131.070313 
L 551.149716 130.095266 
L 551.572443 130.115799 
L 551.99517 131.068329 
L 552.417898 131.166856 
L 552.840625 129.884812 
L 553.263352 130.754992 
L 553.68608 131.081415 
L 554.108807 131.562154 
L 554.531534 130.966667 
L 554.954261 131.136951 
L 555.376989 130.97303 
L 555.799716 130.964746 
L 556.222443 131.401499 
L 556.64517 130.626838 
L 557.490625 131.470264 
L 557.913352 130.858801 
L 558.33608 130.899558 
L 559.181534 131.327705 
L 559.604261 130.755858 
L 560.026989 130.392417 
L 560.872443 130.354384 
L 561.29517 131.156742 
L 561.717898 130.83115 
L 562.140625 130.24938 
L 562.563352 130.371003 
L 562.98608 129.487353 
L 563.408807 124.532664 
L 563.831534 128.733557 
L 564.254261 130.746911 
L 564.676989 130.987071 
L 565.099716 130.324001 
L 565.522443 130.448759 
L 565.94517 130.830733 
L 566.367898 130.595539 
L 566.790625 131.188754 
L 567.213352 130.164736 
L 568.058807 129.37263 
L 568.481534 129.95629 
L 569.326989 129.478811 
L 569.749716 130.005955 
L 570.172443 130.010266 
L 570.59517 130.341497 
L 571.017898 130.519867 
L 571.440625 130.921899 
L 571.863352 130.187721 
L 572.28608 130.113992 
L 572.708807 131.214958 
L 573.131534 130.452203 
L 573.554261 130.945951 
L 573.976989 130.491291 
L 574.822443 131.514279 
L 575.24517 131.223316 
L 576.090625 131.389353 
L 576.93608 131.656079 
L 577.358807 129.705955 
L 577.781534 129.917771 
L 578.204261 129.276748 
L 578.626989 130.453329 
L 579.049716 130.414805 
L 579.472443 130.50234 
L 579.89517 130.467444 
L 580.317898 131.055133 
L 580.740625 130.138572 
L 581.163352 130.40683 
L 581.58608 125.50742 
L 582.008807 122.84104 
L 582.431534 130.1481 
L 582.854261 130.84771 
L 583.699716 130.640343 
L 584.122443 130.828383 
L 584.54517 130.498662 
L 584.967898 130.583282 
L 585.390625 129.75929 
L 585.813352 130.374035 
L 586.23608 129.867492 
L 586.658807 131.896064 
L 587.504261 130.212515 
L 587.926989 130.845973 
L 588.349716 130.804372 
L 588.772443 131.0562 
L 589.617898 130.108805 
L 590.040625 130.992055 
L 590.463352 130.592388 
L 590.88608 130.488568 
L 591.308807 130.23127 
L 591.731534 130.805741 
L 592.576989 130.00987 
L 592.999716 130.389554 
L 593.422443 130.413294 
L 593.84517 129.829188 
L 594.267898 130.722457 
L 594.690625 131.024591 
L 595.113352 129.376244 
L 595.53608 130.437763 
L 595.958807 130.424088 
L 596.804261 130.688667 
L 597.226989 132.07996 
L 597.649716 130.667219 
L 598.072443 130.690392 
L 598.49517 129.888552 
L 598.917898 131.129125 
L 599.340625 130.389063 
L 599.763352 130.100626 
L 600.18608 130.463531 
L 600.608807 130.674351 
L 601.031534 130.416076 
L 602.299716 130.233648 
L 602.722443 130.664875 
L 603.14517 129.387487 
L 603.567898 130.22461 
L 603.990625 129.77033 
L 604.413352 129.585297 
L 604.83608 130.128692 
L 605.681534 129.829608 
L 606.104261 130.994181 
L 606.526989 131.219198 
L 606.949716 130.70974 
L 607.372443 131.566129 
L 607.79517 131.209827 
L 608.217898 130.306914 
L 608.640625 130.868781 
L 609.063352 130.571939 
L 609.48608 130.595518 
L 609.908807 131.053044 
L 610.331534 130.282901 
L 610.754261 129.976774 
L 611.176989 130.526792 
L 611.599716 130.344896 
L 612.022443 131.020758 
L 612.44517 129.906556 
L 613.290625 130.716983 
L 613.713352 130.488582 
L 614.13608 130.787487 
L 614.558807 130.366097 
L 614.981534 130.165814 
L 615.404261 130.934409 
L 615.826989 130.164311 
L 616.672443 131.18006 
L 617.09517 129.463145 
L 617.517898 129.98269 
L 617.940625 130.244075 
L 618.363352 130.903143 
L 618.78608 130.176831 
L 620.054261 129.780195 
L 620.476989 130.4535 
L 620.899716 130.120047 
L 622.167898 130.726894 
L 622.590625 131.722965 
L 623.013352 131.979351 
L 623.43608 131.055048 
L 623.858807 130.63362 
L 625.126989 130.679998 
L 625.126989 130.679998 
" clip-path="url(#p03f7a67a31)" style="fill: none; stroke: #ff7f0e; stroke-width: 1.5; stroke-linecap: square"/>
   </g>
   <g id="patch_3">
    <path d="M 92.490625 308.63625 
L 92.490625 31.43625 
" style="fill: none; stroke: #000000; stroke-width: 0.8; stroke-linejoin: miter; stroke-linecap: square"/>
   </g>
   <g id="patch_4">
    <path d="M 650.490625 308.63625 
L 650.490625 31.43625 
" style="fill: none; stroke: #000000; stroke-width: 0.8; stroke-linejoin: miter; stroke-linecap: square"/>
   </g>
   <g id="patch_5">
    <path d="M 92.490625 308.63625 
L 650.490625 308.63625 
" style="fill: none; stroke: #000000; stroke-width: 0.8; stroke-linejoin: miter; stroke-linecap: square"/>
   </g>
   <g id="patch_6">
    <path d="M 92.490625 31.43625 
L 650.490625 31.43625 
" style="fill: none; stroke: #000000; stroke-width: 0.8; stroke-linejoin: miter; stroke-linecap: square"/>
   </g>
   <g id="text_14">
    <!-- Generator and Discriminator Loss During Training -->
    <g transform="translate(74.258125 25.43625) scale(0.24 -0.24)">
     <defs>
      <path id="DejaVuSans-47" d="M 3809 666 
L 3809 1919 
L 2778 1919 
L 2778 2438 
L 4434 2438 
L 4434 434 
Q 4069 175 3628 42 
Q 3188 -91 2688 -91 
Q 1594 -91 976 548 
Q 359 1188 359 2328 
Q 359 3472 976 4111 
Q 1594 4750 2688 4750 
Q 3144 4750 3555 4637 
Q 3966 4525 4313 4306 
L 4313 3634 
Q 3963 3931 3569 4081 
Q 3175 4231 2741 4231 
Q 1884 4231 1454 3753 
Q 1025 3275 1025 2328 
Q 1025 1384 1454 906 
Q 1884 428 2741 428 
Q 3075 428 3337 486 
Q 3600 544 3809 666 
z
" transform="scale(0.015625)"/>
      <path id="DejaVuSans-20" transform="scale(0.015625)"/>
      <path id="DejaVuSans-64" d="M 2906 2969 
L 2906 4863 
L 3481 4863 
L 3481 0 
L 2906 0 
L 2906 525 
Q 2725 213 2448 61 
Q 2172 -91 1784 -91 
Q 1150 -91 751 415 
Q 353 922 353 1747 
Q 353 2572 751 3078 
Q 1150 3584 1784 3584 
Q 2172 3584 2448 3432 
Q 2725 3281 2906 2969 
z
M 947 1747 
Q 947 1113 1208 752 
Q 1469 391 1925 391 
Q 2381 391 2643 752 
Q 2906 1113 2906 1747 
Q 2906 2381 2643 2742 
Q 2381 3103 1925 3103 
Q 1469 3103 1208 2742 
Q 947 2381 947 1747 
z
" transform="scale(0.015625)"/>
      <path id="DejaVuSans-44" d="M 1259 4147 
L 1259 519 
L 2022 519 
Q 2988 519 3436 956 
Q 3884 1394 3884 2338 
Q 3884 3275 3436 3711 
Q 2988 4147 2022 4147 
L 1259 4147 
z
M 628 4666 
L 1925 4666 
Q 3281 4666 3915 4102 
Q 4550 3538 4550 2338 
Q 4550 1131 3912 565 
Q 3275 0 1925 0 
L 628 0 
L 628 4666 
z
" transform="scale(0.015625)"/>
      <path id="DejaVuSans-63" d="M 3122 3366 
L 3122 2828 
Q 2878 2963 2633 3030 
Q 2388 3097 2138 3097 
Q 1578 3097 1268 2742 
Q 959 2388 959 1747 
Q 959 1106 1268 751 
Q 1578 397 2138 397 
Q 2388 397 2633 464 
Q 2878 531 3122 666 
L 3122 134 
Q 2881 22 2623 -34 
Q 2366 -91 2075 -91 
Q 1284 -91 818 406 
Q 353 903 353 1747 
Q 353 2603 823 3093 
Q 1294 3584 2113 3584 
Q 2378 3584 2631 3529 
Q 2884 3475 3122 3366 
z
" transform="scale(0.015625)"/>
      <path id="DejaVuSans-6d" d="M 3328 2828 
Q 3544 3216 3844 3400 
Q 4144 3584 4550 3584 
Q 5097 3584 5394 3201 
Q 5691 2819 5691 2113 
L 5691 0 
L 5113 0 
L 5113 2094 
Q 5113 2597 4934 2840 
Q 4756 3084 4391 3084 
Q 3944 3084 3684 2787 
Q 3425 2491 3425 1978 
L 3425 0 
L 2847 0 
L 2847 2094 
Q 2847 2600 2669 2842 
Q 2491 3084 2119 3084 
Q 1678 3084 1418 2786 
Q 1159 2488 1159 1978 
L 1159 0 
L 581 0 
L 581 3500 
L 1159 3500 
L 1159 2956 
Q 1356 3278 1631 3431 
Q 1906 3584 2284 3584 
Q 2666 3584 2933 3390 
Q 3200 3197 3328 2828 
z
" transform="scale(0.015625)"/>
      <path id="DejaVuSans-75" d="M 544 1381 
L 544 3500 
L 1119 3500 
L 1119 1403 
Q 1119 906 1312 657 
Q 1506 409 1894 409 
Q 2359 409 2629 706 
Q 2900 1003 2900 1516 
L 2900 3500 
L 3475 3500 
L 3475 0 
L 2900 0 
L 2900 538 
Q 2691 219 2414 64 
Q 2138 -91 1772 -91 
Q 1169 -91 856 284 
Q 544 659 544 1381 
z
M 1991 3584 
L 1991 3584 
z
" transform="scale(0.015625)"/>
      <path id="DejaVuSans-67" d="M 2906 1791 
Q 2906 2416 2648 2759 
Q 2391 3103 1925 3103 
Q 1463 3103 1205 2759 
Q 947 2416 947 1791 
Q 947 1169 1205 825 
Q 1463 481 1925 481 
Q 2391 481 2648 825 
Q 2906 1169 2906 1791 
z
M 3481 434 
Q 3481 -459 3084 -895 
Q 2688 -1331 1869 -1331 
Q 1566 -1331 1297 -1286 
Q 1028 -1241 775 -1147 
L 775 -588 
Q 1028 -725 1275 -790 
Q 1522 -856 1778 -856 
Q 2344 -856 2625 -561 
Q 2906 -266 2906 331 
L 2906 616 
Q 2728 306 2450 153 
Q 2172 0 1784 0 
Q 1141 0 747 490 
Q 353 981 353 1791 
Q 353 2603 747 3093 
Q 1141 3584 1784 3584 
Q 2172 3584 2450 3431 
Q 2728 3278 2906 2969 
L 2906 3500 
L 3481 3500 
L 3481 434 
z
" transform="scale(0.015625)"/>
      <path id="DejaVuSans-54" d="M -19 4666 
L 3928 4666 
L 3928 4134 
L 2272 4134 
L 2272 0 
L 1638 0 
L 1638 4134 
L -19 4134 
L -19 4666 
z
" transform="scale(0.015625)"/>
     </defs>
     <use xlink:href="#DejaVuSans-47"/>
     <use xlink:href="#DejaVuSans-65" x="77.490234"/>
     <use xlink:href="#DejaVuSans-6e" x="139.013672"/>
     <use xlink:href="#DejaVuSans-65" x="202.392578"/>
     <use xlink:href="#DejaVuSans-72" x="263.916016"/>
     <use xlink:href="#DejaVuSans-61" x="305.029297"/>
     <use xlink:href="#DejaVuSans-74" x="366.308594"/>
     <use xlink:href="#DejaVuSans-6f" x="405.517578"/>
     <use xlink:href="#DejaVuSans-72" x="466.699219"/>
     <use xlink:href="#DejaVuSans-20" x="507.8125"/>
     <use xlink:href="#DejaVuSans-61" x="539.599609"/>
     <use xlink:href="#DejaVuSans-6e" x="600.878906"/>
     <use xlink:href="#DejaVuSans-64" x="664.257812"/>
     <use xlink:href="#DejaVuSans-20" x="727.734375"/>
     <use xlink:href="#DejaVuSans-44" x="759.521484"/>
     <use xlink:href="#DejaVuSans-69" x="836.523438"/>
     <use xlink:href="#DejaVuSans-73" x="864.306641"/>
     <use xlink:href="#DejaVuSans-63" x="916.40625"/>
     <use xlink:href="#DejaVuSans-72" x="971.386719"/>
     <use xlink:href="#DejaVuSans-69" x="1012.5"/>
     <use xlink:href="#DejaVuSans-6d" x="1040.283203"/>
     <use xlink:href="#DejaVuSans-69" x="1137.695312"/>
     <use xlink:href="#DejaVuSans-6e" x="1165.478516"/>
     <use xlink:href="#DejaVuSans-61" x="1228.857422"/>
     <use xlink:href="#DejaVuSans-74" x="1290.136719"/>
     <use xlink:href="#DejaVuSans-6f" x="1329.345703"/>
     <use xlink:href="#DejaVuSans-72" x="1390.527344"/>
     <use xlink:href="#DejaVuSans-20" x="1431.640625"/>
     <use xlink:href="#DejaVuSans-4c" x="1463.427734"/>
     <use xlink:href="#DejaVuSans-6f" x="1517.390625"/>
     <use xlink:href="#DejaVuSans-73" x="1578.572266"/>
     <use xlink:href="#DejaVuSans-73" x="1630.671875"/>
     <use xlink:href="#DejaVuSans-20" x="1682.771484"/>
     <use xlink:href="#DejaVuSans-44" x="1714.558594"/>
     <use xlink:href="#DejaVuSans-75" x="1791.560547"/>
     <use xlink:href="#DejaVuSans-72" x="1854.939453"/>
     <use xlink:href="#DejaVuSans-69" x="1896.052734"/>
     <use xlink:href="#DejaVuSans-6e" x="1923.835938"/>
     <use xlink:href="#DejaVuSans-67" x="1987.214844"/>
     <use xlink:href="#DejaVuSans-20" x="2050.691406"/>
     <use xlink:href="#DejaVuSans-54" x="2082.478516"/>
     <use xlink:href="#DejaVuSans-72" x="2128.8125"/>
     <use xlink:href="#DejaVuSans-61" x="2169.925781"/>
     <use xlink:href="#DejaVuSans-69" x="2231.205078"/>
     <use xlink:href="#DejaVuSans-6e" x="2258.988281"/>
     <use xlink:href="#DejaVuSans-69" x="2322.367188"/>
     <use xlink:href="#DejaVuSans-6e" x="2350.150391"/>
     <use xlink:href="#DejaVuSans-67" x="2413.529297"/>
    </g>
   </g>
   <g id="legend_1">
    <g id="patch_7">
     <path d="M 556.99375 106.14875 
L 636.490625 106.14875 
Q 640.490625 106.14875 640.490625 102.14875 
L 640.490625 45.43625 
Q 640.490625 41.43625 636.490625 41.43625 
L 556.99375 41.43625 
Q 552.99375 41.43625 552.99375 45.43625 
L 552.99375 102.14875 
Q 552.99375 106.14875 556.99375 106.14875 
z
" style="fill: #ffffff; opacity: 0.8; stroke: #cccccc; stroke-linejoin: miter"/>
    </g>
    <g id="line2d_14">
     <path d="M 560.99375 57.633125 
L 580.99375 57.633125 
L 600.99375 57.633125 
" style="fill: none; stroke: #1f77b4; stroke-width: 1.5; stroke-linecap: square"/>
    </g>
    <g id="text_15">
     <!-- G -->
     <g transform="translate(616.99375 64.633125) scale(0.2 -0.2)">
      <use xlink:href="#DejaVuSans-47"/>
     </g>
    </g>
    <g id="line2d_15">
     <path d="M 560.99375 86.989375 
L 580.99375 86.989375 
L 600.99375 86.989375 
" style="fill: none; stroke: #ff7f0e; stroke-width: 1.5; stroke-linecap: square"/>
    </g>
    <g id="text_16">
     <!-- D -->
     <g transform="translate(616.99375 93.989375) scale(0.2 -0.2)">
      <use xlink:href="#DejaVuSans-44"/>
     </g>
    </g>
   </g>
  </g>
 </g>
 <defs>
  <clipPath id="p03f7a67a31">
   <rect x="92.490625" y="31.43625" width="558" height="277.2"/>
  </clipPath>
 </defs>
</svg>
