<?xml version="1.0" encoding="utf-8" standalone="no"?>
<!DOCTYPE svg PUBLIC "-//W3C//DTD SVG 1.1//EN"
  "http://www.w3.org/Graphics/SVG/1.1/DTD/svg11.dtd">
<svg xmlns:xlink="http://www.w3.org/1999/xlink" width="675.923125pt" height="365.54875pt" viewBox="0 0 675.923125 365.54875" xmlns="http://www.w3.org/2000/svg" version="1.1">
 <metadata>
  <rdf:RDF xmlns:dc="http://purl.org/dc/elements/1.1/" xmlns:cc="http://creativecommons.org/ns#" xmlns:rdf="http://www.w3.org/1999/02/22-rdf-syntax-ns#">
   <cc:Work>
    <dc:type rdf:resource="http://purl.org/dc/dcmitype/StillImage"/>
    <dc:date>2024-02-07T04:41:42.671436</dc:date>
    <dc:format>image/svg+xml</dc:format>
    <dc:creator>
     <cc:Agent>
      <dc:title>Matplotlib v3.7.2, https://matplotlib.org/</dc:title>
     </cc:Agent>
    </dc:creator>
   </cc:Work>
  </rdf:RDF>
 </metadata>
 <defs>
  <style type="text/css">*{stroke-linejoin: round; stroke-linecap: butt}</style>
 </defs>
 <g id="figure_1">
  <g id="patch_1">
   <path d="M 0 365.54875 
L 675.923125 365.54875 
L 675.923125 -0 
L 0 -0 
z
" style="fill: #ffffff"/>
  </g>
  <g id="axes_1">
   <g id="patch_2">
    <path d="M 92.490625 308.63625 
L 650.490625 308.63625 
L 650.490625 31.43625 
L 92.490625 31.43625 
z
" style="fill: #ffffff"/>
   </g>
   <g id="matplotlib.axis_1">
    <g id="xtick_1">
     <g id="line2d_1">
      <defs>
       <path id="m64962919ac" d="M 0 0 
L 0 3.5 
" style="stroke: #000000; stroke-width: 0.8"/>
      </defs>
      <g>
       <use xlink:href="#m64962919ac" x="117.854261" y="308.63625" style="stroke: #000000; stroke-width: 0.8"/>
      </g>
     </g>
     <g id="text_1">
      <!-- 0 -->
      <g transform="translate(111.491761 330.833125) scale(0.2 -0.2)">
       <defs>
        <path id="DejaVuSans-30" d="M 2034 4250 
Q 1547 4250 1301 3770 
Q 1056 3291 1056 2328 
Q 1056 1369 1301 889 
Q 1547 409 2034 409 
Q 2525 409 2770 889 
Q 3016 1369 3016 2328 
Q 3016 3291 2770 3770 
Q 2525 4250 2034 4250 
z
M 2034 4750 
Q 2819 4750 3233 4129 
Q 3647 3509 3647 2328 
Q 3647 1150 3233 529 
Q 2819 -91 2034 -91 
Q 1250 -91 836 529 
Q 422 1150 422 2328 
Q 422 3509 836 4129 
Q 1250 4750 2034 4750 
z
" transform="scale(0.015625)"/>
       </defs>
       <use xlink:href="#DejaVuSans-30"/>
      </g>
     </g>
    </g>
    <g id="xtick_2">
     <g id="line2d_2">
      <g>
       <use xlink:href="#m64962919ac" x="190.321794" y="308.63625" style="stroke: #000000; stroke-width: 0.8"/>
      </g>
     </g>
     <g id="text_2">
      <!-- 200 -->
      <g transform="translate(171.234294 330.833125) scale(0.2 -0.2)">
       <defs>
        <path id="DejaVuSans-32" d="M 1228 531 
L 3431 531 
L 3431 0 
L 469 0 
L 469 531 
Q 828 903 1448 1529 
Q 2069 2156 2228 2338 
Q 2531 2678 2651 2914 
Q 2772 3150 2772 3378 
Q 2772 3750 2511 3984 
Q 2250 4219 1831 4219 
Q 1534 4219 1204 4116 
Q 875 4013 500 3803 
L 500 4441 
Q 881 4594 1212 4672 
Q 1544 4750 1819 4750 
Q 2544 4750 2975 4387 
Q 3406 4025 3406 3419 
Q 3406 3131 3298 2873 
Q 3191 2616 2906 2266 
Q 2828 2175 2409 1742 
Q 1991 1309 1228 531 
z
" transform="scale(0.015625)"/>
       </defs>
       <use xlink:href="#DejaVuSans-32"/>
       <use xlink:href="#DejaVuSans-30" x="63.623047"/>
       <use xlink:href="#DejaVuSans-30" x="127.246094"/>
      </g>
     </g>
    </g>
    <g id="xtick_3">
     <g id="line2d_3">
      <g>
       <use xlink:href="#m64962919ac" x="262.789326" y="308.63625" style="stroke: #000000; stroke-width: 0.8"/>
      </g>
     </g>
     <g id="text_3">
      <!-- 400 -->
      <g transform="translate(243.701826 330.833125) scale(0.2 -0.2)">
       <defs>
        <path id="DejaVuSans-34" d="M 2419 4116 
L 825 1625 
L 2419 1625 
L 2419 4116 
z
M 2253 4666 
L 3047 4666 
L 3047 1625 
L 3713 1625 
L 3713 1100 
L 3047 1100 
L 3047 0 
L 2419 0 
L 2419 1100 
L 313 1100 
L 313 1709 
L 2253 4666 
z
" transform="scale(0.015625)"/>
       </defs>
       <use xlink:href="#DejaVuSans-34"/>
       <use xlink:href="#DejaVuSans-30" x="63.623047"/>
       <use xlink:href="#DejaVuSans-30" x="127.246094"/>
      </g>
     </g>
    </g>
    <g id="xtick_4">
     <g id="line2d_4">
      <g>
       <use xlink:href="#m64962919ac" x="335.256859" y="308.63625" style="stroke: #000000; stroke-width: 0.8"/>
      </g>
     </g>
     <g id="text_4">
      <!-- 600 -->
      <g transform="translate(316.169359 330.833125) scale(0.2 -0.2)">
       <defs>
        <path id="DejaVuSans-36" d="M 2113 2584 
Q 1688 2584 1439 2293 
Q 1191 2003 1191 1497 
Q 1191 994 1439 701 
Q 1688 409 2113 409 
Q 2538 409 2786 701 
Q 3034 994 3034 1497 
Q 3034 2003 2786 2293 
Q 2538 2584 2113 2584 
z
M 3366 4563 
L 3366 3988 
Q 3128 4100 2886 4159 
Q 2644 4219 2406 4219 
Q 1781 4219 1451 3797 
Q 1122 3375 1075 2522 
Q 1259 2794 1537 2939 
Q 1816 3084 2150 3084 
Q 2853 3084 3261 2657 
Q 3669 2231 3669 1497 
Q 3669 778 3244 343 
Q 2819 -91 2113 -91 
Q 1303 -91 875 529 
Q 447 1150 447 2328 
Q 447 3434 972 4092 
Q 1497 4750 2381 4750 
Q 2619 4750 2861 4703 
Q 3103 4656 3366 4563 
z
" transform="scale(0.015625)"/>
       </defs>
       <use xlink:href="#DejaVuSans-36"/>
       <use xlink:href="#DejaVuSans-30" x="63.623047"/>
       <use xlink:href="#DejaVuSans-30" x="127.246094"/>
      </g>
     </g>
    </g>
    <g id="xtick_5">
     <g id="line2d_5">
      <g>
       <use xlink:href="#m64962919ac" x="407.724391" y="308.63625" style="stroke: #000000; stroke-width: 0.8"/>
      </g>
     </g>
     <g id="text_5">
      <!-- 800 -->
      <g transform="translate(388.636891 330.833125) scale(0.2 -0.2)">
       <defs>
        <path id="DejaVuSans-38" d="M 2034 2216 
Q 1584 2216 1326 1975 
Q 1069 1734 1069 1313 
Q 1069 891 1326 650 
Q 1584 409 2034 409 
Q 2484 409 2743 651 
Q 3003 894 3003 1313 
Q 3003 1734 2745 1975 
Q 2488 2216 2034 2216 
z
M 1403 2484 
Q 997 2584 770 2862 
Q 544 3141 544 3541 
Q 544 4100 942 4425 
Q 1341 4750 2034 4750 
Q 2731 4750 3128 4425 
Q 3525 4100 3525 3541 
Q 3525 3141 3298 2862 
Q 3072 2584 2669 2484 
Q 3125 2378 3379 2068 
Q 3634 1759 3634 1313 
Q 3634 634 3220 271 
Q 2806 -91 2034 -91 
Q 1263 -91 848 271 
Q 434 634 434 1313 
Q 434 1759 690 2068 
Q 947 2378 1403 2484 
z
M 1172 3481 
Q 1172 3119 1398 2916 
Q 1625 2713 2034 2713 
Q 2441 2713 2670 2916 
Q 2900 3119 2900 3481 
Q 2900 3844 2670 4047 
Q 2441 4250 2034 4250 
Q 1625 4250 1398 4047 
Q 1172 3844 1172 3481 
z
" transform="scale(0.015625)"/>
       </defs>
       <use xlink:href="#DejaVuSans-38"/>
       <use xlink:href="#DejaVuSans-30" x="63.623047"/>
       <use xlink:href="#DejaVuSans-30" x="127.246094"/>
      </g>
     </g>
    </g>
    <g id="xtick_6">
     <g id="line2d_6">
      <g>
       <use xlink:href="#m64962919ac" x="480.191924" y="308.63625" style="stroke: #000000; stroke-width: 0.8"/>
      </g>
     </g>
     <g id="text_6">
      <!-- 1000 -->
      <g transform="translate(454.741924 330.833125) scale(0.2 -0.2)">
       <defs>
        <path id="DejaVuSans-31" d="M 794 531 
L 1825 531 
L 1825 4091 
L 703 3866 
L 703 4441 
L 1819 4666 
L 2450 4666 
L 2450 531 
L 3481 531 
L 3481 0 
L 794 0 
L 794 531 
z
" transform="scale(0.015625)"/>
       </defs>
       <use xlink:href="#DejaVuSans-31"/>
       <use xlink:href="#DejaVuSans-30" x="63.623047"/>
       <use xlink:href="#DejaVuSans-30" x="127.246094"/>
       <use xlink:href="#DejaVuSans-30" x="190.869141"/>
      </g>
     </g>
    </g>
    <g id="xtick_7">
     <g id="line2d_7">
      <g>
       <use xlink:href="#m64962919ac" x="552.659456" y="308.63625" style="stroke: #000000; stroke-width: 0.8"/>
      </g>
     </g>
     <g id="text_7">
      <!-- 1200 -->
      <g transform="translate(527.209456 330.833125) scale(0.2 -0.2)">
       <use xlink:href="#DejaVuSans-31"/>
       <use xlink:href="#DejaVuSans-32" x="63.623047"/>
       <use xlink:href="#DejaVuSans-30" x="127.246094"/>
       <use xlink:href="#DejaVuSans-30" x="190.869141"/>
      </g>
     </g>
    </g>
    <g id="xtick_8">
     <g id="line2d_8">
      <g>
       <use xlink:href="#m64962919ac" x="625.126989" y="308.63625" style="stroke: #000000; stroke-width: 0.8"/>
      </g>
     </g>
     <g id="text_8">
      <!-- 1400 -->
      <g transform="translate(599.676989 330.833125) scale(0.2 -0.2)">
       <use xlink:href="#DejaVuSans-31"/>
       <use xlink:href="#DejaVuSans-34" x="63.623047"/>
       <use xlink:href="#DejaVuSans-30" x="127.246094"/>
       <use xlink:href="#DejaVuSans-30" x="190.869141"/>
      </g>
     </g>
    </g>
    <g id="text_9">
     <!-- iterations -->
     <g transform="translate(324.035938 354.189375) scale(0.2 -0.2)">
      <defs>
       <path id="DejaVuSans-69" d="M 603 3500 
L 1178 3500 
L 1178 0 
L 603 0 
L 603 3500 
z
M 603 4863 
L 1178 4863 
L 1178 4134 
L 603 4134 
L 603 4863 
z
" transform="scale(0.015625)"/>
       <path id="DejaVuSans-74" d="M 1172 4494 
L 1172 3500 
L 2356 3500 
L 2356 3053 
L 1172 3053 
L 1172 1153 
Q 1172 725 1289 603 
Q 1406 481 1766 481 
L 2356 481 
L 2356 0 
L 1766 0 
Q 1100 0 847 248 
Q 594 497 594 1153 
L 594 3053 
L 172 3053 
L 172 3500 
L 594 3500 
L 594 4494 
L 1172 4494 
z
" transform="scale(0.015625)"/>
       <path id="DejaVuSans-65" d="M 3597 1894 
L 3597 1613 
L 953 1613 
Q 991 1019 1311 708 
Q 1631 397 2203 397 
Q 2534 397 2845 478 
Q 3156 559 3463 722 
L 3463 178 
Q 3153 47 2828 -22 
Q 2503 -91 2169 -91 
Q 1331 -91 842 396 
Q 353 884 353 1716 
Q 353 2575 817 3079 
Q 1281 3584 2069 3584 
Q 2775 3584 3186 3129 
Q 3597 2675 3597 1894 
z
M 3022 2063 
Q 3016 2534 2758 2815 
Q 2500 3097 2075 3097 
Q 1594 3097 1305 2825 
Q 1016 2553 972 2059 
L 3022 2063 
z
" transform="scale(0.015625)"/>
       <path id="DejaVuSans-72" d="M 2631 2963 
Q 2534 3019 2420 3045 
Q 2306 3072 2169 3072 
Q 1681 3072 1420 2755 
Q 1159 2438 1159 1844 
L 1159 0 
L 581 0 
L 581 3500 
L 1159 3500 
L 1159 2956 
Q 1341 3275 1631 3429 
Q 1922 3584 2338 3584 
Q 2397 3584 2469 3576 
Q 2541 3569 2628 3553 
L 2631 2963 
z
" transform="scale(0.015625)"/>
       <path id="DejaVuSans-61" d="M 2194 1759 
Q 1497 1759 1228 1600 
Q 959 1441 959 1056 
Q 959 750 1161 570 
Q 1363 391 1709 391 
Q 2188 391 2477 730 
Q 2766 1069 2766 1631 
L 2766 1759 
L 2194 1759 
z
M 3341 1997 
L 3341 0 
L 2766 0 
L 2766 531 
Q 2569 213 2275 61 
Q 1981 -91 1556 -91 
Q 1019 -91 701 211 
Q 384 513 384 1019 
Q 384 1609 779 1909 
Q 1175 2209 1959 2209 
L 2766 2209 
L 2766 2266 
Q 2766 2663 2505 2880 
Q 2244 3097 1772 3097 
Q 1472 3097 1187 3025 
Q 903 2953 641 2809 
L 641 3341 
Q 956 3463 1253 3523 
Q 1550 3584 1831 3584 
Q 2591 3584 2966 3190 
Q 3341 2797 3341 1997 
z
" transform="scale(0.015625)"/>
       <path id="DejaVuSans-6f" d="M 1959 3097 
Q 1497 3097 1228 2736 
Q 959 2375 959 1747 
Q 959 1119 1226 758 
Q 1494 397 1959 397 
Q 2419 397 2687 759 
Q 2956 1122 2956 1747 
Q 2956 2369 2687 2733 
Q 2419 3097 1959 3097 
z
M 1959 3584 
Q 2709 3584 3137 3096 
Q 3566 2609 3566 1747 
Q 3566 888 3137 398 
Q 2709 -91 1959 -91 
Q 1206 -91 779 398 
Q 353 888 353 1747 
Q 353 2609 779 3096 
Q 1206 3584 1959 3584 
z
" transform="scale(0.015625)"/>
       <path id="DejaVuSans-6e" d="M 3513 2113 
L 3513 0 
L 2938 0 
L 2938 2094 
Q 2938 2591 2744 2837 
Q 2550 3084 2163 3084 
Q 1697 3084 1428 2787 
Q 1159 2491 1159 1978 
L 1159 0 
L 581 0 
L 581 3500 
L 1159 3500 
L 1159 2956 
Q 1366 3272 1645 3428 
Q 1925 3584 2291 3584 
Q 2894 3584 3203 3211 
Q 3513 2838 3513 2113 
z
" transform="scale(0.015625)"/>
       <path id="DejaVuSans-73" d="M 2834 3397 
L 2834 2853 
Q 2591 2978 2328 3040 
Q 2066 3103 1784 3103 
Q 1356 3103 1142 2972 
Q 928 2841 928 2578 
Q 928 2378 1081 2264 
Q 1234 2150 1697 2047 
L 1894 2003 
Q 2506 1872 2764 1633 
Q 3022 1394 3022 966 
Q 3022 478 2636 193 
Q 2250 -91 1575 -91 
Q 1294 -91 989 -36 
Q 684 19 347 128 
L 347 722 
Q 666 556 975 473 
Q 1284 391 1588 391 
Q 1994 391 2212 530 
Q 2431 669 2431 922 
Q 2431 1156 2273 1281 
Q 2116 1406 1581 1522 
L 1381 1569 
Q 847 1681 609 1914 
Q 372 2147 372 2553 
Q 372 3047 722 3315 
Q 1072 3584 1716 3584 
Q 2034 3584 2315 3537 
Q 2597 3491 2834 3397 
z
" transform="scale(0.015625)"/>
      </defs>
      <use xlink:href="#DejaVuSans-69"/>
      <use xlink:href="#DejaVuSans-74" x="27.783203"/>
      <use xlink:href="#DejaVuSans-65" x="66.992188"/>
      <use xlink:href="#DejaVuSans-72" x="128.515625"/>
      <use xlink:href="#DejaVuSans-61" x="169.628906"/>
      <use xlink:href="#DejaVuSans-74" x="230.908203"/>
      <use xlink:href="#DejaVuSans-69" x="270.117188"/>
      <use xlink:href="#DejaVuSans-6f" x="297.900391"/>
      <use xlink:href="#DejaVuSans-6e" x="359.082031"/>
      <use xlink:href="#DejaVuSans-73" x="422.460938"/>
     </g>
    </g>
   </g>
   <g id="matplotlib.axis_2">
    <g id="ytick_1">
     <g id="line2d_9">
      <defs>
       <path id="m772b524164" d="M 0 0 
L -3.5 0 
" style="stroke: #000000; stroke-width: 0.8"/>
      </defs>
      <g>
       <use xlink:href="#m772b524164" x="92.490625" y="308.301222" style="stroke: #000000; stroke-width: 0.8"/>
      </g>
     </g>
     <g id="text_10">
      <!-- −400 -->
      <g transform="translate(30.55625 315.89966) scale(0.2 -0.2)">
       <defs>
        <path id="DejaVuSans-2212" d="M 678 2272 
L 4684 2272 
L 4684 1741 
L 678 1741 
L 678 2272 
z
" transform="scale(0.015625)"/>
       </defs>
       <use xlink:href="#DejaVuSans-2212"/>
       <use xlink:href="#DejaVuSans-34" x="83.789062"/>
       <use xlink:href="#DejaVuSans-30" x="147.412109"/>
       <use xlink:href="#DejaVuSans-30" x="211.035156"/>
      </g>
     </g>
    </g>
    <g id="ytick_2">
     <g id="line2d_10">
      <g>
       <use xlink:href="#m772b524164" x="92.490625" y="216.520244" style="stroke: #000000; stroke-width: 0.8"/>
      </g>
     </g>
     <g id="text_11">
      <!-- −200 -->
      <g transform="translate(30.55625 224.118682) scale(0.2 -0.2)">
       <use xlink:href="#DejaVuSans-2212"/>
       <use xlink:href="#DejaVuSans-32" x="83.789062"/>
       <use xlink:href="#DejaVuSans-30" x="147.412109"/>
       <use xlink:href="#DejaVuSans-30" x="211.035156"/>
      </g>
     </g>
    </g>
    <g id="ytick_3">
     <g id="line2d_11">
      <g>
       <use xlink:href="#m772b524164" x="92.490625" y="124.739266" style="stroke: #000000; stroke-width: 0.8"/>
      </g>
     </g>
     <g id="text_12">
      <!-- 0 -->
      <g transform="translate(72.765625 132.337703) scale(0.2 -0.2)">
       <use xlink:href="#DejaVuSans-30"/>
      </g>
     </g>
    </g>
    <g id="ytick_4">
     <g id="line2d_12">
      <g>
       <use xlink:href="#m772b524164" x="92.490625" y="32.958288" style="stroke: #000000; stroke-width: 0.8"/>
      </g>
     </g>
     <g id="text_13">
      <!-- 200 -->
      <g transform="translate(47.315625 40.556725) scale(0.2 -0.2)">
       <use xlink:href="#DejaVuSans-32"/>
       <use xlink:href="#DejaVuSans-30" x="63.623047"/>
       <use xlink:href="#DejaVuSans-30" x="127.246094"/>
      </g>
     </g>
    </g>
    <g id="text_14">
     <!-- Loss -->
     <g transform="translate(22.396875 191.970625) rotate(-90) scale(0.2 -0.2)">
      <defs>
       <path id="DejaVuSans-4c" d="M 628 4666 
L 1259 4666 
L 1259 531 
L 3531 531 
L 3531 0 
L 628 0 
L 628 4666 
z
" transform="scale(0.015625)"/>
      </defs>
      <use xlink:href="#DejaVuSans-4c"/>
      <use xlink:href="#DejaVuSans-6f" x="53.962891"/>
      <use xlink:href="#DejaVuSans-73" x="115.144531"/>
      <use xlink:href="#DejaVuSans-73" x="167.244141"/>
     </g>
    </g>
   </g>
   <g id="line2d_13">
    <path d="M 117.854261 68.010133 
L 118.216599 44.03625 
L 118.578937 82.894351 
L 118.941274 135.352713 
L 119.303612 149.038488 
L 119.66595 131.291508 
L 120.028287 102.480738 
L 120.390625 114.663802 
L 120.752963 109.036371 
L 121.1153 138.147454 
L 121.477638 138.134175 
L 122.202313 115.734088 
L 122.564651 94.696244 
L 123.289326 139.285864 
L 123.651664 148.794628 
L 124.376339 156.877753 
L 124.738677 83.249261 
L 125.101015 75.174256 
L 125.463352 90.472575 
L 125.82569 116.457012 
L 126.188028 96.256189 
L 126.550365 94.259751 
L 126.912703 95.075452 
L 127.275041 105.7445 
L 127.637378 103.501109 
L 127.999716 98.938048 
L 128.362054 98.781496 
L 128.724391 115.658893 
L 129.086729 104.793282 
L 129.449067 107.674873 
L 129.811404 115.096063 
L 130.173742 112.159413 
L 130.898417 104.28473 
L 131.260755 96.706982 
L 131.623093 93.680446 
L 131.98543 98.193758 
L 132.347768 106.085946 
L 132.710106 105.036287 
L 133.072443 102.32328 
L 133.434781 103.945881 
L 133.797119 99.317411 
L 134.159456 110.564882 
L 134.521794 112.307272 
L 134.884131 111.665537 
L 135.246469 108.167608 
L 135.608807 111.994753 
L 135.971144 117.502876 
L 136.333482 119.774341 
L 136.69582 119.367335 
L 137.058157 113.051816 
L 137.420495 123.794414 
L 137.782833 123.121725 
L 138.14517 116.751972 
L 138.507508 119.486809 
L 138.869846 125.7908 
L 139.232183 120.97786 
L 139.594521 122.459209 
L 139.956859 119.601567 
L 140.319196 123.368147 
L 140.681534 125.26741 
L 141.043872 126.254064 
L 141.768547 123.83292 
L 142.130885 125.066543 
L 142.493222 124.405088 
L 142.85556 124.342819 
L 143.217898 129.684678 
L 143.942573 122.440892 
L 144.304911 125.291613 
L 144.667248 126.638633 
L 145.029586 127.489029 
L 145.391924 124.104561 
L 145.754261 127.006761 
L 146.116599 124.634792 
L 146.478937 130.008476 
L 146.841274 132.148012 
L 147.203612 129.332871 
L 147.56595 130.19862 
L 147.928287 128.532356 
L 148.290625 130.615072 
L 148.652963 129.75035 
L 149.0153 131.974644 
L 149.377638 133.042215 
L 149.739976 130.869486 
L 150.102313 131.244071 
L 150.826989 129.485777 
L 151.189326 131.902921 
L 151.551664 130.300497 
L 151.914002 132.787354 
L 152.276339 130.1042 
L 152.638677 132.296661 
L 153.001015 128.828173 
L 153.72569 133.624985 
L 154.088028 133.67938 
L 154.450365 132.890623 
L 154.812703 131.166154 
L 155.175041 130.029175 
L 155.537378 136.267329 
L 155.899716 133.171776 
L 156.262054 131.366796 
L 156.624391 131.143967 
L 156.986729 134.254403 
L 157.349067 133.153225 
L 157.711404 135.194366 
L 158.073742 132.960254 
L 158.798417 131.082405 
L 159.160755 132.584999 
L 159.523093 133.28086 
L 159.88543 131.34064 
L 160.247768 128.753412 
L 160.610106 129.527871 
L 160.972443 133.657564 
L 161.334781 133.308306 
L 161.697119 134.759946 
L 162.421794 132.202234 
L 162.784131 132.039851 
L 163.508807 128.292917 
L 163.871144 131.624082 
L 164.233482 132.367101 
L 164.59582 133.574511 
L 164.958157 133.467695 
L 165.320495 132.013518 
L 165.682833 133.775036 
L 166.407508 135.816838 
L 166.769846 134.15553 
L 167.132183 133.039205 
L 167.494521 132.365518 
L 167.856859 130.732202 
L 168.219196 130.422276 
L 168.943872 131.352335 
L 169.306209 130.397482 
L 169.668547 132.385544 
L 170.030885 133.44874 
L 170.393222 130.621022 
L 170.75556 129.915593 
L 171.117898 130.780378 
L 171.480235 130.366748 
L 171.842573 133.018114 
L 172.204911 129.699722 
L 172.567248 128.315437 
L 172.929586 131.243071 
L 173.291924 129.040349 
L 173.654261 129.159144 
L 174.016599 131.657577 
L 174.378937 130.8775 
L 174.741274 132.068264 
L 175.46595 129.381879 
L 175.828287 131.489051 
L 176.190625 132.135005 
L 176.552963 129.520044 
L 176.9153 128.526529 
L 177.277638 128.62714 
L 177.639976 129.507322 
L 178.002313 130.753813 
L 178.364651 131.148931 
L 178.726989 130.542598 
L 179.089326 130.694105 
L 179.451664 129.90088 
L 179.814002 130.887488 
L 180.176339 130.639837 
L 180.538677 129.355283 
L 180.901015 130.364738 
L 181.263352 132.129378 
L 181.62569 131.451921 
L 181.988028 133.778023 
L 182.350365 132.793608 
L 182.712703 132.710615 
L 183.075041 130.760632 
L 183.437378 131.242131 
L 183.799716 132.939387 
L 184.162054 133.68315 
L 184.524391 132.669464 
L 185.249067 132.445423 
L 185.611404 132.99424 
L 185.973742 133.06021 
L 186.33608 133.884776 
L 186.698417 132.891875 
L 187.060755 133.233263 
L 187.423093 133.746225 
L 187.78543 133.738837 
L 188.147768 134.525428 
L 188.510106 135.704528 
L 188.872443 132.744017 
L 189.234781 135.219024 
L 189.597119 135.591216 
L 189.959456 136.432579 
L 190.321794 132.965228 
L 190.684131 134.074961 
L 191.046469 133.540772 
L 191.408807 133.421911 
L 191.771144 135.236827 
L 192.858157 131.970848 
L 193.220495 134.240862 
L 193.582833 134.068398 
L 193.94517 134.936951 
L 194.307508 132.84045 
L 194.669846 131.756121 
L 195.032183 131.859176 
L 195.394521 132.698611 
L 195.756859 132.988609 
L 196.119196 131.533742 
L 196.481534 131.9431 
L 196.843872 132.900108 
L 197.206209 132.248788 
L 197.568547 134.623461 
L 197.930885 132.871426 
L 198.293222 133.638704 
L 198.65556 133.327539 
L 199.017898 131.803134 
L 199.380235 132.483812 
L 199.742573 131.304209 
L 200.104911 132.833603 
L 200.467248 131.565009 
L 200.829586 132.345541 
L 201.191924 132.763423 
L 201.554261 132.03401 
L 201.916599 132.010279 
L 202.278937 131.256279 
L 202.641274 133.787578 
L 203.003612 130.493204 
L 203.36595 130.135762 
L 203.728287 131.669798 
L 204.090625 129.935866 
L 204.452963 131.293905 
L 204.8153 131.094286 
L 205.539976 132.187449 
L 206.264651 131.860606 
L 206.626989 132.639894 
L 207.351664 129.529896 
L 207.714002 132.111943 
L 208.438677 130.58016 
L 208.801015 130.407129 
L 209.163352 130.956694 
L 209.52569 129.941585 
L 209.888028 129.765758 
L 210.250365 130.065677 
L 210.612703 130.203255 
L 210.975041 129.980455 
L 211.337378 130.627125 
L 211.699716 129.133283 
L 212.062054 129.835422 
L 212.786729 129.364363 
L 213.149067 130.856948 
L 213.511404 129.246312 
L 213.873742 129.706363 
L 214.23608 130.420866 
L 214.598417 129.545153 
L 214.960755 130.94038 
L 215.323093 129.371043 
L 215.68543 130.738 
L 216.047768 128.822413 
L 216.410106 130.609681 
L 216.772443 130.102713 
L 217.497119 128.586713 
L 217.859456 129.331779 
L 218.584131 130.013815 
L 218.946469 130.004582 
L 219.308807 129.563682 
L 219.671144 128.277651 
L 220.033482 129.132506 
L 220.39582 129.444018 
L 221.120495 131.421887 
L 221.84517 129.226555 
L 222.207508 128.386728 
L 222.569846 130.002226 
L 222.932183 128.766129 
L 223.294521 129.727915 
L 223.656859 130.295393 
L 224.381534 130.22921 
L 224.743872 129.990359 
L 225.106209 130.146286 
L 225.468547 130.742029 
L 225.830885 130.232945 
L 226.193222 130.335787 
L 226.55556 130.008628 
L 226.917898 129.832388 
L 227.280235 129.938118 
L 227.642573 130.276968 
L 228.004911 129.159825 
L 228.367248 128.427935 
L 228.729586 128.815487 
L 229.091924 128.502613 
L 229.454261 130.018413 
L 229.816599 128.712991 
L 230.178937 129.533333 
L 230.541274 129.687427 
L 230.903612 128.563167 
L 231.26595 128.720108 
L 231.628287 129.560897 
L 231.990625 129.261363 
L 232.352963 129.333281 
L 232.7153 130.124582 
L 233.077638 128.725848 
L 233.802313 128.192742 
L 234.526989 128.481323 
L 234.889326 129.22743 
L 235.251664 129.363656 
L 235.614002 129.292759 
L 235.976339 128.9788 
L 236.701015 128.90032 
L 237.063352 130.108556 
L 237.42569 129.085007 
L 238.150365 128.25835 
L 238.512703 128.582519 
L 238.875041 128.639878 
L 239.237378 127.829148 
L 239.962054 127.621747 
L 240.324391 129.027438 
L 240.686729 128.3083 
L 241.049067 129.060965 
L 241.411404 128.862738 
L 241.773742 128.027623 
L 242.13608 127.590238 
L 242.498417 127.417529 
L 242.860755 128.046032 
L 243.223093 127.509991 
L 243.58543 127.816074 
L 243.947768 127.724732 
L 244.310106 128.205471 
L 244.672443 127.909681 
L 245.034781 128.495895 
L 245.397119 127.306562 
L 245.759456 127.660654 
L 246.121794 127.074124 
L 246.484131 127.464054 
L 246.846469 127.567987 
L 247.208807 127.49324 
L 247.933482 128.934154 
L 248.658157 127.494717 
L 249.020495 127.974081 
L 249.382833 127.963539 
L 249.74517 127.433418 
L 250.107508 128.445598 
L 250.469846 128.005912 
L 251.194521 127.934451 
L 251.556859 127.502908 
L 251.919196 128.276474 
L 252.281534 127.592299 
L 252.643872 127.820724 
L 253.006209 126.41959 
L 253.368547 127.184355 
L 253.730885 128.350894 
L 254.45556 126.478268 
L 254.817898 127.287549 
L 255.542573 127.097101 
L 255.904911 127.943905 
L 256.267248 127.522738 
L 256.629586 127.369173 
L 256.991924 128.15539 
L 257.354261 127.606288 
L 257.716599 128.470277 
L 258.078937 127.53738 
L 258.441274 128.0492 
L 258.803612 127.705244 
L 259.528287 128.758381 
L 259.890625 128.176185 
L 260.252963 128.949204 
L 260.6153 127.88594 
L 260.977638 128.758213 
L 261.702313 127.763718 
L 262.064651 128.040503 
L 262.426989 127.818379 
L 262.789326 128.539413 
L 263.151664 127.909191 
L 263.514002 127.620119 
L 263.876339 128.215233 
L 264.238677 127.871823 
L 264.601015 128.730731 
L 264.963352 127.830667 
L 265.32569 127.973207 
L 265.688028 128.302131 
L 266.050365 128.874641 
L 266.412703 128.730779 
L 266.775041 127.936563 
L 267.137378 128.147492 
L 268.224391 126.865166 
L 268.586729 126.205635 
L 268.949067 127.195389 
L 269.311404 127.405704 
L 269.673742 125.752486 
L 270.03608 127.181242 
L 270.398417 127.621653 
L 270.760755 128.285453 
L 271.48543 127.952824 
L 271.847768 127.320872 
L 272.210106 128.138393 
L 272.572443 127.595705 
L 272.934781 127.777125 
L 273.297119 127.076334 
L 273.659456 128.23788 
L 274.021794 127.355098 
L 274.384131 127.310545 
L 274.746469 127.383422 
L 275.108807 128.051083 
L 275.471144 127.910596 
L 275.833482 127.191374 
L 276.19582 127.862572 
L 276.558157 127.925051 
L 276.920495 128.140637 
L 277.282833 126.966591 
L 277.64517 127.601789 
L 278.007508 127.303259 
L 278.369846 128.020273 
L 278.732183 127.395705 
L 279.456859 127.549729 
L 279.819196 127.240643 
L 280.181534 127.562493 
L 280.543872 127.469046 
L 280.906209 127.017582 
L 281.268547 126.329977 
L 281.630885 123.594003 
L 281.993222 125.641018 
L 282.35556 126.194417 
L 282.717898 127.565289 
L 283.080235 125.926257 
L 283.442573 126.83942 
L 284.167248 127.662776 
L 284.529586 127.0441 
L 284.891924 127.646191 
L 285.254261 126.217146 
L 285.616599 127.246878 
L 285.978937 126.968989 
L 286.341274 127.389283 
L 286.703612 127.366595 
L 287.06595 126.909622 
L 287.428287 126.920462 
L 287.790625 127.869458 
L 288.152963 127.673739 
L 288.5153 128.140586 
L 288.877638 128.296592 
L 289.239976 127.668539 
L 289.602313 127.522494 
L 289.964651 127.864583 
L 290.326989 128.588431 
L 290.689326 128.132745 
L 291.051664 128.535777 
L 291.776339 126.453202 
L 292.501015 127.878267 
L 292.863352 127.473338 
L 293.588028 127.994517 
L 293.950365 127.785176 
L 294.312703 127.876873 
L 294.675041 128.483396 
L 295.037378 128.793588 
L 295.399716 128.220969 
L 295.762054 127.947937 
L 296.124391 128.312831 
L 296.486729 128.854793 
L 296.849067 128.997201 
L 297.211404 129.420327 
L 297.573742 127.991662 
L 297.93608 128.745344 
L 298.298417 128.776292 
L 299.023093 128.018685 
L 299.747768 127.365727 
L 300.110106 128.478041 
L 300.472443 127.867424 
L 300.834781 128.945239 
L 301.197119 127.881041 
L 301.559456 127.1771 
L 301.921794 128.168141 
L 302.284131 126.793318 
L 303.008807 128.793073 
L 303.371144 128.765525 
L 303.733482 127.131237 
L 304.09582 128.101187 
L 304.820495 127.293432 
L 305.182833 127.158085 
L 305.54517 128.714304 
L 305.907508 128.370978 
L 306.269846 128.486902 
L 306.632183 128.947382 
L 306.994521 128.838007 
L 307.356859 128.260208 
L 307.719196 127.950895 
L 308.081534 126.283135 
L 308.443872 128.140022 
L 309.168547 126.207577 
L 309.530885 127.539877 
L 309.893222 127.357292 
L 310.617898 126.763006 
L 310.980235 127.259967 
L 311.342573 126.996985 
L 311.704911 126.529472 
L 312.429586 127.412347 
L 312.791924 127.049697 
L 313.154261 126.292813 
L 313.516599 126.895689 
L 313.878937 126.452249 
L 314.241274 126.552457 
L 314.603612 125.732269 
L 314.96595 127.180789 
L 315.328287 126.470533 
L 315.690625 128.10307 
L 316.052963 127.623482 
L 316.4153 126.756451 
L 316.777638 126.674386 
L 317.139976 126.430197 
L 317.502313 126.382953 
L 317.864651 126.125891 
L 318.226989 126.832502 
L 318.589326 126.755911 
L 318.951664 127.53797 
L 319.314002 126.623237 
L 319.676339 127.500371 
L 320.038677 127.788318 
L 320.401015 127.217003 
L 320.763352 125.721419 
L 321.12569 127.374596 
L 321.488028 126.931644 
L 321.850365 126.74159 
L 322.212703 127.096731 
L 322.575041 126.733166 
L 322.937378 126.862768 
L 323.299716 127.330305 
L 323.662054 126.593448 
L 324.024391 127.082128 
L 324.386729 126.241215 
L 324.749067 126.633846 
L 325.111404 126.147503 
L 325.473742 126.651037 
L 325.83608 127.735513 
L 326.560755 127.235319 
L 326.923093 126.961516 
L 327.28543 127.437199 
L 327.647768 127.198821 
L 328.010106 128.460895 
L 328.734781 127.468841 
L 329.459456 126.841378 
L 329.821794 128.237104 
L 330.184131 128.194875 
L 330.546469 127.590703 
L 330.908807 128.171441 
L 331.271144 128.288059 
L 331.633482 127.73191 
L 331.99582 125.465954 
L 332.358157 127.135651 
L 332.720495 127.340297 
L 333.082833 127.065755 
L 334.169846 126.838191 
L 334.532183 127.52029 
L 334.894521 127.098561 
L 335.256859 126.969432 
L 335.619196 126.098803 
L 335.981534 126.906418 
L 336.343872 127.215905 
L 336.706209 127.302956 
L 337.068547 127.894747 
L 337.430885 127.955347 
L 337.793222 127.820972 
L 338.517898 127.888876 
L 338.880235 128.066486 
L 339.242573 128.803499 
L 339.604911 128.845657 
L 339.967248 127.944364 
L 340.329586 127.772268 
L 340.691924 127.404629 
L 341.054261 128.84971 
L 341.416599 128.150776 
L 342.141274 128.344491 
L 342.503612 128.322087 
L 342.86595 128.418924 
L 343.228287 129.027839 
L 343.590625 127.744921 
L 343.952963 128.373087 
L 344.3153 128.703798 
L 344.677638 128.760818 
L 345.039976 128.525646 
L 345.402313 127.503979 
L 345.764651 128.062294 
L 346.489326 128.643735 
L 347.576339 128.131017 
L 347.938677 128.268253 
L 348.301015 128.735457 
L 348.663352 128.723364 
L 349.02569 128.321858 
L 349.388028 128.121742 
L 349.750365 128.456856 
L 350.475041 127.55073 
L 350.837378 128.638946 
L 351.199716 127.979961 
L 351.562054 127.939318 
L 351.924391 128.899886 
L 353.011404 128.486266 
L 353.373742 128.134005 
L 354.098417 128.665262 
L 354.460755 128.103499 
L 354.823093 128.333266 
L 355.18543 128.272072 
L 355.547768 128.749882 
L 355.910106 128.50958 
L 356.997119 128.499473 
L 357.721794 127.554026 
L 358.808807 128.884605 
L 359.171144 127.878574 
L 359.533482 128.530693 
L 359.89582 128.326842 
L 360.258157 127.605462 
L 360.620495 128.513567 
L 360.982833 128.938562 
L 361.707508 128.72805 
L 362.069846 128.386151 
L 362.432183 128.783101 
L 362.794521 128.184901 
L 363.519196 128.133105 
L 364.243872 129.568759 
L 364.606209 129.101744 
L 364.968547 128.148939 
L 365.330885 128.871646 
L 365.693222 128.615969 
L 366.05556 129.793413 
L 366.417898 129.034977 
L 366.780235 128.759412 
L 367.142573 128.825487 
L 367.504911 128.702248 
L 368.229586 128.989234 
L 368.591924 129.501328 
L 368.954261 128.900245 
L 369.316599 128.86146 
L 369.678937 129.53309 
L 370.041274 128.054782 
L 370.403612 129.236677 
L 370.76595 129.465643 
L 371.128287 129.964422 
L 371.490625 128.734684 
L 371.852963 128.215194 
L 372.2153 129.03556 
L 372.577638 128.773163 
L 372.939976 129.047373 
L 373.664651 129.044006 
L 374.026989 129.319321 
L 374.389326 128.563791 
L 374.751664 129.011729 
L 375.114002 128.318426 
L 375.476339 128.286183 
L 375.838677 127.138914 
L 376.201015 128.622457 
L 376.563352 128.504327 
L 376.92569 128.592736 
L 377.288028 128.832187 
L 378.012703 129.037423 
L 378.737378 127.809104 
L 379.099716 128.392742 
L 379.462054 127.990917 
L 379.824391 128.813058 
L 380.186729 128.313435 
L 380.549067 128.162896 
L 380.911404 127.789042 
L 381.273742 128.223701 
L 381.63608 128.43314 
L 381.998417 128.489887 
L 382.360755 128.121951 
L 382.723093 127.979753 
L 383.08543 128.462189 
L 383.447768 128.703921 
L 383.810106 127.683583 
L 384.172443 127.67312 
L 384.534781 128.074475 
L 384.897119 127.454904 
L 385.259456 127.970714 
L 385.621794 129.080553 
L 385.984131 129.154413 
L 386.346469 128.514427 
L 386.708807 129.011695 
L 387.071144 128.909241 
L 387.433482 128.977208 
L 387.79582 128.132629 
L 388.158157 128.556288 
L 388.520495 127.716828 
L 388.882833 128.307662 
L 389.24517 128.415071 
L 389.607508 128.86873 
L 389.969846 129.115289 
L 390.332183 128.582988 
L 390.694521 128.590721 
L 391.419196 128.286928 
L 392.143872 128.424822 
L 392.506209 128.333838 
L 392.868547 128.597987 
L 393.230885 127.948214 
L 393.593222 128.183036 
L 393.95556 128.928406 
L 394.317898 128.505044 
L 394.680235 128.977094 
L 395.042573 127.945485 
L 395.404911 128.972658 
L 395.767248 128.971656 
L 396.129586 128.845404 
L 396.491924 129.12386 
L 396.854261 128.708879 
L 397.216599 128.582957 
L 397.578937 127.836887 
L 397.941274 130.04573 
L 398.303612 128.798843 
L 398.66595 129.143693 
L 399.028287 128.329285 
L 399.390625 129.239804 
L 399.752963 128.930261 
L 400.1153 128.951432 
L 400.477638 129.382906 
L 400.839976 129.070555 
L 401.202313 128.082144 
L 401.564651 128.609262 
L 402.289326 128.725486 
L 402.651664 128.285281 
L 403.014002 128.905435 
L 403.376339 128.931916 
L 403.738677 128.470201 
L 404.101015 128.500942 
L 404.463352 128.307246 
L 405.188028 128.803581 
L 405.550365 128.133226 
L 406.275041 127.877252 
L 406.637378 128.187444 
L 406.999716 128.324657 
L 407.362054 128.133732 
L 407.724391 129.491465 
L 408.086729 128.420976 
L 408.449067 128.626047 
L 408.811404 127.814621 
L 409.53608 128.600698 
L 410.260755 127.53657 
L 410.623093 128.289323 
L 411.347768 127.848374 
L 411.710106 128.013614 
L 412.072443 128.374404 
L 412.434781 128.276493 
L 412.797119 127.726133 
L 414.246469 128.123373 
L 414.608807 128.593274 
L 414.971144 128.025183 
L 415.333482 127.879194 
L 415.69582 127.872547 
L 416.058157 127.585772 
L 417.14517 128.033239 
L 417.507508 127.882367 
L 417.869846 128.339916 
L 418.232183 128.303777 
L 418.594521 127.588442 
L 418.956859 127.78635 
L 419.681534 127.472765 
L 420.043872 128.308491 
L 420.406209 127.703087 
L 420.768547 128.154555 
L 421.130885 128.117919 
L 421.493222 127.952047 
L 421.85556 128.172754 
L 422.217898 128.193837 
L 422.580235 127.598257 
L 422.942573 127.688815 
L 423.304911 127.294305 
L 423.667248 127.750466 
L 424.029586 127.921249 
L 424.391924 127.733347 
L 424.754261 127.694063 
L 425.116599 127.786505 
L 425.478937 128.272949 
L 425.841274 127.79188 
L 426.203612 128.087616 
L 426.56595 127.834081 
L 427.290625 128.306809 
L 428.0153 128.167171 
L 428.377638 127.649578 
L 428.739976 128.319063 
L 429.102313 127.208487 
L 429.464651 127.670107 
L 429.826989 128.719482 
L 430.189326 127.621998 
L 430.551664 128.342651 
L 430.914002 127.951814 
L 431.276339 128.124872 
L 431.638677 128.104059 
L 432.001015 128.446385 
L 432.363352 127.959925 
L 433.088028 128.137055 
L 433.450365 128.542693 
L 434.175041 127.845509 
L 434.537378 128.096267 
L 434.899716 128.485013 
L 435.262054 128.309247 
L 435.624391 127.077541 
L 436.349067 127.773553 
L 437.073742 127.545165 
L 437.43608 128.473183 
L 437.798417 128.18567 
L 438.160755 127.167599 
L 439.247768 127.629923 
L 439.610106 127.983582 
L 439.972443 127.646028 
L 440.334781 128.271904 
L 440.697119 127.599941 
L 441.059456 127.737622 
L 441.421794 127.453109 
L 441.784131 127.813961 
L 442.146469 127.507727 
L 442.508807 128.200919 
L 442.871144 128.335249 
L 443.59582 127.612635 
L 444.320495 127.424422 
L 444.682833 127.572679 
L 445.04517 125.891945 
L 445.407508 127.173782 
L 445.769846 127.84229 
L 446.132183 127.952828 
L 446.856859 127.588948 
L 447.219196 128.086194 
L 447.581534 127.791232 
L 447.943872 127.288656 
L 448.306209 127.075581 
L 449.030885 127.702949 
L 449.393222 127.18889 
L 449.75556 127.915919 
L 450.117898 128.084911 
L 450.480235 127.275617 
L 450.842573 126.949414 
L 451.567248 128.157093 
L 452.291924 127.462313 
L 452.654261 127.990181 
L 453.016599 126.915693 
L 453.378937 127.125149 
L 454.103612 126.893283 
L 454.46595 127.640379 
L 454.828287 127.747758 
L 455.190625 127.703928 
L 455.552963 127.395001 
L 455.9153 126.906893 
L 456.277638 127.338218 
L 456.639976 127.592494 
L 457.002313 127.474913 
L 457.364651 128.158564 
L 458.089326 127.531598 
L 458.451664 127.621877 
L 458.814002 127.910986 
L 459.176339 128.007929 
L 459.901015 127.73232 
L 460.263352 127.46652 
L 460.62569 128.089422 
L 460.988028 127.795202 
L 461.350365 128.47234 
L 461.712703 127.679575 
L 462.075041 127.596604 
L 462.437378 127.763637 
L 462.799716 127.090065 
L 463.524391 127.482469 
L 463.886729 127.251639 
L 464.249067 128.213374 
L 464.611404 127.612115 
L 464.973742 127.494466 
L 465.33608 128.19617 
L 466.060755 127.999238 
L 466.78543 127.48116 
L 467.147768 127.838092 
L 467.510106 127.969765 
L 467.872443 127.679034 
L 468.597119 128.012391 
L 469.321794 127.930562 
L 469.684131 127.672991 
L 470.046469 127.696994 
L 470.408807 128.267994 
L 471.133482 128.452634 
L 471.49582 128.563551 
L 472.582833 128.102766 
L 472.94517 128.409777 
L 473.307508 127.840502 
L 473.669846 128.087208 
L 474.756859 128.496903 
L 475.119196 127.695491 
L 475.481534 127.89008 
L 475.843872 127.845634 
L 476.206209 128.225364 
L 476.568547 128.321429 
L 476.930885 127.718541 
L 477.293222 128.108086 
L 478.017898 127.772109 
L 478.380235 127.695736 
L 479.467248 128.475804 
L 479.829586 127.693832 
L 480.191924 128.277375 
L 480.554261 128.054634 
L 480.916599 127.699902 
L 481.641274 127.697513 
L 482.36595 127.249776 
L 482.728287 127.825069 
L 483.452963 127.047545 
L 483.8153 128.100615 
L 484.177638 126.908696 
L 484.902313 127.965902 
L 485.264651 128.072124 
L 485.626989 127.928944 
L 485.989326 128.081196 
L 486.714002 127.330396 
L 487.076339 127.251411 
L 487.438677 127.555699 
L 487.801015 127.127047 
L 488.163352 127.769072 
L 488.52569 127.279089 
L 488.888028 127.672423 
L 489.250365 127.367881 
L 489.612703 127.344589 
L 489.975041 127.156747 
L 490.337378 127.500759 
L 490.699716 127.564655 
L 491.062054 127.078006 
L 491.786729 127.537489 
L 492.149067 127.75117 
L 492.511404 128.113672 
L 492.873742 127.692191 
L 493.23608 127.492538 
L 493.598417 127.736669 
L 493.960755 127.395651 
L 494.323093 127.238436 
L 494.68543 127.849291 
L 495.047768 127.31017 
L 495.410106 127.920972 
L 496.134781 128.675367 
L 497.221794 127.236561 
L 497.584131 126.894699 
L 497.946469 127.556987 
L 498.308807 127.759698 
L 498.671144 127.041677 
L 499.033482 127.48991 
L 499.39582 126.958709 
L 499.758157 125.827001 
L 500.120495 127.098844 
L 500.482833 127.557037 
L 500.84517 127.071524 
L 501.207508 127.22973 
L 501.932183 126.91431 
L 502.294521 127.55524 
L 502.656859 129.069233 
L 503.019196 127.717443 
L 503.743872 128.541842 
L 504.106209 128.548889 
L 504.468547 128.396757 
L 504.830885 127.394366 
L 505.193222 127.716887 
L 505.55556 127.25978 
L 505.917898 127.431042 
L 506.280235 127.321301 
L 506.642573 128.026349 
L 507.004911 127.820932 
L 507.729586 128.17302 
L 508.091924 127.943062 
L 508.454261 128.49432 
L 509.178937 127.702263 
L 509.541274 128.291246 
L 509.903612 128.103132 
L 510.26595 128.178476 
L 510.628287 127.624702 
L 510.990625 128.316546 
L 511.352963 128.342179 
L 511.7153 128.017746 
L 512.077638 128.074345 
L 512.439976 127.74964 
L 513.526989 127.652277 
L 513.889326 127.220382 
L 514.251664 128.288529 
L 514.976339 127.402581 
L 515.701015 123.871576 
L 516.063352 126.680226 
L 516.42569 128.130099 
L 516.788028 127.744199 
L 517.150365 127.040784 
L 517.512703 126.749992 
L 518.237378 127.715379 
L 518.599716 127.828865 
L 519.324391 126.920697 
L 519.686729 127.91969 
L 520.049067 128.193002 
L 520.411404 127.299768 
L 520.773742 127.504828 
L 521.13608 127.435135 
L 521.498417 127.189371 
L 521.860755 127.73022 
L 522.223093 128.007199 
L 522.58543 127.39641 
L 522.947768 127.337453 
L 523.672443 127.465881 
L 524.034781 127.890897 
L 524.397119 127.582663 
L 524.759456 127.821589 
L 526.208807 127.414752 
L 526.571144 127.682765 
L 526.933482 127.339779 
L 527.29582 127.37472 
L 527.658157 127.24827 
L 528.020495 127.759085 
L 528.382833 127.389256 
L 528.74517 127.923922 
L 529.107508 128.039553 
L 529.469846 127.905366 
L 529.832183 128.788361 
L 530.194521 128.148829 
L 530.556859 128.81063 
L 531.281534 128.183465 
L 531.643872 128.106482 
L 532.368547 128.411687 
L 532.730885 128.340169 
L 533.093222 128.701319 
L 533.817898 128.167492 
L 534.180235 128.671259 
L 534.904911 128.026179 
L 535.629586 127.703185 
L 535.991924 127.975413 
L 536.354261 128.484376 
L 536.716599 128.768287 
L 537.078937 128.676664 
L 537.441274 128.928172 
L 537.803612 127.780946 
L 538.528287 128.691961 
L 539.252963 128.486904 
L 539.6153 129.147189 
L 539.977638 127.697568 
L 540.339976 127.36636 
L 540.702313 127.490537 
L 541.426989 128.456929 
L 541.789326 128.351157 
L 542.151664 127.821503 
L 542.514002 128.440631 
L 542.876339 128.340979 
L 543.238677 127.839542 
L 543.601015 128.183897 
L 543.963352 129.060217 
L 544.32569 128.290644 
L 544.688028 128.277735 
L 545.050365 127.816516 
L 545.412703 128.587264 
L 545.775041 127.712004 
L 546.137378 128.004859 
L 546.499716 127.761841 
L 546.862054 128.279528 
L 547.224391 127.252879 
L 547.586729 127.503452 
L 547.949067 127.943295 
L 548.311404 128.192713 
L 548.673742 127.928758 
L 549.03608 127.880828 
L 549.398417 129.005345 
L 550.123093 128.314704 
L 550.48543 128.335302 
L 550.847768 129.039509 
L 551.210106 128.535691 
L 551.572443 127.711742 
L 551.934781 127.527929 
L 552.297119 128.695724 
L 552.659456 128.391718 
L 553.021794 128.285857 
L 553.384131 127.521842 
L 553.746469 128.146454 
L 554.471144 128.153569 
L 554.833482 127.915116 
L 555.558157 127.82412 
L 555.920495 128.248338 
L 556.282833 127.427978 
L 556.64517 127.806463 
L 557.369846 127.808958 
L 557.732183 128.529429 
L 558.094521 128.409342 
L 558.456859 128.441488 
L 558.819196 127.899427 
L 559.181534 127.574319 
L 559.543872 127.906744 
L 559.906209 127.227745 
L 560.268547 127.370365 
L 560.630885 127.664661 
L 560.993222 127.195707 
L 561.35556 127.622761 
L 561.717898 127.171447 
L 562.080235 127.618761 
L 562.442573 127.396622 
L 562.804911 127.324162 
L 563.529586 128.078178 
L 563.891924 127.275546 
L 564.254261 127.929651 
L 564.616599 128.354406 
L 564.978937 127.521878 
L 565.341274 127.372369 
L 565.703612 127.828269 
L 566.06595 127.796785 
L 566.428287 127.91206 
L 567.5153 127.244399 
L 568.239976 127.895099 
L 568.602313 127.259501 
L 569.326989 127.457416 
L 569.689326 128.246715 
L 570.414002 128.080434 
L 570.776339 128.753653 
L 571.138677 127.414704 
L 571.501015 127.660818 
L 571.863352 127.596838 
L 572.22569 126.233061 
L 572.588028 128.164397 
L 572.950365 129.201337 
L 573.312703 127.821293 
L 573.675041 127.659072 
L 574.037378 127.259164 
L 574.399716 128.498016 
L 574.762054 128.274423 
L 575.486729 128.387314 
L 576.211404 128.0139 
L 576.573742 128.288109 
L 576.93608 128.100486 
L 577.298417 127.543495 
L 577.660755 128.456858 
L 578.023093 128.276029 
L 578.747768 127.376279 
L 579.110106 127.881526 
L 579.472443 127.566609 
L 579.834781 128.504799 
L 580.197119 127.864722 
L 580.559456 127.969611 
L 580.921794 128.192948 
L 581.646469 128.960918 
L 582.008807 127.85642 
L 582.371144 128.530704 
L 583.09582 128.083977 
L 583.458157 128.089811 
L 583.820495 128.486558 
L 584.182833 128.083245 
L 584.54517 128.52183 
L 584.907508 128.587141 
L 585.269846 127.399609 
L 585.632183 128.622225 
L 585.994521 127.814139 
L 586.719196 128.590027 
L 587.443872 127.824774 
L 587.806209 127.855236 
L 588.168547 128.598182 
L 588.530885 128.623991 
L 588.893222 127.687831 
L 589.25556 127.747095 
L 589.617898 127.618251 
L 589.980235 128.141055 
L 590.342573 128.053699 
L 590.704911 128.260007 
L 591.067248 128.237809 
L 591.429586 127.535737 
L 591.791924 127.211983 
L 592.154261 127.965842 
L 592.516599 128.21168 
L 592.878937 127.657311 
L 593.241274 127.617504 
L 593.603612 127.145944 
L 593.96595 127.927584 
L 594.328287 128.00687 
L 594.690625 127.647086 
L 595.052963 127.7914 
L 595.777638 127.757008 
L 596.139976 128.347961 
L 596.502313 127.746569 
L 596.864651 128.747922 
L 597.226989 127.807395 
L 597.589326 127.828644 
L 598.676339 127.345033 
L 599.763352 127.573485 
L 600.12569 127.272746 
L 600.850365 127.486279 
L 601.212703 127.621594 
L 601.575041 127.985695 
L 601.937378 127.000644 
L 602.662054 128.093939 
L 603.024391 127.937176 
L 603.386729 127.594697 
L 603.749067 127.723237 
L 604.111404 127.677483 
L 604.473742 126.356551 
L 604.83608 128.018713 
L 605.198417 127.988109 
L 605.560755 127.585085 
L 605.923093 127.359695 
L 606.28543 127.810998 
L 606.647768 127.604988 
L 607.010106 126.895483 
L 607.372443 127.286613 
L 607.734781 127.132644 
L 608.097119 127.738217 
L 608.459456 127.356705 
L 608.821794 127.557332 
L 609.184131 126.794138 
L 609.546469 126.422708 
L 610.271144 127.416682 
L 610.633482 127.021801 
L 610.99582 126.803318 
L 611.358157 127.887229 
L 611.720495 127.818982 
L 612.082833 127.464524 
L 612.44517 127.516661 
L 612.807508 127.357237 
L 613.169846 127.685198 
L 613.532183 127.127078 
L 614.256859 127.573866 
L 614.619196 126.939082 
L 614.981534 126.933985 
L 615.343872 126.523913 
L 615.706209 127.650705 
L 616.068547 127.933758 
L 616.430885 127.434541 
L 616.793222 127.979045 
L 617.15556 126.357291 
L 617.880235 127.283212 
L 618.604911 127.00033 
L 618.967248 126.706382 
L 619.691924 127.292072 
L 620.054261 127.798313 
L 620.416599 126.374753 
L 620.778937 127.293712 
L 621.141274 126.746382 
L 621.503612 126.585297 
L 622.228287 127.177386 
L 622.590625 126.826336 
L 622.952963 127.075823 
L 623.3153 126.237749 
L 624.039976 127.544276 
L 624.402313 127.545922 
L 624.764651 126.576973 
L 625.126989 127.802719 
L 625.126989 127.802719 
" clip-path="url(#pe284f10df0)" style="fill: none; stroke: #1f77b4; stroke-width: 1.5; stroke-linecap: square"/>
   </g>
   <g id="line2d_14">
    <path d="M 117.854261 272.296377 
L 118.216599 296.03625 
L 118.578937 264.026086 
L 118.941274 207.799987 
L 119.303612 243.066594 
L 119.66595 193.629605 
L 120.028287 187.417065 
L 120.390625 175.612571 
L 120.752963 188.708502 
L 121.1153 182.468813 
L 121.839976 163.200798 
L 122.202313 165.079255 
L 122.564651 164.641227 
L 122.926989 164.583714 
L 123.289326 170.878139 
L 123.651664 192.699071 
L 124.014002 175.336276 
L 124.376339 168.049861 
L 124.738677 151.28019 
L 125.101015 159.248282 
L 125.463352 146.28808 
L 125.82569 140.901759 
L 126.188028 145.551194 
L 126.550365 142.666678 
L 126.912703 143.648375 
L 127.275041 145.606527 
L 127.637378 140.852092 
L 127.999716 145.328446 
L 128.362054 143.822301 
L 128.724391 139.007021 
L 129.086729 137.082641 
L 129.449067 136.292485 
L 129.811404 134.505795 
L 130.173742 136.254305 
L 130.53608 137.319965 
L 130.898417 137.857859 
L 131.260755 137.248942 
L 131.623093 137.370009 
L 131.98543 140.140774 
L 132.347768 136.559143 
L 132.710106 136.20536 
L 133.072443 136.796645 
L 133.434781 135.641941 
L 133.797119 138.298132 
L 134.159456 136.548575 
L 134.521794 138.086089 
L 134.884131 137.093049 
L 135.246469 139.686466 
L 135.608807 134.660049 
L 135.971144 136.760201 
L 136.333482 136.928963 
L 136.69582 137.545384 
L 137.420495 135.145935 
L 138.14517 138.556555 
L 138.507508 138.551237 
L 138.869846 137.30024 
L 139.232183 134.618055 
L 139.594521 136.359067 
L 139.956859 135.329998 
L 140.681534 134.580303 
L 141.043872 133.586949 
L 141.406209 134.311701 
L 141.768547 134.512647 
L 142.130885 134.178027 
L 142.493222 133.276789 
L 142.85556 134.796104 
L 143.217898 135.5698 
L 143.580235 133.398496 
L 143.942573 134.94464 
L 144.667248 136.023794 
L 145.029586 134.271671 
L 145.391924 133.52041 
L 145.754261 134.134421 
L 146.116599 134.354601 
L 146.478937 134.101571 
L 146.841274 134.851017 
L 147.203612 135.281328 
L 147.928287 133.753552 
L 148.290625 134.350299 
L 148.652963 134.197715 
L 149.0153 135.957243 
L 149.377638 133.746004 
L 149.739976 134.598264 
L 150.102313 133.655918 
L 150.464651 134.480093 
L 150.826989 134.348458 
L 151.189326 134.696788 
L 151.551664 133.512672 
L 151.914002 135.221075 
L 152.276339 133.730723 
L 152.638677 134.529465 
L 153.001015 132.370661 
L 153.72569 134.572126 
L 154.088028 134.072371 
L 154.450365 134.627531 
L 154.812703 133.686821 
L 155.175041 135.793761 
L 155.537378 136.798164 
L 155.899716 135.970146 
L 156.262054 136.020147 
L 156.986729 133.937679 
L 157.349067 133.883375 
L 157.711404 135.783679 
L 158.073742 134.246771 
L 158.43608 134.67069 
L 158.798417 133.787839 
L 159.160755 133.98603 
L 159.523093 133.749291 
L 159.88543 134.937766 
L 160.247768 133.590693 
L 160.610106 133.948955 
L 161.334781 135.163464 
L 161.697119 135.250225 
L 162.059456 133.417657 
L 162.421794 134.83951 
L 162.784131 134.042226 
L 163.146469 133.857755 
L 163.508807 132.744474 
L 163.871144 133.127158 
L 164.233482 133.733979 
L 164.958157 132.540356 
L 165.320495 132.381644 
L 165.682833 133.468012 
L 166.04517 132.89523 
L 166.407508 133.132457 
L 166.769846 133.054752 
L 167.132183 134.444325 
L 167.494521 134.492291 
L 167.856859 132.703812 
L 168.219196 132.803628 
L 168.581534 132.034225 
L 168.943872 131.855089 
L 169.306209 132.523579 
L 169.668547 133.899917 
L 170.030885 133.3576 
L 170.393222 133.204065 
L 170.75556 132.664753 
L 171.117898 133.850222 
L 171.480235 132.380251 
L 171.842573 134.508646 
L 172.204911 132.891838 
L 172.567248 132.60006 
L 173.291924 133.371722 
L 174.016599 133.289836 
L 174.378937 133.233779 
L 174.741274 132.59753 
L 175.103612 133.140671 
L 175.46595 133.469409 
L 175.828287 135.298431 
L 176.190625 133.081593 
L 176.552963 133.76687 
L 176.9153 133.628306 
L 177.277638 134.142602 
L 178.002313 133.234211 
L 178.364651 133.387198 
L 178.726989 132.977919 
L 179.089326 133.963267 
L 179.451664 133.314476 
L 179.814002 132.411628 
L 180.176339 133.066124 
L 180.538677 134.496277 
L 180.901015 133.755932 
L 181.263352 135.162542 
L 181.62569 133.581566 
L 181.988028 133.305612 
L 182.350365 133.524542 
L 183.075041 133.266223 
L 183.437378 134.589685 
L 183.799716 133.405029 
L 184.524391 134.669077 
L 184.886729 133.501361 
L 185.249067 134.54872 
L 185.611404 134.330751 
L 185.973742 133.594184 
L 186.33608 133.685259 
L 186.698417 133.132268 
L 187.423093 134.556337 
L 187.78543 134.747522 
L 188.147768 133.734818 
L 188.510106 134.057103 
L 188.872443 133.400449 
L 189.597119 135.078663 
L 189.959456 134.763415 
L 190.321794 132.670398 
L 190.684131 133.845273 
L 191.046469 134.183134 
L 191.408807 135.394309 
L 191.771144 134.32218 
L 192.133482 135.40424 
L 192.49582 135.965906 
L 192.858157 134.883353 
L 193.220495 135.13337 
L 193.582833 133.912702 
L 193.94517 134.390122 
L 194.307508 133.280426 
L 194.669846 133.387114 
L 195.394521 133.884612 
L 195.756859 134.965188 
L 196.119196 135.665181 
L 196.481534 133.526647 
L 196.843872 134.958716 
L 197.206209 134.407457 
L 197.568547 133.612359 
L 197.930885 132.453903 
L 198.293222 132.901754 
L 198.65556 134.501656 
L 199.017898 132.691125 
L 199.380235 132.707572 
L 199.742573 133.549338 
L 200.104911 133.084856 
L 200.467248 134.094326 
L 200.829586 134.739972 
L 201.191924 133.289971 
L 201.554261 133.717798 
L 201.916599 134.941621 
L 202.278937 133.779234 
L 202.641274 134.403515 
L 203.003612 132.779398 
L 203.36595 134.351158 
L 203.728287 134.337696 
L 204.090625 134.155492 
L 204.452963 132.525546 
L 204.8153 133.086877 
L 205.177638 131.931183 
L 205.539976 134.582029 
L 205.902313 134.47649 
L 206.989326 133.335482 
L 207.714002 133.982783 
L 208.076339 133.474433 
L 208.438677 133.545177 
L 208.801015 134.065804 
L 209.163352 133.091783 
L 209.52569 133.394984 
L 209.888028 133.362916 
L 210.250365 133.734817 
L 211.337378 134.215488 
L 211.699716 133.965623 
L 212.062054 135.494185 
L 212.786729 133.550128 
L 213.149067 133.11194 
L 213.511404 132.238664 
L 213.873742 132.453043 
L 214.23608 130.810441 
L 214.960755 134.124518 
L 215.323093 135.103878 
L 215.68543 133.781092 
L 216.047768 133.99295 
L 216.410106 132.891941 
L 216.772443 133.912624 
L 217.497119 132.399447 
L 217.859456 131.713326 
L 218.221794 132.090483 
L 218.584131 132.856766 
L 218.946469 133.123812 
L 219.308807 133.135695 
L 219.671144 132.27877 
L 220.033482 132.610056 
L 220.39582 134.40004 
L 220.758157 133.040585 
L 221.120495 133.285989 
L 221.482833 133.033763 
L 221.84517 134.071489 
L 222.207508 133.40679 
L 222.932183 133.948797 
L 223.294521 133.393113 
L 223.656859 134.972785 
L 224.019196 133.784309 
L 224.381534 134.35198 
L 224.743872 133.539669 
L 225.106209 133.178662 
L 225.468547 134.394646 
L 225.830885 132.953353 
L 226.193222 132.700312 
L 226.917898 133.674356 
L 227.280235 132.279369 
L 227.642573 132.540283 
L 228.004911 132.63201 
L 228.367248 132.106652 
L 229.091924 131.875436 
L 229.454261 132.101985 
L 229.816599 131.632349 
L 230.178937 132.243352 
L 230.541274 131.312647 
L 230.903612 132.518016 
L 231.26595 132.074249 
L 231.628287 133.525432 
L 232.352963 131.365266 
L 232.7153 132.376833 
L 233.077638 132.470925 
L 233.802313 131.396327 
L 234.164651 131.54476 
L 234.526989 132.302675 
L 234.889326 131.590595 
L 235.251664 132.470348 
L 235.614002 132.412599 
L 235.976339 131.673215 
L 236.701015 133.198533 
L 237.063352 133.673751 
L 237.788028 131.4986 
L 238.150365 132.618971 
L 238.512703 132.490221 
L 238.875041 132.556169 
L 239.237378 131.788266 
L 239.599716 131.942189 
L 239.962054 131.903216 
L 240.324391 132.539686 
L 240.686729 130.569412 
L 241.049067 131.466622 
L 241.411404 132.033561 
L 241.773742 131.906376 
L 242.13608 130.992269 
L 242.860755 132.544933 
L 243.223093 132.199204 
L 243.58543 132.783126 
L 243.947768 132.067351 
L 244.310106 132.47541 
L 244.672443 132.238959 
L 245.034781 132.671792 
L 245.397119 132.285419 
L 245.759456 132.183509 
L 246.121794 131.733499 
L 246.846469 132.243679 
L 247.208807 132.787757 
L 248.29582 132.398486 
L 249.020495 132.428882 
L 249.382833 131.97184 
L 249.74517 132.431972 
L 250.107508 133.559509 
L 250.469846 133.063622 
L 250.832183 133.288699 
L 251.194521 132.205903 
L 251.556859 132.12337 
L 251.919196 131.742718 
L 252.281534 132.882066 
L 253.368547 132.404978 
L 254.093222 132.463904 
L 254.45556 131.924399 
L 254.817898 132.932016 
L 255.180235 132.058467 
L 255.542573 131.58803 
L 255.904911 132.137126 
L 256.267248 131.581192 
L 256.991924 132.978092 
L 257.354261 133.131272 
L 257.716599 134.108581 
L 258.078937 132.805618 
L 258.441274 132.444667 
L 258.803612 132.462697 
L 259.16595 132.82047 
L 259.528287 132.728157 
L 260.252963 132.097278 
L 260.6153 132.340179 
L 260.977638 132.742722 
L 261.339976 133.609747 
L 261.702313 132.67693 
L 262.064651 132.79041 
L 262.426989 132.485461 
L 262.789326 132.365072 
L 263.151664 133.161963 
L 263.514002 133.657013 
L 263.876339 132.932014 
L 264.238677 133.725188 
L 264.963352 133.602527 
L 265.688028 132.317633 
L 266.412703 134.369376 
L 266.775041 133.267726 
L 267.137378 134.488446 
L 267.499716 133.333287 
L 267.862054 133.597625 
L 268.224391 135.119699 
L 268.586729 133.710805 
L 268.949067 134.149777 
L 269.311404 133.742468 
L 269.673742 131.405445 
L 270.398417 134.263899 
L 270.760755 132.946087 
L 271.123093 133.713455 
L 271.48543 133.403473 
L 271.847768 132.451649 
L 272.210106 132.25086 
L 272.572443 132.746294 
L 273.297119 134.145032 
L 273.659456 133.773815 
L 274.021794 132.745112 
L 274.384131 133.204419 
L 274.746469 132.526789 
L 275.471144 132.501007 
L 275.833482 132.877976 
L 276.19582 132.827072 
L 276.558157 133.125438 
L 276.920495 133.077798 
L 277.64517 132.281847 
L 278.007508 132.139013 
L 278.369846 133.059999 
L 278.732183 132.847204 
L 279.094521 133.215277 
L 279.456859 133.038088 
L 279.819196 133.341311 
L 280.181534 133.198229 
L 280.543872 132.869768 
L 281.268547 130.601714 
L 281.630885 130.221287 
L 281.993222 132.44365 
L 282.35556 132.860736 
L 282.717898 132.116999 
L 283.080235 132.416893 
L 283.442573 132.019425 
L 283.804911 132.093121 
L 284.167248 131.574188 
L 284.529586 131.30707 
L 284.891924 131.666799 
L 285.254261 131.029464 
L 285.616599 133.131409 
L 286.341274 131.66752 
L 286.703612 130.991933 
L 287.06595 131.632793 
L 287.790625 132.233251 
L 288.152963 131.305001 
L 288.5153 130.814976 
L 288.877638 131.642424 
L 289.239976 132.145508 
L 289.602313 131.893631 
L 289.964651 131.26196 
L 290.326989 131.298169 
L 290.689326 132.251309 
L 291.051664 131.744891 
L 291.414002 131.722877 
L 291.776339 131.213984 
L 292.138677 133.009789 
L 292.501015 132.112158 
L 293.22569 132.428836 
L 293.588028 132.054355 
L 294.312703 133.03029 
L 294.675041 132.790353 
L 295.037378 133.726846 
L 295.399716 131.680295 
L 295.762054 132.280318 
L 296.124391 133.309699 
L 296.486729 132.588921 
L 296.849067 132.646088 
L 297.211404 132.094469 
L 297.573742 132.633491 
L 297.93608 132.299455 
L 298.298417 132.719236 
L 298.660755 132.658564 
L 299.023093 130.7238 
L 299.38543 132.541882 
L 299.747768 131.890837 
L 300.110106 132.252463 
L 300.472443 132.059202 
L 301.197119 131.33064 
L 301.559456 131.620803 
L 301.921794 132.843674 
L 302.284131 132.807016 
L 302.646469 132.123512 
L 303.008807 132.344499 
L 303.371144 132.697557 
L 303.733482 132.59924 
L 304.09582 131.928732 
L 304.458157 132.041675 
L 304.820495 132.651605 
L 305.182833 132.183978 
L 305.907508 133.385368 
L 306.632183 133.234771 
L 307.356859 133.314622 
L 307.719196 133.123202 
L 308.081534 130.267198 
L 308.443872 131.961519 
L 308.806209 132.457787 
L 309.168547 131.922502 
L 309.530885 132.137043 
L 309.893222 131.904927 
L 310.25556 132.655 
L 310.617898 132.616746 
L 310.980235 131.219268 
L 311.342573 130.828335 
L 311.704911 131.633501 
L 312.067248 131.692301 
L 312.429586 133.00353 
L 312.791924 131.70666 
L 313.154261 132.741796 
L 313.516599 131.429345 
L 314.241274 131.603527 
L 314.603612 132.149271 
L 314.96595 131.578289 
L 315.328287 131.710636 
L 315.690625 133.077386 
L 316.052963 133.171804 
L 316.4153 131.927192 
L 316.777638 131.326142 
L 317.139976 131.693857 
L 317.502313 131.160785 
L 317.864651 132.014318 
L 318.589326 131.679714 
L 318.951664 131.938007 
L 319.314002 131.955963 
L 319.676339 132.66614 
L 320.038677 132.074235 
L 320.763352 131.45893 
L 321.12569 131.684332 
L 321.488028 132.235263 
L 321.850365 131.630971 
L 322.212703 132.221324 
L 322.575041 132.119814 
L 322.937378 132.407691 
L 323.299716 132.042115 
L 323.662054 131.368889 
L 324.024391 132.476174 
L 324.386729 132.517321 
L 324.749067 131.085981 
L 325.111404 131.956984 
L 325.473742 131.732544 
L 325.83608 132.372228 
L 326.198417 131.597795 
L 326.560755 131.822922 
L 326.923093 130.872069 
L 327.28543 132.252918 
L 327.647768 131.896233 
L 328.010106 132.798829 
L 328.734781 131.423575 
L 329.097119 132.113453 
L 329.459456 131.16003 
L 329.821794 132.417548 
L 330.184131 132.480037 
L 330.546469 131.610612 
L 330.908807 131.893874 
L 331.633482 130.508775 
L 331.99582 129.977019 
L 332.358157 131.37025 
L 332.720495 130.291315 
L 333.082833 131.423547 
L 333.44517 130.796264 
L 333.807508 131.738487 
L 334.169846 131.537825 
L 334.532183 130.668533 
L 334.894521 131.041875 
L 335.256859 130.949823 
L 335.619196 131.078029 
L 335.981534 131.601004 
L 336.343872 131.066591 
L 336.706209 130.974 
L 337.068547 130.53843 
L 337.430885 131.155066 
L 337.793222 131.48501 
L 338.15556 131.632228 
L 338.880235 130.628291 
L 339.242573 132.335118 
L 339.604911 131.484981 
L 339.967248 131.950548 
L 340.329586 131.455994 
L 340.691924 131.328138 
L 341.416599 130.68959 
L 341.778937 131.92097 
L 342.141274 131.415325 
L 342.503612 131.543803 
L 342.86595 131.519969 
L 343.228287 131.803965 
L 343.590625 131.677254 
L 343.952963 131.359358 
L 344.3153 131.90808 
L 344.677638 131.520382 
L 345.039976 131.787374 
L 345.402313 131.411736 
L 345.764651 131.404292 
L 346.126989 132.255072 
L 346.489326 131.798463 
L 346.851664 130.909378 
L 347.214002 131.273687 
L 347.576339 131.908029 
L 347.938677 131.302501 
L 348.301015 131.099072 
L 348.663352 131.333146 
L 349.02569 131.356257 
L 349.388028 130.961632 
L 349.750365 131.366747 
L 350.112703 130.951825 
L 350.837378 131.212655 
L 351.199716 131.168558 
L 351.562054 130.967352 
L 351.924391 131.518516 
L 352.649067 131.433964 
L 353.011404 131.759866 
L 353.73608 131.484234 
L 354.098417 131.763791 
L 354.460755 131.549835 
L 354.823093 131.751839 
L 355.18543 131.656265 
L 355.547768 132.157738 
L 355.910106 131.513777 
L 356.272443 131.526221 
L 356.634781 131.854591 
L 356.997119 132.654571 
L 357.721794 131.865287 
L 358.084131 130.593149 
L 358.446469 131.921112 
L 358.808807 131.63564 
L 359.171144 130.461283 
L 359.89582 130.893114 
L 360.258157 131.384476 
L 360.620495 130.934519 
L 360.982833 131.984969 
L 361.34517 131.163396 
L 361.707508 131.732841 
L 362.069846 131.006899 
L 362.432183 131.856539 
L 362.794521 131.359202 
L 363.156859 132.228461 
L 363.519196 130.795866 
L 363.881534 131.643273 
L 364.243872 132.082196 
L 364.606209 131.832027 
L 364.968547 132.757849 
L 365.330885 132.44943 
L 365.693222 132.587832 
L 366.05556 131.584111 
L 366.417898 131.543406 
L 366.780235 131.805415 
L 367.142573 131.450258 
L 367.867248 131.646294 
L 368.229586 132.107408 
L 368.591924 131.880479 
L 368.954261 132.134369 
L 369.316599 131.970307 
L 369.678937 132.386177 
L 370.041274 132.565465 
L 370.403612 131.64731 
L 370.76595 132.947028 
L 371.128287 131.513955 
L 371.490625 130.972511 
L 371.852963 131.252736 
L 372.2153 131.206001 
L 373.664651 132.653737 
L 374.026989 131.817172 
L 374.389326 132.11926 
L 374.751664 132.101248 
L 375.114002 131.966333 
L 375.476339 132.36078 
L 375.838677 131.258936 
L 376.201015 131.780393 
L 376.563352 131.54957 
L 377.288028 132.062622 
L 377.650365 131.957732 
L 378.012703 131.340718 
L 378.737378 131.670869 
L 379.099716 132.04183 
L 379.462054 132.236152 
L 379.824391 131.734186 
L 380.549067 131.782786 
L 380.911404 132.226408 
L 381.273742 132.283621 
L 381.63608 132.111478 
L 381.998417 132.220502 
L 382.360755 131.680684 
L 382.723093 132.290601 
L 383.08543 132.376387 
L 383.447768 133.543685 
L 383.810106 132.38326 
L 384.172443 131.997624 
L 384.534781 132.406125 
L 384.897119 131.864386 
L 385.984131 132.973723 
L 386.346469 132.207043 
L 386.708807 132.183732 
L 387.071144 132.917983 
L 387.433482 132.879916 
L 387.79582 131.609121 
L 388.158157 131.75248 
L 388.520495 131.61044 
L 388.882833 132.08651 
L 389.24517 131.515783 
L 389.607508 131.668492 
L 390.332183 130.424179 
L 390.694521 131.188671 
L 391.056859 131.541565 
L 391.419196 131.578801 
L 391.781534 131.760852 
L 392.143872 132.089249 
L 392.506209 131.078796 
L 392.868547 132.11539 
L 393.230885 131.641106 
L 393.593222 131.402283 
L 393.95556 130.979465 
L 394.317898 131.242137 
L 395.042573 131.105524 
L 395.404911 132.424635 
L 395.767248 132.220091 
L 396.129586 131.791997 
L 396.491924 131.938228 
L 396.854261 131.510736 
L 397.216599 132.098564 
L 397.578937 132.012834 
L 397.941274 133.27861 
L 398.66595 132.277825 
L 399.028287 132.339868 
L 399.390625 132.847564 
L 399.752963 132.572358 
L 400.1153 133.344471 
L 400.477638 133.44242 
L 400.839976 132.453226 
L 401.202313 132.987202 
L 401.564651 132.14924 
L 401.926989 132.405849 
L 402.651664 132.268171 
L 403.014002 132.281259 
L 403.376339 132.721498 
L 403.738677 132.325764 
L 404.101015 133.125103 
L 404.463352 133.109208 
L 404.82569 132.866023 
L 405.188028 133.262784 
L 405.550365 132.177378 
L 405.912703 132.36252 
L 406.275041 132.07249 
L 406.637378 132.346752 
L 407.362054 131.733131 
L 407.724391 132.763355 
L 408.086729 132.709225 
L 408.449067 132.462485 
L 409.173742 131.213038 
L 409.53608 131.659717 
L 409.898417 130.566539 
L 410.260755 130.559564 
L 410.623093 131.276871 
L 410.98543 130.846549 
L 411.347768 131.440441 
L 411.710106 130.957548 
L 412.072443 131.844636 
L 412.434781 131.094976 
L 412.797119 131.335715 
L 413.159456 131.407347 
L 413.521794 131.85281 
L 413.884131 131.305705 
L 414.246469 131.308068 
L 414.608807 131.126722 
L 414.971144 131.168921 
L 415.333482 130.91508 
L 415.69582 130.92399 
L 416.058157 130.733538 
L 416.420495 131.131068 
L 416.782833 131.184255 
L 417.14517 130.941223 
L 417.507508 131.384591 
L 417.869846 131.049911 
L 418.232183 131.456985 
L 418.594521 131.590332 
L 419.319196 131.392327 
L 419.681534 131.21249 
L 420.043872 131.931509 
L 420.406209 131.14334 
L 420.768547 131.232342 
L 421.130885 131.723453 
L 421.493222 131.587985 
L 422.217898 131.615276 
L 422.580235 131.440857 
L 423.304911 132.056708 
L 423.667248 131.762927 
L 424.029586 131.632992 
L 424.391924 132.353469 
L 425.116599 132.599687 
L 425.478937 132.971818 
L 426.203612 131.790298 
L 426.56595 132.466741 
L 426.928287 131.938196 
L 427.290625 131.1858 
L 427.652963 131.753227 
L 428.0153 131.454488 
L 428.377638 131.32602 
L 428.739976 131.732054 
L 429.826989 131.451028 
L 430.189326 131.069915 
L 430.551664 131.545053 
L 430.914002 132.321151 
L 431.276339 131.661514 
L 431.638677 131.759212 
L 432.363352 131.447085 
L 433.088028 132.403037 
L 433.450365 132.550619 
L 433.812703 132.262497 
L 434.537378 132.502361 
L 434.899716 131.712199 
L 435.262054 131.984447 
L 435.624391 131.804647 
L 435.986729 131.906886 
L 436.349067 131.496733 
L 436.711404 131.928376 
L 437.073742 131.837591 
L 437.43608 131.989177 
L 437.798417 131.447812 
L 438.160755 132.31555 
L 438.88543 131.861633 
L 439.247768 131.085775 
L 439.972443 131.103766 
L 440.334781 131.831547 
L 440.697119 132.165961 
L 441.059456 131.924331 
L 441.421794 132.49913 
L 441.784131 132.133288 
L 442.146469 132.703963 
L 442.508807 131.519711 
L 442.871144 131.787084 
L 443.233482 131.61516 
L 443.59582 131.905243 
L 443.958157 132.023337 
L 444.320495 131.424601 
L 444.682833 131.941062 
L 445.04517 131.584992 
L 445.407508 131.396081 
L 446.132183 131.734183 
L 446.494521 132.120899 
L 446.856859 131.868529 
L 447.219196 131.330176 
L 447.581534 131.950312 
L 447.943872 132.09371 
L 448.306209 131.285402 
L 448.668547 131.09023 
L 449.030885 131.418014 
L 450.117898 130.349473 
L 450.842573 130.653642 
L 451.204911 131.671098 
L 451.567248 131.704918 
L 452.291924 131.017815 
L 452.654261 131.587552 
L 453.016599 130.190526 
L 453.378937 131.64654 
L 453.741274 130.790442 
L 454.103612 131.176106 
L 454.46595 131.278116 
L 454.828287 132.267317 
L 455.190625 132.623179 
L 455.552963 131.651776 
L 455.9153 131.352801 
L 456.277638 131.294282 
L 456.639976 131.836177 
L 457.002313 131.318101 
L 457.364651 131.550916 
L 457.726989 131.334676 
L 458.089326 131.388509 
L 458.814002 131.856621 
L 459.176339 132.054724 
L 459.538677 131.115779 
L 459.901015 130.623342 
L 460.263352 130.862776 
L 460.62569 131.410627 
L 460.988028 131.349292 
L 461.350365 131.637476 
L 461.712703 130.877067 
L 462.075041 130.668975 
L 462.437378 131.473748 
L 462.799716 131.673314 
L 463.162054 132.305557 
L 463.524391 130.570695 
L 463.886729 131.524208 
L 464.249067 131.254612 
L 464.611404 131.168066 
L 464.973742 131.483211 
L 465.33608 130.980283 
L 466.060755 130.639009 
L 466.423093 131.405517 
L 466.78543 131.013127 
L 467.147768 131.049724 
L 467.510106 130.651157 
L 468.234781 131.651566 
L 468.597119 131.527573 
L 468.959456 131.633015 
L 469.321794 131.866406 
L 469.684131 131.748473 
L 470.046469 132.402915 
L 470.408807 132.503654 
L 471.133482 130.610999 
L 471.49582 131.411022 
L 471.858157 131.806313 
L 472.220495 131.121768 
L 472.582833 131.700637 
L 472.94517 131.62757 
L 473.307508 131.238641 
L 473.669846 131.260974 
L 474.756859 131.616936 
L 475.119196 131.295897 
L 475.481534 130.745783 
L 475.843872 130.782025 
L 476.206209 131.695054 
L 476.568547 131.024701 
L 476.930885 130.822981 
L 477.293222 131.750217 
L 477.65556 131.740044 
L 478.380235 130.129551 
L 478.742573 130.751975 
L 479.104911 131.003511 
L 479.467248 130.501422 
L 479.829586 130.73707 
L 480.191924 130.607715 
L 480.554261 129.985918 
L 480.916599 130.368178 
L 481.278937 131.084768 
L 481.641274 131.174641 
L 482.003612 130.543423 
L 482.36595 130.139932 
L 482.728287 131.065379 
L 483.090625 130.833717 
L 483.8153 131.372946 
L 484.177638 131.291543 
L 484.539976 130.667029 
L 485.264651 130.97347 
L 485.626989 131.307341 
L 485.989326 131.831564 
L 486.351664 131.625404 
L 486.714002 131.179196 
L 487.076339 130.424577 
L 487.438677 131.765082 
L 487.801015 131.368139 
L 488.163352 131.226704 
L 488.52569 129.60527 
L 488.888028 131.070313 
L 489.250365 130.095266 
L 489.612703 130.115799 
L 489.975041 131.068329 
L 490.337378 131.166856 
L 490.699716 129.884812 
L 491.062054 130.754992 
L 491.424391 131.081415 
L 491.786729 131.562154 
L 492.149067 130.966667 
L 492.511404 131.136951 
L 492.873742 130.97303 
L 493.23608 130.964746 
L 493.598417 131.401499 
L 493.960755 130.626838 
L 494.68543 131.470264 
L 495.047768 130.858801 
L 495.410106 130.899558 
L 496.134781 131.327705 
L 496.497119 130.755858 
L 496.859456 130.392417 
L 497.584131 130.354384 
L 497.946469 131.156742 
L 498.308807 130.83115 
L 498.671144 130.24938 
L 499.033482 130.371003 
L 499.39582 129.487353 
L 499.758157 124.532664 
L 500.120495 128.733557 
L 500.482833 130.746911 
L 500.84517 130.987071 
L 501.207508 130.324001 
L 501.569846 130.448759 
L 501.932183 130.830733 
L 502.294521 130.595539 
L 502.656859 131.188754 
L 503.019196 130.164736 
L 503.743872 129.37263 
L 504.106209 129.95629 
L 504.830885 129.478811 
L 505.193222 130.005955 
L 505.55556 130.010266 
L 505.917898 130.341497 
L 506.280235 130.519867 
L 506.642573 130.921899 
L 507.004911 130.187721 
L 507.367248 130.113992 
L 507.729586 131.214958 
L 508.091924 130.452203 
L 508.454261 130.945951 
L 508.816599 130.491291 
L 509.541274 131.514279 
L 509.903612 131.223316 
L 510.628287 131.389353 
L 511.352963 131.656079 
L 511.7153 129.705955 
L 512.077638 129.917771 
L 512.439976 129.276748 
L 512.802313 130.453329 
L 513.164651 130.414805 
L 513.526989 130.50234 
L 513.889326 130.467444 
L 514.251664 131.055133 
L 514.614002 130.138572 
L 514.976339 130.40683 
L 515.338677 125.50742 
L 515.701015 122.84104 
L 516.063352 130.1481 
L 516.42569 130.84771 
L 517.150365 130.640343 
L 517.512703 130.828383 
L 517.875041 130.498662 
L 518.237378 130.583282 
L 518.599716 129.75929 
L 518.962054 130.374035 
L 519.324391 129.867492 
L 519.686729 131.896064 
L 520.411404 130.212515 
L 520.773742 130.845973 
L 521.13608 130.804372 
L 521.498417 131.0562 
L 522.223093 130.108805 
L 522.58543 130.992055 
L 522.947768 130.592388 
L 523.310106 130.488568 
L 523.672443 130.23127 
L 524.034781 130.805741 
L 524.759456 130.00987 
L 525.121794 130.389554 
L 525.484131 130.413294 
L 525.846469 129.829188 
L 526.208807 130.722457 
L 526.571144 131.024591 
L 526.933482 129.376244 
L 527.29582 130.437763 
L 527.658157 130.424088 
L 528.382833 130.688667 
L 528.74517 132.07996 
L 529.107508 130.667219 
L 529.469846 130.690392 
L 529.832183 129.888552 
L 530.194521 131.129125 
L 530.556859 130.389063 
L 530.919196 130.100626 
L 531.643872 130.674351 
L 532.006209 130.416076 
L 533.093222 130.233648 
L 533.45556 130.664875 
L 533.817898 129.387487 
L 534.180235 130.22461 
L 534.542573 129.77033 
L 534.904911 129.585297 
L 535.267248 130.128692 
L 535.991924 129.829608 
L 536.354261 130.994181 
L 536.716599 131.219198 
L 537.078937 130.70974 
L 537.441274 131.566129 
L 537.803612 131.209827 
L 538.16595 130.306914 
L 538.528287 130.868781 
L 538.890625 130.571939 
L 539.252963 130.595518 
L 539.6153 131.053044 
L 539.977638 130.282901 
L 540.339976 129.976774 
L 540.702313 130.526792 
L 541.064651 130.344896 
L 541.426989 131.020758 
L 541.789326 129.906556 
L 542.514002 130.716983 
L 542.876339 130.488582 
L 543.238677 130.787487 
L 543.601015 130.366097 
L 543.963352 130.165814 
L 544.32569 130.934409 
L 544.688028 130.164311 
L 545.412703 131.18006 
L 545.775041 129.463145 
L 546.137378 129.98269 
L 546.499716 130.244075 
L 546.862054 130.903143 
L 547.224391 130.176831 
L 548.311404 129.780195 
L 548.673742 130.4535 
L 549.03608 130.120047 
L 550.123093 130.726894 
L 550.48543 131.722965 
L 550.847768 131.979351 
L 551.210106 131.055048 
L 551.572443 130.63362 
L 552.659456 130.679998 
L 553.021794 129.982784 
L 553.384131 130.691736 
L 553.746469 129.917174 
L 554.108807 130.440223 
L 554.471144 130.522927 
L 554.833482 129.957382 
L 555.558157 129.849221 
L 555.920495 130.755282 
L 556.282833 130.96083 
L 556.64517 130.41423 
L 557.369846 130.557492 
L 557.732183 130.789901 
L 558.094521 130.863772 
L 558.456859 131.564199 
L 558.819196 130.661505 
L 559.181534 130.28247 
L 559.543872 130.699576 
L 559.906209 130.326585 
L 560.268547 130.781557 
L 560.630885 130.910442 
L 561.35556 130.744515 
L 561.717898 130.13246 
L 562.080235 130.820767 
L 562.442573 130.326052 
L 562.804911 130.391666 
L 563.167248 131.018171 
L 563.529586 130.115225 
L 563.891924 131.049893 
L 564.254261 130.829827 
L 564.616599 131.060234 
L 565.703612 130.133804 
L 566.06595 130.323136 
L 566.428287 131.045865 
L 566.790625 130.84038 
L 567.152963 130.122947 
L 567.5153 130.817559 
L 568.239976 131.009742 
L 568.602313 130.685493 
L 568.964651 129.957812 
L 569.326989 129.944515 
L 569.689326 130.66462 
L 570.051664 130.17704 
L 570.414002 131.316742 
L 570.776339 130.989109 
L 571.138677 131.196682 
L 571.863352 131.094299 
L 572.22569 130.872635 
L 572.588028 132.222389 
L 573.312703 130.76153 
L 573.675041 131.008135 
L 574.037378 130.604647 
L 574.399716 131.381519 
L 575.124391 131.74209 
L 575.486729 131.417356 
L 575.849067 130.539769 
L 576.211404 130.296014 
L 576.573742 129.894973 
L 576.93608 130.040812 
L 577.298417 130.328041 
L 577.660755 130.099852 
L 578.023093 130.564728 
L 578.38543 130.417975 
L 579.110106 130.946676 
L 579.472443 131.021662 
L 579.834781 131.322415 
L 580.197119 130.227999 
L 580.559456 130.593962 
L 580.921794 130.52789 
L 581.284131 130.654234 
L 581.646469 131.421961 
L 582.008807 131.238056 
L 582.371144 131.204655 
L 582.733482 130.872112 
L 583.09582 130.693748 
L 583.458157 130.878738 
L 583.820495 131.617836 
L 584.182833 131.698071 
L 584.54517 131.485252 
L 584.907508 131.641098 
L 585.269846 131.335069 
L 585.632183 131.546914 
L 586.356859 130.955012 
L 586.719196 131.187717 
L 587.081534 131.776312 
L 587.443872 131.668382 
L 587.806209 130.825121 
L 588.168547 131.29556 
L 588.893222 130.48569 
L 589.25556 130.797796 
L 589.617898 130.06752 
L 589.980235 130.561251 
L 590.342573 130.77423 
L 590.704911 131.655061 
L 591.067248 130.695025 
L 591.429586 130.686328 
L 591.791924 130.027288 
L 592.154261 130.48206 
L 592.516599 130.457861 
L 593.241274 131.306902 
L 593.603612 131.29802 
L 593.96595 131.931612 
L 594.328287 131.096228 
L 594.690625 131.42237 
L 595.052963 131.525918 
L 595.4153 130.490469 
L 595.777638 131.427434 
L 596.139976 131.319698 
L 596.502313 132.065013 
L 596.864651 131.848164 
L 597.226989 130.823013 
L 597.589326 130.725385 
L 598.314002 131.711716 
L 598.676339 130.974484 
L 599.038677 131.716505 
L 599.401015 131.639789 
L 599.763352 131.837882 
L 600.12569 131.099314 
L 600.850365 130.933967 
L 601.212703 131.017748 
L 601.937378 130.888717 
L 602.299716 131.115387 
L 602.662054 131.109607 
L 603.024391 130.501021 
L 603.386729 131.002452 
L 603.749067 131.276586 
L 604.111404 131.222873 
L 604.473742 130.550084 
L 604.83608 131.494701 
L 605.198417 130.518888 
L 605.560755 131.319896 
L 606.28543 131.651287 
L 606.647768 131.305954 
L 607.010106 131.485045 
L 607.372443 130.531172 
L 607.734781 131.553836 
L 608.459456 129.965807 
L 608.821794 130.976343 
L 609.184131 131.249134 
L 609.546469 130.946057 
L 610.271144 131.226626 
L 610.633482 131.81106 
L 610.99582 131.330166 
L 611.358157 131.943713 
L 611.720495 132.114566 
L 612.44517 131.332326 
L 612.807508 132.325968 
L 613.169846 131.770171 
L 613.894521 131.460832 
L 614.256859 130.908258 
L 614.619196 131.492037 
L 614.981534 130.796225 
L 615.343872 130.547813 
L 615.706209 130.55218 
L 616.068547 131.262246 
L 616.430885 131.600058 
L 616.793222 131.133912 
L 617.15556 131.236189 
L 617.880235 130.883149 
L 618.242573 131.667761 
L 618.604911 131.447666 
L 619.329586 131.53297 
L 619.691924 131.352271 
L 620.416599 130.793341 
L 620.778937 130.551271 
L 621.503612 130.365484 
L 622.228287 131.728002 
L 622.590625 130.947119 
L 622.952963 131.103142 
L 623.677638 130.976254 
L 624.402313 132.198462 
L 625.126989 131.472318 
L 625.126989 131.472318 
" clip-path="url(#pe284f10df0)" style="fill: none; stroke: #ff7f0e; stroke-width: 1.5; stroke-linecap: square"/>
   </g>
   <g id="patch_3">
    <path d="M 92.490625 308.63625 
L 92.490625 31.43625 
" style="fill: none; stroke: #000000; stroke-width: 0.8; stroke-linejoin: miter; stroke-linecap: square"/>
   </g>
   <g id="patch_4">
    <path d="M 650.490625 308.63625 
L 650.490625 31.43625 
" style="fill: none; stroke: #000000; stroke-width: 0.8; stroke-linejoin: miter; stroke-linecap: square"/>
   </g>
   <g id="patch_5">
    <path d="M 92.490625 308.63625 
L 650.490625 308.63625 
" style="fill: none; stroke: #000000; stroke-width: 0.8; stroke-linejoin: miter; stroke-linecap: square"/>
   </g>
   <g id="patch_6">
    <path d="M 92.490625 31.43625 
L 650.490625 31.43625 
" style="fill: none; stroke: #000000; stroke-width: 0.8; stroke-linejoin: miter; stroke-linecap: square"/>
   </g>
   <g id="text_15">
    <!-- Generator and Discriminator Loss During Training -->
    <g transform="translate(74.258125 25.43625) scale(0.24 -0.24)">
     <defs>
      <path id="DejaVuSans-47" d="M 3809 666 
L 3809 1919 
L 2778 1919 
L 2778 2438 
L 4434 2438 
L 4434 434 
Q 4069 175 3628 42 
Q 3188 -91 2688 -91 
Q 1594 -91 976 548 
Q 359 1188 359 2328 
Q 359 3472 976 4111 
Q 1594 4750 2688 4750 
Q 3144 4750 3555 4637 
Q 3966 4525 4313 4306 
L 4313 3634 
Q 3963 3931 3569 4081 
Q 3175 4231 2741 4231 
Q 1884 4231 1454 3753 
Q 1025 3275 1025 2328 
Q 1025 1384 1454 906 
Q 1884 428 2741 428 
Q 3075 428 3337 486 
Q 3600 544 3809 666 
z
" transform="scale(0.015625)"/>
      <path id="DejaVuSans-20" transform="scale(0.015625)"/>
      <path id="DejaVuSans-64" d="M 2906 2969 
L 2906 4863 
L 3481 4863 
L 3481 0 
L 2906 0 
L 2906 525 
Q 2725 213 2448 61 
Q 2172 -91 1784 -91 
Q 1150 -91 751 415 
Q 353 922 353 1747 
Q 353 2572 751 3078 
Q 1150 3584 1784 3584 
Q 2172 3584 2448 3432 
Q 2725 3281 2906 2969 
z
M 947 1747 
Q 947 1113 1208 752 
Q 1469 391 1925 391 
Q 2381 391 2643 752 
Q 2906 1113 2906 1747 
Q 2906 2381 2643 2742 
Q 2381 3103 1925 3103 
Q 1469 3103 1208 2742 
Q 947 2381 947 1747 
z
" transform="scale(0.015625)"/>
      <path id="DejaVuSans-44" d="M 1259 4147 
L 1259 519 
L 2022 519 
Q 2988 519 3436 956 
Q 3884 1394 3884 2338 
Q 3884 3275 3436 3711 
Q 2988 4147 2022 4147 
L 1259 4147 
z
M 628 4666 
L 1925 4666 
Q 3281 4666 3915 4102 
Q 4550 3538 4550 2338 
Q 4550 1131 3912 565 
Q 3275 0 1925 0 
L 628 0 
L 628 4666 
z
" transform="scale(0.015625)"/>
      <path id="DejaVuSans-63" d="M 3122 3366 
L 3122 2828 
Q 2878 2963 2633 3030 
Q 2388 3097 2138 3097 
Q 1578 3097 1268 2742 
Q 959 2388 959 1747 
Q 959 1106 1268 751 
Q 1578 397 2138 397 
Q 2388 397 2633 464 
Q 2878 531 3122 666 
L 3122 134 
Q 2881 22 2623 -34 
Q 2366 -91 2075 -91 
Q 1284 -91 818 406 
Q 353 903 353 1747 
Q 353 2603 823 3093 
Q 1294 3584 2113 3584 
Q 2378 3584 2631 3529 
Q 2884 3475 3122 3366 
z
" transform="scale(0.015625)"/>
      <path id="DejaVuSans-6d" d="M 3328 2828 
Q 3544 3216 3844 3400 
Q 4144 3584 4550 3584 
Q 5097 3584 5394 3201 
Q 5691 2819 5691 2113 
L 5691 0 
L 5113 0 
L 5113 2094 
Q 5113 2597 4934 2840 
Q 4756 3084 4391 3084 
Q 3944 3084 3684 2787 
Q 3425 2491 3425 1978 
L 3425 0 
L 2847 0 
L 2847 2094 
Q 2847 2600 2669 2842 
Q 2491 3084 2119 3084 
Q 1678 3084 1418 2786 
Q 1159 2488 1159 1978 
L 1159 0 
L 581 0 
L 581 3500 
L 1159 3500 
L 1159 2956 
Q 1356 3278 1631 3431 
Q 1906 3584 2284 3584 
Q 2666 3584 2933 3390 
Q 3200 3197 3328 2828 
z
" transform="scale(0.015625)"/>
      <path id="DejaVuSans-75" d="M 544 1381 
L 544 3500 
L 1119 3500 
L 1119 1403 
Q 1119 906 1312 657 
Q 1506 409 1894 409 
Q 2359 409 2629 706 
Q 2900 1003 2900 1516 
L 2900 3500 
L 3475 3500 
L 3475 0 
L 2900 0 
L 2900 538 
Q 2691 219 2414 64 
Q 2138 -91 1772 -91 
Q 1169 -91 856 284 
Q 544 659 544 1381 
z
M 1991 3584 
L 1991 3584 
z
" transform="scale(0.015625)"/>
      <path id="DejaVuSans-67" d="M 2906 1791 
Q 2906 2416 2648 2759 
Q 2391 3103 1925 3103 
Q 1463 3103 1205 2759 
Q 947 2416 947 1791 
Q 947 1169 1205 825 
Q 1463 481 1925 481 
Q 2391 481 2648 825 
Q 2906 1169 2906 1791 
z
M 3481 434 
Q 3481 -459 3084 -895 
Q 2688 -1331 1869 -1331 
Q 1566 -1331 1297 -1286 
Q 1028 -1241 775 -1147 
L 775 -588 
Q 1028 -725 1275 -790 
Q 1522 -856 1778 -856 
Q 2344 -856 2625 -561 
Q 2906 -266 2906 331 
L 2906 616 
Q 2728 306 2450 153 
Q 2172 0 1784 0 
Q 1141 0 747 490 
Q 353 981 353 1791 
Q 353 2603 747 3093 
Q 1141 3584 1784 3584 
Q 2172 3584 2450 3431 
Q 2728 3278 2906 2969 
L 2906 3500 
L 3481 3500 
L 3481 434 
z
" transform="scale(0.015625)"/>
      <path id="DejaVuSans-54" d="M -19 4666 
L 3928 4666 
L 3928 4134 
L 2272 4134 
L 2272 0 
L 1638 0 
L 1638 4134 
L -19 4134 
L -19 4666 
z
" transform="scale(0.015625)"/>
     </defs>
     <use xlink:href="#DejaVuSans-47"/>
     <use xlink:href="#DejaVuSans-65" x="77.490234"/>
     <use xlink:href="#DejaVuSans-6e" x="139.013672"/>
     <use xlink:href="#DejaVuSans-65" x="202.392578"/>
     <use xlink:href="#DejaVuSans-72" x="263.916016"/>
     <use xlink:href="#DejaVuSans-61" x="305.029297"/>
     <use xlink:href="#DejaVuSans-74" x="366.308594"/>
     <use xlink:href="#DejaVuSans-6f" x="405.517578"/>
     <use xlink:href="#DejaVuSans-72" x="466.699219"/>
     <use xlink:href="#DejaVuSans-20" x="507.8125"/>
     <use xlink:href="#DejaVuSans-61" x="539.599609"/>
     <use xlink:href="#DejaVuSans-6e" x="600.878906"/>
     <use xlink:href="#DejaVuSans-64" x="664.257812"/>
     <use xlink:href="#DejaVuSans-20" x="727.734375"/>
     <use xlink:href="#DejaVuSans-44" x="759.521484"/>
     <use xlink:href="#DejaVuSans-69" x="836.523438"/>
     <use xlink:href="#DejaVuSans-73" x="864.306641"/>
     <use xlink:href="#DejaVuSans-63" x="916.40625"/>
     <use xlink:href="#DejaVuSans-72" x="971.386719"/>
     <use xlink:href="#DejaVuSans-69" x="1012.5"/>
     <use xlink:href="#DejaVuSans-6d" x="1040.283203"/>
     <use xlink:href="#DejaVuSans-69" x="1137.695312"/>
     <use xlink:href="#DejaVuSans-6e" x="1165.478516"/>
     <use xlink:href="#DejaVuSans-61" x="1228.857422"/>
     <use xlink:href="#DejaVuSans-74" x="1290.136719"/>
     <use xlink:href="#DejaVuSans-6f" x="1329.345703"/>
     <use xlink:href="#DejaVuSans-72" x="1390.527344"/>
     <use xlink:href="#DejaVuSans-20" x="1431.640625"/>
     <use xlink:href="#DejaVuSans-4c" x="1463.427734"/>
     <use xlink:href="#DejaVuSans-6f" x="1517.390625"/>
     <use xlink:href="#DejaVuSans-73" x="1578.572266"/>
     <use xlink:href="#DejaVuSans-73" x="1630.671875"/>
     <use xlink:href="#DejaVuSans-20" x="1682.771484"/>
     <use xlink:href="#DejaVuSans-44" x="1714.558594"/>
     <use xlink:href="#DejaVuSans-75" x="1791.560547"/>
     <use xlink:href="#DejaVuSans-72" x="1854.939453"/>
     <use xlink:href="#DejaVuSans-69" x="1896.052734"/>
     <use xlink:href="#DejaVuSans-6e" x="1923.835938"/>
     <use xlink:href="#DejaVuSans-67" x="1987.214844"/>
     <use xlink:href="#DejaVuSans-20" x="2050.691406"/>
     <use xlink:href="#DejaVuSans-54" x="2082.478516"/>
     <use xlink:href="#DejaVuSans-72" x="2128.8125"/>
     <use xlink:href="#DejaVuSans-61" x="2169.925781"/>
     <use xlink:href="#DejaVuSans-69" x="2231.205078"/>
     <use xlink:href="#DejaVuSans-6e" x="2258.988281"/>
     <use xlink:href="#DejaVuSans-69" x="2322.367188"/>
     <use xlink:href="#DejaVuSans-6e" x="2350.150391"/>
     <use xlink:href="#DejaVuSans-67" x="2413.529297"/>
    </g>
   </g>
   <g id="legend_1">
    <g id="patch_7">
     <path d="M 556.99375 106.14875 
L 636.490625 106.14875 
Q 640.490625 106.14875 640.490625 102.14875 
L 640.490625 45.43625 
Q 640.490625 41.43625 636.490625 41.43625 
L 556.99375 41.43625 
Q 552.99375 41.43625 552.99375 45.43625 
L 552.99375 102.14875 
Q 552.99375 106.14875 556.99375 106.14875 
z
" style="fill: #ffffff; opacity: 0.8; stroke: #cccccc; stroke-linejoin: miter"/>
    </g>
    <g id="line2d_15">
     <path d="M 560.99375 57.633125 
L 580.99375 57.633125 
L 600.99375 57.633125 
" style="fill: none; stroke: #1f77b4; stroke-width: 1.5; stroke-linecap: square"/>
    </g>
    <g id="text_16">
     <!-- G -->
     <g transform="translate(616.99375 64.633125) scale(0.2 -0.2)">
      <use xlink:href="#DejaVuSans-47"/>
     </g>
    </g>
    <g id="line2d_16">
     <path d="M 560.99375 86.989375 
L 580.99375 86.989375 
L 600.99375 86.989375 
" style="fill: none; stroke: #ff7f0e; stroke-width: 1.5; stroke-linecap: square"/>
    </g>
    <g id="text_17">
     <!-- D -->
     <g transform="translate(616.99375 93.989375) scale(0.2 -0.2)">
      <use xlink:href="#DejaVuSans-44"/>
     </g>
    </g>
   </g>
  </g>
 </g>
 <defs>
  <clipPath id="pe284f10df0">
   <rect x="92.490625" y="31.43625" width="558" height="277.2"/>
  </clipPath>
 </defs>
</svg>
