<?xml version="1.0" encoding="utf-8" standalone="no"?>
<!DOCTYPE svg PUBLIC "-//W3C//DTD SVG 1.1//EN"
  "http://www.w3.org/Graphics/SVG/1.1/DTD/svg11.dtd">
<svg xmlns:xlink="http://www.w3.org/1999/xlink" width="675.923125pt" height="365.54875pt" viewBox="0 0 675.923125 365.54875" xmlns="http://www.w3.org/2000/svg" version="1.1">
 <metadata>
  <rdf:RDF xmlns:dc="http://purl.org/dc/elements/1.1/" xmlns:cc="http://creativecommons.org/ns#" xmlns:rdf="http://www.w3.org/1999/02/22-rdf-syntax-ns#">
   <cc:Work>
    <dc:type rdf:resource="http://purl.org/dc/dcmitype/StillImage"/>
    <dc:date>2024-02-07T04:29:43.755292</dc:date>
    <dc:format>image/svg+xml</dc:format>
    <dc:creator>
     <cc:Agent>
      <dc:title>Matplotlib v3.7.2, https://matplotlib.org/</dc:title>
     </cc:Agent>
    </dc:creator>
   </cc:Work>
  </rdf:RDF>
 </metadata>
 <defs>
  <style type="text/css">*{stroke-linejoin: round; stroke-linecap: butt}</style>
 </defs>
 <g id="figure_1">
  <g id="patch_1">
   <path d="M 0 365.54875 
L 675.923125 365.54875 
L 675.923125 -0 
L 0 -0 
z
" style="fill: #ffffff"/>
  </g>
  <g id="axes_1">
   <g id="patch_2">
    <path d="M 92.490625 308.63625 
L 650.490625 308.63625 
L 650.490625 31.43625 
L 92.490625 31.43625 
z
" style="fill: #ffffff"/>
   </g>
   <g id="matplotlib.axis_1">
    <g id="xtick_1">
     <g id="line2d_1">
      <defs>
       <path id="m6851be42ae" d="M 0 0 
L 0 3.5 
" style="stroke: #000000; stroke-width: 0.8"/>
      </defs>
      <g>
       <use xlink:href="#m6851be42ae" x="117.854261" y="308.63625" style="stroke: #000000; stroke-width: 0.8"/>
      </g>
     </g>
     <g id="text_1">
      <!-- 0 -->
      <g transform="translate(111.491761 330.833125) scale(0.2 -0.2)">
       <defs>
        <path id="DejaVuSans-30" d="M 2034 4250 
Q 1547 4250 1301 3770 
Q 1056 3291 1056 2328 
Q 1056 1369 1301 889 
Q 1547 409 2034 409 
Q 2525 409 2770 889 
Q 3016 1369 3016 2328 
Q 3016 3291 2770 3770 
Q 2525 4250 2034 4250 
z
M 2034 4750 
Q 2819 4750 3233 4129 
Q 3647 3509 3647 2328 
Q 3647 1150 3233 529 
Q 2819 -91 2034 -91 
Q 1250 -91 836 529 
Q 422 1150 422 2328 
Q 422 3509 836 4129 
Q 1250 4750 2034 4750 
z
" transform="scale(0.015625)"/>
       </defs>
       <use xlink:href="#DejaVuSans-30"/>
      </g>
     </g>
    </g>
    <g id="xtick_2">
     <g id="line2d_2">
      <g>
       <use xlink:href="#m6851be42ae" x="224.64852" y="308.63625" style="stroke: #000000; stroke-width: 0.8"/>
      </g>
     </g>
     <g id="text_2">
      <!-- 200 -->
      <g transform="translate(205.56102 330.833125) scale(0.2 -0.2)">
       <defs>
        <path id="DejaVuSans-32" d="M 1228 531 
L 3431 531 
L 3431 0 
L 469 0 
L 469 531 
Q 828 903 1448 1529 
Q 2069 2156 2228 2338 
Q 2531 2678 2651 2914 
Q 2772 3150 2772 3378 
Q 2772 3750 2511 3984 
Q 2250 4219 1831 4219 
Q 1534 4219 1204 4116 
Q 875 4013 500 3803 
L 500 4441 
Q 881 4594 1212 4672 
Q 1544 4750 1819 4750 
Q 2544 4750 2975 4387 
Q 3406 4025 3406 3419 
Q 3406 3131 3298 2873 
Q 3191 2616 2906 2266 
Q 2828 2175 2409 1742 
Q 1991 1309 1228 531 
z
" transform="scale(0.015625)"/>
       </defs>
       <use xlink:href="#DejaVuSans-32"/>
       <use xlink:href="#DejaVuSans-30" x="63.623047"/>
       <use xlink:href="#DejaVuSans-30" x="127.246094"/>
      </g>
     </g>
    </g>
    <g id="xtick_3">
     <g id="line2d_3">
      <g>
       <use xlink:href="#m6851be42ae" x="331.442778" y="308.63625" style="stroke: #000000; stroke-width: 0.8"/>
      </g>
     </g>
     <g id="text_3">
      <!-- 400 -->
      <g transform="translate(312.355278 330.833125) scale(0.2 -0.2)">
       <defs>
        <path id="DejaVuSans-34" d="M 2419 4116 
L 825 1625 
L 2419 1625 
L 2419 4116 
z
M 2253 4666 
L 3047 4666 
L 3047 1625 
L 3713 1625 
L 3713 1100 
L 3047 1100 
L 3047 0 
L 2419 0 
L 2419 1100 
L 313 1100 
L 313 1709 
L 2253 4666 
z
" transform="scale(0.015625)"/>
       </defs>
       <use xlink:href="#DejaVuSans-34"/>
       <use xlink:href="#DejaVuSans-30" x="63.623047"/>
       <use xlink:href="#DejaVuSans-30" x="127.246094"/>
      </g>
     </g>
    </g>
    <g id="xtick_4">
     <g id="line2d_4">
      <g>
       <use xlink:href="#m6851be42ae" x="438.237036" y="308.63625" style="stroke: #000000; stroke-width: 0.8"/>
      </g>
     </g>
     <g id="text_4">
      <!-- 600 -->
      <g transform="translate(419.149536 330.833125) scale(0.2 -0.2)">
       <defs>
        <path id="DejaVuSans-36" d="M 2113 2584 
Q 1688 2584 1439 2293 
Q 1191 2003 1191 1497 
Q 1191 994 1439 701 
Q 1688 409 2113 409 
Q 2538 409 2786 701 
Q 3034 994 3034 1497 
Q 3034 2003 2786 2293 
Q 2538 2584 2113 2584 
z
M 3366 4563 
L 3366 3988 
Q 3128 4100 2886 4159 
Q 2644 4219 2406 4219 
Q 1781 4219 1451 3797 
Q 1122 3375 1075 2522 
Q 1259 2794 1537 2939 
Q 1816 3084 2150 3084 
Q 2853 3084 3261 2657 
Q 3669 2231 3669 1497 
Q 3669 778 3244 343 
Q 2819 -91 2113 -91 
Q 1303 -91 875 529 
Q 447 1150 447 2328 
Q 447 3434 972 4092 
Q 1497 4750 2381 4750 
Q 2619 4750 2861 4703 
Q 3103 4656 3366 4563 
z
" transform="scale(0.015625)"/>
       </defs>
       <use xlink:href="#DejaVuSans-36"/>
       <use xlink:href="#DejaVuSans-30" x="63.623047"/>
       <use xlink:href="#DejaVuSans-30" x="127.246094"/>
      </g>
     </g>
    </g>
    <g id="xtick_5">
     <g id="line2d_5">
      <g>
       <use xlink:href="#m6851be42ae" x="545.031295" y="308.63625" style="stroke: #000000; stroke-width: 0.8"/>
      </g>
     </g>
     <g id="text_5">
      <!-- 800 -->
      <g transform="translate(525.943795 330.833125) scale(0.2 -0.2)">
       <defs>
        <path id="DejaVuSans-38" d="M 2034 2216 
Q 1584 2216 1326 1975 
Q 1069 1734 1069 1313 
Q 1069 891 1326 650 
Q 1584 409 2034 409 
Q 2484 409 2743 651 
Q 3003 894 3003 1313 
Q 3003 1734 2745 1975 
Q 2488 2216 2034 2216 
z
M 1403 2484 
Q 997 2584 770 2862 
Q 544 3141 544 3541 
Q 544 4100 942 4425 
Q 1341 4750 2034 4750 
Q 2731 4750 3128 4425 
Q 3525 4100 3525 3541 
Q 3525 3141 3298 2862 
Q 3072 2584 2669 2484 
Q 3125 2378 3379 2068 
Q 3634 1759 3634 1313 
Q 3634 634 3220 271 
Q 2806 -91 2034 -91 
Q 1263 -91 848 271 
Q 434 634 434 1313 
Q 434 1759 690 2068 
Q 947 2378 1403 2484 
z
M 1172 3481 
Q 1172 3119 1398 2916 
Q 1625 2713 2034 2713 
Q 2441 2713 2670 2916 
Q 2900 3119 2900 3481 
Q 2900 3844 2670 4047 
Q 2441 4250 2034 4250 
Q 1625 4250 1398 4047 
Q 1172 3844 1172 3481 
z
" transform="scale(0.015625)"/>
       </defs>
       <use xlink:href="#DejaVuSans-38"/>
       <use xlink:href="#DejaVuSans-30" x="63.623047"/>
       <use xlink:href="#DejaVuSans-30" x="127.246094"/>
      </g>
     </g>
    </g>
    <g id="text_6">
     <!-- iterations -->
     <g transform="translate(324.035938 354.189375) scale(0.2 -0.2)">
      <defs>
       <path id="DejaVuSans-69" d="M 603 3500 
L 1178 3500 
L 1178 0 
L 603 0 
L 603 3500 
z
M 603 4863 
L 1178 4863 
L 1178 4134 
L 603 4134 
L 603 4863 
z
" transform="scale(0.015625)"/>
       <path id="DejaVuSans-74" d="M 1172 4494 
L 1172 3500 
L 2356 3500 
L 2356 3053 
L 1172 3053 
L 1172 1153 
Q 1172 725 1289 603 
Q 1406 481 1766 481 
L 2356 481 
L 2356 0 
L 1766 0 
Q 1100 0 847 248 
Q 594 497 594 1153 
L 594 3053 
L 172 3053 
L 172 3500 
L 594 3500 
L 594 4494 
L 1172 4494 
z
" transform="scale(0.015625)"/>
       <path id="DejaVuSans-65" d="M 3597 1894 
L 3597 1613 
L 953 1613 
Q 991 1019 1311 708 
Q 1631 397 2203 397 
Q 2534 397 2845 478 
Q 3156 559 3463 722 
L 3463 178 
Q 3153 47 2828 -22 
Q 2503 -91 2169 -91 
Q 1331 -91 842 396 
Q 353 884 353 1716 
Q 353 2575 817 3079 
Q 1281 3584 2069 3584 
Q 2775 3584 3186 3129 
Q 3597 2675 3597 1894 
z
M 3022 2063 
Q 3016 2534 2758 2815 
Q 2500 3097 2075 3097 
Q 1594 3097 1305 2825 
Q 1016 2553 972 2059 
L 3022 2063 
z
" transform="scale(0.015625)"/>
       <path id="DejaVuSans-72" d="M 2631 2963 
Q 2534 3019 2420 3045 
Q 2306 3072 2169 3072 
Q 1681 3072 1420 2755 
Q 1159 2438 1159 1844 
L 1159 0 
L 581 0 
L 581 3500 
L 1159 3500 
L 1159 2956 
Q 1341 3275 1631 3429 
Q 1922 3584 2338 3584 
Q 2397 3584 2469 3576 
Q 2541 3569 2628 3553 
L 2631 2963 
z
" transform="scale(0.015625)"/>
       <path id="DejaVuSans-61" d="M 2194 1759 
Q 1497 1759 1228 1600 
Q 959 1441 959 1056 
Q 959 750 1161 570 
Q 1363 391 1709 391 
Q 2188 391 2477 730 
Q 2766 1069 2766 1631 
L 2766 1759 
L 2194 1759 
z
M 3341 1997 
L 3341 0 
L 2766 0 
L 2766 531 
Q 2569 213 2275 61 
Q 1981 -91 1556 -91 
Q 1019 -91 701 211 
Q 384 513 384 1019 
Q 384 1609 779 1909 
Q 1175 2209 1959 2209 
L 2766 2209 
L 2766 2266 
Q 2766 2663 2505 2880 
Q 2244 3097 1772 3097 
Q 1472 3097 1187 3025 
Q 903 2953 641 2809 
L 641 3341 
Q 956 3463 1253 3523 
Q 1550 3584 1831 3584 
Q 2591 3584 2966 3190 
Q 3341 2797 3341 1997 
z
" transform="scale(0.015625)"/>
       <path id="DejaVuSans-6f" d="M 1959 3097 
Q 1497 3097 1228 2736 
Q 959 2375 959 1747 
Q 959 1119 1226 758 
Q 1494 397 1959 397 
Q 2419 397 2687 759 
Q 2956 1122 2956 1747 
Q 2956 2369 2687 2733 
Q 2419 3097 1959 3097 
z
M 1959 3584 
Q 2709 3584 3137 3096 
Q 3566 2609 3566 1747 
Q 3566 888 3137 398 
Q 2709 -91 1959 -91 
Q 1206 -91 779 398 
Q 353 888 353 1747 
Q 353 2609 779 3096 
Q 1206 3584 1959 3584 
z
" transform="scale(0.015625)"/>
       <path id="DejaVuSans-6e" d="M 3513 2113 
L 3513 0 
L 2938 0 
L 2938 2094 
Q 2938 2591 2744 2837 
Q 2550 3084 2163 3084 
Q 1697 3084 1428 2787 
Q 1159 2491 1159 1978 
L 1159 0 
L 581 0 
L 581 3500 
L 1159 3500 
L 1159 2956 
Q 1366 3272 1645 3428 
Q 1925 3584 2291 3584 
Q 2894 3584 3203 3211 
Q 3513 2838 3513 2113 
z
" transform="scale(0.015625)"/>
       <path id="DejaVuSans-73" d="M 2834 3397 
L 2834 2853 
Q 2591 2978 2328 3040 
Q 2066 3103 1784 3103 
Q 1356 3103 1142 2972 
Q 928 2841 928 2578 
Q 928 2378 1081 2264 
Q 1234 2150 1697 2047 
L 1894 2003 
Q 2506 1872 2764 1633 
Q 3022 1394 3022 966 
Q 3022 478 2636 193 
Q 2250 -91 1575 -91 
Q 1294 -91 989 -36 
Q 684 19 347 128 
L 347 722 
Q 666 556 975 473 
Q 1284 391 1588 391 
Q 1994 391 2212 530 
Q 2431 669 2431 922 
Q 2431 1156 2273 1281 
Q 2116 1406 1581 1522 
L 1381 1569 
Q 847 1681 609 1914 
Q 372 2147 372 2553 
Q 372 3047 722 3315 
Q 1072 3584 1716 3584 
Q 2034 3584 2315 3537 
Q 2597 3491 2834 3397 
z
" transform="scale(0.015625)"/>
      </defs>
      <use xlink:href="#DejaVuSans-69"/>
      <use xlink:href="#DejaVuSans-74" x="27.783203"/>
      <use xlink:href="#DejaVuSans-65" x="66.992188"/>
      <use xlink:href="#DejaVuSans-72" x="128.515625"/>
      <use xlink:href="#DejaVuSans-61" x="169.628906"/>
      <use xlink:href="#DejaVuSans-74" x="230.908203"/>
      <use xlink:href="#DejaVuSans-69" x="270.117188"/>
      <use xlink:href="#DejaVuSans-6f" x="297.900391"/>
      <use xlink:href="#DejaVuSans-6e" x="359.082031"/>
      <use xlink:href="#DejaVuSans-73" x="422.460938"/>
     </g>
    </g>
   </g>
   <g id="matplotlib.axis_2">
    <g id="ytick_1">
     <g id="line2d_6">
      <defs>
       <path id="m27b3c9e9dc" d="M 0 0 
L -3.5 0 
" style="stroke: #000000; stroke-width: 0.8"/>
      </defs>
      <g>
       <use xlink:href="#m27b3c9e9dc" x="92.490625" y="308.301222" style="stroke: #000000; stroke-width: 0.8"/>
      </g>
     </g>
     <g id="text_7">
      <!-- −400 -->
      <g transform="translate(30.55625 315.89966) scale(0.2 -0.2)">
       <defs>
        <path id="DejaVuSans-2212" d="M 678 2272 
L 4684 2272 
L 4684 1741 
L 678 1741 
L 678 2272 
z
" transform="scale(0.015625)"/>
       </defs>
       <use xlink:href="#DejaVuSans-2212"/>
       <use xlink:href="#DejaVuSans-34" x="83.789062"/>
       <use xlink:href="#DejaVuSans-30" x="147.412109"/>
       <use xlink:href="#DejaVuSans-30" x="211.035156"/>
      </g>
     </g>
    </g>
    <g id="ytick_2">
     <g id="line2d_7">
      <g>
       <use xlink:href="#m27b3c9e9dc" x="92.490625" y="216.520244" style="stroke: #000000; stroke-width: 0.8"/>
      </g>
     </g>
     <g id="text_8">
      <!-- −200 -->
      <g transform="translate(30.55625 224.118682) scale(0.2 -0.2)">
       <use xlink:href="#DejaVuSans-2212"/>
       <use xlink:href="#DejaVuSans-32" x="83.789062"/>
       <use xlink:href="#DejaVuSans-30" x="147.412109"/>
       <use xlink:href="#DejaVuSans-30" x="211.035156"/>
      </g>
     </g>
    </g>
    <g id="ytick_3">
     <g id="line2d_8">
      <g>
       <use xlink:href="#m27b3c9e9dc" x="92.490625" y="124.739266" style="stroke: #000000; stroke-width: 0.8"/>
      </g>
     </g>
     <g id="text_9">
      <!-- 0 -->
      <g transform="translate(72.765625 132.337703) scale(0.2 -0.2)">
       <use xlink:href="#DejaVuSans-30"/>
      </g>
     </g>
    </g>
    <g id="ytick_4">
     <g id="line2d_9">
      <g>
       <use xlink:href="#m27b3c9e9dc" x="92.490625" y="32.958288" style="stroke: #000000; stroke-width: 0.8"/>
      </g>
     </g>
     <g id="text_10">
      <!-- 200 -->
      <g transform="translate(47.315625 40.556725) scale(0.2 -0.2)">
       <use xlink:href="#DejaVuSans-32"/>
       <use xlink:href="#DejaVuSans-30" x="63.623047"/>
       <use xlink:href="#DejaVuSans-30" x="127.246094"/>
      </g>
     </g>
    </g>
    <g id="text_11">
     <!-- Loss -->
     <g transform="translate(22.396875 191.970625) rotate(-90) scale(0.2 -0.2)">
      <defs>
       <path id="DejaVuSans-4c" d="M 628 4666 
L 1259 4666 
L 1259 531 
L 3531 531 
L 3531 0 
L 628 0 
L 628 4666 
z
" transform="scale(0.015625)"/>
      </defs>
      <use xlink:href="#DejaVuSans-4c"/>
      <use xlink:href="#DejaVuSans-6f" x="53.962891"/>
      <use xlink:href="#DejaVuSans-73" x="115.144531"/>
      <use xlink:href="#DejaVuSans-73" x="167.244141"/>
     </g>
    </g>
   </g>
   <g id="line2d_10">
    <path d="M 117.854261 68.010133 
L 118.388233 44.03625 
L 118.922204 82.894351 
L 119.456175 135.352713 
L 119.990147 149.038488 
L 120.524118 131.291508 
L 121.058089 102.480738 
L 121.59206 114.663802 
L 122.126032 109.036371 
L 122.660003 138.147454 
L 123.193974 138.134175 
L 124.261917 115.734088 
L 124.795888 94.696244 
L 125.863831 139.285864 
L 126.397802 148.794628 
L 126.931773 153.318112 
L 127.465745 156.877753 
L 127.999716 83.249261 
L 128.533687 75.174256 
L 129.067658 90.472575 
L 129.60163 116.457012 
L 130.135601 96.256189 
L 130.669572 94.259751 
L 131.203544 95.075452 
L 131.737515 105.7445 
L 132.271486 103.501109 
L 132.805458 98.938048 
L 133.339429 98.781496 
L 133.8734 115.658893 
L 134.407371 104.793282 
L 134.941343 107.674873 
L 135.475314 115.096063 
L 136.009285 112.159413 
L 136.543257 107.601371 
L 137.077228 104.28473 
L 137.611199 96.706982 
L 138.14517 93.680446 
L 138.679142 98.193758 
L 139.213113 106.085946 
L 139.747084 105.036287 
L 140.281056 102.32328 
L 140.815027 103.945881 
L 141.348998 99.317411 
L 141.882969 110.564882 
L 142.416941 112.307272 
L 142.950912 111.665537 
L 143.484883 108.167608 
L 144.018855 111.994753 
L 144.552826 117.502876 
L 145.086797 119.774341 
L 145.620769 119.367335 
L 146.15474 113.051816 
L 146.688711 123.794414 
L 147.222682 123.121725 
L 147.756654 116.751972 
L 148.290625 119.486809 
L 148.824596 125.7908 
L 149.358568 120.97786 
L 149.892539 122.459209 
L 150.42651 119.601567 
L 150.960481 123.368147 
L 151.494453 125.26741 
L 152.028424 126.254064 
L 153.096367 123.83292 
L 153.630338 125.066543 
L 154.164309 124.405088 
L 154.698281 124.342819 
L 155.232252 129.684678 
L 156.300194 122.440892 
L 156.834166 125.291613 
L 157.368137 126.638633 
L 157.902108 127.489029 
L 158.43608 124.104561 
L 158.970051 127.006761 
L 159.504022 124.634792 
L 160.037993 130.008476 
L 160.571965 132.148012 
L 161.105936 129.332871 
L 161.639907 130.19862 
L 162.173879 128.532356 
L 162.70785 130.615072 
L 163.241821 129.75035 
L 163.775792 131.974644 
L 164.309764 133.042215 
L 164.843735 130.869486 
L 165.377706 131.244071 
L 166.445649 129.485777 
L 166.97962 131.902921 
L 167.513592 130.300497 
L 168.047563 132.787354 
L 168.581534 130.1042 
L 169.115505 132.296661 
L 169.649477 128.828173 
L 170.183448 130.977045 
L 170.717419 133.624985 
L 171.251391 133.67938 
L 171.785362 132.890623 
L 172.319333 131.166154 
L 172.853304 130.029175 
L 173.387276 136.267329 
L 173.921247 133.171776 
L 174.455218 131.366796 
L 174.98919 131.143967 
L 175.523161 134.254403 
L 176.057132 133.153225 
L 176.591103 135.194366 
L 177.125075 132.960254 
L 178.193017 131.082405 
L 178.726989 132.584999 
L 179.26096 133.28086 
L 179.794931 131.34064 
L 180.328903 128.753412 
L 180.862874 129.527871 
L 181.396845 133.657564 
L 181.930816 133.308306 
L 182.464788 134.759946 
L 183.53273 132.202234 
L 184.066702 132.039851 
L 185.134644 128.292917 
L 185.668615 131.624082 
L 186.202587 132.367101 
L 186.736558 133.574511 
L 187.270529 133.467695 
L 187.804501 132.013518 
L 188.338472 133.775036 
L 189.406414 135.816838 
L 189.940386 134.15553 
L 190.474357 133.039205 
L 191.008328 132.365518 
L 191.5423 130.732202 
L 192.076271 130.422276 
L 193.144214 131.352335 
L 193.678185 130.397482 
L 194.212156 132.385544 
L 194.746127 133.44874 
L 195.280099 130.621022 
L 195.81407 129.915593 
L 196.348041 130.780378 
L 196.882013 130.366748 
L 197.415984 133.018114 
L 197.949955 129.699722 
L 198.483926 128.315437 
L 199.017898 131.243071 
L 199.551869 129.040349 
L 200.08584 129.159144 
L 200.619812 131.657577 
L 201.153783 130.8775 
L 201.687754 132.068264 
L 202.755697 129.381879 
L 203.289668 131.489051 
L 203.823639 132.135005 
L 204.357611 129.520044 
L 204.891582 128.526529 
L 205.425553 128.62714 
L 205.959525 129.507322 
L 206.493496 130.753813 
L 207.027467 131.148931 
L 207.561438 130.542598 
L 208.09541 130.694105 
L 208.629381 129.90088 
L 209.163352 130.887488 
L 209.697324 130.639837 
L 210.231295 129.355283 
L 210.765266 130.364738 
L 211.299237 132.129378 
L 211.833209 131.451921 
L 212.36718 133.778023 
L 212.901151 132.793608 
L 213.435123 132.710615 
L 213.969094 130.760632 
L 214.503065 131.242131 
L 215.037036 132.939387 
L 215.571008 133.68315 
L 216.104979 132.669464 
L 217.172922 132.445423 
L 217.706893 132.99424 
L 218.240864 133.06021 
L 218.774836 133.884776 
L 219.308807 132.891875 
L 219.842778 133.233263 
L 220.376749 133.746225 
L 220.910721 133.738837 
L 221.444692 134.525428 
L 221.978663 135.704528 
L 222.512635 132.744017 
L 223.046606 135.219024 
L 223.580577 135.591216 
L 224.114548 136.432579 
L 224.64852 132.965228 
L 225.182491 134.074961 
L 225.716462 133.540772 
L 226.250434 133.421911 
L 226.784405 135.236827 
L 227.318376 134.063046 
L 227.852347 133.228807 
L 228.386319 131.970848 
L 228.92029 134.240862 
L 229.454261 134.068398 
L 229.988233 134.936951 
L 230.522204 132.84045 
L 231.056175 131.756121 
L 231.590147 131.859176 
L 232.124118 132.698611 
L 232.658089 132.988609 
L 233.19206 131.533742 
L 233.726032 131.9431 
L 234.260003 132.900108 
L 234.793974 132.248788 
L 235.327946 134.623461 
L 235.861917 132.871426 
L 236.395888 133.638704 
L 236.929859 133.327539 
L 237.463831 131.803134 
L 237.997802 132.483812 
L 238.531773 131.304209 
L 239.065745 132.833603 
L 239.599716 131.565009 
L 240.133687 132.345541 
L 240.667658 132.763423 
L 241.20163 132.03401 
L 241.735601 132.010279 
L 242.269572 131.256279 
L 242.803544 133.787578 
L 243.337515 130.493204 
L 243.871486 130.135762 
L 244.405458 131.669798 
L 244.939429 129.935866 
L 245.4734 131.293905 
L 246.007371 131.094286 
L 247.075314 132.187449 
L 248.143257 131.860606 
L 248.677228 132.639894 
L 249.211199 131.282355 
L 249.74517 129.529896 
L 250.279142 132.111943 
L 251.347084 130.58016 
L 251.881056 130.407129 
L 252.415027 130.956694 
L 252.948998 129.941585 
L 253.482969 129.765758 
L 254.016941 130.065677 
L 254.550912 130.203255 
L 255.084883 129.980455 
L 255.618855 130.627125 
L 256.152826 129.133283 
L 256.686797 129.835422 
L 257.220769 129.533889 
L 257.75474 129.364363 
L 258.288711 130.856948 
L 258.822682 129.246312 
L 259.356654 129.706363 
L 259.890625 130.420866 
L 260.424596 129.545153 
L 260.958568 130.94038 
L 261.492539 129.371043 
L 262.02651 130.738 
L 262.560481 128.822413 
L 263.094453 130.609681 
L 263.628424 130.102713 
L 264.696367 128.586713 
L 265.230338 129.331779 
L 266.298281 130.013815 
L 266.832252 130.004582 
L 267.366223 129.563682 
L 267.900194 128.277651 
L 268.434166 129.132506 
L 268.968137 129.444018 
L 270.03608 131.421887 
L 270.570051 130.156646 
L 271.637993 128.386728 
L 272.171965 130.002226 
L 272.705936 128.766129 
L 273.239907 129.727915 
L 273.773879 130.295393 
L 274.841821 130.22921 
L 275.375792 129.990359 
L 275.909764 130.146286 
L 276.443735 130.742029 
L 276.977706 130.232945 
L 277.511678 130.335787 
L 278.045649 130.008628 
L 278.57962 129.832388 
L 279.113592 129.938118 
L 279.647563 130.276968 
L 280.181534 129.159825 
L 280.715505 128.427935 
L 281.249477 128.815487 
L 281.783448 128.502613 
L 282.317419 130.018413 
L 282.851391 128.712991 
L 283.385362 129.533333 
L 283.919333 129.687427 
L 284.453304 128.563167 
L 284.987276 128.720108 
L 285.521247 129.560897 
L 286.055218 129.261363 
L 286.58919 129.333281 
L 287.123161 130.124582 
L 287.657132 128.725848 
L 288.725075 128.192742 
L 289.793017 128.481323 
L 290.326989 129.22743 
L 290.86096 129.363656 
L 291.394931 129.292759 
L 291.928903 128.9788 
L 292.996845 128.90032 
L 293.530816 130.108556 
L 294.064788 129.085007 
L 295.13273 128.25835 
L 295.666702 128.582519 
L 296.200673 128.639878 
L 296.734644 127.829148 
L 297.802587 127.621747 
L 298.336558 129.027438 
L 298.870529 128.3083 
L 299.404501 129.060965 
L 299.938472 128.862738 
L 300.472443 128.027623 
L 301.006414 127.590238 
L 301.540386 127.417529 
L 302.074357 128.046032 
L 302.608328 127.509991 
L 303.1423 127.816074 
L 303.676271 127.724732 
L 304.210242 128.205471 
L 304.744214 127.909681 
L 305.278185 128.495895 
L 305.812156 127.306562 
L 306.346127 127.660654 
L 306.880099 127.074124 
L 307.41407 127.464054 
L 307.948041 127.567987 
L 308.482013 127.49324 
L 309.549955 128.934154 
L 310.617898 127.494717 
L 311.151869 127.974081 
L 311.68584 127.963539 
L 312.219812 127.433418 
L 312.753783 128.445598 
L 313.287754 128.005912 
L 314.355697 127.934451 
L 314.889668 127.502908 
L 315.423639 128.276474 
L 315.957611 127.592299 
L 316.491582 127.820724 
L 317.025553 126.41959 
L 317.559525 127.184355 
L 318.093496 128.350894 
L 319.161438 126.478268 
L 319.69541 127.287549 
L 320.763352 127.097101 
L 321.297324 127.943905 
L 321.831295 127.522738 
L 322.365266 127.369173 
L 322.899237 128.15539 
L 323.433209 127.606288 
L 323.96718 128.470277 
L 324.501151 127.53738 
L 325.035123 128.0492 
L 325.569094 127.705244 
L 326.637036 128.758381 
L 327.171008 128.176185 
L 327.704979 128.949204 
L 328.23895 127.88594 
L 328.772922 128.758213 
L 329.840864 127.763718 
L 330.374836 128.040503 
L 330.908807 127.818379 
L 331.442778 128.539413 
L 331.976749 127.909191 
L 332.510721 127.620119 
L 333.044692 128.215233 
L 333.578663 127.871823 
L 334.112635 128.730731 
L 334.646606 127.830667 
L 335.180577 127.973207 
L 335.714548 128.302131 
L 336.24852 128.874641 
L 336.782491 128.730779 
L 337.316462 127.936563 
L 337.850434 128.147492 
L 339.452347 126.865166 
L 339.986319 126.205635 
L 340.52029 127.195389 
L 341.054261 127.405704 
L 341.588233 125.752486 
L 342.122204 127.181242 
L 342.656175 127.621653 
L 343.190147 128.285453 
L 344.258089 127.952824 
L 344.79206 127.320872 
L 345.326032 128.138393 
L 345.860003 127.595705 
L 346.393974 127.777125 
L 346.927946 127.076334 
L 347.461917 128.23788 
L 347.995888 127.355098 
L 348.529859 127.310545 
L 349.063831 127.383422 
L 349.597802 128.051083 
L 350.131773 127.910596 
L 350.665745 127.191374 
L 351.199716 127.862572 
L 351.733687 127.925051 
L 352.267658 128.140637 
L 352.80163 126.966591 
L 353.335601 127.601789 
L 353.869572 127.303259 
L 354.403544 128.020273 
L 354.937515 127.395705 
L 356.005458 127.549729 
L 356.539429 127.240643 
L 357.0734 127.562493 
L 357.607371 127.469046 
L 358.141343 127.017582 
L 358.675314 126.329977 
L 359.209285 123.594003 
L 359.743257 125.641018 
L 360.277228 126.194417 
L 360.811199 127.565289 
L 361.34517 125.926257 
L 361.879142 126.83942 
L 362.947084 127.662776 
L 363.481056 127.0441 
L 364.015027 127.646191 
L 364.548998 126.217146 
L 365.082969 127.246878 
L 365.616941 126.968989 
L 366.150912 127.389283 
L 366.684883 127.366595 
L 367.218855 126.909622 
L 367.752826 126.920462 
L 368.286797 127.869458 
L 368.820769 127.673739 
L 369.35474 128.140586 
L 369.888711 128.296592 
L 370.422682 127.668539 
L 370.956654 127.522494 
L 371.490625 127.864583 
L 372.024596 128.588431 
L 372.558568 128.132745 
L 373.092539 128.535777 
L 373.62651 127.35185 
L 374.160481 126.453202 
L 375.228424 127.878267 
L 375.762395 127.473338 
L 376.830338 127.994517 
L 377.364309 127.785176 
L 377.898281 127.876873 
L 378.432252 128.483396 
L 378.966223 128.793588 
L 379.500194 128.220969 
L 380.034166 127.947937 
L 380.568137 128.312831 
L 381.102108 128.854793 
L 381.63608 128.997201 
L 382.170051 129.420327 
L 382.704022 127.991662 
L 383.237993 128.745344 
L 383.771965 128.776292 
L 384.305936 128.306823 
L 385.90785 127.365727 
L 386.441821 128.478041 
L 386.975792 127.867424 
L 387.509764 128.945239 
L 388.043735 127.881041 
L 388.577706 127.1771 
L 389.111678 128.168141 
L 389.645649 126.793318 
L 390.17962 127.978285 
L 390.713592 128.793073 
L 391.247563 128.765525 
L 391.781534 127.131237 
L 392.315505 128.101187 
L 393.383448 127.293432 
L 393.917419 127.158085 
L 394.451391 128.714304 
L 394.985362 128.370978 
L 395.519333 128.486902 
L 396.053304 128.947382 
L 396.587276 128.838007 
L 397.121247 128.260208 
L 397.655218 127.950895 
L 398.18919 126.283135 
L 398.723161 128.140022 
L 399.791103 126.207577 
L 400.325075 127.539877 
L 400.859046 127.357292 
L 401.926989 126.763006 
L 402.46096 127.259967 
L 402.994931 126.996985 
L 403.528903 126.529472 
L 404.596845 127.412347 
L 405.130816 127.049697 
L 405.664788 126.292813 
L 406.198759 126.895689 
L 406.73273 126.452249 
L 407.266702 126.552457 
L 407.800673 125.732269 
L 408.334644 127.180789 
L 408.868615 126.470533 
L 409.402587 128.10307 
L 409.936558 127.623482 
L 410.470529 126.756451 
L 411.004501 126.674386 
L 411.538472 126.430197 
L 412.072443 126.382953 
L 412.606414 126.125891 
L 413.140386 126.832502 
L 413.674357 126.755911 
L 414.208328 127.53797 
L 414.7423 126.623237 
L 415.276271 127.500371 
L 415.810242 127.788318 
L 416.344214 127.217003 
L 416.878185 125.721419 
L 417.412156 127.374596 
L 417.946127 126.931644 
L 418.480099 126.74159 
L 419.01407 127.096731 
L 419.548041 126.733166 
L 420.082013 126.862768 
L 420.615984 127.330305 
L 421.149955 126.593448 
L 421.683926 127.082128 
L 422.217898 126.241215 
L 422.751869 126.633846 
L 423.28584 126.147503 
L 423.819812 126.651037 
L 424.353783 127.735513 
L 425.421725 127.235319 
L 425.955697 126.961516 
L 426.489668 127.437199 
L 427.023639 127.198821 
L 427.557611 128.460895 
L 428.625553 127.468841 
L 429.693496 126.841378 
L 430.227467 128.237104 
L 430.761438 128.194875 
L 431.29541 127.590703 
L 431.829381 128.171441 
L 432.363352 128.288059 
L 432.897324 127.73191 
L 433.431295 125.465954 
L 433.965266 127.135651 
L 434.499237 127.340297 
L 435.033209 127.065755 
L 436.635123 126.838191 
L 437.169094 127.52029 
L 437.703065 127.098561 
L 438.237036 126.969432 
L 438.771008 126.098803 
L 439.304979 126.906418 
L 439.83895 127.215905 
L 440.372922 127.302956 
L 440.906893 127.894747 
L 441.440864 127.955347 
L 441.974836 127.820972 
L 443.042778 127.888876 
L 443.576749 128.066486 
L 444.110721 128.803499 
L 444.644692 128.845657 
L 445.178663 127.944364 
L 445.712635 127.772268 
L 446.246606 127.404629 
L 446.780577 128.84971 
L 447.314548 128.150776 
L 448.382491 128.344491 
L 448.916462 128.322087 
L 449.450434 128.418924 
L 449.984405 129.027839 
L 450.518376 127.744921 
L 451.052347 128.373087 
L 451.586319 128.703798 
L 452.12029 128.760818 
L 452.654261 128.525646 
L 453.188233 127.503979 
L 453.722204 128.062294 
L 454.790147 128.643735 
L 456.39206 128.131017 
L 456.926032 128.268253 
L 457.460003 128.735457 
L 457.993974 128.723364 
L 458.527946 128.321858 
L 459.061917 128.121742 
L 459.595888 128.456856 
L 460.663831 127.55073 
L 461.197802 128.638946 
L 461.731773 127.979961 
L 462.265745 127.939318 
L 462.799716 128.899886 
L 464.40163 128.486266 
L 464.935601 128.134005 
L 466.003544 128.665262 
L 466.537515 128.103499 
L 467.071486 128.333266 
L 467.605458 128.272072 
L 468.139429 128.749882 
L 468.6734 128.50958 
L 470.275314 128.499473 
L 471.343257 127.554026 
L 472.94517 128.884605 
L 473.479142 127.878574 
L 474.013113 128.530693 
L 474.547084 128.326842 
L 475.081056 127.605462 
L 475.615027 128.513567 
L 476.148998 128.938562 
L 477.216941 128.72805 
L 477.750912 128.386151 
L 478.284883 128.783101 
L 478.818855 128.184901 
L 479.886797 128.133105 
L 480.420769 128.750582 
L 480.95474 129.568759 
L 481.488711 129.101744 
L 482.022682 128.148939 
L 482.556654 128.871646 
L 483.090625 128.615969 
L 483.624596 129.793413 
L 484.158568 129.034977 
L 484.692539 128.759412 
L 485.22651 128.825487 
L 485.760481 128.702248 
L 486.828424 128.989234 
L 487.362395 129.501328 
L 487.896367 128.900245 
L 488.430338 128.86146 
L 488.964309 129.53309 
L 489.498281 128.054782 
L 490.032252 129.236677 
L 490.566223 129.465643 
L 491.100194 129.964422 
L 491.634166 128.734684 
L 492.168137 128.215194 
L 492.702108 129.03556 
L 493.23608 128.773163 
L 493.770051 129.047373 
L 494.837993 129.044006 
L 495.371965 129.319321 
L 495.905936 128.563791 
L 496.439907 129.011729 
L 496.973879 128.318426 
L 497.50785 128.286183 
L 498.041821 127.138914 
L 498.575792 128.622457 
L 499.109764 128.504327 
L 499.643735 128.592736 
L 500.177706 128.832187 
L 501.245649 129.037423 
L 502.313592 127.809104 
L 502.847563 128.392742 
L 503.381534 127.990917 
L 503.915505 128.813058 
L 504.449477 128.313435 
L 504.983448 128.162896 
L 505.517419 127.789042 
L 506.051391 128.223701 
L 506.585362 128.43314 
L 507.119333 128.489887 
L 507.653304 128.121951 
L 508.187276 127.979753 
L 508.721247 128.462189 
L 509.255218 128.703921 
L 509.78919 127.683583 
L 510.323161 127.67312 
L 510.857132 128.074475 
L 511.391103 127.454904 
L 511.925075 127.970714 
L 512.459046 129.080553 
L 512.993017 129.154413 
L 513.526989 128.514427 
L 514.06096 129.011695 
L 514.594931 128.909241 
L 515.128903 128.977208 
L 515.662874 128.132629 
L 516.196845 128.556288 
L 516.730816 127.716828 
L 517.264788 128.307662 
L 517.798759 128.415071 
L 518.33273 128.86873 
L 518.866702 129.115289 
L 519.400673 128.582988 
L 519.934644 128.590721 
L 521.002587 128.286928 
L 522.070529 128.424822 
L 522.604501 128.333838 
L 523.138472 128.597987 
L 523.672443 127.948214 
L 524.206414 128.183036 
L 524.740386 128.928406 
L 525.274357 128.505044 
L 525.808328 128.977094 
L 526.3423 127.945485 
L 526.876271 128.972658 
L 527.410242 128.971656 
L 527.944214 128.845404 
L 528.478185 129.12386 
L 529.012156 128.708879 
L 529.546127 128.582957 
L 530.080099 127.836887 
L 530.61407 130.04573 
L 531.148041 128.798843 
L 531.682013 129.143693 
L 532.215984 128.329285 
L 532.749955 129.239804 
L 533.283926 128.930261 
L 533.817898 128.951432 
L 534.351869 129.382906 
L 534.88584 129.070555 
L 535.419812 128.082144 
L 535.953783 128.609262 
L 537.021725 128.725486 
L 537.555697 128.285281 
L 538.089668 128.905435 
L 538.623639 128.931916 
L 539.157611 128.470201 
L 539.691582 128.500942 
L 540.225553 128.307246 
L 541.293496 128.803581 
L 541.827467 128.133226 
L 542.89541 127.877252 
L 543.429381 128.187444 
L 543.963352 128.324657 
L 544.497324 128.133732 
L 545.031295 129.491465 
L 545.565266 128.420976 
L 546.099237 128.626047 
L 546.633209 127.814621 
L 547.701151 128.600698 
L 548.769094 127.53657 
L 549.303065 128.289323 
L 550.371008 127.848374 
L 550.904979 128.013614 
L 551.43895 128.374404 
L 551.972922 128.276493 
L 552.506893 127.726133 
L 554.642778 128.123373 
L 555.176749 128.593274 
L 555.710721 128.025183 
L 556.244692 127.879194 
L 556.778663 127.872547 
L 557.312635 127.585772 
L 558.914548 128.033239 
L 559.44852 127.882367 
L 559.982491 128.339916 
L 560.516462 128.303777 
L 561.050434 127.588442 
L 561.584405 127.78635 
L 562.118376 127.568998 
L 562.652347 127.472765 
L 563.186319 128.308491 
L 563.72029 127.703087 
L 564.254261 128.154555 
L 564.788233 128.117919 
L 565.322204 127.952047 
L 565.856175 128.172754 
L 566.390147 128.193837 
L 566.924118 127.598257 
L 567.458089 127.688815 
L 567.99206 127.294305 
L 568.526032 127.750466 
L 569.060003 127.921249 
L 569.593974 127.733347 
L 570.127946 127.694063 
L 570.661917 127.786505 
L 571.195888 128.272949 
L 571.729859 127.79188 
L 572.263831 128.087616 
L 572.797802 127.834081 
L 573.865745 128.306809 
L 574.933687 128.167171 
L 575.467658 127.649578 
L 576.00163 128.319063 
L 576.535601 127.208487 
L 577.069572 127.670107 
L 577.603544 128.719482 
L 578.137515 127.621998 
L 578.671486 128.342651 
L 579.205458 127.951814 
L 579.739429 128.124872 
L 580.2734 128.104059 
L 580.807371 128.446385 
L 581.341343 127.959925 
L 582.409285 128.137055 
L 582.943257 128.542693 
L 584.011199 127.845509 
L 584.54517 128.096267 
L 585.079142 128.485013 
L 585.613113 128.309247 
L 586.147084 127.077541 
L 587.215027 127.773553 
L 588.282969 127.545165 
L 588.816941 128.473183 
L 589.350912 128.18567 
L 589.884883 127.167599 
L 591.486797 127.629923 
L 592.020769 127.983582 
L 592.55474 127.646028 
L 593.088711 128.271904 
L 593.622682 127.599941 
L 594.156654 127.737622 
L 594.690625 127.453109 
L 595.224596 127.813961 
L 595.758568 127.507727 
L 596.292539 128.200919 
L 596.82651 128.335249 
L 597.894453 127.612635 
L 598.962395 127.424422 
L 599.496367 127.572679 
L 600.030338 125.891945 
L 600.564309 127.173782 
L 601.098281 127.84229 
L 601.632252 127.952828 
L 602.700194 127.588948 
L 603.234166 128.086194 
L 603.768137 127.791232 
L 604.302108 127.288656 
L 604.83608 127.075581 
L 605.370051 127.47013 
L 605.904022 127.702949 
L 606.437993 127.18889 
L 606.971965 127.915919 
L 607.505936 128.084911 
L 608.039907 127.275617 
L 608.573879 126.949414 
L 609.10785 127.666678 
L 609.641821 128.157093 
L 610.709764 127.462313 
L 611.243735 127.990181 
L 611.777706 126.915693 
L 612.311678 127.125149 
L 613.37962 126.893283 
L 613.913592 127.640379 
L 614.447563 127.747758 
L 614.981534 127.703928 
L 615.515505 127.395001 
L 616.049477 126.906893 
L 616.583448 127.338218 
L 617.117419 127.592494 
L 617.651391 127.474913 
L 618.185362 128.158564 
L 619.253304 127.531598 
L 619.787276 127.621877 
L 620.321247 127.910986 
L 620.855218 128.007929 
L 621.923161 127.73232 
L 622.457132 127.46652 
L 622.991103 128.089422 
L 623.525075 127.795202 
L 624.059046 128.47234 
L 624.593017 127.679575 
L 625.126989 127.596604 
L 625.126989 127.596604 
" clip-path="url(#pbec368aa65)" style="fill: none; stroke: #1f77b4; stroke-width: 1.5; stroke-linecap: square"/>
   </g>
   <g id="line2d_11">
    <path d="M 117.854261 272.296377 
L 118.388233 296.03625 
L 118.922204 264.026086 
L 119.456175 207.799987 
L 119.990147 243.066594 
L 120.524118 193.629605 
L 121.058089 187.417065 
L 121.59206 175.612571 
L 122.126032 188.708502 
L 122.660003 182.468813 
L 123.193974 171.245586 
L 123.727946 163.200798 
L 124.261917 165.079255 
L 124.795888 164.641227 
L 125.329859 164.583714 
L 125.863831 170.878139 
L 126.397802 192.699071 
L 126.931773 175.336276 
L 127.465745 168.049861 
L 127.999716 151.28019 
L 128.533687 159.248282 
L 129.067658 146.28808 
L 129.60163 140.901759 
L 130.135601 145.551194 
L 130.669572 142.666678 
L 131.203544 143.648375 
L 131.737515 145.606527 
L 132.271486 140.852092 
L 132.805458 145.328446 
L 133.339429 143.822301 
L 133.8734 139.007021 
L 134.407371 137.082641 
L 134.941343 136.292485 
L 135.475314 134.505795 
L 136.009285 136.254305 
L 136.543257 137.319965 
L 137.077228 137.857859 
L 137.611199 137.248942 
L 138.14517 137.370009 
L 138.679142 140.140774 
L 139.213113 136.559143 
L 139.747084 136.20536 
L 140.281056 136.796645 
L 140.815027 135.641941 
L 141.348998 138.298132 
L 141.882969 136.548575 
L 142.416941 138.086089 
L 142.950912 137.093049 
L 143.484883 139.686466 
L 144.018855 134.660049 
L 144.552826 136.760201 
L 145.086797 136.928963 
L 145.620769 137.545384 
L 146.688711 135.145935 
L 147.756654 138.556555 
L 148.290625 138.551237 
L 148.824596 137.30024 
L 149.358568 134.618055 
L 149.892539 136.359067 
L 150.42651 135.329998 
L 151.494453 134.580303 
L 152.028424 133.586949 
L 152.562395 134.311701 
L 153.096367 134.512647 
L 153.630338 134.178027 
L 154.164309 133.276789 
L 154.698281 134.796104 
L 155.232252 135.5698 
L 155.766223 133.398496 
L 156.300194 134.94464 
L 156.834166 135.594839 
L 157.368137 136.023794 
L 157.902108 134.271671 
L 158.43608 133.52041 
L 158.970051 134.134421 
L 159.504022 134.354601 
L 160.037993 134.101571 
L 160.571965 134.851017 
L 161.105936 135.281328 
L 162.173879 133.753552 
L 162.70785 134.350299 
L 163.241821 134.197715 
L 163.775792 135.957243 
L 164.309764 133.746004 
L 164.843735 134.598264 
L 165.377706 133.655918 
L 165.911678 134.480093 
L 166.445649 134.348458 
L 166.97962 134.696788 
L 167.513592 133.512672 
L 168.047563 135.221075 
L 168.581534 133.730723 
L 169.115505 134.529465 
L 169.649477 132.370661 
L 170.717419 134.572126 
L 171.251391 134.072371 
L 171.785362 134.627531 
L 172.319333 133.686821 
L 172.853304 135.793761 
L 173.387276 136.798164 
L 173.921247 135.970146 
L 174.455218 136.020147 
L 175.523161 133.937679 
L 176.057132 133.883375 
L 176.591103 135.783679 
L 177.125075 134.246771 
L 177.659046 134.67069 
L 178.193017 133.787839 
L 178.726989 133.98603 
L 179.26096 133.749291 
L 179.794931 134.937766 
L 180.328903 133.590693 
L 180.862874 133.948955 
L 181.930816 135.163464 
L 182.464788 135.250225 
L 182.998759 133.417657 
L 183.53273 134.83951 
L 184.066702 134.042226 
L 184.600673 133.857755 
L 185.134644 132.744474 
L 185.668615 133.127158 
L 186.202587 133.733979 
L 187.270529 132.540356 
L 187.804501 132.381644 
L 188.338472 133.468012 
L 188.872443 132.89523 
L 189.406414 133.132457 
L 189.940386 133.054752 
L 190.474357 134.444325 
L 191.008328 134.492291 
L 191.5423 132.703812 
L 192.076271 132.803628 
L 192.610242 132.034225 
L 193.144214 131.855089 
L 193.678185 132.523579 
L 194.212156 133.899917 
L 194.746127 133.3576 
L 195.280099 133.204065 
L 195.81407 132.664753 
L 196.348041 133.850222 
L 196.882013 132.380251 
L 197.415984 134.508646 
L 197.949955 132.891838 
L 198.483926 132.60006 
L 199.551869 133.371722 
L 200.619812 133.289836 
L 201.153783 133.233779 
L 201.687754 132.59753 
L 202.221725 133.140671 
L 202.755697 133.469409 
L 203.289668 135.298431 
L 203.823639 133.081593 
L 204.357611 133.76687 
L 204.891582 133.628306 
L 205.425553 134.142602 
L 206.493496 133.234211 
L 207.027467 133.387198 
L 207.561438 132.977919 
L 208.09541 133.963267 
L 208.629381 133.314476 
L 209.163352 132.411628 
L 209.697324 133.066124 
L 210.231295 134.496277 
L 210.765266 133.755932 
L 211.299237 135.162542 
L 211.833209 133.581566 
L 212.36718 133.305612 
L 212.901151 133.524542 
L 213.969094 133.266223 
L 214.503065 134.589685 
L 215.037036 133.405029 
L 216.104979 134.669077 
L 216.63895 133.501361 
L 217.172922 134.54872 
L 217.706893 134.330751 
L 218.240864 133.594184 
L 218.774836 133.685259 
L 219.308807 133.132268 
L 220.376749 134.556337 
L 220.910721 134.747522 
L 221.444692 133.734818 
L 221.978663 134.057103 
L 222.512635 133.400449 
L 223.580577 135.078663 
L 224.114548 134.763415 
L 224.64852 132.670398 
L 225.182491 133.845273 
L 225.716462 134.183134 
L 226.250434 135.394309 
L 226.784405 134.32218 
L 227.318376 135.40424 
L 227.852347 135.965906 
L 228.386319 134.883353 
L 228.92029 135.13337 
L 229.454261 133.912702 
L 229.988233 134.390122 
L 230.522204 133.280426 
L 231.056175 133.387114 
L 232.124118 133.884612 
L 232.658089 134.965188 
L 233.19206 135.665181 
L 233.726032 133.526647 
L 234.260003 134.958716 
L 234.793974 134.407457 
L 235.327946 133.612359 
L 235.861917 132.453903 
L 236.395888 132.901754 
L 236.929859 134.501656 
L 237.463831 132.691125 
L 237.997802 132.707572 
L 238.531773 133.549338 
L 239.065745 133.084856 
L 239.599716 134.094326 
L 240.133687 134.739972 
L 240.667658 133.289971 
L 241.20163 133.717798 
L 241.735601 134.941621 
L 242.269572 133.779234 
L 242.803544 134.403515 
L 243.337515 132.779398 
L 243.871486 134.351158 
L 244.405458 134.337696 
L 244.939429 134.155492 
L 245.4734 132.525546 
L 246.007371 133.086877 
L 246.541343 131.931183 
L 247.075314 134.582029 
L 247.609285 134.47649 
L 248.677228 133.679502 
L 249.211199 133.335482 
L 250.279142 133.982783 
L 250.813113 133.474433 
L 251.347084 133.545177 
L 251.881056 134.065804 
L 252.415027 133.091783 
L 252.948998 133.394984 
L 253.482969 133.362916 
L 254.016941 133.734817 
L 255.084883 133.935786 
L 255.618855 134.215488 
L 256.152826 133.965623 
L 256.686797 135.494185 
L 257.75474 133.550128 
L 258.288711 133.11194 
L 258.822682 132.238664 
L 259.356654 132.453043 
L 259.890625 130.810441 
L 260.958568 134.124518 
L 261.492539 135.103878 
L 262.02651 133.781092 
L 262.560481 133.99295 
L 263.094453 132.891941 
L 263.628424 133.912624 
L 264.162395 133.264993 
L 265.230338 131.713326 
L 265.764309 132.090483 
L 266.298281 132.856766 
L 266.832252 133.123812 
L 267.366223 133.135695 
L 267.900194 132.27877 
L 268.434166 132.610056 
L 268.968137 134.40004 
L 269.502108 133.040585 
L 270.03608 133.285989 
L 270.570051 133.033763 
L 271.104022 134.071489 
L 271.637993 133.40679 
L 272.705936 133.948797 
L 273.239907 133.393113 
L 273.773879 134.972785 
L 274.30785 133.784309 
L 274.841821 134.35198 
L 275.375792 133.539669 
L 275.909764 133.178662 
L 276.443735 134.394646 
L 276.977706 132.953353 
L 277.511678 132.700312 
L 278.57962 133.674356 
L 279.113592 132.279369 
L 279.647563 132.540283 
L 280.181534 132.63201 
L 280.715505 132.106652 
L 281.783448 131.875436 
L 282.317419 132.101985 
L 282.851391 131.632349 
L 283.385362 132.243352 
L 283.919333 131.312647 
L 284.453304 132.518016 
L 284.987276 132.074249 
L 285.521247 133.525432 
L 286.58919 131.365266 
L 287.123161 132.376833 
L 287.657132 132.470925 
L 288.725075 131.396327 
L 289.259046 131.54476 
L 289.793017 132.302675 
L 290.326989 131.590595 
L 290.86096 132.470348 
L 291.394931 132.412599 
L 291.928903 131.673215 
L 292.996845 133.198533 
L 293.530816 133.673751 
L 294.064788 132.436078 
L 294.598759 131.4986 
L 295.13273 132.618971 
L 295.666702 132.490221 
L 296.200673 132.556169 
L 296.734644 131.788266 
L 297.268615 131.942189 
L 297.802587 131.903216 
L 298.336558 132.539686 
L 298.870529 130.569412 
L 299.404501 131.466622 
L 299.938472 132.033561 
L 300.472443 131.906376 
L 301.006414 130.992269 
L 302.074357 132.544933 
L 302.608328 132.199204 
L 303.1423 132.783126 
L 303.676271 132.067351 
L 304.210242 132.47541 
L 304.744214 132.238959 
L 305.278185 132.671792 
L 305.812156 132.285419 
L 306.346127 132.183509 
L 306.880099 131.733499 
L 307.948041 132.243679 
L 308.482013 132.787757 
L 310.083926 132.398486 
L 311.151869 132.428882 
L 311.68584 131.97184 
L 312.219812 132.431972 
L 312.753783 133.559509 
L 313.287754 133.063622 
L 313.821725 133.288699 
L 314.355697 132.205903 
L 314.889668 132.12337 
L 315.423639 131.742718 
L 315.957611 132.882066 
L 317.559525 132.404978 
L 318.627467 132.463904 
L 319.161438 131.924399 
L 319.69541 132.932016 
L 320.229381 132.058467 
L 320.763352 131.58803 
L 321.297324 132.137126 
L 321.831295 131.581192 
L 322.899237 132.978092 
L 323.433209 133.131272 
L 323.96718 134.108581 
L 324.501151 132.805618 
L 325.035123 132.444667 
L 325.569094 132.462697 
L 326.103065 132.82047 
L 326.637036 132.728157 
L 327.704979 132.097278 
L 328.23895 132.340179 
L 328.772922 132.742722 
L 329.306893 133.609747 
L 329.840864 132.67693 
L 330.374836 132.79041 
L 330.908807 132.485461 
L 331.442778 132.365072 
L 331.976749 133.161963 
L 332.510721 133.657013 
L 333.044692 132.932014 
L 333.578663 133.725188 
L 334.646606 133.602527 
L 335.714548 132.317633 
L 336.782491 134.369376 
L 337.316462 133.267726 
L 337.850434 134.488446 
L 338.384405 133.333287 
L 338.918376 133.597625 
L 339.452347 135.119699 
L 339.986319 133.710805 
L 340.52029 134.149777 
L 341.054261 133.742468 
L 341.588233 131.405445 
L 342.656175 134.263899 
L 343.190147 132.946087 
L 343.724118 133.713455 
L 344.258089 133.403473 
L 344.79206 132.451649 
L 345.326032 132.25086 
L 345.860003 132.746294 
L 346.927946 134.145032 
L 347.461917 133.773815 
L 347.995888 132.745112 
L 348.529859 133.204419 
L 349.063831 132.526789 
L 350.131773 132.501007 
L 350.665745 132.877976 
L 351.199716 132.827072 
L 351.733687 133.125438 
L 352.267658 133.077798 
L 353.335601 132.281847 
L 353.869572 132.139013 
L 354.403544 133.059999 
L 354.937515 132.847204 
L 355.471486 133.215277 
L 356.005458 133.038088 
L 356.539429 133.341311 
L 357.0734 133.198229 
L 357.607371 132.869768 
L 358.141343 131.541686 
L 358.675314 130.601714 
L 359.209285 130.221287 
L 359.743257 132.44365 
L 360.277228 132.860736 
L 360.811199 132.116999 
L 361.34517 132.416893 
L 361.879142 132.019425 
L 362.413113 132.093121 
L 362.947084 131.574188 
L 363.481056 131.30707 
L 364.015027 131.666799 
L 364.548998 131.029464 
L 365.082969 133.131409 
L 366.150912 131.66752 
L 366.684883 130.991933 
L 367.218855 131.632793 
L 368.286797 132.233251 
L 368.820769 131.305001 
L 369.35474 130.814976 
L 369.888711 131.642424 
L 370.422682 132.145508 
L 370.956654 131.893631 
L 371.490625 131.26196 
L 372.024596 131.298169 
L 372.558568 132.251309 
L 373.092539 131.744891 
L 373.62651 131.722877 
L 374.160481 131.213984 
L 374.694453 133.009789 
L 375.228424 132.112158 
L 376.296367 132.428836 
L 376.830338 132.054355 
L 377.898281 133.03029 
L 378.432252 132.790353 
L 378.966223 133.726846 
L 379.500194 131.680295 
L 380.034166 132.280318 
L 380.568137 133.309699 
L 381.102108 132.588921 
L 381.63608 132.646088 
L 382.170051 132.094469 
L 382.704022 132.633491 
L 383.237993 132.299455 
L 383.771965 132.719236 
L 384.305936 132.658564 
L 384.839907 130.7238 
L 385.373879 132.541882 
L 385.90785 131.890837 
L 386.441821 132.252463 
L 386.975792 132.059202 
L 388.043735 131.33064 
L 388.577706 131.620803 
L 389.111678 132.843674 
L 389.645649 132.807016 
L 390.17962 132.123512 
L 390.713592 132.344499 
L 391.247563 132.697557 
L 391.781534 132.59924 
L 392.315505 131.928732 
L 392.849477 132.041675 
L 393.383448 132.651605 
L 393.917419 132.183978 
L 394.985362 133.385368 
L 396.053304 133.234771 
L 397.121247 133.314622 
L 397.655218 133.123202 
L 398.18919 130.267198 
L 398.723161 131.961519 
L 399.257132 132.457787 
L 399.791103 131.922502 
L 400.325075 132.137043 
L 400.859046 131.904927 
L 401.393017 132.655 
L 401.926989 132.616746 
L 402.46096 131.219268 
L 402.994931 130.828335 
L 403.528903 131.633501 
L 404.062874 131.692301 
L 404.596845 133.00353 
L 405.130816 131.70666 
L 405.664788 132.741796 
L 406.198759 131.429345 
L 407.266702 131.603527 
L 407.800673 132.149271 
L 408.334644 131.578289 
L 408.868615 131.710636 
L 409.402587 133.077386 
L 409.936558 133.171804 
L 410.470529 131.927192 
L 411.004501 131.326142 
L 411.538472 131.693857 
L 412.072443 131.160785 
L 412.606414 132.014318 
L 413.674357 131.679714 
L 414.208328 131.938007 
L 414.7423 131.955963 
L 415.276271 132.66614 
L 415.810242 132.074235 
L 416.878185 131.45893 
L 417.412156 131.684332 
L 417.946127 132.235263 
L 418.480099 131.630971 
L 419.01407 132.221324 
L 419.548041 132.119814 
L 420.082013 132.407691 
L 420.615984 132.042115 
L 421.149955 131.368889 
L 421.683926 132.476174 
L 422.217898 132.517321 
L 422.751869 131.085981 
L 423.28584 131.956984 
L 423.819812 131.732544 
L 424.353783 132.372228 
L 424.887754 131.597795 
L 425.421725 131.822922 
L 425.955697 130.872069 
L 426.489668 132.252918 
L 427.023639 131.896233 
L 427.557611 132.798829 
L 428.625553 131.423575 
L 429.159525 132.113453 
L 429.693496 131.16003 
L 430.227467 132.417548 
L 430.761438 132.480037 
L 431.29541 131.610612 
L 431.829381 131.893874 
L 432.897324 130.508775 
L 433.431295 129.977019 
L 433.965266 131.37025 
L 434.499237 130.291315 
L 435.033209 131.423547 
L 435.56718 130.796264 
L 436.101151 131.738487 
L 436.635123 131.537825 
L 437.169094 130.668533 
L 437.703065 131.041875 
L 438.237036 130.949823 
L 438.771008 131.078029 
L 439.304979 131.601004 
L 439.83895 131.066591 
L 440.372922 130.974 
L 440.906893 130.53843 
L 441.440864 131.155066 
L 441.974836 131.48501 
L 442.508807 131.632228 
L 443.576749 130.628291 
L 444.110721 132.335118 
L 444.644692 131.484981 
L 445.178663 131.950548 
L 445.712635 131.455994 
L 446.246606 131.328138 
L 447.314548 130.68959 
L 447.84852 131.92097 
L 448.382491 131.415325 
L 448.916462 131.543803 
L 449.450434 131.519969 
L 449.984405 131.803965 
L 450.518376 131.677254 
L 451.052347 131.359358 
L 451.586319 131.90808 
L 452.12029 131.520382 
L 452.654261 131.787374 
L 453.188233 131.411736 
L 453.722204 131.404292 
L 454.256175 132.255072 
L 454.790147 131.798463 
L 455.324118 130.909378 
L 455.858089 131.273687 
L 456.39206 131.908029 
L 456.926032 131.302501 
L 457.460003 131.099072 
L 457.993974 131.333146 
L 458.527946 131.356257 
L 459.061917 130.961632 
L 459.595888 131.366747 
L 460.129859 130.951825 
L 460.663831 131.143372 
L 461.197802 131.212655 
L 461.731773 131.168558 
L 462.265745 130.967352 
L 462.799716 131.518516 
L 463.867658 131.433964 
L 464.40163 131.759866 
L 465.469572 131.484234 
L 466.003544 131.763791 
L 466.537515 131.549835 
L 467.071486 131.751839 
L 467.605458 131.656265 
L 468.139429 132.157738 
L 468.6734 131.513777 
L 469.207371 131.526221 
L 469.741343 131.854591 
L 470.275314 132.654571 
L 471.343257 131.865287 
L 471.877228 130.593149 
L 472.411199 131.921112 
L 472.94517 131.63564 
L 473.479142 130.461283 
L 474.547084 130.893114 
L 475.081056 131.384476 
L 475.615027 130.934519 
L 476.148998 131.984969 
L 476.682969 131.163396 
L 477.216941 131.732841 
L 477.750912 131.006899 
L 478.284883 131.856539 
L 478.818855 131.359202 
L 479.352826 132.228461 
L 479.886797 130.795866 
L 480.420769 131.643273 
L 480.95474 132.082196 
L 481.488711 131.832027 
L 482.022682 132.757849 
L 482.556654 132.44943 
L 483.090625 132.587832 
L 483.624596 131.584111 
L 484.158568 131.543406 
L 484.692539 131.805415 
L 485.22651 131.450258 
L 486.294453 131.646294 
L 486.828424 132.107408 
L 487.362395 131.880479 
L 487.896367 132.134369 
L 488.430338 131.970307 
L 488.964309 132.386177 
L 489.498281 132.565465 
L 490.032252 131.64731 
L 490.566223 132.947028 
L 491.100194 131.513955 
L 491.634166 130.972511 
L 492.168137 131.252736 
L 492.702108 131.206001 
L 494.837993 132.653737 
L 495.371965 131.817172 
L 495.905936 132.11926 
L 496.439907 132.101248 
L 496.973879 131.966333 
L 497.50785 132.36078 
L 498.041821 131.258936 
L 498.575792 131.780393 
L 499.109764 131.54957 
L 500.177706 132.062622 
L 500.711678 131.957732 
L 501.245649 131.340718 
L 502.313592 131.670869 
L 502.847563 132.04183 
L 503.381534 132.236152 
L 503.915505 131.734186 
L 504.983448 131.782786 
L 505.517419 132.226408 
L 506.051391 132.283621 
L 506.585362 132.111478 
L 507.119333 132.220502 
L 507.653304 131.680684 
L 508.187276 132.290601 
L 508.721247 132.376387 
L 509.255218 133.543685 
L 509.78919 132.38326 
L 510.323161 131.997624 
L 510.857132 132.406125 
L 511.391103 131.864386 
L 512.993017 132.973723 
L 513.526989 132.207043 
L 514.06096 132.183732 
L 514.594931 132.917983 
L 515.128903 132.879916 
L 515.662874 131.609121 
L 516.196845 131.75248 
L 516.730816 131.61044 
L 517.264788 132.08651 
L 517.798759 131.515783 
L 518.33273 131.668492 
L 519.400673 130.424179 
L 519.934644 131.188671 
L 520.468615 131.541565 
L 521.002587 131.578801 
L 521.536558 131.760852 
L 522.070529 132.089249 
L 522.604501 131.078796 
L 523.138472 132.11539 
L 523.672443 131.641106 
L 524.206414 131.402283 
L 524.740386 130.979465 
L 525.274357 131.242137 
L 526.3423 131.105524 
L 526.876271 132.424635 
L 527.410242 132.220091 
L 527.944214 131.791997 
L 528.478185 131.938228 
L 529.012156 131.510736 
L 529.546127 132.098564 
L 530.080099 132.012834 
L 530.61407 133.27861 
L 531.148041 132.694443 
L 531.682013 132.277825 
L 532.215984 132.339868 
L 532.749955 132.847564 
L 533.283926 132.572358 
L 533.817898 133.344471 
L 534.351869 133.44242 
L 534.88584 132.453226 
L 535.419812 132.987202 
L 535.953783 132.14924 
L 536.487754 132.405849 
L 537.555697 132.268171 
L 538.089668 132.281259 
L 538.623639 132.721498 
L 539.157611 132.325764 
L 539.691582 133.125103 
L 540.225553 133.109208 
L 540.759525 132.866023 
L 541.293496 133.262784 
L 541.827467 132.177378 
L 542.361438 132.36252 
L 542.89541 132.07249 
L 543.429381 132.346752 
L 544.497324 131.733131 
L 545.031295 132.763355 
L 545.565266 132.709225 
L 546.099237 132.462485 
L 547.16718 131.213038 
L 547.701151 131.659717 
L 548.235123 130.566539 
L 548.769094 130.559564 
L 549.303065 131.276871 
L 549.837036 130.846549 
L 550.371008 131.440441 
L 550.904979 130.957548 
L 551.43895 131.844636 
L 551.972922 131.094976 
L 552.506893 131.335715 
L 553.040864 131.407347 
L 553.574836 131.85281 
L 554.108807 131.305705 
L 554.642778 131.308068 
L 555.176749 131.126722 
L 555.710721 131.168921 
L 556.244692 130.91508 
L 556.778663 130.92399 
L 557.312635 130.733538 
L 557.846606 131.131068 
L 558.380577 131.184255 
L 558.914548 130.941223 
L 559.44852 131.384591 
L 559.982491 131.049911 
L 560.516462 131.456985 
L 561.050434 131.590332 
L 562.118376 131.392327 
L 562.652347 131.21249 
L 563.186319 131.931509 
L 563.72029 131.14334 
L 564.254261 131.232342 
L 564.788233 131.723453 
L 565.322204 131.587985 
L 566.390147 131.615276 
L 566.924118 131.440857 
L 567.99206 132.056708 
L 568.526032 131.762927 
L 569.060003 131.632992 
L 569.593974 132.353469 
L 570.661917 132.599687 
L 571.195888 132.971818 
L 572.263831 131.790298 
L 572.797802 132.466741 
L 573.331773 131.938196 
L 573.865745 131.1858 
L 574.399716 131.753227 
L 574.933687 131.454488 
L 575.467658 131.32602 
L 576.00163 131.732054 
L 577.603544 131.451028 
L 578.137515 131.069915 
L 578.671486 131.545053 
L 579.205458 132.321151 
L 579.739429 131.661514 
L 580.2734 131.759212 
L 581.341343 131.447085 
L 582.409285 132.403037 
L 582.943257 132.550619 
L 583.477228 132.262497 
L 584.54517 132.502361 
L 585.079142 131.712199 
L 585.613113 131.984447 
L 586.147084 131.804647 
L 586.681056 131.906886 
L 587.215027 131.496733 
L 587.748998 131.928376 
L 588.282969 131.837591 
L 588.816941 131.989177 
L 589.350912 131.447812 
L 589.884883 132.31555 
L 590.952826 131.861633 
L 591.486797 131.085775 
L 592.55474 131.103766 
L 593.088711 131.831547 
L 593.622682 132.165961 
L 594.156654 131.924331 
L 594.690625 132.49913 
L 595.224596 132.133288 
L 595.758568 132.703963 
L 596.292539 131.519711 
L 596.82651 131.787084 
L 597.360481 131.61516 
L 597.894453 131.905243 
L 598.428424 132.023337 
L 598.962395 131.424601 
L 599.496367 131.941062 
L 600.030338 131.584992 
L 600.564309 131.396081 
L 601.632252 131.734183 
L 602.166223 132.120899 
L 602.700194 131.868529 
L 603.234166 131.330176 
L 603.768137 131.950312 
L 604.302108 132.09371 
L 604.83608 131.285402 
L 605.370051 131.09023 
L 605.904022 131.418014 
L 606.437993 131.045444 
L 606.971965 130.533685 
L 607.505936 130.349473 
L 608.573879 130.653642 
L 609.10785 131.671098 
L 609.641821 131.704918 
L 610.709764 131.017815 
L 611.243735 131.587552 
L 611.777706 130.190526 
L 612.311678 131.64654 
L 612.845649 130.790442 
L 613.37962 131.176106 
L 613.913592 131.278116 
L 614.447563 132.267317 
L 614.981534 132.623179 
L 615.515505 131.651776 
L 616.049477 131.352801 
L 616.583448 131.294282 
L 617.117419 131.836177 
L 617.651391 131.318101 
L 618.185362 131.550916 
L 618.719333 131.334676 
L 619.253304 131.388509 
L 620.321247 131.856621 
L 620.855218 132.054724 
L 621.38919 131.115779 
L 621.923161 130.623342 
L 622.457132 130.862776 
L 622.991103 131.410627 
L 623.525075 131.349292 
L 624.059046 131.637476 
L 624.593017 130.877067 
L 625.126989 130.668975 
L 625.126989 130.668975 
" clip-path="url(#pbec368aa65)" style="fill: none; stroke: #ff7f0e; stroke-width: 1.5; stroke-linecap: square"/>
   </g>
   <g id="patch_3">
    <path d="M 92.490625 308.63625 
L 92.490625 31.43625 
" style="fill: none; stroke: #000000; stroke-width: 0.8; stroke-linejoin: miter; stroke-linecap: square"/>
   </g>
   <g id="patch_4">
    <path d="M 650.490625 308.63625 
L 650.490625 31.43625 
" style="fill: none; stroke: #000000; stroke-width: 0.8; stroke-linejoin: miter; stroke-linecap: square"/>
   </g>
   <g id="patch_5">
    <path d="M 92.490625 308.63625 
L 650.490625 308.63625 
" style="fill: none; stroke: #000000; stroke-width: 0.8; stroke-linejoin: miter; stroke-linecap: square"/>
   </g>
   <g id="patch_6">
    <path d="M 92.490625 31.43625 
L 650.490625 31.43625 
" style="fill: none; stroke: #000000; stroke-width: 0.8; stroke-linejoin: miter; stroke-linecap: square"/>
   </g>
   <g id="text_12">
    <!-- Generator and Discriminator Loss During Training -->
    <g transform="translate(74.258125 25.43625) scale(0.24 -0.24)">
     <defs>
      <path id="DejaVuSans-47" d="M 3809 666 
L 3809 1919 
L 2778 1919 
L 2778 2438 
L 4434 2438 
L 4434 434 
Q 4069 175 3628 42 
Q 3188 -91 2688 -91 
Q 1594 -91 976 548 
Q 359 1188 359 2328 
Q 359 3472 976 4111 
Q 1594 4750 2688 4750 
Q 3144 4750 3555 4637 
Q 3966 4525 4313 4306 
L 4313 3634 
Q 3963 3931 3569 4081 
Q 3175 4231 2741 4231 
Q 1884 4231 1454 3753 
Q 1025 3275 1025 2328 
Q 1025 1384 1454 906 
Q 1884 428 2741 428 
Q 3075 428 3337 486 
Q 3600 544 3809 666 
z
" transform="scale(0.015625)"/>
      <path id="DejaVuSans-20" transform="scale(0.015625)"/>
      <path id="DejaVuSans-64" d="M 2906 2969 
L 2906 4863 
L 3481 4863 
L 3481 0 
L 2906 0 
L 2906 525 
Q 2725 213 2448 61 
Q 2172 -91 1784 -91 
Q 1150 -91 751 415 
Q 353 922 353 1747 
Q 353 2572 751 3078 
Q 1150 3584 1784 3584 
Q 2172 3584 2448 3432 
Q 2725 3281 2906 2969 
z
M 947 1747 
Q 947 1113 1208 752 
Q 1469 391 1925 391 
Q 2381 391 2643 752 
Q 2906 1113 2906 1747 
Q 2906 2381 2643 2742 
Q 2381 3103 1925 3103 
Q 1469 3103 1208 2742 
Q 947 2381 947 1747 
z
" transform="scale(0.015625)"/>
      <path id="DejaVuSans-44" d="M 1259 4147 
L 1259 519 
L 2022 519 
Q 2988 519 3436 956 
Q 3884 1394 3884 2338 
Q 3884 3275 3436 3711 
Q 2988 4147 2022 4147 
L 1259 4147 
z
M 628 4666 
L 1925 4666 
Q 3281 4666 3915 4102 
Q 4550 3538 4550 2338 
Q 4550 1131 3912 565 
Q 3275 0 1925 0 
L 628 0 
L 628 4666 
z
" transform="scale(0.015625)"/>
      <path id="DejaVuSans-63" d="M 3122 3366 
L 3122 2828 
Q 2878 2963 2633 3030 
Q 2388 3097 2138 3097 
Q 1578 3097 1268 2742 
Q 959 2388 959 1747 
Q 959 1106 1268 751 
Q 1578 397 2138 397 
Q 2388 397 2633 464 
Q 2878 531 3122 666 
L 3122 134 
Q 2881 22 2623 -34 
Q 2366 -91 2075 -91 
Q 1284 -91 818 406 
Q 353 903 353 1747 
Q 353 2603 823 3093 
Q 1294 3584 2113 3584 
Q 2378 3584 2631 3529 
Q 2884 3475 3122 3366 
z
" transform="scale(0.015625)"/>
      <path id="DejaVuSans-6d" d="M 3328 2828 
Q 3544 3216 3844 3400 
Q 4144 3584 4550 3584 
Q 5097 3584 5394 3201 
Q 5691 2819 5691 2113 
L 5691 0 
L 5113 0 
L 5113 2094 
Q 5113 2597 4934 2840 
Q 4756 3084 4391 3084 
Q 3944 3084 3684 2787 
Q 3425 2491 3425 1978 
L 3425 0 
L 2847 0 
L 2847 2094 
Q 2847 2600 2669 2842 
Q 2491 3084 2119 3084 
Q 1678 3084 1418 2786 
Q 1159 2488 1159 1978 
L 1159 0 
L 581 0 
L 581 3500 
L 1159 3500 
L 1159 2956 
Q 1356 3278 1631 3431 
Q 1906 3584 2284 3584 
Q 2666 3584 2933 3390 
Q 3200 3197 3328 2828 
z
" transform="scale(0.015625)"/>
      <path id="DejaVuSans-75" d="M 544 1381 
L 544 3500 
L 1119 3500 
L 1119 1403 
Q 1119 906 1312 657 
Q 1506 409 1894 409 
Q 2359 409 2629 706 
Q 2900 1003 2900 1516 
L 2900 3500 
L 3475 3500 
L 3475 0 
L 2900 0 
L 2900 538 
Q 2691 219 2414 64 
Q 2138 -91 1772 -91 
Q 1169 -91 856 284 
Q 544 659 544 1381 
z
M 1991 3584 
L 1991 3584 
z
" transform="scale(0.015625)"/>
      <path id="DejaVuSans-67" d="M 2906 1791 
Q 2906 2416 2648 2759 
Q 2391 3103 1925 3103 
Q 1463 3103 1205 2759 
Q 947 2416 947 1791 
Q 947 1169 1205 825 
Q 1463 481 1925 481 
Q 2391 481 2648 825 
Q 2906 1169 2906 1791 
z
M 3481 434 
Q 3481 -459 3084 -895 
Q 2688 -1331 1869 -1331 
Q 1566 -1331 1297 -1286 
Q 1028 -1241 775 -1147 
L 775 -588 
Q 1028 -725 1275 -790 
Q 1522 -856 1778 -856 
Q 2344 -856 2625 -561 
Q 2906 -266 2906 331 
L 2906 616 
Q 2728 306 2450 153 
Q 2172 0 1784 0 
Q 1141 0 747 490 
Q 353 981 353 1791 
Q 353 2603 747 3093 
Q 1141 3584 1784 3584 
Q 2172 3584 2450 3431 
Q 2728 3278 2906 2969 
L 2906 3500 
L 3481 3500 
L 3481 434 
z
" transform="scale(0.015625)"/>
      <path id="DejaVuSans-54" d="M -19 4666 
L 3928 4666 
L 3928 4134 
L 2272 4134 
L 2272 0 
L 1638 0 
L 1638 4134 
L -19 4134 
L -19 4666 
z
" transform="scale(0.015625)"/>
     </defs>
     <use xlink:href="#DejaVuSans-47"/>
     <use xlink:href="#DejaVuSans-65" x="77.490234"/>
     <use xlink:href="#DejaVuSans-6e" x="139.013672"/>
     <use xlink:href="#DejaVuSans-65" x="202.392578"/>
     <use xlink:href="#DejaVuSans-72" x="263.916016"/>
     <use xlink:href="#DejaVuSans-61" x="305.029297"/>
     <use xlink:href="#DejaVuSans-74" x="366.308594"/>
     <use xlink:href="#DejaVuSans-6f" x="405.517578"/>
     <use xlink:href="#DejaVuSans-72" x="466.699219"/>
     <use xlink:href="#DejaVuSans-20" x="507.8125"/>
     <use xlink:href="#DejaVuSans-61" x="539.599609"/>
     <use xlink:href="#DejaVuSans-6e" x="600.878906"/>
     <use xlink:href="#DejaVuSans-64" x="664.257812"/>
     <use xlink:href="#DejaVuSans-20" x="727.734375"/>
     <use xlink:href="#DejaVuSans-44" x="759.521484"/>
     <use xlink:href="#DejaVuSans-69" x="836.523438"/>
     <use xlink:href="#DejaVuSans-73" x="864.306641"/>
     <use xlink:href="#DejaVuSans-63" x="916.40625"/>
     <use xlink:href="#DejaVuSans-72" x="971.386719"/>
     <use xlink:href="#DejaVuSans-69" x="1012.5"/>
     <use xlink:href="#DejaVuSans-6d" x="1040.283203"/>
     <use xlink:href="#DejaVuSans-69" x="1137.695312"/>
     <use xlink:href="#DejaVuSans-6e" x="1165.478516"/>
     <use xlink:href="#DejaVuSans-61" x="1228.857422"/>
     <use xlink:href="#DejaVuSans-74" x="1290.136719"/>
     <use xlink:href="#DejaVuSans-6f" x="1329.345703"/>
     <use xlink:href="#DejaVuSans-72" x="1390.527344"/>
     <use xlink:href="#DejaVuSans-20" x="1431.640625"/>
     <use xlink:href="#DejaVuSans-4c" x="1463.427734"/>
     <use xlink:href="#DejaVuSans-6f" x="1517.390625"/>
     <use xlink:href="#DejaVuSans-73" x="1578.572266"/>
     <use xlink:href="#DejaVuSans-73" x="1630.671875"/>
     <use xlink:href="#DejaVuSans-20" x="1682.771484"/>
     <use xlink:href="#DejaVuSans-44" x="1714.558594"/>
     <use xlink:href="#DejaVuSans-75" x="1791.560547"/>
     <use xlink:href="#DejaVuSans-72" x="1854.939453"/>
     <use xlink:href="#DejaVuSans-69" x="1896.052734"/>
     <use xlink:href="#DejaVuSans-6e" x="1923.835938"/>
     <use xlink:href="#DejaVuSans-67" x="1987.214844"/>
     <use xlink:href="#DejaVuSans-20" x="2050.691406"/>
     <use xlink:href="#DejaVuSans-54" x="2082.478516"/>
     <use xlink:href="#DejaVuSans-72" x="2128.8125"/>
     <use xlink:href="#DejaVuSans-61" x="2169.925781"/>
     <use xlink:href="#DejaVuSans-69" x="2231.205078"/>
     <use xlink:href="#DejaVuSans-6e" x="2258.988281"/>
     <use xlink:href="#DejaVuSans-69" x="2322.367188"/>
     <use xlink:href="#DejaVuSans-6e" x="2350.150391"/>
     <use xlink:href="#DejaVuSans-67" x="2413.529297"/>
    </g>
   </g>
   <g id="legend_1">
    <g id="patch_7">
     <path d="M 556.99375 106.14875 
L 636.490625 106.14875 
Q 640.490625 106.14875 640.490625 102.14875 
L 640.490625 45.43625 
Q 640.490625 41.43625 636.490625 41.43625 
L 556.99375 41.43625 
Q 552.99375 41.43625 552.99375 45.43625 
L 552.99375 102.14875 
Q 552.99375 106.14875 556.99375 106.14875 
z
" style="fill: #ffffff; opacity: 0.8; stroke: #cccccc; stroke-linejoin: miter"/>
    </g>
    <g id="line2d_12">
     <path d="M 560.99375 57.633125 
L 580.99375 57.633125 
L 600.99375 57.633125 
" style="fill: none; stroke: #1f77b4; stroke-width: 1.5; stroke-linecap: square"/>
    </g>
    <g id="text_13">
     <!-- G -->
     <g transform="translate(616.99375 64.633125) scale(0.2 -0.2)">
      <use xlink:href="#DejaVuSans-47"/>
     </g>
    </g>
    <g id="line2d_13">
     <path d="M 560.99375 86.989375 
L 580.99375 86.989375 
L 600.99375 86.989375 
" style="fill: none; stroke: #ff7f0e; stroke-width: 1.5; stroke-linecap: square"/>
    </g>
    <g id="text_14">
     <!-- D -->
     <g transform="translate(616.99375 93.989375) scale(0.2 -0.2)">
      <use xlink:href="#DejaVuSans-44"/>
     </g>
    </g>
   </g>
  </g>
 </g>
 <defs>
  <clipPath id="pbec368aa65">
   <rect x="92.490625" y="31.43625" width="558" height="277.2"/>
  </clipPath>
 </defs>
</svg>
