<?xml version="1.0" encoding="utf-8" standalone="no"?>
<!DOCTYPE svg PUBLIC "-//W3C//DTD SVG 1.1//EN"
  "http://www.w3.org/Graphics/SVG/1.1/DTD/svg11.dtd">
<svg xmlns:xlink="http://www.w3.org/1999/xlink" width="675.923125pt" height="365.54875pt" viewBox="0 0 675.923125 365.54875" xmlns="http://www.w3.org/2000/svg" version="1.1">
 <metadata>
  <rdf:RDF xmlns:dc="http://purl.org/dc/elements/1.1/" xmlns:cc="http://creativecommons.org/ns#" xmlns:rdf="http://www.w3.org/1999/02/22-rdf-syntax-ns#">
   <cc:Work>
    <dc:type rdf:resource="http://purl.org/dc/dcmitype/StillImage"/>
    <dc:date>2024-02-07T04:47:02.708167</dc:date>
    <dc:format>image/svg+xml</dc:format>
    <dc:creator>
     <cc:Agent>
      <dc:title>Matplotlib v3.7.2, https://matplotlib.org/</dc:title>
     </cc:Agent>
    </dc:creator>
   </cc:Work>
  </rdf:RDF>
 </metadata>
 <defs>
  <style type="text/css">*{stroke-linejoin: round; stroke-linecap: butt}</style>
 </defs>
 <g id="figure_1">
  <g id="patch_1">
   <path d="M 0 365.54875 
L 675.923125 365.54875 
L 675.923125 -0 
L 0 -0 
z
" style="fill: #ffffff"/>
  </g>
  <g id="axes_1">
   <g id="patch_2">
    <path d="M 92.490625 308.63625 
L 650.490625 308.63625 
L 650.490625 31.43625 
L 92.490625 31.43625 
z
" style="fill: #ffffff"/>
   </g>
   <g id="matplotlib.axis_1">
    <g id="xtick_1">
     <g id="line2d_1">
      <defs>
       <path id="m56b2946db0" d="M 0 0 
L 0 3.5 
" style="stroke: #000000; stroke-width: 0.8"/>
      </defs>
      <g>
       <use xlink:href="#m56b2946db0" x="117.854261" y="308.63625" style="stroke: #000000; stroke-width: 0.8"/>
      </g>
     </g>
     <g id="text_1">
      <!-- 0 -->
      <g transform="translate(111.491761 330.833125) scale(0.2 -0.2)">
       <defs>
        <path id="DejaVuSans-30" d="M 2034 4250 
Q 1547 4250 1301 3770 
Q 1056 3291 1056 2328 
Q 1056 1369 1301 889 
Q 1547 409 2034 409 
Q 2525 409 2770 889 
Q 3016 1369 3016 2328 
Q 3016 3291 2770 3770 
Q 2525 4250 2034 4250 
z
M 2034 4750 
Q 2819 4750 3233 4129 
Q 3647 3509 3647 2328 
Q 3647 1150 3233 529 
Q 2819 -91 2034 -91 
Q 1250 -91 836 529 
Q 422 1150 422 2328 
Q 422 3509 836 4129 
Q 1250 4750 2034 4750 
z
" transform="scale(0.015625)"/>
       </defs>
       <use xlink:href="#DejaVuSans-30"/>
      </g>
     </g>
    </g>
    <g id="xtick_2">
     <g id="line2d_2">
      <g>
       <use xlink:href="#m56b2946db0" x="181.263352" y="308.63625" style="stroke: #000000; stroke-width: 0.8"/>
      </g>
     </g>
     <g id="text_2">
      <!-- 200 -->
      <g transform="translate(162.175852 330.833125) scale(0.2 -0.2)">
       <defs>
        <path id="DejaVuSans-32" d="M 1228 531 
L 3431 531 
L 3431 0 
L 469 0 
L 469 531 
Q 828 903 1448 1529 
Q 2069 2156 2228 2338 
Q 2531 2678 2651 2914 
Q 2772 3150 2772 3378 
Q 2772 3750 2511 3984 
Q 2250 4219 1831 4219 
Q 1534 4219 1204 4116 
Q 875 4013 500 3803 
L 500 4441 
Q 881 4594 1212 4672 
Q 1544 4750 1819 4750 
Q 2544 4750 2975 4387 
Q 3406 4025 3406 3419 
Q 3406 3131 3298 2873 
Q 3191 2616 2906 2266 
Q 2828 2175 2409 1742 
Q 1991 1309 1228 531 
z
" transform="scale(0.015625)"/>
       </defs>
       <use xlink:href="#DejaVuSans-32"/>
       <use xlink:href="#DejaVuSans-30" x="63.623047"/>
       <use xlink:href="#DejaVuSans-30" x="127.246094"/>
      </g>
     </g>
    </g>
    <g id="xtick_3">
     <g id="line2d_3">
      <g>
       <use xlink:href="#m56b2946db0" x="244.672443" y="308.63625" style="stroke: #000000; stroke-width: 0.8"/>
      </g>
     </g>
     <g id="text_3">
      <!-- 400 -->
      <g transform="translate(225.584943 330.833125) scale(0.2 -0.2)">
       <defs>
        <path id="DejaVuSans-34" d="M 2419 4116 
L 825 1625 
L 2419 1625 
L 2419 4116 
z
M 2253 4666 
L 3047 4666 
L 3047 1625 
L 3713 1625 
L 3713 1100 
L 3047 1100 
L 3047 0 
L 2419 0 
L 2419 1100 
L 313 1100 
L 313 1709 
L 2253 4666 
z
" transform="scale(0.015625)"/>
       </defs>
       <use xlink:href="#DejaVuSans-34"/>
       <use xlink:href="#DejaVuSans-30" x="63.623047"/>
       <use xlink:href="#DejaVuSans-30" x="127.246094"/>
      </g>
     </g>
    </g>
    <g id="xtick_4">
     <g id="line2d_4">
      <g>
       <use xlink:href="#m56b2946db0" x="308.081534" y="308.63625" style="stroke: #000000; stroke-width: 0.8"/>
      </g>
     </g>
     <g id="text_4">
      <!-- 600 -->
      <g transform="translate(288.994034 330.833125) scale(0.2 -0.2)">
       <defs>
        <path id="DejaVuSans-36" d="M 2113 2584 
Q 1688 2584 1439 2293 
Q 1191 2003 1191 1497 
Q 1191 994 1439 701 
Q 1688 409 2113 409 
Q 2538 409 2786 701 
Q 3034 994 3034 1497 
Q 3034 2003 2786 2293 
Q 2538 2584 2113 2584 
z
M 3366 4563 
L 3366 3988 
Q 3128 4100 2886 4159 
Q 2644 4219 2406 4219 
Q 1781 4219 1451 3797 
Q 1122 3375 1075 2522 
Q 1259 2794 1537 2939 
Q 1816 3084 2150 3084 
Q 2853 3084 3261 2657 
Q 3669 2231 3669 1497 
Q 3669 778 3244 343 
Q 2819 -91 2113 -91 
Q 1303 -91 875 529 
Q 447 1150 447 2328 
Q 447 3434 972 4092 
Q 1497 4750 2381 4750 
Q 2619 4750 2861 4703 
Q 3103 4656 3366 4563 
z
" transform="scale(0.015625)"/>
       </defs>
       <use xlink:href="#DejaVuSans-36"/>
       <use xlink:href="#DejaVuSans-30" x="63.623047"/>
       <use xlink:href="#DejaVuSans-30" x="127.246094"/>
      </g>
     </g>
    </g>
    <g id="xtick_5">
     <g id="line2d_5">
      <g>
       <use xlink:href="#m56b2946db0" x="371.490625" y="308.63625" style="stroke: #000000; stroke-width: 0.8"/>
      </g>
     </g>
     <g id="text_5">
      <!-- 800 -->
      <g transform="translate(352.403125 330.833125) scale(0.2 -0.2)">
       <defs>
        <path id="DejaVuSans-38" d="M 2034 2216 
Q 1584 2216 1326 1975 
Q 1069 1734 1069 1313 
Q 1069 891 1326 650 
Q 1584 409 2034 409 
Q 2484 409 2743 651 
Q 3003 894 3003 1313 
Q 3003 1734 2745 1975 
Q 2488 2216 2034 2216 
z
M 1403 2484 
Q 997 2584 770 2862 
Q 544 3141 544 3541 
Q 544 4100 942 4425 
Q 1341 4750 2034 4750 
Q 2731 4750 3128 4425 
Q 3525 4100 3525 3541 
Q 3525 3141 3298 2862 
Q 3072 2584 2669 2484 
Q 3125 2378 3379 2068 
Q 3634 1759 3634 1313 
Q 3634 634 3220 271 
Q 2806 -91 2034 -91 
Q 1263 -91 848 271 
Q 434 634 434 1313 
Q 434 1759 690 2068 
Q 947 2378 1403 2484 
z
M 1172 3481 
Q 1172 3119 1398 2916 
Q 1625 2713 2034 2713 
Q 2441 2713 2670 2916 
Q 2900 3119 2900 3481 
Q 2900 3844 2670 4047 
Q 2441 4250 2034 4250 
Q 1625 4250 1398 4047 
Q 1172 3844 1172 3481 
z
" transform="scale(0.015625)"/>
       </defs>
       <use xlink:href="#DejaVuSans-38"/>
       <use xlink:href="#DejaVuSans-30" x="63.623047"/>
       <use xlink:href="#DejaVuSans-30" x="127.246094"/>
      </g>
     </g>
    </g>
    <g id="xtick_6">
     <g id="line2d_6">
      <g>
       <use xlink:href="#m56b2946db0" x="434.899716" y="308.63625" style="stroke: #000000; stroke-width: 0.8"/>
      </g>
     </g>
     <g id="text_6">
      <!-- 1000 -->
      <g transform="translate(409.449716 330.833125) scale(0.2 -0.2)">
       <defs>
        <path id="DejaVuSans-31" d="M 794 531 
L 1825 531 
L 1825 4091 
L 703 3866 
L 703 4441 
L 1819 4666 
L 2450 4666 
L 2450 531 
L 3481 531 
L 3481 0 
L 794 0 
L 794 531 
z
" transform="scale(0.015625)"/>
       </defs>
       <use xlink:href="#DejaVuSans-31"/>
       <use xlink:href="#DejaVuSans-30" x="63.623047"/>
       <use xlink:href="#DejaVuSans-30" x="127.246094"/>
       <use xlink:href="#DejaVuSans-30" x="190.869141"/>
      </g>
     </g>
    </g>
    <g id="xtick_7">
     <g id="line2d_7">
      <g>
       <use xlink:href="#m56b2946db0" x="498.308807" y="308.63625" style="stroke: #000000; stroke-width: 0.8"/>
      </g>
     </g>
     <g id="text_7">
      <!-- 1200 -->
      <g transform="translate(472.858807 330.833125) scale(0.2 -0.2)">
       <use xlink:href="#DejaVuSans-31"/>
       <use xlink:href="#DejaVuSans-32" x="63.623047"/>
       <use xlink:href="#DejaVuSans-30" x="127.246094"/>
       <use xlink:href="#DejaVuSans-30" x="190.869141"/>
      </g>
     </g>
    </g>
    <g id="xtick_8">
     <g id="line2d_8">
      <g>
       <use xlink:href="#m56b2946db0" x="561.717898" y="308.63625" style="stroke: #000000; stroke-width: 0.8"/>
      </g>
     </g>
     <g id="text_8">
      <!-- 1400 -->
      <g transform="translate(536.267898 330.833125) scale(0.2 -0.2)">
       <use xlink:href="#DejaVuSans-31"/>
       <use xlink:href="#DejaVuSans-34" x="63.623047"/>
       <use xlink:href="#DejaVuSans-30" x="127.246094"/>
       <use xlink:href="#DejaVuSans-30" x="190.869141"/>
      </g>
     </g>
    </g>
    <g id="xtick_9">
     <g id="line2d_9">
      <g>
       <use xlink:href="#m56b2946db0" x="625.126989" y="308.63625" style="stroke: #000000; stroke-width: 0.8"/>
      </g>
     </g>
     <g id="text_9">
      <!-- 1600 -->
      <g transform="translate(599.676989 330.833125) scale(0.2 -0.2)">
       <use xlink:href="#DejaVuSans-31"/>
       <use xlink:href="#DejaVuSans-36" x="63.623047"/>
       <use xlink:href="#DejaVuSans-30" x="127.246094"/>
       <use xlink:href="#DejaVuSans-30" x="190.869141"/>
      </g>
     </g>
    </g>
    <g id="text_10">
     <!-- iterations -->
     <g transform="translate(324.035938 354.189375) scale(0.2 -0.2)">
      <defs>
       <path id="DejaVuSans-69" d="M 603 3500 
L 1178 3500 
L 1178 0 
L 603 0 
L 603 3500 
z
M 603 4863 
L 1178 4863 
L 1178 4134 
L 603 4134 
L 603 4863 
z
" transform="scale(0.015625)"/>
       <path id="DejaVuSans-74" d="M 1172 4494 
L 1172 3500 
L 2356 3500 
L 2356 3053 
L 1172 3053 
L 1172 1153 
Q 1172 725 1289 603 
Q 1406 481 1766 481 
L 2356 481 
L 2356 0 
L 1766 0 
Q 1100 0 847 248 
Q 594 497 594 1153 
L 594 3053 
L 172 3053 
L 172 3500 
L 594 3500 
L 594 4494 
L 1172 4494 
z
" transform="scale(0.015625)"/>
       <path id="DejaVuSans-65" d="M 3597 1894 
L 3597 1613 
L 953 1613 
Q 991 1019 1311 708 
Q 1631 397 2203 397 
Q 2534 397 2845 478 
Q 3156 559 3463 722 
L 3463 178 
Q 3153 47 2828 -22 
Q 2503 -91 2169 -91 
Q 1331 -91 842 396 
Q 353 884 353 1716 
Q 353 2575 817 3079 
Q 1281 3584 2069 3584 
Q 2775 3584 3186 3129 
Q 3597 2675 3597 1894 
z
M 3022 2063 
Q 3016 2534 2758 2815 
Q 2500 3097 2075 3097 
Q 1594 3097 1305 2825 
Q 1016 2553 972 2059 
L 3022 2063 
z
" transform="scale(0.015625)"/>
       <path id="DejaVuSans-72" d="M 2631 2963 
Q 2534 3019 2420 3045 
Q 2306 3072 2169 3072 
Q 1681 3072 1420 2755 
Q 1159 2438 1159 1844 
L 1159 0 
L 581 0 
L 581 3500 
L 1159 3500 
L 1159 2956 
Q 1341 3275 1631 3429 
Q 1922 3584 2338 3584 
Q 2397 3584 2469 3576 
Q 2541 3569 2628 3553 
L 2631 2963 
z
" transform="scale(0.015625)"/>
       <path id="DejaVuSans-61" d="M 2194 1759 
Q 1497 1759 1228 1600 
Q 959 1441 959 1056 
Q 959 750 1161 570 
Q 1363 391 1709 391 
Q 2188 391 2477 730 
Q 2766 1069 2766 1631 
L 2766 1759 
L 2194 1759 
z
M 3341 1997 
L 3341 0 
L 2766 0 
L 2766 531 
Q 2569 213 2275 61 
Q 1981 -91 1556 -91 
Q 1019 -91 701 211 
Q 384 513 384 1019 
Q 384 1609 779 1909 
Q 1175 2209 1959 2209 
L 2766 2209 
L 2766 2266 
Q 2766 2663 2505 2880 
Q 2244 3097 1772 3097 
Q 1472 3097 1187 3025 
Q 903 2953 641 2809 
L 641 3341 
Q 956 3463 1253 3523 
Q 1550 3584 1831 3584 
Q 2591 3584 2966 3190 
Q 3341 2797 3341 1997 
z
" transform="scale(0.015625)"/>
       <path id="DejaVuSans-6f" d="M 1959 3097 
Q 1497 3097 1228 2736 
Q 959 2375 959 1747 
Q 959 1119 1226 758 
Q 1494 397 1959 397 
Q 2419 397 2687 759 
Q 2956 1122 2956 1747 
Q 2956 2369 2687 2733 
Q 2419 3097 1959 3097 
z
M 1959 3584 
Q 2709 3584 3137 3096 
Q 3566 2609 3566 1747 
Q 3566 888 3137 398 
Q 2709 -91 1959 -91 
Q 1206 -91 779 398 
Q 353 888 353 1747 
Q 353 2609 779 3096 
Q 1206 3584 1959 3584 
z
" transform="scale(0.015625)"/>
       <path id="DejaVuSans-6e" d="M 3513 2113 
L 3513 0 
L 2938 0 
L 2938 2094 
Q 2938 2591 2744 2837 
Q 2550 3084 2163 3084 
Q 1697 3084 1428 2787 
Q 1159 2491 1159 1978 
L 1159 0 
L 581 0 
L 581 3500 
L 1159 3500 
L 1159 2956 
Q 1366 3272 1645 3428 
Q 1925 3584 2291 3584 
Q 2894 3584 3203 3211 
Q 3513 2838 3513 2113 
z
" transform="scale(0.015625)"/>
       <path id="DejaVuSans-73" d="M 2834 3397 
L 2834 2853 
Q 2591 2978 2328 3040 
Q 2066 3103 1784 3103 
Q 1356 3103 1142 2972 
Q 928 2841 928 2578 
Q 928 2378 1081 2264 
Q 1234 2150 1697 2047 
L 1894 2003 
Q 2506 1872 2764 1633 
Q 3022 1394 3022 966 
Q 3022 478 2636 193 
Q 2250 -91 1575 -91 
Q 1294 -91 989 -36 
Q 684 19 347 128 
L 347 722 
Q 666 556 975 473 
Q 1284 391 1588 391 
Q 1994 391 2212 530 
Q 2431 669 2431 922 
Q 2431 1156 2273 1281 
Q 2116 1406 1581 1522 
L 1381 1569 
Q 847 1681 609 1914 
Q 372 2147 372 2553 
Q 372 3047 722 3315 
Q 1072 3584 1716 3584 
Q 2034 3584 2315 3537 
Q 2597 3491 2834 3397 
z
" transform="scale(0.015625)"/>
      </defs>
      <use xlink:href="#DejaVuSans-69"/>
      <use xlink:href="#DejaVuSans-74" x="27.783203"/>
      <use xlink:href="#DejaVuSans-65" x="66.992188"/>
      <use xlink:href="#DejaVuSans-72" x="128.515625"/>
      <use xlink:href="#DejaVuSans-61" x="169.628906"/>
      <use xlink:href="#DejaVuSans-74" x="230.908203"/>
      <use xlink:href="#DejaVuSans-69" x="270.117188"/>
      <use xlink:href="#DejaVuSans-6f" x="297.900391"/>
      <use xlink:href="#DejaVuSans-6e" x="359.082031"/>
      <use xlink:href="#DejaVuSans-73" x="422.460938"/>
     </g>
    </g>
   </g>
   <g id="matplotlib.axis_2">
    <g id="ytick_1">
     <g id="line2d_10">
      <defs>
       <path id="me1db3cafd7" d="M 0 0 
L -3.5 0 
" style="stroke: #000000; stroke-width: 0.8"/>
      </defs>
      <g>
       <use xlink:href="#me1db3cafd7" x="92.490625" y="308.301222" style="stroke: #000000; stroke-width: 0.8"/>
      </g>
     </g>
     <g id="text_11">
      <!-- −400 -->
      <g transform="translate(30.55625 315.89966) scale(0.2 -0.2)">
       <defs>
        <path id="DejaVuSans-2212" d="M 678 2272 
L 4684 2272 
L 4684 1741 
L 678 1741 
L 678 2272 
z
" transform="scale(0.015625)"/>
       </defs>
       <use xlink:href="#DejaVuSans-2212"/>
       <use xlink:href="#DejaVuSans-34" x="83.789062"/>
       <use xlink:href="#DejaVuSans-30" x="147.412109"/>
       <use xlink:href="#DejaVuSans-30" x="211.035156"/>
      </g>
     </g>
    </g>
    <g id="ytick_2">
     <g id="line2d_11">
      <g>
       <use xlink:href="#me1db3cafd7" x="92.490625" y="216.520244" style="stroke: #000000; stroke-width: 0.8"/>
      </g>
     </g>
     <g id="text_12">
      <!-- −200 -->
      <g transform="translate(30.55625 224.118682) scale(0.2 -0.2)">
       <use xlink:href="#DejaVuSans-2212"/>
       <use xlink:href="#DejaVuSans-32" x="83.789062"/>
       <use xlink:href="#DejaVuSans-30" x="147.412109"/>
       <use xlink:href="#DejaVuSans-30" x="211.035156"/>
      </g>
     </g>
    </g>
    <g id="ytick_3">
     <g id="line2d_12">
      <g>
       <use xlink:href="#me1db3cafd7" x="92.490625" y="124.739266" style="stroke: #000000; stroke-width: 0.8"/>
      </g>
     </g>
     <g id="text_13">
      <!-- 0 -->
      <g transform="translate(72.765625 132.337703) scale(0.2 -0.2)">
       <use xlink:href="#DejaVuSans-30"/>
      </g>
     </g>
    </g>
    <g id="ytick_4">
     <g id="line2d_13">
      <g>
       <use xlink:href="#me1db3cafd7" x="92.490625" y="32.958288" style="stroke: #000000; stroke-width: 0.8"/>
      </g>
     </g>
     <g id="text_14">
      <!-- 200 -->
      <g transform="translate(47.315625 40.556725) scale(0.2 -0.2)">
       <use xlink:href="#DejaVuSans-32"/>
       <use xlink:href="#DejaVuSans-30" x="63.623047"/>
       <use xlink:href="#DejaVuSans-30" x="127.246094"/>
      </g>
     </g>
    </g>
    <g id="text_15">
     <!-- Loss -->
     <g transform="translate(22.396875 191.970625) rotate(-90) scale(0.2 -0.2)">
      <defs>
       <path id="DejaVuSans-4c" d="M 628 4666 
L 1259 4666 
L 1259 531 
L 3531 531 
L 3531 0 
L 628 0 
L 628 4666 
z
" transform="scale(0.015625)"/>
      </defs>
      <use xlink:href="#DejaVuSans-4c"/>
      <use xlink:href="#DejaVuSans-6f" x="53.962891"/>
      <use xlink:href="#DejaVuSans-73" x="115.144531"/>
      <use xlink:href="#DejaVuSans-73" x="167.244141"/>
     </g>
    </g>
   </g>
   <g id="line2d_14">
    <path d="M 117.854261 68.010133 
L 118.171307 44.03625 
L 119.122443 149.038488 
L 119.439489 131.291508 
L 119.756534 102.480738 
L 120.07358 114.663802 
L 120.390625 109.036371 
L 120.70767 138.147454 
L 121.024716 138.134175 
L 121.658807 115.734088 
L 121.975852 94.696244 
L 122.609943 139.285864 
L 122.926989 148.794628 
L 123.56108 156.877753 
L 123.878125 83.249261 
L 124.19517 75.174256 
L 124.512216 90.472575 
L 124.829261 116.457012 
L 125.146307 96.256189 
L 125.463352 94.259751 
L 125.780398 95.075452 
L 126.097443 105.7445 
L 126.414489 103.501109 
L 126.731534 98.938048 
L 127.04858 98.781496 
L 127.365625 115.658893 
L 127.68267 104.793282 
L 127.999716 107.674873 
L 128.316761 115.096063 
L 128.633807 112.159413 
L 129.267898 104.28473 
L 129.584943 96.706982 
L 129.901989 93.680446 
L 130.219034 98.193758 
L 130.53608 106.085946 
L 130.853125 105.036287 
L 131.17017 102.32328 
L 131.487216 103.945881 
L 131.804261 99.317411 
L 132.121307 110.564882 
L 132.438352 112.307272 
L 132.755398 111.665537 
L 133.072443 108.167608 
L 133.389489 111.994753 
L 133.706534 117.502876 
L 134.02358 119.774341 
L 134.340625 119.367335 
L 134.65767 113.051816 
L 134.974716 123.794414 
L 135.291761 123.121725 
L 135.608807 116.751972 
L 135.925852 119.486809 
L 136.242898 125.7908 
L 136.559943 120.97786 
L 136.876989 122.459209 
L 137.194034 119.601567 
L 137.51108 123.368147 
L 137.828125 125.26741 
L 138.14517 126.254064 
L 138.779261 123.83292 
L 139.096307 125.066543 
L 139.413352 124.405088 
L 139.730398 124.342819 
L 140.047443 129.684678 
L 140.681534 122.440892 
L 140.99858 125.291613 
L 141.315625 126.638633 
L 141.63267 127.489029 
L 141.949716 124.104561 
L 142.266761 127.006761 
L 142.583807 124.634792 
L 142.900852 130.008476 
L 143.217898 132.148012 
L 143.534943 129.332871 
L 143.851989 130.19862 
L 144.169034 128.532356 
L 144.48608 130.615072 
L 144.803125 129.75035 
L 145.12017 131.974644 
L 145.437216 133.042215 
L 145.754261 130.869486 
L 146.071307 131.244071 
L 146.705398 129.485777 
L 147.022443 131.902921 
L 147.339489 130.300497 
L 147.656534 132.787354 
L 147.97358 130.1042 
L 148.290625 132.296661 
L 148.60767 128.828173 
L 149.241761 133.624985 
L 149.558807 133.67938 
L 149.875852 132.890623 
L 150.509943 130.029175 
L 150.826989 136.267329 
L 151.144034 133.171776 
L 151.46108 131.366796 
L 151.778125 131.143967 
L 152.09517 134.254403 
L 152.412216 133.153225 
L 152.729261 135.194366 
L 153.046307 132.960254 
L 153.680398 131.082405 
L 153.997443 132.584999 
L 154.314489 133.28086 
L 154.94858 128.753412 
L 155.265625 129.527871 
L 155.58267 133.657564 
L 155.899716 133.308306 
L 156.216761 134.759946 
L 156.850852 132.202234 
L 157.167898 132.039851 
L 157.801989 128.292917 
L 158.119034 131.624082 
L 158.43608 132.367101 
L 158.753125 133.574511 
L 159.07017 133.467695 
L 159.387216 132.013518 
L 159.704261 133.775036 
L 160.338352 135.816838 
L 160.972443 133.039205 
L 161.289489 132.365518 
L 161.606534 130.732202 
L 161.92358 130.422276 
L 162.55767 131.352335 
L 162.874716 130.397482 
L 163.191761 132.385544 
L 163.508807 133.44874 
L 163.825852 130.621022 
L 164.142898 129.915593 
L 164.459943 130.780378 
L 164.776989 130.366748 
L 165.094034 133.018114 
L 165.41108 129.699722 
L 165.728125 128.315437 
L 166.04517 131.243071 
L 166.362216 129.040349 
L 166.679261 129.159144 
L 166.996307 131.657577 
L 167.313352 130.8775 
L 167.630398 132.068264 
L 168.264489 129.381879 
L 168.581534 131.489051 
L 168.89858 132.135005 
L 169.215625 129.520044 
L 169.53267 128.526529 
L 169.849716 128.62714 
L 170.166761 129.507322 
L 170.483807 130.753813 
L 170.800852 131.148931 
L 171.117898 130.542598 
L 171.434943 130.694105 
L 171.751989 129.90088 
L 172.069034 130.887488 
L 172.38608 130.639837 
L 172.703125 129.355283 
L 173.02017 130.364738 
L 173.337216 132.129378 
L 173.654261 131.451921 
L 173.971307 133.778023 
L 174.288352 132.793608 
L 174.605398 132.710615 
L 174.922443 130.760632 
L 175.239489 131.242131 
L 175.556534 132.939387 
L 175.87358 133.68315 
L 176.190625 132.669464 
L 176.824716 132.445423 
L 177.141761 132.99424 
L 177.458807 133.06021 
L 177.775852 133.884776 
L 178.092898 132.891875 
L 178.409943 133.233263 
L 178.726989 133.746225 
L 179.044034 133.738837 
L 179.36108 134.525428 
L 179.678125 135.704528 
L 179.99517 132.744017 
L 180.312216 135.219024 
L 180.629261 135.591216 
L 180.946307 136.432579 
L 181.263352 132.965228 
L 181.580398 134.074961 
L 181.897443 133.540772 
L 182.214489 133.421911 
L 182.531534 135.236827 
L 183.48267 131.970848 
L 183.799716 134.240862 
L 184.116761 134.068398 
L 184.433807 134.936951 
L 184.750852 132.84045 
L 185.067898 131.756121 
L 185.384943 131.859176 
L 185.701989 132.698611 
L 186.019034 132.988609 
L 186.33608 131.533742 
L 186.653125 131.9431 
L 186.97017 132.900108 
L 187.287216 132.248788 
L 187.604261 134.623461 
L 187.921307 132.871426 
L 188.238352 133.638704 
L 188.555398 133.327539 
L 188.872443 131.803134 
L 189.189489 132.483812 
L 189.506534 131.304209 
L 189.82358 132.833603 
L 190.140625 131.565009 
L 190.45767 132.345541 
L 190.774716 132.763423 
L 191.091761 132.03401 
L 191.408807 132.010279 
L 191.725852 131.256279 
L 192.042898 133.787578 
L 192.359943 130.493204 
L 192.676989 130.135762 
L 192.994034 131.669798 
L 193.31108 129.935866 
L 193.628125 131.293905 
L 193.94517 131.094286 
L 194.579261 132.187449 
L 195.213352 131.860606 
L 195.530398 132.639894 
L 196.164489 129.529896 
L 196.481534 132.111943 
L 197.115625 130.58016 
L 197.43267 130.407129 
L 197.749716 130.956694 
L 198.066761 129.941585 
L 198.383807 129.765758 
L 198.700852 130.065677 
L 199.017898 130.203255 
L 199.334943 129.980455 
L 199.651989 130.627125 
L 199.969034 129.133283 
L 200.28608 129.835422 
L 200.92017 129.364363 
L 201.237216 130.856948 
L 201.554261 129.246312 
L 201.871307 129.706363 
L 202.188352 130.420866 
L 202.505398 129.545153 
L 202.822443 130.94038 
L 203.139489 129.371043 
L 203.456534 130.738 
L 203.77358 128.822413 
L 204.090625 130.609681 
L 204.40767 130.102713 
L 205.041761 128.586713 
L 205.358807 129.331779 
L 205.992898 130.013815 
L 206.309943 130.004582 
L 206.626989 129.563682 
L 206.944034 128.277651 
L 207.26108 129.132506 
L 207.578125 129.444018 
L 208.212216 131.421887 
L 208.846307 129.226555 
L 209.163352 128.386728 
L 209.480398 130.002226 
L 209.797443 128.766129 
L 210.114489 129.727915 
L 210.431534 130.295393 
L 211.065625 130.22921 
L 211.38267 129.990359 
L 211.699716 130.146286 
L 212.016761 130.742029 
L 212.333807 130.232945 
L 212.650852 130.335787 
L 213.284943 129.832388 
L 213.601989 129.938118 
L 213.919034 130.276968 
L 214.553125 128.427935 
L 214.87017 128.815487 
L 215.187216 128.502613 
L 215.504261 130.018413 
L 215.821307 128.712991 
L 216.138352 129.533333 
L 216.455398 129.687427 
L 216.772443 128.563167 
L 217.089489 128.720108 
L 217.406534 129.560897 
L 217.72358 129.261363 
L 218.040625 129.333281 
L 218.35767 130.124582 
L 218.674716 128.725848 
L 219.308807 128.192742 
L 219.942898 128.481323 
L 220.259943 129.22743 
L 220.576989 129.363656 
L 220.894034 129.292759 
L 221.21108 128.9788 
L 221.84517 128.90032 
L 222.162216 130.108556 
L 222.479261 129.085007 
L 223.113352 128.25835 
L 223.430398 128.582519 
L 223.747443 128.639878 
L 224.064489 127.829148 
L 224.69858 127.621747 
L 225.015625 129.027438 
L 225.33267 128.3083 
L 225.649716 129.060965 
L 225.966761 128.862738 
L 226.283807 128.027623 
L 226.600852 127.590238 
L 226.917898 127.417529 
L 227.234943 128.046032 
L 227.551989 127.509991 
L 227.869034 127.816074 
L 228.18608 127.724732 
L 228.503125 128.205471 
L 228.82017 127.909681 
L 229.137216 128.495895 
L 229.454261 127.306562 
L 229.771307 127.660654 
L 230.088352 127.074124 
L 230.405398 127.464054 
L 230.722443 127.567987 
L 231.039489 127.49324 
L 231.67358 128.934154 
L 232.30767 127.494717 
L 232.624716 127.974081 
L 232.941761 127.963539 
L 233.258807 127.433418 
L 233.575852 128.445598 
L 233.892898 128.005912 
L 234.526989 127.934451 
L 234.844034 127.502908 
L 235.16108 128.276474 
L 235.478125 127.592299 
L 235.79517 127.820724 
L 236.112216 126.41959 
L 236.429261 127.184355 
L 236.746307 128.350894 
L 237.380398 126.478268 
L 237.697443 127.287549 
L 238.331534 127.097101 
L 238.64858 127.943905 
L 238.965625 127.522738 
L 239.28267 127.369173 
L 239.599716 128.15539 
L 239.916761 127.606288 
L 240.233807 128.470277 
L 240.550852 127.53738 
L 240.867898 128.0492 
L 241.184943 127.705244 
L 241.819034 128.758381 
L 242.13608 128.176185 
L 242.453125 128.949204 
L 242.77017 127.88594 
L 243.087216 128.758213 
L 243.721307 127.763718 
L 244.038352 128.040503 
L 244.355398 127.818379 
L 244.672443 128.539413 
L 244.989489 127.909191 
L 245.306534 127.620119 
L 245.62358 128.215233 
L 245.940625 127.871823 
L 246.25767 128.730731 
L 246.574716 127.830667 
L 246.891761 127.973207 
L 247.208807 128.302131 
L 247.525852 128.874641 
L 247.842898 128.730779 
L 248.159943 127.936563 
L 248.476989 128.147492 
L 249.428125 126.865166 
L 249.74517 126.205635 
L 250.062216 127.195389 
L 250.379261 127.405704 
L 250.696307 125.752486 
L 251.013352 127.181242 
L 251.330398 127.621653 
L 251.647443 128.285453 
L 252.281534 127.952824 
L 252.59858 127.320872 
L 252.915625 128.138393 
L 253.23267 127.595705 
L 253.549716 127.777125 
L 253.866761 127.076334 
L 254.183807 128.23788 
L 254.500852 127.355098 
L 254.817898 127.310545 
L 255.134943 127.383422 
L 255.451989 128.051083 
L 255.769034 127.910596 
L 256.08608 127.191374 
L 256.403125 127.862572 
L 256.72017 127.925051 
L 257.037216 128.140637 
L 257.354261 126.966591 
L 257.671307 127.601789 
L 257.988352 127.303259 
L 258.305398 128.020273 
L 258.622443 127.395705 
L 259.256534 127.549729 
L 259.57358 127.240643 
L 259.890625 127.562493 
L 260.20767 127.469046 
L 260.524716 127.017582 
L 260.841761 126.329977 
L 261.158807 123.594003 
L 261.475852 125.641018 
L 261.792898 126.194417 
L 262.109943 127.565289 
L 262.426989 125.926257 
L 262.744034 126.83942 
L 263.378125 127.662776 
L 263.69517 127.0441 
L 264.012216 127.646191 
L 264.329261 126.217146 
L 264.646307 127.246878 
L 264.963352 126.968989 
L 265.280398 127.389283 
L 265.597443 127.366595 
L 265.914489 126.909622 
L 266.231534 126.920462 
L 266.54858 127.869458 
L 266.865625 127.673739 
L 267.18267 128.140586 
L 267.499716 128.296592 
L 267.816761 127.668539 
L 268.133807 127.522494 
L 268.450852 127.864583 
L 268.767898 128.588431 
L 269.084943 128.132745 
L 269.401989 128.535777 
L 270.03608 126.453202 
L 270.67017 127.878267 
L 270.987216 127.473338 
L 271.621307 127.994517 
L 271.938352 127.785176 
L 272.255398 127.876873 
L 272.572443 128.483396 
L 272.889489 128.793588 
L 273.206534 128.220969 
L 273.52358 127.947937 
L 273.840625 128.312831 
L 274.15767 128.854793 
L 274.474716 128.997201 
L 274.791761 129.420327 
L 275.108807 127.991662 
L 275.425852 128.745344 
L 275.742898 128.776292 
L 276.376989 128.018685 
L 277.01108 127.365727 
L 277.328125 128.478041 
L 277.64517 127.867424 
L 277.962216 128.945239 
L 278.596307 127.1771 
L 278.913352 128.168141 
L 279.230398 126.793318 
L 279.864489 128.793073 
L 280.181534 128.765525 
L 280.49858 127.131237 
L 280.815625 128.101187 
L 281.449716 127.293432 
L 281.766761 127.158085 
L 282.083807 128.714304 
L 282.400852 128.370978 
L 282.717898 128.486902 
L 283.034943 128.947382 
L 283.351989 128.838007 
L 283.669034 128.260208 
L 283.98608 127.950895 
L 284.303125 126.283135 
L 284.62017 128.140022 
L 285.254261 126.207577 
L 285.571307 127.539877 
L 285.888352 127.357292 
L 286.522443 126.763006 
L 286.839489 127.259967 
L 287.156534 126.996985 
L 287.47358 126.529472 
L 288.10767 127.412347 
L 288.424716 127.049697 
L 288.741761 126.292813 
L 289.058807 126.895689 
L 289.375852 126.452249 
L 289.692898 126.552457 
L 290.009943 125.732269 
L 290.326989 127.180789 
L 290.644034 126.470533 
L 290.96108 128.10307 
L 291.278125 127.623482 
L 291.59517 126.756451 
L 291.912216 126.674386 
L 292.229261 126.430197 
L 292.546307 126.382953 
L 292.863352 126.125891 
L 293.180398 126.832502 
L 293.497443 126.755911 
L 293.814489 127.53797 
L 294.131534 126.623237 
L 294.44858 127.500371 
L 294.765625 127.788318 
L 295.08267 127.217003 
L 295.399716 125.721419 
L 295.716761 127.374596 
L 296.033807 126.931644 
L 296.350852 126.74159 
L 296.667898 127.096731 
L 296.984943 126.733166 
L 297.301989 126.862768 
L 297.619034 127.330305 
L 297.93608 126.593448 
L 298.253125 127.082128 
L 298.57017 126.241215 
L 298.887216 126.633846 
L 299.204261 126.147503 
L 299.521307 126.651037 
L 299.838352 127.735513 
L 300.472443 127.235319 
L 300.789489 126.961516 
L 301.106534 127.437199 
L 301.42358 127.198821 
L 301.740625 128.460895 
L 302.374716 127.468841 
L 303.008807 126.841378 
L 303.325852 128.237104 
L 303.642898 128.194875 
L 303.959943 127.590703 
L 304.276989 128.171441 
L 304.594034 128.288059 
L 304.91108 127.73191 
L 305.228125 125.465954 
L 305.54517 127.135651 
L 305.862216 127.340297 
L 306.179261 127.065755 
L 307.130398 126.838191 
L 307.447443 127.52029 
L 307.764489 127.098561 
L 308.081534 126.969432 
L 308.39858 126.098803 
L 308.715625 126.906418 
L 309.03267 127.215905 
L 309.349716 127.302956 
L 309.666761 127.894747 
L 309.983807 127.955347 
L 310.300852 127.820972 
L 310.934943 127.888876 
L 311.251989 128.066486 
L 311.569034 128.803499 
L 311.88608 128.845657 
L 312.203125 127.944364 
L 312.52017 127.772268 
L 312.837216 127.404629 
L 313.154261 128.84971 
L 313.471307 128.150776 
L 314.105398 128.344491 
L 314.422443 128.322087 
L 314.739489 128.418924 
L 315.056534 129.027839 
L 315.37358 127.744921 
L 315.690625 128.373087 
L 316.00767 128.703798 
L 316.324716 128.760818 
L 316.641761 128.525646 
L 316.958807 127.503979 
L 317.275852 128.062294 
L 317.909943 128.643735 
L 318.86108 128.131017 
L 319.178125 128.268253 
L 319.49517 128.735457 
L 319.812216 128.723364 
L 320.129261 128.321858 
L 320.446307 128.121742 
L 320.763352 128.456856 
L 321.397443 127.55073 
L 321.714489 128.638946 
L 322.031534 127.979961 
L 322.34858 127.939318 
L 322.665625 128.899886 
L 323.616761 128.486266 
L 323.933807 128.134005 
L 324.567898 128.665262 
L 324.884943 128.103499 
L 325.201989 128.333266 
L 325.519034 128.272072 
L 325.83608 128.749882 
L 326.153125 128.50958 
L 327.104261 128.499473 
L 327.738352 127.554026 
L 328.689489 128.884605 
L 329.006534 127.878574 
L 329.32358 128.530693 
L 329.640625 128.326842 
L 329.95767 127.605462 
L 330.274716 128.513567 
L 330.591761 128.938562 
L 331.225852 128.72805 
L 331.542898 128.386151 
L 331.859943 128.783101 
L 332.176989 128.184901 
L 332.81108 128.133105 
L 333.44517 129.568759 
L 333.762216 129.101744 
L 334.079261 128.148939 
L 334.396307 128.871646 
L 334.713352 128.615969 
L 335.030398 129.793413 
L 335.347443 129.034977 
L 335.664489 128.759412 
L 335.981534 128.825487 
L 336.29858 128.702248 
L 336.93267 128.989234 
L 337.249716 129.501328 
L 337.566761 128.900245 
L 337.883807 128.86146 
L 338.200852 129.53309 
L 338.517898 128.054782 
L 338.834943 129.236677 
L 339.151989 129.465643 
L 339.469034 129.964422 
L 339.78608 128.734684 
L 340.103125 128.215194 
L 340.42017 129.03556 
L 340.737216 128.773163 
L 341.054261 129.047373 
L 341.688352 129.044006 
L 342.005398 129.319321 
L 342.322443 128.563791 
L 342.639489 129.011729 
L 342.956534 128.318426 
L 343.27358 128.286183 
L 343.590625 127.138914 
L 343.90767 128.622457 
L 344.224716 128.504327 
L 344.541761 128.592736 
L 344.858807 128.832187 
L 345.492898 129.037423 
L 346.126989 127.809104 
L 346.444034 128.392742 
L 346.76108 127.990917 
L 347.078125 128.813058 
L 347.39517 128.313435 
L 347.712216 128.162896 
L 348.029261 127.789042 
L 348.346307 128.223701 
L 348.663352 128.43314 
L 348.980398 128.489887 
L 349.297443 128.121951 
L 349.614489 127.979753 
L 349.931534 128.462189 
L 350.24858 128.703921 
L 350.565625 127.683583 
L 350.88267 127.67312 
L 351.199716 128.074475 
L 351.516761 127.454904 
L 351.833807 127.970714 
L 352.150852 129.080553 
L 352.467898 129.154413 
L 352.784943 128.514427 
L 353.101989 129.011695 
L 353.419034 128.909241 
L 353.73608 128.977208 
L 354.053125 128.132629 
L 354.37017 128.556288 
L 354.687216 127.716828 
L 355.004261 128.307662 
L 355.321307 128.415071 
L 355.638352 128.86873 
L 355.955398 129.115289 
L 356.272443 128.582988 
L 356.589489 128.590721 
L 357.22358 128.286928 
L 357.85767 128.424822 
L 358.174716 128.333838 
L 358.491761 128.597987 
L 358.808807 127.948214 
L 359.125852 128.183036 
L 359.442898 128.928406 
L 359.759943 128.505044 
L 360.076989 128.977094 
L 360.394034 127.945485 
L 360.71108 128.972658 
L 361.028125 128.971656 
L 361.34517 128.845404 
L 361.662216 129.12386 
L 361.979261 128.708879 
L 362.296307 128.582957 
L 362.613352 127.836887 
L 362.930398 130.04573 
L 363.247443 128.798843 
L 363.564489 129.143693 
L 363.881534 128.329285 
L 364.19858 129.239804 
L 364.515625 128.930261 
L 364.83267 128.951432 
L 365.149716 129.382906 
L 365.466761 129.070555 
L 365.783807 128.082144 
L 366.100852 128.609262 
L 366.734943 128.725486 
L 367.051989 128.285281 
L 367.369034 128.905435 
L 367.68608 128.931916 
L 368.003125 128.470201 
L 368.32017 128.500942 
L 368.637216 128.307246 
L 369.271307 128.803581 
L 369.588352 128.133226 
L 370.222443 127.877252 
L 370.539489 128.187444 
L 370.856534 128.324657 
L 371.17358 128.133732 
L 371.490625 129.491465 
L 371.80767 128.420976 
L 372.124716 128.626047 
L 372.441761 127.814621 
L 373.075852 128.600698 
L 373.709943 127.53657 
L 374.026989 128.289323 
L 374.66108 127.848374 
L 374.978125 128.013614 
L 375.29517 128.374404 
L 375.612216 128.276493 
L 375.929261 127.726133 
L 377.197443 128.123373 
L 377.514489 128.593274 
L 377.831534 128.025183 
L 378.14858 127.879194 
L 378.465625 127.872547 
L 378.78267 127.585772 
L 379.733807 128.033239 
L 380.050852 127.882367 
L 380.367898 128.339916 
L 380.684943 128.303777 
L 381.001989 127.588442 
L 381.319034 127.78635 
L 381.953125 127.472765 
L 382.27017 128.308491 
L 382.587216 127.703087 
L 382.904261 128.154555 
L 383.221307 128.117919 
L 383.538352 127.952047 
L 383.855398 128.172754 
L 384.172443 128.193837 
L 384.489489 127.598257 
L 384.806534 127.688815 
L 385.12358 127.294305 
L 385.440625 127.750466 
L 385.75767 127.921249 
L 386.074716 127.733347 
L 386.391761 127.694063 
L 386.708807 127.786505 
L 387.025852 128.272949 
L 387.342898 127.79188 
L 387.659943 128.087616 
L 387.976989 127.834081 
L 388.61108 128.306809 
L 389.24517 128.167171 
L 389.562216 127.649578 
L 389.879261 128.319063 
L 390.196307 127.208487 
L 390.513352 127.670107 
L 390.830398 128.719482 
L 391.147443 127.621998 
L 391.464489 128.342651 
L 391.781534 127.951814 
L 392.09858 128.124872 
L 392.415625 128.104059 
L 392.73267 128.446385 
L 393.049716 127.959925 
L 393.683807 128.137055 
L 394.000852 128.542693 
L 394.634943 127.845509 
L 395.269034 128.485013 
L 395.58608 128.309247 
L 395.903125 127.077541 
L 396.537216 127.773553 
L 397.171307 127.545165 
L 397.488352 128.473183 
L 397.805398 128.18567 
L 398.122443 127.167599 
L 399.07358 127.629923 
L 399.390625 127.983582 
L 399.70767 127.646028 
L 400.024716 128.271904 
L 400.341761 127.599941 
L 400.658807 127.737622 
L 400.975852 127.453109 
L 401.292898 127.813961 
L 401.609943 127.507727 
L 401.926989 128.200919 
L 402.244034 128.335249 
L 403.19517 127.493155 
L 403.512216 127.424422 
L 403.829261 127.572679 
L 404.146307 125.891945 
L 404.463352 127.173782 
L 404.780398 127.84229 
L 405.097443 127.952828 
L 405.731534 127.588948 
L 406.04858 128.086194 
L 406.365625 127.791232 
L 406.68267 127.288656 
L 406.999716 127.075581 
L 407.633807 127.702949 
L 407.950852 127.18889 
L 408.267898 127.915919 
L 408.584943 128.084911 
L 408.901989 127.275617 
L 409.219034 126.949414 
L 409.853125 128.157093 
L 410.487216 127.462313 
L 410.804261 127.990181 
L 411.121307 126.915693 
L 411.438352 127.125149 
L 412.072443 126.893283 
L 412.389489 127.640379 
L 412.706534 127.747758 
L 413.02358 127.703928 
L 413.340625 127.395001 
L 413.65767 126.906893 
L 414.291761 127.592494 
L 414.608807 127.474913 
L 414.925852 128.158564 
L 415.559943 127.531598 
L 415.876989 127.621877 
L 416.194034 127.910986 
L 416.51108 128.007929 
L 417.14517 127.73232 
L 417.462216 127.46652 
L 417.779261 128.089422 
L 418.096307 127.795202 
L 418.413352 128.47234 
L 418.730398 127.679575 
L 419.047443 127.596604 
L 419.364489 127.763637 
L 419.681534 127.090065 
L 420.315625 127.482469 
L 420.63267 127.251639 
L 420.949716 128.213374 
L 421.266761 127.612115 
L 421.583807 127.494466 
L 421.900852 128.19617 
L 422.534943 127.999238 
L 423.169034 127.48116 
L 423.48608 127.838092 
L 423.803125 127.969765 
L 424.12017 127.679034 
L 425.071307 128.008093 
L 425.388352 127.930562 
L 425.705398 127.672991 
L 426.022443 127.696994 
L 426.339489 128.267994 
L 426.97358 128.452634 
L 427.290625 128.563551 
L 428.241761 128.102766 
L 428.558807 128.409777 
L 428.875852 127.840502 
L 429.192898 128.087208 
L 430.144034 128.496903 
L 430.46108 127.695491 
L 430.778125 127.89008 
L 431.09517 127.845634 
L 431.412216 128.225364 
L 431.729261 128.321429 
L 432.046307 127.718541 
L 432.363352 128.108086 
L 432.997443 127.772109 
L 433.314489 127.695736 
L 434.265625 128.475804 
L 434.58267 127.693832 
L 434.899716 128.277375 
L 435.850852 127.721975 
L 436.167898 127.697513 
L 436.801989 127.249776 
L 437.119034 127.825069 
L 437.753125 127.047545 
L 438.07017 128.100615 
L 438.387216 126.908696 
L 439.021307 127.965902 
L 439.338352 128.072124 
L 439.655398 127.928944 
L 439.972443 128.081196 
L 440.606534 127.330396 
L 440.92358 127.251411 
L 441.240625 127.555699 
L 441.55767 127.127047 
L 441.874716 127.769072 
L 442.191761 127.279089 
L 442.508807 127.672423 
L 442.825852 127.367881 
L 443.142898 127.344589 
L 443.459943 127.156747 
L 443.776989 127.500759 
L 444.094034 127.564655 
L 444.41108 127.078006 
L 445.04517 127.537489 
L 445.362216 127.75117 
L 445.679261 128.113672 
L 445.996307 127.692191 
L 446.313352 127.492538 
L 446.630398 127.736669 
L 446.947443 127.395651 
L 447.264489 127.238436 
L 447.581534 127.849291 
L 447.89858 127.31017 
L 448.215625 127.920972 
L 448.849716 128.675367 
L 449.800852 127.236561 
L 450.117898 126.894699 
L 450.434943 127.556987 
L 450.751989 127.759698 
L 451.069034 127.041677 
L 451.38608 127.48991 
L 451.703125 126.958709 
L 452.02017 125.827001 
L 452.337216 127.098844 
L 452.654261 127.557037 
L 452.971307 127.071524 
L 453.288352 127.22973 
L 453.922443 126.91431 
L 454.239489 127.55524 
L 454.556534 129.069233 
L 454.87358 127.717443 
L 455.50767 128.541842 
L 455.824716 128.548889 
L 456.141761 128.396757 
L 456.458807 127.394366 
L 456.775852 127.716887 
L 457.092898 127.25978 
L 457.409943 127.431042 
L 457.726989 127.321301 
L 458.044034 128.026349 
L 458.36108 127.820932 
L 458.99517 128.17302 
L 459.312216 127.943062 
L 459.629261 128.49432 
L 460.263352 127.702263 
L 460.580398 128.291246 
L 460.897443 128.103132 
L 461.214489 128.178476 
L 461.531534 127.624702 
L 461.84858 128.316546 
L 462.165625 128.342179 
L 462.48267 128.017746 
L 462.799716 128.074345 
L 463.116761 127.74964 
L 464.067898 127.652277 
L 464.384943 127.220382 
L 464.701989 128.288529 
L 465.33608 127.402581 
L 465.97017 123.871576 
L 466.287216 126.680226 
L 466.604261 128.130099 
L 466.921307 127.744199 
L 467.238352 127.040784 
L 467.555398 126.749992 
L 468.189489 127.715379 
L 468.506534 127.828865 
L 469.140625 126.920697 
L 469.45767 127.91969 
L 469.774716 128.193002 
L 470.091761 127.299768 
L 470.408807 127.504828 
L 470.725852 127.435135 
L 471.042898 127.189371 
L 471.359943 127.73022 
L 471.676989 128.007199 
L 471.994034 127.39641 
L 472.31108 127.337453 
L 472.94517 127.465881 
L 473.262216 127.890897 
L 473.579261 127.582663 
L 473.896307 127.821589 
L 475.164489 127.414752 
L 475.481534 127.682765 
L 475.79858 127.339779 
L 476.115625 127.37472 
L 476.43267 127.24827 
L 476.749716 127.759085 
L 477.066761 127.389256 
L 477.383807 127.923922 
L 477.700852 128.039553 
L 478.017898 127.905366 
L 478.334943 128.788361 
L 478.651989 128.148829 
L 478.969034 128.81063 
L 479.603125 128.183465 
L 479.92017 128.106482 
L 480.554261 128.411687 
L 480.871307 128.340169 
L 481.188352 128.701319 
L 481.822443 128.167492 
L 482.139489 128.671259 
L 482.77358 128.026179 
L 483.40767 127.703185 
L 483.724716 127.975413 
L 484.041761 128.484376 
L 484.358807 128.768287 
L 484.675852 128.676664 
L 484.992898 128.928172 
L 485.309943 127.780946 
L 485.944034 128.691961 
L 486.578125 128.486904 
L 486.89517 129.147189 
L 487.212216 127.697568 
L 487.529261 127.36636 
L 487.846307 127.490537 
L 488.480398 128.456929 
L 488.797443 128.351157 
L 489.114489 127.821503 
L 489.431534 128.440631 
L 489.74858 128.340979 
L 490.065625 127.839542 
L 490.38267 128.183897 
L 490.699716 129.060217 
L 491.016761 128.290644 
L 491.333807 128.277735 
L 491.650852 127.816516 
L 491.967898 128.587264 
L 492.284943 127.712004 
L 492.601989 128.004859 
L 492.919034 127.761841 
L 493.23608 128.279528 
L 493.553125 127.252879 
L 493.87017 127.503452 
L 494.187216 127.943295 
L 494.504261 128.192713 
L 494.821307 127.928758 
L 495.138352 127.880828 
L 495.455398 129.005345 
L 496.089489 128.314704 
L 496.406534 128.335302 
L 496.72358 129.039509 
L 497.040625 128.535691 
L 497.35767 127.711742 
L 497.674716 127.527929 
L 497.991761 128.695724 
L 498.308807 128.391718 
L 498.625852 128.285857 
L 498.942898 127.521842 
L 499.259943 128.146454 
L 499.894034 128.153569 
L 500.21108 127.915116 
L 500.84517 127.82412 
L 501.162216 128.248338 
L 501.479261 127.427978 
L 501.796307 127.806463 
L 502.430398 127.808958 
L 502.747443 128.529429 
L 503.064489 128.409342 
L 503.381534 128.441488 
L 504.015625 127.574319 
L 504.33267 127.906744 
L 504.649716 127.227745 
L 504.966761 127.370365 
L 505.283807 127.664661 
L 505.600852 127.195707 
L 505.917898 127.622761 
L 506.234943 127.171447 
L 506.551989 127.618761 
L 506.869034 127.396622 
L 507.18608 127.324162 
L 507.82017 128.078178 
L 508.137216 127.275546 
L 508.771307 128.354406 
L 509.088352 127.521878 
L 509.405398 127.372369 
L 509.722443 127.828269 
L 510.039489 127.796785 
L 510.356534 127.91206 
L 511.30767 127.244399 
L 511.941761 127.895099 
L 512.258807 127.259501 
L 512.892898 127.457416 
L 513.209943 128.246715 
L 513.844034 128.080434 
L 514.16108 128.753653 
L 514.478125 127.414704 
L 514.79517 127.660818 
L 515.112216 127.596838 
L 515.429261 126.233061 
L 515.746307 128.164397 
L 516.063352 129.201337 
L 516.380398 127.821293 
L 516.697443 127.659072 
L 517.014489 127.259164 
L 517.331534 128.498016 
L 517.64858 128.274423 
L 518.28267 128.387314 
L 518.916761 128.0139 
L 519.233807 128.288109 
L 519.550852 128.100486 
L 519.867898 127.543495 
L 520.184943 128.456858 
L 520.501989 128.276029 
L 521.13608 127.376279 
L 521.453125 127.881526 
L 521.77017 127.566609 
L 522.087216 128.504799 
L 522.404261 127.864722 
L 522.721307 127.969611 
L 523.038352 128.192948 
L 523.672443 128.960918 
L 523.989489 127.85642 
L 524.306534 128.530704 
L 524.940625 128.083977 
L 525.25767 128.089811 
L 525.574716 128.486558 
L 525.891761 128.083245 
L 526.208807 128.52183 
L 526.525852 128.587141 
L 526.842898 127.399609 
L 527.159943 128.622225 
L 527.476989 127.814139 
L 528.11108 128.590027 
L 528.74517 127.824774 
L 529.062216 127.855236 
L 529.379261 128.598182 
L 529.696307 128.623991 
L 530.013352 127.687831 
L 530.330398 127.747095 
L 530.647443 127.618251 
L 530.964489 128.141055 
L 531.281534 128.053699 
L 531.59858 128.260007 
L 531.915625 128.237809 
L 532.23267 127.535737 
L 532.549716 127.211983 
L 532.866761 127.965842 
L 533.183807 128.21168 
L 533.500852 127.657311 
L 533.817898 127.617504 
L 534.134943 127.145944 
L 534.451989 127.927584 
L 534.769034 128.00687 
L 535.08608 127.647086 
L 535.403125 127.7914 
L 536.037216 127.757008 
L 536.354261 128.347961 
L 536.671307 127.746569 
L 536.988352 128.747922 
L 537.305398 127.807395 
L 537.622443 127.828644 
L 538.57358 127.345033 
L 539.524716 127.573485 
L 539.841761 127.272746 
L 540.475852 127.486279 
L 540.792898 127.621594 
L 541.109943 127.985695 
L 541.426989 127.000644 
L 542.06108 128.093939 
L 542.378125 127.937176 
L 542.69517 127.594697 
L 543.012216 127.723237 
L 543.329261 127.677483 
L 543.646307 126.356551 
L 543.963352 128.018713 
L 544.280398 127.988109 
L 544.914489 127.359695 
L 545.231534 127.810998 
L 545.54858 127.604988 
L 545.865625 126.895483 
L 546.18267 127.286613 
L 546.499716 127.132644 
L 546.816761 127.738217 
L 547.133807 127.356705 
L 547.450852 127.557332 
L 547.767898 126.794138 
L 548.084943 126.422708 
L 548.719034 127.416682 
L 549.353125 126.803318 
L 549.67017 127.887229 
L 549.987216 127.818982 
L 550.304261 127.464524 
L 550.621307 127.516661 
L 550.938352 127.357237 
L 551.255398 127.685198 
L 551.572443 127.127078 
L 552.206534 127.573866 
L 552.52358 126.939082 
L 552.840625 126.933985 
L 553.15767 126.523913 
L 553.474716 127.650705 
L 553.791761 127.933758 
L 554.108807 127.434541 
L 554.425852 127.979045 
L 554.742898 126.357291 
L 555.376989 127.283212 
L 556.01108 127.00033 
L 556.328125 126.706382 
L 556.962216 127.292072 
L 557.279261 127.798313 
L 557.596307 126.374753 
L 557.913352 127.293712 
L 558.230398 126.746382 
L 558.547443 126.585297 
L 559.181534 127.177386 
L 559.49858 126.826336 
L 559.815625 127.075823 
L 560.13267 126.237749 
L 560.766761 127.544276 
L 561.083807 127.545922 
L 561.400852 126.576973 
L 561.717898 127.802719 
L 562.034943 127.300055 
L 562.351989 127.386778 
L 562.669034 127.151534 
L 562.98608 127.751722 
L 563.303125 126.784998 
L 563.62017 127.154867 
L 563.937216 127.944264 
L 564.254261 128.160127 
L 564.571307 128.137548 
L 564.888352 127.316155 
L 565.205398 127.437618 
L 565.522443 127.738468 
L 565.839489 128.661689 
L 566.156534 127.508538 
L 566.47358 126.793511 
L 567.10767 127.571562 
L 567.424716 126.441999 
L 567.741761 127.068186 
L 568.058807 126.840333 
L 568.375852 127.409232 
L 568.692898 127.126617 
L 569.009943 127.87588 
L 569.326989 127.846103 
L 569.644034 127.242305 
L 569.96108 127.533455 
L 570.278125 128.223215 
L 570.59517 128.12054 
L 571.229261 127.273517 
L 571.546307 127.335004 
L 571.863352 127.606613 
L 572.497443 127.110542 
L 572.814489 127.933671 
L 573.131534 127.138406 
L 573.765625 127.271312 
L 574.08267 127.624501 
L 574.399716 127.024854 
L 574.716761 126.903841 
L 575.033807 127.667194 
L 575.350852 127.474926 
L 575.667898 126.997623 
L 576.301989 127.803393 
L 576.619034 127.016092 
L 576.93608 128.048824 
L 577.253125 126.916901 
L 577.57017 127.760835 
L 577.887216 127.33094 
L 578.204261 127.809074 
L 578.521307 127.605806 
L 578.838352 127.100572 
L 579.155398 127.513943 
L 579.472443 127.345207 
L 579.789489 127.360566 
L 580.106534 127.667844 
L 580.42358 126.439981 
L 580.740625 126.984652 
L 581.374716 126.554452 
L 581.691761 126.684012 
L 582.008807 127.335911 
L 582.642898 127.000045 
L 582.959943 127.600941 
L 583.276989 127.407571 
L 583.594034 127.411077 
L 583.91108 127.553701 
L 584.54517 127.183738 
L 584.862216 127.399852 
L 585.179261 127.370025 
L 585.496307 127.560653 
L 585.813352 127.352457 
L 586.130398 128.170942 
L 586.447443 127.486583 
L 586.764489 127.865063 
L 587.081534 127.573425 
L 587.715625 127.480321 
L 588.03267 127.536658 
L 588.349716 127.994481 
L 588.666761 127.840423 
L 588.983807 127.886271 
L 589.300852 127.695365 
L 589.934943 128.072647 
L 590.251989 127.67611 
L 590.569034 128.006786 
L 590.88608 127.558132 
L 591.203125 127.304911 
L 591.52017 127.770635 
L 591.837216 127.367822 
L 592.154261 127.653067 
L 592.471307 127.095373 
L 592.788352 127.362858 
L 593.422443 127.184245 
L 594.056534 126.944784 
L 594.37358 126.82021 
L 594.690625 127.091159 
L 595.00767 126.8412 
L 595.324716 127.386945 
L 595.641761 127.436879 
L 595.958807 127.761782 
L 596.275852 127.763007 
L 596.592898 127.981252 
L 596.909943 127.468253 
L 597.86108 127.723755 
L 598.178125 127.021336 
L 598.49517 127.001394 
L 598.812216 127.108605 
L 599.129261 127.067439 
L 599.446307 127.288904 
L 599.763352 127.143189 
L 600.080398 126.758517 
L 600.397443 127.595208 
L 600.714489 126.769702 
L 601.031534 127.025046 
L 601.665625 126.754899 
L 601.98267 127.163068 
L 602.616761 127.2068 
L 602.933807 126.945537 
L 603.250852 126.957319 
L 603.567898 127.164573 
L 603.884943 127.22008 
L 604.201989 127.115276 
L 604.519034 127.46809 
L 604.83608 126.801221 
L 605.153125 127.412542 
L 605.47017 126.767128 
L 605.787216 126.659965 
L 606.104261 127.031931 
L 606.738352 127.237185 
L 607.055398 126.900745 
L 607.372443 127.450777 
L 607.689489 127.437678 
L 608.006534 127.090481 
L 608.32358 127.201577 
L 608.640625 127.141433 
L 608.95767 126.709728 
L 609.908807 127.492989 
L 610.225852 127.484855 
L 610.542898 127.756751 
L 610.859943 127.075071 
L 611.176989 127.971328 
L 611.81108 127.073099 
L 612.44517 127.403859 
L 612.762216 127.063332 
L 613.079261 126.903991 
L 613.396307 127.307619 
L 613.713352 126.809661 
L 614.030398 127.211634 
L 614.664489 126.769839 
L 614.981534 127.294285 
L 615.615625 127.548939 
L 615.93267 127.189619 
L 616.249716 127.605964 
L 616.566761 127.027122 
L 616.883807 127.544895 
L 617.200852 127.419078 
L 617.517898 127.664846 
L 617.834943 127.612646 
L 618.78608 127.041623 
L 619.103125 127.117132 
L 619.42017 127.323429 
L 619.737216 127.346218 
L 620.054261 127.737656 
L 620.371307 126.99956 
L 620.688352 126.595192 
L 621.005398 127.28475 
L 621.322443 127.651582 
L 622.27358 127.52295 
L 622.590625 126.458379 
L 622.90767 127.519935 
L 623.541761 127.734302 
L 623.858807 127.240468 
L 624.175852 127.323929 
L 624.492898 127.195147 
L 624.809943 127.307712 
L 625.126989 127.538918 
L 625.126989 127.538918 
" clip-path="url(#pd478ac3921)" style="fill: none; stroke: #1f77b4; stroke-width: 1.5; stroke-linecap: square"/>
   </g>
   <g id="line2d_15">
    <path d="M 117.854261 272.296377 
L 118.171307 296.03625 
L 118.488352 264.026086 
L 118.805398 207.799987 
L 119.122443 243.066594 
L 119.439489 193.629605 
L 119.756534 187.417065 
L 120.07358 175.612571 
L 120.390625 188.708502 
L 120.70767 182.468813 
L 121.341761 163.200798 
L 121.658807 165.079255 
L 121.975852 164.641227 
L 122.292898 164.583714 
L 122.609943 170.878139 
L 122.926989 192.699071 
L 123.244034 175.336276 
L 123.56108 168.049861 
L 123.878125 151.28019 
L 124.19517 159.248282 
L 124.512216 146.28808 
L 124.829261 140.901759 
L 125.146307 145.551194 
L 125.463352 142.666678 
L 125.780398 143.648375 
L 126.097443 145.606527 
L 126.414489 140.852092 
L 126.731534 145.328446 
L 127.04858 143.822301 
L 127.365625 139.007021 
L 127.68267 137.082641 
L 127.999716 136.292485 
L 128.316761 134.505795 
L 128.633807 136.254305 
L 128.950852 137.319965 
L 129.267898 137.857859 
L 129.584943 137.248942 
L 129.901989 137.370009 
L 130.219034 140.140774 
L 130.53608 136.559143 
L 130.853125 136.20536 
L 131.17017 136.796645 
L 131.487216 135.641941 
L 131.804261 138.298132 
L 132.121307 136.548575 
L 132.438352 138.086089 
L 132.755398 137.093049 
L 133.072443 139.686466 
L 133.389489 134.660049 
L 133.706534 136.760201 
L 134.02358 136.928963 
L 134.340625 137.545384 
L 134.974716 135.145935 
L 135.608807 138.556555 
L 135.925852 138.551237 
L 136.242898 137.30024 
L 136.559943 134.618055 
L 136.876989 136.359067 
L 137.194034 135.329998 
L 137.828125 134.580303 
L 138.14517 133.586949 
L 138.462216 134.311701 
L 138.779261 134.512647 
L 139.096307 134.178027 
L 139.413352 133.276789 
L 139.730398 134.796104 
L 140.047443 135.5698 
L 140.364489 133.398496 
L 140.681534 134.94464 
L 141.315625 136.023794 
L 141.63267 134.271671 
L 141.949716 133.52041 
L 142.266761 134.134421 
L 142.583807 134.354601 
L 142.900852 134.101571 
L 143.217898 134.851017 
L 143.534943 135.281328 
L 144.169034 133.753552 
L 144.48608 134.350299 
L 144.803125 134.197715 
L 145.12017 135.957243 
L 145.437216 133.746004 
L 145.754261 134.598264 
L 146.071307 133.655918 
L 146.388352 134.480093 
L 146.705398 134.348458 
L 147.022443 134.696788 
L 147.339489 133.512672 
L 147.656534 135.221075 
L 147.97358 133.730723 
L 148.290625 134.529465 
L 148.60767 132.370661 
L 149.241761 134.572126 
L 149.558807 134.072371 
L 149.875852 134.627531 
L 150.192898 133.686821 
L 150.509943 135.793761 
L 150.826989 136.798164 
L 151.144034 135.970146 
L 151.46108 136.020147 
L 152.09517 133.937679 
L 152.412216 133.883375 
L 152.729261 135.783679 
L 153.046307 134.246771 
L 153.363352 134.67069 
L 153.680398 133.787839 
L 153.997443 133.98603 
L 154.314489 133.749291 
L 154.631534 134.937766 
L 154.94858 133.590693 
L 155.265625 133.948955 
L 155.899716 135.163464 
L 156.216761 135.250225 
L 156.533807 133.417657 
L 156.850852 134.83951 
L 157.167898 134.042226 
L 157.484943 133.857755 
L 157.801989 132.744474 
L 158.119034 133.127158 
L 158.43608 133.733979 
L 159.07017 132.540356 
L 159.387216 132.381644 
L 159.704261 133.468012 
L 160.021307 132.89523 
L 160.338352 133.132457 
L 160.655398 133.054752 
L 160.972443 134.444325 
L 161.289489 134.492291 
L 161.606534 132.703812 
L 161.92358 132.803628 
L 162.240625 132.034225 
L 162.55767 131.855089 
L 162.874716 132.523579 
L 163.191761 133.899917 
L 163.508807 133.3576 
L 163.825852 133.204065 
L 164.142898 132.664753 
L 164.459943 133.850222 
L 164.776989 132.380251 
L 165.094034 134.508646 
L 165.41108 132.891838 
L 165.728125 132.60006 
L 166.362216 133.371722 
L 166.996307 133.289836 
L 167.313352 133.233779 
L 167.630398 132.59753 
L 168.264489 133.469409 
L 168.581534 135.298431 
L 168.89858 133.081593 
L 169.215625 133.76687 
L 169.53267 133.628306 
L 169.849716 134.142602 
L 170.483807 133.234211 
L 170.800852 133.387198 
L 171.117898 132.977919 
L 171.434943 133.963267 
L 171.751989 133.314476 
L 172.069034 132.411628 
L 172.38608 133.066124 
L 172.703125 134.496277 
L 173.02017 133.755932 
L 173.337216 135.162542 
L 173.654261 133.581566 
L 173.971307 133.305612 
L 174.288352 133.524542 
L 174.922443 133.266223 
L 175.239489 134.589685 
L 175.556534 133.405029 
L 176.190625 134.669077 
L 176.50767 133.501361 
L 176.824716 134.54872 
L 177.141761 134.330751 
L 177.458807 133.594184 
L 177.775852 133.685259 
L 178.092898 133.132268 
L 178.726989 134.556337 
L 179.044034 134.747522 
L 179.36108 133.734818 
L 179.678125 134.057103 
L 179.99517 133.400449 
L 180.629261 135.078663 
L 180.946307 134.763415 
L 181.263352 132.670398 
L 181.580398 133.845273 
L 181.897443 134.183134 
L 182.214489 135.394309 
L 182.531534 134.32218 
L 182.84858 135.40424 
L 183.165625 135.965906 
L 183.48267 134.883353 
L 183.799716 135.13337 
L 184.116761 133.912702 
L 184.433807 134.390122 
L 184.750852 133.280426 
L 185.384943 133.610408 
L 185.701989 133.884612 
L 186.33608 135.665181 
L 186.653125 133.526647 
L 186.97017 134.958716 
L 187.287216 134.407457 
L 187.604261 133.612359 
L 187.921307 132.453903 
L 188.238352 132.901754 
L 188.555398 134.501656 
L 188.872443 132.691125 
L 189.189489 132.707572 
L 189.506534 133.549338 
L 189.82358 133.084856 
L 190.45767 134.739972 
L 190.774716 133.289971 
L 191.091761 133.717798 
L 191.408807 134.941621 
L 191.725852 133.779234 
L 192.042898 134.403515 
L 192.359943 132.779398 
L 192.676989 134.351158 
L 192.994034 134.337696 
L 193.31108 134.155492 
L 193.628125 132.525546 
L 193.94517 133.086877 
L 194.262216 131.931183 
L 194.579261 134.582029 
L 194.896307 134.47649 
L 195.847443 133.335482 
L 196.481534 133.982783 
L 196.79858 133.474433 
L 197.115625 133.545177 
L 197.43267 134.065804 
L 197.749716 133.091783 
L 198.066761 133.394984 
L 198.383807 133.362916 
L 198.700852 133.734817 
L 199.651989 134.215488 
L 199.969034 133.965623 
L 200.28608 135.494185 
L 200.92017 133.550128 
L 201.237216 133.11194 
L 201.554261 132.238664 
L 201.871307 132.453043 
L 202.188352 130.810441 
L 202.822443 134.124518 
L 203.139489 135.103878 
L 203.456534 133.781092 
L 203.77358 133.99295 
L 204.090625 132.891941 
L 204.40767 133.912624 
L 205.041761 132.399447 
L 205.358807 131.713326 
L 205.675852 132.090483 
L 205.992898 132.856766 
L 206.309943 133.123812 
L 206.626989 133.135695 
L 206.944034 132.27877 
L 207.26108 132.610056 
L 207.578125 134.40004 
L 207.89517 133.040585 
L 208.212216 133.285989 
L 208.529261 133.033763 
L 208.846307 134.071489 
L 209.163352 133.40679 
L 209.797443 133.948797 
L 210.114489 133.393113 
L 210.431534 134.972785 
L 210.74858 133.784309 
L 211.065625 134.35198 
L 211.38267 133.539669 
L 211.699716 133.178662 
L 212.016761 134.394646 
L 212.333807 132.953353 
L 212.650852 132.700312 
L 213.284943 133.674356 
L 213.601989 132.279369 
L 213.919034 132.540283 
L 214.23608 132.63201 
L 214.553125 132.106652 
L 215.187216 131.875436 
L 215.504261 132.101985 
L 215.821307 131.632349 
L 216.138352 132.243352 
L 216.455398 131.312647 
L 216.772443 132.518016 
L 217.089489 132.074249 
L 217.406534 133.525432 
L 218.040625 131.365266 
L 218.35767 132.376833 
L 218.674716 132.470925 
L 219.308807 131.396327 
L 219.625852 131.54476 
L 219.942898 132.302675 
L 220.259943 131.590595 
L 220.576989 132.470348 
L 220.894034 132.412599 
L 221.21108 131.673215 
L 221.84517 133.198533 
L 222.162216 133.673751 
L 222.796307 131.4986 
L 223.113352 132.618971 
L 223.430398 132.490221 
L 223.747443 132.556169 
L 224.064489 131.788266 
L 224.381534 131.942189 
L 224.69858 131.903216 
L 225.015625 132.539686 
L 225.33267 130.569412 
L 225.966761 132.033561 
L 226.283807 131.906376 
L 226.600852 130.992269 
L 227.234943 132.544933 
L 227.551989 132.199204 
L 227.869034 132.783126 
L 228.18608 132.067351 
L 228.503125 132.47541 
L 228.82017 132.238959 
L 229.137216 132.671792 
L 229.454261 132.285419 
L 229.771307 132.183509 
L 230.088352 131.733499 
L 230.722443 132.243679 
L 231.039489 132.787757 
L 231.990625 132.398486 
L 232.624716 132.428882 
L 232.941761 131.97184 
L 233.258807 132.431972 
L 233.575852 133.559509 
L 233.892898 133.063622 
L 234.209943 133.288699 
L 234.526989 132.205903 
L 234.844034 132.12337 
L 235.16108 131.742718 
L 235.478125 132.882066 
L 236.429261 132.404978 
L 237.063352 132.463904 
L 237.380398 131.924399 
L 237.697443 132.932016 
L 238.014489 132.058467 
L 238.331534 131.58803 
L 238.64858 132.137126 
L 238.965625 131.581192 
L 239.599716 132.978092 
L 239.916761 133.131272 
L 240.233807 134.108581 
L 240.550852 132.805618 
L 240.867898 132.444667 
L 241.184943 132.462697 
L 241.501989 132.82047 
L 241.819034 132.728157 
L 242.453125 132.097278 
L 242.77017 132.340179 
L 243.087216 132.742722 
L 243.404261 133.609747 
L 243.721307 132.67693 
L 244.038352 132.79041 
L 244.355398 132.485461 
L 244.672443 132.365072 
L 244.989489 133.161963 
L 245.306534 133.657013 
L 245.62358 132.932014 
L 245.940625 133.725188 
L 246.574716 133.602527 
L 247.208807 132.317633 
L 247.842898 134.369376 
L 248.159943 133.267726 
L 248.476989 134.488446 
L 248.794034 133.333287 
L 249.11108 133.597625 
L 249.428125 135.119699 
L 249.74517 133.710805 
L 250.062216 134.149777 
L 250.379261 133.742468 
L 250.696307 131.405445 
L 251.330398 134.263899 
L 251.647443 132.946087 
L 251.964489 133.713455 
L 252.281534 133.403473 
L 252.59858 132.451649 
L 252.915625 132.25086 
L 253.23267 132.746294 
L 253.866761 134.145032 
L 254.183807 133.773815 
L 254.500852 132.745112 
L 254.817898 133.204419 
L 255.134943 132.526789 
L 255.769034 132.501007 
L 256.08608 132.877976 
L 256.403125 132.827072 
L 256.72017 133.125438 
L 257.037216 133.077798 
L 257.671307 132.281847 
L 257.988352 132.139013 
L 258.305398 133.059999 
L 258.622443 132.847204 
L 258.939489 133.215277 
L 259.256534 133.038088 
L 259.57358 133.341311 
L 259.890625 133.198229 
L 260.20767 132.869768 
L 260.841761 130.601714 
L 261.158807 130.221287 
L 261.475852 132.44365 
L 261.792898 132.860736 
L 262.109943 132.116999 
L 262.426989 132.416893 
L 262.744034 132.019425 
L 263.06108 132.093121 
L 263.378125 131.574188 
L 263.69517 131.30707 
L 264.012216 131.666799 
L 264.329261 131.029464 
L 264.646307 133.131409 
L 265.280398 131.66752 
L 265.597443 130.991933 
L 265.914489 131.632793 
L 266.54858 132.233251 
L 266.865625 131.305001 
L 267.18267 130.814976 
L 267.499716 131.642424 
L 267.816761 132.145508 
L 268.133807 131.893631 
L 268.450852 131.26196 
L 268.767898 131.298169 
L 269.084943 132.251309 
L 269.401989 131.744891 
L 269.719034 131.722877 
L 270.03608 131.213984 
L 270.353125 133.009789 
L 270.67017 132.112158 
L 271.304261 132.428836 
L 271.621307 132.054355 
L 272.255398 133.03029 
L 272.572443 132.790353 
L 272.889489 133.726846 
L 273.206534 131.680295 
L 273.52358 132.280318 
L 273.840625 133.309699 
L 274.15767 132.588921 
L 274.474716 132.646088 
L 274.791761 132.094469 
L 275.108807 132.633491 
L 275.425852 132.299455 
L 275.742898 132.719236 
L 276.059943 132.658564 
L 276.376989 130.7238 
L 276.694034 132.541882 
L 277.01108 131.890837 
L 277.328125 132.252463 
L 277.64517 132.059202 
L 278.279261 131.33064 
L 278.596307 131.620803 
L 278.913352 132.843674 
L 279.230398 132.807016 
L 279.547443 132.123512 
L 280.181534 132.697557 
L 280.49858 132.59924 
L 280.815625 131.928732 
L 281.13267 132.041675 
L 281.449716 132.651605 
L 281.766761 132.183978 
L 282.400852 133.385368 
L 283.034943 133.234771 
L 283.669034 133.314622 
L 283.98608 133.123202 
L 284.303125 130.267198 
L 284.62017 131.961519 
L 284.937216 132.457787 
L 285.254261 131.922502 
L 285.571307 132.137043 
L 285.888352 131.904927 
L 286.205398 132.655 
L 286.522443 132.616746 
L 286.839489 131.219268 
L 287.156534 130.828335 
L 287.47358 131.633501 
L 287.790625 131.692301 
L 288.10767 133.00353 
L 288.424716 131.70666 
L 288.741761 132.741796 
L 289.058807 131.429345 
L 289.692898 131.603527 
L 290.009943 132.149271 
L 290.326989 131.578289 
L 290.644034 131.710636 
L 290.96108 133.077386 
L 291.278125 133.171804 
L 291.59517 131.927192 
L 291.912216 131.326142 
L 292.229261 131.693857 
L 292.546307 131.160785 
L 292.863352 132.014318 
L 293.497443 131.679714 
L 293.814489 131.938007 
L 294.131534 131.955963 
L 294.44858 132.66614 
L 294.765625 132.074235 
L 295.399716 131.45893 
L 295.716761 131.684332 
L 296.033807 132.235263 
L 296.350852 131.630971 
L 296.667898 132.221324 
L 296.984943 132.119814 
L 297.301989 132.407691 
L 297.619034 132.042115 
L 297.93608 131.368889 
L 298.253125 132.476174 
L 298.57017 132.517321 
L 298.887216 131.085981 
L 299.204261 131.956984 
L 299.521307 131.732544 
L 299.838352 132.372228 
L 300.155398 131.597795 
L 300.472443 131.822922 
L 300.789489 130.872069 
L 301.106534 132.252918 
L 301.42358 131.896233 
L 301.740625 132.798829 
L 302.374716 131.423575 
L 302.691761 132.113453 
L 303.008807 131.16003 
L 303.325852 132.417548 
L 303.642898 132.480037 
L 303.959943 131.610612 
L 304.276989 131.893874 
L 304.91108 130.508775 
L 305.228125 129.977019 
L 305.54517 131.37025 
L 305.862216 130.291315 
L 306.179261 131.423547 
L 306.496307 130.796264 
L 306.813352 131.738487 
L 307.130398 131.537825 
L 307.447443 130.668533 
L 307.764489 131.041875 
L 308.081534 130.949823 
L 308.39858 131.078029 
L 308.715625 131.601004 
L 309.03267 131.066591 
L 309.349716 130.974 
L 309.666761 130.53843 
L 309.983807 131.155066 
L 310.300852 131.48501 
L 310.617898 131.632228 
L 311.251989 130.628291 
L 311.569034 132.335118 
L 311.88608 131.484981 
L 312.203125 131.950548 
L 312.52017 131.455994 
L 312.837216 131.328138 
L 313.471307 130.68959 
L 313.788352 131.92097 
L 314.105398 131.415325 
L 314.422443 131.543803 
L 314.739489 131.519969 
L 315.056534 131.803965 
L 315.37358 131.677254 
L 315.690625 131.359358 
L 316.00767 131.90808 
L 316.324716 131.520382 
L 316.641761 131.787374 
L 316.958807 131.411736 
L 317.275852 131.404292 
L 317.592898 132.255072 
L 317.909943 131.798463 
L 318.226989 130.909378 
L 318.544034 131.273687 
L 318.86108 131.908029 
L 319.178125 131.302501 
L 319.49517 131.099072 
L 319.812216 131.333146 
L 320.129261 131.356257 
L 320.446307 130.961632 
L 320.763352 131.366747 
L 321.080398 130.951825 
L 321.714489 131.212655 
L 322.031534 131.168558 
L 322.34858 130.967352 
L 322.665625 131.518516 
L 323.299716 131.433964 
L 323.616761 131.759866 
L 324.250852 131.484234 
L 324.567898 131.763791 
L 324.884943 131.549835 
L 325.201989 131.751839 
L 325.519034 131.656265 
L 325.83608 132.157738 
L 326.153125 131.513777 
L 326.47017 131.526221 
L 326.787216 131.854591 
L 327.104261 132.654571 
L 327.738352 131.865287 
L 328.055398 130.593149 
L 328.372443 131.921112 
L 328.689489 131.63564 
L 329.006534 130.461283 
L 329.640625 130.893114 
L 329.95767 131.384476 
L 330.274716 130.934519 
L 330.591761 131.984969 
L 330.908807 131.163396 
L 331.225852 131.732841 
L 331.542898 131.006899 
L 331.859943 131.856539 
L 332.176989 131.359202 
L 332.494034 132.228461 
L 332.81108 130.795866 
L 333.128125 131.643273 
L 333.44517 132.082196 
L 333.762216 131.832027 
L 334.079261 132.757849 
L 334.396307 132.44943 
L 334.713352 132.587832 
L 335.030398 131.584111 
L 335.347443 131.543406 
L 335.664489 131.805415 
L 335.981534 131.450258 
L 336.615625 131.646294 
L 336.93267 132.107408 
L 337.249716 131.880479 
L 337.566761 132.134369 
L 337.883807 131.970307 
L 338.200852 132.386177 
L 338.517898 132.565465 
L 338.834943 131.64731 
L 339.151989 132.947028 
L 339.469034 131.513955 
L 339.78608 130.972511 
L 340.103125 131.252736 
L 340.42017 131.206001 
L 341.688352 132.653737 
L 342.005398 131.817172 
L 342.322443 132.11926 
L 342.639489 132.101248 
L 342.956534 131.966333 
L 343.27358 132.36078 
L 343.590625 131.258936 
L 343.90767 131.780393 
L 344.224716 131.54957 
L 344.858807 132.062622 
L 345.175852 131.957732 
L 345.492898 131.340718 
L 346.126989 131.670869 
L 346.444034 132.04183 
L 346.76108 132.236152 
L 347.078125 131.734186 
L 347.712216 131.782786 
L 348.029261 132.226408 
L 348.346307 132.283621 
L 348.663352 132.111478 
L 348.980398 132.220502 
L 349.297443 131.680684 
L 349.614489 132.290601 
L 349.931534 132.376387 
L 350.24858 133.543685 
L 350.565625 132.38326 
L 350.88267 131.997624 
L 351.199716 132.406125 
L 351.516761 131.864386 
L 352.467898 132.973723 
L 352.784943 132.207043 
L 353.101989 132.183732 
L 353.419034 132.917983 
L 353.73608 132.879916 
L 354.053125 131.609121 
L 354.37017 131.75248 
L 354.687216 131.61044 
L 355.004261 132.08651 
L 355.321307 131.515783 
L 355.638352 131.668492 
L 356.272443 130.424179 
L 356.589489 131.188671 
L 356.906534 131.541565 
L 357.22358 131.578801 
L 357.540625 131.760852 
L 357.85767 132.089249 
L 358.174716 131.078796 
L 358.491761 132.11539 
L 358.808807 131.641106 
L 359.125852 131.402283 
L 359.442898 130.979465 
L 359.759943 131.242137 
L 360.394034 131.105524 
L 360.71108 132.424635 
L 361.028125 132.220091 
L 361.34517 131.791997 
L 361.662216 131.938228 
L 361.979261 131.510736 
L 362.296307 132.098564 
L 362.613352 132.012834 
L 362.930398 133.27861 
L 363.564489 132.277825 
L 363.881534 132.339868 
L 364.19858 132.847564 
L 364.515625 132.572358 
L 364.83267 133.344471 
L 365.149716 133.44242 
L 365.466761 132.453226 
L 365.783807 132.987202 
L 366.100852 132.14924 
L 366.417898 132.405849 
L 367.051989 132.268171 
L 367.369034 132.281259 
L 367.68608 132.721498 
L 368.003125 132.325764 
L 368.32017 133.125103 
L 368.637216 133.109208 
L 368.954261 132.866023 
L 369.271307 133.262784 
L 369.588352 132.177378 
L 369.905398 132.36252 
L 370.222443 132.07249 
L 370.539489 132.346752 
L 371.17358 131.733131 
L 371.490625 132.763355 
L 371.80767 132.709225 
L 372.124716 132.462485 
L 372.758807 131.213038 
L 373.075852 131.659717 
L 373.392898 130.566539 
L 373.709943 130.559564 
L 374.026989 131.276871 
L 374.344034 130.846549 
L 374.66108 131.440441 
L 374.978125 130.957548 
L 375.29517 131.844636 
L 375.612216 131.094976 
L 375.929261 131.335715 
L 376.246307 131.407347 
L 376.563352 131.85281 
L 376.880398 131.305705 
L 377.197443 131.308068 
L 377.514489 131.126722 
L 377.831534 131.168921 
L 378.14858 130.91508 
L 378.465625 130.92399 
L 378.78267 130.733538 
L 379.099716 131.131068 
L 379.416761 131.184255 
L 379.733807 130.941223 
L 380.050852 131.384591 
L 380.367898 131.049911 
L 380.684943 131.456985 
L 381.001989 131.590332 
L 381.63608 131.392327 
L 381.953125 131.21249 
L 382.27017 131.931509 
L 382.587216 131.14334 
L 382.904261 131.232342 
L 383.221307 131.723453 
L 383.538352 131.587985 
L 384.172443 131.615276 
L 384.489489 131.440857 
L 385.12358 132.056708 
L 385.440625 131.762927 
L 385.75767 131.632992 
L 386.074716 132.353469 
L 386.708807 132.599687 
L 387.025852 132.971818 
L 387.659943 131.790298 
L 387.976989 132.466741 
L 388.294034 131.938196 
L 388.61108 131.1858 
L 388.928125 131.753227 
L 389.24517 131.454488 
L 389.562216 131.32602 
L 389.879261 131.732054 
L 390.830398 131.451028 
L 391.147443 131.069915 
L 391.464489 131.545053 
L 391.781534 132.321151 
L 392.09858 131.661514 
L 392.415625 131.759212 
L 393.049716 131.447085 
L 393.683807 132.403037 
L 394.000852 132.550619 
L 394.317898 132.262497 
L 394.951989 132.502361 
L 395.269034 131.712199 
L 395.58608 131.984447 
L 395.903125 131.804647 
L 396.22017 131.906886 
L 396.537216 131.496733 
L 396.854261 131.928376 
L 397.171307 131.837591 
L 397.488352 131.989177 
L 397.805398 131.447812 
L 398.122443 132.31555 
L 398.756534 131.861633 
L 399.07358 131.085775 
L 399.70767 131.103766 
L 400.024716 131.831547 
L 400.341761 132.165961 
L 400.658807 131.924331 
L 400.975852 132.49913 
L 401.292898 132.133288 
L 401.609943 132.703963 
L 401.926989 131.519711 
L 402.244034 131.787084 
L 402.56108 131.61516 
L 402.878125 131.905243 
L 403.19517 132.023337 
L 403.512216 131.424601 
L 403.829261 131.941062 
L 404.146307 131.584992 
L 404.463352 131.396081 
L 405.097443 131.734183 
L 405.414489 132.120899 
L 405.731534 131.868529 
L 406.04858 131.330176 
L 406.365625 131.950312 
L 406.68267 132.09371 
L 406.999716 131.285402 
L 407.316761 131.09023 
L 407.633807 131.418014 
L 408.584943 130.349473 
L 409.219034 130.653642 
L 409.53608 131.671098 
L 409.853125 131.704918 
L 410.487216 131.017815 
L 410.804261 131.587552 
L 411.121307 130.190526 
L 411.438352 131.64654 
L 411.755398 130.790442 
L 412.072443 131.176106 
L 412.389489 131.278116 
L 412.706534 132.267317 
L 413.02358 132.623179 
L 413.340625 131.651776 
L 413.65767 131.352801 
L 413.974716 131.294282 
L 414.291761 131.836177 
L 414.608807 131.318101 
L 414.925852 131.550916 
L 415.242898 131.334676 
L 415.559943 131.388509 
L 416.194034 131.856621 
L 416.51108 132.054724 
L 416.828125 131.115779 
L 417.14517 130.623342 
L 417.462216 130.862776 
L 417.779261 131.410627 
L 418.096307 131.349292 
L 418.413352 131.637476 
L 418.730398 130.877067 
L 419.047443 130.668975 
L 419.364489 131.473748 
L 419.681534 131.673314 
L 419.99858 132.305557 
L 420.315625 130.570695 
L 420.63267 131.524208 
L 420.949716 131.254612 
L 421.266761 131.168066 
L 421.583807 131.483211 
L 421.900852 130.980283 
L 422.534943 130.639009 
L 422.851989 131.405517 
L 423.169034 131.013127 
L 423.48608 131.049724 
L 423.803125 130.651157 
L 424.437216 131.651566 
L 424.754261 131.527573 
L 425.071307 131.633015 
L 425.388352 131.866406 
L 425.705398 131.748473 
L 426.022443 132.402915 
L 426.339489 132.503654 
L 426.97358 130.610999 
L 427.290625 131.411022 
L 427.60767 131.806313 
L 427.924716 131.121768 
L 428.241761 131.700637 
L 428.558807 131.62757 
L 428.875852 131.238641 
L 429.192898 131.260974 
L 430.144034 131.616936 
L 430.46108 131.295897 
L 430.778125 130.745783 
L 431.09517 130.782025 
L 431.412216 131.695054 
L 431.729261 131.024701 
L 432.046307 130.822981 
L 432.363352 131.750217 
L 432.680398 131.740044 
L 433.314489 130.129551 
L 433.631534 130.751975 
L 433.94858 131.003511 
L 434.265625 130.501422 
L 434.58267 130.73707 
L 434.899716 130.607715 
L 435.216761 129.985918 
L 435.533807 130.368178 
L 435.850852 131.084768 
L 436.167898 131.174641 
L 436.801989 130.139932 
L 437.119034 131.065379 
L 437.43608 130.833717 
L 438.07017 131.372946 
L 438.387216 131.291543 
L 438.704261 130.667029 
L 439.338352 130.97347 
L 439.655398 131.307341 
L 439.972443 131.831564 
L 440.289489 131.625404 
L 440.606534 131.179196 
L 440.92358 130.424577 
L 441.240625 131.765082 
L 441.55767 131.368139 
L 441.874716 131.226704 
L 442.191761 129.60527 
L 442.508807 131.070313 
L 442.825852 130.095266 
L 443.142898 130.115799 
L 443.459943 131.068329 
L 443.776989 131.166856 
L 444.094034 129.884812 
L 444.41108 130.754992 
L 445.04517 131.562154 
L 445.362216 130.966667 
L 445.679261 131.136951 
L 445.996307 130.97303 
L 446.313352 130.964746 
L 446.630398 131.401499 
L 446.947443 130.626838 
L 447.581534 131.470264 
L 447.89858 130.858801 
L 448.215625 130.899558 
L 448.849716 131.327705 
L 449.483807 130.392417 
L 450.117898 130.354384 
L 450.434943 131.156742 
L 450.751989 130.83115 
L 451.069034 130.24938 
L 451.38608 130.371003 
L 451.703125 129.487353 
L 452.02017 124.532664 
L 452.337216 128.733557 
L 452.654261 130.746911 
L 452.971307 130.987071 
L 453.288352 130.324001 
L 453.605398 130.448759 
L 453.922443 130.830733 
L 454.239489 130.595539 
L 454.556534 131.188754 
L 454.87358 130.164736 
L 455.50767 129.37263 
L 455.824716 129.95629 
L 456.458807 129.478811 
L 456.775852 130.005955 
L 457.092898 130.010266 
L 458.044034 130.921899 
L 458.36108 130.187721 
L 458.678125 130.113992 
L 458.99517 131.214958 
L 459.312216 130.452203 
L 459.629261 130.945951 
L 459.946307 130.491291 
L 460.580398 131.514279 
L 460.897443 131.223316 
L 461.531534 131.389353 
L 462.165625 131.656079 
L 462.48267 129.705955 
L 462.799716 129.917771 
L 463.116761 129.276748 
L 463.433807 130.453329 
L 463.750852 130.414805 
L 464.067898 130.50234 
L 464.384943 130.467444 
L 464.701989 131.055133 
L 465.019034 130.138572 
L 465.33608 130.40683 
L 465.653125 125.50742 
L 465.97017 122.84104 
L 466.287216 130.1481 
L 466.604261 130.84771 
L 467.238352 130.640343 
L 467.555398 130.828383 
L 467.872443 130.498662 
L 468.189489 130.583282 
L 468.506534 129.75929 
L 468.82358 130.374035 
L 469.140625 129.867492 
L 469.45767 131.896064 
L 470.091761 130.212515 
L 470.408807 130.845973 
L 470.725852 130.804372 
L 471.042898 131.0562 
L 471.676989 130.108805 
L 471.994034 130.992055 
L 472.31108 130.592388 
L 472.628125 130.488568 
L 472.94517 130.23127 
L 473.262216 130.805741 
L 473.896307 130.00987 
L 474.213352 130.389554 
L 474.530398 130.413294 
L 474.847443 129.829188 
L 475.164489 130.722457 
L 475.481534 131.024591 
L 475.79858 129.376244 
L 476.115625 130.437763 
L 476.43267 130.424088 
L 477.066761 130.688667 
L 477.383807 132.07996 
L 477.700852 130.667219 
L 478.017898 130.690392 
L 478.334943 129.888552 
L 478.651989 131.129125 
L 478.969034 130.389063 
L 479.28608 130.100626 
L 479.92017 130.674351 
L 480.237216 130.416076 
L 481.188352 130.233648 
L 481.505398 130.664875 
L 481.822443 129.387487 
L 482.139489 130.22461 
L 482.456534 129.77033 
L 482.77358 129.585297 
L 483.090625 130.128692 
L 483.724716 129.829608 
L 484.041761 130.994181 
L 484.358807 131.219198 
L 484.675852 130.70974 
L 484.992898 131.566129 
L 485.309943 131.209827 
L 485.626989 130.306914 
L 485.944034 130.868781 
L 486.26108 130.571939 
L 486.578125 130.595518 
L 486.89517 131.053044 
L 487.212216 130.282901 
L 487.529261 129.976774 
L 487.846307 130.526792 
L 488.163352 130.344896 
L 488.480398 131.020758 
L 488.797443 129.906556 
L 489.431534 130.716983 
L 489.74858 130.488582 
L 490.065625 130.787487 
L 490.38267 130.366097 
L 490.699716 130.165814 
L 491.016761 130.934409 
L 491.333807 130.164311 
L 491.967898 131.18006 
L 492.284943 129.463145 
L 492.601989 129.98269 
L 492.919034 130.244075 
L 493.23608 130.903143 
L 493.553125 130.176831 
L 494.504261 129.780195 
L 494.821307 130.4535 
L 495.138352 130.120047 
L 496.089489 130.726894 
L 496.406534 131.722965 
L 496.72358 131.979351 
L 497.040625 131.055048 
L 497.35767 130.63362 
L 498.308807 130.679998 
L 498.625852 129.982784 
L 498.942898 130.691736 
L 499.259943 129.917174 
L 499.576989 130.440223 
L 499.894034 130.522927 
L 500.21108 129.957382 
L 500.84517 129.849221 
L 501.162216 130.755282 
L 501.479261 130.96083 
L 501.796307 130.41423 
L 502.430398 130.557492 
L 502.747443 130.789901 
L 503.064489 130.863772 
L 503.381534 131.564199 
L 503.69858 130.661505 
L 504.015625 130.28247 
L 504.33267 130.699576 
L 504.649716 130.326585 
L 504.966761 130.781557 
L 505.283807 130.910442 
L 505.917898 130.744515 
L 506.234943 130.13246 
L 506.551989 130.820767 
L 506.869034 130.326052 
L 507.18608 130.391666 
L 507.503125 131.018171 
L 507.82017 130.115225 
L 508.137216 131.049893 
L 508.454261 130.829827 
L 508.771307 131.060234 
L 509.722443 130.133804 
L 510.039489 130.323136 
L 510.356534 131.045865 
L 510.67358 130.84038 
L 510.990625 130.122947 
L 511.30767 130.817559 
L 511.941761 131.009742 
L 512.258807 130.685493 
L 512.575852 129.957812 
L 512.892898 129.944515 
L 513.209943 130.66462 
L 513.526989 130.17704 
L 513.844034 131.316742 
L 514.16108 130.989109 
L 514.478125 131.196682 
L 515.112216 131.094299 
L 515.429261 130.872635 
L 515.746307 132.222389 
L 516.380398 130.76153 
L 516.697443 131.008135 
L 517.014489 130.604647 
L 517.331534 131.381519 
L 517.965625 131.74209 
L 518.28267 131.417356 
L 518.599716 130.539769 
L 518.916761 130.296014 
L 519.233807 129.894973 
L 519.550852 130.040812 
L 519.867898 130.328041 
L 520.184943 130.099852 
L 520.501989 130.564728 
L 520.819034 130.417975 
L 521.453125 130.946676 
L 521.77017 131.021662 
L 522.087216 131.322415 
L 522.404261 130.227999 
L 522.721307 130.593962 
L 523.038352 130.52789 
L 523.355398 130.654234 
L 523.672443 131.421961 
L 523.989489 131.238056 
L 524.306534 131.204655 
L 524.940625 130.693748 
L 525.25767 130.878738 
L 525.574716 131.617836 
L 525.891761 131.698071 
L 526.208807 131.485252 
L 526.525852 131.641098 
L 526.842898 131.335069 
L 527.159943 131.546914 
L 527.794034 130.955012 
L 528.11108 131.187717 
L 528.428125 131.776312 
L 528.74517 131.668382 
L 529.062216 130.825121 
L 529.379261 131.29556 
L 530.013352 130.48569 
L 530.330398 130.797796 
L 530.647443 130.06752 
L 530.964489 130.561251 
L 531.281534 130.77423 
L 531.59858 131.655061 
L 531.915625 130.695025 
L 532.23267 130.686328 
L 532.549716 130.027288 
L 532.866761 130.48206 
L 533.183807 130.457861 
L 533.817898 131.306902 
L 534.134943 131.29802 
L 534.451989 131.931612 
L 534.769034 131.096228 
L 535.08608 131.42237 
L 535.403125 131.525918 
L 535.72017 130.490469 
L 536.037216 131.427434 
L 536.354261 131.319698 
L 536.671307 132.065013 
L 536.988352 131.848164 
L 537.305398 130.823013 
L 537.622443 130.725385 
L 538.256534 131.711716 
L 538.57358 130.974484 
L 538.890625 131.716505 
L 539.20767 131.639789 
L 539.524716 131.837882 
L 539.841761 131.099314 
L 540.475852 130.933967 
L 540.792898 131.017748 
L 541.426989 130.888717 
L 541.744034 131.115387 
L 542.06108 131.109607 
L 542.378125 130.501021 
L 542.69517 131.002452 
L 543.012216 131.276586 
L 543.329261 131.222873 
L 543.646307 130.550084 
L 543.963352 131.494701 
L 544.280398 130.518888 
L 544.597443 131.319896 
L 545.231534 131.651287 
L 545.54858 131.305954 
L 545.865625 131.485045 
L 546.18267 130.531172 
L 546.499716 131.553836 
L 547.133807 129.965807 
L 547.450852 130.976343 
L 547.767898 131.249134 
L 548.084943 130.946057 
L 548.719034 131.226626 
L 549.03608 131.81106 
L 549.353125 131.330166 
L 549.67017 131.943713 
L 549.987216 132.114566 
L 550.621307 131.332326 
L 550.938352 132.325968 
L 551.255398 131.770171 
L 551.889489 131.460832 
L 552.206534 130.908258 
L 552.52358 131.492037 
L 552.840625 130.796225 
L 553.15767 130.547813 
L 553.474716 130.55218 
L 553.791761 131.262246 
L 554.108807 131.600058 
L 554.425852 131.133912 
L 554.742898 131.236189 
L 555.376989 130.883149 
L 555.694034 131.667761 
L 556.01108 131.447666 
L 556.64517 131.53297 
L 556.962216 131.352271 
L 557.596307 130.793341 
L 557.913352 130.551271 
L 558.547443 130.365484 
L 559.181534 131.728002 
L 559.49858 130.947119 
L 559.815625 131.103142 
L 560.449716 130.976254 
L 561.083807 132.198462 
L 562.034943 131.035508 
L 562.669034 130.629323 
L 563.303125 131.404048 
L 563.62017 131.586858 
L 563.937216 131.990964 
L 564.254261 132.071076 
L 564.571307 131.910629 
L 564.888352 131.34271 
L 565.205398 131.359568 
L 565.522443 132.435423 
L 565.839489 131.631789 
L 566.156534 131.545106 
L 566.47358 130.616834 
L 566.790625 130.482872 
L 567.10767 131.048006 
L 567.741761 130.251048 
L 568.058807 130.841582 
L 568.375852 130.174568 
L 568.692898 130.169603 
L 569.009943 131.135607 
L 569.326989 131.002913 
L 569.644034 130.619073 
L 569.96108 130.60738 
L 570.278125 130.939915 
L 570.59517 131.060842 
L 570.912216 130.826112 
L 571.229261 130.974252 
L 571.546307 130.49139 
L 571.863352 131.383115 
L 572.497443 130.358012 
L 572.814489 131.086693 
L 573.131534 131.297943 
L 573.44858 130.876218 
L 573.765625 131.345251 
L 574.08267 132.137334 
L 574.716761 130.989599 
L 575.033807 131.535417 
L 575.350852 130.874531 
L 575.667898 131.071163 
L 575.984943 131.002047 
L 576.301989 131.134322 
L 576.93608 130.864932 
L 577.253125 130.918441 
L 577.57017 131.279989 
L 577.887216 130.806182 
L 578.204261 131.169 
L 578.838352 131.248385 
L 579.472443 130.400712 
L 579.789489 130.624492 
L 580.106534 131.219857 
L 580.42358 130.535666 
L 580.740625 130.484845 
L 581.05767 130.236275 
L 581.374716 130.189186 
L 581.691761 130.657575 
L 582.008807 130.84095 
L 582.642898 131.763192 
L 582.959943 132.0902 
L 583.276989 131.16611 
L 583.594034 130.973591 
L 583.91108 131.574417 
L 584.228125 130.579338 
L 584.54517 131.330017 
L 584.862216 130.727593 
L 585.179261 131.00664 
L 585.496307 130.843032 
L 585.813352 131.137723 
L 586.130398 131.593509 
L 586.447443 130.854095 
L 586.764489 131.466026 
L 587.081534 131.172288 
L 587.39858 131.456048 
L 587.715625 130.79039 
L 588.349716 131.27356 
L 588.666761 130.493739 
L 589.300852 131.663408 
L 589.617898 131.568063 
L 589.934943 130.976887 
L 590.251989 131.446679 
L 590.88608 131.761427 
L 591.203125 131.728838 
L 591.52017 131.38315 
L 591.837216 132.093414 
L 592.154261 131.614761 
L 592.471307 131.942776 
L 592.788352 130.971106 
L 593.105398 131.622433 
L 593.422443 131.371196 
L 593.739489 131.989294 
L 594.056534 131.268879 
L 594.37358 131.116409 
L 595.00767 131.241378 
L 595.324716 131.869364 
L 595.641761 132.223454 
L 595.958807 132.170786 
L 596.909943 131.363673 
L 597.226989 131.792436 
L 597.544034 131.118592 
L 597.86108 131.300612 
L 598.178125 131.160146 
L 598.49517 131.837093 
L 598.812216 130.951092 
L 599.129261 130.444637 
L 599.446307 130.597268 
L 599.763352 131.456383 
L 600.080398 131.535454 
L 600.397443 131.331888 
L 600.714489 130.651915 
L 601.031534 130.26922 
L 601.34858 130.58758 
L 601.665625 130.536105 
L 601.98267 130.631814 
L 602.299716 130.429545 
L 602.933807 132.360552 
L 603.250852 132.349553 
L 603.567898 131.532838 
L 603.884943 131.151075 
L 604.201989 129.706172 
L 604.519034 130.333319 
L 604.83608 130.024263 
L 605.153125 131.026844 
L 605.47017 130.598839 
L 605.787216 131.068273 
L 606.104261 130.547894 
L 606.421307 130.669037 
L 606.738352 130.180929 
L 607.055398 130.424743 
L 607.372443 131.567042 
L 607.689489 131.827287 
L 608.006534 130.290703 
L 608.32358 130.432902 
L 608.640625 131.444508 
L 608.95767 130.184319 
L 609.274716 129.952115 
L 609.591761 130.332762 
L 609.908807 130.312705 
L 610.542898 131.219171 
L 610.859943 131.126251 
L 611.176989 130.723504 
L 611.494034 131.39232 
L 611.81108 130.69318 
L 612.128125 131.201114 
L 612.762216 129.813481 
L 613.079261 130.51143 
L 613.713352 130.735502 
L 614.030398 131.538113 
L 614.347443 131.019873 
L 614.664489 130.279433 
L 614.981534 130.411848 
L 615.615625 131.241317 
L 615.93267 130.80073 
L 616.249716 131.306855 
L 616.566761 131.319294 
L 616.883807 131.58801 
L 617.200852 130.822426 
L 617.517898 131.233273 
L 617.834943 131.327238 
L 618.151989 131.700616 
L 618.469034 130.621671 
L 619.42017 131.056816 
L 619.737216 131.497726 
L 620.371307 131.156354 
L 620.688352 130.719729 
L 621.005398 130.729742 
L 621.322443 131.702712 
L 622.27358 130.758355 
L 622.590625 130.16229 
L 623.541761 130.718299 
L 623.858807 130.523327 
L 624.175852 130.577445 
L 624.492898 131.309774 
L 624.809943 131.138877 
L 625.126989 130.68431 
L 625.126989 130.68431 
" clip-path="url(#pd478ac3921)" style="fill: none; stroke: #ff7f0e; stroke-width: 1.5; stroke-linecap: square"/>
   </g>
   <g id="patch_3">
    <path d="M 92.490625 308.63625 
L 92.490625 31.43625 
" style="fill: none; stroke: #000000; stroke-width: 0.8; stroke-linejoin: miter; stroke-linecap: square"/>
   </g>
   <g id="patch_4">
    <path d="M 650.490625 308.63625 
L 650.490625 31.43625 
" style="fill: none; stroke: #000000; stroke-width: 0.8; stroke-linejoin: miter; stroke-linecap: square"/>
   </g>
   <g id="patch_5">
    <path d="M 92.490625 308.63625 
L 650.490625 308.63625 
" style="fill: none; stroke: #000000; stroke-width: 0.8; stroke-linejoin: miter; stroke-linecap: square"/>
   </g>
   <g id="patch_6">
    <path d="M 92.490625 31.43625 
L 650.490625 31.43625 
" style="fill: none; stroke: #000000; stroke-width: 0.8; stroke-linejoin: miter; stroke-linecap: square"/>
   </g>
   <g id="text_16">
    <!-- Generator and Discriminator Loss During Training -->
    <g transform="translate(74.258125 25.43625) scale(0.24 -0.24)">
     <defs>
      <path id="DejaVuSans-47" d="M 3809 666 
L 3809 1919 
L 2778 1919 
L 2778 2438 
L 4434 2438 
L 4434 434 
Q 4069 175 3628 42 
Q 3188 -91 2688 -91 
Q 1594 -91 976 548 
Q 359 1188 359 2328 
Q 359 3472 976 4111 
Q 1594 4750 2688 4750 
Q 3144 4750 3555 4637 
Q 3966 4525 4313 4306 
L 4313 3634 
Q 3963 3931 3569 4081 
Q 3175 4231 2741 4231 
Q 1884 4231 1454 3753 
Q 1025 3275 1025 2328 
Q 1025 1384 1454 906 
Q 1884 428 2741 428 
Q 3075 428 3337 486 
Q 3600 544 3809 666 
z
" transform="scale(0.015625)"/>
      <path id="DejaVuSans-20" transform="scale(0.015625)"/>
      <path id="DejaVuSans-64" d="M 2906 2969 
L 2906 4863 
L 3481 4863 
L 3481 0 
L 2906 0 
L 2906 525 
Q 2725 213 2448 61 
Q 2172 -91 1784 -91 
Q 1150 -91 751 415 
Q 353 922 353 1747 
Q 353 2572 751 3078 
Q 1150 3584 1784 3584 
Q 2172 3584 2448 3432 
Q 2725 3281 2906 2969 
z
M 947 1747 
Q 947 1113 1208 752 
Q 1469 391 1925 391 
Q 2381 391 2643 752 
Q 2906 1113 2906 1747 
Q 2906 2381 2643 2742 
Q 2381 3103 1925 3103 
Q 1469 3103 1208 2742 
Q 947 2381 947 1747 
z
" transform="scale(0.015625)"/>
      <path id="DejaVuSans-44" d="M 1259 4147 
L 1259 519 
L 2022 519 
Q 2988 519 3436 956 
Q 3884 1394 3884 2338 
Q 3884 3275 3436 3711 
Q 2988 4147 2022 4147 
L 1259 4147 
z
M 628 4666 
L 1925 4666 
Q 3281 4666 3915 4102 
Q 4550 3538 4550 2338 
Q 4550 1131 3912 565 
Q 3275 0 1925 0 
L 628 0 
L 628 4666 
z
" transform="scale(0.015625)"/>
      <path id="DejaVuSans-63" d="M 3122 3366 
L 3122 2828 
Q 2878 2963 2633 3030 
Q 2388 3097 2138 3097 
Q 1578 3097 1268 2742 
Q 959 2388 959 1747 
Q 959 1106 1268 751 
Q 1578 397 2138 397 
Q 2388 397 2633 464 
Q 2878 531 3122 666 
L 3122 134 
Q 2881 22 2623 -34 
Q 2366 -91 2075 -91 
Q 1284 -91 818 406 
Q 353 903 353 1747 
Q 353 2603 823 3093 
Q 1294 3584 2113 3584 
Q 2378 3584 2631 3529 
Q 2884 3475 3122 3366 
z
" transform="scale(0.015625)"/>
      <path id="DejaVuSans-6d" d="M 3328 2828 
Q 3544 3216 3844 3400 
Q 4144 3584 4550 3584 
Q 5097 3584 5394 3201 
Q 5691 2819 5691 2113 
L 5691 0 
L 5113 0 
L 5113 2094 
Q 5113 2597 4934 2840 
Q 4756 3084 4391 3084 
Q 3944 3084 3684 2787 
Q 3425 2491 3425 1978 
L 3425 0 
L 2847 0 
L 2847 2094 
Q 2847 2600 2669 2842 
Q 2491 3084 2119 3084 
Q 1678 3084 1418 2786 
Q 1159 2488 1159 1978 
L 1159 0 
L 581 0 
L 581 3500 
L 1159 3500 
L 1159 2956 
Q 1356 3278 1631 3431 
Q 1906 3584 2284 3584 
Q 2666 3584 2933 3390 
Q 3200 3197 3328 2828 
z
" transform="scale(0.015625)"/>
      <path id="DejaVuSans-75" d="M 544 1381 
L 544 3500 
L 1119 3500 
L 1119 1403 
Q 1119 906 1312 657 
Q 1506 409 1894 409 
Q 2359 409 2629 706 
Q 2900 1003 2900 1516 
L 2900 3500 
L 3475 3500 
L 3475 0 
L 2900 0 
L 2900 538 
Q 2691 219 2414 64 
Q 2138 -91 1772 -91 
Q 1169 -91 856 284 
Q 544 659 544 1381 
z
M 1991 3584 
L 1991 3584 
z
" transform="scale(0.015625)"/>
      <path id="DejaVuSans-67" d="M 2906 1791 
Q 2906 2416 2648 2759 
Q 2391 3103 1925 3103 
Q 1463 3103 1205 2759 
Q 947 2416 947 1791 
Q 947 1169 1205 825 
Q 1463 481 1925 481 
Q 2391 481 2648 825 
Q 2906 1169 2906 1791 
z
M 3481 434 
Q 3481 -459 3084 -895 
Q 2688 -1331 1869 -1331 
Q 1566 -1331 1297 -1286 
Q 1028 -1241 775 -1147 
L 775 -588 
Q 1028 -725 1275 -790 
Q 1522 -856 1778 -856 
Q 2344 -856 2625 -561 
Q 2906 -266 2906 331 
L 2906 616 
Q 2728 306 2450 153 
Q 2172 0 1784 0 
Q 1141 0 747 490 
Q 353 981 353 1791 
Q 353 2603 747 3093 
Q 1141 3584 1784 3584 
Q 2172 3584 2450 3431 
Q 2728 3278 2906 2969 
L 2906 3500 
L 3481 3500 
L 3481 434 
z
" transform="scale(0.015625)"/>
      <path id="DejaVuSans-54" d="M -19 4666 
L 3928 4666 
L 3928 4134 
L 2272 4134 
L 2272 0 
L 1638 0 
L 1638 4134 
L -19 4134 
L -19 4666 
z
" transform="scale(0.015625)"/>
     </defs>
     <use xlink:href="#DejaVuSans-47"/>
     <use xlink:href="#DejaVuSans-65" x="77.490234"/>
     <use xlink:href="#DejaVuSans-6e" x="139.013672"/>
     <use xlink:href="#DejaVuSans-65" x="202.392578"/>
     <use xlink:href="#DejaVuSans-72" x="263.916016"/>
     <use xlink:href="#DejaVuSans-61" x="305.029297"/>
     <use xlink:href="#DejaVuSans-74" x="366.308594"/>
     <use xlink:href="#DejaVuSans-6f" x="405.517578"/>
     <use xlink:href="#DejaVuSans-72" x="466.699219"/>
     <use xlink:href="#DejaVuSans-20" x="507.8125"/>
     <use xlink:href="#DejaVuSans-61" x="539.599609"/>
     <use xlink:href="#DejaVuSans-6e" x="600.878906"/>
     <use xlink:href="#DejaVuSans-64" x="664.257812"/>
     <use xlink:href="#DejaVuSans-20" x="727.734375"/>
     <use xlink:href="#DejaVuSans-44" x="759.521484"/>
     <use xlink:href="#DejaVuSans-69" x="836.523438"/>
     <use xlink:href="#DejaVuSans-73" x="864.306641"/>
     <use xlink:href="#DejaVuSans-63" x="916.40625"/>
     <use xlink:href="#DejaVuSans-72" x="971.386719"/>
     <use xlink:href="#DejaVuSans-69" x="1012.5"/>
     <use xlink:href="#DejaVuSans-6d" x="1040.283203"/>
     <use xlink:href="#DejaVuSans-69" x="1137.695312"/>
     <use xlink:href="#DejaVuSans-6e" x="1165.478516"/>
     <use xlink:href="#DejaVuSans-61" x="1228.857422"/>
     <use xlink:href="#DejaVuSans-74" x="1290.136719"/>
     <use xlink:href="#DejaVuSans-6f" x="1329.345703"/>
     <use xlink:href="#DejaVuSans-72" x="1390.527344"/>
     <use xlink:href="#DejaVuSans-20" x="1431.640625"/>
     <use xlink:href="#DejaVuSans-4c" x="1463.427734"/>
     <use xlink:href="#DejaVuSans-6f" x="1517.390625"/>
     <use xlink:href="#DejaVuSans-73" x="1578.572266"/>
     <use xlink:href="#DejaVuSans-73" x="1630.671875"/>
     <use xlink:href="#DejaVuSans-20" x="1682.771484"/>
     <use xlink:href="#DejaVuSans-44" x="1714.558594"/>
     <use xlink:href="#DejaVuSans-75" x="1791.560547"/>
     <use xlink:href="#DejaVuSans-72" x="1854.939453"/>
     <use xlink:href="#DejaVuSans-69" x="1896.052734"/>
     <use xlink:href="#DejaVuSans-6e" x="1923.835938"/>
     <use xlink:href="#DejaVuSans-67" x="1987.214844"/>
     <use xlink:href="#DejaVuSans-20" x="2050.691406"/>
     <use xlink:href="#DejaVuSans-54" x="2082.478516"/>
     <use xlink:href="#DejaVuSans-72" x="2128.8125"/>
     <use xlink:href="#DejaVuSans-61" x="2169.925781"/>
     <use xlink:href="#DejaVuSans-69" x="2231.205078"/>
     <use xlink:href="#DejaVuSans-6e" x="2258.988281"/>
     <use xlink:href="#DejaVuSans-69" x="2322.367188"/>
     <use xlink:href="#DejaVuSans-6e" x="2350.150391"/>
     <use xlink:href="#DejaVuSans-67" x="2413.529297"/>
    </g>
   </g>
   <g id="legend_1">
    <g id="patch_7">
     <path d="M 556.99375 106.14875 
L 636.490625 106.14875 
Q 640.490625 106.14875 640.490625 102.14875 
L 640.490625 45.43625 
Q 640.490625 41.43625 636.490625 41.43625 
L 556.99375 41.43625 
Q 552.99375 41.43625 552.99375 45.43625 
L 552.99375 102.14875 
Q 552.99375 106.14875 556.99375 106.14875 
z
" style="fill: #ffffff; opacity: 0.8; stroke: #cccccc; stroke-linejoin: miter"/>
    </g>
    <g id="line2d_16">
     <path d="M 560.99375 57.633125 
L 580.99375 57.633125 
L 600.99375 57.633125 
" style="fill: none; stroke: #1f77b4; stroke-width: 1.5; stroke-linecap: square"/>
    </g>
    <g id="text_17">
     <!-- G -->
     <g transform="translate(616.99375 64.633125) scale(0.2 -0.2)">
      <use xlink:href="#DejaVuSans-47"/>
     </g>
    </g>
    <g id="line2d_17">
     <path d="M 560.99375 86.989375 
L 580.99375 86.989375 
L 600.99375 86.989375 
" style="fill: none; stroke: #ff7f0e; stroke-width: 1.5; stroke-linecap: square"/>
    </g>
    <g id="text_18">
     <!-- D -->
     <g transform="translate(616.99375 93.989375) scale(0.2 -0.2)">
      <use xlink:href="#DejaVuSans-44"/>
     </g>
    </g>
   </g>
  </g>
 </g>
 <defs>
  <clipPath id="pd478ac3921">
   <rect x="92.490625" y="31.43625" width="558" height="277.2"/>
  </clipPath>
 </defs>
</svg>
