<?xml version="1.0" encoding="utf-8" standalone="no"?>
<!DOCTYPE svg PUBLIC "-//W3C//DTD SVG 1.1//EN"
  "http://www.w3.org/Graphics/SVG/1.1/DTD/svg11.dtd">
<svg xmlns:xlink="http://www.w3.org/1999/xlink" width="675.923125pt" height="365.54875pt" viewBox="0 0 675.923125 365.54875" xmlns="http://www.w3.org/2000/svg" version="1.1">
 <metadata>
  <rdf:RDF xmlns:dc="http://purl.org/dc/elements/1.1/" xmlns:cc="http://creativecommons.org/ns#" xmlns:rdf="http://www.w3.org/1999/02/22-rdf-syntax-ns#">
   <cc:Work>
    <dc:type rdf:resource="http://purl.org/dc/dcmitype/StillImage"/>
    <dc:date>2024-02-07T04:19:05.692811</dc:date>
    <dc:format>image/svg+xml</dc:format>
    <dc:creator>
     <cc:Agent>
      <dc:title>Matplotlib v3.7.2, https://matplotlib.org/</dc:title>
     </cc:Agent>
    </dc:creator>
   </cc:Work>
  </rdf:RDF>
 </metadata>
 <defs>
  <style type="text/css">*{stroke-linejoin: round; stroke-linecap: butt}</style>
 </defs>
 <g id="figure_1">
  <g id="patch_1">
   <path d="M 0 365.54875 
L 675.923125 365.54875 
L 675.923125 -0 
L 0 -0 
z
" style="fill: #ffffff"/>
  </g>
  <g id="axes_1">
   <g id="patch_2">
    <path d="M 92.490625 308.63625 
L 650.490625 308.63625 
L 650.490625 31.43625 
L 92.490625 31.43625 
z
" style="fill: #ffffff"/>
   </g>
   <g id="matplotlib.axis_1">
    <g id="xtick_1">
     <g id="line2d_1">
      <defs>
       <path id="m9137206767" d="M 0 0 
L 0 3.5 
" style="stroke: #000000; stroke-width: 0.8"/>
      </defs>
      <g>
       <use xlink:href="#m9137206767" x="117.854261" y="308.63625" style="stroke: #000000; stroke-width: 0.8"/>
      </g>
     </g>
     <g id="text_1">
      <!-- 0 -->
      <g transform="translate(111.491761 330.833125) scale(0.2 -0.2)">
       <defs>
        <path id="DejaVuSans-30" d="M 2034 4250 
Q 1547 4250 1301 3770 
Q 1056 3291 1056 2328 
Q 1056 1369 1301 889 
Q 1547 409 2034 409 
Q 2525 409 2770 889 
Q 3016 1369 3016 2328 
Q 3016 3291 2770 3770 
Q 2525 4250 2034 4250 
z
M 2034 4750 
Q 2819 4750 3233 4129 
Q 3647 3509 3647 2328 
Q 3647 1150 3233 529 
Q 2819 -91 2034 -91 
Q 1250 -91 836 529 
Q 422 1150 422 2328 
Q 422 3509 836 4129 
Q 1250 4750 2034 4750 
z
" transform="scale(0.015625)"/>
       </defs>
       <use xlink:href="#DejaVuSans-30"/>
      </g>
     </g>
    </g>
    <g id="xtick_2">
     <g id="line2d_2">
      <g>
       <use xlink:href="#m9137206767" x="210.085666" y="308.63625" style="stroke: #000000; stroke-width: 0.8"/>
      </g>
     </g>
     <g id="text_2">
      <!-- 100 -->
      <g transform="translate(190.998166 330.833125) scale(0.2 -0.2)">
       <defs>
        <path id="DejaVuSans-31" d="M 794 531 
L 1825 531 
L 1825 4091 
L 703 3866 
L 703 4441 
L 1819 4666 
L 2450 4666 
L 2450 531 
L 3481 531 
L 3481 0 
L 794 0 
L 794 531 
z
" transform="scale(0.015625)"/>
       </defs>
       <use xlink:href="#DejaVuSans-31"/>
       <use xlink:href="#DejaVuSans-30" x="63.623047"/>
       <use xlink:href="#DejaVuSans-30" x="127.246094"/>
      </g>
     </g>
    </g>
    <g id="xtick_3">
     <g id="line2d_3">
      <g>
       <use xlink:href="#m9137206767" x="302.317071" y="308.63625" style="stroke: #000000; stroke-width: 0.8"/>
      </g>
     </g>
     <g id="text_3">
      <!-- 200 -->
      <g transform="translate(283.229571 330.833125) scale(0.2 -0.2)">
       <defs>
        <path id="DejaVuSans-32" d="M 1228 531 
L 3431 531 
L 3431 0 
L 469 0 
L 469 531 
Q 828 903 1448 1529 
Q 2069 2156 2228 2338 
Q 2531 2678 2651 2914 
Q 2772 3150 2772 3378 
Q 2772 3750 2511 3984 
Q 2250 4219 1831 4219 
Q 1534 4219 1204 4116 
Q 875 4013 500 3803 
L 500 4441 
Q 881 4594 1212 4672 
Q 1544 4750 1819 4750 
Q 2544 4750 2975 4387 
Q 3406 4025 3406 3419 
Q 3406 3131 3298 2873 
Q 3191 2616 2906 2266 
Q 2828 2175 2409 1742 
Q 1991 1309 1228 531 
z
" transform="scale(0.015625)"/>
       </defs>
       <use xlink:href="#DejaVuSans-32"/>
       <use xlink:href="#DejaVuSans-30" x="63.623047"/>
       <use xlink:href="#DejaVuSans-30" x="127.246094"/>
      </g>
     </g>
    </g>
    <g id="xtick_4">
     <g id="line2d_4">
      <g>
       <use xlink:href="#m9137206767" x="394.548476" y="308.63625" style="stroke: #000000; stroke-width: 0.8"/>
      </g>
     </g>
     <g id="text_4">
      <!-- 300 -->
      <g transform="translate(375.460976 330.833125) scale(0.2 -0.2)">
       <defs>
        <path id="DejaVuSans-33" d="M 2597 2516 
Q 3050 2419 3304 2112 
Q 3559 1806 3559 1356 
Q 3559 666 3084 287 
Q 2609 -91 1734 -91 
Q 1441 -91 1130 -33 
Q 819 25 488 141 
L 488 750 
Q 750 597 1062 519 
Q 1375 441 1716 441 
Q 2309 441 2620 675 
Q 2931 909 2931 1356 
Q 2931 1769 2642 2001 
Q 2353 2234 1838 2234 
L 1294 2234 
L 1294 2753 
L 1863 2753 
Q 2328 2753 2575 2939 
Q 2822 3125 2822 3475 
Q 2822 3834 2567 4026 
Q 2313 4219 1838 4219 
Q 1578 4219 1281 4162 
Q 984 4106 628 3988 
L 628 4550 
Q 988 4650 1302 4700 
Q 1616 4750 1894 4750 
Q 2613 4750 3031 4423 
Q 3450 4097 3450 3541 
Q 3450 3153 3228 2886 
Q 3006 2619 2597 2516 
z
" transform="scale(0.015625)"/>
       </defs>
       <use xlink:href="#DejaVuSans-33"/>
       <use xlink:href="#DejaVuSans-30" x="63.623047"/>
       <use xlink:href="#DejaVuSans-30" x="127.246094"/>
      </g>
     </g>
    </g>
    <g id="xtick_5">
     <g id="line2d_5">
      <g>
       <use xlink:href="#m9137206767" x="486.779881" y="308.63625" style="stroke: #000000; stroke-width: 0.8"/>
      </g>
     </g>
     <g id="text_5">
      <!-- 400 -->
      <g transform="translate(467.692381 330.833125) scale(0.2 -0.2)">
       <defs>
        <path id="DejaVuSans-34" d="M 2419 4116 
L 825 1625 
L 2419 1625 
L 2419 4116 
z
M 2253 4666 
L 3047 4666 
L 3047 1625 
L 3713 1625 
L 3713 1100 
L 3047 1100 
L 3047 0 
L 2419 0 
L 2419 1100 
L 313 1100 
L 313 1709 
L 2253 4666 
z
" transform="scale(0.015625)"/>
       </defs>
       <use xlink:href="#DejaVuSans-34"/>
       <use xlink:href="#DejaVuSans-30" x="63.623047"/>
       <use xlink:href="#DejaVuSans-30" x="127.246094"/>
      </g>
     </g>
    </g>
    <g id="xtick_6">
     <g id="line2d_6">
      <g>
       <use xlink:href="#m9137206767" x="579.011286" y="308.63625" style="stroke: #000000; stroke-width: 0.8"/>
      </g>
     </g>
     <g id="text_6">
      <!-- 500 -->
      <g transform="translate(559.923786 330.833125) scale(0.2 -0.2)">
       <defs>
        <path id="DejaVuSans-35" d="M 691 4666 
L 3169 4666 
L 3169 4134 
L 1269 4134 
L 1269 2991 
Q 1406 3038 1543 3061 
Q 1681 3084 1819 3084 
Q 2600 3084 3056 2656 
Q 3513 2228 3513 1497 
Q 3513 744 3044 326 
Q 2575 -91 1722 -91 
Q 1428 -91 1123 -41 
Q 819 9 494 109 
L 494 744 
Q 775 591 1075 516 
Q 1375 441 1709 441 
Q 2250 441 2565 725 
Q 2881 1009 2881 1497 
Q 2881 1984 2565 2268 
Q 2250 2553 1709 2553 
Q 1456 2553 1204 2497 
Q 953 2441 691 2322 
L 691 4666 
z
" transform="scale(0.015625)"/>
       </defs>
       <use xlink:href="#DejaVuSans-35"/>
       <use xlink:href="#DejaVuSans-30" x="63.623047"/>
       <use xlink:href="#DejaVuSans-30" x="127.246094"/>
      </g>
     </g>
    </g>
    <g id="text_7">
     <!-- iterations -->
     <g transform="translate(324.035938 354.189375) scale(0.2 -0.2)">
      <defs>
       <path id="DejaVuSans-69" d="M 603 3500 
L 1178 3500 
L 1178 0 
L 603 0 
L 603 3500 
z
M 603 4863 
L 1178 4863 
L 1178 4134 
L 603 4134 
L 603 4863 
z
" transform="scale(0.015625)"/>
       <path id="DejaVuSans-74" d="M 1172 4494 
L 1172 3500 
L 2356 3500 
L 2356 3053 
L 1172 3053 
L 1172 1153 
Q 1172 725 1289 603 
Q 1406 481 1766 481 
L 2356 481 
L 2356 0 
L 1766 0 
Q 1100 0 847 248 
Q 594 497 594 1153 
L 594 3053 
L 172 3053 
L 172 3500 
L 594 3500 
L 594 4494 
L 1172 4494 
z
" transform="scale(0.015625)"/>
       <path id="DejaVuSans-65" d="M 3597 1894 
L 3597 1613 
L 953 1613 
Q 991 1019 1311 708 
Q 1631 397 2203 397 
Q 2534 397 2845 478 
Q 3156 559 3463 722 
L 3463 178 
Q 3153 47 2828 -22 
Q 2503 -91 2169 -91 
Q 1331 -91 842 396 
Q 353 884 353 1716 
Q 353 2575 817 3079 
Q 1281 3584 2069 3584 
Q 2775 3584 3186 3129 
Q 3597 2675 3597 1894 
z
M 3022 2063 
Q 3016 2534 2758 2815 
Q 2500 3097 2075 3097 
Q 1594 3097 1305 2825 
Q 1016 2553 972 2059 
L 3022 2063 
z
" transform="scale(0.015625)"/>
       <path id="DejaVuSans-72" d="M 2631 2963 
Q 2534 3019 2420 3045 
Q 2306 3072 2169 3072 
Q 1681 3072 1420 2755 
Q 1159 2438 1159 1844 
L 1159 0 
L 581 0 
L 581 3500 
L 1159 3500 
L 1159 2956 
Q 1341 3275 1631 3429 
Q 1922 3584 2338 3584 
Q 2397 3584 2469 3576 
Q 2541 3569 2628 3553 
L 2631 2963 
z
" transform="scale(0.015625)"/>
       <path id="DejaVuSans-61" d="M 2194 1759 
Q 1497 1759 1228 1600 
Q 959 1441 959 1056 
Q 959 750 1161 570 
Q 1363 391 1709 391 
Q 2188 391 2477 730 
Q 2766 1069 2766 1631 
L 2766 1759 
L 2194 1759 
z
M 3341 1997 
L 3341 0 
L 2766 0 
L 2766 531 
Q 2569 213 2275 61 
Q 1981 -91 1556 -91 
Q 1019 -91 701 211 
Q 384 513 384 1019 
Q 384 1609 779 1909 
Q 1175 2209 1959 2209 
L 2766 2209 
L 2766 2266 
Q 2766 2663 2505 2880 
Q 2244 3097 1772 3097 
Q 1472 3097 1187 3025 
Q 903 2953 641 2809 
L 641 3341 
Q 956 3463 1253 3523 
Q 1550 3584 1831 3584 
Q 2591 3584 2966 3190 
Q 3341 2797 3341 1997 
z
" transform="scale(0.015625)"/>
       <path id="DejaVuSans-6f" d="M 1959 3097 
Q 1497 3097 1228 2736 
Q 959 2375 959 1747 
Q 959 1119 1226 758 
Q 1494 397 1959 397 
Q 2419 397 2687 759 
Q 2956 1122 2956 1747 
Q 2956 2369 2687 2733 
Q 2419 3097 1959 3097 
z
M 1959 3584 
Q 2709 3584 3137 3096 
Q 3566 2609 3566 1747 
Q 3566 888 3137 398 
Q 2709 -91 1959 -91 
Q 1206 -91 779 398 
Q 353 888 353 1747 
Q 353 2609 779 3096 
Q 1206 3584 1959 3584 
z
" transform="scale(0.015625)"/>
       <path id="DejaVuSans-6e" d="M 3513 2113 
L 3513 0 
L 2938 0 
L 2938 2094 
Q 2938 2591 2744 2837 
Q 2550 3084 2163 3084 
Q 1697 3084 1428 2787 
Q 1159 2491 1159 1978 
L 1159 0 
L 581 0 
L 581 3500 
L 1159 3500 
L 1159 2956 
Q 1366 3272 1645 3428 
Q 1925 3584 2291 3584 
Q 2894 3584 3203 3211 
Q 3513 2838 3513 2113 
z
" transform="scale(0.015625)"/>
       <path id="DejaVuSans-73" d="M 2834 3397 
L 2834 2853 
Q 2591 2978 2328 3040 
Q 2066 3103 1784 3103 
Q 1356 3103 1142 2972 
Q 928 2841 928 2578 
Q 928 2378 1081 2264 
Q 1234 2150 1697 2047 
L 1894 2003 
Q 2506 1872 2764 1633 
Q 3022 1394 3022 966 
Q 3022 478 2636 193 
Q 2250 -91 1575 -91 
Q 1294 -91 989 -36 
Q 684 19 347 128 
L 347 722 
Q 666 556 975 473 
Q 1284 391 1588 391 
Q 1994 391 2212 530 
Q 2431 669 2431 922 
Q 2431 1156 2273 1281 
Q 2116 1406 1581 1522 
L 1381 1569 
Q 847 1681 609 1914 
Q 372 2147 372 2553 
Q 372 3047 722 3315 
Q 1072 3584 1716 3584 
Q 2034 3584 2315 3537 
Q 2597 3491 2834 3397 
z
" transform="scale(0.015625)"/>
      </defs>
      <use xlink:href="#DejaVuSans-69"/>
      <use xlink:href="#DejaVuSans-74" x="27.783203"/>
      <use xlink:href="#DejaVuSans-65" x="66.992188"/>
      <use xlink:href="#DejaVuSans-72" x="128.515625"/>
      <use xlink:href="#DejaVuSans-61" x="169.628906"/>
      <use xlink:href="#DejaVuSans-74" x="230.908203"/>
      <use xlink:href="#DejaVuSans-69" x="270.117188"/>
      <use xlink:href="#DejaVuSans-6f" x="297.900391"/>
      <use xlink:href="#DejaVuSans-6e" x="359.082031"/>
      <use xlink:href="#DejaVuSans-73" x="422.460938"/>
     </g>
    </g>
   </g>
   <g id="matplotlib.axis_2">
    <g id="ytick_1">
     <g id="line2d_7">
      <defs>
       <path id="m26698ffc5a" d="M 0 0 
L -3.5 0 
" style="stroke: #000000; stroke-width: 0.8"/>
      </defs>
      <g>
       <use xlink:href="#m26698ffc5a" x="92.490625" y="308.301222" style="stroke: #000000; stroke-width: 0.8"/>
      </g>
     </g>
     <g id="text_8">
      <!-- −400 -->
      <g transform="translate(30.55625 315.89966) scale(0.2 -0.2)">
       <defs>
        <path id="DejaVuSans-2212" d="M 678 2272 
L 4684 2272 
L 4684 1741 
L 678 1741 
L 678 2272 
z
" transform="scale(0.015625)"/>
       </defs>
       <use xlink:href="#DejaVuSans-2212"/>
       <use xlink:href="#DejaVuSans-34" x="83.789062"/>
       <use xlink:href="#DejaVuSans-30" x="147.412109"/>
       <use xlink:href="#DejaVuSans-30" x="211.035156"/>
      </g>
     </g>
    </g>
    <g id="ytick_2">
     <g id="line2d_8">
      <g>
       <use xlink:href="#m26698ffc5a" x="92.490625" y="216.520244" style="stroke: #000000; stroke-width: 0.8"/>
      </g>
     </g>
     <g id="text_9">
      <!-- −200 -->
      <g transform="translate(30.55625 224.118682) scale(0.2 -0.2)">
       <use xlink:href="#DejaVuSans-2212"/>
       <use xlink:href="#DejaVuSans-32" x="83.789062"/>
       <use xlink:href="#DejaVuSans-30" x="147.412109"/>
       <use xlink:href="#DejaVuSans-30" x="211.035156"/>
      </g>
     </g>
    </g>
    <g id="ytick_3">
     <g id="line2d_9">
      <g>
       <use xlink:href="#m26698ffc5a" x="92.490625" y="124.739266" style="stroke: #000000; stroke-width: 0.8"/>
      </g>
     </g>
     <g id="text_10">
      <!-- 0 -->
      <g transform="translate(72.765625 132.337703) scale(0.2 -0.2)">
       <use xlink:href="#DejaVuSans-30"/>
      </g>
     </g>
    </g>
    <g id="ytick_4">
     <g id="line2d_10">
      <g>
       <use xlink:href="#m26698ffc5a" x="92.490625" y="32.958288" style="stroke: #000000; stroke-width: 0.8"/>
      </g>
     </g>
     <g id="text_11">
      <!-- 200 -->
      <g transform="translate(47.315625 40.556725) scale(0.2 -0.2)">
       <use xlink:href="#DejaVuSans-32"/>
       <use xlink:href="#DejaVuSans-30" x="63.623047"/>
       <use xlink:href="#DejaVuSans-30" x="127.246094"/>
      </g>
     </g>
    </g>
    <g id="text_12">
     <!-- Loss -->
     <g transform="translate(22.396875 191.970625) rotate(-90) scale(0.2 -0.2)">
      <defs>
       <path id="DejaVuSans-4c" d="M 628 4666 
L 1259 4666 
L 1259 531 
L 3531 531 
L 3531 0 
L 628 0 
L 628 4666 
z
" transform="scale(0.015625)"/>
      </defs>
      <use xlink:href="#DejaVuSans-4c"/>
      <use xlink:href="#DejaVuSans-6f" x="53.962891"/>
      <use xlink:href="#DejaVuSans-73" x="115.144531"/>
      <use xlink:href="#DejaVuSans-73" x="167.244141"/>
     </g>
    </g>
   </g>
   <g id="line2d_11">
    <path d="M 117.854261 68.010133 
L 118.776575 44.03625 
L 119.698889 82.894351 
L 120.621204 135.352713 
L 121.543518 149.038488 
L 122.465832 131.291508 
L 123.388146 102.480738 
L 124.31046 114.663802 
L 125.232774 109.036371 
L 126.155088 138.147454 
L 127.077402 138.134175 
L 128.92203 115.734088 
L 129.844344 94.696244 
L 131.688972 139.285864 
L 132.611286 148.794628 
L 133.5336 153.318112 
L 134.455914 156.877753 
L 135.378228 83.249261 
L 136.300542 75.174256 
L 137.222856 90.472575 
L 138.14517 116.457012 
L 139.067485 96.256189 
L 139.989799 94.259751 
L 140.912113 95.075452 
L 141.834427 105.7445 
L 142.756741 103.501109 
L 143.679055 98.938048 
L 144.601369 98.781496 
L 145.523683 115.658893 
L 146.445997 104.793282 
L 147.368311 107.674873 
L 148.290625 115.096063 
L 149.212939 112.159413 
L 150.135253 107.601371 
L 151.057567 104.28473 
L 151.979881 96.706982 
L 152.902195 93.680446 
L 153.824509 98.193758 
L 154.746823 106.085946 
L 155.669137 105.036287 
L 156.591451 102.32328 
L 157.513765 103.945881 
L 158.43608 99.317411 
L 159.358394 110.564882 
L 160.280708 112.307272 
L 161.203022 111.665537 
L 162.125336 108.167608 
L 163.04765 111.994753 
L 163.969964 117.502876 
L 164.892278 119.774341 
L 165.814592 119.367335 
L 166.736906 113.051816 
L 167.65922 123.794414 
L 168.581534 123.121725 
L 169.503848 116.751972 
L 170.426162 119.486809 
L 171.348476 125.7908 
L 172.27079 120.97786 
L 173.193104 122.459209 
L 174.115418 119.601567 
L 175.037732 123.368147 
L 175.960046 125.26741 
L 176.882361 126.254064 
L 178.726989 123.83292 
L 179.649303 125.066543 
L 180.571617 124.405088 
L 181.493931 124.342819 
L 182.416245 129.684678 
L 183.338559 126.286198 
L 184.260873 122.440892 
L 185.183187 125.291613 
L 186.105501 126.638633 
L 187.027815 127.489029 
L 187.950129 124.104561 
L 188.872443 127.006761 
L 189.794757 124.634792 
L 190.717071 130.008476 
L 191.639385 132.148012 
L 192.561699 129.332871 
L 193.484013 130.19862 
L 194.406327 128.532356 
L 195.328642 130.615072 
L 196.250956 129.75035 
L 197.17327 131.974644 
L 198.095584 133.042215 
L 199.017898 130.869486 
L 199.940212 131.244071 
L 201.78484 129.485777 
L 202.707154 131.902921 
L 203.629468 130.300497 
L 204.551782 132.787354 
L 205.474096 130.1042 
L 206.39641 132.296661 
L 207.318724 128.828173 
L 208.241038 130.977045 
L 209.163352 133.624985 
L 210.085666 133.67938 
L 211.00798 132.890623 
L 211.930294 131.166154 
L 212.852608 130.029175 
L 213.774923 136.267329 
L 214.697237 133.171776 
L 215.619551 131.366796 
L 216.541865 131.143967 
L 217.464179 134.254403 
L 218.386493 133.153225 
L 219.308807 135.194366 
L 220.231121 132.960254 
L 222.075749 131.082405 
L 222.998063 132.584999 
L 223.920377 133.28086 
L 224.842691 131.34064 
L 225.765005 128.753412 
L 226.687319 129.527871 
L 227.609633 133.657564 
L 228.531947 133.308306 
L 229.454261 134.759946 
L 231.298889 132.202234 
L 232.221204 132.039851 
L 234.065832 128.292917 
L 234.988146 131.624082 
L 235.91046 132.367101 
L 236.832774 133.574511 
L 237.755088 133.467695 
L 238.677402 132.013518 
L 239.599716 133.775036 
L 241.444344 135.816838 
L 242.366658 134.15553 
L 243.288972 133.039205 
L 244.211286 132.365518 
L 245.1336 130.732202 
L 246.055914 130.422276 
L 247.900542 131.352335 
L 248.822856 130.397482 
L 249.74517 132.385544 
L 250.667485 133.44874 
L 251.589799 130.621022 
L 252.512113 129.915593 
L 253.434427 130.780378 
L 254.356741 130.366748 
L 255.279055 133.018114 
L 256.201369 129.699722 
L 257.123683 128.315437 
L 258.045997 131.243071 
L 258.968311 129.040349 
L 259.890625 129.159144 
L 260.812939 131.657577 
L 261.735253 130.8775 
L 262.657567 132.068264 
L 264.502195 129.381879 
L 265.424509 131.489051 
L 266.346823 132.135005 
L 267.269137 129.520044 
L 268.191451 128.526529 
L 269.113765 128.62714 
L 270.03608 129.507322 
L 270.958394 130.753813 
L 271.880708 131.148931 
L 272.803022 130.542598 
L 273.725336 130.694105 
L 274.64765 129.90088 
L 275.569964 130.887488 
L 276.492278 130.639837 
L 277.414592 129.355283 
L 278.336906 130.364738 
L 279.25922 132.129378 
L 280.181534 131.451921 
L 281.103848 133.778023 
L 282.026162 132.793608 
L 282.948476 132.710615 
L 283.87079 130.760632 
L 284.793104 131.242131 
L 285.715418 132.939387 
L 286.637732 133.68315 
L 287.560046 132.669464 
L 289.404675 132.445423 
L 290.326989 132.99424 
L 291.249303 133.06021 
L 292.171617 133.884776 
L 293.093931 132.891875 
L 294.016245 133.233263 
L 294.938559 133.746225 
L 295.860873 133.738837 
L 296.783187 134.525428 
L 297.705501 135.704528 
L 298.627815 132.744017 
L 299.550129 135.219024 
L 300.472443 135.591216 
L 301.394757 136.432579 
L 302.317071 132.965228 
L 303.239385 134.074961 
L 304.161699 133.540772 
L 305.084013 133.421911 
L 306.006327 135.236827 
L 306.928642 134.063046 
L 307.850956 133.228807 
L 308.77327 131.970848 
L 309.695584 134.240862 
L 310.617898 134.068398 
L 311.540212 134.936951 
L 312.462526 132.84045 
L 313.38484 131.756121 
L 314.307154 131.859176 
L 315.229468 132.698611 
L 316.151782 132.988609 
L 317.074096 131.533742 
L 317.99641 131.9431 
L 318.918724 132.900108 
L 319.841038 132.248788 
L 320.763352 134.623461 
L 321.685666 132.871426 
L 322.60798 133.638704 
L 323.530294 133.327539 
L 324.452608 131.803134 
L 325.374923 132.483812 
L 326.297237 131.304209 
L 327.219551 132.833603 
L 328.141865 131.565009 
L 329.064179 132.345541 
L 329.986493 132.763423 
L 330.908807 132.03401 
L 331.831121 132.010279 
L 332.753435 131.256279 
L 333.675749 133.787578 
L 334.598063 130.493204 
L 335.520377 130.135762 
L 336.442691 131.669798 
L 337.365005 129.935866 
L 338.287319 131.293905 
L 339.209633 131.094286 
L 341.054261 132.187449 
L 342.898889 131.860606 
L 343.821204 132.639894 
L 344.743518 131.282355 
L 345.665832 129.529896 
L 346.588146 132.111943 
L 348.432774 130.58016 
L 349.355088 130.407129 
L 350.277402 130.956694 
L 351.199716 129.941585 
L 352.12203 129.765758 
L 353.044344 130.065677 
L 353.966658 130.203255 
L 354.888972 129.980455 
L 355.811286 130.627125 
L 356.7336 129.133283 
L 357.655914 129.835422 
L 358.578228 129.533889 
L 359.500542 129.364363 
L 360.422856 130.856948 
L 361.34517 129.246312 
L 362.267485 129.706363 
L 363.189799 130.420866 
L 364.112113 129.545153 
L 365.034427 130.94038 
L 365.956741 129.371043 
L 366.879055 130.738 
L 367.801369 128.822413 
L 368.723683 130.609681 
L 369.645997 130.102713 
L 371.490625 128.586713 
L 372.412939 129.331779 
L 374.257567 130.013815 
L 375.179881 130.004582 
L 376.102195 129.563682 
L 377.024509 128.277651 
L 377.946823 129.132506 
L 378.869137 129.444018 
L 379.791451 130.328218 
L 380.713765 131.421887 
L 381.63608 130.156646 
L 383.480708 128.386728 
L 384.403022 130.002226 
L 385.325336 128.766129 
L 386.24765 129.727915 
L 387.169964 130.295393 
L 389.014592 130.22921 
L 389.936906 129.990359 
L 390.85922 130.146286 
L 391.781534 130.742029 
L 392.703848 130.232945 
L 393.626162 130.335787 
L 394.548476 130.008628 
L 395.47079 129.832388 
L 396.393104 129.938118 
L 397.315418 130.276968 
L 398.237732 129.159825 
L 399.160046 128.427935 
L 400.082361 128.815487 
L 401.004675 128.502613 
L 401.926989 130.018413 
L 402.849303 128.712991 
L 403.771617 129.533333 
L 404.693931 129.687427 
L 405.616245 128.563167 
L 406.538559 128.720108 
L 407.460873 129.560897 
L 408.383187 129.261363 
L 409.305501 129.333281 
L 410.227815 130.124582 
L 411.150129 128.725848 
L 412.994757 128.192742 
L 414.839385 128.481323 
L 415.761699 129.22743 
L 416.684013 129.363656 
L 417.606327 129.292759 
L 418.528642 128.9788 
L 420.37327 128.90032 
L 421.295584 130.108556 
L 422.217898 129.085007 
L 424.062526 128.25835 
L 424.98484 128.582519 
L 425.907154 128.639878 
L 426.829468 127.829148 
L 428.674096 127.621747 
L 429.59641 129.027438 
L 430.518724 128.3083 
L 431.441038 129.060965 
L 432.363352 128.862738 
L 433.285666 128.027623 
L 434.20798 127.590238 
L 435.130294 127.417529 
L 436.052608 128.046032 
L 436.974923 127.509991 
L 437.897237 127.816074 
L 438.819551 127.724732 
L 439.741865 128.205471 
L 440.664179 127.909681 
L 441.586493 128.495895 
L 442.508807 127.306562 
L 443.431121 127.660654 
L 444.353435 127.074124 
L 445.275749 127.464054 
L 446.198063 127.567987 
L 447.120377 127.49324 
L 448.965005 128.934154 
L 449.887319 128.287035 
L 450.809633 127.494717 
L 451.731947 127.974081 
L 452.654261 127.963539 
L 453.576575 127.433418 
L 454.498889 128.445598 
L 455.421204 128.005912 
L 457.265832 127.934451 
L 458.188146 127.502908 
L 459.11046 128.276474 
L 460.032774 127.592299 
L 460.955088 127.820724 
L 461.877402 126.41959 
L 462.799716 127.184355 
L 463.72203 128.350894 
L 464.644344 127.326198 
L 465.566658 126.478268 
L 466.488972 127.287549 
L 468.3336 127.097101 
L 469.255914 127.943905 
L 470.178228 127.522738 
L 471.100542 127.369173 
L 472.022856 128.15539 
L 472.94517 127.606288 
L 473.867485 128.470277 
L 474.789799 127.53738 
L 475.712113 128.0492 
L 476.634427 127.705244 
L 478.479055 128.758381 
L 479.401369 128.176185 
L 480.323683 128.949204 
L 481.245997 127.88594 
L 482.168311 128.758213 
L 484.012939 127.763718 
L 484.935253 128.040503 
L 485.857567 127.818379 
L 486.779881 128.539413 
L 487.702195 127.909191 
L 488.624509 127.620119 
L 489.546823 128.215233 
L 490.469137 127.871823 
L 491.391451 128.730731 
L 492.313765 127.830667 
L 493.23608 127.973207 
L 494.158394 128.302131 
L 495.080708 128.874641 
L 496.003022 128.730779 
L 496.925336 127.936563 
L 497.84765 128.147492 
L 500.614592 126.865166 
L 501.536906 126.205635 
L 502.45922 127.195389 
L 503.381534 127.405704 
L 504.303848 125.752486 
L 505.226162 127.181242 
L 506.148476 127.621653 
L 507.07079 128.285453 
L 508.915418 127.952824 
L 509.837732 127.320872 
L 510.760046 128.138393 
L 511.682361 127.595705 
L 512.604675 127.777125 
L 513.526989 127.076334 
L 514.449303 128.23788 
L 515.371617 127.355098 
L 516.293931 127.310545 
L 517.216245 127.383422 
L 518.138559 128.051083 
L 519.060873 127.910596 
L 519.983187 127.191374 
L 520.905501 127.862572 
L 521.827815 127.925051 
L 522.750129 128.140637 
L 523.672443 126.966591 
L 524.594757 127.601789 
L 525.517071 127.303259 
L 526.439385 128.020273 
L 527.361699 127.395705 
L 529.206327 127.549729 
L 530.128642 127.240643 
L 531.050956 127.562493 
L 531.97327 127.469046 
L 532.895584 127.017582 
L 533.817898 126.329977 
L 534.740212 123.594003 
L 535.662526 125.641018 
L 536.58484 126.194417 
L 537.507154 127.565289 
L 538.429468 125.926257 
L 539.351782 126.83942 
L 541.19641 127.662776 
L 542.118724 127.0441 
L 543.041038 127.646191 
L 543.963352 126.217146 
L 544.885666 127.246878 
L 545.80798 126.968989 
L 546.730294 127.389283 
L 547.652608 127.366595 
L 548.574923 126.909622 
L 549.497237 126.920462 
L 550.419551 127.869458 
L 551.341865 127.673739 
L 552.264179 128.140586 
L 553.186493 128.296592 
L 554.108807 127.668539 
L 555.031121 127.522494 
L 555.953435 127.864583 
L 556.875749 128.588431 
L 557.798063 128.132745 
L 558.720377 128.535777 
L 559.642691 127.35185 
L 560.565005 126.453202 
L 562.409633 127.878267 
L 563.331947 127.473338 
L 565.176575 127.994517 
L 566.098889 127.785176 
L 567.021204 127.876873 
L 567.943518 128.483396 
L 568.865832 128.793588 
L 569.788146 128.220969 
L 570.71046 127.947937 
L 571.632774 128.312831 
L 572.555088 128.854793 
L 573.477402 128.997201 
L 574.399716 129.420327 
L 575.32203 127.991662 
L 576.244344 128.745344 
L 577.166658 128.776292 
L 578.088972 128.306823 
L 580.855914 127.365727 
L 581.778228 128.478041 
L 582.700542 127.867424 
L 583.622856 128.945239 
L 584.54517 127.881041 
L 585.467485 127.1771 
L 586.389799 128.168141 
L 587.312113 126.793318 
L 588.234427 127.978285 
L 589.156741 128.793073 
L 590.079055 128.765525 
L 591.001369 127.131237 
L 591.923683 128.101187 
L 593.768311 127.293432 
L 594.690625 127.158085 
L 595.612939 128.714304 
L 596.535253 128.370978 
L 597.457567 128.486902 
L 598.379881 128.947382 
L 599.302195 128.838007 
L 600.224509 128.260208 
L 601.146823 127.950895 
L 602.069137 126.283135 
L 602.991451 128.140022 
L 604.83608 126.207577 
L 605.758394 127.539877 
L 606.680708 127.357292 
L 608.525336 126.763006 
L 609.44765 127.259967 
L 610.369964 126.996985 
L 611.292278 126.529472 
L 613.136906 127.412347 
L 614.05922 127.049697 
L 614.981534 126.292813 
L 615.903848 126.895689 
L 616.826162 126.452249 
L 617.748476 126.552457 
L 618.67079 125.732269 
L 619.593104 127.180789 
L 620.515418 126.470533 
L 621.437732 128.10307 
L 622.360046 127.623482 
L 623.282361 126.756451 
L 624.204675 126.674386 
L 625.126989 126.430197 
L 625.126989 126.430197 
" clip-path="url(#p2bad3b0482)" style="fill: none; stroke: #1f77b4; stroke-width: 1.5; stroke-linecap: square"/>
   </g>
   <g id="line2d_12">
    <path d="M 117.854261 272.296377 
L 118.776575 296.03625 
L 119.698889 264.026086 
L 120.621204 207.799987 
L 121.543518 243.066594 
L 122.465832 193.629605 
L 123.388146 187.417065 
L 124.31046 175.612571 
L 125.232774 188.708502 
L 126.155088 182.468813 
L 127.077402 171.245586 
L 127.999716 163.200798 
L 128.92203 165.079255 
L 129.844344 164.641227 
L 130.766658 164.583714 
L 131.688972 170.878139 
L 132.611286 192.699071 
L 133.5336 175.336276 
L 134.455914 168.049861 
L 135.378228 151.28019 
L 136.300542 159.248282 
L 137.222856 146.28808 
L 138.14517 140.901759 
L 139.067485 145.551194 
L 139.989799 142.666678 
L 140.912113 143.648375 
L 141.834427 145.606527 
L 142.756741 140.852092 
L 143.679055 145.328446 
L 144.601369 143.822301 
L 145.523683 139.007021 
L 146.445997 137.082641 
L 147.368311 136.292485 
L 148.290625 134.505795 
L 149.212939 136.254305 
L 150.135253 137.319965 
L 151.057567 137.857859 
L 151.979881 137.248942 
L 152.902195 137.370009 
L 153.824509 140.140774 
L 154.746823 136.559143 
L 155.669137 136.20536 
L 156.591451 136.796645 
L 157.513765 135.641941 
L 158.43608 138.298132 
L 159.358394 136.548575 
L 160.280708 138.086089 
L 161.203022 137.093049 
L 162.125336 139.686466 
L 163.04765 134.660049 
L 163.969964 136.760201 
L 164.892278 136.928963 
L 165.814592 137.545384 
L 167.65922 135.145935 
L 169.503848 138.556555 
L 170.426162 138.551237 
L 171.348476 137.30024 
L 172.27079 134.618055 
L 173.193104 136.359067 
L 174.115418 135.329998 
L 175.960046 134.580303 
L 176.882361 133.586949 
L 177.804675 134.311701 
L 178.726989 134.512647 
L 179.649303 134.178027 
L 180.571617 133.276789 
L 181.493931 134.796104 
L 182.416245 135.5698 
L 183.338559 133.398496 
L 184.260873 134.94464 
L 185.183187 135.594839 
L 186.105501 136.023794 
L 187.027815 134.271671 
L 187.950129 133.52041 
L 188.872443 134.134421 
L 189.794757 134.354601 
L 190.717071 134.101571 
L 191.639385 134.851017 
L 192.561699 135.281328 
L 193.484013 134.599304 
L 194.406327 133.753552 
L 195.328642 134.350299 
L 196.250956 134.197715 
L 197.17327 135.957243 
L 198.095584 133.746004 
L 199.017898 134.598264 
L 199.940212 133.655918 
L 200.862526 134.480093 
L 201.78484 134.348458 
L 202.707154 134.696788 
L 203.629468 133.512672 
L 204.551782 135.221075 
L 205.474096 133.730723 
L 206.39641 134.529465 
L 207.318724 132.370661 
L 209.163352 134.572126 
L 210.085666 134.072371 
L 211.00798 134.627531 
L 211.930294 133.686821 
L 212.852608 135.793761 
L 213.774923 136.798164 
L 214.697237 135.970146 
L 215.619551 136.020147 
L 217.464179 133.937679 
L 218.386493 133.883375 
L 219.308807 135.783679 
L 220.231121 134.246771 
L 221.153435 134.67069 
L 222.075749 133.787839 
L 222.998063 133.98603 
L 223.920377 133.749291 
L 224.842691 134.937766 
L 225.765005 133.590693 
L 226.687319 133.948955 
L 228.531947 135.163464 
L 229.454261 135.250225 
L 230.376575 133.417657 
L 231.298889 134.83951 
L 232.221204 134.042226 
L 233.143518 133.857755 
L 234.065832 132.744474 
L 234.988146 133.127158 
L 235.91046 133.733979 
L 237.755088 132.540356 
L 238.677402 132.381644 
L 239.599716 133.468012 
L 240.52203 132.89523 
L 241.444344 133.132457 
L 242.366658 133.054752 
L 243.288972 134.444325 
L 244.211286 134.492291 
L 245.1336 132.703812 
L 246.055914 132.803628 
L 246.978228 132.034225 
L 247.900542 131.855089 
L 248.822856 132.523579 
L 249.74517 133.899917 
L 250.667485 133.3576 
L 251.589799 133.204065 
L 252.512113 132.664753 
L 253.434427 133.850222 
L 254.356741 132.380251 
L 255.279055 134.508646 
L 256.201369 132.891838 
L 257.123683 132.60006 
L 258.968311 133.371722 
L 260.812939 133.289836 
L 261.735253 133.233779 
L 262.657567 132.59753 
L 263.579881 133.140671 
L 264.502195 133.469409 
L 265.424509 135.298431 
L 266.346823 133.081593 
L 267.269137 133.76687 
L 268.191451 133.628306 
L 269.113765 134.142602 
L 270.958394 133.234211 
L 271.880708 133.387198 
L 272.803022 132.977919 
L 273.725336 133.963267 
L 274.64765 133.314476 
L 275.569964 132.411628 
L 276.492278 133.066124 
L 277.414592 134.496277 
L 278.336906 133.755932 
L 279.25922 135.162542 
L 280.181534 133.581566 
L 281.103848 133.305612 
L 282.026162 133.524542 
L 283.87079 133.266223 
L 284.793104 134.589685 
L 285.715418 133.405029 
L 287.560046 134.669077 
L 288.482361 133.501361 
L 289.404675 134.54872 
L 290.326989 134.330751 
L 291.249303 133.594184 
L 292.171617 133.685259 
L 293.093931 133.132268 
L 294.938559 134.556337 
L 295.860873 134.747522 
L 296.783187 133.734818 
L 297.705501 134.057103 
L 298.627815 133.400449 
L 300.472443 135.078663 
L 301.394757 134.763415 
L 302.317071 132.670398 
L 303.239385 133.845273 
L 304.161699 134.183134 
L 305.084013 135.394309 
L 306.006327 134.32218 
L 306.928642 135.40424 
L 307.850956 135.965906 
L 308.77327 134.883353 
L 309.695584 135.13337 
L 310.617898 133.912702 
L 311.540212 134.390122 
L 312.462526 133.280426 
L 313.38484 133.387114 
L 315.229468 133.884612 
L 316.151782 134.965188 
L 317.074096 135.665181 
L 317.99641 133.526647 
L 318.918724 134.958716 
L 319.841038 134.407457 
L 320.763352 133.612359 
L 321.685666 132.453903 
L 322.60798 132.901754 
L 323.530294 134.501656 
L 324.452608 132.691125 
L 325.374923 132.707572 
L 326.297237 133.549338 
L 327.219551 133.084856 
L 328.141865 134.094326 
L 329.064179 134.739972 
L 329.986493 133.289971 
L 330.908807 133.717798 
L 331.831121 134.941621 
L 332.753435 133.779234 
L 333.675749 134.403515 
L 334.598063 132.779398 
L 335.520377 134.351158 
L 336.442691 134.337696 
L 337.365005 134.155492 
L 338.287319 132.525546 
L 339.209633 133.086877 
L 340.131947 131.931183 
L 341.054261 134.582029 
L 341.976575 134.47649 
L 343.821204 133.679502 
L 344.743518 133.335482 
L 346.588146 133.982783 
L 347.51046 133.474433 
L 348.432774 133.545177 
L 349.355088 134.065804 
L 350.277402 133.091783 
L 351.199716 133.394984 
L 352.12203 133.362916 
L 353.044344 133.734817 
L 354.888972 133.935786 
L 355.811286 134.215488 
L 356.7336 133.965623 
L 357.655914 135.494185 
L 359.500542 133.550128 
L 360.422856 133.11194 
L 361.34517 132.238664 
L 362.267485 132.453043 
L 363.189799 130.810441 
L 365.034427 134.124518 
L 365.956741 135.103878 
L 366.879055 133.781092 
L 367.801369 133.99295 
L 368.723683 132.891941 
L 369.645997 133.912624 
L 370.568311 133.264993 
L 371.490625 132.399447 
L 372.412939 131.713326 
L 373.335253 132.090483 
L 374.257567 132.856766 
L 375.179881 133.123812 
L 376.102195 133.135695 
L 377.024509 132.27877 
L 377.946823 132.610056 
L 378.869137 134.40004 
L 379.791451 133.040585 
L 380.713765 133.285989 
L 381.63608 133.033763 
L 382.558394 134.071489 
L 383.480708 133.40679 
L 385.325336 133.948797 
L 386.24765 133.393113 
L 387.169964 134.972785 
L 388.092278 133.784309 
L 389.014592 134.35198 
L 389.936906 133.539669 
L 390.85922 133.178662 
L 391.781534 134.394646 
L 392.703848 132.953353 
L 393.626162 132.700312 
L 394.548476 133.263802 
L 395.47079 133.674356 
L 396.393104 132.279369 
L 397.315418 132.540283 
L 398.237732 132.63201 
L 399.160046 132.106652 
L 401.004675 131.875436 
L 401.926989 132.101985 
L 402.849303 131.632349 
L 403.771617 132.243352 
L 404.693931 131.312647 
L 405.616245 132.518016 
L 406.538559 132.074249 
L 407.460873 133.525432 
L 408.383187 132.311771 
L 409.305501 131.365266 
L 410.227815 132.376833 
L 411.150129 132.470925 
L 412.994757 131.396327 
L 413.917071 131.54476 
L 414.839385 132.302675 
L 415.761699 131.590595 
L 416.684013 132.470348 
L 417.606327 132.412599 
L 418.528642 131.673215 
L 420.37327 133.198533 
L 421.295584 133.673751 
L 422.217898 132.436078 
L 423.140212 131.4986 
L 424.062526 132.618971 
L 424.98484 132.490221 
L 425.907154 132.556169 
L 426.829468 131.788266 
L 427.751782 131.942189 
L 428.674096 131.903216 
L 429.59641 132.539686 
L 430.518724 130.569412 
L 431.441038 131.466622 
L 432.363352 132.033561 
L 433.285666 131.906376 
L 434.20798 130.992269 
L 435.130294 131.851759 
L 436.052608 132.544933 
L 436.974923 132.199204 
L 437.897237 132.783126 
L 438.819551 132.067351 
L 439.741865 132.47541 
L 440.664179 132.238959 
L 441.586493 132.671792 
L 442.508807 132.285419 
L 443.431121 132.183509 
L 444.353435 131.733499 
L 446.198063 132.243679 
L 447.120377 132.787757 
L 449.887319 132.398486 
L 451.731947 132.428882 
L 452.654261 131.97184 
L 453.576575 132.431972 
L 454.498889 133.559509 
L 455.421204 133.063622 
L 456.343518 133.288699 
L 457.265832 132.205903 
L 458.188146 132.12337 
L 459.11046 131.742718 
L 460.032774 132.882066 
L 462.799716 132.404978 
L 464.644344 132.463904 
L 465.566658 131.924399 
L 466.488972 132.932016 
L 467.411286 132.058467 
L 468.3336 131.58803 
L 469.255914 132.137126 
L 470.178228 131.581192 
L 471.100542 132.375005 
L 472.022856 132.978092 
L 472.94517 133.131272 
L 473.867485 134.108581 
L 474.789799 132.805618 
L 475.712113 132.444667 
L 476.634427 132.462697 
L 477.556741 132.82047 
L 478.479055 132.728157 
L 480.323683 132.097278 
L 481.245997 132.340179 
L 482.168311 132.742722 
L 483.090625 133.609747 
L 484.012939 132.67693 
L 484.935253 132.79041 
L 485.857567 132.485461 
L 486.779881 132.365072 
L 487.702195 133.161963 
L 488.624509 133.657013 
L 489.546823 132.932014 
L 490.469137 133.725188 
L 492.313765 133.602527 
L 493.23608 132.867533 
L 494.158394 132.317633 
L 495.080708 133.242729 
L 496.003022 134.369376 
L 496.925336 133.267726 
L 497.84765 134.488446 
L 498.769964 133.333287 
L 499.692278 133.597625 
L 500.614592 135.119699 
L 501.536906 133.710805 
L 502.45922 134.149777 
L 503.381534 133.742468 
L 504.303848 131.405445 
L 506.148476 134.263899 
L 507.07079 132.946087 
L 507.993104 133.713455 
L 508.915418 133.403473 
L 509.837732 132.451649 
L 510.760046 132.25086 
L 511.682361 132.746294 
L 512.604675 133.543493 
L 513.526989 134.145032 
L 514.449303 133.773815 
L 515.371617 132.745112 
L 516.293931 133.204419 
L 517.216245 132.526789 
L 519.060873 132.501007 
L 519.983187 132.877976 
L 520.905501 132.827072 
L 521.827815 133.125438 
L 522.750129 133.077798 
L 524.594757 132.281847 
L 525.517071 132.139013 
L 526.439385 133.059999 
L 527.361699 132.847204 
L 528.284013 133.215277 
L 529.206327 133.038088 
L 530.128642 133.341311 
L 531.050956 133.198229 
L 531.97327 132.869768 
L 532.895584 131.541686 
L 533.817898 130.601714 
L 534.740212 130.221287 
L 535.662526 132.44365 
L 536.58484 132.860736 
L 537.507154 132.116999 
L 538.429468 132.416893 
L 539.351782 132.019425 
L 540.274096 132.093121 
L 541.19641 131.574188 
L 542.118724 131.30707 
L 543.041038 131.666799 
L 543.963352 131.029464 
L 544.885666 133.131409 
L 545.80798 132.308717 
L 547.652608 130.991933 
L 548.574923 131.632793 
L 550.419551 132.233251 
L 551.341865 131.305001 
L 552.264179 130.814976 
L 553.186493 131.642424 
L 554.108807 132.145508 
L 555.031121 131.893631 
L 555.953435 131.26196 
L 556.875749 131.298169 
L 557.798063 132.251309 
L 558.720377 131.744891 
L 559.642691 131.722877 
L 560.565005 131.213984 
L 561.487319 133.009789 
L 562.409633 132.112158 
L 564.254261 132.428836 
L 565.176575 132.054355 
L 567.021204 133.03029 
L 567.943518 132.790353 
L 568.865832 133.726846 
L 569.788146 131.680295 
L 570.71046 132.280318 
L 571.632774 133.309699 
L 572.555088 132.588921 
L 573.477402 132.646088 
L 574.399716 132.094469 
L 575.32203 132.633491 
L 576.244344 132.299455 
L 577.166658 132.719236 
L 578.088972 132.658564 
L 579.011286 130.7238 
L 579.9336 132.541882 
L 580.855914 131.890837 
L 581.778228 132.252463 
L 582.700542 132.059202 
L 584.54517 131.33064 
L 585.467485 131.620803 
L 586.389799 132.843674 
L 587.312113 132.807016 
L 588.234427 132.123512 
L 589.156741 132.344499 
L 590.079055 132.697557 
L 591.001369 132.59924 
L 591.923683 131.928732 
L 592.845997 132.041675 
L 593.768311 132.651605 
L 594.690625 132.183978 
L 596.535253 133.385368 
L 598.379881 133.234771 
L 600.224509 133.314622 
L 601.146823 133.123202 
L 602.069137 130.267198 
L 602.991451 131.961519 
L 603.913765 132.457787 
L 604.83608 131.922502 
L 605.758394 132.137043 
L 606.680708 131.904927 
L 607.603022 132.655 
L 608.525336 132.616746 
L 609.44765 131.219268 
L 610.369964 130.828335 
L 611.292278 131.633501 
L 612.214592 131.692301 
L 613.136906 133.00353 
L 614.05922 131.70666 
L 614.981534 132.741796 
L 615.903848 131.429345 
L 617.748476 131.603527 
L 618.67079 132.149271 
L 619.593104 131.578289 
L 620.515418 131.710636 
L 621.437732 133.077386 
L 622.360046 133.171804 
L 623.282361 131.927192 
L 624.204675 131.326142 
L 625.126989 131.693857 
L 625.126989 131.693857 
" clip-path="url(#p2bad3b0482)" style="fill: none; stroke: #ff7f0e; stroke-width: 1.5; stroke-linecap: square"/>
   </g>
   <g id="patch_3">
    <path d="M 92.490625 308.63625 
L 92.490625 31.43625 
" style="fill: none; stroke: #000000; stroke-width: 0.8; stroke-linejoin: miter; stroke-linecap: square"/>
   </g>
   <g id="patch_4">
    <path d="M 650.490625 308.63625 
L 650.490625 31.43625 
" style="fill: none; stroke: #000000; stroke-width: 0.8; stroke-linejoin: miter; stroke-linecap: square"/>
   </g>
   <g id="patch_5">
    <path d="M 92.490625 308.63625 
L 650.490625 308.63625 
" style="fill: none; stroke: #000000; stroke-width: 0.8; stroke-linejoin: miter; stroke-linecap: square"/>
   </g>
   <g id="patch_6">
    <path d="M 92.490625 31.43625 
L 650.490625 31.43625 
" style="fill: none; stroke: #000000; stroke-width: 0.8; stroke-linejoin: miter; stroke-linecap: square"/>
   </g>
   <g id="text_13">
    <!-- Generator and Discriminator Loss During Training -->
    <g transform="translate(74.258125 25.43625) scale(0.24 -0.24)">
     <defs>
      <path id="DejaVuSans-47" d="M 3809 666 
L 3809 1919 
L 2778 1919 
L 2778 2438 
L 4434 2438 
L 4434 434 
Q 4069 175 3628 42 
Q 3188 -91 2688 -91 
Q 1594 -91 976 548 
Q 359 1188 359 2328 
Q 359 3472 976 4111 
Q 1594 4750 2688 4750 
Q 3144 4750 3555 4637 
Q 3966 4525 4313 4306 
L 4313 3634 
Q 3963 3931 3569 4081 
Q 3175 4231 2741 4231 
Q 1884 4231 1454 3753 
Q 1025 3275 1025 2328 
Q 1025 1384 1454 906 
Q 1884 428 2741 428 
Q 3075 428 3337 486 
Q 3600 544 3809 666 
z
" transform="scale(0.015625)"/>
      <path id="DejaVuSans-20" transform="scale(0.015625)"/>
      <path id="DejaVuSans-64" d="M 2906 2969 
L 2906 4863 
L 3481 4863 
L 3481 0 
L 2906 0 
L 2906 525 
Q 2725 213 2448 61 
Q 2172 -91 1784 -91 
Q 1150 -91 751 415 
Q 353 922 353 1747 
Q 353 2572 751 3078 
Q 1150 3584 1784 3584 
Q 2172 3584 2448 3432 
Q 2725 3281 2906 2969 
z
M 947 1747 
Q 947 1113 1208 752 
Q 1469 391 1925 391 
Q 2381 391 2643 752 
Q 2906 1113 2906 1747 
Q 2906 2381 2643 2742 
Q 2381 3103 1925 3103 
Q 1469 3103 1208 2742 
Q 947 2381 947 1747 
z
" transform="scale(0.015625)"/>
      <path id="DejaVuSans-44" d="M 1259 4147 
L 1259 519 
L 2022 519 
Q 2988 519 3436 956 
Q 3884 1394 3884 2338 
Q 3884 3275 3436 3711 
Q 2988 4147 2022 4147 
L 1259 4147 
z
M 628 4666 
L 1925 4666 
Q 3281 4666 3915 4102 
Q 4550 3538 4550 2338 
Q 4550 1131 3912 565 
Q 3275 0 1925 0 
L 628 0 
L 628 4666 
z
" transform="scale(0.015625)"/>
      <path id="DejaVuSans-63" d="M 3122 3366 
L 3122 2828 
Q 2878 2963 2633 3030 
Q 2388 3097 2138 3097 
Q 1578 3097 1268 2742 
Q 959 2388 959 1747 
Q 959 1106 1268 751 
Q 1578 397 2138 397 
Q 2388 397 2633 464 
Q 2878 531 3122 666 
L 3122 134 
Q 2881 22 2623 -34 
Q 2366 -91 2075 -91 
Q 1284 -91 818 406 
Q 353 903 353 1747 
Q 353 2603 823 3093 
Q 1294 3584 2113 3584 
Q 2378 3584 2631 3529 
Q 2884 3475 3122 3366 
z
" transform="scale(0.015625)"/>
      <path id="DejaVuSans-6d" d="M 3328 2828 
Q 3544 3216 3844 3400 
Q 4144 3584 4550 3584 
Q 5097 3584 5394 3201 
Q 5691 2819 5691 2113 
L 5691 0 
L 5113 0 
L 5113 2094 
Q 5113 2597 4934 2840 
Q 4756 3084 4391 3084 
Q 3944 3084 3684 2787 
Q 3425 2491 3425 1978 
L 3425 0 
L 2847 0 
L 2847 2094 
Q 2847 2600 2669 2842 
Q 2491 3084 2119 3084 
Q 1678 3084 1418 2786 
Q 1159 2488 1159 1978 
L 1159 0 
L 581 0 
L 581 3500 
L 1159 3500 
L 1159 2956 
Q 1356 3278 1631 3431 
Q 1906 3584 2284 3584 
Q 2666 3584 2933 3390 
Q 3200 3197 3328 2828 
z
" transform="scale(0.015625)"/>
      <path id="DejaVuSans-75" d="M 544 1381 
L 544 3500 
L 1119 3500 
L 1119 1403 
Q 1119 906 1312 657 
Q 1506 409 1894 409 
Q 2359 409 2629 706 
Q 2900 1003 2900 1516 
L 2900 3500 
L 3475 3500 
L 3475 0 
L 2900 0 
L 2900 538 
Q 2691 219 2414 64 
Q 2138 -91 1772 -91 
Q 1169 -91 856 284 
Q 544 659 544 1381 
z
M 1991 3584 
L 1991 3584 
z
" transform="scale(0.015625)"/>
      <path id="DejaVuSans-67" d="M 2906 1791 
Q 2906 2416 2648 2759 
Q 2391 3103 1925 3103 
Q 1463 3103 1205 2759 
Q 947 2416 947 1791 
Q 947 1169 1205 825 
Q 1463 481 1925 481 
Q 2391 481 2648 825 
Q 2906 1169 2906 1791 
z
M 3481 434 
Q 3481 -459 3084 -895 
Q 2688 -1331 1869 -1331 
Q 1566 -1331 1297 -1286 
Q 1028 -1241 775 -1147 
L 775 -588 
Q 1028 -725 1275 -790 
Q 1522 -856 1778 -856 
Q 2344 -856 2625 -561 
Q 2906 -266 2906 331 
L 2906 616 
Q 2728 306 2450 153 
Q 2172 0 1784 0 
Q 1141 0 747 490 
Q 353 981 353 1791 
Q 353 2603 747 3093 
Q 1141 3584 1784 3584 
Q 2172 3584 2450 3431 
Q 2728 3278 2906 2969 
L 2906 3500 
L 3481 3500 
L 3481 434 
z
" transform="scale(0.015625)"/>
      <path id="DejaVuSans-54" d="M -19 4666 
L 3928 4666 
L 3928 4134 
L 2272 4134 
L 2272 0 
L 1638 0 
L 1638 4134 
L -19 4134 
L -19 4666 
z
" transform="scale(0.015625)"/>
     </defs>
     <use xlink:href="#DejaVuSans-47"/>
     <use xlink:href="#DejaVuSans-65" x="77.490234"/>
     <use xlink:href="#DejaVuSans-6e" x="139.013672"/>
     <use xlink:href="#DejaVuSans-65" x="202.392578"/>
     <use xlink:href="#DejaVuSans-72" x="263.916016"/>
     <use xlink:href="#DejaVuSans-61" x="305.029297"/>
     <use xlink:href="#DejaVuSans-74" x="366.308594"/>
     <use xlink:href="#DejaVuSans-6f" x="405.517578"/>
     <use xlink:href="#DejaVuSans-72" x="466.699219"/>
     <use xlink:href="#DejaVuSans-20" x="507.8125"/>
     <use xlink:href="#DejaVuSans-61" x="539.599609"/>
     <use xlink:href="#DejaVuSans-6e" x="600.878906"/>
     <use xlink:href="#DejaVuSans-64" x="664.257812"/>
     <use xlink:href="#DejaVuSans-20" x="727.734375"/>
     <use xlink:href="#DejaVuSans-44" x="759.521484"/>
     <use xlink:href="#DejaVuSans-69" x="836.523438"/>
     <use xlink:href="#DejaVuSans-73" x="864.306641"/>
     <use xlink:href="#DejaVuSans-63" x="916.40625"/>
     <use xlink:href="#DejaVuSans-72" x="971.386719"/>
     <use xlink:href="#DejaVuSans-69" x="1012.5"/>
     <use xlink:href="#DejaVuSans-6d" x="1040.283203"/>
     <use xlink:href="#DejaVuSans-69" x="1137.695312"/>
     <use xlink:href="#DejaVuSans-6e" x="1165.478516"/>
     <use xlink:href="#DejaVuSans-61" x="1228.857422"/>
     <use xlink:href="#DejaVuSans-74" x="1290.136719"/>
     <use xlink:href="#DejaVuSans-6f" x="1329.345703"/>
     <use xlink:href="#DejaVuSans-72" x="1390.527344"/>
     <use xlink:href="#DejaVuSans-20" x="1431.640625"/>
     <use xlink:href="#DejaVuSans-4c" x="1463.427734"/>
     <use xlink:href="#DejaVuSans-6f" x="1517.390625"/>
     <use xlink:href="#DejaVuSans-73" x="1578.572266"/>
     <use xlink:href="#DejaVuSans-73" x="1630.671875"/>
     <use xlink:href="#DejaVuSans-20" x="1682.771484"/>
     <use xlink:href="#DejaVuSans-44" x="1714.558594"/>
     <use xlink:href="#DejaVuSans-75" x="1791.560547"/>
     <use xlink:href="#DejaVuSans-72" x="1854.939453"/>
     <use xlink:href="#DejaVuSans-69" x="1896.052734"/>
     <use xlink:href="#DejaVuSans-6e" x="1923.835938"/>
     <use xlink:href="#DejaVuSans-67" x="1987.214844"/>
     <use xlink:href="#DejaVuSans-20" x="2050.691406"/>
     <use xlink:href="#DejaVuSans-54" x="2082.478516"/>
     <use xlink:href="#DejaVuSans-72" x="2128.8125"/>
     <use xlink:href="#DejaVuSans-61" x="2169.925781"/>
     <use xlink:href="#DejaVuSans-69" x="2231.205078"/>
     <use xlink:href="#DejaVuSans-6e" x="2258.988281"/>
     <use xlink:href="#DejaVuSans-69" x="2322.367188"/>
     <use xlink:href="#DejaVuSans-6e" x="2350.150391"/>
     <use xlink:href="#DejaVuSans-67" x="2413.529297"/>
    </g>
   </g>
   <g id="legend_1">
    <g id="patch_7">
     <path d="M 556.99375 106.14875 
L 636.490625 106.14875 
Q 640.490625 106.14875 640.490625 102.14875 
L 640.490625 45.43625 
Q 640.490625 41.43625 636.490625 41.43625 
L 556.99375 41.43625 
Q 552.99375 41.43625 552.99375 45.43625 
L 552.99375 102.14875 
Q 552.99375 106.14875 556.99375 106.14875 
z
" style="fill: #ffffff; opacity: 0.8; stroke: #cccccc; stroke-linejoin: miter"/>
    </g>
    <g id="line2d_13">
     <path d="M 560.99375 57.633125 
L 580.99375 57.633125 
L 600.99375 57.633125 
" style="fill: none; stroke: #1f77b4; stroke-width: 1.5; stroke-linecap: square"/>
    </g>
    <g id="text_14">
     <!-- G -->
     <g transform="translate(616.99375 64.633125) scale(0.2 -0.2)">
      <use xlink:href="#DejaVuSans-47"/>
     </g>
    </g>
    <g id="line2d_14">
     <path d="M 560.99375 86.989375 
L 580.99375 86.989375 
L 600.99375 86.989375 
" style="fill: none; stroke: #ff7f0e; stroke-width: 1.5; stroke-linecap: square"/>
    </g>
    <g id="text_15">
     <!-- D -->
     <g transform="translate(616.99375 93.989375) scale(0.2 -0.2)">
      <use xlink:href="#DejaVuSans-44"/>
     </g>
    </g>
   </g>
  </g>
 </g>
 <defs>
  <clipPath id="p2bad3b0482">
   <rect x="92.490625" y="31.43625" width="558" height="277.2"/>
  </clipPath>
 </defs>
</svg>
