<?xml version="1.0" encoding="utf-8" standalone="no"?>
<!DOCTYPE svg PUBLIC "-//W3C//DTD SVG 1.1//EN"
  "http://www.w3.org/Graphics/SVG/1.1/DTD/svg11.dtd">
<svg xmlns:xlink="http://www.w3.org/1999/xlink" width="675.923125pt" height="365.54875pt" viewBox="0 0 675.923125 365.54875" xmlns="http://www.w3.org/2000/svg" version="1.1">
 <metadata>
  <rdf:RDF xmlns:dc="http://purl.org/dc/elements/1.1/" xmlns:cc="http://creativecommons.org/ns#" xmlns:rdf="http://www.w3.org/1999/02/22-rdf-syntax-ns#">
   <cc:Work>
    <dc:type rdf:resource="http://purl.org/dc/dcmitype/StillImage"/>
    <dc:date>2024-02-07T04:21:44.448244</dc:date>
    <dc:format>image/svg+xml</dc:format>
    <dc:creator>
     <cc:Agent>
      <dc:title>Matplotlib v3.7.2, https://matplotlib.org/</dc:title>
     </cc:Agent>
    </dc:creator>
   </cc:Work>
  </rdf:RDF>
 </metadata>
 <defs>
  <style type="text/css">*{stroke-linejoin: round; stroke-linecap: butt}</style>
 </defs>
 <g id="figure_1">
  <g id="patch_1">
   <path d="M 0 365.54875 
L 675.923125 365.54875 
L 675.923125 -0 
L 0 -0 
z
" style="fill: #ffffff"/>
  </g>
  <g id="axes_1">
   <g id="patch_2">
    <path d="M 92.490625 308.63625 
L 650.490625 308.63625 
L 650.490625 31.43625 
L 92.490625 31.43625 
z
" style="fill: #ffffff"/>
   </g>
   <g id="matplotlib.axis_1">
    <g id="xtick_1">
     <g id="line2d_1">
      <defs>
       <path id="mf7bb1c4502" d="M 0 0 
L 0 3.5 
" style="stroke: #000000; stroke-width: 0.8"/>
      </defs>
      <g>
       <use xlink:href="#mf7bb1c4502" x="117.854261" y="308.63625" style="stroke: #000000; stroke-width: 0.8"/>
      </g>
     </g>
     <g id="text_1">
      <!-- 0 -->
      <g transform="translate(111.491761 330.833125) scale(0.2 -0.2)">
       <defs>
        <path id="DejaVuSans-30" d="M 2034 4250 
Q 1547 4250 1301 3770 
Q 1056 3291 1056 2328 
Q 1056 1369 1301 889 
Q 1547 409 2034 409 
Q 2525 409 2770 889 
Q 3016 1369 3016 2328 
Q 3016 3291 2770 3770 
Q 2525 4250 2034 4250 
z
M 2034 4750 
Q 2819 4750 3233 4129 
Q 3647 3509 3647 2328 
Q 3647 1150 3233 529 
Q 2819 -91 2034 -91 
Q 1250 -91 836 529 
Q 422 1150 422 2328 
Q 422 3509 836 4129 
Q 1250 4750 2034 4750 
z
" transform="scale(0.015625)"/>
       </defs>
       <use xlink:href="#DejaVuSans-30"/>
      </g>
     </g>
    </g>
    <g id="xtick_2">
     <g id="line2d_2">
      <g>
       <use xlink:href="#mf7bb1c4502" x="195.896219" y="308.63625" style="stroke: #000000; stroke-width: 0.8"/>
      </g>
     </g>
     <g id="text_2">
      <!-- 100 -->
      <g transform="translate(176.808719 330.833125) scale(0.2 -0.2)">
       <defs>
        <path id="DejaVuSans-31" d="M 794 531 
L 1825 531 
L 1825 4091 
L 703 3866 
L 703 4441 
L 1819 4666 
L 2450 4666 
L 2450 531 
L 3481 531 
L 3481 0 
L 794 0 
L 794 531 
z
" transform="scale(0.015625)"/>
       </defs>
       <use xlink:href="#DejaVuSans-31"/>
       <use xlink:href="#DejaVuSans-30" x="63.623047"/>
       <use xlink:href="#DejaVuSans-30" x="127.246094"/>
      </g>
     </g>
    </g>
    <g id="xtick_3">
     <g id="line2d_3">
      <g>
       <use xlink:href="#mf7bb1c4502" x="273.938177" y="308.63625" style="stroke: #000000; stroke-width: 0.8"/>
      </g>
     </g>
     <g id="text_3">
      <!-- 200 -->
      <g transform="translate(254.850677 330.833125) scale(0.2 -0.2)">
       <defs>
        <path id="DejaVuSans-32" d="M 1228 531 
L 3431 531 
L 3431 0 
L 469 0 
L 469 531 
Q 828 903 1448 1529 
Q 2069 2156 2228 2338 
Q 2531 2678 2651 2914 
Q 2772 3150 2772 3378 
Q 2772 3750 2511 3984 
Q 2250 4219 1831 4219 
Q 1534 4219 1204 4116 
Q 875 4013 500 3803 
L 500 4441 
Q 881 4594 1212 4672 
Q 1544 4750 1819 4750 
Q 2544 4750 2975 4387 
Q 3406 4025 3406 3419 
Q 3406 3131 3298 2873 
Q 3191 2616 2906 2266 
Q 2828 2175 2409 1742 
Q 1991 1309 1228 531 
z
" transform="scale(0.015625)"/>
       </defs>
       <use xlink:href="#DejaVuSans-32"/>
       <use xlink:href="#DejaVuSans-30" x="63.623047"/>
       <use xlink:href="#DejaVuSans-30" x="127.246094"/>
      </g>
     </g>
    </g>
    <g id="xtick_4">
     <g id="line2d_4">
      <g>
       <use xlink:href="#mf7bb1c4502" x="351.980135" y="308.63625" style="stroke: #000000; stroke-width: 0.8"/>
      </g>
     </g>
     <g id="text_4">
      <!-- 300 -->
      <g transform="translate(332.892635 330.833125) scale(0.2 -0.2)">
       <defs>
        <path id="DejaVuSans-33" d="M 2597 2516 
Q 3050 2419 3304 2112 
Q 3559 1806 3559 1356 
Q 3559 666 3084 287 
Q 2609 -91 1734 -91 
Q 1441 -91 1130 -33 
Q 819 25 488 141 
L 488 750 
Q 750 597 1062 519 
Q 1375 441 1716 441 
Q 2309 441 2620 675 
Q 2931 909 2931 1356 
Q 2931 1769 2642 2001 
Q 2353 2234 1838 2234 
L 1294 2234 
L 1294 2753 
L 1863 2753 
Q 2328 2753 2575 2939 
Q 2822 3125 2822 3475 
Q 2822 3834 2567 4026 
Q 2313 4219 1838 4219 
Q 1578 4219 1281 4162 
Q 984 4106 628 3988 
L 628 4550 
Q 988 4650 1302 4700 
Q 1616 4750 1894 4750 
Q 2613 4750 3031 4423 
Q 3450 4097 3450 3541 
Q 3450 3153 3228 2886 
Q 3006 2619 2597 2516 
z
" transform="scale(0.015625)"/>
       </defs>
       <use xlink:href="#DejaVuSans-33"/>
       <use xlink:href="#DejaVuSans-30" x="63.623047"/>
       <use xlink:href="#DejaVuSans-30" x="127.246094"/>
      </g>
     </g>
    </g>
    <g id="xtick_5">
     <g id="line2d_5">
      <g>
       <use xlink:href="#mf7bb1c4502" x="430.022094" y="308.63625" style="stroke: #000000; stroke-width: 0.8"/>
      </g>
     </g>
     <g id="text_5">
      <!-- 400 -->
      <g transform="translate(410.934594 330.833125) scale(0.2 -0.2)">
       <defs>
        <path id="DejaVuSans-34" d="M 2419 4116 
L 825 1625 
L 2419 1625 
L 2419 4116 
z
M 2253 4666 
L 3047 4666 
L 3047 1625 
L 3713 1625 
L 3713 1100 
L 3047 1100 
L 3047 0 
L 2419 0 
L 2419 1100 
L 313 1100 
L 313 1709 
L 2253 4666 
z
" transform="scale(0.015625)"/>
       </defs>
       <use xlink:href="#DejaVuSans-34"/>
       <use xlink:href="#DejaVuSans-30" x="63.623047"/>
       <use xlink:href="#DejaVuSans-30" x="127.246094"/>
      </g>
     </g>
    </g>
    <g id="xtick_6">
     <g id="line2d_6">
      <g>
       <use xlink:href="#mf7bb1c4502" x="508.064052" y="308.63625" style="stroke: #000000; stroke-width: 0.8"/>
      </g>
     </g>
     <g id="text_6">
      <!-- 500 -->
      <g transform="translate(488.976552 330.833125) scale(0.2 -0.2)">
       <defs>
        <path id="DejaVuSans-35" d="M 691 4666 
L 3169 4666 
L 3169 4134 
L 1269 4134 
L 1269 2991 
Q 1406 3038 1543 3061 
Q 1681 3084 1819 3084 
Q 2600 3084 3056 2656 
Q 3513 2228 3513 1497 
Q 3513 744 3044 326 
Q 2575 -91 1722 -91 
Q 1428 -91 1123 -41 
Q 819 9 494 109 
L 494 744 
Q 775 591 1075 516 
Q 1375 441 1709 441 
Q 2250 441 2565 725 
Q 2881 1009 2881 1497 
Q 2881 1984 2565 2268 
Q 2250 2553 1709 2553 
Q 1456 2553 1204 2497 
Q 953 2441 691 2322 
L 691 4666 
z
" transform="scale(0.015625)"/>
       </defs>
       <use xlink:href="#DejaVuSans-35"/>
       <use xlink:href="#DejaVuSans-30" x="63.623047"/>
       <use xlink:href="#DejaVuSans-30" x="127.246094"/>
      </g>
     </g>
    </g>
    <g id="xtick_7">
     <g id="line2d_7">
      <g>
       <use xlink:href="#mf7bb1c4502" x="586.10601" y="308.63625" style="stroke: #000000; stroke-width: 0.8"/>
      </g>
     </g>
     <g id="text_7">
      <!-- 600 -->
      <g transform="translate(567.01851 330.833125) scale(0.2 -0.2)">
       <defs>
        <path id="DejaVuSans-36" d="M 2113 2584 
Q 1688 2584 1439 2293 
Q 1191 2003 1191 1497 
Q 1191 994 1439 701 
Q 1688 409 2113 409 
Q 2538 409 2786 701 
Q 3034 994 3034 1497 
Q 3034 2003 2786 2293 
Q 2538 2584 2113 2584 
z
M 3366 4563 
L 3366 3988 
Q 3128 4100 2886 4159 
Q 2644 4219 2406 4219 
Q 1781 4219 1451 3797 
Q 1122 3375 1075 2522 
Q 1259 2794 1537 2939 
Q 1816 3084 2150 3084 
Q 2853 3084 3261 2657 
Q 3669 2231 3669 1497 
Q 3669 778 3244 343 
Q 2819 -91 2113 -91 
Q 1303 -91 875 529 
Q 447 1150 447 2328 
Q 447 3434 972 4092 
Q 1497 4750 2381 4750 
Q 2619 4750 2861 4703 
Q 3103 4656 3366 4563 
z
" transform="scale(0.015625)"/>
       </defs>
       <use xlink:href="#DejaVuSans-36"/>
       <use xlink:href="#DejaVuSans-30" x="63.623047"/>
       <use xlink:href="#DejaVuSans-30" x="127.246094"/>
      </g>
     </g>
    </g>
    <g id="text_8">
     <!-- iterations -->
     <g transform="translate(324.035938 354.189375) scale(0.2 -0.2)">
      <defs>
       <path id="DejaVuSans-69" d="M 603 3500 
L 1178 3500 
L 1178 0 
L 603 0 
L 603 3500 
z
M 603 4863 
L 1178 4863 
L 1178 4134 
L 603 4134 
L 603 4863 
z
" transform="scale(0.015625)"/>
       <path id="DejaVuSans-74" d="M 1172 4494 
L 1172 3500 
L 2356 3500 
L 2356 3053 
L 1172 3053 
L 1172 1153 
Q 1172 725 1289 603 
Q 1406 481 1766 481 
L 2356 481 
L 2356 0 
L 1766 0 
Q 1100 0 847 248 
Q 594 497 594 1153 
L 594 3053 
L 172 3053 
L 172 3500 
L 594 3500 
L 594 4494 
L 1172 4494 
z
" transform="scale(0.015625)"/>
       <path id="DejaVuSans-65" d="M 3597 1894 
L 3597 1613 
L 953 1613 
Q 991 1019 1311 708 
Q 1631 397 2203 397 
Q 2534 397 2845 478 
Q 3156 559 3463 722 
L 3463 178 
Q 3153 47 2828 -22 
Q 2503 -91 2169 -91 
Q 1331 -91 842 396 
Q 353 884 353 1716 
Q 353 2575 817 3079 
Q 1281 3584 2069 3584 
Q 2775 3584 3186 3129 
Q 3597 2675 3597 1894 
z
M 3022 2063 
Q 3016 2534 2758 2815 
Q 2500 3097 2075 3097 
Q 1594 3097 1305 2825 
Q 1016 2553 972 2059 
L 3022 2063 
z
" transform="scale(0.015625)"/>
       <path id="DejaVuSans-72" d="M 2631 2963 
Q 2534 3019 2420 3045 
Q 2306 3072 2169 3072 
Q 1681 3072 1420 2755 
Q 1159 2438 1159 1844 
L 1159 0 
L 581 0 
L 581 3500 
L 1159 3500 
L 1159 2956 
Q 1341 3275 1631 3429 
Q 1922 3584 2338 3584 
Q 2397 3584 2469 3576 
Q 2541 3569 2628 3553 
L 2631 2963 
z
" transform="scale(0.015625)"/>
       <path id="DejaVuSans-61" d="M 2194 1759 
Q 1497 1759 1228 1600 
Q 959 1441 959 1056 
Q 959 750 1161 570 
Q 1363 391 1709 391 
Q 2188 391 2477 730 
Q 2766 1069 2766 1631 
L 2766 1759 
L 2194 1759 
z
M 3341 1997 
L 3341 0 
L 2766 0 
L 2766 531 
Q 2569 213 2275 61 
Q 1981 -91 1556 -91 
Q 1019 -91 701 211 
Q 384 513 384 1019 
Q 384 1609 779 1909 
Q 1175 2209 1959 2209 
L 2766 2209 
L 2766 2266 
Q 2766 2663 2505 2880 
Q 2244 3097 1772 3097 
Q 1472 3097 1187 3025 
Q 903 2953 641 2809 
L 641 3341 
Q 956 3463 1253 3523 
Q 1550 3584 1831 3584 
Q 2591 3584 2966 3190 
Q 3341 2797 3341 1997 
z
" transform="scale(0.015625)"/>
       <path id="DejaVuSans-6f" d="M 1959 3097 
Q 1497 3097 1228 2736 
Q 959 2375 959 1747 
Q 959 1119 1226 758 
Q 1494 397 1959 397 
Q 2419 397 2687 759 
Q 2956 1122 2956 1747 
Q 2956 2369 2687 2733 
Q 2419 3097 1959 3097 
z
M 1959 3584 
Q 2709 3584 3137 3096 
Q 3566 2609 3566 1747 
Q 3566 888 3137 398 
Q 2709 -91 1959 -91 
Q 1206 -91 779 398 
Q 353 888 353 1747 
Q 353 2609 779 3096 
Q 1206 3584 1959 3584 
z
" transform="scale(0.015625)"/>
       <path id="DejaVuSans-6e" d="M 3513 2113 
L 3513 0 
L 2938 0 
L 2938 2094 
Q 2938 2591 2744 2837 
Q 2550 3084 2163 3084 
Q 1697 3084 1428 2787 
Q 1159 2491 1159 1978 
L 1159 0 
L 581 0 
L 581 3500 
L 1159 3500 
L 1159 2956 
Q 1366 3272 1645 3428 
Q 1925 3584 2291 3584 
Q 2894 3584 3203 3211 
Q 3513 2838 3513 2113 
z
" transform="scale(0.015625)"/>
       <path id="DejaVuSans-73" d="M 2834 3397 
L 2834 2853 
Q 2591 2978 2328 3040 
Q 2066 3103 1784 3103 
Q 1356 3103 1142 2972 
Q 928 2841 928 2578 
Q 928 2378 1081 2264 
Q 1234 2150 1697 2047 
L 1894 2003 
Q 2506 1872 2764 1633 
Q 3022 1394 3022 966 
Q 3022 478 2636 193 
Q 2250 -91 1575 -91 
Q 1294 -91 989 -36 
Q 684 19 347 128 
L 347 722 
Q 666 556 975 473 
Q 1284 391 1588 391 
Q 1994 391 2212 530 
Q 2431 669 2431 922 
Q 2431 1156 2273 1281 
Q 2116 1406 1581 1522 
L 1381 1569 
Q 847 1681 609 1914 
Q 372 2147 372 2553 
Q 372 3047 722 3315 
Q 1072 3584 1716 3584 
Q 2034 3584 2315 3537 
Q 2597 3491 2834 3397 
z
" transform="scale(0.015625)"/>
      </defs>
      <use xlink:href="#DejaVuSans-69"/>
      <use xlink:href="#DejaVuSans-74" x="27.783203"/>
      <use xlink:href="#DejaVuSans-65" x="66.992188"/>
      <use xlink:href="#DejaVuSans-72" x="128.515625"/>
      <use xlink:href="#DejaVuSans-61" x="169.628906"/>
      <use xlink:href="#DejaVuSans-74" x="230.908203"/>
      <use xlink:href="#DejaVuSans-69" x="270.117188"/>
      <use xlink:href="#DejaVuSans-6f" x="297.900391"/>
      <use xlink:href="#DejaVuSans-6e" x="359.082031"/>
      <use xlink:href="#DejaVuSans-73" x="422.460938"/>
     </g>
    </g>
   </g>
   <g id="matplotlib.axis_2">
    <g id="ytick_1">
     <g id="line2d_8">
      <defs>
       <path id="m7e38f54080" d="M 0 0 
L -3.5 0 
" style="stroke: #000000; stroke-width: 0.8"/>
      </defs>
      <g>
       <use xlink:href="#m7e38f54080" x="92.490625" y="308.301222" style="stroke: #000000; stroke-width: 0.8"/>
      </g>
     </g>
     <g id="text_9">
      <!-- −400 -->
      <g transform="translate(30.55625 315.89966) scale(0.2 -0.2)">
       <defs>
        <path id="DejaVuSans-2212" d="M 678 2272 
L 4684 2272 
L 4684 1741 
L 678 1741 
L 678 2272 
z
" transform="scale(0.015625)"/>
       </defs>
       <use xlink:href="#DejaVuSans-2212"/>
       <use xlink:href="#DejaVuSans-34" x="83.789062"/>
       <use xlink:href="#DejaVuSans-30" x="147.412109"/>
       <use xlink:href="#DejaVuSans-30" x="211.035156"/>
      </g>
     </g>
    </g>
    <g id="ytick_2">
     <g id="line2d_9">
      <g>
       <use xlink:href="#m7e38f54080" x="92.490625" y="216.520244" style="stroke: #000000; stroke-width: 0.8"/>
      </g>
     </g>
     <g id="text_10">
      <!-- −200 -->
      <g transform="translate(30.55625 224.118682) scale(0.2 -0.2)">
       <use xlink:href="#DejaVuSans-2212"/>
       <use xlink:href="#DejaVuSans-32" x="83.789062"/>
       <use xlink:href="#DejaVuSans-30" x="147.412109"/>
       <use xlink:href="#DejaVuSans-30" x="211.035156"/>
      </g>
     </g>
    </g>
    <g id="ytick_3">
     <g id="line2d_10">
      <g>
       <use xlink:href="#m7e38f54080" x="92.490625" y="124.739266" style="stroke: #000000; stroke-width: 0.8"/>
      </g>
     </g>
     <g id="text_11">
      <!-- 0 -->
      <g transform="translate(72.765625 132.337703) scale(0.2 -0.2)">
       <use xlink:href="#DejaVuSans-30"/>
      </g>
     </g>
    </g>
    <g id="ytick_4">
     <g id="line2d_11">
      <g>
       <use xlink:href="#m7e38f54080" x="92.490625" y="32.958288" style="stroke: #000000; stroke-width: 0.8"/>
      </g>
     </g>
     <g id="text_12">
      <!-- 200 -->
      <g transform="translate(47.315625 40.556725) scale(0.2 -0.2)">
       <use xlink:href="#DejaVuSans-32"/>
       <use xlink:href="#DejaVuSans-30" x="63.623047"/>
       <use xlink:href="#DejaVuSans-30" x="127.246094"/>
      </g>
     </g>
    </g>
    <g id="text_13">
     <!-- Loss -->
     <g transform="translate(22.396875 191.970625) rotate(-90) scale(0.2 -0.2)">
      <defs>
       <path id="DejaVuSans-4c" d="M 628 4666 
L 1259 4666 
L 1259 531 
L 3531 531 
L 3531 0 
L 628 0 
L 628 4666 
z
" transform="scale(0.015625)"/>
      </defs>
      <use xlink:href="#DejaVuSans-4c"/>
      <use xlink:href="#DejaVuSans-6f" x="53.962891"/>
      <use xlink:href="#DejaVuSans-73" x="115.144531"/>
      <use xlink:href="#DejaVuSans-73" x="167.244141"/>
     </g>
    </g>
   </g>
   <g id="line2d_12">
    <path d="M 117.854261 68.010133 
L 118.634681 44.03625 
L 119.415101 82.894351 
L 120.19552 135.352713 
L 120.97594 149.038488 
L 121.756359 131.291508 
L 122.536779 102.480738 
L 123.317198 114.663802 
L 124.097618 109.036371 
L 124.878038 138.147454 
L 125.658457 138.134175 
L 127.219296 115.734088 
L 127.999716 94.696244 
L 129.560555 139.285864 
L 130.340975 148.794628 
L 131.121394 153.318112 
L 131.901814 156.877753 
L 132.682233 83.249261 
L 133.462653 75.174256 
L 134.243073 90.472575 
L 135.023492 116.457012 
L 135.803912 96.256189 
L 136.584331 94.259751 
L 137.364751 95.075452 
L 138.14517 105.7445 
L 138.92559 103.501109 
L 139.70601 98.938048 
L 140.486429 98.781496 
L 141.266849 115.658893 
L 142.047268 104.793282 
L 142.827688 107.674873 
L 143.608108 115.096063 
L 144.388527 112.159413 
L 145.168947 107.601371 
L 145.949366 104.28473 
L 146.729786 96.706982 
L 147.510205 93.680446 
L 148.290625 98.193758 
L 149.071045 106.085946 
L 149.851464 105.036287 
L 150.631884 102.32328 
L 151.412303 103.945881 
L 152.192723 99.317411 
L 152.973142 110.564882 
L 153.753562 112.307272 
L 154.533982 111.665537 
L 155.314401 108.167608 
L 156.094821 111.994753 
L 156.87524 117.502876 
L 157.65566 119.774341 
L 158.43608 119.367335 
L 159.216499 113.051816 
L 159.996919 123.794414 
L 160.777338 123.121725 
L 161.557758 116.751972 
L 162.338177 119.486809 
L 163.118597 125.7908 
L 163.899017 120.97786 
L 164.679436 122.459209 
L 165.459856 119.601567 
L 166.240275 123.368147 
L 167.020695 125.26741 
L 167.801115 126.254064 
L 169.361954 123.83292 
L 170.142373 125.066543 
L 170.922793 124.405088 
L 171.703212 124.342819 
L 172.483632 129.684678 
L 174.044471 122.440892 
L 174.824891 125.291613 
L 175.60531 126.638633 
L 176.38573 127.489029 
L 177.166149 124.104561 
L 177.946569 127.006761 
L 178.726989 124.634792 
L 179.507408 130.008476 
L 180.287828 132.148012 
L 181.068247 129.332871 
L 181.848667 130.19862 
L 182.629087 128.532356 
L 183.409506 130.615072 
L 184.189926 129.75035 
L 184.970345 131.974644 
L 185.750765 133.042215 
L 186.531184 130.869486 
L 187.311604 131.244071 
L 188.872443 129.485777 
L 189.652863 131.902921 
L 190.433282 130.300497 
L 191.213702 132.787354 
L 191.994122 130.1042 
L 192.774541 132.296661 
L 193.554961 128.828173 
L 194.33538 130.977045 
L 195.1158 133.624985 
L 195.896219 133.67938 
L 196.676639 132.890623 
L 197.457059 131.166154 
L 198.237478 130.029175 
L 199.017898 136.267329 
L 199.798317 133.171776 
L 200.578737 131.366796 
L 201.359156 131.143967 
L 202.139576 134.254403 
L 202.919996 133.153225 
L 203.700415 135.194366 
L 204.480835 132.960254 
L 206.041674 131.082405 
L 206.822094 132.584999 
L 207.602513 133.28086 
L 208.382933 131.34064 
L 209.163352 128.753412 
L 209.943772 129.527871 
L 210.724191 133.657564 
L 211.504611 133.308306 
L 212.285031 134.759946 
L 213.84587 132.202234 
L 214.626289 132.039851 
L 216.187128 128.292917 
L 216.967548 131.624082 
L 217.747968 132.367101 
L 218.528387 133.574511 
L 219.308807 133.467695 
L 220.089226 132.013518 
L 220.869646 133.775036 
L 222.430485 135.816838 
L 223.210905 134.15553 
L 223.991324 133.039205 
L 224.771744 132.365518 
L 225.552163 130.732202 
L 226.332583 130.422276 
L 227.893422 131.352335 
L 228.673842 130.397482 
L 229.454261 132.385544 
L 230.234681 133.44874 
L 231.015101 130.621022 
L 231.79552 129.915593 
L 232.57594 130.780378 
L 233.356359 130.366748 
L 234.136779 133.018114 
L 234.917198 129.699722 
L 235.697618 128.315437 
L 236.478038 131.243071 
L 237.258457 129.040349 
L 238.038877 129.159144 
L 238.819296 131.657577 
L 239.599716 130.8775 
L 240.380135 132.068264 
L 241.940975 129.381879 
L 242.721394 131.489051 
L 243.501814 132.135005 
L 244.282233 129.520044 
L 245.062653 128.526529 
L 245.843073 128.62714 
L 246.623492 129.507322 
L 247.403912 130.753813 
L 248.184331 131.148931 
L 248.964751 130.542598 
L 249.74517 130.694105 
L 250.52559 129.90088 
L 251.30601 130.887488 
L 252.086429 130.639837 
L 252.866849 129.355283 
L 253.647268 130.364738 
L 254.427688 132.129378 
L 255.208108 131.451921 
L 255.988527 133.778023 
L 256.768947 132.793608 
L 257.549366 132.710615 
L 258.329786 130.760632 
L 259.110205 131.242131 
L 259.890625 132.939387 
L 260.671045 133.68315 
L 261.451464 132.669464 
L 263.012303 132.445423 
L 263.792723 132.99424 
L 264.573142 133.06021 
L 265.353562 133.884776 
L 266.133982 132.891875 
L 266.914401 133.233263 
L 267.694821 133.746225 
L 268.47524 133.738837 
L 269.25566 134.525428 
L 270.03608 135.704528 
L 270.816499 132.744017 
L 271.596919 135.219024 
L 272.377338 135.591216 
L 273.157758 136.432579 
L 273.938177 132.965228 
L 274.718597 134.074961 
L 275.499017 133.540772 
L 276.279436 133.421911 
L 277.059856 135.236827 
L 277.840275 134.063046 
L 278.620695 133.228807 
L 279.401115 131.970848 
L 280.181534 134.240862 
L 280.961954 134.068398 
L 281.742373 134.936951 
L 282.522793 132.84045 
L 283.303212 131.756121 
L 284.083632 131.859176 
L 284.864052 132.698611 
L 285.644471 132.988609 
L 286.424891 131.533742 
L 287.20531 131.9431 
L 287.98573 132.900108 
L 288.766149 132.248788 
L 289.546569 134.623461 
L 290.326989 132.871426 
L 291.107408 133.638704 
L 291.887828 133.327539 
L 292.668247 131.803134 
L 293.448667 132.483812 
L 294.229087 131.304209 
L 295.009506 132.833603 
L 295.789926 131.565009 
L 296.570345 132.345541 
L 297.350765 132.763423 
L 298.131184 132.03401 
L 298.911604 132.010279 
L 299.692024 131.256279 
L 300.472443 133.787578 
L 301.252863 130.493204 
L 302.033282 130.135762 
L 302.813702 131.669798 
L 303.594122 129.935866 
L 304.374541 131.293905 
L 305.154961 131.094286 
L 306.7158 132.187449 
L 308.276639 131.860606 
L 309.057059 132.639894 
L 309.837478 131.282355 
L 310.617898 129.529896 
L 311.398317 132.111943 
L 312.959156 130.58016 
L 313.739576 130.407129 
L 314.519996 130.956694 
L 315.300415 129.941585 
L 316.080835 129.765758 
L 316.861254 130.065677 
L 317.641674 130.203255 
L 318.422094 129.980455 
L 319.202513 130.627125 
L 319.982933 129.133283 
L 320.763352 129.835422 
L 321.543772 129.533889 
L 322.324191 129.364363 
L 323.104611 130.856948 
L 323.885031 129.246312 
L 324.66545 129.706363 
L 325.44587 130.420866 
L 326.226289 129.545153 
L 327.006709 130.94038 
L 327.787128 129.371043 
L 328.567548 130.738 
L 329.347968 128.822413 
L 330.128387 130.609681 
L 330.908807 130.102713 
L 332.469646 128.586713 
L 333.250066 129.331779 
L 334.810905 130.013815 
L 335.591324 130.004582 
L 336.371744 129.563682 
L 337.152163 128.277651 
L 337.932583 129.132506 
L 338.713003 129.444018 
L 339.493422 130.328218 
L 340.273842 131.421887 
L 341.054261 130.156646 
L 342.615101 128.386728 
L 343.39552 130.002226 
L 344.17594 128.766129 
L 344.956359 129.727915 
L 345.736779 130.295393 
L 347.297618 130.22921 
L 348.078038 129.990359 
L 348.858457 130.146286 
L 349.638877 130.742029 
L 350.419296 130.232945 
L 351.199716 130.335787 
L 351.980135 130.008628 
L 352.760555 129.832388 
L 353.540975 129.938118 
L 354.321394 130.276968 
L 355.101814 129.159825 
L 355.882233 128.427935 
L 356.662653 128.815487 
L 357.443073 128.502613 
L 358.223492 130.018413 
L 359.003912 128.712991 
L 359.784331 129.533333 
L 360.564751 129.687427 
L 361.34517 128.563167 
L 362.12559 128.720108 
L 362.90601 129.560897 
L 363.686429 129.261363 
L 364.466849 129.333281 
L 365.247268 130.124582 
L 366.027688 128.725848 
L 367.588527 128.192742 
L 369.149366 128.481323 
L 369.929786 129.22743 
L 370.710205 129.363656 
L 371.490625 129.292759 
L 372.271045 128.9788 
L 373.831884 128.90032 
L 374.612303 130.108556 
L 375.392723 129.085007 
L 376.953562 128.25835 
L 377.733982 128.582519 
L 378.514401 128.639878 
L 379.294821 127.829148 
L 380.85566 127.621747 
L 381.63608 129.027438 
L 382.416499 128.3083 
L 383.196919 129.060965 
L 383.977338 128.862738 
L 384.757758 128.027623 
L 385.538177 127.590238 
L 386.318597 127.417529 
L 387.099017 128.046032 
L 387.879436 127.509991 
L 388.659856 127.816074 
L 389.440275 127.724732 
L 390.220695 128.205471 
L 391.001115 127.909681 
L 391.781534 128.495895 
L 392.561954 127.306562 
L 393.342373 127.660654 
L 394.122793 127.074124 
L 394.903212 127.464054 
L 395.683632 127.567987 
L 396.464052 127.49324 
L 398.024891 128.934154 
L 398.80531 128.287035 
L 399.58573 127.494717 
L 400.366149 127.974081 
L 401.146569 127.963539 
L 401.926989 127.433418 
L 402.707408 128.445598 
L 403.487828 128.005912 
L 405.048667 127.934451 
L 405.829087 127.502908 
L 406.609506 128.276474 
L 407.389926 127.592299 
L 408.170345 127.820724 
L 408.950765 126.41959 
L 409.731184 127.184355 
L 410.511604 128.350894 
L 412.072443 126.478268 
L 412.852863 127.287549 
L 414.413702 127.097101 
L 415.194122 127.943905 
L 415.974541 127.522738 
L 416.754961 127.369173 
L 417.53538 128.15539 
L 418.3158 127.606288 
L 419.096219 128.470277 
L 419.876639 127.53738 
L 420.657059 128.0492 
L 421.437478 127.705244 
L 422.998317 128.758381 
L 423.778737 128.176185 
L 424.559156 128.949204 
L 425.339576 127.88594 
L 426.119996 128.758213 
L 427.680835 127.763718 
L 428.461254 128.040503 
L 429.241674 127.818379 
L 430.022094 128.539413 
L 430.802513 127.909191 
L 431.582933 127.620119 
L 432.363352 128.215233 
L 433.143772 127.871823 
L 433.924191 128.730731 
L 434.704611 127.830667 
L 435.485031 127.973207 
L 436.26545 128.302131 
L 437.04587 128.874641 
L 437.826289 128.730779 
L 438.606709 127.936563 
L 439.387128 128.147492 
L 441.728387 126.865166 
L 442.508807 126.205635 
L 443.289226 127.195389 
L 444.069646 127.405704 
L 444.850066 125.752486 
L 445.630485 127.181242 
L 446.410905 127.621653 
L 447.191324 128.285453 
L 448.752163 127.952824 
L 449.532583 127.320872 
L 450.313003 128.138393 
L 451.093422 127.595705 
L 451.873842 127.777125 
L 452.654261 127.076334 
L 453.434681 128.23788 
L 454.215101 127.355098 
L 454.99552 127.310545 
L 455.77594 127.383422 
L 456.556359 128.051083 
L 457.336779 127.910596 
L 458.117198 127.191374 
L 458.897618 127.862572 
L 459.678038 127.925051 
L 460.458457 128.140637 
L 461.238877 126.966591 
L 462.019296 127.601789 
L 462.799716 127.303259 
L 463.580135 128.020273 
L 464.360555 127.395705 
L 465.921394 127.549729 
L 466.701814 127.240643 
L 467.482233 127.562493 
L 468.262653 127.469046 
L 469.043073 127.017582 
L 469.823492 126.329977 
L 470.603912 123.594003 
L 471.384331 125.641018 
L 472.164751 126.194417 
L 472.94517 127.565289 
L 473.72559 125.926257 
L 474.50601 126.83942 
L 476.066849 127.662776 
L 476.847268 127.0441 
L 477.627688 127.646191 
L 478.408108 126.217146 
L 479.188527 127.246878 
L 479.968947 126.968989 
L 480.749366 127.389283 
L 481.529786 127.366595 
L 482.310205 126.909622 
L 483.090625 126.920462 
L 483.871045 127.869458 
L 484.651464 127.673739 
L 485.431884 128.140586 
L 486.212303 128.296592 
L 486.992723 127.668539 
L 487.773142 127.522494 
L 488.553562 127.864583 
L 489.333982 128.588431 
L 490.114401 128.132745 
L 490.894821 128.535777 
L 491.67524 127.35185 
L 492.45566 126.453202 
L 494.016499 127.878267 
L 494.796919 127.473338 
L 496.357758 127.994517 
L 497.138177 127.785176 
L 497.918597 127.876873 
L 498.699017 128.483396 
L 499.479436 128.793588 
L 500.259856 128.220969 
L 501.040275 127.947937 
L 501.820695 128.312831 
L 502.601115 128.854793 
L 503.381534 128.997201 
L 504.161954 129.420327 
L 504.942373 127.991662 
L 505.722793 128.745344 
L 506.503212 128.776292 
L 507.283632 128.306823 
L 509.624891 127.365727 
L 510.40531 128.478041 
L 511.18573 127.867424 
L 511.966149 128.945239 
L 512.746569 127.881041 
L 513.526989 127.1771 
L 514.307408 128.168141 
L 515.087828 126.793318 
L 515.868247 127.978285 
L 516.648667 128.793073 
L 517.429087 128.765525 
L 518.209506 127.131237 
L 518.989926 128.101187 
L 520.550765 127.293432 
L 521.331184 127.158085 
L 522.111604 128.714304 
L 522.892024 128.370978 
L 523.672443 128.486902 
L 524.452863 128.947382 
L 525.233282 128.838007 
L 526.013702 128.260208 
L 526.794122 127.950895 
L 527.574541 126.283135 
L 528.354961 128.140022 
L 529.9158 126.207577 
L 530.696219 127.539877 
L 531.476639 127.357292 
L 533.037478 126.763006 
L 533.817898 127.259967 
L 534.598317 126.996985 
L 535.378737 126.529472 
L 536.939576 127.412347 
L 537.719996 127.049697 
L 538.500415 126.292813 
L 539.280835 126.895689 
L 540.061254 126.452249 
L 540.841674 126.552457 
L 541.622094 125.732269 
L 542.402513 127.180789 
L 543.182933 126.470533 
L 543.963352 128.10307 
L 544.743772 127.623482 
L 545.524191 126.756451 
L 546.304611 126.674386 
L 547.085031 126.430197 
L 547.86545 126.382953 
L 548.64587 126.125891 
L 549.426289 126.832502 
L 550.206709 126.755911 
L 550.987128 127.53797 
L 551.767548 126.623237 
L 552.547968 127.500371 
L 553.328387 127.788318 
L 554.108807 127.217003 
L 554.889226 125.721419 
L 555.669646 127.374596 
L 556.450066 126.931644 
L 557.230485 126.74159 
L 558.010905 127.096731 
L 558.791324 126.733166 
L 559.571744 126.862768 
L 560.352163 127.330305 
L 561.132583 126.593448 
L 561.913003 127.082128 
L 562.693422 126.241215 
L 563.473842 126.633846 
L 564.254261 126.147503 
L 565.034681 126.651037 
L 565.815101 127.735513 
L 567.37594 127.235319 
L 568.156359 126.961516 
L 568.936779 127.437199 
L 569.717198 127.198821 
L 570.497618 128.460895 
L 572.058457 127.468841 
L 573.619296 126.841378 
L 574.399716 128.237104 
L 575.180135 128.194875 
L 575.960555 127.590703 
L 576.740975 128.171441 
L 577.521394 128.288059 
L 578.301814 127.73191 
L 579.082233 125.465954 
L 579.862653 127.135651 
L 580.643073 127.340297 
L 581.423492 127.065755 
L 583.764751 126.838191 
L 584.54517 127.52029 
L 585.32559 127.098561 
L 586.10601 126.969432 
L 586.886429 126.098803 
L 587.666849 126.906418 
L 588.447268 127.215905 
L 589.227688 127.302956 
L 590.008108 127.894747 
L 590.788527 127.955347 
L 591.568947 127.820972 
L 593.129786 127.888876 
L 593.910205 128.066486 
L 594.690625 128.803499 
L 595.471045 128.845657 
L 596.251464 127.944364 
L 597.031884 127.772268 
L 597.812303 127.404629 
L 598.592723 128.84971 
L 599.373142 128.150776 
L 600.933982 128.344491 
L 601.714401 128.322087 
L 602.494821 128.418924 
L 603.27524 129.027839 
L 604.05566 127.744921 
L 604.83608 128.373087 
L 605.616499 128.703798 
L 606.396919 128.760818 
L 607.177338 128.525646 
L 607.957758 127.503979 
L 608.738177 128.062294 
L 610.299017 128.643735 
L 612.640275 128.131017 
L 613.420695 128.268253 
L 614.201115 128.735457 
L 614.981534 128.723364 
L 615.761954 128.321858 
L 616.542373 128.121742 
L 617.322793 128.456856 
L 618.883632 127.55073 
L 619.664052 128.638946 
L 620.444471 127.979961 
L 621.224891 127.939318 
L 622.00531 128.899886 
L 624.346569 128.486266 
L 625.126989 128.134005 
L 625.126989 128.134005 
" clip-path="url(#p102b3dae69)" style="fill: none; stroke: #1f77b4; stroke-width: 1.5; stroke-linecap: square"/>
   </g>
   <g id="line2d_13">
    <path d="M 117.854261 272.296377 
L 118.634681 296.03625 
L 119.415101 264.026086 
L 120.19552 207.799987 
L 120.97594 243.066594 
L 121.756359 193.629605 
L 122.536779 187.417065 
L 123.317198 175.612571 
L 124.097618 188.708502 
L 124.878038 182.468813 
L 125.658457 171.245586 
L 126.438877 163.200798 
L 127.219296 165.079255 
L 127.999716 164.641227 
L 128.780135 164.583714 
L 129.560555 170.878139 
L 130.340975 192.699071 
L 131.121394 175.336276 
L 131.901814 168.049861 
L 132.682233 151.28019 
L 133.462653 159.248282 
L 134.243073 146.28808 
L 135.023492 140.901759 
L 135.803912 145.551194 
L 136.584331 142.666678 
L 137.364751 143.648375 
L 138.14517 145.606527 
L 138.92559 140.852092 
L 139.70601 145.328446 
L 140.486429 143.822301 
L 141.266849 139.007021 
L 142.047268 137.082641 
L 142.827688 136.292485 
L 143.608108 134.505795 
L 144.388527 136.254305 
L 145.168947 137.319965 
L 145.949366 137.857859 
L 146.729786 137.248942 
L 147.510205 137.370009 
L 148.290625 140.140774 
L 149.071045 136.559143 
L 149.851464 136.20536 
L 150.631884 136.796645 
L 151.412303 135.641941 
L 152.192723 138.298132 
L 152.973142 136.548575 
L 153.753562 138.086089 
L 154.533982 137.093049 
L 155.314401 139.686466 
L 156.094821 134.660049 
L 156.87524 136.760201 
L 157.65566 136.928963 
L 158.43608 137.545384 
L 159.996919 135.145935 
L 161.557758 138.556555 
L 162.338177 138.551237 
L 163.118597 137.30024 
L 163.899017 134.618055 
L 164.679436 136.359067 
L 165.459856 135.329998 
L 167.020695 134.580303 
L 167.801115 133.586949 
L 168.581534 134.311701 
L 169.361954 134.512647 
L 170.142373 134.178027 
L 170.922793 133.276789 
L 171.703212 134.796104 
L 172.483632 135.5698 
L 173.264052 133.398496 
L 174.044471 134.94464 
L 174.824891 135.594839 
L 175.60531 136.023794 
L 176.38573 134.271671 
L 177.166149 133.52041 
L 177.946569 134.134421 
L 178.726989 134.354601 
L 179.507408 134.101571 
L 180.287828 134.851017 
L 181.068247 135.281328 
L 181.848667 134.599304 
L 182.629087 133.753552 
L 183.409506 134.350299 
L 184.189926 134.197715 
L 184.970345 135.957243 
L 185.750765 133.746004 
L 186.531184 134.598264 
L 187.311604 133.655918 
L 188.092024 134.480093 
L 188.872443 134.348458 
L 189.652863 134.696788 
L 190.433282 133.512672 
L 191.213702 135.221075 
L 191.994122 133.730723 
L 192.774541 134.529465 
L 193.554961 132.370661 
L 195.1158 134.572126 
L 195.896219 134.072371 
L 196.676639 134.627531 
L 197.457059 133.686821 
L 198.237478 135.793761 
L 199.017898 136.798164 
L 199.798317 135.970146 
L 200.578737 136.020147 
L 202.139576 133.937679 
L 202.919996 133.883375 
L 203.700415 135.783679 
L 204.480835 134.246771 
L 205.261254 134.67069 
L 206.041674 133.787839 
L 206.822094 133.98603 
L 207.602513 133.749291 
L 208.382933 134.937766 
L 209.163352 133.590693 
L 209.943772 133.948955 
L 211.504611 135.163464 
L 212.285031 135.250225 
L 213.06545 133.417657 
L 213.84587 134.83951 
L 214.626289 134.042226 
L 215.406709 133.857755 
L 216.187128 132.744474 
L 216.967548 133.127158 
L 217.747968 133.733979 
L 219.308807 132.540356 
L 220.089226 132.381644 
L 220.869646 133.468012 
L 221.650066 132.89523 
L 222.430485 133.132457 
L 223.210905 133.054752 
L 223.991324 134.444325 
L 224.771744 134.492291 
L 225.552163 132.703812 
L 226.332583 132.803628 
L 227.113003 132.034225 
L 227.893422 131.855089 
L 228.673842 132.523579 
L 229.454261 133.899917 
L 230.234681 133.3576 
L 231.015101 133.204065 
L 231.79552 132.664753 
L 232.57594 133.850222 
L 233.356359 132.380251 
L 234.136779 134.508646 
L 234.917198 132.891838 
L 235.697618 132.60006 
L 237.258457 133.371722 
L 238.819296 133.289836 
L 239.599716 133.233779 
L 240.380135 132.59753 
L 241.160555 133.140671 
L 241.940975 133.469409 
L 242.721394 135.298431 
L 243.501814 133.081593 
L 244.282233 133.76687 
L 245.062653 133.628306 
L 245.843073 134.142602 
L 247.403912 133.234211 
L 248.184331 133.387198 
L 248.964751 132.977919 
L 249.74517 133.963267 
L 250.52559 133.314476 
L 251.30601 132.411628 
L 252.086429 133.066124 
L 252.866849 134.496277 
L 253.647268 133.755932 
L 254.427688 135.162542 
L 255.208108 133.581566 
L 255.988527 133.305612 
L 256.768947 133.524542 
L 258.329786 133.266223 
L 259.110205 134.589685 
L 259.890625 133.405029 
L 261.451464 134.669077 
L 262.231884 133.501361 
L 263.012303 134.54872 
L 263.792723 134.330751 
L 264.573142 133.594184 
L 265.353562 133.685259 
L 266.133982 133.132268 
L 267.694821 134.556337 
L 268.47524 134.747522 
L 269.25566 133.734818 
L 270.03608 134.057103 
L 270.816499 133.400449 
L 272.377338 135.078663 
L 273.157758 134.763415 
L 273.938177 132.670398 
L 274.718597 133.845273 
L 275.499017 134.183134 
L 276.279436 135.394309 
L 277.059856 134.32218 
L 277.840275 135.40424 
L 278.620695 135.965906 
L 279.401115 134.883353 
L 280.181534 135.13337 
L 280.961954 133.912702 
L 281.742373 134.390122 
L 282.522793 133.280426 
L 283.303212 133.387114 
L 284.864052 133.884612 
L 285.644471 134.965188 
L 286.424891 135.665181 
L 287.20531 133.526647 
L 287.98573 134.958716 
L 288.766149 134.407457 
L 289.546569 133.612359 
L 290.326989 132.453903 
L 291.107408 132.901754 
L 291.887828 134.501656 
L 292.668247 132.691125 
L 293.448667 132.707572 
L 294.229087 133.549338 
L 295.009506 133.084856 
L 295.789926 134.094326 
L 296.570345 134.739972 
L 297.350765 133.289971 
L 298.131184 133.717798 
L 298.911604 134.941621 
L 299.692024 133.779234 
L 300.472443 134.403515 
L 301.252863 132.779398 
L 302.033282 134.351158 
L 302.813702 134.337696 
L 303.594122 134.155492 
L 304.374541 132.525546 
L 305.154961 133.086877 
L 305.93538 131.931183 
L 306.7158 134.582029 
L 307.496219 134.47649 
L 309.057059 133.679502 
L 309.837478 133.335482 
L 311.398317 133.982783 
L 312.178737 133.474433 
L 312.959156 133.545177 
L 313.739576 134.065804 
L 314.519996 133.091783 
L 315.300415 133.394984 
L 316.080835 133.362916 
L 316.861254 133.734817 
L 318.422094 133.935786 
L 319.202513 134.215488 
L 319.982933 133.965623 
L 320.763352 135.494185 
L 322.324191 133.550128 
L 323.104611 133.11194 
L 323.885031 132.238664 
L 324.66545 132.453043 
L 325.44587 130.810441 
L 327.006709 134.124518 
L 327.787128 135.103878 
L 328.567548 133.781092 
L 329.347968 133.99295 
L 330.128387 132.891941 
L 330.908807 133.912624 
L 331.689226 133.264993 
L 332.469646 132.399447 
L 333.250066 131.713326 
L 334.030485 132.090483 
L 334.810905 132.856766 
L 335.591324 133.123812 
L 336.371744 133.135695 
L 337.152163 132.27877 
L 337.932583 132.610056 
L 338.713003 134.40004 
L 339.493422 133.040585 
L 340.273842 133.285989 
L 341.054261 133.033763 
L 341.834681 134.071489 
L 342.615101 133.40679 
L 344.17594 133.948797 
L 344.956359 133.393113 
L 345.736779 134.972785 
L 346.517198 133.784309 
L 347.297618 134.35198 
L 348.078038 133.539669 
L 348.858457 133.178662 
L 349.638877 134.394646 
L 350.419296 132.953353 
L 351.199716 132.700312 
L 351.980135 133.263802 
L 352.760555 133.674356 
L 353.540975 132.279369 
L 354.321394 132.540283 
L 355.101814 132.63201 
L 355.882233 132.106652 
L 357.443073 131.875436 
L 358.223492 132.101985 
L 359.003912 131.632349 
L 359.784331 132.243352 
L 360.564751 131.312647 
L 361.34517 132.518016 
L 362.12559 132.074249 
L 362.90601 133.525432 
L 363.686429 132.311771 
L 364.466849 131.365266 
L 365.247268 132.376833 
L 366.027688 132.470925 
L 367.588527 131.396327 
L 368.368947 131.54476 
L 369.149366 132.302675 
L 369.929786 131.590595 
L 370.710205 132.470348 
L 371.490625 132.412599 
L 372.271045 131.673215 
L 373.831884 133.198533 
L 374.612303 133.673751 
L 375.392723 132.436078 
L 376.173142 131.4986 
L 376.953562 132.618971 
L 377.733982 132.490221 
L 378.514401 132.556169 
L 379.294821 131.788266 
L 380.07524 131.942189 
L 380.85566 131.903216 
L 381.63608 132.539686 
L 382.416499 130.569412 
L 383.196919 131.466622 
L 383.977338 132.033561 
L 384.757758 131.906376 
L 385.538177 130.992269 
L 386.318597 131.851759 
L 387.099017 132.544933 
L 387.879436 132.199204 
L 388.659856 132.783126 
L 389.440275 132.067351 
L 390.220695 132.47541 
L 391.001115 132.238959 
L 391.781534 132.671792 
L 392.561954 132.285419 
L 393.342373 132.183509 
L 394.122793 131.733499 
L 395.683632 132.243679 
L 396.464052 132.787757 
L 398.80531 132.398486 
L 400.366149 132.428882 
L 401.146569 131.97184 
L 401.926989 132.431972 
L 402.707408 133.559509 
L 403.487828 133.063622 
L 404.268247 133.288699 
L 405.048667 132.205903 
L 405.829087 132.12337 
L 406.609506 131.742718 
L 407.389926 132.882066 
L 409.731184 132.404978 
L 411.292024 132.463904 
L 412.072443 131.924399 
L 412.852863 132.932016 
L 413.633282 132.058467 
L 414.413702 131.58803 
L 415.194122 132.137126 
L 415.974541 131.581192 
L 416.754961 132.375005 
L 417.53538 132.978092 
L 418.3158 133.131272 
L 419.096219 134.108581 
L 419.876639 132.805618 
L 420.657059 132.444667 
L 421.437478 132.462697 
L 422.217898 132.82047 
L 422.998317 132.728157 
L 424.559156 132.097278 
L 425.339576 132.340179 
L 426.119996 132.742722 
L 426.900415 133.609747 
L 427.680835 132.67693 
L 428.461254 132.79041 
L 429.241674 132.485461 
L 430.022094 132.365072 
L 430.802513 133.161963 
L 431.582933 133.657013 
L 432.363352 132.932014 
L 433.143772 133.725188 
L 434.704611 133.602527 
L 435.485031 132.867533 
L 436.26545 132.317633 
L 437.04587 133.242729 
L 437.826289 134.369376 
L 438.606709 133.267726 
L 439.387128 134.488446 
L 440.167548 133.333287 
L 440.947968 133.597625 
L 441.728387 135.119699 
L 442.508807 133.710805 
L 443.289226 134.149777 
L 444.069646 133.742468 
L 444.850066 131.405445 
L 446.410905 134.263899 
L 447.191324 132.946087 
L 447.971744 133.713455 
L 448.752163 133.403473 
L 449.532583 132.451649 
L 450.313003 132.25086 
L 451.093422 132.746294 
L 451.873842 133.543493 
L 452.654261 134.145032 
L 453.434681 133.773815 
L 454.215101 132.745112 
L 454.99552 133.204419 
L 455.77594 132.526789 
L 457.336779 132.501007 
L 458.117198 132.877976 
L 458.897618 132.827072 
L 459.678038 133.125438 
L 460.458457 133.077798 
L 462.019296 132.281847 
L 462.799716 132.139013 
L 463.580135 133.059999 
L 464.360555 132.847204 
L 465.140975 133.215277 
L 465.921394 133.038088 
L 466.701814 133.341311 
L 467.482233 133.198229 
L 468.262653 132.869768 
L 469.043073 131.541686 
L 469.823492 130.601714 
L 470.603912 130.221287 
L 471.384331 132.44365 
L 472.164751 132.860736 
L 472.94517 132.116999 
L 473.72559 132.416893 
L 474.50601 132.019425 
L 475.286429 132.093121 
L 476.066849 131.574188 
L 476.847268 131.30707 
L 477.627688 131.666799 
L 478.408108 131.029464 
L 479.188527 133.131409 
L 479.968947 132.308717 
L 481.529786 130.991933 
L 482.310205 131.632793 
L 483.871045 132.233251 
L 484.651464 131.305001 
L 485.431884 130.814976 
L 486.212303 131.642424 
L 486.992723 132.145508 
L 487.773142 131.893631 
L 488.553562 131.26196 
L 489.333982 131.298169 
L 490.114401 132.251309 
L 490.894821 131.744891 
L 491.67524 131.722877 
L 492.45566 131.213984 
L 493.23608 133.009789 
L 494.016499 132.112158 
L 495.577338 132.428836 
L 496.357758 132.054355 
L 497.918597 133.03029 
L 498.699017 132.790353 
L 499.479436 133.726846 
L 500.259856 131.680295 
L 501.040275 132.280318 
L 501.820695 133.309699 
L 502.601115 132.588921 
L 503.381534 132.646088 
L 504.161954 132.094469 
L 504.942373 132.633491 
L 505.722793 132.299455 
L 506.503212 132.719236 
L 507.283632 132.658564 
L 508.064052 130.7238 
L 508.844471 132.541882 
L 509.624891 131.890837 
L 510.40531 132.252463 
L 511.18573 132.059202 
L 512.746569 131.33064 
L 513.526989 131.620803 
L 514.307408 132.843674 
L 515.087828 132.807016 
L 515.868247 132.123512 
L 516.648667 132.344499 
L 517.429087 132.697557 
L 518.209506 132.59924 
L 518.989926 131.928732 
L 519.770345 132.041675 
L 520.550765 132.651605 
L 521.331184 132.183978 
L 522.892024 133.385368 
L 524.452863 133.234771 
L 526.013702 133.314622 
L 526.794122 133.123202 
L 527.574541 130.267198 
L 528.354961 131.961519 
L 529.13538 132.457787 
L 529.9158 131.922502 
L 530.696219 132.137043 
L 531.476639 131.904927 
L 532.257059 132.655 
L 533.037478 132.616746 
L 533.817898 131.219268 
L 534.598317 130.828335 
L 535.378737 131.633501 
L 536.159156 131.692301 
L 536.939576 133.00353 
L 537.719996 131.70666 
L 538.500415 132.741796 
L 539.280835 131.429345 
L 540.841674 131.603527 
L 541.622094 132.149271 
L 542.402513 131.578289 
L 543.182933 131.710636 
L 543.963352 133.077386 
L 544.743772 133.171804 
L 545.524191 131.927192 
L 546.304611 131.326142 
L 547.085031 131.693857 
L 547.86545 131.160785 
L 548.64587 132.014318 
L 550.206709 131.679714 
L 550.987128 131.938007 
L 551.767548 131.955963 
L 552.547968 132.66614 
L 553.328387 132.074235 
L 554.889226 131.45893 
L 555.669646 131.684332 
L 556.450066 132.235263 
L 557.230485 131.630971 
L 558.010905 132.221324 
L 558.791324 132.119814 
L 559.571744 132.407691 
L 560.352163 132.042115 
L 561.132583 131.368889 
L 561.913003 132.476174 
L 562.693422 132.517321 
L 563.473842 131.085981 
L 564.254261 131.956984 
L 565.034681 131.732544 
L 565.815101 132.372228 
L 566.59552 131.597795 
L 567.37594 131.822922 
L 568.156359 130.872069 
L 568.936779 132.252918 
L 569.717198 131.896233 
L 570.497618 132.798829 
L 572.058457 131.423575 
L 572.838877 132.113453 
L 573.619296 131.16003 
L 574.399716 132.417548 
L 575.180135 132.480037 
L 575.960555 131.610612 
L 576.740975 131.893874 
L 577.521394 131.121883 
L 579.082233 129.977019 
L 579.862653 131.37025 
L 580.643073 130.291315 
L 581.423492 131.423547 
L 582.203912 130.796264 
L 582.984331 131.738487 
L 583.764751 131.537825 
L 584.54517 130.668533 
L 585.32559 131.041875 
L 586.10601 130.949823 
L 586.886429 131.078029 
L 587.666849 131.601004 
L 588.447268 131.066591 
L 589.227688 130.974 
L 590.008108 130.53843 
L 590.788527 131.155066 
L 591.568947 131.48501 
L 592.349366 131.632228 
L 593.910205 130.628291 
L 594.690625 132.335118 
L 595.471045 131.484981 
L 596.251464 131.950548 
L 597.031884 131.455994 
L 597.812303 131.328138 
L 599.373142 130.68959 
L 600.153562 131.92097 
L 600.933982 131.415325 
L 601.714401 131.543803 
L 602.494821 131.519969 
L 603.27524 131.803965 
L 604.05566 131.677254 
L 604.83608 131.359358 
L 605.616499 131.90808 
L 606.396919 131.520382 
L 607.177338 131.787374 
L 607.957758 131.411736 
L 608.738177 131.404292 
L 609.518597 132.255072 
L 610.299017 131.798463 
L 611.079436 130.909378 
L 611.859856 131.273687 
L 612.640275 131.908029 
L 613.420695 131.302501 
L 614.201115 131.099072 
L 614.981534 131.333146 
L 615.761954 131.356257 
L 616.542373 130.961632 
L 617.322793 131.366747 
L 618.103212 130.951825 
L 618.883632 131.143372 
L 619.664052 131.212655 
L 620.444471 131.168558 
L 621.224891 130.967352 
L 622.00531 131.518516 
L 623.566149 131.433964 
L 624.346569 131.759866 
L 625.126989 131.57114 
L 625.126989 131.57114 
" clip-path="url(#p102b3dae69)" style="fill: none; stroke: #ff7f0e; stroke-width: 1.5; stroke-linecap: square"/>
   </g>
   <g id="patch_3">
    <path d="M 92.490625 308.63625 
L 92.490625 31.43625 
" style="fill: none; stroke: #000000; stroke-width: 0.8; stroke-linejoin: miter; stroke-linecap: square"/>
   </g>
   <g id="patch_4">
    <path d="M 650.490625 308.63625 
L 650.490625 31.43625 
" style="fill: none; stroke: #000000; stroke-width: 0.8; stroke-linejoin: miter; stroke-linecap: square"/>
   </g>
   <g id="patch_5">
    <path d="M 92.490625 308.63625 
L 650.490625 308.63625 
" style="fill: none; stroke: #000000; stroke-width: 0.8; stroke-linejoin: miter; stroke-linecap: square"/>
   </g>
   <g id="patch_6">
    <path d="M 92.490625 31.43625 
L 650.490625 31.43625 
" style="fill: none; stroke: #000000; stroke-width: 0.8; stroke-linejoin: miter; stroke-linecap: square"/>
   </g>
   <g id="text_14">
    <!-- Generator and Discriminator Loss During Training -->
    <g transform="translate(74.258125 25.43625) scale(0.24 -0.24)">
     <defs>
      <path id="DejaVuSans-47" d="M 3809 666 
L 3809 1919 
L 2778 1919 
L 2778 2438 
L 4434 2438 
L 4434 434 
Q 4069 175 3628 42 
Q 3188 -91 2688 -91 
Q 1594 -91 976 548 
Q 359 1188 359 2328 
Q 359 3472 976 4111 
Q 1594 4750 2688 4750 
Q 3144 4750 3555 4637 
Q 3966 4525 4313 4306 
L 4313 3634 
Q 3963 3931 3569 4081 
Q 3175 4231 2741 4231 
Q 1884 4231 1454 3753 
Q 1025 3275 1025 2328 
Q 1025 1384 1454 906 
Q 1884 428 2741 428 
Q 3075 428 3337 486 
Q 3600 544 3809 666 
z
" transform="scale(0.015625)"/>
      <path id="DejaVuSans-20" transform="scale(0.015625)"/>
      <path id="DejaVuSans-64" d="M 2906 2969 
L 2906 4863 
L 3481 4863 
L 3481 0 
L 2906 0 
L 2906 525 
Q 2725 213 2448 61 
Q 2172 -91 1784 -91 
Q 1150 -91 751 415 
Q 353 922 353 1747 
Q 353 2572 751 3078 
Q 1150 3584 1784 3584 
Q 2172 3584 2448 3432 
Q 2725 3281 2906 2969 
z
M 947 1747 
Q 947 1113 1208 752 
Q 1469 391 1925 391 
Q 2381 391 2643 752 
Q 2906 1113 2906 1747 
Q 2906 2381 2643 2742 
Q 2381 3103 1925 3103 
Q 1469 3103 1208 2742 
Q 947 2381 947 1747 
z
" transform="scale(0.015625)"/>
      <path id="DejaVuSans-44" d="M 1259 4147 
L 1259 519 
L 2022 519 
Q 2988 519 3436 956 
Q 3884 1394 3884 2338 
Q 3884 3275 3436 3711 
Q 2988 4147 2022 4147 
L 1259 4147 
z
M 628 4666 
L 1925 4666 
Q 3281 4666 3915 4102 
Q 4550 3538 4550 2338 
Q 4550 1131 3912 565 
Q 3275 0 1925 0 
L 628 0 
L 628 4666 
z
" transform="scale(0.015625)"/>
      <path id="DejaVuSans-63" d="M 3122 3366 
L 3122 2828 
Q 2878 2963 2633 3030 
Q 2388 3097 2138 3097 
Q 1578 3097 1268 2742 
Q 959 2388 959 1747 
Q 959 1106 1268 751 
Q 1578 397 2138 397 
Q 2388 397 2633 464 
Q 2878 531 3122 666 
L 3122 134 
Q 2881 22 2623 -34 
Q 2366 -91 2075 -91 
Q 1284 -91 818 406 
Q 353 903 353 1747 
Q 353 2603 823 3093 
Q 1294 3584 2113 3584 
Q 2378 3584 2631 3529 
Q 2884 3475 3122 3366 
z
" transform="scale(0.015625)"/>
      <path id="DejaVuSans-6d" d="M 3328 2828 
Q 3544 3216 3844 3400 
Q 4144 3584 4550 3584 
Q 5097 3584 5394 3201 
Q 5691 2819 5691 2113 
L 5691 0 
L 5113 0 
L 5113 2094 
Q 5113 2597 4934 2840 
Q 4756 3084 4391 3084 
Q 3944 3084 3684 2787 
Q 3425 2491 3425 1978 
L 3425 0 
L 2847 0 
L 2847 2094 
Q 2847 2600 2669 2842 
Q 2491 3084 2119 3084 
Q 1678 3084 1418 2786 
Q 1159 2488 1159 1978 
L 1159 0 
L 581 0 
L 581 3500 
L 1159 3500 
L 1159 2956 
Q 1356 3278 1631 3431 
Q 1906 3584 2284 3584 
Q 2666 3584 2933 3390 
Q 3200 3197 3328 2828 
z
" transform="scale(0.015625)"/>
      <path id="DejaVuSans-75" d="M 544 1381 
L 544 3500 
L 1119 3500 
L 1119 1403 
Q 1119 906 1312 657 
Q 1506 409 1894 409 
Q 2359 409 2629 706 
Q 2900 1003 2900 1516 
L 2900 3500 
L 3475 3500 
L 3475 0 
L 2900 0 
L 2900 538 
Q 2691 219 2414 64 
Q 2138 -91 1772 -91 
Q 1169 -91 856 284 
Q 544 659 544 1381 
z
M 1991 3584 
L 1991 3584 
z
" transform="scale(0.015625)"/>
      <path id="DejaVuSans-67" d="M 2906 1791 
Q 2906 2416 2648 2759 
Q 2391 3103 1925 3103 
Q 1463 3103 1205 2759 
Q 947 2416 947 1791 
Q 947 1169 1205 825 
Q 1463 481 1925 481 
Q 2391 481 2648 825 
Q 2906 1169 2906 1791 
z
M 3481 434 
Q 3481 -459 3084 -895 
Q 2688 -1331 1869 -1331 
Q 1566 -1331 1297 -1286 
Q 1028 -1241 775 -1147 
L 775 -588 
Q 1028 -725 1275 -790 
Q 1522 -856 1778 -856 
Q 2344 -856 2625 -561 
Q 2906 -266 2906 331 
L 2906 616 
Q 2728 306 2450 153 
Q 2172 0 1784 0 
Q 1141 0 747 490 
Q 353 981 353 1791 
Q 353 2603 747 3093 
Q 1141 3584 1784 3584 
Q 2172 3584 2450 3431 
Q 2728 3278 2906 2969 
L 2906 3500 
L 3481 3500 
L 3481 434 
z
" transform="scale(0.015625)"/>
      <path id="DejaVuSans-54" d="M -19 4666 
L 3928 4666 
L 3928 4134 
L 2272 4134 
L 2272 0 
L 1638 0 
L 1638 4134 
L -19 4134 
L -19 4666 
z
" transform="scale(0.015625)"/>
     </defs>
     <use xlink:href="#DejaVuSans-47"/>
     <use xlink:href="#DejaVuSans-65" x="77.490234"/>
     <use xlink:href="#DejaVuSans-6e" x="139.013672"/>
     <use xlink:href="#DejaVuSans-65" x="202.392578"/>
     <use xlink:href="#DejaVuSans-72" x="263.916016"/>
     <use xlink:href="#DejaVuSans-61" x="305.029297"/>
     <use xlink:href="#DejaVuSans-74" x="366.308594"/>
     <use xlink:href="#DejaVuSans-6f" x="405.517578"/>
     <use xlink:href="#DejaVuSans-72" x="466.699219"/>
     <use xlink:href="#DejaVuSans-20" x="507.8125"/>
     <use xlink:href="#DejaVuSans-61" x="539.599609"/>
     <use xlink:href="#DejaVuSans-6e" x="600.878906"/>
     <use xlink:href="#DejaVuSans-64" x="664.257812"/>
     <use xlink:href="#DejaVuSans-20" x="727.734375"/>
     <use xlink:href="#DejaVuSans-44" x="759.521484"/>
     <use xlink:href="#DejaVuSans-69" x="836.523438"/>
     <use xlink:href="#DejaVuSans-73" x="864.306641"/>
     <use xlink:href="#DejaVuSans-63" x="916.40625"/>
     <use xlink:href="#DejaVuSans-72" x="971.386719"/>
     <use xlink:href="#DejaVuSans-69" x="1012.5"/>
     <use xlink:href="#DejaVuSans-6d" x="1040.283203"/>
     <use xlink:href="#DejaVuSans-69" x="1137.695312"/>
     <use xlink:href="#DejaVuSans-6e" x="1165.478516"/>
     <use xlink:href="#DejaVuSans-61" x="1228.857422"/>
     <use xlink:href="#DejaVuSans-74" x="1290.136719"/>
     <use xlink:href="#DejaVuSans-6f" x="1329.345703"/>
     <use xlink:href="#DejaVuSans-72" x="1390.527344"/>
     <use xlink:href="#DejaVuSans-20" x="1431.640625"/>
     <use xlink:href="#DejaVuSans-4c" x="1463.427734"/>
     <use xlink:href="#DejaVuSans-6f" x="1517.390625"/>
     <use xlink:href="#DejaVuSans-73" x="1578.572266"/>
     <use xlink:href="#DejaVuSans-73" x="1630.671875"/>
     <use xlink:href="#DejaVuSans-20" x="1682.771484"/>
     <use xlink:href="#DejaVuSans-44" x="1714.558594"/>
     <use xlink:href="#DejaVuSans-75" x="1791.560547"/>
     <use xlink:href="#DejaVuSans-72" x="1854.939453"/>
     <use xlink:href="#DejaVuSans-69" x="1896.052734"/>
     <use xlink:href="#DejaVuSans-6e" x="1923.835938"/>
     <use xlink:href="#DejaVuSans-67" x="1987.214844"/>
     <use xlink:href="#DejaVuSans-20" x="2050.691406"/>
     <use xlink:href="#DejaVuSans-54" x="2082.478516"/>
     <use xlink:href="#DejaVuSans-72" x="2128.8125"/>
     <use xlink:href="#DejaVuSans-61" x="2169.925781"/>
     <use xlink:href="#DejaVuSans-69" x="2231.205078"/>
     <use xlink:href="#DejaVuSans-6e" x="2258.988281"/>
     <use xlink:href="#DejaVuSans-69" x="2322.367188"/>
     <use xlink:href="#DejaVuSans-6e" x="2350.150391"/>
     <use xlink:href="#DejaVuSans-67" x="2413.529297"/>
    </g>
   </g>
   <g id="legend_1">
    <g id="patch_7">
     <path d="M 556.99375 106.14875 
L 636.490625 106.14875 
Q 640.490625 106.14875 640.490625 102.14875 
L 640.490625 45.43625 
Q 640.490625 41.43625 636.490625 41.43625 
L 556.99375 41.43625 
Q 552.99375 41.43625 552.99375 45.43625 
L 552.99375 102.14875 
Q 552.99375 106.14875 556.99375 106.14875 
z
" style="fill: #ffffff; opacity: 0.8; stroke: #cccccc; stroke-linejoin: miter"/>
    </g>
    <g id="line2d_14">
     <path d="M 560.99375 57.633125 
L 580.99375 57.633125 
L 600.99375 57.633125 
" style="fill: none; stroke: #1f77b4; stroke-width: 1.5; stroke-linecap: square"/>
    </g>
    <g id="text_15">
     <!-- G -->
     <g transform="translate(616.99375 64.633125) scale(0.2 -0.2)">
      <use xlink:href="#DejaVuSans-47"/>
     </g>
    </g>
    <g id="line2d_15">
     <path d="M 560.99375 86.989375 
L 580.99375 86.989375 
L 600.99375 86.989375 
" style="fill: none; stroke: #ff7f0e; stroke-width: 1.5; stroke-linecap: square"/>
    </g>
    <g id="text_16">
     <!-- D -->
     <g transform="translate(616.99375 93.989375) scale(0.2 -0.2)">
      <use xlink:href="#DejaVuSans-44"/>
     </g>
    </g>
   </g>
  </g>
 </g>
 <defs>
  <clipPath id="p102b3dae69">
   <rect x="92.490625" y="31.43625" width="558" height="277.2"/>
  </clipPath>
 </defs>
</svg>
