<?xml version="1.0" encoding="utf-8" standalone="no"?>
<!DOCTYPE svg PUBLIC "-//W3C//DTD SVG 1.1//EN"
  "http://www.w3.org/Graphics/SVG/1.1/DTD/svg11.dtd">
<svg xmlns:xlink="http://www.w3.org/1999/xlink" width="675.923125pt" height="365.54875pt" viewBox="0 0 675.923125 365.54875" xmlns="http://www.w3.org/2000/svg" version="1.1">
 <metadata>
  <rdf:RDF xmlns:dc="http://purl.org/dc/elements/1.1/" xmlns:cc="http://creativecommons.org/ns#" xmlns:rdf="http://www.w3.org/1999/02/22-rdf-syntax-ns#">
   <cc:Work>
    <dc:type rdf:resource="http://purl.org/dc/dcmitype/StillImage"/>
    <dc:date>2024-02-07T04:13:47.216626</dc:date>
    <dc:format>image/svg+xml</dc:format>
    <dc:creator>
     <cc:Agent>
      <dc:title>Matplotlib v3.7.2, https://matplotlib.org/</dc:title>
     </cc:Agent>
    </dc:creator>
   </cc:Work>
  </rdf:RDF>
 </metadata>
 <defs>
  <style type="text/css">*{stroke-linejoin: round; stroke-linecap: butt}</style>
 </defs>
 <g id="figure_1">
  <g id="patch_1">
   <path d="M 0 365.54875 
L 675.923125 365.54875 
L 675.923125 -0 
L 0 -0 
z
" style="fill: #ffffff"/>
  </g>
  <g id="axes_1">
   <g id="patch_2">
    <path d="M 92.490625 308.63625 
L 650.490625 308.63625 
L 650.490625 31.43625 
L 92.490625 31.43625 
z
" style="fill: #ffffff"/>
   </g>
   <g id="matplotlib.axis_1">
    <g id="xtick_1">
     <g id="line2d_1">
      <defs>
       <path id="m1632581a86" d="M 0 0 
L 0 3.5 
" style="stroke: #000000; stroke-width: 0.8"/>
      </defs>
      <g>
       <use xlink:href="#m1632581a86" x="117.854261" y="308.63625" style="stroke: #000000; stroke-width: 0.8"/>
      </g>
     </g>
     <g id="text_1">
      <!-- 0 -->
      <g transform="translate(111.491761 330.833125) scale(0.2 -0.2)">
       <defs>
        <path id="DejaVuSans-30" d="M 2034 4250 
Q 1547 4250 1301 3770 
Q 1056 3291 1056 2328 
Q 1056 1369 1301 889 
Q 1547 409 2034 409 
Q 2525 409 2770 889 
Q 3016 1369 3016 2328 
Q 3016 3291 2770 3770 
Q 2525 4250 2034 4250 
z
M 2034 4750 
Q 2819 4750 3233 4129 
Q 3647 3509 3647 2328 
Q 3647 1150 3233 529 
Q 2819 -91 2034 -91 
Q 1250 -91 836 529 
Q 422 1150 422 2328 
Q 422 3509 836 4129 
Q 1250 4750 2034 4750 
z
" transform="scale(0.015625)"/>
       </defs>
       <use xlink:href="#DejaVuSans-30"/>
      </g>
     </g>
    </g>
    <g id="xtick_2">
     <g id="line2d_2">
      <g>
       <use xlink:href="#m1632581a86" x="190.321794" y="308.63625" style="stroke: #000000; stroke-width: 0.8"/>
      </g>
     </g>
     <g id="text_2">
      <!-- 50 -->
      <g transform="translate(177.596794 330.833125) scale(0.2 -0.2)">
       <defs>
        <path id="DejaVuSans-35" d="M 691 4666 
L 3169 4666 
L 3169 4134 
L 1269 4134 
L 1269 2991 
Q 1406 3038 1543 3061 
Q 1681 3084 1819 3084 
Q 2600 3084 3056 2656 
Q 3513 2228 3513 1497 
Q 3513 744 3044 326 
Q 2575 -91 1722 -91 
Q 1428 -91 1123 -41 
Q 819 9 494 109 
L 494 744 
Q 775 591 1075 516 
Q 1375 441 1709 441 
Q 2250 441 2565 725 
Q 2881 1009 2881 1497 
Q 2881 1984 2565 2268 
Q 2250 2553 1709 2553 
Q 1456 2553 1204 2497 
Q 953 2441 691 2322 
L 691 4666 
z
" transform="scale(0.015625)"/>
       </defs>
       <use xlink:href="#DejaVuSans-35"/>
       <use xlink:href="#DejaVuSans-30" x="63.623047"/>
      </g>
     </g>
    </g>
    <g id="xtick_3">
     <g id="line2d_3">
      <g>
       <use xlink:href="#m1632581a86" x="262.789326" y="308.63625" style="stroke: #000000; stroke-width: 0.8"/>
      </g>
     </g>
     <g id="text_3">
      <!-- 100 -->
      <g transform="translate(243.701826 330.833125) scale(0.2 -0.2)">
       <defs>
        <path id="DejaVuSans-31" d="M 794 531 
L 1825 531 
L 1825 4091 
L 703 3866 
L 703 4441 
L 1819 4666 
L 2450 4666 
L 2450 531 
L 3481 531 
L 3481 0 
L 794 0 
L 794 531 
z
" transform="scale(0.015625)"/>
       </defs>
       <use xlink:href="#DejaVuSans-31"/>
       <use xlink:href="#DejaVuSans-30" x="63.623047"/>
       <use xlink:href="#DejaVuSans-30" x="127.246094"/>
      </g>
     </g>
    </g>
    <g id="xtick_4">
     <g id="line2d_4">
      <g>
       <use xlink:href="#m1632581a86" x="335.256859" y="308.63625" style="stroke: #000000; stroke-width: 0.8"/>
      </g>
     </g>
     <g id="text_4">
      <!-- 150 -->
      <g transform="translate(316.169359 330.833125) scale(0.2 -0.2)">
       <use xlink:href="#DejaVuSans-31"/>
       <use xlink:href="#DejaVuSans-35" x="63.623047"/>
       <use xlink:href="#DejaVuSans-30" x="127.246094"/>
      </g>
     </g>
    </g>
    <g id="xtick_5">
     <g id="line2d_5">
      <g>
       <use xlink:href="#m1632581a86" x="407.724391" y="308.63625" style="stroke: #000000; stroke-width: 0.8"/>
      </g>
     </g>
     <g id="text_5">
      <!-- 200 -->
      <g transform="translate(388.636891 330.833125) scale(0.2 -0.2)">
       <defs>
        <path id="DejaVuSans-32" d="M 1228 531 
L 3431 531 
L 3431 0 
L 469 0 
L 469 531 
Q 828 903 1448 1529 
Q 2069 2156 2228 2338 
Q 2531 2678 2651 2914 
Q 2772 3150 2772 3378 
Q 2772 3750 2511 3984 
Q 2250 4219 1831 4219 
Q 1534 4219 1204 4116 
Q 875 4013 500 3803 
L 500 4441 
Q 881 4594 1212 4672 
Q 1544 4750 1819 4750 
Q 2544 4750 2975 4387 
Q 3406 4025 3406 3419 
Q 3406 3131 3298 2873 
Q 3191 2616 2906 2266 
Q 2828 2175 2409 1742 
Q 1991 1309 1228 531 
z
" transform="scale(0.015625)"/>
       </defs>
       <use xlink:href="#DejaVuSans-32"/>
       <use xlink:href="#DejaVuSans-30" x="63.623047"/>
       <use xlink:href="#DejaVuSans-30" x="127.246094"/>
      </g>
     </g>
    </g>
    <g id="xtick_6">
     <g id="line2d_6">
      <g>
       <use xlink:href="#m1632581a86" x="480.191924" y="308.63625" style="stroke: #000000; stroke-width: 0.8"/>
      </g>
     </g>
     <g id="text_6">
      <!-- 250 -->
      <g transform="translate(461.104424 330.833125) scale(0.2 -0.2)">
       <use xlink:href="#DejaVuSans-32"/>
       <use xlink:href="#DejaVuSans-35" x="63.623047"/>
       <use xlink:href="#DejaVuSans-30" x="127.246094"/>
      </g>
     </g>
    </g>
    <g id="xtick_7">
     <g id="line2d_7">
      <g>
       <use xlink:href="#m1632581a86" x="552.659456" y="308.63625" style="stroke: #000000; stroke-width: 0.8"/>
      </g>
     </g>
     <g id="text_7">
      <!-- 300 -->
      <g transform="translate(533.571956 330.833125) scale(0.2 -0.2)">
       <defs>
        <path id="DejaVuSans-33" d="M 2597 2516 
Q 3050 2419 3304 2112 
Q 3559 1806 3559 1356 
Q 3559 666 3084 287 
Q 2609 -91 1734 -91 
Q 1441 -91 1130 -33 
Q 819 25 488 141 
L 488 750 
Q 750 597 1062 519 
Q 1375 441 1716 441 
Q 2309 441 2620 675 
Q 2931 909 2931 1356 
Q 2931 1769 2642 2001 
Q 2353 2234 1838 2234 
L 1294 2234 
L 1294 2753 
L 1863 2753 
Q 2328 2753 2575 2939 
Q 2822 3125 2822 3475 
Q 2822 3834 2567 4026 
Q 2313 4219 1838 4219 
Q 1578 4219 1281 4162 
Q 984 4106 628 3988 
L 628 4550 
Q 988 4650 1302 4700 
Q 1616 4750 1894 4750 
Q 2613 4750 3031 4423 
Q 3450 4097 3450 3541 
Q 3450 3153 3228 2886 
Q 3006 2619 2597 2516 
z
" transform="scale(0.015625)"/>
       </defs>
       <use xlink:href="#DejaVuSans-33"/>
       <use xlink:href="#DejaVuSans-30" x="63.623047"/>
       <use xlink:href="#DejaVuSans-30" x="127.246094"/>
      </g>
     </g>
    </g>
    <g id="xtick_8">
     <g id="line2d_8">
      <g>
       <use xlink:href="#m1632581a86" x="625.126989" y="308.63625" style="stroke: #000000; stroke-width: 0.8"/>
      </g>
     </g>
     <g id="text_8">
      <!-- 350 -->
      <g transform="translate(606.039489 330.833125) scale(0.2 -0.2)">
       <use xlink:href="#DejaVuSans-33"/>
       <use xlink:href="#DejaVuSans-35" x="63.623047"/>
       <use xlink:href="#DejaVuSans-30" x="127.246094"/>
      </g>
     </g>
    </g>
    <g id="text_9">
     <!-- iterations -->
     <g transform="translate(324.035938 354.189375) scale(0.2 -0.2)">
      <defs>
       <path id="DejaVuSans-69" d="M 603 3500 
L 1178 3500 
L 1178 0 
L 603 0 
L 603 3500 
z
M 603 4863 
L 1178 4863 
L 1178 4134 
L 603 4134 
L 603 4863 
z
" transform="scale(0.015625)"/>
       <path id="DejaVuSans-74" d="M 1172 4494 
L 1172 3500 
L 2356 3500 
L 2356 3053 
L 1172 3053 
L 1172 1153 
Q 1172 725 1289 603 
Q 1406 481 1766 481 
L 2356 481 
L 2356 0 
L 1766 0 
Q 1100 0 847 248 
Q 594 497 594 1153 
L 594 3053 
L 172 3053 
L 172 3500 
L 594 3500 
L 594 4494 
L 1172 4494 
z
" transform="scale(0.015625)"/>
       <path id="DejaVuSans-65" d="M 3597 1894 
L 3597 1613 
L 953 1613 
Q 991 1019 1311 708 
Q 1631 397 2203 397 
Q 2534 397 2845 478 
Q 3156 559 3463 722 
L 3463 178 
Q 3153 47 2828 -22 
Q 2503 -91 2169 -91 
Q 1331 -91 842 396 
Q 353 884 353 1716 
Q 353 2575 817 3079 
Q 1281 3584 2069 3584 
Q 2775 3584 3186 3129 
Q 3597 2675 3597 1894 
z
M 3022 2063 
Q 3016 2534 2758 2815 
Q 2500 3097 2075 3097 
Q 1594 3097 1305 2825 
Q 1016 2553 972 2059 
L 3022 2063 
z
" transform="scale(0.015625)"/>
       <path id="DejaVuSans-72" d="M 2631 2963 
Q 2534 3019 2420 3045 
Q 2306 3072 2169 3072 
Q 1681 3072 1420 2755 
Q 1159 2438 1159 1844 
L 1159 0 
L 581 0 
L 581 3500 
L 1159 3500 
L 1159 2956 
Q 1341 3275 1631 3429 
Q 1922 3584 2338 3584 
Q 2397 3584 2469 3576 
Q 2541 3569 2628 3553 
L 2631 2963 
z
" transform="scale(0.015625)"/>
       <path id="DejaVuSans-61" d="M 2194 1759 
Q 1497 1759 1228 1600 
Q 959 1441 959 1056 
Q 959 750 1161 570 
Q 1363 391 1709 391 
Q 2188 391 2477 730 
Q 2766 1069 2766 1631 
L 2766 1759 
L 2194 1759 
z
M 3341 1997 
L 3341 0 
L 2766 0 
L 2766 531 
Q 2569 213 2275 61 
Q 1981 -91 1556 -91 
Q 1019 -91 701 211 
Q 384 513 384 1019 
Q 384 1609 779 1909 
Q 1175 2209 1959 2209 
L 2766 2209 
L 2766 2266 
Q 2766 2663 2505 2880 
Q 2244 3097 1772 3097 
Q 1472 3097 1187 3025 
Q 903 2953 641 2809 
L 641 3341 
Q 956 3463 1253 3523 
Q 1550 3584 1831 3584 
Q 2591 3584 2966 3190 
Q 3341 2797 3341 1997 
z
" transform="scale(0.015625)"/>
       <path id="DejaVuSans-6f" d="M 1959 3097 
Q 1497 3097 1228 2736 
Q 959 2375 959 1747 
Q 959 1119 1226 758 
Q 1494 397 1959 397 
Q 2419 397 2687 759 
Q 2956 1122 2956 1747 
Q 2956 2369 2687 2733 
Q 2419 3097 1959 3097 
z
M 1959 3584 
Q 2709 3584 3137 3096 
Q 3566 2609 3566 1747 
Q 3566 888 3137 398 
Q 2709 -91 1959 -91 
Q 1206 -91 779 398 
Q 353 888 353 1747 
Q 353 2609 779 3096 
Q 1206 3584 1959 3584 
z
" transform="scale(0.015625)"/>
       <path id="DejaVuSans-6e" d="M 3513 2113 
L 3513 0 
L 2938 0 
L 2938 2094 
Q 2938 2591 2744 2837 
Q 2550 3084 2163 3084 
Q 1697 3084 1428 2787 
Q 1159 2491 1159 1978 
L 1159 0 
L 581 0 
L 581 3500 
L 1159 3500 
L 1159 2956 
Q 1366 3272 1645 3428 
Q 1925 3584 2291 3584 
Q 2894 3584 3203 3211 
Q 3513 2838 3513 2113 
z
" transform="scale(0.015625)"/>
       <path id="DejaVuSans-73" d="M 2834 3397 
L 2834 2853 
Q 2591 2978 2328 3040 
Q 2066 3103 1784 3103 
Q 1356 3103 1142 2972 
Q 928 2841 928 2578 
Q 928 2378 1081 2264 
Q 1234 2150 1697 2047 
L 1894 2003 
Q 2506 1872 2764 1633 
Q 3022 1394 3022 966 
Q 3022 478 2636 193 
Q 2250 -91 1575 -91 
Q 1294 -91 989 -36 
Q 684 19 347 128 
L 347 722 
Q 666 556 975 473 
Q 1284 391 1588 391 
Q 1994 391 2212 530 
Q 2431 669 2431 922 
Q 2431 1156 2273 1281 
Q 2116 1406 1581 1522 
L 1381 1569 
Q 847 1681 609 1914 
Q 372 2147 372 2553 
Q 372 3047 722 3315 
Q 1072 3584 1716 3584 
Q 2034 3584 2315 3537 
Q 2597 3491 2834 3397 
z
" transform="scale(0.015625)"/>
      </defs>
      <use xlink:href="#DejaVuSans-69"/>
      <use xlink:href="#DejaVuSans-74" x="27.783203"/>
      <use xlink:href="#DejaVuSans-65" x="66.992188"/>
      <use xlink:href="#DejaVuSans-72" x="128.515625"/>
      <use xlink:href="#DejaVuSans-61" x="169.628906"/>
      <use xlink:href="#DejaVuSans-74" x="230.908203"/>
      <use xlink:href="#DejaVuSans-69" x="270.117188"/>
      <use xlink:href="#DejaVuSans-6f" x="297.900391"/>
      <use xlink:href="#DejaVuSans-6e" x="359.082031"/>
      <use xlink:href="#DejaVuSans-73" x="422.460938"/>
     </g>
    </g>
   </g>
   <g id="matplotlib.axis_2">
    <g id="ytick_1">
     <g id="line2d_9">
      <defs>
       <path id="m1c8863e921" d="M 0 0 
L -3.5 0 
" style="stroke: #000000; stroke-width: 0.8"/>
      </defs>
      <g>
       <use xlink:href="#m1c8863e921" x="92.490625" y="308.301222" style="stroke: #000000; stroke-width: 0.8"/>
      </g>
     </g>
     <g id="text_10">
      <!-- −400 -->
      <g transform="translate(30.55625 315.89966) scale(0.2 -0.2)">
       <defs>
        <path id="DejaVuSans-2212" d="M 678 2272 
L 4684 2272 
L 4684 1741 
L 678 1741 
L 678 2272 
z
" transform="scale(0.015625)"/>
        <path id="DejaVuSans-34" d="M 2419 4116 
L 825 1625 
L 2419 1625 
L 2419 4116 
z
M 2253 4666 
L 3047 4666 
L 3047 1625 
L 3713 1625 
L 3713 1100 
L 3047 1100 
L 3047 0 
L 2419 0 
L 2419 1100 
L 313 1100 
L 313 1709 
L 2253 4666 
z
" transform="scale(0.015625)"/>
       </defs>
       <use xlink:href="#DejaVuSans-2212"/>
       <use xlink:href="#DejaVuSans-34" x="83.789062"/>
       <use xlink:href="#DejaVuSans-30" x="147.412109"/>
       <use xlink:href="#DejaVuSans-30" x="211.035156"/>
      </g>
     </g>
    </g>
    <g id="ytick_2">
     <g id="line2d_10">
      <g>
       <use xlink:href="#m1c8863e921" x="92.490625" y="216.520244" style="stroke: #000000; stroke-width: 0.8"/>
      </g>
     </g>
     <g id="text_11">
      <!-- −200 -->
      <g transform="translate(30.55625 224.118682) scale(0.2 -0.2)">
       <use xlink:href="#DejaVuSans-2212"/>
       <use xlink:href="#DejaVuSans-32" x="83.789062"/>
       <use xlink:href="#DejaVuSans-30" x="147.412109"/>
       <use xlink:href="#DejaVuSans-30" x="211.035156"/>
      </g>
     </g>
    </g>
    <g id="ytick_3">
     <g id="line2d_11">
      <g>
       <use xlink:href="#m1c8863e921" x="92.490625" y="124.739266" style="stroke: #000000; stroke-width: 0.8"/>
      </g>
     </g>
     <g id="text_12">
      <!-- 0 -->
      <g transform="translate(72.765625 132.337703) scale(0.2 -0.2)">
       <use xlink:href="#DejaVuSans-30"/>
      </g>
     </g>
    </g>
    <g id="ytick_4">
     <g id="line2d_12">
      <g>
       <use xlink:href="#m1c8863e921" x="92.490625" y="32.958288" style="stroke: #000000; stroke-width: 0.8"/>
      </g>
     </g>
     <g id="text_13">
      <!-- 200 -->
      <g transform="translate(47.315625 40.556725) scale(0.2 -0.2)">
       <use xlink:href="#DejaVuSans-32"/>
       <use xlink:href="#DejaVuSans-30" x="63.623047"/>
       <use xlink:href="#DejaVuSans-30" x="127.246094"/>
      </g>
     </g>
    </g>
    <g id="text_14">
     <!-- Loss -->
     <g transform="translate(22.396875 191.970625) rotate(-90) scale(0.2 -0.2)">
      <defs>
       <path id="DejaVuSans-4c" d="M 628 4666 
L 1259 4666 
L 1259 531 
L 3531 531 
L 3531 0 
L 628 0 
L 628 4666 
z
" transform="scale(0.015625)"/>
      </defs>
      <use xlink:href="#DejaVuSans-4c"/>
      <use xlink:href="#DejaVuSans-6f" x="53.962891"/>
      <use xlink:href="#DejaVuSans-73" x="115.144531"/>
      <use xlink:href="#DejaVuSans-73" x="167.244141"/>
     </g>
    </g>
   </g>
   <g id="line2d_13">
    <path d="M 117.854261 68.010133 
L 119.303612 44.03625 
L 120.752963 82.894351 
L 122.202313 135.352713 
L 123.651664 149.038488 
L 125.101015 131.291508 
L 126.550365 102.480738 
L 127.999716 114.663802 
L 129.449067 109.036371 
L 130.898417 138.147454 
L 132.347768 138.134175 
L 133.797119 126.305506 
L 135.246469 115.734088 
L 136.69582 94.696244 
L 139.594521 139.285864 
L 141.043872 148.794628 
L 142.493222 153.318112 
L 143.942573 156.877753 
L 145.391924 83.249261 
L 146.841274 75.174256 
L 148.290625 90.472575 
L 149.739976 116.457012 
L 151.189326 96.256189 
L 152.638677 94.259751 
L 154.088028 95.075452 
L 155.537378 105.7445 
L 156.986729 103.501109 
L 158.43608 98.938048 
L 159.88543 98.781496 
L 161.334781 115.658893 
L 162.784131 104.793282 
L 164.233482 107.674873 
L 165.682833 115.096063 
L 167.132183 112.159413 
L 168.581534 107.601371 
L 170.030885 104.28473 
L 171.480235 96.706982 
L 172.929586 93.680446 
L 174.378937 98.193758 
L 175.828287 106.085946 
L 177.277638 105.036287 
L 178.726989 102.32328 
L 180.176339 103.945881 
L 181.62569 99.317411 
L 183.075041 110.564882 
L 184.524391 112.307272 
L 185.973742 111.665537 
L 187.423093 108.167608 
L 188.872443 111.994753 
L 190.321794 117.502876 
L 191.771144 119.774341 
L 193.220495 119.367335 
L 194.669846 113.051816 
L 196.119196 123.794414 
L 197.568547 123.121725 
L 199.017898 116.751972 
L 200.467248 119.486809 
L 201.916599 125.7908 
L 203.36595 120.97786 
L 204.8153 122.459209 
L 206.264651 119.601567 
L 207.714002 123.368147 
L 209.163352 125.26741 
L 210.612703 126.254064 
L 212.062054 125.121491 
L 213.511404 123.83292 
L 214.960755 125.066543 
L 216.410106 124.405088 
L 217.859456 124.342819 
L 219.308807 129.684678 
L 220.758157 126.286198 
L 222.207508 122.440892 
L 223.656859 125.291613 
L 225.106209 126.638633 
L 226.55556 127.489029 
L 228.004911 124.104561 
L 229.454261 127.006761 
L 230.903612 124.634792 
L 232.352963 130.008476 
L 233.802313 132.148012 
L 235.251664 129.332871 
L 236.701015 130.19862 
L 238.150365 128.532356 
L 239.599716 130.615072 
L 241.049067 129.75035 
L 242.498417 131.974644 
L 243.947768 133.042215 
L 245.397119 130.869486 
L 246.846469 131.244071 
L 249.74517 129.485777 
L 251.194521 131.902921 
L 252.643872 130.300497 
L 254.093222 132.787354 
L 255.542573 130.1042 
L 256.991924 132.296661 
L 258.441274 128.828173 
L 259.890625 130.977045 
L 261.339976 133.624985 
L 262.789326 133.67938 
L 264.238677 132.890623 
L 265.688028 131.166154 
L 267.137378 130.029175 
L 268.586729 136.267329 
L 270.03608 133.171776 
L 271.48543 131.366796 
L 272.934781 131.143967 
L 274.384131 134.254403 
L 275.833482 133.153225 
L 277.282833 135.194366 
L 278.732183 132.960254 
L 281.630885 131.082405 
L 283.080235 132.584999 
L 284.529586 133.28086 
L 285.978937 131.34064 
L 287.428287 128.753412 
L 288.877638 129.527871 
L 290.326989 133.657564 
L 291.776339 133.308306 
L 293.22569 134.759946 
L 296.124391 132.202234 
L 297.573742 132.039851 
L 300.472443 128.292917 
L 301.921794 131.624082 
L 303.371144 132.367101 
L 304.820495 133.574511 
L 306.269846 133.467695 
L 307.719196 132.013518 
L 309.168547 133.775036 
L 312.067248 135.816838 
L 313.516599 134.15553 
L 314.96595 133.039205 
L 316.4153 132.365518 
L 317.864651 130.732202 
L 319.314002 130.422276 
L 322.212703 131.352335 
L 323.662054 130.397482 
L 325.111404 132.385544 
L 326.560755 133.44874 
L 328.010106 130.621022 
L 329.459456 129.915593 
L 330.908807 130.780378 
L 332.358157 130.366748 
L 333.807508 133.018114 
L 335.256859 129.699722 
L 336.706209 128.315437 
L 338.15556 131.243071 
L 339.604911 129.040349 
L 341.054261 129.159144 
L 342.503612 131.657577 
L 343.952963 130.8775 
L 345.402313 132.068264 
L 348.301015 129.381879 
L 349.750365 131.489051 
L 351.199716 132.135005 
L 352.649067 129.520044 
L 354.098417 128.526529 
L 355.547768 128.62714 
L 356.997119 129.507322 
L 358.446469 130.753813 
L 359.89582 131.148931 
L 361.34517 130.542598 
L 362.794521 130.694105 
L 364.243872 129.90088 
L 365.693222 130.887488 
L 367.142573 130.639837 
L 368.591924 129.355283 
L 370.041274 130.364738 
L 371.490625 132.129378 
L 372.939976 131.451921 
L 374.389326 133.778023 
L 375.838677 132.793608 
L 377.288028 132.710615 
L 378.737378 130.760632 
L 380.186729 131.242131 
L 381.63608 132.939387 
L 383.08543 133.68315 
L 384.534781 132.669464 
L 387.433482 132.445423 
L 388.882833 132.99424 
L 390.332183 133.06021 
L 391.781534 133.884776 
L 393.230885 132.891875 
L 394.680235 133.233263 
L 396.129586 133.746225 
L 397.578937 133.738837 
L 399.028287 134.525428 
L 400.477638 135.704528 
L 401.926989 132.744017 
L 403.376339 135.219024 
L 404.82569 135.591216 
L 406.275041 136.432579 
L 407.724391 132.965228 
L 409.173742 134.074961 
L 410.623093 133.540772 
L 412.072443 133.421911 
L 413.521794 135.236827 
L 414.971144 134.063046 
L 416.420495 133.228807 
L 417.869846 131.970848 
L 419.319196 134.240862 
L 420.768547 134.068398 
L 422.217898 134.936951 
L 423.667248 132.84045 
L 425.116599 131.756121 
L 426.56595 131.859176 
L 428.0153 132.698611 
L 429.464651 132.988609 
L 430.914002 131.533742 
L 432.363352 131.9431 
L 433.812703 132.900108 
L 435.262054 132.248788 
L 436.711404 134.623461 
L 438.160755 132.871426 
L 439.610106 133.638704 
L 441.059456 133.327539 
L 442.508807 131.803134 
L 443.958157 132.483812 
L 445.407508 131.304209 
L 446.856859 132.833603 
L 448.306209 131.565009 
L 449.75556 132.345541 
L 451.204911 132.763423 
L 452.654261 132.03401 
L 454.103612 132.010279 
L 455.552963 131.256279 
L 457.002313 133.787578 
L 458.451664 130.493204 
L 459.901015 130.135762 
L 461.350365 131.669798 
L 462.799716 129.935866 
L 464.249067 131.293905 
L 465.698417 131.094286 
L 468.597119 132.187449 
L 471.49582 131.860606 
L 472.94517 132.639894 
L 474.394521 131.282355 
L 475.843872 129.529896 
L 477.293222 132.111943 
L 480.191924 130.58016 
L 481.641274 130.407129 
L 483.090625 130.956694 
L 484.539976 129.941585 
L 485.989326 129.765758 
L 487.438677 130.065677 
L 488.888028 130.203255 
L 490.337378 129.980455 
L 491.786729 130.627125 
L 493.23608 129.133283 
L 494.68543 129.835422 
L 496.134781 129.533889 
L 497.584131 129.364363 
L 499.033482 130.856948 
L 500.482833 129.246312 
L 501.932183 129.706363 
L 503.381534 130.420866 
L 504.830885 129.545153 
L 506.280235 130.94038 
L 507.729586 129.371043 
L 509.178937 130.738 
L 510.628287 128.822413 
L 512.077638 130.609681 
L 513.526989 130.102713 
L 516.42569 128.586713 
L 517.875041 129.331779 
L 520.773742 130.013815 
L 522.223093 130.004582 
L 523.672443 129.563682 
L 525.121794 128.277651 
L 526.571144 129.132506 
L 528.020495 129.444018 
L 529.469846 130.328218 
L 530.919196 131.421887 
L 532.368547 130.156646 
L 535.267248 128.386728 
L 536.716599 130.002226 
L 538.16595 128.766129 
L 539.6153 129.727915 
L 541.064651 130.295393 
L 543.963352 130.22921 
L 545.412703 129.990359 
L 546.862054 130.146286 
L 548.311404 130.742029 
L 549.760755 130.232945 
L 551.210106 130.335787 
L 552.659456 130.008628 
L 554.108807 129.832388 
L 555.558157 129.938118 
L 557.007508 130.276968 
L 558.456859 129.159825 
L 559.906209 128.427935 
L 561.35556 128.815487 
L 562.804911 128.502613 
L 564.254261 130.018413 
L 565.703612 128.712991 
L 567.152963 129.533333 
L 568.602313 129.687427 
L 570.051664 128.563167 
L 571.501015 128.720108 
L 572.950365 129.560897 
L 574.399716 129.261363 
L 575.849067 129.333281 
L 577.298417 130.124582 
L 578.747768 128.725848 
L 581.646469 128.192742 
L 584.54517 128.481323 
L 585.994521 129.22743 
L 587.443872 129.363656 
L 588.893222 129.292759 
L 590.342573 128.9788 
L 593.241274 128.90032 
L 594.690625 130.108556 
L 596.139976 129.085007 
L 597.589326 128.613179 
L 599.038677 128.25835 
L 600.488028 128.582519 
L 601.937378 128.639878 
L 603.386729 127.829148 
L 606.28543 127.621747 
L 607.734781 129.027438 
L 609.184131 128.3083 
L 610.633482 129.060965 
L 612.082833 128.862738 
L 613.532183 128.027623 
L 614.981534 127.590238 
L 616.430885 127.417529 
L 617.880235 128.046032 
L 619.329586 127.509991 
L 620.778937 127.816074 
L 622.228287 127.724732 
L 623.677638 128.205471 
L 625.126989 127.909681 
L 625.126989 127.909681 
" clip-path="url(#pd6e5704465)" style="fill: none; stroke: #1f77b4; stroke-width: 1.5; stroke-linecap: square"/>
   </g>
   <g id="line2d_14">
    <path d="M 117.854261 272.296377 
L 119.303612 296.03625 
L 120.752963 264.026086 
L 122.202313 207.799987 
L 123.651664 243.066594 
L 125.101015 193.629605 
L 126.550365 187.417065 
L 127.999716 175.612571 
L 129.449067 188.708502 
L 130.898417 182.468813 
L 132.347768 171.245586 
L 133.797119 163.200798 
L 135.246469 165.079255 
L 136.69582 164.641227 
L 138.14517 164.583714 
L 139.594521 170.878139 
L 141.043872 192.699071 
L 142.493222 175.336276 
L 143.942573 168.049861 
L 145.391924 151.28019 
L 146.841274 159.248282 
L 148.290625 146.28808 
L 149.739976 140.901759 
L 151.189326 145.551194 
L 152.638677 142.666678 
L 154.088028 143.648375 
L 155.537378 145.606527 
L 156.986729 140.852092 
L 158.43608 145.328446 
L 159.88543 143.822301 
L 161.334781 139.007021 
L 162.784131 137.082641 
L 164.233482 136.292485 
L 165.682833 134.505795 
L 167.132183 136.254305 
L 168.581534 137.319965 
L 170.030885 137.857859 
L 171.480235 137.248942 
L 172.929586 137.370009 
L 174.378937 140.140774 
L 175.828287 136.559143 
L 177.277638 136.20536 
L 178.726989 136.796645 
L 180.176339 135.641941 
L 181.62569 138.298132 
L 183.075041 136.548575 
L 184.524391 138.086089 
L 185.973742 137.093049 
L 187.423093 139.686466 
L 188.872443 134.660049 
L 190.321794 136.760201 
L 191.771144 136.928963 
L 193.220495 137.545384 
L 196.119196 135.145935 
L 197.568547 136.757405 
L 199.017898 138.556555 
L 200.467248 138.551237 
L 201.916599 137.30024 
L 203.36595 134.618055 
L 204.8153 136.359067 
L 206.264651 135.329998 
L 209.163352 134.580303 
L 210.612703 133.586949 
L 212.062054 134.311701 
L 213.511404 134.512647 
L 214.960755 134.178027 
L 216.410106 133.276789 
L 217.859456 134.796104 
L 219.308807 135.5698 
L 220.758157 133.398496 
L 222.207508 134.94464 
L 223.656859 135.594839 
L 225.106209 136.023794 
L 226.55556 134.271671 
L 228.004911 133.52041 
L 229.454261 134.134421 
L 230.903612 134.354601 
L 232.352963 134.101571 
L 233.802313 134.851017 
L 235.251664 135.281328 
L 236.701015 134.599304 
L 238.150365 133.753552 
L 239.599716 134.350299 
L 241.049067 134.197715 
L 242.498417 135.957243 
L 243.947768 133.746004 
L 245.397119 134.598264 
L 246.846469 133.655918 
L 248.29582 134.480093 
L 249.74517 134.348458 
L 251.194521 134.696788 
L 252.643872 133.512672 
L 254.093222 135.221075 
L 255.542573 133.730723 
L 256.991924 134.529465 
L 258.441274 132.370661 
L 261.339976 134.572126 
L 262.789326 134.072371 
L 264.238677 134.627531 
L 265.688028 133.686821 
L 267.137378 135.793761 
L 268.586729 136.798164 
L 270.03608 135.970146 
L 271.48543 136.020147 
L 274.384131 133.937679 
L 275.833482 133.883375 
L 277.282833 135.783679 
L 278.732183 134.246771 
L 280.181534 134.67069 
L 281.630885 133.787839 
L 283.080235 133.98603 
L 284.529586 133.749291 
L 285.978937 134.937766 
L 287.428287 133.590693 
L 288.877638 133.948955 
L 291.776339 135.163464 
L 293.22569 135.250225 
L 294.675041 133.417657 
L 296.124391 134.83951 
L 297.573742 134.042226 
L 299.023093 133.857755 
L 300.472443 132.744474 
L 301.921794 133.127158 
L 303.371144 133.733979 
L 306.269846 132.540356 
L 307.719196 132.381644 
L 309.168547 133.468012 
L 310.617898 132.89523 
L 312.067248 133.132457 
L 313.516599 133.054752 
L 314.96595 134.444325 
L 316.4153 134.492291 
L 317.864651 132.703812 
L 319.314002 132.803628 
L 320.763352 132.034225 
L 322.212703 131.855089 
L 323.662054 132.523579 
L 325.111404 133.899917 
L 326.560755 133.3576 
L 328.010106 133.204065 
L 329.459456 132.664753 
L 330.908807 133.850222 
L 332.358157 132.380251 
L 333.807508 134.508646 
L 335.256859 132.891838 
L 336.706209 132.60006 
L 339.604911 133.371722 
L 342.503612 133.289836 
L 343.952963 133.233779 
L 345.402313 132.59753 
L 346.851664 133.140671 
L 348.301015 133.469409 
L 349.750365 135.298431 
L 351.199716 133.081593 
L 352.649067 133.76687 
L 354.098417 133.628306 
L 355.547768 134.142602 
L 358.446469 133.234211 
L 359.89582 133.387198 
L 361.34517 132.977919 
L 362.794521 133.963267 
L 364.243872 133.314476 
L 365.693222 132.411628 
L 367.142573 133.066124 
L 368.591924 134.496277 
L 370.041274 133.755932 
L 371.490625 135.162542 
L 372.939976 133.581566 
L 374.389326 133.305612 
L 375.838677 133.524542 
L 378.737378 133.266223 
L 380.186729 134.589685 
L 381.63608 133.405029 
L 384.534781 134.669077 
L 385.984131 133.501361 
L 387.433482 134.54872 
L 388.882833 134.330751 
L 390.332183 133.594184 
L 391.781534 133.685259 
L 393.230885 133.132268 
L 394.680235 133.782263 
L 396.129586 134.556337 
L 397.578937 134.747522 
L 399.028287 133.734818 
L 400.477638 134.057103 
L 401.926989 133.400449 
L 404.82569 135.078663 
L 406.275041 134.763415 
L 407.724391 132.670398 
L 409.173742 133.845273 
L 410.623093 134.183134 
L 412.072443 135.394309 
L 413.521794 134.32218 
L 414.971144 135.40424 
L 416.420495 135.965906 
L 417.869846 134.883353 
L 419.319196 135.13337 
L 420.768547 133.912702 
L 422.217898 134.390122 
L 423.667248 133.280426 
L 425.116599 133.387114 
L 428.0153 133.884612 
L 429.464651 134.965188 
L 430.914002 135.665181 
L 432.363352 133.526647 
L 433.812703 134.958716 
L 435.262054 134.407457 
L 436.711404 133.612359 
L 438.160755 132.453903 
L 439.610106 132.901754 
L 441.059456 134.501656 
L 442.508807 132.691125 
L 443.958157 132.707572 
L 445.407508 133.549338 
L 446.856859 133.084856 
L 448.306209 134.094326 
L 449.75556 134.739972 
L 451.204911 133.289971 
L 452.654261 133.717798 
L 454.103612 134.941621 
L 455.552963 133.779234 
L 457.002313 134.403515 
L 458.451664 132.779398 
L 459.901015 134.351158 
L 461.350365 134.337696 
L 462.799716 134.155492 
L 464.249067 132.525546 
L 465.698417 133.086877 
L 467.147768 131.931183 
L 468.597119 134.582029 
L 470.046469 134.47649 
L 472.94517 133.679502 
L 474.394521 133.335482 
L 477.293222 133.982783 
L 478.742573 133.474433 
L 480.191924 133.545177 
L 481.641274 134.065804 
L 483.090625 133.091783 
L 484.539976 133.394984 
L 485.989326 133.362916 
L 487.438677 133.734817 
L 490.337378 133.935786 
L 491.786729 134.215488 
L 493.23608 133.965623 
L 494.68543 135.494185 
L 497.584131 133.550128 
L 499.033482 133.11194 
L 500.482833 132.238664 
L 501.932183 132.453043 
L 503.381534 130.810441 
L 504.830885 132.587236 
L 506.280235 134.124518 
L 507.729586 135.103878 
L 509.178937 133.781092 
L 510.628287 133.99295 
L 512.077638 132.891941 
L 513.526989 133.912624 
L 514.976339 133.264993 
L 516.42569 132.399447 
L 517.875041 131.713326 
L 519.324391 132.090483 
L 520.773742 132.856766 
L 522.223093 133.123812 
L 523.672443 133.135695 
L 525.121794 132.27877 
L 526.571144 132.610056 
L 528.020495 134.40004 
L 529.469846 133.040585 
L 530.919196 133.285989 
L 532.368547 133.033763 
L 533.817898 134.071489 
L 535.267248 133.40679 
L 538.16595 133.948797 
L 539.6153 133.393113 
L 541.064651 134.972785 
L 542.514002 133.784309 
L 543.963352 134.35198 
L 545.412703 133.539669 
L 546.862054 133.178662 
L 548.311404 134.394646 
L 549.760755 132.953353 
L 551.210106 132.700312 
L 552.659456 133.263802 
L 554.108807 133.674356 
L 555.558157 132.279369 
L 557.007508 132.540283 
L 558.456859 132.63201 
L 559.906209 132.106652 
L 562.804911 131.875436 
L 564.254261 132.101985 
L 565.703612 131.632349 
L 567.152963 132.243352 
L 568.602313 131.312647 
L 570.051664 132.518016 
L 571.501015 132.074249 
L 572.950365 133.525432 
L 574.399716 132.311771 
L 575.849067 131.365266 
L 577.298417 132.376833 
L 578.747768 132.470925 
L 581.646469 131.396327 
L 583.09582 131.54476 
L 584.54517 132.302675 
L 585.994521 131.590595 
L 587.443872 132.470348 
L 588.893222 132.412599 
L 590.342573 131.673215 
L 593.241274 133.198533 
L 594.690625 133.673751 
L 596.139976 132.436078 
L 597.589326 131.4986 
L 599.038677 132.618971 
L 600.488028 132.490221 
L 601.937378 132.556169 
L 603.386729 131.788266 
L 604.83608 131.942189 
L 606.28543 131.903216 
L 607.734781 132.539686 
L 609.184131 130.569412 
L 610.633482 131.466622 
L 612.082833 132.033561 
L 613.532183 131.906376 
L 614.981534 130.992269 
L 616.430885 131.851759 
L 617.880235 132.544933 
L 619.329586 132.199204 
L 620.778937 132.783126 
L 622.228287 132.067351 
L 623.677638 132.47541 
L 625.126989 132.238959 
L 625.126989 132.238959 
" clip-path="url(#pd6e5704465)" style="fill: none; stroke: #ff7f0e; stroke-width: 1.5; stroke-linecap: square"/>
   </g>
   <g id="patch_3">
    <path d="M 92.490625 308.63625 
L 92.490625 31.43625 
" style="fill: none; stroke: #000000; stroke-width: 0.8; stroke-linejoin: miter; stroke-linecap: square"/>
   </g>
   <g id="patch_4">
    <path d="M 650.490625 308.63625 
L 650.490625 31.43625 
" style="fill: none; stroke: #000000; stroke-width: 0.8; stroke-linejoin: miter; stroke-linecap: square"/>
   </g>
   <g id="patch_5">
    <path d="M 92.490625 308.63625 
L 650.490625 308.63625 
" style="fill: none; stroke: #000000; stroke-width: 0.8; stroke-linejoin: miter; stroke-linecap: square"/>
   </g>
   <g id="patch_6">
    <path d="M 92.490625 31.43625 
L 650.490625 31.43625 
" style="fill: none; stroke: #000000; stroke-width: 0.8; stroke-linejoin: miter; stroke-linecap: square"/>
   </g>
   <g id="text_15">
    <!-- Generator and Discriminator Loss During Training -->
    <g transform="translate(74.258125 25.43625) scale(0.24 -0.24)">
     <defs>
      <path id="DejaVuSans-47" d="M 3809 666 
L 3809 1919 
L 2778 1919 
L 2778 2438 
L 4434 2438 
L 4434 434 
Q 4069 175 3628 42 
Q 3188 -91 2688 -91 
Q 1594 -91 976 548 
Q 359 1188 359 2328 
Q 359 3472 976 4111 
Q 1594 4750 2688 4750 
Q 3144 4750 3555 4637 
Q 3966 4525 4313 4306 
L 4313 3634 
Q 3963 3931 3569 4081 
Q 3175 4231 2741 4231 
Q 1884 4231 1454 3753 
Q 1025 3275 1025 2328 
Q 1025 1384 1454 906 
Q 1884 428 2741 428 
Q 3075 428 3337 486 
Q 3600 544 3809 666 
z
" transform="scale(0.015625)"/>
      <path id="DejaVuSans-20" transform="scale(0.015625)"/>
      <path id="DejaVuSans-64" d="M 2906 2969 
L 2906 4863 
L 3481 4863 
L 3481 0 
L 2906 0 
L 2906 525 
Q 2725 213 2448 61 
Q 2172 -91 1784 -91 
Q 1150 -91 751 415 
Q 353 922 353 1747 
Q 353 2572 751 3078 
Q 1150 3584 1784 3584 
Q 2172 3584 2448 3432 
Q 2725 3281 2906 2969 
z
M 947 1747 
Q 947 1113 1208 752 
Q 1469 391 1925 391 
Q 2381 391 2643 752 
Q 2906 1113 2906 1747 
Q 2906 2381 2643 2742 
Q 2381 3103 1925 3103 
Q 1469 3103 1208 2742 
Q 947 2381 947 1747 
z
" transform="scale(0.015625)"/>
      <path id="DejaVuSans-44" d="M 1259 4147 
L 1259 519 
L 2022 519 
Q 2988 519 3436 956 
Q 3884 1394 3884 2338 
Q 3884 3275 3436 3711 
Q 2988 4147 2022 4147 
L 1259 4147 
z
M 628 4666 
L 1925 4666 
Q 3281 4666 3915 4102 
Q 4550 3538 4550 2338 
Q 4550 1131 3912 565 
Q 3275 0 1925 0 
L 628 0 
L 628 4666 
z
" transform="scale(0.015625)"/>
      <path id="DejaVuSans-63" d="M 3122 3366 
L 3122 2828 
Q 2878 2963 2633 3030 
Q 2388 3097 2138 3097 
Q 1578 3097 1268 2742 
Q 959 2388 959 1747 
Q 959 1106 1268 751 
Q 1578 397 2138 397 
Q 2388 397 2633 464 
Q 2878 531 3122 666 
L 3122 134 
Q 2881 22 2623 -34 
Q 2366 -91 2075 -91 
Q 1284 -91 818 406 
Q 353 903 353 1747 
Q 353 2603 823 3093 
Q 1294 3584 2113 3584 
Q 2378 3584 2631 3529 
Q 2884 3475 3122 3366 
z
" transform="scale(0.015625)"/>
      <path id="DejaVuSans-6d" d="M 3328 2828 
Q 3544 3216 3844 3400 
Q 4144 3584 4550 3584 
Q 5097 3584 5394 3201 
Q 5691 2819 5691 2113 
L 5691 0 
L 5113 0 
L 5113 2094 
Q 5113 2597 4934 2840 
Q 4756 3084 4391 3084 
Q 3944 3084 3684 2787 
Q 3425 2491 3425 1978 
L 3425 0 
L 2847 0 
L 2847 2094 
Q 2847 2600 2669 2842 
Q 2491 3084 2119 3084 
Q 1678 3084 1418 2786 
Q 1159 2488 1159 1978 
L 1159 0 
L 581 0 
L 581 3500 
L 1159 3500 
L 1159 2956 
Q 1356 3278 1631 3431 
Q 1906 3584 2284 3584 
Q 2666 3584 2933 3390 
Q 3200 3197 3328 2828 
z
" transform="scale(0.015625)"/>
      <path id="DejaVuSans-75" d="M 544 1381 
L 544 3500 
L 1119 3500 
L 1119 1403 
Q 1119 906 1312 657 
Q 1506 409 1894 409 
Q 2359 409 2629 706 
Q 2900 1003 2900 1516 
L 2900 3500 
L 3475 3500 
L 3475 0 
L 2900 0 
L 2900 538 
Q 2691 219 2414 64 
Q 2138 -91 1772 -91 
Q 1169 -91 856 284 
Q 544 659 544 1381 
z
M 1991 3584 
L 1991 3584 
z
" transform="scale(0.015625)"/>
      <path id="DejaVuSans-67" d="M 2906 1791 
Q 2906 2416 2648 2759 
Q 2391 3103 1925 3103 
Q 1463 3103 1205 2759 
Q 947 2416 947 1791 
Q 947 1169 1205 825 
Q 1463 481 1925 481 
Q 2391 481 2648 825 
Q 2906 1169 2906 1791 
z
M 3481 434 
Q 3481 -459 3084 -895 
Q 2688 -1331 1869 -1331 
Q 1566 -1331 1297 -1286 
Q 1028 -1241 775 -1147 
L 775 -588 
Q 1028 -725 1275 -790 
Q 1522 -856 1778 -856 
Q 2344 -856 2625 -561 
Q 2906 -266 2906 331 
L 2906 616 
Q 2728 306 2450 153 
Q 2172 0 1784 0 
Q 1141 0 747 490 
Q 353 981 353 1791 
Q 353 2603 747 3093 
Q 1141 3584 1784 3584 
Q 2172 3584 2450 3431 
Q 2728 3278 2906 2969 
L 2906 3500 
L 3481 3500 
L 3481 434 
z
" transform="scale(0.015625)"/>
      <path id="DejaVuSans-54" d="M -19 4666 
L 3928 4666 
L 3928 4134 
L 2272 4134 
L 2272 0 
L 1638 0 
L 1638 4134 
L -19 4134 
L -19 4666 
z
" transform="scale(0.015625)"/>
     </defs>
     <use xlink:href="#DejaVuSans-47"/>
     <use xlink:href="#DejaVuSans-65" x="77.490234"/>
     <use xlink:href="#DejaVuSans-6e" x="139.013672"/>
     <use xlink:href="#DejaVuSans-65" x="202.392578"/>
     <use xlink:href="#DejaVuSans-72" x="263.916016"/>
     <use xlink:href="#DejaVuSans-61" x="305.029297"/>
     <use xlink:href="#DejaVuSans-74" x="366.308594"/>
     <use xlink:href="#DejaVuSans-6f" x="405.517578"/>
     <use xlink:href="#DejaVuSans-72" x="466.699219"/>
     <use xlink:href="#DejaVuSans-20" x="507.8125"/>
     <use xlink:href="#DejaVuSans-61" x="539.599609"/>
     <use xlink:href="#DejaVuSans-6e" x="600.878906"/>
     <use xlink:href="#DejaVuSans-64" x="664.257812"/>
     <use xlink:href="#DejaVuSans-20" x="727.734375"/>
     <use xlink:href="#DejaVuSans-44" x="759.521484"/>
     <use xlink:href="#DejaVuSans-69" x="836.523438"/>
     <use xlink:href="#DejaVuSans-73" x="864.306641"/>
     <use xlink:href="#DejaVuSans-63" x="916.40625"/>
     <use xlink:href="#DejaVuSans-72" x="971.386719"/>
     <use xlink:href="#DejaVuSans-69" x="1012.5"/>
     <use xlink:href="#DejaVuSans-6d" x="1040.283203"/>
     <use xlink:href="#DejaVuSans-69" x="1137.695312"/>
     <use xlink:href="#DejaVuSans-6e" x="1165.478516"/>
     <use xlink:href="#DejaVuSans-61" x="1228.857422"/>
     <use xlink:href="#DejaVuSans-74" x="1290.136719"/>
     <use xlink:href="#DejaVuSans-6f" x="1329.345703"/>
     <use xlink:href="#DejaVuSans-72" x="1390.527344"/>
     <use xlink:href="#DejaVuSans-20" x="1431.640625"/>
     <use xlink:href="#DejaVuSans-4c" x="1463.427734"/>
     <use xlink:href="#DejaVuSans-6f" x="1517.390625"/>
     <use xlink:href="#DejaVuSans-73" x="1578.572266"/>
     <use xlink:href="#DejaVuSans-73" x="1630.671875"/>
     <use xlink:href="#DejaVuSans-20" x="1682.771484"/>
     <use xlink:href="#DejaVuSans-44" x="1714.558594"/>
     <use xlink:href="#DejaVuSans-75" x="1791.560547"/>
     <use xlink:href="#DejaVuSans-72" x="1854.939453"/>
     <use xlink:href="#DejaVuSans-69" x="1896.052734"/>
     <use xlink:href="#DejaVuSans-6e" x="1923.835938"/>
     <use xlink:href="#DejaVuSans-67" x="1987.214844"/>
     <use xlink:href="#DejaVuSans-20" x="2050.691406"/>
     <use xlink:href="#DejaVuSans-54" x="2082.478516"/>
     <use xlink:href="#DejaVuSans-72" x="2128.8125"/>
     <use xlink:href="#DejaVuSans-61" x="2169.925781"/>
     <use xlink:href="#DejaVuSans-69" x="2231.205078"/>
     <use xlink:href="#DejaVuSans-6e" x="2258.988281"/>
     <use xlink:href="#DejaVuSans-69" x="2322.367188"/>
     <use xlink:href="#DejaVuSans-6e" x="2350.150391"/>
     <use xlink:href="#DejaVuSans-67" x="2413.529297"/>
    </g>
   </g>
   <g id="legend_1">
    <g id="patch_7">
     <path d="M 556.99375 106.14875 
L 636.490625 106.14875 
Q 640.490625 106.14875 640.490625 102.14875 
L 640.490625 45.43625 
Q 640.490625 41.43625 636.490625 41.43625 
L 556.99375 41.43625 
Q 552.99375 41.43625 552.99375 45.43625 
L 552.99375 102.14875 
Q 552.99375 106.14875 556.99375 106.14875 
z
" style="fill: #ffffff; opacity: 0.8; stroke: #cccccc; stroke-linejoin: miter"/>
    </g>
    <g id="line2d_15">
     <path d="M 560.99375 57.633125 
L 580.99375 57.633125 
L 600.99375 57.633125 
" style="fill: none; stroke: #1f77b4; stroke-width: 1.5; stroke-linecap: square"/>
    </g>
    <g id="text_16">
     <!-- G -->
     <g transform="translate(616.99375 64.633125) scale(0.2 -0.2)">
      <use xlink:href="#DejaVuSans-47"/>
     </g>
    </g>
    <g id="line2d_16">
     <path d="M 560.99375 86.989375 
L 580.99375 86.989375 
L 600.99375 86.989375 
" style="fill: none; stroke: #ff7f0e; stroke-width: 1.5; stroke-linecap: square"/>
    </g>
    <g id="text_17">
     <!-- D -->
     <g transform="translate(616.99375 93.989375) scale(0.2 -0.2)">
      <use xlink:href="#DejaVuSans-44"/>
     </g>
    </g>
   </g>
  </g>
 </g>
 <defs>
  <clipPath id="pd6e5704465">
   <rect x="92.490625" y="31.43625" width="558" height="277.2"/>
  </clipPath>
 </defs>
</svg>
