<?xml version="1.0" encoding="utf-8" standalone="no"?>
<!DOCTYPE svg PUBLIC "-//W3C//DTD SVG 1.1//EN"
  "http://www.w3.org/Graphics/SVG/1.1/DTD/svg11.dtd">
<svg xmlns:xlink="http://www.w3.org/1999/xlink" width="675.923125pt" height="365.54875pt" viewBox="0 0 675.923125 365.54875" xmlns="http://www.w3.org/2000/svg" version="1.1">
 <metadata>
  <rdf:RDF xmlns:dc="http://purl.org/dc/elements/1.1/" xmlns:cc="http://creativecommons.org/ns#" xmlns:rdf="http://www.w3.org/1999/02/22-rdf-syntax-ns#">
   <cc:Work>
    <dc:type rdf:resource="http://purl.org/dc/dcmitype/StillImage"/>
    <dc:date>2024-02-01T17:39:55.620017</dc:date>
    <dc:format>image/svg+xml</dc:format>
    <dc:creator>
     <cc:Agent>
      <dc:title>Matplotlib v3.7.2, https://matplotlib.org/</dc:title>
     </cc:Agent>
    </dc:creator>
   </cc:Work>
  </rdf:RDF>
 </metadata>
 <defs>
  <style type="text/css">*{stroke-linejoin: round; stroke-linecap: butt}</style>
 </defs>
 <g id="figure_1">
  <g id="patch_1">
   <path d="M 0 365.54875 
L 675.923125 365.54875 
L 675.923125 -0 
L 0 -0 
z
" style="fill: #ffffff"/>
  </g>
  <g id="axes_1">
   <g id="patch_2">
    <path d="M 92.490625 308.63625 
L 650.490625 308.63625 
L 650.490625 31.43625 
L 92.490625 31.43625 
z
" style="fill: #ffffff"/>
   </g>
   <g id="matplotlib.axis_1">
    <g id="xtick_1">
     <g id="line2d_1">
      <defs>
       <path id="m8f19d103cd" d="M 0 0 
L 0 3.5 
" style="stroke: #000000; stroke-width: 0.8"/>
      </defs>
      <g>
       <use xlink:href="#m8f19d103cd" x="117.854261" y="308.63625" style="stroke: #000000; stroke-width: 0.8"/>
      </g>
     </g>
     <g id="text_1">
      <!-- 0 -->
      <g transform="translate(111.491761 330.833125) scale(0.2 -0.2)">
       <defs>
        <path id="DejaVuSans-30" d="M 2034 4250 
Q 1547 4250 1301 3770 
Q 1056 3291 1056 2328 
Q 1056 1369 1301 889 
Q 1547 409 2034 409 
Q 2525 409 2770 889 
Q 3016 1369 3016 2328 
Q 3016 3291 2770 3770 
Q 2525 4250 2034 4250 
z
M 2034 4750 
Q 2819 4750 3233 4129 
Q 3647 3509 3647 2328 
Q 3647 1150 3233 529 
Q 2819 -91 2034 -91 
Q 1250 -91 836 529 
Q 422 1150 422 2328 
Q 422 3509 836 4129 
Q 1250 4750 2034 4750 
z
" transform="scale(0.015625)"/>
       </defs>
       <use xlink:href="#DejaVuSans-30"/>
      </g>
     </g>
    </g>
    <g id="xtick_2">
     <g id="line2d_2">
      <g>
       <use xlink:href="#m8f19d103cd" x="219.308807" y="308.63625" style="stroke: #000000; stroke-width: 0.8"/>
      </g>
     </g>
     <g id="text_2">
      <!-- 50 -->
      <g transform="translate(206.583807 330.833125) scale(0.2 -0.2)">
       <defs>
        <path id="DejaVuSans-35" d="M 691 4666 
L 3169 4666 
L 3169 4134 
L 1269 4134 
L 1269 2991 
Q 1406 3038 1543 3061 
Q 1681 3084 1819 3084 
Q 2600 3084 3056 2656 
Q 3513 2228 3513 1497 
Q 3513 744 3044 326 
Q 2575 -91 1722 -91 
Q 1428 -91 1123 -41 
Q 819 9 494 109 
L 494 744 
Q 775 591 1075 516 
Q 1375 441 1709 441 
Q 2250 441 2565 725 
Q 2881 1009 2881 1497 
Q 2881 1984 2565 2268 
Q 2250 2553 1709 2553 
Q 1456 2553 1204 2497 
Q 953 2441 691 2322 
L 691 4666 
z
" transform="scale(0.015625)"/>
       </defs>
       <use xlink:href="#DejaVuSans-35"/>
       <use xlink:href="#DejaVuSans-30" x="63.623047"/>
      </g>
     </g>
    </g>
    <g id="xtick_3">
     <g id="line2d_3">
      <g>
       <use xlink:href="#m8f19d103cd" x="320.763352" y="308.63625" style="stroke: #000000; stroke-width: 0.8"/>
      </g>
     </g>
     <g id="text_3">
      <!-- 100 -->
      <g transform="translate(301.675852 330.833125) scale(0.2 -0.2)">
       <defs>
        <path id="DejaVuSans-31" d="M 794 531 
L 1825 531 
L 1825 4091 
L 703 3866 
L 703 4441 
L 1819 4666 
L 2450 4666 
L 2450 531 
L 3481 531 
L 3481 0 
L 794 0 
L 794 531 
z
" transform="scale(0.015625)"/>
       </defs>
       <use xlink:href="#DejaVuSans-31"/>
       <use xlink:href="#DejaVuSans-30" x="63.623047"/>
       <use xlink:href="#DejaVuSans-30" x="127.246094"/>
      </g>
     </g>
    </g>
    <g id="xtick_4">
     <g id="line2d_4">
      <g>
       <use xlink:href="#m8f19d103cd" x="422.217898" y="308.63625" style="stroke: #000000; stroke-width: 0.8"/>
      </g>
     </g>
     <g id="text_4">
      <!-- 150 -->
      <g transform="translate(403.130398 330.833125) scale(0.2 -0.2)">
       <use xlink:href="#DejaVuSans-31"/>
       <use xlink:href="#DejaVuSans-35" x="63.623047"/>
       <use xlink:href="#DejaVuSans-30" x="127.246094"/>
      </g>
     </g>
    </g>
    <g id="xtick_5">
     <g id="line2d_5">
      <g>
       <use xlink:href="#m8f19d103cd" x="523.672443" y="308.63625" style="stroke: #000000; stroke-width: 0.8"/>
      </g>
     </g>
     <g id="text_5">
      <!-- 200 -->
      <g transform="translate(504.584943 330.833125) scale(0.2 -0.2)">
       <defs>
        <path id="DejaVuSans-32" d="M 1228 531 
L 3431 531 
L 3431 0 
L 469 0 
L 469 531 
Q 828 903 1448 1529 
Q 2069 2156 2228 2338 
Q 2531 2678 2651 2914 
Q 2772 3150 2772 3378 
Q 2772 3750 2511 3984 
Q 2250 4219 1831 4219 
Q 1534 4219 1204 4116 
Q 875 4013 500 3803 
L 500 4441 
Q 881 4594 1212 4672 
Q 1544 4750 1819 4750 
Q 2544 4750 2975 4387 
Q 3406 4025 3406 3419 
Q 3406 3131 3298 2873 
Q 3191 2616 2906 2266 
Q 2828 2175 2409 1742 
Q 1991 1309 1228 531 
z
" transform="scale(0.015625)"/>
       </defs>
       <use xlink:href="#DejaVuSans-32"/>
       <use xlink:href="#DejaVuSans-30" x="63.623047"/>
       <use xlink:href="#DejaVuSans-30" x="127.246094"/>
      </g>
     </g>
    </g>
    <g id="xtick_6">
     <g id="line2d_6">
      <g>
       <use xlink:href="#m8f19d103cd" x="625.126989" y="308.63625" style="stroke: #000000; stroke-width: 0.8"/>
      </g>
     </g>
     <g id="text_6">
      <!-- 250 -->
      <g transform="translate(606.039489 330.833125) scale(0.2 -0.2)">
       <use xlink:href="#DejaVuSans-32"/>
       <use xlink:href="#DejaVuSans-35" x="63.623047"/>
       <use xlink:href="#DejaVuSans-30" x="127.246094"/>
      </g>
     </g>
    </g>
    <g id="text_7">
     <!-- iterations -->
     <g transform="translate(324.035938 354.189375) scale(0.2 -0.2)">
      <defs>
       <path id="DejaVuSans-69" d="M 603 3500 
L 1178 3500 
L 1178 0 
L 603 0 
L 603 3500 
z
M 603 4863 
L 1178 4863 
L 1178 4134 
L 603 4134 
L 603 4863 
z
" transform="scale(0.015625)"/>
       <path id="DejaVuSans-74" d="M 1172 4494 
L 1172 3500 
L 2356 3500 
L 2356 3053 
L 1172 3053 
L 1172 1153 
Q 1172 725 1289 603 
Q 1406 481 1766 481 
L 2356 481 
L 2356 0 
L 1766 0 
Q 1100 0 847 248 
Q 594 497 594 1153 
L 594 3053 
L 172 3053 
L 172 3500 
L 594 3500 
L 594 4494 
L 1172 4494 
z
" transform="scale(0.015625)"/>
       <path id="DejaVuSans-65" d="M 3597 1894 
L 3597 1613 
L 953 1613 
Q 991 1019 1311 708 
Q 1631 397 2203 397 
Q 2534 397 2845 478 
Q 3156 559 3463 722 
L 3463 178 
Q 3153 47 2828 -22 
Q 2503 -91 2169 -91 
Q 1331 -91 842 396 
Q 353 884 353 1716 
Q 353 2575 817 3079 
Q 1281 3584 2069 3584 
Q 2775 3584 3186 3129 
Q 3597 2675 3597 1894 
z
M 3022 2063 
Q 3016 2534 2758 2815 
Q 2500 3097 2075 3097 
Q 1594 3097 1305 2825 
Q 1016 2553 972 2059 
L 3022 2063 
z
" transform="scale(0.015625)"/>
       <path id="DejaVuSans-72" d="M 2631 2963 
Q 2534 3019 2420 3045 
Q 2306 3072 2169 3072 
Q 1681 3072 1420 2755 
Q 1159 2438 1159 1844 
L 1159 0 
L 581 0 
L 581 3500 
L 1159 3500 
L 1159 2956 
Q 1341 3275 1631 3429 
Q 1922 3584 2338 3584 
Q 2397 3584 2469 3576 
Q 2541 3569 2628 3553 
L 2631 2963 
z
" transform="scale(0.015625)"/>
       <path id="DejaVuSans-61" d="M 2194 1759 
Q 1497 1759 1228 1600 
Q 959 1441 959 1056 
Q 959 750 1161 570 
Q 1363 391 1709 391 
Q 2188 391 2477 730 
Q 2766 1069 2766 1631 
L 2766 1759 
L 2194 1759 
z
M 3341 1997 
L 3341 0 
L 2766 0 
L 2766 531 
Q 2569 213 2275 61 
Q 1981 -91 1556 -91 
Q 1019 -91 701 211 
Q 384 513 384 1019 
Q 384 1609 779 1909 
Q 1175 2209 1959 2209 
L 2766 2209 
L 2766 2266 
Q 2766 2663 2505 2880 
Q 2244 3097 1772 3097 
Q 1472 3097 1187 3025 
Q 903 2953 641 2809 
L 641 3341 
Q 956 3463 1253 3523 
Q 1550 3584 1831 3584 
Q 2591 3584 2966 3190 
Q 3341 2797 3341 1997 
z
" transform="scale(0.015625)"/>
       <path id="DejaVuSans-6f" d="M 1959 3097 
Q 1497 3097 1228 2736 
Q 959 2375 959 1747 
Q 959 1119 1226 758 
Q 1494 397 1959 397 
Q 2419 397 2687 759 
Q 2956 1122 2956 1747 
Q 2956 2369 2687 2733 
Q 2419 3097 1959 3097 
z
M 1959 3584 
Q 2709 3584 3137 3096 
Q 3566 2609 3566 1747 
Q 3566 888 3137 398 
Q 2709 -91 1959 -91 
Q 1206 -91 779 398 
Q 353 888 353 1747 
Q 353 2609 779 3096 
Q 1206 3584 1959 3584 
z
" transform="scale(0.015625)"/>
       <path id="DejaVuSans-6e" d="M 3513 2113 
L 3513 0 
L 2938 0 
L 2938 2094 
Q 2938 2591 2744 2837 
Q 2550 3084 2163 3084 
Q 1697 3084 1428 2787 
Q 1159 2491 1159 1978 
L 1159 0 
L 581 0 
L 581 3500 
L 1159 3500 
L 1159 2956 
Q 1366 3272 1645 3428 
Q 1925 3584 2291 3584 
Q 2894 3584 3203 3211 
Q 3513 2838 3513 2113 
z
" transform="scale(0.015625)"/>
       <path id="DejaVuSans-73" d="M 2834 3397 
L 2834 2853 
Q 2591 2978 2328 3040 
Q 2066 3103 1784 3103 
Q 1356 3103 1142 2972 
Q 928 2841 928 2578 
Q 928 2378 1081 2264 
Q 1234 2150 1697 2047 
L 1894 2003 
Q 2506 1872 2764 1633 
Q 3022 1394 3022 966 
Q 3022 478 2636 193 
Q 2250 -91 1575 -91 
Q 1294 -91 989 -36 
Q 684 19 347 128 
L 347 722 
Q 666 556 975 473 
Q 1284 391 1588 391 
Q 1994 391 2212 530 
Q 2431 669 2431 922 
Q 2431 1156 2273 1281 
Q 2116 1406 1581 1522 
L 1381 1569 
Q 847 1681 609 1914 
Q 372 2147 372 2553 
Q 372 3047 722 3315 
Q 1072 3584 1716 3584 
Q 2034 3584 2315 3537 
Q 2597 3491 2834 3397 
z
" transform="scale(0.015625)"/>
      </defs>
      <use xlink:href="#DejaVuSans-69"/>
      <use xlink:href="#DejaVuSans-74" x="27.783203"/>
      <use xlink:href="#DejaVuSans-65" x="66.992188"/>
      <use xlink:href="#DejaVuSans-72" x="128.515625"/>
      <use xlink:href="#DejaVuSans-61" x="169.628906"/>
      <use xlink:href="#DejaVuSans-74" x="230.908203"/>
      <use xlink:href="#DejaVuSans-69" x="270.117188"/>
      <use xlink:href="#DejaVuSans-6f" x="297.900391"/>
      <use xlink:href="#DejaVuSans-6e" x="359.082031"/>
      <use xlink:href="#DejaVuSans-73" x="422.460938"/>
     </g>
    </g>
   </g>
   <g id="matplotlib.axis_2">
    <g id="ytick_1">
     <g id="line2d_7">
      <defs>
       <path id="mcdea594850" d="M 0 0 
L -3.5 0 
" style="stroke: #000000; stroke-width: 0.8"/>
      </defs>
      <g>
       <use xlink:href="#mcdea594850" x="92.490625" y="278.050314" style="stroke: #000000; stroke-width: 0.8"/>
      </g>
     </g>
     <g id="text_8">
      <!-- −200 -->
      <g transform="translate(30.55625 285.648751) scale(0.2 -0.2)">
       <defs>
        <path id="DejaVuSans-2212" d="M 678 2272 
L 4684 2272 
L 4684 1741 
L 678 1741 
L 678 2272 
z
" transform="scale(0.015625)"/>
       </defs>
       <use xlink:href="#DejaVuSans-2212"/>
       <use xlink:href="#DejaVuSans-32" x="83.789062"/>
       <use xlink:href="#DejaVuSans-30" x="147.412109"/>
       <use xlink:href="#DejaVuSans-30" x="211.035156"/>
      </g>
     </g>
    </g>
    <g id="ytick_2">
     <g id="line2d_8">
      <g>
       <use xlink:href="#mcdea594850" x="92.490625" y="225.895764" style="stroke: #000000; stroke-width: 0.8"/>
      </g>
     </g>
     <g id="text_9">
      <!-- −100 -->
      <g transform="translate(30.55625 233.494202) scale(0.2 -0.2)">
       <use xlink:href="#DejaVuSans-2212"/>
       <use xlink:href="#DejaVuSans-31" x="83.789062"/>
       <use xlink:href="#DejaVuSans-30" x="147.412109"/>
       <use xlink:href="#DejaVuSans-30" x="211.035156"/>
      </g>
     </g>
    </g>
    <g id="ytick_3">
     <g id="line2d_9">
      <g>
       <use xlink:href="#mcdea594850" x="92.490625" y="173.741215" style="stroke: #000000; stroke-width: 0.8"/>
      </g>
     </g>
     <g id="text_10">
      <!-- 0 -->
      <g transform="translate(72.765625 181.339652) scale(0.2 -0.2)">
       <use xlink:href="#DejaVuSans-30"/>
      </g>
     </g>
    </g>
    <g id="ytick_4">
     <g id="line2d_10">
      <g>
       <use xlink:href="#mcdea594850" x="92.490625" y="121.586665" style="stroke: #000000; stroke-width: 0.8"/>
      </g>
     </g>
     <g id="text_11">
      <!-- 100 -->
      <g transform="translate(47.315625 129.185102) scale(0.2 -0.2)">
       <use xlink:href="#DejaVuSans-31"/>
       <use xlink:href="#DejaVuSans-30" x="63.623047"/>
       <use xlink:href="#DejaVuSans-30" x="127.246094"/>
      </g>
     </g>
    </g>
    <g id="ytick_5">
     <g id="line2d_11">
      <g>
       <use xlink:href="#mcdea594850" x="92.490625" y="69.432115" style="stroke: #000000; stroke-width: 0.8"/>
      </g>
     </g>
     <g id="text_12">
      <!-- 200 -->
      <g transform="translate(47.315625 77.030553) scale(0.2 -0.2)">
       <use xlink:href="#DejaVuSans-32"/>
       <use xlink:href="#DejaVuSans-30" x="63.623047"/>
       <use xlink:href="#DejaVuSans-30" x="127.246094"/>
      </g>
     </g>
    </g>
    <g id="text_13">
     <!-- Loss -->
     <g transform="translate(22.396875 191.970625) rotate(-90) scale(0.2 -0.2)">
      <defs>
       <path id="DejaVuSans-4c" d="M 628 4666 
L 1259 4666 
L 1259 531 
L 3531 531 
L 3531 0 
L 628 0 
L 628 4666 
z
" transform="scale(0.015625)"/>
      </defs>
      <use xlink:href="#DejaVuSans-4c"/>
      <use xlink:href="#DejaVuSans-6f" x="53.962891"/>
      <use xlink:href="#DejaVuSans-73" x="115.144531"/>
      <use xlink:href="#DejaVuSans-73" x="167.244141"/>
     </g>
    </g>
   </g>
   <g id="line2d_12">
    <path d="M 117.854261 116.730416 
L 119.883352 62.430435 
L 121.912443 101.446911 
L 123.941534 97.742273 
L 125.970625 71.891481 
L 127.999716 66.005259 
L 130.028807 53.003453 
L 132.057898 50.572912 
L 134.086989 59.282987 
L 136.11608 64.407922 
L 138.14517 63.027834 
L 140.174261 67.70593 
L 142.203352 72.758823 
L 144.232443 76.15716 
L 146.261534 51.933022 
L 148.290625 73.641653 
L 150.319716 118.042353 
L 152.348807 125.137272 
L 154.377898 90.657659 
L 156.406989 60.941522 
L 158.43608 44.03625 
L 160.46517 52.703352 
L 162.494261 66.415864 
L 164.523352 73.118874 
L 166.552443 80.271673 
L 168.581534 77.046844 
L 170.610625 85.974109 
L 172.639716 89.320307 
L 174.668807 99.781725 
L 176.697898 103.629806 
L 178.726989 95.490293 
L 180.75608 93.742179 
L 182.78517 96.556052 
L 184.814261 104.56955 
L 186.843352 103.315712 
L 188.872443 106.314088 
L 190.901534 101.622759 
L 192.930625 103.726444 
L 194.959716 97.099143 
L 196.988807 105.59913 
L 199.017898 102.090241 
L 201.046989 108.846517 
L 203.07608 107.115866 
L 205.10517 107.768741 
L 207.134261 94.854922 
L 209.163352 103.509892 
L 211.192443 99.688151 
L 213.221534 99.279356 
L 215.250625 102.538264 
L 217.279716 101.345011 
L 219.308807 103.441635 
L 221.337898 100.626615 
L 223.366989 103.77917 
L 225.39608 108.446027 
L 227.42517 104.135863 
L 229.454261 113.024366 
L 231.483352 113.256683 
L 233.512443 118.953402 
L 235.541534 121.504437 
L 237.570625 125.536059 
L 239.599716 125.084203 
L 241.628807 124.975704 
L 243.657898 129.12069 
L 245.686989 129.965285 
L 247.71608 127.601113 
L 249.74517 122.813187 
L 251.774261 121.044518 
L 253.803352 125.340201 
L 255.832443 125.222212 
L 257.861534 129.200338 
L 259.890625 126.028649 
L 261.919716 128.68786 
L 263.948807 127.230402 
L 265.977898 125.98626 
L 268.006989 127.841862 
L 270.03608 125.227578 
L 272.06517 130.64839 
L 274.094261 134.240456 
L 276.123352 133.266292 
L 278.152443 131.370037 
L 280.181534 133.221224 
L 282.210625 131.530508 
L 284.239716 127.304061 
L 286.268807 127.021545 
L 288.297898 131.504403 
L 290.326989 129.12013 
L 292.35608 130.155912 
L 294.38517 129.13671 
L 298.443352 135.649824 
L 300.472443 130.074104 
L 302.501534 129.476486 
L 304.530625 129.449765 
L 306.559716 127.07422 
L 310.617898 128.405043 
L 312.646989 132.155688 
L 314.67608 129.996242 
L 316.70517 130.068832 
L 318.734261 128.264842 
L 320.763352 131.050036 
L 322.792443 130.94195 
L 324.821534 128.470743 
L 326.850625 131.531211 
L 328.879716 131.612299 
L 330.908807 132.350694 
L 332.937898 131.23145 
L 334.966989 134.408219 
L 336.99608 133.259949 
L 339.02517 133.451761 
L 341.054261 135.868165 
L 343.083352 136.567827 
L 345.112443 137.964817 
L 347.141534 137.904629 
L 349.170625 140.59013 
L 351.199716 140.248142 
L 353.228807 142.320233 
L 355.257898 142.751493 
L 357.286989 143.305748 
L 359.31608 144.681703 
L 361.34517 144.519549 
L 363.374261 145.240951 
L 365.403352 143.606707 
L 367.432443 147.202116 
L 369.461534 147.401776 
L 371.490625 145.312951 
L 373.519716 147.788315 
L 375.548807 144.771762 
L 377.577898 147.864716 
L 379.606989 144.354608 
L 381.63608 149.00043 
L 383.66517 148.864368 
L 385.694261 147.326535 
L 387.723352 147.287939 
L 389.752443 149.193091 
L 391.781534 147.831455 
L 393.810625 148.825769 
L 395.839716 148.096776 
L 397.868807 148.745121 
L 399.897898 151.093129 
L 401.926989 147.222083 
L 403.95608 147.173949 
L 405.98517 149.684394 
L 408.014261 150.670233 
L 410.043352 150.083711 
L 412.072443 151.347509 
L 414.101534 149.72187 
L 416.130625 149.97145 
L 418.159716 152.818688 
L 420.188807 153.166956 
L 422.217898 151.635056 
L 424.246989 152.261085 
L 426.27608 150.388173 
L 428.30517 149.701996 
L 430.334261 148.135366 
L 432.363352 150.229807 
L 434.392443 149.605711 
L 436.421534 150.325038 
L 438.450625 151.22725 
L 440.479716 150.754788 
L 442.508807 152.243257 
L 444.537898 151.654234 
L 446.566989 154.11977 
L 448.59608 155.048733 
L 450.62517 153.344866 
L 452.654261 153.231589 
L 454.683352 154.848303 
L 456.712443 153.800574 
L 458.741534 157.048832 
L 460.770625 156.893901 
L 462.799716 155.884159 
L 464.828807 156.207196 
L 468.886989 155.9323 
L 470.91608 157.966988 
L 472.94517 160.584037 
L 474.974261 159.109185 
L 477.003352 160.133137 
L 479.032443 157.417522 
L 481.061534 158.294861 
L 483.090625 157.179436 
L 485.119716 156.74332 
L 487.148807 152.371756 
L 489.177898 154.608543 
L 491.206989 154.732663 
L 493.23608 156.74822 
L 495.26517 153.888262 
L 497.294261 153.0428 
L 499.323352 149.447487 
L 501.352443 149.480507 
L 503.381534 149.219328 
L 505.410625 150.998212 
L 507.439716 153.308223 
L 509.468807 154.868603 
L 511.497898 153.249777 
L 513.526989 154.622314 
L 515.55608 153.342076 
L 517.58517 153.92423 
L 519.614261 155.062312 
L 521.643352 156.883775 
L 523.672443 155.221922 
L 525.701534 156.801697 
L 529.759716 155.609429 
L 531.788807 154.116463 
L 533.817898 155.313135 
L 535.846989 156.80764 
L 537.87608 155.756673 
L 539.90517 156.419443 
L 541.934261 154.641703 
L 543.963352 156.161499 
L 545.992443 154.121002 
L 548.021534 156.645991 
L 550.050625 155.529907 
L 552.079716 156.176916 
L 554.108807 155.396429 
L 556.137898 155.88568 
L 558.166989 155.259632 
L 560.19608 153.799706 
L 562.22517 154.311158 
L 564.254261 153.059434 
L 566.283352 154.648248 
L 568.312443 155.120642 
L 570.341534 153.132141 
L 572.370625 153.483931 
L 574.399716 154.04572 
L 576.428807 154.987186 
L 578.457898 154.816669 
L 580.486989 154.119129 
L 582.51608 153.202575 
L 584.54517 153.916273 
L 586.574261 152.705682 
L 588.603352 152.166556 
L 590.632443 152.402338 
L 592.661534 152.180249 
L 594.690625 154.11953 
L 596.719716 152.016894 
L 598.748807 153.003526 
L 600.777898 151.826107 
L 602.806989 152.171399 
L 604.83608 153.165678 
L 606.86517 152.958836 
L 608.894261 151.2627 
L 610.923352 152.237006 
L 612.952443 152.790376 
L 617.010625 149.160309 
L 621.068807 150.86653 
L 623.097898 150.354096 
L 625.126989 149.479063 
L 625.126989 149.479063 
" clip-path="url(#p629de34555)" style="fill: none; stroke: #1f77b4; stroke-width: 1.5; stroke-linecap: square"/>
   </g>
   <g id="line2d_13">
    <path d="M 117.854261 283.817858 
L 119.883352 296.03625 
L 121.912443 270.616898 
L 123.941534 261.343127 
L 125.970625 266.675624 
L 127.999716 254.3987 
L 130.028807 253.78483 
L 132.057898 234.718979 
L 134.086989 243.174054 
L 136.11608 233.622601 
L 138.14517 255.831372 
L 140.174261 226.820111 
L 142.203352 231.623087 
L 144.232443 222.755458 
L 146.261534 237.090497 
L 148.290625 221.800231 
L 150.319716 220.580769 
L 152.348807 239.851293 
L 154.377898 218.690556 
L 156.406989 208.012777 
L 158.43608 213.077702 
L 160.46517 203.210023 
L 162.494261 204.36703 
L 164.523352 200.127711 
L 166.552443 197.699217 
L 168.581534 197.009593 
L 170.610625 192.778947 
L 172.639716 193.284367 
L 174.668807 191.367776 
L 176.697898 190.032498 
L 178.726989 190.98049 
L 180.75608 192.754977 
L 182.78517 191.632475 
L 184.814261 189.511802 
L 186.843352 187.702186 
L 188.872443 186.31986 
L 190.901534 189.750291 
L 192.930625 188.198746 
L 194.959716 189.00049 
L 196.988807 189.320823 
L 199.017898 185.316259 
L 203.07608 184.835969 
L 205.10517 185.979726 
L 207.134261 188.292898 
L 209.163352 184.413948 
L 211.192443 186.018381 
L 213.221534 185.564117 
L 215.250625 183.829002 
L 217.279716 185.263654 
L 219.308807 184.827063 
L 221.337898 185.642403 
L 223.366989 185.081576 
L 225.39608 185.318168 
L 227.42517 184.356218 
L 229.454261 183.054028 
L 231.483352 183.091849 
L 233.512443 181.620767 
L 235.541534 181.838532 
L 237.570625 182.869973 
L 239.599716 182.690779 
L 241.628807 182.28129 
L 243.657898 180.870267 
L 245.686989 183.116401 
L 249.74517 184.052396 
L 251.774261 184.34861 
L 253.803352 182.464961 
L 257.861534 182.093607 
L 259.890625 184.792872 
L 261.919716 183.634699 
L 263.948807 183.261662 
L 265.977898 184.624761 
L 268.006989 183.487667 
L 270.03608 184.04581 
L 272.06517 182.432324 
L 274.094261 182.812326 
L 276.123352 182.662128 
L 278.152443 182.709696 
L 280.181534 182.390061 
L 282.210625 182.933603 
L 284.239716 185.113963 
L 286.268807 183.825193 
L 288.297898 181.5119 
L 290.326989 182.332163 
L 292.35608 182.657852 
L 294.38517 183.310738 
L 296.414261 183.531447 
L 298.443352 183.308215 
L 300.472443 183.62141 
L 302.501534 184.483335 
L 304.530625 183.45188 
L 308.588807 184.197178 
L 310.617898 183.120905 
L 312.646989 182.57126 
L 314.67608 183.383851 
L 316.70517 182.947738 
L 318.734261 183.167254 
L 320.763352 183.694203 
L 322.792443 183.057892 
L 324.821534 183.707169 
L 326.850625 182.282464 
L 328.879716 184.110702 
L 330.908807 183.132366 
L 332.937898 184.305063 
L 334.966989 182.879901 
L 336.99608 183.550493 
L 341.054261 183.501126 
L 343.083352 182.388915 
L 345.112443 182.417677 
L 347.141534 182.173322 
L 349.170625 183.391072 
L 353.228807 182.940126 
L 355.257898 182.46022 
L 357.286989 182.325477 
L 359.31608 181.724674 
L 361.34517 181.502345 
L 363.374261 182.064616 
L 365.403352 182.799914 
L 369.461534 182.042545 
L 371.490625 182.333771 
L 373.519716 181.160114 
L 375.548807 183.896472 
L 377.577898 182.550055 
L 379.606989 182.064496 
L 381.63608 181.125233 
L 383.66517 181.238594 
L 385.694261 182.004937 
L 387.723352 182.161104 
L 389.752443 181.414516 
L 391.781534 182.304203 
L 393.810625 181.874481 
L 395.839716 181.798224 
L 397.868807 181.982022 
L 399.897898 181.109051 
L 401.926989 182.125077 
L 403.95608 182.440727 
L 408.014261 181.187696 
L 410.043352 181.751393 
L 412.072443 181.583518 
L 414.101534 182.175445 
L 416.130625 183.160066 
L 418.159716 182.022578 
L 420.188807 181.400837 
L 422.217898 182.131949 
L 424.246989 182.736279 
L 426.27608 182.132305 
L 428.30517 183.201044 
L 430.334261 183.390734 
L 432.363352 183.243412 
L 434.392443 181.991815 
L 436.421534 182.189411 
L 438.450625 182.274377 
L 440.479716 183.17882 
L 442.508807 183.428812 
L 444.537898 183.886167 
L 446.566989 182.608761 
L 448.59608 183.712115 
L 452.654261 183.277566 
L 454.683352 183.511026 
L 460.770625 183.633084 
L 462.799716 183.299605 
L 464.828807 183.783579 
L 466.857898 183.910268 
L 470.91608 184.92944 
L 472.94517 183.203228 
L 474.974261 183.314599 
L 477.003352 184.512217 
L 479.032443 183.829892 
L 481.061534 184.829618 
L 483.090625 183.795532 
L 485.119716 182.312542 
L 487.148807 181.114258 
L 491.206989 183.511928 
L 493.23608 183.577943 
L 495.26517 183.326592 
L 497.294261 182.786861 
L 499.323352 183.101856 
L 501.352443 182.860106 
L 503.381534 182.896584 
L 505.410625 183.097378 
L 507.439716 182.191737 
L 509.468807 183.797359 
L 511.497898 182.707522 
L 513.526989 182.50586 
L 515.55608 183.114747 
L 517.58517 182.718723 
L 519.614261 182.923467 
L 521.643352 182.183745 
L 523.672443 183.353683 
L 525.701534 182.7453 
L 527.730625 183.01248 
L 529.759716 183.68453 
L 531.788807 181.987794 
L 533.817898 182.613563 
L 537.87608 183.524069 
L 539.90517 183.241964 
L 541.934261 183.384202 
L 543.963352 183.856913 
L 545.992443 184.648702 
L 548.021534 182.602124 
L 550.050625 183.351471 
L 552.079716 182.881703 
L 554.108807 182.699623 
L 556.137898 182.807006 
L 558.166989 183.289597 
L 560.19608 183.602981 
L 562.22517 184.277064 
L 564.254261 184.604789 
L 566.283352 184.052045 
L 568.312443 183.243903 
L 570.341534 184.052092 
L 574.399716 183.603225 
L 576.428807 183.57647 
L 578.457898 184.190813 
L 580.486989 183.846776 
L 582.51608 183.1117 
L 584.54517 183.575398 
L 586.574261 183.826855 
L 588.603352 183.216567 
L 590.632443 183.100553 
L 592.661534 183.61975 
L 594.690625 183.712894 
L 596.719716 183.597435 
L 598.748807 182.929186 
L 600.777898 183.970208 
L 602.806989 183.329715 
L 606.86517 183.487367 
L 608.894261 184.025893 
L 610.923352 183.355025 
L 614.981534 184.172635 
L 617.010625 183.89308 
L 619.039716 184.720582 
L 621.068807 185.250018 
L 623.097898 183.991193 
L 625.126989 180.264595 
L 625.126989 180.264595 
" clip-path="url(#p629de34555)" style="fill: none; stroke: #ff7f0e; stroke-width: 1.5; stroke-linecap: square"/>
   </g>
   <g id="patch_3">
    <path d="M 92.490625 308.63625 
L 92.490625 31.43625 
" style="fill: none; stroke: #000000; stroke-width: 0.8; stroke-linejoin: miter; stroke-linecap: square"/>
   </g>
   <g id="patch_4">
    <path d="M 650.490625 308.63625 
L 650.490625 31.43625 
" style="fill: none; stroke: #000000; stroke-width: 0.8; stroke-linejoin: miter; stroke-linecap: square"/>
   </g>
   <g id="patch_5">
    <path d="M 92.490625 308.63625 
L 650.490625 308.63625 
" style="fill: none; stroke: #000000; stroke-width: 0.8; stroke-linejoin: miter; stroke-linecap: square"/>
   </g>
   <g id="patch_6">
    <path d="M 92.490625 31.43625 
L 650.490625 31.43625 
" style="fill: none; stroke: #000000; stroke-width: 0.8; stroke-linejoin: miter; stroke-linecap: square"/>
   </g>
   <g id="text_14">
    <!-- Generator and Discriminator Loss During Training -->
    <g transform="translate(74.258125 25.43625) scale(0.24 -0.24)">
     <defs>
      <path id="DejaVuSans-47" d="M 3809 666 
L 3809 1919 
L 2778 1919 
L 2778 2438 
L 4434 2438 
L 4434 434 
Q 4069 175 3628 42 
Q 3188 -91 2688 -91 
Q 1594 -91 976 548 
Q 359 1188 359 2328 
Q 359 3472 976 4111 
Q 1594 4750 2688 4750 
Q 3144 4750 3555 4637 
Q 3966 4525 4313 4306 
L 4313 3634 
Q 3963 3931 3569 4081 
Q 3175 4231 2741 4231 
Q 1884 4231 1454 3753 
Q 1025 3275 1025 2328 
Q 1025 1384 1454 906 
Q 1884 428 2741 428 
Q 3075 428 3337 486 
Q 3600 544 3809 666 
z
" transform="scale(0.015625)"/>
      <path id="DejaVuSans-20" transform="scale(0.015625)"/>
      <path id="DejaVuSans-64" d="M 2906 2969 
L 2906 4863 
L 3481 4863 
L 3481 0 
L 2906 0 
L 2906 525 
Q 2725 213 2448 61 
Q 2172 -91 1784 -91 
Q 1150 -91 751 415 
Q 353 922 353 1747 
Q 353 2572 751 3078 
Q 1150 3584 1784 3584 
Q 2172 3584 2448 3432 
Q 2725 3281 2906 2969 
z
M 947 1747 
Q 947 1113 1208 752 
Q 1469 391 1925 391 
Q 2381 391 2643 752 
Q 2906 1113 2906 1747 
Q 2906 2381 2643 2742 
Q 2381 3103 1925 3103 
Q 1469 3103 1208 2742 
Q 947 2381 947 1747 
z
" transform="scale(0.015625)"/>
      <path id="DejaVuSans-44" d="M 1259 4147 
L 1259 519 
L 2022 519 
Q 2988 519 3436 956 
Q 3884 1394 3884 2338 
Q 3884 3275 3436 3711 
Q 2988 4147 2022 4147 
L 1259 4147 
z
M 628 4666 
L 1925 4666 
Q 3281 4666 3915 4102 
Q 4550 3538 4550 2338 
Q 4550 1131 3912 565 
Q 3275 0 1925 0 
L 628 0 
L 628 4666 
z
" transform="scale(0.015625)"/>
      <path id="DejaVuSans-63" d="M 3122 3366 
L 3122 2828 
Q 2878 2963 2633 3030 
Q 2388 3097 2138 3097 
Q 1578 3097 1268 2742 
Q 959 2388 959 1747 
Q 959 1106 1268 751 
Q 1578 397 2138 397 
Q 2388 397 2633 464 
Q 2878 531 3122 666 
L 3122 134 
Q 2881 22 2623 -34 
Q 2366 -91 2075 -91 
Q 1284 -91 818 406 
Q 353 903 353 1747 
Q 353 2603 823 3093 
Q 1294 3584 2113 3584 
Q 2378 3584 2631 3529 
Q 2884 3475 3122 3366 
z
" transform="scale(0.015625)"/>
      <path id="DejaVuSans-6d" d="M 3328 2828 
Q 3544 3216 3844 3400 
Q 4144 3584 4550 3584 
Q 5097 3584 5394 3201 
Q 5691 2819 5691 2113 
L 5691 0 
L 5113 0 
L 5113 2094 
Q 5113 2597 4934 2840 
Q 4756 3084 4391 3084 
Q 3944 3084 3684 2787 
Q 3425 2491 3425 1978 
L 3425 0 
L 2847 0 
L 2847 2094 
Q 2847 2600 2669 2842 
Q 2491 3084 2119 3084 
Q 1678 3084 1418 2786 
Q 1159 2488 1159 1978 
L 1159 0 
L 581 0 
L 581 3500 
L 1159 3500 
L 1159 2956 
Q 1356 3278 1631 3431 
Q 1906 3584 2284 3584 
Q 2666 3584 2933 3390 
Q 3200 3197 3328 2828 
z
" transform="scale(0.015625)"/>
      <path id="DejaVuSans-75" d="M 544 1381 
L 544 3500 
L 1119 3500 
L 1119 1403 
Q 1119 906 1312 657 
Q 1506 409 1894 409 
Q 2359 409 2629 706 
Q 2900 1003 2900 1516 
L 2900 3500 
L 3475 3500 
L 3475 0 
L 2900 0 
L 2900 538 
Q 2691 219 2414 64 
Q 2138 -91 1772 -91 
Q 1169 -91 856 284 
Q 544 659 544 1381 
z
M 1991 3584 
L 1991 3584 
z
" transform="scale(0.015625)"/>
      <path id="DejaVuSans-67" d="M 2906 1791 
Q 2906 2416 2648 2759 
Q 2391 3103 1925 3103 
Q 1463 3103 1205 2759 
Q 947 2416 947 1791 
Q 947 1169 1205 825 
Q 1463 481 1925 481 
Q 2391 481 2648 825 
Q 2906 1169 2906 1791 
z
M 3481 434 
Q 3481 -459 3084 -895 
Q 2688 -1331 1869 -1331 
Q 1566 -1331 1297 -1286 
Q 1028 -1241 775 -1147 
L 775 -588 
Q 1028 -725 1275 -790 
Q 1522 -856 1778 -856 
Q 2344 -856 2625 -561 
Q 2906 -266 2906 331 
L 2906 616 
Q 2728 306 2450 153 
Q 2172 0 1784 0 
Q 1141 0 747 490 
Q 353 981 353 1791 
Q 353 2603 747 3093 
Q 1141 3584 1784 3584 
Q 2172 3584 2450 3431 
Q 2728 3278 2906 2969 
L 2906 3500 
L 3481 3500 
L 3481 434 
z
" transform="scale(0.015625)"/>
      <path id="DejaVuSans-54" d="M -19 4666 
L 3928 4666 
L 3928 4134 
L 2272 4134 
L 2272 0 
L 1638 0 
L 1638 4134 
L -19 4134 
L -19 4666 
z
" transform="scale(0.015625)"/>
     </defs>
     <use xlink:href="#DejaVuSans-47"/>
     <use xlink:href="#DejaVuSans-65" x="77.490234"/>
     <use xlink:href="#DejaVuSans-6e" x="139.013672"/>
     <use xlink:href="#DejaVuSans-65" x="202.392578"/>
     <use xlink:href="#DejaVuSans-72" x="263.916016"/>
     <use xlink:href="#DejaVuSans-61" x="305.029297"/>
     <use xlink:href="#DejaVuSans-74" x="366.308594"/>
     <use xlink:href="#DejaVuSans-6f" x="405.517578"/>
     <use xlink:href="#DejaVuSans-72" x="466.699219"/>
     <use xlink:href="#DejaVuSans-20" x="507.8125"/>
     <use xlink:href="#DejaVuSans-61" x="539.599609"/>
     <use xlink:href="#DejaVuSans-6e" x="600.878906"/>
     <use xlink:href="#DejaVuSans-64" x="664.257812"/>
     <use xlink:href="#DejaVuSans-20" x="727.734375"/>
     <use xlink:href="#DejaVuSans-44" x="759.521484"/>
     <use xlink:href="#DejaVuSans-69" x="836.523438"/>
     <use xlink:href="#DejaVuSans-73" x="864.306641"/>
     <use xlink:href="#DejaVuSans-63" x="916.40625"/>
     <use xlink:href="#DejaVuSans-72" x="971.386719"/>
     <use xlink:href="#DejaVuSans-69" x="1012.5"/>
     <use xlink:href="#DejaVuSans-6d" x="1040.283203"/>
     <use xlink:href="#DejaVuSans-69" x="1137.695312"/>
     <use xlink:href="#DejaVuSans-6e" x="1165.478516"/>
     <use xlink:href="#DejaVuSans-61" x="1228.857422"/>
     <use xlink:href="#DejaVuSans-74" x="1290.136719"/>
     <use xlink:href="#DejaVuSans-6f" x="1329.345703"/>
     <use xlink:href="#DejaVuSans-72" x="1390.527344"/>
     <use xlink:href="#DejaVuSans-20" x="1431.640625"/>
     <use xlink:href="#DejaVuSans-4c" x="1463.427734"/>
     <use xlink:href="#DejaVuSans-6f" x="1517.390625"/>
     <use xlink:href="#DejaVuSans-73" x="1578.572266"/>
     <use xlink:href="#DejaVuSans-73" x="1630.671875"/>
     <use xlink:href="#DejaVuSans-20" x="1682.771484"/>
     <use xlink:href="#DejaVuSans-44" x="1714.558594"/>
     <use xlink:href="#DejaVuSans-75" x="1791.560547"/>
     <use xlink:href="#DejaVuSans-72" x="1854.939453"/>
     <use xlink:href="#DejaVuSans-69" x="1896.052734"/>
     <use xlink:href="#DejaVuSans-6e" x="1923.835938"/>
     <use xlink:href="#DejaVuSans-67" x="1987.214844"/>
     <use xlink:href="#DejaVuSans-20" x="2050.691406"/>
     <use xlink:href="#DejaVuSans-54" x="2082.478516"/>
     <use xlink:href="#DejaVuSans-72" x="2128.8125"/>
     <use xlink:href="#DejaVuSans-61" x="2169.925781"/>
     <use xlink:href="#DejaVuSans-69" x="2231.205078"/>
     <use xlink:href="#DejaVuSans-6e" x="2258.988281"/>
     <use xlink:href="#DejaVuSans-69" x="2322.367188"/>
     <use xlink:href="#DejaVuSans-6e" x="2350.150391"/>
     <use xlink:href="#DejaVuSans-67" x="2413.529297"/>
    </g>
   </g>
   <g id="legend_1">
    <g id="patch_7">
     <path d="M 556.99375 106.14875 
L 636.490625 106.14875 
Q 640.490625 106.14875 640.490625 102.14875 
L 640.490625 45.43625 
Q 640.490625 41.43625 636.490625 41.43625 
L 556.99375 41.43625 
Q 552.99375 41.43625 552.99375 45.43625 
L 552.99375 102.14875 
Q 552.99375 106.14875 556.99375 106.14875 
z
" style="fill: #ffffff; opacity: 0.8; stroke: #cccccc; stroke-linejoin: miter"/>
    </g>
    <g id="line2d_14">
     <path d="M 560.99375 57.633125 
L 580.99375 57.633125 
L 600.99375 57.633125 
" style="fill: none; stroke: #1f77b4; stroke-width: 1.5; stroke-linecap: square"/>
    </g>
    <g id="text_15">
     <!-- G -->
     <g transform="translate(616.99375 64.633125) scale(0.2 -0.2)">
      <use xlink:href="#DejaVuSans-47"/>
     </g>
    </g>
    <g id="line2d_15">
     <path d="M 560.99375 86.989375 
L 580.99375 86.989375 
L 600.99375 86.989375 
" style="fill: none; stroke: #ff7f0e; stroke-width: 1.5; stroke-linecap: square"/>
    </g>
    <g id="text_16">
     <!-- D -->
     <g transform="translate(616.99375 93.989375) scale(0.2 -0.2)">
      <use xlink:href="#DejaVuSans-44"/>
     </g>
    </g>
   </g>
  </g>
 </g>
 <defs>
  <clipPath id="p629de34555">
   <rect x="92.490625" y="31.43625" width="558" height="277.2"/>
  </clipPath>
 </defs>
</svg>
