<?xml version="1.0" encoding="utf-8" standalone="no"?>
<!DOCTYPE svg PUBLIC "-//W3C//DTD SVG 1.1//EN"
  "http://www.w3.org/Graphics/SVG/1.1/DTD/svg11.dtd">
<svg xmlns:xlink="http://www.w3.org/1999/xlink" width="675.923125pt" height="365.54875pt" viewBox="0 0 675.923125 365.54875" xmlns="http://www.w3.org/2000/svg" version="1.1">
 <metadata>
  <rdf:RDF xmlns:dc="http://purl.org/dc/elements/1.1/" xmlns:cc="http://creativecommons.org/ns#" xmlns:rdf="http://www.w3.org/1999/02/22-rdf-syntax-ns#">
   <cc:Work>
    <dc:type rdf:resource="http://purl.org/dc/dcmitype/StillImage"/>
    <dc:date>2024-02-01T17:46:44.904899</dc:date>
    <dc:format>image/svg+xml</dc:format>
    <dc:creator>
     <cc:Agent>
      <dc:title>Matplotlib v3.7.2, https://matplotlib.org/</dc:title>
     </cc:Agent>
    </dc:creator>
   </cc:Work>
  </rdf:RDF>
 </metadata>
 <defs>
  <style type="text/css">*{stroke-linejoin: round; stroke-linecap: butt}</style>
 </defs>
 <g id="figure_1">
  <g id="patch_1">
   <path d="M 0 365.54875 
L 675.923125 365.54875 
L 675.923125 -0 
L 0 -0 
z
" style="fill: #ffffff"/>
  </g>
  <g id="axes_1">
   <g id="patch_2">
    <path d="M 92.490625 308.63625 
L 650.490625 308.63625 
L 650.490625 31.43625 
L 92.490625 31.43625 
z
" style="fill: #ffffff"/>
   </g>
   <g id="matplotlib.axis_1">
    <g id="xtick_1">
     <g id="line2d_1">
      <defs>
       <path id="mcf5d6d12eb" d="M 0 0 
L 0 3.5 
" style="stroke: #000000; stroke-width: 0.8"/>
      </defs>
      <g>
       <use xlink:href="#mcf5d6d12eb" x="117.854261" y="308.63625" style="stroke: #000000; stroke-width: 0.8"/>
      </g>
     </g>
     <g id="text_1">
      <!-- 0 -->
      <g transform="translate(111.491761 330.833125) scale(0.2 -0.2)">
       <defs>
        <path id="DejaVuSans-30" d="M 2034 4250 
Q 1547 4250 1301 3770 
Q 1056 3291 1056 2328 
Q 1056 1369 1301 889 
Q 1547 409 2034 409 
Q 2525 409 2770 889 
Q 3016 1369 3016 2328 
Q 3016 3291 2770 3770 
Q 2525 4250 2034 4250 
z
M 2034 4750 
Q 2819 4750 3233 4129 
Q 3647 3509 3647 2328 
Q 3647 1150 3233 529 
Q 2819 -91 2034 -91 
Q 1250 -91 836 529 
Q 422 1150 422 2328 
Q 422 3509 836 4129 
Q 1250 4750 2034 4750 
z
" transform="scale(0.015625)"/>
       </defs>
       <use xlink:href="#DejaVuSans-30"/>
      </g>
     </g>
    </g>
    <g id="xtick_2">
     <g id="line2d_2">
      <g>
       <use xlink:href="#mcf5d6d12eb" x="210.085666" y="308.63625" style="stroke: #000000; stroke-width: 0.8"/>
      </g>
     </g>
     <g id="text_2">
      <!-- 100 -->
      <g transform="translate(190.998166 330.833125) scale(0.2 -0.2)">
       <defs>
        <path id="DejaVuSans-31" d="M 794 531 
L 1825 531 
L 1825 4091 
L 703 3866 
L 703 4441 
L 1819 4666 
L 2450 4666 
L 2450 531 
L 3481 531 
L 3481 0 
L 794 0 
L 794 531 
z
" transform="scale(0.015625)"/>
       </defs>
       <use xlink:href="#DejaVuSans-31"/>
       <use xlink:href="#DejaVuSans-30" x="63.623047"/>
       <use xlink:href="#DejaVuSans-30" x="127.246094"/>
      </g>
     </g>
    </g>
    <g id="xtick_3">
     <g id="line2d_3">
      <g>
       <use xlink:href="#mcf5d6d12eb" x="302.317071" y="308.63625" style="stroke: #000000; stroke-width: 0.8"/>
      </g>
     </g>
     <g id="text_3">
      <!-- 200 -->
      <g transform="translate(283.229571 330.833125) scale(0.2 -0.2)">
       <defs>
        <path id="DejaVuSans-32" d="M 1228 531 
L 3431 531 
L 3431 0 
L 469 0 
L 469 531 
Q 828 903 1448 1529 
Q 2069 2156 2228 2338 
Q 2531 2678 2651 2914 
Q 2772 3150 2772 3378 
Q 2772 3750 2511 3984 
Q 2250 4219 1831 4219 
Q 1534 4219 1204 4116 
Q 875 4013 500 3803 
L 500 4441 
Q 881 4594 1212 4672 
Q 1544 4750 1819 4750 
Q 2544 4750 2975 4387 
Q 3406 4025 3406 3419 
Q 3406 3131 3298 2873 
Q 3191 2616 2906 2266 
Q 2828 2175 2409 1742 
Q 1991 1309 1228 531 
z
" transform="scale(0.015625)"/>
       </defs>
       <use xlink:href="#DejaVuSans-32"/>
       <use xlink:href="#DejaVuSans-30" x="63.623047"/>
       <use xlink:href="#DejaVuSans-30" x="127.246094"/>
      </g>
     </g>
    </g>
    <g id="xtick_4">
     <g id="line2d_4">
      <g>
       <use xlink:href="#mcf5d6d12eb" x="394.548476" y="308.63625" style="stroke: #000000; stroke-width: 0.8"/>
      </g>
     </g>
     <g id="text_4">
      <!-- 300 -->
      <g transform="translate(375.460976 330.833125) scale(0.2 -0.2)">
       <defs>
        <path id="DejaVuSans-33" d="M 2597 2516 
Q 3050 2419 3304 2112 
Q 3559 1806 3559 1356 
Q 3559 666 3084 287 
Q 2609 -91 1734 -91 
Q 1441 -91 1130 -33 
Q 819 25 488 141 
L 488 750 
Q 750 597 1062 519 
Q 1375 441 1716 441 
Q 2309 441 2620 675 
Q 2931 909 2931 1356 
Q 2931 1769 2642 2001 
Q 2353 2234 1838 2234 
L 1294 2234 
L 1294 2753 
L 1863 2753 
Q 2328 2753 2575 2939 
Q 2822 3125 2822 3475 
Q 2822 3834 2567 4026 
Q 2313 4219 1838 4219 
Q 1578 4219 1281 4162 
Q 984 4106 628 3988 
L 628 4550 
Q 988 4650 1302 4700 
Q 1616 4750 1894 4750 
Q 2613 4750 3031 4423 
Q 3450 4097 3450 3541 
Q 3450 3153 3228 2886 
Q 3006 2619 2597 2516 
z
" transform="scale(0.015625)"/>
       </defs>
       <use xlink:href="#DejaVuSans-33"/>
       <use xlink:href="#DejaVuSans-30" x="63.623047"/>
       <use xlink:href="#DejaVuSans-30" x="127.246094"/>
      </g>
     </g>
    </g>
    <g id="xtick_5">
     <g id="line2d_5">
      <g>
       <use xlink:href="#mcf5d6d12eb" x="486.779881" y="308.63625" style="stroke: #000000; stroke-width: 0.8"/>
      </g>
     </g>
     <g id="text_5">
      <!-- 400 -->
      <g transform="translate(467.692381 330.833125) scale(0.2 -0.2)">
       <defs>
        <path id="DejaVuSans-34" d="M 2419 4116 
L 825 1625 
L 2419 1625 
L 2419 4116 
z
M 2253 4666 
L 3047 4666 
L 3047 1625 
L 3713 1625 
L 3713 1100 
L 3047 1100 
L 3047 0 
L 2419 0 
L 2419 1100 
L 313 1100 
L 313 1709 
L 2253 4666 
z
" transform="scale(0.015625)"/>
       </defs>
       <use xlink:href="#DejaVuSans-34"/>
       <use xlink:href="#DejaVuSans-30" x="63.623047"/>
       <use xlink:href="#DejaVuSans-30" x="127.246094"/>
      </g>
     </g>
    </g>
    <g id="xtick_6">
     <g id="line2d_6">
      <g>
       <use xlink:href="#mcf5d6d12eb" x="579.011286" y="308.63625" style="stroke: #000000; stroke-width: 0.8"/>
      </g>
     </g>
     <g id="text_6">
      <!-- 500 -->
      <g transform="translate(559.923786 330.833125) scale(0.2 -0.2)">
       <defs>
        <path id="DejaVuSans-35" d="M 691 4666 
L 3169 4666 
L 3169 4134 
L 1269 4134 
L 1269 2991 
Q 1406 3038 1543 3061 
Q 1681 3084 1819 3084 
Q 2600 3084 3056 2656 
Q 3513 2228 3513 1497 
Q 3513 744 3044 326 
Q 2575 -91 1722 -91 
Q 1428 -91 1123 -41 
Q 819 9 494 109 
L 494 744 
Q 775 591 1075 516 
Q 1375 441 1709 441 
Q 2250 441 2565 725 
Q 2881 1009 2881 1497 
Q 2881 1984 2565 2268 
Q 2250 2553 1709 2553 
Q 1456 2553 1204 2497 
Q 953 2441 691 2322 
L 691 4666 
z
" transform="scale(0.015625)"/>
       </defs>
       <use xlink:href="#DejaVuSans-35"/>
       <use xlink:href="#DejaVuSans-30" x="63.623047"/>
       <use xlink:href="#DejaVuSans-30" x="127.246094"/>
      </g>
     </g>
    </g>
    <g id="text_7">
     <!-- iterations -->
     <g transform="translate(324.035938 354.189375) scale(0.2 -0.2)">
      <defs>
       <path id="DejaVuSans-69" d="M 603 3500 
L 1178 3500 
L 1178 0 
L 603 0 
L 603 3500 
z
M 603 4863 
L 1178 4863 
L 1178 4134 
L 603 4134 
L 603 4863 
z
" transform="scale(0.015625)"/>
       <path id="DejaVuSans-74" d="M 1172 4494 
L 1172 3500 
L 2356 3500 
L 2356 3053 
L 1172 3053 
L 1172 1153 
Q 1172 725 1289 603 
Q 1406 481 1766 481 
L 2356 481 
L 2356 0 
L 1766 0 
Q 1100 0 847 248 
Q 594 497 594 1153 
L 594 3053 
L 172 3053 
L 172 3500 
L 594 3500 
L 594 4494 
L 1172 4494 
z
" transform="scale(0.015625)"/>
       <path id="DejaVuSans-65" d="M 3597 1894 
L 3597 1613 
L 953 1613 
Q 991 1019 1311 708 
Q 1631 397 2203 397 
Q 2534 397 2845 478 
Q 3156 559 3463 722 
L 3463 178 
Q 3153 47 2828 -22 
Q 2503 -91 2169 -91 
Q 1331 -91 842 396 
Q 353 884 353 1716 
Q 353 2575 817 3079 
Q 1281 3584 2069 3584 
Q 2775 3584 3186 3129 
Q 3597 2675 3597 1894 
z
M 3022 2063 
Q 3016 2534 2758 2815 
Q 2500 3097 2075 3097 
Q 1594 3097 1305 2825 
Q 1016 2553 972 2059 
L 3022 2063 
z
" transform="scale(0.015625)"/>
       <path id="DejaVuSans-72" d="M 2631 2963 
Q 2534 3019 2420 3045 
Q 2306 3072 2169 3072 
Q 1681 3072 1420 2755 
Q 1159 2438 1159 1844 
L 1159 0 
L 581 0 
L 581 3500 
L 1159 3500 
L 1159 2956 
Q 1341 3275 1631 3429 
Q 1922 3584 2338 3584 
Q 2397 3584 2469 3576 
Q 2541 3569 2628 3553 
L 2631 2963 
z
" transform="scale(0.015625)"/>
       <path id="DejaVuSans-61" d="M 2194 1759 
Q 1497 1759 1228 1600 
Q 959 1441 959 1056 
Q 959 750 1161 570 
Q 1363 391 1709 391 
Q 2188 391 2477 730 
Q 2766 1069 2766 1631 
L 2766 1759 
L 2194 1759 
z
M 3341 1997 
L 3341 0 
L 2766 0 
L 2766 531 
Q 2569 213 2275 61 
Q 1981 -91 1556 -91 
Q 1019 -91 701 211 
Q 384 513 384 1019 
Q 384 1609 779 1909 
Q 1175 2209 1959 2209 
L 2766 2209 
L 2766 2266 
Q 2766 2663 2505 2880 
Q 2244 3097 1772 3097 
Q 1472 3097 1187 3025 
Q 903 2953 641 2809 
L 641 3341 
Q 956 3463 1253 3523 
Q 1550 3584 1831 3584 
Q 2591 3584 2966 3190 
Q 3341 2797 3341 1997 
z
" transform="scale(0.015625)"/>
       <path id="DejaVuSans-6f" d="M 1959 3097 
Q 1497 3097 1228 2736 
Q 959 2375 959 1747 
Q 959 1119 1226 758 
Q 1494 397 1959 397 
Q 2419 397 2687 759 
Q 2956 1122 2956 1747 
Q 2956 2369 2687 2733 
Q 2419 3097 1959 3097 
z
M 1959 3584 
Q 2709 3584 3137 3096 
Q 3566 2609 3566 1747 
Q 3566 888 3137 398 
Q 2709 -91 1959 -91 
Q 1206 -91 779 398 
Q 353 888 353 1747 
Q 353 2609 779 3096 
Q 1206 3584 1959 3584 
z
" transform="scale(0.015625)"/>
       <path id="DejaVuSans-6e" d="M 3513 2113 
L 3513 0 
L 2938 0 
L 2938 2094 
Q 2938 2591 2744 2837 
Q 2550 3084 2163 3084 
Q 1697 3084 1428 2787 
Q 1159 2491 1159 1978 
L 1159 0 
L 581 0 
L 581 3500 
L 1159 3500 
L 1159 2956 
Q 1366 3272 1645 3428 
Q 1925 3584 2291 3584 
Q 2894 3584 3203 3211 
Q 3513 2838 3513 2113 
z
" transform="scale(0.015625)"/>
       <path id="DejaVuSans-73" d="M 2834 3397 
L 2834 2853 
Q 2591 2978 2328 3040 
Q 2066 3103 1784 3103 
Q 1356 3103 1142 2972 
Q 928 2841 928 2578 
Q 928 2378 1081 2264 
Q 1234 2150 1697 2047 
L 1894 2003 
Q 2506 1872 2764 1633 
Q 3022 1394 3022 966 
Q 3022 478 2636 193 
Q 2250 -91 1575 -91 
Q 1294 -91 989 -36 
Q 684 19 347 128 
L 347 722 
Q 666 556 975 473 
Q 1284 391 1588 391 
Q 1994 391 2212 530 
Q 2431 669 2431 922 
Q 2431 1156 2273 1281 
Q 2116 1406 1581 1522 
L 1381 1569 
Q 847 1681 609 1914 
Q 372 2147 372 2553 
Q 372 3047 722 3315 
Q 1072 3584 1716 3584 
Q 2034 3584 2315 3537 
Q 2597 3491 2834 3397 
z
" transform="scale(0.015625)"/>
      </defs>
      <use xlink:href="#DejaVuSans-69"/>
      <use xlink:href="#DejaVuSans-74" x="27.783203"/>
      <use xlink:href="#DejaVuSans-65" x="66.992188"/>
      <use xlink:href="#DejaVuSans-72" x="128.515625"/>
      <use xlink:href="#DejaVuSans-61" x="169.628906"/>
      <use xlink:href="#DejaVuSans-74" x="230.908203"/>
      <use xlink:href="#DejaVuSans-69" x="270.117188"/>
      <use xlink:href="#DejaVuSans-6f" x="297.900391"/>
      <use xlink:href="#DejaVuSans-6e" x="359.082031"/>
      <use xlink:href="#DejaVuSans-73" x="422.460938"/>
     </g>
    </g>
   </g>
   <g id="matplotlib.axis_2">
    <g id="ytick_1">
     <g id="line2d_7">
      <defs>
       <path id="m929ada7bc9" d="M 0 0 
L -3.5 0 
" style="stroke: #000000; stroke-width: 0.8"/>
      </defs>
      <g>
       <use xlink:href="#m929ada7bc9" x="92.490625" y="278.050314" style="stroke: #000000; stroke-width: 0.8"/>
      </g>
     </g>
     <g id="text_8">
      <!-- −200 -->
      <g transform="translate(30.55625 285.648751) scale(0.2 -0.2)">
       <defs>
        <path id="DejaVuSans-2212" d="M 678 2272 
L 4684 2272 
L 4684 1741 
L 678 1741 
L 678 2272 
z
" transform="scale(0.015625)"/>
       </defs>
       <use xlink:href="#DejaVuSans-2212"/>
       <use xlink:href="#DejaVuSans-32" x="83.789062"/>
       <use xlink:href="#DejaVuSans-30" x="147.412109"/>
       <use xlink:href="#DejaVuSans-30" x="211.035156"/>
      </g>
     </g>
    </g>
    <g id="ytick_2">
     <g id="line2d_8">
      <g>
       <use xlink:href="#m929ada7bc9" x="92.490625" y="225.895764" style="stroke: #000000; stroke-width: 0.8"/>
      </g>
     </g>
     <g id="text_9">
      <!-- −100 -->
      <g transform="translate(30.55625 233.494202) scale(0.2 -0.2)">
       <use xlink:href="#DejaVuSans-2212"/>
       <use xlink:href="#DejaVuSans-31" x="83.789062"/>
       <use xlink:href="#DejaVuSans-30" x="147.412109"/>
       <use xlink:href="#DejaVuSans-30" x="211.035156"/>
      </g>
     </g>
    </g>
    <g id="ytick_3">
     <g id="line2d_9">
      <g>
       <use xlink:href="#m929ada7bc9" x="92.490625" y="173.741215" style="stroke: #000000; stroke-width: 0.8"/>
      </g>
     </g>
     <g id="text_10">
      <!-- 0 -->
      <g transform="translate(72.765625 181.339652) scale(0.2 -0.2)">
       <use xlink:href="#DejaVuSans-30"/>
      </g>
     </g>
    </g>
    <g id="ytick_4">
     <g id="line2d_10">
      <g>
       <use xlink:href="#m929ada7bc9" x="92.490625" y="121.586665" style="stroke: #000000; stroke-width: 0.8"/>
      </g>
     </g>
     <g id="text_11">
      <!-- 100 -->
      <g transform="translate(47.315625 129.185102) scale(0.2 -0.2)">
       <use xlink:href="#DejaVuSans-31"/>
       <use xlink:href="#DejaVuSans-30" x="63.623047"/>
       <use xlink:href="#DejaVuSans-30" x="127.246094"/>
      </g>
     </g>
    </g>
    <g id="ytick_5">
     <g id="line2d_11">
      <g>
       <use xlink:href="#m929ada7bc9" x="92.490625" y="69.432115" style="stroke: #000000; stroke-width: 0.8"/>
      </g>
     </g>
     <g id="text_12">
      <!-- 200 -->
      <g transform="translate(47.315625 77.030553) scale(0.2 -0.2)">
       <use xlink:href="#DejaVuSans-32"/>
       <use xlink:href="#DejaVuSans-30" x="63.623047"/>
       <use xlink:href="#DejaVuSans-30" x="127.246094"/>
      </g>
     </g>
    </g>
    <g id="text_13">
     <!-- Loss -->
     <g transform="translate(22.396875 191.970625) rotate(-90) scale(0.2 -0.2)">
      <defs>
       <path id="DejaVuSans-4c" d="M 628 4666 
L 1259 4666 
L 1259 531 
L 3531 531 
L 3531 0 
L 628 0 
L 628 4666 
z
" transform="scale(0.015625)"/>
      </defs>
      <use xlink:href="#DejaVuSans-4c"/>
      <use xlink:href="#DejaVuSans-6f" x="53.962891"/>
      <use xlink:href="#DejaVuSans-73" x="115.144531"/>
      <use xlink:href="#DejaVuSans-73" x="167.244141"/>
     </g>
    </g>
   </g>
   <g id="line2d_12">
    <path d="M 117.854261 116.730416 
L 118.776575 62.430435 
L 119.698889 101.446911 
L 120.621204 97.742273 
L 121.543518 71.891481 
L 122.465832 66.005259 
L 123.388146 53.003453 
L 124.31046 50.572912 
L 125.232774 59.282987 
L 126.155088 64.407922 
L 127.077402 63.027834 
L 128.92203 72.758823 
L 129.844344 76.15716 
L 130.766658 51.933022 
L 131.688972 73.641653 
L 132.611286 118.042353 
L 133.5336 125.137272 
L 134.455914 90.657659 
L 135.378228 60.941522 
L 136.300542 44.03625 
L 137.222856 52.703352 
L 138.14517 66.415864 
L 139.989799 80.271673 
L 140.912113 77.046844 
L 141.834427 85.974109 
L 142.756741 89.320307 
L 143.679055 99.781725 
L 144.601369 103.629806 
L 145.523683 95.490293 
L 146.445997 93.742179 
L 147.368311 96.556052 
L 148.290625 104.56955 
L 149.212939 103.315712 
L 150.135253 106.314088 
L 151.057567 101.622759 
L 151.979881 103.726444 
L 152.902195 97.099143 
L 153.824509 105.59913 
L 154.746823 102.090241 
L 155.669137 108.846517 
L 156.591451 107.115866 
L 157.513765 107.768741 
L 158.43608 94.854922 
L 159.358394 103.509892 
L 160.280708 99.688151 
L 161.203022 99.279356 
L 162.125336 102.538264 
L 163.04765 101.345011 
L 163.969964 103.441635 
L 164.892278 100.626615 
L 165.814592 103.77917 
L 166.736906 108.446027 
L 167.65922 104.135863 
L 168.581534 113.024366 
L 169.503848 113.256683 
L 170.426162 118.953402 
L 171.348476 121.504437 
L 172.27079 125.536059 
L 173.193104 125.084203 
L 174.115418 124.975704 
L 175.037732 129.12069 
L 175.960046 129.965285 
L 176.882361 127.601113 
L 177.804675 122.813187 
L 178.726989 121.044518 
L 179.649303 125.340201 
L 180.571617 125.222212 
L 181.493931 129.200338 
L 182.416245 126.028649 
L 183.338559 128.68786 
L 184.260873 127.230402 
L 185.183187 125.98626 
L 186.105501 127.841862 
L 187.027815 125.227578 
L 187.950129 130.64839 
L 188.872443 134.240456 
L 189.794757 133.266292 
L 190.717071 131.370037 
L 191.639385 133.221224 
L 192.561699 131.530508 
L 193.484013 127.304061 
L 194.406327 127.021545 
L 195.328642 131.504403 
L 196.250956 129.12013 
L 197.17327 130.155912 
L 198.095584 129.13671 
L 199.940212 135.649824 
L 200.862526 130.074104 
L 201.78484 129.476486 
L 202.707154 129.449765 
L 203.629468 127.07422 
L 205.474096 128.405043 
L 206.39641 132.155688 
L 207.318724 129.996242 
L 208.241038 130.068832 
L 209.163352 128.264842 
L 210.085666 131.050036 
L 211.00798 130.94195 
L 211.930294 128.470743 
L 212.852608 131.531211 
L 213.774923 131.612299 
L 214.697237 132.350694 
L 215.619551 131.23145 
L 216.541865 134.408219 
L 217.464179 133.259949 
L 218.386493 133.451761 
L 219.308807 135.868165 
L 220.231121 136.567827 
L 221.153435 137.964817 
L 222.075749 137.904629 
L 222.998063 140.59013 
L 223.920377 140.248142 
L 224.842691 142.320233 
L 225.765005 142.751493 
L 226.687319 143.305748 
L 227.609633 144.681703 
L 228.531947 144.519549 
L 229.454261 145.240951 
L 230.376575 143.606707 
L 231.298889 147.202116 
L 232.221204 147.401776 
L 233.143518 145.312951 
L 234.065832 147.788315 
L 234.988146 144.771762 
L 235.91046 147.864716 
L 236.832774 144.354608 
L 237.755088 149.00043 
L 238.677402 148.864368 
L 239.599716 147.326535 
L 240.52203 147.287939 
L 241.444344 149.193091 
L 242.366658 147.831455 
L 243.288972 148.825769 
L 244.211286 148.096776 
L 245.1336 148.745121 
L 246.055914 151.093129 
L 246.978228 147.222083 
L 247.900542 147.173949 
L 248.822856 149.684394 
L 249.74517 150.670233 
L 250.667485 150.083711 
L 251.589799 151.347509 
L 252.512113 149.72187 
L 253.434427 149.97145 
L 254.356741 152.818688 
L 255.279055 153.166956 
L 256.201369 151.635056 
L 257.123683 152.261085 
L 258.045997 150.388173 
L 258.968311 149.701996 
L 259.890625 148.135366 
L 260.812939 150.229807 
L 261.735253 149.605711 
L 262.657567 150.325038 
L 263.579881 151.22725 
L 264.502195 150.754788 
L 265.424509 152.243257 
L 266.346823 151.654234 
L 267.269137 154.11977 
L 268.191451 155.048733 
L 269.113765 153.344866 
L 270.03608 153.231589 
L 270.958394 154.848303 
L 271.880708 153.800574 
L 272.803022 157.048832 
L 273.725336 156.893901 
L 274.64765 155.884159 
L 275.569964 156.207196 
L 277.414592 155.9323 
L 278.336906 157.966988 
L 279.25922 160.584037 
L 280.181534 159.109185 
L 281.103848 160.133137 
L 282.026162 157.417522 
L 282.948476 158.294861 
L 283.87079 157.179436 
L 284.793104 156.74332 
L 285.715418 152.371756 
L 286.637732 154.608543 
L 287.560046 154.732663 
L 288.482361 156.74822 
L 289.404675 153.888262 
L 290.326989 153.0428 
L 291.249303 149.447487 
L 292.171617 149.480507 
L 293.093931 149.219328 
L 294.016245 150.998212 
L 294.938559 153.308223 
L 295.860873 154.868603 
L 296.783187 153.249777 
L 297.705501 154.622314 
L 298.627815 153.342076 
L 299.550129 153.92423 
L 300.472443 155.062312 
L 301.394757 156.883775 
L 302.317071 155.221922 
L 303.239385 156.801697 
L 305.084013 155.609429 
L 306.006327 154.116463 
L 306.928642 155.313135 
L 307.850956 156.80764 
L 308.77327 155.756673 
L 309.695584 156.419443 
L 310.617898 154.641703 
L 311.540212 156.161499 
L 312.462526 154.121002 
L 313.38484 156.645991 
L 314.307154 155.529907 
L 315.229468 156.176916 
L 316.151782 155.396429 
L 317.074096 155.88568 
L 317.99641 155.259632 
L 318.918724 153.799706 
L 319.841038 154.311158 
L 320.763352 153.059434 
L 321.685666 154.648248 
L 322.60798 155.120642 
L 323.530294 153.132141 
L 324.452608 153.483931 
L 325.374923 154.04572 
L 326.297237 154.987186 
L 327.219551 154.816669 
L 328.141865 154.119129 
L 329.064179 153.202575 
L 329.986493 153.916273 
L 330.908807 152.705682 
L 331.831121 152.166556 
L 332.753435 152.402338 
L 333.675749 152.180249 
L 334.598063 154.11953 
L 335.520377 152.016894 
L 336.442691 153.003526 
L 337.365005 151.826107 
L 338.287319 152.171399 
L 339.209633 153.165678 
L 340.131947 152.958836 
L 341.054261 151.2627 
L 341.976575 152.237006 
L 342.898889 152.790376 
L 344.743518 149.160309 
L 346.588146 150.86653 
L 347.51046 150.354096 
L 348.432774 149.479063 
L 349.355088 152.676587 
L 350.277402 151.047918 
L 351.199716 152.469854 
L 352.12203 152.266123 
L 353.044344 153.462899 
L 353.966658 154.069147 
L 354.888972 154.003291 
L 355.811286 154.910829 
L 357.655914 155.294215 
L 358.578228 154.960983 
L 359.500542 154.061296 
L 360.422856 155.470938 
L 361.34517 153.968602 
L 362.267485 153.381538 
L 363.189799 153.259493 
L 364.112113 154.500778 
L 365.034427 155.292109 
L 365.956741 154.850473 
L 366.879055 155.670758 
L 367.801369 154.673209 
L 368.723683 154.525595 
L 369.645997 155.551714 
L 370.568311 155.152165 
L 371.490625 155.936404 
L 372.412939 157.010189 
L 373.335253 156.050296 
L 374.257567 155.985973 
L 376.102195 156.386478 
L 377.024509 157.272418 
L 377.946823 156.749003 
L 378.869137 157.107192 
L 379.791451 157.119295 
L 380.713765 157.761971 
L 381.63608 157.134318 
L 382.558394 156.145483 
L 383.480708 158.606781 
L 384.403022 157.442978 
L 385.325336 157.059694 
L 386.24765 157.835689 
L 387.169964 157.316152 
L 389.014592 157.854228 
L 389.936906 159.260742 
L 390.85922 158.661202 
L 391.781534 158.869777 
L 392.703848 159.238682 
L 393.626162 160.284156 
L 394.548476 159.663591 
L 395.47079 159.433966 
L 396.393104 159.789577 
L 398.237732 159.882359 
L 399.160046 160.25701 
L 400.082361 161.289905 
L 401.004675 158.838544 
L 401.926989 159.924778 
L 402.849303 160.45698 
L 403.771617 160.777332 
L 404.693931 162.658706 
L 405.616245 162.11453 
L 406.538559 162.229981 
L 407.460873 160.98345 
L 408.383187 162.000164 
L 409.305501 163.379221 
L 410.227815 163.181533 
L 411.150129 163.880014 
L 412.072443 163.180675 
L 412.994757 162.92911 
L 414.839385 162.673332 
L 415.761699 164.01015 
L 416.684013 163.898086 
L 417.606327 163.587924 
L 418.528642 163.629103 
L 419.450956 164.448835 
L 420.37327 164.678214 
L 421.295584 165.504125 
L 422.217898 164.692579 
L 423.140212 166.342899 
L 424.062526 167.152715 
L 424.98484 165.965846 
L 425.907154 167.413876 
L 426.829468 166.665451 
L 427.751782 166.885093 
L 428.674096 166.510555 
L 430.518724 165.434706 
L 431.441038 165.631563 
L 432.363352 166.035931 
L 433.285666 165.705315 
L 434.20798 166.050312 
L 435.130294 166.525807 
L 436.052608 166.210813 
L 436.974923 166.169597 
L 437.897237 166.418649 
L 438.819551 165.309747 
L 439.741865 165.436775 
L 440.664179 166.031096 
L 441.586493 165.914072 
L 442.508807 167.508869 
L 443.431121 166.783678 
L 444.353435 166.803441 
L 445.275749 166.419973 
L 446.198063 165.84882 
L 447.120377 166.801295 
L 448.042691 166.075255 
L 448.965005 166.532946 
L 449.887319 167.123316 
L 450.809633 167.002987 
L 451.731947 167.874705 
L 452.654261 167.313398 
L 453.576575 168.063886 
L 455.421204 167.5642 
L 456.343518 168.792709 
L 457.265832 168.642832 
L 458.188146 167.815961 
L 459.11046 168.876404 
L 460.032774 169.223698 
L 460.955088 169.44384 
L 461.877402 169.245245 
L 462.799716 169.40812 
L 463.72203 169.727721 
L 466.488972 169.380179 
L 467.411286 168.682531 
L 468.3336 168.772326 
L 469.255914 169.343754 
L 470.178228 168.172043 
L 471.100542 168.854283 
L 473.867485 169.872072 
L 474.789799 169.938352 
L 475.712113 169.719371 
L 476.634427 168.183161 
L 477.556741 169.845163 
L 478.479055 169.297504 
L 479.401369 170.613594 
L 482.168311 170.480542 
L 483.090625 170.525653 
L 484.012939 169.977587 
L 484.935253 170.364696 
L 485.857567 169.181846 
L 486.779881 170.062413 
L 487.702195 168.886077 
L 488.624509 169.394782 
L 489.546823 169.662922 
L 490.469137 170.145244 
L 491.391451 169.927706 
L 492.313765 170.004292 
L 493.23608 169.875281 
L 494.158394 168.776072 
L 495.080708 168.991334 
L 496.003022 170.365659 
L 496.925336 171.176641 
L 497.84765 171.202022 
L 498.769964 170.910612 
L 500.614592 170.81527 
L 501.536906 171.004884 
L 502.45922 170.949 
L 503.381534 171.33907 
L 504.303848 170.94787 
L 505.226162 171.197713 
L 506.148476 171.714517 
L 507.07079 171.475357 
L 507.993104 171.483979 
L 510.760046 171.036587 
L 511.682361 171.608698 
L 512.604675 171.845687 
L 513.526989 170.643028 
L 514.449303 170.670747 
L 515.371617 171.285834 
L 516.293931 170.540197 
L 517.216245 171.206933 
L 518.138559 171.295074 
L 519.060873 170.80643 
L 519.983187 170.955732 
L 520.905501 171.29138 
L 521.827815 171.91542 
L 522.750129 170.798087 
L 523.672443 171.52144 
L 524.594757 172.396778 
L 525.517071 171.585403 
L 526.439385 171.605385 
L 527.361699 171.166604 
L 528.284013 172.321859 
L 529.206327 172.257516 
L 530.128642 173.085883 
L 531.97327 172.209607 
L 532.895584 172.172332 
L 533.817898 172.281268 
L 534.740212 172.82213 
L 536.58484 172.079089 
L 537.507154 172.578862 
L 538.429468 172.245953 
L 539.351782 172.597846 
L 540.274096 172.410781 
L 541.19641 172.673752 
L 542.118724 172.11368 
L 543.041038 172.760862 
L 543.963352 172.901058 
L 544.885666 172.8115 
L 545.80798 172.944725 
L 546.730294 172.884963 
L 547.652608 173.067699 
L 548.574923 172.387809 
L 549.497237 172.65821 
L 550.419551 172.570902 
L 551.341865 173.384998 
L 552.264179 172.353634 
L 553.186493 172.340497 
L 554.108807 172.085243 
L 555.031121 172.686637 
L 555.953435 173.137002 
L 556.875749 172.492417 
L 558.720377 172.834667 
L 559.642691 172.629771 
L 560.565005 172.593443 
L 561.487319 172.907705 
L 562.409633 172.320619 
L 563.331947 172.453421 
L 564.254261 172.330282 
L 565.176575 172.595965 
L 566.098889 172.528293 
L 567.021204 172.861315 
L 567.943518 172.896261 
L 568.865832 173.496203 
L 569.788146 173.090749 
L 570.71046 172.827251 
L 571.632774 173.139689 
L 572.555088 173.266205 
L 573.477402 173.642314 
L 574.399716 173.416752 
L 575.32203 172.83362 
L 576.244344 172.80055 
L 577.166658 172.93646 
L 578.088972 173.231901 
L 579.011286 173.197898 
L 579.9336 173.481921 
L 580.855914 173.240156 
L 583.622856 173.864126 
L 584.54517 173.678847 
L 585.467485 173.868298 
L 586.389799 173.729008 
L 587.312113 173.863457 
L 588.234427 173.579213 
L 589.156741 173.71759 
L 590.079055 173.392521 
L 591.001369 174.005318 
L 592.845997 174.1466 
L 593.768311 173.144914 
L 594.690625 173.671143 
L 596.535253 174.144585 
L 597.457567 174.019534 
L 598.379881 173.687268 
L 600.224509 174.288035 
L 601.146823 174.1292 
L 602.069137 174.242572 
L 602.991451 174.970998 
L 603.913765 174.148864 
L 604.83608 174.472383 
L 605.758394 173.912354 
L 606.680708 174.929903 
L 607.603022 174.810248 
L 608.525336 174.379742 
L 611.292278 173.893045 
L 612.214592 173.93676 
L 613.136906 174.381656 
L 614.981534 174.031575 
L 615.903848 173.335467 
L 616.826162 174.324617 
L 617.748476 174.571458 
L 618.67079 174.284473 
L 619.593104 175.075052 
L 620.515418 174.592264 
L 622.360046 174.200782 
L 623.282361 174.356521 
L 624.204675 174.179814 
L 625.126989 174.241436 
L 625.126989 174.241436 
" clip-path="url(#pa1f1dde101)" style="fill: none; stroke: #1f77b4; stroke-width: 1.5; stroke-linecap: square"/>
   </g>
   <g id="line2d_13">
    <path d="M 117.854261 283.817858 
L 118.776575 296.03625 
L 119.698889 270.616898 
L 120.621204 261.343127 
L 121.543518 266.675624 
L 122.465832 254.3987 
L 123.388146 253.78483 
L 124.31046 234.718979 
L 125.232774 243.174054 
L 126.155088 233.622601 
L 127.077402 255.831372 
L 127.999716 226.820111 
L 128.92203 231.623087 
L 129.844344 222.755458 
L 130.766658 237.090497 
L 131.688972 221.800231 
L 132.611286 220.580769 
L 133.5336 239.851293 
L 134.455914 218.690556 
L 135.378228 208.012777 
L 136.300542 213.077702 
L 137.222856 203.210023 
L 138.14517 204.36703 
L 139.067485 200.127711 
L 139.989799 197.699217 
L 140.912113 197.009593 
L 141.834427 192.778947 
L 142.756741 193.284367 
L 143.679055 191.367776 
L 144.601369 190.032498 
L 145.523683 190.98049 
L 146.445997 192.754977 
L 147.368311 191.632475 
L 148.290625 189.511802 
L 149.212939 187.702186 
L 150.135253 186.31986 
L 151.057567 189.750291 
L 151.979881 188.198746 
L 152.902195 189.00049 
L 153.824509 189.320823 
L 154.746823 185.316259 
L 156.591451 184.835969 
L 157.513765 185.979726 
L 158.43608 188.292898 
L 159.358394 184.413948 
L 160.280708 186.018381 
L 161.203022 185.564117 
L 162.125336 183.829002 
L 163.04765 185.263654 
L 163.969964 184.827063 
L 164.892278 185.642403 
L 165.814592 185.081576 
L 166.736906 185.318168 
L 167.65922 184.356218 
L 168.581534 183.054028 
L 169.503848 183.091849 
L 170.426162 181.620767 
L 171.348476 181.838532 
L 172.27079 182.869973 
L 173.193104 182.690779 
L 174.115418 182.28129 
L 175.037732 180.870267 
L 175.960046 183.116401 
L 177.804675 184.052396 
L 178.726989 184.34861 
L 179.649303 182.464961 
L 181.493931 182.093607 
L 182.416245 184.792872 
L 183.338559 183.634699 
L 184.260873 183.261662 
L 185.183187 184.624761 
L 186.105501 183.487667 
L 187.027815 184.04581 
L 187.950129 182.432324 
L 188.872443 182.812326 
L 189.794757 182.662128 
L 190.717071 182.709696 
L 191.639385 182.390061 
L 192.561699 182.933603 
L 193.484013 185.113963 
L 194.406327 183.825193 
L 195.328642 181.5119 
L 196.250956 182.332163 
L 197.17327 182.657852 
L 198.095584 183.310738 
L 199.017898 183.531447 
L 199.940212 183.308215 
L 200.862526 183.62141 
L 201.78484 184.483335 
L 202.707154 183.45188 
L 204.551782 184.197178 
L 205.474096 183.120905 
L 206.39641 182.57126 
L 207.318724 183.383851 
L 208.241038 182.947738 
L 209.163352 183.167254 
L 210.085666 183.694203 
L 211.00798 183.057892 
L 211.930294 183.707169 
L 212.852608 182.282464 
L 213.774923 184.110702 
L 214.697237 183.132366 
L 215.619551 184.305063 
L 216.541865 182.879901 
L 217.464179 183.550493 
L 219.308807 183.501126 
L 220.231121 182.388915 
L 221.153435 182.417677 
L 222.075749 182.173322 
L 222.998063 183.391072 
L 224.842691 182.940126 
L 225.765005 182.46022 
L 226.687319 182.325477 
L 227.609633 181.724674 
L 228.531947 181.502345 
L 229.454261 182.064616 
L 230.376575 182.799914 
L 232.221204 182.042545 
L 233.143518 182.333771 
L 234.065832 181.160114 
L 234.988146 183.896472 
L 235.91046 182.550055 
L 236.832774 182.064496 
L 237.755088 181.125233 
L 238.677402 181.238594 
L 239.599716 182.004937 
L 240.52203 182.161104 
L 241.444344 181.414516 
L 242.366658 182.304203 
L 243.288972 181.874481 
L 244.211286 181.798224 
L 245.1336 181.982022 
L 246.055914 181.109051 
L 246.978228 182.125077 
L 247.900542 182.440727 
L 249.74517 181.187696 
L 250.667485 181.751393 
L 251.589799 181.583518 
L 252.512113 182.175445 
L 253.434427 183.160066 
L 254.356741 182.022578 
L 255.279055 181.400837 
L 257.123683 182.736279 
L 258.045997 182.132305 
L 258.968311 183.201044 
L 259.890625 183.390734 
L 260.812939 183.243412 
L 261.735253 181.991815 
L 263.579881 182.274377 
L 264.502195 183.17882 
L 265.424509 183.428812 
L 266.346823 183.886167 
L 267.269137 182.608761 
L 268.191451 183.712115 
L 270.03608 183.277566 
L 270.958394 183.511026 
L 273.725336 183.633084 
L 274.64765 183.299605 
L 275.569964 183.783579 
L 276.492278 183.910268 
L 278.336906 184.92944 
L 279.25922 183.203228 
L 280.181534 183.314599 
L 281.103848 184.512217 
L 282.026162 183.829892 
L 282.948476 184.829618 
L 283.87079 183.795532 
L 284.793104 182.312542 
L 285.715418 181.114258 
L 287.560046 183.511928 
L 288.482361 183.577943 
L 289.404675 183.326592 
L 290.326989 182.786861 
L 291.249303 183.101856 
L 292.171617 182.860106 
L 293.093931 182.896584 
L 294.016245 183.097378 
L 294.938559 182.191737 
L 295.860873 183.797359 
L 296.783187 182.707522 
L 297.705501 182.50586 
L 298.627815 183.114747 
L 299.550129 182.718723 
L 300.472443 182.923467 
L 301.394757 182.183745 
L 302.317071 183.353683 
L 303.239385 182.7453 
L 304.161699 183.01248 
L 305.084013 183.68453 
L 306.006327 181.987794 
L 306.928642 182.613563 
L 308.77327 183.524069 
L 309.695584 183.241964 
L 310.617898 183.384202 
L 311.540212 183.856913 
L 312.462526 184.648702 
L 313.38484 182.602124 
L 314.307154 183.351471 
L 315.229468 182.881703 
L 316.151782 182.699623 
L 317.074096 182.807006 
L 317.99641 183.289597 
L 318.918724 183.602981 
L 319.841038 184.277064 
L 320.763352 184.604789 
L 321.685666 184.052045 
L 322.60798 183.243903 
L 323.530294 184.052092 
L 325.374923 183.603225 
L 326.297237 183.57647 
L 327.219551 184.190813 
L 328.141865 183.846776 
L 329.064179 183.1117 
L 329.986493 183.575398 
L 330.908807 183.826855 
L 331.831121 183.216567 
L 332.753435 183.100553 
L 333.675749 183.61975 
L 334.598063 183.712894 
L 335.520377 183.597435 
L 336.442691 182.929186 
L 337.365005 183.970208 
L 338.287319 183.329715 
L 340.131947 183.487367 
L 341.054261 184.025893 
L 341.976575 183.355025 
L 343.821204 184.172635 
L 344.743518 183.89308 
L 345.665832 184.720582 
L 346.588146 185.250018 
L 347.51046 183.991193 
L 348.432774 180.264595 
L 349.355088 179.379729 
L 350.277402 179.979928 
L 351.199716 179.808172 
L 352.12203 179.831676 
L 353.044344 180.597556 
L 353.966658 180.60864 
L 354.888972 181.204994 
L 355.811286 180.571995 
L 356.7336 180.389812 
L 357.655914 180.927543 
L 358.578228 181.159789 
L 359.500542 180.95655 
L 360.422856 181.658681 
L 361.34517 181.65998 
L 362.267485 181.207524 
L 363.189799 181.268454 
L 364.112113 181.946299 
L 365.034427 181.462368 
L 365.956741 181.327931 
L 366.879055 181.405739 
L 367.801369 181.830208 
L 368.723683 181.243396 
L 369.645997 181.198737 
L 370.568311 181.023432 
L 371.490625 181.396091 
L 372.412939 180.38087 
L 373.335253 181.313379 
L 374.257567 180.376577 
L 375.179881 180.39457 
L 376.102195 181.042059 
L 377.024509 180.401476 
L 377.946823 180.903968 
L 378.869137 181.080735 
L 379.791451 180.79097 
L 381.63608 181.338014 
L 382.558394 181.292395 
L 383.480708 181.127015 
L 384.403022 181.168368 
L 385.325336 180.728198 
L 386.24765 181.203847 
L 388.092278 180.210731 
L 389.014592 180.504117 
L 389.936906 180.680811 
L 390.85922 181.131196 
L 391.781534 180.356829 
L 394.548476 181.13129 
L 395.47079 180.48727 
L 396.393104 181.316777 
L 397.315418 180.843416 
L 398.237732 181.182363 
L 399.160046 181.339458 
L 400.082361 180.784706 
L 401.004675 180.901468 
L 401.926989 180.547993 
L 402.849303 180.537567 
L 403.771617 181.04459 
L 404.693931 180.596105 
L 406.538559 180.738678 
L 407.460873 181.393769 
L 408.383187 180.752169 
L 409.305501 180.657503 
L 410.227815 180.737657 
L 411.150129 181.107062 
L 412.072443 180.712911 
L 413.917071 181.124472 
L 414.839385 180.84352 
L 415.761699 181.219557 
L 416.684013 180.44609 
L 417.606327 181.06896 
L 418.528642 181.178658 
L 419.450956 180.837517 
L 420.37327 181.300394 
L 421.295584 181.567467 
L 422.217898 181.012683 
L 423.140212 181.07599 
L 424.062526 180.666583 
L 424.98484 180.522667 
L 425.907154 180.75596 
L 426.829468 180.732957 
L 427.751782 181.094926 
L 428.674096 180.850864 
L 430.518724 180.631432 
L 431.441038 180.665116 
L 433.285666 181.598188 
L 434.20798 180.864201 
L 435.130294 180.568699 
L 436.052608 180.707393 
L 436.974923 181.512054 
L 439.741865 181.481038 
L 440.664179 181.815024 
L 441.586493 181.333635 
L 442.508807 181.233244 
L 443.431121 180.895049 
L 444.353435 181.152924 
L 445.275749 181.111089 
L 447.120377 181.190319 
L 448.042691 181.018222 
L 448.965005 181.32288 
L 449.887319 181.040865 
L 450.809633 181.211261 
L 451.731947 180.891106 
L 452.654261 181.268086 
L 453.576575 181.388344 
L 454.498889 181.081676 
L 455.421204 181.037959 
L 456.343518 180.683913 
L 457.265832 181.45284 
L 458.188146 181.600966 
L 459.11046 180.824199 
L 460.032774 180.767479 
L 460.955088 181.045496 
L 461.877402 180.946243 
L 462.799716 180.980867 
L 463.72203 180.565906 
L 464.644344 181.129756 
L 465.566658 180.275914 
L 466.488972 180.746793 
L 468.3336 180.556783 
L 469.255914 180.362598 
L 470.178228 180.4968 
L 471.100542 180.354044 
L 472.022856 180.75142 
L 472.94517 180.748254 
L 473.867485 180.873944 
L 474.789799 180.736618 
L 475.712113 181.217443 
L 476.634427 180.804086 
L 477.556741 180.653515 
L 478.479055 181.057363 
L 479.401369 180.652628 
L 480.323683 180.766028 
L 481.245997 181.346359 
L 482.168311 180.19628 
L 483.090625 180.998391 
L 484.935253 180.976858 
L 485.857567 180.774304 
L 487.702195 181.364204 
L 488.624509 180.015446 
L 490.469137 181.177205 
L 491.391451 180.721899 
L 492.313765 180.500829 
L 493.23608 180.702456 
L 494.158394 178.283228 
L 495.080708 176.307169 
L 496.003022 177.511804 
L 496.925336 177.385175 
L 497.84765 177.852736 
L 499.692278 178.433903 
L 500.614592 178.181649 
L 501.536906 178.338894 
L 502.45922 178.111825 
L 503.381534 178.553982 
L 504.303848 178.428131 
L 505.226162 178.580703 
L 506.148476 178.411208 
L 507.07079 178.595047 
L 507.993104 178.583323 
L 508.915418 178.704573 
L 509.837732 178.524822 
L 510.760046 178.774881 
L 511.682361 178.906729 
L 512.604675 179.340203 
L 513.526989 178.721279 
L 514.449303 179.195154 
L 515.371617 178.863247 
L 517.216245 178.904504 
L 519.060873 179.17992 
L 519.983187 178.598338 
L 520.905501 178.499958 
L 521.827815 178.959039 
L 522.750129 178.914453 
L 523.672443 178.258735 
L 524.594757 178.66337 
L 525.517071 178.254882 
L 526.439385 178.706815 
L 527.361699 178.492793 
L 528.284013 178.803644 
L 529.206327 178.574321 
L 530.128642 178.670493 
L 531.050956 178.526605 
L 531.97327 178.608478 
L 532.895584 179.052171 
L 533.817898 178.470828 
L 535.662526 178.955696 
L 537.507154 179.056176 
L 538.429468 178.722849 
L 539.351782 179.108168 
L 541.19641 179.04044 
L 542.118724 179.339111 
L 543.041038 178.821481 
L 543.963352 178.828895 
L 544.885666 178.372158 
L 546.730294 179.071322 
L 547.652608 178.823105 
L 550.419551 178.854966 
L 551.341865 178.638637 
L 552.264179 178.929585 
L 553.186493 179.102823 
L 554.108807 178.935124 
L 555.031121 178.629359 
L 555.953435 179.069866 
L 556.875749 179.27838 
L 557.798063 179.042123 
L 558.720377 178.640631 
L 559.642691 178.912032 
L 561.487319 179.065539 
L 562.409633 178.941235 
L 563.331947 179.1502 
L 564.254261 179.023144 
L 565.176575 179.363355 
L 566.098889 178.954135 
L 567.021204 178.992939 
L 567.943518 179.443323 
L 568.865832 179.645349 
L 569.788146 178.806777 
L 570.71046 179.401296 
L 572.555088 178.679273 
L 573.477402 179.34932 
L 574.399716 179.115861 
L 575.32203 179.583493 
L 576.244344 179.197347 
L 578.088972 178.990594 
L 579.011286 179.357427 
L 580.855914 179.506311 
L 581.778228 179.485305 
L 582.700542 178.780965 
L 583.622856 179.151367 
L 584.54517 179.013556 
L 585.467485 179.135437 
L 587.312113 179.042252 
L 588.234427 179.472047 
L 589.156741 179.219821 
L 590.079055 179.364226 
L 591.001369 179.358175 
L 591.923683 179.004647 
L 592.845997 179.014748 
L 593.768311 179.397583 
L 594.690625 178.693202 
L 596.535253 179.419855 
L 598.379881 178.889672 
L 599.302195 178.929942 
L 600.224509 179.249873 
L 601.146823 179.169529 
L 602.069137 178.710206 
L 602.991451 179.049115 
L 604.83608 178.837573 
L 605.758394 178.79757 
L 606.680708 178.966607 
L 607.603022 178.738942 
L 608.525336 179.272193 
L 609.44765 178.8278 
L 610.369964 178.895308 
L 611.292278 179.253174 
L 613.136906 179.440098 
L 614.05922 179.186068 
L 615.903848 179.265858 
L 616.826162 179.092749 
L 617.748476 179.164606 
L 618.67079 178.955908 
L 619.593104 178.881991 
L 620.515418 178.564917 
L 621.437732 178.695836 
L 622.360046 179.29003 
L 623.282361 179.437605 
L 624.204675 178.950038 
L 625.126989 178.995992 
L 625.126989 178.995992 
" clip-path="url(#pa1f1dde101)" style="fill: none; stroke: #ff7f0e; stroke-width: 1.5; stroke-linecap: square"/>
   </g>
   <g id="patch_3">
    <path d="M 92.490625 308.63625 
L 92.490625 31.43625 
" style="fill: none; stroke: #000000; stroke-width: 0.8; stroke-linejoin: miter; stroke-linecap: square"/>
   </g>
   <g id="patch_4">
    <path d="M 650.490625 308.63625 
L 650.490625 31.43625 
" style="fill: none; stroke: #000000; stroke-width: 0.8; stroke-linejoin: miter; stroke-linecap: square"/>
   </g>
   <g id="patch_5">
    <path d="M 92.490625 308.63625 
L 650.490625 308.63625 
" style="fill: none; stroke: #000000; stroke-width: 0.8; stroke-linejoin: miter; stroke-linecap: square"/>
   </g>
   <g id="patch_6">
    <path d="M 92.490625 31.43625 
L 650.490625 31.43625 
" style="fill: none; stroke: #000000; stroke-width: 0.8; stroke-linejoin: miter; stroke-linecap: square"/>
   </g>
   <g id="text_14">
    <!-- Generator and Discriminator Loss During Training -->
    <g transform="translate(74.258125 25.43625) scale(0.24 -0.24)">
     <defs>
      <path id="DejaVuSans-47" d="M 3809 666 
L 3809 1919 
L 2778 1919 
L 2778 2438 
L 4434 2438 
L 4434 434 
Q 4069 175 3628 42 
Q 3188 -91 2688 -91 
Q 1594 -91 976 548 
Q 359 1188 359 2328 
Q 359 3472 976 4111 
Q 1594 4750 2688 4750 
Q 3144 4750 3555 4637 
Q 3966 4525 4313 4306 
L 4313 3634 
Q 3963 3931 3569 4081 
Q 3175 4231 2741 4231 
Q 1884 4231 1454 3753 
Q 1025 3275 1025 2328 
Q 1025 1384 1454 906 
Q 1884 428 2741 428 
Q 3075 428 3337 486 
Q 3600 544 3809 666 
z
" transform="scale(0.015625)"/>
      <path id="DejaVuSans-20" transform="scale(0.015625)"/>
      <path id="DejaVuSans-64" d="M 2906 2969 
L 2906 4863 
L 3481 4863 
L 3481 0 
L 2906 0 
L 2906 525 
Q 2725 213 2448 61 
Q 2172 -91 1784 -91 
Q 1150 -91 751 415 
Q 353 922 353 1747 
Q 353 2572 751 3078 
Q 1150 3584 1784 3584 
Q 2172 3584 2448 3432 
Q 2725 3281 2906 2969 
z
M 947 1747 
Q 947 1113 1208 752 
Q 1469 391 1925 391 
Q 2381 391 2643 752 
Q 2906 1113 2906 1747 
Q 2906 2381 2643 2742 
Q 2381 3103 1925 3103 
Q 1469 3103 1208 2742 
Q 947 2381 947 1747 
z
" transform="scale(0.015625)"/>
      <path id="DejaVuSans-44" d="M 1259 4147 
L 1259 519 
L 2022 519 
Q 2988 519 3436 956 
Q 3884 1394 3884 2338 
Q 3884 3275 3436 3711 
Q 2988 4147 2022 4147 
L 1259 4147 
z
M 628 4666 
L 1925 4666 
Q 3281 4666 3915 4102 
Q 4550 3538 4550 2338 
Q 4550 1131 3912 565 
Q 3275 0 1925 0 
L 628 0 
L 628 4666 
z
" transform="scale(0.015625)"/>
      <path id="DejaVuSans-63" d="M 3122 3366 
L 3122 2828 
Q 2878 2963 2633 3030 
Q 2388 3097 2138 3097 
Q 1578 3097 1268 2742 
Q 959 2388 959 1747 
Q 959 1106 1268 751 
Q 1578 397 2138 397 
Q 2388 397 2633 464 
Q 2878 531 3122 666 
L 3122 134 
Q 2881 22 2623 -34 
Q 2366 -91 2075 -91 
Q 1284 -91 818 406 
Q 353 903 353 1747 
Q 353 2603 823 3093 
Q 1294 3584 2113 3584 
Q 2378 3584 2631 3529 
Q 2884 3475 3122 3366 
z
" transform="scale(0.015625)"/>
      <path id="DejaVuSans-6d" d="M 3328 2828 
Q 3544 3216 3844 3400 
Q 4144 3584 4550 3584 
Q 5097 3584 5394 3201 
Q 5691 2819 5691 2113 
L 5691 0 
L 5113 0 
L 5113 2094 
Q 5113 2597 4934 2840 
Q 4756 3084 4391 3084 
Q 3944 3084 3684 2787 
Q 3425 2491 3425 1978 
L 3425 0 
L 2847 0 
L 2847 2094 
Q 2847 2600 2669 2842 
Q 2491 3084 2119 3084 
Q 1678 3084 1418 2786 
Q 1159 2488 1159 1978 
L 1159 0 
L 581 0 
L 581 3500 
L 1159 3500 
L 1159 2956 
Q 1356 3278 1631 3431 
Q 1906 3584 2284 3584 
Q 2666 3584 2933 3390 
Q 3200 3197 3328 2828 
z
" transform="scale(0.015625)"/>
      <path id="DejaVuSans-75" d="M 544 1381 
L 544 3500 
L 1119 3500 
L 1119 1403 
Q 1119 906 1312 657 
Q 1506 409 1894 409 
Q 2359 409 2629 706 
Q 2900 1003 2900 1516 
L 2900 3500 
L 3475 3500 
L 3475 0 
L 2900 0 
L 2900 538 
Q 2691 219 2414 64 
Q 2138 -91 1772 -91 
Q 1169 -91 856 284 
Q 544 659 544 1381 
z
M 1991 3584 
L 1991 3584 
z
" transform="scale(0.015625)"/>
      <path id="DejaVuSans-67" d="M 2906 1791 
Q 2906 2416 2648 2759 
Q 2391 3103 1925 3103 
Q 1463 3103 1205 2759 
Q 947 2416 947 1791 
Q 947 1169 1205 825 
Q 1463 481 1925 481 
Q 2391 481 2648 825 
Q 2906 1169 2906 1791 
z
M 3481 434 
Q 3481 -459 3084 -895 
Q 2688 -1331 1869 -1331 
Q 1566 -1331 1297 -1286 
Q 1028 -1241 775 -1147 
L 775 -588 
Q 1028 -725 1275 -790 
Q 1522 -856 1778 -856 
Q 2344 -856 2625 -561 
Q 2906 -266 2906 331 
L 2906 616 
Q 2728 306 2450 153 
Q 2172 0 1784 0 
Q 1141 0 747 490 
Q 353 981 353 1791 
Q 353 2603 747 3093 
Q 1141 3584 1784 3584 
Q 2172 3584 2450 3431 
Q 2728 3278 2906 2969 
L 2906 3500 
L 3481 3500 
L 3481 434 
z
" transform="scale(0.015625)"/>
      <path id="DejaVuSans-54" d="M -19 4666 
L 3928 4666 
L 3928 4134 
L 2272 4134 
L 2272 0 
L 1638 0 
L 1638 4134 
L -19 4134 
L -19 4666 
z
" transform="scale(0.015625)"/>
     </defs>
     <use xlink:href="#DejaVuSans-47"/>
     <use xlink:href="#DejaVuSans-65" x="77.490234"/>
     <use xlink:href="#DejaVuSans-6e" x="139.013672"/>
     <use xlink:href="#DejaVuSans-65" x="202.392578"/>
     <use xlink:href="#DejaVuSans-72" x="263.916016"/>
     <use xlink:href="#DejaVuSans-61" x="305.029297"/>
     <use xlink:href="#DejaVuSans-74" x="366.308594"/>
     <use xlink:href="#DejaVuSans-6f" x="405.517578"/>
     <use xlink:href="#DejaVuSans-72" x="466.699219"/>
     <use xlink:href="#DejaVuSans-20" x="507.8125"/>
     <use xlink:href="#DejaVuSans-61" x="539.599609"/>
     <use xlink:href="#DejaVuSans-6e" x="600.878906"/>
     <use xlink:href="#DejaVuSans-64" x="664.257812"/>
     <use xlink:href="#DejaVuSans-20" x="727.734375"/>
     <use xlink:href="#DejaVuSans-44" x="759.521484"/>
     <use xlink:href="#DejaVuSans-69" x="836.523438"/>
     <use xlink:href="#DejaVuSans-73" x="864.306641"/>
     <use xlink:href="#DejaVuSans-63" x="916.40625"/>
     <use xlink:href="#DejaVuSans-72" x="971.386719"/>
     <use xlink:href="#DejaVuSans-69" x="1012.5"/>
     <use xlink:href="#DejaVuSans-6d" x="1040.283203"/>
     <use xlink:href="#DejaVuSans-69" x="1137.695312"/>
     <use xlink:href="#DejaVuSans-6e" x="1165.478516"/>
     <use xlink:href="#DejaVuSans-61" x="1228.857422"/>
     <use xlink:href="#DejaVuSans-74" x="1290.136719"/>
     <use xlink:href="#DejaVuSans-6f" x="1329.345703"/>
     <use xlink:href="#DejaVuSans-72" x="1390.527344"/>
     <use xlink:href="#DejaVuSans-20" x="1431.640625"/>
     <use xlink:href="#DejaVuSans-4c" x="1463.427734"/>
     <use xlink:href="#DejaVuSans-6f" x="1517.390625"/>
     <use xlink:href="#DejaVuSans-73" x="1578.572266"/>
     <use xlink:href="#DejaVuSans-73" x="1630.671875"/>
     <use xlink:href="#DejaVuSans-20" x="1682.771484"/>
     <use xlink:href="#DejaVuSans-44" x="1714.558594"/>
     <use xlink:href="#DejaVuSans-75" x="1791.560547"/>
     <use xlink:href="#DejaVuSans-72" x="1854.939453"/>
     <use xlink:href="#DejaVuSans-69" x="1896.052734"/>
     <use xlink:href="#DejaVuSans-6e" x="1923.835938"/>
     <use xlink:href="#DejaVuSans-67" x="1987.214844"/>
     <use xlink:href="#DejaVuSans-20" x="2050.691406"/>
     <use xlink:href="#DejaVuSans-54" x="2082.478516"/>
     <use xlink:href="#DejaVuSans-72" x="2128.8125"/>
     <use xlink:href="#DejaVuSans-61" x="2169.925781"/>
     <use xlink:href="#DejaVuSans-69" x="2231.205078"/>
     <use xlink:href="#DejaVuSans-6e" x="2258.988281"/>
     <use xlink:href="#DejaVuSans-69" x="2322.367188"/>
     <use xlink:href="#DejaVuSans-6e" x="2350.150391"/>
     <use xlink:href="#DejaVuSans-67" x="2413.529297"/>
    </g>
   </g>
   <g id="legend_1">
    <g id="patch_7">
     <path d="M 556.99375 106.14875 
L 636.490625 106.14875 
Q 640.490625 106.14875 640.490625 102.14875 
L 640.490625 45.43625 
Q 640.490625 41.43625 636.490625 41.43625 
L 556.99375 41.43625 
Q 552.99375 41.43625 552.99375 45.43625 
L 552.99375 102.14875 
Q 552.99375 106.14875 556.99375 106.14875 
z
" style="fill: #ffffff; opacity: 0.8; stroke: #cccccc; stroke-linejoin: miter"/>
    </g>
    <g id="line2d_14">
     <path d="M 560.99375 57.633125 
L 580.99375 57.633125 
L 600.99375 57.633125 
" style="fill: none; stroke: #1f77b4; stroke-width: 1.5; stroke-linecap: square"/>
    </g>
    <g id="text_15">
     <!-- G -->
     <g transform="translate(616.99375 64.633125) scale(0.2 -0.2)">
      <use xlink:href="#DejaVuSans-47"/>
     </g>
    </g>
    <g id="line2d_15">
     <path d="M 560.99375 86.989375 
L 580.99375 86.989375 
L 600.99375 86.989375 
" style="fill: none; stroke: #ff7f0e; stroke-width: 1.5; stroke-linecap: square"/>
    </g>
    <g id="text_16">
     <!-- D -->
     <g transform="translate(616.99375 93.989375) scale(0.2 -0.2)">
      <use xlink:href="#DejaVuSans-44"/>
     </g>
    </g>
   </g>
  </g>
 </g>
 <defs>
  <clipPath id="pa1f1dde101">
   <rect x="92.490625" y="31.43625" width="558" height="277.2"/>
  </clipPath>
 </defs>
</svg>
