<?xml version="1.0" encoding="utf-8" standalone="no"?>
<!DOCTYPE svg PUBLIC "-//W3C//DTD SVG 1.1//EN"
  "http://www.w3.org/Graphics/SVG/1.1/DTD/svg11.dtd">
<svg xmlns:xlink="http://www.w3.org/1999/xlink" width="675.923125pt" height="365.54875pt" viewBox="0 0 675.923125 365.54875" xmlns="http://www.w3.org/2000/svg" version="1.1">
 <metadata>
  <rdf:RDF xmlns:dc="http://purl.org/dc/elements/1.1/" xmlns:cc="http://creativecommons.org/ns#" xmlns:rdf="http://www.w3.org/1999/02/22-rdf-syntax-ns#">
   <cc:Work>
    <dc:type rdf:resource="http://purl.org/dc/dcmitype/StillImage"/>
    <dc:date>2024-02-01T18:14:03.479208</dc:date>
    <dc:format>image/svg+xml</dc:format>
    <dc:creator>
     <cc:Agent>
      <dc:title>Matplotlib v3.7.2, https://matplotlib.org/</dc:title>
     </cc:Agent>
    </dc:creator>
   </cc:Work>
  </rdf:RDF>
 </metadata>
 <defs>
  <style type="text/css">*{stroke-linejoin: round; stroke-linecap: butt}</style>
 </defs>
 <g id="figure_1">
  <g id="patch_1">
   <path d="M 0 365.54875 
L 675.923125 365.54875 
L 675.923125 -0 
L 0 -0 
z
" style="fill: #ffffff"/>
  </g>
  <g id="axes_1">
   <g id="patch_2">
    <path d="M 92.490625 308.63625 
L 650.490625 308.63625 
L 650.490625 31.43625 
L 92.490625 31.43625 
z
" style="fill: #ffffff"/>
   </g>
   <g id="matplotlib.axis_1">
    <g id="xtick_1">
     <g id="line2d_1">
      <defs>
       <path id="m1f85297a27" d="M 0 0 
L 0 3.5 
" style="stroke: #000000; stroke-width: 0.8"/>
      </defs>
      <g>
       <use xlink:href="#m1f85297a27" x="117.854261" y="308.63625" style="stroke: #000000; stroke-width: 0.8"/>
      </g>
     </g>
     <g id="text_1">
      <!-- 0 -->
      <g transform="translate(111.491761 330.833125) scale(0.2 -0.2)">
       <defs>
        <path id="DejaVuSans-30" d="M 2034 4250 
Q 1547 4250 1301 3770 
Q 1056 3291 1056 2328 
Q 1056 1369 1301 889 
Q 1547 409 2034 409 
Q 2525 409 2770 889 
Q 3016 1369 3016 2328 
Q 3016 3291 2770 3770 
Q 2525 4250 2034 4250 
z
M 2034 4750 
Q 2819 4750 3233 4129 
Q 3647 3509 3647 2328 
Q 3647 1150 3233 529 
Q 2819 -91 2034 -91 
Q 1250 -91 836 529 
Q 422 1150 422 2328 
Q 422 3509 836 4129 
Q 1250 4750 2034 4750 
z
" transform="scale(0.015625)"/>
       </defs>
       <use xlink:href="#DejaVuSans-30"/>
      </g>
     </g>
    </g>
    <g id="xtick_2">
     <g id="line2d_2">
      <g>
       <use xlink:href="#m1f85297a27" x="190.321794" y="308.63625" style="stroke: #000000; stroke-width: 0.8"/>
      </g>
     </g>
     <g id="text_2">
      <!-- 250 -->
      <g transform="translate(171.234294 330.833125) scale(0.2 -0.2)">
       <defs>
        <path id="DejaVuSans-32" d="M 1228 531 
L 3431 531 
L 3431 0 
L 469 0 
L 469 531 
Q 828 903 1448 1529 
Q 2069 2156 2228 2338 
Q 2531 2678 2651 2914 
Q 2772 3150 2772 3378 
Q 2772 3750 2511 3984 
Q 2250 4219 1831 4219 
Q 1534 4219 1204 4116 
Q 875 4013 500 3803 
L 500 4441 
Q 881 4594 1212 4672 
Q 1544 4750 1819 4750 
Q 2544 4750 2975 4387 
Q 3406 4025 3406 3419 
Q 3406 3131 3298 2873 
Q 3191 2616 2906 2266 
Q 2828 2175 2409 1742 
Q 1991 1309 1228 531 
z
" transform="scale(0.015625)"/>
        <path id="DejaVuSans-35" d="M 691 4666 
L 3169 4666 
L 3169 4134 
L 1269 4134 
L 1269 2991 
Q 1406 3038 1543 3061 
Q 1681 3084 1819 3084 
Q 2600 3084 3056 2656 
Q 3513 2228 3513 1497 
Q 3513 744 3044 326 
Q 2575 -91 1722 -91 
Q 1428 -91 1123 -41 
Q 819 9 494 109 
L 494 744 
Q 775 591 1075 516 
Q 1375 441 1709 441 
Q 2250 441 2565 725 
Q 2881 1009 2881 1497 
Q 2881 1984 2565 2268 
Q 2250 2553 1709 2553 
Q 1456 2553 1204 2497 
Q 953 2441 691 2322 
L 691 4666 
z
" transform="scale(0.015625)"/>
       </defs>
       <use xlink:href="#DejaVuSans-32"/>
       <use xlink:href="#DejaVuSans-35" x="63.623047"/>
       <use xlink:href="#DejaVuSans-30" x="127.246094"/>
      </g>
     </g>
    </g>
    <g id="xtick_3">
     <g id="line2d_3">
      <g>
       <use xlink:href="#m1f85297a27" x="262.789326" y="308.63625" style="stroke: #000000; stroke-width: 0.8"/>
      </g>
     </g>
     <g id="text_3">
      <!-- 500 -->
      <g transform="translate(243.701826 330.833125) scale(0.2 -0.2)">
       <use xlink:href="#DejaVuSans-35"/>
       <use xlink:href="#DejaVuSans-30" x="63.623047"/>
       <use xlink:href="#DejaVuSans-30" x="127.246094"/>
      </g>
     </g>
    </g>
    <g id="xtick_4">
     <g id="line2d_4">
      <g>
       <use xlink:href="#m1f85297a27" x="335.256859" y="308.63625" style="stroke: #000000; stroke-width: 0.8"/>
      </g>
     </g>
     <g id="text_4">
      <!-- 750 -->
      <g transform="translate(316.169359 330.833125) scale(0.2 -0.2)">
       <defs>
        <path id="DejaVuSans-37" d="M 525 4666 
L 3525 4666 
L 3525 4397 
L 1831 0 
L 1172 0 
L 2766 4134 
L 525 4134 
L 525 4666 
z
" transform="scale(0.015625)"/>
       </defs>
       <use xlink:href="#DejaVuSans-37"/>
       <use xlink:href="#DejaVuSans-35" x="63.623047"/>
       <use xlink:href="#DejaVuSans-30" x="127.246094"/>
      </g>
     </g>
    </g>
    <g id="xtick_5">
     <g id="line2d_5">
      <g>
       <use xlink:href="#m1f85297a27" x="407.724391" y="308.63625" style="stroke: #000000; stroke-width: 0.8"/>
      </g>
     </g>
     <g id="text_5">
      <!-- 1000 -->
      <g transform="translate(382.274391 330.833125) scale(0.2 -0.2)">
       <defs>
        <path id="DejaVuSans-31" d="M 794 531 
L 1825 531 
L 1825 4091 
L 703 3866 
L 703 4441 
L 1819 4666 
L 2450 4666 
L 2450 531 
L 3481 531 
L 3481 0 
L 794 0 
L 794 531 
z
" transform="scale(0.015625)"/>
       </defs>
       <use xlink:href="#DejaVuSans-31"/>
       <use xlink:href="#DejaVuSans-30" x="63.623047"/>
       <use xlink:href="#DejaVuSans-30" x="127.246094"/>
       <use xlink:href="#DejaVuSans-30" x="190.869141"/>
      </g>
     </g>
    </g>
    <g id="xtick_6">
     <g id="line2d_6">
      <g>
       <use xlink:href="#m1f85297a27" x="480.191924" y="308.63625" style="stroke: #000000; stroke-width: 0.8"/>
      </g>
     </g>
     <g id="text_6">
      <!-- 1250 -->
      <g transform="translate(454.741924 330.833125) scale(0.2 -0.2)">
       <use xlink:href="#DejaVuSans-31"/>
       <use xlink:href="#DejaVuSans-32" x="63.623047"/>
       <use xlink:href="#DejaVuSans-35" x="127.246094"/>
       <use xlink:href="#DejaVuSans-30" x="190.869141"/>
      </g>
     </g>
    </g>
    <g id="xtick_7">
     <g id="line2d_7">
      <g>
       <use xlink:href="#m1f85297a27" x="552.659456" y="308.63625" style="stroke: #000000; stroke-width: 0.8"/>
      </g>
     </g>
     <g id="text_7">
      <!-- 1500 -->
      <g transform="translate(527.209456 330.833125) scale(0.2 -0.2)">
       <use xlink:href="#DejaVuSans-31"/>
       <use xlink:href="#DejaVuSans-35" x="63.623047"/>
       <use xlink:href="#DejaVuSans-30" x="127.246094"/>
       <use xlink:href="#DejaVuSans-30" x="190.869141"/>
      </g>
     </g>
    </g>
    <g id="xtick_8">
     <g id="line2d_8">
      <g>
       <use xlink:href="#m1f85297a27" x="625.126989" y="308.63625" style="stroke: #000000; stroke-width: 0.8"/>
      </g>
     </g>
     <g id="text_8">
      <!-- 1750 -->
      <g transform="translate(599.676989 330.833125) scale(0.2 -0.2)">
       <use xlink:href="#DejaVuSans-31"/>
       <use xlink:href="#DejaVuSans-37" x="63.623047"/>
       <use xlink:href="#DejaVuSans-35" x="127.246094"/>
       <use xlink:href="#DejaVuSans-30" x="190.869141"/>
      </g>
     </g>
    </g>
    <g id="text_9">
     <!-- iterations -->
     <g transform="translate(324.035938 354.189375) scale(0.2 -0.2)">
      <defs>
       <path id="DejaVuSans-69" d="M 603 3500 
L 1178 3500 
L 1178 0 
L 603 0 
L 603 3500 
z
M 603 4863 
L 1178 4863 
L 1178 4134 
L 603 4134 
L 603 4863 
z
" transform="scale(0.015625)"/>
       <path id="DejaVuSans-74" d="M 1172 4494 
L 1172 3500 
L 2356 3500 
L 2356 3053 
L 1172 3053 
L 1172 1153 
Q 1172 725 1289 603 
Q 1406 481 1766 481 
L 2356 481 
L 2356 0 
L 1766 0 
Q 1100 0 847 248 
Q 594 497 594 1153 
L 594 3053 
L 172 3053 
L 172 3500 
L 594 3500 
L 594 4494 
L 1172 4494 
z
" transform="scale(0.015625)"/>
       <path id="DejaVuSans-65" d="M 3597 1894 
L 3597 1613 
L 953 1613 
Q 991 1019 1311 708 
Q 1631 397 2203 397 
Q 2534 397 2845 478 
Q 3156 559 3463 722 
L 3463 178 
Q 3153 47 2828 -22 
Q 2503 -91 2169 -91 
Q 1331 -91 842 396 
Q 353 884 353 1716 
Q 353 2575 817 3079 
Q 1281 3584 2069 3584 
Q 2775 3584 3186 3129 
Q 3597 2675 3597 1894 
z
M 3022 2063 
Q 3016 2534 2758 2815 
Q 2500 3097 2075 3097 
Q 1594 3097 1305 2825 
Q 1016 2553 972 2059 
L 3022 2063 
z
" transform="scale(0.015625)"/>
       <path id="DejaVuSans-72" d="M 2631 2963 
Q 2534 3019 2420 3045 
Q 2306 3072 2169 3072 
Q 1681 3072 1420 2755 
Q 1159 2438 1159 1844 
L 1159 0 
L 581 0 
L 581 3500 
L 1159 3500 
L 1159 2956 
Q 1341 3275 1631 3429 
Q 1922 3584 2338 3584 
Q 2397 3584 2469 3576 
Q 2541 3569 2628 3553 
L 2631 2963 
z
" transform="scale(0.015625)"/>
       <path id="DejaVuSans-61" d="M 2194 1759 
Q 1497 1759 1228 1600 
Q 959 1441 959 1056 
Q 959 750 1161 570 
Q 1363 391 1709 391 
Q 2188 391 2477 730 
Q 2766 1069 2766 1631 
L 2766 1759 
L 2194 1759 
z
M 3341 1997 
L 3341 0 
L 2766 0 
L 2766 531 
Q 2569 213 2275 61 
Q 1981 -91 1556 -91 
Q 1019 -91 701 211 
Q 384 513 384 1019 
Q 384 1609 779 1909 
Q 1175 2209 1959 2209 
L 2766 2209 
L 2766 2266 
Q 2766 2663 2505 2880 
Q 2244 3097 1772 3097 
Q 1472 3097 1187 3025 
Q 903 2953 641 2809 
L 641 3341 
Q 956 3463 1253 3523 
Q 1550 3584 1831 3584 
Q 2591 3584 2966 3190 
Q 3341 2797 3341 1997 
z
" transform="scale(0.015625)"/>
       <path id="DejaVuSans-6f" d="M 1959 3097 
Q 1497 3097 1228 2736 
Q 959 2375 959 1747 
Q 959 1119 1226 758 
Q 1494 397 1959 397 
Q 2419 397 2687 759 
Q 2956 1122 2956 1747 
Q 2956 2369 2687 2733 
Q 2419 3097 1959 3097 
z
M 1959 3584 
Q 2709 3584 3137 3096 
Q 3566 2609 3566 1747 
Q 3566 888 3137 398 
Q 2709 -91 1959 -91 
Q 1206 -91 779 398 
Q 353 888 353 1747 
Q 353 2609 779 3096 
Q 1206 3584 1959 3584 
z
" transform="scale(0.015625)"/>
       <path id="DejaVuSans-6e" d="M 3513 2113 
L 3513 0 
L 2938 0 
L 2938 2094 
Q 2938 2591 2744 2837 
Q 2550 3084 2163 3084 
Q 1697 3084 1428 2787 
Q 1159 2491 1159 1978 
L 1159 0 
L 581 0 
L 581 3500 
L 1159 3500 
L 1159 2956 
Q 1366 3272 1645 3428 
Q 1925 3584 2291 3584 
Q 2894 3584 3203 3211 
Q 3513 2838 3513 2113 
z
" transform="scale(0.015625)"/>
       <path id="DejaVuSans-73" d="M 2834 3397 
L 2834 2853 
Q 2591 2978 2328 3040 
Q 2066 3103 1784 3103 
Q 1356 3103 1142 2972 
Q 928 2841 928 2578 
Q 928 2378 1081 2264 
Q 1234 2150 1697 2047 
L 1894 2003 
Q 2506 1872 2764 1633 
Q 3022 1394 3022 966 
Q 3022 478 2636 193 
Q 2250 -91 1575 -91 
Q 1294 -91 989 -36 
Q 684 19 347 128 
L 347 722 
Q 666 556 975 473 
Q 1284 391 1588 391 
Q 1994 391 2212 530 
Q 2431 669 2431 922 
Q 2431 1156 2273 1281 
Q 2116 1406 1581 1522 
L 1381 1569 
Q 847 1681 609 1914 
Q 372 2147 372 2553 
Q 372 3047 722 3315 
Q 1072 3584 1716 3584 
Q 2034 3584 2315 3537 
Q 2597 3491 2834 3397 
z
" transform="scale(0.015625)"/>
      </defs>
      <use xlink:href="#DejaVuSans-69"/>
      <use xlink:href="#DejaVuSans-74" x="27.783203"/>
      <use xlink:href="#DejaVuSans-65" x="66.992188"/>
      <use xlink:href="#DejaVuSans-72" x="128.515625"/>
      <use xlink:href="#DejaVuSans-61" x="169.628906"/>
      <use xlink:href="#DejaVuSans-74" x="230.908203"/>
      <use xlink:href="#DejaVuSans-69" x="270.117188"/>
      <use xlink:href="#DejaVuSans-6f" x="297.900391"/>
      <use xlink:href="#DejaVuSans-6e" x="359.082031"/>
      <use xlink:href="#DejaVuSans-73" x="422.460938"/>
     </g>
    </g>
   </g>
   <g id="matplotlib.axis_2">
    <g id="ytick_1">
     <g id="line2d_9">
      <defs>
       <path id="mf315628231" d="M 0 0 
L -3.5 0 
" style="stroke: #000000; stroke-width: 0.8"/>
      </defs>
      <g>
       <use xlink:href="#mf315628231" x="92.490625" y="278.050314" style="stroke: #000000; stroke-width: 0.8"/>
      </g>
     </g>
     <g id="text_10">
      <!-- −200 -->
      <g transform="translate(30.55625 285.648751) scale(0.2 -0.2)">
       <defs>
        <path id="DejaVuSans-2212" d="M 678 2272 
L 4684 2272 
L 4684 1741 
L 678 1741 
L 678 2272 
z
" transform="scale(0.015625)"/>
       </defs>
       <use xlink:href="#DejaVuSans-2212"/>
       <use xlink:href="#DejaVuSans-32" x="83.789062"/>
       <use xlink:href="#DejaVuSans-30" x="147.412109"/>
       <use xlink:href="#DejaVuSans-30" x="211.035156"/>
      </g>
     </g>
    </g>
    <g id="ytick_2">
     <g id="line2d_10">
      <g>
       <use xlink:href="#mf315628231" x="92.490625" y="225.895764" style="stroke: #000000; stroke-width: 0.8"/>
      </g>
     </g>
     <g id="text_11">
      <!-- −100 -->
      <g transform="translate(30.55625 233.494202) scale(0.2 -0.2)">
       <use xlink:href="#DejaVuSans-2212"/>
       <use xlink:href="#DejaVuSans-31" x="83.789062"/>
       <use xlink:href="#DejaVuSans-30" x="147.412109"/>
       <use xlink:href="#DejaVuSans-30" x="211.035156"/>
      </g>
     </g>
    </g>
    <g id="ytick_3">
     <g id="line2d_11">
      <g>
       <use xlink:href="#mf315628231" x="92.490625" y="173.741215" style="stroke: #000000; stroke-width: 0.8"/>
      </g>
     </g>
     <g id="text_12">
      <!-- 0 -->
      <g transform="translate(72.765625 181.339652) scale(0.2 -0.2)">
       <use xlink:href="#DejaVuSans-30"/>
      </g>
     </g>
    </g>
    <g id="ytick_4">
     <g id="line2d_12">
      <g>
       <use xlink:href="#mf315628231" x="92.490625" y="121.586665" style="stroke: #000000; stroke-width: 0.8"/>
      </g>
     </g>
     <g id="text_13">
      <!-- 100 -->
      <g transform="translate(47.315625 129.185102) scale(0.2 -0.2)">
       <use xlink:href="#DejaVuSans-31"/>
       <use xlink:href="#DejaVuSans-30" x="63.623047"/>
       <use xlink:href="#DejaVuSans-30" x="127.246094"/>
      </g>
     </g>
    </g>
    <g id="ytick_5">
     <g id="line2d_13">
      <g>
       <use xlink:href="#mf315628231" x="92.490625" y="69.432115" style="stroke: #000000; stroke-width: 0.8"/>
      </g>
     </g>
     <g id="text_14">
      <!-- 200 -->
      <g transform="translate(47.315625 77.030553) scale(0.2 -0.2)">
       <use xlink:href="#DejaVuSans-32"/>
       <use xlink:href="#DejaVuSans-30" x="63.623047"/>
       <use xlink:href="#DejaVuSans-30" x="127.246094"/>
      </g>
     </g>
    </g>
    <g id="text_15">
     <!-- Loss -->
     <g transform="translate(22.396875 191.970625) rotate(-90) scale(0.2 -0.2)">
      <defs>
       <path id="DejaVuSans-4c" d="M 628 4666 
L 1259 4666 
L 1259 531 
L 3531 531 
L 3531 0 
L 628 0 
L 628 4666 
z
" transform="scale(0.015625)"/>
      </defs>
      <use xlink:href="#DejaVuSans-4c"/>
      <use xlink:href="#DejaVuSans-6f" x="53.962891"/>
      <use xlink:href="#DejaVuSans-73" x="115.144531"/>
      <use xlink:href="#DejaVuSans-73" x="167.244141"/>
     </g>
    </g>
   </g>
   <g id="line2d_14">
    <path d="M 117.854261 116.730416 
L 118.144131 62.430435 
L 118.434002 101.446911 
L 118.723872 97.742273 
L 119.013742 71.891481 
L 119.303612 66.005259 
L 119.593482 53.003453 
L 119.883352 50.572912 
L 120.173222 59.282987 
L 120.463093 64.407922 
L 120.752963 63.027834 
L 121.622573 76.15716 
L 121.912443 51.933022 
L 122.202313 73.641653 
L 122.492183 118.042353 
L 122.782054 125.137272 
L 123.361794 60.941522 
L 123.651664 44.03625 
L 123.941534 52.703352 
L 124.231404 66.415864 
L 124.811144 80.271673 
L 125.101015 77.046844 
L 125.390885 85.974109 
L 125.680755 89.320307 
L 125.970625 99.781725 
L 126.260495 103.629806 
L 126.550365 95.490293 
L 126.840235 93.742179 
L 127.130106 96.556052 
L 127.419976 104.56955 
L 127.709846 103.315712 
L 127.999716 106.314088 
L 128.289586 101.622759 
L 128.579456 103.726444 
L 128.869326 97.099143 
L 129.159196 105.59913 
L 129.449067 102.090241 
L 129.738937 108.846517 
L 130.028807 107.115866 
L 130.318677 107.768741 
L 130.608547 94.854922 
L 130.898417 103.509892 
L 131.188287 99.688151 
L 131.478157 99.279356 
L 131.768028 102.538264 
L 132.057898 101.345011 
L 132.347768 103.441635 
L 132.637638 100.626615 
L 132.927508 103.77917 
L 133.217378 108.446027 
L 133.507248 104.135863 
L 133.797119 113.024366 
L 134.086989 113.256683 
L 134.376859 118.953402 
L 134.666729 121.504437 
L 134.956599 125.536059 
L 135.246469 125.084203 
L 135.536339 124.975704 
L 135.826209 129.12069 
L 136.11608 129.965285 
L 136.40595 127.601113 
L 136.69582 122.813187 
L 136.98569 121.044518 
L 137.27556 125.340201 
L 137.56543 125.222212 
L 137.8553 129.200338 
L 138.14517 126.028649 
L 138.435041 128.68786 
L 139.014781 125.98626 
L 139.304651 127.841862 
L 139.594521 125.227578 
L 140.174261 134.240456 
L 140.464131 133.266292 
L 140.754002 131.370037 
L 141.043872 133.221224 
L 141.333742 131.530508 
L 141.623612 127.304061 
L 141.913482 127.021545 
L 142.203352 131.504403 
L 142.493222 129.12013 
L 142.783093 130.155912 
L 143.072963 129.13671 
L 143.652703 135.649824 
L 143.942573 130.074104 
L 144.232443 129.476486 
L 144.522313 129.449765 
L 144.812183 127.07422 
L 145.391924 128.405043 
L 145.681794 132.155688 
L 145.971664 129.996242 
L 146.261534 130.068832 
L 146.551404 128.264842 
L 146.841274 131.050036 
L 147.131144 130.94195 
L 147.421015 128.470743 
L 147.710885 131.531211 
L 148.000755 131.612299 
L 148.290625 132.350694 
L 148.580495 131.23145 
L 148.870365 134.408219 
L 149.160235 133.259949 
L 149.450106 133.451761 
L 149.739976 135.868165 
L 150.029846 136.567827 
L 150.319716 137.964817 
L 150.609586 137.904629 
L 150.899456 140.59013 
L 151.189326 140.248142 
L 151.479196 142.320233 
L 152.058937 143.305748 
L 152.348807 144.681703 
L 152.638677 144.519549 
L 152.928547 145.240951 
L 153.218417 143.606707 
L 153.508287 147.202116 
L 153.798157 147.401776 
L 154.088028 145.312951 
L 154.377898 147.788315 
L 154.667768 144.771762 
L 154.957638 147.864716 
L 155.247508 144.354608 
L 155.537378 149.00043 
L 155.827248 148.864368 
L 156.117119 147.326535 
L 156.406989 147.287939 
L 156.696859 149.193091 
L 156.986729 147.831455 
L 157.276599 148.825769 
L 157.566469 148.096776 
L 157.856339 148.745121 
L 158.146209 151.093129 
L 158.43608 147.222083 
L 158.72595 147.173949 
L 159.01582 149.684394 
L 159.30569 150.670233 
L 159.59556 150.083711 
L 159.88543 151.347509 
L 160.1753 149.72187 
L 160.46517 149.97145 
L 160.755041 152.818688 
L 161.044911 153.166956 
L 161.334781 151.635056 
L 161.624651 152.261085 
L 161.914521 150.388173 
L 162.204391 149.701996 
L 162.494261 148.135366 
L 162.784131 150.229807 
L 163.074002 149.605711 
L 163.653742 151.22725 
L 163.943612 150.754788 
L 164.233482 152.243257 
L 164.523352 151.654234 
L 164.813222 154.11977 
L 165.103093 155.048733 
L 165.392963 153.344866 
L 165.682833 153.231589 
L 165.972703 154.848303 
L 166.262573 153.800574 
L 166.552443 157.048832 
L 166.842313 156.893901 
L 167.132183 155.884159 
L 167.422054 156.207196 
L 168.001794 155.9323 
L 168.581534 160.584037 
L 168.871404 159.109185 
L 169.161274 160.133137 
L 169.451144 157.417522 
L 169.741015 158.294861 
L 170.030885 157.179436 
L 170.320755 156.74332 
L 170.610625 152.371756 
L 170.900495 154.608543 
L 171.190365 154.732663 
L 171.480235 156.74822 
L 171.770106 153.888262 
L 172.059976 153.0428 
L 172.349846 149.447487 
L 172.639716 149.480507 
L 172.929586 149.219328 
L 173.799196 154.868603 
L 174.089067 153.249777 
L 174.378937 154.622314 
L 174.668807 153.342076 
L 174.958677 153.92423 
L 175.248547 155.062312 
L 175.538417 156.883775 
L 175.828287 155.221922 
L 176.118157 156.801697 
L 176.697898 155.609429 
L 176.987768 154.116463 
L 177.567508 156.80764 
L 177.857378 155.756673 
L 178.147248 156.419443 
L 178.437119 154.641703 
L 178.726989 156.161499 
L 179.016859 154.121002 
L 179.306729 156.645991 
L 179.596599 155.529907 
L 179.886469 156.176916 
L 180.176339 155.396429 
L 180.466209 155.88568 
L 180.75608 155.259632 
L 181.04595 153.799706 
L 181.33582 154.311158 
L 181.62569 153.059434 
L 181.91556 154.648248 
L 182.20543 155.120642 
L 182.4953 153.132141 
L 182.78517 153.483931 
L 183.075041 154.04572 
L 183.364911 154.987186 
L 183.654781 154.816669 
L 184.234521 153.202575 
L 184.524391 153.916273 
L 184.814261 152.705682 
L 185.104131 152.166556 
L 185.394002 152.402338 
L 185.683872 152.180249 
L 185.973742 154.11953 
L 186.263612 152.016894 
L 186.553482 153.003526 
L 186.843352 151.826107 
L 187.133222 152.171399 
L 187.423093 153.165678 
L 187.712963 152.958836 
L 188.002833 151.2627 
L 188.292703 152.237006 
L 188.582573 152.790376 
L 189.162313 149.160309 
L 189.742054 150.86653 
L 190.031924 150.354096 
L 190.321794 149.479063 
L 190.611664 152.676587 
L 190.901534 151.047918 
L 191.191404 152.469854 
L 191.481274 152.266123 
L 191.771144 153.462899 
L 192.061015 154.069147 
L 192.350885 154.003291 
L 192.640755 154.910829 
L 193.220495 155.294215 
L 193.510365 154.960983 
L 193.800235 154.061296 
L 194.090106 155.470938 
L 194.379976 153.968602 
L 194.669846 153.381538 
L 194.959716 153.259493 
L 195.539456 155.292109 
L 195.829326 154.850473 
L 196.119196 155.670758 
L 196.409067 154.673209 
L 196.698937 154.525595 
L 196.988807 155.551714 
L 197.278677 155.152165 
L 197.858417 157.010189 
L 198.148287 156.050296 
L 198.438157 155.985973 
L 199.017898 156.386478 
L 199.307768 157.272418 
L 199.597638 156.749003 
L 199.887508 157.107192 
L 200.177378 157.119295 
L 200.467248 157.761971 
L 200.757119 157.134318 
L 201.046989 156.145483 
L 201.336859 158.606781 
L 201.626729 157.442978 
L 201.916599 157.059694 
L 202.206469 157.835689 
L 202.496339 157.316152 
L 203.07608 157.854228 
L 203.36595 159.260742 
L 203.65582 158.661202 
L 203.94569 158.869777 
L 204.23556 159.238682 
L 204.52543 160.284156 
L 204.8153 159.663591 
L 205.10517 159.433966 
L 205.395041 159.789577 
L 205.974781 159.882359 
L 206.264651 160.25701 
L 206.554521 161.289905 
L 206.844391 158.838544 
L 207.134261 159.924778 
L 207.714002 160.777332 
L 208.003872 162.658706 
L 208.293742 162.11453 
L 208.583612 162.229981 
L 208.873482 160.98345 
L 209.453222 163.379221 
L 209.743093 163.181533 
L 210.032963 163.880014 
L 210.322833 163.180675 
L 210.902573 162.823045 
L 211.192443 162.673332 
L 211.482313 164.01015 
L 211.772183 163.898086 
L 212.062054 163.587924 
L 212.351924 163.629103 
L 212.641794 164.448835 
L 212.931664 164.678214 
L 213.221534 165.504125 
L 213.511404 164.692579 
L 213.801274 166.342899 
L 214.091144 167.152715 
L 214.381015 165.965846 
L 214.670885 167.413876 
L 214.960755 166.665451 
L 215.250625 166.885093 
L 215.830365 165.964408 
L 216.120235 165.434706 
L 216.410106 165.631563 
L 216.699976 166.035931 
L 216.989846 165.705315 
L 217.569586 166.525807 
L 217.859456 166.210813 
L 218.149326 166.169597 
L 218.439196 166.418649 
L 218.729067 165.309747 
L 219.018937 165.436775 
L 219.308807 166.031096 
L 219.598677 165.914072 
L 219.888547 167.508869 
L 220.178417 166.783678 
L 220.468287 166.803441 
L 220.758157 166.419973 
L 221.048028 165.84882 
L 221.337898 166.801295 
L 221.627768 166.075255 
L 222.207508 167.123316 
L 222.497378 167.002987 
L 222.787248 167.874705 
L 223.077119 167.313398 
L 223.366989 168.063886 
L 223.946729 167.5642 
L 224.236599 168.792709 
L 224.526469 168.642832 
L 224.816339 167.815961 
L 225.106209 168.876404 
L 225.68595 169.44384 
L 225.97582 169.245245 
L 226.26569 169.40812 
L 226.55556 169.727721 
L 227.42517 169.380179 
L 227.715041 168.682531 
L 228.004911 168.772326 
L 228.294781 169.343754 
L 228.584651 168.172043 
L 228.874521 168.854283 
L 229.744131 169.872072 
L 230.034002 169.938352 
L 230.323872 169.719371 
L 230.613742 168.183161 
L 230.903612 169.845163 
L 231.193482 169.297504 
L 231.483352 170.613594 
L 232.352963 170.480542 
L 232.642833 170.525653 
L 232.932703 169.977587 
L 233.222573 170.364696 
L 233.512443 169.181846 
L 233.802313 170.062413 
L 234.092183 168.886077 
L 234.382054 169.394782 
L 234.671924 169.662922 
L 234.961794 170.145244 
L 235.251664 169.927706 
L 235.541534 170.004292 
L 235.831404 169.875281 
L 236.121274 168.776072 
L 236.411144 168.991334 
L 236.701015 170.365659 
L 236.990885 171.176641 
L 237.280755 171.202022 
L 237.570625 170.910612 
L 238.150365 170.81527 
L 238.440235 171.004884 
L 238.730106 170.949 
L 239.019976 171.33907 
L 239.309846 170.94787 
L 239.599716 171.197713 
L 239.889586 171.714517 
L 240.179456 171.475357 
L 240.469326 171.483979 
L 241.338937 171.036587 
L 241.628807 171.608698 
L 241.918677 171.845687 
L 242.208547 170.643028 
L 242.498417 170.670747 
L 242.788287 171.285834 
L 243.078157 170.540197 
L 243.368028 171.206933 
L 243.657898 171.295074 
L 243.947768 170.80643 
L 244.237638 170.955732 
L 244.527508 171.29138 
L 244.817378 171.91542 
L 245.107248 170.798087 
L 245.686989 172.396778 
L 245.976859 171.585403 
L 246.266729 171.605385 
L 246.556599 171.166604 
L 246.846469 172.321859 
L 247.136339 172.257516 
L 247.426209 173.085883 
L 248.00595 172.209607 
L 248.29582 172.172332 
L 248.58569 172.281268 
L 248.87556 172.82213 
L 249.4553 172.079089 
L 249.74517 172.578862 
L 250.035041 172.245953 
L 250.324911 172.597846 
L 250.614781 172.410781 
L 250.904651 172.673752 
L 251.194521 172.11368 
L 251.484391 172.760862 
L 251.774261 172.901058 
L 252.064131 172.8115 
L 252.354002 172.944725 
L 252.643872 172.884963 
L 252.933742 173.067699 
L 253.223612 172.387809 
L 253.513482 172.65821 
L 253.803352 172.570902 
L 254.093222 173.384998 
L 254.383093 172.353634 
L 254.672963 172.340497 
L 254.962833 172.085243 
L 255.542573 173.137002 
L 255.832443 172.492417 
L 256.412183 172.834667 
L 256.702054 172.629771 
L 256.991924 172.593443 
L 257.281794 172.907705 
L 257.571664 172.320619 
L 257.861534 172.453421 
L 258.151404 172.330282 
L 258.441274 172.595965 
L 258.731144 172.528293 
L 259.021015 172.861315 
L 259.310885 172.896261 
L 259.600755 173.496203 
L 260.180495 172.827251 
L 260.470365 173.139689 
L 260.760235 173.266205 
L 261.050106 173.642314 
L 261.339976 173.416752 
L 261.629846 172.83362 
L 261.919716 172.80055 
L 262.209586 172.93646 
L 262.499456 173.231901 
L 262.789326 173.197898 
L 263.079196 173.481921 
L 263.369067 173.240156 
L 264.238677 173.864126 
L 264.528547 173.678847 
L 264.818417 173.868298 
L 265.108287 173.729008 
L 265.398157 173.863457 
L 265.688028 173.579213 
L 265.977898 173.71759 
L 266.267768 173.392521 
L 266.557638 174.005318 
L 267.137378 174.1466 
L 267.427248 173.144914 
L 267.717119 173.671143 
L 268.296859 174.144585 
L 268.586729 174.019534 
L 268.876599 173.687268 
L 269.456339 174.288035 
L 269.746209 174.1292 
L 270.03608 174.242572 
L 270.32595 174.970998 
L 270.61582 174.148864 
L 270.90569 174.472383 
L 271.19556 173.912354 
L 271.48543 174.929903 
L 271.7753 174.810248 
L 272.06517 174.379742 
L 272.934781 173.893045 
L 273.224651 173.93676 
L 273.514521 174.381656 
L 274.094261 174.031575 
L 274.384131 173.335467 
L 274.674002 174.324617 
L 274.963872 174.571458 
L 275.253742 174.284473 
L 275.543612 175.075052 
L 275.833482 174.592264 
L 276.413222 174.200782 
L 276.703093 174.356521 
L 276.992963 174.179814 
L 277.282833 174.241436 
L 277.572703 174.705087 
L 277.862573 174.679353 
L 278.152443 175.121293 
L 278.442313 175.179036 
L 278.732183 174.430687 
L 279.022054 174.649242 
L 279.311924 175.257114 
L 279.601794 175.436165 
L 279.891664 175.287799 
L 280.181534 174.561613 
L 280.471404 174.723566 
L 280.761274 174.37005 
L 281.051144 174.652566 
L 281.341015 174.067515 
L 281.630885 174.41544 
L 281.920755 174.313536 
L 282.210625 173.964429 
L 282.500495 175.090529 
L 282.790365 174.400231 
L 283.080235 174.447379 
L 283.370106 174.233904 
L 283.659976 174.975875 
L 283.949846 174.326316 
L 284.239716 175.300385 
L 284.529586 174.82901 
L 285.109326 175.127618 
L 285.689067 174.46174 
L 285.978937 174.729816 
L 286.268807 174.81318 
L 286.558677 175.237349 
L 286.848547 175.075744 
L 287.138417 175.140725 
L 287.428287 175.423618 
L 287.718157 175.255391 
L 288.008028 174.372277 
L 288.297898 175.023375 
L 289.167508 174.296632 
L 289.457378 174.415329 
L 289.747248 174.011729 
L 290.037119 173.923366 
L 290.326989 174.913864 
L 290.616859 174.884597 
L 290.906729 174.594898 
L 291.196599 175.163894 
L 291.486469 174.999425 
L 291.776339 174.408347 
L 292.066209 174.79119 
L 292.64595 174.39759 
L 292.93582 174.925129 
L 293.22569 175.055533 
L 294.0953 174.800814 
L 294.38517 174.936818 
L 294.675041 174.810069 
L 294.964911 174.461777 
L 295.254781 174.900441 
L 295.544651 174.840383 
L 295.834521 174.327729 
L 296.124391 174.398339 
L 296.414261 174.61807 
L 296.704131 174.995317 
L 296.994002 174.346549 
L 297.283872 174.179704 
L 297.863612 174.718233 
L 298.153482 174.316179 
L 298.443352 174.535876 
L 298.733222 174.370798 
L 299.023093 174.537744 
L 299.602833 175.518156 
L 299.892703 175.645277 
L 300.182573 175.611891 
L 300.472443 175.052068 
L 300.762313 174.974856 
L 301.052183 175.427324 
L 301.342054 175.271629 
L 301.631924 175.61701 
L 301.921794 175.247906 
L 302.211664 175.294735 
L 302.791404 175.89879 
L 303.081274 176.077742 
L 303.661015 175.413471 
L 303.950885 175.623908 
L 304.240755 175.198067 
L 304.820495 175.44581 
L 305.110365 175.927804 
L 305.400235 175.219054 
L 305.690106 175.687479 
L 305.979976 175.794876 
L 306.269846 175.43702 
L 306.559716 175.328583 
L 307.719196 175.825537 
L 308.009067 176.583016 
L 308.588807 176.896142 
L 309.168547 175.911554 
L 309.458417 176.351337 
L 309.748287 176.181965 
L 310.038157 175.349774 
L 310.328028 176.114277 
L 310.617898 176.114064 
L 310.907768 176.672723 
L 311.487508 176.794847 
L 311.777378 176.325163 
L 312.067248 176.152382 
L 312.357119 176.214148 
L 312.646989 176.505449 
L 312.936859 176.472516 
L 313.226729 176.315092 
L 313.516599 176.027412 
L 313.806469 175.987551 
L 314.096339 176.178034 
L 314.67608 175.706594 
L 314.96595 175.723933 
L 315.25582 175.382591 
L 315.83556 176.010723 
L 316.12543 176.041978 
L 316.70517 175.815828 
L 316.995041 175.496626 
L 317.284911 175.553821 
L 317.574781 175.759455 
L 318.154521 175.844381 
L 318.444391 175.513322 
L 318.734261 175.601948 
L 319.024131 175.865583 
L 319.314002 175.970531 
L 319.893742 175.09015 
L 320.183612 174.097807 
L 320.473482 173.960914 
L 320.763352 175.204017 
L 321.053222 175.655793 
L 321.343093 175.423121 
L 321.632963 175.631669 
L 321.922833 175.399722 
L 322.502573 176.051574 
L 322.792443 175.853567 
L 323.082313 175.970963 
L 323.372183 175.320615 
L 323.662054 175.441648 
L 324.241794 174.876387 
L 324.531664 174.870139 
L 324.821534 175.364116 
L 325.111404 174.282222 
L 325.401274 175.180443 
L 325.691144 175.13155 
L 325.981015 173.969377 
L 326.270885 174.97548 
L 326.560755 175.185995 
L 326.850625 175.592498 
L 327.140495 174.224 
L 327.430365 174.801255 
L 327.720235 174.91318 
L 328.010106 174.655643 
L 328.589846 175.51598 
L 328.879716 174.805268 
L 329.169586 174.946519 
L 329.459456 174.673955 
L 329.749326 175.576337 
L 330.039196 175.910655 
L 330.618937 174.921067 
L 330.908807 175.43875 
L 331.198677 174.862004 
L 331.488547 175.643429 
L 331.778417 175.346209 
L 332.068287 175.821889 
L 332.358157 175.425669 
L 332.937898 175.266382 
L 333.227768 175.036475 
L 333.517638 175.681982 
L 334.387248 174.957426 
L 334.677119 175.009111 
L 334.966989 175.237253 
L 335.256859 175.090847 
L 335.546729 175.476843 
L 335.836599 175.38795 
L 336.126469 175.687296 
L 336.416339 175.334876 
L 336.706209 175.78399 
L 336.99608 175.347002 
L 337.28595 175.32446 
L 337.57582 175.159546 
L 337.86569 175.583069 
L 338.15556 175.228515 
L 338.44543 176.02991 
L 338.7353 175.340675 
L 339.02517 175.748797 
L 339.315041 175.759824 
L 339.604911 175.502586 
L 339.894781 175.409135 
L 340.184651 175.853548 
L 340.474521 175.920658 
L 341.054261 175.379425 
L 341.344131 176.221307 
L 341.634002 175.55776 
L 341.923872 175.671852 
L 342.213742 176.33195 
L 343.083352 175.693488 
L 343.373222 175.451603 
L 343.663093 176.452433 
L 343.952963 176.21655 
L 344.242833 176.977168 
L 344.532703 175.887416 
L 344.822573 176.256904 
L 345.112443 176.362777 
L 345.402313 175.833331 
L 345.982054 175.793318 
L 346.271924 176.410457 
L 346.561794 176.010869 
L 346.851664 175.973294 
L 347.431404 175.635988 
L 347.721274 175.867813 
L 348.011144 175.84295 
L 348.880755 176.530575 
L 349.170625 175.556151 
L 349.460495 176.013475 
L 349.750365 176.017003 
L 350.040235 176.345195 
L 350.330106 175.139508 
L 350.909846 175.377084 
L 351.199716 175.782979 
L 351.489586 175.4227 
L 351.779456 175.800744 
L 352.069326 175.668727 
L 352.359196 175.788994 
L 352.649067 175.527982 
L 353.228807 175.857657 
L 354.388287 175.85444 
L 354.678157 175.697297 
L 354.968028 176.20142 
L 355.547768 175.237599 
L 355.837638 175.776461 
L 356.417378 175.51335 
L 356.707248 175.51361 
L 356.997119 175.284847 
L 357.286989 175.988658 
L 357.576859 175.15682 
L 357.866729 175.828069 
L 358.156599 175.4534 
L 358.446469 175.76782 
L 359.31608 175.604725 
L 359.60595 175.797928 
L 359.89582 175.773003 
L 360.18569 175.578627 
L 360.47556 175.859677 
L 360.76543 175.333468 
L 361.0553 175.829719 
L 361.34517 175.65768 
L 361.924911 175.757424 
L 362.214781 176.020463 
L 362.504651 175.659318 
L 362.794521 175.960948 
L 363.084391 175.952687 
L 363.374261 176.320597 
L 363.664131 175.984955 
L 363.954002 176.126386 
L 364.243872 175.913653 
L 364.533742 175.519525 
L 364.823612 175.791608 
L 365.113482 175.351093 
L 365.403352 175.282828 
L 365.693222 175.970826 
L 365.983093 175.400552 
L 366.272963 175.178384 
L 366.562833 175.532004 
L 367.142573 175.742053 
L 367.432443 175.876546 
L 367.722313 175.29351 
L 368.591924 175.80121 
L 368.881794 175.731596 
L 369.171664 176.07433 
L 369.461534 175.832862 
L 370.041274 175.590428 
L 370.331144 175.82564 
L 370.621015 175.881331 
L 370.910885 176.103466 
L 371.200755 175.817807 
L 371.780495 175.589772 
L 372.650106 175.276529 
L 372.939976 174.986334 
L 373.809586 175.154045 
L 374.099456 174.90375 
L 374.389326 175.098655 
L 374.679196 174.969489 
L 374.969067 175.503733 
L 375.258937 174.699281 
L 375.548807 174.830775 
L 375.838677 174.606166 
L 376.128547 174.633752 
L 376.418417 174.794433 
L 376.708287 175.391126 
L 376.998157 174.277606 
L 377.867768 174.969307 
L 378.157638 174.620509 
L 378.447508 174.539502 
L 378.737378 174.604974 
L 379.027248 174.23742 
L 379.317119 174.810782 
L 379.606989 175.007167 
L 379.896859 174.51024 
L 380.186729 174.737232 
L 380.766469 174.761644 
L 381.056339 174.322663 
L 381.346209 174.866683 
L 381.92595 174.71044 
L 382.21582 174.335361 
L 382.50569 174.262668 
L 382.79556 174.890004 
L 383.08543 174.503134 
L 383.3753 174.750501 
L 383.66517 174.163995 
L 383.955041 175.057433 
L 384.534781 175.289857 
L 385.404391 175.032269 
L 385.984131 174.917818 
L 386.274002 175.166812 
L 386.563872 174.878764 
L 386.853742 174.897581 
L 387.433482 175.763753 
L 387.723352 175.513465 
L 388.013222 176.060368 
L 388.303093 175.325711 
L 388.592963 175.853369 
L 389.172703 174.817698 
L 389.462573 175.369934 
L 389.752443 174.990136 
L 390.042313 175.154369 
L 390.332183 175.499432 
L 390.622054 175.659211 
L 390.911924 175.602143 
L 391.491664 175.101298 
L 391.781534 175.393486 
L 392.071404 175.477245 
L 392.361274 175.193113 
L 392.651144 175.065682 
L 392.941015 175.310346 
L 393.230885 175.089074 
L 393.520755 174.589455 
L 393.810625 175.020915 
L 394.100495 174.789942 
L 394.390365 175.170339 
L 394.680235 174.946715 
L 395.839716 174.91047 
L 396.419456 175.034176 
L 396.999196 174.7419 
L 397.289067 175.353119 
L 397.578937 174.799489 
L 397.868807 175.076352 
L 398.158677 175.054057 
L 398.448547 175.155637 
L 398.738417 175.007391 
L 399.608028 175.080506 
L 399.897898 175.45836 
L 400.187768 175.097267 
L 400.477638 175.103046 
L 400.767508 174.84033 
L 401.347248 175.588443 
L 401.637119 175.226543 
L 402.216859 175.090935 
L 402.506729 175.331811 
L 403.376339 175.065495 
L 403.666209 175.659041 
L 403.95608 174.817642 
L 404.24595 175.154506 
L 405.11556 175.271672 
L 405.40543 175.981782 
L 406.275041 175.099164 
L 406.564911 175.10675 
L 406.854781 174.819697 
L 407.144651 175.458157 
L 407.434521 175.075811 
L 407.724391 175.090511 
L 408.014261 174.59064 
L 408.883872 175.066074 
L 409.173742 174.907704 
L 409.463612 175.031484 
L 409.753482 174.974791 
L 410.043352 175.370817 
L 410.333222 175.277961 
L 410.623093 175.574394 
L 410.912963 175.621487 
L 411.492703 175.01501 
L 411.782573 175.226884 
L 412.072443 175.197485 
L 412.362313 175.563862 
L 412.942054 175.056835 
L 413.231924 175.087308 
L 413.811664 176.028915 
L 414.101534 175.482654 
L 414.681274 175.421469 
L 414.971144 175.655308 
L 415.261015 175.350954 
L 415.550885 175.284323 
L 415.840755 175.867679 
L 416.130625 175.623143 
L 416.420495 175.74287 
L 416.710365 176.090551 
L 417.000235 175.536243 
L 417.290106 175.437969 
L 417.579976 175.585184 
L 418.159716 175.407295 
L 418.449586 175.396844 
L 418.739456 175.512791 
L 419.029326 175.506006 
L 419.319196 175.677124 
L 419.898937 175.620495 
L 420.188807 175.912077 
L 420.478677 175.748044 
L 420.768547 175.907883 
L 421.058417 175.842888 
L 421.348287 175.570896 
L 421.638157 175.719322 
L 421.928028 175.366759 
L 422.217898 175.554968 
L 422.797638 175.619115 
L 423.087508 175.734084 
L 423.667248 175.418141 
L 423.957119 175.665256 
L 424.246989 175.42406 
L 424.826729 175.794127 
L 425.116599 175.439307 
L 425.406469 175.374074 
L 425.986209 175.81214 
L 426.27608 175.170856 
L 426.85582 176.05492 
L 427.14569 175.800837 
L 427.43556 176.17742 
L 427.72543 176.098905 
L 428.0153 175.668089 
L 428.30517 175.762785 
L 429.174781 175.407749 
L 429.464651 175.401051 
L 429.754521 175.14226 
L 430.044391 175.453254 
L 430.334261 175.296474 
L 431.203872 175.843262 
L 431.783612 175.359082 
L 432.073482 175.553939 
L 432.363352 175.953125 
L 432.653222 175.649579 
L 432.943093 175.86551 
L 433.232963 175.538244 
L 433.522833 175.60639 
L 433.812703 175.239481 
L 434.392443 175.029724 
L 434.682313 175.358277 
L 434.972183 175.38395 
L 435.262054 175.705881 
L 435.841794 175.534206 
L 436.421534 175.979912 
L 436.711404 175.951493 
L 437.001274 175.451366 
L 437.291144 175.692163 
L 437.581015 175.154082 
L 437.870885 175.62435 
L 438.160755 175.801177 
L 438.740495 175.250213 
L 439.030365 175.269055 
L 439.320235 175.004577 
L 439.610106 175.243714 
L 440.189846 175.222212 
L 440.479716 174.925321 
L 440.769586 175.719609 
L 441.059456 175.018409 
L 441.349326 174.866172 
L 441.929067 175.126445 
L 442.798677 175.063008 
L 443.088547 175.164063 
L 443.378417 175.082637 
L 443.668287 174.753869 
L 443.958157 175.529251 
L 444.248028 174.745589 
L 444.537898 175.200306 
L 444.827768 174.640105 
L 445.407508 174.773496 
L 445.697378 174.628807 
L 445.987248 174.816999 
L 446.277119 174.320973 
L 446.566989 174.891058 
L 446.856859 174.758141 
L 447.146729 175.333721 
L 447.436599 174.615325 
L 447.726469 174.957255 
L 448.016339 174.519125 
L 448.306209 174.369485 
L 449.17582 174.871741 
L 449.46569 174.476228 
L 450.3353 174.865028 
L 450.62517 174.663183 
L 450.915041 174.300513 
L 451.204911 174.332176 
L 451.494781 174.122625 
L 451.784651 174.063657 
L 452.074521 174.617358 
L 452.654261 174.055997 
L 452.944131 174.793337 
L 453.234002 174.703346 
L 453.813742 173.79846 
L 454.103612 174.224563 
L 454.393482 173.957166 
L 454.683352 174.163236 
L 454.973222 174.076515 
L 455.263093 174.60678 
L 455.552963 174.63188 
L 455.842833 174.09173 
L 456.132703 174.231991 
L 456.422573 174.029099 
L 457.002313 174.196165 
L 457.292183 173.860625 
L 457.582054 174.039714 
L 457.871924 174.080424 
L 458.161794 174.535802 
L 458.451664 174.68288 
L 458.741534 174.496243 
L 459.611144 174.624444 
L 459.901015 175.370094 
L 460.190885 175.459105 
L 460.480755 175.062151 
L 460.770625 175.70813 
L 461.060495 175.378239 
L 461.350365 175.605805 
L 461.640235 175.415055 
L 461.930106 175.426081 
L 462.219976 175.671406 
L 463.089586 175.141591 
L 463.379456 175.120498 
L 463.669326 175.228699 
L 464.249067 175.126698 
L 464.538937 175.180075 
L 464.828807 175.114895 
L 465.118677 175.495082 
L 465.408547 175.249774 
L 465.988287 175.353477 
L 466.278157 175.104242 
L 466.568028 175.302763 
L 466.857898 175.137802 
L 467.147768 175.286 
L 467.437638 174.993177 
L 467.727508 175.069556 
L 468.017378 174.911829 
L 468.307248 175.487017 
L 468.597119 175.348699 
L 468.886989 174.875487 
L 469.176859 175.107768 
L 469.466729 175.009889 
L 469.756599 175.148257 
L 470.046469 174.844329 
L 470.336339 174.962495 
L 470.626209 174.917892 
L 470.91608 174.723767 
L 471.20595 175.071114 
L 471.49582 175.143572 
L 472.07556 174.715026 
L 472.36543 174.857994 
L 472.94517 174.403719 
L 473.814781 174.587568 
L 474.104651 174.70854 
L 474.394521 174.958381 
L 474.684391 174.865504 
L 474.974261 175.156834 
L 475.554002 174.812023 
L 475.843872 175.153412 
L 476.133742 174.694456 
L 476.423612 175.073319 
L 476.713482 174.532314 
L 477.293222 174.548813 
L 477.583093 174.19441 
L 477.872963 174.577263 
L 478.162833 174.607275 
L 478.742573 174.430975 
L 479.322313 174.944196 
L 479.612183 174.943773 
L 479.902054 175.128253 
L 480.191924 174.756729 
L 480.481794 174.867139 
L 480.771664 174.271487 
L 481.351404 174.795752 
L 481.641274 174.594237 
L 481.931144 174.686828 
L 482.221015 174.967619 
L 482.800755 175.112421 
L 483.090625 174.799983 
L 483.670365 175.050415 
L 483.960235 174.966384 
L 484.539976 175.142008 
L 484.829846 174.940542 
L 485.119716 174.901938 
L 485.409586 175.041994 
L 485.699456 174.448311 
L 485.989326 174.955053 
L 486.279196 174.588529 
L 486.569067 174.582603 
L 486.858937 175.09925 
L 487.148807 174.769751 
L 487.438677 174.624125 
L 487.728547 174.763725 
L 488.598157 174.804461 
L 488.888028 174.839987 
L 489.177898 175.24804 
L 489.467768 174.811241 
L 489.757638 174.790241 
L 490.047508 174.615793 
L 490.337378 175.098092 
L 490.627248 174.706094 
L 490.917119 175.053526 
L 491.786729 174.658289 
L 492.366469 175.04318 
L 492.656339 174.987099 
L 493.23608 174.469332 
L 493.52595 174.094224 
L 494.39556 174.711585 
L 494.68543 174.852807 
L 495.26517 174.893967 
L 495.555041 174.348255 
L 496.134781 174.325425 
L 496.424651 174.577391 
L 496.714521 174.499028 
L 497.004391 174.940602 
L 497.294261 174.680428 
L 497.584131 174.775048 
L 497.874002 174.083276 
L 498.163872 174.597451 
L 498.453742 174.431522 
L 498.743612 174.893013 
L 499.033482 175.00367 
L 499.323352 174.67851 
L 499.613222 174.998638 
L 499.903093 175.097126 
L 500.192963 174.55285 
L 500.482833 174.432433 
L 500.772703 174.880158 
L 501.062573 174.638881 
L 501.352443 174.889929 
L 501.642313 175.365795 
L 501.932183 174.846776 
L 502.222054 175.294389 
L 502.511924 175.221588 
L 502.801794 175.351925 
L 503.381534 174.967717 
L 503.671404 174.865309 
L 503.961274 175.17812 
L 504.251144 174.70866 
L 504.541015 175.115616 
L 504.830885 175.295787 
L 505.410625 175.296309 
L 505.990365 175.137059 
L 506.280235 175.597111 
L 506.570106 175.39247 
L 506.859976 175.470972 
L 507.149846 175.22056 
L 507.439716 175.179252 
L 507.729586 175.262955 
L 508.019456 175.028791 
L 508.309326 175.606401 
L 508.599196 175.388649 
L 508.889067 174.96081 
L 509.178937 175.232376 
L 509.468807 175.022308 
L 509.758677 175.253861 
L 510.048547 174.939458 
L 510.338417 174.826633 
L 510.628287 175.216153 
L 510.918157 175.147765 
L 511.208028 175.453132 
L 511.787768 175.185711 
L 512.077638 175.289441 
L 512.367508 174.992861 
L 512.657378 175.043686 
L 512.947248 174.870666 
L 513.526989 175.337491 
L 513.816859 174.688911 
L 514.106729 174.941765 
L 514.396599 175.380579 
L 514.686469 174.959569 
L 514.976339 175.218896 
L 515.266209 174.785331 
L 515.55608 174.960916 
L 515.84595 174.774772 
L 516.71556 175.375697 
L 517.00543 174.951433 
L 517.58517 174.723969 
L 517.875041 174.871619 
L 518.164911 174.747094 
L 518.454781 174.815317 
L 518.744651 175.238504 
L 519.034521 175.158214 
L 519.324391 175.248126 
L 519.614261 175.016585 
L 519.904131 175.042835 
L 520.194002 174.643303 
L 520.483872 175.422416 
L 520.773742 175.322629 
L 521.063612 175.09364 
L 521.353482 175.064613 
L 521.643352 175.203828 
L 521.933222 174.96301 
L 522.223093 175.07807 
L 522.512963 175.620663 
L 522.802833 175.166139 
L 523.092703 175.048569 
L 523.672443 175.248919 
L 523.962313 175.615296 
L 524.831924 175.100458 
L 525.121794 175.251338 
L 525.411664 175.545411 
L 525.701534 175.364173 
L 526.281274 175.672359 
L 526.861015 175.086736 
L 527.150885 175.632781 
L 527.730625 176.064291 
L 528.020495 175.514316 
L 528.310365 175.343734 
L 528.600235 174.895813 
L 528.890106 175.439754 
L 529.179976 175.14674 
L 529.469846 175.634281 
L 529.759716 175.039696 
L 530.049586 174.964348 
L 530.339456 175.69932 
L 530.629326 175.296152 
L 530.919196 175.337905 
L 531.498937 175.951326 
L 531.788807 175.600356 
L 532.078677 175.888594 
L 532.368547 175.617654 
L 532.658417 175.871485 
L 533.238157 175.363879 
L 533.528028 175.649272 
L 533.817898 175.56723 
L 534.107768 175.802924 
L 534.687508 174.882236 
L 534.977378 175.344673 
L 535.557119 175.385966 
L 535.846989 175.078017 
L 536.136859 175.473733 
L 536.426729 175.124845 
L 536.716599 175.283917 
L 537.006469 175.792895 
L 537.296339 175.597265 
L 537.586209 175.173999 
L 538.45582 175.756028 
L 538.74569 175.554913 
L 539.03556 175.763851 
L 539.32543 175.301956 
L 539.90517 175.408335 
L 540.195041 175.208986 
L 540.484911 175.588446 
L 541.064651 175.480746 
L 541.354521 175.678893 
L 541.934261 175.479779 
L 542.224131 175.592575 
L 542.514002 175.331644 
L 542.803872 175.474381 
L 543.093742 175.473202 
L 543.383612 175.676392 
L 543.673482 175.311062 
L 543.963352 175.55298 
L 544.253222 175.239088 
L 544.543093 175.580171 
L 544.832963 175.507804 
L 545.122833 175.763151 
L 545.412703 175.576982 
L 545.702573 175.615082 
L 545.992443 175.856428 
L 546.282313 175.758517 
L 546.572183 176.070196 
L 546.862054 175.663719 
L 547.151924 175.762353 
L 547.441794 176.021927 
L 548.021534 175.72439 
L 548.601274 175.81963 
L 548.891144 175.614079 
L 549.181015 175.777816 
L 550.340495 175.618249 
L 550.630365 175.885414 
L 550.920235 175.545019 
L 551.210106 175.940653 
L 551.499976 175.450501 
L 551.789846 175.797207 
L 552.079716 175.852539 
L 552.659456 175.214069 
L 552.949326 175.676092 
L 553.239196 175.702748 
L 553.529067 175.518764 
L 553.818937 175.673419 
L 554.108807 175.624572 
L 554.398677 175.450378 
L 554.688547 176.021336 
L 554.978417 175.617465 
L 555.268287 175.528101 
L 555.558157 175.890892 
L 556.137898 175.527386 
L 556.427768 175.609489 
L 556.717638 175.83111 
L 557.007508 175.320427 
L 557.297378 175.442482 
L 557.587248 175.173037 
L 558.166989 175.311092 
L 558.456859 175.761221 
L 559.036599 175.493672 
L 559.326469 175.719575 
L 559.616339 175.445867 
L 559.906209 175.549888 
L 560.19608 175.3331 
L 560.48595 174.806685 
L 560.77582 175.158016 
L 561.06569 175.32919 
L 561.35556 175.681753 
L 561.64543 175.427869 
L 561.9353 175.728936 
L 562.515041 175.378389 
L 562.804911 175.674792 
L 563.094781 175.419796 
L 563.384651 175.855168 
L 563.674521 175.293996 
L 563.964391 175.926299 
L 564.254261 175.704351 
L 564.544131 175.698299 
L 564.834002 175.837231 
L 565.413742 175.900627 
L 565.703612 175.645392 
L 565.993482 175.754482 
L 566.283352 175.337907 
L 566.863093 176.020574 
L 567.152963 175.48677 
L 567.442833 175.825988 
L 567.732703 175.702732 
L 568.022573 175.95259 
L 568.312443 175.568646 
L 568.602313 175.422245 
L 568.892183 175.461458 
L 569.182054 175.8291 
L 570.341534 175.372926 
L 570.631404 175.484833 
L 570.921274 175.732042 
L 571.211144 175.717323 
L 571.501015 175.919078 
L 571.790885 175.958051 
L 572.370625 175.4555 
L 572.660495 175.7029 
L 573.240235 175.291253 
L 573.530106 176.052325 
L 573.819976 175.674892 
L 574.109846 175.646451 
L 574.979456 175.211757 
L 575.559196 176.101548 
L 575.849067 175.52758 
L 576.138937 175.994913 
L 576.428807 175.446995 
L 576.718677 175.960564 
L 577.008547 175.36042 
L 577.298417 175.57811 
L 577.878157 175.236235 
L 578.168028 175.6112 
L 578.457898 175.769327 
L 578.747768 175.610343 
L 579.617378 176.176888 
L 579.907248 175.810729 
L 580.486989 175.599074 
L 580.776859 175.515889 
L 581.066729 175.709597 
L 581.356599 176.087347 
L 581.646469 175.526378 
L 581.936339 175.976907 
L 582.226209 175.574563 
L 582.51608 175.990661 
L 582.80595 175.703629 
L 583.09582 175.944771 
L 583.38569 175.67491 
L 583.96543 175.655113 
L 584.2553 175.271597 
L 584.54517 175.5247 
L 584.835041 175.2768 
L 585.124911 175.492061 
L 585.704651 175.41336 
L 585.994521 175.240543 
L 586.284391 175.222218 
L 586.574261 175.374513 
L 586.864131 175.369879 
L 587.154002 175.146569 
L 587.733742 175.365489 
L 588.023612 175.217246 
L 588.313482 175.468609 
L 588.603352 175.332125 
L 588.893222 175.569691 
L 589.183093 175.436751 
L 589.472963 175.554806 
L 589.762833 175.465363 
L 590.052703 175.147203 
L 590.342573 175.209791 
L 590.632443 175.796975 
L 591.212183 175.125351 
L 591.502054 175.028371 
L 591.791924 175.519863 
L 592.371664 175.330491 
L 592.661534 175.709775 
L 592.951404 175.400471 
L 593.241274 175.286301 
L 593.531144 175.634823 
L 593.821015 175.152263 
L 594.110885 175.488832 
L 594.400755 175.156415 
L 594.690625 175.065273 
L 594.980495 175.594939 
L 595.270365 175.280251 
L 595.560235 175.173711 
L 596.139976 175.347285 
L 596.429846 174.88341 
L 596.719716 175.315185 
L 597.009586 175.153648 
L 597.299456 175.311707 
L 597.589326 174.980719 
L 597.879196 175.43016 
L 598.458937 174.994788 
L 598.748807 175.190922 
L 599.038677 175.233395 
L 599.328547 174.958145 
L 599.618417 175.019971 
L 599.908287 175.224512 
L 601.067768 175.280177 
L 601.357638 174.983173 
L 601.647508 175.04256 
L 602.227248 174.795303 
L 602.517119 175.040323 
L 603.096859 175.039494 
L 603.386729 174.894217 
L 603.676599 175.130132 
L 604.256339 174.886693 
L 604.546209 175.418204 
L 604.83608 175.080755 
L 605.12595 175.327428 
L 605.41582 175.146726 
L 605.70569 174.757201 
L 605.99556 175.058716 
L 606.28543 175.186683 
L 606.5753 174.70871 
L 606.86517 175.295124 
L 607.155041 175.234571 
L 607.444911 174.978478 
L 608.024651 175.317456 
L 608.604391 174.852633 
L 608.894261 175.227384 
L 609.474002 175.062411 
L 609.763872 174.836441 
L 610.053742 175.143298 
L 610.343612 174.98913 
L 610.633482 175.282811 
L 610.923352 175.006385 
L 611.213222 175.049566 
L 611.503093 174.932634 
L 611.792963 175.322024 
L 612.082833 174.734692 
L 612.372703 174.906168 
L 612.662573 174.784093 
L 612.952443 175.036994 
L 613.242313 174.896105 
L 613.822054 174.994199 
L 614.111924 174.666352 
L 614.401794 175.248922 
L 614.981534 174.835809 
L 615.271404 174.952742 
L 615.561274 174.645795 
L 615.851144 174.763874 
L 616.141015 174.653879 
L 616.430885 174.78039 
L 616.720755 175.108591 
L 617.010625 174.385839 
L 617.590365 174.585023 
L 617.880235 174.448388 
L 618.170106 174.603571 
L 618.459976 174.270432 
L 618.749846 174.363748 
L 619.039716 174.633236 
L 619.329586 174.287233 
L 619.619456 174.5222 
L 620.199196 174.272131 
L 621.068807 174.717198 
L 621.648547 174.521783 
L 621.938417 174.803775 
L 622.228287 174.713901 
L 622.518157 174.334741 
L 622.808028 174.293206 
L 623.387768 174.538035 
L 623.677638 174.348688 
L 623.967508 173.919949 
L 624.257378 174.657914 
L 624.547248 174.727155 
L 625.126989 174.293517 
L 625.126989 174.293517 
" clip-path="url(#p0806832a0e)" style="fill: none; stroke: #1f77b4; stroke-width: 1.5; stroke-linecap: square"/>
   </g>
   <g id="line2d_15">
    <path d="M 117.854261 283.817858 
L 118.144131 296.03625 
L 118.434002 270.616898 
L 118.723872 261.343127 
L 119.013742 266.675624 
L 119.303612 254.3987 
L 119.593482 253.78483 
L 119.883352 234.718979 
L 120.173222 243.174054 
L 120.463093 233.622601 
L 120.752963 255.831372 
L 121.042833 226.820111 
L 121.332703 231.623087 
L 121.622573 222.755458 
L 121.912443 237.090497 
L 122.202313 221.800231 
L 122.492183 220.580769 
L 122.782054 239.851293 
L 123.071924 218.690556 
L 123.361794 208.012777 
L 123.651664 213.077702 
L 123.941534 203.210023 
L 124.231404 204.36703 
L 124.521274 200.127711 
L 124.811144 197.699217 
L 125.101015 197.009593 
L 125.390885 192.778947 
L 125.680755 193.284367 
L 126.260495 190.032498 
L 126.550365 190.98049 
L 126.840235 192.754977 
L 127.130106 191.632475 
L 127.709846 187.702186 
L 127.999716 186.31986 
L 128.289586 189.750291 
L 128.579456 188.198746 
L 128.869326 189.00049 
L 129.159196 189.320823 
L 129.449067 185.316259 
L 130.028807 184.835969 
L 130.318677 185.979726 
L 130.608547 188.292898 
L 130.898417 184.413948 
L 131.188287 186.018381 
L 131.478157 185.564117 
L 131.768028 183.829002 
L 132.057898 185.263654 
L 132.347768 184.827063 
L 132.637638 185.642403 
L 132.927508 185.081576 
L 133.217378 185.318168 
L 133.797119 183.054028 
L 134.086989 183.091849 
L 134.376859 181.620767 
L 134.666729 181.838532 
L 134.956599 182.869973 
L 135.246469 182.690779 
L 135.536339 182.28129 
L 135.826209 180.870267 
L 136.11608 183.116401 
L 136.69582 184.052396 
L 136.98569 184.34861 
L 137.27556 182.464961 
L 137.8553 182.093607 
L 138.14517 184.792872 
L 138.435041 183.634699 
L 138.724911 183.261662 
L 139.014781 184.624761 
L 139.304651 183.487667 
L 139.594521 184.04581 
L 139.884391 182.432324 
L 140.174261 182.812326 
L 140.464131 182.662128 
L 140.754002 182.709696 
L 141.043872 182.390061 
L 141.333742 182.933603 
L 141.623612 185.113963 
L 141.913482 183.825193 
L 142.203352 181.5119 
L 142.493222 182.332163 
L 142.783093 182.657852 
L 143.072963 183.310738 
L 143.362833 183.531447 
L 143.652703 183.308215 
L 143.942573 183.62141 
L 144.232443 184.483335 
L 144.522313 183.45188 
L 145.102054 184.197178 
L 145.391924 183.120905 
L 145.681794 182.57126 
L 145.971664 183.383851 
L 146.261534 182.947738 
L 146.551404 183.167254 
L 146.841274 183.694203 
L 147.131144 183.057892 
L 147.421015 183.707169 
L 147.710885 182.282464 
L 148.000755 184.110702 
L 148.290625 183.132366 
L 148.580495 184.305063 
L 148.870365 182.879901 
L 149.160235 183.550493 
L 149.739976 183.501126 
L 150.029846 182.388915 
L 150.319716 182.417677 
L 150.609586 182.173322 
L 150.899456 183.391072 
L 151.479196 182.940126 
L 151.769067 182.46022 
L 152.058937 182.325477 
L 152.348807 181.724674 
L 152.638677 181.502345 
L 153.218417 182.799914 
L 153.798157 182.042545 
L 154.088028 182.333771 
L 154.377898 181.160114 
L 154.667768 183.896472 
L 154.957638 182.550055 
L 155.247508 182.064496 
L 155.537378 181.125233 
L 155.827248 181.238594 
L 156.117119 182.004937 
L 156.406989 182.161104 
L 156.696859 181.414516 
L 156.986729 182.304203 
L 157.276599 181.874481 
L 157.566469 181.798224 
L 157.856339 181.982022 
L 158.146209 181.109051 
L 158.43608 182.125077 
L 158.72595 182.440727 
L 159.30569 181.187696 
L 159.59556 181.751393 
L 159.88543 181.583518 
L 160.1753 182.175445 
L 160.46517 183.160066 
L 160.755041 182.022578 
L 161.044911 181.400837 
L 161.624651 182.736279 
L 161.914521 182.132305 
L 162.204391 183.201044 
L 162.494261 183.390734 
L 162.784131 183.243412 
L 163.074002 181.991815 
L 163.653742 182.274377 
L 163.943612 183.17882 
L 164.233482 183.428812 
L 164.523352 183.886167 
L 164.813222 182.608761 
L 165.103093 183.712115 
L 165.682833 183.277566 
L 165.972703 183.511026 
L 166.842313 183.633084 
L 167.132183 183.299605 
L 167.422054 183.783579 
L 167.711924 183.910268 
L 168.291664 184.92944 
L 168.581534 183.203228 
L 168.871404 183.314599 
L 169.161274 184.512217 
L 169.451144 183.829892 
L 169.741015 184.829618 
L 170.030885 183.795532 
L 170.610625 181.114258 
L 171.190365 183.511928 
L 171.480235 183.577943 
L 171.770106 183.326592 
L 172.059976 182.786861 
L 172.349846 183.101856 
L 172.639716 182.860106 
L 172.929586 182.896584 
L 173.219456 183.097378 
L 173.509326 182.191737 
L 173.799196 183.797359 
L 174.089067 182.707522 
L 174.378937 182.50586 
L 174.668807 183.114747 
L 174.958677 182.718723 
L 175.248547 182.923467 
L 175.538417 182.183745 
L 175.828287 183.353683 
L 176.118157 182.7453 
L 176.408028 183.01248 
L 176.697898 183.68453 
L 176.987768 181.987794 
L 177.567508 183.064775 
L 177.857378 183.524069 
L 178.147248 183.241964 
L 178.437119 183.384202 
L 178.726989 183.856913 
L 179.016859 184.648702 
L 179.306729 182.602124 
L 179.596599 183.351471 
L 179.886469 182.881703 
L 180.176339 182.699623 
L 180.466209 182.807006 
L 181.62569 184.604789 
L 181.91556 184.052045 
L 182.20543 183.243903 
L 182.4953 184.052092 
L 183.075041 183.603225 
L 183.364911 183.57647 
L 183.654781 184.190813 
L 183.944651 183.846776 
L 184.234521 183.1117 
L 184.524391 183.575398 
L 184.814261 183.826855 
L 185.104131 183.216567 
L 185.394002 183.100553 
L 185.683872 183.61975 
L 185.973742 183.712894 
L 186.263612 183.597435 
L 186.553482 182.929186 
L 186.843352 183.970208 
L 187.133222 183.329715 
L 187.712963 183.487367 
L 188.002833 184.025893 
L 188.292703 183.355025 
L 188.872443 184.172635 
L 189.162313 183.89308 
L 189.742054 185.250018 
L 190.031924 183.991193 
L 190.321794 180.264595 
L 190.611664 179.379729 
L 190.901534 179.979928 
L 191.191404 179.808172 
L 191.481274 179.831676 
L 191.771144 180.597556 
L 192.061015 180.60864 
L 192.350885 181.204994 
L 192.640755 180.571995 
L 192.930625 180.389812 
L 193.220495 180.927543 
L 193.510365 181.159789 
L 193.800235 180.95655 
L 194.090106 181.658681 
L 194.379976 181.65998 
L 194.669846 181.207524 
L 194.959716 181.268454 
L 195.249586 181.946299 
L 195.539456 181.462368 
L 195.829326 181.327931 
L 196.119196 181.405739 
L 196.409067 181.830208 
L 196.698937 181.243396 
L 196.988807 181.198737 
L 197.278677 181.023432 
L 197.568547 181.396091 
L 197.858417 180.38087 
L 198.148287 181.313379 
L 198.438157 180.376577 
L 198.728028 180.39457 
L 199.017898 181.042059 
L 199.307768 180.401476 
L 199.597638 180.903968 
L 199.887508 181.080735 
L 200.177378 180.79097 
L 200.757119 181.338014 
L 201.046989 181.292395 
L 201.336859 181.127015 
L 201.626729 181.168368 
L 201.916599 180.728198 
L 202.206469 181.203847 
L 202.786209 180.210731 
L 203.65582 181.131196 
L 203.94569 180.356829 
L 204.8153 181.13129 
L 205.10517 180.48727 
L 205.395041 181.316777 
L 205.684911 180.843416 
L 205.974781 181.182363 
L 206.264651 181.339458 
L 206.554521 180.784706 
L 206.844391 180.901468 
L 207.134261 180.547993 
L 207.424131 180.537567 
L 207.714002 181.04459 
L 208.003872 180.596105 
L 208.583612 180.738678 
L 208.873482 181.393769 
L 209.163352 180.752169 
L 209.453222 180.657503 
L 209.743093 180.737657 
L 210.032963 181.107062 
L 210.322833 180.712911 
L 210.902573 181.124472 
L 211.192443 180.84352 
L 211.482313 181.219557 
L 211.772183 180.44609 
L 212.062054 181.06896 
L 212.351924 181.178658 
L 212.641794 180.837517 
L 213.221534 181.567467 
L 213.511404 181.012683 
L 213.801274 181.07599 
L 214.091144 180.666583 
L 214.381015 180.522667 
L 214.670885 180.75596 
L 214.960755 180.732957 
L 215.250625 181.094926 
L 215.830365 180.734951 
L 216.120235 180.631432 
L 216.410106 180.665116 
L 216.989846 181.598188 
L 217.279716 180.864201 
L 217.569586 180.568699 
L 217.859456 180.707393 
L 218.149326 181.512054 
L 219.018937 181.481038 
L 219.308807 181.815024 
L 219.598677 181.333635 
L 219.888547 181.233244 
L 220.178417 180.895049 
L 220.468287 181.152924 
L 220.758157 181.111089 
L 221.337898 181.190319 
L 221.627768 181.018222 
L 221.917638 181.32288 
L 222.207508 181.040865 
L 222.497378 181.211261 
L 222.787248 180.891106 
L 223.077119 181.268086 
L 223.366989 181.388344 
L 223.656859 181.081676 
L 223.946729 181.037959 
L 224.236599 180.683913 
L 224.526469 181.45284 
L 224.816339 181.600966 
L 225.106209 180.824199 
L 225.39608 180.767479 
L 225.68595 181.045496 
L 225.97582 180.946243 
L 226.26569 180.980867 
L 226.55556 180.565906 
L 226.84543 181.129756 
L 227.1353 180.275914 
L 227.42517 180.746793 
L 228.874521 180.354044 
L 229.164391 180.75142 
L 229.454261 180.748254 
L 229.744131 180.873944 
L 230.034002 180.736618 
L 230.323872 181.217443 
L 230.613742 180.804086 
L 230.903612 180.653515 
L 231.193482 181.057363 
L 231.483352 180.652628 
L 231.773222 180.766028 
L 232.063093 181.346359 
L 232.352963 180.19628 
L 232.642833 180.998391 
L 233.222573 180.976858 
L 233.512443 180.774304 
L 234.092183 181.364204 
L 234.382054 180.015446 
L 234.961794 181.177205 
L 235.251664 180.721899 
L 235.541534 180.500829 
L 235.831404 180.702456 
L 236.411144 176.307169 
L 236.701015 177.511804 
L 236.990885 177.385175 
L 237.280755 177.852736 
L 237.860495 178.433903 
L 238.150365 178.181649 
L 238.440235 178.338894 
L 238.730106 178.111825 
L 239.019976 178.553982 
L 239.309846 178.428131 
L 239.599716 178.580703 
L 239.889586 178.411208 
L 240.179456 178.595047 
L 240.469326 178.583323 
L 240.759196 178.704573 
L 241.049067 178.524822 
L 241.918677 179.340203 
L 242.208547 178.721279 
L 242.498417 179.195154 
L 242.788287 178.863247 
L 243.368028 178.904504 
L 243.947768 179.17992 
L 244.237638 178.598338 
L 244.527508 178.499958 
L 244.817378 178.959039 
L 245.107248 178.914453 
L 245.397119 178.258735 
L 245.686989 178.66337 
L 245.976859 178.254882 
L 246.266729 178.706815 
L 246.556599 178.492793 
L 246.846469 178.803644 
L 247.136339 178.574321 
L 247.426209 178.670493 
L 247.71608 178.526605 
L 248.00595 178.608478 
L 248.29582 179.052171 
L 248.58569 178.470828 
L 249.16543 178.955696 
L 249.74517 179.056176 
L 250.035041 178.722849 
L 250.324911 179.108168 
L 250.904651 179.04044 
L 251.194521 179.339111 
L 251.484391 178.821481 
L 251.774261 178.828895 
L 252.064131 178.372158 
L 252.643872 179.071322 
L 252.933742 178.823105 
L 253.803352 178.854966 
L 254.093222 178.638637 
L 254.672963 179.102823 
L 254.962833 178.935124 
L 255.252703 178.629359 
L 255.542573 179.069866 
L 255.832443 179.27838 
L 256.122313 179.042123 
L 256.412183 178.640631 
L 256.702054 178.912032 
L 257.281794 179.065539 
L 257.571664 178.941235 
L 257.861534 179.1502 
L 258.151404 179.023144 
L 258.441274 179.363355 
L 258.731144 178.954135 
L 259.021015 178.992939 
L 259.310885 179.443323 
L 259.600755 179.645349 
L 259.890625 178.806777 
L 260.180495 179.401296 
L 260.760235 178.679273 
L 261.050106 179.34932 
L 261.339976 179.115861 
L 261.629846 179.583493 
L 261.919716 179.197347 
L 262.499456 178.990594 
L 262.789326 179.357427 
L 263.369067 179.506311 
L 263.658937 179.485305 
L 263.948807 178.780965 
L 264.238677 179.151367 
L 264.528547 179.013556 
L 264.818417 179.135437 
L 265.398157 179.042252 
L 265.688028 179.472047 
L 265.977898 179.219821 
L 266.267768 179.364226 
L 266.557638 179.358175 
L 266.847508 179.004647 
L 267.137378 179.014748 
L 267.427248 179.397583 
L 267.717119 178.693202 
L 268.296859 179.419855 
L 268.876599 178.889672 
L 269.166469 178.929942 
L 269.456339 179.249873 
L 269.746209 179.169529 
L 270.03608 178.710206 
L 270.32595 179.049115 
L 270.90569 178.837573 
L 271.19556 178.79757 
L 271.48543 178.966607 
L 271.7753 178.738942 
L 272.06517 179.272193 
L 272.355041 178.8278 
L 272.644911 178.895308 
L 272.934781 179.253174 
L 273.514521 179.440098 
L 273.804391 179.186068 
L 274.384131 179.265858 
L 274.674002 179.092749 
L 274.963872 179.164606 
L 275.833482 178.564917 
L 276.123352 178.695836 
L 276.413222 179.29003 
L 276.703093 179.437605 
L 276.992963 178.950038 
L 278.152443 179.195519 
L 278.442313 179.007149 
L 279.311924 179.42847 
L 279.601794 178.795757 
L 279.891664 178.69425 
L 280.471404 179.310704 
L 280.761274 178.856549 
L 281.051144 178.975556 
L 281.341015 179.433609 
L 281.630885 179.442179 
L 281.920755 178.94465 
L 282.790365 178.733222 
L 283.370106 178.477733 
L 283.659976 178.114107 
L 283.949846 178.64986 
L 284.239716 178.578177 
L 284.529586 179.115575 
L 285.109326 178.53909 
L 285.399196 178.845721 
L 285.689067 178.880085 
L 285.978937 179.131845 
L 286.268807 178.54065 
L 287.138417 178.706631 
L 287.428287 178.630018 
L 287.718157 178.677452 
L 288.008028 178.434561 
L 288.297898 179.006029 
L 288.587768 178.741302 
L 288.877638 179.194279 
L 289.167508 179.260951 
L 289.457378 179.191975 
L 289.747248 178.984786 
L 290.037119 179.185696 
L 290.616859 179.056956 
L 290.906729 179.137147 
L 291.196599 179.05843 
L 291.486469 178.759519 
L 291.776339 179.310868 
L 292.066209 178.868002 
L 292.35608 178.694117 
L 292.93582 178.9388 
L 293.22569 178.571324 
L 293.51556 179.132231 
L 293.80543 179.162256 
L 294.0953 178.782115 
L 294.38517 178.882387 
L 294.675041 178.708396 
L 294.964911 178.844637 
L 295.254781 178.779997 
L 295.544651 179.182431 
L 296.414261 178.875146 
L 296.704131 179.323337 
L 296.994002 179.191612 
L 297.283872 179.233337 
L 297.573742 179.028099 
L 297.863612 179.215886 
L 298.153482 178.892683 
L 298.443352 178.952811 
L 298.733222 178.803125 
L 299.892703 179.240258 
L 300.182573 179.068686 
L 300.472443 178.660861 
L 300.762313 178.658637 
L 301.052183 178.895783 
L 301.342054 178.579373 
L 301.921794 178.4952 
L 302.211664 178.801094 
L 302.501534 178.906604 
L 302.791404 178.386062 
L 303.661015 178.324831 
L 303.950885 178.630576 
L 304.530625 178.467981 
L 304.820495 178.548062 
L 305.110365 178.874228 
L 305.690106 178.417217 
L 305.979976 178.742675 
L 306.559716 178.235246 
L 307.139456 178.685491 
L 307.429326 178.603752 
L 307.719196 178.646164 
L 308.298937 178.342603 
L 308.588807 178.461334 
L 308.878677 178.215457 
L 309.168547 178.496797 
L 309.458417 178.551274 
L 309.748287 178.449548 
L 310.038157 178.600133 
L 310.907768 178.732442 
L 311.197638 179.012389 
L 311.487508 178.867877 
L 311.777378 178.586218 
L 312.067248 178.706716 
L 312.357119 179.022021 
L 312.646989 178.855143 
L 313.226729 179.334006 
L 313.516599 178.04463 
L 313.806469 178.856063 
L 314.096339 179.220334 
L 314.386209 178.730664 
L 314.67608 179.094774 
L 314.96595 178.792007 
L 315.25582 178.785669 
L 315.54569 178.992825 
L 315.83556 178.877804 
L 317.574781 178.995964 
L 318.444391 178.571518 
L 318.734261 178.878843 
L 319.024131 178.876594 
L 319.314002 178.7059 
L 319.603872 178.674572 
L 319.893742 178.451724 
L 320.183612 177.283083 
L 320.473482 177.517113 
L 320.763352 178.409482 
L 321.053222 178.541538 
L 321.343093 178.504045 
L 321.632963 178.165852 
L 321.922833 178.367274 
L 322.212703 179.048832 
L 322.502573 179.06605 
L 323.372183 178.136257 
L 323.662054 178.453629 
L 323.951924 178.395558 
L 324.241794 178.06291 
L 324.531664 178.169817 
L 324.821534 178.550845 
L 325.111404 178.260967 
L 325.401274 178.422489 
L 325.691144 178.437498 
L 325.981015 178.20868 
L 326.270885 177.831384 
L 326.560755 178.375971 
L 326.850625 177.778779 
L 327.140495 176.356567 
L 327.720235 177.258387 
L 328.010106 177.304316 
L 328.879716 177.717315 
L 329.459456 177.815701 
L 329.749326 177.507966 
L 330.329067 177.424103 
L 330.618937 177.490708 
L 331.198677 177.292338 
L 331.778417 178.300794 
L 332.068287 178.085515 
L 332.358157 178.436069 
L 332.648028 178.042457 
L 332.937898 177.006199 
L 333.227768 177.608689 
L 333.517638 177.794829 
L 333.807508 177.650742 
L 334.097378 178.096042 
L 334.387248 177.845612 
L 334.966989 177.919014 
L 335.546729 178.002204 
L 335.836599 177.627559 
L 336.126469 178.074846 
L 336.416339 178.063833 
L 336.99608 177.697961 
L 337.28595 177.852067 
L 337.57582 178.157186 
L 337.86569 177.888062 
L 338.15556 178.266098 
L 338.44543 178.081566 
L 338.7353 177.563687 
L 339.02517 177.630044 
L 339.315041 177.948154 
L 339.604911 177.919448 
L 339.894781 177.460672 
L 340.184651 177.940087 
L 340.474521 177.907446 
L 341.054261 177.149796 
L 341.634002 178.086275 
L 341.923872 177.875391 
L 342.213742 177.827473 
L 342.503612 177.428997 
L 342.793482 177.707046 
L 343.083352 177.796431 
L 343.373222 177.61867 
L 343.663093 177.743852 
L 343.952963 178.210744 
L 344.242833 178.235982 
L 344.532703 177.858813 
L 344.822573 178.153955 
L 345.402313 178.032912 
L 345.692183 177.874922 
L 345.982054 178.017389 
L 346.271924 177.795975 
L 346.851664 178.158146 
L 347.141534 177.61645 
L 347.431404 178.124577 
L 347.721274 177.874549 
L 348.011144 177.902825 
L 348.301015 177.655145 
L 348.590885 177.823791 
L 349.460495 177.543045 
L 349.750365 177.943777 
L 350.040235 177.654174 
L 350.619976 178.014056 
L 350.909846 177.767172 
L 351.199716 178.061381 
L 351.489586 178.012416 
L 352.069326 177.784691 
L 352.359196 177.890452 
L 352.649067 177.582448 
L 352.938937 178.045734 
L 353.228807 177.688063 
L 353.808547 177.795479 
L 354.098417 177.781499 
L 354.388287 178.085286 
L 354.968028 177.866619 
L 355.547768 177.575934 
L 355.837638 178.207843 
L 356.127508 177.68741 
L 356.417378 177.646399 
L 356.707248 177.996321 
L 356.997119 178.155769 
L 357.576859 177.581883 
L 358.156599 177.728854 
L 358.446469 177.601826 
L 358.736339 177.299808 
L 359.026209 177.720555 
L 359.31608 177.771553 
L 359.60595 177.986081 
L 359.89582 177.917202 
L 360.18569 178.056569 
L 360.47556 177.881752 
L 360.76543 178.013289 
L 361.0553 177.845746 
L 361.924911 178.000163 
L 362.504651 178.09435 
L 363.664131 178.028538 
L 363.954002 177.575061 
L 364.243872 177.903325 
L 365.113482 177.92304 
L 365.403352 178.296702 
L 365.693222 177.536041 
L 366.272963 178.299139 
L 366.852703 177.597842 
L 367.142573 177.571086 
L 367.432443 178.083496 
L 367.722313 177.795569 
L 368.012183 178.260632 
L 368.302054 177.783564 
L 368.591924 177.63248 
L 368.881794 177.853258 
L 369.171664 177.876817 
L 369.461534 178.025955 
L 369.751404 178.30027 
L 370.041274 177.978471 
L 370.331144 178.253196 
L 370.621015 178.281086 
L 371.200755 177.731118 
L 371.490625 178.128675 
L 371.780495 177.977383 
L 372.070365 177.955703 
L 372.650106 177.571691 
L 372.939976 177.732882 
L 373.229846 177.715864 
L 373.519716 177.523051 
L 373.809586 177.942678 
L 374.389326 177.802956 
L 375.258937 177.785892 
L 375.548807 177.602954 
L 376.128547 177.613392 
L 376.418417 177.858624 
L 376.708287 177.713087 
L 376.998157 178.067712 
L 377.288028 178.040431 
L 377.577898 177.677158 
L 378.157638 178.460061 
L 378.737378 177.764607 
L 379.317119 177.900637 
L 379.606989 177.608285 
L 379.896859 177.506282 
L 380.186729 177.830049 
L 380.476599 177.85087 
L 380.766469 178.206318 
L 381.056339 177.991505 
L 382.50569 177.904066 
L 382.79556 177.609825 
L 383.08543 177.935633 
L 383.66517 177.593403 
L 383.955041 178.000685 
L 384.244911 177.477818 
L 384.534781 177.196323 
L 384.824651 177.346474 
L 385.114521 177.253075 
L 385.694261 177.796553 
L 386.274002 177.323836 
L 386.853742 177.705141 
L 387.143612 177.616126 
L 387.433482 177.672933 
L 387.723352 177.425612 
L 388.303093 177.67359 
L 388.592963 177.478151 
L 389.172703 177.493176 
L 389.462573 177.631309 
L 390.042313 177.351125 
L 390.332183 177.683864 
L 390.622054 177.323841 
L 391.201794 177.793755 
L 391.491664 177.534712 
L 391.781534 177.61511 
L 392.071404 177.548197 
L 392.361274 177.778557 
L 392.651144 177.545677 
L 392.941015 177.855182 
L 393.230885 177.636581 
L 393.520755 177.696012 
L 393.810625 177.174064 
L 394.100495 177.704685 
L 394.390365 177.760027 
L 394.680235 177.226968 
L 395.259976 177.536344 
L 395.839716 177.571081 
L 396.129586 177.639889 
L 396.419456 177.566215 
L 396.709326 177.108226 
L 396.999196 177.259375 
L 397.289067 177.267482 
L 397.578937 177.559062 
L 397.868807 177.52698 
L 398.158677 177.324201 
L 398.738417 177.3596 
L 399.608028 177.391282 
L 399.897898 177.669879 
L 400.187768 177.393594 
L 400.477638 177.417006 
L 400.767508 177.634143 
L 401.057378 177.420856 
L 401.637119 177.795727 
L 401.926989 177.478947 
L 402.216859 177.79415 
L 402.506729 177.415404 
L 402.796599 177.603085 
L 403.086469 177.194883 
L 403.666209 177.503105 
L 403.95608 177.498209 
L 404.24595 177.725308 
L 404.53582 177.256331 
L 404.82569 177.579251 
L 405.6953 177.829098 
L 406.275041 177.239961 
L 406.564911 177.373218 
L 406.854781 177.19942 
L 407.434521 177.382436 
L 407.724391 177.04825 
L 408.014261 177.5372 
L 409.463612 177.143614 
L 409.753482 177.187188 
L 410.043352 177.487592 
L 410.333222 177.445601 
L 410.623093 177.517355 
L 411.202833 177.051098 
L 411.492703 177.264154 
L 411.782573 177.21569 
L 412.072443 177.617506 
L 412.362313 177.284331 
L 412.942054 177.568931 
L 413.521794 177.4427 
L 413.811664 177.565758 
L 414.101534 177.27728 
L 414.391404 177.314649 
L 414.681274 177.464521 
L 415.550885 177.313854 
L 415.840755 177.39347 
L 416.130625 177.308063 
L 416.420495 177.620741 
L 416.710365 177.496708 
L 417.000235 177.524718 
L 417.290106 177.423802 
L 417.869846 177.515055 
L 418.159716 177.21551 
L 418.449586 177.41034 
L 418.739456 177.216722 
L 419.319196 177.224484 
L 419.609067 177.536705 
L 419.898937 177.447248 
L 420.478677 177.447939 
L 421.058417 177.199634 
L 421.348287 177.384945 
L 421.638157 177.292905 
L 421.928028 177.413947 
L 422.217898 177.333702 
L 422.797638 177.562299 
L 423.087508 177.384449 
L 423.377378 177.542955 
L 423.667248 177.431033 
L 424.826729 177.627174 
L 425.116599 177.363271 
L 425.406469 177.372632 
L 425.696339 177.205327 
L 425.986209 177.38526 
L 426.27608 177.076211 
L 426.85582 177.444314 
L 427.14569 177.242951 
L 427.43556 177.368122 
L 427.72543 177.080414 
L 428.0153 177.347099 
L 428.595041 177.026433 
L 428.884911 177.1768 
L 429.464651 177.028097 
L 429.754521 177.100126 
L 430.044391 176.972115 
L 430.334261 177.068654 
L 430.624131 177.494952 
L 430.914002 177.185032 
L 431.493742 177.385306 
L 431.783612 177.107246 
L 432.073482 177.406274 
L 432.653222 177.166474 
L 432.943093 177.105469 
L 433.232963 177.211271 
L 433.522833 177.109471 
L 433.812703 177.313174 
L 434.102573 176.91902 
L 434.392443 177.240559 
L 434.972183 177.207394 
L 435.262054 177.375151 
L 435.551924 177.170007 
L 436.131664 177.225124 
L 436.421534 177.471201 
L 436.711404 177.145233 
L 438.740495 177.050052 
L 439.030365 177.525836 
L 439.320235 177.563772 
L 439.610106 176.77707 
L 439.899976 176.928335 
L 440.479716 177.011568 
L 440.769586 176.757037 
L 441.059456 176.67573 
L 441.639196 176.974521 
L 441.929067 176.730409 
L 442.218937 176.669991 
L 442.508807 176.937863 
L 442.798677 176.909039 
L 443.088547 176.561085 
L 443.378417 176.808391 
L 443.668287 176.852271 
L 443.958157 177.077189 
L 444.248028 176.76503 
L 445.117638 176.91867 
L 445.407508 176.801559 
L 445.987248 176.914031 
L 446.277119 177.053432 
L 446.566989 177.036548 
L 446.856859 176.672695 
L 447.436599 177.09383 
L 447.726469 177.426862 
L 448.016339 177.204336 
L 448.306209 176.790725 
L 448.59608 176.658547 
L 448.88595 176.8656 
L 449.17582 176.747908 
L 449.46569 176.796739 
L 449.75556 177.162728 
L 450.04543 176.704809 
L 450.62517 176.827744 
L 450.915041 176.720319 
L 451.494781 176.943031 
L 451.784651 176.754891 
L 452.074521 176.98803 
L 452.364391 176.82597 
L 452.654261 176.938219 
L 452.944131 177.172628 
L 453.813742 176.919058 
L 454.103612 177.09385 
L 454.393482 176.848367 
L 454.683352 176.937287 
L 454.973222 176.841954 
L 455.263093 177.060215 
L 456.422573 177.360961 
L 456.712443 177.000992 
L 457.002313 177.068446 
L 457.292183 176.961793 
L 458.161794 177.234087 
L 458.451664 177.019088 
L 459.031404 176.947948 
L 459.611144 176.827865 
L 459.901015 176.868111 
L 460.480755 177.343572 
L 460.770625 176.639358 
L 461.060495 176.952866 
L 461.350365 176.885712 
L 461.640235 177.198339 
L 462.219976 177.086263 
L 463.379456 177.078116 
L 463.669326 176.935333 
L 463.959196 177.421 
L 464.538937 176.864784 
L 464.828807 177.185512 
L 465.118677 177.292385 
L 465.698417 177.291676 
L 466.278157 177.48032 
L 466.568028 177.014991 
L 466.857898 177.421508 
L 467.147768 176.837506 
L 467.727508 176.948537 
L 468.017378 177.083945 
L 468.307248 177.063255 
L 468.886989 176.688769 
L 469.176859 176.87413 
L 469.756599 176.824708 
L 470.046469 177.080654 
L 470.336339 176.883058 
L 470.626209 177.150074 
L 470.91608 176.822227 
L 471.20595 177.220801 
L 471.78569 176.885472 
L 472.07556 176.948225 
L 472.6553 176.838725 
L 473.814781 177.030155 
L 474.104651 177.113192 
L 475.264131 176.941307 
L 475.554002 177.216422 
L 475.843872 177.0715 
L 476.133742 176.749692 
L 477.293222 176.855799 
L 477.583093 177.302895 
L 477.872963 176.702194 
L 478.452703 176.879696 
L 479.032443 177.262478 
L 479.322313 176.891439 
L 479.612183 177.086103 
L 479.902054 176.939443 
L 480.191924 177.08215 
L 480.481794 176.91568 
L 480.771664 177.140695 
L 481.061534 176.564308 
L 481.351404 176.748101 
L 481.641274 176.632991 
L 482.221015 177.228868 
L 482.510885 176.968957 
L 483.090625 177.000699 
L 483.380495 177.046369 
L 483.670365 176.915792 
L 484.539976 177.028881 
L 484.829846 176.815194 
L 485.409586 177.193528 
L 486.279196 177.066771 
L 486.569067 176.776171 
L 486.858937 177.009432 
L 487.728547 176.754545 
L 488.018417 176.834474 
L 488.308287 176.553647 
L 488.598157 176.598635 
L 489.177898 177.233792 
L 489.467768 177.087655 
L 489.757638 176.686539 
L 490.047508 176.834051 
L 490.337378 176.625862 
L 490.627248 176.904345 
L 491.786729 176.846643 
L 492.076599 176.918835 
L 492.366469 176.798165 
L 492.656339 177.016373 
L 492.946209 176.801931 
L 493.23608 176.802418 
L 493.52595 177.06533 
L 493.81582 176.845681 
L 494.39556 177.282223 
L 494.68543 177.389364 
L 494.9753 176.890125 
L 495.555041 176.64128 
L 495.844911 176.832643 
L 496.134781 176.721689 
L 496.424651 177.003486 
L 496.714521 176.964232 
L 497.004391 176.348124 
L 497.294261 176.464538 
L 497.584131 176.862491 
L 497.874002 177.009542 
L 498.163872 176.900509 
L 498.453742 177.085592 
L 498.743612 176.882199 
L 499.033482 176.952801 
L 499.613222 176.884267 
L 499.903093 176.61444 
L 500.772703 177.117157 
L 501.352443 176.311826 
L 501.932183 176.567716 
L 502.222054 176.409771 
L 502.511924 176.425195 
L 502.801794 176.705677 
L 503.091664 176.38355 
L 503.381534 176.461522 
L 503.671404 176.353858 
L 503.961274 176.847341 
L 504.251144 176.674799 
L 504.830885 176.709777 
L 505.120755 176.535212 
L 505.410625 176.666492 
L 505.700495 176.617644 
L 505.990365 176.806423 
L 506.280235 176.691997 
L 506.570106 176.78729 
L 506.859976 176.601672 
L 507.149846 176.617892 
L 507.439716 176.421578 
L 507.729586 176.646928 
L 508.019456 176.509849 
L 508.309326 176.540546 
L 508.599196 176.748245 
L 508.889067 176.409655 
L 510.048547 176.671167 
L 510.338417 176.257026 
L 510.628287 176.622751 
L 510.918157 176.509147 
L 511.497898 176.78122 
L 511.787768 176.550826 
L 512.077638 176.768006 
L 512.367508 176.527554 
L 512.657378 176.716134 
L 512.947248 176.537919 
L 513.237119 176.826295 
L 513.526989 176.697354 
L 513.816859 176.723795 
L 514.106729 176.905307 
L 514.396599 176.580067 
L 514.686469 176.968965 
L 514.976339 176.963992 
L 515.84595 176.447719 
L 516.13582 176.91135 
L 516.71556 176.756639 
L 517.2953 176.761863 
L 517.875041 176.006868 
L 519.324391 176.770917 
L 519.614261 176.614227 
L 519.904131 176.312562 
L 520.483872 177.040576 
L 521.063612 176.38258 
L 521.643352 176.734414 
L 522.223093 176.713965 
L 522.512963 176.83896 
L 522.802833 176.527204 
L 523.092703 176.967047 
L 523.672443 176.916944 
L 523.962313 176.64275 
L 524.542054 176.79026 
L 525.411664 176.735619 
L 525.701534 176.893738 
L 525.991404 176.885846 
L 526.281274 176.603605 
L 526.571144 177.128598 
L 526.861015 176.585898 
L 527.150885 176.673675 
L 527.730625 176.610445 
L 528.020495 176.342576 
L 528.310365 176.415824 
L 528.600235 176.636933 
L 528.890106 176.340258 
L 529.179976 176.518017 
L 529.759716 176.594589 
L 530.049586 176.850843 
L 530.629326 176.578251 
L 530.919196 176.715695 
L 531.498937 176.601723 
L 531.788807 176.91697 
L 532.078677 176.716238 
L 532.368547 176.655579 
L 532.658417 176.919993 
L 532.948287 176.610525 
L 534.107768 176.988822 
L 534.397638 176.840042 
L 534.687508 176.490836 
L 534.977378 176.542949 
L 535.267248 176.479016 
L 535.557119 176.676515 
L 535.846989 176.434875 
L 536.716599 176.635202 
L 537.006469 176.422845 
L 537.296339 176.695154 
L 538.16595 176.524661 
L 538.45582 176.725904 
L 538.74569 176.648795 
L 539.03556 176.758361 
L 539.32543 176.658182 
L 539.90517 176.832937 
L 540.484911 176.535208 
L 540.774781 176.672264 
L 541.354521 176.393898 
L 541.644391 176.631772 
L 541.934261 176.693014 
L 542.514002 176.476422 
L 542.803872 176.699574 
L 543.093742 176.346537 
L 543.383612 176.598905 
L 543.673482 176.490328 
L 543.963352 176.642498 
L 544.253222 176.612602 
L 544.543093 176.466617 
L 545.122833 176.518245 
L 545.412703 176.467739 
L 545.702573 176.610102 
L 546.282313 176.356529 
L 546.572183 176.628227 
L 546.862054 176.433142 
L 547.151924 176.416927 
L 547.441794 176.708532 
L 548.021534 176.57261 
L 548.311404 176.773502 
L 548.891144 176.545123 
L 549.181015 176.710602 
L 549.470885 176.562824 
L 550.340495 176.748896 
L 550.630365 176.856836 
L 550.920235 176.791274 
L 551.210106 176.498647 
L 551.499976 176.47585 
L 551.789846 176.786986 
L 552.079716 176.687765 
L 552.949326 176.983925 
L 553.239196 176.588689 
L 553.529067 176.695612 
L 553.818937 176.533439 
L 554.398677 176.640399 
L 554.688547 176.528234 
L 554.978417 176.657909 
L 555.268287 176.559142 
L 555.558157 176.774683 
L 555.848028 176.419238 
L 556.137898 176.885895 
L 556.427768 176.592221 
L 556.717638 176.535616 
L 557.007508 176.741534 
L 557.297378 176.401837 
L 557.587248 176.655534 
L 557.877119 176.621592 
L 558.166989 176.850346 
L 558.456859 176.593433 
L 558.746729 176.711597 
L 559.036599 176.525169 
L 559.906209 176.521094 
L 560.19608 176.889011 
L 560.48595 176.573284 
L 560.77582 176.783856 
L 561.64543 176.623893 
L 561.9353 176.906114 
L 562.515041 176.504512 
L 562.804911 176.771689 
L 563.094781 176.538174 
L 563.674521 176.915047 
L 564.544131 176.65899 
L 564.834002 176.64411 
L 565.123872 176.879279 
L 565.413742 176.755984 
L 565.703612 176.829179 
L 566.283352 176.563108 
L 566.573222 176.756788 
L 567.152963 176.699406 
L 567.732703 176.37622 
L 568.022573 176.653129 
L 568.312443 176.678497 
L 568.892183 176.265359 
L 569.182054 176.478434 
L 569.471924 176.335222 
L 569.761794 176.476653 
L 570.341534 176.394994 
L 570.921274 176.949887 
L 571.501015 176.704053 
L 572.370625 176.485273 
L 572.660495 176.235151 
L 572.950365 176.482404 
L 573.530106 176.314351 
L 573.819976 176.416467 
L 574.109846 176.24924 
L 574.399716 176.617368 
L 574.689586 176.667894 
L 574.979456 176.370362 
L 575.269326 176.611499 
L 575.559196 176.328617 
L 575.849067 176.43102 
L 576.138937 176.233364 
L 576.718677 176.526456 
L 577.008547 176.30062 
L 577.298417 176.321676 
L 577.588287 176.672282 
L 577.878157 176.397633 
L 578.457898 176.58529 
L 578.747768 176.424142 
L 579.037638 176.415562 
L 579.617378 176.75157 
L 580.197119 176.434844 
L 581.356599 176.407567 
L 581.936339 176.632683 
L 582.226209 176.487228 
L 582.80595 176.586844 
L 583.38569 176.4047 
L 583.67556 176.565549 
L 583.96543 176.546582 
L 584.2553 176.831548 
L 584.54517 176.762645 
L 584.835041 176.351381 
L 585.124911 176.25921 
L 585.414781 176.551584 
L 585.704651 176.310787 
L 585.994521 176.325028 
L 586.284391 176.561664 
L 586.574261 176.50322 
L 587.154002 176.628415 
L 587.443872 176.558756 
L 588.023612 176.886818 
L 588.603352 176.621818 
L 588.893222 176.739237 
L 589.472963 176.397637 
L 589.762833 176.219563 
L 590.052703 176.40898 
L 590.342573 176.330107 
L 590.632443 176.462109 
L 590.922313 176.741776 
L 591.212183 176.627067 
L 591.502054 176.309172 
L 591.791924 176.706 
L 592.081794 176.905117 
L 592.371664 176.545042 
L 592.661534 176.825811 
L 592.951404 176.393059 
L 593.531144 176.633011 
L 593.821015 176.424875 
L 594.110885 176.59642 
L 595.270365 176.341222 
L 595.560235 176.580333 
L 595.850106 176.653347 
L 596.139976 176.56968 
L 596.429846 176.608926 
L 596.719716 176.233106 
L 597.299456 176.825652 
L 597.589326 176.765691 
L 597.879196 176.587569 
L 598.169067 176.980453 
L 598.748807 176.734464 
L 599.038677 176.961886 
L 599.908287 176.361402 
L 600.198157 176.663691 
L 600.488028 176.765203 
L 600.777898 176.695592 
L 601.067768 177.054945 
L 601.357638 177.087684 
L 601.647508 176.529646 
L 602.227248 176.764946 
L 602.806989 176.539982 
L 603.096859 176.644771 
L 603.676599 176.467447 
L 604.546209 176.974721 
L 604.83608 176.750436 
L 605.41582 176.824062 
L 605.70569 176.541661 
L 605.99556 176.743923 
L 606.5753 176.888228 
L 606.86517 176.699393 
L 607.155041 176.788669 
L 607.444911 177.02661 
L 607.734781 176.725659 
L 608.024651 176.724508 
L 608.314521 176.438756 
L 608.604391 176.66803 
L 608.894261 176.439631 
L 609.184131 176.779391 
L 609.763872 176.483722 
L 610.343612 176.578209 
L 610.633482 176.400909 
L 611.213222 176.806743 
L 611.503093 176.867722 
L 611.792963 177.15493 
L 612.082833 176.648428 
L 612.372703 176.867117 
L 613.532183 176.61643 
L 614.111924 176.943236 
L 614.691664 177.07052 
L 614.981534 176.630595 
L 615.271404 176.621241 
L 615.851144 176.83572 
L 616.141015 176.725813 
L 616.430885 176.339262 
L 616.720755 176.740169 
L 617.010625 176.35747 
L 617.300495 176.248919 
L 617.880235 176.493674 
L 618.170106 176.715714 
L 618.749846 176.475171 
L 619.039716 176.175288 
L 619.329586 176.151643 
L 619.619456 176.388506 
L 620.199196 176.179788 
L 620.778937 176.38024 
L 621.358677 176.247591 
L 621.648547 176.273009 
L 622.228287 176.776621 
L 622.518157 176.657325 
L 622.808028 176.227435 
L 623.387768 176.676727 
L 623.677638 176.611852 
L 623.967508 176.429794 
L 624.547248 176.649998 
L 624.837119 176.79158 
L 625.126989 176.224705 
L 625.126989 176.224705 
" clip-path="url(#p0806832a0e)" style="fill: none; stroke: #ff7f0e; stroke-width: 1.5; stroke-linecap: square"/>
   </g>
   <g id="patch_3">
    <path d="M 92.490625 308.63625 
L 92.490625 31.43625 
" style="fill: none; stroke: #000000; stroke-width: 0.8; stroke-linejoin: miter; stroke-linecap: square"/>
   </g>
   <g id="patch_4">
    <path d="M 650.490625 308.63625 
L 650.490625 31.43625 
" style="fill: none; stroke: #000000; stroke-width: 0.8; stroke-linejoin: miter; stroke-linecap: square"/>
   </g>
   <g id="patch_5">
    <path d="M 92.490625 308.63625 
L 650.490625 308.63625 
" style="fill: none; stroke: #000000; stroke-width: 0.8; stroke-linejoin: miter; stroke-linecap: square"/>
   </g>
   <g id="patch_6">
    <path d="M 92.490625 31.43625 
L 650.490625 31.43625 
" style="fill: none; stroke: #000000; stroke-width: 0.8; stroke-linejoin: miter; stroke-linecap: square"/>
   </g>
   <g id="text_16">
    <!-- Generator and Discriminator Loss During Training -->
    <g transform="translate(74.258125 25.43625) scale(0.24 -0.24)">
     <defs>
      <path id="DejaVuSans-47" d="M 3809 666 
L 3809 1919 
L 2778 1919 
L 2778 2438 
L 4434 2438 
L 4434 434 
Q 4069 175 3628 42 
Q 3188 -91 2688 -91 
Q 1594 -91 976 548 
Q 359 1188 359 2328 
Q 359 3472 976 4111 
Q 1594 4750 2688 4750 
Q 3144 4750 3555 4637 
Q 3966 4525 4313 4306 
L 4313 3634 
Q 3963 3931 3569 4081 
Q 3175 4231 2741 4231 
Q 1884 4231 1454 3753 
Q 1025 3275 1025 2328 
Q 1025 1384 1454 906 
Q 1884 428 2741 428 
Q 3075 428 3337 486 
Q 3600 544 3809 666 
z
" transform="scale(0.015625)"/>
      <path id="DejaVuSans-20" transform="scale(0.015625)"/>
      <path id="DejaVuSans-64" d="M 2906 2969 
L 2906 4863 
L 3481 4863 
L 3481 0 
L 2906 0 
L 2906 525 
Q 2725 213 2448 61 
Q 2172 -91 1784 -91 
Q 1150 -91 751 415 
Q 353 922 353 1747 
Q 353 2572 751 3078 
Q 1150 3584 1784 3584 
Q 2172 3584 2448 3432 
Q 2725 3281 2906 2969 
z
M 947 1747 
Q 947 1113 1208 752 
Q 1469 391 1925 391 
Q 2381 391 2643 752 
Q 2906 1113 2906 1747 
Q 2906 2381 2643 2742 
Q 2381 3103 1925 3103 
Q 1469 3103 1208 2742 
Q 947 2381 947 1747 
z
" transform="scale(0.015625)"/>
      <path id="DejaVuSans-44" d="M 1259 4147 
L 1259 519 
L 2022 519 
Q 2988 519 3436 956 
Q 3884 1394 3884 2338 
Q 3884 3275 3436 3711 
Q 2988 4147 2022 4147 
L 1259 4147 
z
M 628 4666 
L 1925 4666 
Q 3281 4666 3915 4102 
Q 4550 3538 4550 2338 
Q 4550 1131 3912 565 
Q 3275 0 1925 0 
L 628 0 
L 628 4666 
z
" transform="scale(0.015625)"/>
      <path id="DejaVuSans-63" d="M 3122 3366 
L 3122 2828 
Q 2878 2963 2633 3030 
Q 2388 3097 2138 3097 
Q 1578 3097 1268 2742 
Q 959 2388 959 1747 
Q 959 1106 1268 751 
Q 1578 397 2138 397 
Q 2388 397 2633 464 
Q 2878 531 3122 666 
L 3122 134 
Q 2881 22 2623 -34 
Q 2366 -91 2075 -91 
Q 1284 -91 818 406 
Q 353 903 353 1747 
Q 353 2603 823 3093 
Q 1294 3584 2113 3584 
Q 2378 3584 2631 3529 
Q 2884 3475 3122 3366 
z
" transform="scale(0.015625)"/>
      <path id="DejaVuSans-6d" d="M 3328 2828 
Q 3544 3216 3844 3400 
Q 4144 3584 4550 3584 
Q 5097 3584 5394 3201 
Q 5691 2819 5691 2113 
L 5691 0 
L 5113 0 
L 5113 2094 
Q 5113 2597 4934 2840 
Q 4756 3084 4391 3084 
Q 3944 3084 3684 2787 
Q 3425 2491 3425 1978 
L 3425 0 
L 2847 0 
L 2847 2094 
Q 2847 2600 2669 2842 
Q 2491 3084 2119 3084 
Q 1678 3084 1418 2786 
Q 1159 2488 1159 1978 
L 1159 0 
L 581 0 
L 581 3500 
L 1159 3500 
L 1159 2956 
Q 1356 3278 1631 3431 
Q 1906 3584 2284 3584 
Q 2666 3584 2933 3390 
Q 3200 3197 3328 2828 
z
" transform="scale(0.015625)"/>
      <path id="DejaVuSans-75" d="M 544 1381 
L 544 3500 
L 1119 3500 
L 1119 1403 
Q 1119 906 1312 657 
Q 1506 409 1894 409 
Q 2359 409 2629 706 
Q 2900 1003 2900 1516 
L 2900 3500 
L 3475 3500 
L 3475 0 
L 2900 0 
L 2900 538 
Q 2691 219 2414 64 
Q 2138 -91 1772 -91 
Q 1169 -91 856 284 
Q 544 659 544 1381 
z
M 1991 3584 
L 1991 3584 
z
" transform="scale(0.015625)"/>
      <path id="DejaVuSans-67" d="M 2906 1791 
Q 2906 2416 2648 2759 
Q 2391 3103 1925 3103 
Q 1463 3103 1205 2759 
Q 947 2416 947 1791 
Q 947 1169 1205 825 
Q 1463 481 1925 481 
Q 2391 481 2648 825 
Q 2906 1169 2906 1791 
z
M 3481 434 
Q 3481 -459 3084 -895 
Q 2688 -1331 1869 -1331 
Q 1566 -1331 1297 -1286 
Q 1028 -1241 775 -1147 
L 775 -588 
Q 1028 -725 1275 -790 
Q 1522 -856 1778 -856 
Q 2344 -856 2625 -561 
Q 2906 -266 2906 331 
L 2906 616 
Q 2728 306 2450 153 
Q 2172 0 1784 0 
Q 1141 0 747 490 
Q 353 981 353 1791 
Q 353 2603 747 3093 
Q 1141 3584 1784 3584 
Q 2172 3584 2450 3431 
Q 2728 3278 2906 2969 
L 2906 3500 
L 3481 3500 
L 3481 434 
z
" transform="scale(0.015625)"/>
      <path id="DejaVuSans-54" d="M -19 4666 
L 3928 4666 
L 3928 4134 
L 2272 4134 
L 2272 0 
L 1638 0 
L 1638 4134 
L -19 4134 
L -19 4666 
z
" transform="scale(0.015625)"/>
     </defs>
     <use xlink:href="#DejaVuSans-47"/>
     <use xlink:href="#DejaVuSans-65" x="77.490234"/>
     <use xlink:href="#DejaVuSans-6e" x="139.013672"/>
     <use xlink:href="#DejaVuSans-65" x="202.392578"/>
     <use xlink:href="#DejaVuSans-72" x="263.916016"/>
     <use xlink:href="#DejaVuSans-61" x="305.029297"/>
     <use xlink:href="#DejaVuSans-74" x="366.308594"/>
     <use xlink:href="#DejaVuSans-6f" x="405.517578"/>
     <use xlink:href="#DejaVuSans-72" x="466.699219"/>
     <use xlink:href="#DejaVuSans-20" x="507.8125"/>
     <use xlink:href="#DejaVuSans-61" x="539.599609"/>
     <use xlink:href="#DejaVuSans-6e" x="600.878906"/>
     <use xlink:href="#DejaVuSans-64" x="664.257812"/>
     <use xlink:href="#DejaVuSans-20" x="727.734375"/>
     <use xlink:href="#DejaVuSans-44" x="759.521484"/>
     <use xlink:href="#DejaVuSans-69" x="836.523438"/>
     <use xlink:href="#DejaVuSans-73" x="864.306641"/>
     <use xlink:href="#DejaVuSans-63" x="916.40625"/>
     <use xlink:href="#DejaVuSans-72" x="971.386719"/>
     <use xlink:href="#DejaVuSans-69" x="1012.5"/>
     <use xlink:href="#DejaVuSans-6d" x="1040.283203"/>
     <use xlink:href="#DejaVuSans-69" x="1137.695312"/>
     <use xlink:href="#DejaVuSans-6e" x="1165.478516"/>
     <use xlink:href="#DejaVuSans-61" x="1228.857422"/>
     <use xlink:href="#DejaVuSans-74" x="1290.136719"/>
     <use xlink:href="#DejaVuSans-6f" x="1329.345703"/>
     <use xlink:href="#DejaVuSans-72" x="1390.527344"/>
     <use xlink:href="#DejaVuSans-20" x="1431.640625"/>
     <use xlink:href="#DejaVuSans-4c" x="1463.427734"/>
     <use xlink:href="#DejaVuSans-6f" x="1517.390625"/>
     <use xlink:href="#DejaVuSans-73" x="1578.572266"/>
     <use xlink:href="#DejaVuSans-73" x="1630.671875"/>
     <use xlink:href="#DejaVuSans-20" x="1682.771484"/>
     <use xlink:href="#DejaVuSans-44" x="1714.558594"/>
     <use xlink:href="#DejaVuSans-75" x="1791.560547"/>
     <use xlink:href="#DejaVuSans-72" x="1854.939453"/>
     <use xlink:href="#DejaVuSans-69" x="1896.052734"/>
     <use xlink:href="#DejaVuSans-6e" x="1923.835938"/>
     <use xlink:href="#DejaVuSans-67" x="1987.214844"/>
     <use xlink:href="#DejaVuSans-20" x="2050.691406"/>
     <use xlink:href="#DejaVuSans-54" x="2082.478516"/>
     <use xlink:href="#DejaVuSans-72" x="2128.8125"/>
     <use xlink:href="#DejaVuSans-61" x="2169.925781"/>
     <use xlink:href="#DejaVuSans-69" x="2231.205078"/>
     <use xlink:href="#DejaVuSans-6e" x="2258.988281"/>
     <use xlink:href="#DejaVuSans-69" x="2322.367188"/>
     <use xlink:href="#DejaVuSans-6e" x="2350.150391"/>
     <use xlink:href="#DejaVuSans-67" x="2413.529297"/>
    </g>
   </g>
   <g id="legend_1">
    <g id="patch_7">
     <path d="M 556.99375 106.14875 
L 636.490625 106.14875 
Q 640.490625 106.14875 640.490625 102.14875 
L 640.490625 45.43625 
Q 640.490625 41.43625 636.490625 41.43625 
L 556.99375 41.43625 
Q 552.99375 41.43625 552.99375 45.43625 
L 552.99375 102.14875 
Q 552.99375 106.14875 556.99375 106.14875 
z
" style="fill: #ffffff; opacity: 0.8; stroke: #cccccc; stroke-linejoin: miter"/>
    </g>
    <g id="line2d_16">
     <path d="M 560.99375 57.633125 
L 580.99375 57.633125 
L 600.99375 57.633125 
" style="fill: none; stroke: #1f77b4; stroke-width: 1.5; stroke-linecap: square"/>
    </g>
    <g id="text_17">
     <!-- G -->
     <g transform="translate(616.99375 64.633125) scale(0.2 -0.2)">
      <use xlink:href="#DejaVuSans-47"/>
     </g>
    </g>
    <g id="line2d_17">
     <path d="M 560.99375 86.989375 
L 580.99375 86.989375 
L 600.99375 86.989375 
" style="fill: none; stroke: #ff7f0e; stroke-width: 1.5; stroke-linecap: square"/>
    </g>
    <g id="text_18">
     <!-- D -->
     <g transform="translate(616.99375 93.989375) scale(0.2 -0.2)">
      <use xlink:href="#DejaVuSans-44"/>
     </g>
    </g>
   </g>
  </g>
 </g>
 <defs>
  <clipPath id="p0806832a0e">
   <rect x="92.490625" y="31.43625" width="558" height="277.2"/>
  </clipPath>
 </defs>
</svg>
