<?xml version="1.0" encoding="utf-8" standalone="no"?>
<!DOCTYPE svg PUBLIC "-//W3C//DTD SVG 1.1//EN"
  "http://www.w3.org/Graphics/SVG/1.1/DTD/svg11.dtd">
<svg xmlns:xlink="http://www.w3.org/1999/xlink" width="675.923125pt" height="365.54875pt" viewBox="0 0 675.923125 365.54875" xmlns="http://www.w3.org/2000/svg" version="1.1">
 <metadata>
  <rdf:RDF xmlns:dc="http://purl.org/dc/elements/1.1/" xmlns:cc="http://creativecommons.org/ns#" xmlns:rdf="http://www.w3.org/1999/02/22-rdf-syntax-ns#">
   <cc:Work>
    <dc:type rdf:resource="http://purl.org/dc/dcmitype/StillImage"/>
    <dc:date>2024-02-01T18:08:20.777807</dc:date>
    <dc:format>image/svg+xml</dc:format>
    <dc:creator>
     <cc:Agent>
      <dc:title>Matplotlib v3.7.2, https://matplotlib.org/</dc:title>
     </cc:Agent>
    </dc:creator>
   </cc:Work>
  </rdf:RDF>
 </metadata>
 <defs>
  <style type="text/css">*{stroke-linejoin: round; stroke-linecap: butt}</style>
 </defs>
 <g id="figure_1">
  <g id="patch_1">
   <path d="M 0 365.54875 
L 675.923125 365.54875 
L 675.923125 -0 
L 0 -0 
z
" style="fill: #ffffff"/>
  </g>
  <g id="axes_1">
   <g id="patch_2">
    <path d="M 92.490625 308.63625 
L 650.490625 308.63625 
L 650.490625 31.43625 
L 92.490625 31.43625 
z
" style="fill: #ffffff"/>
   </g>
   <g id="matplotlib.axis_1">
    <g id="xtick_1">
     <g id="line2d_1">
      <defs>
       <path id="m511223d640" d="M 0 0 
L 0 3.5 
" style="stroke: #000000; stroke-width: 0.8"/>
      </defs>
      <g>
       <use xlink:href="#m511223d640" x="117.854261" y="308.63625" style="stroke: #000000; stroke-width: 0.8"/>
      </g>
     </g>
     <g id="text_1">
      <!-- 0 -->
      <g transform="translate(111.491761 330.833125) scale(0.2 -0.2)">
       <defs>
        <path id="DejaVuSans-30" d="M 2034 4250 
Q 1547 4250 1301 3770 
Q 1056 3291 1056 2328 
Q 1056 1369 1301 889 
Q 1547 409 2034 409 
Q 2525 409 2770 889 
Q 3016 1369 3016 2328 
Q 3016 3291 2770 3770 
Q 2525 4250 2034 4250 
z
M 2034 4750 
Q 2819 4750 3233 4129 
Q 3647 3509 3647 2328 
Q 3647 1150 3233 529 
Q 2819 -91 2034 -91 
Q 1250 -91 836 529 
Q 422 1150 422 2328 
Q 422 3509 836 4129 
Q 1250 4750 2034 4750 
z
" transform="scale(0.015625)"/>
       </defs>
       <use xlink:href="#DejaVuSans-30"/>
      </g>
     </g>
    </g>
    <g id="xtick_2">
     <g id="line2d_2">
      <g>
       <use xlink:href="#m511223d640" x="185.490625" y="308.63625" style="stroke: #000000; stroke-width: 0.8"/>
      </g>
     </g>
     <g id="text_2">
      <!-- 200 -->
      <g transform="translate(166.403125 330.833125) scale(0.2 -0.2)">
       <defs>
        <path id="DejaVuSans-32" d="M 1228 531 
L 3431 531 
L 3431 0 
L 469 0 
L 469 531 
Q 828 903 1448 1529 
Q 2069 2156 2228 2338 
Q 2531 2678 2651 2914 
Q 2772 3150 2772 3378 
Q 2772 3750 2511 3984 
Q 2250 4219 1831 4219 
Q 1534 4219 1204 4116 
Q 875 4013 500 3803 
L 500 4441 
Q 881 4594 1212 4672 
Q 1544 4750 1819 4750 
Q 2544 4750 2975 4387 
Q 3406 4025 3406 3419 
Q 3406 3131 3298 2873 
Q 3191 2616 2906 2266 
Q 2828 2175 2409 1742 
Q 1991 1309 1228 531 
z
" transform="scale(0.015625)"/>
       </defs>
       <use xlink:href="#DejaVuSans-32"/>
       <use xlink:href="#DejaVuSans-30" x="63.623047"/>
       <use xlink:href="#DejaVuSans-30" x="127.246094"/>
      </g>
     </g>
    </g>
    <g id="xtick_3">
     <g id="line2d_3">
      <g>
       <use xlink:href="#m511223d640" x="253.126989" y="308.63625" style="stroke: #000000; stroke-width: 0.8"/>
      </g>
     </g>
     <g id="text_3">
      <!-- 400 -->
      <g transform="translate(234.039489 330.833125) scale(0.2 -0.2)">
       <defs>
        <path id="DejaVuSans-34" d="M 2419 4116 
L 825 1625 
L 2419 1625 
L 2419 4116 
z
M 2253 4666 
L 3047 4666 
L 3047 1625 
L 3713 1625 
L 3713 1100 
L 3047 1100 
L 3047 0 
L 2419 0 
L 2419 1100 
L 313 1100 
L 313 1709 
L 2253 4666 
z
" transform="scale(0.015625)"/>
       </defs>
       <use xlink:href="#DejaVuSans-34"/>
       <use xlink:href="#DejaVuSans-30" x="63.623047"/>
       <use xlink:href="#DejaVuSans-30" x="127.246094"/>
      </g>
     </g>
    </g>
    <g id="xtick_4">
     <g id="line2d_4">
      <g>
       <use xlink:href="#m511223d640" x="320.763352" y="308.63625" style="stroke: #000000; stroke-width: 0.8"/>
      </g>
     </g>
     <g id="text_4">
      <!-- 600 -->
      <g transform="translate(301.675852 330.833125) scale(0.2 -0.2)">
       <defs>
        <path id="DejaVuSans-36" d="M 2113 2584 
Q 1688 2584 1439 2293 
Q 1191 2003 1191 1497 
Q 1191 994 1439 701 
Q 1688 409 2113 409 
Q 2538 409 2786 701 
Q 3034 994 3034 1497 
Q 3034 2003 2786 2293 
Q 2538 2584 2113 2584 
z
M 3366 4563 
L 3366 3988 
Q 3128 4100 2886 4159 
Q 2644 4219 2406 4219 
Q 1781 4219 1451 3797 
Q 1122 3375 1075 2522 
Q 1259 2794 1537 2939 
Q 1816 3084 2150 3084 
Q 2853 3084 3261 2657 
Q 3669 2231 3669 1497 
Q 3669 778 3244 343 
Q 2819 -91 2113 -91 
Q 1303 -91 875 529 
Q 447 1150 447 2328 
Q 447 3434 972 4092 
Q 1497 4750 2381 4750 
Q 2619 4750 2861 4703 
Q 3103 4656 3366 4563 
z
" transform="scale(0.015625)"/>
       </defs>
       <use xlink:href="#DejaVuSans-36"/>
       <use xlink:href="#DejaVuSans-30" x="63.623047"/>
       <use xlink:href="#DejaVuSans-30" x="127.246094"/>
      </g>
     </g>
    </g>
    <g id="xtick_5">
     <g id="line2d_5">
      <g>
       <use xlink:href="#m511223d640" x="388.399716" y="308.63625" style="stroke: #000000; stroke-width: 0.8"/>
      </g>
     </g>
     <g id="text_5">
      <!-- 800 -->
      <g transform="translate(369.312216 330.833125) scale(0.2 -0.2)">
       <defs>
        <path id="DejaVuSans-38" d="M 2034 2216 
Q 1584 2216 1326 1975 
Q 1069 1734 1069 1313 
Q 1069 891 1326 650 
Q 1584 409 2034 409 
Q 2484 409 2743 651 
Q 3003 894 3003 1313 
Q 3003 1734 2745 1975 
Q 2488 2216 2034 2216 
z
M 1403 2484 
Q 997 2584 770 2862 
Q 544 3141 544 3541 
Q 544 4100 942 4425 
Q 1341 4750 2034 4750 
Q 2731 4750 3128 4425 
Q 3525 4100 3525 3541 
Q 3525 3141 3298 2862 
Q 3072 2584 2669 2484 
Q 3125 2378 3379 2068 
Q 3634 1759 3634 1313 
Q 3634 634 3220 271 
Q 2806 -91 2034 -91 
Q 1263 -91 848 271 
Q 434 634 434 1313 
Q 434 1759 690 2068 
Q 947 2378 1403 2484 
z
M 1172 3481 
Q 1172 3119 1398 2916 
Q 1625 2713 2034 2713 
Q 2441 2713 2670 2916 
Q 2900 3119 2900 3481 
Q 2900 3844 2670 4047 
Q 2441 4250 2034 4250 
Q 1625 4250 1398 4047 
Q 1172 3844 1172 3481 
z
" transform="scale(0.015625)"/>
       </defs>
       <use xlink:href="#DejaVuSans-38"/>
       <use xlink:href="#DejaVuSans-30" x="63.623047"/>
       <use xlink:href="#DejaVuSans-30" x="127.246094"/>
      </g>
     </g>
    </g>
    <g id="xtick_6">
     <g id="line2d_6">
      <g>
       <use xlink:href="#m511223d640" x="456.03608" y="308.63625" style="stroke: #000000; stroke-width: 0.8"/>
      </g>
     </g>
     <g id="text_6">
      <!-- 1000 -->
      <g transform="translate(430.58608 330.833125) scale(0.2 -0.2)">
       <defs>
        <path id="DejaVuSans-31" d="M 794 531 
L 1825 531 
L 1825 4091 
L 703 3866 
L 703 4441 
L 1819 4666 
L 2450 4666 
L 2450 531 
L 3481 531 
L 3481 0 
L 794 0 
L 794 531 
z
" transform="scale(0.015625)"/>
       </defs>
       <use xlink:href="#DejaVuSans-31"/>
       <use xlink:href="#DejaVuSans-30" x="63.623047"/>
       <use xlink:href="#DejaVuSans-30" x="127.246094"/>
       <use xlink:href="#DejaVuSans-30" x="190.869141"/>
      </g>
     </g>
    </g>
    <g id="xtick_7">
     <g id="line2d_7">
      <g>
       <use xlink:href="#m511223d640" x="523.672443" y="308.63625" style="stroke: #000000; stroke-width: 0.8"/>
      </g>
     </g>
     <g id="text_7">
      <!-- 1200 -->
      <g transform="translate(498.222443 330.833125) scale(0.2 -0.2)">
       <use xlink:href="#DejaVuSans-31"/>
       <use xlink:href="#DejaVuSans-32" x="63.623047"/>
       <use xlink:href="#DejaVuSans-30" x="127.246094"/>
       <use xlink:href="#DejaVuSans-30" x="190.869141"/>
      </g>
     </g>
    </g>
    <g id="xtick_8">
     <g id="line2d_8">
      <g>
       <use xlink:href="#m511223d640" x="591.308807" y="308.63625" style="stroke: #000000; stroke-width: 0.8"/>
      </g>
     </g>
     <g id="text_8">
      <!-- 1400 -->
      <g transform="translate(565.858807 330.833125) scale(0.2 -0.2)">
       <use xlink:href="#DejaVuSans-31"/>
       <use xlink:href="#DejaVuSans-34" x="63.623047"/>
       <use xlink:href="#DejaVuSans-30" x="127.246094"/>
       <use xlink:href="#DejaVuSans-30" x="190.869141"/>
      </g>
     </g>
    </g>
    <g id="text_9">
     <!-- iterations -->
     <g transform="translate(324.035938 354.189375) scale(0.2 -0.2)">
      <defs>
       <path id="DejaVuSans-69" d="M 603 3500 
L 1178 3500 
L 1178 0 
L 603 0 
L 603 3500 
z
M 603 4863 
L 1178 4863 
L 1178 4134 
L 603 4134 
L 603 4863 
z
" transform="scale(0.015625)"/>
       <path id="DejaVuSans-74" d="M 1172 4494 
L 1172 3500 
L 2356 3500 
L 2356 3053 
L 1172 3053 
L 1172 1153 
Q 1172 725 1289 603 
Q 1406 481 1766 481 
L 2356 481 
L 2356 0 
L 1766 0 
Q 1100 0 847 248 
Q 594 497 594 1153 
L 594 3053 
L 172 3053 
L 172 3500 
L 594 3500 
L 594 4494 
L 1172 4494 
z
" transform="scale(0.015625)"/>
       <path id="DejaVuSans-65" d="M 3597 1894 
L 3597 1613 
L 953 1613 
Q 991 1019 1311 708 
Q 1631 397 2203 397 
Q 2534 397 2845 478 
Q 3156 559 3463 722 
L 3463 178 
Q 3153 47 2828 -22 
Q 2503 -91 2169 -91 
Q 1331 -91 842 396 
Q 353 884 353 1716 
Q 353 2575 817 3079 
Q 1281 3584 2069 3584 
Q 2775 3584 3186 3129 
Q 3597 2675 3597 1894 
z
M 3022 2063 
Q 3016 2534 2758 2815 
Q 2500 3097 2075 3097 
Q 1594 3097 1305 2825 
Q 1016 2553 972 2059 
L 3022 2063 
z
" transform="scale(0.015625)"/>
       <path id="DejaVuSans-72" d="M 2631 2963 
Q 2534 3019 2420 3045 
Q 2306 3072 2169 3072 
Q 1681 3072 1420 2755 
Q 1159 2438 1159 1844 
L 1159 0 
L 581 0 
L 581 3500 
L 1159 3500 
L 1159 2956 
Q 1341 3275 1631 3429 
Q 1922 3584 2338 3584 
Q 2397 3584 2469 3576 
Q 2541 3569 2628 3553 
L 2631 2963 
z
" transform="scale(0.015625)"/>
       <path id="DejaVuSans-61" d="M 2194 1759 
Q 1497 1759 1228 1600 
Q 959 1441 959 1056 
Q 959 750 1161 570 
Q 1363 391 1709 391 
Q 2188 391 2477 730 
Q 2766 1069 2766 1631 
L 2766 1759 
L 2194 1759 
z
M 3341 1997 
L 3341 0 
L 2766 0 
L 2766 531 
Q 2569 213 2275 61 
Q 1981 -91 1556 -91 
Q 1019 -91 701 211 
Q 384 513 384 1019 
Q 384 1609 779 1909 
Q 1175 2209 1959 2209 
L 2766 2209 
L 2766 2266 
Q 2766 2663 2505 2880 
Q 2244 3097 1772 3097 
Q 1472 3097 1187 3025 
Q 903 2953 641 2809 
L 641 3341 
Q 956 3463 1253 3523 
Q 1550 3584 1831 3584 
Q 2591 3584 2966 3190 
Q 3341 2797 3341 1997 
z
" transform="scale(0.015625)"/>
       <path id="DejaVuSans-6f" d="M 1959 3097 
Q 1497 3097 1228 2736 
Q 959 2375 959 1747 
Q 959 1119 1226 758 
Q 1494 397 1959 397 
Q 2419 397 2687 759 
Q 2956 1122 2956 1747 
Q 2956 2369 2687 2733 
Q 2419 3097 1959 3097 
z
M 1959 3584 
Q 2709 3584 3137 3096 
Q 3566 2609 3566 1747 
Q 3566 888 3137 398 
Q 2709 -91 1959 -91 
Q 1206 -91 779 398 
Q 353 888 353 1747 
Q 353 2609 779 3096 
Q 1206 3584 1959 3584 
z
" transform="scale(0.015625)"/>
       <path id="DejaVuSans-6e" d="M 3513 2113 
L 3513 0 
L 2938 0 
L 2938 2094 
Q 2938 2591 2744 2837 
Q 2550 3084 2163 3084 
Q 1697 3084 1428 2787 
Q 1159 2491 1159 1978 
L 1159 0 
L 581 0 
L 581 3500 
L 1159 3500 
L 1159 2956 
Q 1366 3272 1645 3428 
Q 1925 3584 2291 3584 
Q 2894 3584 3203 3211 
Q 3513 2838 3513 2113 
z
" transform="scale(0.015625)"/>
       <path id="DejaVuSans-73" d="M 2834 3397 
L 2834 2853 
Q 2591 2978 2328 3040 
Q 2066 3103 1784 3103 
Q 1356 3103 1142 2972 
Q 928 2841 928 2578 
Q 928 2378 1081 2264 
Q 1234 2150 1697 2047 
L 1894 2003 
Q 2506 1872 2764 1633 
Q 3022 1394 3022 966 
Q 3022 478 2636 193 
Q 2250 -91 1575 -91 
Q 1294 -91 989 -36 
Q 684 19 347 128 
L 347 722 
Q 666 556 975 473 
Q 1284 391 1588 391 
Q 1994 391 2212 530 
Q 2431 669 2431 922 
Q 2431 1156 2273 1281 
Q 2116 1406 1581 1522 
L 1381 1569 
Q 847 1681 609 1914 
Q 372 2147 372 2553 
Q 372 3047 722 3315 
Q 1072 3584 1716 3584 
Q 2034 3584 2315 3537 
Q 2597 3491 2834 3397 
z
" transform="scale(0.015625)"/>
      </defs>
      <use xlink:href="#DejaVuSans-69"/>
      <use xlink:href="#DejaVuSans-74" x="27.783203"/>
      <use xlink:href="#DejaVuSans-65" x="66.992188"/>
      <use xlink:href="#DejaVuSans-72" x="128.515625"/>
      <use xlink:href="#DejaVuSans-61" x="169.628906"/>
      <use xlink:href="#DejaVuSans-74" x="230.908203"/>
      <use xlink:href="#DejaVuSans-69" x="270.117188"/>
      <use xlink:href="#DejaVuSans-6f" x="297.900391"/>
      <use xlink:href="#DejaVuSans-6e" x="359.082031"/>
      <use xlink:href="#DejaVuSans-73" x="422.460938"/>
     </g>
    </g>
   </g>
   <g id="matplotlib.axis_2">
    <g id="ytick_1">
     <g id="line2d_9">
      <defs>
       <path id="m6c937be10d" d="M 0 0 
L -3.5 0 
" style="stroke: #000000; stroke-width: 0.8"/>
      </defs>
      <g>
       <use xlink:href="#m6c937be10d" x="92.490625" y="278.050314" style="stroke: #000000; stroke-width: 0.8"/>
      </g>
     </g>
     <g id="text_10">
      <!-- −200 -->
      <g transform="translate(30.55625 285.648751) scale(0.2 -0.2)">
       <defs>
        <path id="DejaVuSans-2212" d="M 678 2272 
L 4684 2272 
L 4684 1741 
L 678 1741 
L 678 2272 
z
" transform="scale(0.015625)"/>
       </defs>
       <use xlink:href="#DejaVuSans-2212"/>
       <use xlink:href="#DejaVuSans-32" x="83.789062"/>
       <use xlink:href="#DejaVuSans-30" x="147.412109"/>
       <use xlink:href="#DejaVuSans-30" x="211.035156"/>
      </g>
     </g>
    </g>
    <g id="ytick_2">
     <g id="line2d_10">
      <g>
       <use xlink:href="#m6c937be10d" x="92.490625" y="225.895764" style="stroke: #000000; stroke-width: 0.8"/>
      </g>
     </g>
     <g id="text_11">
      <!-- −100 -->
      <g transform="translate(30.55625 233.494202) scale(0.2 -0.2)">
       <use xlink:href="#DejaVuSans-2212"/>
       <use xlink:href="#DejaVuSans-31" x="83.789062"/>
       <use xlink:href="#DejaVuSans-30" x="147.412109"/>
       <use xlink:href="#DejaVuSans-30" x="211.035156"/>
      </g>
     </g>
    </g>
    <g id="ytick_3">
     <g id="line2d_11">
      <g>
       <use xlink:href="#m6c937be10d" x="92.490625" y="173.741215" style="stroke: #000000; stroke-width: 0.8"/>
      </g>
     </g>
     <g id="text_12">
      <!-- 0 -->
      <g transform="translate(72.765625 181.339652) scale(0.2 -0.2)">
       <use xlink:href="#DejaVuSans-30"/>
      </g>
     </g>
    </g>
    <g id="ytick_4">
     <g id="line2d_12">
      <g>
       <use xlink:href="#m6c937be10d" x="92.490625" y="121.586665" style="stroke: #000000; stroke-width: 0.8"/>
      </g>
     </g>
     <g id="text_13">
      <!-- 100 -->
      <g transform="translate(47.315625 129.185102) scale(0.2 -0.2)">
       <use xlink:href="#DejaVuSans-31"/>
       <use xlink:href="#DejaVuSans-30" x="63.623047"/>
       <use xlink:href="#DejaVuSans-30" x="127.246094"/>
      </g>
     </g>
    </g>
    <g id="ytick_5">
     <g id="line2d_13">
      <g>
       <use xlink:href="#m6c937be10d" x="92.490625" y="69.432115" style="stroke: #000000; stroke-width: 0.8"/>
      </g>
     </g>
     <g id="text_14">
      <!-- 200 -->
      <g transform="translate(47.315625 77.030553) scale(0.2 -0.2)">
       <use xlink:href="#DejaVuSans-32"/>
       <use xlink:href="#DejaVuSans-30" x="63.623047"/>
       <use xlink:href="#DejaVuSans-30" x="127.246094"/>
      </g>
     </g>
    </g>
    <g id="text_15">
     <!-- Loss -->
     <g transform="translate(22.396875 191.970625) rotate(-90) scale(0.2 -0.2)">
      <defs>
       <path id="DejaVuSans-4c" d="M 628 4666 
L 1259 4666 
L 1259 531 
L 3531 531 
L 3531 0 
L 628 0 
L 628 4666 
z
" transform="scale(0.015625)"/>
      </defs>
      <use xlink:href="#DejaVuSans-4c"/>
      <use xlink:href="#DejaVuSans-6f" x="53.962891"/>
      <use xlink:href="#DejaVuSans-73" x="115.144531"/>
      <use xlink:href="#DejaVuSans-73" x="167.244141"/>
     </g>
    </g>
   </g>
   <g id="line2d_14">
    <path d="M 117.854261 116.730416 
L 118.192443 62.430435 
L 118.530625 101.446911 
L 118.868807 97.742273 
L 119.206989 71.891481 
L 119.54517 66.005259 
L 119.883352 53.003453 
L 120.221534 50.572912 
L 120.559716 59.282987 
L 120.897898 64.407922 
L 121.23608 63.027834 
L 122.250625 76.15716 
L 122.588807 51.933022 
L 122.926989 73.641653 
L 123.26517 118.042353 
L 123.603352 125.137272 
L 124.279716 60.941522 
L 124.617898 44.03625 
L 124.95608 52.703352 
L 125.294261 66.415864 
L 125.970625 80.271673 
L 126.308807 77.046844 
L 126.646989 85.974109 
L 126.98517 89.320307 
L 127.323352 99.781725 
L 127.661534 103.629806 
L 127.999716 95.490293 
L 128.337898 93.742179 
L 128.67608 96.556052 
L 129.014261 104.56955 
L 129.352443 103.315712 
L 129.690625 106.314088 
L 130.028807 101.622759 
L 130.366989 103.726444 
L 130.70517 97.099143 
L 131.043352 105.59913 
L 131.381534 102.090241 
L 131.719716 108.846517 
L 132.057898 107.115866 
L 132.39608 107.768741 
L 132.734261 94.854922 
L 133.072443 103.509892 
L 133.410625 99.688151 
L 133.748807 99.279356 
L 134.086989 102.538264 
L 134.42517 101.345011 
L 134.763352 103.441635 
L 135.101534 100.626615 
L 135.439716 103.77917 
L 135.777898 108.446027 
L 136.11608 104.135863 
L 136.454261 113.024366 
L 136.792443 113.256683 
L 137.130625 118.953402 
L 137.468807 121.504437 
L 137.806989 125.536059 
L 138.14517 125.084203 
L 138.483352 124.975704 
L 138.821534 129.12069 
L 139.159716 129.965285 
L 139.497898 127.601113 
L 139.83608 122.813187 
L 140.174261 121.044518 
L 140.512443 125.340201 
L 140.850625 125.222212 
L 141.188807 129.200338 
L 141.526989 126.028649 
L 141.86517 128.68786 
L 142.541534 125.98626 
L 142.879716 127.841862 
L 143.217898 125.227578 
L 143.55608 130.64839 
L 143.894261 134.240456 
L 144.232443 133.266292 
L 144.570625 131.370037 
L 144.908807 133.221224 
L 145.246989 131.530508 
L 145.58517 127.304061 
L 145.923352 127.021545 
L 146.261534 131.504403 
L 146.599716 129.12013 
L 146.937898 130.155912 
L 147.27608 129.13671 
L 147.952443 135.649824 
L 148.290625 130.074104 
L 148.628807 129.476486 
L 148.966989 129.449765 
L 149.30517 127.07422 
L 149.981534 128.405043 
L 150.319716 132.155688 
L 150.657898 129.996242 
L 150.99608 130.068832 
L 151.334261 128.264842 
L 151.672443 131.050036 
L 152.010625 130.94195 
L 152.348807 128.470743 
L 152.686989 131.531211 
L 153.02517 131.612299 
L 153.363352 132.350694 
L 153.701534 131.23145 
L 154.039716 134.408219 
L 154.377898 133.259949 
L 154.71608 133.451761 
L 155.054261 135.868165 
L 155.392443 136.567827 
L 155.730625 137.964817 
L 156.068807 137.904629 
L 156.406989 140.59013 
L 156.74517 140.248142 
L 157.083352 142.320233 
L 157.759716 143.305748 
L 158.097898 144.681703 
L 158.43608 144.519549 
L 158.774261 145.240951 
L 159.112443 143.606707 
L 159.450625 147.202116 
L 159.788807 147.401776 
L 160.126989 145.312951 
L 160.46517 147.788315 
L 160.803352 144.771762 
L 161.141534 147.864716 
L 161.479716 144.354608 
L 161.817898 149.00043 
L 162.15608 148.864368 
L 162.494261 147.326535 
L 162.832443 147.287939 
L 163.170625 149.193091 
L 163.508807 147.831455 
L 163.846989 148.825769 
L 164.18517 148.096776 
L 164.523352 148.745121 
L 164.861534 151.093129 
L 165.199716 147.222083 
L 165.537898 147.173949 
L 165.87608 149.684394 
L 166.214261 150.670233 
L 166.552443 150.083711 
L 166.890625 151.347509 
L 167.228807 149.72187 
L 167.566989 149.97145 
L 167.90517 152.818688 
L 168.243352 153.166956 
L 168.581534 151.635056 
L 168.919716 152.261085 
L 169.257898 150.388173 
L 169.59608 149.701996 
L 169.934261 148.135366 
L 170.272443 150.229807 
L 170.610625 149.605711 
L 171.286989 151.22725 
L 171.62517 150.754788 
L 171.963352 152.243257 
L 172.301534 151.654234 
L 172.639716 154.11977 
L 172.977898 155.048733 
L 173.31608 153.344866 
L 173.654261 153.231589 
L 173.992443 154.848303 
L 174.330625 153.800574 
L 174.668807 157.048832 
L 175.006989 156.893901 
L 175.34517 155.884159 
L 175.683352 156.207196 
L 176.359716 155.9323 
L 177.03608 160.584037 
L 177.374261 159.109185 
L 177.712443 160.133137 
L 178.050625 157.417522 
L 178.388807 158.294861 
L 178.726989 157.179436 
L 179.06517 156.74332 
L 179.403352 152.371756 
L 179.741534 154.608543 
L 180.079716 154.732663 
L 180.417898 156.74822 
L 180.75608 153.888262 
L 181.094261 153.0428 
L 181.432443 149.447487 
L 181.770625 149.480507 
L 182.108807 149.219328 
L 183.123352 154.868603 
L 183.461534 153.249777 
L 183.799716 154.622314 
L 184.137898 153.342076 
L 184.47608 153.92423 
L 184.814261 155.062312 
L 185.152443 156.883775 
L 185.490625 155.221922 
L 185.828807 156.801697 
L 186.50517 155.609429 
L 186.843352 154.116463 
L 187.519716 156.80764 
L 187.857898 155.756673 
L 188.19608 156.419443 
L 188.534261 154.641703 
L 188.872443 156.161499 
L 189.210625 154.121002 
L 189.548807 156.645991 
L 189.886989 155.529907 
L 190.22517 156.176916 
L 190.563352 155.396429 
L 190.901534 155.88568 
L 191.239716 155.259632 
L 191.577898 153.799706 
L 191.91608 154.311158 
L 192.254261 153.059434 
L 192.592443 154.648248 
L 192.930625 155.120642 
L 193.268807 153.132141 
L 193.606989 153.483931 
L 193.94517 154.04572 
L 194.283352 154.987186 
L 194.621534 154.816669 
L 195.297898 153.202575 
L 195.63608 153.916273 
L 195.974261 152.705682 
L 196.312443 152.166556 
L 196.650625 152.402338 
L 196.988807 152.180249 
L 197.326989 154.11953 
L 197.66517 152.016894 
L 198.003352 153.003526 
L 198.341534 151.826107 
L 198.679716 152.171399 
L 199.017898 153.165678 
L 199.35608 152.958836 
L 199.694261 151.2627 
L 200.032443 152.237006 
L 200.370625 152.790376 
L 201.046989 149.160309 
L 201.723352 150.86653 
L 202.061534 150.354096 
L 202.399716 149.479063 
L 202.737898 152.676587 
L 203.07608 151.047918 
L 203.414261 152.469854 
L 203.752443 152.266123 
L 204.090625 153.462899 
L 204.428807 154.069147 
L 204.766989 154.003291 
L 205.10517 154.910829 
L 205.781534 155.294215 
L 206.119716 154.960983 
L 206.457898 154.061296 
L 206.79608 155.470938 
L 207.134261 153.968602 
L 207.472443 153.381538 
L 207.810625 153.259493 
L 208.148807 154.500778 
L 208.486989 155.292109 
L 208.82517 154.850473 
L 209.163352 155.670758 
L 209.501534 154.673209 
L 209.839716 154.525595 
L 210.177898 155.551714 
L 210.51608 155.152165 
L 210.854261 155.936404 
L 211.192443 157.010189 
L 211.530625 156.050296 
L 211.868807 155.985973 
L 212.54517 156.386478 
L 212.883352 157.272418 
L 213.221534 156.749003 
L 213.559716 157.107192 
L 213.897898 157.119295 
L 214.23608 157.761971 
L 214.574261 157.134318 
L 214.912443 156.145483 
L 215.250625 158.606781 
L 215.588807 157.442978 
L 215.926989 157.059694 
L 216.26517 157.835689 
L 216.603352 157.316152 
L 217.279716 157.854228 
L 217.617898 159.260742 
L 217.95608 158.661202 
L 218.294261 158.869777 
L 218.632443 159.238682 
L 218.970625 160.284156 
L 219.308807 159.663591 
L 219.646989 159.433966 
L 219.98517 159.789577 
L 220.661534 159.882359 
L 220.999716 160.25701 
L 221.337898 161.289905 
L 221.67608 158.838544 
L 222.014261 159.924778 
L 222.352443 160.45698 
L 222.690625 160.777332 
L 223.028807 162.658706 
L 223.366989 162.11453 
L 223.70517 162.229981 
L 224.043352 160.98345 
L 224.381534 162.000164 
L 224.719716 163.379221 
L 225.057898 163.181533 
L 225.39608 163.880014 
L 225.734261 163.180675 
L 226.072443 162.92911 
L 226.748807 162.673332 
L 227.086989 164.01015 
L 227.42517 163.898086 
L 227.763352 163.587924 
L 228.101534 163.629103 
L 228.439716 164.448835 
L 228.777898 164.678214 
L 229.11608 165.504125 
L 229.454261 164.692579 
L 229.792443 166.342899 
L 230.130625 167.152715 
L 230.468807 165.965846 
L 230.806989 167.413876 
L 231.14517 166.665451 
L 231.483352 166.885093 
L 231.821534 166.510555 
L 232.497898 165.434706 
L 232.83608 165.631563 
L 233.174261 166.035931 
L 233.512443 165.705315 
L 234.188807 166.525807 
L 234.526989 166.210813 
L 234.86517 166.169597 
L 235.203352 166.418649 
L 235.541534 165.309747 
L 235.879716 165.436775 
L 236.217898 166.031096 
L 236.55608 165.914072 
L 236.894261 167.508869 
L 237.232443 166.783678 
L 237.570625 166.803441 
L 237.908807 166.419973 
L 238.246989 165.84882 
L 238.58517 166.801295 
L 238.923352 166.075255 
L 239.599716 167.123316 
L 239.937898 167.002987 
L 240.27608 167.874705 
L 240.614261 167.313398 
L 240.952443 168.063886 
L 241.628807 167.5642 
L 241.966989 168.792709 
L 242.30517 168.642832 
L 242.643352 167.815961 
L 242.981534 168.876404 
L 243.657898 169.44384 
L 243.99608 169.245245 
L 244.334261 169.40812 
L 244.672443 169.727721 
L 245.686989 169.380179 
L 246.02517 168.682531 
L 246.363352 168.772326 
L 246.701534 169.343754 
L 247.039716 168.172043 
L 247.377898 168.854283 
L 248.392443 169.872072 
L 248.730625 169.938352 
L 249.068807 169.719371 
L 249.406989 168.183161 
L 249.74517 169.845163 
L 250.083352 169.297504 
L 250.421534 170.613594 
L 251.43608 170.480542 
L 251.774261 170.525653 
L 252.112443 169.977587 
L 252.450625 170.364696 
L 252.788807 169.181846 
L 253.126989 170.062413 
L 253.46517 168.886077 
L 253.803352 169.394782 
L 254.141534 169.662922 
L 254.479716 170.145244 
L 254.817898 169.927706 
L 255.15608 170.004292 
L 255.494261 169.875281 
L 255.832443 168.776072 
L 256.170625 168.991334 
L 256.508807 170.365659 
L 256.846989 171.176641 
L 257.18517 171.202022 
L 257.523352 170.910612 
L 258.199716 170.81527 
L 258.537898 171.004884 
L 258.87608 170.949 
L 259.214261 171.33907 
L 259.552443 170.94787 
L 259.890625 171.197713 
L 260.228807 171.714517 
L 260.566989 171.475357 
L 260.90517 171.483979 
L 261.919716 171.036587 
L 262.257898 171.608698 
L 262.59608 171.845687 
L 262.934261 170.643028 
L 263.272443 170.670747 
L 263.610625 171.285834 
L 263.948807 170.540197 
L 264.286989 171.206933 
L 264.62517 171.295074 
L 264.963352 170.80643 
L 265.301534 170.955732 
L 265.639716 171.29138 
L 265.977898 171.91542 
L 266.31608 170.798087 
L 266.992443 172.396778 
L 267.330625 171.585403 
L 267.668807 171.605385 
L 268.006989 171.166604 
L 268.34517 172.321859 
L 268.683352 172.257516 
L 269.021534 173.085883 
L 269.697898 172.209607 
L 270.03608 172.172332 
L 270.374261 172.281268 
L 270.712443 172.82213 
L 271.388807 172.079089 
L 271.726989 172.578862 
L 272.06517 172.245953 
L 272.403352 172.597846 
L 272.741534 172.410781 
L 273.079716 172.673752 
L 273.417898 172.11368 
L 273.75608 172.760862 
L 274.094261 172.901058 
L 274.432443 172.8115 
L 274.770625 172.944725 
L 275.108807 172.884963 
L 275.446989 173.067699 
L 275.78517 172.387809 
L 276.123352 172.65821 
L 276.461534 172.570902 
L 276.799716 173.384998 
L 277.137898 172.353634 
L 277.47608 172.340497 
L 277.814261 172.085243 
L 278.490625 173.137002 
L 278.828807 172.492417 
L 279.50517 172.834667 
L 279.843352 172.629771 
L 280.181534 172.593443 
L 280.519716 172.907705 
L 280.857898 172.320619 
L 281.19608 172.453421 
L 281.534261 172.330282 
L 281.872443 172.595965 
L 282.210625 172.528293 
L 282.548807 172.861315 
L 282.886989 172.896261 
L 283.22517 173.496203 
L 283.901534 172.827251 
L 284.239716 173.139689 
L 284.577898 173.266205 
L 284.91608 173.642314 
L 285.254261 173.416752 
L 285.592443 172.83362 
L 285.930625 172.80055 
L 286.268807 172.93646 
L 286.606989 173.231901 
L 286.94517 173.197898 
L 287.283352 173.481921 
L 287.621534 173.240156 
L 288.63608 173.864126 
L 288.974261 173.678847 
L 289.312443 173.868298 
L 289.650625 173.729008 
L 289.988807 173.863457 
L 290.326989 173.579213 
L 290.66517 173.71759 
L 291.003352 173.392521 
L 291.341534 174.005318 
L 292.017898 174.1466 
L 292.35608 173.144914 
L 292.694261 173.671143 
L 293.370625 174.144585 
L 293.708807 174.019534 
L 294.046989 173.687268 
L 294.723352 174.288035 
L 295.061534 174.1292 
L 295.399716 174.242572 
L 295.737898 174.970998 
L 296.07608 174.148864 
L 296.414261 174.472383 
L 296.752443 173.912354 
L 297.090625 174.929903 
L 297.428807 174.810248 
L 297.766989 174.379742 
L 298.781534 173.893045 
L 299.119716 173.93676 
L 299.457898 174.381656 
L 300.134261 174.031575 
L 300.472443 173.335467 
L 300.810625 174.324617 
L 301.148807 174.571458 
L 301.486989 174.284473 
L 301.82517 175.075052 
L 302.163352 174.592264 
L 302.839716 174.200782 
L 303.177898 174.356521 
L 303.51608 174.179814 
L 303.854261 174.241436 
L 304.192443 174.705087 
L 304.530625 174.679353 
L 304.868807 175.121293 
L 305.206989 175.179036 
L 305.54517 174.430687 
L 305.883352 174.649242 
L 306.221534 175.257114 
L 306.559716 175.436165 
L 306.897898 175.287799 
L 307.23608 174.561613 
L 307.574261 174.723566 
L 307.912443 174.37005 
L 308.250625 174.652566 
L 308.588807 174.067515 
L 308.926989 174.41544 
L 309.26517 174.313536 
L 309.603352 173.964429 
L 309.941534 175.090529 
L 310.279716 174.400231 
L 310.617898 174.447379 
L 310.95608 174.233904 
L 311.294261 174.975875 
L 311.632443 174.326316 
L 311.970625 175.300385 
L 312.308807 174.82901 
L 312.98517 175.127618 
L 313.323352 174.705087 
L 313.661534 174.46174 
L 313.999716 174.729816 
L 314.337898 174.81318 
L 314.67608 175.237349 
L 315.014261 175.075744 
L 315.352443 175.140725 
L 315.690625 175.423618 
L 316.028807 175.255391 
L 316.366989 174.372277 
L 316.70517 175.023375 
L 317.719716 174.296632 
L 318.057898 174.415329 
L 318.39608 174.011729 
L 318.734261 173.923366 
L 319.072443 174.913864 
L 319.410625 174.884597 
L 319.748807 174.594898 
L 320.086989 175.163894 
L 320.42517 174.999425 
L 320.763352 174.408347 
L 321.101534 174.79119 
L 321.777898 174.39759 
L 322.11608 174.925129 
L 322.454261 175.055533 
L 323.468807 174.800814 
L 323.806989 174.936818 
L 324.14517 174.810069 
L 324.483352 174.461777 
L 324.821534 174.900441 
L 325.159716 174.840383 
L 325.497898 174.327729 
L 325.83608 174.398339 
L 326.174261 174.61807 
L 326.512443 174.995317 
L 326.850625 174.346549 
L 327.188807 174.179704 
L 327.86517 174.718233 
L 328.203352 174.316179 
L 328.541534 174.535876 
L 328.879716 174.370798 
L 329.217898 174.537744 
L 329.894261 175.518156 
L 330.232443 175.645277 
L 330.570625 175.611891 
L 330.908807 175.052068 
L 331.246989 174.974856 
L 331.58517 175.427324 
L 331.923352 175.271629 
L 332.261534 175.61701 
L 332.599716 175.247906 
L 332.937898 175.294735 
L 333.614261 175.89879 
L 333.952443 176.077742 
L 334.628807 175.413471 
L 334.966989 175.623908 
L 335.30517 175.198067 
L 335.981534 175.44581 
L 336.319716 175.927804 
L 336.657898 175.219054 
L 336.99608 175.687479 
L 337.334261 175.794876 
L 337.672443 175.43702 
L 338.010625 175.328583 
L 339.363352 175.825537 
L 339.701534 176.583016 
L 340.377898 176.896142 
L 341.054261 175.911554 
L 341.392443 176.351337 
L 341.730625 176.181965 
L 342.068807 175.349774 
L 342.406989 176.114277 
L 342.74517 176.114064 
L 343.083352 176.672723 
L 343.759716 176.794847 
L 344.097898 176.325163 
L 344.43608 176.152382 
L 344.774261 176.214148 
L 345.112443 176.505449 
L 345.450625 176.472516 
L 345.788807 176.315092 
L 346.126989 176.027412 
L 346.46517 175.987551 
L 346.803352 176.178034 
L 347.479716 175.706594 
L 347.817898 175.723933 
L 348.15608 175.382591 
L 348.832443 176.010723 
L 349.170625 176.041978 
L 349.846989 175.815828 
L 350.18517 175.496626 
L 350.523352 175.553821 
L 350.861534 175.759455 
L 351.537898 175.844381 
L 351.87608 175.513322 
L 352.214261 175.601948 
L 352.552443 175.865583 
L 352.890625 175.970531 
L 353.566989 175.09015 
L 353.90517 174.097807 
L 354.243352 173.960914 
L 354.581534 175.204017 
L 354.919716 175.655793 
L 355.257898 175.423121 
L 355.59608 175.631669 
L 355.934261 175.399722 
L 356.610625 176.051574 
L 356.948807 175.853567 
L 357.286989 175.970963 
L 357.62517 175.320615 
L 357.963352 175.441648 
L 358.639716 174.876387 
L 358.977898 174.870139 
L 359.31608 175.364116 
L 359.654261 174.282222 
L 359.992443 175.180443 
L 360.330625 175.13155 
L 360.668807 173.969377 
L 361.006989 174.97548 
L 361.34517 175.185995 
L 361.683352 175.592498 
L 362.021534 174.224 
L 362.359716 174.801255 
L 362.697898 174.91318 
L 363.03608 174.655643 
L 363.712443 175.51598 
L 364.050625 174.805268 
L 364.388807 174.946519 
L 364.726989 174.673955 
L 365.06517 175.576337 
L 365.403352 175.910655 
L 366.079716 174.921067 
L 366.417898 175.43875 
L 366.75608 174.862004 
L 367.094261 175.643429 
L 367.432443 175.346209 
L 367.770625 175.821889 
L 368.108807 175.425669 
L 368.78517 175.266382 
L 369.123352 175.036475 
L 369.461534 175.681982 
L 370.47608 174.957426 
L 370.814261 175.009111 
L 371.152443 175.237253 
L 371.490625 175.090847 
L 371.828807 175.476843 
L 372.166989 175.38795 
L 372.50517 175.687296 
L 372.843352 175.334876 
L 373.181534 175.78399 
L 373.519716 175.347002 
L 373.857898 175.32446 
L 374.19608 175.159546 
L 374.534261 175.583069 
L 374.872443 175.228515 
L 375.210625 176.02991 
L 375.548807 175.340675 
L 375.886989 175.748797 
L 376.22517 175.759824 
L 376.563352 175.502586 
L 376.901534 175.409135 
L 377.239716 175.853548 
L 377.577898 175.920658 
L 378.254261 175.379425 
L 378.592443 176.221307 
L 378.930625 175.55776 
L 379.268807 175.671852 
L 379.606989 176.33195 
L 380.621534 175.693488 
L 380.959716 175.451603 
L 381.297898 176.452433 
L 381.63608 176.21655 
L 381.974261 176.977168 
L 382.312443 175.887416 
L 382.650625 176.256904 
L 382.988807 176.362777 
L 383.326989 175.833331 
L 384.003352 175.793318 
L 384.341534 176.410457 
L 384.679716 176.010869 
L 385.017898 175.973294 
L 385.694261 175.635988 
L 386.032443 175.867813 
L 386.370625 175.84295 
L 387.046989 176.308433 
L 387.38517 176.530575 
L 387.723352 175.556151 
L 388.061534 176.013475 
L 388.399716 176.017003 
L 388.737898 176.345195 
L 389.07608 175.139508 
L 389.752443 175.377084 
L 390.090625 175.782979 
L 390.428807 175.4227 
L 390.766989 175.800744 
L 391.10517 175.668727 
L 391.443352 175.788994 
L 391.781534 175.527982 
L 392.457898 175.857657 
L 393.810625 175.85444 
L 394.148807 175.697297 
L 394.486989 176.20142 
L 395.163352 175.237599 
L 395.501534 175.776461 
L 396.177898 175.51335 
L 396.51608 175.51361 
L 396.854261 175.284847 
L 397.192443 175.988658 
L 397.530625 175.15682 
L 397.868807 175.828069 
L 398.206989 175.4534 
L 398.54517 175.76782 
L 399.559716 175.604725 
L 399.897898 175.797928 
L 400.23608 175.773003 
L 400.574261 175.578627 
L 400.912443 175.859677 
L 401.250625 175.333468 
L 401.588807 175.829719 
L 401.926989 175.65768 
L 402.603352 175.757424 
L 402.941534 176.020463 
L 403.279716 175.659318 
L 403.617898 175.960948 
L 403.95608 175.952687 
L 404.294261 176.320597 
L 404.632443 175.984955 
L 404.970625 176.126386 
L 405.308807 175.913653 
L 405.646989 175.519525 
L 405.98517 175.791608 
L 406.323352 175.351093 
L 406.661534 175.282828 
L 406.999716 175.970826 
L 407.337898 175.400552 
L 407.67608 175.178384 
L 408.014261 175.532004 
L 408.352443 175.700844 
L 409.028807 175.876546 
L 409.366989 175.29351 
L 410.381534 175.80121 
L 410.719716 175.731596 
L 411.057898 176.07433 
L 411.39608 175.832862 
L 412.072443 175.590428 
L 412.410625 175.82564 
L 412.748807 175.881331 
L 413.086989 176.103466 
L 413.42517 175.817807 
L 414.101534 175.589772 
L 415.11608 175.276529 
L 415.454261 174.986334 
L 416.468807 175.154045 
L 416.806989 174.90375 
L 417.14517 175.098655 
L 417.483352 174.969489 
L 417.821534 175.503733 
L 418.159716 174.699281 
L 418.497898 174.830775 
L 418.83608 174.606166 
L 419.174261 174.633752 
L 419.512443 174.794433 
L 419.850625 175.391126 
L 420.188807 174.277606 
L 421.203352 174.969307 
L 421.541534 174.620509 
L 421.879716 174.539502 
L 422.217898 174.604974 
L 422.55608 174.23742 
L 422.894261 174.810782 
L 423.232443 175.007167 
L 423.570625 174.51024 
L 423.908807 174.737232 
L 424.58517 174.761644 
L 424.923352 174.322663 
L 425.261534 174.866683 
L 425.937898 174.71044 
L 426.27608 174.335361 
L 426.614261 174.262668 
L 426.952443 174.890004 
L 427.290625 174.503134 
L 427.628807 174.750501 
L 427.966989 174.163995 
L 428.30517 175.057433 
L 428.981534 175.289857 
L 429.99608 175.032269 
L 430.672443 174.917818 
L 431.010625 175.166812 
L 431.348807 174.878764 
L 431.686989 174.897581 
L 432.363352 175.763753 
L 432.701534 175.513465 
L 433.039716 176.060368 
L 433.377898 175.325711 
L 433.71608 175.853369 
L 434.392443 174.817698 
L 434.730625 175.369934 
L 435.068807 174.990136 
L 435.406989 175.154369 
L 435.74517 175.499432 
L 436.083352 175.659211 
L 436.421534 175.602143 
L 437.097898 175.101298 
L 437.43608 175.393486 
L 437.774261 175.477245 
L 438.112443 175.193113 
L 438.450625 175.065682 
L 438.788807 175.310346 
L 439.126989 175.089074 
L 439.46517 174.589455 
L 439.803352 175.020915 
L 440.141534 174.789942 
L 440.479716 175.170339 
L 440.817898 174.946715 
L 442.170625 174.91047 
L 442.846989 175.034176 
L 443.523352 174.7419 
L 443.861534 175.353119 
L 444.199716 174.799489 
L 444.537898 175.076352 
L 444.87608 175.054057 
L 445.214261 175.155637 
L 445.552443 175.007391 
L 446.566989 175.080506 
L 446.90517 175.45836 
L 447.243352 175.097267 
L 447.581534 175.103046 
L 447.919716 174.84033 
L 448.59608 175.588443 
L 448.934261 175.226543 
L 449.610625 175.090935 
L 449.948807 175.331811 
L 450.963352 175.065495 
L 451.301534 175.659041 
L 451.639716 174.817642 
L 451.977898 175.154506 
L 452.992443 175.271672 
L 453.330625 175.981782 
L 454.34517 175.099164 
L 454.683352 175.10675 
L 455.021534 174.819697 
L 455.359716 175.458157 
L 455.697898 175.075811 
L 456.03608 175.090511 
L 456.374261 174.59064 
L 457.388807 175.066074 
L 457.726989 174.907704 
L 458.06517 175.031484 
L 458.403352 174.974791 
L 458.741534 175.370817 
L 459.079716 175.277961 
L 459.417898 175.574394 
L 459.75608 175.621487 
L 460.432443 175.01501 
L 460.770625 175.226884 
L 461.108807 175.197485 
L 461.446989 175.563862 
L 462.123352 175.056835 
L 462.461534 175.087308 
L 463.137898 176.028915 
L 463.47608 175.482654 
L 464.152443 175.421469 
L 464.490625 175.655308 
L 464.828807 175.350954 
L 465.166989 175.284323 
L 465.50517 175.867679 
L 465.843352 175.623143 
L 466.181534 175.74287 
L 466.519716 176.090551 
L 466.857898 175.536243 
L 467.19608 175.437969 
L 467.534261 175.585184 
L 468.210625 175.407295 
L 468.548807 175.396844 
L 468.886989 175.512791 
L 469.22517 175.506006 
L 469.563352 175.677124 
L 470.239716 175.620495 
L 470.577898 175.912077 
L 470.91608 175.748044 
L 471.254261 175.907883 
L 471.592443 175.842888 
L 471.930625 175.570896 
L 472.268807 175.719322 
L 472.606989 175.366759 
L 472.94517 175.554968 
L 473.621534 175.619115 
L 473.959716 175.734084 
L 474.63608 175.418141 
L 474.974261 175.665256 
L 475.312443 175.42406 
L 475.650625 175.678868 
L 475.988807 175.794127 
L 476.326989 175.439307 
L 476.66517 175.374074 
L 477.341534 175.81214 
L 477.679716 175.170856 
L 478.35608 176.05492 
L 478.694261 175.800837 
L 479.032443 176.17742 
L 479.370625 176.098905 
L 479.708807 175.668089 
L 480.046989 175.762785 
L 481.061534 175.407749 
L 481.399716 175.401051 
L 481.737898 175.14226 
L 482.07608 175.453254 
L 482.414261 175.296474 
L 483.428807 175.843262 
L 484.10517 175.359082 
L 484.443352 175.553939 
L 484.781534 175.953125 
L 485.119716 175.649579 
L 485.457898 175.86551 
L 485.79608 175.538244 
L 486.134261 175.60639 
L 486.472443 175.239481 
L 487.148807 175.029724 
L 487.486989 175.358277 
L 487.82517 175.38395 
L 488.163352 175.705881 
L 488.839716 175.534206 
L 489.51608 175.979912 
L 489.854261 175.951493 
L 490.192443 175.451366 
L 490.530625 175.692163 
L 490.868807 175.154082 
L 491.206989 175.62435 
L 491.54517 175.801177 
L 492.221534 175.250213 
L 492.559716 175.269055 
L 492.897898 175.004577 
L 493.23608 175.243714 
L 493.912443 175.222212 
L 494.250625 174.925321 
L 494.588807 175.719609 
L 494.926989 175.018409 
L 495.26517 174.866172 
L 495.941534 175.126445 
L 496.95608 175.063008 
L 497.294261 175.164063 
L 497.632443 175.082637 
L 497.970625 174.753869 
L 498.308807 175.529251 
L 498.646989 174.745589 
L 498.98517 175.200306 
L 499.323352 174.640105 
L 499.999716 174.773496 
L 500.337898 174.628807 
L 500.67608 174.816999 
L 501.014261 174.320973 
L 501.352443 174.891058 
L 501.690625 174.758141 
L 502.028807 175.333721 
L 502.366989 174.615325 
L 502.70517 174.957255 
L 503.043352 174.519125 
L 503.381534 174.369485 
L 503.719716 174.547141 
L 504.057898 174.596875 
L 504.39608 174.871741 
L 504.734261 174.476228 
L 505.748807 174.865028 
L 506.086989 174.663183 
L 506.42517 174.300513 
L 506.763352 174.332176 
L 507.101534 174.122625 
L 507.439716 174.063657 
L 507.777898 174.617358 
L 508.454261 174.055997 
L 508.792443 174.793337 
L 509.130625 174.703346 
L 509.806989 173.79846 
L 510.14517 174.224563 
L 510.483352 173.957166 
L 510.821534 174.163236 
L 511.159716 174.076515 
L 511.497898 174.60678 
L 511.83608 174.63188 
L 512.174261 174.09173 
L 512.512443 174.231991 
L 512.850625 174.029099 
L 513.526989 174.196165 
L 513.86517 173.860625 
L 514.203352 174.039714 
L 514.541534 174.080424 
L 514.879716 174.535802 
L 515.217898 174.68288 
L 515.55608 174.496243 
L 516.570625 174.624444 
L 516.908807 175.370094 
L 517.246989 175.459105 
L 517.58517 175.062151 
L 517.923352 175.70813 
L 518.261534 175.378239 
L 518.599716 175.605805 
L 518.937898 175.415055 
L 519.27608 175.426081 
L 519.614261 175.671406 
L 520.628807 175.141591 
L 520.966989 175.120498 
L 521.30517 175.228699 
L 521.981534 175.126698 
L 522.319716 175.180075 
L 522.657898 175.114895 
L 522.99608 175.495082 
L 523.334261 175.249774 
L 524.010625 175.353477 
L 524.348807 175.104242 
L 524.686989 175.302763 
L 525.02517 175.137802 
L 525.363352 175.286 
L 525.701534 174.993177 
L 526.039716 175.069556 
L 526.377898 174.911829 
L 526.71608 175.487017 
L 527.054261 175.348699 
L 527.392443 174.875487 
L 527.730625 175.107768 
L 528.068807 175.009889 
L 528.406989 175.148257 
L 528.74517 174.844329 
L 529.083352 174.962495 
L 529.421534 174.917892 
L 529.759716 174.723767 
L 530.097898 175.071114 
L 530.43608 175.143572 
L 531.112443 174.715026 
L 531.450625 174.857994 
L 532.126989 174.403719 
L 533.141534 174.587568 
L 533.479716 174.70854 
L 533.817898 174.958381 
L 534.15608 174.865504 
L 534.494261 175.156834 
L 535.170625 174.812023 
L 535.508807 175.153412 
L 535.846989 174.694456 
L 536.18517 175.073319 
L 536.523352 174.532314 
L 537.199716 174.548813 
L 537.537898 174.19441 
L 537.87608 174.577263 
L 538.214261 174.607275 
L 538.890625 174.430975 
L 539.566989 174.944196 
L 539.90517 174.943773 
L 540.243352 175.128253 
L 540.581534 174.756729 
L 540.919716 174.867139 
L 541.257898 174.271487 
L 541.934261 174.795752 
L 542.272443 174.594237 
L 542.610625 174.686828 
L 542.948807 174.967619 
L 543.62517 175.112421 
L 543.963352 174.799983 
L 544.639716 175.050415 
L 544.977898 174.966384 
L 545.654261 175.142008 
L 545.992443 174.940542 
L 546.330625 174.901938 
L 546.668807 175.041994 
L 547.006989 174.448311 
L 547.34517 174.955053 
L 547.683352 174.588529 
L 548.021534 174.582603 
L 548.359716 175.09925 
L 548.697898 174.769751 
L 549.03608 174.624125 
L 549.374261 174.763725 
L 550.388807 174.804461 
L 550.726989 174.839987 
L 551.06517 175.24804 
L 551.403352 174.811241 
L 551.741534 174.790241 
L 552.079716 174.615793 
L 552.417898 175.098092 
L 552.75608 174.706094 
L 553.094261 175.053526 
L 554.108807 174.658289 
L 554.78517 175.04318 
L 555.123352 174.987099 
L 555.799716 174.469332 
L 556.137898 174.094224 
L 557.152443 174.711585 
L 557.490625 174.852807 
L 558.166989 174.893967 
L 558.50517 174.348255 
L 559.181534 174.325425 
L 559.519716 174.577391 
L 559.857898 174.499028 
L 560.19608 174.940602 
L 560.534261 174.680428 
L 560.872443 174.775048 
L 561.210625 174.083276 
L 561.548807 174.597451 
L 561.886989 174.431522 
L 562.22517 174.893013 
L 562.563352 175.00367 
L 562.901534 174.67851 
L 563.239716 174.998638 
L 563.577898 175.097126 
L 563.91608 174.55285 
L 564.254261 174.432433 
L 564.592443 174.880158 
L 564.930625 174.638881 
L 565.268807 174.889929 
L 565.606989 175.365795 
L 565.94517 174.846776 
L 566.283352 175.294389 
L 566.621534 175.221588 
L 566.959716 175.351925 
L 567.63608 174.967717 
L 567.974261 174.865309 
L 568.312443 175.17812 
L 568.650625 174.70866 
L 568.988807 175.115616 
L 569.326989 175.295787 
L 570.003352 175.296309 
L 570.679716 175.137059 
L 571.017898 175.597111 
L 571.35608 175.39247 
L 571.694261 175.470972 
L 572.032443 175.22056 
L 572.370625 175.179252 
L 572.708807 175.262955 
L 573.046989 175.028791 
L 573.38517 175.606401 
L 573.723352 175.388649 
L 574.061534 174.96081 
L 574.399716 175.232376 
L 574.737898 175.022308 
L 575.07608 175.253861 
L 575.414261 174.939458 
L 575.752443 174.826633 
L 576.090625 175.216153 
L 576.428807 175.147765 
L 576.766989 175.453132 
L 577.443352 175.185711 
L 577.781534 175.289441 
L 578.119716 174.992861 
L 578.457898 175.043686 
L 578.79608 174.870666 
L 579.472443 175.337491 
L 579.810625 174.688911 
L 580.148807 174.941765 
L 580.486989 175.380579 
L 580.82517 174.959569 
L 581.163352 175.218896 
L 581.501534 174.785331 
L 581.839716 174.960916 
L 582.177898 174.774772 
L 583.192443 175.375697 
L 583.530625 174.951433 
L 584.206989 174.723969 
L 584.54517 174.871619 
L 584.883352 174.747094 
L 585.221534 174.815317 
L 585.559716 175.238504 
L 585.897898 175.158214 
L 586.23608 175.248126 
L 586.574261 175.016585 
L 586.912443 175.042835 
L 587.250625 174.643303 
L 587.588807 175.422416 
L 587.926989 175.322629 
L 588.26517 175.09364 
L 588.603352 175.064613 
L 588.941534 175.203828 
L 589.279716 174.96301 
L 589.617898 175.07807 
L 589.95608 175.620663 
L 590.294261 175.166139 
L 590.632443 175.048569 
L 591.308807 175.248919 
L 591.646989 175.615296 
L 592.661534 175.100458 
L 592.999716 175.251338 
L 593.337898 175.545411 
L 593.67608 175.364173 
L 594.352443 175.672359 
L 595.028807 175.086736 
L 595.366989 175.632781 
L 596.043352 176.064291 
L 596.381534 175.514316 
L 596.719716 175.343734 
L 597.057898 174.895813 
L 597.39608 175.439754 
L 597.734261 175.14674 
L 598.072443 175.634281 
L 598.410625 175.039696 
L 598.748807 174.964348 
L 599.086989 175.69932 
L 599.42517 175.296152 
L 599.763352 175.337905 
L 600.439716 175.951326 
L 600.777898 175.600356 
L 601.11608 175.888594 
L 601.454261 175.617654 
L 601.792443 175.871485 
L 602.468807 175.363879 
L 602.806989 175.649272 
L 603.14517 175.56723 
L 603.483352 175.802924 
L 604.159716 174.882236 
L 604.497898 175.344673 
L 605.174261 175.385966 
L 605.512443 175.078017 
L 605.850625 175.473733 
L 606.188807 175.124845 
L 606.526989 175.283917 
L 606.86517 175.792895 
L 607.203352 175.597265 
L 607.541534 175.173999 
L 608.55608 175.756028 
L 608.894261 175.554913 
L 609.232443 175.763851 
L 609.570625 175.301956 
L 610.246989 175.408335 
L 610.58517 175.208986 
L 610.923352 175.588446 
L 611.599716 175.480746 
L 611.937898 175.678893 
L 612.614261 175.479779 
L 612.952443 175.592575 
L 613.290625 175.331644 
L 613.628807 175.474381 
L 613.966989 175.473202 
L 614.30517 175.676392 
L 614.643352 175.311062 
L 614.981534 175.55298 
L 615.319716 175.239088 
L 615.657898 175.580171 
L 615.99608 175.507804 
L 616.334261 175.763151 
L 616.672443 175.576982 
L 617.010625 175.615082 
L 617.348807 175.856428 
L 617.686989 175.758517 
L 618.02517 176.070196 
L 618.363352 175.663719 
L 618.701534 175.762353 
L 619.039716 176.021927 
L 619.71608 175.72439 
L 620.392443 175.81963 
L 620.730625 175.614079 
L 621.068807 175.777816 
L 622.421534 175.618249 
L 622.759716 175.885414 
L 623.097898 175.545019 
L 623.43608 175.940653 
L 623.774261 175.450501 
L 624.112443 175.797207 
L 624.450625 175.852539 
L 625.126989 175.214069 
L 625.126989 175.214069 
" clip-path="url(#pcff90421db)" style="fill: none; stroke: #1f77b4; stroke-width: 1.5; stroke-linecap: square"/>
   </g>
   <g id="line2d_15">
    <path d="M 117.854261 283.817858 
L 118.192443 296.03625 
L 118.530625 270.616898 
L 118.868807 261.343127 
L 119.206989 266.675624 
L 119.54517 254.3987 
L 119.883352 253.78483 
L 120.221534 234.718979 
L 120.559716 243.174054 
L 120.897898 233.622601 
L 121.23608 255.831372 
L 121.574261 226.820111 
L 121.912443 231.623087 
L 122.250625 222.755458 
L 122.588807 237.090497 
L 122.926989 221.800231 
L 123.26517 220.580769 
L 123.603352 239.851293 
L 123.941534 218.690556 
L 124.279716 208.012777 
L 124.617898 213.077702 
L 124.95608 203.210023 
L 125.294261 204.36703 
L 125.632443 200.127711 
L 125.970625 197.699217 
L 126.308807 197.009593 
L 126.646989 192.778947 
L 126.98517 193.284367 
L 127.661534 190.032498 
L 127.999716 190.98049 
L 128.337898 192.754977 
L 128.67608 191.632475 
L 129.352443 187.702186 
L 129.690625 186.31986 
L 130.028807 189.750291 
L 130.366989 188.198746 
L 130.70517 189.00049 
L 131.043352 189.320823 
L 131.381534 185.316259 
L 132.057898 184.835969 
L 132.39608 185.979726 
L 132.734261 188.292898 
L 133.072443 184.413948 
L 133.410625 186.018381 
L 133.748807 185.564117 
L 134.086989 183.829002 
L 134.42517 185.263654 
L 134.763352 184.827063 
L 135.101534 185.642403 
L 135.439716 185.081576 
L 135.777898 185.318168 
L 136.11608 184.356218 
L 136.454261 183.054028 
L 136.792443 183.091849 
L 137.130625 181.620767 
L 137.468807 181.838532 
L 137.806989 182.869973 
L 138.14517 182.690779 
L 138.483352 182.28129 
L 138.821534 180.870267 
L 139.159716 183.116401 
L 139.83608 184.052396 
L 140.174261 184.34861 
L 140.512443 182.464961 
L 141.188807 182.093607 
L 141.526989 184.792872 
L 141.86517 183.634699 
L 142.203352 183.261662 
L 142.541534 184.624761 
L 142.879716 183.487667 
L 143.217898 184.04581 
L 143.55608 182.432324 
L 143.894261 182.812326 
L 144.232443 182.662128 
L 144.570625 182.709696 
L 144.908807 182.390061 
L 145.246989 182.933603 
L 145.58517 185.113963 
L 145.923352 183.825193 
L 146.261534 181.5119 
L 146.599716 182.332163 
L 146.937898 182.657852 
L 147.27608 183.310738 
L 147.614261 183.531447 
L 147.952443 183.308215 
L 148.290625 183.62141 
L 148.628807 184.483335 
L 148.966989 183.45188 
L 149.643352 184.197178 
L 149.981534 183.120905 
L 150.319716 182.57126 
L 150.657898 183.383851 
L 150.99608 182.947738 
L 151.334261 183.167254 
L 151.672443 183.694203 
L 152.010625 183.057892 
L 152.348807 183.707169 
L 152.686989 182.282464 
L 153.02517 184.110702 
L 153.363352 183.132366 
L 153.701534 184.305063 
L 154.039716 182.879901 
L 154.377898 183.550493 
L 155.054261 183.501126 
L 155.392443 182.388915 
L 155.730625 182.417677 
L 156.068807 182.173322 
L 156.406989 183.391072 
L 157.083352 182.940126 
L 157.421534 182.46022 
L 157.759716 182.325477 
L 158.097898 181.724674 
L 158.43608 181.502345 
L 159.112443 182.799914 
L 159.788807 182.042545 
L 160.126989 182.333771 
L 160.46517 181.160114 
L 160.803352 183.896472 
L 161.141534 182.550055 
L 161.479716 182.064496 
L 161.817898 181.125233 
L 162.15608 181.238594 
L 162.494261 182.004937 
L 162.832443 182.161104 
L 163.170625 181.414516 
L 163.508807 182.304203 
L 163.846989 181.874481 
L 164.18517 181.798224 
L 164.523352 181.982022 
L 164.861534 181.109051 
L 165.199716 182.125077 
L 165.537898 182.440727 
L 166.214261 181.187696 
L 166.552443 181.751393 
L 166.890625 181.583518 
L 167.228807 182.175445 
L 167.566989 183.160066 
L 167.90517 182.022578 
L 168.243352 181.400837 
L 168.919716 182.736279 
L 169.257898 182.132305 
L 169.59608 183.201044 
L 169.934261 183.390734 
L 170.272443 183.243412 
L 170.610625 181.991815 
L 171.286989 182.274377 
L 171.62517 183.17882 
L 171.963352 183.428812 
L 172.301534 183.886167 
L 172.639716 182.608761 
L 172.977898 183.712115 
L 173.654261 183.277566 
L 173.992443 183.511026 
L 175.006989 183.633084 
L 175.34517 183.299605 
L 175.683352 183.783579 
L 176.021534 183.910268 
L 176.697898 184.92944 
L 177.03608 183.203228 
L 177.374261 183.314599 
L 177.712443 184.512217 
L 178.050625 183.829892 
L 178.388807 184.829618 
L 178.726989 183.795532 
L 179.403352 181.114258 
L 180.079716 183.511928 
L 180.417898 183.577943 
L 180.75608 183.326592 
L 181.094261 182.786861 
L 181.432443 183.101856 
L 181.770625 182.860106 
L 182.108807 182.896584 
L 182.446989 183.097378 
L 182.78517 182.191737 
L 183.123352 183.797359 
L 183.461534 182.707522 
L 183.799716 182.50586 
L 184.137898 183.114747 
L 184.47608 182.718723 
L 184.814261 182.923467 
L 185.152443 182.183745 
L 185.490625 183.353683 
L 185.828807 182.7453 
L 186.166989 183.01248 
L 186.50517 183.68453 
L 186.843352 181.987794 
L 187.519716 183.064775 
L 187.857898 183.524069 
L 188.19608 183.241964 
L 188.534261 183.384202 
L 188.872443 183.856913 
L 189.210625 184.648702 
L 189.548807 182.602124 
L 189.886989 183.351471 
L 190.22517 182.881703 
L 190.563352 182.699623 
L 190.901534 182.807006 
L 192.254261 184.604789 
L 192.592443 184.052045 
L 192.930625 183.243903 
L 193.268807 184.052092 
L 193.94517 183.603225 
L 194.283352 183.57647 
L 194.621534 184.190813 
L 194.959716 183.846776 
L 195.297898 183.1117 
L 195.63608 183.575398 
L 195.974261 183.826855 
L 196.312443 183.216567 
L 196.650625 183.100553 
L 196.988807 183.61975 
L 197.326989 183.712894 
L 197.66517 183.597435 
L 198.003352 182.929186 
L 198.341534 183.970208 
L 198.679716 183.329715 
L 199.35608 183.487367 
L 199.694261 184.025893 
L 200.032443 183.355025 
L 200.708807 184.172635 
L 201.046989 183.89308 
L 201.38517 184.720582 
L 201.723352 185.250018 
L 202.061534 183.991193 
L 202.399716 180.264595 
L 202.737898 179.379729 
L 203.07608 179.979928 
L 203.414261 179.808172 
L 203.752443 179.831676 
L 204.090625 180.597556 
L 204.428807 180.60864 
L 204.766989 181.204994 
L 205.10517 180.571995 
L 205.443352 180.389812 
L 205.781534 180.927543 
L 206.119716 181.159789 
L 206.457898 180.95655 
L 206.79608 181.658681 
L 207.134261 181.65998 
L 207.472443 181.207524 
L 207.810625 181.268454 
L 208.148807 181.946299 
L 208.486989 181.462368 
L 208.82517 181.327931 
L 209.163352 181.405739 
L 209.501534 181.830208 
L 209.839716 181.243396 
L 210.177898 181.198737 
L 210.51608 181.023432 
L 210.854261 181.396091 
L 211.192443 180.38087 
L 211.530625 181.313379 
L 211.868807 180.376577 
L 212.206989 180.39457 
L 212.54517 181.042059 
L 212.883352 180.401476 
L 213.221534 180.903968 
L 213.559716 181.080735 
L 213.897898 180.79097 
L 214.574261 181.338014 
L 214.912443 181.292395 
L 215.250625 181.127015 
L 215.588807 181.168368 
L 215.926989 180.728198 
L 216.26517 181.203847 
L 216.941534 180.210731 
L 217.95608 181.131196 
L 218.294261 180.356829 
L 219.308807 181.13129 
L 219.646989 180.48727 
L 219.98517 181.316777 
L 220.323352 180.843416 
L 220.661534 181.182363 
L 220.999716 181.339458 
L 221.337898 180.784706 
L 221.67608 180.901468 
L 222.014261 180.547993 
L 222.352443 180.537567 
L 222.690625 181.04459 
L 223.028807 180.596105 
L 223.70517 180.738678 
L 224.043352 181.393769 
L 224.381534 180.752169 
L 224.719716 180.657503 
L 225.057898 180.737657 
L 225.39608 181.107062 
L 225.734261 180.712911 
L 226.410625 181.124472 
L 226.748807 180.84352 
L 227.086989 181.219557 
L 227.42517 180.44609 
L 227.763352 181.06896 
L 228.101534 181.178658 
L 228.439716 180.837517 
L 228.777898 181.300394 
L 229.11608 181.567467 
L 229.454261 181.012683 
L 229.792443 181.07599 
L 230.130625 180.666583 
L 230.468807 180.522667 
L 230.806989 180.75596 
L 231.14517 180.732957 
L 231.483352 181.094926 
L 232.159716 180.734951 
L 232.497898 180.631432 
L 232.83608 180.665116 
L 233.512443 181.598188 
L 233.850625 180.864201 
L 234.188807 180.568699 
L 234.526989 180.707393 
L 234.86517 181.512054 
L 235.879716 181.481038 
L 236.217898 181.815024 
L 236.55608 181.333635 
L 236.894261 181.233244 
L 237.232443 180.895049 
L 237.570625 181.152924 
L 237.908807 181.111089 
L 238.58517 181.190319 
L 238.923352 181.018222 
L 239.261534 181.32288 
L 239.599716 181.040865 
L 239.937898 181.211261 
L 240.27608 180.891106 
L 240.614261 181.268086 
L 240.952443 181.388344 
L 241.290625 181.081676 
L 241.628807 181.037959 
L 241.966989 180.683913 
L 242.30517 181.45284 
L 242.643352 181.600966 
L 242.981534 180.824199 
L 243.319716 180.767479 
L 243.657898 181.045496 
L 243.99608 180.946243 
L 244.334261 180.980867 
L 244.672443 180.565906 
L 245.010625 181.129756 
L 245.348807 180.275914 
L 245.686989 180.746793 
L 246.363352 180.556783 
L 246.701534 180.362598 
L 247.039716 180.4968 
L 247.377898 180.354044 
L 247.71608 180.75142 
L 248.054261 180.748254 
L 248.392443 180.873944 
L 248.730625 180.736618 
L 249.068807 181.217443 
L 249.406989 180.804086 
L 249.74517 180.653515 
L 250.083352 181.057363 
L 250.421534 180.652628 
L 250.759716 180.766028 
L 251.097898 181.346359 
L 251.43608 180.19628 
L 251.774261 180.998391 
L 252.450625 180.976858 
L 252.788807 180.774304 
L 253.46517 181.364204 
L 253.803352 180.015446 
L 254.479716 181.177205 
L 254.817898 180.721899 
L 255.15608 180.500829 
L 255.494261 180.702456 
L 256.170625 176.307169 
L 256.508807 177.511804 
L 256.846989 177.385175 
L 257.18517 177.852736 
L 257.861534 178.433903 
L 258.199716 178.181649 
L 258.537898 178.338894 
L 258.87608 178.111825 
L 259.214261 178.553982 
L 259.552443 178.428131 
L 259.890625 178.580703 
L 260.228807 178.411208 
L 260.566989 178.595047 
L 260.90517 178.583323 
L 261.243352 178.704573 
L 261.581534 178.524822 
L 262.59608 179.340203 
L 262.934261 178.721279 
L 263.272443 179.195154 
L 263.610625 178.863247 
L 264.286989 178.904504 
L 264.963352 179.17992 
L 265.301534 178.598338 
L 265.639716 178.499958 
L 265.977898 178.959039 
L 266.31608 178.914453 
L 266.654261 178.258735 
L 266.992443 178.66337 
L 267.330625 178.254882 
L 267.668807 178.706815 
L 268.006989 178.492793 
L 268.34517 178.803644 
L 268.683352 178.574321 
L 269.021534 178.670493 
L 269.359716 178.526605 
L 269.697898 178.608478 
L 270.03608 179.052171 
L 270.374261 178.470828 
L 271.050625 178.955696 
L 271.726989 179.056176 
L 272.06517 178.722849 
L 272.403352 179.108168 
L 273.079716 179.04044 
L 273.417898 179.339111 
L 273.75608 178.821481 
L 274.094261 178.828895 
L 274.432443 178.372158 
L 275.108807 179.071322 
L 275.446989 178.823105 
L 276.461534 178.854966 
L 276.799716 178.638637 
L 277.47608 179.102823 
L 277.814261 178.935124 
L 278.152443 178.629359 
L 278.490625 179.069866 
L 278.828807 179.27838 
L 279.166989 179.042123 
L 279.50517 178.640631 
L 279.843352 178.912032 
L 280.519716 179.065539 
L 280.857898 178.941235 
L 281.19608 179.1502 
L 281.534261 179.023144 
L 281.872443 179.363355 
L 282.210625 178.954135 
L 282.548807 178.992939 
L 282.886989 179.443323 
L 283.22517 179.645349 
L 283.563352 178.806777 
L 283.901534 179.401296 
L 284.577898 178.679273 
L 284.91608 179.34932 
L 285.254261 179.115861 
L 285.592443 179.583493 
L 285.930625 179.197347 
L 286.606989 178.990594 
L 286.94517 179.357427 
L 287.621534 179.506311 
L 287.959716 179.485305 
L 288.297898 178.780965 
L 288.63608 179.151367 
L 288.974261 179.013556 
L 289.312443 179.135437 
L 289.988807 179.042252 
L 290.326989 179.472047 
L 290.66517 179.219821 
L 291.003352 179.364226 
L 291.341534 179.358175 
L 291.679716 179.004647 
L 292.017898 179.014748 
L 292.35608 179.397583 
L 292.694261 178.693202 
L 293.370625 179.419855 
L 294.046989 178.889672 
L 294.38517 178.929942 
L 294.723352 179.249873 
L 295.061534 179.169529 
L 295.399716 178.710206 
L 295.737898 179.049115 
L 296.414261 178.837573 
L 296.752443 178.79757 
L 297.090625 178.966607 
L 297.428807 178.738942 
L 297.766989 179.272193 
L 298.10517 178.8278 
L 298.443352 178.895308 
L 298.781534 179.253174 
L 299.457898 179.440098 
L 299.79608 179.186068 
L 300.472443 179.265858 
L 300.810625 179.092749 
L 301.148807 179.164606 
L 301.486989 178.955908 
L 301.82517 178.881991 
L 302.163352 178.564917 
L 302.501534 178.695836 
L 302.839716 179.29003 
L 303.177898 179.437605 
L 303.51608 178.950038 
L 304.868807 179.195519 
L 305.206989 179.007149 
L 306.221534 179.42847 
L 306.559716 178.795757 
L 306.897898 178.69425 
L 307.574261 179.310704 
L 307.912443 178.856549 
L 308.250625 178.975556 
L 308.588807 179.433609 
L 308.926989 179.442179 
L 309.26517 178.94465 
L 309.941534 178.815202 
L 310.95608 178.477733 
L 311.294261 178.114107 
L 311.632443 178.64986 
L 311.970625 178.578177 
L 312.308807 179.115575 
L 312.646989 178.742501 
L 312.98517 178.53909 
L 313.323352 178.845721 
L 313.661534 178.880085 
L 313.999716 179.131845 
L 314.337898 178.54065 
L 315.352443 178.706631 
L 315.690625 178.630018 
L 316.028807 178.677452 
L 316.366989 178.434561 
L 316.70517 179.006029 
L 317.043352 178.741302 
L 317.381534 179.194279 
L 317.719716 179.260951 
L 318.057898 179.191975 
L 318.39608 178.984786 
L 318.734261 179.185696 
L 319.410625 179.056956 
L 319.748807 179.137147 
L 320.086989 179.05843 
L 320.42517 178.759519 
L 320.763352 179.310868 
L 321.101534 178.868002 
L 321.439716 178.694117 
L 322.11608 178.9388 
L 322.454261 178.571324 
L 322.792443 179.132231 
L 323.130625 179.162256 
L 323.468807 178.782115 
L 323.806989 178.882387 
L 324.14517 178.708396 
L 324.483352 178.844637 
L 324.821534 178.779997 
L 325.159716 179.182431 
L 326.174261 178.875146 
L 326.512443 179.323337 
L 326.850625 179.191612 
L 327.188807 179.233337 
L 327.526989 179.028099 
L 327.86517 179.215886 
L 328.203352 178.892683 
L 328.541534 178.952811 
L 328.879716 178.803125 
L 330.232443 179.240258 
L 330.570625 179.068686 
L 330.908807 178.660861 
L 331.246989 178.658637 
L 331.58517 178.895783 
L 331.923352 178.579373 
L 332.599716 178.4952 
L 332.937898 178.801094 
L 333.27608 178.906604 
L 333.614261 178.386062 
L 334.628807 178.324831 
L 334.966989 178.630576 
L 335.643352 178.467981 
L 335.981534 178.548062 
L 336.319716 178.874228 
L 336.99608 178.417217 
L 337.334261 178.742675 
L 338.010625 178.235246 
L 338.686989 178.685491 
L 339.02517 178.603752 
L 339.363352 178.646164 
L 340.039716 178.342603 
L 340.377898 178.461334 
L 340.71608 178.215457 
L 341.054261 178.496797 
L 341.392443 178.551274 
L 341.730625 178.449548 
L 342.068807 178.600133 
L 343.083352 178.732442 
L 343.421534 179.012389 
L 343.759716 178.867877 
L 344.097898 178.586218 
L 344.43608 178.706716 
L 344.774261 179.022021 
L 345.112443 178.855143 
L 345.788807 179.334006 
L 346.126989 178.04463 
L 346.46517 178.856063 
L 346.803352 179.220334 
L 347.141534 178.730664 
L 347.479716 179.094774 
L 347.817898 178.792007 
L 348.15608 178.785669 
L 348.494261 178.992825 
L 348.832443 178.877804 
L 350.861534 178.995964 
L 351.87608 178.571518 
L 352.214261 178.878843 
L 352.552443 178.876594 
L 352.890625 178.7059 
L 353.228807 178.674572 
L 353.566989 178.451724 
L 353.90517 177.283083 
L 354.243352 177.517113 
L 354.581534 178.409482 
L 354.919716 178.541538 
L 355.257898 178.504045 
L 355.59608 178.165852 
L 355.934261 178.367274 
L 356.272443 179.048832 
L 356.610625 179.06605 
L 356.948807 178.751179 
L 357.286989 178.59141 
L 357.62517 178.136257 
L 357.963352 178.453629 
L 358.301534 178.395558 
L 358.639716 178.06291 
L 358.977898 178.169817 
L 359.31608 178.550845 
L 359.654261 178.260967 
L 359.992443 178.422489 
L 360.330625 178.437498 
L 360.668807 178.20868 
L 361.006989 177.831384 
L 361.34517 178.375971 
L 361.683352 177.778779 
L 362.021534 176.356567 
L 362.697898 177.258387 
L 363.03608 177.304316 
L 364.050625 177.717315 
L 364.726989 177.815701 
L 365.06517 177.507966 
L 365.741534 177.424103 
L 366.079716 177.490708 
L 366.75608 177.292338 
L 367.432443 178.300794 
L 367.770625 178.085515 
L 368.108807 178.436069 
L 368.446989 178.042457 
L 368.78517 177.006199 
L 369.123352 177.608689 
L 369.461534 177.794829 
L 369.799716 177.650742 
L 370.137898 178.096042 
L 370.47608 177.845612 
L 371.152443 177.919014 
L 371.828807 178.002204 
L 372.166989 177.627559 
L 372.50517 178.074846 
L 372.843352 178.063833 
L 373.519716 177.697961 
L 373.857898 177.852067 
L 374.19608 178.157186 
L 374.534261 177.888062 
L 374.872443 178.266098 
L 375.210625 178.081566 
L 375.548807 177.563687 
L 375.886989 177.630044 
L 376.22517 177.948154 
L 376.563352 177.919448 
L 376.901534 177.460672 
L 377.239716 177.940087 
L 377.577898 177.907446 
L 378.254261 177.149796 
L 378.930625 178.086275 
L 379.268807 177.875391 
L 379.606989 177.827473 
L 379.94517 177.428997 
L 380.283352 177.707046 
L 380.621534 177.796431 
L 380.959716 177.61867 
L 381.297898 177.743852 
L 381.63608 178.210744 
L 381.974261 178.235982 
L 382.312443 177.858813 
L 382.650625 178.153955 
L 383.326989 178.032912 
L 383.66517 177.874922 
L 384.003352 178.017389 
L 384.341534 177.795975 
L 385.017898 178.158146 
L 385.35608 177.61645 
L 385.694261 178.124577 
L 386.032443 177.874549 
L 386.370625 177.902825 
L 386.708807 177.655145 
L 387.046989 177.823791 
L 388.061534 177.543045 
L 388.399716 177.943777 
L 388.737898 177.654174 
L 389.414261 178.014056 
L 389.752443 177.767172 
L 390.090625 178.061381 
L 390.428807 178.012416 
L 391.10517 177.784691 
L 391.443352 177.890452 
L 391.781534 177.582448 
L 392.119716 178.045734 
L 392.457898 177.688063 
L 393.134261 177.795479 
L 393.472443 177.781499 
L 393.810625 178.085286 
L 394.486989 177.866619 
L 395.163352 177.575934 
L 395.501534 178.207843 
L 395.839716 177.68741 
L 396.177898 177.646399 
L 396.51608 177.996321 
L 396.854261 178.155769 
L 397.192443 177.779382 
L 397.530625 177.581883 
L 398.206989 177.728854 
L 398.54517 177.601826 
L 398.883352 177.299808 
L 399.221534 177.720555 
L 399.559716 177.771553 
L 399.897898 177.986081 
L 400.23608 177.917202 
L 400.574261 178.056569 
L 400.912443 177.881752 
L 401.250625 178.013289 
L 401.588807 177.845746 
L 402.603352 178.000163 
L 403.279716 178.09435 
L 404.632443 178.028538 
L 404.970625 177.575061 
L 405.308807 177.903325 
L 406.323352 177.92304 
L 406.661534 178.296702 
L 406.999716 177.536041 
L 407.67608 178.299139 
L 408.352443 177.597842 
L 408.690625 177.571086 
L 409.028807 178.083496 
L 409.366989 177.795569 
L 409.70517 178.260632 
L 410.043352 177.783564 
L 410.381534 177.63248 
L 410.719716 177.853258 
L 411.057898 177.876817 
L 411.39608 178.025955 
L 411.734261 178.30027 
L 412.072443 177.978471 
L 412.410625 178.253196 
L 412.748807 178.281086 
L 413.086989 177.919674 
L 413.42517 177.731118 
L 413.763352 178.128675 
L 414.101534 177.977383 
L 414.439716 177.955703 
L 415.11608 177.571691 
L 415.454261 177.732882 
L 415.792443 177.715864 
L 416.130625 177.523051 
L 416.468807 177.942678 
L 417.14517 177.802956 
L 418.159716 177.785892 
L 418.497898 177.602954 
L 419.174261 177.613392 
L 419.512443 177.858624 
L 419.850625 177.713087 
L 420.188807 178.067712 
L 420.526989 178.040431 
L 420.86517 177.677158 
L 421.203352 177.98925 
L 421.541534 178.460061 
L 422.217898 177.764607 
L 422.894261 177.900637 
L 423.232443 177.608285 
L 423.570625 177.506282 
L 423.908807 177.830049 
L 424.246989 177.85087 
L 424.58517 178.206318 
L 424.923352 177.991505 
L 426.614261 177.904066 
L 426.952443 177.609825 
L 427.290625 177.935633 
L 427.966989 177.593403 
L 428.30517 178.000685 
L 428.643352 177.477818 
L 428.981534 177.196323 
L 429.319716 177.346474 
L 429.657898 177.253075 
L 430.334261 177.796553 
L 431.010625 177.323836 
L 431.686989 177.705141 
L 432.02517 177.616126 
L 432.363352 177.672933 
L 432.701534 177.425612 
L 433.377898 177.67359 
L 433.71608 177.478151 
L 434.392443 177.493176 
L 434.730625 177.631309 
L 435.406989 177.351125 
L 435.74517 177.683864 
L 436.083352 177.323841 
L 436.759716 177.793755 
L 437.097898 177.534712 
L 437.43608 177.61511 
L 437.774261 177.548197 
L 438.112443 177.778557 
L 438.450625 177.545677 
L 438.788807 177.855182 
L 439.126989 177.636581 
L 439.46517 177.696012 
L 439.803352 177.174064 
L 440.141534 177.704685 
L 440.479716 177.760027 
L 440.817898 177.226968 
L 441.494261 177.536344 
L 442.170625 177.571081 
L 442.508807 177.639889 
L 442.846989 177.566215 
L 443.18517 177.108226 
L 443.523352 177.259375 
L 443.861534 177.267482 
L 444.199716 177.559062 
L 444.537898 177.52698 
L 444.87608 177.324201 
L 445.552443 177.3596 
L 446.566989 177.391282 
L 446.90517 177.669879 
L 447.243352 177.393594 
L 447.581534 177.417006 
L 447.919716 177.634143 
L 448.257898 177.420856 
L 448.934261 177.795727 
L 449.272443 177.478947 
L 449.610625 177.79415 
L 449.948807 177.415404 
L 450.286989 177.603085 
L 450.62517 177.194883 
L 451.301534 177.503105 
L 451.639716 177.498209 
L 451.977898 177.725308 
L 452.31608 177.256331 
L 452.654261 177.579251 
L 453.668807 177.829098 
L 454.34517 177.239961 
L 454.683352 177.373218 
L 455.021534 177.19942 
L 455.697898 177.382436 
L 456.03608 177.04825 
L 456.374261 177.5372 
L 458.06517 177.143614 
L 458.403352 177.187188 
L 458.741534 177.487592 
L 459.079716 177.445601 
L 459.417898 177.517355 
L 460.094261 177.051098 
L 460.432443 177.264154 
L 460.770625 177.21569 
L 461.108807 177.617506 
L 461.446989 177.284331 
L 462.123352 177.568931 
L 462.799716 177.4427 
L 463.137898 177.565758 
L 463.47608 177.27728 
L 463.814261 177.314649 
L 464.152443 177.464521 
L 465.166989 177.313854 
L 465.50517 177.39347 
L 465.843352 177.308063 
L 466.181534 177.620741 
L 466.519716 177.496708 
L 466.857898 177.524718 
L 467.19608 177.423802 
L 467.872443 177.515055 
L 468.210625 177.21551 
L 468.548807 177.41034 
L 468.886989 177.216722 
L 469.563352 177.224484 
L 469.901534 177.536705 
L 470.239716 177.447248 
L 470.91608 177.447939 
L 471.592443 177.199634 
L 471.930625 177.384945 
L 472.268807 177.292905 
L 472.606989 177.413947 
L 472.94517 177.333702 
L 473.621534 177.562299 
L 473.959716 177.384449 
L 474.297898 177.542955 
L 474.63608 177.431033 
L 475.988807 177.627174 
L 476.326989 177.363271 
L 476.66517 177.372632 
L 477.003352 177.205327 
L 477.341534 177.38526 
L 477.679716 177.076211 
L 478.35608 177.444314 
L 478.694261 177.242951 
L 479.032443 177.368122 
L 479.370625 177.080414 
L 479.708807 177.347099 
L 480.38517 177.026433 
L 480.723352 177.1768 
L 481.399716 177.028097 
L 481.737898 177.100126 
L 482.07608 176.972115 
L 482.414261 177.068654 
L 482.752443 177.494952 
L 483.090625 177.185032 
L 483.766989 177.385306 
L 484.10517 177.107246 
L 484.443352 177.406274 
L 484.781534 177.221372 
L 485.457898 177.105469 
L 485.79608 177.211271 
L 486.134261 177.109471 
L 486.472443 177.313174 
L 486.810625 176.91902 
L 487.148807 177.240559 
L 487.82517 177.207394 
L 488.163352 177.375151 
L 488.501534 177.170007 
L 489.177898 177.225124 
L 489.51608 177.471201 
L 489.854261 177.145233 
L 492.221534 177.050052 
L 492.559716 177.525836 
L 492.897898 177.563772 
L 493.23608 176.77707 
L 493.574261 176.928335 
L 494.250625 177.011568 
L 494.588807 176.757037 
L 494.926989 176.67573 
L 495.603352 176.974521 
L 495.941534 176.730409 
L 496.279716 176.669991 
L 496.617898 176.937863 
L 496.95608 176.909039 
L 497.294261 176.561085 
L 497.632443 176.808391 
L 497.970625 176.852271 
L 498.308807 177.077189 
L 498.646989 176.76503 
L 499.661534 176.91867 
L 499.999716 176.801559 
L 500.67608 176.914031 
L 501.014261 177.053432 
L 501.352443 177.036548 
L 501.690625 176.672695 
L 502.366989 177.09383 
L 502.70517 177.426862 
L 503.043352 177.204336 
L 503.381534 176.790725 
L 503.719716 176.658547 
L 504.057898 176.8656 
L 504.39608 176.747908 
L 504.734261 176.796739 
L 505.072443 177.162728 
L 505.410625 176.704809 
L 506.086989 176.827744 
L 506.42517 176.720319 
L 507.101534 176.943031 
L 507.439716 176.754891 
L 507.777898 176.98803 
L 508.11608 176.82597 
L 508.454261 176.938219 
L 508.792443 177.172628 
L 509.806989 176.919058 
L 510.14517 177.09385 
L 510.483352 176.848367 
L 510.821534 176.937287 
L 511.159716 176.841954 
L 511.497898 177.060215 
L 512.850625 177.360961 
L 513.188807 177.000992 
L 513.526989 177.068446 
L 513.86517 176.961793 
L 514.879716 177.234087 
L 515.217898 177.019088 
L 515.894261 176.947948 
L 516.570625 176.827865 
L 516.908807 176.868111 
L 517.58517 177.343572 
L 517.923352 176.639358 
L 518.261534 176.952866 
L 518.599716 176.885712 
L 518.937898 177.198339 
L 519.614261 177.086263 
L 520.966989 177.078116 
L 521.30517 176.935333 
L 521.643352 177.421 
L 522.319716 176.864784 
L 522.657898 177.185512 
L 522.99608 177.292385 
L 523.672443 177.291676 
L 524.348807 177.48032 
L 524.686989 177.014991 
L 525.02517 177.421508 
L 525.363352 176.837506 
L 526.039716 176.948537 
L 526.377898 177.083945 
L 526.71608 177.063255 
L 527.392443 176.688769 
L 527.730625 176.87413 
L 528.406989 176.824708 
L 528.74517 177.080654 
L 529.083352 176.883058 
L 529.421534 177.150074 
L 529.759716 176.822227 
L 530.097898 177.220801 
L 530.774261 176.885472 
L 531.112443 176.948225 
L 531.788807 176.838725 
L 533.141534 177.030155 
L 533.479716 177.113192 
L 534.832443 176.941307 
L 535.170625 177.216422 
L 535.508807 177.0715 
L 535.846989 176.749692 
L 537.199716 176.855799 
L 537.537898 177.302895 
L 537.87608 176.702194 
L 538.552443 176.879696 
L 539.228807 177.262478 
L 539.566989 176.891439 
L 539.90517 177.086103 
L 540.243352 176.939443 
L 540.581534 177.08215 
L 540.919716 176.91568 
L 541.257898 177.140695 
L 541.59608 176.564308 
L 541.934261 176.748101 
L 542.272443 176.632991 
L 542.948807 177.228868 
L 543.286989 176.968957 
L 543.963352 177.000699 
L 544.301534 177.046369 
L 544.639716 176.915792 
L 545.654261 177.028881 
L 545.992443 176.815194 
L 546.668807 177.193528 
L 547.683352 177.066771 
L 548.021534 176.776171 
L 548.359716 177.009432 
L 549.374261 176.754545 
L 549.712443 176.834474 
L 550.050625 176.553647 
L 550.388807 176.598635 
L 551.06517 177.233792 
L 551.403352 177.087655 
L 551.741534 176.686539 
L 552.079716 176.834051 
L 552.417898 176.625862 
L 552.75608 176.904345 
L 554.108807 176.846643 
L 554.446989 176.918835 
L 554.78517 176.798165 
L 555.123352 177.016373 
L 555.461534 176.801931 
L 555.799716 176.802418 
L 556.137898 177.06533 
L 556.47608 176.845681 
L 557.152443 177.282223 
L 557.490625 177.389364 
L 557.828807 176.890125 
L 558.50517 176.64128 
L 558.843352 176.832643 
L 559.181534 176.721689 
L 559.519716 177.003486 
L 559.857898 176.964232 
L 560.19608 176.348124 
L 560.534261 176.464538 
L 560.872443 176.862491 
L 561.210625 177.009542 
L 561.548807 176.900509 
L 561.886989 177.085592 
L 562.22517 176.882199 
L 562.563352 176.952801 
L 563.239716 176.884267 
L 563.577898 176.61444 
L 564.592443 177.117157 
L 565.268807 176.311826 
L 565.94517 176.567716 
L 566.283352 176.409771 
L 566.621534 176.425195 
L 566.959716 176.705677 
L 567.297898 176.38355 
L 567.63608 176.461522 
L 567.974261 176.353858 
L 568.312443 176.847341 
L 568.650625 176.674799 
L 569.326989 176.709777 
L 569.66517 176.535212 
L 570.003352 176.666492 
L 570.341534 176.617644 
L 570.679716 176.806423 
L 571.017898 176.691997 
L 571.35608 176.78729 
L 571.694261 176.601672 
L 572.032443 176.617892 
L 572.370625 176.421578 
L 572.708807 176.646928 
L 573.046989 176.509849 
L 573.38517 176.540546 
L 573.723352 176.748245 
L 574.061534 176.409655 
L 575.414261 176.671167 
L 575.752443 176.257026 
L 576.090625 176.622751 
L 576.428807 176.509147 
L 577.10517 176.78122 
L 577.443352 176.550826 
L 577.781534 176.768006 
L 578.119716 176.527554 
L 578.457898 176.716134 
L 578.79608 176.537919 
L 579.134261 176.826295 
L 579.472443 176.697354 
L 579.810625 176.723795 
L 580.148807 176.905307 
L 580.486989 176.580067 
L 580.82517 176.968965 
L 581.163352 176.963992 
L 582.177898 176.447719 
L 582.51608 176.91135 
L 583.192443 176.756639 
L 583.868807 176.761863 
L 584.54517 176.006868 
L 586.23608 176.770917 
L 586.574261 176.614227 
L 586.912443 176.312562 
L 587.588807 177.040576 
L 588.26517 176.38258 
L 588.941534 176.734414 
L 589.617898 176.713965 
L 589.95608 176.83896 
L 590.294261 176.527204 
L 590.632443 176.967047 
L 591.308807 176.916944 
L 591.646989 176.64275 
L 592.323352 176.79026 
L 593.337898 176.735619 
L 593.67608 176.893738 
L 594.014261 176.885846 
L 594.352443 176.603605 
L 594.690625 177.128598 
L 595.028807 176.585898 
L 595.366989 176.673675 
L 596.043352 176.610445 
L 596.381534 176.342576 
L 596.719716 176.415824 
L 597.057898 176.636933 
L 597.39608 176.340258 
L 597.734261 176.518017 
L 598.410625 176.594589 
L 598.748807 176.850843 
L 599.42517 176.578251 
L 599.763352 176.715695 
L 600.439716 176.601723 
L 600.777898 176.91697 
L 601.11608 176.716238 
L 601.454261 176.655579 
L 601.792443 176.919993 
L 602.130625 176.610525 
L 603.483352 176.988822 
L 603.821534 176.840042 
L 604.159716 176.490836 
L 604.497898 176.542949 
L 604.83608 176.479016 
L 605.174261 176.676515 
L 605.512443 176.434875 
L 606.526989 176.635202 
L 606.86517 176.422845 
L 607.203352 176.695154 
L 608.217898 176.524661 
L 608.55608 176.725904 
L 608.894261 176.648795 
L 609.232443 176.758361 
L 609.570625 176.658182 
L 610.246989 176.832937 
L 610.923352 176.535208 
L 611.261534 176.672264 
L 611.937898 176.393898 
L 612.27608 176.631772 
L 612.614261 176.693014 
L 613.290625 176.476422 
L 613.628807 176.699574 
L 613.966989 176.346537 
L 614.30517 176.598905 
L 614.643352 176.490328 
L 614.981534 176.642498 
L 615.319716 176.612602 
L 615.657898 176.466617 
L 616.334261 176.518245 
L 616.672443 176.467739 
L 617.010625 176.610102 
L 617.686989 176.356529 
L 618.02517 176.628227 
L 618.363352 176.433142 
L 618.701534 176.416927 
L 619.039716 176.708532 
L 619.71608 176.57261 
L 620.054261 176.773502 
L 620.392443 176.595481 
L 620.730625 176.545123 
L 621.068807 176.710602 
L 621.406989 176.562824 
L 622.421534 176.748896 
L 622.759716 176.856836 
L 623.097898 176.791274 
L 623.43608 176.498647 
L 623.774261 176.47585 
L 624.112443 176.786986 
L 624.450625 176.687765 
L 625.126989 176.898503 
L 625.126989 176.898503 
" clip-path="url(#pcff90421db)" style="fill: none; stroke: #ff7f0e; stroke-width: 1.5; stroke-linecap: square"/>
   </g>
   <g id="patch_3">
    <path d="M 92.490625 308.63625 
L 92.490625 31.43625 
" style="fill: none; stroke: #000000; stroke-width: 0.8; stroke-linejoin: miter; stroke-linecap: square"/>
   </g>
   <g id="patch_4">
    <path d="M 650.490625 308.63625 
L 650.490625 31.43625 
" style="fill: none; stroke: #000000; stroke-width: 0.8; stroke-linejoin: miter; stroke-linecap: square"/>
   </g>
   <g id="patch_5">
    <path d="M 92.490625 308.63625 
L 650.490625 308.63625 
" style="fill: none; stroke: #000000; stroke-width: 0.8; stroke-linejoin: miter; stroke-linecap: square"/>
   </g>
   <g id="patch_6">
    <path d="M 92.490625 31.43625 
L 650.490625 31.43625 
" style="fill: none; stroke: #000000; stroke-width: 0.8; stroke-linejoin: miter; stroke-linecap: square"/>
   </g>
   <g id="text_16">
    <!-- Generator and Discriminator Loss During Training -->
    <g transform="translate(74.258125 25.43625) scale(0.24 -0.24)">
     <defs>
      <path id="DejaVuSans-47" d="M 3809 666 
L 3809 1919 
L 2778 1919 
L 2778 2438 
L 4434 2438 
L 4434 434 
Q 4069 175 3628 42 
Q 3188 -91 2688 -91 
Q 1594 -91 976 548 
Q 359 1188 359 2328 
Q 359 3472 976 4111 
Q 1594 4750 2688 4750 
Q 3144 4750 3555 4637 
Q 3966 4525 4313 4306 
L 4313 3634 
Q 3963 3931 3569 4081 
Q 3175 4231 2741 4231 
Q 1884 4231 1454 3753 
Q 1025 3275 1025 2328 
Q 1025 1384 1454 906 
Q 1884 428 2741 428 
Q 3075 428 3337 486 
Q 3600 544 3809 666 
z
" transform="scale(0.015625)"/>
      <path id="DejaVuSans-20" transform="scale(0.015625)"/>
      <path id="DejaVuSans-64" d="M 2906 2969 
L 2906 4863 
L 3481 4863 
L 3481 0 
L 2906 0 
L 2906 525 
Q 2725 213 2448 61 
Q 2172 -91 1784 -91 
Q 1150 -91 751 415 
Q 353 922 353 1747 
Q 353 2572 751 3078 
Q 1150 3584 1784 3584 
Q 2172 3584 2448 3432 
Q 2725 3281 2906 2969 
z
M 947 1747 
Q 947 1113 1208 752 
Q 1469 391 1925 391 
Q 2381 391 2643 752 
Q 2906 1113 2906 1747 
Q 2906 2381 2643 2742 
Q 2381 3103 1925 3103 
Q 1469 3103 1208 2742 
Q 947 2381 947 1747 
z
" transform="scale(0.015625)"/>
      <path id="DejaVuSans-44" d="M 1259 4147 
L 1259 519 
L 2022 519 
Q 2988 519 3436 956 
Q 3884 1394 3884 2338 
Q 3884 3275 3436 3711 
Q 2988 4147 2022 4147 
L 1259 4147 
z
M 628 4666 
L 1925 4666 
Q 3281 4666 3915 4102 
Q 4550 3538 4550 2338 
Q 4550 1131 3912 565 
Q 3275 0 1925 0 
L 628 0 
L 628 4666 
z
" transform="scale(0.015625)"/>
      <path id="DejaVuSans-63" d="M 3122 3366 
L 3122 2828 
Q 2878 2963 2633 3030 
Q 2388 3097 2138 3097 
Q 1578 3097 1268 2742 
Q 959 2388 959 1747 
Q 959 1106 1268 751 
Q 1578 397 2138 397 
Q 2388 397 2633 464 
Q 2878 531 3122 666 
L 3122 134 
Q 2881 22 2623 -34 
Q 2366 -91 2075 -91 
Q 1284 -91 818 406 
Q 353 903 353 1747 
Q 353 2603 823 3093 
Q 1294 3584 2113 3584 
Q 2378 3584 2631 3529 
Q 2884 3475 3122 3366 
z
" transform="scale(0.015625)"/>
      <path id="DejaVuSans-6d" d="M 3328 2828 
Q 3544 3216 3844 3400 
Q 4144 3584 4550 3584 
Q 5097 3584 5394 3201 
Q 5691 2819 5691 2113 
L 5691 0 
L 5113 0 
L 5113 2094 
Q 5113 2597 4934 2840 
Q 4756 3084 4391 3084 
Q 3944 3084 3684 2787 
Q 3425 2491 3425 1978 
L 3425 0 
L 2847 0 
L 2847 2094 
Q 2847 2600 2669 2842 
Q 2491 3084 2119 3084 
Q 1678 3084 1418 2786 
Q 1159 2488 1159 1978 
L 1159 0 
L 581 0 
L 581 3500 
L 1159 3500 
L 1159 2956 
Q 1356 3278 1631 3431 
Q 1906 3584 2284 3584 
Q 2666 3584 2933 3390 
Q 3200 3197 3328 2828 
z
" transform="scale(0.015625)"/>
      <path id="DejaVuSans-75" d="M 544 1381 
L 544 3500 
L 1119 3500 
L 1119 1403 
Q 1119 906 1312 657 
Q 1506 409 1894 409 
Q 2359 409 2629 706 
Q 2900 1003 2900 1516 
L 2900 3500 
L 3475 3500 
L 3475 0 
L 2900 0 
L 2900 538 
Q 2691 219 2414 64 
Q 2138 -91 1772 -91 
Q 1169 -91 856 284 
Q 544 659 544 1381 
z
M 1991 3584 
L 1991 3584 
z
" transform="scale(0.015625)"/>
      <path id="DejaVuSans-67" d="M 2906 1791 
Q 2906 2416 2648 2759 
Q 2391 3103 1925 3103 
Q 1463 3103 1205 2759 
Q 947 2416 947 1791 
Q 947 1169 1205 825 
Q 1463 481 1925 481 
Q 2391 481 2648 825 
Q 2906 1169 2906 1791 
z
M 3481 434 
Q 3481 -459 3084 -895 
Q 2688 -1331 1869 -1331 
Q 1566 -1331 1297 -1286 
Q 1028 -1241 775 -1147 
L 775 -588 
Q 1028 -725 1275 -790 
Q 1522 -856 1778 -856 
Q 2344 -856 2625 -561 
Q 2906 -266 2906 331 
L 2906 616 
Q 2728 306 2450 153 
Q 2172 0 1784 0 
Q 1141 0 747 490 
Q 353 981 353 1791 
Q 353 2603 747 3093 
Q 1141 3584 1784 3584 
Q 2172 3584 2450 3431 
Q 2728 3278 2906 2969 
L 2906 3500 
L 3481 3500 
L 3481 434 
z
" transform="scale(0.015625)"/>
      <path id="DejaVuSans-54" d="M -19 4666 
L 3928 4666 
L 3928 4134 
L 2272 4134 
L 2272 0 
L 1638 0 
L 1638 4134 
L -19 4134 
L -19 4666 
z
" transform="scale(0.015625)"/>
     </defs>
     <use xlink:href="#DejaVuSans-47"/>
     <use xlink:href="#DejaVuSans-65" x="77.490234"/>
     <use xlink:href="#DejaVuSans-6e" x="139.013672"/>
     <use xlink:href="#DejaVuSans-65" x="202.392578"/>
     <use xlink:href="#DejaVuSans-72" x="263.916016"/>
     <use xlink:href="#DejaVuSans-61" x="305.029297"/>
     <use xlink:href="#DejaVuSans-74" x="366.308594"/>
     <use xlink:href="#DejaVuSans-6f" x="405.517578"/>
     <use xlink:href="#DejaVuSans-72" x="466.699219"/>
     <use xlink:href="#DejaVuSans-20" x="507.8125"/>
     <use xlink:href="#DejaVuSans-61" x="539.599609"/>
     <use xlink:href="#DejaVuSans-6e" x="600.878906"/>
     <use xlink:href="#DejaVuSans-64" x="664.257812"/>
     <use xlink:href="#DejaVuSans-20" x="727.734375"/>
     <use xlink:href="#DejaVuSans-44" x="759.521484"/>
     <use xlink:href="#DejaVuSans-69" x="836.523438"/>
     <use xlink:href="#DejaVuSans-73" x="864.306641"/>
     <use xlink:href="#DejaVuSans-63" x="916.40625"/>
     <use xlink:href="#DejaVuSans-72" x="971.386719"/>
     <use xlink:href="#DejaVuSans-69" x="1012.5"/>
     <use xlink:href="#DejaVuSans-6d" x="1040.283203"/>
     <use xlink:href="#DejaVuSans-69" x="1137.695312"/>
     <use xlink:href="#DejaVuSans-6e" x="1165.478516"/>
     <use xlink:href="#DejaVuSans-61" x="1228.857422"/>
     <use xlink:href="#DejaVuSans-74" x="1290.136719"/>
     <use xlink:href="#DejaVuSans-6f" x="1329.345703"/>
     <use xlink:href="#DejaVuSans-72" x="1390.527344"/>
     <use xlink:href="#DejaVuSans-20" x="1431.640625"/>
     <use xlink:href="#DejaVuSans-4c" x="1463.427734"/>
     <use xlink:href="#DejaVuSans-6f" x="1517.390625"/>
     <use xlink:href="#DejaVuSans-73" x="1578.572266"/>
     <use xlink:href="#DejaVuSans-73" x="1630.671875"/>
     <use xlink:href="#DejaVuSans-20" x="1682.771484"/>
     <use xlink:href="#DejaVuSans-44" x="1714.558594"/>
     <use xlink:href="#DejaVuSans-75" x="1791.560547"/>
     <use xlink:href="#DejaVuSans-72" x="1854.939453"/>
     <use xlink:href="#DejaVuSans-69" x="1896.052734"/>
     <use xlink:href="#DejaVuSans-6e" x="1923.835938"/>
     <use xlink:href="#DejaVuSans-67" x="1987.214844"/>
     <use xlink:href="#DejaVuSans-20" x="2050.691406"/>
     <use xlink:href="#DejaVuSans-54" x="2082.478516"/>
     <use xlink:href="#DejaVuSans-72" x="2128.8125"/>
     <use xlink:href="#DejaVuSans-61" x="2169.925781"/>
     <use xlink:href="#DejaVuSans-69" x="2231.205078"/>
     <use xlink:href="#DejaVuSans-6e" x="2258.988281"/>
     <use xlink:href="#DejaVuSans-69" x="2322.367188"/>
     <use xlink:href="#DejaVuSans-6e" x="2350.150391"/>
     <use xlink:href="#DejaVuSans-67" x="2413.529297"/>
    </g>
   </g>
   <g id="legend_1">
    <g id="patch_7">
     <path d="M 556.99375 106.14875 
L 636.490625 106.14875 
Q 640.490625 106.14875 640.490625 102.14875 
L 640.490625 45.43625 
Q 640.490625 41.43625 636.490625 41.43625 
L 556.99375 41.43625 
Q 552.99375 41.43625 552.99375 45.43625 
L 552.99375 102.14875 
Q 552.99375 106.14875 556.99375 106.14875 
z
" style="fill: #ffffff; opacity: 0.8; stroke: #cccccc; stroke-linejoin: miter"/>
    </g>
    <g id="line2d_16">
     <path d="M 560.99375 57.633125 
L 580.99375 57.633125 
L 600.99375 57.633125 
" style="fill: none; stroke: #1f77b4; stroke-width: 1.5; stroke-linecap: square"/>
    </g>
    <g id="text_17">
     <!-- G -->
     <g transform="translate(616.99375 64.633125) scale(0.2 -0.2)">
      <use xlink:href="#DejaVuSans-47"/>
     </g>
    </g>
    <g id="line2d_17">
     <path d="M 560.99375 86.989375 
L 580.99375 86.989375 
L 600.99375 86.989375 
" style="fill: none; stroke: #ff7f0e; stroke-width: 1.5; stroke-linecap: square"/>
    </g>
    <g id="text_18">
     <!-- D -->
     <g transform="translate(616.99375 93.989375) scale(0.2 -0.2)">
      <use xlink:href="#DejaVuSans-44"/>
     </g>
    </g>
   </g>
  </g>
 </g>
 <defs>
  <clipPath id="pcff90421db">
   <rect x="92.490625" y="31.43625" width="558" height="277.2"/>
  </clipPath>
 </defs>
</svg>
