<?xml version="1.0" encoding="utf-8" standalone="no"?>
<!DOCTYPE svg PUBLIC "-//W3C//DTD SVG 1.1//EN"
  "http://www.w3.org/Graphics/SVG/1.1/DTD/svg11.dtd">
<svg xmlns:xlink="http://www.w3.org/1999/xlink" width="675.923125pt" height="365.54875pt" viewBox="0 0 675.923125 365.54875" xmlns="http://www.w3.org/2000/svg" version="1.1">
 <metadata>
  <rdf:RDF xmlns:dc="http://purl.org/dc/elements/1.1/" xmlns:cc="http://creativecommons.org/ns#" xmlns:rdf="http://www.w3.org/1999/02/22-rdf-syntax-ns#">
   <cc:Work>
    <dc:type rdf:resource="http://purl.org/dc/dcmitype/StillImage"/>
    <dc:date>2024-02-01T18:07:12.227829</dc:date>
    <dc:format>image/svg+xml</dc:format>
    <dc:creator>
     <cc:Agent>
      <dc:title>Matplotlib v3.7.2, https://matplotlib.org/</dc:title>
     </cc:Agent>
    </dc:creator>
   </cc:Work>
  </rdf:RDF>
 </metadata>
 <defs>
  <style type="text/css">*{stroke-linejoin: round; stroke-linecap: butt}</style>
 </defs>
 <g id="figure_1">
  <g id="patch_1">
   <path d="M 0 365.54875 
L 675.923125 365.54875 
L 675.923125 -0 
L 0 -0 
z
" style="fill: #ffffff"/>
  </g>
  <g id="axes_1">
   <g id="patch_2">
    <path d="M 92.490625 308.63625 
L 650.490625 308.63625 
L 650.490625 31.43625 
L 92.490625 31.43625 
z
" style="fill: #ffffff"/>
   </g>
   <g id="matplotlib.axis_1">
    <g id="xtick_1">
     <g id="line2d_1">
      <defs>
       <path id="mdebbd2617e" d="M 0 0 
L 0 3.5 
" style="stroke: #000000; stroke-width: 0.8"/>
      </defs>
      <g>
       <use xlink:href="#mdebbd2617e" x="117.854261" y="308.63625" style="stroke: #000000; stroke-width: 0.8"/>
      </g>
     </g>
     <g id="text_1">
      <!-- 0 -->
      <g transform="translate(111.491761 330.833125) scale(0.2 -0.2)">
       <defs>
        <path id="DejaVuSans-30" d="M 2034 4250 
Q 1547 4250 1301 3770 
Q 1056 3291 1056 2328 
Q 1056 1369 1301 889 
Q 1547 409 2034 409 
Q 2525 409 2770 889 
Q 3016 1369 3016 2328 
Q 3016 3291 2770 3770 
Q 2525 4250 2034 4250 
z
M 2034 4750 
Q 2819 4750 3233 4129 
Q 3647 3509 3647 2328 
Q 3647 1150 3233 529 
Q 2819 -91 2034 -91 
Q 1250 -91 836 529 
Q 422 1150 422 2328 
Q 422 3509 836 4129 
Q 1250 4750 2034 4750 
z
" transform="scale(0.015625)"/>
       </defs>
       <use xlink:href="#DejaVuSans-30"/>
      </g>
     </g>
    </g>
    <g id="xtick_2">
     <g id="line2d_2">
      <g>
       <use xlink:href="#mdebbd2617e" x="187.822913" y="308.63625" style="stroke: #000000; stroke-width: 0.8"/>
      </g>
     </g>
     <g id="text_2">
      <!-- 200 -->
      <g transform="translate(168.735413 330.833125) scale(0.2 -0.2)">
       <defs>
        <path id="DejaVuSans-32" d="M 1228 531 
L 3431 531 
L 3431 0 
L 469 0 
L 469 531 
Q 828 903 1448 1529 
Q 2069 2156 2228 2338 
Q 2531 2678 2651 2914 
Q 2772 3150 2772 3378 
Q 2772 3750 2511 3984 
Q 2250 4219 1831 4219 
Q 1534 4219 1204 4116 
Q 875 4013 500 3803 
L 500 4441 
Q 881 4594 1212 4672 
Q 1544 4750 1819 4750 
Q 2544 4750 2975 4387 
Q 3406 4025 3406 3419 
Q 3406 3131 3298 2873 
Q 3191 2616 2906 2266 
Q 2828 2175 2409 1742 
Q 1991 1309 1228 531 
z
" transform="scale(0.015625)"/>
       </defs>
       <use xlink:href="#DejaVuSans-32"/>
       <use xlink:href="#DejaVuSans-30" x="63.623047"/>
       <use xlink:href="#DejaVuSans-30" x="127.246094"/>
      </g>
     </g>
    </g>
    <g id="xtick_3">
     <g id="line2d_3">
      <g>
       <use xlink:href="#mdebbd2617e" x="257.791565" y="308.63625" style="stroke: #000000; stroke-width: 0.8"/>
      </g>
     </g>
     <g id="text_3">
      <!-- 400 -->
      <g transform="translate(238.704065 330.833125) scale(0.2 -0.2)">
       <defs>
        <path id="DejaVuSans-34" d="M 2419 4116 
L 825 1625 
L 2419 1625 
L 2419 4116 
z
M 2253 4666 
L 3047 4666 
L 3047 1625 
L 3713 1625 
L 3713 1100 
L 3047 1100 
L 3047 0 
L 2419 0 
L 2419 1100 
L 313 1100 
L 313 1709 
L 2253 4666 
z
" transform="scale(0.015625)"/>
       </defs>
       <use xlink:href="#DejaVuSans-34"/>
       <use xlink:href="#DejaVuSans-30" x="63.623047"/>
       <use xlink:href="#DejaVuSans-30" x="127.246094"/>
      </g>
     </g>
    </g>
    <g id="xtick_4">
     <g id="line2d_4">
      <g>
       <use xlink:href="#mdebbd2617e" x="327.760217" y="308.63625" style="stroke: #000000; stroke-width: 0.8"/>
      </g>
     </g>
     <g id="text_4">
      <!-- 600 -->
      <g transform="translate(308.672717 330.833125) scale(0.2 -0.2)">
       <defs>
        <path id="DejaVuSans-36" d="M 2113 2584 
Q 1688 2584 1439 2293 
Q 1191 2003 1191 1497 
Q 1191 994 1439 701 
Q 1688 409 2113 409 
Q 2538 409 2786 701 
Q 3034 994 3034 1497 
Q 3034 2003 2786 2293 
Q 2538 2584 2113 2584 
z
M 3366 4563 
L 3366 3988 
Q 3128 4100 2886 4159 
Q 2644 4219 2406 4219 
Q 1781 4219 1451 3797 
Q 1122 3375 1075 2522 
Q 1259 2794 1537 2939 
Q 1816 3084 2150 3084 
Q 2853 3084 3261 2657 
Q 3669 2231 3669 1497 
Q 3669 778 3244 343 
Q 2819 -91 2113 -91 
Q 1303 -91 875 529 
Q 447 1150 447 2328 
Q 447 3434 972 4092 
Q 1497 4750 2381 4750 
Q 2619 4750 2861 4703 
Q 3103 4656 3366 4563 
z
" transform="scale(0.015625)"/>
       </defs>
       <use xlink:href="#DejaVuSans-36"/>
       <use xlink:href="#DejaVuSans-30" x="63.623047"/>
       <use xlink:href="#DejaVuSans-30" x="127.246094"/>
      </g>
     </g>
    </g>
    <g id="xtick_5">
     <g id="line2d_5">
      <g>
       <use xlink:href="#mdebbd2617e" x="397.72887" y="308.63625" style="stroke: #000000; stroke-width: 0.8"/>
      </g>
     </g>
     <g id="text_5">
      <!-- 800 -->
      <g transform="translate(378.64137 330.833125) scale(0.2 -0.2)">
       <defs>
        <path id="DejaVuSans-38" d="M 2034 2216 
Q 1584 2216 1326 1975 
Q 1069 1734 1069 1313 
Q 1069 891 1326 650 
Q 1584 409 2034 409 
Q 2484 409 2743 651 
Q 3003 894 3003 1313 
Q 3003 1734 2745 1975 
Q 2488 2216 2034 2216 
z
M 1403 2484 
Q 997 2584 770 2862 
Q 544 3141 544 3541 
Q 544 4100 942 4425 
Q 1341 4750 2034 4750 
Q 2731 4750 3128 4425 
Q 3525 4100 3525 3541 
Q 3525 3141 3298 2862 
Q 3072 2584 2669 2484 
Q 3125 2378 3379 2068 
Q 3634 1759 3634 1313 
Q 3634 634 3220 271 
Q 2806 -91 2034 -91 
Q 1263 -91 848 271 
Q 434 634 434 1313 
Q 434 1759 690 2068 
Q 947 2378 1403 2484 
z
M 1172 3481 
Q 1172 3119 1398 2916 
Q 1625 2713 2034 2713 
Q 2441 2713 2670 2916 
Q 2900 3119 2900 3481 
Q 2900 3844 2670 4047 
Q 2441 4250 2034 4250 
Q 1625 4250 1398 4047 
Q 1172 3844 1172 3481 
z
" transform="scale(0.015625)"/>
       </defs>
       <use xlink:href="#DejaVuSans-38"/>
       <use xlink:href="#DejaVuSans-30" x="63.623047"/>
       <use xlink:href="#DejaVuSans-30" x="127.246094"/>
      </g>
     </g>
    </g>
    <g id="xtick_6">
     <g id="line2d_6">
      <g>
       <use xlink:href="#mdebbd2617e" x="467.697522" y="308.63625" style="stroke: #000000; stroke-width: 0.8"/>
      </g>
     </g>
     <g id="text_6">
      <!-- 1000 -->
      <g transform="translate(442.247522 330.833125) scale(0.2 -0.2)">
       <defs>
        <path id="DejaVuSans-31" d="M 794 531 
L 1825 531 
L 1825 4091 
L 703 3866 
L 703 4441 
L 1819 4666 
L 2450 4666 
L 2450 531 
L 3481 531 
L 3481 0 
L 794 0 
L 794 531 
z
" transform="scale(0.015625)"/>
       </defs>
       <use xlink:href="#DejaVuSans-31"/>
       <use xlink:href="#DejaVuSans-30" x="63.623047"/>
       <use xlink:href="#DejaVuSans-30" x="127.246094"/>
       <use xlink:href="#DejaVuSans-30" x="190.869141"/>
      </g>
     </g>
    </g>
    <g id="xtick_7">
     <g id="line2d_7">
      <g>
       <use xlink:href="#mdebbd2617e" x="537.666174" y="308.63625" style="stroke: #000000; stroke-width: 0.8"/>
      </g>
     </g>
     <g id="text_7">
      <!-- 1200 -->
      <g transform="translate(512.216174 330.833125) scale(0.2 -0.2)">
       <use xlink:href="#DejaVuSans-31"/>
       <use xlink:href="#DejaVuSans-32" x="63.623047"/>
       <use xlink:href="#DejaVuSans-30" x="127.246094"/>
       <use xlink:href="#DejaVuSans-30" x="190.869141"/>
      </g>
     </g>
    </g>
    <g id="xtick_8">
     <g id="line2d_8">
      <g>
       <use xlink:href="#mdebbd2617e" x="607.634826" y="308.63625" style="stroke: #000000; stroke-width: 0.8"/>
      </g>
     </g>
     <g id="text_8">
      <!-- 1400 -->
      <g transform="translate(582.184826 330.833125) scale(0.2 -0.2)">
       <use xlink:href="#DejaVuSans-31"/>
       <use xlink:href="#DejaVuSans-34" x="63.623047"/>
       <use xlink:href="#DejaVuSans-30" x="127.246094"/>
       <use xlink:href="#DejaVuSans-30" x="190.869141"/>
      </g>
     </g>
    </g>
    <g id="text_9">
     <!-- iterations -->
     <g transform="translate(324.035938 354.189375) scale(0.2 -0.2)">
      <defs>
       <path id="DejaVuSans-69" d="M 603 3500 
L 1178 3500 
L 1178 0 
L 603 0 
L 603 3500 
z
M 603 4863 
L 1178 4863 
L 1178 4134 
L 603 4134 
L 603 4863 
z
" transform="scale(0.015625)"/>
       <path id="DejaVuSans-74" d="M 1172 4494 
L 1172 3500 
L 2356 3500 
L 2356 3053 
L 1172 3053 
L 1172 1153 
Q 1172 725 1289 603 
Q 1406 481 1766 481 
L 2356 481 
L 2356 0 
L 1766 0 
Q 1100 0 847 248 
Q 594 497 594 1153 
L 594 3053 
L 172 3053 
L 172 3500 
L 594 3500 
L 594 4494 
L 1172 4494 
z
" transform="scale(0.015625)"/>
       <path id="DejaVuSans-65" d="M 3597 1894 
L 3597 1613 
L 953 1613 
Q 991 1019 1311 708 
Q 1631 397 2203 397 
Q 2534 397 2845 478 
Q 3156 559 3463 722 
L 3463 178 
Q 3153 47 2828 -22 
Q 2503 -91 2169 -91 
Q 1331 -91 842 396 
Q 353 884 353 1716 
Q 353 2575 817 3079 
Q 1281 3584 2069 3584 
Q 2775 3584 3186 3129 
Q 3597 2675 3597 1894 
z
M 3022 2063 
Q 3016 2534 2758 2815 
Q 2500 3097 2075 3097 
Q 1594 3097 1305 2825 
Q 1016 2553 972 2059 
L 3022 2063 
z
" transform="scale(0.015625)"/>
       <path id="DejaVuSans-72" d="M 2631 2963 
Q 2534 3019 2420 3045 
Q 2306 3072 2169 3072 
Q 1681 3072 1420 2755 
Q 1159 2438 1159 1844 
L 1159 0 
L 581 0 
L 581 3500 
L 1159 3500 
L 1159 2956 
Q 1341 3275 1631 3429 
Q 1922 3584 2338 3584 
Q 2397 3584 2469 3576 
Q 2541 3569 2628 3553 
L 2631 2963 
z
" transform="scale(0.015625)"/>
       <path id="DejaVuSans-61" d="M 2194 1759 
Q 1497 1759 1228 1600 
Q 959 1441 959 1056 
Q 959 750 1161 570 
Q 1363 391 1709 391 
Q 2188 391 2477 730 
Q 2766 1069 2766 1631 
L 2766 1759 
L 2194 1759 
z
M 3341 1997 
L 3341 0 
L 2766 0 
L 2766 531 
Q 2569 213 2275 61 
Q 1981 -91 1556 -91 
Q 1019 -91 701 211 
Q 384 513 384 1019 
Q 384 1609 779 1909 
Q 1175 2209 1959 2209 
L 2766 2209 
L 2766 2266 
Q 2766 2663 2505 2880 
Q 2244 3097 1772 3097 
Q 1472 3097 1187 3025 
Q 903 2953 641 2809 
L 641 3341 
Q 956 3463 1253 3523 
Q 1550 3584 1831 3584 
Q 2591 3584 2966 3190 
Q 3341 2797 3341 1997 
z
" transform="scale(0.015625)"/>
       <path id="DejaVuSans-6f" d="M 1959 3097 
Q 1497 3097 1228 2736 
Q 959 2375 959 1747 
Q 959 1119 1226 758 
Q 1494 397 1959 397 
Q 2419 397 2687 759 
Q 2956 1122 2956 1747 
Q 2956 2369 2687 2733 
Q 2419 3097 1959 3097 
z
M 1959 3584 
Q 2709 3584 3137 3096 
Q 3566 2609 3566 1747 
Q 3566 888 3137 398 
Q 2709 -91 1959 -91 
Q 1206 -91 779 398 
Q 353 888 353 1747 
Q 353 2609 779 3096 
Q 1206 3584 1959 3584 
z
" transform="scale(0.015625)"/>
       <path id="DejaVuSans-6e" d="M 3513 2113 
L 3513 0 
L 2938 0 
L 2938 2094 
Q 2938 2591 2744 2837 
Q 2550 3084 2163 3084 
Q 1697 3084 1428 2787 
Q 1159 2491 1159 1978 
L 1159 0 
L 581 0 
L 581 3500 
L 1159 3500 
L 1159 2956 
Q 1366 3272 1645 3428 
Q 1925 3584 2291 3584 
Q 2894 3584 3203 3211 
Q 3513 2838 3513 2113 
z
" transform="scale(0.015625)"/>
       <path id="DejaVuSans-73" d="M 2834 3397 
L 2834 2853 
Q 2591 2978 2328 3040 
Q 2066 3103 1784 3103 
Q 1356 3103 1142 2972 
Q 928 2841 928 2578 
Q 928 2378 1081 2264 
Q 1234 2150 1697 2047 
L 1894 2003 
Q 2506 1872 2764 1633 
Q 3022 1394 3022 966 
Q 3022 478 2636 193 
Q 2250 -91 1575 -91 
Q 1294 -91 989 -36 
Q 684 19 347 128 
L 347 722 
Q 666 556 975 473 
Q 1284 391 1588 391 
Q 1994 391 2212 530 
Q 2431 669 2431 922 
Q 2431 1156 2273 1281 
Q 2116 1406 1581 1522 
L 1381 1569 
Q 847 1681 609 1914 
Q 372 2147 372 2553 
Q 372 3047 722 3315 
Q 1072 3584 1716 3584 
Q 2034 3584 2315 3537 
Q 2597 3491 2834 3397 
z
" transform="scale(0.015625)"/>
      </defs>
      <use xlink:href="#DejaVuSans-69"/>
      <use xlink:href="#DejaVuSans-74" x="27.783203"/>
      <use xlink:href="#DejaVuSans-65" x="66.992188"/>
      <use xlink:href="#DejaVuSans-72" x="128.515625"/>
      <use xlink:href="#DejaVuSans-61" x="169.628906"/>
      <use xlink:href="#DejaVuSans-74" x="230.908203"/>
      <use xlink:href="#DejaVuSans-69" x="270.117188"/>
      <use xlink:href="#DejaVuSans-6f" x="297.900391"/>
      <use xlink:href="#DejaVuSans-6e" x="359.082031"/>
      <use xlink:href="#DejaVuSans-73" x="422.460938"/>
     </g>
    </g>
   </g>
   <g id="matplotlib.axis_2">
    <g id="ytick_1">
     <g id="line2d_9">
      <defs>
       <path id="mb7ffcd8c27" d="M 0 0 
L -3.5 0 
" style="stroke: #000000; stroke-width: 0.8"/>
      </defs>
      <g>
       <use xlink:href="#mb7ffcd8c27" x="92.490625" y="278.050314" style="stroke: #000000; stroke-width: 0.8"/>
      </g>
     </g>
     <g id="text_10">
      <!-- −200 -->
      <g transform="translate(30.55625 285.648751) scale(0.2 -0.2)">
       <defs>
        <path id="DejaVuSans-2212" d="M 678 2272 
L 4684 2272 
L 4684 1741 
L 678 1741 
L 678 2272 
z
" transform="scale(0.015625)"/>
       </defs>
       <use xlink:href="#DejaVuSans-2212"/>
       <use xlink:href="#DejaVuSans-32" x="83.789062"/>
       <use xlink:href="#DejaVuSans-30" x="147.412109"/>
       <use xlink:href="#DejaVuSans-30" x="211.035156"/>
      </g>
     </g>
    </g>
    <g id="ytick_2">
     <g id="line2d_10">
      <g>
       <use xlink:href="#mb7ffcd8c27" x="92.490625" y="225.895764" style="stroke: #000000; stroke-width: 0.8"/>
      </g>
     </g>
     <g id="text_11">
      <!-- −100 -->
      <g transform="translate(30.55625 233.494202) scale(0.2 -0.2)">
       <use xlink:href="#DejaVuSans-2212"/>
       <use xlink:href="#DejaVuSans-31" x="83.789062"/>
       <use xlink:href="#DejaVuSans-30" x="147.412109"/>
       <use xlink:href="#DejaVuSans-30" x="211.035156"/>
      </g>
     </g>
    </g>
    <g id="ytick_3">
     <g id="line2d_11">
      <g>
       <use xlink:href="#mb7ffcd8c27" x="92.490625" y="173.741215" style="stroke: #000000; stroke-width: 0.8"/>
      </g>
     </g>
     <g id="text_12">
      <!-- 0 -->
      <g transform="translate(72.765625 181.339652) scale(0.2 -0.2)">
       <use xlink:href="#DejaVuSans-30"/>
      </g>
     </g>
    </g>
    <g id="ytick_4">
     <g id="line2d_12">
      <g>
       <use xlink:href="#mb7ffcd8c27" x="92.490625" y="121.586665" style="stroke: #000000; stroke-width: 0.8"/>
      </g>
     </g>
     <g id="text_13">
      <!-- 100 -->
      <g transform="translate(47.315625 129.185102) scale(0.2 -0.2)">
       <use xlink:href="#DejaVuSans-31"/>
       <use xlink:href="#DejaVuSans-30" x="63.623047"/>
       <use xlink:href="#DejaVuSans-30" x="127.246094"/>
      </g>
     </g>
    </g>
    <g id="ytick_5">
     <g id="line2d_13">
      <g>
       <use xlink:href="#mb7ffcd8c27" x="92.490625" y="69.432115" style="stroke: #000000; stroke-width: 0.8"/>
      </g>
     </g>
     <g id="text_14">
      <!-- 200 -->
      <g transform="translate(47.315625 77.030553) scale(0.2 -0.2)">
       <use xlink:href="#DejaVuSans-32"/>
       <use xlink:href="#DejaVuSans-30" x="63.623047"/>
       <use xlink:href="#DejaVuSans-30" x="127.246094"/>
      </g>
     </g>
    </g>
    <g id="text_15">
     <!-- Loss -->
     <g transform="translate(22.396875 191.970625) rotate(-90) scale(0.2 -0.2)">
      <defs>
       <path id="DejaVuSans-4c" d="M 628 4666 
L 1259 4666 
L 1259 531 
L 3531 531 
L 3531 0 
L 628 0 
L 628 4666 
z
" transform="scale(0.015625)"/>
      </defs>
      <use xlink:href="#DejaVuSans-4c"/>
      <use xlink:href="#DejaVuSans-6f" x="53.962891"/>
      <use xlink:href="#DejaVuSans-73" x="115.144531"/>
      <use xlink:href="#DejaVuSans-73" x="167.244141"/>
     </g>
    </g>
   </g>
   <g id="line2d_14">
    <path d="M 117.854261 116.730416 
L 118.204105 62.430435 
L 118.553948 101.446911 
L 118.903791 97.742273 
L 119.253634 71.891481 
L 119.603478 66.005259 
L 119.953321 53.003453 
L 120.303164 50.572912 
L 120.653007 59.282987 
L 121.002851 64.407922 
L 121.352694 63.027834 
L 122.402224 76.15716 
L 122.752067 51.933022 
L 123.10191 73.641653 
L 123.451754 118.042353 
L 123.801597 125.137272 
L 124.501283 60.941522 
L 124.851127 44.03625 
L 125.20097 52.703352 
L 125.550813 66.415864 
L 126.2505 80.271673 
L 126.600343 77.046844 
L 126.950186 85.974109 
L 127.300029 89.320307 
L 127.649873 99.781725 
L 127.999716 103.629806 
L 128.349559 95.490293 
L 128.699402 93.742179 
L 129.049246 96.556052 
L 129.399089 104.56955 
L 129.748932 103.315712 
L 130.098775 106.314088 
L 130.448619 101.622759 
L 130.798462 103.726444 
L 131.148305 97.099143 
L 131.498149 105.59913 
L 131.847992 102.090241 
L 132.197835 108.846517 
L 132.547678 107.115866 
L 132.897522 107.768741 
L 133.247365 94.854922 
L 133.597208 103.509892 
L 133.947051 99.688151 
L 134.296895 99.279356 
L 134.646738 102.538264 
L 134.996581 101.345011 
L 135.346424 103.441635 
L 135.696268 100.626615 
L 136.046111 103.77917 
L 136.395954 108.446027 
L 136.745797 104.135863 
L 137.095641 113.024366 
L 137.445484 113.256683 
L 137.795327 118.953402 
L 138.14517 121.504437 
L 138.495014 125.536059 
L 138.844857 125.084203 
L 139.1947 124.975704 
L 139.544543 129.12069 
L 139.894387 129.965285 
L 140.24423 127.601113 
L 140.594073 122.813187 
L 140.943917 121.044518 
L 141.29376 125.340201 
L 141.643603 125.222212 
L 141.993446 129.200338 
L 142.34329 126.028649 
L 142.693133 128.68786 
L 143.392819 125.98626 
L 143.742663 127.841862 
L 144.092506 125.227578 
L 144.442349 130.64839 
L 144.792192 134.240456 
L 145.142036 133.266292 
L 145.491879 131.370037 
L 145.841722 133.221224 
L 146.191565 131.530508 
L 146.541409 127.304061 
L 146.891252 127.021545 
L 147.241095 131.504403 
L 147.590938 129.12013 
L 147.940782 130.155912 
L 148.290625 129.13671 
L 148.990312 135.649824 
L 149.340155 130.074104 
L 149.689998 129.476486 
L 150.039841 129.449765 
L 150.389685 127.07422 
L 151.089371 128.405043 
L 151.439214 132.155688 
L 151.789058 129.996242 
L 152.138901 130.068832 
L 152.488744 128.264842 
L 152.838587 131.050036 
L 153.188431 130.94195 
L 153.538274 128.470743 
L 153.888117 131.531211 
L 154.23796 131.612299 
L 154.587804 132.350694 
L 154.937647 131.23145 
L 155.28749 134.408219 
L 155.637333 133.259949 
L 155.987177 133.451761 
L 156.33702 135.868165 
L 156.686863 136.567827 
L 157.036707 137.964817 
L 157.38655 137.904629 
L 157.736393 140.59013 
L 158.086236 140.248142 
L 158.43608 142.320233 
L 159.135766 143.305748 
L 159.485609 144.681703 
L 159.835453 144.519549 
L 160.185296 145.240951 
L 160.535139 143.606707 
L 160.884982 147.202116 
L 161.234826 147.401776 
L 161.584669 145.312951 
L 161.934512 147.788315 
L 162.284355 144.771762 
L 162.634199 147.864716 
L 162.984042 144.354608 
L 163.333885 149.00043 
L 163.683728 148.864368 
L 164.033572 147.326535 
L 164.383415 147.287939 
L 164.733258 149.193091 
L 165.083101 147.831455 
L 165.432945 148.825769 
L 165.782788 148.096776 
L 166.132631 148.745121 
L 166.482475 151.093129 
L 166.832318 147.222083 
L 167.182161 147.173949 
L 167.532004 149.684394 
L 167.881848 150.670233 
L 168.231691 150.083711 
L 168.581534 151.347509 
L 168.931377 149.72187 
L 169.281221 149.97145 
L 169.631064 152.818688 
L 169.980907 153.166956 
L 170.33075 151.635056 
L 170.680594 152.261085 
L 171.030437 150.388173 
L 171.38028 149.701996 
L 171.730123 148.135366 
L 172.079967 150.229807 
L 172.42981 149.605711 
L 173.129496 151.22725 
L 173.47934 150.754788 
L 173.829183 152.243257 
L 174.179026 151.654234 
L 174.52887 154.11977 
L 174.878713 155.048733 
L 175.228556 153.344866 
L 175.578399 153.231589 
L 175.928243 154.848303 
L 176.278086 153.800574 
L 176.627929 157.048832 
L 176.977772 156.893901 
L 177.327616 155.884159 
L 177.677459 156.207196 
L 178.377145 155.9323 
L 179.076832 160.584037 
L 179.426675 159.109185 
L 179.776518 160.133137 
L 180.126362 157.417522 
L 180.476205 158.294861 
L 180.826048 157.179436 
L 181.175891 156.74332 
L 181.525735 152.371756 
L 181.875578 154.608543 
L 182.225421 154.732663 
L 182.575264 156.74822 
L 182.925108 153.888262 
L 183.274951 153.0428 
L 183.624794 149.447487 
L 183.974638 149.480507 
L 184.324481 149.219328 
L 185.374011 154.868603 
L 185.723854 153.249777 
L 186.073697 154.622314 
L 186.42354 153.342076 
L 186.773384 153.92423 
L 187.123227 155.062312 
L 187.47307 156.883775 
L 187.822913 155.221922 
L 188.172757 156.801697 
L 188.872443 155.609429 
L 189.222286 154.116463 
L 189.921973 156.80764 
L 190.271816 155.756673 
L 190.621659 156.419443 
L 190.971503 154.641703 
L 191.321346 156.161499 
L 191.671189 154.121002 
L 192.021033 156.645991 
L 192.370876 155.529907 
L 192.720719 156.176916 
L 193.070562 155.396429 
L 193.420406 155.88568 
L 193.770249 155.259632 
L 194.120092 153.799706 
L 194.469935 154.311158 
L 194.819779 153.059434 
L 195.169622 154.648248 
L 195.519465 155.120642 
L 195.869308 153.132141 
L 196.219152 153.483931 
L 196.568995 154.04572 
L 196.918838 154.987186 
L 197.268681 154.816669 
L 197.968368 153.202575 
L 198.318211 153.916273 
L 198.668054 152.705682 
L 199.017898 152.166556 
L 199.367741 152.402338 
L 199.717584 152.180249 
L 200.067428 154.11953 
L 200.417271 152.016894 
L 200.767114 153.003526 
L 201.116957 151.826107 
L 201.466801 152.171399 
L 201.816644 153.165678 
L 202.166487 152.958836 
L 202.51633 151.2627 
L 202.866174 152.237006 
L 203.216017 152.790376 
L 203.915703 149.160309 
L 204.61539 150.86653 
L 204.965233 150.354096 
L 205.315076 149.479063 
L 205.66492 152.676587 
L 206.014763 151.047918 
L 206.364606 152.469854 
L 206.714449 152.266123 
L 207.064293 153.462899 
L 207.414136 154.069147 
L 207.763979 154.003291 
L 208.113822 154.910829 
L 208.813509 155.294215 
L 209.163352 154.960983 
L 209.513196 154.061296 
L 209.863039 155.470938 
L 210.212882 153.968602 
L 210.562725 153.381538 
L 210.912569 153.259493 
L 211.262412 154.500778 
L 211.612255 155.292109 
L 211.962098 154.850473 
L 212.311942 155.670758 
L 212.661785 154.673209 
L 213.011628 154.525595 
L 213.361471 155.551714 
L 213.711315 155.152165 
L 214.061158 155.936404 
L 214.411001 157.010189 
L 214.760844 156.050296 
L 215.110688 155.985973 
L 215.810374 156.386478 
L 216.160217 157.272418 
L 216.510061 156.749003 
L 216.859904 157.107192 
L 217.209747 157.119295 
L 217.559591 157.761971 
L 217.909434 157.134318 
L 218.259277 156.145483 
L 218.60912 158.606781 
L 218.958964 157.442978 
L 219.308807 157.059694 
L 219.65865 157.835689 
L 220.008493 157.316152 
L 220.70818 157.854228 
L 221.058023 159.260742 
L 221.407866 158.661202 
L 221.75771 158.869777 
L 222.107553 159.238682 
L 222.457396 160.284156 
L 222.807239 159.663591 
L 223.157083 159.433966 
L 223.506926 159.789577 
L 224.206612 159.882359 
L 224.556456 160.25701 
L 224.906299 161.289905 
L 225.256142 158.838544 
L 225.605986 159.924778 
L 225.955829 160.45698 
L 226.305672 160.777332 
L 226.655515 162.658706 
L 227.005359 162.11453 
L 227.355202 162.229981 
L 227.705045 160.98345 
L 228.054888 162.000164 
L 228.404732 163.379221 
L 228.754575 163.181533 
L 229.104418 163.880014 
L 229.454261 163.180675 
L 229.804105 162.92911 
L 230.503791 162.673332 
L 230.853634 164.01015 
L 231.203478 163.898086 
L 231.553321 163.587924 
L 231.903164 163.629103 
L 232.253007 164.448835 
L 232.602851 164.678214 
L 232.952694 165.504125 
L 233.302537 164.692579 
L 233.65238 166.342899 
L 234.002224 167.152715 
L 234.352067 165.965846 
L 234.70191 167.413876 
L 235.051754 166.665451 
L 235.401597 166.885093 
L 235.75144 166.510555 
L 236.451127 165.434706 
L 236.80097 165.631563 
L 237.150813 166.035931 
L 237.500656 165.705315 
L 238.200343 166.525807 
L 238.550186 166.210813 
L 238.900029 166.169597 
L 239.249873 166.418649 
L 239.599716 165.309747 
L 239.949559 165.436775 
L 240.299402 166.031096 
L 240.649246 165.914072 
L 240.999089 167.508869 
L 241.348932 166.783678 
L 241.698775 166.803441 
L 242.048619 166.419973 
L 242.398462 165.84882 
L 242.748305 166.801295 
L 243.098149 166.075255 
L 243.797835 167.123316 
L 244.147678 167.002987 
L 244.497522 167.874705 
L 244.847365 167.313398 
L 245.197208 168.063886 
L 245.896895 167.5642 
L 246.246738 168.792709 
L 246.596581 168.642832 
L 246.946424 167.815961 
L 247.296268 168.876404 
L 247.995954 169.44384 
L 248.345797 169.245245 
L 248.695641 169.40812 
L 249.045484 169.727721 
L 250.095014 169.380179 
L 250.444857 168.682531 
L 250.7947 168.772326 
L 251.144543 169.343754 
L 251.494387 168.172043 
L 251.84423 168.854283 
L 252.89376 169.872072 
L 253.243603 169.938352 
L 253.593446 169.719371 
L 253.94329 168.183161 
L 254.293133 169.845163 
L 254.642976 169.297504 
L 254.992819 170.613594 
L 256.042349 170.480542 
L 256.392192 170.525653 
L 256.742036 169.977587 
L 257.091879 170.364696 
L 257.441722 169.181846 
L 257.791565 170.062413 
L 258.141409 168.886077 
L 258.491252 169.394782 
L 258.841095 169.662922 
L 259.190938 170.145244 
L 259.540782 169.927706 
L 259.890625 170.004292 
L 260.240468 169.875281 
L 260.590312 168.776072 
L 260.940155 168.991334 
L 261.289998 170.365659 
L 261.639841 171.176641 
L 261.989685 171.202022 
L 262.339528 170.910612 
L 263.039214 170.81527 
L 263.389058 171.004884 
L 263.738901 170.949 
L 264.088744 171.33907 
L 264.438587 170.94787 
L 264.788431 171.197713 
L 265.138274 171.714517 
L 265.488117 171.475357 
L 265.83796 171.483979 
L 266.88749 171.036587 
L 267.237333 171.608698 
L 267.587177 171.845687 
L 267.93702 170.643028 
L 268.286863 170.670747 
L 268.636707 171.285834 
L 268.98655 170.540197 
L 269.336393 171.206933 
L 269.686236 171.295074 
L 270.03608 170.80643 
L 270.385923 170.955732 
L 270.735766 171.29138 
L 271.085609 171.91542 
L 271.435453 170.798087 
L 272.135139 172.396778 
L 272.484982 171.585403 
L 272.834826 171.605385 
L 273.184669 171.166604 
L 273.534512 172.321859 
L 273.884355 172.257516 
L 274.234199 173.085883 
L 274.933885 172.209607 
L 275.283728 172.172332 
L 275.633572 172.281268 
L 275.983415 172.82213 
L 276.683101 172.079089 
L 277.032945 172.578862 
L 277.382788 172.245953 
L 277.732631 172.597846 
L 278.082475 172.410781 
L 278.432318 172.673752 
L 278.782161 172.11368 
L 279.132004 172.760862 
L 279.481848 172.901058 
L 279.831691 172.8115 
L 280.181534 172.944725 
L 280.531377 172.884963 
L 280.881221 173.067699 
L 281.231064 172.387809 
L 281.580907 172.65821 
L 281.93075 172.570902 
L 282.280594 173.384998 
L 282.630437 172.353634 
L 282.98028 172.340497 
L 283.330123 172.085243 
L 284.02981 173.137002 
L 284.379653 172.492417 
L 285.07934 172.834667 
L 285.429183 172.629771 
L 285.779026 172.593443 
L 286.12887 172.907705 
L 286.478713 172.320619 
L 286.828556 172.453421 
L 287.178399 172.330282 
L 287.528243 172.595965 
L 287.878086 172.528293 
L 288.227929 172.861315 
L 288.577772 172.896261 
L 288.927616 173.496203 
L 289.627302 172.827251 
L 289.977145 173.139689 
L 290.326989 173.266205 
L 290.676832 173.642314 
L 291.026675 173.416752 
L 291.376518 172.83362 
L 291.726362 172.80055 
L 292.076205 172.93646 
L 292.426048 173.231901 
L 292.775891 173.197898 
L 293.125735 173.481921 
L 293.475578 173.240156 
L 294.525108 173.864126 
L 294.874951 173.678847 
L 295.224794 173.868298 
L 295.574638 173.729008 
L 295.924481 173.863457 
L 296.274324 173.579213 
L 296.624167 173.71759 
L 296.974011 173.392521 
L 297.323854 174.005318 
L 298.02354 174.1466 
L 298.373384 173.144914 
L 298.723227 173.671143 
L 299.422913 174.144585 
L 299.772757 174.019534 
L 300.1226 173.687268 
L 300.822286 174.288035 
L 301.17213 174.1292 
L 301.521973 174.242572 
L 301.871816 174.970998 
L 302.221659 174.148864 
L 302.571503 174.472383 
L 302.921346 173.912354 
L 303.271189 174.929903 
L 303.621033 174.810248 
L 303.970876 174.379742 
L 305.020406 173.893045 
L 305.370249 173.93676 
L 305.720092 174.381656 
L 306.419779 174.031575 
L 306.769622 173.335467 
L 307.119465 174.324617 
L 307.469308 174.571458 
L 307.819152 174.284473 
L 308.168995 175.075052 
L 308.518838 174.592264 
L 309.218525 174.200782 
L 309.568368 174.356521 
L 309.918211 174.179814 
L 310.268054 174.241436 
L 310.617898 174.705087 
L 310.967741 174.679353 
L 311.317584 175.121293 
L 311.667428 175.179036 
L 312.017271 174.430687 
L 312.367114 174.649242 
L 312.716957 175.257114 
L 313.066801 175.436165 
L 313.416644 175.287799 
L 313.766487 174.561613 
L 314.11633 174.723566 
L 314.466174 174.37005 
L 314.816017 174.652566 
L 315.16586 174.067515 
L 315.515703 174.41544 
L 315.865547 174.313536 
L 316.21539 173.964429 
L 316.565233 175.090529 
L 316.915076 174.400231 
L 317.26492 174.447379 
L 317.614763 174.233904 
L 317.964606 174.975875 
L 318.314449 174.326316 
L 318.664293 175.300385 
L 319.014136 174.82901 
L 319.713822 175.127618 
L 320.063666 174.705087 
L 320.413509 174.46174 
L 320.763352 174.729816 
L 321.113196 174.81318 
L 321.463039 175.237349 
L 321.812882 175.075744 
L 322.162725 175.140725 
L 322.512569 175.423618 
L 322.862412 175.255391 
L 323.212255 174.372277 
L 323.562098 175.023375 
L 324.611628 174.296632 
L 324.961471 174.415329 
L 325.311315 174.011729 
L 325.661158 173.923366 
L 326.011001 174.913864 
L 326.360844 174.884597 
L 326.710688 174.594898 
L 327.060531 175.163894 
L 327.410374 174.999425 
L 327.760217 174.408347 
L 328.110061 174.79119 
L 328.809747 174.39759 
L 329.159591 174.925129 
L 329.509434 175.055533 
L 330.558964 174.800814 
L 330.908807 174.936818 
L 331.25865 174.810069 
L 331.608493 174.461777 
L 331.958337 174.900441 
L 332.30818 174.840383 
L 332.658023 174.327729 
L 333.007866 174.398339 
L 333.35771 174.61807 
L 333.707553 174.995317 
L 334.057396 174.346549 
L 334.407239 174.179704 
L 335.106926 174.718233 
L 335.456769 174.316179 
L 335.806612 174.535876 
L 336.156456 174.370798 
L 336.506299 174.537744 
L 337.205986 175.518156 
L 337.555829 175.645277 
L 337.905672 175.611891 
L 338.255515 175.052068 
L 338.605359 174.974856 
L 338.955202 175.427324 
L 339.305045 175.271629 
L 339.654888 175.61701 
L 340.004732 175.247906 
L 340.354575 175.294735 
L 341.054261 175.89879 
L 341.404105 176.077742 
L 342.103791 175.413471 
L 342.453634 175.623908 
L 342.803478 175.198067 
L 343.503164 175.44581 
L 343.853007 175.927804 
L 344.202851 175.219054 
L 344.552694 175.687479 
L 344.902537 175.794876 
L 345.25238 175.43702 
L 345.602224 175.328583 
L 347.001597 175.825537 
L 347.35144 176.583016 
L 348.051127 176.896142 
L 348.750813 175.911554 
L 349.100656 176.351337 
L 349.4505 176.181965 
L 349.800343 175.349774 
L 350.150186 176.114277 
L 350.500029 176.114064 
L 350.849873 176.672723 
L 351.549559 176.794847 
L 351.899402 176.325163 
L 352.249246 176.152382 
L 352.599089 176.214148 
L 352.948932 176.505449 
L 353.298775 176.472516 
L 353.648619 176.315092 
L 353.998462 176.027412 
L 354.348305 175.987551 
L 354.698149 176.178034 
L 355.397835 175.706594 
L 355.747678 175.723933 
L 356.097522 175.382591 
L 356.797208 176.010723 
L 357.147051 176.041978 
L 357.846738 175.815828 
L 358.196581 175.496626 
L 358.546424 175.553821 
L 358.896268 175.759455 
L 359.595954 175.844381 
L 359.945797 175.513322 
L 360.295641 175.601948 
L 360.645484 175.865583 
L 360.995327 175.970531 
L 361.695014 175.09015 
L 362.044857 174.097807 
L 362.3947 173.960914 
L 362.744543 175.204017 
L 363.094387 175.655793 
L 363.44423 175.423121 
L 363.794073 175.631669 
L 364.143917 175.399722 
L 364.843603 176.051574 
L 365.193446 175.853567 
L 365.54329 175.970963 
L 365.893133 175.320615 
L 366.242976 175.441648 
L 366.942663 174.876387 
L 367.292506 174.870139 
L 367.642349 175.364116 
L 367.992192 174.282222 
L 368.342036 175.180443 
L 368.691879 175.13155 
L 369.041722 173.969377 
L 369.391565 174.97548 
L 369.741409 175.185995 
L 370.091252 175.592498 
L 370.441095 174.224 
L 370.790938 174.801255 
L 371.140782 174.91318 
L 371.490625 174.655643 
L 372.190312 175.51598 
L 372.540155 174.805268 
L 372.889998 174.946519 
L 373.239841 174.673955 
L 373.589685 175.576337 
L 373.939528 175.910655 
L 374.639214 174.921067 
L 374.989058 175.43875 
L 375.338901 174.862004 
L 375.688744 175.643429 
L 376.038587 175.346209 
L 376.388431 175.821889 
L 376.738274 175.425669 
L 377.43796 175.266382 
L 377.787804 175.036475 
L 378.137647 175.681982 
L 379.187177 174.957426 
L 379.53702 175.009111 
L 379.886863 175.237253 
L 380.236707 175.090847 
L 380.58655 175.476843 
L 380.936393 175.38795 
L 381.286236 175.687296 
L 381.63608 175.334876 
L 381.985923 175.78399 
L 382.335766 175.347002 
L 382.685609 175.32446 
L 383.035453 175.159546 
L 383.385296 175.583069 
L 383.735139 175.228515 
L 384.084982 176.02991 
L 384.434826 175.340675 
L 384.784669 175.748797 
L 385.134512 175.759824 
L 385.484355 175.502586 
L 385.834199 175.409135 
L 386.184042 175.853548 
L 386.533885 175.920658 
L 387.233572 175.379425 
L 387.583415 176.221307 
L 387.933258 175.55776 
L 388.283101 175.671852 
L 388.632945 176.33195 
L 389.682475 175.693488 
L 390.032318 175.451603 
L 390.382161 176.452433 
L 390.732004 176.21655 
L 391.081848 176.977168 
L 391.431691 175.887416 
L 391.781534 176.256904 
L 392.131377 176.362777 
L 392.481221 175.833331 
L 393.180907 175.793318 
L 393.53075 176.410457 
L 393.880594 176.010869 
L 394.230437 175.973294 
L 394.930123 175.635988 
L 395.279967 175.867813 
L 395.62981 175.84295 
L 396.329496 176.308433 
L 396.67934 176.530575 
L 397.029183 175.556151 
L 397.379026 176.013475 
L 397.72887 176.017003 
L 398.078713 176.345195 
L 398.428556 175.139508 
L 399.128243 175.377084 
L 399.478086 175.782979 
L 399.827929 175.4227 
L 400.177772 175.800744 
L 400.527616 175.668727 
L 400.877459 175.788994 
L 401.227302 175.527982 
L 401.926989 175.857657 
L 403.326362 175.85444 
L 403.676205 175.697297 
L 404.026048 176.20142 
L 404.725735 175.237599 
L 405.075578 175.776461 
L 405.775264 175.51335 
L 406.125108 175.51361 
L 406.474951 175.284847 
L 406.824794 175.988658 
L 407.174638 175.15682 
L 407.524481 175.828069 
L 407.874324 175.4534 
L 408.224167 175.76782 
L 408.923854 175.469242 
L 409.973384 175.773003 
L 410.323227 175.578627 
L 410.67307 175.859677 
L 411.022913 175.333468 
L 411.372757 175.829719 
L 411.7226 175.65768 
L 412.422286 175.757424 
L 412.77213 176.020463 
L 413.121973 175.659318 
L 413.471816 175.960948 
L 413.821659 175.952687 
L 414.171503 176.320597 
L 414.521346 175.984955 
L 414.871189 176.126386 
L 415.221033 175.913653 
L 415.570876 175.519525 
L 415.920719 175.791608 
L 416.270562 175.351093 
L 416.620406 175.282828 
L 416.970249 175.970826 
L 417.320092 175.400552 
L 417.669935 175.178384 
L 418.019779 175.532004 
L 418.369622 175.700844 
L 419.069308 175.876546 
L 419.419152 175.29351 
L 420.468681 175.80121 
L 420.818525 175.731596 
L 421.168368 176.07433 
L 421.518211 175.832862 
L 422.217898 175.590428 
L 422.567741 175.82564 
L 422.917584 175.881331 
L 423.267428 176.103466 
L 423.617271 175.817807 
L 424.316957 175.589772 
L 425.366487 175.276529 
L 425.71633 174.986334 
L 426.76586 175.154045 
L 427.115703 174.90375 
L 427.465547 175.098655 
L 427.81539 174.969489 
L 428.165233 175.503733 
L 428.515076 174.699281 
L 428.86492 174.830775 
L 429.214763 174.606166 
L 429.564606 174.633752 
L 429.914449 174.794433 
L 430.264293 175.391126 
L 430.614136 174.277606 
L 431.663666 174.969307 
L 432.013509 174.620509 
L 432.363352 174.539502 
L 432.713196 174.604974 
L 433.063039 174.23742 
L 433.412882 174.810782 
L 433.762725 175.007167 
L 434.112569 174.51024 
L 434.462412 174.737232 
L 435.162098 174.761644 
L 435.511942 174.322663 
L 435.861785 174.866683 
L 436.561471 174.71044 
L 436.911315 174.335361 
L 437.261158 174.262668 
L 437.611001 174.890004 
L 437.960844 174.503134 
L 438.310688 174.750501 
L 438.660531 174.163995 
L 439.010374 175.057433 
L 439.710061 175.289857 
L 440.759591 175.032269 
L 441.459277 174.917818 
L 441.80912 175.166812 
L 442.158964 174.878764 
L 442.508807 174.897581 
L 443.208493 175.763753 
L 443.558337 175.513465 
L 443.90818 176.060368 
L 444.258023 175.325711 
L 444.607866 175.853369 
L 445.307553 174.817698 
L 445.657396 175.369934 
L 446.007239 174.990136 
L 446.357083 175.154369 
L 446.706926 175.499432 
L 447.056769 175.659211 
L 447.406612 175.602143 
L 448.106299 175.101298 
L 448.456142 175.393486 
L 448.805986 175.477245 
L 449.155829 175.193113 
L 449.505672 175.065682 
L 449.855515 175.310346 
L 450.205359 175.089074 
L 450.555202 174.589455 
L 450.905045 175.020915 
L 451.254888 174.789942 
L 451.604732 175.170339 
L 451.954575 174.946715 
L 453.353948 174.91047 
L 454.053634 175.034176 
L 454.753321 174.7419 
L 455.103164 175.353119 
L 455.453007 174.799489 
L 455.802851 175.076352 
L 456.152694 175.054057 
L 456.502537 175.155637 
L 456.85238 175.007391 
L 457.90191 175.080506 
L 458.251754 175.45836 
L 458.601597 175.097267 
L 458.95144 175.103046 
L 459.301283 174.84033 
L 460.00097 175.588443 
L 460.350813 175.226543 
L 461.0505 175.090935 
L 461.400343 175.331811 
L 462.449873 175.065495 
L 462.799716 175.659041 
L 463.149559 174.817642 
L 463.499402 175.154506 
L 464.548932 175.271672 
L 464.898775 175.981782 
L 465.948305 175.099164 
L 466.298149 175.10675 
L 466.647992 174.819697 
L 466.997835 175.458157 
L 467.347678 175.075811 
L 467.697522 175.090511 
L 468.047365 174.59064 
L 469.096895 175.066074 
L 469.446738 174.907704 
L 469.796581 175.031484 
L 470.146424 174.974791 
L 470.496268 175.370817 
L 470.846111 175.277961 
L 471.195954 175.574394 
L 471.545797 175.621487 
L 472.245484 175.01501 
L 472.595327 175.226884 
L 472.94517 175.197485 
L 473.295014 175.563862 
L 473.9947 175.056835 
L 474.344543 175.087308 
L 475.04423 176.028915 
L 475.394073 175.482654 
L 476.09376 175.421469 
L 476.443603 175.655308 
L 476.793446 175.350954 
L 477.14329 175.284323 
L 477.493133 175.867679 
L 477.842976 175.623143 
L 478.192819 175.74287 
L 478.542663 176.090551 
L 478.892506 175.536243 
L 479.242349 175.437969 
L 479.592192 175.585184 
L 480.291879 175.407295 
L 480.641722 175.396844 
L 480.991565 175.512791 
L 481.341409 175.506006 
L 481.691252 175.677124 
L 482.390938 175.620495 
L 482.740782 175.912077 
L 483.090625 175.748044 
L 483.440468 175.907883 
L 483.790312 175.842888 
L 484.140155 175.570896 
L 484.489998 175.719322 
L 484.839841 175.366759 
L 485.189685 175.554968 
L 485.889371 175.619115 
L 486.239214 175.734084 
L 486.938901 175.418141 
L 487.288744 175.665256 
L 487.638587 175.42406 
L 487.988431 175.678868 
L 488.338274 175.794127 
L 488.688117 175.439307 
L 489.03796 175.374074 
L 489.737647 175.81214 
L 490.08749 175.170856 
L 490.787177 176.05492 
L 491.13702 175.800837 
L 491.486863 176.17742 
L 491.836707 176.098905 
L 492.18655 175.668089 
L 492.536393 175.762785 
L 493.585923 175.407749 
L 493.935766 175.401051 
L 494.285609 175.14226 
L 494.635453 175.453254 
L 494.985296 175.296474 
L 496.034826 175.843262 
L 496.734512 175.359082 
L 497.084355 175.553939 
L 497.434199 175.953125 
L 497.784042 175.649579 
L 498.133885 175.86551 
L 498.483728 175.538244 
L 498.833572 175.60639 
L 499.183415 175.239481 
L 499.883101 175.029724 
L 500.232945 175.358277 
L 500.582788 175.38395 
L 500.932631 175.705881 
L 501.632318 175.534206 
L 502.332004 175.979912 
L 502.681848 175.951493 
L 503.031691 175.451366 
L 503.381534 175.692163 
L 503.731377 175.154082 
L 504.081221 175.62435 
L 504.431064 175.801177 
L 505.13075 175.250213 
L 505.480594 175.269055 
L 505.830437 175.004577 
L 506.18028 175.243714 
L 506.879967 175.222212 
L 507.22981 174.925321 
L 507.579653 175.719609 
L 507.929496 175.018409 
L 508.27934 174.866172 
L 508.979026 175.126445 
L 510.028556 175.063008 
L 510.378399 175.164063 
L 510.728243 175.082637 
L 511.078086 174.753869 
L 511.427929 175.529251 
L 511.777772 174.745589 
L 512.127616 175.200306 
L 512.477459 174.640105 
L 513.177145 174.773496 
L 513.526989 174.628807 
L 513.876832 174.816999 
L 514.226675 174.320973 
L 514.576518 174.891058 
L 514.926362 174.758141 
L 515.276205 175.333721 
L 515.626048 174.615325 
L 515.975891 174.957255 
L 516.325735 174.519125 
L 516.675578 174.369485 
L 517.025421 174.547141 
L 517.375264 174.596875 
L 517.725108 174.871741 
L 518.074951 174.476228 
L 519.124481 174.865028 
L 519.474324 174.663183 
L 519.824167 174.300513 
L 520.174011 174.332176 
L 520.523854 174.122625 
L 520.873697 174.063657 
L 521.22354 174.617358 
L 521.923227 174.055997 
L 522.27307 174.793337 
L 522.622913 174.703346 
L 523.3226 173.79846 
L 523.672443 174.224563 
L 524.022286 173.957166 
L 524.37213 174.163236 
L 524.721973 174.076515 
L 525.071816 174.60678 
L 525.421659 174.63188 
L 525.771503 174.09173 
L 526.121346 174.231991 
L 526.471189 174.029099 
L 527.170876 174.196165 
L 527.520719 173.860625 
L 527.870562 174.039714 
L 528.220406 174.080424 
L 528.570249 174.535802 
L 528.920092 174.68288 
L 529.269935 174.496243 
L 530.319465 174.624444 
L 530.669308 175.370094 
L 531.019152 175.459105 
L 531.368995 175.062151 
L 531.718838 175.70813 
L 532.068681 175.378239 
L 532.418525 175.605805 
L 532.768368 175.415055 
L 533.118211 175.426081 
L 533.468054 175.671406 
L 534.517584 175.141591 
L 534.867428 175.120498 
L 535.217271 175.228699 
L 535.916957 175.126698 
L 536.266801 175.180075 
L 536.616644 175.114895 
L 536.966487 175.495082 
L 537.31633 175.249774 
L 538.016017 175.353477 
L 538.36586 175.104242 
L 538.715703 175.302763 
L 539.065547 175.137802 
L 539.41539 175.286 
L 539.765233 174.993177 
L 540.115076 175.069556 
L 540.46492 174.911829 
L 540.814763 175.487017 
L 541.164606 175.348699 
L 541.514449 174.875487 
L 541.864293 175.107768 
L 542.214136 175.009889 
L 542.563979 175.148257 
L 542.913822 174.844329 
L 543.263666 174.962495 
L 543.613509 174.917892 
L 543.963352 174.723767 
L 544.313196 175.071114 
L 544.663039 175.143572 
L 545.362725 174.715026 
L 545.712569 174.857994 
L 546.412255 174.403719 
L 547.461785 174.587568 
L 547.811628 174.70854 
L 548.161471 174.958381 
L 548.511315 174.865504 
L 548.861158 175.156834 
L 549.560844 174.812023 
L 549.910688 175.153412 
L 550.260531 174.694456 
L 550.610374 175.073319 
L 550.960217 174.532314 
L 551.659904 174.548813 
L 552.009747 174.19441 
L 552.359591 174.577263 
L 552.709434 174.607275 
L 553.40912 174.430975 
L 554.108807 174.944196 
L 554.45865 174.943773 
L 554.808493 175.128253 
L 555.158337 174.756729 
L 555.50818 174.867139 
L 555.858023 174.271487 
L 556.55771 174.795752 
L 556.907553 174.594237 
L 557.257396 174.686828 
L 557.607239 174.967619 
L 558.306926 175.112421 
L 558.656769 174.799983 
L 559.356456 175.050415 
L 559.706299 174.966384 
L 560.405986 175.142008 
L 560.755829 174.940542 
L 561.105672 174.901938 
L 561.455515 175.041994 
L 561.805359 174.448311 
L 562.155202 174.955053 
L 562.505045 174.588529 
L 562.854888 174.582603 
L 563.204732 175.09925 
L 563.554575 174.769751 
L 563.904418 174.624125 
L 564.254261 174.763725 
L 565.303791 174.804461 
L 565.653634 174.839987 
L 566.003478 175.24804 
L 566.353321 174.811241 
L 566.703164 174.790241 
L 567.053007 174.615793 
L 567.402851 175.098092 
L 567.752694 174.706094 
L 568.102537 175.053526 
L 569.152067 174.658289 
L 569.851754 175.04318 
L 570.201597 174.987099 
L 570.901283 174.469332 
L 571.251127 174.094224 
L 572.300656 174.711585 
L 572.6505 174.852807 
L 573.350186 174.893967 
L 573.700029 174.348255 
L 574.399716 174.325425 
L 574.749559 174.577391 
L 575.099402 174.499028 
L 575.449246 174.940602 
L 575.799089 174.680428 
L 576.148932 174.775048 
L 576.498775 174.083276 
L 576.848619 174.597451 
L 577.198462 174.431522 
L 577.548305 174.893013 
L 577.898149 175.00367 
L 578.247992 174.67851 
L 578.597835 174.998638 
L 578.947678 175.097126 
L 579.297522 174.55285 
L 579.647365 174.432433 
L 579.997208 174.880158 
L 580.347051 174.638881 
L 580.696895 174.889929 
L 581.046738 175.365795 
L 581.396581 174.846776 
L 581.746424 175.294389 
L 582.096268 175.221588 
L 582.446111 175.351925 
L 583.145797 174.967717 
L 583.495641 174.865309 
L 583.845484 175.17812 
L 584.195327 174.70866 
L 584.54517 175.115616 
L 584.895014 175.295787 
L 585.5947 175.296309 
L 586.294387 175.137059 
L 586.64423 175.597111 
L 586.994073 175.39247 
L 587.343917 175.470972 
L 587.69376 175.22056 
L 588.043603 175.179252 
L 588.393446 175.262955 
L 588.74329 175.028791 
L 589.093133 175.606401 
L 589.442976 175.388649 
L 589.792819 174.96081 
L 590.142663 175.232376 
L 590.492506 175.022308 
L 590.842349 175.253861 
L 591.192192 174.939458 
L 591.542036 174.826633 
L 591.891879 175.216153 
L 592.241722 175.147765 
L 592.591565 175.453132 
L 593.291252 175.185711 
L 593.641095 175.289441 
L 593.990938 174.992861 
L 594.340782 175.043686 
L 594.690625 174.870666 
L 595.390312 175.337491 
L 595.740155 174.688911 
L 596.089998 174.941765 
L 596.439841 175.380579 
L 596.789685 174.959569 
L 597.139528 175.218896 
L 597.489371 174.785331 
L 597.839214 174.960916 
L 598.189058 174.774772 
L 599.238587 175.375697 
L 599.588431 174.951433 
L 600.288117 174.723969 
L 600.63796 174.871619 
L 600.987804 174.747094 
L 601.337647 174.815317 
L 601.68749 175.238504 
L 602.037333 175.158214 
L 602.387177 175.248126 
L 602.73702 175.016585 
L 603.086863 175.042835 
L 603.436707 174.643303 
L 603.78655 175.422416 
L 604.136393 175.322629 
L 604.486236 175.09364 
L 604.83608 175.064613 
L 605.185923 175.203828 
L 605.535766 174.96301 
L 605.885609 175.07807 
L 606.235453 175.620663 
L 606.585296 175.166139 
L 606.935139 175.048569 
L 607.634826 175.248919 
L 607.984669 175.615296 
L 609.034199 175.100458 
L 609.384042 175.251338 
L 609.733885 175.545411 
L 610.083728 175.364173 
L 610.783415 175.672359 
L 611.483101 175.086736 
L 611.832945 175.632781 
L 612.532631 176.064291 
L 612.882475 175.514316 
L 613.232318 175.343734 
L 613.582161 174.895813 
L 613.932004 175.439754 
L 614.281848 175.14674 
L 614.631691 175.634281 
L 614.981534 175.039696 
L 615.331377 174.964348 
L 615.681221 175.69932 
L 616.031064 175.296152 
L 616.380907 175.337905 
L 617.080594 175.951326 
L 617.430437 175.600356 
L 617.78028 175.888594 
L 618.130123 175.617654 
L 618.479967 175.871485 
L 619.179653 175.363879 
L 619.529496 175.649272 
L 619.87934 175.56723 
L 620.229183 175.802924 
L 620.92887 174.882236 
L 621.278713 175.344673 
L 621.978399 175.385966 
L 622.328243 175.078017 
L 622.678086 175.473733 
L 623.027929 175.124845 
L 623.377772 175.283917 
L 623.727616 175.792895 
L 624.077459 175.597265 
L 624.427302 175.173999 
L 625.126989 175.47276 
L 625.126989 175.47276 
" clip-path="url(#p3900b3df18)" style="fill: none; stroke: #1f77b4; stroke-width: 1.5; stroke-linecap: square"/>
   </g>
   <g id="line2d_15">
    <path d="M 117.854261 283.817858 
L 118.204105 296.03625 
L 118.553948 270.616898 
L 118.903791 261.343127 
L 119.253634 266.675624 
L 119.603478 254.3987 
L 119.953321 253.78483 
L 120.303164 234.718979 
L 120.653007 243.174054 
L 121.002851 233.622601 
L 121.352694 255.831372 
L 121.702537 226.820111 
L 122.05238 231.623087 
L 122.402224 222.755458 
L 122.752067 237.090497 
L 123.10191 221.800231 
L 123.451754 220.580769 
L 123.801597 239.851293 
L 124.15144 218.690556 
L 124.501283 208.012777 
L 124.851127 213.077702 
L 125.20097 203.210023 
L 125.550813 204.36703 
L 125.900656 200.127711 
L 126.2505 197.699217 
L 126.600343 197.009593 
L 126.950186 192.778947 
L 127.300029 193.284367 
L 127.999716 190.032498 
L 128.349559 190.98049 
L 128.699402 192.754977 
L 129.049246 191.632475 
L 129.748932 187.702186 
L 130.098775 186.31986 
L 130.448619 189.750291 
L 130.798462 188.198746 
L 131.148305 189.00049 
L 131.498149 189.320823 
L 131.847992 185.316259 
L 132.547678 184.835969 
L 132.897522 185.979726 
L 133.247365 188.292898 
L 133.597208 184.413948 
L 133.947051 186.018381 
L 134.296895 185.564117 
L 134.646738 183.829002 
L 134.996581 185.263654 
L 135.346424 184.827063 
L 135.696268 185.642403 
L 136.046111 185.081576 
L 136.395954 185.318168 
L 136.745797 184.356218 
L 137.095641 183.054028 
L 137.445484 183.091849 
L 137.795327 181.620767 
L 138.14517 181.838532 
L 138.495014 182.869973 
L 138.844857 182.690779 
L 139.1947 182.28129 
L 139.544543 180.870267 
L 139.894387 183.116401 
L 140.594073 184.052396 
L 140.943917 184.34861 
L 141.29376 182.464961 
L 141.993446 182.093607 
L 142.34329 184.792872 
L 142.693133 183.634699 
L 143.042976 183.261662 
L 143.392819 184.624761 
L 143.742663 183.487667 
L 144.092506 184.04581 
L 144.442349 182.432324 
L 144.792192 182.812326 
L 145.142036 182.662128 
L 145.491879 182.709696 
L 145.841722 182.390061 
L 146.191565 182.933603 
L 146.541409 185.113963 
L 146.891252 183.825193 
L 147.241095 181.5119 
L 147.590938 182.332163 
L 147.940782 182.657852 
L 148.290625 183.310738 
L 148.640468 183.531447 
L 148.990312 183.308215 
L 149.340155 183.62141 
L 149.689998 184.483335 
L 150.039841 183.45188 
L 150.739528 184.197178 
L 151.089371 183.120905 
L 151.439214 182.57126 
L 151.789058 183.383851 
L 152.138901 182.947738 
L 152.488744 183.167254 
L 152.838587 183.694203 
L 153.188431 183.057892 
L 153.538274 183.707169 
L 153.888117 182.282464 
L 154.23796 184.110702 
L 154.587804 183.132366 
L 154.937647 184.305063 
L 155.28749 182.879901 
L 155.637333 183.550493 
L 156.33702 183.501126 
L 156.686863 182.388915 
L 157.036707 182.417677 
L 157.38655 182.173322 
L 157.736393 183.391072 
L 158.43608 182.940126 
L 158.785923 182.46022 
L 159.135766 182.325477 
L 159.485609 181.724674 
L 159.835453 181.502345 
L 160.535139 182.799914 
L 161.234826 182.042545 
L 161.584669 182.333771 
L 161.934512 181.160114 
L 162.284355 183.896472 
L 162.634199 182.550055 
L 162.984042 182.064496 
L 163.333885 181.125233 
L 163.683728 181.238594 
L 164.033572 182.004937 
L 164.383415 182.161104 
L 164.733258 181.414516 
L 165.083101 182.304203 
L 165.432945 181.874481 
L 165.782788 181.798224 
L 166.132631 181.982022 
L 166.482475 181.109051 
L 166.832318 182.125077 
L 167.182161 182.440727 
L 167.881848 181.187696 
L 168.231691 181.751393 
L 168.581534 181.583518 
L 168.931377 182.175445 
L 169.281221 183.160066 
L 169.631064 182.022578 
L 169.980907 181.400837 
L 170.680594 182.736279 
L 171.030437 182.132305 
L 171.38028 183.201044 
L 171.730123 183.390734 
L 172.079967 183.243412 
L 172.42981 181.991815 
L 173.129496 182.274377 
L 173.47934 183.17882 
L 173.829183 183.428812 
L 174.179026 183.886167 
L 174.52887 182.608761 
L 174.878713 183.712115 
L 175.578399 183.277566 
L 175.928243 183.511026 
L 176.977772 183.633084 
L 177.327616 183.299605 
L 177.677459 183.783579 
L 178.027302 183.910268 
L 178.726989 184.92944 
L 179.076832 183.203228 
L 179.426675 183.314599 
L 179.776518 184.512217 
L 180.126362 183.829892 
L 180.476205 184.829618 
L 180.826048 183.795532 
L 181.525735 181.114258 
L 182.225421 183.511928 
L 182.575264 183.577943 
L 182.925108 183.326592 
L 183.274951 182.786861 
L 183.624794 183.101856 
L 183.974638 182.860106 
L 184.324481 182.896584 
L 184.674324 183.097378 
L 185.024167 182.191737 
L 185.374011 183.797359 
L 185.723854 182.707522 
L 186.073697 182.50586 
L 186.42354 183.114747 
L 186.773384 182.718723 
L 187.123227 182.923467 
L 187.47307 182.183745 
L 187.822913 183.353683 
L 188.172757 182.7453 
L 188.5226 183.01248 
L 188.872443 183.68453 
L 189.222286 181.987794 
L 189.921973 183.064775 
L 190.271816 183.524069 
L 190.621659 183.241964 
L 190.971503 183.384202 
L 191.321346 183.856913 
L 191.671189 184.648702 
L 192.021033 182.602124 
L 192.370876 183.351471 
L 192.720719 182.881703 
L 193.070562 182.699623 
L 193.420406 182.807006 
L 194.819779 184.604789 
L 195.169622 184.052045 
L 195.519465 183.243903 
L 195.869308 184.052092 
L 196.568995 183.603225 
L 196.918838 183.57647 
L 197.268681 184.190813 
L 197.618525 183.846776 
L 197.968368 183.1117 
L 198.318211 183.575398 
L 198.668054 183.826855 
L 199.017898 183.216567 
L 199.367741 183.100553 
L 199.717584 183.61975 
L 200.067428 183.712894 
L 200.417271 183.597435 
L 200.767114 182.929186 
L 201.116957 183.970208 
L 201.466801 183.329715 
L 202.166487 183.487367 
L 202.51633 184.025893 
L 202.866174 183.355025 
L 203.56586 184.172635 
L 203.915703 183.89308 
L 204.265547 184.720582 
L 204.61539 185.250018 
L 204.965233 183.991193 
L 205.315076 180.264595 
L 205.66492 179.379729 
L 206.014763 179.979928 
L 206.364606 179.808172 
L 206.714449 179.831676 
L 207.064293 180.597556 
L 207.414136 180.60864 
L 207.763979 181.204994 
L 208.113822 180.571995 
L 208.463666 180.389812 
L 208.813509 180.927543 
L 209.163352 181.159789 
L 209.513196 180.95655 
L 209.863039 181.658681 
L 210.212882 181.65998 
L 210.562725 181.207524 
L 210.912569 181.268454 
L 211.262412 181.946299 
L 211.612255 181.462368 
L 211.962098 181.327931 
L 212.311942 181.405739 
L 212.661785 181.830208 
L 213.011628 181.243396 
L 213.361471 181.198737 
L 213.711315 181.023432 
L 214.061158 181.396091 
L 214.411001 180.38087 
L 214.760844 181.313379 
L 215.110688 180.376577 
L 215.460531 180.39457 
L 215.810374 181.042059 
L 216.160217 180.401476 
L 216.510061 180.903968 
L 216.859904 181.080735 
L 217.209747 180.79097 
L 217.909434 181.338014 
L 218.259277 181.292395 
L 218.60912 181.127015 
L 218.958964 181.168368 
L 219.308807 180.728198 
L 219.65865 181.203847 
L 220.358337 180.210731 
L 221.407866 181.131196 
L 221.75771 180.356829 
L 222.807239 181.13129 
L 223.157083 180.48727 
L 223.506926 181.316777 
L 223.856769 180.843416 
L 224.206612 181.182363 
L 224.556456 181.339458 
L 224.906299 180.784706 
L 225.256142 180.901468 
L 225.605986 180.547993 
L 225.955829 180.537567 
L 226.305672 181.04459 
L 226.655515 180.596105 
L 227.355202 180.738678 
L 227.705045 181.393769 
L 228.054888 180.752169 
L 228.404732 180.657503 
L 228.754575 180.737657 
L 229.104418 181.107062 
L 229.454261 180.712911 
L 230.153948 181.124472 
L 230.503791 180.84352 
L 230.853634 181.219557 
L 231.203478 180.44609 
L 231.553321 181.06896 
L 231.903164 181.178658 
L 232.253007 180.837517 
L 232.602851 181.300394 
L 232.952694 181.567467 
L 233.302537 181.012683 
L 233.65238 181.07599 
L 234.002224 180.666583 
L 234.352067 180.522667 
L 234.70191 180.75596 
L 235.051754 180.732957 
L 235.401597 181.094926 
L 236.101283 180.734951 
L 236.451127 180.631432 
L 236.80097 180.665116 
L 237.500656 181.598188 
L 237.8505 180.864201 
L 238.200343 180.568699 
L 238.550186 180.707393 
L 238.900029 181.512054 
L 239.949559 181.481038 
L 240.299402 181.815024 
L 240.649246 181.333635 
L 240.999089 181.233244 
L 241.348932 180.895049 
L 241.698775 181.152924 
L 242.048619 181.111089 
L 242.748305 181.190319 
L 243.098149 181.018222 
L 243.447992 181.32288 
L 243.797835 181.040865 
L 244.147678 181.211261 
L 244.497522 180.891106 
L 244.847365 181.268086 
L 245.197208 181.388344 
L 245.547051 181.081676 
L 245.896895 181.037959 
L 246.246738 180.683913 
L 246.596581 181.45284 
L 246.946424 181.600966 
L 247.296268 180.824199 
L 247.646111 180.767479 
L 247.995954 181.045496 
L 248.345797 180.946243 
L 248.695641 180.980867 
L 249.045484 180.565906 
L 249.395327 181.129756 
L 249.74517 180.275914 
L 250.095014 180.746793 
L 250.7947 180.556783 
L 251.144543 180.362598 
L 251.494387 180.4968 
L 251.84423 180.354044 
L 252.194073 180.75142 
L 252.543917 180.748254 
L 252.89376 180.873944 
L 253.243603 180.736618 
L 253.593446 181.217443 
L 253.94329 180.804086 
L 254.293133 180.653515 
L 254.642976 181.057363 
L 254.992819 180.652628 
L 255.342663 180.766028 
L 255.692506 181.346359 
L 256.042349 180.19628 
L 256.392192 180.998391 
L 257.091879 180.976858 
L 257.441722 180.774304 
L 258.141409 181.364204 
L 258.491252 180.015446 
L 259.190938 181.177205 
L 259.540782 180.721899 
L 259.890625 180.500829 
L 260.240468 180.702456 
L 260.940155 176.307169 
L 261.289998 177.511804 
L 261.639841 177.385175 
L 261.989685 177.852736 
L 262.689371 178.433903 
L 263.039214 178.181649 
L 263.389058 178.338894 
L 263.738901 178.111825 
L 264.088744 178.553982 
L 264.438587 178.428131 
L 264.788431 178.580703 
L 265.138274 178.411208 
L 265.488117 178.595047 
L 265.83796 178.583323 
L 266.187804 178.704573 
L 266.537647 178.524822 
L 267.587177 179.340203 
L 267.93702 178.721279 
L 268.286863 179.195154 
L 268.636707 178.863247 
L 269.336393 178.904504 
L 270.03608 179.17992 
L 270.385923 178.598338 
L 270.735766 178.499958 
L 271.085609 178.959039 
L 271.435453 178.914453 
L 271.785296 178.258735 
L 272.135139 178.66337 
L 272.484982 178.254882 
L 272.834826 178.706815 
L 273.184669 178.492793 
L 273.534512 178.803644 
L 273.884355 178.574321 
L 274.234199 178.670493 
L 274.584042 178.526605 
L 274.933885 178.608478 
L 275.283728 179.052171 
L 275.633572 178.470828 
L 276.333258 178.955696 
L 277.032945 179.056176 
L 277.382788 178.722849 
L 277.732631 179.108168 
L 278.432318 179.04044 
L 278.782161 179.339111 
L 279.132004 178.821481 
L 279.481848 178.828895 
L 279.831691 178.372158 
L 280.531377 179.071322 
L 280.881221 178.823105 
L 281.93075 178.854966 
L 282.280594 178.638637 
L 282.98028 179.102823 
L 283.330123 178.935124 
L 283.679967 178.629359 
L 284.02981 179.069866 
L 284.379653 179.27838 
L 284.729496 179.042123 
L 285.07934 178.640631 
L 285.429183 178.912032 
L 286.12887 179.065539 
L 286.478713 178.941235 
L 286.828556 179.1502 
L 287.178399 179.023144 
L 287.528243 179.363355 
L 287.878086 178.954135 
L 288.227929 178.992939 
L 288.577772 179.443323 
L 288.927616 179.645349 
L 289.277459 178.806777 
L 289.627302 179.401296 
L 290.326989 178.679273 
L 290.676832 179.34932 
L 291.026675 179.115861 
L 291.376518 179.583493 
L 291.726362 179.197347 
L 292.426048 178.990594 
L 292.775891 179.357427 
L 293.475578 179.506311 
L 293.825421 179.485305 
L 294.175264 178.780965 
L 294.525108 179.151367 
L 294.874951 179.013556 
L 295.224794 179.135437 
L 295.924481 179.042252 
L 296.274324 179.472047 
L 296.624167 179.219821 
L 296.974011 179.364226 
L 297.323854 179.358175 
L 297.673697 179.004647 
L 298.02354 179.014748 
L 298.373384 179.397583 
L 298.723227 178.693202 
L 299.422913 179.419855 
L 300.1226 178.889672 
L 300.472443 178.929942 
L 300.822286 179.249873 
L 301.17213 179.169529 
L 301.521973 178.710206 
L 301.871816 179.049115 
L 302.571503 178.837573 
L 302.921346 178.79757 
L 303.271189 178.966607 
L 303.621033 178.738942 
L 303.970876 179.272193 
L 304.320719 178.8278 
L 304.670562 178.895308 
L 305.020406 179.253174 
L 305.720092 179.440098 
L 306.069935 179.186068 
L 306.769622 179.265858 
L 307.119465 179.092749 
L 307.469308 179.164606 
L 307.819152 178.955908 
L 308.168995 178.881991 
L 308.518838 178.564917 
L 308.868681 178.695836 
L 309.218525 179.29003 
L 309.568368 179.437605 
L 309.918211 178.950038 
L 311.317584 179.195519 
L 311.667428 179.007149 
L 312.716957 179.42847 
L 313.066801 178.795757 
L 313.416644 178.69425 
L 314.11633 179.310704 
L 314.466174 178.856549 
L 314.816017 178.975556 
L 315.16586 179.433609 
L 315.515703 179.442179 
L 315.865547 178.94465 
L 316.565233 178.815202 
L 317.614763 178.477733 
L 317.964606 178.114107 
L 318.314449 178.64986 
L 318.664293 178.578177 
L 319.014136 179.115575 
L 319.363979 178.742501 
L 319.713822 178.53909 
L 320.063666 178.845721 
L 320.413509 178.880085 
L 320.763352 179.131845 
L 321.113196 178.54065 
L 322.162725 178.706631 
L 322.512569 178.630018 
L 322.862412 178.677452 
L 323.212255 178.434561 
L 323.562098 179.006029 
L 323.911942 178.741302 
L 324.261785 179.194279 
L 324.611628 179.260951 
L 324.961471 179.191975 
L 325.311315 178.984786 
L 325.661158 179.185696 
L 326.360844 179.056956 
L 326.710688 179.137147 
L 327.060531 179.05843 
L 327.410374 178.759519 
L 327.760217 179.310868 
L 328.110061 178.868002 
L 328.459904 178.694117 
L 329.159591 178.9388 
L 329.509434 178.571324 
L 329.859277 179.132231 
L 330.20912 179.162256 
L 330.558964 178.782115 
L 330.908807 178.882387 
L 331.25865 178.708396 
L 331.608493 178.844637 
L 331.958337 178.779997 
L 332.30818 179.182431 
L 333.35771 178.875146 
L 333.707553 179.323337 
L 334.057396 179.191612 
L 334.407239 179.233337 
L 334.757083 179.028099 
L 335.106926 179.215886 
L 335.456769 178.892683 
L 335.806612 178.952811 
L 336.156456 178.803125 
L 337.555829 179.240258 
L 337.905672 179.068686 
L 338.255515 178.660861 
L 338.605359 178.658637 
L 338.955202 178.895783 
L 339.305045 178.579373 
L 340.004732 178.4952 
L 340.354575 178.801094 
L 340.704418 178.906604 
L 341.054261 178.386062 
L 342.103791 178.324831 
L 342.453634 178.630576 
L 343.153321 178.467981 
L 343.503164 178.548062 
L 343.853007 178.874228 
L 344.552694 178.417217 
L 344.902537 178.742675 
L 345.602224 178.235246 
L 346.30191 178.685491 
L 346.651754 178.603752 
L 347.001597 178.646164 
L 347.701283 178.342603 
L 348.051127 178.461334 
L 348.40097 178.215457 
L 348.750813 178.496797 
L 349.100656 178.551274 
L 349.4505 178.449548 
L 349.800343 178.600133 
L 350.849873 178.732442 
L 351.199716 179.012389 
L 351.549559 178.867877 
L 351.899402 178.586218 
L 352.249246 178.706716 
L 352.599089 179.022021 
L 352.948932 178.855143 
L 353.648619 179.334006 
L 353.998462 178.04463 
L 354.348305 178.856063 
L 354.698149 179.220334 
L 355.047992 178.730664 
L 355.397835 179.094774 
L 355.747678 178.792007 
L 356.097522 178.785669 
L 356.447365 178.992825 
L 356.797208 178.877804 
L 358.896268 178.995964 
L 359.945797 178.571518 
L 360.295641 178.878843 
L 360.645484 178.876594 
L 360.995327 178.7059 
L 361.34517 178.674572 
L 361.695014 178.451724 
L 362.044857 177.283083 
L 362.3947 177.517113 
L 362.744543 178.409482 
L 363.094387 178.541538 
L 363.44423 178.504045 
L 363.794073 178.165852 
L 364.143917 178.367274 
L 364.49376 179.048832 
L 364.843603 179.06605 
L 365.193446 178.751179 
L 365.54329 178.59141 
L 365.893133 178.136257 
L 366.242976 178.453629 
L 366.592819 178.395558 
L 366.942663 178.06291 
L 367.292506 178.169817 
L 367.642349 178.550845 
L 367.992192 178.260967 
L 368.342036 178.422489 
L 368.691879 178.437498 
L 369.041722 178.20868 
L 369.391565 177.831384 
L 369.741409 178.375971 
L 370.091252 177.778779 
L 370.441095 176.356567 
L 371.140782 177.258387 
L 371.490625 177.304316 
L 372.540155 177.717315 
L 373.239841 177.815701 
L 373.589685 177.507966 
L 374.289371 177.424103 
L 374.639214 177.490708 
L 375.338901 177.292338 
L 376.038587 178.300794 
L 376.388431 178.085515 
L 376.738274 178.436069 
L 377.088117 178.042457 
L 377.43796 177.006199 
L 377.787804 177.608689 
L 378.137647 177.794829 
L 378.48749 177.650742 
L 378.837333 178.096042 
L 379.187177 177.845612 
L 379.886863 177.919014 
L 380.58655 178.002204 
L 380.936393 177.627559 
L 381.286236 178.074846 
L 381.63608 178.063833 
L 382.335766 177.697961 
L 382.685609 177.852067 
L 383.035453 178.157186 
L 383.385296 177.888062 
L 383.735139 178.266098 
L 384.084982 178.081566 
L 384.434826 177.563687 
L 384.784669 177.630044 
L 385.134512 177.948154 
L 385.484355 177.919448 
L 385.834199 177.460672 
L 386.184042 177.940087 
L 386.533885 177.907446 
L 387.233572 177.149796 
L 387.933258 178.086275 
L 388.283101 177.875391 
L 388.632945 177.827473 
L 388.982788 177.428997 
L 389.332631 177.707046 
L 389.682475 177.796431 
L 390.032318 177.61867 
L 390.382161 177.743852 
L 390.732004 178.210744 
L 391.081848 178.235982 
L 391.431691 177.858813 
L 391.781534 178.153955 
L 392.481221 178.032912 
L 392.831064 177.874922 
L 393.180907 178.017389 
L 393.53075 177.795975 
L 394.230437 178.158146 
L 394.58028 177.61645 
L 394.930123 178.124577 
L 395.279967 177.874549 
L 395.62981 177.902825 
L 395.979653 177.655145 
L 396.329496 177.823791 
L 397.379026 177.543045 
L 397.72887 177.943777 
L 398.078713 177.654174 
L 398.778399 178.014056 
L 399.128243 177.767172 
L 399.478086 178.061381 
L 399.827929 178.012416 
L 400.527616 177.784691 
L 400.877459 177.890452 
L 401.227302 177.582448 
L 401.577145 178.045734 
L 401.926989 177.688063 
L 402.626675 177.795479 
L 402.976518 177.781499 
L 403.326362 178.085286 
L 404.026048 177.866619 
L 404.725735 177.575934 
L 405.075578 178.207843 
L 405.425421 177.68741 
L 405.775264 177.646399 
L 406.125108 177.996321 
L 406.474951 178.155769 
L 406.824794 177.779382 
L 407.174638 177.581883 
L 407.874324 177.728854 
L 408.224167 177.601826 
L 408.574011 177.299808 
L 408.923854 177.720555 
L 409.273697 177.771553 
L 409.62354 177.986081 
L 409.973384 177.917202 
L 410.323227 178.056569 
L 410.67307 177.881752 
L 411.022913 178.013289 
L 411.372757 177.845746 
L 412.422286 178.000163 
L 413.121973 178.09435 
L 414.521346 178.028538 
L 414.871189 177.575061 
L 415.221033 177.903325 
L 416.270562 177.92304 
L 416.620406 178.296702 
L 416.970249 177.536041 
L 417.669935 178.299139 
L 418.369622 177.597842 
L 418.719465 177.571086 
L 419.069308 178.083496 
L 419.419152 177.795569 
L 419.768995 178.260632 
L 420.118838 177.783564 
L 420.468681 177.63248 
L 420.818525 177.853258 
L 421.168368 177.876817 
L 421.518211 178.025955 
L 421.868054 178.30027 
L 422.217898 177.978471 
L 422.567741 178.253196 
L 422.917584 178.281086 
L 423.267428 177.919674 
L 423.617271 177.731118 
L 423.967114 178.128675 
L 424.316957 177.977383 
L 424.666801 177.955703 
L 425.366487 177.571691 
L 425.71633 177.732882 
L 426.066174 177.715864 
L 426.416017 177.523051 
L 426.76586 177.942678 
L 427.465547 177.802956 
L 428.515076 177.785892 
L 428.86492 177.602954 
L 429.564606 177.613392 
L 429.914449 177.858624 
L 430.264293 177.713087 
L 430.614136 178.067712 
L 430.963979 178.040431 
L 431.313822 177.677158 
L 431.663666 177.98925 
L 432.013509 178.460061 
L 432.713196 177.764607 
L 433.412882 177.900637 
L 433.762725 177.608285 
L 434.112569 177.506282 
L 434.462412 177.830049 
L 434.812255 177.85087 
L 435.162098 178.206318 
L 435.511942 177.991505 
L 437.261158 177.904066 
L 437.611001 177.609825 
L 437.960844 177.935633 
L 438.660531 177.593403 
L 439.010374 178.000685 
L 439.360217 177.477818 
L 439.710061 177.196323 
L 440.059904 177.346474 
L 440.409747 177.253075 
L 441.109434 177.796553 
L 441.80912 177.323836 
L 442.508807 177.705141 
L 442.85865 177.616126 
L 443.208493 177.672933 
L 443.558337 177.425612 
L 444.258023 177.67359 
L 444.607866 177.478151 
L 445.307553 177.493176 
L 445.657396 177.631309 
L 446.357083 177.351125 
L 446.706926 177.683864 
L 447.056769 177.323841 
L 447.756456 177.793755 
L 448.106299 177.534712 
L 448.456142 177.61511 
L 448.805986 177.548197 
L 449.155829 177.778557 
L 449.505672 177.545677 
L 449.855515 177.855182 
L 450.205359 177.636581 
L 450.555202 177.696012 
L 450.905045 177.174064 
L 451.254888 177.704685 
L 451.604732 177.760027 
L 451.954575 177.226968 
L 452.654261 177.536344 
L 453.353948 177.571081 
L 453.703791 177.639889 
L 454.053634 177.566215 
L 454.403478 177.108226 
L 454.753321 177.259375 
L 455.103164 177.267482 
L 455.453007 177.559062 
L 455.802851 177.52698 
L 456.152694 177.324201 
L 456.85238 177.3596 
L 457.90191 177.391282 
L 458.251754 177.669879 
L 458.601597 177.393594 
L 458.95144 177.417006 
L 459.301283 177.634143 
L 459.651127 177.420856 
L 460.350813 177.795727 
L 460.700656 177.478947 
L 461.0505 177.79415 
L 461.400343 177.415404 
L 461.750186 177.603085 
L 462.100029 177.194883 
L 462.799716 177.503105 
L 463.149559 177.498209 
L 463.499402 177.725308 
L 463.849246 177.256331 
L 464.199089 177.579251 
L 465.248619 177.829098 
L 465.948305 177.239961 
L 466.298149 177.373218 
L 466.647992 177.19942 
L 467.347678 177.382436 
L 467.697522 177.04825 
L 468.047365 177.5372 
L 469.796581 177.143614 
L 470.146424 177.187188 
L 470.496268 177.487592 
L 470.846111 177.445601 
L 471.195954 177.517355 
L 471.895641 177.051098 
L 472.245484 177.264154 
L 472.595327 177.21569 
L 472.94517 177.617506 
L 473.295014 177.284331 
L 473.9947 177.568931 
L 474.694387 177.4427 
L 475.04423 177.565758 
L 475.394073 177.27728 
L 475.743917 177.314649 
L 476.09376 177.464521 
L 477.14329 177.313854 
L 477.493133 177.39347 
L 477.842976 177.308063 
L 478.192819 177.620741 
L 478.542663 177.496708 
L 478.892506 177.524718 
L 479.242349 177.423802 
L 479.942036 177.515055 
L 480.291879 177.21551 
L 480.641722 177.41034 
L 480.991565 177.216722 
L 481.691252 177.224484 
L 482.041095 177.536705 
L 482.390938 177.447248 
L 483.090625 177.447939 
L 483.790312 177.199634 
L 484.140155 177.384945 
L 484.489998 177.292905 
L 484.839841 177.413947 
L 485.189685 177.333702 
L 485.889371 177.562299 
L 486.239214 177.384449 
L 486.589058 177.542955 
L 486.938901 177.431033 
L 488.338274 177.627174 
L 488.688117 177.363271 
L 489.03796 177.372632 
L 489.387804 177.205327 
L 489.737647 177.38526 
L 490.08749 177.076211 
L 490.787177 177.444314 
L 491.13702 177.242951 
L 491.486863 177.368122 
L 491.836707 177.080414 
L 492.18655 177.347099 
L 492.886236 177.026433 
L 493.23608 177.1768 
L 493.935766 177.028097 
L 494.285609 177.100126 
L 494.635453 176.972115 
L 494.985296 177.068654 
L 495.335139 177.494952 
L 495.684982 177.185032 
L 496.384669 177.385306 
L 496.734512 177.107246 
L 497.084355 177.406274 
L 497.434199 177.221372 
L 498.133885 177.105469 
L 498.483728 177.211271 
L 498.833572 177.109471 
L 499.183415 177.313174 
L 499.533258 176.91902 
L 499.883101 177.240559 
L 500.582788 177.207394 
L 500.932631 177.375151 
L 501.282475 177.170007 
L 501.982161 177.225124 
L 502.332004 177.471201 
L 502.681848 177.145233 
L 505.13075 177.050052 
L 505.480594 177.525836 
L 505.830437 177.563772 
L 506.18028 176.77707 
L 506.530123 176.928335 
L 507.22981 177.011568 
L 507.579653 176.757037 
L 507.929496 176.67573 
L 508.629183 176.974521 
L 508.979026 176.730409 
L 509.32887 176.669991 
L 509.678713 176.937863 
L 510.028556 176.909039 
L 510.378399 176.561085 
L 510.728243 176.808391 
L 511.078086 176.852271 
L 511.427929 177.077189 
L 511.777772 176.76503 
L 512.827302 176.91867 
L 513.177145 176.801559 
L 513.876832 176.914031 
L 514.226675 177.053432 
L 514.576518 177.036548 
L 514.926362 176.672695 
L 515.626048 177.09383 
L 515.975891 177.426862 
L 516.325735 177.204336 
L 516.675578 176.790725 
L 517.025421 176.658547 
L 517.375264 176.8656 
L 517.725108 176.747908 
L 518.074951 176.796739 
L 518.424794 177.162728 
L 518.774638 176.704809 
L 519.474324 176.827744 
L 519.824167 176.720319 
L 520.523854 176.943031 
L 520.873697 176.754891 
L 521.22354 176.98803 
L 521.573384 176.82597 
L 521.923227 176.938219 
L 522.27307 177.172628 
L 523.3226 176.919058 
L 523.672443 177.09385 
L 524.022286 176.848367 
L 524.37213 176.937287 
L 524.721973 176.841954 
L 525.071816 177.060215 
L 526.471189 177.360961 
L 526.821033 177.000992 
L 527.170876 177.068446 
L 527.520719 176.961793 
L 528.570249 177.234087 
L 528.920092 177.019088 
L 529.619779 176.947948 
L 530.319465 176.827865 
L 530.669308 176.868111 
L 531.368995 177.343572 
L 531.718838 176.639358 
L 532.068681 176.952866 
L 532.418525 176.885712 
L 532.768368 177.198339 
L 533.468054 177.086263 
L 534.867428 177.078116 
L 535.217271 176.935333 
L 535.567114 177.421 
L 536.266801 176.864784 
L 536.616644 177.185512 
L 536.966487 177.292385 
L 537.666174 177.291676 
L 538.36586 177.48032 
L 538.715703 177.014991 
L 539.065547 177.421508 
L 539.41539 176.837506 
L 540.115076 176.948537 
L 540.46492 177.083945 
L 540.814763 177.063255 
L 541.514449 176.688769 
L 541.864293 176.87413 
L 542.563979 176.824708 
L 542.913822 177.080654 
L 543.263666 176.883058 
L 543.613509 177.150074 
L 543.963352 176.822227 
L 544.313196 177.220801 
L 545.012882 176.885472 
L 545.362725 176.948225 
L 546.062412 176.838725 
L 547.461785 177.030155 
L 547.811628 177.113192 
L 549.211001 176.941307 
L 549.560844 177.216422 
L 549.910688 177.0715 
L 550.260531 176.749692 
L 551.659904 176.855799 
L 552.009747 177.302895 
L 552.359591 176.702194 
L 553.059277 176.879696 
L 553.758964 177.262478 
L 554.108807 176.891439 
L 554.45865 177.086103 
L 554.808493 176.939443 
L 555.158337 177.08215 
L 555.50818 176.91568 
L 555.858023 177.140695 
L 556.207866 176.564308 
L 556.55771 176.748101 
L 556.907553 176.632991 
L 557.607239 177.228868 
L 557.957083 176.968957 
L 558.656769 177.000699 
L 559.006612 177.046369 
L 559.356456 176.915792 
L 560.405986 177.028881 
L 560.755829 176.815194 
L 561.455515 177.193528 
L 562.505045 177.066771 
L 562.854888 176.776171 
L 563.204732 177.009432 
L 564.254261 176.754545 
L 564.604105 176.834474 
L 564.953948 176.553647 
L 565.303791 176.598635 
L 566.003478 177.233792 
L 566.353321 177.087655 
L 566.703164 176.686539 
L 567.053007 176.834051 
L 567.402851 176.625862 
L 567.752694 176.904345 
L 569.152067 176.846643 
L 569.50191 176.918835 
L 569.851754 176.798165 
L 570.201597 177.016373 
L 570.55144 176.801931 
L 570.901283 176.802418 
L 571.251127 177.06533 
L 571.60097 176.845681 
L 572.300656 177.282223 
L 572.6505 177.389364 
L 573.000343 176.890125 
L 573.700029 176.64128 
L 574.049873 176.832643 
L 574.399716 176.721689 
L 574.749559 177.003486 
L 575.099402 176.964232 
L 575.449246 176.348124 
L 575.799089 176.464538 
L 576.148932 176.862491 
L 576.498775 177.009542 
L 576.848619 176.900509 
L 577.198462 177.085592 
L 577.548305 176.882199 
L 577.898149 176.952801 
L 578.597835 176.884267 
L 578.947678 176.61444 
L 579.997208 177.117157 
L 580.696895 176.311826 
L 581.396581 176.567716 
L 581.746424 176.409771 
L 582.096268 176.425195 
L 582.446111 176.705677 
L 582.795954 176.38355 
L 583.145797 176.461522 
L 583.495641 176.353858 
L 583.845484 176.847341 
L 584.195327 176.674799 
L 584.895014 176.709777 
L 585.244857 176.535212 
L 585.5947 176.666492 
L 585.944543 176.617644 
L 586.294387 176.806423 
L 586.64423 176.691997 
L 586.994073 176.78729 
L 587.343917 176.601672 
L 587.69376 176.617892 
L 588.043603 176.421578 
L 588.393446 176.646928 
L 588.74329 176.509849 
L 589.093133 176.540546 
L 589.442976 176.748245 
L 589.792819 176.409655 
L 591.192192 176.671167 
L 591.542036 176.257026 
L 591.891879 176.622751 
L 592.241722 176.509147 
L 592.941409 176.78122 
L 593.291252 176.550826 
L 593.641095 176.768006 
L 593.990938 176.527554 
L 594.340782 176.716134 
L 594.690625 176.537919 
L 595.040468 176.826295 
L 595.390312 176.697354 
L 595.740155 176.723795 
L 596.089998 176.905307 
L 596.439841 176.580067 
L 596.789685 176.968965 
L 597.139528 176.963992 
L 598.189058 176.447719 
L 598.538901 176.91135 
L 599.238587 176.756639 
L 599.938274 176.761863 
L 600.63796 176.006868 
L 602.387177 176.770917 
L 602.73702 176.614227 
L 603.086863 176.312562 
L 603.78655 177.040576 
L 604.486236 176.38258 
L 605.185923 176.734414 
L 605.885609 176.713965 
L 606.235453 176.83896 
L 606.585296 176.527204 
L 606.935139 176.967047 
L 607.634826 176.916944 
L 607.984669 176.64275 
L 608.684355 176.79026 
L 609.733885 176.735619 
L 610.083728 176.893738 
L 610.433572 176.885846 
L 610.783415 176.603605 
L 611.133258 177.128598 
L 611.483101 176.585898 
L 611.832945 176.673675 
L 612.532631 176.610445 
L 612.882475 176.342576 
L 613.232318 176.415824 
L 613.582161 176.636933 
L 613.932004 176.340258 
L 614.281848 176.518017 
L 614.981534 176.594589 
L 615.331377 176.850843 
L 616.031064 176.578251 
L 616.380907 176.715695 
L 617.080594 176.601723 
L 617.430437 176.91697 
L 617.78028 176.716238 
L 618.130123 176.655579 
L 618.479967 176.919993 
L 618.82981 176.610525 
L 620.229183 176.988822 
L 620.579026 176.840042 
L 620.92887 176.490836 
L 621.278713 176.542949 
L 621.628556 176.479016 
L 621.978399 176.676515 
L 622.328243 176.434875 
L 623.377772 176.635202 
L 623.727616 176.422845 
L 624.077459 176.695154 
L 625.126989 176.524661 
L 625.126989 176.524661 
" clip-path="url(#p3900b3df18)" style="fill: none; stroke: #ff7f0e; stroke-width: 1.5; stroke-linecap: square"/>
   </g>
   <g id="patch_3">
    <path d="M 92.490625 308.63625 
L 92.490625 31.43625 
" style="fill: none; stroke: #000000; stroke-width: 0.8; stroke-linejoin: miter; stroke-linecap: square"/>
   </g>
   <g id="patch_4">
    <path d="M 650.490625 308.63625 
L 650.490625 31.43625 
" style="fill: none; stroke: #000000; stroke-width: 0.8; stroke-linejoin: miter; stroke-linecap: square"/>
   </g>
   <g id="patch_5">
    <path d="M 92.490625 308.63625 
L 650.490625 308.63625 
" style="fill: none; stroke: #000000; stroke-width: 0.8; stroke-linejoin: miter; stroke-linecap: square"/>
   </g>
   <g id="patch_6">
    <path d="M 92.490625 31.43625 
L 650.490625 31.43625 
" style="fill: none; stroke: #000000; stroke-width: 0.8; stroke-linejoin: miter; stroke-linecap: square"/>
   </g>
   <g id="text_16">
    <!-- Generator and Discriminator Loss During Training -->
    <g transform="translate(74.258125 25.43625) scale(0.24 -0.24)">
     <defs>
      <path id="DejaVuSans-47" d="M 3809 666 
L 3809 1919 
L 2778 1919 
L 2778 2438 
L 4434 2438 
L 4434 434 
Q 4069 175 3628 42 
Q 3188 -91 2688 -91 
Q 1594 -91 976 548 
Q 359 1188 359 2328 
Q 359 3472 976 4111 
Q 1594 4750 2688 4750 
Q 3144 4750 3555 4637 
Q 3966 4525 4313 4306 
L 4313 3634 
Q 3963 3931 3569 4081 
Q 3175 4231 2741 4231 
Q 1884 4231 1454 3753 
Q 1025 3275 1025 2328 
Q 1025 1384 1454 906 
Q 1884 428 2741 428 
Q 3075 428 3337 486 
Q 3600 544 3809 666 
z
" transform="scale(0.015625)"/>
      <path id="DejaVuSans-20" transform="scale(0.015625)"/>
      <path id="DejaVuSans-64" d="M 2906 2969 
L 2906 4863 
L 3481 4863 
L 3481 0 
L 2906 0 
L 2906 525 
Q 2725 213 2448 61 
Q 2172 -91 1784 -91 
Q 1150 -91 751 415 
Q 353 922 353 1747 
Q 353 2572 751 3078 
Q 1150 3584 1784 3584 
Q 2172 3584 2448 3432 
Q 2725 3281 2906 2969 
z
M 947 1747 
Q 947 1113 1208 752 
Q 1469 391 1925 391 
Q 2381 391 2643 752 
Q 2906 1113 2906 1747 
Q 2906 2381 2643 2742 
Q 2381 3103 1925 3103 
Q 1469 3103 1208 2742 
Q 947 2381 947 1747 
z
" transform="scale(0.015625)"/>
      <path id="DejaVuSans-44" d="M 1259 4147 
L 1259 519 
L 2022 519 
Q 2988 519 3436 956 
Q 3884 1394 3884 2338 
Q 3884 3275 3436 3711 
Q 2988 4147 2022 4147 
L 1259 4147 
z
M 628 4666 
L 1925 4666 
Q 3281 4666 3915 4102 
Q 4550 3538 4550 2338 
Q 4550 1131 3912 565 
Q 3275 0 1925 0 
L 628 0 
L 628 4666 
z
" transform="scale(0.015625)"/>
      <path id="DejaVuSans-63" d="M 3122 3366 
L 3122 2828 
Q 2878 2963 2633 3030 
Q 2388 3097 2138 3097 
Q 1578 3097 1268 2742 
Q 959 2388 959 1747 
Q 959 1106 1268 751 
Q 1578 397 2138 397 
Q 2388 397 2633 464 
Q 2878 531 3122 666 
L 3122 134 
Q 2881 22 2623 -34 
Q 2366 -91 2075 -91 
Q 1284 -91 818 406 
Q 353 903 353 1747 
Q 353 2603 823 3093 
Q 1294 3584 2113 3584 
Q 2378 3584 2631 3529 
Q 2884 3475 3122 3366 
z
" transform="scale(0.015625)"/>
      <path id="DejaVuSans-6d" d="M 3328 2828 
Q 3544 3216 3844 3400 
Q 4144 3584 4550 3584 
Q 5097 3584 5394 3201 
Q 5691 2819 5691 2113 
L 5691 0 
L 5113 0 
L 5113 2094 
Q 5113 2597 4934 2840 
Q 4756 3084 4391 3084 
Q 3944 3084 3684 2787 
Q 3425 2491 3425 1978 
L 3425 0 
L 2847 0 
L 2847 2094 
Q 2847 2600 2669 2842 
Q 2491 3084 2119 3084 
Q 1678 3084 1418 2786 
Q 1159 2488 1159 1978 
L 1159 0 
L 581 0 
L 581 3500 
L 1159 3500 
L 1159 2956 
Q 1356 3278 1631 3431 
Q 1906 3584 2284 3584 
Q 2666 3584 2933 3390 
Q 3200 3197 3328 2828 
z
" transform="scale(0.015625)"/>
      <path id="DejaVuSans-75" d="M 544 1381 
L 544 3500 
L 1119 3500 
L 1119 1403 
Q 1119 906 1312 657 
Q 1506 409 1894 409 
Q 2359 409 2629 706 
Q 2900 1003 2900 1516 
L 2900 3500 
L 3475 3500 
L 3475 0 
L 2900 0 
L 2900 538 
Q 2691 219 2414 64 
Q 2138 -91 1772 -91 
Q 1169 -91 856 284 
Q 544 659 544 1381 
z
M 1991 3584 
L 1991 3584 
z
" transform="scale(0.015625)"/>
      <path id="DejaVuSans-67" d="M 2906 1791 
Q 2906 2416 2648 2759 
Q 2391 3103 1925 3103 
Q 1463 3103 1205 2759 
Q 947 2416 947 1791 
Q 947 1169 1205 825 
Q 1463 481 1925 481 
Q 2391 481 2648 825 
Q 2906 1169 2906 1791 
z
M 3481 434 
Q 3481 -459 3084 -895 
Q 2688 -1331 1869 -1331 
Q 1566 -1331 1297 -1286 
Q 1028 -1241 775 -1147 
L 775 -588 
Q 1028 -725 1275 -790 
Q 1522 -856 1778 -856 
Q 2344 -856 2625 -561 
Q 2906 -266 2906 331 
L 2906 616 
Q 2728 306 2450 153 
Q 2172 0 1784 0 
Q 1141 0 747 490 
Q 353 981 353 1791 
Q 353 2603 747 3093 
Q 1141 3584 1784 3584 
Q 2172 3584 2450 3431 
Q 2728 3278 2906 2969 
L 2906 3500 
L 3481 3500 
L 3481 434 
z
" transform="scale(0.015625)"/>
      <path id="DejaVuSans-54" d="M -19 4666 
L 3928 4666 
L 3928 4134 
L 2272 4134 
L 2272 0 
L 1638 0 
L 1638 4134 
L -19 4134 
L -19 4666 
z
" transform="scale(0.015625)"/>
     </defs>
     <use xlink:href="#DejaVuSans-47"/>
     <use xlink:href="#DejaVuSans-65" x="77.490234"/>
     <use xlink:href="#DejaVuSans-6e" x="139.013672"/>
     <use xlink:href="#DejaVuSans-65" x="202.392578"/>
     <use xlink:href="#DejaVuSans-72" x="263.916016"/>
     <use xlink:href="#DejaVuSans-61" x="305.029297"/>
     <use xlink:href="#DejaVuSans-74" x="366.308594"/>
     <use xlink:href="#DejaVuSans-6f" x="405.517578"/>
     <use xlink:href="#DejaVuSans-72" x="466.699219"/>
     <use xlink:href="#DejaVuSans-20" x="507.8125"/>
     <use xlink:href="#DejaVuSans-61" x="539.599609"/>
     <use xlink:href="#DejaVuSans-6e" x="600.878906"/>
     <use xlink:href="#DejaVuSans-64" x="664.257812"/>
     <use xlink:href="#DejaVuSans-20" x="727.734375"/>
     <use xlink:href="#DejaVuSans-44" x="759.521484"/>
     <use xlink:href="#DejaVuSans-69" x="836.523438"/>
     <use xlink:href="#DejaVuSans-73" x="864.306641"/>
     <use xlink:href="#DejaVuSans-63" x="916.40625"/>
     <use xlink:href="#DejaVuSans-72" x="971.386719"/>
     <use xlink:href="#DejaVuSans-69" x="1012.5"/>
     <use xlink:href="#DejaVuSans-6d" x="1040.283203"/>
     <use xlink:href="#DejaVuSans-69" x="1137.695312"/>
     <use xlink:href="#DejaVuSans-6e" x="1165.478516"/>
     <use xlink:href="#DejaVuSans-61" x="1228.857422"/>
     <use xlink:href="#DejaVuSans-74" x="1290.136719"/>
     <use xlink:href="#DejaVuSans-6f" x="1329.345703"/>
     <use xlink:href="#DejaVuSans-72" x="1390.527344"/>
     <use xlink:href="#DejaVuSans-20" x="1431.640625"/>
     <use xlink:href="#DejaVuSans-4c" x="1463.427734"/>
     <use xlink:href="#DejaVuSans-6f" x="1517.390625"/>
     <use xlink:href="#DejaVuSans-73" x="1578.572266"/>
     <use xlink:href="#DejaVuSans-73" x="1630.671875"/>
     <use xlink:href="#DejaVuSans-20" x="1682.771484"/>
     <use xlink:href="#DejaVuSans-44" x="1714.558594"/>
     <use xlink:href="#DejaVuSans-75" x="1791.560547"/>
     <use xlink:href="#DejaVuSans-72" x="1854.939453"/>
     <use xlink:href="#DejaVuSans-69" x="1896.052734"/>
     <use xlink:href="#DejaVuSans-6e" x="1923.835938"/>
     <use xlink:href="#DejaVuSans-67" x="1987.214844"/>
     <use xlink:href="#DejaVuSans-20" x="2050.691406"/>
     <use xlink:href="#DejaVuSans-54" x="2082.478516"/>
     <use xlink:href="#DejaVuSans-72" x="2128.8125"/>
     <use xlink:href="#DejaVuSans-61" x="2169.925781"/>
     <use xlink:href="#DejaVuSans-69" x="2231.205078"/>
     <use xlink:href="#DejaVuSans-6e" x="2258.988281"/>
     <use xlink:href="#DejaVuSans-69" x="2322.367188"/>
     <use xlink:href="#DejaVuSans-6e" x="2350.150391"/>
     <use xlink:href="#DejaVuSans-67" x="2413.529297"/>
    </g>
   </g>
   <g id="legend_1">
    <g id="patch_7">
     <path d="M 556.99375 106.14875 
L 636.490625 106.14875 
Q 640.490625 106.14875 640.490625 102.14875 
L 640.490625 45.43625 
Q 640.490625 41.43625 636.490625 41.43625 
L 556.99375 41.43625 
Q 552.99375 41.43625 552.99375 45.43625 
L 552.99375 102.14875 
Q 552.99375 106.14875 556.99375 106.14875 
z
" style="fill: #ffffff; opacity: 0.8; stroke: #cccccc; stroke-linejoin: miter"/>
    </g>
    <g id="line2d_16">
     <path d="M 560.99375 57.633125 
L 580.99375 57.633125 
L 600.99375 57.633125 
" style="fill: none; stroke: #1f77b4; stroke-width: 1.5; stroke-linecap: square"/>
    </g>
    <g id="text_17">
     <!-- G -->
     <g transform="translate(616.99375 64.633125) scale(0.2 -0.2)">
      <use xlink:href="#DejaVuSans-47"/>
     </g>
    </g>
    <g id="line2d_17">
     <path d="M 560.99375 86.989375 
L 580.99375 86.989375 
L 600.99375 86.989375 
" style="fill: none; stroke: #ff7f0e; stroke-width: 1.5; stroke-linecap: square"/>
    </g>
    <g id="text_18">
     <!-- D -->
     <g transform="translate(616.99375 93.989375) scale(0.2 -0.2)">
      <use xlink:href="#DejaVuSans-44"/>
     </g>
    </g>
   </g>
  </g>
 </g>
 <defs>
  <clipPath id="p3900b3df18">
   <rect x="92.490625" y="31.43625" width="558" height="277.2"/>
  </clipPath>
 </defs>
</svg>
