<?xml version="1.0" encoding="utf-8" standalone="no"?>
<!DOCTYPE svg PUBLIC "-//W3C//DTD SVG 1.1//EN"
  "http://www.w3.org/Graphics/SVG/1.1/DTD/svg11.dtd">
<svg xmlns:xlink="http://www.w3.org/1999/xlink" width="675.923125pt" height="365.54875pt" viewBox="0 0 675.923125 365.54875" xmlns="http://www.w3.org/2000/svg" version="1.1">
 <metadata>
  <rdf:RDF xmlns:dc="http://purl.org/dc/elements/1.1/" xmlns:cc="http://creativecommons.org/ns#" xmlns:rdf="http://www.w3.org/1999/02/22-rdf-syntax-ns#">
   <cc:Work>
    <dc:type rdf:resource="http://purl.org/dc/dcmitype/StillImage"/>
    <dc:date>2024-02-01T17:43:19.689564</dc:date>
    <dc:format>image/svg+xml</dc:format>
    <dc:creator>
     <cc:Agent>
      <dc:title>Matplotlib v3.7.2, https://matplotlib.org/</dc:title>
     </cc:Agent>
    </dc:creator>
   </cc:Work>
  </rdf:RDF>
 </metadata>
 <defs>
  <style type="text/css">*{stroke-linejoin: round; stroke-linecap: butt}</style>
 </defs>
 <g id="figure_1">
  <g id="patch_1">
   <path d="M 0 365.54875 
L 675.923125 365.54875 
L 675.923125 -0 
L 0 -0 
z
" style="fill: #ffffff"/>
  </g>
  <g id="axes_1">
   <g id="patch_2">
    <path d="M 92.490625 308.63625 
L 650.490625 308.63625 
L 650.490625 31.43625 
L 92.490625 31.43625 
z
" style="fill: #ffffff"/>
   </g>
   <g id="matplotlib.axis_1">
    <g id="xtick_1">
     <g id="line2d_1">
      <defs>
       <path id="mb155d42e16" d="M 0 0 
L 0 3.5 
" style="stroke: #000000; stroke-width: 0.8"/>
      </defs>
      <g>
       <use xlink:href="#mb155d42e16" x="117.854261" y="308.63625" style="stroke: #000000; stroke-width: 0.8"/>
      </g>
     </g>
     <g id="text_1">
      <!-- 0 -->
      <g transform="translate(111.491761 330.833125) scale(0.2 -0.2)">
       <defs>
        <path id="DejaVuSans-30" d="M 2034 4250 
Q 1547 4250 1301 3770 
Q 1056 3291 1056 2328 
Q 1056 1369 1301 889 
Q 1547 409 2034 409 
Q 2525 409 2770 889 
Q 3016 1369 3016 2328 
Q 3016 3291 2770 3770 
Q 2525 4250 2034 4250 
z
M 2034 4750 
Q 2819 4750 3233 4129 
Q 3647 3509 3647 2328 
Q 3647 1150 3233 529 
Q 2819 -91 2034 -91 
Q 1250 -91 836 529 
Q 422 1150 422 2328 
Q 422 3509 836 4129 
Q 1250 4750 2034 4750 
z
" transform="scale(0.015625)"/>
       </defs>
       <use xlink:href="#DejaVuSans-30"/>
      </g>
     </g>
    </g>
    <g id="xtick_2">
     <g id="line2d_2">
      <g>
       <use xlink:href="#mb155d42e16" x="181.263352" y="308.63625" style="stroke: #000000; stroke-width: 0.8"/>
      </g>
     </g>
     <g id="text_2">
      <!-- 50 -->
      <g transform="translate(168.538352 330.833125) scale(0.2 -0.2)">
       <defs>
        <path id="DejaVuSans-35" d="M 691 4666 
L 3169 4666 
L 3169 4134 
L 1269 4134 
L 1269 2991 
Q 1406 3038 1543 3061 
Q 1681 3084 1819 3084 
Q 2600 3084 3056 2656 
Q 3513 2228 3513 1497 
Q 3513 744 3044 326 
Q 2575 -91 1722 -91 
Q 1428 -91 1123 -41 
Q 819 9 494 109 
L 494 744 
Q 775 591 1075 516 
Q 1375 441 1709 441 
Q 2250 441 2565 725 
Q 2881 1009 2881 1497 
Q 2881 1984 2565 2268 
Q 2250 2553 1709 2553 
Q 1456 2553 1204 2497 
Q 953 2441 691 2322 
L 691 4666 
z
" transform="scale(0.015625)"/>
       </defs>
       <use xlink:href="#DejaVuSans-35"/>
       <use xlink:href="#DejaVuSans-30" x="63.623047"/>
      </g>
     </g>
    </g>
    <g id="xtick_3">
     <g id="line2d_3">
      <g>
       <use xlink:href="#mb155d42e16" x="244.672443" y="308.63625" style="stroke: #000000; stroke-width: 0.8"/>
      </g>
     </g>
     <g id="text_3">
      <!-- 100 -->
      <g transform="translate(225.584943 330.833125) scale(0.2 -0.2)">
       <defs>
        <path id="DejaVuSans-31" d="M 794 531 
L 1825 531 
L 1825 4091 
L 703 3866 
L 703 4441 
L 1819 4666 
L 2450 4666 
L 2450 531 
L 3481 531 
L 3481 0 
L 794 0 
L 794 531 
z
" transform="scale(0.015625)"/>
       </defs>
       <use xlink:href="#DejaVuSans-31"/>
       <use xlink:href="#DejaVuSans-30" x="63.623047"/>
       <use xlink:href="#DejaVuSans-30" x="127.246094"/>
      </g>
     </g>
    </g>
    <g id="xtick_4">
     <g id="line2d_4">
      <g>
       <use xlink:href="#mb155d42e16" x="308.081534" y="308.63625" style="stroke: #000000; stroke-width: 0.8"/>
      </g>
     </g>
     <g id="text_4">
      <!-- 150 -->
      <g transform="translate(288.994034 330.833125) scale(0.2 -0.2)">
       <use xlink:href="#DejaVuSans-31"/>
       <use xlink:href="#DejaVuSans-35" x="63.623047"/>
       <use xlink:href="#DejaVuSans-30" x="127.246094"/>
      </g>
     </g>
    </g>
    <g id="xtick_5">
     <g id="line2d_5">
      <g>
       <use xlink:href="#mb155d42e16" x="371.490625" y="308.63625" style="stroke: #000000; stroke-width: 0.8"/>
      </g>
     </g>
     <g id="text_5">
      <!-- 200 -->
      <g transform="translate(352.403125 330.833125) scale(0.2 -0.2)">
       <defs>
        <path id="DejaVuSans-32" d="M 1228 531 
L 3431 531 
L 3431 0 
L 469 0 
L 469 531 
Q 828 903 1448 1529 
Q 2069 2156 2228 2338 
Q 2531 2678 2651 2914 
Q 2772 3150 2772 3378 
Q 2772 3750 2511 3984 
Q 2250 4219 1831 4219 
Q 1534 4219 1204 4116 
Q 875 4013 500 3803 
L 500 4441 
Q 881 4594 1212 4672 
Q 1544 4750 1819 4750 
Q 2544 4750 2975 4387 
Q 3406 4025 3406 3419 
Q 3406 3131 3298 2873 
Q 3191 2616 2906 2266 
Q 2828 2175 2409 1742 
Q 1991 1309 1228 531 
z
" transform="scale(0.015625)"/>
       </defs>
       <use xlink:href="#DejaVuSans-32"/>
       <use xlink:href="#DejaVuSans-30" x="63.623047"/>
       <use xlink:href="#DejaVuSans-30" x="127.246094"/>
      </g>
     </g>
    </g>
    <g id="xtick_6">
     <g id="line2d_6">
      <g>
       <use xlink:href="#mb155d42e16" x="434.899716" y="308.63625" style="stroke: #000000; stroke-width: 0.8"/>
      </g>
     </g>
     <g id="text_6">
      <!-- 250 -->
      <g transform="translate(415.812216 330.833125) scale(0.2 -0.2)">
       <use xlink:href="#DejaVuSans-32"/>
       <use xlink:href="#DejaVuSans-35" x="63.623047"/>
       <use xlink:href="#DejaVuSans-30" x="127.246094"/>
      </g>
     </g>
    </g>
    <g id="xtick_7">
     <g id="line2d_7">
      <g>
       <use xlink:href="#mb155d42e16" x="498.308807" y="308.63625" style="stroke: #000000; stroke-width: 0.8"/>
      </g>
     </g>
     <g id="text_7">
      <!-- 300 -->
      <g transform="translate(479.221307 330.833125) scale(0.2 -0.2)">
       <defs>
        <path id="DejaVuSans-33" d="M 2597 2516 
Q 3050 2419 3304 2112 
Q 3559 1806 3559 1356 
Q 3559 666 3084 287 
Q 2609 -91 1734 -91 
Q 1441 -91 1130 -33 
Q 819 25 488 141 
L 488 750 
Q 750 597 1062 519 
Q 1375 441 1716 441 
Q 2309 441 2620 675 
Q 2931 909 2931 1356 
Q 2931 1769 2642 2001 
Q 2353 2234 1838 2234 
L 1294 2234 
L 1294 2753 
L 1863 2753 
Q 2328 2753 2575 2939 
Q 2822 3125 2822 3475 
Q 2822 3834 2567 4026 
Q 2313 4219 1838 4219 
Q 1578 4219 1281 4162 
Q 984 4106 628 3988 
L 628 4550 
Q 988 4650 1302 4700 
Q 1616 4750 1894 4750 
Q 2613 4750 3031 4423 
Q 3450 4097 3450 3541 
Q 3450 3153 3228 2886 
Q 3006 2619 2597 2516 
z
" transform="scale(0.015625)"/>
       </defs>
       <use xlink:href="#DejaVuSans-33"/>
       <use xlink:href="#DejaVuSans-30" x="63.623047"/>
       <use xlink:href="#DejaVuSans-30" x="127.246094"/>
      </g>
     </g>
    </g>
    <g id="xtick_8">
     <g id="line2d_8">
      <g>
       <use xlink:href="#mb155d42e16" x="561.717898" y="308.63625" style="stroke: #000000; stroke-width: 0.8"/>
      </g>
     </g>
     <g id="text_8">
      <!-- 350 -->
      <g transform="translate(542.630398 330.833125) scale(0.2 -0.2)">
       <use xlink:href="#DejaVuSans-33"/>
       <use xlink:href="#DejaVuSans-35" x="63.623047"/>
       <use xlink:href="#DejaVuSans-30" x="127.246094"/>
      </g>
     </g>
    </g>
    <g id="xtick_9">
     <g id="line2d_9">
      <g>
       <use xlink:href="#mb155d42e16" x="625.126989" y="308.63625" style="stroke: #000000; stroke-width: 0.8"/>
      </g>
     </g>
     <g id="text_9">
      <!-- 400 -->
      <g transform="translate(606.039489 330.833125) scale(0.2 -0.2)">
       <defs>
        <path id="DejaVuSans-34" d="M 2419 4116 
L 825 1625 
L 2419 1625 
L 2419 4116 
z
M 2253 4666 
L 3047 4666 
L 3047 1625 
L 3713 1625 
L 3713 1100 
L 3047 1100 
L 3047 0 
L 2419 0 
L 2419 1100 
L 313 1100 
L 313 1709 
L 2253 4666 
z
" transform="scale(0.015625)"/>
       </defs>
       <use xlink:href="#DejaVuSans-34"/>
       <use xlink:href="#DejaVuSans-30" x="63.623047"/>
       <use xlink:href="#DejaVuSans-30" x="127.246094"/>
      </g>
     </g>
    </g>
    <g id="text_10">
     <!-- iterations -->
     <g transform="translate(324.035938 354.189375) scale(0.2 -0.2)">
      <defs>
       <path id="DejaVuSans-69" d="M 603 3500 
L 1178 3500 
L 1178 0 
L 603 0 
L 603 3500 
z
M 603 4863 
L 1178 4863 
L 1178 4134 
L 603 4134 
L 603 4863 
z
" transform="scale(0.015625)"/>
       <path id="DejaVuSans-74" d="M 1172 4494 
L 1172 3500 
L 2356 3500 
L 2356 3053 
L 1172 3053 
L 1172 1153 
Q 1172 725 1289 603 
Q 1406 481 1766 481 
L 2356 481 
L 2356 0 
L 1766 0 
Q 1100 0 847 248 
Q 594 497 594 1153 
L 594 3053 
L 172 3053 
L 172 3500 
L 594 3500 
L 594 4494 
L 1172 4494 
z
" transform="scale(0.015625)"/>
       <path id="DejaVuSans-65" d="M 3597 1894 
L 3597 1613 
L 953 1613 
Q 991 1019 1311 708 
Q 1631 397 2203 397 
Q 2534 397 2845 478 
Q 3156 559 3463 722 
L 3463 178 
Q 3153 47 2828 -22 
Q 2503 -91 2169 -91 
Q 1331 -91 842 396 
Q 353 884 353 1716 
Q 353 2575 817 3079 
Q 1281 3584 2069 3584 
Q 2775 3584 3186 3129 
Q 3597 2675 3597 1894 
z
M 3022 2063 
Q 3016 2534 2758 2815 
Q 2500 3097 2075 3097 
Q 1594 3097 1305 2825 
Q 1016 2553 972 2059 
L 3022 2063 
z
" transform="scale(0.015625)"/>
       <path id="DejaVuSans-72" d="M 2631 2963 
Q 2534 3019 2420 3045 
Q 2306 3072 2169 3072 
Q 1681 3072 1420 2755 
Q 1159 2438 1159 1844 
L 1159 0 
L 581 0 
L 581 3500 
L 1159 3500 
L 1159 2956 
Q 1341 3275 1631 3429 
Q 1922 3584 2338 3584 
Q 2397 3584 2469 3576 
Q 2541 3569 2628 3553 
L 2631 2963 
z
" transform="scale(0.015625)"/>
       <path id="DejaVuSans-61" d="M 2194 1759 
Q 1497 1759 1228 1600 
Q 959 1441 959 1056 
Q 959 750 1161 570 
Q 1363 391 1709 391 
Q 2188 391 2477 730 
Q 2766 1069 2766 1631 
L 2766 1759 
L 2194 1759 
z
M 3341 1997 
L 3341 0 
L 2766 0 
L 2766 531 
Q 2569 213 2275 61 
Q 1981 -91 1556 -91 
Q 1019 -91 701 211 
Q 384 513 384 1019 
Q 384 1609 779 1909 
Q 1175 2209 1959 2209 
L 2766 2209 
L 2766 2266 
Q 2766 2663 2505 2880 
Q 2244 3097 1772 3097 
Q 1472 3097 1187 3025 
Q 903 2953 641 2809 
L 641 3341 
Q 956 3463 1253 3523 
Q 1550 3584 1831 3584 
Q 2591 3584 2966 3190 
Q 3341 2797 3341 1997 
z
" transform="scale(0.015625)"/>
       <path id="DejaVuSans-6f" d="M 1959 3097 
Q 1497 3097 1228 2736 
Q 959 2375 959 1747 
Q 959 1119 1226 758 
Q 1494 397 1959 397 
Q 2419 397 2687 759 
Q 2956 1122 2956 1747 
Q 2956 2369 2687 2733 
Q 2419 3097 1959 3097 
z
M 1959 3584 
Q 2709 3584 3137 3096 
Q 3566 2609 3566 1747 
Q 3566 888 3137 398 
Q 2709 -91 1959 -91 
Q 1206 -91 779 398 
Q 353 888 353 1747 
Q 353 2609 779 3096 
Q 1206 3584 1959 3584 
z
" transform="scale(0.015625)"/>
       <path id="DejaVuSans-6e" d="M 3513 2113 
L 3513 0 
L 2938 0 
L 2938 2094 
Q 2938 2591 2744 2837 
Q 2550 3084 2163 3084 
Q 1697 3084 1428 2787 
Q 1159 2491 1159 1978 
L 1159 0 
L 581 0 
L 581 3500 
L 1159 3500 
L 1159 2956 
Q 1366 3272 1645 3428 
Q 1925 3584 2291 3584 
Q 2894 3584 3203 3211 
Q 3513 2838 3513 2113 
z
" transform="scale(0.015625)"/>
       <path id="DejaVuSans-73" d="M 2834 3397 
L 2834 2853 
Q 2591 2978 2328 3040 
Q 2066 3103 1784 3103 
Q 1356 3103 1142 2972 
Q 928 2841 928 2578 
Q 928 2378 1081 2264 
Q 1234 2150 1697 2047 
L 1894 2003 
Q 2506 1872 2764 1633 
Q 3022 1394 3022 966 
Q 3022 478 2636 193 
Q 2250 -91 1575 -91 
Q 1294 -91 989 -36 
Q 684 19 347 128 
L 347 722 
Q 666 556 975 473 
Q 1284 391 1588 391 
Q 1994 391 2212 530 
Q 2431 669 2431 922 
Q 2431 1156 2273 1281 
Q 2116 1406 1581 1522 
L 1381 1569 
Q 847 1681 609 1914 
Q 372 2147 372 2553 
Q 372 3047 722 3315 
Q 1072 3584 1716 3584 
Q 2034 3584 2315 3537 
Q 2597 3491 2834 3397 
z
" transform="scale(0.015625)"/>
      </defs>
      <use xlink:href="#DejaVuSans-69"/>
      <use xlink:href="#DejaVuSans-74" x="27.783203"/>
      <use xlink:href="#DejaVuSans-65" x="66.992188"/>
      <use xlink:href="#DejaVuSans-72" x="128.515625"/>
      <use xlink:href="#DejaVuSans-61" x="169.628906"/>
      <use xlink:href="#DejaVuSans-74" x="230.908203"/>
      <use xlink:href="#DejaVuSans-69" x="270.117188"/>
      <use xlink:href="#DejaVuSans-6f" x="297.900391"/>
      <use xlink:href="#DejaVuSans-6e" x="359.082031"/>
      <use xlink:href="#DejaVuSans-73" x="422.460938"/>
     </g>
    </g>
   </g>
   <g id="matplotlib.axis_2">
    <g id="ytick_1">
     <g id="line2d_10">
      <defs>
       <path id="m3ef10b203e" d="M 0 0 
L -3.5 0 
" style="stroke: #000000; stroke-width: 0.8"/>
      </defs>
      <g>
       <use xlink:href="#m3ef10b203e" x="92.490625" y="278.050314" style="stroke: #000000; stroke-width: 0.8"/>
      </g>
     </g>
     <g id="text_11">
      <!-- −200 -->
      <g transform="translate(30.55625 285.648751) scale(0.2 -0.2)">
       <defs>
        <path id="DejaVuSans-2212" d="M 678 2272 
L 4684 2272 
L 4684 1741 
L 678 1741 
L 678 2272 
z
" transform="scale(0.015625)"/>
       </defs>
       <use xlink:href="#DejaVuSans-2212"/>
       <use xlink:href="#DejaVuSans-32" x="83.789062"/>
       <use xlink:href="#DejaVuSans-30" x="147.412109"/>
       <use xlink:href="#DejaVuSans-30" x="211.035156"/>
      </g>
     </g>
    </g>
    <g id="ytick_2">
     <g id="line2d_11">
      <g>
       <use xlink:href="#m3ef10b203e" x="92.490625" y="225.895764" style="stroke: #000000; stroke-width: 0.8"/>
      </g>
     </g>
     <g id="text_12">
      <!-- −100 -->
      <g transform="translate(30.55625 233.494202) scale(0.2 -0.2)">
       <use xlink:href="#DejaVuSans-2212"/>
       <use xlink:href="#DejaVuSans-31" x="83.789062"/>
       <use xlink:href="#DejaVuSans-30" x="147.412109"/>
       <use xlink:href="#DejaVuSans-30" x="211.035156"/>
      </g>
     </g>
    </g>
    <g id="ytick_3">
     <g id="line2d_12">
      <g>
       <use xlink:href="#m3ef10b203e" x="92.490625" y="173.741215" style="stroke: #000000; stroke-width: 0.8"/>
      </g>
     </g>
     <g id="text_13">
      <!-- 0 -->
      <g transform="translate(72.765625 181.339652) scale(0.2 -0.2)">
       <use xlink:href="#DejaVuSans-30"/>
      </g>
     </g>
    </g>
    <g id="ytick_4">
     <g id="line2d_13">
      <g>
       <use xlink:href="#m3ef10b203e" x="92.490625" y="121.586665" style="stroke: #000000; stroke-width: 0.8"/>
      </g>
     </g>
     <g id="text_14">
      <!-- 100 -->
      <g transform="translate(47.315625 129.185102) scale(0.2 -0.2)">
       <use xlink:href="#DejaVuSans-31"/>
       <use xlink:href="#DejaVuSans-30" x="63.623047"/>
       <use xlink:href="#DejaVuSans-30" x="127.246094"/>
      </g>
     </g>
    </g>
    <g id="ytick_5">
     <g id="line2d_14">
      <g>
       <use xlink:href="#m3ef10b203e" x="92.490625" y="69.432115" style="stroke: #000000; stroke-width: 0.8"/>
      </g>
     </g>
     <g id="text_15">
      <!-- 200 -->
      <g transform="translate(47.315625 77.030553) scale(0.2 -0.2)">
       <use xlink:href="#DejaVuSans-32"/>
       <use xlink:href="#DejaVuSans-30" x="63.623047"/>
       <use xlink:href="#DejaVuSans-30" x="127.246094"/>
      </g>
     </g>
    </g>
    <g id="text_16">
     <!-- Loss -->
     <g transform="translate(22.396875 191.970625) rotate(-90) scale(0.2 -0.2)">
      <defs>
       <path id="DejaVuSans-4c" d="M 628 4666 
L 1259 4666 
L 1259 531 
L 3531 531 
L 3531 0 
L 628 0 
L 628 4666 
z
" transform="scale(0.015625)"/>
      </defs>
      <use xlink:href="#DejaVuSans-4c"/>
      <use xlink:href="#DejaVuSans-6f" x="53.962891"/>
      <use xlink:href="#DejaVuSans-73" x="115.144531"/>
      <use xlink:href="#DejaVuSans-73" x="167.244141"/>
     </g>
    </g>
   </g>
   <g id="line2d_15">
    <path d="M 117.854261 116.730416 
L 119.122443 62.430435 
L 120.390625 101.446911 
L 121.658807 97.742273 
L 122.926989 71.891481 
L 124.19517 66.005259 
L 125.463352 53.003453 
L 126.731534 50.572912 
L 127.999716 59.282987 
L 129.267898 64.407922 
L 130.53608 63.027834 
L 133.072443 72.758823 
L 134.340625 76.15716 
L 135.608807 51.933022 
L 136.876989 73.641653 
L 138.14517 118.042353 
L 139.413352 125.137272 
L 140.681534 90.657659 
L 141.949716 60.941522 
L 143.217898 44.03625 
L 144.48608 52.703352 
L 145.754261 66.415864 
L 148.290625 80.271673 
L 149.558807 77.046844 
L 150.826989 85.974109 
L 152.09517 89.320307 
L 153.363352 99.781725 
L 154.631534 103.629806 
L 155.899716 95.490293 
L 157.167898 93.742179 
L 158.43608 96.556052 
L 159.704261 104.56955 
L 160.972443 103.315712 
L 162.240625 106.314088 
L 163.508807 101.622759 
L 164.776989 103.726444 
L 166.04517 97.099143 
L 167.313352 105.59913 
L 168.581534 102.090241 
L 169.849716 108.846517 
L 171.117898 107.115866 
L 172.38608 107.768741 
L 173.654261 94.854922 
L 174.922443 103.509892 
L 176.190625 99.688151 
L 177.458807 99.279356 
L 178.726989 102.538264 
L 179.99517 101.345011 
L 181.263352 103.441635 
L 182.531534 100.626615 
L 183.799716 103.77917 
L 185.067898 108.446027 
L 186.33608 104.135863 
L 187.604261 113.024366 
L 188.872443 113.256683 
L 190.140625 118.953402 
L 191.408807 121.504437 
L 192.676989 125.536059 
L 193.94517 125.084203 
L 195.213352 124.975704 
L 196.481534 129.12069 
L 197.749716 129.965285 
L 199.017898 127.601113 
L 200.28608 122.813187 
L 201.554261 121.044518 
L 202.822443 125.340201 
L 204.090625 125.222212 
L 205.358807 129.200338 
L 206.626989 126.028649 
L 207.89517 128.68786 
L 209.163352 127.230402 
L 210.431534 125.98626 
L 211.699716 127.841862 
L 212.967898 125.227578 
L 214.23608 130.64839 
L 215.504261 134.240456 
L 216.772443 133.266292 
L 218.040625 131.370037 
L 219.308807 133.221224 
L 220.576989 131.530508 
L 221.84517 127.304061 
L 223.113352 127.021545 
L 224.381534 131.504403 
L 225.649716 129.12013 
L 226.917898 130.155912 
L 228.18608 129.13671 
L 230.722443 135.649824 
L 231.990625 130.074104 
L 233.258807 129.476486 
L 234.526989 129.449765 
L 235.79517 127.07422 
L 238.331534 128.405043 
L 239.599716 132.155688 
L 240.867898 129.996242 
L 242.13608 130.068832 
L 243.404261 128.264842 
L 244.672443 131.050036 
L 245.940625 130.94195 
L 247.208807 128.470743 
L 248.476989 131.531211 
L 249.74517 131.612299 
L 251.013352 132.350694 
L 252.281534 131.23145 
L 253.549716 134.408219 
L 254.817898 133.259949 
L 256.08608 133.451761 
L 257.354261 135.868165 
L 258.622443 136.567827 
L 259.890625 137.964817 
L 261.158807 137.904629 
L 262.426989 140.59013 
L 263.69517 140.248142 
L 264.963352 142.320233 
L 266.231534 142.751493 
L 267.499716 143.305748 
L 268.767898 144.681703 
L 270.03608 144.519549 
L 271.304261 145.240951 
L 272.572443 143.606707 
L 273.840625 147.202116 
L 275.108807 147.401776 
L 276.376989 145.312951 
L 277.64517 147.788315 
L 278.913352 144.771762 
L 280.181534 147.864716 
L 281.449716 144.354608 
L 282.717898 149.00043 
L 283.98608 148.864368 
L 285.254261 147.326535 
L 286.522443 147.287939 
L 287.790625 149.193091 
L 289.058807 147.831455 
L 290.326989 148.825769 
L 291.59517 148.096776 
L 292.863352 148.745121 
L 294.131534 151.093129 
L 295.399716 147.222083 
L 296.667898 147.173949 
L 297.93608 149.684394 
L 299.204261 150.670233 
L 300.472443 150.083711 
L 301.740625 151.347509 
L 303.008807 149.72187 
L 304.276989 149.97145 
L 305.54517 152.818688 
L 306.813352 153.166956 
L 308.081534 151.635056 
L 309.349716 152.261085 
L 310.617898 150.388173 
L 311.88608 149.701996 
L 313.154261 148.135366 
L 314.422443 150.229807 
L 315.690625 149.605711 
L 316.958807 150.325038 
L 318.226989 151.22725 
L 319.49517 150.754788 
L 320.763352 152.243257 
L 322.031534 151.654234 
L 323.299716 154.11977 
L 324.567898 155.048733 
L 325.83608 153.344866 
L 327.104261 153.231589 
L 328.372443 154.848303 
L 329.640625 153.800574 
L 330.908807 157.048832 
L 332.176989 156.893901 
L 333.44517 155.884159 
L 334.713352 156.207196 
L 337.249716 155.9323 
L 338.517898 157.966988 
L 339.78608 160.584037 
L 341.054261 159.109185 
L 342.322443 160.133137 
L 343.590625 157.417522 
L 344.858807 158.294861 
L 346.126989 157.179436 
L 347.39517 156.74332 
L 348.663352 152.371756 
L 349.931534 154.608543 
L 351.199716 154.732663 
L 352.467898 156.74822 
L 353.73608 153.888262 
L 355.004261 153.0428 
L 356.272443 149.447487 
L 357.540625 149.480507 
L 358.808807 149.219328 
L 360.076989 150.998212 
L 361.34517 153.308223 
L 362.613352 154.868603 
L 363.881534 153.249777 
L 365.149716 154.622314 
L 366.417898 153.342076 
L 367.68608 153.92423 
L 368.954261 155.062312 
L 370.222443 156.883775 
L 371.490625 155.221922 
L 372.758807 156.801697 
L 375.29517 155.609429 
L 376.563352 154.116463 
L 377.831534 155.313135 
L 379.099716 156.80764 
L 380.367898 155.756673 
L 381.63608 156.419443 
L 382.904261 154.641703 
L 384.172443 156.161499 
L 385.440625 154.121002 
L 386.708807 156.645991 
L 387.976989 155.529907 
L 389.24517 156.176916 
L 390.513352 155.396429 
L 391.781534 155.88568 
L 393.049716 155.259632 
L 394.317898 153.799706 
L 395.58608 154.311158 
L 396.854261 153.059434 
L 398.122443 154.648248 
L 399.390625 155.120642 
L 400.658807 153.132141 
L 401.926989 153.483931 
L 403.19517 154.04572 
L 404.463352 154.987186 
L 405.731534 154.816669 
L 406.999716 154.119129 
L 408.267898 153.202575 
L 409.53608 153.916273 
L 410.804261 152.705682 
L 412.072443 152.166556 
L 413.340625 152.402338 
L 414.608807 152.180249 
L 415.876989 154.11953 
L 417.14517 152.016894 
L 418.413352 153.003526 
L 419.681534 151.826107 
L 420.949716 152.171399 
L 422.217898 153.165678 
L 423.48608 152.958836 
L 424.754261 151.2627 
L 426.022443 152.237006 
L 427.290625 152.790376 
L 429.826989 149.160309 
L 432.363352 150.86653 
L 433.631534 150.354096 
L 434.899716 149.479063 
L 436.167898 152.676587 
L 437.43608 151.047918 
L 438.704261 152.469854 
L 439.972443 152.266123 
L 441.240625 153.462899 
L 442.508807 154.069147 
L 443.776989 154.003291 
L 445.04517 154.910829 
L 447.581534 155.294215 
L 448.849716 154.960983 
L 450.117898 154.061296 
L 451.38608 155.470938 
L 452.654261 153.968602 
L 453.922443 153.381538 
L 455.190625 153.259493 
L 456.458807 154.500778 
L 457.726989 155.292109 
L 458.99517 154.850473 
L 460.263352 155.670758 
L 461.531534 154.673209 
L 462.799716 154.525595 
L 464.067898 155.551714 
L 465.33608 155.152165 
L 466.604261 155.936404 
L 467.872443 157.010189 
L 469.140625 156.050296 
L 470.408807 155.985973 
L 472.94517 156.386478 
L 474.213352 157.272418 
L 475.481534 156.749003 
L 476.749716 157.107192 
L 478.017898 157.119295 
L 479.28608 157.761971 
L 480.554261 157.134318 
L 481.822443 156.145483 
L 483.090625 158.606781 
L 484.358807 157.442978 
L 485.626989 157.059694 
L 486.89517 157.835689 
L 488.163352 157.316152 
L 490.699716 157.854228 
L 491.967898 159.260742 
L 493.23608 158.661202 
L 494.504261 158.869777 
L 495.772443 159.238682 
L 497.040625 160.284156 
L 498.308807 159.663591 
L 499.576989 159.433966 
L 500.84517 159.789577 
L 503.381534 159.882359 
L 504.649716 160.25701 
L 505.917898 161.289905 
L 507.18608 158.838544 
L 508.454261 159.924778 
L 509.722443 160.45698 
L 510.990625 160.777332 
L 512.258807 162.658706 
L 513.526989 162.11453 
L 514.79517 162.229981 
L 516.063352 160.98345 
L 517.331534 162.000164 
L 518.599716 163.379221 
L 519.867898 163.181533 
L 521.13608 163.880014 
L 522.404261 163.180675 
L 523.672443 162.92911 
L 526.208807 162.673332 
L 527.476989 164.01015 
L 528.74517 163.898086 
L 530.013352 163.587924 
L 531.281534 163.629103 
L 532.549716 164.448835 
L 533.817898 164.678214 
L 535.08608 165.504125 
L 536.354261 164.692579 
L 537.622443 166.342899 
L 538.890625 167.152715 
L 540.158807 165.965846 
L 541.426989 167.413876 
L 542.69517 166.665451 
L 543.963352 166.885093 
L 545.231534 166.510555 
L 547.767898 165.434706 
L 549.03608 165.631563 
L 550.304261 166.035931 
L 551.572443 165.705315 
L 552.840625 166.050312 
L 554.108807 166.525807 
L 555.376989 166.210813 
L 556.64517 166.169597 
L 557.913352 166.418649 
L 559.181534 165.309747 
L 560.449716 165.436775 
L 561.717898 166.031096 
L 562.98608 165.914072 
L 564.254261 167.508869 
L 565.522443 166.783678 
L 566.790625 166.803441 
L 568.058807 166.419973 
L 569.326989 165.84882 
L 570.59517 166.801295 
L 571.863352 166.075255 
L 573.131534 166.532946 
L 574.399716 167.123316 
L 575.667898 167.002987 
L 576.93608 167.874705 
L 578.204261 167.313398 
L 579.472443 168.063886 
L 582.008807 167.5642 
L 583.276989 168.792709 
L 584.54517 168.642832 
L 585.813352 167.815961 
L 587.081534 168.876404 
L 588.349716 169.223698 
L 589.617898 169.44384 
L 590.88608 169.245245 
L 592.154261 169.40812 
L 593.422443 169.727721 
L 597.226989 169.380179 
L 598.49517 168.682531 
L 599.763352 168.772326 
L 601.031534 169.343754 
L 602.299716 168.172043 
L 603.567898 168.854283 
L 607.372443 169.872072 
L 608.640625 169.938352 
L 609.908807 169.719371 
L 611.176989 168.183161 
L 612.44517 169.845163 
L 613.713352 169.297504 
L 614.981534 170.613594 
L 618.78608 170.480542 
L 620.054261 170.525653 
L 621.322443 169.977587 
L 622.590625 170.364696 
L 623.858807 169.181846 
L 625.126989 170.062413 
L 625.126989 170.062413 
" clip-path="url(#p57ef1870a9)" style="fill: none; stroke: #1f77b4; stroke-width: 1.5; stroke-linecap: square"/>
   </g>
   <g id="line2d_16">
    <path d="M 117.854261 283.817858 
L 119.122443 296.03625 
L 120.390625 270.616898 
L 121.658807 261.343127 
L 122.926989 266.675624 
L 124.19517 254.3987 
L 125.463352 253.78483 
L 126.731534 234.718979 
L 127.999716 243.174054 
L 129.267898 233.622601 
L 130.53608 255.831372 
L 131.804261 226.820111 
L 133.072443 231.623087 
L 134.340625 222.755458 
L 135.608807 237.090497 
L 136.876989 221.800231 
L 138.14517 220.580769 
L 139.413352 239.851293 
L 140.681534 218.690556 
L 141.949716 208.012777 
L 143.217898 213.077702 
L 144.48608 203.210023 
L 145.754261 204.36703 
L 147.022443 200.127711 
L 148.290625 197.699217 
L 149.558807 197.009593 
L 150.826989 192.778947 
L 152.09517 193.284367 
L 153.363352 191.367776 
L 154.631534 190.032498 
L 155.899716 190.98049 
L 157.167898 192.754977 
L 158.43608 191.632475 
L 159.704261 189.511802 
L 160.972443 187.702186 
L 162.240625 186.31986 
L 163.508807 189.750291 
L 164.776989 188.198746 
L 166.04517 189.00049 
L 167.313352 189.320823 
L 168.581534 185.316259 
L 171.117898 184.835969 
L 172.38608 185.979726 
L 173.654261 188.292898 
L 174.922443 184.413948 
L 176.190625 186.018381 
L 177.458807 185.564117 
L 178.726989 183.829002 
L 179.99517 185.263654 
L 181.263352 184.827063 
L 182.531534 185.642403 
L 183.799716 185.081576 
L 185.067898 185.318168 
L 186.33608 184.356218 
L 187.604261 183.054028 
L 188.872443 183.091849 
L 190.140625 181.620767 
L 191.408807 181.838532 
L 192.676989 182.869973 
L 193.94517 182.690779 
L 195.213352 182.28129 
L 196.481534 180.870267 
L 197.749716 183.116401 
L 200.28608 184.052396 
L 201.554261 184.34861 
L 202.822443 182.464961 
L 205.358807 182.093607 
L 206.626989 184.792872 
L 207.89517 183.634699 
L 209.163352 183.261662 
L 210.431534 184.624761 
L 211.699716 183.487667 
L 212.967898 184.04581 
L 214.23608 182.432324 
L 215.504261 182.812326 
L 216.772443 182.662128 
L 218.040625 182.709696 
L 219.308807 182.390061 
L 220.576989 182.933603 
L 221.84517 185.113963 
L 223.113352 183.825193 
L 224.381534 181.5119 
L 225.649716 182.332163 
L 226.917898 182.657852 
L 228.18608 183.310738 
L 229.454261 183.531447 
L 230.722443 183.308215 
L 231.990625 183.62141 
L 233.258807 184.483335 
L 234.526989 183.45188 
L 237.063352 184.197178 
L 238.331534 183.120905 
L 239.599716 182.57126 
L 240.867898 183.383851 
L 242.13608 182.947738 
L 243.404261 183.167254 
L 244.672443 183.694203 
L 245.940625 183.057892 
L 247.208807 183.707169 
L 248.476989 182.282464 
L 249.74517 184.110702 
L 251.013352 183.132366 
L 252.281534 184.305063 
L 253.549716 182.879901 
L 254.817898 183.550493 
L 257.354261 183.501126 
L 258.622443 182.388915 
L 259.890625 182.417677 
L 261.158807 182.173322 
L 262.426989 183.391072 
L 264.963352 182.940126 
L 266.231534 182.46022 
L 267.499716 182.325477 
L 268.767898 181.724674 
L 270.03608 181.502345 
L 271.304261 182.064616 
L 272.572443 182.799914 
L 275.108807 182.042545 
L 276.376989 182.333771 
L 277.64517 181.160114 
L 278.913352 183.896472 
L 280.181534 182.550055 
L 281.449716 182.064496 
L 282.717898 181.125233 
L 283.98608 181.238594 
L 285.254261 182.004937 
L 286.522443 182.161104 
L 287.790625 181.414516 
L 289.058807 182.304203 
L 290.326989 181.874481 
L 291.59517 181.798224 
L 292.863352 181.982022 
L 294.131534 181.109051 
L 295.399716 182.125077 
L 296.667898 182.440727 
L 299.204261 181.187696 
L 300.472443 181.751393 
L 301.740625 181.583518 
L 303.008807 182.175445 
L 304.276989 183.160066 
L 305.54517 182.022578 
L 306.813352 181.400837 
L 309.349716 182.736279 
L 310.617898 182.132305 
L 311.88608 183.201044 
L 313.154261 183.390734 
L 314.422443 183.243412 
L 315.690625 181.991815 
L 316.958807 182.189411 
L 318.226989 182.274377 
L 319.49517 183.17882 
L 320.763352 183.428812 
L 322.031534 183.886167 
L 323.299716 182.608761 
L 324.567898 183.712115 
L 327.104261 183.277566 
L 328.372443 183.511026 
L 332.176989 183.633084 
L 333.44517 183.299605 
L 334.713352 183.783579 
L 335.981534 183.910268 
L 338.517898 184.92944 
L 339.78608 183.203228 
L 341.054261 183.314599 
L 342.322443 184.512217 
L 343.590625 183.829892 
L 344.858807 184.829618 
L 346.126989 183.795532 
L 347.39517 182.312542 
L 348.663352 181.114258 
L 351.199716 183.511928 
L 352.467898 183.577943 
L 353.73608 183.326592 
L 355.004261 182.786861 
L 356.272443 183.101856 
L 357.540625 182.860106 
L 358.808807 182.896584 
L 360.076989 183.097378 
L 361.34517 182.191737 
L 362.613352 183.797359 
L 363.881534 182.707522 
L 365.149716 182.50586 
L 366.417898 183.114747 
L 367.68608 182.718723 
L 368.954261 182.923467 
L 370.222443 182.183745 
L 371.490625 183.353683 
L 372.758807 182.7453 
L 374.026989 183.01248 
L 375.29517 183.68453 
L 376.563352 181.987794 
L 377.831534 182.613563 
L 380.367898 183.524069 
L 381.63608 183.241964 
L 382.904261 183.384202 
L 384.172443 183.856913 
L 385.440625 184.648702 
L 386.708807 182.602124 
L 387.976989 183.351471 
L 389.24517 182.881703 
L 390.513352 182.699623 
L 391.781534 182.807006 
L 393.049716 183.289597 
L 394.317898 183.602981 
L 395.58608 184.277064 
L 396.854261 184.604789 
L 398.122443 184.052045 
L 399.390625 183.243903 
L 400.658807 184.052092 
L 403.19517 183.603225 
L 404.463352 183.57647 
L 405.731534 184.190813 
L 406.999716 183.846776 
L 408.267898 183.1117 
L 409.53608 183.575398 
L 410.804261 183.826855 
L 412.072443 183.216567 
L 413.340625 183.100553 
L 414.608807 183.61975 
L 415.876989 183.712894 
L 417.14517 183.597435 
L 418.413352 182.929186 
L 419.681534 183.970208 
L 420.949716 183.329715 
L 423.48608 183.487367 
L 424.754261 184.025893 
L 426.022443 183.355025 
L 428.558807 184.172635 
L 429.826989 183.89308 
L 431.09517 184.720582 
L 432.363352 185.250018 
L 433.631534 183.991193 
L 434.899716 180.264595 
L 436.167898 179.379729 
L 437.43608 179.979928 
L 438.704261 179.808172 
L 439.972443 179.831676 
L 441.240625 180.597556 
L 442.508807 180.60864 
L 443.776989 181.204994 
L 445.04517 180.571995 
L 446.313352 180.389812 
L 447.581534 180.927543 
L 448.849716 181.159789 
L 450.117898 180.95655 
L 451.38608 181.658681 
L 452.654261 181.65998 
L 453.922443 181.207524 
L 455.190625 181.268454 
L 456.458807 181.946299 
L 457.726989 181.462368 
L 458.99517 181.327931 
L 460.263352 181.405739 
L 461.531534 181.830208 
L 462.799716 181.243396 
L 464.067898 181.198737 
L 465.33608 181.023432 
L 466.604261 181.396091 
L 467.872443 180.38087 
L 469.140625 181.313379 
L 470.408807 180.376577 
L 471.676989 180.39457 
L 472.94517 181.042059 
L 474.213352 180.401476 
L 475.481534 180.903968 
L 476.749716 181.080735 
L 478.017898 180.79097 
L 480.554261 181.338014 
L 481.822443 181.292395 
L 483.090625 181.127015 
L 484.358807 181.168368 
L 485.626989 180.728198 
L 486.89517 181.203847 
L 488.163352 180.76719 
L 489.431534 180.210731 
L 490.699716 180.504117 
L 491.967898 180.680811 
L 493.23608 181.131196 
L 494.504261 180.356829 
L 498.308807 181.13129 
L 499.576989 180.48727 
L 500.84517 181.316777 
L 502.113352 180.843416 
L 503.381534 181.182363 
L 504.649716 181.339458 
L 505.917898 180.784706 
L 507.18608 180.901468 
L 508.454261 180.547993 
L 509.722443 180.537567 
L 510.990625 181.04459 
L 512.258807 180.596105 
L 514.79517 180.738678 
L 516.063352 181.393769 
L 517.331534 180.752169 
L 518.599716 180.657503 
L 519.867898 180.737657 
L 521.13608 181.107062 
L 522.404261 180.712911 
L 524.940625 181.124472 
L 526.208807 180.84352 
L 527.476989 181.219557 
L 528.74517 180.44609 
L 530.013352 181.06896 
L 531.281534 181.178658 
L 532.549716 180.837517 
L 533.817898 181.300394 
L 535.08608 181.567467 
L 536.354261 181.012683 
L 537.622443 181.07599 
L 538.890625 180.666583 
L 540.158807 180.522667 
L 541.426989 180.75596 
L 542.69517 180.732957 
L 543.963352 181.094926 
L 545.231534 180.850864 
L 547.767898 180.631432 
L 549.03608 180.665116 
L 551.572443 181.598188 
L 552.840625 180.864201 
L 554.108807 180.568699 
L 555.376989 180.707393 
L 556.64517 181.512054 
L 560.449716 181.481038 
L 561.717898 181.815024 
L 562.98608 181.333635 
L 564.254261 181.233244 
L 565.522443 180.895049 
L 566.790625 181.152924 
L 568.058807 181.111089 
L 570.59517 181.190319 
L 571.863352 181.018222 
L 573.131534 181.32288 
L 574.399716 181.040865 
L 575.667898 181.211261 
L 576.93608 180.891106 
L 578.204261 181.268086 
L 579.472443 181.388344 
L 580.740625 181.081676 
L 582.008807 181.037959 
L 583.276989 180.683913 
L 584.54517 181.45284 
L 585.813352 181.600966 
L 587.081534 180.824199 
L 588.349716 180.767479 
L 589.617898 181.045496 
L 590.88608 180.946243 
L 592.154261 180.980867 
L 593.422443 180.565906 
L 594.690625 181.129756 
L 595.958807 180.275914 
L 597.226989 180.746793 
L 599.763352 180.556783 
L 601.031534 180.362598 
L 602.299716 180.4968 
L 603.567898 180.354044 
L 604.83608 180.75142 
L 606.104261 180.748254 
L 607.372443 180.873944 
L 608.640625 180.736618 
L 609.908807 181.217443 
L 611.176989 180.804086 
L 612.44517 180.653515 
L 613.713352 181.057363 
L 614.981534 180.652628 
L 616.249716 180.766028 
L 617.517898 181.346359 
L 618.78608 180.19628 
L 620.054261 180.998391 
L 622.590625 180.976858 
L 623.858807 180.774304 
L 625.126989 181.02079 
L 625.126989 181.02079 
" clip-path="url(#p57ef1870a9)" style="fill: none; stroke: #ff7f0e; stroke-width: 1.5; stroke-linecap: square"/>
   </g>
   <g id="patch_3">
    <path d="M 92.490625 308.63625 
L 92.490625 31.43625 
" style="fill: none; stroke: #000000; stroke-width: 0.8; stroke-linejoin: miter; stroke-linecap: square"/>
   </g>
   <g id="patch_4">
    <path d="M 650.490625 308.63625 
L 650.490625 31.43625 
" style="fill: none; stroke: #000000; stroke-width: 0.8; stroke-linejoin: miter; stroke-linecap: square"/>
   </g>
   <g id="patch_5">
    <path d="M 92.490625 308.63625 
L 650.490625 308.63625 
" style="fill: none; stroke: #000000; stroke-width: 0.8; stroke-linejoin: miter; stroke-linecap: square"/>
   </g>
   <g id="patch_6">
    <path d="M 92.490625 31.43625 
L 650.490625 31.43625 
" style="fill: none; stroke: #000000; stroke-width: 0.8; stroke-linejoin: miter; stroke-linecap: square"/>
   </g>
   <g id="text_17">
    <!-- Generator and Discriminator Loss During Training -->
    <g transform="translate(74.258125 25.43625) scale(0.24 -0.24)">
     <defs>
      <path id="DejaVuSans-47" d="M 3809 666 
L 3809 1919 
L 2778 1919 
L 2778 2438 
L 4434 2438 
L 4434 434 
Q 4069 175 3628 42 
Q 3188 -91 2688 -91 
Q 1594 -91 976 548 
Q 359 1188 359 2328 
Q 359 3472 976 4111 
Q 1594 4750 2688 4750 
Q 3144 4750 3555 4637 
Q 3966 4525 4313 4306 
L 4313 3634 
Q 3963 3931 3569 4081 
Q 3175 4231 2741 4231 
Q 1884 4231 1454 3753 
Q 1025 3275 1025 2328 
Q 1025 1384 1454 906 
Q 1884 428 2741 428 
Q 3075 428 3337 486 
Q 3600 544 3809 666 
z
" transform="scale(0.015625)"/>
      <path id="DejaVuSans-20" transform="scale(0.015625)"/>
      <path id="DejaVuSans-64" d="M 2906 2969 
L 2906 4863 
L 3481 4863 
L 3481 0 
L 2906 0 
L 2906 525 
Q 2725 213 2448 61 
Q 2172 -91 1784 -91 
Q 1150 -91 751 415 
Q 353 922 353 1747 
Q 353 2572 751 3078 
Q 1150 3584 1784 3584 
Q 2172 3584 2448 3432 
Q 2725 3281 2906 2969 
z
M 947 1747 
Q 947 1113 1208 752 
Q 1469 391 1925 391 
Q 2381 391 2643 752 
Q 2906 1113 2906 1747 
Q 2906 2381 2643 2742 
Q 2381 3103 1925 3103 
Q 1469 3103 1208 2742 
Q 947 2381 947 1747 
z
" transform="scale(0.015625)"/>
      <path id="DejaVuSans-44" d="M 1259 4147 
L 1259 519 
L 2022 519 
Q 2988 519 3436 956 
Q 3884 1394 3884 2338 
Q 3884 3275 3436 3711 
Q 2988 4147 2022 4147 
L 1259 4147 
z
M 628 4666 
L 1925 4666 
Q 3281 4666 3915 4102 
Q 4550 3538 4550 2338 
Q 4550 1131 3912 565 
Q 3275 0 1925 0 
L 628 0 
L 628 4666 
z
" transform="scale(0.015625)"/>
      <path id="DejaVuSans-63" d="M 3122 3366 
L 3122 2828 
Q 2878 2963 2633 3030 
Q 2388 3097 2138 3097 
Q 1578 3097 1268 2742 
Q 959 2388 959 1747 
Q 959 1106 1268 751 
Q 1578 397 2138 397 
Q 2388 397 2633 464 
Q 2878 531 3122 666 
L 3122 134 
Q 2881 22 2623 -34 
Q 2366 -91 2075 -91 
Q 1284 -91 818 406 
Q 353 903 353 1747 
Q 353 2603 823 3093 
Q 1294 3584 2113 3584 
Q 2378 3584 2631 3529 
Q 2884 3475 3122 3366 
z
" transform="scale(0.015625)"/>
      <path id="DejaVuSans-6d" d="M 3328 2828 
Q 3544 3216 3844 3400 
Q 4144 3584 4550 3584 
Q 5097 3584 5394 3201 
Q 5691 2819 5691 2113 
L 5691 0 
L 5113 0 
L 5113 2094 
Q 5113 2597 4934 2840 
Q 4756 3084 4391 3084 
Q 3944 3084 3684 2787 
Q 3425 2491 3425 1978 
L 3425 0 
L 2847 0 
L 2847 2094 
Q 2847 2600 2669 2842 
Q 2491 3084 2119 3084 
Q 1678 3084 1418 2786 
Q 1159 2488 1159 1978 
L 1159 0 
L 581 0 
L 581 3500 
L 1159 3500 
L 1159 2956 
Q 1356 3278 1631 3431 
Q 1906 3584 2284 3584 
Q 2666 3584 2933 3390 
Q 3200 3197 3328 2828 
z
" transform="scale(0.015625)"/>
      <path id="DejaVuSans-75" d="M 544 1381 
L 544 3500 
L 1119 3500 
L 1119 1403 
Q 1119 906 1312 657 
Q 1506 409 1894 409 
Q 2359 409 2629 706 
Q 2900 1003 2900 1516 
L 2900 3500 
L 3475 3500 
L 3475 0 
L 2900 0 
L 2900 538 
Q 2691 219 2414 64 
Q 2138 -91 1772 -91 
Q 1169 -91 856 284 
Q 544 659 544 1381 
z
M 1991 3584 
L 1991 3584 
z
" transform="scale(0.015625)"/>
      <path id="DejaVuSans-67" d="M 2906 1791 
Q 2906 2416 2648 2759 
Q 2391 3103 1925 3103 
Q 1463 3103 1205 2759 
Q 947 2416 947 1791 
Q 947 1169 1205 825 
Q 1463 481 1925 481 
Q 2391 481 2648 825 
Q 2906 1169 2906 1791 
z
M 3481 434 
Q 3481 -459 3084 -895 
Q 2688 -1331 1869 -1331 
Q 1566 -1331 1297 -1286 
Q 1028 -1241 775 -1147 
L 775 -588 
Q 1028 -725 1275 -790 
Q 1522 -856 1778 -856 
Q 2344 -856 2625 -561 
Q 2906 -266 2906 331 
L 2906 616 
Q 2728 306 2450 153 
Q 2172 0 1784 0 
Q 1141 0 747 490 
Q 353 981 353 1791 
Q 353 2603 747 3093 
Q 1141 3584 1784 3584 
Q 2172 3584 2450 3431 
Q 2728 3278 2906 2969 
L 2906 3500 
L 3481 3500 
L 3481 434 
z
" transform="scale(0.015625)"/>
      <path id="DejaVuSans-54" d="M -19 4666 
L 3928 4666 
L 3928 4134 
L 2272 4134 
L 2272 0 
L 1638 0 
L 1638 4134 
L -19 4134 
L -19 4666 
z
" transform="scale(0.015625)"/>
     </defs>
     <use xlink:href="#DejaVuSans-47"/>
     <use xlink:href="#DejaVuSans-65" x="77.490234"/>
     <use xlink:href="#DejaVuSans-6e" x="139.013672"/>
     <use xlink:href="#DejaVuSans-65" x="202.392578"/>
     <use xlink:href="#DejaVuSans-72" x="263.916016"/>
     <use xlink:href="#DejaVuSans-61" x="305.029297"/>
     <use xlink:href="#DejaVuSans-74" x="366.308594"/>
     <use xlink:href="#DejaVuSans-6f" x="405.517578"/>
     <use xlink:href="#DejaVuSans-72" x="466.699219"/>
     <use xlink:href="#DejaVuSans-20" x="507.8125"/>
     <use xlink:href="#DejaVuSans-61" x="539.599609"/>
     <use xlink:href="#DejaVuSans-6e" x="600.878906"/>
     <use xlink:href="#DejaVuSans-64" x="664.257812"/>
     <use xlink:href="#DejaVuSans-20" x="727.734375"/>
     <use xlink:href="#DejaVuSans-44" x="759.521484"/>
     <use xlink:href="#DejaVuSans-69" x="836.523438"/>
     <use xlink:href="#DejaVuSans-73" x="864.306641"/>
     <use xlink:href="#DejaVuSans-63" x="916.40625"/>
     <use xlink:href="#DejaVuSans-72" x="971.386719"/>
     <use xlink:href="#DejaVuSans-69" x="1012.5"/>
     <use xlink:href="#DejaVuSans-6d" x="1040.283203"/>
     <use xlink:href="#DejaVuSans-69" x="1137.695312"/>
     <use xlink:href="#DejaVuSans-6e" x="1165.478516"/>
     <use xlink:href="#DejaVuSans-61" x="1228.857422"/>
     <use xlink:href="#DejaVuSans-74" x="1290.136719"/>
     <use xlink:href="#DejaVuSans-6f" x="1329.345703"/>
     <use xlink:href="#DejaVuSans-72" x="1390.527344"/>
     <use xlink:href="#DejaVuSans-20" x="1431.640625"/>
     <use xlink:href="#DejaVuSans-4c" x="1463.427734"/>
     <use xlink:href="#DejaVuSans-6f" x="1517.390625"/>
     <use xlink:href="#DejaVuSans-73" x="1578.572266"/>
     <use xlink:href="#DejaVuSans-73" x="1630.671875"/>
     <use xlink:href="#DejaVuSans-20" x="1682.771484"/>
     <use xlink:href="#DejaVuSans-44" x="1714.558594"/>
     <use xlink:href="#DejaVuSans-75" x="1791.560547"/>
     <use xlink:href="#DejaVuSans-72" x="1854.939453"/>
     <use xlink:href="#DejaVuSans-69" x="1896.052734"/>
     <use xlink:href="#DejaVuSans-6e" x="1923.835938"/>
     <use xlink:href="#DejaVuSans-67" x="1987.214844"/>
     <use xlink:href="#DejaVuSans-20" x="2050.691406"/>
     <use xlink:href="#DejaVuSans-54" x="2082.478516"/>
     <use xlink:href="#DejaVuSans-72" x="2128.8125"/>
     <use xlink:href="#DejaVuSans-61" x="2169.925781"/>
     <use xlink:href="#DejaVuSans-69" x="2231.205078"/>
     <use xlink:href="#DejaVuSans-6e" x="2258.988281"/>
     <use xlink:href="#DejaVuSans-69" x="2322.367188"/>
     <use xlink:href="#DejaVuSans-6e" x="2350.150391"/>
     <use xlink:href="#DejaVuSans-67" x="2413.529297"/>
    </g>
   </g>
   <g id="legend_1">
    <g id="patch_7">
     <path d="M 556.99375 106.14875 
L 636.490625 106.14875 
Q 640.490625 106.14875 640.490625 102.14875 
L 640.490625 45.43625 
Q 640.490625 41.43625 636.490625 41.43625 
L 556.99375 41.43625 
Q 552.99375 41.43625 552.99375 45.43625 
L 552.99375 102.14875 
Q 552.99375 106.14875 556.99375 106.14875 
z
" style="fill: #ffffff; opacity: 0.8; stroke: #cccccc; stroke-linejoin: miter"/>
    </g>
    <g id="line2d_17">
     <path d="M 560.99375 57.633125 
L 580.99375 57.633125 
L 600.99375 57.633125 
" style="fill: none; stroke: #1f77b4; stroke-width: 1.5; stroke-linecap: square"/>
    </g>
    <g id="text_18">
     <!-- G -->
     <g transform="translate(616.99375 64.633125) scale(0.2 -0.2)">
      <use xlink:href="#DejaVuSans-47"/>
     </g>
    </g>
    <g id="line2d_18">
     <path d="M 560.99375 86.989375 
L 580.99375 86.989375 
L 600.99375 86.989375 
" style="fill: none; stroke: #ff7f0e; stroke-width: 1.5; stroke-linecap: square"/>
    </g>
    <g id="text_19">
     <!-- D -->
     <g transform="translate(616.99375 93.989375) scale(0.2 -0.2)">
      <use xlink:href="#DejaVuSans-44"/>
     </g>
    </g>
   </g>
  </g>
 </g>
 <defs>
  <clipPath id="p57ef1870a9">
   <rect x="92.490625" y="31.43625" width="558" height="277.2"/>
  </clipPath>
 </defs>
</svg>
