<?xml version="1.0" encoding="utf-8" standalone="no"?>
<!DOCTYPE svg PUBLIC "-//W3C//DTD SVG 1.1//EN"
  "http://www.w3.org/Graphics/SVG/1.1/DTD/svg11.dtd">
<svg xmlns:xlink="http://www.w3.org/1999/xlink" width="675.923125pt" height="365.54875pt" viewBox="0 0 675.923125 365.54875" xmlns="http://www.w3.org/2000/svg" version="1.1">
 <metadata>
  <rdf:RDF xmlns:dc="http://purl.org/dc/elements/1.1/" xmlns:cc="http://creativecommons.org/ns#" xmlns:rdf="http://www.w3.org/1999/02/22-rdf-syntax-ns#">
   <cc:Work>
    <dc:type rdf:resource="http://purl.org/dc/dcmitype/StillImage"/>
    <dc:date>2024-02-02T16:00:20.111375</dc:date>
    <dc:format>image/svg+xml</dc:format>
    <dc:creator>
     <cc:Agent>
      <dc:title>Matplotlib v3.7.2, https://matplotlib.org/</dc:title>
     </cc:Agent>
    </dc:creator>
   </cc:Work>
  </rdf:RDF>
 </metadata>
 <defs>
  <style type="text/css">*{stroke-linejoin: round; stroke-linecap: butt}</style>
 </defs>
 <g id="figure_1">
  <g id="patch_1">
   <path d="M 0 365.54875 
L 675.923125 365.54875 
L 675.923125 -0 
L 0 -0 
z
" style="fill: #ffffff"/>
  </g>
  <g id="axes_1">
   <g id="patch_2">
    <path d="M 92.490625 308.63625 
L 650.490625 308.63625 
L 650.490625 31.43625 
L 92.490625 31.43625 
z
" style="fill: #ffffff"/>
   </g>
   <g id="matplotlib.axis_1">
    <g id="xtick_1">
     <g id="line2d_1">
      <defs>
       <path id="m1a8fb8e5e2" d="M 0 0 
L 0 3.5 
" style="stroke: #000000; stroke-width: 0.8"/>
      </defs>
      <g>
       <use xlink:href="#m1a8fb8e5e2" x="117.854261" y="308.63625" style="stroke: #000000; stroke-width: 0.8"/>
      </g>
     </g>
     <g id="text_1">
      <!-- 0 -->
      <g transform="translate(111.491761 330.833125) scale(0.2 -0.2)">
       <defs>
        <path id="DejaVuSans-30" d="M 2034 4250 
Q 1547 4250 1301 3770 
Q 1056 3291 1056 2328 
Q 1056 1369 1301 889 
Q 1547 409 2034 409 
Q 2525 409 2770 889 
Q 3016 1369 3016 2328 
Q 3016 3291 2770 3770 
Q 2525 4250 2034 4250 
z
M 2034 4750 
Q 2819 4750 3233 4129 
Q 3647 3509 3647 2328 
Q 3647 1150 3233 529 
Q 2819 -91 2034 -91 
Q 1250 -91 836 529 
Q 422 1150 422 2328 
Q 422 3509 836 4129 
Q 1250 4750 2034 4750 
z
" transform="scale(0.015625)"/>
       </defs>
       <use xlink:href="#DejaVuSans-30"/>
      </g>
     </g>
    </g>
    <g id="xtick_2">
     <g id="line2d_2">
      <g>
       <use xlink:href="#m1a8fb8e5e2" x="190.321794" y="308.63625" style="stroke: #000000; stroke-width: 0.8"/>
      </g>
     </g>
     <g id="text_2">
      <!-- 250 -->
      <g transform="translate(171.234294 330.833125) scale(0.2 -0.2)">
       <defs>
        <path id="DejaVuSans-32" d="M 1228 531 
L 3431 531 
L 3431 0 
L 469 0 
L 469 531 
Q 828 903 1448 1529 
Q 2069 2156 2228 2338 
Q 2531 2678 2651 2914 
Q 2772 3150 2772 3378 
Q 2772 3750 2511 3984 
Q 2250 4219 1831 4219 
Q 1534 4219 1204 4116 
Q 875 4013 500 3803 
L 500 4441 
Q 881 4594 1212 4672 
Q 1544 4750 1819 4750 
Q 2544 4750 2975 4387 
Q 3406 4025 3406 3419 
Q 3406 3131 3298 2873 
Q 3191 2616 2906 2266 
Q 2828 2175 2409 1742 
Q 1991 1309 1228 531 
z
" transform="scale(0.015625)"/>
        <path id="DejaVuSans-35" d="M 691 4666 
L 3169 4666 
L 3169 4134 
L 1269 4134 
L 1269 2991 
Q 1406 3038 1543 3061 
Q 1681 3084 1819 3084 
Q 2600 3084 3056 2656 
Q 3513 2228 3513 1497 
Q 3513 744 3044 326 
Q 2575 -91 1722 -91 
Q 1428 -91 1123 -41 
Q 819 9 494 109 
L 494 744 
Q 775 591 1075 516 
Q 1375 441 1709 441 
Q 2250 441 2565 725 
Q 2881 1009 2881 1497 
Q 2881 1984 2565 2268 
Q 2250 2553 1709 2553 
Q 1456 2553 1204 2497 
Q 953 2441 691 2322 
L 691 4666 
z
" transform="scale(0.015625)"/>
       </defs>
       <use xlink:href="#DejaVuSans-32"/>
       <use xlink:href="#DejaVuSans-35" x="63.623047"/>
       <use xlink:href="#DejaVuSans-30" x="127.246094"/>
      </g>
     </g>
    </g>
    <g id="xtick_3">
     <g id="line2d_3">
      <g>
       <use xlink:href="#m1a8fb8e5e2" x="262.789326" y="308.63625" style="stroke: #000000; stroke-width: 0.8"/>
      </g>
     </g>
     <g id="text_3">
      <!-- 500 -->
      <g transform="translate(243.701826 330.833125) scale(0.2 -0.2)">
       <use xlink:href="#DejaVuSans-35"/>
       <use xlink:href="#DejaVuSans-30" x="63.623047"/>
       <use xlink:href="#DejaVuSans-30" x="127.246094"/>
      </g>
     </g>
    </g>
    <g id="xtick_4">
     <g id="line2d_4">
      <g>
       <use xlink:href="#m1a8fb8e5e2" x="335.256859" y="308.63625" style="stroke: #000000; stroke-width: 0.8"/>
      </g>
     </g>
     <g id="text_4">
      <!-- 750 -->
      <g transform="translate(316.169359 330.833125) scale(0.2 -0.2)">
       <defs>
        <path id="DejaVuSans-37" d="M 525 4666 
L 3525 4666 
L 3525 4397 
L 1831 0 
L 1172 0 
L 2766 4134 
L 525 4134 
L 525 4666 
z
" transform="scale(0.015625)"/>
       </defs>
       <use xlink:href="#DejaVuSans-37"/>
       <use xlink:href="#DejaVuSans-35" x="63.623047"/>
       <use xlink:href="#DejaVuSans-30" x="127.246094"/>
      </g>
     </g>
    </g>
    <g id="xtick_5">
     <g id="line2d_5">
      <g>
       <use xlink:href="#m1a8fb8e5e2" x="407.724391" y="308.63625" style="stroke: #000000; stroke-width: 0.8"/>
      </g>
     </g>
     <g id="text_5">
      <!-- 1000 -->
      <g transform="translate(382.274391 330.833125) scale(0.2 -0.2)">
       <defs>
        <path id="DejaVuSans-31" d="M 794 531 
L 1825 531 
L 1825 4091 
L 703 3866 
L 703 4441 
L 1819 4666 
L 2450 4666 
L 2450 531 
L 3481 531 
L 3481 0 
L 794 0 
L 794 531 
z
" transform="scale(0.015625)"/>
       </defs>
       <use xlink:href="#DejaVuSans-31"/>
       <use xlink:href="#DejaVuSans-30" x="63.623047"/>
       <use xlink:href="#DejaVuSans-30" x="127.246094"/>
       <use xlink:href="#DejaVuSans-30" x="190.869141"/>
      </g>
     </g>
    </g>
    <g id="xtick_6">
     <g id="line2d_6">
      <g>
       <use xlink:href="#m1a8fb8e5e2" x="480.191924" y="308.63625" style="stroke: #000000; stroke-width: 0.8"/>
      </g>
     </g>
     <g id="text_6">
      <!-- 1250 -->
      <g transform="translate(454.741924 330.833125) scale(0.2 -0.2)">
       <use xlink:href="#DejaVuSans-31"/>
       <use xlink:href="#DejaVuSans-32" x="63.623047"/>
       <use xlink:href="#DejaVuSans-35" x="127.246094"/>
       <use xlink:href="#DejaVuSans-30" x="190.869141"/>
      </g>
     </g>
    </g>
    <g id="xtick_7">
     <g id="line2d_7">
      <g>
       <use xlink:href="#m1a8fb8e5e2" x="552.659456" y="308.63625" style="stroke: #000000; stroke-width: 0.8"/>
      </g>
     </g>
     <g id="text_7">
      <!-- 1500 -->
      <g transform="translate(527.209456 330.833125) scale(0.2 -0.2)">
       <use xlink:href="#DejaVuSans-31"/>
       <use xlink:href="#DejaVuSans-35" x="63.623047"/>
       <use xlink:href="#DejaVuSans-30" x="127.246094"/>
       <use xlink:href="#DejaVuSans-30" x="190.869141"/>
      </g>
     </g>
    </g>
    <g id="xtick_8">
     <g id="line2d_8">
      <g>
       <use xlink:href="#m1a8fb8e5e2" x="625.126989" y="308.63625" style="stroke: #000000; stroke-width: 0.8"/>
      </g>
     </g>
     <g id="text_8">
      <!-- 1750 -->
      <g transform="translate(599.676989 330.833125) scale(0.2 -0.2)">
       <use xlink:href="#DejaVuSans-31"/>
       <use xlink:href="#DejaVuSans-37" x="63.623047"/>
       <use xlink:href="#DejaVuSans-35" x="127.246094"/>
       <use xlink:href="#DejaVuSans-30" x="190.869141"/>
      </g>
     </g>
    </g>
    <g id="text_9">
     <!-- iterations -->
     <g transform="translate(324.035938 354.189375) scale(0.2 -0.2)">
      <defs>
       <path id="DejaVuSans-69" d="M 603 3500 
L 1178 3500 
L 1178 0 
L 603 0 
L 603 3500 
z
M 603 4863 
L 1178 4863 
L 1178 4134 
L 603 4134 
L 603 4863 
z
" transform="scale(0.015625)"/>
       <path id="DejaVuSans-74" d="M 1172 4494 
L 1172 3500 
L 2356 3500 
L 2356 3053 
L 1172 3053 
L 1172 1153 
Q 1172 725 1289 603 
Q 1406 481 1766 481 
L 2356 481 
L 2356 0 
L 1766 0 
Q 1100 0 847 248 
Q 594 497 594 1153 
L 594 3053 
L 172 3053 
L 172 3500 
L 594 3500 
L 594 4494 
L 1172 4494 
z
" transform="scale(0.015625)"/>
       <path id="DejaVuSans-65" d="M 3597 1894 
L 3597 1613 
L 953 1613 
Q 991 1019 1311 708 
Q 1631 397 2203 397 
Q 2534 397 2845 478 
Q 3156 559 3463 722 
L 3463 178 
Q 3153 47 2828 -22 
Q 2503 -91 2169 -91 
Q 1331 -91 842 396 
Q 353 884 353 1716 
Q 353 2575 817 3079 
Q 1281 3584 2069 3584 
Q 2775 3584 3186 3129 
Q 3597 2675 3597 1894 
z
M 3022 2063 
Q 3016 2534 2758 2815 
Q 2500 3097 2075 3097 
Q 1594 3097 1305 2825 
Q 1016 2553 972 2059 
L 3022 2063 
z
" transform="scale(0.015625)"/>
       <path id="DejaVuSans-72" d="M 2631 2963 
Q 2534 3019 2420 3045 
Q 2306 3072 2169 3072 
Q 1681 3072 1420 2755 
Q 1159 2438 1159 1844 
L 1159 0 
L 581 0 
L 581 3500 
L 1159 3500 
L 1159 2956 
Q 1341 3275 1631 3429 
Q 1922 3584 2338 3584 
Q 2397 3584 2469 3576 
Q 2541 3569 2628 3553 
L 2631 2963 
z
" transform="scale(0.015625)"/>
       <path id="DejaVuSans-61" d="M 2194 1759 
Q 1497 1759 1228 1600 
Q 959 1441 959 1056 
Q 959 750 1161 570 
Q 1363 391 1709 391 
Q 2188 391 2477 730 
Q 2766 1069 2766 1631 
L 2766 1759 
L 2194 1759 
z
M 3341 1997 
L 3341 0 
L 2766 0 
L 2766 531 
Q 2569 213 2275 61 
Q 1981 -91 1556 -91 
Q 1019 -91 701 211 
Q 384 513 384 1019 
Q 384 1609 779 1909 
Q 1175 2209 1959 2209 
L 2766 2209 
L 2766 2266 
Q 2766 2663 2505 2880 
Q 2244 3097 1772 3097 
Q 1472 3097 1187 3025 
Q 903 2953 641 2809 
L 641 3341 
Q 956 3463 1253 3523 
Q 1550 3584 1831 3584 
Q 2591 3584 2966 3190 
Q 3341 2797 3341 1997 
z
" transform="scale(0.015625)"/>
       <path id="DejaVuSans-6f" d="M 1959 3097 
Q 1497 3097 1228 2736 
Q 959 2375 959 1747 
Q 959 1119 1226 758 
Q 1494 397 1959 397 
Q 2419 397 2687 759 
Q 2956 1122 2956 1747 
Q 2956 2369 2687 2733 
Q 2419 3097 1959 3097 
z
M 1959 3584 
Q 2709 3584 3137 3096 
Q 3566 2609 3566 1747 
Q 3566 888 3137 398 
Q 2709 -91 1959 -91 
Q 1206 -91 779 398 
Q 353 888 353 1747 
Q 353 2609 779 3096 
Q 1206 3584 1959 3584 
z
" transform="scale(0.015625)"/>
       <path id="DejaVuSans-6e" d="M 3513 2113 
L 3513 0 
L 2938 0 
L 2938 2094 
Q 2938 2591 2744 2837 
Q 2550 3084 2163 3084 
Q 1697 3084 1428 2787 
Q 1159 2491 1159 1978 
L 1159 0 
L 581 0 
L 581 3500 
L 1159 3500 
L 1159 2956 
Q 1366 3272 1645 3428 
Q 1925 3584 2291 3584 
Q 2894 3584 3203 3211 
Q 3513 2838 3513 2113 
z
" transform="scale(0.015625)"/>
       <path id="DejaVuSans-73" d="M 2834 3397 
L 2834 2853 
Q 2591 2978 2328 3040 
Q 2066 3103 1784 3103 
Q 1356 3103 1142 2972 
Q 928 2841 928 2578 
Q 928 2378 1081 2264 
Q 1234 2150 1697 2047 
L 1894 2003 
Q 2506 1872 2764 1633 
Q 3022 1394 3022 966 
Q 3022 478 2636 193 
Q 2250 -91 1575 -91 
Q 1294 -91 989 -36 
Q 684 19 347 128 
L 347 722 
Q 666 556 975 473 
Q 1284 391 1588 391 
Q 1994 391 2212 530 
Q 2431 669 2431 922 
Q 2431 1156 2273 1281 
Q 2116 1406 1581 1522 
L 1381 1569 
Q 847 1681 609 1914 
Q 372 2147 372 2553 
Q 372 3047 722 3315 
Q 1072 3584 1716 3584 
Q 2034 3584 2315 3537 
Q 2597 3491 2834 3397 
z
" transform="scale(0.015625)"/>
      </defs>
      <use xlink:href="#DejaVuSans-69"/>
      <use xlink:href="#DejaVuSans-74" x="27.783203"/>
      <use xlink:href="#DejaVuSans-65" x="66.992188"/>
      <use xlink:href="#DejaVuSans-72" x="128.515625"/>
      <use xlink:href="#DejaVuSans-61" x="169.628906"/>
      <use xlink:href="#DejaVuSans-74" x="230.908203"/>
      <use xlink:href="#DejaVuSans-69" x="270.117188"/>
      <use xlink:href="#DejaVuSans-6f" x="297.900391"/>
      <use xlink:href="#DejaVuSans-6e" x="359.082031"/>
      <use xlink:href="#DejaVuSans-73" x="422.460938"/>
     </g>
    </g>
   </g>
   <g id="matplotlib.axis_2">
    <g id="ytick_1">
     <g id="line2d_9">
      <defs>
       <path id="m1d0e89ab9f" d="M 0 0 
L -3.5 0 
" style="stroke: #000000; stroke-width: 0.8"/>
      </defs>
      <g>
       <use xlink:href="#m1d0e89ab9f" x="92.490625" y="279.562782" style="stroke: #000000; stroke-width: 0.8"/>
      </g>
     </g>
     <g id="text_10">
      <!-- −200 -->
      <g transform="translate(30.55625 287.16122) scale(0.2 -0.2)">
       <defs>
        <path id="DejaVuSans-2212" d="M 678 2272 
L 4684 2272 
L 4684 1741 
L 678 1741 
L 678 2272 
z
" transform="scale(0.015625)"/>
       </defs>
       <use xlink:href="#DejaVuSans-2212"/>
       <use xlink:href="#DejaVuSans-32" x="83.789062"/>
       <use xlink:href="#DejaVuSans-30" x="147.412109"/>
       <use xlink:href="#DejaVuSans-30" x="211.035156"/>
      </g>
     </g>
    </g>
    <g id="ytick_2">
     <g id="line2d_10">
      <g>
       <use xlink:href="#m1d0e89ab9f" x="92.490625" y="229.718252" style="stroke: #000000; stroke-width: 0.8"/>
      </g>
     </g>
     <g id="text_11">
      <!-- −100 -->
      <g transform="translate(30.55625 237.316689) scale(0.2 -0.2)">
       <use xlink:href="#DejaVuSans-2212"/>
       <use xlink:href="#DejaVuSans-31" x="83.789062"/>
       <use xlink:href="#DejaVuSans-30" x="147.412109"/>
       <use xlink:href="#DejaVuSans-30" x="211.035156"/>
      </g>
     </g>
    </g>
    <g id="ytick_3">
     <g id="line2d_11">
      <g>
       <use xlink:href="#m1d0e89ab9f" x="92.490625" y="179.873722" style="stroke: #000000; stroke-width: 0.8"/>
      </g>
     </g>
     <g id="text_12">
      <!-- 0 -->
      <g transform="translate(72.765625 187.472159) scale(0.2 -0.2)">
       <use xlink:href="#DejaVuSans-30"/>
      </g>
     </g>
    </g>
    <g id="ytick_4">
     <g id="line2d_12">
      <g>
       <use xlink:href="#m1d0e89ab9f" x="92.490625" y="130.029191" style="stroke: #000000; stroke-width: 0.8"/>
      </g>
     </g>
     <g id="text_13">
      <!-- 100 -->
      <g transform="translate(47.315625 137.627629) scale(0.2 -0.2)">
       <use xlink:href="#DejaVuSans-31"/>
       <use xlink:href="#DejaVuSans-30" x="63.623047"/>
       <use xlink:href="#DejaVuSans-30" x="127.246094"/>
      </g>
     </g>
    </g>
    <g id="ytick_5">
     <g id="line2d_13">
      <g>
       <use xlink:href="#m1d0e89ab9f" x="92.490625" y="80.184661" style="stroke: #000000; stroke-width: 0.8"/>
      </g>
     </g>
     <g id="text_14">
      <!-- 200 -->
      <g transform="translate(47.315625 87.783098) scale(0.2 -0.2)">
       <use xlink:href="#DejaVuSans-32"/>
       <use xlink:href="#DejaVuSans-30" x="63.623047"/>
       <use xlink:href="#DejaVuSans-30" x="127.246094"/>
      </g>
     </g>
    </g>
    <g id="text_15">
     <!-- Loss -->
     <g transform="translate(22.396875 191.970625) rotate(-90) scale(0.2 -0.2)">
      <defs>
       <path id="DejaVuSans-4c" d="M 628 4666 
L 1259 4666 
L 1259 531 
L 3531 531 
L 3531 0 
L 628 0 
L 628 4666 
z
" transform="scale(0.015625)"/>
      </defs>
      <use xlink:href="#DejaVuSans-4c"/>
      <use xlink:href="#DejaVuSans-6f" x="53.962891"/>
      <use xlink:href="#DejaVuSans-73" x="115.144531"/>
      <use xlink:href="#DejaVuSans-73" x="167.244141"/>
     </g>
    </g>
   </g>
   <g id="line2d_14">
    <path d="M 117.854261 124.531878 
L 118.144131 113.612244 
L 118.434002 120.519891 
L 119.013742 82.758685 
L 119.303612 52.516894 
L 119.593482 44.03625 
L 119.883352 61.970005 
L 120.173222 47.184644 
L 120.752963 80.314335 
L 121.042833 92.451127 
L 121.332703 90.170035 
L 121.912443 102.578324 
L 122.202313 95.671232 
L 122.492183 100.331578 
L 122.782054 100.663401 
L 123.071924 98.525286 
L 123.361794 104.282319 
L 123.651664 116.142604 
L 123.941534 120.516331 
L 124.231404 130.835256 
L 124.811144 127.698731 
L 125.101015 125.168182 
L 125.390885 126.943921 
L 125.680755 124.005949 
L 126.260495 122.923807 
L 126.550365 123.257928 
L 126.840235 118.898656 
L 127.130106 119.56434 
L 127.419976 115.700499 
L 127.709846 117.745463 
L 127.999716 123.442567 
L 128.289586 123.774871 
L 129.159196 120.942223 
L 129.449067 119.124284 
L 129.738937 125.017556 
L 130.028807 133.214281 
L 130.318677 129.161825 
L 130.608547 123.543387 
L 130.898417 122.23231 
L 131.188287 123.023945 
L 131.478157 127.784878 
L 131.768028 121.940687 
L 132.057898 123.981988 
L 132.637638 131.485114 
L 132.927508 128.917539 
L 133.217378 136.589669 
L 133.507248 136.567041 
L 133.797119 125.362361 
L 134.086989 126.824283 
L 134.376859 135.707324 
L 134.666729 137.326724 
L 134.956599 136.946144 
L 135.536339 141.297559 
L 135.826209 145.047706 
L 136.11608 145.805225 
L 136.40595 141.997796 
L 136.98569 139.025662 
L 137.27556 137.019952 
L 137.56543 138.139239 
L 137.8553 136.827967 
L 138.14517 138.508057 
L 138.435041 138.220575 
L 138.724911 138.101893 
L 139.014781 135.608969 
L 139.304651 141.338619 
L 139.884391 134.107495 
L 140.174261 138.24287 
L 140.464131 138.539082 
L 140.754002 134.882217 
L 141.043872 125.534589 
L 141.333742 130.92867 
L 141.623612 130.995844 
L 141.913482 129.896139 
L 142.203352 130.701701 
L 142.493222 134.78225 
L 143.072963 139.833902 
L 143.362833 134.538663 
L 143.652703 132.112555 
L 143.942573 132.679362 
L 144.232443 137.227089 
L 144.522313 136.509092 
L 144.812183 134.164532 
L 145.102054 138.634416 
L 145.391924 137.086605 
L 145.681794 139.48127 
L 145.971664 140.847521 
L 146.261534 136.401101 
L 146.551404 136.610398 
L 146.841274 141.120117 
L 147.131144 141.657382 
L 147.421015 141.745369 
L 148.000755 145.930699 
L 148.290625 144.353858 
L 148.580495 147.068299 
L 149.160235 143.872919 
L 149.450106 144.823045 
L 149.739976 145.322043 
L 150.319716 151.758086 
L 150.609586 147.409346 
L 150.899456 147.688363 
L 151.479196 143.905424 
L 151.769067 146.884967 
L 152.348807 147.688029 
L 152.928547 140.161348 
L 153.218417 143.441326 
L 153.508287 141.701099 
L 153.798157 143.244373 
L 154.088028 141.485977 
L 154.377898 143.743617 
L 154.667768 141.752809 
L 154.957638 144.378451 
L 155.247508 145.924998 
L 155.827248 145.710239 
L 156.117119 146.822277 
L 156.696859 142.812817 
L 156.986729 146.722669 
L 157.276599 142.762511 
L 157.566469 145.958757 
L 157.856339 145.805341 
L 158.146209 143.312113 
L 158.43608 144.758427 
L 158.72595 147.303361 
L 159.01582 146.89064 
L 159.30569 147.574506 
L 159.59556 148.59455 
L 160.1753 152.506974 
L 160.46517 150.388494 
L 160.755041 151.806019 
L 161.044911 150.902817 
L 161.334781 151.840849 
L 161.624651 149.806097 
L 161.914521 146.162209 
L 162.204391 148.368318 
L 162.494261 152.27345 
L 162.784131 151.466282 
L 163.074002 152.492185 
L 163.363872 150.095374 
L 163.943612 152.38361 
L 164.233482 151.164398 
L 164.523352 152.661597 
L 164.813222 153.504509 
L 165.103093 153.070374 
L 165.392963 153.701229 
L 165.972703 155.925178 
L 166.552443 153.860758 
L 166.842313 153.674296 
L 167.132183 153.035097 
L 167.422054 154.346622 
L 168.001794 153.137666 
L 168.291664 153.719381 
L 168.581534 151.537183 
L 168.871404 152.382328 
L 169.161274 153.754748 
L 169.451144 152.730595 
L 169.741015 153.912518 
L 170.030885 155.763226 
L 170.320755 154.635505 
L 170.610625 156.375225 
L 170.900495 154.862806 
L 171.480235 158.475495 
L 171.770106 159.246486 
L 172.059976 160.579032 
L 172.349846 160.177923 
L 172.639716 158.198611 
L 172.929586 157.632745 
L 173.219456 158.695304 
L 173.509326 158.058747 
L 174.378937 161.274453 
L 174.668807 161.049882 
L 175.248547 162.780169 
L 175.538417 162.93181 
L 175.828287 162.909826 
L 176.118157 163.16357 
L 176.408028 163.590409 
L 176.987768 163.028633 
L 177.277638 164.160838 
L 177.567508 163.43676 
L 177.857378 163.598174 
L 178.147248 163.302926 
L 178.437119 163.467349 
L 178.726989 163.018195 
L 179.016859 164.735424 
L 179.306729 163.474858 
L 179.596599 161.245375 
L 179.886469 162.806307 
L 180.75608 163.922568 
L 181.04595 162.747043 
L 181.33582 162.225773 
L 181.62569 162.846469 
L 181.91556 165.236295 
L 182.20543 163.231114 
L 182.4953 163.010536 
L 182.78517 163.003862 
L 183.075041 164.481228 
L 183.364911 164.159237 
L 183.654781 165.05063 
L 183.944651 167.617109 
L 184.234521 166.927606 
L 184.524391 166.829197 
L 184.814261 167.045429 
L 185.104131 167.040901 
L 185.394002 168.045201 
L 185.973742 166.198974 
L 186.263612 166.800597 
L 186.553482 168.759688 
L 186.843352 168.974249 
L 187.133222 166.434748 
L 187.423093 165.174013 
L 187.712963 167.03687 
L 188.292703 167.675998 
L 188.582573 167.355134 
L 188.872443 166.638156 
L 189.162313 167.116547 
L 189.452183 167.266925 
L 189.742054 168.14975 
L 190.031924 167.908898 
L 190.321794 168.146553 
L 190.611664 168.238457 
L 191.191404 167.240999 
L 191.481274 168.253029 
L 191.771144 166.399731 
L 192.061015 167.169623 
L 192.350885 166.210275 
L 192.640755 167.497068 
L 192.930625 165.698517 
L 193.510365 166.698603 
L 193.800235 166.841433 
L 194.090106 166.310281 
L 194.379976 165.479998 
L 194.669846 165.215218 
L 194.959716 165.668773 
L 195.249586 167.322442 
L 195.539456 165.913513 
L 195.829326 165.804076 
L 196.119196 165.367667 
L 196.409067 166.220259 
L 196.698937 166.206106 
L 196.988807 165.972338 
L 197.278677 166.913536 
L 197.568547 166.170453 
L 197.858417 165.912273 
L 198.148287 166.548458 
L 198.438157 165.862925 
L 199.017898 167.181714 
L 199.307768 166.678216 
L 199.597638 166.675568 
L 199.887508 167.875845 
L 200.177378 168.366442 
L 200.467248 168.449603 
L 201.046989 169.32032 
L 201.336859 167.9225 
L 201.916599 168.843936 
L 202.206469 168.960531 
L 202.496339 168.782386 
L 202.786209 168.317253 
L 203.07608 169.688678 
L 203.36595 169.233972 
L 203.65582 169.06092 
L 204.23556 170.546879 
L 204.52543 170.171745 
L 204.8153 171.878035 
L 205.395041 171.137158 
L 205.684911 169.278403 
L 205.974781 169.725672 
L 206.264651 170.615596 
L 206.554521 169.496235 
L 206.844391 169.782768 
L 207.134261 169.890141 
L 207.424131 171.456883 
L 208.003872 170.001103 
L 208.293742 169.926751 
L 208.873482 171.37963 
L 209.163352 171.029107 
L 209.453222 171.124863 
L 209.743093 170.681482 
L 210.032963 170.87703 
L 210.322833 170.384301 
L 210.612703 170.986704 
L 210.902573 170.791971 
L 211.192443 169.625101 
L 211.482313 171.288955 
L 211.772183 170.927486 
L 212.062054 170.864856 
L 212.351924 171.211611 
L 212.641794 172.079021 
L 212.931664 171.845111 
L 213.221534 170.97074 
L 213.511404 171.625128 
L 213.801274 170.983582 
L 214.381015 171.02878 
L 214.960755 172.322231 
L 215.250625 171.627739 
L 215.540495 171.467542 
L 215.830365 172.467587 
L 216.120235 171.02565 
L 216.410106 171.947077 
L 216.699976 171.483687 
L 216.989846 172.050066 
L 217.859456 169.947551 
L 218.149326 170.733685 
L 218.439196 170.584067 
L 218.729067 171.103421 
L 219.018937 171.348453 
L 219.308807 171.120201 
L 219.888547 170.210684 
L 220.178417 170.789454 
L 220.468287 170.980313 
L 220.758157 172.211916 
L 221.048028 171.753866 
L 221.337898 172.058202 
L 221.627768 170.710387 
L 221.917638 171.610416 
L 222.497378 170.275572 
L 222.787248 170.921107 
L 223.077119 170.142906 
L 223.366989 171.335557 
L 223.656859 170.05853 
L 223.946729 170.093304 
L 224.236599 170.469731 
L 224.526469 171.273628 
L 224.816339 171.728208 
L 225.106209 171.723017 
L 225.39608 170.898618 
L 225.97582 171.377761 
L 226.26569 171.45996 
L 226.55556 170.901117 
L 226.84543 169.754796 
L 227.715041 171.283549 
L 228.004911 170.797232 
L 228.294781 171.524636 
L 228.584651 171.480676 
L 228.874521 171.125477 
L 229.744131 171.450506 
L 230.034002 170.746657 
L 230.323872 171.893811 
L 230.903612 169.705521 
L 231.193482 169.357828 
L 231.483352 169.628308 
L 231.773222 170.894575 
L 232.063093 171.221226 
L 232.352963 171.32752 
L 232.642833 171.762098 
L 232.932703 171.419549 
L 233.222573 171.510481 
L 233.512443 170.604535 
L 233.802313 172.064219 
L 234.092183 172.504472 
L 234.382054 171.730852 
L 234.671924 171.717936 
L 234.961794 171.126913 
L 235.251664 171.028055 
L 235.541534 171.81357 
L 235.831404 171.842793 
L 236.121274 171.260918 
L 236.411144 171.661503 
L 236.701015 171.18838 
L 237.570625 171.680532 
L 237.860495 172.343042 
L 238.150365 170.773445 
L 238.440235 171.850861 
L 238.730106 171.335879 
L 239.019976 171.470768 
L 239.309846 171.404438 
L 239.599716 170.42896 
L 239.889586 170.751651 
L 240.179456 170.623119 
L 240.469326 171.204737 
L 240.759196 169.869313 
L 241.049067 169.636724 
L 241.628807 170.828434 
L 241.918677 170.552112 
L 242.208547 170.519111 
L 242.498417 170.941655 
L 242.788287 169.718798 
L 243.078157 169.862972 
L 243.368028 170.788851 
L 243.947768 168.405074 
L 244.237638 169.592541 
L 244.817378 168.929275 
L 245.107248 168.277422 
L 245.397119 168.303997 
L 245.976859 169.461484 
L 246.556599 168.954341 
L 246.846469 167.445263 
L 247.136339 168.252356 
L 248.00595 169.043828 
L 248.29582 170.208008 
L 248.58569 169.180695 
L 248.87556 168.673338 
L 249.16543 168.707785 
L 249.4553 169.243154 
L 249.74517 169.377209 
L 250.035041 168.851158 
L 250.324911 166.81334 
L 250.614781 168.761281 
L 250.904651 168.000392 
L 251.194521 167.564612 
L 251.774261 168.156309 
L 252.064131 168.13164 
L 252.354002 168.675291 
L 252.643872 168.119421 
L 252.933742 168.305333 
L 253.223612 167.535693 
L 253.513482 169.078896 
L 253.803352 168.406488 
L 254.093222 169.281049 
L 254.383093 168.148249 
L 254.672963 168.593674 
L 254.962833 168.732842 
L 255.252703 168.470857 
L 255.542573 169.372396 
L 255.832443 169.29299 
L 256.412183 167.88763 
L 256.702054 167.936869 
L 256.991924 168.913264 
L 257.281794 167.685689 
L 257.861534 168.452807 
L 258.151404 168.225701 
L 258.441274 170.2633 
L 258.731144 169.857828 
L 259.021015 168.55073 
L 259.310885 168.94689 
L 259.890625 167.836903 
L 260.180495 168.529338 
L 260.470365 168.526433 
L 260.760235 168.242491 
L 261.050106 168.845629 
L 261.339976 168.793187 
L 261.629846 169.295145 
L 261.919716 168.568328 
L 262.209586 169.156795 
L 262.499456 168.842294 
L 262.789326 169.404308 
L 263.079196 168.600934 
L 263.369067 169.158425 
L 263.658937 169.261816 
L 263.948807 169.167373 
L 264.238677 168.318719 
L 264.528547 168.55359 
L 265.108287 169.344485 
L 265.398157 168.986347 
L 265.688028 169.062865 
L 265.977898 167.845035 
L 266.267768 168.951697 
L 266.847508 166.987109 
L 267.427248 168.536455 
L 267.717119 167.813438 
L 268.586729 168.653876 
L 268.876599 169.890846 
L 269.166469 168.602198 
L 269.456339 168.122958 
L 269.746209 166.912785 
L 270.03608 168.156099 
L 270.32595 167.661884 
L 270.61582 169.488083 
L 270.90569 169.485607 
L 271.7753 168.073372 
L 272.06517 169.155096 
L 272.355041 167.873866 
L 272.644911 168.345896 
L 272.934781 168.076867 
L 273.224651 169.271937 
L 274.094261 165.679123 
L 274.963872 168.312368 
L 275.253742 167.853324 
L 275.543612 168.205852 
L 275.833482 167.419576 
L 276.123352 167.036538 
L 276.413222 168.70488 
L 277.282833 166.654306 
L 277.572703 167.786472 
L 277.862573 167.416425 
L 278.152443 168.569706 
L 278.442313 168.490675 
L 278.732183 169.154549 
L 279.022054 167.278725 
L 279.311924 168.560299 
L 279.601794 168.787789 
L 279.891664 167.280913 
L 280.181534 167.403509 
L 280.471404 166.122042 
L 280.761274 167.890703 
L 281.051144 166.99708 
L 281.341015 168.252917 
L 281.630885 166.923159 
L 281.920755 167.016084 
L 282.210625 167.241264 
L 282.790365 167.045006 
L 283.080235 166.305466 
L 283.370106 165.975857 
L 283.659976 167.000925 
L 283.949846 166.83386 
L 284.239716 167.60513 
L 284.529586 167.629385 
L 285.109326 167.104138 
L 285.399196 166.397981 
L 285.689067 167.148153 
L 285.978937 166.744054 
L 286.268807 165.842051 
L 286.558677 165.51877 
L 286.848547 166.309628 
L 287.138417 165.740703 
L 287.428287 166.816051 
L 288.008028 165.723097 
L 288.297898 166.108493 
L 288.877638 165.4902 
L 289.457378 166.795149 
L 289.747248 166.654096 
L 290.326989 167.621033 
L 290.616859 166.864147 
L 290.906729 167.267206 
L 291.196599 168.778092 
L 291.486469 169.05499 
L 291.776339 168.761897 
L 292.066209 168.71093 
L 292.35608 167.742667 
L 292.93582 169.264613 
L 293.22569 167.432988 
L 293.51556 168.344806 
L 293.80543 168.502555 
L 294.0953 169.430815 
L 294.38517 169.685325 
L 294.675041 168.870997 
L 294.964911 169.484155 
L 295.544651 169.27929 
L 295.834521 168.891965 
L 296.704131 170.281456 
L 296.994002 169.650673 
L 297.283872 169.556229 
L 297.573742 169.332334 
L 297.863612 169.753204 
L 298.153482 169.245746 
L 298.443352 169.301257 
L 298.733222 168.308343 
L 299.023093 168.719347 
L 299.312963 169.428888 
L 299.602833 170.479059 
L 299.892703 169.745954 
L 300.182573 170.42337 
L 300.762313 170.868408 
L 301.052183 170.270927 
L 301.342054 169.303986 
L 301.631924 170.119499 
L 301.921794 169.767772 
L 302.211664 169.857879 
L 302.501534 169.586723 
L 302.791404 169.716683 
L 303.081274 171.181534 
L 303.371144 170.772517 
L 303.661015 171.187108 
L 303.950885 170.514292 
L 304.240755 170.129486 
L 304.530625 170.984094 
L 304.820495 171.01828 
L 305.110365 171.330471 
L 305.400235 170.098185 
L 305.690106 171.20177 
L 305.979976 170.094581 
L 306.559716 170.954885 
L 306.849586 170.937869 
L 307.139456 171.877335 
L 307.429326 171.940686 
L 307.719196 171.802314 
L 308.009067 170.553515 
L 308.298937 170.961193 
L 308.588807 170.871702 
L 308.878677 171.781641 
L 309.168547 171.652601 
L 309.748287 169.934908 
L 310.038157 169.855105 
L 310.328028 169.93931 
L 310.617898 170.289627 
L 310.907768 171.688032 
L 311.197638 171.08577 
L 311.487508 171.519824 
L 311.777378 171.452305 
L 312.067248 170.690751 
L 312.357119 170.4779 
L 312.646989 170.686815 
L 312.936859 171.598358 
L 313.226729 171.429171 
L 313.516599 170.468689 
L 313.806469 170.552143 
L 314.096339 171.170605 
L 314.386209 171.076991 
L 314.67608 170.857447 
L 314.96595 172.026858 
L 315.25582 171.897187 
L 315.54569 172.552691 
L 315.83556 172.187376 
L 316.12543 172.119924 
L 316.4153 172.812751 
L 316.70517 172.431816 
L 316.995041 171.504635 
L 317.284911 171.078927 
L 317.574781 172.052269 
L 317.864651 172.01934 
L 318.154521 171.139247 
L 318.444391 171.456836 
L 318.734261 172.361364 
L 319.024131 171.736331 
L 319.314002 172.752857 
L 319.603872 172.572182 
L 319.893742 171.777554 
L 320.183612 171.812087 
L 320.473482 172.632344 
L 320.763352 173.098525 
L 321.053222 172.871148 
L 321.343093 171.911924 
L 322.212703 172.795828 
L 322.502573 172.498574 
L 322.792443 172.657809 
L 323.082313 172.305638 
L 323.372183 173.087526 
L 323.662054 172.752212 
L 323.951924 171.853783 
L 324.241794 172.249377 
L 324.531664 173.237597 
L 324.821534 172.465509 
L 325.111404 172.943736 
L 325.691144 172.308294 
L 325.981015 172.475761 
L 326.270885 172.805779 
L 326.560755 173.509988 
L 326.850625 173.535105 
L 327.140495 172.965856 
L 327.430365 173.195651 
L 327.720235 173.028642 
L 328.010106 173.17028 
L 328.299976 173.69358 
L 328.589846 173.695534 
L 328.879716 173.025585 
L 329.169586 173.163722 
L 329.459456 172.773572 
L 329.749326 172.143886 
L 330.039196 172.728104 
L 330.618937 173.301175 
L 330.908807 173.212307 
L 331.198677 173.473794 
L 331.488547 173.354617 
L 331.778417 172.340577 
L 332.648028 173.545899 
L 332.937898 173.717131 
L 334.097378 172.846439 
L 334.387248 172.830841 
L 334.966989 173.914986 
L 335.256859 173.328633 
L 335.546729 173.220606 
L 335.836599 172.633549 
L 336.416339 172.524903 
L 336.706209 172.899515 
L 336.99608 172.995464 
L 337.28595 173.52655 
L 337.57582 172.911105 
L 338.15556 173.067123 
L 338.44543 172.580127 
L 338.7353 173.506689 
L 339.02517 173.224257 
L 339.604911 173.550066 
L 339.894781 173.870253 
L 340.184651 173.463889 
L 340.474521 173.309775 
L 340.764391 174.370365 
L 341.054261 174.641543 
L 341.344131 173.336782 
L 341.634002 174.511969 
L 341.923872 174.789815 
L 342.213742 174.779389 
L 342.503612 174.237352 
L 342.793482 174.548939 
L 343.083352 174.300293 
L 343.373222 174.250603 
L 343.663093 174.571552 
L 343.952963 174.630708 
L 344.242833 174.100518 
L 344.532703 174.358606 
L 344.822573 173.547171 
L 345.692183 174.726061 
L 345.982054 174.763368 
L 346.561794 173.868562 
L 346.851664 174.002336 
L 347.141534 174.499336 
L 347.431404 174.761793 
L 347.721274 174.237576 
L 348.011144 173.960542 
L 348.301015 174.456797 
L 348.590885 174.608312 
L 348.880755 173.651449 
L 349.170625 174.262652 
L 349.460495 173.571319 
L 349.750365 173.445559 
L 350.040235 174.284243 
L 350.330106 174.647367 
L 350.619976 174.143819 
L 350.909846 175.098752 
L 351.199716 174.592985 
L 351.489586 174.67441 
L 351.779456 173.986843 
L 352.069326 174.89315 
L 352.359196 175.040789 
L 352.649067 174.521271 
L 352.938937 174.31169 
L 353.228807 174.409975 
L 353.518677 174.844725 
L 353.808547 174.091942 
L 354.098417 174.054085 
L 354.388287 175.056739 
L 354.678157 175.179453 
L 354.968028 174.76291 
L 355.257898 175.188881 
L 355.547768 174.606071 
L 355.837638 174.643741 
L 356.127508 175.360247 
L 356.417378 174.345135 
L 356.707248 174.196209 
L 356.997119 174.545014 
L 357.286989 174.055634 
L 357.576859 174.603814 
L 357.866729 174.591183 
L 358.156599 174.85815 
L 358.446469 175.470077 
L 359.31608 174.592355 
L 359.60595 175.085638 
L 360.47556 175.479677 
L 361.0553 174.720709 
L 361.34517 175.256771 
L 361.635041 174.918766 
L 361.924911 175.417736 
L 362.214781 174.536108 
L 362.504651 174.684633 
L 362.794521 174.961427 
L 363.084391 174.675325 
L 363.374261 174.602429 
L 363.664131 174.976565 
L 363.954002 175.109405 
L 364.243872 175.082062 
L 364.533742 175.327841 
L 364.823612 175.332892 
L 365.113482 175.704394 
L 365.403352 175.749832 
L 365.693222 176.00514 
L 366.272963 175.331336 
L 366.562833 175.820725 
L 366.852703 175.670553 
L 367.142573 176.437552 
L 367.722313 175.79007 
L 368.012183 175.892828 
L 368.302054 176.684125 
L 368.591924 176.529924 
L 368.881794 176.862434 
L 369.171664 176.827581 
L 369.751404 176.121104 
L 370.041274 176.371403 
L 370.331144 176.282667 
L 370.621015 176.55121 
L 370.910885 175.998972 
L 371.200755 176.438404 
L 371.490625 176.232709 
L 372.939976 176.191065 
L 373.519716 176.740455 
L 373.809586 176.851348 
L 374.099456 176.071476 
L 374.389326 176.531128 
L 374.679196 176.313304 
L 374.969067 176.241809 
L 375.258937 176.342322 
L 375.548807 176.154964 
L 375.838677 176.730567 
L 376.418417 176.218591 
L 376.708287 175.822586 
L 376.998157 176.737825 
L 377.577898 176.679438 
L 377.867768 176.37128 
L 378.157638 176.406383 
L 378.447508 176.716217 
L 378.737378 176.815412 
L 379.027248 177.092024 
L 379.317119 177.029247 
L 379.606989 176.541315 
L 379.896859 176.447746 
L 380.186729 177.045527 
L 380.766469 176.949279 
L 381.056339 177.623724 
L 381.346209 177.333461 
L 381.63608 177.417731 
L 382.21582 177.852056 
L 382.50569 177.331983 
L 382.79556 177.404682 
L 383.08543 177.087448 
L 383.3753 177.158187 
L 383.66517 177.398378 
L 383.955041 177.790668 
L 384.244911 177.673758 
L 384.534781 177.360908 
L 384.824651 177.671818 
L 385.114521 177.4662 
L 385.404391 177.428796 
L 385.694261 177.569326 
L 385.984131 177.546279 
L 386.274002 177.915382 
L 386.563872 177.810681 
L 387.143612 178.110901 
L 387.433482 178.166555 
L 387.723352 178.094477 
L 388.013222 178.494665 
L 388.303093 178.181803 
L 388.592963 178.777438 
L 388.882833 178.034988 
L 389.462573 178.678885 
L 389.752443 178.273268 
L 390.042313 178.558078 
L 390.332183 178.645732 
L 390.622054 178.979903 
L 390.911924 178.604421 
L 391.201794 178.72779 
L 391.491664 179.086753 
L 391.781534 179.201082 
L 392.071404 179.159582 
L 392.361274 179.666424 
L 392.651144 178.766806 
L 393.520755 179.450476 
L 393.810625 178.899028 
L 394.100495 178.941914 
L 394.390365 178.499958 
L 394.680235 178.50986 
L 394.970106 178.949115 
L 395.839716 178.963947 
L 396.129586 179.468592 
L 396.419456 178.957596 
L 396.709326 179.146655 
L 396.999196 179.543453 
L 397.289067 179.427571 
L 397.578937 179.127683 
L 397.868807 179.518266 
L 398.158677 179.204089 
L 398.448547 179.222719 
L 398.738417 178.98623 
L 399.318157 179.874376 
L 399.608028 179.517771 
L 400.187768 179.686319 
L 400.477638 179.129207 
L 400.767508 179.487302 
L 401.057378 179.333922 
L 401.347248 179.358981 
L 401.637119 179.26307 
L 401.926989 179.425154 
L 402.216859 179.749735 
L 403.086469 179.776525 
L 403.666209 179.344682 
L 403.95608 179.001729 
L 404.24595 179.286516 
L 404.53582 179.275482 
L 404.82569 179.092813 
L 405.40543 179.884484 
L 405.6953 179.531372 
L 406.275041 179.715287 
L 406.564911 180.303038 
L 406.854781 179.626734 
L 407.144651 179.711593 
L 407.434521 180.147627 
L 407.724391 179.670431 
L 408.014261 179.744088 
L 408.304131 179.947498 
L 408.883872 179.938698 
L 409.173742 180.335198 
L 409.463612 179.565856 
L 409.753482 179.855395 
L 410.043352 179.740909 
L 410.912963 179.74427 
L 411.202833 179.931039 
L 411.492703 179.520946 
L 411.782573 180.09352 
L 412.072443 180.325481 
L 412.362313 180.140308 
L 412.652183 180.371481 
L 412.942054 179.869368 
L 413.231924 179.963973 
L 413.521794 179.778552 
L 413.811664 180.202878 
L 414.101534 179.514326 
L 414.391404 179.482513 
L 414.681274 180.026128 
L 414.971144 179.427368 
L 415.261015 180.162905 
L 415.550885 180.306756 
L 415.840755 180.214288 
L 416.130625 180.380419 
L 416.710365 180.086379 
L 417.000235 180.226138 
L 417.290106 180.13434 
L 417.579976 180.485126 
L 417.869846 179.700224 
L 418.159716 180.485923 
L 418.449586 180.18604 
L 418.739456 180.300664 
L 419.029326 179.763172 
L 419.319196 180.343231 
L 419.609067 180.165772 
L 419.898937 179.744616 
L 420.188807 179.91302 
L 420.478677 180.310773 
L 420.768547 180.22706 
L 421.058417 179.954252 
L 421.348287 180.26877 
L 422.217898 179.54126 
L 422.507768 180.330199 
L 422.797638 179.814204 
L 423.087508 180.189141 
L 423.377378 179.754376 
L 423.667248 179.853491 
L 423.957119 179.818375 
L 424.246989 180.340954 
L 424.536859 179.605927 
L 424.826729 179.87026 
L 425.696339 180.07964 
L 426.56595 179.896924 
L 426.85582 180.110488 
L 427.72543 179.963066 
L 428.0153 179.986136 
L 428.30517 179.786335 
L 428.595041 180.758785 
L 428.884911 180.032607 
L 429.174781 179.725176 
L 429.464651 180.118395 
L 430.044391 180.137444 
L 430.334261 179.824126 
L 430.624131 180.373565 
L 430.914002 180.011501 
L 431.203872 180.842442 
L 431.783612 179.845933 
L 432.363352 180.704952 
L 432.653222 180.052903 
L 432.943093 180.440301 
L 433.232963 180.109915 
L 433.522833 180.557143 
L 433.812703 179.928409 
L 434.102573 180.445121 
L 434.392443 180.182771 
L 434.682313 180.431568 
L 434.972183 180.367132 
L 435.262054 179.936347 
L 435.551924 179.76118 
L 435.841794 180.23181 
L 436.131664 180.466946 
L 436.711404 180.41052 
L 437.001274 179.999994 
L 437.291144 180.530902 
L 437.581015 180.113117 
L 437.870885 179.963953 
L 438.740495 180.459806 
L 439.030365 180.126073 
L 439.320235 180.086951 
L 439.610106 180.429204 
L 439.899976 179.835401 
L 440.189846 179.932744 
L 440.479716 180.477864 
L 441.059456 180.413045 
L 441.349326 180.786465 
L 441.639196 180.680939 
L 441.929067 181.04021 
L 442.218937 180.618574 
L 442.508807 180.82221 
L 442.798677 181.161888 
L 443.088547 181.009758 
L 443.378417 180.357643 
L 443.668287 181.03261 
L 444.248028 180.65069 
L 444.827768 180.962039 
L 445.117638 180.873817 
L 445.407508 181.058111 
L 445.697378 180.777752 
L 445.987248 180.886168 
L 446.277119 180.622959 
L 446.566989 180.617082 
L 446.856859 180.960957 
L 447.146729 180.67538 
L 447.436599 180.828634 
L 447.726469 180.788095 
L 448.016339 181.055961 
L 448.306209 180.313954 
L 448.59608 180.775309 
L 448.88595 180.938638 
L 449.17582 180.542884 
L 449.75556 181.168604 
L 450.04543 179.688472 
L 450.3353 180.392513 
L 450.62517 178.640427 
L 450.915041 180.57413 
L 451.204911 180.541096 
L 452.074521 179.634978 
L 452.654261 180.678679 
L 452.944131 181.001879 
L 453.234002 179.692597 
L 453.523872 179.872039 
L 453.813742 179.911641 
L 454.103612 179.702042 
L 454.393482 179.916145 
L 454.683352 180.866377 
L 454.973222 181.119183 
L 455.263093 180.870432 
L 455.842833 181.317297 
L 456.422573 181.259107 
L 456.712443 181.713421 
L 457.002313 181.801746 
L 457.292183 181.342694 
L 457.582054 181.740323 
L 457.871924 181.870945 
L 458.451664 181.379809 
L 458.741534 181.10921 
L 459.031404 181.578598 
L 459.321274 181.457262 
L 459.611144 181.756397 
L 459.901015 181.833844 
L 460.190885 181.452956 
L 460.480755 180.758443 
L 460.770625 181.092783 
L 461.060495 181.698405 
L 461.350365 181.772995 
L 461.640235 181.05467 
L 461.930106 181.089973 
L 462.219976 181.50234 
L 462.509846 181.66487 
L 462.799716 181.35546 
L 463.089586 181.225757 
L 463.379456 181.543379 
L 464.249067 181.080672 
L 464.828807 181.726543 
L 465.118677 181.237467 
L 465.408547 181.032272 
L 465.698417 181.377015 
L 465.988287 181.301601 
L 466.278157 181.535514 
L 466.568028 181.258281 
L 466.857898 181.493265 
L 467.437638 181.256666 
L 467.727508 181.513799 
L 468.017378 181.435503 
L 468.307248 181.514314 
L 469.176859 181.189708 
L 469.466729 181.198173 
L 469.756599 180.7601 
L 470.336339 181.34693 
L 470.626209 181.245781 
L 470.91608 181.498462 
L 471.20595 181.550906 
L 471.78569 180.992424 
L 472.07556 181.268454 
L 472.6553 181.035894 
L 472.94517 180.820112 
L 473.235041 181.13928 
L 473.524911 181.229345 
L 473.814781 181.017003 
L 474.104651 180.951223 
L 474.394521 180.76528 
L 474.684391 180.995814 
L 474.974261 180.902129 
L 475.554002 181.354898 
L 476.423612 181.077253 
L 476.713482 181.562308 
L 477.003352 181.129142 
L 478.162833 181.024166 
L 478.452703 180.608327 
L 478.742573 180.84078 
L 479.032443 180.342192 
L 479.612183 180.471055 
L 479.902054 180.088666 
L 480.191924 180.506601 
L 480.771664 180.773344 
L 481.061534 180.569682 
L 481.351404 180.692288 
L 481.931144 180.742516 
L 482.221015 180.806807 
L 482.510885 180.719669 
L 482.800755 180.47129 
L 483.380495 181.015355 
L 483.670365 180.70871 
L 484.250106 180.550199 
L 484.829846 180.648926 
L 485.119716 180.427252 
L 485.989326 180.915069 
L 486.569067 180.821858 
L 486.858937 180.62099 
L 487.148807 181.404136 
L 487.438677 180.454013 
L 487.728547 180.56572 
L 488.018417 180.270258 
L 488.598157 180.815892 
L 488.888028 180.959847 
L 489.177898 180.681966 
L 489.467768 180.77097 
L 489.757638 180.436864 
L 490.337378 181.367257 
L 490.627248 181.425191 
L 490.917119 180.975402 
L 491.206989 181.394564 
L 491.496859 181.243575 
L 492.366469 181.439895 
L 493.23608 181.038546 
L 493.52595 181.078359 
L 493.81582 180.805165 
L 494.10569 181.109987 
L 494.39556 180.894622 
L 494.68543 180.885497 
L 494.9753 181.030231 
L 495.555041 180.582459 
L 495.844911 180.5819 
L 496.134781 181.301521 
L 497.004391 180.850515 
L 497.294261 180.596543 
L 497.584131 181.03422 
L 497.874002 180.387739 
L 498.163872 180.595513 
L 498.453742 180.992694 
L 498.743612 180.906266 
L 499.323352 180.964894 
L 499.613222 180.463233 
L 499.903093 180.413894 
L 500.192963 180.688925 
L 500.482833 180.572082 
L 501.062573 180.593941 
L 501.352443 180.817773 
L 501.642313 180.273597 
L 502.222054 180.300158 
L 502.511924 180.730083 
L 503.091664 181.065862 
L 503.381534 181.07676 
L 503.671404 180.729234 
L 503.961274 181.182576 
L 504.251144 181.067842 
L 504.541015 181.205744 
L 505.410625 180.753324 
L 505.990365 181.150151 
L 506.280235 180.58805 
L 506.570106 181.350497 
L 506.859976 180.81243 
L 507.149846 180.63374 
L 507.729586 181.003007 
L 508.019456 181.941892 
L 508.599196 181.543051 
L 508.889067 181.754085 
L 509.178937 181.610898 
L 509.468807 180.954346 
L 509.758677 181.59882 
L 510.048547 181.325681 
L 510.338417 181.27557 
L 510.628287 181.004722 
L 510.918157 181.055718 
L 511.208028 180.747448 
L 511.497898 181.066094 
L 511.787768 181.051048 
L 512.077638 181.267209 
L 512.657378 180.62789 
L 512.947248 181.382941 
L 513.237119 180.932179 
L 513.526989 180.82115 
L 514.106729 180.968331 
L 514.396599 180.532245 
L 514.686469 180.797535 
L 514.976339 180.77279 
L 515.266209 180.5937 
L 515.55608 180.66505 
L 515.84595 181.171911 
L 516.42569 180.830612 
L 516.71556 181.058228 
L 517.00543 180.702383 
L 517.2953 181.53683 
L 517.58517 180.985928 
L 517.875041 180.681202 
L 518.454781 180.754547 
L 518.744651 180.449857 
L 519.034521 180.816854 
L 519.324391 180.729683 
L 519.614261 181.090441 
L 519.904131 180.750473 
L 520.483872 180.964601 
L 520.773742 180.968534 
L 521.063612 181.427189 
L 521.353482 181.365353 
L 521.643352 181.070849 
L 521.933222 181.437569 
L 522.512963 181.191414 
L 523.092703 181.239322 
L 523.382573 181.198415 
L 523.962313 181.561854 
L 524.542054 181.654299 
L 524.831924 181.167515 
L 525.121794 181.02352 
L 525.701534 180.99732 
L 525.991404 180.830116 
L 526.281274 181.266327 
L 526.571144 180.895491 
L 526.861015 181.437192 
L 527.440755 180.6598 
L 527.730625 180.863089 
L 528.020495 180.926796 
L 528.600235 181.30559 
L 528.890106 180.611412 
L 529.179976 181.089032 
L 529.469846 180.353987 
L 529.759716 180.85321 
L 530.049586 180.702608 
L 530.339456 181.158002 
L 530.629326 181.162582 
L 530.919196 181.017174 
L 531.209067 181.091327 
L 531.788807 180.642218 
L 532.368547 180.970936 
L 532.658417 180.304453 
L 532.948287 181.094927 
L 533.528028 180.995537 
L 533.817898 180.782287 
L 534.107768 180.924361 
L 534.397638 180.891018 
L 534.687508 180.308226 
L 534.977378 180.384108 
L 535.267248 180.216092 
L 535.557119 180.419858 
L 535.846989 180.373463 
L 536.136859 180.09461 
L 536.426729 180.283628 
L 536.716599 180.695648 
L 537.006469 180.275217 
L 537.296339 180.355095 
L 537.586209 180.752406 
L 538.16595 180.686666 
L 538.45582 180.545878 
L 538.74569 180.685748 
L 539.03556 180.592957 
L 539.6153 181.485827 
L 539.90517 181.055496 
L 540.195041 181.512296 
L 540.484911 181.050615 
L 540.774781 180.827786 
L 541.354521 180.884563 
L 541.644391 181.202102 
L 541.934261 180.650656 
L 542.224131 180.823764 
L 542.514002 180.727668 
L 543.093742 181.31409 
L 543.673482 180.373238 
L 543.963352 180.744619 
L 544.253222 180.05181 
L 544.543093 179.901931 
L 545.702573 180.837801 
L 546.572183 181.259173 
L 546.862054 180.644991 
L 547.151924 181.11426 
L 547.441794 181.159168 
L 547.731664 180.746381 
L 548.021534 180.698586 
L 548.601274 181.113565 
L 548.891144 180.972924 
L 549.181015 181.257505 
L 549.470885 180.695665 
L 550.050625 181.216332 
L 550.340495 180.964219 
L 550.630365 180.87865 
L 550.920235 181.119521 
L 551.210106 181.607793 
L 551.499976 181.122925 
L 551.789846 181.126172 
L 552.079716 181.370888 
L 552.369586 181.43704 
L 552.659456 181.093536 
L 552.949326 181.212693 
L 553.239196 181.019488 
L 553.529067 181.104517 
L 553.818937 181.313435 
L 554.108807 181.263302 
L 554.398677 181.060523 
L 554.688547 181.379133 
L 554.978417 181.056778 
L 555.558157 181.824746 
L 555.848028 181.161291 
L 556.137898 180.902771 
L 556.427768 180.852171 
L 556.717638 181.064476 
L 557.297378 181.065349 
L 557.587248 181.386164 
L 557.877119 180.846129 
L 558.166989 181.129251 
L 558.456859 180.717284 
L 559.906209 181.167349 
L 560.19608 180.999915 
L 560.48595 180.967955 
L 560.77582 181.051937 
L 561.06569 180.81279 
L 561.35556 181.059271 
L 561.64543 180.702309 
L 561.9353 180.588755 
L 562.22517 180.703216 
L 562.515041 181.00155 
L 562.804911 181.056528 
L 564.254261 180.596252 
L 564.544131 181.115839 
L 564.834002 180.5885 
L 565.123872 180.583452 
L 565.413742 181.075765 
L 565.703612 180.902829 
L 565.993482 181.082691 
L 566.573222 180.516812 
L 566.863093 180.882191 
L 567.152963 180.754055 
L 567.442833 180.228423 
L 567.732703 180.743409 
L 568.022573 180.613445 
L 568.602313 180.631908 
L 569.182054 180.376303 
L 569.471924 180.595608 
L 569.761794 180.033503 
L 570.051664 180.308104 
L 570.921274 179.882956 
L 571.211144 180.347983 
L 571.501015 180.459488 
L 571.790885 180.037707 
L 572.080755 180.493574 
L 572.370625 180.331093 
L 572.660495 180.34676 
L 572.950365 180.532316 
L 573.240235 180.117255 
L 573.530106 180.389801 
L 573.819976 179.972239 
L 574.109846 180.378161 
L 574.399716 179.639195 
L 574.689586 180.001312 
L 574.979456 180.150588 
L 575.269326 180.017005 
L 575.559196 180.29023 
L 575.849067 180.344243 
L 576.138937 179.773913 
L 576.428807 180.443003 
L 577.008547 180.046541 
L 577.298417 180.588751 
L 577.588287 180.630909 
L 577.878157 180.422205 
L 578.168028 179.979481 
L 578.457898 179.980021 
L 578.747768 180.267887 
L 579.327508 180.459654 
L 579.617378 180.355328 
L 579.907248 180.414516 
L 580.197119 180.679357 
L 580.486989 179.984639 
L 580.776859 180.452226 
L 581.066729 180.335344 
L 581.356599 180.36438 
L 581.646469 180.134694 
L 581.936339 180.174247 
L 582.226209 180.054276 
L 582.80595 180.915646 
L 583.38569 180.043054 
L 583.67556 180.680668 
L 583.96543 180.727511 
L 584.2553 180.458417 
L 585.414781 180.379402 
L 585.704651 180.514897 
L 585.994521 180.227952 
L 586.284391 180.124723 
L 586.574261 179.850348 
L 586.864131 180.090286 
L 587.154002 179.917352 
L 587.443872 180.512762 
L 588.023612 180.823261 
L 588.603352 179.958638 
L 588.893222 180.321717 
L 589.183093 180.328139 
L 589.762833 180.114062 
L 590.052703 180.687849 
L 590.342573 180.392449 
L 590.632443 180.269831 
L 590.922313 180.747104 
L 591.502054 180.036172 
L 591.791924 180.563158 
L 592.371664 180.062253 
L 592.951404 180.242465 
L 593.241274 180.186906 
L 593.531144 179.803245 
L 593.821015 180.048928 
L 594.110885 180.503668 
L 594.400755 180.519481 
L 594.690625 180.213884 
L 595.560235 180.57193 
L 595.850106 180.1393 
L 596.139976 179.994116 
L 596.429846 180.241309 
L 596.719716 180.693579 
L 597.009586 180.123898 
L 597.299456 180.546062 
L 597.589326 180.316657 
L 597.879196 180.855769 
L 598.169067 180.623698 
L 598.458937 180.673502 
L 598.748807 179.953548 
L 599.618417 180.670177 
L 599.908287 180.729558 
L 600.198157 180.371113 
L 600.777898 180.607704 
L 601.067768 180.520945 
L 601.357638 180.56989 
L 601.647508 180.185434 
L 601.937378 180.157958 
L 602.227248 180.363142 
L 602.517119 180.41126 
L 602.806989 180.241071 
L 603.096859 180.415905 
L 603.386729 180.021148 
L 603.966469 180.421487 
L 604.256339 180.285984 
L 605.12595 180.217228 
L 605.41582 179.837688 
L 605.70569 180.347061 
L 605.99556 180.003514 
L 606.28543 180.152873 
L 606.5753 180.697102 
L 606.86517 180.202317 
L 607.155041 180.720307 
L 607.444911 180.508126 
L 607.734781 180.719585 
L 608.024651 180.2235 
L 608.314521 180.435391 
L 608.604391 180.909896 
L 608.894261 180.790144 
L 609.184131 180.527332 
L 609.474002 180.110063 
L 609.763872 180.933318 
L 610.343612 180.226193 
L 610.633482 180.721908 
L 610.923352 180.470099 
L 611.213222 180.627478 
L 611.792963 180.250679 
L 612.082833 180.27313 
L 612.372703 180.149119 
L 612.952443 180.460859 
L 613.242313 180.188218 
L 613.532183 180.493573 
L 613.822054 180.219084 
L 614.111924 180.391988 
L 614.401794 180.328702 
L 614.691664 180.662315 
L 614.981534 180.446469 
L 615.271404 180.836737 
L 615.561274 180.278614 
L 615.851144 180.419412 
L 616.141015 180.860093 
L 616.720755 180.521863 
L 617.590365 180.701684 
L 617.880235 180.509794 
L 618.459976 180.797169 
L 618.749846 180.502845 
L 619.329586 180.549016 
L 619.619456 180.575103 
L 619.909326 180.938795 
L 620.199196 180.866178 
L 620.489067 180.640907 
L 620.778937 180.816311 
L 621.068807 180.611711 
L 621.358677 180.711766 
L 621.648547 181.27283 
L 622.228287 180.715314 
L 622.518157 181.054777 
L 622.808028 181.151669 
L 623.097898 180.78642 
L 623.387768 180.820464 
L 623.677638 181.143475 
L 623.967508 180.94288 
L 624.547248 181.179736 
L 624.837119 180.641793 
L 625.126989 180.643329 
L 625.126989 180.643329 
" clip-path="url(#p74d6b8b8d6)" style="fill: none; stroke: #1f77b4; stroke-width: 1.5; stroke-linecap: square"/>
   </g>
   <g id="line2d_15">
    <path d="M 117.854261 296.03625 
L 118.144131 293.670519 
L 118.434002 246.011862 
L 118.723872 269.986081 
L 119.013742 278.80496 
L 119.303612 248.797222 
L 119.593482 230.620247 
L 119.883352 249.231156 
L 120.173222 223.688053 
L 120.463093 220.004876 
L 120.752963 208.447941 
L 121.042833 211.42837 
L 121.332703 210.881812 
L 121.622573 207.172589 
L 121.912443 205.397716 
L 122.202313 204.796222 
L 122.492183 201.902029 
L 122.782054 204.825475 
L 123.071924 199.039532 
L 123.361794 198.542908 
L 123.651664 192.649877 
L 123.941534 193.698227 
L 124.231404 192.006893 
L 124.521274 194.531603 
L 124.811144 193.321072 
L 125.101015 195.950344 
L 125.680755 197.851664 
L 125.970625 197.33166 
L 126.260495 192.321801 
L 126.550365 190.967719 
L 126.840235 193.33488 
L 127.130106 192.207896 
L 127.709846 192.261632 
L 127.999716 189.654198 
L 128.579456 191.107552 
L 129.449067 192.268471 
L 130.028807 187.000513 
L 130.898417 191.730823 
L 131.188287 190.152641 
L 131.478157 189.313256 
L 131.768028 190.141136 
L 132.057898 189.859756 
L 132.347768 189.199789 
L 132.637638 188.181538 
L 132.927508 189.724939 
L 133.217378 185.408925 
L 133.507248 186.78425 
L 133.797119 189.527407 
L 134.086989 190.100574 
L 134.376859 186.043988 
L 134.666729 188.646009 
L 134.956599 187.302461 
L 135.246469 187.322897 
L 135.536339 188.79512 
L 135.826209 187.482793 
L 136.11608 184.947255 
L 136.40595 187.693612 
L 136.69582 186.691977 
L 137.27556 188.999593 
L 137.8553 186.831658 
L 138.14517 188.620825 
L 138.435041 188.360617 
L 138.724911 188.945293 
L 139.014781 187.132025 
L 139.304651 186.201876 
L 139.594521 188.283568 
L 140.174261 187.196792 
L 140.464131 186.938449 
L 140.754002 187.869209 
L 141.043872 189.448849 
L 141.333742 186.718774 
L 141.623612 187.926137 
L 141.913482 188.029027 
L 142.203352 190.577963 
L 142.493222 188.203017 
L 142.783093 187.138785 
L 143.072963 187.142223 
L 143.362833 186.650825 
L 143.652703 187.646986 
L 143.942573 189.119807 
L 144.232443 187.357287 
L 144.812183 186.780915 
L 145.391924 187.368904 
L 145.971664 186.468459 
L 146.261534 186.8359 
L 146.551404 186.971379 
L 146.841274 186.899701 
L 147.131144 185.093429 
L 147.710885 187.794619 
L 148.000755 185.873828 
L 148.290625 187.042895 
L 148.580495 187.159686 
L 148.870365 186.253183 
L 149.160235 188.14548 
L 149.450106 186.173962 
L 149.739976 185.537409 
L 150.029846 184.507913 
L 150.319716 185.289264 
L 150.609586 185.491353 
L 151.189326 185.50605 
L 151.479196 186.706911 
L 152.348807 186.282175 
L 152.638677 187.690941 
L 152.928547 187.862135 
L 153.218417 187.247781 
L 153.508287 187.676233 
L 153.798157 187.559511 
L 154.088028 186.670892 
L 154.377898 186.806549 
L 154.667768 187.357622 
L 154.957638 185.867307 
L 155.247508 187.427715 
L 155.537378 187.569171 
L 155.827248 186.07568 
L 156.117119 187.16852 
L 156.406989 186.5731 
L 156.986729 187.488045 
L 157.276599 188.414262 
L 157.566469 186.39198 
L 157.856339 186.976814 
L 158.146209 187.007496 
L 158.43608 187.455282 
L 158.72595 187.062753 
L 159.01582 187.688059 
L 159.30569 188.913983 
L 159.59556 187.573495 
L 160.1753 187.191744 
L 160.46517 188.389262 
L 160.755041 187.798525 
L 161.044911 188.176457 
L 161.334781 187.385669 
L 161.624651 187.75249 
L 161.914521 188.699782 
L 162.204391 187.992732 
L 162.784131 187.416289 
L 163.074002 187.418395 
L 163.363872 188.303428 
L 163.653742 188.623496 
L 163.943612 187.288899 
L 164.233482 187.427393 
L 164.523352 186.829265 
L 165.392963 187.035494 
L 165.682833 187.28354 
L 165.972703 186.891307 
L 166.262573 186.72 
L 166.552443 188.287451 
L 166.842313 187.859376 
L 167.132183 187.743438 
L 167.422054 188.356273 
L 167.711924 188.02346 
L 168.001794 188.876462 
L 168.291664 188.073269 
L 168.581534 188.013018 
L 168.871404 188.164853 
L 169.451144 188.680438 
L 169.741015 188.271192 
L 170.030885 187.5247 
L 170.320755 188.341547 
L 170.610625 188.324353 
L 170.900495 189.009177 
L 171.190365 188.05667 
L 171.480235 188.160156 
L 172.059976 187.39402 
L 172.349846 188.24029 
L 172.639716 188.117727 
L 172.929586 188.362317 
L 173.509326 187.579802 
L 173.799196 188.523492 
L 174.089067 187.779426 
L 174.378937 188.004608 
L 174.668807 188.050907 
L 174.958677 187.705057 
L 175.538417 188.714194 
L 175.828287 188.091426 
L 176.408028 188.372829 
L 176.697898 187.862224 
L 177.277638 189.328308 
L 177.567508 188.385363 
L 177.857378 188.20942 
L 178.147248 187.831949 
L 178.437119 189.396933 
L 178.726989 188.005285 
L 179.016859 188.784901 
L 179.306729 187.040929 
L 179.596599 188.521028 
L 179.886469 188.971472 
L 180.176339 189.738808 
L 180.466209 189.229262 
L 180.75608 189.357389 
L 181.33582 187.861986 
L 181.62569 189.002622 
L 181.91556 188.464863 
L 182.20543 188.759545 
L 182.4953 188.493274 
L 183.075041 187.552388 
L 183.364911 188.515434 
L 183.654781 187.482559 
L 183.944651 188.208671 
L 184.234521 188.294128 
L 184.524391 188.216891 
L 184.814261 187.922589 
L 185.104131 188.012822 
L 185.394002 187.853364 
L 185.683872 187.512304 
L 186.263612 188.52519 
L 186.553482 188.286137 
L 186.843352 188.223808 
L 187.133222 188.930585 
L 187.423093 188.287846 
L 187.712963 187.929877 
L 188.002833 188.750086 
L 188.292703 188.931987 
L 188.582573 188.828422 
L 188.872443 187.992121 
L 189.452183 188.912342 
L 190.031924 188.581938 
L 190.321794 188.857937 
L 190.611664 188.733222 
L 190.901534 188.460897 
L 191.481274 189.477394 
L 191.771144 189.028242 
L 192.061015 189.131799 
L 192.350885 188.861658 
L 192.640755 189.526858 
L 192.930625 189.535713 
L 193.510365 188.843236 
L 193.800235 188.902469 
L 194.090106 188.297058 
L 194.379976 189.54924 
L 194.669846 188.985136 
L 195.539456 189.774629 
L 195.829326 189.788429 
L 196.409067 189.519565 
L 196.698937 190.233118 
L 196.988807 189.702311 
L 197.278677 189.514199 
L 197.568547 190.08353 
L 197.858417 190.008336 
L 198.148287 189.565447 
L 198.438157 189.583096 
L 198.728028 190.037254 
L 199.017898 189.91953 
L 199.597638 190.246258 
L 199.887508 188.569576 
L 200.467248 189.990945 
L 200.757119 189.358044 
L 201.046989 189.515732 
L 201.336859 190.11674 
L 201.626729 190.121262 
L 201.916599 190.574514 
L 202.206469 190.013054 
L 202.786209 190.082704 
L 203.36595 189.159987 
L 203.65582 189.122912 
L 203.94569 190.043139 
L 204.23556 189.066995 
L 204.52543 189.494748 
L 204.8153 189.70741 
L 205.10517 189.284489 
L 205.395041 188.605509 
L 205.684911 188.988014 
L 205.974781 188.617698 
L 206.264651 189.643596 
L 206.554521 189.470632 
L 206.844391 188.767958 
L 207.424131 188.195484 
L 207.714002 189.182142 
L 208.003872 189.285755 
L 208.293742 188.604241 
L 208.583612 188.630051 
L 209.163352 189.001234 
L 209.453222 188.555197 
L 209.743093 188.711234 
L 210.032963 188.331132 
L 210.322833 188.216426 
L 210.612703 188.946966 
L 210.902573 188.868593 
L 211.192443 186.61303 
L 211.482313 187.3314 
L 211.772183 187.278921 
L 212.062054 188.626443 
L 212.641794 188.236927 
L 212.931664 189.014136 
L 213.221534 188.35781 
L 213.511404 188.732627 
L 213.801274 188.594183 
L 214.381015 187.977919 
L 214.670885 188.852699 
L 214.960755 188.838792 
L 215.250625 188.572765 
L 215.540495 187.58102 
L 215.830365 188.035673 
L 216.120235 188.068834 
L 216.410106 188.700876 
L 216.699976 188.052588 
L 216.989846 188.169167 
L 217.279716 188.687222 
L 217.569586 187.943018 
L 217.859456 188.021358 
L 218.149326 188.77915 
L 218.439196 187.496709 
L 218.729067 188.089395 
L 219.018937 188.053076 
L 219.308807 188.150853 
L 220.178417 187.922646 
L 220.468287 186.703195 
L 220.758157 187.536367 
L 221.048028 188.008924 
L 221.627768 187.626979 
L 221.917638 187.479456 
L 222.207508 187.854597 
L 222.497378 188.015779 
L 223.077119 187.371093 
L 223.656859 187.613359 
L 223.946729 187.426125 
L 224.236599 187.772992 
L 225.106209 187.031821 
L 225.39608 187.559654 
L 225.68595 187.190519 
L 225.97582 187.5633 
L 226.26569 187.427299 
L 226.55556 187.129459 
L 227.1353 187.940556 
L 227.42517 187.680124 
L 227.715041 187.68277 
L 228.004911 187.422893 
L 228.294781 187.429192 
L 228.584651 187.247293 
L 228.874521 187.229189 
L 229.164391 187.632436 
L 229.454261 187.059433 
L 229.744131 186.9121 
L 230.034002 187.470026 
L 230.323872 186.911189 
L 230.613742 186.861304 
L 231.193482 188.172784 
L 231.483352 188.13753 
L 231.773222 186.583549 
L 232.352963 187.521703 
L 232.642833 186.950001 
L 232.932703 187.320842 
L 233.222573 187.351116 
L 233.512443 187.18988 
L 233.802313 187.486731 
L 234.092183 187.064197 
L 234.382054 188.068991 
L 234.671924 187.438666 
L 234.961794 187.525588 
L 235.541534 187.064928 
L 235.831404 187.534254 
L 236.121274 186.999843 
L 236.411144 186.926129 
L 236.990885 187.337595 
L 237.280755 187.268334 
L 237.570625 187.325297 
L 238.150365 188.006475 
L 238.440235 187.257402 
L 238.730106 187.061195 
L 239.019976 187.293884 
L 239.309846 187.793211 
L 239.599716 187.372868 
L 239.889586 187.207817 
L 240.179456 187.337196 
L 240.469326 187.697688 
L 240.759196 187.695944 
L 241.338937 187.27155 
L 241.628807 187.498069 
L 241.918677 186.499071 
L 242.208547 187.45085 
L 242.498417 187.487471 
L 243.078157 187.079629 
L 243.368028 187.896338 
L 243.657898 188.090981 
L 243.947768 187.424129 
L 244.237638 187.19887 
L 244.527508 187.659776 
L 244.817378 187.411044 
L 245.107248 188.069676 
L 245.686989 187.84988 
L 245.976859 187.070756 
L 246.266729 187.950427 
L 246.846469 187.633012 
L 247.136339 188.045176 
L 247.426209 187.762842 
L 247.71608 188.078089 
L 248.00595 187.860503 
L 248.29582 187.220608 
L 248.58569 187.392386 
L 249.16543 187.36011 
L 249.4553 187.501666 
L 249.74517 187.962535 
L 250.035041 188.130643 
L 250.324911 187.961241 
L 250.614781 188.060456 
L 250.904651 187.395321 
L 251.194521 188.152944 
L 251.774261 187.777553 
L 252.064131 188.221934 
L 252.354002 188.327467 
L 252.643872 187.334414 
L 252.933742 187.575282 
L 253.223612 187.386209 
L 253.513482 187.621626 
L 254.093222 187.691807 
L 254.383093 187.598309 
L 254.672963 187.866171 
L 254.962833 188.502235 
L 255.252703 187.314569 
L 255.542573 187.493962 
L 255.832443 187.450727 
L 256.122313 187.814029 
L 256.412183 187.417195 
L 256.702054 187.974649 
L 257.281794 187.508638 
L 257.571664 187.346572 
L 257.861534 187.041069 
L 258.151404 187.641585 
L 258.441274 186.948475 
L 259.310885 187.407369 
L 259.600755 187.783451 
L 259.890625 186.782889 
L 260.180495 186.524814 
L 260.470365 187.174069 
L 260.760235 186.954514 
L 261.339976 187.170452 
L 261.629846 186.948924 
L 261.919716 187.357923 
L 262.209586 186.64722 
L 262.499456 186.591312 
L 262.789326 187.170567 
L 263.079196 186.922178 
L 263.369067 187.859855 
L 263.658937 187.608934 
L 263.948807 186.862467 
L 264.238677 187.229374 
L 264.528547 187.81697 
L 264.818417 187.636123 
L 265.108287 187.21291 
L 265.398157 187.445551 
L 265.688028 188.112018 
L 265.977898 187.574905 
L 266.267768 188.25343 
L 266.847508 187.376497 
L 267.137378 187.700975 
L 267.427248 187.308583 
L 268.006989 187.314403 
L 268.296859 186.835633 
L 268.586729 187.844397 
L 269.456339 187.208921 
L 269.746209 186.666028 
L 270.03608 187.334858 
L 270.32595 186.874302 
L 270.90569 187.869404 
L 271.19556 187.228491 
L 271.48543 187.823869 
L 271.7753 187.239268 
L 272.06517 187.020496 
L 272.355041 187.197063 
L 272.644911 187.932748 
L 272.934781 187.430735 
L 273.224651 187.394432 
L 273.514521 187.476013 
L 273.804391 187.297475 
L 274.094261 187.682553 
L 274.674002 187.372028 
L 274.963872 187.628201 
L 275.253742 186.783212 
L 275.543612 187.074856 
L 275.833482 186.839405 
L 276.123352 187.515935 
L 276.413222 187.763284 
L 276.703093 187.505691 
L 276.992963 186.969055 
L 277.282833 187.109494 
L 277.572703 187.535298 
L 277.862573 187.599074 
L 278.152443 187.05674 
L 278.442313 187.478947 
L 278.732183 186.890404 
L 279.022054 187.426476 
L 279.311924 186.929427 
L 279.891664 187.451987 
L 280.181534 187.646823 
L 280.471404 187.341754 
L 281.051144 187.365084 
L 281.341015 188.043789 
L 281.630885 187.491406 
L 281.920755 187.225406 
L 282.790365 187.781165 
L 283.080235 187.21531 
L 283.370106 187.431781 
L 283.659976 187.030991 
L 283.949846 187.667348 
L 284.239716 187.632509 
L 284.529586 187.483169 
L 284.819456 187.892397 
L 285.109326 188.030297 
L 285.399196 187.892854 
L 285.689067 187.209789 
L 285.978937 187.498252 
L 286.268807 187.144424 
L 286.558677 187.409736 
L 286.848547 187.265258 
L 287.138417 187.92355 
L 287.428287 187.202294 
L 287.718157 188.344075 
L 288.008028 187.628879 
L 288.297898 187.287634 
L 288.587768 187.250385 
L 288.877638 187.988552 
L 289.167508 187.071004 
L 289.457378 187.082474 
L 289.747248 187.294689 
L 290.037119 187.221526 
L 290.326989 187.028633 
L 290.616859 185.158508 
L 290.906729 184.299615 
L 291.196599 184.500074 
L 291.486469 185.277536 
L 292.066209 185.268716 
L 292.35608 185.015152 
L 292.64595 185.796076 
L 292.93582 185.957616 
L 293.22569 185.848003 
L 293.80543 185.892563 
L 294.38517 185.735179 
L 294.675041 186.276245 
L 294.964911 185.92426 
L 295.544651 186.411477 
L 295.834521 185.734071 
L 296.124391 185.479624 
L 296.414261 185.718253 
L 296.704131 185.690473 
L 296.994002 186.112403 
L 297.283872 186.273486 
L 297.573742 186.295534 
L 297.863612 185.989211 
L 298.153482 186.997044 
L 298.733222 186.170765 
L 299.023093 185.977352 
L 299.602833 186.875185 
L 299.892703 185.986072 
L 300.182573 185.923514 
L 300.472443 186.399051 
L 300.762313 186.190623 
L 301.052183 186.267194 
L 301.342054 186.775894 
L 301.631924 186.365425 
L 301.921794 186.908483 
L 302.211664 186.091172 
L 302.501534 185.744954 
L 302.791404 186.419137 
L 303.081274 186.485364 
L 303.371144 186.161955 
L 303.661015 186.35255 
L 304.820495 186.435734 
L 305.110365 186.270934 
L 305.400235 186.280163 
L 305.690106 186.571571 
L 306.269846 186.138949 
L 306.559716 186.467975 
L 306.849586 186.182124 
L 307.139456 186.297055 
L 307.719196 186.071706 
L 308.009067 185.619711 
L 308.298937 186.231998 
L 308.588807 186.019974 
L 308.878677 186.273818 
L 309.748287 186.389846 
L 310.038157 186.049325 
L 310.328028 186.585675 
L 310.617898 185.907984 
L 310.907768 185.839286 
L 311.487508 185.906247 
L 311.777378 186.203396 
L 312.067248 186.185789 
L 312.936859 186.534952 
L 313.226729 186.425753 
L 313.516599 187.20929 
L 313.806469 186.719798 
L 314.096339 186.52465 
L 314.386209 186.153964 
L 314.67608 186.784297 
L 314.96595 186.40804 
L 315.54569 186.201713 
L 315.83556 186.48308 
L 316.995041 186.353096 
L 317.574781 186.642501 
L 317.864651 186.526376 
L 318.154521 185.881085 
L 318.444391 185.85757 
L 319.024131 186.964825 
L 319.314002 187.053255 
L 319.603872 186.680356 
L 319.893742 186.720612 
L 320.183612 186.554846 
L 320.473482 186.154126 
L 321.053222 186.243824 
L 321.343093 186.221894 
L 321.632963 185.734358 
L 321.922833 186.339099 
L 322.212703 186.253976 
L 322.502573 186.357352 
L 322.792443 186.635677 
L 323.372183 186.401728 
L 323.662054 186.75468 
L 323.951924 186.846287 
L 324.241794 186.299263 
L 324.531664 186.117263 
L 324.821534 186.345605 
L 325.111404 186.360191 
L 325.401274 186.623006 
L 325.691144 186.388703 
L 325.981015 186.617551 
L 326.270885 186.09062 
L 326.560755 186.586596 
L 326.850625 186.190007 
L 327.140495 186.660059 
L 327.430365 186.198314 
L 327.720235 186.091641 
L 328.299976 185.492679 
L 328.879716 186.105814 
L 329.169586 186.26005 
L 329.749326 185.864112 
L 330.039196 186.417145 
L 330.329067 186.632897 
L 330.618937 185.933708 
L 330.908807 186.047637 
L 331.198677 186.288551 
L 331.488547 185.935597 
L 331.778417 186.265923 
L 332.068287 185.779064 
L 332.358157 186.225575 
L 332.648028 186.262343 
L 332.937898 186.175022 
L 333.517638 186.227135 
L 333.807508 186.45161 
L 334.097378 185.973284 
L 334.387248 186.244271 
L 334.677119 186.168642 
L 334.966989 185.807737 
L 335.256859 185.955103 
L 335.546729 185.719193 
L 335.836599 185.649423 
L 336.126469 185.813152 
L 336.416339 185.62288 
L 336.706209 185.698558 
L 336.99608 186.135217 
L 337.28595 186.148878 
L 337.57582 185.919774 
L 337.86569 186.061994 
L 338.15556 185.963711 
L 338.44543 186.235315 
L 339.604911 185.818094 
L 339.894781 185.097689 
L 340.184651 185.180212 
L 340.474521 185.592678 
L 341.054261 185.40739 
L 341.344131 185.814178 
L 341.634002 185.288091 
L 341.923872 185.297282 
L 342.503612 186.011659 
L 342.793482 185.750687 
L 343.083352 185.921088 
L 343.663093 185.553697 
L 343.952963 185.815104 
L 344.242833 186.233264 
L 344.532703 186.316116 
L 344.822573 186.106491 
L 345.112443 186.302507 
L 345.692183 186.116011 
L 345.982054 186.737963 
L 346.271924 186.254033 
L 346.561794 186.364181 
L 346.851664 186.005004 
L 347.721274 185.818936 
L 348.011144 186.107107 
L 348.590885 186.203682 
L 348.880755 185.955973 
L 349.170625 186.32537 
L 349.460495 185.95286 
L 349.750365 186.028157 
L 350.040235 185.742714 
L 350.330106 185.72313 
L 350.619976 186.013151 
L 351.199716 185.709862 
L 351.779456 185.929628 
L 352.069326 185.404373 
L 352.359196 185.736935 
L 352.649067 186.478309 
L 352.938937 185.97255 
L 353.228807 186.223972 
L 353.518677 185.852485 
L 354.098417 186.277131 
L 354.388287 186.02464 
L 354.678157 186.005793 
L 354.968028 185.790291 
L 355.257898 185.379349 
L 355.547768 185.745231 
L 356.127508 185.577989 
L 356.417378 185.490213 
L 356.707248 185.71399 
L 356.997119 185.547125 
L 357.286989 186.376341 
L 357.576859 185.685145 
L 357.866729 185.437634 
L 358.156599 185.782203 
L 358.446469 185.450856 
L 358.736339 185.439633 
L 359.31608 185.955089 
L 359.60595 185.591906 
L 360.18569 185.952991 
L 360.47556 185.654438 
L 360.76543 185.861792 
L 361.0553 185.674963 
L 361.34517 185.971651 
L 361.635041 186.050419 
L 361.924911 185.671561 
L 362.214781 185.714797 
L 362.504651 185.910593 
L 362.794521 185.816853 
L 363.084391 185.941182 
L 363.374261 185.56361 
L 363.664131 185.856095 
L 363.954002 185.937247 
L 364.243872 185.525211 
L 364.823612 185.502809 
L 365.113482 185.799641 
L 365.403352 185.316523 
L 365.693222 185.723265 
L 365.983093 185.748763 
L 366.272963 185.469673 
L 366.562833 186.073279 
L 366.852703 185.85243 
L 367.142573 186.304317 
L 367.432443 185.806278 
L 367.722313 185.647092 
L 368.012183 185.774718 
L 368.302054 185.772281 
L 368.591924 185.331673 
L 368.881794 185.665762 
L 369.171664 185.342823 
L 370.041274 186.082109 
L 370.331144 186.089877 
L 370.621015 184.787684 
L 370.910885 185.59565 
L 371.490625 185.976348 
L 371.780495 185.979838 
L 372.070365 185.464481 
L 372.650106 185.766317 
L 372.939976 185.304157 
L 373.229846 185.241858 
L 373.519716 185.630348 
L 374.099456 185.863152 
L 374.389326 185.674776 
L 374.679196 185.842227 
L 374.969067 185.839063 
L 375.258937 185.343559 
L 375.838677 185.748516 
L 376.128547 185.667737 
L 376.418417 185.860776 
L 376.708287 185.722093 
L 376.998157 185.396313 
L 377.577898 185.501576 
L 377.867768 185.122117 
L 378.157638 185.89944 
L 378.447508 185.378716 
L 378.737378 185.717443 
L 379.027248 185.3795 
L 379.317119 185.614582 
L 379.896859 185.826792 
L 380.186729 185.921637 
L 380.766469 185.273631 
L 381.056339 185.393312 
L 381.346209 185.974657 
L 381.63608 184.983217 
L 382.21582 185.771134 
L 382.50569 185.812377 
L 382.79556 185.487687 
L 383.3753 185.658713 
L 383.66517 185.350863 
L 383.955041 185.208361 
L 384.244911 185.581589 
L 384.534781 185.215886 
L 384.824651 185.230168 
L 385.404391 184.996668 
L 385.984131 185.660728 
L 386.274002 185.400554 
L 386.563872 185.493324 
L 387.143612 185.242921 
L 387.433482 185.382258 
L 387.723352 185.666778 
L 388.303093 185.047268 
L 388.882833 185.643121 
L 389.172703 185.291113 
L 389.462573 185.600169 
L 389.752443 185.163958 
L 390.042313 185.262357 
L 390.332183 185.641168 
L 390.622054 185.21704 
L 390.911924 185.502371 
L 391.201794 185.237078 
L 391.491664 185.503319 
L 391.781534 184.951404 
L 392.071404 185.278299 
L 392.361274 185.06473 
L 392.651144 185.618755 
L 393.520755 184.901788 
L 393.810625 185.055061 
L 394.100495 185.341415 
L 394.390365 185.35212 
L 394.680235 185.230386 
L 394.970106 185.557566 
L 395.259976 185.138828 
L 395.839716 185.212811 
L 396.129586 185.110931 
L 396.419456 184.766846 
L 396.709326 185.098531 
L 396.999196 184.858957 
L 397.289067 185.366991 
L 397.578937 184.832966 
L 397.868807 185.304899 
L 398.158677 185.348768 
L 398.448547 185.019933 
L 398.738417 184.066157 
L 399.028287 184.953365 
L 399.318157 185.029033 
L 399.608028 184.580125 
L 400.187768 184.812666 
L 400.477638 185.011276 
L 400.767508 185.488328 
L 401.057378 184.839575 
L 401.637119 185.46906 
L 402.216859 184.708155 
L 402.506729 184.612363 
L 402.796599 185.073962 
L 403.086469 185.00207 
L 403.376339 184.667401 
L 403.666209 185.660946 
L 403.95608 185.387543 
L 404.53582 184.554148 
L 405.40543 184.994997 
L 405.6953 184.615874 
L 406.275041 185.217749 
L 406.564911 184.890171 
L 406.854781 185.107049 
L 407.144651 184.634478 
L 408.304131 185.260286 
L 408.594002 184.963435 
L 408.883872 185.088686 
L 409.173742 184.95617 
L 409.463612 185.05309 
L 409.753482 185.289761 
L 410.043352 185.137012 
L 410.333222 185.338344 
L 410.912963 184.990153 
L 411.782573 185.089635 
L 412.072443 185.092262 
L 412.362313 184.908988 
L 412.652183 184.89784 
L 412.942054 185.154122 
L 413.231924 185.214908 
L 413.521794 185.076644 
L 413.811664 185.285548 
L 414.101534 185.064083 
L 414.391404 185.229144 
L 414.681274 184.883728 
L 414.971144 184.752453 
L 415.261015 185.124473 
L 415.550885 184.638999 
L 415.840755 184.873653 
L 416.130625 185.464575 
L 416.710365 185.282802 
L 417.000235 185.285787 
L 417.290106 185.473608 
L 417.579976 184.54076 
L 418.159716 185.16694 
L 418.449586 184.770681 
L 418.739456 184.939562 
L 419.029326 184.880314 
L 419.319196 185.155055 
L 419.609067 184.841595 
L 419.898937 185.55881 
L 420.188807 185.067812 
L 420.478677 184.951094 
L 420.768547 185.066114 
L 421.058417 184.687902 
L 421.348287 184.900511 
L 421.638157 184.912242 
L 421.928028 184.660179 
L 422.507768 184.620449 
L 422.797638 184.937311 
L 423.087508 184.615958 
L 423.377378 184.728864 
L 423.667248 184.961336 
L 424.246989 184.537369 
L 425.116599 184.902272 
L 425.406469 185.005211 
L 425.696339 184.782223 
L 425.986209 184.413976 
L 426.27608 184.733595 
L 426.85582 184.808739 
L 427.14569 185.145023 
L 427.43556 184.699711 
L 427.72543 184.865599 
L 428.0153 184.612051 
L 428.30517 185.049187 
L 428.884911 185.289952 
L 429.174781 184.809121 
L 429.464651 185.01908 
L 429.754521 184.829658 
L 430.044391 184.945658 
L 430.624131 184.921307 
L 430.914002 185.744583 
L 431.203872 185.289857 
L 432.073482 185.204668 
L 432.363352 185.02375 
L 432.653222 185.851191 
L 432.943093 185.202026 
L 433.232963 185.299428 
L 433.522833 185.258903 
L 433.812703 185.765713 
L 434.102573 185.017931 
L 434.392443 185.223402 
L 434.682313 184.843359 
L 434.972183 185.161111 
L 435.262054 184.758296 
L 435.551924 184.801805 
L 435.841794 185.203225 
L 436.131664 184.830448 
L 436.421534 185.276529 
L 436.711404 185.156063 
L 437.001274 185.401703 
L 437.291144 185.368559 
L 437.581015 185.039974 
L 437.870885 185.364377 
L 438.160755 185.372773 
L 438.450625 185.124982 
L 439.320235 185.338046 
L 439.610106 185.160352 
L 439.899976 185.622062 
L 440.189846 185.638071 
L 440.479716 184.985756 
L 440.769586 185.545884 
L 441.059456 185.73752 
L 441.349326 185.255421 
L 441.929067 185.100956 
L 442.218937 185.390662 
L 442.798677 185.383446 
L 443.088547 185.138582 
L 443.378417 185.081053 
L 443.668287 185.36929 
L 443.958157 185.155861 
L 444.248028 185.25123 
L 444.827768 184.964765 
L 445.117638 184.843631 
L 445.407508 185.11617 
L 445.697378 184.955133 
L 445.987248 185.018476 
L 446.277119 184.872595 
L 446.566989 185.073209 
L 446.856859 184.859193 
L 447.146729 185.007464 
L 447.436599 184.919116 
L 447.726469 185.160708 
L 448.306209 184.992052 
L 448.59608 185.448633 
L 448.88595 185.129941 
L 449.17582 185.317515 
L 449.46569 185.290708 
L 449.75556 184.780939 
L 450.04543 180.036991 
L 450.3353 182.56178 
L 450.62517 183.98074 
L 450.915041 183.608499 
L 451.204911 183.802444 
L 451.494781 182.828187 
L 451.784651 183.003421 
L 452.074521 182.664868 
L 452.364391 182.660828 
L 452.654261 182.797474 
L 453.234002 182.332724 
L 453.523872 182.871875 
L 453.813742 182.77053 
L 454.103612 182.828017 
L 454.393482 183.259699 
L 454.683352 183.433791 
L 454.973222 183.009316 
L 455.842833 183.394681 
L 456.132703 183.724366 
L 456.712443 183.204305 
L 457.002313 183.679701 
L 457.582054 183.20975 
L 457.871924 183.655039 
L 458.161794 183.597079 
L 458.451664 183.933037 
L 459.031404 183.312294 
L 459.321274 183.714128 
L 459.611144 183.471159 
L 459.901015 183.50005 
L 460.480755 184.314002 
L 460.770625 183.612529 
L 461.060495 183.560315 
L 461.640235 183.656162 
L 461.930106 183.468498 
L 462.219976 183.717202 
L 462.509846 184.223634 
L 462.799716 183.773258 
L 463.089586 183.63697 
L 463.669326 184.015264 
L 464.249067 183.788114 
L 464.538937 183.96905 
L 464.828807 183.494329 
L 465.118677 183.749704 
L 465.408547 183.728994 
L 465.698417 183.879491 
L 466.278157 183.43429 
L 466.857898 183.806607 
L 467.147768 183.222694 
L 467.437638 183.761326 
L 467.727508 183.553487 
L 468.017378 183.785491 
L 468.886989 183.709997 
L 469.176859 183.463813 
L 469.466729 183.723789 
L 469.756599 183.340668 
L 470.046469 183.923346 
L 470.336339 183.457319 
L 470.626209 183.66021 
L 471.20595 183.269472 
L 472.07556 183.935596 
L 472.36543 183.566451 
L 472.94517 183.387112 
L 473.235041 183.70615 
L 473.524911 183.314692 
L 473.814781 183.848061 
L 474.104651 183.628863 
L 474.394521 183.181817 
L 474.684391 183.388481 
L 474.974261 183.744475 
L 475.264131 183.755057 
L 475.554002 183.646553 
L 476.133742 183.873659 
L 476.423612 183.949715 
L 476.713482 183.213537 
L 477.003352 183.281806 
L 477.293222 183.690155 
L 477.583093 183.578216 
L 477.872963 183.856638 
L 478.162833 183.406458 
L 478.452703 183.567542 
L 478.742573 184.027791 
L 479.032443 183.50691 
L 479.322313 183.562667 
L 479.612183 183.266677 
L 479.902054 183.180689 
L 480.191924 183.610598 
L 480.481794 183.30321 
L 480.771664 183.695 
L 481.061534 183.035239 
L 481.351404 183.881584 
L 481.641274 183.475687 
L 481.931144 183.371651 
L 482.510885 183.993367 
L 482.800755 183.741462 
L 483.090625 183.815634 
L 483.380495 183.339237 
L 483.960235 183.644082 
L 484.250106 183.348002 
L 484.539976 183.473453 
L 484.829846 184.147805 
L 485.119716 184.015953 
L 485.409586 183.542469 
L 485.699456 183.331938 
L 485.989326 183.69612 
L 486.279196 183.159634 
L 486.569067 183.464488 
L 487.148807 183.428491 
L 487.438677 183.274972 
L 487.728547 183.374157 
L 488.018417 183.116363 
L 488.308287 183.503453 
L 488.598157 183.699039 
L 488.888028 183.354238 
L 489.177898 183.542265 
L 489.467768 183.262553 
L 489.757638 183.595958 
L 490.047508 183.61165 
L 490.337378 183.447239 
L 490.627248 183.742063 
L 490.917119 183.720341 
L 491.206989 183.845882 
L 491.496859 183.254979 
L 492.366469 183.287191 
L 492.656339 183.187968 
L 492.946209 183.636825 
L 493.23608 183.267348 
L 493.52595 183.562088 
L 493.81582 183.502068 
L 494.10569 183.297027 
L 494.39556 183.322349 
L 494.9753 183.551254 
L 495.555041 183.350554 
L 495.844911 183.603973 
L 496.134781 183.098763 
L 496.424651 183.042062 
L 497.004391 183.669447 
L 497.294261 183.466858 
L 497.584131 183.401992 
L 497.874002 184.102038 
L 498.163872 183.599398 
L 498.453742 183.645449 
L 498.743612 183.565669 
L 499.033482 183.804148 
L 499.903093 183.269829 
L 500.192963 183.606135 
L 500.482833 183.452829 
L 501.062573 183.393455 
L 501.352443 183.82691 
L 501.642313 183.346234 
L 501.932183 183.577972 
L 502.222054 183.587448 
L 502.511924 183.423884 
L 502.801794 183.627187 
L 503.091664 183.393281 
L 503.381534 183.65609 
L 503.671404 183.515589 
L 503.961274 183.626813 
L 504.251144 183.311961 
L 504.830885 183.426901 
L 505.120755 182.992038 
L 505.410625 183.071403 
L 505.700495 183.401835 
L 505.990365 183.497815 
L 506.280235 182.924655 
L 506.859976 183.498596 
L 507.729586 183.323552 
L 508.019456 183.129153 
L 508.309326 183.42482 
L 508.599196 183.361321 
L 508.889067 183.086464 
L 509.178937 183.136548 
L 509.468807 183.505101 
L 509.758677 183.340691 
L 510.048547 183.484262 
L 510.628287 183.184531 
L 511.497898 183.449026 
L 511.787768 183.20795 
L 512.077638 183.7038 
L 512.947248 183.531942 
L 513.237119 183.258673 
L 513.526989 183.441936 
L 513.816859 183.444441 
L 514.106729 183.565086 
L 514.396599 183.165658 
L 515.266209 183.152049 
L 515.84595 183.107586 
L 516.13582 183.384105 
L 516.42569 182.973842 
L 517.00543 183.76319 
L 517.2953 183.343807 
L 518.744651 183.465705 
L 519.034521 183.712417 
L 519.324391 183.657732 
L 519.904131 182.70531 
L 520.483872 182.429954 
L 520.773742 182.483317 
L 521.353482 183.320078 
L 522.802833 183.022061 
L 523.092703 183.386519 
L 523.672443 183.217535 
L 523.962313 183.623722 
L 524.542054 183.171696 
L 524.831924 183.117825 
L 525.411664 182.617823 
L 525.701534 182.696155 
L 525.991404 183.076463 
L 526.281274 182.911318 
L 527.150885 183.206343 
L 527.440755 183.036375 
L 528.600235 183.149778 
L 528.890106 183.497997 
L 529.179976 183.001253 
L 529.469846 183.099563 
L 529.759716 183.583056 
L 530.049586 183.160004 
L 530.339456 183.020948 
L 531.209067 183.323396 
L 531.788807 183.041196 
L 532.078677 182.915704 
L 532.368547 183.015766 
L 532.658417 183.420561 
L 532.948287 183.533616 
L 533.528028 183.097874 
L 533.817898 182.773374 
L 534.107768 183.516329 
L 534.397638 183.154724 
L 534.977378 183.158788 
L 535.267248 183.348349 
L 535.557119 183.348833 
L 535.846989 183.077512 
L 537.296339 182.441261 
L 537.586209 182.6167 
L 537.87608 182.979482 
L 538.16595 182.662028 
L 538.45582 182.768526 
L 538.74569 182.613882 
L 539.32543 182.998654 
L 539.6153 182.612261 
L 539.90517 182.699188 
L 540.195041 182.393298 
L 540.484911 182.697021 
L 540.774781 182.712989 
L 541.064651 182.328841 
L 541.354521 182.816708 
L 541.644391 182.572083 
L 541.934261 182.978271 
L 542.224131 182.550365 
L 542.514002 182.777252 
L 543.093742 182.417953 
L 543.673482 182.714185 
L 543.963352 182.668187 
L 544.253222 182.787581 
L 544.543093 182.287962 
L 545.122833 182.519827 
L 545.412703 182.318817 
L 545.992443 182.312334 
L 546.282313 182.567052 
L 546.572183 182.527408 
L 546.862054 182.806326 
L 547.151924 182.503238 
L 547.441794 182.48821 
L 547.731664 182.612087 
L 548.021534 182.385311 
L 548.601274 182.601009 
L 549.181015 182.125806 
L 549.470885 182.645717 
L 549.760755 182.411736 
L 550.630365 182.298394 
L 550.920235 182.866667 
L 551.499976 182.75749 
L 551.789846 182.557725 
L 552.079716 182.603123 
L 552.659456 182.270885 
L 552.949326 181.964599 
L 553.239196 182.22335 
L 553.818937 181.776029 
L 554.398677 182.3505 
L 554.688547 182.340268 
L 554.978417 182.520741 
L 555.558157 182.523605 
L 555.848028 182.238641 
L 556.137898 182.277821 
L 556.427768 182.4905 
L 556.717638 182.156534 
L 557.297378 182.384129 
L 557.587248 182.146866 
L 558.166989 182.066737 
L 558.456859 182.388662 
L 558.746729 182.498932 
L 559.036599 182.183845 
L 559.326469 182.322671 
L 559.616339 182.211071 
L 559.906209 182.422352 
L 560.19608 182.48971 
L 560.48595 182.729717 
L 560.77582 182.393239 
L 561.35556 182.735363 
L 561.64543 182.327999 
L 561.9353 182.338891 
L 562.515041 182.599993 
L 562.804911 182.466046 
L 563.094781 182.69844 
L 563.384651 182.38232 
L 563.674521 182.442558 
L 563.964391 182.362258 
L 564.254261 182.586701 
L 564.834002 182.419876 
L 565.123872 182.295667 
L 565.413742 182.456317 
L 565.703612 182.461302 
L 565.993482 182.224138 
L 566.573222 182.186657 
L 567.152963 182.622206 
L 567.442833 182.367919 
L 568.602313 182.174806 
L 568.892183 182.346741 
L 569.471924 182.330894 
L 570.051664 182.340062 
L 570.341534 182.131605 
L 570.921274 182.46111 
L 571.211144 182.411937 
L 571.501015 182.212611 
L 572.080755 182.477282 
L 572.660495 182.283253 
L 573.240235 182.504761 
L 573.530106 182.056743 
L 574.399716 182.046057 
L 574.689586 181.847828 
L 575.269326 182.310119 
L 575.559196 182.038079 
L 575.849067 182.276506 
L 576.138937 182.738705 
L 576.718677 182.299761 
L 577.008547 182.571966 
L 577.298417 182.000154 
L 577.878157 182.251631 
L 578.168028 182.082969 
L 578.457898 182.140549 
L 578.747768 182.341278 
L 579.907248 182.329414 
L 581.066729 182.35191 
L 581.646469 182.309092 
L 581.936339 182.350223 
L 582.226209 182.256163 
L 582.51608 182.347059 
L 582.80595 182.157633 
L 583.09582 182.385586 
L 583.38569 182.384132 
L 583.67556 182.504546 
L 583.96543 182.249162 
L 584.835041 182.184146 
L 585.124911 182.330889 
L 585.414781 181.942761 
L 585.704651 182.094773 
L 585.994521 182.39769 
L 586.284391 182.184823 
L 586.574261 182.122614 
L 587.154002 182.354128 
L 587.443872 182.159576 
L 588.313482 182.071083 
L 588.603352 182.330678 
L 590.052703 182.091639 
L 590.342573 182.392439 
L 590.632443 182.28186 
L 591.212183 182.305347 
L 591.502054 182.166866 
L 592.081794 182.459293 
L 592.661534 182.478516 
L 592.951404 182.664681 
L 593.241274 182.309044 
L 593.531144 182.751354 
L 594.110885 182.38066 
L 594.690625 182.767456 
L 595.270365 182.559118 
L 595.560235 182.58821 
L 595.850106 182.203366 
L 596.139976 182.269519 
L 596.429846 182.672369 
L 596.719716 182.194848 
L 597.009586 182.355663 
L 598.169067 182.283822 
L 598.458937 182.535192 
L 598.748807 182.240762 
L 599.328547 182.326357 
L 599.618417 182.213775 
L 599.908287 182.643433 
L 600.198157 182.149178 
L 600.488028 182.315982 
L 600.777898 182.266031 
L 601.067768 182.393188 
L 601.357638 182.152417 
L 601.647508 182.272767 
L 602.227248 182.298863 
L 602.517119 182.684431 
L 602.806989 182.262631 
L 603.096859 182.394064 
L 603.386729 182.207273 
L 603.676599 182.184849 
L 603.966469 182.429083 
L 604.256339 182.163767 
L 605.70569 182.305717 
L 605.99556 182.230983 
L 606.28543 182.546988 
L 606.5753 182.26587 
L 607.155041 182.359449 
L 607.444911 182.636811 
L 607.734781 182.176751 
L 608.024651 182.517018 
L 608.314521 182.330393 
L 608.604391 182.443774 
L 608.894261 182.14642 
L 609.474002 182.399277 
L 609.763872 181.964021 
L 610.923352 182.053783 
L 611.213222 182.450467 
L 611.792963 181.833146 
L 612.082833 182.25715 
L 612.372703 182.037174 
L 612.662573 182.113034 
L 612.952443 181.986759 
L 613.532183 182.332728 
L 613.822054 182.119482 
L 614.111924 181.758075 
L 614.981534 182.655678 
L 615.561274 182.319435 
L 616.141015 181.935206 
L 616.430885 182.013737 
L 616.720755 182.288837 
L 617.300495 182.160295 
L 617.880235 181.891785 
L 618.459976 182.0306 
L 618.749846 181.925614 
L 619.329586 182.046479 
L 619.909326 182.059735 
L 620.778937 182.188095 
L 621.068807 182.65131 
L 621.358677 182.19252 
L 621.648547 182.516961 
L 621.938417 182.632907 
L 622.228287 182.212735 
L 622.518157 182.231731 
L 622.808028 182.42514 
L 623.097898 182.438277 
L 623.387768 182.207937 
L 624.257378 182.191734 
L 624.547248 182.003203 
L 624.837119 182.177258 
L 625.126989 182.205382 
L 625.126989 182.205382 
" clip-path="url(#p74d6b8b8d6)" style="fill: none; stroke: #ff7f0e; stroke-width: 1.5; stroke-linecap: square"/>
   </g>
   <g id="patch_3">
    <path d="M 92.490625 308.63625 
L 92.490625 31.43625 
" style="fill: none; stroke: #000000; stroke-width: 0.8; stroke-linejoin: miter; stroke-linecap: square"/>
   </g>
   <g id="patch_4">
    <path d="M 650.490625 308.63625 
L 650.490625 31.43625 
" style="fill: none; stroke: #000000; stroke-width: 0.8; stroke-linejoin: miter; stroke-linecap: square"/>
   </g>
   <g id="patch_5">
    <path d="M 92.490625 308.63625 
L 650.490625 308.63625 
" style="fill: none; stroke: #000000; stroke-width: 0.8; stroke-linejoin: miter; stroke-linecap: square"/>
   </g>
   <g id="patch_6">
    <path d="M 92.490625 31.43625 
L 650.490625 31.43625 
" style="fill: none; stroke: #000000; stroke-width: 0.8; stroke-linejoin: miter; stroke-linecap: square"/>
   </g>
   <g id="text_16">
    <!-- Generator and Discriminator Loss During Training -->
    <g transform="translate(74.258125 25.43625) scale(0.24 -0.24)">
     <defs>
      <path id="DejaVuSans-47" d="M 3809 666 
L 3809 1919 
L 2778 1919 
L 2778 2438 
L 4434 2438 
L 4434 434 
Q 4069 175 3628 42 
Q 3188 -91 2688 -91 
Q 1594 -91 976 548 
Q 359 1188 359 2328 
Q 359 3472 976 4111 
Q 1594 4750 2688 4750 
Q 3144 4750 3555 4637 
Q 3966 4525 4313 4306 
L 4313 3634 
Q 3963 3931 3569 4081 
Q 3175 4231 2741 4231 
Q 1884 4231 1454 3753 
Q 1025 3275 1025 2328 
Q 1025 1384 1454 906 
Q 1884 428 2741 428 
Q 3075 428 3337 486 
Q 3600 544 3809 666 
z
" transform="scale(0.015625)"/>
      <path id="DejaVuSans-20" transform="scale(0.015625)"/>
      <path id="DejaVuSans-64" d="M 2906 2969 
L 2906 4863 
L 3481 4863 
L 3481 0 
L 2906 0 
L 2906 525 
Q 2725 213 2448 61 
Q 2172 -91 1784 -91 
Q 1150 -91 751 415 
Q 353 922 353 1747 
Q 353 2572 751 3078 
Q 1150 3584 1784 3584 
Q 2172 3584 2448 3432 
Q 2725 3281 2906 2969 
z
M 947 1747 
Q 947 1113 1208 752 
Q 1469 391 1925 391 
Q 2381 391 2643 752 
Q 2906 1113 2906 1747 
Q 2906 2381 2643 2742 
Q 2381 3103 1925 3103 
Q 1469 3103 1208 2742 
Q 947 2381 947 1747 
z
" transform="scale(0.015625)"/>
      <path id="DejaVuSans-44" d="M 1259 4147 
L 1259 519 
L 2022 519 
Q 2988 519 3436 956 
Q 3884 1394 3884 2338 
Q 3884 3275 3436 3711 
Q 2988 4147 2022 4147 
L 1259 4147 
z
M 628 4666 
L 1925 4666 
Q 3281 4666 3915 4102 
Q 4550 3538 4550 2338 
Q 4550 1131 3912 565 
Q 3275 0 1925 0 
L 628 0 
L 628 4666 
z
" transform="scale(0.015625)"/>
      <path id="DejaVuSans-63" d="M 3122 3366 
L 3122 2828 
Q 2878 2963 2633 3030 
Q 2388 3097 2138 3097 
Q 1578 3097 1268 2742 
Q 959 2388 959 1747 
Q 959 1106 1268 751 
Q 1578 397 2138 397 
Q 2388 397 2633 464 
Q 2878 531 3122 666 
L 3122 134 
Q 2881 22 2623 -34 
Q 2366 -91 2075 -91 
Q 1284 -91 818 406 
Q 353 903 353 1747 
Q 353 2603 823 3093 
Q 1294 3584 2113 3584 
Q 2378 3584 2631 3529 
Q 2884 3475 3122 3366 
z
" transform="scale(0.015625)"/>
      <path id="DejaVuSans-6d" d="M 3328 2828 
Q 3544 3216 3844 3400 
Q 4144 3584 4550 3584 
Q 5097 3584 5394 3201 
Q 5691 2819 5691 2113 
L 5691 0 
L 5113 0 
L 5113 2094 
Q 5113 2597 4934 2840 
Q 4756 3084 4391 3084 
Q 3944 3084 3684 2787 
Q 3425 2491 3425 1978 
L 3425 0 
L 2847 0 
L 2847 2094 
Q 2847 2600 2669 2842 
Q 2491 3084 2119 3084 
Q 1678 3084 1418 2786 
Q 1159 2488 1159 1978 
L 1159 0 
L 581 0 
L 581 3500 
L 1159 3500 
L 1159 2956 
Q 1356 3278 1631 3431 
Q 1906 3584 2284 3584 
Q 2666 3584 2933 3390 
Q 3200 3197 3328 2828 
z
" transform="scale(0.015625)"/>
      <path id="DejaVuSans-75" d="M 544 1381 
L 544 3500 
L 1119 3500 
L 1119 1403 
Q 1119 906 1312 657 
Q 1506 409 1894 409 
Q 2359 409 2629 706 
Q 2900 1003 2900 1516 
L 2900 3500 
L 3475 3500 
L 3475 0 
L 2900 0 
L 2900 538 
Q 2691 219 2414 64 
Q 2138 -91 1772 -91 
Q 1169 -91 856 284 
Q 544 659 544 1381 
z
M 1991 3584 
L 1991 3584 
z
" transform="scale(0.015625)"/>
      <path id="DejaVuSans-67" d="M 2906 1791 
Q 2906 2416 2648 2759 
Q 2391 3103 1925 3103 
Q 1463 3103 1205 2759 
Q 947 2416 947 1791 
Q 947 1169 1205 825 
Q 1463 481 1925 481 
Q 2391 481 2648 825 
Q 2906 1169 2906 1791 
z
M 3481 434 
Q 3481 -459 3084 -895 
Q 2688 -1331 1869 -1331 
Q 1566 -1331 1297 -1286 
Q 1028 -1241 775 -1147 
L 775 -588 
Q 1028 -725 1275 -790 
Q 1522 -856 1778 -856 
Q 2344 -856 2625 -561 
Q 2906 -266 2906 331 
L 2906 616 
Q 2728 306 2450 153 
Q 2172 0 1784 0 
Q 1141 0 747 490 
Q 353 981 353 1791 
Q 353 2603 747 3093 
Q 1141 3584 1784 3584 
Q 2172 3584 2450 3431 
Q 2728 3278 2906 2969 
L 2906 3500 
L 3481 3500 
L 3481 434 
z
" transform="scale(0.015625)"/>
      <path id="DejaVuSans-54" d="M -19 4666 
L 3928 4666 
L 3928 4134 
L 2272 4134 
L 2272 0 
L 1638 0 
L 1638 4134 
L -19 4134 
L -19 4666 
z
" transform="scale(0.015625)"/>
     </defs>
     <use xlink:href="#DejaVuSans-47"/>
     <use xlink:href="#DejaVuSans-65" x="77.490234"/>
     <use xlink:href="#DejaVuSans-6e" x="139.013672"/>
     <use xlink:href="#DejaVuSans-65" x="202.392578"/>
     <use xlink:href="#DejaVuSans-72" x="263.916016"/>
     <use xlink:href="#DejaVuSans-61" x="305.029297"/>
     <use xlink:href="#DejaVuSans-74" x="366.308594"/>
     <use xlink:href="#DejaVuSans-6f" x="405.517578"/>
     <use xlink:href="#DejaVuSans-72" x="466.699219"/>
     <use xlink:href="#DejaVuSans-20" x="507.8125"/>
     <use xlink:href="#DejaVuSans-61" x="539.599609"/>
     <use xlink:href="#DejaVuSans-6e" x="600.878906"/>
     <use xlink:href="#DejaVuSans-64" x="664.257812"/>
     <use xlink:href="#DejaVuSans-20" x="727.734375"/>
     <use xlink:href="#DejaVuSans-44" x="759.521484"/>
     <use xlink:href="#DejaVuSans-69" x="836.523438"/>
     <use xlink:href="#DejaVuSans-73" x="864.306641"/>
     <use xlink:href="#DejaVuSans-63" x="916.40625"/>
     <use xlink:href="#DejaVuSans-72" x="971.386719"/>
     <use xlink:href="#DejaVuSans-69" x="1012.5"/>
     <use xlink:href="#DejaVuSans-6d" x="1040.283203"/>
     <use xlink:href="#DejaVuSans-69" x="1137.695312"/>
     <use xlink:href="#DejaVuSans-6e" x="1165.478516"/>
     <use xlink:href="#DejaVuSans-61" x="1228.857422"/>
     <use xlink:href="#DejaVuSans-74" x="1290.136719"/>
     <use xlink:href="#DejaVuSans-6f" x="1329.345703"/>
     <use xlink:href="#DejaVuSans-72" x="1390.527344"/>
     <use xlink:href="#DejaVuSans-20" x="1431.640625"/>
     <use xlink:href="#DejaVuSans-4c" x="1463.427734"/>
     <use xlink:href="#DejaVuSans-6f" x="1517.390625"/>
     <use xlink:href="#DejaVuSans-73" x="1578.572266"/>
     <use xlink:href="#DejaVuSans-73" x="1630.671875"/>
     <use xlink:href="#DejaVuSans-20" x="1682.771484"/>
     <use xlink:href="#DejaVuSans-44" x="1714.558594"/>
     <use xlink:href="#DejaVuSans-75" x="1791.560547"/>
     <use xlink:href="#DejaVuSans-72" x="1854.939453"/>
     <use xlink:href="#DejaVuSans-69" x="1896.052734"/>
     <use xlink:href="#DejaVuSans-6e" x="1923.835938"/>
     <use xlink:href="#DejaVuSans-67" x="1987.214844"/>
     <use xlink:href="#DejaVuSans-20" x="2050.691406"/>
     <use xlink:href="#DejaVuSans-54" x="2082.478516"/>
     <use xlink:href="#DejaVuSans-72" x="2128.8125"/>
     <use xlink:href="#DejaVuSans-61" x="2169.925781"/>
     <use xlink:href="#DejaVuSans-69" x="2231.205078"/>
     <use xlink:href="#DejaVuSans-6e" x="2258.988281"/>
     <use xlink:href="#DejaVuSans-69" x="2322.367188"/>
     <use xlink:href="#DejaVuSans-6e" x="2350.150391"/>
     <use xlink:href="#DejaVuSans-67" x="2413.529297"/>
    </g>
   </g>
   <g id="legend_1">
    <g id="patch_7">
     <path d="M 556.99375 106.14875 
L 636.490625 106.14875 
Q 640.490625 106.14875 640.490625 102.14875 
L 640.490625 45.43625 
Q 640.490625 41.43625 636.490625 41.43625 
L 556.99375 41.43625 
Q 552.99375 41.43625 552.99375 45.43625 
L 552.99375 102.14875 
Q 552.99375 106.14875 556.99375 106.14875 
z
" style="fill: #ffffff; opacity: 0.8; stroke: #cccccc; stroke-linejoin: miter"/>
    </g>
    <g id="line2d_16">
     <path d="M 560.99375 57.633125 
L 580.99375 57.633125 
L 600.99375 57.633125 
" style="fill: none; stroke: #1f77b4; stroke-width: 1.5; stroke-linecap: square"/>
    </g>
    <g id="text_17">
     <!-- G -->
     <g transform="translate(616.99375 64.633125) scale(0.2 -0.2)">
      <use xlink:href="#DejaVuSans-47"/>
     </g>
    </g>
    <g id="line2d_17">
     <path d="M 560.99375 86.989375 
L 580.99375 86.989375 
L 600.99375 86.989375 
" style="fill: none; stroke: #ff7f0e; stroke-width: 1.5; stroke-linecap: square"/>
    </g>
    <g id="text_18">
     <!-- D -->
     <g transform="translate(616.99375 93.989375) scale(0.2 -0.2)">
      <use xlink:href="#DejaVuSans-44"/>
     </g>
    </g>
   </g>
  </g>
 </g>
 <defs>
  <clipPath id="p74d6b8b8d6">
   <rect x="92.490625" y="31.43625" width="558" height="277.2"/>
  </clipPath>
 </defs>
</svg>
