<?xml version="1.0" encoding="utf-8" standalone="no"?>
<!DOCTYPE svg PUBLIC "-//W3C//DTD SVG 1.1//EN"
  "http://www.w3.org/Graphics/SVG/1.1/DTD/svg11.dtd">
<svg xmlns:xlink="http://www.w3.org/1999/xlink" width="675.923125pt" height="365.54875pt" viewBox="0 0 675.923125 365.54875" xmlns="http://www.w3.org/2000/svg" version="1.1">
 <metadata>
  <rdf:RDF xmlns:dc="http://purl.org/dc/elements/1.1/" xmlns:cc="http://creativecommons.org/ns#" xmlns:rdf="http://www.w3.org/1999/02/22-rdf-syntax-ns#">
   <cc:Work>
    <dc:type rdf:resource="http://purl.org/dc/dcmitype/StillImage"/>
    <dc:date>2024-02-02T15:52:37.587439</dc:date>
    <dc:format>image/svg+xml</dc:format>
    <dc:creator>
     <cc:Agent>
      <dc:title>Matplotlib v3.7.2, https://matplotlib.org/</dc:title>
     </cc:Agent>
    </dc:creator>
   </cc:Work>
  </rdf:RDF>
 </metadata>
 <defs>
  <style type="text/css">*{stroke-linejoin: round; stroke-linecap: butt}</style>
 </defs>
 <g id="figure_1">
  <g id="patch_1">
   <path d="M 0 365.54875 
L 675.923125 365.54875 
L 675.923125 -0 
L 0 -0 
z
" style="fill: #ffffff"/>
  </g>
  <g id="axes_1">
   <g id="patch_2">
    <path d="M 92.490625 308.63625 
L 650.490625 308.63625 
L 650.490625 31.43625 
L 92.490625 31.43625 
z
" style="fill: #ffffff"/>
   </g>
   <g id="matplotlib.axis_1">
    <g id="xtick_1">
     <g id="line2d_1">
      <defs>
       <path id="m3da53e3ea4" d="M 0 0 
L 0 3.5 
" style="stroke: #000000; stroke-width: 0.8"/>
      </defs>
      <g>
       <use xlink:href="#m3da53e3ea4" x="117.854261" y="308.63625" style="stroke: #000000; stroke-width: 0.8"/>
      </g>
     </g>
     <g id="text_1">
      <!-- 0 -->
      <g transform="translate(111.491761 330.833125) scale(0.2 -0.2)">
       <defs>
        <path id="DejaVuSans-30" d="M 2034 4250 
Q 1547 4250 1301 3770 
Q 1056 3291 1056 2328 
Q 1056 1369 1301 889 
Q 1547 409 2034 409 
Q 2525 409 2770 889 
Q 3016 1369 3016 2328 
Q 3016 3291 2770 3770 
Q 2525 4250 2034 4250 
z
M 2034 4750 
Q 2819 4750 3233 4129 
Q 3647 3509 3647 2328 
Q 3647 1150 3233 529 
Q 2819 -91 2034 -91 
Q 1250 -91 836 529 
Q 422 1150 422 2328 
Q 422 3509 836 4129 
Q 1250 4750 2034 4750 
z
" transform="scale(0.015625)"/>
       </defs>
       <use xlink:href="#DejaVuSans-30"/>
      </g>
     </g>
    </g>
    <g id="xtick_2">
     <g id="line2d_2">
      <g>
       <use xlink:href="#m3da53e3ea4" x="190.321794" y="308.63625" style="stroke: #000000; stroke-width: 0.8"/>
      </g>
     </g>
     <g id="text_2">
      <!-- 200 -->
      <g transform="translate(171.234294 330.833125) scale(0.2 -0.2)">
       <defs>
        <path id="DejaVuSans-32" d="M 1228 531 
L 3431 531 
L 3431 0 
L 469 0 
L 469 531 
Q 828 903 1448 1529 
Q 2069 2156 2228 2338 
Q 2531 2678 2651 2914 
Q 2772 3150 2772 3378 
Q 2772 3750 2511 3984 
Q 2250 4219 1831 4219 
Q 1534 4219 1204 4116 
Q 875 4013 500 3803 
L 500 4441 
Q 881 4594 1212 4672 
Q 1544 4750 1819 4750 
Q 2544 4750 2975 4387 
Q 3406 4025 3406 3419 
Q 3406 3131 3298 2873 
Q 3191 2616 2906 2266 
Q 2828 2175 2409 1742 
Q 1991 1309 1228 531 
z
" transform="scale(0.015625)"/>
       </defs>
       <use xlink:href="#DejaVuSans-32"/>
       <use xlink:href="#DejaVuSans-30" x="63.623047"/>
       <use xlink:href="#DejaVuSans-30" x="127.246094"/>
      </g>
     </g>
    </g>
    <g id="xtick_3">
     <g id="line2d_3">
      <g>
       <use xlink:href="#m3da53e3ea4" x="262.789326" y="308.63625" style="stroke: #000000; stroke-width: 0.8"/>
      </g>
     </g>
     <g id="text_3">
      <!-- 400 -->
      <g transform="translate(243.701826 330.833125) scale(0.2 -0.2)">
       <defs>
        <path id="DejaVuSans-34" d="M 2419 4116 
L 825 1625 
L 2419 1625 
L 2419 4116 
z
M 2253 4666 
L 3047 4666 
L 3047 1625 
L 3713 1625 
L 3713 1100 
L 3047 1100 
L 3047 0 
L 2419 0 
L 2419 1100 
L 313 1100 
L 313 1709 
L 2253 4666 
z
" transform="scale(0.015625)"/>
       </defs>
       <use xlink:href="#DejaVuSans-34"/>
       <use xlink:href="#DejaVuSans-30" x="63.623047"/>
       <use xlink:href="#DejaVuSans-30" x="127.246094"/>
      </g>
     </g>
    </g>
    <g id="xtick_4">
     <g id="line2d_4">
      <g>
       <use xlink:href="#m3da53e3ea4" x="335.256859" y="308.63625" style="stroke: #000000; stroke-width: 0.8"/>
      </g>
     </g>
     <g id="text_4">
      <!-- 600 -->
      <g transform="translate(316.169359 330.833125) scale(0.2 -0.2)">
       <defs>
        <path id="DejaVuSans-36" d="M 2113 2584 
Q 1688 2584 1439 2293 
Q 1191 2003 1191 1497 
Q 1191 994 1439 701 
Q 1688 409 2113 409 
Q 2538 409 2786 701 
Q 3034 994 3034 1497 
Q 3034 2003 2786 2293 
Q 2538 2584 2113 2584 
z
M 3366 4563 
L 3366 3988 
Q 3128 4100 2886 4159 
Q 2644 4219 2406 4219 
Q 1781 4219 1451 3797 
Q 1122 3375 1075 2522 
Q 1259 2794 1537 2939 
Q 1816 3084 2150 3084 
Q 2853 3084 3261 2657 
Q 3669 2231 3669 1497 
Q 3669 778 3244 343 
Q 2819 -91 2113 -91 
Q 1303 -91 875 529 
Q 447 1150 447 2328 
Q 447 3434 972 4092 
Q 1497 4750 2381 4750 
Q 2619 4750 2861 4703 
Q 3103 4656 3366 4563 
z
" transform="scale(0.015625)"/>
       </defs>
       <use xlink:href="#DejaVuSans-36"/>
       <use xlink:href="#DejaVuSans-30" x="63.623047"/>
       <use xlink:href="#DejaVuSans-30" x="127.246094"/>
      </g>
     </g>
    </g>
    <g id="xtick_5">
     <g id="line2d_5">
      <g>
       <use xlink:href="#m3da53e3ea4" x="407.724391" y="308.63625" style="stroke: #000000; stroke-width: 0.8"/>
      </g>
     </g>
     <g id="text_5">
      <!-- 800 -->
      <g transform="translate(388.636891 330.833125) scale(0.2 -0.2)">
       <defs>
        <path id="DejaVuSans-38" d="M 2034 2216 
Q 1584 2216 1326 1975 
Q 1069 1734 1069 1313 
Q 1069 891 1326 650 
Q 1584 409 2034 409 
Q 2484 409 2743 651 
Q 3003 894 3003 1313 
Q 3003 1734 2745 1975 
Q 2488 2216 2034 2216 
z
M 1403 2484 
Q 997 2584 770 2862 
Q 544 3141 544 3541 
Q 544 4100 942 4425 
Q 1341 4750 2034 4750 
Q 2731 4750 3128 4425 
Q 3525 4100 3525 3541 
Q 3525 3141 3298 2862 
Q 3072 2584 2669 2484 
Q 3125 2378 3379 2068 
Q 3634 1759 3634 1313 
Q 3634 634 3220 271 
Q 2806 -91 2034 -91 
Q 1263 -91 848 271 
Q 434 634 434 1313 
Q 434 1759 690 2068 
Q 947 2378 1403 2484 
z
M 1172 3481 
Q 1172 3119 1398 2916 
Q 1625 2713 2034 2713 
Q 2441 2713 2670 2916 
Q 2900 3119 2900 3481 
Q 2900 3844 2670 4047 
Q 2441 4250 2034 4250 
Q 1625 4250 1398 4047 
Q 1172 3844 1172 3481 
z
" transform="scale(0.015625)"/>
       </defs>
       <use xlink:href="#DejaVuSans-38"/>
       <use xlink:href="#DejaVuSans-30" x="63.623047"/>
       <use xlink:href="#DejaVuSans-30" x="127.246094"/>
      </g>
     </g>
    </g>
    <g id="xtick_6">
     <g id="line2d_6">
      <g>
       <use xlink:href="#m3da53e3ea4" x="480.191924" y="308.63625" style="stroke: #000000; stroke-width: 0.8"/>
      </g>
     </g>
     <g id="text_6">
      <!-- 1000 -->
      <g transform="translate(454.741924 330.833125) scale(0.2 -0.2)">
       <defs>
        <path id="DejaVuSans-31" d="M 794 531 
L 1825 531 
L 1825 4091 
L 703 3866 
L 703 4441 
L 1819 4666 
L 2450 4666 
L 2450 531 
L 3481 531 
L 3481 0 
L 794 0 
L 794 531 
z
" transform="scale(0.015625)"/>
       </defs>
       <use xlink:href="#DejaVuSans-31"/>
       <use xlink:href="#DejaVuSans-30" x="63.623047"/>
       <use xlink:href="#DejaVuSans-30" x="127.246094"/>
       <use xlink:href="#DejaVuSans-30" x="190.869141"/>
      </g>
     </g>
    </g>
    <g id="xtick_7">
     <g id="line2d_7">
      <g>
       <use xlink:href="#m3da53e3ea4" x="552.659456" y="308.63625" style="stroke: #000000; stroke-width: 0.8"/>
      </g>
     </g>
     <g id="text_7">
      <!-- 1200 -->
      <g transform="translate(527.209456 330.833125) scale(0.2 -0.2)">
       <use xlink:href="#DejaVuSans-31"/>
       <use xlink:href="#DejaVuSans-32" x="63.623047"/>
       <use xlink:href="#DejaVuSans-30" x="127.246094"/>
       <use xlink:href="#DejaVuSans-30" x="190.869141"/>
      </g>
     </g>
    </g>
    <g id="xtick_8">
     <g id="line2d_8">
      <g>
       <use xlink:href="#m3da53e3ea4" x="625.126989" y="308.63625" style="stroke: #000000; stroke-width: 0.8"/>
      </g>
     </g>
     <g id="text_8">
      <!-- 1400 -->
      <g transform="translate(599.676989 330.833125) scale(0.2 -0.2)">
       <use xlink:href="#DejaVuSans-31"/>
       <use xlink:href="#DejaVuSans-34" x="63.623047"/>
       <use xlink:href="#DejaVuSans-30" x="127.246094"/>
       <use xlink:href="#DejaVuSans-30" x="190.869141"/>
      </g>
     </g>
    </g>
    <g id="text_9">
     <!-- iterations -->
     <g transform="translate(324.035938 354.189375) scale(0.2 -0.2)">
      <defs>
       <path id="DejaVuSans-69" d="M 603 3500 
L 1178 3500 
L 1178 0 
L 603 0 
L 603 3500 
z
M 603 4863 
L 1178 4863 
L 1178 4134 
L 603 4134 
L 603 4863 
z
" transform="scale(0.015625)"/>
       <path id="DejaVuSans-74" d="M 1172 4494 
L 1172 3500 
L 2356 3500 
L 2356 3053 
L 1172 3053 
L 1172 1153 
Q 1172 725 1289 603 
Q 1406 481 1766 481 
L 2356 481 
L 2356 0 
L 1766 0 
Q 1100 0 847 248 
Q 594 497 594 1153 
L 594 3053 
L 172 3053 
L 172 3500 
L 594 3500 
L 594 4494 
L 1172 4494 
z
" transform="scale(0.015625)"/>
       <path id="DejaVuSans-65" d="M 3597 1894 
L 3597 1613 
L 953 1613 
Q 991 1019 1311 708 
Q 1631 397 2203 397 
Q 2534 397 2845 478 
Q 3156 559 3463 722 
L 3463 178 
Q 3153 47 2828 -22 
Q 2503 -91 2169 -91 
Q 1331 -91 842 396 
Q 353 884 353 1716 
Q 353 2575 817 3079 
Q 1281 3584 2069 3584 
Q 2775 3584 3186 3129 
Q 3597 2675 3597 1894 
z
M 3022 2063 
Q 3016 2534 2758 2815 
Q 2500 3097 2075 3097 
Q 1594 3097 1305 2825 
Q 1016 2553 972 2059 
L 3022 2063 
z
" transform="scale(0.015625)"/>
       <path id="DejaVuSans-72" d="M 2631 2963 
Q 2534 3019 2420 3045 
Q 2306 3072 2169 3072 
Q 1681 3072 1420 2755 
Q 1159 2438 1159 1844 
L 1159 0 
L 581 0 
L 581 3500 
L 1159 3500 
L 1159 2956 
Q 1341 3275 1631 3429 
Q 1922 3584 2338 3584 
Q 2397 3584 2469 3576 
Q 2541 3569 2628 3553 
L 2631 2963 
z
" transform="scale(0.015625)"/>
       <path id="DejaVuSans-61" d="M 2194 1759 
Q 1497 1759 1228 1600 
Q 959 1441 959 1056 
Q 959 750 1161 570 
Q 1363 391 1709 391 
Q 2188 391 2477 730 
Q 2766 1069 2766 1631 
L 2766 1759 
L 2194 1759 
z
M 3341 1997 
L 3341 0 
L 2766 0 
L 2766 531 
Q 2569 213 2275 61 
Q 1981 -91 1556 -91 
Q 1019 -91 701 211 
Q 384 513 384 1019 
Q 384 1609 779 1909 
Q 1175 2209 1959 2209 
L 2766 2209 
L 2766 2266 
Q 2766 2663 2505 2880 
Q 2244 3097 1772 3097 
Q 1472 3097 1187 3025 
Q 903 2953 641 2809 
L 641 3341 
Q 956 3463 1253 3523 
Q 1550 3584 1831 3584 
Q 2591 3584 2966 3190 
Q 3341 2797 3341 1997 
z
" transform="scale(0.015625)"/>
       <path id="DejaVuSans-6f" d="M 1959 3097 
Q 1497 3097 1228 2736 
Q 959 2375 959 1747 
Q 959 1119 1226 758 
Q 1494 397 1959 397 
Q 2419 397 2687 759 
Q 2956 1122 2956 1747 
Q 2956 2369 2687 2733 
Q 2419 3097 1959 3097 
z
M 1959 3584 
Q 2709 3584 3137 3096 
Q 3566 2609 3566 1747 
Q 3566 888 3137 398 
Q 2709 -91 1959 -91 
Q 1206 -91 779 398 
Q 353 888 353 1747 
Q 353 2609 779 3096 
Q 1206 3584 1959 3584 
z
" transform="scale(0.015625)"/>
       <path id="DejaVuSans-6e" d="M 3513 2113 
L 3513 0 
L 2938 0 
L 2938 2094 
Q 2938 2591 2744 2837 
Q 2550 3084 2163 3084 
Q 1697 3084 1428 2787 
Q 1159 2491 1159 1978 
L 1159 0 
L 581 0 
L 581 3500 
L 1159 3500 
L 1159 2956 
Q 1366 3272 1645 3428 
Q 1925 3584 2291 3584 
Q 2894 3584 3203 3211 
Q 3513 2838 3513 2113 
z
" transform="scale(0.015625)"/>
       <path id="DejaVuSans-73" d="M 2834 3397 
L 2834 2853 
Q 2591 2978 2328 3040 
Q 2066 3103 1784 3103 
Q 1356 3103 1142 2972 
Q 928 2841 928 2578 
Q 928 2378 1081 2264 
Q 1234 2150 1697 2047 
L 1894 2003 
Q 2506 1872 2764 1633 
Q 3022 1394 3022 966 
Q 3022 478 2636 193 
Q 2250 -91 1575 -91 
Q 1294 -91 989 -36 
Q 684 19 347 128 
L 347 722 
Q 666 556 975 473 
Q 1284 391 1588 391 
Q 1994 391 2212 530 
Q 2431 669 2431 922 
Q 2431 1156 2273 1281 
Q 2116 1406 1581 1522 
L 1381 1569 
Q 847 1681 609 1914 
Q 372 2147 372 2553 
Q 372 3047 722 3315 
Q 1072 3584 1716 3584 
Q 2034 3584 2315 3537 
Q 2597 3491 2834 3397 
z
" transform="scale(0.015625)"/>
      </defs>
      <use xlink:href="#DejaVuSans-69"/>
      <use xlink:href="#DejaVuSans-74" x="27.783203"/>
      <use xlink:href="#DejaVuSans-65" x="66.992188"/>
      <use xlink:href="#DejaVuSans-72" x="128.515625"/>
      <use xlink:href="#DejaVuSans-61" x="169.628906"/>
      <use xlink:href="#DejaVuSans-74" x="230.908203"/>
      <use xlink:href="#DejaVuSans-69" x="270.117188"/>
      <use xlink:href="#DejaVuSans-6f" x="297.900391"/>
      <use xlink:href="#DejaVuSans-6e" x="359.082031"/>
      <use xlink:href="#DejaVuSans-73" x="422.460938"/>
     </g>
    </g>
   </g>
   <g id="matplotlib.axis_2">
    <g id="ytick_1">
     <g id="line2d_9">
      <defs>
       <path id="m29fbe7aea2" d="M 0 0 
L -3.5 0 
" style="stroke: #000000; stroke-width: 0.8"/>
      </defs>
      <g>
       <use xlink:href="#m29fbe7aea2" x="92.490625" y="279.562782" style="stroke: #000000; stroke-width: 0.8"/>
      </g>
     </g>
     <g id="text_10">
      <!-- −200 -->
      <g transform="translate(30.55625 287.16122) scale(0.2 -0.2)">
       <defs>
        <path id="DejaVuSans-2212" d="M 678 2272 
L 4684 2272 
L 4684 1741 
L 678 1741 
L 678 2272 
z
" transform="scale(0.015625)"/>
       </defs>
       <use xlink:href="#DejaVuSans-2212"/>
       <use xlink:href="#DejaVuSans-32" x="83.789062"/>
       <use xlink:href="#DejaVuSans-30" x="147.412109"/>
       <use xlink:href="#DejaVuSans-30" x="211.035156"/>
      </g>
     </g>
    </g>
    <g id="ytick_2">
     <g id="line2d_10">
      <g>
       <use xlink:href="#m29fbe7aea2" x="92.490625" y="229.718252" style="stroke: #000000; stroke-width: 0.8"/>
      </g>
     </g>
     <g id="text_11">
      <!-- −100 -->
      <g transform="translate(30.55625 237.316689) scale(0.2 -0.2)">
       <use xlink:href="#DejaVuSans-2212"/>
       <use xlink:href="#DejaVuSans-31" x="83.789062"/>
       <use xlink:href="#DejaVuSans-30" x="147.412109"/>
       <use xlink:href="#DejaVuSans-30" x="211.035156"/>
      </g>
     </g>
    </g>
    <g id="ytick_3">
     <g id="line2d_11">
      <g>
       <use xlink:href="#m29fbe7aea2" x="92.490625" y="179.873722" style="stroke: #000000; stroke-width: 0.8"/>
      </g>
     </g>
     <g id="text_12">
      <!-- 0 -->
      <g transform="translate(72.765625 187.472159) scale(0.2 -0.2)">
       <use xlink:href="#DejaVuSans-30"/>
      </g>
     </g>
    </g>
    <g id="ytick_4">
     <g id="line2d_12">
      <g>
       <use xlink:href="#m29fbe7aea2" x="92.490625" y="130.029191" style="stroke: #000000; stroke-width: 0.8"/>
      </g>
     </g>
     <g id="text_13">
      <!-- 100 -->
      <g transform="translate(47.315625 137.627629) scale(0.2 -0.2)">
       <use xlink:href="#DejaVuSans-31"/>
       <use xlink:href="#DejaVuSans-30" x="63.623047"/>
       <use xlink:href="#DejaVuSans-30" x="127.246094"/>
      </g>
     </g>
    </g>
    <g id="ytick_5">
     <g id="line2d_13">
      <g>
       <use xlink:href="#m29fbe7aea2" x="92.490625" y="80.184661" style="stroke: #000000; stroke-width: 0.8"/>
      </g>
     </g>
     <g id="text_14">
      <!-- 200 -->
      <g transform="translate(47.315625 87.783098) scale(0.2 -0.2)">
       <use xlink:href="#DejaVuSans-32"/>
       <use xlink:href="#DejaVuSans-30" x="63.623047"/>
       <use xlink:href="#DejaVuSans-30" x="127.246094"/>
      </g>
     </g>
    </g>
    <g id="text_15">
     <!-- Loss -->
     <g transform="translate(22.396875 191.970625) rotate(-90) scale(0.2 -0.2)">
      <defs>
       <path id="DejaVuSans-4c" d="M 628 4666 
L 1259 4666 
L 1259 531 
L 3531 531 
L 3531 0 
L 628 0 
L 628 4666 
z
" transform="scale(0.015625)"/>
      </defs>
      <use xlink:href="#DejaVuSans-4c"/>
      <use xlink:href="#DejaVuSans-6f" x="53.962891"/>
      <use xlink:href="#DejaVuSans-73" x="115.144531"/>
      <use xlink:href="#DejaVuSans-73" x="167.244141"/>
     </g>
    </g>
   </g>
   <g id="line2d_14">
    <path d="M 117.854261 124.531878 
L 118.216599 113.612244 
L 118.578937 120.519891 
L 118.941274 104.349251 
L 119.303612 82.758685 
L 119.66595 52.516894 
L 120.028287 44.03625 
L 120.390625 61.970005 
L 120.752963 47.184644 
L 121.477638 80.314335 
L 121.839976 92.451127 
L 122.202313 90.170035 
L 122.926989 102.578324 
L 123.289326 95.671232 
L 123.651664 100.331578 
L 124.014002 100.663401 
L 124.376339 98.525286 
L 124.738677 104.282319 
L 125.101015 116.142604 
L 125.463352 120.516331 
L 125.82569 130.835256 
L 126.550365 127.698731 
L 126.912703 125.168182 
L 127.275041 126.943921 
L 127.637378 124.005949 
L 128.362054 122.923807 
L 128.724391 123.257928 
L 129.086729 118.898656 
L 129.449067 119.56434 
L 129.811404 115.700499 
L 130.173742 117.745463 
L 130.53608 123.442567 
L 130.898417 123.774871 
L 131.260755 122.857969 
L 131.623093 122.302379 
L 131.98543 120.942223 
L 132.347768 119.124284 
L 132.710106 125.017556 
L 133.072443 133.214281 
L 133.434781 129.161825 
L 133.797119 123.543387 
L 134.159456 122.23231 
L 134.521794 123.023945 
L 134.884131 127.784878 
L 135.246469 121.940687 
L 135.608807 123.981988 
L 135.971144 127.193599 
L 136.333482 131.485114 
L 136.69582 128.917539 
L 137.058157 136.589669 
L 137.420495 136.567041 
L 137.782833 125.362361 
L 138.14517 126.824283 
L 138.507508 135.707324 
L 138.869846 137.326724 
L 139.232183 136.946144 
L 139.956859 141.297559 
L 140.319196 145.047706 
L 140.681534 145.805225 
L 141.043872 141.997796 
L 141.768547 139.025662 
L 142.130885 137.019952 
L 142.493222 138.139239 
L 142.85556 136.827967 
L 143.217898 138.508057 
L 143.580235 138.220575 
L 143.942573 138.101893 
L 144.304911 135.608969 
L 144.667248 141.338619 
L 145.391924 134.107495 
L 145.754261 138.24287 
L 146.116599 138.539082 
L 146.478937 134.882217 
L 146.841274 125.534589 
L 147.203612 130.92867 
L 147.56595 130.995844 
L 147.928287 129.896139 
L 148.290625 130.701701 
L 148.652963 134.78225 
L 149.0153 136.964739 
L 149.377638 139.833902 
L 149.739976 134.538663 
L 150.102313 132.112555 
L 150.464651 132.679362 
L 150.826989 137.227089 
L 151.189326 136.509092 
L 151.551664 134.164532 
L 151.914002 138.634416 
L 152.276339 137.086605 
L 152.638677 139.48127 
L 153.001015 140.847521 
L 153.363352 136.401101 
L 153.72569 136.610398 
L 154.088028 141.120117 
L 154.450365 141.657382 
L 154.812703 141.745369 
L 155.537378 145.930699 
L 155.899716 144.353858 
L 156.262054 147.068299 
L 156.986729 143.872919 
L 157.349067 144.823045 
L 157.711404 145.322043 
L 158.073742 149.160657 
L 158.43608 151.758086 
L 158.798417 147.409346 
L 159.160755 147.688363 
L 159.88543 143.905424 
L 160.247768 146.884967 
L 160.972443 147.688029 
L 161.697119 140.161348 
L 162.059456 143.441326 
L 162.421794 141.701099 
L 162.784131 143.244373 
L 163.146469 141.485977 
L 163.508807 143.743617 
L 163.871144 141.752809 
L 164.233482 144.378451 
L 164.59582 145.924998 
L 165.320495 145.710239 
L 165.682833 146.822277 
L 166.407508 142.812817 
L 166.769846 146.722669 
L 167.132183 142.762511 
L 167.494521 145.958757 
L 167.856859 145.805341 
L 168.219196 143.312113 
L 168.581534 144.758427 
L 168.943872 147.303361 
L 169.306209 146.89064 
L 169.668547 147.574506 
L 170.030885 148.59455 
L 170.75556 152.506974 
L 171.117898 150.388494 
L 171.480235 151.806019 
L 171.842573 150.902817 
L 172.204911 151.840849 
L 172.567248 149.806097 
L 172.929586 146.162209 
L 173.291924 148.368318 
L 173.654261 152.27345 
L 174.016599 151.466282 
L 174.378937 152.492185 
L 174.741274 150.095374 
L 175.46595 152.38361 
L 175.828287 151.164398 
L 176.190625 152.661597 
L 176.552963 153.504509 
L 176.9153 153.070374 
L 177.277638 153.701229 
L 177.639976 155.076172 
L 178.002313 155.925178 
L 178.726989 153.860758 
L 179.089326 153.674296 
L 179.451664 153.035097 
L 179.814002 154.346622 
L 180.176339 153.598921 
L 180.538677 153.137666 
L 180.901015 153.719381 
L 181.263352 151.537183 
L 181.62569 152.382328 
L 181.988028 153.754748 
L 182.350365 152.730595 
L 182.712703 153.912518 
L 183.075041 155.763226 
L 183.437378 154.635505 
L 183.799716 156.375225 
L 184.162054 154.862806 
L 184.524391 157.097058 
L 184.886729 158.475495 
L 185.249067 159.246486 
L 185.611404 160.579032 
L 185.973742 160.177923 
L 186.33608 158.198611 
L 186.698417 157.632745 
L 187.060755 158.695304 
L 187.423093 158.058747 
L 188.510106 161.274453 
L 188.872443 161.049882 
L 189.597119 162.780169 
L 189.959456 162.93181 
L 190.321794 162.909826 
L 190.684131 163.16357 
L 191.046469 163.590409 
L 191.771144 163.028633 
L 192.133482 164.160838 
L 192.49582 163.43676 
L 192.858157 163.598174 
L 193.220495 163.302926 
L 193.582833 163.467349 
L 193.94517 163.018195 
L 194.307508 164.735424 
L 194.669846 163.474858 
L 195.032183 161.245375 
L 195.394521 162.806307 
L 196.481534 163.922568 
L 196.843872 162.747043 
L 197.206209 162.225773 
L 197.568547 162.846469 
L 197.930885 165.236295 
L 198.293222 163.231114 
L 198.65556 163.010536 
L 199.017898 163.003862 
L 199.380235 164.481228 
L 199.742573 164.159237 
L 200.104911 165.05063 
L 200.467248 167.617109 
L 200.829586 166.927606 
L 201.191924 166.829197 
L 201.554261 167.045429 
L 201.916599 167.040901 
L 202.278937 168.045201 
L 203.003612 166.198974 
L 203.36595 166.800597 
L 203.728287 168.759688 
L 204.090625 168.974249 
L 204.452963 166.434748 
L 204.8153 165.174013 
L 205.177638 167.03687 
L 205.902313 167.675998 
L 206.264651 167.355134 
L 206.626989 166.638156 
L 206.989326 167.116547 
L 207.351664 167.266925 
L 207.714002 168.14975 
L 208.076339 167.908898 
L 208.438677 168.146553 
L 208.801015 168.238457 
L 209.52569 167.240999 
L 209.888028 168.253029 
L 210.250365 166.399731 
L 210.612703 167.169623 
L 210.975041 166.210275 
L 211.337378 167.497068 
L 211.699716 165.698517 
L 212.424391 166.698603 
L 212.786729 166.841433 
L 213.149067 166.310281 
L 213.511404 165.479998 
L 213.873742 165.215218 
L 214.23608 165.668773 
L 214.598417 167.322442 
L 214.960755 165.913513 
L 215.323093 165.804076 
L 215.68543 165.367667 
L 216.047768 166.220259 
L 216.410106 166.206106 
L 216.772443 165.972338 
L 217.134781 166.913536 
L 217.497119 166.170453 
L 217.859456 165.912273 
L 218.221794 166.548458 
L 218.584131 165.862925 
L 218.946469 166.657325 
L 219.308807 167.181714 
L 219.671144 166.678216 
L 220.033482 166.675568 
L 220.39582 167.875845 
L 220.758157 168.366442 
L 221.120495 168.449603 
L 221.482833 168.998448 
L 221.84517 169.32032 
L 222.207508 167.9225 
L 222.932183 168.843936 
L 223.294521 168.960531 
L 223.656859 168.782386 
L 224.019196 168.317253 
L 224.381534 169.688678 
L 224.743872 169.233972 
L 225.106209 169.06092 
L 225.830885 170.546879 
L 226.193222 170.171745 
L 226.55556 171.878035 
L 227.280235 171.137158 
L 227.642573 169.278403 
L 228.004911 169.725672 
L 228.367248 170.615596 
L 228.729586 169.496235 
L 229.091924 169.782768 
L 229.454261 169.890141 
L 229.816599 171.456883 
L 230.541274 170.001103 
L 230.903612 169.926751 
L 231.628287 171.37963 
L 231.990625 171.029107 
L 232.352963 171.124863 
L 232.7153 170.681482 
L 233.077638 170.87703 
L 233.439976 170.384301 
L 233.802313 170.986704 
L 234.164651 170.791971 
L 234.526989 169.625101 
L 234.889326 171.288955 
L 235.251664 170.927486 
L 235.614002 170.864856 
L 235.976339 171.211611 
L 236.338677 172.079021 
L 236.701015 171.845111 
L 237.063352 170.97074 
L 237.42569 171.625128 
L 237.788028 170.983582 
L 238.512703 171.02878 
L 238.875041 171.560573 
L 239.237378 172.322231 
L 239.599716 171.627739 
L 239.962054 171.467542 
L 240.324391 172.467587 
L 240.686729 171.02565 
L 241.049067 171.947077 
L 241.411404 171.483687 
L 241.773742 172.050066 
L 242.860755 169.947551 
L 243.223093 170.733685 
L 243.58543 170.584067 
L 243.947768 171.103421 
L 244.310106 171.348453 
L 244.672443 171.120201 
L 245.034781 170.558887 
L 245.397119 170.210684 
L 245.759456 170.789454 
L 246.121794 170.980313 
L 246.484131 172.211916 
L 246.846469 171.753866 
L 247.208807 172.058202 
L 247.571144 170.710387 
L 247.933482 171.610416 
L 248.658157 170.275572 
L 249.020495 170.921107 
L 249.382833 170.142906 
L 249.74517 171.335557 
L 250.107508 170.05853 
L 250.469846 170.093304 
L 250.832183 170.469731 
L 251.194521 171.273628 
L 251.556859 171.728208 
L 251.919196 171.723017 
L 252.281534 170.898618 
L 253.006209 171.377761 
L 253.368547 171.45996 
L 253.730885 170.901117 
L 254.093222 169.754796 
L 255.180235 171.283549 
L 255.542573 170.797232 
L 255.904911 171.524636 
L 256.267248 171.480676 
L 256.629586 171.125477 
L 257.716599 171.450506 
L 258.078937 170.746657 
L 258.441274 171.893811 
L 259.16595 169.705521 
L 259.528287 169.357828 
L 259.890625 169.628308 
L 260.252963 170.894575 
L 260.6153 171.221226 
L 260.977638 171.32752 
L 261.339976 171.762098 
L 261.702313 171.419549 
L 262.064651 171.510481 
L 262.426989 170.604535 
L 262.789326 172.064219 
L 263.151664 172.504472 
L 263.514002 171.730852 
L 263.876339 171.717936 
L 264.238677 171.126913 
L 264.601015 171.028055 
L 264.963352 171.81357 
L 265.32569 171.842793 
L 265.688028 171.260918 
L 266.050365 171.661503 
L 266.412703 171.18838 
L 267.499716 171.680532 
L 267.862054 172.343042 
L 268.224391 170.773445 
L 268.586729 171.850861 
L 268.949067 171.335879 
L 269.311404 171.470768 
L 269.673742 171.404438 
L 270.03608 170.42896 
L 270.398417 170.751651 
L 270.760755 170.623119 
L 271.123093 171.204737 
L 271.48543 169.869313 
L 271.847768 169.636724 
L 272.572443 170.828434 
L 272.934781 170.552112 
L 273.297119 170.519111 
L 273.659456 170.941655 
L 274.021794 169.718798 
L 274.384131 169.862972 
L 274.746469 170.788851 
L 275.108807 169.308966 
L 275.471144 168.405074 
L 275.833482 169.592541 
L 276.558157 168.929275 
L 276.920495 168.277422 
L 277.282833 168.303997 
L 277.64517 169.014105 
L 278.007508 169.461484 
L 278.732183 168.954341 
L 279.094521 167.445263 
L 279.456859 168.252356 
L 279.819196 168.568639 
L 280.181534 168.729843 
L 280.543872 169.043828 
L 280.906209 170.208008 
L 281.268547 169.180695 
L 281.630885 168.673338 
L 281.993222 168.707785 
L 282.35556 169.243154 
L 282.717898 169.377209 
L 283.080235 168.851158 
L 283.442573 166.81334 
L 283.804911 168.761281 
L 284.167248 168.000392 
L 284.529586 167.564612 
L 285.254261 168.156309 
L 285.616599 168.13164 
L 285.978937 168.675291 
L 286.341274 168.119421 
L 286.703612 168.305333 
L 287.06595 167.535693 
L 287.428287 169.078896 
L 287.790625 168.406488 
L 288.152963 169.281049 
L 288.5153 168.148249 
L 288.877638 168.593674 
L 289.239976 168.732842 
L 289.602313 168.470857 
L 289.964651 169.372396 
L 290.326989 169.29299 
L 291.051664 167.88763 
L 291.414002 167.936869 
L 291.776339 168.913264 
L 292.138677 167.685689 
L 292.863352 168.452807 
L 293.22569 168.225701 
L 293.588028 170.2633 
L 293.950365 169.857828 
L 294.312703 168.55073 
L 294.675041 168.94689 
L 295.399716 167.836903 
L 295.762054 168.529338 
L 296.124391 168.526433 
L 296.486729 168.242491 
L 296.849067 168.845629 
L 297.211404 168.793187 
L 297.573742 169.295145 
L 297.93608 168.568328 
L 298.298417 169.156795 
L 298.660755 168.842294 
L 299.023093 169.404308 
L 299.38543 168.600934 
L 299.747768 169.158425 
L 300.110106 169.261816 
L 300.472443 169.167373 
L 300.834781 168.318719 
L 301.197119 168.55359 
L 301.559456 169.043764 
L 301.921794 169.344485 
L 302.284131 168.986347 
L 302.646469 169.062865 
L 303.008807 167.845035 
L 303.371144 168.951697 
L 304.09582 166.987109 
L 304.820495 168.536455 
L 305.182833 167.813438 
L 306.269846 168.653876 
L 306.632183 169.890846 
L 306.994521 168.602198 
L 307.356859 168.122958 
L 307.719196 166.912785 
L 308.081534 168.156099 
L 308.443872 167.661884 
L 308.806209 169.488083 
L 309.168547 169.485607 
L 310.25556 168.073372 
L 310.617898 169.155096 
L 310.980235 167.873866 
L 311.342573 168.345896 
L 311.704911 168.076867 
L 312.067248 169.271937 
L 313.154261 165.679123 
L 314.241274 168.312368 
L 314.603612 167.853324 
L 314.96595 168.205852 
L 315.328287 167.419576 
L 315.690625 167.036538 
L 316.052963 168.70488 
L 316.777638 167.08679 
L 317.139976 166.654306 
L 317.502313 167.786472 
L 317.864651 167.416425 
L 318.226989 168.569706 
L 318.589326 168.490675 
L 318.951664 169.154549 
L 319.314002 167.278725 
L 319.676339 168.560299 
L 320.038677 168.787789 
L 320.401015 167.280913 
L 320.763352 167.403509 
L 321.12569 166.122042 
L 321.488028 167.890703 
L 321.850365 166.99708 
L 322.212703 168.252917 
L 322.575041 166.923159 
L 322.937378 167.016084 
L 323.299716 167.241264 
L 324.024391 167.045006 
L 324.386729 166.305466 
L 324.749067 165.975857 
L 325.111404 167.000925 
L 325.473742 166.83386 
L 325.83608 167.60513 
L 326.198417 167.629385 
L 326.560755 167.287727 
L 326.923093 167.104138 
L 327.28543 166.397981 
L 327.647768 167.148153 
L 328.010106 166.744054 
L 328.372443 165.842051 
L 328.734781 165.51877 
L 329.097119 166.309628 
L 329.459456 165.740703 
L 329.821794 166.816051 
L 330.546469 165.723097 
L 330.908807 166.108493 
L 331.633482 165.4902 
L 332.358157 166.795149 
L 332.720495 166.654096 
L 333.44517 167.621033 
L 333.807508 166.864147 
L 334.169846 167.267206 
L 334.532183 168.778092 
L 334.894521 169.05499 
L 335.256859 168.761897 
L 335.619196 168.71093 
L 335.981534 167.742667 
L 336.706209 169.264613 
L 337.068547 167.432988 
L 337.430885 168.344806 
L 337.793222 168.502555 
L 338.15556 169.430815 
L 338.517898 169.685325 
L 338.880235 168.870997 
L 339.242573 169.484155 
L 339.967248 169.27929 
L 340.329586 168.891965 
L 341.416599 170.281456 
L 341.778937 169.650673 
L 342.141274 169.556229 
L 342.503612 169.332334 
L 342.86595 169.753204 
L 343.228287 169.245746 
L 343.590625 169.301257 
L 343.952963 168.308343 
L 344.3153 168.719347 
L 344.677638 169.428888 
L 345.039976 170.479059 
L 345.402313 169.745954 
L 345.764651 170.42337 
L 346.489326 170.868408 
L 346.851664 170.270927 
L 347.214002 169.303986 
L 347.576339 170.119499 
L 347.938677 169.767772 
L 348.301015 169.857879 
L 348.663352 169.586723 
L 349.02569 169.716683 
L 349.388028 171.181534 
L 349.750365 170.772517 
L 350.112703 171.187108 
L 350.475041 170.514292 
L 350.837378 170.129486 
L 351.199716 170.984094 
L 351.562054 171.01828 
L 351.924391 171.330471 
L 352.286729 170.098185 
L 352.649067 171.20177 
L 353.011404 170.094581 
L 353.373742 170.641587 
L 353.73608 170.954885 
L 354.098417 170.937869 
L 354.460755 171.877335 
L 354.823093 171.940686 
L 355.18543 171.802314 
L 355.547768 170.553515 
L 355.910106 170.961193 
L 356.272443 170.871702 
L 356.634781 171.781641 
L 356.997119 171.652601 
L 357.721794 169.934908 
L 358.084131 169.855105 
L 358.446469 169.93931 
L 358.808807 170.289627 
L 359.171144 171.688032 
L 359.533482 171.08577 
L 359.89582 171.519824 
L 360.258157 171.452305 
L 360.620495 170.690751 
L 360.982833 170.4779 
L 361.34517 170.686815 
L 361.707508 171.598358 
L 362.069846 171.429171 
L 362.432183 170.468689 
L 362.794521 170.552143 
L 363.156859 171.170605 
L 363.519196 171.076991 
L 363.881534 170.857447 
L 364.243872 172.026858 
L 364.606209 171.897187 
L 364.968547 172.552691 
L 365.330885 172.187376 
L 365.693222 172.119924 
L 366.05556 172.812751 
L 366.417898 172.431816 
L 366.780235 171.504635 
L 367.142573 171.078927 
L 367.504911 172.052269 
L 367.867248 172.01934 
L 368.229586 171.139247 
L 368.591924 171.456836 
L 368.954261 172.361364 
L 369.316599 171.736331 
L 369.678937 172.752857 
L 370.041274 172.572182 
L 370.403612 171.777554 
L 370.76595 171.812087 
L 371.128287 172.632344 
L 371.490625 173.098525 
L 371.852963 172.871148 
L 372.2153 171.911924 
L 372.577638 172.195097 
L 372.939976 172.633227 
L 373.302313 172.795828 
L 373.664651 172.498574 
L 374.026989 172.657809 
L 374.389326 172.305638 
L 374.751664 173.087526 
L 375.114002 172.752212 
L 375.476339 171.853783 
L 375.838677 172.249377 
L 376.201015 173.237597 
L 376.563352 172.465509 
L 376.92569 172.943736 
L 377.288028 172.53879 
L 377.650365 172.308294 
L 378.012703 172.475761 
L 378.375041 172.805779 
L 378.737378 173.509988 
L 379.099716 173.535105 
L 379.462054 172.965856 
L 379.824391 173.195651 
L 380.186729 173.028642 
L 380.549067 173.17028 
L 380.911404 173.69358 
L 381.273742 173.695534 
L 381.63608 173.025585 
L 381.998417 173.163722 
L 382.360755 172.773572 
L 382.723093 172.143886 
L 383.08543 172.728104 
L 383.810106 173.301175 
L 384.172443 173.212307 
L 384.534781 173.473794 
L 384.897119 173.354617 
L 385.259456 172.340577 
L 386.346469 173.545899 
L 386.708807 173.717131 
L 388.158157 172.846439 
L 388.520495 172.830841 
L 389.24517 173.914986 
L 389.607508 173.328633 
L 389.969846 173.220606 
L 390.332183 172.633549 
L 391.056859 172.524903 
L 391.419196 172.899515 
L 391.781534 172.995464 
L 392.143872 173.52655 
L 392.506209 172.911105 
L 393.230885 173.067123 
L 393.593222 172.580127 
L 393.95556 173.506689 
L 394.317898 173.224257 
L 395.042573 173.550066 
L 395.404911 173.870253 
L 395.767248 173.463889 
L 396.129586 173.309775 
L 396.491924 174.370365 
L 396.854261 174.641543 
L 397.216599 173.336782 
L 397.578937 174.511969 
L 397.941274 174.789815 
L 398.303612 174.779389 
L 398.66595 174.237352 
L 399.028287 174.548939 
L 399.390625 174.300293 
L 399.752963 174.250603 
L 400.1153 174.571552 
L 400.477638 174.630708 
L 400.839976 174.100518 
L 401.202313 174.358606 
L 401.564651 173.547171 
L 402.651664 174.726061 
L 403.014002 174.763368 
L 403.376339 174.404266 
L 403.738677 173.868562 
L 404.101015 174.002336 
L 404.463352 174.499336 
L 404.82569 174.761793 
L 405.188028 174.237576 
L 405.550365 173.960542 
L 405.912703 174.456797 
L 406.275041 174.608312 
L 406.637378 173.651449 
L 406.999716 174.262652 
L 407.362054 173.571319 
L 407.724391 173.445559 
L 408.086729 174.284243 
L 408.449067 174.647367 
L 408.811404 174.143819 
L 409.173742 175.098752 
L 409.53608 174.592985 
L 409.898417 174.67441 
L 410.260755 173.986843 
L 410.623093 174.89315 
L 410.98543 175.040789 
L 411.347768 174.521271 
L 411.710106 174.31169 
L 412.072443 174.409975 
L 412.434781 174.844725 
L 412.797119 174.091942 
L 413.159456 174.054085 
L 413.521794 175.056739 
L 413.884131 175.179453 
L 414.246469 174.76291 
L 414.608807 175.188881 
L 414.971144 174.606071 
L 415.333482 174.643741 
L 415.69582 175.360247 
L 416.058157 174.345135 
L 416.420495 174.196209 
L 416.782833 174.545014 
L 417.14517 174.055634 
L 417.507508 174.603814 
L 417.869846 174.591183 
L 418.232183 174.85815 
L 418.594521 175.470077 
L 419.681534 174.592355 
L 420.043872 175.085638 
L 421.130885 175.479677 
L 421.85556 174.720709 
L 422.217898 175.256771 
L 422.580235 174.918766 
L 422.942573 175.417736 
L 423.304911 174.536108 
L 423.667248 174.684633 
L 424.029586 174.961427 
L 424.391924 174.675325 
L 424.754261 174.602429 
L 425.116599 174.976565 
L 425.478937 175.109405 
L 425.841274 175.082062 
L 426.203612 175.327841 
L 426.56595 175.332892 
L 426.928287 175.704394 
L 427.290625 175.749832 
L 427.652963 176.00514 
L 428.377638 175.331336 
L 428.739976 175.820725 
L 429.102313 175.670553 
L 429.464651 176.437552 
L 429.826989 176.022944 
L 430.189326 175.79007 
L 430.551664 175.892828 
L 430.914002 176.684125 
L 431.276339 176.529924 
L 431.638677 176.862434 
L 432.001015 176.827581 
L 432.72569 176.121104 
L 433.088028 176.371403 
L 433.450365 176.282667 
L 433.812703 176.55121 
L 434.175041 175.998972 
L 434.537378 176.438404 
L 434.899716 176.232709 
L 436.711404 176.191065 
L 437.43608 176.740455 
L 437.798417 176.851348 
L 438.160755 176.071476 
L 438.523093 176.531128 
L 438.88543 176.313304 
L 439.247768 176.241809 
L 439.610106 176.342322 
L 439.972443 176.154964 
L 440.334781 176.730567 
L 441.059456 176.218591 
L 441.421794 175.822586 
L 441.784131 176.737825 
L 442.508807 176.679438 
L 442.871144 176.37128 
L 443.233482 176.406383 
L 443.59582 176.716217 
L 443.958157 176.815412 
L 444.320495 177.092024 
L 444.682833 177.029247 
L 445.04517 176.541315 
L 445.407508 176.447746 
L 445.769846 177.045527 
L 446.494521 176.949279 
L 446.856859 177.623724 
L 447.219196 177.333461 
L 447.581534 177.417731 
L 447.943872 177.706311 
L 448.306209 177.852056 
L 448.668547 177.331983 
L 449.030885 177.404682 
L 449.393222 177.087448 
L 449.75556 177.158187 
L 450.117898 177.398378 
L 450.480235 177.790668 
L 450.842573 177.673758 
L 451.204911 177.360908 
L 451.567248 177.671818 
L 451.929586 177.4662 
L 452.291924 177.428796 
L 452.654261 177.569326 
L 453.016599 177.546279 
L 453.378937 177.915382 
L 453.741274 177.810681 
L 454.46595 178.110901 
L 454.828287 178.166555 
L 455.190625 178.094477 
L 455.552963 178.494665 
L 455.9153 178.181803 
L 456.277638 178.777438 
L 456.639976 178.034988 
L 457.364651 178.678885 
L 457.726989 178.273268 
L 458.089326 178.558078 
L 458.451664 178.645732 
L 458.814002 178.979903 
L 459.176339 178.604421 
L 459.538677 178.72779 
L 459.901015 179.086753 
L 460.263352 179.201082 
L 460.62569 179.159582 
L 460.988028 179.666424 
L 461.350365 178.766806 
L 462.437378 179.450476 
L 462.799716 178.899028 
L 463.162054 178.941914 
L 463.524391 178.499958 
L 463.886729 178.50986 
L 464.249067 178.949115 
L 465.33608 178.963947 
L 465.698417 179.468592 
L 466.060755 178.957596 
L 466.423093 179.146655 
L 466.78543 179.543453 
L 467.147768 179.427571 
L 467.510106 179.127683 
L 467.872443 179.518266 
L 468.234781 179.204089 
L 468.597119 179.222719 
L 468.959456 178.98623 
L 469.684131 179.874376 
L 470.046469 179.517771 
L 470.771144 179.686319 
L 471.133482 179.129207 
L 471.49582 179.487302 
L 471.858157 179.333922 
L 472.220495 179.358981 
L 472.582833 179.26307 
L 472.94517 179.425154 
L 473.307508 179.749735 
L 474.394521 179.776525 
L 475.119196 179.344682 
L 475.481534 179.001729 
L 475.843872 179.286516 
L 476.206209 179.275482 
L 476.568547 179.092813 
L 477.293222 179.884484 
L 477.65556 179.531372 
L 478.380235 179.715287 
L 478.742573 180.303038 
L 479.104911 179.626734 
L 479.467248 179.711593 
L 479.829586 180.147627 
L 480.191924 179.670431 
L 480.554261 179.744088 
L 480.916599 179.947498 
L 481.641274 179.938698 
L 482.003612 180.335198 
L 482.36595 179.565856 
L 482.728287 179.855395 
L 483.090625 179.740909 
L 484.177638 179.74427 
L 484.539976 179.931039 
L 484.902313 179.520946 
L 485.264651 180.09352 
L 485.626989 180.325481 
L 485.989326 180.140308 
L 486.351664 180.371481 
L 486.714002 179.869368 
L 487.076339 179.963973 
L 487.438677 179.778552 
L 487.801015 180.202878 
L 488.163352 179.514326 
L 488.52569 179.482513 
L 488.888028 180.026128 
L 489.250365 179.427368 
L 489.612703 180.162905 
L 489.975041 180.306756 
L 490.337378 180.214288 
L 490.699716 180.380419 
L 491.424391 180.086379 
L 491.786729 180.226138 
L 492.149067 180.13434 
L 492.511404 180.485126 
L 492.873742 179.700224 
L 493.23608 180.485923 
L 493.598417 180.18604 
L 493.960755 180.300664 
L 494.323093 179.763172 
L 494.68543 180.343231 
L 495.047768 180.165772 
L 495.410106 179.744616 
L 495.772443 179.91302 
L 496.134781 180.310773 
L 496.497119 180.22706 
L 496.859456 179.954252 
L 497.221794 180.26877 
L 498.308807 179.54126 
L 498.671144 180.330199 
L 499.033482 179.814204 
L 499.39582 180.189141 
L 499.758157 179.754376 
L 500.120495 179.853491 
L 500.482833 179.818375 
L 500.84517 180.340954 
L 501.207508 179.605927 
L 501.569846 179.87026 
L 502.656859 180.07964 
L 503.743872 179.896924 
L 504.106209 180.110488 
L 505.193222 179.963066 
L 505.55556 179.986136 
L 505.917898 179.786335 
L 506.280235 180.758785 
L 506.642573 180.032607 
L 507.004911 179.725176 
L 507.367248 180.118395 
L 508.091924 180.137444 
L 508.454261 179.824126 
L 508.816599 180.373565 
L 509.178937 180.011501 
L 509.541274 180.842442 
L 509.903612 180.21516 
L 510.26595 179.845933 
L 510.990625 180.704952 
L 511.352963 180.052903 
L 511.7153 180.440301 
L 512.077638 180.109915 
L 512.439976 180.557143 
L 512.802313 179.928409 
L 513.164651 180.445121 
L 513.526989 180.182771 
L 513.889326 180.431568 
L 514.251664 180.367132 
L 514.614002 179.936347 
L 514.976339 179.76118 
L 515.338677 180.23181 
L 515.701015 180.466946 
L 516.42569 180.41052 
L 516.788028 179.999994 
L 517.150365 180.530902 
L 517.512703 180.113117 
L 517.875041 179.963953 
L 518.962054 180.459806 
L 519.324391 180.126073 
L 519.686729 180.086951 
L 520.049067 180.429204 
L 520.411404 179.835401 
L 520.773742 179.932744 
L 521.13608 180.477864 
L 521.860755 180.413045 
L 522.223093 180.786465 
L 522.58543 180.680939 
L 522.947768 181.04021 
L 523.310106 180.618574 
L 523.672443 180.82221 
L 524.034781 181.161888 
L 524.397119 181.009758 
L 524.759456 180.357643 
L 525.121794 181.03261 
L 525.846469 180.65069 
L 526.571144 180.962039 
L 526.933482 180.873817 
L 527.29582 181.058111 
L 527.658157 180.777752 
L 528.020495 180.886168 
L 528.382833 180.622959 
L 528.74517 180.617082 
L 529.107508 180.960957 
L 529.469846 180.67538 
L 529.832183 180.828634 
L 530.194521 180.788095 
L 530.556859 181.055961 
L 530.919196 180.313954 
L 531.281534 180.775309 
L 531.643872 180.938638 
L 532.006209 180.542884 
L 532.730885 181.168604 
L 533.093222 179.688472 
L 533.45556 180.392513 
L 533.817898 178.640427 
L 534.180235 180.57413 
L 534.542573 180.541096 
L 535.629586 179.634978 
L 536.354261 180.678679 
L 536.716599 181.001879 
L 537.078937 179.692597 
L 537.441274 179.872039 
L 537.803612 179.911641 
L 538.16595 179.702042 
L 538.528287 179.916145 
L 538.890625 180.866377 
L 539.252963 181.119183 
L 539.6153 180.870432 
L 540.339976 181.317297 
L 541.064651 181.259107 
L 541.426989 181.713421 
L 541.789326 181.801746 
L 542.151664 181.342694 
L 542.514002 181.740323 
L 542.876339 181.870945 
L 543.601015 181.379809 
L 543.963352 181.10921 
L 544.32569 181.578598 
L 544.688028 181.457262 
L 545.050365 181.756397 
L 545.412703 181.833844 
L 545.775041 181.452956 
L 546.137378 180.758443 
L 546.499716 181.092783 
L 546.862054 181.698405 
L 547.224391 181.772995 
L 547.586729 181.05467 
L 547.949067 181.089973 
L 548.311404 181.50234 
L 548.673742 181.66487 
L 549.03608 181.35546 
L 549.398417 181.225757 
L 549.760755 181.543379 
L 550.847768 181.080672 
L 551.572443 181.726543 
L 551.934781 181.237467 
L 552.297119 181.032272 
L 552.659456 181.377015 
L 553.021794 181.301601 
L 553.384131 181.535514 
L 553.746469 181.258281 
L 554.108807 181.493265 
L 554.833482 181.256666 
L 555.19582 181.513799 
L 555.558157 181.435503 
L 555.920495 181.514314 
L 557.007508 181.189708 
L 557.369846 181.198173 
L 557.732183 180.7601 
L 558.456859 181.34693 
L 558.819196 181.245781 
L 559.181534 181.498462 
L 559.543872 181.550906 
L 560.268547 180.992424 
L 560.630885 181.268454 
L 561.35556 181.035894 
L 561.717898 180.820112 
L 562.080235 181.13928 
L 562.442573 181.229345 
L 562.804911 181.017003 
L 563.167248 180.951223 
L 563.529586 180.76528 
L 563.891924 180.995814 
L 564.254261 180.902129 
L 564.978937 181.354898 
L 566.06595 181.077253 
L 566.428287 181.562308 
L 566.790625 181.129142 
L 568.239976 181.024166 
L 568.602313 180.608327 
L 568.964651 180.84078 
L 569.326989 180.342192 
L 570.051664 180.471055 
L 570.414002 180.088666 
L 570.776339 180.506601 
L 571.501015 180.773344 
L 571.863352 180.569682 
L 572.22569 180.692288 
L 572.950365 180.742516 
L 573.312703 180.806807 
L 573.675041 180.719669 
L 574.037378 180.47129 
L 574.762054 181.015355 
L 575.124391 180.70871 
L 575.849067 180.550199 
L 576.573742 180.648926 
L 576.93608 180.427252 
L 578.023093 180.915069 
L 578.747768 180.821858 
L 579.110106 180.62099 
L 579.472443 181.404136 
L 579.834781 180.454013 
L 580.197119 180.56572 
L 580.559456 180.270258 
L 581.284131 180.815892 
L 581.646469 180.959847 
L 582.008807 180.681966 
L 582.371144 180.77097 
L 582.733482 180.436864 
L 583.458157 181.367257 
L 583.820495 181.425191 
L 584.182833 180.975402 
L 584.54517 181.394564 
L 584.907508 181.243575 
L 585.994521 181.439895 
L 587.081534 181.038546 
L 587.443872 181.078359 
L 587.806209 180.805165 
L 588.168547 181.109987 
L 588.530885 180.894622 
L 588.893222 180.885497 
L 589.25556 181.030231 
L 589.980235 180.582459 
L 590.342573 180.5819 
L 590.704911 181.301521 
L 591.791924 180.850515 
L 592.154261 180.596543 
L 592.516599 181.03422 
L 592.878937 180.387739 
L 593.241274 180.595513 
L 593.603612 180.992694 
L 593.96595 180.906266 
L 594.690625 180.964894 
L 595.052963 180.463233 
L 595.4153 180.413894 
L 595.777638 180.688925 
L 596.139976 180.572082 
L 596.864651 180.593941 
L 597.226989 180.817773 
L 597.589326 180.273597 
L 598.314002 180.300158 
L 598.676339 180.730083 
L 599.401015 181.065862 
L 599.763352 181.07676 
L 600.12569 180.729234 
L 600.488028 181.182576 
L 600.850365 181.067842 
L 601.212703 181.205744 
L 602.299716 180.753324 
L 603.024391 181.150151 
L 603.386729 180.58805 
L 603.749067 181.350497 
L 604.111404 180.81243 
L 604.473742 180.63374 
L 605.198417 181.003007 
L 605.560755 181.941892 
L 606.28543 181.543051 
L 606.647768 181.754085 
L 607.010106 181.610898 
L 607.372443 180.954346 
L 607.734781 181.59882 
L 608.097119 181.325681 
L 608.459456 181.27557 
L 608.821794 181.004722 
L 609.184131 181.055718 
L 609.546469 180.747448 
L 609.908807 181.066094 
L 610.271144 181.051048 
L 610.633482 181.267209 
L 611.358157 180.62789 
L 611.720495 181.382941 
L 612.082833 180.932179 
L 612.44517 180.82115 
L 613.169846 180.968331 
L 613.532183 180.532245 
L 613.894521 180.797535 
L 614.256859 180.77279 
L 614.619196 180.5937 
L 614.981534 180.66505 
L 615.343872 181.171911 
L 616.068547 180.830612 
L 616.430885 181.058228 
L 616.793222 180.702383 
L 617.15556 181.53683 
L 617.517898 180.985928 
L 617.880235 180.681202 
L 618.604911 180.754547 
L 618.967248 180.449857 
L 619.329586 180.816854 
L 619.691924 180.729683 
L 620.054261 181.090441 
L 620.416599 180.750473 
L 621.141274 180.964601 
L 621.503612 180.968534 
L 621.86595 181.427189 
L 622.228287 181.365353 
L 622.590625 181.070849 
L 622.952963 181.437569 
L 623.677638 181.191414 
L 624.402313 181.239322 
L 624.764651 181.198415 
L 625.126989 181.437139 
L 625.126989 181.437139 
" clip-path="url(#pe8ff59cc84)" style="fill: none; stroke: #1f77b4; stroke-width: 1.5; stroke-linecap: square"/>
   </g>
   <g id="line2d_15">
    <path d="M 117.854261 296.03625 
L 118.216599 293.670519 
L 118.578937 246.011862 
L 118.941274 269.986081 
L 119.303612 278.80496 
L 119.66595 248.797222 
L 120.028287 230.620247 
L 120.390625 249.231156 
L 120.752963 223.688053 
L 121.1153 220.004876 
L 121.477638 208.447941 
L 121.839976 211.42837 
L 122.202313 210.881812 
L 122.564651 207.172589 
L 122.926989 205.397716 
L 123.289326 204.796222 
L 123.651664 201.902029 
L 124.014002 204.825475 
L 124.376339 199.039532 
L 124.738677 198.542908 
L 125.101015 192.649877 
L 125.463352 193.698227 
L 125.82569 192.006893 
L 126.188028 194.531603 
L 126.550365 193.321072 
L 126.912703 195.950344 
L 127.275041 197.127018 
L 127.637378 197.851664 
L 127.999716 197.33166 
L 128.362054 192.321801 
L 128.724391 190.967719 
L 129.086729 193.33488 
L 129.449067 192.207896 
L 130.173742 192.261632 
L 130.53608 189.654198 
L 131.260755 191.107552 
L 132.347768 192.268471 
L 132.710106 189.139459 
L 133.072443 187.000513 
L 133.434781 188.560084 
L 133.797119 190.703189 
L 134.159456 191.730823 
L 134.521794 190.152641 
L 134.884131 189.313256 
L 135.246469 190.141136 
L 135.608807 189.859756 
L 135.971144 189.199789 
L 136.333482 188.181538 
L 136.69582 189.724939 
L 137.058157 185.408925 
L 137.420495 186.78425 
L 137.782833 189.527407 
L 138.14517 190.100574 
L 138.507508 186.043988 
L 138.869846 188.646009 
L 139.232183 187.302461 
L 139.594521 187.322897 
L 139.956859 188.79512 
L 140.319196 187.482793 
L 140.681534 184.947255 
L 141.043872 187.693612 
L 141.406209 186.691977 
L 141.768547 188.118964 
L 142.130885 188.999593 
L 142.85556 186.831658 
L 143.217898 188.620825 
L 143.580235 188.360617 
L 143.942573 188.945293 
L 144.304911 187.132025 
L 144.667248 186.201876 
L 145.029586 188.283568 
L 145.754261 187.196792 
L 146.116599 186.938449 
L 146.478937 187.869209 
L 146.841274 189.448849 
L 147.203612 186.718774 
L 147.56595 187.926137 
L 147.928287 188.029027 
L 148.290625 190.577963 
L 148.652963 188.203017 
L 149.0153 187.138785 
L 149.377638 187.142223 
L 149.739976 186.650825 
L 150.102313 187.646986 
L 150.464651 189.119807 
L 150.826989 187.357287 
L 151.551664 186.780915 
L 152.276339 187.368904 
L 153.001015 186.468459 
L 153.363352 186.8359 
L 153.72569 186.971379 
L 154.088028 186.899701 
L 154.450365 185.093429 
L 155.175041 187.794619 
L 155.537378 185.873828 
L 155.899716 187.042895 
L 156.262054 187.159686 
L 156.624391 186.253183 
L 156.986729 188.14548 
L 157.349067 186.173962 
L 157.711404 185.537409 
L 158.073742 184.507913 
L 158.43608 185.289264 
L 158.798417 185.491353 
L 159.523093 185.50605 
L 159.88543 186.706911 
L 160.972443 186.282175 
L 161.334781 187.690941 
L 161.697119 187.862135 
L 162.059456 187.247781 
L 162.421794 187.676233 
L 162.784131 187.559511 
L 163.146469 186.670892 
L 163.508807 186.806549 
L 163.871144 187.357622 
L 164.233482 185.867307 
L 164.59582 187.427715 
L 164.958157 187.569171 
L 165.320495 186.07568 
L 165.682833 187.16852 
L 166.04517 186.5731 
L 166.769846 187.488045 
L 167.132183 188.414262 
L 167.494521 186.39198 
L 167.856859 186.976814 
L 168.219196 187.007496 
L 168.581534 187.455282 
L 168.943872 187.062753 
L 169.306209 187.688059 
L 169.668547 188.913983 
L 170.030885 187.573495 
L 170.75556 187.191744 
L 171.117898 188.389262 
L 171.480235 187.798525 
L 171.842573 188.176457 
L 172.204911 187.385669 
L 172.567248 187.75249 
L 172.929586 188.699782 
L 173.291924 187.992732 
L 174.016599 187.416289 
L 174.378937 187.418395 
L 174.741274 188.303428 
L 175.103612 188.623496 
L 175.46595 187.288899 
L 175.828287 187.427393 
L 176.190625 186.829265 
L 177.277638 187.035494 
L 177.639976 187.28354 
L 178.002313 186.891307 
L 178.364651 186.72 
L 178.726989 188.287451 
L 179.089326 187.859376 
L 179.451664 187.743438 
L 179.814002 188.356273 
L 180.176339 188.02346 
L 180.538677 188.876462 
L 180.901015 188.073269 
L 181.263352 188.013018 
L 181.62569 188.164853 
L 182.350365 188.680438 
L 182.712703 188.271192 
L 183.075041 187.5247 
L 183.437378 188.341547 
L 183.799716 188.324353 
L 184.162054 189.009177 
L 184.524391 188.05667 
L 184.886729 188.160156 
L 185.611404 187.39402 
L 185.973742 188.24029 
L 186.33608 188.117727 
L 186.698417 188.362317 
L 187.423093 187.579802 
L 187.78543 188.523492 
L 188.147768 187.779426 
L 188.510106 188.004608 
L 188.872443 188.050907 
L 189.234781 187.705057 
L 189.959456 188.714194 
L 190.321794 188.091426 
L 191.046469 188.372829 
L 191.408807 187.862224 
L 192.133482 189.328308 
L 192.49582 188.385363 
L 192.858157 188.20942 
L 193.220495 187.831949 
L 193.582833 189.396933 
L 193.94517 188.005285 
L 194.307508 188.784901 
L 194.669846 187.040929 
L 195.032183 188.521028 
L 195.394521 188.971472 
L 195.756859 189.738808 
L 196.119196 189.229262 
L 196.481534 189.357389 
L 196.843872 188.446275 
L 197.206209 187.861986 
L 197.568547 189.002622 
L 197.930885 188.464863 
L 198.293222 188.759545 
L 198.65556 188.493274 
L 199.380235 187.552388 
L 199.742573 188.515434 
L 200.104911 187.482559 
L 200.467248 188.208671 
L 200.829586 188.294128 
L 201.191924 188.216891 
L 201.554261 187.922589 
L 201.916599 188.012822 
L 202.278937 187.853364 
L 202.641274 187.512304 
L 203.36595 188.52519 
L 203.728287 188.286137 
L 204.090625 188.223808 
L 204.452963 188.930585 
L 204.8153 188.287846 
L 205.177638 187.929877 
L 205.539976 188.750086 
L 205.902313 188.931987 
L 206.264651 188.828422 
L 206.626989 187.992121 
L 207.351664 188.912342 
L 208.076339 188.581938 
L 208.438677 188.857937 
L 208.801015 188.733222 
L 209.163352 188.460897 
L 209.888028 189.477394 
L 210.250365 189.028242 
L 210.612703 189.131799 
L 210.975041 188.861658 
L 211.337378 189.526858 
L 211.699716 189.535713 
L 212.424391 188.843236 
L 212.786729 188.902469 
L 213.149067 188.297058 
L 213.511404 189.54924 
L 213.873742 188.985136 
L 214.960755 189.774629 
L 215.323093 189.788429 
L 216.047768 189.519565 
L 216.410106 190.233118 
L 216.772443 189.702311 
L 217.134781 189.514199 
L 217.497119 190.08353 
L 217.859456 190.008336 
L 218.221794 189.565447 
L 218.584131 189.583096 
L 218.946469 190.037254 
L 219.308807 189.91953 
L 220.033482 190.246258 
L 220.39582 188.569576 
L 221.120495 189.990945 
L 221.482833 189.358044 
L 221.84517 189.515732 
L 222.207508 190.11674 
L 222.569846 190.121262 
L 222.932183 190.574514 
L 223.294521 190.013054 
L 224.019196 190.082704 
L 224.743872 189.159987 
L 225.106209 189.122912 
L 225.468547 190.043139 
L 225.830885 189.066995 
L 226.193222 189.494748 
L 226.55556 189.70741 
L 226.917898 189.284489 
L 227.280235 188.605509 
L 227.642573 188.988014 
L 228.004911 188.617698 
L 228.367248 189.643596 
L 228.729586 189.470632 
L 229.091924 188.767958 
L 229.816599 188.195484 
L 230.178937 189.182142 
L 230.541274 189.285755 
L 230.903612 188.604241 
L 231.26595 188.630051 
L 231.990625 189.001234 
L 232.352963 188.555197 
L 232.7153 188.711234 
L 233.077638 188.331132 
L 233.439976 188.216426 
L 233.802313 188.946966 
L 234.164651 188.868593 
L 234.526989 186.61303 
L 234.889326 187.3314 
L 235.251664 187.278921 
L 235.614002 188.626443 
L 235.976339 188.356777 
L 236.338677 188.236927 
L 236.701015 189.014136 
L 237.063352 188.35781 
L 237.42569 188.732627 
L 237.788028 188.594183 
L 238.512703 187.977919 
L 238.875041 188.852699 
L 239.237378 188.838792 
L 239.599716 188.572765 
L 239.962054 187.58102 
L 240.324391 188.035673 
L 240.686729 188.068834 
L 241.049067 188.700876 
L 241.411404 188.052588 
L 241.773742 188.169167 
L 242.13608 188.687222 
L 242.498417 187.943018 
L 242.860755 188.021358 
L 243.223093 188.77915 
L 243.58543 187.496709 
L 243.947768 188.089395 
L 244.310106 188.053076 
L 244.672443 188.150853 
L 245.759456 187.922646 
L 246.121794 186.703195 
L 246.484131 187.536367 
L 246.846469 188.008924 
L 247.571144 187.626979 
L 247.933482 187.479456 
L 248.29582 187.854597 
L 248.658157 188.015779 
L 249.382833 187.371093 
L 250.107508 187.613359 
L 250.469846 187.426125 
L 250.832183 187.772992 
L 251.919196 187.031821 
L 252.281534 187.559654 
L 252.643872 187.190519 
L 253.006209 187.5633 
L 253.368547 187.427299 
L 253.730885 187.129459 
L 254.45556 187.940556 
L 254.817898 187.680124 
L 255.180235 187.68277 
L 255.542573 187.422893 
L 255.904911 187.429192 
L 256.267248 187.247293 
L 256.629586 187.229189 
L 256.991924 187.632436 
L 257.354261 187.059433 
L 257.716599 186.9121 
L 258.078937 187.470026 
L 258.441274 186.911189 
L 258.803612 186.861304 
L 259.528287 188.172784 
L 259.890625 188.13753 
L 260.252963 186.583549 
L 260.977638 187.521703 
L 261.339976 186.950001 
L 261.702313 187.320842 
L 262.064651 187.351116 
L 262.426989 187.18988 
L 262.789326 187.486731 
L 263.151664 187.064197 
L 263.514002 188.068991 
L 263.876339 187.438666 
L 264.238677 187.525588 
L 264.601015 187.213787 
L 264.963352 187.064928 
L 265.32569 187.534254 
L 265.688028 186.999843 
L 266.050365 186.926129 
L 266.775041 187.337595 
L 267.137378 187.268334 
L 267.499716 187.325297 
L 268.224391 188.006475 
L 268.586729 187.257402 
L 268.949067 187.061195 
L 269.311404 187.293884 
L 269.673742 187.793211 
L 270.03608 187.372868 
L 270.398417 187.207817 
L 270.760755 187.337196 
L 271.123093 187.697688 
L 271.48543 187.695944 
L 272.210106 187.27155 
L 272.572443 187.498069 
L 272.934781 186.499071 
L 273.297119 187.45085 
L 273.659456 187.487471 
L 274.384131 187.079629 
L 274.746469 187.896338 
L 275.108807 188.090981 
L 275.471144 187.424129 
L 275.833482 187.19887 
L 276.19582 187.659776 
L 276.558157 187.411044 
L 276.920495 188.069676 
L 277.64517 187.84988 
L 278.007508 187.070756 
L 278.369846 187.950427 
L 279.094521 187.633012 
L 279.456859 188.045176 
L 279.819196 187.762842 
L 280.181534 188.078089 
L 280.543872 187.860503 
L 280.906209 187.220608 
L 281.268547 187.392386 
L 281.993222 187.36011 
L 282.35556 187.501666 
L 282.717898 187.962535 
L 283.080235 188.130643 
L 283.442573 187.961241 
L 283.804911 188.060456 
L 284.167248 187.395321 
L 284.529586 188.152944 
L 285.254261 187.777553 
L 285.616599 188.221934 
L 285.978937 188.327467 
L 286.341274 187.334414 
L 286.703612 187.575282 
L 287.06595 187.386209 
L 287.428287 187.621626 
L 288.152963 187.691807 
L 288.5153 187.598309 
L 288.877638 187.866171 
L 289.239976 188.502235 
L 289.602313 187.314569 
L 289.964651 187.493962 
L 290.326989 187.450727 
L 290.689326 187.814029 
L 291.051664 187.417195 
L 291.414002 187.974649 
L 292.138677 187.508638 
L 292.501015 187.346572 
L 292.863352 187.041069 
L 293.22569 187.641585 
L 293.588028 186.948475 
L 294.675041 187.407369 
L 295.037378 187.783451 
L 295.399716 186.782889 
L 295.762054 186.524814 
L 296.124391 187.174069 
L 296.486729 186.954514 
L 297.211404 187.170452 
L 297.573742 186.948924 
L 297.93608 187.357923 
L 298.298417 186.64722 
L 298.660755 186.591312 
L 299.023093 187.170567 
L 299.38543 186.922178 
L 299.747768 187.859855 
L 300.110106 187.608934 
L 300.472443 186.862467 
L 300.834781 187.229374 
L 301.197119 187.81697 
L 301.559456 187.636123 
L 301.921794 187.21291 
L 302.284131 187.445551 
L 302.646469 188.112018 
L 303.008807 187.574905 
L 303.371144 188.25343 
L 304.09582 187.376497 
L 304.458157 187.700975 
L 304.820495 187.308583 
L 305.54517 187.314403 
L 305.907508 186.835633 
L 306.269846 187.844397 
L 307.356859 187.208921 
L 307.719196 186.666028 
L 308.081534 187.334858 
L 308.443872 186.874302 
L 309.168547 187.869404 
L 309.530885 187.228491 
L 309.893222 187.823869 
L 310.25556 187.239268 
L 310.617898 187.020496 
L 310.980235 187.197063 
L 311.342573 187.932748 
L 311.704911 187.430735 
L 312.067248 187.394432 
L 312.429586 187.476013 
L 312.791924 187.297475 
L 313.154261 187.682553 
L 313.878937 187.372028 
L 314.241274 187.628201 
L 314.603612 186.783212 
L 314.96595 187.074856 
L 315.328287 186.839405 
L 315.690625 187.515935 
L 316.052963 187.763284 
L 316.4153 187.505691 
L 316.777638 186.969055 
L 317.139976 187.109494 
L 317.502313 187.535298 
L 317.864651 187.599074 
L 318.226989 187.05674 
L 318.589326 187.478947 
L 318.951664 186.890404 
L 319.314002 187.426476 
L 319.676339 186.929427 
L 320.401015 187.451987 
L 320.763352 187.646823 
L 321.12569 187.341754 
L 321.850365 187.365084 
L 322.212703 188.043789 
L 322.575041 187.491406 
L 322.937378 187.225406 
L 324.024391 187.781165 
L 324.386729 187.21531 
L 324.749067 187.431781 
L 325.111404 187.030991 
L 325.473742 187.667348 
L 325.83608 187.632509 
L 326.198417 187.483169 
L 326.560755 187.892397 
L 326.923093 188.030297 
L 327.28543 187.892854 
L 327.647768 187.209789 
L 328.010106 187.498252 
L 328.372443 187.144424 
L 328.734781 187.409736 
L 329.097119 187.265258 
L 329.459456 187.92355 
L 329.821794 187.202294 
L 330.184131 188.344075 
L 330.546469 187.628879 
L 330.908807 187.287634 
L 331.271144 187.250385 
L 331.633482 187.988552 
L 331.99582 187.071004 
L 332.358157 187.082474 
L 332.720495 187.294689 
L 333.082833 187.221526 
L 333.44517 187.028633 
L 333.807508 185.158508 
L 334.169846 184.299615 
L 334.532183 184.500074 
L 334.894521 185.277536 
L 335.619196 185.268716 
L 335.981534 185.015152 
L 336.343872 185.796076 
L 336.706209 185.957616 
L 337.068547 185.848003 
L 337.793222 185.892563 
L 338.517898 185.735179 
L 338.880235 186.276245 
L 339.242573 185.92426 
L 339.604911 186.247262 
L 339.967248 186.411477 
L 340.329586 185.734071 
L 340.691924 185.479624 
L 341.054261 185.718253 
L 341.416599 185.690473 
L 341.778937 186.112403 
L 342.141274 186.273486 
L 342.503612 186.295534 
L 342.86595 185.989211 
L 343.228287 186.997044 
L 343.952963 186.170765 
L 344.3153 185.977352 
L 345.039976 186.875185 
L 345.402313 185.986072 
L 345.764651 185.923514 
L 346.126989 186.399051 
L 346.489326 186.190623 
L 346.851664 186.267194 
L 347.214002 186.775894 
L 347.576339 186.365425 
L 347.938677 186.908483 
L 348.301015 186.091172 
L 348.663352 185.744954 
L 349.02569 186.419137 
L 349.388028 186.485364 
L 349.750365 186.161955 
L 350.112703 186.35255 
L 351.562054 186.435734 
L 351.924391 186.270934 
L 352.286729 186.280163 
L 352.649067 186.571571 
L 353.011404 186.277754 
L 353.373742 186.138949 
L 353.73608 186.467975 
L 354.098417 186.182124 
L 354.460755 186.297055 
L 355.18543 186.071706 
L 355.547768 185.619711 
L 355.910106 186.231998 
L 356.272443 186.019974 
L 356.634781 186.273818 
L 357.721794 186.389846 
L 358.084131 186.049325 
L 358.446469 186.585675 
L 358.808807 185.907984 
L 359.171144 185.839286 
L 359.89582 185.906247 
L 360.258157 186.203396 
L 360.620495 186.185789 
L 361.707508 186.534952 
L 362.069846 186.425753 
L 362.432183 187.20929 
L 362.794521 186.719798 
L 363.156859 186.52465 
L 363.519196 186.153964 
L 363.881534 186.784297 
L 364.243872 186.40804 
L 364.968547 186.201713 
L 365.330885 186.48308 
L 366.780235 186.353096 
L 367.504911 186.642501 
L 367.867248 186.526376 
L 368.229586 185.881085 
L 368.591924 185.85757 
L 369.316599 186.964825 
L 369.678937 187.053255 
L 370.041274 186.680356 
L 370.403612 186.720612 
L 370.76595 186.554846 
L 371.128287 186.154126 
L 371.852963 186.243824 
L 372.2153 186.221894 
L 372.577638 185.734358 
L 372.939976 186.339099 
L 373.302313 186.253976 
L 373.664651 186.357352 
L 374.026989 186.635677 
L 374.389326 186.454912 
L 374.751664 186.401728 
L 375.114002 186.75468 
L 375.476339 186.846287 
L 375.838677 186.299263 
L 376.201015 186.117263 
L 376.563352 186.345605 
L 376.92569 186.360191 
L 377.288028 186.623006 
L 377.650365 186.388703 
L 378.012703 186.617551 
L 378.375041 186.09062 
L 378.737378 186.586596 
L 379.099716 186.190007 
L 379.462054 186.660059 
L 379.824391 186.198314 
L 380.186729 186.091641 
L 380.911404 185.492679 
L 381.273742 185.887332 
L 381.998417 186.26005 
L 382.723093 185.864112 
L 383.08543 186.417145 
L 383.447768 186.632897 
L 383.810106 185.933708 
L 384.172443 186.047637 
L 384.534781 186.288551 
L 384.897119 185.935597 
L 385.259456 186.265923 
L 385.621794 185.779064 
L 385.984131 186.225575 
L 386.346469 186.262343 
L 386.708807 186.175022 
L 387.433482 186.227135 
L 387.79582 186.45161 
L 388.158157 185.973284 
L 388.520495 186.244271 
L 388.882833 186.168642 
L 389.24517 185.807737 
L 389.607508 185.955103 
L 389.969846 185.719193 
L 390.332183 185.649423 
L 390.694521 185.813152 
L 391.056859 185.62288 
L 391.419196 185.698558 
L 391.781534 186.135217 
L 392.143872 186.148878 
L 392.506209 185.919774 
L 392.868547 186.061994 
L 393.230885 185.963711 
L 393.593222 186.235315 
L 395.042573 185.818094 
L 395.404911 185.097689 
L 395.767248 185.180212 
L 396.129586 185.592678 
L 396.491924 185.437189 
L 396.854261 185.40739 
L 397.216599 185.814178 
L 397.578937 185.288091 
L 397.941274 185.297282 
L 398.303612 185.748318 
L 398.66595 186.011659 
L 399.028287 185.750687 
L 399.390625 185.921088 
L 400.1153 185.553697 
L 400.477638 185.815104 
L 400.839976 186.233264 
L 401.202313 186.316116 
L 401.564651 186.106491 
L 401.926989 186.302507 
L 402.651664 186.116011 
L 403.014002 186.737963 
L 403.376339 186.254033 
L 403.738677 186.364181 
L 404.101015 186.005004 
L 405.188028 185.818936 
L 405.550365 186.107107 
L 406.275041 186.203682 
L 406.637378 185.955973 
L 406.999716 186.32537 
L 407.362054 185.95286 
L 407.724391 186.028157 
L 408.086729 185.742714 
L 408.449067 185.72313 
L 408.811404 186.013151 
L 409.53608 185.709862 
L 410.260755 185.929628 
L 410.623093 185.404373 
L 410.98543 185.736935 
L 411.347768 186.478309 
L 411.710106 185.97255 
L 412.072443 186.223972 
L 412.434781 185.852485 
L 413.159456 186.277131 
L 413.521794 186.02464 
L 413.884131 186.005793 
L 414.246469 185.790291 
L 414.608807 185.379349 
L 414.971144 185.745231 
L 415.69582 185.577989 
L 416.058157 185.490213 
L 416.420495 185.71399 
L 416.782833 185.547125 
L 417.14517 186.376341 
L 417.507508 185.685145 
L 417.869846 185.437634 
L 418.232183 185.782203 
L 418.594521 185.450856 
L 418.956859 185.439633 
L 419.681534 185.955089 
L 420.043872 185.591906 
L 420.768547 185.952991 
L 421.130885 185.654438 
L 421.493222 185.861792 
L 421.85556 185.674963 
L 422.217898 185.971651 
L 422.580235 186.050419 
L 422.942573 185.671561 
L 423.304911 185.714797 
L 423.667248 185.910593 
L 424.029586 185.816853 
L 424.391924 185.941182 
L 424.754261 185.56361 
L 425.116599 185.856095 
L 425.478937 185.937247 
L 425.841274 185.525211 
L 426.56595 185.502809 
L 426.928287 185.799641 
L 427.290625 185.316523 
L 427.652963 185.723265 
L 428.0153 185.748763 
L 428.377638 185.469673 
L 428.739976 186.073279 
L 429.102313 185.85243 
L 429.464651 186.304317 
L 429.826989 185.806278 
L 430.189326 185.647092 
L 430.551664 185.774718 
L 430.914002 185.772281 
L 431.276339 185.331673 
L 431.638677 185.665762 
L 432.001015 185.342823 
L 433.088028 186.082109 
L 433.450365 186.089877 
L 433.812703 184.787684 
L 434.175041 185.59565 
L 434.899716 185.976348 
L 435.262054 185.979838 
L 435.624391 185.464481 
L 436.349067 185.766317 
L 436.711404 185.304157 
L 437.073742 185.241858 
L 437.43608 185.630348 
L 438.160755 185.863152 
L 438.523093 185.674776 
L 438.88543 185.842227 
L 439.247768 185.839063 
L 439.610106 185.343559 
L 440.334781 185.748516 
L 440.697119 185.667737 
L 441.059456 185.860776 
L 441.421794 185.722093 
L 441.784131 185.396313 
L 442.508807 185.501576 
L 442.871144 185.122117 
L 443.233482 185.89944 
L 443.59582 185.378716 
L 443.958157 185.717443 
L 444.320495 185.3795 
L 444.682833 185.614582 
L 445.407508 185.826792 
L 445.769846 185.921637 
L 446.494521 185.273631 
L 446.856859 185.393312 
L 447.219196 185.974657 
L 447.581534 184.983217 
L 448.306209 185.771134 
L 448.668547 185.812377 
L 449.030885 185.487687 
L 449.75556 185.658713 
L 450.117898 185.350863 
L 450.480235 185.208361 
L 450.842573 185.581589 
L 451.204911 185.215886 
L 451.567248 185.230168 
L 452.291924 184.996668 
L 453.016599 185.660728 
L 453.378937 185.400554 
L 453.741274 185.493324 
L 454.46595 185.242921 
L 454.828287 185.382258 
L 455.190625 185.666778 
L 455.9153 185.047268 
L 456.639976 185.643121 
L 457.002313 185.291113 
L 457.364651 185.600169 
L 457.726989 185.163958 
L 458.089326 185.262357 
L 458.451664 185.641168 
L 458.814002 185.21704 
L 459.176339 185.502371 
L 459.538677 185.237078 
L 459.901015 185.503319 
L 460.263352 184.951404 
L 460.62569 185.278299 
L 460.988028 185.06473 
L 461.350365 185.618755 
L 462.437378 184.901788 
L 462.799716 185.055061 
L 463.162054 185.341415 
L 463.524391 185.35212 
L 463.886729 185.230386 
L 464.249067 185.557566 
L 464.611404 185.138828 
L 465.33608 185.212811 
L 465.698417 185.110931 
L 466.060755 184.766846 
L 466.423093 185.098531 
L 466.78543 184.858957 
L 467.147768 185.366991 
L 467.510106 184.832966 
L 467.872443 185.304899 
L 468.234781 185.348768 
L 468.597119 185.019933 
L 468.959456 184.066157 
L 469.321794 184.953365 
L 469.684131 185.029033 
L 470.046469 184.580125 
L 470.771144 184.812666 
L 471.133482 185.011276 
L 471.49582 185.488328 
L 471.858157 184.839575 
L 472.220495 185.246628 
L 472.582833 185.46906 
L 473.307508 184.708155 
L 473.669846 184.612363 
L 474.032183 185.073962 
L 474.394521 185.00207 
L 474.756859 184.667401 
L 475.119196 185.660946 
L 475.481534 185.387543 
L 476.206209 184.554148 
L 477.293222 184.994997 
L 477.65556 184.615874 
L 478.380235 185.217749 
L 478.742573 184.890171 
L 479.104911 185.107049 
L 479.467248 184.634478 
L 480.916599 185.260286 
L 481.278937 184.963435 
L 481.641274 185.088686 
L 482.003612 184.95617 
L 482.36595 185.05309 
L 482.728287 185.289761 
L 483.090625 185.137012 
L 483.452963 185.338344 
L 484.177638 184.990153 
L 485.264651 185.089635 
L 485.626989 185.092262 
L 485.989326 184.908988 
L 486.351664 184.89784 
L 486.714002 185.154122 
L 487.076339 185.214908 
L 487.438677 185.076644 
L 487.801015 185.285548 
L 488.163352 185.064083 
L 488.52569 185.229144 
L 488.888028 184.883728 
L 489.250365 184.752453 
L 489.612703 185.124473 
L 489.975041 184.638999 
L 490.337378 184.873653 
L 490.699716 185.464575 
L 491.062054 185.312124 
L 491.786729 185.285787 
L 492.149067 185.473608 
L 492.511404 184.54076 
L 493.23608 185.16694 
L 493.598417 184.770681 
L 493.960755 184.939562 
L 494.323093 184.880314 
L 494.68543 185.155055 
L 495.047768 184.841595 
L 495.410106 185.55881 
L 495.772443 185.067812 
L 496.134781 184.951094 
L 496.497119 185.066114 
L 496.859456 184.687902 
L 497.221794 184.900511 
L 497.584131 184.912242 
L 497.946469 184.660179 
L 498.671144 184.620449 
L 499.033482 184.937311 
L 499.39582 184.615958 
L 499.758157 184.728864 
L 500.120495 184.961336 
L 500.84517 184.537369 
L 501.932183 184.902272 
L 502.294521 185.005211 
L 502.656859 184.782223 
L 503.019196 184.413976 
L 503.381534 184.733595 
L 504.106209 184.808739 
L 504.468547 185.145023 
L 504.830885 184.699711 
L 505.193222 184.865599 
L 505.55556 184.612051 
L 505.917898 185.049187 
L 506.642573 185.289952 
L 507.004911 184.809121 
L 507.367248 185.01908 
L 507.729586 184.829658 
L 508.091924 184.945658 
L 508.816599 184.921307 
L 509.178937 185.744583 
L 509.541274 185.289857 
L 510.628287 185.204668 
L 510.990625 185.02375 
L 511.352963 185.851191 
L 511.7153 185.202026 
L 512.077638 185.299428 
L 512.439976 185.258903 
L 512.802313 185.765713 
L 513.164651 185.017931 
L 513.526989 185.223402 
L 513.889326 184.843359 
L 514.251664 185.161111 
L 514.614002 184.758296 
L 514.976339 184.801805 
L 515.338677 185.203225 
L 515.701015 184.830448 
L 516.063352 185.276529 
L 516.42569 185.156063 
L 516.788028 185.401703 
L 517.150365 185.368559 
L 517.512703 185.039974 
L 517.875041 185.364377 
L 518.237378 185.372773 
L 518.599716 185.124982 
L 519.686729 185.338046 
L 520.049067 185.160352 
L 520.411404 185.622062 
L 520.773742 185.638071 
L 521.13608 184.985756 
L 521.498417 185.545884 
L 521.860755 185.73752 
L 522.223093 185.255421 
L 522.947768 185.100956 
L 523.310106 185.390662 
L 524.034781 185.383446 
L 524.397119 185.138582 
L 524.759456 185.081053 
L 525.121794 185.36929 
L 525.484131 185.155861 
L 525.846469 185.25123 
L 526.571144 184.964765 
L 526.933482 184.843631 
L 527.29582 185.11617 
L 527.658157 184.955133 
L 528.020495 185.018476 
L 528.382833 184.872595 
L 528.74517 185.073209 
L 529.107508 184.859193 
L 529.469846 185.007464 
L 529.832183 184.919116 
L 530.194521 185.160708 
L 530.919196 184.992052 
L 531.281534 185.448633 
L 531.643872 185.129941 
L 532.006209 185.317515 
L 532.368547 185.290708 
L 532.730885 184.780939 
L 533.093222 180.036991 
L 533.45556 182.56178 
L 533.817898 183.98074 
L 534.180235 183.608499 
L 534.542573 183.802444 
L 534.904911 182.828187 
L 535.267248 183.003421 
L 535.629586 182.664868 
L 535.991924 182.660828 
L 536.354261 182.797474 
L 537.078937 182.332724 
L 537.441274 182.871875 
L 537.803612 182.77053 
L 538.16595 182.828017 
L 538.528287 183.259699 
L 538.890625 183.433791 
L 539.252963 183.009316 
L 540.339976 183.394681 
L 540.702313 183.724366 
L 541.426989 183.204305 
L 541.789326 183.679701 
L 542.514002 183.20975 
L 542.876339 183.655039 
L 543.238677 183.597079 
L 543.601015 183.933037 
L 543.963352 183.533879 
L 544.32569 183.312294 
L 544.688028 183.714128 
L 545.050365 183.471159 
L 545.412703 183.50005 
L 545.775041 183.830161 
L 546.137378 184.314002 
L 546.499716 183.612529 
L 546.862054 183.560315 
L 547.586729 183.656162 
L 547.949067 183.468498 
L 548.311404 183.717202 
L 548.673742 184.223634 
L 549.03608 183.773258 
L 549.398417 183.63697 
L 550.123093 184.015264 
L 550.847768 183.788114 
L 551.210106 183.96905 
L 551.572443 183.494329 
L 551.934781 183.749704 
L 552.297119 183.728994 
L 552.659456 183.879491 
L 553.384131 183.43429 
L 554.108807 183.806607 
L 554.471144 183.222694 
L 554.833482 183.761326 
L 555.19582 183.553487 
L 555.558157 183.785491 
L 556.64517 183.709997 
L 557.007508 183.463813 
L 557.369846 183.723789 
L 557.732183 183.340668 
L 558.094521 183.923346 
L 558.456859 183.457319 
L 558.819196 183.66021 
L 559.543872 183.269472 
L 560.268547 183.691664 
L 560.630885 183.935596 
L 560.993222 183.566451 
L 561.717898 183.387112 
L 562.080235 183.70615 
L 562.442573 183.314692 
L 562.804911 183.848061 
L 563.167248 183.628863 
L 563.529586 183.181817 
L 563.891924 183.388481 
L 564.254261 183.744475 
L 564.616599 183.755057 
L 564.978937 183.646553 
L 565.703612 183.873659 
L 566.06595 183.949715 
L 566.428287 183.213537 
L 566.790625 183.281806 
L 567.152963 183.690155 
L 567.5153 183.578216 
L 567.877638 183.856638 
L 568.239976 183.406458 
L 568.602313 183.567542 
L 568.964651 184.027791 
L 569.326989 183.50691 
L 569.689326 183.562667 
L 570.051664 183.266677 
L 570.414002 183.180689 
L 570.776339 183.610598 
L 571.138677 183.30321 
L 571.501015 183.695 
L 571.863352 183.035239 
L 572.22569 183.881584 
L 572.588028 183.475687 
L 572.950365 183.371651 
L 573.675041 183.993367 
L 574.037378 183.741462 
L 574.399716 183.815634 
L 574.762054 183.339237 
L 575.486729 183.644082 
L 575.849067 183.348002 
L 576.211404 183.473453 
L 576.573742 184.147805 
L 576.93608 184.015953 
L 577.298417 183.542469 
L 577.660755 183.331938 
L 578.023093 183.69612 
L 578.38543 183.159634 
L 578.747768 183.464488 
L 579.472443 183.428491 
L 579.834781 183.274972 
L 580.197119 183.374157 
L 580.559456 183.116363 
L 580.921794 183.503453 
L 581.284131 183.699039 
L 581.646469 183.354238 
L 582.008807 183.542265 
L 582.371144 183.262553 
L 582.733482 183.595958 
L 583.09582 183.61165 
L 583.458157 183.447239 
L 583.820495 183.742063 
L 584.182833 183.720341 
L 584.54517 183.845882 
L 584.907508 183.254979 
L 585.994521 183.287191 
L 586.356859 183.187968 
L 586.719196 183.636825 
L 587.081534 183.267348 
L 587.443872 183.562088 
L 587.806209 183.502068 
L 588.168547 183.297027 
L 588.530885 183.322349 
L 588.893222 183.499291 
L 589.25556 183.551254 
L 589.980235 183.350554 
L 590.342573 183.603973 
L 590.704911 183.098763 
L 591.067248 183.042062 
L 591.791924 183.669447 
L 592.154261 183.466858 
L 592.516599 183.401992 
L 592.878937 184.102038 
L 593.241274 183.599398 
L 593.603612 183.645449 
L 593.96595 183.565669 
L 594.328287 183.804148 
L 595.4153 183.269829 
L 595.777638 183.606135 
L 596.139976 183.452829 
L 596.864651 183.393455 
L 597.226989 183.82691 
L 597.589326 183.346234 
L 597.951664 183.577972 
L 598.314002 183.587448 
L 598.676339 183.423884 
L 599.038677 183.627187 
L 599.401015 183.393281 
L 599.763352 183.65609 
L 600.12569 183.515589 
L 600.488028 183.626813 
L 600.850365 183.311961 
L 601.575041 183.426901 
L 601.937378 182.992038 
L 602.299716 183.071403 
L 602.662054 183.401835 
L 603.024391 183.497815 
L 603.386729 182.924655 
L 604.111404 183.498596 
L 605.198417 183.323552 
L 605.560755 183.129153 
L 605.923093 183.42482 
L 606.28543 183.361321 
L 606.647768 183.086464 
L 607.010106 183.136548 
L 607.372443 183.505101 
L 607.734781 183.340691 
L 608.097119 183.484262 
L 608.821794 183.184531 
L 609.908807 183.449026 
L 610.271144 183.20795 
L 610.633482 183.7038 
L 611.720495 183.531942 
L 612.082833 183.258673 
L 612.44517 183.441936 
L 612.807508 183.444441 
L 613.169846 183.565086 
L 613.532183 183.165658 
L 614.619196 183.152049 
L 615.343872 183.107586 
L 615.706209 183.384105 
L 616.068547 182.973842 
L 616.430885 183.473798 
L 616.793222 183.76319 
L 617.15556 183.343807 
L 618.967248 183.465705 
L 619.329586 183.712417 
L 619.691924 183.657732 
L 620.416599 182.70531 
L 621.141274 182.429954 
L 621.503612 182.483317 
L 622.228287 183.320078 
L 624.039976 183.022061 
L 624.402313 183.386519 
L 625.126989 183.217535 
L 625.126989 183.217535 
" clip-path="url(#pe8ff59cc84)" style="fill: none; stroke: #ff7f0e; stroke-width: 1.5; stroke-linecap: square"/>
   </g>
   <g id="patch_3">
    <path d="M 92.490625 308.63625 
L 92.490625 31.43625 
" style="fill: none; stroke: #000000; stroke-width: 0.8; stroke-linejoin: miter; stroke-linecap: square"/>
   </g>
   <g id="patch_4">
    <path d="M 650.490625 308.63625 
L 650.490625 31.43625 
" style="fill: none; stroke: #000000; stroke-width: 0.8; stroke-linejoin: miter; stroke-linecap: square"/>
   </g>
   <g id="patch_5">
    <path d="M 92.490625 308.63625 
L 650.490625 308.63625 
" style="fill: none; stroke: #000000; stroke-width: 0.8; stroke-linejoin: miter; stroke-linecap: square"/>
   </g>
   <g id="patch_6">
    <path d="M 92.490625 31.43625 
L 650.490625 31.43625 
" style="fill: none; stroke: #000000; stroke-width: 0.8; stroke-linejoin: miter; stroke-linecap: square"/>
   </g>
   <g id="text_16">
    <!-- Generator and Discriminator Loss During Training -->
    <g transform="translate(74.258125 25.43625) scale(0.24 -0.24)">
     <defs>
      <path id="DejaVuSans-47" d="M 3809 666 
L 3809 1919 
L 2778 1919 
L 2778 2438 
L 4434 2438 
L 4434 434 
Q 4069 175 3628 42 
Q 3188 -91 2688 -91 
Q 1594 -91 976 548 
Q 359 1188 359 2328 
Q 359 3472 976 4111 
Q 1594 4750 2688 4750 
Q 3144 4750 3555 4637 
Q 3966 4525 4313 4306 
L 4313 3634 
Q 3963 3931 3569 4081 
Q 3175 4231 2741 4231 
Q 1884 4231 1454 3753 
Q 1025 3275 1025 2328 
Q 1025 1384 1454 906 
Q 1884 428 2741 428 
Q 3075 428 3337 486 
Q 3600 544 3809 666 
z
" transform="scale(0.015625)"/>
      <path id="DejaVuSans-20" transform="scale(0.015625)"/>
      <path id="DejaVuSans-64" d="M 2906 2969 
L 2906 4863 
L 3481 4863 
L 3481 0 
L 2906 0 
L 2906 525 
Q 2725 213 2448 61 
Q 2172 -91 1784 -91 
Q 1150 -91 751 415 
Q 353 922 353 1747 
Q 353 2572 751 3078 
Q 1150 3584 1784 3584 
Q 2172 3584 2448 3432 
Q 2725 3281 2906 2969 
z
M 947 1747 
Q 947 1113 1208 752 
Q 1469 391 1925 391 
Q 2381 391 2643 752 
Q 2906 1113 2906 1747 
Q 2906 2381 2643 2742 
Q 2381 3103 1925 3103 
Q 1469 3103 1208 2742 
Q 947 2381 947 1747 
z
" transform="scale(0.015625)"/>
      <path id="DejaVuSans-44" d="M 1259 4147 
L 1259 519 
L 2022 519 
Q 2988 519 3436 956 
Q 3884 1394 3884 2338 
Q 3884 3275 3436 3711 
Q 2988 4147 2022 4147 
L 1259 4147 
z
M 628 4666 
L 1925 4666 
Q 3281 4666 3915 4102 
Q 4550 3538 4550 2338 
Q 4550 1131 3912 565 
Q 3275 0 1925 0 
L 628 0 
L 628 4666 
z
" transform="scale(0.015625)"/>
      <path id="DejaVuSans-63" d="M 3122 3366 
L 3122 2828 
Q 2878 2963 2633 3030 
Q 2388 3097 2138 3097 
Q 1578 3097 1268 2742 
Q 959 2388 959 1747 
Q 959 1106 1268 751 
Q 1578 397 2138 397 
Q 2388 397 2633 464 
Q 2878 531 3122 666 
L 3122 134 
Q 2881 22 2623 -34 
Q 2366 -91 2075 -91 
Q 1284 -91 818 406 
Q 353 903 353 1747 
Q 353 2603 823 3093 
Q 1294 3584 2113 3584 
Q 2378 3584 2631 3529 
Q 2884 3475 3122 3366 
z
" transform="scale(0.015625)"/>
      <path id="DejaVuSans-6d" d="M 3328 2828 
Q 3544 3216 3844 3400 
Q 4144 3584 4550 3584 
Q 5097 3584 5394 3201 
Q 5691 2819 5691 2113 
L 5691 0 
L 5113 0 
L 5113 2094 
Q 5113 2597 4934 2840 
Q 4756 3084 4391 3084 
Q 3944 3084 3684 2787 
Q 3425 2491 3425 1978 
L 3425 0 
L 2847 0 
L 2847 2094 
Q 2847 2600 2669 2842 
Q 2491 3084 2119 3084 
Q 1678 3084 1418 2786 
Q 1159 2488 1159 1978 
L 1159 0 
L 581 0 
L 581 3500 
L 1159 3500 
L 1159 2956 
Q 1356 3278 1631 3431 
Q 1906 3584 2284 3584 
Q 2666 3584 2933 3390 
Q 3200 3197 3328 2828 
z
" transform="scale(0.015625)"/>
      <path id="DejaVuSans-75" d="M 544 1381 
L 544 3500 
L 1119 3500 
L 1119 1403 
Q 1119 906 1312 657 
Q 1506 409 1894 409 
Q 2359 409 2629 706 
Q 2900 1003 2900 1516 
L 2900 3500 
L 3475 3500 
L 3475 0 
L 2900 0 
L 2900 538 
Q 2691 219 2414 64 
Q 2138 -91 1772 -91 
Q 1169 -91 856 284 
Q 544 659 544 1381 
z
M 1991 3584 
L 1991 3584 
z
" transform="scale(0.015625)"/>
      <path id="DejaVuSans-67" d="M 2906 1791 
Q 2906 2416 2648 2759 
Q 2391 3103 1925 3103 
Q 1463 3103 1205 2759 
Q 947 2416 947 1791 
Q 947 1169 1205 825 
Q 1463 481 1925 481 
Q 2391 481 2648 825 
Q 2906 1169 2906 1791 
z
M 3481 434 
Q 3481 -459 3084 -895 
Q 2688 -1331 1869 -1331 
Q 1566 -1331 1297 -1286 
Q 1028 -1241 775 -1147 
L 775 -588 
Q 1028 -725 1275 -790 
Q 1522 -856 1778 -856 
Q 2344 -856 2625 -561 
Q 2906 -266 2906 331 
L 2906 616 
Q 2728 306 2450 153 
Q 2172 0 1784 0 
Q 1141 0 747 490 
Q 353 981 353 1791 
Q 353 2603 747 3093 
Q 1141 3584 1784 3584 
Q 2172 3584 2450 3431 
Q 2728 3278 2906 2969 
L 2906 3500 
L 3481 3500 
L 3481 434 
z
" transform="scale(0.015625)"/>
      <path id="DejaVuSans-54" d="M -19 4666 
L 3928 4666 
L 3928 4134 
L 2272 4134 
L 2272 0 
L 1638 0 
L 1638 4134 
L -19 4134 
L -19 4666 
z
" transform="scale(0.015625)"/>
     </defs>
     <use xlink:href="#DejaVuSans-47"/>
     <use xlink:href="#DejaVuSans-65" x="77.490234"/>
     <use xlink:href="#DejaVuSans-6e" x="139.013672"/>
     <use xlink:href="#DejaVuSans-65" x="202.392578"/>
     <use xlink:href="#DejaVuSans-72" x="263.916016"/>
     <use xlink:href="#DejaVuSans-61" x="305.029297"/>
     <use xlink:href="#DejaVuSans-74" x="366.308594"/>
     <use xlink:href="#DejaVuSans-6f" x="405.517578"/>
     <use xlink:href="#DejaVuSans-72" x="466.699219"/>
     <use xlink:href="#DejaVuSans-20" x="507.8125"/>
     <use xlink:href="#DejaVuSans-61" x="539.599609"/>
     <use xlink:href="#DejaVuSans-6e" x="600.878906"/>
     <use xlink:href="#DejaVuSans-64" x="664.257812"/>
     <use xlink:href="#DejaVuSans-20" x="727.734375"/>
     <use xlink:href="#DejaVuSans-44" x="759.521484"/>
     <use xlink:href="#DejaVuSans-69" x="836.523438"/>
     <use xlink:href="#DejaVuSans-73" x="864.306641"/>
     <use xlink:href="#DejaVuSans-63" x="916.40625"/>
     <use xlink:href="#DejaVuSans-72" x="971.386719"/>
     <use xlink:href="#DejaVuSans-69" x="1012.5"/>
     <use xlink:href="#DejaVuSans-6d" x="1040.283203"/>
     <use xlink:href="#DejaVuSans-69" x="1137.695312"/>
     <use xlink:href="#DejaVuSans-6e" x="1165.478516"/>
     <use xlink:href="#DejaVuSans-61" x="1228.857422"/>
     <use xlink:href="#DejaVuSans-74" x="1290.136719"/>
     <use xlink:href="#DejaVuSans-6f" x="1329.345703"/>
     <use xlink:href="#DejaVuSans-72" x="1390.527344"/>
     <use xlink:href="#DejaVuSans-20" x="1431.640625"/>
     <use xlink:href="#DejaVuSans-4c" x="1463.427734"/>
     <use xlink:href="#DejaVuSans-6f" x="1517.390625"/>
     <use xlink:href="#DejaVuSans-73" x="1578.572266"/>
     <use xlink:href="#DejaVuSans-73" x="1630.671875"/>
     <use xlink:href="#DejaVuSans-20" x="1682.771484"/>
     <use xlink:href="#DejaVuSans-44" x="1714.558594"/>
     <use xlink:href="#DejaVuSans-75" x="1791.560547"/>
     <use xlink:href="#DejaVuSans-72" x="1854.939453"/>
     <use xlink:href="#DejaVuSans-69" x="1896.052734"/>
     <use xlink:href="#DejaVuSans-6e" x="1923.835938"/>
     <use xlink:href="#DejaVuSans-67" x="1987.214844"/>
     <use xlink:href="#DejaVuSans-20" x="2050.691406"/>
     <use xlink:href="#DejaVuSans-54" x="2082.478516"/>
     <use xlink:href="#DejaVuSans-72" x="2128.8125"/>
     <use xlink:href="#DejaVuSans-61" x="2169.925781"/>
     <use xlink:href="#DejaVuSans-69" x="2231.205078"/>
     <use xlink:href="#DejaVuSans-6e" x="2258.988281"/>
     <use xlink:href="#DejaVuSans-69" x="2322.367188"/>
     <use xlink:href="#DejaVuSans-6e" x="2350.150391"/>
     <use xlink:href="#DejaVuSans-67" x="2413.529297"/>
    </g>
   </g>
   <g id="legend_1">
    <g id="patch_7">
     <path d="M 556.99375 106.14875 
L 636.490625 106.14875 
Q 640.490625 106.14875 640.490625 102.14875 
L 640.490625 45.43625 
Q 640.490625 41.43625 636.490625 41.43625 
L 556.99375 41.43625 
Q 552.99375 41.43625 552.99375 45.43625 
L 552.99375 102.14875 
Q 552.99375 106.14875 556.99375 106.14875 
z
" style="fill: #ffffff; opacity: 0.8; stroke: #cccccc; stroke-linejoin: miter"/>
    </g>
    <g id="line2d_16">
     <path d="M 560.99375 57.633125 
L 580.99375 57.633125 
L 600.99375 57.633125 
" style="fill: none; stroke: #1f77b4; stroke-width: 1.5; stroke-linecap: square"/>
    </g>
    <g id="text_17">
     <!-- G -->
     <g transform="translate(616.99375 64.633125) scale(0.2 -0.2)">
      <use xlink:href="#DejaVuSans-47"/>
     </g>
    </g>
    <g id="line2d_17">
     <path d="M 560.99375 86.989375 
L 580.99375 86.989375 
L 600.99375 86.989375 
" style="fill: none; stroke: #ff7f0e; stroke-width: 1.5; stroke-linecap: square"/>
    </g>
    <g id="text_18">
     <!-- D -->
     <g transform="translate(616.99375 93.989375) scale(0.2 -0.2)">
      <use xlink:href="#DejaVuSans-44"/>
     </g>
    </g>
   </g>
  </g>
 </g>
 <defs>
  <clipPath id="pe8ff59cc84">
   <rect x="92.490625" y="31.43625" width="558" height="277.2"/>
  </clipPath>
 </defs>
</svg>
