<?xml version="1.0" encoding="utf-8" standalone="no"?>
<!DOCTYPE svg PUBLIC "-//W3C//DTD SVG 1.1//EN"
  "http://www.w3.org/Graphics/SVG/1.1/DTD/svg11.dtd">
<svg xmlns:xlink="http://www.w3.org/1999/xlink" width="675.923125pt" height="365.54875pt" viewBox="0 0 675.923125 365.54875" xmlns="http://www.w3.org/2000/svg" version="1.1">
 <metadata>
  <rdf:RDF xmlns:dc="http://purl.org/dc/elements/1.1/" xmlns:cc="http://creativecommons.org/ns#" xmlns:rdf="http://www.w3.org/1999/02/22-rdf-syntax-ns#">
   <cc:Work>
    <dc:type rdf:resource="http://purl.org/dc/dcmitype/StillImage"/>
    <dc:date>2024-02-02T15:45:56.782204</dc:date>
    <dc:format>image/svg+xml</dc:format>
    <dc:creator>
     <cc:Agent>
      <dc:title>Matplotlib v3.7.2, https://matplotlib.org/</dc:title>
     </cc:Agent>
    </dc:creator>
   </cc:Work>
  </rdf:RDF>
 </metadata>
 <defs>
  <style type="text/css">*{stroke-linejoin: round; stroke-linecap: butt}</style>
 </defs>
 <g id="figure_1">
  <g id="patch_1">
   <path d="M 0 365.54875 
L 675.923125 365.54875 
L 675.923125 -0 
L 0 -0 
z
" style="fill: #ffffff"/>
  </g>
  <g id="axes_1">
   <g id="patch_2">
    <path d="M 92.490625 308.63625 
L 650.490625 308.63625 
L 650.490625 31.43625 
L 92.490625 31.43625 
z
" style="fill: #ffffff"/>
   </g>
   <g id="matplotlib.axis_1">
    <g id="xtick_1">
     <g id="line2d_1">
      <defs>
       <path id="m24f21c8f14" d="M 0 0 
L 0 3.5 
" style="stroke: #000000; stroke-width: 0.8"/>
      </defs>
      <g>
       <use xlink:href="#m24f21c8f14" x="117.854261" y="308.63625" style="stroke: #000000; stroke-width: 0.8"/>
      </g>
     </g>
     <g id="text_1">
      <!-- 0 -->
      <g transform="translate(111.491761 330.833125) scale(0.2 -0.2)">
       <defs>
        <path id="DejaVuSans-30" d="M 2034 4250 
Q 1547 4250 1301 3770 
Q 1056 3291 1056 2328 
Q 1056 1369 1301 889 
Q 1547 409 2034 409 
Q 2525 409 2770 889 
Q 3016 1369 3016 2328 
Q 3016 3291 2770 3770 
Q 2525 4250 2034 4250 
z
M 2034 4750 
Q 2819 4750 3233 4129 
Q 3647 3509 3647 2328 
Q 3647 1150 3233 529 
Q 2819 -91 2034 -91 
Q 1250 -91 836 529 
Q 422 1150 422 2328 
Q 422 3509 836 4129 
Q 1250 4750 2034 4750 
z
" transform="scale(0.015625)"/>
       </defs>
       <use xlink:href="#DejaVuSans-30"/>
      </g>
     </g>
    </g>
    <g id="xtick_2">
     <g id="line2d_2">
      <g>
       <use xlink:href="#m24f21c8f14" x="210.085666" y="308.63625" style="stroke: #000000; stroke-width: 0.8"/>
      </g>
     </g>
     <g id="text_2">
      <!-- 200 -->
      <g transform="translate(190.998166 330.833125) scale(0.2 -0.2)">
       <defs>
        <path id="DejaVuSans-32" d="M 1228 531 
L 3431 531 
L 3431 0 
L 469 0 
L 469 531 
Q 828 903 1448 1529 
Q 2069 2156 2228 2338 
Q 2531 2678 2651 2914 
Q 2772 3150 2772 3378 
Q 2772 3750 2511 3984 
Q 2250 4219 1831 4219 
Q 1534 4219 1204 4116 
Q 875 4013 500 3803 
L 500 4441 
Q 881 4594 1212 4672 
Q 1544 4750 1819 4750 
Q 2544 4750 2975 4387 
Q 3406 4025 3406 3419 
Q 3406 3131 3298 2873 
Q 3191 2616 2906 2266 
Q 2828 2175 2409 1742 
Q 1991 1309 1228 531 
z
" transform="scale(0.015625)"/>
       </defs>
       <use xlink:href="#DejaVuSans-32"/>
       <use xlink:href="#DejaVuSans-30" x="63.623047"/>
       <use xlink:href="#DejaVuSans-30" x="127.246094"/>
      </g>
     </g>
    </g>
    <g id="xtick_3">
     <g id="line2d_3">
      <g>
       <use xlink:href="#m24f21c8f14" x="302.317071" y="308.63625" style="stroke: #000000; stroke-width: 0.8"/>
      </g>
     </g>
     <g id="text_3">
      <!-- 400 -->
      <g transform="translate(283.229571 330.833125) scale(0.2 -0.2)">
       <defs>
        <path id="DejaVuSans-34" d="M 2419 4116 
L 825 1625 
L 2419 1625 
L 2419 4116 
z
M 2253 4666 
L 3047 4666 
L 3047 1625 
L 3713 1625 
L 3713 1100 
L 3047 1100 
L 3047 0 
L 2419 0 
L 2419 1100 
L 313 1100 
L 313 1709 
L 2253 4666 
z
" transform="scale(0.015625)"/>
       </defs>
       <use xlink:href="#DejaVuSans-34"/>
       <use xlink:href="#DejaVuSans-30" x="63.623047"/>
       <use xlink:href="#DejaVuSans-30" x="127.246094"/>
      </g>
     </g>
    </g>
    <g id="xtick_4">
     <g id="line2d_4">
      <g>
       <use xlink:href="#m24f21c8f14" x="394.548476" y="308.63625" style="stroke: #000000; stroke-width: 0.8"/>
      </g>
     </g>
     <g id="text_4">
      <!-- 600 -->
      <g transform="translate(375.460976 330.833125) scale(0.2 -0.2)">
       <defs>
        <path id="DejaVuSans-36" d="M 2113 2584 
Q 1688 2584 1439 2293 
Q 1191 2003 1191 1497 
Q 1191 994 1439 701 
Q 1688 409 2113 409 
Q 2538 409 2786 701 
Q 3034 994 3034 1497 
Q 3034 2003 2786 2293 
Q 2538 2584 2113 2584 
z
M 3366 4563 
L 3366 3988 
Q 3128 4100 2886 4159 
Q 2644 4219 2406 4219 
Q 1781 4219 1451 3797 
Q 1122 3375 1075 2522 
Q 1259 2794 1537 2939 
Q 1816 3084 2150 3084 
Q 2853 3084 3261 2657 
Q 3669 2231 3669 1497 
Q 3669 778 3244 343 
Q 2819 -91 2113 -91 
Q 1303 -91 875 529 
Q 447 1150 447 2328 
Q 447 3434 972 4092 
Q 1497 4750 2381 4750 
Q 2619 4750 2861 4703 
Q 3103 4656 3366 4563 
z
" transform="scale(0.015625)"/>
       </defs>
       <use xlink:href="#DejaVuSans-36"/>
       <use xlink:href="#DejaVuSans-30" x="63.623047"/>
       <use xlink:href="#DejaVuSans-30" x="127.246094"/>
      </g>
     </g>
    </g>
    <g id="xtick_5">
     <g id="line2d_5">
      <g>
       <use xlink:href="#m24f21c8f14" x="486.779881" y="308.63625" style="stroke: #000000; stroke-width: 0.8"/>
      </g>
     </g>
     <g id="text_5">
      <!-- 800 -->
      <g transform="translate(467.692381 330.833125) scale(0.2 -0.2)">
       <defs>
        <path id="DejaVuSans-38" d="M 2034 2216 
Q 1584 2216 1326 1975 
Q 1069 1734 1069 1313 
Q 1069 891 1326 650 
Q 1584 409 2034 409 
Q 2484 409 2743 651 
Q 3003 894 3003 1313 
Q 3003 1734 2745 1975 
Q 2488 2216 2034 2216 
z
M 1403 2484 
Q 997 2584 770 2862 
Q 544 3141 544 3541 
Q 544 4100 942 4425 
Q 1341 4750 2034 4750 
Q 2731 4750 3128 4425 
Q 3525 4100 3525 3541 
Q 3525 3141 3298 2862 
Q 3072 2584 2669 2484 
Q 3125 2378 3379 2068 
Q 3634 1759 3634 1313 
Q 3634 634 3220 271 
Q 2806 -91 2034 -91 
Q 1263 -91 848 271 
Q 434 634 434 1313 
Q 434 1759 690 2068 
Q 947 2378 1403 2484 
z
M 1172 3481 
Q 1172 3119 1398 2916 
Q 1625 2713 2034 2713 
Q 2441 2713 2670 2916 
Q 2900 3119 2900 3481 
Q 2900 3844 2670 4047 
Q 2441 4250 2034 4250 
Q 1625 4250 1398 4047 
Q 1172 3844 1172 3481 
z
" transform="scale(0.015625)"/>
       </defs>
       <use xlink:href="#DejaVuSans-38"/>
       <use xlink:href="#DejaVuSans-30" x="63.623047"/>
       <use xlink:href="#DejaVuSans-30" x="127.246094"/>
      </g>
     </g>
    </g>
    <g id="xtick_6">
     <g id="line2d_6">
      <g>
       <use xlink:href="#m24f21c8f14" x="579.011286" y="308.63625" style="stroke: #000000; stroke-width: 0.8"/>
      </g>
     </g>
     <g id="text_6">
      <!-- 1000 -->
      <g transform="translate(553.561286 330.833125) scale(0.2 -0.2)">
       <defs>
        <path id="DejaVuSans-31" d="M 794 531 
L 1825 531 
L 1825 4091 
L 703 3866 
L 703 4441 
L 1819 4666 
L 2450 4666 
L 2450 531 
L 3481 531 
L 3481 0 
L 794 0 
L 794 531 
z
" transform="scale(0.015625)"/>
       </defs>
       <use xlink:href="#DejaVuSans-31"/>
       <use xlink:href="#DejaVuSans-30" x="63.623047"/>
       <use xlink:href="#DejaVuSans-30" x="127.246094"/>
       <use xlink:href="#DejaVuSans-30" x="190.869141"/>
      </g>
     </g>
    </g>
    <g id="text_7">
     <!-- iterations -->
     <g transform="translate(324.035938 354.189375) scale(0.2 -0.2)">
      <defs>
       <path id="DejaVuSans-69" d="M 603 3500 
L 1178 3500 
L 1178 0 
L 603 0 
L 603 3500 
z
M 603 4863 
L 1178 4863 
L 1178 4134 
L 603 4134 
L 603 4863 
z
" transform="scale(0.015625)"/>
       <path id="DejaVuSans-74" d="M 1172 4494 
L 1172 3500 
L 2356 3500 
L 2356 3053 
L 1172 3053 
L 1172 1153 
Q 1172 725 1289 603 
Q 1406 481 1766 481 
L 2356 481 
L 2356 0 
L 1766 0 
Q 1100 0 847 248 
Q 594 497 594 1153 
L 594 3053 
L 172 3053 
L 172 3500 
L 594 3500 
L 594 4494 
L 1172 4494 
z
" transform="scale(0.015625)"/>
       <path id="DejaVuSans-65" d="M 3597 1894 
L 3597 1613 
L 953 1613 
Q 991 1019 1311 708 
Q 1631 397 2203 397 
Q 2534 397 2845 478 
Q 3156 559 3463 722 
L 3463 178 
Q 3153 47 2828 -22 
Q 2503 -91 2169 -91 
Q 1331 -91 842 396 
Q 353 884 353 1716 
Q 353 2575 817 3079 
Q 1281 3584 2069 3584 
Q 2775 3584 3186 3129 
Q 3597 2675 3597 1894 
z
M 3022 2063 
Q 3016 2534 2758 2815 
Q 2500 3097 2075 3097 
Q 1594 3097 1305 2825 
Q 1016 2553 972 2059 
L 3022 2063 
z
" transform="scale(0.015625)"/>
       <path id="DejaVuSans-72" d="M 2631 2963 
Q 2534 3019 2420 3045 
Q 2306 3072 2169 3072 
Q 1681 3072 1420 2755 
Q 1159 2438 1159 1844 
L 1159 0 
L 581 0 
L 581 3500 
L 1159 3500 
L 1159 2956 
Q 1341 3275 1631 3429 
Q 1922 3584 2338 3584 
Q 2397 3584 2469 3576 
Q 2541 3569 2628 3553 
L 2631 2963 
z
" transform="scale(0.015625)"/>
       <path id="DejaVuSans-61" d="M 2194 1759 
Q 1497 1759 1228 1600 
Q 959 1441 959 1056 
Q 959 750 1161 570 
Q 1363 391 1709 391 
Q 2188 391 2477 730 
Q 2766 1069 2766 1631 
L 2766 1759 
L 2194 1759 
z
M 3341 1997 
L 3341 0 
L 2766 0 
L 2766 531 
Q 2569 213 2275 61 
Q 1981 -91 1556 -91 
Q 1019 -91 701 211 
Q 384 513 384 1019 
Q 384 1609 779 1909 
Q 1175 2209 1959 2209 
L 2766 2209 
L 2766 2266 
Q 2766 2663 2505 2880 
Q 2244 3097 1772 3097 
Q 1472 3097 1187 3025 
Q 903 2953 641 2809 
L 641 3341 
Q 956 3463 1253 3523 
Q 1550 3584 1831 3584 
Q 2591 3584 2966 3190 
Q 3341 2797 3341 1997 
z
" transform="scale(0.015625)"/>
       <path id="DejaVuSans-6f" d="M 1959 3097 
Q 1497 3097 1228 2736 
Q 959 2375 959 1747 
Q 959 1119 1226 758 
Q 1494 397 1959 397 
Q 2419 397 2687 759 
Q 2956 1122 2956 1747 
Q 2956 2369 2687 2733 
Q 2419 3097 1959 3097 
z
M 1959 3584 
Q 2709 3584 3137 3096 
Q 3566 2609 3566 1747 
Q 3566 888 3137 398 
Q 2709 -91 1959 -91 
Q 1206 -91 779 398 
Q 353 888 353 1747 
Q 353 2609 779 3096 
Q 1206 3584 1959 3584 
z
" transform="scale(0.015625)"/>
       <path id="DejaVuSans-6e" d="M 3513 2113 
L 3513 0 
L 2938 0 
L 2938 2094 
Q 2938 2591 2744 2837 
Q 2550 3084 2163 3084 
Q 1697 3084 1428 2787 
Q 1159 2491 1159 1978 
L 1159 0 
L 581 0 
L 581 3500 
L 1159 3500 
L 1159 2956 
Q 1366 3272 1645 3428 
Q 1925 3584 2291 3584 
Q 2894 3584 3203 3211 
Q 3513 2838 3513 2113 
z
" transform="scale(0.015625)"/>
       <path id="DejaVuSans-73" d="M 2834 3397 
L 2834 2853 
Q 2591 2978 2328 3040 
Q 2066 3103 1784 3103 
Q 1356 3103 1142 2972 
Q 928 2841 928 2578 
Q 928 2378 1081 2264 
Q 1234 2150 1697 2047 
L 1894 2003 
Q 2506 1872 2764 1633 
Q 3022 1394 3022 966 
Q 3022 478 2636 193 
Q 2250 -91 1575 -91 
Q 1294 -91 989 -36 
Q 684 19 347 128 
L 347 722 
Q 666 556 975 473 
Q 1284 391 1588 391 
Q 1994 391 2212 530 
Q 2431 669 2431 922 
Q 2431 1156 2273 1281 
Q 2116 1406 1581 1522 
L 1381 1569 
Q 847 1681 609 1914 
Q 372 2147 372 2553 
Q 372 3047 722 3315 
Q 1072 3584 1716 3584 
Q 2034 3584 2315 3537 
Q 2597 3491 2834 3397 
z
" transform="scale(0.015625)"/>
      </defs>
      <use xlink:href="#DejaVuSans-69"/>
      <use xlink:href="#DejaVuSans-74" x="27.783203"/>
      <use xlink:href="#DejaVuSans-65" x="66.992188"/>
      <use xlink:href="#DejaVuSans-72" x="128.515625"/>
      <use xlink:href="#DejaVuSans-61" x="169.628906"/>
      <use xlink:href="#DejaVuSans-74" x="230.908203"/>
      <use xlink:href="#DejaVuSans-69" x="270.117188"/>
      <use xlink:href="#DejaVuSans-6f" x="297.900391"/>
      <use xlink:href="#DejaVuSans-6e" x="359.082031"/>
      <use xlink:href="#DejaVuSans-73" x="422.460938"/>
     </g>
    </g>
   </g>
   <g id="matplotlib.axis_2">
    <g id="ytick_1">
     <g id="line2d_7">
      <defs>
       <path id="m9788ce2ef3" d="M 0 0 
L -3.5 0 
" style="stroke: #000000; stroke-width: 0.8"/>
      </defs>
      <g>
       <use xlink:href="#m9788ce2ef3" x="92.490625" y="279.562782" style="stroke: #000000; stroke-width: 0.8"/>
      </g>
     </g>
     <g id="text_8">
      <!-- −200 -->
      <g transform="translate(30.55625 287.16122) scale(0.2 -0.2)">
       <defs>
        <path id="DejaVuSans-2212" d="M 678 2272 
L 4684 2272 
L 4684 1741 
L 678 1741 
L 678 2272 
z
" transform="scale(0.015625)"/>
       </defs>
       <use xlink:href="#DejaVuSans-2212"/>
       <use xlink:href="#DejaVuSans-32" x="83.789062"/>
       <use xlink:href="#DejaVuSans-30" x="147.412109"/>
       <use xlink:href="#DejaVuSans-30" x="211.035156"/>
      </g>
     </g>
    </g>
    <g id="ytick_2">
     <g id="line2d_8">
      <g>
       <use xlink:href="#m9788ce2ef3" x="92.490625" y="229.718252" style="stroke: #000000; stroke-width: 0.8"/>
      </g>
     </g>
     <g id="text_9">
      <!-- −100 -->
      <g transform="translate(30.55625 237.316689) scale(0.2 -0.2)">
       <use xlink:href="#DejaVuSans-2212"/>
       <use xlink:href="#DejaVuSans-31" x="83.789062"/>
       <use xlink:href="#DejaVuSans-30" x="147.412109"/>
       <use xlink:href="#DejaVuSans-30" x="211.035156"/>
      </g>
     </g>
    </g>
    <g id="ytick_3">
     <g id="line2d_9">
      <g>
       <use xlink:href="#m9788ce2ef3" x="92.490625" y="179.873722" style="stroke: #000000; stroke-width: 0.8"/>
      </g>
     </g>
     <g id="text_10">
      <!-- 0 -->
      <g transform="translate(72.765625 187.472159) scale(0.2 -0.2)">
       <use xlink:href="#DejaVuSans-30"/>
      </g>
     </g>
    </g>
    <g id="ytick_4">
     <g id="line2d_10">
      <g>
       <use xlink:href="#m9788ce2ef3" x="92.490625" y="130.029191" style="stroke: #000000; stroke-width: 0.8"/>
      </g>
     </g>
     <g id="text_11">
      <!-- 100 -->
      <g transform="translate(47.315625 137.627629) scale(0.2 -0.2)">
       <use xlink:href="#DejaVuSans-31"/>
       <use xlink:href="#DejaVuSans-30" x="63.623047"/>
       <use xlink:href="#DejaVuSans-30" x="127.246094"/>
      </g>
     </g>
    </g>
    <g id="ytick_5">
     <g id="line2d_11">
      <g>
       <use xlink:href="#m9788ce2ef3" x="92.490625" y="80.184661" style="stroke: #000000; stroke-width: 0.8"/>
      </g>
     </g>
     <g id="text_12">
      <!-- 200 -->
      <g transform="translate(47.315625 87.783098) scale(0.2 -0.2)">
       <use xlink:href="#DejaVuSans-32"/>
       <use xlink:href="#DejaVuSans-30" x="63.623047"/>
       <use xlink:href="#DejaVuSans-30" x="127.246094"/>
      </g>
     </g>
    </g>
    <g id="text_13">
     <!-- Loss -->
     <g transform="translate(22.396875 191.970625) rotate(-90) scale(0.2 -0.2)">
      <defs>
       <path id="DejaVuSans-4c" d="M 628 4666 
L 1259 4666 
L 1259 531 
L 3531 531 
L 3531 0 
L 628 0 
L 628 4666 
z
" transform="scale(0.015625)"/>
      </defs>
      <use xlink:href="#DejaVuSans-4c"/>
      <use xlink:href="#DejaVuSans-6f" x="53.962891"/>
      <use xlink:href="#DejaVuSans-73" x="115.144531"/>
      <use xlink:href="#DejaVuSans-73" x="167.244141"/>
     </g>
    </g>
   </g>
   <g id="line2d_12">
    <path d="M 117.854261 124.531878 
L 118.315418 113.612244 
L 118.776575 120.519891 
L 119.237732 104.349251 
L 119.698889 82.758685 
L 120.160046 52.516894 
L 120.621204 44.03625 
L 121.082361 61.970005 
L 121.543518 47.184644 
L 122.465832 80.314335 
L 122.926989 92.451127 
L 123.388146 90.170035 
L 124.31046 102.578324 
L 124.771617 95.671232 
L 125.232774 100.331578 
L 125.693931 100.663401 
L 126.155088 98.525286 
L 126.616245 104.282319 
L 127.077402 116.142604 
L 127.538559 120.516331 
L 127.999716 130.835256 
L 128.92203 127.698731 
L 129.383187 125.168182 
L 129.844344 126.943921 
L 130.305501 124.005949 
L 131.227815 122.923807 
L 131.688972 123.257928 
L 132.150129 118.898656 
L 132.611286 119.56434 
L 133.072443 115.700499 
L 133.5336 117.745463 
L 133.994757 123.442567 
L 134.455914 123.774871 
L 134.917071 122.857969 
L 135.378228 122.302379 
L 135.839385 120.942223 
L 136.300542 119.124284 
L 136.761699 125.017556 
L 137.222856 133.214281 
L 137.684013 129.161825 
L 138.14517 123.543387 
L 138.606327 122.23231 
L 139.067485 123.023945 
L 139.528642 127.784878 
L 139.989799 121.940687 
L 140.450956 123.981988 
L 140.912113 127.193599 
L 141.37327 131.485114 
L 141.834427 128.917539 
L 142.295584 136.589669 
L 142.756741 136.567041 
L 143.217898 125.362361 
L 143.679055 126.824283 
L 144.140212 135.707324 
L 144.601369 137.326724 
L 145.062526 136.946144 
L 145.98484 141.297559 
L 146.445997 145.047706 
L 146.907154 145.805225 
L 147.368311 141.997796 
L 148.290625 139.025662 
L 148.751782 137.019952 
L 149.212939 138.139239 
L 149.674096 136.827967 
L 150.135253 138.508057 
L 150.59641 138.220575 
L 151.057567 138.101893 
L 151.518724 135.608969 
L 151.979881 141.338619 
L 152.902195 134.107495 
L 153.363352 138.24287 
L 153.824509 138.539082 
L 154.285666 134.882217 
L 154.746823 125.534589 
L 155.20798 130.92867 
L 155.669137 130.995844 
L 156.130294 129.896139 
L 156.591451 130.701701 
L 157.052608 134.78225 
L 157.513765 136.964739 
L 157.974923 139.833902 
L 158.43608 134.538663 
L 158.897237 132.112555 
L 159.358394 132.679362 
L 159.819551 137.227089 
L 160.280708 136.509092 
L 160.741865 134.164532 
L 161.203022 138.634416 
L 161.664179 137.086605 
L 162.125336 139.48127 
L 162.586493 140.847521 
L 163.04765 136.401101 
L 163.508807 136.610398 
L 163.969964 141.120117 
L 164.431121 141.657382 
L 164.892278 141.745369 
L 165.814592 145.930699 
L 166.275749 144.353858 
L 166.736906 147.068299 
L 167.65922 143.872919 
L 168.120377 144.823045 
L 168.581534 145.322043 
L 169.042691 149.160657 
L 169.503848 151.758086 
L 169.965005 147.409346 
L 170.426162 147.688363 
L 171.348476 143.905424 
L 171.809633 146.884967 
L 172.731947 147.688029 
L 173.193104 143.357887 
L 173.654261 140.161348 
L 174.115418 143.441326 
L 174.576575 141.701099 
L 175.037732 143.244373 
L 175.498889 141.485977 
L 175.960046 143.743617 
L 176.421204 141.752809 
L 176.882361 144.378451 
L 177.343518 145.924998 
L 178.265832 145.710239 
L 178.726989 146.822277 
L 179.188146 145.065893 
L 179.649303 142.812817 
L 180.11046 146.722669 
L 180.571617 142.762511 
L 181.032774 145.958757 
L 181.493931 145.805341 
L 181.955088 143.312113 
L 182.416245 144.758427 
L 182.877402 147.303361 
L 183.338559 146.89064 
L 183.799716 147.574506 
L 184.260873 148.59455 
L 185.183187 152.506974 
L 185.644344 150.388494 
L 186.105501 151.806019 
L 186.566658 150.902817 
L 187.027815 151.840849 
L 187.488972 149.806097 
L 187.950129 146.162209 
L 188.411286 148.368318 
L 188.872443 152.27345 
L 189.3336 151.466282 
L 189.794757 152.492185 
L 190.255914 150.095374 
L 190.717071 151.430663 
L 191.178228 152.38361 
L 191.639385 151.164398 
L 192.100542 152.661597 
L 192.561699 153.504509 
L 193.022856 153.070374 
L 193.484013 153.701229 
L 193.94517 155.076172 
L 194.406327 155.925178 
L 195.328642 153.860758 
L 195.789799 153.674296 
L 196.250956 153.035097 
L 196.712113 154.346622 
L 197.17327 153.598921 
L 197.634427 153.137666 
L 198.095584 153.719381 
L 198.556741 151.537183 
L 199.017898 152.382328 
L 199.479055 153.754748 
L 199.940212 152.730595 
L 200.401369 153.912518 
L 200.862526 155.763226 
L 201.323683 154.635505 
L 201.78484 156.375225 
L 202.245997 154.862806 
L 202.707154 157.097058 
L 203.168311 158.475495 
L 203.629468 159.246486 
L 204.090625 160.579032 
L 204.551782 160.177923 
L 205.012939 158.198611 
L 205.474096 157.632745 
L 205.935253 158.695304 
L 206.39641 158.058747 
L 207.779881 161.274453 
L 208.241038 161.049882 
L 208.702195 162.072976 
L 209.163352 162.780169 
L 209.624509 162.93181 
L 210.085666 162.909826 
L 210.546823 163.16357 
L 211.00798 163.590409 
L 211.930294 163.028633 
L 212.391451 164.160838 
L 212.852608 163.43676 
L 213.313765 163.598174 
L 213.774923 163.302926 
L 214.23608 163.467349 
L 214.697237 163.018195 
L 215.158394 164.735424 
L 215.619551 163.474858 
L 216.080708 161.245375 
L 216.541865 162.806307 
L 217.925336 163.922568 
L 218.386493 162.747043 
L 218.84765 162.225773 
L 219.308807 162.846469 
L 219.769964 165.236295 
L 220.231121 163.231114 
L 220.692278 163.010536 
L 221.153435 163.003862 
L 221.614592 164.481228 
L 222.075749 164.159237 
L 222.536906 165.05063 
L 222.998063 167.617109 
L 223.45922 166.927606 
L 223.920377 166.829197 
L 224.381534 167.045429 
L 224.842691 167.040901 
L 225.303848 168.045201 
L 226.226162 166.198974 
L 226.687319 166.800597 
L 227.148476 168.759688 
L 227.609633 168.974249 
L 228.07079 166.434748 
L 228.531947 165.174013 
L 228.993104 167.03687 
L 229.915418 167.675998 
L 230.376575 167.355134 
L 230.837732 166.638156 
L 231.298889 167.116547 
L 231.760046 167.266925 
L 232.221204 168.14975 
L 232.682361 167.908898 
L 233.143518 168.146553 
L 233.604675 168.238457 
L 234.526989 167.240999 
L 234.988146 168.253029 
L 235.449303 166.399731 
L 235.91046 167.169623 
L 236.371617 166.210275 
L 236.832774 167.497068 
L 237.293931 165.698517 
L 238.216245 166.698603 
L 238.677402 166.841433 
L 239.138559 166.310281 
L 239.599716 165.479998 
L 240.060873 165.215218 
L 240.52203 165.668773 
L 240.983187 167.322442 
L 241.444344 165.913513 
L 241.905501 165.804076 
L 242.366658 165.367667 
L 242.827815 166.220259 
L 243.288972 166.206106 
L 243.750129 165.972338 
L 244.211286 166.913536 
L 244.672443 166.170453 
L 245.1336 165.912273 
L 245.594757 166.548458 
L 246.055914 165.862925 
L 246.517071 166.657325 
L 246.978228 167.181714 
L 247.439385 166.678216 
L 247.900542 166.675568 
L 248.361699 167.875845 
L 248.822856 168.366442 
L 249.284013 168.449603 
L 249.74517 168.998448 
L 250.206327 169.32032 
L 250.667485 167.9225 
L 251.589799 168.843936 
L 252.050956 168.960531 
L 252.512113 168.782386 
L 252.97327 168.317253 
L 253.434427 169.688678 
L 253.895584 169.233972 
L 254.356741 169.06092 
L 255.279055 170.546879 
L 255.740212 170.171745 
L 256.201369 171.878035 
L 257.123683 171.137158 
L 257.58484 169.278403 
L 258.045997 169.725672 
L 258.507154 170.615596 
L 258.968311 169.496235 
L 259.429468 169.782768 
L 259.890625 169.890141 
L 260.351782 171.456883 
L 261.274096 170.001103 
L 261.735253 169.926751 
L 262.657567 171.37963 
L 263.118724 171.029107 
L 263.579881 171.124863 
L 264.041038 170.681482 
L 264.502195 170.87703 
L 264.963352 170.384301 
L 265.424509 170.986704 
L 265.885666 170.791971 
L 266.346823 169.625101 
L 266.80798 171.288955 
L 267.269137 170.927486 
L 267.730294 170.864856 
L 268.191451 171.211611 
L 268.652608 172.079021 
L 269.113765 171.845111 
L 269.574923 170.97074 
L 270.03608 171.625128 
L 270.497237 170.983582 
L 271.419551 171.02878 
L 271.880708 171.560573 
L 272.341865 172.322231 
L 272.803022 171.627739 
L 273.264179 171.467542 
L 273.725336 172.467587 
L 274.186493 171.02565 
L 274.64765 171.947077 
L 275.108807 171.483687 
L 275.569964 172.050066 
L 276.953435 169.947551 
L 277.414592 170.733685 
L 277.875749 170.584067 
L 278.336906 171.103421 
L 278.798063 171.348453 
L 279.25922 171.120201 
L 279.720377 170.558887 
L 280.181534 170.210684 
L 280.642691 170.789454 
L 281.103848 170.980313 
L 281.565005 172.211916 
L 282.026162 171.753866 
L 282.487319 172.058202 
L 282.948476 170.710387 
L 283.409633 171.610416 
L 283.87079 171.04566 
L 284.331947 170.275572 
L 284.793104 170.921107 
L 285.254261 170.142906 
L 285.715418 171.335557 
L 286.176575 170.05853 
L 286.637732 170.093304 
L 287.098889 170.469731 
L 287.560046 171.273628 
L 288.021204 171.728208 
L 288.482361 171.723017 
L 288.943518 170.898618 
L 289.865832 171.377761 
L 290.326989 171.45996 
L 290.788146 170.901117 
L 291.249303 169.754796 
L 292.632774 171.283549 
L 293.093931 170.797232 
L 293.555088 171.524636 
L 294.016245 171.480676 
L 294.477402 171.125477 
L 295.860873 171.450506 
L 296.32203 170.746657 
L 296.783187 171.893811 
L 297.705501 169.705521 
L 298.166658 169.357828 
L 298.627815 169.628308 
L 299.088972 170.894575 
L 299.550129 171.221226 
L 300.011286 171.32752 
L 300.472443 171.762098 
L 300.9336 171.419549 
L 301.394757 171.510481 
L 301.855914 170.604535 
L 302.317071 172.064219 
L 302.778228 172.504472 
L 303.239385 171.730852 
L 303.700542 171.717936 
L 304.161699 171.126913 
L 304.622856 171.028055 
L 305.084013 171.81357 
L 305.54517 171.842793 
L 306.006327 171.260918 
L 306.467485 171.661503 
L 306.928642 171.18838 
L 308.312113 171.680532 
L 308.77327 172.343042 
L 309.234427 170.773445 
L 309.695584 171.850861 
L 310.156741 171.335879 
L 310.617898 171.470768 
L 311.079055 171.404438 
L 311.540212 170.42896 
L 312.001369 170.751651 
L 312.462526 170.623119 
L 312.923683 171.204737 
L 313.38484 169.869313 
L 313.845997 169.636724 
L 314.768311 170.828434 
L 315.229468 170.552112 
L 315.690625 170.519111 
L 316.151782 170.941655 
L 316.612939 169.718798 
L 317.074096 169.862972 
L 317.535253 170.788851 
L 317.99641 169.308966 
L 318.457567 168.405074 
L 318.918724 169.592541 
L 319.841038 168.929275 
L 320.302195 168.277422 
L 320.763352 168.303997 
L 321.224509 169.014105 
L 321.685666 169.461484 
L 322.60798 168.954341 
L 323.069137 167.445263 
L 323.530294 168.252356 
L 323.991451 168.568639 
L 324.452608 168.729843 
L 324.913765 169.043828 
L 325.374923 170.208008 
L 325.83608 169.180695 
L 326.297237 168.673338 
L 326.758394 168.707785 
L 327.219551 169.243154 
L 327.680708 169.377209 
L 328.141865 168.851158 
L 328.603022 166.81334 
L 329.064179 168.761281 
L 329.525336 168.000392 
L 329.986493 167.564612 
L 330.908807 168.156309 
L 331.369964 168.13164 
L 331.831121 168.675291 
L 332.292278 168.119421 
L 332.753435 168.305333 
L 333.214592 167.535693 
L 333.675749 169.078896 
L 334.136906 168.406488 
L 334.598063 169.281049 
L 335.05922 168.148249 
L 335.520377 168.593674 
L 335.981534 168.732842 
L 336.442691 168.470857 
L 336.903848 169.372396 
L 337.365005 169.29299 
L 338.287319 167.88763 
L 338.748476 167.936869 
L 339.209633 168.913264 
L 339.67079 167.685689 
L 340.593104 168.452807 
L 341.054261 168.225701 
L 341.515418 170.2633 
L 341.976575 169.857828 
L 342.437732 168.55073 
L 342.898889 168.94689 
L 343.821204 167.836903 
L 344.282361 168.529338 
L 344.743518 168.526433 
L 345.204675 168.242491 
L 345.665832 168.845629 
L 346.126989 168.793187 
L 346.588146 169.295145 
L 347.049303 168.568328 
L 347.51046 169.156795 
L 347.971617 168.842294 
L 348.432774 169.404308 
L 348.893931 168.600934 
L 349.355088 169.158425 
L 349.816245 169.261816 
L 350.277402 169.167373 
L 350.738559 168.318719 
L 351.199716 168.55359 
L 351.660873 169.043764 
L 352.12203 169.344485 
L 352.583187 168.986347 
L 353.044344 169.062865 
L 353.505501 167.845035 
L 353.966658 168.951697 
L 354.888972 166.987109 
L 355.811286 168.536455 
L 356.272443 167.813438 
L 357.655914 168.653876 
L 358.117071 169.890846 
L 358.578228 168.602198 
L 359.039385 168.122958 
L 359.500542 166.912785 
L 359.961699 168.156099 
L 360.422856 167.661884 
L 360.884013 169.488083 
L 361.34517 169.485607 
L 362.728642 168.073372 
L 363.189799 169.155096 
L 363.650956 167.873866 
L 364.112113 168.345896 
L 364.57327 168.076867 
L 365.034427 169.271937 
L 366.417898 165.679123 
L 366.879055 166.576745 
L 367.340212 167.755652 
L 367.801369 168.312368 
L 368.262526 167.853324 
L 368.723683 168.205852 
L 369.18484 167.419576 
L 369.645997 167.036538 
L 370.107154 168.70488 
L 371.029468 167.08679 
L 371.490625 166.654306 
L 371.951782 167.786472 
L 372.412939 167.416425 
L 372.874096 168.569706 
L 373.335253 168.490675 
L 373.79641 169.154549 
L 374.257567 167.278725 
L 374.718724 168.560299 
L 375.179881 168.787789 
L 375.641038 167.280913 
L 376.102195 167.403509 
L 376.563352 166.122042 
L 377.024509 167.890703 
L 377.485666 166.99708 
L 377.946823 168.252917 
L 378.40798 166.923159 
L 378.869137 167.016084 
L 379.330294 167.241264 
L 380.252608 167.045006 
L 380.713765 166.305466 
L 381.174923 165.975857 
L 381.63608 167.000925 
L 382.097237 166.83386 
L 382.558394 167.60513 
L 383.019551 167.629385 
L 383.480708 167.287727 
L 383.941865 167.104138 
L 384.403022 166.397981 
L 384.864179 167.148153 
L 385.325336 166.744054 
L 385.786493 165.842051 
L 386.24765 165.51877 
L 386.708807 166.309628 
L 387.169964 165.740703 
L 387.631121 166.816051 
L 388.092278 166.165061 
L 388.553435 165.723097 
L 389.014592 166.108493 
L 389.936906 165.4902 
L 390.85922 166.795149 
L 391.320377 166.654096 
L 392.242691 167.621033 
L 392.703848 166.864147 
L 393.165005 167.267206 
L 393.626162 168.778092 
L 394.087319 169.05499 
L 394.548476 168.761897 
L 395.009633 168.71093 
L 395.47079 167.742667 
L 396.393104 169.264613 
L 396.854261 167.432988 
L 397.315418 168.344806 
L 397.776575 168.502555 
L 398.237732 169.430815 
L 398.698889 169.685325 
L 399.160046 168.870997 
L 399.621204 169.484155 
L 400.543518 169.27929 
L 401.004675 168.891965 
L 402.388146 170.281456 
L 402.849303 169.650673 
L 403.31046 169.556229 
L 403.771617 169.332334 
L 404.232774 169.753204 
L 404.693931 169.245746 
L 405.155088 169.301257 
L 405.616245 168.308343 
L 406.077402 168.719347 
L 406.538559 169.428888 
L 406.999716 170.479059 
L 407.460873 169.745954 
L 407.92203 170.42337 
L 408.844344 170.868408 
L 409.305501 170.270927 
L 409.766658 169.303986 
L 410.227815 170.119499 
L 410.688972 169.767772 
L 411.150129 169.857879 
L 411.611286 169.586723 
L 412.072443 169.716683 
L 412.5336 171.181534 
L 412.994757 170.772517 
L 413.455914 171.187108 
L 413.917071 170.514292 
L 414.378228 170.129486 
L 414.839385 170.984094 
L 415.300542 171.01828 
L 415.761699 171.330471 
L 416.222856 170.098185 
L 416.684013 171.20177 
L 417.14517 170.094581 
L 417.606327 170.641587 
L 418.067485 170.954885 
L 418.528642 170.937869 
L 418.989799 171.877335 
L 419.450956 171.940686 
L 419.912113 171.802314 
L 420.37327 170.553515 
L 420.834427 170.961193 
L 421.295584 170.871702 
L 421.756741 171.781641 
L 422.217898 171.652601 
L 423.140212 169.934908 
L 423.601369 169.855105 
L 424.062526 169.93931 
L 424.523683 170.289627 
L 424.98484 171.688032 
L 425.445997 171.08577 
L 425.907154 171.519824 
L 426.368311 171.452305 
L 426.829468 170.690751 
L 427.290625 170.4779 
L 427.751782 170.686815 
L 428.212939 171.598358 
L 428.674096 171.429171 
L 429.135253 170.468689 
L 429.59641 170.552143 
L 430.057567 171.170605 
L 430.518724 171.076991 
L 430.979881 170.857447 
L 431.441038 172.026858 
L 431.902195 171.897187 
L 432.363352 172.552691 
L 432.824509 172.187376 
L 433.285666 172.119924 
L 433.746823 172.812751 
L 434.20798 172.431816 
L 434.669137 171.504635 
L 435.130294 171.078927 
L 435.591451 172.052269 
L 436.052608 172.01934 
L 436.513765 171.139247 
L 436.974923 171.456836 
L 437.43608 172.361364 
L 437.897237 171.736331 
L 438.358394 172.752857 
L 438.819551 172.572182 
L 439.280708 171.777554 
L 439.741865 171.812087 
L 440.203022 172.632344 
L 440.664179 173.098525 
L 441.125336 172.871148 
L 441.586493 171.911924 
L 442.04765 172.195097 
L 442.508807 172.633227 
L 442.969964 172.795828 
L 443.431121 172.498574 
L 443.892278 172.657809 
L 444.353435 172.305638 
L 444.814592 173.087526 
L 445.275749 172.752212 
L 445.736906 171.853783 
L 446.198063 172.249377 
L 446.65922 173.237597 
L 447.120377 172.465509 
L 447.581534 172.943736 
L 448.042691 172.53879 
L 448.503848 172.308294 
L 448.965005 172.475761 
L 449.426162 172.805779 
L 449.887319 173.509988 
L 450.348476 173.535105 
L 450.809633 172.965856 
L 451.27079 173.195651 
L 451.731947 173.028642 
L 452.193104 173.17028 
L 452.654261 173.69358 
L 453.115418 173.695534 
L 453.576575 173.025585 
L 454.037732 173.163722 
L 454.498889 172.773572 
L 454.960046 172.143886 
L 455.421204 172.728104 
L 456.343518 173.301175 
L 456.804675 173.212307 
L 457.265832 173.473794 
L 457.726989 173.354617 
L 458.188146 172.340577 
L 459.571617 173.545899 
L 460.032774 173.717131 
L 461.877402 172.846439 
L 462.338559 172.830841 
L 463.260873 173.914986 
L 463.72203 173.328633 
L 464.183187 173.220606 
L 464.644344 172.633549 
L 465.566658 172.524903 
L 466.027815 172.899515 
L 466.488972 172.995464 
L 466.950129 173.52655 
L 467.411286 172.911105 
L 468.3336 173.067123 
L 468.794757 172.580127 
L 469.255914 173.506689 
L 469.717071 173.224257 
L 470.639385 173.550066 
L 471.100542 173.870253 
L 471.561699 173.463889 
L 472.022856 173.309775 
L 472.484013 174.370365 
L 472.94517 174.641543 
L 473.406327 173.336782 
L 473.867485 174.511969 
L 474.328642 174.789815 
L 474.789799 174.779389 
L 475.250956 174.237352 
L 475.712113 174.548939 
L 476.17327 174.300293 
L 476.634427 174.250603 
L 477.095584 174.571552 
L 477.556741 174.630708 
L 478.017898 174.100518 
L 478.479055 174.358606 
L 478.940212 173.547171 
L 480.323683 174.726061 
L 480.78484 174.763368 
L 481.245997 174.404266 
L 481.707154 173.868562 
L 482.168311 174.002336 
L 482.629468 174.499336 
L 483.090625 174.761793 
L 483.551782 174.237576 
L 484.012939 173.960542 
L 484.474096 174.456797 
L 484.935253 174.608312 
L 485.39641 173.651449 
L 485.857567 174.262652 
L 486.318724 173.571319 
L 486.779881 173.445559 
L 487.241038 174.284243 
L 487.702195 174.647367 
L 488.163352 174.143819 
L 488.624509 175.098752 
L 489.085666 174.592985 
L 489.546823 174.67441 
L 490.00798 173.986843 
L 490.469137 174.89315 
L 490.930294 175.040789 
L 491.391451 174.521271 
L 491.852608 174.31169 
L 492.313765 174.409975 
L 492.774923 174.844725 
L 493.23608 174.091942 
L 493.697237 174.054085 
L 494.158394 175.056739 
L 494.619551 175.179453 
L 495.080708 174.76291 
L 495.541865 175.188881 
L 496.003022 174.606071 
L 496.464179 174.643741 
L 496.925336 175.360247 
L 497.386493 174.345135 
L 497.84765 174.196209 
L 498.308807 174.545014 
L 498.769964 174.055634 
L 499.231121 174.603814 
L 499.692278 174.591183 
L 500.153435 174.85815 
L 500.614592 175.470077 
L 501.998063 174.592355 
L 502.45922 175.085638 
L 503.842691 175.479677 
L 504.765005 174.720709 
L 505.226162 175.256771 
L 505.687319 174.918766 
L 506.148476 175.417736 
L 506.609633 174.536108 
L 507.07079 174.684633 
L 507.531947 174.961427 
L 507.993104 174.675325 
L 508.454261 174.602429 
L 508.915418 174.976565 
L 509.376575 175.109405 
L 509.837732 175.082062 
L 510.298889 175.327841 
L 510.760046 175.332892 
L 511.221204 175.704394 
L 511.682361 175.749832 
L 512.143518 176.00514 
L 513.065832 175.331336 
L 513.526989 175.820725 
L 513.988146 175.670553 
L 514.449303 176.437552 
L 514.91046 176.022944 
L 515.371617 175.79007 
L 515.832774 175.892828 
L 516.293931 176.684125 
L 516.755088 176.529924 
L 517.216245 176.862434 
L 517.677402 176.827581 
L 518.599716 176.121104 
L 519.060873 176.371403 
L 519.52203 176.282667 
L 519.983187 176.55121 
L 520.444344 175.998972 
L 520.905501 176.438404 
L 521.366658 176.232709 
L 523.672443 176.191065 
L 524.594757 176.740455 
L 525.055914 176.851348 
L 525.517071 176.071476 
L 525.978228 176.531128 
L 526.439385 176.313304 
L 526.900542 176.241809 
L 527.361699 176.342322 
L 527.822856 176.154964 
L 528.284013 176.730567 
L 529.206327 176.218591 
L 529.667485 175.822586 
L 530.128642 176.737825 
L 531.050956 176.679438 
L 531.512113 176.37128 
L 531.97327 176.406383 
L 532.434427 176.716217 
L 532.895584 176.815412 
L 533.356741 177.092024 
L 533.817898 177.029247 
L 534.279055 176.541315 
L 534.740212 176.447746 
L 535.201369 177.045527 
L 536.123683 176.949279 
L 536.58484 177.623724 
L 537.045997 177.333461 
L 537.507154 177.417731 
L 537.968311 177.706311 
L 538.429468 177.852056 
L 538.890625 177.331983 
L 539.351782 177.404682 
L 539.812939 177.087448 
L 540.274096 177.158187 
L 540.735253 177.398378 
L 541.19641 177.790668 
L 541.657567 177.673758 
L 542.118724 177.360908 
L 542.579881 177.671818 
L 543.041038 177.4662 
L 543.502195 177.428796 
L 543.963352 177.569326 
L 544.424509 177.546279 
L 544.885666 177.915382 
L 545.346823 177.810681 
L 546.269137 178.110901 
L 546.730294 178.166555 
L 547.191451 178.094477 
L 547.652608 178.494665 
L 548.113765 178.181803 
L 548.574923 178.777438 
L 549.03608 178.034988 
L 549.958394 178.678885 
L 550.419551 178.273268 
L 550.880708 178.558078 
L 551.341865 178.645732 
L 551.803022 178.979903 
L 552.264179 178.604421 
L 552.725336 178.72779 
L 553.186493 179.086753 
L 553.64765 179.201082 
L 554.108807 179.159582 
L 554.569964 179.666424 
L 555.031121 178.766806 
L 555.492278 178.962582 
L 555.953435 179.279921 
L 556.414592 179.450476 
L 556.875749 178.899028 
L 557.336906 178.941914 
L 557.798063 178.499958 
L 558.25922 178.50986 
L 558.720377 178.949115 
L 560.103848 178.963947 
L 560.565005 179.468592 
L 561.026162 178.957596 
L 561.487319 179.146655 
L 561.948476 179.543453 
L 562.409633 179.427571 
L 562.87079 179.127683 
L 563.331947 179.518266 
L 563.793104 179.204089 
L 564.254261 179.222719 
L 564.715418 178.98623 
L 565.637732 179.874376 
L 566.098889 179.517771 
L 567.021204 179.686319 
L 567.482361 179.129207 
L 567.943518 179.487302 
L 568.404675 179.333922 
L 568.865832 179.358981 
L 569.326989 179.26307 
L 569.788146 179.425154 
L 570.249303 179.749735 
L 571.632774 179.776525 
L 572.555088 179.344682 
L 573.016245 179.001729 
L 573.477402 179.286516 
L 573.938559 179.275482 
L 574.399716 179.092813 
L 574.860873 179.571052 
L 575.32203 179.884484 
L 575.783187 179.531372 
L 576.705501 179.715287 
L 577.166658 180.303038 
L 577.627815 179.626734 
L 578.088972 179.711593 
L 578.550129 180.147627 
L 579.011286 179.670431 
L 579.472443 179.744088 
L 579.9336 179.947498 
L 580.855914 179.938698 
L 581.317071 180.335198 
L 581.778228 179.565856 
L 582.239385 179.855395 
L 582.700542 179.740909 
L 584.084013 179.74427 
L 584.54517 179.931039 
L 585.006327 179.520946 
L 585.467485 180.09352 
L 585.928642 180.325481 
L 586.389799 180.140308 
L 586.850956 180.371481 
L 587.312113 179.869368 
L 587.77327 179.963973 
L 588.234427 179.778552 
L 588.695584 180.202878 
L 589.156741 179.514326 
L 589.617898 179.482513 
L 590.079055 180.026128 
L 590.540212 179.427368 
L 591.001369 180.162905 
L 591.462526 180.306756 
L 591.923683 180.214288 
L 592.38484 180.380419 
L 593.307154 180.086379 
L 593.768311 180.226138 
L 594.229468 180.13434 
L 594.690625 180.485126 
L 595.151782 179.700224 
L 595.612939 180.485923 
L 596.074096 180.18604 
L 596.535253 180.300664 
L 596.99641 179.763172 
L 597.457567 180.343231 
L 597.918724 180.165772 
L 598.379881 179.744616 
L 598.841038 179.91302 
L 599.302195 180.310773 
L 599.763352 180.22706 
L 600.224509 179.954252 
L 600.685666 180.26877 
L 602.069137 179.54126 
L 602.530294 180.330199 
L 602.991451 179.814204 
L 603.452608 180.189141 
L 603.913765 179.754376 
L 604.374923 179.853491 
L 604.83608 179.818375 
L 605.297237 180.340954 
L 605.758394 179.605927 
L 606.219551 179.87026 
L 607.603022 180.07964 
L 608.986493 179.896924 
L 609.44765 180.110488 
L 610.831121 179.963066 
L 611.292278 179.986136 
L 611.753435 179.786335 
L 612.214592 180.758785 
L 612.675749 180.032607 
L 613.136906 179.725176 
L 613.598063 180.118395 
L 614.520377 180.137444 
L 614.981534 179.824126 
L 615.442691 180.373565 
L 615.903848 180.011501 
L 616.365005 180.842442 
L 616.826162 180.21516 
L 617.287319 179.845933 
L 618.209633 180.704952 
L 618.67079 180.052903 
L 619.131947 180.440301 
L 619.593104 180.109915 
L 620.054261 180.557143 
L 620.515418 179.928409 
L 620.976575 180.445121 
L 621.437732 180.182771 
L 621.898889 180.431568 
L 622.360046 180.367132 
L 622.821204 179.936347 
L 623.282361 179.76118 
L 623.743518 180.23181 
L 624.204675 180.466946 
L 625.126989 180.41052 
L 625.126989 180.41052 
" clip-path="url(#p2d7c974124)" style="fill: none; stroke: #1f77b4; stroke-width: 1.5; stroke-linecap: square"/>
   </g>
   <g id="line2d_13">
    <path d="M 117.854261 296.03625 
L 118.315418 293.670519 
L 118.776575 246.011862 
L 119.237732 269.986081 
L 119.698889 278.80496 
L 120.160046 248.797222 
L 120.621204 230.620247 
L 121.082361 249.231156 
L 121.543518 223.688053 
L 122.004675 220.004876 
L 122.465832 208.447941 
L 122.926989 211.42837 
L 123.388146 210.881812 
L 123.849303 207.172589 
L 124.31046 205.397716 
L 124.771617 204.796222 
L 125.232774 201.902029 
L 125.693931 204.825475 
L 126.155088 199.039532 
L 126.616245 198.542908 
L 127.077402 192.649877 
L 127.538559 193.698227 
L 127.999716 192.006893 
L 128.460873 194.531603 
L 128.92203 193.321072 
L 129.383187 195.950344 
L 129.844344 197.127018 
L 130.305501 197.851664 
L 130.766658 197.33166 
L 131.227815 192.321801 
L 131.688972 190.967719 
L 132.150129 193.33488 
L 132.611286 192.207896 
L 133.5336 192.261632 
L 133.994757 189.654198 
L 134.455914 190.520908 
L 135.839385 192.103944 
L 136.300542 192.268471 
L 136.761699 189.139459 
L 137.222856 187.000513 
L 137.684013 188.560084 
L 138.14517 190.703189 
L 138.606327 191.730823 
L 139.067485 190.152641 
L 139.528642 189.313256 
L 139.989799 190.141136 
L 140.450956 189.859756 
L 140.912113 189.199789 
L 141.37327 188.181538 
L 141.834427 189.724939 
L 142.295584 185.408925 
L 142.756741 186.78425 
L 143.217898 189.527407 
L 143.679055 190.100574 
L 144.140212 186.043988 
L 144.601369 188.646009 
L 145.062526 187.302461 
L 145.523683 187.322897 
L 145.98484 188.79512 
L 146.445997 187.482793 
L 146.907154 184.947255 
L 147.368311 187.693612 
L 147.829468 186.691977 
L 148.290625 188.118964 
L 148.751782 188.999593 
L 149.674096 186.831658 
L 150.135253 188.620825 
L 150.59641 188.360617 
L 151.057567 188.945293 
L 151.518724 187.132025 
L 151.979881 186.201876 
L 152.441038 188.283568 
L 153.363352 187.196792 
L 153.824509 186.938449 
L 154.285666 187.869209 
L 154.746823 189.448849 
L 155.20798 186.718774 
L 155.669137 187.926137 
L 156.130294 188.029027 
L 156.591451 190.577963 
L 157.052608 188.203017 
L 157.513765 187.138785 
L 157.974923 187.142223 
L 158.43608 186.650825 
L 158.897237 187.646986 
L 159.358394 189.119807 
L 159.819551 187.357287 
L 160.741865 186.780915 
L 161.664179 187.368904 
L 162.586493 186.468459 
L 163.04765 186.8359 
L 163.508807 186.971379 
L 163.969964 186.899701 
L 164.431121 185.093429 
L 165.353435 187.794619 
L 165.814592 185.873828 
L 166.275749 187.042895 
L 166.736906 187.159686 
L 167.198063 186.253183 
L 167.65922 188.14548 
L 168.120377 186.173962 
L 168.581534 185.537409 
L 169.042691 184.507913 
L 169.503848 185.289264 
L 169.965005 185.491353 
L 170.887319 185.50605 
L 171.348476 186.706911 
L 172.731947 186.282175 
L 173.193104 187.690941 
L 173.654261 187.862135 
L 174.115418 187.247781 
L 174.576575 187.676233 
L 175.037732 187.559511 
L 175.498889 186.670892 
L 175.960046 186.806549 
L 176.421204 187.357622 
L 176.882361 185.867307 
L 177.343518 187.427715 
L 177.804675 187.569171 
L 178.265832 186.07568 
L 178.726989 187.16852 
L 179.188146 186.5731 
L 180.11046 187.488045 
L 180.571617 188.414262 
L 181.032774 186.39198 
L 181.493931 186.976814 
L 181.955088 187.007496 
L 182.416245 187.455282 
L 182.877402 187.062753 
L 183.338559 187.688059 
L 183.799716 188.913983 
L 184.260873 187.573495 
L 185.183187 187.191744 
L 185.644344 188.389262 
L 186.105501 187.798525 
L 186.566658 188.176457 
L 187.027815 187.385669 
L 187.488972 187.75249 
L 187.950129 188.699782 
L 188.411286 187.992732 
L 189.3336 187.416289 
L 189.794757 187.418395 
L 190.255914 188.303428 
L 190.717071 188.623496 
L 191.178228 187.288899 
L 191.639385 187.427393 
L 192.100542 186.829265 
L 193.484013 187.035494 
L 193.94517 187.28354 
L 194.406327 186.891307 
L 194.867485 186.72 
L 195.328642 188.287451 
L 195.789799 187.859376 
L 196.250956 187.743438 
L 196.712113 188.356273 
L 197.17327 188.02346 
L 197.634427 188.876462 
L 198.095584 188.073269 
L 198.556741 188.013018 
L 199.017898 188.164853 
L 199.940212 188.680438 
L 200.401369 188.271192 
L 200.862526 187.5247 
L 201.323683 188.341547 
L 201.78484 188.324353 
L 202.245997 189.009177 
L 202.707154 188.05667 
L 203.168311 188.160156 
L 204.090625 187.39402 
L 204.551782 188.24029 
L 205.012939 188.117727 
L 205.474096 188.362317 
L 206.39641 187.579802 
L 206.857567 188.523492 
L 207.318724 187.779426 
L 207.779881 188.004608 
L 208.241038 188.050907 
L 208.702195 187.705057 
L 209.624509 188.714194 
L 210.085666 188.091426 
L 210.546823 188.294446 
L 211.00798 188.372829 
L 211.469137 187.862224 
L 212.391451 189.328308 
L 212.852608 188.385363 
L 213.313765 188.20942 
L 213.774923 187.831949 
L 214.23608 189.396933 
L 214.697237 188.005285 
L 215.158394 188.784901 
L 215.619551 187.040929 
L 216.080708 188.521028 
L 216.541865 188.971472 
L 217.003022 189.738808 
L 217.464179 189.229262 
L 217.925336 189.357389 
L 218.386493 188.446275 
L 218.84765 187.861986 
L 219.308807 189.002622 
L 219.769964 188.464863 
L 220.231121 188.759545 
L 220.692278 188.493274 
L 221.614592 187.552388 
L 222.075749 188.515434 
L 222.536906 187.482559 
L 222.998063 188.208671 
L 223.45922 188.294128 
L 223.920377 188.216891 
L 224.381534 187.922589 
L 224.842691 188.012822 
L 225.303848 187.853364 
L 225.765005 187.512304 
L 226.687319 188.52519 
L 227.148476 188.286137 
L 227.609633 188.223808 
L 228.07079 188.930585 
L 228.531947 188.287846 
L 228.993104 187.929877 
L 229.454261 188.750086 
L 229.915418 188.931987 
L 230.376575 188.828422 
L 230.837732 187.992121 
L 231.760046 188.912342 
L 232.682361 188.581938 
L 233.143518 188.857937 
L 233.604675 188.733222 
L 234.065832 188.460897 
L 234.988146 189.477394 
L 235.449303 189.028242 
L 235.91046 189.131799 
L 236.371617 188.861658 
L 236.832774 189.526858 
L 237.293931 189.535713 
L 238.216245 188.843236 
L 238.677402 188.902469 
L 239.138559 188.297058 
L 239.599716 189.54924 
L 240.060873 188.985136 
L 241.444344 189.774629 
L 241.905501 189.788429 
L 242.827815 189.519565 
L 243.288972 190.233118 
L 243.750129 189.702311 
L 244.211286 189.514199 
L 244.672443 190.08353 
L 245.1336 190.008336 
L 245.594757 189.565447 
L 246.055914 189.583096 
L 246.517071 190.037254 
L 246.978228 189.91953 
L 247.900542 190.246258 
L 248.361699 188.569576 
L 248.822856 189.174707 
L 249.284013 189.990945 
L 249.74517 189.358044 
L 250.206327 189.515732 
L 250.667485 190.11674 
L 251.128642 190.121262 
L 251.589799 190.574514 
L 252.050956 190.013054 
L 252.97327 190.082704 
L 253.895584 189.159987 
L 254.356741 189.122912 
L 254.817898 190.043139 
L 255.279055 189.066995 
L 255.740212 189.494748 
L 256.201369 189.70741 
L 256.662526 189.284489 
L 257.123683 188.605509 
L 257.58484 188.988014 
L 258.045997 188.617698 
L 258.507154 189.643596 
L 258.968311 189.470632 
L 259.429468 188.767958 
L 260.351782 188.195484 
L 260.812939 189.182142 
L 261.274096 189.285755 
L 261.735253 188.604241 
L 262.19641 188.630051 
L 263.118724 189.001234 
L 263.579881 188.555197 
L 264.041038 188.711234 
L 264.502195 188.331132 
L 264.963352 188.216426 
L 265.424509 188.946966 
L 265.885666 188.868593 
L 266.346823 186.61303 
L 266.80798 187.3314 
L 267.269137 187.278921 
L 267.730294 188.626443 
L 268.191451 188.356777 
L 268.652608 188.236927 
L 269.113765 189.014136 
L 269.574923 188.35781 
L 270.03608 188.732627 
L 270.497237 188.594183 
L 271.419551 187.977919 
L 271.880708 188.852699 
L 272.341865 188.838792 
L 272.803022 188.572765 
L 273.264179 187.58102 
L 273.725336 188.035673 
L 274.186493 188.068834 
L 274.64765 188.700876 
L 275.108807 188.052588 
L 275.569964 188.169167 
L 276.031121 188.687222 
L 276.492278 187.943018 
L 276.953435 188.021358 
L 277.414592 188.77915 
L 277.875749 187.496709 
L 278.336906 188.089395 
L 278.798063 188.053076 
L 279.25922 188.150853 
L 280.642691 187.922646 
L 281.103848 186.703195 
L 281.565005 187.536367 
L 282.026162 188.008924 
L 282.948476 187.626979 
L 283.409633 187.479456 
L 283.87079 187.854597 
L 284.331947 188.015779 
L 285.254261 187.371093 
L 286.176575 187.613359 
L 286.637732 187.426125 
L 287.098889 187.772992 
L 288.482361 187.031821 
L 288.943518 187.559654 
L 289.404675 187.190519 
L 289.865832 187.5633 
L 290.326989 187.427299 
L 290.788146 187.129459 
L 291.71046 187.940556 
L 292.171617 187.680124 
L 292.632774 187.68277 
L 293.093931 187.422893 
L 293.555088 187.429192 
L 294.016245 187.247293 
L 294.477402 187.229189 
L 294.938559 187.632436 
L 295.399716 187.059433 
L 295.860873 186.9121 
L 296.32203 187.470026 
L 296.783187 186.911189 
L 297.244344 186.861304 
L 298.166658 188.172784 
L 298.627815 188.13753 
L 299.088972 186.583549 
L 300.011286 187.521703 
L 300.472443 186.950001 
L 300.9336 187.320842 
L 301.394757 187.351116 
L 301.855914 187.18988 
L 302.317071 187.486731 
L 302.778228 187.064197 
L 303.239385 188.068991 
L 303.700542 187.438666 
L 304.161699 187.525588 
L 304.622856 187.213787 
L 305.084013 187.064928 
L 305.54517 187.534254 
L 306.006327 186.999843 
L 306.467485 186.926129 
L 307.389799 187.337595 
L 307.850956 187.268334 
L 308.312113 187.325297 
L 309.234427 188.006475 
L 309.695584 187.257402 
L 310.156741 187.061195 
L 310.617898 187.293884 
L 311.079055 187.793211 
L 311.540212 187.372868 
L 312.001369 187.207817 
L 312.462526 187.337196 
L 312.923683 187.697688 
L 313.38484 187.695944 
L 313.845997 187.416677 
L 314.307154 187.27155 
L 314.768311 187.498069 
L 315.229468 186.499071 
L 315.690625 187.45085 
L 316.151782 187.487471 
L 317.074096 187.079629 
L 317.535253 187.896338 
L 317.99641 188.090981 
L 318.457567 187.424129 
L 318.918724 187.19887 
L 319.379881 187.659776 
L 319.841038 187.411044 
L 320.302195 188.069676 
L 321.224509 187.84988 
L 321.685666 187.070756 
L 322.146823 187.950427 
L 323.069137 187.633012 
L 323.530294 188.045176 
L 323.991451 187.762842 
L 324.452608 188.078089 
L 324.913765 187.860503 
L 325.374923 187.220608 
L 325.83608 187.392386 
L 326.758394 187.36011 
L 327.219551 187.501666 
L 327.680708 187.962535 
L 328.141865 188.130643 
L 328.603022 187.961241 
L 329.064179 188.060456 
L 329.525336 187.395321 
L 329.986493 188.152944 
L 330.908807 187.777553 
L 331.369964 188.221934 
L 331.831121 188.327467 
L 332.292278 187.334414 
L 332.753435 187.575282 
L 333.214592 187.386209 
L 333.675749 187.621626 
L 334.598063 187.691807 
L 335.05922 187.598309 
L 335.520377 187.866171 
L 335.981534 188.502235 
L 336.442691 187.314569 
L 336.903848 187.493962 
L 337.365005 187.450727 
L 337.826162 187.814029 
L 338.287319 187.417195 
L 338.748476 187.974649 
L 339.67079 187.508638 
L 340.131947 187.346572 
L 340.593104 187.041069 
L 341.054261 187.641585 
L 341.515418 186.948475 
L 342.898889 187.407369 
L 343.360046 187.783451 
L 343.821204 186.782889 
L 344.282361 186.524814 
L 344.743518 187.174069 
L 345.204675 186.954514 
L 346.126989 187.170452 
L 346.588146 186.948924 
L 347.049303 187.357923 
L 347.51046 186.64722 
L 347.971617 186.591312 
L 348.432774 187.170567 
L 348.893931 186.922178 
L 349.355088 187.859855 
L 349.816245 187.608934 
L 350.277402 186.862467 
L 350.738559 187.229374 
L 351.199716 187.81697 
L 351.660873 187.636123 
L 352.12203 187.21291 
L 352.583187 187.445551 
L 353.044344 188.112018 
L 353.505501 187.574905 
L 353.966658 188.25343 
L 354.888972 187.376497 
L 355.350129 187.700975 
L 355.811286 187.308583 
L 356.7336 187.314403 
L 357.194757 186.835633 
L 357.655914 187.844397 
L 359.039385 187.208921 
L 359.500542 186.666028 
L 359.961699 187.334858 
L 360.422856 186.874302 
L 361.34517 187.869404 
L 361.806327 187.228491 
L 362.267485 187.823869 
L 362.728642 187.239268 
L 363.189799 187.020496 
L 363.650956 187.197063 
L 364.112113 187.932748 
L 364.57327 187.430735 
L 365.034427 187.394432 
L 365.495584 187.476013 
L 365.956741 187.297475 
L 366.417898 187.682553 
L 367.340212 187.372028 
L 367.801369 187.628201 
L 368.262526 186.783212 
L 368.723683 187.074856 
L 369.18484 186.839405 
L 369.645997 187.515935 
L 370.107154 187.763284 
L 370.568311 187.505691 
L 371.029468 186.969055 
L 371.490625 187.109494 
L 371.951782 187.535298 
L 372.412939 187.599074 
L 372.874096 187.05674 
L 373.335253 187.478947 
L 373.79641 186.890404 
L 374.257567 187.426476 
L 374.718724 186.929427 
L 375.641038 187.451987 
L 376.102195 187.646823 
L 376.563352 187.341754 
L 377.485666 187.365084 
L 377.946823 188.043789 
L 378.40798 187.491406 
L 378.869137 187.225406 
L 380.252608 187.781165 
L 380.713765 187.21531 
L 381.174923 187.431781 
L 381.63608 187.030991 
L 382.097237 187.667348 
L 382.558394 187.632509 
L 383.019551 187.483169 
L 383.480708 187.892397 
L 383.941865 188.030297 
L 384.403022 187.892854 
L 384.864179 187.209789 
L 385.325336 187.498252 
L 385.786493 187.144424 
L 386.24765 187.409736 
L 386.708807 187.265258 
L 387.169964 187.92355 
L 387.631121 187.202294 
L 388.092278 188.344075 
L 388.553435 187.628879 
L 389.014592 187.287634 
L 389.475749 187.250385 
L 389.936906 187.988552 
L 390.398063 187.071004 
L 390.85922 187.082474 
L 391.320377 187.294689 
L 391.781534 187.221526 
L 392.242691 187.028633 
L 392.703848 185.158508 
L 393.165005 184.299615 
L 393.626162 184.500074 
L 394.087319 185.277536 
L 395.009633 185.268716 
L 395.47079 185.015152 
L 395.931947 185.796076 
L 396.393104 185.957616 
L 396.854261 185.848003 
L 397.776575 185.892563 
L 398.698889 185.735179 
L 399.160046 186.276245 
L 399.621204 185.92426 
L 400.082361 186.247262 
L 400.543518 186.411477 
L 401.004675 185.734071 
L 401.465832 185.479624 
L 401.926989 185.718253 
L 402.388146 185.690473 
L 402.849303 186.112403 
L 403.31046 186.273486 
L 403.771617 186.295534 
L 404.232774 185.989211 
L 404.693931 186.997044 
L 405.616245 186.170765 
L 406.077402 185.977352 
L 406.999716 186.875185 
L 407.460873 185.986072 
L 407.92203 185.923514 
L 408.383187 186.399051 
L 408.844344 186.190623 
L 409.305501 186.267194 
L 409.766658 186.775894 
L 410.227815 186.365425 
L 410.688972 186.908483 
L 411.150129 186.091172 
L 411.611286 185.744954 
L 412.072443 186.419137 
L 412.5336 186.485364 
L 412.994757 186.161955 
L 413.455914 186.35255 
L 415.300542 186.435734 
L 415.761699 186.270934 
L 416.222856 186.280163 
L 416.684013 186.571571 
L 417.14517 186.277754 
L 417.606327 186.138949 
L 418.067485 186.467975 
L 418.528642 186.182124 
L 418.989799 186.297055 
L 419.912113 186.071706 
L 420.37327 185.619711 
L 420.834427 186.231998 
L 421.295584 186.019974 
L 421.756741 186.273818 
L 423.140212 186.389846 
L 423.601369 186.049325 
L 424.062526 186.585675 
L 424.523683 185.907984 
L 424.98484 185.839286 
L 425.907154 185.906247 
L 426.368311 186.203396 
L 426.829468 186.185789 
L 428.212939 186.534952 
L 428.674096 186.425753 
L 429.135253 187.20929 
L 429.59641 186.719798 
L 430.057567 186.52465 
L 430.518724 186.153964 
L 430.979881 186.784297 
L 431.441038 186.40804 
L 432.363352 186.201713 
L 432.824509 186.48308 
L 434.669137 186.353096 
L 435.591451 186.642501 
L 436.052608 186.526376 
L 436.513765 185.881085 
L 436.974923 185.85757 
L 437.897237 186.964825 
L 438.358394 187.053255 
L 438.819551 186.680356 
L 439.280708 186.720612 
L 439.741865 186.554846 
L 440.203022 186.154126 
L 441.125336 186.243824 
L 441.586493 186.221894 
L 442.04765 185.734358 
L 442.508807 186.339099 
L 442.969964 186.253976 
L 443.431121 186.357352 
L 443.892278 186.635677 
L 444.353435 186.454912 
L 444.814592 186.401728 
L 445.275749 186.75468 
L 445.736906 186.846287 
L 446.198063 186.299263 
L 446.65922 186.117263 
L 447.120377 186.345605 
L 447.581534 186.360191 
L 448.042691 186.623006 
L 448.503848 186.388703 
L 448.965005 186.617551 
L 449.426162 186.09062 
L 449.887319 186.586596 
L 450.348476 186.190007 
L 450.809633 186.660059 
L 451.27079 186.198314 
L 451.731947 186.091641 
L 452.654261 185.492679 
L 453.115418 185.887332 
L 454.037732 186.26005 
L 454.960046 185.864112 
L 455.421204 186.417145 
L 455.882361 186.632897 
L 456.343518 185.933708 
L 456.804675 186.047637 
L 457.265832 186.288551 
L 457.726989 185.935597 
L 458.188146 186.265923 
L 458.649303 185.779064 
L 459.11046 186.225575 
L 459.571617 186.262343 
L 460.032774 186.175022 
L 460.955088 186.227135 
L 461.416245 186.45161 
L 461.877402 185.973284 
L 462.338559 186.244271 
L 462.799716 186.168642 
L 463.260873 185.807737 
L 463.72203 185.955103 
L 464.183187 185.719193 
L 464.644344 185.649423 
L 465.105501 185.813152 
L 465.566658 185.62288 
L 466.027815 185.698558 
L 466.488972 186.135217 
L 466.950129 186.148878 
L 467.411286 185.919774 
L 467.872443 186.061994 
L 468.3336 185.963711 
L 468.794757 186.235315 
L 470.639385 185.818094 
L 471.100542 185.097689 
L 471.561699 185.180212 
L 472.022856 185.592678 
L 472.484013 185.437189 
L 472.94517 185.40739 
L 473.406327 185.814178 
L 473.867485 185.288091 
L 474.328642 185.297282 
L 474.789799 185.748318 
L 475.250956 186.011659 
L 475.712113 185.750687 
L 476.17327 185.921088 
L 477.095584 185.553697 
L 477.556741 185.815104 
L 478.017898 186.233264 
L 478.479055 186.316116 
L 478.940212 186.106491 
L 479.401369 186.302507 
L 480.323683 186.116011 
L 480.78484 186.737963 
L 481.245997 186.254033 
L 481.707154 186.364181 
L 482.168311 186.005004 
L 483.551782 185.818936 
L 484.012939 186.107107 
L 484.935253 186.203682 
L 485.39641 185.955973 
L 485.857567 186.32537 
L 486.318724 185.95286 
L 486.779881 186.028157 
L 487.241038 185.742714 
L 487.702195 185.72313 
L 488.163352 186.013151 
L 489.085666 185.709862 
L 490.00798 185.929628 
L 490.469137 185.404373 
L 490.930294 185.736935 
L 491.391451 186.478309 
L 491.852608 185.97255 
L 492.313765 186.223972 
L 492.774923 185.852485 
L 493.23608 186.132174 
L 493.697237 186.277131 
L 494.158394 186.02464 
L 494.619551 186.005793 
L 495.080708 185.790291 
L 495.541865 185.379349 
L 496.003022 185.745231 
L 496.925336 185.577989 
L 497.386493 185.490213 
L 497.84765 185.71399 
L 498.308807 185.547125 
L 498.769964 186.376341 
L 499.231121 185.685145 
L 499.692278 185.437634 
L 500.153435 185.782203 
L 500.614592 185.450856 
L 501.075749 185.439633 
L 501.998063 185.955089 
L 502.45922 185.591906 
L 503.381534 185.952991 
L 503.842691 185.654438 
L 504.303848 185.861792 
L 504.765005 185.674963 
L 505.226162 185.971651 
L 505.687319 186.050419 
L 506.148476 185.671561 
L 506.609633 185.714797 
L 507.07079 185.910593 
L 507.531947 185.816853 
L 507.993104 185.941182 
L 508.454261 185.56361 
L 508.915418 185.856095 
L 509.376575 185.937247 
L 509.837732 185.525211 
L 510.760046 185.502809 
L 511.221204 185.799641 
L 511.682361 185.316523 
L 512.143518 185.723265 
L 512.604675 185.748763 
L 513.065832 185.469673 
L 513.526989 186.073279 
L 513.988146 185.85243 
L 514.449303 186.304317 
L 514.91046 185.806278 
L 515.371617 185.647092 
L 515.832774 185.774718 
L 516.293931 185.772281 
L 516.755088 185.331673 
L 517.216245 185.665762 
L 517.677402 185.342823 
L 519.060873 186.082109 
L 519.52203 186.089877 
L 519.983187 184.787684 
L 520.444344 185.59565 
L 521.366658 185.976348 
L 521.827815 185.979838 
L 522.288972 185.464481 
L 523.211286 185.766317 
L 523.672443 185.304157 
L 524.1336 185.241858 
L 524.594757 185.630348 
L 525.517071 185.863152 
L 525.978228 185.674776 
L 526.439385 185.842227 
L 526.900542 185.839063 
L 527.361699 185.343559 
L 528.284013 185.748516 
L 528.74517 185.667737 
L 529.206327 185.860776 
L 529.667485 185.722093 
L 530.128642 185.396313 
L 530.589799 185.506255 
L 531.050956 185.501576 
L 531.512113 185.122117 
L 531.97327 185.89944 
L 532.434427 185.378716 
L 532.895584 185.717443 
L 533.356741 185.3795 
L 533.817898 185.614582 
L 534.740212 185.826792 
L 535.201369 185.921637 
L 536.123683 185.273631 
L 536.58484 185.393312 
L 537.045997 185.974657 
L 537.507154 184.983217 
L 538.429468 185.771134 
L 538.890625 185.812377 
L 539.351782 185.487687 
L 540.274096 185.658713 
L 540.735253 185.350863 
L 541.19641 185.208361 
L 541.657567 185.581589 
L 542.118724 185.215886 
L 542.579881 185.230168 
L 543.502195 184.996668 
L 544.424509 185.660728 
L 544.885666 185.400554 
L 545.346823 185.493324 
L 546.269137 185.242921 
L 546.730294 185.382258 
L 547.191451 185.666778 
L 548.113765 185.047268 
L 549.03608 185.643121 
L 549.497237 185.291113 
L 549.958394 185.600169 
L 550.419551 185.163958 
L 550.880708 185.262357 
L 551.341865 185.641168 
L 551.803022 185.21704 
L 552.264179 185.502371 
L 552.725336 185.237078 
L 553.186493 185.503319 
L 553.64765 184.951404 
L 554.108807 185.278299 
L 554.569964 185.06473 
L 555.031121 185.618755 
L 556.414592 184.901788 
L 556.875749 185.055061 
L 557.336906 185.341415 
L 557.798063 185.35212 
L 558.25922 185.230386 
L 558.720377 185.557566 
L 559.181534 185.138828 
L 560.103848 185.212811 
L 560.565005 185.110931 
L 561.026162 184.766846 
L 561.487319 185.098531 
L 561.948476 184.858957 
L 562.409633 185.366991 
L 562.87079 184.832966 
L 563.331947 185.304899 
L 563.793104 185.348768 
L 564.254261 185.019933 
L 564.715418 184.066157 
L 565.176575 184.953365 
L 565.637732 185.029033 
L 566.098889 184.580125 
L 567.021204 184.812666 
L 567.482361 185.011276 
L 567.943518 185.488328 
L 568.404675 184.839575 
L 568.865832 185.246628 
L 569.326989 185.46906 
L 570.249303 184.708155 
L 570.71046 184.612363 
L 571.171617 185.073962 
L 571.632774 185.00207 
L 572.093931 184.667401 
L 572.555088 185.660946 
L 573.016245 185.387543 
L 573.477402 184.887928 
L 573.938559 184.554148 
L 575.32203 184.994997 
L 575.783187 184.615874 
L 576.705501 185.217749 
L 577.166658 184.890171 
L 577.627815 185.107049 
L 578.088972 184.634478 
L 579.9336 185.260286 
L 580.394757 184.963435 
L 580.855914 185.088686 
L 581.317071 184.95617 
L 581.778228 185.05309 
L 582.239385 185.289761 
L 582.700542 185.137012 
L 583.161699 185.338344 
L 584.084013 184.990153 
L 585.467485 185.089635 
L 585.928642 185.092262 
L 586.389799 184.908988 
L 586.850956 184.89784 
L 587.312113 185.154122 
L 587.77327 185.214908 
L 588.234427 185.076644 
L 588.695584 185.285548 
L 589.156741 185.064083 
L 589.617898 185.229144 
L 590.079055 184.883728 
L 590.540212 184.752453 
L 591.001369 185.124473 
L 591.462526 184.638999 
L 591.923683 184.873653 
L 592.38484 185.464575 
L 592.845997 185.312124 
L 593.768311 185.285787 
L 594.229468 185.473608 
L 594.690625 184.54076 
L 595.151782 184.928677 
L 595.612939 185.16694 
L 596.074096 184.770681 
L 596.535253 184.939562 
L 596.99641 184.880314 
L 597.457567 185.155055 
L 597.918724 184.841595 
L 598.379881 185.55881 
L 598.841038 185.067812 
L 599.302195 184.951094 
L 599.763352 185.066114 
L 600.224509 184.687902 
L 600.685666 184.900511 
L 601.146823 184.912242 
L 601.60798 184.660179 
L 602.530294 184.620449 
L 602.991451 184.937311 
L 603.452608 184.615958 
L 603.913765 184.728864 
L 604.374923 184.961336 
L 605.297237 184.537369 
L 606.680708 184.902272 
L 607.141865 185.005211 
L 607.603022 184.782223 
L 608.064179 184.413976 
L 608.525336 184.733595 
L 609.44765 184.808739 
L 609.908807 185.145023 
L 610.369964 184.699711 
L 610.831121 184.865599 
L 611.292278 184.612051 
L 611.753435 185.049187 
L 612.675749 185.289952 
L 613.136906 184.809121 
L 613.598063 185.01908 
L 614.05922 184.829658 
L 614.520377 184.945658 
L 615.442691 184.921307 
L 615.903848 185.744583 
L 616.365005 185.289857 
L 617.748476 185.204668 
L 618.209633 185.02375 
L 618.67079 185.851191 
L 619.131947 185.202026 
L 619.593104 185.299428 
L 620.054261 185.258903 
L 620.515418 185.765713 
L 620.976575 185.017931 
L 621.437732 185.223402 
L 621.898889 184.843359 
L 622.360046 185.161111 
L 622.821204 184.758296 
L 623.282361 184.801805 
L 623.743518 185.203225 
L 624.204675 184.830448 
L 624.665832 185.276529 
L 625.126989 185.156063 
L 625.126989 185.156063 
" clip-path="url(#p2d7c974124)" style="fill: none; stroke: #ff7f0e; stroke-width: 1.5; stroke-linecap: square"/>
   </g>
   <g id="patch_3">
    <path d="M 92.490625 308.63625 
L 92.490625 31.43625 
" style="fill: none; stroke: #000000; stroke-width: 0.8; stroke-linejoin: miter; stroke-linecap: square"/>
   </g>
   <g id="patch_4">
    <path d="M 650.490625 308.63625 
L 650.490625 31.43625 
" style="fill: none; stroke: #000000; stroke-width: 0.8; stroke-linejoin: miter; stroke-linecap: square"/>
   </g>
   <g id="patch_5">
    <path d="M 92.490625 308.63625 
L 650.490625 308.63625 
" style="fill: none; stroke: #000000; stroke-width: 0.8; stroke-linejoin: miter; stroke-linecap: square"/>
   </g>
   <g id="patch_6">
    <path d="M 92.490625 31.43625 
L 650.490625 31.43625 
" style="fill: none; stroke: #000000; stroke-width: 0.8; stroke-linejoin: miter; stroke-linecap: square"/>
   </g>
   <g id="text_14">
    <!-- Generator and Discriminator Loss During Training -->
    <g transform="translate(74.258125 25.43625) scale(0.24 -0.24)">
     <defs>
      <path id="DejaVuSans-47" d="M 3809 666 
L 3809 1919 
L 2778 1919 
L 2778 2438 
L 4434 2438 
L 4434 434 
Q 4069 175 3628 42 
Q 3188 -91 2688 -91 
Q 1594 -91 976 548 
Q 359 1188 359 2328 
Q 359 3472 976 4111 
Q 1594 4750 2688 4750 
Q 3144 4750 3555 4637 
Q 3966 4525 4313 4306 
L 4313 3634 
Q 3963 3931 3569 4081 
Q 3175 4231 2741 4231 
Q 1884 4231 1454 3753 
Q 1025 3275 1025 2328 
Q 1025 1384 1454 906 
Q 1884 428 2741 428 
Q 3075 428 3337 486 
Q 3600 544 3809 666 
z
" transform="scale(0.015625)"/>
      <path id="DejaVuSans-20" transform="scale(0.015625)"/>
      <path id="DejaVuSans-64" d="M 2906 2969 
L 2906 4863 
L 3481 4863 
L 3481 0 
L 2906 0 
L 2906 525 
Q 2725 213 2448 61 
Q 2172 -91 1784 -91 
Q 1150 -91 751 415 
Q 353 922 353 1747 
Q 353 2572 751 3078 
Q 1150 3584 1784 3584 
Q 2172 3584 2448 3432 
Q 2725 3281 2906 2969 
z
M 947 1747 
Q 947 1113 1208 752 
Q 1469 391 1925 391 
Q 2381 391 2643 752 
Q 2906 1113 2906 1747 
Q 2906 2381 2643 2742 
Q 2381 3103 1925 3103 
Q 1469 3103 1208 2742 
Q 947 2381 947 1747 
z
" transform="scale(0.015625)"/>
      <path id="DejaVuSans-44" d="M 1259 4147 
L 1259 519 
L 2022 519 
Q 2988 519 3436 956 
Q 3884 1394 3884 2338 
Q 3884 3275 3436 3711 
Q 2988 4147 2022 4147 
L 1259 4147 
z
M 628 4666 
L 1925 4666 
Q 3281 4666 3915 4102 
Q 4550 3538 4550 2338 
Q 4550 1131 3912 565 
Q 3275 0 1925 0 
L 628 0 
L 628 4666 
z
" transform="scale(0.015625)"/>
      <path id="DejaVuSans-63" d="M 3122 3366 
L 3122 2828 
Q 2878 2963 2633 3030 
Q 2388 3097 2138 3097 
Q 1578 3097 1268 2742 
Q 959 2388 959 1747 
Q 959 1106 1268 751 
Q 1578 397 2138 397 
Q 2388 397 2633 464 
Q 2878 531 3122 666 
L 3122 134 
Q 2881 22 2623 -34 
Q 2366 -91 2075 -91 
Q 1284 -91 818 406 
Q 353 903 353 1747 
Q 353 2603 823 3093 
Q 1294 3584 2113 3584 
Q 2378 3584 2631 3529 
Q 2884 3475 3122 3366 
z
" transform="scale(0.015625)"/>
      <path id="DejaVuSans-6d" d="M 3328 2828 
Q 3544 3216 3844 3400 
Q 4144 3584 4550 3584 
Q 5097 3584 5394 3201 
Q 5691 2819 5691 2113 
L 5691 0 
L 5113 0 
L 5113 2094 
Q 5113 2597 4934 2840 
Q 4756 3084 4391 3084 
Q 3944 3084 3684 2787 
Q 3425 2491 3425 1978 
L 3425 0 
L 2847 0 
L 2847 2094 
Q 2847 2600 2669 2842 
Q 2491 3084 2119 3084 
Q 1678 3084 1418 2786 
Q 1159 2488 1159 1978 
L 1159 0 
L 581 0 
L 581 3500 
L 1159 3500 
L 1159 2956 
Q 1356 3278 1631 3431 
Q 1906 3584 2284 3584 
Q 2666 3584 2933 3390 
Q 3200 3197 3328 2828 
z
" transform="scale(0.015625)"/>
      <path id="DejaVuSans-75" d="M 544 1381 
L 544 3500 
L 1119 3500 
L 1119 1403 
Q 1119 906 1312 657 
Q 1506 409 1894 409 
Q 2359 409 2629 706 
Q 2900 1003 2900 1516 
L 2900 3500 
L 3475 3500 
L 3475 0 
L 2900 0 
L 2900 538 
Q 2691 219 2414 64 
Q 2138 -91 1772 -91 
Q 1169 -91 856 284 
Q 544 659 544 1381 
z
M 1991 3584 
L 1991 3584 
z
" transform="scale(0.015625)"/>
      <path id="DejaVuSans-67" d="M 2906 1791 
Q 2906 2416 2648 2759 
Q 2391 3103 1925 3103 
Q 1463 3103 1205 2759 
Q 947 2416 947 1791 
Q 947 1169 1205 825 
Q 1463 481 1925 481 
Q 2391 481 2648 825 
Q 2906 1169 2906 1791 
z
M 3481 434 
Q 3481 -459 3084 -895 
Q 2688 -1331 1869 -1331 
Q 1566 -1331 1297 -1286 
Q 1028 -1241 775 -1147 
L 775 -588 
Q 1028 -725 1275 -790 
Q 1522 -856 1778 -856 
Q 2344 -856 2625 -561 
Q 2906 -266 2906 331 
L 2906 616 
Q 2728 306 2450 153 
Q 2172 0 1784 0 
Q 1141 0 747 490 
Q 353 981 353 1791 
Q 353 2603 747 3093 
Q 1141 3584 1784 3584 
Q 2172 3584 2450 3431 
Q 2728 3278 2906 2969 
L 2906 3500 
L 3481 3500 
L 3481 434 
z
" transform="scale(0.015625)"/>
      <path id="DejaVuSans-54" d="M -19 4666 
L 3928 4666 
L 3928 4134 
L 2272 4134 
L 2272 0 
L 1638 0 
L 1638 4134 
L -19 4134 
L -19 4666 
z
" transform="scale(0.015625)"/>
     </defs>
     <use xlink:href="#DejaVuSans-47"/>
     <use xlink:href="#DejaVuSans-65" x="77.490234"/>
     <use xlink:href="#DejaVuSans-6e" x="139.013672"/>
     <use xlink:href="#DejaVuSans-65" x="202.392578"/>
     <use xlink:href="#DejaVuSans-72" x="263.916016"/>
     <use xlink:href="#DejaVuSans-61" x="305.029297"/>
     <use xlink:href="#DejaVuSans-74" x="366.308594"/>
     <use xlink:href="#DejaVuSans-6f" x="405.517578"/>
     <use xlink:href="#DejaVuSans-72" x="466.699219"/>
     <use xlink:href="#DejaVuSans-20" x="507.8125"/>
     <use xlink:href="#DejaVuSans-61" x="539.599609"/>
     <use xlink:href="#DejaVuSans-6e" x="600.878906"/>
     <use xlink:href="#DejaVuSans-64" x="664.257812"/>
     <use xlink:href="#DejaVuSans-20" x="727.734375"/>
     <use xlink:href="#DejaVuSans-44" x="759.521484"/>
     <use xlink:href="#DejaVuSans-69" x="836.523438"/>
     <use xlink:href="#DejaVuSans-73" x="864.306641"/>
     <use xlink:href="#DejaVuSans-63" x="916.40625"/>
     <use xlink:href="#DejaVuSans-72" x="971.386719"/>
     <use xlink:href="#DejaVuSans-69" x="1012.5"/>
     <use xlink:href="#DejaVuSans-6d" x="1040.283203"/>
     <use xlink:href="#DejaVuSans-69" x="1137.695312"/>
     <use xlink:href="#DejaVuSans-6e" x="1165.478516"/>
     <use xlink:href="#DejaVuSans-61" x="1228.857422"/>
     <use xlink:href="#DejaVuSans-74" x="1290.136719"/>
     <use xlink:href="#DejaVuSans-6f" x="1329.345703"/>
     <use xlink:href="#DejaVuSans-72" x="1390.527344"/>
     <use xlink:href="#DejaVuSans-20" x="1431.640625"/>
     <use xlink:href="#DejaVuSans-4c" x="1463.427734"/>
     <use xlink:href="#DejaVuSans-6f" x="1517.390625"/>
     <use xlink:href="#DejaVuSans-73" x="1578.572266"/>
     <use xlink:href="#DejaVuSans-73" x="1630.671875"/>
     <use xlink:href="#DejaVuSans-20" x="1682.771484"/>
     <use xlink:href="#DejaVuSans-44" x="1714.558594"/>
     <use xlink:href="#DejaVuSans-75" x="1791.560547"/>
     <use xlink:href="#DejaVuSans-72" x="1854.939453"/>
     <use xlink:href="#DejaVuSans-69" x="1896.052734"/>
     <use xlink:href="#DejaVuSans-6e" x="1923.835938"/>
     <use xlink:href="#DejaVuSans-67" x="1987.214844"/>
     <use xlink:href="#DejaVuSans-20" x="2050.691406"/>
     <use xlink:href="#DejaVuSans-54" x="2082.478516"/>
     <use xlink:href="#DejaVuSans-72" x="2128.8125"/>
     <use xlink:href="#DejaVuSans-61" x="2169.925781"/>
     <use xlink:href="#DejaVuSans-69" x="2231.205078"/>
     <use xlink:href="#DejaVuSans-6e" x="2258.988281"/>
     <use xlink:href="#DejaVuSans-69" x="2322.367188"/>
     <use xlink:href="#DejaVuSans-6e" x="2350.150391"/>
     <use xlink:href="#DejaVuSans-67" x="2413.529297"/>
    </g>
   </g>
   <g id="legend_1">
    <g id="patch_7">
     <path d="M 556.99375 106.14875 
L 636.490625 106.14875 
Q 640.490625 106.14875 640.490625 102.14875 
L 640.490625 45.43625 
Q 640.490625 41.43625 636.490625 41.43625 
L 556.99375 41.43625 
Q 552.99375 41.43625 552.99375 45.43625 
L 552.99375 102.14875 
Q 552.99375 106.14875 556.99375 106.14875 
z
" style="fill: #ffffff; opacity: 0.8; stroke: #cccccc; stroke-linejoin: miter"/>
    </g>
    <g id="line2d_14">
     <path d="M 560.99375 57.633125 
L 580.99375 57.633125 
L 600.99375 57.633125 
" style="fill: none; stroke: #1f77b4; stroke-width: 1.5; stroke-linecap: square"/>
    </g>
    <g id="text_15">
     <!-- G -->
     <g transform="translate(616.99375 64.633125) scale(0.2 -0.2)">
      <use xlink:href="#DejaVuSans-47"/>
     </g>
    </g>
    <g id="line2d_15">
     <path d="M 560.99375 86.989375 
L 580.99375 86.989375 
L 600.99375 86.989375 
" style="fill: none; stroke: #ff7f0e; stroke-width: 1.5; stroke-linecap: square"/>
    </g>
    <g id="text_16">
     <!-- D -->
     <g transform="translate(616.99375 93.989375) scale(0.2 -0.2)">
      <use xlink:href="#DejaVuSans-44"/>
     </g>
    </g>
   </g>
  </g>
 </g>
 <defs>
  <clipPath id="p2d7c974124">
   <rect x="92.490625" y="31.43625" width="558" height="277.2"/>
  </clipPath>
 </defs>
</svg>
