<?xml version="1.0" encoding="utf-8" standalone="no"?>
<!DOCTYPE svg PUBLIC "-//W3C//DTD SVG 1.1//EN"
  "http://www.w3.org/Graphics/SVG/1.1/DTD/svg11.dtd">
<svg xmlns:xlink="http://www.w3.org/1999/xlink" width="675.923125pt" height="365.54875pt" viewBox="0 0 675.923125 365.54875" xmlns="http://www.w3.org/2000/svg" version="1.1">
 <metadata>
  <rdf:RDF xmlns:dc="http://purl.org/dc/elements/1.1/" xmlns:cc="http://creativecommons.org/ns#" xmlns:rdf="http://www.w3.org/1999/02/22-rdf-syntax-ns#">
   <cc:Work>
    <dc:type rdf:resource="http://purl.org/dc/dcmitype/StillImage"/>
    <dc:date>2024-02-02T15:54:49.083822</dc:date>
    <dc:format>image/svg+xml</dc:format>
    <dc:creator>
     <cc:Agent>
      <dc:title>Matplotlib v3.7.2, https://matplotlib.org/</dc:title>
     </cc:Agent>
    </dc:creator>
   </cc:Work>
  </rdf:RDF>
 </metadata>
 <defs>
  <style type="text/css">*{stroke-linejoin: round; stroke-linecap: butt}</style>
 </defs>
 <g id="figure_1">
  <g id="patch_1">
   <path d="M 0 365.54875 
L 675.923125 365.54875 
L 675.923125 -0 
L 0 -0 
z
" style="fill: #ffffff"/>
  </g>
  <g id="axes_1">
   <g id="patch_2">
    <path d="M 92.490625 308.63625 
L 650.490625 308.63625 
L 650.490625 31.43625 
L 92.490625 31.43625 
z
" style="fill: #ffffff"/>
   </g>
   <g id="matplotlib.axis_1">
    <g id="xtick_1">
     <g id="line2d_1">
      <defs>
       <path id="m177678e9e8" d="M 0 0 
L 0 3.5 
" style="stroke: #000000; stroke-width: 0.8"/>
      </defs>
      <g>
       <use xlink:href="#m177678e9e8" x="117.854261" y="308.63625" style="stroke: #000000; stroke-width: 0.8"/>
      </g>
     </g>
     <g id="text_1">
      <!-- 0 -->
      <g transform="translate(111.491761 330.833125) scale(0.2 -0.2)">
       <defs>
        <path id="DejaVuSans-30" d="M 2034 4250 
Q 1547 4250 1301 3770 
Q 1056 3291 1056 2328 
Q 1056 1369 1301 889 
Q 1547 409 2034 409 
Q 2525 409 2770 889 
Q 3016 1369 3016 2328 
Q 3016 3291 2770 3770 
Q 2525 4250 2034 4250 
z
M 2034 4750 
Q 2819 4750 3233 4129 
Q 3647 3509 3647 2328 
Q 3647 1150 3233 529 
Q 2819 -91 2034 -91 
Q 1250 -91 836 529 
Q 422 1150 422 2328 
Q 422 3509 836 4129 
Q 1250 4750 2034 4750 
z
" transform="scale(0.015625)"/>
       </defs>
       <use xlink:href="#DejaVuSans-30"/>
      </g>
     </g>
    </g>
    <g id="xtick_2">
     <g id="line2d_2">
      <g>
       <use xlink:href="#m177678e9e8" x="185.490625" y="308.63625" style="stroke: #000000; stroke-width: 0.8"/>
      </g>
     </g>
     <g id="text_2">
      <!-- 200 -->
      <g transform="translate(166.403125 330.833125) scale(0.2 -0.2)">
       <defs>
        <path id="DejaVuSans-32" d="M 1228 531 
L 3431 531 
L 3431 0 
L 469 0 
L 469 531 
Q 828 903 1448 1529 
Q 2069 2156 2228 2338 
Q 2531 2678 2651 2914 
Q 2772 3150 2772 3378 
Q 2772 3750 2511 3984 
Q 2250 4219 1831 4219 
Q 1534 4219 1204 4116 
Q 875 4013 500 3803 
L 500 4441 
Q 881 4594 1212 4672 
Q 1544 4750 1819 4750 
Q 2544 4750 2975 4387 
Q 3406 4025 3406 3419 
Q 3406 3131 3298 2873 
Q 3191 2616 2906 2266 
Q 2828 2175 2409 1742 
Q 1991 1309 1228 531 
z
" transform="scale(0.015625)"/>
       </defs>
       <use xlink:href="#DejaVuSans-32"/>
       <use xlink:href="#DejaVuSans-30" x="63.623047"/>
       <use xlink:href="#DejaVuSans-30" x="127.246094"/>
      </g>
     </g>
    </g>
    <g id="xtick_3">
     <g id="line2d_3">
      <g>
       <use xlink:href="#m177678e9e8" x="253.126989" y="308.63625" style="stroke: #000000; stroke-width: 0.8"/>
      </g>
     </g>
     <g id="text_3">
      <!-- 400 -->
      <g transform="translate(234.039489 330.833125) scale(0.2 -0.2)">
       <defs>
        <path id="DejaVuSans-34" d="M 2419 4116 
L 825 1625 
L 2419 1625 
L 2419 4116 
z
M 2253 4666 
L 3047 4666 
L 3047 1625 
L 3713 1625 
L 3713 1100 
L 3047 1100 
L 3047 0 
L 2419 0 
L 2419 1100 
L 313 1100 
L 313 1709 
L 2253 4666 
z
" transform="scale(0.015625)"/>
       </defs>
       <use xlink:href="#DejaVuSans-34"/>
       <use xlink:href="#DejaVuSans-30" x="63.623047"/>
       <use xlink:href="#DejaVuSans-30" x="127.246094"/>
      </g>
     </g>
    </g>
    <g id="xtick_4">
     <g id="line2d_4">
      <g>
       <use xlink:href="#m177678e9e8" x="320.763352" y="308.63625" style="stroke: #000000; stroke-width: 0.8"/>
      </g>
     </g>
     <g id="text_4">
      <!-- 600 -->
      <g transform="translate(301.675852 330.833125) scale(0.2 -0.2)">
       <defs>
        <path id="DejaVuSans-36" d="M 2113 2584 
Q 1688 2584 1439 2293 
Q 1191 2003 1191 1497 
Q 1191 994 1439 701 
Q 1688 409 2113 409 
Q 2538 409 2786 701 
Q 3034 994 3034 1497 
Q 3034 2003 2786 2293 
Q 2538 2584 2113 2584 
z
M 3366 4563 
L 3366 3988 
Q 3128 4100 2886 4159 
Q 2644 4219 2406 4219 
Q 1781 4219 1451 3797 
Q 1122 3375 1075 2522 
Q 1259 2794 1537 2939 
Q 1816 3084 2150 3084 
Q 2853 3084 3261 2657 
Q 3669 2231 3669 1497 
Q 3669 778 3244 343 
Q 2819 -91 2113 -91 
Q 1303 -91 875 529 
Q 447 1150 447 2328 
Q 447 3434 972 4092 
Q 1497 4750 2381 4750 
Q 2619 4750 2861 4703 
Q 3103 4656 3366 4563 
z
" transform="scale(0.015625)"/>
       </defs>
       <use xlink:href="#DejaVuSans-36"/>
       <use xlink:href="#DejaVuSans-30" x="63.623047"/>
       <use xlink:href="#DejaVuSans-30" x="127.246094"/>
      </g>
     </g>
    </g>
    <g id="xtick_5">
     <g id="line2d_5">
      <g>
       <use xlink:href="#m177678e9e8" x="388.399716" y="308.63625" style="stroke: #000000; stroke-width: 0.8"/>
      </g>
     </g>
     <g id="text_5">
      <!-- 800 -->
      <g transform="translate(369.312216 330.833125) scale(0.2 -0.2)">
       <defs>
        <path id="DejaVuSans-38" d="M 2034 2216 
Q 1584 2216 1326 1975 
Q 1069 1734 1069 1313 
Q 1069 891 1326 650 
Q 1584 409 2034 409 
Q 2484 409 2743 651 
Q 3003 894 3003 1313 
Q 3003 1734 2745 1975 
Q 2488 2216 2034 2216 
z
M 1403 2484 
Q 997 2584 770 2862 
Q 544 3141 544 3541 
Q 544 4100 942 4425 
Q 1341 4750 2034 4750 
Q 2731 4750 3128 4425 
Q 3525 4100 3525 3541 
Q 3525 3141 3298 2862 
Q 3072 2584 2669 2484 
Q 3125 2378 3379 2068 
Q 3634 1759 3634 1313 
Q 3634 634 3220 271 
Q 2806 -91 2034 -91 
Q 1263 -91 848 271 
Q 434 634 434 1313 
Q 434 1759 690 2068 
Q 947 2378 1403 2484 
z
M 1172 3481 
Q 1172 3119 1398 2916 
Q 1625 2713 2034 2713 
Q 2441 2713 2670 2916 
Q 2900 3119 2900 3481 
Q 2900 3844 2670 4047 
Q 2441 4250 2034 4250 
Q 1625 4250 1398 4047 
Q 1172 3844 1172 3481 
z
" transform="scale(0.015625)"/>
       </defs>
       <use xlink:href="#DejaVuSans-38"/>
       <use xlink:href="#DejaVuSans-30" x="63.623047"/>
       <use xlink:href="#DejaVuSans-30" x="127.246094"/>
      </g>
     </g>
    </g>
    <g id="xtick_6">
     <g id="line2d_6">
      <g>
       <use xlink:href="#m177678e9e8" x="456.03608" y="308.63625" style="stroke: #000000; stroke-width: 0.8"/>
      </g>
     </g>
     <g id="text_6">
      <!-- 1000 -->
      <g transform="translate(430.58608 330.833125) scale(0.2 -0.2)">
       <defs>
        <path id="DejaVuSans-31" d="M 794 531 
L 1825 531 
L 1825 4091 
L 703 3866 
L 703 4441 
L 1819 4666 
L 2450 4666 
L 2450 531 
L 3481 531 
L 3481 0 
L 794 0 
L 794 531 
z
" transform="scale(0.015625)"/>
       </defs>
       <use xlink:href="#DejaVuSans-31"/>
       <use xlink:href="#DejaVuSans-30" x="63.623047"/>
       <use xlink:href="#DejaVuSans-30" x="127.246094"/>
       <use xlink:href="#DejaVuSans-30" x="190.869141"/>
      </g>
     </g>
    </g>
    <g id="xtick_7">
     <g id="line2d_7">
      <g>
       <use xlink:href="#m177678e9e8" x="523.672443" y="308.63625" style="stroke: #000000; stroke-width: 0.8"/>
      </g>
     </g>
     <g id="text_7">
      <!-- 1200 -->
      <g transform="translate(498.222443 330.833125) scale(0.2 -0.2)">
       <use xlink:href="#DejaVuSans-31"/>
       <use xlink:href="#DejaVuSans-32" x="63.623047"/>
       <use xlink:href="#DejaVuSans-30" x="127.246094"/>
       <use xlink:href="#DejaVuSans-30" x="190.869141"/>
      </g>
     </g>
    </g>
    <g id="xtick_8">
     <g id="line2d_8">
      <g>
       <use xlink:href="#m177678e9e8" x="591.308807" y="308.63625" style="stroke: #000000; stroke-width: 0.8"/>
      </g>
     </g>
     <g id="text_8">
      <!-- 1400 -->
      <g transform="translate(565.858807 330.833125) scale(0.2 -0.2)">
       <use xlink:href="#DejaVuSans-31"/>
       <use xlink:href="#DejaVuSans-34" x="63.623047"/>
       <use xlink:href="#DejaVuSans-30" x="127.246094"/>
       <use xlink:href="#DejaVuSans-30" x="190.869141"/>
      </g>
     </g>
    </g>
    <g id="text_9">
     <!-- iterations -->
     <g transform="translate(324.035938 354.189375) scale(0.2 -0.2)">
      <defs>
       <path id="DejaVuSans-69" d="M 603 3500 
L 1178 3500 
L 1178 0 
L 603 0 
L 603 3500 
z
M 603 4863 
L 1178 4863 
L 1178 4134 
L 603 4134 
L 603 4863 
z
" transform="scale(0.015625)"/>
       <path id="DejaVuSans-74" d="M 1172 4494 
L 1172 3500 
L 2356 3500 
L 2356 3053 
L 1172 3053 
L 1172 1153 
Q 1172 725 1289 603 
Q 1406 481 1766 481 
L 2356 481 
L 2356 0 
L 1766 0 
Q 1100 0 847 248 
Q 594 497 594 1153 
L 594 3053 
L 172 3053 
L 172 3500 
L 594 3500 
L 594 4494 
L 1172 4494 
z
" transform="scale(0.015625)"/>
       <path id="DejaVuSans-65" d="M 3597 1894 
L 3597 1613 
L 953 1613 
Q 991 1019 1311 708 
Q 1631 397 2203 397 
Q 2534 397 2845 478 
Q 3156 559 3463 722 
L 3463 178 
Q 3153 47 2828 -22 
Q 2503 -91 2169 -91 
Q 1331 -91 842 396 
Q 353 884 353 1716 
Q 353 2575 817 3079 
Q 1281 3584 2069 3584 
Q 2775 3584 3186 3129 
Q 3597 2675 3597 1894 
z
M 3022 2063 
Q 3016 2534 2758 2815 
Q 2500 3097 2075 3097 
Q 1594 3097 1305 2825 
Q 1016 2553 972 2059 
L 3022 2063 
z
" transform="scale(0.015625)"/>
       <path id="DejaVuSans-72" d="M 2631 2963 
Q 2534 3019 2420 3045 
Q 2306 3072 2169 3072 
Q 1681 3072 1420 2755 
Q 1159 2438 1159 1844 
L 1159 0 
L 581 0 
L 581 3500 
L 1159 3500 
L 1159 2956 
Q 1341 3275 1631 3429 
Q 1922 3584 2338 3584 
Q 2397 3584 2469 3576 
Q 2541 3569 2628 3553 
L 2631 2963 
z
" transform="scale(0.015625)"/>
       <path id="DejaVuSans-61" d="M 2194 1759 
Q 1497 1759 1228 1600 
Q 959 1441 959 1056 
Q 959 750 1161 570 
Q 1363 391 1709 391 
Q 2188 391 2477 730 
Q 2766 1069 2766 1631 
L 2766 1759 
L 2194 1759 
z
M 3341 1997 
L 3341 0 
L 2766 0 
L 2766 531 
Q 2569 213 2275 61 
Q 1981 -91 1556 -91 
Q 1019 -91 701 211 
Q 384 513 384 1019 
Q 384 1609 779 1909 
Q 1175 2209 1959 2209 
L 2766 2209 
L 2766 2266 
Q 2766 2663 2505 2880 
Q 2244 3097 1772 3097 
Q 1472 3097 1187 3025 
Q 903 2953 641 2809 
L 641 3341 
Q 956 3463 1253 3523 
Q 1550 3584 1831 3584 
Q 2591 3584 2966 3190 
Q 3341 2797 3341 1997 
z
" transform="scale(0.015625)"/>
       <path id="DejaVuSans-6f" d="M 1959 3097 
Q 1497 3097 1228 2736 
Q 959 2375 959 1747 
Q 959 1119 1226 758 
Q 1494 397 1959 397 
Q 2419 397 2687 759 
Q 2956 1122 2956 1747 
Q 2956 2369 2687 2733 
Q 2419 3097 1959 3097 
z
M 1959 3584 
Q 2709 3584 3137 3096 
Q 3566 2609 3566 1747 
Q 3566 888 3137 398 
Q 2709 -91 1959 -91 
Q 1206 -91 779 398 
Q 353 888 353 1747 
Q 353 2609 779 3096 
Q 1206 3584 1959 3584 
z
" transform="scale(0.015625)"/>
       <path id="DejaVuSans-6e" d="M 3513 2113 
L 3513 0 
L 2938 0 
L 2938 2094 
Q 2938 2591 2744 2837 
Q 2550 3084 2163 3084 
Q 1697 3084 1428 2787 
Q 1159 2491 1159 1978 
L 1159 0 
L 581 0 
L 581 3500 
L 1159 3500 
L 1159 2956 
Q 1366 3272 1645 3428 
Q 1925 3584 2291 3584 
Q 2894 3584 3203 3211 
Q 3513 2838 3513 2113 
z
" transform="scale(0.015625)"/>
       <path id="DejaVuSans-73" d="M 2834 3397 
L 2834 2853 
Q 2591 2978 2328 3040 
Q 2066 3103 1784 3103 
Q 1356 3103 1142 2972 
Q 928 2841 928 2578 
Q 928 2378 1081 2264 
Q 1234 2150 1697 2047 
L 1894 2003 
Q 2506 1872 2764 1633 
Q 3022 1394 3022 966 
Q 3022 478 2636 193 
Q 2250 -91 1575 -91 
Q 1294 -91 989 -36 
Q 684 19 347 128 
L 347 722 
Q 666 556 975 473 
Q 1284 391 1588 391 
Q 1994 391 2212 530 
Q 2431 669 2431 922 
Q 2431 1156 2273 1281 
Q 2116 1406 1581 1522 
L 1381 1569 
Q 847 1681 609 1914 
Q 372 2147 372 2553 
Q 372 3047 722 3315 
Q 1072 3584 1716 3584 
Q 2034 3584 2315 3537 
Q 2597 3491 2834 3397 
z
" transform="scale(0.015625)"/>
      </defs>
      <use xlink:href="#DejaVuSans-69"/>
      <use xlink:href="#DejaVuSans-74" x="27.783203"/>
      <use xlink:href="#DejaVuSans-65" x="66.992188"/>
      <use xlink:href="#DejaVuSans-72" x="128.515625"/>
      <use xlink:href="#DejaVuSans-61" x="169.628906"/>
      <use xlink:href="#DejaVuSans-74" x="230.908203"/>
      <use xlink:href="#DejaVuSans-69" x="270.117188"/>
      <use xlink:href="#DejaVuSans-6f" x="297.900391"/>
      <use xlink:href="#DejaVuSans-6e" x="359.082031"/>
      <use xlink:href="#DejaVuSans-73" x="422.460938"/>
     </g>
    </g>
   </g>
   <g id="matplotlib.axis_2">
    <g id="ytick_1">
     <g id="line2d_9">
      <defs>
       <path id="m75f1c5dc11" d="M 0 0 
L -3.5 0 
" style="stroke: #000000; stroke-width: 0.8"/>
      </defs>
      <g>
       <use xlink:href="#m75f1c5dc11" x="92.490625" y="279.562782" style="stroke: #000000; stroke-width: 0.8"/>
      </g>
     </g>
     <g id="text_10">
      <!-- −200 -->
      <g transform="translate(30.55625 287.16122) scale(0.2 -0.2)">
       <defs>
        <path id="DejaVuSans-2212" d="M 678 2272 
L 4684 2272 
L 4684 1741 
L 678 1741 
L 678 2272 
z
" transform="scale(0.015625)"/>
       </defs>
       <use xlink:href="#DejaVuSans-2212"/>
       <use xlink:href="#DejaVuSans-32" x="83.789062"/>
       <use xlink:href="#DejaVuSans-30" x="147.412109"/>
       <use xlink:href="#DejaVuSans-30" x="211.035156"/>
      </g>
     </g>
    </g>
    <g id="ytick_2">
     <g id="line2d_10">
      <g>
       <use xlink:href="#m75f1c5dc11" x="92.490625" y="229.718252" style="stroke: #000000; stroke-width: 0.8"/>
      </g>
     </g>
     <g id="text_11">
      <!-- −100 -->
      <g transform="translate(30.55625 237.316689) scale(0.2 -0.2)">
       <use xlink:href="#DejaVuSans-2212"/>
       <use xlink:href="#DejaVuSans-31" x="83.789062"/>
       <use xlink:href="#DejaVuSans-30" x="147.412109"/>
       <use xlink:href="#DejaVuSans-30" x="211.035156"/>
      </g>
     </g>
    </g>
    <g id="ytick_3">
     <g id="line2d_11">
      <g>
       <use xlink:href="#m75f1c5dc11" x="92.490625" y="179.873722" style="stroke: #000000; stroke-width: 0.8"/>
      </g>
     </g>
     <g id="text_12">
      <!-- 0 -->
      <g transform="translate(72.765625 187.472159) scale(0.2 -0.2)">
       <use xlink:href="#DejaVuSans-30"/>
      </g>
     </g>
    </g>
    <g id="ytick_4">
     <g id="line2d_12">
      <g>
       <use xlink:href="#m75f1c5dc11" x="92.490625" y="130.029191" style="stroke: #000000; stroke-width: 0.8"/>
      </g>
     </g>
     <g id="text_13">
      <!-- 100 -->
      <g transform="translate(47.315625 137.627629) scale(0.2 -0.2)">
       <use xlink:href="#DejaVuSans-31"/>
       <use xlink:href="#DejaVuSans-30" x="63.623047"/>
       <use xlink:href="#DejaVuSans-30" x="127.246094"/>
      </g>
     </g>
    </g>
    <g id="ytick_5">
     <g id="line2d_13">
      <g>
       <use xlink:href="#m75f1c5dc11" x="92.490625" y="80.184661" style="stroke: #000000; stroke-width: 0.8"/>
      </g>
     </g>
     <g id="text_14">
      <!-- 200 -->
      <g transform="translate(47.315625 87.783098) scale(0.2 -0.2)">
       <use xlink:href="#DejaVuSans-32"/>
       <use xlink:href="#DejaVuSans-30" x="63.623047"/>
       <use xlink:href="#DejaVuSans-30" x="127.246094"/>
      </g>
     </g>
    </g>
    <g id="text_15">
     <!-- Loss -->
     <g transform="translate(22.396875 191.970625) rotate(-90) scale(0.2 -0.2)">
      <defs>
       <path id="DejaVuSans-4c" d="M 628 4666 
L 1259 4666 
L 1259 531 
L 3531 531 
L 3531 0 
L 628 0 
L 628 4666 
z
" transform="scale(0.015625)"/>
      </defs>
      <use xlink:href="#DejaVuSans-4c"/>
      <use xlink:href="#DejaVuSans-6f" x="53.962891"/>
      <use xlink:href="#DejaVuSans-73" x="115.144531"/>
      <use xlink:href="#DejaVuSans-73" x="167.244141"/>
     </g>
    </g>
   </g>
   <g id="line2d_14">
    <path d="M 117.854261 124.531878 
L 118.192443 113.612244 
L 118.530625 120.519891 
L 118.868807 104.349251 
L 119.206989 82.758685 
L 119.54517 52.516894 
L 119.883352 44.03625 
L 120.221534 61.970005 
L 120.559716 47.184644 
L 121.23608 80.314335 
L 121.574261 92.451127 
L 121.912443 90.170035 
L 122.588807 102.578324 
L 122.926989 95.671232 
L 123.26517 100.331578 
L 123.603352 100.663401 
L 123.941534 98.525286 
L 124.279716 104.282319 
L 124.617898 116.142604 
L 124.95608 120.516331 
L 125.294261 130.835256 
L 125.970625 127.698731 
L 126.308807 125.168182 
L 126.646989 126.943921 
L 126.98517 124.005949 
L 127.661534 122.923807 
L 127.999716 123.257928 
L 128.337898 118.898656 
L 128.67608 119.56434 
L 129.014261 115.700499 
L 129.352443 117.745463 
L 129.690625 123.442567 
L 130.028807 123.774871 
L 130.366989 122.857969 
L 130.70517 122.302379 
L 131.381534 119.124284 
L 131.719716 125.017556 
L 132.057898 133.214281 
L 132.39608 129.161825 
L 132.734261 123.543387 
L 133.072443 122.23231 
L 133.410625 123.023945 
L 133.748807 127.784878 
L 134.086989 121.940687 
L 134.42517 123.981988 
L 134.763352 127.193599 
L 135.101534 131.485114 
L 135.439716 128.917539 
L 135.777898 136.589669 
L 136.11608 136.567041 
L 136.454261 125.362361 
L 136.792443 126.824283 
L 137.130625 135.707324 
L 137.468807 137.326724 
L 137.806989 136.946144 
L 138.483352 141.297559 
L 138.821534 145.047706 
L 139.159716 145.805225 
L 139.497898 141.997796 
L 140.174261 139.025662 
L 140.512443 137.019952 
L 140.850625 138.139239 
L 141.188807 136.827967 
L 141.526989 138.508057 
L 141.86517 138.220575 
L 142.203352 138.101893 
L 142.541534 135.608969 
L 142.879716 141.338619 
L 143.55608 134.107495 
L 143.894261 138.24287 
L 144.232443 138.539082 
L 144.570625 134.882217 
L 144.908807 125.534589 
L 145.246989 130.92867 
L 145.58517 130.995844 
L 145.923352 129.896139 
L 146.261534 130.701701 
L 146.599716 134.78225 
L 147.27608 139.833902 
L 147.614261 134.538663 
L 147.952443 132.112555 
L 148.290625 132.679362 
L 148.628807 137.227089 
L 148.966989 136.509092 
L 149.30517 134.164532 
L 149.643352 138.634416 
L 149.981534 137.086605 
L 150.319716 139.48127 
L 150.657898 140.847521 
L 150.99608 136.401101 
L 151.334261 136.610398 
L 151.672443 141.120117 
L 152.010625 141.657382 
L 152.348807 141.745369 
L 153.02517 145.930699 
L 153.363352 144.353858 
L 153.701534 147.068299 
L 154.377898 143.872919 
L 154.71608 144.823045 
L 155.054261 145.322043 
L 155.730625 151.758086 
L 156.068807 147.409346 
L 156.406989 147.688363 
L 157.083352 143.905424 
L 157.421534 146.884967 
L 158.097898 147.688029 
L 158.774261 140.161348 
L 159.112443 143.441326 
L 159.450625 141.701099 
L 159.788807 143.244373 
L 160.126989 141.485977 
L 160.46517 143.743617 
L 160.803352 141.752809 
L 161.141534 144.378451 
L 161.479716 145.924998 
L 162.15608 145.710239 
L 162.494261 146.822277 
L 163.170625 142.812817 
L 163.508807 146.722669 
L 163.846989 142.762511 
L 164.18517 145.958757 
L 164.523352 145.805341 
L 164.861534 143.312113 
L 165.199716 144.758427 
L 165.537898 147.303361 
L 165.87608 146.89064 
L 166.214261 147.574506 
L 166.552443 148.59455 
L 167.228807 152.506974 
L 167.566989 150.388494 
L 167.90517 151.806019 
L 168.243352 150.902817 
L 168.581534 151.840849 
L 168.919716 149.806097 
L 169.257898 146.162209 
L 169.59608 148.368318 
L 169.934261 152.27345 
L 170.272443 151.466282 
L 170.610625 152.492185 
L 170.948807 150.095374 
L 171.62517 152.38361 
L 171.963352 151.164398 
L 172.301534 152.661597 
L 172.639716 153.504509 
L 172.977898 153.070374 
L 173.31608 153.701229 
L 173.654261 155.076172 
L 173.992443 155.925178 
L 174.668807 153.860758 
L 175.006989 153.674296 
L 175.34517 153.035097 
L 175.683352 154.346622 
L 176.021534 153.598921 
L 176.359716 153.137666 
L 176.697898 153.719381 
L 177.03608 151.537183 
L 177.374261 152.382328 
L 177.712443 153.754748 
L 178.050625 152.730595 
L 178.388807 153.912518 
L 178.726989 155.763226 
L 179.06517 154.635505 
L 179.403352 156.375225 
L 179.741534 154.862806 
L 180.079716 157.097058 
L 180.417898 158.475495 
L 180.75608 159.246486 
L 181.094261 160.579032 
L 181.432443 160.177923 
L 181.770625 158.198611 
L 182.108807 157.632745 
L 182.446989 158.695304 
L 182.78517 158.058747 
L 183.799716 161.274453 
L 184.137898 161.049882 
L 184.814261 162.780169 
L 185.152443 162.93181 
L 185.490625 162.909826 
L 185.828807 163.16357 
L 186.166989 163.590409 
L 186.843352 163.028633 
L 187.181534 164.160838 
L 187.519716 163.43676 
L 187.857898 163.598174 
L 188.19608 163.302926 
L 188.534261 163.467349 
L 188.872443 163.018195 
L 189.210625 164.735424 
L 189.548807 163.474858 
L 189.886989 161.245375 
L 190.22517 162.806307 
L 191.239716 163.922568 
L 191.577898 162.747043 
L 191.91608 162.225773 
L 192.254261 162.846469 
L 192.592443 165.236295 
L 192.930625 163.231114 
L 193.268807 163.010536 
L 193.606989 163.003862 
L 193.94517 164.481228 
L 194.283352 164.159237 
L 194.621534 165.05063 
L 194.959716 167.617109 
L 195.297898 166.927606 
L 195.63608 166.829197 
L 195.974261 167.045429 
L 196.312443 167.040901 
L 196.650625 168.045201 
L 197.326989 166.198974 
L 197.66517 166.800597 
L 198.003352 168.759688 
L 198.341534 168.974249 
L 198.679716 166.434748 
L 199.017898 165.174013 
L 199.35608 167.03687 
L 200.032443 167.675998 
L 200.370625 167.355134 
L 200.708807 166.638156 
L 201.046989 167.116547 
L 201.38517 167.266925 
L 201.723352 168.14975 
L 202.061534 167.908898 
L 202.399716 168.146553 
L 202.737898 168.238457 
L 203.414261 167.240999 
L 203.752443 168.253029 
L 204.090625 166.399731 
L 204.428807 167.169623 
L 204.766989 166.210275 
L 205.10517 167.497068 
L 205.443352 165.698517 
L 206.119716 166.698603 
L 206.457898 166.841433 
L 206.79608 166.310281 
L 207.134261 165.479998 
L 207.472443 165.215218 
L 207.810625 165.668773 
L 208.148807 167.322442 
L 208.486989 165.913513 
L 208.82517 165.804076 
L 209.163352 165.367667 
L 209.501534 166.220259 
L 209.839716 166.206106 
L 210.177898 165.972338 
L 210.51608 166.913536 
L 210.854261 166.170453 
L 211.192443 165.912273 
L 211.530625 166.548458 
L 211.868807 165.862925 
L 212.54517 167.181714 
L 212.883352 166.678216 
L 213.221534 166.675568 
L 213.559716 167.875845 
L 213.897898 168.366442 
L 214.23608 168.449603 
L 214.574261 168.998448 
L 214.912443 169.32032 
L 215.250625 167.9225 
L 215.926989 168.843936 
L 216.26517 168.960531 
L 216.603352 168.782386 
L 216.941534 168.317253 
L 217.279716 169.688678 
L 217.617898 169.233972 
L 217.95608 169.06092 
L 218.632443 170.546879 
L 218.970625 170.171745 
L 219.308807 171.878035 
L 219.98517 171.137158 
L 220.323352 169.278403 
L 220.661534 169.725672 
L 220.999716 170.615596 
L 221.337898 169.496235 
L 221.67608 169.782768 
L 222.014261 169.890141 
L 222.352443 171.456883 
L 223.028807 170.001103 
L 223.366989 169.926751 
L 224.043352 171.37963 
L 224.381534 171.029107 
L 224.719716 171.124863 
L 225.057898 170.681482 
L 225.39608 170.87703 
L 225.734261 170.384301 
L 226.072443 170.986704 
L 226.410625 170.791971 
L 226.748807 169.625101 
L 227.086989 171.288955 
L 227.42517 170.927486 
L 227.763352 170.864856 
L 228.101534 171.211611 
L 228.439716 172.079021 
L 228.777898 171.845111 
L 229.11608 170.97074 
L 229.454261 171.625128 
L 229.792443 170.983582 
L 230.468807 171.02878 
L 230.806989 171.560573 
L 231.14517 172.322231 
L 231.483352 171.627739 
L 231.821534 171.467542 
L 232.159716 172.467587 
L 232.497898 171.02565 
L 232.83608 171.947077 
L 233.174261 171.483687 
L 233.512443 172.050066 
L 234.526989 169.947551 
L 234.86517 170.733685 
L 235.203352 170.584067 
L 235.541534 171.103421 
L 235.879716 171.348453 
L 236.217898 171.120201 
L 236.894261 170.210684 
L 237.232443 170.789454 
L 237.570625 170.980313 
L 237.908807 172.211916 
L 238.246989 171.753866 
L 238.58517 172.058202 
L 238.923352 170.710387 
L 239.261534 171.610416 
L 239.937898 170.275572 
L 240.27608 170.921107 
L 240.614261 170.142906 
L 240.952443 171.335557 
L 241.290625 170.05853 
L 241.628807 170.093304 
L 241.966989 170.469731 
L 242.30517 171.273628 
L 242.643352 171.728208 
L 242.981534 171.723017 
L 243.319716 170.898618 
L 243.99608 171.377761 
L 244.334261 171.45996 
L 244.672443 170.901117 
L 245.010625 169.754796 
L 246.02517 171.283549 
L 246.363352 170.797232 
L 246.701534 171.524636 
L 247.039716 171.480676 
L 247.377898 171.125477 
L 248.392443 171.450506 
L 248.730625 170.746657 
L 249.068807 171.893811 
L 249.74517 169.705521 
L 250.083352 169.357828 
L 250.421534 169.628308 
L 250.759716 170.894575 
L 251.097898 171.221226 
L 251.43608 171.32752 
L 251.774261 171.762098 
L 252.112443 171.419549 
L 252.450625 171.510481 
L 252.788807 170.604535 
L 253.126989 172.064219 
L 253.46517 172.504472 
L 253.803352 171.730852 
L 254.141534 171.717936 
L 254.479716 171.126913 
L 254.817898 171.028055 
L 255.15608 171.81357 
L 255.494261 171.842793 
L 255.832443 171.260918 
L 256.170625 171.661503 
L 256.508807 171.18838 
L 257.523352 171.680532 
L 257.861534 172.343042 
L 258.199716 170.773445 
L 258.537898 171.850861 
L 258.87608 171.335879 
L 259.214261 171.470768 
L 259.552443 171.404438 
L 259.890625 170.42896 
L 260.228807 170.751651 
L 260.566989 170.623119 
L 260.90517 171.204737 
L 261.243352 169.869313 
L 261.581534 169.636724 
L 262.257898 170.828434 
L 262.59608 170.552112 
L 262.934261 170.519111 
L 263.272443 170.941655 
L 263.610625 169.718798 
L 263.948807 169.862972 
L 264.286989 170.788851 
L 264.62517 169.308966 
L 264.963352 168.405074 
L 265.301534 169.592541 
L 265.977898 168.929275 
L 266.31608 168.277422 
L 266.654261 168.303997 
L 266.992443 169.014105 
L 267.330625 169.461484 
L 268.006989 168.954341 
L 268.34517 167.445263 
L 268.683352 168.252356 
L 269.021534 168.568639 
L 269.359716 168.729843 
L 269.697898 169.043828 
L 270.03608 170.208008 
L 270.374261 169.180695 
L 270.712443 168.673338 
L 271.050625 168.707785 
L 271.388807 169.243154 
L 271.726989 169.377209 
L 272.06517 168.851158 
L 272.403352 166.81334 
L 272.741534 168.761281 
L 273.079716 168.000392 
L 273.417898 167.564612 
L 274.094261 168.156309 
L 274.432443 168.13164 
L 274.770625 168.675291 
L 275.108807 168.119421 
L 275.446989 168.305333 
L 275.78517 167.535693 
L 276.123352 169.078896 
L 276.461534 168.406488 
L 276.799716 169.281049 
L 277.137898 168.148249 
L 277.47608 168.593674 
L 277.814261 168.732842 
L 278.152443 168.470857 
L 278.490625 169.372396 
L 278.828807 169.29299 
L 279.50517 167.88763 
L 279.843352 167.936869 
L 280.181534 168.913264 
L 280.519716 167.685689 
L 281.19608 168.452807 
L 281.534261 168.225701 
L 281.872443 170.2633 
L 282.210625 169.857828 
L 282.548807 168.55073 
L 282.886989 168.94689 
L 283.563352 167.836903 
L 283.901534 168.529338 
L 284.239716 168.526433 
L 284.577898 168.242491 
L 284.91608 168.845629 
L 285.254261 168.793187 
L 285.592443 169.295145 
L 285.930625 168.568328 
L 286.268807 169.156795 
L 286.606989 168.842294 
L 286.94517 169.404308 
L 287.283352 168.600934 
L 287.621534 169.158425 
L 287.959716 169.261816 
L 288.297898 169.167373 
L 288.63608 168.318719 
L 288.974261 168.55359 
L 289.650625 169.344485 
L 289.988807 168.986347 
L 290.326989 169.062865 
L 290.66517 167.845035 
L 291.003352 168.951697 
L 291.679716 166.987109 
L 292.35608 168.536455 
L 292.694261 167.813438 
L 293.708807 168.653876 
L 294.046989 169.890846 
L 294.38517 168.602198 
L 294.723352 168.122958 
L 295.061534 166.912785 
L 295.399716 168.156099 
L 295.737898 167.661884 
L 296.07608 169.488083 
L 296.414261 169.485607 
L 297.428807 168.073372 
L 297.766989 169.155096 
L 298.10517 167.873866 
L 298.443352 168.345896 
L 298.781534 168.076867 
L 299.119716 169.271937 
L 300.134261 165.679123 
L 301.148807 168.312368 
L 301.486989 167.853324 
L 301.82517 168.205852 
L 302.163352 167.419576 
L 302.501534 167.036538 
L 302.839716 168.70488 
L 303.51608 167.08679 
L 303.854261 166.654306 
L 304.192443 167.786472 
L 304.530625 167.416425 
L 304.868807 168.569706 
L 305.206989 168.490675 
L 305.54517 169.154549 
L 305.883352 167.278725 
L 306.221534 168.560299 
L 306.559716 168.787789 
L 306.897898 167.280913 
L 307.23608 167.403509 
L 307.574261 166.122042 
L 307.912443 167.890703 
L 308.250625 166.99708 
L 308.588807 168.252917 
L 308.926989 166.923159 
L 309.26517 167.016084 
L 309.603352 167.241264 
L 310.279716 167.045006 
L 310.617898 166.305466 
L 310.95608 165.975857 
L 311.294261 167.000925 
L 311.632443 166.83386 
L 311.970625 167.60513 
L 312.308807 167.629385 
L 312.646989 167.287727 
L 312.98517 167.104138 
L 313.323352 166.397981 
L 313.661534 167.148153 
L 313.999716 166.744054 
L 314.337898 165.842051 
L 314.67608 165.51877 
L 315.014261 166.309628 
L 315.352443 165.740703 
L 315.690625 166.816051 
L 316.366989 165.723097 
L 316.70517 166.108493 
L 317.381534 165.4902 
L 318.057898 166.795149 
L 318.39608 166.654096 
L 319.072443 167.621033 
L 319.410625 166.864147 
L 319.748807 167.267206 
L 320.086989 168.778092 
L 320.42517 169.05499 
L 320.763352 168.761897 
L 321.101534 168.71093 
L 321.439716 167.742667 
L 322.11608 169.264613 
L 322.454261 167.432988 
L 322.792443 168.344806 
L 323.130625 168.502555 
L 323.468807 169.430815 
L 323.806989 169.685325 
L 324.14517 168.870997 
L 324.483352 169.484155 
L 325.159716 169.27929 
L 325.497898 168.891965 
L 326.512443 170.281456 
L 326.850625 169.650673 
L 327.188807 169.556229 
L 327.526989 169.332334 
L 327.86517 169.753204 
L 328.203352 169.245746 
L 328.541534 169.301257 
L 328.879716 168.308343 
L 329.217898 168.719347 
L 329.55608 169.428888 
L 329.894261 170.479059 
L 330.232443 169.745954 
L 330.570625 170.42337 
L 331.246989 170.868408 
L 331.58517 170.270927 
L 331.923352 169.303986 
L 332.261534 170.119499 
L 332.599716 169.767772 
L 332.937898 169.857879 
L 333.27608 169.586723 
L 333.614261 169.716683 
L 333.952443 171.181534 
L 334.290625 170.772517 
L 334.628807 171.187108 
L 334.966989 170.514292 
L 335.30517 170.129486 
L 335.643352 170.984094 
L 335.981534 171.01828 
L 336.319716 171.330471 
L 336.657898 170.098185 
L 336.99608 171.20177 
L 337.334261 170.094581 
L 337.672443 170.641587 
L 338.010625 170.954885 
L 338.348807 170.937869 
L 338.686989 171.877335 
L 339.02517 171.940686 
L 339.363352 171.802314 
L 339.701534 170.553515 
L 340.039716 170.961193 
L 340.377898 170.871702 
L 340.71608 171.781641 
L 341.054261 171.652601 
L 341.730625 169.934908 
L 342.068807 169.855105 
L 342.406989 169.93931 
L 342.74517 170.289627 
L 343.083352 171.688032 
L 343.421534 171.08577 
L 343.759716 171.519824 
L 344.097898 171.452305 
L 344.43608 170.690751 
L 344.774261 170.4779 
L 345.112443 170.686815 
L 345.450625 171.598358 
L 345.788807 171.429171 
L 346.126989 170.468689 
L 346.46517 170.552143 
L 346.803352 171.170605 
L 347.141534 171.076991 
L 347.479716 170.857447 
L 347.817898 172.026858 
L 348.15608 171.897187 
L 348.494261 172.552691 
L 348.832443 172.187376 
L 349.170625 172.119924 
L 349.508807 172.812751 
L 349.846989 172.431816 
L 350.18517 171.504635 
L 350.523352 171.078927 
L 350.861534 172.052269 
L 351.199716 172.01934 
L 351.537898 171.139247 
L 351.87608 171.456836 
L 352.214261 172.361364 
L 352.552443 171.736331 
L 352.890625 172.752857 
L 353.228807 172.572182 
L 353.566989 171.777554 
L 353.90517 171.812087 
L 354.243352 172.632344 
L 354.581534 173.098525 
L 354.919716 172.871148 
L 355.257898 171.911924 
L 355.59608 172.195097 
L 355.934261 172.633227 
L 356.272443 172.795828 
L 356.610625 172.498574 
L 356.948807 172.657809 
L 357.286989 172.305638 
L 357.62517 173.087526 
L 357.963352 172.752212 
L 358.301534 171.853783 
L 358.639716 172.249377 
L 358.977898 173.237597 
L 359.31608 172.465509 
L 359.654261 172.943736 
L 359.992443 172.53879 
L 360.330625 172.308294 
L 360.668807 172.475761 
L 361.006989 172.805779 
L 361.34517 173.509988 
L 361.683352 173.535105 
L 362.021534 172.965856 
L 362.359716 173.195651 
L 362.697898 173.028642 
L 363.03608 173.17028 
L 363.374261 173.69358 
L 363.712443 173.695534 
L 364.050625 173.025585 
L 364.388807 173.163722 
L 364.726989 172.773572 
L 365.06517 172.143886 
L 365.403352 172.728104 
L 366.079716 173.301175 
L 366.417898 173.212307 
L 366.75608 173.473794 
L 367.094261 173.354617 
L 367.432443 172.340577 
L 368.446989 173.545899 
L 368.78517 173.717131 
L 370.137898 172.846439 
L 370.47608 172.830841 
L 371.152443 173.914986 
L 371.490625 173.328633 
L 371.828807 173.220606 
L 372.166989 172.633549 
L 372.843352 172.524903 
L 373.181534 172.899515 
L 373.519716 172.995464 
L 373.857898 173.52655 
L 374.19608 172.911105 
L 374.872443 173.067123 
L 375.210625 172.580127 
L 375.548807 173.506689 
L 375.886989 173.224257 
L 376.563352 173.550066 
L 376.901534 173.870253 
L 377.239716 173.463889 
L 377.577898 173.309775 
L 377.91608 174.370365 
L 378.254261 174.641543 
L 378.592443 173.336782 
L 378.930625 174.511969 
L 379.268807 174.789815 
L 379.606989 174.779389 
L 379.94517 174.237352 
L 380.283352 174.548939 
L 380.621534 174.300293 
L 380.959716 174.250603 
L 381.297898 174.571552 
L 381.63608 174.630708 
L 381.974261 174.100518 
L 382.312443 174.358606 
L 382.650625 173.547171 
L 383.66517 174.726061 
L 384.003352 174.763368 
L 384.341534 174.404266 
L 384.679716 173.868562 
L 385.017898 174.002336 
L 385.35608 174.499336 
L 385.694261 174.761793 
L 386.032443 174.237576 
L 386.370625 173.960542 
L 386.708807 174.456797 
L 387.046989 174.608312 
L 387.38517 173.651449 
L 387.723352 174.262652 
L 388.061534 173.571319 
L 388.399716 173.445559 
L 388.737898 174.284243 
L 389.07608 174.647367 
L 389.414261 174.143819 
L 389.752443 175.098752 
L 390.090625 174.592985 
L 390.428807 174.67441 
L 390.766989 173.986843 
L 391.10517 174.89315 
L 391.443352 175.040789 
L 391.781534 174.521271 
L 392.119716 174.31169 
L 392.457898 174.409975 
L 392.79608 174.844725 
L 393.134261 174.091942 
L 393.472443 174.054085 
L 393.810625 175.056739 
L 394.148807 175.179453 
L 394.486989 174.76291 
L 394.82517 175.188881 
L 395.163352 174.606071 
L 395.501534 174.643741 
L 395.839716 175.360247 
L 396.177898 174.345135 
L 396.51608 174.196209 
L 396.854261 174.545014 
L 397.192443 174.055634 
L 397.530625 174.603814 
L 397.868807 174.591183 
L 398.206989 174.85815 
L 398.54517 175.470077 
L 399.559716 174.592355 
L 399.897898 175.085638 
L 400.912443 175.479677 
L 401.588807 174.720709 
L 401.926989 175.256771 
L 402.26517 174.918766 
L 402.603352 175.417736 
L 402.941534 174.536108 
L 403.279716 174.684633 
L 403.617898 174.961427 
L 403.95608 174.675325 
L 404.294261 174.602429 
L 404.632443 174.976565 
L 404.970625 175.109405 
L 405.308807 175.082062 
L 405.646989 175.327841 
L 405.98517 175.332892 
L 406.323352 175.704394 
L 406.661534 175.749832 
L 406.999716 176.00514 
L 407.67608 175.331336 
L 408.014261 175.820725 
L 408.352443 175.670553 
L 408.690625 176.437552 
L 409.028807 176.022944 
L 409.366989 175.79007 
L 409.70517 175.892828 
L 410.043352 176.684125 
L 410.381534 176.529924 
L 410.719716 176.862434 
L 411.057898 176.827581 
L 411.734261 176.121104 
L 412.072443 176.371403 
L 412.410625 176.282667 
L 412.748807 176.55121 
L 413.086989 175.998972 
L 413.42517 176.438404 
L 413.763352 176.232709 
L 415.454261 176.191065 
L 416.130625 176.740455 
L 416.468807 176.851348 
L 416.806989 176.071476 
L 417.14517 176.531128 
L 417.483352 176.313304 
L 417.821534 176.241809 
L 418.159716 176.342322 
L 418.497898 176.154964 
L 418.83608 176.730567 
L 419.512443 176.218591 
L 419.850625 175.822586 
L 420.188807 176.737825 
L 420.86517 176.679438 
L 421.203352 176.37128 
L 421.541534 176.406383 
L 421.879716 176.716217 
L 422.217898 176.815412 
L 422.55608 177.092024 
L 422.894261 177.029247 
L 423.232443 176.541315 
L 423.570625 176.447746 
L 423.908807 177.045527 
L 424.58517 176.949279 
L 424.923352 177.623724 
L 425.261534 177.333461 
L 425.599716 177.417731 
L 426.27608 177.852056 
L 426.614261 177.331983 
L 426.952443 177.404682 
L 427.290625 177.087448 
L 427.628807 177.158187 
L 427.966989 177.398378 
L 428.30517 177.790668 
L 428.643352 177.673758 
L 428.981534 177.360908 
L 429.319716 177.671818 
L 429.657898 177.4662 
L 429.99608 177.428796 
L 430.334261 177.569326 
L 430.672443 177.546279 
L 431.010625 177.915382 
L 431.348807 177.810681 
L 432.02517 178.110901 
L 432.363352 178.166555 
L 432.701534 178.094477 
L 433.039716 178.494665 
L 433.377898 178.181803 
L 433.71608 178.777438 
L 434.054261 178.034988 
L 434.730625 178.678885 
L 435.068807 178.273268 
L 435.406989 178.558078 
L 435.74517 178.645732 
L 436.083352 178.979903 
L 436.421534 178.604421 
L 436.759716 178.72779 
L 437.097898 179.086753 
L 437.43608 179.201082 
L 437.774261 179.159582 
L 438.112443 179.666424 
L 438.450625 178.766806 
L 439.46517 179.450476 
L 439.803352 178.899028 
L 440.141534 178.941914 
L 440.479716 178.499958 
L 440.817898 178.50986 
L 441.15608 178.949115 
L 442.170625 178.963947 
L 442.508807 179.468592 
L 442.846989 178.957596 
L 443.18517 179.146655 
L 443.523352 179.543453 
L 443.861534 179.427571 
L 444.199716 179.127683 
L 444.537898 179.518266 
L 444.87608 179.204089 
L 445.214261 179.222719 
L 445.552443 178.98623 
L 446.228807 179.874376 
L 446.566989 179.517771 
L 447.243352 179.686319 
L 447.581534 179.129207 
L 447.919716 179.487302 
L 448.257898 179.333922 
L 448.59608 179.358981 
L 448.934261 179.26307 
L 449.272443 179.425154 
L 449.610625 179.749735 
L 450.62517 179.776525 
L 451.301534 179.344682 
L 451.639716 179.001729 
L 451.977898 179.286516 
L 452.31608 179.275482 
L 452.654261 179.092813 
L 453.330625 179.884484 
L 453.668807 179.531372 
L 454.34517 179.715287 
L 454.683352 180.303038 
L 455.021534 179.626734 
L 455.359716 179.711593 
L 455.697898 180.147627 
L 456.03608 179.670431 
L 456.374261 179.744088 
L 456.712443 179.947498 
L 457.388807 179.938698 
L 457.726989 180.335198 
L 458.06517 179.565856 
L 458.403352 179.855395 
L 458.741534 179.740909 
L 459.75608 179.74427 
L 460.094261 179.931039 
L 460.432443 179.520946 
L 460.770625 180.09352 
L 461.108807 180.325481 
L 461.446989 180.140308 
L 461.78517 180.371481 
L 462.123352 179.869368 
L 462.461534 179.963973 
L 462.799716 179.778552 
L 463.137898 180.202878 
L 463.47608 179.514326 
L 463.814261 179.482513 
L 464.152443 180.026128 
L 464.490625 179.427368 
L 464.828807 180.162905 
L 465.166989 180.306756 
L 465.50517 180.214288 
L 465.843352 180.380419 
L 466.519716 180.086379 
L 466.857898 180.226138 
L 467.19608 180.13434 
L 467.534261 180.485126 
L 467.872443 179.700224 
L 468.210625 180.485923 
L 468.548807 180.18604 
L 468.886989 180.300664 
L 469.22517 179.763172 
L 469.563352 180.343231 
L 469.901534 180.165772 
L 470.239716 179.744616 
L 470.577898 179.91302 
L 470.91608 180.310773 
L 471.254261 180.22706 
L 471.592443 179.954252 
L 471.930625 180.26877 
L 472.94517 179.54126 
L 473.283352 180.330199 
L 473.621534 179.814204 
L 473.959716 180.189141 
L 474.297898 179.754376 
L 474.63608 179.853491 
L 474.974261 179.818375 
L 475.312443 180.340954 
L 475.650625 179.605927 
L 475.988807 179.87026 
L 477.003352 180.07964 
L 478.017898 179.896924 
L 478.35608 180.110488 
L 479.370625 179.963066 
L 479.708807 179.986136 
L 480.046989 179.786335 
L 480.38517 180.758785 
L 480.723352 180.032607 
L 481.061534 179.725176 
L 481.399716 180.118395 
L 482.07608 180.137444 
L 482.414261 179.824126 
L 482.752443 180.373565 
L 483.090625 180.011501 
L 483.428807 180.842442 
L 483.766989 180.21516 
L 484.10517 179.845933 
L 484.781534 180.704952 
L 485.119716 180.052903 
L 485.457898 180.440301 
L 485.79608 180.109915 
L 486.134261 180.557143 
L 486.472443 179.928409 
L 486.810625 180.445121 
L 487.148807 180.182771 
L 487.486989 180.431568 
L 487.82517 180.367132 
L 488.163352 179.936347 
L 488.501534 179.76118 
L 488.839716 180.23181 
L 489.177898 180.466946 
L 489.854261 180.41052 
L 490.192443 179.999994 
L 490.530625 180.530902 
L 490.868807 180.113117 
L 491.206989 179.963953 
L 492.221534 180.459806 
L 492.559716 180.126073 
L 492.897898 180.086951 
L 493.23608 180.429204 
L 493.574261 179.835401 
L 493.912443 179.932744 
L 494.250625 180.477864 
L 494.926989 180.413045 
L 495.26517 180.786465 
L 495.603352 180.680939 
L 495.941534 181.04021 
L 496.279716 180.618574 
L 496.617898 180.82221 
L 496.95608 181.161888 
L 497.294261 181.009758 
L 497.632443 180.357643 
L 497.970625 181.03261 
L 498.646989 180.65069 
L 499.323352 180.962039 
L 499.661534 180.873817 
L 499.999716 181.058111 
L 500.337898 180.777752 
L 500.67608 180.886168 
L 501.014261 180.622959 
L 501.352443 180.617082 
L 501.690625 180.960957 
L 502.028807 180.67538 
L 502.366989 180.828634 
L 502.70517 180.788095 
L 503.043352 181.055961 
L 503.381534 180.313954 
L 503.719716 180.775309 
L 504.057898 180.938638 
L 504.39608 180.542884 
L 505.072443 181.168604 
L 505.410625 179.688472 
L 505.748807 180.392513 
L 506.086989 178.640427 
L 506.42517 180.57413 
L 506.763352 180.541096 
L 507.777898 179.634978 
L 508.454261 180.678679 
L 508.792443 181.001879 
L 509.130625 179.692597 
L 509.468807 179.872039 
L 509.806989 179.911641 
L 510.14517 179.702042 
L 510.483352 179.916145 
L 510.821534 180.866377 
L 511.159716 181.119183 
L 511.497898 180.870432 
L 512.174261 181.317297 
L 512.850625 181.259107 
L 513.188807 181.713421 
L 513.526989 181.801746 
L 513.86517 181.342694 
L 514.203352 181.740323 
L 514.541534 181.870945 
L 515.217898 181.379809 
L 515.55608 181.10921 
L 515.894261 181.578598 
L 516.232443 181.457262 
L 516.570625 181.756397 
L 516.908807 181.833844 
L 517.246989 181.452956 
L 517.58517 180.758443 
L 517.923352 181.092783 
L 518.261534 181.698405 
L 518.599716 181.772995 
L 518.937898 181.05467 
L 519.27608 181.089973 
L 519.614261 181.50234 
L 519.952443 181.66487 
L 520.290625 181.35546 
L 520.628807 181.225757 
L 520.966989 181.543379 
L 521.981534 181.080672 
L 522.657898 181.726543 
L 522.99608 181.237467 
L 523.334261 181.032272 
L 523.672443 181.377015 
L 524.010625 181.301601 
L 524.348807 181.535514 
L 524.686989 181.258281 
L 525.02517 181.493265 
L 525.701534 181.256666 
L 526.039716 181.513799 
L 526.377898 181.435503 
L 526.71608 181.514314 
L 527.730625 181.189708 
L 528.068807 181.198173 
L 528.406989 180.7601 
L 529.083352 181.34693 
L 529.421534 181.245781 
L 529.759716 181.498462 
L 530.097898 181.550906 
L 530.774261 180.992424 
L 531.112443 181.268454 
L 531.788807 181.035894 
L 532.126989 180.820112 
L 532.46517 181.13928 
L 532.803352 181.229345 
L 533.141534 181.017003 
L 533.479716 180.951223 
L 533.817898 180.76528 
L 534.15608 180.995814 
L 534.494261 180.902129 
L 535.170625 181.354898 
L 536.18517 181.077253 
L 536.523352 181.562308 
L 536.861534 181.129142 
L 538.214261 181.024166 
L 538.552443 180.608327 
L 538.890625 180.84078 
L 539.228807 180.342192 
L 539.90517 180.471055 
L 540.243352 180.088666 
L 540.581534 180.506601 
L 541.257898 180.773344 
L 541.59608 180.569682 
L 541.934261 180.692288 
L 542.610625 180.742516 
L 542.948807 180.806807 
L 543.286989 180.719669 
L 543.62517 180.47129 
L 544.301534 181.015355 
L 544.639716 180.70871 
L 545.31608 180.550199 
L 545.992443 180.648926 
L 546.330625 180.427252 
L 547.34517 180.915069 
L 548.021534 180.821858 
L 548.359716 180.62099 
L 548.697898 181.404136 
L 549.03608 180.454013 
L 549.374261 180.56572 
L 549.712443 180.270258 
L 550.388807 180.815892 
L 550.726989 180.959847 
L 551.06517 180.681966 
L 551.403352 180.77097 
L 551.741534 180.436864 
L 552.417898 181.367257 
L 552.75608 181.425191 
L 553.094261 180.975402 
L 553.432443 181.394564 
L 553.770625 181.243575 
L 554.78517 181.439895 
L 555.799716 181.038546 
L 556.137898 181.078359 
L 556.47608 180.805165 
L 556.814261 181.109987 
L 557.152443 180.894622 
L 557.490625 180.885497 
L 557.828807 181.030231 
L 558.50517 180.582459 
L 558.843352 180.5819 
L 559.181534 181.301521 
L 560.19608 180.850515 
L 560.534261 180.596543 
L 560.872443 181.03422 
L 561.210625 180.387739 
L 561.548807 180.595513 
L 561.886989 180.992694 
L 562.22517 180.906266 
L 562.901534 180.964894 
L 563.239716 180.463233 
L 563.577898 180.413894 
L 563.91608 180.688925 
L 564.254261 180.572082 
L 564.930625 180.593941 
L 565.268807 180.817773 
L 565.606989 180.273597 
L 566.283352 180.300158 
L 566.621534 180.730083 
L 567.297898 181.065862 
L 567.63608 181.07676 
L 567.974261 180.729234 
L 568.312443 181.182576 
L 568.650625 181.067842 
L 568.988807 181.205744 
L 570.003352 180.753324 
L 570.679716 181.150151 
L 571.017898 180.58805 
L 571.35608 181.350497 
L 571.694261 180.81243 
L 572.032443 180.63374 
L 572.708807 181.003007 
L 573.046989 181.941892 
L 573.723352 181.543051 
L 574.061534 181.754085 
L 574.399716 181.610898 
L 574.737898 180.954346 
L 575.07608 181.59882 
L 575.414261 181.325681 
L 575.752443 181.27557 
L 576.090625 181.004722 
L 576.428807 181.055718 
L 576.766989 180.747448 
L 577.10517 181.066094 
L 577.443352 181.051048 
L 577.781534 181.267209 
L 578.457898 180.62789 
L 578.79608 181.382941 
L 579.134261 180.932179 
L 579.472443 180.82115 
L 580.148807 180.968331 
L 580.486989 180.532245 
L 580.82517 180.797535 
L 581.163352 180.77279 
L 581.501534 180.5937 
L 581.839716 180.66505 
L 582.177898 181.171911 
L 582.854261 180.830612 
L 583.192443 181.058228 
L 583.530625 180.702383 
L 583.868807 181.53683 
L 584.206989 180.985928 
L 584.54517 180.681202 
L 585.221534 180.754547 
L 585.559716 180.449857 
L 585.897898 180.816854 
L 586.23608 180.729683 
L 586.574261 181.090441 
L 586.912443 180.750473 
L 587.588807 180.964601 
L 587.926989 180.968534 
L 588.26517 181.427189 
L 588.603352 181.365353 
L 588.941534 181.070849 
L 589.279716 181.437569 
L 589.95608 181.191414 
L 590.632443 181.239322 
L 590.970625 181.198415 
L 591.646989 181.561854 
L 592.323352 181.654299 
L 592.661534 181.167515 
L 592.999716 181.02352 
L 593.67608 180.99732 
L 594.014261 180.830116 
L 594.352443 181.266327 
L 594.690625 180.895491 
L 595.028807 181.437192 
L 595.70517 180.6598 
L 596.043352 180.863089 
L 596.381534 180.926796 
L 596.719716 181.188622 
L 597.057898 181.30559 
L 597.39608 180.611412 
L 597.734261 181.089032 
L 598.072443 180.353987 
L 598.410625 180.85321 
L 598.748807 180.702608 
L 599.086989 181.158002 
L 599.42517 181.162582 
L 599.763352 181.017174 
L 600.101534 181.091327 
L 600.777898 180.642218 
L 601.454261 180.970936 
L 601.792443 180.304453 
L 602.130625 181.094927 
L 602.806989 180.995537 
L 603.14517 180.782287 
L 603.483352 180.924361 
L 603.821534 180.891018 
L 604.159716 180.308226 
L 604.497898 180.384108 
L 604.83608 180.216092 
L 605.174261 180.419858 
L 605.512443 180.373463 
L 605.850625 180.09461 
L 606.188807 180.283628 
L 606.526989 180.695648 
L 606.86517 180.275217 
L 607.203352 180.355095 
L 607.541534 180.752406 
L 608.217898 180.686666 
L 608.55608 180.545878 
L 608.894261 180.685748 
L 609.232443 180.592957 
L 609.908807 181.485827 
L 610.246989 181.055496 
L 610.58517 181.512296 
L 610.923352 181.050615 
L 611.261534 180.827786 
L 611.937898 180.884563 
L 612.27608 181.202102 
L 612.614261 180.650656 
L 612.952443 180.823764 
L 613.290625 180.727668 
L 613.966989 181.31409 
L 614.643352 180.373238 
L 614.981534 180.744619 
L 615.319716 180.05181 
L 615.657898 179.901931 
L 617.010625 180.837801 
L 618.02517 181.259173 
L 618.363352 180.644991 
L 618.701534 181.11426 
L 619.039716 181.159168 
L 619.377898 180.746381 
L 619.71608 180.698586 
L 620.392443 181.113565 
L 620.730625 180.972924 
L 621.068807 181.257505 
L 621.406989 180.695665 
L 622.083352 181.216332 
L 622.421534 180.964219 
L 622.759716 180.87865 
L 623.097898 181.119521 
L 623.43608 181.607793 
L 623.774261 181.122925 
L 624.112443 181.126172 
L 624.450625 181.370888 
L 624.788807 181.43704 
L 625.126989 181.093536 
L 625.126989 181.093536 
" clip-path="url(#p2465eddf03)" style="fill: none; stroke: #1f77b4; stroke-width: 1.5; stroke-linecap: square"/>
   </g>
   <g id="line2d_15">
    <path d="M 117.854261 296.03625 
L 118.192443 293.670519 
L 118.530625 246.011862 
L 118.868807 269.986081 
L 119.206989 278.80496 
L 119.54517 248.797222 
L 119.883352 230.620247 
L 120.221534 249.231156 
L 120.559716 223.688053 
L 120.897898 220.004876 
L 121.23608 208.447941 
L 121.574261 211.42837 
L 121.912443 210.881812 
L 122.250625 207.172589 
L 122.588807 205.397716 
L 122.926989 204.796222 
L 123.26517 201.902029 
L 123.603352 204.825475 
L 123.941534 199.039532 
L 124.279716 198.542908 
L 124.617898 192.649877 
L 124.95608 193.698227 
L 125.294261 192.006893 
L 125.632443 194.531603 
L 125.970625 193.321072 
L 126.308807 195.950344 
L 126.646989 197.127018 
L 126.98517 197.851664 
L 127.323352 197.33166 
L 127.661534 192.321801 
L 127.999716 190.967719 
L 128.337898 193.33488 
L 128.67608 192.207896 
L 129.352443 192.261632 
L 129.690625 189.654198 
L 130.366989 191.107552 
L 131.381534 192.268471 
L 132.057898 187.000513 
L 132.39608 188.560084 
L 132.734261 190.703189 
L 133.072443 191.730823 
L 133.410625 190.152641 
L 133.748807 189.313256 
L 134.086989 190.141136 
L 134.42517 189.859756 
L 134.763352 189.199789 
L 135.101534 188.181538 
L 135.439716 189.724939 
L 135.777898 185.408925 
L 136.11608 186.78425 
L 136.454261 189.527407 
L 136.792443 190.100574 
L 137.130625 186.043988 
L 137.468807 188.646009 
L 137.806989 187.302461 
L 138.14517 187.322897 
L 138.483352 188.79512 
L 138.821534 187.482793 
L 139.159716 184.947255 
L 139.497898 187.693612 
L 139.83608 186.691977 
L 140.174261 188.118964 
L 140.512443 188.999593 
L 141.188807 186.831658 
L 141.526989 188.620825 
L 141.86517 188.360617 
L 142.203352 188.945293 
L 142.541534 187.132025 
L 142.879716 186.201876 
L 143.217898 188.283568 
L 143.894261 187.196792 
L 144.232443 186.938449 
L 144.570625 187.869209 
L 144.908807 189.448849 
L 145.246989 186.718774 
L 145.58517 187.926137 
L 145.923352 188.029027 
L 146.261534 190.577963 
L 146.599716 188.203017 
L 146.937898 187.138785 
L 147.27608 187.142223 
L 147.614261 186.650825 
L 147.952443 187.646986 
L 148.290625 189.119807 
L 148.628807 187.357287 
L 149.30517 186.780915 
L 149.981534 187.368904 
L 150.657898 186.468459 
L 150.99608 186.8359 
L 151.334261 186.971379 
L 151.672443 186.899701 
L 152.010625 185.093429 
L 152.686989 187.794619 
L 153.02517 185.873828 
L 153.363352 187.042895 
L 153.701534 187.159686 
L 154.039716 186.253183 
L 154.377898 188.14548 
L 154.71608 186.173962 
L 155.054261 185.537409 
L 155.392443 184.507913 
L 155.730625 185.289264 
L 156.068807 185.491353 
L 156.74517 185.50605 
L 157.083352 186.706911 
L 158.097898 186.282175 
L 158.43608 187.690941 
L 158.774261 187.862135 
L 159.112443 187.247781 
L 159.450625 187.676233 
L 159.788807 187.559511 
L 160.126989 186.670892 
L 160.46517 186.806549 
L 160.803352 187.357622 
L 161.141534 185.867307 
L 161.479716 187.427715 
L 161.817898 187.569171 
L 162.15608 186.07568 
L 162.494261 187.16852 
L 162.832443 186.5731 
L 163.508807 187.488045 
L 163.846989 188.414262 
L 164.18517 186.39198 
L 164.523352 186.976814 
L 164.861534 187.007496 
L 165.199716 187.455282 
L 165.537898 187.062753 
L 165.87608 187.688059 
L 166.214261 188.913983 
L 166.552443 187.573495 
L 167.228807 187.191744 
L 167.566989 188.389262 
L 167.90517 187.798525 
L 168.243352 188.176457 
L 168.581534 187.385669 
L 168.919716 187.75249 
L 169.257898 188.699782 
L 169.59608 187.992732 
L 170.272443 187.416289 
L 170.610625 187.418395 
L 170.948807 188.303428 
L 171.286989 188.623496 
L 171.62517 187.288899 
L 171.963352 187.427393 
L 172.301534 186.829265 
L 173.31608 187.035494 
L 173.654261 187.28354 
L 173.992443 186.891307 
L 174.330625 186.72 
L 174.668807 188.287451 
L 175.006989 187.859376 
L 175.34517 187.743438 
L 175.683352 188.356273 
L 176.021534 188.02346 
L 176.359716 188.876462 
L 176.697898 188.073269 
L 177.03608 188.013018 
L 177.374261 188.164853 
L 178.050625 188.680438 
L 178.388807 188.271192 
L 178.726989 187.5247 
L 179.06517 188.341547 
L 179.403352 188.324353 
L 179.741534 189.009177 
L 180.079716 188.05667 
L 180.417898 188.160156 
L 181.094261 187.39402 
L 181.432443 188.24029 
L 181.770625 188.117727 
L 182.108807 188.362317 
L 182.78517 187.579802 
L 183.123352 188.523492 
L 183.461534 187.779426 
L 183.799716 188.004608 
L 184.137898 188.050907 
L 184.47608 187.705057 
L 185.152443 188.714194 
L 185.490625 188.091426 
L 186.166989 188.372829 
L 186.50517 187.862224 
L 187.181534 189.328308 
L 187.519716 188.385363 
L 187.857898 188.20942 
L 188.19608 187.831949 
L 188.534261 189.396933 
L 188.872443 188.005285 
L 189.210625 188.784901 
L 189.548807 187.040929 
L 189.886989 188.521028 
L 190.22517 188.971472 
L 190.563352 189.738808 
L 190.901534 189.229262 
L 191.239716 189.357389 
L 191.577898 188.446275 
L 191.91608 187.861986 
L 192.254261 189.002622 
L 192.592443 188.464863 
L 192.930625 188.759545 
L 193.268807 188.493274 
L 193.94517 187.552388 
L 194.283352 188.515434 
L 194.621534 187.482559 
L 194.959716 188.208671 
L 195.297898 188.294128 
L 195.63608 188.216891 
L 195.974261 187.922589 
L 196.312443 188.012822 
L 196.650625 187.853364 
L 196.988807 187.512304 
L 197.66517 188.52519 
L 198.003352 188.286137 
L 198.341534 188.223808 
L 198.679716 188.930585 
L 199.017898 188.287846 
L 199.35608 187.929877 
L 199.694261 188.750086 
L 200.032443 188.931987 
L 200.370625 188.828422 
L 200.708807 187.992121 
L 201.38517 188.912342 
L 202.061534 188.581938 
L 202.399716 188.857937 
L 202.737898 188.733222 
L 203.07608 188.460897 
L 203.752443 189.477394 
L 204.090625 189.028242 
L 204.428807 189.131799 
L 204.766989 188.861658 
L 205.10517 189.526858 
L 205.443352 189.535713 
L 206.119716 188.843236 
L 206.457898 188.902469 
L 206.79608 188.297058 
L 207.134261 189.54924 
L 207.472443 188.985136 
L 208.486989 189.774629 
L 208.82517 189.788429 
L 209.501534 189.519565 
L 209.839716 190.233118 
L 210.177898 189.702311 
L 210.51608 189.514199 
L 210.854261 190.08353 
L 211.192443 190.008336 
L 211.530625 189.565447 
L 211.868807 189.583096 
L 212.206989 190.037254 
L 212.54517 189.91953 
L 213.221534 190.246258 
L 213.559716 188.569576 
L 214.23608 189.990945 
L 214.574261 189.358044 
L 214.912443 189.515732 
L 215.250625 190.11674 
L 215.588807 190.121262 
L 215.926989 190.574514 
L 216.26517 190.013054 
L 216.941534 190.082704 
L 217.617898 189.159987 
L 217.95608 189.122912 
L 218.294261 190.043139 
L 218.632443 189.066995 
L 218.970625 189.494748 
L 219.308807 189.70741 
L 219.646989 189.284489 
L 219.98517 188.605509 
L 220.323352 188.988014 
L 220.661534 188.617698 
L 220.999716 189.643596 
L 221.337898 189.470632 
L 221.67608 188.767958 
L 222.352443 188.195484 
L 222.690625 189.182142 
L 223.028807 189.285755 
L 223.366989 188.604241 
L 223.70517 188.630051 
L 224.381534 189.001234 
L 224.719716 188.555197 
L 225.057898 188.711234 
L 225.39608 188.331132 
L 225.734261 188.216426 
L 226.072443 188.946966 
L 226.410625 188.868593 
L 226.748807 186.61303 
L 227.086989 187.3314 
L 227.42517 187.278921 
L 227.763352 188.626443 
L 228.101534 188.356777 
L 228.439716 188.236927 
L 228.777898 189.014136 
L 229.11608 188.35781 
L 229.454261 188.732627 
L 229.792443 188.594183 
L 230.468807 187.977919 
L 230.806989 188.852699 
L 231.14517 188.838792 
L 231.483352 188.572765 
L 231.821534 187.58102 
L 232.159716 188.035673 
L 232.497898 188.068834 
L 232.83608 188.700876 
L 233.174261 188.052588 
L 233.512443 188.169167 
L 233.850625 188.687222 
L 234.188807 187.943018 
L 234.526989 188.021358 
L 234.86517 188.77915 
L 235.203352 187.496709 
L 235.541534 188.089395 
L 235.879716 188.053076 
L 236.217898 188.150853 
L 237.232443 187.922646 
L 237.570625 186.703195 
L 237.908807 187.536367 
L 238.246989 188.008924 
L 238.923352 187.626979 
L 239.261534 187.479456 
L 239.599716 187.854597 
L 239.937898 188.015779 
L 240.614261 187.371093 
L 241.290625 187.613359 
L 241.628807 187.426125 
L 241.966989 187.772992 
L 242.981534 187.031821 
L 243.319716 187.559654 
L 243.657898 187.190519 
L 243.99608 187.5633 
L 244.334261 187.427299 
L 244.672443 187.129459 
L 245.348807 187.940556 
L 245.686989 187.680124 
L 246.02517 187.68277 
L 246.363352 187.422893 
L 246.701534 187.429192 
L 247.039716 187.247293 
L 247.377898 187.229189 
L 247.71608 187.632436 
L 248.054261 187.059433 
L 248.392443 186.9121 
L 248.730625 187.470026 
L 249.068807 186.911189 
L 249.406989 186.861304 
L 250.083352 188.172784 
L 250.421534 188.13753 
L 250.759716 186.583549 
L 251.43608 187.521703 
L 251.774261 186.950001 
L 252.112443 187.320842 
L 252.450625 187.351116 
L 252.788807 187.18988 
L 253.126989 187.486731 
L 253.46517 187.064197 
L 253.803352 188.068991 
L 254.141534 187.438666 
L 254.479716 187.525588 
L 254.817898 187.213787 
L 255.15608 187.064928 
L 255.494261 187.534254 
L 255.832443 186.999843 
L 256.170625 186.926129 
L 256.846989 187.337595 
L 257.18517 187.268334 
L 257.523352 187.325297 
L 258.199716 188.006475 
L 258.537898 187.257402 
L 258.87608 187.061195 
L 259.214261 187.293884 
L 259.552443 187.793211 
L 259.890625 187.372868 
L 260.228807 187.207817 
L 260.566989 187.337196 
L 260.90517 187.697688 
L 261.243352 187.695944 
L 261.919716 187.27155 
L 262.257898 187.498069 
L 262.59608 186.499071 
L 262.934261 187.45085 
L 263.272443 187.487471 
L 263.948807 187.079629 
L 264.286989 187.896338 
L 264.62517 188.090981 
L 264.963352 187.424129 
L 265.301534 187.19887 
L 265.639716 187.659776 
L 265.977898 187.411044 
L 266.31608 188.069676 
L 266.992443 187.84988 
L 267.330625 187.070756 
L 267.668807 187.950427 
L 268.34517 187.633012 
L 268.683352 188.045176 
L 269.021534 187.762842 
L 269.359716 188.078089 
L 269.697898 187.860503 
L 270.03608 187.220608 
L 270.374261 187.392386 
L 271.050625 187.36011 
L 271.388807 187.501666 
L 271.726989 187.962535 
L 272.06517 188.130643 
L 272.403352 187.961241 
L 272.741534 188.060456 
L 273.079716 187.395321 
L 273.417898 188.152944 
L 274.094261 187.777553 
L 274.432443 188.221934 
L 274.770625 188.327467 
L 275.108807 187.334414 
L 275.446989 187.575282 
L 275.78517 187.386209 
L 276.123352 187.621626 
L 276.799716 187.691807 
L 277.137898 187.598309 
L 277.47608 187.866171 
L 277.814261 188.502235 
L 278.152443 187.314569 
L 278.490625 187.493962 
L 278.828807 187.450727 
L 279.166989 187.814029 
L 279.50517 187.417195 
L 279.843352 187.974649 
L 280.519716 187.508638 
L 280.857898 187.346572 
L 281.19608 187.041069 
L 281.534261 187.641585 
L 281.872443 186.948475 
L 282.886989 187.407369 
L 283.22517 187.783451 
L 283.563352 186.782889 
L 283.901534 186.524814 
L 284.239716 187.174069 
L 284.577898 186.954514 
L 285.254261 187.170452 
L 285.592443 186.948924 
L 285.930625 187.357923 
L 286.268807 186.64722 
L 286.606989 186.591312 
L 286.94517 187.170567 
L 287.283352 186.922178 
L 287.621534 187.859855 
L 287.959716 187.608934 
L 288.297898 186.862467 
L 288.63608 187.229374 
L 288.974261 187.81697 
L 289.312443 187.636123 
L 289.650625 187.21291 
L 289.988807 187.445551 
L 290.326989 188.112018 
L 290.66517 187.574905 
L 291.003352 188.25343 
L 291.679716 187.376497 
L 292.017898 187.700975 
L 292.35608 187.308583 
L 293.032443 187.314403 
L 293.370625 186.835633 
L 293.708807 187.844397 
L 294.723352 187.208921 
L 295.061534 186.666028 
L 295.399716 187.334858 
L 295.737898 186.874302 
L 296.414261 187.869404 
L 296.752443 187.228491 
L 297.090625 187.823869 
L 297.428807 187.239268 
L 297.766989 187.020496 
L 298.10517 187.197063 
L 298.443352 187.932748 
L 298.781534 187.430735 
L 299.119716 187.394432 
L 299.457898 187.476013 
L 299.79608 187.297475 
L 300.134261 187.682553 
L 300.810625 187.372028 
L 301.148807 187.628201 
L 301.486989 186.783212 
L 301.82517 187.074856 
L 302.163352 186.839405 
L 302.501534 187.515935 
L 302.839716 187.763284 
L 303.177898 187.505691 
L 303.51608 186.969055 
L 303.854261 187.109494 
L 304.192443 187.535298 
L 304.530625 187.599074 
L 304.868807 187.05674 
L 305.206989 187.478947 
L 305.54517 186.890404 
L 305.883352 187.426476 
L 306.221534 186.929427 
L 306.897898 187.451987 
L 307.23608 187.646823 
L 307.574261 187.341754 
L 308.250625 187.365084 
L 308.588807 188.043789 
L 308.926989 187.491406 
L 309.26517 187.225406 
L 310.279716 187.781165 
L 310.617898 187.21531 
L 310.95608 187.431781 
L 311.294261 187.030991 
L 311.632443 187.667348 
L 311.970625 187.632509 
L 312.308807 187.483169 
L 312.646989 187.892397 
L 312.98517 188.030297 
L 313.323352 187.892854 
L 313.661534 187.209789 
L 313.999716 187.498252 
L 314.337898 187.144424 
L 314.67608 187.409736 
L 315.014261 187.265258 
L 315.352443 187.92355 
L 315.690625 187.202294 
L 316.028807 188.344075 
L 316.366989 187.628879 
L 316.70517 187.287634 
L 317.043352 187.250385 
L 317.381534 187.988552 
L 317.719716 187.071004 
L 318.057898 187.082474 
L 318.39608 187.294689 
L 318.734261 187.221526 
L 319.072443 187.028633 
L 319.410625 185.158508 
L 319.748807 184.299615 
L 320.086989 184.500074 
L 320.42517 185.277536 
L 321.101534 185.268716 
L 321.439716 185.015152 
L 321.777898 185.796076 
L 322.11608 185.957616 
L 322.454261 185.848003 
L 323.130625 185.892563 
L 323.806989 185.735179 
L 324.14517 186.276245 
L 324.483352 185.92426 
L 324.821534 186.247262 
L 325.159716 186.411477 
L 325.497898 185.734071 
L 325.83608 185.479624 
L 326.174261 185.718253 
L 326.512443 185.690473 
L 326.850625 186.112403 
L 327.188807 186.273486 
L 327.526989 186.295534 
L 327.86517 185.989211 
L 328.203352 186.997044 
L 328.879716 186.170765 
L 329.217898 185.977352 
L 329.894261 186.875185 
L 330.232443 185.986072 
L 330.570625 185.923514 
L 330.908807 186.399051 
L 331.246989 186.190623 
L 331.58517 186.267194 
L 331.923352 186.775894 
L 332.261534 186.365425 
L 332.599716 186.908483 
L 332.937898 186.091172 
L 333.27608 185.744954 
L 333.614261 186.419137 
L 333.952443 186.485364 
L 334.290625 186.161955 
L 334.628807 186.35255 
L 335.981534 186.435734 
L 336.319716 186.270934 
L 336.657898 186.280163 
L 336.99608 186.571571 
L 337.334261 186.277754 
L 337.672443 186.138949 
L 338.010625 186.467975 
L 338.348807 186.182124 
L 338.686989 186.297055 
L 339.363352 186.071706 
L 339.701534 185.619711 
L 340.039716 186.231998 
L 340.377898 186.019974 
L 340.71608 186.273818 
L 341.730625 186.389846 
L 342.068807 186.049325 
L 342.406989 186.585675 
L 342.74517 185.907984 
L 343.083352 185.839286 
L 343.759716 185.906247 
L 344.097898 186.203396 
L 344.43608 186.185789 
L 345.450625 186.534952 
L 345.788807 186.425753 
L 346.126989 187.20929 
L 346.46517 186.719798 
L 346.803352 186.52465 
L 347.141534 186.153964 
L 347.479716 186.784297 
L 347.817898 186.40804 
L 348.494261 186.201713 
L 348.832443 186.48308 
L 350.18517 186.353096 
L 350.861534 186.642501 
L 351.199716 186.526376 
L 351.537898 185.881085 
L 351.87608 185.85757 
L 352.552443 186.964825 
L 352.890625 187.053255 
L 353.228807 186.680356 
L 353.566989 186.720612 
L 353.90517 186.554846 
L 354.243352 186.154126 
L 354.919716 186.243824 
L 355.257898 186.221894 
L 355.59608 185.734358 
L 355.934261 186.339099 
L 356.272443 186.253976 
L 356.610625 186.357352 
L 356.948807 186.635677 
L 357.286989 186.454912 
L 357.62517 186.401728 
L 357.963352 186.75468 
L 358.301534 186.846287 
L 358.639716 186.299263 
L 358.977898 186.117263 
L 359.31608 186.345605 
L 359.654261 186.360191 
L 359.992443 186.623006 
L 360.330625 186.388703 
L 360.668807 186.617551 
L 361.006989 186.09062 
L 361.34517 186.586596 
L 361.683352 186.190007 
L 362.021534 186.660059 
L 362.359716 186.198314 
L 362.697898 186.091641 
L 363.374261 185.492679 
L 363.712443 185.887332 
L 364.388807 186.26005 
L 365.06517 185.864112 
L 365.403352 186.417145 
L 365.741534 186.632897 
L 366.079716 185.933708 
L 366.417898 186.047637 
L 366.75608 186.288551 
L 367.094261 185.935597 
L 367.432443 186.265923 
L 367.770625 185.779064 
L 368.108807 186.225575 
L 368.446989 186.262343 
L 368.78517 186.175022 
L 369.461534 186.227135 
L 369.799716 186.45161 
L 370.137898 185.973284 
L 370.47608 186.244271 
L 370.814261 186.168642 
L 371.152443 185.807737 
L 371.490625 185.955103 
L 371.828807 185.719193 
L 372.166989 185.649423 
L 372.50517 185.813152 
L 372.843352 185.62288 
L 373.181534 185.698558 
L 373.519716 186.135217 
L 373.857898 186.148878 
L 374.19608 185.919774 
L 374.534261 186.061994 
L 374.872443 185.963711 
L 375.210625 186.235315 
L 376.563352 185.818094 
L 376.901534 185.097689 
L 377.239716 185.180212 
L 377.577898 185.592678 
L 377.91608 185.437189 
L 378.254261 185.40739 
L 378.592443 185.814178 
L 378.930625 185.288091 
L 379.268807 185.297282 
L 379.606989 185.748318 
L 379.94517 186.011659 
L 380.283352 185.750687 
L 380.621534 185.921088 
L 381.297898 185.553697 
L 381.63608 185.815104 
L 381.974261 186.233264 
L 382.312443 186.316116 
L 382.650625 186.106491 
L 382.988807 186.302507 
L 383.66517 186.116011 
L 384.003352 186.737963 
L 384.341534 186.254033 
L 384.679716 186.364181 
L 385.017898 186.005004 
L 386.032443 185.818936 
L 386.370625 186.107107 
L 387.046989 186.203682 
L 387.38517 185.955973 
L 387.723352 186.32537 
L 388.061534 185.95286 
L 388.399716 186.028157 
L 388.737898 185.742714 
L 389.07608 185.72313 
L 389.414261 186.013151 
L 390.090625 185.709862 
L 390.766989 185.929628 
L 391.10517 185.404373 
L 391.443352 185.736935 
L 391.781534 186.478309 
L 392.119716 185.97255 
L 392.457898 186.223972 
L 392.79608 185.852485 
L 393.472443 186.277131 
L 393.810625 186.02464 
L 394.148807 186.005793 
L 394.486989 185.790291 
L 394.82517 185.379349 
L 395.163352 185.745231 
L 395.839716 185.577989 
L 396.177898 185.490213 
L 396.51608 185.71399 
L 396.854261 185.547125 
L 397.192443 186.376341 
L 397.530625 185.685145 
L 397.868807 185.437634 
L 398.206989 185.782203 
L 398.54517 185.450856 
L 398.883352 185.439633 
L 399.559716 185.955089 
L 399.897898 185.591906 
L 400.574261 185.952991 
L 400.912443 185.654438 
L 401.250625 185.861792 
L 401.588807 185.674963 
L 401.926989 185.971651 
L 402.26517 186.050419 
L 402.603352 185.671561 
L 402.941534 185.714797 
L 403.279716 185.910593 
L 403.617898 185.816853 
L 403.95608 185.941182 
L 404.294261 185.56361 
L 404.632443 185.856095 
L 404.970625 185.937247 
L 405.308807 185.525211 
L 405.98517 185.502809 
L 406.323352 185.799641 
L 406.661534 185.316523 
L 406.999716 185.723265 
L 407.337898 185.748763 
L 407.67608 185.469673 
L 408.014261 186.073279 
L 408.352443 185.85243 
L 408.690625 186.304317 
L 409.028807 185.806278 
L 409.366989 185.647092 
L 409.70517 185.774718 
L 410.043352 185.772281 
L 410.381534 185.331673 
L 410.719716 185.665762 
L 411.057898 185.342823 
L 412.072443 186.082109 
L 412.410625 186.089877 
L 412.748807 184.787684 
L 413.086989 185.59565 
L 413.763352 185.976348 
L 414.101534 185.979838 
L 414.439716 185.464481 
L 415.11608 185.766317 
L 415.454261 185.304157 
L 415.792443 185.241858 
L 416.130625 185.630348 
L 416.806989 185.863152 
L 417.14517 185.674776 
L 417.483352 185.842227 
L 417.821534 185.839063 
L 418.159716 185.343559 
L 418.83608 185.748516 
L 419.174261 185.667737 
L 419.512443 185.860776 
L 419.850625 185.722093 
L 420.188807 185.396313 
L 420.86517 185.501576 
L 421.203352 185.122117 
L 421.541534 185.89944 
L 421.879716 185.378716 
L 422.217898 185.717443 
L 422.55608 185.3795 
L 422.894261 185.614582 
L 423.570625 185.826792 
L 423.908807 185.921637 
L 424.58517 185.273631 
L 424.923352 185.393312 
L 425.261534 185.974657 
L 425.599716 184.983217 
L 426.27608 185.771134 
L 426.614261 185.812377 
L 426.952443 185.487687 
L 427.628807 185.658713 
L 427.966989 185.350863 
L 428.30517 185.208361 
L 428.643352 185.581589 
L 428.981534 185.215886 
L 429.319716 185.230168 
L 429.99608 184.996668 
L 430.672443 185.660728 
L 431.010625 185.400554 
L 431.348807 185.493324 
L 432.02517 185.242921 
L 432.363352 185.382258 
L 432.701534 185.666778 
L 433.377898 185.047268 
L 434.054261 185.643121 
L 434.392443 185.291113 
L 434.730625 185.600169 
L 435.068807 185.163958 
L 435.406989 185.262357 
L 435.74517 185.641168 
L 436.083352 185.21704 
L 436.421534 185.502371 
L 436.759716 185.237078 
L 437.097898 185.503319 
L 437.43608 184.951404 
L 437.774261 185.278299 
L 438.112443 185.06473 
L 438.450625 185.618755 
L 439.46517 184.901788 
L 439.803352 185.055061 
L 440.141534 185.341415 
L 440.479716 185.35212 
L 440.817898 185.230386 
L 441.15608 185.557566 
L 441.494261 185.138828 
L 442.170625 185.212811 
L 442.508807 185.110931 
L 442.846989 184.766846 
L 443.18517 185.098531 
L 443.523352 184.858957 
L 443.861534 185.366991 
L 444.199716 184.832966 
L 444.537898 185.304899 
L 444.87608 185.348768 
L 445.214261 185.019933 
L 445.552443 184.066157 
L 445.890625 184.953365 
L 446.228807 185.029033 
L 446.566989 184.580125 
L 447.243352 184.812666 
L 447.581534 185.011276 
L 447.919716 185.488328 
L 448.257898 184.839575 
L 448.59608 185.246628 
L 448.934261 185.46906 
L 449.610625 184.708155 
L 449.948807 184.612363 
L 450.286989 185.073962 
L 450.62517 185.00207 
L 450.963352 184.667401 
L 451.301534 185.660946 
L 451.639716 185.387543 
L 452.31608 184.554148 
L 453.330625 184.994997 
L 453.668807 184.615874 
L 454.34517 185.217749 
L 454.683352 184.890171 
L 455.021534 185.107049 
L 455.359716 184.634478 
L 456.712443 185.260286 
L 457.050625 184.963435 
L 457.388807 185.088686 
L 457.726989 184.95617 
L 458.06517 185.05309 
L 458.403352 185.289761 
L 458.741534 185.137012 
L 459.079716 185.338344 
L 459.75608 184.990153 
L 460.770625 185.089635 
L 461.108807 185.092262 
L 461.446989 184.908988 
L 461.78517 184.89784 
L 462.123352 185.154122 
L 462.461534 185.214908 
L 462.799716 185.076644 
L 463.137898 185.285548 
L 463.47608 185.064083 
L 463.814261 185.229144 
L 464.152443 184.883728 
L 464.490625 184.752453 
L 464.828807 185.124473 
L 465.166989 184.638999 
L 465.50517 184.873653 
L 465.843352 185.464575 
L 466.181534 185.312124 
L 466.857898 185.285787 
L 467.19608 185.473608 
L 467.534261 184.54076 
L 468.210625 185.16694 
L 468.548807 184.770681 
L 468.886989 184.939562 
L 469.22517 184.880314 
L 469.563352 185.155055 
L 469.901534 184.841595 
L 470.239716 185.55881 
L 470.577898 185.067812 
L 470.91608 184.951094 
L 471.254261 185.066114 
L 471.592443 184.687902 
L 471.930625 184.900511 
L 472.268807 184.912242 
L 472.606989 184.660179 
L 473.283352 184.620449 
L 473.621534 184.937311 
L 473.959716 184.615958 
L 474.297898 184.728864 
L 474.63608 184.961336 
L 475.312443 184.537369 
L 476.326989 184.902272 
L 476.66517 185.005211 
L 477.003352 184.782223 
L 477.341534 184.413976 
L 477.679716 184.733595 
L 478.35608 184.808739 
L 478.694261 185.145023 
L 479.032443 184.699711 
L 479.370625 184.865599 
L 479.708807 184.612051 
L 480.046989 185.049187 
L 480.723352 185.289952 
L 481.061534 184.809121 
L 481.399716 185.01908 
L 481.737898 184.829658 
L 482.07608 184.945658 
L 482.752443 184.921307 
L 483.090625 185.744583 
L 483.428807 185.289857 
L 484.443352 185.204668 
L 484.781534 185.02375 
L 485.119716 185.851191 
L 485.457898 185.202026 
L 485.79608 185.299428 
L 486.134261 185.258903 
L 486.472443 185.765713 
L 486.810625 185.017931 
L 487.148807 185.223402 
L 487.486989 184.843359 
L 487.82517 185.161111 
L 488.163352 184.758296 
L 488.501534 184.801805 
L 488.839716 185.203225 
L 489.177898 184.830448 
L 489.51608 185.276529 
L 489.854261 185.156063 
L 490.192443 185.401703 
L 490.530625 185.368559 
L 490.868807 185.039974 
L 491.206989 185.364377 
L 491.54517 185.372773 
L 491.883352 185.124982 
L 492.897898 185.338046 
L 493.23608 185.160352 
L 493.574261 185.622062 
L 493.912443 185.638071 
L 494.250625 184.985756 
L 494.588807 185.545884 
L 494.926989 185.73752 
L 495.26517 185.255421 
L 495.941534 185.100956 
L 496.279716 185.390662 
L 496.95608 185.383446 
L 497.294261 185.138582 
L 497.632443 185.081053 
L 497.970625 185.36929 
L 498.308807 185.155861 
L 498.646989 185.25123 
L 499.323352 184.964765 
L 499.661534 184.843631 
L 499.999716 185.11617 
L 500.337898 184.955133 
L 500.67608 185.018476 
L 501.014261 184.872595 
L 501.352443 185.073209 
L 501.690625 184.859193 
L 502.028807 185.007464 
L 502.366989 184.919116 
L 502.70517 185.160708 
L 503.381534 184.992052 
L 503.719716 185.448633 
L 504.057898 185.129941 
L 504.39608 185.317515 
L 504.734261 185.290708 
L 505.072443 184.780939 
L 505.410625 180.036991 
L 505.748807 182.56178 
L 506.086989 183.98074 
L 506.42517 183.608499 
L 506.763352 183.802444 
L 507.101534 182.828187 
L 507.439716 183.003421 
L 507.777898 182.664868 
L 508.11608 182.660828 
L 508.454261 182.797474 
L 509.130625 182.332724 
L 509.468807 182.871875 
L 509.806989 182.77053 
L 510.14517 182.828017 
L 510.483352 183.259699 
L 510.821534 183.433791 
L 511.159716 183.009316 
L 512.174261 183.394681 
L 512.512443 183.724366 
L 513.188807 183.204305 
L 513.526989 183.679701 
L 514.203352 183.20975 
L 514.541534 183.655039 
L 514.879716 183.597079 
L 515.217898 183.933037 
L 515.55608 183.533879 
L 515.894261 183.312294 
L 516.232443 183.714128 
L 516.570625 183.471159 
L 516.908807 183.50005 
L 517.58517 184.314002 
L 517.923352 183.612529 
L 518.261534 183.560315 
L 518.937898 183.656162 
L 519.27608 183.468498 
L 519.614261 183.717202 
L 519.952443 184.223634 
L 520.290625 183.773258 
L 520.628807 183.63697 
L 521.30517 184.015264 
L 521.981534 183.788114 
L 522.319716 183.96905 
L 522.657898 183.494329 
L 522.99608 183.749704 
L 523.334261 183.728994 
L 523.672443 183.879491 
L 524.348807 183.43429 
L 525.02517 183.806607 
L 525.363352 183.222694 
L 525.701534 183.761326 
L 526.039716 183.553487 
L 526.377898 183.785491 
L 527.392443 183.709997 
L 527.730625 183.463813 
L 528.068807 183.723789 
L 528.406989 183.340668 
L 528.74517 183.923346 
L 529.083352 183.457319 
L 529.421534 183.66021 
L 530.097898 183.269472 
L 531.112443 183.935596 
L 531.450625 183.566451 
L 532.126989 183.387112 
L 532.46517 183.70615 
L 532.803352 183.314692 
L 533.141534 183.848061 
L 533.479716 183.628863 
L 533.817898 183.181817 
L 534.15608 183.388481 
L 534.494261 183.744475 
L 534.832443 183.755057 
L 535.170625 183.646553 
L 535.846989 183.873659 
L 536.18517 183.949715 
L 536.523352 183.213537 
L 536.861534 183.281806 
L 537.199716 183.690155 
L 537.537898 183.578216 
L 537.87608 183.856638 
L 538.214261 183.406458 
L 538.552443 183.567542 
L 538.890625 184.027791 
L 539.228807 183.50691 
L 539.566989 183.562667 
L 539.90517 183.266677 
L 540.243352 183.180689 
L 540.581534 183.610598 
L 540.919716 183.30321 
L 541.257898 183.695 
L 541.59608 183.035239 
L 541.934261 183.881584 
L 542.272443 183.475687 
L 542.610625 183.371651 
L 543.286989 183.993367 
L 543.62517 183.741462 
L 543.963352 183.815634 
L 544.301534 183.339237 
L 544.977898 183.644082 
L 545.31608 183.348002 
L 545.654261 183.473453 
L 545.992443 184.147805 
L 546.330625 184.015953 
L 546.668807 183.542469 
L 547.006989 183.331938 
L 547.34517 183.69612 
L 547.683352 183.159634 
L 548.021534 183.464488 
L 548.697898 183.428491 
L 549.03608 183.274972 
L 549.374261 183.374157 
L 549.712443 183.116363 
L 550.050625 183.503453 
L 550.388807 183.699039 
L 550.726989 183.354238 
L 551.06517 183.542265 
L 551.403352 183.262553 
L 551.741534 183.595958 
L 552.079716 183.61165 
L 552.417898 183.447239 
L 552.75608 183.742063 
L 553.094261 183.720341 
L 553.432443 183.845882 
L 553.770625 183.254979 
L 554.78517 183.287191 
L 555.123352 183.187968 
L 555.461534 183.636825 
L 555.799716 183.267348 
L 556.137898 183.562088 
L 556.47608 183.502068 
L 556.814261 183.297027 
L 557.152443 183.322349 
L 557.828807 183.551254 
L 558.50517 183.350554 
L 558.843352 183.603973 
L 559.181534 183.098763 
L 559.519716 183.042062 
L 560.19608 183.669447 
L 560.534261 183.466858 
L 560.872443 183.401992 
L 561.210625 184.102038 
L 561.548807 183.599398 
L 561.886989 183.645449 
L 562.22517 183.565669 
L 562.563352 183.804148 
L 563.577898 183.269829 
L 563.91608 183.606135 
L 564.254261 183.452829 
L 564.930625 183.393455 
L 565.268807 183.82691 
L 565.606989 183.346234 
L 565.94517 183.577972 
L 566.283352 183.587448 
L 566.621534 183.423884 
L 566.959716 183.627187 
L 567.297898 183.393281 
L 567.63608 183.65609 
L 567.974261 183.515589 
L 568.312443 183.626813 
L 568.650625 183.311961 
L 569.326989 183.426901 
L 569.66517 182.992038 
L 570.003352 183.071403 
L 570.341534 183.401835 
L 570.679716 183.497815 
L 571.017898 182.924655 
L 571.694261 183.498596 
L 572.708807 183.323552 
L 573.046989 183.129153 
L 573.38517 183.42482 
L 573.723352 183.361321 
L 574.061534 183.086464 
L 574.399716 183.136548 
L 574.737898 183.505101 
L 575.07608 183.340691 
L 575.414261 183.484262 
L 576.090625 183.184531 
L 577.10517 183.449026 
L 577.443352 183.20795 
L 577.781534 183.7038 
L 578.79608 183.531942 
L 579.134261 183.258673 
L 579.472443 183.441936 
L 579.810625 183.444441 
L 580.148807 183.565086 
L 580.486989 183.165658 
L 581.501534 183.152049 
L 582.177898 183.107586 
L 582.51608 183.384105 
L 582.854261 182.973842 
L 583.192443 183.473798 
L 583.530625 183.76319 
L 583.868807 183.343807 
L 585.559716 183.465705 
L 585.897898 183.712417 
L 586.23608 183.657732 
L 586.912443 182.70531 
L 587.588807 182.429954 
L 587.926989 182.483317 
L 588.603352 183.320078 
L 590.294261 183.022061 
L 590.632443 183.386519 
L 591.308807 183.217535 
L 591.646989 183.623722 
L 592.323352 183.171696 
L 592.661534 183.117825 
L 593.337898 182.617823 
L 593.67608 182.696155 
L 594.014261 183.076463 
L 594.352443 182.911318 
L 595.366989 183.206343 
L 595.70517 183.036375 
L 597.057898 183.149778 
L 597.39608 183.497997 
L 597.734261 183.001253 
L 598.072443 183.099563 
L 598.410625 183.583056 
L 598.748807 183.160004 
L 599.086989 183.020948 
L 600.101534 183.323396 
L 600.777898 183.041196 
L 601.11608 182.915704 
L 601.454261 183.015766 
L 601.792443 183.420561 
L 602.130625 183.533616 
L 602.806989 183.097874 
L 603.14517 182.773374 
L 603.483352 183.516329 
L 603.821534 183.154724 
L 604.497898 183.158788 
L 604.83608 183.348349 
L 605.174261 183.348833 
L 605.512443 183.077512 
L 607.203352 182.441261 
L 607.541534 182.6167 
L 607.879716 182.979482 
L 608.217898 182.662028 
L 608.55608 182.768526 
L 608.894261 182.613882 
L 609.570625 182.998654 
L 609.908807 182.612261 
L 610.246989 182.699188 
L 610.58517 182.393298 
L 610.923352 182.697021 
L 611.261534 182.712989 
L 611.599716 182.328841 
L 611.937898 182.816708 
L 612.27608 182.572083 
L 612.614261 182.978271 
L 612.952443 182.550365 
L 613.290625 182.777252 
L 613.966989 182.417953 
L 614.643352 182.714185 
L 614.981534 182.668187 
L 615.319716 182.787581 
L 615.657898 182.287962 
L 616.334261 182.519827 
L 616.672443 182.318817 
L 617.348807 182.312334 
L 617.686989 182.567052 
L 618.02517 182.527408 
L 618.363352 182.806326 
L 618.701534 182.503238 
L 619.039716 182.48821 
L 619.377898 182.612087 
L 619.71608 182.385311 
L 620.392443 182.601009 
L 621.068807 182.125806 
L 621.406989 182.645717 
L 621.74517 182.411736 
L 622.759716 182.298394 
L 623.097898 182.866667 
L 623.774261 182.75749 
L 624.112443 182.557725 
L 624.450625 182.603123 
L 625.126989 182.270885 
L 625.126989 182.270885 
" clip-path="url(#p2465eddf03)" style="fill: none; stroke: #ff7f0e; stroke-width: 1.5; stroke-linecap: square"/>
   </g>
   <g id="patch_3">
    <path d="M 92.490625 308.63625 
L 92.490625 31.43625 
" style="fill: none; stroke: #000000; stroke-width: 0.8; stroke-linejoin: miter; stroke-linecap: square"/>
   </g>
   <g id="patch_4">
    <path d="M 650.490625 308.63625 
L 650.490625 31.43625 
" style="fill: none; stroke: #000000; stroke-width: 0.8; stroke-linejoin: miter; stroke-linecap: square"/>
   </g>
   <g id="patch_5">
    <path d="M 92.490625 308.63625 
L 650.490625 308.63625 
" style="fill: none; stroke: #000000; stroke-width: 0.8; stroke-linejoin: miter; stroke-linecap: square"/>
   </g>
   <g id="patch_6">
    <path d="M 92.490625 31.43625 
L 650.490625 31.43625 
" style="fill: none; stroke: #000000; stroke-width: 0.8; stroke-linejoin: miter; stroke-linecap: square"/>
   </g>
   <g id="text_16">
    <!-- Generator and Discriminator Loss During Training -->
    <g transform="translate(74.258125 25.43625) scale(0.24 -0.24)">
     <defs>
      <path id="DejaVuSans-47" d="M 3809 666 
L 3809 1919 
L 2778 1919 
L 2778 2438 
L 4434 2438 
L 4434 434 
Q 4069 175 3628 42 
Q 3188 -91 2688 -91 
Q 1594 -91 976 548 
Q 359 1188 359 2328 
Q 359 3472 976 4111 
Q 1594 4750 2688 4750 
Q 3144 4750 3555 4637 
Q 3966 4525 4313 4306 
L 4313 3634 
Q 3963 3931 3569 4081 
Q 3175 4231 2741 4231 
Q 1884 4231 1454 3753 
Q 1025 3275 1025 2328 
Q 1025 1384 1454 906 
Q 1884 428 2741 428 
Q 3075 428 3337 486 
Q 3600 544 3809 666 
z
" transform="scale(0.015625)"/>
      <path id="DejaVuSans-20" transform="scale(0.015625)"/>
      <path id="DejaVuSans-64" d="M 2906 2969 
L 2906 4863 
L 3481 4863 
L 3481 0 
L 2906 0 
L 2906 525 
Q 2725 213 2448 61 
Q 2172 -91 1784 -91 
Q 1150 -91 751 415 
Q 353 922 353 1747 
Q 353 2572 751 3078 
Q 1150 3584 1784 3584 
Q 2172 3584 2448 3432 
Q 2725 3281 2906 2969 
z
M 947 1747 
Q 947 1113 1208 752 
Q 1469 391 1925 391 
Q 2381 391 2643 752 
Q 2906 1113 2906 1747 
Q 2906 2381 2643 2742 
Q 2381 3103 1925 3103 
Q 1469 3103 1208 2742 
Q 947 2381 947 1747 
z
" transform="scale(0.015625)"/>
      <path id="DejaVuSans-44" d="M 1259 4147 
L 1259 519 
L 2022 519 
Q 2988 519 3436 956 
Q 3884 1394 3884 2338 
Q 3884 3275 3436 3711 
Q 2988 4147 2022 4147 
L 1259 4147 
z
M 628 4666 
L 1925 4666 
Q 3281 4666 3915 4102 
Q 4550 3538 4550 2338 
Q 4550 1131 3912 565 
Q 3275 0 1925 0 
L 628 0 
L 628 4666 
z
" transform="scale(0.015625)"/>
      <path id="DejaVuSans-63" d="M 3122 3366 
L 3122 2828 
Q 2878 2963 2633 3030 
Q 2388 3097 2138 3097 
Q 1578 3097 1268 2742 
Q 959 2388 959 1747 
Q 959 1106 1268 751 
Q 1578 397 2138 397 
Q 2388 397 2633 464 
Q 2878 531 3122 666 
L 3122 134 
Q 2881 22 2623 -34 
Q 2366 -91 2075 -91 
Q 1284 -91 818 406 
Q 353 903 353 1747 
Q 353 2603 823 3093 
Q 1294 3584 2113 3584 
Q 2378 3584 2631 3529 
Q 2884 3475 3122 3366 
z
" transform="scale(0.015625)"/>
      <path id="DejaVuSans-6d" d="M 3328 2828 
Q 3544 3216 3844 3400 
Q 4144 3584 4550 3584 
Q 5097 3584 5394 3201 
Q 5691 2819 5691 2113 
L 5691 0 
L 5113 0 
L 5113 2094 
Q 5113 2597 4934 2840 
Q 4756 3084 4391 3084 
Q 3944 3084 3684 2787 
Q 3425 2491 3425 1978 
L 3425 0 
L 2847 0 
L 2847 2094 
Q 2847 2600 2669 2842 
Q 2491 3084 2119 3084 
Q 1678 3084 1418 2786 
Q 1159 2488 1159 1978 
L 1159 0 
L 581 0 
L 581 3500 
L 1159 3500 
L 1159 2956 
Q 1356 3278 1631 3431 
Q 1906 3584 2284 3584 
Q 2666 3584 2933 3390 
Q 3200 3197 3328 2828 
z
" transform="scale(0.015625)"/>
      <path id="DejaVuSans-75" d="M 544 1381 
L 544 3500 
L 1119 3500 
L 1119 1403 
Q 1119 906 1312 657 
Q 1506 409 1894 409 
Q 2359 409 2629 706 
Q 2900 1003 2900 1516 
L 2900 3500 
L 3475 3500 
L 3475 0 
L 2900 0 
L 2900 538 
Q 2691 219 2414 64 
Q 2138 -91 1772 -91 
Q 1169 -91 856 284 
Q 544 659 544 1381 
z
M 1991 3584 
L 1991 3584 
z
" transform="scale(0.015625)"/>
      <path id="DejaVuSans-67" d="M 2906 1791 
Q 2906 2416 2648 2759 
Q 2391 3103 1925 3103 
Q 1463 3103 1205 2759 
Q 947 2416 947 1791 
Q 947 1169 1205 825 
Q 1463 481 1925 481 
Q 2391 481 2648 825 
Q 2906 1169 2906 1791 
z
M 3481 434 
Q 3481 -459 3084 -895 
Q 2688 -1331 1869 -1331 
Q 1566 -1331 1297 -1286 
Q 1028 -1241 775 -1147 
L 775 -588 
Q 1028 -725 1275 -790 
Q 1522 -856 1778 -856 
Q 2344 -856 2625 -561 
Q 2906 -266 2906 331 
L 2906 616 
Q 2728 306 2450 153 
Q 2172 0 1784 0 
Q 1141 0 747 490 
Q 353 981 353 1791 
Q 353 2603 747 3093 
Q 1141 3584 1784 3584 
Q 2172 3584 2450 3431 
Q 2728 3278 2906 2969 
L 2906 3500 
L 3481 3500 
L 3481 434 
z
" transform="scale(0.015625)"/>
      <path id="DejaVuSans-54" d="M -19 4666 
L 3928 4666 
L 3928 4134 
L 2272 4134 
L 2272 0 
L 1638 0 
L 1638 4134 
L -19 4134 
L -19 4666 
z
" transform="scale(0.015625)"/>
     </defs>
     <use xlink:href="#DejaVuSans-47"/>
     <use xlink:href="#DejaVuSans-65" x="77.490234"/>
     <use xlink:href="#DejaVuSans-6e" x="139.013672"/>
     <use xlink:href="#DejaVuSans-65" x="202.392578"/>
     <use xlink:href="#DejaVuSans-72" x="263.916016"/>
     <use xlink:href="#DejaVuSans-61" x="305.029297"/>
     <use xlink:href="#DejaVuSans-74" x="366.308594"/>
     <use xlink:href="#DejaVuSans-6f" x="405.517578"/>
     <use xlink:href="#DejaVuSans-72" x="466.699219"/>
     <use xlink:href="#DejaVuSans-20" x="507.8125"/>
     <use xlink:href="#DejaVuSans-61" x="539.599609"/>
     <use xlink:href="#DejaVuSans-6e" x="600.878906"/>
     <use xlink:href="#DejaVuSans-64" x="664.257812"/>
     <use xlink:href="#DejaVuSans-20" x="727.734375"/>
     <use xlink:href="#DejaVuSans-44" x="759.521484"/>
     <use xlink:href="#DejaVuSans-69" x="836.523438"/>
     <use xlink:href="#DejaVuSans-73" x="864.306641"/>
     <use xlink:href="#DejaVuSans-63" x="916.40625"/>
     <use xlink:href="#DejaVuSans-72" x="971.386719"/>
     <use xlink:href="#DejaVuSans-69" x="1012.5"/>
     <use xlink:href="#DejaVuSans-6d" x="1040.283203"/>
     <use xlink:href="#DejaVuSans-69" x="1137.695312"/>
     <use xlink:href="#DejaVuSans-6e" x="1165.478516"/>
     <use xlink:href="#DejaVuSans-61" x="1228.857422"/>
     <use xlink:href="#DejaVuSans-74" x="1290.136719"/>
     <use xlink:href="#DejaVuSans-6f" x="1329.345703"/>
     <use xlink:href="#DejaVuSans-72" x="1390.527344"/>
     <use xlink:href="#DejaVuSans-20" x="1431.640625"/>
     <use xlink:href="#DejaVuSans-4c" x="1463.427734"/>
     <use xlink:href="#DejaVuSans-6f" x="1517.390625"/>
     <use xlink:href="#DejaVuSans-73" x="1578.572266"/>
     <use xlink:href="#DejaVuSans-73" x="1630.671875"/>
     <use xlink:href="#DejaVuSans-20" x="1682.771484"/>
     <use xlink:href="#DejaVuSans-44" x="1714.558594"/>
     <use xlink:href="#DejaVuSans-75" x="1791.560547"/>
     <use xlink:href="#DejaVuSans-72" x="1854.939453"/>
     <use xlink:href="#DejaVuSans-69" x="1896.052734"/>
     <use xlink:href="#DejaVuSans-6e" x="1923.835938"/>
     <use xlink:href="#DejaVuSans-67" x="1987.214844"/>
     <use xlink:href="#DejaVuSans-20" x="2050.691406"/>
     <use xlink:href="#DejaVuSans-54" x="2082.478516"/>
     <use xlink:href="#DejaVuSans-72" x="2128.8125"/>
     <use xlink:href="#DejaVuSans-61" x="2169.925781"/>
     <use xlink:href="#DejaVuSans-69" x="2231.205078"/>
     <use xlink:href="#DejaVuSans-6e" x="2258.988281"/>
     <use xlink:href="#DejaVuSans-69" x="2322.367188"/>
     <use xlink:href="#DejaVuSans-6e" x="2350.150391"/>
     <use xlink:href="#DejaVuSans-67" x="2413.529297"/>
    </g>
   </g>
   <g id="legend_1">
    <g id="patch_7">
     <path d="M 556.99375 106.14875 
L 636.490625 106.14875 
Q 640.490625 106.14875 640.490625 102.14875 
L 640.490625 45.43625 
Q 640.490625 41.43625 636.490625 41.43625 
L 556.99375 41.43625 
Q 552.99375 41.43625 552.99375 45.43625 
L 552.99375 102.14875 
Q 552.99375 106.14875 556.99375 106.14875 
z
" style="fill: #ffffff; opacity: 0.8; stroke: #cccccc; stroke-linejoin: miter"/>
    </g>
    <g id="line2d_16">
     <path d="M 560.99375 57.633125 
L 580.99375 57.633125 
L 600.99375 57.633125 
" style="fill: none; stroke: #1f77b4; stroke-width: 1.5; stroke-linecap: square"/>
    </g>
    <g id="text_17">
     <!-- G -->
     <g transform="translate(616.99375 64.633125) scale(0.2 -0.2)">
      <use xlink:href="#DejaVuSans-47"/>
     </g>
    </g>
    <g id="line2d_17">
     <path d="M 560.99375 86.989375 
L 580.99375 86.989375 
L 600.99375 86.989375 
" style="fill: none; stroke: #ff7f0e; stroke-width: 1.5; stroke-linecap: square"/>
    </g>
    <g id="text_18">
     <!-- D -->
     <g transform="translate(616.99375 93.989375) scale(0.2 -0.2)">
      <use xlink:href="#DejaVuSans-44"/>
     </g>
    </g>
   </g>
  </g>
 </g>
 <defs>
  <clipPath id="p2465eddf03">
   <rect x="92.490625" y="31.43625" width="558" height="277.2"/>
  </clipPath>
 </defs>
</svg>
