<?xml version="1.0" encoding="utf-8" standalone="no"?>
<!DOCTYPE svg PUBLIC "-//W3C//DTD SVG 1.1//EN"
  "http://www.w3.org/Graphics/SVG/1.1/DTD/svg11.dtd">
<svg xmlns:xlink="http://www.w3.org/1999/xlink" width="675.923125pt" height="365.54875pt" viewBox="0 0 675.923125 365.54875" xmlns="http://www.w3.org/2000/svg" version="1.1">
 <metadata>
  <rdf:RDF xmlns:dc="http://purl.org/dc/elements/1.1/" xmlns:cc="http://creativecommons.org/ns#" xmlns:rdf="http://www.w3.org/1999/02/22-rdf-syntax-ns#">
   <cc:Work>
    <dc:type rdf:resource="http://purl.org/dc/dcmitype/StillImage"/>
    <dc:date>2024-02-02T16:01:26.538979</dc:date>
    <dc:format>image/svg+xml</dc:format>
    <dc:creator>
     <cc:Agent>
      <dc:title>Matplotlib v3.7.2, https://matplotlib.org/</dc:title>
     </cc:Agent>
    </dc:creator>
   </cc:Work>
  </rdf:RDF>
 </metadata>
 <defs>
  <style type="text/css">*{stroke-linejoin: round; stroke-linecap: butt}</style>
 </defs>
 <g id="figure_1">
  <g id="patch_1">
   <path d="M 0 365.54875 
L 675.923125 365.54875 
L 675.923125 -0 
L 0 -0 
z
" style="fill: #ffffff"/>
  </g>
  <g id="axes_1">
   <g id="patch_2">
    <path d="M 92.490625 308.63625 
L 650.490625 308.63625 
L 650.490625 31.43625 
L 92.490625 31.43625 
z
" style="fill: #ffffff"/>
   </g>
   <g id="matplotlib.axis_1">
    <g id="xtick_1">
     <g id="line2d_1">
      <defs>
       <path id="m1382b6846d" d="M 0 0 
L 0 3.5 
" style="stroke: #000000; stroke-width: 0.8"/>
      </defs>
      <g>
       <use xlink:href="#m1382b6846d" x="117.854261" y="308.63625" style="stroke: #000000; stroke-width: 0.8"/>
      </g>
     </g>
     <g id="text_1">
      <!-- 0 -->
      <g transform="translate(111.491761 330.833125) scale(0.2 -0.2)">
       <defs>
        <path id="DejaVuSans-30" d="M 2034 4250 
Q 1547 4250 1301 3770 
Q 1056 3291 1056 2328 
Q 1056 1369 1301 889 
Q 1547 409 2034 409 
Q 2525 409 2770 889 
Q 3016 1369 3016 2328 
Q 3016 3291 2770 3770 
Q 2525 4250 2034 4250 
z
M 2034 4750 
Q 2819 4750 3233 4129 
Q 3647 3509 3647 2328 
Q 3647 1150 3233 529 
Q 2819 -91 2034 -91 
Q 1250 -91 836 529 
Q 422 1150 422 2328 
Q 422 3509 836 4129 
Q 1250 4750 2034 4750 
z
" transform="scale(0.015625)"/>
       </defs>
       <use xlink:href="#DejaVuSans-30"/>
      </g>
     </g>
    </g>
    <g id="xtick_2">
     <g id="line2d_2">
      <g>
       <use xlink:href="#m1382b6846d" x="188.308807" y="308.63625" style="stroke: #000000; stroke-width: 0.8"/>
      </g>
     </g>
     <g id="text_2">
      <!-- 250 -->
      <g transform="translate(169.221307 330.833125) scale(0.2 -0.2)">
       <defs>
        <path id="DejaVuSans-32" d="M 1228 531 
L 3431 531 
L 3431 0 
L 469 0 
L 469 531 
Q 828 903 1448 1529 
Q 2069 2156 2228 2338 
Q 2531 2678 2651 2914 
Q 2772 3150 2772 3378 
Q 2772 3750 2511 3984 
Q 2250 4219 1831 4219 
Q 1534 4219 1204 4116 
Q 875 4013 500 3803 
L 500 4441 
Q 881 4594 1212 4672 
Q 1544 4750 1819 4750 
Q 2544 4750 2975 4387 
Q 3406 4025 3406 3419 
Q 3406 3131 3298 2873 
Q 3191 2616 2906 2266 
Q 2828 2175 2409 1742 
Q 1991 1309 1228 531 
z
" transform="scale(0.015625)"/>
        <path id="DejaVuSans-35" d="M 691 4666 
L 3169 4666 
L 3169 4134 
L 1269 4134 
L 1269 2991 
Q 1406 3038 1543 3061 
Q 1681 3084 1819 3084 
Q 2600 3084 3056 2656 
Q 3513 2228 3513 1497 
Q 3513 744 3044 326 
Q 2575 -91 1722 -91 
Q 1428 -91 1123 -41 
Q 819 9 494 109 
L 494 744 
Q 775 591 1075 516 
Q 1375 441 1709 441 
Q 2250 441 2565 725 
Q 2881 1009 2881 1497 
Q 2881 1984 2565 2268 
Q 2250 2553 1709 2553 
Q 1456 2553 1204 2497 
Q 953 2441 691 2322 
L 691 4666 
z
" transform="scale(0.015625)"/>
       </defs>
       <use xlink:href="#DejaVuSans-32"/>
       <use xlink:href="#DejaVuSans-35" x="63.623047"/>
       <use xlink:href="#DejaVuSans-30" x="127.246094"/>
      </g>
     </g>
    </g>
    <g id="xtick_3">
     <g id="line2d_3">
      <g>
       <use xlink:href="#m1382b6846d" x="258.763352" y="308.63625" style="stroke: #000000; stroke-width: 0.8"/>
      </g>
     </g>
     <g id="text_3">
      <!-- 500 -->
      <g transform="translate(239.675852 330.833125) scale(0.2 -0.2)">
       <use xlink:href="#DejaVuSans-35"/>
       <use xlink:href="#DejaVuSans-30" x="63.623047"/>
       <use xlink:href="#DejaVuSans-30" x="127.246094"/>
      </g>
     </g>
    </g>
    <g id="xtick_4">
     <g id="line2d_4">
      <g>
       <use xlink:href="#m1382b6846d" x="329.217898" y="308.63625" style="stroke: #000000; stroke-width: 0.8"/>
      </g>
     </g>
     <g id="text_4">
      <!-- 750 -->
      <g transform="translate(310.130398 330.833125) scale(0.2 -0.2)">
       <defs>
        <path id="DejaVuSans-37" d="M 525 4666 
L 3525 4666 
L 3525 4397 
L 1831 0 
L 1172 0 
L 2766 4134 
L 525 4134 
L 525 4666 
z
" transform="scale(0.015625)"/>
       </defs>
       <use xlink:href="#DejaVuSans-37"/>
       <use xlink:href="#DejaVuSans-35" x="63.623047"/>
       <use xlink:href="#DejaVuSans-30" x="127.246094"/>
      </g>
     </g>
    </g>
    <g id="xtick_5">
     <g id="line2d_5">
      <g>
       <use xlink:href="#m1382b6846d" x="399.672443" y="308.63625" style="stroke: #000000; stroke-width: 0.8"/>
      </g>
     </g>
     <g id="text_5">
      <!-- 1000 -->
      <g transform="translate(374.222443 330.833125) scale(0.2 -0.2)">
       <defs>
        <path id="DejaVuSans-31" d="M 794 531 
L 1825 531 
L 1825 4091 
L 703 3866 
L 703 4441 
L 1819 4666 
L 2450 4666 
L 2450 531 
L 3481 531 
L 3481 0 
L 794 0 
L 794 531 
z
" transform="scale(0.015625)"/>
       </defs>
       <use xlink:href="#DejaVuSans-31"/>
       <use xlink:href="#DejaVuSans-30" x="63.623047"/>
       <use xlink:href="#DejaVuSans-30" x="127.246094"/>
       <use xlink:href="#DejaVuSans-30" x="190.869141"/>
      </g>
     </g>
    </g>
    <g id="xtick_6">
     <g id="line2d_6">
      <g>
       <use xlink:href="#m1382b6846d" x="470.126989" y="308.63625" style="stroke: #000000; stroke-width: 0.8"/>
      </g>
     </g>
     <g id="text_6">
      <!-- 1250 -->
      <g transform="translate(444.676989 330.833125) scale(0.2 -0.2)">
       <use xlink:href="#DejaVuSans-31"/>
       <use xlink:href="#DejaVuSans-32" x="63.623047"/>
       <use xlink:href="#DejaVuSans-35" x="127.246094"/>
       <use xlink:href="#DejaVuSans-30" x="190.869141"/>
      </g>
     </g>
    </g>
    <g id="xtick_7">
     <g id="line2d_7">
      <g>
       <use xlink:href="#m1382b6846d" x="540.581534" y="308.63625" style="stroke: #000000; stroke-width: 0.8"/>
      </g>
     </g>
     <g id="text_7">
      <!-- 1500 -->
      <g transform="translate(515.131534 330.833125) scale(0.2 -0.2)">
       <use xlink:href="#DejaVuSans-31"/>
       <use xlink:href="#DejaVuSans-35" x="63.623047"/>
       <use xlink:href="#DejaVuSans-30" x="127.246094"/>
       <use xlink:href="#DejaVuSans-30" x="190.869141"/>
      </g>
     </g>
    </g>
    <g id="xtick_8">
     <g id="line2d_8">
      <g>
       <use xlink:href="#m1382b6846d" x="611.03608" y="308.63625" style="stroke: #000000; stroke-width: 0.8"/>
      </g>
     </g>
     <g id="text_8">
      <!-- 1750 -->
      <g transform="translate(585.58608 330.833125) scale(0.2 -0.2)">
       <use xlink:href="#DejaVuSans-31"/>
       <use xlink:href="#DejaVuSans-37" x="63.623047"/>
       <use xlink:href="#DejaVuSans-35" x="127.246094"/>
       <use xlink:href="#DejaVuSans-30" x="190.869141"/>
      </g>
     </g>
    </g>
    <g id="text_9">
     <!-- iterations -->
     <g transform="translate(324.035938 354.189375) scale(0.2 -0.2)">
      <defs>
       <path id="DejaVuSans-69" d="M 603 3500 
L 1178 3500 
L 1178 0 
L 603 0 
L 603 3500 
z
M 603 4863 
L 1178 4863 
L 1178 4134 
L 603 4134 
L 603 4863 
z
" transform="scale(0.015625)"/>
       <path id="DejaVuSans-74" d="M 1172 4494 
L 1172 3500 
L 2356 3500 
L 2356 3053 
L 1172 3053 
L 1172 1153 
Q 1172 725 1289 603 
Q 1406 481 1766 481 
L 2356 481 
L 2356 0 
L 1766 0 
Q 1100 0 847 248 
Q 594 497 594 1153 
L 594 3053 
L 172 3053 
L 172 3500 
L 594 3500 
L 594 4494 
L 1172 4494 
z
" transform="scale(0.015625)"/>
       <path id="DejaVuSans-65" d="M 3597 1894 
L 3597 1613 
L 953 1613 
Q 991 1019 1311 708 
Q 1631 397 2203 397 
Q 2534 397 2845 478 
Q 3156 559 3463 722 
L 3463 178 
Q 3153 47 2828 -22 
Q 2503 -91 2169 -91 
Q 1331 -91 842 396 
Q 353 884 353 1716 
Q 353 2575 817 3079 
Q 1281 3584 2069 3584 
Q 2775 3584 3186 3129 
Q 3597 2675 3597 1894 
z
M 3022 2063 
Q 3016 2534 2758 2815 
Q 2500 3097 2075 3097 
Q 1594 3097 1305 2825 
Q 1016 2553 972 2059 
L 3022 2063 
z
" transform="scale(0.015625)"/>
       <path id="DejaVuSans-72" d="M 2631 2963 
Q 2534 3019 2420 3045 
Q 2306 3072 2169 3072 
Q 1681 3072 1420 2755 
Q 1159 2438 1159 1844 
L 1159 0 
L 581 0 
L 581 3500 
L 1159 3500 
L 1159 2956 
Q 1341 3275 1631 3429 
Q 1922 3584 2338 3584 
Q 2397 3584 2469 3576 
Q 2541 3569 2628 3553 
L 2631 2963 
z
" transform="scale(0.015625)"/>
       <path id="DejaVuSans-61" d="M 2194 1759 
Q 1497 1759 1228 1600 
Q 959 1441 959 1056 
Q 959 750 1161 570 
Q 1363 391 1709 391 
Q 2188 391 2477 730 
Q 2766 1069 2766 1631 
L 2766 1759 
L 2194 1759 
z
M 3341 1997 
L 3341 0 
L 2766 0 
L 2766 531 
Q 2569 213 2275 61 
Q 1981 -91 1556 -91 
Q 1019 -91 701 211 
Q 384 513 384 1019 
Q 384 1609 779 1909 
Q 1175 2209 1959 2209 
L 2766 2209 
L 2766 2266 
Q 2766 2663 2505 2880 
Q 2244 3097 1772 3097 
Q 1472 3097 1187 3025 
Q 903 2953 641 2809 
L 641 3341 
Q 956 3463 1253 3523 
Q 1550 3584 1831 3584 
Q 2591 3584 2966 3190 
Q 3341 2797 3341 1997 
z
" transform="scale(0.015625)"/>
       <path id="DejaVuSans-6f" d="M 1959 3097 
Q 1497 3097 1228 2736 
Q 959 2375 959 1747 
Q 959 1119 1226 758 
Q 1494 397 1959 397 
Q 2419 397 2687 759 
Q 2956 1122 2956 1747 
Q 2956 2369 2687 2733 
Q 2419 3097 1959 3097 
z
M 1959 3584 
Q 2709 3584 3137 3096 
Q 3566 2609 3566 1747 
Q 3566 888 3137 398 
Q 2709 -91 1959 -91 
Q 1206 -91 779 398 
Q 353 888 353 1747 
Q 353 2609 779 3096 
Q 1206 3584 1959 3584 
z
" transform="scale(0.015625)"/>
       <path id="DejaVuSans-6e" d="M 3513 2113 
L 3513 0 
L 2938 0 
L 2938 2094 
Q 2938 2591 2744 2837 
Q 2550 3084 2163 3084 
Q 1697 3084 1428 2787 
Q 1159 2491 1159 1978 
L 1159 0 
L 581 0 
L 581 3500 
L 1159 3500 
L 1159 2956 
Q 1366 3272 1645 3428 
Q 1925 3584 2291 3584 
Q 2894 3584 3203 3211 
Q 3513 2838 3513 2113 
z
" transform="scale(0.015625)"/>
       <path id="DejaVuSans-73" d="M 2834 3397 
L 2834 2853 
Q 2591 2978 2328 3040 
Q 2066 3103 1784 3103 
Q 1356 3103 1142 2972 
Q 928 2841 928 2578 
Q 928 2378 1081 2264 
Q 1234 2150 1697 2047 
L 1894 2003 
Q 2506 1872 2764 1633 
Q 3022 1394 3022 966 
Q 3022 478 2636 193 
Q 2250 -91 1575 -91 
Q 1294 -91 989 -36 
Q 684 19 347 128 
L 347 722 
Q 666 556 975 473 
Q 1284 391 1588 391 
Q 1994 391 2212 530 
Q 2431 669 2431 922 
Q 2431 1156 2273 1281 
Q 2116 1406 1581 1522 
L 1381 1569 
Q 847 1681 609 1914 
Q 372 2147 372 2553 
Q 372 3047 722 3315 
Q 1072 3584 1716 3584 
Q 2034 3584 2315 3537 
Q 2597 3491 2834 3397 
z
" transform="scale(0.015625)"/>
      </defs>
      <use xlink:href="#DejaVuSans-69"/>
      <use xlink:href="#DejaVuSans-74" x="27.783203"/>
      <use xlink:href="#DejaVuSans-65" x="66.992188"/>
      <use xlink:href="#DejaVuSans-72" x="128.515625"/>
      <use xlink:href="#DejaVuSans-61" x="169.628906"/>
      <use xlink:href="#DejaVuSans-74" x="230.908203"/>
      <use xlink:href="#DejaVuSans-69" x="270.117188"/>
      <use xlink:href="#DejaVuSans-6f" x="297.900391"/>
      <use xlink:href="#DejaVuSans-6e" x="359.082031"/>
      <use xlink:href="#DejaVuSans-73" x="422.460938"/>
     </g>
    </g>
   </g>
   <g id="matplotlib.axis_2">
    <g id="ytick_1">
     <g id="line2d_9">
      <defs>
       <path id="m67f50342d7" d="M 0 0 
L -3.5 0 
" style="stroke: #000000; stroke-width: 0.8"/>
      </defs>
      <g>
       <use xlink:href="#m67f50342d7" x="92.490625" y="279.562782" style="stroke: #000000; stroke-width: 0.8"/>
      </g>
     </g>
     <g id="text_10">
      <!-- −200 -->
      <g transform="translate(30.55625 287.16122) scale(0.2 -0.2)">
       <defs>
        <path id="DejaVuSans-2212" d="M 678 2272 
L 4684 2272 
L 4684 1741 
L 678 1741 
L 678 2272 
z
" transform="scale(0.015625)"/>
       </defs>
       <use xlink:href="#DejaVuSans-2212"/>
       <use xlink:href="#DejaVuSans-32" x="83.789062"/>
       <use xlink:href="#DejaVuSans-30" x="147.412109"/>
       <use xlink:href="#DejaVuSans-30" x="211.035156"/>
      </g>
     </g>
    </g>
    <g id="ytick_2">
     <g id="line2d_10">
      <g>
       <use xlink:href="#m67f50342d7" x="92.490625" y="229.718252" style="stroke: #000000; stroke-width: 0.8"/>
      </g>
     </g>
     <g id="text_11">
      <!-- −100 -->
      <g transform="translate(30.55625 237.316689) scale(0.2 -0.2)">
       <use xlink:href="#DejaVuSans-2212"/>
       <use xlink:href="#DejaVuSans-31" x="83.789062"/>
       <use xlink:href="#DejaVuSans-30" x="147.412109"/>
       <use xlink:href="#DejaVuSans-30" x="211.035156"/>
      </g>
     </g>
    </g>
    <g id="ytick_3">
     <g id="line2d_11">
      <g>
       <use xlink:href="#m67f50342d7" x="92.490625" y="179.873722" style="stroke: #000000; stroke-width: 0.8"/>
      </g>
     </g>
     <g id="text_12">
      <!-- 0 -->
      <g transform="translate(72.765625 187.472159) scale(0.2 -0.2)">
       <use xlink:href="#DejaVuSans-30"/>
      </g>
     </g>
    </g>
    <g id="ytick_4">
     <g id="line2d_12">
      <g>
       <use xlink:href="#m67f50342d7" x="92.490625" y="130.029191" style="stroke: #000000; stroke-width: 0.8"/>
      </g>
     </g>
     <g id="text_13">
      <!-- 100 -->
      <g transform="translate(47.315625 137.627629) scale(0.2 -0.2)">
       <use xlink:href="#DejaVuSans-31"/>
       <use xlink:href="#DejaVuSans-30" x="63.623047"/>
       <use xlink:href="#DejaVuSans-30" x="127.246094"/>
      </g>
     </g>
    </g>
    <g id="ytick_5">
     <g id="line2d_13">
      <g>
       <use xlink:href="#m67f50342d7" x="92.490625" y="80.184661" style="stroke: #000000; stroke-width: 0.8"/>
      </g>
     </g>
     <g id="text_14">
      <!-- 200 -->
      <g transform="translate(47.315625 87.783098) scale(0.2 -0.2)">
       <use xlink:href="#DejaVuSans-32"/>
       <use xlink:href="#DejaVuSans-30" x="63.623047"/>
       <use xlink:href="#DejaVuSans-30" x="127.246094"/>
      </g>
     </g>
    </g>
    <g id="text_15">
     <!-- Loss -->
     <g transform="translate(22.396875 191.970625) rotate(-90) scale(0.2 -0.2)">
      <defs>
       <path id="DejaVuSans-4c" d="M 628 4666 
L 1259 4666 
L 1259 531 
L 3531 531 
L 3531 0 
L 628 0 
L 628 4666 
z
" transform="scale(0.015625)"/>
      </defs>
      <use xlink:href="#DejaVuSans-4c"/>
      <use xlink:href="#DejaVuSans-6f" x="53.962891"/>
      <use xlink:href="#DejaVuSans-73" x="115.144531"/>
      <use xlink:href="#DejaVuSans-73" x="167.244141"/>
     </g>
    </g>
   </g>
   <g id="line2d_14">
    <path d="M 117.854261 124.531878 
L 118.13608 113.612244 
L 118.417898 120.519891 
L 118.981534 82.758685 
L 119.263352 52.516894 
L 119.54517 44.03625 
L 119.826989 61.970005 
L 120.108807 47.184644 
L 120.672443 80.314335 
L 120.954261 92.451127 
L 121.23608 90.170035 
L 121.799716 102.578324 
L 122.081534 95.671232 
L 122.363352 100.331578 
L 122.64517 100.663401 
L 122.926989 98.525286 
L 123.208807 104.282319 
L 123.490625 116.142604 
L 123.772443 120.516331 
L 124.054261 130.835256 
L 124.617898 127.698731 
L 124.899716 125.168182 
L 125.181534 126.943921 
L 125.463352 124.005949 
L 126.026989 122.923807 
L 126.308807 123.257928 
L 126.590625 118.898656 
L 126.872443 119.56434 
L 127.154261 115.700499 
L 127.43608 117.745463 
L 127.717898 123.442567 
L 127.999716 123.774871 
L 128.84517 120.942223 
L 129.126989 119.124284 
L 129.690625 133.214281 
L 130.53608 122.23231 
L 130.817898 123.023945 
L 131.099716 127.784878 
L 131.381534 121.940687 
L 131.663352 123.981988 
L 132.226989 131.485114 
L 132.508807 128.917539 
L 132.790625 136.589669 
L 133.072443 136.567041 
L 133.354261 125.362361 
L 133.63608 126.824283 
L 133.917898 135.707324 
L 134.199716 137.326724 
L 134.481534 136.946144 
L 135.04517 141.297559 
L 135.326989 145.047706 
L 135.608807 145.805225 
L 135.890625 141.997796 
L 136.454261 139.025662 
L 136.73608 137.019952 
L 137.017898 138.139239 
L 137.299716 136.827967 
L 137.581534 138.508057 
L 137.863352 138.220575 
L 138.14517 138.101893 
L 138.426989 135.608969 
L 138.708807 141.338619 
L 139.272443 134.107495 
L 139.554261 138.24287 
L 139.83608 138.539082 
L 140.117898 134.882217 
L 140.399716 125.534589 
L 140.681534 130.92867 
L 140.963352 130.995844 
L 141.24517 129.896139 
L 141.526989 130.701701 
L 141.808807 134.78225 
L 142.372443 139.833902 
L 142.654261 134.538663 
L 142.93608 132.112555 
L 143.217898 132.679362 
L 143.499716 137.227089 
L 143.781534 136.509092 
L 144.063352 134.164532 
L 144.34517 138.634416 
L 144.626989 137.086605 
L 144.908807 139.48127 
L 145.190625 140.847521 
L 145.472443 136.401101 
L 145.754261 136.610398 
L 146.03608 141.120117 
L 146.317898 141.657382 
L 146.599716 141.745369 
L 147.163352 145.930699 
L 147.44517 144.353858 
L 147.726989 147.068299 
L 148.290625 143.872919 
L 148.572443 144.823045 
L 148.854261 145.322043 
L 149.417898 151.758086 
L 149.699716 147.409346 
L 149.981534 147.688363 
L 150.54517 143.905424 
L 150.826989 146.884967 
L 151.390625 147.688029 
L 151.954261 140.161348 
L 152.23608 143.441326 
L 152.517898 141.701099 
L 152.799716 143.244373 
L 153.081534 141.485977 
L 153.363352 143.743617 
L 153.64517 141.752809 
L 153.926989 144.378451 
L 154.208807 145.924998 
L 154.772443 145.710239 
L 155.054261 146.822277 
L 155.617898 142.812817 
L 155.899716 146.722669 
L 156.181534 142.762511 
L 156.463352 145.958757 
L 156.74517 145.805341 
L 157.026989 143.312113 
L 157.308807 144.758427 
L 157.590625 147.303361 
L 157.872443 146.89064 
L 158.154261 147.574506 
L 158.43608 148.59455 
L 158.999716 152.506974 
L 159.281534 150.388494 
L 159.563352 151.806019 
L 159.84517 150.902817 
L 160.126989 151.840849 
L 160.408807 149.806097 
L 160.690625 146.162209 
L 160.972443 148.368318 
L 161.254261 152.27345 
L 161.53608 151.466282 
L 161.817898 152.492185 
L 162.099716 150.095374 
L 162.663352 152.38361 
L 162.94517 151.164398 
L 163.226989 152.661597 
L 163.508807 153.504509 
L 163.790625 153.070374 
L 164.072443 153.701229 
L 164.63608 155.925178 
L 165.199716 153.860758 
L 165.481534 153.674296 
L 165.763352 153.035097 
L 166.04517 154.346622 
L 166.608807 153.137666 
L 166.890625 153.719381 
L 167.172443 151.537183 
L 167.454261 152.382328 
L 167.73608 153.754748 
L 168.017898 152.730595 
L 168.299716 153.912518 
L 168.581534 155.763226 
L 168.863352 154.635505 
L 169.14517 156.375225 
L 169.426989 154.862806 
L 169.990625 158.475495 
L 170.272443 159.246486 
L 170.554261 160.579032 
L 170.83608 160.177923 
L 171.117898 158.198611 
L 171.399716 157.632745 
L 171.681534 158.695304 
L 171.963352 158.058747 
L 172.808807 161.274453 
L 173.090625 161.049882 
L 173.654261 162.780169 
L 173.93608 162.93181 
L 174.217898 162.909826 
L 174.499716 163.16357 
L 174.781534 163.590409 
L 175.34517 163.028633 
L 175.626989 164.160838 
L 175.908807 163.43676 
L 176.190625 163.598174 
L 176.472443 163.302926 
L 176.754261 163.467349 
L 177.03608 163.018195 
L 177.317898 164.735424 
L 177.599716 163.474858 
L 177.881534 161.245375 
L 178.163352 162.806307 
L 179.008807 163.922568 
L 179.290625 162.747043 
L 179.572443 162.225773 
L 179.854261 162.846469 
L 180.13608 165.236295 
L 180.417898 163.231114 
L 180.699716 163.010536 
L 180.981534 163.003862 
L 181.263352 164.481228 
L 181.54517 164.159237 
L 181.826989 165.05063 
L 182.108807 167.617109 
L 182.390625 166.927606 
L 182.672443 166.829197 
L 182.954261 167.045429 
L 183.23608 167.040901 
L 183.517898 168.045201 
L 184.081534 166.198974 
L 184.363352 166.800597 
L 184.64517 168.759688 
L 184.926989 168.974249 
L 185.208807 166.434748 
L 185.490625 165.174013 
L 185.772443 167.03687 
L 186.33608 167.675998 
L 186.617898 167.355134 
L 186.899716 166.638156 
L 187.181534 167.116547 
L 187.463352 167.266925 
L 187.74517 168.14975 
L 188.026989 167.908898 
L 188.308807 168.146553 
L 188.590625 168.238457 
L 189.154261 167.240999 
L 189.43608 168.253029 
L 189.717898 166.399731 
L 189.999716 167.169623 
L 190.281534 166.210275 
L 190.563352 167.497068 
L 190.84517 165.698517 
L 191.408807 166.698603 
L 191.690625 166.841433 
L 191.972443 166.310281 
L 192.254261 165.479998 
L 192.53608 165.215218 
L 192.817898 165.668773 
L 193.099716 167.322442 
L 193.381534 165.913513 
L 193.663352 165.804076 
L 193.94517 165.367667 
L 194.226989 166.220259 
L 194.508807 166.206106 
L 194.790625 165.972338 
L 195.072443 166.913536 
L 195.354261 166.170453 
L 195.63608 165.912273 
L 195.917898 166.548458 
L 196.199716 165.862925 
L 196.763352 167.181714 
L 197.04517 166.678216 
L 197.326989 166.675568 
L 197.608807 167.875845 
L 197.890625 168.366442 
L 198.172443 168.449603 
L 198.73608 169.32032 
L 199.017898 167.9225 
L 199.581534 168.843936 
L 199.863352 168.960531 
L 200.14517 168.782386 
L 200.426989 168.317253 
L 200.708807 169.688678 
L 200.990625 169.233972 
L 201.272443 169.06092 
L 201.83608 170.546879 
L 202.117898 170.171745 
L 202.399716 171.878035 
L 202.963352 171.137158 
L 203.24517 169.278403 
L 203.526989 169.725672 
L 203.808807 170.615596 
L 204.090625 169.496235 
L 204.372443 169.782768 
L 204.654261 169.890141 
L 204.93608 171.456883 
L 205.499716 170.001103 
L 205.781534 169.926751 
L 206.34517 171.37963 
L 206.626989 171.029107 
L 206.908807 171.124863 
L 207.190625 170.681482 
L 207.472443 170.87703 
L 207.754261 170.384301 
L 208.03608 170.986704 
L 208.317898 170.791971 
L 208.599716 169.625101 
L 208.881534 171.288955 
L 209.163352 170.927486 
L 209.44517 170.864856 
L 209.726989 171.211611 
L 210.008807 172.079021 
L 210.290625 171.845111 
L 210.572443 170.97074 
L 210.854261 171.625128 
L 211.13608 170.983582 
L 211.699716 171.02878 
L 212.263352 172.322231 
L 212.54517 171.627739 
L 212.826989 171.467542 
L 213.108807 172.467587 
L 213.390625 171.02565 
L 213.672443 171.947077 
L 213.954261 171.483687 
L 214.23608 172.050066 
L 215.081534 169.947551 
L 215.363352 170.733685 
L 215.64517 170.584067 
L 215.926989 171.103421 
L 216.208807 171.348453 
L 216.490625 171.120201 
L 217.054261 170.210684 
L 217.33608 170.789454 
L 217.617898 170.980313 
L 217.899716 172.211916 
L 218.181534 171.753866 
L 218.463352 172.058202 
L 218.74517 170.710387 
L 219.026989 171.610416 
L 219.590625 170.275572 
L 219.872443 170.921107 
L 220.154261 170.142906 
L 220.43608 171.335557 
L 220.717898 170.05853 
L 220.999716 170.093304 
L 221.281534 170.469731 
L 221.563352 171.273628 
L 221.84517 171.728208 
L 222.126989 171.723017 
L 222.408807 170.898618 
L 222.972443 171.377761 
L 223.254261 171.45996 
L 223.53608 170.901117 
L 223.817898 169.754796 
L 224.663352 171.283549 
L 224.94517 170.797232 
L 225.226989 171.524636 
L 225.508807 171.480676 
L 225.790625 171.125477 
L 226.63608 171.450506 
L 226.917898 170.746657 
L 227.199716 171.893811 
L 227.763352 169.705521 
L 228.04517 169.357828 
L 228.326989 169.628308 
L 228.608807 170.894575 
L 228.890625 171.221226 
L 229.172443 171.32752 
L 229.454261 171.762098 
L 229.73608 171.419549 
L 230.017898 171.510481 
L 230.299716 170.604535 
L 230.581534 172.064219 
L 230.863352 172.504472 
L 231.14517 171.730852 
L 231.426989 171.717936 
L 231.708807 171.126913 
L 231.990625 171.028055 
L 232.272443 171.81357 
L 232.554261 171.842793 
L 232.83608 171.260918 
L 233.117898 171.661503 
L 233.399716 171.18838 
L 234.24517 171.680532 
L 234.526989 172.343042 
L 234.808807 170.773445 
L 235.090625 171.850861 
L 235.372443 171.335879 
L 235.654261 171.470768 
L 235.93608 171.404438 
L 236.217898 170.42896 
L 236.499716 170.751651 
L 236.781534 170.623119 
L 237.063352 171.204737 
L 237.34517 169.869313 
L 237.626989 169.636724 
L 238.190625 170.828434 
L 238.472443 170.552112 
L 238.754261 170.519111 
L 239.03608 170.941655 
L 239.317898 169.718798 
L 239.599716 169.862972 
L 239.881534 170.788851 
L 240.44517 168.405074 
L 240.726989 169.592541 
L 241.290625 168.929275 
L 241.572443 168.277422 
L 241.854261 168.303997 
L 242.417898 169.461484 
L 242.981534 168.954341 
L 243.263352 167.445263 
L 243.54517 168.252356 
L 244.390625 169.043828 
L 244.672443 170.208008 
L 244.954261 169.180695 
L 245.23608 168.673338 
L 245.517898 168.707785 
L 245.799716 169.243154 
L 246.081534 169.377209 
L 246.363352 168.851158 
L 246.64517 166.81334 
L 246.926989 168.761281 
L 247.208807 168.000392 
L 247.490625 167.564612 
L 248.054261 168.156309 
L 248.33608 168.13164 
L 248.617898 168.675291 
L 248.899716 168.119421 
L 249.181534 168.305333 
L 249.463352 167.535693 
L 249.74517 169.078896 
L 250.026989 168.406488 
L 250.308807 169.281049 
L 250.590625 168.148249 
L 250.872443 168.593674 
L 251.154261 168.732842 
L 251.43608 168.470857 
L 251.717898 169.372396 
L 251.999716 169.29299 
L 252.563352 167.88763 
L 252.84517 167.936869 
L 253.126989 168.913264 
L 253.408807 167.685689 
L 253.972443 168.452807 
L 254.254261 168.225701 
L 254.53608 170.2633 
L 254.817898 169.857828 
L 255.099716 168.55073 
L 255.381534 168.94689 
L 255.94517 167.836903 
L 256.226989 168.529338 
L 256.508807 168.526433 
L 256.790625 168.242491 
L 257.072443 168.845629 
L 257.354261 168.793187 
L 257.63608 169.295145 
L 257.917898 168.568328 
L 258.199716 169.156795 
L 258.481534 168.842294 
L 258.763352 169.404308 
L 259.04517 168.600934 
L 259.326989 169.158425 
L 259.608807 169.261816 
L 259.890625 169.167373 
L 260.172443 168.318719 
L 260.454261 168.55359 
L 261.017898 169.344485 
L 261.299716 168.986347 
L 261.581534 169.062865 
L 261.863352 167.845035 
L 262.14517 168.951697 
L 262.708807 166.987109 
L 263.272443 168.536455 
L 263.554261 167.813438 
L 264.399716 168.653876 
L 264.681534 169.890846 
L 264.963352 168.602198 
L 265.24517 168.122958 
L 265.526989 166.912785 
L 265.808807 168.156099 
L 266.090625 167.661884 
L 266.372443 169.488083 
L 266.654261 169.485607 
L 267.499716 168.073372 
L 267.781534 169.155096 
L 268.063352 167.873866 
L 268.34517 168.345896 
L 268.626989 168.076867 
L 268.908807 169.271937 
L 269.754261 165.679123 
L 270.599716 168.312368 
L 270.881534 167.853324 
L 271.163352 168.205852 
L 271.44517 167.419576 
L 271.726989 167.036538 
L 272.008807 168.70488 
L 272.854261 166.654306 
L 273.13608 167.786472 
L 273.417898 167.416425 
L 273.699716 168.569706 
L 273.981534 168.490675 
L 274.263352 169.154549 
L 274.54517 167.278725 
L 274.826989 168.560299 
L 275.108807 168.787789 
L 275.390625 167.280913 
L 275.672443 167.403509 
L 275.954261 166.122042 
L 276.23608 167.890703 
L 276.517898 166.99708 
L 276.799716 168.252917 
L 277.081534 166.923159 
L 277.363352 167.016084 
L 277.64517 167.241264 
L 278.208807 167.045006 
L 278.490625 166.305466 
L 278.772443 165.975857 
L 279.054261 167.000925 
L 279.33608 166.83386 
L 279.617898 167.60513 
L 279.899716 167.629385 
L 280.463352 167.104138 
L 280.74517 166.397981 
L 281.026989 167.148153 
L 281.308807 166.744054 
L 281.590625 165.842051 
L 281.872443 165.51877 
L 282.154261 166.309628 
L 282.43608 165.740703 
L 282.717898 166.816051 
L 283.281534 165.723097 
L 283.563352 166.108493 
L 284.126989 165.4902 
L 284.690625 166.795149 
L 284.972443 166.654096 
L 285.53608 167.621033 
L 285.817898 166.864147 
L 286.099716 167.267206 
L 286.381534 168.778092 
L 286.663352 169.05499 
L 286.94517 168.761897 
L 287.226989 168.71093 
L 287.508807 167.742667 
L 288.072443 169.264613 
L 288.354261 167.432988 
L 288.63608 168.344806 
L 288.917898 168.502555 
L 289.199716 169.430815 
L 289.481534 169.685325 
L 289.763352 168.870997 
L 290.04517 169.484155 
L 290.608807 169.27929 
L 290.890625 168.891965 
L 291.73608 170.281456 
L 292.017898 169.650673 
L 292.299716 169.556229 
L 292.581534 169.332334 
L 292.863352 169.753204 
L 293.14517 169.245746 
L 293.426989 169.301257 
L 293.708807 168.308343 
L 293.990625 168.719347 
L 294.272443 169.428888 
L 294.554261 170.479059 
L 294.83608 169.745954 
L 295.117898 170.42337 
L 295.681534 170.868408 
L 295.963352 170.270927 
L 296.24517 169.303986 
L 296.526989 170.119499 
L 296.808807 169.767772 
L 297.090625 169.857879 
L 297.372443 169.586723 
L 297.654261 169.716683 
L 297.93608 171.181534 
L 298.217898 170.772517 
L 298.499716 171.187108 
L 298.781534 170.514292 
L 299.063352 170.129486 
L 299.34517 170.984094 
L 299.626989 171.01828 
L 299.908807 171.330471 
L 300.190625 170.098185 
L 300.472443 171.20177 
L 300.754261 170.094581 
L 301.317898 170.954885 
L 301.599716 170.937869 
L 301.881534 171.877335 
L 302.163352 171.940686 
L 302.44517 171.802314 
L 302.726989 170.553515 
L 303.008807 170.961193 
L 303.290625 170.871702 
L 303.572443 171.781641 
L 303.854261 171.652601 
L 304.417898 169.934908 
L 304.699716 169.855105 
L 304.981534 169.93931 
L 305.263352 170.289627 
L 305.54517 171.688032 
L 305.826989 171.08577 
L 306.108807 171.519824 
L 306.390625 171.452305 
L 306.672443 170.690751 
L 306.954261 170.4779 
L 307.23608 170.686815 
L 307.517898 171.598358 
L 307.799716 171.429171 
L 308.081534 170.468689 
L 308.363352 170.552143 
L 308.64517 171.170605 
L 308.926989 171.076991 
L 309.208807 170.857447 
L 309.490625 172.026858 
L 309.772443 171.897187 
L 310.054261 172.552691 
L 310.33608 172.187376 
L 310.617898 172.119924 
L 310.899716 172.812751 
L 311.181534 172.431816 
L 311.463352 171.504635 
L 311.74517 171.078927 
L 312.026989 172.052269 
L 312.308807 172.01934 
L 312.590625 171.139247 
L 312.872443 171.456836 
L 313.154261 172.361364 
L 313.43608 171.736331 
L 313.717898 172.752857 
L 313.999716 172.572182 
L 314.281534 171.777554 
L 314.563352 171.812087 
L 314.84517 172.632344 
L 315.126989 173.098525 
L 315.408807 172.871148 
L 315.690625 171.911924 
L 316.53608 172.795828 
L 316.817898 172.498574 
L 317.099716 172.657809 
L 317.381534 172.305638 
L 317.663352 173.087526 
L 317.94517 172.752212 
L 318.226989 171.853783 
L 318.508807 172.249377 
L 318.790625 173.237597 
L 319.072443 172.465509 
L 319.354261 172.943736 
L 319.917898 172.308294 
L 320.199716 172.475761 
L 320.481534 172.805779 
L 320.763352 173.509988 
L 321.04517 173.535105 
L 321.326989 172.965856 
L 321.608807 173.195651 
L 321.890625 173.028642 
L 322.172443 173.17028 
L 322.454261 173.69358 
L 322.73608 173.695534 
L 323.017898 173.025585 
L 323.299716 173.163722 
L 323.581534 172.773572 
L 323.863352 172.143886 
L 324.14517 172.728104 
L 324.708807 173.301175 
L 324.990625 173.212307 
L 325.272443 173.473794 
L 325.554261 173.354617 
L 325.83608 172.340577 
L 326.681534 173.545899 
L 326.963352 173.717131 
L 328.090625 172.846439 
L 328.372443 172.830841 
L 328.93608 173.914986 
L 329.217898 173.328633 
L 329.499716 173.220606 
L 329.781534 172.633549 
L 330.34517 172.524903 
L 330.626989 172.899515 
L 330.908807 172.995464 
L 331.190625 173.52655 
L 331.472443 172.911105 
L 332.03608 173.067123 
L 332.317898 172.580127 
L 332.599716 173.506689 
L 332.881534 173.224257 
L 333.44517 173.550066 
L 333.726989 173.870253 
L 334.008807 173.463889 
L 334.290625 173.309775 
L 334.572443 174.370365 
L 334.854261 174.641543 
L 335.13608 173.336782 
L 335.417898 174.511969 
L 335.699716 174.789815 
L 335.981534 174.779389 
L 336.263352 174.237352 
L 336.54517 174.548939 
L 336.826989 174.300293 
L 337.108807 174.250603 
L 337.390625 174.571552 
L 337.672443 174.630708 
L 337.954261 174.100518 
L 338.23608 174.358606 
L 338.517898 173.547171 
L 339.363352 174.726061 
L 339.64517 174.763368 
L 340.208807 173.868562 
L 340.490625 174.002336 
L 340.772443 174.499336 
L 341.054261 174.761793 
L 341.33608 174.237576 
L 341.617898 173.960542 
L 341.899716 174.456797 
L 342.181534 174.608312 
L 342.463352 173.651449 
L 342.74517 174.262652 
L 343.026989 173.571319 
L 343.308807 173.445559 
L 343.590625 174.284243 
L 343.872443 174.647367 
L 344.154261 174.143819 
L 344.43608 175.098752 
L 344.717898 174.592985 
L 344.999716 174.67441 
L 345.281534 173.986843 
L 345.563352 174.89315 
L 345.84517 175.040789 
L 346.126989 174.521271 
L 346.408807 174.31169 
L 346.690625 174.409975 
L 346.972443 174.844725 
L 347.254261 174.091942 
L 347.53608 174.054085 
L 347.817898 175.056739 
L 348.099716 175.179453 
L 348.381534 174.76291 
L 348.663352 175.188881 
L 348.94517 174.606071 
L 349.226989 174.643741 
L 349.508807 175.360247 
L 349.790625 174.345135 
L 350.072443 174.196209 
L 350.354261 174.545014 
L 350.63608 174.055634 
L 350.917898 174.603814 
L 351.199716 174.591183 
L 351.481534 174.85815 
L 351.763352 175.470077 
L 352.608807 174.592355 
L 352.890625 175.085638 
L 353.73608 175.479677 
L 354.299716 174.720709 
L 354.581534 175.256771 
L 354.863352 174.918766 
L 355.14517 175.417736 
L 355.426989 174.536108 
L 355.708807 174.684633 
L 355.990625 174.961427 
L 356.272443 174.675325 
L 356.554261 174.602429 
L 356.83608 174.976565 
L 357.117898 175.109405 
L 357.399716 175.082062 
L 357.681534 175.327841 
L 357.963352 175.332892 
L 358.24517 175.704394 
L 358.526989 175.749832 
L 358.808807 176.00514 
L 359.372443 175.331336 
L 359.654261 175.820725 
L 359.93608 175.670553 
L 360.217898 176.437552 
L 360.781534 175.79007 
L 361.063352 175.892828 
L 361.34517 176.684125 
L 361.626989 176.529924 
L 361.908807 176.862434 
L 362.190625 176.827581 
L 362.754261 176.121104 
L 363.03608 176.371403 
L 363.317898 176.282667 
L 363.599716 176.55121 
L 363.881534 175.998972 
L 364.163352 176.438404 
L 364.44517 176.232709 
L 365.854261 176.191065 
L 366.417898 176.740455 
L 366.699716 176.851348 
L 366.981534 176.071476 
L 367.263352 176.531128 
L 367.54517 176.313304 
L 367.826989 176.241809 
L 368.108807 176.342322 
L 368.390625 176.154964 
L 368.672443 176.730567 
L 369.23608 176.218591 
L 369.517898 175.822586 
L 369.799716 176.737825 
L 370.363352 176.679438 
L 370.64517 176.37128 
L 370.926989 176.406383 
L 371.208807 176.716217 
L 371.490625 176.815412 
L 371.772443 177.092024 
L 372.054261 177.029247 
L 372.33608 176.541315 
L 372.617898 176.447746 
L 372.899716 177.045527 
L 373.463352 176.949279 
L 373.74517 177.623724 
L 374.026989 177.333461 
L 374.308807 177.417731 
L 374.872443 177.852056 
L 375.154261 177.331983 
L 375.43608 177.404682 
L 375.717898 177.087448 
L 375.999716 177.158187 
L 376.281534 177.398378 
L 376.563352 177.790668 
L 376.84517 177.673758 
L 377.126989 177.360908 
L 377.408807 177.671818 
L 377.690625 177.4662 
L 377.972443 177.428796 
L 378.254261 177.569326 
L 378.53608 177.546279 
L 378.817898 177.915382 
L 379.099716 177.810681 
L 379.663352 178.110901 
L 379.94517 178.166555 
L 380.226989 178.094477 
L 380.508807 178.494665 
L 380.790625 178.181803 
L 381.072443 178.777438 
L 381.354261 178.034988 
L 381.917898 178.678885 
L 382.199716 178.273268 
L 382.481534 178.558078 
L 382.763352 178.645732 
L 383.04517 178.979903 
L 383.326989 178.604421 
L 383.608807 178.72779 
L 383.890625 179.086753 
L 384.172443 179.201082 
L 384.454261 179.159582 
L 384.73608 179.666424 
L 385.017898 178.766806 
L 385.863352 179.450476 
L 386.14517 178.899028 
L 386.426989 178.941914 
L 386.708807 178.499958 
L 386.990625 178.50986 
L 387.272443 178.949115 
L 388.117898 178.963947 
L 388.399716 179.468592 
L 388.681534 178.957596 
L 388.963352 179.146655 
L 389.24517 179.543453 
L 389.526989 179.427571 
L 389.808807 179.127683 
L 390.090625 179.518266 
L 390.372443 179.204089 
L 390.654261 179.222719 
L 390.93608 178.98623 
L 391.499716 179.874376 
L 391.781534 179.517771 
L 392.34517 179.686319 
L 392.626989 179.129207 
L 392.908807 179.487302 
L 393.190625 179.333922 
L 393.472443 179.358981 
L 393.754261 179.26307 
L 394.03608 179.425154 
L 394.317898 179.749735 
L 395.163352 179.776525 
L 395.726989 179.344682 
L 396.008807 179.001729 
L 396.290625 179.286516 
L 396.572443 179.275482 
L 396.854261 179.092813 
L 397.417898 179.884484 
L 397.699716 179.531372 
L 398.263352 179.715287 
L 398.54517 180.303038 
L 398.826989 179.626734 
L 399.108807 179.711593 
L 399.390625 180.147627 
L 399.672443 179.670431 
L 399.954261 179.744088 
L 400.23608 179.947498 
L 400.799716 179.938698 
L 401.081534 180.335198 
L 401.363352 179.565856 
L 401.64517 179.855395 
L 402.208807 179.746231 
L 402.490625 179.656306 
L 403.054261 179.931039 
L 403.33608 179.520946 
L 403.617898 180.09352 
L 403.899716 180.325481 
L 404.181534 180.140308 
L 404.463352 180.371481 
L 404.74517 179.869368 
L 405.026989 179.963973 
L 405.308807 179.778552 
L 405.590625 180.202878 
L 405.872443 179.514326 
L 406.154261 179.482513 
L 406.43608 180.026128 
L 406.717898 179.427368 
L 406.999716 180.162905 
L 407.281534 180.306756 
L 407.563352 180.214288 
L 407.84517 180.380419 
L 408.408807 180.086379 
L 408.690625 180.226138 
L 408.972443 180.13434 
L 409.254261 180.485126 
L 409.53608 179.700224 
L 409.817898 180.485923 
L 410.099716 180.18604 
L 410.381534 180.300664 
L 410.663352 179.763172 
L 410.94517 180.343231 
L 411.226989 180.165772 
L 411.508807 179.744616 
L 411.790625 179.91302 
L 412.072443 180.310773 
L 412.354261 180.22706 
L 412.63608 179.954252 
L 412.917898 180.26877 
L 413.763352 179.54126 
L 414.04517 180.330199 
L 414.326989 179.814204 
L 414.608807 180.189141 
L 414.890625 179.754376 
L 415.172443 179.853491 
L 415.454261 179.818375 
L 415.73608 180.340954 
L 416.017898 179.605927 
L 416.299716 179.87026 
L 417.14517 180.07964 
L 417.990625 179.896924 
L 418.272443 180.110488 
L 419.117898 179.963066 
L 419.399716 179.986136 
L 419.681534 179.786335 
L 419.963352 180.758785 
L 420.24517 180.032607 
L 420.526989 179.725176 
L 420.808807 180.118395 
L 421.372443 180.137444 
L 421.654261 179.824126 
L 421.93608 180.373565 
L 422.217898 180.011501 
L 422.499716 180.842442 
L 423.063352 179.845933 
L 423.626989 180.704952 
L 423.908807 180.052903 
L 424.190625 180.440301 
L 424.472443 180.109915 
L 424.754261 180.557143 
L 425.03608 179.928409 
L 425.317898 180.445121 
L 425.599716 180.182771 
L 425.881534 180.431568 
L 426.163352 180.367132 
L 426.44517 179.936347 
L 426.726989 179.76118 
L 427.008807 180.23181 
L 427.290625 180.466946 
L 427.854261 180.41052 
L 428.13608 179.999994 
L 428.417898 180.530902 
L 428.699716 180.113117 
L 428.981534 179.963953 
L 429.826989 180.459806 
L 430.108807 180.126073 
L 430.390625 180.086951 
L 430.672443 180.429204 
L 430.954261 179.835401 
L 431.23608 179.932744 
L 431.517898 180.477864 
L 432.081534 180.413045 
L 432.363352 180.786465 
L 432.64517 180.680939 
L 432.926989 181.04021 
L 433.208807 180.618574 
L 433.772443 181.161888 
L 434.054261 181.009758 
L 434.33608 180.357643 
L 434.617898 181.03261 
L 435.181534 180.65069 
L 435.74517 180.962039 
L 436.026989 180.873817 
L 436.308807 181.058111 
L 436.590625 180.777752 
L 436.872443 180.886168 
L 437.154261 180.622959 
L 437.43608 180.617082 
L 437.717898 180.960957 
L 437.999716 180.67538 
L 438.281534 180.828634 
L 438.563352 180.788095 
L 438.84517 181.055961 
L 439.126989 180.313954 
L 439.408807 180.775309 
L 439.690625 180.938638 
L 439.972443 180.542884 
L 440.53608 181.168604 
L 440.817898 179.688472 
L 441.099716 180.392513 
L 441.381534 178.640427 
L 441.663352 180.57413 
L 441.94517 180.541096 
L 442.790625 179.634978 
L 443.354261 180.678679 
L 443.63608 181.001879 
L 443.917898 179.692597 
L 444.199716 179.872039 
L 444.481534 179.911641 
L 444.763352 179.702042 
L 445.04517 179.916145 
L 445.326989 180.866377 
L 445.608807 181.119183 
L 445.890625 180.870432 
L 446.454261 181.317297 
L 447.017898 181.259107 
L 447.299716 181.713421 
L 447.581534 181.801746 
L 447.863352 181.342694 
L 448.14517 181.740323 
L 448.426989 181.870945 
L 448.990625 181.379809 
L 449.272443 181.10921 
L 449.554261 181.578598 
L 449.83608 181.457262 
L 450.117898 181.756397 
L 450.399716 181.833844 
L 450.681534 181.452956 
L 450.963352 180.758443 
L 451.24517 181.092783 
L 451.526989 181.698405 
L 451.808807 181.772995 
L 452.090625 181.05467 
L 452.372443 181.089973 
L 452.654261 181.50234 
L 452.93608 181.66487 
L 453.217898 181.35546 
L 453.499716 181.225757 
L 453.781534 181.543379 
L 454.626989 181.080672 
L 455.190625 181.726543 
L 455.472443 181.237467 
L 455.754261 181.032272 
L 456.03608 181.377015 
L 456.317898 181.301601 
L 456.599716 181.535514 
L 456.881534 181.258281 
L 457.163352 181.493265 
L 457.726989 181.256666 
L 458.008807 181.513799 
L 458.290625 181.435503 
L 458.572443 181.514314 
L 459.417898 181.189708 
L 459.699716 181.198173 
L 459.981534 180.7601 
L 460.54517 181.34693 
L 460.826989 181.245781 
L 461.108807 181.498462 
L 461.390625 181.550906 
L 461.954261 180.992424 
L 462.23608 181.268454 
L 462.799716 181.035894 
L 463.081534 180.820112 
L 463.363352 181.13928 
L 463.64517 181.229345 
L 463.926989 181.017003 
L 464.208807 180.951223 
L 464.490625 180.76528 
L 464.772443 180.995814 
L 465.054261 180.902129 
L 465.617898 181.354898 
L 466.463352 181.077253 
L 466.74517 181.562308 
L 467.026989 181.129142 
L 468.154261 181.024166 
L 468.43608 180.608327 
L 468.717898 180.84078 
L 468.999716 180.342192 
L 469.563352 180.471055 
L 469.84517 180.088666 
L 470.126989 180.506601 
L 470.690625 180.773344 
L 470.972443 180.569682 
L 471.254261 180.692288 
L 471.817898 180.742516 
L 472.099716 180.806807 
L 472.381534 180.719669 
L 472.663352 180.47129 
L 473.226989 181.015355 
L 473.508807 180.70871 
L 474.072443 180.550199 
L 474.63608 180.648926 
L 474.917898 180.427252 
L 475.763352 180.915069 
L 476.326989 180.821858 
L 476.608807 180.62099 
L 476.890625 181.404136 
L 477.172443 180.454013 
L 477.454261 180.56572 
L 477.73608 180.270258 
L 478.299716 180.815892 
L 478.581534 180.959847 
L 478.863352 180.681966 
L 479.14517 180.77097 
L 479.426989 180.436864 
L 479.990625 181.367257 
L 480.272443 181.425191 
L 480.554261 180.975402 
L 480.83608 181.394564 
L 481.117898 181.243575 
L 481.963352 181.439895 
L 482.808807 181.038546 
L 483.090625 181.078359 
L 483.372443 180.805165 
L 483.654261 181.109987 
L 483.93608 180.894622 
L 484.217898 180.885497 
L 484.499716 181.030231 
L 485.063352 180.582459 
L 485.34517 180.5819 
L 485.626989 181.301521 
L 486.472443 180.850515 
L 486.754261 180.596543 
L 487.03608 181.03422 
L 487.317898 180.387739 
L 487.599716 180.595513 
L 487.881534 180.992694 
L 488.163352 180.906266 
L 488.726989 180.964894 
L 489.008807 180.463233 
L 489.290625 180.413894 
L 489.572443 180.688925 
L 489.854261 180.572082 
L 490.417898 180.593941 
L 490.699716 180.817773 
L 490.981534 180.273597 
L 491.54517 180.300158 
L 491.826989 180.730083 
L 492.390625 181.065862 
L 492.672443 181.07676 
L 492.954261 180.729234 
L 493.23608 181.182576 
L 493.517898 181.067842 
L 493.799716 181.205744 
L 494.64517 180.753324 
L 495.208807 181.150151 
L 495.490625 180.58805 
L 495.772443 181.350497 
L 496.054261 180.81243 
L 496.33608 180.63374 
L 496.899716 181.003007 
L 497.181534 181.941892 
L 497.74517 181.543051 
L 498.026989 181.754085 
L 498.308807 181.610898 
L 498.590625 180.954346 
L 498.872443 181.59882 
L 499.154261 181.325681 
L 499.43608 181.27557 
L 499.717898 181.004722 
L 499.999716 181.055718 
L 500.281534 180.747448 
L 500.563352 181.066094 
L 500.84517 181.051048 
L 501.126989 181.267209 
L 501.690625 180.62789 
L 501.972443 181.382941 
L 502.254261 180.932179 
L 502.53608 180.82115 
L 503.099716 180.968331 
L 503.381534 180.532245 
L 503.663352 180.797535 
L 503.94517 180.77279 
L 504.226989 180.5937 
L 504.508807 180.66505 
L 504.790625 181.171911 
L 505.354261 180.830612 
L 505.63608 181.058228 
L 505.917898 180.702383 
L 506.199716 181.53683 
L 506.481534 180.985928 
L 506.763352 180.681202 
L 507.326989 180.754547 
L 507.608807 180.449857 
L 507.890625 180.816854 
L 508.172443 180.729683 
L 508.454261 181.090441 
L 508.73608 180.750473 
L 509.299716 180.964601 
L 509.581534 180.968534 
L 509.863352 181.427189 
L 510.14517 181.365353 
L 510.426989 181.070849 
L 510.708807 181.437569 
L 511.272443 181.191414 
L 511.83608 181.239322 
L 512.117898 181.198415 
L 512.681534 181.561854 
L 513.24517 181.654299 
L 513.526989 181.167515 
L 513.808807 181.02352 
L 514.372443 180.99732 
L 514.654261 180.830116 
L 514.93608 181.266327 
L 515.217898 180.895491 
L 515.499716 181.437192 
L 516.063352 180.6598 
L 516.34517 180.863089 
L 516.626989 180.926796 
L 517.190625 181.30559 
L 517.472443 180.611412 
L 517.754261 181.089032 
L 518.03608 180.353987 
L 518.317898 180.85321 
L 518.599716 180.702608 
L 518.881534 181.158002 
L 519.163352 181.162582 
L 519.44517 181.017174 
L 519.726989 181.091327 
L 520.290625 180.642218 
L 520.854261 180.970936 
L 521.13608 180.304453 
L 521.417898 181.094927 
L 521.981534 180.995537 
L 522.263352 180.782287 
L 522.54517 180.924361 
L 522.826989 180.891018 
L 523.108807 180.308226 
L 523.390625 180.384108 
L 523.672443 180.216092 
L 523.954261 180.419858 
L 524.23608 180.373463 
L 524.517898 180.09461 
L 524.799716 180.283628 
L 525.081534 180.695648 
L 525.363352 180.275217 
L 525.64517 180.355095 
L 525.926989 180.752406 
L 526.490625 180.686666 
L 526.772443 180.545878 
L 527.054261 180.685748 
L 527.33608 180.592957 
L 527.899716 181.485827 
L 528.181534 181.055496 
L 528.463352 181.512296 
L 528.74517 181.050615 
L 529.026989 180.827786 
L 529.590625 180.884563 
L 529.872443 181.202102 
L 530.154261 180.650656 
L 530.43608 180.823764 
L 530.717898 180.727668 
L 531.281534 181.31409 
L 531.84517 180.373238 
L 532.126989 180.744619 
L 532.408807 180.05181 
L 532.690625 179.901931 
L 533.817898 180.837801 
L 534.663352 181.259173 
L 534.94517 180.644991 
L 535.226989 181.11426 
L 535.508807 181.159168 
L 535.790625 180.746381 
L 536.072443 180.698586 
L 536.63608 181.113565 
L 536.917898 180.972924 
L 537.199716 181.257505 
L 537.481534 180.695665 
L 538.04517 181.216332 
L 538.326989 180.964219 
L 538.608807 180.87865 
L 538.890625 181.119521 
L 539.172443 181.607793 
L 539.454261 181.122925 
L 539.73608 181.126172 
L 540.017898 181.370888 
L 540.299716 181.43704 
L 540.581534 181.093536 
L 540.863352 181.212693 
L 541.14517 181.019488 
L 541.426989 181.104517 
L 541.708807 181.313435 
L 541.990625 181.263302 
L 542.272443 181.060523 
L 542.554261 181.379133 
L 542.83608 181.056778 
L 543.399716 181.824746 
L 543.681534 181.161291 
L 543.963352 180.902771 
L 544.24517 180.852171 
L 544.526989 181.064476 
L 545.090625 181.065349 
L 545.372443 181.386164 
L 545.654261 180.846129 
L 545.93608 181.129251 
L 546.217898 180.717284 
L 547.626989 181.167349 
L 547.908807 180.999915 
L 548.190625 180.967955 
L 548.472443 181.051937 
L 548.754261 180.81279 
L 549.03608 181.059271 
L 549.317898 180.702309 
L 549.599716 180.588755 
L 549.881534 180.703216 
L 550.163352 181.00155 
L 550.44517 181.056528 
L 551.854261 180.596252 
L 552.13608 181.115839 
L 552.417898 180.5885 
L 552.699716 180.583452 
L 552.981534 181.075765 
L 553.263352 180.902829 
L 553.54517 181.082691 
L 554.108807 180.516812 
L 554.390625 180.882191 
L 554.672443 180.754055 
L 554.954261 180.228423 
L 555.23608 180.743409 
L 555.517898 180.613445 
L 556.081534 180.631908 
L 556.64517 180.376303 
L 556.926989 180.595608 
L 557.208807 180.033503 
L 557.490625 180.308104 
L 558.33608 179.882956 
L 558.617898 180.347983 
L 558.899716 180.459488 
L 559.181534 180.037707 
L 559.463352 180.493574 
L 559.74517 180.331093 
L 560.026989 180.34676 
L 560.308807 180.532316 
L 560.590625 180.117255 
L 560.872443 180.389801 
L 561.154261 179.972239 
L 561.43608 180.378161 
L 561.717898 179.639195 
L 561.999716 180.001312 
L 562.281534 180.150588 
L 562.563352 180.017005 
L 562.84517 180.29023 
L 563.126989 180.344243 
L 563.408807 179.773913 
L 563.690625 180.443003 
L 564.254261 180.046541 
L 564.53608 180.588751 
L 564.817898 180.630909 
L 565.099716 180.422205 
L 565.381534 179.979481 
L 565.663352 179.980021 
L 565.94517 180.267887 
L 566.508807 180.459654 
L 566.790625 180.355328 
L 567.072443 180.414516 
L 567.354261 180.679357 
L 567.63608 179.984639 
L 567.917898 180.452226 
L 568.199716 180.335344 
L 568.481534 180.36438 
L 568.763352 180.134694 
L 569.04517 180.174247 
L 569.326989 180.054276 
L 569.890625 180.915646 
L 570.454261 180.043054 
L 570.73608 180.680668 
L 571.017898 180.727511 
L 571.299716 180.458417 
L 572.426989 180.379402 
L 572.708807 180.514897 
L 572.990625 180.227952 
L 573.272443 180.124723 
L 573.554261 179.850348 
L 573.83608 180.090286 
L 574.117898 179.917352 
L 574.399716 180.512762 
L 574.963352 180.823261 
L 575.526989 179.958638 
L 575.808807 180.321717 
L 576.090625 180.328139 
L 576.654261 180.114062 
L 576.93608 180.687849 
L 577.217898 180.392449 
L 577.499716 180.269831 
L 577.781534 180.747104 
L 578.34517 180.036172 
L 578.626989 180.563158 
L 579.190625 180.062253 
L 579.754261 180.242465 
L 580.03608 180.186906 
L 580.317898 179.803245 
L 580.599716 180.048928 
L 580.881534 180.503668 
L 581.163352 180.519481 
L 581.44517 180.213884 
L 582.290625 180.57193 
L 582.572443 180.1393 
L 582.854261 179.994116 
L 583.13608 180.241309 
L 583.417898 180.693579 
L 583.699716 180.123898 
L 583.981534 180.546062 
L 584.263352 180.316657 
L 584.54517 180.855769 
L 584.826989 180.623698 
L 585.108807 180.673502 
L 585.390625 179.953548 
L 586.23608 180.670177 
L 586.517898 180.729558 
L 586.799716 180.371113 
L 587.363352 180.607704 
L 587.64517 180.520945 
L 587.926989 180.56989 
L 588.208807 180.185434 
L 588.490625 180.157958 
L 588.772443 180.363142 
L 589.054261 180.41126 
L 589.33608 180.241071 
L 589.617898 180.415905 
L 589.899716 180.021148 
L 590.463352 180.421487 
L 590.74517 180.285984 
L 591.590625 180.217228 
L 591.872443 179.837688 
L 592.154261 180.347061 
L 592.43608 180.003514 
L 592.717898 180.152873 
L 592.999716 180.697102 
L 593.281534 180.202317 
L 593.563352 180.720307 
L 593.84517 180.508126 
L 594.126989 180.719585 
L 594.408807 180.2235 
L 594.690625 180.435391 
L 594.972443 180.909896 
L 595.254261 180.790144 
L 595.53608 180.527332 
L 595.817898 180.110063 
L 596.099716 180.933318 
L 596.663352 180.226193 
L 596.94517 180.721908 
L 597.226989 180.470099 
L 597.508807 180.627478 
L 598.072443 180.250679 
L 598.354261 180.27313 
L 598.63608 180.149119 
L 599.199716 180.460859 
L 599.481534 180.188218 
L 599.763352 180.493573 
L 600.04517 180.219084 
L 600.326989 180.391988 
L 600.608807 180.328702 
L 600.890625 180.662315 
L 601.172443 180.446469 
L 601.454261 180.836737 
L 601.73608 180.278614 
L 602.017898 180.419412 
L 602.299716 180.860093 
L 602.863352 180.521863 
L 603.708807 180.701684 
L 603.990625 180.509794 
L 604.554261 180.797169 
L 604.83608 180.502845 
L 605.399716 180.549016 
L 605.681534 180.575103 
L 605.963352 180.938795 
L 606.24517 180.866178 
L 606.526989 180.640907 
L 606.808807 180.816311 
L 607.090625 180.611711 
L 607.372443 180.711766 
L 607.654261 181.27283 
L 608.217898 180.715314 
L 608.499716 181.054777 
L 608.781534 181.151669 
L 609.063352 180.78642 
L 609.34517 180.820464 
L 609.626989 181.143475 
L 609.908807 180.94288 
L 610.472443 181.179736 
L 610.754261 180.641793 
L 611.03608 180.643329 
L 611.317898 180.490232 
L 611.881534 181.145202 
L 612.163352 180.612057 
L 612.44517 180.912185 
L 612.726989 180.670918 
L 613.008807 180.640465 
L 613.290625 181.225938 
L 613.572443 180.538707 
L 613.854261 181.229867 
L 614.13608 180.916651 
L 614.417898 181.205705 
L 614.981534 180.708872 
L 615.54517 181.083043 
L 615.826989 180.526652 
L 616.108807 180.952256 
L 616.954261 181.025195 
L 617.517898 181.2689 
L 618.081534 181.175654 
L 618.363352 181.464753 
L 618.64517 181.382898 
L 618.926989 181.49231 
L 619.208807 181.35982 
L 619.490625 181.001593 
L 620.054261 181.421532 
L 620.33608 181.066199 
L 620.617898 181.098343 
L 620.899716 180.893422 
L 621.463352 181.097884 
L 622.026989 180.960945 
L 622.308807 180.742823 
L 622.872443 180.905863 
L 623.43608 180.568554 
L 623.717898 181.043934 
L 623.999716 180.809179 
L 624.281534 181.09004 
L 624.563352 180.954893 
L 624.84517 180.627446 
L 625.126989 180.57651 
L 625.126989 180.57651 
" clip-path="url(#p34f921b7d4)" style="fill: none; stroke: #1f77b4; stroke-width: 1.5; stroke-linecap: square"/>
   </g>
   <g id="line2d_15">
    <path d="M 117.854261 296.03625 
L 118.13608 293.670519 
L 118.417898 246.011862 
L 118.699716 269.986081 
L 118.981534 278.80496 
L 119.54517 230.620247 
L 119.826989 249.231156 
L 120.108807 223.688053 
L 120.390625 220.004876 
L 120.672443 208.447941 
L 120.954261 211.42837 
L 121.23608 210.881812 
L 121.517898 207.172589 
L 121.799716 205.397716 
L 122.081534 204.796222 
L 122.363352 201.902029 
L 122.64517 204.825475 
L 122.926989 199.039532 
L 123.208807 198.542908 
L 123.490625 192.649877 
L 123.772443 193.698227 
L 124.054261 192.006893 
L 124.33608 194.531603 
L 124.617898 193.321072 
L 124.899716 195.950344 
L 125.463352 197.851664 
L 125.74517 197.33166 
L 126.026989 192.321801 
L 126.308807 190.967719 
L 126.590625 193.33488 
L 126.872443 192.207896 
L 127.43608 192.261632 
L 127.717898 189.654198 
L 128.281534 191.107552 
L 129.126989 192.268471 
L 129.690625 187.000513 
L 130.53608 191.730823 
L 130.817898 190.152641 
L 131.099716 189.313256 
L 131.381534 190.141136 
L 131.663352 189.859756 
L 131.94517 189.199789 
L 132.226989 188.181538 
L 132.508807 189.724939 
L 132.790625 185.408925 
L 133.072443 186.78425 
L 133.354261 189.527407 
L 133.63608 190.100574 
L 133.917898 186.043988 
L 134.199716 188.646009 
L 134.481534 187.302461 
L 134.763352 187.322897 
L 135.04517 188.79512 
L 135.326989 187.482793 
L 135.608807 184.947255 
L 135.890625 187.693612 
L 136.172443 186.691977 
L 136.73608 188.999593 
L 137.299716 186.831658 
L 137.581534 188.620825 
L 137.863352 188.360617 
L 138.14517 188.945293 
L 138.426989 187.132025 
L 138.708807 186.201876 
L 138.990625 188.283568 
L 139.554261 187.196792 
L 139.83608 186.938449 
L 140.117898 187.869209 
L 140.399716 189.448849 
L 140.681534 186.718774 
L 140.963352 187.926137 
L 141.24517 188.029027 
L 141.526989 190.577963 
L 141.808807 188.203017 
L 142.090625 187.138785 
L 142.372443 187.142223 
L 142.654261 186.650825 
L 142.93608 187.646986 
L 143.217898 189.119807 
L 143.499716 187.357287 
L 144.063352 186.780915 
L 144.626989 187.368904 
L 145.190625 186.468459 
L 145.472443 186.8359 
L 145.754261 186.971379 
L 146.03608 186.899701 
L 146.317898 185.093429 
L 146.881534 187.794619 
L 147.163352 185.873828 
L 147.44517 187.042895 
L 147.726989 187.159686 
L 148.008807 186.253183 
L 148.290625 188.14548 
L 148.572443 186.173962 
L 148.854261 185.537409 
L 149.13608 184.507913 
L 149.417898 185.289264 
L 149.699716 185.491353 
L 150.263352 185.50605 
L 150.54517 186.706911 
L 151.390625 186.282175 
L 151.672443 187.690941 
L 151.954261 187.862135 
L 152.23608 187.247781 
L 152.517898 187.676233 
L 152.799716 187.559511 
L 153.081534 186.670892 
L 153.363352 186.806549 
L 153.64517 187.357622 
L 153.926989 185.867307 
L 154.208807 187.427715 
L 154.490625 187.569171 
L 154.772443 186.07568 
L 155.054261 187.16852 
L 155.33608 186.5731 
L 155.899716 187.488045 
L 156.181534 188.414262 
L 156.463352 186.39198 
L 156.74517 186.976814 
L 157.026989 187.007496 
L 157.308807 187.455282 
L 157.590625 187.062753 
L 157.872443 187.688059 
L 158.154261 188.913983 
L 158.43608 187.573495 
L 158.999716 187.191744 
L 159.281534 188.389262 
L 159.563352 187.798525 
L 159.84517 188.176457 
L 160.126989 187.385669 
L 160.408807 187.75249 
L 160.690625 188.699782 
L 160.972443 187.992732 
L 161.53608 187.416289 
L 161.817898 187.418395 
L 162.099716 188.303428 
L 162.381534 188.623496 
L 162.663352 187.288899 
L 162.94517 187.427393 
L 163.226989 186.829265 
L 164.072443 187.035494 
L 164.354261 187.28354 
L 164.63608 186.891307 
L 164.917898 186.72 
L 165.199716 188.287451 
L 165.481534 187.859376 
L 165.763352 187.743438 
L 166.04517 188.356273 
L 166.326989 188.02346 
L 166.608807 188.876462 
L 166.890625 188.073269 
L 167.172443 188.013018 
L 167.454261 188.164853 
L 168.017898 188.680438 
L 168.299716 188.271192 
L 168.581534 187.5247 
L 168.863352 188.341547 
L 169.14517 188.324353 
L 169.426989 189.009177 
L 169.708807 188.05667 
L 169.990625 188.160156 
L 170.554261 187.39402 
L 170.83608 188.24029 
L 171.117898 188.117727 
L 171.399716 188.362317 
L 171.963352 187.579802 
L 172.24517 188.523492 
L 172.526989 187.779426 
L 172.808807 188.004608 
L 173.090625 188.050907 
L 173.372443 187.705057 
L 173.93608 188.714194 
L 174.217898 188.091426 
L 174.781534 188.372829 
L 175.063352 187.862224 
L 175.626989 189.328308 
L 175.908807 188.385363 
L 176.190625 188.20942 
L 176.472443 187.831949 
L 176.754261 189.396933 
L 177.03608 188.005285 
L 177.317898 188.784901 
L 177.599716 187.040929 
L 177.881534 188.521028 
L 178.163352 188.971472 
L 178.44517 189.738808 
L 178.726989 189.229262 
L 179.008807 189.357389 
L 179.572443 187.861986 
L 179.854261 189.002622 
L 180.13608 188.464863 
L 180.417898 188.759545 
L 180.981534 188.074181 
L 181.263352 187.552388 
L 181.54517 188.515434 
L 181.826989 187.482559 
L 182.108807 188.208671 
L 182.390625 188.294128 
L 182.672443 188.216891 
L 182.954261 187.922589 
L 183.23608 188.012822 
L 183.517898 187.853364 
L 183.799716 187.512304 
L 184.363352 188.52519 
L 184.64517 188.286137 
L 184.926989 188.223808 
L 185.208807 188.930585 
L 185.490625 188.287846 
L 185.772443 187.929877 
L 186.054261 188.750086 
L 186.33608 188.931987 
L 186.617898 188.828422 
L 186.899716 187.992121 
L 187.463352 188.912342 
L 188.026989 188.581938 
L 188.308807 188.857937 
L 188.590625 188.733222 
L 188.872443 188.460897 
L 189.43608 189.477394 
L 189.717898 189.028242 
L 189.999716 189.131799 
L 190.281534 188.861658 
L 190.563352 189.526858 
L 190.84517 189.535713 
L 191.408807 188.843236 
L 191.690625 188.902469 
L 191.972443 188.297058 
L 192.254261 189.54924 
L 192.53608 188.985136 
L 193.381534 189.774629 
L 193.663352 189.788429 
L 194.226989 189.519565 
L 194.508807 190.233118 
L 194.790625 189.702311 
L 195.072443 189.514199 
L 195.354261 190.08353 
L 195.63608 190.008336 
L 195.917898 189.565447 
L 196.199716 189.583096 
L 196.481534 190.037254 
L 196.763352 189.91953 
L 197.326989 190.246258 
L 197.608807 188.569576 
L 198.172443 189.990945 
L 198.454261 189.358044 
L 198.73608 189.515732 
L 199.017898 190.11674 
L 199.299716 190.121262 
L 199.581534 190.574514 
L 199.863352 190.013054 
L 200.426989 190.082704 
L 200.990625 189.159987 
L 201.272443 189.122912 
L 201.554261 190.043139 
L 201.83608 189.066995 
L 202.117898 189.494748 
L 202.399716 189.70741 
L 202.681534 189.284489 
L 202.963352 188.605509 
L 203.24517 188.988014 
L 203.526989 188.617698 
L 203.808807 189.643596 
L 204.090625 189.470632 
L 204.372443 188.767958 
L 204.93608 188.195484 
L 205.217898 189.182142 
L 205.499716 189.285755 
L 205.781534 188.604241 
L 206.063352 188.630051 
L 206.626989 189.001234 
L 206.908807 188.555197 
L 207.190625 188.711234 
L 207.472443 188.331132 
L 207.754261 188.216426 
L 208.03608 188.946966 
L 208.317898 188.868593 
L 208.599716 186.61303 
L 208.881534 187.3314 
L 209.163352 187.278921 
L 209.44517 188.626443 
L 210.008807 188.236927 
L 210.290625 189.014136 
L 210.572443 188.35781 
L 210.854261 188.732627 
L 211.13608 188.594183 
L 211.699716 187.977919 
L 211.981534 188.852699 
L 212.263352 188.838792 
L 212.54517 188.572765 
L 212.826989 187.58102 
L 213.108807 188.035673 
L 213.390625 188.068834 
L 213.672443 188.700876 
L 213.954261 188.052588 
L 214.23608 188.169167 
L 214.517898 188.687222 
L 214.799716 187.943018 
L 215.081534 188.021358 
L 215.363352 188.77915 
L 215.64517 187.496709 
L 215.926989 188.089395 
L 216.208807 188.053076 
L 216.490625 188.150853 
L 217.33608 187.922646 
L 217.617898 186.703195 
L 217.899716 187.536367 
L 218.181534 188.008924 
L 218.74517 187.626979 
L 219.026989 187.479456 
L 219.308807 187.854597 
L 219.590625 188.015779 
L 220.154261 187.371093 
L 220.717898 187.613359 
L 220.999716 187.426125 
L 221.281534 187.772992 
L 222.126989 187.031821 
L 222.408807 187.559654 
L 222.690625 187.190519 
L 222.972443 187.5633 
L 223.254261 187.427299 
L 223.53608 187.129459 
L 224.099716 187.940556 
L 224.381534 187.680124 
L 224.663352 187.68277 
L 224.94517 187.422893 
L 225.226989 187.429192 
L 225.508807 187.247293 
L 225.790625 187.229189 
L 226.072443 187.632436 
L 226.354261 187.059433 
L 226.63608 186.9121 
L 226.917898 187.470026 
L 227.199716 186.911189 
L 227.481534 186.861304 
L 228.04517 188.172784 
L 228.326989 188.13753 
L 228.608807 186.583549 
L 229.172443 187.521703 
L 229.454261 186.950001 
L 229.73608 187.320842 
L 230.017898 187.351116 
L 230.299716 187.18988 
L 230.581534 187.486731 
L 230.863352 187.064197 
L 231.14517 188.068991 
L 231.426989 187.438666 
L 231.708807 187.525588 
L 232.272443 187.064928 
L 232.554261 187.534254 
L 232.83608 186.999843 
L 233.117898 186.926129 
L 233.681534 187.337595 
L 233.963352 187.268334 
L 234.24517 187.325297 
L 234.808807 188.006475 
L 235.090625 187.257402 
L 235.372443 187.061195 
L 235.654261 187.293884 
L 235.93608 187.793211 
L 236.217898 187.372868 
L 236.499716 187.207817 
L 236.781534 187.337196 
L 237.063352 187.697688 
L 237.34517 187.695944 
L 237.908807 187.27155 
L 238.190625 187.498069 
L 238.472443 186.499071 
L 238.754261 187.45085 
L 239.03608 187.487471 
L 239.599716 187.079629 
L 239.881534 187.896338 
L 240.163352 188.090981 
L 240.44517 187.424129 
L 240.726989 187.19887 
L 241.008807 187.659776 
L 241.290625 187.411044 
L 241.572443 188.069676 
L 242.13608 187.84988 
L 242.417898 187.070756 
L 242.699716 187.950427 
L 243.263352 187.633012 
L 243.54517 188.045176 
L 243.826989 187.762842 
L 244.108807 188.078089 
L 244.390625 187.860503 
L 244.672443 187.220608 
L 244.954261 187.392386 
L 245.517898 187.36011 
L 245.799716 187.501666 
L 246.081534 187.962535 
L 246.363352 188.130643 
L 246.64517 187.961241 
L 246.926989 188.060456 
L 247.208807 187.395321 
L 247.490625 188.152944 
L 248.054261 187.777553 
L 248.33608 188.221934 
L 248.617898 188.327467 
L 248.899716 187.334414 
L 249.181534 187.575282 
L 249.463352 187.386209 
L 249.74517 187.621626 
L 250.308807 187.691807 
L 250.590625 187.598309 
L 250.872443 187.866171 
L 251.154261 188.502235 
L 251.43608 187.314569 
L 251.717898 187.493962 
L 251.999716 187.450727 
L 252.281534 187.814029 
L 252.563352 187.417195 
L 252.84517 187.974649 
L 253.408807 187.508638 
L 253.690625 187.346572 
L 253.972443 187.041069 
L 254.254261 187.641585 
L 254.53608 186.948475 
L 255.381534 187.407369 
L 255.663352 187.783451 
L 255.94517 186.782889 
L 256.226989 186.524814 
L 256.508807 187.174069 
L 256.790625 186.954514 
L 257.354261 187.170452 
L 257.63608 186.948924 
L 257.917898 187.357923 
L 258.199716 186.64722 
L 258.481534 186.591312 
L 258.763352 187.170567 
L 259.04517 186.922178 
L 259.326989 187.859855 
L 259.608807 187.608934 
L 259.890625 186.862467 
L 260.172443 187.229374 
L 260.454261 187.81697 
L 260.73608 187.636123 
L 261.017898 187.21291 
L 261.299716 187.445551 
L 261.581534 188.112018 
L 261.863352 187.574905 
L 262.14517 188.25343 
L 262.708807 187.376497 
L 262.990625 187.700975 
L 263.272443 187.308583 
L 263.83608 187.314403 
L 264.117898 186.835633 
L 264.399716 187.844397 
L 265.24517 187.208921 
L 265.526989 186.666028 
L 265.808807 187.334858 
L 266.090625 186.874302 
L 266.654261 187.869404 
L 266.93608 187.228491 
L 267.217898 187.823869 
L 267.499716 187.239268 
L 267.781534 187.020496 
L 268.063352 187.197063 
L 268.34517 187.932748 
L 268.626989 187.430735 
L 268.908807 187.394432 
L 269.190625 187.476013 
L 269.472443 187.297475 
L 269.754261 187.682553 
L 270.317898 187.372028 
L 270.599716 187.628201 
L 270.881534 186.783212 
L 271.163352 187.074856 
L 271.44517 186.839405 
L 271.726989 187.515935 
L 272.008807 187.763284 
L 272.290625 187.505691 
L 272.572443 186.969055 
L 272.854261 187.109494 
L 273.13608 187.535298 
L 273.417898 187.599074 
L 273.699716 187.05674 
L 273.981534 187.478947 
L 274.263352 186.890404 
L 274.54517 187.426476 
L 274.826989 186.929427 
L 275.390625 187.451987 
L 275.672443 187.646823 
L 275.954261 187.341754 
L 276.517898 187.365084 
L 276.799716 188.043789 
L 277.081534 187.491406 
L 277.363352 187.225406 
L 278.208807 187.781165 
L 278.490625 187.21531 
L 278.772443 187.431781 
L 279.054261 187.030991 
L 279.33608 187.667348 
L 279.617898 187.632509 
L 279.899716 187.483169 
L 280.181534 187.892397 
L 280.463352 188.030297 
L 280.74517 187.892854 
L 281.026989 187.209789 
L 281.308807 187.498252 
L 281.590625 187.144424 
L 281.872443 187.409736 
L 282.154261 187.265258 
L 282.43608 187.92355 
L 282.717898 187.202294 
L 282.999716 188.344075 
L 283.281534 187.628879 
L 283.563352 187.287634 
L 283.84517 187.250385 
L 284.126989 187.988552 
L 284.408807 187.071004 
L 284.690625 187.082474 
L 284.972443 187.294689 
L 285.254261 187.221526 
L 285.53608 187.028633 
L 285.817898 185.158508 
L 286.099716 184.299615 
L 286.381534 184.500074 
L 286.663352 185.277536 
L 287.226989 185.268716 
L 287.508807 185.015152 
L 287.790625 185.796076 
L 288.072443 185.957616 
L 288.354261 185.848003 
L 288.917898 185.892563 
L 289.481534 185.735179 
L 289.763352 186.276245 
L 290.04517 185.92426 
L 290.608807 186.411477 
L 290.890625 185.734071 
L 291.172443 185.479624 
L 291.454261 185.718253 
L 291.73608 185.690473 
L 292.017898 186.112403 
L 292.299716 186.273486 
L 292.581534 186.295534 
L 292.863352 185.989211 
L 293.14517 186.997044 
L 293.708807 186.170765 
L 293.990625 185.977352 
L 294.554261 186.875185 
L 294.83608 185.986072 
L 295.117898 185.923514 
L 295.399716 186.399051 
L 295.681534 186.190623 
L 295.963352 186.267194 
L 296.24517 186.775894 
L 296.526989 186.365425 
L 296.808807 186.908483 
L 297.090625 186.091172 
L 297.372443 185.744954 
L 297.654261 186.419137 
L 297.93608 186.485364 
L 298.217898 186.161955 
L 298.499716 186.35255 
L 299.626989 186.435734 
L 299.908807 186.270934 
L 300.190625 186.280163 
L 300.472443 186.571571 
L 301.03608 186.138949 
L 301.317898 186.467975 
L 301.599716 186.182124 
L 301.881534 186.297055 
L 302.44517 186.071706 
L 302.726989 185.619711 
L 303.008807 186.231998 
L 303.290625 186.019974 
L 303.572443 186.273818 
L 304.417898 186.389846 
L 304.699716 186.049325 
L 304.981534 186.585675 
L 305.263352 185.907984 
L 305.54517 185.839286 
L 306.108807 185.906247 
L 306.390625 186.203396 
L 306.672443 186.185789 
L 307.517898 186.534952 
L 307.799716 186.425753 
L 308.081534 187.20929 
L 308.363352 186.719798 
L 308.64517 186.52465 
L 308.926989 186.153964 
L 309.208807 186.784297 
L 309.490625 186.40804 
L 310.054261 186.201713 
L 310.33608 186.48308 
L 311.463352 186.353096 
L 312.026989 186.642501 
L 312.308807 186.526376 
L 312.590625 185.881085 
L 312.872443 185.85757 
L 313.43608 186.964825 
L 313.717898 187.053255 
L 313.999716 186.680356 
L 314.281534 186.720612 
L 314.563352 186.554846 
L 314.84517 186.154126 
L 315.408807 186.243824 
L 315.690625 186.221894 
L 315.972443 185.734358 
L 316.254261 186.339099 
L 316.53608 186.253976 
L 316.817898 186.357352 
L 317.099716 186.635677 
L 317.663352 186.401728 
L 317.94517 186.75468 
L 318.226989 186.846287 
L 318.508807 186.299263 
L 318.790625 186.117263 
L 319.072443 186.345605 
L 319.354261 186.360191 
L 319.63608 186.623006 
L 319.917898 186.388703 
L 320.199716 186.617551 
L 320.481534 186.09062 
L 320.763352 186.586596 
L 321.04517 186.190007 
L 321.326989 186.660059 
L 321.608807 186.198314 
L 321.890625 186.091641 
L 322.454261 185.492679 
L 323.017898 186.105814 
L 323.299716 186.26005 
L 323.863352 185.864112 
L 324.14517 186.417145 
L 324.426989 186.632897 
L 324.708807 185.933708 
L 324.990625 186.047637 
L 325.272443 186.288551 
L 325.554261 185.935597 
L 325.83608 186.265923 
L 326.117898 185.779064 
L 326.399716 186.225575 
L 326.681534 186.262343 
L 326.963352 186.175022 
L 327.526989 186.227135 
L 327.808807 186.45161 
L 328.090625 185.973284 
L 328.372443 186.244271 
L 328.654261 186.168642 
L 328.93608 185.807737 
L 329.217898 185.955103 
L 329.499716 185.719193 
L 329.781534 185.649423 
L 330.063352 185.813152 
L 330.34517 185.62288 
L 330.626989 185.698558 
L 330.908807 186.135217 
L 331.190625 186.148878 
L 331.472443 185.919774 
L 331.754261 186.061994 
L 332.03608 185.963711 
L 332.317898 186.235315 
L 333.44517 185.818094 
L 333.726989 185.097689 
L 334.008807 185.180212 
L 334.290625 185.592678 
L 334.854261 185.40739 
L 335.13608 185.814178 
L 335.417898 185.288091 
L 335.699716 185.297282 
L 336.263352 186.011659 
L 336.54517 185.750687 
L 336.826989 185.921088 
L 337.390625 185.553697 
L 337.672443 185.815104 
L 337.954261 186.233264 
L 338.23608 186.316116 
L 338.517898 186.106491 
L 338.799716 186.302507 
L 339.363352 186.116011 
L 339.64517 186.737963 
L 339.926989 186.254033 
L 340.208807 186.364181 
L 340.490625 186.005004 
L 341.33608 185.818936 
L 341.617898 186.107107 
L 342.181534 186.203682 
L 342.463352 185.955973 
L 342.74517 186.32537 
L 343.026989 185.95286 
L 343.308807 186.028157 
L 343.590625 185.742714 
L 343.872443 185.72313 
L 344.154261 186.013151 
L 344.717898 185.709862 
L 345.281534 185.929628 
L 345.563352 185.404373 
L 345.84517 185.736935 
L 346.126989 186.478309 
L 346.408807 185.97255 
L 346.690625 186.223972 
L 346.972443 185.852485 
L 347.53608 186.277131 
L 347.817898 186.02464 
L 348.099716 186.005793 
L 348.381534 185.790291 
L 348.663352 185.379349 
L 348.94517 185.745231 
L 349.508807 185.577989 
L 349.790625 185.490213 
L 350.072443 185.71399 
L 350.354261 185.547125 
L 350.63608 186.376341 
L 350.917898 185.685145 
L 351.199716 185.437634 
L 351.481534 185.782203 
L 351.763352 185.450856 
L 352.04517 185.439633 
L 352.608807 185.955089 
L 352.890625 185.591906 
L 353.454261 185.952991 
L 353.73608 185.654438 
L 354.017898 185.861792 
L 354.299716 185.674963 
L 354.581534 185.971651 
L 354.863352 186.050419 
L 355.14517 185.671561 
L 355.426989 185.714797 
L 355.708807 185.910593 
L 355.990625 185.816853 
L 356.272443 185.941182 
L 356.554261 185.56361 
L 356.83608 185.856095 
L 357.117898 185.937247 
L 357.399716 185.525211 
L 357.963352 185.502809 
L 358.24517 185.799641 
L 358.526989 185.316523 
L 358.808807 185.723265 
L 359.090625 185.748763 
L 359.372443 185.469673 
L 359.654261 186.073279 
L 359.93608 185.85243 
L 360.217898 186.304317 
L 360.499716 185.806278 
L 360.781534 185.647092 
L 361.063352 185.774718 
L 361.34517 185.772281 
L 361.626989 185.331673 
L 361.908807 185.665762 
L 362.190625 185.342823 
L 363.03608 186.082109 
L 363.317898 186.089877 
L 363.599716 184.787684 
L 363.881534 185.59565 
L 364.44517 185.976348 
L 364.726989 185.979838 
L 365.008807 185.464481 
L 365.572443 185.766317 
L 365.854261 185.304157 
L 366.13608 185.241858 
L 366.417898 185.630348 
L 366.981534 185.863152 
L 367.263352 185.674776 
L 367.54517 185.842227 
L 367.826989 185.839063 
L 368.108807 185.343559 
L 368.672443 185.748516 
L 368.954261 185.667737 
L 369.23608 185.860776 
L 369.517898 185.722093 
L 369.799716 185.396313 
L 370.363352 185.501576 
L 370.64517 185.122117 
L 370.926989 185.89944 
L 371.208807 185.378716 
L 371.490625 185.717443 
L 371.772443 185.3795 
L 372.054261 185.614582 
L 372.617898 185.826792 
L 372.899716 185.921637 
L 373.463352 185.273631 
L 373.74517 185.393312 
L 374.026989 185.974657 
L 374.308807 184.983217 
L 374.872443 185.771134 
L 375.154261 185.812377 
L 375.43608 185.487687 
L 375.999716 185.658713 
L 376.281534 185.350863 
L 376.563352 185.208361 
L 376.84517 185.581589 
L 377.126989 185.215886 
L 377.408807 185.230168 
L 377.972443 184.996668 
L 378.53608 185.660728 
L 378.817898 185.400554 
L 379.099716 185.493324 
L 379.663352 185.242921 
L 379.94517 185.382258 
L 380.226989 185.666778 
L 380.790625 185.047268 
L 381.354261 185.643121 
L 381.63608 185.291113 
L 381.917898 185.600169 
L 382.199716 185.163958 
L 382.481534 185.262357 
L 382.763352 185.641168 
L 383.04517 185.21704 
L 383.326989 185.502371 
L 383.608807 185.237078 
L 383.890625 185.503319 
L 384.172443 184.951404 
L 384.454261 185.278299 
L 384.73608 185.06473 
L 385.017898 185.618755 
L 385.863352 184.901788 
L 386.14517 185.055061 
L 386.426989 185.341415 
L 386.708807 185.35212 
L 386.990625 185.230386 
L 387.272443 185.557566 
L 387.554261 185.138828 
L 388.117898 185.212811 
L 388.399716 185.110931 
L 388.681534 184.766846 
L 388.963352 185.098531 
L 389.24517 184.858957 
L 389.526989 185.366991 
L 389.808807 184.832966 
L 390.090625 185.304899 
L 390.372443 185.348768 
L 390.654261 185.019933 
L 390.93608 184.066157 
L 391.217898 184.953365 
L 391.499716 185.029033 
L 391.781534 184.580125 
L 392.34517 184.812666 
L 392.626989 185.011276 
L 392.908807 185.488328 
L 393.190625 184.839575 
L 393.754261 185.46906 
L 394.317898 184.708155 
L 394.599716 184.612363 
L 394.881534 185.073962 
L 395.163352 185.00207 
L 395.44517 184.667401 
L 395.726989 185.660946 
L 396.008807 185.387543 
L 396.572443 184.554148 
L 397.417898 184.994997 
L 397.699716 184.615874 
L 398.263352 185.217749 
L 398.54517 184.890171 
L 398.826989 185.107049 
L 399.108807 184.634478 
L 400.23608 185.260286 
L 400.517898 184.963435 
L 400.799716 185.088686 
L 401.081534 184.95617 
L 401.363352 185.05309 
L 401.64517 185.289761 
L 401.926989 185.137012 
L 402.208807 185.338344 
L 402.772443 184.990153 
L 403.617898 185.089635 
L 403.899716 185.092262 
L 404.181534 184.908988 
L 404.463352 184.89784 
L 404.74517 185.154122 
L 405.026989 185.214908 
L 405.308807 185.076644 
L 405.590625 185.285548 
L 405.872443 185.064083 
L 406.154261 185.229144 
L 406.43608 184.883728 
L 406.717898 184.752453 
L 406.999716 185.124473 
L 407.281534 184.638999 
L 407.563352 184.873653 
L 407.84517 185.464575 
L 408.408807 185.282802 
L 408.690625 185.285787 
L 408.972443 185.473608 
L 409.254261 184.54076 
L 409.817898 185.16694 
L 410.099716 184.770681 
L 410.381534 184.939562 
L 410.663352 184.880314 
L 410.94517 185.155055 
L 411.226989 184.841595 
L 411.508807 185.55881 
L 411.790625 185.067812 
L 412.072443 184.951094 
L 412.354261 185.066114 
L 412.63608 184.687902 
L 412.917898 184.900511 
L 413.199716 184.912242 
L 413.481534 184.660179 
L 414.04517 184.620449 
L 414.326989 184.937311 
L 414.608807 184.615958 
L 415.172443 184.961336 
L 415.73608 184.537369 
L 416.581534 184.902272 
L 416.863352 185.005211 
L 417.14517 184.782223 
L 417.426989 184.413976 
L 417.708807 184.733595 
L 418.272443 184.808739 
L 418.554261 185.145023 
L 418.83608 184.699711 
L 419.117898 184.865599 
L 419.399716 184.612051 
L 419.681534 185.049187 
L 420.24517 185.289952 
L 420.526989 184.809121 
L 420.808807 185.01908 
L 421.090625 184.829658 
L 421.372443 184.945658 
L 421.93608 184.921307 
L 422.217898 185.744583 
L 422.499716 185.289857 
L 423.34517 185.204668 
L 423.626989 185.02375 
L 423.908807 185.851191 
L 424.190625 185.202026 
L 424.472443 185.299428 
L 424.754261 185.258903 
L 425.03608 185.765713 
L 425.317898 185.017931 
L 425.599716 185.223402 
L 425.881534 184.843359 
L 426.163352 185.161111 
L 426.44517 184.758296 
L 426.726989 184.801805 
L 427.008807 185.203225 
L 427.290625 184.830448 
L 427.572443 185.276529 
L 427.854261 185.156063 
L 428.13608 185.401703 
L 428.417898 185.368559 
L 428.699716 185.039974 
L 428.981534 185.364377 
L 429.263352 185.372773 
L 429.54517 185.124982 
L 430.390625 185.338046 
L 430.672443 185.160352 
L 430.954261 185.622062 
L 431.23608 185.638071 
L 431.517898 184.985756 
L 431.799716 185.545884 
L 432.081534 185.73752 
L 432.363352 185.255421 
L 432.926989 185.100956 
L 433.208807 185.390662 
L 433.772443 185.383446 
L 434.054261 185.138582 
L 434.33608 185.081053 
L 434.617898 185.36929 
L 434.899716 185.155861 
L 435.181534 185.25123 
L 435.74517 184.964765 
L 436.026989 184.843631 
L 436.308807 185.11617 
L 436.590625 184.955133 
L 436.872443 185.018476 
L 437.154261 184.872595 
L 437.43608 185.073209 
L 437.717898 184.859193 
L 437.999716 185.007464 
L 438.281534 184.919116 
L 438.563352 185.160708 
L 439.126989 184.992052 
L 439.408807 185.448633 
L 439.690625 185.129941 
L 439.972443 185.317515 
L 440.254261 185.290708 
L 440.53608 184.780939 
L 440.817898 180.036991 
L 441.099716 182.56178 
L 441.381534 183.98074 
L 441.663352 183.608499 
L 441.94517 183.802444 
L 442.226989 182.828187 
L 442.508807 183.003421 
L 442.790625 182.664868 
L 443.072443 182.660828 
L 443.354261 182.797474 
L 443.917898 182.332724 
L 444.199716 182.871875 
L 444.481534 182.77053 
L 444.763352 182.828017 
L 445.04517 183.259699 
L 445.326989 183.433791 
L 445.608807 183.009316 
L 446.454261 183.394681 
L 446.73608 183.724366 
L 447.299716 183.204305 
L 447.581534 183.679701 
L 448.14517 183.20975 
L 448.426989 183.655039 
L 448.708807 183.597079 
L 448.990625 183.933037 
L 449.554261 183.312294 
L 449.83608 183.714128 
L 450.117898 183.471159 
L 450.399716 183.50005 
L 450.963352 184.314002 
L 451.24517 183.612529 
L 451.526989 183.560315 
L 452.090625 183.656162 
L 452.372443 183.468498 
L 452.654261 183.717202 
L 452.93608 184.223634 
L 453.217898 183.773258 
L 453.499716 183.63697 
L 454.063352 184.015264 
L 454.626989 183.788114 
L 454.908807 183.96905 
L 455.190625 183.494329 
L 455.472443 183.749704 
L 455.754261 183.728994 
L 456.03608 183.879491 
L 456.599716 183.43429 
L 457.163352 183.806607 
L 457.44517 183.222694 
L 457.726989 183.761326 
L 458.008807 183.553487 
L 458.290625 183.785491 
L 459.13608 183.709997 
L 459.417898 183.463813 
L 459.699716 183.723789 
L 459.981534 183.340668 
L 460.263352 183.923346 
L 460.54517 183.457319 
L 460.826989 183.66021 
L 461.390625 183.269472 
L 462.23608 183.935596 
L 462.517898 183.566451 
L 463.081534 183.387112 
L 463.363352 183.70615 
L 463.64517 183.314692 
L 463.926989 183.848061 
L 464.208807 183.628863 
L 464.490625 183.181817 
L 464.772443 183.388481 
L 465.054261 183.744475 
L 465.33608 183.755057 
L 465.617898 183.646553 
L 466.181534 183.873659 
L 466.463352 183.949715 
L 466.74517 183.213537 
L 467.026989 183.281806 
L 467.308807 183.690155 
L 467.590625 183.578216 
L 467.872443 183.856638 
L 468.154261 183.406458 
L 468.43608 183.567542 
L 468.717898 184.027791 
L 468.999716 183.50691 
L 469.281534 183.562667 
L 469.563352 183.266677 
L 469.84517 183.180689 
L 470.126989 183.610598 
L 470.408807 183.30321 
L 470.690625 183.695 
L 470.972443 183.035239 
L 471.254261 183.881584 
L 471.53608 183.475687 
L 471.817898 183.371651 
L 472.381534 183.993367 
L 472.663352 183.741462 
L 472.94517 183.815634 
L 473.226989 183.339237 
L 473.790625 183.644082 
L 474.072443 183.348002 
L 474.354261 183.473453 
L 474.63608 184.147805 
L 474.917898 184.015953 
L 475.199716 183.542469 
L 475.481534 183.331938 
L 475.763352 183.69612 
L 476.04517 183.159634 
L 476.326989 183.464488 
L 476.890625 183.428491 
L 477.172443 183.274972 
L 477.454261 183.374157 
L 477.73608 183.116363 
L 478.017898 183.503453 
L 478.299716 183.699039 
L 478.581534 183.354238 
L 478.863352 183.542265 
L 479.14517 183.262553 
L 479.426989 183.595958 
L 479.708807 183.61165 
L 479.990625 183.447239 
L 480.272443 183.742063 
L 480.554261 183.720341 
L 480.83608 183.845882 
L 481.117898 183.254979 
L 481.963352 183.287191 
L 482.24517 183.187968 
L 482.526989 183.636825 
L 482.808807 183.267348 
L 483.090625 183.562088 
L 483.372443 183.502068 
L 483.654261 183.297027 
L 483.93608 183.322349 
L 484.499716 183.551254 
L 485.063352 183.350554 
L 485.34517 183.603973 
L 485.626989 183.098763 
L 485.908807 183.042062 
L 486.472443 183.669447 
L 486.754261 183.466858 
L 487.03608 183.401992 
L 487.317898 184.102038 
L 487.599716 183.599398 
L 487.881534 183.645449 
L 488.163352 183.565669 
L 488.44517 183.804148 
L 489.290625 183.269829 
L 489.572443 183.606135 
L 489.854261 183.452829 
L 490.417898 183.393455 
L 490.699716 183.82691 
L 490.981534 183.346234 
L 491.263352 183.577972 
L 491.54517 183.587448 
L 491.826989 183.423884 
L 492.108807 183.627187 
L 492.390625 183.393281 
L 492.672443 183.65609 
L 492.954261 183.515589 
L 493.23608 183.626813 
L 493.517898 183.311961 
L 494.081534 183.426901 
L 494.363352 182.992038 
L 494.64517 183.071403 
L 494.926989 183.401835 
L 495.208807 183.497815 
L 495.490625 182.924655 
L 496.054261 183.498596 
L 496.899716 183.323552 
L 497.181534 183.129153 
L 497.463352 183.42482 
L 497.74517 183.361321 
L 498.026989 183.086464 
L 498.308807 183.136548 
L 498.590625 183.505101 
L 498.872443 183.340691 
L 499.154261 183.484262 
L 499.717898 183.184531 
L 500.563352 183.449026 
L 500.84517 183.20795 
L 501.126989 183.7038 
L 501.972443 183.531942 
L 502.254261 183.258673 
L 502.53608 183.441936 
L 502.817898 183.444441 
L 503.099716 183.565086 
L 503.381534 183.165658 
L 504.226989 183.152049 
L 504.790625 183.107586 
L 505.072443 183.384105 
L 505.354261 182.973842 
L 505.917898 183.76319 
L 506.199716 183.343807 
L 507.608807 183.465705 
L 507.890625 183.712417 
L 508.172443 183.657732 
L 508.73608 182.70531 
L 509.299716 182.429954 
L 509.581534 182.483317 
L 510.14517 183.320078 
L 511.554261 183.022061 
L 511.83608 183.386519 
L 512.399716 183.217535 
L 512.681534 183.623722 
L 513.24517 183.171696 
L 513.526989 183.117825 
L 514.090625 182.617823 
L 514.372443 182.696155 
L 514.654261 183.076463 
L 514.93608 182.911318 
L 515.781534 183.206343 
L 516.063352 183.036375 
L 517.190625 183.149778 
L 517.472443 183.497997 
L 517.754261 183.001253 
L 518.03608 183.099563 
L 518.317898 183.583056 
L 518.599716 183.160004 
L 518.881534 183.020948 
L 519.726989 183.323396 
L 520.290625 183.041196 
L 520.572443 182.915704 
L 520.854261 183.015766 
L 521.13608 183.420561 
L 521.417898 183.533616 
L 521.981534 183.097874 
L 522.263352 182.773374 
L 522.54517 183.516329 
L 522.826989 183.154724 
L 523.390625 183.158788 
L 523.672443 183.348349 
L 523.954261 183.348833 
L 524.23608 183.077512 
L 525.64517 182.441261 
L 525.926989 182.6167 
L 526.208807 182.979482 
L 526.490625 182.662028 
L 526.772443 182.768526 
L 527.054261 182.613882 
L 527.617898 182.998654 
L 527.899716 182.612261 
L 528.181534 182.699188 
L 528.463352 182.393298 
L 528.74517 182.697021 
L 529.026989 182.712989 
L 529.308807 182.328841 
L 529.590625 182.816708 
L 529.872443 182.572083 
L 530.154261 182.978271 
L 530.43608 182.550365 
L 530.717898 182.777252 
L 531.281534 182.417953 
L 531.84517 182.714185 
L 532.126989 182.668187 
L 532.408807 182.787581 
L 532.690625 182.287962 
L 533.254261 182.519827 
L 533.53608 182.318817 
L 534.099716 182.312334 
L 534.381534 182.567052 
L 534.663352 182.527408 
L 534.94517 182.806326 
L 535.226989 182.503238 
L 535.508807 182.48821 
L 535.790625 182.612087 
L 536.072443 182.385311 
L 536.63608 182.601009 
L 537.199716 182.125806 
L 537.481534 182.645717 
L 537.763352 182.411736 
L 538.608807 182.298394 
L 538.890625 182.866667 
L 539.454261 182.75749 
L 539.73608 182.557725 
L 540.017898 182.603123 
L 540.581534 182.270885 
L 540.863352 181.964599 
L 541.14517 182.22335 
L 541.708807 181.776029 
L 542.272443 182.3505 
L 542.554261 182.340268 
L 542.83608 182.520741 
L 543.399716 182.523605 
L 543.681534 182.238641 
L 543.963352 182.277821 
L 544.24517 182.4905 
L 544.526989 182.156534 
L 545.090625 182.384129 
L 545.654261 182.054566 
L 545.93608 182.066737 
L 546.217898 182.388662 
L 546.499716 182.498932 
L 546.781534 182.183845 
L 547.063352 182.322671 
L 547.34517 182.211071 
L 547.626989 182.422352 
L 547.908807 182.48971 
L 548.190625 182.729717 
L 548.472443 182.393239 
L 549.03608 182.735363 
L 549.317898 182.327999 
L 549.599716 182.338891 
L 550.163352 182.599993 
L 550.44517 182.466046 
L 550.726989 182.69844 
L 551.008807 182.38232 
L 551.290625 182.442558 
L 551.572443 182.362258 
L 551.854261 182.586701 
L 552.417898 182.419876 
L 552.699716 182.295667 
L 552.981534 182.456317 
L 553.263352 182.461302 
L 553.54517 182.224138 
L 554.108807 182.186657 
L 554.672443 182.622206 
L 554.954261 182.367919 
L 556.081534 182.174806 
L 556.363352 182.346741 
L 556.926989 182.330894 
L 557.490625 182.340062 
L 557.772443 182.131605 
L 558.33608 182.46111 
L 558.617898 182.411937 
L 558.899716 182.212611 
L 559.463352 182.477282 
L 560.026989 182.283253 
L 560.590625 182.504761 
L 560.872443 182.056743 
L 561.717898 182.046057 
L 561.999716 181.847828 
L 562.563352 182.310119 
L 562.84517 182.038079 
L 563.126989 182.276506 
L 563.408807 182.738705 
L 563.972443 182.299761 
L 564.254261 182.571966 
L 564.53608 182.000154 
L 565.099716 182.251631 
L 565.381534 182.082969 
L 565.663352 182.140549 
L 565.94517 182.341278 
L 567.072443 182.329414 
L 568.199716 182.35191 
L 568.763352 182.309092 
L 569.04517 182.350223 
L 569.326989 182.256163 
L 569.608807 182.347059 
L 569.890625 182.157633 
L 570.172443 182.385586 
L 570.454261 182.384132 
L 570.73608 182.504546 
L 571.017898 182.249162 
L 571.863352 182.184146 
L 572.14517 182.330889 
L 572.426989 181.942761 
L 572.708807 182.094773 
L 572.990625 182.39769 
L 573.272443 182.184823 
L 573.554261 182.122614 
L 574.117898 182.354128 
L 574.399716 182.159576 
L 575.24517 182.071083 
L 575.526989 182.330678 
L 576.93608 182.091639 
L 577.217898 182.392439 
L 577.499716 182.28186 
L 578.063352 182.305347 
L 578.34517 182.166866 
L 578.908807 182.459293 
L 579.472443 182.478516 
L 579.754261 182.664681 
L 580.03608 182.309044 
L 580.317898 182.751354 
L 580.881534 182.38066 
L 581.44517 182.767456 
L 582.008807 182.559118 
L 582.290625 182.58821 
L 582.572443 182.203366 
L 582.854261 182.269519 
L 583.13608 182.672369 
L 583.417898 182.194848 
L 583.699716 182.355663 
L 584.826989 182.283822 
L 585.108807 182.535192 
L 585.390625 182.240762 
L 585.954261 182.326357 
L 586.23608 182.213775 
L 586.517898 182.643433 
L 586.799716 182.149178 
L 587.081534 182.315982 
L 587.363352 182.266031 
L 587.64517 182.393188 
L 587.926989 182.152417 
L 588.208807 182.272767 
L 588.772443 182.298863 
L 589.054261 182.684431 
L 589.33608 182.262631 
L 589.617898 182.394064 
L 589.899716 182.207273 
L 590.181534 182.184849 
L 590.463352 182.429083 
L 590.74517 182.163767 
L 592.154261 182.305717 
L 592.43608 182.230983 
L 592.717898 182.546988 
L 592.999716 182.26587 
L 593.563352 182.359449 
L 593.84517 182.636811 
L 594.126989 182.176751 
L 594.408807 182.517018 
L 594.690625 182.330393 
L 594.972443 182.443774 
L 595.254261 182.14642 
L 595.817898 182.399277 
L 596.099716 181.964021 
L 597.226989 182.053783 
L 597.508807 182.450467 
L 598.072443 181.833146 
L 598.354261 182.25715 
L 598.63608 182.037174 
L 598.917898 182.113034 
L 599.199716 181.986759 
L 599.763352 182.332728 
L 600.04517 182.119482 
L 600.326989 181.758075 
L 601.172443 182.655678 
L 601.73608 182.319435 
L 602.299716 181.935206 
L 602.581534 182.013737 
L 602.863352 182.288837 
L 603.426989 182.160295 
L 603.990625 181.891785 
L 604.554261 182.0306 
L 604.83608 181.925614 
L 605.399716 182.046479 
L 605.963352 182.059735 
L 606.808807 182.188095 
L 607.090625 182.65131 
L 607.372443 182.19252 
L 607.654261 182.516961 
L 607.93608 182.632907 
L 608.217898 182.212735 
L 608.499716 182.231731 
L 608.781534 182.42514 
L 609.063352 182.438277 
L 609.34517 182.207937 
L 610.190625 182.191734 
L 610.472443 182.003203 
L 610.754261 182.177258 
L 611.317898 182.261426 
L 611.599716 182.033008 
L 611.881534 181.975198 
L 612.44517 182.308359 
L 613.290625 182.79928 
L 613.572443 182.879149 
L 614.13608 182.526982 
L 614.417898 182.701059 
L 614.981534 182.457266 
L 615.826989 182.030523 
L 616.390625 182.326733 
L 616.672443 182.133712 
L 616.954261 182.415534 
L 617.517898 182.175065 
L 617.799716 182.311002 
L 618.081534 182.264421 
L 618.64517 182.491615 
L 618.926989 182.280444 
L 619.208807 182.649942 
L 619.490625 182.137365 
L 619.772443 182.341957 
L 620.054261 182.343052 
L 620.33608 182.110635 
L 620.617898 182.045178 
L 620.899716 182.275203 
L 621.181534 182.121103 
L 621.74517 182.310687 
L 622.026989 182.228913 
L 622.308807 182.342465 
L 623.154261 181.98579 
L 623.43608 182.186278 
L 623.717898 182.25031 
L 623.999716 182.087961 
L 624.281534 182.590542 
L 624.563352 182.497836 
L 624.84517 182.615811 
L 625.126989 182.430522 
L 625.126989 182.430522 
" clip-path="url(#p34f921b7d4)" style="fill: none; stroke: #ff7f0e; stroke-width: 1.5; stroke-linecap: square"/>
   </g>
   <g id="patch_3">
    <path d="M 92.490625 308.63625 
L 92.490625 31.43625 
" style="fill: none; stroke: #000000; stroke-width: 0.8; stroke-linejoin: miter; stroke-linecap: square"/>
   </g>
   <g id="patch_4">
    <path d="M 650.490625 308.63625 
L 650.490625 31.43625 
" style="fill: none; stroke: #000000; stroke-width: 0.8; stroke-linejoin: miter; stroke-linecap: square"/>
   </g>
   <g id="patch_5">
    <path d="M 92.490625 308.63625 
L 650.490625 308.63625 
" style="fill: none; stroke: #000000; stroke-width: 0.8; stroke-linejoin: miter; stroke-linecap: square"/>
   </g>
   <g id="patch_6">
    <path d="M 92.490625 31.43625 
L 650.490625 31.43625 
" style="fill: none; stroke: #000000; stroke-width: 0.8; stroke-linejoin: miter; stroke-linecap: square"/>
   </g>
   <g id="text_16">
    <!-- Generator and Discriminator Loss During Training -->
    <g transform="translate(74.258125 25.43625) scale(0.24 -0.24)">
     <defs>
      <path id="DejaVuSans-47" d="M 3809 666 
L 3809 1919 
L 2778 1919 
L 2778 2438 
L 4434 2438 
L 4434 434 
Q 4069 175 3628 42 
Q 3188 -91 2688 -91 
Q 1594 -91 976 548 
Q 359 1188 359 2328 
Q 359 3472 976 4111 
Q 1594 4750 2688 4750 
Q 3144 4750 3555 4637 
Q 3966 4525 4313 4306 
L 4313 3634 
Q 3963 3931 3569 4081 
Q 3175 4231 2741 4231 
Q 1884 4231 1454 3753 
Q 1025 3275 1025 2328 
Q 1025 1384 1454 906 
Q 1884 428 2741 428 
Q 3075 428 3337 486 
Q 3600 544 3809 666 
z
" transform="scale(0.015625)"/>
      <path id="DejaVuSans-20" transform="scale(0.015625)"/>
      <path id="DejaVuSans-64" d="M 2906 2969 
L 2906 4863 
L 3481 4863 
L 3481 0 
L 2906 0 
L 2906 525 
Q 2725 213 2448 61 
Q 2172 -91 1784 -91 
Q 1150 -91 751 415 
Q 353 922 353 1747 
Q 353 2572 751 3078 
Q 1150 3584 1784 3584 
Q 2172 3584 2448 3432 
Q 2725 3281 2906 2969 
z
M 947 1747 
Q 947 1113 1208 752 
Q 1469 391 1925 391 
Q 2381 391 2643 752 
Q 2906 1113 2906 1747 
Q 2906 2381 2643 2742 
Q 2381 3103 1925 3103 
Q 1469 3103 1208 2742 
Q 947 2381 947 1747 
z
" transform="scale(0.015625)"/>
      <path id="DejaVuSans-44" d="M 1259 4147 
L 1259 519 
L 2022 519 
Q 2988 519 3436 956 
Q 3884 1394 3884 2338 
Q 3884 3275 3436 3711 
Q 2988 4147 2022 4147 
L 1259 4147 
z
M 628 4666 
L 1925 4666 
Q 3281 4666 3915 4102 
Q 4550 3538 4550 2338 
Q 4550 1131 3912 565 
Q 3275 0 1925 0 
L 628 0 
L 628 4666 
z
" transform="scale(0.015625)"/>
      <path id="DejaVuSans-63" d="M 3122 3366 
L 3122 2828 
Q 2878 2963 2633 3030 
Q 2388 3097 2138 3097 
Q 1578 3097 1268 2742 
Q 959 2388 959 1747 
Q 959 1106 1268 751 
Q 1578 397 2138 397 
Q 2388 397 2633 464 
Q 2878 531 3122 666 
L 3122 134 
Q 2881 22 2623 -34 
Q 2366 -91 2075 -91 
Q 1284 -91 818 406 
Q 353 903 353 1747 
Q 353 2603 823 3093 
Q 1294 3584 2113 3584 
Q 2378 3584 2631 3529 
Q 2884 3475 3122 3366 
z
" transform="scale(0.015625)"/>
      <path id="DejaVuSans-6d" d="M 3328 2828 
Q 3544 3216 3844 3400 
Q 4144 3584 4550 3584 
Q 5097 3584 5394 3201 
Q 5691 2819 5691 2113 
L 5691 0 
L 5113 0 
L 5113 2094 
Q 5113 2597 4934 2840 
Q 4756 3084 4391 3084 
Q 3944 3084 3684 2787 
Q 3425 2491 3425 1978 
L 3425 0 
L 2847 0 
L 2847 2094 
Q 2847 2600 2669 2842 
Q 2491 3084 2119 3084 
Q 1678 3084 1418 2786 
Q 1159 2488 1159 1978 
L 1159 0 
L 581 0 
L 581 3500 
L 1159 3500 
L 1159 2956 
Q 1356 3278 1631 3431 
Q 1906 3584 2284 3584 
Q 2666 3584 2933 3390 
Q 3200 3197 3328 2828 
z
" transform="scale(0.015625)"/>
      <path id="DejaVuSans-75" d="M 544 1381 
L 544 3500 
L 1119 3500 
L 1119 1403 
Q 1119 906 1312 657 
Q 1506 409 1894 409 
Q 2359 409 2629 706 
Q 2900 1003 2900 1516 
L 2900 3500 
L 3475 3500 
L 3475 0 
L 2900 0 
L 2900 538 
Q 2691 219 2414 64 
Q 2138 -91 1772 -91 
Q 1169 -91 856 284 
Q 544 659 544 1381 
z
M 1991 3584 
L 1991 3584 
z
" transform="scale(0.015625)"/>
      <path id="DejaVuSans-67" d="M 2906 1791 
Q 2906 2416 2648 2759 
Q 2391 3103 1925 3103 
Q 1463 3103 1205 2759 
Q 947 2416 947 1791 
Q 947 1169 1205 825 
Q 1463 481 1925 481 
Q 2391 481 2648 825 
Q 2906 1169 2906 1791 
z
M 3481 434 
Q 3481 -459 3084 -895 
Q 2688 -1331 1869 -1331 
Q 1566 -1331 1297 -1286 
Q 1028 -1241 775 -1147 
L 775 -588 
Q 1028 -725 1275 -790 
Q 1522 -856 1778 -856 
Q 2344 -856 2625 -561 
Q 2906 -266 2906 331 
L 2906 616 
Q 2728 306 2450 153 
Q 2172 0 1784 0 
Q 1141 0 747 490 
Q 353 981 353 1791 
Q 353 2603 747 3093 
Q 1141 3584 1784 3584 
Q 2172 3584 2450 3431 
Q 2728 3278 2906 2969 
L 2906 3500 
L 3481 3500 
L 3481 434 
z
" transform="scale(0.015625)"/>
      <path id="DejaVuSans-54" d="M -19 4666 
L 3928 4666 
L 3928 4134 
L 2272 4134 
L 2272 0 
L 1638 0 
L 1638 4134 
L -19 4134 
L -19 4666 
z
" transform="scale(0.015625)"/>
     </defs>
     <use xlink:href="#DejaVuSans-47"/>
     <use xlink:href="#DejaVuSans-65" x="77.490234"/>
     <use xlink:href="#DejaVuSans-6e" x="139.013672"/>
     <use xlink:href="#DejaVuSans-65" x="202.392578"/>
     <use xlink:href="#DejaVuSans-72" x="263.916016"/>
     <use xlink:href="#DejaVuSans-61" x="305.029297"/>
     <use xlink:href="#DejaVuSans-74" x="366.308594"/>
     <use xlink:href="#DejaVuSans-6f" x="405.517578"/>
     <use xlink:href="#DejaVuSans-72" x="466.699219"/>
     <use xlink:href="#DejaVuSans-20" x="507.8125"/>
     <use xlink:href="#DejaVuSans-61" x="539.599609"/>
     <use xlink:href="#DejaVuSans-6e" x="600.878906"/>
     <use xlink:href="#DejaVuSans-64" x="664.257812"/>
     <use xlink:href="#DejaVuSans-20" x="727.734375"/>
     <use xlink:href="#DejaVuSans-44" x="759.521484"/>
     <use xlink:href="#DejaVuSans-69" x="836.523438"/>
     <use xlink:href="#DejaVuSans-73" x="864.306641"/>
     <use xlink:href="#DejaVuSans-63" x="916.40625"/>
     <use xlink:href="#DejaVuSans-72" x="971.386719"/>
     <use xlink:href="#DejaVuSans-69" x="1012.5"/>
     <use xlink:href="#DejaVuSans-6d" x="1040.283203"/>
     <use xlink:href="#DejaVuSans-69" x="1137.695312"/>
     <use xlink:href="#DejaVuSans-6e" x="1165.478516"/>
     <use xlink:href="#DejaVuSans-61" x="1228.857422"/>
     <use xlink:href="#DejaVuSans-74" x="1290.136719"/>
     <use xlink:href="#DejaVuSans-6f" x="1329.345703"/>
     <use xlink:href="#DejaVuSans-72" x="1390.527344"/>
     <use xlink:href="#DejaVuSans-20" x="1431.640625"/>
     <use xlink:href="#DejaVuSans-4c" x="1463.427734"/>
     <use xlink:href="#DejaVuSans-6f" x="1517.390625"/>
     <use xlink:href="#DejaVuSans-73" x="1578.572266"/>
     <use xlink:href="#DejaVuSans-73" x="1630.671875"/>
     <use xlink:href="#DejaVuSans-20" x="1682.771484"/>
     <use xlink:href="#DejaVuSans-44" x="1714.558594"/>
     <use xlink:href="#DejaVuSans-75" x="1791.560547"/>
     <use xlink:href="#DejaVuSans-72" x="1854.939453"/>
     <use xlink:href="#DejaVuSans-69" x="1896.052734"/>
     <use xlink:href="#DejaVuSans-6e" x="1923.835938"/>
     <use xlink:href="#DejaVuSans-67" x="1987.214844"/>
     <use xlink:href="#DejaVuSans-20" x="2050.691406"/>
     <use xlink:href="#DejaVuSans-54" x="2082.478516"/>
     <use xlink:href="#DejaVuSans-72" x="2128.8125"/>
     <use xlink:href="#DejaVuSans-61" x="2169.925781"/>
     <use xlink:href="#DejaVuSans-69" x="2231.205078"/>
     <use xlink:href="#DejaVuSans-6e" x="2258.988281"/>
     <use xlink:href="#DejaVuSans-69" x="2322.367188"/>
     <use xlink:href="#DejaVuSans-6e" x="2350.150391"/>
     <use xlink:href="#DejaVuSans-67" x="2413.529297"/>
    </g>
   </g>
   <g id="legend_1">
    <g id="patch_7">
     <path d="M 556.99375 106.14875 
L 636.490625 106.14875 
Q 640.490625 106.14875 640.490625 102.14875 
L 640.490625 45.43625 
Q 640.490625 41.43625 636.490625 41.43625 
L 556.99375 41.43625 
Q 552.99375 41.43625 552.99375 45.43625 
L 552.99375 102.14875 
Q 552.99375 106.14875 556.99375 106.14875 
z
" style="fill: #ffffff; opacity: 0.8; stroke: #cccccc; stroke-linejoin: miter"/>
    </g>
    <g id="line2d_16">
     <path d="M 560.99375 57.633125 
L 580.99375 57.633125 
L 600.99375 57.633125 
" style="fill: none; stroke: #1f77b4; stroke-width: 1.5; stroke-linecap: square"/>
    </g>
    <g id="text_17">
     <!-- G -->
     <g transform="translate(616.99375 64.633125) scale(0.2 -0.2)">
      <use xlink:href="#DejaVuSans-47"/>
     </g>
    </g>
    <g id="line2d_17">
     <path d="M 560.99375 86.989375 
L 580.99375 86.989375 
L 600.99375 86.989375 
" style="fill: none; stroke: #ff7f0e; stroke-width: 1.5; stroke-linecap: square"/>
    </g>
    <g id="text_18">
     <!-- D -->
     <g transform="translate(616.99375 93.989375) scale(0.2 -0.2)">
      <use xlink:href="#DejaVuSans-44"/>
     </g>
    </g>
   </g>
  </g>
 </g>
 <defs>
  <clipPath id="p34f921b7d4">
   <rect x="92.490625" y="31.43625" width="558" height="277.2"/>
  </clipPath>
 </defs>
</svg>
