<?xml version="1.0" encoding="utf-8" standalone="no"?>
<!DOCTYPE svg PUBLIC "-//W3C//DTD SVG 1.1//EN"
  "http://www.w3.org/Graphics/SVG/1.1/DTD/svg11.dtd">
<svg xmlns:xlink="http://www.w3.org/1999/xlink" width="675.923125pt" height="365.54875pt" viewBox="0 0 675.923125 365.54875" xmlns="http://www.w3.org/2000/svg" version="1.1">
 <metadata>
  <rdf:RDF xmlns:dc="http://purl.org/dc/elements/1.1/" xmlns:cc="http://creativecommons.org/ns#" xmlns:rdf="http://www.w3.org/1999/02/22-rdf-syntax-ns#">
   <cc:Work>
    <dc:type rdf:resource="http://purl.org/dc/dcmitype/StillImage"/>
    <dc:date>2024-02-02T15:44:49.421640</dc:date>
    <dc:format>image/svg+xml</dc:format>
    <dc:creator>
     <cc:Agent>
      <dc:title>Matplotlib v3.7.2, https://matplotlib.org/</dc:title>
     </cc:Agent>
    </dc:creator>
   </cc:Work>
  </rdf:RDF>
 </metadata>
 <defs>
  <style type="text/css">*{stroke-linejoin: round; stroke-linecap: butt}</style>
 </defs>
 <g id="figure_1">
  <g id="patch_1">
   <path d="M 0 365.54875 
L 675.923125 365.54875 
L 675.923125 -0 
L 0 -0 
z
" style="fill: #ffffff"/>
  </g>
  <g id="axes_1">
   <g id="patch_2">
    <path d="M 92.490625 308.63625 
L 650.490625 308.63625 
L 650.490625 31.43625 
L 92.490625 31.43625 
z
" style="fill: #ffffff"/>
   </g>
   <g id="matplotlib.axis_1">
    <g id="xtick_1">
     <g id="line2d_1">
      <defs>
       <path id="ma32bd7a568" d="M 0 0 
L 0 3.5 
" style="stroke: #000000; stroke-width: 0.8"/>
      </defs>
      <g>
       <use xlink:href="#ma32bd7a568" x="117.854261" y="308.63625" style="stroke: #000000; stroke-width: 0.8"/>
      </g>
     </g>
     <g id="text_1">
      <!-- 0 -->
      <g transform="translate(111.491761 330.833125) scale(0.2 -0.2)">
       <defs>
        <path id="DejaVuSans-30" d="M 2034 4250 
Q 1547 4250 1301 3770 
Q 1056 3291 1056 2328 
Q 1056 1369 1301 889 
Q 1547 409 2034 409 
Q 2525 409 2770 889 
Q 3016 1369 3016 2328 
Q 3016 3291 2770 3770 
Q 2525 4250 2034 4250 
z
M 2034 4750 
Q 2819 4750 3233 4129 
Q 3647 3509 3647 2328 
Q 3647 1150 3233 529 
Q 2819 -91 2034 -91 
Q 1250 -91 836 529 
Q 422 1150 422 2328 
Q 422 3509 836 4129 
Q 1250 4750 2034 4750 
z
" transform="scale(0.015625)"/>
       </defs>
       <use xlink:href="#DejaVuSans-30"/>
      </g>
     </g>
    </g>
    <g id="xtick_2">
     <g id="line2d_2">
      <g>
       <use xlink:href="#ma32bd7a568" x="214.477638" y="308.63625" style="stroke: #000000; stroke-width: 0.8"/>
      </g>
     </g>
     <g id="text_2">
      <!-- 200 -->
      <g transform="translate(195.390138 330.833125) scale(0.2 -0.2)">
       <defs>
        <path id="DejaVuSans-32" d="M 1228 531 
L 3431 531 
L 3431 0 
L 469 0 
L 469 531 
Q 828 903 1448 1529 
Q 2069 2156 2228 2338 
Q 2531 2678 2651 2914 
Q 2772 3150 2772 3378 
Q 2772 3750 2511 3984 
Q 2250 4219 1831 4219 
Q 1534 4219 1204 4116 
Q 875 4013 500 3803 
L 500 4441 
Q 881 4594 1212 4672 
Q 1544 4750 1819 4750 
Q 2544 4750 2975 4387 
Q 3406 4025 3406 3419 
Q 3406 3131 3298 2873 
Q 3191 2616 2906 2266 
Q 2828 2175 2409 1742 
Q 1991 1309 1228 531 
z
" transform="scale(0.015625)"/>
       </defs>
       <use xlink:href="#DejaVuSans-32"/>
       <use xlink:href="#DejaVuSans-30" x="63.623047"/>
       <use xlink:href="#DejaVuSans-30" x="127.246094"/>
      </g>
     </g>
    </g>
    <g id="xtick_3">
     <g id="line2d_3">
      <g>
       <use xlink:href="#ma32bd7a568" x="311.101015" y="308.63625" style="stroke: #000000; stroke-width: 0.8"/>
      </g>
     </g>
     <g id="text_3">
      <!-- 400 -->
      <g transform="translate(292.013515 330.833125) scale(0.2 -0.2)">
       <defs>
        <path id="DejaVuSans-34" d="M 2419 4116 
L 825 1625 
L 2419 1625 
L 2419 4116 
z
M 2253 4666 
L 3047 4666 
L 3047 1625 
L 3713 1625 
L 3713 1100 
L 3047 1100 
L 3047 0 
L 2419 0 
L 2419 1100 
L 313 1100 
L 313 1709 
L 2253 4666 
z
" transform="scale(0.015625)"/>
       </defs>
       <use xlink:href="#DejaVuSans-34"/>
       <use xlink:href="#DejaVuSans-30" x="63.623047"/>
       <use xlink:href="#DejaVuSans-30" x="127.246094"/>
      </g>
     </g>
    </g>
    <g id="xtick_4">
     <g id="line2d_4">
      <g>
       <use xlink:href="#ma32bd7a568" x="407.724391" y="308.63625" style="stroke: #000000; stroke-width: 0.8"/>
      </g>
     </g>
     <g id="text_4">
      <!-- 600 -->
      <g transform="translate(388.636891 330.833125) scale(0.2 -0.2)">
       <defs>
        <path id="DejaVuSans-36" d="M 2113 2584 
Q 1688 2584 1439 2293 
Q 1191 2003 1191 1497 
Q 1191 994 1439 701 
Q 1688 409 2113 409 
Q 2538 409 2786 701 
Q 3034 994 3034 1497 
Q 3034 2003 2786 2293 
Q 2538 2584 2113 2584 
z
M 3366 4563 
L 3366 3988 
Q 3128 4100 2886 4159 
Q 2644 4219 2406 4219 
Q 1781 4219 1451 3797 
Q 1122 3375 1075 2522 
Q 1259 2794 1537 2939 
Q 1816 3084 2150 3084 
Q 2853 3084 3261 2657 
Q 3669 2231 3669 1497 
Q 3669 778 3244 343 
Q 2819 -91 2113 -91 
Q 1303 -91 875 529 
Q 447 1150 447 2328 
Q 447 3434 972 4092 
Q 1497 4750 2381 4750 
Q 2619 4750 2861 4703 
Q 3103 4656 3366 4563 
z
" transform="scale(0.015625)"/>
       </defs>
       <use xlink:href="#DejaVuSans-36"/>
       <use xlink:href="#DejaVuSans-30" x="63.623047"/>
       <use xlink:href="#DejaVuSans-30" x="127.246094"/>
      </g>
     </g>
    </g>
    <g id="xtick_5">
     <g id="line2d_5">
      <g>
       <use xlink:href="#ma32bd7a568" x="504.347768" y="308.63625" style="stroke: #000000; stroke-width: 0.8"/>
      </g>
     </g>
     <g id="text_5">
      <!-- 800 -->
      <g transform="translate(485.260268 330.833125) scale(0.2 -0.2)">
       <defs>
        <path id="DejaVuSans-38" d="M 2034 2216 
Q 1584 2216 1326 1975 
Q 1069 1734 1069 1313 
Q 1069 891 1326 650 
Q 1584 409 2034 409 
Q 2484 409 2743 651 
Q 3003 894 3003 1313 
Q 3003 1734 2745 1975 
Q 2488 2216 2034 2216 
z
M 1403 2484 
Q 997 2584 770 2862 
Q 544 3141 544 3541 
Q 544 4100 942 4425 
Q 1341 4750 2034 4750 
Q 2731 4750 3128 4425 
Q 3525 4100 3525 3541 
Q 3525 3141 3298 2862 
Q 3072 2584 2669 2484 
Q 3125 2378 3379 2068 
Q 3634 1759 3634 1313 
Q 3634 634 3220 271 
Q 2806 -91 2034 -91 
Q 1263 -91 848 271 
Q 434 634 434 1313 
Q 434 1759 690 2068 
Q 947 2378 1403 2484 
z
M 1172 3481 
Q 1172 3119 1398 2916 
Q 1625 2713 2034 2713 
Q 2441 2713 2670 2916 
Q 2900 3119 2900 3481 
Q 2900 3844 2670 4047 
Q 2441 4250 2034 4250 
Q 1625 4250 1398 4047 
Q 1172 3844 1172 3481 
z
" transform="scale(0.015625)"/>
       </defs>
       <use xlink:href="#DejaVuSans-38"/>
       <use xlink:href="#DejaVuSans-30" x="63.623047"/>
       <use xlink:href="#DejaVuSans-30" x="127.246094"/>
      </g>
     </g>
    </g>
    <g id="xtick_6">
     <g id="line2d_6">
      <g>
       <use xlink:href="#ma32bd7a568" x="600.971144" y="308.63625" style="stroke: #000000; stroke-width: 0.8"/>
      </g>
     </g>
     <g id="text_6">
      <!-- 1000 -->
      <g transform="translate(575.521144 330.833125) scale(0.2 -0.2)">
       <defs>
        <path id="DejaVuSans-31" d="M 794 531 
L 1825 531 
L 1825 4091 
L 703 3866 
L 703 4441 
L 1819 4666 
L 2450 4666 
L 2450 531 
L 3481 531 
L 3481 0 
L 794 0 
L 794 531 
z
" transform="scale(0.015625)"/>
       </defs>
       <use xlink:href="#DejaVuSans-31"/>
       <use xlink:href="#DejaVuSans-30" x="63.623047"/>
       <use xlink:href="#DejaVuSans-30" x="127.246094"/>
       <use xlink:href="#DejaVuSans-30" x="190.869141"/>
      </g>
     </g>
    </g>
    <g id="text_7">
     <!-- iterations -->
     <g transform="translate(324.035938 354.189375) scale(0.2 -0.2)">
      <defs>
       <path id="DejaVuSans-69" d="M 603 3500 
L 1178 3500 
L 1178 0 
L 603 0 
L 603 3500 
z
M 603 4863 
L 1178 4863 
L 1178 4134 
L 603 4134 
L 603 4863 
z
" transform="scale(0.015625)"/>
       <path id="DejaVuSans-74" d="M 1172 4494 
L 1172 3500 
L 2356 3500 
L 2356 3053 
L 1172 3053 
L 1172 1153 
Q 1172 725 1289 603 
Q 1406 481 1766 481 
L 2356 481 
L 2356 0 
L 1766 0 
Q 1100 0 847 248 
Q 594 497 594 1153 
L 594 3053 
L 172 3053 
L 172 3500 
L 594 3500 
L 594 4494 
L 1172 4494 
z
" transform="scale(0.015625)"/>
       <path id="DejaVuSans-65" d="M 3597 1894 
L 3597 1613 
L 953 1613 
Q 991 1019 1311 708 
Q 1631 397 2203 397 
Q 2534 397 2845 478 
Q 3156 559 3463 722 
L 3463 178 
Q 3153 47 2828 -22 
Q 2503 -91 2169 -91 
Q 1331 -91 842 396 
Q 353 884 353 1716 
Q 353 2575 817 3079 
Q 1281 3584 2069 3584 
Q 2775 3584 3186 3129 
Q 3597 2675 3597 1894 
z
M 3022 2063 
Q 3016 2534 2758 2815 
Q 2500 3097 2075 3097 
Q 1594 3097 1305 2825 
Q 1016 2553 972 2059 
L 3022 2063 
z
" transform="scale(0.015625)"/>
       <path id="DejaVuSans-72" d="M 2631 2963 
Q 2534 3019 2420 3045 
Q 2306 3072 2169 3072 
Q 1681 3072 1420 2755 
Q 1159 2438 1159 1844 
L 1159 0 
L 581 0 
L 581 3500 
L 1159 3500 
L 1159 2956 
Q 1341 3275 1631 3429 
Q 1922 3584 2338 3584 
Q 2397 3584 2469 3576 
Q 2541 3569 2628 3553 
L 2631 2963 
z
" transform="scale(0.015625)"/>
       <path id="DejaVuSans-61" d="M 2194 1759 
Q 1497 1759 1228 1600 
Q 959 1441 959 1056 
Q 959 750 1161 570 
Q 1363 391 1709 391 
Q 2188 391 2477 730 
Q 2766 1069 2766 1631 
L 2766 1759 
L 2194 1759 
z
M 3341 1997 
L 3341 0 
L 2766 0 
L 2766 531 
Q 2569 213 2275 61 
Q 1981 -91 1556 -91 
Q 1019 -91 701 211 
Q 384 513 384 1019 
Q 384 1609 779 1909 
Q 1175 2209 1959 2209 
L 2766 2209 
L 2766 2266 
Q 2766 2663 2505 2880 
Q 2244 3097 1772 3097 
Q 1472 3097 1187 3025 
Q 903 2953 641 2809 
L 641 3341 
Q 956 3463 1253 3523 
Q 1550 3584 1831 3584 
Q 2591 3584 2966 3190 
Q 3341 2797 3341 1997 
z
" transform="scale(0.015625)"/>
       <path id="DejaVuSans-6f" d="M 1959 3097 
Q 1497 3097 1228 2736 
Q 959 2375 959 1747 
Q 959 1119 1226 758 
Q 1494 397 1959 397 
Q 2419 397 2687 759 
Q 2956 1122 2956 1747 
Q 2956 2369 2687 2733 
Q 2419 3097 1959 3097 
z
M 1959 3584 
Q 2709 3584 3137 3096 
Q 3566 2609 3566 1747 
Q 3566 888 3137 398 
Q 2709 -91 1959 -91 
Q 1206 -91 779 398 
Q 353 888 353 1747 
Q 353 2609 779 3096 
Q 1206 3584 1959 3584 
z
" transform="scale(0.015625)"/>
       <path id="DejaVuSans-6e" d="M 3513 2113 
L 3513 0 
L 2938 0 
L 2938 2094 
Q 2938 2591 2744 2837 
Q 2550 3084 2163 3084 
Q 1697 3084 1428 2787 
Q 1159 2491 1159 1978 
L 1159 0 
L 581 0 
L 581 3500 
L 1159 3500 
L 1159 2956 
Q 1366 3272 1645 3428 
Q 1925 3584 2291 3584 
Q 2894 3584 3203 3211 
Q 3513 2838 3513 2113 
z
" transform="scale(0.015625)"/>
       <path id="DejaVuSans-73" d="M 2834 3397 
L 2834 2853 
Q 2591 2978 2328 3040 
Q 2066 3103 1784 3103 
Q 1356 3103 1142 2972 
Q 928 2841 928 2578 
Q 928 2378 1081 2264 
Q 1234 2150 1697 2047 
L 1894 2003 
Q 2506 1872 2764 1633 
Q 3022 1394 3022 966 
Q 3022 478 2636 193 
Q 2250 -91 1575 -91 
Q 1294 -91 989 -36 
Q 684 19 347 128 
L 347 722 
Q 666 556 975 473 
Q 1284 391 1588 391 
Q 1994 391 2212 530 
Q 2431 669 2431 922 
Q 2431 1156 2273 1281 
Q 2116 1406 1581 1522 
L 1381 1569 
Q 847 1681 609 1914 
Q 372 2147 372 2553 
Q 372 3047 722 3315 
Q 1072 3584 1716 3584 
Q 2034 3584 2315 3537 
Q 2597 3491 2834 3397 
z
" transform="scale(0.015625)"/>
      </defs>
      <use xlink:href="#DejaVuSans-69"/>
      <use xlink:href="#DejaVuSans-74" x="27.783203"/>
      <use xlink:href="#DejaVuSans-65" x="66.992188"/>
      <use xlink:href="#DejaVuSans-72" x="128.515625"/>
      <use xlink:href="#DejaVuSans-61" x="169.628906"/>
      <use xlink:href="#DejaVuSans-74" x="230.908203"/>
      <use xlink:href="#DejaVuSans-69" x="270.117188"/>
      <use xlink:href="#DejaVuSans-6f" x="297.900391"/>
      <use xlink:href="#DejaVuSans-6e" x="359.082031"/>
      <use xlink:href="#DejaVuSans-73" x="422.460938"/>
     </g>
    </g>
   </g>
   <g id="matplotlib.axis_2">
    <g id="ytick_1">
     <g id="line2d_7">
      <defs>
       <path id="mff91631954" d="M 0 0 
L -3.5 0 
" style="stroke: #000000; stroke-width: 0.8"/>
      </defs>
      <g>
       <use xlink:href="#mff91631954" x="92.490625" y="279.562782" style="stroke: #000000; stroke-width: 0.8"/>
      </g>
     </g>
     <g id="text_8">
      <!-- −200 -->
      <g transform="translate(30.55625 287.16122) scale(0.2 -0.2)">
       <defs>
        <path id="DejaVuSans-2212" d="M 678 2272 
L 4684 2272 
L 4684 1741 
L 678 1741 
L 678 2272 
z
" transform="scale(0.015625)"/>
       </defs>
       <use xlink:href="#DejaVuSans-2212"/>
       <use xlink:href="#DejaVuSans-32" x="83.789062"/>
       <use xlink:href="#DejaVuSans-30" x="147.412109"/>
       <use xlink:href="#DejaVuSans-30" x="211.035156"/>
      </g>
     </g>
    </g>
    <g id="ytick_2">
     <g id="line2d_8">
      <g>
       <use xlink:href="#mff91631954" x="92.490625" y="229.718252" style="stroke: #000000; stroke-width: 0.8"/>
      </g>
     </g>
     <g id="text_9">
      <!-- −100 -->
      <g transform="translate(30.55625 237.316689) scale(0.2 -0.2)">
       <use xlink:href="#DejaVuSans-2212"/>
       <use xlink:href="#DejaVuSans-31" x="83.789062"/>
       <use xlink:href="#DejaVuSans-30" x="147.412109"/>
       <use xlink:href="#DejaVuSans-30" x="211.035156"/>
      </g>
     </g>
    </g>
    <g id="ytick_3">
     <g id="line2d_9">
      <g>
       <use xlink:href="#mff91631954" x="92.490625" y="179.873722" style="stroke: #000000; stroke-width: 0.8"/>
      </g>
     </g>
     <g id="text_10">
      <!-- 0 -->
      <g transform="translate(72.765625 187.472159) scale(0.2 -0.2)">
       <use xlink:href="#DejaVuSans-30"/>
      </g>
     </g>
    </g>
    <g id="ytick_4">
     <g id="line2d_10">
      <g>
       <use xlink:href="#mff91631954" x="92.490625" y="130.029191" style="stroke: #000000; stroke-width: 0.8"/>
      </g>
     </g>
     <g id="text_11">
      <!-- 100 -->
      <g transform="translate(47.315625 137.627629) scale(0.2 -0.2)">
       <use xlink:href="#DejaVuSans-31"/>
       <use xlink:href="#DejaVuSans-30" x="63.623047"/>
       <use xlink:href="#DejaVuSans-30" x="127.246094"/>
      </g>
     </g>
    </g>
    <g id="ytick_5">
     <g id="line2d_11">
      <g>
       <use xlink:href="#mff91631954" x="92.490625" y="80.184661" style="stroke: #000000; stroke-width: 0.8"/>
      </g>
     </g>
     <g id="text_12">
      <!-- 200 -->
      <g transform="translate(47.315625 87.783098) scale(0.2 -0.2)">
       <use xlink:href="#DejaVuSans-32"/>
       <use xlink:href="#DejaVuSans-30" x="63.623047"/>
       <use xlink:href="#DejaVuSans-30" x="127.246094"/>
      </g>
     </g>
    </g>
    <g id="text_13">
     <!-- Loss -->
     <g transform="translate(22.396875 191.970625) rotate(-90) scale(0.2 -0.2)">
      <defs>
       <path id="DejaVuSans-4c" d="M 628 4666 
L 1259 4666 
L 1259 531 
L 3531 531 
L 3531 0 
L 628 0 
L 628 4666 
z
" transform="scale(0.015625)"/>
      </defs>
      <use xlink:href="#DejaVuSans-4c"/>
      <use xlink:href="#DejaVuSans-6f" x="53.962891"/>
      <use xlink:href="#DejaVuSans-73" x="115.144531"/>
      <use xlink:href="#DejaVuSans-73" x="167.244141"/>
     </g>
    </g>
   </g>
   <g id="line2d_12">
    <path d="M 117.854261 124.531878 
L 118.337378 113.612244 
L 118.820495 120.519891 
L 119.303612 104.349251 
L 119.786729 82.758685 
L 120.269846 52.516894 
L 120.752963 44.03625 
L 121.23608 61.970005 
L 121.719196 47.184644 
L 122.68543 80.314335 
L 123.168547 92.451127 
L 123.651664 90.170035 
L 124.617898 102.578324 
L 125.101015 95.671232 
L 125.584131 100.331578 
L 126.067248 100.663401 
L 126.550365 98.525286 
L 127.033482 104.282319 
L 127.516599 116.142604 
L 127.999716 120.516331 
L 128.482833 130.835256 
L 129.449067 127.698731 
L 129.932183 125.168182 
L 130.4153 126.943921 
L 130.898417 124.005949 
L 131.864651 122.923807 
L 132.347768 123.257928 
L 132.830885 118.898656 
L 133.314002 119.56434 
L 133.797119 115.700499 
L 134.280235 117.745463 
L 134.763352 123.442567 
L 135.246469 123.774871 
L 135.729586 122.857969 
L 136.212703 122.302379 
L 136.69582 120.942223 
L 137.178937 119.124284 
L 137.662054 125.017556 
L 138.14517 133.214281 
L 138.628287 129.161825 
L 139.111404 123.543387 
L 139.594521 122.23231 
L 140.077638 123.023945 
L 140.560755 127.784878 
L 141.043872 121.940687 
L 141.526989 123.981988 
L 142.010106 127.193599 
L 142.493222 131.485114 
L 142.976339 128.917539 
L 143.459456 136.589669 
L 143.942573 136.567041 
L 144.42569 125.362361 
L 144.908807 126.824283 
L 145.391924 135.707324 
L 145.875041 137.326724 
L 146.358157 136.946144 
L 147.324391 141.297559 
L 147.807508 145.047706 
L 148.290625 145.805225 
L 148.773742 141.997796 
L 149.739976 139.025662 
L 150.223093 137.019952 
L 150.706209 138.139239 
L 151.189326 136.827967 
L 151.672443 138.508057 
L 152.15556 138.220575 
L 152.638677 138.101893 
L 153.121794 135.608969 
L 153.604911 141.338619 
L 154.571144 134.107495 
L 155.054261 138.24287 
L 155.537378 138.539082 
L 156.020495 134.882217 
L 156.503612 125.534589 
L 156.986729 130.92867 
L 157.469846 130.995844 
L 157.952963 129.896139 
L 158.43608 130.701701 
L 158.919196 134.78225 
L 159.402313 136.964739 
L 159.88543 139.833902 
L 160.368547 134.538663 
L 160.851664 132.112555 
L 161.334781 132.679362 
L 161.817898 137.227089 
L 162.301015 136.509092 
L 162.784131 134.164532 
L 163.267248 138.634416 
L 163.750365 137.086605 
L 164.233482 139.48127 
L 164.716599 140.847521 
L 165.199716 136.401101 
L 165.682833 136.610398 
L 166.16595 141.120117 
L 166.649067 141.657382 
L 167.132183 141.745369 
L 168.098417 145.930699 
L 168.581534 144.353858 
L 169.064651 147.068299 
L 170.030885 143.872919 
L 170.514002 144.823045 
L 170.997119 145.322043 
L 171.480235 149.160657 
L 171.963352 151.758086 
L 172.446469 147.409346 
L 172.929586 147.688363 
L 173.89582 143.905424 
L 174.378937 146.884967 
L 175.34517 147.688029 
L 175.828287 143.357887 
L 176.311404 140.161348 
L 176.794521 143.441326 
L 177.277638 141.701099 
L 177.760755 143.244373 
L 178.243872 141.485977 
L 178.726989 143.743617 
L 179.210106 141.752809 
L 179.693222 144.378451 
L 180.176339 145.924998 
L 181.142573 145.710239 
L 181.62569 146.822277 
L 182.108807 145.065893 
L 182.591924 142.812817 
L 183.075041 146.722669 
L 183.558157 142.762511 
L 184.041274 145.958757 
L 184.524391 145.805341 
L 185.007508 143.312113 
L 185.490625 144.758427 
L 185.973742 147.303361 
L 186.456859 146.89064 
L 186.939976 147.574506 
L 187.423093 148.59455 
L 188.389326 152.506974 
L 188.872443 150.388494 
L 189.35556 151.806019 
L 189.838677 150.902817 
L 190.321794 151.840849 
L 190.804911 149.806097 
L 191.288028 146.162209 
L 191.771144 148.368318 
L 192.254261 152.27345 
L 192.737378 151.466282 
L 193.220495 152.492185 
L 193.703612 150.095374 
L 194.186729 151.430663 
L 194.669846 152.38361 
L 195.152963 151.164398 
L 195.63608 152.661597 
L 196.119196 153.504509 
L 196.602313 153.070374 
L 197.08543 153.701229 
L 197.568547 155.076172 
L 198.051664 155.925178 
L 199.017898 153.860758 
L 199.501015 153.674296 
L 199.984131 153.035097 
L 200.467248 154.346622 
L 200.950365 153.598921 
L 201.433482 153.137666 
L 201.916599 153.719381 
L 202.399716 151.537183 
L 202.882833 152.382328 
L 203.36595 153.754748 
L 203.849067 152.730595 
L 204.332183 153.912518 
L 204.8153 155.763226 
L 205.298417 154.635505 
L 205.781534 156.375225 
L 206.264651 154.862806 
L 206.747768 157.097058 
L 207.230885 158.475495 
L 207.714002 159.246486 
L 208.197119 160.579032 
L 208.680235 160.177923 
L 209.163352 158.198611 
L 209.646469 157.632745 
L 210.129586 158.695304 
L 210.612703 158.058747 
L 212.062054 161.274453 
L 212.54517 161.049882 
L 213.028287 162.072976 
L 213.511404 162.780169 
L 213.994521 162.93181 
L 214.477638 162.909826 
L 214.960755 163.16357 
L 215.443872 163.590409 
L 216.410106 163.028633 
L 216.893222 164.160838 
L 217.376339 163.43676 
L 217.859456 163.598174 
L 218.342573 163.302926 
L 218.82569 163.467349 
L 219.308807 163.018195 
L 219.791924 164.735424 
L 220.275041 163.474858 
L 220.758157 161.245375 
L 221.241274 162.806307 
L 222.207508 163.762132 
L 222.690625 163.922568 
L 223.173742 162.747043 
L 223.656859 162.225773 
L 224.139976 162.846469 
L 224.623093 165.236295 
L 225.106209 163.231114 
L 225.589326 163.010536 
L 226.072443 163.003862 
L 226.55556 164.481228 
L 227.038677 164.159237 
L 227.521794 165.05063 
L 228.004911 167.617109 
L 228.488028 166.927606 
L 228.971144 166.829197 
L 229.454261 167.045429 
L 229.937378 167.040901 
L 230.420495 168.045201 
L 231.386729 166.198974 
L 231.869846 166.800597 
L 232.352963 168.759688 
L 232.83608 168.974249 
L 233.319196 166.434748 
L 233.802313 165.174013 
L 234.28543 167.03687 
L 235.251664 167.675998 
L 235.734781 167.355134 
L 236.217898 166.638156 
L 236.701015 167.116547 
L 237.184131 167.266925 
L 237.667248 168.14975 
L 238.150365 167.908898 
L 238.633482 168.146553 
L 239.116599 168.238457 
L 240.082833 167.240999 
L 240.56595 168.253029 
L 241.049067 166.399731 
L 241.532183 167.169623 
L 242.0153 166.210275 
L 242.498417 167.497068 
L 242.981534 165.698517 
L 243.947768 166.698603 
L 244.430885 166.841433 
L 244.914002 166.310281 
L 245.397119 165.479998 
L 245.880235 165.215218 
L 246.363352 165.668773 
L 246.846469 167.322442 
L 247.329586 165.913513 
L 247.812703 165.804076 
L 248.29582 165.367667 
L 248.778937 166.220259 
L 249.262054 166.206106 
L 249.74517 165.972338 
L 250.228287 166.913536 
L 250.711404 166.170453 
L 251.194521 165.912273 
L 251.677638 166.548458 
L 252.160755 165.862925 
L 252.643872 166.657325 
L 253.126989 167.181714 
L 253.610106 166.678216 
L 254.093222 166.675568 
L 254.576339 167.875845 
L 255.059456 168.366442 
L 255.542573 168.449603 
L 256.02569 168.998448 
L 256.508807 169.32032 
L 256.991924 167.9225 
L 257.475041 168.46892 
L 257.958157 168.843936 
L 258.441274 168.960531 
L 258.924391 168.782386 
L 259.407508 168.317253 
L 259.890625 169.688678 
L 260.373742 169.233972 
L 260.856859 169.06092 
L 261.823093 170.546879 
L 262.306209 170.171745 
L 262.789326 171.878035 
L 263.75556 171.137158 
L 264.238677 169.278403 
L 264.721794 169.725672 
L 265.204911 170.615596 
L 265.688028 169.496235 
L 266.171144 169.782768 
L 266.654261 169.890141 
L 267.137378 171.456883 
L 268.103612 170.001103 
L 268.586729 169.926751 
L 269.552963 171.37963 
L 270.03608 171.029107 
L 270.519196 171.124863 
L 271.002313 170.681482 
L 271.48543 170.87703 
L 271.968547 170.384301 
L 272.451664 170.986704 
L 272.934781 170.791971 
L 273.417898 169.625101 
L 273.901015 171.288955 
L 274.384131 170.927486 
L 274.867248 170.864856 
L 275.350365 171.211611 
L 275.833482 172.079021 
L 276.316599 171.845111 
L 276.799716 170.97074 
L 277.282833 171.625128 
L 277.76595 170.983582 
L 278.732183 171.02878 
L 279.2153 171.560573 
L 279.698417 172.322231 
L 280.181534 171.627739 
L 280.664651 171.467542 
L 281.147768 172.467587 
L 281.630885 171.02565 
L 282.114002 171.947077 
L 282.597119 171.483687 
L 283.080235 172.050066 
L 284.529586 169.947551 
L 285.012703 170.733685 
L 285.49582 170.584067 
L 285.978937 171.103421 
L 286.462054 171.348453 
L 286.94517 171.120201 
L 287.428287 170.558887 
L 287.911404 170.210684 
L 288.394521 170.789454 
L 288.877638 170.980313 
L 289.360755 172.211916 
L 289.843872 171.753866 
L 290.326989 172.058202 
L 290.810106 170.710387 
L 291.293222 171.610416 
L 291.776339 171.04566 
L 292.259456 170.275572 
L 292.742573 170.921107 
L 293.22569 170.142906 
L 293.708807 171.335557 
L 294.191924 170.05853 
L 294.675041 170.093304 
L 295.158157 170.469731 
L 295.641274 171.273628 
L 296.124391 171.728208 
L 296.607508 171.723017 
L 297.090625 170.898618 
L 298.056859 171.377761 
L 298.539976 171.45996 
L 299.023093 170.901117 
L 299.506209 169.754796 
L 300.95556 171.283549 
L 301.438677 170.797232 
L 301.921794 171.524636 
L 302.404911 171.480676 
L 302.888028 171.125477 
L 304.337378 171.450506 
L 304.820495 170.746657 
L 305.303612 171.893811 
L 306.269846 169.705521 
L 306.752963 169.357828 
L 307.23608 169.628308 
L 307.719196 170.894575 
L 308.202313 171.221226 
L 308.68543 171.32752 
L 309.168547 171.762098 
L 309.651664 171.419549 
L 310.134781 171.510481 
L 310.617898 170.604535 
L 311.101015 172.064219 
L 311.584131 172.504472 
L 312.067248 171.730852 
L 312.550365 171.717936 
L 313.033482 171.126913 
L 313.516599 171.028055 
L 313.999716 171.81357 
L 314.482833 171.842793 
L 314.96595 171.260918 
L 315.449067 171.661503 
L 315.932183 171.18838 
L 317.381534 171.680532 
L 317.864651 172.343042 
L 318.347768 170.773445 
L 318.830885 171.850861 
L 319.314002 171.335879 
L 319.797119 171.470768 
L 320.280235 171.404438 
L 320.763352 170.42896 
L 321.246469 170.751651 
L 321.729586 170.623119 
L 322.212703 171.204737 
L 322.69582 169.869313 
L 323.178937 169.636724 
L 324.14517 170.828434 
L 324.628287 170.552112 
L 325.111404 170.519111 
L 325.594521 170.941655 
L 326.077638 169.718798 
L 326.560755 169.862972 
L 327.043872 170.788851 
L 327.526989 169.308966 
L 328.010106 168.405074 
L 328.493222 169.592541 
L 329.459456 168.929275 
L 329.942573 168.277422 
L 330.42569 168.303997 
L 330.908807 169.014105 
L 331.391924 169.461484 
L 332.358157 168.954341 
L 332.841274 167.445263 
L 333.324391 168.252356 
L 333.807508 168.568639 
L 334.290625 168.729843 
L 334.773742 169.043828 
L 335.256859 170.208008 
L 335.739976 169.180695 
L 336.223093 168.673338 
L 336.706209 168.707785 
L 337.189326 169.243154 
L 337.672443 169.377209 
L 338.15556 168.851158 
L 338.638677 166.81334 
L 339.121794 168.761281 
L 339.604911 168.000392 
L 340.088028 167.564612 
L 341.054261 168.156309 
L 341.537378 168.13164 
L 342.020495 168.675291 
L 342.503612 168.119421 
L 342.986729 168.305333 
L 343.469846 167.535693 
L 343.952963 169.078896 
L 344.43608 168.406488 
L 344.919196 169.281049 
L 345.402313 168.148249 
L 345.88543 168.593674 
L 346.368547 168.732842 
L 346.851664 168.470857 
L 347.334781 169.372396 
L 347.817898 169.29299 
L 348.784131 167.88763 
L 349.267248 167.936869 
L 349.750365 168.913264 
L 350.233482 167.685689 
L 351.199716 168.452807 
L 351.682833 168.225701 
L 352.16595 170.2633 
L 352.649067 169.857828 
L 353.132183 168.55073 
L 353.6153 168.94689 
L 354.581534 167.836903 
L 355.064651 168.529338 
L 355.547768 168.526433 
L 356.030885 168.242491 
L 356.514002 168.845629 
L 356.997119 168.793187 
L 357.480235 169.295145 
L 357.963352 168.568328 
L 358.446469 169.156795 
L 358.929586 168.842294 
L 359.412703 169.404308 
L 359.89582 168.600934 
L 360.378937 169.158425 
L 360.862054 169.261816 
L 361.34517 169.167373 
L 361.828287 168.318719 
L 362.311404 168.55359 
L 362.794521 169.043764 
L 363.277638 169.344485 
L 363.760755 168.986347 
L 364.243872 169.062865 
L 364.726989 167.845035 
L 365.210106 168.951697 
L 366.176339 166.987109 
L 367.142573 168.536455 
L 367.62569 167.813438 
L 369.075041 168.653876 
L 369.558157 169.890846 
L 370.041274 168.602198 
L 370.524391 168.122958 
L 371.007508 166.912785 
L 371.490625 168.156099 
L 371.973742 167.661884 
L 372.456859 169.488083 
L 372.939976 169.485607 
L 374.389326 168.073372 
L 374.872443 169.155096 
L 375.35556 167.873866 
L 375.838677 168.345896 
L 376.321794 168.076867 
L 376.804911 169.271937 
L 378.254261 165.679123 
L 378.737378 166.576745 
L 379.220495 167.755652 
L 379.703612 168.312368 
L 380.186729 167.853324 
L 380.669846 168.205852 
L 381.152963 167.419576 
L 381.63608 167.036538 
L 382.119196 168.70488 
L 383.08543 167.08679 
L 383.568547 166.654306 
L 384.051664 167.786472 
L 384.534781 167.416425 
L 385.017898 168.569706 
L 385.501015 168.490675 
L 385.984131 169.154549 
L 386.467248 167.278725 
L 386.950365 168.560299 
L 387.433482 168.787789 
L 387.916599 167.280913 
L 388.399716 167.403509 
L 388.882833 166.122042 
L 389.36595 167.890703 
L 389.849067 166.99708 
L 390.332183 168.252917 
L 390.8153 166.923159 
L 391.298417 167.016084 
L 391.781534 167.241264 
L 392.747768 167.045006 
L 393.230885 166.305466 
L 393.714002 165.975857 
L 394.197119 167.000925 
L 394.680235 166.83386 
L 395.163352 167.60513 
L 395.646469 167.629385 
L 396.129586 167.287727 
L 396.612703 167.104138 
L 397.09582 166.397981 
L 397.578937 167.148153 
L 398.062054 166.744054 
L 398.54517 165.842051 
L 399.028287 165.51877 
L 399.511404 166.309628 
L 399.994521 165.740703 
L 400.477638 166.816051 
L 400.960755 166.165061 
L 401.443872 165.723097 
L 401.926989 166.108493 
L 402.893222 165.4902 
L 403.859456 166.795149 
L 404.342573 166.654096 
L 405.308807 167.621033 
L 405.791924 166.864147 
L 406.275041 167.267206 
L 406.758157 168.778092 
L 407.241274 169.05499 
L 407.724391 168.761897 
L 408.207508 168.71093 
L 408.690625 167.742667 
L 409.656859 169.264613 
L 410.139976 167.432988 
L 410.623093 168.344806 
L 411.106209 168.502555 
L 411.589326 169.430815 
L 412.072443 169.685325 
L 412.55556 168.870997 
L 413.038677 169.484155 
L 414.004911 169.27929 
L 414.488028 168.891965 
L 415.937378 170.281456 
L 416.420495 169.650673 
L 416.903612 169.556229 
L 417.386729 169.332334 
L 417.869846 169.753204 
L 418.352963 169.245746 
L 418.83608 169.301257 
L 419.319196 168.308343 
L 419.802313 168.719347 
L 420.28543 169.428888 
L 420.768547 170.479059 
L 421.251664 169.745954 
L 421.734781 170.42337 
L 422.701015 170.868408 
L 423.184131 170.270927 
L 423.667248 169.303986 
L 424.150365 170.119499 
L 424.633482 169.767772 
L 425.116599 169.857879 
L 425.599716 169.586723 
L 426.082833 169.716683 
L 426.56595 171.181534 
L 427.049067 170.772517 
L 427.532183 171.187108 
L 428.0153 170.514292 
L 428.498417 170.129486 
L 428.981534 170.984094 
L 429.464651 171.01828 
L 429.947768 171.330471 
L 430.430885 170.098185 
L 430.914002 171.20177 
L 431.397119 170.094581 
L 431.880235 170.641587 
L 432.363352 170.954885 
L 432.846469 170.937869 
L 433.329586 171.877335 
L 433.812703 171.940686 
L 434.29582 171.802314 
L 434.778937 170.553515 
L 435.262054 170.961193 
L 435.74517 170.871702 
L 436.228287 171.781641 
L 436.711404 171.652601 
L 437.677638 169.934908 
L 438.160755 169.855105 
L 438.643872 169.93931 
L 439.126989 170.289627 
L 439.610106 171.688032 
L 440.093222 171.08577 
L 440.576339 171.519824 
L 441.059456 171.452305 
L 441.542573 170.690751 
L 442.02569 170.4779 
L 442.508807 170.686815 
L 442.991924 171.598358 
L 443.475041 171.429171 
L 443.958157 170.468689 
L 444.441274 170.552143 
L 444.924391 171.170605 
L 445.407508 171.076991 
L 445.890625 170.857447 
L 446.373742 172.026858 
L 446.856859 171.897187 
L 447.339976 172.552691 
L 447.823093 172.187376 
L 448.306209 172.119924 
L 448.789326 172.812751 
L 449.272443 172.431816 
L 449.75556 171.504635 
L 450.238677 171.078927 
L 450.721794 172.052269 
L 451.204911 172.01934 
L 451.688028 171.139247 
L 452.171144 171.456836 
L 452.654261 172.361364 
L 453.137378 171.736331 
L 453.620495 172.752857 
L 454.103612 172.572182 
L 454.586729 171.777554 
L 455.069846 171.812087 
L 455.552963 172.632344 
L 456.03608 173.098525 
L 456.519196 172.871148 
L 457.002313 171.911924 
L 457.48543 172.195097 
L 457.968547 172.633227 
L 458.451664 172.795828 
L 458.934781 172.498574 
L 459.417898 172.657809 
L 459.901015 172.305638 
L 460.384131 173.087526 
L 460.867248 172.752212 
L 461.350365 171.853783 
L 461.833482 172.249377 
L 462.316599 173.237597 
L 462.799716 172.465509 
L 463.282833 172.943736 
L 463.76595 172.53879 
L 464.249067 172.308294 
L 464.732183 172.475761 
L 465.2153 172.805779 
L 465.698417 173.509988 
L 466.181534 173.535105 
L 466.664651 172.965856 
L 467.147768 173.195651 
L 467.630885 173.028642 
L 468.114002 173.17028 
L 468.597119 173.69358 
L 469.080235 173.695534 
L 469.563352 173.025585 
L 470.046469 173.163722 
L 470.529586 172.773572 
L 471.012703 172.143886 
L 471.49582 172.728104 
L 472.462054 173.301175 
L 472.94517 173.212307 
L 473.428287 173.473794 
L 473.911404 173.354617 
L 474.394521 172.340577 
L 475.843872 173.545899 
L 476.326989 173.717131 
L 478.259456 172.846439 
L 478.742573 172.830841 
L 479.708807 173.914986 
L 480.191924 173.328633 
L 480.675041 173.220606 
L 481.158157 172.633549 
L 482.124391 172.524903 
L 482.607508 172.899515 
L 483.090625 172.995464 
L 483.573742 173.52655 
L 484.056859 172.911105 
L 485.023093 173.067123 
L 485.506209 172.580127 
L 485.989326 173.506689 
L 486.472443 173.224257 
L 487.438677 173.550066 
L 487.921794 173.870253 
L 488.404911 173.463889 
L 488.888028 173.309775 
L 489.371144 174.370365 
L 489.854261 174.641543 
L 490.337378 173.336782 
L 490.820495 174.511969 
L 491.303612 174.789815 
L 491.786729 174.779389 
L 492.269846 174.237352 
L 492.752963 174.548939 
L 493.23608 174.300293 
L 493.719196 174.250603 
L 494.202313 174.571552 
L 494.68543 174.630708 
L 495.168547 174.100518 
L 495.651664 174.358606 
L 496.134781 173.547171 
L 497.584131 174.726061 
L 498.067248 174.763368 
L 498.550365 174.404266 
L 499.033482 173.868562 
L 499.516599 174.002336 
L 499.999716 174.499336 
L 500.482833 174.761793 
L 500.96595 174.237576 
L 501.449067 173.960542 
L 501.932183 174.456797 
L 502.4153 174.608312 
L 502.898417 173.651449 
L 503.381534 174.262652 
L 503.864651 173.571319 
L 504.347768 173.445559 
L 504.830885 174.284243 
L 505.314002 174.647367 
L 505.797119 174.143819 
L 506.280235 175.098752 
L 506.763352 174.592985 
L 507.246469 174.67441 
L 507.729586 173.986843 
L 508.212703 174.89315 
L 508.69582 175.040789 
L 509.178937 174.521271 
L 509.662054 174.31169 
L 510.14517 174.409975 
L 510.628287 174.844725 
L 511.111404 174.091942 
L 511.594521 174.054085 
L 512.077638 175.056739 
L 512.560755 175.179453 
L 513.043872 174.76291 
L 513.526989 175.188881 
L 514.010106 174.606071 
L 514.493222 174.643741 
L 514.976339 175.360247 
L 515.459456 174.345135 
L 515.942573 174.196209 
L 516.42569 174.545014 
L 516.908807 174.055634 
L 517.391924 174.603814 
L 517.875041 174.591183 
L 518.358157 174.85815 
L 518.841274 175.470077 
L 520.290625 174.592355 
L 520.773742 175.085638 
L 522.223093 175.479677 
L 523.189326 174.720709 
L 523.672443 175.256771 
L 524.15556 174.918766 
L 524.638677 175.417736 
L 525.121794 174.536108 
L 525.604911 174.684633 
L 526.088028 174.961427 
L 526.571144 174.675325 
L 527.054261 174.602429 
L 527.537378 174.976565 
L 528.020495 175.109405 
L 528.503612 175.082062 
L 528.986729 175.327841 
L 529.469846 175.332892 
L 529.952963 175.704394 
L 530.43608 175.749832 
L 530.919196 176.00514 
L 531.88543 175.331336 
L 532.368547 175.820725 
L 532.851664 175.670553 
L 533.334781 176.437552 
L 533.817898 176.022944 
L 534.301015 175.79007 
L 534.784131 175.892828 
L 535.267248 176.684125 
L 535.750365 176.529924 
L 536.233482 176.862434 
L 536.716599 176.827581 
L 537.682833 176.121104 
L 538.16595 176.371403 
L 538.649067 176.282667 
L 539.132183 176.55121 
L 539.6153 175.998972 
L 540.098417 176.438404 
L 540.581534 176.232709 
L 542.997119 176.191065 
L 543.963352 176.740455 
L 544.446469 176.851348 
L 544.929586 176.071476 
L 545.412703 176.531128 
L 545.89582 176.313304 
L 546.378937 176.241809 
L 546.862054 176.342322 
L 547.34517 176.154964 
L 547.828287 176.730567 
L 548.794521 176.218591 
L 549.277638 175.822586 
L 549.760755 176.737825 
L 550.726989 176.679438 
L 551.210106 176.37128 
L 551.693222 176.406383 
L 552.176339 176.716217 
L 552.659456 176.815412 
L 553.142573 177.092024 
L 553.62569 177.029247 
L 554.108807 176.541315 
L 554.591924 176.447746 
L 555.075041 177.045527 
L 556.041274 176.949279 
L 556.524391 177.623724 
L 557.007508 177.333461 
L 557.490625 177.417731 
L 557.973742 177.706311 
L 558.456859 177.852056 
L 558.939976 177.331983 
L 559.423093 177.404682 
L 559.906209 177.087448 
L 560.389326 177.158187 
L 560.872443 177.398378 
L 561.35556 177.790668 
L 561.838677 177.673758 
L 562.321794 177.360908 
L 562.804911 177.671818 
L 563.288028 177.4662 
L 563.771144 177.428796 
L 564.254261 177.569326 
L 564.737378 177.546279 
L 565.220495 177.915382 
L 565.703612 177.810681 
L 566.669846 178.110901 
L 567.152963 178.166555 
L 567.63608 178.094477 
L 568.119196 178.494665 
L 568.602313 178.181803 
L 569.08543 178.777438 
L 569.568547 178.034988 
L 570.534781 178.678885 
L 571.017898 178.273268 
L 571.501015 178.558078 
L 571.984131 178.645732 
L 572.467248 178.979903 
L 572.950365 178.604421 
L 573.433482 178.72779 
L 573.916599 179.086753 
L 574.399716 179.201082 
L 574.882833 179.159582 
L 575.36595 179.666424 
L 575.849067 178.766806 
L 576.332183 178.962582 
L 576.8153 179.279921 
L 577.298417 179.450476 
L 577.781534 178.899028 
L 578.264651 178.941914 
L 578.747768 178.499958 
L 579.230885 178.50986 
L 579.714002 178.949115 
L 581.163352 178.963947 
L 581.646469 179.468592 
L 582.129586 178.957596 
L 582.612703 179.146655 
L 583.09582 179.543453 
L 583.578937 179.427571 
L 584.062054 179.127683 
L 584.54517 179.518266 
L 585.028287 179.204089 
L 585.511404 179.222719 
L 585.994521 178.98623 
L 586.960755 179.874376 
L 587.443872 179.517771 
L 588.410106 179.686319 
L 588.893222 179.129207 
L 589.376339 179.487302 
L 589.859456 179.333922 
L 590.342573 179.358981 
L 590.82569 179.26307 
L 591.308807 179.425154 
L 591.791924 179.749735 
L 593.241274 179.776525 
L 594.207508 179.344682 
L 594.690625 179.001729 
L 595.173742 179.286516 
L 595.656859 179.275482 
L 596.139976 179.092813 
L 596.623093 179.571052 
L 597.106209 179.884484 
L 597.589326 179.531372 
L 598.55556 179.715287 
L 599.038677 180.303038 
L 599.521794 179.626734 
L 600.004911 179.711593 
L 600.488028 180.147627 
L 600.971144 179.670431 
L 601.454261 179.744088 
L 601.937378 179.947498 
L 602.903612 179.938698 
L 603.386729 180.335198 
L 603.869846 179.565856 
L 604.352963 179.855395 
L 604.83608 179.740909 
L 606.28543 179.74427 
L 606.768547 179.931039 
L 607.251664 179.520946 
L 607.734781 180.09352 
L 608.217898 180.325481 
L 608.701015 180.140308 
L 609.184131 180.371481 
L 609.667248 179.869368 
L 610.150365 179.963973 
L 610.633482 179.778552 
L 611.116599 180.202878 
L 611.599716 179.514326 
L 612.082833 179.482513 
L 612.56595 180.026128 
L 613.049067 179.427368 
L 613.532183 180.162905 
L 614.0153 180.306756 
L 614.498417 180.214288 
L 614.981534 180.380419 
L 615.947768 180.086379 
L 616.430885 180.226138 
L 616.914002 180.13434 
L 617.397119 180.485126 
L 617.880235 179.700224 
L 618.363352 180.485923 
L 618.846469 180.18604 
L 619.329586 180.300664 
L 619.812703 179.763172 
L 620.29582 180.343231 
L 620.778937 180.165772 
L 621.262054 179.744616 
L 621.74517 179.91302 
L 622.228287 180.310773 
L 622.711404 180.22706 
L 623.194521 179.954252 
L 623.677638 180.26877 
L 625.126989 179.54126 
L 625.126989 179.54126 
" clip-path="url(#p407d3d3830)" style="fill: none; stroke: #1f77b4; stroke-width: 1.5; stroke-linecap: square"/>
   </g>
   <g id="line2d_13">
    <path d="M 117.854261 296.03625 
L 118.337378 293.670519 
L 118.820495 246.011862 
L 119.303612 269.986081 
L 119.786729 278.80496 
L 120.269846 248.797222 
L 120.752963 230.620247 
L 121.23608 249.231156 
L 121.719196 223.688053 
L 122.202313 220.004876 
L 122.68543 208.447941 
L 123.168547 211.42837 
L 123.651664 210.881812 
L 124.134781 207.172589 
L 124.617898 205.397716 
L 125.101015 204.796222 
L 125.584131 201.902029 
L 126.067248 204.825475 
L 126.550365 199.039532 
L 127.033482 198.542908 
L 127.516599 192.649877 
L 127.999716 193.698227 
L 128.482833 192.006893 
L 128.96595 194.531603 
L 129.449067 193.321072 
L 129.932183 195.950344 
L 130.4153 197.127018 
L 130.898417 197.851664 
L 131.381534 197.33166 
L 131.864651 192.321801 
L 132.347768 190.967719 
L 132.830885 193.33488 
L 133.314002 192.207896 
L 134.280235 192.261632 
L 134.763352 189.654198 
L 135.246469 190.520908 
L 136.212703 191.552946 
L 136.69582 192.103944 
L 137.178937 192.268471 
L 137.662054 189.139459 
L 138.14517 187.000513 
L 138.628287 188.560084 
L 139.111404 190.703189 
L 139.594521 191.730823 
L 140.077638 190.152641 
L 140.560755 189.313256 
L 141.043872 190.141136 
L 141.526989 189.859756 
L 142.010106 189.199789 
L 142.493222 188.181538 
L 142.976339 189.724939 
L 143.459456 185.408925 
L 143.942573 186.78425 
L 144.42569 189.527407 
L 144.908807 190.100574 
L 145.391924 186.043988 
L 145.875041 188.646009 
L 146.358157 187.302461 
L 146.841274 187.322897 
L 147.324391 188.79512 
L 147.807508 187.482793 
L 148.290625 184.947255 
L 148.773742 187.693612 
L 149.256859 186.691977 
L 149.739976 188.118964 
L 150.223093 188.999593 
L 151.189326 186.831658 
L 151.672443 188.620825 
L 152.15556 188.360617 
L 152.638677 188.945293 
L 153.121794 187.132025 
L 153.604911 186.201876 
L 154.088028 188.283568 
L 155.054261 187.196792 
L 155.537378 186.938449 
L 156.020495 187.869209 
L 156.503612 189.448849 
L 156.986729 186.718774 
L 157.469846 187.926137 
L 157.952963 188.029027 
L 158.43608 190.577963 
L 158.919196 188.203017 
L 159.402313 187.138785 
L 159.88543 187.142223 
L 160.368547 186.650825 
L 160.851664 187.646986 
L 161.334781 189.119807 
L 161.817898 187.357287 
L 162.784131 186.780915 
L 163.750365 187.368904 
L 164.716599 186.468459 
L 165.199716 186.8359 
L 165.682833 186.971379 
L 166.16595 186.899701 
L 166.649067 185.093429 
L 167.6153 187.794619 
L 168.098417 185.873828 
L 168.581534 187.042895 
L 169.064651 187.159686 
L 169.547768 186.253183 
L 170.030885 188.14548 
L 170.514002 186.173962 
L 170.997119 185.537409 
L 171.480235 184.507913 
L 171.963352 185.289264 
L 172.446469 185.491353 
L 173.412703 185.50605 
L 173.89582 186.706911 
L 175.34517 186.282175 
L 175.828287 187.690941 
L 176.311404 187.862135 
L 176.794521 187.247781 
L 177.277638 187.676233 
L 177.760755 187.559511 
L 178.243872 186.670892 
L 178.726989 186.806549 
L 179.210106 187.357622 
L 179.693222 185.867307 
L 180.176339 187.427715 
L 180.659456 187.569171 
L 181.142573 186.07568 
L 181.62569 187.16852 
L 182.108807 186.5731 
L 183.075041 187.488045 
L 183.558157 188.414262 
L 184.041274 186.39198 
L 184.524391 186.976814 
L 185.007508 187.007496 
L 185.490625 187.455282 
L 185.973742 187.062753 
L 186.456859 187.688059 
L 186.939976 188.913983 
L 187.423093 187.573495 
L 188.389326 187.191744 
L 188.872443 188.389262 
L 189.35556 187.798525 
L 189.838677 188.176457 
L 190.321794 187.385669 
L 190.804911 187.75249 
L 191.288028 188.699782 
L 191.771144 187.992732 
L 192.737378 187.416289 
L 193.220495 187.418395 
L 193.703612 188.303428 
L 194.186729 188.623496 
L 194.669846 187.288899 
L 195.152963 187.427393 
L 195.63608 186.829265 
L 197.08543 187.035494 
L 197.568547 187.28354 
L 198.051664 186.891307 
L 198.534781 186.72 
L 199.017898 188.287451 
L 199.501015 187.859376 
L 199.984131 187.743438 
L 200.467248 188.356273 
L 200.950365 188.02346 
L 201.433482 188.876462 
L 201.916599 188.073269 
L 202.399716 188.013018 
L 202.882833 188.164853 
L 203.849067 188.680438 
L 204.332183 188.271192 
L 204.8153 187.5247 
L 205.298417 188.341547 
L 205.781534 188.324353 
L 206.264651 189.009177 
L 206.747768 188.05667 
L 207.230885 188.160156 
L 208.197119 187.39402 
L 208.680235 188.24029 
L 209.163352 188.117727 
L 209.646469 188.362317 
L 210.612703 187.579802 
L 211.09582 188.523492 
L 211.578937 187.779426 
L 212.062054 188.004608 
L 212.54517 188.050907 
L 213.028287 187.705057 
L 213.994521 188.714194 
L 214.477638 188.091426 
L 214.960755 188.294446 
L 215.443872 188.372829 
L 215.926989 187.862224 
L 216.893222 189.328308 
L 217.376339 188.385363 
L 217.859456 188.20942 
L 218.342573 187.831949 
L 218.82569 189.396933 
L 219.308807 188.005285 
L 219.791924 188.784901 
L 220.275041 187.040929 
L 220.758157 188.521028 
L 221.241274 188.971472 
L 221.724391 189.738808 
L 222.207508 189.229262 
L 222.690625 189.357389 
L 223.173742 188.446275 
L 223.656859 187.861986 
L 224.139976 189.002622 
L 224.623093 188.464863 
L 225.106209 188.759545 
L 225.589326 188.493274 
L 226.55556 187.552388 
L 227.038677 188.515434 
L 227.521794 187.482559 
L 228.004911 188.208671 
L 228.488028 188.294128 
L 228.971144 188.216891 
L 229.454261 187.922589 
L 229.937378 188.012822 
L 230.420495 187.853364 
L 230.903612 187.512304 
L 231.869846 188.52519 
L 232.352963 188.286137 
L 232.83608 188.223808 
L 233.319196 188.930585 
L 233.802313 188.287846 
L 234.28543 187.929877 
L 234.768547 188.750086 
L 235.251664 188.931987 
L 235.734781 188.828422 
L 236.217898 187.992121 
L 237.184131 188.912342 
L 238.150365 188.581938 
L 238.633482 188.857937 
L 239.116599 188.733222 
L 239.599716 188.460897 
L 240.56595 189.477394 
L 241.049067 189.028242 
L 241.532183 189.131799 
L 242.0153 188.861658 
L 242.498417 189.526858 
L 242.981534 189.535713 
L 243.947768 188.843236 
L 244.430885 188.902469 
L 244.914002 188.297058 
L 245.397119 189.54924 
L 245.880235 188.985136 
L 247.329586 189.774629 
L 247.812703 189.788429 
L 248.778937 189.519565 
L 249.262054 190.233118 
L 249.74517 189.702311 
L 250.228287 189.514199 
L 250.711404 190.08353 
L 251.194521 190.008336 
L 251.677638 189.565447 
L 252.160755 189.583096 
L 252.643872 190.037254 
L 253.126989 189.91953 
L 254.093222 190.246258 
L 254.576339 188.569576 
L 255.059456 189.174707 
L 255.542573 189.990945 
L 256.02569 189.358044 
L 256.508807 189.515732 
L 256.991924 190.11674 
L 257.475041 190.121262 
L 257.958157 190.574514 
L 258.441274 190.013054 
L 259.407508 190.082704 
L 260.373742 189.159987 
L 260.856859 189.122912 
L 261.339976 190.043139 
L 261.823093 189.066995 
L 262.306209 189.494748 
L 262.789326 189.70741 
L 263.272443 189.284489 
L 263.75556 188.605509 
L 264.238677 188.988014 
L 264.721794 188.617698 
L 265.204911 189.643596 
L 265.688028 189.470632 
L 266.171144 188.767958 
L 267.137378 188.195484 
L 267.620495 189.182142 
L 268.103612 189.285755 
L 268.586729 188.604241 
L 269.069846 188.630051 
L 270.03608 189.001234 
L 270.519196 188.555197 
L 271.002313 188.711234 
L 271.48543 188.331132 
L 271.968547 188.216426 
L 272.451664 188.946966 
L 272.934781 188.868593 
L 273.417898 186.61303 
L 273.901015 187.3314 
L 274.384131 187.278921 
L 274.867248 188.626443 
L 275.350365 188.356777 
L 275.833482 188.236927 
L 276.316599 189.014136 
L 276.799716 188.35781 
L 277.282833 188.732627 
L 277.76595 188.594183 
L 278.732183 187.977919 
L 279.2153 188.852699 
L 279.698417 188.838792 
L 280.181534 188.572765 
L 280.664651 187.58102 
L 281.147768 188.035673 
L 281.630885 188.068834 
L 282.114002 188.700876 
L 282.597119 188.052588 
L 283.080235 188.169167 
L 283.563352 188.687222 
L 284.046469 187.943018 
L 284.529586 188.021358 
L 285.012703 188.77915 
L 285.49582 187.496709 
L 285.978937 188.089395 
L 286.462054 188.053076 
L 286.94517 188.150853 
L 288.394521 187.922646 
L 288.877638 186.703195 
L 289.360755 187.536367 
L 289.843872 188.008924 
L 290.810106 187.626979 
L 291.293222 187.479456 
L 291.776339 187.854597 
L 292.259456 188.015779 
L 293.22569 187.371093 
L 294.191924 187.613359 
L 294.675041 187.426125 
L 295.158157 187.772992 
L 296.607508 187.031821 
L 297.090625 187.559654 
L 297.573742 187.190519 
L 298.056859 187.5633 
L 298.539976 187.427299 
L 299.023093 187.129459 
L 299.989326 187.940556 
L 300.472443 187.680124 
L 300.95556 187.68277 
L 301.438677 187.422893 
L 301.921794 187.429192 
L 302.404911 187.247293 
L 302.888028 187.229189 
L 303.371144 187.632436 
L 303.854261 187.059433 
L 304.337378 186.9121 
L 304.820495 187.470026 
L 305.303612 186.911189 
L 305.786729 186.861304 
L 306.752963 188.172784 
L 307.23608 188.13753 
L 307.719196 186.583549 
L 308.202313 186.979654 
L 308.68543 187.521703 
L 309.168547 186.950001 
L 309.651664 187.320842 
L 310.134781 187.351116 
L 310.617898 187.18988 
L 311.101015 187.486731 
L 311.584131 187.064197 
L 312.067248 188.068991 
L 312.550365 187.438666 
L 313.033482 187.525588 
L 313.516599 187.213787 
L 313.999716 187.064928 
L 314.482833 187.534254 
L 314.96595 186.999843 
L 315.449067 186.926129 
L 316.4153 187.337595 
L 316.898417 187.268334 
L 317.381534 187.325297 
L 318.347768 188.006475 
L 318.830885 187.257402 
L 319.314002 187.061195 
L 319.797119 187.293884 
L 320.280235 187.793211 
L 320.763352 187.372868 
L 321.246469 187.207817 
L 321.729586 187.337196 
L 322.212703 187.697688 
L 322.69582 187.695944 
L 323.178937 187.416677 
L 323.662054 187.27155 
L 324.14517 187.498069 
L 324.628287 186.499071 
L 325.111404 187.45085 
L 325.594521 187.487471 
L 326.560755 187.079629 
L 327.043872 187.896338 
L 327.526989 188.090981 
L 328.010106 187.424129 
L 328.493222 187.19887 
L 328.976339 187.659776 
L 329.459456 187.411044 
L 329.942573 188.069676 
L 330.908807 187.84988 
L 331.391924 187.070756 
L 331.875041 187.950427 
L 332.841274 187.633012 
L 333.324391 188.045176 
L 333.807508 187.762842 
L 334.290625 188.078089 
L 334.773742 187.860503 
L 335.256859 187.220608 
L 335.739976 187.392386 
L 336.706209 187.36011 
L 337.189326 187.501666 
L 337.672443 187.962535 
L 338.15556 188.130643 
L 338.638677 187.961241 
L 339.121794 188.060456 
L 339.604911 187.395321 
L 340.088028 188.152944 
L 341.054261 187.777553 
L 341.537378 188.221934 
L 342.020495 188.327467 
L 342.503612 187.334414 
L 342.986729 187.575282 
L 343.469846 187.386209 
L 343.952963 187.621626 
L 344.919196 187.691807 
L 345.402313 187.598309 
L 345.88543 187.866171 
L 346.368547 188.502235 
L 346.851664 187.314569 
L 347.334781 187.493962 
L 347.817898 187.450727 
L 348.301015 187.814029 
L 348.784131 187.417195 
L 349.267248 187.974649 
L 350.233482 187.508638 
L 350.716599 187.346572 
L 351.199716 187.041069 
L 351.682833 187.641585 
L 352.16595 186.948475 
L 353.6153 187.407369 
L 354.098417 187.783451 
L 354.581534 186.782889 
L 355.064651 186.524814 
L 355.547768 187.174069 
L 356.030885 186.954514 
L 356.997119 187.170452 
L 357.480235 186.948924 
L 357.963352 187.357923 
L 358.446469 186.64722 
L 358.929586 186.591312 
L 359.412703 187.170567 
L 359.89582 186.922178 
L 360.378937 187.859855 
L 360.862054 187.608934 
L 361.34517 186.862467 
L 361.828287 187.229374 
L 362.311404 187.81697 
L 362.794521 187.636123 
L 363.277638 187.21291 
L 363.760755 187.445551 
L 364.243872 188.112018 
L 364.726989 187.574905 
L 365.210106 188.25343 
L 366.176339 187.376497 
L 366.659456 187.700975 
L 367.142573 187.308583 
L 368.108807 187.314403 
L 368.591924 186.835633 
L 369.075041 187.844397 
L 370.524391 187.208921 
L 371.007508 186.666028 
L 371.490625 187.334858 
L 371.973742 186.874302 
L 372.939976 187.869404 
L 373.423093 187.228491 
L 373.906209 187.823869 
L 374.389326 187.239268 
L 374.872443 187.020496 
L 375.35556 187.197063 
L 375.838677 187.932748 
L 376.321794 187.430735 
L 376.804911 187.394432 
L 377.288028 187.476013 
L 377.771144 187.297475 
L 378.254261 187.682553 
L 379.220495 187.372028 
L 379.703612 187.628201 
L 380.186729 186.783212 
L 380.669846 187.074856 
L 381.152963 186.839405 
L 381.63608 187.515935 
L 382.119196 187.763284 
L 382.602313 187.505691 
L 383.08543 186.969055 
L 383.568547 187.109494 
L 384.051664 187.535298 
L 384.534781 187.599074 
L 385.017898 187.05674 
L 385.501015 187.478947 
L 385.984131 186.890404 
L 386.467248 187.426476 
L 386.950365 186.929427 
L 387.916599 187.451987 
L 388.399716 187.646823 
L 388.882833 187.341754 
L 389.849067 187.365084 
L 390.332183 188.043789 
L 390.8153 187.491406 
L 391.298417 187.225406 
L 392.747768 187.781165 
L 393.230885 187.21531 
L 393.714002 187.431781 
L 394.197119 187.030991 
L 394.680235 187.667348 
L 395.163352 187.632509 
L 395.646469 187.483169 
L 396.129586 187.892397 
L 396.612703 188.030297 
L 397.09582 187.892854 
L 397.578937 187.209789 
L 398.062054 187.498252 
L 398.54517 187.144424 
L 399.028287 187.409736 
L 399.511404 187.265258 
L 399.994521 187.92355 
L 400.477638 187.202294 
L 400.960755 188.344075 
L 401.443872 187.628879 
L 401.926989 187.287634 
L 402.410106 187.250385 
L 402.893222 187.988552 
L 403.376339 187.071004 
L 403.859456 187.082474 
L 404.342573 187.294689 
L 404.82569 187.221526 
L 405.308807 187.028633 
L 405.791924 185.158508 
L 406.275041 184.299615 
L 406.758157 184.500074 
L 407.241274 185.277536 
L 408.207508 185.268716 
L 408.690625 185.015152 
L 409.173742 185.796076 
L 409.656859 185.957616 
L 410.139976 185.848003 
L 411.106209 185.892563 
L 412.072443 185.735179 
L 412.55556 186.276245 
L 413.038677 185.92426 
L 413.521794 186.247262 
L 414.004911 186.411477 
L 414.488028 185.734071 
L 414.971144 185.479624 
L 415.454261 185.718253 
L 415.937378 185.690473 
L 416.420495 186.112403 
L 416.903612 186.273486 
L 417.386729 186.295534 
L 417.869846 185.989211 
L 418.352963 186.997044 
L 419.319196 186.170765 
L 419.802313 185.977352 
L 420.768547 186.875185 
L 421.251664 185.986072 
L 421.734781 185.923514 
L 422.217898 186.399051 
L 422.701015 186.190623 
L 423.184131 186.267194 
L 423.667248 186.775894 
L 424.150365 186.365425 
L 424.633482 186.908483 
L 425.116599 186.091172 
L 425.599716 185.744954 
L 426.082833 186.419137 
L 426.56595 186.485364 
L 427.049067 186.161955 
L 427.532183 186.35255 
L 429.464651 186.435734 
L 429.947768 186.270934 
L 430.430885 186.280163 
L 430.914002 186.571571 
L 431.397119 186.277754 
L 431.880235 186.138949 
L 432.363352 186.467975 
L 432.846469 186.182124 
L 433.329586 186.297055 
L 434.29582 186.071706 
L 434.778937 185.619711 
L 435.262054 186.231998 
L 435.74517 186.019974 
L 436.228287 186.273818 
L 437.677638 186.389846 
L 438.160755 186.049325 
L 438.643872 186.585675 
L 439.126989 185.907984 
L 439.610106 185.839286 
L 440.576339 185.906247 
L 441.059456 186.203396 
L 441.542573 186.185789 
L 442.991924 186.534952 
L 443.475041 186.425753 
L 443.958157 187.20929 
L 444.441274 186.719798 
L 444.924391 186.52465 
L 445.407508 186.153964 
L 445.890625 186.784297 
L 446.373742 186.40804 
L 447.339976 186.201713 
L 447.823093 186.48308 
L 449.75556 186.353096 
L 450.721794 186.642501 
L 451.204911 186.526376 
L 451.688028 185.881085 
L 452.171144 185.85757 
L 453.137378 186.964825 
L 453.620495 187.053255 
L 454.103612 186.680356 
L 454.586729 186.720612 
L 455.069846 186.554846 
L 455.552963 186.154126 
L 456.519196 186.243824 
L 457.002313 186.221894 
L 457.48543 185.734358 
L 457.968547 186.339099 
L 458.451664 186.253976 
L 458.934781 186.357352 
L 459.417898 186.635677 
L 459.901015 186.454912 
L 460.384131 186.401728 
L 460.867248 186.75468 
L 461.350365 186.846287 
L 461.833482 186.299263 
L 462.316599 186.117263 
L 462.799716 186.345605 
L 463.282833 186.360191 
L 463.76595 186.623006 
L 464.249067 186.388703 
L 464.732183 186.617551 
L 465.2153 186.09062 
L 465.698417 186.586596 
L 466.181534 186.190007 
L 466.664651 186.660059 
L 467.147768 186.198314 
L 467.630885 186.091641 
L 468.597119 185.492679 
L 469.080235 185.887332 
L 470.046469 186.26005 
L 471.012703 185.864112 
L 471.49582 186.417145 
L 471.978937 186.632897 
L 472.462054 185.933708 
L 472.94517 186.047637 
L 473.428287 186.288551 
L 473.911404 185.935597 
L 474.394521 186.265923 
L 474.877638 185.779064 
L 475.360755 186.225575 
L 475.843872 186.262343 
L 476.326989 186.175022 
L 477.293222 186.227135 
L 477.776339 186.45161 
L 478.259456 185.973284 
L 478.742573 186.244271 
L 479.22569 186.168642 
L 479.708807 185.807737 
L 480.191924 185.955103 
L 480.675041 185.719193 
L 481.158157 185.649423 
L 481.641274 185.813152 
L 482.124391 185.62288 
L 482.607508 185.698558 
L 483.090625 186.135217 
L 483.573742 186.148878 
L 484.056859 185.919774 
L 484.539976 186.061994 
L 485.023093 185.963711 
L 485.506209 186.235315 
L 487.438677 185.818094 
L 487.921794 185.097689 
L 488.404911 185.180212 
L 488.888028 185.592678 
L 489.371144 185.437189 
L 489.854261 185.40739 
L 490.337378 185.814178 
L 490.820495 185.288091 
L 491.303612 185.297282 
L 491.786729 185.748318 
L 492.269846 186.011659 
L 492.752963 185.750687 
L 493.23608 185.921088 
L 494.202313 185.553697 
L 494.68543 185.815104 
L 495.168547 186.233264 
L 495.651664 186.316116 
L 496.134781 186.106491 
L 496.617898 186.302507 
L 497.584131 186.116011 
L 498.067248 186.737963 
L 498.550365 186.254033 
L 499.033482 186.364181 
L 499.516599 186.005004 
L 500.96595 185.818936 
L 501.449067 186.107107 
L 502.4153 186.203682 
L 502.898417 185.955973 
L 503.381534 186.32537 
L 503.864651 185.95286 
L 504.347768 186.028157 
L 504.830885 185.742714 
L 505.314002 185.72313 
L 505.797119 186.013151 
L 506.763352 185.709862 
L 507.729586 185.929628 
L 508.212703 185.404373 
L 508.69582 185.736935 
L 509.178937 186.478309 
L 509.662054 185.97255 
L 510.14517 186.223972 
L 510.628287 185.852485 
L 511.111404 186.132174 
L 511.594521 186.277131 
L 512.077638 186.02464 
L 512.560755 186.005793 
L 513.043872 185.790291 
L 513.526989 185.379349 
L 514.010106 185.745231 
L 514.976339 185.577989 
L 515.459456 185.490213 
L 515.942573 185.71399 
L 516.42569 185.547125 
L 516.908807 186.376341 
L 517.391924 185.685145 
L 517.875041 185.437634 
L 518.358157 185.782203 
L 518.841274 185.450856 
L 519.324391 185.439633 
L 520.290625 185.955089 
L 520.773742 185.591906 
L 521.739976 185.952991 
L 522.223093 185.654438 
L 522.706209 185.861792 
L 523.189326 185.674963 
L 523.672443 185.971651 
L 524.15556 186.050419 
L 524.638677 185.671561 
L 525.121794 185.714797 
L 525.604911 185.910593 
L 526.088028 185.816853 
L 526.571144 185.941182 
L 527.054261 185.56361 
L 527.537378 185.856095 
L 528.020495 185.937247 
L 528.503612 185.525211 
L 529.469846 185.502809 
L 529.952963 185.799641 
L 530.43608 185.316523 
L 530.919196 185.723265 
L 531.402313 185.748763 
L 531.88543 185.469673 
L 532.368547 186.073279 
L 532.851664 185.85243 
L 533.334781 186.304317 
L 533.817898 185.806278 
L 534.301015 185.647092 
L 534.784131 185.774718 
L 535.267248 185.772281 
L 535.750365 185.331673 
L 536.233482 185.665762 
L 536.716599 185.342823 
L 538.16595 186.082109 
L 538.649067 186.089877 
L 539.132183 184.787684 
L 539.6153 185.59565 
L 540.581534 185.976348 
L 541.064651 185.979838 
L 541.547768 185.464481 
L 542.514002 185.766317 
L 542.997119 185.304157 
L 543.480235 185.241858 
L 543.963352 185.630348 
L 544.929586 185.863152 
L 545.412703 185.674776 
L 545.89582 185.842227 
L 546.378937 185.839063 
L 546.862054 185.343559 
L 547.828287 185.748516 
L 548.311404 185.667737 
L 548.794521 185.860776 
L 549.277638 185.722093 
L 549.760755 185.396313 
L 550.243872 185.506255 
L 550.726989 185.501576 
L 551.210106 185.122117 
L 551.693222 185.89944 
L 552.176339 185.378716 
L 552.659456 185.717443 
L 553.142573 185.3795 
L 553.62569 185.614582 
L 554.591924 185.826792 
L 555.075041 185.921637 
L 556.041274 185.273631 
L 556.524391 185.393312 
L 557.007508 185.974657 
L 557.490625 184.983217 
L 558.456859 185.771134 
L 558.939976 185.812377 
L 559.423093 185.487687 
L 560.389326 185.658713 
L 560.872443 185.350863 
L 561.35556 185.208361 
L 561.838677 185.581589 
L 562.321794 185.215886 
L 562.804911 185.230168 
L 563.771144 184.996668 
L 564.737378 185.660728 
L 565.220495 185.400554 
L 565.703612 185.493324 
L 566.669846 185.242921 
L 567.152963 185.382258 
L 567.63608 185.666778 
L 568.602313 185.047268 
L 569.568547 185.643121 
L 570.051664 185.291113 
L 570.534781 185.600169 
L 571.017898 185.163958 
L 571.501015 185.262357 
L 571.984131 185.641168 
L 572.467248 185.21704 
L 572.950365 185.502371 
L 573.433482 185.237078 
L 573.916599 185.503319 
L 574.399716 184.951404 
L 574.882833 185.278299 
L 575.36595 185.06473 
L 575.849067 185.618755 
L 577.298417 184.901788 
L 577.781534 185.055061 
L 578.264651 185.341415 
L 578.747768 185.35212 
L 579.230885 185.230386 
L 579.714002 185.557566 
L 580.197119 185.138828 
L 581.163352 185.212811 
L 581.646469 185.110931 
L 582.129586 184.766846 
L 582.612703 185.098531 
L 583.09582 184.858957 
L 583.578937 185.366991 
L 584.062054 184.832966 
L 584.54517 185.304899 
L 585.028287 185.348768 
L 585.511404 185.019933 
L 585.994521 184.066157 
L 586.477638 184.953365 
L 586.960755 185.029033 
L 587.443872 184.580125 
L 588.410106 184.812666 
L 588.893222 185.011276 
L 589.376339 185.488328 
L 589.859456 184.839575 
L 590.342573 185.246628 
L 590.82569 185.46906 
L 591.791924 184.708155 
L 592.275041 184.612363 
L 592.758157 185.073962 
L 593.241274 185.00207 
L 593.724391 184.667401 
L 594.207508 185.660946 
L 594.690625 185.387543 
L 595.173742 184.887928 
L 595.656859 184.554148 
L 597.106209 184.994997 
L 597.589326 184.615874 
L 598.55556 185.217749 
L 599.038677 184.890171 
L 599.521794 185.107049 
L 600.004911 184.634478 
L 601.937378 185.260286 
L 602.420495 184.963435 
L 602.903612 185.088686 
L 603.386729 184.95617 
L 603.869846 185.05309 
L 604.352963 185.289761 
L 604.83608 185.137012 
L 605.319196 185.338344 
L 606.28543 184.990153 
L 607.734781 185.089635 
L 608.217898 185.092262 
L 608.701015 184.908988 
L 609.184131 184.89784 
L 609.667248 185.154122 
L 610.150365 185.214908 
L 610.633482 185.076644 
L 611.116599 185.285548 
L 611.599716 185.064083 
L 612.082833 185.229144 
L 612.56595 184.883728 
L 613.049067 184.752453 
L 613.532183 185.124473 
L 614.0153 184.638999 
L 614.498417 184.873653 
L 614.981534 185.464575 
L 615.464651 185.312124 
L 616.430885 185.285787 
L 616.914002 185.473608 
L 617.397119 184.54076 
L 617.880235 184.928677 
L 618.363352 185.16694 
L 618.846469 184.770681 
L 619.329586 184.939562 
L 619.812703 184.880314 
L 620.29582 185.155055 
L 620.778937 184.841595 
L 621.262054 185.55881 
L 621.74517 185.067812 
L 622.228287 184.951094 
L 622.711404 185.066114 
L 623.194521 184.687902 
L 623.677638 184.900511 
L 624.160755 184.912242 
L 624.643872 184.660179 
L 625.126989 184.620384 
L 625.126989 184.620384 
" clip-path="url(#p407d3d3830)" style="fill: none; stroke: #ff7f0e; stroke-width: 1.5; stroke-linecap: square"/>
   </g>
   <g id="patch_3">
    <path d="M 92.490625 308.63625 
L 92.490625 31.43625 
" style="fill: none; stroke: #000000; stroke-width: 0.8; stroke-linejoin: miter; stroke-linecap: square"/>
   </g>
   <g id="patch_4">
    <path d="M 650.490625 308.63625 
L 650.490625 31.43625 
" style="fill: none; stroke: #000000; stroke-width: 0.8; stroke-linejoin: miter; stroke-linecap: square"/>
   </g>
   <g id="patch_5">
    <path d="M 92.490625 308.63625 
L 650.490625 308.63625 
" style="fill: none; stroke: #000000; stroke-width: 0.8; stroke-linejoin: miter; stroke-linecap: square"/>
   </g>
   <g id="patch_6">
    <path d="M 92.490625 31.43625 
L 650.490625 31.43625 
" style="fill: none; stroke: #000000; stroke-width: 0.8; stroke-linejoin: miter; stroke-linecap: square"/>
   </g>
   <g id="text_14">
    <!-- Generator and Discriminator Loss During Training -->
    <g transform="translate(74.258125 25.43625) scale(0.24 -0.24)">
     <defs>
      <path id="DejaVuSans-47" d="M 3809 666 
L 3809 1919 
L 2778 1919 
L 2778 2438 
L 4434 2438 
L 4434 434 
Q 4069 175 3628 42 
Q 3188 -91 2688 -91 
Q 1594 -91 976 548 
Q 359 1188 359 2328 
Q 359 3472 976 4111 
Q 1594 4750 2688 4750 
Q 3144 4750 3555 4637 
Q 3966 4525 4313 4306 
L 4313 3634 
Q 3963 3931 3569 4081 
Q 3175 4231 2741 4231 
Q 1884 4231 1454 3753 
Q 1025 3275 1025 2328 
Q 1025 1384 1454 906 
Q 1884 428 2741 428 
Q 3075 428 3337 486 
Q 3600 544 3809 666 
z
" transform="scale(0.015625)"/>
      <path id="DejaVuSans-20" transform="scale(0.015625)"/>
      <path id="DejaVuSans-64" d="M 2906 2969 
L 2906 4863 
L 3481 4863 
L 3481 0 
L 2906 0 
L 2906 525 
Q 2725 213 2448 61 
Q 2172 -91 1784 -91 
Q 1150 -91 751 415 
Q 353 922 353 1747 
Q 353 2572 751 3078 
Q 1150 3584 1784 3584 
Q 2172 3584 2448 3432 
Q 2725 3281 2906 2969 
z
M 947 1747 
Q 947 1113 1208 752 
Q 1469 391 1925 391 
Q 2381 391 2643 752 
Q 2906 1113 2906 1747 
Q 2906 2381 2643 2742 
Q 2381 3103 1925 3103 
Q 1469 3103 1208 2742 
Q 947 2381 947 1747 
z
" transform="scale(0.015625)"/>
      <path id="DejaVuSans-44" d="M 1259 4147 
L 1259 519 
L 2022 519 
Q 2988 519 3436 956 
Q 3884 1394 3884 2338 
Q 3884 3275 3436 3711 
Q 2988 4147 2022 4147 
L 1259 4147 
z
M 628 4666 
L 1925 4666 
Q 3281 4666 3915 4102 
Q 4550 3538 4550 2338 
Q 4550 1131 3912 565 
Q 3275 0 1925 0 
L 628 0 
L 628 4666 
z
" transform="scale(0.015625)"/>
      <path id="DejaVuSans-63" d="M 3122 3366 
L 3122 2828 
Q 2878 2963 2633 3030 
Q 2388 3097 2138 3097 
Q 1578 3097 1268 2742 
Q 959 2388 959 1747 
Q 959 1106 1268 751 
Q 1578 397 2138 397 
Q 2388 397 2633 464 
Q 2878 531 3122 666 
L 3122 134 
Q 2881 22 2623 -34 
Q 2366 -91 2075 -91 
Q 1284 -91 818 406 
Q 353 903 353 1747 
Q 353 2603 823 3093 
Q 1294 3584 2113 3584 
Q 2378 3584 2631 3529 
Q 2884 3475 3122 3366 
z
" transform="scale(0.015625)"/>
      <path id="DejaVuSans-6d" d="M 3328 2828 
Q 3544 3216 3844 3400 
Q 4144 3584 4550 3584 
Q 5097 3584 5394 3201 
Q 5691 2819 5691 2113 
L 5691 0 
L 5113 0 
L 5113 2094 
Q 5113 2597 4934 2840 
Q 4756 3084 4391 3084 
Q 3944 3084 3684 2787 
Q 3425 2491 3425 1978 
L 3425 0 
L 2847 0 
L 2847 2094 
Q 2847 2600 2669 2842 
Q 2491 3084 2119 3084 
Q 1678 3084 1418 2786 
Q 1159 2488 1159 1978 
L 1159 0 
L 581 0 
L 581 3500 
L 1159 3500 
L 1159 2956 
Q 1356 3278 1631 3431 
Q 1906 3584 2284 3584 
Q 2666 3584 2933 3390 
Q 3200 3197 3328 2828 
z
" transform="scale(0.015625)"/>
      <path id="DejaVuSans-75" d="M 544 1381 
L 544 3500 
L 1119 3500 
L 1119 1403 
Q 1119 906 1312 657 
Q 1506 409 1894 409 
Q 2359 409 2629 706 
Q 2900 1003 2900 1516 
L 2900 3500 
L 3475 3500 
L 3475 0 
L 2900 0 
L 2900 538 
Q 2691 219 2414 64 
Q 2138 -91 1772 -91 
Q 1169 -91 856 284 
Q 544 659 544 1381 
z
M 1991 3584 
L 1991 3584 
z
" transform="scale(0.015625)"/>
      <path id="DejaVuSans-67" d="M 2906 1791 
Q 2906 2416 2648 2759 
Q 2391 3103 1925 3103 
Q 1463 3103 1205 2759 
Q 947 2416 947 1791 
Q 947 1169 1205 825 
Q 1463 481 1925 481 
Q 2391 481 2648 825 
Q 2906 1169 2906 1791 
z
M 3481 434 
Q 3481 -459 3084 -895 
Q 2688 -1331 1869 -1331 
Q 1566 -1331 1297 -1286 
Q 1028 -1241 775 -1147 
L 775 -588 
Q 1028 -725 1275 -790 
Q 1522 -856 1778 -856 
Q 2344 -856 2625 -561 
Q 2906 -266 2906 331 
L 2906 616 
Q 2728 306 2450 153 
Q 2172 0 1784 0 
Q 1141 0 747 490 
Q 353 981 353 1791 
Q 353 2603 747 3093 
Q 1141 3584 1784 3584 
Q 2172 3584 2450 3431 
Q 2728 3278 2906 2969 
L 2906 3500 
L 3481 3500 
L 3481 434 
z
" transform="scale(0.015625)"/>
      <path id="DejaVuSans-54" d="M -19 4666 
L 3928 4666 
L 3928 4134 
L 2272 4134 
L 2272 0 
L 1638 0 
L 1638 4134 
L -19 4134 
L -19 4666 
z
" transform="scale(0.015625)"/>
     </defs>
     <use xlink:href="#DejaVuSans-47"/>
     <use xlink:href="#DejaVuSans-65" x="77.490234"/>
     <use xlink:href="#DejaVuSans-6e" x="139.013672"/>
     <use xlink:href="#DejaVuSans-65" x="202.392578"/>
     <use xlink:href="#DejaVuSans-72" x="263.916016"/>
     <use xlink:href="#DejaVuSans-61" x="305.029297"/>
     <use xlink:href="#DejaVuSans-74" x="366.308594"/>
     <use xlink:href="#DejaVuSans-6f" x="405.517578"/>
     <use xlink:href="#DejaVuSans-72" x="466.699219"/>
     <use xlink:href="#DejaVuSans-20" x="507.8125"/>
     <use xlink:href="#DejaVuSans-61" x="539.599609"/>
     <use xlink:href="#DejaVuSans-6e" x="600.878906"/>
     <use xlink:href="#DejaVuSans-64" x="664.257812"/>
     <use xlink:href="#DejaVuSans-20" x="727.734375"/>
     <use xlink:href="#DejaVuSans-44" x="759.521484"/>
     <use xlink:href="#DejaVuSans-69" x="836.523438"/>
     <use xlink:href="#DejaVuSans-73" x="864.306641"/>
     <use xlink:href="#DejaVuSans-63" x="916.40625"/>
     <use xlink:href="#DejaVuSans-72" x="971.386719"/>
     <use xlink:href="#DejaVuSans-69" x="1012.5"/>
     <use xlink:href="#DejaVuSans-6d" x="1040.283203"/>
     <use xlink:href="#DejaVuSans-69" x="1137.695312"/>
     <use xlink:href="#DejaVuSans-6e" x="1165.478516"/>
     <use xlink:href="#DejaVuSans-61" x="1228.857422"/>
     <use xlink:href="#DejaVuSans-74" x="1290.136719"/>
     <use xlink:href="#DejaVuSans-6f" x="1329.345703"/>
     <use xlink:href="#DejaVuSans-72" x="1390.527344"/>
     <use xlink:href="#DejaVuSans-20" x="1431.640625"/>
     <use xlink:href="#DejaVuSans-4c" x="1463.427734"/>
     <use xlink:href="#DejaVuSans-6f" x="1517.390625"/>
     <use xlink:href="#DejaVuSans-73" x="1578.572266"/>
     <use xlink:href="#DejaVuSans-73" x="1630.671875"/>
     <use xlink:href="#DejaVuSans-20" x="1682.771484"/>
     <use xlink:href="#DejaVuSans-44" x="1714.558594"/>
     <use xlink:href="#DejaVuSans-75" x="1791.560547"/>
     <use xlink:href="#DejaVuSans-72" x="1854.939453"/>
     <use xlink:href="#DejaVuSans-69" x="1896.052734"/>
     <use xlink:href="#DejaVuSans-6e" x="1923.835938"/>
     <use xlink:href="#DejaVuSans-67" x="1987.214844"/>
     <use xlink:href="#DejaVuSans-20" x="2050.691406"/>
     <use xlink:href="#DejaVuSans-54" x="2082.478516"/>
     <use xlink:href="#DejaVuSans-72" x="2128.8125"/>
     <use xlink:href="#DejaVuSans-61" x="2169.925781"/>
     <use xlink:href="#DejaVuSans-69" x="2231.205078"/>
     <use xlink:href="#DejaVuSans-6e" x="2258.988281"/>
     <use xlink:href="#DejaVuSans-69" x="2322.367188"/>
     <use xlink:href="#DejaVuSans-6e" x="2350.150391"/>
     <use xlink:href="#DejaVuSans-67" x="2413.529297"/>
    </g>
   </g>
   <g id="legend_1">
    <g id="patch_7">
     <path d="M 556.99375 106.14875 
L 636.490625 106.14875 
Q 640.490625 106.14875 640.490625 102.14875 
L 640.490625 45.43625 
Q 640.490625 41.43625 636.490625 41.43625 
L 556.99375 41.43625 
Q 552.99375 41.43625 552.99375 45.43625 
L 552.99375 102.14875 
Q 552.99375 106.14875 556.99375 106.14875 
z
" style="fill: #ffffff; opacity: 0.8; stroke: #cccccc; stroke-linejoin: miter"/>
    </g>
    <g id="line2d_14">
     <path d="M 560.99375 57.633125 
L 580.99375 57.633125 
L 600.99375 57.633125 
" style="fill: none; stroke: #1f77b4; stroke-width: 1.5; stroke-linecap: square"/>
    </g>
    <g id="text_15">
     <!-- G -->
     <g transform="translate(616.99375 64.633125) scale(0.2 -0.2)">
      <use xlink:href="#DejaVuSans-47"/>
     </g>
    </g>
    <g id="line2d_15">
     <path d="M 560.99375 86.989375 
L 580.99375 86.989375 
L 600.99375 86.989375 
" style="fill: none; stroke: #ff7f0e; stroke-width: 1.5; stroke-linecap: square"/>
    </g>
    <g id="text_16">
     <!-- D -->
     <g transform="translate(616.99375 93.989375) scale(0.2 -0.2)">
      <use xlink:href="#DejaVuSans-44"/>
     </g>
    </g>
   </g>
  </g>
 </g>
 <defs>
  <clipPath id="p407d3d3830">
   <rect x="92.490625" y="31.43625" width="558" height="277.2"/>
  </clipPath>
 </defs>
</svg>
