<?xml version="1.0" encoding="utf-8" standalone="no"?>
<!DOCTYPE svg PUBLIC "-//W3C//DTD SVG 1.1//EN"
  "http://www.w3.org/Graphics/SVG/1.1/DTD/svg11.dtd">
<svg xmlns:xlink="http://www.w3.org/1999/xlink" width="675.923125pt" height="365.54875pt" viewBox="0 0 675.923125 365.54875" xmlns="http://www.w3.org/2000/svg" version="1.1">
 <metadata>
  <rdf:RDF xmlns:dc="http://purl.org/dc/elements/1.1/" xmlns:cc="http://creativecommons.org/ns#" xmlns:rdf="http://www.w3.org/1999/02/22-rdf-syntax-ns#">
   <cc:Work>
    <dc:type rdf:resource="http://purl.org/dc/dcmitype/StillImage"/>
    <dc:date>2024-02-02T15:42:35.072787</dc:date>
    <dc:format>image/svg+xml</dc:format>
    <dc:creator>
     <cc:Agent>
      <dc:title>Matplotlib v3.7.2, https://matplotlib.org/</dc:title>
     </cc:Agent>
    </dc:creator>
   </cc:Work>
  </rdf:RDF>
 </metadata>
 <defs>
  <style type="text/css">*{stroke-linejoin: round; stroke-linecap: butt}</style>
 </defs>
 <g id="figure_1">
  <g id="patch_1">
   <path d="M 0 365.54875 
L 675.923125 365.54875 
L 675.923125 -0 
L 0 -0 
z
" style="fill: #ffffff"/>
  </g>
  <g id="axes_1">
   <g id="patch_2">
    <path d="M 92.490625 308.63625 
L 650.490625 308.63625 
L 650.490625 31.43625 
L 92.490625 31.43625 
z
" style="fill: #ffffff"/>
   </g>
   <g id="matplotlib.axis_1">
    <g id="xtick_1">
     <g id="line2d_1">
      <defs>
       <path id="m4b9217373f" d="M 0 0 
L 0 3.5 
" style="stroke: #000000; stroke-width: 0.8"/>
      </defs>
      <g>
       <use xlink:href="#m4b9217373f" x="117.854261" y="308.63625" style="stroke: #000000; stroke-width: 0.8"/>
      </g>
     </g>
     <g id="text_1">
      <!-- 0 -->
      <g transform="translate(111.491761 330.833125) scale(0.2 -0.2)">
       <defs>
        <path id="DejaVuSans-30" d="M 2034 4250 
Q 1547 4250 1301 3770 
Q 1056 3291 1056 2328 
Q 1056 1369 1301 889 
Q 1547 409 2034 409 
Q 2525 409 2770 889 
Q 3016 1369 3016 2328 
Q 3016 3291 2770 3770 
Q 2525 4250 2034 4250 
z
M 2034 4750 
Q 2819 4750 3233 4129 
Q 3647 3509 3647 2328 
Q 3647 1150 3233 529 
Q 2819 -91 2034 -91 
Q 1250 -91 836 529 
Q 422 1150 422 2328 
Q 422 3509 836 4129 
Q 1250 4750 2034 4750 
z
" transform="scale(0.015625)"/>
       </defs>
       <use xlink:href="#DejaVuSans-30"/>
      </g>
     </g>
    </g>
    <g id="xtick_2">
     <g id="line2d_2">
      <g>
       <use xlink:href="#m4b9217373f" x="224.64852" y="308.63625" style="stroke: #000000; stroke-width: 0.8"/>
      </g>
     </g>
     <g id="text_2">
      <!-- 200 -->
      <g transform="translate(205.56102 330.833125) scale(0.2 -0.2)">
       <defs>
        <path id="DejaVuSans-32" d="M 1228 531 
L 3431 531 
L 3431 0 
L 469 0 
L 469 531 
Q 828 903 1448 1529 
Q 2069 2156 2228 2338 
Q 2531 2678 2651 2914 
Q 2772 3150 2772 3378 
Q 2772 3750 2511 3984 
Q 2250 4219 1831 4219 
Q 1534 4219 1204 4116 
Q 875 4013 500 3803 
L 500 4441 
Q 881 4594 1212 4672 
Q 1544 4750 1819 4750 
Q 2544 4750 2975 4387 
Q 3406 4025 3406 3419 
Q 3406 3131 3298 2873 
Q 3191 2616 2906 2266 
Q 2828 2175 2409 1742 
Q 1991 1309 1228 531 
z
" transform="scale(0.015625)"/>
       </defs>
       <use xlink:href="#DejaVuSans-32"/>
       <use xlink:href="#DejaVuSans-30" x="63.623047"/>
       <use xlink:href="#DejaVuSans-30" x="127.246094"/>
      </g>
     </g>
    </g>
    <g id="xtick_3">
     <g id="line2d_3">
      <g>
       <use xlink:href="#m4b9217373f" x="331.442778" y="308.63625" style="stroke: #000000; stroke-width: 0.8"/>
      </g>
     </g>
     <g id="text_3">
      <!-- 400 -->
      <g transform="translate(312.355278 330.833125) scale(0.2 -0.2)">
       <defs>
        <path id="DejaVuSans-34" d="M 2419 4116 
L 825 1625 
L 2419 1625 
L 2419 4116 
z
M 2253 4666 
L 3047 4666 
L 3047 1625 
L 3713 1625 
L 3713 1100 
L 3047 1100 
L 3047 0 
L 2419 0 
L 2419 1100 
L 313 1100 
L 313 1709 
L 2253 4666 
z
" transform="scale(0.015625)"/>
       </defs>
       <use xlink:href="#DejaVuSans-34"/>
       <use xlink:href="#DejaVuSans-30" x="63.623047"/>
       <use xlink:href="#DejaVuSans-30" x="127.246094"/>
      </g>
     </g>
    </g>
    <g id="xtick_4">
     <g id="line2d_4">
      <g>
       <use xlink:href="#m4b9217373f" x="438.237036" y="308.63625" style="stroke: #000000; stroke-width: 0.8"/>
      </g>
     </g>
     <g id="text_4">
      <!-- 600 -->
      <g transform="translate(419.149536 330.833125) scale(0.2 -0.2)">
       <defs>
        <path id="DejaVuSans-36" d="M 2113 2584 
Q 1688 2584 1439 2293 
Q 1191 2003 1191 1497 
Q 1191 994 1439 701 
Q 1688 409 2113 409 
Q 2538 409 2786 701 
Q 3034 994 3034 1497 
Q 3034 2003 2786 2293 
Q 2538 2584 2113 2584 
z
M 3366 4563 
L 3366 3988 
Q 3128 4100 2886 4159 
Q 2644 4219 2406 4219 
Q 1781 4219 1451 3797 
Q 1122 3375 1075 2522 
Q 1259 2794 1537 2939 
Q 1816 3084 2150 3084 
Q 2853 3084 3261 2657 
Q 3669 2231 3669 1497 
Q 3669 778 3244 343 
Q 2819 -91 2113 -91 
Q 1303 -91 875 529 
Q 447 1150 447 2328 
Q 447 3434 972 4092 
Q 1497 4750 2381 4750 
Q 2619 4750 2861 4703 
Q 3103 4656 3366 4563 
z
" transform="scale(0.015625)"/>
       </defs>
       <use xlink:href="#DejaVuSans-36"/>
       <use xlink:href="#DejaVuSans-30" x="63.623047"/>
       <use xlink:href="#DejaVuSans-30" x="127.246094"/>
      </g>
     </g>
    </g>
    <g id="xtick_5">
     <g id="line2d_5">
      <g>
       <use xlink:href="#m4b9217373f" x="545.031295" y="308.63625" style="stroke: #000000; stroke-width: 0.8"/>
      </g>
     </g>
     <g id="text_5">
      <!-- 800 -->
      <g transform="translate(525.943795 330.833125) scale(0.2 -0.2)">
       <defs>
        <path id="DejaVuSans-38" d="M 2034 2216 
Q 1584 2216 1326 1975 
Q 1069 1734 1069 1313 
Q 1069 891 1326 650 
Q 1584 409 2034 409 
Q 2484 409 2743 651 
Q 3003 894 3003 1313 
Q 3003 1734 2745 1975 
Q 2488 2216 2034 2216 
z
M 1403 2484 
Q 997 2584 770 2862 
Q 544 3141 544 3541 
Q 544 4100 942 4425 
Q 1341 4750 2034 4750 
Q 2731 4750 3128 4425 
Q 3525 4100 3525 3541 
Q 3525 3141 3298 2862 
Q 3072 2584 2669 2484 
Q 3125 2378 3379 2068 
Q 3634 1759 3634 1313 
Q 3634 634 3220 271 
Q 2806 -91 2034 -91 
Q 1263 -91 848 271 
Q 434 634 434 1313 
Q 434 1759 690 2068 
Q 947 2378 1403 2484 
z
M 1172 3481 
Q 1172 3119 1398 2916 
Q 1625 2713 2034 2713 
Q 2441 2713 2670 2916 
Q 2900 3119 2900 3481 
Q 2900 3844 2670 4047 
Q 2441 4250 2034 4250 
Q 1625 4250 1398 4047 
Q 1172 3844 1172 3481 
z
" transform="scale(0.015625)"/>
       </defs>
       <use xlink:href="#DejaVuSans-38"/>
       <use xlink:href="#DejaVuSans-30" x="63.623047"/>
       <use xlink:href="#DejaVuSans-30" x="127.246094"/>
      </g>
     </g>
    </g>
    <g id="text_6">
     <!-- iterations -->
     <g transform="translate(324.035938 354.189375) scale(0.2 -0.2)">
      <defs>
       <path id="DejaVuSans-69" d="M 603 3500 
L 1178 3500 
L 1178 0 
L 603 0 
L 603 3500 
z
M 603 4863 
L 1178 4863 
L 1178 4134 
L 603 4134 
L 603 4863 
z
" transform="scale(0.015625)"/>
       <path id="DejaVuSans-74" d="M 1172 4494 
L 1172 3500 
L 2356 3500 
L 2356 3053 
L 1172 3053 
L 1172 1153 
Q 1172 725 1289 603 
Q 1406 481 1766 481 
L 2356 481 
L 2356 0 
L 1766 0 
Q 1100 0 847 248 
Q 594 497 594 1153 
L 594 3053 
L 172 3053 
L 172 3500 
L 594 3500 
L 594 4494 
L 1172 4494 
z
" transform="scale(0.015625)"/>
       <path id="DejaVuSans-65" d="M 3597 1894 
L 3597 1613 
L 953 1613 
Q 991 1019 1311 708 
Q 1631 397 2203 397 
Q 2534 397 2845 478 
Q 3156 559 3463 722 
L 3463 178 
Q 3153 47 2828 -22 
Q 2503 -91 2169 -91 
Q 1331 -91 842 396 
Q 353 884 353 1716 
Q 353 2575 817 3079 
Q 1281 3584 2069 3584 
Q 2775 3584 3186 3129 
Q 3597 2675 3597 1894 
z
M 3022 2063 
Q 3016 2534 2758 2815 
Q 2500 3097 2075 3097 
Q 1594 3097 1305 2825 
Q 1016 2553 972 2059 
L 3022 2063 
z
" transform="scale(0.015625)"/>
       <path id="DejaVuSans-72" d="M 2631 2963 
Q 2534 3019 2420 3045 
Q 2306 3072 2169 3072 
Q 1681 3072 1420 2755 
Q 1159 2438 1159 1844 
L 1159 0 
L 581 0 
L 581 3500 
L 1159 3500 
L 1159 2956 
Q 1341 3275 1631 3429 
Q 1922 3584 2338 3584 
Q 2397 3584 2469 3576 
Q 2541 3569 2628 3553 
L 2631 2963 
z
" transform="scale(0.015625)"/>
       <path id="DejaVuSans-61" d="M 2194 1759 
Q 1497 1759 1228 1600 
Q 959 1441 959 1056 
Q 959 750 1161 570 
Q 1363 391 1709 391 
Q 2188 391 2477 730 
Q 2766 1069 2766 1631 
L 2766 1759 
L 2194 1759 
z
M 3341 1997 
L 3341 0 
L 2766 0 
L 2766 531 
Q 2569 213 2275 61 
Q 1981 -91 1556 -91 
Q 1019 -91 701 211 
Q 384 513 384 1019 
Q 384 1609 779 1909 
Q 1175 2209 1959 2209 
L 2766 2209 
L 2766 2266 
Q 2766 2663 2505 2880 
Q 2244 3097 1772 3097 
Q 1472 3097 1187 3025 
Q 903 2953 641 2809 
L 641 3341 
Q 956 3463 1253 3523 
Q 1550 3584 1831 3584 
Q 2591 3584 2966 3190 
Q 3341 2797 3341 1997 
z
" transform="scale(0.015625)"/>
       <path id="DejaVuSans-6f" d="M 1959 3097 
Q 1497 3097 1228 2736 
Q 959 2375 959 1747 
Q 959 1119 1226 758 
Q 1494 397 1959 397 
Q 2419 397 2687 759 
Q 2956 1122 2956 1747 
Q 2956 2369 2687 2733 
Q 2419 3097 1959 3097 
z
M 1959 3584 
Q 2709 3584 3137 3096 
Q 3566 2609 3566 1747 
Q 3566 888 3137 398 
Q 2709 -91 1959 -91 
Q 1206 -91 779 398 
Q 353 888 353 1747 
Q 353 2609 779 3096 
Q 1206 3584 1959 3584 
z
" transform="scale(0.015625)"/>
       <path id="DejaVuSans-6e" d="M 3513 2113 
L 3513 0 
L 2938 0 
L 2938 2094 
Q 2938 2591 2744 2837 
Q 2550 3084 2163 3084 
Q 1697 3084 1428 2787 
Q 1159 2491 1159 1978 
L 1159 0 
L 581 0 
L 581 3500 
L 1159 3500 
L 1159 2956 
Q 1366 3272 1645 3428 
Q 1925 3584 2291 3584 
Q 2894 3584 3203 3211 
Q 3513 2838 3513 2113 
z
" transform="scale(0.015625)"/>
       <path id="DejaVuSans-73" d="M 2834 3397 
L 2834 2853 
Q 2591 2978 2328 3040 
Q 2066 3103 1784 3103 
Q 1356 3103 1142 2972 
Q 928 2841 928 2578 
Q 928 2378 1081 2264 
Q 1234 2150 1697 2047 
L 1894 2003 
Q 2506 1872 2764 1633 
Q 3022 1394 3022 966 
Q 3022 478 2636 193 
Q 2250 -91 1575 -91 
Q 1294 -91 989 -36 
Q 684 19 347 128 
L 347 722 
Q 666 556 975 473 
Q 1284 391 1588 391 
Q 1994 391 2212 530 
Q 2431 669 2431 922 
Q 2431 1156 2273 1281 
Q 2116 1406 1581 1522 
L 1381 1569 
Q 847 1681 609 1914 
Q 372 2147 372 2553 
Q 372 3047 722 3315 
Q 1072 3584 1716 3584 
Q 2034 3584 2315 3537 
Q 2597 3491 2834 3397 
z
" transform="scale(0.015625)"/>
      </defs>
      <use xlink:href="#DejaVuSans-69"/>
      <use xlink:href="#DejaVuSans-74" x="27.783203"/>
      <use xlink:href="#DejaVuSans-65" x="66.992188"/>
      <use xlink:href="#DejaVuSans-72" x="128.515625"/>
      <use xlink:href="#DejaVuSans-61" x="169.628906"/>
      <use xlink:href="#DejaVuSans-74" x="230.908203"/>
      <use xlink:href="#DejaVuSans-69" x="270.117188"/>
      <use xlink:href="#DejaVuSans-6f" x="297.900391"/>
      <use xlink:href="#DejaVuSans-6e" x="359.082031"/>
      <use xlink:href="#DejaVuSans-73" x="422.460938"/>
     </g>
    </g>
   </g>
   <g id="matplotlib.axis_2">
    <g id="ytick_1">
     <g id="line2d_6">
      <defs>
       <path id="m101cffe6ea" d="M 0 0 
L -3.5 0 
" style="stroke: #000000; stroke-width: 0.8"/>
      </defs>
      <g>
       <use xlink:href="#m101cffe6ea" x="92.490625" y="279.562782" style="stroke: #000000; stroke-width: 0.8"/>
      </g>
     </g>
     <g id="text_7">
      <!-- −200 -->
      <g transform="translate(30.55625 287.16122) scale(0.2 -0.2)">
       <defs>
        <path id="DejaVuSans-2212" d="M 678 2272 
L 4684 2272 
L 4684 1741 
L 678 1741 
L 678 2272 
z
" transform="scale(0.015625)"/>
       </defs>
       <use xlink:href="#DejaVuSans-2212"/>
       <use xlink:href="#DejaVuSans-32" x="83.789062"/>
       <use xlink:href="#DejaVuSans-30" x="147.412109"/>
       <use xlink:href="#DejaVuSans-30" x="211.035156"/>
      </g>
     </g>
    </g>
    <g id="ytick_2">
     <g id="line2d_7">
      <g>
       <use xlink:href="#m101cffe6ea" x="92.490625" y="229.718252" style="stroke: #000000; stroke-width: 0.8"/>
      </g>
     </g>
     <g id="text_8">
      <!-- −100 -->
      <g transform="translate(30.55625 237.316689) scale(0.2 -0.2)">
       <defs>
        <path id="DejaVuSans-31" d="M 794 531 
L 1825 531 
L 1825 4091 
L 703 3866 
L 703 4441 
L 1819 4666 
L 2450 4666 
L 2450 531 
L 3481 531 
L 3481 0 
L 794 0 
L 794 531 
z
" transform="scale(0.015625)"/>
       </defs>
       <use xlink:href="#DejaVuSans-2212"/>
       <use xlink:href="#DejaVuSans-31" x="83.789062"/>
       <use xlink:href="#DejaVuSans-30" x="147.412109"/>
       <use xlink:href="#DejaVuSans-30" x="211.035156"/>
      </g>
     </g>
    </g>
    <g id="ytick_3">
     <g id="line2d_8">
      <g>
       <use xlink:href="#m101cffe6ea" x="92.490625" y="179.873722" style="stroke: #000000; stroke-width: 0.8"/>
      </g>
     </g>
     <g id="text_9">
      <!-- 0 -->
      <g transform="translate(72.765625 187.472159) scale(0.2 -0.2)">
       <use xlink:href="#DejaVuSans-30"/>
      </g>
     </g>
    </g>
    <g id="ytick_4">
     <g id="line2d_9">
      <g>
       <use xlink:href="#m101cffe6ea" x="92.490625" y="130.029191" style="stroke: #000000; stroke-width: 0.8"/>
      </g>
     </g>
     <g id="text_10">
      <!-- 100 -->
      <g transform="translate(47.315625 137.627629) scale(0.2 -0.2)">
       <use xlink:href="#DejaVuSans-31"/>
       <use xlink:href="#DejaVuSans-30" x="63.623047"/>
       <use xlink:href="#DejaVuSans-30" x="127.246094"/>
      </g>
     </g>
    </g>
    <g id="ytick_5">
     <g id="line2d_10">
      <g>
       <use xlink:href="#m101cffe6ea" x="92.490625" y="80.184661" style="stroke: #000000; stroke-width: 0.8"/>
      </g>
     </g>
     <g id="text_11">
      <!-- 200 -->
      <g transform="translate(47.315625 87.783098) scale(0.2 -0.2)">
       <use xlink:href="#DejaVuSans-32"/>
       <use xlink:href="#DejaVuSans-30" x="63.623047"/>
       <use xlink:href="#DejaVuSans-30" x="127.246094"/>
      </g>
     </g>
    </g>
    <g id="text_12">
     <!-- Loss -->
     <g transform="translate(22.396875 191.970625) rotate(-90) scale(0.2 -0.2)">
      <defs>
       <path id="DejaVuSans-4c" d="M 628 4666 
L 1259 4666 
L 1259 531 
L 3531 531 
L 3531 0 
L 628 0 
L 628 4666 
z
" transform="scale(0.015625)"/>
      </defs>
      <use xlink:href="#DejaVuSans-4c"/>
      <use xlink:href="#DejaVuSans-6f" x="53.962891"/>
      <use xlink:href="#DejaVuSans-73" x="115.144531"/>
      <use xlink:href="#DejaVuSans-73" x="167.244141"/>
     </g>
    </g>
   </g>
   <g id="line2d_11">
    <path d="M 117.854261 124.531878 
L 118.388233 113.612244 
L 118.922204 120.519891 
L 119.456175 104.349251 
L 119.990147 82.758685 
L 120.524118 52.516894 
L 121.058089 44.03625 
L 121.59206 61.970005 
L 122.126032 47.184644 
L 123.193974 80.314335 
L 123.727946 92.451127 
L 124.261917 90.170035 
L 125.329859 102.578324 
L 125.863831 95.671232 
L 126.397802 100.331578 
L 126.931773 100.663401 
L 127.465745 98.525286 
L 127.999716 104.282319 
L 128.533687 116.142604 
L 129.067658 120.516331 
L 129.60163 130.835256 
L 130.669572 127.698731 
L 131.203544 125.168182 
L 131.737515 126.943921 
L 132.271486 124.005949 
L 133.339429 122.923807 
L 133.8734 123.257928 
L 134.407371 118.898656 
L 134.941343 119.56434 
L 135.475314 115.700499 
L 136.009285 117.745463 
L 136.543257 123.442567 
L 137.077228 123.774871 
L 137.611199 122.857969 
L 138.14517 122.302379 
L 138.679142 120.942223 
L 139.213113 119.124284 
L 139.747084 125.017556 
L 140.281056 133.214281 
L 140.815027 129.161825 
L 141.348998 123.543387 
L 141.882969 122.23231 
L 142.416941 123.023945 
L 142.950912 127.784878 
L 143.484883 121.940687 
L 144.018855 123.981988 
L 144.552826 127.193599 
L 145.086797 131.485114 
L 145.620769 128.917539 
L 146.15474 136.589669 
L 146.688711 136.567041 
L 147.222682 125.362361 
L 147.756654 126.824283 
L 148.290625 135.707324 
L 148.824596 137.326724 
L 149.358568 136.946144 
L 150.42651 141.297559 
L 150.960481 145.047706 
L 151.494453 145.805225 
L 152.028424 141.997796 
L 153.096367 139.025662 
L 153.630338 137.019952 
L 154.164309 138.139239 
L 154.698281 136.827967 
L 155.232252 138.508057 
L 155.766223 138.220575 
L 156.300194 138.101893 
L 156.834166 135.608969 
L 157.368137 141.338619 
L 158.43608 134.107495 
L 158.970051 138.24287 
L 159.504022 138.539082 
L 160.037993 134.882217 
L 160.571965 125.534589 
L 161.105936 130.92867 
L 161.639907 130.995844 
L 162.173879 129.896139 
L 162.70785 130.701701 
L 163.241821 134.78225 
L 163.775792 136.964739 
L 164.309764 139.833902 
L 164.843735 134.538663 
L 165.377706 132.112555 
L 165.911678 132.679362 
L 166.445649 137.227089 
L 166.97962 136.509092 
L 167.513592 134.164532 
L 168.047563 138.634416 
L 168.581534 137.086605 
L 169.115505 139.48127 
L 169.649477 140.847521 
L 170.183448 136.401101 
L 170.717419 136.610398 
L 171.251391 141.120117 
L 171.785362 141.657382 
L 172.319333 141.745369 
L 173.387276 145.930699 
L 173.921247 144.353858 
L 174.455218 147.068299 
L 175.523161 143.872919 
L 176.057132 144.823045 
L 176.591103 145.322043 
L 177.125075 149.160657 
L 177.659046 151.758086 
L 178.193017 147.409346 
L 178.726989 147.688363 
L 179.794931 143.905424 
L 180.328903 146.884967 
L 181.396845 147.688029 
L 181.930816 143.357887 
L 182.464788 140.161348 
L 182.998759 143.441326 
L 183.53273 141.701099 
L 184.066702 143.244373 
L 184.600673 141.485977 
L 185.134644 143.743617 
L 185.668615 141.752809 
L 186.202587 144.378451 
L 186.736558 145.924998 
L 187.804501 145.710239 
L 188.338472 146.822277 
L 188.872443 145.065893 
L 189.406414 142.812817 
L 189.940386 146.722669 
L 190.474357 142.762511 
L 191.008328 145.958757 
L 191.5423 145.805341 
L 192.076271 143.312113 
L 192.610242 144.758427 
L 193.144214 147.303361 
L 193.678185 146.89064 
L 194.212156 147.574506 
L 194.746127 148.59455 
L 195.81407 152.506974 
L 196.348041 150.388494 
L 196.882013 151.806019 
L 197.415984 150.902817 
L 197.949955 151.840849 
L 198.483926 149.806097 
L 199.017898 146.162209 
L 199.551869 148.368318 
L 200.08584 152.27345 
L 200.619812 151.466282 
L 201.153783 152.492185 
L 201.687754 150.095374 
L 202.221725 151.430663 
L 202.755697 152.38361 
L 203.289668 151.164398 
L 203.823639 152.661597 
L 204.357611 153.504509 
L 204.891582 153.070374 
L 205.425553 153.701229 
L 205.959525 155.076172 
L 206.493496 155.925178 
L 207.561438 153.860758 
L 208.09541 153.674296 
L 208.629381 153.035097 
L 209.163352 154.346622 
L 209.697324 153.598921 
L 210.231295 153.137666 
L 210.765266 153.719381 
L 211.299237 151.537183 
L 211.833209 152.382328 
L 212.36718 153.754748 
L 212.901151 152.730595 
L 213.435123 153.912518 
L 213.969094 155.763226 
L 214.503065 154.635505 
L 215.037036 156.375225 
L 215.571008 154.862806 
L 216.104979 157.097058 
L 216.63895 158.475495 
L 217.172922 159.246486 
L 217.706893 160.579032 
L 218.240864 160.177923 
L 218.774836 158.198611 
L 219.308807 157.632745 
L 219.842778 158.695304 
L 220.376749 158.058747 
L 221.978663 161.274453 
L 222.512635 161.049882 
L 223.046606 162.072976 
L 223.580577 162.780169 
L 224.114548 162.93181 
L 224.64852 162.909826 
L 225.182491 163.16357 
L 225.716462 163.590409 
L 226.784405 163.028633 
L 227.318376 164.160838 
L 227.852347 163.43676 
L 228.386319 163.598174 
L 228.92029 163.302926 
L 229.454261 163.467349 
L 229.988233 163.018195 
L 230.522204 164.735424 
L 231.056175 163.474858 
L 231.590147 161.245375 
L 232.124118 162.806307 
L 233.19206 163.762132 
L 233.726032 163.922568 
L 234.260003 162.747043 
L 234.793974 162.225773 
L 235.327946 162.846469 
L 235.861917 165.236295 
L 236.395888 163.231114 
L 236.929859 163.010536 
L 237.463831 163.003862 
L 237.997802 164.481228 
L 238.531773 164.159237 
L 239.065745 165.05063 
L 239.599716 167.617109 
L 240.133687 166.927606 
L 240.667658 166.829197 
L 241.20163 167.045429 
L 241.735601 167.040901 
L 242.269572 168.045201 
L 243.337515 166.198974 
L 243.871486 166.800597 
L 244.405458 168.759688 
L 244.939429 168.974249 
L 245.4734 166.434748 
L 246.007371 165.174013 
L 246.541343 167.03687 
L 247.609285 167.675998 
L 248.143257 167.355134 
L 248.677228 166.638156 
L 249.211199 167.116547 
L 249.74517 167.266925 
L 250.279142 168.14975 
L 250.813113 167.908898 
L 251.347084 168.146553 
L 251.881056 168.238457 
L 252.948998 167.240999 
L 253.482969 168.253029 
L 254.016941 166.399731 
L 254.550912 167.169623 
L 255.084883 166.210275 
L 255.618855 167.497068 
L 256.152826 165.698517 
L 257.220769 166.698603 
L 257.75474 166.841433 
L 258.288711 166.310281 
L 258.822682 165.479998 
L 259.356654 165.215218 
L 259.890625 165.668773 
L 260.424596 167.322442 
L 260.958568 165.913513 
L 261.492539 165.804076 
L 262.02651 165.367667 
L 262.560481 166.220259 
L 263.094453 166.206106 
L 263.628424 165.972338 
L 264.162395 166.913536 
L 264.696367 166.170453 
L 265.230338 165.912273 
L 265.764309 166.548458 
L 266.298281 165.862925 
L 266.832252 166.657325 
L 267.366223 167.181714 
L 267.900194 166.678216 
L 268.434166 166.675568 
L 268.968137 167.875845 
L 269.502108 168.366442 
L 270.03608 168.449603 
L 270.570051 168.998448 
L 271.104022 169.32032 
L 271.637993 167.9225 
L 272.171965 168.46892 
L 272.705936 168.843936 
L 273.239907 168.960531 
L 273.773879 168.782386 
L 274.30785 168.317253 
L 274.841821 169.688678 
L 275.375792 169.233972 
L 275.909764 169.06092 
L 276.977706 170.546879 
L 277.511678 170.171745 
L 278.045649 171.878035 
L 279.113592 171.137158 
L 279.647563 169.278403 
L 280.181534 169.725672 
L 280.715505 170.615596 
L 281.249477 169.496235 
L 281.783448 169.782768 
L 282.317419 169.890141 
L 282.851391 171.456883 
L 283.919333 170.001103 
L 284.453304 169.926751 
L 285.521247 171.37963 
L 286.055218 171.029107 
L 286.58919 171.124863 
L 287.123161 170.681482 
L 287.657132 170.87703 
L 288.191103 170.384301 
L 288.725075 170.986704 
L 289.259046 170.791971 
L 289.793017 169.625101 
L 290.326989 171.288955 
L 290.86096 170.927486 
L 291.394931 170.864856 
L 291.928903 171.211611 
L 292.462874 172.079021 
L 292.996845 171.845111 
L 293.530816 170.97074 
L 294.064788 171.625128 
L 294.598759 170.983582 
L 295.666702 171.02878 
L 296.200673 171.560573 
L 296.734644 172.322231 
L 297.268615 171.627739 
L 297.802587 171.467542 
L 298.336558 172.467587 
L 298.870529 171.02565 
L 299.404501 171.947077 
L 299.938472 171.483687 
L 300.472443 172.050066 
L 301.540386 170.660141 
L 302.074357 169.947551 
L 302.608328 170.733685 
L 303.1423 170.584067 
L 303.676271 171.103421 
L 304.210242 171.348453 
L 304.744214 171.120201 
L 305.278185 170.558887 
L 305.812156 170.210684 
L 306.346127 170.789454 
L 306.880099 170.980313 
L 307.41407 172.211916 
L 307.948041 171.753866 
L 308.482013 172.058202 
L 309.015984 170.710387 
L 309.549955 171.610416 
L 310.083926 171.04566 
L 310.617898 170.275572 
L 311.151869 170.921107 
L 311.68584 170.142906 
L 312.219812 171.335557 
L 312.753783 170.05853 
L 313.287754 170.093304 
L 313.821725 170.469731 
L 314.355697 171.273628 
L 314.889668 171.728208 
L 315.423639 171.723017 
L 315.957611 170.898618 
L 317.025553 171.377761 
L 317.559525 171.45996 
L 318.093496 170.901117 
L 318.627467 169.754796 
L 320.229381 171.283549 
L 320.763352 170.797232 
L 321.297324 171.524636 
L 321.831295 171.480676 
L 322.365266 171.125477 
L 323.96718 171.450506 
L 324.501151 170.746657 
L 325.035123 171.893811 
L 326.103065 169.705521 
L 326.637036 169.357828 
L 327.171008 169.628308 
L 327.704979 170.894575 
L 328.23895 171.221226 
L 328.772922 171.32752 
L 329.306893 171.762098 
L 329.840864 171.419549 
L 330.374836 171.510481 
L 330.908807 170.604535 
L 331.442778 172.064219 
L 331.976749 172.504472 
L 332.510721 171.730852 
L 333.044692 171.717936 
L 333.578663 171.126913 
L 334.112635 171.028055 
L 334.646606 171.81357 
L 335.180577 171.842793 
L 335.714548 171.260918 
L 336.24852 171.661503 
L 336.782491 171.18838 
L 338.384405 171.680532 
L 338.918376 172.343042 
L 339.452347 170.773445 
L 339.986319 171.850861 
L 340.52029 171.335879 
L 341.054261 171.470768 
L 341.588233 171.404438 
L 342.122204 170.42896 
L 342.656175 170.751651 
L 343.190147 170.623119 
L 343.724118 171.204737 
L 344.258089 169.869313 
L 344.79206 169.636724 
L 345.860003 170.828434 
L 346.393974 170.552112 
L 346.927946 170.519111 
L 347.461917 170.941655 
L 347.995888 169.718798 
L 348.529859 169.862972 
L 349.063831 170.788851 
L 349.597802 169.308966 
L 350.131773 168.405074 
L 350.665745 169.592541 
L 351.733687 168.929275 
L 352.267658 168.277422 
L 352.80163 168.303997 
L 353.335601 169.014105 
L 353.869572 169.461484 
L 354.937515 168.954341 
L 355.471486 167.445263 
L 356.005458 168.252356 
L 356.539429 168.568639 
L 357.0734 168.729843 
L 357.607371 169.043828 
L 358.141343 170.208008 
L 358.675314 169.180695 
L 359.209285 168.673338 
L 359.743257 168.707785 
L 360.277228 169.243154 
L 360.811199 169.377209 
L 361.34517 168.851158 
L 361.879142 166.81334 
L 362.413113 168.761281 
L 362.947084 168.000392 
L 363.481056 167.564612 
L 364.548998 168.156309 
L 365.082969 168.13164 
L 365.616941 168.675291 
L 366.150912 168.119421 
L 366.684883 168.305333 
L 367.218855 167.535693 
L 367.752826 169.078896 
L 368.286797 168.406488 
L 368.820769 169.281049 
L 369.35474 168.148249 
L 369.888711 168.593674 
L 370.422682 168.732842 
L 370.956654 168.470857 
L 371.490625 169.372396 
L 372.024596 169.29299 
L 373.092539 167.88763 
L 373.62651 167.936869 
L 374.160481 168.913264 
L 374.694453 167.685689 
L 375.762395 168.452807 
L 376.296367 168.225701 
L 376.830338 170.2633 
L 377.364309 169.857828 
L 377.898281 168.55073 
L 378.432252 168.94689 
L 379.500194 167.836903 
L 380.034166 168.529338 
L 380.568137 168.526433 
L 381.102108 168.242491 
L 381.63608 168.845629 
L 382.170051 168.793187 
L 382.704022 169.295145 
L 383.237993 168.568328 
L 383.771965 169.156795 
L 384.305936 168.842294 
L 384.839907 169.404308 
L 385.373879 168.600934 
L 385.90785 169.158425 
L 386.441821 169.261816 
L 386.975792 169.167373 
L 387.509764 168.318719 
L 388.043735 168.55359 
L 388.577706 169.043764 
L 389.111678 169.344485 
L 389.645649 168.986347 
L 390.17962 169.062865 
L 390.713592 167.845035 
L 391.247563 168.951697 
L 392.315505 166.987109 
L 393.383448 168.536455 
L 393.917419 167.813438 
L 395.519333 168.653876 
L 396.053304 169.890846 
L 396.587276 168.602198 
L 397.121247 168.122958 
L 397.655218 166.912785 
L 398.18919 168.156099 
L 398.723161 167.661884 
L 399.257132 169.488083 
L 399.791103 169.485607 
L 401.393017 168.073372 
L 401.926989 169.155096 
L 402.46096 167.873866 
L 402.994931 168.345896 
L 403.528903 168.076867 
L 404.062874 169.271937 
L 405.130816 166.819249 
L 405.664788 165.679123 
L 406.198759 166.576745 
L 406.73273 167.755652 
L 407.266702 168.312368 
L 407.800673 167.853324 
L 408.334644 168.205852 
L 408.868615 167.419576 
L 409.402587 167.036538 
L 409.936558 168.70488 
L 411.004501 167.08679 
L 411.538472 166.654306 
L 412.072443 167.786472 
L 412.606414 167.416425 
L 413.140386 168.569706 
L 413.674357 168.490675 
L 414.208328 169.154549 
L 414.7423 167.278725 
L 415.276271 168.560299 
L 415.810242 168.787789 
L 416.344214 167.280913 
L 416.878185 167.403509 
L 417.412156 166.122042 
L 417.946127 167.890703 
L 418.480099 166.99708 
L 419.01407 168.252917 
L 419.548041 166.923159 
L 420.082013 167.016084 
L 420.615984 167.241264 
L 421.683926 167.045006 
L 422.217898 166.305466 
L 422.751869 165.975857 
L 423.28584 167.000925 
L 423.819812 166.83386 
L 424.353783 167.60513 
L 424.887754 167.629385 
L 425.421725 167.287727 
L 425.955697 167.104138 
L 426.489668 166.397981 
L 427.023639 167.148153 
L 427.557611 166.744054 
L 428.091582 165.842051 
L 428.625553 165.51877 
L 429.159525 166.309628 
L 429.693496 165.740703 
L 430.227467 166.816051 
L 430.761438 166.165061 
L 431.29541 165.723097 
L 431.829381 166.108493 
L 432.897324 165.4902 
L 433.965266 166.795149 
L 434.499237 166.654096 
L 435.56718 167.621033 
L 436.101151 166.864147 
L 436.635123 167.267206 
L 437.169094 168.778092 
L 437.703065 169.05499 
L 438.237036 168.761897 
L 438.771008 168.71093 
L 439.304979 167.742667 
L 440.372922 169.264613 
L 440.906893 167.432988 
L 441.440864 168.344806 
L 441.974836 168.502555 
L 442.508807 169.430815 
L 443.042778 169.685325 
L 443.576749 168.870997 
L 444.110721 169.484155 
L 445.178663 169.27929 
L 445.712635 168.891965 
L 447.314548 170.281456 
L 447.84852 169.650673 
L 448.382491 169.556229 
L 448.916462 169.332334 
L 449.450434 169.753204 
L 449.984405 169.245746 
L 450.518376 169.301257 
L 451.052347 168.308343 
L 451.586319 168.719347 
L 452.12029 169.428888 
L 452.654261 170.479059 
L 453.188233 169.745954 
L 453.722204 170.42337 
L 454.790147 170.868408 
L 455.324118 170.270927 
L 455.858089 169.303986 
L 456.39206 170.119499 
L 456.926032 169.767772 
L 457.460003 169.857879 
L 457.993974 169.586723 
L 458.527946 169.716683 
L 459.061917 171.181534 
L 459.595888 170.772517 
L 460.129859 171.187108 
L 460.663831 170.514292 
L 461.197802 170.129486 
L 461.731773 170.984094 
L 462.265745 171.01828 
L 462.799716 171.330471 
L 463.333687 170.098185 
L 463.867658 171.20177 
L 464.40163 170.094581 
L 464.935601 170.641587 
L 465.469572 170.954885 
L 466.003544 170.937869 
L 466.537515 171.877335 
L 467.071486 171.940686 
L 467.605458 171.802314 
L 468.139429 170.553515 
L 468.6734 170.961193 
L 469.207371 170.871702 
L 469.741343 171.781641 
L 470.275314 171.652601 
L 471.343257 169.934908 
L 471.877228 169.855105 
L 472.411199 169.93931 
L 472.94517 170.289627 
L 473.479142 171.688032 
L 474.013113 171.08577 
L 474.547084 171.519824 
L 475.081056 171.452305 
L 475.615027 170.690751 
L 476.148998 170.4779 
L 476.682969 170.686815 
L 477.216941 171.598358 
L 477.750912 171.429171 
L 478.284883 170.468689 
L 478.818855 170.552143 
L 479.352826 171.170605 
L 479.886797 171.076991 
L 480.420769 170.857447 
L 480.95474 172.026858 
L 481.488711 171.897187 
L 482.022682 172.552691 
L 482.556654 172.187376 
L 483.090625 172.119924 
L 483.624596 172.812751 
L 484.158568 172.431816 
L 484.692539 171.504635 
L 485.22651 171.078927 
L 485.760481 172.052269 
L 486.294453 172.01934 
L 486.828424 171.139247 
L 487.362395 171.456836 
L 487.896367 172.361364 
L 488.430338 171.736331 
L 488.964309 172.752857 
L 489.498281 172.572182 
L 490.032252 171.777554 
L 490.566223 171.812087 
L 491.100194 172.632344 
L 491.634166 173.098525 
L 492.168137 172.871148 
L 492.702108 171.911924 
L 493.23608 172.195097 
L 493.770051 172.633227 
L 494.304022 172.795828 
L 494.837993 172.498574 
L 495.371965 172.657809 
L 495.905936 172.305638 
L 496.439907 173.087526 
L 496.973879 172.752212 
L 497.50785 171.853783 
L 498.041821 172.249377 
L 498.575792 173.237597 
L 499.109764 172.465509 
L 499.643735 172.943736 
L 500.177706 172.53879 
L 500.711678 172.308294 
L 501.245649 172.475761 
L 501.77962 172.805779 
L 502.313592 173.509988 
L 502.847563 173.535105 
L 503.381534 172.965856 
L 503.915505 173.195651 
L 504.449477 173.028642 
L 504.983448 173.17028 
L 505.517419 173.69358 
L 506.051391 173.695534 
L 506.585362 173.025585 
L 507.119333 173.163722 
L 507.653304 172.773572 
L 508.187276 172.143886 
L 508.721247 172.728104 
L 509.78919 173.301175 
L 510.323161 173.212307 
L 510.857132 173.473794 
L 511.391103 173.354617 
L 511.925075 172.340577 
L 513.526989 173.545899 
L 514.06096 173.717131 
L 516.196845 172.846439 
L 516.730816 172.830841 
L 517.798759 173.914986 
L 518.33273 173.328633 
L 518.866702 173.220606 
L 519.400673 172.633549 
L 520.468615 172.524903 
L 521.002587 172.899515 
L 521.536558 172.995464 
L 522.070529 173.52655 
L 522.604501 172.911105 
L 523.672443 173.067123 
L 524.206414 172.580127 
L 524.740386 173.506689 
L 525.274357 173.224257 
L 526.3423 173.550066 
L 526.876271 173.870253 
L 527.410242 173.463889 
L 527.944214 173.309775 
L 528.478185 174.370365 
L 529.012156 174.641543 
L 529.546127 173.336782 
L 530.080099 174.511969 
L 530.61407 174.789815 
L 531.148041 174.779389 
L 531.682013 174.237352 
L 532.215984 174.548939 
L 532.749955 174.300293 
L 533.283926 174.250603 
L 533.817898 174.571552 
L 534.351869 174.630708 
L 534.88584 174.100518 
L 535.419812 174.358606 
L 535.953783 173.547171 
L 537.555697 174.726061 
L 538.089668 174.763368 
L 538.623639 174.404266 
L 539.157611 173.868562 
L 539.691582 174.002336 
L 540.225553 174.499336 
L 540.759525 174.761793 
L 541.293496 174.237576 
L 541.827467 173.960542 
L 542.361438 174.456797 
L 542.89541 174.608312 
L 543.429381 173.651449 
L 543.963352 174.262652 
L 544.497324 173.571319 
L 545.031295 173.445559 
L 545.565266 174.284243 
L 546.099237 174.647367 
L 546.633209 174.143819 
L 547.16718 175.098752 
L 547.701151 174.592985 
L 548.235123 174.67441 
L 548.769094 173.986843 
L 549.303065 174.89315 
L 549.837036 175.040789 
L 550.371008 174.521271 
L 550.904979 174.31169 
L 551.43895 174.409975 
L 551.972922 174.844725 
L 552.506893 174.091942 
L 553.040864 174.054085 
L 553.574836 175.056739 
L 554.108807 175.179453 
L 554.642778 174.76291 
L 555.176749 175.188881 
L 555.710721 174.606071 
L 556.244692 174.643741 
L 556.778663 175.360247 
L 557.312635 174.345135 
L 557.846606 174.196209 
L 558.380577 174.545014 
L 558.914548 174.055634 
L 559.44852 174.603814 
L 559.982491 174.591183 
L 560.516462 174.85815 
L 561.050434 175.470077 
L 562.652347 174.592355 
L 563.186319 175.085638 
L 564.788233 175.479677 
L 565.856175 174.720709 
L 566.390147 175.256771 
L 566.924118 174.918766 
L 567.458089 175.417736 
L 567.99206 174.536108 
L 568.526032 174.684633 
L 569.060003 174.961427 
L 569.593974 174.675325 
L 570.127946 174.602429 
L 570.661917 174.976565 
L 571.195888 175.109405 
L 571.729859 175.082062 
L 572.263831 175.327841 
L 572.797802 175.332892 
L 573.331773 175.704394 
L 573.865745 175.749832 
L 574.399716 176.00514 
L 575.467658 175.331336 
L 576.00163 175.820725 
L 576.535601 175.670553 
L 577.069572 176.437552 
L 577.603544 176.022944 
L 578.137515 175.79007 
L 578.671486 175.892828 
L 579.205458 176.684125 
L 579.739429 176.529924 
L 580.2734 176.862434 
L 580.807371 176.827581 
L 581.875314 176.121104 
L 582.409285 176.371403 
L 582.943257 176.282667 
L 583.477228 176.55121 
L 584.011199 175.998972 
L 584.54517 176.438404 
L 585.079142 176.232709 
L 587.748998 176.191065 
L 588.282969 176.533566 
L 589.350912 176.851348 
L 589.884883 176.071476 
L 590.418855 176.531128 
L 590.952826 176.313304 
L 591.486797 176.241809 
L 592.020769 176.342322 
L 592.55474 176.154964 
L 593.088711 176.730567 
L 594.156654 176.218591 
L 594.690625 175.822586 
L 595.224596 176.737825 
L 596.292539 176.679438 
L 596.82651 176.37128 
L 597.360481 176.406383 
L 597.894453 176.716217 
L 598.428424 176.815412 
L 598.962395 177.092024 
L 599.496367 177.029247 
L 600.030338 176.541315 
L 600.564309 176.447746 
L 601.098281 177.045527 
L 602.166223 176.949279 
L 602.700194 177.623724 
L 603.234166 177.333461 
L 603.768137 177.417731 
L 604.302108 177.706311 
L 604.83608 177.852056 
L 605.370051 177.331983 
L 605.904022 177.404682 
L 606.437993 177.087448 
L 606.971965 177.158187 
L 607.505936 177.398378 
L 608.039907 177.790668 
L 608.573879 177.673758 
L 609.10785 177.360908 
L 609.641821 177.671818 
L 610.175792 177.4662 
L 610.709764 177.428796 
L 611.243735 177.569326 
L 611.777706 177.546279 
L 612.311678 177.915382 
L 612.845649 177.810681 
L 613.913592 178.110901 
L 614.447563 178.166555 
L 614.981534 178.094477 
L 615.515505 178.494665 
L 616.049477 178.181803 
L 616.583448 178.777438 
L 617.117419 178.034988 
L 618.185362 178.678885 
L 618.719333 178.273268 
L 619.253304 178.558078 
L 619.787276 178.645732 
L 620.321247 178.979903 
L 620.855218 178.604421 
L 621.38919 178.72779 
L 621.923161 179.086753 
L 622.457132 179.201082 
L 622.991103 179.159582 
L 623.525075 179.666424 
L 624.059046 178.766806 
L 624.593017 178.962582 
L 625.126989 179.279921 
L 625.126989 179.279921 
" clip-path="url(#pb002c1d93a)" style="fill: none; stroke: #1f77b4; stroke-width: 1.5; stroke-linecap: square"/>
   </g>
   <g id="line2d_12">
    <path d="M 117.854261 296.03625 
L 118.388233 293.670519 
L 118.922204 246.011862 
L 119.456175 269.986081 
L 119.990147 278.80496 
L 120.524118 248.797222 
L 121.058089 230.620247 
L 121.59206 249.231156 
L 122.126032 223.688053 
L 122.660003 220.004876 
L 123.193974 208.447941 
L 123.727946 211.42837 
L 124.261917 210.881812 
L 124.795888 207.172589 
L 125.329859 205.397716 
L 125.863831 204.796222 
L 126.397802 201.902029 
L 126.931773 204.825475 
L 127.465745 199.039532 
L 127.999716 198.542908 
L 128.533687 192.649877 
L 129.067658 193.698227 
L 129.60163 192.006893 
L 130.135601 194.531603 
L 130.669572 193.321072 
L 131.203544 195.950344 
L 131.737515 197.127018 
L 132.271486 197.851664 
L 132.805458 197.33166 
L 133.339429 192.321801 
L 133.8734 190.967719 
L 134.407371 193.33488 
L 134.941343 192.207896 
L 136.009285 192.261632 
L 136.543257 189.654198 
L 137.077228 190.520908 
L 138.14517 191.552946 
L 138.679142 192.103944 
L 139.213113 192.268471 
L 139.747084 189.139459 
L 140.281056 187.000513 
L 140.815027 188.560084 
L 141.348998 190.703189 
L 141.882969 191.730823 
L 142.416941 190.152641 
L 142.950912 189.313256 
L 143.484883 190.141136 
L 144.018855 189.859756 
L 144.552826 189.199789 
L 145.086797 188.181538 
L 145.620769 189.724939 
L 146.15474 185.408925 
L 146.688711 186.78425 
L 147.222682 189.527407 
L 147.756654 190.100574 
L 148.290625 186.043988 
L 148.824596 188.646009 
L 149.358568 187.302461 
L 149.892539 187.322897 
L 150.42651 188.79512 
L 150.960481 187.482793 
L 151.494453 184.947255 
L 152.028424 187.693612 
L 152.562395 186.691977 
L 153.096367 188.118964 
L 153.630338 188.999593 
L 154.698281 186.831658 
L 155.232252 188.620825 
L 155.766223 188.360617 
L 156.300194 188.945293 
L 156.834166 187.132025 
L 157.368137 186.201876 
L 157.902108 188.283568 
L 158.970051 187.196792 
L 159.504022 186.938449 
L 160.037993 187.869209 
L 160.571965 189.448849 
L 161.105936 186.718774 
L 161.639907 187.926137 
L 162.173879 188.029027 
L 162.70785 190.577963 
L 163.241821 188.203017 
L 163.775792 187.138785 
L 164.309764 187.142223 
L 164.843735 186.650825 
L 165.377706 187.646986 
L 165.911678 189.119807 
L 166.445649 187.357287 
L 167.513592 186.780915 
L 168.581534 187.368904 
L 169.649477 186.468459 
L 170.183448 186.8359 
L 170.717419 186.971379 
L 171.251391 186.899701 
L 171.785362 185.093429 
L 172.853304 187.794619 
L 173.387276 185.873828 
L 173.921247 187.042895 
L 174.455218 187.159686 
L 174.98919 186.253183 
L 175.523161 188.14548 
L 176.057132 186.173962 
L 176.591103 185.537409 
L 177.125075 184.507913 
L 177.659046 185.289264 
L 178.193017 185.491353 
L 179.26096 185.50605 
L 179.794931 186.706911 
L 181.396845 186.282175 
L 181.930816 187.690941 
L 182.464788 187.862135 
L 182.998759 187.247781 
L 183.53273 187.676233 
L 184.066702 187.559511 
L 184.600673 186.670892 
L 185.134644 186.806549 
L 185.668615 187.357622 
L 186.202587 185.867307 
L 186.736558 187.427715 
L 187.270529 187.569171 
L 187.804501 186.07568 
L 188.338472 187.16852 
L 188.872443 186.5731 
L 189.940386 187.488045 
L 190.474357 188.414262 
L 191.008328 186.39198 
L 191.5423 186.976814 
L 192.076271 187.007496 
L 192.610242 187.455282 
L 193.144214 187.062753 
L 193.678185 187.688059 
L 194.212156 188.913983 
L 194.746127 187.573495 
L 195.81407 187.191744 
L 196.348041 188.389262 
L 196.882013 187.798525 
L 197.415984 188.176457 
L 197.949955 187.385669 
L 198.483926 187.75249 
L 199.017898 188.699782 
L 199.551869 187.992732 
L 200.619812 187.416289 
L 201.153783 187.418395 
L 201.687754 188.303428 
L 202.221725 188.623496 
L 202.755697 187.288899 
L 203.289668 187.427393 
L 203.823639 186.829265 
L 205.425553 187.035494 
L 205.959525 187.28354 
L 206.493496 186.891307 
L 207.027467 186.72 
L 207.561438 188.287451 
L 208.09541 187.859376 
L 208.629381 187.743438 
L 209.163352 188.356273 
L 209.697324 188.02346 
L 210.231295 188.876462 
L 210.765266 188.073269 
L 211.299237 188.013018 
L 211.833209 188.164853 
L 212.901151 188.680438 
L 213.435123 188.271192 
L 213.969094 187.5247 
L 214.503065 188.341547 
L 215.037036 188.324353 
L 215.571008 189.009177 
L 216.104979 188.05667 
L 216.63895 188.160156 
L 217.706893 187.39402 
L 218.240864 188.24029 
L 218.774836 188.117727 
L 219.308807 188.362317 
L 220.376749 187.579802 
L 220.910721 188.523492 
L 221.444692 187.779426 
L 221.978663 188.004608 
L 222.512635 188.050907 
L 223.046606 187.705057 
L 224.114548 188.714194 
L 224.64852 188.091426 
L 225.182491 188.294446 
L 225.716462 188.372829 
L 226.250434 187.862224 
L 227.318376 189.328308 
L 227.852347 188.385363 
L 228.386319 188.20942 
L 228.92029 187.831949 
L 229.454261 189.396933 
L 229.988233 188.005285 
L 230.522204 188.784901 
L 231.056175 187.040929 
L 231.590147 188.521028 
L 232.124118 188.971472 
L 232.658089 189.738808 
L 233.19206 189.229262 
L 233.726032 189.357389 
L 234.260003 188.446275 
L 234.793974 187.861986 
L 235.327946 189.002622 
L 235.861917 188.464863 
L 236.395888 188.759545 
L 236.929859 188.493274 
L 237.997802 187.552388 
L 238.531773 188.515434 
L 239.065745 187.482559 
L 239.599716 188.208671 
L 240.133687 188.294128 
L 240.667658 188.216891 
L 241.20163 187.922589 
L 241.735601 188.012822 
L 242.269572 187.853364 
L 242.803544 187.512304 
L 243.871486 188.52519 
L 244.405458 188.286137 
L 244.939429 188.223808 
L 245.4734 188.930585 
L 246.007371 188.287846 
L 246.541343 187.929877 
L 247.075314 188.750086 
L 247.609285 188.931987 
L 248.143257 188.828422 
L 248.677228 187.992121 
L 249.74517 188.912342 
L 250.813113 188.581938 
L 251.347084 188.857937 
L 251.881056 188.733222 
L 252.415027 188.460897 
L 253.482969 189.477394 
L 254.016941 189.028242 
L 254.550912 189.131799 
L 255.084883 188.861658 
L 255.618855 189.526858 
L 256.152826 189.535713 
L 257.220769 188.843236 
L 257.75474 188.902469 
L 258.288711 188.297058 
L 258.822682 189.54924 
L 259.356654 188.985136 
L 260.958568 189.774629 
L 261.492539 189.788429 
L 262.560481 189.519565 
L 263.094453 190.233118 
L 263.628424 189.702311 
L 264.162395 189.514199 
L 264.696367 190.08353 
L 265.230338 190.008336 
L 265.764309 189.565447 
L 266.298281 189.583096 
L 266.832252 190.037254 
L 267.366223 189.91953 
L 268.434166 190.246258 
L 268.968137 188.569576 
L 269.502108 189.174707 
L 270.03608 189.990945 
L 270.570051 189.358044 
L 271.104022 189.515732 
L 271.637993 190.11674 
L 272.171965 190.121262 
L 272.705936 190.574514 
L 273.239907 190.013054 
L 274.30785 190.082704 
L 275.375792 189.159987 
L 275.909764 189.122912 
L 276.443735 190.043139 
L 276.977706 189.066995 
L 277.511678 189.494748 
L 278.045649 189.70741 
L 278.57962 189.284489 
L 279.113592 188.605509 
L 279.647563 188.988014 
L 280.181534 188.617698 
L 280.715505 189.643596 
L 281.249477 189.470632 
L 281.783448 188.767958 
L 282.317419 188.414101 
L 282.851391 188.195484 
L 283.385362 189.182142 
L 283.919333 189.285755 
L 284.453304 188.604241 
L 284.987276 188.630051 
L 286.055218 189.001234 
L 286.58919 188.555197 
L 287.123161 188.711234 
L 287.657132 188.331132 
L 288.191103 188.216426 
L 288.725075 188.946966 
L 289.259046 188.868593 
L 289.793017 186.61303 
L 290.326989 187.3314 
L 290.86096 187.278921 
L 291.394931 188.626443 
L 291.928903 188.356777 
L 292.462874 188.236927 
L 292.996845 189.014136 
L 293.530816 188.35781 
L 294.064788 188.732627 
L 294.598759 188.594183 
L 295.666702 187.977919 
L 296.200673 188.852699 
L 296.734644 188.838792 
L 297.268615 188.572765 
L 297.802587 187.58102 
L 298.336558 188.035673 
L 298.870529 188.068834 
L 299.404501 188.700876 
L 299.938472 188.052588 
L 300.472443 188.169167 
L 301.006414 188.687222 
L 301.540386 187.943018 
L 302.074357 188.021358 
L 302.608328 188.77915 
L 303.1423 187.496709 
L 303.676271 188.089395 
L 304.210242 188.053076 
L 304.744214 188.150853 
L 306.346127 187.922646 
L 306.880099 186.703195 
L 307.41407 187.536367 
L 307.948041 188.008924 
L 309.015984 187.626979 
L 309.549955 187.479456 
L 310.083926 187.854597 
L 310.617898 188.015779 
L 311.68584 187.371093 
L 312.753783 187.613359 
L 313.287754 187.426125 
L 313.821725 187.772992 
L 315.423639 187.031821 
L 315.957611 187.559654 
L 316.491582 187.190519 
L 317.025553 187.5633 
L 317.559525 187.427299 
L 318.093496 187.129459 
L 319.161438 187.940556 
L 319.69541 187.680124 
L 320.229381 187.68277 
L 320.763352 187.422893 
L 321.297324 187.429192 
L 321.831295 187.247293 
L 322.365266 187.229189 
L 322.899237 187.632436 
L 323.433209 187.059433 
L 323.96718 186.9121 
L 324.501151 187.470026 
L 325.035123 186.911189 
L 325.569094 186.861304 
L 326.637036 188.172784 
L 327.171008 188.13753 
L 327.704979 186.583549 
L 328.23895 186.979654 
L 328.772922 187.521703 
L 329.306893 186.950001 
L 329.840864 187.320842 
L 330.374836 187.351116 
L 330.908807 187.18988 
L 331.442778 187.486731 
L 331.976749 187.064197 
L 332.510721 188.068991 
L 333.044692 187.438666 
L 333.578663 187.525588 
L 334.112635 187.213787 
L 334.646606 187.064928 
L 335.180577 187.534254 
L 335.714548 186.999843 
L 336.24852 186.926129 
L 337.316462 187.337595 
L 337.850434 187.268334 
L 338.384405 187.325297 
L 339.452347 188.006475 
L 339.986319 187.257402 
L 340.52029 187.061195 
L 341.054261 187.293884 
L 341.588233 187.793211 
L 342.122204 187.372868 
L 342.656175 187.207817 
L 343.190147 187.337196 
L 343.724118 187.697688 
L 344.258089 187.695944 
L 344.79206 187.416677 
L 345.326032 187.27155 
L 345.860003 187.498069 
L 346.393974 186.499071 
L 346.927946 187.45085 
L 347.461917 187.487471 
L 348.529859 187.079629 
L 349.063831 187.896338 
L 349.597802 188.090981 
L 350.131773 187.424129 
L 350.665745 187.19887 
L 351.199716 187.659776 
L 351.733687 187.411044 
L 352.267658 188.069676 
L 353.335601 187.84988 
L 353.869572 187.070756 
L 354.403544 187.950427 
L 355.471486 187.633012 
L 356.005458 188.045176 
L 356.539429 187.762842 
L 357.0734 188.078089 
L 357.607371 187.860503 
L 358.141343 187.220608 
L 358.675314 187.392386 
L 359.743257 187.36011 
L 360.277228 187.501666 
L 360.811199 187.962535 
L 361.34517 188.130643 
L 361.879142 187.961241 
L 362.413113 188.060456 
L 362.947084 187.395321 
L 363.481056 188.152944 
L 364.548998 187.777553 
L 365.082969 188.221934 
L 365.616941 188.327467 
L 366.150912 187.334414 
L 366.684883 187.575282 
L 367.218855 187.386209 
L 367.752826 187.621626 
L 368.820769 187.691807 
L 369.35474 187.598309 
L 369.888711 187.866171 
L 370.422682 188.502235 
L 370.956654 187.314569 
L 371.490625 187.493962 
L 372.024596 187.450727 
L 372.558568 187.814029 
L 373.092539 187.417195 
L 373.62651 187.974649 
L 374.694453 187.508638 
L 375.228424 187.346572 
L 375.762395 187.041069 
L 376.296367 187.641585 
L 376.830338 186.948475 
L 378.432252 187.407369 
L 378.966223 187.783451 
L 379.500194 186.782889 
L 380.034166 186.524814 
L 380.568137 187.174069 
L 381.102108 186.954514 
L 382.170051 187.170452 
L 382.704022 186.948924 
L 383.237993 187.357923 
L 383.771965 186.64722 
L 384.305936 186.591312 
L 384.839907 187.170567 
L 385.373879 186.922178 
L 385.90785 187.859855 
L 386.441821 187.608934 
L 386.975792 186.862467 
L 387.509764 187.229374 
L 388.043735 187.81697 
L 388.577706 187.636123 
L 389.111678 187.21291 
L 389.645649 187.445551 
L 390.17962 188.112018 
L 390.713592 187.574905 
L 391.247563 188.25343 
L 392.315505 187.376497 
L 392.849477 187.700975 
L 393.383448 187.308583 
L 394.451391 187.314403 
L 394.985362 186.835633 
L 395.519333 187.844397 
L 397.121247 187.208921 
L 397.655218 186.666028 
L 398.18919 187.334858 
L 398.723161 186.874302 
L 399.791103 187.869404 
L 400.325075 187.228491 
L 400.859046 187.823869 
L 401.393017 187.239268 
L 401.926989 187.020496 
L 402.46096 187.197063 
L 402.994931 187.932748 
L 403.528903 187.430735 
L 404.062874 187.394432 
L 404.596845 187.476013 
L 405.130816 187.297475 
L 405.664788 187.682553 
L 406.73273 187.372028 
L 407.266702 187.628201 
L 407.800673 186.783212 
L 408.334644 187.074856 
L 408.868615 186.839405 
L 409.402587 187.515935 
L 409.936558 187.763284 
L 410.470529 187.505691 
L 411.004501 186.969055 
L 411.538472 187.109494 
L 412.072443 187.535298 
L 412.606414 187.599074 
L 413.140386 187.05674 
L 413.674357 187.478947 
L 414.208328 186.890404 
L 414.7423 187.426476 
L 415.276271 186.929427 
L 415.810242 187.25694 
L 416.878185 187.646823 
L 417.412156 187.341754 
L 418.480099 187.365084 
L 419.01407 188.043789 
L 419.548041 187.491406 
L 420.082013 187.225406 
L 421.683926 187.781165 
L 422.217898 187.21531 
L 422.751869 187.431781 
L 423.28584 187.030991 
L 423.819812 187.667348 
L 424.353783 187.632509 
L 424.887754 187.483169 
L 425.421725 187.892397 
L 425.955697 188.030297 
L 426.489668 187.892854 
L 427.023639 187.209789 
L 427.557611 187.498252 
L 428.091582 187.144424 
L 428.625553 187.409736 
L 429.159525 187.265258 
L 429.693496 187.92355 
L 430.227467 187.202294 
L 430.761438 188.344075 
L 431.29541 187.628879 
L 431.829381 187.287634 
L 432.363352 187.250385 
L 432.897324 187.988552 
L 433.431295 187.071004 
L 433.965266 187.082474 
L 434.499237 187.294689 
L 435.033209 187.221526 
L 435.56718 187.028633 
L 436.101151 185.158508 
L 436.635123 184.299615 
L 437.169094 184.500074 
L 437.703065 185.277536 
L 438.771008 185.268716 
L 439.304979 185.015152 
L 439.83895 185.796076 
L 440.372922 185.957616 
L 440.906893 185.848003 
L 441.974836 185.892563 
L 443.042778 185.735179 
L 443.576749 186.276245 
L 444.110721 185.92426 
L 444.644692 186.247262 
L 445.178663 186.411477 
L 445.712635 185.734071 
L 446.246606 185.479624 
L 446.780577 185.718253 
L 447.314548 185.690473 
L 447.84852 186.112403 
L 448.382491 186.273486 
L 448.916462 186.295534 
L 449.450434 185.989211 
L 449.984405 186.997044 
L 451.052347 186.170765 
L 451.586319 185.977352 
L 452.12029 186.357478 
L 452.654261 186.875185 
L 453.188233 185.986072 
L 453.722204 185.923514 
L 454.256175 186.399051 
L 454.790147 186.190623 
L 455.324118 186.267194 
L 455.858089 186.775894 
L 456.39206 186.365425 
L 456.926032 186.908483 
L 457.460003 186.091172 
L 457.993974 185.744954 
L 458.527946 186.419137 
L 459.061917 186.485364 
L 459.595888 186.161955 
L 460.129859 186.35255 
L 462.265745 186.435734 
L 462.799716 186.270934 
L 463.333687 186.280163 
L 463.867658 186.571571 
L 464.40163 186.277754 
L 464.935601 186.138949 
L 465.469572 186.467975 
L 466.003544 186.182124 
L 466.537515 186.297055 
L 467.605458 186.071706 
L 468.139429 185.619711 
L 468.6734 186.231998 
L 469.207371 186.019974 
L 469.741343 186.273818 
L 471.343257 186.389846 
L 471.877228 186.049325 
L 472.411199 186.585675 
L 472.94517 185.907984 
L 473.479142 185.839286 
L 474.547084 185.906247 
L 475.081056 186.203396 
L 475.615027 186.185789 
L 477.216941 186.534952 
L 477.750912 186.425753 
L 478.284883 187.20929 
L 478.818855 186.719798 
L 479.352826 186.52465 
L 479.886797 186.153964 
L 480.420769 186.784297 
L 480.95474 186.40804 
L 482.022682 186.201713 
L 482.556654 186.48308 
L 484.692539 186.353096 
L 485.760481 186.642501 
L 486.294453 186.526376 
L 486.828424 185.881085 
L 487.362395 185.85757 
L 488.430338 186.964825 
L 488.964309 187.053255 
L 489.498281 186.680356 
L 490.032252 186.720612 
L 490.566223 186.554846 
L 491.100194 186.154126 
L 492.168137 186.243824 
L 492.702108 186.221894 
L 493.23608 185.734358 
L 493.770051 186.339099 
L 494.304022 186.253976 
L 494.837993 186.357352 
L 495.371965 186.635677 
L 495.905936 186.454912 
L 496.439907 186.401728 
L 496.973879 186.75468 
L 497.50785 186.846287 
L 498.041821 186.299263 
L 498.575792 186.117263 
L 499.109764 186.345605 
L 499.643735 186.360191 
L 500.177706 186.623006 
L 500.711678 186.388703 
L 501.245649 186.617551 
L 501.77962 186.09062 
L 502.313592 186.586596 
L 502.847563 186.190007 
L 503.381534 186.660059 
L 503.915505 186.198314 
L 504.449477 186.091641 
L 505.517419 185.492679 
L 506.051391 185.887332 
L 507.119333 186.26005 
L 508.187276 185.864112 
L 508.721247 186.417145 
L 509.255218 186.632897 
L 509.78919 185.933708 
L 510.323161 186.047637 
L 510.857132 186.288551 
L 511.391103 185.935597 
L 511.925075 186.265923 
L 512.459046 185.779064 
L 512.993017 186.225575 
L 513.526989 186.262343 
L 514.06096 186.175022 
L 515.128903 186.227135 
L 515.662874 186.45161 
L 516.196845 185.973284 
L 516.730816 186.244271 
L 517.264788 186.168642 
L 517.798759 185.807737 
L 518.33273 185.955103 
L 518.866702 185.719193 
L 519.400673 185.649423 
L 519.934644 185.813152 
L 520.468615 185.62288 
L 521.002587 185.698558 
L 521.536558 186.135217 
L 522.070529 186.148878 
L 522.604501 185.919774 
L 523.138472 186.061994 
L 523.672443 185.963711 
L 524.206414 186.235315 
L 526.3423 185.818094 
L 526.876271 185.097689 
L 527.410242 185.180212 
L 527.944214 185.592678 
L 528.478185 185.437189 
L 529.012156 185.40739 
L 529.546127 185.814178 
L 530.080099 185.288091 
L 530.61407 185.297282 
L 531.148041 185.748318 
L 531.682013 186.011659 
L 532.215984 185.750687 
L 532.749955 185.921088 
L 533.817898 185.553697 
L 534.351869 185.815104 
L 534.88584 186.233264 
L 535.419812 186.316116 
L 535.953783 186.106491 
L 536.487754 186.302507 
L 537.555697 186.116011 
L 538.089668 186.737963 
L 538.623639 186.254033 
L 539.157611 186.364181 
L 539.691582 186.005004 
L 541.293496 185.818936 
L 541.827467 186.107107 
L 542.89541 186.203682 
L 543.429381 185.955973 
L 543.963352 186.32537 
L 544.497324 185.95286 
L 545.031295 186.028157 
L 545.565266 185.742714 
L 546.099237 185.72313 
L 546.633209 186.013151 
L 547.701151 185.709862 
L 548.769094 185.929628 
L 549.303065 185.404373 
L 549.837036 185.736935 
L 550.371008 186.478309 
L 550.904979 185.97255 
L 551.43895 186.223972 
L 551.972922 185.852485 
L 552.506893 186.132174 
L 553.040864 186.277131 
L 553.574836 186.02464 
L 554.108807 186.005793 
L 554.642778 185.790291 
L 555.176749 185.379349 
L 555.710721 185.745231 
L 556.778663 185.577989 
L 557.312635 185.490213 
L 557.846606 185.71399 
L 558.380577 185.547125 
L 558.914548 186.376341 
L 559.44852 185.685145 
L 559.982491 185.437634 
L 560.516462 185.782203 
L 561.050434 185.450856 
L 561.584405 185.439633 
L 562.652347 185.955089 
L 563.186319 185.591906 
L 564.254261 185.952991 
L 564.788233 185.654438 
L 565.322204 185.861792 
L 565.856175 185.674963 
L 566.390147 185.971651 
L 566.924118 186.050419 
L 567.458089 185.671561 
L 567.99206 185.714797 
L 568.526032 185.910593 
L 569.060003 185.816853 
L 569.593974 185.941182 
L 570.127946 185.56361 
L 570.661917 185.856095 
L 571.195888 185.937247 
L 571.729859 185.525211 
L 572.797802 185.502809 
L 573.331773 185.799641 
L 573.865745 185.316523 
L 574.399716 185.723265 
L 574.933687 185.748763 
L 575.467658 185.469673 
L 576.00163 186.073279 
L 576.535601 185.85243 
L 577.069572 186.304317 
L 577.603544 185.806278 
L 578.137515 185.647092 
L 578.671486 185.774718 
L 579.205458 185.772281 
L 579.739429 185.331673 
L 580.2734 185.665762 
L 580.807371 185.342823 
L 582.409285 186.082109 
L 582.943257 186.089877 
L 583.477228 184.787684 
L 584.011199 185.59565 
L 585.079142 185.976348 
L 585.613113 185.979838 
L 586.147084 185.464481 
L 587.215027 185.766317 
L 587.748998 185.304157 
L 588.282969 185.241858 
L 588.816941 185.630348 
L 589.884883 185.863152 
L 590.418855 185.674776 
L 590.952826 185.842227 
L 591.486797 185.839063 
L 592.020769 185.343559 
L 593.088711 185.748516 
L 593.622682 185.667737 
L 594.156654 185.860776 
L 594.690625 185.722093 
L 595.224596 185.396313 
L 595.758568 185.506255 
L 596.292539 185.501576 
L 596.82651 185.122117 
L 597.360481 185.89944 
L 597.894453 185.378716 
L 598.428424 185.717443 
L 598.962395 185.3795 
L 599.496367 185.614582 
L 600.564309 185.826792 
L 601.098281 185.921637 
L 602.166223 185.273631 
L 602.700194 185.393312 
L 603.234166 185.974657 
L 603.768137 184.983217 
L 604.83608 185.771134 
L 605.370051 185.812377 
L 605.904022 185.487687 
L 606.971965 185.658713 
L 607.505936 185.350863 
L 608.039907 185.208361 
L 608.573879 185.581589 
L 609.10785 185.215886 
L 609.641821 185.230168 
L 610.709764 184.996668 
L 611.777706 185.660728 
L 612.311678 185.400554 
L 612.845649 185.493324 
L 613.913592 185.242921 
L 614.447563 185.382258 
L 614.981534 185.666778 
L 616.049477 185.047268 
L 617.117419 185.643121 
L 617.651391 185.291113 
L 618.185362 185.600169 
L 618.719333 185.163958 
L 619.253304 185.262357 
L 619.787276 185.641168 
L 620.321247 185.21704 
L 620.855218 185.502371 
L 621.38919 185.237078 
L 621.923161 185.503319 
L 622.457132 184.951404 
L 622.991103 185.278299 
L 623.525075 185.06473 
L 624.059046 185.618755 
L 625.126989 185.096539 
L 625.126989 185.096539 
" clip-path="url(#pb002c1d93a)" style="fill: none; stroke: #ff7f0e; stroke-width: 1.5; stroke-linecap: square"/>
   </g>
   <g id="patch_3">
    <path d="M 92.490625 308.63625 
L 92.490625 31.43625 
" style="fill: none; stroke: #000000; stroke-width: 0.8; stroke-linejoin: miter; stroke-linecap: square"/>
   </g>
   <g id="patch_4">
    <path d="M 650.490625 308.63625 
L 650.490625 31.43625 
" style="fill: none; stroke: #000000; stroke-width: 0.8; stroke-linejoin: miter; stroke-linecap: square"/>
   </g>
   <g id="patch_5">
    <path d="M 92.490625 308.63625 
L 650.490625 308.63625 
" style="fill: none; stroke: #000000; stroke-width: 0.8; stroke-linejoin: miter; stroke-linecap: square"/>
   </g>
   <g id="patch_6">
    <path d="M 92.490625 31.43625 
L 650.490625 31.43625 
" style="fill: none; stroke: #000000; stroke-width: 0.8; stroke-linejoin: miter; stroke-linecap: square"/>
   </g>
   <g id="text_13">
    <!-- Generator and Discriminator Loss During Training -->
    <g transform="translate(74.258125 25.43625) scale(0.24 -0.24)">
     <defs>
      <path id="DejaVuSans-47" d="M 3809 666 
L 3809 1919 
L 2778 1919 
L 2778 2438 
L 4434 2438 
L 4434 434 
Q 4069 175 3628 42 
Q 3188 -91 2688 -91 
Q 1594 -91 976 548 
Q 359 1188 359 2328 
Q 359 3472 976 4111 
Q 1594 4750 2688 4750 
Q 3144 4750 3555 4637 
Q 3966 4525 4313 4306 
L 4313 3634 
Q 3963 3931 3569 4081 
Q 3175 4231 2741 4231 
Q 1884 4231 1454 3753 
Q 1025 3275 1025 2328 
Q 1025 1384 1454 906 
Q 1884 428 2741 428 
Q 3075 428 3337 486 
Q 3600 544 3809 666 
z
" transform="scale(0.015625)"/>
      <path id="DejaVuSans-20" transform="scale(0.015625)"/>
      <path id="DejaVuSans-64" d="M 2906 2969 
L 2906 4863 
L 3481 4863 
L 3481 0 
L 2906 0 
L 2906 525 
Q 2725 213 2448 61 
Q 2172 -91 1784 -91 
Q 1150 -91 751 415 
Q 353 922 353 1747 
Q 353 2572 751 3078 
Q 1150 3584 1784 3584 
Q 2172 3584 2448 3432 
Q 2725 3281 2906 2969 
z
M 947 1747 
Q 947 1113 1208 752 
Q 1469 391 1925 391 
Q 2381 391 2643 752 
Q 2906 1113 2906 1747 
Q 2906 2381 2643 2742 
Q 2381 3103 1925 3103 
Q 1469 3103 1208 2742 
Q 947 2381 947 1747 
z
" transform="scale(0.015625)"/>
      <path id="DejaVuSans-44" d="M 1259 4147 
L 1259 519 
L 2022 519 
Q 2988 519 3436 956 
Q 3884 1394 3884 2338 
Q 3884 3275 3436 3711 
Q 2988 4147 2022 4147 
L 1259 4147 
z
M 628 4666 
L 1925 4666 
Q 3281 4666 3915 4102 
Q 4550 3538 4550 2338 
Q 4550 1131 3912 565 
Q 3275 0 1925 0 
L 628 0 
L 628 4666 
z
" transform="scale(0.015625)"/>
      <path id="DejaVuSans-63" d="M 3122 3366 
L 3122 2828 
Q 2878 2963 2633 3030 
Q 2388 3097 2138 3097 
Q 1578 3097 1268 2742 
Q 959 2388 959 1747 
Q 959 1106 1268 751 
Q 1578 397 2138 397 
Q 2388 397 2633 464 
Q 2878 531 3122 666 
L 3122 134 
Q 2881 22 2623 -34 
Q 2366 -91 2075 -91 
Q 1284 -91 818 406 
Q 353 903 353 1747 
Q 353 2603 823 3093 
Q 1294 3584 2113 3584 
Q 2378 3584 2631 3529 
Q 2884 3475 3122 3366 
z
" transform="scale(0.015625)"/>
      <path id="DejaVuSans-6d" d="M 3328 2828 
Q 3544 3216 3844 3400 
Q 4144 3584 4550 3584 
Q 5097 3584 5394 3201 
Q 5691 2819 5691 2113 
L 5691 0 
L 5113 0 
L 5113 2094 
Q 5113 2597 4934 2840 
Q 4756 3084 4391 3084 
Q 3944 3084 3684 2787 
Q 3425 2491 3425 1978 
L 3425 0 
L 2847 0 
L 2847 2094 
Q 2847 2600 2669 2842 
Q 2491 3084 2119 3084 
Q 1678 3084 1418 2786 
Q 1159 2488 1159 1978 
L 1159 0 
L 581 0 
L 581 3500 
L 1159 3500 
L 1159 2956 
Q 1356 3278 1631 3431 
Q 1906 3584 2284 3584 
Q 2666 3584 2933 3390 
Q 3200 3197 3328 2828 
z
" transform="scale(0.015625)"/>
      <path id="DejaVuSans-75" d="M 544 1381 
L 544 3500 
L 1119 3500 
L 1119 1403 
Q 1119 906 1312 657 
Q 1506 409 1894 409 
Q 2359 409 2629 706 
Q 2900 1003 2900 1516 
L 2900 3500 
L 3475 3500 
L 3475 0 
L 2900 0 
L 2900 538 
Q 2691 219 2414 64 
Q 2138 -91 1772 -91 
Q 1169 -91 856 284 
Q 544 659 544 1381 
z
M 1991 3584 
L 1991 3584 
z
" transform="scale(0.015625)"/>
      <path id="DejaVuSans-67" d="M 2906 1791 
Q 2906 2416 2648 2759 
Q 2391 3103 1925 3103 
Q 1463 3103 1205 2759 
Q 947 2416 947 1791 
Q 947 1169 1205 825 
Q 1463 481 1925 481 
Q 2391 481 2648 825 
Q 2906 1169 2906 1791 
z
M 3481 434 
Q 3481 -459 3084 -895 
Q 2688 -1331 1869 -1331 
Q 1566 -1331 1297 -1286 
Q 1028 -1241 775 -1147 
L 775 -588 
Q 1028 -725 1275 -790 
Q 1522 -856 1778 -856 
Q 2344 -856 2625 -561 
Q 2906 -266 2906 331 
L 2906 616 
Q 2728 306 2450 153 
Q 2172 0 1784 0 
Q 1141 0 747 490 
Q 353 981 353 1791 
Q 353 2603 747 3093 
Q 1141 3584 1784 3584 
Q 2172 3584 2450 3431 
Q 2728 3278 2906 2969 
L 2906 3500 
L 3481 3500 
L 3481 434 
z
" transform="scale(0.015625)"/>
      <path id="DejaVuSans-54" d="M -19 4666 
L 3928 4666 
L 3928 4134 
L 2272 4134 
L 2272 0 
L 1638 0 
L 1638 4134 
L -19 4134 
L -19 4666 
z
" transform="scale(0.015625)"/>
     </defs>
     <use xlink:href="#DejaVuSans-47"/>
     <use xlink:href="#DejaVuSans-65" x="77.490234"/>
     <use xlink:href="#DejaVuSans-6e" x="139.013672"/>
     <use xlink:href="#DejaVuSans-65" x="202.392578"/>
     <use xlink:href="#DejaVuSans-72" x="263.916016"/>
     <use xlink:href="#DejaVuSans-61" x="305.029297"/>
     <use xlink:href="#DejaVuSans-74" x="366.308594"/>
     <use xlink:href="#DejaVuSans-6f" x="405.517578"/>
     <use xlink:href="#DejaVuSans-72" x="466.699219"/>
     <use xlink:href="#DejaVuSans-20" x="507.8125"/>
     <use xlink:href="#DejaVuSans-61" x="539.599609"/>
     <use xlink:href="#DejaVuSans-6e" x="600.878906"/>
     <use xlink:href="#DejaVuSans-64" x="664.257812"/>
     <use xlink:href="#DejaVuSans-20" x="727.734375"/>
     <use xlink:href="#DejaVuSans-44" x="759.521484"/>
     <use xlink:href="#DejaVuSans-69" x="836.523438"/>
     <use xlink:href="#DejaVuSans-73" x="864.306641"/>
     <use xlink:href="#DejaVuSans-63" x="916.40625"/>
     <use xlink:href="#DejaVuSans-72" x="971.386719"/>
     <use xlink:href="#DejaVuSans-69" x="1012.5"/>
     <use xlink:href="#DejaVuSans-6d" x="1040.283203"/>
     <use xlink:href="#DejaVuSans-69" x="1137.695312"/>
     <use xlink:href="#DejaVuSans-6e" x="1165.478516"/>
     <use xlink:href="#DejaVuSans-61" x="1228.857422"/>
     <use xlink:href="#DejaVuSans-74" x="1290.136719"/>
     <use xlink:href="#DejaVuSans-6f" x="1329.345703"/>
     <use xlink:href="#DejaVuSans-72" x="1390.527344"/>
     <use xlink:href="#DejaVuSans-20" x="1431.640625"/>
     <use xlink:href="#DejaVuSans-4c" x="1463.427734"/>
     <use xlink:href="#DejaVuSans-6f" x="1517.390625"/>
     <use xlink:href="#DejaVuSans-73" x="1578.572266"/>
     <use xlink:href="#DejaVuSans-73" x="1630.671875"/>
     <use xlink:href="#DejaVuSans-20" x="1682.771484"/>
     <use xlink:href="#DejaVuSans-44" x="1714.558594"/>
     <use xlink:href="#DejaVuSans-75" x="1791.560547"/>
     <use xlink:href="#DejaVuSans-72" x="1854.939453"/>
     <use xlink:href="#DejaVuSans-69" x="1896.052734"/>
     <use xlink:href="#DejaVuSans-6e" x="1923.835938"/>
     <use xlink:href="#DejaVuSans-67" x="1987.214844"/>
     <use xlink:href="#DejaVuSans-20" x="2050.691406"/>
     <use xlink:href="#DejaVuSans-54" x="2082.478516"/>
     <use xlink:href="#DejaVuSans-72" x="2128.8125"/>
     <use xlink:href="#DejaVuSans-61" x="2169.925781"/>
     <use xlink:href="#DejaVuSans-69" x="2231.205078"/>
     <use xlink:href="#DejaVuSans-6e" x="2258.988281"/>
     <use xlink:href="#DejaVuSans-69" x="2322.367188"/>
     <use xlink:href="#DejaVuSans-6e" x="2350.150391"/>
     <use xlink:href="#DejaVuSans-67" x="2413.529297"/>
    </g>
   </g>
   <g id="legend_1">
    <g id="patch_7">
     <path d="M 556.99375 106.14875 
L 636.490625 106.14875 
Q 640.490625 106.14875 640.490625 102.14875 
L 640.490625 45.43625 
Q 640.490625 41.43625 636.490625 41.43625 
L 556.99375 41.43625 
Q 552.99375 41.43625 552.99375 45.43625 
L 552.99375 102.14875 
Q 552.99375 106.14875 556.99375 106.14875 
z
" style="fill: #ffffff; opacity: 0.8; stroke: #cccccc; stroke-linejoin: miter"/>
    </g>
    <g id="line2d_13">
     <path d="M 560.99375 57.633125 
L 580.99375 57.633125 
L 600.99375 57.633125 
" style="fill: none; stroke: #1f77b4; stroke-width: 1.5; stroke-linecap: square"/>
    </g>
    <g id="text_14">
     <!-- G -->
     <g transform="translate(616.99375 64.633125) scale(0.2 -0.2)">
      <use xlink:href="#DejaVuSans-47"/>
     </g>
    </g>
    <g id="line2d_14">
     <path d="M 560.99375 86.989375 
L 580.99375 86.989375 
L 600.99375 86.989375 
" style="fill: none; stroke: #ff7f0e; stroke-width: 1.5; stroke-linecap: square"/>
    </g>
    <g id="text_15">
     <!-- D -->
     <g transform="translate(616.99375 93.989375) scale(0.2 -0.2)">
      <use xlink:href="#DejaVuSans-44"/>
     </g>
    </g>
   </g>
  </g>
 </g>
 <defs>
  <clipPath id="pb002c1d93a">
   <rect x="92.490625" y="31.43625" width="558" height="277.2"/>
  </clipPath>
 </defs>
</svg>
