<?xml version="1.0" encoding="utf-8" standalone="no"?>
<!DOCTYPE svg PUBLIC "-//W3C//DTD SVG 1.1//EN"
  "http://www.w3.org/Graphics/SVG/1.1/DTD/svg11.dtd">
<svg xmlns:xlink="http://www.w3.org/1999/xlink" width="675.923125pt" height="365.54875pt" viewBox="0 0 675.923125 365.54875" xmlns="http://www.w3.org/2000/svg" version="1.1">
 <metadata>
  <rdf:RDF xmlns:dc="http://purl.org/dc/elements/1.1/" xmlns:cc="http://creativecommons.org/ns#" xmlns:rdf="http://www.w3.org/1999/02/22-rdf-syntax-ns#">
   <cc:Work>
    <dc:type rdf:resource="http://purl.org/dc/dcmitype/StillImage"/>
    <dc:date>2024-02-02T15:49:18.076085</dc:date>
    <dc:format>image/svg+xml</dc:format>
    <dc:creator>
     <cc:Agent>
      <dc:title>Matplotlib v3.7.2, https://matplotlib.org/</dc:title>
     </cc:Agent>
    </dc:creator>
   </cc:Work>
  </rdf:RDF>
 </metadata>
 <defs>
  <style type="text/css">*{stroke-linejoin: round; stroke-linecap: butt}</style>
 </defs>
 <g id="figure_1">
  <g id="patch_1">
   <path d="M 0 365.54875 
L 675.923125 365.54875 
L 675.923125 -0 
L 0 -0 
z
" style="fill: #ffffff"/>
  </g>
  <g id="axes_1">
   <g id="patch_2">
    <path d="M 92.490625 308.63625 
L 650.490625 308.63625 
L 650.490625 31.43625 
L 92.490625 31.43625 
z
" style="fill: #ffffff"/>
   </g>
   <g id="matplotlib.axis_1">
    <g id="xtick_1">
     <g id="line2d_1">
      <defs>
       <path id="ma3798f188b" d="M 0 0 
L 0 3.5 
" style="stroke: #000000; stroke-width: 0.8"/>
      </defs>
      <g>
       <use xlink:href="#ma3798f188b" x="117.854261" y="308.63625" style="stroke: #000000; stroke-width: 0.8"/>
      </g>
     </g>
     <g id="text_1">
      <!-- 0 -->
      <g transform="translate(111.491761 330.833125) scale(0.2 -0.2)">
       <defs>
        <path id="DejaVuSans-30" d="M 2034 4250 
Q 1547 4250 1301 3770 
Q 1056 3291 1056 2328 
Q 1056 1369 1301 889 
Q 1547 409 2034 409 
Q 2525 409 2770 889 
Q 3016 1369 3016 2328 
Q 3016 3291 2770 3770 
Q 2525 4250 2034 4250 
z
M 2034 4750 
Q 2819 4750 3233 4129 
Q 3647 3509 3647 2328 
Q 3647 1150 3233 529 
Q 2819 -91 2034 -91 
Q 1250 -91 836 529 
Q 422 1150 422 2328 
Q 422 3509 836 4129 
Q 1250 4750 2034 4750 
z
" transform="scale(0.015625)"/>
       </defs>
       <use xlink:href="#DejaVuSans-30"/>
      </g>
     </g>
    </g>
    <g id="xtick_2">
     <g id="line2d_2">
      <g>
       <use xlink:href="#ma3798f188b" x="199.017898" y="308.63625" style="stroke: #000000; stroke-width: 0.8"/>
      </g>
     </g>
     <g id="text_2">
      <!-- 200 -->
      <g transform="translate(179.930398 330.833125) scale(0.2 -0.2)">
       <defs>
        <path id="DejaVuSans-32" d="M 1228 531 
L 3431 531 
L 3431 0 
L 469 0 
L 469 531 
Q 828 903 1448 1529 
Q 2069 2156 2228 2338 
Q 2531 2678 2651 2914 
Q 2772 3150 2772 3378 
Q 2772 3750 2511 3984 
Q 2250 4219 1831 4219 
Q 1534 4219 1204 4116 
Q 875 4013 500 3803 
L 500 4441 
Q 881 4594 1212 4672 
Q 1544 4750 1819 4750 
Q 2544 4750 2975 4387 
Q 3406 4025 3406 3419 
Q 3406 3131 3298 2873 
Q 3191 2616 2906 2266 
Q 2828 2175 2409 1742 
Q 1991 1309 1228 531 
z
" transform="scale(0.015625)"/>
       </defs>
       <use xlink:href="#DejaVuSans-32"/>
       <use xlink:href="#DejaVuSans-30" x="63.623047"/>
       <use xlink:href="#DejaVuSans-30" x="127.246094"/>
      </g>
     </g>
    </g>
    <g id="xtick_3">
     <g id="line2d_3">
      <g>
       <use xlink:href="#ma3798f188b" x="280.181534" y="308.63625" style="stroke: #000000; stroke-width: 0.8"/>
      </g>
     </g>
     <g id="text_3">
      <!-- 400 -->
      <g transform="translate(261.094034 330.833125) scale(0.2 -0.2)">
       <defs>
        <path id="DejaVuSans-34" d="M 2419 4116 
L 825 1625 
L 2419 1625 
L 2419 4116 
z
M 2253 4666 
L 3047 4666 
L 3047 1625 
L 3713 1625 
L 3713 1100 
L 3047 1100 
L 3047 0 
L 2419 0 
L 2419 1100 
L 313 1100 
L 313 1709 
L 2253 4666 
z
" transform="scale(0.015625)"/>
       </defs>
       <use xlink:href="#DejaVuSans-34"/>
       <use xlink:href="#DejaVuSans-30" x="63.623047"/>
       <use xlink:href="#DejaVuSans-30" x="127.246094"/>
      </g>
     </g>
    </g>
    <g id="xtick_4">
     <g id="line2d_4">
      <g>
       <use xlink:href="#ma3798f188b" x="361.34517" y="308.63625" style="stroke: #000000; stroke-width: 0.8"/>
      </g>
     </g>
     <g id="text_4">
      <!-- 600 -->
      <g transform="translate(342.25767 330.833125) scale(0.2 -0.2)">
       <defs>
        <path id="DejaVuSans-36" d="M 2113 2584 
Q 1688 2584 1439 2293 
Q 1191 2003 1191 1497 
Q 1191 994 1439 701 
Q 1688 409 2113 409 
Q 2538 409 2786 701 
Q 3034 994 3034 1497 
Q 3034 2003 2786 2293 
Q 2538 2584 2113 2584 
z
M 3366 4563 
L 3366 3988 
Q 3128 4100 2886 4159 
Q 2644 4219 2406 4219 
Q 1781 4219 1451 3797 
Q 1122 3375 1075 2522 
Q 1259 2794 1537 2939 
Q 1816 3084 2150 3084 
Q 2853 3084 3261 2657 
Q 3669 2231 3669 1497 
Q 3669 778 3244 343 
Q 2819 -91 2113 -91 
Q 1303 -91 875 529 
Q 447 1150 447 2328 
Q 447 3434 972 4092 
Q 1497 4750 2381 4750 
Q 2619 4750 2861 4703 
Q 3103 4656 3366 4563 
z
" transform="scale(0.015625)"/>
       </defs>
       <use xlink:href="#DejaVuSans-36"/>
       <use xlink:href="#DejaVuSans-30" x="63.623047"/>
       <use xlink:href="#DejaVuSans-30" x="127.246094"/>
      </g>
     </g>
    </g>
    <g id="xtick_5">
     <g id="line2d_5">
      <g>
       <use xlink:href="#ma3798f188b" x="442.508807" y="308.63625" style="stroke: #000000; stroke-width: 0.8"/>
      </g>
     </g>
     <g id="text_5">
      <!-- 800 -->
      <g transform="translate(423.421307 330.833125) scale(0.2 -0.2)">
       <defs>
        <path id="DejaVuSans-38" d="M 2034 2216 
Q 1584 2216 1326 1975 
Q 1069 1734 1069 1313 
Q 1069 891 1326 650 
Q 1584 409 2034 409 
Q 2484 409 2743 651 
Q 3003 894 3003 1313 
Q 3003 1734 2745 1975 
Q 2488 2216 2034 2216 
z
M 1403 2484 
Q 997 2584 770 2862 
Q 544 3141 544 3541 
Q 544 4100 942 4425 
Q 1341 4750 2034 4750 
Q 2731 4750 3128 4425 
Q 3525 4100 3525 3541 
Q 3525 3141 3298 2862 
Q 3072 2584 2669 2484 
Q 3125 2378 3379 2068 
Q 3634 1759 3634 1313 
Q 3634 634 3220 271 
Q 2806 -91 2034 -91 
Q 1263 -91 848 271 
Q 434 634 434 1313 
Q 434 1759 690 2068 
Q 947 2378 1403 2484 
z
M 1172 3481 
Q 1172 3119 1398 2916 
Q 1625 2713 2034 2713 
Q 2441 2713 2670 2916 
Q 2900 3119 2900 3481 
Q 2900 3844 2670 4047 
Q 2441 4250 2034 4250 
Q 1625 4250 1398 4047 
Q 1172 3844 1172 3481 
z
" transform="scale(0.015625)"/>
       </defs>
       <use xlink:href="#DejaVuSans-38"/>
       <use xlink:href="#DejaVuSans-30" x="63.623047"/>
       <use xlink:href="#DejaVuSans-30" x="127.246094"/>
      </g>
     </g>
    </g>
    <g id="xtick_6">
     <g id="line2d_6">
      <g>
       <use xlink:href="#ma3798f188b" x="523.672443" y="308.63625" style="stroke: #000000; stroke-width: 0.8"/>
      </g>
     </g>
     <g id="text_6">
      <!-- 1000 -->
      <g transform="translate(498.222443 330.833125) scale(0.2 -0.2)">
       <defs>
        <path id="DejaVuSans-31" d="M 794 531 
L 1825 531 
L 1825 4091 
L 703 3866 
L 703 4441 
L 1819 4666 
L 2450 4666 
L 2450 531 
L 3481 531 
L 3481 0 
L 794 0 
L 794 531 
z
" transform="scale(0.015625)"/>
       </defs>
       <use xlink:href="#DejaVuSans-31"/>
       <use xlink:href="#DejaVuSans-30" x="63.623047"/>
       <use xlink:href="#DejaVuSans-30" x="127.246094"/>
       <use xlink:href="#DejaVuSans-30" x="190.869141"/>
      </g>
     </g>
    </g>
    <g id="xtick_7">
     <g id="line2d_7">
      <g>
       <use xlink:href="#ma3798f188b" x="604.83608" y="308.63625" style="stroke: #000000; stroke-width: 0.8"/>
      </g>
     </g>
     <g id="text_7">
      <!-- 1200 -->
      <g transform="translate(579.38608 330.833125) scale(0.2 -0.2)">
       <use xlink:href="#DejaVuSans-31"/>
       <use xlink:href="#DejaVuSans-32" x="63.623047"/>
       <use xlink:href="#DejaVuSans-30" x="127.246094"/>
       <use xlink:href="#DejaVuSans-30" x="190.869141"/>
      </g>
     </g>
    </g>
    <g id="text_8">
     <!-- iterations -->
     <g transform="translate(324.035938 354.189375) scale(0.2 -0.2)">
      <defs>
       <path id="DejaVuSans-69" d="M 603 3500 
L 1178 3500 
L 1178 0 
L 603 0 
L 603 3500 
z
M 603 4863 
L 1178 4863 
L 1178 4134 
L 603 4134 
L 603 4863 
z
" transform="scale(0.015625)"/>
       <path id="DejaVuSans-74" d="M 1172 4494 
L 1172 3500 
L 2356 3500 
L 2356 3053 
L 1172 3053 
L 1172 1153 
Q 1172 725 1289 603 
Q 1406 481 1766 481 
L 2356 481 
L 2356 0 
L 1766 0 
Q 1100 0 847 248 
Q 594 497 594 1153 
L 594 3053 
L 172 3053 
L 172 3500 
L 594 3500 
L 594 4494 
L 1172 4494 
z
" transform="scale(0.015625)"/>
       <path id="DejaVuSans-65" d="M 3597 1894 
L 3597 1613 
L 953 1613 
Q 991 1019 1311 708 
Q 1631 397 2203 397 
Q 2534 397 2845 478 
Q 3156 559 3463 722 
L 3463 178 
Q 3153 47 2828 -22 
Q 2503 -91 2169 -91 
Q 1331 -91 842 396 
Q 353 884 353 1716 
Q 353 2575 817 3079 
Q 1281 3584 2069 3584 
Q 2775 3584 3186 3129 
Q 3597 2675 3597 1894 
z
M 3022 2063 
Q 3016 2534 2758 2815 
Q 2500 3097 2075 3097 
Q 1594 3097 1305 2825 
Q 1016 2553 972 2059 
L 3022 2063 
z
" transform="scale(0.015625)"/>
       <path id="DejaVuSans-72" d="M 2631 2963 
Q 2534 3019 2420 3045 
Q 2306 3072 2169 3072 
Q 1681 3072 1420 2755 
Q 1159 2438 1159 1844 
L 1159 0 
L 581 0 
L 581 3500 
L 1159 3500 
L 1159 2956 
Q 1341 3275 1631 3429 
Q 1922 3584 2338 3584 
Q 2397 3584 2469 3576 
Q 2541 3569 2628 3553 
L 2631 2963 
z
" transform="scale(0.015625)"/>
       <path id="DejaVuSans-61" d="M 2194 1759 
Q 1497 1759 1228 1600 
Q 959 1441 959 1056 
Q 959 750 1161 570 
Q 1363 391 1709 391 
Q 2188 391 2477 730 
Q 2766 1069 2766 1631 
L 2766 1759 
L 2194 1759 
z
M 3341 1997 
L 3341 0 
L 2766 0 
L 2766 531 
Q 2569 213 2275 61 
Q 1981 -91 1556 -91 
Q 1019 -91 701 211 
Q 384 513 384 1019 
Q 384 1609 779 1909 
Q 1175 2209 1959 2209 
L 2766 2209 
L 2766 2266 
Q 2766 2663 2505 2880 
Q 2244 3097 1772 3097 
Q 1472 3097 1187 3025 
Q 903 2953 641 2809 
L 641 3341 
Q 956 3463 1253 3523 
Q 1550 3584 1831 3584 
Q 2591 3584 2966 3190 
Q 3341 2797 3341 1997 
z
" transform="scale(0.015625)"/>
       <path id="DejaVuSans-6f" d="M 1959 3097 
Q 1497 3097 1228 2736 
Q 959 2375 959 1747 
Q 959 1119 1226 758 
Q 1494 397 1959 397 
Q 2419 397 2687 759 
Q 2956 1122 2956 1747 
Q 2956 2369 2687 2733 
Q 2419 3097 1959 3097 
z
M 1959 3584 
Q 2709 3584 3137 3096 
Q 3566 2609 3566 1747 
Q 3566 888 3137 398 
Q 2709 -91 1959 -91 
Q 1206 -91 779 398 
Q 353 888 353 1747 
Q 353 2609 779 3096 
Q 1206 3584 1959 3584 
z
" transform="scale(0.015625)"/>
       <path id="DejaVuSans-6e" d="M 3513 2113 
L 3513 0 
L 2938 0 
L 2938 2094 
Q 2938 2591 2744 2837 
Q 2550 3084 2163 3084 
Q 1697 3084 1428 2787 
Q 1159 2491 1159 1978 
L 1159 0 
L 581 0 
L 581 3500 
L 1159 3500 
L 1159 2956 
Q 1366 3272 1645 3428 
Q 1925 3584 2291 3584 
Q 2894 3584 3203 3211 
Q 3513 2838 3513 2113 
z
" transform="scale(0.015625)"/>
       <path id="DejaVuSans-73" d="M 2834 3397 
L 2834 2853 
Q 2591 2978 2328 3040 
Q 2066 3103 1784 3103 
Q 1356 3103 1142 2972 
Q 928 2841 928 2578 
Q 928 2378 1081 2264 
Q 1234 2150 1697 2047 
L 1894 2003 
Q 2506 1872 2764 1633 
Q 3022 1394 3022 966 
Q 3022 478 2636 193 
Q 2250 -91 1575 -91 
Q 1294 -91 989 -36 
Q 684 19 347 128 
L 347 722 
Q 666 556 975 473 
Q 1284 391 1588 391 
Q 1994 391 2212 530 
Q 2431 669 2431 922 
Q 2431 1156 2273 1281 
Q 2116 1406 1581 1522 
L 1381 1569 
Q 847 1681 609 1914 
Q 372 2147 372 2553 
Q 372 3047 722 3315 
Q 1072 3584 1716 3584 
Q 2034 3584 2315 3537 
Q 2597 3491 2834 3397 
z
" transform="scale(0.015625)"/>
      </defs>
      <use xlink:href="#DejaVuSans-69"/>
      <use xlink:href="#DejaVuSans-74" x="27.783203"/>
      <use xlink:href="#DejaVuSans-65" x="66.992188"/>
      <use xlink:href="#DejaVuSans-72" x="128.515625"/>
      <use xlink:href="#DejaVuSans-61" x="169.628906"/>
      <use xlink:href="#DejaVuSans-74" x="230.908203"/>
      <use xlink:href="#DejaVuSans-69" x="270.117188"/>
      <use xlink:href="#DejaVuSans-6f" x="297.900391"/>
      <use xlink:href="#DejaVuSans-6e" x="359.082031"/>
      <use xlink:href="#DejaVuSans-73" x="422.460938"/>
     </g>
    </g>
   </g>
   <g id="matplotlib.axis_2">
    <g id="ytick_1">
     <g id="line2d_8">
      <defs>
       <path id="m9daec544ac" d="M 0 0 
L -3.5 0 
" style="stroke: #000000; stroke-width: 0.8"/>
      </defs>
      <g>
       <use xlink:href="#m9daec544ac" x="92.490625" y="279.562782" style="stroke: #000000; stroke-width: 0.8"/>
      </g>
     </g>
     <g id="text_9">
      <!-- −200 -->
      <g transform="translate(30.55625 287.16122) scale(0.2 -0.2)">
       <defs>
        <path id="DejaVuSans-2212" d="M 678 2272 
L 4684 2272 
L 4684 1741 
L 678 1741 
L 678 2272 
z
" transform="scale(0.015625)"/>
       </defs>
       <use xlink:href="#DejaVuSans-2212"/>
       <use xlink:href="#DejaVuSans-32" x="83.789062"/>
       <use xlink:href="#DejaVuSans-30" x="147.412109"/>
       <use xlink:href="#DejaVuSans-30" x="211.035156"/>
      </g>
     </g>
    </g>
    <g id="ytick_2">
     <g id="line2d_9">
      <g>
       <use xlink:href="#m9daec544ac" x="92.490625" y="229.718252" style="stroke: #000000; stroke-width: 0.8"/>
      </g>
     </g>
     <g id="text_10">
      <!-- −100 -->
      <g transform="translate(30.55625 237.316689) scale(0.2 -0.2)">
       <use xlink:href="#DejaVuSans-2212"/>
       <use xlink:href="#DejaVuSans-31" x="83.789062"/>
       <use xlink:href="#DejaVuSans-30" x="147.412109"/>
       <use xlink:href="#DejaVuSans-30" x="211.035156"/>
      </g>
     </g>
    </g>
    <g id="ytick_3">
     <g id="line2d_10">
      <g>
       <use xlink:href="#m9daec544ac" x="92.490625" y="179.873722" style="stroke: #000000; stroke-width: 0.8"/>
      </g>
     </g>
     <g id="text_11">
      <!-- 0 -->
      <g transform="translate(72.765625 187.472159) scale(0.2 -0.2)">
       <use xlink:href="#DejaVuSans-30"/>
      </g>
     </g>
    </g>
    <g id="ytick_4">
     <g id="line2d_11">
      <g>
       <use xlink:href="#m9daec544ac" x="92.490625" y="130.029191" style="stroke: #000000; stroke-width: 0.8"/>
      </g>
     </g>
     <g id="text_12">
      <!-- 100 -->
      <g transform="translate(47.315625 137.627629) scale(0.2 -0.2)">
       <use xlink:href="#DejaVuSans-31"/>
       <use xlink:href="#DejaVuSans-30" x="63.623047"/>
       <use xlink:href="#DejaVuSans-30" x="127.246094"/>
      </g>
     </g>
    </g>
    <g id="ytick_5">
     <g id="line2d_12">
      <g>
       <use xlink:href="#m9daec544ac" x="92.490625" y="80.184661" style="stroke: #000000; stroke-width: 0.8"/>
      </g>
     </g>
     <g id="text_13">
      <!-- 200 -->
      <g transform="translate(47.315625 87.783098) scale(0.2 -0.2)">
       <use xlink:href="#DejaVuSans-32"/>
       <use xlink:href="#DejaVuSans-30" x="63.623047"/>
       <use xlink:href="#DejaVuSans-30" x="127.246094"/>
      </g>
     </g>
    </g>
    <g id="text_14">
     <!-- Loss -->
     <g transform="translate(22.396875 191.970625) rotate(-90) scale(0.2 -0.2)">
      <defs>
       <path id="DejaVuSans-4c" d="M 628 4666 
L 1259 4666 
L 1259 531 
L 3531 531 
L 3531 0 
L 628 0 
L 628 4666 
z
" transform="scale(0.015625)"/>
      </defs>
      <use xlink:href="#DejaVuSans-4c"/>
      <use xlink:href="#DejaVuSans-6f" x="53.962891"/>
      <use xlink:href="#DejaVuSans-73" x="115.144531"/>
      <use xlink:href="#DejaVuSans-73" x="167.244141"/>
     </g>
    </g>
   </g>
   <g id="line2d_13">
    <path d="M 117.854261 124.531878 
L 118.26008 113.612244 
L 118.665898 120.519891 
L 119.071716 104.349251 
L 119.477534 82.758685 
L 119.883352 52.516894 
L 120.28917 44.03625 
L 120.694989 61.970005 
L 121.100807 47.184644 
L 121.912443 80.314335 
L 122.318261 92.451127 
L 122.72408 90.170035 
L 123.535716 102.578324 
L 123.941534 95.671232 
L 124.347352 100.331578 
L 124.75317 100.663401 
L 125.158989 98.525286 
L 125.564807 104.282319 
L 125.970625 116.142604 
L 126.376443 120.516331 
L 126.782261 130.835256 
L 127.593898 127.698731 
L 127.999716 125.168182 
L 128.405534 126.943921 
L 128.811352 124.005949 
L 129.622989 122.923807 
L 130.028807 123.257928 
L 130.434625 118.898656 
L 130.840443 119.56434 
L 131.246261 115.700499 
L 131.65208 117.745463 
L 132.057898 123.442567 
L 132.463716 123.774871 
L 132.869534 122.857969 
L 133.275352 122.302379 
L 133.68117 120.942223 
L 134.086989 119.124284 
L 134.492807 125.017556 
L 134.898625 133.214281 
L 135.304443 129.161825 
L 135.710261 123.543387 
L 136.11608 122.23231 
L 136.521898 123.023945 
L 136.927716 127.784878 
L 137.333534 121.940687 
L 137.739352 123.981988 
L 138.14517 127.193599 
L 138.550989 131.485114 
L 138.956807 128.917539 
L 139.362625 136.589669 
L 139.768443 136.567041 
L 140.174261 125.362361 
L 140.58008 126.824283 
L 140.985898 135.707324 
L 141.391716 137.326724 
L 141.797534 136.946144 
L 142.60917 141.297559 
L 143.014989 145.047706 
L 143.420807 145.805225 
L 143.826625 141.997796 
L 144.638261 139.025662 
L 145.04408 137.019952 
L 145.449898 138.139239 
L 145.855716 136.827967 
L 146.261534 138.508057 
L 146.667352 138.220575 
L 147.07317 138.101893 
L 147.478989 135.608969 
L 147.884807 141.338619 
L 148.696443 134.107495 
L 149.102261 138.24287 
L 149.50808 138.539082 
L 149.913898 134.882217 
L 150.319716 125.534589 
L 150.725534 130.92867 
L 151.131352 130.995844 
L 151.53717 129.896139 
L 151.942989 130.701701 
L 152.348807 134.78225 
L 152.754625 136.964739 
L 153.160443 139.833902 
L 153.566261 134.538663 
L 153.97208 132.112555 
L 154.377898 132.679362 
L 154.783716 137.227089 
L 155.189534 136.509092 
L 155.595352 134.164532 
L 156.00117 138.634416 
L 156.406989 137.086605 
L 156.812807 139.48127 
L 157.218625 140.847521 
L 157.624443 136.401101 
L 158.030261 136.610398 
L 158.43608 141.120117 
L 158.841898 141.657382 
L 159.247716 141.745369 
L 160.059352 145.930699 
L 160.46517 144.353858 
L 160.870989 147.068299 
L 161.682625 143.872919 
L 162.088443 144.823045 
L 162.494261 145.322043 
L 162.90008 149.160657 
L 163.305898 151.758086 
L 163.711716 147.409346 
L 164.117534 147.688363 
L 164.92917 143.905424 
L 165.334989 146.884967 
L 166.146625 147.688029 
L 166.958261 140.161348 
L 167.36408 143.441326 
L 167.769898 141.701099 
L 168.175716 143.244373 
L 168.581534 141.485977 
L 168.987352 143.743617 
L 169.39317 141.752809 
L 169.798989 144.378451 
L 170.204807 145.924998 
L 171.016443 145.710239 
L 171.422261 146.822277 
L 171.82808 145.065893 
L 172.233898 142.812817 
L 172.639716 146.722669 
L 173.045534 142.762511 
L 173.451352 145.958757 
L 173.85717 145.805341 
L 174.262989 143.312113 
L 174.668807 144.758427 
L 175.074625 147.303361 
L 175.480443 146.89064 
L 175.886261 147.574506 
L 176.29208 148.59455 
L 177.103716 152.506974 
L 177.509534 150.388494 
L 177.915352 151.806019 
L 178.32117 150.902817 
L 178.726989 151.840849 
L 179.132807 149.806097 
L 179.538625 146.162209 
L 179.944443 148.368318 
L 180.350261 152.27345 
L 180.75608 151.466282 
L 181.161898 152.492185 
L 181.567716 150.095374 
L 181.973534 151.430663 
L 182.379352 152.38361 
L 182.78517 151.164398 
L 183.190989 152.661597 
L 183.596807 153.504509 
L 184.002625 153.070374 
L 184.408443 153.701229 
L 184.814261 155.076172 
L 185.22008 155.925178 
L 186.031716 153.860758 
L 186.437534 153.674296 
L 186.843352 153.035097 
L 187.24917 154.346622 
L 187.654989 153.598921 
L 188.060807 153.137666 
L 188.466625 153.719381 
L 188.872443 151.537183 
L 189.278261 152.382328 
L 189.68408 153.754748 
L 190.089898 152.730595 
L 190.495716 153.912518 
L 190.901534 155.763226 
L 191.307352 154.635505 
L 191.71317 156.375225 
L 192.118989 154.862806 
L 192.524807 157.097058 
L 192.930625 158.475495 
L 193.336443 159.246486 
L 193.742261 160.579032 
L 194.14808 160.177923 
L 194.553898 158.198611 
L 194.959716 157.632745 
L 195.365534 158.695304 
L 195.771352 158.058747 
L 196.988807 161.274453 
L 197.394625 161.049882 
L 197.800443 162.072976 
L 198.206261 162.780169 
L 198.61208 162.93181 
L 199.017898 162.909826 
L 199.423716 163.16357 
L 199.829534 163.590409 
L 200.64117 163.028633 
L 201.046989 164.160838 
L 201.452807 163.43676 
L 201.858625 163.598174 
L 202.264443 163.302926 
L 202.670261 163.467349 
L 203.07608 163.018195 
L 203.481898 164.735424 
L 203.887716 163.474858 
L 204.293534 161.245375 
L 204.699352 162.806307 
L 205.916807 163.922568 
L 206.322625 162.747043 
L 206.728443 162.225773 
L 207.134261 162.846469 
L 207.54008 165.236295 
L 207.945898 163.231114 
L 208.351716 163.010536 
L 208.757534 163.003862 
L 209.163352 164.481228 
L 209.56917 164.159237 
L 209.974989 165.05063 
L 210.380807 167.617109 
L 210.786625 166.927606 
L 211.192443 166.829197 
L 211.598261 167.045429 
L 212.00408 167.040901 
L 212.409898 168.045201 
L 213.221534 166.198974 
L 213.627352 166.800597 
L 214.03317 168.759688 
L 214.438989 168.974249 
L 214.844807 166.434748 
L 215.250625 165.174013 
L 215.656443 167.03687 
L 216.46808 167.675998 
L 216.873898 167.355134 
L 217.279716 166.638156 
L 217.685534 167.116547 
L 218.091352 167.266925 
L 218.49717 168.14975 
L 218.902989 167.908898 
L 219.308807 168.146553 
L 219.714625 168.238457 
L 220.526261 167.240999 
L 220.93208 168.253029 
L 221.337898 166.399731 
L 221.743716 167.169623 
L 222.149534 166.210275 
L 222.555352 167.497068 
L 222.96117 165.698517 
L 223.772807 166.698603 
L 224.178625 166.841433 
L 224.584443 166.310281 
L 224.990261 165.479998 
L 225.39608 165.215218 
L 225.801898 165.668773 
L 226.207716 167.322442 
L 226.613534 165.913513 
L 227.019352 165.804076 
L 227.42517 165.367667 
L 227.830989 166.220259 
L 228.236807 166.206106 
L 228.642625 165.972338 
L 229.048443 166.913536 
L 229.454261 166.170453 
L 229.86008 165.912273 
L 230.265898 166.548458 
L 230.671716 165.862925 
L 231.077534 166.657325 
L 231.483352 167.181714 
L 231.88917 166.678216 
L 232.294989 166.675568 
L 232.700807 167.875845 
L 233.106625 168.366442 
L 233.512443 168.449603 
L 233.918261 168.998448 
L 234.32408 169.32032 
L 234.729898 167.9225 
L 235.541534 168.843936 
L 235.947352 168.960531 
L 236.35317 168.782386 
L 236.758989 168.317253 
L 237.164807 169.688678 
L 237.570625 169.233972 
L 237.976443 169.06092 
L 238.78808 170.546879 
L 239.193898 170.171745 
L 239.599716 171.878035 
L 240.411352 171.137158 
L 240.81717 169.278403 
L 241.222989 169.725672 
L 241.628807 170.615596 
L 242.034625 169.496235 
L 242.440443 169.782768 
L 242.846261 169.890141 
L 243.25208 171.456883 
L 244.063716 170.001103 
L 244.469534 169.926751 
L 245.28117 171.37963 
L 245.686989 171.029107 
L 246.092807 171.124863 
L 246.498625 170.681482 
L 246.904443 170.87703 
L 247.310261 170.384301 
L 247.71608 170.986704 
L 248.121898 170.791971 
L 248.527716 169.625101 
L 248.933534 171.288955 
L 249.339352 170.927486 
L 249.74517 170.864856 
L 250.150989 171.211611 
L 250.556807 172.079021 
L 250.962625 171.845111 
L 251.368443 170.97074 
L 251.774261 171.625128 
L 252.18008 170.983582 
L 252.991716 171.02878 
L 253.397534 171.560573 
L 253.803352 172.322231 
L 254.20917 171.627739 
L 254.614989 171.467542 
L 255.020807 172.467587 
L 255.426625 171.02565 
L 255.832443 171.947077 
L 256.238261 171.483687 
L 256.64408 172.050066 
L 257.861534 169.947551 
L 258.267352 170.733685 
L 258.67317 170.584067 
L 259.078989 171.103421 
L 259.484807 171.348453 
L 259.890625 171.120201 
L 260.296443 170.558887 
L 260.702261 170.210684 
L 261.10808 170.789454 
L 261.513898 170.980313 
L 261.919716 172.211916 
L 262.325534 171.753866 
L 262.731352 172.058202 
L 263.13717 170.710387 
L 263.542989 171.610416 
L 263.948807 171.04566 
L 264.354625 170.275572 
L 264.760443 170.921107 
L 265.166261 170.142906 
L 265.57208 171.335557 
L 265.977898 170.05853 
L 266.383716 170.093304 
L 266.789534 170.469731 
L 267.195352 171.273628 
L 267.60117 171.728208 
L 268.006989 171.723017 
L 268.412807 170.898618 
L 269.224443 171.377761 
L 269.630261 171.45996 
L 270.03608 170.901117 
L 270.441898 169.754796 
L 271.659352 171.283549 
L 272.06517 170.797232 
L 272.470989 171.524636 
L 272.876807 171.480676 
L 273.282625 171.125477 
L 274.50008 171.450506 
L 274.905898 170.746657 
L 275.311716 171.893811 
L 276.123352 169.705521 
L 276.52917 169.357828 
L 276.934989 169.628308 
L 277.340807 170.894575 
L 277.746625 171.221226 
L 278.152443 171.32752 
L 278.558261 171.762098 
L 278.96408 171.419549 
L 279.369898 171.510481 
L 279.775716 170.604535 
L 280.181534 172.064219 
L 280.587352 172.504472 
L 280.99317 171.730852 
L 281.398989 171.717936 
L 281.804807 171.126913 
L 282.210625 171.028055 
L 282.616443 171.81357 
L 283.022261 171.842793 
L 283.42808 171.260918 
L 283.833898 171.661503 
L 284.239716 171.18838 
L 285.45717 171.680532 
L 285.862989 172.343042 
L 286.268807 170.773445 
L 286.674625 171.850861 
L 287.080443 171.335879 
L 287.486261 171.470768 
L 287.89208 171.404438 
L 288.297898 170.42896 
L 288.703716 170.751651 
L 289.109534 170.623119 
L 289.515352 171.204737 
L 289.92117 169.869313 
L 290.326989 169.636724 
L 291.138625 170.828434 
L 291.544443 170.552112 
L 291.950261 170.519111 
L 292.35608 170.941655 
L 292.761898 169.718798 
L 293.167716 169.862972 
L 293.573534 170.788851 
L 293.979352 169.308966 
L 294.38517 168.405074 
L 294.790989 169.592541 
L 295.602625 168.929275 
L 296.008443 168.277422 
L 296.414261 168.303997 
L 296.82008 169.014105 
L 297.225898 169.461484 
L 298.037534 168.954341 
L 298.443352 167.445263 
L 298.84917 168.252356 
L 299.254989 168.568639 
L 299.660807 168.729843 
L 300.066625 169.043828 
L 300.472443 170.208008 
L 300.878261 169.180695 
L 301.28408 168.673338 
L 301.689898 168.707785 
L 302.095716 169.243154 
L 302.501534 169.377209 
L 302.907352 168.851158 
L 303.31317 166.81334 
L 303.718989 168.761281 
L 304.124807 168.000392 
L 304.530625 167.564612 
L 305.342261 168.156309 
L 305.74808 168.13164 
L 306.153898 168.675291 
L 306.559716 168.119421 
L 306.965534 168.305333 
L 307.371352 167.535693 
L 307.77717 169.078896 
L 308.182989 168.406488 
L 308.588807 169.281049 
L 308.994625 168.148249 
L 309.400443 168.593674 
L 309.806261 168.732842 
L 310.21208 168.470857 
L 310.617898 169.372396 
L 311.023716 169.29299 
L 311.835352 167.88763 
L 312.24117 167.936869 
L 312.646989 168.913264 
L 313.052807 167.685689 
L 313.864443 168.452807 
L 314.270261 168.225701 
L 314.67608 170.2633 
L 315.081898 169.857828 
L 315.487716 168.55073 
L 315.893534 168.94689 
L 316.70517 167.836903 
L 317.110989 168.529338 
L 317.516807 168.526433 
L 317.922625 168.242491 
L 318.328443 168.845629 
L 318.734261 168.793187 
L 319.14008 169.295145 
L 319.545898 168.568328 
L 319.951716 169.156795 
L 320.357534 168.842294 
L 320.763352 169.404308 
L 321.16917 168.600934 
L 321.574989 169.158425 
L 321.980807 169.261816 
L 322.386625 169.167373 
L 322.792443 168.318719 
L 323.198261 168.55359 
L 323.60408 169.043764 
L 324.009898 169.344485 
L 324.415716 168.986347 
L 324.821534 169.062865 
L 325.227352 167.845035 
L 325.63317 168.951697 
L 326.444807 166.987109 
L 327.256443 168.536455 
L 327.662261 167.813438 
L 328.879716 168.653876 
L 329.285534 169.890846 
L 329.691352 168.602198 
L 330.09717 168.122958 
L 330.502989 166.912785 
L 330.908807 168.156099 
L 331.314625 167.661884 
L 331.720443 169.488083 
L 332.126261 169.485607 
L 333.343716 168.073372 
L 333.749534 169.155096 
L 334.155352 167.873866 
L 334.56117 168.345896 
L 334.966989 168.076867 
L 335.372807 169.271937 
L 336.590261 165.679123 
L 336.99608 166.576745 
L 337.401898 167.755652 
L 337.807716 168.312368 
L 338.213534 167.853324 
L 338.619352 168.205852 
L 339.02517 167.419576 
L 339.430989 167.036538 
L 339.836807 168.70488 
L 340.648443 167.08679 
L 341.054261 166.654306 
L 341.46008 167.786472 
L 341.865898 167.416425 
L 342.271716 168.569706 
L 342.677534 168.490675 
L 343.083352 169.154549 
L 343.48917 167.278725 
L 343.894989 168.560299 
L 344.300807 168.787789 
L 344.706625 167.280913 
L 345.112443 167.403509 
L 345.518261 166.122042 
L 345.92408 167.890703 
L 346.329898 166.99708 
L 346.735716 168.252917 
L 347.141534 166.923159 
L 347.547352 167.016084 
L 347.95317 167.241264 
L 348.764807 167.045006 
L 349.170625 166.305466 
L 349.576443 165.975857 
L 349.982261 167.000925 
L 350.38808 166.83386 
L 350.793898 167.60513 
L 351.199716 167.629385 
L 351.605534 167.287727 
L 352.011352 167.104138 
L 352.41717 166.397981 
L 352.822989 167.148153 
L 353.228807 166.744054 
L 353.634625 165.842051 
L 354.040443 165.51877 
L 354.446261 166.309628 
L 354.85208 165.740703 
L 355.257898 166.816051 
L 356.069534 165.723097 
L 356.475352 166.108493 
L 357.286989 165.4902 
L 358.098625 166.795149 
L 358.504443 166.654096 
L 359.31608 167.621033 
L 359.721898 166.864147 
L 360.127716 167.267206 
L 360.533534 168.778092 
L 360.939352 169.05499 
L 361.34517 168.761897 
L 361.750989 168.71093 
L 362.156807 167.742667 
L 362.968443 169.264613 
L 363.374261 167.432988 
L 363.78008 168.344806 
L 364.185898 168.502555 
L 364.591716 169.430815 
L 364.997534 169.685325 
L 365.403352 168.870997 
L 365.80917 169.484155 
L 366.620807 169.27929 
L 367.026625 168.891965 
L 368.24408 170.281456 
L 368.649898 169.650673 
L 369.055716 169.556229 
L 369.461534 169.332334 
L 369.867352 169.753204 
L 370.27317 169.245746 
L 370.678989 169.301257 
L 371.084807 168.308343 
L 371.490625 168.719347 
L 371.896443 169.428888 
L 372.302261 170.479059 
L 372.70808 169.745954 
L 373.113898 170.42337 
L 373.925534 170.868408 
L 374.331352 170.270927 
L 374.73717 169.303986 
L 375.142989 170.119499 
L 375.548807 169.767772 
L 375.954625 169.857879 
L 376.360443 169.586723 
L 376.766261 169.716683 
L 377.17208 171.181534 
L 377.577898 170.772517 
L 377.983716 171.187108 
L 378.389534 170.514292 
L 378.795352 170.129486 
L 379.20117 170.984094 
L 379.606989 171.01828 
L 380.012807 171.330471 
L 380.418625 170.098185 
L 380.824443 171.20177 
L 381.230261 170.094581 
L 381.63608 170.641587 
L 382.041898 170.954885 
L 382.447716 170.937869 
L 382.853534 171.877335 
L 383.259352 171.940686 
L 383.66517 171.802314 
L 384.070989 170.553515 
L 384.476807 170.961193 
L 384.882625 170.871702 
L 385.288443 171.781641 
L 385.694261 171.652601 
L 386.505898 169.934908 
L 386.911716 169.855105 
L 387.317534 169.93931 
L 387.723352 170.289627 
L 388.12917 171.688032 
L 388.534989 171.08577 
L 388.940807 171.519824 
L 389.346625 171.452305 
L 389.752443 170.690751 
L 390.158261 170.4779 
L 390.56408 170.686815 
L 390.969898 171.598358 
L 391.375716 171.429171 
L 391.781534 170.468689 
L 392.187352 170.552143 
L 392.59317 171.170605 
L 392.998989 171.076991 
L 393.404807 170.857447 
L 393.810625 172.026858 
L 394.216443 171.897187 
L 394.622261 172.552691 
L 395.02808 172.187376 
L 395.433898 172.119924 
L 395.839716 172.812751 
L 396.245534 172.431816 
L 396.651352 171.504635 
L 397.05717 171.078927 
L 397.462989 172.052269 
L 397.868807 172.01934 
L 398.274625 171.139247 
L 398.680443 171.456836 
L 399.086261 172.361364 
L 399.49208 171.736331 
L 399.897898 172.752857 
L 400.303716 172.572182 
L 400.709534 171.777554 
L 401.115352 171.812087 
L 401.52117 172.632344 
L 401.926989 173.098525 
L 402.332807 172.871148 
L 402.738625 171.911924 
L 403.144443 172.195097 
L 403.550261 172.633227 
L 403.95608 172.795828 
L 404.361898 172.498574 
L 404.767716 172.657809 
L 405.173534 172.305638 
L 405.579352 173.087526 
L 405.98517 172.752212 
L 406.390989 171.853783 
L 406.796807 172.249377 
L 407.202625 173.237597 
L 407.608443 172.465509 
L 408.014261 172.943736 
L 408.42008 172.53879 
L 408.825898 172.308294 
L 409.231716 172.475761 
L 409.637534 172.805779 
L 410.043352 173.509988 
L 410.44917 173.535105 
L 410.854989 172.965856 
L 411.260807 173.195651 
L 411.666625 173.028642 
L 412.072443 173.17028 
L 412.478261 173.69358 
L 412.88408 173.695534 
L 413.289898 173.025585 
L 413.695716 173.163722 
L 414.101534 172.773572 
L 414.507352 172.143886 
L 414.91317 172.728104 
L 415.724807 173.301175 
L 416.130625 173.212307 
L 416.536443 173.473794 
L 416.942261 173.354617 
L 417.34808 172.340577 
L 418.565534 173.545899 
L 418.971352 173.717131 
L 420.594625 172.846439 
L 421.000443 172.830841 
L 421.81208 173.914986 
L 422.217898 173.328633 
L 422.623716 173.220606 
L 423.029534 172.633549 
L 423.84117 172.524903 
L 424.246989 172.899515 
L 424.652807 172.995464 
L 425.058625 173.52655 
L 425.464443 172.911105 
L 426.27608 173.067123 
L 426.681898 172.580127 
L 427.087716 173.506689 
L 427.493534 173.224257 
L 428.30517 173.550066 
L 428.710989 173.870253 
L 429.116807 173.463889 
L 429.522625 173.309775 
L 429.928443 174.370365 
L 430.334261 174.641543 
L 430.74008 173.336782 
L 431.145898 174.511969 
L 431.551716 174.789815 
L 431.957534 174.779389 
L 432.363352 174.237352 
L 432.76917 174.548939 
L 433.174989 174.300293 
L 433.580807 174.250603 
L 433.986625 174.571552 
L 434.392443 174.630708 
L 434.798261 174.100518 
L 435.20408 174.358606 
L 435.609898 173.547171 
L 436.827352 174.726061 
L 437.23317 174.763368 
L 437.638989 174.404266 
L 438.044807 173.868562 
L 438.450625 174.002336 
L 438.856443 174.499336 
L 439.262261 174.761793 
L 439.66808 174.237576 
L 440.073898 173.960542 
L 440.479716 174.456797 
L 440.885534 174.608312 
L 441.291352 173.651449 
L 441.69717 174.262652 
L 442.102989 173.571319 
L 442.508807 173.445559 
L 442.914625 174.284243 
L 443.320443 174.647367 
L 443.726261 174.143819 
L 444.13208 175.098752 
L 444.537898 174.592985 
L 444.943716 174.67441 
L 445.349534 173.986843 
L 445.755352 174.89315 
L 446.16117 175.040789 
L 446.566989 174.521271 
L 446.972807 174.31169 
L 447.378625 174.409975 
L 447.784443 174.844725 
L 448.190261 174.091942 
L 448.59608 174.054085 
L 449.001898 175.056739 
L 449.407716 175.179453 
L 449.813534 174.76291 
L 450.219352 175.188881 
L 450.62517 174.606071 
L 451.030989 174.643741 
L 451.436807 175.360247 
L 451.842625 174.345135 
L 452.248443 174.196209 
L 452.654261 174.545014 
L 453.06008 174.055634 
L 453.465898 174.603814 
L 453.871716 174.591183 
L 454.277534 174.85815 
L 454.683352 175.470077 
L 455.900807 174.592355 
L 456.306625 175.085638 
L 457.52408 175.479677 
L 458.335716 174.720709 
L 458.741534 175.256771 
L 459.147352 174.918766 
L 459.55317 175.417736 
L 459.958989 174.536108 
L 460.364807 174.684633 
L 460.770625 174.961427 
L 461.176443 174.675325 
L 461.582261 174.602429 
L 461.98808 174.976565 
L 462.393898 175.109405 
L 462.799716 175.082062 
L 463.205534 175.327841 
L 463.611352 175.332892 
L 464.01717 175.704394 
L 464.422989 175.749832 
L 464.828807 176.00514 
L 465.640443 175.331336 
L 466.046261 175.820725 
L 466.45208 175.670553 
L 466.857898 176.437552 
L 467.263716 176.022944 
L 467.669534 175.79007 
L 468.075352 175.892828 
L 468.48117 176.684125 
L 468.886989 176.529924 
L 469.292807 176.862434 
L 469.698625 176.827581 
L 470.510261 176.121104 
L 470.91608 176.371403 
L 471.321898 176.282667 
L 471.727716 176.55121 
L 472.133534 175.998972 
L 472.539352 176.438404 
L 472.94517 176.232709 
L 474.974261 176.191065 
L 475.785898 176.740455 
L 476.191716 176.851348 
L 476.597534 176.071476 
L 477.003352 176.531128 
L 477.40917 176.313304 
L 477.814989 176.241809 
L 478.220807 176.342322 
L 478.626625 176.154964 
L 479.032443 176.730567 
L 479.84408 176.218591 
L 480.249898 175.822586 
L 480.655716 176.737825 
L 481.467352 176.679438 
L 481.87317 176.37128 
L 482.278989 176.406383 
L 482.684807 176.716217 
L 483.090625 176.815412 
L 483.496443 177.092024 
L 483.902261 177.029247 
L 484.30808 176.541315 
L 484.713898 176.447746 
L 485.119716 177.045527 
L 485.931352 176.949279 
L 486.33717 177.623724 
L 486.742989 177.333461 
L 487.148807 177.417731 
L 487.554625 177.706311 
L 487.960443 177.852056 
L 488.366261 177.331983 
L 488.77208 177.404682 
L 489.177898 177.087448 
L 489.583716 177.158187 
L 489.989534 177.398378 
L 490.395352 177.790668 
L 490.80117 177.673758 
L 491.206989 177.360908 
L 491.612807 177.671818 
L 492.018625 177.4662 
L 492.424443 177.428796 
L 492.830261 177.569326 
L 493.23608 177.546279 
L 493.641898 177.915382 
L 494.047716 177.810681 
L 494.859352 178.110901 
L 495.26517 178.166555 
L 495.670989 178.094477 
L 496.076807 178.494665 
L 496.482625 178.181803 
L 496.888443 178.777438 
L 497.294261 178.034988 
L 498.105898 178.678885 
L 498.511716 178.273268 
L 498.917534 178.558078 
L 499.323352 178.645732 
L 499.72917 178.979903 
L 500.134989 178.604421 
L 500.540807 178.72779 
L 500.946625 179.086753 
L 501.352443 179.201082 
L 501.758261 179.159582 
L 502.16408 179.666424 
L 502.569898 178.766806 
L 503.787352 179.450476 
L 504.19317 178.899028 
L 504.598989 178.941914 
L 505.004807 178.499958 
L 505.410625 178.50986 
L 505.816443 178.949115 
L 507.033898 178.963947 
L 507.439716 179.468592 
L 507.845534 178.957596 
L 508.251352 179.146655 
L 508.65717 179.543453 
L 509.062989 179.427571 
L 509.468807 179.127683 
L 509.874625 179.518266 
L 510.280443 179.204089 
L 510.686261 179.222719 
L 511.09208 178.98623 
L 511.903716 179.874376 
L 512.309534 179.517771 
L 513.12117 179.686319 
L 513.526989 179.129207 
L 513.932807 179.487302 
L 514.338625 179.333922 
L 514.744443 179.358981 
L 515.150261 179.26307 
L 515.55608 179.425154 
L 515.961898 179.749735 
L 517.179352 179.776525 
L 517.990989 179.344682 
L 518.396807 179.001729 
L 518.802625 179.286516 
L 519.208443 179.275482 
L 519.614261 179.092813 
L 520.425898 179.884484 
L 520.831716 179.531372 
L 521.643352 179.715287 
L 522.04917 180.303038 
L 522.454989 179.626734 
L 522.860807 179.711593 
L 523.266625 180.147627 
L 523.672443 179.670431 
L 524.078261 179.744088 
L 524.48408 179.947498 
L 525.295716 179.938698 
L 525.701534 180.335198 
L 526.107352 179.565856 
L 526.51317 179.855395 
L 526.918989 179.740909 
L 528.136443 179.74427 
L 528.542261 179.931039 
L 528.94808 179.520946 
L 529.353898 180.09352 
L 529.759716 180.325481 
L 530.165534 180.140308 
L 530.571352 180.371481 
L 530.97717 179.869368 
L 531.382989 179.963973 
L 531.788807 179.778552 
L 532.194625 180.202878 
L 532.600443 179.514326 
L 533.006261 179.482513 
L 533.41208 180.026128 
L 533.817898 179.427368 
L 534.223716 180.162905 
L 534.629534 180.306756 
L 535.035352 180.214288 
L 535.44117 180.380419 
L 536.252807 180.086379 
L 536.658625 180.226138 
L 537.064443 180.13434 
L 537.470261 180.485126 
L 537.87608 179.700224 
L 538.281898 180.485923 
L 538.687716 180.18604 
L 539.093534 180.300664 
L 539.499352 179.763172 
L 539.90517 180.343231 
L 540.310989 180.165772 
L 540.716807 179.744616 
L 541.122625 179.91302 
L 541.528443 180.310773 
L 541.934261 180.22706 
L 542.34008 179.954252 
L 542.745898 180.26877 
L 543.963352 179.54126 
L 544.36917 180.330199 
L 544.774989 179.814204 
L 545.180807 180.189141 
L 545.586625 179.754376 
L 545.992443 179.853491 
L 546.398261 179.818375 
L 546.80408 180.340954 
L 547.209898 179.605927 
L 547.615716 179.87026 
L 548.83317 180.07964 
L 550.050625 179.896924 
L 550.456443 180.110488 
L 551.673898 179.963066 
L 552.079716 179.986136 
L 552.485534 179.786335 
L 552.891352 180.758785 
L 553.29717 180.032607 
L 553.702989 179.725176 
L 554.108807 180.118395 
L 554.920443 180.137444 
L 555.326261 179.824126 
L 555.73208 180.373565 
L 556.137898 180.011501 
L 556.543716 180.842442 
L 556.949534 180.21516 
L 557.355352 179.845933 
L 558.166989 180.704952 
L 558.572807 180.052903 
L 558.978625 180.440301 
L 559.384443 180.109915 
L 559.790261 180.557143 
L 560.19608 179.928409 
L 560.601898 180.445121 
L 561.007716 180.182771 
L 561.413534 180.431568 
L 561.819352 180.367132 
L 562.22517 179.936347 
L 562.630989 179.76118 
L 563.036807 180.23181 
L 563.442625 180.466946 
L 564.254261 180.41052 
L 564.66008 179.999994 
L 565.065898 180.530902 
L 565.471716 180.113117 
L 565.877534 179.963953 
L 567.094989 180.459806 
L 567.500807 180.126073 
L 567.906625 180.086951 
L 568.312443 180.429204 
L 568.718261 179.835401 
L 569.12408 179.932744 
L 569.529898 180.477864 
L 570.341534 180.413045 
L 570.747352 180.786465 
L 571.15317 180.680939 
L 571.558989 181.04021 
L 571.964807 180.618574 
L 572.370625 180.82221 
L 572.776443 181.161888 
L 573.182261 181.009758 
L 573.58808 180.357643 
L 573.993898 181.03261 
L 574.805534 180.65069 
L 575.61717 180.962039 
L 576.022989 180.873817 
L 576.428807 181.058111 
L 576.834625 180.777752 
L 577.240443 180.886168 
L 577.646261 180.622959 
L 578.05208 180.617082 
L 578.457898 180.960957 
L 578.863716 180.67538 
L 579.269534 180.828634 
L 579.675352 180.788095 
L 580.08117 181.055961 
L 580.486989 180.313954 
L 580.892807 180.775309 
L 581.298625 180.938638 
L 581.704443 180.542884 
L 582.51608 181.168604 
L 582.921898 179.688472 
L 583.327716 180.392513 
L 583.733534 178.640427 
L 584.139352 180.57413 
L 584.54517 180.541096 
L 585.762625 179.634978 
L 586.574261 180.678679 
L 586.98008 181.001879 
L 587.385898 179.692597 
L 587.791716 179.872039 
L 588.197534 179.911641 
L 588.603352 179.702042 
L 589.00917 179.916145 
L 589.414989 180.866377 
L 589.820807 181.119183 
L 590.226625 180.870432 
L 591.038261 181.317297 
L 591.849898 181.259107 
L 592.255716 181.713421 
L 592.661534 181.801746 
L 593.067352 181.342694 
L 593.47317 181.740323 
L 593.878989 181.870945 
L 594.690625 181.379809 
L 595.096443 181.10921 
L 595.502261 181.578598 
L 595.90808 181.457262 
L 596.313898 181.756397 
L 596.719716 181.833844 
L 597.125534 181.452956 
L 597.531352 180.758443 
L 597.93717 181.092783 
L 598.342989 181.698405 
L 598.748807 181.772995 
L 599.154625 181.05467 
L 599.560443 181.089973 
L 599.966261 181.50234 
L 600.37208 181.66487 
L 600.777898 181.35546 
L 601.183716 181.225757 
L 601.589534 181.543379 
L 602.806989 181.080672 
L 603.618625 181.726543 
L 604.024443 181.237467 
L 604.430261 181.032272 
L 604.83608 181.377015 
L 605.241898 181.301601 
L 605.647716 181.535514 
L 606.053534 181.258281 
L 606.459352 181.493265 
L 607.270989 181.256666 
L 607.676807 181.513799 
L 608.082625 181.435503 
L 608.488443 181.514314 
L 609.705898 181.189708 
L 610.111716 181.198173 
L 610.517534 180.7601 
L 611.32917 181.34693 
L 611.734989 181.245781 
L 612.140807 181.498462 
L 612.546625 181.550906 
L 613.358261 180.992424 
L 613.76408 181.268454 
L 614.575716 181.035894 
L 614.981534 180.820112 
L 615.387352 181.13928 
L 615.79317 181.229345 
L 616.198989 181.017003 
L 616.604807 180.951223 
L 617.010625 180.76528 
L 617.416443 180.995814 
L 617.822261 180.902129 
L 618.633898 181.354898 
L 619.851352 181.077253 
L 620.25717 181.562308 
L 620.662989 181.129142 
L 622.286261 181.024166 
L 622.69208 180.608327 
L 623.097898 180.84078 
L 623.503716 180.342192 
L 624.315352 180.471055 
L 624.72117 180.088666 
L 625.126989 180.506601 
L 625.126989 180.506601 
" clip-path="url(#pff33a11f42)" style="fill: none; stroke: #1f77b4; stroke-width: 1.5; stroke-linecap: square"/>
   </g>
   <g id="line2d_14">
    <path d="M 117.854261 296.03625 
L 118.26008 293.670519 
L 118.665898 246.011862 
L 119.071716 269.986081 
L 119.477534 278.80496 
L 119.883352 248.797222 
L 120.28917 230.620247 
L 120.694989 249.231156 
L 121.100807 223.688053 
L 121.506625 220.004876 
L 121.912443 208.447941 
L 122.318261 211.42837 
L 122.72408 210.881812 
L 123.129898 207.172589 
L 123.535716 205.397716 
L 123.941534 204.796222 
L 124.347352 201.902029 
L 124.75317 204.825475 
L 125.158989 199.039532 
L 125.564807 198.542908 
L 125.970625 192.649877 
L 126.376443 193.698227 
L 126.782261 192.006893 
L 127.18808 194.531603 
L 127.593898 193.321072 
L 127.999716 195.950344 
L 128.405534 197.127018 
L 128.811352 197.851664 
L 129.21717 197.33166 
L 129.622989 192.321801 
L 130.028807 190.967719 
L 130.434625 193.33488 
L 130.840443 192.207896 
L 131.65208 192.261632 
L 132.057898 189.654198 
L 132.463716 190.520908 
L 133.68117 192.103944 
L 134.086989 192.268471 
L 134.492807 189.139459 
L 134.898625 187.000513 
L 135.304443 188.560084 
L 135.710261 190.703189 
L 136.11608 191.730823 
L 136.521898 190.152641 
L 136.927716 189.313256 
L 137.333534 190.141136 
L 137.739352 189.859756 
L 138.14517 189.199789 
L 138.550989 188.181538 
L 138.956807 189.724939 
L 139.362625 185.408925 
L 139.768443 186.78425 
L 140.174261 189.527407 
L 140.58008 190.100574 
L 140.985898 186.043988 
L 141.391716 188.646009 
L 141.797534 187.302461 
L 142.203352 187.322897 
L 142.60917 188.79512 
L 143.014989 187.482793 
L 143.420807 184.947255 
L 143.826625 187.693612 
L 144.232443 186.691977 
L 144.638261 188.118964 
L 145.04408 188.999593 
L 145.855716 186.831658 
L 146.261534 188.620825 
L 146.667352 188.360617 
L 147.07317 188.945293 
L 147.478989 187.132025 
L 147.884807 186.201876 
L 148.290625 188.283568 
L 149.102261 187.196792 
L 149.50808 186.938449 
L 149.913898 187.869209 
L 150.319716 189.448849 
L 150.725534 186.718774 
L 151.131352 187.926137 
L 151.53717 188.029027 
L 151.942989 190.577963 
L 152.348807 188.203017 
L 152.754625 187.138785 
L 153.160443 187.142223 
L 153.566261 186.650825 
L 153.97208 187.646986 
L 154.377898 189.119807 
L 154.783716 187.357287 
L 155.595352 186.780915 
L 156.406989 187.368904 
L 157.218625 186.468459 
L 157.624443 186.8359 
L 158.030261 186.971379 
L 158.43608 186.899701 
L 158.841898 185.093429 
L 159.653534 187.794619 
L 160.059352 185.873828 
L 160.46517 187.042895 
L 160.870989 187.159686 
L 161.276807 186.253183 
L 161.682625 188.14548 
L 162.088443 186.173962 
L 162.494261 185.537409 
L 162.90008 184.507913 
L 163.305898 185.289264 
L 163.711716 185.491353 
L 164.523352 185.50605 
L 164.92917 186.706911 
L 166.146625 186.282175 
L 166.552443 187.690941 
L 166.958261 187.862135 
L 167.36408 187.247781 
L 167.769898 187.676233 
L 168.175716 187.559511 
L 168.581534 186.670892 
L 168.987352 186.806549 
L 169.39317 187.357622 
L 169.798989 185.867307 
L 170.204807 187.427715 
L 170.610625 187.569171 
L 171.016443 186.07568 
L 171.422261 187.16852 
L 171.82808 186.5731 
L 172.639716 187.488045 
L 173.045534 188.414262 
L 173.451352 186.39198 
L 173.85717 186.976814 
L 174.262989 187.007496 
L 174.668807 187.455282 
L 175.074625 187.062753 
L 175.480443 187.688059 
L 175.886261 188.913983 
L 176.29208 187.573495 
L 177.103716 187.191744 
L 177.509534 188.389262 
L 177.915352 187.798525 
L 178.32117 188.176457 
L 178.726989 187.385669 
L 179.132807 187.75249 
L 179.538625 188.699782 
L 179.944443 187.992732 
L 180.75608 187.416289 
L 181.161898 187.418395 
L 181.567716 188.303428 
L 181.973534 188.623496 
L 182.379352 187.288899 
L 182.78517 187.427393 
L 183.190989 186.829265 
L 184.408443 187.035494 
L 184.814261 187.28354 
L 185.22008 186.891307 
L 185.625898 186.72 
L 186.031716 188.287451 
L 186.437534 187.859376 
L 186.843352 187.743438 
L 187.24917 188.356273 
L 187.654989 188.02346 
L 188.060807 188.876462 
L 188.466625 188.073269 
L 188.872443 188.013018 
L 189.278261 188.164853 
L 190.089898 188.680438 
L 190.495716 188.271192 
L 190.901534 187.5247 
L 191.307352 188.341547 
L 191.71317 188.324353 
L 192.118989 189.009177 
L 192.524807 188.05667 
L 192.930625 188.160156 
L 193.742261 187.39402 
L 194.14808 188.24029 
L 194.553898 188.117727 
L 194.959716 188.362317 
L 195.771352 187.579802 
L 196.17717 188.523492 
L 196.582989 187.779426 
L 196.988807 188.004608 
L 197.394625 188.050907 
L 197.800443 187.705057 
L 198.61208 188.714194 
L 199.017898 188.091426 
L 199.423716 188.294446 
L 199.829534 188.372829 
L 200.235352 187.862224 
L 201.046989 189.328308 
L 201.452807 188.385363 
L 201.858625 188.20942 
L 202.264443 187.831949 
L 202.670261 189.396933 
L 203.07608 188.005285 
L 203.481898 188.784901 
L 203.887716 187.040929 
L 204.293534 188.521028 
L 204.699352 188.971472 
L 205.10517 189.738808 
L 205.510989 189.229262 
L 205.916807 189.357389 
L 206.322625 188.446275 
L 206.728443 187.861986 
L 207.134261 189.002622 
L 207.54008 188.464863 
L 207.945898 188.759545 
L 208.351716 188.493274 
L 209.163352 187.552388 
L 209.56917 188.515434 
L 209.974989 187.482559 
L 210.380807 188.208671 
L 210.786625 188.294128 
L 211.192443 188.216891 
L 211.598261 187.922589 
L 212.00408 188.012822 
L 212.409898 187.853364 
L 212.815716 187.512304 
L 213.627352 188.52519 
L 214.03317 188.286137 
L 214.438989 188.223808 
L 214.844807 188.930585 
L 215.250625 188.287846 
L 215.656443 187.929877 
L 216.062261 188.750086 
L 216.46808 188.931987 
L 216.873898 188.828422 
L 217.279716 187.992121 
L 218.091352 188.912342 
L 218.902989 188.581938 
L 219.308807 188.857937 
L 219.714625 188.733222 
L 220.120443 188.460897 
L 220.93208 189.477394 
L 221.337898 189.028242 
L 221.743716 189.131799 
L 222.149534 188.861658 
L 222.555352 189.526858 
L 222.96117 189.535713 
L 223.772807 188.843236 
L 224.178625 188.902469 
L 224.584443 188.297058 
L 224.990261 189.54924 
L 225.39608 188.985136 
L 226.613534 189.774629 
L 227.019352 189.788429 
L 227.830989 189.519565 
L 228.236807 190.233118 
L 228.642625 189.702311 
L 229.048443 189.514199 
L 229.454261 190.08353 
L 229.86008 190.008336 
L 230.265898 189.565447 
L 230.671716 189.583096 
L 231.077534 190.037254 
L 231.483352 189.91953 
L 232.294989 190.246258 
L 232.700807 188.569576 
L 233.106625 189.174707 
L 233.512443 189.990945 
L 233.918261 189.358044 
L 234.32408 189.515732 
L 234.729898 190.11674 
L 235.135716 190.121262 
L 235.541534 190.574514 
L 235.947352 190.013054 
L 236.758989 190.082704 
L 237.570625 189.159987 
L 237.976443 189.122912 
L 238.382261 190.043139 
L 238.78808 189.066995 
L 239.193898 189.494748 
L 239.599716 189.70741 
L 240.005534 189.284489 
L 240.411352 188.605509 
L 240.81717 188.988014 
L 241.222989 188.617698 
L 241.628807 189.643596 
L 242.034625 189.470632 
L 242.440443 188.767958 
L 243.25208 188.195484 
L 243.657898 189.182142 
L 244.063716 189.285755 
L 244.469534 188.604241 
L 244.875352 188.630051 
L 245.686989 189.001234 
L 246.092807 188.555197 
L 246.498625 188.711234 
L 246.904443 188.331132 
L 247.310261 188.216426 
L 247.71608 188.946966 
L 248.121898 188.868593 
L 248.527716 186.61303 
L 248.933534 187.3314 
L 249.339352 187.278921 
L 249.74517 188.626443 
L 250.150989 188.356777 
L 250.556807 188.236927 
L 250.962625 189.014136 
L 251.368443 188.35781 
L 251.774261 188.732627 
L 252.18008 188.594183 
L 252.991716 187.977919 
L 253.397534 188.852699 
L 253.803352 188.838792 
L 254.20917 188.572765 
L 254.614989 187.58102 
L 255.020807 188.035673 
L 255.426625 188.068834 
L 255.832443 188.700876 
L 256.238261 188.052588 
L 256.64408 188.169167 
L 257.049898 188.687222 
L 257.455716 187.943018 
L 257.861534 188.021358 
L 258.267352 188.77915 
L 258.67317 187.496709 
L 259.078989 188.089395 
L 259.484807 188.053076 
L 259.890625 188.150853 
L 261.10808 187.922646 
L 261.513898 186.703195 
L 261.919716 187.536367 
L 262.325534 188.008924 
L 263.13717 187.626979 
L 263.542989 187.479456 
L 263.948807 187.854597 
L 264.354625 188.015779 
L 265.166261 187.371093 
L 265.977898 187.613359 
L 266.383716 187.426125 
L 266.789534 187.772992 
L 268.006989 187.031821 
L 268.412807 187.559654 
L 268.818625 187.190519 
L 269.224443 187.5633 
L 269.630261 187.427299 
L 270.03608 187.129459 
L 270.847716 187.940556 
L 271.253534 187.680124 
L 271.659352 187.68277 
L 272.06517 187.422893 
L 272.470989 187.429192 
L 272.876807 187.247293 
L 273.282625 187.229189 
L 273.688443 187.632436 
L 274.094261 187.059433 
L 274.50008 186.9121 
L 274.905898 187.470026 
L 275.311716 186.911189 
L 275.717534 186.861304 
L 276.52917 188.172784 
L 276.934989 188.13753 
L 277.340807 186.583549 
L 278.152443 187.521703 
L 278.558261 186.950001 
L 278.96408 187.320842 
L 279.369898 187.351116 
L 279.775716 187.18988 
L 280.181534 187.486731 
L 280.587352 187.064197 
L 280.99317 188.068991 
L 281.398989 187.438666 
L 281.804807 187.525588 
L 282.210625 187.213787 
L 282.616443 187.064928 
L 283.022261 187.534254 
L 283.42808 186.999843 
L 283.833898 186.926129 
L 284.645534 187.337595 
L 285.051352 187.268334 
L 285.45717 187.325297 
L 286.268807 188.006475 
L 286.674625 187.257402 
L 287.080443 187.061195 
L 287.486261 187.293884 
L 287.89208 187.793211 
L 288.297898 187.372868 
L 288.703716 187.207817 
L 289.109534 187.337196 
L 289.515352 187.697688 
L 289.92117 187.695944 
L 290.732807 187.27155 
L 291.138625 187.498069 
L 291.544443 186.499071 
L 291.950261 187.45085 
L 292.35608 187.487471 
L 293.167716 187.079629 
L 293.573534 187.896338 
L 293.979352 188.090981 
L 294.38517 187.424129 
L 294.790989 187.19887 
L 295.196807 187.659776 
L 295.602625 187.411044 
L 296.008443 188.069676 
L 296.82008 187.84988 
L 297.225898 187.070756 
L 297.631716 187.950427 
L 298.443352 187.633012 
L 298.84917 188.045176 
L 299.254989 187.762842 
L 299.660807 188.078089 
L 300.066625 187.860503 
L 300.472443 187.220608 
L 300.878261 187.392386 
L 301.689898 187.36011 
L 302.095716 187.501666 
L 302.501534 187.962535 
L 302.907352 188.130643 
L 303.31317 187.961241 
L 303.718989 188.060456 
L 304.124807 187.395321 
L 304.530625 188.152944 
L 305.342261 187.777553 
L 305.74808 188.221934 
L 306.153898 188.327467 
L 306.559716 187.334414 
L 306.965534 187.575282 
L 307.371352 187.386209 
L 307.77717 187.621626 
L 308.588807 187.691807 
L 308.994625 187.598309 
L 309.400443 187.866171 
L 309.806261 188.502235 
L 310.21208 187.314569 
L 310.617898 187.493962 
L 311.023716 187.450727 
L 311.429534 187.814029 
L 311.835352 187.417195 
L 312.24117 187.974649 
L 313.052807 187.508638 
L 313.458625 187.346572 
L 313.864443 187.041069 
L 314.270261 187.641585 
L 314.67608 186.948475 
L 315.893534 187.407369 
L 316.299352 187.783451 
L 316.70517 186.782889 
L 317.110989 186.524814 
L 317.516807 187.174069 
L 317.922625 186.954514 
L 318.734261 187.170452 
L 319.14008 186.948924 
L 319.545898 187.357923 
L 319.951716 186.64722 
L 320.357534 186.591312 
L 320.763352 187.170567 
L 321.16917 186.922178 
L 321.574989 187.859855 
L 321.980807 187.608934 
L 322.386625 186.862467 
L 322.792443 187.229374 
L 323.198261 187.81697 
L 323.60408 187.636123 
L 324.009898 187.21291 
L 324.415716 187.445551 
L 324.821534 188.112018 
L 325.227352 187.574905 
L 325.63317 188.25343 
L 326.444807 187.376497 
L 326.850625 187.700975 
L 327.256443 187.308583 
L 328.06808 187.314403 
L 328.473898 186.835633 
L 328.879716 187.844397 
L 330.09717 187.208921 
L 330.502989 186.666028 
L 330.908807 187.334858 
L 331.314625 186.874302 
L 332.126261 187.869404 
L 332.53208 187.228491 
L 332.937898 187.823869 
L 333.343716 187.239268 
L 333.749534 187.020496 
L 334.155352 187.197063 
L 334.56117 187.932748 
L 334.966989 187.430735 
L 335.372807 187.394432 
L 335.778625 187.476013 
L 336.184443 187.297475 
L 336.590261 187.682553 
L 337.401898 187.372028 
L 337.807716 187.628201 
L 338.213534 186.783212 
L 338.619352 187.074856 
L 339.02517 186.839405 
L 339.430989 187.515935 
L 339.836807 187.763284 
L 340.242625 187.505691 
L 340.648443 186.969055 
L 341.054261 187.109494 
L 341.46008 187.535298 
L 341.865898 187.599074 
L 342.271716 187.05674 
L 342.677534 187.478947 
L 343.083352 186.890404 
L 343.48917 187.426476 
L 343.894989 186.929427 
L 344.706625 187.451987 
L 345.112443 187.646823 
L 345.518261 187.341754 
L 346.329898 187.365084 
L 346.735716 188.043789 
L 347.141534 187.491406 
L 347.547352 187.225406 
L 348.764807 187.781165 
L 349.170625 187.21531 
L 349.576443 187.431781 
L 349.982261 187.030991 
L 350.38808 187.667348 
L 350.793898 187.632509 
L 351.199716 187.483169 
L 351.605534 187.892397 
L 352.011352 188.030297 
L 352.41717 187.892854 
L 352.822989 187.209789 
L 353.228807 187.498252 
L 353.634625 187.144424 
L 354.040443 187.409736 
L 354.446261 187.265258 
L 354.85208 187.92355 
L 355.257898 187.202294 
L 355.663716 188.344075 
L 356.069534 187.628879 
L 356.475352 187.287634 
L 356.88117 187.250385 
L 357.286989 187.988552 
L 357.692807 187.071004 
L 358.098625 187.082474 
L 358.504443 187.294689 
L 358.910261 187.221526 
L 359.31608 187.028633 
L 359.721898 185.158508 
L 360.127716 184.299615 
L 360.533534 184.500074 
L 360.939352 185.277536 
L 361.750989 185.268716 
L 362.156807 185.015152 
L 362.562625 185.796076 
L 362.968443 185.957616 
L 363.374261 185.848003 
L 364.185898 185.892563 
L 364.997534 185.735179 
L 365.403352 186.276245 
L 365.80917 185.92426 
L 366.214989 186.247262 
L 366.620807 186.411477 
L 367.026625 185.734071 
L 367.432443 185.479624 
L 367.838261 185.718253 
L 368.24408 185.690473 
L 368.649898 186.112403 
L 369.055716 186.273486 
L 369.461534 186.295534 
L 369.867352 185.989211 
L 370.27317 186.997044 
L 371.084807 186.170765 
L 371.490625 185.977352 
L 372.302261 186.875185 
L 372.70808 185.986072 
L 373.113898 185.923514 
L 373.519716 186.399051 
L 373.925534 186.190623 
L 374.331352 186.267194 
L 374.73717 186.775894 
L 375.142989 186.365425 
L 375.548807 186.908483 
L 375.954625 186.091172 
L 376.360443 185.744954 
L 376.766261 186.419137 
L 377.17208 186.485364 
L 377.577898 186.161955 
L 377.983716 186.35255 
L 379.606989 186.435734 
L 380.012807 186.270934 
L 380.418625 186.280163 
L 380.824443 186.571571 
L 381.230261 186.277754 
L 381.63608 186.138949 
L 382.041898 186.467975 
L 382.447716 186.182124 
L 382.853534 186.297055 
L 383.66517 186.071706 
L 384.070989 185.619711 
L 384.476807 186.231998 
L 384.882625 186.019974 
L 385.288443 186.273818 
L 386.505898 186.389846 
L 386.911716 186.049325 
L 387.317534 186.585675 
L 387.723352 185.907984 
L 388.12917 185.839286 
L 388.940807 185.906247 
L 389.346625 186.203396 
L 389.752443 186.185789 
L 390.969898 186.534952 
L 391.375716 186.425753 
L 391.781534 187.20929 
L 392.187352 186.719798 
L 392.59317 186.52465 
L 392.998989 186.153964 
L 393.404807 186.784297 
L 393.810625 186.40804 
L 394.622261 186.201713 
L 395.02808 186.48308 
L 396.651352 186.353096 
L 397.462989 186.642501 
L 397.868807 186.526376 
L 398.274625 185.881085 
L 398.680443 185.85757 
L 399.49208 186.964825 
L 399.897898 187.053255 
L 400.303716 186.680356 
L 400.709534 186.720612 
L 401.115352 186.554846 
L 401.52117 186.154126 
L 402.332807 186.243824 
L 402.738625 186.221894 
L 403.144443 185.734358 
L 403.550261 186.339099 
L 403.95608 186.253976 
L 404.361898 186.357352 
L 404.767716 186.635677 
L 405.173534 186.454912 
L 405.579352 186.401728 
L 405.98517 186.75468 
L 406.390989 186.846287 
L 406.796807 186.299263 
L 407.202625 186.117263 
L 407.608443 186.345605 
L 408.014261 186.360191 
L 408.42008 186.623006 
L 408.825898 186.388703 
L 409.231716 186.617551 
L 409.637534 186.09062 
L 410.043352 186.586596 
L 410.44917 186.190007 
L 410.854989 186.660059 
L 411.260807 186.198314 
L 411.666625 186.091641 
L 412.478261 185.492679 
L 412.88408 185.887332 
L 413.695716 186.26005 
L 414.507352 185.864112 
L 414.91317 186.417145 
L 415.318989 186.632897 
L 415.724807 185.933708 
L 416.130625 186.047637 
L 416.536443 186.288551 
L 416.942261 185.935597 
L 417.34808 186.265923 
L 417.753898 185.779064 
L 418.159716 186.225575 
L 418.565534 186.262343 
L 418.971352 186.175022 
L 419.782989 186.227135 
L 420.188807 186.45161 
L 420.594625 185.973284 
L 421.000443 186.244271 
L 421.406261 186.168642 
L 421.81208 185.807737 
L 422.217898 185.955103 
L 422.623716 185.719193 
L 423.029534 185.649423 
L 423.435352 185.813152 
L 423.84117 185.62288 
L 424.246989 185.698558 
L 424.652807 186.135217 
L 425.058625 186.148878 
L 425.464443 185.919774 
L 425.870261 186.061994 
L 426.27608 185.963711 
L 426.681898 186.235315 
L 428.30517 185.818094 
L 428.710989 185.097689 
L 429.116807 185.180212 
L 429.522625 185.592678 
L 429.928443 185.437189 
L 430.334261 185.40739 
L 430.74008 185.814178 
L 431.145898 185.288091 
L 431.551716 185.297282 
L 431.957534 185.748318 
L 432.363352 186.011659 
L 432.76917 185.750687 
L 433.174989 185.921088 
L 433.986625 185.553697 
L 434.392443 185.815104 
L 434.798261 186.233264 
L 435.20408 186.316116 
L 435.609898 186.106491 
L 436.015716 186.302507 
L 436.827352 186.116011 
L 437.23317 186.737963 
L 437.638989 186.254033 
L 438.044807 186.364181 
L 438.450625 186.005004 
L 439.66808 185.818936 
L 440.073898 186.107107 
L 440.885534 186.203682 
L 441.291352 185.955973 
L 441.69717 186.32537 
L 442.102989 185.95286 
L 442.508807 186.028157 
L 442.914625 185.742714 
L 443.320443 185.72313 
L 443.726261 186.013151 
L 444.537898 185.709862 
L 445.349534 185.929628 
L 445.755352 185.404373 
L 446.16117 185.736935 
L 446.566989 186.478309 
L 446.972807 185.97255 
L 447.378625 186.223972 
L 447.784443 185.852485 
L 448.59608 186.277131 
L 449.001898 186.02464 
L 449.407716 186.005793 
L 449.813534 185.790291 
L 450.219352 185.379349 
L 450.62517 185.745231 
L 451.436807 185.577989 
L 451.842625 185.490213 
L 452.248443 185.71399 
L 452.654261 185.547125 
L 453.06008 186.376341 
L 453.465898 185.685145 
L 453.871716 185.437634 
L 454.277534 185.782203 
L 454.683352 185.450856 
L 455.08917 185.439633 
L 455.900807 185.955089 
L 456.306625 185.591906 
L 457.118261 185.952991 
L 457.52408 185.654438 
L 457.929898 185.861792 
L 458.335716 185.674963 
L 458.741534 185.971651 
L 459.147352 186.050419 
L 459.55317 185.671561 
L 459.958989 185.714797 
L 460.364807 185.910593 
L 460.770625 185.816853 
L 461.176443 185.941182 
L 461.582261 185.56361 
L 461.98808 185.856095 
L 462.393898 185.937247 
L 462.799716 185.525211 
L 463.611352 185.502809 
L 464.01717 185.799641 
L 464.422989 185.316523 
L 464.828807 185.723265 
L 465.234625 185.748763 
L 465.640443 185.469673 
L 466.046261 186.073279 
L 466.45208 185.85243 
L 466.857898 186.304317 
L 467.263716 185.806278 
L 467.669534 185.647092 
L 468.075352 185.774718 
L 468.48117 185.772281 
L 468.886989 185.331673 
L 469.292807 185.665762 
L 469.698625 185.342823 
L 470.91608 186.082109 
L 471.321898 186.089877 
L 471.727716 184.787684 
L 472.133534 185.59565 
L 472.94517 185.976348 
L 473.350989 185.979838 
L 473.756807 185.464481 
L 474.568443 185.766317 
L 474.974261 185.304157 
L 475.38008 185.241858 
L 475.785898 185.630348 
L 476.597534 185.863152 
L 477.003352 185.674776 
L 477.40917 185.842227 
L 477.814989 185.839063 
L 478.220807 185.343559 
L 479.032443 185.748516 
L 479.438261 185.667737 
L 479.84408 185.860776 
L 480.249898 185.722093 
L 480.655716 185.396313 
L 481.467352 185.501576 
L 481.87317 185.122117 
L 482.278989 185.89944 
L 482.684807 185.378716 
L 483.090625 185.717443 
L 483.496443 185.3795 
L 483.902261 185.614582 
L 484.713898 185.826792 
L 485.119716 185.921637 
L 485.931352 185.273631 
L 486.33717 185.393312 
L 486.742989 185.974657 
L 487.148807 184.983217 
L 487.960443 185.771134 
L 488.366261 185.812377 
L 488.77208 185.487687 
L 489.583716 185.658713 
L 489.989534 185.350863 
L 490.395352 185.208361 
L 490.80117 185.581589 
L 491.206989 185.215886 
L 491.612807 185.230168 
L 492.424443 184.996668 
L 493.23608 185.660728 
L 493.641898 185.400554 
L 494.047716 185.493324 
L 494.859352 185.242921 
L 495.26517 185.382258 
L 495.670989 185.666778 
L 496.482625 185.047268 
L 497.294261 185.643121 
L 497.70008 185.291113 
L 498.105898 185.600169 
L 498.511716 185.163958 
L 498.917534 185.262357 
L 499.323352 185.641168 
L 499.72917 185.21704 
L 500.134989 185.502371 
L 500.540807 185.237078 
L 500.946625 185.503319 
L 501.352443 184.951404 
L 501.758261 185.278299 
L 502.16408 185.06473 
L 502.569898 185.618755 
L 503.787352 184.901788 
L 504.19317 185.055061 
L 504.598989 185.341415 
L 505.004807 185.35212 
L 505.410625 185.230386 
L 505.816443 185.557566 
L 506.222261 185.138828 
L 507.033898 185.212811 
L 507.439716 185.110931 
L 507.845534 184.766846 
L 508.251352 185.098531 
L 508.65717 184.858957 
L 509.062989 185.366991 
L 509.468807 184.832966 
L 509.874625 185.304899 
L 510.280443 185.348768 
L 510.686261 185.019933 
L 511.09208 184.066157 
L 511.497898 184.953365 
L 511.903716 185.029033 
L 512.309534 184.580125 
L 513.12117 184.812666 
L 513.526989 185.011276 
L 513.932807 185.488328 
L 514.338625 184.839575 
L 514.744443 185.246628 
L 515.150261 185.46906 
L 515.961898 184.708155 
L 516.367716 184.612363 
L 516.773534 185.073962 
L 517.179352 185.00207 
L 517.58517 184.667401 
L 517.990989 185.660946 
L 518.396807 185.387543 
L 519.208443 184.554148 
L 520.425898 184.994997 
L 520.831716 184.615874 
L 521.643352 185.217749 
L 522.04917 184.890171 
L 522.454989 185.107049 
L 522.860807 184.634478 
L 524.48408 185.260286 
L 524.889898 184.963435 
L 525.295716 185.088686 
L 525.701534 184.95617 
L 526.107352 185.05309 
L 526.51317 185.289761 
L 526.918989 185.137012 
L 527.324807 185.338344 
L 528.136443 184.990153 
L 529.353898 185.089635 
L 529.759716 185.092262 
L 530.165534 184.908988 
L 530.571352 184.89784 
L 530.97717 185.154122 
L 531.382989 185.214908 
L 531.788807 185.076644 
L 532.194625 185.285548 
L 532.600443 185.064083 
L 533.006261 185.229144 
L 533.41208 184.883728 
L 533.817898 184.752453 
L 534.223716 185.124473 
L 534.629534 184.638999 
L 535.035352 184.873653 
L 535.44117 185.464575 
L 535.846989 185.312124 
L 536.658625 185.285787 
L 537.064443 185.473608 
L 537.470261 184.54076 
L 538.281898 185.16694 
L 538.687716 184.770681 
L 539.093534 184.939562 
L 539.499352 184.880314 
L 539.90517 185.155055 
L 540.310989 184.841595 
L 540.716807 185.55881 
L 541.122625 185.067812 
L 541.528443 184.951094 
L 541.934261 185.066114 
L 542.34008 184.687902 
L 542.745898 184.900511 
L 543.151716 184.912242 
L 543.557534 184.660179 
L 544.36917 184.620449 
L 544.774989 184.937311 
L 545.180807 184.615958 
L 545.586625 184.728864 
L 545.992443 184.961336 
L 546.80408 184.537369 
L 548.021534 184.902272 
L 548.427352 185.005211 
L 548.83317 184.782223 
L 549.238989 184.413976 
L 549.644807 184.733595 
L 550.456443 184.808739 
L 550.862261 185.145023 
L 551.26808 184.699711 
L 551.673898 184.865599 
L 552.079716 184.612051 
L 552.485534 185.049187 
L 553.29717 185.289952 
L 553.702989 184.809121 
L 554.108807 185.01908 
L 554.514625 184.829658 
L 554.920443 184.945658 
L 555.73208 184.921307 
L 556.137898 185.744583 
L 556.543716 185.289857 
L 557.76117 185.204668 
L 558.166989 185.02375 
L 558.572807 185.851191 
L 558.978625 185.202026 
L 559.384443 185.299428 
L 559.790261 185.258903 
L 560.19608 185.765713 
L 560.601898 185.017931 
L 561.007716 185.223402 
L 561.413534 184.843359 
L 561.819352 185.161111 
L 562.22517 184.758296 
L 562.630989 184.801805 
L 563.036807 185.203225 
L 563.442625 184.830448 
L 563.848443 185.276529 
L 564.254261 185.156063 
L 564.66008 185.401703 
L 565.065898 185.368559 
L 565.471716 185.039974 
L 565.877534 185.364377 
L 566.283352 185.372773 
L 566.68917 185.124982 
L 567.906625 185.338046 
L 568.312443 185.160352 
L 568.718261 185.622062 
L 569.12408 185.638071 
L 569.529898 184.985756 
L 569.935716 185.545884 
L 570.341534 185.73752 
L 570.747352 185.255421 
L 571.558989 185.100956 
L 571.964807 185.390662 
L 572.776443 185.383446 
L 573.182261 185.138582 
L 573.58808 185.081053 
L 573.993898 185.36929 
L 574.399716 185.155861 
L 574.805534 185.25123 
L 575.61717 184.964765 
L 576.022989 184.843631 
L 576.428807 185.11617 
L 576.834625 184.955133 
L 577.240443 185.018476 
L 577.646261 184.872595 
L 578.05208 185.073209 
L 578.457898 184.859193 
L 578.863716 185.007464 
L 579.269534 184.919116 
L 579.675352 185.160708 
L 580.486989 184.992052 
L 580.892807 185.448633 
L 581.298625 185.129941 
L 581.704443 185.317515 
L 582.110261 185.290708 
L 582.51608 184.780939 
L 582.921898 180.036991 
L 583.327716 182.56178 
L 583.733534 183.98074 
L 584.139352 183.608499 
L 584.54517 183.802444 
L 584.950989 182.828187 
L 585.356807 183.003421 
L 585.762625 182.664868 
L 586.168443 182.660828 
L 586.574261 182.797474 
L 587.385898 182.332724 
L 587.791716 182.871875 
L 588.197534 182.77053 
L 588.603352 182.828017 
L 589.00917 183.259699 
L 589.414989 183.433791 
L 589.820807 183.009316 
L 591.038261 183.394681 
L 591.44408 183.724366 
L 591.849898 183.392057 
L 592.255716 183.204305 
L 592.661534 183.679701 
L 593.47317 183.20975 
L 593.878989 183.655039 
L 594.284807 183.597079 
L 594.690625 183.933037 
L 595.096443 183.533879 
L 595.502261 183.312294 
L 595.90808 183.714128 
L 596.313898 183.471159 
L 596.719716 183.50005 
L 597.125534 183.830161 
L 597.531352 184.314002 
L 597.93717 183.612529 
L 598.342989 183.560315 
L 599.154625 183.656162 
L 599.560443 183.468498 
L 599.966261 183.717202 
L 600.37208 184.223634 
L 600.777898 183.773258 
L 601.183716 183.63697 
L 601.995352 184.015264 
L 602.806989 183.788114 
L 603.212807 183.96905 
L 603.618625 183.494329 
L 604.024443 183.749704 
L 604.430261 183.728994 
L 604.83608 183.879491 
L 605.647716 183.43429 
L 606.459352 183.806607 
L 606.86517 183.222694 
L 607.270989 183.761326 
L 607.676807 183.553487 
L 608.082625 183.785491 
L 609.30008 183.709997 
L 609.705898 183.463813 
L 610.111716 183.723789 
L 610.517534 183.340668 
L 610.923352 183.923346 
L 611.32917 183.457319 
L 611.734989 183.66021 
L 612.546625 183.269472 
L 613.358261 183.691664 
L 613.76408 183.935596 
L 614.169898 183.566451 
L 614.981534 183.387112 
L 615.387352 183.70615 
L 615.79317 183.314692 
L 616.198989 183.848061 
L 616.604807 183.628863 
L 617.010625 183.181817 
L 617.416443 183.388481 
L 617.822261 183.744475 
L 618.22808 183.755057 
L 618.633898 183.646553 
L 619.445534 183.873659 
L 619.851352 183.949715 
L 620.25717 183.213537 
L 620.662989 183.281806 
L 621.068807 183.690155 
L 621.474625 183.578216 
L 621.880443 183.856638 
L 622.286261 183.406458 
L 622.69208 183.567542 
L 623.097898 184.027791 
L 623.503716 183.50691 
L 623.909534 183.562667 
L 624.315352 183.266677 
L 624.72117 183.180689 
L 625.126989 183.610598 
L 625.126989 183.610598 
" clip-path="url(#pff33a11f42)" style="fill: none; stroke: #ff7f0e; stroke-width: 1.5; stroke-linecap: square"/>
   </g>
   <g id="patch_3">
    <path d="M 92.490625 308.63625 
L 92.490625 31.43625 
" style="fill: none; stroke: #000000; stroke-width: 0.8; stroke-linejoin: miter; stroke-linecap: square"/>
   </g>
   <g id="patch_4">
    <path d="M 650.490625 308.63625 
L 650.490625 31.43625 
" style="fill: none; stroke: #000000; stroke-width: 0.8; stroke-linejoin: miter; stroke-linecap: square"/>
   </g>
   <g id="patch_5">
    <path d="M 92.490625 308.63625 
L 650.490625 308.63625 
" style="fill: none; stroke: #000000; stroke-width: 0.8; stroke-linejoin: miter; stroke-linecap: square"/>
   </g>
   <g id="patch_6">
    <path d="M 92.490625 31.43625 
L 650.490625 31.43625 
" style="fill: none; stroke: #000000; stroke-width: 0.8; stroke-linejoin: miter; stroke-linecap: square"/>
   </g>
   <g id="text_15">
    <!-- Generator and Discriminator Loss During Training -->
    <g transform="translate(74.258125 25.43625) scale(0.24 -0.24)">
     <defs>
      <path id="DejaVuSans-47" d="M 3809 666 
L 3809 1919 
L 2778 1919 
L 2778 2438 
L 4434 2438 
L 4434 434 
Q 4069 175 3628 42 
Q 3188 -91 2688 -91 
Q 1594 -91 976 548 
Q 359 1188 359 2328 
Q 359 3472 976 4111 
Q 1594 4750 2688 4750 
Q 3144 4750 3555 4637 
Q 3966 4525 4313 4306 
L 4313 3634 
Q 3963 3931 3569 4081 
Q 3175 4231 2741 4231 
Q 1884 4231 1454 3753 
Q 1025 3275 1025 2328 
Q 1025 1384 1454 906 
Q 1884 428 2741 428 
Q 3075 428 3337 486 
Q 3600 544 3809 666 
z
" transform="scale(0.015625)"/>
      <path id="DejaVuSans-20" transform="scale(0.015625)"/>
      <path id="DejaVuSans-64" d="M 2906 2969 
L 2906 4863 
L 3481 4863 
L 3481 0 
L 2906 0 
L 2906 525 
Q 2725 213 2448 61 
Q 2172 -91 1784 -91 
Q 1150 -91 751 415 
Q 353 922 353 1747 
Q 353 2572 751 3078 
Q 1150 3584 1784 3584 
Q 2172 3584 2448 3432 
Q 2725 3281 2906 2969 
z
M 947 1747 
Q 947 1113 1208 752 
Q 1469 391 1925 391 
Q 2381 391 2643 752 
Q 2906 1113 2906 1747 
Q 2906 2381 2643 2742 
Q 2381 3103 1925 3103 
Q 1469 3103 1208 2742 
Q 947 2381 947 1747 
z
" transform="scale(0.015625)"/>
      <path id="DejaVuSans-44" d="M 1259 4147 
L 1259 519 
L 2022 519 
Q 2988 519 3436 956 
Q 3884 1394 3884 2338 
Q 3884 3275 3436 3711 
Q 2988 4147 2022 4147 
L 1259 4147 
z
M 628 4666 
L 1925 4666 
Q 3281 4666 3915 4102 
Q 4550 3538 4550 2338 
Q 4550 1131 3912 565 
Q 3275 0 1925 0 
L 628 0 
L 628 4666 
z
" transform="scale(0.015625)"/>
      <path id="DejaVuSans-63" d="M 3122 3366 
L 3122 2828 
Q 2878 2963 2633 3030 
Q 2388 3097 2138 3097 
Q 1578 3097 1268 2742 
Q 959 2388 959 1747 
Q 959 1106 1268 751 
Q 1578 397 2138 397 
Q 2388 397 2633 464 
Q 2878 531 3122 666 
L 3122 134 
Q 2881 22 2623 -34 
Q 2366 -91 2075 -91 
Q 1284 -91 818 406 
Q 353 903 353 1747 
Q 353 2603 823 3093 
Q 1294 3584 2113 3584 
Q 2378 3584 2631 3529 
Q 2884 3475 3122 3366 
z
" transform="scale(0.015625)"/>
      <path id="DejaVuSans-6d" d="M 3328 2828 
Q 3544 3216 3844 3400 
Q 4144 3584 4550 3584 
Q 5097 3584 5394 3201 
Q 5691 2819 5691 2113 
L 5691 0 
L 5113 0 
L 5113 2094 
Q 5113 2597 4934 2840 
Q 4756 3084 4391 3084 
Q 3944 3084 3684 2787 
Q 3425 2491 3425 1978 
L 3425 0 
L 2847 0 
L 2847 2094 
Q 2847 2600 2669 2842 
Q 2491 3084 2119 3084 
Q 1678 3084 1418 2786 
Q 1159 2488 1159 1978 
L 1159 0 
L 581 0 
L 581 3500 
L 1159 3500 
L 1159 2956 
Q 1356 3278 1631 3431 
Q 1906 3584 2284 3584 
Q 2666 3584 2933 3390 
Q 3200 3197 3328 2828 
z
" transform="scale(0.015625)"/>
      <path id="DejaVuSans-75" d="M 544 1381 
L 544 3500 
L 1119 3500 
L 1119 1403 
Q 1119 906 1312 657 
Q 1506 409 1894 409 
Q 2359 409 2629 706 
Q 2900 1003 2900 1516 
L 2900 3500 
L 3475 3500 
L 3475 0 
L 2900 0 
L 2900 538 
Q 2691 219 2414 64 
Q 2138 -91 1772 -91 
Q 1169 -91 856 284 
Q 544 659 544 1381 
z
M 1991 3584 
L 1991 3584 
z
" transform="scale(0.015625)"/>
      <path id="DejaVuSans-67" d="M 2906 1791 
Q 2906 2416 2648 2759 
Q 2391 3103 1925 3103 
Q 1463 3103 1205 2759 
Q 947 2416 947 1791 
Q 947 1169 1205 825 
Q 1463 481 1925 481 
Q 2391 481 2648 825 
Q 2906 1169 2906 1791 
z
M 3481 434 
Q 3481 -459 3084 -895 
Q 2688 -1331 1869 -1331 
Q 1566 -1331 1297 -1286 
Q 1028 -1241 775 -1147 
L 775 -588 
Q 1028 -725 1275 -790 
Q 1522 -856 1778 -856 
Q 2344 -856 2625 -561 
Q 2906 -266 2906 331 
L 2906 616 
Q 2728 306 2450 153 
Q 2172 0 1784 0 
Q 1141 0 747 490 
Q 353 981 353 1791 
Q 353 2603 747 3093 
Q 1141 3584 1784 3584 
Q 2172 3584 2450 3431 
Q 2728 3278 2906 2969 
L 2906 3500 
L 3481 3500 
L 3481 434 
z
" transform="scale(0.015625)"/>
      <path id="DejaVuSans-54" d="M -19 4666 
L 3928 4666 
L 3928 4134 
L 2272 4134 
L 2272 0 
L 1638 0 
L 1638 4134 
L -19 4134 
L -19 4666 
z
" transform="scale(0.015625)"/>
     </defs>
     <use xlink:href="#DejaVuSans-47"/>
     <use xlink:href="#DejaVuSans-65" x="77.490234"/>
     <use xlink:href="#DejaVuSans-6e" x="139.013672"/>
     <use xlink:href="#DejaVuSans-65" x="202.392578"/>
     <use xlink:href="#DejaVuSans-72" x="263.916016"/>
     <use xlink:href="#DejaVuSans-61" x="305.029297"/>
     <use xlink:href="#DejaVuSans-74" x="366.308594"/>
     <use xlink:href="#DejaVuSans-6f" x="405.517578"/>
     <use xlink:href="#DejaVuSans-72" x="466.699219"/>
     <use xlink:href="#DejaVuSans-20" x="507.8125"/>
     <use xlink:href="#DejaVuSans-61" x="539.599609"/>
     <use xlink:href="#DejaVuSans-6e" x="600.878906"/>
     <use xlink:href="#DejaVuSans-64" x="664.257812"/>
     <use xlink:href="#DejaVuSans-20" x="727.734375"/>
     <use xlink:href="#DejaVuSans-44" x="759.521484"/>
     <use xlink:href="#DejaVuSans-69" x="836.523438"/>
     <use xlink:href="#DejaVuSans-73" x="864.306641"/>
     <use xlink:href="#DejaVuSans-63" x="916.40625"/>
     <use xlink:href="#DejaVuSans-72" x="971.386719"/>
     <use xlink:href="#DejaVuSans-69" x="1012.5"/>
     <use xlink:href="#DejaVuSans-6d" x="1040.283203"/>
     <use xlink:href="#DejaVuSans-69" x="1137.695312"/>
     <use xlink:href="#DejaVuSans-6e" x="1165.478516"/>
     <use xlink:href="#DejaVuSans-61" x="1228.857422"/>
     <use xlink:href="#DejaVuSans-74" x="1290.136719"/>
     <use xlink:href="#DejaVuSans-6f" x="1329.345703"/>
     <use xlink:href="#DejaVuSans-72" x="1390.527344"/>
     <use xlink:href="#DejaVuSans-20" x="1431.640625"/>
     <use xlink:href="#DejaVuSans-4c" x="1463.427734"/>
     <use xlink:href="#DejaVuSans-6f" x="1517.390625"/>
     <use xlink:href="#DejaVuSans-73" x="1578.572266"/>
     <use xlink:href="#DejaVuSans-73" x="1630.671875"/>
     <use xlink:href="#DejaVuSans-20" x="1682.771484"/>
     <use xlink:href="#DejaVuSans-44" x="1714.558594"/>
     <use xlink:href="#DejaVuSans-75" x="1791.560547"/>
     <use xlink:href="#DejaVuSans-72" x="1854.939453"/>
     <use xlink:href="#DejaVuSans-69" x="1896.052734"/>
     <use xlink:href="#DejaVuSans-6e" x="1923.835938"/>
     <use xlink:href="#DejaVuSans-67" x="1987.214844"/>
     <use xlink:href="#DejaVuSans-20" x="2050.691406"/>
     <use xlink:href="#DejaVuSans-54" x="2082.478516"/>
     <use xlink:href="#DejaVuSans-72" x="2128.8125"/>
     <use xlink:href="#DejaVuSans-61" x="2169.925781"/>
     <use xlink:href="#DejaVuSans-69" x="2231.205078"/>
     <use xlink:href="#DejaVuSans-6e" x="2258.988281"/>
     <use xlink:href="#DejaVuSans-69" x="2322.367188"/>
     <use xlink:href="#DejaVuSans-6e" x="2350.150391"/>
     <use xlink:href="#DejaVuSans-67" x="2413.529297"/>
    </g>
   </g>
   <g id="legend_1">
    <g id="patch_7">
     <path d="M 556.99375 106.14875 
L 636.490625 106.14875 
Q 640.490625 106.14875 640.490625 102.14875 
L 640.490625 45.43625 
Q 640.490625 41.43625 636.490625 41.43625 
L 556.99375 41.43625 
Q 552.99375 41.43625 552.99375 45.43625 
L 552.99375 102.14875 
Q 552.99375 106.14875 556.99375 106.14875 
z
" style="fill: #ffffff; opacity: 0.8; stroke: #cccccc; stroke-linejoin: miter"/>
    </g>
    <g id="line2d_15">
     <path d="M 560.99375 57.633125 
L 580.99375 57.633125 
L 600.99375 57.633125 
" style="fill: none; stroke: #1f77b4; stroke-width: 1.5; stroke-linecap: square"/>
    </g>
    <g id="text_16">
     <!-- G -->
     <g transform="translate(616.99375 64.633125) scale(0.2 -0.2)">
      <use xlink:href="#DejaVuSans-47"/>
     </g>
    </g>
    <g id="line2d_16">
     <path d="M 560.99375 86.989375 
L 580.99375 86.989375 
L 600.99375 86.989375 
" style="fill: none; stroke: #ff7f0e; stroke-width: 1.5; stroke-linecap: square"/>
    </g>
    <g id="text_17">
     <!-- D -->
     <g transform="translate(616.99375 93.989375) scale(0.2 -0.2)">
      <use xlink:href="#DejaVuSans-44"/>
     </g>
    </g>
   </g>
  </g>
 </g>
 <defs>
  <clipPath id="pff33a11f42">
   <rect x="92.490625" y="31.43625" width="558" height="277.2"/>
  </clipPath>
 </defs>
</svg>
