<?xml version="1.0" encoding="utf-8" standalone="no"?>
<!DOCTYPE svg PUBLIC "-//W3C//DTD SVG 1.1//EN"
  "http://www.w3.org/Graphics/SVG/1.1/DTD/svg11.dtd">
<svg xmlns:xlink="http://www.w3.org/1999/xlink" width="675.923125pt" height="365.54875pt" viewBox="0 0 675.923125 365.54875" xmlns="http://www.w3.org/2000/svg" version="1.1">
 <metadata>
  <rdf:RDF xmlns:dc="http://purl.org/dc/elements/1.1/" xmlns:cc="http://creativecommons.org/ns#" xmlns:rdf="http://www.w3.org/1999/02/22-rdf-syntax-ns#">
   <cc:Work>
    <dc:type rdf:resource="http://purl.org/dc/dcmitype/StillImage"/>
    <dc:date>2024-02-02T00:35:14.732125</dc:date>
    <dc:format>image/svg+xml</dc:format>
    <dc:creator>
     <cc:Agent>
      <dc:title>Matplotlib v3.7.2, https://matplotlib.org/</dc:title>
     </cc:Agent>
    </dc:creator>
   </cc:Work>
  </rdf:RDF>
 </metadata>
 <defs>
  <style type="text/css">*{stroke-linejoin: round; stroke-linecap: butt}</style>
 </defs>
 <g id="figure_1">
  <g id="patch_1">
   <path d="M 0 365.54875 
L 675.923125 365.54875 
L 675.923125 -0 
L 0 -0 
z
" style="fill: #ffffff"/>
  </g>
  <g id="axes_1">
   <g id="patch_2">
    <path d="M 92.490625 308.63625 
L 650.490625 308.63625 
L 650.490625 31.43625 
L 92.490625 31.43625 
z
" style="fill: #ffffff"/>
   </g>
   <g id="matplotlib.axis_1">
    <g id="xtick_1">
     <g id="line2d_1">
      <defs>
       <path id="m980b0e560c" d="M 0 0 
L 0 3.5 
" style="stroke: #000000; stroke-width: 0.8"/>
      </defs>
      <g>
       <use xlink:href="#m980b0e560c" x="117.854261" y="308.63625" style="stroke: #000000; stroke-width: 0.8"/>
      </g>
     </g>
     <g id="text_1">
      <!-- 0 -->
      <g transform="translate(111.491761 330.833125) scale(0.2 -0.2)">
       <defs>
        <path id="DejaVuSans-30" d="M 2034 4250 
Q 1547 4250 1301 3770 
Q 1056 3291 1056 2328 
Q 1056 1369 1301 889 
Q 1547 409 2034 409 
Q 2525 409 2770 889 
Q 3016 1369 3016 2328 
Q 3016 3291 2770 3770 
Q 2525 4250 2034 4250 
z
M 2034 4750 
Q 2819 4750 3233 4129 
Q 3647 3509 3647 2328 
Q 3647 1150 3233 529 
Q 2819 -91 2034 -91 
Q 1250 -91 836 529 
Q 422 1150 422 2328 
Q 422 3509 836 4129 
Q 1250 4750 2034 4750 
z
" transform="scale(0.015625)"/>
       </defs>
       <use xlink:href="#DejaVuSans-30"/>
      </g>
     </g>
    </g>
    <g id="xtick_2">
     <g id="line2d_2">
      <g>
       <use xlink:href="#m980b0e560c" x="219.308807" y="308.63625" style="stroke: #000000; stroke-width: 0.8"/>
      </g>
     </g>
     <g id="text_2">
      <!-- 50 -->
      <g transform="translate(206.583807 330.833125) scale(0.2 -0.2)">
       <defs>
        <path id="DejaVuSans-35" d="M 691 4666 
L 3169 4666 
L 3169 4134 
L 1269 4134 
L 1269 2991 
Q 1406 3038 1543 3061 
Q 1681 3084 1819 3084 
Q 2600 3084 3056 2656 
Q 3513 2228 3513 1497 
Q 3513 744 3044 326 
Q 2575 -91 1722 -91 
Q 1428 -91 1123 -41 
Q 819 9 494 109 
L 494 744 
Q 775 591 1075 516 
Q 1375 441 1709 441 
Q 2250 441 2565 725 
Q 2881 1009 2881 1497 
Q 2881 1984 2565 2268 
Q 2250 2553 1709 2553 
Q 1456 2553 1204 2497 
Q 953 2441 691 2322 
L 691 4666 
z
" transform="scale(0.015625)"/>
       </defs>
       <use xlink:href="#DejaVuSans-35"/>
       <use xlink:href="#DejaVuSans-30" x="63.623047"/>
      </g>
     </g>
    </g>
    <g id="xtick_3">
     <g id="line2d_3">
      <g>
       <use xlink:href="#m980b0e560c" x="320.763352" y="308.63625" style="stroke: #000000; stroke-width: 0.8"/>
      </g>
     </g>
     <g id="text_3">
      <!-- 100 -->
      <g transform="translate(301.675852 330.833125) scale(0.2 -0.2)">
       <defs>
        <path id="DejaVuSans-31" d="M 794 531 
L 1825 531 
L 1825 4091 
L 703 3866 
L 703 4441 
L 1819 4666 
L 2450 4666 
L 2450 531 
L 3481 531 
L 3481 0 
L 794 0 
L 794 531 
z
" transform="scale(0.015625)"/>
       </defs>
       <use xlink:href="#DejaVuSans-31"/>
       <use xlink:href="#DejaVuSans-30" x="63.623047"/>
       <use xlink:href="#DejaVuSans-30" x="127.246094"/>
      </g>
     </g>
    </g>
    <g id="xtick_4">
     <g id="line2d_4">
      <g>
       <use xlink:href="#m980b0e560c" x="422.217898" y="308.63625" style="stroke: #000000; stroke-width: 0.8"/>
      </g>
     </g>
     <g id="text_4">
      <!-- 150 -->
      <g transform="translate(403.130398 330.833125) scale(0.2 -0.2)">
       <use xlink:href="#DejaVuSans-31"/>
       <use xlink:href="#DejaVuSans-35" x="63.623047"/>
       <use xlink:href="#DejaVuSans-30" x="127.246094"/>
      </g>
     </g>
    </g>
    <g id="xtick_5">
     <g id="line2d_5">
      <g>
       <use xlink:href="#m980b0e560c" x="523.672443" y="308.63625" style="stroke: #000000; stroke-width: 0.8"/>
      </g>
     </g>
     <g id="text_5">
      <!-- 200 -->
      <g transform="translate(504.584943 330.833125) scale(0.2 -0.2)">
       <defs>
        <path id="DejaVuSans-32" d="M 1228 531 
L 3431 531 
L 3431 0 
L 469 0 
L 469 531 
Q 828 903 1448 1529 
Q 2069 2156 2228 2338 
Q 2531 2678 2651 2914 
Q 2772 3150 2772 3378 
Q 2772 3750 2511 3984 
Q 2250 4219 1831 4219 
Q 1534 4219 1204 4116 
Q 875 4013 500 3803 
L 500 4441 
Q 881 4594 1212 4672 
Q 1544 4750 1819 4750 
Q 2544 4750 2975 4387 
Q 3406 4025 3406 3419 
Q 3406 3131 3298 2873 
Q 3191 2616 2906 2266 
Q 2828 2175 2409 1742 
Q 1991 1309 1228 531 
z
" transform="scale(0.015625)"/>
       </defs>
       <use xlink:href="#DejaVuSans-32"/>
       <use xlink:href="#DejaVuSans-30" x="63.623047"/>
       <use xlink:href="#DejaVuSans-30" x="127.246094"/>
      </g>
     </g>
    </g>
    <g id="xtick_6">
     <g id="line2d_6">
      <g>
       <use xlink:href="#m980b0e560c" x="625.126989" y="308.63625" style="stroke: #000000; stroke-width: 0.8"/>
      </g>
     </g>
     <g id="text_6">
      <!-- 250 -->
      <g transform="translate(606.039489 330.833125) scale(0.2 -0.2)">
       <use xlink:href="#DejaVuSans-32"/>
       <use xlink:href="#DejaVuSans-35" x="63.623047"/>
       <use xlink:href="#DejaVuSans-30" x="127.246094"/>
      </g>
     </g>
    </g>
    <g id="text_7">
     <!-- iterations -->
     <g transform="translate(324.035938 354.189375) scale(0.2 -0.2)">
      <defs>
       <path id="DejaVuSans-69" d="M 603 3500 
L 1178 3500 
L 1178 0 
L 603 0 
L 603 3500 
z
M 603 4863 
L 1178 4863 
L 1178 4134 
L 603 4134 
L 603 4863 
z
" transform="scale(0.015625)"/>
       <path id="DejaVuSans-74" d="M 1172 4494 
L 1172 3500 
L 2356 3500 
L 2356 3053 
L 1172 3053 
L 1172 1153 
Q 1172 725 1289 603 
Q 1406 481 1766 481 
L 2356 481 
L 2356 0 
L 1766 0 
Q 1100 0 847 248 
Q 594 497 594 1153 
L 594 3053 
L 172 3053 
L 172 3500 
L 594 3500 
L 594 4494 
L 1172 4494 
z
" transform="scale(0.015625)"/>
       <path id="DejaVuSans-65" d="M 3597 1894 
L 3597 1613 
L 953 1613 
Q 991 1019 1311 708 
Q 1631 397 2203 397 
Q 2534 397 2845 478 
Q 3156 559 3463 722 
L 3463 178 
Q 3153 47 2828 -22 
Q 2503 -91 2169 -91 
Q 1331 -91 842 396 
Q 353 884 353 1716 
Q 353 2575 817 3079 
Q 1281 3584 2069 3584 
Q 2775 3584 3186 3129 
Q 3597 2675 3597 1894 
z
M 3022 2063 
Q 3016 2534 2758 2815 
Q 2500 3097 2075 3097 
Q 1594 3097 1305 2825 
Q 1016 2553 972 2059 
L 3022 2063 
z
" transform="scale(0.015625)"/>
       <path id="DejaVuSans-72" d="M 2631 2963 
Q 2534 3019 2420 3045 
Q 2306 3072 2169 3072 
Q 1681 3072 1420 2755 
Q 1159 2438 1159 1844 
L 1159 0 
L 581 0 
L 581 3500 
L 1159 3500 
L 1159 2956 
Q 1341 3275 1631 3429 
Q 1922 3584 2338 3584 
Q 2397 3584 2469 3576 
Q 2541 3569 2628 3553 
L 2631 2963 
z
" transform="scale(0.015625)"/>
       <path id="DejaVuSans-61" d="M 2194 1759 
Q 1497 1759 1228 1600 
Q 959 1441 959 1056 
Q 959 750 1161 570 
Q 1363 391 1709 391 
Q 2188 391 2477 730 
Q 2766 1069 2766 1631 
L 2766 1759 
L 2194 1759 
z
M 3341 1997 
L 3341 0 
L 2766 0 
L 2766 531 
Q 2569 213 2275 61 
Q 1981 -91 1556 -91 
Q 1019 -91 701 211 
Q 384 513 384 1019 
Q 384 1609 779 1909 
Q 1175 2209 1959 2209 
L 2766 2209 
L 2766 2266 
Q 2766 2663 2505 2880 
Q 2244 3097 1772 3097 
Q 1472 3097 1187 3025 
Q 903 2953 641 2809 
L 641 3341 
Q 956 3463 1253 3523 
Q 1550 3584 1831 3584 
Q 2591 3584 2966 3190 
Q 3341 2797 3341 1997 
z
" transform="scale(0.015625)"/>
       <path id="DejaVuSans-6f" d="M 1959 3097 
Q 1497 3097 1228 2736 
Q 959 2375 959 1747 
Q 959 1119 1226 758 
Q 1494 397 1959 397 
Q 2419 397 2687 759 
Q 2956 1122 2956 1747 
Q 2956 2369 2687 2733 
Q 2419 3097 1959 3097 
z
M 1959 3584 
Q 2709 3584 3137 3096 
Q 3566 2609 3566 1747 
Q 3566 888 3137 398 
Q 2709 -91 1959 -91 
Q 1206 -91 779 398 
Q 353 888 353 1747 
Q 353 2609 779 3096 
Q 1206 3584 1959 3584 
z
" transform="scale(0.015625)"/>
       <path id="DejaVuSans-6e" d="M 3513 2113 
L 3513 0 
L 2938 0 
L 2938 2094 
Q 2938 2591 2744 2837 
Q 2550 3084 2163 3084 
Q 1697 3084 1428 2787 
Q 1159 2491 1159 1978 
L 1159 0 
L 581 0 
L 581 3500 
L 1159 3500 
L 1159 2956 
Q 1366 3272 1645 3428 
Q 1925 3584 2291 3584 
Q 2894 3584 3203 3211 
Q 3513 2838 3513 2113 
z
" transform="scale(0.015625)"/>
       <path id="DejaVuSans-73" d="M 2834 3397 
L 2834 2853 
Q 2591 2978 2328 3040 
Q 2066 3103 1784 3103 
Q 1356 3103 1142 2972 
Q 928 2841 928 2578 
Q 928 2378 1081 2264 
Q 1234 2150 1697 2047 
L 1894 2003 
Q 2506 1872 2764 1633 
Q 3022 1394 3022 966 
Q 3022 478 2636 193 
Q 2250 -91 1575 -91 
Q 1294 -91 989 -36 
Q 684 19 347 128 
L 347 722 
Q 666 556 975 473 
Q 1284 391 1588 391 
Q 1994 391 2212 530 
Q 2431 669 2431 922 
Q 2431 1156 2273 1281 
Q 2116 1406 1581 1522 
L 1381 1569 
Q 847 1681 609 1914 
Q 372 2147 372 2553 
Q 372 3047 722 3315 
Q 1072 3584 1716 3584 
Q 2034 3584 2315 3537 
Q 2597 3491 2834 3397 
z
" transform="scale(0.015625)"/>
      </defs>
      <use xlink:href="#DejaVuSans-69"/>
      <use xlink:href="#DejaVuSans-74" x="27.783203"/>
      <use xlink:href="#DejaVuSans-65" x="66.992188"/>
      <use xlink:href="#DejaVuSans-72" x="128.515625"/>
      <use xlink:href="#DejaVuSans-61" x="169.628906"/>
      <use xlink:href="#DejaVuSans-74" x="230.908203"/>
      <use xlink:href="#DejaVuSans-69" x="270.117188"/>
      <use xlink:href="#DejaVuSans-6f" x="297.900391"/>
      <use xlink:href="#DejaVuSans-6e" x="359.082031"/>
      <use xlink:href="#DejaVuSans-73" x="422.460938"/>
     </g>
    </g>
   </g>
   <g id="matplotlib.axis_2">
    <g id="ytick_1">
     <g id="line2d_7">
      <defs>
       <path id="m6441d53853" d="M 0 0 
L -3.5 0 
" style="stroke: #000000; stroke-width: 0.8"/>
      </defs>
      <g>
       <use xlink:href="#m6441d53853" x="92.490625" y="302.634137" style="stroke: #000000; stroke-width: 0.8"/>
      </g>
     </g>
     <g id="text_8">
      <!-- −400 -->
      <g transform="translate(30.55625 310.232575) scale(0.2 -0.2)">
       <defs>
        <path id="DejaVuSans-2212" d="M 678 2272 
L 4684 2272 
L 4684 1741 
L 678 1741 
L 678 2272 
z
" transform="scale(0.015625)"/>
        <path id="DejaVuSans-34" d="M 2419 4116 
L 825 1625 
L 2419 1625 
L 2419 4116 
z
M 2253 4666 
L 3047 4666 
L 3047 1625 
L 3713 1625 
L 3713 1100 
L 3047 1100 
L 3047 0 
L 2419 0 
L 2419 1100 
L 313 1100 
L 313 1709 
L 2253 4666 
z
" transform="scale(0.015625)"/>
       </defs>
       <use xlink:href="#DejaVuSans-2212"/>
       <use xlink:href="#DejaVuSans-34" x="83.789062"/>
       <use xlink:href="#DejaVuSans-30" x="147.412109"/>
       <use xlink:href="#DejaVuSans-30" x="211.035156"/>
      </g>
     </g>
    </g>
    <g id="ytick_2">
     <g id="line2d_8">
      <g>
       <use xlink:href="#m6441d53853" x="92.490625" y="217.204173" style="stroke: #000000; stroke-width: 0.8"/>
      </g>
     </g>
     <g id="text_9">
      <!-- −200 -->
      <g transform="translate(30.55625 224.802611) scale(0.2 -0.2)">
       <use xlink:href="#DejaVuSans-2212"/>
       <use xlink:href="#DejaVuSans-32" x="83.789062"/>
       <use xlink:href="#DejaVuSans-30" x="147.412109"/>
       <use xlink:href="#DejaVuSans-30" x="211.035156"/>
      </g>
     </g>
    </g>
    <g id="ytick_3">
     <g id="line2d_9">
      <g>
       <use xlink:href="#m6441d53853" x="92.490625" y="131.77421" style="stroke: #000000; stroke-width: 0.8"/>
      </g>
     </g>
     <g id="text_10">
      <!-- 0 -->
      <g transform="translate(72.765625 139.372647) scale(0.2 -0.2)">
       <use xlink:href="#DejaVuSans-30"/>
      </g>
     </g>
    </g>
    <g id="ytick_4">
     <g id="line2d_10">
      <g>
       <use xlink:href="#m6441d53853" x="92.490625" y="46.344246" style="stroke: #000000; stroke-width: 0.8"/>
      </g>
     </g>
     <g id="text_11">
      <!-- 200 -->
      <g transform="translate(47.315625 53.942683) scale(0.2 -0.2)">
       <use xlink:href="#DejaVuSans-32"/>
       <use xlink:href="#DejaVuSans-30" x="63.623047"/>
       <use xlink:href="#DejaVuSans-30" x="127.246094"/>
      </g>
     </g>
    </g>
    <g id="text_12">
     <!-- Loss -->
     <g transform="translate(22.396875 191.970625) rotate(-90) scale(0.2 -0.2)">
      <defs>
       <path id="DejaVuSans-4c" d="M 628 4666 
L 1259 4666 
L 1259 531 
L 3531 531 
L 3531 0 
L 628 0 
L 628 4666 
z
" transform="scale(0.015625)"/>
      </defs>
      <use xlink:href="#DejaVuSans-4c"/>
      <use xlink:href="#DejaVuSans-6f" x="53.962891"/>
      <use xlink:href="#DejaVuSans-73" x="115.144531"/>
      <use xlink:href="#DejaVuSans-73" x="167.244141"/>
     </g>
    </g>
   </g>
   <g id="line2d_11">
    <path d="M 117.854261 106.2005 
L 119.883352 95.293269 
L 121.912443 103.012934 
L 123.941534 83.802116 
L 125.970625 71.07048 
L 127.999716 44.03625 
L 130.028807 48.202048 
L 132.057898 79.082405 
L 134.086989 79.801139 
L 136.11608 95.039151 
L 138.14517 99.383912 
L 140.174261 110.005204 
L 142.203352 115.933238 
L 144.232443 123.921766 
L 146.261534 136.222671 
L 148.290625 131.011891 
L 150.319716 139.741022 
L 152.348807 146.066312 
L 154.377898 129.711857 
L 156.406989 135.776002 
L 158.43608 128.840387 
L 160.46517 145.744362 
L 162.494261 150.965648 
L 164.523352 141.047725 
L 166.552443 144.709483 
L 168.581534 146.730342 
L 170.610625 143.90278 
L 172.639716 148.88913 
L 174.668807 149.976643 
L 176.697898 151.914943 
L 178.726989 150.461138 
L 180.75608 156.209315 
L 182.78517 153.818163 
L 184.814261 152.769792 
L 186.843352 154.957248 
L 188.872443 151.727097 
L 190.901534 148.919835 
L 192.930625 152.450257 
L 194.959716 149.30327 
L 196.988807 147.780732 
L 199.017898 148.375357 
L 201.046989 146.50394 
L 203.07608 148.745232 
L 205.10517 148.044137 
L 207.134261 150.657455 
L 209.163352 150.931957 
L 211.192443 148.202109 
L 213.221534 149.697081 
L 215.250625 148.719548 
L 217.279716 151.590814 
L 219.308807 149.238312 
L 221.337898 148.782451 
L 223.366989 146.91656 
L 225.39608 152.215016 
L 227.42517 147.648837 
L 229.454261 149.753192 
L 231.483352 147.694581 
L 233.512443 144.79521 
L 235.541534 145.921815 
L 237.570625 147.614704 
L 239.599716 147.130159 
L 241.628807 147.865317 
L 243.657898 146.770889 
L 245.686989 147.150497 
L 247.71608 146.202236 
L 249.74517 146.632383 
L 251.774261 147.881774 
L 253.803352 147.072561 
L 255.832443 147.95157 
L 257.861534 147.692356 
L 259.890625 147.157453 
L 261.919716 148.781308 
L 263.948807 148.414371 
L 265.977898 146.590766 
L 268.006989 144.450993 
L 272.06517 143.911113 
L 274.094261 143.957386 
L 276.123352 142.36949 
L 278.152443 145.188605 
L 280.181534 146.418944 
L 282.210625 145.376387 
L 284.239716 143.943596 
L 286.268807 142.843895 
L 288.297898 142.253463 
L 290.326989 142.717522 
L 292.35608 142.44384 
L 294.38517 142.872071 
L 296.414261 142.730961 
L 298.443352 143.888077 
L 300.472443 144.001604 
L 302.501534 142.574551 
L 304.530625 142.306426 
L 306.559716 142.937759 
L 308.588807 142.457902 
L 310.617898 143.531894 
L 312.646989 141.851198 
L 314.67608 144.015207 
L 318.734261 145.176547 
L 320.763352 147.614982 
L 322.792443 147.263937 
L 324.821534 144.073517 
L 326.850625 143.507762 
L 328.879716 144.077467 
L 330.908807 142.151502 
L 332.937898 141.557044 
L 334.966989 144.416611 
L 336.99608 145.316282 
L 339.02517 142.868472 
L 341.054261 144.028237 
L 343.083352 142.228375 
L 345.112443 142.014184 
L 347.141534 141.589126 
L 349.170625 141.571197 
L 351.199716 141.310832 
L 353.228807 140.917898 
L 355.257898 140.346577 
L 357.286989 140.861824 
L 359.31608 140.111764 
L 361.34517 138.192451 
L 363.374261 138.269277 
L 365.403352 138.718045 
L 367.432443 140.156663 
L 369.461534 138.766498 
L 371.490625 138.279705 
L 373.519716 139.323794 
L 375.548807 139.525302 
L 377.577898 139.180249 
L 379.606989 140.239676 
L 381.63608 141.858362 
L 383.66517 138.938448 
L 385.694261 139.449096 
L 387.723352 140.336515 
L 389.752443 142.371394 
L 391.781534 139.956244 
L 393.810625 140.734341 
L 395.839716 139.937076 
L 397.868807 139.804026 
L 399.897898 138.205218 
L 401.926989 139.587032 
L 403.95608 140.46733 
L 405.98517 141.119228 
L 408.014261 139.052084 
L 410.043352 139.736506 
L 412.072443 141.329343 
L 414.101534 140.279518 
L 416.130625 140.313563 
L 418.159716 139.700591 
L 420.188807 139.85989 
L 422.217898 139.097869 
L 426.27608 141.702979 
L 428.30517 140.54567 
L 430.334261 140.869427 
L 432.363352 142.201998 
L 434.392443 140.897605 
L 436.421534 141.391703 
L 440.479716 138.737702 
L 444.537898 142.102561 
L 446.566989 141.988356 
L 448.59608 142.147197 
L 450.62517 143.574172 
L 452.654261 140.636832 
L 454.683352 142.174733 
L 456.712443 143.175611 
L 458.741534 142.2773 
L 460.770625 141.613602 
L 462.799716 140.19156 
L 464.828807 142.75052 
L 466.857898 142.302067 
L 468.886989 143.746324 
L 470.91608 144.672228 
L 472.94517 143.788992 
L 474.974261 143.74112 
L 477.003352 142.406016 
L 479.032443 142.586782 
L 481.061534 144.512704 
L 483.090625 144.272991 
L 485.119716 143.769912 
L 487.148807 142.060514 
L 489.177898 141.58127 
L 491.206989 142.216679 
L 493.23608 140.461817 
L 495.26517 140.28079 
L 497.294261 144.05529 
L 499.323352 141.60604 
L 501.352443 142.299131 
L 503.381534 142.238929 
L 507.439716 141.520141 
L 509.468807 141.800176 
L 511.497898 141.370555 
L 513.526989 142.011928 
L 515.55608 141.833753 
L 517.58517 141.437759 
L 519.614261 141.943321 
L 521.643352 140.528882 
L 523.672443 140.208809 
L 525.701534 140.703162 
L 527.730625 141.554831 
L 529.759716 141.715784 
L 531.788807 140.065541 
L 533.817898 141.359576 
L 535.846989 142.10316 
L 537.87608 141.443143 
L 539.90517 141.179998 
L 541.934261 141.369596 
L 543.963352 141.233448 
L 545.992443 141.781948 
L 548.021534 141.728105 
L 550.050625 140.068284 
L 552.079716 139.740699 
L 554.108807 139.729665 
L 556.137898 140.554805 
L 558.166989 139.720235 
L 560.19608 142.083062 
L 562.22517 142.270694 
L 564.254261 141.359614 
L 566.283352 141.262846 
L 568.312443 140.203036 
L 570.341534 139.631234 
L 572.370625 140.828401 
L 574.399716 140.658546 
L 576.428807 139.660707 
L 578.457898 141.033843 
L 580.486989 140.479054 
L 582.51608 138.908645 
L 584.54517 141.293396 
L 586.574261 143.175718 
L 588.603352 140.912469 
L 590.632443 142.693637 
L 592.661534 141.13301 
L 594.690625 141.298107 
L 596.719716 141.917444 
L 598.748807 141.060915 
L 602.806989 139.672439 
L 604.83608 140.568505 
L 606.86517 141.72895 
L 608.894261 141.955635 
L 610.923352 139.66056 
L 612.952443 141.115863 
L 617.010625 141.90842 
L 621.068807 141.271928 
L 623.097898 141.304225 
L 625.126989 140.883772 
L 625.126989 140.883772 
" clip-path="url(#p881d4fb2fb)" style="fill: none; stroke: #1f77b4; stroke-width: 1.5; stroke-linecap: square"/>
   </g>
   <g id="line2d_12">
    <path d="M 117.854261 296.03625 
L 119.883352 241.113866 
L 121.912443 203.288765 
L 123.941534 205.049939 
L 125.970625 206.143459 
L 127.999716 203.498942 
L 130.028807 186.685966 
L 132.057898 205.438172 
L 134.086989 185.019453 
L 136.11608 179.820324 
L 138.14517 180.821211 
L 140.174261 180.813717 
L 142.203352 182.146734 
L 144.232443 178.799757 
L 146.261534 180.178391 
L 148.290625 168.962548 
L 150.319716 174.973676 
L 152.348807 174.142921 
L 154.377898 175.917601 
L 156.406989 177.47744 
L 158.43608 178.02884 
L 160.46517 164.487503 
L 162.494261 166.986542 
L 164.523352 163.693045 
L 166.552443 167.581344 
L 168.581534 164.551672 
L 170.610625 164.242989 
L 172.639716 164.583071 
L 174.668807 158.927573 
L 176.697898 159.597491 
L 178.726989 163.332655 
L 180.75608 159.064405 
L 182.78517 157.226609 
L 184.814261 158.525201 
L 186.843352 160.114653 
L 188.872443 157.536135 
L 190.901534 156.008313 
L 192.930625 156.101845 
L 194.959716 158.11385 
L 196.988807 159.255239 
L 199.017898 158.371931 
L 201.046989 158.633965 
L 203.07608 156.947882 
L 205.10517 154.988208 
L 207.134261 158.988351 
L 209.163352 159.203964 
L 211.192443 158.449679 
L 213.221534 154.020669 
L 215.250625 153.725238 
L 217.279716 157.613843 
L 219.308807 159.434499 
L 221.337898 157.180335 
L 223.366989 155.850694 
L 225.39608 158.029298 
L 227.42517 157.177485 
L 229.454261 155.614422 
L 231.483352 155.980615 
L 233.512443 154.753656 
L 235.541534 155.408499 
L 237.570625 158.615546 
L 239.599716 156.940358 
L 241.628807 155.516206 
L 243.657898 155.288589 
L 245.686989 155.670831 
L 249.74517 158.295871 
L 251.774261 159.280733 
L 253.803352 158.871815 
L 255.832443 157.26312 
L 257.861534 156.861179 
L 259.890625 156.724625 
L 261.919716 156.787615 
L 263.948807 158.944455 
L 265.977898 156.049845 
L 268.006989 155.294044 
L 270.03608 156.561929 
L 272.06517 157.36283 
L 274.094261 157.655218 
L 276.123352 156.046993 
L 278.152443 158.774749 
L 280.181534 157.637184 
L 282.210625 156.304672 
L 284.239716 154.245005 
L 286.268807 154.473916 
L 288.297898 153.822593 
L 290.326989 154.94767 
L 292.35608 155.803786 
L 294.38517 155.531842 
L 296.414261 154.587492 
L 298.443352 156.61496 
L 300.472443 155.424676 
L 302.501534 154.423699 
L 304.530625 150.82526 
L 308.588807 152.202226 
L 310.617898 152.88935 
L 312.646989 153.076736 
L 314.67608 155.349784 
L 316.70517 153.019148 
L 318.734261 155.002136 
L 320.763352 153.832037 
L 322.792443 155.94442 
L 324.821534 149.305635 
L 326.850625 150.20283 
L 328.879716 147.868647 
L 330.908807 147.383957 
L 332.937898 148.273323 
L 334.966989 151.36421 
L 336.99608 150.447154 
L 339.02517 149.313987 
L 341.054261 150.086891 
L 343.083352 150.064108 
L 345.112443 151.354422 
L 347.141534 149.22371 
L 349.170625 151.954691 
L 353.228807 150.047436 
L 355.257898 149.991833 
L 357.286989 150.313042 
L 359.31608 152.187133 
L 361.34517 148.43794 
L 363.374261 150.235716 
L 365.403352 150.33164 
L 367.432443 151.363168 
L 369.461534 149.663027 
L 373.519716 149.461831 
L 375.548807 149.117886 
L 377.577898 149.697328 
L 379.606989 149.674019 
L 381.63608 150.915693 
L 383.66517 150.0342 
L 385.694261 150.45281 
L 387.723352 150.12333 
L 389.752443 150.654267 
L 391.781534 151.798453 
L 393.810625 153.433211 
L 395.839716 151.196747 
L 397.868807 149.809581 
L 399.897898 149.944401 
L 401.926989 149.639818 
L 403.95608 150.804349 
L 405.98517 151.107627 
L 408.014261 150.99181 
L 410.043352 151.6235 
L 412.072443 151.800852 
L 414.101534 151.13914 
L 416.130625 151.051892 
L 418.159716 153.006503 
L 420.188807 152.149768 
L 422.217898 151.548159 
L 424.246989 152.374985 
L 426.27608 152.167704 
L 428.30517 151.425898 
L 430.334261 153.236006 
L 432.363352 153.007327 
L 434.392443 151.352523 
L 436.421534 150.212294 
L 438.450625 149.877967 
L 440.479716 149.76712 
L 442.508807 152.334364 
L 444.537898 152.984876 
L 446.566989 154.989053 
L 448.59608 152.777388 
L 450.62517 155.510737 
L 452.654261 153.131881 
L 454.683352 154.505523 
L 456.712443 153.474304 
L 458.741534 153.384478 
L 460.770625 154.081152 
L 462.799716 150.17425 
L 464.828807 151.303553 
L 466.857898 151.289085 
L 468.886989 152.397849 
L 470.91608 152.456653 
L 472.94517 150.403996 
L 477.003352 151.256954 
L 479.032443 152.309498 
L 481.061534 155.515012 
L 483.090625 153.799522 
L 485.119716 154.22262 
L 487.148807 151.425359 
L 489.177898 151.190714 
L 491.206989 150.809033 
L 493.23608 150.179916 
L 495.26517 150.736983 
L 497.294261 152.238025 
L 499.323352 150.723638 
L 501.352443 149.389988 
L 503.381534 152.36677 
L 505.410625 151.178073 
L 507.439716 151.577578 
L 509.468807 153.414952 
L 511.497898 150.167981 
L 513.526989 150.014169 
L 515.55608 150.413847 
L 517.58517 148.432849 
L 519.614261 150.09173 
L 521.643352 150.013241 
L 525.701534 152.862798 
L 527.730625 148.176301 
L 529.759716 151.27553 
L 531.788807 150.204153 
L 533.817898 150.429404 
L 535.846989 153.806232 
L 537.87608 152.564889 
L 539.90517 151.764491 
L 541.934261 151.634621 
L 543.963352 151.798586 
L 548.021534 151.136103 
L 550.050625 149.717316 
L 552.079716 146.124544 
L 554.108807 146.390486 
L 556.137898 147.845925 
L 558.166989 147.747277 
L 560.19608 149.558781 
L 562.22517 151.12045 
L 564.254261 150.824896 
L 566.283352 151.402646 
L 568.312443 148.853405 
L 570.341534 150.661894 
L 572.370625 151.552457 
L 574.399716 150.230134 
L 576.428807 149.747131 
L 578.457898 151.02265 
L 580.486989 151.54486 
L 582.51608 149.989709 
L 584.54517 153.052728 
L 586.574261 152.927737 
L 588.603352 150.854604 
L 590.632443 149.803555 
L 592.661534 151.003609 
L 594.690625 152.796036 
L 596.719716 153.127643 
L 598.748807 152.847695 
L 600.777898 149.57657 
L 602.806989 151.199333 
L 604.83608 151.612981 
L 606.86517 150.939007 
L 608.894261 150.668608 
L 610.923352 148.261371 
L 612.952443 150.64913 
L 614.981534 149.748479 
L 617.010625 148.539394 
L 619.039716 149.983433 
L 621.068807 150.051366 
L 623.097898 149.886969 
L 625.126989 148.826135 
L 625.126989 148.826135 
" clip-path="url(#p881d4fb2fb)" style="fill: none; stroke: #ff7f0e; stroke-width: 1.5; stroke-linecap: square"/>
   </g>
   <g id="patch_3">
    <path d="M 92.490625 308.63625 
L 92.490625 31.43625 
" style="fill: none; stroke: #000000; stroke-width: 0.8; stroke-linejoin: miter; stroke-linecap: square"/>
   </g>
   <g id="patch_4">
    <path d="M 650.490625 308.63625 
L 650.490625 31.43625 
" style="fill: none; stroke: #000000; stroke-width: 0.8; stroke-linejoin: miter; stroke-linecap: square"/>
   </g>
   <g id="patch_5">
    <path d="M 92.490625 308.63625 
L 650.490625 308.63625 
" style="fill: none; stroke: #000000; stroke-width: 0.8; stroke-linejoin: miter; stroke-linecap: square"/>
   </g>
   <g id="patch_6">
    <path d="M 92.490625 31.43625 
L 650.490625 31.43625 
" style="fill: none; stroke: #000000; stroke-width: 0.8; stroke-linejoin: miter; stroke-linecap: square"/>
   </g>
   <g id="text_13">
    <!-- Generator and Discriminator Loss During Training -->
    <g transform="translate(74.258125 25.43625) scale(0.24 -0.24)">
     <defs>
      <path id="DejaVuSans-47" d="M 3809 666 
L 3809 1919 
L 2778 1919 
L 2778 2438 
L 4434 2438 
L 4434 434 
Q 4069 175 3628 42 
Q 3188 -91 2688 -91 
Q 1594 -91 976 548 
Q 359 1188 359 2328 
Q 359 3472 976 4111 
Q 1594 4750 2688 4750 
Q 3144 4750 3555 4637 
Q 3966 4525 4313 4306 
L 4313 3634 
Q 3963 3931 3569 4081 
Q 3175 4231 2741 4231 
Q 1884 4231 1454 3753 
Q 1025 3275 1025 2328 
Q 1025 1384 1454 906 
Q 1884 428 2741 428 
Q 3075 428 3337 486 
Q 3600 544 3809 666 
z
" transform="scale(0.015625)"/>
      <path id="DejaVuSans-20" transform="scale(0.015625)"/>
      <path id="DejaVuSans-64" d="M 2906 2969 
L 2906 4863 
L 3481 4863 
L 3481 0 
L 2906 0 
L 2906 525 
Q 2725 213 2448 61 
Q 2172 -91 1784 -91 
Q 1150 -91 751 415 
Q 353 922 353 1747 
Q 353 2572 751 3078 
Q 1150 3584 1784 3584 
Q 2172 3584 2448 3432 
Q 2725 3281 2906 2969 
z
M 947 1747 
Q 947 1113 1208 752 
Q 1469 391 1925 391 
Q 2381 391 2643 752 
Q 2906 1113 2906 1747 
Q 2906 2381 2643 2742 
Q 2381 3103 1925 3103 
Q 1469 3103 1208 2742 
Q 947 2381 947 1747 
z
" transform="scale(0.015625)"/>
      <path id="DejaVuSans-44" d="M 1259 4147 
L 1259 519 
L 2022 519 
Q 2988 519 3436 956 
Q 3884 1394 3884 2338 
Q 3884 3275 3436 3711 
Q 2988 4147 2022 4147 
L 1259 4147 
z
M 628 4666 
L 1925 4666 
Q 3281 4666 3915 4102 
Q 4550 3538 4550 2338 
Q 4550 1131 3912 565 
Q 3275 0 1925 0 
L 628 0 
L 628 4666 
z
" transform="scale(0.015625)"/>
      <path id="DejaVuSans-63" d="M 3122 3366 
L 3122 2828 
Q 2878 2963 2633 3030 
Q 2388 3097 2138 3097 
Q 1578 3097 1268 2742 
Q 959 2388 959 1747 
Q 959 1106 1268 751 
Q 1578 397 2138 397 
Q 2388 397 2633 464 
Q 2878 531 3122 666 
L 3122 134 
Q 2881 22 2623 -34 
Q 2366 -91 2075 -91 
Q 1284 -91 818 406 
Q 353 903 353 1747 
Q 353 2603 823 3093 
Q 1294 3584 2113 3584 
Q 2378 3584 2631 3529 
Q 2884 3475 3122 3366 
z
" transform="scale(0.015625)"/>
      <path id="DejaVuSans-6d" d="M 3328 2828 
Q 3544 3216 3844 3400 
Q 4144 3584 4550 3584 
Q 5097 3584 5394 3201 
Q 5691 2819 5691 2113 
L 5691 0 
L 5113 0 
L 5113 2094 
Q 5113 2597 4934 2840 
Q 4756 3084 4391 3084 
Q 3944 3084 3684 2787 
Q 3425 2491 3425 1978 
L 3425 0 
L 2847 0 
L 2847 2094 
Q 2847 2600 2669 2842 
Q 2491 3084 2119 3084 
Q 1678 3084 1418 2786 
Q 1159 2488 1159 1978 
L 1159 0 
L 581 0 
L 581 3500 
L 1159 3500 
L 1159 2956 
Q 1356 3278 1631 3431 
Q 1906 3584 2284 3584 
Q 2666 3584 2933 3390 
Q 3200 3197 3328 2828 
z
" transform="scale(0.015625)"/>
      <path id="DejaVuSans-75" d="M 544 1381 
L 544 3500 
L 1119 3500 
L 1119 1403 
Q 1119 906 1312 657 
Q 1506 409 1894 409 
Q 2359 409 2629 706 
Q 2900 1003 2900 1516 
L 2900 3500 
L 3475 3500 
L 3475 0 
L 2900 0 
L 2900 538 
Q 2691 219 2414 64 
Q 2138 -91 1772 -91 
Q 1169 -91 856 284 
Q 544 659 544 1381 
z
M 1991 3584 
L 1991 3584 
z
" transform="scale(0.015625)"/>
      <path id="DejaVuSans-67" d="M 2906 1791 
Q 2906 2416 2648 2759 
Q 2391 3103 1925 3103 
Q 1463 3103 1205 2759 
Q 947 2416 947 1791 
Q 947 1169 1205 825 
Q 1463 481 1925 481 
Q 2391 481 2648 825 
Q 2906 1169 2906 1791 
z
M 3481 434 
Q 3481 -459 3084 -895 
Q 2688 -1331 1869 -1331 
Q 1566 -1331 1297 -1286 
Q 1028 -1241 775 -1147 
L 775 -588 
Q 1028 -725 1275 -790 
Q 1522 -856 1778 -856 
Q 2344 -856 2625 -561 
Q 2906 -266 2906 331 
L 2906 616 
Q 2728 306 2450 153 
Q 2172 0 1784 0 
Q 1141 0 747 490 
Q 353 981 353 1791 
Q 353 2603 747 3093 
Q 1141 3584 1784 3584 
Q 2172 3584 2450 3431 
Q 2728 3278 2906 2969 
L 2906 3500 
L 3481 3500 
L 3481 434 
z
" transform="scale(0.015625)"/>
      <path id="DejaVuSans-54" d="M -19 4666 
L 3928 4666 
L 3928 4134 
L 2272 4134 
L 2272 0 
L 1638 0 
L 1638 4134 
L -19 4134 
L -19 4666 
z
" transform="scale(0.015625)"/>
     </defs>
     <use xlink:href="#DejaVuSans-47"/>
     <use xlink:href="#DejaVuSans-65" x="77.490234"/>
     <use xlink:href="#DejaVuSans-6e" x="139.013672"/>
     <use xlink:href="#DejaVuSans-65" x="202.392578"/>
     <use xlink:href="#DejaVuSans-72" x="263.916016"/>
     <use xlink:href="#DejaVuSans-61" x="305.029297"/>
     <use xlink:href="#DejaVuSans-74" x="366.308594"/>
     <use xlink:href="#DejaVuSans-6f" x="405.517578"/>
     <use xlink:href="#DejaVuSans-72" x="466.699219"/>
     <use xlink:href="#DejaVuSans-20" x="507.8125"/>
     <use xlink:href="#DejaVuSans-61" x="539.599609"/>
     <use xlink:href="#DejaVuSans-6e" x="600.878906"/>
     <use xlink:href="#DejaVuSans-64" x="664.257812"/>
     <use xlink:href="#DejaVuSans-20" x="727.734375"/>
     <use xlink:href="#DejaVuSans-44" x="759.521484"/>
     <use xlink:href="#DejaVuSans-69" x="836.523438"/>
     <use xlink:href="#DejaVuSans-73" x="864.306641"/>
     <use xlink:href="#DejaVuSans-63" x="916.40625"/>
     <use xlink:href="#DejaVuSans-72" x="971.386719"/>
     <use xlink:href="#DejaVuSans-69" x="1012.5"/>
     <use xlink:href="#DejaVuSans-6d" x="1040.283203"/>
     <use xlink:href="#DejaVuSans-69" x="1137.695312"/>
     <use xlink:href="#DejaVuSans-6e" x="1165.478516"/>
     <use xlink:href="#DejaVuSans-61" x="1228.857422"/>
     <use xlink:href="#DejaVuSans-74" x="1290.136719"/>
     <use xlink:href="#DejaVuSans-6f" x="1329.345703"/>
     <use xlink:href="#DejaVuSans-72" x="1390.527344"/>
     <use xlink:href="#DejaVuSans-20" x="1431.640625"/>
     <use xlink:href="#DejaVuSans-4c" x="1463.427734"/>
     <use xlink:href="#DejaVuSans-6f" x="1517.390625"/>
     <use xlink:href="#DejaVuSans-73" x="1578.572266"/>
     <use xlink:href="#DejaVuSans-73" x="1630.671875"/>
     <use xlink:href="#DejaVuSans-20" x="1682.771484"/>
     <use xlink:href="#DejaVuSans-44" x="1714.558594"/>
     <use xlink:href="#DejaVuSans-75" x="1791.560547"/>
     <use xlink:href="#DejaVuSans-72" x="1854.939453"/>
     <use xlink:href="#DejaVuSans-69" x="1896.052734"/>
     <use xlink:href="#DejaVuSans-6e" x="1923.835938"/>
     <use xlink:href="#DejaVuSans-67" x="1987.214844"/>
     <use xlink:href="#DejaVuSans-20" x="2050.691406"/>
     <use xlink:href="#DejaVuSans-54" x="2082.478516"/>
     <use xlink:href="#DejaVuSans-72" x="2128.8125"/>
     <use xlink:href="#DejaVuSans-61" x="2169.925781"/>
     <use xlink:href="#DejaVuSans-69" x="2231.205078"/>
     <use xlink:href="#DejaVuSans-6e" x="2258.988281"/>
     <use xlink:href="#DejaVuSans-69" x="2322.367188"/>
     <use xlink:href="#DejaVuSans-6e" x="2350.150391"/>
     <use xlink:href="#DejaVuSans-67" x="2413.529297"/>
    </g>
   </g>
   <g id="legend_1">
    <g id="patch_7">
     <path d="M 556.99375 106.14875 
L 636.490625 106.14875 
Q 640.490625 106.14875 640.490625 102.14875 
L 640.490625 45.43625 
Q 640.490625 41.43625 636.490625 41.43625 
L 556.99375 41.43625 
Q 552.99375 41.43625 552.99375 45.43625 
L 552.99375 102.14875 
Q 552.99375 106.14875 556.99375 106.14875 
z
" style="fill: #ffffff; opacity: 0.8; stroke: #cccccc; stroke-linejoin: miter"/>
    </g>
    <g id="line2d_13">
     <path d="M 560.99375 57.633125 
L 580.99375 57.633125 
L 600.99375 57.633125 
" style="fill: none; stroke: #1f77b4; stroke-width: 1.5; stroke-linecap: square"/>
    </g>
    <g id="text_14">
     <!-- G -->
     <g transform="translate(616.99375 64.633125) scale(0.2 -0.2)">
      <use xlink:href="#DejaVuSans-47"/>
     </g>
    </g>
    <g id="line2d_14">
     <path d="M 560.99375 86.989375 
L 580.99375 86.989375 
L 600.99375 86.989375 
" style="fill: none; stroke: #ff7f0e; stroke-width: 1.5; stroke-linecap: square"/>
    </g>
    <g id="text_15">
     <!-- D -->
     <g transform="translate(616.99375 93.989375) scale(0.2 -0.2)">
      <use xlink:href="#DejaVuSans-44"/>
     </g>
    </g>
   </g>
  </g>
 </g>
 <defs>
  <clipPath id="p881d4fb2fb">
   <rect x="92.490625" y="31.43625" width="558" height="277.2"/>
  </clipPath>
 </defs>
</svg>
