<?xml version="1.0" encoding="utf-8" standalone="no"?>
<!DOCTYPE svg PUBLIC "-//W3C//DTD SVG 1.1//EN"
  "http://www.w3.org/Graphics/SVG/1.1/DTD/svg11.dtd">
<svg xmlns:xlink="http://www.w3.org/1999/xlink" width="675.923125pt" height="365.54875pt" viewBox="0 0 675.923125 365.54875" xmlns="http://www.w3.org/2000/svg" version="1.1">
 <metadata>
  <rdf:RDF xmlns:dc="http://purl.org/dc/elements/1.1/" xmlns:cc="http://creativecommons.org/ns#" xmlns:rdf="http://www.w3.org/1999/02/22-rdf-syntax-ns#">
   <cc:Work>
    <dc:type rdf:resource="http://purl.org/dc/dcmitype/StillImage"/>
    <dc:date>2024-02-02T01:00:19.833936</dc:date>
    <dc:format>image/svg+xml</dc:format>
    <dc:creator>
     <cc:Agent>
      <dc:title>Matplotlib v3.7.2, https://matplotlib.org/</dc:title>
     </cc:Agent>
    </dc:creator>
   </cc:Work>
  </rdf:RDF>
 </metadata>
 <defs>
  <style type="text/css">*{stroke-linejoin: round; stroke-linecap: butt}</style>
 </defs>
 <g id="figure_1">
  <g id="patch_1">
   <path d="M 0 365.54875 
L 675.923125 365.54875 
L 675.923125 -0 
L 0 -0 
z
" style="fill: #ffffff"/>
  </g>
  <g id="axes_1">
   <g id="patch_2">
    <path d="M 92.490625 308.63625 
L 650.490625 308.63625 
L 650.490625 31.43625 
L 92.490625 31.43625 
z
" style="fill: #ffffff"/>
   </g>
   <g id="matplotlib.axis_1">
    <g id="xtick_1">
     <g id="line2d_1">
      <defs>
       <path id="m55bd90bedf" d="M 0 0 
L 0 3.5 
" style="stroke: #000000; stroke-width: 0.8"/>
      </defs>
      <g>
       <use xlink:href="#m55bd90bedf" x="117.854261" y="308.63625" style="stroke: #000000; stroke-width: 0.8"/>
      </g>
     </g>
     <g id="text_1">
      <!-- 0 -->
      <g transform="translate(111.491761 330.833125) scale(0.2 -0.2)">
       <defs>
        <path id="DejaVuSans-30" d="M 2034 4250 
Q 1547 4250 1301 3770 
Q 1056 3291 1056 2328 
Q 1056 1369 1301 889 
Q 1547 409 2034 409 
Q 2525 409 2770 889 
Q 3016 1369 3016 2328 
Q 3016 3291 2770 3770 
Q 2525 4250 2034 4250 
z
M 2034 4750 
Q 2819 4750 3233 4129 
Q 3647 3509 3647 2328 
Q 3647 1150 3233 529 
Q 2819 -91 2034 -91 
Q 1250 -91 836 529 
Q 422 1150 422 2328 
Q 422 3509 836 4129 
Q 1250 4750 2034 4750 
z
" transform="scale(0.015625)"/>
       </defs>
       <use xlink:href="#DejaVuSans-30"/>
      </g>
     </g>
    </g>
    <g id="xtick_2">
     <g id="line2d_2">
      <g>
       <use xlink:href="#m55bd90bedf" x="202.399716" y="308.63625" style="stroke: #000000; stroke-width: 0.8"/>
      </g>
     </g>
     <g id="text_2">
      <!-- 200 -->
      <g transform="translate(183.312216 330.833125) scale(0.2 -0.2)">
       <defs>
        <path id="DejaVuSans-32" d="M 1228 531 
L 3431 531 
L 3431 0 
L 469 0 
L 469 531 
Q 828 903 1448 1529 
Q 2069 2156 2228 2338 
Q 2531 2678 2651 2914 
Q 2772 3150 2772 3378 
Q 2772 3750 2511 3984 
Q 2250 4219 1831 4219 
Q 1534 4219 1204 4116 
Q 875 4013 500 3803 
L 500 4441 
Q 881 4594 1212 4672 
Q 1544 4750 1819 4750 
Q 2544 4750 2975 4387 
Q 3406 4025 3406 3419 
Q 3406 3131 3298 2873 
Q 3191 2616 2906 2266 
Q 2828 2175 2409 1742 
Q 1991 1309 1228 531 
z
" transform="scale(0.015625)"/>
       </defs>
       <use xlink:href="#DejaVuSans-32"/>
       <use xlink:href="#DejaVuSans-30" x="63.623047"/>
       <use xlink:href="#DejaVuSans-30" x="127.246094"/>
      </g>
     </g>
    </g>
    <g id="xtick_3">
     <g id="line2d_3">
      <g>
       <use xlink:href="#m55bd90bedf" x="286.94517" y="308.63625" style="stroke: #000000; stroke-width: 0.8"/>
      </g>
     </g>
     <g id="text_3">
      <!-- 400 -->
      <g transform="translate(267.85767 330.833125) scale(0.2 -0.2)">
       <defs>
        <path id="DejaVuSans-34" d="M 2419 4116 
L 825 1625 
L 2419 1625 
L 2419 4116 
z
M 2253 4666 
L 3047 4666 
L 3047 1625 
L 3713 1625 
L 3713 1100 
L 3047 1100 
L 3047 0 
L 2419 0 
L 2419 1100 
L 313 1100 
L 313 1709 
L 2253 4666 
z
" transform="scale(0.015625)"/>
       </defs>
       <use xlink:href="#DejaVuSans-34"/>
       <use xlink:href="#DejaVuSans-30" x="63.623047"/>
       <use xlink:href="#DejaVuSans-30" x="127.246094"/>
      </g>
     </g>
    </g>
    <g id="xtick_4">
     <g id="line2d_4">
      <g>
       <use xlink:href="#m55bd90bedf" x="371.490625" y="308.63625" style="stroke: #000000; stroke-width: 0.8"/>
      </g>
     </g>
     <g id="text_4">
      <!-- 600 -->
      <g transform="translate(352.403125 330.833125) scale(0.2 -0.2)">
       <defs>
        <path id="DejaVuSans-36" d="M 2113 2584 
Q 1688 2584 1439 2293 
Q 1191 2003 1191 1497 
Q 1191 994 1439 701 
Q 1688 409 2113 409 
Q 2538 409 2786 701 
Q 3034 994 3034 1497 
Q 3034 2003 2786 2293 
Q 2538 2584 2113 2584 
z
M 3366 4563 
L 3366 3988 
Q 3128 4100 2886 4159 
Q 2644 4219 2406 4219 
Q 1781 4219 1451 3797 
Q 1122 3375 1075 2522 
Q 1259 2794 1537 2939 
Q 1816 3084 2150 3084 
Q 2853 3084 3261 2657 
Q 3669 2231 3669 1497 
Q 3669 778 3244 343 
Q 2819 -91 2113 -91 
Q 1303 -91 875 529 
Q 447 1150 447 2328 
Q 447 3434 972 4092 
Q 1497 4750 2381 4750 
Q 2619 4750 2861 4703 
Q 3103 4656 3366 4563 
z
" transform="scale(0.015625)"/>
       </defs>
       <use xlink:href="#DejaVuSans-36"/>
       <use xlink:href="#DejaVuSans-30" x="63.623047"/>
       <use xlink:href="#DejaVuSans-30" x="127.246094"/>
      </g>
     </g>
    </g>
    <g id="xtick_5">
     <g id="line2d_5">
      <g>
       <use xlink:href="#m55bd90bedf" x="456.03608" y="308.63625" style="stroke: #000000; stroke-width: 0.8"/>
      </g>
     </g>
     <g id="text_5">
      <!-- 800 -->
      <g transform="translate(436.94858 330.833125) scale(0.2 -0.2)">
       <defs>
        <path id="DejaVuSans-38" d="M 2034 2216 
Q 1584 2216 1326 1975 
Q 1069 1734 1069 1313 
Q 1069 891 1326 650 
Q 1584 409 2034 409 
Q 2484 409 2743 651 
Q 3003 894 3003 1313 
Q 3003 1734 2745 1975 
Q 2488 2216 2034 2216 
z
M 1403 2484 
Q 997 2584 770 2862 
Q 544 3141 544 3541 
Q 544 4100 942 4425 
Q 1341 4750 2034 4750 
Q 2731 4750 3128 4425 
Q 3525 4100 3525 3541 
Q 3525 3141 3298 2862 
Q 3072 2584 2669 2484 
Q 3125 2378 3379 2068 
Q 3634 1759 3634 1313 
Q 3634 634 3220 271 
Q 2806 -91 2034 -91 
Q 1263 -91 848 271 
Q 434 634 434 1313 
Q 434 1759 690 2068 
Q 947 2378 1403 2484 
z
M 1172 3481 
Q 1172 3119 1398 2916 
Q 1625 2713 2034 2713 
Q 2441 2713 2670 2916 
Q 2900 3119 2900 3481 
Q 2900 3844 2670 4047 
Q 2441 4250 2034 4250 
Q 1625 4250 1398 4047 
Q 1172 3844 1172 3481 
z
" transform="scale(0.015625)"/>
       </defs>
       <use xlink:href="#DejaVuSans-38"/>
       <use xlink:href="#DejaVuSans-30" x="63.623047"/>
       <use xlink:href="#DejaVuSans-30" x="127.246094"/>
      </g>
     </g>
    </g>
    <g id="xtick_6">
     <g id="line2d_6">
      <g>
       <use xlink:href="#m55bd90bedf" x="540.581534" y="308.63625" style="stroke: #000000; stroke-width: 0.8"/>
      </g>
     </g>
     <g id="text_6">
      <!-- 1000 -->
      <g transform="translate(515.131534 330.833125) scale(0.2 -0.2)">
       <defs>
        <path id="DejaVuSans-31" d="M 794 531 
L 1825 531 
L 1825 4091 
L 703 3866 
L 703 4441 
L 1819 4666 
L 2450 4666 
L 2450 531 
L 3481 531 
L 3481 0 
L 794 0 
L 794 531 
z
" transform="scale(0.015625)"/>
       </defs>
       <use xlink:href="#DejaVuSans-31"/>
       <use xlink:href="#DejaVuSans-30" x="63.623047"/>
       <use xlink:href="#DejaVuSans-30" x="127.246094"/>
       <use xlink:href="#DejaVuSans-30" x="190.869141"/>
      </g>
     </g>
    </g>
    <g id="xtick_7">
     <g id="line2d_7">
      <g>
       <use xlink:href="#m55bd90bedf" x="625.126989" y="308.63625" style="stroke: #000000; stroke-width: 0.8"/>
      </g>
     </g>
     <g id="text_7">
      <!-- 1200 -->
      <g transform="translate(599.676989 330.833125) scale(0.2 -0.2)">
       <use xlink:href="#DejaVuSans-31"/>
       <use xlink:href="#DejaVuSans-32" x="63.623047"/>
       <use xlink:href="#DejaVuSans-30" x="127.246094"/>
       <use xlink:href="#DejaVuSans-30" x="190.869141"/>
      </g>
     </g>
    </g>
    <g id="text_8">
     <!-- iterations -->
     <g transform="translate(324.035938 354.189375) scale(0.2 -0.2)">
      <defs>
       <path id="DejaVuSans-69" d="M 603 3500 
L 1178 3500 
L 1178 0 
L 603 0 
L 603 3500 
z
M 603 4863 
L 1178 4863 
L 1178 4134 
L 603 4134 
L 603 4863 
z
" transform="scale(0.015625)"/>
       <path id="DejaVuSans-74" d="M 1172 4494 
L 1172 3500 
L 2356 3500 
L 2356 3053 
L 1172 3053 
L 1172 1153 
Q 1172 725 1289 603 
Q 1406 481 1766 481 
L 2356 481 
L 2356 0 
L 1766 0 
Q 1100 0 847 248 
Q 594 497 594 1153 
L 594 3053 
L 172 3053 
L 172 3500 
L 594 3500 
L 594 4494 
L 1172 4494 
z
" transform="scale(0.015625)"/>
       <path id="DejaVuSans-65" d="M 3597 1894 
L 3597 1613 
L 953 1613 
Q 991 1019 1311 708 
Q 1631 397 2203 397 
Q 2534 397 2845 478 
Q 3156 559 3463 722 
L 3463 178 
Q 3153 47 2828 -22 
Q 2503 -91 2169 -91 
Q 1331 -91 842 396 
Q 353 884 353 1716 
Q 353 2575 817 3079 
Q 1281 3584 2069 3584 
Q 2775 3584 3186 3129 
Q 3597 2675 3597 1894 
z
M 3022 2063 
Q 3016 2534 2758 2815 
Q 2500 3097 2075 3097 
Q 1594 3097 1305 2825 
Q 1016 2553 972 2059 
L 3022 2063 
z
" transform="scale(0.015625)"/>
       <path id="DejaVuSans-72" d="M 2631 2963 
Q 2534 3019 2420 3045 
Q 2306 3072 2169 3072 
Q 1681 3072 1420 2755 
Q 1159 2438 1159 1844 
L 1159 0 
L 581 0 
L 581 3500 
L 1159 3500 
L 1159 2956 
Q 1341 3275 1631 3429 
Q 1922 3584 2338 3584 
Q 2397 3584 2469 3576 
Q 2541 3569 2628 3553 
L 2631 2963 
z
" transform="scale(0.015625)"/>
       <path id="DejaVuSans-61" d="M 2194 1759 
Q 1497 1759 1228 1600 
Q 959 1441 959 1056 
Q 959 750 1161 570 
Q 1363 391 1709 391 
Q 2188 391 2477 730 
Q 2766 1069 2766 1631 
L 2766 1759 
L 2194 1759 
z
M 3341 1997 
L 3341 0 
L 2766 0 
L 2766 531 
Q 2569 213 2275 61 
Q 1981 -91 1556 -91 
Q 1019 -91 701 211 
Q 384 513 384 1019 
Q 384 1609 779 1909 
Q 1175 2209 1959 2209 
L 2766 2209 
L 2766 2266 
Q 2766 2663 2505 2880 
Q 2244 3097 1772 3097 
Q 1472 3097 1187 3025 
Q 903 2953 641 2809 
L 641 3341 
Q 956 3463 1253 3523 
Q 1550 3584 1831 3584 
Q 2591 3584 2966 3190 
Q 3341 2797 3341 1997 
z
" transform="scale(0.015625)"/>
       <path id="DejaVuSans-6f" d="M 1959 3097 
Q 1497 3097 1228 2736 
Q 959 2375 959 1747 
Q 959 1119 1226 758 
Q 1494 397 1959 397 
Q 2419 397 2687 759 
Q 2956 1122 2956 1747 
Q 2956 2369 2687 2733 
Q 2419 3097 1959 3097 
z
M 1959 3584 
Q 2709 3584 3137 3096 
Q 3566 2609 3566 1747 
Q 3566 888 3137 398 
Q 2709 -91 1959 -91 
Q 1206 -91 779 398 
Q 353 888 353 1747 
Q 353 2609 779 3096 
Q 1206 3584 1959 3584 
z
" transform="scale(0.015625)"/>
       <path id="DejaVuSans-6e" d="M 3513 2113 
L 3513 0 
L 2938 0 
L 2938 2094 
Q 2938 2591 2744 2837 
Q 2550 3084 2163 3084 
Q 1697 3084 1428 2787 
Q 1159 2491 1159 1978 
L 1159 0 
L 581 0 
L 581 3500 
L 1159 3500 
L 1159 2956 
Q 1366 3272 1645 3428 
Q 1925 3584 2291 3584 
Q 2894 3584 3203 3211 
Q 3513 2838 3513 2113 
z
" transform="scale(0.015625)"/>
       <path id="DejaVuSans-73" d="M 2834 3397 
L 2834 2853 
Q 2591 2978 2328 3040 
Q 2066 3103 1784 3103 
Q 1356 3103 1142 2972 
Q 928 2841 928 2578 
Q 928 2378 1081 2264 
Q 1234 2150 1697 2047 
L 1894 2003 
Q 2506 1872 2764 1633 
Q 3022 1394 3022 966 
Q 3022 478 2636 193 
Q 2250 -91 1575 -91 
Q 1294 -91 989 -36 
Q 684 19 347 128 
L 347 722 
Q 666 556 975 473 
Q 1284 391 1588 391 
Q 1994 391 2212 530 
Q 2431 669 2431 922 
Q 2431 1156 2273 1281 
Q 2116 1406 1581 1522 
L 1381 1569 
Q 847 1681 609 1914 
Q 372 2147 372 2553 
Q 372 3047 722 3315 
Q 1072 3584 1716 3584 
Q 2034 3584 2315 3537 
Q 2597 3491 2834 3397 
z
" transform="scale(0.015625)"/>
      </defs>
      <use xlink:href="#DejaVuSans-69"/>
      <use xlink:href="#DejaVuSans-74" x="27.783203"/>
      <use xlink:href="#DejaVuSans-65" x="66.992188"/>
      <use xlink:href="#DejaVuSans-72" x="128.515625"/>
      <use xlink:href="#DejaVuSans-61" x="169.628906"/>
      <use xlink:href="#DejaVuSans-74" x="230.908203"/>
      <use xlink:href="#DejaVuSans-69" x="270.117188"/>
      <use xlink:href="#DejaVuSans-6f" x="297.900391"/>
      <use xlink:href="#DejaVuSans-6e" x="359.082031"/>
      <use xlink:href="#DejaVuSans-73" x="422.460938"/>
     </g>
    </g>
   </g>
   <g id="matplotlib.axis_2">
    <g id="ytick_1">
     <g id="line2d_8">
      <defs>
       <path id="m8daac51ede" d="M 0 0 
L -3.5 0 
" style="stroke: #000000; stroke-width: 0.8"/>
      </defs>
      <g>
       <use xlink:href="#m8daac51ede" x="92.490625" y="302.634137" style="stroke: #000000; stroke-width: 0.8"/>
      </g>
     </g>
     <g id="text_9">
      <!-- −400 -->
      <g transform="translate(30.55625 310.232575) scale(0.2 -0.2)">
       <defs>
        <path id="DejaVuSans-2212" d="M 678 2272 
L 4684 2272 
L 4684 1741 
L 678 1741 
L 678 2272 
z
" transform="scale(0.015625)"/>
       </defs>
       <use xlink:href="#DejaVuSans-2212"/>
       <use xlink:href="#DejaVuSans-34" x="83.789062"/>
       <use xlink:href="#DejaVuSans-30" x="147.412109"/>
       <use xlink:href="#DejaVuSans-30" x="211.035156"/>
      </g>
     </g>
    </g>
    <g id="ytick_2">
     <g id="line2d_9">
      <g>
       <use xlink:href="#m8daac51ede" x="92.490625" y="217.204173" style="stroke: #000000; stroke-width: 0.8"/>
      </g>
     </g>
     <g id="text_10">
      <!-- −200 -->
      <g transform="translate(30.55625 224.802611) scale(0.2 -0.2)">
       <use xlink:href="#DejaVuSans-2212"/>
       <use xlink:href="#DejaVuSans-32" x="83.789062"/>
       <use xlink:href="#DejaVuSans-30" x="147.412109"/>
       <use xlink:href="#DejaVuSans-30" x="211.035156"/>
      </g>
     </g>
    </g>
    <g id="ytick_3">
     <g id="line2d_10">
      <g>
       <use xlink:href="#m8daac51ede" x="92.490625" y="131.77421" style="stroke: #000000; stroke-width: 0.8"/>
      </g>
     </g>
     <g id="text_11">
      <!-- 0 -->
      <g transform="translate(72.765625 139.372647) scale(0.2 -0.2)">
       <use xlink:href="#DejaVuSans-30"/>
      </g>
     </g>
    </g>
    <g id="ytick_4">
     <g id="line2d_11">
      <g>
       <use xlink:href="#m8daac51ede" x="92.490625" y="46.344246" style="stroke: #000000; stroke-width: 0.8"/>
      </g>
     </g>
     <g id="text_12">
      <!-- 200 -->
      <g transform="translate(47.315625 53.942683) scale(0.2 -0.2)">
       <use xlink:href="#DejaVuSans-32"/>
       <use xlink:href="#DejaVuSans-30" x="63.623047"/>
       <use xlink:href="#DejaVuSans-30" x="127.246094"/>
      </g>
     </g>
    </g>
    <g id="text_13">
     <!-- Loss -->
     <g transform="translate(22.396875 191.970625) rotate(-90) scale(0.2 -0.2)">
      <defs>
       <path id="DejaVuSans-4c" d="M 628 4666 
L 1259 4666 
L 1259 531 
L 3531 531 
L 3531 0 
L 628 0 
L 628 4666 
z
" transform="scale(0.015625)"/>
      </defs>
      <use xlink:href="#DejaVuSans-4c"/>
      <use xlink:href="#DejaVuSans-6f" x="53.962891"/>
      <use xlink:href="#DejaVuSans-73" x="115.144531"/>
      <use xlink:href="#DejaVuSans-73" x="167.244141"/>
     </g>
    </g>
   </g>
   <g id="line2d_12">
    <path d="M 117.854261 106.2005 
L 118.276989 95.293269 
L 118.699716 103.012934 
L 119.122443 83.802116 
L 119.54517 71.07048 
L 119.967898 44.03625 
L 120.390625 48.202048 
L 120.813352 79.082405 
L 121.23608 79.801139 
L 121.658807 95.039151 
L 122.081534 99.383912 
L 122.504261 110.005204 
L 122.926989 115.933238 
L 123.349716 123.921766 
L 123.772443 136.222671 
L 124.19517 131.011891 
L 124.617898 139.741022 
L 125.040625 146.066312 
L 125.463352 129.711857 
L 125.88608 135.776002 
L 126.308807 128.840387 
L 126.731534 145.744362 
L 127.154261 150.965648 
L 127.576989 141.047725 
L 127.999716 144.709483 
L 128.422443 146.730342 
L 128.84517 143.90278 
L 129.267898 148.88913 
L 129.690625 149.976643 
L 130.113352 151.914943 
L 130.53608 150.461138 
L 130.958807 156.209315 
L 131.381534 153.818163 
L 131.804261 152.769792 
L 132.226989 154.957248 
L 133.072443 148.919835 
L 133.49517 152.450257 
L 133.917898 149.30327 
L 134.340625 147.780732 
L 134.763352 148.375357 
L 135.18608 146.50394 
L 135.608807 148.745232 
L 136.031534 148.044137 
L 136.454261 150.657455 
L 136.876989 150.931957 
L 137.299716 148.202109 
L 137.722443 149.697081 
L 138.14517 148.719548 
L 138.567898 151.590814 
L 138.990625 149.238312 
L 139.413352 148.782451 
L 139.83608 146.91656 
L 140.258807 152.215016 
L 140.681534 147.648837 
L 141.104261 149.753192 
L 141.526989 147.694581 
L 141.949716 144.79521 
L 142.372443 145.921815 
L 142.79517 147.614704 
L 143.217898 147.130159 
L 143.640625 147.865317 
L 144.063352 146.770889 
L 144.48608 147.150497 
L 144.908807 146.202236 
L 145.331534 146.632383 
L 145.754261 147.881774 
L 146.176989 147.072561 
L 146.599716 147.95157 
L 147.022443 147.692356 
L 147.44517 147.157453 
L 147.867898 148.781308 
L 148.290625 148.414371 
L 149.13608 144.450993 
L 149.981534 143.911113 
L 150.404261 143.957386 
L 150.826989 142.36949 
L 151.249716 145.188605 
L 151.672443 146.418944 
L 152.09517 145.376387 
L 152.940625 142.843895 
L 153.363352 142.253463 
L 153.78608 142.717522 
L 154.208807 142.44384 
L 154.631534 142.872071 
L 155.054261 142.730961 
L 155.476989 143.888077 
L 155.899716 144.001604 
L 156.322443 142.574551 
L 156.74517 142.306426 
L 157.167898 142.937759 
L 157.590625 142.457902 
L 158.013352 143.531894 
L 158.43608 141.851198 
L 158.858807 144.015207 
L 159.704261 145.176547 
L 160.126989 147.614982 
L 160.549716 147.263937 
L 160.972443 144.073517 
L 161.39517 143.507762 
L 161.817898 144.077467 
L 162.240625 142.151502 
L 162.663352 141.557044 
L 163.08608 144.416611 
L 163.508807 145.316282 
L 163.931534 142.868472 
L 164.354261 144.028237 
L 164.776989 142.228375 
L 165.199716 142.014184 
L 165.622443 141.589126 
L 166.04517 141.571197 
L 166.467898 141.310832 
L 166.890625 140.917898 
L 167.313352 140.346577 
L 167.73608 140.861824 
L 168.158807 140.111764 
L 168.581534 138.192451 
L 169.004261 138.269277 
L 169.426989 138.718045 
L 169.849716 140.156663 
L 170.272443 138.766498 
L 170.69517 138.279705 
L 171.117898 139.323794 
L 171.540625 139.525302 
L 171.963352 139.180249 
L 172.38608 140.239676 
L 172.808807 141.858362 
L 173.231534 138.938448 
L 173.654261 139.449096 
L 174.076989 140.336515 
L 174.499716 142.371394 
L 174.922443 139.956244 
L 175.34517 140.734341 
L 175.767898 139.937076 
L 176.190625 139.804026 
L 176.613352 138.205218 
L 177.03608 139.587032 
L 177.881534 141.119228 
L 178.304261 139.052084 
L 178.726989 139.736506 
L 179.149716 141.329343 
L 179.572443 140.279518 
L 179.99517 140.313563 
L 180.417898 139.700591 
L 180.840625 139.85989 
L 181.263352 139.097869 
L 182.108807 141.702979 
L 182.531534 140.54567 
L 182.954261 140.869427 
L 183.376989 142.201998 
L 183.799716 140.897605 
L 184.222443 141.391703 
L 185.067898 138.737702 
L 185.913352 142.102561 
L 186.33608 141.988356 
L 186.758807 142.147197 
L 187.181534 143.574172 
L 187.604261 140.636832 
L 188.026989 142.174733 
L 188.449716 143.175611 
L 189.29517 141.613602 
L 189.717898 140.19156 
L 190.140625 142.75052 
L 190.563352 142.302067 
L 190.98608 143.746324 
L 191.408807 144.672228 
L 191.831534 143.788992 
L 192.254261 143.74112 
L 192.676989 142.406016 
L 193.099716 142.586782 
L 193.522443 144.512704 
L 193.94517 144.272991 
L 194.367898 143.769912 
L 194.790625 142.060514 
L 195.213352 141.58127 
L 195.63608 142.216679 
L 196.058807 140.461817 
L 196.481534 140.28079 
L 196.904261 144.05529 
L 197.326989 141.60604 
L 197.749716 142.299131 
L 198.172443 142.238929 
L 199.017898 141.520141 
L 199.440625 141.800176 
L 199.863352 141.370555 
L 200.28608 142.011928 
L 200.708807 141.833753 
L 201.131534 141.437759 
L 201.554261 141.943321 
L 201.976989 140.528882 
L 202.399716 140.208809 
L 202.822443 140.703162 
L 203.24517 141.554831 
L 203.667898 141.715784 
L 204.090625 140.065541 
L 204.513352 141.359576 
L 204.93608 142.10316 
L 205.358807 141.443143 
L 205.781534 141.179998 
L 206.204261 141.369596 
L 206.626989 141.233448 
L 207.049716 141.781948 
L 207.472443 141.728105 
L 207.89517 140.068284 
L 208.317898 139.740699 
L 208.740625 139.729665 
L 209.163352 140.554805 
L 209.58608 139.720235 
L 210.008807 142.083062 
L 210.431534 142.270694 
L 210.854261 141.359614 
L 211.276989 141.262846 
L 211.699716 140.203036 
L 212.122443 139.631234 
L 212.54517 140.828401 
L 212.967898 140.658546 
L 213.390625 139.660707 
L 213.813352 141.033843 
L 214.23608 140.479054 
L 214.658807 138.908645 
L 215.504261 143.175718 
L 215.926989 140.912469 
L 216.349716 142.693637 
L 216.772443 141.13301 
L 217.19517 141.298107 
L 217.617898 141.917444 
L 218.463352 140.397574 
L 218.88608 139.672439 
L 219.308807 140.568505 
L 219.731534 141.72895 
L 220.154261 141.955635 
L 220.576989 139.66056 
L 220.999716 141.115863 
L 221.84517 141.90842 
L 222.690625 141.271928 
L 223.113352 141.304225 
L 223.53608 140.883772 
L 223.958807 139.900049 
L 224.381534 141.93954 
L 224.804261 141.38107 
L 225.226989 141.043629 
L 225.649716 141.257252 
L 226.072443 141.861299 
L 226.49517 141.081762 
L 226.917898 141.623368 
L 227.340625 143.065076 
L 227.763352 142.508555 
L 228.18608 142.223836 
L 229.031534 140.742288 
L 229.454261 141.250351 
L 229.876989 139.881919 
L 230.299716 140.100562 
L 231.14517 139.564669 
L 231.567898 141.857634 
L 231.990625 138.77274 
L 232.413352 140.420332 
L 232.83608 140.256908 
L 233.258807 140.257608 
L 233.681534 140.809362 
L 234.526989 139.187185 
L 234.949716 139.360426 
L 235.372443 140.556467 
L 235.79517 141.113111 
L 236.217898 140.86058 
L 236.640625 140.209854 
L 237.063352 141.105996 
L 237.48608 142.337483 
L 237.908807 140.07311 
L 238.331534 140.602043 
L 238.754261 140.125384 
L 239.176989 140.266199 
L 239.599716 139.772343 
L 240.022443 140.821142 
L 240.44517 141.145302 
L 241.290625 139.141903 
L 241.713352 138.844941 
L 242.13608 140.093781 
L 242.558807 140.315587 
L 242.981534 137.059576 
L 243.404261 135.341227 
L 244.249716 138.125529 
L 244.672443 140.60994 
L 245.09517 140.872107 
L 245.517898 138.13094 
L 245.940625 140.283064 
L 246.363352 140.683787 
L 246.78608 139.987451 
L 247.208807 141.833527 
L 248.054261 140.417825 
L 248.476989 141.311646 
L 248.899716 139.75019 
L 249.322443 139.840337 
L 249.74517 139.798123 
L 250.167898 139.948652 
L 250.590625 140.219814 
L 251.013352 140.689288 
L 251.43608 139.985053 
L 251.858807 140.275247 
L 252.281534 141.752186 
L 252.704261 140.095416 
L 253.126989 141.105599 
L 253.549716 143.034492 
L 253.972443 141.114813 
L 254.39517 140.737658 
L 254.817898 139.765443 
L 255.240625 139.957015 
L 255.663352 140.337908 
L 256.08608 139.574103 
L 256.508807 141.082953 
L 256.931534 141.206726 
L 257.354261 140.915457 
L 257.776989 142.191172 
L 258.199716 141.336998 
L 258.622443 139.692628 
L 259.04517 141.000938 
L 259.467898 140.909394 
L 259.890625 141.552779 
L 260.313352 141.729933 
L 260.73608 141.491486 
L 261.158807 142.667296 
L 261.581534 143.194822 
L 262.004261 144.093051 
L 262.426989 143.682404 
L 263.272443 141.641717 
L 263.69517 141.820165 
L 264.117898 142.997563 
L 264.540625 141.298489 
L 264.963352 141.845926 
L 265.38608 141.503955 
L 265.808807 141.585354 
L 266.231534 140.514449 
L 266.654261 141.485577 
L 267.076989 140.997126 
L 267.499716 140.769428 
L 268.34517 141.735172 
L 268.767898 140.479324 
L 269.190625 141.269145 
L 269.613352 141.301165 
L 270.03608 141.925125 
L 270.458807 141.219729 
L 271.304261 141.096262 
L 271.726989 140.000626 
L 272.572443 139.960953 
L 273.417898 140.42143 
L 273.840625 140.187129 
L 274.263352 140.646585 
L 274.68608 139.810883 
L 275.531534 141.080838 
L 275.954261 140.892541 
L 276.376989 140.117579 
L 276.799716 141.720876 
L 277.222443 142.881143 
L 277.64517 142.215011 
L 278.067898 144.099605 
L 278.490625 142.123466 
L 278.913352 142.008462 
L 279.33608 143.050816 
L 279.758807 143.273704 
L 280.181534 142.733912 
L 281.026989 142.832352 
L 281.449716 143.021904 
L 281.872443 142.349658 
L 282.717898 137.554799 
L 283.140625 138.422193 
L 283.563352 132.055602 
L 283.98608 134.866361 
L 284.408807 134.561206 
L 284.831534 133.41717 
L 285.254261 135.528764 
L 285.676989 136.720811 
L 286.099716 136.13275 
L 286.522443 135.806208 
L 286.94517 136.480411 
L 287.367898 138.091589 
L 287.790625 136.412065 
L 288.213352 137.985223 
L 288.63608 135.259883 
L 289.058807 135.859338 
L 289.481534 138.030001 
L 289.904261 137.059151 
L 290.326989 137.169758 
L 291.172443 137.964406 
L 291.59517 137.214489 
L 292.017898 139.789964 
L 292.440625 137.311494 
L 292.863352 137.75856 
L 293.28608 136.925339 
L 293.708807 138.246034 
L 294.131534 138.538797 
L 294.976989 137.244467 
L 295.399716 137.332561 
L 295.822443 138.162987 
L 296.24517 139.382702 
L 296.667898 139.12165 
L 297.090625 139.495137 
L 297.513352 138.611615 
L 297.93608 139.669447 
L 298.358807 138.210561 
L 298.781534 138.305335 
L 299.204261 138.008384 
L 299.626989 139.328819 
L 300.472443 140.156714 
L 300.89517 138.932544 
L 301.317898 138.754762 
L 301.740625 139.030795 
L 302.163352 138.952323 
L 302.58608 139.121641 
L 303.008807 140.201292 
L 303.431534 139.344131 
L 303.854261 139.197042 
L 304.276989 138.278273 
L 304.699716 138.508022 
L 305.122443 138.928114 
L 305.54517 139.093599 
L 305.967898 137.836699 
L 306.390625 138.794698 
L 306.813352 138.254888 
L 307.23608 138.845994 
L 308.081534 138.481943 
L 308.504261 138.543332 
L 308.926989 139.458534 
L 309.349716 139.400961 
L 309.772443 138.988463 
L 310.19517 139.400857 
L 310.617898 139.620481 
L 311.040625 139.713892 
L 311.463352 138.52745 
L 311.88608 138.883596 
L 312.308807 138.448987 
L 312.731534 138.319017 
L 313.154261 138.571678 
L 313.576989 138.662684 
L 313.999716 137.842678 
L 314.422443 135.218979 
L 314.84517 138.010515 
L 315.267898 138.464266 
L 315.690625 138.319968 
L 316.113352 137.344796 
L 316.53608 138.605089 
L 316.958807 137.813948 
L 317.381534 138.046748 
L 317.804261 137.479783 
L 318.226989 136.591293 
L 318.649716 137.926346 
L 319.072443 137.861248 
L 319.49517 136.996455 
L 319.917898 137.050665 
L 320.340625 138.010305 
L 320.763352 138.448217 
L 321.18608 138.694624 
L 321.608807 138.761858 
L 322.454261 140.097669 
L 322.876989 139.199145 
L 323.299716 137.932704 
L 323.722443 138.902771 
L 324.567898 138.133353 
L 324.990625 138.959948 
L 325.413352 138.016238 
L 325.83608 137.78253 
L 326.258807 137.728585 
L 326.681534 137.35183 
L 327.104261 137.534918 
L 327.526989 137.881135 
L 327.949716 138.773509 
L 328.372443 137.980029 
L 328.79517 138.889815 
L 329.217898 137.860111 
L 329.640625 138.036439 
L 330.063352 138.682241 
L 330.48608 138.314265 
L 330.908807 138.331096 
L 331.331534 137.975421 
L 331.754261 138.03331 
L 332.176989 137.462769 
L 333.022443 137.971204 
L 333.44517 136.936308 
L 334.290625 137.163446 
L 334.713352 136.945668 
L 335.13608 137.695802 
L 335.558807 136.666571 
L 335.981534 137.400428 
L 336.404261 137.865413 
L 336.826989 137.993014 
L 337.249716 137.847084 
L 337.672443 137.570795 
L 338.09517 136.849702 
L 338.517898 136.520589 
L 338.940625 137.561634 
L 339.363352 137.1365 
L 339.78608 138.046185 
L 340.208807 138.348643 
L 340.631534 138.44306 
L 341.054261 139.473834 
L 341.476989 137.994971 
L 341.899716 137.455932 
L 342.322443 138.067411 
L 342.74517 136.619139 
L 343.167898 138.785743 
L 343.590625 139.265789 
L 344.013352 138.050721 
L 344.43608 137.452075 
L 344.858807 137.196439 
L 345.704261 137.461782 
L 346.126989 137.178265 
L 346.549716 137.207842 
L 346.972443 136.974012 
L 347.39517 136.468116 
L 347.817898 137.169727 
L 348.240625 136.737413 
L 348.663352 136.622805 
L 349.08608 136.073681 
L 349.931534 137.120078 
L 350.354261 137.538276 
L 350.776989 136.916957 
L 351.199716 137.634816 
L 351.622443 137.687123 
L 352.467898 137.053208 
L 352.890625 137.171977 
L 353.313352 136.119652 
L 354.158807 137.155649 
L 354.581534 137.444766 
L 355.004261 136.953323 
L 355.426989 137.350013 
L 355.849716 136.734804 
L 356.272443 137.127647 
L 356.69517 137.106146 
L 357.117898 137.874954 
L 357.963352 136.361402 
L 358.808807 136.849697 
L 359.231534 135.735773 
L 359.654261 134.241547 
L 360.076989 136.899911 
L 360.499716 136.342973 
L 360.922443 136.228016 
L 362.613352 136.706342 
L 363.03608 136.869315 
L 363.458807 136.33684 
L 364.726989 137.581438 
L 365.149716 135.582046 
L 365.572443 136.373064 
L 365.99517 137.498191 
L 366.417898 137.813393 
L 366.840625 137.086298 
L 367.263352 137.29387 
L 367.68608 137.108462 
L 368.108807 136.084374 
L 368.531534 136.844782 
L 368.954261 136.988736 
L 369.376989 137.411758 
L 369.799716 136.632939 
L 370.222443 136.106455 
L 371.067898 136.51944 
L 371.490625 135.882837 
L 371.913352 136.073613 
L 372.33608 135.850292 
L 372.758807 136.100725 
L 373.604261 136.108632 
L 374.026989 135.828179 
L 374.449716 136.1602 
L 374.872443 136.707869 
L 375.29517 136.149004 
L 376.563352 136.572805 
L 376.98608 137.021043 
L 377.408807 136.4219 
L 377.831534 136.142106 
L 378.254261 135.461237 
L 378.676989 135.596975 
L 379.099716 136.081031 
L 379.522443 135.256443 
L 379.94517 135.401509 
L 380.367898 135.863794 
L 380.790625 136.049282 
L 381.63608 136.082332 
L 382.058807 135.295614 
L 382.481534 135.666634 
L 383.326989 135.688449 
L 383.749716 136.232149 
L 384.172443 135.877666 
L 384.59517 136.300032 
L 385.017898 136.432592 
L 385.440625 136.122437 
L 385.863352 136.112765 
L 386.28608 135.949342 
L 386.708807 136.170976 
L 387.131534 135.781494 
L 387.554261 135.988328 
L 387.976989 135.614457 
L 388.399716 135.939048 
L 388.822443 136.43697 
L 389.24517 136.129037 
L 389.667898 136.096426 
L 390.090625 135.921403 
L 390.513352 136.329532 
L 390.93608 136.17576 
L 391.358807 135.65699 
L 391.781534 136.279294 
L 392.204261 136.500145 
L 392.626989 135.696272 
L 393.049716 136.36883 
L 393.472443 136.247871 
L 393.89517 136.299498 
L 394.317898 136.488781 
L 394.740625 136.973567 
L 395.163352 136.304268 
L 395.58608 136.330158 
L 396.008807 136.094115 
L 396.431534 136.278516 
L 396.854261 136.655856 
L 397.276989 136.226695 
L 397.699716 135.975214 
L 398.122443 136.062842 
L 398.54517 136.989963 
L 398.967898 136.174814 
L 399.390625 136.352754 
L 399.813352 136.046591 
L 400.658807 136.741842 
L 401.504261 136.308043 
L 402.349716 136.412575 
L 402.772443 136.256258 
L 403.19517 136.243733 
L 403.617898 135.969769 
L 404.040625 136.447005 
L 404.463352 136.228819 
L 404.88608 135.583517 
L 405.308807 136.126575 
L 405.731534 135.437809 
L 406.154261 136.241336 
L 406.576989 136.777977 
L 406.999716 136.650424 
L 407.422443 136.109806 
L 407.84517 135.87718 
L 408.267898 135.464379 
L 408.690625 136.186942 
L 409.113352 135.510729 
L 409.53608 135.690783 
L 409.958807 135.681079 
L 410.381534 135.049192 
L 410.804261 135.842249 
L 411.226989 136.397189 
L 411.649716 136.092844 
L 412.072443 135.618005 
L 412.49517 135.904495 
L 412.917898 135.914915 
L 413.340625 135.682521 
L 413.763352 135.297348 
L 414.18608 135.991756 
L 414.608807 136.358904 
L 415.031534 135.625632 
L 415.454261 135.514374 
L 415.876989 135.661709 
L 416.299716 135.308409 
L 416.722443 135.583512 
L 417.14517 136.138664 
L 417.567898 136.330005 
L 417.990625 135.833166 
L 418.83608 135.626877 
L 419.258807 135.369325 
L 419.681534 135.594507 
L 420.104261 135.559485 
L 420.949716 135.299478 
L 421.79517 135.540724 
L 422.217898 135.716112 
L 422.640625 136.159471 
L 423.063352 135.895603 
L 423.48608 136.000266 
L 424.754261 135.536491 
L 425.176989 135.174508 
L 426.022443 134.961843 
L 426.44517 135.249773 
L 426.867898 134.443571 
L 427.290625 135.162222 
L 427.713352 134.872528 
L 428.13608 135.188241 
L 428.981534 135.232589 
L 429.404261 134.78266 
L 429.826989 135.171865 
L 430.249716 134.797564 
L 430.672443 134.110081 
L 431.517898 135.20356 
L 431.940625 135.10371 
L 432.363352 135.263638 
L 432.78608 135.543917 
L 433.208807 135.610231 
L 433.631534 135.818764 
L 434.054261 135.561679 
L 434.476989 135.151209 
L 434.899716 135.49031 
L 435.322443 135.618302 
L 435.74517 136.388838 
L 436.167898 136.160422 
L 436.590625 135.495102 
L 437.43608 135.165166 
L 437.858807 135.163086 
L 438.281534 134.98196 
L 438.704261 135.407177 
L 439.126989 135.167381 
L 439.972443 135.336748 
L 440.39517 135.753255 
L 440.817898 135.361153 
L 441.240625 135.841382 
L 441.663352 135.971655 
L 442.08608 135.933876 
L 442.508807 135.721156 
L 442.931534 135.913284 
L 444.199716 134.914567 
L 444.622443 134.84309 
L 445.04517 135.752349 
L 445.467898 135.282003 
L 445.890625 135.302825 
L 446.313352 135.436666 
L 446.73608 135.156597 
L 447.158807 135.590775 
L 448.004261 135.526253 
L 448.426989 134.718205 
L 448.849716 135.268665 
L 449.272443 135.069055 
L 449.69517 134.730947 
L 450.117898 134.875418 
L 450.540625 133.996211 
L 450.963352 134.768028 
L 451.808807 133.88634 
L 452.231534 134.532146 
L 452.654261 134.507239 
L 453.076989 134.882502 
L 453.922443 134.17844 
L 454.34517 134.304131 
L 454.767898 134.899456 
L 455.613352 135.135487 
L 456.03608 134.422653 
L 456.458807 134.3739 
L 456.881534 134.932442 
L 457.304261 134.59162 
L 457.726989 135.018018 
L 458.149716 134.859407 
L 458.572443 134.372028 
L 458.99517 134.899499 
L 459.417898 134.892124 
L 459.840625 134.687151 
L 460.68608 135.223162 
L 461.108807 134.212132 
L 461.954261 133.174699 
L 462.376989 133.272306 
L 463.222443 133.84518 
L 463.64517 134.149704 
L 464.067898 133.969189 
L 464.913352 134.287678 
L 465.33608 134.410299 
L 465.758807 134.200793 
L 466.181534 133.795636 
L 466.604261 134.127718 
L 467.872443 133.721318 
L 468.29517 133.18287 
L 468.717898 133.365968 
L 469.563352 133.367984 
L 469.98608 133.38229 
L 470.408807 133.606401 
L 471.254261 133.69395 
L 471.676989 132.989034 
L 472.099716 133.429298 
L 472.522443 133.03247 
L 472.94517 133.827186 
L 473.367898 133.563869 
L 473.790625 133.63808 
L 474.213352 133.25143 
L 474.63608 133.847816 
L 475.058807 132.81338 
L 475.481534 133.119048 
L 475.904261 133.748302 
L 477.172443 133.723852 
L 477.59517 133.122644 
L 478.017898 133.346298 
L 478.440625 133.318325 
L 478.863352 133.597174 
L 479.28608 134.068784 
L 479.708807 133.79123 
L 480.131534 134.290194 
L 480.554261 133.361079 
L 480.976989 134.101199 
L 481.822443 133.317434 
L 482.667898 134.098508 
L 483.090625 134.257123 
L 483.513352 133.783905 
L 484.781534 134.286862 
L 485.204261 133.925185 
L 486.049716 133.787017 
L 486.472443 133.22301 
L 486.89517 133.679311 
L 487.317898 133.740258 
L 487.740625 133.578935 
L 488.163352 133.665019 
L 488.58608 133.247009 
L 489.008807 134.248351 
L 490.276989 133.447514 
L 490.699716 133.525427 
L 491.122443 134.057009 
L 491.54517 133.941756 
L 491.967898 134.341268 
L 492.390625 133.498835 
L 492.813352 133.500623 
L 493.23608 133.725678 
L 493.658807 133.744215 
L 494.081534 134.141878 
L 494.504261 134.083056 
L 494.926989 133.577507 
L 495.349716 133.850145 
L 495.772443 133.338157 
L 496.19517 133.756134 
L 497.040625 133.523479 
L 497.88608 133.938458 
L 498.308807 133.672841 
L 498.731534 133.174995 
L 499.154261 133.509287 
L 499.576989 133.589827 
L 499.999716 133.355684 
L 500.422443 133.682031 
L 500.84517 133.348062 
L 501.267898 133.633207 
L 501.690625 133.332448 
L 502.113352 133.269391 
L 502.53608 133.339852 
L 502.958807 134.075909 
L 503.381534 133.296726 
L 503.804261 133.509579 
L 504.226989 134.262304 
L 504.649716 133.874039 
L 505.072443 133.964944 
L 505.49517 133.225443 
L 505.917898 133.731248 
L 506.340625 133.718912 
L 506.763352 133.171953 
L 507.18608 134.114996 
L 507.608807 133.541133 
L 508.031534 133.745587 
L 508.454261 133.639582 
L 509.299716 133.98394 
L 509.722443 133.737046 
L 510.14517 134.383642 
L 510.567898 133.591144 
L 510.990625 134.077746 
L 511.83608 133.462714 
L 512.258807 134.359715 
L 512.681534 133.782084 
L 513.526989 133.624843 
L 513.949716 133.689008 
L 514.372443 133.119809 
L 514.79517 133.45529 
L 515.217898 134.265179 
L 515.640625 133.556367 
L 516.48608 133.959625 
L 516.908807 133.779838 
L 517.331534 133.796177 
L 517.754261 133.629255 
L 518.176989 133.721854 
L 518.599716 134.208296 
L 519.022443 133.824729 
L 519.867898 133.94537 
L 520.290625 134.409898 
L 520.713352 134.413978 
L 521.13608 134.212108 
L 521.558807 134.154598 
L 521.981534 133.633354 
L 522.404261 133.939832 
L 522.826989 133.880872 
L 523.249716 134.137658 
L 523.672443 134.220815 
L 524.09517 133.591722 
L 524.517898 134.118703 
L 524.940625 134.224359 
L 525.363352 133.906639 
L 526.208807 133.821139 
L 526.631534 134.290437 
L 527.054261 133.669888 
L 527.899716 133.800014 
L 528.322443 133.409668 
L 528.74517 133.570721 
L 529.167898 133.29868 
L 529.590625 133.338362 
L 530.43608 132.874629 
L 530.858807 133.554964 
L 531.704261 133.682078 
L 532.126989 133.133137 
L 532.549716 133.447068 
L 532.972443 133.19927 
L 533.39517 133.440321 
L 533.817898 133.989143 
L 534.240625 133.524381 
L 534.663352 133.683299 
L 535.08608 133.321739 
L 535.508807 133.816814 
L 535.931534 133.164358 
L 536.354261 133.524765 
L 536.776989 133.568814 
L 537.199716 132.879766 
L 538.04517 133.432651 
L 538.467898 132.950288 
L 538.890625 132.646281 
L 540.158807 133.272574 
L 541.004261 132.991604 
L 541.426989 133.613692 
L 541.849716 133.323713 
L 542.272443 133.8403 
L 542.69517 133.311479 
L 543.117898 133.208811 
L 543.540625 133.802983 
L 543.963352 133.365115 
L 544.38608 134.213456 
L 544.808807 133.685005 
L 545.231534 133.507192 
L 545.654261 133.890785 
L 546.076989 133.384813 
L 546.499716 133.749393 
L 547.34517 132.871347 
L 547.767898 133.346591 
L 548.190625 133.587691 
L 548.613352 133.486121 
L 549.03608 132.862872 
L 549.458807 133.768157 
L 549.881534 133.106498 
L 550.304261 133.3698 
L 550.726989 133.342733 
L 551.149716 133.930408 
L 551.572443 133.442902 
L 551.99517 133.921701 
L 552.417898 134.116494 
L 552.840625 133.666852 
L 553.263352 133.656898 
L 553.68608 133.853067 
L 554.531534 133.536329 
L 554.954261 133.795304 
L 555.376989 133.557456 
L 555.799716 133.574365 
L 556.222443 134.065053 
L 556.64517 133.671927 
L 557.067898 134.018471 
L 557.490625 133.817169 
L 557.913352 133.429168 
L 558.33608 133.988294 
L 559.181534 133.652501 
L 559.604261 133.412357 
L 560.026989 133.949705 
L 560.449716 133.672097 
L 560.872443 133.673621 
L 561.29517 133.486624 
L 561.717898 134.007508 
L 562.563352 133.679841 
L 562.98608 133.816773 
L 563.408807 133.465657 
L 563.831534 133.724066 
L 564.676989 133.704133 
L 565.099716 134.280218 
L 565.522443 134.182571 
L 565.94517 133.793567 
L 567.63608 133.613779 
L 568.058807 133.66944 
L 568.481534 133.962676 
L 568.904261 133.138681 
L 569.326989 133.477864 
L 570.172443 133.239464 
L 570.59517 133.494443 
L 571.017898 133.587971 
L 571.440625 133.357063 
L 571.863352 133.656181 
L 572.28608 133.263856 
L 572.708807 133.285078 
L 573.131534 133.509148 
L 573.554261 133.190702 
L 573.976989 133.503335 
L 574.822443 133.629949 
L 575.24517 133.344778 
L 575.667898 133.398079 
L 576.090625 133.121755 
L 576.93608 133.730633 
L 577.358807 133.245562 
L 577.781534 133.978318 
L 578.204261 133.16097 
L 578.626989 133.852953 
L 579.049716 133.485483 
L 579.89517 133.682527 
L 580.317898 133.626341 
L 580.740625 133.344804 
L 581.163352 133.802927 
L 581.58608 133.204786 
L 582.008807 133.820391 
L 582.431534 133.629043 
L 582.854261 133.187673 
L 583.276989 133.385359 
L 583.699716 134.06406 
L 584.122443 134.071334 
L 584.54517 133.864271 
L 584.967898 134.189885 
L 585.390625 133.202208 
L 585.813352 133.754956 
L 586.658807 133.477847 
L 587.081534 133.458642 
L 587.504261 133.163407 
L 587.926989 133.469069 
L 588.349716 133.260811 
L 588.772443 133.645594 
L 589.19517 133.843693 
L 590.88608 133.63294 
L 591.308807 133.606733 
L 591.731534 133.71714 
L 592.154261 134.159871 
L 592.999716 133.352835 
L 593.422443 133.802447 
L 593.84517 133.41375 
L 594.267898 133.327196 
L 595.113352 134.132889 
L 595.53608 133.895268 
L 595.958807 133.966498 
L 596.804261 133.499926 
L 597.226989 133.032398 
L 597.649716 133.402036 
L 598.072443 133.198782 
L 598.49517 133.370991 
L 598.917898 133.804332 
L 599.340625 133.272764 
L 599.763352 133.194095 
L 600.18608 133.275648 
L 600.608807 133.562954 
L 601.031534 132.919089 
L 601.454261 133.414528 
L 601.876989 133.501233 
L 602.299716 133.223137 
L 602.722443 133.430738 
L 603.567898 133.402505 
L 603.990625 133.048817 
L 604.83608 133.524706 
L 606.104261 133.397559 
L 606.526989 133.178836 
L 606.949716 133.48024 
L 607.79517 133.411004 
L 608.217898 133.45608 
L 608.640625 133.637979 
L 609.063352 133.508621 
L 609.48608 133.614479 
L 610.331534 133.197024 
L 610.754261 133.287037 
L 611.176989 133.095001 
L 611.599716 133.461812 
L 612.44517 133.543602 
L 612.867898 133.541016 
L 613.290625 133.180331 
L 613.713352 133.513429 
L 614.13608 133.512931 
L 614.558807 133.713001 
L 614.981534 133.303676 
L 615.404261 133.556086 
L 615.826989 133.095766 
L 616.249716 132.98621 
L 616.672443 133.051829 
L 617.09517 133.478949 
L 617.517898 133.115973 
L 617.940625 133.740786 
L 618.363352 133.839542 
L 618.78608 133.468676 
L 619.631534 133.555256 
L 620.054261 133.213695 
L 620.476989 133.205743 
L 620.899716 133.357538 
L 621.74517 133.152793 
L 622.167898 132.949032 
L 622.590625 133.552519 
L 623.013352 133.894638 
L 624.281534 133.380543 
L 624.704261 133.536658 
L 625.126989 133.558725 
L 625.126989 133.558725 
" clip-path="url(#p0ae6adf4c3)" style="fill: none; stroke: #1f77b4; stroke-width: 1.5; stroke-linecap: square"/>
   </g>
   <g id="line2d_13">
    <path d="M 117.854261 296.03625 
L 118.276989 241.113866 
L 118.699716 203.288765 
L 119.122443 205.049939 
L 119.54517 206.143459 
L 119.967898 203.498942 
L 120.390625 186.685966 
L 120.813352 205.438172 
L 121.23608 185.019453 
L 121.658807 179.820324 
L 122.081534 180.821211 
L 122.504261 180.813717 
L 122.926989 182.146734 
L 123.349716 178.799757 
L 123.772443 180.178391 
L 124.19517 168.962548 
L 124.617898 174.973676 
L 125.040625 174.142921 
L 125.88608 177.47744 
L 126.308807 178.02884 
L 126.731534 164.487503 
L 127.154261 166.986542 
L 127.576989 163.693045 
L 127.999716 167.581344 
L 128.422443 164.551672 
L 128.84517 164.242989 
L 129.267898 164.583071 
L 129.690625 158.927573 
L 130.113352 159.597491 
L 130.53608 163.332655 
L 130.958807 159.064405 
L 131.381534 157.226609 
L 132.226989 160.114653 
L 132.649716 157.536135 
L 133.072443 156.008313 
L 133.49517 156.101845 
L 133.917898 158.11385 
L 134.340625 159.255239 
L 134.763352 158.371931 
L 135.18608 158.633965 
L 136.031534 154.988208 
L 136.454261 158.988351 
L 136.876989 159.203964 
L 137.299716 158.449679 
L 137.722443 154.020669 
L 138.14517 153.725238 
L 138.567898 157.613843 
L 138.990625 159.434499 
L 139.413352 157.180335 
L 139.83608 155.850694 
L 140.258807 158.029298 
L 140.681534 157.177485 
L 141.104261 155.614422 
L 141.526989 155.980615 
L 141.949716 154.753656 
L 142.372443 155.408499 
L 142.79517 158.615546 
L 143.640625 155.516206 
L 144.063352 155.288589 
L 144.48608 155.670831 
L 145.754261 159.280733 
L 146.176989 158.871815 
L 146.599716 157.26312 
L 147.022443 156.861179 
L 147.44517 156.724625 
L 147.867898 156.787615 
L 148.290625 158.944455 
L 148.713352 156.049845 
L 149.13608 155.294044 
L 149.558807 156.561929 
L 149.981534 157.36283 
L 150.404261 157.655218 
L 150.826989 156.046993 
L 151.249716 158.774749 
L 152.09517 156.304672 
L 152.517898 154.245005 
L 152.940625 154.473916 
L 153.363352 153.822593 
L 154.208807 155.803786 
L 154.631534 155.531842 
L 155.054261 154.587492 
L 155.476989 156.61496 
L 156.322443 154.423699 
L 156.74517 150.82526 
L 158.013352 152.88935 
L 158.43608 153.076736 
L 158.858807 155.349784 
L 159.281534 153.019148 
L 159.704261 155.002136 
L 160.126989 153.832037 
L 160.549716 155.94442 
L 160.972443 149.305635 
L 161.39517 150.20283 
L 161.817898 147.868647 
L 162.240625 147.383957 
L 162.663352 148.273323 
L 163.08608 151.36421 
L 163.931534 149.313987 
L 164.354261 150.086891 
L 164.776989 150.064108 
L 165.199716 151.354422 
L 165.622443 149.22371 
L 166.04517 151.954691 
L 166.890625 150.047436 
L 167.313352 149.991833 
L 167.73608 150.313042 
L 168.158807 152.187133 
L 168.581534 148.43794 
L 169.004261 150.235716 
L 169.426989 150.33164 
L 169.849716 151.363168 
L 170.272443 149.663027 
L 171.117898 149.461831 
L 171.540625 149.117886 
L 171.963352 149.697328 
L 172.38608 149.674019 
L 172.808807 150.915693 
L 173.231534 150.0342 
L 173.654261 150.45281 
L 174.076989 150.12333 
L 174.499716 150.654267 
L 174.922443 151.798453 
L 175.34517 153.433211 
L 175.767898 151.196747 
L 176.190625 149.809581 
L 176.613352 149.944401 
L 177.03608 149.639818 
L 177.458807 150.804349 
L 177.881534 151.107627 
L 178.304261 150.99181 
L 178.726989 151.6235 
L 179.149716 151.800852 
L 179.572443 151.13914 
L 179.99517 151.051892 
L 180.417898 153.006503 
L 180.840625 152.149768 
L 181.263352 151.548159 
L 181.68608 152.374985 
L 182.108807 152.167704 
L 182.531534 151.425898 
L 182.954261 153.236006 
L 183.376989 153.007327 
L 183.799716 151.352523 
L 184.222443 150.212294 
L 184.64517 149.877967 
L 185.067898 149.76712 
L 185.490625 152.334364 
L 185.913352 152.984876 
L 186.33608 154.989053 
L 186.758807 152.777388 
L 187.181534 155.510737 
L 187.604261 153.131881 
L 188.026989 154.505523 
L 188.449716 153.474304 
L 188.872443 153.384478 
L 189.29517 154.081152 
L 189.717898 150.17425 
L 190.140625 151.303553 
L 190.563352 151.289085 
L 190.98608 152.397849 
L 191.408807 152.456653 
L 191.831534 150.403996 
L 192.676989 151.256954 
L 193.099716 152.309498 
L 193.522443 155.515012 
L 193.94517 153.799522 
L 194.367898 154.22262 
L 194.790625 151.425359 
L 195.213352 151.190714 
L 195.63608 150.809033 
L 196.058807 150.179916 
L 196.481534 150.736983 
L 196.904261 152.238025 
L 197.749716 149.389988 
L 198.172443 152.36677 
L 198.59517 151.178073 
L 199.017898 151.577578 
L 199.440625 153.414952 
L 199.863352 150.167981 
L 200.28608 150.014169 
L 200.708807 150.413847 
L 201.131534 148.432849 
L 201.554261 150.09173 
L 201.976989 150.013241 
L 202.822443 152.862798 
L 203.24517 148.176301 
L 203.667898 151.27553 
L 204.090625 150.204153 
L 204.513352 150.429404 
L 204.93608 153.806232 
L 205.358807 152.564889 
L 205.781534 151.764491 
L 206.204261 151.634621 
L 206.626989 151.798586 
L 207.472443 151.136103 
L 207.89517 149.717316 
L 208.317898 146.124544 
L 208.740625 146.390486 
L 209.163352 147.845925 
L 209.58608 147.747277 
L 210.431534 151.12045 
L 210.854261 150.824896 
L 211.276989 151.402646 
L 211.699716 148.853405 
L 212.122443 150.661894 
L 212.54517 151.552457 
L 212.967898 150.230134 
L 213.390625 149.747131 
L 213.813352 151.02265 
L 214.23608 151.54486 
L 214.658807 149.989709 
L 215.081534 153.052728 
L 215.504261 152.927737 
L 215.926989 150.854604 
L 216.349716 149.803555 
L 216.772443 151.003609 
L 217.19517 152.796036 
L 217.617898 153.127643 
L 218.040625 152.847695 
L 218.463352 149.57657 
L 218.88608 151.199333 
L 219.308807 151.612981 
L 219.731534 150.939007 
L 220.154261 150.668608 
L 220.576989 148.261371 
L 220.999716 150.64913 
L 221.422443 149.748479 
L 221.84517 148.539394 
L 222.267898 149.983433 
L 222.690625 150.051366 
L 223.113352 149.886969 
L 223.53608 148.826135 
L 223.958807 148.534426 
L 224.381534 149.706885 
L 224.804261 148.706397 
L 225.226989 150.532964 
L 225.649716 148.740553 
L 226.072443 149.327069 
L 226.49517 149.280068 
L 226.917898 150.824788 
L 227.340625 152.94373 
L 227.763352 150.838432 
L 228.18608 151.038112 
L 228.608807 150.42302 
L 229.031534 150.419573 
L 229.454261 151.387996 
L 229.876989 147.587184 
L 230.299716 149.256893 
L 230.722443 150.177876 
L 231.14517 148.732241 
L 231.567898 151.537359 
L 231.990625 147.732009 
L 232.413352 148.940103 
L 232.83608 148.171511 
L 233.258807 150.538707 
L 233.681534 151.618155 
L 234.104261 147.331739 
L 234.526989 146.71374 
L 234.949716 147.041982 
L 235.372443 146.64251 
L 236.217898 149.735165 
L 236.640625 147.685401 
L 237.063352 148.928008 
L 237.48608 149.44773 
L 237.908807 147.520702 
L 238.331534 147.992599 
L 238.754261 148.075181 
L 239.176989 147.476149 
L 239.599716 147.986914 
L 240.022443 149.178678 
L 240.44517 149.618311 
L 240.867898 148.624371 
L 241.290625 146.764939 
L 241.713352 146.058598 
L 242.13608 147.941403 
L 242.558807 148.029202 
L 242.981534 150.687199 
L 243.404261 146.697004 
L 243.826989 145.16617 
L 244.249716 146.6666 
L 244.672443 147.58066 
L 245.517898 145.861357 
L 245.940625 147.828364 
L 246.363352 147.007308 
L 247.208807 146.009021 
L 248.476989 149.924127 
L 249.322443 146.336792 
L 249.74517 146.575728 
L 250.167898 148.283753 
L 250.590625 148.877409 
L 251.43608 146.334357 
L 251.858807 146.61056 
L 252.281534 148.682391 
L 252.704261 148.756905 
L 253.126989 149.724469 
L 253.549716 148.74832 
L 253.972443 148.558895 
L 254.39517 148.723365 
L 254.817898 146.921662 
L 255.240625 147.01632 
L 255.663352 146.944288 
L 256.08608 147.558182 
L 256.508807 147.766075 
L 256.931534 148.390341 
L 257.354261 147.878107 
L 257.776989 148.882083 
L 258.199716 148.014212 
L 258.622443 148.676497 
L 259.04517 147.872348 
L 259.467898 145.778762 
L 260.313352 146.342631 
L 260.73608 148.350632 
L 261.158807 148.988638 
L 261.581534 147.391235 
L 262.004261 149.821081 
L 262.426989 147.996077 
L 262.849716 149.031582 
L 263.272443 146.037361 
L 263.69517 148.671689 
L 264.117898 149.053573 
L 264.540625 148.04938 
L 264.963352 146.400472 
L 265.808807 146.825366 
L 266.231534 145.566805 
L 266.654261 146.199822 
L 267.076989 147.363132 
L 267.499716 145.266351 
L 267.922443 146.472383 
L 268.34517 146.405547 
L 268.767898 145.784048 
L 269.190625 145.925262 
L 269.613352 147.715782 
L 270.03608 145.079454 
L 270.458807 145.744808 
L 270.881534 146.658808 
L 271.304261 146.263982 
L 271.726989 144.737049 
L 272.149716 145.535868 
L 272.572443 147.097598 
L 272.99517 146.435914 
L 273.417898 146.878997 
L 273.840625 146.887601 
L 274.263352 147.294672 
L 275.108807 147.727013 
L 275.531534 147.715841 
L 275.954261 148.327607 
L 276.376989 147.360703 
L 276.799716 148.57042 
L 277.222443 148.590716 
L 277.64517 147.186829 
L 278.067898 149.632939 
L 278.490625 148.065214 
L 278.913352 148.880796 
L 279.33608 150.087824 
L 279.758807 149.006153 
L 280.181534 149.041311 
L 280.604261 149.919469 
L 281.026989 151.783883 
L 281.872443 148.51746 
L 282.29517 140.383069 
L 282.717898 134.645392 
L 283.140625 135.276076 
L 283.563352 134.09476 
L 283.98608 134.924173 
L 284.408807 133.544362 
L 284.831534 133.932559 
L 285.254261 134.109289 
L 285.676989 134.095199 
L 286.099716 136.328853 
L 286.522443 134.045089 
L 287.367898 134.511322 
L 287.790625 134.148292 
L 288.213352 135.46348 
L 288.63608 134.36296 
L 289.058807 134.485788 
L 289.481534 135.062459 
L 289.904261 134.332694 
L 290.326989 135.128299 
L 290.749716 135.192742 
L 291.172443 135.1421 
L 291.59517 135.746995 
L 292.017898 135.76592 
L 292.440625 134.644853 
L 293.28608 135.834232 
L 293.708807 135.00642 
L 294.131534 134.825713 
L 294.554261 135.365509 
L 295.399716 134.665984 
L 296.24517 135.65219 
L 296.667898 135.49727 
L 297.090625 136.349539 
L 297.513352 134.959835 
L 297.93608 134.958175 
L 298.358807 134.353872 
L 299.204261 135.022473 
L 299.626989 135.394189 
L 300.049716 135.446631 
L 300.472443 136.13927 
L 300.89517 134.876512 
L 301.740625 134.657394 
L 303.431534 135.683175 
L 303.854261 135.387909 
L 304.276989 135.432099 
L 305.122443 135.180298 
L 305.54517 135.437722 
L 305.967898 135.041614 
L 306.390625 135.044866 
L 306.813352 134.807891 
L 307.23608 135.656141 
L 308.081534 134.909933 
L 308.504261 134.822788 
L 309.349716 135.070867 
L 309.772443 134.689487 
L 310.19517 135.242155 
L 310.617898 135.182653 
L 311.040625 135.683602 
L 311.463352 134.907999 
L 311.88608 134.970018 
L 312.308807 134.85644 
L 312.731534 135.541425 
L 313.154261 135.28166 
L 313.576989 134.576644 
L 313.999716 134.209949 
L 314.422443 133.348923 
L 315.267898 134.399382 
L 315.690625 134.430051 
L 316.113352 134.006603 
L 317.381534 134.912482 
L 317.804261 134.577112 
L 318.649716 135.02032 
L 319.072443 134.311887 
L 319.49517 134.841699 
L 319.917898 134.919568 
L 320.340625 135.477955 
L 320.763352 134.25946 
L 321.18608 133.663397 
L 322.454261 135.133355 
L 322.876989 134.691464 
L 323.299716 134.711405 
L 323.722443 135.230141 
L 324.14517 134.944728 
L 324.567898 135.026033 
L 324.990625 135.417067 
L 325.413352 134.993303 
L 325.83608 134.923053 
L 326.258807 135.304547 
L 326.681534 134.786339 
L 327.949716 135.906353 
L 328.372443 134.721007 
L 329.217898 135.252268 
L 329.640625 134.442712 
L 330.063352 135.202486 
L 330.48608 135.442336 
L 330.908807 134.903049 
L 331.331534 134.844061 
L 331.754261 134.391304 
L 332.176989 134.455816 
L 332.599716 135.274171 
L 333.022443 135.45648 
L 333.44517 134.804065 
L 333.867898 135.066336 
L 334.290625 134.831295 
L 334.713352 135.661718 
L 335.13608 135.422257 
L 335.558807 134.976805 
L 335.981534 135.405305 
L 336.404261 134.9154 
L 336.826989 135.610838 
L 337.249716 135.51559 
L 338.09517 135.114546 
L 338.517898 135.166521 
L 338.940625 135.492849 
L 339.363352 134.771946 
L 339.78608 135.387025 
L 340.208807 134.93435 
L 341.476989 135.123354 
L 342.322443 134.829573 
L 342.74517 134.747605 
L 343.167898 135.356739 
L 343.590625 135.359237 
L 344.013352 134.904426 
L 344.43608 134.677288 
L 344.858807 135.785722 
L 345.281534 134.709898 
L 345.704261 134.327474 
L 346.549716 135.273006 
L 347.39517 135.139176 
L 347.817898 135.627855 
L 348.663352 134.594411 
L 349.08608 134.781306 
L 349.508807 134.568335 
L 349.931534 135.358105 
L 350.776989 135.176473 
L 352.04517 135.343434 
L 352.467898 135.622416 
L 352.890625 134.996122 
L 353.313352 135.262804 
L 353.73608 135.392035 
L 354.158807 135.181933 
L 355.004261 135.626955 
L 355.426989 134.923887 
L 355.849716 134.696293 
L 356.272443 134.825277 
L 356.69517 135.175126 
L 357.540625 135.64312 
L 357.963352 135.276988 
L 358.38608 135.491512 
L 358.808807 135.541704 
L 359.231534 133.750824 
L 359.654261 133.663888 
L 360.076989 134.543112 
L 360.499716 135.042247 
L 361.34517 134.529599 
L 361.767898 134.443794 
L 362.613352 135.046299 
L 363.03608 134.948074 
L 363.458807 134.735546 
L 363.881534 134.974499 
L 364.304261 135.037229 
L 364.726989 135.281677 
L 365.149716 134.737247 
L 366.417898 135.320018 
L 367.263352 135.026793 
L 367.68608 135.49939 
L 368.108807 134.978501 
L 368.531534 135.472805 
L 368.954261 134.748901 
L 369.376989 135.014456 
L 369.799716 134.697486 
L 370.222443 135.248206 
L 371.490625 135.186156 
L 371.913352 134.966542 
L 372.758807 135.097052 
L 373.604261 135.474882 
L 374.026989 134.790277 
L 374.449716 135.423428 
L 374.872443 135.328451 
L 375.29517 135.526498 
L 375.717898 135.170415 
L 376.563352 135.564687 
L 376.98608 135.511133 
L 377.408807 135.260569 
L 378.676989 135.679882 
L 379.099716 135.989234 
L 379.522443 135.576142 
L 379.94517 134.987874 
L 380.367898 135.329999 
L 380.790625 135.02399 
L 381.213352 134.915781 
L 381.63608 135.19938 
L 382.481534 135.455681 
L 382.904261 135.056328 
L 383.326989 135.725742 
L 383.749716 135.142952 
L 384.172443 135.250148 
L 384.59517 135.539491 
L 385.440625 135.812822 
L 385.863352 135.164145 
L 386.28608 135.49312 
L 387.131534 135.141222 
L 387.554261 135.19345 
L 387.976989 135.383592 
L 389.24517 135.384635 
L 389.667898 135.100931 
L 390.090625 135.106176 
L 390.513352 135.276983 
L 390.93608 135.194826 
L 391.358807 135.478335 
L 392.204261 135.473772 
L 393.049716 135.021349 
L 393.472443 136.147604 
L 393.89517 135.472357 
L 394.317898 135.21415 
L 394.740625 135.343565 
L 395.163352 135.621004 
L 396.008807 135.27714 
L 396.431534 135.379801 
L 396.854261 135.609204 
L 397.276989 135.587211 
L 398.122443 135.319427 
L 398.54517 134.972355 
L 398.967898 135.43259 
L 399.813352 135.357157 
L 400.658807 135.860083 
L 401.081534 134.885291 
L 401.504261 134.75028 
L 401.926989 135.498144 
L 402.772443 134.980658 
L 403.19517 135.06075 
L 404.040625 135.67956 
L 404.463352 135.221313 
L 404.88608 135.355566 
L 405.308807 135.67954 
L 405.731534 135.383578 
L 406.154261 135.661407 
L 406.576989 135.488699 
L 406.999716 135.833352 
L 407.422443 135.536407 
L 407.84517 135.4226 
L 408.267898 135.566478 
L 409.113352 135.438627 
L 409.53608 135.573036 
L 410.381534 134.799634 
L 410.804261 134.830195 
L 411.226989 135.644505 
L 411.649716 135.035708 
L 412.49517 135.734508 
L 413.340625 135.753632 
L 413.763352 135.429688 
L 414.18608 135.600536 
L 414.608807 135.410079 
L 415.031534 134.765791 
L 415.454261 135.684313 
L 415.876989 135.718608 
L 416.299716 135.213705 
L 417.14517 135.80489 
L 417.990625 135.172222 
L 418.413352 135.612471 
L 419.258807 135.150894 
L 419.681534 135.883055 
L 420.526989 136.005441 
L 420.949716 135.024633 
L 421.372443 135.129679 
L 421.79517 135.476753 
L 422.217898 135.207139 
L 422.640625 135.498733 
L 423.063352 135.013924 
L 423.48608 135.423407 
L 424.331534 134.750365 
L 424.754261 135.217433 
L 425.176989 135.400371 
L 426.022443 135.13266 
L 426.44517 135.795262 
L 427.713352 135.180538 
L 428.13608 135.468096 
L 428.558807 135.174631 
L 429.404261 135.272834 
L 430.249716 134.971894 
L 430.672443 135.207934 
L 431.09517 135.28593 
L 431.517898 135.060012 
L 431.940625 135.371854 
L 432.78608 135.254273 
L 433.208807 134.818658 
L 433.631534 135.481158 
L 434.054261 135.52925 
L 434.476989 135.060555 
L 434.899716 135.750257 
L 435.322443 135.486869 
L 435.74517 135.090327 
L 436.167898 135.662326 
L 436.590625 135.517156 
L 437.013352 134.989371 
L 437.43608 135.43116 
L 437.858807 134.838123 
L 438.281534 134.649904 
L 438.704261 135.300751 
L 439.126989 134.933768 
L 439.549716 135.358687 
L 439.972443 135.066199 
L 440.39517 135.335037 
L 440.817898 135.050951 
L 442.08608 135.390709 
L 442.508807 135.822426 
L 442.931534 135.952862 
L 443.354261 135.624338 
L 443.776989 135.610255 
L 444.199716 135.423524 
L 444.622443 134.247237 
L 445.04517 134.871136 
L 445.467898 135.079638 
L 445.890625 135.078143 
L 446.313352 135.829396 
L 447.158807 135.538952 
L 447.581534 135.065113 
L 448.004261 135.020353 
L 448.426989 135.229455 
L 448.849716 135.63446 
L 449.272443 135.064092 
L 449.69517 135.249846 
L 450.117898 134.999915 
L 450.540625 135.461117 
L 450.963352 135.050893 
L 451.38608 134.858032 
L 451.808807 135.310257 
L 452.231534 134.96585 
L 452.654261 135.260655 
L 453.499716 134.994485 
L 453.922443 135.637894 
L 454.767898 135.126461 
L 455.190625 135.095993 
L 455.613352 135.29222 
L 456.03608 134.610798 
L 456.458807 135.391143 
L 456.881534 135.052139 
L 457.726989 135.386257 
L 458.99517 134.76905 
L 459.417898 135.463049 
L 460.263352 135.295454 
L 460.68608 135.508937 
L 461.531534 134.066893 
L 461.954261 132.014513 
L 462.376989 134.72919 
L 462.799716 134.913283 
L 463.222443 134.971935 
L 463.64517 135.318484 
L 464.067898 134.399469 
L 465.33608 134.7221 
L 465.758807 134.426432 
L 466.181534 134.353387 
L 466.604261 134.966274 
L 467.449716 134.823135 
L 467.872443 135.097777 
L 468.717898 135.222661 
L 469.140625 134.907921 
L 469.563352 135.133372 
L 469.98608 134.787104 
L 470.831534 135.293326 
L 471.676989 134.788834 
L 472.099716 134.39011 
L 472.522443 134.533561 
L 472.94517 135.269145 
L 473.367898 134.888641 
L 473.790625 135.227361 
L 474.213352 134.867778 
L 474.63608 135.045628 
L 475.058807 134.462506 
L 475.904261 135.264537 
L 476.749716 134.903744 
L 477.172443 135.306712 
L 478.017898 134.743273 
L 478.440625 135.031264 
L 478.863352 135.146573 
L 479.28608 135.470932 
L 480.131534 135.000084 
L 480.554261 135.130922 
L 480.976989 134.678202 
L 481.399716 135.36608 
L 482.24517 134.806707 
L 482.667898 134.831608 
L 483.93608 135.607083 
L 484.358807 135.232594 
L 485.204261 134.974361 
L 485.626989 135.10826 
L 486.049716 135.483296 
L 486.472443 135.426415 
L 486.89517 135.677208 
L 487.317898 135.164195 
L 487.740625 135.500082 
L 488.163352 135.158922 
L 488.58608 135.496358 
L 489.008807 134.767566 
L 489.431534 135.113808 
L 489.854261 134.849267 
L 490.276989 135.003803 
L 490.699716 134.640708 
L 491.54517 135.050486 
L 491.967898 134.700296 
L 492.390625 134.567118 
L 493.23608 134.781444 
L 493.658807 134.746333 
L 494.081534 135.228049 
L 494.926989 134.474487 
L 495.772443 134.972206 
L 497.463352 134.755031 
L 497.88608 135.717773 
L 498.308807 135.066942 
L 499.154261 134.683627 
L 499.576989 134.969737 
L 499.999716 135.545472 
L 500.422443 135.467532 
L 500.84517 135.532108 
L 501.267898 134.916565 
L 501.690625 135.272387 
L 502.113352 135.123048 
L 502.53608 135.528014 
L 502.958807 135.630345 
L 503.381534 135.04118 
L 503.804261 135.412038 
L 504.649716 135.534561 
L 505.072443 134.929964 
L 505.49517 135.224216 
L 506.340625 135.181871 
L 506.763352 135.823558 
L 507.18608 135.548391 
L 507.608807 134.904695 
L 508.031534 134.612249 
L 508.454261 135.133562 
L 509.299716 135.048915 
L 510.14517 135.439861 
L 510.567898 134.822512 
L 510.990625 135.100161 
L 511.413352 135.730951 
L 511.83608 135.340186 
L 512.258807 135.46119 
L 512.681534 134.945941 
L 513.104261 135.53327 
L 513.526989 135.337737 
L 513.949716 135.581159 
L 514.372443 134.972692 
L 515.217898 135.538315 
L 515.640625 134.801541 
L 516.063352 135.154013 
L 516.48608 135.291815 
L 517.331534 134.949804 
L 518.599716 135.03086 
L 519.022443 135.202733 
L 519.44517 134.840785 
L 519.867898 135.467284 
L 520.290625 135.437993 
L 520.713352 135.587644 
L 521.558807 134.587731 
L 521.981534 135.193846 
L 522.404261 135.08311 
L 522.826989 135.107909 
L 523.249716 135.371883 
L 523.672443 136.906461 
L 524.09517 135.532688 
L 524.517898 135.46888 
L 524.940625 135.144699 
L 525.363352 135.354307 
L 525.78608 135.79131 
L 526.208807 135.439366 
L 526.631534 135.499153 
L 527.054261 135.693293 
L 527.899716 135.515114 
L 528.322443 135.431376 
L 528.74517 135.91829 
L 529.167898 135.196028 
L 529.590625 135.360024 
L 530.013352 135.281298 
L 530.43608 135.820067 
L 530.858807 135.43557 
L 531.281534 135.442911 
L 531.704261 135.27279 
L 532.126989 135.596623 
L 532.549716 135.302343 
L 532.972443 135.211569 
L 533.39517 135.550225 
L 534.240625 135.6943 
L 534.663352 135.439498 
L 535.08608 135.796431 
L 535.508807 135.510124 
L 535.931534 135.795269 
L 536.354261 135.667992 
L 536.776989 135.235211 
L 537.199716 135.091696 
L 537.622443 135.453681 
L 538.04517 135.617883 
L 538.467898 135.597576 
L 538.890625 136.121633 
L 539.313352 135.67691 
L 539.73608 136.020259 
L 540.581534 135.448072 
L 541.004261 135.501106 
L 541.426989 135.257995 
L 541.849716 135.680163 
L 542.272443 135.617284 
L 542.69517 135.399115 
L 543.540625 135.412966 
L 543.963352 135.39649 
L 544.808807 135.751221 
L 545.231534 135.324181 
L 545.654261 135.366954 
L 546.076989 135.77606 
L 546.922443 134.847868 
L 547.34517 135.020729 
L 547.767898 135.34921 
L 549.03608 135.451275 
L 549.458807 135.348721 
L 549.881534 135.68746 
L 550.304261 135.509353 
L 550.726989 135.58459 
L 551.149716 136.047403 
L 551.572443 135.475983 
L 551.99517 136.190254 
L 552.417898 135.335191 
L 552.840625 135.806571 
L 553.263352 135.724509 
L 553.68608 136.059808 
L 554.108807 136.157313 
L 554.531534 135.431337 
L 554.954261 135.48238 
L 555.799716 134.741277 
L 556.222443 135.271293 
L 556.64517 135.377685 
L 557.067898 135.614488 
L 557.490625 135.101578 
L 557.913352 135.381303 
L 558.33608 136.065054 
L 558.758807 135.696313 
L 559.181534 136.006151 
L 559.604261 135.819229 
L 560.026989 135.875517 
L 560.449716 135.475904 
L 560.872443 135.322577 
L 561.717898 135.663463 
L 562.563352 135.033343 
L 562.98608 135.811491 
L 563.408807 136.000591 
L 563.831534 135.832199 
L 564.254261 135.824677 
L 564.676989 136.231847 
L 565.099716 135.639742 
L 565.522443 135.717733 
L 565.94517 134.916587 
L 566.367898 135.452033 
L 566.790625 135.177138 
L 567.213352 135.370016 
L 567.63608 135.052212 
L 568.058807 135.407864 
L 568.481534 135.364073 
L 569.326989 135.714621 
L 569.749716 135.213751 
L 570.172443 135.267586 
L 570.59517 135.491586 
L 571.017898 135.229419 
L 571.440625 135.396167 
L 571.863352 135.144391 
L 572.28608 135.221688 
L 573.131534 135.234057 
L 573.554261 135.231434 
L 573.976989 135.468405 
L 574.399716 135.275677 
L 574.822443 135.427197 
L 575.24517 135.034619 
L 575.667898 135.014133 
L 576.090625 135.256965 
L 576.513352 135.100484 
L 577.781534 135.570266 
L 578.626989 135.063851 
L 579.472443 135.039706 
L 579.89517 135.192843 
L 580.317898 135.107865 
L 580.740625 135.350909 
L 581.163352 135.175598 
L 581.58608 135.210048 
L 582.008807 135.842195 
L 582.431534 135.621969 
L 582.854261 134.981806 
L 583.276989 135.685146 
L 583.699716 135.603171 
L 584.122443 136.013365 
L 584.54517 135.477055 
L 584.967898 135.642277 
L 587.081534 135.240985 
L 587.926989 135.255949 
L 588.772443 135.348317 
L 589.19517 135.603327 
L 589.617898 135.547276 
L 590.040625 135.733172 
L 590.463352 135.590314 
L 590.88608 135.635352 
L 591.308807 136.002629 
L 591.731534 136.12901 
L 592.999716 135.663434 
L 593.422443 135.713949 
L 593.84517 135.465349 
L 594.267898 135.40778 
L 594.690625 135.151544 
L 595.113352 135.464865 
L 595.958807 135.455332 
L 596.381534 135.739929 
L 596.804261 134.846336 
L 597.226989 135.473 
L 597.649716 135.391663 
L 598.072443 135.937896 
L 598.49517 135.866462 
L 598.917898 135.6052 
L 599.340625 134.989872 
L 599.763352 135.05742 
L 600.18608 135.008177 
L 600.608807 135.442213 
L 601.031534 135.145356 
L 601.454261 135.211329 
L 601.876989 135.089368 
L 602.299716 135.343604 
L 602.722443 135.787813 
L 603.14517 135.820384 
L 603.567898 135.495137 
L 603.990625 135.46059 
L 604.413352 134.82145 
L 604.83608 135.068749 
L 605.681534 135.057233 
L 606.104261 135.424869 
L 606.526989 135.265151 
L 606.949716 134.979361 
L 607.372443 135.331638 
L 608.217898 135.258164 
L 608.640625 135.447231 
L 609.063352 135.337321 
L 609.48608 135.422572 
L 609.908807 135.246148 
L 610.331534 135.247261 
L 610.754261 135.022873 
L 611.599716 135.490671 
L 612.022443 135.409419 
L 612.44517 134.991353 
L 613.713352 135.265216 
L 614.13608 135.153468 
L 614.558807 135.347479 
L 615.826989 134.903251 
L 616.249716 135.236547 
L 616.672443 135.155903 
L 617.09517 135.361723 
L 617.517898 135.01773 
L 618.363352 135.319921 
L 618.78608 134.950944 
L 619.631534 135.540562 
L 620.054261 135.47311 
L 620.476989 135.122365 
L 620.899716 135.096061 
L 621.322443 135.502286 
L 621.74517 135.082271 
L 622.167898 135.601828 
L 622.590625 134.866528 
L 623.013352 134.960062 
L 623.43608 134.887206 
L 623.858807 135.230541 
L 624.281534 135.248215 
L 624.704261 135.03755 
L 625.126989 135.056322 
L 625.126989 135.056322 
" clip-path="url(#p0ae6adf4c3)" style="fill: none; stroke: #ff7f0e; stroke-width: 1.5; stroke-linecap: square"/>
   </g>
   <g id="patch_3">
    <path d="M 92.490625 308.63625 
L 92.490625 31.43625 
" style="fill: none; stroke: #000000; stroke-width: 0.8; stroke-linejoin: miter; stroke-linecap: square"/>
   </g>
   <g id="patch_4">
    <path d="M 650.490625 308.63625 
L 650.490625 31.43625 
" style="fill: none; stroke: #000000; stroke-width: 0.8; stroke-linejoin: miter; stroke-linecap: square"/>
   </g>
   <g id="patch_5">
    <path d="M 92.490625 308.63625 
L 650.490625 308.63625 
" style="fill: none; stroke: #000000; stroke-width: 0.8; stroke-linejoin: miter; stroke-linecap: square"/>
   </g>
   <g id="patch_6">
    <path d="M 92.490625 31.43625 
L 650.490625 31.43625 
" style="fill: none; stroke: #000000; stroke-width: 0.8; stroke-linejoin: miter; stroke-linecap: square"/>
   </g>
   <g id="text_14">
    <!-- Generator and Discriminator Loss During Training -->
    <g transform="translate(74.258125 25.43625) scale(0.24 -0.24)">
     <defs>
      <path id="DejaVuSans-47" d="M 3809 666 
L 3809 1919 
L 2778 1919 
L 2778 2438 
L 4434 2438 
L 4434 434 
Q 4069 175 3628 42 
Q 3188 -91 2688 -91 
Q 1594 -91 976 548 
Q 359 1188 359 2328 
Q 359 3472 976 4111 
Q 1594 4750 2688 4750 
Q 3144 4750 3555 4637 
Q 3966 4525 4313 4306 
L 4313 3634 
Q 3963 3931 3569 4081 
Q 3175 4231 2741 4231 
Q 1884 4231 1454 3753 
Q 1025 3275 1025 2328 
Q 1025 1384 1454 906 
Q 1884 428 2741 428 
Q 3075 428 3337 486 
Q 3600 544 3809 666 
z
" transform="scale(0.015625)"/>
      <path id="DejaVuSans-20" transform="scale(0.015625)"/>
      <path id="DejaVuSans-64" d="M 2906 2969 
L 2906 4863 
L 3481 4863 
L 3481 0 
L 2906 0 
L 2906 525 
Q 2725 213 2448 61 
Q 2172 -91 1784 -91 
Q 1150 -91 751 415 
Q 353 922 353 1747 
Q 353 2572 751 3078 
Q 1150 3584 1784 3584 
Q 2172 3584 2448 3432 
Q 2725 3281 2906 2969 
z
M 947 1747 
Q 947 1113 1208 752 
Q 1469 391 1925 391 
Q 2381 391 2643 752 
Q 2906 1113 2906 1747 
Q 2906 2381 2643 2742 
Q 2381 3103 1925 3103 
Q 1469 3103 1208 2742 
Q 947 2381 947 1747 
z
" transform="scale(0.015625)"/>
      <path id="DejaVuSans-44" d="M 1259 4147 
L 1259 519 
L 2022 519 
Q 2988 519 3436 956 
Q 3884 1394 3884 2338 
Q 3884 3275 3436 3711 
Q 2988 4147 2022 4147 
L 1259 4147 
z
M 628 4666 
L 1925 4666 
Q 3281 4666 3915 4102 
Q 4550 3538 4550 2338 
Q 4550 1131 3912 565 
Q 3275 0 1925 0 
L 628 0 
L 628 4666 
z
" transform="scale(0.015625)"/>
      <path id="DejaVuSans-63" d="M 3122 3366 
L 3122 2828 
Q 2878 2963 2633 3030 
Q 2388 3097 2138 3097 
Q 1578 3097 1268 2742 
Q 959 2388 959 1747 
Q 959 1106 1268 751 
Q 1578 397 2138 397 
Q 2388 397 2633 464 
Q 2878 531 3122 666 
L 3122 134 
Q 2881 22 2623 -34 
Q 2366 -91 2075 -91 
Q 1284 -91 818 406 
Q 353 903 353 1747 
Q 353 2603 823 3093 
Q 1294 3584 2113 3584 
Q 2378 3584 2631 3529 
Q 2884 3475 3122 3366 
z
" transform="scale(0.015625)"/>
      <path id="DejaVuSans-6d" d="M 3328 2828 
Q 3544 3216 3844 3400 
Q 4144 3584 4550 3584 
Q 5097 3584 5394 3201 
Q 5691 2819 5691 2113 
L 5691 0 
L 5113 0 
L 5113 2094 
Q 5113 2597 4934 2840 
Q 4756 3084 4391 3084 
Q 3944 3084 3684 2787 
Q 3425 2491 3425 1978 
L 3425 0 
L 2847 0 
L 2847 2094 
Q 2847 2600 2669 2842 
Q 2491 3084 2119 3084 
Q 1678 3084 1418 2786 
Q 1159 2488 1159 1978 
L 1159 0 
L 581 0 
L 581 3500 
L 1159 3500 
L 1159 2956 
Q 1356 3278 1631 3431 
Q 1906 3584 2284 3584 
Q 2666 3584 2933 3390 
Q 3200 3197 3328 2828 
z
" transform="scale(0.015625)"/>
      <path id="DejaVuSans-75" d="M 544 1381 
L 544 3500 
L 1119 3500 
L 1119 1403 
Q 1119 906 1312 657 
Q 1506 409 1894 409 
Q 2359 409 2629 706 
Q 2900 1003 2900 1516 
L 2900 3500 
L 3475 3500 
L 3475 0 
L 2900 0 
L 2900 538 
Q 2691 219 2414 64 
Q 2138 -91 1772 -91 
Q 1169 -91 856 284 
Q 544 659 544 1381 
z
M 1991 3584 
L 1991 3584 
z
" transform="scale(0.015625)"/>
      <path id="DejaVuSans-67" d="M 2906 1791 
Q 2906 2416 2648 2759 
Q 2391 3103 1925 3103 
Q 1463 3103 1205 2759 
Q 947 2416 947 1791 
Q 947 1169 1205 825 
Q 1463 481 1925 481 
Q 2391 481 2648 825 
Q 2906 1169 2906 1791 
z
M 3481 434 
Q 3481 -459 3084 -895 
Q 2688 -1331 1869 -1331 
Q 1566 -1331 1297 -1286 
Q 1028 -1241 775 -1147 
L 775 -588 
Q 1028 -725 1275 -790 
Q 1522 -856 1778 -856 
Q 2344 -856 2625 -561 
Q 2906 -266 2906 331 
L 2906 616 
Q 2728 306 2450 153 
Q 2172 0 1784 0 
Q 1141 0 747 490 
Q 353 981 353 1791 
Q 353 2603 747 3093 
Q 1141 3584 1784 3584 
Q 2172 3584 2450 3431 
Q 2728 3278 2906 2969 
L 2906 3500 
L 3481 3500 
L 3481 434 
z
" transform="scale(0.015625)"/>
      <path id="DejaVuSans-54" d="M -19 4666 
L 3928 4666 
L 3928 4134 
L 2272 4134 
L 2272 0 
L 1638 0 
L 1638 4134 
L -19 4134 
L -19 4666 
z
" transform="scale(0.015625)"/>
     </defs>
     <use xlink:href="#DejaVuSans-47"/>
     <use xlink:href="#DejaVuSans-65" x="77.490234"/>
     <use xlink:href="#DejaVuSans-6e" x="139.013672"/>
     <use xlink:href="#DejaVuSans-65" x="202.392578"/>
     <use xlink:href="#DejaVuSans-72" x="263.916016"/>
     <use xlink:href="#DejaVuSans-61" x="305.029297"/>
     <use xlink:href="#DejaVuSans-74" x="366.308594"/>
     <use xlink:href="#DejaVuSans-6f" x="405.517578"/>
     <use xlink:href="#DejaVuSans-72" x="466.699219"/>
     <use xlink:href="#DejaVuSans-20" x="507.8125"/>
     <use xlink:href="#DejaVuSans-61" x="539.599609"/>
     <use xlink:href="#DejaVuSans-6e" x="600.878906"/>
     <use xlink:href="#DejaVuSans-64" x="664.257812"/>
     <use xlink:href="#DejaVuSans-20" x="727.734375"/>
     <use xlink:href="#DejaVuSans-44" x="759.521484"/>
     <use xlink:href="#DejaVuSans-69" x="836.523438"/>
     <use xlink:href="#DejaVuSans-73" x="864.306641"/>
     <use xlink:href="#DejaVuSans-63" x="916.40625"/>
     <use xlink:href="#DejaVuSans-72" x="971.386719"/>
     <use xlink:href="#DejaVuSans-69" x="1012.5"/>
     <use xlink:href="#DejaVuSans-6d" x="1040.283203"/>
     <use xlink:href="#DejaVuSans-69" x="1137.695312"/>
     <use xlink:href="#DejaVuSans-6e" x="1165.478516"/>
     <use xlink:href="#DejaVuSans-61" x="1228.857422"/>
     <use xlink:href="#DejaVuSans-74" x="1290.136719"/>
     <use xlink:href="#DejaVuSans-6f" x="1329.345703"/>
     <use xlink:href="#DejaVuSans-72" x="1390.527344"/>
     <use xlink:href="#DejaVuSans-20" x="1431.640625"/>
     <use xlink:href="#DejaVuSans-4c" x="1463.427734"/>
     <use xlink:href="#DejaVuSans-6f" x="1517.390625"/>
     <use xlink:href="#DejaVuSans-73" x="1578.572266"/>
     <use xlink:href="#DejaVuSans-73" x="1630.671875"/>
     <use xlink:href="#DejaVuSans-20" x="1682.771484"/>
     <use xlink:href="#DejaVuSans-44" x="1714.558594"/>
     <use xlink:href="#DejaVuSans-75" x="1791.560547"/>
     <use xlink:href="#DejaVuSans-72" x="1854.939453"/>
     <use xlink:href="#DejaVuSans-69" x="1896.052734"/>
     <use xlink:href="#DejaVuSans-6e" x="1923.835938"/>
     <use xlink:href="#DejaVuSans-67" x="1987.214844"/>
     <use xlink:href="#DejaVuSans-20" x="2050.691406"/>
     <use xlink:href="#DejaVuSans-54" x="2082.478516"/>
     <use xlink:href="#DejaVuSans-72" x="2128.8125"/>
     <use xlink:href="#DejaVuSans-61" x="2169.925781"/>
     <use xlink:href="#DejaVuSans-69" x="2231.205078"/>
     <use xlink:href="#DejaVuSans-6e" x="2258.988281"/>
     <use xlink:href="#DejaVuSans-69" x="2322.367188"/>
     <use xlink:href="#DejaVuSans-6e" x="2350.150391"/>
     <use xlink:href="#DejaVuSans-67" x="2413.529297"/>
    </g>
   </g>
   <g id="legend_1">
    <g id="patch_7">
     <path d="M 556.99375 106.14875 
L 636.490625 106.14875 
Q 640.490625 106.14875 640.490625 102.14875 
L 640.490625 45.43625 
Q 640.490625 41.43625 636.490625 41.43625 
L 556.99375 41.43625 
Q 552.99375 41.43625 552.99375 45.43625 
L 552.99375 102.14875 
Q 552.99375 106.14875 556.99375 106.14875 
z
" style="fill: #ffffff; opacity: 0.8; stroke: #cccccc; stroke-linejoin: miter"/>
    </g>
    <g id="line2d_14">
     <path d="M 560.99375 57.633125 
L 580.99375 57.633125 
L 600.99375 57.633125 
" style="fill: none; stroke: #1f77b4; stroke-width: 1.5; stroke-linecap: square"/>
    </g>
    <g id="text_15">
     <!-- G -->
     <g transform="translate(616.99375 64.633125) scale(0.2 -0.2)">
      <use xlink:href="#DejaVuSans-47"/>
     </g>
    </g>
    <g id="line2d_15">
     <path d="M 560.99375 86.989375 
L 580.99375 86.989375 
L 600.99375 86.989375 
" style="fill: none; stroke: #ff7f0e; stroke-width: 1.5; stroke-linecap: square"/>
    </g>
    <g id="text_16">
     <!-- D -->
     <g transform="translate(616.99375 93.989375) scale(0.2 -0.2)">
      <use xlink:href="#DejaVuSans-44"/>
     </g>
    </g>
   </g>
  </g>
 </g>
 <defs>
  <clipPath id="p0ae6adf4c3">
   <rect x="92.490625" y="31.43625" width="558" height="277.2"/>
  </clipPath>
 </defs>
</svg>
