<?xml version="1.0" encoding="utf-8" standalone="no"?>
<!DOCTYPE svg PUBLIC "-//W3C//DTD SVG 1.1//EN"
  "http://www.w3.org/Graphics/SVG/1.1/DTD/svg11.dtd">
<svg xmlns:xlink="http://www.w3.org/1999/xlink" width="675.923125pt" height="365.54875pt" viewBox="0 0 675.923125 365.54875" xmlns="http://www.w3.org/2000/svg" version="1.1">
 <metadata>
  <rdf:RDF xmlns:dc="http://purl.org/dc/elements/1.1/" xmlns:cc="http://creativecommons.org/ns#" xmlns:rdf="http://www.w3.org/1999/02/22-rdf-syntax-ns#">
   <cc:Work>
    <dc:type rdf:resource="http://purl.org/dc/dcmitype/StillImage"/>
    <dc:date>2024-02-02T00:55:00.775946</dc:date>
    <dc:format>image/svg+xml</dc:format>
    <dc:creator>
     <cc:Agent>
      <dc:title>Matplotlib v3.7.2, https://matplotlib.org/</dc:title>
     </cc:Agent>
    </dc:creator>
   </cc:Work>
  </rdf:RDF>
 </metadata>
 <defs>
  <style type="text/css">*{stroke-linejoin: round; stroke-linecap: butt}</style>
 </defs>
 <g id="figure_1">
  <g id="patch_1">
   <path d="M 0 365.54875 
L 675.923125 365.54875 
L 675.923125 -0 
L 0 -0 
z
" style="fill: #ffffff"/>
  </g>
  <g id="axes_1">
   <g id="patch_2">
    <path d="M 92.490625 308.63625 
L 650.490625 308.63625 
L 650.490625 31.43625 
L 92.490625 31.43625 
z
" style="fill: #ffffff"/>
   </g>
   <g id="matplotlib.axis_1">
    <g id="xtick_1">
     <g id="line2d_1">
      <defs>
       <path id="m9a4aef0aaa" d="M 0 0 
L 0 3.5 
" style="stroke: #000000; stroke-width: 0.8"/>
      </defs>
      <g>
       <use xlink:href="#m9a4aef0aaa" x="117.854261" y="308.63625" style="stroke: #000000; stroke-width: 0.8"/>
      </g>
     </g>
     <g id="text_1">
      <!-- 0 -->
      <g transform="translate(111.491761 330.833125) scale(0.2 -0.2)">
       <defs>
        <path id="DejaVuSans-30" d="M 2034 4250 
Q 1547 4250 1301 3770 
Q 1056 3291 1056 2328 
Q 1056 1369 1301 889 
Q 1547 409 2034 409 
Q 2525 409 2770 889 
Q 3016 1369 3016 2328 
Q 3016 3291 2770 3770 
Q 2525 4250 2034 4250 
z
M 2034 4750 
Q 2819 4750 3233 4129 
Q 3647 3509 3647 2328 
Q 3647 1150 3233 529 
Q 2819 -91 2034 -91 
Q 1250 -91 836 529 
Q 422 1150 422 2328 
Q 422 3509 836 4129 
Q 1250 4750 2034 4750 
z
" transform="scale(0.015625)"/>
       </defs>
       <use xlink:href="#DejaVuSans-30"/>
      </g>
     </g>
    </g>
    <g id="xtick_2">
     <g id="line2d_2">
      <g>
       <use xlink:href="#m9a4aef0aaa" x="219.308807" y="308.63625" style="stroke: #000000; stroke-width: 0.8"/>
      </g>
     </g>
     <g id="text_2">
      <!-- 200 -->
      <g transform="translate(200.221307 330.833125) scale(0.2 -0.2)">
       <defs>
        <path id="DejaVuSans-32" d="M 1228 531 
L 3431 531 
L 3431 0 
L 469 0 
L 469 531 
Q 828 903 1448 1529 
Q 2069 2156 2228 2338 
Q 2531 2678 2651 2914 
Q 2772 3150 2772 3378 
Q 2772 3750 2511 3984 
Q 2250 4219 1831 4219 
Q 1534 4219 1204 4116 
Q 875 4013 500 3803 
L 500 4441 
Q 881 4594 1212 4672 
Q 1544 4750 1819 4750 
Q 2544 4750 2975 4387 
Q 3406 4025 3406 3419 
Q 3406 3131 3298 2873 
Q 3191 2616 2906 2266 
Q 2828 2175 2409 1742 
Q 1991 1309 1228 531 
z
" transform="scale(0.015625)"/>
       </defs>
       <use xlink:href="#DejaVuSans-32"/>
       <use xlink:href="#DejaVuSans-30" x="63.623047"/>
       <use xlink:href="#DejaVuSans-30" x="127.246094"/>
      </g>
     </g>
    </g>
    <g id="xtick_3">
     <g id="line2d_3">
      <g>
       <use xlink:href="#m9a4aef0aaa" x="320.763352" y="308.63625" style="stroke: #000000; stroke-width: 0.8"/>
      </g>
     </g>
     <g id="text_3">
      <!-- 400 -->
      <g transform="translate(301.675852 330.833125) scale(0.2 -0.2)">
       <defs>
        <path id="DejaVuSans-34" d="M 2419 4116 
L 825 1625 
L 2419 1625 
L 2419 4116 
z
M 2253 4666 
L 3047 4666 
L 3047 1625 
L 3713 1625 
L 3713 1100 
L 3047 1100 
L 3047 0 
L 2419 0 
L 2419 1100 
L 313 1100 
L 313 1709 
L 2253 4666 
z
" transform="scale(0.015625)"/>
       </defs>
       <use xlink:href="#DejaVuSans-34"/>
       <use xlink:href="#DejaVuSans-30" x="63.623047"/>
       <use xlink:href="#DejaVuSans-30" x="127.246094"/>
      </g>
     </g>
    </g>
    <g id="xtick_4">
     <g id="line2d_4">
      <g>
       <use xlink:href="#m9a4aef0aaa" x="422.217898" y="308.63625" style="stroke: #000000; stroke-width: 0.8"/>
      </g>
     </g>
     <g id="text_4">
      <!-- 600 -->
      <g transform="translate(403.130398 330.833125) scale(0.2 -0.2)">
       <defs>
        <path id="DejaVuSans-36" d="M 2113 2584 
Q 1688 2584 1439 2293 
Q 1191 2003 1191 1497 
Q 1191 994 1439 701 
Q 1688 409 2113 409 
Q 2538 409 2786 701 
Q 3034 994 3034 1497 
Q 3034 2003 2786 2293 
Q 2538 2584 2113 2584 
z
M 3366 4563 
L 3366 3988 
Q 3128 4100 2886 4159 
Q 2644 4219 2406 4219 
Q 1781 4219 1451 3797 
Q 1122 3375 1075 2522 
Q 1259 2794 1537 2939 
Q 1816 3084 2150 3084 
Q 2853 3084 3261 2657 
Q 3669 2231 3669 1497 
Q 3669 778 3244 343 
Q 2819 -91 2113 -91 
Q 1303 -91 875 529 
Q 447 1150 447 2328 
Q 447 3434 972 4092 
Q 1497 4750 2381 4750 
Q 2619 4750 2861 4703 
Q 3103 4656 3366 4563 
z
" transform="scale(0.015625)"/>
       </defs>
       <use xlink:href="#DejaVuSans-36"/>
       <use xlink:href="#DejaVuSans-30" x="63.623047"/>
       <use xlink:href="#DejaVuSans-30" x="127.246094"/>
      </g>
     </g>
    </g>
    <g id="xtick_5">
     <g id="line2d_5">
      <g>
       <use xlink:href="#m9a4aef0aaa" x="523.672443" y="308.63625" style="stroke: #000000; stroke-width: 0.8"/>
      </g>
     </g>
     <g id="text_5">
      <!-- 800 -->
      <g transform="translate(504.584943 330.833125) scale(0.2 -0.2)">
       <defs>
        <path id="DejaVuSans-38" d="M 2034 2216 
Q 1584 2216 1326 1975 
Q 1069 1734 1069 1313 
Q 1069 891 1326 650 
Q 1584 409 2034 409 
Q 2484 409 2743 651 
Q 3003 894 3003 1313 
Q 3003 1734 2745 1975 
Q 2488 2216 2034 2216 
z
M 1403 2484 
Q 997 2584 770 2862 
Q 544 3141 544 3541 
Q 544 4100 942 4425 
Q 1341 4750 2034 4750 
Q 2731 4750 3128 4425 
Q 3525 4100 3525 3541 
Q 3525 3141 3298 2862 
Q 3072 2584 2669 2484 
Q 3125 2378 3379 2068 
Q 3634 1759 3634 1313 
Q 3634 634 3220 271 
Q 2806 -91 2034 -91 
Q 1263 -91 848 271 
Q 434 634 434 1313 
Q 434 1759 690 2068 
Q 947 2378 1403 2484 
z
M 1172 3481 
Q 1172 3119 1398 2916 
Q 1625 2713 2034 2713 
Q 2441 2713 2670 2916 
Q 2900 3119 2900 3481 
Q 2900 3844 2670 4047 
Q 2441 4250 2034 4250 
Q 1625 4250 1398 4047 
Q 1172 3844 1172 3481 
z
" transform="scale(0.015625)"/>
       </defs>
       <use xlink:href="#DejaVuSans-38"/>
       <use xlink:href="#DejaVuSans-30" x="63.623047"/>
       <use xlink:href="#DejaVuSans-30" x="127.246094"/>
      </g>
     </g>
    </g>
    <g id="xtick_6">
     <g id="line2d_6">
      <g>
       <use xlink:href="#m9a4aef0aaa" x="625.126989" y="308.63625" style="stroke: #000000; stroke-width: 0.8"/>
      </g>
     </g>
     <g id="text_6">
      <!-- 1000 -->
      <g transform="translate(599.676989 330.833125) scale(0.2 -0.2)">
       <defs>
        <path id="DejaVuSans-31" d="M 794 531 
L 1825 531 
L 1825 4091 
L 703 3866 
L 703 4441 
L 1819 4666 
L 2450 4666 
L 2450 531 
L 3481 531 
L 3481 0 
L 794 0 
L 794 531 
z
" transform="scale(0.015625)"/>
       </defs>
       <use xlink:href="#DejaVuSans-31"/>
       <use xlink:href="#DejaVuSans-30" x="63.623047"/>
       <use xlink:href="#DejaVuSans-30" x="127.246094"/>
       <use xlink:href="#DejaVuSans-30" x="190.869141"/>
      </g>
     </g>
    </g>
    <g id="text_7">
     <!-- iterations -->
     <g transform="translate(324.035938 354.189375) scale(0.2 -0.2)">
      <defs>
       <path id="DejaVuSans-69" d="M 603 3500 
L 1178 3500 
L 1178 0 
L 603 0 
L 603 3500 
z
M 603 4863 
L 1178 4863 
L 1178 4134 
L 603 4134 
L 603 4863 
z
" transform="scale(0.015625)"/>
       <path id="DejaVuSans-74" d="M 1172 4494 
L 1172 3500 
L 2356 3500 
L 2356 3053 
L 1172 3053 
L 1172 1153 
Q 1172 725 1289 603 
Q 1406 481 1766 481 
L 2356 481 
L 2356 0 
L 1766 0 
Q 1100 0 847 248 
Q 594 497 594 1153 
L 594 3053 
L 172 3053 
L 172 3500 
L 594 3500 
L 594 4494 
L 1172 4494 
z
" transform="scale(0.015625)"/>
       <path id="DejaVuSans-65" d="M 3597 1894 
L 3597 1613 
L 953 1613 
Q 991 1019 1311 708 
Q 1631 397 2203 397 
Q 2534 397 2845 478 
Q 3156 559 3463 722 
L 3463 178 
Q 3153 47 2828 -22 
Q 2503 -91 2169 -91 
Q 1331 -91 842 396 
Q 353 884 353 1716 
Q 353 2575 817 3079 
Q 1281 3584 2069 3584 
Q 2775 3584 3186 3129 
Q 3597 2675 3597 1894 
z
M 3022 2063 
Q 3016 2534 2758 2815 
Q 2500 3097 2075 3097 
Q 1594 3097 1305 2825 
Q 1016 2553 972 2059 
L 3022 2063 
z
" transform="scale(0.015625)"/>
       <path id="DejaVuSans-72" d="M 2631 2963 
Q 2534 3019 2420 3045 
Q 2306 3072 2169 3072 
Q 1681 3072 1420 2755 
Q 1159 2438 1159 1844 
L 1159 0 
L 581 0 
L 581 3500 
L 1159 3500 
L 1159 2956 
Q 1341 3275 1631 3429 
Q 1922 3584 2338 3584 
Q 2397 3584 2469 3576 
Q 2541 3569 2628 3553 
L 2631 2963 
z
" transform="scale(0.015625)"/>
       <path id="DejaVuSans-61" d="M 2194 1759 
Q 1497 1759 1228 1600 
Q 959 1441 959 1056 
Q 959 750 1161 570 
Q 1363 391 1709 391 
Q 2188 391 2477 730 
Q 2766 1069 2766 1631 
L 2766 1759 
L 2194 1759 
z
M 3341 1997 
L 3341 0 
L 2766 0 
L 2766 531 
Q 2569 213 2275 61 
Q 1981 -91 1556 -91 
Q 1019 -91 701 211 
Q 384 513 384 1019 
Q 384 1609 779 1909 
Q 1175 2209 1959 2209 
L 2766 2209 
L 2766 2266 
Q 2766 2663 2505 2880 
Q 2244 3097 1772 3097 
Q 1472 3097 1187 3025 
Q 903 2953 641 2809 
L 641 3341 
Q 956 3463 1253 3523 
Q 1550 3584 1831 3584 
Q 2591 3584 2966 3190 
Q 3341 2797 3341 1997 
z
" transform="scale(0.015625)"/>
       <path id="DejaVuSans-6f" d="M 1959 3097 
Q 1497 3097 1228 2736 
Q 959 2375 959 1747 
Q 959 1119 1226 758 
Q 1494 397 1959 397 
Q 2419 397 2687 759 
Q 2956 1122 2956 1747 
Q 2956 2369 2687 2733 
Q 2419 3097 1959 3097 
z
M 1959 3584 
Q 2709 3584 3137 3096 
Q 3566 2609 3566 1747 
Q 3566 888 3137 398 
Q 2709 -91 1959 -91 
Q 1206 -91 779 398 
Q 353 888 353 1747 
Q 353 2609 779 3096 
Q 1206 3584 1959 3584 
z
" transform="scale(0.015625)"/>
       <path id="DejaVuSans-6e" d="M 3513 2113 
L 3513 0 
L 2938 0 
L 2938 2094 
Q 2938 2591 2744 2837 
Q 2550 3084 2163 3084 
Q 1697 3084 1428 2787 
Q 1159 2491 1159 1978 
L 1159 0 
L 581 0 
L 581 3500 
L 1159 3500 
L 1159 2956 
Q 1366 3272 1645 3428 
Q 1925 3584 2291 3584 
Q 2894 3584 3203 3211 
Q 3513 2838 3513 2113 
z
" transform="scale(0.015625)"/>
       <path id="DejaVuSans-73" d="M 2834 3397 
L 2834 2853 
Q 2591 2978 2328 3040 
Q 2066 3103 1784 3103 
Q 1356 3103 1142 2972 
Q 928 2841 928 2578 
Q 928 2378 1081 2264 
Q 1234 2150 1697 2047 
L 1894 2003 
Q 2506 1872 2764 1633 
Q 3022 1394 3022 966 
Q 3022 478 2636 193 
Q 2250 -91 1575 -91 
Q 1294 -91 989 -36 
Q 684 19 347 128 
L 347 722 
Q 666 556 975 473 
Q 1284 391 1588 391 
Q 1994 391 2212 530 
Q 2431 669 2431 922 
Q 2431 1156 2273 1281 
Q 2116 1406 1581 1522 
L 1381 1569 
Q 847 1681 609 1914 
Q 372 2147 372 2553 
Q 372 3047 722 3315 
Q 1072 3584 1716 3584 
Q 2034 3584 2315 3537 
Q 2597 3491 2834 3397 
z
" transform="scale(0.015625)"/>
      </defs>
      <use xlink:href="#DejaVuSans-69"/>
      <use xlink:href="#DejaVuSans-74" x="27.783203"/>
      <use xlink:href="#DejaVuSans-65" x="66.992188"/>
      <use xlink:href="#DejaVuSans-72" x="128.515625"/>
      <use xlink:href="#DejaVuSans-61" x="169.628906"/>
      <use xlink:href="#DejaVuSans-74" x="230.908203"/>
      <use xlink:href="#DejaVuSans-69" x="270.117188"/>
      <use xlink:href="#DejaVuSans-6f" x="297.900391"/>
      <use xlink:href="#DejaVuSans-6e" x="359.082031"/>
      <use xlink:href="#DejaVuSans-73" x="422.460938"/>
     </g>
    </g>
   </g>
   <g id="matplotlib.axis_2">
    <g id="ytick_1">
     <g id="line2d_7">
      <defs>
       <path id="mc6a2174720" d="M 0 0 
L -3.5 0 
" style="stroke: #000000; stroke-width: 0.8"/>
      </defs>
      <g>
       <use xlink:href="#mc6a2174720" x="92.490625" y="302.634137" style="stroke: #000000; stroke-width: 0.8"/>
      </g>
     </g>
     <g id="text_8">
      <!-- −400 -->
      <g transform="translate(30.55625 310.232575) scale(0.2 -0.2)">
       <defs>
        <path id="DejaVuSans-2212" d="M 678 2272 
L 4684 2272 
L 4684 1741 
L 678 1741 
L 678 2272 
z
" transform="scale(0.015625)"/>
       </defs>
       <use xlink:href="#DejaVuSans-2212"/>
       <use xlink:href="#DejaVuSans-34" x="83.789062"/>
       <use xlink:href="#DejaVuSans-30" x="147.412109"/>
       <use xlink:href="#DejaVuSans-30" x="211.035156"/>
      </g>
     </g>
    </g>
    <g id="ytick_2">
     <g id="line2d_8">
      <g>
       <use xlink:href="#mc6a2174720" x="92.490625" y="217.204173" style="stroke: #000000; stroke-width: 0.8"/>
      </g>
     </g>
     <g id="text_9">
      <!-- −200 -->
      <g transform="translate(30.55625 224.802611) scale(0.2 -0.2)">
       <use xlink:href="#DejaVuSans-2212"/>
       <use xlink:href="#DejaVuSans-32" x="83.789062"/>
       <use xlink:href="#DejaVuSans-30" x="147.412109"/>
       <use xlink:href="#DejaVuSans-30" x="211.035156"/>
      </g>
     </g>
    </g>
    <g id="ytick_3">
     <g id="line2d_9">
      <g>
       <use xlink:href="#mc6a2174720" x="92.490625" y="131.77421" style="stroke: #000000; stroke-width: 0.8"/>
      </g>
     </g>
     <g id="text_10">
      <!-- 0 -->
      <g transform="translate(72.765625 139.372647) scale(0.2 -0.2)">
       <use xlink:href="#DejaVuSans-30"/>
      </g>
     </g>
    </g>
    <g id="ytick_4">
     <g id="line2d_10">
      <g>
       <use xlink:href="#mc6a2174720" x="92.490625" y="46.344246" style="stroke: #000000; stroke-width: 0.8"/>
      </g>
     </g>
     <g id="text_11">
      <!-- 200 -->
      <g transform="translate(47.315625 53.942683) scale(0.2 -0.2)">
       <use xlink:href="#DejaVuSans-32"/>
       <use xlink:href="#DejaVuSans-30" x="63.623047"/>
       <use xlink:href="#DejaVuSans-30" x="127.246094"/>
      </g>
     </g>
    </g>
    <g id="text_12">
     <!-- Loss -->
     <g transform="translate(22.396875 191.970625) rotate(-90) scale(0.2 -0.2)">
      <defs>
       <path id="DejaVuSans-4c" d="M 628 4666 
L 1259 4666 
L 1259 531 
L 3531 531 
L 3531 0 
L 628 0 
L 628 4666 
z
" transform="scale(0.015625)"/>
      </defs>
      <use xlink:href="#DejaVuSans-4c"/>
      <use xlink:href="#DejaVuSans-6f" x="53.962891"/>
      <use xlink:href="#DejaVuSans-73" x="115.144531"/>
      <use xlink:href="#DejaVuSans-73" x="167.244141"/>
     </g>
    </g>
   </g>
   <g id="line2d_11">
    <path d="M 117.854261 106.2005 
L 118.361534 95.293269 
L 118.868807 103.012934 
L 119.37608 83.802116 
L 119.883352 71.07048 
L 120.390625 44.03625 
L 120.897898 48.202048 
L 121.40517 79.082405 
L 121.912443 79.801139 
L 122.419716 95.039151 
L 122.926989 99.383912 
L 123.434261 110.005204 
L 123.941534 115.933238 
L 124.448807 123.921766 
L 124.95608 136.222671 
L 125.463352 131.011891 
L 125.970625 139.741022 
L 126.477898 146.066312 
L 126.98517 129.711857 
L 127.492443 135.776002 
L 127.999716 128.840387 
L 128.506989 145.744362 
L 129.014261 150.965648 
L 129.521534 141.047725 
L 130.028807 144.709483 
L 130.53608 146.730342 
L 131.043352 143.90278 
L 131.550625 148.88913 
L 132.057898 149.976643 
L 132.56517 151.914943 
L 133.072443 150.461138 
L 133.579716 156.209315 
L 134.086989 153.818163 
L 134.594261 152.769792 
L 135.101534 154.957248 
L 136.11608 148.919835 
L 136.623352 152.450257 
L 137.130625 149.30327 
L 137.637898 147.780732 
L 138.14517 148.375357 
L 138.652443 146.50394 
L 139.159716 148.745232 
L 139.666989 148.044137 
L 140.174261 150.657455 
L 140.681534 150.931957 
L 141.188807 148.202109 
L 141.69608 149.697081 
L 142.203352 148.719548 
L 142.710625 151.590814 
L 143.217898 149.238312 
L 143.72517 148.782451 
L 144.232443 146.91656 
L 144.739716 152.215016 
L 145.246989 147.648837 
L 145.754261 149.753192 
L 146.261534 147.694581 
L 146.768807 144.79521 
L 147.27608 145.921815 
L 147.783352 147.614704 
L 148.290625 147.130159 
L 148.797898 147.865317 
L 149.30517 146.770889 
L 149.812443 147.150497 
L 150.319716 146.202236 
L 150.826989 146.632383 
L 151.334261 147.881774 
L 151.841534 147.072561 
L 152.348807 147.95157 
L 152.85608 147.692356 
L 153.363352 147.157453 
L 153.870625 148.781308 
L 154.377898 148.414371 
L 155.392443 144.450993 
L 156.406989 143.911113 
L 156.914261 143.957386 
L 157.421534 142.36949 
L 157.928807 145.188605 
L 158.43608 146.418944 
L 158.943352 145.376387 
L 159.450625 143.943596 
L 159.957898 142.843895 
L 160.46517 142.253463 
L 160.972443 142.717522 
L 161.479716 142.44384 
L 161.986989 142.872071 
L 162.494261 142.730961 
L 163.001534 143.888077 
L 163.508807 144.001604 
L 164.01608 142.574551 
L 164.523352 142.306426 
L 165.030625 142.937759 
L 165.537898 142.457902 
L 166.04517 143.531894 
L 166.552443 141.851198 
L 167.059716 144.015207 
L 168.074261 145.176547 
L 168.581534 147.614982 
L 169.088807 147.263937 
L 169.59608 144.073517 
L 170.103352 143.507762 
L 170.610625 144.077467 
L 171.117898 142.151502 
L 171.62517 141.557044 
L 172.132443 144.416611 
L 172.639716 145.316282 
L 173.146989 142.868472 
L 173.654261 144.028237 
L 174.161534 142.228375 
L 174.668807 142.014184 
L 175.17608 141.589126 
L 175.683352 141.571197 
L 176.190625 141.310832 
L 176.697898 140.917898 
L 177.20517 140.346577 
L 177.712443 140.861824 
L 178.219716 140.111764 
L 178.726989 138.192451 
L 179.234261 138.269277 
L 179.741534 138.718045 
L 180.248807 140.156663 
L 180.75608 138.766498 
L 181.263352 138.279705 
L 181.770625 139.323794 
L 182.277898 139.525302 
L 182.78517 139.180249 
L 183.292443 140.239676 
L 183.799716 141.858362 
L 184.306989 138.938448 
L 184.814261 139.449096 
L 185.321534 140.336515 
L 185.828807 142.371394 
L 186.33608 139.956244 
L 186.843352 140.734341 
L 187.350625 139.937076 
L 187.857898 139.804026 
L 188.36517 138.205218 
L 188.872443 139.587032 
L 189.379716 140.46733 
L 189.886989 141.119228 
L 190.394261 139.052084 
L 190.901534 139.736506 
L 191.408807 141.329343 
L 191.91608 140.279518 
L 192.423352 140.313563 
L 192.930625 139.700591 
L 193.437898 139.85989 
L 193.94517 139.097869 
L 194.959716 141.702979 
L 195.466989 140.54567 
L 195.974261 140.869427 
L 196.481534 142.201998 
L 196.988807 140.897605 
L 197.49608 141.391703 
L 198.510625 138.737702 
L 199.52517 142.102561 
L 200.032443 141.988356 
L 200.539716 142.147197 
L 201.046989 143.574172 
L 201.554261 140.636832 
L 202.061534 142.174733 
L 202.568807 143.175611 
L 203.07608 142.2773 
L 203.583352 141.613602 
L 204.090625 140.19156 
L 204.597898 142.75052 
L 205.10517 142.302067 
L 205.612443 143.746324 
L 206.119716 144.672228 
L 206.626989 143.788992 
L 207.134261 143.74112 
L 207.641534 142.406016 
L 208.148807 142.586782 
L 208.65608 144.512704 
L 209.163352 144.272991 
L 209.670625 143.769912 
L 210.177898 142.060514 
L 210.68517 141.58127 
L 211.192443 142.216679 
L 211.699716 140.461817 
L 212.206989 140.28079 
L 212.714261 144.05529 
L 213.221534 141.60604 
L 213.728807 142.299131 
L 214.23608 142.238929 
L 215.250625 141.520141 
L 215.757898 141.800176 
L 216.26517 141.370555 
L 216.772443 142.011928 
L 217.279716 141.833753 
L 217.786989 141.437759 
L 218.294261 141.943321 
L 218.801534 140.528882 
L 219.308807 140.208809 
L 219.81608 140.703162 
L 220.323352 141.554831 
L 220.830625 141.715784 
L 221.337898 140.065541 
L 221.84517 141.359576 
L 222.352443 142.10316 
L 222.859716 141.443143 
L 223.366989 141.179998 
L 223.874261 141.369596 
L 224.381534 141.233448 
L 224.888807 141.781948 
L 225.39608 141.728105 
L 225.903352 140.068284 
L 226.410625 139.740699 
L 226.917898 139.729665 
L 227.42517 140.554805 
L 227.932443 139.720235 
L 228.439716 142.083062 
L 228.946989 142.270694 
L 229.454261 141.359614 
L 229.961534 141.262846 
L 230.468807 140.203036 
L 230.97608 139.631234 
L 231.483352 140.828401 
L 231.990625 140.658546 
L 232.497898 139.660707 
L 233.00517 141.033843 
L 233.512443 140.479054 
L 234.019716 138.908645 
L 235.034261 143.175718 
L 235.541534 140.912469 
L 236.048807 142.693637 
L 236.55608 141.13301 
L 237.063352 141.298107 
L 237.570625 141.917444 
L 238.58517 140.397574 
L 239.092443 139.672439 
L 239.599716 140.568505 
L 240.106989 141.72895 
L 240.614261 141.955635 
L 241.121534 139.66056 
L 241.628807 141.115863 
L 242.643352 141.90842 
L 243.657898 141.271928 
L 244.16517 141.304225 
L 244.672443 140.883772 
L 245.179716 139.900049 
L 245.686989 141.93954 
L 246.194261 141.38107 
L 246.701534 141.043629 
L 247.208807 141.257252 
L 247.71608 141.861299 
L 248.223352 141.081762 
L 248.730625 141.623368 
L 249.237898 143.065076 
L 249.74517 142.508555 
L 250.252443 142.223836 
L 251.266989 140.742288 
L 251.774261 141.250351 
L 252.281534 139.881919 
L 252.788807 140.100562 
L 253.803352 139.564669 
L 254.310625 141.857634 
L 254.817898 138.77274 
L 255.32517 140.420332 
L 255.832443 140.256908 
L 256.339716 140.257608 
L 256.846989 140.809362 
L 257.861534 139.187185 
L 258.368807 139.360426 
L 258.87608 140.556467 
L 259.383352 141.113111 
L 259.890625 140.86058 
L 260.397898 140.209854 
L 260.90517 141.105996 
L 261.412443 142.337483 
L 261.919716 140.07311 
L 262.426989 140.602043 
L 262.934261 140.125384 
L 263.441534 140.266199 
L 263.948807 139.772343 
L 264.45608 140.821142 
L 264.963352 141.145302 
L 265.977898 139.141903 
L 266.48517 138.844941 
L 266.992443 140.093781 
L 267.499716 140.315587 
L 268.006989 137.059576 
L 268.514261 135.341227 
L 269.021534 136.917032 
L 269.528807 138.125529 
L 270.03608 140.60994 
L 270.543352 140.872107 
L 271.050625 138.13094 
L 271.557898 140.283064 
L 272.06517 140.683787 
L 272.572443 139.987451 
L 273.079716 141.833527 
L 274.094261 140.417825 
L 274.601534 141.311646 
L 275.108807 139.75019 
L 275.61608 139.840337 
L 276.123352 139.798123 
L 276.630625 139.948652 
L 277.137898 140.219814 
L 277.64517 140.689288 
L 278.152443 139.985053 
L 278.659716 140.275247 
L 279.166989 141.752186 
L 279.674261 140.095416 
L 280.181534 141.105599 
L 280.688807 143.034492 
L 281.19608 141.114813 
L 281.703352 140.737658 
L 282.210625 139.765443 
L 282.717898 139.957015 
L 283.22517 140.337908 
L 283.732443 139.574103 
L 284.239716 141.082953 
L 284.746989 141.206726 
L 285.254261 140.915457 
L 285.761534 142.191172 
L 286.268807 141.336998 
L 286.77608 139.692628 
L 287.283352 141.000938 
L 287.790625 140.909394 
L 288.297898 141.552779 
L 288.80517 141.729933 
L 289.312443 141.491486 
L 289.819716 142.667296 
L 290.326989 143.194822 
L 290.834261 144.093051 
L 291.341534 143.682404 
L 291.848807 142.500327 
L 292.35608 141.641717 
L 292.863352 141.820165 
L 293.370625 142.997563 
L 293.877898 141.298489 
L 294.38517 141.845926 
L 294.892443 141.503955 
L 295.399716 141.585354 
L 295.906989 140.514449 
L 296.414261 141.485577 
L 296.921534 140.997126 
L 297.428807 140.769428 
L 298.443352 141.735172 
L 298.950625 140.479324 
L 299.457898 141.269145 
L 299.96517 141.301165 
L 300.472443 141.925125 
L 300.979716 141.219729 
L 301.994261 141.096262 
L 302.501534 140.000626 
L 303.51608 139.960953 
L 304.530625 140.42143 
L 305.037898 140.187129 
L 305.54517 140.646585 
L 306.052443 139.810883 
L 307.066989 141.080838 
L 307.574261 140.892541 
L 308.081534 140.117579 
L 308.588807 141.720876 
L 309.09608 142.881143 
L 309.603352 142.215011 
L 310.110625 144.099605 
L 310.617898 142.123466 
L 311.12517 142.008462 
L 311.632443 143.050816 
L 312.139716 143.273704 
L 312.646989 142.733912 
L 313.661534 142.832352 
L 314.168807 143.021904 
L 314.67608 142.349658 
L 315.690625 137.554799 
L 316.197898 138.422193 
L 316.70517 132.055602 
L 317.212443 134.866361 
L 317.719716 134.561206 
L 318.226989 133.41717 
L 318.734261 135.528764 
L 319.241534 136.720811 
L 319.748807 136.13275 
L 320.25608 135.806208 
L 320.763352 136.480411 
L 321.270625 138.091589 
L 321.777898 136.412065 
L 322.28517 137.985223 
L 322.792443 135.259883 
L 323.299716 135.859338 
L 323.806989 138.030001 
L 324.314261 137.059151 
L 324.821534 137.169758 
L 325.83608 137.964406 
L 326.343352 137.214489 
L 326.850625 139.789964 
L 327.357898 137.311494 
L 327.86517 137.75856 
L 328.372443 136.925339 
L 328.879716 138.246034 
L 329.386989 138.538797 
L 330.401534 137.244467 
L 330.908807 137.332561 
L 331.41608 138.162987 
L 331.923352 139.382702 
L 332.430625 139.12165 
L 332.937898 139.495137 
L 333.44517 138.611615 
L 333.952443 139.669447 
L 334.459716 138.210561 
L 334.966989 138.305335 
L 335.474261 138.008384 
L 335.981534 139.328819 
L 336.99608 140.156714 
L 337.503352 138.932544 
L 338.010625 138.754762 
L 338.517898 139.030795 
L 339.02517 138.952323 
L 339.532443 139.121641 
L 340.039716 140.201292 
L 340.546989 139.344131 
L 341.054261 139.197042 
L 341.561534 138.278273 
L 342.068807 138.508022 
L 342.57608 138.928114 
L 343.083352 139.093599 
L 343.590625 137.836699 
L 344.097898 138.794698 
L 344.60517 138.254888 
L 345.112443 138.845994 
L 346.126989 138.481943 
L 346.634261 138.543332 
L 347.141534 139.458534 
L 347.648807 139.400961 
L 348.15608 138.988463 
L 348.663352 139.400857 
L 349.170625 139.620481 
L 349.677898 139.713892 
L 350.18517 138.52745 
L 350.692443 138.883596 
L 351.199716 138.448987 
L 351.706989 138.319017 
L 352.214261 138.571678 
L 352.721534 138.662684 
L 353.228807 137.842678 
L 353.73608 135.218979 
L 354.243352 138.010515 
L 354.750625 138.464266 
L 355.257898 138.319968 
L 355.76517 137.344796 
L 356.272443 138.605089 
L 356.779716 137.813948 
L 357.286989 138.046748 
L 357.794261 137.479783 
L 358.301534 136.591293 
L 358.808807 137.926346 
L 359.31608 137.861248 
L 359.823352 136.996455 
L 360.330625 137.050665 
L 360.837898 138.010305 
L 361.34517 138.448217 
L 361.852443 138.694624 
L 362.359716 138.761858 
L 363.374261 140.097669 
L 363.881534 139.199145 
L 364.388807 137.932704 
L 364.89608 138.902771 
L 365.910625 138.133353 
L 366.417898 138.959948 
L 366.92517 138.016238 
L 367.432443 137.78253 
L 367.939716 137.728585 
L 368.446989 137.35183 
L 368.954261 137.534918 
L 369.461534 137.881135 
L 369.968807 138.773509 
L 370.47608 137.980029 
L 370.983352 138.889815 
L 371.490625 137.860111 
L 371.997898 138.036439 
L 372.50517 138.682241 
L 373.012443 138.314265 
L 373.519716 138.331096 
L 374.026989 137.975421 
L 374.534261 138.03331 
L 375.041534 137.462769 
L 376.05608 137.971204 
L 376.563352 136.936308 
L 377.577898 137.163446 
L 378.08517 136.945668 
L 378.592443 137.695802 
L 379.099716 136.666571 
L 379.606989 137.400428 
L 380.114261 137.865413 
L 380.621534 137.993014 
L 381.128807 137.847084 
L 381.63608 137.570795 
L 382.143352 136.849702 
L 382.650625 136.520589 
L 383.157898 137.561634 
L 383.66517 137.1365 
L 384.172443 138.046185 
L 384.679716 138.348643 
L 385.186989 138.44306 
L 385.694261 139.473834 
L 386.201534 137.994971 
L 386.708807 137.455932 
L 387.21608 138.067411 
L 387.723352 136.619139 
L 388.230625 138.785743 
L 388.737898 139.265789 
L 389.24517 138.050721 
L 389.752443 137.452075 
L 390.259716 137.196439 
L 391.274261 137.461782 
L 391.781534 137.178265 
L 392.288807 137.207842 
L 392.79608 136.974012 
L 393.303352 136.468116 
L 393.810625 137.169727 
L 394.317898 136.737413 
L 394.82517 136.622805 
L 395.332443 136.073681 
L 396.346989 137.120078 
L 396.854261 137.538276 
L 397.361534 136.916957 
L 397.868807 137.634816 
L 398.37608 137.687123 
L 399.390625 137.053208 
L 399.897898 137.171977 
L 400.40517 136.119652 
L 401.419716 137.155649 
L 401.926989 137.444766 
L 402.434261 136.953323 
L 402.941534 137.350013 
L 403.448807 136.734804 
L 403.95608 137.127647 
L 404.463352 137.106146 
L 404.970625 137.874954 
L 405.98517 136.361402 
L 406.999716 136.849697 
L 407.506989 135.735773 
L 408.014261 134.241547 
L 408.521534 136.899911 
L 409.028807 136.342973 
L 409.53608 136.228016 
L 411.56517 136.706342 
L 412.072443 136.869315 
L 412.579716 136.33684 
L 414.101534 137.581438 
L 414.608807 135.582046 
L 415.11608 136.373064 
L 415.623352 137.498191 
L 416.130625 137.813393 
L 416.637898 137.086298 
L 417.14517 137.29387 
L 417.652443 137.108462 
L 418.159716 136.084374 
L 418.666989 136.844782 
L 419.174261 136.988736 
L 419.681534 137.411758 
L 420.188807 136.632939 
L 420.69608 136.106455 
L 421.710625 136.51944 
L 422.217898 135.882837 
L 422.72517 136.073613 
L 423.232443 135.850292 
L 423.739716 136.100725 
L 424.754261 136.108632 
L 425.261534 135.828179 
L 425.768807 136.1602 
L 426.27608 136.707869 
L 426.783352 136.149004 
L 428.30517 136.572805 
L 428.812443 137.021043 
L 429.319716 136.4219 
L 429.826989 136.142106 
L 430.334261 135.461237 
L 430.841534 135.596975 
L 431.348807 136.081031 
L 431.85608 135.256443 
L 432.363352 135.401509 
L 432.870625 135.863794 
L 433.377898 136.049282 
L 434.392443 136.082332 
L 434.899716 135.295614 
L 435.406989 135.666634 
L 436.421534 135.688449 
L 436.928807 136.232149 
L 437.43608 135.877666 
L 437.943352 136.300032 
L 438.450625 136.432592 
L 438.957898 136.122437 
L 439.46517 136.112765 
L 439.972443 135.949342 
L 440.479716 136.170976 
L 440.986989 135.781494 
L 441.494261 135.988328 
L 442.001534 135.614457 
L 442.508807 135.939048 
L 443.01608 136.43697 
L 443.523352 136.129037 
L 444.030625 136.096426 
L 444.537898 135.921403 
L 445.04517 136.329532 
L 445.552443 136.17576 
L 446.059716 135.65699 
L 446.566989 136.279294 
L 447.074261 136.500145 
L 447.581534 135.696272 
L 448.088807 136.36883 
L 448.59608 136.247871 
L 449.103352 136.299498 
L 449.610625 136.488781 
L 450.117898 136.973567 
L 450.62517 136.304268 
L 451.132443 136.330158 
L 451.639716 136.094115 
L 452.146989 136.278516 
L 452.654261 136.655856 
L 453.161534 136.226695 
L 453.668807 135.975214 
L 454.17608 136.062842 
L 454.683352 136.989963 
L 455.190625 136.174814 
L 455.697898 136.352754 
L 456.20517 136.046591 
L 457.219716 136.741842 
L 458.234261 136.308043 
L 459.248807 136.412575 
L 459.75608 136.256258 
L 460.263352 136.243733 
L 460.770625 135.969769 
L 461.277898 136.447005 
L 461.78517 136.228819 
L 462.292443 135.583517 
L 462.799716 136.126575 
L 463.306989 135.437809 
L 463.814261 136.241336 
L 464.321534 136.777977 
L 464.828807 136.650424 
L 465.33608 136.109806 
L 465.843352 135.87718 
L 466.350625 135.464379 
L 466.857898 136.186942 
L 467.36517 135.510729 
L 467.872443 135.690783 
L 468.379716 135.681079 
L 468.886989 135.049192 
L 469.394261 135.842249 
L 469.901534 136.397189 
L 470.408807 136.092844 
L 470.91608 135.618005 
L 471.423352 135.904495 
L 471.930625 135.914915 
L 472.437898 135.682521 
L 472.94517 135.297348 
L 473.452443 135.991756 
L 473.959716 136.358904 
L 474.466989 135.625632 
L 474.974261 135.514374 
L 475.481534 135.661709 
L 475.988807 135.308409 
L 476.49608 135.583512 
L 477.003352 136.138664 
L 477.510625 136.330005 
L 478.017898 135.833166 
L 479.032443 135.626877 
L 479.539716 135.369325 
L 480.046989 135.594507 
L 480.554261 135.559485 
L 481.568807 135.299478 
L 482.583352 135.540724 
L 483.090625 135.716112 
L 483.597898 136.159471 
L 484.10517 135.895603 
L 484.612443 136.000266 
L 486.134261 135.536491 
L 486.641534 135.174508 
L 487.65608 134.961843 
L 488.163352 135.249773 
L 488.670625 134.443571 
L 489.177898 135.162222 
L 489.68517 134.872528 
L 490.192443 135.188241 
L 491.206989 135.232589 
L 491.714261 134.78266 
L 492.221534 135.171865 
L 492.728807 134.797564 
L 493.23608 134.110081 
L 493.743352 134.751011 
L 494.250625 135.20356 
L 494.757898 135.10371 
L 495.26517 135.263638 
L 495.772443 135.543917 
L 496.279716 135.610231 
L 496.786989 135.818764 
L 497.294261 135.561679 
L 497.801534 135.151209 
L 498.308807 135.49031 
L 498.81608 135.618302 
L 499.323352 136.388838 
L 499.830625 136.160422 
L 500.337898 135.495102 
L 501.352443 135.165166 
L 501.859716 135.163086 
L 502.366989 134.98196 
L 502.874261 135.407177 
L 503.381534 135.167381 
L 504.39608 135.336748 
L 504.903352 135.753255 
L 505.410625 135.361153 
L 505.917898 135.841382 
L 506.42517 135.971655 
L 506.932443 135.933876 
L 507.439716 135.721156 
L 507.946989 135.913284 
L 509.468807 134.914567 
L 509.97608 134.84309 
L 510.483352 135.752349 
L 510.990625 135.282003 
L 511.497898 135.302825 
L 512.00517 135.436666 
L 512.512443 135.156597 
L 513.019716 135.590775 
L 514.034261 135.526253 
L 514.541534 134.718205 
L 515.048807 135.268665 
L 515.55608 135.069055 
L 516.063352 134.730947 
L 516.570625 134.875418 
L 517.077898 133.996211 
L 517.58517 134.768028 
L 518.599716 133.88634 
L 519.106989 134.532146 
L 519.614261 134.507239 
L 520.121534 134.882502 
L 521.13608 134.17844 
L 521.643352 134.304131 
L 522.150625 134.899456 
L 523.16517 135.135487 
L 523.672443 134.422653 
L 524.179716 134.3739 
L 524.686989 134.932442 
L 525.194261 134.59162 
L 525.701534 135.018018 
L 526.208807 134.859407 
L 526.71608 134.372028 
L 527.223352 134.899499 
L 527.730625 134.892124 
L 528.237898 134.687151 
L 529.252443 135.223162 
L 529.759716 134.212132 
L 530.774261 133.174699 
L 531.281534 133.272306 
L 532.29608 133.84518 
L 532.803352 134.149704 
L 533.310625 133.969189 
L 534.32517 134.287678 
L 534.832443 134.410299 
L 535.339716 134.200793 
L 535.846989 133.795636 
L 536.354261 134.127718 
L 537.87608 133.721318 
L 538.383352 133.18287 
L 538.890625 133.365968 
L 539.90517 133.367984 
L 540.412443 133.38229 
L 540.919716 133.606401 
L 541.934261 133.69395 
L 542.441534 132.989034 
L 542.948807 133.429298 
L 543.45608 133.03247 
L 543.963352 133.827186 
L 544.470625 133.563869 
L 544.977898 133.63808 
L 545.48517 133.25143 
L 545.992443 133.847816 
L 546.499716 132.81338 
L 547.006989 133.119048 
L 547.514261 133.748302 
L 549.03608 133.723852 
L 549.543352 133.122644 
L 550.050625 133.346298 
L 550.557898 133.318325 
L 551.06517 133.597174 
L 551.572443 134.068784 
L 552.079716 133.79123 
L 552.586989 134.290194 
L 553.094261 133.361079 
L 553.601534 134.101199 
L 554.61608 133.317434 
L 555.123352 133.790218 
L 555.630625 134.098508 
L 556.137898 134.257123 
L 556.64517 133.783905 
L 558.166989 134.286862 
L 558.674261 133.925185 
L 559.688807 133.787017 
L 560.19608 133.22301 
L 560.703352 133.679311 
L 561.210625 133.740258 
L 561.717898 133.578935 
L 562.22517 133.665019 
L 562.732443 133.247009 
L 563.239716 134.248351 
L 564.761534 133.447514 
L 565.268807 133.525427 
L 565.77608 134.057009 
L 566.283352 133.941756 
L 566.790625 134.341268 
L 567.297898 133.498835 
L 567.80517 133.500623 
L 568.312443 133.725678 
L 568.819716 133.744215 
L 569.326989 134.141878 
L 569.834261 134.083056 
L 570.341534 133.577507 
L 570.848807 133.850145 
L 571.35608 133.338157 
L 571.863352 133.756134 
L 572.877898 133.523479 
L 573.892443 133.938458 
L 574.399716 133.672841 
L 574.906989 133.174995 
L 575.414261 133.509287 
L 575.921534 133.589827 
L 576.428807 133.355684 
L 576.93608 133.682031 
L 577.443352 133.348062 
L 577.950625 133.633207 
L 578.457898 133.332448 
L 578.96517 133.269391 
L 579.472443 133.339852 
L 579.979716 134.075909 
L 580.486989 133.296726 
L 580.994261 133.509579 
L 581.501534 134.262304 
L 582.008807 133.874039 
L 582.51608 133.964944 
L 583.023352 133.225443 
L 583.530625 133.731248 
L 584.037898 133.718912 
L 584.54517 133.171953 
L 585.052443 134.114996 
L 585.559716 133.541133 
L 586.066989 133.745587 
L 586.574261 133.639582 
L 587.588807 133.98394 
L 588.09608 133.737046 
L 588.603352 134.383642 
L 589.110625 133.591144 
L 589.617898 134.077746 
L 590.632443 133.462714 
L 591.139716 134.359715 
L 591.646989 133.782084 
L 592.661534 133.624843 
L 593.168807 133.689008 
L 593.67608 133.119809 
L 594.183352 133.45529 
L 594.690625 134.265179 
L 595.197898 133.556367 
L 596.212443 133.959625 
L 596.719716 133.779838 
L 597.226989 133.796177 
L 597.734261 133.629255 
L 598.241534 133.721854 
L 598.748807 134.208296 
L 599.25608 133.824729 
L 600.270625 133.94537 
L 600.777898 134.409898 
L 601.28517 134.413978 
L 601.792443 134.212108 
L 602.299716 134.154598 
L 602.806989 133.633354 
L 603.314261 133.939832 
L 603.821534 133.880872 
L 604.328807 134.137658 
L 604.83608 134.220815 
L 605.343352 133.591722 
L 605.850625 134.118703 
L 606.357898 134.224359 
L 606.86517 133.906639 
L 607.879716 133.821139 
L 608.386989 134.290437 
L 608.894261 133.669888 
L 609.908807 133.800014 
L 610.41608 133.409668 
L 610.923352 133.570721 
L 611.430625 133.29868 
L 611.937898 133.338362 
L 612.952443 132.874629 
L 613.459716 133.554964 
L 614.474261 133.682078 
L 614.981534 133.133137 
L 615.488807 133.447068 
L 615.99608 133.19927 
L 616.503352 133.440321 
L 617.010625 133.989143 
L 617.517898 133.524381 
L 618.02517 133.683299 
L 618.532443 133.321739 
L 619.039716 133.816814 
L 619.546989 133.164358 
L 620.054261 133.524765 
L 620.561534 133.568814 
L 621.068807 132.879766 
L 622.083352 133.432651 
L 622.590625 132.950288 
L 623.097898 132.646281 
L 624.619716 133.272574 
L 625.126989 133.147891 
L 625.126989 133.147891 
" clip-path="url(#pa59493c464)" style="fill: none; stroke: #1f77b4; stroke-width: 1.5; stroke-linecap: square"/>
   </g>
   <g id="line2d_12">
    <path d="M 117.854261 296.03625 
L 118.361534 241.113866 
L 118.868807 203.288765 
L 119.37608 205.049939 
L 119.883352 206.143459 
L 120.390625 203.498942 
L 120.897898 186.685966 
L 121.40517 205.438172 
L 121.912443 185.019453 
L 122.419716 179.820324 
L 122.926989 180.821211 
L 123.434261 180.813717 
L 123.941534 182.146734 
L 124.448807 178.799757 
L 124.95608 180.178391 
L 125.463352 168.962548 
L 125.970625 174.973676 
L 126.477898 174.142921 
L 127.492443 177.47744 
L 127.999716 178.02884 
L 128.506989 164.487503 
L 129.014261 166.986542 
L 129.521534 163.693045 
L 130.028807 167.581344 
L 130.53608 164.551672 
L 131.043352 164.242989 
L 131.550625 164.583071 
L 132.057898 158.927573 
L 132.56517 159.597491 
L 133.072443 163.332655 
L 133.579716 159.064405 
L 134.086989 157.226609 
L 135.101534 160.114653 
L 135.608807 157.536135 
L 136.11608 156.008313 
L 136.623352 156.101845 
L 137.130625 158.11385 
L 137.637898 159.255239 
L 138.14517 158.371931 
L 138.652443 158.633965 
L 139.666989 154.988208 
L 140.174261 158.988351 
L 140.681534 159.203964 
L 141.188807 158.449679 
L 141.69608 154.020669 
L 142.203352 153.725238 
L 142.710625 157.613843 
L 143.217898 159.434499 
L 143.72517 157.180335 
L 144.232443 155.850694 
L 144.739716 158.029298 
L 145.246989 157.177485 
L 145.754261 155.614422 
L 146.261534 155.980615 
L 146.768807 154.753656 
L 147.27608 155.408499 
L 147.783352 158.615546 
L 148.797898 155.516206 
L 149.30517 155.288589 
L 149.812443 155.670831 
L 150.826989 158.295871 
L 151.334261 159.280733 
L 151.841534 158.871815 
L 152.348807 157.26312 
L 152.85608 156.861179 
L 153.363352 156.724625 
L 153.870625 156.787615 
L 154.377898 158.944455 
L 154.88517 156.049845 
L 155.392443 155.294044 
L 155.899716 156.561929 
L 156.406989 157.36283 
L 156.914261 157.655218 
L 157.421534 156.046993 
L 157.928807 158.774749 
L 158.943352 156.304672 
L 159.450625 154.245005 
L 159.957898 154.473916 
L 160.46517 153.822593 
L 161.479716 155.803786 
L 161.986989 155.531842 
L 162.494261 154.587492 
L 163.001534 156.61496 
L 164.01608 154.423699 
L 164.523352 150.82526 
L 166.04517 152.88935 
L 166.552443 153.076736 
L 167.059716 155.349784 
L 167.566989 153.019148 
L 168.074261 155.002136 
L 168.581534 153.832037 
L 169.088807 155.94442 
L 169.59608 149.305635 
L 170.103352 150.20283 
L 170.610625 147.868647 
L 171.117898 147.383957 
L 171.62517 148.273323 
L 172.132443 151.36421 
L 173.146989 149.313987 
L 173.654261 150.086891 
L 174.161534 150.064108 
L 174.668807 151.354422 
L 175.17608 149.22371 
L 175.683352 151.954691 
L 176.697898 150.047436 
L 177.20517 149.991833 
L 177.712443 150.313042 
L 178.219716 152.187133 
L 178.726989 148.43794 
L 179.234261 150.235716 
L 179.741534 150.33164 
L 180.248807 151.363168 
L 180.75608 149.663027 
L 181.770625 149.461831 
L 182.277898 149.117886 
L 182.78517 149.697328 
L 183.292443 149.674019 
L 183.799716 150.915693 
L 184.306989 150.0342 
L 184.814261 150.45281 
L 185.321534 150.12333 
L 185.828807 150.654267 
L 186.33608 151.798453 
L 186.843352 153.433211 
L 187.350625 151.196747 
L 187.857898 149.809581 
L 188.36517 149.944401 
L 188.872443 149.639818 
L 189.379716 150.804349 
L 189.886989 151.107627 
L 190.394261 150.99181 
L 190.901534 151.6235 
L 191.408807 151.800852 
L 191.91608 151.13914 
L 192.423352 151.051892 
L 192.930625 153.006503 
L 193.437898 152.149768 
L 193.94517 151.548159 
L 194.452443 152.374985 
L 194.959716 152.167704 
L 195.466989 151.425898 
L 195.974261 153.236006 
L 196.481534 153.007327 
L 196.988807 151.352523 
L 197.49608 150.212294 
L 198.003352 149.877967 
L 198.510625 149.76712 
L 199.017898 152.334364 
L 199.52517 152.984876 
L 200.032443 154.989053 
L 200.539716 152.777388 
L 201.046989 155.510737 
L 201.554261 153.131881 
L 202.061534 154.505523 
L 202.568807 153.474304 
L 203.07608 153.384478 
L 203.583352 154.081152 
L 204.090625 150.17425 
L 204.597898 151.303553 
L 205.10517 151.289085 
L 205.612443 152.397849 
L 206.119716 152.456653 
L 206.626989 150.403996 
L 207.641534 151.256954 
L 208.148807 152.309498 
L 208.65608 155.515012 
L 209.163352 153.799522 
L 209.670625 154.22262 
L 210.177898 151.425359 
L 210.68517 151.190714 
L 211.192443 150.809033 
L 211.699716 150.179916 
L 212.206989 150.736983 
L 212.714261 152.238025 
L 213.728807 149.389988 
L 214.23608 152.36677 
L 214.743352 151.178073 
L 215.250625 151.577578 
L 215.757898 153.414952 
L 216.26517 150.167981 
L 216.772443 150.014169 
L 217.279716 150.413847 
L 217.786989 148.432849 
L 218.294261 150.09173 
L 218.801534 150.013241 
L 219.81608 152.862798 
L 220.323352 148.176301 
L 220.830625 151.27553 
L 221.337898 150.204153 
L 221.84517 150.429404 
L 222.352443 153.806232 
L 222.859716 152.564889 
L 223.366989 151.764491 
L 223.874261 151.634621 
L 224.381534 151.798586 
L 225.39608 151.136103 
L 225.903352 149.717316 
L 226.410625 146.124544 
L 226.917898 146.390486 
L 227.42517 147.845925 
L 227.932443 147.747277 
L 228.946989 151.12045 
L 229.454261 150.824896 
L 229.961534 151.402646 
L 230.468807 148.853405 
L 230.97608 150.661894 
L 231.483352 151.552457 
L 231.990625 150.230134 
L 232.497898 149.747131 
L 233.00517 151.02265 
L 233.512443 151.54486 
L 234.019716 149.989709 
L 234.526989 153.052728 
L 235.034261 152.927737 
L 235.541534 150.854604 
L 236.048807 149.803555 
L 236.55608 151.003609 
L 237.063352 152.796036 
L 237.570625 153.127643 
L 238.077898 152.847695 
L 238.58517 149.57657 
L 239.092443 151.199333 
L 239.599716 151.612981 
L 240.106989 150.939007 
L 240.614261 150.668608 
L 241.121534 148.261371 
L 241.628807 150.64913 
L 242.13608 149.748479 
L 242.643352 148.539394 
L 243.150625 149.983433 
L 243.657898 150.051366 
L 244.16517 149.886969 
L 244.672443 148.826135 
L 245.179716 148.534426 
L 245.686989 149.706885 
L 246.194261 148.706397 
L 246.701534 150.532964 
L 247.208807 148.740553 
L 247.71608 149.327069 
L 248.223352 149.280068 
L 248.730625 150.824788 
L 249.237898 152.94373 
L 249.74517 150.838432 
L 250.252443 151.038112 
L 250.759716 150.42302 
L 251.266989 150.419573 
L 251.774261 151.387996 
L 252.281534 147.587184 
L 252.788807 149.256893 
L 253.29608 150.177876 
L 253.803352 148.732241 
L 254.310625 151.537359 
L 254.817898 147.732009 
L 255.32517 148.940103 
L 255.832443 148.171511 
L 256.339716 150.538707 
L 256.846989 151.618155 
L 257.354261 147.331739 
L 257.861534 146.71374 
L 258.368807 147.041982 
L 258.87608 146.64251 
L 259.890625 149.735165 
L 260.397898 147.685401 
L 260.90517 148.928008 
L 261.412443 149.44773 
L 261.919716 147.520702 
L 262.426989 147.992599 
L 262.934261 148.075181 
L 263.441534 147.476149 
L 263.948807 147.986914 
L 264.45608 149.178678 
L 264.963352 149.618311 
L 265.470625 148.624371 
L 265.977898 146.764939 
L 266.48517 146.058598 
L 266.992443 147.941403 
L 267.499716 148.029202 
L 268.006989 150.687199 
L 268.514261 146.697004 
L 269.021534 145.16617 
L 269.528807 146.6666 
L 270.03608 147.58066 
L 271.050625 145.861357 
L 271.557898 147.828364 
L 272.06517 147.007308 
L 273.079716 146.009021 
L 274.601534 149.924127 
L 275.61608 146.336792 
L 276.123352 146.575728 
L 276.630625 148.283753 
L 277.137898 148.877409 
L 278.152443 146.334357 
L 278.659716 146.61056 
L 279.166989 148.682391 
L 279.674261 148.756905 
L 280.181534 149.724469 
L 280.688807 148.74832 
L 281.19608 148.558895 
L 281.703352 148.723365 
L 282.210625 146.921662 
L 282.717898 147.01632 
L 283.22517 146.944288 
L 283.732443 147.558182 
L 284.239716 147.766075 
L 284.746989 148.390341 
L 285.254261 147.878107 
L 285.761534 148.882083 
L 286.268807 148.014212 
L 286.77608 148.676497 
L 287.283352 147.872348 
L 287.790625 145.778762 
L 288.80517 146.342631 
L 289.312443 148.350632 
L 289.819716 148.988638 
L 290.326989 147.391235 
L 290.834261 149.821081 
L 291.341534 147.996077 
L 291.848807 149.031582 
L 292.35608 146.037361 
L 292.863352 148.671689 
L 293.370625 149.053573 
L 293.877898 148.04938 
L 294.38517 146.400472 
L 295.399716 146.825366 
L 295.906989 145.566805 
L 296.414261 146.199822 
L 296.921534 147.363132 
L 297.428807 145.266351 
L 297.93608 146.472383 
L 298.443352 146.405547 
L 298.950625 145.784048 
L 299.457898 145.925262 
L 299.96517 147.715782 
L 300.472443 145.079454 
L 300.979716 145.744808 
L 301.486989 146.658808 
L 301.994261 146.263982 
L 302.501534 144.737049 
L 303.008807 145.535868 
L 303.51608 147.097598 
L 304.023352 146.435914 
L 304.530625 146.878997 
L 305.037898 146.887601 
L 305.54517 147.294672 
L 306.559716 147.727013 
L 307.066989 147.715841 
L 307.574261 148.327607 
L 308.081534 147.360703 
L 308.588807 148.57042 
L 309.09608 148.590716 
L 309.603352 147.186829 
L 310.110625 149.632939 
L 310.617898 148.065214 
L 311.12517 148.880796 
L 311.632443 150.087824 
L 312.139716 149.006153 
L 312.646989 149.041311 
L 313.154261 149.919469 
L 313.661534 151.783883 
L 314.67608 148.51746 
L 315.183352 140.383069 
L 315.690625 134.645392 
L 316.197898 135.276076 
L 316.70517 134.09476 
L 317.212443 134.924173 
L 317.719716 133.544362 
L 318.226989 133.932559 
L 318.734261 134.109289 
L 319.241534 134.095199 
L 319.748807 136.328853 
L 320.25608 134.045089 
L 321.270625 134.511322 
L 321.777898 134.148292 
L 322.28517 135.46348 
L 322.792443 134.36296 
L 323.299716 134.485788 
L 323.806989 135.062459 
L 324.314261 134.332694 
L 324.821534 135.128299 
L 325.328807 135.192742 
L 325.83608 135.1421 
L 326.343352 135.746995 
L 326.850625 135.76592 
L 327.357898 134.644853 
L 327.86517 135.159487 
L 328.372443 135.834232 
L 328.879716 135.00642 
L 329.386989 134.825713 
L 329.894261 135.365509 
L 330.908807 134.665984 
L 331.923352 135.65219 
L 332.430625 135.49727 
L 332.937898 136.349539 
L 333.44517 134.959835 
L 333.952443 134.958175 
L 334.459716 134.353872 
L 334.966989 134.761472 
L 336.488807 135.446631 
L 336.99608 136.13927 
L 337.503352 134.876512 
L 338.517898 134.657394 
L 340.546989 135.683175 
L 341.054261 135.387909 
L 341.561534 135.432099 
L 342.57608 135.180298 
L 343.083352 135.437722 
L 343.590625 135.041614 
L 344.097898 135.044866 
L 344.60517 134.807891 
L 345.112443 135.656141 
L 346.126989 134.909933 
L 346.634261 134.822788 
L 347.648807 135.070867 
L 348.15608 134.689487 
L 348.663352 135.242155 
L 349.170625 135.182653 
L 349.677898 135.683602 
L 350.18517 134.907999 
L 350.692443 134.970018 
L 351.199716 134.85644 
L 351.706989 135.541425 
L 352.214261 135.28166 
L 352.721534 134.576644 
L 353.228807 134.209949 
L 353.73608 133.348923 
L 354.750625 134.399382 
L 355.257898 134.430051 
L 355.76517 134.006603 
L 357.286989 134.912482 
L 357.794261 134.577112 
L 358.808807 135.02032 
L 359.31608 134.311887 
L 359.823352 134.841699 
L 360.330625 134.919568 
L 360.837898 135.477955 
L 361.34517 134.25946 
L 361.852443 133.663397 
L 362.359716 134.132352 
L 362.866989 134.76518 
L 363.374261 135.133355 
L 363.881534 134.691464 
L 364.388807 134.711405 
L 364.89608 135.230141 
L 365.403352 134.944728 
L 365.910625 135.026033 
L 366.417898 135.417067 
L 366.92517 134.993303 
L 367.432443 134.923053 
L 367.939716 135.304547 
L 368.446989 134.786339 
L 369.968807 135.906353 
L 370.47608 134.721007 
L 371.490625 135.252268 
L 371.997898 134.442712 
L 372.50517 135.202486 
L 373.012443 135.442336 
L 373.519716 134.903049 
L 374.026989 134.844061 
L 374.534261 134.391304 
L 375.041534 134.455816 
L 375.548807 135.274171 
L 376.05608 135.45648 
L 376.563352 134.804065 
L 377.070625 135.066336 
L 377.577898 134.831295 
L 378.08517 135.661718 
L 378.592443 135.422257 
L 379.099716 134.976805 
L 379.606989 135.405305 
L 380.114261 134.9154 
L 380.621534 135.610838 
L 381.128807 135.51559 
L 382.143352 135.114546 
L 382.650625 135.166521 
L 383.157898 135.492849 
L 383.66517 134.771946 
L 384.172443 135.387025 
L 384.679716 134.93435 
L 386.201534 135.123354 
L 387.21608 134.829573 
L 387.723352 134.747605 
L 388.230625 135.356739 
L 388.737898 135.359237 
L 389.24517 134.904426 
L 389.752443 134.677288 
L 390.259716 135.785722 
L 390.766989 134.709898 
L 391.274261 134.327474 
L 391.781534 134.888571 
L 392.288807 135.273006 
L 393.303352 135.139176 
L 393.810625 135.627855 
L 394.317898 135.021037 
L 394.82517 134.594411 
L 395.332443 134.781306 
L 395.839716 134.568335 
L 396.346989 135.358105 
L 397.361534 135.176473 
L 398.883352 135.343434 
L 399.390625 135.622416 
L 399.897898 134.996122 
L 400.40517 135.262804 
L 400.912443 135.392035 
L 401.419716 135.181933 
L 402.434261 135.626955 
L 402.941534 134.923887 
L 403.448807 134.696293 
L 403.95608 134.825277 
L 404.463352 135.175126 
L 405.477898 135.64312 
L 405.98517 135.276988 
L 406.492443 135.491512 
L 406.999716 135.541704 
L 407.506989 133.750824 
L 408.014261 133.663888 
L 408.521534 134.543112 
L 409.028807 135.042247 
L 410.043352 134.529599 
L 410.550625 134.443794 
L 411.56517 135.046299 
L 412.072443 134.948074 
L 412.579716 134.735546 
L 413.086989 134.974499 
L 413.594261 135.037229 
L 414.101534 135.281677 
L 414.608807 134.737247 
L 416.130625 135.320018 
L 417.14517 135.026793 
L 417.652443 135.49939 
L 418.159716 134.978501 
L 418.666989 135.472805 
L 419.174261 134.748901 
L 419.681534 135.014456 
L 420.188807 134.697486 
L 420.69608 135.248206 
L 422.217898 135.186156 
L 422.72517 134.966542 
L 423.739716 135.097052 
L 424.754261 135.474882 
L 425.261534 134.790277 
L 425.768807 135.423428 
L 426.27608 135.328451 
L 426.783352 135.526498 
L 427.290625 135.170415 
L 428.30517 135.564687 
L 428.812443 135.511133 
L 429.319716 135.260569 
L 430.841534 135.679882 
L 431.348807 135.989234 
L 431.85608 135.576142 
L 432.363352 134.987874 
L 432.870625 135.329999 
L 433.377898 135.02399 
L 433.88517 134.915781 
L 434.392443 135.19938 
L 435.406989 135.455681 
L 435.914261 135.056328 
L 436.421534 135.725742 
L 436.928807 135.142952 
L 437.43608 135.250148 
L 437.943352 135.539491 
L 438.957898 135.812822 
L 439.46517 135.164145 
L 439.972443 135.49312 
L 440.986989 135.141222 
L 441.494261 135.19345 
L 442.001534 135.383592 
L 443.523352 135.384635 
L 444.030625 135.100931 
L 444.537898 135.106176 
L 445.04517 135.276983 
L 445.552443 135.194826 
L 446.059716 135.478335 
L 447.074261 135.473772 
L 448.088807 135.021349 
L 448.59608 136.147604 
L 449.103352 135.472357 
L 449.610625 135.21415 
L 450.117898 135.343565 
L 450.62517 135.621004 
L 451.132443 135.386846 
L 451.639716 135.27714 
L 452.146989 135.379801 
L 452.654261 135.609204 
L 453.161534 135.587211 
L 454.17608 135.319427 
L 454.683352 134.972355 
L 455.190625 135.43259 
L 456.20517 135.357157 
L 457.219716 135.860083 
L 457.726989 134.885291 
L 458.234261 134.75028 
L 458.741534 135.498144 
L 459.75608 134.980658 
L 460.263352 135.06075 
L 461.277898 135.67956 
L 461.78517 135.221313 
L 462.292443 135.355566 
L 462.799716 135.67954 
L 463.306989 135.383578 
L 463.814261 135.661407 
L 464.321534 135.488699 
L 464.828807 135.833352 
L 465.33608 135.536407 
L 465.843352 135.4226 
L 466.350625 135.566478 
L 467.36517 135.438627 
L 467.872443 135.573036 
L 468.886989 134.799634 
L 469.394261 134.830195 
L 469.901534 135.644505 
L 470.408807 135.035708 
L 471.423352 135.734508 
L 472.437898 135.753632 
L 472.94517 135.429688 
L 473.452443 135.600536 
L 473.959716 135.410079 
L 474.466989 134.765791 
L 474.974261 135.684313 
L 475.481534 135.718608 
L 475.988807 135.213705 
L 477.003352 135.80489 
L 477.510625 135.550867 
L 478.017898 135.172222 
L 478.52517 135.612471 
L 479.539716 135.150894 
L 480.046989 135.883055 
L 481.061534 136.005441 
L 481.568807 135.024633 
L 482.07608 135.129679 
L 482.583352 135.476753 
L 483.090625 135.207139 
L 483.597898 135.498733 
L 484.10517 135.013924 
L 484.612443 135.423407 
L 485.626989 134.750365 
L 486.134261 135.217433 
L 486.641534 135.400371 
L 487.65608 135.13266 
L 488.163352 135.795262 
L 489.68517 135.180538 
L 490.192443 135.468096 
L 490.699716 135.174631 
L 491.714261 135.272834 
L 492.728807 134.971894 
L 493.23608 135.207934 
L 493.743352 135.28593 
L 494.250625 135.060012 
L 494.757898 135.371854 
L 495.772443 135.254273 
L 496.279716 134.818658 
L 496.786989 135.481158 
L 497.294261 135.52925 
L 497.801534 135.060555 
L 498.308807 135.750257 
L 498.81608 135.486869 
L 499.323352 135.090327 
L 499.830625 135.662326 
L 500.337898 135.517156 
L 500.84517 134.989371 
L 501.352443 135.43116 
L 501.859716 134.838123 
L 502.366989 134.649904 
L 502.874261 135.300751 
L 503.381534 134.933768 
L 503.888807 135.358687 
L 504.39608 135.066199 
L 504.903352 135.335037 
L 505.410625 135.050951 
L 506.932443 135.390709 
L 507.439716 135.822426 
L 507.946989 135.952862 
L 508.454261 135.624338 
L 508.961534 135.610255 
L 509.468807 135.423524 
L 509.97608 134.247237 
L 510.483352 134.871136 
L 510.990625 135.079638 
L 511.497898 135.078143 
L 512.00517 135.829396 
L 513.019716 135.538952 
L 513.526989 135.065113 
L 514.034261 135.020353 
L 514.541534 135.229455 
L 515.048807 135.63446 
L 515.55608 135.064092 
L 516.063352 135.249846 
L 516.570625 134.999915 
L 517.077898 135.461117 
L 517.58517 135.050893 
L 518.092443 134.858032 
L 518.599716 135.310257 
L 519.106989 134.96585 
L 519.614261 135.260655 
L 520.628807 134.994485 
L 521.13608 135.637894 
L 522.150625 135.126461 
L 522.657898 135.095993 
L 523.16517 135.29222 
L 523.672443 134.610798 
L 524.179716 135.391143 
L 524.686989 135.052139 
L 525.701534 135.386257 
L 527.223352 134.76905 
L 527.730625 135.463049 
L 528.74517 135.295454 
L 529.252443 135.508937 
L 530.266989 134.066893 
L 530.774261 132.014513 
L 531.281534 134.72919 
L 531.788807 134.913283 
L 532.29608 134.971935 
L 532.803352 135.318484 
L 533.310625 134.399469 
L 534.832443 134.7221 
L 535.339716 134.426432 
L 535.846989 134.353387 
L 536.354261 134.966274 
L 537.368807 134.823135 
L 537.87608 135.097777 
L 538.890625 135.222661 
L 539.397898 134.907921 
L 539.90517 135.133372 
L 540.412443 134.787104 
L 541.426989 135.293326 
L 542.441534 134.788834 
L 542.948807 134.39011 
L 543.45608 134.533561 
L 543.963352 135.269145 
L 544.470625 134.888641 
L 544.977898 135.227361 
L 545.48517 134.867778 
L 545.992443 135.045628 
L 546.499716 134.462506 
L 547.514261 135.264537 
L 548.528807 134.903744 
L 549.03608 135.306712 
L 550.050625 134.743273 
L 550.557898 135.031264 
L 551.06517 135.146573 
L 551.572443 135.470932 
L 552.586989 135.000084 
L 553.094261 135.130922 
L 553.601534 134.678202 
L 554.108807 135.36608 
L 555.123352 134.806707 
L 555.630625 134.831608 
L 557.152443 135.607083 
L 557.659716 135.232594 
L 558.674261 134.974361 
L 559.181534 135.10826 
L 559.688807 135.483296 
L 560.19608 135.426415 
L 560.703352 135.677208 
L 561.210625 135.164195 
L 561.717898 135.500082 
L 562.22517 135.158922 
L 562.732443 135.496358 
L 563.239716 134.767566 
L 563.746989 135.113808 
L 564.254261 134.849267 
L 564.761534 135.003803 
L 565.268807 134.640708 
L 566.283352 135.050486 
L 566.790625 134.700296 
L 567.297898 134.567118 
L 568.312443 134.781444 
L 568.819716 134.746333 
L 569.326989 135.228049 
L 570.341534 134.474487 
L 571.35608 134.972206 
L 573.38517 134.755031 
L 573.892443 135.717773 
L 574.399716 135.066942 
L 575.414261 134.683627 
L 575.921534 134.969737 
L 576.428807 135.545472 
L 576.93608 135.467532 
L 577.443352 135.532108 
L 577.950625 134.916565 
L 578.457898 135.272387 
L 578.96517 135.123048 
L 579.472443 135.528014 
L 579.979716 135.630345 
L 580.486989 135.04118 
L 580.994261 135.412038 
L 582.008807 135.534561 
L 582.51608 134.929964 
L 583.023352 135.224216 
L 584.037898 135.181871 
L 584.54517 135.823558 
L 585.052443 135.548391 
L 585.559716 134.904695 
L 586.066989 134.612249 
L 586.574261 135.133562 
L 587.588807 135.048915 
L 588.603352 135.439861 
L 589.110625 134.822512 
L 589.617898 135.100161 
L 590.12517 135.730951 
L 590.632443 135.340186 
L 591.139716 135.46119 
L 591.646989 134.945941 
L 592.154261 135.53327 
L 592.661534 135.337737 
L 593.168807 135.581159 
L 593.67608 134.972692 
L 594.690625 135.538315 
L 595.197898 134.801541 
L 595.70517 135.154013 
L 596.212443 135.291815 
L 597.226989 134.949804 
L 598.748807 135.03086 
L 599.25608 135.202733 
L 599.763352 134.840785 
L 600.270625 135.467284 
L 600.777898 135.437993 
L 601.28517 135.587644 
L 602.299716 134.587731 
L 602.806989 135.193846 
L 603.314261 135.08311 
L 603.821534 135.107909 
L 604.328807 135.371883 
L 604.83608 136.906461 
L 605.343352 135.532688 
L 605.850625 135.46888 
L 606.357898 135.144699 
L 606.86517 135.354307 
L 607.372443 135.79131 
L 607.879716 135.439366 
L 608.386989 135.499153 
L 608.894261 135.693293 
L 609.908807 135.515114 
L 610.41608 135.431376 
L 610.923352 135.91829 
L 611.430625 135.196028 
L 611.937898 135.360024 
L 612.44517 135.281298 
L 612.952443 135.820067 
L 613.459716 135.43557 
L 613.966989 135.442911 
L 614.474261 135.27279 
L 614.981534 135.596623 
L 615.488807 135.302343 
L 615.99608 135.211569 
L 616.503352 135.550225 
L 617.517898 135.6943 
L 618.02517 135.439498 
L 618.532443 135.796431 
L 619.039716 135.510124 
L 619.546989 135.795269 
L 620.054261 135.667992 
L 620.561534 135.235211 
L 621.068807 135.091696 
L 621.57608 135.453681 
L 622.083352 135.617883 
L 622.590625 135.597576 
L 623.097898 136.121633 
L 623.60517 135.67691 
L 624.112443 136.020259 
L 625.126989 135.448072 
L 625.126989 135.448072 
" clip-path="url(#pa59493c464)" style="fill: none; stroke: #ff7f0e; stroke-width: 1.5; stroke-linecap: square"/>
   </g>
   <g id="patch_3">
    <path d="M 92.490625 308.63625 
L 92.490625 31.43625 
" style="fill: none; stroke: #000000; stroke-width: 0.8; stroke-linejoin: miter; stroke-linecap: square"/>
   </g>
   <g id="patch_4">
    <path d="M 650.490625 308.63625 
L 650.490625 31.43625 
" style="fill: none; stroke: #000000; stroke-width: 0.8; stroke-linejoin: miter; stroke-linecap: square"/>
   </g>
   <g id="patch_5">
    <path d="M 92.490625 308.63625 
L 650.490625 308.63625 
" style="fill: none; stroke: #000000; stroke-width: 0.8; stroke-linejoin: miter; stroke-linecap: square"/>
   </g>
   <g id="patch_6">
    <path d="M 92.490625 31.43625 
L 650.490625 31.43625 
" style="fill: none; stroke: #000000; stroke-width: 0.8; stroke-linejoin: miter; stroke-linecap: square"/>
   </g>
   <g id="text_13">
    <!-- Generator and Discriminator Loss During Training -->
    <g transform="translate(74.258125 25.43625) scale(0.24 -0.24)">
     <defs>
      <path id="DejaVuSans-47" d="M 3809 666 
L 3809 1919 
L 2778 1919 
L 2778 2438 
L 4434 2438 
L 4434 434 
Q 4069 175 3628 42 
Q 3188 -91 2688 -91 
Q 1594 -91 976 548 
Q 359 1188 359 2328 
Q 359 3472 976 4111 
Q 1594 4750 2688 4750 
Q 3144 4750 3555 4637 
Q 3966 4525 4313 4306 
L 4313 3634 
Q 3963 3931 3569 4081 
Q 3175 4231 2741 4231 
Q 1884 4231 1454 3753 
Q 1025 3275 1025 2328 
Q 1025 1384 1454 906 
Q 1884 428 2741 428 
Q 3075 428 3337 486 
Q 3600 544 3809 666 
z
" transform="scale(0.015625)"/>
      <path id="DejaVuSans-20" transform="scale(0.015625)"/>
      <path id="DejaVuSans-64" d="M 2906 2969 
L 2906 4863 
L 3481 4863 
L 3481 0 
L 2906 0 
L 2906 525 
Q 2725 213 2448 61 
Q 2172 -91 1784 -91 
Q 1150 -91 751 415 
Q 353 922 353 1747 
Q 353 2572 751 3078 
Q 1150 3584 1784 3584 
Q 2172 3584 2448 3432 
Q 2725 3281 2906 2969 
z
M 947 1747 
Q 947 1113 1208 752 
Q 1469 391 1925 391 
Q 2381 391 2643 752 
Q 2906 1113 2906 1747 
Q 2906 2381 2643 2742 
Q 2381 3103 1925 3103 
Q 1469 3103 1208 2742 
Q 947 2381 947 1747 
z
" transform="scale(0.015625)"/>
      <path id="DejaVuSans-44" d="M 1259 4147 
L 1259 519 
L 2022 519 
Q 2988 519 3436 956 
Q 3884 1394 3884 2338 
Q 3884 3275 3436 3711 
Q 2988 4147 2022 4147 
L 1259 4147 
z
M 628 4666 
L 1925 4666 
Q 3281 4666 3915 4102 
Q 4550 3538 4550 2338 
Q 4550 1131 3912 565 
Q 3275 0 1925 0 
L 628 0 
L 628 4666 
z
" transform="scale(0.015625)"/>
      <path id="DejaVuSans-63" d="M 3122 3366 
L 3122 2828 
Q 2878 2963 2633 3030 
Q 2388 3097 2138 3097 
Q 1578 3097 1268 2742 
Q 959 2388 959 1747 
Q 959 1106 1268 751 
Q 1578 397 2138 397 
Q 2388 397 2633 464 
Q 2878 531 3122 666 
L 3122 134 
Q 2881 22 2623 -34 
Q 2366 -91 2075 -91 
Q 1284 -91 818 406 
Q 353 903 353 1747 
Q 353 2603 823 3093 
Q 1294 3584 2113 3584 
Q 2378 3584 2631 3529 
Q 2884 3475 3122 3366 
z
" transform="scale(0.015625)"/>
      <path id="DejaVuSans-6d" d="M 3328 2828 
Q 3544 3216 3844 3400 
Q 4144 3584 4550 3584 
Q 5097 3584 5394 3201 
Q 5691 2819 5691 2113 
L 5691 0 
L 5113 0 
L 5113 2094 
Q 5113 2597 4934 2840 
Q 4756 3084 4391 3084 
Q 3944 3084 3684 2787 
Q 3425 2491 3425 1978 
L 3425 0 
L 2847 0 
L 2847 2094 
Q 2847 2600 2669 2842 
Q 2491 3084 2119 3084 
Q 1678 3084 1418 2786 
Q 1159 2488 1159 1978 
L 1159 0 
L 581 0 
L 581 3500 
L 1159 3500 
L 1159 2956 
Q 1356 3278 1631 3431 
Q 1906 3584 2284 3584 
Q 2666 3584 2933 3390 
Q 3200 3197 3328 2828 
z
" transform="scale(0.015625)"/>
      <path id="DejaVuSans-75" d="M 544 1381 
L 544 3500 
L 1119 3500 
L 1119 1403 
Q 1119 906 1312 657 
Q 1506 409 1894 409 
Q 2359 409 2629 706 
Q 2900 1003 2900 1516 
L 2900 3500 
L 3475 3500 
L 3475 0 
L 2900 0 
L 2900 538 
Q 2691 219 2414 64 
Q 2138 -91 1772 -91 
Q 1169 -91 856 284 
Q 544 659 544 1381 
z
M 1991 3584 
L 1991 3584 
z
" transform="scale(0.015625)"/>
      <path id="DejaVuSans-67" d="M 2906 1791 
Q 2906 2416 2648 2759 
Q 2391 3103 1925 3103 
Q 1463 3103 1205 2759 
Q 947 2416 947 1791 
Q 947 1169 1205 825 
Q 1463 481 1925 481 
Q 2391 481 2648 825 
Q 2906 1169 2906 1791 
z
M 3481 434 
Q 3481 -459 3084 -895 
Q 2688 -1331 1869 -1331 
Q 1566 -1331 1297 -1286 
Q 1028 -1241 775 -1147 
L 775 -588 
Q 1028 -725 1275 -790 
Q 1522 -856 1778 -856 
Q 2344 -856 2625 -561 
Q 2906 -266 2906 331 
L 2906 616 
Q 2728 306 2450 153 
Q 2172 0 1784 0 
Q 1141 0 747 490 
Q 353 981 353 1791 
Q 353 2603 747 3093 
Q 1141 3584 1784 3584 
Q 2172 3584 2450 3431 
Q 2728 3278 2906 2969 
L 2906 3500 
L 3481 3500 
L 3481 434 
z
" transform="scale(0.015625)"/>
      <path id="DejaVuSans-54" d="M -19 4666 
L 3928 4666 
L 3928 4134 
L 2272 4134 
L 2272 0 
L 1638 0 
L 1638 4134 
L -19 4134 
L -19 4666 
z
" transform="scale(0.015625)"/>
     </defs>
     <use xlink:href="#DejaVuSans-47"/>
     <use xlink:href="#DejaVuSans-65" x="77.490234"/>
     <use xlink:href="#DejaVuSans-6e" x="139.013672"/>
     <use xlink:href="#DejaVuSans-65" x="202.392578"/>
     <use xlink:href="#DejaVuSans-72" x="263.916016"/>
     <use xlink:href="#DejaVuSans-61" x="305.029297"/>
     <use xlink:href="#DejaVuSans-74" x="366.308594"/>
     <use xlink:href="#DejaVuSans-6f" x="405.517578"/>
     <use xlink:href="#DejaVuSans-72" x="466.699219"/>
     <use xlink:href="#DejaVuSans-20" x="507.8125"/>
     <use xlink:href="#DejaVuSans-61" x="539.599609"/>
     <use xlink:href="#DejaVuSans-6e" x="600.878906"/>
     <use xlink:href="#DejaVuSans-64" x="664.257812"/>
     <use xlink:href="#DejaVuSans-20" x="727.734375"/>
     <use xlink:href="#DejaVuSans-44" x="759.521484"/>
     <use xlink:href="#DejaVuSans-69" x="836.523438"/>
     <use xlink:href="#DejaVuSans-73" x="864.306641"/>
     <use xlink:href="#DejaVuSans-63" x="916.40625"/>
     <use xlink:href="#DejaVuSans-72" x="971.386719"/>
     <use xlink:href="#DejaVuSans-69" x="1012.5"/>
     <use xlink:href="#DejaVuSans-6d" x="1040.283203"/>
     <use xlink:href="#DejaVuSans-69" x="1137.695312"/>
     <use xlink:href="#DejaVuSans-6e" x="1165.478516"/>
     <use xlink:href="#DejaVuSans-61" x="1228.857422"/>
     <use xlink:href="#DejaVuSans-74" x="1290.136719"/>
     <use xlink:href="#DejaVuSans-6f" x="1329.345703"/>
     <use xlink:href="#DejaVuSans-72" x="1390.527344"/>
     <use xlink:href="#DejaVuSans-20" x="1431.640625"/>
     <use xlink:href="#DejaVuSans-4c" x="1463.427734"/>
     <use xlink:href="#DejaVuSans-6f" x="1517.390625"/>
     <use xlink:href="#DejaVuSans-73" x="1578.572266"/>
     <use xlink:href="#DejaVuSans-73" x="1630.671875"/>
     <use xlink:href="#DejaVuSans-20" x="1682.771484"/>
     <use xlink:href="#DejaVuSans-44" x="1714.558594"/>
     <use xlink:href="#DejaVuSans-75" x="1791.560547"/>
     <use xlink:href="#DejaVuSans-72" x="1854.939453"/>
     <use xlink:href="#DejaVuSans-69" x="1896.052734"/>
     <use xlink:href="#DejaVuSans-6e" x="1923.835938"/>
     <use xlink:href="#DejaVuSans-67" x="1987.214844"/>
     <use xlink:href="#DejaVuSans-20" x="2050.691406"/>
     <use xlink:href="#DejaVuSans-54" x="2082.478516"/>
     <use xlink:href="#DejaVuSans-72" x="2128.8125"/>
     <use xlink:href="#DejaVuSans-61" x="2169.925781"/>
     <use xlink:href="#DejaVuSans-69" x="2231.205078"/>
     <use xlink:href="#DejaVuSans-6e" x="2258.988281"/>
     <use xlink:href="#DejaVuSans-69" x="2322.367188"/>
     <use xlink:href="#DejaVuSans-6e" x="2350.150391"/>
     <use xlink:href="#DejaVuSans-67" x="2413.529297"/>
    </g>
   </g>
   <g id="legend_1">
    <g id="patch_7">
     <path d="M 556.99375 106.14875 
L 636.490625 106.14875 
Q 640.490625 106.14875 640.490625 102.14875 
L 640.490625 45.43625 
Q 640.490625 41.43625 636.490625 41.43625 
L 556.99375 41.43625 
Q 552.99375 41.43625 552.99375 45.43625 
L 552.99375 102.14875 
Q 552.99375 106.14875 556.99375 106.14875 
z
" style="fill: #ffffff; opacity: 0.8; stroke: #cccccc; stroke-linejoin: miter"/>
    </g>
    <g id="line2d_13">
     <path d="M 560.99375 57.633125 
L 580.99375 57.633125 
L 600.99375 57.633125 
" style="fill: none; stroke: #1f77b4; stroke-width: 1.5; stroke-linecap: square"/>
    </g>
    <g id="text_14">
     <!-- G -->
     <g transform="translate(616.99375 64.633125) scale(0.2 -0.2)">
      <use xlink:href="#DejaVuSans-47"/>
     </g>
    </g>
    <g id="line2d_14">
     <path d="M 560.99375 86.989375 
L 580.99375 86.989375 
L 600.99375 86.989375 
" style="fill: none; stroke: #ff7f0e; stroke-width: 1.5; stroke-linecap: square"/>
    </g>
    <g id="text_15">
     <!-- D -->
     <g transform="translate(616.99375 93.989375) scale(0.2 -0.2)">
      <use xlink:href="#DejaVuSans-44"/>
     </g>
    </g>
   </g>
  </g>
 </g>
 <defs>
  <clipPath id="pa59493c464">
   <rect x="92.490625" y="31.43625" width="558" height="277.2"/>
  </clipPath>
 </defs>
</svg>
