<?xml version="1.0" encoding="utf-8" standalone="no"?>
<!DOCTYPE svg PUBLIC "-//W3C//DTD SVG 1.1//EN"
  "http://www.w3.org/Graphics/SVG/1.1/DTD/svg11.dtd">
<svg xmlns:xlink="http://www.w3.org/1999/xlink" width="675.923125pt" height="365.54875pt" viewBox="0 0 675.923125 365.54875" xmlns="http://www.w3.org/2000/svg" version="1.1">
 <metadata>
  <rdf:RDF xmlns:dc="http://purl.org/dc/elements/1.1/" xmlns:cc="http://creativecommons.org/ns#" xmlns:rdf="http://www.w3.org/1999/02/22-rdf-syntax-ns#">
   <cc:Work>
    <dc:type rdf:resource="http://purl.org/dc/dcmitype/StillImage"/>
    <dc:date>2024-02-02T01:10:54.340616</dc:date>
    <dc:format>image/svg+xml</dc:format>
    <dc:creator>
     <cc:Agent>
      <dc:title>Matplotlib v3.7.2, https://matplotlib.org/</dc:title>
     </cc:Agent>
    </dc:creator>
   </cc:Work>
  </rdf:RDF>
 </metadata>
 <defs>
  <style type="text/css">*{stroke-linejoin: round; stroke-linecap: butt}</style>
 </defs>
 <g id="figure_1">
  <g id="patch_1">
   <path d="M 0 365.54875 
L 675.923125 365.54875 
L 675.923125 -0 
L 0 -0 
z
" style="fill: #ffffff"/>
  </g>
  <g id="axes_1">
   <g id="patch_2">
    <path d="M 92.490625 308.63625 
L 650.490625 308.63625 
L 650.490625 31.43625 
L 92.490625 31.43625 
z
" style="fill: #ffffff"/>
   </g>
   <g id="matplotlib.axis_1">
    <g id="xtick_1">
     <g id="line2d_1">
      <defs>
       <path id="m6a838f763a" d="M 0 0 
L 0 3.5 
" style="stroke: #000000; stroke-width: 0.8"/>
      </defs>
      <g>
       <use xlink:href="#m6a838f763a" x="117.854261" y="308.63625" style="stroke: #000000; stroke-width: 0.8"/>
      </g>
     </g>
     <g id="text_1">
      <!-- 0 -->
      <g transform="translate(111.491761 330.833125) scale(0.2 -0.2)">
       <defs>
        <path id="DejaVuSans-30" d="M 2034 4250 
Q 1547 4250 1301 3770 
Q 1056 3291 1056 2328 
Q 1056 1369 1301 889 
Q 1547 409 2034 409 
Q 2525 409 2770 889 
Q 3016 1369 3016 2328 
Q 3016 3291 2770 3770 
Q 2525 4250 2034 4250 
z
M 2034 4750 
Q 2819 4750 3233 4129 
Q 3647 3509 3647 2328 
Q 3647 1150 3233 529 
Q 2819 -91 2034 -91 
Q 1250 -91 836 529 
Q 422 1150 422 2328 
Q 422 3509 836 4129 
Q 1250 4750 2034 4750 
z
" transform="scale(0.015625)"/>
       </defs>
       <use xlink:href="#DejaVuSans-30"/>
      </g>
     </g>
    </g>
    <g id="xtick_2">
     <g id="line2d_2">
      <g>
       <use xlink:href="#m6a838f763a" x="181.263352" y="308.63625" style="stroke: #000000; stroke-width: 0.8"/>
      </g>
     </g>
     <g id="text_2">
      <!-- 200 -->
      <g transform="translate(162.175852 330.833125) scale(0.2 -0.2)">
       <defs>
        <path id="DejaVuSans-32" d="M 1228 531 
L 3431 531 
L 3431 0 
L 469 0 
L 469 531 
Q 828 903 1448 1529 
Q 2069 2156 2228 2338 
Q 2531 2678 2651 2914 
Q 2772 3150 2772 3378 
Q 2772 3750 2511 3984 
Q 2250 4219 1831 4219 
Q 1534 4219 1204 4116 
Q 875 4013 500 3803 
L 500 4441 
Q 881 4594 1212 4672 
Q 1544 4750 1819 4750 
Q 2544 4750 2975 4387 
Q 3406 4025 3406 3419 
Q 3406 3131 3298 2873 
Q 3191 2616 2906 2266 
Q 2828 2175 2409 1742 
Q 1991 1309 1228 531 
z
" transform="scale(0.015625)"/>
       </defs>
       <use xlink:href="#DejaVuSans-32"/>
       <use xlink:href="#DejaVuSans-30" x="63.623047"/>
       <use xlink:href="#DejaVuSans-30" x="127.246094"/>
      </g>
     </g>
    </g>
    <g id="xtick_3">
     <g id="line2d_3">
      <g>
       <use xlink:href="#m6a838f763a" x="244.672443" y="308.63625" style="stroke: #000000; stroke-width: 0.8"/>
      </g>
     </g>
     <g id="text_3">
      <!-- 400 -->
      <g transform="translate(225.584943 330.833125) scale(0.2 -0.2)">
       <defs>
        <path id="DejaVuSans-34" d="M 2419 4116 
L 825 1625 
L 2419 1625 
L 2419 4116 
z
M 2253 4666 
L 3047 4666 
L 3047 1625 
L 3713 1625 
L 3713 1100 
L 3047 1100 
L 3047 0 
L 2419 0 
L 2419 1100 
L 313 1100 
L 313 1709 
L 2253 4666 
z
" transform="scale(0.015625)"/>
       </defs>
       <use xlink:href="#DejaVuSans-34"/>
       <use xlink:href="#DejaVuSans-30" x="63.623047"/>
       <use xlink:href="#DejaVuSans-30" x="127.246094"/>
      </g>
     </g>
    </g>
    <g id="xtick_4">
     <g id="line2d_4">
      <g>
       <use xlink:href="#m6a838f763a" x="308.081534" y="308.63625" style="stroke: #000000; stroke-width: 0.8"/>
      </g>
     </g>
     <g id="text_4">
      <!-- 600 -->
      <g transform="translate(288.994034 330.833125) scale(0.2 -0.2)">
       <defs>
        <path id="DejaVuSans-36" d="M 2113 2584 
Q 1688 2584 1439 2293 
Q 1191 2003 1191 1497 
Q 1191 994 1439 701 
Q 1688 409 2113 409 
Q 2538 409 2786 701 
Q 3034 994 3034 1497 
Q 3034 2003 2786 2293 
Q 2538 2584 2113 2584 
z
M 3366 4563 
L 3366 3988 
Q 3128 4100 2886 4159 
Q 2644 4219 2406 4219 
Q 1781 4219 1451 3797 
Q 1122 3375 1075 2522 
Q 1259 2794 1537 2939 
Q 1816 3084 2150 3084 
Q 2853 3084 3261 2657 
Q 3669 2231 3669 1497 
Q 3669 778 3244 343 
Q 2819 -91 2113 -91 
Q 1303 -91 875 529 
Q 447 1150 447 2328 
Q 447 3434 972 4092 
Q 1497 4750 2381 4750 
Q 2619 4750 2861 4703 
Q 3103 4656 3366 4563 
z
" transform="scale(0.015625)"/>
       </defs>
       <use xlink:href="#DejaVuSans-36"/>
       <use xlink:href="#DejaVuSans-30" x="63.623047"/>
       <use xlink:href="#DejaVuSans-30" x="127.246094"/>
      </g>
     </g>
    </g>
    <g id="xtick_5">
     <g id="line2d_5">
      <g>
       <use xlink:href="#m6a838f763a" x="371.490625" y="308.63625" style="stroke: #000000; stroke-width: 0.8"/>
      </g>
     </g>
     <g id="text_5">
      <!-- 800 -->
      <g transform="translate(352.403125 330.833125) scale(0.2 -0.2)">
       <defs>
        <path id="DejaVuSans-38" d="M 2034 2216 
Q 1584 2216 1326 1975 
Q 1069 1734 1069 1313 
Q 1069 891 1326 650 
Q 1584 409 2034 409 
Q 2484 409 2743 651 
Q 3003 894 3003 1313 
Q 3003 1734 2745 1975 
Q 2488 2216 2034 2216 
z
M 1403 2484 
Q 997 2584 770 2862 
Q 544 3141 544 3541 
Q 544 4100 942 4425 
Q 1341 4750 2034 4750 
Q 2731 4750 3128 4425 
Q 3525 4100 3525 3541 
Q 3525 3141 3298 2862 
Q 3072 2584 2669 2484 
Q 3125 2378 3379 2068 
Q 3634 1759 3634 1313 
Q 3634 634 3220 271 
Q 2806 -91 2034 -91 
Q 1263 -91 848 271 
Q 434 634 434 1313 
Q 434 1759 690 2068 
Q 947 2378 1403 2484 
z
M 1172 3481 
Q 1172 3119 1398 2916 
Q 1625 2713 2034 2713 
Q 2441 2713 2670 2916 
Q 2900 3119 2900 3481 
Q 2900 3844 2670 4047 
Q 2441 4250 2034 4250 
Q 1625 4250 1398 4047 
Q 1172 3844 1172 3481 
z
" transform="scale(0.015625)"/>
       </defs>
       <use xlink:href="#DejaVuSans-38"/>
       <use xlink:href="#DejaVuSans-30" x="63.623047"/>
       <use xlink:href="#DejaVuSans-30" x="127.246094"/>
      </g>
     </g>
    </g>
    <g id="xtick_6">
     <g id="line2d_6">
      <g>
       <use xlink:href="#m6a838f763a" x="434.899716" y="308.63625" style="stroke: #000000; stroke-width: 0.8"/>
      </g>
     </g>
     <g id="text_6">
      <!-- 1000 -->
      <g transform="translate(409.449716 330.833125) scale(0.2 -0.2)">
       <defs>
        <path id="DejaVuSans-31" d="M 794 531 
L 1825 531 
L 1825 4091 
L 703 3866 
L 703 4441 
L 1819 4666 
L 2450 4666 
L 2450 531 
L 3481 531 
L 3481 0 
L 794 0 
L 794 531 
z
" transform="scale(0.015625)"/>
       </defs>
       <use xlink:href="#DejaVuSans-31"/>
       <use xlink:href="#DejaVuSans-30" x="63.623047"/>
       <use xlink:href="#DejaVuSans-30" x="127.246094"/>
       <use xlink:href="#DejaVuSans-30" x="190.869141"/>
      </g>
     </g>
    </g>
    <g id="xtick_7">
     <g id="line2d_7">
      <g>
       <use xlink:href="#m6a838f763a" x="498.308807" y="308.63625" style="stroke: #000000; stroke-width: 0.8"/>
      </g>
     </g>
     <g id="text_7">
      <!-- 1200 -->
      <g transform="translate(472.858807 330.833125) scale(0.2 -0.2)">
       <use xlink:href="#DejaVuSans-31"/>
       <use xlink:href="#DejaVuSans-32" x="63.623047"/>
       <use xlink:href="#DejaVuSans-30" x="127.246094"/>
       <use xlink:href="#DejaVuSans-30" x="190.869141"/>
      </g>
     </g>
    </g>
    <g id="xtick_8">
     <g id="line2d_8">
      <g>
       <use xlink:href="#m6a838f763a" x="561.717898" y="308.63625" style="stroke: #000000; stroke-width: 0.8"/>
      </g>
     </g>
     <g id="text_8">
      <!-- 1400 -->
      <g transform="translate(536.267898 330.833125) scale(0.2 -0.2)">
       <use xlink:href="#DejaVuSans-31"/>
       <use xlink:href="#DejaVuSans-34" x="63.623047"/>
       <use xlink:href="#DejaVuSans-30" x="127.246094"/>
       <use xlink:href="#DejaVuSans-30" x="190.869141"/>
      </g>
     </g>
    </g>
    <g id="xtick_9">
     <g id="line2d_9">
      <g>
       <use xlink:href="#m6a838f763a" x="625.126989" y="308.63625" style="stroke: #000000; stroke-width: 0.8"/>
      </g>
     </g>
     <g id="text_9">
      <!-- 1600 -->
      <g transform="translate(599.676989 330.833125) scale(0.2 -0.2)">
       <use xlink:href="#DejaVuSans-31"/>
       <use xlink:href="#DejaVuSans-36" x="63.623047"/>
       <use xlink:href="#DejaVuSans-30" x="127.246094"/>
       <use xlink:href="#DejaVuSans-30" x="190.869141"/>
      </g>
     </g>
    </g>
    <g id="text_10">
     <!-- iterations -->
     <g transform="translate(324.035938 354.189375) scale(0.2 -0.2)">
      <defs>
       <path id="DejaVuSans-69" d="M 603 3500 
L 1178 3500 
L 1178 0 
L 603 0 
L 603 3500 
z
M 603 4863 
L 1178 4863 
L 1178 4134 
L 603 4134 
L 603 4863 
z
" transform="scale(0.015625)"/>
       <path id="DejaVuSans-74" d="M 1172 4494 
L 1172 3500 
L 2356 3500 
L 2356 3053 
L 1172 3053 
L 1172 1153 
Q 1172 725 1289 603 
Q 1406 481 1766 481 
L 2356 481 
L 2356 0 
L 1766 0 
Q 1100 0 847 248 
Q 594 497 594 1153 
L 594 3053 
L 172 3053 
L 172 3500 
L 594 3500 
L 594 4494 
L 1172 4494 
z
" transform="scale(0.015625)"/>
       <path id="DejaVuSans-65" d="M 3597 1894 
L 3597 1613 
L 953 1613 
Q 991 1019 1311 708 
Q 1631 397 2203 397 
Q 2534 397 2845 478 
Q 3156 559 3463 722 
L 3463 178 
Q 3153 47 2828 -22 
Q 2503 -91 2169 -91 
Q 1331 -91 842 396 
Q 353 884 353 1716 
Q 353 2575 817 3079 
Q 1281 3584 2069 3584 
Q 2775 3584 3186 3129 
Q 3597 2675 3597 1894 
z
M 3022 2063 
Q 3016 2534 2758 2815 
Q 2500 3097 2075 3097 
Q 1594 3097 1305 2825 
Q 1016 2553 972 2059 
L 3022 2063 
z
" transform="scale(0.015625)"/>
       <path id="DejaVuSans-72" d="M 2631 2963 
Q 2534 3019 2420 3045 
Q 2306 3072 2169 3072 
Q 1681 3072 1420 2755 
Q 1159 2438 1159 1844 
L 1159 0 
L 581 0 
L 581 3500 
L 1159 3500 
L 1159 2956 
Q 1341 3275 1631 3429 
Q 1922 3584 2338 3584 
Q 2397 3584 2469 3576 
Q 2541 3569 2628 3553 
L 2631 2963 
z
" transform="scale(0.015625)"/>
       <path id="DejaVuSans-61" d="M 2194 1759 
Q 1497 1759 1228 1600 
Q 959 1441 959 1056 
Q 959 750 1161 570 
Q 1363 391 1709 391 
Q 2188 391 2477 730 
Q 2766 1069 2766 1631 
L 2766 1759 
L 2194 1759 
z
M 3341 1997 
L 3341 0 
L 2766 0 
L 2766 531 
Q 2569 213 2275 61 
Q 1981 -91 1556 -91 
Q 1019 -91 701 211 
Q 384 513 384 1019 
Q 384 1609 779 1909 
Q 1175 2209 1959 2209 
L 2766 2209 
L 2766 2266 
Q 2766 2663 2505 2880 
Q 2244 3097 1772 3097 
Q 1472 3097 1187 3025 
Q 903 2953 641 2809 
L 641 3341 
Q 956 3463 1253 3523 
Q 1550 3584 1831 3584 
Q 2591 3584 2966 3190 
Q 3341 2797 3341 1997 
z
" transform="scale(0.015625)"/>
       <path id="DejaVuSans-6f" d="M 1959 3097 
Q 1497 3097 1228 2736 
Q 959 2375 959 1747 
Q 959 1119 1226 758 
Q 1494 397 1959 397 
Q 2419 397 2687 759 
Q 2956 1122 2956 1747 
Q 2956 2369 2687 2733 
Q 2419 3097 1959 3097 
z
M 1959 3584 
Q 2709 3584 3137 3096 
Q 3566 2609 3566 1747 
Q 3566 888 3137 398 
Q 2709 -91 1959 -91 
Q 1206 -91 779 398 
Q 353 888 353 1747 
Q 353 2609 779 3096 
Q 1206 3584 1959 3584 
z
" transform="scale(0.015625)"/>
       <path id="DejaVuSans-6e" d="M 3513 2113 
L 3513 0 
L 2938 0 
L 2938 2094 
Q 2938 2591 2744 2837 
Q 2550 3084 2163 3084 
Q 1697 3084 1428 2787 
Q 1159 2491 1159 1978 
L 1159 0 
L 581 0 
L 581 3500 
L 1159 3500 
L 1159 2956 
Q 1366 3272 1645 3428 
Q 1925 3584 2291 3584 
Q 2894 3584 3203 3211 
Q 3513 2838 3513 2113 
z
" transform="scale(0.015625)"/>
       <path id="DejaVuSans-73" d="M 2834 3397 
L 2834 2853 
Q 2591 2978 2328 3040 
Q 2066 3103 1784 3103 
Q 1356 3103 1142 2972 
Q 928 2841 928 2578 
Q 928 2378 1081 2264 
Q 1234 2150 1697 2047 
L 1894 2003 
Q 2506 1872 2764 1633 
Q 3022 1394 3022 966 
Q 3022 478 2636 193 
Q 2250 -91 1575 -91 
Q 1294 -91 989 -36 
Q 684 19 347 128 
L 347 722 
Q 666 556 975 473 
Q 1284 391 1588 391 
Q 1994 391 2212 530 
Q 2431 669 2431 922 
Q 2431 1156 2273 1281 
Q 2116 1406 1581 1522 
L 1381 1569 
Q 847 1681 609 1914 
Q 372 2147 372 2553 
Q 372 3047 722 3315 
Q 1072 3584 1716 3584 
Q 2034 3584 2315 3537 
Q 2597 3491 2834 3397 
z
" transform="scale(0.015625)"/>
      </defs>
      <use xlink:href="#DejaVuSans-69"/>
      <use xlink:href="#DejaVuSans-74" x="27.783203"/>
      <use xlink:href="#DejaVuSans-65" x="66.992188"/>
      <use xlink:href="#DejaVuSans-72" x="128.515625"/>
      <use xlink:href="#DejaVuSans-61" x="169.628906"/>
      <use xlink:href="#DejaVuSans-74" x="230.908203"/>
      <use xlink:href="#DejaVuSans-69" x="270.117188"/>
      <use xlink:href="#DejaVuSans-6f" x="297.900391"/>
      <use xlink:href="#DejaVuSans-6e" x="359.082031"/>
      <use xlink:href="#DejaVuSans-73" x="422.460938"/>
     </g>
    </g>
   </g>
   <g id="matplotlib.axis_2">
    <g id="ytick_1">
     <g id="line2d_10">
      <defs>
       <path id="md3a08064c7" d="M 0 0 
L -3.5 0 
" style="stroke: #000000; stroke-width: 0.8"/>
      </defs>
      <g>
       <use xlink:href="#md3a08064c7" x="92.490625" y="302.634137" style="stroke: #000000; stroke-width: 0.8"/>
      </g>
     </g>
     <g id="text_11">
      <!-- −400 -->
      <g transform="translate(30.55625 310.232575) scale(0.2 -0.2)">
       <defs>
        <path id="DejaVuSans-2212" d="M 678 2272 
L 4684 2272 
L 4684 1741 
L 678 1741 
L 678 2272 
z
" transform="scale(0.015625)"/>
       </defs>
       <use xlink:href="#DejaVuSans-2212"/>
       <use xlink:href="#DejaVuSans-34" x="83.789062"/>
       <use xlink:href="#DejaVuSans-30" x="147.412109"/>
       <use xlink:href="#DejaVuSans-30" x="211.035156"/>
      </g>
     </g>
    </g>
    <g id="ytick_2">
     <g id="line2d_11">
      <g>
       <use xlink:href="#md3a08064c7" x="92.490625" y="217.204173" style="stroke: #000000; stroke-width: 0.8"/>
      </g>
     </g>
     <g id="text_12">
      <!-- −200 -->
      <g transform="translate(30.55625 224.802611) scale(0.2 -0.2)">
       <use xlink:href="#DejaVuSans-2212"/>
       <use xlink:href="#DejaVuSans-32" x="83.789062"/>
       <use xlink:href="#DejaVuSans-30" x="147.412109"/>
       <use xlink:href="#DejaVuSans-30" x="211.035156"/>
      </g>
     </g>
    </g>
    <g id="ytick_3">
     <g id="line2d_12">
      <g>
       <use xlink:href="#md3a08064c7" x="92.490625" y="131.77421" style="stroke: #000000; stroke-width: 0.8"/>
      </g>
     </g>
     <g id="text_13">
      <!-- 0 -->
      <g transform="translate(72.765625 139.372647) scale(0.2 -0.2)">
       <use xlink:href="#DejaVuSans-30"/>
      </g>
     </g>
    </g>
    <g id="ytick_4">
     <g id="line2d_13">
      <g>
       <use xlink:href="#md3a08064c7" x="92.490625" y="46.344246" style="stroke: #000000; stroke-width: 0.8"/>
      </g>
     </g>
     <g id="text_14">
      <!-- 200 -->
      <g transform="translate(47.315625 53.942683) scale(0.2 -0.2)">
       <use xlink:href="#DejaVuSans-32"/>
       <use xlink:href="#DejaVuSans-30" x="63.623047"/>
       <use xlink:href="#DejaVuSans-30" x="127.246094"/>
      </g>
     </g>
    </g>
    <g id="text_15">
     <!-- Loss -->
     <g transform="translate(22.396875 191.970625) rotate(-90) scale(0.2 -0.2)">
      <defs>
       <path id="DejaVuSans-4c" d="M 628 4666 
L 1259 4666 
L 1259 531 
L 3531 531 
L 3531 0 
L 628 0 
L 628 4666 
z
" transform="scale(0.015625)"/>
      </defs>
      <use xlink:href="#DejaVuSans-4c"/>
      <use xlink:href="#DejaVuSans-6f" x="53.962891"/>
      <use xlink:href="#DejaVuSans-73" x="115.144531"/>
      <use xlink:href="#DejaVuSans-73" x="167.244141"/>
     </g>
    </g>
   </g>
   <g id="line2d_14">
    <path d="M 117.854261 106.2005 
L 118.171307 95.293269 
L 118.488352 103.012934 
L 119.439489 44.03625 
L 119.756534 48.202048 
L 120.07358 79.082405 
L 120.390625 79.801139 
L 120.70767 95.039151 
L 121.024716 99.383912 
L 121.341761 110.005204 
L 121.975852 123.921766 
L 122.292898 136.222671 
L 122.609943 131.011891 
L 123.244034 146.066312 
L 123.56108 129.711857 
L 123.878125 135.776002 
L 124.19517 128.840387 
L 124.512216 145.744362 
L 124.829261 150.965648 
L 125.146307 141.047725 
L 125.463352 144.709483 
L 125.780398 146.730342 
L 126.097443 143.90278 
L 126.414489 148.88913 
L 126.731534 149.976643 
L 127.04858 151.914943 
L 127.365625 150.461138 
L 127.68267 156.209315 
L 127.999716 153.818163 
L 128.316761 152.769792 
L 128.633807 154.957248 
L 129.267898 148.919835 
L 129.584943 152.450257 
L 129.901989 149.30327 
L 130.219034 147.780732 
L 130.53608 148.375357 
L 130.853125 146.50394 
L 131.17017 148.745232 
L 131.487216 148.044137 
L 131.804261 150.657455 
L 132.121307 150.931957 
L 132.438352 148.202109 
L 132.755398 149.697081 
L 133.072443 148.719548 
L 133.389489 151.590814 
L 133.706534 149.238312 
L 134.02358 148.782451 
L 134.340625 146.91656 
L 134.65767 152.215016 
L 134.974716 147.648837 
L 135.291761 149.753192 
L 135.608807 147.694581 
L 135.925852 144.79521 
L 136.242898 145.921815 
L 136.559943 147.614704 
L 136.876989 147.130159 
L 137.194034 147.865317 
L 137.51108 146.770889 
L 137.828125 147.150497 
L 138.14517 146.202236 
L 138.462216 146.632383 
L 138.779261 147.881774 
L 139.096307 147.072561 
L 139.413352 147.95157 
L 139.730398 147.692356 
L 140.047443 147.157453 
L 140.364489 148.781308 
L 140.681534 148.414371 
L 141.315625 144.450993 
L 141.949716 143.911113 
L 142.266761 143.957386 
L 142.583807 142.36949 
L 142.900852 145.188605 
L 143.217898 146.418944 
L 143.534943 145.376387 
L 144.169034 142.843895 
L 144.48608 142.253463 
L 144.803125 142.717522 
L 145.12017 142.44384 
L 145.437216 142.872071 
L 145.754261 142.730961 
L 146.071307 143.888077 
L 146.388352 144.001604 
L 146.705398 142.574551 
L 147.022443 142.306426 
L 147.339489 142.937759 
L 147.656534 142.457902 
L 147.97358 143.531894 
L 148.290625 141.851198 
L 148.60767 144.015207 
L 149.241761 145.176547 
L 149.558807 147.614982 
L 149.875852 147.263937 
L 150.192898 144.073517 
L 150.509943 143.507762 
L 150.826989 144.077467 
L 151.144034 142.151502 
L 151.46108 141.557044 
L 151.778125 144.416611 
L 152.09517 145.316282 
L 152.412216 142.868472 
L 152.729261 144.028237 
L 153.046307 142.228375 
L 153.363352 142.014184 
L 153.680398 141.589126 
L 153.997443 141.571197 
L 154.631534 140.917898 
L 154.94858 140.346577 
L 155.265625 140.861824 
L 155.58267 140.111764 
L 155.899716 138.192451 
L 156.216761 138.269277 
L 156.533807 138.718045 
L 156.850852 140.156663 
L 157.167898 138.766498 
L 157.484943 138.279705 
L 157.801989 139.323794 
L 158.119034 139.525302 
L 158.43608 139.180249 
L 158.753125 140.239676 
L 159.07017 141.858362 
L 159.387216 138.938448 
L 159.704261 139.449096 
L 160.021307 140.336515 
L 160.338352 142.371394 
L 160.655398 139.956244 
L 160.972443 140.734341 
L 161.289489 139.937076 
L 161.606534 139.804026 
L 161.92358 138.205218 
L 162.240625 139.587032 
L 162.874716 141.119228 
L 163.191761 139.052084 
L 163.508807 139.736506 
L 163.825852 141.329343 
L 164.142898 140.279518 
L 164.459943 140.313563 
L 164.776989 139.700591 
L 165.094034 139.85989 
L 165.41108 139.097869 
L 166.04517 141.702979 
L 166.362216 140.54567 
L 166.679261 140.869427 
L 166.996307 142.201998 
L 167.313352 140.897605 
L 167.630398 141.391703 
L 168.264489 138.737702 
L 168.89858 142.102561 
L 169.215625 141.988356 
L 169.53267 142.147197 
L 169.849716 143.574172 
L 170.166761 140.636832 
L 170.800852 143.175611 
L 171.751989 140.19156 
L 172.069034 142.75052 
L 172.38608 142.302067 
L 172.703125 143.746324 
L 173.02017 144.672228 
L 173.337216 143.788992 
L 173.654261 143.74112 
L 173.971307 142.406016 
L 174.288352 142.586782 
L 174.605398 144.512704 
L 174.922443 144.272991 
L 175.239489 143.769912 
L 175.556534 142.060514 
L 175.87358 141.58127 
L 176.190625 142.216679 
L 176.50767 140.461817 
L 176.824716 140.28079 
L 177.141761 144.05529 
L 177.458807 141.60604 
L 177.775852 142.299131 
L 178.092898 142.238929 
L 178.726989 141.520141 
L 179.044034 141.800176 
L 179.36108 141.370555 
L 179.678125 142.011928 
L 179.99517 141.833753 
L 180.312216 141.437759 
L 180.629261 141.943321 
L 180.946307 140.528882 
L 181.263352 140.208809 
L 181.580398 140.703162 
L 181.897443 141.554831 
L 182.214489 141.715784 
L 182.531534 140.065541 
L 182.84858 141.359576 
L 183.165625 142.10316 
L 183.48267 141.443143 
L 183.799716 141.179998 
L 184.116761 141.369596 
L 184.433807 141.233448 
L 184.750852 141.781948 
L 185.067898 141.728105 
L 185.384943 140.068284 
L 185.701989 139.740699 
L 186.019034 139.729665 
L 186.33608 140.554805 
L 186.653125 139.720235 
L 186.97017 142.083062 
L 187.287216 142.270694 
L 187.604261 141.359614 
L 187.921307 141.262846 
L 188.238352 140.203036 
L 188.555398 139.631234 
L 188.872443 140.828401 
L 189.189489 140.658546 
L 189.506534 139.660707 
L 189.82358 141.033843 
L 190.140625 140.479054 
L 190.45767 138.908645 
L 191.091761 143.175718 
L 191.408807 140.912469 
L 191.725852 142.693637 
L 192.042898 141.13301 
L 192.359943 141.298107 
L 192.676989 141.917444 
L 193.31108 140.397574 
L 193.628125 139.672439 
L 194.262216 141.72895 
L 194.579261 141.955635 
L 194.896307 139.66056 
L 195.213352 141.115863 
L 195.847443 141.90842 
L 196.481534 141.271928 
L 196.79858 141.304225 
L 197.115625 140.883772 
L 197.43267 139.900049 
L 197.749716 141.93954 
L 198.383807 141.043629 
L 198.700852 141.257252 
L 199.017898 141.861299 
L 199.334943 141.081762 
L 199.651989 141.623368 
L 199.969034 143.065076 
L 200.28608 142.508555 
L 200.603125 142.223836 
L 201.237216 140.742288 
L 201.554261 141.250351 
L 201.871307 139.881919 
L 202.188352 140.100562 
L 202.822443 139.564669 
L 203.139489 141.857634 
L 203.456534 138.77274 
L 203.77358 140.420332 
L 204.090625 140.256908 
L 204.40767 140.257608 
L 204.724716 140.809362 
L 205.358807 139.187185 
L 205.675852 139.360426 
L 205.992898 140.556467 
L 206.309943 141.113111 
L 206.626989 140.86058 
L 206.944034 140.209854 
L 207.26108 141.105996 
L 207.578125 142.337483 
L 207.89517 140.07311 
L 208.212216 140.602043 
L 208.529261 140.125384 
L 208.846307 140.266199 
L 209.163352 139.772343 
L 209.480398 140.821142 
L 209.797443 141.145302 
L 210.431534 139.141903 
L 210.74858 138.844941 
L 211.065625 140.093781 
L 211.38267 140.315587 
L 211.699716 137.059576 
L 212.016761 135.341227 
L 212.967898 140.60994 
L 213.284943 140.872107 
L 213.601989 138.13094 
L 213.919034 140.283064 
L 214.23608 140.683787 
L 214.553125 139.987451 
L 214.87017 141.833527 
L 215.504261 140.417825 
L 215.821307 141.311646 
L 216.138352 139.75019 
L 216.455398 139.840337 
L 216.772443 139.798123 
L 217.406534 140.219814 
L 217.72358 140.689288 
L 218.040625 139.985053 
L 218.35767 140.275247 
L 218.674716 141.752186 
L 218.991761 140.095416 
L 219.308807 141.105599 
L 219.625852 143.034492 
L 219.942898 141.114813 
L 220.259943 140.737658 
L 220.576989 139.765443 
L 220.894034 139.957015 
L 221.21108 140.337908 
L 221.528125 139.574103 
L 221.84517 141.082953 
L 222.162216 141.206726 
L 222.479261 140.915457 
L 222.796307 142.191172 
L 223.113352 141.336998 
L 223.430398 139.692628 
L 223.747443 141.000938 
L 224.064489 140.909394 
L 224.381534 141.552779 
L 224.69858 141.729933 
L 225.015625 141.491486 
L 225.33267 142.667296 
L 225.649716 143.194822 
L 225.966761 144.093051 
L 226.283807 143.682404 
L 226.917898 141.641717 
L 227.234943 141.820165 
L 227.551989 142.997563 
L 227.869034 141.298489 
L 228.18608 141.845926 
L 228.503125 141.503955 
L 228.82017 141.585354 
L 229.137216 140.514449 
L 229.454261 141.485577 
L 229.771307 140.997126 
L 230.088352 140.769428 
L 230.722443 141.735172 
L 231.039489 140.479324 
L 231.356534 141.269145 
L 231.67358 141.301165 
L 231.990625 141.925125 
L 232.30767 141.219729 
L 232.941761 141.096262 
L 233.258807 140.000626 
L 233.892898 139.960953 
L 234.526989 140.42143 
L 234.844034 140.187129 
L 235.16108 140.646585 
L 235.478125 139.810883 
L 236.112216 141.080838 
L 236.429261 140.892541 
L 236.746307 140.117579 
L 237.380398 142.881143 
L 237.697443 142.215011 
L 238.014489 144.099605 
L 238.331534 142.123466 
L 238.64858 142.008462 
L 238.965625 143.050816 
L 239.28267 143.273704 
L 239.599716 142.733912 
L 240.233807 142.832352 
L 240.550852 143.021904 
L 240.867898 142.349658 
L 241.501989 137.554799 
L 241.819034 138.422193 
L 242.13608 132.055602 
L 242.453125 134.866361 
L 242.77017 134.561206 
L 243.087216 133.41717 
L 243.404261 135.528764 
L 243.721307 136.720811 
L 244.038352 136.13275 
L 244.355398 135.806208 
L 244.672443 136.480411 
L 244.989489 138.091589 
L 245.306534 136.412065 
L 245.62358 137.985223 
L 245.940625 135.259883 
L 246.25767 135.859338 
L 246.574716 138.030001 
L 246.891761 137.059151 
L 247.208807 137.169758 
L 247.842898 137.964406 
L 248.159943 137.214489 
L 248.476989 139.789964 
L 248.794034 137.311494 
L 249.11108 137.75856 
L 249.428125 136.925339 
L 249.74517 138.246034 
L 250.062216 138.538797 
L 250.696307 137.244467 
L 251.013352 137.332561 
L 251.330398 138.162987 
L 251.647443 139.382702 
L 251.964489 139.12165 
L 252.281534 139.495137 
L 252.59858 138.611615 
L 252.915625 139.669447 
L 253.23267 138.210561 
L 253.549716 138.305335 
L 253.866761 138.008384 
L 254.183807 139.328819 
L 254.817898 140.156714 
L 255.134943 138.932544 
L 255.451989 138.754762 
L 255.769034 139.030795 
L 256.08608 138.952323 
L 256.403125 139.121641 
L 256.72017 140.201292 
L 257.037216 139.344131 
L 257.354261 139.197042 
L 257.671307 138.278273 
L 257.988352 138.508022 
L 258.305398 138.928114 
L 258.622443 139.093599 
L 258.939489 137.836699 
L 259.256534 138.794698 
L 259.57358 138.254888 
L 259.890625 138.845994 
L 260.524716 138.481943 
L 260.841761 138.543332 
L 261.158807 139.458534 
L 261.475852 139.400961 
L 261.792898 138.988463 
L 262.109943 139.400857 
L 262.744034 139.713892 
L 263.06108 138.52745 
L 263.378125 138.883596 
L 263.69517 138.448987 
L 264.012216 138.319017 
L 264.329261 138.571678 
L 264.646307 138.662684 
L 264.963352 137.842678 
L 265.280398 135.218979 
L 265.597443 138.010515 
L 265.914489 138.464266 
L 266.231534 138.319968 
L 266.54858 137.344796 
L 266.865625 138.605089 
L 267.18267 137.813948 
L 267.499716 138.046748 
L 267.816761 137.479783 
L 268.133807 136.591293 
L 268.450852 137.926346 
L 268.767898 137.861248 
L 269.084943 136.996455 
L 269.401989 137.050665 
L 269.719034 138.010305 
L 270.03608 138.448217 
L 270.353125 138.694624 
L 270.67017 138.761858 
L 271.304261 140.097669 
L 271.621307 139.199145 
L 271.938352 137.932704 
L 272.255398 138.902771 
L 272.889489 138.133353 
L 273.206534 138.959948 
L 273.52358 138.016238 
L 273.840625 137.78253 
L 274.15767 137.728585 
L 274.474716 137.35183 
L 274.791761 137.534918 
L 275.108807 137.881135 
L 275.425852 138.773509 
L 275.742898 137.980029 
L 276.059943 138.889815 
L 276.376989 137.860111 
L 276.694034 138.036439 
L 277.01108 138.682241 
L 277.328125 138.314265 
L 277.64517 138.331096 
L 277.962216 137.975421 
L 278.279261 138.03331 
L 278.596307 137.462769 
L 279.230398 137.971204 
L 279.547443 136.936308 
L 280.181534 137.163446 
L 280.49858 136.945668 
L 280.815625 137.695802 
L 281.13267 136.666571 
L 281.766761 137.865413 
L 282.083807 137.993014 
L 282.400852 137.847084 
L 282.717898 137.570795 
L 283.034943 136.849702 
L 283.351989 136.520589 
L 283.669034 137.561634 
L 283.98608 137.1365 
L 284.303125 138.046185 
L 284.62017 138.348643 
L 284.937216 138.44306 
L 285.254261 139.473834 
L 285.571307 137.994971 
L 285.888352 137.455932 
L 286.205398 138.067411 
L 286.522443 136.619139 
L 286.839489 138.785743 
L 287.156534 139.265789 
L 287.47358 138.050721 
L 287.790625 137.452075 
L 288.10767 137.196439 
L 288.741761 137.461782 
L 289.058807 137.178265 
L 289.375852 137.207842 
L 289.692898 136.974012 
L 290.009943 136.468116 
L 290.326989 137.169727 
L 290.644034 136.737413 
L 290.96108 136.622805 
L 291.278125 136.073681 
L 291.912216 137.120078 
L 292.229261 137.538276 
L 292.546307 136.916957 
L 292.863352 137.634816 
L 293.180398 137.687123 
L 293.814489 137.053208 
L 294.131534 137.171977 
L 294.44858 136.119652 
L 295.08267 137.155649 
L 295.399716 137.444766 
L 295.716761 136.953323 
L 296.033807 137.350013 
L 296.350852 136.734804 
L 296.667898 137.127647 
L 296.984943 137.106146 
L 297.301989 137.874954 
L 297.93608 136.361402 
L 298.57017 136.849697 
L 299.204261 134.241547 
L 299.521307 136.899911 
L 299.838352 136.342973 
L 300.155398 136.228016 
L 301.42358 136.706342 
L 301.740625 136.869315 
L 302.05767 136.33684 
L 303.008807 137.581438 
L 303.325852 135.582046 
L 303.642898 136.373064 
L 303.959943 137.498191 
L 304.276989 137.813393 
L 304.594034 137.086298 
L 304.91108 137.29387 
L 305.228125 137.108462 
L 305.54517 136.084374 
L 305.862216 136.844782 
L 306.179261 136.988736 
L 306.496307 137.411758 
L 307.130398 136.106455 
L 307.764489 136.51944 
L 308.081534 135.882837 
L 308.39858 136.073613 
L 308.715625 135.850292 
L 309.03267 136.100725 
L 309.666761 136.108632 
L 309.983807 135.828179 
L 310.300852 136.1602 
L 310.617898 136.707869 
L 310.934943 136.149004 
L 311.88608 136.572805 
L 312.203125 137.021043 
L 312.52017 136.4219 
L 312.837216 136.142106 
L 313.154261 135.461237 
L 313.471307 135.596975 
L 313.788352 136.081031 
L 314.105398 135.256443 
L 314.422443 135.401509 
L 314.739489 135.863794 
L 315.056534 136.049282 
L 315.690625 136.082332 
L 316.00767 135.295614 
L 316.324716 135.666634 
L 316.958807 135.688449 
L 317.275852 136.232149 
L 317.592898 135.877666 
L 317.909943 136.300032 
L 318.226989 136.432592 
L 318.544034 136.122437 
L 318.86108 136.112765 
L 319.178125 135.949342 
L 319.49517 136.170976 
L 319.812216 135.781494 
L 320.129261 135.988328 
L 320.446307 135.614457 
L 320.763352 135.939048 
L 321.080398 136.43697 
L 321.397443 136.129037 
L 321.714489 136.096426 
L 322.031534 135.921403 
L 322.34858 136.329532 
L 322.665625 136.17576 
L 322.98267 135.65699 
L 323.299716 136.279294 
L 323.616761 136.500145 
L 323.933807 135.696272 
L 324.250852 136.36883 
L 324.567898 136.247871 
L 324.884943 136.299498 
L 325.201989 136.488781 
L 325.519034 136.973567 
L 325.83608 136.304268 
L 326.153125 136.330158 
L 326.47017 136.094115 
L 326.787216 136.278516 
L 327.104261 136.655856 
L 327.738352 135.975214 
L 328.055398 136.062842 
L 328.372443 136.989963 
L 328.689489 136.174814 
L 329.006534 136.352754 
L 329.32358 136.046591 
L 329.95767 136.741842 
L 330.591761 136.308043 
L 331.225852 136.412575 
L 331.542898 136.256258 
L 331.859943 136.243733 
L 332.176989 135.969769 
L 332.494034 136.447005 
L 332.81108 136.228819 
L 333.128125 135.583517 
L 333.44517 136.126575 
L 333.762216 135.437809 
L 334.396307 136.777977 
L 334.713352 136.650424 
L 335.030398 136.109806 
L 335.347443 135.87718 
L 335.664489 135.464379 
L 335.981534 136.186942 
L 336.29858 135.510729 
L 336.615625 135.690783 
L 336.93267 135.681079 
L 337.249716 135.049192 
L 337.883807 136.397189 
L 338.200852 136.092844 
L 338.517898 135.618005 
L 338.834943 135.904495 
L 339.151989 135.914915 
L 339.469034 135.682521 
L 339.78608 135.297348 
L 340.103125 135.991756 
L 340.42017 136.358904 
L 340.737216 135.625632 
L 341.054261 135.514374 
L 341.371307 135.661709 
L 341.688352 135.308409 
L 342.005398 135.583512 
L 342.322443 136.138664 
L 342.639489 136.330005 
L 342.956534 135.833166 
L 343.590625 135.626877 
L 343.90767 135.369325 
L 344.224716 135.594507 
L 344.541761 135.559485 
L 345.175852 135.299478 
L 345.809943 135.540724 
L 346.126989 135.716112 
L 346.444034 136.159471 
L 346.76108 135.895603 
L 347.078125 136.000266 
L 348.029261 135.536491 
L 348.346307 135.174508 
L 348.980398 134.961843 
L 349.297443 135.249773 
L 349.614489 134.443571 
L 349.931534 135.162222 
L 350.24858 134.872528 
L 350.565625 135.188241 
L 351.199716 135.232589 
L 351.516761 134.78266 
L 351.833807 135.171865 
L 352.150852 134.797564 
L 352.467898 134.110081 
L 353.101989 135.20356 
L 353.419034 135.10371 
L 354.687216 135.818764 
L 355.004261 135.561679 
L 355.321307 135.151209 
L 355.638352 135.49031 
L 355.955398 135.618302 
L 356.272443 136.388838 
L 356.589489 136.160422 
L 356.906534 135.495102 
L 357.540625 135.165166 
L 357.85767 135.163086 
L 358.174716 134.98196 
L 358.491761 135.407177 
L 358.808807 135.167381 
L 359.442898 135.336748 
L 359.759943 135.753255 
L 360.076989 135.361153 
L 360.394034 135.841382 
L 360.71108 135.971655 
L 361.028125 135.933876 
L 361.34517 135.721156 
L 361.662216 135.913284 
L 362.613352 134.914567 
L 362.930398 134.84309 
L 363.247443 135.752349 
L 363.564489 135.282003 
L 363.881534 135.302825 
L 364.19858 135.436666 
L 364.515625 135.156597 
L 364.83267 135.590775 
L 365.466761 135.526253 
L 365.783807 134.718205 
L 366.100852 135.268665 
L 366.417898 135.069055 
L 366.734943 134.730947 
L 367.051989 134.875418 
L 367.369034 133.996211 
L 367.68608 134.768028 
L 368.32017 133.88634 
L 368.637216 134.532146 
L 368.954261 134.507239 
L 369.271307 134.882502 
L 369.905398 134.17844 
L 370.222443 134.304131 
L 370.539489 134.899456 
L 371.17358 135.135487 
L 371.490625 134.422653 
L 371.80767 134.3739 
L 372.124716 134.932442 
L 372.441761 134.59162 
L 372.758807 135.018018 
L 373.075852 134.859407 
L 373.392898 134.372028 
L 373.709943 134.899499 
L 374.026989 134.892124 
L 374.344034 134.687151 
L 374.978125 135.223162 
L 375.29517 134.212132 
L 375.929261 133.174699 
L 376.246307 133.272306 
L 376.880398 133.84518 
L 377.197443 134.149704 
L 377.514489 133.969189 
L 378.14858 134.287678 
L 378.465625 134.410299 
L 378.78267 134.200793 
L 379.099716 133.795636 
L 379.416761 134.127718 
L 380.367898 133.721318 
L 380.684943 133.18287 
L 381.001989 133.365968 
L 381.63608 133.367984 
L 381.953125 133.38229 
L 382.27017 133.606401 
L 382.904261 133.69395 
L 383.221307 132.989034 
L 383.538352 133.429298 
L 383.855398 133.03247 
L 384.172443 133.827186 
L 384.489489 133.563869 
L 384.806534 133.63808 
L 385.12358 133.25143 
L 385.440625 133.847816 
L 385.75767 132.81338 
L 386.074716 133.119048 
L 386.391761 133.748302 
L 387.342898 133.723852 
L 387.659943 133.122644 
L 387.976989 133.346298 
L 388.294034 133.318325 
L 388.61108 133.597174 
L 388.928125 134.068784 
L 389.24517 133.79123 
L 389.562216 134.290194 
L 389.879261 133.361079 
L 390.196307 134.101199 
L 390.830398 133.317434 
L 391.464489 134.098508 
L 391.781534 134.257123 
L 392.09858 133.783905 
L 393.049716 134.286862 
L 393.366761 133.925185 
L 394.000852 133.787017 
L 394.317898 133.22301 
L 394.634943 133.679311 
L 394.951989 133.740258 
L 395.269034 133.578935 
L 395.58608 133.665019 
L 395.903125 133.247009 
L 396.22017 134.248351 
L 397.171307 133.447514 
L 397.488352 133.525427 
L 397.805398 134.057009 
L 398.122443 133.941756 
L 398.439489 134.341268 
L 398.756534 133.498835 
L 399.07358 133.500623 
L 399.390625 133.725678 
L 399.70767 133.744215 
L 400.024716 134.141878 
L 400.341761 134.083056 
L 400.658807 133.577507 
L 400.975852 133.850145 
L 401.292898 133.338157 
L 401.609943 133.756134 
L 402.244034 133.523479 
L 402.878125 133.938458 
L 403.19517 133.672841 
L 403.512216 133.174995 
L 403.829261 133.509287 
L 404.146307 133.589827 
L 404.463352 133.355684 
L 404.780398 133.682031 
L 405.097443 133.348062 
L 405.414489 133.633207 
L 405.731534 133.332448 
L 406.04858 133.269391 
L 406.365625 133.339852 
L 406.68267 134.075909 
L 406.999716 133.296726 
L 407.316761 133.509579 
L 407.633807 134.262304 
L 407.950852 133.874039 
L 408.267898 133.964944 
L 408.584943 133.225443 
L 408.901989 133.731248 
L 409.219034 133.718912 
L 409.53608 133.171953 
L 409.853125 134.114996 
L 410.17017 133.541133 
L 410.487216 133.745587 
L 410.804261 133.639582 
L 411.438352 133.98394 
L 411.755398 133.737046 
L 412.072443 134.383642 
L 412.389489 133.591144 
L 412.706534 134.077746 
L 413.340625 133.462714 
L 413.65767 134.359715 
L 413.974716 133.782084 
L 414.608807 133.624843 
L 414.925852 133.689008 
L 415.242898 133.119809 
L 415.559943 133.45529 
L 415.876989 134.265179 
L 416.194034 133.556367 
L 416.828125 133.959625 
L 417.14517 133.779838 
L 417.462216 133.796177 
L 417.779261 133.629255 
L 418.096307 133.721854 
L 418.413352 134.208296 
L 418.730398 133.824729 
L 419.364489 133.94537 
L 419.681534 134.409898 
L 419.99858 134.413978 
L 420.315625 134.212108 
L 420.63267 134.154598 
L 420.949716 133.633354 
L 421.266761 133.939832 
L 421.583807 133.880872 
L 421.900852 134.137658 
L 422.217898 134.220815 
L 422.534943 133.591722 
L 422.851989 134.118703 
L 423.169034 134.224359 
L 423.48608 133.906639 
L 424.12017 133.821139 
L 424.437216 134.290437 
L 424.754261 133.669888 
L 425.388352 133.800014 
L 425.705398 133.409668 
L 426.022443 133.570721 
L 426.339489 133.29868 
L 426.656534 133.338362 
L 427.290625 132.874629 
L 427.60767 133.554964 
L 428.241761 133.682078 
L 428.558807 133.133137 
L 428.875852 133.447068 
L 429.192898 133.19927 
L 429.509943 133.440321 
L 429.826989 133.989143 
L 430.144034 133.524381 
L 430.46108 133.683299 
L 430.778125 133.321739 
L 431.09517 133.816814 
L 431.412216 133.164358 
L 431.729261 133.524765 
L 432.046307 133.568814 
L 432.363352 132.879766 
L 432.997443 133.432651 
L 433.631534 132.646281 
L 434.58267 133.272574 
L 435.216761 132.991604 
L 435.533807 133.613692 
L 435.850852 133.323713 
L 436.167898 133.8403 
L 436.484943 133.311479 
L 436.801989 133.208811 
L 437.119034 133.802983 
L 437.43608 133.365115 
L 437.753125 134.213456 
L 438.07017 133.685005 
L 438.387216 133.507192 
L 438.704261 133.890785 
L 439.021307 133.384813 
L 439.338352 133.749393 
L 439.972443 132.871347 
L 440.289489 133.346591 
L 440.606534 133.587691 
L 440.92358 133.486121 
L 441.240625 132.862872 
L 441.55767 133.768157 
L 441.874716 133.106498 
L 442.191761 133.3698 
L 442.508807 133.342733 
L 442.825852 133.930408 
L 443.142898 133.442902 
L 443.459943 133.921701 
L 443.776989 134.116494 
L 444.094034 133.666852 
L 444.41108 133.656898 
L 444.728125 133.853067 
L 445.362216 133.536329 
L 445.679261 133.795304 
L 445.996307 133.557456 
L 446.313352 133.574365 
L 446.630398 134.065053 
L 446.947443 133.671927 
L 447.264489 134.018471 
L 447.581534 133.817169 
L 447.89858 133.429168 
L 448.215625 133.988294 
L 448.849716 133.652501 
L 449.166761 133.412357 
L 449.483807 133.949705 
L 449.800852 133.672097 
L 450.117898 133.673621 
L 450.434943 133.486624 
L 450.751989 134.007508 
L 451.38608 133.679841 
L 451.703125 133.816773 
L 452.02017 133.465657 
L 452.337216 133.724066 
L 452.971307 133.704133 
L 453.288352 134.280218 
L 453.605398 134.182571 
L 453.922443 133.793567 
L 455.190625 133.613779 
L 455.50767 133.66944 
L 455.824716 133.962676 
L 456.141761 133.138681 
L 456.458807 133.477864 
L 457.092898 133.239464 
L 457.409943 133.494443 
L 457.726989 133.587971 
L 458.044034 133.357063 
L 458.36108 133.656181 
L 458.678125 133.263856 
L 458.99517 133.285078 
L 459.312216 133.509148 
L 459.629261 133.190702 
L 459.946307 133.503335 
L 460.580398 133.629949 
L 460.897443 133.344778 
L 461.214489 133.398079 
L 461.531534 133.121755 
L 462.165625 133.730633 
L 462.48267 133.245562 
L 462.799716 133.978318 
L 463.116761 133.16097 
L 463.433807 133.852953 
L 463.750852 133.485483 
L 464.384943 133.682527 
L 464.701989 133.626341 
L 465.019034 133.344804 
L 465.33608 133.802927 
L 465.653125 133.204786 
L 465.97017 133.820391 
L 466.287216 133.629043 
L 466.604261 133.187673 
L 466.921307 133.385359 
L 467.238352 134.06406 
L 467.555398 134.071334 
L 467.872443 133.864271 
L 468.189489 134.189885 
L 468.506534 133.202208 
L 468.82358 133.754956 
L 469.45767 133.477847 
L 469.774716 133.458642 
L 470.091761 133.163407 
L 470.408807 133.469069 
L 470.725852 133.260811 
L 471.042898 133.645594 
L 471.359943 133.843693 
L 472.628125 133.63294 
L 472.94517 133.606733 
L 473.262216 133.71714 
L 473.579261 134.159871 
L 474.213352 133.352835 
L 474.530398 133.802447 
L 474.847443 133.41375 
L 475.164489 133.327196 
L 475.79858 134.132889 
L 476.115625 133.895268 
L 476.43267 133.966498 
L 477.066761 133.499926 
L 477.383807 133.032398 
L 477.700852 133.402036 
L 478.017898 133.198782 
L 478.334943 133.370991 
L 478.651989 133.804332 
L 478.969034 133.272764 
L 479.28608 133.194095 
L 479.603125 133.275648 
L 479.92017 133.562954 
L 480.237216 132.919089 
L 480.554261 133.414528 
L 480.871307 133.501233 
L 481.188352 133.223137 
L 481.505398 133.430738 
L 482.139489 133.402505 
L 482.456534 133.048817 
L 483.090625 133.524706 
L 484.041761 133.397559 
L 484.358807 133.178836 
L 484.675852 133.48024 
L 485.309943 133.411004 
L 485.626989 133.45608 
L 485.944034 133.637979 
L 486.26108 133.508621 
L 486.578125 133.614479 
L 487.212216 133.197024 
L 487.529261 133.287037 
L 487.846307 133.095001 
L 488.163352 133.461812 
L 488.797443 133.543602 
L 489.114489 133.541016 
L 489.431534 133.180331 
L 489.74858 133.513429 
L 490.065625 133.512931 
L 490.38267 133.713001 
L 490.699716 133.303676 
L 491.016761 133.556086 
L 491.333807 133.095766 
L 491.650852 132.98621 
L 491.967898 133.051829 
L 492.284943 133.478949 
L 492.601989 133.115973 
L 492.919034 133.740786 
L 493.23608 133.839542 
L 493.553125 133.468676 
L 494.187216 133.555256 
L 494.504261 133.213695 
L 494.821307 133.205743 
L 495.138352 133.357538 
L 495.772443 133.152793 
L 496.089489 132.949032 
L 496.406534 133.552519 
L 496.72358 133.894638 
L 497.674716 133.380543 
L 497.991761 133.536658 
L 498.308807 133.558725 
L 498.625852 133.214561 
L 498.942898 133.643123 
L 499.259943 133.055748 
L 499.576989 133.221317 
L 499.894034 132.847661 
L 500.21108 133.340353 
L 500.528125 132.923971 
L 500.84517 133.406935 
L 501.479261 133.125809 
L 501.796307 132.754376 
L 502.113352 133.096324 
L 502.430398 133.264959 
L 502.747443 133.102785 
L 503.69858 133.206293 
L 504.015625 132.929643 
L 504.33267 132.85841 
L 504.649716 133.127653 
L 504.966761 132.614566 
L 505.283807 133.152095 
L 505.600852 133.132396 
L 505.917898 133.677044 
L 507.18608 133.066557 
L 507.503125 133.547876 
L 507.82017 133.104482 
L 508.137216 133.410184 
L 508.771307 132.882414 
L 509.405398 133.262368 
L 509.722443 132.875781 
L 510.039489 133.682351 
L 510.356534 133.561901 
L 510.67358 133.31382 
L 511.941761 133.688047 
L 512.258807 133.501951 
L 512.575852 134.055005 
L 512.892898 133.978964 
L 513.209943 133.264636 
L 513.526989 133.115728 
L 513.844034 133.352063 
L 514.16108 133.943445 
L 514.478125 133.340084 
L 514.79517 134.260975 
L 515.112216 133.834446 
L 515.746307 133.996613 
L 516.063352 133.885604 
L 516.380398 133.991823 
L 516.697443 133.573233 
L 517.014489 134.035186 
L 517.331534 133.294769 
L 517.64858 133.533721 
L 517.965625 133.585485 
L 518.28267 133.423743 
L 518.916761 133.469331 
L 519.233807 133.163102 
L 519.550852 133.550982 
L 519.867898 132.939788 
L 520.184943 132.905495 
L 521.13608 133.757691 
L 521.77017 133.779051 
L 522.087216 133.554694 
L 522.404261 133.488777 
L 522.721307 133.67462 
L 523.038352 133.300419 
L 523.355398 134.023739 
L 523.672443 133.721857 
L 523.989489 133.773785 
L 524.306534 133.605507 
L 524.940625 133.733727 
L 525.25767 133.574946 
L 525.574716 133.568843 
L 525.891761 133.705693 
L 526.208807 134.161822 
L 526.525852 133.6166 
L 526.842898 133.469915 
L 527.159943 133.617283 
L 527.476989 133.550616 
L 527.794034 133.311007 
L 528.11108 133.545411 
L 528.428125 133.434721 
L 528.74517 134.044545 
L 529.062216 133.562431 
L 529.696307 133.662799 
L 530.013352 134.25223 
L 530.647443 133.830445 
L 530.964489 133.91154 
L 531.281534 134.125462 
L 531.59858 134.132624 
L 531.915625 134.022513 
L 532.23267 134.155523 
L 533.183807 134.112649 
L 533.500852 134.392292 
L 533.817898 134.111006 
L 534.134943 133.643302 
L 534.451989 133.480459 
L 534.769034 134.127931 
L 535.08608 133.948662 
L 535.403125 134.101661 
L 535.72017 133.935502 
L 536.037216 134.047885 
L 536.354261 133.987176 
L 536.671307 134.426366 
L 536.988352 133.973074 
L 537.305398 134.089249 
L 537.622443 133.745392 
L 538.890625 134.018639 
L 539.20767 134.645793 
L 539.524716 134.402008 
L 539.841761 134.324624 
L 540.158807 134.089843 
L 540.475852 134.643949 
L 540.792898 134.268077 
L 541.109943 134.296591 
L 541.426989 128.4951 
L 541.744034 133.06378 
L 542.06108 132.762883 
L 542.378125 133.632626 
L 542.69517 133.452286 
L 543.012216 130.632767 
L 543.329261 131.899101 
L 543.646307 131.469697 
L 543.963352 132.544199 
L 544.280398 131.606477 
L 544.597443 132.168989 
L 545.231534 132.136761 
L 545.54858 132.544201 
L 546.18267 132.275052 
L 546.499716 132.770558 
L 546.816761 131.579167 
L 547.133807 131.664046 
L 547.450852 132.197307 
L 547.767898 131.783813 
L 548.401989 132.19429 
L 549.03608 131.238354 
L 549.353125 131.602382 
L 549.987216 131.430303 
L 550.304261 131.595987 
L 550.621307 131.543764 
L 550.938352 131.605972 
L 551.255398 131.951906 
L 551.572443 131.384025 
L 551.889489 131.493101 
L 552.206534 132.069889 
L 552.840625 131.169773 
L 553.15767 131.342578 
L 553.474716 131.851567 
L 553.791761 131.702798 
L 554.108807 132.520542 
L 554.742898 131.766302 
L 555.059943 131.901861 
L 556.01108 131.424401 
L 556.328125 131.103552 
L 556.64517 131.697393 
L 556.962216 131.659645 
L 557.596307 132.231712 
L 557.913352 131.41015 
L 558.230398 131.242868 
L 558.547443 131.605083 
L 558.864489 131.775909 
L 560.13267 131.532535 
L 560.449716 131.908589 
L 560.766761 131.630847 
L 561.400852 131.899684 
L 561.717898 131.611282 
L 562.034943 131.832358 
L 562.351989 131.606833 
L 562.669034 132.106438 
L 562.98608 131.665492 
L 563.62017 131.91316 
L 564.254261 131.400201 
L 564.571307 131.942553 
L 564.888352 131.899724 
L 565.205398 131.419441 
L 565.522443 131.770555 
L 565.839489 131.865228 
L 566.156534 131.687479 
L 566.47358 132.265312 
L 566.790625 132.177732 
L 567.10767 132.255866 
L 567.741761 132.737894 
L 568.375852 132.342532 
L 568.692898 132.613875 
L 570.278125 132.623211 
L 570.59517 132.719099 
L 570.912216 132.662839 
L 571.546307 132.947981 
L 571.863352 132.608328 
L 572.180398 132.465675 
L 572.497443 132.645573 
L 573.131534 132.463296 
L 573.44858 132.512359 
L 573.765625 133.109284 
L 574.08267 132.393327 
L 574.716761 132.930951 
L 575.350852 132.676485 
L 575.667898 133.157887 
L 575.984943 133.128052 
L 576.301989 133.334836 
L 576.619034 132.483829 
L 577.253125 133.612001 
L 577.57017 133.410875 
L 577.887216 133.413983 
L 578.204261 133.219052 
L 578.521307 133.339011 
L 578.838352 133.240741 
L 579.472443 133.3735 
L 579.789489 133.705691 
L 580.106534 133.378482 
L 580.42358 133.467583 
L 581.05767 133.030813 
L 581.374716 133.163129 
L 581.691761 133.609123 
L 582.008807 133.552787 
L 582.325852 133.237169 
L 582.642898 133.397606 
L 582.959943 133.385449 
L 583.276989 133.616228 
L 583.594034 133.62044 
L 583.91108 133.505081 
L 584.228125 132.909205 
L 584.54517 133.424216 
L 584.862216 133.248487 
L 585.496307 133.954763 
L 585.813352 133.39459 
L 586.130398 133.192544 
L 586.447443 133.475854 
L 587.081534 133.227327 
L 587.39858 133.879328 
L 587.715625 133.593549 
L 588.03267 133.513608 
L 588.666761 133.507247 
L 588.983807 132.989089 
L 589.300852 133.852336 
L 589.617898 133.39191 
L 589.934943 133.179288 
L 590.251989 133.243573 
L 590.569034 133.720178 
L 590.88608 133.356304 
L 591.52017 133.555339 
L 591.837216 133.380039 
L 592.154261 133.070945 
L 592.471307 133.481531 
L 593.105398 133.71916 
L 593.422443 133.999381 
L 593.739489 133.021841 
L 594.056534 133.343982 
L 594.37358 133.159247 
L 594.690625 133.130749 
L 595.324716 133.643666 
L 595.641761 133.293311 
L 596.275852 133.73721 
L 596.592898 133.577207 
L 596.909943 133.707755 
L 597.226989 133.306789 
L 597.544034 133.571871 
L 598.178125 133.720499 
L 598.49517 133.206557 
L 598.812216 133.224589 
L 599.129261 133.005408 
L 599.446307 133.565755 
L 599.763352 133.321595 
L 600.080398 133.538084 
L 600.397443 133.24378 
L 601.031534 133.56587 
L 602.299716 133.597218 
L 602.616761 132.964541 
L 602.933807 133.442924 
L 603.250852 133.329932 
L 603.567898 133.549053 
L 603.884943 133.47087 
L 604.201989 133.688834 
L 604.519034 133.75959 
L 605.47017 133.593001 
L 605.787216 133.243237 
L 606.104261 133.261685 
L 606.421307 132.831623 
L 606.738352 133.584249 
L 607.055398 133.717253 
L 608.32358 133.394923 
L 608.640625 133.182757 
L 608.95767 133.55984 
L 609.274716 133.306622 
L 609.591761 133.931486 
L 609.908807 133.734299 
L 610.225852 133.950156 
L 610.859943 133.358623 
L 611.176989 133.709294 
L 611.494034 133.524751 
L 611.81108 134.138031 
L 612.44517 133.584397 
L 612.762216 133.960926 
L 613.396307 133.345977 
L 614.347443 134.28498 
L 614.664489 134.324252 
L 614.981534 134.068428 
L 615.29858 134.36977 
L 615.615625 134.109685 
L 615.93267 134.152456 
L 616.249716 133.676455 
L 616.566761 133.793168 
L 616.883807 133.687458 
L 617.200852 133.931888 
L 617.517898 134.031267 
L 617.834943 133.669618 
L 618.151989 134.010455 
L 618.469034 133.927137 
L 618.78608 134.232078 
L 619.103125 133.609581 
L 619.42017 133.56636 
L 619.737216 133.717779 
L 620.054261 134.079197 
L 620.371307 133.713032 
L 620.688352 134.02718 
L 621.005398 133.706326 
L 621.322443 133.597943 
L 621.639489 134.129984 
L 621.956534 133.895988 
L 622.27358 134.101821 
L 622.590625 133.794042 
L 623.224716 134.106518 
L 623.541761 133.637042 
L 623.858807 133.51272 
L 624.492898 134.387185 
L 624.809943 133.762203 
L 625.126989 133.71833 
L 625.126989 133.71833 
" clip-path="url(#p50c302dc0c)" style="fill: none; stroke: #1f77b4; stroke-width: 1.5; stroke-linecap: square"/>
   </g>
   <g id="line2d_15">
    <path d="M 117.854261 296.03625 
L 118.488352 203.288765 
L 118.805398 205.049939 
L 119.122443 206.143459 
L 119.439489 203.498942 
L 119.756534 186.685966 
L 120.07358 205.438172 
L 120.390625 185.019453 
L 120.70767 179.820324 
L 121.024716 180.821211 
L 121.341761 180.813717 
L 121.658807 182.146734 
L 121.975852 178.799757 
L 122.292898 180.178391 
L 122.609943 168.962548 
L 122.926989 174.973676 
L 123.244034 174.142921 
L 123.878125 177.47744 
L 124.19517 178.02884 
L 124.512216 164.487503 
L 124.829261 166.986542 
L 125.146307 163.693045 
L 125.463352 167.581344 
L 125.780398 164.551672 
L 126.097443 164.242989 
L 126.414489 164.583071 
L 126.731534 158.927573 
L 127.04858 159.597491 
L 127.365625 163.332655 
L 127.68267 159.064405 
L 127.999716 157.226609 
L 128.633807 160.114653 
L 128.950852 157.536135 
L 129.267898 156.008313 
L 129.584943 156.101845 
L 129.901989 158.11385 
L 130.219034 159.255239 
L 130.53608 158.371931 
L 130.853125 158.633965 
L 131.487216 154.988208 
L 131.804261 158.988351 
L 132.121307 159.203964 
L 132.438352 158.449679 
L 132.755398 154.020669 
L 133.072443 153.725238 
L 133.389489 157.613843 
L 133.706534 159.434499 
L 134.02358 157.180335 
L 134.340625 155.850694 
L 134.65767 158.029298 
L 134.974716 157.177485 
L 135.291761 155.614422 
L 135.608807 155.980615 
L 135.925852 154.753656 
L 136.242898 155.408499 
L 136.559943 158.615546 
L 137.194034 155.516206 
L 137.51108 155.288589 
L 137.828125 155.670831 
L 138.779261 159.280733 
L 139.096307 158.871815 
L 139.413352 157.26312 
L 139.730398 156.861179 
L 140.047443 156.724625 
L 140.364489 156.787615 
L 140.681534 158.944455 
L 140.99858 156.049845 
L 141.315625 155.294044 
L 141.63267 156.561929 
L 141.949716 157.36283 
L 142.266761 157.655218 
L 142.583807 156.046993 
L 142.900852 158.774749 
L 143.534943 156.304672 
L 143.851989 154.245005 
L 144.169034 154.473916 
L 144.48608 153.822593 
L 145.12017 155.803786 
L 145.437216 155.531842 
L 145.754261 154.587492 
L 146.071307 156.61496 
L 146.705398 154.423699 
L 147.022443 150.82526 
L 147.97358 152.88935 
L 148.290625 153.076736 
L 148.60767 155.349784 
L 148.924716 153.019148 
L 149.241761 155.002136 
L 149.558807 153.832037 
L 149.875852 155.94442 
L 150.192898 149.305635 
L 150.509943 150.20283 
L 150.826989 147.868647 
L 151.144034 147.383957 
L 151.46108 148.273323 
L 151.778125 151.36421 
L 152.412216 149.313987 
L 152.729261 150.086891 
L 153.046307 150.064108 
L 153.363352 151.354422 
L 153.680398 149.22371 
L 153.997443 151.954691 
L 154.631534 150.047436 
L 154.94858 149.991833 
L 155.265625 150.313042 
L 155.58267 152.187133 
L 155.899716 148.43794 
L 156.216761 150.235716 
L 156.533807 150.33164 
L 156.850852 151.363168 
L 157.167898 149.663027 
L 157.801989 149.461831 
L 158.119034 149.117886 
L 158.43608 149.697328 
L 158.753125 149.674019 
L 159.07017 150.915693 
L 159.387216 150.0342 
L 159.704261 150.45281 
L 160.021307 150.12333 
L 160.338352 150.654267 
L 160.655398 151.798453 
L 160.972443 153.433211 
L 161.289489 151.196747 
L 161.606534 149.809581 
L 161.92358 149.944401 
L 162.240625 149.639818 
L 162.55767 150.804349 
L 162.874716 151.107627 
L 163.191761 150.99181 
L 163.508807 151.6235 
L 163.825852 151.800852 
L 164.142898 151.13914 
L 164.459943 151.051892 
L 164.776989 153.006503 
L 165.41108 151.548159 
L 165.728125 152.374985 
L 166.04517 152.167704 
L 166.362216 151.425898 
L 166.679261 153.236006 
L 166.996307 153.007327 
L 167.630398 150.212294 
L 167.947443 149.877967 
L 168.264489 149.76712 
L 168.581534 152.334364 
L 168.89858 152.984876 
L 169.215625 154.989053 
L 169.53267 152.777388 
L 169.849716 155.510737 
L 170.166761 153.131881 
L 170.483807 154.505523 
L 170.800852 153.474304 
L 171.117898 153.384478 
L 171.434943 154.081152 
L 171.751989 150.17425 
L 172.069034 151.303553 
L 172.38608 151.289085 
L 172.703125 152.397849 
L 173.02017 152.456653 
L 173.337216 150.403996 
L 173.971307 151.256954 
L 174.288352 152.309498 
L 174.605398 155.515012 
L 174.922443 153.799522 
L 175.239489 154.22262 
L 175.556534 151.425359 
L 175.87358 151.190714 
L 176.190625 150.809033 
L 176.50767 150.179916 
L 176.824716 150.736983 
L 177.141761 152.238025 
L 177.775852 149.389988 
L 178.092898 152.36677 
L 178.409943 151.178073 
L 178.726989 151.577578 
L 179.044034 153.414952 
L 179.36108 150.167981 
L 179.678125 150.014169 
L 179.99517 150.413847 
L 180.312216 148.432849 
L 180.629261 150.09173 
L 180.946307 150.013241 
L 181.580398 152.862798 
L 181.897443 148.176301 
L 182.214489 151.27553 
L 182.531534 150.204153 
L 182.84858 150.429404 
L 183.165625 153.806232 
L 183.799716 151.764491 
L 184.116761 151.634621 
L 184.433807 151.798586 
L 185.067898 151.136103 
L 185.384943 149.717316 
L 185.701989 146.124544 
L 186.019034 146.390486 
L 186.33608 147.845925 
L 186.653125 147.747277 
L 187.287216 151.12045 
L 187.604261 150.824896 
L 187.921307 151.402646 
L 188.238352 148.853405 
L 188.555398 150.661894 
L 188.872443 151.552457 
L 189.189489 150.230134 
L 189.506534 149.747131 
L 189.82358 151.02265 
L 190.140625 151.54486 
L 190.45767 149.989709 
L 190.774716 153.052728 
L 191.091761 152.927737 
L 191.408807 150.854604 
L 191.725852 149.803555 
L 192.042898 151.003609 
L 192.359943 152.796036 
L 192.676989 153.127643 
L 192.994034 152.847695 
L 193.31108 149.57657 
L 193.628125 151.199333 
L 193.94517 151.612981 
L 194.262216 150.939007 
L 194.579261 150.668608 
L 194.896307 148.261371 
L 195.213352 150.64913 
L 195.847443 148.539394 
L 196.164489 149.983433 
L 196.481534 150.051366 
L 196.79858 149.886969 
L 197.115625 148.826135 
L 197.43267 148.534426 
L 197.749716 149.706885 
L 198.066761 148.706397 
L 198.383807 150.532964 
L 198.700852 148.740553 
L 199.017898 149.327069 
L 199.334943 149.280068 
L 199.651989 150.824788 
L 199.969034 152.94373 
L 200.28608 150.838432 
L 200.603125 151.038112 
L 200.92017 150.42302 
L 201.237216 150.419573 
L 201.554261 151.387996 
L 201.871307 147.587184 
L 202.188352 149.256893 
L 202.505398 150.177876 
L 202.822443 148.732241 
L 203.139489 151.537359 
L 203.456534 147.732009 
L 203.77358 148.940103 
L 204.090625 148.171511 
L 204.40767 150.538707 
L 204.724716 151.618155 
L 205.041761 147.331739 
L 205.358807 146.71374 
L 205.675852 147.041982 
L 205.992898 146.64251 
L 206.626989 149.735165 
L 206.944034 147.685401 
L 207.26108 148.928008 
L 207.578125 149.44773 
L 207.89517 147.520702 
L 208.212216 147.992599 
L 208.529261 148.075181 
L 208.846307 147.476149 
L 209.163352 147.986914 
L 209.480398 149.178678 
L 209.797443 149.618311 
L 210.114489 148.624371 
L 210.431534 146.764939 
L 210.74858 146.058598 
L 211.065625 147.941403 
L 211.38267 148.029202 
L 211.699716 150.687199 
L 212.016761 146.697004 
L 212.333807 145.16617 
L 212.650852 146.6666 
L 212.967898 147.58066 
L 213.601989 145.861357 
L 213.919034 147.828364 
L 214.23608 147.007308 
L 214.87017 146.009021 
L 215.821307 149.924127 
L 216.455398 146.336792 
L 216.772443 146.575728 
L 217.089489 148.283753 
L 217.406534 148.877409 
L 218.040625 146.334357 
L 218.35767 146.61056 
L 218.674716 148.682391 
L 218.991761 148.756905 
L 219.308807 149.724469 
L 219.625852 148.74832 
L 219.942898 148.558895 
L 220.259943 148.723365 
L 220.576989 146.921662 
L 220.894034 147.01632 
L 221.21108 146.944288 
L 221.528125 147.558182 
L 221.84517 147.766075 
L 222.162216 148.390341 
L 222.479261 147.878107 
L 222.796307 148.882083 
L 223.113352 148.014212 
L 223.430398 148.676497 
L 223.747443 147.872348 
L 224.064489 145.778762 
L 224.69858 146.342631 
L 225.015625 148.350632 
L 225.33267 148.988638 
L 225.649716 147.391235 
L 225.966761 149.821081 
L 226.283807 147.996077 
L 226.600852 149.031582 
L 226.917898 146.037361 
L 227.234943 148.671689 
L 227.551989 149.053573 
L 227.869034 148.04938 
L 228.18608 146.400472 
L 228.82017 146.825366 
L 229.137216 145.566805 
L 229.454261 146.199822 
L 229.771307 147.363132 
L 230.088352 145.266351 
L 230.405398 146.472383 
L 230.722443 146.405547 
L 231.039489 145.784048 
L 231.356534 145.925262 
L 231.67358 147.715782 
L 231.990625 145.079454 
L 232.624716 146.658808 
L 232.941761 146.263982 
L 233.258807 144.737049 
L 233.575852 145.535868 
L 233.892898 147.097598 
L 234.209943 146.435914 
L 234.526989 146.878997 
L 234.844034 146.887601 
L 235.16108 147.294672 
L 236.112216 147.715841 
L 236.429261 148.327607 
L 236.746307 147.360703 
L 237.063352 148.57042 
L 237.380398 148.590716 
L 237.697443 147.186829 
L 238.014489 149.632939 
L 238.331534 148.065214 
L 238.64858 148.880796 
L 238.965625 150.087824 
L 239.28267 149.006153 
L 239.599716 149.041311 
L 239.916761 149.919469 
L 240.233807 151.783883 
L 240.867898 148.51746 
L 241.501989 134.645392 
L 241.819034 135.276076 
L 242.13608 134.09476 
L 242.453125 134.924173 
L 242.77017 133.544362 
L 243.087216 133.932559 
L 243.404261 134.109289 
L 243.721307 134.095199 
L 244.038352 136.328853 
L 244.355398 134.045089 
L 244.989489 134.511322 
L 245.306534 134.148292 
L 245.62358 135.46348 
L 245.940625 134.36296 
L 246.25767 134.485788 
L 246.574716 135.062459 
L 246.891761 134.332694 
L 247.208807 135.128299 
L 247.525852 135.192742 
L 247.842898 135.1421 
L 248.159943 135.746995 
L 248.476989 135.76592 
L 248.794034 134.644853 
L 249.428125 135.834232 
L 249.74517 135.00642 
L 250.062216 134.825713 
L 250.379261 135.365509 
L 251.013352 134.665984 
L 251.647443 135.65219 
L 251.964489 135.49727 
L 252.281534 136.349539 
L 252.59858 134.959835 
L 252.915625 134.958175 
L 253.23267 134.353872 
L 253.866761 135.022473 
L 254.183807 135.394189 
L 254.500852 135.446631 
L 254.817898 136.13927 
L 255.134943 134.876512 
L 255.769034 134.657394 
L 257.037216 135.683175 
L 257.354261 135.387909 
L 257.671307 135.432099 
L 258.305398 135.180298 
L 258.622443 135.437722 
L 258.939489 135.041614 
L 259.256534 135.044866 
L 259.57358 134.807891 
L 259.890625 135.656141 
L 260.524716 134.909933 
L 260.841761 134.822788 
L 261.475852 135.070867 
L 261.792898 134.689487 
L 262.109943 135.242155 
L 262.426989 135.182653 
L 262.744034 135.683602 
L 263.06108 134.907999 
L 263.378125 134.970018 
L 263.69517 134.85644 
L 264.012216 135.541425 
L 264.329261 135.28166 
L 264.646307 134.576644 
L 264.963352 134.209949 
L 265.280398 133.348923 
L 265.914489 134.399382 
L 266.231534 134.430051 
L 266.54858 134.006603 
L 267.499716 134.912482 
L 267.816761 134.577112 
L 268.450852 135.02032 
L 268.767898 134.311887 
L 269.084943 134.841699 
L 269.401989 134.919568 
L 269.719034 135.477955 
L 270.03608 134.25946 
L 270.353125 133.663397 
L 271.304261 135.133355 
L 271.621307 134.691464 
L 271.938352 134.711405 
L 272.255398 135.230141 
L 272.572443 134.944728 
L 272.889489 135.026033 
L 273.206534 135.417067 
L 273.52358 134.993303 
L 273.840625 134.923053 
L 274.15767 135.304547 
L 274.474716 134.786339 
L 275.425852 135.906353 
L 275.742898 134.721007 
L 276.376989 135.252268 
L 276.694034 134.442712 
L 277.01108 135.202486 
L 277.328125 135.442336 
L 277.64517 134.903049 
L 277.962216 134.844061 
L 278.279261 134.391304 
L 278.596307 134.455816 
L 278.913352 135.274171 
L 279.230398 135.45648 
L 279.547443 134.804065 
L 279.864489 135.066336 
L 280.181534 134.831295 
L 280.49858 135.661718 
L 280.815625 135.422257 
L 281.13267 134.976805 
L 281.449716 135.405305 
L 281.766761 134.9154 
L 282.083807 135.610838 
L 282.400852 135.51559 
L 283.034943 135.114546 
L 283.351989 135.166521 
L 283.669034 135.492849 
L 283.98608 134.771946 
L 284.303125 135.387025 
L 284.62017 134.93435 
L 285.571307 135.123354 
L 286.205398 134.829573 
L 286.522443 134.747605 
L 286.839489 135.356739 
L 287.156534 135.359237 
L 287.47358 134.904426 
L 287.790625 134.677288 
L 288.10767 135.785722 
L 288.424716 134.709898 
L 288.741761 134.327474 
L 289.375852 135.273006 
L 290.009943 135.139176 
L 290.326989 135.627855 
L 290.96108 134.594411 
L 291.278125 134.781306 
L 291.59517 134.568335 
L 291.912216 135.358105 
L 292.546307 135.176473 
L 293.497443 135.343434 
L 293.814489 135.622416 
L 294.131534 134.996122 
L 294.765625 135.392035 
L 295.08267 135.181933 
L 295.716761 135.626955 
L 296.033807 134.923887 
L 296.350852 134.696293 
L 296.667898 134.825277 
L 297.301989 135.366881 
L 297.619034 135.64312 
L 297.93608 135.276988 
L 298.253125 135.491512 
L 298.57017 135.541704 
L 298.887216 133.750824 
L 299.204261 133.663888 
L 299.521307 134.543112 
L 299.838352 135.042247 
L 300.472443 134.529599 
L 300.789489 134.443794 
L 301.42358 135.046299 
L 302.05767 134.735546 
L 302.374716 134.974499 
L 302.691761 135.037229 
L 303.008807 135.281677 
L 303.325852 134.737247 
L 304.276989 135.320018 
L 304.91108 135.026793 
L 305.228125 135.49939 
L 305.54517 134.978501 
L 305.862216 135.472805 
L 306.179261 134.748901 
L 306.496307 135.014456 
L 306.813352 134.697486 
L 307.130398 135.248206 
L 308.081534 135.186156 
L 308.39858 134.966542 
L 309.03267 135.097052 
L 309.666761 135.474882 
L 309.983807 134.790277 
L 310.300852 135.423428 
L 310.617898 135.328451 
L 310.934943 135.526498 
L 311.251989 135.170415 
L 311.88608 135.564687 
L 312.203125 135.511133 
L 312.52017 135.260569 
L 313.471307 135.679882 
L 313.788352 135.989234 
L 314.422443 134.987874 
L 314.739489 135.329999 
L 315.056534 135.02399 
L 315.37358 134.915781 
L 315.690625 135.19938 
L 316.324716 135.455681 
L 316.641761 135.056328 
L 316.958807 135.725742 
L 317.275852 135.142952 
L 317.592898 135.250148 
L 317.909943 135.539491 
L 318.544034 135.812822 
L 318.86108 135.164145 
L 319.178125 135.49312 
L 319.812216 135.141222 
L 320.129261 135.19345 
L 320.446307 135.383592 
L 321.397443 135.384635 
L 321.714489 135.100931 
L 322.031534 135.106176 
L 322.34858 135.276983 
L 322.665625 135.194826 
L 322.98267 135.478335 
L 323.616761 135.473772 
L 324.250852 135.021349 
L 324.567898 136.147604 
L 324.884943 135.472357 
L 325.201989 135.21415 
L 325.519034 135.343565 
L 325.83608 135.621004 
L 326.47017 135.27714 
L 326.787216 135.379801 
L 327.104261 135.609204 
L 327.421307 135.587211 
L 328.055398 135.319427 
L 328.372443 134.972355 
L 328.689489 135.43259 
L 329.32358 135.357157 
L 329.95767 135.860083 
L 330.274716 134.885291 
L 330.591761 134.75028 
L 330.908807 135.498144 
L 331.542898 134.980658 
L 331.859943 135.06075 
L 332.494034 135.67956 
L 332.81108 135.221313 
L 333.128125 135.355566 
L 333.44517 135.67954 
L 333.762216 135.383578 
L 334.079261 135.661407 
L 334.396307 135.488699 
L 334.713352 135.833352 
L 335.030398 135.536407 
L 335.347443 135.4226 
L 335.664489 135.566478 
L 336.29858 135.438627 
L 336.615625 135.573036 
L 337.249716 134.799634 
L 337.566761 134.830195 
L 337.883807 135.644505 
L 338.200852 135.035708 
L 338.834943 135.734508 
L 339.469034 135.753632 
L 339.78608 135.429688 
L 340.103125 135.600536 
L 340.42017 135.410079 
L 340.737216 134.765791 
L 341.054261 135.684313 
L 341.371307 135.718608 
L 341.688352 135.213705 
L 342.322443 135.80489 
L 342.956534 135.172222 
L 343.27358 135.612471 
L 343.90767 135.150894 
L 344.224716 135.883055 
L 344.858807 136.005441 
L 345.175852 135.024633 
L 345.492898 135.129679 
L 345.809943 135.476753 
L 346.126989 135.207139 
L 346.444034 135.498733 
L 346.76108 135.013924 
L 347.078125 135.423407 
L 347.712216 134.750365 
L 348.029261 135.217433 
L 348.346307 135.400371 
L 348.980398 135.13266 
L 349.297443 135.795262 
L 350.24858 135.180538 
L 350.565625 135.468096 
L 350.88267 135.174631 
L 351.516761 135.272834 
L 352.150852 134.971894 
L 352.467898 135.207934 
L 352.784943 135.28593 
L 353.101989 135.060012 
L 353.419034 135.371854 
L 354.053125 135.254273 
L 354.37017 134.818658 
L 354.687216 135.481158 
L 355.004261 135.52925 
L 355.321307 135.060555 
L 355.638352 135.750257 
L 356.272443 135.090327 
L 356.589489 135.662326 
L 356.906534 135.517156 
L 357.22358 134.989371 
L 357.540625 135.43116 
L 357.85767 134.838123 
L 358.174716 134.649904 
L 358.491761 135.300751 
L 358.808807 134.933768 
L 359.125852 135.358687 
L 359.442898 135.066199 
L 359.759943 135.335037 
L 360.076989 135.050951 
L 361.028125 135.390709 
L 361.34517 135.822426 
L 361.662216 135.952862 
L 361.979261 135.624338 
L 362.296307 135.610255 
L 362.613352 135.423524 
L 362.930398 134.247237 
L 363.247443 134.871136 
L 363.564489 135.079638 
L 363.881534 135.078143 
L 364.19858 135.829396 
L 364.83267 135.538952 
L 365.149716 135.065113 
L 365.466761 135.020353 
L 365.783807 135.229455 
L 366.100852 135.63446 
L 366.417898 135.064092 
L 366.734943 135.249846 
L 367.051989 134.999915 
L 367.369034 135.461117 
L 367.68608 135.050893 
L 368.003125 134.858032 
L 368.32017 135.310257 
L 368.637216 134.96585 
L 368.954261 135.260655 
L 369.588352 134.994485 
L 369.905398 135.637894 
L 370.539489 135.126461 
L 370.856534 135.095993 
L 371.17358 135.29222 
L 371.490625 134.610798 
L 371.80767 135.391143 
L 372.124716 135.052139 
L 372.758807 135.386257 
L 373.709943 134.76905 
L 374.026989 135.463049 
L 374.66108 135.295454 
L 374.978125 135.508937 
L 375.612216 134.066893 
L 375.929261 132.014513 
L 376.246307 134.72919 
L 377.197443 135.318484 
L 377.514489 134.399469 
L 378.465625 134.7221 
L 378.78267 134.426432 
L 379.099716 134.353387 
L 379.416761 134.966274 
L 380.050852 134.823135 
L 380.367898 135.097777 
L 381.001989 135.222661 
L 381.319034 134.907921 
L 381.63608 135.133372 
L 381.953125 134.787104 
L 382.587216 135.293326 
L 383.221307 134.788834 
L 383.538352 134.39011 
L 383.855398 134.533561 
L 384.172443 135.269145 
L 384.489489 134.888641 
L 384.806534 135.227361 
L 385.12358 134.867778 
L 385.440625 135.045628 
L 385.75767 134.462506 
L 386.391761 135.264537 
L 387.025852 134.903744 
L 387.342898 135.306712 
L 387.976989 134.743273 
L 388.294034 135.031264 
L 388.61108 135.146573 
L 388.928125 135.470932 
L 389.562216 135.000084 
L 389.879261 135.130922 
L 390.196307 134.678202 
L 390.513352 135.36608 
L 391.147443 134.806707 
L 391.464489 134.831608 
L 392.415625 135.607083 
L 392.73267 135.232594 
L 393.366761 134.974361 
L 393.683807 135.10826 
L 394.000852 135.483296 
L 394.317898 135.426415 
L 394.634943 135.677208 
L 394.951989 135.164195 
L 395.269034 135.500082 
L 395.58608 135.158922 
L 395.903125 135.496358 
L 396.22017 134.767566 
L 396.537216 135.113808 
L 396.854261 134.849267 
L 397.171307 135.003803 
L 397.488352 134.640708 
L 398.122443 135.050486 
L 398.439489 134.700296 
L 398.756534 134.567118 
L 399.390625 134.781444 
L 399.70767 134.746333 
L 400.024716 135.228049 
L 400.658807 134.474487 
L 401.292898 134.972206 
L 402.56108 134.755031 
L 402.878125 135.717773 
L 403.19517 135.066942 
L 403.829261 134.683627 
L 404.146307 134.969737 
L 404.463352 135.545472 
L 404.780398 135.467532 
L 405.097443 135.532108 
L 405.414489 134.916565 
L 405.731534 135.272387 
L 406.04858 135.123048 
L 406.365625 135.528014 
L 406.68267 135.630345 
L 406.999716 135.04118 
L 407.316761 135.412038 
L 407.950852 135.534561 
L 408.267898 134.929964 
L 408.584943 135.224216 
L 409.219034 135.181871 
L 409.53608 135.823558 
L 409.853125 135.548391 
L 410.17017 134.904695 
L 410.487216 134.612249 
L 410.804261 135.133562 
L 411.438352 135.048915 
L 412.072443 135.439861 
L 412.389489 134.822512 
L 412.706534 135.100161 
L 413.02358 135.730951 
L 413.340625 135.340186 
L 413.65767 135.46119 
L 413.974716 134.945941 
L 414.291761 135.53327 
L 414.608807 135.337737 
L 414.925852 135.581159 
L 415.242898 134.972692 
L 415.876989 135.538315 
L 416.194034 134.801541 
L 416.51108 135.154013 
L 416.828125 135.291815 
L 417.462216 134.949804 
L 418.413352 135.03086 
L 418.730398 135.202733 
L 419.047443 134.840785 
L 419.364489 135.467284 
L 419.681534 135.437993 
L 419.99858 135.587644 
L 420.63267 134.587731 
L 420.949716 135.193846 
L 421.266761 135.08311 
L 421.583807 135.107909 
L 421.900852 135.371883 
L 422.217898 136.906461 
L 422.534943 135.532688 
L 422.851989 135.46888 
L 423.169034 135.144699 
L 423.48608 135.354307 
L 423.803125 135.79131 
L 424.12017 135.439366 
L 424.437216 135.499153 
L 424.754261 135.693293 
L 425.388352 135.515114 
L 425.705398 135.431376 
L 426.022443 135.91829 
L 426.339489 135.196028 
L 426.656534 135.360024 
L 426.97358 135.281298 
L 427.290625 135.820067 
L 427.60767 135.43557 
L 427.924716 135.442911 
L 428.241761 135.27279 
L 428.558807 135.596623 
L 428.875852 135.302343 
L 429.192898 135.211569 
L 429.509943 135.550225 
L 430.144034 135.6943 
L 430.46108 135.439498 
L 430.778125 135.796431 
L 431.09517 135.510124 
L 431.412216 135.795269 
L 431.729261 135.667992 
L 432.046307 135.235211 
L 432.363352 135.091696 
L 432.680398 135.453681 
L 432.997443 135.617883 
L 433.314489 135.597576 
L 433.631534 136.121633 
L 433.94858 135.67691 
L 434.265625 136.020259 
L 434.899716 135.448072 
L 435.216761 135.501106 
L 435.533807 135.257995 
L 435.850852 135.680163 
L 436.167898 135.617284 
L 436.484943 135.399115 
L 437.119034 135.412966 
L 437.43608 135.39649 
L 438.07017 135.751221 
L 438.387216 135.324181 
L 438.704261 135.366954 
L 439.021307 135.77606 
L 439.655398 134.847868 
L 439.972443 135.020729 
L 440.289489 135.34921 
L 441.240625 135.451275 
L 441.55767 135.348721 
L 441.874716 135.68746 
L 442.191761 135.509353 
L 442.508807 135.58459 
L 442.825852 136.047403 
L 443.142898 135.475983 
L 443.459943 136.190254 
L 443.776989 135.335191 
L 444.094034 135.806571 
L 444.41108 135.724509 
L 444.728125 136.059808 
L 445.04517 136.157313 
L 445.362216 135.431337 
L 445.679261 135.48238 
L 446.313352 134.741277 
L 446.630398 135.271293 
L 446.947443 135.377685 
L 447.264489 135.614488 
L 447.581534 135.101578 
L 447.89858 135.381303 
L 448.215625 136.065054 
L 448.53267 135.696313 
L 448.849716 136.006151 
L 449.166761 135.819229 
L 449.483807 135.875517 
L 449.800852 135.475904 
L 450.117898 135.322577 
L 450.751989 135.663463 
L 451.38608 135.033343 
L 451.703125 135.811491 
L 452.02017 136.000591 
L 452.337216 135.832199 
L 452.654261 135.824677 
L 452.971307 136.231847 
L 453.288352 135.639742 
L 453.605398 135.717733 
L 453.922443 134.916587 
L 454.239489 135.452033 
L 454.556534 135.177138 
L 454.87358 135.370016 
L 455.190625 135.052212 
L 455.50767 135.407864 
L 455.824716 135.364073 
L 456.458807 135.714621 
L 456.775852 135.213751 
L 457.092898 135.267586 
L 457.409943 135.491586 
L 457.726989 135.229419 
L 458.044034 135.396167 
L 458.36108 135.144391 
L 458.678125 135.221688 
L 459.312216 135.234057 
L 459.629261 135.231434 
L 459.946307 135.468405 
L 460.263352 135.275677 
L 460.580398 135.427197 
L 460.897443 135.034619 
L 461.214489 135.014133 
L 461.531534 135.256965 
L 461.84858 135.100484 
L 462.799716 135.570266 
L 463.433807 135.063851 
L 464.067898 135.039706 
L 464.384943 135.192843 
L 464.701989 135.107865 
L 465.019034 135.350909 
L 465.33608 135.175598 
L 465.653125 135.210048 
L 465.97017 135.842195 
L 466.287216 135.621969 
L 466.604261 134.981806 
L 466.921307 135.685146 
L 467.238352 135.603171 
L 467.555398 136.013365 
L 467.872443 135.477055 
L 468.189489 135.642277 
L 469.774716 135.240985 
L 470.408807 135.255949 
L 471.042898 135.348317 
L 471.359943 135.603327 
L 471.676989 135.547276 
L 471.994034 135.733172 
L 472.31108 135.590314 
L 472.628125 135.635352 
L 472.94517 136.002629 
L 473.262216 136.12901 
L 474.213352 135.663434 
L 474.530398 135.713949 
L 474.847443 135.465349 
L 475.164489 135.40778 
L 475.481534 135.151544 
L 475.79858 135.464865 
L 476.43267 135.455332 
L 476.749716 135.739929 
L 477.066761 134.846336 
L 477.383807 135.473 
L 477.700852 135.391663 
L 478.017898 135.937896 
L 478.334943 135.866462 
L 478.651989 135.6052 
L 478.969034 134.989872 
L 479.28608 135.05742 
L 479.603125 135.008177 
L 479.92017 135.442213 
L 480.237216 135.145356 
L 480.554261 135.211329 
L 480.871307 135.089368 
L 481.188352 135.343604 
L 481.505398 135.787813 
L 481.822443 135.820384 
L 482.139489 135.495137 
L 482.456534 135.46059 
L 482.77358 134.82145 
L 483.090625 135.068749 
L 483.724716 135.057233 
L 484.041761 135.424869 
L 484.358807 135.265151 
L 484.675852 134.979361 
L 484.992898 135.331638 
L 485.626989 135.258164 
L 485.944034 135.447231 
L 486.26108 135.337321 
L 486.578125 135.422572 
L 486.89517 135.246148 
L 487.212216 135.247261 
L 487.529261 135.022873 
L 488.163352 135.490671 
L 488.480398 135.409419 
L 488.797443 134.991353 
L 489.74858 135.265216 
L 490.065625 135.153468 
L 490.38267 135.347479 
L 491.333807 134.903251 
L 491.650852 135.236547 
L 491.967898 135.155903 
L 492.284943 135.361723 
L 492.601989 135.01773 
L 493.23608 135.319921 
L 493.553125 134.950944 
L 494.187216 135.540562 
L 494.504261 135.47311 
L 494.821307 135.122365 
L 495.138352 135.096061 
L 495.455398 135.502286 
L 495.772443 135.082271 
L 496.089489 135.601828 
L 496.406534 134.866528 
L 496.72358 134.960062 
L 497.040625 134.887206 
L 497.35767 135.230541 
L 497.674716 135.248215 
L 497.991761 135.03755 
L 498.308807 135.056322 
L 498.625852 134.904315 
L 498.942898 135.216999 
L 499.259943 135.085457 
L 499.576989 135.094324 
L 499.894034 135.434934 
L 500.21108 135.406248 
L 500.528125 135.699568 
L 501.162216 134.842784 
L 501.796307 135.213279 
L 502.113352 135.13617 
L 502.430398 135.229516 
L 502.747443 134.772315 
L 503.381534 135.233042 
L 503.69858 134.878463 
L 504.015625 135.443914 
L 504.33267 135.496902 
L 504.649716 135.323246 
L 504.966761 135.631094 
L 505.283807 135.224734 
L 505.917898 135.516183 
L 506.234943 135.27733 
L 506.869034 135.55203 
L 507.18608 135.55985 
L 507.503125 134.92827 
L 507.82017 135.306528 
L 508.137216 135.396129 
L 508.454261 135.086756 
L 508.771307 135.555469 
L 509.088352 135.175592 
L 509.405398 135.093228 
L 509.722443 134.872912 
L 510.039489 135.143117 
L 510.356534 135.036221 
L 510.67358 135.437569 
L 511.624716 134.606952 
L 511.941761 135.182618 
L 512.258807 135.238746 
L 512.575852 135.683675 
L 513.209943 135.034193 
L 513.526989 135.534908 
L 513.844034 134.986135 
L 514.16108 134.99437 
L 514.478125 135.173685 
L 514.79517 135.148456 
L 515.112216 135.264323 
L 515.429261 135.5226 
L 515.746307 135.175187 
L 516.380398 135.044101 
L 516.697443 135.670581 
L 517.014489 135.651842 
L 517.331534 135.119695 
L 517.64858 135.147694 
L 517.965625 135.305096 
L 518.599716 134.925693 
L 518.916761 135.135609 
L 519.550852 135.131084 
L 519.867898 135.259081 
L 520.184943 135.511422 
L 520.501989 134.88927 
L 521.13608 135.635089 
L 521.453125 135.415155 
L 521.77017 135.059812 
L 522.087216 134.987403 
L 522.404261 135.551586 
L 522.721307 135.53032 
L 523.038352 135.048895 
L 523.672443 135.63201 
L 523.989489 135.158395 
L 524.306534 135.285741 
L 524.62358 134.905036 
L 524.940625 134.979825 
L 525.25767 134.932887 
L 525.574716 135.042519 
L 525.891761 134.747665 
L 526.842898 135.556177 
L 527.159943 135.635368 
L 527.476989 134.77136 
L 527.794034 135.365982 
L 528.11108 134.838102 
L 528.428125 134.834687 
L 528.74517 135.563995 
L 529.062216 135.344948 
L 529.379261 135.819179 
L 529.696307 135.345759 
L 530.013352 135.16007 
L 530.330398 135.28327 
L 530.647443 134.894798 
L 530.964489 135.335179 
L 531.281534 135.4492 
L 531.59858 135.073388 
L 531.915625 135.177379 
L 532.23267 135.405678 
L 532.549716 135.771363 
L 532.866761 135.058806 
L 533.183807 134.984581 
L 533.500852 135.098031 
L 533.817898 135.474944 
L 534.134943 135.388132 
L 534.451989 132.96647 
L 534.769034 134.760604 
L 535.08608 134.849527 
L 535.403125 135.098174 
L 535.72017 134.793822 
L 536.037216 134.786695 
L 536.354261 135.242257 
L 536.671307 134.946344 
L 536.988352 135.067686 
L 537.305398 135.713728 
L 537.622443 134.755659 
L 537.939489 135.331267 
L 538.256534 135.16962 
L 538.57358 135.20612 
L 538.890625 134.790574 
L 539.20767 135.05153 
L 539.524716 135.489053 
L 539.841761 135.423589 
L 540.158807 134.175063 
L 540.792898 135.178519 
L 541.109943 133.618504 
L 541.426989 97.448626 
L 541.744034 132.223979 
L 542.06108 134.019621 
L 542.378125 133.438541 
L 543.012216 126.164664 
L 543.329261 132.92214 
L 543.646307 133.739959 
L 544.280398 133.837937 
L 544.597443 133.720807 
L 544.914489 134.1886 
L 545.231534 133.399336 
L 545.54858 133.831973 
L 545.865625 133.862145 
L 546.18267 134.368478 
L 546.499716 133.908842 
L 546.816761 134.28344 
L 547.450852 133.903846 
L 547.767898 134.078095 
L 548.084943 133.866618 
L 548.719034 133.899679 
L 549.03608 134.089324 
L 549.353125 134.008513 
L 549.67017 134.412159 
L 550.621307 134.346369 
L 550.938352 134.579505 
L 551.889489 134.356217 
L 552.206534 134.098149 
L 552.52358 134.036587 
L 552.840625 134.149587 
L 553.15767 134.493651 
L 553.474716 134.519852 
L 554.108807 134.714419 
L 554.742898 134.649228 
L 555.059943 134.96176 
L 555.376989 134.199961 
L 555.694034 133.847099 
L 556.328125 134.461012 
L 556.64517 134.315937 
L 556.962216 134.379714 
L 557.279261 134.234438 
L 557.596307 134.523455 
L 557.913352 134.572081 
L 558.230398 134.044802 
L 558.864489 134.198328 
L 559.181534 134.047766 
L 559.49858 134.42447 
L 559.815625 134.542093 
L 560.13267 134.417924 
L 560.766761 134.680609 
L 561.083807 134.146364 
L 561.400852 134.241953 
L 561.717898 134.49673 
L 562.351989 134.070971 
L 562.669034 134.481395 
L 562.98608 134.232778 
L 563.937216 134.678762 
L 564.254261 134.071666 
L 564.571307 134.413459 
L 564.888352 134.141515 
L 565.522443 134.144797 
L 566.156534 134.305484 
L 566.790625 134.074703 
L 567.424716 134.259634 
L 567.741761 134.209344 
L 568.058807 134.763514 
L 568.375852 134.611296 
L 568.692898 134.160747 
L 569.326989 134.8318 
L 569.644034 134.222337 
L 569.96108 134.178967 
L 570.278125 134.521813 
L 570.59517 134.24837 
L 570.912216 134.444509 
L 571.229261 134.222103 
L 571.546307 134.593447 
L 572.180398 134.343324 
L 572.497443 134.372514 
L 572.814489 134.874877 
L 573.131534 134.307798 
L 573.44858 134.263546 
L 573.765625 134.664252 
L 574.08267 134.193066 
L 574.399716 134.439107 
L 574.716761 134.394164 
L 575.033807 134.218298 
L 575.667898 134.426191 
L 575.984943 135.209837 
L 576.301989 134.782453 
L 576.619034 134.592139 
L 576.93608 134.761152 
L 577.887216 134.61887 
L 578.204261 134.682677 
L 578.521307 134.461826 
L 579.155398 135.268562 
L 579.472443 134.742023 
L 579.789489 134.703153 
L 580.106534 134.469886 
L 580.42358 134.761323 
L 580.740625 134.489794 
L 581.05767 134.782712 
L 582.008807 134.435795 
L 582.325852 134.447732 
L 582.642898 134.6923 
L 582.959943 134.457418 
L 583.594034 134.715411 
L 583.91108 134.160012 
L 584.54517 134.621545 
L 585.813352 134.295427 
L 586.447443 134.478803 
L 587.081534 134.297987 
L 588.03267 135.095943 
L 588.349716 134.834077 
L 588.983807 134.835304 
L 589.300852 134.518575 
L 589.617898 134.442122 
L 589.934943 134.907616 
L 590.251989 134.617795 
L 590.569034 134.766283 
L 590.88608 134.659391 
L 591.203125 135.046692 
L 591.52017 134.649869 
L 591.837216 134.618383 
L 592.154261 134.809989 
L 592.471307 134.507451 
L 592.788352 135.060237 
L 593.105398 134.747733 
L 593.422443 135.105954 
L 593.739489 134.48659 
L 594.056534 134.729524 
L 594.37358 135.238914 
L 595.00767 134.468794 
L 595.324716 134.554049 
L 595.641761 134.336842 
L 595.958807 135.137078 
L 596.275852 135.073932 
L 596.592898 134.489471 
L 596.909943 134.491442 
L 597.226989 134.822883 
L 597.544034 134.542705 
L 597.86108 134.547468 
L 598.178125 134.906382 
L 598.49517 134.513263 
L 598.812216 134.790968 
L 599.129261 134.507905 
L 599.446307 134.540048 
L 599.763352 134.94874 
L 600.080398 134.509555 
L 600.397443 134.857455 
L 601.34858 134.497224 
L 601.665625 134.848451 
L 602.299716 134.41854 
L 602.933807 134.946438 
L 603.567898 135.010919 
L 603.884943 134.632917 
L 604.201989 135.260034 
L 604.519034 134.878096 
L 604.83608 134.719613 
L 605.153125 134.976433 
L 605.47017 134.694896 
L 606.104261 134.907422 
L 606.421307 135.125961 
L 606.738352 134.959701 
L 607.055398 134.617161 
L 607.689489 135.177741 
L 608.006534 134.725017 
L 608.32358 134.605643 
L 608.640625 134.902277 
L 608.95767 134.865043 
L 609.274716 135.035733 
L 609.591761 134.926864 
L 609.908807 135.154947 
L 610.225852 135.099292 
L 610.542898 134.753441 
L 611.176989 135.008981 
L 611.494034 134.909931 
L 612.128125 135.404761 
L 612.44517 134.631721 
L 612.762216 135.012241 
L 613.079261 134.840694 
L 613.396307 135.122748 
L 614.347443 135.126603 
L 614.981534 135.547628 
L 615.93267 134.700475 
L 616.249716 135.068869 
L 616.566761 135.231026 
L 616.883807 134.989935 
L 617.200852 135.42658 
L 617.517898 135.075752 
L 617.834943 135.295772 
L 618.151989 135.21397 
L 618.469034 135.591806 
L 619.103125 134.721358 
L 620.054261 134.772893 
L 620.371307 135.126165 
L 621.005398 134.833949 
L 621.639489 135.433796 
L 621.956534 135.326793 
L 622.27358 134.900905 
L 622.590625 134.800182 
L 622.90767 135.187175 
L 623.224716 135.098197 
L 623.541761 134.87299 
L 623.858807 135.08848 
L 624.175852 135.129128 
L 624.809943 134.597382 
L 625.126989 134.913708 
L 625.126989 134.913708 
" clip-path="url(#p50c302dc0c)" style="fill: none; stroke: #ff7f0e; stroke-width: 1.5; stroke-linecap: square"/>
   </g>
   <g id="patch_3">
    <path d="M 92.490625 308.63625 
L 92.490625 31.43625 
" style="fill: none; stroke: #000000; stroke-width: 0.8; stroke-linejoin: miter; stroke-linecap: square"/>
   </g>
   <g id="patch_4">
    <path d="M 650.490625 308.63625 
L 650.490625 31.43625 
" style="fill: none; stroke: #000000; stroke-width: 0.8; stroke-linejoin: miter; stroke-linecap: square"/>
   </g>
   <g id="patch_5">
    <path d="M 92.490625 308.63625 
L 650.490625 308.63625 
" style="fill: none; stroke: #000000; stroke-width: 0.8; stroke-linejoin: miter; stroke-linecap: square"/>
   </g>
   <g id="patch_6">
    <path d="M 92.490625 31.43625 
L 650.490625 31.43625 
" style="fill: none; stroke: #000000; stroke-width: 0.8; stroke-linejoin: miter; stroke-linecap: square"/>
   </g>
   <g id="text_16">
    <!-- Generator and Discriminator Loss During Training -->
    <g transform="translate(74.258125 25.43625) scale(0.24 -0.24)">
     <defs>
      <path id="DejaVuSans-47" d="M 3809 666 
L 3809 1919 
L 2778 1919 
L 2778 2438 
L 4434 2438 
L 4434 434 
Q 4069 175 3628 42 
Q 3188 -91 2688 -91 
Q 1594 -91 976 548 
Q 359 1188 359 2328 
Q 359 3472 976 4111 
Q 1594 4750 2688 4750 
Q 3144 4750 3555 4637 
Q 3966 4525 4313 4306 
L 4313 3634 
Q 3963 3931 3569 4081 
Q 3175 4231 2741 4231 
Q 1884 4231 1454 3753 
Q 1025 3275 1025 2328 
Q 1025 1384 1454 906 
Q 1884 428 2741 428 
Q 3075 428 3337 486 
Q 3600 544 3809 666 
z
" transform="scale(0.015625)"/>
      <path id="DejaVuSans-20" transform="scale(0.015625)"/>
      <path id="DejaVuSans-64" d="M 2906 2969 
L 2906 4863 
L 3481 4863 
L 3481 0 
L 2906 0 
L 2906 525 
Q 2725 213 2448 61 
Q 2172 -91 1784 -91 
Q 1150 -91 751 415 
Q 353 922 353 1747 
Q 353 2572 751 3078 
Q 1150 3584 1784 3584 
Q 2172 3584 2448 3432 
Q 2725 3281 2906 2969 
z
M 947 1747 
Q 947 1113 1208 752 
Q 1469 391 1925 391 
Q 2381 391 2643 752 
Q 2906 1113 2906 1747 
Q 2906 2381 2643 2742 
Q 2381 3103 1925 3103 
Q 1469 3103 1208 2742 
Q 947 2381 947 1747 
z
" transform="scale(0.015625)"/>
      <path id="DejaVuSans-44" d="M 1259 4147 
L 1259 519 
L 2022 519 
Q 2988 519 3436 956 
Q 3884 1394 3884 2338 
Q 3884 3275 3436 3711 
Q 2988 4147 2022 4147 
L 1259 4147 
z
M 628 4666 
L 1925 4666 
Q 3281 4666 3915 4102 
Q 4550 3538 4550 2338 
Q 4550 1131 3912 565 
Q 3275 0 1925 0 
L 628 0 
L 628 4666 
z
" transform="scale(0.015625)"/>
      <path id="DejaVuSans-63" d="M 3122 3366 
L 3122 2828 
Q 2878 2963 2633 3030 
Q 2388 3097 2138 3097 
Q 1578 3097 1268 2742 
Q 959 2388 959 1747 
Q 959 1106 1268 751 
Q 1578 397 2138 397 
Q 2388 397 2633 464 
Q 2878 531 3122 666 
L 3122 134 
Q 2881 22 2623 -34 
Q 2366 -91 2075 -91 
Q 1284 -91 818 406 
Q 353 903 353 1747 
Q 353 2603 823 3093 
Q 1294 3584 2113 3584 
Q 2378 3584 2631 3529 
Q 2884 3475 3122 3366 
z
" transform="scale(0.015625)"/>
      <path id="DejaVuSans-6d" d="M 3328 2828 
Q 3544 3216 3844 3400 
Q 4144 3584 4550 3584 
Q 5097 3584 5394 3201 
Q 5691 2819 5691 2113 
L 5691 0 
L 5113 0 
L 5113 2094 
Q 5113 2597 4934 2840 
Q 4756 3084 4391 3084 
Q 3944 3084 3684 2787 
Q 3425 2491 3425 1978 
L 3425 0 
L 2847 0 
L 2847 2094 
Q 2847 2600 2669 2842 
Q 2491 3084 2119 3084 
Q 1678 3084 1418 2786 
Q 1159 2488 1159 1978 
L 1159 0 
L 581 0 
L 581 3500 
L 1159 3500 
L 1159 2956 
Q 1356 3278 1631 3431 
Q 1906 3584 2284 3584 
Q 2666 3584 2933 3390 
Q 3200 3197 3328 2828 
z
" transform="scale(0.015625)"/>
      <path id="DejaVuSans-75" d="M 544 1381 
L 544 3500 
L 1119 3500 
L 1119 1403 
Q 1119 906 1312 657 
Q 1506 409 1894 409 
Q 2359 409 2629 706 
Q 2900 1003 2900 1516 
L 2900 3500 
L 3475 3500 
L 3475 0 
L 2900 0 
L 2900 538 
Q 2691 219 2414 64 
Q 2138 -91 1772 -91 
Q 1169 -91 856 284 
Q 544 659 544 1381 
z
M 1991 3584 
L 1991 3584 
z
" transform="scale(0.015625)"/>
      <path id="DejaVuSans-67" d="M 2906 1791 
Q 2906 2416 2648 2759 
Q 2391 3103 1925 3103 
Q 1463 3103 1205 2759 
Q 947 2416 947 1791 
Q 947 1169 1205 825 
Q 1463 481 1925 481 
Q 2391 481 2648 825 
Q 2906 1169 2906 1791 
z
M 3481 434 
Q 3481 -459 3084 -895 
Q 2688 -1331 1869 -1331 
Q 1566 -1331 1297 -1286 
Q 1028 -1241 775 -1147 
L 775 -588 
Q 1028 -725 1275 -790 
Q 1522 -856 1778 -856 
Q 2344 -856 2625 -561 
Q 2906 -266 2906 331 
L 2906 616 
Q 2728 306 2450 153 
Q 2172 0 1784 0 
Q 1141 0 747 490 
Q 353 981 353 1791 
Q 353 2603 747 3093 
Q 1141 3584 1784 3584 
Q 2172 3584 2450 3431 
Q 2728 3278 2906 2969 
L 2906 3500 
L 3481 3500 
L 3481 434 
z
" transform="scale(0.015625)"/>
      <path id="DejaVuSans-54" d="M -19 4666 
L 3928 4666 
L 3928 4134 
L 2272 4134 
L 2272 0 
L 1638 0 
L 1638 4134 
L -19 4134 
L -19 4666 
z
" transform="scale(0.015625)"/>
     </defs>
     <use xlink:href="#DejaVuSans-47"/>
     <use xlink:href="#DejaVuSans-65" x="77.490234"/>
     <use xlink:href="#DejaVuSans-6e" x="139.013672"/>
     <use xlink:href="#DejaVuSans-65" x="202.392578"/>
     <use xlink:href="#DejaVuSans-72" x="263.916016"/>
     <use xlink:href="#DejaVuSans-61" x="305.029297"/>
     <use xlink:href="#DejaVuSans-74" x="366.308594"/>
     <use xlink:href="#DejaVuSans-6f" x="405.517578"/>
     <use xlink:href="#DejaVuSans-72" x="466.699219"/>
     <use xlink:href="#DejaVuSans-20" x="507.8125"/>
     <use xlink:href="#DejaVuSans-61" x="539.599609"/>
     <use xlink:href="#DejaVuSans-6e" x="600.878906"/>
     <use xlink:href="#DejaVuSans-64" x="664.257812"/>
     <use xlink:href="#DejaVuSans-20" x="727.734375"/>
     <use xlink:href="#DejaVuSans-44" x="759.521484"/>
     <use xlink:href="#DejaVuSans-69" x="836.523438"/>
     <use xlink:href="#DejaVuSans-73" x="864.306641"/>
     <use xlink:href="#DejaVuSans-63" x="916.40625"/>
     <use xlink:href="#DejaVuSans-72" x="971.386719"/>
     <use xlink:href="#DejaVuSans-69" x="1012.5"/>
     <use xlink:href="#DejaVuSans-6d" x="1040.283203"/>
     <use xlink:href="#DejaVuSans-69" x="1137.695312"/>
     <use xlink:href="#DejaVuSans-6e" x="1165.478516"/>
     <use xlink:href="#DejaVuSans-61" x="1228.857422"/>
     <use xlink:href="#DejaVuSans-74" x="1290.136719"/>
     <use xlink:href="#DejaVuSans-6f" x="1329.345703"/>
     <use xlink:href="#DejaVuSans-72" x="1390.527344"/>
     <use xlink:href="#DejaVuSans-20" x="1431.640625"/>
     <use xlink:href="#DejaVuSans-4c" x="1463.427734"/>
     <use xlink:href="#DejaVuSans-6f" x="1517.390625"/>
     <use xlink:href="#DejaVuSans-73" x="1578.572266"/>
     <use xlink:href="#DejaVuSans-73" x="1630.671875"/>
     <use xlink:href="#DejaVuSans-20" x="1682.771484"/>
     <use xlink:href="#DejaVuSans-44" x="1714.558594"/>
     <use xlink:href="#DejaVuSans-75" x="1791.560547"/>
     <use xlink:href="#DejaVuSans-72" x="1854.939453"/>
     <use xlink:href="#DejaVuSans-69" x="1896.052734"/>
     <use xlink:href="#DejaVuSans-6e" x="1923.835938"/>
     <use xlink:href="#DejaVuSans-67" x="1987.214844"/>
     <use xlink:href="#DejaVuSans-20" x="2050.691406"/>
     <use xlink:href="#DejaVuSans-54" x="2082.478516"/>
     <use xlink:href="#DejaVuSans-72" x="2128.8125"/>
     <use xlink:href="#DejaVuSans-61" x="2169.925781"/>
     <use xlink:href="#DejaVuSans-69" x="2231.205078"/>
     <use xlink:href="#DejaVuSans-6e" x="2258.988281"/>
     <use xlink:href="#DejaVuSans-69" x="2322.367188"/>
     <use xlink:href="#DejaVuSans-6e" x="2350.150391"/>
     <use xlink:href="#DejaVuSans-67" x="2413.529297"/>
    </g>
   </g>
   <g id="legend_1">
    <g id="patch_7">
     <path d="M 556.99375 106.14875 
L 636.490625 106.14875 
Q 640.490625 106.14875 640.490625 102.14875 
L 640.490625 45.43625 
Q 640.490625 41.43625 636.490625 41.43625 
L 556.99375 41.43625 
Q 552.99375 41.43625 552.99375 45.43625 
L 552.99375 102.14875 
Q 552.99375 106.14875 556.99375 106.14875 
z
" style="fill: #ffffff; opacity: 0.8; stroke: #cccccc; stroke-linejoin: miter"/>
    </g>
    <g id="line2d_16">
     <path d="M 560.99375 57.633125 
L 580.99375 57.633125 
L 600.99375 57.633125 
" style="fill: none; stroke: #1f77b4; stroke-width: 1.5; stroke-linecap: square"/>
    </g>
    <g id="text_17">
     <!-- G -->
     <g transform="translate(616.99375 64.633125) scale(0.2 -0.2)">
      <use xlink:href="#DejaVuSans-47"/>
     </g>
    </g>
    <g id="line2d_17">
     <path d="M 560.99375 86.989375 
L 580.99375 86.989375 
L 600.99375 86.989375 
" style="fill: none; stroke: #ff7f0e; stroke-width: 1.5; stroke-linecap: square"/>
    </g>
    <g id="text_18">
     <!-- D -->
     <g transform="translate(616.99375 93.989375) scale(0.2 -0.2)">
      <use xlink:href="#DejaVuSans-44"/>
     </g>
    </g>
   </g>
  </g>
 </g>
 <defs>
  <clipPath id="p50c302dc0c">
   <rect x="92.490625" y="31.43625" width="558" height="277.2"/>
  </clipPath>
 </defs>
</svg>
