<?xml version="1.0" encoding="utf-8" standalone="no"?>
<!DOCTYPE svg PUBLIC "-//W3C//DTD SVG 1.1//EN"
  "http://www.w3.org/Graphics/SVG/1.1/DTD/svg11.dtd">
<svg xmlns:xlink="http://www.w3.org/1999/xlink" width="675.923125pt" height="365.54875pt" viewBox="0 0 675.923125 365.54875" xmlns="http://www.w3.org/2000/svg" version="1.1">
 <metadata>
  <rdf:RDF xmlns:dc="http://purl.org/dc/elements/1.1/" xmlns:cc="http://creativecommons.org/ns#" xmlns:rdf="http://www.w3.org/1999/02/22-rdf-syntax-ns#">
   <cc:Work>
    <dc:type rdf:resource="http://purl.org/dc/dcmitype/StillImage"/>
    <dc:date>2024-02-02T00:39:13.607852</dc:date>
    <dc:format>image/svg+xml</dc:format>
    <dc:creator>
     <cc:Agent>
      <dc:title>Matplotlib v3.7.2, https://matplotlib.org/</dc:title>
     </cc:Agent>
    </dc:creator>
   </cc:Work>
  </rdf:RDF>
 </metadata>
 <defs>
  <style type="text/css">*{stroke-linejoin: round; stroke-linecap: butt}</style>
 </defs>
 <g id="figure_1">
  <g id="patch_1">
   <path d="M 0 365.54875 
L 675.923125 365.54875 
L 675.923125 -0 
L 0 -0 
z
" style="fill: #ffffff"/>
  </g>
  <g id="axes_1">
   <g id="patch_2">
    <path d="M 92.490625 308.63625 
L 650.490625 308.63625 
L 650.490625 31.43625 
L 92.490625 31.43625 
z
" style="fill: #ffffff"/>
   </g>
   <g id="matplotlib.axis_1">
    <g id="xtick_1">
     <g id="line2d_1">
      <defs>
       <path id="m1832cfda16" d="M 0 0 
L 0 3.5 
" style="stroke: #000000; stroke-width: 0.8"/>
      </defs>
      <g>
       <use xlink:href="#m1832cfda16" x="117.854261" y="308.63625" style="stroke: #000000; stroke-width: 0.8"/>
      </g>
     </g>
     <g id="text_1">
      <!-- 0 -->
      <g transform="translate(111.491761 330.833125) scale(0.2 -0.2)">
       <defs>
        <path id="DejaVuSans-30" d="M 2034 4250 
Q 1547 4250 1301 3770 
Q 1056 3291 1056 2328 
Q 1056 1369 1301 889 
Q 1547 409 2034 409 
Q 2525 409 2770 889 
Q 3016 1369 3016 2328 
Q 3016 3291 2770 3770 
Q 2525 4250 2034 4250 
z
M 2034 4750 
Q 2819 4750 3233 4129 
Q 3647 3509 3647 2328 
Q 3647 1150 3233 529 
Q 2819 -91 2034 -91 
Q 1250 -91 836 529 
Q 422 1150 422 2328 
Q 422 3509 836 4129 
Q 1250 4750 2034 4750 
z
" transform="scale(0.015625)"/>
       </defs>
       <use xlink:href="#DejaVuSans-30"/>
      </g>
     </g>
    </g>
    <g id="xtick_2">
     <g id="line2d_2">
      <g>
       <use xlink:href="#m1832cfda16" x="181.263352" y="308.63625" style="stroke: #000000; stroke-width: 0.8"/>
      </g>
     </g>
     <g id="text_2">
      <!-- 50 -->
      <g transform="translate(168.538352 330.833125) scale(0.2 -0.2)">
       <defs>
        <path id="DejaVuSans-35" d="M 691 4666 
L 3169 4666 
L 3169 4134 
L 1269 4134 
L 1269 2991 
Q 1406 3038 1543 3061 
Q 1681 3084 1819 3084 
Q 2600 3084 3056 2656 
Q 3513 2228 3513 1497 
Q 3513 744 3044 326 
Q 2575 -91 1722 -91 
Q 1428 -91 1123 -41 
Q 819 9 494 109 
L 494 744 
Q 775 591 1075 516 
Q 1375 441 1709 441 
Q 2250 441 2565 725 
Q 2881 1009 2881 1497 
Q 2881 1984 2565 2268 
Q 2250 2553 1709 2553 
Q 1456 2553 1204 2497 
Q 953 2441 691 2322 
L 691 4666 
z
" transform="scale(0.015625)"/>
       </defs>
       <use xlink:href="#DejaVuSans-35"/>
       <use xlink:href="#DejaVuSans-30" x="63.623047"/>
      </g>
     </g>
    </g>
    <g id="xtick_3">
     <g id="line2d_3">
      <g>
       <use xlink:href="#m1832cfda16" x="244.672443" y="308.63625" style="stroke: #000000; stroke-width: 0.8"/>
      </g>
     </g>
     <g id="text_3">
      <!-- 100 -->
      <g transform="translate(225.584943 330.833125) scale(0.2 -0.2)">
       <defs>
        <path id="DejaVuSans-31" d="M 794 531 
L 1825 531 
L 1825 4091 
L 703 3866 
L 703 4441 
L 1819 4666 
L 2450 4666 
L 2450 531 
L 3481 531 
L 3481 0 
L 794 0 
L 794 531 
z
" transform="scale(0.015625)"/>
       </defs>
       <use xlink:href="#DejaVuSans-31"/>
       <use xlink:href="#DejaVuSans-30" x="63.623047"/>
       <use xlink:href="#DejaVuSans-30" x="127.246094"/>
      </g>
     </g>
    </g>
    <g id="xtick_4">
     <g id="line2d_4">
      <g>
       <use xlink:href="#m1832cfda16" x="308.081534" y="308.63625" style="stroke: #000000; stroke-width: 0.8"/>
      </g>
     </g>
     <g id="text_4">
      <!-- 150 -->
      <g transform="translate(288.994034 330.833125) scale(0.2 -0.2)">
       <use xlink:href="#DejaVuSans-31"/>
       <use xlink:href="#DejaVuSans-35" x="63.623047"/>
       <use xlink:href="#DejaVuSans-30" x="127.246094"/>
      </g>
     </g>
    </g>
    <g id="xtick_5">
     <g id="line2d_5">
      <g>
       <use xlink:href="#m1832cfda16" x="371.490625" y="308.63625" style="stroke: #000000; stroke-width: 0.8"/>
      </g>
     </g>
     <g id="text_5">
      <!-- 200 -->
      <g transform="translate(352.403125 330.833125) scale(0.2 -0.2)">
       <defs>
        <path id="DejaVuSans-32" d="M 1228 531 
L 3431 531 
L 3431 0 
L 469 0 
L 469 531 
Q 828 903 1448 1529 
Q 2069 2156 2228 2338 
Q 2531 2678 2651 2914 
Q 2772 3150 2772 3378 
Q 2772 3750 2511 3984 
Q 2250 4219 1831 4219 
Q 1534 4219 1204 4116 
Q 875 4013 500 3803 
L 500 4441 
Q 881 4594 1212 4672 
Q 1544 4750 1819 4750 
Q 2544 4750 2975 4387 
Q 3406 4025 3406 3419 
Q 3406 3131 3298 2873 
Q 3191 2616 2906 2266 
Q 2828 2175 2409 1742 
Q 1991 1309 1228 531 
z
" transform="scale(0.015625)"/>
       </defs>
       <use xlink:href="#DejaVuSans-32"/>
       <use xlink:href="#DejaVuSans-30" x="63.623047"/>
       <use xlink:href="#DejaVuSans-30" x="127.246094"/>
      </g>
     </g>
    </g>
    <g id="xtick_6">
     <g id="line2d_6">
      <g>
       <use xlink:href="#m1832cfda16" x="434.899716" y="308.63625" style="stroke: #000000; stroke-width: 0.8"/>
      </g>
     </g>
     <g id="text_6">
      <!-- 250 -->
      <g transform="translate(415.812216 330.833125) scale(0.2 -0.2)">
       <use xlink:href="#DejaVuSans-32"/>
       <use xlink:href="#DejaVuSans-35" x="63.623047"/>
       <use xlink:href="#DejaVuSans-30" x="127.246094"/>
      </g>
     </g>
    </g>
    <g id="xtick_7">
     <g id="line2d_7">
      <g>
       <use xlink:href="#m1832cfda16" x="498.308807" y="308.63625" style="stroke: #000000; stroke-width: 0.8"/>
      </g>
     </g>
     <g id="text_7">
      <!-- 300 -->
      <g transform="translate(479.221307 330.833125) scale(0.2 -0.2)">
       <defs>
        <path id="DejaVuSans-33" d="M 2597 2516 
Q 3050 2419 3304 2112 
Q 3559 1806 3559 1356 
Q 3559 666 3084 287 
Q 2609 -91 1734 -91 
Q 1441 -91 1130 -33 
Q 819 25 488 141 
L 488 750 
Q 750 597 1062 519 
Q 1375 441 1716 441 
Q 2309 441 2620 675 
Q 2931 909 2931 1356 
Q 2931 1769 2642 2001 
Q 2353 2234 1838 2234 
L 1294 2234 
L 1294 2753 
L 1863 2753 
Q 2328 2753 2575 2939 
Q 2822 3125 2822 3475 
Q 2822 3834 2567 4026 
Q 2313 4219 1838 4219 
Q 1578 4219 1281 4162 
Q 984 4106 628 3988 
L 628 4550 
Q 988 4650 1302 4700 
Q 1616 4750 1894 4750 
Q 2613 4750 3031 4423 
Q 3450 4097 3450 3541 
Q 3450 3153 3228 2886 
Q 3006 2619 2597 2516 
z
" transform="scale(0.015625)"/>
       </defs>
       <use xlink:href="#DejaVuSans-33"/>
       <use xlink:href="#DejaVuSans-30" x="63.623047"/>
       <use xlink:href="#DejaVuSans-30" x="127.246094"/>
      </g>
     </g>
    </g>
    <g id="xtick_8">
     <g id="line2d_8">
      <g>
       <use xlink:href="#m1832cfda16" x="561.717898" y="308.63625" style="stroke: #000000; stroke-width: 0.8"/>
      </g>
     </g>
     <g id="text_8">
      <!-- 350 -->
      <g transform="translate(542.630398 330.833125) scale(0.2 -0.2)">
       <use xlink:href="#DejaVuSans-33"/>
       <use xlink:href="#DejaVuSans-35" x="63.623047"/>
       <use xlink:href="#DejaVuSans-30" x="127.246094"/>
      </g>
     </g>
    </g>
    <g id="xtick_9">
     <g id="line2d_9">
      <g>
       <use xlink:href="#m1832cfda16" x="625.126989" y="308.63625" style="stroke: #000000; stroke-width: 0.8"/>
      </g>
     </g>
     <g id="text_9">
      <!-- 400 -->
      <g transform="translate(606.039489 330.833125) scale(0.2 -0.2)">
       <defs>
        <path id="DejaVuSans-34" d="M 2419 4116 
L 825 1625 
L 2419 1625 
L 2419 4116 
z
M 2253 4666 
L 3047 4666 
L 3047 1625 
L 3713 1625 
L 3713 1100 
L 3047 1100 
L 3047 0 
L 2419 0 
L 2419 1100 
L 313 1100 
L 313 1709 
L 2253 4666 
z
" transform="scale(0.015625)"/>
       </defs>
       <use xlink:href="#DejaVuSans-34"/>
       <use xlink:href="#DejaVuSans-30" x="63.623047"/>
       <use xlink:href="#DejaVuSans-30" x="127.246094"/>
      </g>
     </g>
    </g>
    <g id="text_10">
     <!-- iterations -->
     <g transform="translate(324.035938 354.189375) scale(0.2 -0.2)">
      <defs>
       <path id="DejaVuSans-69" d="M 603 3500 
L 1178 3500 
L 1178 0 
L 603 0 
L 603 3500 
z
M 603 4863 
L 1178 4863 
L 1178 4134 
L 603 4134 
L 603 4863 
z
" transform="scale(0.015625)"/>
       <path id="DejaVuSans-74" d="M 1172 4494 
L 1172 3500 
L 2356 3500 
L 2356 3053 
L 1172 3053 
L 1172 1153 
Q 1172 725 1289 603 
Q 1406 481 1766 481 
L 2356 481 
L 2356 0 
L 1766 0 
Q 1100 0 847 248 
Q 594 497 594 1153 
L 594 3053 
L 172 3053 
L 172 3500 
L 594 3500 
L 594 4494 
L 1172 4494 
z
" transform="scale(0.015625)"/>
       <path id="DejaVuSans-65" d="M 3597 1894 
L 3597 1613 
L 953 1613 
Q 991 1019 1311 708 
Q 1631 397 2203 397 
Q 2534 397 2845 478 
Q 3156 559 3463 722 
L 3463 178 
Q 3153 47 2828 -22 
Q 2503 -91 2169 -91 
Q 1331 -91 842 396 
Q 353 884 353 1716 
Q 353 2575 817 3079 
Q 1281 3584 2069 3584 
Q 2775 3584 3186 3129 
Q 3597 2675 3597 1894 
z
M 3022 2063 
Q 3016 2534 2758 2815 
Q 2500 3097 2075 3097 
Q 1594 3097 1305 2825 
Q 1016 2553 972 2059 
L 3022 2063 
z
" transform="scale(0.015625)"/>
       <path id="DejaVuSans-72" d="M 2631 2963 
Q 2534 3019 2420 3045 
Q 2306 3072 2169 3072 
Q 1681 3072 1420 2755 
Q 1159 2438 1159 1844 
L 1159 0 
L 581 0 
L 581 3500 
L 1159 3500 
L 1159 2956 
Q 1341 3275 1631 3429 
Q 1922 3584 2338 3584 
Q 2397 3584 2469 3576 
Q 2541 3569 2628 3553 
L 2631 2963 
z
" transform="scale(0.015625)"/>
       <path id="DejaVuSans-61" d="M 2194 1759 
Q 1497 1759 1228 1600 
Q 959 1441 959 1056 
Q 959 750 1161 570 
Q 1363 391 1709 391 
Q 2188 391 2477 730 
Q 2766 1069 2766 1631 
L 2766 1759 
L 2194 1759 
z
M 3341 1997 
L 3341 0 
L 2766 0 
L 2766 531 
Q 2569 213 2275 61 
Q 1981 -91 1556 -91 
Q 1019 -91 701 211 
Q 384 513 384 1019 
Q 384 1609 779 1909 
Q 1175 2209 1959 2209 
L 2766 2209 
L 2766 2266 
Q 2766 2663 2505 2880 
Q 2244 3097 1772 3097 
Q 1472 3097 1187 3025 
Q 903 2953 641 2809 
L 641 3341 
Q 956 3463 1253 3523 
Q 1550 3584 1831 3584 
Q 2591 3584 2966 3190 
Q 3341 2797 3341 1997 
z
" transform="scale(0.015625)"/>
       <path id="DejaVuSans-6f" d="M 1959 3097 
Q 1497 3097 1228 2736 
Q 959 2375 959 1747 
Q 959 1119 1226 758 
Q 1494 397 1959 397 
Q 2419 397 2687 759 
Q 2956 1122 2956 1747 
Q 2956 2369 2687 2733 
Q 2419 3097 1959 3097 
z
M 1959 3584 
Q 2709 3584 3137 3096 
Q 3566 2609 3566 1747 
Q 3566 888 3137 398 
Q 2709 -91 1959 -91 
Q 1206 -91 779 398 
Q 353 888 353 1747 
Q 353 2609 779 3096 
Q 1206 3584 1959 3584 
z
" transform="scale(0.015625)"/>
       <path id="DejaVuSans-6e" d="M 3513 2113 
L 3513 0 
L 2938 0 
L 2938 2094 
Q 2938 2591 2744 2837 
Q 2550 3084 2163 3084 
Q 1697 3084 1428 2787 
Q 1159 2491 1159 1978 
L 1159 0 
L 581 0 
L 581 3500 
L 1159 3500 
L 1159 2956 
Q 1366 3272 1645 3428 
Q 1925 3584 2291 3584 
Q 2894 3584 3203 3211 
Q 3513 2838 3513 2113 
z
" transform="scale(0.015625)"/>
       <path id="DejaVuSans-73" d="M 2834 3397 
L 2834 2853 
Q 2591 2978 2328 3040 
Q 2066 3103 1784 3103 
Q 1356 3103 1142 2972 
Q 928 2841 928 2578 
Q 928 2378 1081 2264 
Q 1234 2150 1697 2047 
L 1894 2003 
Q 2506 1872 2764 1633 
Q 3022 1394 3022 966 
Q 3022 478 2636 193 
Q 2250 -91 1575 -91 
Q 1294 -91 989 -36 
Q 684 19 347 128 
L 347 722 
Q 666 556 975 473 
Q 1284 391 1588 391 
Q 1994 391 2212 530 
Q 2431 669 2431 922 
Q 2431 1156 2273 1281 
Q 2116 1406 1581 1522 
L 1381 1569 
Q 847 1681 609 1914 
Q 372 2147 372 2553 
Q 372 3047 722 3315 
Q 1072 3584 1716 3584 
Q 2034 3584 2315 3537 
Q 2597 3491 2834 3397 
z
" transform="scale(0.015625)"/>
      </defs>
      <use xlink:href="#DejaVuSans-69"/>
      <use xlink:href="#DejaVuSans-74" x="27.783203"/>
      <use xlink:href="#DejaVuSans-65" x="66.992188"/>
      <use xlink:href="#DejaVuSans-72" x="128.515625"/>
      <use xlink:href="#DejaVuSans-61" x="169.628906"/>
      <use xlink:href="#DejaVuSans-74" x="230.908203"/>
      <use xlink:href="#DejaVuSans-69" x="270.117188"/>
      <use xlink:href="#DejaVuSans-6f" x="297.900391"/>
      <use xlink:href="#DejaVuSans-6e" x="359.082031"/>
      <use xlink:href="#DejaVuSans-73" x="422.460938"/>
     </g>
    </g>
   </g>
   <g id="matplotlib.axis_2">
    <g id="ytick_1">
     <g id="line2d_10">
      <defs>
       <path id="mfd9919dff8" d="M 0 0 
L -3.5 0 
" style="stroke: #000000; stroke-width: 0.8"/>
      </defs>
      <g>
       <use xlink:href="#mfd9919dff8" x="92.490625" y="302.634137" style="stroke: #000000; stroke-width: 0.8"/>
      </g>
     </g>
     <g id="text_11">
      <!-- −400 -->
      <g transform="translate(30.55625 310.232575) scale(0.2 -0.2)">
       <defs>
        <path id="DejaVuSans-2212" d="M 678 2272 
L 4684 2272 
L 4684 1741 
L 678 1741 
L 678 2272 
z
" transform="scale(0.015625)"/>
       </defs>
       <use xlink:href="#DejaVuSans-2212"/>
       <use xlink:href="#DejaVuSans-34" x="83.789062"/>
       <use xlink:href="#DejaVuSans-30" x="147.412109"/>
       <use xlink:href="#DejaVuSans-30" x="211.035156"/>
      </g>
     </g>
    </g>
    <g id="ytick_2">
     <g id="line2d_11">
      <g>
       <use xlink:href="#mfd9919dff8" x="92.490625" y="217.204173" style="stroke: #000000; stroke-width: 0.8"/>
      </g>
     </g>
     <g id="text_12">
      <!-- −200 -->
      <g transform="translate(30.55625 224.802611) scale(0.2 -0.2)">
       <use xlink:href="#DejaVuSans-2212"/>
       <use xlink:href="#DejaVuSans-32" x="83.789062"/>
       <use xlink:href="#DejaVuSans-30" x="147.412109"/>
       <use xlink:href="#DejaVuSans-30" x="211.035156"/>
      </g>
     </g>
    </g>
    <g id="ytick_3">
     <g id="line2d_12">
      <g>
       <use xlink:href="#mfd9919dff8" x="92.490625" y="131.77421" style="stroke: #000000; stroke-width: 0.8"/>
      </g>
     </g>
     <g id="text_13">
      <!-- 0 -->
      <g transform="translate(72.765625 139.372647) scale(0.2 -0.2)">
       <use xlink:href="#DejaVuSans-30"/>
      </g>
     </g>
    </g>
    <g id="ytick_4">
     <g id="line2d_13">
      <g>
       <use xlink:href="#mfd9919dff8" x="92.490625" y="46.344246" style="stroke: #000000; stroke-width: 0.8"/>
      </g>
     </g>
     <g id="text_14">
      <!-- 200 -->
      <g transform="translate(47.315625 53.942683) scale(0.2 -0.2)">
       <use xlink:href="#DejaVuSans-32"/>
       <use xlink:href="#DejaVuSans-30" x="63.623047"/>
       <use xlink:href="#DejaVuSans-30" x="127.246094"/>
      </g>
     </g>
    </g>
    <g id="text_15">
     <!-- Loss -->
     <g transform="translate(22.396875 191.970625) rotate(-90) scale(0.2 -0.2)">
      <defs>
       <path id="DejaVuSans-4c" d="M 628 4666 
L 1259 4666 
L 1259 531 
L 3531 531 
L 3531 0 
L 628 0 
L 628 4666 
z
" transform="scale(0.015625)"/>
      </defs>
      <use xlink:href="#DejaVuSans-4c"/>
      <use xlink:href="#DejaVuSans-6f" x="53.962891"/>
      <use xlink:href="#DejaVuSans-73" x="115.144531"/>
      <use xlink:href="#DejaVuSans-73" x="167.244141"/>
     </g>
    </g>
   </g>
   <g id="line2d_14">
    <path d="M 117.854261 106.2005 
L 119.122443 95.293269 
L 120.390625 103.012934 
L 121.658807 83.802116 
L 122.926989 71.07048 
L 124.19517 44.03625 
L 125.463352 48.202048 
L 126.731534 79.082405 
L 127.999716 79.801139 
L 129.267898 95.039151 
L 130.53608 99.383912 
L 131.804261 110.005204 
L 133.072443 115.933238 
L 134.340625 123.921766 
L 135.608807 136.222671 
L 136.876989 131.011891 
L 138.14517 139.741022 
L 139.413352 146.066312 
L 140.681534 129.711857 
L 141.949716 135.776002 
L 143.217898 128.840387 
L 144.48608 145.744362 
L 145.754261 150.965648 
L 147.022443 141.047725 
L 148.290625 144.709483 
L 149.558807 146.730342 
L 150.826989 143.90278 
L 152.09517 148.88913 
L 153.363352 149.976643 
L 154.631534 151.914943 
L 155.899716 150.461138 
L 157.167898 156.209315 
L 158.43608 153.818163 
L 159.704261 152.769792 
L 160.972443 154.957248 
L 162.240625 151.727097 
L 163.508807 148.919835 
L 164.776989 152.450257 
L 166.04517 149.30327 
L 167.313352 147.780732 
L 168.581534 148.375357 
L 169.849716 146.50394 
L 171.117898 148.745232 
L 172.38608 148.044137 
L 173.654261 150.657455 
L 174.922443 150.931957 
L 176.190625 148.202109 
L 177.458807 149.697081 
L 178.726989 148.719548 
L 179.99517 151.590814 
L 181.263352 149.238312 
L 182.531534 148.782451 
L 183.799716 146.91656 
L 185.067898 152.215016 
L 186.33608 147.648837 
L 187.604261 149.753192 
L 188.872443 147.694581 
L 190.140625 144.79521 
L 191.408807 145.921815 
L 192.676989 147.614704 
L 193.94517 147.130159 
L 195.213352 147.865317 
L 196.481534 146.770889 
L 197.749716 147.150497 
L 199.017898 146.202236 
L 200.28608 146.632383 
L 201.554261 147.881774 
L 202.822443 147.072561 
L 204.090625 147.95157 
L 205.358807 147.692356 
L 206.626989 147.157453 
L 207.89517 148.781308 
L 209.163352 148.414371 
L 210.431534 146.590766 
L 211.699716 144.450993 
L 214.23608 143.911113 
L 215.504261 143.957386 
L 216.772443 142.36949 
L 218.040625 145.188605 
L 219.308807 146.418944 
L 220.576989 145.376387 
L 221.84517 143.943596 
L 223.113352 142.843895 
L 224.381534 142.253463 
L 225.649716 142.717522 
L 226.917898 142.44384 
L 228.18608 142.872071 
L 229.454261 142.730961 
L 230.722443 143.888077 
L 231.990625 144.001604 
L 233.258807 142.574551 
L 234.526989 142.306426 
L 235.79517 142.937759 
L 237.063352 142.457902 
L 238.331534 143.531894 
L 239.599716 141.851198 
L 240.867898 144.015207 
L 243.404261 145.176547 
L 244.672443 147.614982 
L 245.940625 147.263937 
L 247.208807 144.073517 
L 248.476989 143.507762 
L 249.74517 144.077467 
L 251.013352 142.151502 
L 252.281534 141.557044 
L 253.549716 144.416611 
L 254.817898 145.316282 
L 256.08608 142.868472 
L 257.354261 144.028237 
L 258.622443 142.228375 
L 259.890625 142.014184 
L 261.158807 141.589126 
L 262.426989 141.571197 
L 263.69517 141.310832 
L 264.963352 140.917898 
L 266.231534 140.346577 
L 267.499716 140.861824 
L 268.767898 140.111764 
L 270.03608 138.192451 
L 271.304261 138.269277 
L 272.572443 138.718045 
L 273.840625 140.156663 
L 275.108807 138.766498 
L 276.376989 138.279705 
L 277.64517 139.323794 
L 278.913352 139.525302 
L 280.181534 139.180249 
L 281.449716 140.239676 
L 282.717898 141.858362 
L 283.98608 138.938448 
L 285.254261 139.449096 
L 286.522443 140.336515 
L 287.790625 142.371394 
L 289.058807 139.956244 
L 290.326989 140.734341 
L 291.59517 139.937076 
L 292.863352 139.804026 
L 294.131534 138.205218 
L 295.399716 139.587032 
L 296.667898 140.46733 
L 297.93608 141.119228 
L 299.204261 139.052084 
L 300.472443 139.736506 
L 301.740625 141.329343 
L 303.008807 140.279518 
L 304.276989 140.313563 
L 305.54517 139.700591 
L 306.813352 139.85989 
L 308.081534 139.097869 
L 310.617898 141.702979 
L 311.88608 140.54567 
L 313.154261 140.869427 
L 314.422443 142.201998 
L 315.690625 140.897605 
L 316.958807 141.391703 
L 319.49517 138.737702 
L 322.031534 142.102561 
L 323.299716 141.988356 
L 324.567898 142.147197 
L 325.83608 143.574172 
L 327.104261 140.636832 
L 328.372443 142.174733 
L 329.640625 143.175611 
L 330.908807 142.2773 
L 332.176989 141.613602 
L 333.44517 140.19156 
L 334.713352 142.75052 
L 335.981534 142.302067 
L 337.249716 143.746324 
L 338.517898 144.672228 
L 339.78608 143.788992 
L 341.054261 143.74112 
L 342.322443 142.406016 
L 343.590625 142.586782 
L 344.858807 144.512704 
L 346.126989 144.272991 
L 347.39517 143.769912 
L 348.663352 142.060514 
L 349.931534 141.58127 
L 351.199716 142.216679 
L 352.467898 140.461817 
L 353.73608 140.28079 
L 355.004261 144.05529 
L 356.272443 141.60604 
L 357.540625 142.299131 
L 358.808807 142.238929 
L 361.34517 141.520141 
L 362.613352 141.800176 
L 363.881534 141.370555 
L 365.149716 142.011928 
L 366.417898 141.833753 
L 367.68608 141.437759 
L 368.954261 141.943321 
L 370.222443 140.528882 
L 371.490625 140.208809 
L 372.758807 140.703162 
L 374.026989 141.554831 
L 375.29517 141.715784 
L 376.563352 140.065541 
L 377.831534 141.359576 
L 379.099716 142.10316 
L 380.367898 141.443143 
L 381.63608 141.179998 
L 382.904261 141.369596 
L 384.172443 141.233448 
L 385.440625 141.781948 
L 386.708807 141.728105 
L 387.976989 140.068284 
L 389.24517 139.740699 
L 390.513352 139.729665 
L 391.781534 140.554805 
L 393.049716 139.720235 
L 394.317898 142.083062 
L 395.58608 142.270694 
L 396.854261 141.359614 
L 398.122443 141.262846 
L 399.390625 140.203036 
L 400.658807 139.631234 
L 401.926989 140.828401 
L 403.19517 140.658546 
L 404.463352 139.660707 
L 405.731534 141.033843 
L 406.999716 140.479054 
L 408.267898 138.908645 
L 409.53608 141.293396 
L 410.804261 143.175718 
L 412.072443 140.912469 
L 413.340625 142.693637 
L 414.608807 141.13301 
L 415.876989 141.298107 
L 417.14517 141.917444 
L 418.413352 141.060915 
L 420.949716 139.672439 
L 422.217898 140.568505 
L 423.48608 141.72895 
L 424.754261 141.955635 
L 426.022443 139.66056 
L 427.290625 141.115863 
L 429.826989 141.90842 
L 432.363352 141.271928 
L 433.631534 141.304225 
L 434.899716 140.883772 
L 436.167898 139.900049 
L 437.43608 141.93954 
L 438.704261 141.38107 
L 439.972443 141.043629 
L 441.240625 141.257252 
L 442.508807 141.861299 
L 443.776989 141.081762 
L 445.04517 141.623368 
L 446.313352 143.065076 
L 447.581534 142.508555 
L 448.849716 142.223836 
L 451.38608 140.742288 
L 452.654261 141.250351 
L 453.922443 139.881919 
L 455.190625 140.100562 
L 457.726989 139.564669 
L 458.99517 141.857634 
L 460.263352 138.77274 
L 461.531534 140.420332 
L 462.799716 140.256908 
L 464.067898 140.257608 
L 465.33608 140.809362 
L 467.872443 139.187185 
L 469.140625 139.360426 
L 470.408807 140.556467 
L 471.676989 141.113111 
L 472.94517 140.86058 
L 474.213352 140.209854 
L 475.481534 141.105996 
L 476.749716 142.337483 
L 478.017898 140.07311 
L 479.28608 140.602043 
L 480.554261 140.125384 
L 481.822443 140.266199 
L 483.090625 139.772343 
L 484.358807 140.821142 
L 485.626989 141.145302 
L 488.163352 139.141903 
L 489.431534 138.844941 
L 490.699716 140.093781 
L 491.967898 140.315587 
L 493.23608 137.059576 
L 494.504261 135.341227 
L 495.772443 136.917032 
L 497.040625 138.125529 
L 498.308807 140.60994 
L 499.576989 140.872107 
L 500.84517 138.13094 
L 502.113352 140.283064 
L 503.381534 140.683787 
L 504.649716 139.987451 
L 505.917898 141.833527 
L 508.454261 140.417825 
L 509.722443 141.311646 
L 510.990625 139.75019 
L 512.258807 139.840337 
L 513.526989 139.798123 
L 514.79517 139.948652 
L 516.063352 140.219814 
L 517.331534 140.689288 
L 518.599716 139.985053 
L 519.867898 140.275247 
L 521.13608 141.752186 
L 522.404261 140.095416 
L 523.672443 141.105599 
L 524.940625 143.034492 
L 526.208807 141.114813 
L 527.476989 140.737658 
L 528.74517 139.765443 
L 530.013352 139.957015 
L 531.281534 140.337908 
L 532.549716 139.574103 
L 533.817898 141.082953 
L 535.08608 141.206726 
L 536.354261 140.915457 
L 537.622443 142.191172 
L 538.890625 141.336998 
L 540.158807 139.692628 
L 541.426989 141.000938 
L 542.69517 140.909394 
L 543.963352 141.552779 
L 545.231534 141.729933 
L 546.499716 141.491486 
L 547.767898 142.667296 
L 549.03608 143.194822 
L 550.304261 144.093051 
L 551.572443 143.682404 
L 552.840625 142.500327 
L 554.108807 141.641717 
L 555.376989 141.820165 
L 556.64517 142.997563 
L 557.913352 141.298489 
L 559.181534 141.845926 
L 560.449716 141.503955 
L 561.717898 141.585354 
L 562.98608 140.514449 
L 564.254261 141.485577 
L 565.522443 140.997126 
L 566.790625 140.769428 
L 569.326989 141.735172 
L 570.59517 140.479324 
L 571.863352 141.269145 
L 573.131534 141.301165 
L 574.399716 141.925125 
L 575.667898 141.219729 
L 578.204261 141.096262 
L 579.472443 140.000626 
L 582.008807 139.960953 
L 583.276989 140.248976 
L 584.54517 140.42143 
L 585.813352 140.187129 
L 587.081534 140.646585 
L 588.349716 139.810883 
L 590.88608 141.080838 
L 592.154261 140.892541 
L 593.422443 140.117579 
L 594.690625 141.720876 
L 595.958807 142.881143 
L 597.226989 142.215011 
L 598.49517 144.099605 
L 599.763352 142.123466 
L 601.031534 142.008462 
L 602.299716 143.050816 
L 603.567898 143.273704 
L 604.83608 142.733912 
L 607.372443 142.832352 
L 608.640625 143.021904 
L 609.908807 142.349658 
L 612.44517 137.554799 
L 613.713352 138.422193 
L 614.981534 132.055602 
L 616.249716 134.866361 
L 617.517898 134.561206 
L 618.78608 133.41717 
L 620.054261 135.528764 
L 621.322443 136.720811 
L 622.590625 136.13275 
L 623.858807 135.806208 
L 625.126989 136.480411 
L 625.126989 136.480411 
" clip-path="url(#p6801641b03)" style="fill: none; stroke: #1f77b4; stroke-width: 1.5; stroke-linecap: square"/>
   </g>
   <g id="line2d_15">
    <path d="M 117.854261 296.03625 
L 119.122443 241.113866 
L 120.390625 203.288765 
L 121.658807 205.049939 
L 122.926989 206.143459 
L 124.19517 203.498942 
L 125.463352 186.685966 
L 126.731534 205.438172 
L 127.999716 185.019453 
L 129.267898 179.820324 
L 130.53608 180.821211 
L 131.804261 180.813717 
L 133.072443 182.146734 
L 134.340625 178.799757 
L 135.608807 180.178391 
L 136.876989 168.962548 
L 138.14517 174.973676 
L 139.413352 174.142921 
L 140.681534 175.917601 
L 141.949716 177.47744 
L 143.217898 178.02884 
L 144.48608 164.487503 
L 145.754261 166.986542 
L 147.022443 163.693045 
L 148.290625 167.581344 
L 149.558807 164.551672 
L 150.826989 164.242989 
L 152.09517 164.583071 
L 153.363352 158.927573 
L 154.631534 159.597491 
L 155.899716 163.332655 
L 157.167898 159.064405 
L 158.43608 157.226609 
L 159.704261 158.525201 
L 160.972443 160.114653 
L 162.240625 157.536135 
L 163.508807 156.008313 
L 164.776989 156.101845 
L 166.04517 158.11385 
L 167.313352 159.255239 
L 168.581534 158.371931 
L 169.849716 158.633965 
L 171.117898 156.947882 
L 172.38608 154.988208 
L 173.654261 158.988351 
L 174.922443 159.203964 
L 176.190625 158.449679 
L 177.458807 154.020669 
L 178.726989 153.725238 
L 179.99517 157.613843 
L 181.263352 159.434499 
L 182.531534 157.180335 
L 183.799716 155.850694 
L 185.067898 158.029298 
L 186.33608 157.177485 
L 187.604261 155.614422 
L 188.872443 155.980615 
L 190.140625 154.753656 
L 191.408807 155.408499 
L 192.676989 158.615546 
L 193.94517 156.940358 
L 195.213352 155.516206 
L 196.481534 155.288589 
L 197.749716 155.670831 
L 200.28608 158.295871 
L 201.554261 159.280733 
L 202.822443 158.871815 
L 204.090625 157.26312 
L 205.358807 156.861179 
L 206.626989 156.724625 
L 207.89517 156.787615 
L 209.163352 158.944455 
L 210.431534 156.049845 
L 211.699716 155.294044 
L 212.967898 156.561929 
L 214.23608 157.36283 
L 215.504261 157.655218 
L 216.772443 156.046993 
L 218.040625 158.774749 
L 219.308807 157.637184 
L 220.576989 156.304672 
L 221.84517 154.245005 
L 223.113352 154.473916 
L 224.381534 153.822593 
L 225.649716 154.94767 
L 226.917898 155.803786 
L 228.18608 155.531842 
L 229.454261 154.587492 
L 230.722443 156.61496 
L 231.990625 155.424676 
L 233.258807 154.423699 
L 234.526989 150.82526 
L 237.063352 152.202226 
L 238.331534 152.88935 
L 239.599716 153.076736 
L 240.867898 155.349784 
L 242.13608 153.019148 
L 243.404261 155.002136 
L 244.672443 153.832037 
L 245.940625 155.94442 
L 247.208807 149.305635 
L 248.476989 150.20283 
L 249.74517 147.868647 
L 251.013352 147.383957 
L 252.281534 148.273323 
L 253.549716 151.36421 
L 254.817898 150.447154 
L 256.08608 149.313987 
L 257.354261 150.086891 
L 258.622443 150.064108 
L 259.890625 151.354422 
L 261.158807 149.22371 
L 262.426989 151.954691 
L 264.963352 150.047436 
L 266.231534 149.991833 
L 267.499716 150.313042 
L 268.767898 152.187133 
L 270.03608 148.43794 
L 271.304261 150.235716 
L 272.572443 150.33164 
L 273.840625 151.363168 
L 275.108807 149.663027 
L 277.64517 149.461831 
L 278.913352 149.117886 
L 280.181534 149.697328 
L 281.449716 149.674019 
L 282.717898 150.915693 
L 283.98608 150.0342 
L 285.254261 150.45281 
L 286.522443 150.12333 
L 287.790625 150.654267 
L 289.058807 151.798453 
L 290.326989 153.433211 
L 291.59517 151.196747 
L 292.863352 149.809581 
L 294.131534 149.944401 
L 295.399716 149.639818 
L 296.667898 150.804349 
L 297.93608 151.107627 
L 299.204261 150.99181 
L 300.472443 151.6235 
L 301.740625 151.800852 
L 303.008807 151.13914 
L 304.276989 151.051892 
L 305.54517 153.006503 
L 306.813352 152.149768 
L 308.081534 151.548159 
L 309.349716 152.374985 
L 310.617898 152.167704 
L 311.88608 151.425898 
L 313.154261 153.236006 
L 314.422443 153.007327 
L 315.690625 151.352523 
L 316.958807 150.212294 
L 318.226989 149.877967 
L 319.49517 149.76712 
L 320.763352 152.334364 
L 322.031534 152.984876 
L 323.299716 154.989053 
L 324.567898 152.777388 
L 325.83608 155.510737 
L 327.104261 153.131881 
L 328.372443 154.505523 
L 329.640625 153.474304 
L 330.908807 153.384478 
L 332.176989 154.081152 
L 333.44517 150.17425 
L 334.713352 151.303553 
L 335.981534 151.289085 
L 337.249716 152.397849 
L 338.517898 152.456653 
L 339.78608 150.403996 
L 342.322443 151.256954 
L 343.590625 152.309498 
L 344.858807 155.515012 
L 346.126989 153.799522 
L 347.39517 154.22262 
L 348.663352 151.425359 
L 349.931534 151.190714 
L 351.199716 150.809033 
L 352.467898 150.179916 
L 353.73608 150.736983 
L 355.004261 152.238025 
L 356.272443 150.723638 
L 357.540625 149.389988 
L 358.808807 152.36677 
L 360.076989 151.178073 
L 361.34517 151.577578 
L 362.613352 153.414952 
L 363.881534 150.167981 
L 365.149716 150.014169 
L 366.417898 150.413847 
L 367.68608 148.432849 
L 368.954261 150.09173 
L 370.222443 150.013241 
L 372.758807 152.862798 
L 374.026989 148.176301 
L 375.29517 151.27553 
L 376.563352 150.204153 
L 377.831534 150.429404 
L 379.099716 153.806232 
L 380.367898 152.564889 
L 381.63608 151.764491 
L 382.904261 151.634621 
L 384.172443 151.798586 
L 386.708807 151.136103 
L 387.976989 149.717316 
L 389.24517 146.124544 
L 390.513352 146.390486 
L 391.781534 147.845925 
L 393.049716 147.747277 
L 394.317898 149.558781 
L 395.58608 151.12045 
L 396.854261 150.824896 
L 398.122443 151.402646 
L 399.390625 148.853405 
L 400.658807 150.661894 
L 401.926989 151.552457 
L 403.19517 150.230134 
L 404.463352 149.747131 
L 405.731534 151.02265 
L 406.999716 151.54486 
L 408.267898 149.989709 
L 409.53608 153.052728 
L 410.804261 152.927737 
L 412.072443 150.854604 
L 413.340625 149.803555 
L 414.608807 151.003609 
L 415.876989 152.796036 
L 417.14517 153.127643 
L 418.413352 152.847695 
L 419.681534 149.57657 
L 420.949716 151.199333 
L 422.217898 151.612981 
L 423.48608 150.939007 
L 424.754261 150.668608 
L 426.022443 148.261371 
L 427.290625 150.64913 
L 428.558807 149.748479 
L 429.826989 148.539394 
L 431.09517 149.983433 
L 432.363352 150.051366 
L 433.631534 149.886969 
L 434.899716 148.826135 
L 436.167898 148.534426 
L 437.43608 149.706885 
L 438.704261 148.706397 
L 439.972443 150.532964 
L 441.240625 148.740553 
L 442.508807 149.327069 
L 443.776989 149.280068 
L 445.04517 150.824788 
L 446.313352 152.94373 
L 447.581534 150.838432 
L 448.849716 151.038112 
L 450.117898 150.42302 
L 451.38608 150.419573 
L 452.654261 151.387996 
L 453.922443 147.587184 
L 455.190625 149.256893 
L 456.458807 150.177876 
L 457.726989 148.732241 
L 458.99517 151.537359 
L 460.263352 147.732009 
L 461.531534 148.940103 
L 462.799716 148.171511 
L 464.067898 150.538707 
L 465.33608 151.618155 
L 466.604261 147.331739 
L 467.872443 146.71374 
L 469.140625 147.041982 
L 470.408807 146.64251 
L 472.94517 149.735165 
L 474.213352 147.685401 
L 475.481534 148.928008 
L 476.749716 149.44773 
L 478.017898 147.520702 
L 479.28608 147.992599 
L 480.554261 148.075181 
L 481.822443 147.476149 
L 483.090625 147.986914 
L 484.358807 149.178678 
L 485.626989 149.618311 
L 486.89517 148.624371 
L 488.163352 146.764939 
L 489.431534 146.058598 
L 490.699716 147.941403 
L 491.967898 148.029202 
L 493.23608 150.687199 
L 494.504261 146.697004 
L 495.772443 145.16617 
L 497.040625 146.6666 
L 498.308807 147.58066 
L 500.84517 145.861357 
L 502.113352 147.828364 
L 503.381534 147.007308 
L 505.917898 146.009021 
L 508.454261 148.688569 
L 509.722443 149.924127 
L 512.258807 146.336792 
L 513.526989 146.575728 
L 514.79517 148.283753 
L 516.063352 148.877409 
L 517.331534 147.467875 
L 518.599716 146.334357 
L 519.867898 146.61056 
L 521.13608 148.682391 
L 522.404261 148.756905 
L 523.672443 149.724469 
L 524.940625 148.74832 
L 526.208807 148.558895 
L 527.476989 148.723365 
L 528.74517 146.921662 
L 530.013352 147.01632 
L 531.281534 146.944288 
L 532.549716 147.558182 
L 533.817898 147.766075 
L 535.08608 148.390341 
L 536.354261 147.878107 
L 537.622443 148.882083 
L 538.890625 148.014212 
L 540.158807 148.676497 
L 541.426989 147.872348 
L 542.69517 145.778762 
L 543.963352 146.001206 
L 545.231534 146.342631 
L 546.499716 148.350632 
L 547.767898 148.988638 
L 549.03608 147.391235 
L 550.304261 149.821081 
L 551.572443 147.996077 
L 552.840625 149.031582 
L 554.108807 146.037361 
L 555.376989 148.671689 
L 556.64517 149.053573 
L 557.913352 148.04938 
L 559.181534 146.400472 
L 561.717898 146.825366 
L 562.98608 145.566805 
L 564.254261 146.199822 
L 565.522443 147.363132 
L 566.790625 145.266351 
L 568.058807 146.472383 
L 569.326989 146.405547 
L 570.59517 145.784048 
L 571.863352 145.925262 
L 573.131534 147.715782 
L 574.399716 145.079454 
L 575.667898 145.744808 
L 576.93608 146.658808 
L 578.204261 146.263982 
L 579.472443 144.737049 
L 580.740625 145.535868 
L 582.008807 147.097598 
L 583.276989 146.435914 
L 584.54517 146.878997 
L 585.813352 146.887601 
L 587.081534 147.294672 
L 589.617898 147.727013 
L 590.88608 147.715841 
L 592.154261 148.327607 
L 593.422443 147.360703 
L 594.690625 148.57042 
L 595.958807 148.590716 
L 597.226989 147.186829 
L 598.49517 149.632939 
L 599.763352 148.065214 
L 601.031534 148.880796 
L 602.299716 150.087824 
L 603.567898 149.006153 
L 604.83608 149.041311 
L 606.104261 149.919469 
L 607.372443 151.783883 
L 609.908807 148.51746 
L 611.176989 140.383069 
L 612.44517 134.645392 
L 613.713352 135.276076 
L 614.981534 134.09476 
L 616.249716 134.924173 
L 617.517898 133.544362 
L 618.78608 133.932559 
L 620.054261 134.109289 
L 621.322443 134.095199 
L 622.590625 136.328853 
L 623.858807 134.045089 
L 625.126989 134.285888 
L 625.126989 134.285888 
" clip-path="url(#p6801641b03)" style="fill: none; stroke: #ff7f0e; stroke-width: 1.5; stroke-linecap: square"/>
   </g>
   <g id="patch_3">
    <path d="M 92.490625 308.63625 
L 92.490625 31.43625 
" style="fill: none; stroke: #000000; stroke-width: 0.8; stroke-linejoin: miter; stroke-linecap: square"/>
   </g>
   <g id="patch_4">
    <path d="M 650.490625 308.63625 
L 650.490625 31.43625 
" style="fill: none; stroke: #000000; stroke-width: 0.8; stroke-linejoin: miter; stroke-linecap: square"/>
   </g>
   <g id="patch_5">
    <path d="M 92.490625 308.63625 
L 650.490625 308.63625 
" style="fill: none; stroke: #000000; stroke-width: 0.8; stroke-linejoin: miter; stroke-linecap: square"/>
   </g>
   <g id="patch_6">
    <path d="M 92.490625 31.43625 
L 650.490625 31.43625 
" style="fill: none; stroke: #000000; stroke-width: 0.8; stroke-linejoin: miter; stroke-linecap: square"/>
   </g>
   <g id="text_16">
    <!-- Generator and Discriminator Loss During Training -->
    <g transform="translate(74.258125 25.43625) scale(0.24 -0.24)">
     <defs>
      <path id="DejaVuSans-47" d="M 3809 666 
L 3809 1919 
L 2778 1919 
L 2778 2438 
L 4434 2438 
L 4434 434 
Q 4069 175 3628 42 
Q 3188 -91 2688 -91 
Q 1594 -91 976 548 
Q 359 1188 359 2328 
Q 359 3472 976 4111 
Q 1594 4750 2688 4750 
Q 3144 4750 3555 4637 
Q 3966 4525 4313 4306 
L 4313 3634 
Q 3963 3931 3569 4081 
Q 3175 4231 2741 4231 
Q 1884 4231 1454 3753 
Q 1025 3275 1025 2328 
Q 1025 1384 1454 906 
Q 1884 428 2741 428 
Q 3075 428 3337 486 
Q 3600 544 3809 666 
z
" transform="scale(0.015625)"/>
      <path id="DejaVuSans-20" transform="scale(0.015625)"/>
      <path id="DejaVuSans-64" d="M 2906 2969 
L 2906 4863 
L 3481 4863 
L 3481 0 
L 2906 0 
L 2906 525 
Q 2725 213 2448 61 
Q 2172 -91 1784 -91 
Q 1150 -91 751 415 
Q 353 922 353 1747 
Q 353 2572 751 3078 
Q 1150 3584 1784 3584 
Q 2172 3584 2448 3432 
Q 2725 3281 2906 2969 
z
M 947 1747 
Q 947 1113 1208 752 
Q 1469 391 1925 391 
Q 2381 391 2643 752 
Q 2906 1113 2906 1747 
Q 2906 2381 2643 2742 
Q 2381 3103 1925 3103 
Q 1469 3103 1208 2742 
Q 947 2381 947 1747 
z
" transform="scale(0.015625)"/>
      <path id="DejaVuSans-44" d="M 1259 4147 
L 1259 519 
L 2022 519 
Q 2988 519 3436 956 
Q 3884 1394 3884 2338 
Q 3884 3275 3436 3711 
Q 2988 4147 2022 4147 
L 1259 4147 
z
M 628 4666 
L 1925 4666 
Q 3281 4666 3915 4102 
Q 4550 3538 4550 2338 
Q 4550 1131 3912 565 
Q 3275 0 1925 0 
L 628 0 
L 628 4666 
z
" transform="scale(0.015625)"/>
      <path id="DejaVuSans-63" d="M 3122 3366 
L 3122 2828 
Q 2878 2963 2633 3030 
Q 2388 3097 2138 3097 
Q 1578 3097 1268 2742 
Q 959 2388 959 1747 
Q 959 1106 1268 751 
Q 1578 397 2138 397 
Q 2388 397 2633 464 
Q 2878 531 3122 666 
L 3122 134 
Q 2881 22 2623 -34 
Q 2366 -91 2075 -91 
Q 1284 -91 818 406 
Q 353 903 353 1747 
Q 353 2603 823 3093 
Q 1294 3584 2113 3584 
Q 2378 3584 2631 3529 
Q 2884 3475 3122 3366 
z
" transform="scale(0.015625)"/>
      <path id="DejaVuSans-6d" d="M 3328 2828 
Q 3544 3216 3844 3400 
Q 4144 3584 4550 3584 
Q 5097 3584 5394 3201 
Q 5691 2819 5691 2113 
L 5691 0 
L 5113 0 
L 5113 2094 
Q 5113 2597 4934 2840 
Q 4756 3084 4391 3084 
Q 3944 3084 3684 2787 
Q 3425 2491 3425 1978 
L 3425 0 
L 2847 0 
L 2847 2094 
Q 2847 2600 2669 2842 
Q 2491 3084 2119 3084 
Q 1678 3084 1418 2786 
Q 1159 2488 1159 1978 
L 1159 0 
L 581 0 
L 581 3500 
L 1159 3500 
L 1159 2956 
Q 1356 3278 1631 3431 
Q 1906 3584 2284 3584 
Q 2666 3584 2933 3390 
Q 3200 3197 3328 2828 
z
" transform="scale(0.015625)"/>
      <path id="DejaVuSans-75" d="M 544 1381 
L 544 3500 
L 1119 3500 
L 1119 1403 
Q 1119 906 1312 657 
Q 1506 409 1894 409 
Q 2359 409 2629 706 
Q 2900 1003 2900 1516 
L 2900 3500 
L 3475 3500 
L 3475 0 
L 2900 0 
L 2900 538 
Q 2691 219 2414 64 
Q 2138 -91 1772 -91 
Q 1169 -91 856 284 
Q 544 659 544 1381 
z
M 1991 3584 
L 1991 3584 
z
" transform="scale(0.015625)"/>
      <path id="DejaVuSans-67" d="M 2906 1791 
Q 2906 2416 2648 2759 
Q 2391 3103 1925 3103 
Q 1463 3103 1205 2759 
Q 947 2416 947 1791 
Q 947 1169 1205 825 
Q 1463 481 1925 481 
Q 2391 481 2648 825 
Q 2906 1169 2906 1791 
z
M 3481 434 
Q 3481 -459 3084 -895 
Q 2688 -1331 1869 -1331 
Q 1566 -1331 1297 -1286 
Q 1028 -1241 775 -1147 
L 775 -588 
Q 1028 -725 1275 -790 
Q 1522 -856 1778 -856 
Q 2344 -856 2625 -561 
Q 2906 -266 2906 331 
L 2906 616 
Q 2728 306 2450 153 
Q 2172 0 1784 0 
Q 1141 0 747 490 
Q 353 981 353 1791 
Q 353 2603 747 3093 
Q 1141 3584 1784 3584 
Q 2172 3584 2450 3431 
Q 2728 3278 2906 2969 
L 2906 3500 
L 3481 3500 
L 3481 434 
z
" transform="scale(0.015625)"/>
      <path id="DejaVuSans-54" d="M -19 4666 
L 3928 4666 
L 3928 4134 
L 2272 4134 
L 2272 0 
L 1638 0 
L 1638 4134 
L -19 4134 
L -19 4666 
z
" transform="scale(0.015625)"/>
     </defs>
     <use xlink:href="#DejaVuSans-47"/>
     <use xlink:href="#DejaVuSans-65" x="77.490234"/>
     <use xlink:href="#DejaVuSans-6e" x="139.013672"/>
     <use xlink:href="#DejaVuSans-65" x="202.392578"/>
     <use xlink:href="#DejaVuSans-72" x="263.916016"/>
     <use xlink:href="#DejaVuSans-61" x="305.029297"/>
     <use xlink:href="#DejaVuSans-74" x="366.308594"/>
     <use xlink:href="#DejaVuSans-6f" x="405.517578"/>
     <use xlink:href="#DejaVuSans-72" x="466.699219"/>
     <use xlink:href="#DejaVuSans-20" x="507.8125"/>
     <use xlink:href="#DejaVuSans-61" x="539.599609"/>
     <use xlink:href="#DejaVuSans-6e" x="600.878906"/>
     <use xlink:href="#DejaVuSans-64" x="664.257812"/>
     <use xlink:href="#DejaVuSans-20" x="727.734375"/>
     <use xlink:href="#DejaVuSans-44" x="759.521484"/>
     <use xlink:href="#DejaVuSans-69" x="836.523438"/>
     <use xlink:href="#DejaVuSans-73" x="864.306641"/>
     <use xlink:href="#DejaVuSans-63" x="916.40625"/>
     <use xlink:href="#DejaVuSans-72" x="971.386719"/>
     <use xlink:href="#DejaVuSans-69" x="1012.5"/>
     <use xlink:href="#DejaVuSans-6d" x="1040.283203"/>
     <use xlink:href="#DejaVuSans-69" x="1137.695312"/>
     <use xlink:href="#DejaVuSans-6e" x="1165.478516"/>
     <use xlink:href="#DejaVuSans-61" x="1228.857422"/>
     <use xlink:href="#DejaVuSans-74" x="1290.136719"/>
     <use xlink:href="#DejaVuSans-6f" x="1329.345703"/>
     <use xlink:href="#DejaVuSans-72" x="1390.527344"/>
     <use xlink:href="#DejaVuSans-20" x="1431.640625"/>
     <use xlink:href="#DejaVuSans-4c" x="1463.427734"/>
     <use xlink:href="#DejaVuSans-6f" x="1517.390625"/>
     <use xlink:href="#DejaVuSans-73" x="1578.572266"/>
     <use xlink:href="#DejaVuSans-73" x="1630.671875"/>
     <use xlink:href="#DejaVuSans-20" x="1682.771484"/>
     <use xlink:href="#DejaVuSans-44" x="1714.558594"/>
     <use xlink:href="#DejaVuSans-75" x="1791.560547"/>
     <use xlink:href="#DejaVuSans-72" x="1854.939453"/>
     <use xlink:href="#DejaVuSans-69" x="1896.052734"/>
     <use xlink:href="#DejaVuSans-6e" x="1923.835938"/>
     <use xlink:href="#DejaVuSans-67" x="1987.214844"/>
     <use xlink:href="#DejaVuSans-20" x="2050.691406"/>
     <use xlink:href="#DejaVuSans-54" x="2082.478516"/>
     <use xlink:href="#DejaVuSans-72" x="2128.8125"/>
     <use xlink:href="#DejaVuSans-61" x="2169.925781"/>
     <use xlink:href="#DejaVuSans-69" x="2231.205078"/>
     <use xlink:href="#DejaVuSans-6e" x="2258.988281"/>
     <use xlink:href="#DejaVuSans-69" x="2322.367188"/>
     <use xlink:href="#DejaVuSans-6e" x="2350.150391"/>
     <use xlink:href="#DejaVuSans-67" x="2413.529297"/>
    </g>
   </g>
   <g id="legend_1">
    <g id="patch_7">
     <path d="M 556.99375 106.14875 
L 636.490625 106.14875 
Q 640.490625 106.14875 640.490625 102.14875 
L 640.490625 45.43625 
Q 640.490625 41.43625 636.490625 41.43625 
L 556.99375 41.43625 
Q 552.99375 41.43625 552.99375 45.43625 
L 552.99375 102.14875 
Q 552.99375 106.14875 556.99375 106.14875 
z
" style="fill: #ffffff; opacity: 0.8; stroke: #cccccc; stroke-linejoin: miter"/>
    </g>
    <g id="line2d_16">
     <path d="M 560.99375 57.633125 
L 580.99375 57.633125 
L 600.99375 57.633125 
" style="fill: none; stroke: #1f77b4; stroke-width: 1.5; stroke-linecap: square"/>
    </g>
    <g id="text_17">
     <!-- G -->
     <g transform="translate(616.99375 64.633125) scale(0.2 -0.2)">
      <use xlink:href="#DejaVuSans-47"/>
     </g>
    </g>
    <g id="line2d_17">
     <path d="M 560.99375 86.989375 
L 580.99375 86.989375 
L 600.99375 86.989375 
" style="fill: none; stroke: #ff7f0e; stroke-width: 1.5; stroke-linecap: square"/>
    </g>
    <g id="text_18">
     <!-- D -->
     <g transform="translate(616.99375 93.989375) scale(0.2 -0.2)">
      <use xlink:href="#DejaVuSans-44"/>
     </g>
    </g>
   </g>
  </g>
 </g>
 <defs>
  <clipPath id="p6801641b03">
   <rect x="92.490625" y="31.43625" width="558" height="277.2"/>
  </clipPath>
 </defs>
</svg>
