<?xml version="1.0" encoding="utf-8" standalone="no"?>
<!DOCTYPE svg PUBLIC "-//W3C//DTD SVG 1.1//EN"
  "http://www.w3.org/Graphics/SVG/1.1/DTD/svg11.dtd">
<svg xmlns:xlink="http://www.w3.org/1999/xlink" width="675.923125pt" height="365.54875pt" viewBox="0 0 675.923125 365.54875" xmlns="http://www.w3.org/2000/svg" version="1.1">
 <metadata>
  <rdf:RDF xmlns:dc="http://purl.org/dc/elements/1.1/" xmlns:cc="http://creativecommons.org/ns#" xmlns:rdf="http://www.w3.org/1999/02/22-rdf-syntax-ns#">
   <cc:Work>
    <dc:type rdf:resource="http://purl.org/dc/dcmitype/StillImage"/>
    <dc:date>2024-02-04T17:38:21.291031</dc:date>
    <dc:format>image/svg+xml</dc:format>
    <dc:creator>
     <cc:Agent>
      <dc:title>Matplotlib v3.7.2, https://matplotlib.org/</dc:title>
     </cc:Agent>
    </dc:creator>
   </cc:Work>
  </rdf:RDF>
 </metadata>
 <defs>
  <style type="text/css">*{stroke-linejoin: round; stroke-linecap: butt}</style>
 </defs>
 <g id="figure_1">
  <g id="patch_1">
   <path d="M 0 365.54875 
L 675.923125 365.54875 
L 675.923125 -0 
L 0 -0 
z
" style="fill: #ffffff"/>
  </g>
  <g id="axes_1">
   <g id="patch_2">
    <path d="M 92.490625 308.63625 
L 650.490625 308.63625 
L 650.490625 31.43625 
L 92.490625 31.43625 
z
" style="fill: #ffffff"/>
   </g>
   <g id="matplotlib.axis_1">
    <g id="xtick_1">
     <g id="line2d_1">
      <defs>
       <path id="m0fcbdbd991" d="M 0 0 
L 0 3.5 
" style="stroke: #000000; stroke-width: 0.8"/>
      </defs>
      <g>
       <use xlink:href="#m0fcbdbd991" x="117.854261" y="308.63625" style="stroke: #000000; stroke-width: 0.8"/>
      </g>
     </g>
     <g id="text_1">
      <!-- 0 -->
      <g transform="translate(111.491761 330.833125) scale(0.2 -0.2)">
       <defs>
        <path id="DejaVuSans-30" d="M 2034 4250 
Q 1547 4250 1301 3770 
Q 1056 3291 1056 2328 
Q 1056 1369 1301 889 
Q 1547 409 2034 409 
Q 2525 409 2770 889 
Q 3016 1369 3016 2328 
Q 3016 3291 2770 3770 
Q 2525 4250 2034 4250 
z
M 2034 4750 
Q 2819 4750 3233 4129 
Q 3647 3509 3647 2328 
Q 3647 1150 3233 529 
Q 2819 -91 2034 -91 
Q 1250 -91 836 529 
Q 422 1150 422 2328 
Q 422 3509 836 4129 
Q 1250 4750 2034 4750 
z
" transform="scale(0.015625)"/>
       </defs>
       <use xlink:href="#DejaVuSans-30"/>
      </g>
     </g>
    </g>
    <g id="xtick_2">
     <g id="line2d_2">
      <g>
       <use xlink:href="#m0fcbdbd991" x="190.321794" y="308.63625" style="stroke: #000000; stroke-width: 0.8"/>
      </g>
     </g>
     <g id="text_2">
      <!-- 50 -->
      <g transform="translate(177.596794 330.833125) scale(0.2 -0.2)">
       <defs>
        <path id="DejaVuSans-35" d="M 691 4666 
L 3169 4666 
L 3169 4134 
L 1269 4134 
L 1269 2991 
Q 1406 3038 1543 3061 
Q 1681 3084 1819 3084 
Q 2600 3084 3056 2656 
Q 3513 2228 3513 1497 
Q 3513 744 3044 326 
Q 2575 -91 1722 -91 
Q 1428 -91 1123 -41 
Q 819 9 494 109 
L 494 744 
Q 775 591 1075 516 
Q 1375 441 1709 441 
Q 2250 441 2565 725 
Q 2881 1009 2881 1497 
Q 2881 1984 2565 2268 
Q 2250 2553 1709 2553 
Q 1456 2553 1204 2497 
Q 953 2441 691 2322 
L 691 4666 
z
" transform="scale(0.015625)"/>
       </defs>
       <use xlink:href="#DejaVuSans-35"/>
       <use xlink:href="#DejaVuSans-30" x="63.623047"/>
      </g>
     </g>
    </g>
    <g id="xtick_3">
     <g id="line2d_3">
      <g>
       <use xlink:href="#m0fcbdbd991" x="262.789326" y="308.63625" style="stroke: #000000; stroke-width: 0.8"/>
      </g>
     </g>
     <g id="text_3">
      <!-- 100 -->
      <g transform="translate(243.701826 330.833125) scale(0.2 -0.2)">
       <defs>
        <path id="DejaVuSans-31" d="M 794 531 
L 1825 531 
L 1825 4091 
L 703 3866 
L 703 4441 
L 1819 4666 
L 2450 4666 
L 2450 531 
L 3481 531 
L 3481 0 
L 794 0 
L 794 531 
z
" transform="scale(0.015625)"/>
       </defs>
       <use xlink:href="#DejaVuSans-31"/>
       <use xlink:href="#DejaVuSans-30" x="63.623047"/>
       <use xlink:href="#DejaVuSans-30" x="127.246094"/>
      </g>
     </g>
    </g>
    <g id="xtick_4">
     <g id="line2d_4">
      <g>
       <use xlink:href="#m0fcbdbd991" x="335.256859" y="308.63625" style="stroke: #000000; stroke-width: 0.8"/>
      </g>
     </g>
     <g id="text_4">
      <!-- 150 -->
      <g transform="translate(316.169359 330.833125) scale(0.2 -0.2)">
       <use xlink:href="#DejaVuSans-31"/>
       <use xlink:href="#DejaVuSans-35" x="63.623047"/>
       <use xlink:href="#DejaVuSans-30" x="127.246094"/>
      </g>
     </g>
    </g>
    <g id="xtick_5">
     <g id="line2d_5">
      <g>
       <use xlink:href="#m0fcbdbd991" x="407.724391" y="308.63625" style="stroke: #000000; stroke-width: 0.8"/>
      </g>
     </g>
     <g id="text_5">
      <!-- 200 -->
      <g transform="translate(388.636891 330.833125) scale(0.2 -0.2)">
       <defs>
        <path id="DejaVuSans-32" d="M 1228 531 
L 3431 531 
L 3431 0 
L 469 0 
L 469 531 
Q 828 903 1448 1529 
Q 2069 2156 2228 2338 
Q 2531 2678 2651 2914 
Q 2772 3150 2772 3378 
Q 2772 3750 2511 3984 
Q 2250 4219 1831 4219 
Q 1534 4219 1204 4116 
Q 875 4013 500 3803 
L 500 4441 
Q 881 4594 1212 4672 
Q 1544 4750 1819 4750 
Q 2544 4750 2975 4387 
Q 3406 4025 3406 3419 
Q 3406 3131 3298 2873 
Q 3191 2616 2906 2266 
Q 2828 2175 2409 1742 
Q 1991 1309 1228 531 
z
" transform="scale(0.015625)"/>
       </defs>
       <use xlink:href="#DejaVuSans-32"/>
       <use xlink:href="#DejaVuSans-30" x="63.623047"/>
       <use xlink:href="#DejaVuSans-30" x="127.246094"/>
      </g>
     </g>
    </g>
    <g id="xtick_6">
     <g id="line2d_6">
      <g>
       <use xlink:href="#m0fcbdbd991" x="480.191924" y="308.63625" style="stroke: #000000; stroke-width: 0.8"/>
      </g>
     </g>
     <g id="text_6">
      <!-- 250 -->
      <g transform="translate(461.104424 330.833125) scale(0.2 -0.2)">
       <use xlink:href="#DejaVuSans-32"/>
       <use xlink:href="#DejaVuSans-35" x="63.623047"/>
       <use xlink:href="#DejaVuSans-30" x="127.246094"/>
      </g>
     </g>
    </g>
    <g id="xtick_7">
     <g id="line2d_7">
      <g>
       <use xlink:href="#m0fcbdbd991" x="552.659456" y="308.63625" style="stroke: #000000; stroke-width: 0.8"/>
      </g>
     </g>
     <g id="text_7">
      <!-- 300 -->
      <g transform="translate(533.571956 330.833125) scale(0.2 -0.2)">
       <defs>
        <path id="DejaVuSans-33" d="M 2597 2516 
Q 3050 2419 3304 2112 
Q 3559 1806 3559 1356 
Q 3559 666 3084 287 
Q 2609 -91 1734 -91 
Q 1441 -91 1130 -33 
Q 819 25 488 141 
L 488 750 
Q 750 597 1062 519 
Q 1375 441 1716 441 
Q 2309 441 2620 675 
Q 2931 909 2931 1356 
Q 2931 1769 2642 2001 
Q 2353 2234 1838 2234 
L 1294 2234 
L 1294 2753 
L 1863 2753 
Q 2328 2753 2575 2939 
Q 2822 3125 2822 3475 
Q 2822 3834 2567 4026 
Q 2313 4219 1838 4219 
Q 1578 4219 1281 4162 
Q 984 4106 628 3988 
L 628 4550 
Q 988 4650 1302 4700 
Q 1616 4750 1894 4750 
Q 2613 4750 3031 4423 
Q 3450 4097 3450 3541 
Q 3450 3153 3228 2886 
Q 3006 2619 2597 2516 
z
" transform="scale(0.015625)"/>
       </defs>
       <use xlink:href="#DejaVuSans-33"/>
       <use xlink:href="#DejaVuSans-30" x="63.623047"/>
       <use xlink:href="#DejaVuSans-30" x="127.246094"/>
      </g>
     </g>
    </g>
    <g id="xtick_8">
     <g id="line2d_8">
      <g>
       <use xlink:href="#m0fcbdbd991" x="625.126989" y="308.63625" style="stroke: #000000; stroke-width: 0.8"/>
      </g>
     </g>
     <g id="text_8">
      <!-- 350 -->
      <g transform="translate(606.039489 330.833125) scale(0.2 -0.2)">
       <use xlink:href="#DejaVuSans-33"/>
       <use xlink:href="#DejaVuSans-35" x="63.623047"/>
       <use xlink:href="#DejaVuSans-30" x="127.246094"/>
      </g>
     </g>
    </g>
    <g id="text_9">
     <!-- iterations -->
     <g transform="translate(324.035938 354.189375) scale(0.2 -0.2)">
      <defs>
       <path id="DejaVuSans-69" d="M 603 3500 
L 1178 3500 
L 1178 0 
L 603 0 
L 603 3500 
z
M 603 4863 
L 1178 4863 
L 1178 4134 
L 603 4134 
L 603 4863 
z
" transform="scale(0.015625)"/>
       <path id="DejaVuSans-74" d="M 1172 4494 
L 1172 3500 
L 2356 3500 
L 2356 3053 
L 1172 3053 
L 1172 1153 
Q 1172 725 1289 603 
Q 1406 481 1766 481 
L 2356 481 
L 2356 0 
L 1766 0 
Q 1100 0 847 248 
Q 594 497 594 1153 
L 594 3053 
L 172 3053 
L 172 3500 
L 594 3500 
L 594 4494 
L 1172 4494 
z
" transform="scale(0.015625)"/>
       <path id="DejaVuSans-65" d="M 3597 1894 
L 3597 1613 
L 953 1613 
Q 991 1019 1311 708 
Q 1631 397 2203 397 
Q 2534 397 2845 478 
Q 3156 559 3463 722 
L 3463 178 
Q 3153 47 2828 -22 
Q 2503 -91 2169 -91 
Q 1331 -91 842 396 
Q 353 884 353 1716 
Q 353 2575 817 3079 
Q 1281 3584 2069 3584 
Q 2775 3584 3186 3129 
Q 3597 2675 3597 1894 
z
M 3022 2063 
Q 3016 2534 2758 2815 
Q 2500 3097 2075 3097 
Q 1594 3097 1305 2825 
Q 1016 2553 972 2059 
L 3022 2063 
z
" transform="scale(0.015625)"/>
       <path id="DejaVuSans-72" d="M 2631 2963 
Q 2534 3019 2420 3045 
Q 2306 3072 2169 3072 
Q 1681 3072 1420 2755 
Q 1159 2438 1159 1844 
L 1159 0 
L 581 0 
L 581 3500 
L 1159 3500 
L 1159 2956 
Q 1341 3275 1631 3429 
Q 1922 3584 2338 3584 
Q 2397 3584 2469 3576 
Q 2541 3569 2628 3553 
L 2631 2963 
z
" transform="scale(0.015625)"/>
       <path id="DejaVuSans-61" d="M 2194 1759 
Q 1497 1759 1228 1600 
Q 959 1441 959 1056 
Q 959 750 1161 570 
Q 1363 391 1709 391 
Q 2188 391 2477 730 
Q 2766 1069 2766 1631 
L 2766 1759 
L 2194 1759 
z
M 3341 1997 
L 3341 0 
L 2766 0 
L 2766 531 
Q 2569 213 2275 61 
Q 1981 -91 1556 -91 
Q 1019 -91 701 211 
Q 384 513 384 1019 
Q 384 1609 779 1909 
Q 1175 2209 1959 2209 
L 2766 2209 
L 2766 2266 
Q 2766 2663 2505 2880 
Q 2244 3097 1772 3097 
Q 1472 3097 1187 3025 
Q 903 2953 641 2809 
L 641 3341 
Q 956 3463 1253 3523 
Q 1550 3584 1831 3584 
Q 2591 3584 2966 3190 
Q 3341 2797 3341 1997 
z
" transform="scale(0.015625)"/>
       <path id="DejaVuSans-6f" d="M 1959 3097 
Q 1497 3097 1228 2736 
Q 959 2375 959 1747 
Q 959 1119 1226 758 
Q 1494 397 1959 397 
Q 2419 397 2687 759 
Q 2956 1122 2956 1747 
Q 2956 2369 2687 2733 
Q 2419 3097 1959 3097 
z
M 1959 3584 
Q 2709 3584 3137 3096 
Q 3566 2609 3566 1747 
Q 3566 888 3137 398 
Q 2709 -91 1959 -91 
Q 1206 -91 779 398 
Q 353 888 353 1747 
Q 353 2609 779 3096 
Q 1206 3584 1959 3584 
z
" transform="scale(0.015625)"/>
       <path id="DejaVuSans-6e" d="M 3513 2113 
L 3513 0 
L 2938 0 
L 2938 2094 
Q 2938 2591 2744 2837 
Q 2550 3084 2163 3084 
Q 1697 3084 1428 2787 
Q 1159 2491 1159 1978 
L 1159 0 
L 581 0 
L 581 3500 
L 1159 3500 
L 1159 2956 
Q 1366 3272 1645 3428 
Q 1925 3584 2291 3584 
Q 2894 3584 3203 3211 
Q 3513 2838 3513 2113 
z
" transform="scale(0.015625)"/>
       <path id="DejaVuSans-73" d="M 2834 3397 
L 2834 2853 
Q 2591 2978 2328 3040 
Q 2066 3103 1784 3103 
Q 1356 3103 1142 2972 
Q 928 2841 928 2578 
Q 928 2378 1081 2264 
Q 1234 2150 1697 2047 
L 1894 2003 
Q 2506 1872 2764 1633 
Q 3022 1394 3022 966 
Q 3022 478 2636 193 
Q 2250 -91 1575 -91 
Q 1294 -91 989 -36 
Q 684 19 347 128 
L 347 722 
Q 666 556 975 473 
Q 1284 391 1588 391 
Q 1994 391 2212 530 
Q 2431 669 2431 922 
Q 2431 1156 2273 1281 
Q 2116 1406 1581 1522 
L 1381 1569 
Q 847 1681 609 1914 
Q 372 2147 372 2553 
Q 372 3047 722 3315 
Q 1072 3584 1716 3584 
Q 2034 3584 2315 3537 
Q 2597 3491 2834 3397 
z
" transform="scale(0.015625)"/>
      </defs>
      <use xlink:href="#DejaVuSans-69"/>
      <use xlink:href="#DejaVuSans-74" x="27.783203"/>
      <use xlink:href="#DejaVuSans-65" x="66.992188"/>
      <use xlink:href="#DejaVuSans-72" x="128.515625"/>
      <use xlink:href="#DejaVuSans-61" x="169.628906"/>
      <use xlink:href="#DejaVuSans-74" x="230.908203"/>
      <use xlink:href="#DejaVuSans-69" x="270.117188"/>
      <use xlink:href="#DejaVuSans-6f" x="297.900391"/>
      <use xlink:href="#DejaVuSans-6e" x="359.082031"/>
      <use xlink:href="#DejaVuSans-73" x="422.460938"/>
     </g>
    </g>
   </g>
   <g id="matplotlib.axis_2">
    <g id="ytick_1">
     <g id="line2d_9">
      <defs>
       <path id="m685da9b84a" d="M 0 0 
L -3.5 0 
" style="stroke: #000000; stroke-width: 0.8"/>
      </defs>
      <g>
       <use xlink:href="#m685da9b84a" x="92.490625" y="275.383624" style="stroke: #000000; stroke-width: 0.8"/>
      </g>
     </g>
     <g id="text_10">
      <!-- −300 -->
      <g transform="translate(30.55625 282.982061) scale(0.2 -0.2)">
       <defs>
        <path id="DejaVuSans-2212" d="M 678 2272 
L 4684 2272 
L 4684 1741 
L 678 1741 
L 678 2272 
z
" transform="scale(0.015625)"/>
       </defs>
       <use xlink:href="#DejaVuSans-2212"/>
       <use xlink:href="#DejaVuSans-33" x="83.789062"/>
       <use xlink:href="#DejaVuSans-30" x="147.412109"/>
       <use xlink:href="#DejaVuSans-30" x="211.035156"/>
      </g>
     </g>
    </g>
    <g id="ytick_2">
     <g id="line2d_10">
      <g>
       <use xlink:href="#m685da9b84a" x="92.490625" y="226.548593" style="stroke: #000000; stroke-width: 0.8"/>
      </g>
     </g>
     <g id="text_11">
      <!-- −200 -->
      <g transform="translate(30.55625 234.147031) scale(0.2 -0.2)">
       <use xlink:href="#DejaVuSans-2212"/>
       <use xlink:href="#DejaVuSans-32" x="83.789062"/>
       <use xlink:href="#DejaVuSans-30" x="147.412109"/>
       <use xlink:href="#DejaVuSans-30" x="211.035156"/>
      </g>
     </g>
    </g>
    <g id="ytick_3">
     <g id="line2d_11">
      <g>
       <use xlink:href="#m685da9b84a" x="92.490625" y="177.713563" style="stroke: #000000; stroke-width: 0.8"/>
      </g>
     </g>
     <g id="text_12">
      <!-- −100 -->
      <g transform="translate(30.55625 185.312) scale(0.2 -0.2)">
       <use xlink:href="#DejaVuSans-2212"/>
       <use xlink:href="#DejaVuSans-31" x="83.789062"/>
       <use xlink:href="#DejaVuSans-30" x="147.412109"/>
       <use xlink:href="#DejaVuSans-30" x="211.035156"/>
      </g>
     </g>
    </g>
    <g id="ytick_4">
     <g id="line2d_12">
      <g>
       <use xlink:href="#m685da9b84a" x="92.490625" y="128.878533" style="stroke: #000000; stroke-width: 0.8"/>
      </g>
     </g>
     <g id="text_13">
      <!-- 0 -->
      <g transform="translate(72.765625 136.47697) scale(0.2 -0.2)">
       <use xlink:href="#DejaVuSans-30"/>
      </g>
     </g>
    </g>
    <g id="ytick_5">
     <g id="line2d_13">
      <g>
       <use xlink:href="#m685da9b84a" x="92.490625" y="80.043502" style="stroke: #000000; stroke-width: 0.8"/>
      </g>
     </g>
     <g id="text_14">
      <!-- 100 -->
      <g transform="translate(47.315625 87.64194) scale(0.2 -0.2)">
       <use xlink:href="#DejaVuSans-31"/>
       <use xlink:href="#DejaVuSans-30" x="63.623047"/>
       <use xlink:href="#DejaVuSans-30" x="127.246094"/>
      </g>
     </g>
    </g>
    <g id="text_15">
     <!-- Loss -->
     <g transform="translate(22.396875 191.970625) rotate(-90) scale(0.2 -0.2)">
      <defs>
       <path id="DejaVuSans-4c" d="M 628 4666 
L 1259 4666 
L 1259 531 
L 3531 531 
L 3531 0 
L 628 0 
L 628 4666 
z
" transform="scale(0.015625)"/>
      </defs>
      <use xlink:href="#DejaVuSans-4c"/>
      <use xlink:href="#DejaVuSans-6f" x="53.962891"/>
      <use xlink:href="#DejaVuSans-73" x="115.144531"/>
      <use xlink:href="#DejaVuSans-73" x="167.244141"/>
     </g>
    </g>
   </g>
   <g id="line2d_14">
    <path d="M 117.854261 107.143996 
L 119.303612 57.897655 
L 120.752963 62.589217 
L 122.202313 71.838444 
L 123.651664 72.058068 
L 125.101015 78.835638 
L 126.550365 48.700135 
L 127.999716 69.151889 
L 129.449067 52.930212 
L 130.898417 66.096965 
L 132.347768 66.553032 
L 133.797119 76.876548 
L 135.246469 55.497317 
L 136.69582 51.115701 
L 138.14517 44.03625 
L 139.594521 51.05182 
L 141.043872 50.556376 
L 142.493222 47.220406 
L 143.942573 48.866878 
L 145.391924 59.287779 
L 146.841274 53.814842 
L 148.290625 65.362273 
L 149.739976 75.333709 
L 151.189326 66.979208 
L 152.638677 67.998484 
L 155.537378 56.908396 
L 156.986729 56.25427 
L 158.43608 62.683745 
L 159.88543 62.834119 
L 161.334781 61.864756 
L 162.784131 59.659047 
L 164.233482 66.219703 
L 165.682833 64.707216 
L 167.132183 63.601624 
L 168.581534 67.449061 
L 170.030885 60.970884 
L 171.480235 60.75248 
L 172.929586 63.60389 
L 174.378937 61.969167 
L 175.828287 60.081075 
L 177.277638 58.813955 
L 178.726989 67.023484 
L 180.176339 68.229069 
L 181.62569 64.692444 
L 183.075041 67.37511 
L 184.524391 70.902459 
L 185.973742 69.795967 
L 187.423093 74.728848 
L 188.872443 76.321566 
L 190.321794 77.42436 
L 191.771144 83.33243 
L 193.220495 83.696863 
L 194.669846 81.139497 
L 196.119196 84.503779 
L 197.568547 82.653976 
L 199.017898 83.971179 
L 200.467248 83.117448 
L 201.916599 92.629959 
L 203.36595 90.330475 
L 204.8153 92.275981 
L 206.264651 90.397232 
L 207.714002 85.023339 
L 209.163352 88.471006 
L 210.612703 91.154721 
L 212.062054 90.441416 
L 213.511404 93.864369 
L 214.960755 94.436591 
L 216.410106 92.705835 
L 217.859456 92.095729 
L 219.308807 93.933289 
L 220.758157 93.130061 
L 222.207508 96.57687 
L 223.656859 96.221721 
L 225.106209 97.915892 
L 226.55556 97.105258 
L 228.004911 96.027037 
L 229.454261 98.865555 
L 230.903612 98.462802 
L 232.352963 99.901126 
L 233.802313 98.010141 
L 235.251664 96.744706 
L 236.701015 101.116059 
L 238.150365 101.463043 
L 239.599716 99.407777 
L 241.049067 99.079392 
L 242.498417 101.748936 
L 243.947768 96.373721 
L 245.397119 98.877538 
L 246.846469 98.64235 
L 248.29582 101.755311 
L 249.74517 100.498503 
L 251.194521 100.197472 
L 252.643872 101.359065 
L 254.093222 103.278208 
L 255.542573 101.968927 
L 256.991924 102.623733 
L 258.441274 105.687596 
L 259.890625 105.591574 
L 261.339976 105.222651 
L 262.789326 105.442727 
L 264.238677 105.435291 
L 265.688028 106.080857 
L 267.137378 104.933541 
L 270.03608 105.439361 
L 271.48543 104.112317 
L 272.934781 107.187193 
L 274.384131 105.623654 
L 275.833482 108.334138 
L 277.282833 109.120913 
L 278.732183 108.514233 
L 280.181534 108.621994 
L 281.630885 110.088807 
L 283.080235 107.799802 
L 284.529586 110.200852 
L 285.978937 107.412463 
L 287.428287 110.288919 
L 288.877638 110.331991 
L 290.326989 109.867902 
L 291.776339 112.363599 
L 293.22569 111.384776 
L 294.675041 112.310107 
L 296.124391 111.154051 
L 297.573742 111.986557 
L 299.023093 111.672193 
L 300.472443 113.862704 
L 301.921794 113.19168 
L 303.371144 114.015056 
L 304.820495 115.817951 
L 306.269846 115.191117 
L 307.719196 113.570448 
L 309.168547 114.281939 
L 310.617898 113.887923 
L 312.067248 115.180849 
L 313.516599 113.979114 
L 314.96595 113.208098 
L 316.4153 113.576696 
L 317.864651 112.998 
L 319.314002 113.869487 
L 322.212703 111.773753 
L 323.662054 114.315421 
L 325.111404 114.651964 
L 326.560755 113.95065 
L 328.010106 111.565328 
L 329.459456 113.268465 
L 330.908807 113.723887 
L 332.358157 116.218163 
L 333.807508 116.482947 
L 336.706209 116.223465 
L 338.15556 115.955427 
L 341.054261 116.043666 
L 342.503612 115.516151 
L 343.952963 115.237095 
L 345.402313 115.526654 
L 346.851664 116.500384 
L 348.301015 115.701997 
L 349.750365 115.514227 
L 351.199716 116.566719 
L 352.649067 114.586516 
L 354.098417 113.033838 
L 355.547768 117.386173 
L 356.997119 115.030196 
L 358.446469 116.114283 
L 361.34517 116.685988 
L 362.794521 116.285479 
L 364.243872 116.383238 
L 365.693222 117.809727 
L 367.142573 116.247651 
L 370.041274 117.118397 
L 371.490625 116.978864 
L 372.939976 116.266156 
L 374.389326 116.828591 
L 375.838677 115.704825 
L 377.288028 117.848933 
L 378.737378 117.516695 
L 380.186729 118.217987 
L 381.63608 117.790735 
L 383.08543 117.613888 
L 384.534781 117.925882 
L 385.984131 116.471722 
L 387.433482 116.633613 
L 388.882833 116.587235 
L 390.332183 118.686857 
L 391.781534 117.391465 
L 393.230885 116.579879 
L 394.680235 116.951022 
L 396.129586 118.058637 
L 397.578937 117.467334 
L 399.028287 116.99867 
L 400.477638 118.228131 
L 401.926989 118.162169 
L 403.376339 117.314565 
L 404.82569 117.584009 
L 406.275041 116.539411 
L 407.724391 116.131323 
L 409.173742 116.251882 
L 410.623093 117.751235 
L 412.072443 118.780418 
L 413.521794 117.675981 
L 414.971144 117.951128 
L 416.420495 117.44087 
L 417.869846 118.886704 
L 419.319196 119.55603 
L 420.768547 119.246623 
L 422.217898 118.79163 
L 425.116599 118.79812 
L 426.56595 117.778909 
L 428.0153 118.844346 
L 429.464651 119.614259 
L 430.914002 119.138963 
L 432.363352 117.891263 
L 433.812703 118.490706 
L 436.711404 118.425521 
L 438.160755 118.760239 
L 439.610106 117.305008 
L 441.059456 116.889487 
L 442.508807 118.018663 
L 443.958157 117.121134 
L 445.407508 117.851503 
L 446.856859 119.094316 
L 448.306209 118.676769 
L 449.75556 119.082107 
L 451.204911 118.623146 
L 452.654261 117.768881 
L 455.552963 118.825413 
L 457.002313 118.2673 
L 458.451664 119.092046 
L 459.901015 118.887891 
L 461.350365 118.195138 
L 462.799716 118.752301 
L 464.249067 118.149038 
L 465.698417 118.431451 
L 467.147768 119.302395 
L 470.046469 118.081396 
L 471.49582 119.076726 
L 472.94517 120.398914 
L 474.394521 118.94 
L 475.843872 119.590047 
L 478.742573 118.686176 
L 480.191924 119.379729 
L 481.641274 119.397097 
L 483.090625 119.043407 
L 484.539976 119.561633 
L 487.438677 118.768141 
L 490.337378 118.335123 
L 493.23608 119.719201 
L 494.68543 119.506408 
L 496.134781 120.306386 
L 497.584131 119.454758 
L 499.033482 119.946772 
L 500.482833 119.823493 
L 501.932183 120.35784 
L 504.830885 120.023433 
L 506.280235 121.096725 
L 507.729586 120.173311 
L 509.178937 119.595591 
L 510.628287 119.661148 
L 512.077638 120.087533 
L 513.526989 119.862036 
L 514.976339 120.239391 
L 516.42569 120.83174 
L 517.875041 119.818343 
L 519.324391 119.496576 
L 520.773742 120.018282 
L 522.223093 119.449078 
L 523.672443 119.43946 
L 525.121794 121.084304 
L 526.571144 120.896631 
L 528.020495 119.88671 
L 529.469846 121.115615 
L 530.919196 121.079473 
L 532.368547 120.582263 
L 533.817898 121.267944 
L 535.267248 118.883221 
L 536.716599 119.745675 
L 538.16595 121.08311 
L 539.6153 120.034706 
L 541.064651 120.5562 
L 542.514002 120.845277 
L 543.963352 120.157877 
L 545.412703 121.521667 
L 546.862054 121.369442 
L 548.311404 121.102262 
L 549.760755 120.238156 
L 551.210106 121.339193 
L 552.659456 120.199512 
L 554.108807 121.283286 
L 555.558157 121.328363 
L 557.007508 121.090805 
L 558.456859 121.248682 
L 559.906209 121.526801 
L 561.35556 121.493453 
L 562.804911 121.636812 
L 564.254261 121.077947 
L 565.703612 121.476202 
L 567.152963 121.201237 
L 568.602313 121.400379 
L 571.501015 122.001312 
L 572.950365 122.243346 
L 574.399716 121.400922 
L 575.849067 121.35934 
L 577.298417 121.848311 
L 578.747768 122.00612 
L 581.646469 122.622874 
L 583.09582 122.336203 
L 584.54517 121.806722 
L 585.994521 122.501442 
L 590.342573 122.077469 
L 591.791924 122.280026 
L 593.241274 122.860493 
L 596.139976 122.665896 
L 597.589326 122.895017 
L 599.038677 122.338507 
L 601.937378 122.451576 
L 604.83608 121.707988 
L 606.28543 122.859794 
L 607.734781 122.667835 
L 610.633482 123.603367 
L 612.082833 123.089229 
L 613.532183 122.382557 
L 614.981534 122.72702 
L 616.430885 123.601962 
L 617.880235 123.963273 
L 619.329586 123.736112 
L 620.778937 123.857175 
L 622.228287 122.995332 
L 623.677638 123.003966 
L 625.126989 123.310766 
L 625.126989 123.310766 
" clip-path="url(#pa62c05daba)" style="fill: none; stroke: #1f77b4; stroke-width: 1.5; stroke-linecap: square"/>
   </g>
   <g id="line2d_15">
    <path d="M 117.854261 296.03625 
L 119.303612 245.888602 
L 120.752963 214.115786 
L 122.202313 230.211874 
L 123.651664 218.599268 
L 125.101015 201.279694 
L 126.550365 204.535087 
L 127.999716 177.439579 
L 129.449067 178.201539 
L 130.898417 178.387096 
L 132.347768 192.048813 
L 133.797119 174.811641 
L 135.246469 173.893449 
L 136.69582 172.251017 
L 138.14517 166.690114 
L 139.594521 165.151511 
L 141.043872 167.933912 
L 142.493222 161.328426 
L 143.942573 164.204354 
L 145.391924 153.408818 
L 146.841274 156.496962 
L 149.739976 141.56019 
L 151.189326 150.693481 
L 152.638677 143.469704 
L 154.088028 147.780062 
L 155.537378 149.479849 
L 156.986729 140.208749 
L 158.43608 138.160794 
L 159.88543 138.65618 
L 161.334781 140.776186 
L 162.784131 140.215124 
L 164.233482 138.391512 
L 165.682833 140.082936 
L 167.132183 140.228622 
L 170.030885 141.201404 
L 171.480235 139.392105 
L 172.929586 138.851676 
L 174.378937 139.384558 
L 175.828287 140.740816 
L 177.277638 142.600893 
L 178.726989 135.421926 
L 180.176339 138.496197 
L 181.62569 137.892038 
L 183.075041 136.993999 
L 184.524391 136.234525 
L 185.973742 136.311622 
L 187.423093 135.915689 
L 188.872443 136.605064 
L 190.321794 134.887215 
L 191.771144 133.797282 
L 193.220495 134.763648 
L 194.669846 135.471295 
L 196.119196 135.576047 
L 197.568547 136.308094 
L 199.017898 136.853589 
L 200.467248 136.368541 
L 201.916599 134.730041 
L 203.36595 135.079856 
L 204.8153 134.857729 
L 206.264651 135.928269 
L 207.714002 135.902864 
L 209.163352 135.479767 
L 210.612703 136.290746 
L 212.062054 135.345801 
L 214.960755 134.136329 
L 216.410106 135.905185 
L 217.859456 134.292529 
L 219.308807 133.586184 
L 220.758157 134.703917 
L 222.207508 134.803726 
L 223.656859 133.847583 
L 225.106209 133.400648 
L 226.55556 134.508056 
L 228.004911 134.677574 
L 229.454261 133.207451 
L 230.903612 133.966004 
L 232.352963 133.320137 
L 233.802313 133.888563 
L 235.251664 133.800353 
L 236.701015 134.327242 
L 238.150365 133.302039 
L 239.599716 133.276394 
L 243.947768 133.938771 
L 245.397119 134.482109 
L 246.846469 133.800864 
L 248.29582 133.419586 
L 249.74517 133.970658 
L 252.643872 133.536974 
L 254.093222 133.03475 
L 255.542573 132.734868 
L 256.991924 133.151006 
L 258.441274 133.268245 
L 259.890625 133.664162 
L 261.339976 132.938008 
L 262.789326 133.474141 
L 264.238677 133.107742 
L 265.688028 133.13171 
L 267.137378 133.333721 
L 268.586729 133.905861 
L 270.03608 133.8752 
L 271.48543 133.058296 
L 272.934781 132.906614 
L 274.384131 133.401837 
L 275.833482 132.611227 
L 278.732183 133.527885 
L 280.181534 132.677103 
L 281.630885 133.470667 
L 283.080235 133.101942 
L 284.529586 132.407692 
L 285.978937 132.923927 
L 288.877638 133.133008 
L 290.326989 132.127532 
L 291.776339 132.148788 
L 293.22569 132.723923 
L 294.675041 132.550499 
L 296.124391 132.696816 
L 299.023093 132.730674 
L 300.472443 132.97607 
L 303.371144 131.981124 
L 304.820495 132.270329 
L 306.269846 132.740458 
L 307.719196 132.811208 
L 309.168547 133.022354 
L 310.617898 132.379132 
L 312.067248 132.85824 
L 313.516599 132.55696 
L 314.96595 132.710993 
L 317.864651 132.46765 
L 320.763352 132.807079 
L 322.212703 132.556555 
L 323.662054 132.440168 
L 325.111404 132.202275 
L 326.560755 132.521364 
L 328.010106 133.040405 
L 329.459456 132.525261 
L 330.908807 132.330627 
L 332.358157 131.793893 
L 333.807508 132.032172 
L 335.256859 131.869341 
L 336.706209 131.536319 
L 338.15556 131.891923 
L 339.604911 131.570927 
L 341.054261 132.110183 
L 342.503612 132.442361 
L 343.952963 132.353453 
L 345.402313 131.994056 
L 346.851664 132.252207 
L 348.301015 132.03052 
L 349.750365 132.59314 
L 351.199716 132.12911 
L 352.649067 133.529531 
L 354.098417 132.898776 
L 355.547768 131.845893 
L 356.997119 132.623624 
L 358.446469 132.22945 
L 359.89582 132.143768 
L 361.34517 132.356335 
L 362.794521 131.998474 
L 364.243872 132.373811 
L 365.693222 132.069205 
L 367.142573 132.132424 
L 368.591924 132.017815 
L 370.041274 132.31129 
L 371.490625 132.154329 
L 372.939976 132.182232 
L 374.389326 132.54397 
L 375.838677 132.546299 
L 377.288028 132.055983 
L 378.737378 132.3148 
L 380.186729 131.939997 
L 383.08543 132.088832 
L 384.534781 132.0281 
L 385.984131 132.726062 
L 387.433482 132.686055 
L 388.882833 132.429676 
L 390.332183 131.888833 
L 391.781534 132.689105 
L 393.230885 131.980631 
L 396.129586 132.405713 
L 397.578937 132.911299 
L 399.028287 132.242697 
L 400.477638 132.594173 
L 401.926989 132.829933 
L 403.376339 133.309819 
L 404.82569 132.617213 
L 406.275041 132.793237 
L 407.724391 133.184172 
L 409.173742 132.898692 
L 410.623093 132.476888 
L 413.521794 132.775752 
L 414.971144 132.19803 
L 416.420495 133.001959 
L 417.869846 132.551494 
L 419.319196 132.281968 
L 420.768547 132.615187 
L 422.217898 132.264056 
L 423.667248 132.511456 
L 425.116599 132.562455 
L 426.56595 132.196387 
L 429.464651 132.509296 
L 430.914002 132.625033 
L 435.262054 132.23886 
L 436.711404 132.926132 
L 438.160755 132.622763 
L 439.610106 132.725486 
L 441.059456 134.327361 
L 442.508807 131.88328 
L 443.958157 132.567378 
L 445.407508 132.624808 
L 446.856859 132.867478 
L 448.306209 132.078352 
L 449.75556 132.298725 
L 451.204911 132.375235 
L 452.654261 132.899031 
L 454.103612 132.299455 
L 457.002313 132.698965 
L 458.451664 132.749106 
L 459.901015 132.572047 
L 461.350365 132.735333 
L 462.799716 132.501331 
L 464.249067 132.445749 
L 465.698417 132.800844 
L 467.147768 132.599577 
L 468.597119 132.528069 
L 470.046469 133.418649 
L 471.49582 132.304059 
L 472.94517 132.693067 
L 474.394521 132.084031 
L 475.843872 132.523896 
L 477.293222 132.600118 
L 480.191924 133.298588 
L 481.641274 132.386039 
L 484.539976 133.19902 
L 485.989326 132.739007 
L 487.438677 133.198867 
L 488.888028 132.736262 
L 490.337378 133.412287 
L 491.786729 132.808439 
L 493.23608 132.475197 
L 494.68543 132.640403 
L 496.134781 132.634424 
L 497.584131 133.023913 
L 499.033482 132.313796 
L 500.482833 133.014596 
L 501.932183 132.573859 
L 503.381534 132.310629 
L 504.830885 132.751505 
L 506.280235 132.027011 
L 507.729586 132.637068 
L 509.178937 131.997341 
L 510.628287 132.65365 
L 513.526989 132.254952 
L 514.976339 133.166727 
L 516.42569 133.161044 
L 517.875041 132.868057 
L 520.773742 132.715886 
L 522.223093 133.313758 
L 523.672443 133.259094 
L 525.121794 132.374664 
L 526.571144 132.370019 
L 528.020495 133.122317 
L 530.919196 132.516071 
L 532.368547 132.596273 
L 533.817898 134.212614 
L 535.267248 132.868127 
L 538.16595 133.448304 
L 539.6153 132.497697 
L 541.064651 132.84084 
L 542.514002 132.998419 
L 545.412703 132.979176 
L 546.862054 133.124053 
L 548.311404 132.775361 
L 549.760755 133.26447 
L 551.210106 133.447651 
L 552.659456 132.831682 
L 554.108807 132.643544 
L 555.558157 132.71595 
L 557.007508 133.071013 
L 558.456859 133.205481 
L 561.35556 133.018732 
L 562.804911 133.177562 
L 564.254261 133.212742 
L 565.703612 133.070536 
L 567.152963 132.7111 
L 568.602313 132.619717 
L 571.501015 132.757311 
L 572.950365 132.287485 
L 574.399716 132.917935 
L 575.849067 132.7582 
L 577.298417 132.74229 
L 578.747768 133.203917 
L 580.197119 132.704265 
L 581.646469 132.688085 
L 583.09582 133.394741 
L 585.994521 132.715876 
L 587.443872 132.583073 
L 588.893222 133.363201 
L 590.342573 133.218542 
L 591.791924 133.327864 
L 594.690625 133.046398 
L 597.589326 132.391266 
L 599.038677 132.746404 
L 601.937378 132.579992 
L 603.386729 133.6675 
L 604.83608 133.153177 
L 606.28543 131.871708 
L 607.734781 132.866669 
L 610.633482 132.529901 
L 612.082833 131.081888 
L 613.532183 132.932414 
L 614.981534 132.085451 
L 616.430885 132.760385 
L 617.880235 132.146346 
L 619.329586 132.88974 
L 620.778937 132.563737 
L 622.228287 133.069097 
L 623.677638 133.365032 
L 625.126989 132.478084 
L 625.126989 132.478084 
" clip-path="url(#pa62c05daba)" style="fill: none; stroke: #ff7f0e; stroke-width: 1.5; stroke-linecap: square"/>
   </g>
   <g id="patch_3">
    <path d="M 92.490625 308.63625 
L 92.490625 31.43625 
" style="fill: none; stroke: #000000; stroke-width: 0.8; stroke-linejoin: miter; stroke-linecap: square"/>
   </g>
   <g id="patch_4">
    <path d="M 650.490625 308.63625 
L 650.490625 31.43625 
" style="fill: none; stroke: #000000; stroke-width: 0.8; stroke-linejoin: miter; stroke-linecap: square"/>
   </g>
   <g id="patch_5">
    <path d="M 92.490625 308.63625 
L 650.490625 308.63625 
" style="fill: none; stroke: #000000; stroke-width: 0.8; stroke-linejoin: miter; stroke-linecap: square"/>
   </g>
   <g id="patch_6">
    <path d="M 92.490625 31.43625 
L 650.490625 31.43625 
" style="fill: none; stroke: #000000; stroke-width: 0.8; stroke-linejoin: miter; stroke-linecap: square"/>
   </g>
   <g id="text_16">
    <!-- Generator and Discriminator Loss During Training -->
    <g transform="translate(74.258125 25.43625) scale(0.24 -0.24)">
     <defs>
      <path id="DejaVuSans-47" d="M 3809 666 
L 3809 1919 
L 2778 1919 
L 2778 2438 
L 4434 2438 
L 4434 434 
Q 4069 175 3628 42 
Q 3188 -91 2688 -91 
Q 1594 -91 976 548 
Q 359 1188 359 2328 
Q 359 3472 976 4111 
Q 1594 4750 2688 4750 
Q 3144 4750 3555 4637 
Q 3966 4525 4313 4306 
L 4313 3634 
Q 3963 3931 3569 4081 
Q 3175 4231 2741 4231 
Q 1884 4231 1454 3753 
Q 1025 3275 1025 2328 
Q 1025 1384 1454 906 
Q 1884 428 2741 428 
Q 3075 428 3337 486 
Q 3600 544 3809 666 
z
" transform="scale(0.015625)"/>
      <path id="DejaVuSans-20" transform="scale(0.015625)"/>
      <path id="DejaVuSans-64" d="M 2906 2969 
L 2906 4863 
L 3481 4863 
L 3481 0 
L 2906 0 
L 2906 525 
Q 2725 213 2448 61 
Q 2172 -91 1784 -91 
Q 1150 -91 751 415 
Q 353 922 353 1747 
Q 353 2572 751 3078 
Q 1150 3584 1784 3584 
Q 2172 3584 2448 3432 
Q 2725 3281 2906 2969 
z
M 947 1747 
Q 947 1113 1208 752 
Q 1469 391 1925 391 
Q 2381 391 2643 752 
Q 2906 1113 2906 1747 
Q 2906 2381 2643 2742 
Q 2381 3103 1925 3103 
Q 1469 3103 1208 2742 
Q 947 2381 947 1747 
z
" transform="scale(0.015625)"/>
      <path id="DejaVuSans-44" d="M 1259 4147 
L 1259 519 
L 2022 519 
Q 2988 519 3436 956 
Q 3884 1394 3884 2338 
Q 3884 3275 3436 3711 
Q 2988 4147 2022 4147 
L 1259 4147 
z
M 628 4666 
L 1925 4666 
Q 3281 4666 3915 4102 
Q 4550 3538 4550 2338 
Q 4550 1131 3912 565 
Q 3275 0 1925 0 
L 628 0 
L 628 4666 
z
" transform="scale(0.015625)"/>
      <path id="DejaVuSans-63" d="M 3122 3366 
L 3122 2828 
Q 2878 2963 2633 3030 
Q 2388 3097 2138 3097 
Q 1578 3097 1268 2742 
Q 959 2388 959 1747 
Q 959 1106 1268 751 
Q 1578 397 2138 397 
Q 2388 397 2633 464 
Q 2878 531 3122 666 
L 3122 134 
Q 2881 22 2623 -34 
Q 2366 -91 2075 -91 
Q 1284 -91 818 406 
Q 353 903 353 1747 
Q 353 2603 823 3093 
Q 1294 3584 2113 3584 
Q 2378 3584 2631 3529 
Q 2884 3475 3122 3366 
z
" transform="scale(0.015625)"/>
      <path id="DejaVuSans-6d" d="M 3328 2828 
Q 3544 3216 3844 3400 
Q 4144 3584 4550 3584 
Q 5097 3584 5394 3201 
Q 5691 2819 5691 2113 
L 5691 0 
L 5113 0 
L 5113 2094 
Q 5113 2597 4934 2840 
Q 4756 3084 4391 3084 
Q 3944 3084 3684 2787 
Q 3425 2491 3425 1978 
L 3425 0 
L 2847 0 
L 2847 2094 
Q 2847 2600 2669 2842 
Q 2491 3084 2119 3084 
Q 1678 3084 1418 2786 
Q 1159 2488 1159 1978 
L 1159 0 
L 581 0 
L 581 3500 
L 1159 3500 
L 1159 2956 
Q 1356 3278 1631 3431 
Q 1906 3584 2284 3584 
Q 2666 3584 2933 3390 
Q 3200 3197 3328 2828 
z
" transform="scale(0.015625)"/>
      <path id="DejaVuSans-75" d="M 544 1381 
L 544 3500 
L 1119 3500 
L 1119 1403 
Q 1119 906 1312 657 
Q 1506 409 1894 409 
Q 2359 409 2629 706 
Q 2900 1003 2900 1516 
L 2900 3500 
L 3475 3500 
L 3475 0 
L 2900 0 
L 2900 538 
Q 2691 219 2414 64 
Q 2138 -91 1772 -91 
Q 1169 -91 856 284 
Q 544 659 544 1381 
z
M 1991 3584 
L 1991 3584 
z
" transform="scale(0.015625)"/>
      <path id="DejaVuSans-67" d="M 2906 1791 
Q 2906 2416 2648 2759 
Q 2391 3103 1925 3103 
Q 1463 3103 1205 2759 
Q 947 2416 947 1791 
Q 947 1169 1205 825 
Q 1463 481 1925 481 
Q 2391 481 2648 825 
Q 2906 1169 2906 1791 
z
M 3481 434 
Q 3481 -459 3084 -895 
Q 2688 -1331 1869 -1331 
Q 1566 -1331 1297 -1286 
Q 1028 -1241 775 -1147 
L 775 -588 
Q 1028 -725 1275 -790 
Q 1522 -856 1778 -856 
Q 2344 -856 2625 -561 
Q 2906 -266 2906 331 
L 2906 616 
Q 2728 306 2450 153 
Q 2172 0 1784 0 
Q 1141 0 747 490 
Q 353 981 353 1791 
Q 353 2603 747 3093 
Q 1141 3584 1784 3584 
Q 2172 3584 2450 3431 
Q 2728 3278 2906 2969 
L 2906 3500 
L 3481 3500 
L 3481 434 
z
" transform="scale(0.015625)"/>
      <path id="DejaVuSans-54" d="M -19 4666 
L 3928 4666 
L 3928 4134 
L 2272 4134 
L 2272 0 
L 1638 0 
L 1638 4134 
L -19 4134 
L -19 4666 
z
" transform="scale(0.015625)"/>
     </defs>
     <use xlink:href="#DejaVuSans-47"/>
     <use xlink:href="#DejaVuSans-65" x="77.490234"/>
     <use xlink:href="#DejaVuSans-6e" x="139.013672"/>
     <use xlink:href="#DejaVuSans-65" x="202.392578"/>
     <use xlink:href="#DejaVuSans-72" x="263.916016"/>
     <use xlink:href="#DejaVuSans-61" x="305.029297"/>
     <use xlink:href="#DejaVuSans-74" x="366.308594"/>
     <use xlink:href="#DejaVuSans-6f" x="405.517578"/>
     <use xlink:href="#DejaVuSans-72" x="466.699219"/>
     <use xlink:href="#DejaVuSans-20" x="507.8125"/>
     <use xlink:href="#DejaVuSans-61" x="539.599609"/>
     <use xlink:href="#DejaVuSans-6e" x="600.878906"/>
     <use xlink:href="#DejaVuSans-64" x="664.257812"/>
     <use xlink:href="#DejaVuSans-20" x="727.734375"/>
     <use xlink:href="#DejaVuSans-44" x="759.521484"/>
     <use xlink:href="#DejaVuSans-69" x="836.523438"/>
     <use xlink:href="#DejaVuSans-73" x="864.306641"/>
     <use xlink:href="#DejaVuSans-63" x="916.40625"/>
     <use xlink:href="#DejaVuSans-72" x="971.386719"/>
     <use xlink:href="#DejaVuSans-69" x="1012.5"/>
     <use xlink:href="#DejaVuSans-6d" x="1040.283203"/>
     <use xlink:href="#DejaVuSans-69" x="1137.695312"/>
     <use xlink:href="#DejaVuSans-6e" x="1165.478516"/>
     <use xlink:href="#DejaVuSans-61" x="1228.857422"/>
     <use xlink:href="#DejaVuSans-74" x="1290.136719"/>
     <use xlink:href="#DejaVuSans-6f" x="1329.345703"/>
     <use xlink:href="#DejaVuSans-72" x="1390.527344"/>
     <use xlink:href="#DejaVuSans-20" x="1431.640625"/>
     <use xlink:href="#DejaVuSans-4c" x="1463.427734"/>
     <use xlink:href="#DejaVuSans-6f" x="1517.390625"/>
     <use xlink:href="#DejaVuSans-73" x="1578.572266"/>
     <use xlink:href="#DejaVuSans-73" x="1630.671875"/>
     <use xlink:href="#DejaVuSans-20" x="1682.771484"/>
     <use xlink:href="#DejaVuSans-44" x="1714.558594"/>
     <use xlink:href="#DejaVuSans-75" x="1791.560547"/>
     <use xlink:href="#DejaVuSans-72" x="1854.939453"/>
     <use xlink:href="#DejaVuSans-69" x="1896.052734"/>
     <use xlink:href="#DejaVuSans-6e" x="1923.835938"/>
     <use xlink:href="#DejaVuSans-67" x="1987.214844"/>
     <use xlink:href="#DejaVuSans-20" x="2050.691406"/>
     <use xlink:href="#DejaVuSans-54" x="2082.478516"/>
     <use xlink:href="#DejaVuSans-72" x="2128.8125"/>
     <use xlink:href="#DejaVuSans-61" x="2169.925781"/>
     <use xlink:href="#DejaVuSans-69" x="2231.205078"/>
     <use xlink:href="#DejaVuSans-6e" x="2258.988281"/>
     <use xlink:href="#DejaVuSans-69" x="2322.367188"/>
     <use xlink:href="#DejaVuSans-6e" x="2350.150391"/>
     <use xlink:href="#DejaVuSans-67" x="2413.529297"/>
    </g>
   </g>
   <g id="legend_1">
    <g id="patch_7">
     <path d="M 556.99375 106.14875 
L 636.490625 106.14875 
Q 640.490625 106.14875 640.490625 102.14875 
L 640.490625 45.43625 
Q 640.490625 41.43625 636.490625 41.43625 
L 556.99375 41.43625 
Q 552.99375 41.43625 552.99375 45.43625 
L 552.99375 102.14875 
Q 552.99375 106.14875 556.99375 106.14875 
z
" style="fill: #ffffff; opacity: 0.8; stroke: #cccccc; stroke-linejoin: miter"/>
    </g>
    <g id="line2d_16">
     <path d="M 560.99375 57.633125 
L 580.99375 57.633125 
L 600.99375 57.633125 
" style="fill: none; stroke: #1f77b4; stroke-width: 1.5; stroke-linecap: square"/>
    </g>
    <g id="text_17">
     <!-- G -->
     <g transform="translate(616.99375 64.633125) scale(0.2 -0.2)">
      <use xlink:href="#DejaVuSans-47"/>
     </g>
    </g>
    <g id="line2d_17">
     <path d="M 560.99375 86.989375 
L 580.99375 86.989375 
L 600.99375 86.989375 
" style="fill: none; stroke: #ff7f0e; stroke-width: 1.5; stroke-linecap: square"/>
    </g>
    <g id="text_18">
     <!-- D -->
     <g transform="translate(616.99375 93.989375) scale(0.2 -0.2)">
      <use xlink:href="#DejaVuSans-44"/>
     </g>
    </g>
   </g>
  </g>
 </g>
 <defs>
  <clipPath id="pa62c05daba">
   <rect x="92.490625" y="31.43625" width="558" height="277.2"/>
  </clipPath>
 </defs>
</svg>
