<?xml version="1.0" encoding="utf-8" standalone="no"?>
<!DOCTYPE svg PUBLIC "-//W3C//DTD SVG 1.1//EN"
  "http://www.w3.org/Graphics/SVG/1.1/DTD/svg11.dtd">
<svg xmlns:xlink="http://www.w3.org/1999/xlink" width="675.923125pt" height="365.54875pt" viewBox="0 0 675.923125 365.54875" xmlns="http://www.w3.org/2000/svg" version="1.1">
 <metadata>
  <rdf:RDF xmlns:dc="http://purl.org/dc/elements/1.1/" xmlns:cc="http://creativecommons.org/ns#" xmlns:rdf="http://www.w3.org/1999/02/22-rdf-syntax-ns#">
   <cc:Work>
    <dc:type rdf:resource="http://purl.org/dc/dcmitype/StillImage"/>
    <dc:date>2024-02-04T18:05:29.627607</dc:date>
    <dc:format>image/svg+xml</dc:format>
    <dc:creator>
     <cc:Agent>
      <dc:title>Matplotlib v3.7.2, https://matplotlib.org/</dc:title>
     </cc:Agent>
    </dc:creator>
   </cc:Work>
  </rdf:RDF>
 </metadata>
 <defs>
  <style type="text/css">*{stroke-linejoin: round; stroke-linecap: butt}</style>
 </defs>
 <g id="figure_1">
  <g id="patch_1">
   <path d="M 0 365.54875 
L 675.923125 365.54875 
L 675.923125 -0 
L 0 -0 
z
" style="fill: #ffffff"/>
  </g>
  <g id="axes_1">
   <g id="patch_2">
    <path d="M 92.490625 308.63625 
L 650.490625 308.63625 
L 650.490625 31.43625 
L 92.490625 31.43625 
z
" style="fill: #ffffff"/>
   </g>
   <g id="matplotlib.axis_1">
    <g id="xtick_1">
     <g id="line2d_1">
      <defs>
       <path id="mdc1a602269" d="M 0 0 
L 0 3.5 
" style="stroke: #000000; stroke-width: 0.8"/>
      </defs>
      <g>
       <use xlink:href="#mdc1a602269" x="117.854261" y="308.63625" style="stroke: #000000; stroke-width: 0.8"/>
      </g>
     </g>
     <g id="text_1">
      <!-- 0 -->
      <g transform="translate(111.491761 330.833125) scale(0.2 -0.2)">
       <defs>
        <path id="DejaVuSans-30" d="M 2034 4250 
Q 1547 4250 1301 3770 
Q 1056 3291 1056 2328 
Q 1056 1369 1301 889 
Q 1547 409 2034 409 
Q 2525 409 2770 889 
Q 3016 1369 3016 2328 
Q 3016 3291 2770 3770 
Q 2525 4250 2034 4250 
z
M 2034 4750 
Q 2819 4750 3233 4129 
Q 3647 3509 3647 2328 
Q 3647 1150 3233 529 
Q 2819 -91 2034 -91 
Q 1250 -91 836 529 
Q 422 1150 422 2328 
Q 422 3509 836 4129 
Q 1250 4750 2034 4750 
z
" transform="scale(0.015625)"/>
       </defs>
       <use xlink:href="#DejaVuSans-30"/>
      </g>
     </g>
    </g>
    <g id="xtick_2">
     <g id="line2d_2">
      <g>
       <use xlink:href="#mdc1a602269" x="183.308807" y="308.63625" style="stroke: #000000; stroke-width: 0.8"/>
      </g>
     </g>
     <g id="text_2">
      <!-- 200 -->
      <g transform="translate(164.221307 330.833125) scale(0.2 -0.2)">
       <defs>
        <path id="DejaVuSans-32" d="M 1228 531 
L 3431 531 
L 3431 0 
L 469 0 
L 469 531 
Q 828 903 1448 1529 
Q 2069 2156 2228 2338 
Q 2531 2678 2651 2914 
Q 2772 3150 2772 3378 
Q 2772 3750 2511 3984 
Q 2250 4219 1831 4219 
Q 1534 4219 1204 4116 
Q 875 4013 500 3803 
L 500 4441 
Q 881 4594 1212 4672 
Q 1544 4750 1819 4750 
Q 2544 4750 2975 4387 
Q 3406 4025 3406 3419 
Q 3406 3131 3298 2873 
Q 3191 2616 2906 2266 
Q 2828 2175 2409 1742 
Q 1991 1309 1228 531 
z
" transform="scale(0.015625)"/>
       </defs>
       <use xlink:href="#DejaVuSans-32"/>
       <use xlink:href="#DejaVuSans-30" x="63.623047"/>
       <use xlink:href="#DejaVuSans-30" x="127.246094"/>
      </g>
     </g>
    </g>
    <g id="xtick_3">
     <g id="line2d_3">
      <g>
       <use xlink:href="#mdc1a602269" x="248.763352" y="308.63625" style="stroke: #000000; stroke-width: 0.8"/>
      </g>
     </g>
     <g id="text_3">
      <!-- 400 -->
      <g transform="translate(229.675852 330.833125) scale(0.2 -0.2)">
       <defs>
        <path id="DejaVuSans-34" d="M 2419 4116 
L 825 1625 
L 2419 1625 
L 2419 4116 
z
M 2253 4666 
L 3047 4666 
L 3047 1625 
L 3713 1625 
L 3713 1100 
L 3047 1100 
L 3047 0 
L 2419 0 
L 2419 1100 
L 313 1100 
L 313 1709 
L 2253 4666 
z
" transform="scale(0.015625)"/>
       </defs>
       <use xlink:href="#DejaVuSans-34"/>
       <use xlink:href="#DejaVuSans-30" x="63.623047"/>
       <use xlink:href="#DejaVuSans-30" x="127.246094"/>
      </g>
     </g>
    </g>
    <g id="xtick_4">
     <g id="line2d_4">
      <g>
       <use xlink:href="#mdc1a602269" x="314.217898" y="308.63625" style="stroke: #000000; stroke-width: 0.8"/>
      </g>
     </g>
     <g id="text_4">
      <!-- 600 -->
      <g transform="translate(295.130398 330.833125) scale(0.2 -0.2)">
       <defs>
        <path id="DejaVuSans-36" d="M 2113 2584 
Q 1688 2584 1439 2293 
Q 1191 2003 1191 1497 
Q 1191 994 1439 701 
Q 1688 409 2113 409 
Q 2538 409 2786 701 
Q 3034 994 3034 1497 
Q 3034 2003 2786 2293 
Q 2538 2584 2113 2584 
z
M 3366 4563 
L 3366 3988 
Q 3128 4100 2886 4159 
Q 2644 4219 2406 4219 
Q 1781 4219 1451 3797 
Q 1122 3375 1075 2522 
Q 1259 2794 1537 2939 
Q 1816 3084 2150 3084 
Q 2853 3084 3261 2657 
Q 3669 2231 3669 1497 
Q 3669 778 3244 343 
Q 2819 -91 2113 -91 
Q 1303 -91 875 529 
Q 447 1150 447 2328 
Q 447 3434 972 4092 
Q 1497 4750 2381 4750 
Q 2619 4750 2861 4703 
Q 3103 4656 3366 4563 
z
" transform="scale(0.015625)"/>
       </defs>
       <use xlink:href="#DejaVuSans-36"/>
       <use xlink:href="#DejaVuSans-30" x="63.623047"/>
       <use xlink:href="#DejaVuSans-30" x="127.246094"/>
      </g>
     </g>
    </g>
    <g id="xtick_5">
     <g id="line2d_5">
      <g>
       <use xlink:href="#mdc1a602269" x="379.672443" y="308.63625" style="stroke: #000000; stroke-width: 0.8"/>
      </g>
     </g>
     <g id="text_5">
      <!-- 800 -->
      <g transform="translate(360.584943 330.833125) scale(0.2 -0.2)">
       <defs>
        <path id="DejaVuSans-38" d="M 2034 2216 
Q 1584 2216 1326 1975 
Q 1069 1734 1069 1313 
Q 1069 891 1326 650 
Q 1584 409 2034 409 
Q 2484 409 2743 651 
Q 3003 894 3003 1313 
Q 3003 1734 2745 1975 
Q 2488 2216 2034 2216 
z
M 1403 2484 
Q 997 2584 770 2862 
Q 544 3141 544 3541 
Q 544 4100 942 4425 
Q 1341 4750 2034 4750 
Q 2731 4750 3128 4425 
Q 3525 4100 3525 3541 
Q 3525 3141 3298 2862 
Q 3072 2584 2669 2484 
Q 3125 2378 3379 2068 
Q 3634 1759 3634 1313 
Q 3634 634 3220 271 
Q 2806 -91 2034 -91 
Q 1263 -91 848 271 
Q 434 634 434 1313 
Q 434 1759 690 2068 
Q 947 2378 1403 2484 
z
M 1172 3481 
Q 1172 3119 1398 2916 
Q 1625 2713 2034 2713 
Q 2441 2713 2670 2916 
Q 2900 3119 2900 3481 
Q 2900 3844 2670 4047 
Q 2441 4250 2034 4250 
Q 1625 4250 1398 4047 
Q 1172 3844 1172 3481 
z
" transform="scale(0.015625)"/>
       </defs>
       <use xlink:href="#DejaVuSans-38"/>
       <use xlink:href="#DejaVuSans-30" x="63.623047"/>
       <use xlink:href="#DejaVuSans-30" x="127.246094"/>
      </g>
     </g>
    </g>
    <g id="xtick_6">
     <g id="line2d_6">
      <g>
       <use xlink:href="#mdc1a602269" x="445.126989" y="308.63625" style="stroke: #000000; stroke-width: 0.8"/>
      </g>
     </g>
     <g id="text_6">
      <!-- 1000 -->
      <g transform="translate(419.676989 330.833125) scale(0.2 -0.2)">
       <defs>
        <path id="DejaVuSans-31" d="M 794 531 
L 1825 531 
L 1825 4091 
L 703 3866 
L 703 4441 
L 1819 4666 
L 2450 4666 
L 2450 531 
L 3481 531 
L 3481 0 
L 794 0 
L 794 531 
z
" transform="scale(0.015625)"/>
       </defs>
       <use xlink:href="#DejaVuSans-31"/>
       <use xlink:href="#DejaVuSans-30" x="63.623047"/>
       <use xlink:href="#DejaVuSans-30" x="127.246094"/>
       <use xlink:href="#DejaVuSans-30" x="190.869141"/>
      </g>
     </g>
    </g>
    <g id="xtick_7">
     <g id="line2d_7">
      <g>
       <use xlink:href="#mdc1a602269" x="510.581534" y="308.63625" style="stroke: #000000; stroke-width: 0.8"/>
      </g>
     </g>
     <g id="text_7">
      <!-- 1200 -->
      <g transform="translate(485.131534 330.833125) scale(0.2 -0.2)">
       <use xlink:href="#DejaVuSans-31"/>
       <use xlink:href="#DejaVuSans-32" x="63.623047"/>
       <use xlink:href="#DejaVuSans-30" x="127.246094"/>
       <use xlink:href="#DejaVuSans-30" x="190.869141"/>
      </g>
     </g>
    </g>
    <g id="xtick_8">
     <g id="line2d_8">
      <g>
       <use xlink:href="#mdc1a602269" x="576.03608" y="308.63625" style="stroke: #000000; stroke-width: 0.8"/>
      </g>
     </g>
     <g id="text_8">
      <!-- 1400 -->
      <g transform="translate(550.58608 330.833125) scale(0.2 -0.2)">
       <use xlink:href="#DejaVuSans-31"/>
       <use xlink:href="#DejaVuSans-34" x="63.623047"/>
       <use xlink:href="#DejaVuSans-30" x="127.246094"/>
       <use xlink:href="#DejaVuSans-30" x="190.869141"/>
      </g>
     </g>
    </g>
    <g id="xtick_9">
     <g id="line2d_9">
      <g>
       <use xlink:href="#mdc1a602269" x="641.490625" y="308.63625" style="stroke: #000000; stroke-width: 0.8"/>
      </g>
     </g>
     <g id="text_9">
      <!-- 1600 -->
      <g transform="translate(616.040625 330.833125) scale(0.2 -0.2)">
       <use xlink:href="#DejaVuSans-31"/>
       <use xlink:href="#DejaVuSans-36" x="63.623047"/>
       <use xlink:href="#DejaVuSans-30" x="127.246094"/>
       <use xlink:href="#DejaVuSans-30" x="190.869141"/>
      </g>
     </g>
    </g>
    <g id="text_10">
     <!-- iterations -->
     <g transform="translate(324.035938 354.189375) scale(0.2 -0.2)">
      <defs>
       <path id="DejaVuSans-69" d="M 603 3500 
L 1178 3500 
L 1178 0 
L 603 0 
L 603 3500 
z
M 603 4863 
L 1178 4863 
L 1178 4134 
L 603 4134 
L 603 4863 
z
" transform="scale(0.015625)"/>
       <path id="DejaVuSans-74" d="M 1172 4494 
L 1172 3500 
L 2356 3500 
L 2356 3053 
L 1172 3053 
L 1172 1153 
Q 1172 725 1289 603 
Q 1406 481 1766 481 
L 2356 481 
L 2356 0 
L 1766 0 
Q 1100 0 847 248 
Q 594 497 594 1153 
L 594 3053 
L 172 3053 
L 172 3500 
L 594 3500 
L 594 4494 
L 1172 4494 
z
" transform="scale(0.015625)"/>
       <path id="DejaVuSans-65" d="M 3597 1894 
L 3597 1613 
L 953 1613 
Q 991 1019 1311 708 
Q 1631 397 2203 397 
Q 2534 397 2845 478 
Q 3156 559 3463 722 
L 3463 178 
Q 3153 47 2828 -22 
Q 2503 -91 2169 -91 
Q 1331 -91 842 396 
Q 353 884 353 1716 
Q 353 2575 817 3079 
Q 1281 3584 2069 3584 
Q 2775 3584 3186 3129 
Q 3597 2675 3597 1894 
z
M 3022 2063 
Q 3016 2534 2758 2815 
Q 2500 3097 2075 3097 
Q 1594 3097 1305 2825 
Q 1016 2553 972 2059 
L 3022 2063 
z
" transform="scale(0.015625)"/>
       <path id="DejaVuSans-72" d="M 2631 2963 
Q 2534 3019 2420 3045 
Q 2306 3072 2169 3072 
Q 1681 3072 1420 2755 
Q 1159 2438 1159 1844 
L 1159 0 
L 581 0 
L 581 3500 
L 1159 3500 
L 1159 2956 
Q 1341 3275 1631 3429 
Q 1922 3584 2338 3584 
Q 2397 3584 2469 3576 
Q 2541 3569 2628 3553 
L 2631 2963 
z
" transform="scale(0.015625)"/>
       <path id="DejaVuSans-61" d="M 2194 1759 
Q 1497 1759 1228 1600 
Q 959 1441 959 1056 
Q 959 750 1161 570 
Q 1363 391 1709 391 
Q 2188 391 2477 730 
Q 2766 1069 2766 1631 
L 2766 1759 
L 2194 1759 
z
M 3341 1997 
L 3341 0 
L 2766 0 
L 2766 531 
Q 2569 213 2275 61 
Q 1981 -91 1556 -91 
Q 1019 -91 701 211 
Q 384 513 384 1019 
Q 384 1609 779 1909 
Q 1175 2209 1959 2209 
L 2766 2209 
L 2766 2266 
Q 2766 2663 2505 2880 
Q 2244 3097 1772 3097 
Q 1472 3097 1187 3025 
Q 903 2953 641 2809 
L 641 3341 
Q 956 3463 1253 3523 
Q 1550 3584 1831 3584 
Q 2591 3584 2966 3190 
Q 3341 2797 3341 1997 
z
" transform="scale(0.015625)"/>
       <path id="DejaVuSans-6f" d="M 1959 3097 
Q 1497 3097 1228 2736 
Q 959 2375 959 1747 
Q 959 1119 1226 758 
Q 1494 397 1959 397 
Q 2419 397 2687 759 
Q 2956 1122 2956 1747 
Q 2956 2369 2687 2733 
Q 2419 3097 1959 3097 
z
M 1959 3584 
Q 2709 3584 3137 3096 
Q 3566 2609 3566 1747 
Q 3566 888 3137 398 
Q 2709 -91 1959 -91 
Q 1206 -91 779 398 
Q 353 888 353 1747 
Q 353 2609 779 3096 
Q 1206 3584 1959 3584 
z
" transform="scale(0.015625)"/>
       <path id="DejaVuSans-6e" d="M 3513 2113 
L 3513 0 
L 2938 0 
L 2938 2094 
Q 2938 2591 2744 2837 
Q 2550 3084 2163 3084 
Q 1697 3084 1428 2787 
Q 1159 2491 1159 1978 
L 1159 0 
L 581 0 
L 581 3500 
L 1159 3500 
L 1159 2956 
Q 1366 3272 1645 3428 
Q 1925 3584 2291 3584 
Q 2894 3584 3203 3211 
Q 3513 2838 3513 2113 
z
" transform="scale(0.015625)"/>
       <path id="DejaVuSans-73" d="M 2834 3397 
L 2834 2853 
Q 2591 2978 2328 3040 
Q 2066 3103 1784 3103 
Q 1356 3103 1142 2972 
Q 928 2841 928 2578 
Q 928 2378 1081 2264 
Q 1234 2150 1697 2047 
L 1894 2003 
Q 2506 1872 2764 1633 
Q 3022 1394 3022 966 
Q 3022 478 2636 193 
Q 2250 -91 1575 -91 
Q 1294 -91 989 -36 
Q 684 19 347 128 
L 347 722 
Q 666 556 975 473 
Q 1284 391 1588 391 
Q 1994 391 2212 530 
Q 2431 669 2431 922 
Q 2431 1156 2273 1281 
Q 2116 1406 1581 1522 
L 1381 1569 
Q 847 1681 609 1914 
Q 372 2147 372 2553 
Q 372 3047 722 3315 
Q 1072 3584 1716 3584 
Q 2034 3584 2315 3537 
Q 2597 3491 2834 3397 
z
" transform="scale(0.015625)"/>
      </defs>
      <use xlink:href="#DejaVuSans-69"/>
      <use xlink:href="#DejaVuSans-74" x="27.783203"/>
      <use xlink:href="#DejaVuSans-65" x="66.992188"/>
      <use xlink:href="#DejaVuSans-72" x="128.515625"/>
      <use xlink:href="#DejaVuSans-61" x="169.628906"/>
      <use xlink:href="#DejaVuSans-74" x="230.908203"/>
      <use xlink:href="#DejaVuSans-69" x="270.117188"/>
      <use xlink:href="#DejaVuSans-6f" x="297.900391"/>
      <use xlink:href="#DejaVuSans-6e" x="359.082031"/>
      <use xlink:href="#DejaVuSans-73" x="422.460938"/>
     </g>
    </g>
   </g>
   <g id="matplotlib.axis_2">
    <g id="ytick_1">
     <g id="line2d_10">
      <defs>
       <path id="m76ae1f21b1" d="M 0 0 
L -3.5 0 
" style="stroke: #000000; stroke-width: 0.8"/>
      </defs>
      <g>
       <use xlink:href="#m76ae1f21b1" x="92.490625" y="275.383624" style="stroke: #000000; stroke-width: 0.8"/>
      </g>
     </g>
     <g id="text_11">
      <!-- −300 -->
      <g transform="translate(30.55625 282.982061) scale(0.2 -0.2)">
       <defs>
        <path id="DejaVuSans-2212" d="M 678 2272 
L 4684 2272 
L 4684 1741 
L 678 1741 
L 678 2272 
z
" transform="scale(0.015625)"/>
        <path id="DejaVuSans-33" d="M 2597 2516 
Q 3050 2419 3304 2112 
Q 3559 1806 3559 1356 
Q 3559 666 3084 287 
Q 2609 -91 1734 -91 
Q 1441 -91 1130 -33 
Q 819 25 488 141 
L 488 750 
Q 750 597 1062 519 
Q 1375 441 1716 441 
Q 2309 441 2620 675 
Q 2931 909 2931 1356 
Q 2931 1769 2642 2001 
Q 2353 2234 1838 2234 
L 1294 2234 
L 1294 2753 
L 1863 2753 
Q 2328 2753 2575 2939 
Q 2822 3125 2822 3475 
Q 2822 3834 2567 4026 
Q 2313 4219 1838 4219 
Q 1578 4219 1281 4162 
Q 984 4106 628 3988 
L 628 4550 
Q 988 4650 1302 4700 
Q 1616 4750 1894 4750 
Q 2613 4750 3031 4423 
Q 3450 4097 3450 3541 
Q 3450 3153 3228 2886 
Q 3006 2619 2597 2516 
z
" transform="scale(0.015625)"/>
       </defs>
       <use xlink:href="#DejaVuSans-2212"/>
       <use xlink:href="#DejaVuSans-33" x="83.789062"/>
       <use xlink:href="#DejaVuSans-30" x="147.412109"/>
       <use xlink:href="#DejaVuSans-30" x="211.035156"/>
      </g>
     </g>
    </g>
    <g id="ytick_2">
     <g id="line2d_11">
      <g>
       <use xlink:href="#m76ae1f21b1" x="92.490625" y="226.548593" style="stroke: #000000; stroke-width: 0.8"/>
      </g>
     </g>
     <g id="text_12">
      <!-- −200 -->
      <g transform="translate(30.55625 234.147031) scale(0.2 -0.2)">
       <use xlink:href="#DejaVuSans-2212"/>
       <use xlink:href="#DejaVuSans-32" x="83.789062"/>
       <use xlink:href="#DejaVuSans-30" x="147.412109"/>
       <use xlink:href="#DejaVuSans-30" x="211.035156"/>
      </g>
     </g>
    </g>
    <g id="ytick_3">
     <g id="line2d_12">
      <g>
       <use xlink:href="#m76ae1f21b1" x="92.490625" y="177.713563" style="stroke: #000000; stroke-width: 0.8"/>
      </g>
     </g>
     <g id="text_13">
      <!-- −100 -->
      <g transform="translate(30.55625 185.312) scale(0.2 -0.2)">
       <use xlink:href="#DejaVuSans-2212"/>
       <use xlink:href="#DejaVuSans-31" x="83.789062"/>
       <use xlink:href="#DejaVuSans-30" x="147.412109"/>
       <use xlink:href="#DejaVuSans-30" x="211.035156"/>
      </g>
     </g>
    </g>
    <g id="ytick_4">
     <g id="line2d_13">
      <g>
       <use xlink:href="#m76ae1f21b1" x="92.490625" y="128.878533" style="stroke: #000000; stroke-width: 0.8"/>
      </g>
     </g>
     <g id="text_14">
      <!-- 0 -->
      <g transform="translate(72.765625 136.47697) scale(0.2 -0.2)">
       <use xlink:href="#DejaVuSans-30"/>
      </g>
     </g>
    </g>
    <g id="ytick_5">
     <g id="line2d_14">
      <g>
       <use xlink:href="#m76ae1f21b1" x="92.490625" y="80.043502" style="stroke: #000000; stroke-width: 0.8"/>
      </g>
     </g>
     <g id="text_15">
      <!-- 100 -->
      <g transform="translate(47.315625 87.64194) scale(0.2 -0.2)">
       <use xlink:href="#DejaVuSans-31"/>
       <use xlink:href="#DejaVuSans-30" x="63.623047"/>
       <use xlink:href="#DejaVuSans-30" x="127.246094"/>
      </g>
     </g>
    </g>
    <g id="text_16">
     <!-- Loss -->
     <g transform="translate(22.396875 191.970625) rotate(-90) scale(0.2 -0.2)">
      <defs>
       <path id="DejaVuSans-4c" d="M 628 4666 
L 1259 4666 
L 1259 531 
L 3531 531 
L 3531 0 
L 628 0 
L 628 4666 
z
" transform="scale(0.015625)"/>
      </defs>
      <use xlink:href="#DejaVuSans-4c"/>
      <use xlink:href="#DejaVuSans-6f" x="53.962891"/>
      <use xlink:href="#DejaVuSans-73" x="115.144531"/>
      <use xlink:href="#DejaVuSans-73" x="167.244141"/>
     </g>
    </g>
   </g>
   <g id="line2d_15">
    <path d="M 117.854261 107.143996 
L 118.181534 57.897655 
L 118.508807 62.589217 
L 118.83608 71.838444 
L 119.163352 72.058068 
L 119.490625 78.835638 
L 119.817898 48.700135 
L 120.14517 69.151889 
L 120.472443 52.930212 
L 120.799716 66.096965 
L 121.126989 66.553032 
L 121.454261 76.876548 
L 121.781534 55.497317 
L 122.108807 51.115701 
L 122.43608 44.03625 
L 122.763352 51.05182 
L 123.090625 50.556376 
L 123.417898 47.220406 
L 123.74517 48.866878 
L 124.072443 59.287779 
L 124.399716 53.814842 
L 125.054261 75.333709 
L 125.381534 66.979208 
L 125.708807 67.998484 
L 126.363352 56.908396 
L 126.690625 56.25427 
L 127.017898 62.683745 
L 127.34517 62.834119 
L 127.672443 61.864756 
L 127.999716 59.659047 
L 128.326989 66.219703 
L 128.981534 63.601624 
L 129.308807 67.449061 
L 129.63608 60.970884 
L 129.963352 60.75248 
L 130.290625 63.60389 
L 131.272443 58.813955 
L 131.599716 67.023484 
L 131.926989 68.229069 
L 132.254261 64.692444 
L 132.908807 70.902459 
L 133.23608 69.795967 
L 133.563352 74.728848 
L 134.217898 77.42436 
L 134.54517 83.33243 
L 134.872443 83.696863 
L 135.199716 81.139497 
L 135.526989 84.503779 
L 135.854261 82.653976 
L 136.181534 83.971179 
L 136.508807 83.117448 
L 136.83608 92.629959 
L 137.163352 90.330475 
L 137.490625 92.275981 
L 137.817898 90.397232 
L 138.14517 85.023339 
L 138.799716 91.154721 
L 139.126989 90.441416 
L 139.454261 93.864369 
L 139.781534 94.436591 
L 140.108807 92.705835 
L 140.43608 92.095729 
L 140.763352 93.933289 
L 141.090625 93.130061 
L 141.417898 96.57687 
L 141.74517 96.221721 
L 142.072443 97.915892 
L 142.726989 96.027037 
L 143.054261 98.865555 
L 143.381534 98.462802 
L 143.708807 99.901126 
L 144.363352 96.744706 
L 144.690625 101.116059 
L 145.017898 101.463043 
L 145.34517 99.407777 
L 145.672443 99.079392 
L 145.999716 101.748936 
L 146.326989 96.373721 
L 146.654261 98.877538 
L 146.981534 98.64235 
L 147.308807 101.755311 
L 147.63608 100.498503 
L 147.963352 100.197472 
L 148.290625 101.359065 
L 148.617898 103.278208 
L 148.94517 101.968927 
L 149.272443 102.623733 
L 149.599716 105.687596 
L 149.926989 105.591574 
L 150.254261 105.222651 
L 150.581534 105.442727 
L 150.908807 105.435291 
L 151.23608 106.080857 
L 151.563352 104.933541 
L 152.217898 105.439361 
L 152.54517 104.112317 
L 152.872443 107.187193 
L 153.199716 105.623654 
L 153.526989 108.334138 
L 153.854261 109.120913 
L 154.181534 108.514233 
L 154.508807 108.621994 
L 154.83608 110.088807 
L 155.163352 107.799802 
L 155.490625 110.200852 
L 155.817898 107.412463 
L 156.14517 110.288919 
L 156.472443 110.331991 
L 156.799716 109.867902 
L 157.126989 112.363599 
L 157.454261 111.384776 
L 157.781534 112.310107 
L 158.108807 111.154051 
L 158.43608 111.986557 
L 158.763352 111.672193 
L 159.090625 113.862704 
L 159.417898 113.19168 
L 159.74517 114.015056 
L 160.072443 115.817951 
L 160.399716 115.191117 
L 160.726989 113.570448 
L 161.054261 114.281939 
L 161.381534 113.887923 
L 161.708807 115.180849 
L 162.03608 113.979114 
L 162.363352 113.208098 
L 162.690625 113.576696 
L 163.017898 112.998 
L 163.34517 113.869487 
L 163.999716 111.773753 
L 164.326989 114.315421 
L 164.654261 114.651964 
L 164.981534 113.95065 
L 165.308807 111.565328 
L 165.63608 113.268465 
L 165.963352 113.723887 
L 166.290625 116.218163 
L 166.617898 116.482947 
L 167.272443 116.223465 
L 167.599716 115.955427 
L 168.254261 116.043666 
L 168.581534 115.516151 
L 168.908807 115.237095 
L 169.23608 115.526654 
L 169.563352 116.500384 
L 169.890625 115.701997 
L 170.217898 115.514227 
L 170.54517 116.566719 
L 171.199716 113.033838 
L 171.526989 117.386173 
L 171.854261 115.030196 
L 172.181534 116.114283 
L 172.83608 116.685988 
L 173.163352 116.285479 
L 173.490625 116.383238 
L 173.817898 117.809727 
L 174.14517 116.247651 
L 174.799716 117.118397 
L 175.126989 116.978864 
L 175.454261 116.266156 
L 175.781534 116.828591 
L 176.108807 115.704825 
L 176.43608 117.848933 
L 176.763352 117.516695 
L 177.090625 118.217987 
L 177.417898 117.790735 
L 177.74517 117.613888 
L 178.072443 117.925882 
L 178.399716 116.471722 
L 178.726989 116.633613 
L 179.054261 116.587235 
L 179.381534 118.686857 
L 179.708807 117.391465 
L 180.03608 116.579879 
L 180.363352 116.951022 
L 180.690625 118.058637 
L 181.34517 116.99867 
L 181.672443 118.228131 
L 181.999716 118.162169 
L 182.326989 117.314565 
L 182.654261 117.584009 
L 182.981534 116.539411 
L 183.308807 116.131323 
L 183.63608 116.251882 
L 184.290625 118.780418 
L 184.617898 117.675981 
L 184.94517 117.951128 
L 185.272443 117.44087 
L 185.599716 118.886704 
L 185.926989 119.55603 
L 186.581534 118.79163 
L 187.23608 118.79812 
L 187.563352 117.778909 
L 188.217898 119.614259 
L 188.54517 119.138963 
L 188.872443 117.891263 
L 189.199716 118.490706 
L 189.854261 118.425521 
L 190.181534 118.760239 
L 190.508807 117.305008 
L 190.83608 116.889487 
L 191.163352 118.018663 
L 191.490625 117.121134 
L 191.817898 117.851503 
L 192.14517 119.094316 
L 192.472443 118.676769 
L 192.799716 119.082107 
L 193.126989 118.623146 
L 193.454261 117.768881 
L 194.108807 118.825413 
L 194.43608 118.2673 
L 194.763352 119.092046 
L 195.090625 118.887891 
L 195.417898 118.195138 
L 195.74517 118.752301 
L 196.072443 118.149038 
L 196.399716 118.431451 
L 196.726989 119.302395 
L 197.381534 118.081396 
L 198.03608 120.398914 
L 198.363352 118.94 
L 198.690625 119.590047 
L 199.34517 118.686176 
L 199.672443 119.379729 
L 199.999716 119.397097 
L 200.326989 119.043407 
L 200.654261 119.561633 
L 201.308807 118.768141 
L 201.963352 118.335123 
L 202.617898 119.719201 
L 202.94517 119.506408 
L 203.272443 120.306386 
L 203.599716 119.454758 
L 203.926989 119.946772 
L 204.254261 119.823493 
L 204.581534 120.35784 
L 205.23608 120.023433 
L 205.563352 121.096725 
L 205.890625 120.173311 
L 206.217898 119.595591 
L 206.54517 119.661148 
L 206.872443 120.087533 
L 207.199716 119.862036 
L 207.526989 120.239391 
L 207.854261 120.83174 
L 208.181534 119.818343 
L 208.508807 119.496576 
L 208.83608 120.018282 
L 209.163352 119.449078 
L 209.490625 119.43946 
L 209.817898 121.084304 
L 210.14517 120.896631 
L 210.472443 119.88671 
L 210.799716 121.115615 
L 211.126989 121.079473 
L 211.454261 120.582263 
L 211.781534 121.267944 
L 212.108807 118.883221 
L 212.43608 119.745675 
L 212.763352 121.08311 
L 213.090625 120.034706 
L 213.417898 120.5562 
L 213.74517 120.845277 
L 214.072443 120.157877 
L 214.399716 121.521667 
L 215.054261 121.102262 
L 215.381534 120.238156 
L 215.708807 121.339193 
L 216.03608 120.199512 
L 216.363352 121.283286 
L 216.690625 121.328363 
L 217.017898 121.090805 
L 218.326989 121.636812 
L 218.654261 121.077947 
L 218.981534 121.476202 
L 219.308807 121.201237 
L 219.63608 121.400379 
L 220.290625 122.001312 
L 220.617898 122.243346 
L 220.94517 121.400922 
L 221.272443 121.35934 
L 221.599716 121.848311 
L 222.254261 122.28045 
L 222.581534 122.622874 
L 222.908807 122.336203 
L 223.23608 121.806722 
L 223.563352 122.501442 
L 224.54517 122.077469 
L 224.872443 122.280026 
L 225.199716 122.860493 
L 225.854261 122.665896 
L 226.181534 122.895017 
L 226.508807 122.338507 
L 227.163352 122.451576 
L 227.817898 121.707988 
L 228.14517 122.859794 
L 228.472443 122.667835 
L 229.126989 123.603367 
L 229.781534 122.382557 
L 230.108807 122.72702 
L 230.43608 123.601962 
L 230.763352 123.963273 
L 231.090625 123.736112 
L 231.417898 123.857175 
L 231.74517 122.995332 
L 232.072443 123.003966 
L 232.399716 123.310766 
L 232.726989 122.64072 
L 233.381534 124.149156 
L 234.03608 124.441286 
L 234.363352 123.90084 
L 234.690625 124.299631 
L 235.017898 124.292514 
L 235.34517 124.465209 
L 235.999716 124.244183 
L 236.326989 124.511954 
L 236.654261 123.637802 
L 236.981534 124.307783 
L 237.63608 124.127827 
L 237.963352 123.726083 
L 238.617898 123.724214 
L 238.94517 124.74 
L 239.272443 124.949683 
L 239.599716 123.838682 
L 239.926989 123.885097 
L 240.254261 124.16535 
L 240.581534 124.699011 
L 240.908807 124.508582 
L 241.23608 125.245366 
L 241.890625 124.571209 
L 242.217898 125.131734 
L 242.54517 125.363722 
L 243.199716 125.050739 
L 243.526989 125.055236 
L 243.854261 125.719419 
L 244.181534 125.032975 
L 244.508807 125.356857 
L 244.83608 124.376778 
L 245.163352 125.585305 
L 245.490625 125.55837 
L 245.817898 126.362388 
L 246.14517 125.94994 
L 246.472443 126.090182 
L 246.799716 125.831119 
L 247.781534 125.499097 
L 248.108807 125.888574 
L 248.43608 125.332861 
L 248.763352 125.287222 
L 249.090625 125.851303 
L 249.417898 124.967126 
L 250.072443 124.594401 
L 250.399716 125.561248 
L 250.726989 125.775176 
L 251.054261 125.727656 
L 251.381534 125.336836 
L 251.708807 125.301675 
L 252.03608 125.451579 
L 252.690625 124.365278 
L 253.017898 125.077519 
L 253.34517 124.378871 
L 253.672443 125.538634 
L 253.999716 125.434654 
L 254.981534 126.135326 
L 255.308807 125.767461 
L 255.63608 125.845781 
L 256.617898 125.635223 
L 256.94517 125.766875 
L 257.272443 125.191649 
L 257.599716 125.427896 
L 257.926989 125.349871 
L 258.254261 125.789513 
L 258.581534 125.161249 
L 259.23608 125.094227 
L 259.563352 124.689431 
L 259.890625 125.550149 
L 260.217898 124.966956 
L 260.54517 125.69994 
L 260.872443 125.228714 
L 261.199716 125.309919 
L 261.526989 125.213436 
L 261.854261 125.708024 
L 262.181534 125.588056 
L 262.508807 125.288172 
L 262.83608 126.054596 
L 263.163352 125.552537 
L 263.490625 125.544268 
L 263.817898 126.226752 
L 264.14517 125.488179 
L 264.799716 126.171901 
L 265.126989 125.513511 
L 265.454261 125.794149 
L 265.781534 125.658881 
L 266.108807 126.502453 
L 266.43608 126.525528 
L 266.763352 126.031675 
L 267.090625 126.090373 
L 267.417898 125.781718 
L 267.74517 125.779334 
L 268.072443 125.889086 
L 269.054261 126.961614 
L 269.381534 126.142468 
L 270.03608 126.914565 
L 270.363352 126.207148 
L 271.017898 126.59136 
L 271.34517 126.02833 
L 271.999716 126.177766 
L 272.326989 125.841597 
L 272.654261 125.92563 
L 272.981534 125.752012 
L 273.308807 126.261588 
L 273.63608 126.077602 
L 273.963352 126.604134 
L 274.290625 126.23771 
L 274.617898 126.861873 
L 274.94517 126.203507 
L 275.272443 126.376087 
L 275.926989 127.224808 
L 276.254261 126.901074 
L 276.581534 126.415117 
L 276.908807 126.696078 
L 277.23608 127.224358 
L 277.890625 126.999313 
L 278.217898 127.609103 
L 278.54517 127.060794 
L 278.872443 127.279437 
L 279.199716 127.929773 
L 279.526989 127.681504 
L 279.854261 126.765478 
L 280.181534 127.210413 
L 280.508807 128.074752 
L 280.83608 127.983863 
L 281.490625 127.600631 
L 281.817898 127.585221 
L 282.14517 127.371201 
L 282.472443 128.154938 
L 283.454261 127.58216 
L 284.43608 128.134644 
L 284.763352 127.549762 
L 285.090625 128.180398 
L 285.417898 128.32243 
L 285.74517 128.220869 
L 286.072443 127.773186 
L 286.399716 128.274126 
L 286.726989 128.375967 
L 287.708807 128.272506 
L 288.363352 127.626651 
L 288.690625 127.882218 
L 289.017898 128.622262 
L 289.34517 128.624273 
L 289.672443 128.380195 
L 290.654261 127.226119 
L 290.981534 127.475618 
L 291.308807 127.335648 
L 291.63608 127.884496 
L 292.290625 128.029227 
L 292.617898 127.075883 
L 292.94517 127.338533 
L 293.272443 128.281584 
L 293.599716 128.207444 
L 293.926989 127.372999 
L 294.254261 127.572064 
L 294.581534 127.077766 
L 295.23608 128.311318 
L 295.563352 128.307992 
L 296.217898 127.580508 
L 296.54517 126.764973 
L 296.872443 127.734314 
L 297.199716 126.768116 
L 297.526989 126.896653 
L 297.854261 126.813981 
L 298.181534 127.304233 
L 298.508807 127.431338 
L 298.83608 126.937992 
L 299.163352 126.795393 
L 299.490625 127.407002 
L 300.14517 127.013732 
L 300.472443 127.122365 
L 300.799716 128.153388 
L 301.126989 126.857992 
L 301.454261 127.826451 
L 301.781534 127.222345 
L 302.108807 127.428328 
L 302.43608 126.994658 
L 302.763352 127.659318 
L 303.090625 126.673171 
L 303.417898 127.574447 
L 303.74517 127.432291 
L 304.072443 128.323104 
L 304.399716 128.007326 
L 304.726989 127.952391 
L 305.054261 127.181402 
L 305.381534 128.105599 
L 305.708807 127.729914 
L 306.03608 128.242449 
L 306.363352 128.175044 
L 306.690625 127.805558 
L 307.017898 128.141651 
L 307.34517 128.10651 
L 307.672443 128.312509 
L 307.999716 127.661634 
L 308.654261 128.423643 
L 308.981534 128.112519 
L 309.308807 128.424213 
L 309.963352 128.212217 
L 310.290625 128.250398 
L 310.617898 127.226366 
L 310.94517 127.538592 
L 311.272443 128.460846 
L 311.599716 128.842332 
L 311.926989 128.382478 
L 312.254261 128.311378 
L 312.581534 129.098682 
L 313.23608 128.93048 
L 313.890625 129.345805 
L 314.217898 129.571246 
L 314.54517 129.133117 
L 314.872443 128.924347 
L 315.199716 129.6165 
L 315.854261 128.979247 
L 316.181534 129.156974 
L 316.508807 128.539898 
L 317.163352 129.568516 
L 317.490625 128.962134 
L 317.817898 128.878142 
L 318.14517 129.052093 
L 318.472443 128.657464 
L 318.799716 128.693572 
L 319.126989 129.237439 
L 319.454261 129.440119 
L 319.781534 128.315439 
L 320.108807 129.084725 
L 320.43608 129.259416 
L 320.763352 129.020508 
L 321.74517 129.65396 
L 322.072443 129.759707 
L 322.399716 129.736929 
L 322.726989 129.989611 
L 323.054261 130.095301 
L 324.03608 129.332092 
L 324.363352 129.546395 
L 324.690625 129.575164 
L 325.017898 129.787767 
L 325.34517 129.783134 
L 325.999716 130.133199 
L 326.654261 129.863755 
L 326.981534 130.226971 
L 327.308807 129.521859 
L 327.63608 129.919794 
L 327.963352 129.266993 
L 328.290625 130.362737 
L 328.617898 129.671953 
L 328.94517 130.100109 
L 329.272443 130.124111 
L 329.599716 130.386335 
L 329.926989 130.077366 
L 330.254261 130.468662 
L 330.581534 130.247035 
L 330.908807 130.502511 
L 331.23608 129.622565 
L 331.563352 130.044121 
L 331.890625 129.637852 
L 332.217898 129.852127 
L 332.54517 129.820835 
L 332.872443 130.095071 
L 333.199716 129.915606 
L 333.526989 130.056417 
L 334.508807 129.462623 
L 334.83608 129.722866 
L 335.163352 129.678706 
L 335.490625 129.344987 
L 335.817898 129.697922 
L 336.14517 129.556763 
L 336.472443 129.590645 
L 336.799716 129.844723 
L 337.126989 129.945158 
L 337.454261 129.664395 
L 337.781534 130.114712 
L 338.108807 129.91082 
L 338.43608 130.040111 
L 338.763352 129.634323 
L 339.090625 130.2478 
L 339.417898 129.693251 
L 339.74517 129.574529 
L 340.072443 128.501651 
L 340.399716 129.833853 
L 340.726989 129.795103 
L 341.708807 130.259546 
L 342.03608 129.709199 
L 342.363352 130.61436 
L 342.690625 129.822597 
L 343.017898 130.118296 
L 343.34517 129.588654 
L 343.672443 130.485866 
L 343.999716 129.886924 
L 344.981534 130.319328 
L 345.308807 129.869323 
L 345.63608 130.428421 
L 346.290625 129.777697 
L 346.617898 130.069704 
L 346.94517 129.903047 
L 347.272443 130.419247 
L 347.599716 130.241578 
L 347.926989 130.275795 
L 348.254261 130.005742 
L 348.581534 129.965241 
L 349.563352 130.486054 
L 349.890625 130.162824 
L 350.217898 130.53959 
L 350.54517 130.735584 
L 350.872443 130.176004 
L 351.526989 130.229223 
L 351.854261 130.476132 
L 352.181534 130.424463 
L 352.508807 129.924593 
L 353.163352 130.363919 
L 353.817898 130.355589 
L 354.14517 130.739932 
L 354.472443 130.694598 
L 354.799716 130.334052 
L 355.126989 129.444201 
L 356.108807 130.348248 
L 356.43608 130.020741 
L 356.763352 129.961073 
L 357.090625 130.082845 
L 357.417898 130.397618 
L 357.74517 129.982875 
L 358.072443 130.561671 
L 358.399716 130.213164 
L 358.726989 130.604929 
L 359.054261 131.294337 
L 359.381534 130.740751 
L 359.708807 130.589133 
L 360.03608 130.822809 
L 360.363352 130.283417 
L 360.690625 130.68735 
L 361.017898 130.50424 
L 361.34517 129.904625 
L 361.672443 130.646921 
L 362.326989 129.985194 
L 362.654261 129.977035 
L 362.981534 130.223887 
L 363.308807 130.193264 
L 363.63608 129.997993 
L 363.963352 130.135833 
L 364.290625 130.397035 
L 364.94517 130.167881 
L 365.599716 130.305398 
L 365.926989 130.505332 
L 366.254261 130.181581 
L 366.581534 130.489115 
L 367.23608 130.091959 
L 367.563352 129.265459 
L 367.890625 129.368122 
L 368.217898 129.748727 
L 368.54517 129.728249 
L 368.872443 129.272479 
L 369.199716 129.345508 
L 369.526989 129.594932 
L 369.854261 129.031852 
L 370.508807 130.163698 
L 370.83608 130.015808 
L 371.163352 130.398374 
L 371.490625 130.497082 
L 371.817898 130.284284 
L 372.14517 129.895821 
L 372.472443 129.95164 
L 372.799716 130.228593 
L 373.126989 129.924436 
L 373.454261 129.945637 
L 373.781534 129.703161 
L 374.108807 129.928617 
L 374.43608 129.874596 
L 374.763352 129.065751 
L 375.090625 129.610412 
L 375.417898 129.641082 
L 375.74517 130.025137 
L 376.072443 129.282538 
L 376.399716 129.887531 
L 376.726989 129.134435 
L 377.054261 129.5941 
L 377.381534 129.310474 
L 377.708807 129.619078 
L 378.363352 129.876 
L 379.017898 129.413999 
L 379.34517 129.846728 
L 379.672443 129.839309 
L 379.999716 129.532719 
L 380.326989 129.929045 
L 380.654261 129.81411 
L 380.981534 129.001903 
L 381.63608 129.802867 
L 381.963352 129.036354 
L 382.290625 129.566592 
L 382.617898 128.963836 
L 382.94517 129.210057 
L 383.272443 129.202111 
L 383.599716 128.938855 
L 383.926989 128.992754 
L 384.254261 129.552311 
L 384.581534 129.595012 
L 384.908807 129.500006 
L 385.23608 129.81267 
L 385.563352 129.091221 
L 385.890625 129.534045 
L 386.217898 129.779661 
L 386.54517 129.192974 
L 386.872443 129.568089 
L 387.199716 129.663963 
L 387.526989 129.337801 
L 387.854261 129.403436 
L 388.181534 129.2691 
L 388.508807 129.505534 
L 389.163352 129.271972 
L 389.490625 128.770547 
L 389.817898 129.282876 
L 390.14517 128.817693 
L 390.472443 129.648637 
L 391.126989 129.777384 
L 391.454261 129.827788 
L 391.781534 129.643045 
L 392.108807 129.849396 
L 392.43608 129.708486 
L 392.763352 129.771251 
L 393.090625 129.565484 
L 393.417898 130.118856 
L 393.74517 130.012593 
L 394.072443 129.504526 
L 394.399716 129.831151 
L 394.726989 130.334078 
L 395.054261 129.457748 
L 395.381534 129.939677 
L 395.708807 129.908597 
L 396.03608 129.673478 
L 396.363352 129.825302 
L 396.690625 129.424542 
L 397.017898 130.086837 
L 397.34517 129.326513 
L 397.672443 129.394737 
L 398.326989 130.025031 
L 398.654261 129.457657 
L 398.981534 129.465405 
L 399.308807 128.855817 
L 399.963352 129.675592 
L 400.290625 129.273101 
L 400.617898 129.699137 
L 401.599716 129.275913 
L 401.926989 129.060016 
L 402.254261 129.018594 
L 402.581534 129.602737 
L 402.908807 129.918736 
L 403.23608 129.743232 
L 403.563352 129.039499 
L 403.890625 129.410146 
L 404.217898 129.372393 
L 404.54517 129.181139 
L 404.872443 129.177771 
L 405.199716 129.014223 
L 405.526989 129.492857 
L 405.854261 128.96327 
L 406.181534 129.274704 
L 406.83608 129.293524 
L 407.163352 129.699108 
L 407.490625 129.333775 
L 407.817898 129.364506 
L 408.14517 129.227237 
L 408.799716 129.937171 
L 409.126989 129.694828 
L 409.454261 130.339109 
L 409.781534 130.202544 
L 410.108807 129.356784 
L 410.43608 130.455383 
L 411.090625 128.905974 
L 411.417898 129.542912 
L 411.74517 129.139699 
L 412.072443 129.622053 
L 412.399716 129.102166 
L 412.726989 129.624722 
L 413.054261 129.29776 
L 413.381534 129.665699 
L 413.708807 129.234349 
L 414.363352 129.9291 
L 415.017898 129.623833 
L 415.672443 129.901507 
L 415.999716 129.783073 
L 416.654261 130.009547 
L 416.981534 129.779832 
L 417.308807 129.397797 
L 417.63608 129.898398 
L 418.290625 129.799989 
L 418.617898 130.19684 
L 418.94517 129.902221 
L 419.272443 130.106436 
L 419.599716 129.724585 
L 420.254261 130.254489 
L 420.581534 129.517266 
L 420.908807 130.249029 
L 421.23608 129.543914 
L 421.563352 129.596553 
L 421.890625 129.270234 
L 422.54517 129.248627 
L 423.199716 129.526264 
L 423.854261 129.563824 
L 424.181534 129.311416 
L 424.83608 129.2001 
L 425.163352 129.41512 
L 425.490625 130.050375 
L 425.817898 129.880463 
L 426.472443 129.140209 
L 426.799716 129.622756 
L 427.126989 129.33362 
L 427.454261 129.694871 
L 427.781534 128.930139 
L 428.108807 129.217149 
L 428.763352 129.404956 
L 429.090625 129.136685 
L 429.417898 130.160433 
L 429.74517 129.430545 
L 430.072443 129.717037 
L 430.399716 129.120133 
L 430.726989 129.5394 
L 431.381534 129.265994 
L 431.708807 129.492653 
L 432.03608 130.105262 
L 432.363352 128.873867 
L 433.017898 129.19581 
L 433.34517 128.567282 
L 433.672443 129.009785 
L 433.999716 128.841077 
L 434.326989 129.666749 
L 434.654261 129.075663 
L 434.981534 129.469776 
L 435.308807 129.376064 
L 435.63608 129.002378 
L 435.963352 129.031508 
L 436.617898 128.839035 
L 436.94517 128.245778 
L 437.272443 128.814183 
L 437.599716 128.826568 
L 437.926989 128.56749 
L 438.254261 128.927847 
L 438.581534 129.097931 
L 438.908807 128.994362 
L 439.23608 129.273158 
L 439.563352 128.838646 
L 439.890625 128.999002 
L 440.217898 128.377869 
L 440.54517 128.440455 
L 440.872443 129.010179 
L 441.199716 128.580631 
L 441.526989 129.050767 
L 441.854261 128.845646 
L 442.181534 129.086807 
L 442.83608 129.15741 
L 443.163352 129.5106 
L 443.490625 128.575541 
L 444.14517 128.760225 
L 444.472443 129.086237 
L 445.126989 128.731246 
L 445.781534 129.323534 
L 446.108807 128.882291 
L 446.43608 129.199844 
L 446.763352 129.260641 
L 447.090625 129.715386 
L 447.417898 129.606151 
L 447.74517 129.301528 
L 448.072443 129.802307 
L 448.399716 129.950324 
L 448.726989 129.699864 
L 449.054261 129.874097 
L 449.381534 129.799927 
L 449.708807 130.122401 
L 450.03608 130.100335 
L 450.363352 129.822963 
L 451.34517 129.595272 
L 451.672443 129.9061 
L 452.326989 130.102403 
L 452.654261 129.877028 
L 452.981534 129.822044 
L 453.308807 130.242333 
L 453.63608 129.830423 
L 454.290625 129.706848 
L 454.617898 130.056645 
L 455.272443 129.658311 
L 455.599716 129.922129 
L 455.926989 129.511503 
L 456.254261 129.799767 
L 456.908807 129.697311 
L 457.23608 129.698124 
L 457.563352 130.046745 
L 457.890625 129.713902 
L 458.217898 129.811349 
L 458.54517 130.063575 
L 458.872443 129.193286 
L 459.199716 129.724635 
L 459.526989 129.657031 
L 459.854261 129.248464 
L 460.181534 129.568345 
L 460.508807 129.219842 
L 460.83608 129.909134 
L 461.163352 129.257718 
L 461.490625 129.274771 
L 461.817898 129.128446 
L 462.14517 129.49554 
L 462.472443 129.473543 
L 462.799716 129.575969 
L 463.454261 129.300355 
L 463.781534 129.008837 
L 464.108807 128.870192 
L 464.763352 129.004234 
L 465.090625 128.737137 
L 465.417898 129.50202 
L 465.74517 129.2725 
L 466.072443 129.694257 
L 466.726989 129.29811 
L 467.054261 129.580447 
L 467.381534 129.122254 
L 467.708807 129.78399 
L 468.03608 129.300112 
L 468.363352 129.313821 
L 468.690625 128.890595 
L 469.017898 129.019493 
L 469.34517 129.438576 
L 469.672443 129.237903 
L 469.999716 129.726783 
L 470.326989 128.955365 
L 470.654261 129.385717 
L 470.981534 129.172345 
L 471.308807 129.462424 
L 471.963352 128.807651 
L 472.290625 129.433521 
L 472.617898 129.657752 
L 472.94517 129.521103 
L 473.272443 129.649701 
L 473.599716 130.221773 
L 474.254261 129.944898 
L 474.581534 129.565189 
L 474.908807 129.363485 
L 475.23608 129.732546 
L 475.563352 129.706345 
L 475.890625 130.18155 
L 476.217898 129.130463 
L 476.54517 129.499494 
L 477.199716 129.123866 
L 477.526989 129.637462 
L 477.854261 129.442032 
L 478.181534 129.511014 
L 478.83608 129.058644 
L 479.163352 129.60906 
L 479.817898 129.497795 
L 480.14517 129.797556 
L 480.472443 129.384087 
L 480.799716 129.356319 
L 481.126989 129.781112 
L 482.108807 129.27109 
L 482.763352 128.989895 
L 483.417898 129.062661 
L 483.74517 128.85382 
L 484.072443 129.446803 
L 484.399716 128.935977 
L 484.726989 129.123099 
L 485.054261 129.496972 
L 485.381534 129.571477 
L 485.708807 129.448486 
L 486.03608 129.524786 
L 486.363352 129.226414 
L 486.690625 129.211072 
L 487.017898 128.875025 
L 487.672443 128.952538 
L 487.999716 129.462962 
L 488.654261 128.496338 
L 488.981534 129.54042 
L 489.63608 128.991579 
L 489.963352 129.523479 
L 490.290625 129.606585 
L 490.617898 129.064465 
L 491.272443 129.514023 
L 491.599716 129.579943 
L 491.926989 129.492179 
L 492.254261 129.261606 
L 492.581534 129.510614 
L 492.908807 129.445875 
L 493.23608 129.803308 
L 493.563352 129.184501 
L 493.890625 129.379273 
L 494.217898 129.355883 
L 494.54517 129.889387 
L 494.872443 129.523718 
L 495.199716 129.38543 
L 495.854261 129.336524 
L 496.181534 129.622795 
L 496.508807 129.359805 
L 496.83608 129.582036 
L 497.163352 129.511781 
L 497.490625 129.21919 
L 497.817898 129.682594 
L 498.14517 129.575525 
L 498.472443 129.732211 
L 498.799716 129.452428 
L 499.126989 129.57343 
L 499.454261 129.343953 
L 500.108807 129.836596 
L 500.43608 129.896478 
L 501.090625 129.396517 
L 501.417898 129.840954 
L 501.74517 129.315289 
L 502.072443 129.479751 
L 502.399716 129.788044 
L 502.726989 129.379115 
L 503.054261 129.464909 
L 503.381534 129.72964 
L 503.708807 129.020022 
L 504.03608 129.199585 
L 504.690625 129.304889 
L 505.017898 129.139614 
L 505.34517 129.280327 
L 505.672443 128.851629 
L 505.999716 129.392385 
L 506.326989 129.306136 
L 506.654261 129.432736 
L 506.981534 129.292222 
L 507.308807 129.882478 
L 507.963352 129.442961 
L 508.290625 129.709876 
L 508.94517 129.479887 
L 509.272443 129.937817 
L 509.599716 129.6404 
L 509.926989 129.128633 
L 510.254261 129.435908 
L 510.581534 129.31177 
L 510.908807 128.821428 
L 511.23608 129.516342 
L 511.563352 129.079846 
L 511.890625 129.725581 
L 512.217898 129.960516 
L 512.54517 129.695112 
L 512.872443 129.865406 
L 513.526989 129.467901 
L 513.854261 129.835513 
L 514.181534 129.45184 
L 515.163352 129.868273 
L 515.490625 129.624646 
L 515.817898 130.040334 
L 516.472443 130.172623 
L 516.799716 129.724317 
L 517.126989 129.865639 
L 517.454261 130.188866 
L 517.781534 129.740526 
L 518.108807 129.6303 
L 518.43608 130.437957 
L 519.090625 129.984182 
L 519.417898 130.249862 
L 520.072443 129.815413 
L 520.726989 129.99769 
L 521.054261 129.801395 
L 521.381534 129.998155 
L 521.708807 129.816605 
L 522.03608 129.828816 
L 522.363352 129.967745 
L 522.690625 129.530592 
L 523.017898 129.760931 
L 523.34517 129.556921 
L 523.672443 130.348207 
L 523.999716 130.70572 
L 524.326989 129.450114 
L 524.654261 129.926243 
L 524.981534 129.676824 
L 525.308807 129.984201 
L 525.63608 129.713325 
L 525.963352 130.18868 
L 526.290625 130.127643 
L 526.617898 129.717947 
L 526.94517 129.963325 
L 527.272443 129.994539 
L 527.599716 129.875418 
L 527.926989 129.925317 
L 528.254261 130.363943 
L 528.908807 129.751468 
L 529.23608 129.893227 
L 529.890625 129.748545 
L 530.217898 129.946448 
L 530.54517 129.83901 
L 530.872443 129.419426 
L 531.199716 129.424183 
L 531.526989 130.136087 
L 531.854261 129.759768 
L 532.181534 130.017333 
L 532.508807 129.576246 
L 532.83608 129.96932 
L 533.163352 129.440286 
L 533.490625 129.690048 
L 533.817898 130.100448 
L 534.14517 129.791428 
L 534.472443 129.967481 
L 534.799716 129.94543 
L 535.454261 130.352642 
L 536.108807 129.894532 
L 536.43608 130.272412 
L 536.763352 130.359727 
L 537.090625 130.290731 
L 537.417898 130.448816 
L 537.74517 130.069052 
L 538.399716 130.289215 
L 538.726989 130.070962 
L 539.054261 130.242757 
L 539.381534 130.058044 
L 539.708807 130.358225 
L 540.03608 129.982377 
L 540.690625 130.052075 
L 541.34517 129.500457 
L 541.672443 130.502013 
L 541.999716 129.99777 
L 542.654261 129.66346 
L 542.981534 129.654681 
L 543.308807 129.876855 
L 543.963352 130.056785 
L 544.290625 129.903017 
L 544.617898 129.989356 
L 544.94517 129.72271 
L 545.272443 130.420184 
L 545.599716 130.168323 
L 545.926989 130.513852 
L 546.254261 129.931979 
L 546.581534 130.543259 
L 546.908807 130.324122 
L 547.23608 130.274369 
L 547.563352 129.716758 
L 547.890625 129.947767 
L 548.54517 129.907772 
L 548.872443 130.187832 
L 549.526989 130.009947 
L 549.854261 129.959176 
L 550.181534 130.128845 
L 551.490625 129.855749 
L 551.817898 129.953296 
L 552.14517 129.875475 
L 552.472443 130.23878 
L 553.126989 129.929678 
L 553.781534 130.216301 
L 554.108807 130.51656 
L 554.43608 130.115561 
L 554.763352 129.944862 
L 555.090625 130.249304 
L 555.417898 130.062954 
L 556.072443 130.15239 
L 556.399716 130.516736 
L 557.054261 130.374908 
L 557.381534 130.604817 
L 557.708807 130.479651 
L 558.03608 130.810025 
L 558.363352 130.310741 
L 558.690625 130.799782 
L 559.017898 130.849729 
L 559.34517 130.317247 
L 559.999716 130.516741 
L 560.326989 130.275585 
L 560.654261 130.291907 
L 561.308807 129.935586 
L 561.63608 129.705002 
L 561.963352 129.968654 
L 562.290625 129.900032 
L 562.617898 130.111113 
L 562.94517 129.865407 
L 563.272443 129.931219 
L 563.599716 130.139007 
L 563.926989 129.856051 
L 564.254261 129.903933 
L 564.581534 130.170677 
L 565.23608 129.593155 
L 565.563352 130.266506 
L 565.890625 129.906515 
L 566.217898 130.225397 
L 566.54517 129.840535 
L 566.872443 130.07707 
L 567.199716 130.139934 
L 567.526989 129.53315 
L 567.854261 129.581369 
L 568.181534 130.091385 
L 568.83608 130.39865 
L 569.163352 130.281634 
L 569.490625 130.462478 
L 570.14517 129.882831 
L 570.472443 130.29118 
L 570.799716 130.192206 
L 571.126989 129.954249 
L 571.781534 130.526409 
L 572.43608 130.024417 
L 572.763352 130.510948 
L 573.417898 130.575007 
L 573.74517 130.507783 
L 574.072443 130.24699 
L 574.399716 130.265493 
L 574.726989 130.477993 
L 575.054261 130.378056 
L 575.381534 130.138071 
L 576.690625 130.183653 
L 577.017898 129.371924 
L 577.34517 129.37723 
L 577.672443 129.238581 
L 577.999716 129.848817 
L 578.326989 129.320916 
L 578.981534 130.346846 
L 579.308807 129.741806 
L 579.63608 129.747333 
L 579.963352 129.569302 
L 580.290625 129.976657 
L 580.617898 129.580482 
L 581.272443 129.630947 
L 581.599716 129.124811 
L 581.926989 129.749459 
L 582.254261 129.352507 
L 582.908807 129.435989 
L 583.23608 129.645588 
L 583.563352 129.217707 
L 583.890625 129.459766 
L 584.217898 129.325309 
L 584.54517 129.507689 
L 584.872443 129.505483 
L 585.199716 129.650807 
L 585.526989 129.1473 
L 585.854261 129.414349 
L 586.181534 129.233745 
L 586.508807 129.62114 
L 586.83608 129.205077 
L 587.163352 129.964109 
L 587.490625 129.676834 
L 587.817898 129.994424 
L 588.799716 129.971718 
L 589.126989 129.643 
L 589.454261 130.14189 
L 589.781534 129.28967 
L 590.43608 130.194342 
L 591.090625 129.370981 
L 591.74517 129.687996 
L 592.072443 130.315318 
L 592.399716 129.993432 
L 592.726989 129.973416 
L 593.054261 129.345928 
L 593.381534 129.826678 
L 593.708807 129.918547 
L 594.03608 129.735927 
L 594.363352 129.950543 
L 594.690625 129.775137 
L 595.017898 130.138228 
L 595.672443 129.993206 
L 595.999716 130.037026 
L 596.326989 129.676673 
L 596.654261 130.012923 
L 596.981534 129.968165 
L 597.308807 129.519359 
L 597.63608 129.442734 
L 598.290625 129.888315 
L 598.617898 129.246611 
L 598.94517 129.463434 
L 599.272443 129.42309 
L 599.599716 129.937439 
L 600.254261 129.920235 
L 600.581534 129.509941 
L 600.908807 130.006985 
L 601.23608 129.643469 
L 602.217898 130.196112 
L 602.54517 129.685273 
L 603.199716 129.976608 
L 603.526989 129.464967 
L 603.854261 129.737233 
L 604.508807 129.861719 
L 604.83608 129.664028 
L 605.163352 129.754975 
L 605.490625 130.041056 
L 605.817898 129.646011 
L 606.14517 129.957329 
L 606.472443 129.916543 
L 607.126989 130.125487 
L 607.454261 129.865277 
L 607.781534 130.002475 
L 608.108807 129.894204 
L 608.43608 129.492841 
L 608.763352 129.431343 
L 609.090625 129.667043 
L 609.417898 129.670024 
L 609.74517 129.328093 
L 610.072443 129.688982 
L 610.399716 129.687974 
L 610.726989 129.538604 
L 611.054261 129.769798 
L 611.381534 129.761666 
L 611.708807 129.990004 
L 612.03608 129.401124 
L 612.363352 129.86412 
L 613.34517 129.446086 
L 613.672443 129.67754 
L 613.999716 130.070999 
L 614.326989 129.786346 
L 614.654261 129.698637 
L 614.981534 129.402492 
L 615.308807 129.997671 
L 615.63608 129.620257 
L 615.963352 129.86406 
L 616.290625 129.941256 
L 616.617898 130.185578 
L 616.94517 130.015004 
L 617.272443 130.136425 
L 617.599716 129.805566 
L 617.926989 129.773396 
L 618.254261 129.910437 
L 618.581534 130.36057 
L 618.908807 130.060843 
L 619.23608 130.029431 
L 619.563352 129.837197 
L 619.890625 130.065819 
L 620.217898 130.138698 
L 620.872443 129.854661 
L 621.199716 129.901732 
L 621.526989 129.749885 
L 621.854261 130.04958 
L 622.181534 129.852055 
L 622.83608 129.75108 
L 623.163352 130.098498 
L 623.817898 130.327073 
L 624.14517 130.014289 
L 624.472443 129.992794 
L 624.799716 129.711087 
L 625.126989 130.504402 
L 625.126989 130.504402 
" clip-path="url(#pf1a03b783f)" style="fill: none; stroke: #1f77b4; stroke-width: 1.5; stroke-linecap: square"/>
   </g>
   <g id="line2d_16">
    <path d="M 117.854261 296.03625 
L 118.181534 245.888602 
L 118.508807 214.115786 
L 118.83608 230.211874 
L 119.163352 218.599268 
L 119.490625 201.279694 
L 119.817898 204.535087 
L 120.14517 177.439579 
L 120.472443 178.201539 
L 120.799716 178.387096 
L 121.126989 192.048813 
L 121.454261 174.811641 
L 121.781534 173.893449 
L 122.108807 172.251017 
L 122.43608 166.690114 
L 122.763352 165.151511 
L 123.090625 167.933912 
L 123.417898 161.328426 
L 123.74517 164.204354 
L 124.072443 153.408818 
L 124.399716 156.496962 
L 125.054261 141.56019 
L 125.381534 150.693481 
L 125.708807 143.469704 
L 126.03608 147.780062 
L 126.363352 149.479849 
L 126.690625 140.208749 
L 127.017898 138.160794 
L 127.34517 138.65618 
L 127.672443 140.776186 
L 127.999716 140.215124 
L 128.326989 138.391512 
L 128.654261 140.082936 
L 128.981534 140.228622 
L 129.63608 141.201404 
L 129.963352 139.392105 
L 130.290625 138.851676 
L 130.617898 139.384558 
L 130.94517 140.740816 
L 131.272443 142.600893 
L 131.599716 135.421926 
L 131.926989 138.496197 
L 132.254261 137.892038 
L 132.908807 136.234525 
L 133.23608 136.311622 
L 133.563352 135.915689 
L 133.890625 136.605064 
L 134.217898 134.887215 
L 134.54517 133.797282 
L 135.199716 135.471295 
L 135.526989 135.576047 
L 136.181534 136.853589 
L 136.508807 136.368541 
L 136.83608 134.730041 
L 137.163352 135.079856 
L 137.490625 134.857729 
L 137.817898 135.928269 
L 138.14517 135.902864 
L 138.472443 135.479767 
L 138.799716 136.290746 
L 139.454261 134.739593 
L 139.781534 134.136329 
L 140.108807 135.905185 
L 140.43608 134.292529 
L 140.763352 133.586184 
L 141.090625 134.703917 
L 141.417898 134.803726 
L 141.74517 133.847583 
L 142.072443 133.400648 
L 142.399716 134.508056 
L 142.726989 134.677574 
L 143.054261 133.207451 
L 143.381534 133.966004 
L 143.708807 133.320137 
L 144.03608 133.888563 
L 144.363352 133.800353 
L 144.690625 134.327242 
L 145.017898 133.302039 
L 145.34517 133.276394 
L 146.326989 133.938771 
L 146.654261 134.482109 
L 146.981534 133.800864 
L 147.308807 133.419586 
L 147.63608 133.970658 
L 148.290625 133.536974 
L 148.94517 132.734868 
L 149.272443 133.151006 
L 149.599716 133.268245 
L 149.926989 133.664162 
L 150.254261 132.938008 
L 150.581534 133.474141 
L 150.908807 133.107742 
L 151.23608 133.13171 
L 151.563352 133.333721 
L 151.890625 133.905861 
L 152.217898 133.8752 
L 152.54517 133.058296 
L 152.872443 132.906614 
L 153.199716 133.401837 
L 153.526989 132.611227 
L 154.181534 133.527885 
L 154.508807 132.677103 
L 154.83608 133.470667 
L 155.163352 133.101942 
L 155.490625 132.407692 
L 155.817898 132.923927 
L 156.472443 133.133008 
L 156.799716 132.127532 
L 157.126989 132.148788 
L 157.454261 132.723923 
L 157.781534 132.550499 
L 158.43608 132.725377 
L 158.763352 132.730674 
L 159.090625 132.97607 
L 159.74517 131.981124 
L 160.072443 132.270329 
L 160.399716 132.740458 
L 160.726989 132.811208 
L 161.054261 133.022354 
L 161.381534 132.379132 
L 161.708807 132.85824 
L 162.03608 132.55696 
L 162.363352 132.710993 
L 163.017898 132.46765 
L 163.672443 132.807079 
L 164.326989 132.440168 
L 164.654261 132.202275 
L 164.981534 132.521364 
L 165.308807 133.040405 
L 165.63608 132.525261 
L 165.963352 132.330627 
L 166.290625 131.793893 
L 166.617898 132.032172 
L 166.94517 131.869341 
L 167.272443 131.536319 
L 167.599716 131.891923 
L 167.926989 131.570927 
L 168.581534 132.442361 
L 168.908807 132.353453 
L 169.23608 131.994056 
L 169.563352 132.252207 
L 169.890625 132.03052 
L 170.217898 132.59314 
L 170.54517 132.12911 
L 170.872443 133.529531 
L 171.199716 132.898776 
L 171.526989 131.845893 
L 171.854261 132.623624 
L 172.181534 132.22945 
L 172.508807 132.143768 
L 172.83608 132.356335 
L 173.163352 131.998474 
L 173.490625 132.373811 
L 173.817898 132.069205 
L 174.14517 132.132424 
L 174.472443 132.017815 
L 174.799716 132.31129 
L 175.126989 132.154329 
L 175.454261 132.182232 
L 175.781534 132.54397 
L 176.108807 132.546299 
L 176.43608 132.055983 
L 176.763352 132.3148 
L 177.090625 131.939997 
L 177.74517 132.088832 
L 178.072443 132.0281 
L 178.399716 132.726062 
L 178.726989 132.686055 
L 179.054261 132.429676 
L 179.381534 131.888833 
L 179.708807 132.689105 
L 180.03608 131.980631 
L 180.690625 132.405713 
L 181.017898 132.911299 
L 181.34517 132.242697 
L 182.326989 133.309819 
L 182.654261 132.617213 
L 182.981534 132.793237 
L 183.308807 133.184172 
L 183.963352 132.476888 
L 184.617898 132.775752 
L 184.94517 132.19803 
L 185.272443 133.001959 
L 185.926989 132.281968 
L 186.254261 132.615187 
L 186.581534 132.264056 
L 186.908807 132.511456 
L 187.23608 132.562455 
L 187.563352 132.196387 
L 188.54517 132.625033 
L 189.526989 132.23886 
L 189.854261 132.926132 
L 190.181534 132.622763 
L 190.508807 132.725486 
L 190.83608 134.327361 
L 191.163352 131.88328 
L 191.490625 132.567378 
L 191.817898 132.624808 
L 192.14517 132.867478 
L 192.472443 132.078352 
L 192.799716 132.298725 
L 193.126989 132.375235 
L 193.454261 132.899031 
L 193.781534 132.299455 
L 194.43608 132.698965 
L 194.763352 132.749106 
L 195.090625 132.572047 
L 195.417898 132.735333 
L 195.74517 132.501331 
L 196.072443 132.445749 
L 196.399716 132.800844 
L 197.054261 132.528069 
L 197.381534 133.418649 
L 197.708807 132.304059 
L 198.03608 132.693067 
L 198.363352 132.084031 
L 198.690625 132.523896 
L 199.017898 132.600118 
L 199.672443 133.298588 
L 199.999716 132.386039 
L 200.654261 133.19902 
L 200.981534 132.739007 
L 201.308807 133.198867 
L 201.63608 132.736262 
L 201.963352 133.412287 
L 202.290625 132.808439 
L 202.617898 132.475197 
L 202.94517 132.640403 
L 203.272443 132.634424 
L 203.599716 133.023913 
L 203.926989 132.313796 
L 204.254261 133.014596 
L 204.908807 132.310629 
L 205.23608 132.751505 
L 205.563352 132.027011 
L 205.890625 132.637068 
L 206.217898 131.997341 
L 206.54517 132.65365 
L 207.199716 132.254952 
L 207.526989 133.166727 
L 207.854261 133.161044 
L 208.181534 132.868057 
L 208.83608 132.715886 
L 209.163352 133.313758 
L 209.490625 133.259094 
L 209.817898 132.374664 
L 210.14517 132.370019 
L 210.472443 133.122317 
L 211.126989 132.516071 
L 211.454261 132.596273 
L 211.781534 134.212614 
L 212.108807 132.868127 
L 212.763352 133.448304 
L 213.090625 132.497697 
L 213.417898 132.84084 
L 213.74517 132.998419 
L 214.399716 132.979176 
L 214.726989 133.124053 
L 215.054261 132.775361 
L 215.381534 133.26447 
L 215.708807 133.447651 
L 216.03608 132.831682 
L 216.363352 132.643544 
L 216.690625 132.71595 
L 217.017898 133.071013 
L 217.34517 133.205481 
L 217.999716 133.018732 
L 218.326989 133.177562 
L 218.654261 133.212742 
L 218.981534 133.070536 
L 219.308807 132.7111 
L 219.63608 132.619717 
L 220.290625 132.757311 
L 220.617898 132.287485 
L 220.94517 132.917935 
L 221.272443 132.7582 
L 221.599716 132.74229 
L 221.926989 133.203917 
L 222.254261 132.704265 
L 222.581534 132.688085 
L 222.908807 133.394741 
L 223.563352 132.715876 
L 223.890625 132.583073 
L 224.217898 133.363201 
L 224.54517 133.218542 
L 224.872443 133.327864 
L 225.526989 133.046398 
L 226.181534 132.391266 
L 226.508807 132.746404 
L 227.163352 132.579992 
L 227.490625 133.6675 
L 227.817898 133.153177 
L 228.14517 131.871708 
L 228.472443 132.866669 
L 229.126989 132.529901 
L 229.454261 131.081888 
L 229.781534 132.932414 
L 230.108807 132.085451 
L 230.43608 132.760385 
L 230.763352 132.146346 
L 231.090625 132.88974 
L 231.417898 132.563737 
L 231.74517 133.069097 
L 232.072443 133.365032 
L 232.399716 132.478084 
L 232.726989 132.902677 
L 233.054261 132.039826 
L 233.381534 132.423971 
L 233.708807 131.618577 
L 234.03608 132.19232 
L 234.363352 132.203069 
L 234.690625 132.514157 
L 235.017898 131.714142 
L 235.34517 131.917348 
L 235.672443 132.424369 
L 236.326989 132.100815 
L 236.981534 132.229428 
L 237.308807 132.13933 
L 237.63608 132.49344 
L 237.963352 132.105242 
L 238.290625 132.713502 
L 238.617898 132.33379 
L 238.94517 132.39439 
L 239.272443 132.209234 
L 239.599716 132.594199 
L 239.926989 132.673185 
L 240.254261 132.636544 
L 240.581534 132.045622 
L 240.908807 132.008696 
L 241.23608 132.296281 
L 241.563352 132.24379 
L 241.890625 132.629577 
L 242.217898 132.472327 
L 242.54517 132.670994 
L 242.872443 132.354122 
L 243.199716 132.323109 
L 243.526989 132.050248 
L 243.854261 132.447097 
L 244.181534 132.604512 
L 244.508807 132.27953 
L 244.83608 132.520756 
L 245.163352 132.360568 
L 245.490625 132.645127 
L 245.817898 132.133955 
L 246.14517 132.289025 
L 246.472443 132.21375 
L 246.799716 132.499823 
L 247.126989 132.318607 
L 247.454261 132.631839 
L 247.781534 132.517404 
L 248.108807 132.130841 
L 249.090625 132.7143 
L 249.417898 132.746425 
L 250.726989 132.34459 
L 251.054261 132.324889 
L 251.708807 132.673226 
L 252.03608 132.289639 
L 252.690625 132.640017 
L 253.017898 132.315031 
L 253.672443 132.864238 
L 254.326989 132.427692 
L 254.654261 132.489386 
L 254.981534 132.695802 
L 255.308807 132.442031 
L 255.63608 132.444117 
L 255.963352 132.791402 
L 256.290625 132.49101 
L 256.617898 132.756234 
L 256.94517 132.738034 
L 257.272443 133.154523 
L 257.599716 132.749366 
L 257.926989 132.783611 
L 258.254261 132.704427 
L 258.581534 132.845462 
L 259.23608 132.135485 
L 259.563352 132.562593 
L 261.199716 132.575102 
L 261.526989 132.82337 
L 261.854261 132.520394 
L 262.181534 132.787151 
L 262.508807 132.848905 
L 262.83608 132.732427 
L 263.490625 132.34149 
L 263.817898 132.569255 
L 264.14517 132.546035 
L 264.472443 132.382392 
L 264.799716 132.401055 
L 265.126989 132.942796 
L 265.454261 132.836618 
L 265.781534 132.045046 
L 266.108807 132.712118 
L 266.763352 132.370883 
L 267.74517 132.068622 
L 268.072443 132.852751 
L 268.399716 132.256039 
L 269.054261 132.592666 
L 269.381534 132.348413 
L 269.708807 132.303566 
L 270.03608 132.914314 
L 270.363352 132.387026 
L 270.690625 132.243224 
L 271.017898 132.85367 
L 271.999716 132.076505 
L 272.654261 132.539537 
L 272.981534 132.486669 
L 273.308807 132.644096 
L 274.290625 132.471121 
L 274.617898 132.113016 
L 274.94517 132.344418 
L 275.272443 132.339665 
L 275.926989 132.715247 
L 276.254261 133.01542 
L 276.581534 132.548661 
L 276.908807 132.326819 
L 277.23608 131.941895 
L 277.563352 132.629059 
L 277.890625 132.41616 
L 278.217898 132.777514 
L 278.54517 132.625445 
L 278.872443 132.205738 
L 279.199716 132.573852 
L 279.526989 132.351475 
L 279.854261 132.738733 
L 280.181534 132.609102 
L 280.508807 132.661179 
L 280.83608 132.248434 
L 281.163352 132.676072 
L 281.490625 132.574415 
L 281.817898 132.616665 
L 282.14517 132.074958 
L 282.472443 132.590863 
L 282.799716 132.401085 
L 283.126989 132.366064 
L 283.781534 132.649835 
L 284.108807 131.936974 
L 284.43608 132.337399 
L 284.763352 132.525656 
L 285.090625 132.230222 
L 285.74517 132.167707 
L 286.072443 132.493532 
L 286.399716 132.462083 
L 287.054261 132.110215 
L 287.381534 132.661394 
L 287.708807 132.257731 
L 288.03608 132.707855 
L 288.690625 132.689304 
L 289.017898 132.23817 
L 289.34517 132.636134 
L 289.672443 132.398538 
L 289.999716 131.929444 
L 290.654261 132.252696 
L 290.981534 132.351063 
L 291.308807 132.641152 
L 291.63608 131.990749 
L 291.963352 132.540849 
L 292.290625 131.671488 
L 292.94517 132.12717 
L 293.272443 132.034189 
L 293.926989 132.369767 
L 294.254261 131.803189 
L 294.908807 132.095206 
L 295.23608 132.051681 
L 295.563352 132.303661 
L 296.54517 132.161085 
L 296.872443 131.967513 
L 297.199716 132.354161 
L 297.526989 131.975016 
L 297.854261 132.182796 
L 298.181534 132.544544 
L 298.508807 131.972249 
L 299.163352 131.915321 
L 299.490625 132.331115 
L 300.14517 131.816527 
L 300.472443 132.304512 
L 300.799716 132.377821 
L 301.126989 132.626734 
L 301.454261 131.688815 
L 301.781534 131.714281 
L 302.108807 131.614019 
L 302.43608 132.079389 
L 302.763352 132.188325 
L 303.090625 132.439305 
L 303.417898 131.979743 
L 303.74517 132.116415 
L 304.072443 132.016496 
L 304.399716 131.69748 
L 305.054261 131.803803 
L 305.381534 132.211845 
L 306.03608 131.57137 
L 306.690625 131.918404 
L 307.34517 131.618256 
L 307.672443 131.558009 
L 307.999716 132.026717 
L 308.326989 131.699965 
L 308.654261 131.870529 
L 308.981534 131.543193 
L 309.308807 132.062371 
L 309.63608 131.957107 
L 309.963352 132.110093 
L 310.290625 132.470885 
L 310.617898 131.054369 
L 310.94517 131.723853 
L 311.272443 131.715947 
L 311.599716 132.028528 
L 312.254261 131.659274 
L 312.581534 132.247391 
L 312.908807 131.672925 
L 313.23608 131.597974 
L 313.563352 131.732283 
L 313.890625 131.699916 
L 314.54517 131.758162 
L 314.872443 131.795467 
L 315.199716 131.673372 
L 315.526989 131.809686 
L 316.181534 131.494584 
L 316.508807 131.954713 
L 317.163352 131.584319 
L 317.490625 131.833002 
L 318.14517 131.703295 
L 318.472443 131.677965 
L 318.799716 131.992524 
L 319.126989 131.968231 
L 319.454261 131.450183 
L 319.781534 131.479969 
L 320.108807 131.844268 
L 321.090625 132.008511 
L 321.74517 131.492316 
L 322.072443 131.757611 
L 322.726989 131.993016 
L 323.054261 131.637031 
L 323.381534 131.938927 
L 323.708807 131.774237 
L 324.03608 131.964773 
L 324.690625 131.895405 
L 325.017898 131.948727 
L 325.34517 131.515204 
L 325.999716 132.207389 
L 326.326989 131.735948 
L 326.654261 132.070266 
L 326.981534 131.860781 
L 327.308807 132.190618 
L 329.272443 131.559104 
L 329.599716 131.671975 
L 329.926989 131.950997 
L 330.254261 131.896108 
L 330.581534 131.64032 
L 330.908807 131.933831 
L 331.563352 131.75569 
L 332.54517 132.094871 
L 332.872443 131.759928 
L 333.199716 132.166826 
L 333.526989 131.618161 
L 333.854261 131.561967 
L 334.181534 131.859707 
L 334.83608 132.088196 
L 335.163352 132.030596 
L 335.490625 131.648646 
L 335.817898 131.550221 
L 336.14517 131.971596 
L 336.472443 131.857384 
L 336.799716 131.878065 
L 337.454261 131.605734 
L 337.781534 131.69852 
L 338.108807 131.660687 
L 338.43608 131.775266 
L 338.763352 131.438046 
L 339.090625 131.552678 
L 339.417898 131.396635 
L 340.072443 131.83833 
L 340.399716 131.473621 
L 341.381534 131.920461 
L 341.708807 131.773751 
L 342.03608 132.306822 
L 342.363352 131.304828 
L 342.690625 131.778464 
L 343.017898 131.538824 
L 343.34517 131.763851 
L 343.672443 131.714413 
L 343.999716 131.429222 
L 344.326989 131.819786 
L 344.654261 131.845981 
L 344.981534 131.56035 
L 345.63608 132.002589 
L 345.963352 131.722383 
L 346.94517 131.521583 
L 347.272443 131.46646 
L 347.926989 131.50372 
L 348.254261 131.938737 
L 348.581534 131.92355 
L 348.908807 132.035225 
L 349.563352 131.24189 
L 349.890625 131.710644 
L 350.217898 131.549152 
L 350.54517 131.866717 
L 350.872443 131.670899 
L 351.199716 132.145703 
L 351.526989 131.633061 
L 351.854261 132.025985 
L 352.181534 131.635501 
L 352.508807 131.846807 
L 352.83608 131.586124 
L 353.163352 131.59473 
L 353.490625 131.844681 
L 353.817898 131.914229 
L 354.14517 131.781952 
L 354.472443 131.862954 
L 354.799716 131.612892 
L 355.126989 132.049388 
L 355.781534 131.710847 
L 356.43608 131.814407 
L 357.74517 131.633862 
L 358.072443 131.919696 
L 358.399716 131.889533 
L 358.726989 131.308385 
L 359.054261 131.816644 
L 359.381534 131.87194 
L 359.708807 132.250742 
L 360.03608 131.864412 
L 360.363352 132.072855 
L 361.34517 131.621402 
L 361.672443 132.11461 
L 362.326989 131.885377 
L 362.654261 131.685562 
L 363.308807 132.014241 
L 363.63608 131.842992 
L 363.963352 131.883854 
L 364.290625 131.669728 
L 364.94517 132.134826 
L 365.272443 132.196674 
L 365.599716 131.534695 
L 365.926989 132.15809 
L 366.581534 131.824913 
L 366.908807 131.623415 
L 367.23608 131.993667 
L 367.563352 131.661674 
L 368.217898 131.780232 
L 368.54517 132.19422 
L 368.872443 131.92404 
L 369.199716 132.082007 
L 369.854261 131.905608 
L 370.181534 131.992586 
L 370.508807 131.585773 
L 370.83608 131.977195 
L 371.163352 131.712126 
L 371.817898 131.844544 
L 372.14517 131.698864 
L 372.472443 131.845577 
L 372.799716 131.667254 
L 373.126989 132.02546 
L 374.108807 131.764295 
L 374.763352 132.132961 
L 375.090625 132.054161 
L 375.417898 132.244216 
L 375.74517 132.261325 
L 376.072443 131.83644 
L 376.399716 132.054553 
L 376.726989 132.070764 
L 377.054261 131.745654 
L 377.381534 131.886346 
L 378.363352 131.744843 
L 378.690625 132.091431 
L 379.34517 131.787761 
L 379.672443 131.802511 
L 379.999716 131.600847 
L 380.981534 131.84851 
L 381.308807 131.834268 
L 381.63608 131.674467 
L 381.963352 132.130691 
L 382.617898 131.613253 
L 382.94517 132.004221 
L 383.272443 131.64069 
L 383.599716 131.919935 
L 383.926989 131.977815 
L 384.254261 131.861181 
L 384.581534 131.879449 
L 384.908807 132.129206 
L 385.23608 132.586272 
L 385.563352 132.397014 
L 385.890625 132.374833 
L 386.54517 131.922759 
L 387.526989 132.166175 
L 387.854261 131.987028 
L 388.181534 132.20129 
L 388.508807 131.900301 
L 388.83608 132.454928 
L 389.163352 131.965419 
L 390.799716 131.995658 
L 391.126989 131.694976 
L 391.454261 131.820483 
L 391.781534 132.268407 
L 392.108807 131.81003 
L 393.090625 132.331839 
L 393.417898 132.089079 
L 393.74517 132.156123 
L 394.399716 131.914557 
L 394.726989 131.779056 
L 395.054261 132.429212 
L 395.381534 132.035896 
L 395.708807 132.156378 
L 396.03608 131.920942 
L 396.363352 132.067177 
L 397.017898 131.7994 
L 397.34517 132.076494 
L 397.672443 131.892182 
L 397.999716 132.137919 
L 398.326989 131.956273 
L 399.308807 132.317842 
L 400.617898 132.052113 
L 400.94517 132.360091 
L 401.272443 132.15185 
L 401.599716 132.561835 
L 401.926989 132.520409 
L 402.254261 132.730541 
L 402.581534 132.36537 
L 403.890625 132.09182 
L 404.54517 132.482762 
L 404.872443 132.309271 
L 405.199716 131.982322 
L 405.526989 132.079422 
L 405.854261 131.983711 
L 406.181534 132.030987 
L 406.508807 132.357754 
L 406.83608 132.456726 
L 407.163352 132.059792 
L 407.490625 132.039161 
L 407.817898 132.164013 
L 408.14517 131.927215 
L 408.799716 132.157801 
L 409.126989 132.131282 
L 409.454261 132.28258 
L 409.781534 132.155762 
L 410.108807 132.3389 
L 410.763352 131.681194 
L 411.090625 132.035336 
L 412.072443 131.958351 
L 412.399716 131.752352 
L 412.726989 132.173254 
L 413.054261 132.027158 
L 413.381534 132.439215 
L 414.03608 132.032869 
L 414.363352 131.622207 
L 415.34517 132.280623 
L 416.654261 131.676886 
L 416.981534 132.106748 
L 417.963352 131.894944 
L 419.272443 131.958977 
L 419.599716 131.787778 
L 419.926989 132.011997 
L 420.254261 131.811797 
L 420.581534 131.811067 
L 420.908807 132.095896 
L 421.23608 131.912196 
L 421.563352 132.21161 
L 421.890625 131.908913 
L 422.217898 131.974276 
L 422.54517 131.662828 
L 422.872443 131.908525 
L 423.199716 131.913864 
L 423.526989 132.275485 
L 423.854261 131.415337 
L 424.181534 131.800467 
L 424.83608 131.534548 
L 425.490625 131.915864 
L 425.817898 131.623809 
L 426.14517 131.542614 
L 426.472443 132.145538 
L 426.799716 131.915697 
L 427.126989 131.830227 
L 427.454261 131.610366 
L 427.781534 131.577343 
L 428.108807 131.953042 
L 428.43608 131.941517 
L 428.763352 132.242704 
L 429.090625 131.788079 
L 429.417898 131.994276 
L 430.072443 131.956424 
L 430.399716 131.602818 
L 430.726989 131.628402 
L 431.054261 132.003848 
L 431.381534 131.951748 
L 431.708807 132.337541 
L 432.03608 131.763898 
L 433.34517 131.841793 
L 433.672443 132.12563 
L 434.326989 132.106456 
L 434.981534 131.921969 
L 435.308807 132.068573 
L 435.63608 131.907576 
L 436.290625 132.076438 
L 436.617898 131.905297 
L 436.94517 132.151423 
L 437.272443 132.214246 
L 437.599716 132.081507 
L 438.254261 132.124251 
L 438.581534 132.522862 
L 438.908807 132.314021 
L 439.563352 132.43381 
L 439.890625 131.838743 
L 440.217898 132.22191 
L 440.54517 132.196385 
L 440.872443 132.291652 
L 441.199716 131.910402 
L 441.854261 131.851582 
L 442.181534 132.088144 
L 443.163352 131.763961 
L 443.490625 132.008608 
L 443.817898 131.867423 
L 444.14517 131.968499 
L 444.472443 131.783698 
L 444.799716 132.018266 
L 445.126989 131.839266 
L 445.781534 132.113795 
L 446.108807 132.204907 
L 446.43608 131.847972 
L 446.763352 131.72808 
L 447.090625 131.877868 
L 447.417898 131.687886 
L 447.74517 132.052456 
L 448.399716 131.951519 
L 448.726989 132.070552 
L 449.054261 131.751878 
L 449.381534 131.796799 
L 449.708807 131.968814 
L 450.363352 131.916459 
L 450.690625 131.415957 
L 451.017898 131.630413 
L 451.34517 131.497864 
L 451.999716 131.955041 
L 452.326989 131.836435 
L 452.654261 131.895353 
L 452.981534 131.788212 
L 453.308807 132.161407 
L 453.63608 131.866419 
L 454.290625 131.699732 
L 454.617898 132.213766 
L 454.94517 131.728133 
L 455.272443 132.387442 
L 455.599716 131.771368 
L 456.254261 131.959422 
L 456.581534 131.776262 
L 456.908807 131.725607 
L 457.23608 131.864995 
L 458.217898 131.836825 
L 458.54517 131.542041 
L 458.872443 131.857837 
L 459.199716 131.815657 
L 459.526989 131.329548 
L 459.854261 131.696928 
L 460.181534 131.533836 
L 460.83608 132.006003 
L 461.163352 131.404012 
L 461.490625 131.777815 
L 461.817898 131.767231 
L 462.14517 131.398486 
L 462.472443 131.837332 
L 462.799716 131.576614 
L 463.126989 131.784697 
L 463.454261 131.822586 
L 463.781534 131.563991 
L 464.108807 131.753948 
L 464.43608 131.643732 
L 464.763352 131.711258 
L 465.090625 131.894859 
L 466.072443 131.652048 
L 466.399716 131.321052 
L 466.726989 131.612636 
L 467.381534 131.768802 
L 467.708807 131.553112 
L 468.363352 131.735078 
L 468.690625 131.81815 
L 469.017898 131.734775 
L 469.34517 131.869323 
L 469.672443 131.656739 
L 469.999716 131.70683 
L 470.326989 132.017098 
L 470.654261 131.590594 
L 470.981534 131.729867 
L 471.63608 132.211052 
L 471.963352 131.722657 
L 472.290625 131.531011 
L 472.617898 131.598798 
L 473.272443 131.449122 
L 473.599716 131.692884 
L 474.581534 131.56468 
L 474.908807 131.804936 
L 475.890625 131.698899 
L 476.217898 131.576302 
L 476.54517 131.164704 
L 476.872443 131.653755 
L 477.199716 131.569612 
L 477.854261 131.224464 
L 478.181534 131.535934 
L 478.508807 131.357117 
L 479.163352 131.567762 
L 479.490625 131.213929 
L 479.817898 131.59829 
L 480.14517 131.152675 
L 481.126989 131.739145 
L 481.454261 131.465133 
L 481.781534 131.453089 
L 482.108807 131.314995 
L 483.090625 131.677337 
L 483.417898 131.748742 
L 483.74517 131.973248 
L 484.072443 131.343102 
L 484.399716 131.580627 
L 484.726989 131.402333 
L 486.03608 131.40373 
L 486.363352 131.238737 
L 487.017898 131.584023 
L 487.34517 131.375681 
L 487.672443 131.671517 
L 487.999716 131.403375 
L 488.326989 131.788508 
L 488.981534 131.376979 
L 489.963352 131.483392 
L 490.290625 131.268123 
L 490.94517 131.57249 
L 491.272443 131.274227 
L 491.599716 131.556683 
L 491.926989 131.59896 
L 492.254261 131.831504 
L 492.581534 131.315487 
L 492.908807 131.371424 
L 493.23608 131.184238 
L 493.563352 131.247575 
L 493.890625 131.533858 
L 494.217898 131.439911 
L 494.54517 131.589682 
L 494.872443 131.287109 
L 495.526989 131.683824 
L 495.854261 131.61923 
L 496.181534 131.669858 
L 496.508807 130.969618 
L 496.83608 130.810178 
L 497.163352 131.309287 
L 497.490625 131.165409 
L 497.817898 131.423773 
L 498.14517 131.306445 
L 498.472443 130.881194 
L 499.126989 131.622168 
L 499.454261 131.48835 
L 499.781534 131.12394 
L 500.43608 131.342115 
L 501.090625 131.15863 
L 501.417898 131.392061 
L 501.74517 131.339938 
L 502.072443 131.585466 
L 502.399716 131.313515 
L 502.726989 131.716583 
L 503.054261 131.245639 
L 503.381534 131.554074 
L 504.363352 131.269393 
L 505.34517 131.546983 
L 505.672443 131.016815 
L 506.326989 131.712664 
L 506.654261 131.433202 
L 506.981534 131.364848 
L 507.308807 131.425148 
L 507.63608 131.130419 
L 507.963352 131.024514 
L 508.290625 131.273165 
L 508.617898 130.993595 
L 508.94517 131.53009 
L 509.272443 131.36149 
L 509.599716 131.562629 
L 509.926989 131.20167 
L 510.581534 131.299452 
L 510.908807 131.553812 
L 511.23608 131.150863 
L 511.563352 131.40958 
L 511.890625 131.124255 
L 512.217898 131.215577 
L 512.54517 130.970897 
L 512.872443 131.545904 
L 513.526989 131.169531 
L 513.854261 131.50402 
L 514.181534 131.575606 
L 514.508807 131.384051 
L 514.83608 131.480658 
L 515.163352 131.400593 
L 515.817898 131.46457 
L 516.14517 131.163274 
L 516.472443 131.523415 
L 517.126989 131.190596 
L 517.781534 131.310975 
L 518.108807 131.630702 
L 518.43608 131.169151 
L 518.763352 131.039505 
L 519.090625 131.037927 
L 519.417898 131.219068 
L 519.74517 131.05841 
L 520.072443 131.51147 
L 520.399716 131.448166 
L 521.054261 131.71447 
L 521.381534 131.316122 
L 521.708807 131.469966 
L 522.03608 131.222741 
L 522.690625 131.505236 
L 523.017898 131.457204 
L 523.34517 131.637589 
L 523.999716 131.067112 
L 524.326989 131.136962 
L 524.654261 131.366614 
L 524.981534 131.778345 
L 525.308807 131.536757 
L 525.63608 131.501241 
L 525.963352 131.605747 
L 526.617898 131.465848 
L 526.94517 131.731375 
L 527.272443 131.713457 
L 527.599716 131.477451 
L 527.926989 131.456224 
L 528.254261 131.119791 
L 528.581534 131.190572 
L 529.23608 131.452396 
L 530.217898 131.694542 
L 530.54517 131.432508 
L 530.872443 131.429285 
L 531.199716 131.749219 
L 531.526989 131.150779 
L 532.83608 131.577303 
L 533.163352 131.811504 
L 533.490625 131.41673 
L 533.817898 131.444956 
L 534.14517 131.26649 
L 534.472443 131.583304 
L 534.799716 131.335662 
L 535.126989 131.615927 
L 536.108807 131.365126 
L 536.43608 131.583033 
L 536.763352 131.542721 
L 537.090625 131.729707 
L 537.417898 131.424947 
L 537.74517 131.352412 
L 538.072443 131.44336 
L 538.399716 131.700714 
L 538.726989 131.305627 
L 539.381534 131.444577 
L 539.708807 131.219751 
L 540.690625 131.278478 
L 541.34517 131.782109 
L 541.672443 131.290591 
L 542.981534 131.520578 
L 543.308807 131.382871 
L 543.963352 131.534519 
L 544.290625 131.602163 
L 545.272443 131.373908 
L 545.599716 131.750278 
L 545.926989 131.740545 
L 546.581534 131.2285 
L 546.908807 131.174561 
L 547.23608 131.424005 
L 547.563352 131.503319 
L 548.54517 131.320569 
L 548.872443 131.167674 
L 549.854261 131.442016 
L 550.181534 131.432219 
L 550.508807 131.291859 
L 551.490625 131.442947 
L 551.817898 131.074232 
L 552.472443 131.156943 
L 552.799716 131.302615 
L 553.126989 131.296418 
L 553.454261 131.476627 
L 554.43608 131.346275 
L 555.090625 131.414973 
L 555.417898 131.217917 
L 555.74517 131.262462 
L 556.399716 131.114828 
L 557.054261 131.228466 
L 557.381534 130.976384 
L 558.03608 131.235615 
L 558.690625 131.088931 
L 559.34517 131.609499 
L 559.672443 131.278431 
L 559.999716 131.343334 
L 560.326989 131.093883 
L 560.981534 131.410251 
L 561.63608 131.447108 
L 561.963352 131.548553 
L 562.617898 131.261014 
L 562.94517 131.361117 
L 563.272443 131.166273 
L 563.599716 131.487162 
L 564.254261 131.560751 
L 564.581534 131.077796 
L 564.908807 131.246698 
L 565.23608 131.557392 
L 565.890625 131.237677 
L 566.54517 131.413089 
L 567.526989 131.417419 
L 567.854261 131.180052 
L 568.181534 131.174835 
L 568.83608 131.528454 
L 569.163352 131.238783 
L 569.817898 131.362832 
L 570.14517 131.201953 
L 570.472443 131.32817 
L 570.799716 131.28141 
L 571.126989 131.452231 
L 571.454261 131.329763 
L 571.781534 131.337622 
L 572.108807 131.523734 
L 572.43608 131.378977 
L 572.763352 131.669703 
L 573.090625 131.537059 
L 573.417898 131.86782 
L 573.74517 131.475729 
L 574.399716 131.576848 
L 574.726989 131.868218 
L 575.054261 131.490127 
L 575.381534 131.847893 
L 575.708807 131.714276 
L 576.03608 131.89651 
L 576.363352 131.790117 
L 577.017898 131.796327 
L 577.34517 131.597672 
L 577.672443 131.973706 
L 578.326989 130.662237 
L 578.654261 130.69195 
L 578.981534 130.971303 
L 579.308807 130.935548 
L 579.963352 130.993849 
L 580.290625 131.400423 
L 581.599716 131.128928 
L 582.254261 131.178499 
L 582.581534 131.02703 
L 582.908807 131.420192 
L 583.23608 131.138143 
L 583.563352 131.308406 
L 583.890625 131.193542 
L 584.217898 131.373895 
L 584.872443 131.526675 
L 585.199716 131.9746 
L 585.526989 131.251423 
L 585.854261 131.143247 
L 586.181534 131.325846 
L 586.508807 131.102467 
L 586.83608 131.515249 
L 587.163352 131.691079 
L 587.817898 131.24146 
L 588.472443 131.495941 
L 588.799716 131.11669 
L 590.43608 131.379219 
L 590.763352 131.241842 
L 591.090625 131.377519 
L 591.417898 131.134867 
L 591.74517 131.364208 
L 592.399716 131.168448 
L 592.726989 131.47654 
L 593.381534 131.337093 
L 594.03608 131.085402 
L 594.363352 131.243586 
L 594.690625 131.26974 
L 595.017898 131.121253 
L 595.34517 131.530049 
L 595.672443 131.559233 
L 595.999716 131.229325 
L 596.326989 131.173394 
L 596.654261 131.501952 
L 596.981534 131.490782 
L 597.308807 131.219356 
L 597.63608 131.180196 
L 597.963352 131.361962 
L 598.290625 131.284448 
L 598.94517 131.552896 
L 599.599716 131.409942 
L 599.926989 131.215406 
L 600.581534 131.645837 
L 601.563352 131.184437 
L 601.890625 131.385378 
L 603.199716 131.409162 
L 603.526989 131.189708 
L 603.854261 131.30255 
L 604.181534 131.180556 
L 604.508807 131.478817 
L 604.83608 131.162332 
L 605.163352 131.019751 
L 605.490625 131.234073 
L 605.817898 131.102446 
L 606.472443 131.077601 
L 606.799716 131.502116 
L 607.126989 131.241637 
L 607.454261 131.159214 
L 607.781534 131.571451 
L 608.108807 131.354628 
L 608.43608 131.290441 
L 609.090625 131.630049 
L 609.417898 131.028025 
L 609.74517 131.153771 
L 610.072443 130.882236 
L 611.054261 130.853426 
L 612.03608 131.613108 
L 612.363352 131.022657 
L 612.690625 131.3146 
L 613.017898 131.040848 
L 613.34517 130.998857 
L 613.672443 131.497009 
L 614.326989 131.096779 
L 614.981534 131.343776 
L 615.308807 130.982872 
L 615.963352 131.212569 
L 616.617898 131.200552 
L 616.94517 131.403574 
L 617.272443 131.032742 
L 617.599716 131.010406 
L 617.926989 131.144822 
L 618.581534 130.931743 
L 619.563352 131.140177 
L 619.890625 131.093956 
L 620.217898 131.390899 
L 620.54517 131.078914 
L 621.199716 131.415554 
L 621.526989 131.258874 
L 622.181534 131.386495 
L 622.508807 130.997941 
L 623.163352 131.304777 
L 623.490625 131.131158 
L 623.817898 131.117146 
L 624.14517 131.239236 
L 624.472443 131.183413 
L 624.799716 131.244631 
L 625.126989 131.071714 
L 625.126989 131.071714 
" clip-path="url(#pf1a03b783f)" style="fill: none; stroke: #ff7f0e; stroke-width: 1.5; stroke-linecap: square"/>
   </g>
   <g id="patch_3">
    <path d="M 92.490625 308.63625 
L 92.490625 31.43625 
" style="fill: none; stroke: #000000; stroke-width: 0.8; stroke-linejoin: miter; stroke-linecap: square"/>
   </g>
   <g id="patch_4">
    <path d="M 650.490625 308.63625 
L 650.490625 31.43625 
" style="fill: none; stroke: #000000; stroke-width: 0.8; stroke-linejoin: miter; stroke-linecap: square"/>
   </g>
   <g id="patch_5">
    <path d="M 92.490625 308.63625 
L 650.490625 308.63625 
" style="fill: none; stroke: #000000; stroke-width: 0.8; stroke-linejoin: miter; stroke-linecap: square"/>
   </g>
   <g id="patch_6">
    <path d="M 92.490625 31.43625 
L 650.490625 31.43625 
" style="fill: none; stroke: #000000; stroke-width: 0.8; stroke-linejoin: miter; stroke-linecap: square"/>
   </g>
   <g id="text_17">
    <!-- Generator and Discriminator Loss During Training -->
    <g transform="translate(74.258125 25.43625) scale(0.24 -0.24)">
     <defs>
      <path id="DejaVuSans-47" d="M 3809 666 
L 3809 1919 
L 2778 1919 
L 2778 2438 
L 4434 2438 
L 4434 434 
Q 4069 175 3628 42 
Q 3188 -91 2688 -91 
Q 1594 -91 976 548 
Q 359 1188 359 2328 
Q 359 3472 976 4111 
Q 1594 4750 2688 4750 
Q 3144 4750 3555 4637 
Q 3966 4525 4313 4306 
L 4313 3634 
Q 3963 3931 3569 4081 
Q 3175 4231 2741 4231 
Q 1884 4231 1454 3753 
Q 1025 3275 1025 2328 
Q 1025 1384 1454 906 
Q 1884 428 2741 428 
Q 3075 428 3337 486 
Q 3600 544 3809 666 
z
" transform="scale(0.015625)"/>
      <path id="DejaVuSans-20" transform="scale(0.015625)"/>
      <path id="DejaVuSans-64" d="M 2906 2969 
L 2906 4863 
L 3481 4863 
L 3481 0 
L 2906 0 
L 2906 525 
Q 2725 213 2448 61 
Q 2172 -91 1784 -91 
Q 1150 -91 751 415 
Q 353 922 353 1747 
Q 353 2572 751 3078 
Q 1150 3584 1784 3584 
Q 2172 3584 2448 3432 
Q 2725 3281 2906 2969 
z
M 947 1747 
Q 947 1113 1208 752 
Q 1469 391 1925 391 
Q 2381 391 2643 752 
Q 2906 1113 2906 1747 
Q 2906 2381 2643 2742 
Q 2381 3103 1925 3103 
Q 1469 3103 1208 2742 
Q 947 2381 947 1747 
z
" transform="scale(0.015625)"/>
      <path id="DejaVuSans-44" d="M 1259 4147 
L 1259 519 
L 2022 519 
Q 2988 519 3436 956 
Q 3884 1394 3884 2338 
Q 3884 3275 3436 3711 
Q 2988 4147 2022 4147 
L 1259 4147 
z
M 628 4666 
L 1925 4666 
Q 3281 4666 3915 4102 
Q 4550 3538 4550 2338 
Q 4550 1131 3912 565 
Q 3275 0 1925 0 
L 628 0 
L 628 4666 
z
" transform="scale(0.015625)"/>
      <path id="DejaVuSans-63" d="M 3122 3366 
L 3122 2828 
Q 2878 2963 2633 3030 
Q 2388 3097 2138 3097 
Q 1578 3097 1268 2742 
Q 959 2388 959 1747 
Q 959 1106 1268 751 
Q 1578 397 2138 397 
Q 2388 397 2633 464 
Q 2878 531 3122 666 
L 3122 134 
Q 2881 22 2623 -34 
Q 2366 -91 2075 -91 
Q 1284 -91 818 406 
Q 353 903 353 1747 
Q 353 2603 823 3093 
Q 1294 3584 2113 3584 
Q 2378 3584 2631 3529 
Q 2884 3475 3122 3366 
z
" transform="scale(0.015625)"/>
      <path id="DejaVuSans-6d" d="M 3328 2828 
Q 3544 3216 3844 3400 
Q 4144 3584 4550 3584 
Q 5097 3584 5394 3201 
Q 5691 2819 5691 2113 
L 5691 0 
L 5113 0 
L 5113 2094 
Q 5113 2597 4934 2840 
Q 4756 3084 4391 3084 
Q 3944 3084 3684 2787 
Q 3425 2491 3425 1978 
L 3425 0 
L 2847 0 
L 2847 2094 
Q 2847 2600 2669 2842 
Q 2491 3084 2119 3084 
Q 1678 3084 1418 2786 
Q 1159 2488 1159 1978 
L 1159 0 
L 581 0 
L 581 3500 
L 1159 3500 
L 1159 2956 
Q 1356 3278 1631 3431 
Q 1906 3584 2284 3584 
Q 2666 3584 2933 3390 
Q 3200 3197 3328 2828 
z
" transform="scale(0.015625)"/>
      <path id="DejaVuSans-75" d="M 544 1381 
L 544 3500 
L 1119 3500 
L 1119 1403 
Q 1119 906 1312 657 
Q 1506 409 1894 409 
Q 2359 409 2629 706 
Q 2900 1003 2900 1516 
L 2900 3500 
L 3475 3500 
L 3475 0 
L 2900 0 
L 2900 538 
Q 2691 219 2414 64 
Q 2138 -91 1772 -91 
Q 1169 -91 856 284 
Q 544 659 544 1381 
z
M 1991 3584 
L 1991 3584 
z
" transform="scale(0.015625)"/>
      <path id="DejaVuSans-67" d="M 2906 1791 
Q 2906 2416 2648 2759 
Q 2391 3103 1925 3103 
Q 1463 3103 1205 2759 
Q 947 2416 947 1791 
Q 947 1169 1205 825 
Q 1463 481 1925 481 
Q 2391 481 2648 825 
Q 2906 1169 2906 1791 
z
M 3481 434 
Q 3481 -459 3084 -895 
Q 2688 -1331 1869 -1331 
Q 1566 -1331 1297 -1286 
Q 1028 -1241 775 -1147 
L 775 -588 
Q 1028 -725 1275 -790 
Q 1522 -856 1778 -856 
Q 2344 -856 2625 -561 
Q 2906 -266 2906 331 
L 2906 616 
Q 2728 306 2450 153 
Q 2172 0 1784 0 
Q 1141 0 747 490 
Q 353 981 353 1791 
Q 353 2603 747 3093 
Q 1141 3584 1784 3584 
Q 2172 3584 2450 3431 
Q 2728 3278 2906 2969 
L 2906 3500 
L 3481 3500 
L 3481 434 
z
" transform="scale(0.015625)"/>
      <path id="DejaVuSans-54" d="M -19 4666 
L 3928 4666 
L 3928 4134 
L 2272 4134 
L 2272 0 
L 1638 0 
L 1638 4134 
L -19 4134 
L -19 4666 
z
" transform="scale(0.015625)"/>
     </defs>
     <use xlink:href="#DejaVuSans-47"/>
     <use xlink:href="#DejaVuSans-65" x="77.490234"/>
     <use xlink:href="#DejaVuSans-6e" x="139.013672"/>
     <use xlink:href="#DejaVuSans-65" x="202.392578"/>
     <use xlink:href="#DejaVuSans-72" x="263.916016"/>
     <use xlink:href="#DejaVuSans-61" x="305.029297"/>
     <use xlink:href="#DejaVuSans-74" x="366.308594"/>
     <use xlink:href="#DejaVuSans-6f" x="405.517578"/>
     <use xlink:href="#DejaVuSans-72" x="466.699219"/>
     <use xlink:href="#DejaVuSans-20" x="507.8125"/>
     <use xlink:href="#DejaVuSans-61" x="539.599609"/>
     <use xlink:href="#DejaVuSans-6e" x="600.878906"/>
     <use xlink:href="#DejaVuSans-64" x="664.257812"/>
     <use xlink:href="#DejaVuSans-20" x="727.734375"/>
     <use xlink:href="#DejaVuSans-44" x="759.521484"/>
     <use xlink:href="#DejaVuSans-69" x="836.523438"/>
     <use xlink:href="#DejaVuSans-73" x="864.306641"/>
     <use xlink:href="#DejaVuSans-63" x="916.40625"/>
     <use xlink:href="#DejaVuSans-72" x="971.386719"/>
     <use xlink:href="#DejaVuSans-69" x="1012.5"/>
     <use xlink:href="#DejaVuSans-6d" x="1040.283203"/>
     <use xlink:href="#DejaVuSans-69" x="1137.695312"/>
     <use xlink:href="#DejaVuSans-6e" x="1165.478516"/>
     <use xlink:href="#DejaVuSans-61" x="1228.857422"/>
     <use xlink:href="#DejaVuSans-74" x="1290.136719"/>
     <use xlink:href="#DejaVuSans-6f" x="1329.345703"/>
     <use xlink:href="#DejaVuSans-72" x="1390.527344"/>
     <use xlink:href="#DejaVuSans-20" x="1431.640625"/>
     <use xlink:href="#DejaVuSans-4c" x="1463.427734"/>
     <use xlink:href="#DejaVuSans-6f" x="1517.390625"/>
     <use xlink:href="#DejaVuSans-73" x="1578.572266"/>
     <use xlink:href="#DejaVuSans-73" x="1630.671875"/>
     <use xlink:href="#DejaVuSans-20" x="1682.771484"/>
     <use xlink:href="#DejaVuSans-44" x="1714.558594"/>
     <use xlink:href="#DejaVuSans-75" x="1791.560547"/>
     <use xlink:href="#DejaVuSans-72" x="1854.939453"/>
     <use xlink:href="#DejaVuSans-69" x="1896.052734"/>
     <use xlink:href="#DejaVuSans-6e" x="1923.835938"/>
     <use xlink:href="#DejaVuSans-67" x="1987.214844"/>
     <use xlink:href="#DejaVuSans-20" x="2050.691406"/>
     <use xlink:href="#DejaVuSans-54" x="2082.478516"/>
     <use xlink:href="#DejaVuSans-72" x="2128.8125"/>
     <use xlink:href="#DejaVuSans-61" x="2169.925781"/>
     <use xlink:href="#DejaVuSans-69" x="2231.205078"/>
     <use xlink:href="#DejaVuSans-6e" x="2258.988281"/>
     <use xlink:href="#DejaVuSans-69" x="2322.367188"/>
     <use xlink:href="#DejaVuSans-6e" x="2350.150391"/>
     <use xlink:href="#DejaVuSans-67" x="2413.529297"/>
    </g>
   </g>
   <g id="legend_1">
    <g id="patch_7">
     <path d="M 556.99375 106.14875 
L 636.490625 106.14875 
Q 640.490625 106.14875 640.490625 102.14875 
L 640.490625 45.43625 
Q 640.490625 41.43625 636.490625 41.43625 
L 556.99375 41.43625 
Q 552.99375 41.43625 552.99375 45.43625 
L 552.99375 102.14875 
Q 552.99375 106.14875 556.99375 106.14875 
z
" style="fill: #ffffff; opacity: 0.8; stroke: #cccccc; stroke-linejoin: miter"/>
    </g>
    <g id="line2d_17">
     <path d="M 560.99375 57.633125 
L 580.99375 57.633125 
L 600.99375 57.633125 
" style="fill: none; stroke: #1f77b4; stroke-width: 1.5; stroke-linecap: square"/>
    </g>
    <g id="text_18">
     <!-- G -->
     <g transform="translate(616.99375 64.633125) scale(0.2 -0.2)">
      <use xlink:href="#DejaVuSans-47"/>
     </g>
    </g>
    <g id="line2d_18">
     <path d="M 560.99375 86.989375 
L 580.99375 86.989375 
L 600.99375 86.989375 
" style="fill: none; stroke: #ff7f0e; stroke-width: 1.5; stroke-linecap: square"/>
    </g>
    <g id="text_19">
     <!-- D -->
     <g transform="translate(616.99375 93.989375) scale(0.2 -0.2)">
      <use xlink:href="#DejaVuSans-44"/>
     </g>
    </g>
   </g>
  </g>
 </g>
 <defs>
  <clipPath id="pf1a03b783f">
   <rect x="92.490625" y="31.43625" width="558" height="277.2"/>
  </clipPath>
 </defs>
</svg>
