<?xml version="1.0" encoding="utf-8" standalone="no"?>
<!DOCTYPE svg PUBLIC "-//W3C//DTD SVG 1.1//EN"
  "http://www.w3.org/Graphics/SVG/1.1/DTD/svg11.dtd">
<svg xmlns:xlink="http://www.w3.org/1999/xlink" width="675.923125pt" height="365.54875pt" viewBox="0 0 675.923125 365.54875" xmlns="http://www.w3.org/2000/svg" version="1.1">
 <metadata>
  <rdf:RDF xmlns:dc="http://purl.org/dc/elements/1.1/" xmlns:cc="http://creativecommons.org/ns#" xmlns:rdf="http://www.w3.org/1999/02/22-rdf-syntax-ns#">
   <cc:Work>
    <dc:type rdf:resource="http://purl.org/dc/dcmitype/StillImage"/>
    <dc:date>2024-02-04T17:50:46.962333</dc:date>
    <dc:format>image/svg+xml</dc:format>
    <dc:creator>
     <cc:Agent>
      <dc:title>Matplotlib v3.7.2, https://matplotlib.org/</dc:title>
     </cc:Agent>
    </dc:creator>
   </cc:Work>
  </rdf:RDF>
 </metadata>
 <defs>
  <style type="text/css">*{stroke-linejoin: round; stroke-linecap: butt}</style>
 </defs>
 <g id="figure_1">
  <g id="patch_1">
   <path d="M 0 365.54875 
L 675.923125 365.54875 
L 675.923125 -0 
L 0 -0 
z
" style="fill: #ffffff"/>
  </g>
  <g id="axes_1">
   <g id="patch_2">
    <path d="M 92.490625 308.63625 
L 650.490625 308.63625 
L 650.490625 31.43625 
L 92.490625 31.43625 
z
" style="fill: #ffffff"/>
   </g>
   <g id="matplotlib.axis_1">
    <g id="xtick_1">
     <g id="line2d_1">
      <defs>
       <path id="m33860dd5c8" d="M 0 0 
L 0 3.5 
" style="stroke: #000000; stroke-width: 0.8"/>
      </defs>
      <g>
       <use xlink:href="#m33860dd5c8" x="117.854261" y="308.63625" style="stroke: #000000; stroke-width: 0.8"/>
      </g>
     </g>
     <g id="text_1">
      <!-- 0 -->
      <g transform="translate(111.491761 330.833125) scale(0.2 -0.2)">
       <defs>
        <path id="DejaVuSans-30" d="M 2034 4250 
Q 1547 4250 1301 3770 
Q 1056 3291 1056 2328 
Q 1056 1369 1301 889 
Q 1547 409 2034 409 
Q 2525 409 2770 889 
Q 3016 1369 3016 2328 
Q 3016 3291 2770 3770 
Q 2525 4250 2034 4250 
z
M 2034 4750 
Q 2819 4750 3233 4129 
Q 3647 3509 3647 2328 
Q 3647 1150 3233 529 
Q 2819 -91 2034 -91 
Q 1250 -91 836 529 
Q 422 1150 422 2328 
Q 422 3509 836 4129 
Q 1250 4750 2034 4750 
z
" transform="scale(0.015625)"/>
       </defs>
       <use xlink:href="#DejaVuSans-30"/>
      </g>
     </g>
    </g>
    <g id="xtick_2">
     <g id="line2d_2">
      <g>
       <use xlink:href="#m33860dd5c8" x="230.581534" y="308.63625" style="stroke: #000000; stroke-width: 0.8"/>
      </g>
     </g>
     <g id="text_2">
      <!-- 200 -->
      <g transform="translate(211.494034 330.833125) scale(0.2 -0.2)">
       <defs>
        <path id="DejaVuSans-32" d="M 1228 531 
L 3431 531 
L 3431 0 
L 469 0 
L 469 531 
Q 828 903 1448 1529 
Q 2069 2156 2228 2338 
Q 2531 2678 2651 2914 
Q 2772 3150 2772 3378 
Q 2772 3750 2511 3984 
Q 2250 4219 1831 4219 
Q 1534 4219 1204 4116 
Q 875 4013 500 3803 
L 500 4441 
Q 881 4594 1212 4672 
Q 1544 4750 1819 4750 
Q 2544 4750 2975 4387 
Q 3406 4025 3406 3419 
Q 3406 3131 3298 2873 
Q 3191 2616 2906 2266 
Q 2828 2175 2409 1742 
Q 1991 1309 1228 531 
z
" transform="scale(0.015625)"/>
       </defs>
       <use xlink:href="#DejaVuSans-32"/>
       <use xlink:href="#DejaVuSans-30" x="63.623047"/>
       <use xlink:href="#DejaVuSans-30" x="127.246094"/>
      </g>
     </g>
    </g>
    <g id="xtick_3">
     <g id="line2d_3">
      <g>
       <use xlink:href="#m33860dd5c8" x="343.308807" y="308.63625" style="stroke: #000000; stroke-width: 0.8"/>
      </g>
     </g>
     <g id="text_3">
      <!-- 400 -->
      <g transform="translate(324.221307 330.833125) scale(0.2 -0.2)">
       <defs>
        <path id="DejaVuSans-34" d="M 2419 4116 
L 825 1625 
L 2419 1625 
L 2419 4116 
z
M 2253 4666 
L 3047 4666 
L 3047 1625 
L 3713 1625 
L 3713 1100 
L 3047 1100 
L 3047 0 
L 2419 0 
L 2419 1100 
L 313 1100 
L 313 1709 
L 2253 4666 
z
" transform="scale(0.015625)"/>
       </defs>
       <use xlink:href="#DejaVuSans-34"/>
       <use xlink:href="#DejaVuSans-30" x="63.623047"/>
       <use xlink:href="#DejaVuSans-30" x="127.246094"/>
      </g>
     </g>
    </g>
    <g id="xtick_4">
     <g id="line2d_4">
      <g>
       <use xlink:href="#m33860dd5c8" x="456.03608" y="308.63625" style="stroke: #000000; stroke-width: 0.8"/>
      </g>
     </g>
     <g id="text_4">
      <!-- 600 -->
      <g transform="translate(436.94858 330.833125) scale(0.2 -0.2)">
       <defs>
        <path id="DejaVuSans-36" d="M 2113 2584 
Q 1688 2584 1439 2293 
Q 1191 2003 1191 1497 
Q 1191 994 1439 701 
Q 1688 409 2113 409 
Q 2538 409 2786 701 
Q 3034 994 3034 1497 
Q 3034 2003 2786 2293 
Q 2538 2584 2113 2584 
z
M 3366 4563 
L 3366 3988 
Q 3128 4100 2886 4159 
Q 2644 4219 2406 4219 
Q 1781 4219 1451 3797 
Q 1122 3375 1075 2522 
Q 1259 2794 1537 2939 
Q 1816 3084 2150 3084 
Q 2853 3084 3261 2657 
Q 3669 2231 3669 1497 
Q 3669 778 3244 343 
Q 2819 -91 2113 -91 
Q 1303 -91 875 529 
Q 447 1150 447 2328 
Q 447 3434 972 4092 
Q 1497 4750 2381 4750 
Q 2619 4750 2861 4703 
Q 3103 4656 3366 4563 
z
" transform="scale(0.015625)"/>
       </defs>
       <use xlink:href="#DejaVuSans-36"/>
       <use xlink:href="#DejaVuSans-30" x="63.623047"/>
       <use xlink:href="#DejaVuSans-30" x="127.246094"/>
      </g>
     </g>
    </g>
    <g id="xtick_5">
     <g id="line2d_5">
      <g>
       <use xlink:href="#m33860dd5c8" x="568.763352" y="308.63625" style="stroke: #000000; stroke-width: 0.8"/>
      </g>
     </g>
     <g id="text_5">
      <!-- 800 -->
      <g transform="translate(549.675852 330.833125) scale(0.2 -0.2)">
       <defs>
        <path id="DejaVuSans-38" d="M 2034 2216 
Q 1584 2216 1326 1975 
Q 1069 1734 1069 1313 
Q 1069 891 1326 650 
Q 1584 409 2034 409 
Q 2484 409 2743 651 
Q 3003 894 3003 1313 
Q 3003 1734 2745 1975 
Q 2488 2216 2034 2216 
z
M 1403 2484 
Q 997 2584 770 2862 
Q 544 3141 544 3541 
Q 544 4100 942 4425 
Q 1341 4750 2034 4750 
Q 2731 4750 3128 4425 
Q 3525 4100 3525 3541 
Q 3525 3141 3298 2862 
Q 3072 2584 2669 2484 
Q 3125 2378 3379 2068 
Q 3634 1759 3634 1313 
Q 3634 634 3220 271 
Q 2806 -91 2034 -91 
Q 1263 -91 848 271 
Q 434 634 434 1313 
Q 434 1759 690 2068 
Q 947 2378 1403 2484 
z
M 1172 3481 
Q 1172 3119 1398 2916 
Q 1625 2713 2034 2713 
Q 2441 2713 2670 2916 
Q 2900 3119 2900 3481 
Q 2900 3844 2670 4047 
Q 2441 4250 2034 4250 
Q 1625 4250 1398 4047 
Q 1172 3844 1172 3481 
z
" transform="scale(0.015625)"/>
       </defs>
       <use xlink:href="#DejaVuSans-38"/>
       <use xlink:href="#DejaVuSans-30" x="63.623047"/>
       <use xlink:href="#DejaVuSans-30" x="127.246094"/>
      </g>
     </g>
    </g>
    <g id="text_6">
     <!-- iterations -->
     <g transform="translate(324.035938 354.189375) scale(0.2 -0.2)">
      <defs>
       <path id="DejaVuSans-69" d="M 603 3500 
L 1178 3500 
L 1178 0 
L 603 0 
L 603 3500 
z
M 603 4863 
L 1178 4863 
L 1178 4134 
L 603 4134 
L 603 4863 
z
" transform="scale(0.015625)"/>
       <path id="DejaVuSans-74" d="M 1172 4494 
L 1172 3500 
L 2356 3500 
L 2356 3053 
L 1172 3053 
L 1172 1153 
Q 1172 725 1289 603 
Q 1406 481 1766 481 
L 2356 481 
L 2356 0 
L 1766 0 
Q 1100 0 847 248 
Q 594 497 594 1153 
L 594 3053 
L 172 3053 
L 172 3500 
L 594 3500 
L 594 4494 
L 1172 4494 
z
" transform="scale(0.015625)"/>
       <path id="DejaVuSans-65" d="M 3597 1894 
L 3597 1613 
L 953 1613 
Q 991 1019 1311 708 
Q 1631 397 2203 397 
Q 2534 397 2845 478 
Q 3156 559 3463 722 
L 3463 178 
Q 3153 47 2828 -22 
Q 2503 -91 2169 -91 
Q 1331 -91 842 396 
Q 353 884 353 1716 
Q 353 2575 817 3079 
Q 1281 3584 2069 3584 
Q 2775 3584 3186 3129 
Q 3597 2675 3597 1894 
z
M 3022 2063 
Q 3016 2534 2758 2815 
Q 2500 3097 2075 3097 
Q 1594 3097 1305 2825 
Q 1016 2553 972 2059 
L 3022 2063 
z
" transform="scale(0.015625)"/>
       <path id="DejaVuSans-72" d="M 2631 2963 
Q 2534 3019 2420 3045 
Q 2306 3072 2169 3072 
Q 1681 3072 1420 2755 
Q 1159 2438 1159 1844 
L 1159 0 
L 581 0 
L 581 3500 
L 1159 3500 
L 1159 2956 
Q 1341 3275 1631 3429 
Q 1922 3584 2338 3584 
Q 2397 3584 2469 3576 
Q 2541 3569 2628 3553 
L 2631 2963 
z
" transform="scale(0.015625)"/>
       <path id="DejaVuSans-61" d="M 2194 1759 
Q 1497 1759 1228 1600 
Q 959 1441 959 1056 
Q 959 750 1161 570 
Q 1363 391 1709 391 
Q 2188 391 2477 730 
Q 2766 1069 2766 1631 
L 2766 1759 
L 2194 1759 
z
M 3341 1997 
L 3341 0 
L 2766 0 
L 2766 531 
Q 2569 213 2275 61 
Q 1981 -91 1556 -91 
Q 1019 -91 701 211 
Q 384 513 384 1019 
Q 384 1609 779 1909 
Q 1175 2209 1959 2209 
L 2766 2209 
L 2766 2266 
Q 2766 2663 2505 2880 
Q 2244 3097 1772 3097 
Q 1472 3097 1187 3025 
Q 903 2953 641 2809 
L 641 3341 
Q 956 3463 1253 3523 
Q 1550 3584 1831 3584 
Q 2591 3584 2966 3190 
Q 3341 2797 3341 1997 
z
" transform="scale(0.015625)"/>
       <path id="DejaVuSans-6f" d="M 1959 3097 
Q 1497 3097 1228 2736 
Q 959 2375 959 1747 
Q 959 1119 1226 758 
Q 1494 397 1959 397 
Q 2419 397 2687 759 
Q 2956 1122 2956 1747 
Q 2956 2369 2687 2733 
Q 2419 3097 1959 3097 
z
M 1959 3584 
Q 2709 3584 3137 3096 
Q 3566 2609 3566 1747 
Q 3566 888 3137 398 
Q 2709 -91 1959 -91 
Q 1206 -91 779 398 
Q 353 888 353 1747 
Q 353 2609 779 3096 
Q 1206 3584 1959 3584 
z
" transform="scale(0.015625)"/>
       <path id="DejaVuSans-6e" d="M 3513 2113 
L 3513 0 
L 2938 0 
L 2938 2094 
Q 2938 2591 2744 2837 
Q 2550 3084 2163 3084 
Q 1697 3084 1428 2787 
Q 1159 2491 1159 1978 
L 1159 0 
L 581 0 
L 581 3500 
L 1159 3500 
L 1159 2956 
Q 1366 3272 1645 3428 
Q 1925 3584 2291 3584 
Q 2894 3584 3203 3211 
Q 3513 2838 3513 2113 
z
" transform="scale(0.015625)"/>
       <path id="DejaVuSans-73" d="M 2834 3397 
L 2834 2853 
Q 2591 2978 2328 3040 
Q 2066 3103 1784 3103 
Q 1356 3103 1142 2972 
Q 928 2841 928 2578 
Q 928 2378 1081 2264 
Q 1234 2150 1697 2047 
L 1894 2003 
Q 2506 1872 2764 1633 
Q 3022 1394 3022 966 
Q 3022 478 2636 193 
Q 2250 -91 1575 -91 
Q 1294 -91 989 -36 
Q 684 19 347 128 
L 347 722 
Q 666 556 975 473 
Q 1284 391 1588 391 
Q 1994 391 2212 530 
Q 2431 669 2431 922 
Q 2431 1156 2273 1281 
Q 2116 1406 1581 1522 
L 1381 1569 
Q 847 1681 609 1914 
Q 372 2147 372 2553 
Q 372 3047 722 3315 
Q 1072 3584 1716 3584 
Q 2034 3584 2315 3537 
Q 2597 3491 2834 3397 
z
" transform="scale(0.015625)"/>
      </defs>
      <use xlink:href="#DejaVuSans-69"/>
      <use xlink:href="#DejaVuSans-74" x="27.783203"/>
      <use xlink:href="#DejaVuSans-65" x="66.992188"/>
      <use xlink:href="#DejaVuSans-72" x="128.515625"/>
      <use xlink:href="#DejaVuSans-61" x="169.628906"/>
      <use xlink:href="#DejaVuSans-74" x="230.908203"/>
      <use xlink:href="#DejaVuSans-69" x="270.117188"/>
      <use xlink:href="#DejaVuSans-6f" x="297.900391"/>
      <use xlink:href="#DejaVuSans-6e" x="359.082031"/>
      <use xlink:href="#DejaVuSans-73" x="422.460938"/>
     </g>
    </g>
   </g>
   <g id="matplotlib.axis_2">
    <g id="ytick_1">
     <g id="line2d_6">
      <defs>
       <path id="mc3d3d78bce" d="M 0 0 
L -3.5 0 
" style="stroke: #000000; stroke-width: 0.8"/>
      </defs>
      <g>
       <use xlink:href="#mc3d3d78bce" x="92.490625" y="275.383624" style="stroke: #000000; stroke-width: 0.8"/>
      </g>
     </g>
     <g id="text_7">
      <!-- −300 -->
      <g transform="translate(30.55625 282.982061) scale(0.2 -0.2)">
       <defs>
        <path id="DejaVuSans-2212" d="M 678 2272 
L 4684 2272 
L 4684 1741 
L 678 1741 
L 678 2272 
z
" transform="scale(0.015625)"/>
        <path id="DejaVuSans-33" d="M 2597 2516 
Q 3050 2419 3304 2112 
Q 3559 1806 3559 1356 
Q 3559 666 3084 287 
Q 2609 -91 1734 -91 
Q 1441 -91 1130 -33 
Q 819 25 488 141 
L 488 750 
Q 750 597 1062 519 
Q 1375 441 1716 441 
Q 2309 441 2620 675 
Q 2931 909 2931 1356 
Q 2931 1769 2642 2001 
Q 2353 2234 1838 2234 
L 1294 2234 
L 1294 2753 
L 1863 2753 
Q 2328 2753 2575 2939 
Q 2822 3125 2822 3475 
Q 2822 3834 2567 4026 
Q 2313 4219 1838 4219 
Q 1578 4219 1281 4162 
Q 984 4106 628 3988 
L 628 4550 
Q 988 4650 1302 4700 
Q 1616 4750 1894 4750 
Q 2613 4750 3031 4423 
Q 3450 4097 3450 3541 
Q 3450 3153 3228 2886 
Q 3006 2619 2597 2516 
z
" transform="scale(0.015625)"/>
       </defs>
       <use xlink:href="#DejaVuSans-2212"/>
       <use xlink:href="#DejaVuSans-33" x="83.789062"/>
       <use xlink:href="#DejaVuSans-30" x="147.412109"/>
       <use xlink:href="#DejaVuSans-30" x="211.035156"/>
      </g>
     </g>
    </g>
    <g id="ytick_2">
     <g id="line2d_7">
      <g>
       <use xlink:href="#mc3d3d78bce" x="92.490625" y="226.548593" style="stroke: #000000; stroke-width: 0.8"/>
      </g>
     </g>
     <g id="text_8">
      <!-- −200 -->
      <g transform="translate(30.55625 234.147031) scale(0.2 -0.2)">
       <use xlink:href="#DejaVuSans-2212"/>
       <use xlink:href="#DejaVuSans-32" x="83.789062"/>
       <use xlink:href="#DejaVuSans-30" x="147.412109"/>
       <use xlink:href="#DejaVuSans-30" x="211.035156"/>
      </g>
     </g>
    </g>
    <g id="ytick_3">
     <g id="line2d_8">
      <g>
       <use xlink:href="#mc3d3d78bce" x="92.490625" y="177.713563" style="stroke: #000000; stroke-width: 0.8"/>
      </g>
     </g>
     <g id="text_9">
      <!-- −100 -->
      <g transform="translate(30.55625 185.312) scale(0.2 -0.2)">
       <defs>
        <path id="DejaVuSans-31" d="M 794 531 
L 1825 531 
L 1825 4091 
L 703 3866 
L 703 4441 
L 1819 4666 
L 2450 4666 
L 2450 531 
L 3481 531 
L 3481 0 
L 794 0 
L 794 531 
z
" transform="scale(0.015625)"/>
       </defs>
       <use xlink:href="#DejaVuSans-2212"/>
       <use xlink:href="#DejaVuSans-31" x="83.789062"/>
       <use xlink:href="#DejaVuSans-30" x="147.412109"/>
       <use xlink:href="#DejaVuSans-30" x="211.035156"/>
      </g>
     </g>
    </g>
    <g id="ytick_4">
     <g id="line2d_9">
      <g>
       <use xlink:href="#mc3d3d78bce" x="92.490625" y="128.878533" style="stroke: #000000; stroke-width: 0.8"/>
      </g>
     </g>
     <g id="text_10">
      <!-- 0 -->
      <g transform="translate(72.765625 136.47697) scale(0.2 -0.2)">
       <use xlink:href="#DejaVuSans-30"/>
      </g>
     </g>
    </g>
    <g id="ytick_5">
     <g id="line2d_10">
      <g>
       <use xlink:href="#mc3d3d78bce" x="92.490625" y="80.043502" style="stroke: #000000; stroke-width: 0.8"/>
      </g>
     </g>
     <g id="text_11">
      <!-- 100 -->
      <g transform="translate(47.315625 87.64194) scale(0.2 -0.2)">
       <use xlink:href="#DejaVuSans-31"/>
       <use xlink:href="#DejaVuSans-30" x="63.623047"/>
       <use xlink:href="#DejaVuSans-30" x="127.246094"/>
      </g>
     </g>
    </g>
    <g id="text_12">
     <!-- Loss -->
     <g transform="translate(22.396875 191.970625) rotate(-90) scale(0.2 -0.2)">
      <defs>
       <path id="DejaVuSans-4c" d="M 628 4666 
L 1259 4666 
L 1259 531 
L 3531 531 
L 3531 0 
L 628 0 
L 628 4666 
z
" transform="scale(0.015625)"/>
      </defs>
      <use xlink:href="#DejaVuSans-4c"/>
      <use xlink:href="#DejaVuSans-6f" x="53.962891"/>
      <use xlink:href="#DejaVuSans-73" x="115.144531"/>
      <use xlink:href="#DejaVuSans-73" x="167.244141"/>
     </g>
    </g>
   </g>
   <g id="line2d_11">
    <path d="M 117.854261 107.143996 
L 118.417898 57.897655 
L 118.981534 62.589217 
L 119.54517 71.838444 
L 120.108807 72.058068 
L 120.672443 78.835638 
L 121.23608 48.700135 
L 121.799716 69.151889 
L 122.363352 52.930212 
L 122.926989 66.096965 
L 123.490625 66.553032 
L 124.054261 76.876548 
L 124.617898 55.497317 
L 125.181534 51.115701 
L 125.74517 44.03625 
L 126.308807 51.05182 
L 126.872443 50.556376 
L 127.43608 47.220406 
L 127.999716 48.866878 
L 128.563352 59.287779 
L 129.126989 53.814842 
L 130.254261 75.333709 
L 130.817898 66.979208 
L 131.381534 67.998484 
L 132.508807 56.908396 
L 133.072443 56.25427 
L 133.63608 62.683745 
L 134.199716 62.834119 
L 134.763352 61.864756 
L 135.326989 59.659047 
L 135.890625 66.219703 
L 136.454261 64.707216 
L 137.017898 63.601624 
L 137.581534 67.449061 
L 138.14517 60.970884 
L 138.708807 60.75248 
L 139.272443 63.60389 
L 140.963352 58.813955 
L 141.526989 67.023484 
L 142.090625 68.229069 
L 142.654261 64.692444 
L 143.217898 67.37511 
L 143.781534 70.902459 
L 144.34517 69.795967 
L 144.908807 74.728848 
L 145.472443 76.321566 
L 146.03608 77.42436 
L 146.599716 83.33243 
L 147.163352 83.696863 
L 147.726989 81.139497 
L 148.290625 84.503779 
L 148.854261 82.653976 
L 149.417898 83.971179 
L 149.981534 83.117448 
L 150.54517 92.629959 
L 151.108807 90.330475 
L 151.672443 92.275981 
L 152.23608 90.397232 
L 152.799716 85.023339 
L 153.363352 88.471006 
L 153.926989 91.154721 
L 154.490625 90.441416 
L 155.054261 93.864369 
L 155.617898 94.436591 
L 156.181534 92.705835 
L 156.74517 92.095729 
L 157.308807 93.933289 
L 157.872443 93.130061 
L 158.43608 96.57687 
L 158.999716 96.221721 
L 159.563352 97.915892 
L 160.126989 97.105258 
L 160.690625 96.027037 
L 161.254261 98.865555 
L 161.817898 98.462802 
L 162.381534 99.901126 
L 162.94517 98.010141 
L 163.508807 96.744706 
L 164.072443 101.116059 
L 164.63608 101.463043 
L 165.199716 99.407777 
L 165.763352 99.079392 
L 166.326989 101.748936 
L 166.890625 96.373721 
L 167.454261 98.877538 
L 168.017898 98.64235 
L 168.581534 101.755311 
L 169.14517 100.498503 
L 169.708807 100.197472 
L 170.272443 101.359065 
L 170.83608 103.278208 
L 171.399716 101.968927 
L 171.963352 102.623733 
L 172.526989 105.687596 
L 173.090625 105.591574 
L 173.654261 105.222651 
L 174.217898 105.442727 
L 174.781534 105.435291 
L 175.34517 106.080857 
L 175.908807 104.933541 
L 177.03608 105.439361 
L 177.599716 104.112317 
L 178.163352 107.187193 
L 178.726989 105.623654 
L 179.290625 108.334138 
L 179.854261 109.120913 
L 180.417898 108.514233 
L 180.981534 108.621994 
L 181.54517 110.088807 
L 182.108807 107.799802 
L 182.672443 110.200852 
L 183.23608 107.412463 
L 183.799716 110.288919 
L 184.363352 110.331991 
L 184.926989 109.867902 
L 185.490625 112.363599 
L 186.054261 111.384776 
L 186.617898 112.310107 
L 187.181534 111.154051 
L 187.74517 111.986557 
L 188.308807 111.672193 
L 188.872443 113.862704 
L 189.43608 113.19168 
L 189.999716 114.015056 
L 190.563352 115.817951 
L 191.126989 115.191117 
L 191.690625 113.570448 
L 192.254261 114.281939 
L 192.817898 113.887923 
L 193.381534 115.180849 
L 193.94517 113.979114 
L 194.508807 113.208098 
L 195.072443 113.576696 
L 195.63608 112.998 
L 196.199716 113.869487 
L 197.326989 111.773753 
L 197.890625 114.315421 
L 198.454261 114.651964 
L 199.017898 113.95065 
L 199.581534 111.565328 
L 200.14517 113.268465 
L 200.708807 113.723887 
L 201.272443 116.218163 
L 201.83608 116.482947 
L 202.963352 116.223465 
L 203.526989 115.955427 
L 204.654261 116.043666 
L 205.217898 115.516151 
L 205.781534 115.237095 
L 206.34517 115.526654 
L 206.908807 116.500384 
L 207.472443 115.701997 
L 208.03608 115.514227 
L 208.599716 116.566719 
L 209.163352 114.586516 
L 209.726989 113.033838 
L 210.290625 117.386173 
L 210.854261 115.030196 
L 211.417898 116.114283 
L 212.54517 116.685988 
L 213.108807 116.285479 
L 213.672443 116.383238 
L 214.23608 117.809727 
L 214.799716 116.247651 
L 215.926989 117.118397 
L 216.490625 116.978864 
L 217.054261 116.266156 
L 217.617898 116.828591 
L 218.181534 115.704825 
L 218.74517 117.848933 
L 219.308807 117.516695 
L 219.872443 118.217987 
L 220.43608 117.790735 
L 220.999716 117.613888 
L 221.563352 117.925882 
L 222.126989 116.471722 
L 222.690625 116.633613 
L 223.254261 116.587235 
L 223.817898 118.686857 
L 224.381534 117.391465 
L 224.94517 116.579879 
L 225.508807 116.951022 
L 226.072443 118.058637 
L 227.199716 116.99867 
L 227.763352 118.228131 
L 228.326989 118.162169 
L 228.890625 117.314565 
L 229.454261 117.584009 
L 230.017898 116.539411 
L 230.581534 116.131323 
L 231.14517 116.251882 
L 231.708807 117.751235 
L 232.272443 118.780418 
L 232.83608 117.675981 
L 233.399716 117.951128 
L 233.963352 117.44087 
L 234.526989 118.886704 
L 235.090625 119.55603 
L 235.654261 119.246623 
L 236.217898 118.79163 
L 237.34517 118.79812 
L 237.908807 117.778909 
L 238.472443 118.844346 
L 239.03608 119.614259 
L 239.599716 119.138963 
L 240.163352 117.891263 
L 240.726989 118.490706 
L 241.854261 118.425521 
L 242.417898 118.760239 
L 242.981534 117.305008 
L 243.54517 116.889487 
L 244.108807 118.018663 
L 244.672443 117.121134 
L 245.23608 117.851503 
L 245.799716 119.094316 
L 246.363352 118.676769 
L 246.926989 119.082107 
L 247.490625 118.623146 
L 248.054261 117.768881 
L 249.181534 118.825413 
L 249.74517 118.2673 
L 250.308807 119.092046 
L 250.872443 118.887891 
L 251.43608 118.195138 
L 251.999716 118.752301 
L 252.563352 118.149038 
L 253.126989 118.431451 
L 253.690625 119.302395 
L 254.817898 118.081396 
L 255.381534 119.076726 
L 255.94517 120.398914 
L 256.508807 118.94 
L 257.072443 119.590047 
L 258.199716 118.686176 
L 258.763352 119.379729 
L 259.326989 119.397097 
L 259.890625 119.043407 
L 260.454261 119.561633 
L 261.581534 118.768141 
L 262.708807 118.335123 
L 263.83608 119.719201 
L 264.399716 119.506408 
L 264.963352 120.306386 
L 265.526989 119.454758 
L 266.090625 119.946772 
L 266.654261 119.823493 
L 267.217898 120.35784 
L 268.34517 120.023433 
L 268.908807 121.096725 
L 269.472443 120.173311 
L 270.03608 119.595591 
L 270.599716 119.661148 
L 271.163352 120.087533 
L 271.726989 119.862036 
L 272.290625 120.239391 
L 272.854261 120.83174 
L 273.417898 119.818343 
L 273.981534 119.496576 
L 274.54517 120.018282 
L 275.108807 119.449078 
L 275.672443 119.43946 
L 276.23608 121.084304 
L 276.799716 120.896631 
L 277.363352 119.88671 
L 277.926989 121.115615 
L 278.490625 121.079473 
L 279.054261 120.582263 
L 279.617898 121.267944 
L 280.181534 118.883221 
L 280.74517 119.745675 
L 281.308807 121.08311 
L 281.872443 120.034706 
L 282.43608 120.5562 
L 282.999716 120.845277 
L 283.563352 120.157877 
L 284.126989 121.521667 
L 285.254261 121.102262 
L 285.817898 120.238156 
L 286.381534 121.339193 
L 286.94517 120.199512 
L 287.508807 121.283286 
L 288.072443 121.328363 
L 288.63608 121.090805 
L 289.199716 121.248682 
L 289.763352 121.526801 
L 290.326989 121.493453 
L 290.890625 121.636812 
L 291.454261 121.077947 
L 292.017898 121.476202 
L 292.581534 121.201237 
L 293.14517 121.400379 
L 294.272443 122.001312 
L 294.83608 122.243346 
L 295.399716 121.400922 
L 295.963352 121.35934 
L 296.526989 121.848311 
L 297.090625 122.00612 
L 298.217898 122.622874 
L 298.781534 122.336203 
L 299.34517 121.806722 
L 299.908807 122.501442 
L 301.599716 122.077469 
L 302.163352 122.280026 
L 302.726989 122.860493 
L 303.854261 122.665896 
L 304.417898 122.895017 
L 304.981534 122.338507 
L 306.108807 122.451576 
L 307.23608 121.707988 
L 307.799716 122.859794 
L 308.363352 122.667835 
L 309.490625 123.603367 
L 310.054261 123.089229 
L 310.617898 122.382557 
L 311.181534 122.72702 
L 311.74517 123.601962 
L 312.308807 123.963273 
L 312.872443 123.736112 
L 313.43608 123.857175 
L 313.999716 122.995332 
L 314.563352 123.003966 
L 315.126989 123.310766 
L 315.690625 122.64072 
L 316.254261 123.307272 
L 316.817898 124.149156 
L 317.94517 124.441286 
L 318.508807 123.90084 
L 319.072443 124.299631 
L 319.63608 124.292514 
L 320.199716 124.465209 
L 321.326989 124.244183 
L 321.890625 124.511954 
L 322.454261 123.637802 
L 323.017898 124.307783 
L 324.14517 124.127827 
L 324.708807 123.726083 
L 325.83608 123.724214 
L 326.399716 124.74 
L 326.963352 124.949683 
L 327.526989 123.838682 
L 328.090625 123.885097 
L 328.654261 124.16535 
L 329.217898 124.699011 
L 329.781534 124.508582 
L 330.34517 125.245366 
L 331.472443 124.571209 
L 332.03608 125.131734 
L 332.599716 125.363722 
L 333.726989 125.050739 
L 334.290625 125.055236 
L 334.854261 125.719419 
L 335.417898 125.032975 
L 335.981534 125.356857 
L 336.54517 124.376778 
L 337.108807 125.585305 
L 337.672443 125.55837 
L 338.23608 126.362388 
L 338.799716 125.94994 
L 339.363352 126.090182 
L 339.926989 125.831119 
L 341.617898 125.499097 
L 342.181534 125.888574 
L 342.74517 125.332861 
L 343.308807 125.287222 
L 343.872443 125.851303 
L 344.43608 124.967126 
L 345.563352 124.594401 
L 346.126989 125.561248 
L 346.690625 125.775176 
L 347.254261 125.727656 
L 347.817898 125.336836 
L 348.381534 125.301675 
L 348.94517 125.451579 
L 350.072443 124.365278 
L 350.63608 125.077519 
L 351.199716 124.378871 
L 351.763352 125.538634 
L 352.326989 125.434654 
L 352.890625 125.647375 
L 353.454261 125.990991 
L 354.017898 126.135326 
L 354.581534 125.767461 
L 355.14517 125.845781 
L 356.83608 125.635223 
L 357.399716 125.766875 
L 357.963352 125.191649 
L 358.526989 125.427896 
L 359.090625 125.349871 
L 359.654261 125.789513 
L 360.217898 125.161249 
L 361.34517 125.094227 
L 361.908807 124.689431 
L 362.472443 125.550149 
L 363.03608 124.966956 
L 363.599716 125.69994 
L 364.163352 125.228714 
L 364.726989 125.309919 
L 365.290625 125.213436 
L 365.854261 125.708024 
L 366.417898 125.588056 
L 366.981534 125.288172 
L 367.54517 126.054596 
L 368.108807 125.552537 
L 368.672443 125.544268 
L 369.23608 126.226752 
L 369.799716 125.488179 
L 370.363352 125.763466 
L 370.926989 126.171901 
L 371.490625 125.513511 
L 372.054261 125.794149 
L 372.617898 125.658881 
L 373.181534 126.502453 
L 373.74517 126.525528 
L 374.308807 126.031675 
L 374.872443 126.090373 
L 375.43608 125.781718 
L 375.999716 125.779334 
L 376.563352 125.889086 
L 377.126989 126.231628 
L 377.690625 126.440143 
L 378.254261 126.961614 
L 378.817898 126.142468 
L 379.94517 126.914565 
L 380.508807 126.207148 
L 381.63608 126.59136 
L 382.199716 126.02833 
L 383.326989 126.177766 
L 383.890625 125.841597 
L 384.454261 125.92563 
L 385.017898 125.752012 
L 385.581534 126.261588 
L 386.14517 126.077602 
L 386.708807 126.604134 
L 387.272443 126.23771 
L 387.83608 126.861873 
L 388.399716 126.203507 
L 388.963352 126.376087 
L 390.090625 127.224808 
L 390.654261 126.901074 
L 391.217898 126.415117 
L 391.781534 126.696078 
L 392.34517 127.224358 
L 393.472443 126.999313 
L 394.03608 127.609103 
L 394.599716 127.060794 
L 395.163352 127.279437 
L 395.726989 127.929773 
L 396.290625 127.681504 
L 396.854261 126.765478 
L 397.417898 127.210413 
L 397.981534 128.074752 
L 398.54517 127.983863 
L 399.672443 127.600631 
L 400.23608 127.585221 
L 400.799716 127.371201 
L 401.363352 128.154938 
L 403.054261 127.58216 
L 404.74517 128.134644 
L 405.308807 127.549762 
L 405.872443 128.180398 
L 406.43608 128.32243 
L 406.999716 128.220869 
L 407.563352 127.773186 
L 408.126989 128.274126 
L 408.690625 128.375967 
L 410.381534 128.272506 
L 411.508807 127.626651 
L 412.072443 127.882218 
L 412.63608 128.622262 
L 413.199716 128.624273 
L 413.763352 128.380195 
L 415.454261 127.226119 
L 416.017898 127.475618 
L 416.581534 127.335648 
L 417.14517 127.884496 
L 418.272443 128.029227 
L 418.83608 127.075883 
L 419.399716 127.338533 
L 419.963352 128.281584 
L 420.526989 128.207444 
L 421.090625 127.372999 
L 421.654261 127.572064 
L 422.217898 127.077766 
L 423.34517 128.311318 
L 423.908807 128.307992 
L 425.03608 127.580508 
L 425.599716 126.764973 
L 426.163352 127.734314 
L 426.726989 126.768116 
L 427.290625 126.896653 
L 427.854261 126.813981 
L 428.417898 127.304233 
L 428.981534 127.431338 
L 429.54517 126.937992 
L 430.108807 126.795393 
L 430.672443 127.407002 
L 431.799716 127.013732 
L 432.363352 127.122365 
L 432.926989 128.153388 
L 433.490625 126.857992 
L 434.054261 127.826451 
L 434.617898 127.222345 
L 435.181534 127.428328 
L 435.74517 126.994658 
L 436.308807 127.659318 
L 436.872443 126.673171 
L 437.43608 127.574447 
L 437.999716 127.432291 
L 438.563352 128.323104 
L 439.126989 128.007326 
L 439.690625 127.952391 
L 440.254261 127.181402 
L 440.817898 128.105599 
L 441.381534 127.729914 
L 441.94517 128.242449 
L 442.508807 128.175044 
L 443.072443 127.805558 
L 443.63608 128.141651 
L 444.199716 128.10651 
L 444.763352 128.312509 
L 445.326989 127.661634 
L 446.454261 128.423643 
L 447.017898 128.112519 
L 447.581534 128.424213 
L 448.708807 128.212217 
L 449.272443 128.250398 
L 449.83608 127.226366 
L 450.399716 127.538592 
L 450.963352 128.460846 
L 451.526989 128.842332 
L 452.090625 128.382478 
L 452.654261 128.311378 
L 453.217898 129.098682 
L 454.34517 128.93048 
L 455.472443 129.345805 
L 456.03608 129.571246 
L 456.599716 129.133117 
L 457.163352 128.924347 
L 457.726989 129.6165 
L 458.854261 128.979247 
L 459.417898 129.156974 
L 459.981534 128.539898 
L 461.108807 129.568516 
L 461.672443 128.962134 
L 462.23608 128.878142 
L 462.799716 129.052093 
L 463.363352 128.657464 
L 463.926989 128.693572 
L 464.490625 129.237439 
L 465.054261 129.440119 
L 465.617898 128.315439 
L 466.181534 129.084725 
L 466.74517 129.259416 
L 467.308807 129.020508 
L 468.999716 129.65396 
L 469.563352 129.759707 
L 470.126989 129.736929 
L 470.690625 129.989611 
L 471.254261 130.095301 
L 472.94517 129.332092 
L 473.508807 129.546395 
L 474.072443 129.575164 
L 474.63608 129.787767 
L 475.199716 129.783134 
L 476.326989 130.133199 
L 477.454261 129.863755 
L 478.017898 130.226971 
L 478.581534 129.521859 
L 479.14517 129.919794 
L 479.708807 129.266993 
L 480.272443 130.362737 
L 480.83608 129.671953 
L 481.399716 130.100109 
L 481.963352 130.124111 
L 482.526989 130.386335 
L 483.090625 130.077366 
L 483.654261 130.468662 
L 484.217898 130.247035 
L 484.781534 130.502511 
L 485.34517 129.622565 
L 485.908807 130.044121 
L 486.472443 129.637852 
L 487.03608 129.852127 
L 487.599716 129.820835 
L 488.163352 130.095071 
L 488.726989 129.915606 
L 489.290625 130.056417 
L 490.417898 129.681197 
L 490.981534 129.462623 
L 491.54517 129.722866 
L 492.108807 129.678706 
L 492.672443 129.344987 
L 493.23608 129.697922 
L 493.799716 129.556763 
L 494.363352 129.590645 
L 494.926989 129.844723 
L 495.490625 129.945158 
L 496.054261 129.664395 
L 496.617898 130.114712 
L 497.181534 129.91082 
L 497.74517 130.040111 
L 498.308807 129.634323 
L 498.872443 130.2478 
L 499.43608 129.693251 
L 499.999716 129.574529 
L 500.563352 128.501651 
L 501.126989 129.833853 
L 501.690625 129.795103 
L 503.381534 130.259546 
L 503.94517 129.709199 
L 504.508807 130.61436 
L 505.072443 129.822597 
L 505.63608 130.118296 
L 506.199716 129.588654 
L 506.763352 130.485866 
L 507.326989 129.886924 
L 509.017898 130.319328 
L 509.581534 129.869323 
L 510.14517 130.428421 
L 511.272443 129.777697 
L 511.83608 130.069704 
L 512.399716 129.903047 
L 512.963352 130.419247 
L 513.526989 130.241578 
L 514.090625 130.275795 
L 514.654261 130.005742 
L 515.217898 129.965241 
L 516.908807 130.486054 
L 517.472443 130.162824 
L 518.03608 130.53959 
L 518.599716 130.735584 
L 519.163352 130.176004 
L 520.290625 130.229223 
L 520.854261 130.476132 
L 521.417898 130.424463 
L 521.981534 129.924593 
L 522.54517 130.206446 
L 523.108807 130.363919 
L 524.23608 130.355589 
L 524.799716 130.739932 
L 525.363352 130.694598 
L 525.926989 130.334052 
L 526.490625 129.444201 
L 527.054261 129.777074 
L 527.617898 130.248941 
L 528.181534 130.348248 
L 528.74517 130.020741 
L 529.308807 129.961073 
L 529.872443 130.082845 
L 530.43608 130.397618 
L 530.999716 129.982875 
L 531.563352 130.561671 
L 532.126989 130.213164 
L 532.690625 130.604929 
L 533.254261 131.294337 
L 533.817898 130.740751 
L 534.381534 130.589133 
L 534.94517 130.822809 
L 535.508807 130.283417 
L 536.072443 130.68735 
L 536.63608 130.50424 
L 537.199716 129.904625 
L 537.763352 130.646921 
L 538.890625 129.985194 
L 539.454261 129.977035 
L 540.017898 130.223887 
L 540.581534 130.193264 
L 541.14517 129.997993 
L 541.708807 130.135833 
L 542.272443 130.397035 
L 543.399716 130.167881 
L 544.526989 130.305398 
L 545.090625 130.505332 
L 545.654261 130.181581 
L 546.217898 130.489115 
L 547.34517 130.091959 
L 547.908807 129.265459 
L 548.472443 129.368122 
L 549.03608 129.748727 
L 549.599716 129.728249 
L 550.163352 129.272479 
L 550.726989 129.345508 
L 551.290625 129.594932 
L 551.854261 129.031852 
L 552.981534 130.163698 
L 553.54517 130.015808 
L 554.108807 130.398374 
L 554.672443 130.497082 
L 555.23608 130.284284 
L 555.799716 129.895821 
L 556.363352 129.95164 
L 556.926989 130.228593 
L 557.490625 129.924436 
L 558.054261 129.945637 
L 558.617898 129.703161 
L 559.181534 129.928617 
L 559.74517 129.874596 
L 560.308807 129.065751 
L 560.872443 129.610412 
L 561.43608 129.641082 
L 561.999716 130.025137 
L 562.563352 129.282538 
L 563.126989 129.887531 
L 563.690625 129.134435 
L 564.254261 129.5941 
L 564.817898 129.310474 
L 565.381534 129.619078 
L 566.508807 129.876 
L 567.63608 129.413999 
L 568.199716 129.846728 
L 568.763352 129.839309 
L 569.326989 129.532719 
L 569.890625 129.929045 
L 570.454261 129.81411 
L 571.017898 129.001903 
L 572.14517 129.802867 
L 572.708807 129.036354 
L 573.272443 129.566592 
L 573.83608 128.963836 
L 574.399716 129.210057 
L 574.963352 129.202111 
L 575.526989 128.938855 
L 576.090625 128.992754 
L 576.654261 129.552311 
L 577.217898 129.595012 
L 577.781534 129.500006 
L 578.34517 129.81267 
L 578.908807 129.091221 
L 579.472443 129.534045 
L 580.03608 129.779661 
L 580.599716 129.192974 
L 581.163352 129.568089 
L 581.726989 129.663963 
L 582.290625 129.337801 
L 582.854261 129.403436 
L 583.417898 129.2691 
L 583.981534 129.505534 
L 585.108807 129.271972 
L 585.672443 128.770547 
L 586.23608 129.282876 
L 586.799716 128.817693 
L 587.363352 129.648637 
L 588.490625 129.777384 
L 589.054261 129.827788 
L 589.617898 129.643045 
L 590.181534 129.849396 
L 590.74517 129.708486 
L 591.308807 129.771251 
L 591.872443 129.565484 
L 592.43608 130.118856 
L 592.999716 130.012593 
L 593.563352 129.504526 
L 594.126989 129.831151 
L 594.690625 130.334078 
L 595.254261 129.457748 
L 595.817898 129.939677 
L 596.381534 129.908597 
L 596.94517 129.673478 
L 597.508807 129.825302 
L 598.072443 129.424542 
L 598.63608 130.086837 
L 599.199716 129.326513 
L 599.763352 129.394737 
L 600.890625 130.025031 
L 601.454261 129.457657 
L 602.017898 129.465405 
L 602.581534 128.855817 
L 603.708807 129.675592 
L 604.272443 129.273101 
L 604.83608 129.699137 
L 606.526989 129.275913 
L 607.090625 129.060016 
L 607.654261 129.018594 
L 608.217898 129.602737 
L 608.781534 129.918736 
L 609.34517 129.743232 
L 609.908807 129.039499 
L 610.472443 129.410146 
L 611.03608 129.372393 
L 611.599716 129.181139 
L 612.163352 129.177771 
L 612.726989 129.014223 
L 613.290625 129.492857 
L 613.854261 128.96327 
L 614.417898 129.274704 
L 615.54517 129.293524 
L 616.108807 129.699108 
L 616.672443 129.333775 
L 617.23608 129.364506 
L 617.799716 129.227237 
L 618.926989 129.937171 
L 619.490625 129.694828 
L 620.054261 130.339109 
L 620.617898 130.202544 
L 621.181534 129.356784 
L 621.74517 130.455383 
L 622.308807 129.527187 
L 622.872443 128.905974 
L 623.43608 129.542912 
L 623.999716 129.139699 
L 624.563352 129.622053 
L 625.126989 129.102166 
L 625.126989 129.102166 
" clip-path="url(#p8d62ba6fac)" style="fill: none; stroke: #1f77b4; stroke-width: 1.5; stroke-linecap: square"/>
   </g>
   <g id="line2d_12">
    <path d="M 117.854261 296.03625 
L 118.417898 245.888602 
L 118.981534 214.115786 
L 119.54517 230.211874 
L 120.108807 218.599268 
L 120.672443 201.279694 
L 121.23608 204.535087 
L 121.799716 177.439579 
L 122.363352 178.201539 
L 122.926989 178.387096 
L 123.490625 192.048813 
L 124.054261 174.811641 
L 124.617898 173.893449 
L 125.181534 172.251017 
L 125.74517 166.690114 
L 126.308807 165.151511 
L 126.872443 167.933912 
L 127.43608 161.328426 
L 127.999716 164.204354 
L 128.563352 153.408818 
L 129.126989 156.496962 
L 130.254261 141.56019 
L 130.817898 150.693481 
L 131.381534 143.469704 
L 131.94517 147.780062 
L 132.508807 149.479849 
L 133.072443 140.208749 
L 133.63608 138.160794 
L 134.199716 138.65618 
L 134.763352 140.776186 
L 135.326989 140.215124 
L 135.890625 138.391512 
L 136.454261 140.082936 
L 137.017898 140.228622 
L 138.14517 141.201404 
L 138.708807 139.392105 
L 139.272443 138.851676 
L 139.83608 139.384558 
L 140.399716 140.740816 
L 140.963352 142.600893 
L 141.526989 135.421926 
L 142.090625 138.496197 
L 142.654261 137.892038 
L 143.781534 136.234525 
L 144.34517 136.311622 
L 144.908807 135.915689 
L 145.472443 136.605064 
L 146.03608 134.887215 
L 146.599716 133.797282 
L 147.163352 134.763648 
L 147.726989 135.471295 
L 148.290625 135.576047 
L 148.854261 136.308094 
L 149.417898 136.853589 
L 149.981534 136.368541 
L 150.54517 134.730041 
L 151.108807 135.079856 
L 151.672443 134.857729 
L 152.23608 135.928269 
L 152.799716 135.902864 
L 153.363352 135.479767 
L 153.926989 136.290746 
L 154.490625 135.345801 
L 155.617898 134.136329 
L 156.181534 135.905185 
L 156.74517 134.292529 
L 157.308807 133.586184 
L 157.872443 134.703917 
L 158.43608 134.803726 
L 158.999716 133.847583 
L 159.563352 133.400648 
L 160.126989 134.508056 
L 160.690625 134.677574 
L 161.254261 133.207451 
L 161.817898 133.966004 
L 162.381534 133.320137 
L 162.94517 133.888563 
L 163.508807 133.800353 
L 164.072443 134.327242 
L 164.63608 133.302039 
L 165.199716 133.276394 
L 166.890625 133.938771 
L 167.454261 134.482109 
L 168.017898 133.800864 
L 168.581534 133.419586 
L 169.14517 133.970658 
L 170.272443 133.536974 
L 170.83608 133.03475 
L 171.399716 132.734868 
L 171.963352 133.151006 
L 172.526989 133.268245 
L 173.090625 133.664162 
L 173.654261 132.938008 
L 174.217898 133.474141 
L 174.781534 133.107742 
L 175.34517 133.13171 
L 175.908807 133.333721 
L 176.472443 133.905861 
L 177.03608 133.8752 
L 177.599716 133.058296 
L 178.163352 132.906614 
L 178.726989 133.401837 
L 179.290625 132.611227 
L 180.417898 133.527885 
L 180.981534 132.677103 
L 181.54517 133.470667 
L 182.108807 133.101942 
L 182.672443 132.407692 
L 183.23608 132.923927 
L 184.363352 133.133008 
L 184.926989 132.127532 
L 185.490625 132.148788 
L 186.054261 132.723923 
L 186.617898 132.550499 
L 187.181534 132.696816 
L 188.308807 132.730674 
L 188.872443 132.97607 
L 189.999716 131.981124 
L 190.563352 132.270329 
L 191.126989 132.740458 
L 191.690625 132.811208 
L 192.254261 133.022354 
L 192.817898 132.379132 
L 193.381534 132.85824 
L 193.94517 132.55696 
L 194.508807 132.710993 
L 195.63608 132.46765 
L 196.763352 132.807079 
L 197.326989 132.556555 
L 197.890625 132.440168 
L 198.454261 132.202275 
L 199.017898 132.521364 
L 199.581534 133.040405 
L 200.14517 132.525261 
L 200.708807 132.330627 
L 201.272443 131.793893 
L 201.83608 132.032172 
L 202.399716 131.869341 
L 202.963352 131.536319 
L 203.526989 131.891923 
L 204.090625 131.570927 
L 204.654261 132.110183 
L 205.217898 132.442361 
L 205.781534 132.353453 
L 206.34517 131.994056 
L 206.908807 132.252207 
L 207.472443 132.03052 
L 208.03608 132.59314 
L 208.599716 132.12911 
L 209.163352 133.529531 
L 209.726989 132.898776 
L 210.290625 131.845893 
L 210.854261 132.623624 
L 211.417898 132.22945 
L 211.981534 132.143768 
L 212.54517 132.356335 
L 213.108807 131.998474 
L 213.672443 132.373811 
L 214.23608 132.069205 
L 214.799716 132.132424 
L 215.363352 132.017815 
L 215.926989 132.31129 
L 216.490625 132.154329 
L 217.054261 132.182232 
L 217.617898 132.54397 
L 218.181534 132.546299 
L 218.74517 132.055983 
L 219.308807 132.3148 
L 219.872443 131.939997 
L 220.999716 132.088832 
L 221.563352 132.0281 
L 222.126989 132.726062 
L 222.690625 132.686055 
L 223.254261 132.429676 
L 223.817898 131.888833 
L 224.381534 132.689105 
L 224.94517 131.980631 
L 226.072443 132.405713 
L 226.63608 132.911299 
L 227.199716 132.242697 
L 228.890625 133.309819 
L 229.454261 132.617213 
L 230.017898 132.793237 
L 230.581534 133.184172 
L 231.14517 132.898692 
L 231.708807 132.476888 
L 232.83608 132.775752 
L 233.399716 132.19803 
L 233.963352 133.001959 
L 234.526989 132.551494 
L 235.090625 132.281968 
L 235.654261 132.615187 
L 236.217898 132.264056 
L 236.781534 132.511456 
L 237.34517 132.562455 
L 237.908807 132.196387 
L 239.03608 132.509296 
L 239.599716 132.625033 
L 241.290625 132.23886 
L 241.854261 132.926132 
L 242.417898 132.622763 
L 242.981534 132.725486 
L 243.54517 134.327361 
L 244.108807 131.88328 
L 244.672443 132.567378 
L 245.23608 132.624808 
L 245.799716 132.867478 
L 246.363352 132.078352 
L 246.926989 132.298725 
L 247.490625 132.375235 
L 248.054261 132.899031 
L 248.617898 132.299455 
L 249.74517 132.698965 
L 250.308807 132.749106 
L 250.872443 132.572047 
L 251.43608 132.735333 
L 251.999716 132.501331 
L 252.563352 132.445749 
L 253.126989 132.800844 
L 253.690625 132.599577 
L 254.254261 132.528069 
L 254.817898 133.418649 
L 255.381534 132.304059 
L 255.94517 132.693067 
L 256.508807 132.084031 
L 257.072443 132.523896 
L 257.63608 132.600118 
L 258.763352 133.298588 
L 259.326989 132.386039 
L 260.454261 133.19902 
L 261.017898 132.739007 
L 261.581534 133.198867 
L 262.14517 132.736262 
L 262.708807 133.412287 
L 263.272443 132.808439 
L 263.83608 132.475197 
L 264.399716 132.640403 
L 264.963352 132.634424 
L 265.526989 133.023913 
L 266.090625 132.313796 
L 266.654261 133.014596 
L 267.217898 132.573859 
L 267.781534 132.310629 
L 268.34517 132.751505 
L 268.908807 132.027011 
L 269.472443 132.637068 
L 270.03608 131.997341 
L 270.599716 132.65365 
L 271.726989 132.254952 
L 272.290625 133.166727 
L 272.854261 133.161044 
L 273.417898 132.868057 
L 274.54517 132.715886 
L 275.108807 133.313758 
L 275.672443 133.259094 
L 276.23608 132.374664 
L 276.799716 132.370019 
L 277.363352 133.122317 
L 278.490625 132.516071 
L 279.054261 132.596273 
L 279.617898 134.212614 
L 280.181534 132.868127 
L 281.308807 133.448304 
L 281.872443 132.497697 
L 282.43608 132.84084 
L 282.999716 132.998419 
L 284.126989 132.979176 
L 284.690625 133.124053 
L 285.254261 132.775361 
L 285.817898 133.26447 
L 286.381534 133.447651 
L 286.94517 132.831682 
L 287.508807 132.643544 
L 288.072443 132.71595 
L 288.63608 133.071013 
L 289.199716 133.205481 
L 290.326989 133.018732 
L 290.890625 133.177562 
L 291.454261 133.212742 
L 292.017898 133.070536 
L 292.581534 132.7111 
L 293.14517 132.619717 
L 294.272443 132.757311 
L 294.83608 132.287485 
L 295.399716 132.917935 
L 295.963352 132.7582 
L 296.526989 132.74229 
L 297.090625 133.203917 
L 297.654261 132.704265 
L 298.217898 132.688085 
L 298.781534 133.394741 
L 299.908807 132.715876 
L 300.472443 132.583073 
L 301.03608 133.363201 
L 301.599716 133.218542 
L 302.163352 133.327864 
L 303.290625 133.046398 
L 304.417898 132.391266 
L 304.981534 132.746404 
L 306.108807 132.579992 
L 306.672443 133.6675 
L 307.23608 133.153177 
L 307.799716 131.871708 
L 308.363352 132.866669 
L 309.490625 132.529901 
L 310.054261 131.081888 
L 310.617898 132.932414 
L 311.181534 132.085451 
L 311.74517 132.760385 
L 312.308807 132.146346 
L 312.872443 132.88974 
L 313.43608 132.563737 
L 313.999716 133.069097 
L 314.563352 133.365032 
L 315.126989 132.478084 
L 315.690625 132.902677 
L 316.254261 132.039826 
L 316.817898 132.423971 
L 317.381534 131.618577 
L 317.94517 132.19232 
L 318.508807 132.203069 
L 319.072443 132.514157 
L 319.63608 131.714142 
L 320.199716 131.917348 
L 320.763352 132.424369 
L 321.890625 132.100815 
L 323.017898 132.229428 
L 323.581534 132.13933 
L 324.14517 132.49344 
L 324.708807 132.105242 
L 325.272443 132.713502 
L 325.83608 132.33379 
L 326.399716 132.39439 
L 326.963352 132.209234 
L 327.526989 132.594199 
L 328.090625 132.673185 
L 328.654261 132.636544 
L 329.217898 132.045622 
L 329.781534 132.008696 
L 330.34517 132.296281 
L 330.908807 132.24379 
L 331.472443 132.629577 
L 332.03608 132.472327 
L 332.599716 132.670994 
L 333.163352 132.354122 
L 333.726989 132.323109 
L 334.290625 132.050248 
L 334.854261 132.447097 
L 335.417898 132.604512 
L 335.981534 132.27953 
L 336.54517 132.520756 
L 337.108807 132.360568 
L 337.672443 132.645127 
L 338.23608 132.133955 
L 338.799716 132.289025 
L 339.363352 132.21375 
L 339.926989 132.499823 
L 340.490625 132.318607 
L 341.054261 132.631839 
L 341.617898 132.517404 
L 342.181534 132.130841 
L 343.872443 132.7143 
L 344.43608 132.746425 
L 346.690625 132.34459 
L 347.254261 132.324889 
L 348.381534 132.673226 
L 348.94517 132.289639 
L 350.072443 132.640017 
L 350.63608 132.315031 
L 351.763352 132.864238 
L 352.890625 132.427692 
L 353.454261 132.489386 
L 354.017898 132.695802 
L 354.581534 132.442031 
L 355.14517 132.444117 
L 355.708807 132.791402 
L 356.272443 132.49101 
L 356.83608 132.756234 
L 357.399716 132.738034 
L 357.963352 133.154523 
L 358.526989 132.749366 
L 359.090625 132.783611 
L 359.654261 132.704427 
L 360.217898 132.845462 
L 361.34517 132.135485 
L 361.908807 132.562593 
L 364.726989 132.575102 
L 365.290625 132.82337 
L 365.854261 132.520394 
L 366.417898 132.787151 
L 366.981534 132.848905 
L 367.54517 132.732427 
L 368.672443 132.34149 
L 369.23608 132.569255 
L 369.799716 132.546035 
L 370.363352 132.382392 
L 370.926989 132.401055 
L 371.490625 132.942796 
L 372.054261 132.836618 
L 372.617898 132.045046 
L 373.181534 132.712118 
L 373.74517 132.475609 
L 375.999716 132.068622 
L 376.563352 132.852751 
L 377.126989 132.256039 
L 378.254261 132.592666 
L 378.817898 132.348413 
L 379.381534 132.303566 
L 379.94517 132.914314 
L 380.508807 132.387026 
L 381.072443 132.243224 
L 381.63608 132.85367 
L 383.326989 132.076505 
L 384.454261 132.539537 
L 385.017898 132.486669 
L 385.581534 132.644096 
L 387.272443 132.471121 
L 387.83608 132.113016 
L 388.399716 132.344418 
L 388.963352 132.339665 
L 389.526989 132.469396 
L 390.654261 133.01542 
L 391.217898 132.548661 
L 391.781534 132.326819 
L 392.34517 131.941895 
L 392.908807 132.629059 
L 393.472443 132.41616 
L 394.03608 132.777514 
L 394.599716 132.625445 
L 395.163352 132.205738 
L 395.726989 132.573852 
L 396.290625 132.351475 
L 396.854261 132.738733 
L 397.417898 132.609102 
L 397.981534 132.661179 
L 398.54517 132.248434 
L 399.108807 132.676072 
L 399.672443 132.574415 
L 400.23608 132.616665 
L 400.799716 132.074958 
L 401.363352 132.590863 
L 401.926989 132.401085 
L 402.490625 132.366064 
L 403.617898 132.649835 
L 404.181534 131.936974 
L 404.74517 132.337399 
L 405.308807 132.525656 
L 405.872443 132.230222 
L 406.999716 132.167707 
L 407.563352 132.493532 
L 408.126989 132.462083 
L 409.254261 132.110215 
L 409.817898 132.661394 
L 410.381534 132.257731 
L 410.94517 132.707855 
L 412.072443 132.689304 
L 412.63608 132.23817 
L 413.199716 132.636134 
L 413.763352 132.398538 
L 414.326989 131.929444 
L 415.454261 132.252696 
L 416.017898 132.351063 
L 416.581534 132.641152 
L 417.14517 131.990749 
L 417.708807 132.540849 
L 418.272443 131.671488 
L 419.399716 132.12717 
L 419.963352 132.034189 
L 421.090625 132.369767 
L 421.654261 131.803189 
L 422.781534 132.095206 
L 423.34517 132.051681 
L 423.908807 132.303661 
L 425.599716 132.161085 
L 426.163352 131.967513 
L 426.726989 132.354161 
L 427.290625 131.975016 
L 427.854261 132.182796 
L 428.417898 132.544544 
L 428.981534 131.972249 
L 430.108807 131.915321 
L 430.672443 132.331115 
L 431.799716 131.816527 
L 432.363352 132.304512 
L 432.926989 132.377821 
L 433.490625 132.626734 
L 434.054261 131.688815 
L 434.617898 131.714281 
L 435.181534 131.614019 
L 435.74517 132.079389 
L 436.308807 132.188325 
L 436.872443 132.439305 
L 437.43608 131.979743 
L 437.999716 132.116415 
L 438.563352 132.016496 
L 439.126989 131.69748 
L 440.254261 131.803803 
L 440.817898 132.211845 
L 441.94517 131.57137 
L 443.072443 131.918404 
L 444.199716 131.618256 
L 444.763352 131.558009 
L 445.326989 132.026717 
L 445.890625 131.699965 
L 446.454261 131.870529 
L 447.017898 131.543193 
L 447.581534 132.062371 
L 448.14517 131.957107 
L 448.708807 132.110093 
L 449.272443 132.470885 
L 449.83608 131.054369 
L 450.399716 131.723853 
L 450.963352 131.715947 
L 451.526989 132.028528 
L 452.654261 131.659274 
L 453.217898 132.247391 
L 453.781534 131.672925 
L 454.34517 131.597974 
L 454.908807 131.732283 
L 455.472443 131.699916 
L 456.599716 131.758162 
L 457.163352 131.795467 
L 457.726989 131.673372 
L 458.290625 131.809686 
L 459.417898 131.494584 
L 459.981534 131.954713 
L 461.108807 131.584319 
L 461.672443 131.833002 
L 462.799716 131.703295 
L 463.363352 131.677965 
L 463.926989 131.992524 
L 464.490625 131.968231 
L 465.054261 131.450183 
L 465.617898 131.479969 
L 466.181534 131.844268 
L 467.872443 132.008511 
L 468.43608 131.809393 
L 468.999716 131.492316 
L 469.563352 131.757611 
L 470.690625 131.993016 
L 471.254261 131.637031 
L 471.817898 131.938927 
L 472.381534 131.774237 
L 472.94517 131.964773 
L 474.072443 131.895405 
L 474.63608 131.948727 
L 475.199716 131.515204 
L 476.326989 132.207389 
L 476.890625 131.735948 
L 477.454261 132.070266 
L 478.017898 131.860781 
L 478.581534 132.190618 
L 481.963352 131.559104 
L 482.526989 131.671975 
L 483.090625 131.950997 
L 483.654261 131.896108 
L 484.217898 131.64032 
L 484.781534 131.933831 
L 485.908807 131.75569 
L 487.599716 132.094871 
L 488.163352 131.759928 
L 488.726989 132.166826 
L 489.290625 131.618161 
L 489.854261 131.561967 
L 490.417898 131.859707 
L 491.54517 132.088196 
L 492.108807 132.030596 
L 492.672443 131.648646 
L 493.23608 131.550221 
L 493.799716 131.971596 
L 494.363352 131.857384 
L 494.926989 131.878065 
L 496.054261 131.605734 
L 496.617898 131.69852 
L 497.181534 131.660687 
L 497.74517 131.775266 
L 498.308807 131.438046 
L 498.872443 131.552678 
L 499.43608 131.396635 
L 500.563352 131.83833 
L 501.126989 131.473621 
L 501.690625 131.635664 
L 502.254261 131.678527 
L 502.817898 131.920461 
L 503.381534 131.773751 
L 503.94517 132.306822 
L 504.508807 131.304828 
L 505.072443 131.778464 
L 505.63608 131.538824 
L 506.199716 131.763851 
L 506.763352 131.714413 
L 507.326989 131.429222 
L 507.890625 131.819786 
L 508.454261 131.845981 
L 509.017898 131.56035 
L 510.14517 132.002589 
L 510.708807 131.722383 
L 512.399716 131.521583 
L 512.963352 131.46646 
L 514.090625 131.50372 
L 514.654261 131.938737 
L 515.217898 131.92355 
L 515.781534 132.035225 
L 516.908807 131.24189 
L 517.472443 131.710644 
L 518.03608 131.549152 
L 518.599716 131.866717 
L 519.163352 131.670899 
L 519.726989 132.145703 
L 520.290625 131.633061 
L 520.854261 132.025985 
L 521.417898 131.635501 
L 521.981534 131.846807 
L 522.54517 131.586124 
L 523.108807 131.59473 
L 523.672443 131.844681 
L 524.23608 131.914229 
L 524.799716 131.781952 
L 525.363352 131.862954 
L 525.926989 131.612892 
L 526.490625 132.049388 
L 527.617898 131.710847 
L 528.74517 131.814407 
L 530.999716 131.633862 
L 531.563352 131.919696 
L 532.126989 131.889533 
L 532.690625 131.308385 
L 533.254261 131.816644 
L 533.817898 131.87194 
L 534.381534 132.250742 
L 534.94517 131.864412 
L 535.508807 132.072855 
L 537.199716 131.621402 
L 537.763352 132.11461 
L 538.890625 131.885377 
L 539.454261 131.685562 
L 540.581534 132.014241 
L 541.14517 131.842992 
L 541.708807 131.883854 
L 542.272443 131.669728 
L 543.399716 132.134826 
L 543.963352 132.196674 
L 544.526989 131.534695 
L 545.090625 132.15809 
L 546.217898 131.824913 
L 546.781534 131.623415 
L 547.34517 131.993667 
L 547.908807 131.661674 
L 549.03608 131.780232 
L 549.599716 132.19422 
L 550.163352 131.92404 
L 550.726989 132.082007 
L 551.854261 131.905608 
L 552.417898 131.992586 
L 552.981534 131.585773 
L 553.54517 131.977195 
L 554.108807 131.712126 
L 555.23608 131.844544 
L 555.799716 131.698864 
L 556.363352 131.845577 
L 556.926989 131.667254 
L 557.490625 132.02546 
L 559.181534 131.764295 
L 560.308807 132.132961 
L 560.872443 132.054161 
L 561.43608 132.244216 
L 561.999716 132.261325 
L 562.563352 131.83644 
L 563.126989 132.054553 
L 563.690625 132.070764 
L 564.254261 131.745654 
L 564.817898 131.886346 
L 566.508807 131.744843 
L 567.072443 132.091431 
L 568.199716 131.787761 
L 568.763352 131.802511 
L 569.326989 131.600847 
L 571.017898 131.84851 
L 571.581534 131.834268 
L 572.14517 131.674467 
L 572.708807 132.130691 
L 573.83608 131.613253 
L 574.399716 132.004221 
L 574.963352 131.64069 
L 575.526989 131.919935 
L 576.090625 131.977815 
L 576.654261 131.861181 
L 577.217898 131.879449 
L 577.781534 132.129206 
L 578.34517 132.586272 
L 578.908807 132.397014 
L 579.472443 132.374833 
L 580.599716 131.922759 
L 582.290625 132.166175 
L 582.854261 131.987028 
L 583.417898 132.20129 
L 583.981534 131.900301 
L 584.54517 132.454928 
L 585.108807 131.965419 
L 587.926989 131.995658 
L 588.490625 131.694976 
L 589.054261 131.820483 
L 589.617898 132.268407 
L 590.181534 131.81003 
L 591.872443 132.331839 
L 592.43608 132.089079 
L 592.999716 132.156123 
L 594.126989 131.914557 
L 594.690625 131.779056 
L 595.254261 132.429212 
L 595.817898 132.035896 
L 596.381534 132.156378 
L 596.94517 131.920942 
L 597.508807 132.067177 
L 598.63608 131.7994 
L 599.199716 132.076494 
L 599.763352 131.892182 
L 600.326989 132.137919 
L 600.890625 131.956273 
L 602.581534 132.317842 
L 604.83608 132.052113 
L 605.399716 132.360091 
L 605.963352 132.15185 
L 606.526989 132.561835 
L 607.090625 132.520409 
L 607.654261 132.730541 
L 608.217898 132.36537 
L 610.472443 132.09182 
L 611.599716 132.482762 
L 612.163352 132.309271 
L 612.726989 131.982322 
L 613.290625 132.079422 
L 613.854261 131.983711 
L 614.417898 132.030987 
L 614.981534 132.357754 
L 615.54517 132.456726 
L 616.108807 132.059792 
L 616.672443 132.039161 
L 617.23608 132.164013 
L 617.799716 131.927215 
L 618.926989 132.157801 
L 619.490625 132.131282 
L 620.054261 132.28258 
L 620.617898 132.155762 
L 621.181534 132.3389 
L 622.308807 131.681194 
L 622.872443 132.035336 
L 624.563352 131.958351 
L 625.126989 131.752352 
L 625.126989 131.752352 
" clip-path="url(#p8d62ba6fac)" style="fill: none; stroke: #ff7f0e; stroke-width: 1.5; stroke-linecap: square"/>
   </g>
   <g id="patch_3">
    <path d="M 92.490625 308.63625 
L 92.490625 31.43625 
" style="fill: none; stroke: #000000; stroke-width: 0.8; stroke-linejoin: miter; stroke-linecap: square"/>
   </g>
   <g id="patch_4">
    <path d="M 650.490625 308.63625 
L 650.490625 31.43625 
" style="fill: none; stroke: #000000; stroke-width: 0.8; stroke-linejoin: miter; stroke-linecap: square"/>
   </g>
   <g id="patch_5">
    <path d="M 92.490625 308.63625 
L 650.490625 308.63625 
" style="fill: none; stroke: #000000; stroke-width: 0.8; stroke-linejoin: miter; stroke-linecap: square"/>
   </g>
   <g id="patch_6">
    <path d="M 92.490625 31.43625 
L 650.490625 31.43625 
" style="fill: none; stroke: #000000; stroke-width: 0.8; stroke-linejoin: miter; stroke-linecap: square"/>
   </g>
   <g id="text_13">
    <!-- Generator and Discriminator Loss During Training -->
    <g transform="translate(74.258125 25.43625) scale(0.24 -0.24)">
     <defs>
      <path id="DejaVuSans-47" d="M 3809 666 
L 3809 1919 
L 2778 1919 
L 2778 2438 
L 4434 2438 
L 4434 434 
Q 4069 175 3628 42 
Q 3188 -91 2688 -91 
Q 1594 -91 976 548 
Q 359 1188 359 2328 
Q 359 3472 976 4111 
Q 1594 4750 2688 4750 
Q 3144 4750 3555 4637 
Q 3966 4525 4313 4306 
L 4313 3634 
Q 3963 3931 3569 4081 
Q 3175 4231 2741 4231 
Q 1884 4231 1454 3753 
Q 1025 3275 1025 2328 
Q 1025 1384 1454 906 
Q 1884 428 2741 428 
Q 3075 428 3337 486 
Q 3600 544 3809 666 
z
" transform="scale(0.015625)"/>
      <path id="DejaVuSans-20" transform="scale(0.015625)"/>
      <path id="DejaVuSans-64" d="M 2906 2969 
L 2906 4863 
L 3481 4863 
L 3481 0 
L 2906 0 
L 2906 525 
Q 2725 213 2448 61 
Q 2172 -91 1784 -91 
Q 1150 -91 751 415 
Q 353 922 353 1747 
Q 353 2572 751 3078 
Q 1150 3584 1784 3584 
Q 2172 3584 2448 3432 
Q 2725 3281 2906 2969 
z
M 947 1747 
Q 947 1113 1208 752 
Q 1469 391 1925 391 
Q 2381 391 2643 752 
Q 2906 1113 2906 1747 
Q 2906 2381 2643 2742 
Q 2381 3103 1925 3103 
Q 1469 3103 1208 2742 
Q 947 2381 947 1747 
z
" transform="scale(0.015625)"/>
      <path id="DejaVuSans-44" d="M 1259 4147 
L 1259 519 
L 2022 519 
Q 2988 519 3436 956 
Q 3884 1394 3884 2338 
Q 3884 3275 3436 3711 
Q 2988 4147 2022 4147 
L 1259 4147 
z
M 628 4666 
L 1925 4666 
Q 3281 4666 3915 4102 
Q 4550 3538 4550 2338 
Q 4550 1131 3912 565 
Q 3275 0 1925 0 
L 628 0 
L 628 4666 
z
" transform="scale(0.015625)"/>
      <path id="DejaVuSans-63" d="M 3122 3366 
L 3122 2828 
Q 2878 2963 2633 3030 
Q 2388 3097 2138 3097 
Q 1578 3097 1268 2742 
Q 959 2388 959 1747 
Q 959 1106 1268 751 
Q 1578 397 2138 397 
Q 2388 397 2633 464 
Q 2878 531 3122 666 
L 3122 134 
Q 2881 22 2623 -34 
Q 2366 -91 2075 -91 
Q 1284 -91 818 406 
Q 353 903 353 1747 
Q 353 2603 823 3093 
Q 1294 3584 2113 3584 
Q 2378 3584 2631 3529 
Q 2884 3475 3122 3366 
z
" transform="scale(0.015625)"/>
      <path id="DejaVuSans-6d" d="M 3328 2828 
Q 3544 3216 3844 3400 
Q 4144 3584 4550 3584 
Q 5097 3584 5394 3201 
Q 5691 2819 5691 2113 
L 5691 0 
L 5113 0 
L 5113 2094 
Q 5113 2597 4934 2840 
Q 4756 3084 4391 3084 
Q 3944 3084 3684 2787 
Q 3425 2491 3425 1978 
L 3425 0 
L 2847 0 
L 2847 2094 
Q 2847 2600 2669 2842 
Q 2491 3084 2119 3084 
Q 1678 3084 1418 2786 
Q 1159 2488 1159 1978 
L 1159 0 
L 581 0 
L 581 3500 
L 1159 3500 
L 1159 2956 
Q 1356 3278 1631 3431 
Q 1906 3584 2284 3584 
Q 2666 3584 2933 3390 
Q 3200 3197 3328 2828 
z
" transform="scale(0.015625)"/>
      <path id="DejaVuSans-75" d="M 544 1381 
L 544 3500 
L 1119 3500 
L 1119 1403 
Q 1119 906 1312 657 
Q 1506 409 1894 409 
Q 2359 409 2629 706 
Q 2900 1003 2900 1516 
L 2900 3500 
L 3475 3500 
L 3475 0 
L 2900 0 
L 2900 538 
Q 2691 219 2414 64 
Q 2138 -91 1772 -91 
Q 1169 -91 856 284 
Q 544 659 544 1381 
z
M 1991 3584 
L 1991 3584 
z
" transform="scale(0.015625)"/>
      <path id="DejaVuSans-67" d="M 2906 1791 
Q 2906 2416 2648 2759 
Q 2391 3103 1925 3103 
Q 1463 3103 1205 2759 
Q 947 2416 947 1791 
Q 947 1169 1205 825 
Q 1463 481 1925 481 
Q 2391 481 2648 825 
Q 2906 1169 2906 1791 
z
M 3481 434 
Q 3481 -459 3084 -895 
Q 2688 -1331 1869 -1331 
Q 1566 -1331 1297 -1286 
Q 1028 -1241 775 -1147 
L 775 -588 
Q 1028 -725 1275 -790 
Q 1522 -856 1778 -856 
Q 2344 -856 2625 -561 
Q 2906 -266 2906 331 
L 2906 616 
Q 2728 306 2450 153 
Q 2172 0 1784 0 
Q 1141 0 747 490 
Q 353 981 353 1791 
Q 353 2603 747 3093 
Q 1141 3584 1784 3584 
Q 2172 3584 2450 3431 
Q 2728 3278 2906 2969 
L 2906 3500 
L 3481 3500 
L 3481 434 
z
" transform="scale(0.015625)"/>
      <path id="DejaVuSans-54" d="M -19 4666 
L 3928 4666 
L 3928 4134 
L 2272 4134 
L 2272 0 
L 1638 0 
L 1638 4134 
L -19 4134 
L -19 4666 
z
" transform="scale(0.015625)"/>
     </defs>
     <use xlink:href="#DejaVuSans-47"/>
     <use xlink:href="#DejaVuSans-65" x="77.490234"/>
     <use xlink:href="#DejaVuSans-6e" x="139.013672"/>
     <use xlink:href="#DejaVuSans-65" x="202.392578"/>
     <use xlink:href="#DejaVuSans-72" x="263.916016"/>
     <use xlink:href="#DejaVuSans-61" x="305.029297"/>
     <use xlink:href="#DejaVuSans-74" x="366.308594"/>
     <use xlink:href="#DejaVuSans-6f" x="405.517578"/>
     <use xlink:href="#DejaVuSans-72" x="466.699219"/>
     <use xlink:href="#DejaVuSans-20" x="507.8125"/>
     <use xlink:href="#DejaVuSans-61" x="539.599609"/>
     <use xlink:href="#DejaVuSans-6e" x="600.878906"/>
     <use xlink:href="#DejaVuSans-64" x="664.257812"/>
     <use xlink:href="#DejaVuSans-20" x="727.734375"/>
     <use xlink:href="#DejaVuSans-44" x="759.521484"/>
     <use xlink:href="#DejaVuSans-69" x="836.523438"/>
     <use xlink:href="#DejaVuSans-73" x="864.306641"/>
     <use xlink:href="#DejaVuSans-63" x="916.40625"/>
     <use xlink:href="#DejaVuSans-72" x="971.386719"/>
     <use xlink:href="#DejaVuSans-69" x="1012.5"/>
     <use xlink:href="#DejaVuSans-6d" x="1040.283203"/>
     <use xlink:href="#DejaVuSans-69" x="1137.695312"/>
     <use xlink:href="#DejaVuSans-6e" x="1165.478516"/>
     <use xlink:href="#DejaVuSans-61" x="1228.857422"/>
     <use xlink:href="#DejaVuSans-74" x="1290.136719"/>
     <use xlink:href="#DejaVuSans-6f" x="1329.345703"/>
     <use xlink:href="#DejaVuSans-72" x="1390.527344"/>
     <use xlink:href="#DejaVuSans-20" x="1431.640625"/>
     <use xlink:href="#DejaVuSans-4c" x="1463.427734"/>
     <use xlink:href="#DejaVuSans-6f" x="1517.390625"/>
     <use xlink:href="#DejaVuSans-73" x="1578.572266"/>
     <use xlink:href="#DejaVuSans-73" x="1630.671875"/>
     <use xlink:href="#DejaVuSans-20" x="1682.771484"/>
     <use xlink:href="#DejaVuSans-44" x="1714.558594"/>
     <use xlink:href="#DejaVuSans-75" x="1791.560547"/>
     <use xlink:href="#DejaVuSans-72" x="1854.939453"/>
     <use xlink:href="#DejaVuSans-69" x="1896.052734"/>
     <use xlink:href="#DejaVuSans-6e" x="1923.835938"/>
     <use xlink:href="#DejaVuSans-67" x="1987.214844"/>
     <use xlink:href="#DejaVuSans-20" x="2050.691406"/>
     <use xlink:href="#DejaVuSans-54" x="2082.478516"/>
     <use xlink:href="#DejaVuSans-72" x="2128.8125"/>
     <use xlink:href="#DejaVuSans-61" x="2169.925781"/>
     <use xlink:href="#DejaVuSans-69" x="2231.205078"/>
     <use xlink:href="#DejaVuSans-6e" x="2258.988281"/>
     <use xlink:href="#DejaVuSans-69" x="2322.367188"/>
     <use xlink:href="#DejaVuSans-6e" x="2350.150391"/>
     <use xlink:href="#DejaVuSans-67" x="2413.529297"/>
    </g>
   </g>
   <g id="legend_1">
    <g id="patch_7">
     <path d="M 556.99375 106.14875 
L 636.490625 106.14875 
Q 640.490625 106.14875 640.490625 102.14875 
L 640.490625 45.43625 
Q 640.490625 41.43625 636.490625 41.43625 
L 556.99375 41.43625 
Q 552.99375 41.43625 552.99375 45.43625 
L 552.99375 102.14875 
Q 552.99375 106.14875 556.99375 106.14875 
z
" style="fill: #ffffff; opacity: 0.8; stroke: #cccccc; stroke-linejoin: miter"/>
    </g>
    <g id="line2d_13">
     <path d="M 560.99375 57.633125 
L 580.99375 57.633125 
L 600.99375 57.633125 
" style="fill: none; stroke: #1f77b4; stroke-width: 1.5; stroke-linecap: square"/>
    </g>
    <g id="text_14">
     <!-- G -->
     <g transform="translate(616.99375 64.633125) scale(0.2 -0.2)">
      <use xlink:href="#DejaVuSans-47"/>
     </g>
    </g>
    <g id="line2d_14">
     <path d="M 560.99375 86.989375 
L 580.99375 86.989375 
L 600.99375 86.989375 
" style="fill: none; stroke: #ff7f0e; stroke-width: 1.5; stroke-linecap: square"/>
    </g>
    <g id="text_15">
     <!-- D -->
     <g transform="translate(616.99375 93.989375) scale(0.2 -0.2)">
      <use xlink:href="#DejaVuSans-44"/>
     </g>
    </g>
   </g>
  </g>
 </g>
 <defs>
  <clipPath id="p8d62ba6fac">
   <rect x="92.490625" y="31.43625" width="558" height="277.2"/>
  </clipPath>
 </defs>
</svg>
