<?xml version="1.0" encoding="utf-8" standalone="no"?>
<!DOCTYPE svg PUBLIC "-//W3C//DTD SVG 1.1//EN"
  "http://www.w3.org/Graphics/SVG/1.1/DTD/svg11.dtd">
<svg xmlns:xlink="http://www.w3.org/1999/xlink" width="675.923125pt" height="365.54875pt" viewBox="0 0 675.923125 365.54875" xmlns="http://www.w3.org/2000/svg" version="1.1">
 <metadata>
  <rdf:RDF xmlns:dc="http://purl.org/dc/elements/1.1/" xmlns:cc="http://creativecommons.org/ns#" xmlns:rdf="http://www.w3.org/1999/02/22-rdf-syntax-ns#">
   <cc:Work>
    <dc:type rdf:resource="http://purl.org/dc/dcmitype/StillImage"/>
    <dc:date>2024-02-04T17:46:16.191060</dc:date>
    <dc:format>image/svg+xml</dc:format>
    <dc:creator>
     <cc:Agent>
      <dc:title>Matplotlib v3.7.2, https://matplotlib.org/</dc:title>
     </cc:Agent>
    </dc:creator>
   </cc:Work>
  </rdf:RDF>
 </metadata>
 <defs>
  <style type="text/css">*{stroke-linejoin: round; stroke-linecap: butt}</style>
 </defs>
 <g id="figure_1">
  <g id="patch_1">
   <path d="M 0 365.54875 
L 675.923125 365.54875 
L 675.923125 -0 
L 0 -0 
z
" style="fill: #ffffff"/>
  </g>
  <g id="axes_1">
   <g id="patch_2">
    <path d="M 92.490625 308.63625 
L 650.490625 308.63625 
L 650.490625 31.43625 
L 92.490625 31.43625 
z
" style="fill: #ffffff"/>
   </g>
   <g id="matplotlib.axis_1">
    <g id="xtick_1">
     <g id="line2d_1">
      <defs>
       <path id="m0ea011d129" d="M 0 0 
L 0 3.5 
" style="stroke: #000000; stroke-width: 0.8"/>
      </defs>
      <g>
       <use xlink:href="#m0ea011d129" x="117.854261" y="308.63625" style="stroke: #000000; stroke-width: 0.8"/>
      </g>
     </g>
     <g id="text_1">
      <!-- 0 -->
      <g transform="translate(111.491761 330.833125) scale(0.2 -0.2)">
       <defs>
        <path id="DejaVuSans-30" d="M 2034 4250 
Q 1547 4250 1301 3770 
Q 1056 3291 1056 2328 
Q 1056 1369 1301 889 
Q 1547 409 2034 409 
Q 2525 409 2770 889 
Q 3016 1369 3016 2328 
Q 3016 3291 2770 3770 
Q 2525 4250 2034 4250 
z
M 2034 4750 
Q 2819 4750 3233 4129 
Q 3647 3509 3647 2328 
Q 3647 1150 3233 529 
Q 2819 -91 2034 -91 
Q 1250 -91 836 529 
Q 422 1150 422 2328 
Q 422 3509 836 4129 
Q 1250 4750 2034 4750 
z
" transform="scale(0.015625)"/>
       </defs>
       <use xlink:href="#DejaVuSans-30"/>
      </g>
     </g>
    </g>
    <g id="xtick_2">
     <g id="line2d_2">
      <g>
       <use xlink:href="#m0ea011d129" x="190.321794" y="308.63625" style="stroke: #000000; stroke-width: 0.8"/>
      </g>
     </g>
     <g id="text_2">
      <!-- 100 -->
      <g transform="translate(171.234294 330.833125) scale(0.2 -0.2)">
       <defs>
        <path id="DejaVuSans-31" d="M 794 531 
L 1825 531 
L 1825 4091 
L 703 3866 
L 703 4441 
L 1819 4666 
L 2450 4666 
L 2450 531 
L 3481 531 
L 3481 0 
L 794 0 
L 794 531 
z
" transform="scale(0.015625)"/>
       </defs>
       <use xlink:href="#DejaVuSans-31"/>
       <use xlink:href="#DejaVuSans-30" x="63.623047"/>
       <use xlink:href="#DejaVuSans-30" x="127.246094"/>
      </g>
     </g>
    </g>
    <g id="xtick_3">
     <g id="line2d_3">
      <g>
       <use xlink:href="#m0ea011d129" x="262.789326" y="308.63625" style="stroke: #000000; stroke-width: 0.8"/>
      </g>
     </g>
     <g id="text_3">
      <!-- 200 -->
      <g transform="translate(243.701826 330.833125) scale(0.2 -0.2)">
       <defs>
        <path id="DejaVuSans-32" d="M 1228 531 
L 3431 531 
L 3431 0 
L 469 0 
L 469 531 
Q 828 903 1448 1529 
Q 2069 2156 2228 2338 
Q 2531 2678 2651 2914 
Q 2772 3150 2772 3378 
Q 2772 3750 2511 3984 
Q 2250 4219 1831 4219 
Q 1534 4219 1204 4116 
Q 875 4013 500 3803 
L 500 4441 
Q 881 4594 1212 4672 
Q 1544 4750 1819 4750 
Q 2544 4750 2975 4387 
Q 3406 4025 3406 3419 
Q 3406 3131 3298 2873 
Q 3191 2616 2906 2266 
Q 2828 2175 2409 1742 
Q 1991 1309 1228 531 
z
" transform="scale(0.015625)"/>
       </defs>
       <use xlink:href="#DejaVuSans-32"/>
       <use xlink:href="#DejaVuSans-30" x="63.623047"/>
       <use xlink:href="#DejaVuSans-30" x="127.246094"/>
      </g>
     </g>
    </g>
    <g id="xtick_4">
     <g id="line2d_4">
      <g>
       <use xlink:href="#m0ea011d129" x="335.256859" y="308.63625" style="stroke: #000000; stroke-width: 0.8"/>
      </g>
     </g>
     <g id="text_4">
      <!-- 300 -->
      <g transform="translate(316.169359 330.833125) scale(0.2 -0.2)">
       <defs>
        <path id="DejaVuSans-33" d="M 2597 2516 
Q 3050 2419 3304 2112 
Q 3559 1806 3559 1356 
Q 3559 666 3084 287 
Q 2609 -91 1734 -91 
Q 1441 -91 1130 -33 
Q 819 25 488 141 
L 488 750 
Q 750 597 1062 519 
Q 1375 441 1716 441 
Q 2309 441 2620 675 
Q 2931 909 2931 1356 
Q 2931 1769 2642 2001 
Q 2353 2234 1838 2234 
L 1294 2234 
L 1294 2753 
L 1863 2753 
Q 2328 2753 2575 2939 
Q 2822 3125 2822 3475 
Q 2822 3834 2567 4026 
Q 2313 4219 1838 4219 
Q 1578 4219 1281 4162 
Q 984 4106 628 3988 
L 628 4550 
Q 988 4650 1302 4700 
Q 1616 4750 1894 4750 
Q 2613 4750 3031 4423 
Q 3450 4097 3450 3541 
Q 3450 3153 3228 2886 
Q 3006 2619 2597 2516 
z
" transform="scale(0.015625)"/>
       </defs>
       <use xlink:href="#DejaVuSans-33"/>
       <use xlink:href="#DejaVuSans-30" x="63.623047"/>
       <use xlink:href="#DejaVuSans-30" x="127.246094"/>
      </g>
     </g>
    </g>
    <g id="xtick_5">
     <g id="line2d_5">
      <g>
       <use xlink:href="#m0ea011d129" x="407.724391" y="308.63625" style="stroke: #000000; stroke-width: 0.8"/>
      </g>
     </g>
     <g id="text_5">
      <!-- 400 -->
      <g transform="translate(388.636891 330.833125) scale(0.2 -0.2)">
       <defs>
        <path id="DejaVuSans-34" d="M 2419 4116 
L 825 1625 
L 2419 1625 
L 2419 4116 
z
M 2253 4666 
L 3047 4666 
L 3047 1625 
L 3713 1625 
L 3713 1100 
L 3047 1100 
L 3047 0 
L 2419 0 
L 2419 1100 
L 313 1100 
L 313 1709 
L 2253 4666 
z
" transform="scale(0.015625)"/>
       </defs>
       <use xlink:href="#DejaVuSans-34"/>
       <use xlink:href="#DejaVuSans-30" x="63.623047"/>
       <use xlink:href="#DejaVuSans-30" x="127.246094"/>
      </g>
     </g>
    </g>
    <g id="xtick_6">
     <g id="line2d_6">
      <g>
       <use xlink:href="#m0ea011d129" x="480.191924" y="308.63625" style="stroke: #000000; stroke-width: 0.8"/>
      </g>
     </g>
     <g id="text_6">
      <!-- 500 -->
      <g transform="translate(461.104424 330.833125) scale(0.2 -0.2)">
       <defs>
        <path id="DejaVuSans-35" d="M 691 4666 
L 3169 4666 
L 3169 4134 
L 1269 4134 
L 1269 2991 
Q 1406 3038 1543 3061 
Q 1681 3084 1819 3084 
Q 2600 3084 3056 2656 
Q 3513 2228 3513 1497 
Q 3513 744 3044 326 
Q 2575 -91 1722 -91 
Q 1428 -91 1123 -41 
Q 819 9 494 109 
L 494 744 
Q 775 591 1075 516 
Q 1375 441 1709 441 
Q 2250 441 2565 725 
Q 2881 1009 2881 1497 
Q 2881 1984 2565 2268 
Q 2250 2553 1709 2553 
Q 1456 2553 1204 2497 
Q 953 2441 691 2322 
L 691 4666 
z
" transform="scale(0.015625)"/>
       </defs>
       <use xlink:href="#DejaVuSans-35"/>
       <use xlink:href="#DejaVuSans-30" x="63.623047"/>
       <use xlink:href="#DejaVuSans-30" x="127.246094"/>
      </g>
     </g>
    </g>
    <g id="xtick_7">
     <g id="line2d_7">
      <g>
       <use xlink:href="#m0ea011d129" x="552.659456" y="308.63625" style="stroke: #000000; stroke-width: 0.8"/>
      </g>
     </g>
     <g id="text_7">
      <!-- 600 -->
      <g transform="translate(533.571956 330.833125) scale(0.2 -0.2)">
       <defs>
        <path id="DejaVuSans-36" d="M 2113 2584 
Q 1688 2584 1439 2293 
Q 1191 2003 1191 1497 
Q 1191 994 1439 701 
Q 1688 409 2113 409 
Q 2538 409 2786 701 
Q 3034 994 3034 1497 
Q 3034 2003 2786 2293 
Q 2538 2584 2113 2584 
z
M 3366 4563 
L 3366 3988 
Q 3128 4100 2886 4159 
Q 2644 4219 2406 4219 
Q 1781 4219 1451 3797 
Q 1122 3375 1075 2522 
Q 1259 2794 1537 2939 
Q 1816 3084 2150 3084 
Q 2853 3084 3261 2657 
Q 3669 2231 3669 1497 
Q 3669 778 3244 343 
Q 2819 -91 2113 -91 
Q 1303 -91 875 529 
Q 447 1150 447 2328 
Q 447 3434 972 4092 
Q 1497 4750 2381 4750 
Q 2619 4750 2861 4703 
Q 3103 4656 3366 4563 
z
" transform="scale(0.015625)"/>
       </defs>
       <use xlink:href="#DejaVuSans-36"/>
       <use xlink:href="#DejaVuSans-30" x="63.623047"/>
       <use xlink:href="#DejaVuSans-30" x="127.246094"/>
      </g>
     </g>
    </g>
    <g id="xtick_8">
     <g id="line2d_8">
      <g>
       <use xlink:href="#m0ea011d129" x="625.126989" y="308.63625" style="stroke: #000000; stroke-width: 0.8"/>
      </g>
     </g>
     <g id="text_8">
      <!-- 700 -->
      <g transform="translate(606.039489 330.833125) scale(0.2 -0.2)">
       <defs>
        <path id="DejaVuSans-37" d="M 525 4666 
L 3525 4666 
L 3525 4397 
L 1831 0 
L 1172 0 
L 2766 4134 
L 525 4134 
L 525 4666 
z
" transform="scale(0.015625)"/>
       </defs>
       <use xlink:href="#DejaVuSans-37"/>
       <use xlink:href="#DejaVuSans-30" x="63.623047"/>
       <use xlink:href="#DejaVuSans-30" x="127.246094"/>
      </g>
     </g>
    </g>
    <g id="text_9">
     <!-- iterations -->
     <g transform="translate(324.035938 354.189375) scale(0.2 -0.2)">
      <defs>
       <path id="DejaVuSans-69" d="M 603 3500 
L 1178 3500 
L 1178 0 
L 603 0 
L 603 3500 
z
M 603 4863 
L 1178 4863 
L 1178 4134 
L 603 4134 
L 603 4863 
z
" transform="scale(0.015625)"/>
       <path id="DejaVuSans-74" d="M 1172 4494 
L 1172 3500 
L 2356 3500 
L 2356 3053 
L 1172 3053 
L 1172 1153 
Q 1172 725 1289 603 
Q 1406 481 1766 481 
L 2356 481 
L 2356 0 
L 1766 0 
Q 1100 0 847 248 
Q 594 497 594 1153 
L 594 3053 
L 172 3053 
L 172 3500 
L 594 3500 
L 594 4494 
L 1172 4494 
z
" transform="scale(0.015625)"/>
       <path id="DejaVuSans-65" d="M 3597 1894 
L 3597 1613 
L 953 1613 
Q 991 1019 1311 708 
Q 1631 397 2203 397 
Q 2534 397 2845 478 
Q 3156 559 3463 722 
L 3463 178 
Q 3153 47 2828 -22 
Q 2503 -91 2169 -91 
Q 1331 -91 842 396 
Q 353 884 353 1716 
Q 353 2575 817 3079 
Q 1281 3584 2069 3584 
Q 2775 3584 3186 3129 
Q 3597 2675 3597 1894 
z
M 3022 2063 
Q 3016 2534 2758 2815 
Q 2500 3097 2075 3097 
Q 1594 3097 1305 2825 
Q 1016 2553 972 2059 
L 3022 2063 
z
" transform="scale(0.015625)"/>
       <path id="DejaVuSans-72" d="M 2631 2963 
Q 2534 3019 2420 3045 
Q 2306 3072 2169 3072 
Q 1681 3072 1420 2755 
Q 1159 2438 1159 1844 
L 1159 0 
L 581 0 
L 581 3500 
L 1159 3500 
L 1159 2956 
Q 1341 3275 1631 3429 
Q 1922 3584 2338 3584 
Q 2397 3584 2469 3576 
Q 2541 3569 2628 3553 
L 2631 2963 
z
" transform="scale(0.015625)"/>
       <path id="DejaVuSans-61" d="M 2194 1759 
Q 1497 1759 1228 1600 
Q 959 1441 959 1056 
Q 959 750 1161 570 
Q 1363 391 1709 391 
Q 2188 391 2477 730 
Q 2766 1069 2766 1631 
L 2766 1759 
L 2194 1759 
z
M 3341 1997 
L 3341 0 
L 2766 0 
L 2766 531 
Q 2569 213 2275 61 
Q 1981 -91 1556 -91 
Q 1019 -91 701 211 
Q 384 513 384 1019 
Q 384 1609 779 1909 
Q 1175 2209 1959 2209 
L 2766 2209 
L 2766 2266 
Q 2766 2663 2505 2880 
Q 2244 3097 1772 3097 
Q 1472 3097 1187 3025 
Q 903 2953 641 2809 
L 641 3341 
Q 956 3463 1253 3523 
Q 1550 3584 1831 3584 
Q 2591 3584 2966 3190 
Q 3341 2797 3341 1997 
z
" transform="scale(0.015625)"/>
       <path id="DejaVuSans-6f" d="M 1959 3097 
Q 1497 3097 1228 2736 
Q 959 2375 959 1747 
Q 959 1119 1226 758 
Q 1494 397 1959 397 
Q 2419 397 2687 759 
Q 2956 1122 2956 1747 
Q 2956 2369 2687 2733 
Q 2419 3097 1959 3097 
z
M 1959 3584 
Q 2709 3584 3137 3096 
Q 3566 2609 3566 1747 
Q 3566 888 3137 398 
Q 2709 -91 1959 -91 
Q 1206 -91 779 398 
Q 353 888 353 1747 
Q 353 2609 779 3096 
Q 1206 3584 1959 3584 
z
" transform="scale(0.015625)"/>
       <path id="DejaVuSans-6e" d="M 3513 2113 
L 3513 0 
L 2938 0 
L 2938 2094 
Q 2938 2591 2744 2837 
Q 2550 3084 2163 3084 
Q 1697 3084 1428 2787 
Q 1159 2491 1159 1978 
L 1159 0 
L 581 0 
L 581 3500 
L 1159 3500 
L 1159 2956 
Q 1366 3272 1645 3428 
Q 1925 3584 2291 3584 
Q 2894 3584 3203 3211 
Q 3513 2838 3513 2113 
z
" transform="scale(0.015625)"/>
       <path id="DejaVuSans-73" d="M 2834 3397 
L 2834 2853 
Q 2591 2978 2328 3040 
Q 2066 3103 1784 3103 
Q 1356 3103 1142 2972 
Q 928 2841 928 2578 
Q 928 2378 1081 2264 
Q 1234 2150 1697 2047 
L 1894 2003 
Q 2506 1872 2764 1633 
Q 3022 1394 3022 966 
Q 3022 478 2636 193 
Q 2250 -91 1575 -91 
Q 1294 -91 989 -36 
Q 684 19 347 128 
L 347 722 
Q 666 556 975 473 
Q 1284 391 1588 391 
Q 1994 391 2212 530 
Q 2431 669 2431 922 
Q 2431 1156 2273 1281 
Q 2116 1406 1581 1522 
L 1381 1569 
Q 847 1681 609 1914 
Q 372 2147 372 2553 
Q 372 3047 722 3315 
Q 1072 3584 1716 3584 
Q 2034 3584 2315 3537 
Q 2597 3491 2834 3397 
z
" transform="scale(0.015625)"/>
      </defs>
      <use xlink:href="#DejaVuSans-69"/>
      <use xlink:href="#DejaVuSans-74" x="27.783203"/>
      <use xlink:href="#DejaVuSans-65" x="66.992188"/>
      <use xlink:href="#DejaVuSans-72" x="128.515625"/>
      <use xlink:href="#DejaVuSans-61" x="169.628906"/>
      <use xlink:href="#DejaVuSans-74" x="230.908203"/>
      <use xlink:href="#DejaVuSans-69" x="270.117188"/>
      <use xlink:href="#DejaVuSans-6f" x="297.900391"/>
      <use xlink:href="#DejaVuSans-6e" x="359.082031"/>
      <use xlink:href="#DejaVuSans-73" x="422.460938"/>
     </g>
    </g>
   </g>
   <g id="matplotlib.axis_2">
    <g id="ytick_1">
     <g id="line2d_9">
      <defs>
       <path id="m5be00065a4" d="M 0 0 
L -3.5 0 
" style="stroke: #000000; stroke-width: 0.8"/>
      </defs>
      <g>
       <use xlink:href="#m5be00065a4" x="92.490625" y="275.383624" style="stroke: #000000; stroke-width: 0.8"/>
      </g>
     </g>
     <g id="text_10">
      <!-- −300 -->
      <g transform="translate(30.55625 282.982061) scale(0.2 -0.2)">
       <defs>
        <path id="DejaVuSans-2212" d="M 678 2272 
L 4684 2272 
L 4684 1741 
L 678 1741 
L 678 2272 
z
" transform="scale(0.015625)"/>
       </defs>
       <use xlink:href="#DejaVuSans-2212"/>
       <use xlink:href="#DejaVuSans-33" x="83.789062"/>
       <use xlink:href="#DejaVuSans-30" x="147.412109"/>
       <use xlink:href="#DejaVuSans-30" x="211.035156"/>
      </g>
     </g>
    </g>
    <g id="ytick_2">
     <g id="line2d_10">
      <g>
       <use xlink:href="#m5be00065a4" x="92.490625" y="226.548593" style="stroke: #000000; stroke-width: 0.8"/>
      </g>
     </g>
     <g id="text_11">
      <!-- −200 -->
      <g transform="translate(30.55625 234.147031) scale(0.2 -0.2)">
       <use xlink:href="#DejaVuSans-2212"/>
       <use xlink:href="#DejaVuSans-32" x="83.789062"/>
       <use xlink:href="#DejaVuSans-30" x="147.412109"/>
       <use xlink:href="#DejaVuSans-30" x="211.035156"/>
      </g>
     </g>
    </g>
    <g id="ytick_3">
     <g id="line2d_11">
      <g>
       <use xlink:href="#m5be00065a4" x="92.490625" y="177.713563" style="stroke: #000000; stroke-width: 0.8"/>
      </g>
     </g>
     <g id="text_12">
      <!-- −100 -->
      <g transform="translate(30.55625 185.312) scale(0.2 -0.2)">
       <use xlink:href="#DejaVuSans-2212"/>
       <use xlink:href="#DejaVuSans-31" x="83.789062"/>
       <use xlink:href="#DejaVuSans-30" x="147.412109"/>
       <use xlink:href="#DejaVuSans-30" x="211.035156"/>
      </g>
     </g>
    </g>
    <g id="ytick_4">
     <g id="line2d_12">
      <g>
       <use xlink:href="#m5be00065a4" x="92.490625" y="128.878533" style="stroke: #000000; stroke-width: 0.8"/>
      </g>
     </g>
     <g id="text_13">
      <!-- 0 -->
      <g transform="translate(72.765625 136.47697) scale(0.2 -0.2)">
       <use xlink:href="#DejaVuSans-30"/>
      </g>
     </g>
    </g>
    <g id="ytick_5">
     <g id="line2d_13">
      <g>
       <use xlink:href="#m5be00065a4" x="92.490625" y="80.043502" style="stroke: #000000; stroke-width: 0.8"/>
      </g>
     </g>
     <g id="text_14">
      <!-- 100 -->
      <g transform="translate(47.315625 87.64194) scale(0.2 -0.2)">
       <use xlink:href="#DejaVuSans-31"/>
       <use xlink:href="#DejaVuSans-30" x="63.623047"/>
       <use xlink:href="#DejaVuSans-30" x="127.246094"/>
      </g>
     </g>
    </g>
    <g id="text_15">
     <!-- Loss -->
     <g transform="translate(22.396875 191.970625) rotate(-90) scale(0.2 -0.2)">
      <defs>
       <path id="DejaVuSans-4c" d="M 628 4666 
L 1259 4666 
L 1259 531 
L 3531 531 
L 3531 0 
L 628 0 
L 628 4666 
z
" transform="scale(0.015625)"/>
      </defs>
      <use xlink:href="#DejaVuSans-4c"/>
      <use xlink:href="#DejaVuSans-6f" x="53.962891"/>
      <use xlink:href="#DejaVuSans-73" x="115.144531"/>
      <use xlink:href="#DejaVuSans-73" x="167.244141"/>
     </g>
    </g>
   </g>
   <g id="line2d_14">
    <path d="M 117.854261 107.143996 
L 118.578937 57.897655 
L 119.303612 62.589217 
L 120.028287 71.838444 
L 120.752963 72.058068 
L 121.477638 78.835638 
L 122.202313 48.700135 
L 122.926989 69.151889 
L 123.651664 52.930212 
L 124.376339 66.096965 
L 125.101015 66.553032 
L 125.82569 76.876548 
L 126.550365 55.497317 
L 127.275041 51.115701 
L 127.999716 44.03625 
L 128.724391 51.05182 
L 129.449067 50.556376 
L 130.173742 47.220406 
L 130.898417 48.866878 
L 131.623093 59.287779 
L 132.347768 53.814842 
L 133.797119 75.333709 
L 134.521794 66.979208 
L 135.246469 67.998484 
L 136.69582 56.908396 
L 137.420495 56.25427 
L 138.14517 62.683745 
L 138.869846 62.834119 
L 139.594521 61.864756 
L 140.319196 59.659047 
L 141.043872 66.219703 
L 141.768547 64.707216 
L 142.493222 63.601624 
L 143.217898 67.449061 
L 143.942573 60.970884 
L 144.667248 60.75248 
L 145.391924 63.60389 
L 147.56595 58.813955 
L 148.290625 67.023484 
L 149.0153 68.229069 
L 149.739976 64.692444 
L 150.464651 67.37511 
L 151.189326 70.902459 
L 151.914002 69.795967 
L 152.638677 74.728848 
L 153.363352 76.321566 
L 154.088028 77.42436 
L 154.812703 83.33243 
L 155.537378 83.696863 
L 156.262054 81.139497 
L 156.986729 84.503779 
L 157.711404 82.653976 
L 158.43608 83.971179 
L 159.160755 83.117448 
L 159.88543 92.629959 
L 160.610106 90.330475 
L 161.334781 92.275981 
L 162.059456 90.397232 
L 162.784131 85.023339 
L 163.508807 88.471006 
L 164.233482 91.154721 
L 164.958157 90.441416 
L 165.682833 93.864369 
L 166.407508 94.436591 
L 167.132183 92.705835 
L 167.856859 92.095729 
L 168.581534 93.933289 
L 169.306209 93.130061 
L 170.030885 96.57687 
L 170.75556 96.221721 
L 171.480235 97.915892 
L 172.204911 97.105258 
L 172.929586 96.027037 
L 173.654261 98.865555 
L 174.378937 98.462802 
L 175.103612 99.901126 
L 175.828287 98.010141 
L 176.552963 96.744706 
L 177.277638 101.116059 
L 178.002313 101.463043 
L 178.726989 99.407777 
L 179.451664 99.079392 
L 180.176339 101.748936 
L 180.901015 96.373721 
L 181.62569 98.877538 
L 182.350365 98.64235 
L 183.075041 101.755311 
L 183.799716 100.498503 
L 184.524391 100.197472 
L 185.249067 101.359065 
L 185.973742 103.278208 
L 186.698417 101.968927 
L 187.423093 102.623733 
L 188.147768 105.687596 
L 188.872443 105.591574 
L 189.597119 105.222651 
L 190.321794 105.442727 
L 191.046469 105.435291 
L 191.771144 106.080857 
L 192.49582 104.933541 
L 193.94517 105.439361 
L 194.669846 104.112317 
L 195.394521 107.187193 
L 196.119196 105.623654 
L 196.843872 108.334138 
L 197.568547 109.120913 
L 198.293222 108.514233 
L 199.017898 108.621994 
L 199.742573 110.088807 
L 200.467248 107.799802 
L 201.191924 110.200852 
L 201.916599 107.412463 
L 202.641274 110.288919 
L 203.36595 110.331991 
L 204.090625 109.867902 
L 204.8153 112.363599 
L 205.539976 111.384776 
L 206.264651 112.310107 
L 206.989326 111.154051 
L 207.714002 111.986557 
L 208.438677 111.672193 
L 209.163352 113.862704 
L 209.888028 113.19168 
L 210.612703 114.015056 
L 211.337378 115.817951 
L 212.062054 115.191117 
L 212.786729 113.570448 
L 213.511404 114.281939 
L 214.23608 113.887923 
L 214.960755 115.180849 
L 215.68543 113.979114 
L 216.410106 113.208098 
L 217.134781 113.576696 
L 217.859456 112.998 
L 218.584131 113.869487 
L 220.033482 111.773753 
L 220.758157 114.315421 
L 221.482833 114.651964 
L 222.207508 113.95065 
L 222.932183 111.565328 
L 223.656859 113.268465 
L 224.381534 113.723887 
L 225.106209 116.218163 
L 225.830885 116.482947 
L 227.280235 116.223465 
L 228.004911 115.955427 
L 229.454261 116.043666 
L 230.178937 115.516151 
L 230.903612 115.237095 
L 231.628287 115.526654 
L 232.352963 116.500384 
L 233.077638 115.701997 
L 233.802313 115.514227 
L 234.526989 116.566719 
L 235.251664 114.586516 
L 235.976339 113.033838 
L 236.701015 117.386173 
L 237.42569 115.030196 
L 238.150365 116.114283 
L 239.599716 116.685988 
L 240.324391 116.285479 
L 241.049067 116.383238 
L 241.773742 117.809727 
L 242.498417 116.247651 
L 243.947768 117.118397 
L 244.672443 116.978864 
L 245.397119 116.266156 
L 246.121794 116.828591 
L 246.846469 115.704825 
L 247.571144 117.848933 
L 248.29582 117.516695 
L 249.020495 118.217987 
L 249.74517 117.790735 
L 250.469846 117.613888 
L 251.194521 117.925882 
L 251.919196 116.471722 
L 252.643872 116.633613 
L 253.368547 116.587235 
L 254.093222 118.686857 
L 254.817898 117.391465 
L 255.542573 116.579879 
L 256.267248 116.951022 
L 256.991924 118.058637 
L 258.441274 116.99867 
L 259.16595 118.228131 
L 259.890625 118.162169 
L 260.6153 117.314565 
L 261.339976 117.584009 
L 262.064651 116.539411 
L 262.789326 116.131323 
L 263.514002 116.251882 
L 264.238677 117.751235 
L 264.963352 118.780418 
L 265.688028 117.675981 
L 266.412703 117.951128 
L 267.137378 117.44087 
L 267.862054 118.886704 
L 268.586729 119.55603 
L 269.311404 119.246623 
L 270.03608 118.79163 
L 271.48543 118.79812 
L 272.210106 117.778909 
L 272.934781 118.844346 
L 273.659456 119.614259 
L 274.384131 119.138963 
L 275.108807 117.891263 
L 275.833482 118.490706 
L 277.282833 118.425521 
L 278.007508 118.760239 
L 278.732183 117.305008 
L 279.456859 116.889487 
L 280.181534 118.018663 
L 280.906209 117.121134 
L 281.630885 117.851503 
L 282.35556 119.094316 
L 283.080235 118.676769 
L 283.804911 119.082107 
L 284.529586 118.623146 
L 285.254261 117.768881 
L 286.703612 118.825413 
L 287.428287 118.2673 
L 288.152963 119.092046 
L 288.877638 118.887891 
L 289.602313 118.195138 
L 290.326989 118.752301 
L 291.051664 118.149038 
L 291.776339 118.431451 
L 292.501015 119.302395 
L 293.950365 118.081396 
L 294.675041 119.076726 
L 295.399716 120.398914 
L 296.124391 118.94 
L 296.849067 119.590047 
L 298.298417 118.686176 
L 299.023093 119.379729 
L 299.747768 119.397097 
L 300.472443 119.043407 
L 301.197119 119.561633 
L 302.646469 118.768141 
L 304.09582 118.335123 
L 305.54517 119.719201 
L 306.269846 119.506408 
L 306.994521 120.306386 
L 307.719196 119.454758 
L 308.443872 119.946772 
L 309.168547 119.823493 
L 309.893222 120.35784 
L 311.342573 120.023433 
L 312.067248 121.096725 
L 312.791924 120.173311 
L 313.516599 119.595591 
L 314.241274 119.661148 
L 314.96595 120.087533 
L 315.690625 119.862036 
L 316.4153 120.239391 
L 317.139976 120.83174 
L 317.864651 119.818343 
L 318.589326 119.496576 
L 319.314002 120.018282 
L 320.038677 119.449078 
L 320.763352 119.43946 
L 321.488028 121.084304 
L 322.212703 120.896631 
L 322.937378 119.88671 
L 323.662054 121.115615 
L 324.386729 121.079473 
L 325.111404 120.582263 
L 325.83608 121.267944 
L 326.560755 118.883221 
L 327.28543 119.745675 
L 328.010106 121.08311 
L 328.734781 120.034706 
L 329.459456 120.5562 
L 330.184131 120.845277 
L 330.908807 120.157877 
L 331.633482 121.521667 
L 332.358157 121.369442 
L 333.082833 121.102262 
L 333.807508 120.238156 
L 334.532183 121.339193 
L 335.256859 120.199512 
L 335.981534 121.283286 
L 336.706209 121.328363 
L 337.430885 121.090805 
L 338.15556 121.248682 
L 338.880235 121.526801 
L 339.604911 121.493453 
L 340.329586 121.636812 
L 341.054261 121.077947 
L 341.778937 121.476202 
L 342.503612 121.201237 
L 343.228287 121.400379 
L 344.677638 122.001312 
L 345.402313 122.243346 
L 346.126989 121.400922 
L 346.851664 121.35934 
L 347.576339 121.848311 
L 348.301015 122.00612 
L 349.750365 122.622874 
L 350.475041 122.336203 
L 351.199716 121.806722 
L 351.924391 122.501442 
L 354.098417 122.077469 
L 354.823093 122.280026 
L 355.547768 122.860493 
L 356.997119 122.665896 
L 357.721794 122.895017 
L 358.446469 122.338507 
L 359.89582 122.451576 
L 361.34517 121.707988 
L 362.069846 122.859794 
L 362.794521 122.667835 
L 364.243872 123.603367 
L 364.968547 123.089229 
L 365.693222 122.382557 
L 366.417898 122.72702 
L 367.142573 123.601962 
L 367.867248 123.963273 
L 368.591924 123.736112 
L 369.316599 123.857175 
L 370.041274 122.995332 
L 370.76595 123.003966 
L 371.490625 123.310766 
L 372.2153 122.64072 
L 372.939976 123.307272 
L 373.664651 124.149156 
L 375.114002 124.441286 
L 375.838677 123.90084 
L 376.563352 124.299631 
L 377.288028 124.292514 
L 378.012703 124.465209 
L 379.462054 124.244183 
L 380.186729 124.511954 
L 380.911404 123.637802 
L 381.63608 124.307783 
L 383.08543 124.127827 
L 383.810106 123.726083 
L 385.259456 123.724214 
L 385.984131 124.74 
L 386.708807 124.949683 
L 387.433482 123.838682 
L 388.158157 123.885097 
L 388.882833 124.16535 
L 389.607508 124.699011 
L 390.332183 124.508582 
L 391.056859 125.245366 
L 392.506209 124.571209 
L 393.230885 125.131734 
L 393.95556 125.363722 
L 395.404911 125.050739 
L 396.129586 125.055236 
L 396.854261 125.719419 
L 397.578937 125.032975 
L 398.303612 125.356857 
L 399.028287 124.376778 
L 399.752963 125.585305 
L 400.477638 125.55837 
L 401.202313 126.362388 
L 401.926989 125.94994 
L 402.651664 126.090182 
L 403.376339 125.831119 
L 405.550365 125.499097 
L 406.275041 125.888574 
L 406.999716 125.332861 
L 407.724391 125.287222 
L 408.449067 125.851303 
L 409.173742 124.967126 
L 410.623093 124.594401 
L 411.347768 125.561248 
L 412.072443 125.775176 
L 412.797119 125.727656 
L 413.521794 125.336836 
L 414.246469 125.301675 
L 414.971144 125.451579 
L 416.420495 124.365278 
L 417.14517 125.077519 
L 417.869846 124.378871 
L 418.594521 125.538634 
L 419.319196 125.434654 
L 420.043872 125.647375 
L 420.768547 125.990991 
L 421.493222 126.135326 
L 422.217898 125.767461 
L 422.942573 125.845781 
L 425.116599 125.635223 
L 425.841274 125.766875 
L 426.56595 125.191649 
L 427.290625 125.427896 
L 428.0153 125.349871 
L 428.739976 125.789513 
L 429.464651 125.161249 
L 430.914002 125.094227 
L 431.638677 124.689431 
L 432.363352 125.550149 
L 433.088028 124.966956 
L 433.812703 125.69994 
L 434.537378 125.228714 
L 435.262054 125.309919 
L 435.986729 125.213436 
L 436.711404 125.708024 
L 437.43608 125.588056 
L 438.160755 125.288172 
L 438.88543 126.054596 
L 439.610106 125.552537 
L 440.334781 125.544268 
L 441.059456 126.226752 
L 441.784131 125.488179 
L 442.508807 125.763466 
L 443.233482 126.171901 
L 443.958157 125.513511 
L 444.682833 125.794149 
L 445.407508 125.658881 
L 446.132183 126.502453 
L 446.856859 126.525528 
L 447.581534 126.031675 
L 448.306209 126.090373 
L 449.030885 125.781718 
L 449.75556 125.779334 
L 450.480235 125.889086 
L 451.204911 126.231628 
L 451.929586 126.440143 
L 452.654261 126.961614 
L 453.378937 126.142468 
L 454.828287 126.914565 
L 455.552963 126.207148 
L 457.002313 126.59136 
L 457.726989 126.02833 
L 459.176339 126.177766 
L 459.901015 125.841597 
L 460.62569 125.92563 
L 461.350365 125.752012 
L 462.075041 126.261588 
L 462.799716 126.077602 
L 463.524391 126.604134 
L 464.249067 126.23771 
L 464.973742 126.861873 
L 465.698417 126.203507 
L 466.423093 126.376087 
L 467.872443 127.224808 
L 468.597119 126.901074 
L 469.321794 126.415117 
L 470.046469 126.696078 
L 470.771144 127.224358 
L 472.220495 126.999313 
L 472.94517 127.609103 
L 473.669846 127.060794 
L 474.394521 127.279437 
L 475.119196 127.929773 
L 475.843872 127.681504 
L 476.568547 126.765478 
L 477.293222 127.210413 
L 478.017898 128.074752 
L 478.742573 127.983863 
L 480.191924 127.600631 
L 480.916599 127.585221 
L 481.641274 127.371201 
L 482.36595 128.154938 
L 484.539976 127.58216 
L 486.714002 128.134644 
L 487.438677 127.549762 
L 488.163352 128.180398 
L 488.888028 128.32243 
L 489.612703 128.220869 
L 490.337378 127.773186 
L 491.062054 128.274126 
L 491.786729 128.375967 
L 493.960755 128.272506 
L 495.410106 127.626651 
L 496.134781 127.882218 
L 496.859456 128.622262 
L 497.584131 128.624273 
L 498.308807 128.380195 
L 499.033482 127.985151 
L 499.758157 127.719414 
L 500.482833 127.226119 
L 501.207508 127.475618 
L 501.932183 127.335648 
L 502.656859 127.884496 
L 504.106209 128.029227 
L 504.830885 127.075883 
L 505.55556 127.338533 
L 506.280235 128.281584 
L 507.004911 128.207444 
L 507.729586 127.372999 
L 508.454261 127.572064 
L 509.178937 127.077766 
L 510.628287 128.311318 
L 511.352963 128.307992 
L 512.802313 127.580508 
L 513.526989 126.764973 
L 514.251664 127.734314 
L 514.976339 126.768116 
L 515.701015 126.896653 
L 516.42569 126.813981 
L 517.150365 127.304233 
L 517.875041 127.431338 
L 518.599716 126.937992 
L 519.324391 126.795393 
L 520.049067 127.407002 
L 521.498417 127.013732 
L 522.223093 127.122365 
L 522.947768 128.153388 
L 523.672443 126.857992 
L 524.397119 127.826451 
L 525.121794 127.222345 
L 525.846469 127.428328 
L 526.571144 126.994658 
L 527.29582 127.659318 
L 528.020495 126.673171 
L 528.74517 127.574447 
L 529.469846 127.432291 
L 530.194521 128.323104 
L 530.919196 128.007326 
L 531.643872 127.952391 
L 532.368547 127.181402 
L 533.093222 128.105599 
L 533.817898 127.729914 
L 534.542573 128.242449 
L 535.267248 128.175044 
L 535.991924 127.805558 
L 536.716599 128.141651 
L 537.441274 128.10651 
L 538.16595 128.312509 
L 538.890625 127.661634 
L 540.339976 128.423643 
L 541.064651 128.112519 
L 541.789326 128.424213 
L 543.238677 128.212217 
L 543.963352 128.250398 
L 544.688028 127.226366 
L 545.412703 127.538592 
L 546.137378 128.460846 
L 546.862054 128.842332 
L 547.586729 128.382478 
L 548.311404 128.311378 
L 549.03608 129.098682 
L 550.48543 128.93048 
L 551.934781 129.345805 
L 552.659456 129.571246 
L 553.384131 129.133117 
L 554.108807 128.924347 
L 554.833482 129.6165 
L 556.282833 128.979247 
L 557.007508 129.156974 
L 557.732183 128.539898 
L 559.181534 129.568516 
L 559.906209 128.962134 
L 560.630885 128.878142 
L 561.35556 129.052093 
L 562.080235 128.657464 
L 562.804911 128.693572 
L 563.529586 129.237439 
L 564.254261 129.440119 
L 564.978937 128.315439 
L 565.703612 129.084725 
L 566.428287 129.259416 
L 567.152963 129.020508 
L 568.602313 129.544928 
L 570.051664 129.759707 
L 570.776339 129.736929 
L 571.501015 129.989611 
L 572.22569 130.095301 
L 574.399716 129.332092 
L 575.124391 129.546395 
L 575.849067 129.575164 
L 576.573742 129.787767 
L 577.298417 129.783134 
L 578.747768 130.133199 
L 580.197119 129.863755 
L 580.921794 130.226971 
L 581.646469 129.521859 
L 582.371144 129.919794 
L 583.09582 129.266993 
L 583.820495 130.362737 
L 584.54517 129.671953 
L 585.269846 130.100109 
L 585.994521 130.124111 
L 586.719196 130.386335 
L 587.443872 130.077366 
L 588.168547 130.468662 
L 588.893222 130.247035 
L 589.617898 130.502511 
L 590.342573 129.622565 
L 591.067248 130.044121 
L 591.791924 129.637852 
L 592.516599 129.852127 
L 593.241274 129.820835 
L 593.96595 130.095071 
L 594.690625 129.915606 
L 595.4153 130.056417 
L 596.864651 129.681197 
L 597.589326 129.462623 
L 598.314002 129.722866 
L 599.038677 129.678706 
L 599.763352 129.344987 
L 600.488028 129.697922 
L 601.212703 129.556763 
L 601.937378 129.590645 
L 602.662054 129.844723 
L 603.386729 129.945158 
L 604.111404 129.664395 
L 604.83608 130.114712 
L 605.560755 129.91082 
L 606.28543 130.040111 
L 607.010106 129.634323 
L 607.734781 130.2478 
L 608.459456 129.693251 
L 609.184131 129.574529 
L 609.908807 128.501651 
L 610.633482 129.833853 
L 611.358157 129.795103 
L 613.532183 130.259546 
L 614.256859 129.709199 
L 614.981534 130.61436 
L 615.706209 129.822597 
L 616.430885 130.118296 
L 617.15556 129.588654 
L 617.880235 130.485866 
L 618.604911 129.886924 
L 620.778937 130.319328 
L 621.503612 129.869323 
L 622.228287 130.428421 
L 623.677638 129.777697 
L 624.402313 130.069704 
L 625.126989 129.903047 
L 625.126989 129.903047 
" clip-path="url(#p8fa979ed9b)" style="fill: none; stroke: #1f77b4; stroke-width: 1.5; stroke-linecap: square"/>
   </g>
   <g id="line2d_15">
    <path d="M 117.854261 296.03625 
L 118.578937 245.888602 
L 119.303612 214.115786 
L 120.028287 230.211874 
L 120.752963 218.599268 
L 121.477638 201.279694 
L 122.202313 204.535087 
L 122.926989 177.439579 
L 123.651664 178.201539 
L 124.376339 178.387096 
L 125.101015 192.048813 
L 125.82569 174.811641 
L 126.550365 173.893449 
L 127.275041 172.251017 
L 127.999716 166.690114 
L 128.724391 165.151511 
L 129.449067 167.933912 
L 130.173742 161.328426 
L 130.898417 164.204354 
L 131.623093 153.408818 
L 132.347768 156.496962 
L 133.797119 141.56019 
L 134.521794 150.693481 
L 135.246469 143.469704 
L 135.971144 147.780062 
L 136.69582 149.479849 
L 137.420495 140.208749 
L 138.14517 138.160794 
L 138.869846 138.65618 
L 139.594521 140.776186 
L 140.319196 140.215124 
L 141.043872 138.391512 
L 141.768547 140.082936 
L 142.493222 140.228622 
L 143.942573 141.201404 
L 144.667248 139.392105 
L 145.391924 138.851676 
L 146.116599 139.384558 
L 146.841274 140.740816 
L 147.56595 142.600893 
L 148.290625 135.421926 
L 149.0153 138.496197 
L 149.739976 137.892038 
L 151.189326 136.234525 
L 151.914002 136.311622 
L 152.638677 135.915689 
L 153.363352 136.605064 
L 154.088028 134.887215 
L 154.812703 133.797282 
L 155.537378 134.763648 
L 156.262054 135.471295 
L 156.986729 135.576047 
L 157.711404 136.308094 
L 158.43608 136.853589 
L 159.160755 136.368541 
L 159.88543 134.730041 
L 160.610106 135.079856 
L 161.334781 134.857729 
L 162.059456 135.928269 
L 162.784131 135.902864 
L 163.508807 135.479767 
L 164.233482 136.290746 
L 164.958157 135.345801 
L 166.407508 134.136329 
L 167.132183 135.905185 
L 167.856859 134.292529 
L 168.581534 133.586184 
L 169.306209 134.703917 
L 170.030885 134.803726 
L 170.75556 133.847583 
L 171.480235 133.400648 
L 172.204911 134.508056 
L 172.929586 134.677574 
L 173.654261 133.207451 
L 174.378937 133.966004 
L 175.103612 133.320137 
L 175.828287 133.888563 
L 176.552963 133.800353 
L 177.277638 134.327242 
L 178.002313 133.302039 
L 178.726989 133.276394 
L 180.901015 133.938771 
L 181.62569 134.482109 
L 182.350365 133.800864 
L 183.075041 133.419586 
L 183.799716 133.970658 
L 185.249067 133.536974 
L 185.973742 133.03475 
L 186.698417 132.734868 
L 187.423093 133.151006 
L 188.147768 133.268245 
L 188.872443 133.664162 
L 189.597119 132.938008 
L 190.321794 133.474141 
L 191.046469 133.107742 
L 191.771144 133.13171 
L 192.49582 133.333721 
L 193.220495 133.905861 
L 193.94517 133.8752 
L 194.669846 133.058296 
L 195.394521 132.906614 
L 196.119196 133.401837 
L 196.843872 132.611227 
L 198.293222 133.527885 
L 199.017898 132.677103 
L 199.742573 133.470667 
L 200.467248 133.101942 
L 201.191924 132.407692 
L 201.916599 132.923927 
L 203.36595 133.133008 
L 204.090625 132.127532 
L 204.8153 132.148788 
L 205.539976 132.723923 
L 206.264651 132.550499 
L 206.989326 132.696816 
L 208.438677 132.730674 
L 209.163352 132.97607 
L 210.612703 131.981124 
L 211.337378 132.270329 
L 212.062054 132.740458 
L 212.786729 132.811208 
L 213.511404 133.022354 
L 214.23608 132.379132 
L 214.960755 132.85824 
L 215.68543 132.55696 
L 216.410106 132.710993 
L 217.859456 132.46765 
L 219.308807 132.807079 
L 220.033482 132.556555 
L 220.758157 132.440168 
L 221.482833 132.202275 
L 222.207508 132.521364 
L 222.932183 133.040405 
L 223.656859 132.525261 
L 224.381534 132.330627 
L 225.106209 131.793893 
L 225.830885 132.032172 
L 226.55556 131.869341 
L 227.280235 131.536319 
L 228.004911 131.891923 
L 228.729586 131.570927 
L 229.454261 132.110183 
L 230.178937 132.442361 
L 230.903612 132.353453 
L 231.628287 131.994056 
L 232.352963 132.252207 
L 233.077638 132.03052 
L 233.802313 132.59314 
L 234.526989 132.12911 
L 235.251664 133.529531 
L 235.976339 132.898776 
L 236.701015 131.845893 
L 237.42569 132.623624 
L 238.150365 132.22945 
L 238.875041 132.143768 
L 239.599716 132.356335 
L 240.324391 131.998474 
L 241.049067 132.373811 
L 241.773742 132.069205 
L 242.498417 132.132424 
L 243.223093 132.017815 
L 243.947768 132.31129 
L 244.672443 132.154329 
L 245.397119 132.182232 
L 246.121794 132.54397 
L 246.846469 132.546299 
L 247.571144 132.055983 
L 248.29582 132.3148 
L 249.020495 131.939997 
L 250.469846 132.088832 
L 251.194521 132.0281 
L 251.919196 132.726062 
L 252.643872 132.686055 
L 253.368547 132.429676 
L 254.093222 131.888833 
L 254.817898 132.689105 
L 255.542573 131.980631 
L 256.991924 132.405713 
L 257.716599 132.911299 
L 258.441274 132.242697 
L 260.6153 133.309819 
L 261.339976 132.617213 
L 262.064651 132.793237 
L 262.789326 133.184172 
L 263.514002 132.898692 
L 264.238677 132.476888 
L 265.688028 132.775752 
L 266.412703 132.19803 
L 267.137378 133.001959 
L 267.862054 132.551494 
L 268.586729 132.281968 
L 269.311404 132.615187 
L 270.03608 132.264056 
L 270.760755 132.511456 
L 271.48543 132.562455 
L 272.210106 132.196387 
L 273.659456 132.509296 
L 274.384131 132.625033 
L 276.558157 132.23886 
L 277.282833 132.926132 
L 278.007508 132.622763 
L 278.732183 132.725486 
L 279.456859 134.327361 
L 280.181534 131.88328 
L 280.906209 132.567378 
L 281.630885 132.624808 
L 282.35556 132.867478 
L 283.080235 132.078352 
L 283.804911 132.298725 
L 284.529586 132.375235 
L 285.254261 132.899031 
L 285.978937 132.299455 
L 287.428287 132.698965 
L 288.152963 132.749106 
L 288.877638 132.572047 
L 289.602313 132.735333 
L 290.326989 132.501331 
L 291.051664 132.445749 
L 291.776339 132.800844 
L 292.501015 132.599577 
L 293.22569 132.528069 
L 293.950365 133.418649 
L 294.675041 132.304059 
L 295.399716 132.693067 
L 296.124391 132.084031 
L 296.849067 132.523896 
L 297.573742 132.600118 
L 299.023093 133.298588 
L 299.747768 132.386039 
L 301.197119 133.19902 
L 301.921794 132.739007 
L 302.646469 133.198867 
L 303.371144 132.736262 
L 304.09582 133.412287 
L 304.820495 132.808439 
L 305.54517 132.475197 
L 306.269846 132.640403 
L 306.994521 132.634424 
L 307.719196 133.023913 
L 308.443872 132.313796 
L 309.168547 133.014596 
L 309.893222 132.573859 
L 310.617898 132.310629 
L 311.342573 132.751505 
L 312.067248 132.027011 
L 312.791924 132.637068 
L 313.516599 131.997341 
L 314.241274 132.65365 
L 315.690625 132.254952 
L 316.4153 133.166727 
L 317.139976 133.161044 
L 317.864651 132.868057 
L 319.314002 132.715886 
L 320.038677 133.313758 
L 320.763352 133.259094 
L 321.488028 132.374664 
L 322.212703 132.370019 
L 322.937378 133.122317 
L 324.386729 132.516071 
L 325.111404 132.596273 
L 325.83608 134.212614 
L 326.560755 132.868127 
L 328.010106 133.448304 
L 328.734781 132.497697 
L 329.459456 132.84084 
L 330.184131 132.998419 
L 331.633482 132.979176 
L 332.358157 133.124053 
L 333.082833 132.775361 
L 333.807508 133.26447 
L 334.532183 133.447651 
L 335.256859 132.831682 
L 335.981534 132.643544 
L 336.706209 132.71595 
L 337.430885 133.071013 
L 338.15556 133.205481 
L 339.604911 133.018732 
L 340.329586 133.177562 
L 341.054261 133.212742 
L 341.778937 133.070536 
L 342.503612 132.7111 
L 343.228287 132.619717 
L 344.677638 132.757311 
L 345.402313 132.287485 
L 346.126989 132.917935 
L 346.851664 132.7582 
L 347.576339 132.74229 
L 348.301015 133.203917 
L 349.02569 132.704265 
L 349.750365 132.688085 
L 350.475041 133.394741 
L 351.924391 132.715876 
L 352.649067 132.583073 
L 353.373742 133.363201 
L 354.098417 133.218542 
L 354.823093 133.327864 
L 356.272443 133.046398 
L 357.721794 132.391266 
L 358.446469 132.746404 
L 359.89582 132.579992 
L 360.620495 133.6675 
L 361.34517 133.153177 
L 362.069846 131.871708 
L 362.794521 132.866669 
L 364.243872 132.529901 
L 364.968547 131.081888 
L 365.693222 132.932414 
L 366.417898 132.085451 
L 367.142573 132.760385 
L 367.867248 132.146346 
L 368.591924 132.88974 
L 369.316599 132.563737 
L 370.041274 133.069097 
L 370.76595 133.365032 
L 371.490625 132.478084 
L 372.2153 132.902677 
L 372.939976 132.039826 
L 373.664651 132.423971 
L 374.389326 131.618577 
L 375.114002 132.19232 
L 375.838677 132.203069 
L 376.563352 132.514157 
L 377.288028 131.714142 
L 378.012703 131.917348 
L 378.737378 132.424369 
L 380.186729 132.100815 
L 381.63608 132.229428 
L 382.360755 132.13933 
L 383.08543 132.49344 
L 383.810106 132.105242 
L 384.534781 132.713502 
L 385.259456 132.33379 
L 385.984131 132.39439 
L 386.708807 132.209234 
L 387.433482 132.594199 
L 388.158157 132.673185 
L 388.882833 132.636544 
L 389.607508 132.045622 
L 390.332183 132.008696 
L 391.056859 132.296281 
L 391.781534 132.24379 
L 392.506209 132.629577 
L 393.230885 132.472327 
L 393.95556 132.670994 
L 394.680235 132.354122 
L 395.404911 132.323109 
L 396.129586 132.050248 
L 396.854261 132.447097 
L 397.578937 132.604512 
L 398.303612 132.27953 
L 399.028287 132.520756 
L 399.752963 132.360568 
L 400.477638 132.645127 
L 401.202313 132.133955 
L 401.926989 132.289025 
L 402.651664 132.21375 
L 403.376339 132.499823 
L 404.101015 132.318607 
L 404.82569 132.631839 
L 405.550365 132.517404 
L 406.275041 132.130841 
L 408.449067 132.7143 
L 409.173742 132.746425 
L 412.072443 132.34459 
L 412.797119 132.324889 
L 414.246469 132.673226 
L 414.971144 132.289639 
L 416.420495 132.640017 
L 417.14517 132.315031 
L 418.594521 132.864238 
L 420.043872 132.427692 
L 420.768547 132.489386 
L 421.493222 132.695802 
L 422.217898 132.442031 
L 422.942573 132.444117 
L 423.667248 132.791402 
L 424.391924 132.49101 
L 425.116599 132.756234 
L 425.841274 132.738034 
L 426.56595 133.154523 
L 427.290625 132.749366 
L 428.0153 132.783611 
L 428.739976 132.704427 
L 429.464651 132.845462 
L 430.914002 132.135485 
L 431.638677 132.562593 
L 435.262054 132.575102 
L 435.986729 132.82337 
L 436.711404 132.520394 
L 437.43608 132.787151 
L 438.160755 132.848905 
L 438.88543 132.732427 
L 440.334781 132.34149 
L 441.059456 132.569255 
L 441.784131 132.546035 
L 442.508807 132.382392 
L 443.233482 132.401055 
L 443.958157 132.942796 
L 444.682833 132.836618 
L 445.407508 132.045046 
L 446.132183 132.712118 
L 446.856859 132.475609 
L 449.75556 132.068622 
L 450.480235 132.852751 
L 451.204911 132.256039 
L 452.654261 132.592666 
L 453.378937 132.348413 
L 454.103612 132.303566 
L 454.828287 132.914314 
L 455.552963 132.387026 
L 456.277638 132.243224 
L 457.002313 132.85367 
L 459.176339 132.076505 
L 460.62569 132.539537 
L 461.350365 132.486669 
L 462.075041 132.644096 
L 464.249067 132.471121 
L 464.973742 132.113016 
L 465.698417 132.344418 
L 466.423093 132.339665 
L 467.147768 132.469396 
L 468.597119 133.01542 
L 469.321794 132.548661 
L 470.046469 132.326819 
L 470.771144 131.941895 
L 471.49582 132.629059 
L 472.220495 132.41616 
L 472.94517 132.777514 
L 473.669846 132.625445 
L 474.394521 132.205738 
L 475.119196 132.573852 
L 475.843872 132.351475 
L 476.568547 132.738733 
L 477.293222 132.609102 
L 478.017898 132.661179 
L 478.742573 132.248434 
L 479.467248 132.676072 
L 480.191924 132.574415 
L 480.916599 132.616665 
L 481.641274 132.074958 
L 482.36595 132.590863 
L 483.090625 132.401085 
L 483.8153 132.366064 
L 485.264651 132.649835 
L 485.989326 131.936974 
L 486.714002 132.337399 
L 487.438677 132.525656 
L 488.163352 132.230222 
L 489.612703 132.167707 
L 490.337378 132.493532 
L 491.062054 132.462083 
L 492.511404 132.110215 
L 493.23608 132.661394 
L 493.960755 132.257731 
L 494.68543 132.707855 
L 496.134781 132.689304 
L 496.859456 132.23817 
L 497.584131 132.636134 
L 498.308807 132.398538 
L 499.033482 131.929444 
L 500.482833 132.252696 
L 501.207508 132.351063 
L 501.932183 132.641152 
L 502.656859 131.990749 
L 503.381534 132.540849 
L 504.106209 131.671488 
L 505.55556 132.12717 
L 506.280235 132.034189 
L 507.729586 132.369767 
L 508.454261 131.803189 
L 509.903612 132.095206 
L 510.628287 132.051681 
L 511.352963 132.303661 
L 513.526989 132.161085 
L 514.251664 131.967513 
L 514.976339 132.354161 
L 515.701015 131.975016 
L 516.42569 132.182796 
L 517.150365 132.544544 
L 517.875041 131.972249 
L 519.324391 131.915321 
L 520.049067 132.331115 
L 521.498417 131.816527 
L 522.223093 132.304512 
L 522.947768 132.377821 
L 523.672443 132.626734 
L 524.397119 131.688815 
L 525.121794 131.714281 
L 525.846469 131.614019 
L 526.571144 132.079389 
L 527.29582 132.188325 
L 528.020495 132.439305 
L 528.74517 131.979743 
L 529.469846 132.116415 
L 530.194521 132.016496 
L 530.919196 131.69748 
L 532.368547 131.803803 
L 533.093222 132.211845 
L 534.542573 131.57137 
L 535.991924 131.918404 
L 537.441274 131.618256 
L 538.16595 131.558009 
L 538.890625 132.026717 
L 539.6153 131.699965 
L 540.339976 131.870529 
L 541.064651 131.543193 
L 541.789326 132.062371 
L 542.514002 131.957107 
L 543.238677 132.110093 
L 543.963352 132.470885 
L 544.688028 131.054369 
L 545.412703 131.723853 
L 546.137378 131.715947 
L 546.862054 132.028528 
L 548.311404 131.659274 
L 549.03608 132.247391 
L 549.760755 131.672925 
L 550.48543 131.597974 
L 551.210106 131.732283 
L 551.934781 131.699916 
L 553.384131 131.758162 
L 554.108807 131.795467 
L 554.833482 131.673372 
L 555.558157 131.809686 
L 557.007508 131.494584 
L 557.732183 131.954713 
L 559.181534 131.584319 
L 559.906209 131.833002 
L 561.35556 131.703295 
L 562.080235 131.677965 
L 562.804911 131.992524 
L 563.529586 131.968231 
L 564.254261 131.450183 
L 564.978937 131.479969 
L 565.703612 131.844268 
L 567.877638 132.008511 
L 568.602313 131.809393 
L 569.326989 131.492316 
L 570.051664 131.757611 
L 571.501015 131.993016 
L 572.22569 131.637031 
L 572.950365 131.938927 
L 573.675041 131.774237 
L 574.399716 131.964773 
L 575.849067 131.895405 
L 576.573742 131.948727 
L 577.298417 131.515204 
L 578.747768 132.207389 
L 579.472443 131.735948 
L 580.197119 132.070266 
L 580.921794 131.860781 
L 581.646469 132.190618 
L 585.994521 131.559104 
L 586.719196 131.671975 
L 587.443872 131.950997 
L 588.168547 131.896108 
L 588.893222 131.64032 
L 589.617898 131.933831 
L 591.067248 131.75569 
L 593.241274 132.094871 
L 593.96595 131.759928 
L 594.690625 132.166826 
L 595.4153 131.618161 
L 596.139976 131.561967 
L 596.864651 131.859707 
L 598.314002 132.088196 
L 599.038677 132.030596 
L 599.763352 131.648646 
L 600.488028 131.550221 
L 601.212703 131.971596 
L 601.937378 131.857384 
L 602.662054 131.878065 
L 604.111404 131.605734 
L 604.83608 131.69852 
L 605.560755 131.660687 
L 606.28543 131.775266 
L 607.010106 131.438046 
L 607.734781 131.552678 
L 608.459456 131.396635 
L 609.908807 131.83833 
L 610.633482 131.473621 
L 611.358157 131.635664 
L 612.082833 131.678527 
L 612.807508 131.920461 
L 613.532183 131.773751 
L 614.256859 132.306822 
L 614.981534 131.304828 
L 615.706209 131.778464 
L 616.430885 131.538824 
L 617.15556 131.763851 
L 617.880235 131.714413 
L 618.604911 131.429222 
L 619.329586 131.819786 
L 620.054261 131.845981 
L 620.778937 131.56035 
L 622.228287 132.002589 
L 622.952963 131.722383 
L 625.126989 131.521583 
L 625.126989 131.521583 
" clip-path="url(#p8fa979ed9b)" style="fill: none; stroke: #ff7f0e; stroke-width: 1.5; stroke-linecap: square"/>
   </g>
   <g id="patch_3">
    <path d="M 92.490625 308.63625 
L 92.490625 31.43625 
" style="fill: none; stroke: #000000; stroke-width: 0.8; stroke-linejoin: miter; stroke-linecap: square"/>
   </g>
   <g id="patch_4">
    <path d="M 650.490625 308.63625 
L 650.490625 31.43625 
" style="fill: none; stroke: #000000; stroke-width: 0.8; stroke-linejoin: miter; stroke-linecap: square"/>
   </g>
   <g id="patch_5">
    <path d="M 92.490625 308.63625 
L 650.490625 308.63625 
" style="fill: none; stroke: #000000; stroke-width: 0.8; stroke-linejoin: miter; stroke-linecap: square"/>
   </g>
   <g id="patch_6">
    <path d="M 92.490625 31.43625 
L 650.490625 31.43625 
" style="fill: none; stroke: #000000; stroke-width: 0.8; stroke-linejoin: miter; stroke-linecap: square"/>
   </g>
   <g id="text_16">
    <!-- Generator and Discriminator Loss During Training -->
    <g transform="translate(74.258125 25.43625) scale(0.24 -0.24)">
     <defs>
      <path id="DejaVuSans-47" d="M 3809 666 
L 3809 1919 
L 2778 1919 
L 2778 2438 
L 4434 2438 
L 4434 434 
Q 4069 175 3628 42 
Q 3188 -91 2688 -91 
Q 1594 -91 976 548 
Q 359 1188 359 2328 
Q 359 3472 976 4111 
Q 1594 4750 2688 4750 
Q 3144 4750 3555 4637 
Q 3966 4525 4313 4306 
L 4313 3634 
Q 3963 3931 3569 4081 
Q 3175 4231 2741 4231 
Q 1884 4231 1454 3753 
Q 1025 3275 1025 2328 
Q 1025 1384 1454 906 
Q 1884 428 2741 428 
Q 3075 428 3337 486 
Q 3600 544 3809 666 
z
" transform="scale(0.015625)"/>
      <path id="DejaVuSans-20" transform="scale(0.015625)"/>
      <path id="DejaVuSans-64" d="M 2906 2969 
L 2906 4863 
L 3481 4863 
L 3481 0 
L 2906 0 
L 2906 525 
Q 2725 213 2448 61 
Q 2172 -91 1784 -91 
Q 1150 -91 751 415 
Q 353 922 353 1747 
Q 353 2572 751 3078 
Q 1150 3584 1784 3584 
Q 2172 3584 2448 3432 
Q 2725 3281 2906 2969 
z
M 947 1747 
Q 947 1113 1208 752 
Q 1469 391 1925 391 
Q 2381 391 2643 752 
Q 2906 1113 2906 1747 
Q 2906 2381 2643 2742 
Q 2381 3103 1925 3103 
Q 1469 3103 1208 2742 
Q 947 2381 947 1747 
z
" transform="scale(0.015625)"/>
      <path id="DejaVuSans-44" d="M 1259 4147 
L 1259 519 
L 2022 519 
Q 2988 519 3436 956 
Q 3884 1394 3884 2338 
Q 3884 3275 3436 3711 
Q 2988 4147 2022 4147 
L 1259 4147 
z
M 628 4666 
L 1925 4666 
Q 3281 4666 3915 4102 
Q 4550 3538 4550 2338 
Q 4550 1131 3912 565 
Q 3275 0 1925 0 
L 628 0 
L 628 4666 
z
" transform="scale(0.015625)"/>
      <path id="DejaVuSans-63" d="M 3122 3366 
L 3122 2828 
Q 2878 2963 2633 3030 
Q 2388 3097 2138 3097 
Q 1578 3097 1268 2742 
Q 959 2388 959 1747 
Q 959 1106 1268 751 
Q 1578 397 2138 397 
Q 2388 397 2633 464 
Q 2878 531 3122 666 
L 3122 134 
Q 2881 22 2623 -34 
Q 2366 -91 2075 -91 
Q 1284 -91 818 406 
Q 353 903 353 1747 
Q 353 2603 823 3093 
Q 1294 3584 2113 3584 
Q 2378 3584 2631 3529 
Q 2884 3475 3122 3366 
z
" transform="scale(0.015625)"/>
      <path id="DejaVuSans-6d" d="M 3328 2828 
Q 3544 3216 3844 3400 
Q 4144 3584 4550 3584 
Q 5097 3584 5394 3201 
Q 5691 2819 5691 2113 
L 5691 0 
L 5113 0 
L 5113 2094 
Q 5113 2597 4934 2840 
Q 4756 3084 4391 3084 
Q 3944 3084 3684 2787 
Q 3425 2491 3425 1978 
L 3425 0 
L 2847 0 
L 2847 2094 
Q 2847 2600 2669 2842 
Q 2491 3084 2119 3084 
Q 1678 3084 1418 2786 
Q 1159 2488 1159 1978 
L 1159 0 
L 581 0 
L 581 3500 
L 1159 3500 
L 1159 2956 
Q 1356 3278 1631 3431 
Q 1906 3584 2284 3584 
Q 2666 3584 2933 3390 
Q 3200 3197 3328 2828 
z
" transform="scale(0.015625)"/>
      <path id="DejaVuSans-75" d="M 544 1381 
L 544 3500 
L 1119 3500 
L 1119 1403 
Q 1119 906 1312 657 
Q 1506 409 1894 409 
Q 2359 409 2629 706 
Q 2900 1003 2900 1516 
L 2900 3500 
L 3475 3500 
L 3475 0 
L 2900 0 
L 2900 538 
Q 2691 219 2414 64 
Q 2138 -91 1772 -91 
Q 1169 -91 856 284 
Q 544 659 544 1381 
z
M 1991 3584 
L 1991 3584 
z
" transform="scale(0.015625)"/>
      <path id="DejaVuSans-67" d="M 2906 1791 
Q 2906 2416 2648 2759 
Q 2391 3103 1925 3103 
Q 1463 3103 1205 2759 
Q 947 2416 947 1791 
Q 947 1169 1205 825 
Q 1463 481 1925 481 
Q 2391 481 2648 825 
Q 2906 1169 2906 1791 
z
M 3481 434 
Q 3481 -459 3084 -895 
Q 2688 -1331 1869 -1331 
Q 1566 -1331 1297 -1286 
Q 1028 -1241 775 -1147 
L 775 -588 
Q 1028 -725 1275 -790 
Q 1522 -856 1778 -856 
Q 2344 -856 2625 -561 
Q 2906 -266 2906 331 
L 2906 616 
Q 2728 306 2450 153 
Q 2172 0 1784 0 
Q 1141 0 747 490 
Q 353 981 353 1791 
Q 353 2603 747 3093 
Q 1141 3584 1784 3584 
Q 2172 3584 2450 3431 
Q 2728 3278 2906 2969 
L 2906 3500 
L 3481 3500 
L 3481 434 
z
" transform="scale(0.015625)"/>
      <path id="DejaVuSans-54" d="M -19 4666 
L 3928 4666 
L 3928 4134 
L 2272 4134 
L 2272 0 
L 1638 0 
L 1638 4134 
L -19 4134 
L -19 4666 
z
" transform="scale(0.015625)"/>
     </defs>
     <use xlink:href="#DejaVuSans-47"/>
     <use xlink:href="#DejaVuSans-65" x="77.490234"/>
     <use xlink:href="#DejaVuSans-6e" x="139.013672"/>
     <use xlink:href="#DejaVuSans-65" x="202.392578"/>
     <use xlink:href="#DejaVuSans-72" x="263.916016"/>
     <use xlink:href="#DejaVuSans-61" x="305.029297"/>
     <use xlink:href="#DejaVuSans-74" x="366.308594"/>
     <use xlink:href="#DejaVuSans-6f" x="405.517578"/>
     <use xlink:href="#DejaVuSans-72" x="466.699219"/>
     <use xlink:href="#DejaVuSans-20" x="507.8125"/>
     <use xlink:href="#DejaVuSans-61" x="539.599609"/>
     <use xlink:href="#DejaVuSans-6e" x="600.878906"/>
     <use xlink:href="#DejaVuSans-64" x="664.257812"/>
     <use xlink:href="#DejaVuSans-20" x="727.734375"/>
     <use xlink:href="#DejaVuSans-44" x="759.521484"/>
     <use xlink:href="#DejaVuSans-69" x="836.523438"/>
     <use xlink:href="#DejaVuSans-73" x="864.306641"/>
     <use xlink:href="#DejaVuSans-63" x="916.40625"/>
     <use xlink:href="#DejaVuSans-72" x="971.386719"/>
     <use xlink:href="#DejaVuSans-69" x="1012.5"/>
     <use xlink:href="#DejaVuSans-6d" x="1040.283203"/>
     <use xlink:href="#DejaVuSans-69" x="1137.695312"/>
     <use xlink:href="#DejaVuSans-6e" x="1165.478516"/>
     <use xlink:href="#DejaVuSans-61" x="1228.857422"/>
     <use xlink:href="#DejaVuSans-74" x="1290.136719"/>
     <use xlink:href="#DejaVuSans-6f" x="1329.345703"/>
     <use xlink:href="#DejaVuSans-72" x="1390.527344"/>
     <use xlink:href="#DejaVuSans-20" x="1431.640625"/>
     <use xlink:href="#DejaVuSans-4c" x="1463.427734"/>
     <use xlink:href="#DejaVuSans-6f" x="1517.390625"/>
     <use xlink:href="#DejaVuSans-73" x="1578.572266"/>
     <use xlink:href="#DejaVuSans-73" x="1630.671875"/>
     <use xlink:href="#DejaVuSans-20" x="1682.771484"/>
     <use xlink:href="#DejaVuSans-44" x="1714.558594"/>
     <use xlink:href="#DejaVuSans-75" x="1791.560547"/>
     <use xlink:href="#DejaVuSans-72" x="1854.939453"/>
     <use xlink:href="#DejaVuSans-69" x="1896.052734"/>
     <use xlink:href="#DejaVuSans-6e" x="1923.835938"/>
     <use xlink:href="#DejaVuSans-67" x="1987.214844"/>
     <use xlink:href="#DejaVuSans-20" x="2050.691406"/>
     <use xlink:href="#DejaVuSans-54" x="2082.478516"/>
     <use xlink:href="#DejaVuSans-72" x="2128.8125"/>
     <use xlink:href="#DejaVuSans-61" x="2169.925781"/>
     <use xlink:href="#DejaVuSans-69" x="2231.205078"/>
     <use xlink:href="#DejaVuSans-6e" x="2258.988281"/>
     <use xlink:href="#DejaVuSans-69" x="2322.367188"/>
     <use xlink:href="#DejaVuSans-6e" x="2350.150391"/>
     <use xlink:href="#DejaVuSans-67" x="2413.529297"/>
    </g>
   </g>
   <g id="legend_1">
    <g id="patch_7">
     <path d="M 556.99375 106.14875 
L 636.490625 106.14875 
Q 640.490625 106.14875 640.490625 102.14875 
L 640.490625 45.43625 
Q 640.490625 41.43625 636.490625 41.43625 
L 556.99375 41.43625 
Q 552.99375 41.43625 552.99375 45.43625 
L 552.99375 102.14875 
Q 552.99375 106.14875 556.99375 106.14875 
z
" style="fill: #ffffff; opacity: 0.8; stroke: #cccccc; stroke-linejoin: miter"/>
    </g>
    <g id="line2d_16">
     <path d="M 560.99375 57.633125 
L 580.99375 57.633125 
L 600.99375 57.633125 
" style="fill: none; stroke: #1f77b4; stroke-width: 1.5; stroke-linecap: square"/>
    </g>
    <g id="text_17">
     <!-- G -->
     <g transform="translate(616.99375 64.633125) scale(0.2 -0.2)">
      <use xlink:href="#DejaVuSans-47"/>
     </g>
    </g>
    <g id="line2d_17">
     <path d="M 560.99375 86.989375 
L 580.99375 86.989375 
L 600.99375 86.989375 
" style="fill: none; stroke: #ff7f0e; stroke-width: 1.5; stroke-linecap: square"/>
    </g>
    <g id="text_18">
     <!-- D -->
     <g transform="translate(616.99375 93.989375) scale(0.2 -0.2)">
      <use xlink:href="#DejaVuSans-44"/>
     </g>
    </g>
   </g>
  </g>
 </g>
 <defs>
  <clipPath id="p8fa979ed9b">
   <rect x="92.490625" y="31.43625" width="558" height="277.2"/>
  </clipPath>
 </defs>
</svg>
