<?xml version="1.0" encoding="utf-8" standalone="no"?>
<!DOCTYPE svg PUBLIC "-//W3C//DTD SVG 1.1//EN"
  "http://www.w3.org/Graphics/SVG/1.1/DTD/svg11.dtd">
<svg xmlns:xlink="http://www.w3.org/1999/xlink" width="675.923125pt" height="365.54875pt" viewBox="0 0 675.923125 365.54875" xmlns="http://www.w3.org/2000/svg" version="1.1">
 <metadata>
  <rdf:RDF xmlns:dc="http://purl.org/dc/elements/1.1/" xmlns:cc="http://creativecommons.org/ns#" xmlns:rdf="http://www.w3.org/1999/02/22-rdf-syntax-ns#">
   <cc:Work>
    <dc:type rdf:resource="http://purl.org/dc/dcmitype/StillImage"/>
    <dc:date>2024-02-04T17:55:18.748426</dc:date>
    <dc:format>image/svg+xml</dc:format>
    <dc:creator>
     <cc:Agent>
      <dc:title>Matplotlib v3.7.2, https://matplotlib.org/</dc:title>
     </cc:Agent>
    </dc:creator>
   </cc:Work>
  </rdf:RDF>
 </metadata>
 <defs>
  <style type="text/css">*{stroke-linejoin: round; stroke-linecap: butt}</style>
 </defs>
 <g id="figure_1">
  <g id="patch_1">
   <path d="M 0 365.54875 
L 675.923125 365.54875 
L 675.923125 -0 
L 0 -0 
z
" style="fill: #ffffff"/>
  </g>
  <g id="axes_1">
   <g id="patch_2">
    <path d="M 92.490625 308.63625 
L 650.490625 308.63625 
L 650.490625 31.43625 
L 92.490625 31.43625 
z
" style="fill: #ffffff"/>
   </g>
   <g id="matplotlib.axis_1">
    <g id="xtick_1">
     <g id="line2d_1">
      <defs>
       <path id="m1c64ca607b" d="M 0 0 
L 0 3.5 
" style="stroke: #000000; stroke-width: 0.8"/>
      </defs>
      <g>
       <use xlink:href="#m1c64ca607b" x="117.854261" y="308.63625" style="stroke: #000000; stroke-width: 0.8"/>
      </g>
     </g>
     <g id="text_1">
      <!-- 0 -->
      <g transform="translate(111.491761 330.833125) scale(0.2 -0.2)">
       <defs>
        <path id="DejaVuSans-30" d="M 2034 4250 
Q 1547 4250 1301 3770 
Q 1056 3291 1056 2328 
Q 1056 1369 1301 889 
Q 1547 409 2034 409 
Q 2525 409 2770 889 
Q 3016 1369 3016 2328 
Q 3016 3291 2770 3770 
Q 2525 4250 2034 4250 
z
M 2034 4750 
Q 2819 4750 3233 4129 
Q 3647 3509 3647 2328 
Q 3647 1150 3233 529 
Q 2819 -91 2034 -91 
Q 1250 -91 836 529 
Q 422 1150 422 2328 
Q 422 3509 836 4129 
Q 1250 4750 2034 4750 
z
" transform="scale(0.015625)"/>
       </defs>
       <use xlink:href="#DejaVuSans-30"/>
      </g>
     </g>
    </g>
    <g id="xtick_2">
     <g id="line2d_2">
      <g>
       <use xlink:href="#m1c64ca607b" x="210.085666" y="308.63625" style="stroke: #000000; stroke-width: 0.8"/>
      </g>
     </g>
     <g id="text_2">
      <!-- 200 -->
      <g transform="translate(190.998166 330.833125) scale(0.2 -0.2)">
       <defs>
        <path id="DejaVuSans-32" d="M 1228 531 
L 3431 531 
L 3431 0 
L 469 0 
L 469 531 
Q 828 903 1448 1529 
Q 2069 2156 2228 2338 
Q 2531 2678 2651 2914 
Q 2772 3150 2772 3378 
Q 2772 3750 2511 3984 
Q 2250 4219 1831 4219 
Q 1534 4219 1204 4116 
Q 875 4013 500 3803 
L 500 4441 
Q 881 4594 1212 4672 
Q 1544 4750 1819 4750 
Q 2544 4750 2975 4387 
Q 3406 4025 3406 3419 
Q 3406 3131 3298 2873 
Q 3191 2616 2906 2266 
Q 2828 2175 2409 1742 
Q 1991 1309 1228 531 
z
" transform="scale(0.015625)"/>
       </defs>
       <use xlink:href="#DejaVuSans-32"/>
       <use xlink:href="#DejaVuSans-30" x="63.623047"/>
       <use xlink:href="#DejaVuSans-30" x="127.246094"/>
      </g>
     </g>
    </g>
    <g id="xtick_3">
     <g id="line2d_3">
      <g>
       <use xlink:href="#m1c64ca607b" x="302.317071" y="308.63625" style="stroke: #000000; stroke-width: 0.8"/>
      </g>
     </g>
     <g id="text_3">
      <!-- 400 -->
      <g transform="translate(283.229571 330.833125) scale(0.2 -0.2)">
       <defs>
        <path id="DejaVuSans-34" d="M 2419 4116 
L 825 1625 
L 2419 1625 
L 2419 4116 
z
M 2253 4666 
L 3047 4666 
L 3047 1625 
L 3713 1625 
L 3713 1100 
L 3047 1100 
L 3047 0 
L 2419 0 
L 2419 1100 
L 313 1100 
L 313 1709 
L 2253 4666 
z
" transform="scale(0.015625)"/>
       </defs>
       <use xlink:href="#DejaVuSans-34"/>
       <use xlink:href="#DejaVuSans-30" x="63.623047"/>
       <use xlink:href="#DejaVuSans-30" x="127.246094"/>
      </g>
     </g>
    </g>
    <g id="xtick_4">
     <g id="line2d_4">
      <g>
       <use xlink:href="#m1c64ca607b" x="394.548476" y="308.63625" style="stroke: #000000; stroke-width: 0.8"/>
      </g>
     </g>
     <g id="text_4">
      <!-- 600 -->
      <g transform="translate(375.460976 330.833125) scale(0.2 -0.2)">
       <defs>
        <path id="DejaVuSans-36" d="M 2113 2584 
Q 1688 2584 1439 2293 
Q 1191 2003 1191 1497 
Q 1191 994 1439 701 
Q 1688 409 2113 409 
Q 2538 409 2786 701 
Q 3034 994 3034 1497 
Q 3034 2003 2786 2293 
Q 2538 2584 2113 2584 
z
M 3366 4563 
L 3366 3988 
Q 3128 4100 2886 4159 
Q 2644 4219 2406 4219 
Q 1781 4219 1451 3797 
Q 1122 3375 1075 2522 
Q 1259 2794 1537 2939 
Q 1816 3084 2150 3084 
Q 2853 3084 3261 2657 
Q 3669 2231 3669 1497 
Q 3669 778 3244 343 
Q 2819 -91 2113 -91 
Q 1303 -91 875 529 
Q 447 1150 447 2328 
Q 447 3434 972 4092 
Q 1497 4750 2381 4750 
Q 2619 4750 2861 4703 
Q 3103 4656 3366 4563 
z
" transform="scale(0.015625)"/>
       </defs>
       <use xlink:href="#DejaVuSans-36"/>
       <use xlink:href="#DejaVuSans-30" x="63.623047"/>
       <use xlink:href="#DejaVuSans-30" x="127.246094"/>
      </g>
     </g>
    </g>
    <g id="xtick_5">
     <g id="line2d_5">
      <g>
       <use xlink:href="#m1c64ca607b" x="486.779881" y="308.63625" style="stroke: #000000; stroke-width: 0.8"/>
      </g>
     </g>
     <g id="text_5">
      <!-- 800 -->
      <g transform="translate(467.692381 330.833125) scale(0.2 -0.2)">
       <defs>
        <path id="DejaVuSans-38" d="M 2034 2216 
Q 1584 2216 1326 1975 
Q 1069 1734 1069 1313 
Q 1069 891 1326 650 
Q 1584 409 2034 409 
Q 2484 409 2743 651 
Q 3003 894 3003 1313 
Q 3003 1734 2745 1975 
Q 2488 2216 2034 2216 
z
M 1403 2484 
Q 997 2584 770 2862 
Q 544 3141 544 3541 
Q 544 4100 942 4425 
Q 1341 4750 2034 4750 
Q 2731 4750 3128 4425 
Q 3525 4100 3525 3541 
Q 3525 3141 3298 2862 
Q 3072 2584 2669 2484 
Q 3125 2378 3379 2068 
Q 3634 1759 3634 1313 
Q 3634 634 3220 271 
Q 2806 -91 2034 -91 
Q 1263 -91 848 271 
Q 434 634 434 1313 
Q 434 1759 690 2068 
Q 947 2378 1403 2484 
z
M 1172 3481 
Q 1172 3119 1398 2916 
Q 1625 2713 2034 2713 
Q 2441 2713 2670 2916 
Q 2900 3119 2900 3481 
Q 2900 3844 2670 4047 
Q 2441 4250 2034 4250 
Q 1625 4250 1398 4047 
Q 1172 3844 1172 3481 
z
" transform="scale(0.015625)"/>
       </defs>
       <use xlink:href="#DejaVuSans-38"/>
       <use xlink:href="#DejaVuSans-30" x="63.623047"/>
       <use xlink:href="#DejaVuSans-30" x="127.246094"/>
      </g>
     </g>
    </g>
    <g id="xtick_6">
     <g id="line2d_6">
      <g>
       <use xlink:href="#m1c64ca607b" x="579.011286" y="308.63625" style="stroke: #000000; stroke-width: 0.8"/>
      </g>
     </g>
     <g id="text_6">
      <!-- 1000 -->
      <g transform="translate(553.561286 330.833125) scale(0.2 -0.2)">
       <defs>
        <path id="DejaVuSans-31" d="M 794 531 
L 1825 531 
L 1825 4091 
L 703 3866 
L 703 4441 
L 1819 4666 
L 2450 4666 
L 2450 531 
L 3481 531 
L 3481 0 
L 794 0 
L 794 531 
z
" transform="scale(0.015625)"/>
       </defs>
       <use xlink:href="#DejaVuSans-31"/>
       <use xlink:href="#DejaVuSans-30" x="63.623047"/>
       <use xlink:href="#DejaVuSans-30" x="127.246094"/>
       <use xlink:href="#DejaVuSans-30" x="190.869141"/>
      </g>
     </g>
    </g>
    <g id="text_7">
     <!-- iterations -->
     <g transform="translate(324.035938 354.189375) scale(0.2 -0.2)">
      <defs>
       <path id="DejaVuSans-69" d="M 603 3500 
L 1178 3500 
L 1178 0 
L 603 0 
L 603 3500 
z
M 603 4863 
L 1178 4863 
L 1178 4134 
L 603 4134 
L 603 4863 
z
" transform="scale(0.015625)"/>
       <path id="DejaVuSans-74" d="M 1172 4494 
L 1172 3500 
L 2356 3500 
L 2356 3053 
L 1172 3053 
L 1172 1153 
Q 1172 725 1289 603 
Q 1406 481 1766 481 
L 2356 481 
L 2356 0 
L 1766 0 
Q 1100 0 847 248 
Q 594 497 594 1153 
L 594 3053 
L 172 3053 
L 172 3500 
L 594 3500 
L 594 4494 
L 1172 4494 
z
" transform="scale(0.015625)"/>
       <path id="DejaVuSans-65" d="M 3597 1894 
L 3597 1613 
L 953 1613 
Q 991 1019 1311 708 
Q 1631 397 2203 397 
Q 2534 397 2845 478 
Q 3156 559 3463 722 
L 3463 178 
Q 3153 47 2828 -22 
Q 2503 -91 2169 -91 
Q 1331 -91 842 396 
Q 353 884 353 1716 
Q 353 2575 817 3079 
Q 1281 3584 2069 3584 
Q 2775 3584 3186 3129 
Q 3597 2675 3597 1894 
z
M 3022 2063 
Q 3016 2534 2758 2815 
Q 2500 3097 2075 3097 
Q 1594 3097 1305 2825 
Q 1016 2553 972 2059 
L 3022 2063 
z
" transform="scale(0.015625)"/>
       <path id="DejaVuSans-72" d="M 2631 2963 
Q 2534 3019 2420 3045 
Q 2306 3072 2169 3072 
Q 1681 3072 1420 2755 
Q 1159 2438 1159 1844 
L 1159 0 
L 581 0 
L 581 3500 
L 1159 3500 
L 1159 2956 
Q 1341 3275 1631 3429 
Q 1922 3584 2338 3584 
Q 2397 3584 2469 3576 
Q 2541 3569 2628 3553 
L 2631 2963 
z
" transform="scale(0.015625)"/>
       <path id="DejaVuSans-61" d="M 2194 1759 
Q 1497 1759 1228 1600 
Q 959 1441 959 1056 
Q 959 750 1161 570 
Q 1363 391 1709 391 
Q 2188 391 2477 730 
Q 2766 1069 2766 1631 
L 2766 1759 
L 2194 1759 
z
M 3341 1997 
L 3341 0 
L 2766 0 
L 2766 531 
Q 2569 213 2275 61 
Q 1981 -91 1556 -91 
Q 1019 -91 701 211 
Q 384 513 384 1019 
Q 384 1609 779 1909 
Q 1175 2209 1959 2209 
L 2766 2209 
L 2766 2266 
Q 2766 2663 2505 2880 
Q 2244 3097 1772 3097 
Q 1472 3097 1187 3025 
Q 903 2953 641 2809 
L 641 3341 
Q 956 3463 1253 3523 
Q 1550 3584 1831 3584 
Q 2591 3584 2966 3190 
Q 3341 2797 3341 1997 
z
" transform="scale(0.015625)"/>
       <path id="DejaVuSans-6f" d="M 1959 3097 
Q 1497 3097 1228 2736 
Q 959 2375 959 1747 
Q 959 1119 1226 758 
Q 1494 397 1959 397 
Q 2419 397 2687 759 
Q 2956 1122 2956 1747 
Q 2956 2369 2687 2733 
Q 2419 3097 1959 3097 
z
M 1959 3584 
Q 2709 3584 3137 3096 
Q 3566 2609 3566 1747 
Q 3566 888 3137 398 
Q 2709 -91 1959 -91 
Q 1206 -91 779 398 
Q 353 888 353 1747 
Q 353 2609 779 3096 
Q 1206 3584 1959 3584 
z
" transform="scale(0.015625)"/>
       <path id="DejaVuSans-6e" d="M 3513 2113 
L 3513 0 
L 2938 0 
L 2938 2094 
Q 2938 2591 2744 2837 
Q 2550 3084 2163 3084 
Q 1697 3084 1428 2787 
Q 1159 2491 1159 1978 
L 1159 0 
L 581 0 
L 581 3500 
L 1159 3500 
L 1159 2956 
Q 1366 3272 1645 3428 
Q 1925 3584 2291 3584 
Q 2894 3584 3203 3211 
Q 3513 2838 3513 2113 
z
" transform="scale(0.015625)"/>
       <path id="DejaVuSans-73" d="M 2834 3397 
L 2834 2853 
Q 2591 2978 2328 3040 
Q 2066 3103 1784 3103 
Q 1356 3103 1142 2972 
Q 928 2841 928 2578 
Q 928 2378 1081 2264 
Q 1234 2150 1697 2047 
L 1894 2003 
Q 2506 1872 2764 1633 
Q 3022 1394 3022 966 
Q 3022 478 2636 193 
Q 2250 -91 1575 -91 
Q 1294 -91 989 -36 
Q 684 19 347 128 
L 347 722 
Q 666 556 975 473 
Q 1284 391 1588 391 
Q 1994 391 2212 530 
Q 2431 669 2431 922 
Q 2431 1156 2273 1281 
Q 2116 1406 1581 1522 
L 1381 1569 
Q 847 1681 609 1914 
Q 372 2147 372 2553 
Q 372 3047 722 3315 
Q 1072 3584 1716 3584 
Q 2034 3584 2315 3537 
Q 2597 3491 2834 3397 
z
" transform="scale(0.015625)"/>
      </defs>
      <use xlink:href="#DejaVuSans-69"/>
      <use xlink:href="#DejaVuSans-74" x="27.783203"/>
      <use xlink:href="#DejaVuSans-65" x="66.992188"/>
      <use xlink:href="#DejaVuSans-72" x="128.515625"/>
      <use xlink:href="#DejaVuSans-61" x="169.628906"/>
      <use xlink:href="#DejaVuSans-74" x="230.908203"/>
      <use xlink:href="#DejaVuSans-69" x="270.117188"/>
      <use xlink:href="#DejaVuSans-6f" x="297.900391"/>
      <use xlink:href="#DejaVuSans-6e" x="359.082031"/>
      <use xlink:href="#DejaVuSans-73" x="422.460938"/>
     </g>
    </g>
   </g>
   <g id="matplotlib.axis_2">
    <g id="ytick_1">
     <g id="line2d_7">
      <defs>
       <path id="m84f82868ae" d="M 0 0 
L -3.5 0 
" style="stroke: #000000; stroke-width: 0.8"/>
      </defs>
      <g>
       <use xlink:href="#m84f82868ae" x="92.490625" y="275.383624" style="stroke: #000000; stroke-width: 0.8"/>
      </g>
     </g>
     <g id="text_8">
      <!-- −300 -->
      <g transform="translate(30.55625 282.982061) scale(0.2 -0.2)">
       <defs>
        <path id="DejaVuSans-2212" d="M 678 2272 
L 4684 2272 
L 4684 1741 
L 678 1741 
L 678 2272 
z
" transform="scale(0.015625)"/>
        <path id="DejaVuSans-33" d="M 2597 2516 
Q 3050 2419 3304 2112 
Q 3559 1806 3559 1356 
Q 3559 666 3084 287 
Q 2609 -91 1734 -91 
Q 1441 -91 1130 -33 
Q 819 25 488 141 
L 488 750 
Q 750 597 1062 519 
Q 1375 441 1716 441 
Q 2309 441 2620 675 
Q 2931 909 2931 1356 
Q 2931 1769 2642 2001 
Q 2353 2234 1838 2234 
L 1294 2234 
L 1294 2753 
L 1863 2753 
Q 2328 2753 2575 2939 
Q 2822 3125 2822 3475 
Q 2822 3834 2567 4026 
Q 2313 4219 1838 4219 
Q 1578 4219 1281 4162 
Q 984 4106 628 3988 
L 628 4550 
Q 988 4650 1302 4700 
Q 1616 4750 1894 4750 
Q 2613 4750 3031 4423 
Q 3450 4097 3450 3541 
Q 3450 3153 3228 2886 
Q 3006 2619 2597 2516 
z
" transform="scale(0.015625)"/>
       </defs>
       <use xlink:href="#DejaVuSans-2212"/>
       <use xlink:href="#DejaVuSans-33" x="83.789062"/>
       <use xlink:href="#DejaVuSans-30" x="147.412109"/>
       <use xlink:href="#DejaVuSans-30" x="211.035156"/>
      </g>
     </g>
    </g>
    <g id="ytick_2">
     <g id="line2d_8">
      <g>
       <use xlink:href="#m84f82868ae" x="92.490625" y="226.548593" style="stroke: #000000; stroke-width: 0.8"/>
      </g>
     </g>
     <g id="text_9">
      <!-- −200 -->
      <g transform="translate(30.55625 234.147031) scale(0.2 -0.2)">
       <use xlink:href="#DejaVuSans-2212"/>
       <use xlink:href="#DejaVuSans-32" x="83.789062"/>
       <use xlink:href="#DejaVuSans-30" x="147.412109"/>
       <use xlink:href="#DejaVuSans-30" x="211.035156"/>
      </g>
     </g>
    </g>
    <g id="ytick_3">
     <g id="line2d_9">
      <g>
       <use xlink:href="#m84f82868ae" x="92.490625" y="177.713563" style="stroke: #000000; stroke-width: 0.8"/>
      </g>
     </g>
     <g id="text_10">
      <!-- −100 -->
      <g transform="translate(30.55625 185.312) scale(0.2 -0.2)">
       <use xlink:href="#DejaVuSans-2212"/>
       <use xlink:href="#DejaVuSans-31" x="83.789062"/>
       <use xlink:href="#DejaVuSans-30" x="147.412109"/>
       <use xlink:href="#DejaVuSans-30" x="211.035156"/>
      </g>
     </g>
    </g>
    <g id="ytick_4">
     <g id="line2d_10">
      <g>
       <use xlink:href="#m84f82868ae" x="92.490625" y="128.878533" style="stroke: #000000; stroke-width: 0.8"/>
      </g>
     </g>
     <g id="text_11">
      <!-- 0 -->
      <g transform="translate(72.765625 136.47697) scale(0.2 -0.2)">
       <use xlink:href="#DejaVuSans-30"/>
      </g>
     </g>
    </g>
    <g id="ytick_5">
     <g id="line2d_11">
      <g>
       <use xlink:href="#m84f82868ae" x="92.490625" y="80.043502" style="stroke: #000000; stroke-width: 0.8"/>
      </g>
     </g>
     <g id="text_12">
      <!-- 100 -->
      <g transform="translate(47.315625 87.64194) scale(0.2 -0.2)">
       <use xlink:href="#DejaVuSans-31"/>
       <use xlink:href="#DejaVuSans-30" x="63.623047"/>
       <use xlink:href="#DejaVuSans-30" x="127.246094"/>
      </g>
     </g>
    </g>
    <g id="text_13">
     <!-- Loss -->
     <g transform="translate(22.396875 191.970625) rotate(-90) scale(0.2 -0.2)">
      <defs>
       <path id="DejaVuSans-4c" d="M 628 4666 
L 1259 4666 
L 1259 531 
L 3531 531 
L 3531 0 
L 628 0 
L 628 4666 
z
" transform="scale(0.015625)"/>
      </defs>
      <use xlink:href="#DejaVuSans-4c"/>
      <use xlink:href="#DejaVuSans-6f" x="53.962891"/>
      <use xlink:href="#DejaVuSans-73" x="115.144531"/>
      <use xlink:href="#DejaVuSans-73" x="167.244141"/>
     </g>
    </g>
   </g>
   <g id="line2d_12">
    <path d="M 117.854261 107.143996 
L 118.315418 57.897655 
L 118.776575 62.589217 
L 119.237732 71.838444 
L 119.698889 72.058068 
L 120.160046 78.835638 
L 120.621204 48.700135 
L 121.082361 69.151889 
L 121.543518 52.930212 
L 122.004675 66.096965 
L 122.465832 66.553032 
L 122.926989 76.876548 
L 123.388146 55.497317 
L 123.849303 51.115701 
L 124.31046 44.03625 
L 124.771617 51.05182 
L 125.232774 50.556376 
L 125.693931 47.220406 
L 126.155088 48.866878 
L 126.616245 59.287779 
L 127.077402 53.814842 
L 127.999716 75.333709 
L 128.460873 66.979208 
L 128.92203 67.998484 
L 129.844344 56.908396 
L 130.305501 56.25427 
L 130.766658 62.683745 
L 131.227815 62.834119 
L 131.688972 61.864756 
L 132.150129 59.659047 
L 132.611286 66.219703 
L 133.072443 64.707216 
L 133.5336 63.601624 
L 133.994757 67.449061 
L 134.455914 60.970884 
L 134.917071 60.75248 
L 135.378228 63.60389 
L 136.761699 58.813955 
L 137.222856 67.023484 
L 137.684013 68.229069 
L 138.14517 64.692444 
L 138.606327 67.37511 
L 139.067485 70.902459 
L 139.528642 69.795967 
L 139.989799 74.728848 
L 140.450956 76.321566 
L 140.912113 77.42436 
L 141.37327 83.33243 
L 141.834427 83.696863 
L 142.295584 81.139497 
L 142.756741 84.503779 
L 143.217898 82.653976 
L 143.679055 83.971179 
L 144.140212 83.117448 
L 144.601369 92.629959 
L 145.062526 90.330475 
L 145.523683 92.275981 
L 145.98484 90.397232 
L 146.445997 85.023339 
L 147.368311 91.154721 
L 147.829468 90.441416 
L 148.290625 93.864369 
L 148.751782 94.436591 
L 149.212939 92.705835 
L 149.674096 92.095729 
L 150.135253 93.933289 
L 150.59641 93.130061 
L 151.057567 96.57687 
L 151.518724 96.221721 
L 151.979881 97.915892 
L 152.441038 97.105258 
L 152.902195 96.027037 
L 153.363352 98.865555 
L 153.824509 98.462802 
L 154.285666 99.901126 
L 154.746823 98.010141 
L 155.20798 96.744706 
L 155.669137 101.116059 
L 156.130294 101.463043 
L 156.591451 99.407777 
L 157.052608 99.079392 
L 157.513765 101.748936 
L 157.974923 96.373721 
L 158.43608 98.877538 
L 158.897237 98.64235 
L 159.358394 101.755311 
L 159.819551 100.498503 
L 160.280708 100.197472 
L 160.741865 101.359065 
L 161.203022 103.278208 
L 161.664179 101.968927 
L 162.125336 102.623733 
L 162.586493 105.687596 
L 163.04765 105.591574 
L 163.508807 105.222651 
L 163.969964 105.442727 
L 164.431121 105.435291 
L 164.892278 106.080857 
L 165.353435 104.933541 
L 166.275749 105.439361 
L 166.736906 104.112317 
L 167.198063 107.187193 
L 167.65922 105.623654 
L 168.120377 108.334138 
L 168.581534 109.120913 
L 169.042691 108.514233 
L 169.503848 108.621994 
L 169.965005 110.088807 
L 170.426162 107.799802 
L 170.887319 110.200852 
L 171.348476 107.412463 
L 171.809633 110.288919 
L 172.27079 110.331991 
L 172.731947 109.867902 
L 173.193104 112.363599 
L 173.654261 111.384776 
L 174.115418 112.310107 
L 174.576575 111.154051 
L 175.037732 111.986557 
L 175.498889 111.672193 
L 175.960046 113.862704 
L 176.421204 113.19168 
L 176.882361 114.015056 
L 177.343518 115.817951 
L 177.804675 115.191117 
L 178.265832 113.570448 
L 178.726989 114.281939 
L 179.188146 113.887923 
L 179.649303 115.180849 
L 180.11046 113.979114 
L 180.571617 113.208098 
L 181.032774 113.576696 
L 181.493931 112.998 
L 181.955088 113.869487 
L 182.877402 111.773753 
L 183.338559 114.315421 
L 183.799716 114.651964 
L 184.260873 113.95065 
L 184.72203 111.565328 
L 185.183187 113.268465 
L 185.644344 113.723887 
L 186.105501 116.218163 
L 186.566658 116.482947 
L 187.488972 116.223465 
L 187.950129 115.955427 
L 188.872443 116.043666 
L 189.3336 115.516151 
L 189.794757 115.237095 
L 190.255914 115.526654 
L 190.717071 116.500384 
L 191.178228 115.701997 
L 191.639385 115.514227 
L 192.100542 116.566719 
L 193.022856 113.033838 
L 193.484013 117.386173 
L 193.94517 115.030196 
L 194.406327 116.114283 
L 195.328642 116.685988 
L 195.789799 116.285479 
L 196.250956 116.383238 
L 196.712113 117.809727 
L 197.17327 116.247651 
L 198.095584 117.118397 
L 198.556741 116.978864 
L 199.017898 116.266156 
L 199.479055 116.828591 
L 199.940212 115.704825 
L 200.401369 117.848933 
L 200.862526 117.516695 
L 201.323683 118.217987 
L 201.78484 117.790735 
L 202.245997 117.613888 
L 202.707154 117.925882 
L 203.168311 116.471722 
L 203.629468 116.633613 
L 204.090625 116.587235 
L 204.551782 118.686857 
L 205.012939 117.391465 
L 205.474096 116.579879 
L 205.935253 116.951022 
L 206.39641 118.058637 
L 207.318724 116.99867 
L 207.779881 118.228131 
L 208.241038 118.162169 
L 208.702195 117.314565 
L 209.163352 117.584009 
L 209.624509 116.539411 
L 210.085666 116.131323 
L 210.546823 116.251882 
L 211.00798 117.751235 
L 211.469137 118.780418 
L 211.930294 117.675981 
L 212.391451 117.951128 
L 212.852608 117.44087 
L 213.313765 118.886704 
L 213.774923 119.55603 
L 214.23608 119.246623 
L 214.697237 118.79163 
L 215.619551 118.79812 
L 216.080708 117.778909 
L 216.541865 118.844346 
L 217.003022 119.614259 
L 217.464179 119.138963 
L 217.925336 117.891263 
L 218.386493 118.490706 
L 219.308807 118.425521 
L 219.769964 118.760239 
L 220.231121 117.305008 
L 220.692278 116.889487 
L 221.153435 118.018663 
L 221.614592 117.121134 
L 222.075749 117.851503 
L 222.536906 119.094316 
L 222.998063 118.676769 
L 223.45922 119.082107 
L 223.920377 118.623146 
L 224.381534 117.768881 
L 225.303848 118.825413 
L 225.765005 118.2673 
L 226.226162 119.092046 
L 226.687319 118.887891 
L 227.148476 118.195138 
L 227.609633 118.752301 
L 228.07079 118.149038 
L 228.531947 118.431451 
L 228.993104 119.302395 
L 229.915418 118.081396 
L 230.376575 119.076726 
L 230.837732 120.398914 
L 231.298889 118.94 
L 231.760046 119.590047 
L 232.682361 118.686176 
L 233.143518 119.379729 
L 233.604675 119.397097 
L 234.065832 119.043407 
L 234.526989 119.561633 
L 235.449303 118.768141 
L 236.371617 118.335123 
L 237.293931 119.719201 
L 237.755088 119.506408 
L 238.216245 120.306386 
L 238.677402 119.454758 
L 239.138559 119.946772 
L 239.599716 119.823493 
L 240.060873 120.35784 
L 240.983187 120.023433 
L 241.444344 121.096725 
L 241.905501 120.173311 
L 242.366658 119.595591 
L 242.827815 119.661148 
L 243.288972 120.087533 
L 243.750129 119.862036 
L 244.211286 120.239391 
L 244.672443 120.83174 
L 245.1336 119.818343 
L 245.594757 119.496576 
L 246.055914 120.018282 
L 246.517071 119.449078 
L 246.978228 119.43946 
L 247.439385 121.084304 
L 247.900542 120.896631 
L 248.361699 119.88671 
L 248.822856 121.115615 
L 249.284013 121.079473 
L 249.74517 120.582263 
L 250.206327 121.267944 
L 250.667485 118.883221 
L 251.128642 119.745675 
L 251.589799 121.08311 
L 252.050956 120.034706 
L 252.512113 120.5562 
L 252.97327 120.845277 
L 253.434427 120.157877 
L 253.895584 121.521667 
L 254.817898 121.102262 
L 255.279055 120.238156 
L 255.740212 121.339193 
L 256.201369 120.199512 
L 256.662526 121.283286 
L 257.123683 121.328363 
L 257.58484 121.090805 
L 258.045997 121.248682 
L 258.507154 121.526801 
L 258.968311 121.493453 
L 259.429468 121.636812 
L 259.890625 121.077947 
L 260.351782 121.476202 
L 260.812939 121.201237 
L 261.274096 121.400379 
L 262.19641 122.001312 
L 262.657567 122.243346 
L 263.118724 121.400922 
L 263.579881 121.35934 
L 264.041038 121.848311 
L 264.963352 122.28045 
L 265.424509 122.622874 
L 265.885666 122.336203 
L 266.346823 121.806722 
L 266.80798 122.501442 
L 268.191451 122.077469 
L 268.652608 122.280026 
L 269.113765 122.860493 
L 270.03608 122.665896 
L 270.497237 122.895017 
L 270.958394 122.338507 
L 271.880708 122.451576 
L 272.803022 121.707988 
L 273.264179 122.859794 
L 273.725336 122.667835 
L 274.64765 123.603367 
L 275.108807 123.089229 
L 275.569964 122.382557 
L 276.031121 122.72702 
L 276.492278 123.601962 
L 276.953435 123.963273 
L 277.414592 123.736112 
L 277.875749 123.857175 
L 278.336906 122.995332 
L 278.798063 123.003966 
L 279.25922 123.310766 
L 279.720377 122.64072 
L 280.642691 124.149156 
L 281.565005 124.441286 
L 282.026162 123.90084 
L 282.487319 124.299631 
L 282.948476 124.292514 
L 283.409633 124.465209 
L 284.331947 124.244183 
L 284.793104 124.511954 
L 285.254261 123.637802 
L 285.715418 124.307783 
L 286.637732 124.127827 
L 287.098889 123.726083 
L 288.021204 123.724214 
L 288.482361 124.74 
L 288.943518 124.949683 
L 289.404675 123.838682 
L 289.865832 123.885097 
L 290.326989 124.16535 
L 290.788146 124.699011 
L 291.249303 124.508582 
L 291.71046 125.245366 
L 292.632774 124.571209 
L 293.093931 125.131734 
L 293.555088 125.363722 
L 294.477402 125.050739 
L 294.938559 125.055236 
L 295.399716 125.719419 
L 295.860873 125.032975 
L 296.32203 125.356857 
L 296.783187 124.376778 
L 297.244344 125.585305 
L 297.705501 125.55837 
L 298.166658 126.362388 
L 298.627815 125.94994 
L 299.088972 126.090182 
L 299.550129 125.831119 
L 300.9336 125.499097 
L 301.394757 125.888574 
L 301.855914 125.332861 
L 302.317071 125.287222 
L 302.778228 125.851303 
L 303.239385 124.967126 
L 304.161699 124.594401 
L 304.622856 125.561248 
L 305.084013 125.775176 
L 305.54517 125.727656 
L 306.006327 125.336836 
L 306.467485 125.301675 
L 306.928642 125.451579 
L 307.850956 124.365278 
L 308.312113 125.077519 
L 308.77327 124.378871 
L 309.234427 125.538634 
L 309.695584 125.434654 
L 310.156741 125.647375 
L 310.617898 125.990991 
L 311.079055 126.135326 
L 311.540212 125.767461 
L 312.001369 125.845781 
L 313.38484 125.635223 
L 313.845997 125.766875 
L 314.307154 125.191649 
L 314.768311 125.427896 
L 315.229468 125.349871 
L 315.690625 125.789513 
L 316.151782 125.161249 
L 317.074096 125.094227 
L 317.535253 124.689431 
L 317.99641 125.550149 
L 318.457567 124.966956 
L 318.918724 125.69994 
L 319.379881 125.228714 
L 319.841038 125.309919 
L 320.302195 125.213436 
L 320.763352 125.708024 
L 321.224509 125.588056 
L 321.685666 125.288172 
L 322.146823 126.054596 
L 322.60798 125.552537 
L 323.069137 125.544268 
L 323.530294 126.226752 
L 323.991451 125.488179 
L 324.452608 125.763466 
L 324.913765 126.171901 
L 325.374923 125.513511 
L 325.83608 125.794149 
L 326.297237 125.658881 
L 326.758394 126.502453 
L 327.219551 126.525528 
L 327.680708 126.031675 
L 328.141865 126.090373 
L 328.603022 125.781718 
L 329.064179 125.779334 
L 329.525336 125.889086 
L 330.908807 126.961614 
L 331.369964 126.142468 
L 332.292278 126.914565 
L 332.753435 126.207148 
L 333.675749 126.59136 
L 334.136906 126.02833 
L 335.05922 126.177766 
L 335.520377 125.841597 
L 335.981534 125.92563 
L 336.442691 125.752012 
L 336.903848 126.261588 
L 337.365005 126.077602 
L 337.826162 126.604134 
L 338.287319 126.23771 
L 338.748476 126.861873 
L 339.209633 126.203507 
L 339.67079 126.376087 
L 340.593104 127.224808 
L 341.054261 126.901074 
L 341.515418 126.415117 
L 341.976575 126.696078 
L 342.437732 127.224358 
L 343.360046 126.999313 
L 343.821204 127.609103 
L 344.282361 127.060794 
L 344.743518 127.279437 
L 345.204675 127.929773 
L 345.665832 127.681504 
L 346.126989 126.765478 
L 346.588146 127.210413 
L 347.049303 128.074752 
L 347.51046 127.983863 
L 348.432774 127.600631 
L 348.893931 127.585221 
L 349.355088 127.371201 
L 349.816245 128.154938 
L 351.199716 127.58216 
L 352.583187 128.134644 
L 353.044344 127.549762 
L 353.505501 128.180398 
L 353.966658 128.32243 
L 354.427815 128.220869 
L 354.888972 127.773186 
L 355.350129 128.274126 
L 355.811286 128.375967 
L 357.194757 128.272506 
L 358.117071 127.626651 
L 358.578228 127.882218 
L 359.039385 128.622262 
L 359.500542 128.624273 
L 359.961699 128.380195 
L 361.34517 127.226119 
L 361.806327 127.475618 
L 362.267485 127.335648 
L 362.728642 127.884496 
L 363.650956 128.029227 
L 364.112113 127.075883 
L 364.57327 127.338533 
L 365.034427 128.281584 
L 365.495584 128.207444 
L 365.956741 127.372999 
L 366.417898 127.572064 
L 366.879055 127.077766 
L 367.801369 128.311318 
L 368.262526 128.307992 
L 369.18484 127.580508 
L 369.645997 126.764973 
L 370.107154 127.734314 
L 370.568311 126.768116 
L 371.029468 126.896653 
L 371.490625 126.813981 
L 371.951782 127.304233 
L 372.412939 127.431338 
L 372.874096 126.937992 
L 373.335253 126.795393 
L 373.79641 127.407002 
L 374.718724 127.013732 
L 375.179881 127.122365 
L 375.641038 128.153388 
L 376.102195 126.857992 
L 376.563352 127.826451 
L 377.024509 127.222345 
L 377.485666 127.428328 
L 377.946823 126.994658 
L 378.40798 127.659318 
L 378.869137 126.673171 
L 379.330294 127.574447 
L 379.791451 127.432291 
L 380.252608 128.323104 
L 380.713765 128.007326 
L 381.174923 127.952391 
L 381.63608 127.181402 
L 382.097237 128.105599 
L 382.558394 127.729914 
L 383.019551 128.242449 
L 383.480708 128.175044 
L 383.941865 127.805558 
L 384.403022 128.141651 
L 384.864179 128.10651 
L 385.325336 128.312509 
L 385.786493 127.661634 
L 386.708807 128.423643 
L 387.169964 128.112519 
L 387.631121 128.424213 
L 388.553435 128.212217 
L 389.014592 128.250398 
L 389.475749 127.226366 
L 389.936906 127.538592 
L 390.398063 128.460846 
L 390.85922 128.842332 
L 391.320377 128.382478 
L 391.781534 128.311378 
L 392.242691 129.098682 
L 393.165005 128.93048 
L 394.087319 129.345805 
L 394.548476 129.571246 
L 395.009633 129.133117 
L 395.47079 128.924347 
L 395.931947 129.6165 
L 396.854261 128.979247 
L 397.315418 129.156974 
L 397.776575 128.539898 
L 398.698889 129.568516 
L 399.160046 128.962134 
L 399.621204 128.878142 
L 400.082361 129.052093 
L 400.543518 128.657464 
L 401.004675 128.693572 
L 401.465832 129.237439 
L 401.926989 129.440119 
L 402.388146 128.315439 
L 402.849303 129.084725 
L 403.31046 129.259416 
L 403.771617 129.020508 
L 405.155088 129.65396 
L 405.616245 129.759707 
L 406.077402 129.736929 
L 406.538559 129.989611 
L 406.999716 130.095301 
L 408.383187 129.332092 
L 408.844344 129.546395 
L 409.305501 129.575164 
L 409.766658 129.787767 
L 410.227815 129.783134 
L 411.150129 130.133199 
L 412.072443 129.863755 
L 412.5336 130.226971 
L 412.994757 129.521859 
L 413.455914 129.919794 
L 413.917071 129.266993 
L 414.378228 130.362737 
L 414.839385 129.671953 
L 415.300542 130.100109 
L 415.761699 130.124111 
L 416.222856 130.386335 
L 416.684013 130.077366 
L 417.14517 130.468662 
L 417.606327 130.247035 
L 418.067485 130.502511 
L 418.528642 129.622565 
L 418.989799 130.044121 
L 419.450956 129.637852 
L 419.912113 129.852127 
L 420.37327 129.820835 
L 420.834427 130.095071 
L 421.295584 129.915606 
L 421.756741 130.056417 
L 422.679055 129.681197 
L 423.140212 129.462623 
L 423.601369 129.722866 
L 424.062526 129.678706 
L 424.523683 129.344987 
L 424.98484 129.697922 
L 425.445997 129.556763 
L 425.907154 129.590645 
L 426.368311 129.844723 
L 426.829468 129.945158 
L 427.290625 129.664395 
L 427.751782 130.114712 
L 428.212939 129.91082 
L 428.674096 130.040111 
L 429.135253 129.634323 
L 429.59641 130.2478 
L 430.057567 129.693251 
L 430.518724 129.574529 
L 430.979881 128.501651 
L 431.441038 129.833853 
L 431.902195 129.795103 
L 433.285666 130.259546 
L 433.746823 129.709199 
L 434.20798 130.61436 
L 434.669137 129.822597 
L 435.130294 130.118296 
L 435.591451 129.588654 
L 436.052608 130.485866 
L 436.513765 129.886924 
L 437.897237 130.319328 
L 438.358394 129.869323 
L 438.819551 130.428421 
L 439.741865 129.777697 
L 440.203022 130.069704 
L 440.664179 129.903047 
L 441.125336 130.419247 
L 441.586493 130.241578 
L 442.04765 130.275795 
L 442.508807 130.005742 
L 442.969964 129.965241 
L 444.353435 130.486054 
L 444.814592 130.162824 
L 445.275749 130.53959 
L 445.736906 130.735584 
L 446.198063 130.176004 
L 447.120377 130.229223 
L 447.581534 130.476132 
L 448.042691 130.424463 
L 448.503848 129.924593 
L 449.426162 130.363919 
L 450.348476 130.355589 
L 450.809633 130.739932 
L 451.27079 130.694598 
L 451.731947 130.334052 
L 452.193104 129.444201 
L 452.654261 129.777074 
L 453.115418 130.248941 
L 453.576575 130.348248 
L 454.037732 130.020741 
L 454.498889 129.961073 
L 454.960046 130.082845 
L 455.421204 130.397618 
L 455.882361 129.982875 
L 456.343518 130.561671 
L 456.804675 130.213164 
L 457.265832 130.604929 
L 457.726989 131.294337 
L 458.188146 130.740751 
L 458.649303 130.589133 
L 459.11046 130.822809 
L 459.571617 130.283417 
L 460.032774 130.68735 
L 460.493931 130.50424 
L 460.955088 129.904625 
L 461.416245 130.646921 
L 462.338559 129.985194 
L 462.799716 129.977035 
L 463.260873 130.223887 
L 463.72203 130.193264 
L 464.183187 129.997993 
L 464.644344 130.135833 
L 465.105501 130.397035 
L 466.027815 130.167881 
L 466.950129 130.305398 
L 467.411286 130.505332 
L 467.872443 130.181581 
L 468.3336 130.489115 
L 469.255914 130.091959 
L 469.717071 129.265459 
L 470.178228 129.368122 
L 470.639385 129.748727 
L 471.100542 129.728249 
L 471.561699 129.272479 
L 472.022856 129.345508 
L 472.484013 129.594932 
L 472.94517 129.031852 
L 473.867485 130.163698 
L 474.328642 130.015808 
L 474.789799 130.398374 
L 475.250956 130.497082 
L 475.712113 130.284284 
L 476.17327 129.895821 
L 476.634427 129.95164 
L 477.095584 130.228593 
L 477.556741 129.924436 
L 478.017898 129.945637 
L 478.479055 129.703161 
L 478.940212 129.928617 
L 479.401369 129.874596 
L 479.862526 129.065751 
L 480.323683 129.610412 
L 480.78484 129.641082 
L 481.245997 130.025137 
L 481.707154 129.282538 
L 482.168311 129.887531 
L 482.629468 129.134435 
L 483.090625 129.5941 
L 483.551782 129.310474 
L 484.012939 129.619078 
L 484.935253 129.876 
L 485.857567 129.413999 
L 486.318724 129.846728 
L 486.779881 129.839309 
L 487.241038 129.532719 
L 487.702195 129.929045 
L 488.163352 129.81411 
L 488.624509 129.001903 
L 489.546823 129.802867 
L 490.00798 129.036354 
L 490.469137 129.566592 
L 490.930294 128.963836 
L 491.391451 129.210057 
L 491.852608 129.202111 
L 492.313765 128.938855 
L 492.774923 128.992754 
L 493.23608 129.552311 
L 493.697237 129.595012 
L 494.158394 129.500006 
L 494.619551 129.81267 
L 495.080708 129.091221 
L 495.541865 129.534045 
L 496.003022 129.779661 
L 496.464179 129.192974 
L 496.925336 129.568089 
L 497.386493 129.663963 
L 497.84765 129.337801 
L 498.308807 129.403436 
L 498.769964 129.2691 
L 499.231121 129.505534 
L 500.153435 129.271972 
L 500.614592 128.770547 
L 501.075749 129.282876 
L 501.536906 128.817693 
L 501.998063 129.648637 
L 502.920377 129.777384 
L 503.381534 129.827788 
L 503.842691 129.643045 
L 504.303848 129.849396 
L 504.765005 129.708486 
L 505.226162 129.771251 
L 505.687319 129.565484 
L 506.148476 130.118856 
L 506.609633 130.012593 
L 507.07079 129.504526 
L 507.531947 129.831151 
L 507.993104 130.334078 
L 508.454261 129.457748 
L 508.915418 129.939677 
L 509.376575 129.908597 
L 509.837732 129.673478 
L 510.298889 129.825302 
L 510.760046 129.424542 
L 511.221204 130.086837 
L 511.682361 129.326513 
L 512.143518 129.394737 
L 513.065832 130.025031 
L 513.526989 129.457657 
L 513.988146 129.465405 
L 514.449303 128.855817 
L 515.371617 129.675592 
L 515.832774 129.273101 
L 516.293931 129.699137 
L 517.677402 129.275913 
L 518.138559 129.060016 
L 518.599716 129.018594 
L 519.060873 129.602737 
L 519.52203 129.918736 
L 519.983187 129.743232 
L 520.444344 129.039499 
L 520.905501 129.410146 
L 521.366658 129.372393 
L 521.827815 129.181139 
L 522.288972 129.177771 
L 522.750129 129.014223 
L 523.211286 129.492857 
L 523.672443 128.96327 
L 524.1336 129.274704 
L 525.055914 129.293524 
L 525.517071 129.699108 
L 525.978228 129.333775 
L 526.439385 129.364506 
L 526.900542 129.227237 
L 527.822856 129.937171 
L 528.284013 129.694828 
L 528.74517 130.339109 
L 529.206327 130.202544 
L 529.667485 129.356784 
L 530.128642 130.455383 
L 530.589799 129.527187 
L 531.050956 128.905974 
L 531.512113 129.542912 
L 531.97327 129.139699 
L 532.434427 129.622053 
L 532.895584 129.102166 
L 533.356741 129.624722 
L 533.817898 129.29776 
L 534.279055 129.665699 
L 534.740212 129.234349 
L 535.662526 129.9291 
L 536.58484 129.623833 
L 537.507154 129.901507 
L 537.968311 129.783073 
L 538.890625 130.009547 
L 539.351782 129.779832 
L 539.812939 129.397797 
L 540.274096 129.898398 
L 541.19641 129.799989 
L 541.657567 130.19684 
L 542.118724 129.902221 
L 542.579881 130.106436 
L 543.041038 129.724585 
L 543.963352 130.254489 
L 544.424509 129.517266 
L 544.885666 130.249029 
L 545.346823 129.543914 
L 545.80798 129.596553 
L 546.269137 129.270234 
L 547.191451 129.248627 
L 548.113765 129.526264 
L 549.03608 129.563824 
L 549.497237 129.311416 
L 550.419551 129.2001 
L 550.880708 129.41512 
L 551.341865 130.050375 
L 551.803022 129.880463 
L 552.264179 129.577702 
L 552.725336 129.140209 
L 553.186493 129.622756 
L 553.64765 129.33362 
L 554.108807 129.694871 
L 554.569964 128.930139 
L 555.031121 129.217149 
L 555.953435 129.404956 
L 556.414592 129.136685 
L 556.875749 130.160433 
L 557.336906 129.430545 
L 557.798063 129.717037 
L 558.25922 129.120133 
L 558.720377 129.5394 
L 559.642691 129.265994 
L 560.103848 129.492653 
L 560.565005 130.105262 
L 561.026162 128.873867 
L 561.948476 129.19581 
L 562.409633 128.567282 
L 562.87079 129.009785 
L 563.331947 128.841077 
L 563.793104 129.666749 
L 564.254261 129.075663 
L 564.715418 129.469776 
L 565.176575 129.376064 
L 565.637732 129.002378 
L 566.098889 129.031508 
L 567.021204 128.839035 
L 567.482361 128.245778 
L 567.943518 128.814183 
L 568.404675 128.826568 
L 568.865832 128.56749 
L 569.326989 128.927847 
L 569.788146 129.097931 
L 570.249303 128.994362 
L 570.71046 129.273158 
L 571.171617 128.838646 
L 571.632774 128.999002 
L 572.093931 128.377869 
L 572.555088 128.440455 
L 573.016245 129.010179 
L 573.477402 128.580631 
L 573.938559 129.050767 
L 574.399716 128.845646 
L 574.860873 129.086807 
L 575.783187 129.15741 
L 576.244344 129.5106 
L 576.705501 128.575541 
L 577.627815 128.760225 
L 578.088972 129.086237 
L 579.011286 128.731246 
L 579.9336 129.323534 
L 580.394757 128.882291 
L 580.855914 129.199844 
L 581.317071 129.260641 
L 581.778228 129.715386 
L 582.239385 129.606151 
L 582.700542 129.301528 
L 583.161699 129.802307 
L 583.622856 129.950324 
L 584.084013 129.699864 
L 584.54517 129.874097 
L 585.006327 129.799927 
L 585.467485 130.122401 
L 585.928642 130.100335 
L 586.389799 129.822963 
L 587.77327 129.595272 
L 588.234427 129.9061 
L 589.156741 130.102403 
L 589.617898 129.877028 
L 590.079055 129.822044 
L 590.540212 130.242333 
L 591.001369 129.830423 
L 591.923683 129.706848 
L 592.38484 130.056645 
L 593.307154 129.658311 
L 593.768311 129.922129 
L 594.229468 129.511503 
L 594.690625 129.799767 
L 595.612939 129.697311 
L 596.074096 129.698124 
L 596.535253 130.046745 
L 596.99641 129.713902 
L 597.457567 129.811349 
L 597.918724 130.063575 
L 598.379881 129.193286 
L 598.841038 129.724635 
L 599.302195 129.657031 
L 599.763352 129.248464 
L 600.224509 129.568345 
L 600.685666 129.219842 
L 601.146823 129.909134 
L 601.60798 129.257718 
L 602.069137 129.274771 
L 602.530294 129.128446 
L 602.991451 129.49554 
L 603.452608 129.473543 
L 603.913765 129.575969 
L 604.83608 129.300355 
L 605.297237 129.008837 
L 605.758394 128.870192 
L 606.680708 129.004234 
L 607.141865 128.737137 
L 607.603022 129.50202 
L 608.064179 129.2725 
L 608.525336 129.694257 
L 609.44765 129.29811 
L 609.908807 129.580447 
L 610.369964 129.122254 
L 610.831121 129.78399 
L 611.292278 129.300112 
L 611.753435 129.313821 
L 612.214592 128.890595 
L 612.675749 129.019493 
L 613.136906 129.438576 
L 613.598063 129.237903 
L 614.05922 129.726783 
L 614.520377 128.955365 
L 614.981534 129.385717 
L 615.442691 129.172345 
L 615.903848 129.462424 
L 616.826162 128.807651 
L 617.287319 129.433521 
L 617.748476 129.657752 
L 618.209633 129.521103 
L 618.67079 129.649701 
L 619.131947 130.221773 
L 620.054261 129.944898 
L 620.515418 129.565189 
L 620.976575 129.363485 
L 621.437732 129.732546 
L 621.898889 129.706345 
L 622.360046 130.18155 
L 622.821204 129.130463 
L 623.282361 129.499494 
L 624.204675 129.123866 
L 624.665832 129.637462 
L 625.126989 129.442032 
L 625.126989 129.442032 
" clip-path="url(#pa880393b9b)" style="fill: none; stroke: #1f77b4; stroke-width: 1.5; stroke-linecap: square"/>
   </g>
   <g id="line2d_13">
    <path d="M 117.854261 296.03625 
L 118.315418 245.888602 
L 118.776575 214.115786 
L 119.237732 230.211874 
L 119.698889 218.599268 
L 120.160046 201.279694 
L 120.621204 204.535087 
L 121.082361 177.439579 
L 121.543518 178.201539 
L 122.004675 178.387096 
L 122.465832 192.048813 
L 122.926989 174.811641 
L 123.388146 173.893449 
L 123.849303 172.251017 
L 124.31046 166.690114 
L 124.771617 165.151511 
L 125.232774 167.933912 
L 125.693931 161.328426 
L 126.155088 164.204354 
L 126.616245 153.408818 
L 127.077402 156.496962 
L 127.999716 141.56019 
L 128.460873 150.693481 
L 128.92203 143.469704 
L 129.383187 147.780062 
L 129.844344 149.479849 
L 130.305501 140.208749 
L 130.766658 138.160794 
L 131.227815 138.65618 
L 131.688972 140.776186 
L 132.150129 140.215124 
L 132.611286 138.391512 
L 133.072443 140.082936 
L 133.5336 140.228622 
L 134.455914 141.201404 
L 134.917071 139.392105 
L 135.378228 138.851676 
L 135.839385 139.384558 
L 136.300542 140.740816 
L 136.761699 142.600893 
L 137.222856 135.421926 
L 137.684013 138.496197 
L 138.14517 137.892038 
L 139.067485 136.234525 
L 139.528642 136.311622 
L 139.989799 135.915689 
L 140.450956 136.605064 
L 140.912113 134.887215 
L 141.37327 133.797282 
L 141.834427 134.763648 
L 142.295584 135.471295 
L 142.756741 135.576047 
L 143.679055 136.853589 
L 144.140212 136.368541 
L 144.601369 134.730041 
L 145.062526 135.079856 
L 145.523683 134.857729 
L 145.98484 135.928269 
L 146.445997 135.902864 
L 146.907154 135.479767 
L 147.368311 136.290746 
L 147.829468 135.345801 
L 148.751782 134.136329 
L 149.212939 135.905185 
L 149.674096 134.292529 
L 150.135253 133.586184 
L 150.59641 134.703917 
L 151.057567 134.803726 
L 151.518724 133.847583 
L 151.979881 133.400648 
L 152.441038 134.508056 
L 152.902195 134.677574 
L 153.363352 133.207451 
L 153.824509 133.966004 
L 154.285666 133.320137 
L 154.746823 133.888563 
L 155.20798 133.800353 
L 155.669137 134.327242 
L 156.130294 133.302039 
L 156.591451 133.276394 
L 157.974923 133.938771 
L 158.43608 134.482109 
L 158.897237 133.800864 
L 159.358394 133.419586 
L 159.819551 133.970658 
L 160.741865 133.536974 
L 161.203022 133.03475 
L 161.664179 132.734868 
L 162.125336 133.151006 
L 162.586493 133.268245 
L 163.04765 133.664162 
L 163.508807 132.938008 
L 163.969964 133.474141 
L 164.431121 133.107742 
L 164.892278 133.13171 
L 165.353435 133.333721 
L 165.814592 133.905861 
L 166.275749 133.8752 
L 166.736906 133.058296 
L 167.198063 132.906614 
L 167.65922 133.401837 
L 168.120377 132.611227 
L 169.042691 133.527885 
L 169.503848 132.677103 
L 169.965005 133.470667 
L 170.426162 133.101942 
L 170.887319 132.407692 
L 171.348476 132.923927 
L 172.27079 133.133008 
L 172.731947 132.127532 
L 173.193104 132.148788 
L 173.654261 132.723923 
L 174.115418 132.550499 
L 174.576575 132.696816 
L 175.498889 132.730674 
L 175.960046 132.97607 
L 176.882361 131.981124 
L 177.343518 132.270329 
L 177.804675 132.740458 
L 178.265832 132.811208 
L 178.726989 133.022354 
L 179.188146 132.379132 
L 179.649303 132.85824 
L 180.11046 132.55696 
L 180.571617 132.710993 
L 181.493931 132.46765 
L 182.416245 132.807079 
L 182.877402 132.556555 
L 183.338559 132.440168 
L 183.799716 132.202275 
L 184.260873 132.521364 
L 184.72203 133.040405 
L 185.183187 132.525261 
L 185.644344 132.330627 
L 186.105501 131.793893 
L 186.566658 132.032172 
L 187.027815 131.869341 
L 187.488972 131.536319 
L 187.950129 131.891923 
L 188.411286 131.570927 
L 188.872443 132.110183 
L 189.3336 132.442361 
L 189.794757 132.353453 
L 190.255914 131.994056 
L 190.717071 132.252207 
L 191.178228 132.03052 
L 191.639385 132.59314 
L 192.100542 132.12911 
L 192.561699 133.529531 
L 193.022856 132.898776 
L 193.484013 131.845893 
L 193.94517 132.623624 
L 194.406327 132.22945 
L 194.867485 132.143768 
L 195.328642 132.356335 
L 195.789799 131.998474 
L 196.250956 132.373811 
L 196.712113 132.069205 
L 197.17327 132.132424 
L 197.634427 132.017815 
L 198.095584 132.31129 
L 198.556741 132.154329 
L 199.017898 132.182232 
L 199.479055 132.54397 
L 199.940212 132.546299 
L 200.401369 132.055983 
L 200.862526 132.3148 
L 201.323683 131.939997 
L 202.245997 132.088832 
L 202.707154 132.0281 
L 203.168311 132.726062 
L 203.629468 132.686055 
L 204.090625 132.429676 
L 204.551782 131.888833 
L 205.012939 132.689105 
L 205.474096 131.980631 
L 206.39641 132.405713 
L 206.857567 132.911299 
L 207.318724 132.242697 
L 208.702195 133.309819 
L 209.163352 132.617213 
L 209.624509 132.793237 
L 210.085666 133.184172 
L 210.546823 132.898692 
L 211.00798 132.476888 
L 211.930294 132.775752 
L 212.391451 132.19803 
L 212.852608 133.001959 
L 213.313765 132.551494 
L 213.774923 132.281968 
L 214.23608 132.615187 
L 214.697237 132.264056 
L 215.158394 132.511456 
L 215.619551 132.562455 
L 216.080708 132.196387 
L 217.003022 132.509296 
L 217.464179 132.625033 
L 218.84765 132.23886 
L 219.308807 132.926132 
L 219.769964 132.622763 
L 220.231121 132.725486 
L 220.692278 134.327361 
L 221.153435 131.88328 
L 221.614592 132.567378 
L 222.075749 132.624808 
L 222.536906 132.867478 
L 222.998063 132.078352 
L 223.45922 132.298725 
L 223.920377 132.375235 
L 224.381534 132.899031 
L 224.842691 132.299455 
L 225.765005 132.698965 
L 226.226162 132.749106 
L 226.687319 132.572047 
L 227.148476 132.735333 
L 227.609633 132.501331 
L 228.07079 132.445749 
L 228.531947 132.800844 
L 228.993104 132.599577 
L 229.454261 132.528069 
L 229.915418 133.418649 
L 230.376575 132.304059 
L 230.837732 132.693067 
L 231.298889 132.084031 
L 231.760046 132.523896 
L 232.221204 132.600118 
L 233.143518 133.298588 
L 233.604675 132.386039 
L 234.526989 133.19902 
L 234.988146 132.739007 
L 235.449303 133.198867 
L 235.91046 132.736262 
L 236.371617 133.412287 
L 236.832774 132.808439 
L 237.293931 132.475197 
L 237.755088 132.640403 
L 238.216245 132.634424 
L 238.677402 133.023913 
L 239.138559 132.313796 
L 239.599716 133.014596 
L 240.060873 132.573859 
L 240.52203 132.310629 
L 240.983187 132.751505 
L 241.444344 132.027011 
L 241.905501 132.637068 
L 242.366658 131.997341 
L 242.827815 132.65365 
L 243.750129 132.254952 
L 244.211286 133.166727 
L 244.672443 133.161044 
L 245.1336 132.868057 
L 246.055914 132.715886 
L 246.517071 133.313758 
L 246.978228 133.259094 
L 247.439385 132.374664 
L 247.900542 132.370019 
L 248.361699 133.122317 
L 249.284013 132.516071 
L 249.74517 132.596273 
L 250.206327 134.212614 
L 250.667485 132.868127 
L 251.589799 133.448304 
L 252.050956 132.497697 
L 252.512113 132.84084 
L 252.97327 132.998419 
L 253.895584 132.979176 
L 254.356741 133.124053 
L 254.817898 132.775361 
L 255.279055 133.26447 
L 255.740212 133.447651 
L 256.201369 132.831682 
L 256.662526 132.643544 
L 257.123683 132.71595 
L 257.58484 133.071013 
L 258.045997 133.205481 
L 258.968311 133.018732 
L 259.429468 133.177562 
L 259.890625 133.212742 
L 260.351782 133.070536 
L 260.812939 132.7111 
L 261.274096 132.619717 
L 262.19641 132.757311 
L 262.657567 132.287485 
L 263.118724 132.917935 
L 263.579881 132.7582 
L 264.041038 132.74229 
L 264.502195 133.203917 
L 264.963352 132.704265 
L 265.424509 132.688085 
L 265.885666 133.394741 
L 266.80798 132.715876 
L 267.269137 132.583073 
L 267.730294 133.363201 
L 268.191451 133.218542 
L 268.652608 133.327864 
L 269.574923 133.046398 
L 270.497237 132.391266 
L 270.958394 132.746404 
L 271.880708 132.579992 
L 272.341865 133.6675 
L 272.803022 133.153177 
L 273.264179 131.871708 
L 273.725336 132.866669 
L 274.64765 132.529901 
L 275.108807 131.081888 
L 275.569964 132.932414 
L 276.031121 132.085451 
L 276.492278 132.760385 
L 276.953435 132.146346 
L 277.414592 132.88974 
L 277.875749 132.563737 
L 278.336906 133.069097 
L 278.798063 133.365032 
L 279.25922 132.478084 
L 279.720377 132.902677 
L 280.181534 132.039826 
L 280.642691 132.423971 
L 281.103848 131.618577 
L 281.565005 132.19232 
L 282.026162 132.203069 
L 282.487319 132.514157 
L 282.948476 131.714142 
L 283.409633 131.917348 
L 283.87079 132.424369 
L 284.793104 132.100815 
L 285.715418 132.229428 
L 286.176575 132.13933 
L 286.637732 132.49344 
L 287.098889 132.105242 
L 287.560046 132.713502 
L 288.021204 132.33379 
L 288.482361 132.39439 
L 288.943518 132.209234 
L 289.404675 132.594199 
L 289.865832 132.673185 
L 290.326989 132.636544 
L 290.788146 132.045622 
L 291.249303 132.008696 
L 291.71046 132.296281 
L 292.171617 132.24379 
L 292.632774 132.629577 
L 293.093931 132.472327 
L 293.555088 132.670994 
L 294.016245 132.354122 
L 294.477402 132.323109 
L 294.938559 132.050248 
L 295.399716 132.447097 
L 295.860873 132.604512 
L 296.32203 132.27953 
L 296.783187 132.520756 
L 297.244344 132.360568 
L 297.705501 132.645127 
L 298.166658 132.133955 
L 298.627815 132.289025 
L 299.088972 132.21375 
L 299.550129 132.499823 
L 300.011286 132.318607 
L 300.472443 132.631839 
L 300.9336 132.517404 
L 301.394757 132.130841 
L 302.778228 132.7143 
L 303.239385 132.746425 
L 305.084013 132.34459 
L 305.54517 132.324889 
L 306.467485 132.673226 
L 306.928642 132.289639 
L 307.850956 132.640017 
L 308.312113 132.315031 
L 309.234427 132.864238 
L 310.156741 132.427692 
L 310.617898 132.489386 
L 311.079055 132.695802 
L 311.540212 132.442031 
L 312.001369 132.444117 
L 312.462526 132.791402 
L 312.923683 132.49101 
L 313.38484 132.756234 
L 313.845997 132.738034 
L 314.307154 133.154523 
L 314.768311 132.749366 
L 315.229468 132.783611 
L 315.690625 132.704427 
L 316.151782 132.845462 
L 317.074096 132.135485 
L 317.535253 132.562593 
L 319.841038 132.575102 
L 320.302195 132.82337 
L 320.763352 132.520394 
L 321.224509 132.787151 
L 321.685666 132.848905 
L 322.146823 132.732427 
L 323.069137 132.34149 
L 323.530294 132.569255 
L 323.991451 132.546035 
L 324.452608 132.382392 
L 324.913765 132.401055 
L 325.374923 132.942796 
L 325.83608 132.836618 
L 326.297237 132.045046 
L 326.758394 132.712118 
L 327.219551 132.475609 
L 329.064179 132.068622 
L 329.525336 132.852751 
L 329.986493 132.256039 
L 330.908807 132.592666 
L 331.369964 132.348413 
L 331.831121 132.303566 
L 332.292278 132.914314 
L 332.753435 132.387026 
L 333.214592 132.243224 
L 333.675749 132.85367 
L 335.05922 132.076505 
L 335.981534 132.539537 
L 336.442691 132.486669 
L 336.903848 132.644096 
L 338.287319 132.471121 
L 338.748476 132.113016 
L 339.209633 132.344418 
L 339.67079 132.339665 
L 340.131947 132.469396 
L 341.054261 133.01542 
L 341.515418 132.548661 
L 341.976575 132.326819 
L 342.437732 131.941895 
L 342.898889 132.629059 
L 343.360046 132.41616 
L 343.821204 132.777514 
L 344.282361 132.625445 
L 344.743518 132.205738 
L 345.204675 132.573852 
L 345.665832 132.351475 
L 346.126989 132.738733 
L 346.588146 132.609102 
L 347.049303 132.661179 
L 347.51046 132.248434 
L 347.971617 132.676072 
L 348.432774 132.574415 
L 348.893931 132.616665 
L 349.355088 132.074958 
L 349.816245 132.590863 
L 350.277402 132.401085 
L 350.738559 132.366064 
L 351.660873 132.649835 
L 352.12203 131.936974 
L 352.583187 132.337399 
L 353.044344 132.525656 
L 353.505501 132.230222 
L 354.427815 132.167707 
L 354.888972 132.493532 
L 355.350129 132.462083 
L 356.272443 132.110215 
L 356.7336 132.661394 
L 357.194757 132.257731 
L 357.655914 132.707855 
L 358.578228 132.689304 
L 359.039385 132.23817 
L 359.500542 132.636134 
L 359.961699 132.398538 
L 360.422856 131.929444 
L 361.34517 132.252696 
L 361.806327 132.351063 
L 362.267485 132.641152 
L 362.728642 131.990749 
L 363.189799 132.540849 
L 363.650956 131.671488 
L 364.57327 132.12717 
L 365.034427 132.034189 
L 365.956741 132.369767 
L 366.417898 131.803189 
L 367.340212 132.095206 
L 367.801369 132.051681 
L 368.262526 132.303661 
L 369.645997 132.161085 
L 370.107154 131.967513 
L 370.568311 132.354161 
L 371.029468 131.975016 
L 371.490625 132.182796 
L 371.951782 132.544544 
L 372.412939 131.972249 
L 373.335253 131.915321 
L 373.79641 132.331115 
L 374.718724 131.816527 
L 375.179881 132.304512 
L 375.641038 132.377821 
L 376.102195 132.626734 
L 376.563352 131.688815 
L 377.024509 131.714281 
L 377.485666 131.614019 
L 377.946823 132.079389 
L 378.40798 132.188325 
L 378.869137 132.439305 
L 379.330294 131.979743 
L 379.791451 132.116415 
L 380.252608 132.016496 
L 380.713765 131.69748 
L 381.63608 131.803803 
L 382.097237 132.211845 
L 383.019551 131.57137 
L 383.941865 131.918404 
L 384.864179 131.618256 
L 385.325336 131.558009 
L 385.786493 132.026717 
L 386.24765 131.699965 
L 386.708807 131.870529 
L 387.169964 131.543193 
L 387.631121 132.062371 
L 388.092278 131.957107 
L 388.553435 132.110093 
L 389.014592 132.470885 
L 389.475749 131.054369 
L 389.936906 131.723853 
L 390.398063 131.715947 
L 390.85922 132.028528 
L 391.781534 131.659274 
L 392.242691 132.247391 
L 392.703848 131.672925 
L 393.165005 131.597974 
L 393.626162 131.732283 
L 394.087319 131.699916 
L 395.009633 131.758162 
L 395.47079 131.795467 
L 395.931947 131.673372 
L 396.393104 131.809686 
L 397.315418 131.494584 
L 397.776575 131.954713 
L 398.698889 131.584319 
L 399.160046 131.833002 
L 400.082361 131.703295 
L 400.543518 131.677965 
L 401.004675 131.992524 
L 401.465832 131.968231 
L 401.926989 131.450183 
L 402.388146 131.479969 
L 402.849303 131.844268 
L 404.232774 132.008511 
L 405.155088 131.492316 
L 405.616245 131.757611 
L 406.538559 131.993016 
L 406.999716 131.637031 
L 407.460873 131.938927 
L 407.92203 131.774237 
L 408.383187 131.964773 
L 409.305501 131.895405 
L 409.766658 131.948727 
L 410.227815 131.515204 
L 411.150129 132.207389 
L 411.611286 131.735948 
L 412.072443 132.070266 
L 412.5336 131.860781 
L 412.994757 132.190618 
L 415.761699 131.559104 
L 416.222856 131.671975 
L 416.684013 131.950997 
L 417.14517 131.896108 
L 417.606327 131.64032 
L 418.067485 131.933831 
L 418.989799 131.75569 
L 420.37327 132.094871 
L 420.834427 131.759928 
L 421.295584 132.166826 
L 421.756741 131.618161 
L 422.217898 131.561967 
L 422.679055 131.859707 
L 423.601369 132.088196 
L 424.062526 132.030596 
L 424.523683 131.648646 
L 424.98484 131.550221 
L 425.445997 131.971596 
L 425.907154 131.857384 
L 426.368311 131.878065 
L 427.290625 131.605734 
L 427.751782 131.69852 
L 428.212939 131.660687 
L 428.674096 131.775266 
L 429.135253 131.438046 
L 429.59641 131.552678 
L 430.057567 131.396635 
L 430.979881 131.83833 
L 431.441038 131.473621 
L 431.902195 131.635664 
L 432.363352 131.678527 
L 432.824509 131.920461 
L 433.285666 131.773751 
L 433.746823 132.306822 
L 434.20798 131.304828 
L 434.669137 131.778464 
L 435.130294 131.538824 
L 435.591451 131.763851 
L 436.052608 131.714413 
L 436.513765 131.429222 
L 436.974923 131.819786 
L 437.43608 131.845981 
L 437.897237 131.56035 
L 438.819551 132.002589 
L 439.280708 131.722383 
L 440.664179 131.521583 
L 441.125336 131.46646 
L 442.04765 131.50372 
L 442.508807 131.938737 
L 442.969964 131.92355 
L 443.431121 132.035225 
L 444.353435 131.24189 
L 444.814592 131.710644 
L 445.275749 131.549152 
L 445.736906 131.866717 
L 446.198063 131.670899 
L 446.65922 132.145703 
L 447.120377 131.633061 
L 447.581534 132.025985 
L 448.042691 131.635501 
L 448.503848 131.846807 
L 448.965005 131.586124 
L 449.426162 131.59473 
L 449.887319 131.844681 
L 450.348476 131.914229 
L 450.809633 131.781952 
L 451.27079 131.862954 
L 451.731947 131.612892 
L 452.193104 132.049388 
L 453.115418 131.710847 
L 454.037732 131.814407 
L 455.882361 131.633862 
L 456.343518 131.919696 
L 456.804675 131.889533 
L 457.265832 131.308385 
L 457.726989 131.816644 
L 458.188146 131.87194 
L 458.649303 132.250742 
L 459.11046 131.864412 
L 459.571617 132.072855 
L 460.955088 131.621402 
L 461.416245 132.11461 
L 462.338559 131.885377 
L 462.799716 131.685562 
L 463.72203 132.014241 
L 464.183187 131.842992 
L 464.644344 131.883854 
L 465.105501 131.669728 
L 466.027815 132.134826 
L 466.488972 132.196674 
L 466.950129 131.534695 
L 467.411286 132.15809 
L 468.3336 131.824913 
L 468.794757 131.623415 
L 469.255914 131.993667 
L 469.717071 131.661674 
L 470.639385 131.780232 
L 471.100542 132.19422 
L 471.561699 131.92404 
L 472.022856 132.082007 
L 472.94517 131.905608 
L 473.406327 131.992586 
L 473.867485 131.585773 
L 474.328642 131.977195 
L 474.789799 131.712126 
L 475.712113 131.844544 
L 476.17327 131.698864 
L 476.634427 131.845577 
L 477.095584 131.667254 
L 477.556741 132.02546 
L 478.940212 131.764295 
L 479.862526 132.132961 
L 480.323683 132.054161 
L 480.78484 132.244216 
L 481.245997 132.261325 
L 481.707154 131.83644 
L 482.168311 132.054553 
L 482.629468 132.070764 
L 483.090625 131.745654 
L 483.551782 131.886346 
L 484.935253 131.744843 
L 485.39641 132.091431 
L 486.318724 131.787761 
L 486.779881 131.802511 
L 487.241038 131.600847 
L 488.624509 131.84851 
L 489.085666 131.834268 
L 489.546823 131.674467 
L 490.00798 132.130691 
L 490.930294 131.613253 
L 491.391451 132.004221 
L 491.852608 131.64069 
L 492.313765 131.919935 
L 492.774923 131.977815 
L 493.23608 131.861181 
L 493.697237 131.879449 
L 494.158394 132.129206 
L 494.619551 132.586272 
L 495.080708 132.397014 
L 495.541865 132.374833 
L 496.464179 131.922759 
L 497.84765 132.166175 
L 498.308807 131.987028 
L 498.769964 132.20129 
L 499.231121 131.900301 
L 499.692278 132.454928 
L 500.153435 131.965419 
L 502.45922 131.995658 
L 502.920377 131.694976 
L 503.381534 131.820483 
L 503.842691 132.268407 
L 504.303848 131.81003 
L 505.687319 132.331839 
L 506.148476 132.089079 
L 506.609633 132.156123 
L 507.531947 131.914557 
L 507.993104 131.779056 
L 508.454261 132.429212 
L 508.915418 132.035896 
L 509.376575 132.156378 
L 509.837732 131.920942 
L 510.298889 132.067177 
L 511.221204 131.7994 
L 511.682361 132.076494 
L 512.143518 131.892182 
L 512.604675 132.137919 
L 513.065832 131.956273 
L 514.449303 132.317842 
L 516.293931 132.052113 
L 516.755088 132.360091 
L 517.216245 132.15185 
L 517.677402 132.561835 
L 518.138559 132.520409 
L 518.599716 132.730541 
L 519.060873 132.36537 
L 520.905501 132.09182 
L 521.827815 132.482762 
L 522.288972 132.309271 
L 522.750129 131.982322 
L 523.211286 132.079422 
L 523.672443 131.983711 
L 524.1336 132.030987 
L 524.594757 132.357754 
L 525.055914 132.456726 
L 525.517071 132.059792 
L 525.978228 132.039161 
L 526.439385 132.164013 
L 526.900542 131.927215 
L 527.822856 132.157801 
L 528.284013 132.131282 
L 528.74517 132.28258 
L 529.206327 132.155762 
L 529.667485 132.3389 
L 530.589799 131.681194 
L 531.050956 132.035336 
L 532.434427 131.958351 
L 532.895584 131.752352 
L 533.356741 132.173254 
L 533.817898 132.027158 
L 534.279055 132.439215 
L 535.201369 132.032869 
L 535.662526 131.622207 
L 537.045997 132.280623 
L 538.890625 131.676886 
L 539.351782 132.106748 
L 540.735253 131.894944 
L 542.579881 131.958977 
L 543.041038 131.787778 
L 543.502195 132.011997 
L 543.963352 131.811797 
L 544.424509 131.811067 
L 544.885666 132.095896 
L 545.346823 131.912196 
L 545.80798 132.21161 
L 546.269137 131.908913 
L 546.730294 131.974276 
L 547.191451 131.662828 
L 547.652608 131.908525 
L 548.113765 131.913864 
L 548.574923 132.275485 
L 549.03608 131.415337 
L 549.497237 131.800467 
L 550.419551 131.534548 
L 551.341865 131.915864 
L 551.803022 131.623809 
L 552.264179 131.542614 
L 552.725336 132.145538 
L 553.186493 131.915697 
L 553.64765 131.830227 
L 554.108807 131.610366 
L 554.569964 131.577343 
L 555.031121 131.953042 
L 555.492278 131.941517 
L 555.953435 132.242704 
L 556.414592 131.788079 
L 556.875749 131.994276 
L 557.798063 131.956424 
L 558.25922 131.602818 
L 558.720377 131.628402 
L 559.181534 132.003848 
L 559.642691 131.951748 
L 560.103848 132.337541 
L 560.565005 131.763898 
L 562.409633 131.841793 
L 562.87079 132.12563 
L 563.793104 132.106456 
L 564.715418 131.921969 
L 565.176575 132.068573 
L 565.637732 131.907576 
L 566.560046 132.076438 
L 567.021204 131.905297 
L 567.482361 132.151423 
L 567.943518 132.214246 
L 568.404675 132.081507 
L 569.326989 132.124251 
L 569.788146 132.522862 
L 570.249303 132.314021 
L 571.171617 132.43381 
L 571.632774 131.838743 
L 572.093931 132.22191 
L 572.555088 132.196385 
L 573.016245 132.291652 
L 573.477402 131.910402 
L 574.399716 131.851582 
L 574.860873 132.088144 
L 576.244344 131.763961 
L 576.705501 132.008608 
L 577.166658 131.867423 
L 577.627815 131.968499 
L 578.088972 131.783698 
L 578.550129 132.018266 
L 579.011286 131.839266 
L 579.472443 132.038851 
L 580.394757 132.204907 
L 580.855914 131.847972 
L 581.317071 131.72808 
L 581.778228 131.877868 
L 582.239385 131.687886 
L 582.700542 132.052456 
L 583.161699 131.944734 
L 583.622856 131.951519 
L 584.084013 132.070552 
L 584.54517 131.751878 
L 585.006327 131.796799 
L 585.467485 131.968814 
L 586.389799 131.916459 
L 586.850956 131.415957 
L 587.312113 131.630413 
L 587.77327 131.497864 
L 588.695584 131.955041 
L 589.156741 131.836435 
L 589.617898 131.895353 
L 590.079055 131.788212 
L 590.540212 132.161407 
L 591.001369 131.866419 
L 591.923683 131.699732 
L 592.38484 132.213766 
L 592.845997 131.728133 
L 593.307154 132.387442 
L 593.768311 131.771368 
L 594.690625 131.959422 
L 595.151782 131.776262 
L 595.612939 131.725607 
L 596.074096 131.864995 
L 597.457567 131.836825 
L 597.918724 131.542041 
L 598.379881 131.857837 
L 598.841038 131.815657 
L 599.302195 131.329548 
L 599.763352 131.696928 
L 600.224509 131.533836 
L 601.146823 132.006003 
L 601.60798 131.404012 
L 602.069137 131.777815 
L 602.530294 131.767231 
L 602.991451 131.398486 
L 603.452608 131.837332 
L 603.913765 131.576614 
L 604.374923 131.784697 
L 604.83608 131.822586 
L 605.297237 131.563991 
L 605.758394 131.753948 
L 606.219551 131.643732 
L 606.680708 131.711258 
L 607.141865 131.894859 
L 608.525336 131.652048 
L 608.986493 131.321052 
L 609.44765 131.612636 
L 610.369964 131.768802 
L 610.831121 131.553112 
L 611.753435 131.735078 
L 612.214592 131.81815 
L 612.675749 131.734775 
L 613.136906 131.869323 
L 613.598063 131.656739 
L 614.05922 131.70683 
L 614.520377 132.017098 
L 614.981534 131.590594 
L 615.442691 131.729867 
L 616.365005 132.211052 
L 616.826162 131.722657 
L 617.287319 131.531011 
L 617.748476 131.598798 
L 618.67079 131.449122 
L 619.131947 131.692884 
L 620.515418 131.56468 
L 620.976575 131.804936 
L 622.360046 131.698899 
L 622.821204 131.576302 
L 623.282361 131.164704 
L 623.743518 131.653755 
L 624.204675 131.569612 
L 625.126989 131.224464 
L 625.126989 131.224464 
" clip-path="url(#pa880393b9b)" style="fill: none; stroke: #ff7f0e; stroke-width: 1.5; stroke-linecap: square"/>
   </g>
   <g id="patch_3">
    <path d="M 92.490625 308.63625 
L 92.490625 31.43625 
" style="fill: none; stroke: #000000; stroke-width: 0.8; stroke-linejoin: miter; stroke-linecap: square"/>
   </g>
   <g id="patch_4">
    <path d="M 650.490625 308.63625 
L 650.490625 31.43625 
" style="fill: none; stroke: #000000; stroke-width: 0.8; stroke-linejoin: miter; stroke-linecap: square"/>
   </g>
   <g id="patch_5">
    <path d="M 92.490625 308.63625 
L 650.490625 308.63625 
" style="fill: none; stroke: #000000; stroke-width: 0.8; stroke-linejoin: miter; stroke-linecap: square"/>
   </g>
   <g id="patch_6">
    <path d="M 92.490625 31.43625 
L 650.490625 31.43625 
" style="fill: none; stroke: #000000; stroke-width: 0.8; stroke-linejoin: miter; stroke-linecap: square"/>
   </g>
   <g id="text_14">
    <!-- Generator and Discriminator Loss During Training -->
    <g transform="translate(74.258125 25.43625) scale(0.24 -0.24)">
     <defs>
      <path id="DejaVuSans-47" d="M 3809 666 
L 3809 1919 
L 2778 1919 
L 2778 2438 
L 4434 2438 
L 4434 434 
Q 4069 175 3628 42 
Q 3188 -91 2688 -91 
Q 1594 -91 976 548 
Q 359 1188 359 2328 
Q 359 3472 976 4111 
Q 1594 4750 2688 4750 
Q 3144 4750 3555 4637 
Q 3966 4525 4313 4306 
L 4313 3634 
Q 3963 3931 3569 4081 
Q 3175 4231 2741 4231 
Q 1884 4231 1454 3753 
Q 1025 3275 1025 2328 
Q 1025 1384 1454 906 
Q 1884 428 2741 428 
Q 3075 428 3337 486 
Q 3600 544 3809 666 
z
" transform="scale(0.015625)"/>
      <path id="DejaVuSans-20" transform="scale(0.015625)"/>
      <path id="DejaVuSans-64" d="M 2906 2969 
L 2906 4863 
L 3481 4863 
L 3481 0 
L 2906 0 
L 2906 525 
Q 2725 213 2448 61 
Q 2172 -91 1784 -91 
Q 1150 -91 751 415 
Q 353 922 353 1747 
Q 353 2572 751 3078 
Q 1150 3584 1784 3584 
Q 2172 3584 2448 3432 
Q 2725 3281 2906 2969 
z
M 947 1747 
Q 947 1113 1208 752 
Q 1469 391 1925 391 
Q 2381 391 2643 752 
Q 2906 1113 2906 1747 
Q 2906 2381 2643 2742 
Q 2381 3103 1925 3103 
Q 1469 3103 1208 2742 
Q 947 2381 947 1747 
z
" transform="scale(0.015625)"/>
      <path id="DejaVuSans-44" d="M 1259 4147 
L 1259 519 
L 2022 519 
Q 2988 519 3436 956 
Q 3884 1394 3884 2338 
Q 3884 3275 3436 3711 
Q 2988 4147 2022 4147 
L 1259 4147 
z
M 628 4666 
L 1925 4666 
Q 3281 4666 3915 4102 
Q 4550 3538 4550 2338 
Q 4550 1131 3912 565 
Q 3275 0 1925 0 
L 628 0 
L 628 4666 
z
" transform="scale(0.015625)"/>
      <path id="DejaVuSans-63" d="M 3122 3366 
L 3122 2828 
Q 2878 2963 2633 3030 
Q 2388 3097 2138 3097 
Q 1578 3097 1268 2742 
Q 959 2388 959 1747 
Q 959 1106 1268 751 
Q 1578 397 2138 397 
Q 2388 397 2633 464 
Q 2878 531 3122 666 
L 3122 134 
Q 2881 22 2623 -34 
Q 2366 -91 2075 -91 
Q 1284 -91 818 406 
Q 353 903 353 1747 
Q 353 2603 823 3093 
Q 1294 3584 2113 3584 
Q 2378 3584 2631 3529 
Q 2884 3475 3122 3366 
z
" transform="scale(0.015625)"/>
      <path id="DejaVuSans-6d" d="M 3328 2828 
Q 3544 3216 3844 3400 
Q 4144 3584 4550 3584 
Q 5097 3584 5394 3201 
Q 5691 2819 5691 2113 
L 5691 0 
L 5113 0 
L 5113 2094 
Q 5113 2597 4934 2840 
Q 4756 3084 4391 3084 
Q 3944 3084 3684 2787 
Q 3425 2491 3425 1978 
L 3425 0 
L 2847 0 
L 2847 2094 
Q 2847 2600 2669 2842 
Q 2491 3084 2119 3084 
Q 1678 3084 1418 2786 
Q 1159 2488 1159 1978 
L 1159 0 
L 581 0 
L 581 3500 
L 1159 3500 
L 1159 2956 
Q 1356 3278 1631 3431 
Q 1906 3584 2284 3584 
Q 2666 3584 2933 3390 
Q 3200 3197 3328 2828 
z
" transform="scale(0.015625)"/>
      <path id="DejaVuSans-75" d="M 544 1381 
L 544 3500 
L 1119 3500 
L 1119 1403 
Q 1119 906 1312 657 
Q 1506 409 1894 409 
Q 2359 409 2629 706 
Q 2900 1003 2900 1516 
L 2900 3500 
L 3475 3500 
L 3475 0 
L 2900 0 
L 2900 538 
Q 2691 219 2414 64 
Q 2138 -91 1772 -91 
Q 1169 -91 856 284 
Q 544 659 544 1381 
z
M 1991 3584 
L 1991 3584 
z
" transform="scale(0.015625)"/>
      <path id="DejaVuSans-67" d="M 2906 1791 
Q 2906 2416 2648 2759 
Q 2391 3103 1925 3103 
Q 1463 3103 1205 2759 
Q 947 2416 947 1791 
Q 947 1169 1205 825 
Q 1463 481 1925 481 
Q 2391 481 2648 825 
Q 2906 1169 2906 1791 
z
M 3481 434 
Q 3481 -459 3084 -895 
Q 2688 -1331 1869 -1331 
Q 1566 -1331 1297 -1286 
Q 1028 -1241 775 -1147 
L 775 -588 
Q 1028 -725 1275 -790 
Q 1522 -856 1778 -856 
Q 2344 -856 2625 -561 
Q 2906 -266 2906 331 
L 2906 616 
Q 2728 306 2450 153 
Q 2172 0 1784 0 
Q 1141 0 747 490 
Q 353 981 353 1791 
Q 353 2603 747 3093 
Q 1141 3584 1784 3584 
Q 2172 3584 2450 3431 
Q 2728 3278 2906 2969 
L 2906 3500 
L 3481 3500 
L 3481 434 
z
" transform="scale(0.015625)"/>
      <path id="DejaVuSans-54" d="M -19 4666 
L 3928 4666 
L 3928 4134 
L 2272 4134 
L 2272 0 
L 1638 0 
L 1638 4134 
L -19 4134 
L -19 4666 
z
" transform="scale(0.015625)"/>
     </defs>
     <use xlink:href="#DejaVuSans-47"/>
     <use xlink:href="#DejaVuSans-65" x="77.490234"/>
     <use xlink:href="#DejaVuSans-6e" x="139.013672"/>
     <use xlink:href="#DejaVuSans-65" x="202.392578"/>
     <use xlink:href="#DejaVuSans-72" x="263.916016"/>
     <use xlink:href="#DejaVuSans-61" x="305.029297"/>
     <use xlink:href="#DejaVuSans-74" x="366.308594"/>
     <use xlink:href="#DejaVuSans-6f" x="405.517578"/>
     <use xlink:href="#DejaVuSans-72" x="466.699219"/>
     <use xlink:href="#DejaVuSans-20" x="507.8125"/>
     <use xlink:href="#DejaVuSans-61" x="539.599609"/>
     <use xlink:href="#DejaVuSans-6e" x="600.878906"/>
     <use xlink:href="#DejaVuSans-64" x="664.257812"/>
     <use xlink:href="#DejaVuSans-20" x="727.734375"/>
     <use xlink:href="#DejaVuSans-44" x="759.521484"/>
     <use xlink:href="#DejaVuSans-69" x="836.523438"/>
     <use xlink:href="#DejaVuSans-73" x="864.306641"/>
     <use xlink:href="#DejaVuSans-63" x="916.40625"/>
     <use xlink:href="#DejaVuSans-72" x="971.386719"/>
     <use xlink:href="#DejaVuSans-69" x="1012.5"/>
     <use xlink:href="#DejaVuSans-6d" x="1040.283203"/>
     <use xlink:href="#DejaVuSans-69" x="1137.695312"/>
     <use xlink:href="#DejaVuSans-6e" x="1165.478516"/>
     <use xlink:href="#DejaVuSans-61" x="1228.857422"/>
     <use xlink:href="#DejaVuSans-74" x="1290.136719"/>
     <use xlink:href="#DejaVuSans-6f" x="1329.345703"/>
     <use xlink:href="#DejaVuSans-72" x="1390.527344"/>
     <use xlink:href="#DejaVuSans-20" x="1431.640625"/>
     <use xlink:href="#DejaVuSans-4c" x="1463.427734"/>
     <use xlink:href="#DejaVuSans-6f" x="1517.390625"/>
     <use xlink:href="#DejaVuSans-73" x="1578.572266"/>
     <use xlink:href="#DejaVuSans-73" x="1630.671875"/>
     <use xlink:href="#DejaVuSans-20" x="1682.771484"/>
     <use xlink:href="#DejaVuSans-44" x="1714.558594"/>
     <use xlink:href="#DejaVuSans-75" x="1791.560547"/>
     <use xlink:href="#DejaVuSans-72" x="1854.939453"/>
     <use xlink:href="#DejaVuSans-69" x="1896.052734"/>
     <use xlink:href="#DejaVuSans-6e" x="1923.835938"/>
     <use xlink:href="#DejaVuSans-67" x="1987.214844"/>
     <use xlink:href="#DejaVuSans-20" x="2050.691406"/>
     <use xlink:href="#DejaVuSans-54" x="2082.478516"/>
     <use xlink:href="#DejaVuSans-72" x="2128.8125"/>
     <use xlink:href="#DejaVuSans-61" x="2169.925781"/>
     <use xlink:href="#DejaVuSans-69" x="2231.205078"/>
     <use xlink:href="#DejaVuSans-6e" x="2258.988281"/>
     <use xlink:href="#DejaVuSans-69" x="2322.367188"/>
     <use xlink:href="#DejaVuSans-6e" x="2350.150391"/>
     <use xlink:href="#DejaVuSans-67" x="2413.529297"/>
    </g>
   </g>
   <g id="legend_1">
    <g id="patch_7">
     <path d="M 556.99375 106.14875 
L 636.490625 106.14875 
Q 640.490625 106.14875 640.490625 102.14875 
L 640.490625 45.43625 
Q 640.490625 41.43625 636.490625 41.43625 
L 556.99375 41.43625 
Q 552.99375 41.43625 552.99375 45.43625 
L 552.99375 102.14875 
Q 552.99375 106.14875 556.99375 106.14875 
z
" style="fill: #ffffff; opacity: 0.8; stroke: #cccccc; stroke-linejoin: miter"/>
    </g>
    <g id="line2d_14">
     <path d="M 560.99375 57.633125 
L 580.99375 57.633125 
L 600.99375 57.633125 
" style="fill: none; stroke: #1f77b4; stroke-width: 1.5; stroke-linecap: square"/>
    </g>
    <g id="text_15">
     <!-- G -->
     <g transform="translate(616.99375 64.633125) scale(0.2 -0.2)">
      <use xlink:href="#DejaVuSans-47"/>
     </g>
    </g>
    <g id="line2d_15">
     <path d="M 560.99375 86.989375 
L 580.99375 86.989375 
L 600.99375 86.989375 
" style="fill: none; stroke: #ff7f0e; stroke-width: 1.5; stroke-linecap: square"/>
    </g>
    <g id="text_16">
     <!-- D -->
     <g transform="translate(616.99375 93.989375) scale(0.2 -0.2)">
      <use xlink:href="#DejaVuSans-44"/>
     </g>
    </g>
   </g>
  </g>
 </g>
 <defs>
  <clipPath id="pa880393b9b">
   <rect x="92.490625" y="31.43625" width="558" height="277.2"/>
  </clipPath>
 </defs>
</svg>
