<?xml version="1.0" encoding="utf-8" standalone="no"?>
<!DOCTYPE svg PUBLIC "-//W3C//DTD SVG 1.1//EN"
  "http://www.w3.org/Graphics/SVG/1.1/DTD/svg11.dtd">
<svg xmlns:xlink="http://www.w3.org/1999/xlink" width="675.923125pt" height="365.54875pt" viewBox="0 0 675.923125 365.54875" xmlns="http://www.w3.org/2000/svg" version="1.1">
 <metadata>
  <rdf:RDF xmlns:dc="http://purl.org/dc/elements/1.1/" xmlns:cc="http://creativecommons.org/ns#" xmlns:rdf="http://www.w3.org/1999/02/22-rdf-syntax-ns#">
   <cc:Work>
    <dc:type rdf:resource="http://purl.org/dc/dcmitype/StillImage"/>
    <dc:date>2024-02-02T00:43:10.295100</dc:date>
    <dc:format>image/svg+xml</dc:format>
    <dc:creator>
     <cc:Agent>
      <dc:title>Matplotlib v3.7.2, https://matplotlib.org/</dc:title>
     </cc:Agent>
    </dc:creator>
   </cc:Work>
  </rdf:RDF>
 </metadata>
 <defs>
  <style type="text/css">*{stroke-linejoin: round; stroke-linecap: butt}</style>
 </defs>
 <g id="figure_1">
  <g id="patch_1">
   <path d="M 0 365.54875 
L 675.923125 365.54875 
L 675.923125 -0 
L 0 -0 
z
" style="fill: #ffffff"/>
  </g>
  <g id="axes_1">
   <g id="patch_2">
    <path d="M 92.490625 308.63625 
L 650.490625 308.63625 
L 650.490625 31.43625 
L 92.490625 31.43625 
z
" style="fill: #ffffff"/>
   </g>
   <g id="matplotlib.axis_1">
    <g id="xtick_1">
     <g id="line2d_1">
      <defs>
       <path id="mbc59f242ad" d="M 0 0 
L 0 3.5 
" style="stroke: #000000; stroke-width: 0.8"/>
      </defs>
      <g>
       <use xlink:href="#mbc59f242ad" x="117.854261" y="308.63625" style="stroke: #000000; stroke-width: 0.8"/>
      </g>
     </g>
     <g id="text_1">
      <!-- 0 -->
      <g transform="translate(111.491761 330.833125) scale(0.2 -0.2)">
       <defs>
        <path id="DejaVuSans-30" d="M 2034 4250 
Q 1547 4250 1301 3770 
Q 1056 3291 1056 2328 
Q 1056 1369 1301 889 
Q 1547 409 2034 409 
Q 2525 409 2770 889 
Q 3016 1369 3016 2328 
Q 3016 3291 2770 3770 
Q 2525 4250 2034 4250 
z
M 2034 4750 
Q 2819 4750 3233 4129 
Q 3647 3509 3647 2328 
Q 3647 1150 3233 529 
Q 2819 -91 2034 -91 
Q 1250 -91 836 529 
Q 422 1150 422 2328 
Q 422 3509 836 4129 
Q 1250 4750 2034 4750 
z
" transform="scale(0.015625)"/>
       </defs>
       <use xlink:href="#DejaVuSans-30"/>
      </g>
     </g>
    </g>
    <g id="xtick_2">
     <g id="line2d_2">
      <g>
       <use xlink:href="#mbc59f242ad" x="210.085666" y="308.63625" style="stroke: #000000; stroke-width: 0.8"/>
      </g>
     </g>
     <g id="text_2">
      <!-- 100 -->
      <g transform="translate(190.998166 330.833125) scale(0.2 -0.2)">
       <defs>
        <path id="DejaVuSans-31" d="M 794 531 
L 1825 531 
L 1825 4091 
L 703 3866 
L 703 4441 
L 1819 4666 
L 2450 4666 
L 2450 531 
L 3481 531 
L 3481 0 
L 794 0 
L 794 531 
z
" transform="scale(0.015625)"/>
       </defs>
       <use xlink:href="#DejaVuSans-31"/>
       <use xlink:href="#DejaVuSans-30" x="63.623047"/>
       <use xlink:href="#DejaVuSans-30" x="127.246094"/>
      </g>
     </g>
    </g>
    <g id="xtick_3">
     <g id="line2d_3">
      <g>
       <use xlink:href="#mbc59f242ad" x="302.317071" y="308.63625" style="stroke: #000000; stroke-width: 0.8"/>
      </g>
     </g>
     <g id="text_3">
      <!-- 200 -->
      <g transform="translate(283.229571 330.833125) scale(0.2 -0.2)">
       <defs>
        <path id="DejaVuSans-32" d="M 1228 531 
L 3431 531 
L 3431 0 
L 469 0 
L 469 531 
Q 828 903 1448 1529 
Q 2069 2156 2228 2338 
Q 2531 2678 2651 2914 
Q 2772 3150 2772 3378 
Q 2772 3750 2511 3984 
Q 2250 4219 1831 4219 
Q 1534 4219 1204 4116 
Q 875 4013 500 3803 
L 500 4441 
Q 881 4594 1212 4672 
Q 1544 4750 1819 4750 
Q 2544 4750 2975 4387 
Q 3406 4025 3406 3419 
Q 3406 3131 3298 2873 
Q 3191 2616 2906 2266 
Q 2828 2175 2409 1742 
Q 1991 1309 1228 531 
z
" transform="scale(0.015625)"/>
       </defs>
       <use xlink:href="#DejaVuSans-32"/>
       <use xlink:href="#DejaVuSans-30" x="63.623047"/>
       <use xlink:href="#DejaVuSans-30" x="127.246094"/>
      </g>
     </g>
    </g>
    <g id="xtick_4">
     <g id="line2d_4">
      <g>
       <use xlink:href="#mbc59f242ad" x="394.548476" y="308.63625" style="stroke: #000000; stroke-width: 0.8"/>
      </g>
     </g>
     <g id="text_4">
      <!-- 300 -->
      <g transform="translate(375.460976 330.833125) scale(0.2 -0.2)">
       <defs>
        <path id="DejaVuSans-33" d="M 2597 2516 
Q 3050 2419 3304 2112 
Q 3559 1806 3559 1356 
Q 3559 666 3084 287 
Q 2609 -91 1734 -91 
Q 1441 -91 1130 -33 
Q 819 25 488 141 
L 488 750 
Q 750 597 1062 519 
Q 1375 441 1716 441 
Q 2309 441 2620 675 
Q 2931 909 2931 1356 
Q 2931 1769 2642 2001 
Q 2353 2234 1838 2234 
L 1294 2234 
L 1294 2753 
L 1863 2753 
Q 2328 2753 2575 2939 
Q 2822 3125 2822 3475 
Q 2822 3834 2567 4026 
Q 2313 4219 1838 4219 
Q 1578 4219 1281 4162 
Q 984 4106 628 3988 
L 628 4550 
Q 988 4650 1302 4700 
Q 1616 4750 1894 4750 
Q 2613 4750 3031 4423 
Q 3450 4097 3450 3541 
Q 3450 3153 3228 2886 
Q 3006 2619 2597 2516 
z
" transform="scale(0.015625)"/>
       </defs>
       <use xlink:href="#DejaVuSans-33"/>
       <use xlink:href="#DejaVuSans-30" x="63.623047"/>
       <use xlink:href="#DejaVuSans-30" x="127.246094"/>
      </g>
     </g>
    </g>
    <g id="xtick_5">
     <g id="line2d_5">
      <g>
       <use xlink:href="#mbc59f242ad" x="486.779881" y="308.63625" style="stroke: #000000; stroke-width: 0.8"/>
      </g>
     </g>
     <g id="text_5">
      <!-- 400 -->
      <g transform="translate(467.692381 330.833125) scale(0.2 -0.2)">
       <defs>
        <path id="DejaVuSans-34" d="M 2419 4116 
L 825 1625 
L 2419 1625 
L 2419 4116 
z
M 2253 4666 
L 3047 4666 
L 3047 1625 
L 3713 1625 
L 3713 1100 
L 3047 1100 
L 3047 0 
L 2419 0 
L 2419 1100 
L 313 1100 
L 313 1709 
L 2253 4666 
z
" transform="scale(0.015625)"/>
       </defs>
       <use xlink:href="#DejaVuSans-34"/>
       <use xlink:href="#DejaVuSans-30" x="63.623047"/>
       <use xlink:href="#DejaVuSans-30" x="127.246094"/>
      </g>
     </g>
    </g>
    <g id="xtick_6">
     <g id="line2d_6">
      <g>
       <use xlink:href="#mbc59f242ad" x="579.011286" y="308.63625" style="stroke: #000000; stroke-width: 0.8"/>
      </g>
     </g>
     <g id="text_6">
      <!-- 500 -->
      <g transform="translate(559.923786 330.833125) scale(0.2 -0.2)">
       <defs>
        <path id="DejaVuSans-35" d="M 691 4666 
L 3169 4666 
L 3169 4134 
L 1269 4134 
L 1269 2991 
Q 1406 3038 1543 3061 
Q 1681 3084 1819 3084 
Q 2600 3084 3056 2656 
Q 3513 2228 3513 1497 
Q 3513 744 3044 326 
Q 2575 -91 1722 -91 
Q 1428 -91 1123 -41 
Q 819 9 494 109 
L 494 744 
Q 775 591 1075 516 
Q 1375 441 1709 441 
Q 2250 441 2565 725 
Q 2881 1009 2881 1497 
Q 2881 1984 2565 2268 
Q 2250 2553 1709 2553 
Q 1456 2553 1204 2497 
Q 953 2441 691 2322 
L 691 4666 
z
" transform="scale(0.015625)"/>
       </defs>
       <use xlink:href="#DejaVuSans-35"/>
       <use xlink:href="#DejaVuSans-30" x="63.623047"/>
       <use xlink:href="#DejaVuSans-30" x="127.246094"/>
      </g>
     </g>
    </g>
    <g id="text_7">
     <!-- iterations -->
     <g transform="translate(324.035938 354.189375) scale(0.2 -0.2)">
      <defs>
       <path id="DejaVuSans-69" d="M 603 3500 
L 1178 3500 
L 1178 0 
L 603 0 
L 603 3500 
z
M 603 4863 
L 1178 4863 
L 1178 4134 
L 603 4134 
L 603 4863 
z
" transform="scale(0.015625)"/>
       <path id="DejaVuSans-74" d="M 1172 4494 
L 1172 3500 
L 2356 3500 
L 2356 3053 
L 1172 3053 
L 1172 1153 
Q 1172 725 1289 603 
Q 1406 481 1766 481 
L 2356 481 
L 2356 0 
L 1766 0 
Q 1100 0 847 248 
Q 594 497 594 1153 
L 594 3053 
L 172 3053 
L 172 3500 
L 594 3500 
L 594 4494 
L 1172 4494 
z
" transform="scale(0.015625)"/>
       <path id="DejaVuSans-65" d="M 3597 1894 
L 3597 1613 
L 953 1613 
Q 991 1019 1311 708 
Q 1631 397 2203 397 
Q 2534 397 2845 478 
Q 3156 559 3463 722 
L 3463 178 
Q 3153 47 2828 -22 
Q 2503 -91 2169 -91 
Q 1331 -91 842 396 
Q 353 884 353 1716 
Q 353 2575 817 3079 
Q 1281 3584 2069 3584 
Q 2775 3584 3186 3129 
Q 3597 2675 3597 1894 
z
M 3022 2063 
Q 3016 2534 2758 2815 
Q 2500 3097 2075 3097 
Q 1594 3097 1305 2825 
Q 1016 2553 972 2059 
L 3022 2063 
z
" transform="scale(0.015625)"/>
       <path id="DejaVuSans-72" d="M 2631 2963 
Q 2534 3019 2420 3045 
Q 2306 3072 2169 3072 
Q 1681 3072 1420 2755 
Q 1159 2438 1159 1844 
L 1159 0 
L 581 0 
L 581 3500 
L 1159 3500 
L 1159 2956 
Q 1341 3275 1631 3429 
Q 1922 3584 2338 3584 
Q 2397 3584 2469 3576 
Q 2541 3569 2628 3553 
L 2631 2963 
z
" transform="scale(0.015625)"/>
       <path id="DejaVuSans-61" d="M 2194 1759 
Q 1497 1759 1228 1600 
Q 959 1441 959 1056 
Q 959 750 1161 570 
Q 1363 391 1709 391 
Q 2188 391 2477 730 
Q 2766 1069 2766 1631 
L 2766 1759 
L 2194 1759 
z
M 3341 1997 
L 3341 0 
L 2766 0 
L 2766 531 
Q 2569 213 2275 61 
Q 1981 -91 1556 -91 
Q 1019 -91 701 211 
Q 384 513 384 1019 
Q 384 1609 779 1909 
Q 1175 2209 1959 2209 
L 2766 2209 
L 2766 2266 
Q 2766 2663 2505 2880 
Q 2244 3097 1772 3097 
Q 1472 3097 1187 3025 
Q 903 2953 641 2809 
L 641 3341 
Q 956 3463 1253 3523 
Q 1550 3584 1831 3584 
Q 2591 3584 2966 3190 
Q 3341 2797 3341 1997 
z
" transform="scale(0.015625)"/>
       <path id="DejaVuSans-6f" d="M 1959 3097 
Q 1497 3097 1228 2736 
Q 959 2375 959 1747 
Q 959 1119 1226 758 
Q 1494 397 1959 397 
Q 2419 397 2687 759 
Q 2956 1122 2956 1747 
Q 2956 2369 2687 2733 
Q 2419 3097 1959 3097 
z
M 1959 3584 
Q 2709 3584 3137 3096 
Q 3566 2609 3566 1747 
Q 3566 888 3137 398 
Q 2709 -91 1959 -91 
Q 1206 -91 779 398 
Q 353 888 353 1747 
Q 353 2609 779 3096 
Q 1206 3584 1959 3584 
z
" transform="scale(0.015625)"/>
       <path id="DejaVuSans-6e" d="M 3513 2113 
L 3513 0 
L 2938 0 
L 2938 2094 
Q 2938 2591 2744 2837 
Q 2550 3084 2163 3084 
Q 1697 3084 1428 2787 
Q 1159 2491 1159 1978 
L 1159 0 
L 581 0 
L 581 3500 
L 1159 3500 
L 1159 2956 
Q 1366 3272 1645 3428 
Q 1925 3584 2291 3584 
Q 2894 3584 3203 3211 
Q 3513 2838 3513 2113 
z
" transform="scale(0.015625)"/>
       <path id="DejaVuSans-73" d="M 2834 3397 
L 2834 2853 
Q 2591 2978 2328 3040 
Q 2066 3103 1784 3103 
Q 1356 3103 1142 2972 
Q 928 2841 928 2578 
Q 928 2378 1081 2264 
Q 1234 2150 1697 2047 
L 1894 2003 
Q 2506 1872 2764 1633 
Q 3022 1394 3022 966 
Q 3022 478 2636 193 
Q 2250 -91 1575 -91 
Q 1294 -91 989 -36 
Q 684 19 347 128 
L 347 722 
Q 666 556 975 473 
Q 1284 391 1588 391 
Q 1994 391 2212 530 
Q 2431 669 2431 922 
Q 2431 1156 2273 1281 
Q 2116 1406 1581 1522 
L 1381 1569 
Q 847 1681 609 1914 
Q 372 2147 372 2553 
Q 372 3047 722 3315 
Q 1072 3584 1716 3584 
Q 2034 3584 2315 3537 
Q 2597 3491 2834 3397 
z
" transform="scale(0.015625)"/>
      </defs>
      <use xlink:href="#DejaVuSans-69"/>
      <use xlink:href="#DejaVuSans-74" x="27.783203"/>
      <use xlink:href="#DejaVuSans-65" x="66.992188"/>
      <use xlink:href="#DejaVuSans-72" x="128.515625"/>
      <use xlink:href="#DejaVuSans-61" x="169.628906"/>
      <use xlink:href="#DejaVuSans-74" x="230.908203"/>
      <use xlink:href="#DejaVuSans-69" x="270.117188"/>
      <use xlink:href="#DejaVuSans-6f" x="297.900391"/>
      <use xlink:href="#DejaVuSans-6e" x="359.082031"/>
      <use xlink:href="#DejaVuSans-73" x="422.460938"/>
     </g>
    </g>
   </g>
   <g id="matplotlib.axis_2">
    <g id="ytick_1">
     <g id="line2d_7">
      <defs>
       <path id="m947ae0263f" d="M 0 0 
L -3.5 0 
" style="stroke: #000000; stroke-width: 0.8"/>
      </defs>
      <g>
       <use xlink:href="#m947ae0263f" x="92.490625" y="302.634137" style="stroke: #000000; stroke-width: 0.8"/>
      </g>
     </g>
     <g id="text_8">
      <!-- −400 -->
      <g transform="translate(30.55625 310.232575) scale(0.2 -0.2)">
       <defs>
        <path id="DejaVuSans-2212" d="M 678 2272 
L 4684 2272 
L 4684 1741 
L 678 1741 
L 678 2272 
z
" transform="scale(0.015625)"/>
       </defs>
       <use xlink:href="#DejaVuSans-2212"/>
       <use xlink:href="#DejaVuSans-34" x="83.789062"/>
       <use xlink:href="#DejaVuSans-30" x="147.412109"/>
       <use xlink:href="#DejaVuSans-30" x="211.035156"/>
      </g>
     </g>
    </g>
    <g id="ytick_2">
     <g id="line2d_8">
      <g>
       <use xlink:href="#m947ae0263f" x="92.490625" y="217.204173" style="stroke: #000000; stroke-width: 0.8"/>
      </g>
     </g>
     <g id="text_9">
      <!-- −200 -->
      <g transform="translate(30.55625 224.802611) scale(0.2 -0.2)">
       <use xlink:href="#DejaVuSans-2212"/>
       <use xlink:href="#DejaVuSans-32" x="83.789062"/>
       <use xlink:href="#DejaVuSans-30" x="147.412109"/>
       <use xlink:href="#DejaVuSans-30" x="211.035156"/>
      </g>
     </g>
    </g>
    <g id="ytick_3">
     <g id="line2d_9">
      <g>
       <use xlink:href="#m947ae0263f" x="92.490625" y="131.77421" style="stroke: #000000; stroke-width: 0.8"/>
      </g>
     </g>
     <g id="text_10">
      <!-- 0 -->
      <g transform="translate(72.765625 139.372647) scale(0.2 -0.2)">
       <use xlink:href="#DejaVuSans-30"/>
      </g>
     </g>
    </g>
    <g id="ytick_4">
     <g id="line2d_10">
      <g>
       <use xlink:href="#m947ae0263f" x="92.490625" y="46.344246" style="stroke: #000000; stroke-width: 0.8"/>
      </g>
     </g>
     <g id="text_11">
      <!-- 200 -->
      <g transform="translate(47.315625 53.942683) scale(0.2 -0.2)">
       <use xlink:href="#DejaVuSans-32"/>
       <use xlink:href="#DejaVuSans-30" x="63.623047"/>
       <use xlink:href="#DejaVuSans-30" x="127.246094"/>
      </g>
     </g>
    </g>
    <g id="text_12">
     <!-- Loss -->
     <g transform="translate(22.396875 191.970625) rotate(-90) scale(0.2 -0.2)">
      <defs>
       <path id="DejaVuSans-4c" d="M 628 4666 
L 1259 4666 
L 1259 531 
L 3531 531 
L 3531 0 
L 628 0 
L 628 4666 
z
" transform="scale(0.015625)"/>
      </defs>
      <use xlink:href="#DejaVuSans-4c"/>
      <use xlink:href="#DejaVuSans-6f" x="53.962891"/>
      <use xlink:href="#DejaVuSans-73" x="115.144531"/>
      <use xlink:href="#DejaVuSans-73" x="167.244141"/>
     </g>
    </g>
   </g>
   <g id="line2d_11">
    <path d="M 117.854261 106.2005 
L 118.776575 95.293269 
L 119.698889 103.012934 
L 120.621204 83.802116 
L 121.543518 71.07048 
L 122.465832 44.03625 
L 123.388146 48.202048 
L 124.31046 79.082405 
L 125.232774 79.801139 
L 126.155088 95.039151 
L 127.077402 99.383912 
L 127.999716 110.005204 
L 128.92203 115.933238 
L 129.844344 123.921766 
L 130.766658 136.222671 
L 131.688972 131.011891 
L 132.611286 139.741022 
L 133.5336 146.066312 
L 134.455914 129.711857 
L 135.378228 135.776002 
L 136.300542 128.840387 
L 137.222856 145.744362 
L 138.14517 150.965648 
L 139.067485 141.047725 
L 139.989799 144.709483 
L 140.912113 146.730342 
L 141.834427 143.90278 
L 142.756741 148.88913 
L 143.679055 149.976643 
L 144.601369 151.914943 
L 145.523683 150.461138 
L 146.445997 156.209315 
L 147.368311 153.818163 
L 148.290625 152.769792 
L 149.212939 154.957248 
L 150.135253 151.727097 
L 151.057567 148.919835 
L 151.979881 152.450257 
L 152.902195 149.30327 
L 153.824509 147.780732 
L 154.746823 148.375357 
L 155.669137 146.50394 
L 156.591451 148.745232 
L 157.513765 148.044137 
L 158.43608 150.657455 
L 159.358394 150.931957 
L 160.280708 148.202109 
L 161.203022 149.697081 
L 162.125336 148.719548 
L 163.04765 151.590814 
L 163.969964 149.238312 
L 164.892278 148.782451 
L 165.814592 146.91656 
L 166.736906 152.215016 
L 167.65922 147.648837 
L 168.581534 149.753192 
L 169.503848 147.694581 
L 170.426162 144.79521 
L 171.348476 145.921815 
L 172.27079 147.614704 
L 173.193104 147.130159 
L 174.115418 147.865317 
L 175.037732 146.770889 
L 175.960046 147.150497 
L 176.882361 146.202236 
L 177.804675 146.632383 
L 178.726989 147.881774 
L 179.649303 147.072561 
L 180.571617 147.95157 
L 181.493931 147.692356 
L 182.416245 147.157453 
L 183.338559 148.781308 
L 184.260873 148.414371 
L 185.183187 146.590766 
L 186.105501 144.450993 
L 187.950129 143.911113 
L 188.872443 143.957386 
L 189.794757 142.36949 
L 190.717071 145.188605 
L 191.639385 146.418944 
L 192.561699 145.376387 
L 193.484013 143.943596 
L 194.406327 142.843895 
L 195.328642 142.253463 
L 196.250956 142.717522 
L 197.17327 142.44384 
L 198.095584 142.872071 
L 199.017898 142.730961 
L 199.940212 143.888077 
L 200.862526 144.001604 
L 201.78484 142.574551 
L 202.707154 142.306426 
L 203.629468 142.937759 
L 204.551782 142.457902 
L 205.474096 143.531894 
L 206.39641 141.851198 
L 207.318724 144.015207 
L 209.163352 145.176547 
L 210.085666 147.614982 
L 211.00798 147.263937 
L 211.930294 144.073517 
L 212.852608 143.507762 
L 213.774923 144.077467 
L 214.697237 142.151502 
L 215.619551 141.557044 
L 216.541865 144.416611 
L 217.464179 145.316282 
L 218.386493 142.868472 
L 219.308807 144.028237 
L 220.231121 142.228375 
L 221.153435 142.014184 
L 222.075749 141.589126 
L 222.998063 141.571197 
L 223.920377 141.310832 
L 224.842691 140.917898 
L 225.765005 140.346577 
L 226.687319 140.861824 
L 227.609633 140.111764 
L 228.531947 138.192451 
L 229.454261 138.269277 
L 230.376575 138.718045 
L 231.298889 140.156663 
L 232.221204 138.766498 
L 233.143518 138.279705 
L 234.065832 139.323794 
L 234.988146 139.525302 
L 235.91046 139.180249 
L 236.832774 140.239676 
L 237.755088 141.858362 
L 238.677402 138.938448 
L 239.599716 139.449096 
L 240.52203 140.336515 
L 241.444344 142.371394 
L 242.366658 139.956244 
L 243.288972 140.734341 
L 244.211286 139.937076 
L 245.1336 139.804026 
L 246.055914 138.205218 
L 246.978228 139.587032 
L 247.900542 140.46733 
L 248.822856 141.119228 
L 249.74517 139.052084 
L 250.667485 139.736506 
L 251.589799 141.329343 
L 252.512113 140.279518 
L 253.434427 140.313563 
L 254.356741 139.700591 
L 255.279055 139.85989 
L 256.201369 139.097869 
L 258.045997 141.702979 
L 258.968311 140.54567 
L 259.890625 140.869427 
L 260.812939 142.201998 
L 261.735253 140.897605 
L 262.657567 141.391703 
L 264.502195 138.737702 
L 266.346823 142.102561 
L 267.269137 141.988356 
L 268.191451 142.147197 
L 269.113765 143.574172 
L 270.03608 140.636832 
L 270.958394 142.174733 
L 271.880708 143.175611 
L 272.803022 142.2773 
L 273.725336 141.613602 
L 274.64765 140.19156 
L 275.569964 142.75052 
L 276.492278 142.302067 
L 277.414592 143.746324 
L 278.336906 144.672228 
L 279.25922 143.788992 
L 280.181534 143.74112 
L 281.103848 142.406016 
L 282.026162 142.586782 
L 282.948476 144.512704 
L 283.87079 144.272991 
L 284.793104 143.769912 
L 285.715418 142.060514 
L 286.637732 141.58127 
L 287.560046 142.216679 
L 288.482361 140.461817 
L 289.404675 140.28079 
L 290.326989 144.05529 
L 291.249303 141.60604 
L 292.171617 142.299131 
L 293.093931 142.238929 
L 294.938559 141.520141 
L 295.860873 141.800176 
L 296.783187 141.370555 
L 297.705501 142.011928 
L 298.627815 141.833753 
L 299.550129 141.437759 
L 300.472443 141.943321 
L 301.394757 140.528882 
L 302.317071 140.208809 
L 303.239385 140.703162 
L 304.161699 141.554831 
L 305.084013 141.715784 
L 306.006327 140.065541 
L 306.928642 141.359576 
L 307.850956 142.10316 
L 308.77327 141.443143 
L 309.695584 141.179998 
L 310.617898 141.369596 
L 311.540212 141.233448 
L 312.462526 141.781948 
L 313.38484 141.728105 
L 314.307154 140.068284 
L 315.229468 139.740699 
L 316.151782 139.729665 
L 317.074096 140.554805 
L 317.99641 139.720235 
L 318.918724 142.083062 
L 319.841038 142.270694 
L 320.763352 141.359614 
L 321.685666 141.262846 
L 322.60798 140.203036 
L 323.530294 139.631234 
L 324.452608 140.828401 
L 325.374923 140.658546 
L 326.297237 139.660707 
L 327.219551 141.033843 
L 328.141865 140.479054 
L 329.064179 138.908645 
L 329.986493 141.293396 
L 330.908807 143.175718 
L 331.831121 140.912469 
L 332.753435 142.693637 
L 333.675749 141.13301 
L 334.598063 141.298107 
L 335.520377 141.917444 
L 336.442691 141.060915 
L 338.287319 139.672439 
L 339.209633 140.568505 
L 340.131947 141.72895 
L 341.054261 141.955635 
L 341.976575 139.66056 
L 342.898889 141.115863 
L 344.743518 141.90842 
L 346.588146 141.271928 
L 347.51046 141.304225 
L 348.432774 140.883772 
L 349.355088 139.900049 
L 350.277402 141.93954 
L 351.199716 141.38107 
L 352.12203 141.043629 
L 353.044344 141.257252 
L 353.966658 141.861299 
L 354.888972 141.081762 
L 355.811286 141.623368 
L 356.7336 143.065076 
L 357.655914 142.508555 
L 358.578228 142.223836 
L 360.422856 140.742288 
L 361.34517 141.250351 
L 362.267485 139.881919 
L 363.189799 140.100562 
L 365.034427 139.564669 
L 365.956741 141.857634 
L 366.879055 138.77274 
L 367.801369 140.420332 
L 368.723683 140.256908 
L 369.645997 140.257608 
L 370.568311 140.809362 
L 372.412939 139.187185 
L 373.335253 139.360426 
L 374.257567 140.556467 
L 375.179881 141.113111 
L 376.102195 140.86058 
L 377.024509 140.209854 
L 377.946823 141.105996 
L 378.869137 142.337483 
L 379.791451 140.07311 
L 380.713765 140.602043 
L 381.63608 140.125384 
L 382.558394 140.266199 
L 383.480708 139.772343 
L 384.403022 140.821142 
L 385.325336 141.145302 
L 387.169964 139.141903 
L 388.092278 138.844941 
L 389.014592 140.093781 
L 389.936906 140.315587 
L 390.85922 137.059576 
L 391.781534 135.341227 
L 392.703848 136.917032 
L 393.626162 138.125529 
L 394.548476 140.60994 
L 395.47079 140.872107 
L 396.393104 138.13094 
L 397.315418 140.283064 
L 398.237732 140.683787 
L 399.160046 139.987451 
L 400.082361 141.833527 
L 401.926989 140.417825 
L 402.849303 141.311646 
L 403.771617 139.75019 
L 404.693931 139.840337 
L 405.616245 139.798123 
L 406.538559 139.948652 
L 407.460873 140.219814 
L 408.383187 140.689288 
L 409.305501 139.985053 
L 410.227815 140.275247 
L 411.150129 141.752186 
L 412.072443 140.095416 
L 412.994757 141.105599 
L 413.917071 143.034492 
L 414.839385 141.114813 
L 415.761699 140.737658 
L 416.684013 139.765443 
L 417.606327 139.957015 
L 418.528642 140.337908 
L 419.450956 139.574103 
L 420.37327 141.082953 
L 421.295584 141.206726 
L 422.217898 140.915457 
L 423.140212 142.191172 
L 424.062526 141.336998 
L 424.98484 139.692628 
L 425.907154 141.000938 
L 426.829468 140.909394 
L 427.751782 141.552779 
L 428.674096 141.729933 
L 429.59641 141.491486 
L 430.518724 142.667296 
L 431.441038 143.194822 
L 432.363352 144.093051 
L 433.285666 143.682404 
L 434.20798 142.500327 
L 435.130294 141.641717 
L 436.052608 141.820165 
L 436.974923 142.997563 
L 437.897237 141.298489 
L 438.819551 141.845926 
L 439.741865 141.503955 
L 440.664179 141.585354 
L 441.586493 140.514449 
L 442.508807 141.485577 
L 443.431121 140.997126 
L 444.353435 140.769428 
L 446.198063 141.735172 
L 447.120377 140.479324 
L 448.042691 141.269145 
L 448.965005 141.301165 
L 449.887319 141.925125 
L 450.809633 141.219729 
L 452.654261 141.096262 
L 453.576575 140.000626 
L 455.421204 139.960953 
L 457.265832 140.42143 
L 458.188146 140.187129 
L 459.11046 140.646585 
L 460.032774 139.810883 
L 461.877402 141.080838 
L 462.799716 140.892541 
L 463.72203 140.117579 
L 464.644344 141.720876 
L 465.566658 142.881143 
L 466.488972 142.215011 
L 467.411286 144.099605 
L 468.3336 142.123466 
L 469.255914 142.008462 
L 470.178228 143.050816 
L 471.100542 143.273704 
L 472.022856 142.733912 
L 473.867485 142.832352 
L 474.789799 143.021904 
L 475.712113 142.349658 
L 477.556741 137.554799 
L 478.479055 138.422193 
L 479.401369 132.055602 
L 480.323683 134.866361 
L 481.245997 134.561206 
L 482.168311 133.41717 
L 483.090625 135.528764 
L 484.012939 136.720811 
L 484.935253 136.13275 
L 485.857567 135.806208 
L 486.779881 136.480411 
L 487.702195 138.091589 
L 488.624509 136.412065 
L 489.546823 137.985223 
L 490.469137 135.259883 
L 491.391451 135.859338 
L 492.313765 138.030001 
L 493.23608 137.059151 
L 494.158394 137.169758 
L 496.003022 137.964406 
L 496.925336 137.214489 
L 497.84765 139.789964 
L 498.769964 137.311494 
L 499.692278 137.75856 
L 500.614592 136.925339 
L 501.536906 138.246034 
L 502.45922 138.538797 
L 504.303848 137.244467 
L 505.226162 137.332561 
L 506.148476 138.162987 
L 507.07079 139.382702 
L 507.993104 139.12165 
L 508.915418 139.495137 
L 509.837732 138.611615 
L 510.760046 139.669447 
L 511.682361 138.210561 
L 512.604675 138.305335 
L 513.526989 138.008384 
L 514.449303 139.328819 
L 516.293931 140.156714 
L 517.216245 138.932544 
L 518.138559 138.754762 
L 519.060873 139.030795 
L 519.983187 138.952323 
L 520.905501 139.121641 
L 521.827815 140.201292 
L 522.750129 139.344131 
L 523.672443 139.197042 
L 524.594757 138.278273 
L 525.517071 138.508022 
L 526.439385 138.928114 
L 527.361699 139.093599 
L 528.284013 137.836699 
L 529.206327 138.794698 
L 530.128642 138.254888 
L 531.050956 138.845994 
L 532.895584 138.481943 
L 533.817898 138.543332 
L 534.740212 139.458534 
L 535.662526 139.400961 
L 536.58484 138.988463 
L 537.507154 139.400857 
L 538.429468 139.620481 
L 539.351782 139.713892 
L 540.274096 138.52745 
L 541.19641 138.883596 
L 542.118724 138.448987 
L 543.041038 138.319017 
L 543.963352 138.571678 
L 544.885666 138.662684 
L 545.80798 137.842678 
L 546.730294 135.218979 
L 547.652608 138.010515 
L 548.574923 138.464266 
L 549.497237 138.319968 
L 550.419551 137.344796 
L 551.341865 138.605089 
L 552.264179 137.813948 
L 553.186493 138.046748 
L 554.108807 137.479783 
L 555.031121 136.591293 
L 555.953435 137.926346 
L 556.875749 137.861248 
L 557.798063 136.996455 
L 558.720377 137.050665 
L 559.642691 138.010305 
L 560.565005 138.448217 
L 561.487319 138.694624 
L 562.409633 138.761858 
L 564.254261 140.097669 
L 565.176575 139.199145 
L 566.098889 137.932704 
L 567.021204 138.902771 
L 568.865832 138.133353 
L 569.788146 138.959948 
L 570.71046 138.016238 
L 571.632774 137.78253 
L 572.555088 137.728585 
L 573.477402 137.35183 
L 574.399716 137.534918 
L 575.32203 137.881135 
L 576.244344 138.773509 
L 577.166658 137.980029 
L 578.088972 138.889815 
L 579.011286 137.860111 
L 579.9336 138.036439 
L 580.855914 138.682241 
L 581.778228 138.314265 
L 582.700542 138.331096 
L 583.622856 137.975421 
L 584.54517 138.03331 
L 585.467485 137.462769 
L 587.312113 137.971204 
L 588.234427 136.936308 
L 590.079055 137.163446 
L 591.001369 136.945668 
L 591.923683 137.695802 
L 592.845997 136.666571 
L 593.768311 137.400428 
L 594.690625 137.865413 
L 595.612939 137.993014 
L 596.535253 137.847084 
L 597.457567 137.570795 
L 598.379881 136.849702 
L 599.302195 136.520589 
L 600.224509 137.561634 
L 601.146823 137.1365 
L 602.069137 138.046185 
L 602.991451 138.348643 
L 603.913765 138.44306 
L 604.83608 139.473834 
L 605.758394 137.994971 
L 606.680708 137.455932 
L 607.603022 138.067411 
L 608.525336 136.619139 
L 609.44765 138.785743 
L 610.369964 139.265789 
L 611.292278 138.050721 
L 612.214592 137.452075 
L 613.136906 137.196439 
L 614.981534 137.461782 
L 615.903848 137.178265 
L 616.826162 137.207842 
L 617.748476 136.974012 
L 618.67079 136.468116 
L 619.593104 137.169727 
L 620.515418 136.737413 
L 621.437732 136.622805 
L 622.360046 136.073681 
L 623.282361 136.674878 
L 625.126989 137.538276 
L 625.126989 137.538276 
" clip-path="url(#p80292a0b19)" style="fill: none; stroke: #1f77b4; stroke-width: 1.5; stroke-linecap: square"/>
   </g>
   <g id="line2d_12">
    <path d="M 117.854261 296.03625 
L 118.776575 241.113866 
L 119.698889 203.288765 
L 120.621204 205.049939 
L 121.543518 206.143459 
L 122.465832 203.498942 
L 123.388146 186.685966 
L 124.31046 205.438172 
L 125.232774 185.019453 
L 126.155088 179.820324 
L 127.077402 180.821211 
L 127.999716 180.813717 
L 128.92203 182.146734 
L 129.844344 178.799757 
L 130.766658 180.178391 
L 131.688972 168.962548 
L 132.611286 174.973676 
L 133.5336 174.142921 
L 135.378228 177.47744 
L 136.300542 178.02884 
L 137.222856 164.487503 
L 138.14517 166.986542 
L 139.067485 163.693045 
L 139.989799 167.581344 
L 140.912113 164.551672 
L 141.834427 164.242989 
L 142.756741 164.583071 
L 143.679055 158.927573 
L 144.601369 159.597491 
L 145.523683 163.332655 
L 146.445997 159.064405 
L 147.368311 157.226609 
L 148.290625 158.525201 
L 149.212939 160.114653 
L 150.135253 157.536135 
L 151.057567 156.008313 
L 151.979881 156.101845 
L 152.902195 158.11385 
L 153.824509 159.255239 
L 154.746823 158.371931 
L 155.669137 158.633965 
L 156.591451 156.947882 
L 157.513765 154.988208 
L 158.43608 158.988351 
L 159.358394 159.203964 
L 160.280708 158.449679 
L 161.203022 154.020669 
L 162.125336 153.725238 
L 163.04765 157.613843 
L 163.969964 159.434499 
L 164.892278 157.180335 
L 165.814592 155.850694 
L 166.736906 158.029298 
L 167.65922 157.177485 
L 168.581534 155.614422 
L 169.503848 155.980615 
L 170.426162 154.753656 
L 171.348476 155.408499 
L 172.27079 158.615546 
L 173.193104 156.940358 
L 174.115418 155.516206 
L 175.037732 155.288589 
L 175.960046 155.670831 
L 177.804675 158.295871 
L 178.726989 159.280733 
L 179.649303 158.871815 
L 180.571617 157.26312 
L 181.493931 156.861179 
L 182.416245 156.724625 
L 183.338559 156.787615 
L 184.260873 158.944455 
L 185.183187 156.049845 
L 186.105501 155.294044 
L 187.027815 156.561929 
L 187.950129 157.36283 
L 188.872443 157.655218 
L 189.794757 156.046993 
L 190.717071 158.774749 
L 191.639385 157.637184 
L 192.561699 156.304672 
L 193.484013 154.245005 
L 194.406327 154.473916 
L 195.328642 153.822593 
L 196.250956 154.94767 
L 197.17327 155.803786 
L 198.095584 155.531842 
L 199.017898 154.587492 
L 199.940212 156.61496 
L 200.862526 155.424676 
L 201.78484 154.423699 
L 202.707154 150.82526 
L 205.474096 152.88935 
L 206.39641 153.076736 
L 207.318724 155.349784 
L 208.241038 153.019148 
L 209.163352 155.002136 
L 210.085666 153.832037 
L 211.00798 155.94442 
L 211.930294 149.305635 
L 212.852608 150.20283 
L 213.774923 147.868647 
L 214.697237 147.383957 
L 215.619551 148.273323 
L 216.541865 151.36421 
L 217.464179 150.447154 
L 218.386493 149.313987 
L 219.308807 150.086891 
L 220.231121 150.064108 
L 221.153435 151.354422 
L 222.075749 149.22371 
L 222.998063 151.954691 
L 224.842691 150.047436 
L 225.765005 149.991833 
L 226.687319 150.313042 
L 227.609633 152.187133 
L 228.531947 148.43794 
L 229.454261 150.235716 
L 230.376575 150.33164 
L 231.298889 151.363168 
L 232.221204 149.663027 
L 234.065832 149.461831 
L 234.988146 149.117886 
L 235.91046 149.697328 
L 236.832774 149.674019 
L 237.755088 150.915693 
L 238.677402 150.0342 
L 239.599716 150.45281 
L 240.52203 150.12333 
L 241.444344 150.654267 
L 242.366658 151.798453 
L 243.288972 153.433211 
L 244.211286 151.196747 
L 245.1336 149.809581 
L 246.055914 149.944401 
L 246.978228 149.639818 
L 247.900542 150.804349 
L 248.822856 151.107627 
L 249.74517 150.99181 
L 250.667485 151.6235 
L 251.589799 151.800852 
L 252.512113 151.13914 
L 253.434427 151.051892 
L 254.356741 153.006503 
L 255.279055 152.149768 
L 256.201369 151.548159 
L 257.123683 152.374985 
L 258.045997 152.167704 
L 258.968311 151.425898 
L 259.890625 153.236006 
L 260.812939 153.007327 
L 261.735253 151.352523 
L 262.657567 150.212294 
L 263.579881 149.877967 
L 264.502195 149.76712 
L 265.424509 152.334364 
L 266.346823 152.984876 
L 267.269137 154.989053 
L 268.191451 152.777388 
L 269.113765 155.510737 
L 270.03608 153.131881 
L 270.958394 154.505523 
L 271.880708 153.474304 
L 272.803022 153.384478 
L 273.725336 154.081152 
L 274.64765 150.17425 
L 275.569964 151.303553 
L 276.492278 151.289085 
L 277.414592 152.397849 
L 278.336906 152.456653 
L 279.25922 150.403996 
L 281.103848 151.256954 
L 282.026162 152.309498 
L 282.948476 155.515012 
L 283.87079 153.799522 
L 284.793104 154.22262 
L 285.715418 151.425359 
L 286.637732 151.190714 
L 287.560046 150.809033 
L 288.482361 150.179916 
L 289.404675 150.736983 
L 290.326989 152.238025 
L 292.171617 149.389988 
L 293.093931 152.36677 
L 294.016245 151.178073 
L 294.938559 151.577578 
L 295.860873 153.414952 
L 296.783187 150.167981 
L 297.705501 150.014169 
L 298.627815 150.413847 
L 299.550129 148.432849 
L 300.472443 150.09173 
L 301.394757 150.013241 
L 303.239385 152.862798 
L 304.161699 148.176301 
L 305.084013 151.27553 
L 306.006327 150.204153 
L 306.928642 150.429404 
L 307.850956 153.806232 
L 308.77327 152.564889 
L 309.695584 151.764491 
L 310.617898 151.634621 
L 311.540212 151.798586 
L 313.38484 151.136103 
L 314.307154 149.717316 
L 315.229468 146.124544 
L 316.151782 146.390486 
L 317.074096 147.845925 
L 317.99641 147.747277 
L 318.918724 149.558781 
L 319.841038 151.12045 
L 320.763352 150.824896 
L 321.685666 151.402646 
L 322.60798 148.853405 
L 323.530294 150.661894 
L 324.452608 151.552457 
L 325.374923 150.230134 
L 326.297237 149.747131 
L 327.219551 151.02265 
L 328.141865 151.54486 
L 329.064179 149.989709 
L 329.986493 153.052728 
L 330.908807 152.927737 
L 331.831121 150.854604 
L 332.753435 149.803555 
L 333.675749 151.003609 
L 334.598063 152.796036 
L 335.520377 153.127643 
L 336.442691 152.847695 
L 337.365005 149.57657 
L 338.287319 151.199333 
L 339.209633 151.612981 
L 340.131947 150.939007 
L 341.054261 150.668608 
L 341.976575 148.261371 
L 342.898889 150.64913 
L 343.821204 149.748479 
L 344.743518 148.539394 
L 345.665832 149.983433 
L 346.588146 150.051366 
L 347.51046 149.886969 
L 348.432774 148.826135 
L 349.355088 148.534426 
L 350.277402 149.706885 
L 351.199716 148.706397 
L 352.12203 150.532964 
L 353.044344 148.740553 
L 353.966658 149.327069 
L 354.888972 149.280068 
L 355.811286 150.824788 
L 356.7336 152.94373 
L 357.655914 150.838432 
L 358.578228 151.038112 
L 359.500542 150.42302 
L 360.422856 150.419573 
L 361.34517 151.387996 
L 362.267485 147.587184 
L 363.189799 149.256893 
L 364.112113 150.177876 
L 365.034427 148.732241 
L 365.956741 151.537359 
L 366.879055 147.732009 
L 367.801369 148.940103 
L 368.723683 148.171511 
L 369.645997 150.538707 
L 370.568311 151.618155 
L 371.490625 147.331739 
L 372.412939 146.71374 
L 373.335253 147.041982 
L 374.257567 146.64251 
L 376.102195 149.735165 
L 377.024509 147.685401 
L 377.946823 148.928008 
L 378.869137 149.44773 
L 379.791451 147.520702 
L 380.713765 147.992599 
L 381.63608 148.075181 
L 382.558394 147.476149 
L 383.480708 147.986914 
L 384.403022 149.178678 
L 385.325336 149.618311 
L 386.24765 148.624371 
L 387.169964 146.764939 
L 388.092278 146.058598 
L 389.014592 147.941403 
L 389.936906 148.029202 
L 390.85922 150.687199 
L 391.781534 146.697004 
L 392.703848 145.16617 
L 393.626162 146.6666 
L 394.548476 147.58066 
L 396.393104 145.861357 
L 397.315418 147.828364 
L 398.237732 147.007308 
L 400.082361 146.009021 
L 401.926989 148.688569 
L 402.849303 149.924127 
L 404.693931 146.336792 
L 405.616245 146.575728 
L 406.538559 148.283753 
L 407.460873 148.877409 
L 408.383187 147.467875 
L 409.305501 146.334357 
L 410.227815 146.61056 
L 411.150129 148.682391 
L 412.072443 148.756905 
L 412.994757 149.724469 
L 413.917071 148.74832 
L 414.839385 148.558895 
L 415.761699 148.723365 
L 416.684013 146.921662 
L 417.606327 147.01632 
L 418.528642 146.944288 
L 419.450956 147.558182 
L 420.37327 147.766075 
L 421.295584 148.390341 
L 422.217898 147.878107 
L 423.140212 148.882083 
L 424.062526 148.014212 
L 424.98484 148.676497 
L 425.907154 147.872348 
L 426.829468 145.778762 
L 427.751782 146.001206 
L 428.674096 146.342631 
L 429.59641 148.350632 
L 430.518724 148.988638 
L 431.441038 147.391235 
L 432.363352 149.821081 
L 433.285666 147.996077 
L 434.20798 149.031582 
L 435.130294 146.037361 
L 436.052608 148.671689 
L 436.974923 149.053573 
L 437.897237 148.04938 
L 438.819551 146.400472 
L 440.664179 146.825366 
L 441.586493 145.566805 
L 442.508807 146.199822 
L 443.431121 147.363132 
L 444.353435 145.266351 
L 445.275749 146.472383 
L 446.198063 146.405547 
L 447.120377 145.784048 
L 448.042691 145.925262 
L 448.965005 147.715782 
L 449.887319 145.079454 
L 450.809633 145.744808 
L 451.731947 146.658808 
L 452.654261 146.263982 
L 453.576575 144.737049 
L 454.498889 145.535868 
L 455.421204 147.097598 
L 456.343518 146.435914 
L 457.265832 146.878997 
L 458.188146 146.887601 
L 459.11046 147.294672 
L 460.955088 147.727013 
L 461.877402 147.715841 
L 462.799716 148.327607 
L 463.72203 147.360703 
L 464.644344 148.57042 
L 465.566658 148.590716 
L 466.488972 147.186829 
L 467.411286 149.632939 
L 468.3336 148.065214 
L 469.255914 148.880796 
L 470.178228 150.087824 
L 471.100542 149.006153 
L 472.022856 149.041311 
L 472.94517 149.919469 
L 473.867485 151.783883 
L 475.712113 148.51746 
L 476.634427 140.383069 
L 477.556741 134.645392 
L 478.479055 135.276076 
L 479.401369 134.09476 
L 480.323683 134.924173 
L 481.245997 133.544362 
L 482.168311 133.932559 
L 483.090625 134.109289 
L 484.012939 134.095199 
L 484.935253 136.328853 
L 485.857567 134.045089 
L 487.702195 134.511322 
L 488.624509 134.148292 
L 489.546823 135.46348 
L 490.469137 134.36296 
L 491.391451 134.485788 
L 492.313765 135.062459 
L 493.23608 134.332694 
L 494.158394 135.128299 
L 495.080708 135.192742 
L 496.003022 135.1421 
L 496.925336 135.746995 
L 497.84765 135.76592 
L 498.769964 134.644853 
L 499.692278 135.159487 
L 500.614592 135.834232 
L 501.536906 135.00642 
L 502.45922 134.825713 
L 503.381534 135.365509 
L 505.226162 134.665984 
L 507.07079 135.65219 
L 507.993104 135.49727 
L 508.915418 136.349539 
L 509.837732 134.959835 
L 510.760046 134.958175 
L 511.682361 134.353872 
L 512.604675 134.761472 
L 515.371617 135.446631 
L 516.293931 136.13927 
L 517.216245 134.876512 
L 519.060873 134.657394 
L 522.750129 135.683175 
L 523.672443 135.387909 
L 524.594757 135.432099 
L 526.439385 135.180298 
L 527.361699 135.437722 
L 528.284013 135.041614 
L 529.206327 135.044866 
L 530.128642 134.807891 
L 531.050956 135.656141 
L 532.895584 134.909933 
L 533.817898 134.822788 
L 535.662526 135.070867 
L 536.58484 134.689487 
L 537.507154 135.242155 
L 538.429468 135.182653 
L 539.351782 135.683602 
L 540.274096 134.907999 
L 541.19641 134.970018 
L 542.118724 134.85644 
L 543.041038 135.541425 
L 543.963352 135.28166 
L 544.885666 134.576644 
L 545.80798 134.209949 
L 546.730294 133.348923 
L 548.574923 134.399382 
L 549.497237 134.430051 
L 550.419551 134.006603 
L 553.186493 134.912482 
L 554.108807 134.577112 
L 555.953435 135.02032 
L 556.875749 134.311887 
L 557.798063 134.841699 
L 558.720377 134.919568 
L 559.642691 135.477955 
L 560.565005 134.25946 
L 561.487319 133.663397 
L 562.409633 134.132352 
L 563.331947 134.76518 
L 564.254261 135.133355 
L 565.176575 134.691464 
L 566.098889 134.711405 
L 567.021204 135.230141 
L 567.943518 134.944728 
L 568.865832 135.026033 
L 569.788146 135.417067 
L 570.71046 134.993303 
L 571.632774 134.923053 
L 572.555088 135.304547 
L 573.477402 134.786339 
L 576.244344 135.906353 
L 577.166658 134.721007 
L 579.011286 135.252268 
L 579.9336 134.442712 
L 580.855914 135.202486 
L 581.778228 135.442336 
L 582.700542 134.903049 
L 583.622856 134.844061 
L 584.54517 134.391304 
L 585.467485 134.455816 
L 586.389799 135.274171 
L 587.312113 135.45648 
L 588.234427 134.804065 
L 589.156741 135.066336 
L 590.079055 134.831295 
L 591.001369 135.661718 
L 591.923683 135.422257 
L 592.845997 134.976805 
L 593.768311 135.405305 
L 594.690625 134.9154 
L 595.612939 135.610838 
L 596.535253 135.51559 
L 598.379881 135.114546 
L 599.302195 135.166521 
L 600.224509 135.492849 
L 601.146823 134.771946 
L 602.069137 135.387025 
L 602.991451 134.93435 
L 605.758394 135.123354 
L 607.603022 134.829573 
L 608.525336 134.747605 
L 609.44765 135.356739 
L 610.369964 135.359237 
L 611.292278 134.904426 
L 612.214592 134.677288 
L 613.136906 135.785722 
L 614.05922 134.709898 
L 614.981534 134.327474 
L 615.903848 134.888571 
L 616.826162 135.273006 
L 618.67079 135.139176 
L 619.593104 135.627855 
L 620.515418 135.021037 
L 621.437732 134.594411 
L 622.360046 134.781306 
L 623.282361 134.568335 
L 624.204675 135.358105 
L 625.126989 135.228839 
L 625.126989 135.228839 
" clip-path="url(#p80292a0b19)" style="fill: none; stroke: #ff7f0e; stroke-width: 1.5; stroke-linecap: square"/>
   </g>
   <g id="patch_3">
    <path d="M 92.490625 308.63625 
L 92.490625 31.43625 
" style="fill: none; stroke: #000000; stroke-width: 0.8; stroke-linejoin: miter; stroke-linecap: square"/>
   </g>
   <g id="patch_4">
    <path d="M 650.490625 308.63625 
L 650.490625 31.43625 
" style="fill: none; stroke: #000000; stroke-width: 0.8; stroke-linejoin: miter; stroke-linecap: square"/>
   </g>
   <g id="patch_5">
    <path d="M 92.490625 308.63625 
L 650.490625 308.63625 
" style="fill: none; stroke: #000000; stroke-width: 0.8; stroke-linejoin: miter; stroke-linecap: square"/>
   </g>
   <g id="patch_6">
    <path d="M 92.490625 31.43625 
L 650.490625 31.43625 
" style="fill: none; stroke: #000000; stroke-width: 0.8; stroke-linejoin: miter; stroke-linecap: square"/>
   </g>
   <g id="text_13">
    <!-- Generator and Discriminator Loss During Training -->
    <g transform="translate(74.258125 25.43625) scale(0.24 -0.24)">
     <defs>
      <path id="DejaVuSans-47" d="M 3809 666 
L 3809 1919 
L 2778 1919 
L 2778 2438 
L 4434 2438 
L 4434 434 
Q 4069 175 3628 42 
Q 3188 -91 2688 -91 
Q 1594 -91 976 548 
Q 359 1188 359 2328 
Q 359 3472 976 4111 
Q 1594 4750 2688 4750 
Q 3144 4750 3555 4637 
Q 3966 4525 4313 4306 
L 4313 3634 
Q 3963 3931 3569 4081 
Q 3175 4231 2741 4231 
Q 1884 4231 1454 3753 
Q 1025 3275 1025 2328 
Q 1025 1384 1454 906 
Q 1884 428 2741 428 
Q 3075 428 3337 486 
Q 3600 544 3809 666 
z
" transform="scale(0.015625)"/>
      <path id="DejaVuSans-20" transform="scale(0.015625)"/>
      <path id="DejaVuSans-64" d="M 2906 2969 
L 2906 4863 
L 3481 4863 
L 3481 0 
L 2906 0 
L 2906 525 
Q 2725 213 2448 61 
Q 2172 -91 1784 -91 
Q 1150 -91 751 415 
Q 353 922 353 1747 
Q 353 2572 751 3078 
Q 1150 3584 1784 3584 
Q 2172 3584 2448 3432 
Q 2725 3281 2906 2969 
z
M 947 1747 
Q 947 1113 1208 752 
Q 1469 391 1925 391 
Q 2381 391 2643 752 
Q 2906 1113 2906 1747 
Q 2906 2381 2643 2742 
Q 2381 3103 1925 3103 
Q 1469 3103 1208 2742 
Q 947 2381 947 1747 
z
" transform="scale(0.015625)"/>
      <path id="DejaVuSans-44" d="M 1259 4147 
L 1259 519 
L 2022 519 
Q 2988 519 3436 956 
Q 3884 1394 3884 2338 
Q 3884 3275 3436 3711 
Q 2988 4147 2022 4147 
L 1259 4147 
z
M 628 4666 
L 1925 4666 
Q 3281 4666 3915 4102 
Q 4550 3538 4550 2338 
Q 4550 1131 3912 565 
Q 3275 0 1925 0 
L 628 0 
L 628 4666 
z
" transform="scale(0.015625)"/>
      <path id="DejaVuSans-63" d="M 3122 3366 
L 3122 2828 
Q 2878 2963 2633 3030 
Q 2388 3097 2138 3097 
Q 1578 3097 1268 2742 
Q 959 2388 959 1747 
Q 959 1106 1268 751 
Q 1578 397 2138 397 
Q 2388 397 2633 464 
Q 2878 531 3122 666 
L 3122 134 
Q 2881 22 2623 -34 
Q 2366 -91 2075 -91 
Q 1284 -91 818 406 
Q 353 903 353 1747 
Q 353 2603 823 3093 
Q 1294 3584 2113 3584 
Q 2378 3584 2631 3529 
Q 2884 3475 3122 3366 
z
" transform="scale(0.015625)"/>
      <path id="DejaVuSans-6d" d="M 3328 2828 
Q 3544 3216 3844 3400 
Q 4144 3584 4550 3584 
Q 5097 3584 5394 3201 
Q 5691 2819 5691 2113 
L 5691 0 
L 5113 0 
L 5113 2094 
Q 5113 2597 4934 2840 
Q 4756 3084 4391 3084 
Q 3944 3084 3684 2787 
Q 3425 2491 3425 1978 
L 3425 0 
L 2847 0 
L 2847 2094 
Q 2847 2600 2669 2842 
Q 2491 3084 2119 3084 
Q 1678 3084 1418 2786 
Q 1159 2488 1159 1978 
L 1159 0 
L 581 0 
L 581 3500 
L 1159 3500 
L 1159 2956 
Q 1356 3278 1631 3431 
Q 1906 3584 2284 3584 
Q 2666 3584 2933 3390 
Q 3200 3197 3328 2828 
z
" transform="scale(0.015625)"/>
      <path id="DejaVuSans-75" d="M 544 1381 
L 544 3500 
L 1119 3500 
L 1119 1403 
Q 1119 906 1312 657 
Q 1506 409 1894 409 
Q 2359 409 2629 706 
Q 2900 1003 2900 1516 
L 2900 3500 
L 3475 3500 
L 3475 0 
L 2900 0 
L 2900 538 
Q 2691 219 2414 64 
Q 2138 -91 1772 -91 
Q 1169 -91 856 284 
Q 544 659 544 1381 
z
M 1991 3584 
L 1991 3584 
z
" transform="scale(0.015625)"/>
      <path id="DejaVuSans-67" d="M 2906 1791 
Q 2906 2416 2648 2759 
Q 2391 3103 1925 3103 
Q 1463 3103 1205 2759 
Q 947 2416 947 1791 
Q 947 1169 1205 825 
Q 1463 481 1925 481 
Q 2391 481 2648 825 
Q 2906 1169 2906 1791 
z
M 3481 434 
Q 3481 -459 3084 -895 
Q 2688 -1331 1869 -1331 
Q 1566 -1331 1297 -1286 
Q 1028 -1241 775 -1147 
L 775 -588 
Q 1028 -725 1275 -790 
Q 1522 -856 1778 -856 
Q 2344 -856 2625 -561 
Q 2906 -266 2906 331 
L 2906 616 
Q 2728 306 2450 153 
Q 2172 0 1784 0 
Q 1141 0 747 490 
Q 353 981 353 1791 
Q 353 2603 747 3093 
Q 1141 3584 1784 3584 
Q 2172 3584 2450 3431 
Q 2728 3278 2906 2969 
L 2906 3500 
L 3481 3500 
L 3481 434 
z
" transform="scale(0.015625)"/>
      <path id="DejaVuSans-54" d="M -19 4666 
L 3928 4666 
L 3928 4134 
L 2272 4134 
L 2272 0 
L 1638 0 
L 1638 4134 
L -19 4134 
L -19 4666 
z
" transform="scale(0.015625)"/>
     </defs>
     <use xlink:href="#DejaVuSans-47"/>
     <use xlink:href="#DejaVuSans-65" x="77.490234"/>
     <use xlink:href="#DejaVuSans-6e" x="139.013672"/>
     <use xlink:href="#DejaVuSans-65" x="202.392578"/>
     <use xlink:href="#DejaVuSans-72" x="263.916016"/>
     <use xlink:href="#DejaVuSans-61" x="305.029297"/>
     <use xlink:href="#DejaVuSans-74" x="366.308594"/>
     <use xlink:href="#DejaVuSans-6f" x="405.517578"/>
     <use xlink:href="#DejaVuSans-72" x="466.699219"/>
     <use xlink:href="#DejaVuSans-20" x="507.8125"/>
     <use xlink:href="#DejaVuSans-61" x="539.599609"/>
     <use xlink:href="#DejaVuSans-6e" x="600.878906"/>
     <use xlink:href="#DejaVuSans-64" x="664.257812"/>
     <use xlink:href="#DejaVuSans-20" x="727.734375"/>
     <use xlink:href="#DejaVuSans-44" x="759.521484"/>
     <use xlink:href="#DejaVuSans-69" x="836.523438"/>
     <use xlink:href="#DejaVuSans-73" x="864.306641"/>
     <use xlink:href="#DejaVuSans-63" x="916.40625"/>
     <use xlink:href="#DejaVuSans-72" x="971.386719"/>
     <use xlink:href="#DejaVuSans-69" x="1012.5"/>
     <use xlink:href="#DejaVuSans-6d" x="1040.283203"/>
     <use xlink:href="#DejaVuSans-69" x="1137.695312"/>
     <use xlink:href="#DejaVuSans-6e" x="1165.478516"/>
     <use xlink:href="#DejaVuSans-61" x="1228.857422"/>
     <use xlink:href="#DejaVuSans-74" x="1290.136719"/>
     <use xlink:href="#DejaVuSans-6f" x="1329.345703"/>
     <use xlink:href="#DejaVuSans-72" x="1390.527344"/>
     <use xlink:href="#DejaVuSans-20" x="1431.640625"/>
     <use xlink:href="#DejaVuSans-4c" x="1463.427734"/>
     <use xlink:href="#DejaVuSans-6f" x="1517.390625"/>
     <use xlink:href="#DejaVuSans-73" x="1578.572266"/>
     <use xlink:href="#DejaVuSans-73" x="1630.671875"/>
     <use xlink:href="#DejaVuSans-20" x="1682.771484"/>
     <use xlink:href="#DejaVuSans-44" x="1714.558594"/>
     <use xlink:href="#DejaVuSans-75" x="1791.560547"/>
     <use xlink:href="#DejaVuSans-72" x="1854.939453"/>
     <use xlink:href="#DejaVuSans-69" x="1896.052734"/>
     <use xlink:href="#DejaVuSans-6e" x="1923.835938"/>
     <use xlink:href="#DejaVuSans-67" x="1987.214844"/>
     <use xlink:href="#DejaVuSans-20" x="2050.691406"/>
     <use xlink:href="#DejaVuSans-54" x="2082.478516"/>
     <use xlink:href="#DejaVuSans-72" x="2128.8125"/>
     <use xlink:href="#DejaVuSans-61" x="2169.925781"/>
     <use xlink:href="#DejaVuSans-69" x="2231.205078"/>
     <use xlink:href="#DejaVuSans-6e" x="2258.988281"/>
     <use xlink:href="#DejaVuSans-69" x="2322.367188"/>
     <use xlink:href="#DejaVuSans-6e" x="2350.150391"/>
     <use xlink:href="#DejaVuSans-67" x="2413.529297"/>
    </g>
   </g>
   <g id="legend_1">
    <g id="patch_7">
     <path d="M 556.99375 106.14875 
L 636.490625 106.14875 
Q 640.490625 106.14875 640.490625 102.14875 
L 640.490625 45.43625 
Q 640.490625 41.43625 636.490625 41.43625 
L 556.99375 41.43625 
Q 552.99375 41.43625 552.99375 45.43625 
L 552.99375 102.14875 
Q 552.99375 106.14875 556.99375 106.14875 
z
" style="fill: #ffffff; opacity: 0.8; stroke: #cccccc; stroke-linejoin: miter"/>
    </g>
    <g id="line2d_13">
     <path d="M 560.99375 57.633125 
L 580.99375 57.633125 
L 600.99375 57.633125 
" style="fill: none; stroke: #1f77b4; stroke-width: 1.5; stroke-linecap: square"/>
    </g>
    <g id="text_14">
     <!-- G -->
     <g transform="translate(616.99375 64.633125) scale(0.2 -0.2)">
      <use xlink:href="#DejaVuSans-47"/>
     </g>
    </g>
    <g id="line2d_14">
     <path d="M 560.99375 86.989375 
L 580.99375 86.989375 
L 600.99375 86.989375 
" style="fill: none; stroke: #ff7f0e; stroke-width: 1.5; stroke-linecap: square"/>
    </g>
    <g id="text_15">
     <!-- D -->
     <g transform="translate(616.99375 93.989375) scale(0.2 -0.2)">
      <use xlink:href="#DejaVuSans-44"/>
     </g>
    </g>
   </g>
  </g>
 </g>
 <defs>
  <clipPath id="p80292a0b19">
   <rect x="92.490625" y="31.43625" width="558" height="277.2"/>
  </clipPath>
 </defs>
</svg>
