<?xml version="1.0" encoding="utf-8" standalone="no"?>
<!DOCTYPE svg PUBLIC "-//W3C//DTD SVG 1.1//EN"
  "http://www.w3.org/Graphics/SVG/1.1/DTD/svg11.dtd">
<svg xmlns:xlink="http://www.w3.org/1999/xlink" width="675.923125pt" height="365.54875pt" viewBox="0 0 675.923125 365.54875" xmlns="http://www.w3.org/2000/svg" version="1.1">
 <metadata>
  <rdf:RDF xmlns:dc="http://purl.org/dc/elements/1.1/" xmlns:cc="http://creativecommons.org/ns#" xmlns:rdf="http://www.w3.org/1999/02/22-rdf-syntax-ns#">
   <cc:Work>
    <dc:type rdf:resource="http://purl.org/dc/dcmitype/StillImage"/>
    <dc:date>2024-02-04T01:03:18.334868</dc:date>
    <dc:format>image/svg+xml</dc:format>
    <dc:creator>
     <cc:Agent>
      <dc:title>Matplotlib v3.7.2, https://matplotlib.org/</dc:title>
     </cc:Agent>
    </dc:creator>
   </cc:Work>
  </rdf:RDF>
 </metadata>
 <defs>
  <style type="text/css">*{stroke-linejoin: round; stroke-linecap: butt}</style>
 </defs>
 <g id="figure_1">
  <g id="patch_1">
   <path d="M 0 365.54875 
L 675.923125 365.54875 
L 675.923125 -0 
L 0 -0 
z
" style="fill: #ffffff"/>
  </g>
  <g id="axes_1">
   <g id="patch_2">
    <path d="M 92.490625 308.63625 
L 650.490625 308.63625 
L 650.490625 31.43625 
L 92.490625 31.43625 
z
" style="fill: #ffffff"/>
   </g>
   <g id="matplotlib.axis_1">
    <g id="xtick_1">
     <g id="line2d_1">
      <defs>
       <path id="m19e411e372" d="M 0 0 
L 0 3.5 
" style="stroke: #000000; stroke-width: 0.8"/>
      </defs>
      <g>
       <use xlink:href="#m19e411e372" x="117.854261" y="308.63625" style="stroke: #000000; stroke-width: 0.8"/>
      </g>
     </g>
     <g id="text_1">
      <!-- 0 -->
      <g transform="translate(111.491761 330.833125) scale(0.2 -0.2)">
       <defs>
        <path id="DejaVuSans-30" d="M 2034 4250 
Q 1547 4250 1301 3770 
Q 1056 3291 1056 2328 
Q 1056 1369 1301 889 
Q 1547 409 2034 409 
Q 2525 409 2770 889 
Q 3016 1369 3016 2328 
Q 3016 3291 2770 3770 
Q 2525 4250 2034 4250 
z
M 2034 4750 
Q 2819 4750 3233 4129 
Q 3647 3509 3647 2328 
Q 3647 1150 3233 529 
Q 2819 -91 2034 -91 
Q 1250 -91 836 529 
Q 422 1150 422 2328 
Q 422 3509 836 4129 
Q 1250 4750 2034 4750 
z
" transform="scale(0.015625)"/>
       </defs>
       <use xlink:href="#DejaVuSans-30"/>
      </g>
     </g>
    </g>
    <g id="xtick_2">
     <g id="line2d_2">
      <g>
       <use xlink:href="#m19e411e372" x="190.321794" y="308.63625" style="stroke: #000000; stroke-width: 0.8"/>
      </g>
     </g>
     <g id="text_2">
      <!-- 200 -->
      <g transform="translate(171.234294 330.833125) scale(0.2 -0.2)">
       <defs>
        <path id="DejaVuSans-32" d="M 1228 531 
L 3431 531 
L 3431 0 
L 469 0 
L 469 531 
Q 828 903 1448 1529 
Q 2069 2156 2228 2338 
Q 2531 2678 2651 2914 
Q 2772 3150 2772 3378 
Q 2772 3750 2511 3984 
Q 2250 4219 1831 4219 
Q 1534 4219 1204 4116 
Q 875 4013 500 3803 
L 500 4441 
Q 881 4594 1212 4672 
Q 1544 4750 1819 4750 
Q 2544 4750 2975 4387 
Q 3406 4025 3406 3419 
Q 3406 3131 3298 2873 
Q 3191 2616 2906 2266 
Q 2828 2175 2409 1742 
Q 1991 1309 1228 531 
z
" transform="scale(0.015625)"/>
       </defs>
       <use xlink:href="#DejaVuSans-32"/>
       <use xlink:href="#DejaVuSans-30" x="63.623047"/>
       <use xlink:href="#DejaVuSans-30" x="127.246094"/>
      </g>
     </g>
    </g>
    <g id="xtick_3">
     <g id="line2d_3">
      <g>
       <use xlink:href="#m19e411e372" x="262.789326" y="308.63625" style="stroke: #000000; stroke-width: 0.8"/>
      </g>
     </g>
     <g id="text_3">
      <!-- 400 -->
      <g transform="translate(243.701826 330.833125) scale(0.2 -0.2)">
       <defs>
        <path id="DejaVuSans-34" d="M 2419 4116 
L 825 1625 
L 2419 1625 
L 2419 4116 
z
M 2253 4666 
L 3047 4666 
L 3047 1625 
L 3713 1625 
L 3713 1100 
L 3047 1100 
L 3047 0 
L 2419 0 
L 2419 1100 
L 313 1100 
L 313 1709 
L 2253 4666 
z
" transform="scale(0.015625)"/>
       </defs>
       <use xlink:href="#DejaVuSans-34"/>
       <use xlink:href="#DejaVuSans-30" x="63.623047"/>
       <use xlink:href="#DejaVuSans-30" x="127.246094"/>
      </g>
     </g>
    </g>
    <g id="xtick_4">
     <g id="line2d_4">
      <g>
       <use xlink:href="#m19e411e372" x="335.256859" y="308.63625" style="stroke: #000000; stroke-width: 0.8"/>
      </g>
     </g>
     <g id="text_4">
      <!-- 600 -->
      <g transform="translate(316.169359 330.833125) scale(0.2 -0.2)">
       <defs>
        <path id="DejaVuSans-36" d="M 2113 2584 
Q 1688 2584 1439 2293 
Q 1191 2003 1191 1497 
Q 1191 994 1439 701 
Q 1688 409 2113 409 
Q 2538 409 2786 701 
Q 3034 994 3034 1497 
Q 3034 2003 2786 2293 
Q 2538 2584 2113 2584 
z
M 3366 4563 
L 3366 3988 
Q 3128 4100 2886 4159 
Q 2644 4219 2406 4219 
Q 1781 4219 1451 3797 
Q 1122 3375 1075 2522 
Q 1259 2794 1537 2939 
Q 1816 3084 2150 3084 
Q 2853 3084 3261 2657 
Q 3669 2231 3669 1497 
Q 3669 778 3244 343 
Q 2819 -91 2113 -91 
Q 1303 -91 875 529 
Q 447 1150 447 2328 
Q 447 3434 972 4092 
Q 1497 4750 2381 4750 
Q 2619 4750 2861 4703 
Q 3103 4656 3366 4563 
z
" transform="scale(0.015625)"/>
       </defs>
       <use xlink:href="#DejaVuSans-36"/>
       <use xlink:href="#DejaVuSans-30" x="63.623047"/>
       <use xlink:href="#DejaVuSans-30" x="127.246094"/>
      </g>
     </g>
    </g>
    <g id="xtick_5">
     <g id="line2d_5">
      <g>
       <use xlink:href="#m19e411e372" x="407.724391" y="308.63625" style="stroke: #000000; stroke-width: 0.8"/>
      </g>
     </g>
     <g id="text_5">
      <!-- 800 -->
      <g transform="translate(388.636891 330.833125) scale(0.2 -0.2)">
       <defs>
        <path id="DejaVuSans-38" d="M 2034 2216 
Q 1584 2216 1326 1975 
Q 1069 1734 1069 1313 
Q 1069 891 1326 650 
Q 1584 409 2034 409 
Q 2484 409 2743 651 
Q 3003 894 3003 1313 
Q 3003 1734 2745 1975 
Q 2488 2216 2034 2216 
z
M 1403 2484 
Q 997 2584 770 2862 
Q 544 3141 544 3541 
Q 544 4100 942 4425 
Q 1341 4750 2034 4750 
Q 2731 4750 3128 4425 
Q 3525 4100 3525 3541 
Q 3525 3141 3298 2862 
Q 3072 2584 2669 2484 
Q 3125 2378 3379 2068 
Q 3634 1759 3634 1313 
Q 3634 634 3220 271 
Q 2806 -91 2034 -91 
Q 1263 -91 848 271 
Q 434 634 434 1313 
Q 434 1759 690 2068 
Q 947 2378 1403 2484 
z
M 1172 3481 
Q 1172 3119 1398 2916 
Q 1625 2713 2034 2713 
Q 2441 2713 2670 2916 
Q 2900 3119 2900 3481 
Q 2900 3844 2670 4047 
Q 2441 4250 2034 4250 
Q 1625 4250 1398 4047 
Q 1172 3844 1172 3481 
z
" transform="scale(0.015625)"/>
       </defs>
       <use xlink:href="#DejaVuSans-38"/>
       <use xlink:href="#DejaVuSans-30" x="63.623047"/>
       <use xlink:href="#DejaVuSans-30" x="127.246094"/>
      </g>
     </g>
    </g>
    <g id="xtick_6">
     <g id="line2d_6">
      <g>
       <use xlink:href="#m19e411e372" x="480.191924" y="308.63625" style="stroke: #000000; stroke-width: 0.8"/>
      </g>
     </g>
     <g id="text_6">
      <!-- 1000 -->
      <g transform="translate(454.741924 330.833125) scale(0.2 -0.2)">
       <defs>
        <path id="DejaVuSans-31" d="M 794 531 
L 1825 531 
L 1825 4091 
L 703 3866 
L 703 4441 
L 1819 4666 
L 2450 4666 
L 2450 531 
L 3481 531 
L 3481 0 
L 794 0 
L 794 531 
z
" transform="scale(0.015625)"/>
       </defs>
       <use xlink:href="#DejaVuSans-31"/>
       <use xlink:href="#DejaVuSans-30" x="63.623047"/>
       <use xlink:href="#DejaVuSans-30" x="127.246094"/>
       <use xlink:href="#DejaVuSans-30" x="190.869141"/>
      </g>
     </g>
    </g>
    <g id="xtick_7">
     <g id="line2d_7">
      <g>
       <use xlink:href="#m19e411e372" x="552.659456" y="308.63625" style="stroke: #000000; stroke-width: 0.8"/>
      </g>
     </g>
     <g id="text_7">
      <!-- 1200 -->
      <g transform="translate(527.209456 330.833125) scale(0.2 -0.2)">
       <use xlink:href="#DejaVuSans-31"/>
       <use xlink:href="#DejaVuSans-32" x="63.623047"/>
       <use xlink:href="#DejaVuSans-30" x="127.246094"/>
       <use xlink:href="#DejaVuSans-30" x="190.869141"/>
      </g>
     </g>
    </g>
    <g id="xtick_8">
     <g id="line2d_8">
      <g>
       <use xlink:href="#m19e411e372" x="625.126989" y="308.63625" style="stroke: #000000; stroke-width: 0.8"/>
      </g>
     </g>
     <g id="text_8">
      <!-- 1400 -->
      <g transform="translate(599.676989 330.833125) scale(0.2 -0.2)">
       <use xlink:href="#DejaVuSans-31"/>
       <use xlink:href="#DejaVuSans-34" x="63.623047"/>
       <use xlink:href="#DejaVuSans-30" x="127.246094"/>
       <use xlink:href="#DejaVuSans-30" x="190.869141"/>
      </g>
     </g>
    </g>
    <g id="text_9">
     <!-- iterations -->
     <g transform="translate(324.035938 354.189375) scale(0.2 -0.2)">
      <defs>
       <path id="DejaVuSans-69" d="M 603 3500 
L 1178 3500 
L 1178 0 
L 603 0 
L 603 3500 
z
M 603 4863 
L 1178 4863 
L 1178 4134 
L 603 4134 
L 603 4863 
z
" transform="scale(0.015625)"/>
       <path id="DejaVuSans-74" d="M 1172 4494 
L 1172 3500 
L 2356 3500 
L 2356 3053 
L 1172 3053 
L 1172 1153 
Q 1172 725 1289 603 
Q 1406 481 1766 481 
L 2356 481 
L 2356 0 
L 1766 0 
Q 1100 0 847 248 
Q 594 497 594 1153 
L 594 3053 
L 172 3053 
L 172 3500 
L 594 3500 
L 594 4494 
L 1172 4494 
z
" transform="scale(0.015625)"/>
       <path id="DejaVuSans-65" d="M 3597 1894 
L 3597 1613 
L 953 1613 
Q 991 1019 1311 708 
Q 1631 397 2203 397 
Q 2534 397 2845 478 
Q 3156 559 3463 722 
L 3463 178 
Q 3153 47 2828 -22 
Q 2503 -91 2169 -91 
Q 1331 -91 842 396 
Q 353 884 353 1716 
Q 353 2575 817 3079 
Q 1281 3584 2069 3584 
Q 2775 3584 3186 3129 
Q 3597 2675 3597 1894 
z
M 3022 2063 
Q 3016 2534 2758 2815 
Q 2500 3097 2075 3097 
Q 1594 3097 1305 2825 
Q 1016 2553 972 2059 
L 3022 2063 
z
" transform="scale(0.015625)"/>
       <path id="DejaVuSans-72" d="M 2631 2963 
Q 2534 3019 2420 3045 
Q 2306 3072 2169 3072 
Q 1681 3072 1420 2755 
Q 1159 2438 1159 1844 
L 1159 0 
L 581 0 
L 581 3500 
L 1159 3500 
L 1159 2956 
Q 1341 3275 1631 3429 
Q 1922 3584 2338 3584 
Q 2397 3584 2469 3576 
Q 2541 3569 2628 3553 
L 2631 2963 
z
" transform="scale(0.015625)"/>
       <path id="DejaVuSans-61" d="M 2194 1759 
Q 1497 1759 1228 1600 
Q 959 1441 959 1056 
Q 959 750 1161 570 
Q 1363 391 1709 391 
Q 2188 391 2477 730 
Q 2766 1069 2766 1631 
L 2766 1759 
L 2194 1759 
z
M 3341 1997 
L 3341 0 
L 2766 0 
L 2766 531 
Q 2569 213 2275 61 
Q 1981 -91 1556 -91 
Q 1019 -91 701 211 
Q 384 513 384 1019 
Q 384 1609 779 1909 
Q 1175 2209 1959 2209 
L 2766 2209 
L 2766 2266 
Q 2766 2663 2505 2880 
Q 2244 3097 1772 3097 
Q 1472 3097 1187 3025 
Q 903 2953 641 2809 
L 641 3341 
Q 956 3463 1253 3523 
Q 1550 3584 1831 3584 
Q 2591 3584 2966 3190 
Q 3341 2797 3341 1997 
z
" transform="scale(0.015625)"/>
       <path id="DejaVuSans-6f" d="M 1959 3097 
Q 1497 3097 1228 2736 
Q 959 2375 959 1747 
Q 959 1119 1226 758 
Q 1494 397 1959 397 
Q 2419 397 2687 759 
Q 2956 1122 2956 1747 
Q 2956 2369 2687 2733 
Q 2419 3097 1959 3097 
z
M 1959 3584 
Q 2709 3584 3137 3096 
Q 3566 2609 3566 1747 
Q 3566 888 3137 398 
Q 2709 -91 1959 -91 
Q 1206 -91 779 398 
Q 353 888 353 1747 
Q 353 2609 779 3096 
Q 1206 3584 1959 3584 
z
" transform="scale(0.015625)"/>
       <path id="DejaVuSans-6e" d="M 3513 2113 
L 3513 0 
L 2938 0 
L 2938 2094 
Q 2938 2591 2744 2837 
Q 2550 3084 2163 3084 
Q 1697 3084 1428 2787 
Q 1159 2491 1159 1978 
L 1159 0 
L 581 0 
L 581 3500 
L 1159 3500 
L 1159 2956 
Q 1366 3272 1645 3428 
Q 1925 3584 2291 3584 
Q 2894 3584 3203 3211 
Q 3513 2838 3513 2113 
z
" transform="scale(0.015625)"/>
       <path id="DejaVuSans-73" d="M 2834 3397 
L 2834 2853 
Q 2591 2978 2328 3040 
Q 2066 3103 1784 3103 
Q 1356 3103 1142 2972 
Q 928 2841 928 2578 
Q 928 2378 1081 2264 
Q 1234 2150 1697 2047 
L 1894 2003 
Q 2506 1872 2764 1633 
Q 3022 1394 3022 966 
Q 3022 478 2636 193 
Q 2250 -91 1575 -91 
Q 1294 -91 989 -36 
Q 684 19 347 128 
L 347 722 
Q 666 556 975 473 
Q 1284 391 1588 391 
Q 1994 391 2212 530 
Q 2431 669 2431 922 
Q 2431 1156 2273 1281 
Q 2116 1406 1581 1522 
L 1381 1569 
Q 847 1681 609 1914 
Q 372 2147 372 2553 
Q 372 3047 722 3315 
Q 1072 3584 1716 3584 
Q 2034 3584 2315 3537 
Q 2597 3491 2834 3397 
z
" transform="scale(0.015625)"/>
      </defs>
      <use xlink:href="#DejaVuSans-69"/>
      <use xlink:href="#DejaVuSans-74" x="27.783203"/>
      <use xlink:href="#DejaVuSans-65" x="66.992188"/>
      <use xlink:href="#DejaVuSans-72" x="128.515625"/>
      <use xlink:href="#DejaVuSans-61" x="169.628906"/>
      <use xlink:href="#DejaVuSans-74" x="230.908203"/>
      <use xlink:href="#DejaVuSans-69" x="270.117188"/>
      <use xlink:href="#DejaVuSans-6f" x="297.900391"/>
      <use xlink:href="#DejaVuSans-6e" x="359.082031"/>
      <use xlink:href="#DejaVuSans-73" x="422.460938"/>
     </g>
    </g>
   </g>
   <g id="matplotlib.axis_2">
    <g id="ytick_1">
     <g id="line2d_9">
      <defs>
       <path id="m8b19ce2d29" d="M 0 0 
L -3.5 0 
" style="stroke: #000000; stroke-width: 0.8"/>
      </defs>
      <g>
       <use xlink:href="#m8b19ce2d29" x="92.490625" y="295.148568" style="stroke: #000000; stroke-width: 0.8"/>
      </g>
     </g>
     <g id="text_10">
      <!-- −400 -->
      <g transform="translate(30.55625 302.747005) scale(0.2 -0.2)">
       <defs>
        <path id="DejaVuSans-2212" d="M 678 2272 
L 4684 2272 
L 4684 1741 
L 678 1741 
L 678 2272 
z
" transform="scale(0.015625)"/>
       </defs>
       <use xlink:href="#DejaVuSans-2212"/>
       <use xlink:href="#DejaVuSans-34" x="83.789062"/>
       <use xlink:href="#DejaVuSans-30" x="147.412109"/>
       <use xlink:href="#DejaVuSans-30" x="211.035156"/>
      </g>
     </g>
    </g>
    <g id="ytick_2">
     <g id="line2d_10">
      <g>
       <use xlink:href="#m8b19ce2d29" x="92.490625" y="237.405832" style="stroke: #000000; stroke-width: 0.8"/>
      </g>
     </g>
     <g id="text_11">
      <!-- −200 -->
      <g transform="translate(30.55625 245.00427) scale(0.2 -0.2)">
       <use xlink:href="#DejaVuSans-2212"/>
       <use xlink:href="#DejaVuSans-32" x="83.789062"/>
       <use xlink:href="#DejaVuSans-30" x="147.412109"/>
       <use xlink:href="#DejaVuSans-30" x="211.035156"/>
      </g>
     </g>
    </g>
    <g id="ytick_3">
     <g id="line2d_11">
      <g>
       <use xlink:href="#m8b19ce2d29" x="92.490625" y="179.663097" style="stroke: #000000; stroke-width: 0.8"/>
      </g>
     </g>
     <g id="text_12">
      <!-- 0 -->
      <g transform="translate(72.765625 187.261534) scale(0.2 -0.2)">
       <use xlink:href="#DejaVuSans-30"/>
      </g>
     </g>
    </g>
    <g id="ytick_4">
     <g id="line2d_12">
      <g>
       <use xlink:href="#m8b19ce2d29" x="92.490625" y="121.920361" style="stroke: #000000; stroke-width: 0.8"/>
      </g>
     </g>
     <g id="text_13">
      <!-- 200 -->
      <g transform="translate(47.315625 129.518799) scale(0.2 -0.2)">
       <use xlink:href="#DejaVuSans-32"/>
       <use xlink:href="#DejaVuSans-30" x="63.623047"/>
       <use xlink:href="#DejaVuSans-30" x="127.246094"/>
      </g>
     </g>
    </g>
    <g id="ytick_5">
     <g id="line2d_13">
      <g>
       <use xlink:href="#m8b19ce2d29" x="92.490625" y="64.177625" style="stroke: #000000; stroke-width: 0.8"/>
      </g>
     </g>
     <g id="text_14">
      <!-- 400 -->
      <g transform="translate(47.315625 71.776063) scale(0.2 -0.2)">
       <use xlink:href="#DejaVuSans-34"/>
       <use xlink:href="#DejaVuSans-30" x="63.623047"/>
       <use xlink:href="#DejaVuSans-30" x="127.246094"/>
      </g>
     </g>
    </g>
    <g id="text_15">
     <!-- Loss -->
     <g transform="translate(22.396875 191.970625) rotate(-90) scale(0.2 -0.2)">
      <defs>
       <path id="DejaVuSans-4c" d="M 628 4666 
L 1259 4666 
L 1259 531 
L 3531 531 
L 3531 0 
L 628 0 
L 628 4666 
z
" transform="scale(0.015625)"/>
      </defs>
      <use xlink:href="#DejaVuSans-4c"/>
      <use xlink:href="#DejaVuSans-6f" x="53.962891"/>
      <use xlink:href="#DejaVuSans-73" x="115.144531"/>
      <use xlink:href="#DejaVuSans-73" x="167.244141"/>
     </g>
    </g>
   </g>
   <g id="line2d_14">
    <path d="M 117.854261 139.751496 
L 118.216599 144.722794 
L 118.578937 162.598831 
L 119.303612 44.03625 
L 119.66595 89.448318 
L 120.028287 77.551362 
L 120.752963 106.365093 
L 121.1153 109.725828 
L 121.477638 120.640356 
L 121.839976 119.204262 
L 122.202313 119.595028 
L 122.564651 123.111252 
L 122.926989 128.275629 
L 123.289326 126.631141 
L 123.651664 125.789985 
L 124.376339 114.95142 
L 124.738677 111.128382 
L 125.101015 114.143471 
L 125.82569 125.682262 
L 126.188028 126.858032 
L 126.550365 129.516622 
L 127.275041 144.970436 
L 127.637378 142.237891 
L 127.999716 146.018436 
L 128.362054 148.27681 
L 128.724391 152.985986 
L 129.086729 146.939282 
L 129.449067 145.550269 
L 129.811404 146.154845 
L 130.173742 143.578088 
L 130.53608 142.120697 
L 130.898417 138.82778 
L 131.260755 137.32097 
L 131.623093 140.170434 
L 131.98543 149.749148 
L 132.347768 145.161919 
L 132.710106 144.809135 
L 133.072443 141.918695 
L 133.434781 142.056481 
L 133.797119 142.689369 
L 134.521794 144.888742 
L 134.884131 147.579569 
L 135.246469 144.557811 
L 135.608807 146.19867 
L 135.971144 147.266567 
L 136.333482 141.963787 
L 136.69582 146.561523 
L 137.058157 145.704415 
L 137.420495 146.942807 
L 137.782833 146.571102 
L 138.507508 151.018944 
L 138.869846 149.433482 
L 139.232183 151.088431 
L 139.594521 151.882622 
L 139.956859 152.057159 
L 140.319196 155.39376 
L 140.681534 154.443253 
L 141.043872 155.064561 
L 141.406209 157.186868 
L 141.768547 157.456633 
L 142.130885 157.874685 
L 142.493222 161.618246 
L 142.85556 159.61991 
L 143.217898 160.24721 
L 143.580235 159.359568 
L 143.942573 159.626263 
L 144.304911 162.870984 
L 144.667248 162.820485 
L 145.029586 164.349312 
L 145.391924 160.682349 
L 145.754261 164.299326 
L 146.116599 159.838717 
L 146.478937 160.412177 
L 146.841274 159.96084 
L 147.203612 162.549048 
L 147.56595 159.617214 
L 147.928287 162.521514 
L 148.652963 164.689134 
L 149.0153 166.947126 
L 149.377638 167.327422 
L 149.739976 166.729629 
L 150.102313 167.759036 
L 150.464651 165.917583 
L 150.826989 169.659523 
L 151.189326 169.737889 
L 151.551664 170.755676 
L 151.914002 167.899051 
L 152.276339 169.586443 
L 153.001015 170.564861 
L 153.363352 169.882117 
L 153.72569 172.760942 
L 154.088028 170.967299 
L 154.450365 170.438895 
L 154.812703 170.860476 
L 155.175041 172.297656 
L 155.537378 171.898915 
L 155.899716 172.457074 
L 156.262054 171.412696 
L 156.624391 172.181458 
L 157.349067 169.350699 
L 157.711404 171.819749 
L 158.073742 170.702797 
L 158.43608 170.386568 
L 158.798417 171.764484 
L 159.160755 170.363681 
L 159.523093 170.943923 
L 159.88543 171.742956 
L 160.247768 173.321088 
L 160.610106 173.543595 
L 160.972443 173.401278 
L 161.334781 172.410984 
L 161.697119 172.754716 
L 162.059456 172.896141 
L 162.421794 172.496494 
L 162.784131 172.807733 
L 163.146469 172.372041 
L 163.508807 171.548362 
L 163.871144 172.908841 
L 164.59582 173.751662 
L 164.958157 173.680925 
L 165.320495 174.136271 
L 165.682833 173.041145 
L 166.04517 174.437231 
L 166.407508 172.369407 
L 166.769846 174.972957 
L 167.132183 174.250099 
L 167.494521 175.539665 
L 167.856859 174.034876 
L 168.219196 173.63476 
L 168.581534 174.998044 
L 169.306209 173.713275 
L 169.668547 173.768643 
L 170.030885 174.192507 
L 170.393222 175.217428 
L 170.75556 174.549207 
L 171.117898 175.102351 
L 171.480235 173.000769 
L 171.842573 173.396092 
L 172.567248 172.24628 
L 172.929586 173.830064 
L 173.291924 172.971341 
L 173.654261 175.344392 
L 174.016599 176.316089 
L 174.741274 174.720648 
L 175.103612 175.750386 
L 175.46595 175.270053 
L 175.828287 175.659534 
L 176.190625 175.802949 
L 176.552963 176.777934 
L 176.9153 176.066467 
L 177.277638 174.60952 
L 177.639976 175.701538 
L 178.002313 177.18643 
L 178.364651 177.146097 
L 179.089326 176.671732 
L 179.814002 178.826261 
L 180.176339 178.840463 
L 180.538677 178.124467 
L 180.901015 178.644971 
L 181.263352 177.639782 
L 181.62569 178.637141 
L 181.988028 178.333677 
L 182.350365 178.623996 
L 182.712703 178.507095 
L 183.075041 178.055754 
L 183.437378 178.154192 
L 183.799716 177.461703 
L 184.524391 178.66269 
L 184.886729 178.675581 
L 185.249067 178.230668 
L 185.611404 178.09883 
L 185.973742 178.652588 
L 186.33608 177.930105 
L 187.423093 179.523749 
L 187.78543 178.940492 
L 188.147768 180.274731 
L 188.510106 179.956917 
L 188.872443 179.352725 
L 189.234781 180.378575 
L 189.597119 179.36548 
L 189.959456 179.641085 
L 190.321794 178.456831 
L 191.408807 179.82643 
L 191.771144 180.00236 
L 192.133482 180.935344 
L 192.49582 180.224525 
L 192.858157 180.851568 
L 193.220495 179.961341 
L 193.582833 180.187773 
L 193.94517 180.141461 
L 194.307508 181.494606 
L 194.669846 179.749474 
L 195.032183 181.661703 
L 195.394521 180.841325 
L 195.756859 181.108068 
L 196.119196 180.436024 
L 196.843872 182.051575 
L 197.206209 181.42228 
L 197.568547 181.417484 
L 197.930885 181.192607 
L 198.293222 181.70878 
L 199.017898 183.370872 
L 199.380235 182.602122 
L 199.742573 181.152498 
L 200.104911 182.618152 
L 200.467248 182.96134 
L 200.829586 182.33576 
L 201.191924 182.827178 
L 201.554261 182.95431 
L 201.916599 182.864038 
L 202.278937 182.510754 
L 202.641274 183.230302 
L 203.003612 182.899408 
L 203.36595 183.054188 
L 204.090625 183.659796 
L 204.8153 182.987873 
L 205.177638 183.77546 
L 205.539976 182.660957 
L 205.902313 183.157786 
L 206.264651 182.728784 
L 206.626989 183.01416 
L 206.989326 183.988878 
L 207.351664 184.529058 
L 207.714002 184.064193 
L 208.076339 184.222385 
L 208.438677 183.845806 
L 209.163352 183.780493 
L 209.888028 183.786981 
L 210.612703 183.979283 
L 210.975041 184.288766 
L 211.337378 184.176505 
L 212.062054 184.239144 
L 212.424391 184.552823 
L 213.149067 184.184467 
L 213.511404 184.679586 
L 213.873742 184.656079 
L 214.23608 184.883799 
L 214.598417 184.518958 
L 214.960755 184.613429 
L 215.68543 184.125656 
L 216.047768 184.52696 
L 216.410106 184.677067 
L 216.772443 184.492818 
L 217.134781 184.456798 
L 217.497119 185.084062 
L 217.859456 184.766681 
L 218.221794 184.134889 
L 218.584131 184.583512 
L 218.946469 184.059195 
L 219.308807 184.615016 
L 219.671144 184.953905 
L 220.033482 184.443376 
L 220.39582 183.458362 
L 221.120495 184.344202 
L 221.482833 183.849578 
L 221.84517 184.253663 
L 222.207508 184.82729 
L 222.569846 184.469422 
L 222.932183 185.046916 
L 223.294521 184.443785 
L 223.656859 184.476484 
L 224.019196 184.368245 
L 224.381534 183.937993 
L 225.106209 184.013952 
L 225.468547 184.777115 
L 225.830885 184.99747 
L 226.193222 183.772517 
L 226.55556 184.035706 
L 226.917898 184.102105 
L 227.280235 184.288311 
L 227.642573 184.173766 
L 228.004911 184.293227 
L 228.367248 184.00341 
L 228.729586 184.199036 
L 229.454261 184.092655 
L 229.816599 184.455043 
L 230.541274 184.287347 
L 230.903612 184.290951 
L 231.26595 183.727209 
L 231.990625 184.605861 
L 232.7153 184.274913 
L 233.077638 184.874952 
L 233.439976 184.9632 
L 233.802313 185.316616 
L 234.164651 185.323023 
L 234.526989 184.748002 
L 234.889326 184.519384 
L 235.251664 184.862935 
L 235.614002 184.523637 
L 236.338677 184.617477 
L 236.701015 184.415773 
L 237.063352 184.568713 
L 237.788028 183.720718 
L 238.150365 183.962436 
L 238.512703 183.809039 
L 238.875041 184.237151 
L 239.237378 184.03921 
L 239.599716 184.086871 
L 239.962054 184.247767 
L 241.411404 184.360026 
L 241.773742 184.510466 
L 242.13608 184.111391 
L 242.860755 184.1085 
L 243.223093 183.809955 
L 243.58543 184.328808 
L 243.947768 183.780577 
L 244.310106 184.626633 
L 244.672443 183.751032 
L 245.034781 183.766926 
L 245.397119 184.064515 
L 246.121794 184.284459 
L 246.484131 184.067987 
L 246.846469 184.061054 
L 247.208807 183.094892 
L 247.933482 183.743901 
L 248.29582 184.677753 
L 249.020495 183.939998 
L 249.382833 184.251046 
L 249.74517 184.200395 
L 250.107508 183.966637 
L 251.194521 184.067416 
L 251.556859 183.732881 
L 251.919196 184.6301 
L 252.281534 184.169221 
L 252.643872 183.967957 
L 253.006209 184.074859 
L 253.368547 183.424278 
L 253.730885 184.070452 
L 255.904911 183.61208 
L 256.267248 183.740517 
L 256.629586 184.238776 
L 256.991924 183.488428 
L 257.716599 183.851165 
L 258.441274 183.710228 
L 258.803612 183.838051 
L 259.890625 183.82598 
L 260.6153 183.289922 
L 260.977638 183.561546 
L 261.339976 183.463037 
L 261.702313 183.594836 
L 262.064651 183.446234 
L 262.426989 183.573195 
L 262.789326 183.125697 
L 263.151664 183.257786 
L 263.514002 183.147491 
L 263.876339 182.907027 
L 264.238677 183.072826 
L 264.601015 183.771144 
L 264.963352 183.213293 
L 265.32569 182.883006 
L 265.688028 183.23388 
L 266.050365 183.288898 
L 266.412703 183.483698 
L 266.775041 183.068249 
L 267.499716 183.287115 
L 267.862054 183.159291 
L 268.224391 183.559667 
L 268.586729 183.361178 
L 268.949067 183.401738 
L 269.311404 183.750652 
L 269.673742 183.301438 
L 270.03608 183.920194 
L 270.760755 183.373584 
L 271.123093 183.171462 
L 271.48543 183.961579 
L 271.847768 184.187983 
L 272.210106 184.128509 
L 272.572443 183.744035 
L 272.934781 184.037423 
L 273.297119 183.771991 
L 273.659456 184.014808 
L 274.384131 183.771839 
L 275.108807 183.874599 
L 275.471144 184.11918 
L 275.833482 184.044082 
L 276.19582 183.77541 
L 276.558157 183.297732 
L 276.920495 183.237449 
L 277.282833 183.889617 
L 278.007508 183.403603 
L 278.369846 183.638456 
L 278.732183 183.237933 
L 279.094521 183.478615 
L 279.819196 183.355926 
L 280.181534 183.629338 
L 280.543872 183.641067 
L 280.906209 183.380171 
L 281.268547 183.35723 
L 281.630885 183.559473 
L 281.993222 183.546734 
L 282.717898 184.281031 
L 283.442573 184.485685 
L 283.804911 183.961286 
L 284.167248 184.134919 
L 284.529586 183.670988 
L 284.891924 183.955958 
L 285.254261 183.86234 
L 285.616599 183.350208 
L 285.978937 184.152244 
L 286.341274 183.509946 
L 286.703612 183.848731 
L 288.5153 184.314536 
L 288.877638 183.967137 
L 289.602313 184.477344 
L 289.964651 184.298746 
L 290.326989 183.977648 
L 290.689326 184.087434 
L 291.051664 184.402455 
L 291.776339 184.508636 
L 292.138677 183.924588 
L 292.863352 184.370312 
L 293.22569 184.261772 
L 293.588028 184.387189 
L 293.950365 184.22331 
L 294.312703 184.502419 
L 294.675041 184.57622 
L 295.037378 184.528911 
L 295.399716 184.61146 
L 296.486729 184.47329 
L 297.211404 184.449592 
L 297.93608 184.542384 
L 298.298417 184.103415 
L 298.660755 183.93274 
L 299.023093 184.643783 
L 299.38543 184.946179 
L 299.747768 184.625262 
L 300.110106 184.744458 
L 300.472443 184.123365 
L 300.834781 184.379415 
L 301.197119 184.333722 
L 301.559456 183.967268 
L 303.008807 183.902133 
L 303.371144 183.658483 
L 303.733482 184.056607 
L 304.458157 184.025916 
L 304.820495 183.864077 
L 305.182833 184.022285 
L 305.54517 184.414301 
L 305.907508 184.354348 
L 306.269846 184.134181 
L 306.994521 184.180303 
L 307.719196 183.895296 
L 308.081534 184.035501 
L 308.443872 183.811048 
L 308.806209 184.344264 
L 309.168547 183.948619 
L 309.530885 183.94321 
L 309.893222 183.649513 
L 310.25556 183.551772 
L 311.342573 184.018637 
L 311.704911 183.87005 
L 312.067248 183.563759 
L 312.429586 183.636485 
L 312.791924 183.828049 
L 313.154261 184.158674 
L 313.516599 183.668407 
L 313.878937 183.609338 
L 314.241274 183.336489 
L 314.603612 183.443337 
L 315.328287 183.992413 
L 315.690625 183.9525 
L 316.052963 183.591024 
L 316.4153 183.866701 
L 316.777638 183.821246 
L 317.139976 183.532774 
L 317.502313 183.614149 
L 318.226989 183.406414 
L 318.589326 183.598981 
L 318.951664 183.11501 
L 320.038677 183.699908 
L 321.12569 183.256929 
L 321.488028 183.53883 
L 321.850365 183.211051 
L 322.212703 183.496829 
L 322.575041 183.146545 
L 322.937378 183.510771 
L 323.299716 183.53694 
L 323.662054 183.138242 
L 324.024391 182.937259 
L 324.749067 183.56218 
L 325.111404 183.294892 
L 325.83608 183.236702 
L 326.198417 183.185423 
L 326.923093 183.572691 
L 327.647768 183.287384 
L 328.372443 183.374488 
L 328.734781 182.964802 
L 329.097119 183.324472 
L 330.184131 183.179447 
L 330.908807 182.909484 
L 331.271144 183.053275 
L 332.358157 182.703301 
L 332.720495 182.928952 
L 333.082833 182.642331 
L 333.44517 183.217741 
L 333.807508 182.641699 
L 334.169846 182.342965 
L 335.619196 182.654454 
L 336.343872 182.04344 
L 337.068547 182.575247 
L 337.793222 182.170588 
L 338.15556 182.086222 
L 338.517898 182.501844 
L 339.604911 182.10379 
L 340.329586 181.997351 
L 340.691924 181.859451 
L 341.054261 182.134081 
L 341.416599 181.989034 
L 342.503612 182.131205 
L 342.86595 181.99641 
L 343.228287 182.274329 
L 343.590625 182.348797 
L 343.952963 182.062362 
L 344.3153 182.172839 
L 344.677638 181.898594 
L 345.039976 182.152763 
L 345.402313 182.165862 
L 345.764651 182.051092 
L 346.126989 182.185709 
L 346.489326 182.104618 
L 346.851664 182.26453 
L 347.214002 182.081845 
L 347.938677 182.247898 
L 348.301015 181.880172 
L 348.663352 182.457096 
L 349.750365 182.123083 
L 350.112703 182.252178 
L 350.475041 181.974846 
L 350.837378 181.92908 
L 351.562054 182.289681 
L 351.924391 182.285905 
L 352.649067 181.982313 
L 353.011404 182.177789 
L 353.373742 181.717284 
L 353.73608 182.115084 
L 354.098417 181.991587 
L 355.18543 182.021724 
L 355.910106 181.672198 
L 356.272443 182.019801 
L 356.634781 181.900228 
L 356.997119 181.976095 
L 357.359456 181.715399 
L 358.084131 181.798032 
L 358.446469 181.819888 
L 358.808807 182.410156 
L 359.171144 182.356757 
L 359.533482 181.928667 
L 360.258157 182.085625 
L 360.620495 181.855502 
L 361.707508 182.06467 
L 362.069846 182.173658 
L 362.432183 181.477344 
L 362.794521 181.563387 
L 363.519196 181.991482 
L 363.881534 181.61934 
L 364.243872 181.66816 
L 364.606209 181.947722 
L 364.968547 181.55457 
L 365.693222 181.537416 
L 366.05556 181.455061 
L 366.417898 181.694866 
L 367.142573 181.499582 
L 367.504911 181.899471 
L 368.229586 181.673316 
L 369.316599 181.880001 
L 369.678937 181.918744 
L 370.041274 181.617495 
L 370.403612 181.882768 
L 372.2153 181.82529 
L 372.577638 182.057315 
L 372.939976 181.858086 
L 373.302313 182.088927 
L 374.026989 181.821125 
L 374.751664 182.074436 
L 375.114002 181.714748 
L 375.476339 181.911808 
L 376.201015 181.892884 
L 376.92569 181.914714 
L 377.288028 182.182074 
L 378.012703 182.094069 
L 378.375041 181.837987 
L 378.737378 182.179586 
L 379.099716 182.106454 
L 379.462054 181.874803 
L 379.824391 182.114865 
L 380.186729 182.202642 
L 380.911404 181.849286 
L 381.63608 181.730861 
L 381.998417 181.946451 
L 382.360755 181.832808 
L 382.723093 181.873687 
L 383.08543 181.671185 
L 383.447768 182.115224 
L 383.810106 181.895581 
L 384.172443 181.819581 
L 384.534781 181.896013 
L 385.621794 181.633087 
L 385.984131 181.837148 
L 386.708807 181.605606 
L 387.79582 181.807993 
L 388.158157 181.75169 
L 388.520495 182.010497 
L 388.882833 181.767403 
L 389.24517 181.929536 
L 389.607508 181.713882 
L 389.969846 181.910084 
L 390.332183 181.715839 
L 390.694521 181.752078 
L 391.056859 181.65318 
L 391.419196 182.018652 
L 391.781534 181.700738 
L 392.506209 182.011431 
L 392.868547 181.88846 
L 393.230885 182.119584 
L 393.593222 181.820852 
L 393.95556 181.794943 
L 394.317898 181.933428 
L 394.680235 181.904922 
L 395.042573 182.315877 
L 395.404911 182.176393 
L 395.767248 181.857772 
L 396.129586 181.741719 
L 396.491924 181.970247 
L 397.578937 181.764419 
L 397.941274 181.566946 
L 398.303612 181.948751 
L 399.028287 181.941357 
L 399.390625 181.635605 
L 399.752963 181.647958 
L 400.477638 181.984615 
L 400.839976 181.775092 
L 401.202313 181.958755 
L 401.564651 181.860021 
L 402.289326 181.968245 
L 403.014002 181.940155 
L 403.376339 182.079896 
L 403.738677 181.972468 
L 404.101015 181.635019 
L 404.463352 181.556081 
L 404.82569 182.018883 
L 405.550365 181.70419 
L 406.275041 181.908331 
L 406.637378 181.801337 
L 406.999716 182.096227 
L 407.362054 182.214674 
L 408.086729 182.045872 
L 408.449067 181.844999 
L 408.811404 182.168191 
L 409.53608 182.260202 
L 409.898417 182.578369 
L 410.260755 182.133033 
L 410.623093 182.356243 
L 410.98543 182.325819 
L 411.347768 182.539144 
L 412.434781 182.338434 
L 413.159456 182.612346 
L 413.521794 182.326725 
L 413.884131 182.233393 
L 414.246469 182.260451 
L 414.608807 181.823559 
L 415.333482 182.496897 
L 415.69582 182.381429 
L 416.058157 182.386388 
L 416.782833 182.018036 
L 417.507508 182.035199 
L 418.594521 182.719011 
L 418.956859 181.980023 
L 419.319196 182.126992 
L 419.681534 182.079339 
L 420.043872 182.281469 
L 420.406209 182.152763 
L 421.130885 182.425524 
L 421.493222 182.648119 
L 421.85556 182.343108 
L 422.217898 182.472849 
L 422.580235 182.278617 
L 422.942573 182.420449 
L 423.304911 182.187931 
L 424.029586 182.345065 
L 424.391924 182.225108 
L 424.754261 182.342791 
L 425.116599 182.20205 
L 425.478937 182.310865 
L 425.841274 182.262567 
L 426.203612 182.422297 
L 426.56595 182.238311 
L 426.928287 182.227703 
L 427.290625 182.734405 
L 427.652963 182.64305 
L 428.377638 182.269725 
L 428.739976 182.604648 
L 429.826989 182.665619 
L 430.189326 182.409528 
L 430.551664 182.314671 
L 430.914002 182.61643 
L 431.638677 182.756263 
L 432.363352 181.713727 
L 433.088028 182.09574 
L 433.450365 181.860879 
L 433.812703 182.235108 
L 434.175041 182.417097 
L 434.537378 182.094524 
L 434.899716 182.088403 
L 435.262054 180.75613 
L 435.624391 181.36807 
L 435.986729 181.044722 
L 436.349067 181.499861 
L 436.711404 181.216758 
L 437.43608 181.557919 
L 437.798417 182.067005 
L 438.160755 181.154298 
L 438.523093 181.581426 
L 438.88543 181.72072 
L 439.247768 181.993008 
L 439.610106 181.445361 
L 439.972443 181.992719 
L 440.334781 181.221768 
L 440.697119 182.055756 
L 441.421794 181.703545 
L 441.784131 182.17739 
L 442.146469 181.86346 
L 442.508807 181.709557 
L 442.871144 181.286916 
L 443.233482 181.642467 
L 443.958157 181.366215 
L 444.682833 182.14388 
L 445.04517 180.702184 
L 445.407508 181.131757 
L 445.769846 181.293721 
L 446.132183 180.934853 
L 446.494521 181.029025 
L 446.856859 181.84112 
L 447.219196 181.075245 
L 447.581534 181.645691 
L 448.668547 181.209068 
L 449.030885 181.697049 
L 449.393222 181.304358 
L 449.75556 181.800731 
L 450.117898 181.822994 
L 450.480235 181.207423 
L 450.842573 181.309172 
L 451.204911 181.225346 
L 451.567248 181.636205 
L 451.929586 181.361757 
L 452.291924 181.749318 
L 452.654261 181.579193 
L 453.741274 181.553703 
L 454.103612 181.266989 
L 454.46595 181.62811 
L 454.828287 181.508618 
L 455.190625 181.681638 
L 455.9153 181.757448 
L 456.277638 181.843494 
L 456.639976 181.274246 
L 457.002313 181.889342 
L 457.364651 181.378323 
L 457.726989 181.883192 
L 458.451664 181.864901 
L 458.814002 181.842312 
L 459.538677 181.452042 
L 459.901015 181.670057 
L 460.263352 181.718032 
L 460.988028 181.548898 
L 461.350365 180.753878 
L 461.712703 181.241443 
L 462.075041 181.482671 
L 462.799716 181.486929 
L 463.162054 181.536142 
L 463.524391 181.760343 
L 463.886729 181.297336 
L 464.249067 181.610279 
L 464.611404 181.469966 
L 466.78543 181.843426 
L 467.147768 181.458134 
L 467.510106 181.873508 
L 467.872443 182.026648 
L 468.234781 181.781158 
L 468.597119 181.671739 
L 468.959456 181.914428 
L 469.321794 181.650586 
L 469.684131 182.178105 
L 470.408807 181.441076 
L 470.771144 181.833657 
L 471.133482 181.172624 
L 471.49582 181.295659 
L 471.858157 181.926367 
L 472.582833 181.327458 
L 472.94517 181.305159 
L 473.307508 181.417141 
L 474.032183 181.903998 
L 474.394521 181.697418 
L 474.756859 181.785847 
L 475.119196 181.507624 
L 475.481534 181.664356 
L 475.843872 182.113188 
L 476.206209 181.599762 
L 476.568547 181.815893 
L 476.930885 181.438996 
L 477.293222 181.888527 
L 477.65556 181.849666 
L 478.742573 181.297826 
L 479.104911 181.897426 
L 479.467248 181.899791 
L 479.829586 181.477058 
L 480.191924 181.658385 
L 481.278937 181.86535 
L 482.003612 181.32762 
L 482.36595 181.460468 
L 482.728287 181.807242 
L 483.8153 182.052626 
L 484.177638 182.018695 
L 484.539976 181.868872 
L 484.902313 182.063088 
L 485.264651 181.921009 
L 485.626989 181.391191 
L 485.989326 181.494604 
L 486.351664 181.401483 
L 486.714002 181.834328 
L 487.438677 181.707132 
L 488.163352 181.743471 
L 488.52569 181.415848 
L 488.888028 181.810782 
L 489.250365 181.884912 
L 489.975041 181.248831 
L 490.699716 181.488627 
L 491.062054 181.52042 
L 491.424391 181.254669 
L 491.786729 181.528004 
L 492.149067 181.443039 
L 492.511404 181.840267 
L 492.873742 181.845332 
L 493.23608 181.490288 
L 493.598417 181.654259 
L 493.960755 181.411453 
L 494.323093 181.533898 
L 494.68543 181.976768 
L 495.047768 181.514771 
L 495.410106 181.592697 
L 495.772443 181.438598 
L 496.134781 181.666391 
L 496.859456 181.912763 
L 497.584131 181.736755 
L 497.946469 181.807545 
L 498.308807 181.690725 
L 498.671144 181.911436 
L 499.033482 181.806047 
L 499.39582 181.938551 
L 499.758157 181.494397 
L 500.120495 181.592661 
L 500.482833 181.022009 
L 501.207508 181.577588 
L 501.569846 181.430094 
L 501.932183 181.692156 
L 502.294521 181.229433 
L 502.656859 181.530109 
L 503.019196 181.510832 
L 503.381534 181.647804 
L 503.743872 181.451512 
L 504.106209 180.858173 
L 504.468547 181.29498 
L 504.830885 181.225573 
L 505.193222 181.498542 
L 505.55556 181.578933 
L 505.917898 181.189674 
L 506.280235 181.42433 
L 506.642573 181.838708 
L 507.004911 181.634412 
L 507.367248 181.901887 
L 508.454261 181.437522 
L 508.816599 181.875266 
L 509.541274 181.463414 
L 509.903612 181.273501 
L 510.26595 181.464215 
L 510.628287 181.869559 
L 510.990625 181.514982 
L 511.7153 181.477865 
L 512.077638 181.211469 
L 512.439976 181.090554 
L 512.802313 181.125148 
L 513.164651 181.333768 
L 513.889326 181.180575 
L 514.251664 181.437622 
L 514.614002 181.415829 
L 514.976339 181.034219 
L 515.338677 181.513499 
L 515.701015 181.271683 
L 516.063352 181.677524 
L 516.788028 181.310056 
L 517.150365 181.148625 
L 517.875041 181.032935 
L 518.237378 181.407717 
L 518.599716 181.252521 
L 519.324391 181.229856 
L 519.686729 181.002191 
L 520.049067 181.370231 
L 520.411404 181.176056 
L 520.773742 181.122167 
L 521.860755 181.285982 
L 522.223093 181.32131 
L 522.58543 181.529299 
L 522.947768 181.160873 
L 523.310106 181.306721 
L 523.672443 180.989817 
L 524.034781 181.390401 
L 524.397119 180.95902 
L 524.759456 180.897879 
L 525.846469 181.315517 
L 526.571144 181.166751 
L 527.29582 181.542666 
L 527.658157 181.495931 
L 528.020495 181.634351 
L 528.382833 181.352787 
L 529.107508 181.146566 
L 529.469846 181.565958 
L 529.832183 181.406342 
L 530.194521 181.402117 
L 530.556859 181.216916 
L 530.919196 180.879316 
L 531.281534 181.289625 
L 531.643872 181.456855 
L 532.006209 181.440792 
L 532.368547 181.63946 
L 532.730885 181.209183 
L 533.093222 181.133027 
L 533.817898 181.432904 
L 534.180235 181.23675 
L 534.542573 181.291353 
L 535.991924 181.133215 
L 536.354261 181.197257 
L 536.716599 181.460739 
L 537.078937 181.349707 
L 537.441274 180.776414 
L 537.803612 181.074406 
L 538.16595 181.172411 
L 538.890625 181.089392 
L 539.252963 181.399396 
L 539.6153 181.17251 
L 540.339976 181.313571 
L 540.702313 181.246441 
L 541.064651 181.419497 
L 541.426989 181.332542 
L 541.789326 181.596243 
L 542.151664 181.579064 
L 542.514002 181.222241 
L 543.238677 181.406437 
L 543.601015 181.898546 
L 543.963352 181.861239 
L 544.32569 181.960052 
L 544.688028 181.60881 
L 545.050365 181.41851 
L 545.412703 181.605858 
L 545.775041 181.627459 
L 546.137378 181.172936 
L 546.499716 180.900183 
L 546.862054 181.557718 
L 547.224391 181.674811 
L 548.311404 181.296289 
L 548.673742 181.366604 
L 549.398417 180.99909 
L 549.760755 181.4416 
L 550.123093 181.395215 
L 550.48543 181.486239 
L 551.572443 180.985482 
L 551.934781 181.480009 
L 552.297119 181.756134 
L 552.659456 181.425716 
L 553.384131 181.771701 
L 553.746469 181.497585 
L 554.108807 181.737434 
L 554.471144 181.715865 
L 554.833482 181.075738 
L 555.19582 181.615182 
L 555.558157 181.687665 
L 555.920495 181.195419 
L 556.282833 180.966697 
L 556.64517 181.318864 
L 557.007508 181.004544 
L 557.369846 181.139349 
L 558.094521 181.549465 
L 558.456859 181.008634 
L 559.181534 181.458139 
L 559.543872 181.74093 
L 559.906209 181.57486 
L 560.268547 181.196054 
L 560.993222 181.386718 
L 561.35556 181.194902 
L 562.080235 181.45957 
L 562.804911 181.235023 
L 563.167248 181.254574 
L 563.529586 181.605993 
L 563.891924 181.195828 
L 564.254261 181.692224 
L 564.978937 181.309798 
L 565.703612 181.421142 
L 566.06595 181.698777 
L 566.428287 181.042027 
L 567.5153 181.445471 
L 567.877638 181.31081 
L 568.239976 181.327594 
L 568.602313 181.11666 
L 568.964651 181.162544 
L 569.326989 181.388371 
L 569.689326 180.929671 
L 570.414002 180.956782 
L 570.776339 181.107553 
L 571.138677 180.957793 
L 571.501015 180.969267 
L 571.863352 181.129155 
L 572.22569 181.00983 
L 572.588028 181.196754 
L 572.950365 181.021908 
L 573.312703 181.102313 
L 573.675041 180.948431 
L 574.037378 181.297166 
L 574.399716 181.165441 
L 575.124391 181.379923 
L 575.486729 181.24827 
L 575.849067 181.245206 
L 576.211404 181.014085 
L 576.573742 181.268584 
L 577.298417 181.067971 
L 577.660755 181.133632 
L 578.38543 180.966421 
L 578.747768 181.198961 
L 579.110106 181.276763 
L 579.472443 180.771982 
L 580.921794 181.271907 
L 581.646469 181.630018 
L 582.008807 181.248319 
L 582.371144 181.327156 
L 582.733482 181.039197 
L 583.820495 180.947379 
L 584.182833 181.121538 
L 584.54517 180.708901 
L 585.269846 180.584239 
L 585.632183 180.833558 
L 585.994521 181.293264 
L 586.356859 181.405414 
L 586.719196 180.896941 
L 587.081534 181.035514 
L 588.168547 180.936077 
L 588.893222 181.148888 
L 589.25556 180.999466 
L 589.980235 181.283075 
L 590.704911 181.158665 
L 591.067248 180.980033 
L 591.429586 181.131137 
L 591.791924 181.11259 
L 592.154261 181.258273 
L 592.878937 181.027846 
L 593.241274 181.153425 
L 593.96595 180.970333 
L 594.690625 180.963251 
L 595.4153 181.057717 
L 596.139976 180.92849 
L 596.864651 181.128635 
L 597.589326 180.888857 
L 598.314002 181.018296 
L 598.676339 180.95006 
L 599.038677 181.00235 
L 599.401015 180.809315 
L 600.488028 181.626655 
L 600.850365 181.329525 
L 601.212703 181.442471 
L 601.575041 181.13052 
L 601.937378 181.399724 
L 602.299716 181.126611 
L 602.662054 181.144814 
L 603.386729 180.633508 
L 603.749067 180.790328 
L 604.111404 180.786827 
L 604.473742 180.958344 
L 604.83608 180.626251 
L 605.198417 180.840996 
L 606.28543 180.887006 
L 606.647768 181.184334 
L 607.010106 181.170837 
L 607.372443 181.397779 
L 608.459456 181.4434 
L 608.821794 180.909454 
L 609.184131 180.912085 
L 609.908807 181.288611 
L 610.99582 180.91234 
L 611.358157 181.251044 
L 611.720495 181.219561 
L 612.082833 180.908751 
L 613.532183 181.323486 
L 613.894521 181.04596 
L 614.256859 181.106774 
L 614.619196 180.716366 
L 615.343872 181.689367 
L 615.706209 181.369765 
L 616.068547 181.469591 
L 616.430885 181.425079 
L 616.793222 181.591382 
L 617.15556 181.520574 
L 617.517898 180.96498 
L 618.242573 181.444721 
L 618.604911 181.414505 
L 618.967248 180.965178 
L 619.329586 181.091142 
L 619.691924 180.600008 
L 620.054261 178.195744 
L 620.416599 180.335918 
L 620.778937 181.304346 
L 621.141274 180.632877 
L 621.503612 180.689646 
L 622.228287 181.17833 
L 622.952963 180.614472 
L 623.3153 180.603363 
L 624.039976 181.402396 
L 624.402313 181.299704 
L 625.126989 180.866899 
L 625.126989 180.866899 
" clip-path="url(#pccf3c90b9a)" style="fill: none; stroke: #1f77b4; stroke-width: 1.5; stroke-linecap: square"/>
   </g>
   <g id="line2d_15">
    <path d="M 117.854261 296.03625 
L 118.216599 281.604935 
L 118.578937 284.937888 
L 118.941274 246.001987 
L 119.303612 270.950308 
L 119.66595 246.561247 
L 120.390625 226.968639 
L 120.752963 210.778769 
L 121.1153 215.903882 
L 121.477638 216.941819 
L 122.564651 206.772593 
L 122.926989 203.915034 
L 123.289326 202.60435 
L 124.014002 210.825042 
L 124.376339 216.91855 
L 124.738677 216.352314 
L 125.101015 218.493547 
L 125.463352 215.598695 
L 126.188028 221.377916 
L 126.550365 221.237981 
L 126.912703 209.700687 
L 127.275041 203.982905 
L 127.637378 201.936608 
L 127.999716 196.027266 
L 128.362054 195.848203 
L 128.724391 187.438441 
L 129.086729 190.141416 
L 129.811404 188.949437 
L 130.173742 190.792885 
L 130.53608 190.124215 
L 130.898417 190.46342 
L 131.260755 189.313475 
L 131.623093 188.765514 
L 131.98543 185.85427 
L 132.347768 186.505182 
L 132.710106 185.489899 
L 133.072443 185.992536 
L 133.434781 187.428099 
L 133.797119 187.422095 
L 134.884131 184.904326 
L 135.246469 186.32159 
L 135.608807 184.280463 
L 135.971144 185.073553 
L 136.333482 187.132296 
L 137.420495 184.810089 
L 137.782833 185.770033 
L 138.14517 184.676514 
L 138.507508 184.446925 
L 138.869846 184.73742 
L 139.232183 185.756947 
L 139.594521 184.552798 
L 139.956859 184.889511 
L 140.319196 184.004759 
L 140.681534 183.901411 
L 141.043872 184.210607 
L 141.406209 183.773288 
L 141.768547 183.881292 
L 142.130885 184.302752 
L 142.493222 184.383936 
L 142.85556 184.847795 
L 143.217898 183.874218 
L 143.580235 183.985069 
L 143.942573 184.487505 
L 144.304911 182.909122 
L 144.667248 182.846106 
L 145.029586 183.355634 
L 145.391924 184.113366 
L 145.754261 183.175639 
L 146.116599 183.903217 
L 146.478937 183.699209 
L 146.841274 183.061725 
L 147.203612 183.196088 
L 147.56595 185.027866 
L 148.290625 183.024234 
L 148.652963 183.024664 
L 149.0153 182.908792 
L 149.377638 182.921731 
L 149.739976 183.446698 
L 150.102313 183.231953 
L 150.464651 183.782402 
L 150.826989 183.157305 
L 151.551664 183.542492 
L 151.914002 183.446975 
L 152.276339 182.928913 
L 152.638677 183.836236 
L 153.001015 183.736315 
L 153.363352 183.907988 
L 153.72569 183.273056 
L 154.088028 183.490009 
L 154.450365 182.720341 
L 154.812703 182.625096 
L 155.175041 182.920247 
L 155.537378 183.852156 
L 155.899716 182.802564 
L 156.262054 182.738626 
L 156.624391 182.801259 
L 157.349067 183.681555 
L 157.711404 182.885937 
L 158.073742 183.817856 
L 158.43608 183.130461 
L 158.798417 183.143888 
L 159.523093 182.841679 
L 159.88543 183.534285 
L 160.247768 182.956399 
L 160.610106 183.1017 
L 160.972443 183.593199 
L 161.334781 183.231413 
L 161.697119 183.494154 
L 162.059456 182.587269 
L 162.784131 183.233486 
L 163.146469 183.014462 
L 163.508807 183.921541 
L 163.871144 183.145828 
L 164.233482 184.071561 
L 164.59582 183.153563 
L 164.958157 183.120939 
L 165.320495 183.217194 
L 165.682833 182.82653 
L 166.04517 183.195985 
L 166.407508 183.2152 
L 166.769846 182.068551 
L 167.132183 182.517478 
L 167.494521 183.2954 
L 167.856859 183.449769 
L 168.219196 183.395169 
L 168.581534 183.713621 
L 168.943872 182.791018 
L 169.306209 182.950666 
L 169.668547 183.437971 
L 170.030885 183.397177 
L 170.393222 182.63061 
L 170.75556 183.785292 
L 171.117898 182.474261 
L 171.480235 183.387489 
L 171.842573 182.480907 
L 172.204911 183.151485 
L 172.929586 182.730728 
L 173.291924 183.290475 
L 173.654261 182.409606 
L 174.016599 182.700566 
L 174.378937 183.743703 
L 174.741274 182.943793 
L 175.828287 182.818776 
L 176.190625 183.03813 
L 176.552963 182.991935 
L 176.9153 183.939272 
L 177.277638 183.640936 
L 177.639976 182.692036 
L 178.002313 182.555659 
L 178.364651 182.842249 
L 178.726989 182.57223 
L 179.089326 183.123184 
L 179.451664 182.891681 
L 179.814002 183.99973 
L 180.538677 182.255185 
L 180.901015 182.325751 
L 181.62569 182.950932 
L 181.988028 182.766578 
L 182.350365 183.213411 
L 182.712703 182.990066 
L 183.075041 183.10962 
L 183.437378 182.88939 
L 183.799716 183.19995 
L 184.162054 182.548171 
L 184.524391 182.331845 
L 184.886729 182.754582 
L 185.249067 182.386773 
L 185.611404 182.499166 
L 185.973742 183.056651 
L 186.33608 182.807802 
L 186.698417 183.105543 
L 187.060755 182.743468 
L 187.423093 183.52151 
L 187.78543 182.973611 
L 189.597119 183.079528 
L 189.959456 182.768168 
L 190.684131 182.513927 
L 191.408807 182.752587 
L 191.771144 183.008193 
L 192.133482 183.679111 
L 192.858157 182.806429 
L 193.220495 182.954243 
L 194.669846 183.070869 
L 195.032183 183.105361 
L 195.394521 182.863134 
L 196.119196 183.206005 
L 196.843872 182.746778 
L 197.568547 183.31884 
L 197.930885 183.573065 
L 198.293222 183.018668 
L 198.65556 183.043531 
L 199.017898 183.317399 
L 199.742573 183.136009 
L 200.104911 183.506695 
L 200.467248 183.383708 
L 200.829586 183.030956 
L 201.554261 183.255503 
L 201.916599 183.74766 
L 202.278937 183.539514 
L 202.641274 184.122744 
L 203.003612 183.116812 
L 203.36595 183.055189 
L 204.090625 183.218949 
L 205.177638 183.497466 
L 205.539976 183.173385 
L 205.902313 183.701313 
L 206.264651 183.1398 
L 206.989326 183.983366 
L 207.351664 183.509783 
L 207.714002 183.31685 
L 208.076339 183.477441 
L 208.438677 182.976603 
L 208.801015 183.427922 
L 209.163352 183.32973 
L 209.52569 182.693731 
L 209.888028 183.190847 
L 210.250365 182.878586 
L 210.612703 183.631742 
L 210.975041 183.532027 
L 211.337378 184.148137 
L 211.699716 183.484397 
L 212.424391 183.193172 
L 212.786729 183.484256 
L 213.149067 183.52136 
L 213.511404 183.165281 
L 213.873742 182.983246 
L 214.23608 183.474534 
L 214.598417 183.229546 
L 214.960755 183.502455 
L 215.323093 183.333029 
L 215.68543 183.590888 
L 216.047768 183.320601 
L 216.410106 183.380472 
L 216.772443 183.071998 
L 217.134781 183.440573 
L 217.497119 183.385062 
L 217.859456 183.523604 
L 218.221794 183.365623 
L 218.584131 183.015156 
L 218.946469 183.250515 
L 219.308807 184.034514 
L 219.671144 183.839587 
L 220.033482 183.988011 
L 220.39582 183.312729 
L 220.758157 183.503067 
L 221.120495 183.375753 
L 221.482833 183.544545 
L 221.84517 183.094009 
L 222.569846 183.721852 
L 222.932183 183.432648 
L 223.294521 183.598003 
L 223.656859 182.852362 
L 224.019196 183.394857 
L 224.743872 183.282232 
L 225.468547 184.269199 
L 225.830885 183.427617 
L 226.193222 183.745692 
L 226.55556 183.455576 
L 227.280235 183.798223 
L 227.642573 183.654011 
L 228.004911 183.747524 
L 228.367248 183.490886 
L 228.729586 183.697737 
L 229.091924 183.543973 
L 229.454261 183.584663 
L 229.816599 183.770174 
L 230.178937 183.322506 
L 230.541274 183.880069 
L 230.903612 183.989708 
L 231.26595 183.367329 
L 231.628287 183.600689 
L 232.352963 183.696709 
L 232.7153 184.280465 
L 233.077638 183.46197 
L 233.802313 183.7913 
L 234.164651 183.806285 
L 234.526989 183.094654 
L 235.251664 183.904287 
L 235.614002 183.294811 
L 235.976339 183.580542 
L 237.063352 183.662428 
L 237.42569 183.316345 
L 237.788028 183.534865 
L 238.150365 183.912978 
L 238.512703 184.048144 
L 238.875041 183.461047 
L 239.599716 183.752332 
L 239.962054 183.61315 
L 240.324391 184.063493 
L 240.686729 183.592658 
L 241.049067 183.870614 
L 241.411404 183.186031 
L 241.773742 183.964145 
L 242.13608 183.160091 
L 242.498417 183.861212 
L 242.860755 183.292585 
L 243.223093 183.516306 
L 243.58543 183.331213 
L 243.947768 183.617877 
L 244.310106 183.525817 
L 244.672443 183.292991 
L 245.034781 183.480584 
L 245.397119 183.852578 
L 246.121794 183.79079 
L 246.484131 183.497384 
L 246.846469 183.815023 
L 247.208807 184.341255 
L 247.571144 183.225012 
L 247.933482 183.734344 
L 248.29582 183.358944 
L 248.658157 183.242344 
L 249.020495 183.601829 
L 249.382833 183.476473 
L 249.74517 183.648195 
L 250.107508 183.675303 
L 250.469846 183.545577 
L 250.832183 183.551833 
L 251.194521 183.68815 
L 251.556859 184.067365 
L 251.919196 184.011006 
L 252.643872 183.518072 
L 253.006209 183.905989 
L 253.368547 183.72298 
L 253.730885 184.051702 
L 254.093222 183.556504 
L 254.817898 183.560879 
L 255.180235 183.850074 
L 255.542573 183.510944 
L 255.904911 183.786796 
L 256.267248 183.574853 
L 256.629586 184.06199 
L 256.991924 183.535886 
L 257.354261 183.619326 
L 257.716599 184.003903 
L 258.441274 184.168796 
L 258.803612 183.648536 
L 259.16595 184.069936 
L 259.528287 183.989729 
L 259.890625 184.104739 
L 260.252963 183.551519 
L 260.6153 184.201567 
L 261.339976 183.335254 
L 261.702313 183.935562 
L 262.064651 183.628661 
L 262.426989 183.608723 
L 262.789326 183.338168 
L 263.151664 183.369248 
L 263.514002 183.728027 
L 263.876339 183.653923 
L 264.238677 183.871679 
L 264.601015 183.500933 
L 264.963352 183.804692 
L 265.32569 183.557266 
L 265.688028 183.536052 
L 266.050365 183.677491 
L 266.412703 183.511561 
L 266.775041 183.818911 
L 267.137378 183.680106 
L 267.499716 183.316719 
L 268.224391 184.030771 
L 268.586729 183.89653 
L 268.949067 183.561905 
L 269.311404 183.963076 
L 269.673742 183.589406 
L 270.03608 183.671066 
L 270.398417 184.032846 
L 270.760755 183.816132 
L 271.123093 183.734416 
L 271.847768 183.984267 
L 272.210106 184.460725 
L 272.934781 183.955757 
L 273.297119 183.371575 
L 273.659456 183.800792 
L 274.021794 183.811522 
L 274.384131 184.438955 
L 274.746469 183.90586 
L 275.108807 183.751405 
L 275.471144 184.136892 
L 275.833482 184.113377 
L 276.19582 184.361561 
L 276.558157 183.893618 
L 277.282833 184.154274 
L 277.64517 183.986099 
L 278.007508 184.031172 
L 278.369846 184.746893 
L 278.732183 183.829595 
L 279.094521 184.525654 
L 279.819196 184.484841 
L 280.181534 183.539757 
L 280.543872 184.396892 
L 280.906209 183.562071 
L 281.268547 184.058096 
L 281.630885 184.027067 
L 282.35556 183.606717 
L 282.717898 184.135914 
L 283.442573 183.971408 
L 283.804911 183.836393 
L 284.167248 184.141271 
L 284.529586 183.986363 
L 284.891924 184.560163 
L 285.254261 184.119487 
L 285.978937 184.380259 
L 286.341274 183.942237 
L 286.703612 184.577942 
L 287.06595 184.126651 
L 287.428287 184.089082 
L 287.790625 184.519843 
L 288.152963 184.160777 
L 288.5153 184.141598 
L 288.877638 183.727954 
L 289.239976 184.247347 
L 289.602313 183.795225 
L 289.964651 183.797496 
L 290.326989 183.976826 
L 290.689326 184.007656 
L 291.051664 184.432068 
L 291.776339 184.492172 
L 292.138677 183.747344 
L 292.501015 183.93629 
L 292.863352 184.274464 
L 293.22569 184.085552 
L 293.588028 183.680952 
L 293.950365 184.109062 
L 294.312703 183.982663 
L 294.675041 184.470374 
L 295.037378 183.848077 
L 295.399716 184.292654 
L 295.762054 184.252351 
L 296.124391 184.65116 
L 296.849067 183.831811 
L 297.211404 184.151975 
L 297.573742 183.759917 
L 297.93608 184.046638 
L 298.298417 183.293369 
L 298.660755 183.455596 
L 299.747768 184.395394 
L 300.110106 184.200659 
L 300.472443 183.62969 
L 300.834781 183.918979 
L 301.197119 183.887444 
L 301.559456 183.680268 
L 301.921794 184.121697 
L 302.646469 183.577968 
L 303.008807 183.406932 
L 303.371144 183.699485 
L 303.733482 183.838053 
L 304.09582 184.174193 
L 304.458157 183.406188 
L 304.820495 183.566256 
L 305.182833 184.112185 
L 305.907508 183.857474 
L 306.632183 183.345625 
L 307.356859 184.10976 
L 307.719196 183.552716 
L 308.081534 183.578276 
L 308.443872 183.451638 
L 309.168547 183.804361 
L 309.530885 183.562106 
L 309.893222 183.65838 
L 310.25556 183.506233 
L 311.704911 183.5843 
L 312.067248 183.401444 
L 312.429586 183.679564 
L 312.791924 183.625895 
L 313.154261 184.167791 
L 313.516599 183.337589 
L 313.878937 183.581917 
L 314.241274 183.259873 
L 314.603612 183.674293 
L 315.328287 183.769385 
L 315.690625 183.061354 
L 316.777638 183.900729 
L 317.139976 183.444012 
L 317.864651 183.288519 
L 318.226989 183.655874 
L 318.589326 183.632594 
L 318.951664 183.295308 
L 319.314002 183.364492 
L 319.676339 183.186586 
L 320.038677 183.503763 
L 321.12569 183.32978 
L 321.488028 183.466503 
L 321.850365 183.454851 
L 322.212703 183.076589 
L 322.575041 183.41821 
L 322.937378 183.524796 
L 323.299716 182.842981 
L 323.662054 183.131057 
L 324.386729 183.245596 
L 324.749067 183.376076 
L 325.111404 183.107833 
L 325.473742 183.460305 
L 325.83608 183.425541 
L 326.198417 183.241457 
L 326.923093 183.619045 
L 327.28543 183.147681 
L 327.647768 183.273929 
L 328.372443 183.159597 
L 328.734781 183.491664 
L 329.097119 183.561443 
L 329.459456 183.185605 
L 329.821794 183.588135 
L 330.184131 183.219707 
L 330.546469 183.087308 
L 330.908807 183.319028 
L 331.271144 183.410961 
L 331.633482 183.24749 
L 332.358157 183.111364 
L 332.720495 183.54411 
L 333.082833 183.164345 
L 333.44517 183.752388 
L 333.807508 182.989223 
L 335.256859 183.309707 
L 335.619196 183.410028 
L 335.981534 183.065202 
L 336.343872 183.062422 
L 337.068547 183.589781 
L 337.430885 183.391143 
L 337.793222 182.950594 
L 338.15556 183.355 
L 338.517898 183.592637 
L 339.242573 183.61025 
L 339.604911 183.113705 
L 339.967248 182.873457 
L 340.329586 183.084194 
L 340.691924 183.452025 
L 341.054261 182.923494 
L 341.416599 183.434375 
L 342.141274 182.997813 
L 342.503612 183.315565 
L 342.86595 183.145289 
L 343.590625 183.57406 
L 343.952963 183.260156 
L 344.677638 183.06024 
L 345.039976 183.147698 
L 345.764651 182.782334 
L 346.126989 183.381895 
L 346.489326 182.975455 
L 346.851664 183.442126 
L 347.214002 183.106796 
L 347.576339 183.474376 
L 347.938677 182.835026 
L 348.301015 183.149862 
L 348.663352 183.087538 
L 349.02569 183.411053 
L 349.388028 183.168374 
L 349.750365 183.180928 
L 350.112703 183.325319 
L 350.475041 182.791654 
L 350.837378 182.55984 
L 351.199716 182.914375 
L 351.562054 182.917697 
L 352.286729 183.183789 
L 353.011404 183.159303 
L 353.73608 183.012312 
L 354.098417 182.604557 
L 354.460755 183.046112 
L 354.823093 183.195119 
L 355.18543 182.889687 
L 355.547768 182.996916 
L 356.272443 183.026144 
L 356.997119 183.267688 
L 357.359456 182.864167 
L 357.721794 182.900338 
L 358.084131 183.192053 
L 358.446469 183.121054 
L 358.808807 183.387414 
L 359.533482 182.854778 
L 359.89582 182.99409 
L 360.258157 182.84007 
L 360.620495 182.958257 
L 360.982833 183.343694 
L 361.34517 182.8654 
L 361.707508 183.227404 
L 362.069846 183.320284 
L 362.432183 182.946414 
L 362.794521 182.853768 
L 363.156859 183.247682 
L 364.243872 183.227195 
L 364.606209 183.543206 
L 364.968547 183.115228 
L 365.330885 183.077924 
L 365.693222 182.86555 
L 366.05556 183.262107 
L 366.417898 183.17484 
L 366.780235 182.869864 
L 367.142573 183.09306 
L 367.504911 183.181223 
L 367.867248 182.948603 
L 368.591924 182.98284 
L 368.954261 183.411502 
L 369.316599 183.456222 
L 369.678937 183.160918 
L 370.041274 183.315215 
L 370.403612 183.187405 
L 370.76595 183.406213 
L 371.128287 182.721065 
L 371.490625 183.299725 
L 371.852963 183.430653 
L 372.577638 183.090215 
L 373.302313 183.392291 
L 373.664651 183.283125 
L 374.026989 182.707293 
L 374.751664 183.587734 
L 375.114002 183.586786 
L 375.476339 183.027914 
L 375.838677 183.120785 
L 376.563352 182.952666 
L 376.92569 183.219916 
L 377.288028 183.340357 
L 379.099716 183.243999 
L 379.462054 183.015496 
L 380.186729 183.388726 
L 381.273742 183.245335 
L 381.63608 183.526566 
L 382.360755 183.38595 
L 382.723093 183.678664 
L 383.08543 183.587264 
L 383.447768 183.229104 
L 383.810106 183.244474 
L 384.534781 183.591564 
L 384.897119 182.83058 
L 385.621794 183.467039 
L 386.708807 183.012192 
L 387.071144 183.285372 
L 387.433482 182.856099 
L 388.158157 183.321429 
L 388.520495 183.278836 
L 388.882833 183.06228 
L 389.24517 183.08701 
L 389.607508 182.810761 
L 389.969846 183.033006 
L 390.694521 183.205329 
L 391.056859 182.746892 
L 391.419196 183.668937 
L 391.781534 183.280835 
L 392.506209 182.987819 
L 392.868547 182.980378 
L 393.230885 182.689718 
L 393.593222 182.881797 
L 393.95556 183.238529 
L 394.317898 182.903573 
L 395.042573 183.278655 
L 395.404911 183.864914 
L 396.129586 182.881302 
L 396.854261 182.496939 
L 397.216599 182.964083 
L 397.578937 182.932074 
L 397.941274 183.328355 
L 398.303612 183.414942 
L 399.028287 183.08329 
L 399.390625 183.502748 
L 399.752963 183.406766 
L 400.1153 182.975909 
L 400.477638 183.033288 
L 400.839976 183.264682 
L 401.926989 183.125527 
L 404.463352 183.210635 
L 404.82569 183.390996 
L 405.188028 183.247714 
L 405.912703 183.139241 
L 406.275041 182.7976 
L 406.637378 183.158489 
L 406.999716 183.300028 
L 407.724391 182.631251 
L 408.086729 182.771337 
L 408.449067 183.118759 
L 408.811404 182.976473 
L 409.173742 183.321974 
L 409.53608 183.497905 
L 410.623093 183.037855 
L 410.98543 183.406321 
L 411.347768 183.506245 
L 411.710106 183.117107 
L 412.072443 183.270517 
L 412.434781 183.069813 
L 412.797119 183.06227 
L 413.159456 183.500583 
L 413.521794 183.213128 
L 414.971144 183.231397 
L 415.333482 183.41181 
L 416.058157 183.051382 
L 416.420495 183.010845 
L 416.782833 183.358565 
L 417.869846 182.973402 
L 418.232183 183.439632 
L 418.594521 183.343979 
L 418.956859 183.451405 
L 419.319196 183.754983 
L 419.681534 183.196067 
L 420.043872 183.369495 
L 420.406209 182.879069 
L 420.768547 182.881103 
L 421.130885 183.323204 
L 421.85556 183.800187 
L 422.217898 183.416379 
L 422.580235 183.388463 
L 422.942573 182.964581 
L 423.304911 183.437921 
L 424.029586 183.108274 
L 424.754261 182.974154 
L 425.116599 182.937994 
L 425.478937 183.247622 
L 425.841274 183.255529 
L 426.203612 183.843212 
L 426.56595 182.950002 
L 428.0153 183.181687 
L 428.739976 183.507414 
L 429.102313 183.212241 
L 429.464651 183.569302 
L 429.826989 183.43711 
L 430.189326 183.118884 
L 430.551664 183.359822 
L 430.914002 183.312847 
L 431.276339 182.979613 
L 431.638677 183.438856 
L 432.001015 182.299609 
L 432.363352 181.762942 
L 432.72569 183.441184 
L 433.812703 182.961926 
L 434.175041 183.454121 
L 434.537378 183.175714 
L 434.899716 183.373462 
L 435.262054 182.405084 
L 435.624391 180.350935 
L 435.986729 180.307807 
L 437.073742 181.647799 
L 437.43608 181.67833 
L 437.798417 182.428926 
L 438.160755 181.779399 
L 438.523093 182.309822 
L 438.88543 181.950503 
L 439.610106 181.811203 
L 439.972443 182.112539 
L 440.334781 182.119962 
L 440.697119 183.012767 
L 441.421794 182.240705 
L 441.784131 182.865056 
L 442.146469 182.625435 
L 442.508807 182.555945 
L 442.871144 182.060638 
L 443.233482 181.790267 
L 443.59582 181.872344 
L 443.958157 182.292266 
L 444.320495 182.355283 
L 444.682833 182.651025 
L 445.04517 181.105141 
L 445.407508 181.664196 
L 445.769846 181.607785 
L 446.132183 181.839257 
L 446.494521 181.778432 
L 446.856859 182.066054 
L 447.219196 182.024339 
L 447.581534 182.132545 
L 448.306209 181.90766 
L 448.668547 182.047168 
L 449.030885 181.99583 
L 449.393222 182.254159 
L 449.75556 181.839294 
L 450.117898 182.432153 
L 450.480235 181.941677 
L 450.842573 182.270582 
L 451.204911 181.797613 
L 451.567248 181.937586 
L 451.929586 181.866494 
L 452.291924 182.105283 
L 452.654261 182.004853 
L 453.016599 181.770463 
L 453.378937 182.209652 
L 453.741274 182.15394 
L 454.103612 182.278743 
L 454.46595 182.0443 
L 454.828287 182.263266 
L 455.190625 182.350906 
L 455.552963 181.991202 
L 456.277638 182.179557 
L 456.639976 182.057555 
L 457.002313 182.350878 
L 457.364651 182.414161 
L 457.726989 182.635928 
L 458.451664 182.199205 
L 458.814002 182.378853 
L 459.176339 182.341046 
L 459.538677 182.13528 
L 459.901015 182.076736 
L 460.263352 182.199744 
L 460.62569 182.111265 
L 460.988028 182.264371 
L 461.350365 181.75747 
L 461.712703 181.624852 
L 462.075041 182.026701 
L 462.799716 182.153099 
L 463.524391 182.247594 
L 463.886729 182.569226 
L 464.249067 182.231737 
L 464.611404 182.239436 
L 464.973742 181.855166 
L 465.33608 182.195919 
L 465.698417 182.236617 
L 466.060755 182.157868 
L 466.423093 182.442652 
L 466.78543 182.495546 
L 467.147768 181.732491 
L 467.510106 182.424756 
L 467.872443 182.535168 
L 468.234781 182.355891 
L 468.597119 182.012175 
L 468.959456 182.700203 
L 469.321794 182.243314 
L 469.684131 182.543644 
L 470.046469 182.660535 
L 470.408807 182.208276 
L 470.771144 182.065511 
L 471.133482 182.313926 
L 471.49582 182.199557 
L 471.858157 182.488326 
L 472.582833 181.972093 
L 474.032183 182.320669 
L 474.394521 182.06008 
L 474.756859 182.687156 
L 475.481534 182.594929 
L 475.843872 182.375168 
L 476.206209 182.324818 
L 476.568547 182.508199 
L 476.930885 182.524887 
L 477.293222 182.242166 
L 477.65556 182.504688 
L 478.380235 182.138973 
L 478.742573 181.981903 
L 479.104911 182.243448 
L 480.554261 182.119861 
L 480.916599 182.057143 
L 481.641274 182.286359 
L 482.003612 182.082584 
L 482.36595 182.138121 
L 483.090625 182.505293 
L 483.452963 182.401842 
L 483.8153 182.485467 
L 484.177638 182.34327 
L 484.539976 182.569181 
L 484.902313 182.530533 
L 485.264651 182.149332 
L 485.626989 182.232089 
L 485.989326 182.113911 
L 486.351664 182.324375 
L 486.714002 182.351873 
L 487.076339 182.20829 
L 489.250365 182.632047 
L 489.612703 182.390814 
L 489.975041 182.440597 
L 490.337378 182.656737 
L 490.699716 182.502688 
L 491.062054 182.637357 
L 491.424391 182.095196 
L 491.786729 182.283805 
L 492.149067 182.069755 
L 492.511404 182.536919 
L 492.873742 182.640008 
L 493.23608 182.396871 
L 493.598417 182.545075 
L 494.323093 182.460655 
L 495.047768 182.594223 
L 495.410106 182.883057 
L 496.497119 182.550176 
L 497.584131 182.335158 
L 497.946469 182.094919 
L 498.308807 182.439439 
L 498.671144 182.449754 
L 499.033482 182.333685 
L 499.39582 182.384298 
L 500.482833 181.973572 
L 501.932183 181.909574 
L 502.656859 182.367982 
L 503.019196 182.184092 
L 503.381534 182.209204 
L 504.468547 181.757783 
L 504.830885 182.046813 
L 505.55556 181.895438 
L 505.917898 181.761605 
L 506.280235 182.163757 
L 506.642573 181.922442 
L 507.367248 182.002908 
L 507.729586 182.331292 
L 508.091924 182.230149 
L 508.454261 182.319543 
L 508.816599 182.174219 
L 509.178937 182.220184 
L 509.541274 181.848545 
L 509.903612 182.240633 
L 510.26595 182.003928 
L 510.628287 182.187805 
L 512.077638 182.115941 
L 512.439976 181.728746 
L 512.802313 181.858457 
L 513.164651 182.188899 
L 513.889326 182.174414 
L 514.614002 182.175654 
L 515.338677 182.163007 
L 515.701015 182.230807 
L 516.063352 182.135633 
L 516.42569 182.287623 
L 517.512703 181.866172 
L 517.875041 181.89936 
L 518.237378 182.239634 
L 518.599716 182.186477 
L 518.962054 181.93379 
L 519.324391 182.083731 
L 519.686729 182.068481 
L 520.049067 181.74011 
L 520.411404 181.921651 
L 520.773742 181.807126 
L 521.860755 181.953517 
L 522.223093 181.902134 
L 522.58543 182.037676 
L 523.310106 181.718665 
L 523.672443 181.825252 
L 524.034781 182.142079 
L 524.759456 181.853801 
L 525.484131 182.064664 
L 525.846469 182.087273 
L 526.208807 181.799895 
L 526.571144 182.269505 
L 526.933482 182.295824 
L 527.29582 182.054519 
L 527.658157 182.290106 
L 528.020495 182.149317 
L 528.74517 181.740144 
L 529.107508 181.883053 
L 530.556859 181.970675 
L 530.919196 181.68243 
L 531.281534 182.09441 
L 532.006209 182.167889 
L 532.368547 181.84792 
L 532.730885 181.676868 
L 533.093222 181.864798 
L 533.45556 181.921529 
L 533.817898 182.091311 
L 534.180235 181.811555 
L 534.542573 181.72748 
L 534.904911 181.918756 
L 535.267248 181.577909 
L 536.354261 181.884943 
L 536.716599 182.195232 
L 537.078937 182.076375 
L 537.441274 181.812355 
L 537.803612 181.688939 
L 538.890625 181.888783 
L 539.252963 181.935298 
L 539.6153 181.553882 
L 540.339976 181.70919 
L 540.702313 181.962171 
L 541.064651 181.805463 
L 541.426989 182.31243 
L 541.789326 181.850127 
L 542.151664 181.743885 
L 542.876339 181.934827 
L 543.238677 181.73376 
L 543.601015 182.240763 
L 543.963352 182.297025 
L 544.32569 181.865324 
L 544.688028 182.298322 
L 545.412703 181.792845 
L 545.775041 182.101816 
L 546.137378 181.807663 
L 546.499716 182.011369 
L 546.862054 181.862656 
L 547.224391 181.545636 
L 547.586729 181.935272 
L 548.311404 182.082325 
L 548.673742 181.987239 
L 549.03608 182.145787 
L 549.398417 181.901138 
L 549.760755 182.199781 
L 550.123093 181.592446 
L 550.48543 181.312293 
L 551.210106 182.069524 
L 551.572443 180.052708 
L 552.297119 181.958992 
L 552.659456 182.280114 
L 553.021794 181.981429 
L 553.746469 181.847476 
L 554.108807 182.080644 
L 554.471144 181.74972 
L 555.19582 181.995071 
L 555.558157 182.29362 
L 555.920495 181.965993 
L 556.282833 182.010501 
L 556.64517 181.834422 
L 557.007508 181.894159 
L 557.732183 181.761904 
L 558.094521 182.043791 
L 559.181534 181.765094 
L 559.906209 182.41181 
L 560.268547 182.096682 
L 560.630885 182.228219 
L 560.993222 182.134654 
L 561.35556 182.183119 
L 561.717898 182.042655 
L 562.080235 182.234615 
L 562.442573 182.149602 
L 562.804911 181.919169 
L 563.529586 182.110859 
L 563.891924 181.927376 
L 564.254261 182.019863 
L 564.978937 181.8605 
L 565.703612 182.15836 
L 566.06595 182.242096 
L 566.790625 182.168419 
L 567.152963 181.920597 
L 567.5153 182.078837 
L 567.877638 181.968266 
L 568.239976 182.125528 
L 568.602313 181.925233 
L 568.964651 181.995146 
L 569.326989 182.256933 
L 570.051664 181.956486 
L 570.414002 182.07418 
L 570.776339 181.57487 
L 571.138677 181.804915 
L 571.501015 181.242766 
L 571.863352 181.793522 
L 572.22569 181.959183 
L 572.950365 181.850256 
L 573.312703 181.794141 
L 574.037378 182.030353 
L 574.399716 182.449644 
L 574.762054 181.999728 
L 575.124391 182.160305 
L 576.211404 181.726165 
L 576.573742 181.878269 
L 576.93608 181.773254 
L 577.660755 182.000091 
L 578.023093 182.002512 
L 578.747768 181.803269 
L 579.834781 181.803712 
L 580.197119 181.659426 
L 580.559456 181.730658 
L 581.646469 182.190769 
L 582.008807 181.833131 
L 582.371144 182.159772 
L 582.733482 181.805979 
L 583.09582 181.738369 
L 583.458157 181.793717 
L 583.820495 182.077099 
L 584.182833 182.205691 
L 584.54517 181.962345 
L 585.269846 181.824625 
L 585.994521 182.167373 
L 586.719196 181.8784 
L 587.081534 181.654484 
L 587.443872 181.949669 
L 587.806209 181.678056 
L 588.168547 181.735695 
L 588.530885 181.913964 
L 588.893222 181.721036 
L 589.25556 181.874075 
L 589.617898 181.806772 
L 589.980235 182.016588 
L 590.342573 181.839141 
L 590.704911 182.074242 
L 591.067248 181.818003 
L 591.429586 181.753855 
L 591.791924 181.830436 
L 592.154261 181.642867 
L 592.878937 181.696632 
L 593.96595 181.812505 
L 594.328287 181.684922 
L 595.052963 181.85471 
L 595.4153 181.634675 
L 596.139976 182.171771 
L 596.502313 181.519403 
L 597.589326 182.009526 
L 597.951664 181.672554 
L 598.314002 181.83577 
L 598.676339 181.833104 
L 599.038677 181.600327 
L 599.401015 182.016647 
L 599.763352 182.024052 
L 600.12569 181.727536 
L 600.850365 181.98245 
L 601.212703 182.084721 
L 601.575041 181.833465 
L 601.937378 182.02428 
L 603.024391 181.616899 
L 603.386729 181.854124 
L 603.749067 181.894306 
L 604.111404 181.700946 
L 604.473742 182.163858 
L 604.83608 181.960477 
L 605.198417 181.603975 
L 606.647768 181.941194 
L 607.010106 181.838706 
L 607.734781 182.088693 
L 608.097119 182.308904 
L 608.459456 182.282092 
L 608.821794 181.980502 
L 609.184131 181.975156 
L 609.546469 181.768173 
L 609.908807 181.694727 
L 610.271144 181.973114 
L 610.633482 181.920721 
L 610.99582 182.122342 
L 612.082833 181.93848 
L 612.44517 181.739666 
L 612.807508 181.9783 
L 613.169846 181.766782 
L 613.532183 181.800565 
L 613.894521 181.975119 
L 614.256859 181.819662 
L 615.343872 182.168837 
L 615.706209 181.932679 
L 616.068547 181.837776 
L 616.430885 182.248496 
L 616.793222 181.818937 
L 617.15556 181.899228 
L 617.517898 181.61977 
L 617.880235 182.075376 
L 618.604911 181.745763 
L 618.967248 182.02806 
L 619.329586 181.729104 
L 619.691924 178.870123 
L 620.054261 170.229221 
L 620.416599 180.666642 
L 620.778937 181.321931 
L 621.141274 181.555562 
L 621.503612 181.493365 
L 621.86595 182.043347 
L 622.228287 181.271262 
L 622.590625 181.467953 
L 622.952963 181.459883 
L 623.677638 181.891243 
L 624.039976 181.748658 
L 624.764651 181.715927 
L 625.126989 181.602932 
L 625.126989 181.602932 
" clip-path="url(#pccf3c90b9a)" style="fill: none; stroke: #ff7f0e; stroke-width: 1.5; stroke-linecap: square"/>
   </g>
   <g id="patch_3">
    <path d="M 92.490625 308.63625 
L 92.490625 31.43625 
" style="fill: none; stroke: #000000; stroke-width: 0.8; stroke-linejoin: miter; stroke-linecap: square"/>
   </g>
   <g id="patch_4">
    <path d="M 650.490625 308.63625 
L 650.490625 31.43625 
" style="fill: none; stroke: #000000; stroke-width: 0.8; stroke-linejoin: miter; stroke-linecap: square"/>
   </g>
   <g id="patch_5">
    <path d="M 92.490625 308.63625 
L 650.490625 308.63625 
" style="fill: none; stroke: #000000; stroke-width: 0.8; stroke-linejoin: miter; stroke-linecap: square"/>
   </g>
   <g id="patch_6">
    <path d="M 92.490625 31.43625 
L 650.490625 31.43625 
" style="fill: none; stroke: #000000; stroke-width: 0.8; stroke-linejoin: miter; stroke-linecap: square"/>
   </g>
   <g id="text_16">
    <!-- Generator and Discriminator Loss During Training -->
    <g transform="translate(74.258125 25.43625) scale(0.24 -0.24)">
     <defs>
      <path id="DejaVuSans-47" d="M 3809 666 
L 3809 1919 
L 2778 1919 
L 2778 2438 
L 4434 2438 
L 4434 434 
Q 4069 175 3628 42 
Q 3188 -91 2688 -91 
Q 1594 -91 976 548 
Q 359 1188 359 2328 
Q 359 3472 976 4111 
Q 1594 4750 2688 4750 
Q 3144 4750 3555 4637 
Q 3966 4525 4313 4306 
L 4313 3634 
Q 3963 3931 3569 4081 
Q 3175 4231 2741 4231 
Q 1884 4231 1454 3753 
Q 1025 3275 1025 2328 
Q 1025 1384 1454 906 
Q 1884 428 2741 428 
Q 3075 428 3337 486 
Q 3600 544 3809 666 
z
" transform="scale(0.015625)"/>
      <path id="DejaVuSans-20" transform="scale(0.015625)"/>
      <path id="DejaVuSans-64" d="M 2906 2969 
L 2906 4863 
L 3481 4863 
L 3481 0 
L 2906 0 
L 2906 525 
Q 2725 213 2448 61 
Q 2172 -91 1784 -91 
Q 1150 -91 751 415 
Q 353 922 353 1747 
Q 353 2572 751 3078 
Q 1150 3584 1784 3584 
Q 2172 3584 2448 3432 
Q 2725 3281 2906 2969 
z
M 947 1747 
Q 947 1113 1208 752 
Q 1469 391 1925 391 
Q 2381 391 2643 752 
Q 2906 1113 2906 1747 
Q 2906 2381 2643 2742 
Q 2381 3103 1925 3103 
Q 1469 3103 1208 2742 
Q 947 2381 947 1747 
z
" transform="scale(0.015625)"/>
      <path id="DejaVuSans-44" d="M 1259 4147 
L 1259 519 
L 2022 519 
Q 2988 519 3436 956 
Q 3884 1394 3884 2338 
Q 3884 3275 3436 3711 
Q 2988 4147 2022 4147 
L 1259 4147 
z
M 628 4666 
L 1925 4666 
Q 3281 4666 3915 4102 
Q 4550 3538 4550 2338 
Q 4550 1131 3912 565 
Q 3275 0 1925 0 
L 628 0 
L 628 4666 
z
" transform="scale(0.015625)"/>
      <path id="DejaVuSans-63" d="M 3122 3366 
L 3122 2828 
Q 2878 2963 2633 3030 
Q 2388 3097 2138 3097 
Q 1578 3097 1268 2742 
Q 959 2388 959 1747 
Q 959 1106 1268 751 
Q 1578 397 2138 397 
Q 2388 397 2633 464 
Q 2878 531 3122 666 
L 3122 134 
Q 2881 22 2623 -34 
Q 2366 -91 2075 -91 
Q 1284 -91 818 406 
Q 353 903 353 1747 
Q 353 2603 823 3093 
Q 1294 3584 2113 3584 
Q 2378 3584 2631 3529 
Q 2884 3475 3122 3366 
z
" transform="scale(0.015625)"/>
      <path id="DejaVuSans-6d" d="M 3328 2828 
Q 3544 3216 3844 3400 
Q 4144 3584 4550 3584 
Q 5097 3584 5394 3201 
Q 5691 2819 5691 2113 
L 5691 0 
L 5113 0 
L 5113 2094 
Q 5113 2597 4934 2840 
Q 4756 3084 4391 3084 
Q 3944 3084 3684 2787 
Q 3425 2491 3425 1978 
L 3425 0 
L 2847 0 
L 2847 2094 
Q 2847 2600 2669 2842 
Q 2491 3084 2119 3084 
Q 1678 3084 1418 2786 
Q 1159 2488 1159 1978 
L 1159 0 
L 581 0 
L 581 3500 
L 1159 3500 
L 1159 2956 
Q 1356 3278 1631 3431 
Q 1906 3584 2284 3584 
Q 2666 3584 2933 3390 
Q 3200 3197 3328 2828 
z
" transform="scale(0.015625)"/>
      <path id="DejaVuSans-75" d="M 544 1381 
L 544 3500 
L 1119 3500 
L 1119 1403 
Q 1119 906 1312 657 
Q 1506 409 1894 409 
Q 2359 409 2629 706 
Q 2900 1003 2900 1516 
L 2900 3500 
L 3475 3500 
L 3475 0 
L 2900 0 
L 2900 538 
Q 2691 219 2414 64 
Q 2138 -91 1772 -91 
Q 1169 -91 856 284 
Q 544 659 544 1381 
z
M 1991 3584 
L 1991 3584 
z
" transform="scale(0.015625)"/>
      <path id="DejaVuSans-67" d="M 2906 1791 
Q 2906 2416 2648 2759 
Q 2391 3103 1925 3103 
Q 1463 3103 1205 2759 
Q 947 2416 947 1791 
Q 947 1169 1205 825 
Q 1463 481 1925 481 
Q 2391 481 2648 825 
Q 2906 1169 2906 1791 
z
M 3481 434 
Q 3481 -459 3084 -895 
Q 2688 -1331 1869 -1331 
Q 1566 -1331 1297 -1286 
Q 1028 -1241 775 -1147 
L 775 -588 
Q 1028 -725 1275 -790 
Q 1522 -856 1778 -856 
Q 2344 -856 2625 -561 
Q 2906 -266 2906 331 
L 2906 616 
Q 2728 306 2450 153 
Q 2172 0 1784 0 
Q 1141 0 747 490 
Q 353 981 353 1791 
Q 353 2603 747 3093 
Q 1141 3584 1784 3584 
Q 2172 3584 2450 3431 
Q 2728 3278 2906 2969 
L 2906 3500 
L 3481 3500 
L 3481 434 
z
" transform="scale(0.015625)"/>
      <path id="DejaVuSans-54" d="M -19 4666 
L 3928 4666 
L 3928 4134 
L 2272 4134 
L 2272 0 
L 1638 0 
L 1638 4134 
L -19 4134 
L -19 4666 
z
" transform="scale(0.015625)"/>
     </defs>
     <use xlink:href="#DejaVuSans-47"/>
     <use xlink:href="#DejaVuSans-65" x="77.490234"/>
     <use xlink:href="#DejaVuSans-6e" x="139.013672"/>
     <use xlink:href="#DejaVuSans-65" x="202.392578"/>
     <use xlink:href="#DejaVuSans-72" x="263.916016"/>
     <use xlink:href="#DejaVuSans-61" x="305.029297"/>
     <use xlink:href="#DejaVuSans-74" x="366.308594"/>
     <use xlink:href="#DejaVuSans-6f" x="405.517578"/>
     <use xlink:href="#DejaVuSans-72" x="466.699219"/>
     <use xlink:href="#DejaVuSans-20" x="507.8125"/>
     <use xlink:href="#DejaVuSans-61" x="539.599609"/>
     <use xlink:href="#DejaVuSans-6e" x="600.878906"/>
     <use xlink:href="#DejaVuSans-64" x="664.257812"/>
     <use xlink:href="#DejaVuSans-20" x="727.734375"/>
     <use xlink:href="#DejaVuSans-44" x="759.521484"/>
     <use xlink:href="#DejaVuSans-69" x="836.523438"/>
     <use xlink:href="#DejaVuSans-73" x="864.306641"/>
     <use xlink:href="#DejaVuSans-63" x="916.40625"/>
     <use xlink:href="#DejaVuSans-72" x="971.386719"/>
     <use xlink:href="#DejaVuSans-69" x="1012.5"/>
     <use xlink:href="#DejaVuSans-6d" x="1040.283203"/>
     <use xlink:href="#DejaVuSans-69" x="1137.695312"/>
     <use xlink:href="#DejaVuSans-6e" x="1165.478516"/>
     <use xlink:href="#DejaVuSans-61" x="1228.857422"/>
     <use xlink:href="#DejaVuSans-74" x="1290.136719"/>
     <use xlink:href="#DejaVuSans-6f" x="1329.345703"/>
     <use xlink:href="#DejaVuSans-72" x="1390.527344"/>
     <use xlink:href="#DejaVuSans-20" x="1431.640625"/>
     <use xlink:href="#DejaVuSans-4c" x="1463.427734"/>
     <use xlink:href="#DejaVuSans-6f" x="1517.390625"/>
     <use xlink:href="#DejaVuSans-73" x="1578.572266"/>
     <use xlink:href="#DejaVuSans-73" x="1630.671875"/>
     <use xlink:href="#DejaVuSans-20" x="1682.771484"/>
     <use xlink:href="#DejaVuSans-44" x="1714.558594"/>
     <use xlink:href="#DejaVuSans-75" x="1791.560547"/>
     <use xlink:href="#DejaVuSans-72" x="1854.939453"/>
     <use xlink:href="#DejaVuSans-69" x="1896.052734"/>
     <use xlink:href="#DejaVuSans-6e" x="1923.835938"/>
     <use xlink:href="#DejaVuSans-67" x="1987.214844"/>
     <use xlink:href="#DejaVuSans-20" x="2050.691406"/>
     <use xlink:href="#DejaVuSans-54" x="2082.478516"/>
     <use xlink:href="#DejaVuSans-72" x="2128.8125"/>
     <use xlink:href="#DejaVuSans-61" x="2169.925781"/>
     <use xlink:href="#DejaVuSans-69" x="2231.205078"/>
     <use xlink:href="#DejaVuSans-6e" x="2258.988281"/>
     <use xlink:href="#DejaVuSans-69" x="2322.367188"/>
     <use xlink:href="#DejaVuSans-6e" x="2350.150391"/>
     <use xlink:href="#DejaVuSans-67" x="2413.529297"/>
    </g>
   </g>
   <g id="legend_1">
    <g id="patch_7">
     <path d="M 556.99375 106.14875 
L 636.490625 106.14875 
Q 640.490625 106.14875 640.490625 102.14875 
L 640.490625 45.43625 
Q 640.490625 41.43625 636.490625 41.43625 
L 556.99375 41.43625 
Q 552.99375 41.43625 552.99375 45.43625 
L 552.99375 102.14875 
Q 552.99375 106.14875 556.99375 106.14875 
z
" style="fill: #ffffff; opacity: 0.8; stroke: #cccccc; stroke-linejoin: miter"/>
    </g>
    <g id="line2d_16">
     <path d="M 560.99375 57.633125 
L 580.99375 57.633125 
L 600.99375 57.633125 
" style="fill: none; stroke: #1f77b4; stroke-width: 1.5; stroke-linecap: square"/>
    </g>
    <g id="text_17">
     <!-- G -->
     <g transform="translate(616.99375 64.633125) scale(0.2 -0.2)">
      <use xlink:href="#DejaVuSans-47"/>
     </g>
    </g>
    <g id="line2d_17">
     <path d="M 560.99375 86.989375 
L 580.99375 86.989375 
L 600.99375 86.989375 
" style="fill: none; stroke: #ff7f0e; stroke-width: 1.5; stroke-linecap: square"/>
    </g>
    <g id="text_18">
     <!-- D -->
     <g transform="translate(616.99375 93.989375) scale(0.2 -0.2)">
      <use xlink:href="#DejaVuSans-44"/>
     </g>
    </g>
   </g>
  </g>
 </g>
 <defs>
  <clipPath id="pccf3c90b9a">
   <rect x="92.490625" y="31.43625" width="558" height="277.2"/>
  </clipPath>
 </defs>
</svg>
