<?xml version="1.0" encoding="utf-8" standalone="no"?>
<!DOCTYPE svg PUBLIC "-//W3C//DTD SVG 1.1//EN"
  "http://www.w3.org/Graphics/SVG/1.1/DTD/svg11.dtd">
<svg xmlns:xlink="http://www.w3.org/1999/xlink" width="675.923125pt" height="365.54875pt" viewBox="0 0 675.923125 365.54875" xmlns="http://www.w3.org/2000/svg" version="1.1">
 <metadata>
  <rdf:RDF xmlns:dc="http://purl.org/dc/elements/1.1/" xmlns:cc="http://creativecommons.org/ns#" xmlns:rdf="http://www.w3.org/1999/02/22-rdf-syntax-ns#">
   <cc:Work>
    <dc:type rdf:resource="http://purl.org/dc/dcmitype/StillImage"/>
    <dc:date>2024-02-04T00:32:47.956248</dc:date>
    <dc:format>image/svg+xml</dc:format>
    <dc:creator>
     <cc:Agent>
      <dc:title>Matplotlib v3.7.2, https://matplotlib.org/</dc:title>
     </cc:Agent>
    </dc:creator>
   </cc:Work>
  </rdf:RDF>
 </metadata>
 <defs>
  <style type="text/css">*{stroke-linejoin: round; stroke-linecap: butt}</style>
 </defs>
 <g id="figure_1">
  <g id="patch_1">
   <path d="M 0 365.54875 
L 675.923125 365.54875 
L 675.923125 -0 
L 0 -0 
z
" style="fill: #ffffff"/>
  </g>
  <g id="axes_1">
   <g id="patch_2">
    <path d="M 92.490625 308.63625 
L 650.490625 308.63625 
L 650.490625 31.43625 
L 92.490625 31.43625 
z
" style="fill: #ffffff"/>
   </g>
   <g id="matplotlib.axis_1">
    <g id="xtick_1">
     <g id="line2d_1">
      <defs>
       <path id="m24e54714f9" d="M 0 0 
L 0 3.5 
" style="stroke: #000000; stroke-width: 0.8"/>
      </defs>
      <g>
       <use xlink:href="#m24e54714f9" x="117.854261" y="308.63625" style="stroke: #000000; stroke-width: 0.8"/>
      </g>
     </g>
     <g id="text_1">
      <!-- 0 -->
      <g transform="translate(111.491761 330.833125) scale(0.2 -0.2)">
       <defs>
        <path id="DejaVuSans-30" d="M 2034 4250 
Q 1547 4250 1301 3770 
Q 1056 3291 1056 2328 
Q 1056 1369 1301 889 
Q 1547 409 2034 409 
Q 2525 409 2770 889 
Q 3016 1369 3016 2328 
Q 3016 3291 2770 3770 
Q 2525 4250 2034 4250 
z
M 2034 4750 
Q 2819 4750 3233 4129 
Q 3647 3509 3647 2328 
Q 3647 1150 3233 529 
Q 2819 -91 2034 -91 
Q 1250 -91 836 529 
Q 422 1150 422 2328 
Q 422 3509 836 4129 
Q 1250 4750 2034 4750 
z
" transform="scale(0.015625)"/>
       </defs>
       <use xlink:href="#DejaVuSans-30"/>
      </g>
     </g>
    </g>
    <g id="xtick_2">
     <g id="line2d_2">
      <g>
       <use xlink:href="#m24e54714f9" x="219.308807" y="308.63625" style="stroke: #000000; stroke-width: 0.8"/>
      </g>
     </g>
     <g id="text_2">
      <!-- 50 -->
      <g transform="translate(206.583807 330.833125) scale(0.2 -0.2)">
       <defs>
        <path id="DejaVuSans-35" d="M 691 4666 
L 3169 4666 
L 3169 4134 
L 1269 4134 
L 1269 2991 
Q 1406 3038 1543 3061 
Q 1681 3084 1819 3084 
Q 2600 3084 3056 2656 
Q 3513 2228 3513 1497 
Q 3513 744 3044 326 
Q 2575 -91 1722 -91 
Q 1428 -91 1123 -41 
Q 819 9 494 109 
L 494 744 
Q 775 591 1075 516 
Q 1375 441 1709 441 
Q 2250 441 2565 725 
Q 2881 1009 2881 1497 
Q 2881 1984 2565 2268 
Q 2250 2553 1709 2553 
Q 1456 2553 1204 2497 
Q 953 2441 691 2322 
L 691 4666 
z
" transform="scale(0.015625)"/>
       </defs>
       <use xlink:href="#DejaVuSans-35"/>
       <use xlink:href="#DejaVuSans-30" x="63.623047"/>
      </g>
     </g>
    </g>
    <g id="xtick_3">
     <g id="line2d_3">
      <g>
       <use xlink:href="#m24e54714f9" x="320.763352" y="308.63625" style="stroke: #000000; stroke-width: 0.8"/>
      </g>
     </g>
     <g id="text_3">
      <!-- 100 -->
      <g transform="translate(301.675852 330.833125) scale(0.2 -0.2)">
       <defs>
        <path id="DejaVuSans-31" d="M 794 531 
L 1825 531 
L 1825 4091 
L 703 3866 
L 703 4441 
L 1819 4666 
L 2450 4666 
L 2450 531 
L 3481 531 
L 3481 0 
L 794 0 
L 794 531 
z
" transform="scale(0.015625)"/>
       </defs>
       <use xlink:href="#DejaVuSans-31"/>
       <use xlink:href="#DejaVuSans-30" x="63.623047"/>
       <use xlink:href="#DejaVuSans-30" x="127.246094"/>
      </g>
     </g>
    </g>
    <g id="xtick_4">
     <g id="line2d_4">
      <g>
       <use xlink:href="#m24e54714f9" x="422.217898" y="308.63625" style="stroke: #000000; stroke-width: 0.8"/>
      </g>
     </g>
     <g id="text_4">
      <!-- 150 -->
      <g transform="translate(403.130398 330.833125) scale(0.2 -0.2)">
       <use xlink:href="#DejaVuSans-31"/>
       <use xlink:href="#DejaVuSans-35" x="63.623047"/>
       <use xlink:href="#DejaVuSans-30" x="127.246094"/>
      </g>
     </g>
    </g>
    <g id="xtick_5">
     <g id="line2d_5">
      <g>
       <use xlink:href="#m24e54714f9" x="523.672443" y="308.63625" style="stroke: #000000; stroke-width: 0.8"/>
      </g>
     </g>
     <g id="text_5">
      <!-- 200 -->
      <g transform="translate(504.584943 330.833125) scale(0.2 -0.2)">
       <defs>
        <path id="DejaVuSans-32" d="M 1228 531 
L 3431 531 
L 3431 0 
L 469 0 
L 469 531 
Q 828 903 1448 1529 
Q 2069 2156 2228 2338 
Q 2531 2678 2651 2914 
Q 2772 3150 2772 3378 
Q 2772 3750 2511 3984 
Q 2250 4219 1831 4219 
Q 1534 4219 1204 4116 
Q 875 4013 500 3803 
L 500 4441 
Q 881 4594 1212 4672 
Q 1544 4750 1819 4750 
Q 2544 4750 2975 4387 
Q 3406 4025 3406 3419 
Q 3406 3131 3298 2873 
Q 3191 2616 2906 2266 
Q 2828 2175 2409 1742 
Q 1991 1309 1228 531 
z
" transform="scale(0.015625)"/>
       </defs>
       <use xlink:href="#DejaVuSans-32"/>
       <use xlink:href="#DejaVuSans-30" x="63.623047"/>
       <use xlink:href="#DejaVuSans-30" x="127.246094"/>
      </g>
     </g>
    </g>
    <g id="xtick_6">
     <g id="line2d_6">
      <g>
       <use xlink:href="#m24e54714f9" x="625.126989" y="308.63625" style="stroke: #000000; stroke-width: 0.8"/>
      </g>
     </g>
     <g id="text_6">
      <!-- 250 -->
      <g transform="translate(606.039489 330.833125) scale(0.2 -0.2)">
       <use xlink:href="#DejaVuSans-32"/>
       <use xlink:href="#DejaVuSans-35" x="63.623047"/>
       <use xlink:href="#DejaVuSans-30" x="127.246094"/>
      </g>
     </g>
    </g>
    <g id="text_7">
     <!-- iterations -->
     <g transform="translate(324.035938 354.189375) scale(0.2 -0.2)">
      <defs>
       <path id="DejaVuSans-69" d="M 603 3500 
L 1178 3500 
L 1178 0 
L 603 0 
L 603 3500 
z
M 603 4863 
L 1178 4863 
L 1178 4134 
L 603 4134 
L 603 4863 
z
" transform="scale(0.015625)"/>
       <path id="DejaVuSans-74" d="M 1172 4494 
L 1172 3500 
L 2356 3500 
L 2356 3053 
L 1172 3053 
L 1172 1153 
Q 1172 725 1289 603 
Q 1406 481 1766 481 
L 2356 481 
L 2356 0 
L 1766 0 
Q 1100 0 847 248 
Q 594 497 594 1153 
L 594 3053 
L 172 3053 
L 172 3500 
L 594 3500 
L 594 4494 
L 1172 4494 
z
" transform="scale(0.015625)"/>
       <path id="DejaVuSans-65" d="M 3597 1894 
L 3597 1613 
L 953 1613 
Q 991 1019 1311 708 
Q 1631 397 2203 397 
Q 2534 397 2845 478 
Q 3156 559 3463 722 
L 3463 178 
Q 3153 47 2828 -22 
Q 2503 -91 2169 -91 
Q 1331 -91 842 396 
Q 353 884 353 1716 
Q 353 2575 817 3079 
Q 1281 3584 2069 3584 
Q 2775 3584 3186 3129 
Q 3597 2675 3597 1894 
z
M 3022 2063 
Q 3016 2534 2758 2815 
Q 2500 3097 2075 3097 
Q 1594 3097 1305 2825 
Q 1016 2553 972 2059 
L 3022 2063 
z
" transform="scale(0.015625)"/>
       <path id="DejaVuSans-72" d="M 2631 2963 
Q 2534 3019 2420 3045 
Q 2306 3072 2169 3072 
Q 1681 3072 1420 2755 
Q 1159 2438 1159 1844 
L 1159 0 
L 581 0 
L 581 3500 
L 1159 3500 
L 1159 2956 
Q 1341 3275 1631 3429 
Q 1922 3584 2338 3584 
Q 2397 3584 2469 3576 
Q 2541 3569 2628 3553 
L 2631 2963 
z
" transform="scale(0.015625)"/>
       <path id="DejaVuSans-61" d="M 2194 1759 
Q 1497 1759 1228 1600 
Q 959 1441 959 1056 
Q 959 750 1161 570 
Q 1363 391 1709 391 
Q 2188 391 2477 730 
Q 2766 1069 2766 1631 
L 2766 1759 
L 2194 1759 
z
M 3341 1997 
L 3341 0 
L 2766 0 
L 2766 531 
Q 2569 213 2275 61 
Q 1981 -91 1556 -91 
Q 1019 -91 701 211 
Q 384 513 384 1019 
Q 384 1609 779 1909 
Q 1175 2209 1959 2209 
L 2766 2209 
L 2766 2266 
Q 2766 2663 2505 2880 
Q 2244 3097 1772 3097 
Q 1472 3097 1187 3025 
Q 903 2953 641 2809 
L 641 3341 
Q 956 3463 1253 3523 
Q 1550 3584 1831 3584 
Q 2591 3584 2966 3190 
Q 3341 2797 3341 1997 
z
" transform="scale(0.015625)"/>
       <path id="DejaVuSans-6f" d="M 1959 3097 
Q 1497 3097 1228 2736 
Q 959 2375 959 1747 
Q 959 1119 1226 758 
Q 1494 397 1959 397 
Q 2419 397 2687 759 
Q 2956 1122 2956 1747 
Q 2956 2369 2687 2733 
Q 2419 3097 1959 3097 
z
M 1959 3584 
Q 2709 3584 3137 3096 
Q 3566 2609 3566 1747 
Q 3566 888 3137 398 
Q 2709 -91 1959 -91 
Q 1206 -91 779 398 
Q 353 888 353 1747 
Q 353 2609 779 3096 
Q 1206 3584 1959 3584 
z
" transform="scale(0.015625)"/>
       <path id="DejaVuSans-6e" d="M 3513 2113 
L 3513 0 
L 2938 0 
L 2938 2094 
Q 2938 2591 2744 2837 
Q 2550 3084 2163 3084 
Q 1697 3084 1428 2787 
Q 1159 2491 1159 1978 
L 1159 0 
L 581 0 
L 581 3500 
L 1159 3500 
L 1159 2956 
Q 1366 3272 1645 3428 
Q 1925 3584 2291 3584 
Q 2894 3584 3203 3211 
Q 3513 2838 3513 2113 
z
" transform="scale(0.015625)"/>
       <path id="DejaVuSans-73" d="M 2834 3397 
L 2834 2853 
Q 2591 2978 2328 3040 
Q 2066 3103 1784 3103 
Q 1356 3103 1142 2972 
Q 928 2841 928 2578 
Q 928 2378 1081 2264 
Q 1234 2150 1697 2047 
L 1894 2003 
Q 2506 1872 2764 1633 
Q 3022 1394 3022 966 
Q 3022 478 2636 193 
Q 2250 -91 1575 -91 
Q 1294 -91 989 -36 
Q 684 19 347 128 
L 347 722 
Q 666 556 975 473 
Q 1284 391 1588 391 
Q 1994 391 2212 530 
Q 2431 669 2431 922 
Q 2431 1156 2273 1281 
Q 2116 1406 1581 1522 
L 1381 1569 
Q 847 1681 609 1914 
Q 372 2147 372 2553 
Q 372 3047 722 3315 
Q 1072 3584 1716 3584 
Q 2034 3584 2315 3537 
Q 2597 3491 2834 3397 
z
" transform="scale(0.015625)"/>
      </defs>
      <use xlink:href="#DejaVuSans-69"/>
      <use xlink:href="#DejaVuSans-74" x="27.783203"/>
      <use xlink:href="#DejaVuSans-65" x="66.992188"/>
      <use xlink:href="#DejaVuSans-72" x="128.515625"/>
      <use xlink:href="#DejaVuSans-61" x="169.628906"/>
      <use xlink:href="#DejaVuSans-74" x="230.908203"/>
      <use xlink:href="#DejaVuSans-69" x="270.117188"/>
      <use xlink:href="#DejaVuSans-6f" x="297.900391"/>
      <use xlink:href="#DejaVuSans-6e" x="359.082031"/>
      <use xlink:href="#DejaVuSans-73" x="422.460938"/>
     </g>
    </g>
   </g>
   <g id="matplotlib.axis_2">
    <g id="ytick_1">
     <g id="line2d_7">
      <defs>
       <path id="m179d320e2b" d="M 0 0 
L -3.5 0 
" style="stroke: #000000; stroke-width: 0.8"/>
      </defs>
      <g>
       <use xlink:href="#m179d320e2b" x="92.490625" y="295.148568" style="stroke: #000000; stroke-width: 0.8"/>
      </g>
     </g>
     <g id="text_8">
      <!-- −400 -->
      <g transform="translate(30.55625 302.747005) scale(0.2 -0.2)">
       <defs>
        <path id="DejaVuSans-2212" d="M 678 2272 
L 4684 2272 
L 4684 1741 
L 678 1741 
L 678 2272 
z
" transform="scale(0.015625)"/>
        <path id="DejaVuSans-34" d="M 2419 4116 
L 825 1625 
L 2419 1625 
L 2419 4116 
z
M 2253 4666 
L 3047 4666 
L 3047 1625 
L 3713 1625 
L 3713 1100 
L 3047 1100 
L 3047 0 
L 2419 0 
L 2419 1100 
L 313 1100 
L 313 1709 
L 2253 4666 
z
" transform="scale(0.015625)"/>
       </defs>
       <use xlink:href="#DejaVuSans-2212"/>
       <use xlink:href="#DejaVuSans-34" x="83.789062"/>
       <use xlink:href="#DejaVuSans-30" x="147.412109"/>
       <use xlink:href="#DejaVuSans-30" x="211.035156"/>
      </g>
     </g>
    </g>
    <g id="ytick_2">
     <g id="line2d_8">
      <g>
       <use xlink:href="#m179d320e2b" x="92.490625" y="237.405832" style="stroke: #000000; stroke-width: 0.8"/>
      </g>
     </g>
     <g id="text_9">
      <!-- −200 -->
      <g transform="translate(30.55625 245.00427) scale(0.2 -0.2)">
       <use xlink:href="#DejaVuSans-2212"/>
       <use xlink:href="#DejaVuSans-32" x="83.789062"/>
       <use xlink:href="#DejaVuSans-30" x="147.412109"/>
       <use xlink:href="#DejaVuSans-30" x="211.035156"/>
      </g>
     </g>
    </g>
    <g id="ytick_3">
     <g id="line2d_9">
      <g>
       <use xlink:href="#m179d320e2b" x="92.490625" y="179.663097" style="stroke: #000000; stroke-width: 0.8"/>
      </g>
     </g>
     <g id="text_10">
      <!-- 0 -->
      <g transform="translate(72.765625 187.261534) scale(0.2 -0.2)">
       <use xlink:href="#DejaVuSans-30"/>
      </g>
     </g>
    </g>
    <g id="ytick_4">
     <g id="line2d_10">
      <g>
       <use xlink:href="#m179d320e2b" x="92.490625" y="121.920361" style="stroke: #000000; stroke-width: 0.8"/>
      </g>
     </g>
     <g id="text_11">
      <!-- 200 -->
      <g transform="translate(47.315625 129.518799) scale(0.2 -0.2)">
       <use xlink:href="#DejaVuSans-32"/>
       <use xlink:href="#DejaVuSans-30" x="63.623047"/>
       <use xlink:href="#DejaVuSans-30" x="127.246094"/>
      </g>
     </g>
    </g>
    <g id="ytick_5">
     <g id="line2d_11">
      <g>
       <use xlink:href="#m179d320e2b" x="92.490625" y="64.177625" style="stroke: #000000; stroke-width: 0.8"/>
      </g>
     </g>
     <g id="text_12">
      <!-- 400 -->
      <g transform="translate(47.315625 71.776063) scale(0.2 -0.2)">
       <use xlink:href="#DejaVuSans-34"/>
       <use xlink:href="#DejaVuSans-30" x="63.623047"/>
       <use xlink:href="#DejaVuSans-30" x="127.246094"/>
      </g>
     </g>
    </g>
    <g id="text_13">
     <!-- Loss -->
     <g transform="translate(22.396875 191.970625) rotate(-90) scale(0.2 -0.2)">
      <defs>
       <path id="DejaVuSans-4c" d="M 628 4666 
L 1259 4666 
L 1259 531 
L 3531 531 
L 3531 0 
L 628 0 
L 628 4666 
z
" transform="scale(0.015625)"/>
      </defs>
      <use xlink:href="#DejaVuSans-4c"/>
      <use xlink:href="#DejaVuSans-6f" x="53.962891"/>
      <use xlink:href="#DejaVuSans-73" x="115.144531"/>
      <use xlink:href="#DejaVuSans-73" x="167.244141"/>
     </g>
    </g>
   </g>
   <g id="line2d_12">
    <path d="M 117.854261 139.751496 
L 119.883352 144.722794 
L 121.912443 162.598831 
L 123.941534 109.941422 
L 125.970625 44.03625 
L 127.999716 89.448318 
L 130.028807 77.551362 
L 132.057898 92.725377 
L 134.086989 106.365093 
L 136.11608 109.725828 
L 138.14517 120.640356 
L 140.174261 119.204262 
L 142.203352 119.595028 
L 144.232443 123.111252 
L 146.261534 128.275629 
L 148.290625 126.631141 
L 150.319716 125.789985 
L 154.377898 114.95142 
L 156.406989 111.128382 
L 158.43608 114.143471 
L 160.46517 119.564068 
L 162.494261 125.682262 
L 164.523352 126.858032 
L 166.552443 129.516622 
L 168.581534 138.461754 
L 170.610625 144.970436 
L 172.639716 142.237891 
L 174.668807 146.018436 
L 176.697898 148.27681 
L 178.726989 152.985986 
L 180.75608 146.939282 
L 182.78517 145.550269 
L 184.814261 146.154845 
L 186.843352 143.578088 
L 188.872443 142.120697 
L 190.901534 138.82778 
L 192.930625 137.32097 
L 194.959716 140.170434 
L 196.988807 149.749148 
L 199.017898 145.161919 
L 201.046989 144.809135 
L 203.07608 141.918695 
L 205.10517 142.056481 
L 207.134261 142.689369 
L 211.192443 144.888742 
L 213.221534 147.579569 
L 215.250625 144.557811 
L 217.279716 146.19867 
L 219.308807 147.266567 
L 221.337898 141.963787 
L 223.366989 146.561523 
L 225.39608 145.704415 
L 227.42517 146.942807 
L 229.454261 146.571102 
L 231.483352 148.992949 
L 233.512443 151.018944 
L 235.541534 149.433482 
L 237.570625 151.088431 
L 239.599716 151.882622 
L 241.628807 152.057159 
L 243.657898 155.39376 
L 245.686989 154.443253 
L 247.71608 155.064561 
L 249.74517 157.186868 
L 251.774261 157.456633 
L 253.803352 157.874685 
L 255.832443 161.618246 
L 257.861534 159.61991 
L 259.890625 160.24721 
L 261.919716 159.359568 
L 263.948807 159.626263 
L 265.977898 162.870984 
L 268.006989 162.820485 
L 270.03608 164.349312 
L 272.06517 160.682349 
L 274.094261 164.299326 
L 276.123352 159.838717 
L 278.152443 160.412177 
L 280.181534 159.96084 
L 282.210625 162.549048 
L 284.239716 159.617214 
L 286.268807 162.521514 
L 288.297898 163.72117 
L 290.326989 164.689134 
L 292.35608 166.947126 
L 294.38517 167.327422 
L 296.414261 166.729629 
L 298.443352 167.759036 
L 300.472443 165.917583 
L 302.501534 169.659523 
L 304.530625 169.737889 
L 306.559716 170.755676 
L 308.588807 167.899051 
L 310.617898 169.586443 
L 314.67608 170.564861 
L 316.70517 169.882117 
L 318.734261 172.760942 
L 320.763352 170.967299 
L 322.792443 170.438895 
L 324.821534 170.860476 
L 326.850625 172.297656 
L 328.879716 171.898915 
L 330.908807 172.457074 
L 332.937898 171.412696 
L 334.966989 172.181458 
L 336.99608 170.633335 
L 339.02517 169.350699 
L 341.054261 171.819749 
L 343.083352 170.702797 
L 345.112443 170.386568 
L 347.141534 171.764484 
L 349.170625 170.363681 
L 351.199716 170.943923 
L 353.228807 171.742956 
L 355.257898 173.321088 
L 357.286989 173.543595 
L 359.31608 173.401278 
L 361.34517 172.410984 
L 363.374261 172.754716 
L 365.403352 172.896141 
L 367.432443 172.496494 
L 369.461534 172.807733 
L 371.490625 172.372041 
L 373.519716 171.548362 
L 375.548807 172.908841 
L 379.606989 173.751662 
L 381.63608 173.680925 
L 383.66517 174.136271 
L 385.694261 173.041145 
L 387.723352 174.437231 
L 389.752443 172.369407 
L 391.781534 174.972957 
L 393.810625 174.250099 
L 395.839716 175.539665 
L 397.868807 174.034876 
L 399.897898 173.63476 
L 401.926989 174.998044 
L 405.98517 173.713275 
L 408.014261 173.768643 
L 410.043352 174.192507 
L 412.072443 175.217428 
L 414.101534 174.549207 
L 416.130625 175.102351 
L 418.159716 173.000769 
L 420.188807 173.396092 
L 422.217898 172.761269 
L 424.246989 172.24628 
L 426.27608 173.830064 
L 428.30517 172.971341 
L 430.334261 175.344392 
L 432.363352 176.316089 
L 434.392443 175.448675 
L 436.421534 174.720648 
L 438.450625 175.750386 
L 440.479716 175.270053 
L 442.508807 175.659534 
L 444.537898 175.802949 
L 446.566989 176.777934 
L 448.59608 176.066467 
L 450.62517 174.60952 
L 452.654261 175.701538 
L 454.683352 177.18643 
L 456.712443 177.146097 
L 460.770625 176.671732 
L 462.799716 177.625823 
L 464.828807 178.826261 
L 466.857898 178.840463 
L 468.886989 178.124467 
L 470.91608 178.644971 
L 472.94517 177.639782 
L 474.974261 178.637141 
L 477.003352 178.333677 
L 479.032443 178.623996 
L 481.061534 178.507095 
L 483.090625 178.055754 
L 485.119716 178.154192 
L 487.148807 177.461703 
L 489.177898 178.141784 
L 491.206989 178.66269 
L 493.23608 178.675581 
L 495.26517 178.230668 
L 497.294261 178.09883 
L 499.323352 178.652588 
L 501.352443 177.930105 
L 507.439716 179.523749 
L 509.468807 178.940492 
L 511.497898 180.274731 
L 513.526989 179.956917 
L 515.55608 179.352725 
L 517.58517 180.378575 
L 519.614261 179.36548 
L 521.643352 179.641085 
L 523.672443 178.456831 
L 527.730625 179.406886 
L 529.759716 179.82643 
L 531.788807 180.00236 
L 533.817898 180.935344 
L 535.846989 180.224525 
L 537.87608 180.851568 
L 539.90517 179.961341 
L 541.934261 180.187773 
L 543.963352 180.141461 
L 545.992443 181.494606 
L 548.021534 179.749474 
L 550.050625 181.661703 
L 552.079716 180.841325 
L 554.108807 181.108068 
L 556.137898 180.436024 
L 558.166989 181.135765 
L 560.19608 182.051575 
L 562.22517 181.42228 
L 564.254261 181.417484 
L 566.283352 181.192607 
L 568.312443 181.70878 
L 572.370625 183.370872 
L 574.399716 182.602122 
L 576.428807 181.152498 
L 578.457898 182.618152 
L 580.486989 182.96134 
L 582.51608 182.33576 
L 584.54517 182.827178 
L 586.574261 182.95431 
L 588.603352 182.864038 
L 590.632443 182.510754 
L 592.661534 183.230302 
L 594.690625 182.899408 
L 596.719716 183.054188 
L 600.777898 183.659796 
L 602.806989 183.253415 
L 604.83608 182.987873 
L 606.86517 183.77546 
L 608.894261 182.660957 
L 610.923352 183.157786 
L 612.952443 182.728784 
L 614.981534 183.01416 
L 617.010625 183.988878 
L 619.039716 184.529058 
L 621.068807 184.064193 
L 623.097898 184.222385 
L 625.126989 183.845806 
L 625.126989 183.845806 
" clip-path="url(#p7c28a133fa)" style="fill: none; stroke: #1f77b4; stroke-width: 1.5; stroke-linecap: square"/>
   </g>
   <g id="line2d_13">
    <path d="M 117.854261 296.03625 
L 119.883352 281.604935 
L 121.912443 284.937888 
L 123.941534 246.001987 
L 125.970625 270.950308 
L 127.999716 246.561247 
L 130.028807 236.099499 
L 132.057898 226.968639 
L 134.086989 210.778769 
L 136.11608 215.903882 
L 138.14517 216.941819 
L 140.174261 213.350333 
L 142.203352 209.154784 
L 144.232443 206.772593 
L 146.261534 203.915034 
L 148.290625 202.60435 
L 150.319716 206.177986 
L 152.348807 210.825042 
L 154.377898 216.91855 
L 156.406989 216.352314 
L 158.43608 218.493547 
L 160.46517 215.598695 
L 162.494261 218.69377 
L 164.523352 221.377916 
L 166.552443 221.237981 
L 168.581534 209.700687 
L 170.610625 203.982905 
L 172.639716 201.936608 
L 174.668807 196.027266 
L 176.697898 195.848203 
L 178.726989 187.438441 
L 180.75608 190.141416 
L 182.78517 189.42714 
L 184.814261 188.949437 
L 186.843352 190.792885 
L 188.872443 190.124215 
L 190.901534 190.46342 
L 192.930625 189.313475 
L 194.959716 188.765514 
L 196.988807 185.85427 
L 199.017898 186.505182 
L 201.046989 185.489899 
L 203.07608 185.992536 
L 205.10517 187.428099 
L 207.134261 187.422095 
L 213.221534 184.904326 
L 215.250625 186.32159 
L 217.279716 184.280463 
L 219.308807 185.073553 
L 221.337898 187.132296 
L 225.39608 185.552295 
L 227.42517 184.810089 
L 229.454261 185.770033 
L 231.483352 184.676514 
L 233.512443 184.446925 
L 235.541534 184.73742 
L 237.570625 185.756947 
L 239.599716 184.552798 
L 241.628807 184.889511 
L 243.657898 184.004759 
L 245.686989 183.901411 
L 247.71608 184.210607 
L 249.74517 183.773288 
L 251.774261 183.881292 
L 253.803352 184.302752 
L 255.832443 184.383936 
L 257.861534 184.847795 
L 259.890625 183.874218 
L 261.919716 183.985069 
L 263.948807 184.487505 
L 265.977898 182.909122 
L 268.006989 182.846106 
L 270.03608 183.355634 
L 272.06517 184.113366 
L 274.094261 183.175639 
L 276.123352 183.903217 
L 278.152443 183.699209 
L 280.181534 183.061725 
L 282.210625 183.196088 
L 284.239716 185.027866 
L 286.268807 184.126514 
L 288.297898 183.024234 
L 290.326989 183.024664 
L 292.35608 182.908792 
L 294.38517 182.921731 
L 296.414261 183.446698 
L 298.443352 183.231953 
L 300.472443 183.782402 
L 302.501534 183.157305 
L 306.559716 183.542492 
L 308.588807 183.446975 
L 310.617898 182.928913 
L 312.646989 183.836236 
L 314.67608 183.736315 
L 316.70517 183.907988 
L 318.734261 183.273056 
L 320.763352 183.490009 
L 322.792443 182.720341 
L 324.821534 182.625096 
L 326.850625 182.920247 
L 328.879716 183.852156 
L 330.908807 182.802564 
L 332.937898 182.738626 
L 334.966989 182.801259 
L 339.02517 183.681555 
L 341.054261 182.885937 
L 343.083352 183.817856 
L 345.112443 183.130461 
L 347.141534 183.143888 
L 351.199716 182.841679 
L 353.228807 183.534285 
L 355.257898 182.956399 
L 357.286989 183.1017 
L 359.31608 183.593199 
L 361.34517 183.231413 
L 363.374261 183.494154 
L 365.403352 182.587269 
L 367.432443 182.967965 
L 369.461534 183.233486 
L 371.490625 183.014462 
L 373.519716 183.921541 
L 375.548807 183.145828 
L 377.577898 184.071561 
L 379.606989 183.153563 
L 381.63608 183.120939 
L 383.66517 183.217194 
L 385.694261 182.82653 
L 387.723352 183.195985 
L 389.752443 183.2152 
L 391.781534 182.068551 
L 393.810625 182.517478 
L 395.839716 183.2954 
L 397.868807 183.449769 
L 399.897898 183.395169 
L 401.926989 183.713621 
L 403.95608 182.791018 
L 405.98517 182.950666 
L 408.014261 183.437971 
L 410.043352 183.397177 
L 412.072443 182.63061 
L 414.101534 183.785292 
L 416.130625 182.474261 
L 418.159716 183.387489 
L 420.188807 182.480907 
L 422.217898 183.151485 
L 426.27608 182.730728 
L 428.30517 183.290475 
L 430.334261 182.409606 
L 432.363352 182.700566 
L 434.392443 183.743703 
L 436.421534 182.943793 
L 442.508807 182.818776 
L 444.537898 183.03813 
L 446.566989 182.991935 
L 448.59608 183.939272 
L 450.62517 183.640936 
L 452.654261 182.692036 
L 454.683352 182.555659 
L 456.712443 182.842249 
L 458.741534 182.57223 
L 460.770625 183.123184 
L 462.799716 182.891681 
L 464.828807 183.99973 
L 468.886989 182.255185 
L 470.91608 182.325751 
L 474.974261 182.950932 
L 477.003352 182.766578 
L 479.032443 183.213411 
L 481.061534 182.990066 
L 483.090625 183.10962 
L 485.119716 182.88939 
L 487.148807 183.19995 
L 489.177898 182.548171 
L 491.206989 182.331845 
L 493.23608 182.754582 
L 495.26517 182.386773 
L 497.294261 182.499166 
L 499.323352 183.056651 
L 501.352443 182.807802 
L 503.381534 183.105543 
L 505.410625 182.743468 
L 507.439716 183.52151 
L 509.468807 182.973611 
L 519.614261 183.079528 
L 521.643352 182.768168 
L 525.701534 182.513927 
L 529.759716 182.752587 
L 531.788807 183.008193 
L 533.817898 183.679111 
L 537.87608 182.806429 
L 539.90517 182.954243 
L 548.021534 183.070869 
L 550.050625 183.105361 
L 552.079716 182.863134 
L 556.137898 183.206005 
L 560.19608 182.746778 
L 564.254261 183.31884 
L 566.283352 183.573065 
L 568.312443 183.018668 
L 570.341534 183.043531 
L 572.370625 183.317399 
L 576.428807 183.136009 
L 578.457898 183.506695 
L 580.486989 183.383708 
L 582.51608 183.030956 
L 586.574261 183.255503 
L 588.603352 183.74766 
L 590.632443 183.539514 
L 592.661534 184.122744 
L 594.690625 183.116812 
L 596.719716 183.055189 
L 600.777898 183.218949 
L 606.86517 183.497466 
L 608.894261 183.173385 
L 610.923352 183.701313 
L 612.952443 183.1398 
L 617.010625 183.983366 
L 619.039716 183.509783 
L 621.068807 183.31685 
L 623.097898 183.477441 
L 625.126989 182.976603 
L 625.126989 182.976603 
" clip-path="url(#p7c28a133fa)" style="fill: none; stroke: #ff7f0e; stroke-width: 1.5; stroke-linecap: square"/>
   </g>
   <g id="patch_3">
    <path d="M 92.490625 308.63625 
L 92.490625 31.43625 
" style="fill: none; stroke: #000000; stroke-width: 0.8; stroke-linejoin: miter; stroke-linecap: square"/>
   </g>
   <g id="patch_4">
    <path d="M 650.490625 308.63625 
L 650.490625 31.43625 
" style="fill: none; stroke: #000000; stroke-width: 0.8; stroke-linejoin: miter; stroke-linecap: square"/>
   </g>
   <g id="patch_5">
    <path d="M 92.490625 308.63625 
L 650.490625 308.63625 
" style="fill: none; stroke: #000000; stroke-width: 0.8; stroke-linejoin: miter; stroke-linecap: square"/>
   </g>
   <g id="patch_6">
    <path d="M 92.490625 31.43625 
L 650.490625 31.43625 
" style="fill: none; stroke: #000000; stroke-width: 0.8; stroke-linejoin: miter; stroke-linecap: square"/>
   </g>
   <g id="text_14">
    <!-- Generator and Discriminator Loss During Training -->
    <g transform="translate(74.258125 25.43625) scale(0.24 -0.24)">
     <defs>
      <path id="DejaVuSans-47" d="M 3809 666 
L 3809 1919 
L 2778 1919 
L 2778 2438 
L 4434 2438 
L 4434 434 
Q 4069 175 3628 42 
Q 3188 -91 2688 -91 
Q 1594 -91 976 548 
Q 359 1188 359 2328 
Q 359 3472 976 4111 
Q 1594 4750 2688 4750 
Q 3144 4750 3555 4637 
Q 3966 4525 4313 4306 
L 4313 3634 
Q 3963 3931 3569 4081 
Q 3175 4231 2741 4231 
Q 1884 4231 1454 3753 
Q 1025 3275 1025 2328 
Q 1025 1384 1454 906 
Q 1884 428 2741 428 
Q 3075 428 3337 486 
Q 3600 544 3809 666 
z
" transform="scale(0.015625)"/>
      <path id="DejaVuSans-20" transform="scale(0.015625)"/>
      <path id="DejaVuSans-64" d="M 2906 2969 
L 2906 4863 
L 3481 4863 
L 3481 0 
L 2906 0 
L 2906 525 
Q 2725 213 2448 61 
Q 2172 -91 1784 -91 
Q 1150 -91 751 415 
Q 353 922 353 1747 
Q 353 2572 751 3078 
Q 1150 3584 1784 3584 
Q 2172 3584 2448 3432 
Q 2725 3281 2906 2969 
z
M 947 1747 
Q 947 1113 1208 752 
Q 1469 391 1925 391 
Q 2381 391 2643 752 
Q 2906 1113 2906 1747 
Q 2906 2381 2643 2742 
Q 2381 3103 1925 3103 
Q 1469 3103 1208 2742 
Q 947 2381 947 1747 
z
" transform="scale(0.015625)"/>
      <path id="DejaVuSans-44" d="M 1259 4147 
L 1259 519 
L 2022 519 
Q 2988 519 3436 956 
Q 3884 1394 3884 2338 
Q 3884 3275 3436 3711 
Q 2988 4147 2022 4147 
L 1259 4147 
z
M 628 4666 
L 1925 4666 
Q 3281 4666 3915 4102 
Q 4550 3538 4550 2338 
Q 4550 1131 3912 565 
Q 3275 0 1925 0 
L 628 0 
L 628 4666 
z
" transform="scale(0.015625)"/>
      <path id="DejaVuSans-63" d="M 3122 3366 
L 3122 2828 
Q 2878 2963 2633 3030 
Q 2388 3097 2138 3097 
Q 1578 3097 1268 2742 
Q 959 2388 959 1747 
Q 959 1106 1268 751 
Q 1578 397 2138 397 
Q 2388 397 2633 464 
Q 2878 531 3122 666 
L 3122 134 
Q 2881 22 2623 -34 
Q 2366 -91 2075 -91 
Q 1284 -91 818 406 
Q 353 903 353 1747 
Q 353 2603 823 3093 
Q 1294 3584 2113 3584 
Q 2378 3584 2631 3529 
Q 2884 3475 3122 3366 
z
" transform="scale(0.015625)"/>
      <path id="DejaVuSans-6d" d="M 3328 2828 
Q 3544 3216 3844 3400 
Q 4144 3584 4550 3584 
Q 5097 3584 5394 3201 
Q 5691 2819 5691 2113 
L 5691 0 
L 5113 0 
L 5113 2094 
Q 5113 2597 4934 2840 
Q 4756 3084 4391 3084 
Q 3944 3084 3684 2787 
Q 3425 2491 3425 1978 
L 3425 0 
L 2847 0 
L 2847 2094 
Q 2847 2600 2669 2842 
Q 2491 3084 2119 3084 
Q 1678 3084 1418 2786 
Q 1159 2488 1159 1978 
L 1159 0 
L 581 0 
L 581 3500 
L 1159 3500 
L 1159 2956 
Q 1356 3278 1631 3431 
Q 1906 3584 2284 3584 
Q 2666 3584 2933 3390 
Q 3200 3197 3328 2828 
z
" transform="scale(0.015625)"/>
      <path id="DejaVuSans-75" d="M 544 1381 
L 544 3500 
L 1119 3500 
L 1119 1403 
Q 1119 906 1312 657 
Q 1506 409 1894 409 
Q 2359 409 2629 706 
Q 2900 1003 2900 1516 
L 2900 3500 
L 3475 3500 
L 3475 0 
L 2900 0 
L 2900 538 
Q 2691 219 2414 64 
Q 2138 -91 1772 -91 
Q 1169 -91 856 284 
Q 544 659 544 1381 
z
M 1991 3584 
L 1991 3584 
z
" transform="scale(0.015625)"/>
      <path id="DejaVuSans-67" d="M 2906 1791 
Q 2906 2416 2648 2759 
Q 2391 3103 1925 3103 
Q 1463 3103 1205 2759 
Q 947 2416 947 1791 
Q 947 1169 1205 825 
Q 1463 481 1925 481 
Q 2391 481 2648 825 
Q 2906 1169 2906 1791 
z
M 3481 434 
Q 3481 -459 3084 -895 
Q 2688 -1331 1869 -1331 
Q 1566 -1331 1297 -1286 
Q 1028 -1241 775 -1147 
L 775 -588 
Q 1028 -725 1275 -790 
Q 1522 -856 1778 -856 
Q 2344 -856 2625 -561 
Q 2906 -266 2906 331 
L 2906 616 
Q 2728 306 2450 153 
Q 2172 0 1784 0 
Q 1141 0 747 490 
Q 353 981 353 1791 
Q 353 2603 747 3093 
Q 1141 3584 1784 3584 
Q 2172 3584 2450 3431 
Q 2728 3278 2906 2969 
L 2906 3500 
L 3481 3500 
L 3481 434 
z
" transform="scale(0.015625)"/>
      <path id="DejaVuSans-54" d="M -19 4666 
L 3928 4666 
L 3928 4134 
L 2272 4134 
L 2272 0 
L 1638 0 
L 1638 4134 
L -19 4134 
L -19 4666 
z
" transform="scale(0.015625)"/>
     </defs>
     <use xlink:href="#DejaVuSans-47"/>
     <use xlink:href="#DejaVuSans-65" x="77.490234"/>
     <use xlink:href="#DejaVuSans-6e" x="139.013672"/>
     <use xlink:href="#DejaVuSans-65" x="202.392578"/>
     <use xlink:href="#DejaVuSans-72" x="263.916016"/>
     <use xlink:href="#DejaVuSans-61" x="305.029297"/>
     <use xlink:href="#DejaVuSans-74" x="366.308594"/>
     <use xlink:href="#DejaVuSans-6f" x="405.517578"/>
     <use xlink:href="#DejaVuSans-72" x="466.699219"/>
     <use xlink:href="#DejaVuSans-20" x="507.8125"/>
     <use xlink:href="#DejaVuSans-61" x="539.599609"/>
     <use xlink:href="#DejaVuSans-6e" x="600.878906"/>
     <use xlink:href="#DejaVuSans-64" x="664.257812"/>
     <use xlink:href="#DejaVuSans-20" x="727.734375"/>
     <use xlink:href="#DejaVuSans-44" x="759.521484"/>
     <use xlink:href="#DejaVuSans-69" x="836.523438"/>
     <use xlink:href="#DejaVuSans-73" x="864.306641"/>
     <use xlink:href="#DejaVuSans-63" x="916.40625"/>
     <use xlink:href="#DejaVuSans-72" x="971.386719"/>
     <use xlink:href="#DejaVuSans-69" x="1012.5"/>
     <use xlink:href="#DejaVuSans-6d" x="1040.283203"/>
     <use xlink:href="#DejaVuSans-69" x="1137.695312"/>
     <use xlink:href="#DejaVuSans-6e" x="1165.478516"/>
     <use xlink:href="#DejaVuSans-61" x="1228.857422"/>
     <use xlink:href="#DejaVuSans-74" x="1290.136719"/>
     <use xlink:href="#DejaVuSans-6f" x="1329.345703"/>
     <use xlink:href="#DejaVuSans-72" x="1390.527344"/>
     <use xlink:href="#DejaVuSans-20" x="1431.640625"/>
     <use xlink:href="#DejaVuSans-4c" x="1463.427734"/>
     <use xlink:href="#DejaVuSans-6f" x="1517.390625"/>
     <use xlink:href="#DejaVuSans-73" x="1578.572266"/>
     <use xlink:href="#DejaVuSans-73" x="1630.671875"/>
     <use xlink:href="#DejaVuSans-20" x="1682.771484"/>
     <use xlink:href="#DejaVuSans-44" x="1714.558594"/>
     <use xlink:href="#DejaVuSans-75" x="1791.560547"/>
     <use xlink:href="#DejaVuSans-72" x="1854.939453"/>
     <use xlink:href="#DejaVuSans-69" x="1896.052734"/>
     <use xlink:href="#DejaVuSans-6e" x="1923.835938"/>
     <use xlink:href="#DejaVuSans-67" x="1987.214844"/>
     <use xlink:href="#DejaVuSans-20" x="2050.691406"/>
     <use xlink:href="#DejaVuSans-54" x="2082.478516"/>
     <use xlink:href="#DejaVuSans-72" x="2128.8125"/>
     <use xlink:href="#DejaVuSans-61" x="2169.925781"/>
     <use xlink:href="#DejaVuSans-69" x="2231.205078"/>
     <use xlink:href="#DejaVuSans-6e" x="2258.988281"/>
     <use xlink:href="#DejaVuSans-69" x="2322.367188"/>
     <use xlink:href="#DejaVuSans-6e" x="2350.150391"/>
     <use xlink:href="#DejaVuSans-67" x="2413.529297"/>
    </g>
   </g>
   <g id="legend_1">
    <g id="patch_7">
     <path d="M 556.99375 106.14875 
L 636.490625 106.14875 
Q 640.490625 106.14875 640.490625 102.14875 
L 640.490625 45.43625 
Q 640.490625 41.43625 636.490625 41.43625 
L 556.99375 41.43625 
Q 552.99375 41.43625 552.99375 45.43625 
L 552.99375 102.14875 
Q 552.99375 106.14875 556.99375 106.14875 
z
" style="fill: #ffffff; opacity: 0.8; stroke: #cccccc; stroke-linejoin: miter"/>
    </g>
    <g id="line2d_14">
     <path d="M 560.99375 57.633125 
L 580.99375 57.633125 
L 600.99375 57.633125 
" style="fill: none; stroke: #1f77b4; stroke-width: 1.5; stroke-linecap: square"/>
    </g>
    <g id="text_15">
     <!-- G -->
     <g transform="translate(616.99375 64.633125) scale(0.2 -0.2)">
      <use xlink:href="#DejaVuSans-47"/>
     </g>
    </g>
    <g id="line2d_15">
     <path d="M 560.99375 86.989375 
L 580.99375 86.989375 
L 600.99375 86.989375 
" style="fill: none; stroke: #ff7f0e; stroke-width: 1.5; stroke-linecap: square"/>
    </g>
    <g id="text_16">
     <!-- D -->
     <g transform="translate(616.99375 93.989375) scale(0.2 -0.2)">
      <use xlink:href="#DejaVuSans-44"/>
     </g>
    </g>
   </g>
  </g>
 </g>
 <defs>
  <clipPath id="p7c28a133fa">
   <rect x="92.490625" y="31.43625" width="558" height="277.2"/>
  </clipPath>
 </defs>
</svg>
