<?xml version="1.0" encoding="utf-8" standalone="no"?>
<!DOCTYPE svg PUBLIC "-//W3C//DTD SVG 1.1//EN"
  "http://www.w3.org/Graphics/SVG/1.1/DTD/svg11.dtd">
<svg xmlns:xlink="http://www.w3.org/1999/xlink" width="675.923125pt" height="365.54875pt" viewBox="0 0 675.923125 365.54875" xmlns="http://www.w3.org/2000/svg" version="1.1">
 <metadata>
  <rdf:RDF xmlns:dc="http://purl.org/dc/elements/1.1/" xmlns:cc="http://creativecommons.org/ns#" xmlns:rdf="http://www.w3.org/1999/02/22-rdf-syntax-ns#">
   <cc:Work>
    <dc:type rdf:resource="http://purl.org/dc/dcmitype/StillImage"/>
    <dc:date>2024-02-02T19:11:25.207566</dc:date>
    <dc:format>image/svg+xml</dc:format>
    <dc:creator>
     <cc:Agent>
      <dc:title>Matplotlib v3.7.2, https://matplotlib.org/</dc:title>
     </cc:Agent>
    </dc:creator>
   </cc:Work>
  </rdf:RDF>
 </metadata>
 <defs>
  <style type="text/css">*{stroke-linejoin: round; stroke-linecap: butt}</style>
 </defs>
 <g id="figure_1">
  <g id="patch_1">
   <path d="M 0 365.54875 
L 675.923125 365.54875 
L 675.923125 -0 
L 0 -0 
z
" style="fill: #ffffff"/>
  </g>
  <g id="axes_1">
   <g id="patch_2">
    <path d="M 92.490625 308.63625 
L 650.490625 308.63625 
L 650.490625 31.43625 
L 92.490625 31.43625 
z
" style="fill: #ffffff"/>
   </g>
   <g id="matplotlib.axis_1">
    <g id="xtick_1">
     <g id="line2d_1">
      <defs>
       <path id="m99863b5bb2" d="M 0 0 
L 0 3.5 
" style="stroke: #000000; stroke-width: 0.8"/>
      </defs>
      <g>
       <use xlink:href="#m99863b5bb2" x="117.854261" y="308.63625" style="stroke: #000000; stroke-width: 0.8"/>
      </g>
     </g>
     <g id="text_1">
      <!-- 0 -->
      <g transform="translate(111.491761 330.833125) scale(0.2 -0.2)">
       <defs>
        <path id="DejaVuSans-30" d="M 2034 4250 
Q 1547 4250 1301 3770 
Q 1056 3291 1056 2328 
Q 1056 1369 1301 889 
Q 1547 409 2034 409 
Q 2525 409 2770 889 
Q 3016 1369 3016 2328 
Q 3016 3291 2770 3770 
Q 2525 4250 2034 4250 
z
M 2034 4750 
Q 2819 4750 3233 4129 
Q 3647 3509 3647 2328 
Q 3647 1150 3233 529 
Q 2819 -91 2034 -91 
Q 1250 -91 836 529 
Q 422 1150 422 2328 
Q 422 3509 836 4129 
Q 1250 4750 2034 4750 
z
" transform="scale(0.015625)"/>
       </defs>
       <use xlink:href="#DejaVuSans-30"/>
      </g>
     </g>
    </g>
    <g id="xtick_2">
     <g id="line2d_2">
      <g>
       <use xlink:href="#m99863b5bb2" x="181.263352" y="308.63625" style="stroke: #000000; stroke-width: 0.8"/>
      </g>
     </g>
     <g id="text_2">
      <!-- 100 -->
      <g transform="translate(162.175852 330.833125) scale(0.2 -0.2)">
       <defs>
        <path id="DejaVuSans-31" d="M 794 531 
L 1825 531 
L 1825 4091 
L 703 3866 
L 703 4441 
L 1819 4666 
L 2450 4666 
L 2450 531 
L 3481 531 
L 3481 0 
L 794 0 
L 794 531 
z
" transform="scale(0.015625)"/>
       </defs>
       <use xlink:href="#DejaVuSans-31"/>
       <use xlink:href="#DejaVuSans-30" x="63.623047"/>
       <use xlink:href="#DejaVuSans-30" x="127.246094"/>
      </g>
     </g>
    </g>
    <g id="xtick_3">
     <g id="line2d_3">
      <g>
       <use xlink:href="#m99863b5bb2" x="244.672443" y="308.63625" style="stroke: #000000; stroke-width: 0.8"/>
      </g>
     </g>
     <g id="text_3">
      <!-- 200 -->
      <g transform="translate(225.584943 330.833125) scale(0.2 -0.2)">
       <defs>
        <path id="DejaVuSans-32" d="M 1228 531 
L 3431 531 
L 3431 0 
L 469 0 
L 469 531 
Q 828 903 1448 1529 
Q 2069 2156 2228 2338 
Q 2531 2678 2651 2914 
Q 2772 3150 2772 3378 
Q 2772 3750 2511 3984 
Q 2250 4219 1831 4219 
Q 1534 4219 1204 4116 
Q 875 4013 500 3803 
L 500 4441 
Q 881 4594 1212 4672 
Q 1544 4750 1819 4750 
Q 2544 4750 2975 4387 
Q 3406 4025 3406 3419 
Q 3406 3131 3298 2873 
Q 3191 2616 2906 2266 
Q 2828 2175 2409 1742 
Q 1991 1309 1228 531 
z
" transform="scale(0.015625)"/>
       </defs>
       <use xlink:href="#DejaVuSans-32"/>
       <use xlink:href="#DejaVuSans-30" x="63.623047"/>
       <use xlink:href="#DejaVuSans-30" x="127.246094"/>
      </g>
     </g>
    </g>
    <g id="xtick_4">
     <g id="line2d_4">
      <g>
       <use xlink:href="#m99863b5bb2" x="308.081534" y="308.63625" style="stroke: #000000; stroke-width: 0.8"/>
      </g>
     </g>
     <g id="text_4">
      <!-- 300 -->
      <g transform="translate(288.994034 330.833125) scale(0.2 -0.2)">
       <defs>
        <path id="DejaVuSans-33" d="M 2597 2516 
Q 3050 2419 3304 2112 
Q 3559 1806 3559 1356 
Q 3559 666 3084 287 
Q 2609 -91 1734 -91 
Q 1441 -91 1130 -33 
Q 819 25 488 141 
L 488 750 
Q 750 597 1062 519 
Q 1375 441 1716 441 
Q 2309 441 2620 675 
Q 2931 909 2931 1356 
Q 2931 1769 2642 2001 
Q 2353 2234 1838 2234 
L 1294 2234 
L 1294 2753 
L 1863 2753 
Q 2328 2753 2575 2939 
Q 2822 3125 2822 3475 
Q 2822 3834 2567 4026 
Q 2313 4219 1838 4219 
Q 1578 4219 1281 4162 
Q 984 4106 628 3988 
L 628 4550 
Q 988 4650 1302 4700 
Q 1616 4750 1894 4750 
Q 2613 4750 3031 4423 
Q 3450 4097 3450 3541 
Q 3450 3153 3228 2886 
Q 3006 2619 2597 2516 
z
" transform="scale(0.015625)"/>
       </defs>
       <use xlink:href="#DejaVuSans-33"/>
       <use xlink:href="#DejaVuSans-30" x="63.623047"/>
       <use xlink:href="#DejaVuSans-30" x="127.246094"/>
      </g>
     </g>
    </g>
    <g id="xtick_5">
     <g id="line2d_5">
      <g>
       <use xlink:href="#m99863b5bb2" x="371.490625" y="308.63625" style="stroke: #000000; stroke-width: 0.8"/>
      </g>
     </g>
     <g id="text_5">
      <!-- 400 -->
      <g transform="translate(352.403125 330.833125) scale(0.2 -0.2)">
       <defs>
        <path id="DejaVuSans-34" d="M 2419 4116 
L 825 1625 
L 2419 1625 
L 2419 4116 
z
M 2253 4666 
L 3047 4666 
L 3047 1625 
L 3713 1625 
L 3713 1100 
L 3047 1100 
L 3047 0 
L 2419 0 
L 2419 1100 
L 313 1100 
L 313 1709 
L 2253 4666 
z
" transform="scale(0.015625)"/>
       </defs>
       <use xlink:href="#DejaVuSans-34"/>
       <use xlink:href="#DejaVuSans-30" x="63.623047"/>
       <use xlink:href="#DejaVuSans-30" x="127.246094"/>
      </g>
     </g>
    </g>
    <g id="xtick_6">
     <g id="line2d_6">
      <g>
       <use xlink:href="#m99863b5bb2" x="434.899716" y="308.63625" style="stroke: #000000; stroke-width: 0.8"/>
      </g>
     </g>
     <g id="text_6">
      <!-- 500 -->
      <g transform="translate(415.812216 330.833125) scale(0.2 -0.2)">
       <defs>
        <path id="DejaVuSans-35" d="M 691 4666 
L 3169 4666 
L 3169 4134 
L 1269 4134 
L 1269 2991 
Q 1406 3038 1543 3061 
Q 1681 3084 1819 3084 
Q 2600 3084 3056 2656 
Q 3513 2228 3513 1497 
Q 3513 744 3044 326 
Q 2575 -91 1722 -91 
Q 1428 -91 1123 -41 
Q 819 9 494 109 
L 494 744 
Q 775 591 1075 516 
Q 1375 441 1709 441 
Q 2250 441 2565 725 
Q 2881 1009 2881 1497 
Q 2881 1984 2565 2268 
Q 2250 2553 1709 2553 
Q 1456 2553 1204 2497 
Q 953 2441 691 2322 
L 691 4666 
z
" transform="scale(0.015625)"/>
       </defs>
       <use xlink:href="#DejaVuSans-35"/>
       <use xlink:href="#DejaVuSans-30" x="63.623047"/>
       <use xlink:href="#DejaVuSans-30" x="127.246094"/>
      </g>
     </g>
    </g>
    <g id="xtick_7">
     <g id="line2d_7">
      <g>
       <use xlink:href="#m99863b5bb2" x="498.308807" y="308.63625" style="stroke: #000000; stroke-width: 0.8"/>
      </g>
     </g>
     <g id="text_7">
      <!-- 600 -->
      <g transform="translate(479.221307 330.833125) scale(0.2 -0.2)">
       <defs>
        <path id="DejaVuSans-36" d="M 2113 2584 
Q 1688 2584 1439 2293 
Q 1191 2003 1191 1497 
Q 1191 994 1439 701 
Q 1688 409 2113 409 
Q 2538 409 2786 701 
Q 3034 994 3034 1497 
Q 3034 2003 2786 2293 
Q 2538 2584 2113 2584 
z
M 3366 4563 
L 3366 3988 
Q 3128 4100 2886 4159 
Q 2644 4219 2406 4219 
Q 1781 4219 1451 3797 
Q 1122 3375 1075 2522 
Q 1259 2794 1537 2939 
Q 1816 3084 2150 3084 
Q 2853 3084 3261 2657 
Q 3669 2231 3669 1497 
Q 3669 778 3244 343 
Q 2819 -91 2113 -91 
Q 1303 -91 875 529 
Q 447 1150 447 2328 
Q 447 3434 972 4092 
Q 1497 4750 2381 4750 
Q 2619 4750 2861 4703 
Q 3103 4656 3366 4563 
z
" transform="scale(0.015625)"/>
       </defs>
       <use xlink:href="#DejaVuSans-36"/>
       <use xlink:href="#DejaVuSans-30" x="63.623047"/>
       <use xlink:href="#DejaVuSans-30" x="127.246094"/>
      </g>
     </g>
    </g>
    <g id="xtick_8">
     <g id="line2d_8">
      <g>
       <use xlink:href="#m99863b5bb2" x="561.717898" y="308.63625" style="stroke: #000000; stroke-width: 0.8"/>
      </g>
     </g>
     <g id="text_8">
      <!-- 700 -->
      <g transform="translate(542.630398 330.833125) scale(0.2 -0.2)">
       <defs>
        <path id="DejaVuSans-37" d="M 525 4666 
L 3525 4666 
L 3525 4397 
L 1831 0 
L 1172 0 
L 2766 4134 
L 525 4134 
L 525 4666 
z
" transform="scale(0.015625)"/>
       </defs>
       <use xlink:href="#DejaVuSans-37"/>
       <use xlink:href="#DejaVuSans-30" x="63.623047"/>
       <use xlink:href="#DejaVuSans-30" x="127.246094"/>
      </g>
     </g>
    </g>
    <g id="xtick_9">
     <g id="line2d_9">
      <g>
       <use xlink:href="#m99863b5bb2" x="625.126989" y="308.63625" style="stroke: #000000; stroke-width: 0.8"/>
      </g>
     </g>
     <g id="text_9">
      <!-- 800 -->
      <g transform="translate(606.039489 330.833125) scale(0.2 -0.2)">
       <defs>
        <path id="DejaVuSans-38" d="M 2034 2216 
Q 1584 2216 1326 1975 
Q 1069 1734 1069 1313 
Q 1069 891 1326 650 
Q 1584 409 2034 409 
Q 2484 409 2743 651 
Q 3003 894 3003 1313 
Q 3003 1734 2745 1975 
Q 2488 2216 2034 2216 
z
M 1403 2484 
Q 997 2584 770 2862 
Q 544 3141 544 3541 
Q 544 4100 942 4425 
Q 1341 4750 2034 4750 
Q 2731 4750 3128 4425 
Q 3525 4100 3525 3541 
Q 3525 3141 3298 2862 
Q 3072 2584 2669 2484 
Q 3125 2378 3379 2068 
Q 3634 1759 3634 1313 
Q 3634 634 3220 271 
Q 2806 -91 2034 -91 
Q 1263 -91 848 271 
Q 434 634 434 1313 
Q 434 1759 690 2068 
Q 947 2378 1403 2484 
z
M 1172 3481 
Q 1172 3119 1398 2916 
Q 1625 2713 2034 2713 
Q 2441 2713 2670 2916 
Q 2900 3119 2900 3481 
Q 2900 3844 2670 4047 
Q 2441 4250 2034 4250 
Q 1625 4250 1398 4047 
Q 1172 3844 1172 3481 
z
" transform="scale(0.015625)"/>
       </defs>
       <use xlink:href="#DejaVuSans-38"/>
       <use xlink:href="#DejaVuSans-30" x="63.623047"/>
       <use xlink:href="#DejaVuSans-30" x="127.246094"/>
      </g>
     </g>
    </g>
    <g id="text_10">
     <!-- iterations -->
     <g transform="translate(324.035938 354.189375) scale(0.2 -0.2)">
      <defs>
       <path id="DejaVuSans-69" d="M 603 3500 
L 1178 3500 
L 1178 0 
L 603 0 
L 603 3500 
z
M 603 4863 
L 1178 4863 
L 1178 4134 
L 603 4134 
L 603 4863 
z
" transform="scale(0.015625)"/>
       <path id="DejaVuSans-74" d="M 1172 4494 
L 1172 3500 
L 2356 3500 
L 2356 3053 
L 1172 3053 
L 1172 1153 
Q 1172 725 1289 603 
Q 1406 481 1766 481 
L 2356 481 
L 2356 0 
L 1766 0 
Q 1100 0 847 248 
Q 594 497 594 1153 
L 594 3053 
L 172 3053 
L 172 3500 
L 594 3500 
L 594 4494 
L 1172 4494 
z
" transform="scale(0.015625)"/>
       <path id="DejaVuSans-65" d="M 3597 1894 
L 3597 1613 
L 953 1613 
Q 991 1019 1311 708 
Q 1631 397 2203 397 
Q 2534 397 2845 478 
Q 3156 559 3463 722 
L 3463 178 
Q 3153 47 2828 -22 
Q 2503 -91 2169 -91 
Q 1331 -91 842 396 
Q 353 884 353 1716 
Q 353 2575 817 3079 
Q 1281 3584 2069 3584 
Q 2775 3584 3186 3129 
Q 3597 2675 3597 1894 
z
M 3022 2063 
Q 3016 2534 2758 2815 
Q 2500 3097 2075 3097 
Q 1594 3097 1305 2825 
Q 1016 2553 972 2059 
L 3022 2063 
z
" transform="scale(0.015625)"/>
       <path id="DejaVuSans-72" d="M 2631 2963 
Q 2534 3019 2420 3045 
Q 2306 3072 2169 3072 
Q 1681 3072 1420 2755 
Q 1159 2438 1159 1844 
L 1159 0 
L 581 0 
L 581 3500 
L 1159 3500 
L 1159 2956 
Q 1341 3275 1631 3429 
Q 1922 3584 2338 3584 
Q 2397 3584 2469 3576 
Q 2541 3569 2628 3553 
L 2631 2963 
z
" transform="scale(0.015625)"/>
       <path id="DejaVuSans-61" d="M 2194 1759 
Q 1497 1759 1228 1600 
Q 959 1441 959 1056 
Q 959 750 1161 570 
Q 1363 391 1709 391 
Q 2188 391 2477 730 
Q 2766 1069 2766 1631 
L 2766 1759 
L 2194 1759 
z
M 3341 1997 
L 3341 0 
L 2766 0 
L 2766 531 
Q 2569 213 2275 61 
Q 1981 -91 1556 -91 
Q 1019 -91 701 211 
Q 384 513 384 1019 
Q 384 1609 779 1909 
Q 1175 2209 1959 2209 
L 2766 2209 
L 2766 2266 
Q 2766 2663 2505 2880 
Q 2244 3097 1772 3097 
Q 1472 3097 1187 3025 
Q 903 2953 641 2809 
L 641 3341 
Q 956 3463 1253 3523 
Q 1550 3584 1831 3584 
Q 2591 3584 2966 3190 
Q 3341 2797 3341 1997 
z
" transform="scale(0.015625)"/>
       <path id="DejaVuSans-6f" d="M 1959 3097 
Q 1497 3097 1228 2736 
Q 959 2375 959 1747 
Q 959 1119 1226 758 
Q 1494 397 1959 397 
Q 2419 397 2687 759 
Q 2956 1122 2956 1747 
Q 2956 2369 2687 2733 
Q 2419 3097 1959 3097 
z
M 1959 3584 
Q 2709 3584 3137 3096 
Q 3566 2609 3566 1747 
Q 3566 888 3137 398 
Q 2709 -91 1959 -91 
Q 1206 -91 779 398 
Q 353 888 353 1747 
Q 353 2609 779 3096 
Q 1206 3584 1959 3584 
z
" transform="scale(0.015625)"/>
       <path id="DejaVuSans-6e" d="M 3513 2113 
L 3513 0 
L 2938 0 
L 2938 2094 
Q 2938 2591 2744 2837 
Q 2550 3084 2163 3084 
Q 1697 3084 1428 2787 
Q 1159 2491 1159 1978 
L 1159 0 
L 581 0 
L 581 3500 
L 1159 3500 
L 1159 2956 
Q 1366 3272 1645 3428 
Q 1925 3584 2291 3584 
Q 2894 3584 3203 3211 
Q 3513 2838 3513 2113 
z
" transform="scale(0.015625)"/>
       <path id="DejaVuSans-73" d="M 2834 3397 
L 2834 2853 
Q 2591 2978 2328 3040 
Q 2066 3103 1784 3103 
Q 1356 3103 1142 2972 
Q 928 2841 928 2578 
Q 928 2378 1081 2264 
Q 1234 2150 1697 2047 
L 1894 2003 
Q 2506 1872 2764 1633 
Q 3022 1394 3022 966 
Q 3022 478 2636 193 
Q 2250 -91 1575 -91 
Q 1294 -91 989 -36 
Q 684 19 347 128 
L 347 722 
Q 666 556 975 473 
Q 1284 391 1588 391 
Q 1994 391 2212 530 
Q 2431 669 2431 922 
Q 2431 1156 2273 1281 
Q 2116 1406 1581 1522 
L 1381 1569 
Q 847 1681 609 1914 
Q 372 2147 372 2553 
Q 372 3047 722 3315 
Q 1072 3584 1716 3584 
Q 2034 3584 2315 3537 
Q 2597 3491 2834 3397 
z
" transform="scale(0.015625)"/>
      </defs>
      <use xlink:href="#DejaVuSans-69"/>
      <use xlink:href="#DejaVuSans-74" x="27.783203"/>
      <use xlink:href="#DejaVuSans-65" x="66.992188"/>
      <use xlink:href="#DejaVuSans-72" x="128.515625"/>
      <use xlink:href="#DejaVuSans-61" x="169.628906"/>
      <use xlink:href="#DejaVuSans-74" x="230.908203"/>
      <use xlink:href="#DejaVuSans-69" x="270.117188"/>
      <use xlink:href="#DejaVuSans-6f" x="297.900391"/>
      <use xlink:href="#DejaVuSans-6e" x="359.082031"/>
      <use xlink:href="#DejaVuSans-73" x="422.460938"/>
     </g>
    </g>
   </g>
   <g id="matplotlib.axis_2">
    <g id="ytick_1">
     <g id="line2d_10">
      <defs>
       <path id="mf6ba117668" d="M 0 0 
L -3.5 0 
" style="stroke: #000000; stroke-width: 0.8"/>
      </defs>
      <g>
       <use xlink:href="#mf6ba117668" x="92.490625" y="308.076474" style="stroke: #000000; stroke-width: 0.8"/>
      </g>
     </g>
     <g id="text_11">
      <!-- −300 -->
      <g transform="translate(30.55625 315.674911) scale(0.2 -0.2)">
       <defs>
        <path id="DejaVuSans-2212" d="M 678 2272 
L 4684 2272 
L 4684 1741 
L 678 1741 
L 678 2272 
z
" transform="scale(0.015625)"/>
       </defs>
       <use xlink:href="#DejaVuSans-2212"/>
       <use xlink:href="#DejaVuSans-33" x="83.789062"/>
       <use xlink:href="#DejaVuSans-30" x="147.412109"/>
       <use xlink:href="#DejaVuSans-30" x="211.035156"/>
      </g>
     </g>
    </g>
    <g id="ytick_2">
     <g id="line2d_11">
      <g>
       <use xlink:href="#mf6ba117668" x="92.490625" y="260.333863" style="stroke: #000000; stroke-width: 0.8"/>
      </g>
     </g>
     <g id="text_12">
      <!-- −200 -->
      <g transform="translate(30.55625 267.9323) scale(0.2 -0.2)">
       <use xlink:href="#DejaVuSans-2212"/>
       <use xlink:href="#DejaVuSans-32" x="83.789062"/>
       <use xlink:href="#DejaVuSans-30" x="147.412109"/>
       <use xlink:href="#DejaVuSans-30" x="211.035156"/>
      </g>
     </g>
    </g>
    <g id="ytick_3">
     <g id="line2d_12">
      <g>
       <use xlink:href="#mf6ba117668" x="92.490625" y="212.591251" style="stroke: #000000; stroke-width: 0.8"/>
      </g>
     </g>
     <g id="text_13">
      <!-- −100 -->
      <g transform="translate(30.55625 220.189689) scale(0.2 -0.2)">
       <use xlink:href="#DejaVuSans-2212"/>
       <use xlink:href="#DejaVuSans-31" x="83.789062"/>
       <use xlink:href="#DejaVuSans-30" x="147.412109"/>
       <use xlink:href="#DejaVuSans-30" x="211.035156"/>
      </g>
     </g>
    </g>
    <g id="ytick_4">
     <g id="line2d_13">
      <g>
       <use xlink:href="#mf6ba117668" x="92.490625" y="164.84864" style="stroke: #000000; stroke-width: 0.8"/>
      </g>
     </g>
     <g id="text_14">
      <!-- 0 -->
      <g transform="translate(72.765625 172.447078) scale(0.2 -0.2)">
       <use xlink:href="#DejaVuSans-30"/>
      </g>
     </g>
    </g>
    <g id="ytick_5">
     <g id="line2d_14">
      <g>
       <use xlink:href="#mf6ba117668" x="92.490625" y="117.106029" style="stroke: #000000; stroke-width: 0.8"/>
      </g>
     </g>
     <g id="text_15">
      <!-- 100 -->
      <g transform="translate(47.315625 124.704466) scale(0.2 -0.2)">
       <use xlink:href="#DejaVuSans-31"/>
       <use xlink:href="#DejaVuSans-30" x="63.623047"/>
       <use xlink:href="#DejaVuSans-30" x="127.246094"/>
      </g>
     </g>
    </g>
    <g id="ytick_6">
     <g id="line2d_15">
      <g>
       <use xlink:href="#mf6ba117668" x="92.490625" y="69.363418" style="stroke: #000000; stroke-width: 0.8"/>
      </g>
     </g>
     <g id="text_16">
      <!-- 200 -->
      <g transform="translate(47.315625 76.961855) scale(0.2 -0.2)">
       <use xlink:href="#DejaVuSans-32"/>
       <use xlink:href="#DejaVuSans-30" x="63.623047"/>
       <use xlink:href="#DejaVuSans-30" x="127.246094"/>
      </g>
     </g>
    </g>
    <g id="text_17">
     <!-- Loss -->
     <g transform="translate(22.396875 191.970625) rotate(-90) scale(0.2 -0.2)">
      <defs>
       <path id="DejaVuSans-4c" d="M 628 4666 
L 1259 4666 
L 1259 531 
L 3531 531 
L 3531 0 
L 628 0 
L 628 4666 
z
" transform="scale(0.015625)"/>
      </defs>
      <use xlink:href="#DejaVuSans-4c"/>
      <use xlink:href="#DejaVuSans-6f" x="53.962891"/>
      <use xlink:href="#DejaVuSans-73" x="115.144531"/>
      <use xlink:href="#DejaVuSans-73" x="167.244141"/>
     </g>
    </g>
   </g>
   <g id="line2d_16">
    <path d="M 117.854261 146.813401 
L 118.488352 108.371969 
L 119.122443 80.391515 
L 119.756534 93.97479 
L 121.024716 106.442787 
L 121.658807 102.548887 
L 122.292898 66.652339 
L 122.926989 44.03625 
L 123.56108 55.803627 
L 124.19517 64.165815 
L 124.829261 68.653032 
L 125.463352 61.460956 
L 126.097443 63.790343 
L 126.731534 62.242846 
L 127.365625 69.057708 
L 127.999716 80.741477 
L 128.633807 87.131444 
L 129.267898 98.140049 
L 129.901989 103.093068 
L 130.53608 93.825742 
L 131.17017 104.094745 
L 131.804261 107.308578 
L 132.438352 107.992912 
L 133.072443 109.644738 
L 133.706534 119.773596 
L 134.340625 118.892841 
L 134.974716 114.429748 
L 135.608807 114.41171 
L 136.242898 118.415431 
L 136.876989 117.206988 
L 137.51108 117.824206 
L 138.14517 124.735137 
L 138.779261 128.258738 
L 139.413352 123.195727 
L 140.047443 122.886145 
L 140.681534 125.843859 
L 141.315625 125.967041 
L 141.949716 131.582295 
L 142.583807 131.871905 
L 143.217898 133.114474 
L 143.851989 127.878369 
L 144.48608 129.495931 
L 145.12017 127.712842 
L 145.754261 124.552253 
L 146.388352 129.481497 
L 147.022443 130.09079 
L 147.656534 138.115362 
L 148.290625 141.78177 
L 148.924716 134.414925 
L 149.558807 137.67643 
L 150.192898 136.065027 
L 150.826989 137.869639 
L 151.46108 132.690907 
L 152.09517 140.119834 
L 152.729261 137.644756 
L 153.363352 136.745389 
L 153.997443 135.335573 
L 154.631534 138.130464 
L 155.265625 142.002796 
L 155.899716 141.84562 
L 156.533807 142.578861 
L 157.167898 142.251124 
L 157.801989 142.172145 
L 158.43608 141.417091 
L 159.07017 140.224809 
L 159.704261 143.217005 
L 160.338352 144.687951 
L 160.972443 143.797342 
L 161.606534 144.278274 
L 162.240625 146.270732 
L 162.874716 146.701501 
L 163.508807 145.461789 
L 164.142898 145.833763 
L 164.776989 143.692652 
L 165.41108 147.194435 
L 166.04517 146.821302 
L 166.679261 147.072493 
L 167.313352 148.093813 
L 167.947443 147.234276 
L 169.215625 150.883918 
L 169.849716 150.092965 
L 170.483807 150.882584 
L 171.117898 151.093285 
L 171.751989 150.889117 
L 172.38608 152.174483 
L 173.02017 152.94296 
L 173.654261 151.837858 
L 174.288352 153.425732 
L 174.922443 152.601994 
L 175.556534 154.162992 
L 176.190625 155.336526 
L 176.824716 153.768577 
L 177.458807 155.985871 
L 178.092898 156.51429 
L 178.726989 156.791584 
L 179.36108 158.00526 
L 179.99517 156.319263 
L 180.629261 157.103248 
L 181.263352 155.953429 
L 181.897443 157.745158 
L 182.531534 158.683875 
L 183.165625 158.244609 
L 183.799716 154.730314 
L 184.433807 156.566221 
L 185.067898 157.700492 
L 185.701989 156.920326 
L 186.33608 157.017393 
L 186.97017 158.068498 
L 187.604261 156.190997 
L 188.238352 157.968617 
L 188.872443 157.662547 
L 190.140625 159.727833 
L 190.774716 161.236052 
L 192.042898 160.847517 
L 192.676989 159.687739 
L 193.31108 158.799593 
L 193.94517 160.259755 
L 194.579261 159.926854 
L 195.213352 160.268099 
L 195.847443 160.364639 
L 196.481534 159.709332 
L 197.115625 158.883726 
L 198.383807 162.122629 
L 199.017898 161.527582 
L 199.651989 159.785258 
L 200.28608 160.608374 
L 200.92017 159.759418 
L 201.554261 161.088617 
L 202.822443 159.732294 
L 203.456534 161.106603 
L 204.090625 160.441163 
L 204.724716 161.629867 
L 205.358807 161.67122 
L 205.992898 162.151759 
L 206.626989 163.316399 
L 207.89517 161.53737 
L 208.529261 162.63625 
L 209.797443 162.150268 
L 210.431534 164.664075 
L 211.065625 165.211228 
L 211.699716 165.140243 
L 212.333807 165.829806 
L 212.967898 166.831469 
L 213.601989 166.91882 
L 214.23608 167.478491 
L 214.87017 167.575725 
L 215.504261 165.443178 
L 216.138352 165.627313 
L 216.772443 166.592773 
L 217.406534 165.96152 
L 218.040625 166.931254 
L 218.674716 166.917131 
L 219.308807 165.406154 
L 219.942898 166.035049 
L 220.576989 164.400182 
L 221.21108 164.527758 
L 221.84517 164.778149 
L 222.479261 165.583527 
L 223.113352 167.012243 
L 223.747443 164.441019 
L 225.015625 166.745217 
L 226.283807 164.955568 
L 226.917898 165.543819 
L 227.551989 168.059276 
L 228.18608 166.862587 
L 228.82017 166.852146 
L 229.454261 167.158344 
L 230.088352 167.610948 
L 230.722443 163.137368 
L 231.356534 166.852458 
L 231.990625 164.939072 
L 232.624716 164.213958 
L 233.258807 164.386659 
L 233.892898 167.063814 
L 234.526989 167.008493 
L 235.16108 166.463196 
L 235.79517 166.887252 
L 236.429261 166.910252 
L 237.063352 167.962763 
L 237.697443 166.681478 
L 238.331534 167.175909 
L 238.965625 167.245556 
L 239.599716 168.843924 
L 240.233807 167.709087 
L 240.867898 168.158478 
L 241.501989 169.017948 
L 242.13608 167.592203 
L 242.77017 168.116261 
L 243.404261 167.660477 
L 244.672443 165.994739 
L 245.306534 166.959647 
L 245.940625 167.091176 
L 246.574716 166.721602 
L 247.208807 167.801531 
L 247.842898 167.452339 
L 248.476989 167.493911 
L 249.11108 166.976974 
L 249.74517 164.934127 
L 250.379261 165.345127 
L 251.013352 166.14828 
L 251.647443 166.617358 
L 252.915625 163.956945 
L 253.549716 163.966765 
L 254.183807 164.243007 
L 254.817898 164.33267 
L 255.451989 164.564122 
L 256.08608 164.054355 
L 256.72017 165.162294 
L 257.354261 164.311079 
L 257.988352 163.895203 
L 258.622443 162.229669 
L 259.256534 163.02108 
L 259.890625 163.191493 
L 260.524716 163.821427 
L 261.158807 164.095406 
L 261.792898 163.815524 
L 262.426989 163.811161 
L 263.06108 164.365739 
L 263.69517 164.153971 
L 264.329261 164.380678 
L 264.963352 163.315187 
L 265.597443 163.671799 
L 266.231534 162.34971 
L 266.865625 162.174869 
L 267.499716 163.137305 
L 268.133807 163.467982 
L 268.767898 164.097514 
L 269.401989 164.051731 
L 270.03608 163.19249 
L 270.67017 163.338166 
L 271.304261 163.609537 
L 271.938352 163.409286 
L 272.572443 162.704454 
L 273.206534 163.022985 
L 273.840625 163.529448 
L 274.474716 162.514471 
L 275.108807 161.906048 
L 275.742898 162.753296 
L 276.376989 163.801088 
L 277.01108 163.662423 
L 277.64517 162.76663 
L 278.279261 163.428382 
L 278.913352 163.457511 
L 279.547443 162.018732 
L 280.181534 163.01992 
L 280.815625 162.950906 
L 281.449716 162.106919 
L 282.717898 162.228724 
L 283.98608 162.468102 
L 284.62017 162.912715 
L 285.254261 162.77536 
L 285.888352 162.843327 
L 286.522443 163.355386 
L 287.156534 162.62776 
L 287.790625 162.306488 
L 288.424716 162.595105 
L 289.058807 163.279859 
L 289.692898 163.234508 
L 290.326989 161.797956 
L 290.96108 162.181096 
L 291.59517 163.30094 
L 292.229261 163.675187 
L 292.863352 163.380859 
L 293.497443 162.733879 
L 294.131534 163.610364 
L 294.765625 163.322777 
L 295.399716 163.352923 
L 296.033807 162.602164 
L 296.667898 163.122249 
L 297.301989 162.569941 
L 297.93608 163.908707 
L 298.57017 164.132175 
L 299.204261 164.182415 
L 299.838352 164.06866 
L 300.472443 164.587901 
L 301.106534 164.740009 
L 301.740625 164.282625 
L 303.008807 164.185717 
L 303.642898 164.616448 
L 304.276989 165.503936 
L 305.54517 165.766536 
L 306.813352 165.438424 
L 307.447443 165.165958 
L 308.715625 165.820635 
L 309.349716 166.698822 
L 309.983807 166.090311 
L 310.617898 166.546281 
L 311.251989 167.201853 
L 311.88608 166.721574 
L 313.154261 167.357401 
L 315.056534 166.196017 
L 315.690625 166.671504 
L 316.324716 166.873768 
L 316.958807 166.185705 
L 318.226989 164.468642 
L 318.86108 165.366566 
L 319.49517 165.737146 
L 320.763352 165.388637 
L 321.397443 166.118239 
L 322.031534 166.045435 
L 322.665625 165.651529 
L 323.299716 166.464095 
L 323.933807 165.812214 
L 324.567898 165.811342 
L 325.201989 166.233304 
L 325.83608 166.328533 
L 326.47017 166.183783 
L 327.104261 165.83156 
L 328.372443 165.619053 
L 329.006534 166.240895 
L 329.640625 166.331851 
L 330.274716 166.229317 
L 330.908807 166.537021 
L 331.542898 166.706569 
L 332.81108 166.056973 
L 333.44517 166.36659 
L 334.079261 167.259645 
L 334.713352 167.00779 
L 335.347443 167.161823 
L 335.981534 167.141942 
L 336.615625 167.917632 
L 337.249716 167.265631 
L 337.883807 167.629537 
L 338.517898 167.501643 
L 339.151989 168.160859 
L 340.42017 166.86691 
L 341.054261 166.920471 
L 341.688352 166.549066 
L 342.322443 167.038505 
L 342.956534 166.612435 
L 344.858807 167.228123 
L 345.492898 166.976342 
L 346.126989 166.452188 
L 346.76108 166.488802 
L 347.39517 166.091526 
L 348.029261 166.502338 
L 348.663352 166.560258 
L 349.297443 165.909882 
L 351.199716 166.006467 
L 352.467898 166.348677 
L 353.101989 166.322912 
L 354.37017 165.845957 
L 355.004261 166.437074 
L 355.638352 165.983663 
L 356.272443 166.38031 
L 358.174716 166.068 
L 358.808807 166.069951 
L 359.442898 166.237616 
L 360.076989 166.275353 
L 360.71108 166.559866 
L 361.34517 166.42806 
L 361.979261 165.903486 
L 362.613352 166.414469 
L 363.247443 165.688138 
L 363.881534 166.209658 
L 364.515625 166.443395 
L 365.149716 167.174898 
L 365.783807 166.546986 
L 366.417898 166.811977 
L 367.051989 166.533579 
L 367.68608 166.875147 
L 368.32017 167.081266 
L 369.588352 166.839537 
L 370.222443 166.368862 
L 371.490625 166.87614 
L 372.124716 166.808474 
L 372.758807 166.56272 
L 373.392898 166.009525 
L 374.026989 166.357339 
L 374.66108 166.028483 
L 375.29517 166.255005 
L 375.929261 166.696161 
L 376.563352 166.183707 
L 377.197443 166.003365 
L 377.831534 166.706365 
L 378.465625 166.21531 
L 379.099716 166.14197 
L 379.733807 165.532035 
L 380.367898 166.138229 
L 381.001989 165.987485 
L 381.63608 165.611724 
L 383.538352 166.712348 
L 384.172443 166.03513 
L 384.806534 165.851345 
L 385.440625 165.784352 
L 387.342898 166.055311 
L 388.61108 165.583788 
L 389.24517 165.646263 
L 389.879261 165.846987 
L 390.513352 165.521687 
L 391.147443 165.978731 
L 391.781534 166.035145 
L 392.415625 166.661504 
L 393.049716 166.760297 
L 394.951989 166.435477 
L 395.58608 166.783371 
L 396.22017 166.141324 
L 396.854261 165.874838 
L 397.488352 165.97542 
L 398.122443 166.270776 
L 398.756534 165.838433 
L 400.024716 165.769593 
L 401.292898 166.178324 
L 401.926989 166.191207 
L 402.56108 165.81833 
L 403.829261 166.51138 
L 404.463352 166.448924 
L 405.097443 166.241097 
L 407.633807 166.882604 
L 408.267898 166.459606 
L 408.901989 166.757516 
L 410.17017 166.516183 
L 410.804261 166.007551 
L 411.438352 166.12876 
L 412.706534 166.844733 
L 413.340625 166.274435 
L 413.974716 166.281576 
L 415.242898 166.711753 
L 415.876989 166.497263 
L 416.51108 166.610833 
L 417.14517 166.443589 
L 417.779261 166.729574 
L 418.413352 166.436764 
L 419.047443 166.704082 
L 419.681534 166.441254 
L 420.315625 166.890386 
L 420.949716 166.502654 
L 422.217898 166.926292 
L 422.851989 166.802534 
L 423.48608 166.976452 
L 424.12017 166.899472 
L 424.754261 166.984121 
L 425.388352 166.475711 
L 426.656534 166.278405 
L 427.290625 166.503053 
L 427.924716 166.569999 
L 428.558807 166.369568 
L 429.192898 166.852875 
L 429.826989 166.530569 
L 430.46108 167.047616 
L 431.09517 166.761014 
L 431.729261 166.88594 
L 432.997443 166.645192 
L 433.631534 166.825855 
L 434.265625 167.224149 
L 434.899716 167.398477 
L 436.167898 167.136946 
L 436.801989 167.250324 
L 438.07017 166.93557 
L 438.704261 167.181139 
L 439.972443 167.295278 
L 440.606534 167.000585 
L 441.240625 167.301564 
L 441.874716 166.535478 
L 442.508807 166.396558 
L 443.142898 166.434709 
L 443.776989 166.783238 
L 445.04517 166.731299 
L 445.679261 166.216886 
L 446.313352 166.566691 
L 446.947443 166.529329 
L 447.581534 166.719295 
L 448.215625 166.46481 
L 448.849716 166.682676 
L 449.483807 167.027086 
L 450.117898 166.683276 
L 450.751989 167.335819 
L 451.38608 167.091504 
L 452.02017 166.566761 
L 452.654261 166.988799 
L 453.288352 166.623194 
L 455.190625 166.675388 
L 455.824716 167.061763 
L 456.458807 166.723804 
L 457.726989 166.844911 
L 458.36108 166.961732 
L 459.629261 166.983111 
L 460.263352 166.841912 
L 460.897443 166.501931 
L 461.531534 167.418016 
L 462.165625 167.30157 
L 462.799716 167.366067 
L 464.067898 167.02388 
L 464.701989 167.390764 
L 465.33608 166.756981 
L 465.97017 167.057009 
L 467.238352 166.957972 
L 467.872443 167.276026 
L 468.506534 167.375123 
L 469.140625 166.84129 
L 471.042898 167.11316 
L 472.31108 166.971584 
L 472.94517 167.290888 
L 473.579261 167.066544 
L 474.213352 165.323307 
L 474.847443 166.545885 
L 475.481534 166.380095 
L 476.115625 166.350188 
L 476.749716 166.50404 
L 478.017898 166.555807 
L 478.651989 166.356261 
L 479.28608 166.793856 
L 479.92017 166.395077 
L 481.822443 166.557929 
L 482.456534 167.176148 
L 483.090625 166.286676 
L 483.724716 166.511268 
L 484.358807 166.462493 
L 485.626989 166.764231 
L 486.26108 166.130331 
L 486.89517 166.802709 
L 487.529261 166.742324 
L 488.797443 165.927039 
L 490.699716 166.933795 
L 491.967898 166.745378 
L 492.601989 166.369924 
L 493.23608 166.800786 
L 493.87017 166.995365 
L 494.504261 167.07098 
L 495.138352 166.816037 
L 495.772443 167.223374 
L 497.040625 167.362637 
L 497.674716 166.969143 
L 498.308807 166.753254 
L 498.942898 166.998402 
L 499.576989 166.382302 
L 500.21108 166.995114 
L 500.84517 167.874512 
L 501.479261 166.987137 
L 502.113352 166.825792 
L 503.381534 167.048812 
L 504.015625 166.644523 
L 504.649716 166.909597 
L 505.283807 166.632009 
L 505.917898 166.784255 
L 506.551989 166.544729 
L 507.18608 166.455566 
L 507.82017 166.537231 
L 508.454261 167.145024 
L 509.088352 166.201103 
L 509.722443 166.478157 
L 510.990625 166.526268 
L 511.624716 166.161988 
L 512.258807 166.0622 
L 512.892898 166.734352 
L 513.526989 167.214498 
L 514.16108 166.755575 
L 514.79517 166.973666 
L 515.429261 166.737883 
L 516.063352 167.536392 
L 516.697443 167.145261 
L 517.331534 166.919932 
L 517.965625 166.985462 
L 518.599716 166.843619 
L 519.233807 167.331072 
L 519.867898 167.095779 
L 520.501989 167.413069 
L 521.13608 167.981538 
L 521.77017 167.302931 
L 522.404261 167.114096 
L 523.038352 167.372238 
L 524.306534 167.021455 
L 524.940625 167.14747 
L 525.574716 167.058253 
L 526.208807 167.107391 
L 527.476989 166.768336 
L 528.11108 166.903449 
L 529.379261 166.860062 
L 530.013352 166.763995 
L 530.647443 167.353189 
L 531.281534 166.946869 
L 531.915625 166.896951 
L 532.549716 167.015569 
L 533.183807 166.461696 
L 534.451989 167.159127 
L 535.72017 166.939349 
L 536.354261 166.851717 
L 536.988352 166.907606 
L 537.622443 166.615213 
L 538.256534 166.527251 
L 538.890625 166.990676 
L 539.524716 167.131883 
L 540.158807 166.87159 
L 540.792898 167.064202 
L 542.06108 167.055898 
L 542.69517 167.200545 
L 543.329261 167.045965 
L 543.963352 167.141436 
L 544.597443 166.671473 
L 545.865625 167.15067 
L 547.133807 167.093419 
L 547.767898 166.961498 
L 548.401989 167.238443 
L 549.03608 167.067239 
L 549.67017 167.194622 
L 550.938352 166.997806 
L 551.572443 167.05962 
L 552.206534 167.288663 
L 552.840625 167.065158 
L 553.474716 167.092838 
L 554.742898 166.717651 
L 555.376989 166.926468 
L 556.01108 167.257168 
L 556.64517 166.84786 
L 557.279261 166.864819 
L 557.913352 167.268105 
L 559.815625 167.314542 
L 560.449716 167.11197 
L 561.083807 167.047703 
L 561.717898 167.417386 
L 562.351989 166.858553 
L 562.98608 166.975317 
L 563.62017 167.212109 
L 564.254261 166.952572 
L 564.888352 167.154298 
L 566.156534 166.886214 
L 566.790625 166.962463 
L 567.424716 166.795377 
L 568.058807 167.377051 
L 568.692898 167.534359 
L 569.326989 167.193189 
L 569.96108 167.395914 
L 570.59517 166.865444 
L 571.863352 167.310023 
L 572.497443 167.143646 
L 573.131534 167.839257 
L 573.765625 167.391751 
L 574.399716 167.624121 
L 575.033807 167.266595 
L 577.57017 167.197231 
L 578.204261 167.238835 
L 579.472443 167.601499 
L 580.106534 167.566912 
L 580.740625 167.343159 
L 581.374716 167.627105 
L 582.008807 167.185018 
L 583.91108 167.75358 
L 584.54517 167.193165 
L 585.813352 167.345123 
L 586.447443 167.275755 
L 587.081534 167.33833 
L 587.715625 167.218481 
L 588.349716 167.524625 
L 588.983807 167.485847 
L 589.617898 167.146254 
L 590.251989 166.934059 
L 590.88608 167.598699 
L 591.52017 167.195997 
L 592.154261 167.07312 
L 592.788352 167.231047 
L 593.422443 167.088166 
L 594.056534 167.193842 
L 594.690625 167.140813 
L 595.324716 167.287539 
L 595.958807 167.258121 
L 597.226989 166.999258 
L 598.49517 167.023811 
L 599.129261 167.265694 
L 599.763352 167.302736 
L 600.397443 166.628543 
L 601.031534 166.868234 
L 601.665625 167.276377 
L 602.299716 167.516864 
L 602.933807 167.131464 
L 604.83608 167.05853 
L 605.47017 167.225277 
L 606.104261 167.074134 
L 606.738352 167.300374 
L 607.372443 167.004552 
L 608.006534 167.180986 
L 608.640625 166.781859 
L 609.274716 167.195129 
L 610.542898 167.097083 
L 611.176989 167.292166 
L 611.81108 167.158983 
L 612.44517 167.28468 
L 613.079261 166.966519 
L 613.713352 167.693968 
L 614.347443 167.503178 
L 614.981534 167.513798 
L 615.615625 167.160503 
L 616.883807 167.502693 
L 618.151989 166.898246 
L 618.78608 167.309784 
L 620.054261 167.0164 
L 620.688352 167.250778 
L 622.590625 167.416309 
L 623.224716 167.210728 
L 623.858807 166.433808 
L 624.492898 166.127449 
L 625.126989 166.373511 
L 625.126989 166.373511 
" clip-path="url(#p7065b12bbb)" style="fill: none; stroke: #1f77b4; stroke-width: 1.5; stroke-linecap: square"/>
   </g>
   <g id="line2d_17">
    <path d="M 117.854261 279.873572 
L 118.488352 296.03625 
L 119.122443 229.281287 
L 119.756534 236.122226 
L 120.390625 248.683705 
L 121.024716 218.367146 
L 121.658807 218.400539 
L 122.292898 211.195002 
L 122.926989 212.309144 
L 123.56108 198.962672 
L 124.19517 190.346982 
L 124.829261 196.462808 
L 125.463352 197.599644 
L 126.097443 188.094759 
L 126.731534 190.045917 
L 127.365625 186.494612 
L 127.999716 182.039231 
L 128.633807 184.063975 
L 129.267898 178.165499 
L 129.901989 185.158377 
L 130.53608 189.378565 
L 131.17017 176.672747 
L 132.438352 183.472574 
L 133.072443 179.997455 
L 133.706534 178.764802 
L 134.340625 179.431397 
L 134.974716 182.701853 
L 135.608807 182.914498 
L 136.876989 177.760056 
L 137.51108 179.800106 
L 138.14517 178.200928 
L 138.779261 177.564652 
L 139.413352 182.456204 
L 140.047443 180.002798 
L 140.681534 180.160606 
L 141.315625 177.633725 
L 141.949716 171.751738 
L 142.583807 175.715035 
L 143.217898 176.917602 
L 143.851989 180.125995 
L 144.48608 180.754979 
L 145.12017 181.196825 
L 145.754261 177.825646 
L 146.388352 172.58093 
L 147.022443 176.092026 
L 147.656534 173.568487 
L 148.290625 176.855695 
L 148.924716 172.650635 
L 149.558807 173.922036 
L 150.192898 173.975875 
L 150.826989 176.504977 
L 151.46108 175.221635 
L 152.09517 174.523708 
L 152.729261 174.930204 
L 153.363352 173.528425 
L 153.997443 173.39019 
L 154.631534 173.696387 
L 155.265625 172.941273 
L 155.899716 173.272394 
L 156.533807 172.507198 
L 157.167898 171.465539 
L 157.801989 173.366213 
L 158.43608 174.304074 
L 159.07017 173.084636 
L 160.338352 171.892487 
L 160.972443 173.810638 
L 161.606534 171.464085 
L 162.240625 172.166575 
L 162.874716 171.781889 
L 163.508807 173.27443 
L 164.142898 173.75368 
L 164.776989 172.98322 
L 165.41108 172.752532 
L 166.04517 171.319888 
L 166.679261 172.930911 
L 167.313352 172.60628 
L 167.947443 172.42504 
L 168.581534 172.06188 
L 169.215625 172.467343 
L 169.849716 173.41976 
L 170.483807 172.478722 
L 171.117898 172.219409 
L 171.751989 172.697218 
L 172.38608 171.90948 
L 173.02017 172.378783 
L 173.654261 171.586432 
L 174.288352 171.869044 
L 174.922443 171.526817 
L 175.556534 170.921173 
L 176.190625 171.461252 
L 176.824716 171.83602 
L 177.458807 171.57401 
L 178.092898 170.570799 
L 178.726989 170.899908 
L 179.36108 170.631288 
L 179.99517 170.626831 
L 180.629261 171.536026 
L 181.263352 171.903319 
L 181.897443 171.117061 
L 182.531534 170.543677 
L 183.165625 170.406881 
L 183.799716 171.779958 
L 184.433807 171.60602 
L 185.067898 170.761067 
L 185.701989 171.723131 
L 186.33608 172.054827 
L 186.97017 171.475037 
L 187.604261 172.41331 
L 188.238352 170.467703 
L 188.872443 170.643053 
L 189.506534 171.659859 
L 190.140625 172.318618 
L 190.774716 171.77277 
L 191.408807 170.608154 
L 192.042898 170.90237 
L 192.676989 170.988016 
L 193.31108 171.349299 
L 193.94517 171.397261 
L 194.579261 170.114963 
L 195.213352 170.751939 
L 195.847443 170.629996 
L 196.481534 170.773039 
L 197.115625 169.586336 
L 197.749716 171.048779 
L 198.383807 172.064358 
L 199.017898 170.821795 
L 199.651989 170.186214 
L 200.28608 171.034565 
L 200.92017 170.430537 
L 201.554261 170.719736 
L 202.188352 170.830545 
L 203.456534 170.704124 
L 205.358807 171.807075 
L 205.992898 170.82302 
L 206.626989 170.941997 
L 207.26108 170.739885 
L 207.89517 171.1053 
L 209.163352 170.846343 
L 209.797443 170.275569 
L 210.431534 171.007003 
L 211.065625 170.317854 
L 211.699716 170.045591 
L 212.333807 170.058158 
L 212.967898 169.565035 
L 213.601989 171.321042 
L 214.23608 170.030748 
L 214.87017 170.162693 
L 215.504261 170.965113 
L 216.138352 171.410399 
L 216.772443 170.487894 
L 217.406534 170.52781 
L 218.040625 170.74821 
L 218.674716 170.162101 
L 219.308807 170.190171 
L 220.576989 171.636929 
L 221.21108 170.866164 
L 221.84517 170.810881 
L 223.113352 171.681934 
L 223.747443 170.616611 
L 224.381534 170.565592 
L 225.015625 171.141648 
L 225.649716 170.184501 
L 226.283807 171.161076 
L 226.917898 170.901531 
L 227.551989 170.791018 
L 228.18608 171.147726 
L 228.82017 171.722995 
L 229.454261 172.623044 
L 230.088352 171.459207 
L 230.722443 171.681699 
L 231.356534 171.57636 
L 231.990625 172.06863 
L 232.624716 171.753699 
L 233.258807 172.544106 
L 233.892898 171.423933 
L 234.526989 171.005426 
L 235.16108 171.843317 
L 236.429261 171.640797 
L 237.697443 172.14075 
L 238.965625 172.954871 
L 239.599716 172.450178 
L 240.233807 172.095974 
L 240.867898 172.188807 
L 241.501989 173.760838 
L 242.13608 172.562795 
L 243.404261 173.052606 
L 244.038352 172.443163 
L 244.672443 173.142692 
L 245.306534 172.775511 
L 246.574716 173.084929 
L 247.208807 173.920099 
L 247.842898 173.144824 
L 248.476989 172.101883 
L 249.11108 172.398162 
L 249.74517 172.541096 
L 250.379261 172.803393 
L 251.013352 172.85655 
L 251.647443 172.351432 
L 252.281534 171.509069 
L 252.915625 171.321223 
L 253.549716 171.419382 
L 254.183807 171.285774 
L 254.817898 172.108168 
L 256.08608 171.253369 
L 256.72017 171.974652 
L 257.354261 172.49078 
L 257.988352 172.608069 
L 258.622443 173.112575 
L 259.256534 172.269899 
L 259.890625 171.918521 
L 260.524716 172.153425 
L 261.158807 172.02884 
L 261.792898 172.719266 
L 263.06108 172.177208 
L 263.69517 172.423473 
L 264.329261 172.513332 
L 264.963352 172.845066 
L 265.597443 172.658453 
L 266.231534 171.245621 
L 266.865625 172.38168 
L 267.499716 172.28215 
L 268.133807 173.372593 
L 268.767898 172.186195 
L 269.401989 172.165862 
L 270.67017 172.337176 
L 271.938352 171.738366 
L 272.572443 171.665087 
L 273.206534 172.437338 
L 273.840625 172.733014 
L 274.474716 172.696569 
L 275.108807 172.782286 
L 275.742898 172.151995 
L 276.376989 172.602721 
L 277.64517 172.812256 
L 278.279261 172.508644 
L 278.913352 172.662115 
L 279.547443 172.388833 
L 280.181534 172.616574 
L 280.815625 172.498701 
L 281.449716 172.122567 
L 282.083807 172.47289 
L 282.717898 172.364584 
L 283.98608 172.871487 
L 284.62017 172.517568 
L 285.888352 172.59048 
L 287.156534 172.624459 
L 287.790625 173.175465 
L 288.424716 172.992484 
L 289.058807 172.353261 
L 289.692898 172.5161 
L 290.326989 172.116873 
L 290.96108 171.884285 
L 291.59517 172.097075 
L 292.229261 172.109714 
L 292.863352 171.864138 
L 293.497443 171.240428 
L 294.131534 171.567323 
L 294.765625 172.146654 
L 295.399716 171.994954 
L 296.033807 171.425419 
L 298.57017 171.522025 
L 299.204261 171.31688 
L 299.838352 171.770494 
L 300.472443 171.386278 
L 301.106534 171.928892 
L 301.740625 171.259012 
L 302.374716 171.4512 
L 303.008807 170.369318 
L 303.642898 170.40821 
L 304.276989 171.24932 
L 305.54517 171.645808 
L 306.179261 171.432089 
L 306.813352 170.870355 
L 307.447443 170.705431 
L 308.715625 171.496114 
L 309.349716 171.357391 
L 309.983807 171.090043 
L 311.251989 171.195128 
L 311.88608 170.567788 
L 312.52017 171.1952 
L 313.154261 171.372187 
L 314.422443 171.282026 
L 315.056534 171.504699 
L 315.690625 171.413546 
L 316.324716 171.482663 
L 316.958807 171.283417 
L 317.592898 170.488237 
L 318.226989 170.14749 
L 318.86108 170.217916 
L 319.49517 170.620474 
L 320.129261 170.588689 
L 320.763352 170.770071 
L 321.397443 171.479387 
L 322.031534 171.577134 
L 323.933807 169.732971 
L 325.201989 170.853654 
L 325.83608 171.834664 
L 327.104261 169.863961 
L 327.738352 170.01213 
L 328.372443 170.679295 
L 329.006534 170.809484 
L 329.640625 170.373653 
L 330.274716 170.646982 
L 330.908807 170.706901 
L 331.542898 171.397387 
L 332.176989 171.649515 
L 332.81108 170.914472 
L 334.079261 171.327974 
L 334.713352 171.237939 
L 335.347443 171.673736 
L 336.615625 171.156738 
L 337.249716 171.678756 
L 337.883807 171.908632 
L 338.517898 171.920126 
L 339.151989 172.136642 
L 339.78608 171.43629 
L 340.42017 172.067896 
L 341.054261 171.752724 
L 341.688352 171.255918 
L 342.322443 171.689928 
L 342.956534 171.761018 
L 343.590625 171.126637 
L 344.224716 171.644371 
L 344.858807 171.762199 
L 345.492898 171.024279 
L 346.126989 170.619721 
L 347.39517 171.182932 
L 348.029261 171.228709 
L 348.663352 172.165991 
L 349.297443 170.488334 
L 349.931534 170.738428 
L 351.199716 170.361173 
L 352.467898 170.765861 
L 353.101989 170.67092 
L 353.73608 170.332637 
L 354.37017 170.253046 
L 355.638352 170.94447 
L 356.272443 170.847824 
L 358.174716 170.808926 
L 358.808807 170.111458 
L 359.442898 170.489234 
L 360.076989 170.271381 
L 360.71108 170.959132 
L 361.34517 170.820191 
L 361.979261 170.369069 
L 362.613352 170.638293 
L 363.881534 170.1911 
L 364.515625 170.466663 
L 365.149716 170.581859 
L 365.783807 171.227926 
L 366.417898 170.580491 
L 367.051989 170.653676 
L 367.68608 170.451126 
L 368.32017 170.944141 
L 370.222443 170.110239 
L 370.856534 170.330278 
L 371.490625 171.00966 
L 372.758807 170.360234 
L 374.026989 170.717318 
L 374.66108 170.471237 
L 375.29517 170.075147 
L 375.929261 170.575221 
L 376.563352 170.607303 
L 377.197443 171.228849 
L 378.465625 170.540423 
L 379.099716 170.754063 
L 379.733807 170.564182 
L 380.367898 170.554935 
L 381.001989 170.878559 
L 381.63608 171.075504 
L 382.904261 170.495544 
L 383.538352 170.914215 
L 384.172443 170.258211 
L 384.806534 170.444911 
L 385.440625 171.156295 
L 386.074716 170.631476 
L 386.708807 170.687671 
L 387.342898 170.969143 
L 387.976989 171.027482 
L 388.61108 170.651871 
L 389.24517 171.264681 
L 389.879261 170.833352 
L 390.513352 171.104245 
L 391.147443 171.049843 
L 391.781534 170.797557 
L 392.415625 171.194854 
L 393.049716 170.688947 
L 393.683807 170.853175 
L 395.58608 170.609858 
L 396.22017 170.932736 
L 396.854261 170.881473 
L 398.756534 171.164751 
L 399.390625 171.039106 
L 400.024716 171.263688 
L 401.292898 170.682666 
L 401.926989 171.0841 
L 402.56108 170.865254 
L 403.19517 170.919221 
L 404.463352 169.970601 
L 405.097443 170.716222 
L 406.999716 170.824175 
L 407.633807 171.040578 
L 408.267898 170.842447 
L 408.901989 171.139937 
L 409.53608 170.725562 
L 410.17017 170.723661 
L 410.804261 171.404812 
L 411.438352 171.520254 
L 412.072443 171.04479 
L 412.706534 171.109308 
L 413.340625 170.499166 
L 413.974716 170.538778 
L 414.608807 170.372335 
L 415.242898 170.553715 
L 415.876989 170.509947 
L 416.51108 170.322723 
L 417.14517 170.603899 
L 417.779261 170.523176 
L 418.413352 171.179263 
L 419.047443 170.524289 
L 419.681534 170.359959 
L 420.315625 170.562681 
L 422.217898 170.824989 
L 422.851989 171.195004 
L 423.48608 170.871304 
L 424.12017 170.723989 
L 426.022443 170.931994 
L 426.656534 170.610474 
L 427.924716 170.723797 
L 428.558807 170.663586 
L 429.192898 170.220067 
L 429.826989 170.623727 
L 430.46108 170.470245 
L 431.09517 170.651572 
L 432.363352 170.687737 
L 432.997443 170.913263 
L 433.631534 171.407915 
L 434.265625 171.001143 
L 434.899716 171.088535 
L 435.533807 170.53874 
L 436.167898 170.487934 
L 436.801989 170.994191 
L 437.43608 170.748104 
L 438.07017 170.35788 
L 438.704261 170.819966 
L 441.240625 170.541169 
L 441.874716 171.107514 
L 442.508807 171.014682 
L 443.142898 170.751041 
L 443.776989 171.028125 
L 444.41108 170.895951 
L 445.04517 171.079823 
L 445.679261 170.895905 
L 446.947443 171.318046 
L 447.581534 171.257973 
L 448.215625 170.889967 
L 448.849716 171.1763 
L 449.483807 170.916294 
L 450.117898 171.377944 
L 450.751989 171.162762 
L 451.38608 171.180479 
L 452.02017 170.558245 
L 452.654261 171.138559 
L 453.288352 171.548957 
L 453.922443 171.032995 
L 454.556534 171.463148 
L 455.190625 170.882761 
L 455.824716 170.59282 
L 456.458807 171.253108 
L 457.092898 170.78524 
L 457.726989 171.021826 
L 458.99517 170.645328 
L 459.629261 171.000515 
L 460.263352 170.860525 
L 461.531534 171.094552 
L 462.165625 170.364914 
L 462.799716 170.866997 
L 463.433807 170.831859 
L 464.067898 171.290416 
L 464.701989 171.293254 
L 465.33608 170.908916 
L 465.97017 171.048758 
L 466.604261 170.913447 
L 467.238352 171.070581 
L 467.872443 170.749205 
L 469.140625 170.848254 
L 469.774716 170.962731 
L 471.042898 170.782693 
L 471.676989 170.933034 
L 472.31108 170.949966 
L 472.94517 171.301036 
L 473.579261 169.332539 
L 474.213352 169.926711 
L 475.481534 170.49499 
L 476.749716 170.405228 
L 478.651989 170.811339 
L 479.28608 170.612967 
L 479.92017 170.642198 
L 480.554261 170.455008 
L 481.188352 170.731423 
L 482.456534 170.809703 
L 483.090625 170.577778 
L 483.724716 170.505986 
L 484.358807 170.677812 
L 486.26108 170.609635 
L 486.89517 170.225772 
L 487.529261 170.528325 
L 488.163352 170.568146 
L 488.797443 170.439006 
L 489.431534 170.782697 
L 490.065625 170.641427 
L 490.699716 170.035326 
L 491.333807 170.041078 
L 491.967898 170.726867 
L 492.601989 171.248826 
L 493.23608 170.746982 
L 494.504261 170.667659 
L 495.138352 170.477283 
L 495.772443 171.042017 
L 496.406534 170.825114 
L 497.040625 171.00509 
L 497.674716 171.56915 
L 498.308807 171.049443 
L 498.942898 170.327246 
L 499.576989 170.535135 
L 500.21108 170.962961 
L 500.84517 170.77303 
L 501.479261 170.441492 
L 502.113352 170.657906 
L 502.747443 170.720379 
L 503.381534 170.290958 
L 504.015625 170.997113 
L 504.649716 170.501205 
L 505.283807 171.006051 
L 505.917898 170.707502 
L 506.551989 170.674827 
L 507.18608 170.45803 
L 507.82017 170.61639 
L 508.454261 172.325143 
L 509.088352 171.185924 
L 509.722443 171.618554 
L 510.356534 170.854029 
L 510.990625 170.917794 
L 511.624716 171.271686 
L 512.258807 170.88346 
L 512.892898 171.182975 
L 514.16108 170.945011 
L 514.79517 170.78515 
L 515.429261 171.311183 
L 516.063352 171.256314 
L 516.697443 170.719517 
L 517.331534 171.386026 
L 517.965625 170.838861 
L 519.233807 171.202269 
L 519.867898 170.874266 
L 520.501989 170.84593 
L 521.13608 170.54823 
L 521.77017 170.867128 
L 523.038352 170.53779 
L 523.672443 170.924849 
L 524.306534 171.054051 
L 524.940625 171.547175 
L 525.574716 170.712395 
L 526.208807 170.824263 
L 526.842898 171.641213 
L 527.476989 171.108665 
L 528.11108 171.620599 
L 528.74517 171.096028 
L 529.379261 171.280202 
L 530.013352 170.916987 
L 530.647443 171.126795 
L 531.281534 171.162409 
L 531.915625 170.940667 
L 532.549716 171.351826 
L 533.183807 170.151216 
L 533.817898 170.686556 
L 534.451989 170.974301 
L 535.08608 170.84513 
L 535.72017 171.255612 
L 538.256534 171.129073 
L 538.890625 170.605783 
L 539.524716 170.924165 
L 540.792898 170.892578 
L 541.426989 171.174157 
L 543.963352 171.039056 
L 544.597443 170.75442 
L 545.231534 170.972632 
L 545.865625 170.780145 
L 546.499716 171.070128 
L 547.133807 170.743612 
L 547.767898 170.932481 
L 549.03608 170.893091 
L 550.938352 170.910405 
L 551.572443 170.771546 
L 552.206534 170.408399 
L 552.840625 170.846615 
L 554.108807 171.151511 
L 554.742898 171.363946 
L 555.376989 171.270962 
L 556.01108 170.580653 
L 556.64517 171.562097 
L 557.279261 170.570145 
L 557.913352 171.126438 
L 558.547443 171.103101 
L 559.181534 170.853095 
L 559.815625 170.920671 
L 560.449716 170.615124 
L 561.083807 170.682173 
L 561.717898 170.591477 
L 562.351989 170.385041 
L 562.98608 170.625611 
L 563.62017 170.422309 
L 564.254261 170.678709 
L 564.888352 170.575004 
L 566.790625 169.848171 
L 567.424716 170.460824 
L 568.058807 170.255669 
L 568.692898 171.026152 
L 569.326989 170.522831 
L 569.96108 170.536451 
L 570.59517 170.135789 
L 571.229261 170.098764 
L 573.131534 170.710914 
L 573.765625 170.414901 
L 574.399716 170.63194 
L 575.033807 170.129311 
L 575.667898 170.130603 
L 576.93608 169.887663 
L 577.57017 169.874953 
L 578.204261 170.316266 
L 578.838352 170.502616 
L 580.106534 170.119472 
L 580.740625 170.159134 
L 581.374716 170.662215 
L 582.642898 170.279717 
L 583.91108 170.34651 
L 584.54517 170.069146 
L 585.179261 170.374545 
L 585.813352 170.491802 
L 586.447443 170.216185 
L 587.081534 170.749537 
L 587.715625 170.813786 
L 588.349716 170.617648 
L 588.983807 170.661828 
L 589.617898 170.133418 
L 590.251989 170.464369 
L 590.88608 170.979377 
L 592.788352 170.197248 
L 593.422443 170.520642 
L 594.056534 170.321574 
L 594.690625 170.425701 
L 595.324716 170.117817 
L 595.958807 170.439945 
L 596.592898 170.242221 
L 597.226989 170.408411 
L 598.49517 170.060405 
L 599.129261 170.250804 
L 599.763352 170.167196 
L 600.397443 170.302541 
L 601.665625 170.212723 
L 602.299716 170.535555 
L 602.933807 170.368037 
L 603.567898 170.546681 
L 604.201989 170.03399 
L 604.83608 170.354272 
L 605.47017 170.124131 
L 606.104261 170.374013 
L 606.738352 170.083487 
L 607.372443 170.100018 
L 608.006534 169.97173 
L 608.640625 170.318687 
L 609.274716 170.376881 
L 609.908807 170.122507 
L 610.542898 170.314316 
L 611.176989 170.073596 
L 611.81108 170.370768 
L 612.44517 170.264862 
L 613.079261 170.412241 
L 613.713352 170.838574 
L 614.347443 170.282593 
L 614.981534 170.348494 
L 615.615625 169.93179 
L 616.249716 170.131248 
L 616.883807 169.840465 
L 617.517898 170.324899 
L 618.78608 170.065878 
L 619.42017 169.89356 
L 620.054261 169.855657 
L 620.688352 170.009696 
L 621.322443 170.493488 
L 621.956534 170.242058 
L 623.224716 170.538344 
L 623.858807 170.252216 
L 624.492898 170.415828 
L 625.126989 170.044925 
L 625.126989 170.044925 
" clip-path="url(#p7065b12bbb)" style="fill: none; stroke: #ff7f0e; stroke-width: 1.5; stroke-linecap: square"/>
   </g>
   <g id="patch_3">
    <path d="M 92.490625 308.63625 
L 92.490625 31.43625 
" style="fill: none; stroke: #000000; stroke-width: 0.8; stroke-linejoin: miter; stroke-linecap: square"/>
   </g>
   <g id="patch_4">
    <path d="M 650.490625 308.63625 
L 650.490625 31.43625 
" style="fill: none; stroke: #000000; stroke-width: 0.8; stroke-linejoin: miter; stroke-linecap: square"/>
   </g>
   <g id="patch_5">
    <path d="M 92.490625 308.63625 
L 650.490625 308.63625 
" style="fill: none; stroke: #000000; stroke-width: 0.8; stroke-linejoin: miter; stroke-linecap: square"/>
   </g>
   <g id="patch_6">
    <path d="M 92.490625 31.43625 
L 650.490625 31.43625 
" style="fill: none; stroke: #000000; stroke-width: 0.8; stroke-linejoin: miter; stroke-linecap: square"/>
   </g>
   <g id="text_18">
    <!-- Generator and Discriminator Loss During Training -->
    <g transform="translate(74.258125 25.43625) scale(0.24 -0.24)">
     <defs>
      <path id="DejaVuSans-47" d="M 3809 666 
L 3809 1919 
L 2778 1919 
L 2778 2438 
L 4434 2438 
L 4434 434 
Q 4069 175 3628 42 
Q 3188 -91 2688 -91 
Q 1594 -91 976 548 
Q 359 1188 359 2328 
Q 359 3472 976 4111 
Q 1594 4750 2688 4750 
Q 3144 4750 3555 4637 
Q 3966 4525 4313 4306 
L 4313 3634 
Q 3963 3931 3569 4081 
Q 3175 4231 2741 4231 
Q 1884 4231 1454 3753 
Q 1025 3275 1025 2328 
Q 1025 1384 1454 906 
Q 1884 428 2741 428 
Q 3075 428 3337 486 
Q 3600 544 3809 666 
z
" transform="scale(0.015625)"/>
      <path id="DejaVuSans-20" transform="scale(0.015625)"/>
      <path id="DejaVuSans-64" d="M 2906 2969 
L 2906 4863 
L 3481 4863 
L 3481 0 
L 2906 0 
L 2906 525 
Q 2725 213 2448 61 
Q 2172 -91 1784 -91 
Q 1150 -91 751 415 
Q 353 922 353 1747 
Q 353 2572 751 3078 
Q 1150 3584 1784 3584 
Q 2172 3584 2448 3432 
Q 2725 3281 2906 2969 
z
M 947 1747 
Q 947 1113 1208 752 
Q 1469 391 1925 391 
Q 2381 391 2643 752 
Q 2906 1113 2906 1747 
Q 2906 2381 2643 2742 
Q 2381 3103 1925 3103 
Q 1469 3103 1208 2742 
Q 947 2381 947 1747 
z
" transform="scale(0.015625)"/>
      <path id="DejaVuSans-44" d="M 1259 4147 
L 1259 519 
L 2022 519 
Q 2988 519 3436 956 
Q 3884 1394 3884 2338 
Q 3884 3275 3436 3711 
Q 2988 4147 2022 4147 
L 1259 4147 
z
M 628 4666 
L 1925 4666 
Q 3281 4666 3915 4102 
Q 4550 3538 4550 2338 
Q 4550 1131 3912 565 
Q 3275 0 1925 0 
L 628 0 
L 628 4666 
z
" transform="scale(0.015625)"/>
      <path id="DejaVuSans-63" d="M 3122 3366 
L 3122 2828 
Q 2878 2963 2633 3030 
Q 2388 3097 2138 3097 
Q 1578 3097 1268 2742 
Q 959 2388 959 1747 
Q 959 1106 1268 751 
Q 1578 397 2138 397 
Q 2388 397 2633 464 
Q 2878 531 3122 666 
L 3122 134 
Q 2881 22 2623 -34 
Q 2366 -91 2075 -91 
Q 1284 -91 818 406 
Q 353 903 353 1747 
Q 353 2603 823 3093 
Q 1294 3584 2113 3584 
Q 2378 3584 2631 3529 
Q 2884 3475 3122 3366 
z
" transform="scale(0.015625)"/>
      <path id="DejaVuSans-6d" d="M 3328 2828 
Q 3544 3216 3844 3400 
Q 4144 3584 4550 3584 
Q 5097 3584 5394 3201 
Q 5691 2819 5691 2113 
L 5691 0 
L 5113 0 
L 5113 2094 
Q 5113 2597 4934 2840 
Q 4756 3084 4391 3084 
Q 3944 3084 3684 2787 
Q 3425 2491 3425 1978 
L 3425 0 
L 2847 0 
L 2847 2094 
Q 2847 2600 2669 2842 
Q 2491 3084 2119 3084 
Q 1678 3084 1418 2786 
Q 1159 2488 1159 1978 
L 1159 0 
L 581 0 
L 581 3500 
L 1159 3500 
L 1159 2956 
Q 1356 3278 1631 3431 
Q 1906 3584 2284 3584 
Q 2666 3584 2933 3390 
Q 3200 3197 3328 2828 
z
" transform="scale(0.015625)"/>
      <path id="DejaVuSans-75" d="M 544 1381 
L 544 3500 
L 1119 3500 
L 1119 1403 
Q 1119 906 1312 657 
Q 1506 409 1894 409 
Q 2359 409 2629 706 
Q 2900 1003 2900 1516 
L 2900 3500 
L 3475 3500 
L 3475 0 
L 2900 0 
L 2900 538 
Q 2691 219 2414 64 
Q 2138 -91 1772 -91 
Q 1169 -91 856 284 
Q 544 659 544 1381 
z
M 1991 3584 
L 1991 3584 
z
" transform="scale(0.015625)"/>
      <path id="DejaVuSans-67" d="M 2906 1791 
Q 2906 2416 2648 2759 
Q 2391 3103 1925 3103 
Q 1463 3103 1205 2759 
Q 947 2416 947 1791 
Q 947 1169 1205 825 
Q 1463 481 1925 481 
Q 2391 481 2648 825 
Q 2906 1169 2906 1791 
z
M 3481 434 
Q 3481 -459 3084 -895 
Q 2688 -1331 1869 -1331 
Q 1566 -1331 1297 -1286 
Q 1028 -1241 775 -1147 
L 775 -588 
Q 1028 -725 1275 -790 
Q 1522 -856 1778 -856 
Q 2344 -856 2625 -561 
Q 2906 -266 2906 331 
L 2906 616 
Q 2728 306 2450 153 
Q 2172 0 1784 0 
Q 1141 0 747 490 
Q 353 981 353 1791 
Q 353 2603 747 3093 
Q 1141 3584 1784 3584 
Q 2172 3584 2450 3431 
Q 2728 3278 2906 2969 
L 2906 3500 
L 3481 3500 
L 3481 434 
z
" transform="scale(0.015625)"/>
      <path id="DejaVuSans-54" d="M -19 4666 
L 3928 4666 
L 3928 4134 
L 2272 4134 
L 2272 0 
L 1638 0 
L 1638 4134 
L -19 4134 
L -19 4666 
z
" transform="scale(0.015625)"/>
     </defs>
     <use xlink:href="#DejaVuSans-47"/>
     <use xlink:href="#DejaVuSans-65" x="77.490234"/>
     <use xlink:href="#DejaVuSans-6e" x="139.013672"/>
     <use xlink:href="#DejaVuSans-65" x="202.392578"/>
     <use xlink:href="#DejaVuSans-72" x="263.916016"/>
     <use xlink:href="#DejaVuSans-61" x="305.029297"/>
     <use xlink:href="#DejaVuSans-74" x="366.308594"/>
     <use xlink:href="#DejaVuSans-6f" x="405.517578"/>
     <use xlink:href="#DejaVuSans-72" x="466.699219"/>
     <use xlink:href="#DejaVuSans-20" x="507.8125"/>
     <use xlink:href="#DejaVuSans-61" x="539.599609"/>
     <use xlink:href="#DejaVuSans-6e" x="600.878906"/>
     <use xlink:href="#DejaVuSans-64" x="664.257812"/>
     <use xlink:href="#DejaVuSans-20" x="727.734375"/>
     <use xlink:href="#DejaVuSans-44" x="759.521484"/>
     <use xlink:href="#DejaVuSans-69" x="836.523438"/>
     <use xlink:href="#DejaVuSans-73" x="864.306641"/>
     <use xlink:href="#DejaVuSans-63" x="916.40625"/>
     <use xlink:href="#DejaVuSans-72" x="971.386719"/>
     <use xlink:href="#DejaVuSans-69" x="1012.5"/>
     <use xlink:href="#DejaVuSans-6d" x="1040.283203"/>
     <use xlink:href="#DejaVuSans-69" x="1137.695312"/>
     <use xlink:href="#DejaVuSans-6e" x="1165.478516"/>
     <use xlink:href="#DejaVuSans-61" x="1228.857422"/>
     <use xlink:href="#DejaVuSans-74" x="1290.136719"/>
     <use xlink:href="#DejaVuSans-6f" x="1329.345703"/>
     <use xlink:href="#DejaVuSans-72" x="1390.527344"/>
     <use xlink:href="#DejaVuSans-20" x="1431.640625"/>
     <use xlink:href="#DejaVuSans-4c" x="1463.427734"/>
     <use xlink:href="#DejaVuSans-6f" x="1517.390625"/>
     <use xlink:href="#DejaVuSans-73" x="1578.572266"/>
     <use xlink:href="#DejaVuSans-73" x="1630.671875"/>
     <use xlink:href="#DejaVuSans-20" x="1682.771484"/>
     <use xlink:href="#DejaVuSans-44" x="1714.558594"/>
     <use xlink:href="#DejaVuSans-75" x="1791.560547"/>
     <use xlink:href="#DejaVuSans-72" x="1854.939453"/>
     <use xlink:href="#DejaVuSans-69" x="1896.052734"/>
     <use xlink:href="#DejaVuSans-6e" x="1923.835938"/>
     <use xlink:href="#DejaVuSans-67" x="1987.214844"/>
     <use xlink:href="#DejaVuSans-20" x="2050.691406"/>
     <use xlink:href="#DejaVuSans-54" x="2082.478516"/>
     <use xlink:href="#DejaVuSans-72" x="2128.8125"/>
     <use xlink:href="#DejaVuSans-61" x="2169.925781"/>
     <use xlink:href="#DejaVuSans-69" x="2231.205078"/>
     <use xlink:href="#DejaVuSans-6e" x="2258.988281"/>
     <use xlink:href="#DejaVuSans-69" x="2322.367188"/>
     <use xlink:href="#DejaVuSans-6e" x="2350.150391"/>
     <use xlink:href="#DejaVuSans-67" x="2413.529297"/>
    </g>
   </g>
   <g id="legend_1">
    <g id="patch_7">
     <path d="M 556.99375 106.14875 
L 636.490625 106.14875 
Q 640.490625 106.14875 640.490625 102.14875 
L 640.490625 45.43625 
Q 640.490625 41.43625 636.490625 41.43625 
L 556.99375 41.43625 
Q 552.99375 41.43625 552.99375 45.43625 
L 552.99375 102.14875 
Q 552.99375 106.14875 556.99375 106.14875 
z
" style="fill: #ffffff; opacity: 0.8; stroke: #cccccc; stroke-linejoin: miter"/>
    </g>
    <g id="line2d_18">
     <path d="M 560.99375 57.633125 
L 580.99375 57.633125 
L 600.99375 57.633125 
" style="fill: none; stroke: #1f77b4; stroke-width: 1.5; stroke-linecap: square"/>
    </g>
    <g id="text_19">
     <!-- G -->
     <g transform="translate(616.99375 64.633125) scale(0.2 -0.2)">
      <use xlink:href="#DejaVuSans-47"/>
     </g>
    </g>
    <g id="line2d_19">
     <path d="M 560.99375 86.989375 
L 580.99375 86.989375 
L 600.99375 86.989375 
" style="fill: none; stroke: #ff7f0e; stroke-width: 1.5; stroke-linecap: square"/>
    </g>
    <g id="text_20">
     <!-- D -->
     <g transform="translate(616.99375 93.989375) scale(0.2 -0.2)">
      <use xlink:href="#DejaVuSans-44"/>
     </g>
    </g>
   </g>
  </g>
 </g>
 <defs>
  <clipPath id="p7065b12bbb">
   <rect x="92.490625" y="31.43625" width="558" height="277.2"/>
  </clipPath>
 </defs>
</svg>
