<?xml version="1.0" encoding="utf-8" standalone="no"?>
<!DOCTYPE svg PUBLIC "-//W3C//DTD SVG 1.1//EN"
  "http://www.w3.org/Graphics/SVG/1.1/DTD/svg11.dtd">
<svg xmlns:xlink="http://www.w3.org/1999/xlink" width="675.923125pt" height="365.54875pt" viewBox="0 0 675.923125 365.54875" xmlns="http://www.w3.org/2000/svg" version="1.1">
 <metadata>
  <rdf:RDF xmlns:dc="http://purl.org/dc/elements/1.1/" xmlns:cc="http://creativecommons.org/ns#" xmlns:rdf="http://www.w3.org/1999/02/22-rdf-syntax-ns#">
   <cc:Work>
    <dc:type rdf:resource="http://purl.org/dc/dcmitype/StillImage"/>
    <dc:date>2024-02-02T19:00:22.109682</dc:date>
    <dc:format>image/svg+xml</dc:format>
    <dc:creator>
     <cc:Agent>
      <dc:title>Matplotlib v3.7.2, https://matplotlib.org/</dc:title>
     </cc:Agent>
    </dc:creator>
   </cc:Work>
  </rdf:RDF>
 </metadata>
 <defs>
  <style type="text/css">*{stroke-linejoin: round; stroke-linecap: butt}</style>
 </defs>
 <g id="figure_1">
  <g id="patch_1">
   <path d="M 0 365.54875 
L 675.923125 365.54875 
L 675.923125 -0 
L 0 -0 
z
" style="fill: #ffffff"/>
  </g>
  <g id="axes_1">
   <g id="patch_2">
    <path d="M 92.490625 308.63625 
L 650.490625 308.63625 
L 650.490625 31.43625 
L 92.490625 31.43625 
z
" style="fill: #ffffff"/>
   </g>
   <g id="matplotlib.axis_1">
    <g id="xtick_1">
     <g id="line2d_1">
      <defs>
       <path id="mf76932579c" d="M 0 0 
L 0 3.5 
" style="stroke: #000000; stroke-width: 0.8"/>
      </defs>
      <g>
       <use xlink:href="#mf76932579c" x="117.854261" y="308.63625" style="stroke: #000000; stroke-width: 0.8"/>
      </g>
     </g>
     <g id="text_1">
      <!-- 0 -->
      <g transform="translate(111.491761 330.833125) scale(0.2 -0.2)">
       <defs>
        <path id="DejaVuSans-30" d="M 2034 4250 
Q 1547 4250 1301 3770 
Q 1056 3291 1056 2328 
Q 1056 1369 1301 889 
Q 1547 409 2034 409 
Q 2525 409 2770 889 
Q 3016 1369 3016 2328 
Q 3016 3291 2770 3770 
Q 2525 4250 2034 4250 
z
M 2034 4750 
Q 2819 4750 3233 4129 
Q 3647 3509 3647 2328 
Q 3647 1150 3233 529 
Q 2819 -91 2034 -91 
Q 1250 -91 836 529 
Q 422 1150 422 2328 
Q 422 3509 836 4129 
Q 1250 4750 2034 4750 
z
" transform="scale(0.015625)"/>
       </defs>
       <use xlink:href="#DejaVuSans-30"/>
      </g>
     </g>
    </g>
    <g id="xtick_2">
     <g id="line2d_2">
      <g>
       <use xlink:href="#mf76932579c" x="202.399716" y="308.63625" style="stroke: #000000; stroke-width: 0.8"/>
      </g>
     </g>
     <g id="text_2">
      <!-- 50 -->
      <g transform="translate(189.674716 330.833125) scale(0.2 -0.2)">
       <defs>
        <path id="DejaVuSans-35" d="M 691 4666 
L 3169 4666 
L 3169 4134 
L 1269 4134 
L 1269 2991 
Q 1406 3038 1543 3061 
Q 1681 3084 1819 3084 
Q 2600 3084 3056 2656 
Q 3513 2228 3513 1497 
Q 3513 744 3044 326 
Q 2575 -91 1722 -91 
Q 1428 -91 1123 -41 
Q 819 9 494 109 
L 494 744 
Q 775 591 1075 516 
Q 1375 441 1709 441 
Q 2250 441 2565 725 
Q 2881 1009 2881 1497 
Q 2881 1984 2565 2268 
Q 2250 2553 1709 2553 
Q 1456 2553 1204 2497 
Q 953 2441 691 2322 
L 691 4666 
z
" transform="scale(0.015625)"/>
       </defs>
       <use xlink:href="#DejaVuSans-35"/>
       <use xlink:href="#DejaVuSans-30" x="63.623047"/>
      </g>
     </g>
    </g>
    <g id="xtick_3">
     <g id="line2d_3">
      <g>
       <use xlink:href="#mf76932579c" x="286.94517" y="308.63625" style="stroke: #000000; stroke-width: 0.8"/>
      </g>
     </g>
     <g id="text_3">
      <!-- 100 -->
      <g transform="translate(267.85767 330.833125) scale(0.2 -0.2)">
       <defs>
        <path id="DejaVuSans-31" d="M 794 531 
L 1825 531 
L 1825 4091 
L 703 3866 
L 703 4441 
L 1819 4666 
L 2450 4666 
L 2450 531 
L 3481 531 
L 3481 0 
L 794 0 
L 794 531 
z
" transform="scale(0.015625)"/>
       </defs>
       <use xlink:href="#DejaVuSans-31"/>
       <use xlink:href="#DejaVuSans-30" x="63.623047"/>
       <use xlink:href="#DejaVuSans-30" x="127.246094"/>
      </g>
     </g>
    </g>
    <g id="xtick_4">
     <g id="line2d_4">
      <g>
       <use xlink:href="#mf76932579c" x="371.490625" y="308.63625" style="stroke: #000000; stroke-width: 0.8"/>
      </g>
     </g>
     <g id="text_4">
      <!-- 150 -->
      <g transform="translate(352.403125 330.833125) scale(0.2 -0.2)">
       <use xlink:href="#DejaVuSans-31"/>
       <use xlink:href="#DejaVuSans-35" x="63.623047"/>
       <use xlink:href="#DejaVuSans-30" x="127.246094"/>
      </g>
     </g>
    </g>
    <g id="xtick_5">
     <g id="line2d_5">
      <g>
       <use xlink:href="#mf76932579c" x="456.03608" y="308.63625" style="stroke: #000000; stroke-width: 0.8"/>
      </g>
     </g>
     <g id="text_5">
      <!-- 200 -->
      <g transform="translate(436.94858 330.833125) scale(0.2 -0.2)">
       <defs>
        <path id="DejaVuSans-32" d="M 1228 531 
L 3431 531 
L 3431 0 
L 469 0 
L 469 531 
Q 828 903 1448 1529 
Q 2069 2156 2228 2338 
Q 2531 2678 2651 2914 
Q 2772 3150 2772 3378 
Q 2772 3750 2511 3984 
Q 2250 4219 1831 4219 
Q 1534 4219 1204 4116 
Q 875 4013 500 3803 
L 500 4441 
Q 881 4594 1212 4672 
Q 1544 4750 1819 4750 
Q 2544 4750 2975 4387 
Q 3406 4025 3406 3419 
Q 3406 3131 3298 2873 
Q 3191 2616 2906 2266 
Q 2828 2175 2409 1742 
Q 1991 1309 1228 531 
z
" transform="scale(0.015625)"/>
       </defs>
       <use xlink:href="#DejaVuSans-32"/>
       <use xlink:href="#DejaVuSans-30" x="63.623047"/>
       <use xlink:href="#DejaVuSans-30" x="127.246094"/>
      </g>
     </g>
    </g>
    <g id="xtick_6">
     <g id="line2d_6">
      <g>
       <use xlink:href="#mf76932579c" x="540.581534" y="308.63625" style="stroke: #000000; stroke-width: 0.8"/>
      </g>
     </g>
     <g id="text_6">
      <!-- 250 -->
      <g transform="translate(521.494034 330.833125) scale(0.2 -0.2)">
       <use xlink:href="#DejaVuSans-32"/>
       <use xlink:href="#DejaVuSans-35" x="63.623047"/>
       <use xlink:href="#DejaVuSans-30" x="127.246094"/>
      </g>
     </g>
    </g>
    <g id="xtick_7">
     <g id="line2d_7">
      <g>
       <use xlink:href="#mf76932579c" x="625.126989" y="308.63625" style="stroke: #000000; stroke-width: 0.8"/>
      </g>
     </g>
     <g id="text_7">
      <!-- 300 -->
      <g transform="translate(606.039489 330.833125) scale(0.2 -0.2)">
       <defs>
        <path id="DejaVuSans-33" d="M 2597 2516 
Q 3050 2419 3304 2112 
Q 3559 1806 3559 1356 
Q 3559 666 3084 287 
Q 2609 -91 1734 -91 
Q 1441 -91 1130 -33 
Q 819 25 488 141 
L 488 750 
Q 750 597 1062 519 
Q 1375 441 1716 441 
Q 2309 441 2620 675 
Q 2931 909 2931 1356 
Q 2931 1769 2642 2001 
Q 2353 2234 1838 2234 
L 1294 2234 
L 1294 2753 
L 1863 2753 
Q 2328 2753 2575 2939 
Q 2822 3125 2822 3475 
Q 2822 3834 2567 4026 
Q 2313 4219 1838 4219 
Q 1578 4219 1281 4162 
Q 984 4106 628 3988 
L 628 4550 
Q 988 4650 1302 4700 
Q 1616 4750 1894 4750 
Q 2613 4750 3031 4423 
Q 3450 4097 3450 3541 
Q 3450 3153 3228 2886 
Q 3006 2619 2597 2516 
z
" transform="scale(0.015625)"/>
       </defs>
       <use xlink:href="#DejaVuSans-33"/>
       <use xlink:href="#DejaVuSans-30" x="63.623047"/>
       <use xlink:href="#DejaVuSans-30" x="127.246094"/>
      </g>
     </g>
    </g>
    <g id="text_8">
     <!-- iterations -->
     <g transform="translate(324.035938 354.189375) scale(0.2 -0.2)">
      <defs>
       <path id="DejaVuSans-69" d="M 603 3500 
L 1178 3500 
L 1178 0 
L 603 0 
L 603 3500 
z
M 603 4863 
L 1178 4863 
L 1178 4134 
L 603 4134 
L 603 4863 
z
" transform="scale(0.015625)"/>
       <path id="DejaVuSans-74" d="M 1172 4494 
L 1172 3500 
L 2356 3500 
L 2356 3053 
L 1172 3053 
L 1172 1153 
Q 1172 725 1289 603 
Q 1406 481 1766 481 
L 2356 481 
L 2356 0 
L 1766 0 
Q 1100 0 847 248 
Q 594 497 594 1153 
L 594 3053 
L 172 3053 
L 172 3500 
L 594 3500 
L 594 4494 
L 1172 4494 
z
" transform="scale(0.015625)"/>
       <path id="DejaVuSans-65" d="M 3597 1894 
L 3597 1613 
L 953 1613 
Q 991 1019 1311 708 
Q 1631 397 2203 397 
Q 2534 397 2845 478 
Q 3156 559 3463 722 
L 3463 178 
Q 3153 47 2828 -22 
Q 2503 -91 2169 -91 
Q 1331 -91 842 396 
Q 353 884 353 1716 
Q 353 2575 817 3079 
Q 1281 3584 2069 3584 
Q 2775 3584 3186 3129 
Q 3597 2675 3597 1894 
z
M 3022 2063 
Q 3016 2534 2758 2815 
Q 2500 3097 2075 3097 
Q 1594 3097 1305 2825 
Q 1016 2553 972 2059 
L 3022 2063 
z
" transform="scale(0.015625)"/>
       <path id="DejaVuSans-72" d="M 2631 2963 
Q 2534 3019 2420 3045 
Q 2306 3072 2169 3072 
Q 1681 3072 1420 2755 
Q 1159 2438 1159 1844 
L 1159 0 
L 581 0 
L 581 3500 
L 1159 3500 
L 1159 2956 
Q 1341 3275 1631 3429 
Q 1922 3584 2338 3584 
Q 2397 3584 2469 3576 
Q 2541 3569 2628 3553 
L 2631 2963 
z
" transform="scale(0.015625)"/>
       <path id="DejaVuSans-61" d="M 2194 1759 
Q 1497 1759 1228 1600 
Q 959 1441 959 1056 
Q 959 750 1161 570 
Q 1363 391 1709 391 
Q 2188 391 2477 730 
Q 2766 1069 2766 1631 
L 2766 1759 
L 2194 1759 
z
M 3341 1997 
L 3341 0 
L 2766 0 
L 2766 531 
Q 2569 213 2275 61 
Q 1981 -91 1556 -91 
Q 1019 -91 701 211 
Q 384 513 384 1019 
Q 384 1609 779 1909 
Q 1175 2209 1959 2209 
L 2766 2209 
L 2766 2266 
Q 2766 2663 2505 2880 
Q 2244 3097 1772 3097 
Q 1472 3097 1187 3025 
Q 903 2953 641 2809 
L 641 3341 
Q 956 3463 1253 3523 
Q 1550 3584 1831 3584 
Q 2591 3584 2966 3190 
Q 3341 2797 3341 1997 
z
" transform="scale(0.015625)"/>
       <path id="DejaVuSans-6f" d="M 1959 3097 
Q 1497 3097 1228 2736 
Q 959 2375 959 1747 
Q 959 1119 1226 758 
Q 1494 397 1959 397 
Q 2419 397 2687 759 
Q 2956 1122 2956 1747 
Q 2956 2369 2687 2733 
Q 2419 3097 1959 3097 
z
M 1959 3584 
Q 2709 3584 3137 3096 
Q 3566 2609 3566 1747 
Q 3566 888 3137 398 
Q 2709 -91 1959 -91 
Q 1206 -91 779 398 
Q 353 888 353 1747 
Q 353 2609 779 3096 
Q 1206 3584 1959 3584 
z
" transform="scale(0.015625)"/>
       <path id="DejaVuSans-6e" d="M 3513 2113 
L 3513 0 
L 2938 0 
L 2938 2094 
Q 2938 2591 2744 2837 
Q 2550 3084 2163 3084 
Q 1697 3084 1428 2787 
Q 1159 2491 1159 1978 
L 1159 0 
L 581 0 
L 581 3500 
L 1159 3500 
L 1159 2956 
Q 1366 3272 1645 3428 
Q 1925 3584 2291 3584 
Q 2894 3584 3203 3211 
Q 3513 2838 3513 2113 
z
" transform="scale(0.015625)"/>
       <path id="DejaVuSans-73" d="M 2834 3397 
L 2834 2853 
Q 2591 2978 2328 3040 
Q 2066 3103 1784 3103 
Q 1356 3103 1142 2972 
Q 928 2841 928 2578 
Q 928 2378 1081 2264 
Q 1234 2150 1697 2047 
L 1894 2003 
Q 2506 1872 2764 1633 
Q 3022 1394 3022 966 
Q 3022 478 2636 193 
Q 2250 -91 1575 -91 
Q 1294 -91 989 -36 
Q 684 19 347 128 
L 347 722 
Q 666 556 975 473 
Q 1284 391 1588 391 
Q 1994 391 2212 530 
Q 2431 669 2431 922 
Q 2431 1156 2273 1281 
Q 2116 1406 1581 1522 
L 1381 1569 
Q 847 1681 609 1914 
Q 372 2147 372 2553 
Q 372 3047 722 3315 
Q 1072 3584 1716 3584 
Q 2034 3584 2315 3537 
Q 2597 3491 2834 3397 
z
" transform="scale(0.015625)"/>
      </defs>
      <use xlink:href="#DejaVuSans-69"/>
      <use xlink:href="#DejaVuSans-74" x="27.783203"/>
      <use xlink:href="#DejaVuSans-65" x="66.992188"/>
      <use xlink:href="#DejaVuSans-72" x="128.515625"/>
      <use xlink:href="#DejaVuSans-61" x="169.628906"/>
      <use xlink:href="#DejaVuSans-74" x="230.908203"/>
      <use xlink:href="#DejaVuSans-69" x="270.117188"/>
      <use xlink:href="#DejaVuSans-6f" x="297.900391"/>
      <use xlink:href="#DejaVuSans-6e" x="359.082031"/>
      <use xlink:href="#DejaVuSans-73" x="422.460938"/>
     </g>
    </g>
   </g>
   <g id="matplotlib.axis_2">
    <g id="ytick_1">
     <g id="line2d_8">
      <defs>
       <path id="mc4c28807ab" d="M 0 0 
L -3.5 0 
" style="stroke: #000000; stroke-width: 0.8"/>
      </defs>
      <g>
       <use xlink:href="#mc4c28807ab" x="92.490625" y="308.076474" style="stroke: #000000; stroke-width: 0.8"/>
      </g>
     </g>
     <g id="text_9">
      <!-- −300 -->
      <g transform="translate(30.55625 315.674911) scale(0.2 -0.2)">
       <defs>
        <path id="DejaVuSans-2212" d="M 678 2272 
L 4684 2272 
L 4684 1741 
L 678 1741 
L 678 2272 
z
" transform="scale(0.015625)"/>
       </defs>
       <use xlink:href="#DejaVuSans-2212"/>
       <use xlink:href="#DejaVuSans-33" x="83.789062"/>
       <use xlink:href="#DejaVuSans-30" x="147.412109"/>
       <use xlink:href="#DejaVuSans-30" x="211.035156"/>
      </g>
     </g>
    </g>
    <g id="ytick_2">
     <g id="line2d_9">
      <g>
       <use xlink:href="#mc4c28807ab" x="92.490625" y="260.333863" style="stroke: #000000; stroke-width: 0.8"/>
      </g>
     </g>
     <g id="text_10">
      <!-- −200 -->
      <g transform="translate(30.55625 267.9323) scale(0.2 -0.2)">
       <use xlink:href="#DejaVuSans-2212"/>
       <use xlink:href="#DejaVuSans-32" x="83.789062"/>
       <use xlink:href="#DejaVuSans-30" x="147.412109"/>
       <use xlink:href="#DejaVuSans-30" x="211.035156"/>
      </g>
     </g>
    </g>
    <g id="ytick_3">
     <g id="line2d_10">
      <g>
       <use xlink:href="#mc4c28807ab" x="92.490625" y="212.591251" style="stroke: #000000; stroke-width: 0.8"/>
      </g>
     </g>
     <g id="text_11">
      <!-- −100 -->
      <g transform="translate(30.55625 220.189689) scale(0.2 -0.2)">
       <use xlink:href="#DejaVuSans-2212"/>
       <use xlink:href="#DejaVuSans-31" x="83.789062"/>
       <use xlink:href="#DejaVuSans-30" x="147.412109"/>
       <use xlink:href="#DejaVuSans-30" x="211.035156"/>
      </g>
     </g>
    </g>
    <g id="ytick_4">
     <g id="line2d_11">
      <g>
       <use xlink:href="#mc4c28807ab" x="92.490625" y="164.84864" style="stroke: #000000; stroke-width: 0.8"/>
      </g>
     </g>
     <g id="text_12">
      <!-- 0 -->
      <g transform="translate(72.765625 172.447078) scale(0.2 -0.2)">
       <use xlink:href="#DejaVuSans-30"/>
      </g>
     </g>
    </g>
    <g id="ytick_5">
     <g id="line2d_12">
      <g>
       <use xlink:href="#mc4c28807ab" x="92.490625" y="117.106029" style="stroke: #000000; stroke-width: 0.8"/>
      </g>
     </g>
     <g id="text_13">
      <!-- 100 -->
      <g transform="translate(47.315625 124.704466) scale(0.2 -0.2)">
       <use xlink:href="#DejaVuSans-31"/>
       <use xlink:href="#DejaVuSans-30" x="63.623047"/>
       <use xlink:href="#DejaVuSans-30" x="127.246094"/>
      </g>
     </g>
    </g>
    <g id="ytick_6">
     <g id="line2d_13">
      <g>
       <use xlink:href="#mc4c28807ab" x="92.490625" y="69.363418" style="stroke: #000000; stroke-width: 0.8"/>
      </g>
     </g>
     <g id="text_14">
      <!-- 200 -->
      <g transform="translate(47.315625 76.961855) scale(0.2 -0.2)">
       <use xlink:href="#DejaVuSans-32"/>
       <use xlink:href="#DejaVuSans-30" x="63.623047"/>
       <use xlink:href="#DejaVuSans-30" x="127.246094"/>
      </g>
     </g>
    </g>
    <g id="text_15">
     <!-- Loss -->
     <g transform="translate(22.396875 191.970625) rotate(-90) scale(0.2 -0.2)">
      <defs>
       <path id="DejaVuSans-4c" d="M 628 4666 
L 1259 4666 
L 1259 531 
L 3531 531 
L 3531 0 
L 628 0 
L 628 4666 
z
" transform="scale(0.015625)"/>
      </defs>
      <use xlink:href="#DejaVuSans-4c"/>
      <use xlink:href="#DejaVuSans-6f" x="53.962891"/>
      <use xlink:href="#DejaVuSans-73" x="115.144531"/>
      <use xlink:href="#DejaVuSans-73" x="167.244141"/>
     </g>
    </g>
   </g>
   <g id="line2d_14">
    <path d="M 117.854261 146.813401 
L 119.54517 108.371969 
L 121.23608 80.391515 
L 122.926989 93.97479 
L 124.617898 99.817651 
L 126.308807 106.442787 
L 127.999716 102.548887 
L 129.690625 66.652339 
L 131.381534 44.03625 
L 133.072443 55.803627 
L 134.763352 64.165815 
L 136.454261 68.653032 
L 138.14517 61.460956 
L 139.83608 63.790343 
L 141.526989 62.242846 
L 143.217898 69.057708 
L 144.908807 80.741477 
L 146.599716 87.131444 
L 148.290625 98.140049 
L 149.981534 103.093068 
L 151.672443 93.825742 
L 153.363352 104.094745 
L 155.054261 107.308578 
L 156.74517 107.992912 
L 158.43608 109.644738 
L 160.126989 119.773596 
L 161.817898 118.892841 
L 163.508807 114.429748 
L 165.199716 114.41171 
L 166.890625 118.415431 
L 168.581534 117.206988 
L 170.272443 117.824206 
L 171.963352 124.735137 
L 173.654261 128.258738 
L 175.34517 123.195727 
L 177.03608 122.886145 
L 178.726989 125.843859 
L 180.417898 125.967041 
L 182.108807 131.582295 
L 183.799716 131.871905 
L 185.490625 133.114474 
L 187.181534 127.878369 
L 188.872443 129.495931 
L 190.563352 127.712842 
L 192.254261 124.552253 
L 193.94517 129.481497 
L 195.63608 130.09079 
L 197.326989 138.115362 
L 199.017898 141.78177 
L 200.708807 134.414925 
L 202.399716 137.67643 
L 204.090625 136.065027 
L 205.781534 137.869639 
L 207.472443 132.690907 
L 209.163352 140.119834 
L 210.854261 137.644756 
L 212.54517 136.745389 
L 214.23608 135.335573 
L 215.926989 138.130464 
L 217.617898 142.002796 
L 219.308807 141.84562 
L 220.999716 142.578861 
L 222.690625 142.251124 
L 224.381534 142.172145 
L 226.072443 141.417091 
L 227.763352 140.224809 
L 229.454261 143.217005 
L 231.14517 144.687951 
L 232.83608 143.797342 
L 234.526989 144.278274 
L 236.217898 146.270732 
L 237.908807 146.701501 
L 239.599716 145.461789 
L 241.290625 145.833763 
L 242.981534 143.692652 
L 244.672443 147.194435 
L 246.363352 146.821302 
L 248.054261 147.072493 
L 249.74517 148.093813 
L 251.43608 147.234276 
L 254.817898 150.883918 
L 256.508807 150.092965 
L 258.199716 150.882584 
L 259.890625 151.093285 
L 261.581534 150.889117 
L 263.272443 152.174483 
L 264.963352 152.94296 
L 266.654261 151.837858 
L 268.34517 153.425732 
L 270.03608 152.601994 
L 271.726989 154.162992 
L 273.417898 155.336526 
L 275.108807 153.768577 
L 276.799716 155.985871 
L 278.490625 156.51429 
L 280.181534 156.791584 
L 281.872443 158.00526 
L 283.563352 156.319263 
L 285.254261 157.103248 
L 286.94517 155.953429 
L 288.63608 157.745158 
L 290.326989 158.683875 
L 292.017898 158.244609 
L 293.708807 154.730314 
L 295.399716 156.566221 
L 297.090625 157.700492 
L 298.781534 156.920326 
L 300.472443 157.017393 
L 302.163352 158.068498 
L 303.854261 156.190997 
L 305.54517 157.968617 
L 307.23608 157.662547 
L 310.617898 159.727833 
L 312.308807 161.236052 
L 315.690625 160.847517 
L 317.381534 159.687739 
L 319.072443 158.799593 
L 320.763352 160.259755 
L 322.454261 159.926854 
L 324.14517 160.268099 
L 325.83608 160.364639 
L 327.526989 159.709332 
L 329.217898 158.883726 
L 332.599716 162.122629 
L 334.290625 161.527582 
L 335.981534 159.785258 
L 337.672443 160.608374 
L 339.363352 159.759418 
L 341.054261 161.088617 
L 342.74517 160.346155 
L 344.43608 159.732294 
L 346.126989 161.106603 
L 347.817898 160.441163 
L 349.508807 161.629867 
L 351.199716 161.67122 
L 352.890625 162.151759 
L 354.581534 163.316399 
L 357.963352 161.53737 
L 359.654261 162.63625 
L 363.03608 162.150268 
L 364.726989 164.664075 
L 366.417898 165.211228 
L 368.108807 165.140243 
L 369.799716 165.829806 
L 371.490625 166.831469 
L 373.181534 166.91882 
L 374.872443 167.478491 
L 376.563352 167.575725 
L 378.254261 165.443178 
L 379.94517 165.627313 
L 381.63608 166.592773 
L 383.326989 165.96152 
L 385.017898 166.931254 
L 386.708807 166.917131 
L 388.399716 165.406154 
L 390.090625 166.035049 
L 391.781534 164.400182 
L 393.472443 164.527758 
L 395.163352 164.778149 
L 396.854261 165.583527 
L 398.54517 167.012243 
L 400.23608 164.441019 
L 403.617898 166.745217 
L 406.999716 164.955568 
L 408.690625 165.543819 
L 410.381534 168.059276 
L 412.072443 166.862587 
L 413.763352 166.852146 
L 415.454261 167.158344 
L 417.14517 167.610948 
L 418.83608 163.137368 
L 420.526989 166.852458 
L 422.217898 164.939072 
L 423.908807 164.213958 
L 425.599716 164.386659 
L 427.290625 167.063814 
L 428.981534 167.008493 
L 430.672443 166.463196 
L 432.363352 166.887252 
L 434.054261 166.910252 
L 435.74517 167.962763 
L 437.43608 166.681478 
L 439.126989 167.175909 
L 440.817898 167.245556 
L 442.508807 168.843924 
L 444.199716 167.709087 
L 445.890625 168.158478 
L 447.581534 169.017948 
L 449.272443 167.592203 
L 450.963352 168.116261 
L 452.654261 167.660477 
L 454.34517 166.754246 
L 456.03608 165.994739 
L 457.726989 166.959647 
L 459.417898 167.091176 
L 461.108807 166.721602 
L 462.799716 167.801531 
L 464.490625 167.452339 
L 466.181534 167.493911 
L 467.872443 166.976974 
L 469.563352 164.934127 
L 471.254261 165.345127 
L 472.94517 166.14828 
L 474.63608 166.617358 
L 476.326989 165.362847 
L 478.017898 163.956945 
L 479.708807 163.966765 
L 481.399716 164.243007 
L 483.090625 164.33267 
L 484.781534 164.564122 
L 486.472443 164.054355 
L 488.163352 165.162294 
L 489.854261 164.311079 
L 491.54517 163.895203 
L 493.23608 162.229669 
L 494.926989 163.02108 
L 496.617898 163.191493 
L 498.308807 163.821427 
L 499.999716 164.095406 
L 501.690625 163.815524 
L 503.381534 163.811161 
L 505.072443 164.365739 
L 506.763352 164.153971 
L 508.454261 164.380678 
L 510.14517 163.315187 
L 511.83608 163.671799 
L 513.526989 162.34971 
L 515.217898 162.174869 
L 516.908807 163.137305 
L 518.599716 163.467982 
L 520.290625 164.097514 
L 521.981534 164.051731 
L 523.672443 163.19249 
L 525.363352 163.338166 
L 527.054261 163.609537 
L 528.74517 163.409286 
L 530.43608 162.704454 
L 532.126989 163.022985 
L 533.817898 163.529448 
L 535.508807 162.514471 
L 537.199716 161.906048 
L 538.890625 162.753296 
L 540.581534 163.801088 
L 542.272443 163.662423 
L 543.963352 162.76663 
L 545.654261 163.428382 
L 547.34517 163.457511 
L 549.03608 162.018732 
L 550.726989 163.01992 
L 552.417898 162.950906 
L 554.108807 162.106919 
L 557.490625 162.228724 
L 559.181534 162.292732 
L 560.872443 162.468102 
L 562.563352 162.912715 
L 564.254261 162.77536 
L 565.94517 162.843327 
L 567.63608 163.355386 
L 569.326989 162.62776 
L 571.017898 162.306488 
L 572.708807 162.595105 
L 574.399716 163.279859 
L 576.090625 163.234508 
L 577.781534 161.797956 
L 579.472443 162.181096 
L 581.163352 163.30094 
L 582.854261 163.675187 
L 584.54517 163.380859 
L 586.23608 162.733879 
L 587.926989 163.610364 
L 589.617898 163.322777 
L 591.308807 163.352923 
L 592.999716 162.602164 
L 594.690625 163.122249 
L 596.381534 162.569941 
L 598.072443 163.908707 
L 599.763352 164.132175 
L 601.454261 164.182415 
L 603.14517 164.06866 
L 604.83608 164.587901 
L 606.526989 164.740009 
L 608.217898 164.282625 
L 611.599716 164.185717 
L 613.290625 164.616448 
L 614.981534 165.503936 
L 618.363352 165.766536 
L 621.74517 165.438424 
L 623.43608 165.165958 
L 625.126989 165.47216 
L 625.126989 165.47216 
" clip-path="url(#p009486efea)" style="fill: none; stroke: #1f77b4; stroke-width: 1.5; stroke-linecap: square"/>
   </g>
   <g id="line2d_15">
    <path d="M 117.854261 279.873572 
L 119.54517 296.03625 
L 121.23608 229.281287 
L 122.926989 236.122226 
L 124.617898 248.683705 
L 126.308807 218.367146 
L 127.999716 218.400539 
L 129.690625 211.195002 
L 131.381534 212.309144 
L 133.072443 198.962672 
L 134.763352 190.346982 
L 136.454261 196.462808 
L 138.14517 197.599644 
L 139.83608 188.094759 
L 141.526989 190.045917 
L 143.217898 186.494612 
L 144.908807 182.039231 
L 146.599716 184.063975 
L 148.290625 178.165499 
L 149.981534 185.158377 
L 151.672443 189.378565 
L 153.363352 176.672747 
L 155.054261 180.343182 
L 156.74517 183.472574 
L 158.43608 179.997455 
L 160.126989 178.764802 
L 161.817898 179.431397 
L 163.508807 182.701853 
L 165.199716 182.914498 
L 166.890625 180.090675 
L 168.581534 177.760056 
L 170.272443 179.800106 
L 171.963352 178.200928 
L 173.654261 177.564652 
L 175.34517 182.456204 
L 177.03608 180.002798 
L 178.726989 180.160606 
L 180.417898 177.633725 
L 182.108807 171.751738 
L 183.799716 175.715035 
L 185.490625 176.917602 
L 187.181534 180.125995 
L 188.872443 180.754979 
L 190.563352 181.196825 
L 192.254261 177.825646 
L 193.94517 172.58093 
L 195.63608 176.092026 
L 197.326989 173.568487 
L 199.017898 176.855695 
L 200.708807 172.650635 
L 202.399716 173.922036 
L 204.090625 173.975875 
L 205.781534 176.504977 
L 207.472443 175.221635 
L 209.163352 174.523708 
L 210.854261 174.930204 
L 212.54517 173.528425 
L 214.23608 173.39019 
L 215.926989 173.696387 
L 217.617898 172.941273 
L 219.308807 173.272394 
L 220.999716 172.507198 
L 222.690625 171.465539 
L 224.381534 173.366213 
L 226.072443 174.304074 
L 227.763352 173.084636 
L 231.14517 171.892487 
L 232.83608 173.810638 
L 234.526989 171.464085 
L 236.217898 172.166575 
L 237.908807 171.781889 
L 239.599716 173.27443 
L 241.290625 173.75368 
L 242.981534 172.98322 
L 244.672443 172.752532 
L 246.363352 171.319888 
L 248.054261 172.930911 
L 249.74517 172.60628 
L 251.43608 172.42504 
L 253.126989 172.06188 
L 254.817898 172.467343 
L 256.508807 173.41976 
L 258.199716 172.478722 
L 259.890625 172.219409 
L 261.581534 172.697218 
L 263.272443 171.90948 
L 264.963352 172.378783 
L 266.654261 171.586432 
L 268.34517 171.869044 
L 270.03608 171.526817 
L 271.726989 170.921173 
L 273.417898 171.461252 
L 275.108807 171.83602 
L 276.799716 171.57401 
L 278.490625 170.570799 
L 280.181534 170.899908 
L 281.872443 170.631288 
L 283.563352 170.626831 
L 285.254261 171.536026 
L 286.94517 171.903319 
L 288.63608 171.117061 
L 290.326989 170.543677 
L 292.017898 170.406881 
L 293.708807 171.779958 
L 295.399716 171.60602 
L 297.090625 170.761067 
L 298.781534 171.723131 
L 300.472443 172.054827 
L 302.163352 171.475037 
L 303.854261 172.41331 
L 305.54517 170.467703 
L 307.23608 170.643053 
L 308.926989 171.659859 
L 310.617898 172.318618 
L 312.308807 171.77277 
L 313.999716 170.608154 
L 315.690625 170.90237 
L 317.381534 170.988016 
L 319.072443 171.349299 
L 320.763352 171.397261 
L 322.454261 170.114963 
L 324.14517 170.751939 
L 325.83608 170.629996 
L 327.526989 170.773039 
L 329.217898 169.586336 
L 330.908807 171.048779 
L 332.599716 172.064358 
L 334.290625 170.821795 
L 335.981534 170.186214 
L 337.672443 171.034565 
L 339.363352 170.430537 
L 341.054261 170.719736 
L 342.74517 170.830545 
L 346.126989 170.704124 
L 351.199716 171.807075 
L 352.890625 170.82302 
L 354.581534 170.941997 
L 356.272443 170.739885 
L 357.963352 171.1053 
L 361.34517 170.846343 
L 363.03608 170.275569 
L 364.726989 171.007003 
L 366.417898 170.317854 
L 368.108807 170.045591 
L 369.799716 170.058158 
L 371.490625 169.565035 
L 373.181534 171.321042 
L 374.872443 170.030748 
L 376.563352 170.162693 
L 378.254261 170.965113 
L 379.94517 171.410399 
L 381.63608 170.487894 
L 383.326989 170.52781 
L 385.017898 170.74821 
L 386.708807 170.162101 
L 388.399716 170.190171 
L 390.090625 170.989589 
L 391.781534 171.636929 
L 393.472443 170.866164 
L 395.163352 170.810881 
L 398.54517 171.681934 
L 400.23608 170.616611 
L 401.926989 170.565592 
L 403.617898 171.141648 
L 405.308807 170.184501 
L 406.999716 171.161076 
L 408.690625 170.901531 
L 410.381534 170.791018 
L 412.072443 171.147726 
L 413.763352 171.722995 
L 415.454261 172.623044 
L 417.14517 171.459207 
L 418.83608 171.681699 
L 420.526989 171.57636 
L 422.217898 172.06863 
L 423.908807 171.753699 
L 425.599716 172.544106 
L 427.290625 171.423933 
L 428.981534 171.005426 
L 430.672443 171.843317 
L 434.054261 171.640797 
L 437.43608 172.14075 
L 440.817898 172.954871 
L 442.508807 172.450178 
L 444.199716 172.095974 
L 445.890625 172.188807 
L 447.581534 173.760838 
L 449.272443 172.562795 
L 452.654261 173.052606 
L 454.34517 172.443163 
L 456.03608 173.142692 
L 457.726989 172.775511 
L 461.108807 173.084929 
L 462.799716 173.920099 
L 464.490625 173.144824 
L 466.181534 172.101883 
L 467.872443 172.398162 
L 469.563352 172.541096 
L 471.254261 172.803393 
L 472.94517 172.85655 
L 474.63608 172.351432 
L 476.326989 171.509069 
L 478.017898 171.321223 
L 479.708807 171.419382 
L 481.399716 171.285774 
L 483.090625 172.108168 
L 486.472443 171.253369 
L 488.163352 171.974652 
L 489.854261 172.49078 
L 491.54517 172.608069 
L 493.23608 173.112575 
L 494.926989 172.269899 
L 496.617898 171.918521 
L 498.308807 172.153425 
L 499.999716 172.02884 
L 501.690625 172.719266 
L 505.072443 172.177208 
L 506.763352 172.423473 
L 508.454261 172.513332 
L 510.14517 172.845066 
L 511.83608 172.658453 
L 513.526989 171.245621 
L 515.217898 172.38168 
L 516.908807 172.28215 
L 518.599716 173.372593 
L 520.290625 172.186195 
L 521.981534 172.165862 
L 525.363352 172.337176 
L 528.74517 171.738366 
L 530.43608 171.665087 
L 532.126989 172.437338 
L 533.817898 172.733014 
L 535.508807 172.696569 
L 537.199716 172.782286 
L 538.890625 172.151995 
L 540.581534 172.602721 
L 543.963352 172.812256 
L 545.654261 172.508644 
L 547.34517 172.662115 
L 549.03608 172.388833 
L 550.726989 172.616574 
L 552.417898 172.498701 
L 554.108807 172.122567 
L 555.799716 172.47289 
L 557.490625 172.364584 
L 560.872443 172.871487 
L 562.563352 172.517568 
L 565.94517 172.59048 
L 569.326989 172.624459 
L 571.017898 173.175465 
L 572.708807 172.992484 
L 574.399716 172.353261 
L 576.090625 172.5161 
L 577.781534 172.116873 
L 579.472443 171.884285 
L 581.163352 172.097075 
L 582.854261 172.109714 
L 584.54517 171.864138 
L 586.23608 171.240428 
L 587.926989 171.567323 
L 589.617898 172.146654 
L 591.308807 171.994954 
L 592.999716 171.425419 
L 599.763352 171.522025 
L 601.454261 171.31688 
L 603.14517 171.770494 
L 604.83608 171.386278 
L 606.526989 171.928892 
L 608.217898 171.259012 
L 609.908807 171.4512 
L 611.599716 170.369318 
L 613.290625 170.40821 
L 614.981534 171.24932 
L 618.363352 171.645808 
L 620.054261 171.432089 
L 621.74517 170.870355 
L 623.43608 170.705431 
L 625.126989 171.106628 
L 625.126989 171.106628 
" clip-path="url(#p009486efea)" style="fill: none; stroke: #ff7f0e; stroke-width: 1.5; stroke-linecap: square"/>
   </g>
   <g id="patch_3">
    <path d="M 92.490625 308.63625 
L 92.490625 31.43625 
" style="fill: none; stroke: #000000; stroke-width: 0.8; stroke-linejoin: miter; stroke-linecap: square"/>
   </g>
   <g id="patch_4">
    <path d="M 650.490625 308.63625 
L 650.490625 31.43625 
" style="fill: none; stroke: #000000; stroke-width: 0.8; stroke-linejoin: miter; stroke-linecap: square"/>
   </g>
   <g id="patch_5">
    <path d="M 92.490625 308.63625 
L 650.490625 308.63625 
" style="fill: none; stroke: #000000; stroke-width: 0.8; stroke-linejoin: miter; stroke-linecap: square"/>
   </g>
   <g id="patch_6">
    <path d="M 92.490625 31.43625 
L 650.490625 31.43625 
" style="fill: none; stroke: #000000; stroke-width: 0.8; stroke-linejoin: miter; stroke-linecap: square"/>
   </g>
   <g id="text_16">
    <!-- Generator and Discriminator Loss During Training -->
    <g transform="translate(74.258125 25.43625) scale(0.24 -0.24)">
     <defs>
      <path id="DejaVuSans-47" d="M 3809 666 
L 3809 1919 
L 2778 1919 
L 2778 2438 
L 4434 2438 
L 4434 434 
Q 4069 175 3628 42 
Q 3188 -91 2688 -91 
Q 1594 -91 976 548 
Q 359 1188 359 2328 
Q 359 3472 976 4111 
Q 1594 4750 2688 4750 
Q 3144 4750 3555 4637 
Q 3966 4525 4313 4306 
L 4313 3634 
Q 3963 3931 3569 4081 
Q 3175 4231 2741 4231 
Q 1884 4231 1454 3753 
Q 1025 3275 1025 2328 
Q 1025 1384 1454 906 
Q 1884 428 2741 428 
Q 3075 428 3337 486 
Q 3600 544 3809 666 
z
" transform="scale(0.015625)"/>
      <path id="DejaVuSans-20" transform="scale(0.015625)"/>
      <path id="DejaVuSans-64" d="M 2906 2969 
L 2906 4863 
L 3481 4863 
L 3481 0 
L 2906 0 
L 2906 525 
Q 2725 213 2448 61 
Q 2172 -91 1784 -91 
Q 1150 -91 751 415 
Q 353 922 353 1747 
Q 353 2572 751 3078 
Q 1150 3584 1784 3584 
Q 2172 3584 2448 3432 
Q 2725 3281 2906 2969 
z
M 947 1747 
Q 947 1113 1208 752 
Q 1469 391 1925 391 
Q 2381 391 2643 752 
Q 2906 1113 2906 1747 
Q 2906 2381 2643 2742 
Q 2381 3103 1925 3103 
Q 1469 3103 1208 2742 
Q 947 2381 947 1747 
z
" transform="scale(0.015625)"/>
      <path id="DejaVuSans-44" d="M 1259 4147 
L 1259 519 
L 2022 519 
Q 2988 519 3436 956 
Q 3884 1394 3884 2338 
Q 3884 3275 3436 3711 
Q 2988 4147 2022 4147 
L 1259 4147 
z
M 628 4666 
L 1925 4666 
Q 3281 4666 3915 4102 
Q 4550 3538 4550 2338 
Q 4550 1131 3912 565 
Q 3275 0 1925 0 
L 628 0 
L 628 4666 
z
" transform="scale(0.015625)"/>
      <path id="DejaVuSans-63" d="M 3122 3366 
L 3122 2828 
Q 2878 2963 2633 3030 
Q 2388 3097 2138 3097 
Q 1578 3097 1268 2742 
Q 959 2388 959 1747 
Q 959 1106 1268 751 
Q 1578 397 2138 397 
Q 2388 397 2633 464 
Q 2878 531 3122 666 
L 3122 134 
Q 2881 22 2623 -34 
Q 2366 -91 2075 -91 
Q 1284 -91 818 406 
Q 353 903 353 1747 
Q 353 2603 823 3093 
Q 1294 3584 2113 3584 
Q 2378 3584 2631 3529 
Q 2884 3475 3122 3366 
z
" transform="scale(0.015625)"/>
      <path id="DejaVuSans-6d" d="M 3328 2828 
Q 3544 3216 3844 3400 
Q 4144 3584 4550 3584 
Q 5097 3584 5394 3201 
Q 5691 2819 5691 2113 
L 5691 0 
L 5113 0 
L 5113 2094 
Q 5113 2597 4934 2840 
Q 4756 3084 4391 3084 
Q 3944 3084 3684 2787 
Q 3425 2491 3425 1978 
L 3425 0 
L 2847 0 
L 2847 2094 
Q 2847 2600 2669 2842 
Q 2491 3084 2119 3084 
Q 1678 3084 1418 2786 
Q 1159 2488 1159 1978 
L 1159 0 
L 581 0 
L 581 3500 
L 1159 3500 
L 1159 2956 
Q 1356 3278 1631 3431 
Q 1906 3584 2284 3584 
Q 2666 3584 2933 3390 
Q 3200 3197 3328 2828 
z
" transform="scale(0.015625)"/>
      <path id="DejaVuSans-75" d="M 544 1381 
L 544 3500 
L 1119 3500 
L 1119 1403 
Q 1119 906 1312 657 
Q 1506 409 1894 409 
Q 2359 409 2629 706 
Q 2900 1003 2900 1516 
L 2900 3500 
L 3475 3500 
L 3475 0 
L 2900 0 
L 2900 538 
Q 2691 219 2414 64 
Q 2138 -91 1772 -91 
Q 1169 -91 856 284 
Q 544 659 544 1381 
z
M 1991 3584 
L 1991 3584 
z
" transform="scale(0.015625)"/>
      <path id="DejaVuSans-67" d="M 2906 1791 
Q 2906 2416 2648 2759 
Q 2391 3103 1925 3103 
Q 1463 3103 1205 2759 
Q 947 2416 947 1791 
Q 947 1169 1205 825 
Q 1463 481 1925 481 
Q 2391 481 2648 825 
Q 2906 1169 2906 1791 
z
M 3481 434 
Q 3481 -459 3084 -895 
Q 2688 -1331 1869 -1331 
Q 1566 -1331 1297 -1286 
Q 1028 -1241 775 -1147 
L 775 -588 
Q 1028 -725 1275 -790 
Q 1522 -856 1778 -856 
Q 2344 -856 2625 -561 
Q 2906 -266 2906 331 
L 2906 616 
Q 2728 306 2450 153 
Q 2172 0 1784 0 
Q 1141 0 747 490 
Q 353 981 353 1791 
Q 353 2603 747 3093 
Q 1141 3584 1784 3584 
Q 2172 3584 2450 3431 
Q 2728 3278 2906 2969 
L 2906 3500 
L 3481 3500 
L 3481 434 
z
" transform="scale(0.015625)"/>
      <path id="DejaVuSans-54" d="M -19 4666 
L 3928 4666 
L 3928 4134 
L 2272 4134 
L 2272 0 
L 1638 0 
L 1638 4134 
L -19 4134 
L -19 4666 
z
" transform="scale(0.015625)"/>
     </defs>
     <use xlink:href="#DejaVuSans-47"/>
     <use xlink:href="#DejaVuSans-65" x="77.490234"/>
     <use xlink:href="#DejaVuSans-6e" x="139.013672"/>
     <use xlink:href="#DejaVuSans-65" x="202.392578"/>
     <use xlink:href="#DejaVuSans-72" x="263.916016"/>
     <use xlink:href="#DejaVuSans-61" x="305.029297"/>
     <use xlink:href="#DejaVuSans-74" x="366.308594"/>
     <use xlink:href="#DejaVuSans-6f" x="405.517578"/>
     <use xlink:href="#DejaVuSans-72" x="466.699219"/>
     <use xlink:href="#DejaVuSans-20" x="507.8125"/>
     <use xlink:href="#DejaVuSans-61" x="539.599609"/>
     <use xlink:href="#DejaVuSans-6e" x="600.878906"/>
     <use xlink:href="#DejaVuSans-64" x="664.257812"/>
     <use xlink:href="#DejaVuSans-20" x="727.734375"/>
     <use xlink:href="#DejaVuSans-44" x="759.521484"/>
     <use xlink:href="#DejaVuSans-69" x="836.523438"/>
     <use xlink:href="#DejaVuSans-73" x="864.306641"/>
     <use xlink:href="#DejaVuSans-63" x="916.40625"/>
     <use xlink:href="#DejaVuSans-72" x="971.386719"/>
     <use xlink:href="#DejaVuSans-69" x="1012.5"/>
     <use xlink:href="#DejaVuSans-6d" x="1040.283203"/>
     <use xlink:href="#DejaVuSans-69" x="1137.695312"/>
     <use xlink:href="#DejaVuSans-6e" x="1165.478516"/>
     <use xlink:href="#DejaVuSans-61" x="1228.857422"/>
     <use xlink:href="#DejaVuSans-74" x="1290.136719"/>
     <use xlink:href="#DejaVuSans-6f" x="1329.345703"/>
     <use xlink:href="#DejaVuSans-72" x="1390.527344"/>
     <use xlink:href="#DejaVuSans-20" x="1431.640625"/>
     <use xlink:href="#DejaVuSans-4c" x="1463.427734"/>
     <use xlink:href="#DejaVuSans-6f" x="1517.390625"/>
     <use xlink:href="#DejaVuSans-73" x="1578.572266"/>
     <use xlink:href="#DejaVuSans-73" x="1630.671875"/>
     <use xlink:href="#DejaVuSans-20" x="1682.771484"/>
     <use xlink:href="#DejaVuSans-44" x="1714.558594"/>
     <use xlink:href="#DejaVuSans-75" x="1791.560547"/>
     <use xlink:href="#DejaVuSans-72" x="1854.939453"/>
     <use xlink:href="#DejaVuSans-69" x="1896.052734"/>
     <use xlink:href="#DejaVuSans-6e" x="1923.835938"/>
     <use xlink:href="#DejaVuSans-67" x="1987.214844"/>
     <use xlink:href="#DejaVuSans-20" x="2050.691406"/>
     <use xlink:href="#DejaVuSans-54" x="2082.478516"/>
     <use xlink:href="#DejaVuSans-72" x="2128.8125"/>
     <use xlink:href="#DejaVuSans-61" x="2169.925781"/>
     <use xlink:href="#DejaVuSans-69" x="2231.205078"/>
     <use xlink:href="#DejaVuSans-6e" x="2258.988281"/>
     <use xlink:href="#DejaVuSans-69" x="2322.367188"/>
     <use xlink:href="#DejaVuSans-6e" x="2350.150391"/>
     <use xlink:href="#DejaVuSans-67" x="2413.529297"/>
    </g>
   </g>
   <g id="legend_1">
    <g id="patch_7">
     <path d="M 556.99375 106.14875 
L 636.490625 106.14875 
Q 640.490625 106.14875 640.490625 102.14875 
L 640.490625 45.43625 
Q 640.490625 41.43625 636.490625 41.43625 
L 556.99375 41.43625 
Q 552.99375 41.43625 552.99375 45.43625 
L 552.99375 102.14875 
Q 552.99375 106.14875 556.99375 106.14875 
z
" style="fill: #ffffff; opacity: 0.8; stroke: #cccccc; stroke-linejoin: miter"/>
    </g>
    <g id="line2d_16">
     <path d="M 560.99375 57.633125 
L 580.99375 57.633125 
L 600.99375 57.633125 
" style="fill: none; stroke: #1f77b4; stroke-width: 1.5; stroke-linecap: square"/>
    </g>
    <g id="text_17">
     <!-- G -->
     <g transform="translate(616.99375 64.633125) scale(0.2 -0.2)">
      <use xlink:href="#DejaVuSans-47"/>
     </g>
    </g>
    <g id="line2d_17">
     <path d="M 560.99375 86.989375 
L 580.99375 86.989375 
L 600.99375 86.989375 
" style="fill: none; stroke: #ff7f0e; stroke-width: 1.5; stroke-linecap: square"/>
    </g>
    <g id="text_18">
     <!-- D -->
     <g transform="translate(616.99375 93.989375) scale(0.2 -0.2)">
      <use xlink:href="#DejaVuSans-44"/>
     </g>
    </g>
   </g>
  </g>
 </g>
 <defs>
  <clipPath id="p009486efea">
   <rect x="92.490625" y="31.43625" width="558" height="277.2"/>
  </clipPath>
 </defs>
</svg>
