<?xml version="1.0" encoding="utf-8" standalone="no"?>
<!DOCTYPE svg PUBLIC "-//W3C//DTD SVG 1.1//EN"
  "http://www.w3.org/Graphics/SVG/1.1/DTD/svg11.dtd">
<svg xmlns:xlink="http://www.w3.org/1999/xlink" width="675.923125pt" height="365.54875pt" viewBox="0 0 675.923125 365.54875" xmlns="http://www.w3.org/2000/svg" version="1.1">
 <metadata>
  <rdf:RDF xmlns:dc="http://purl.org/dc/elements/1.1/" xmlns:cc="http://creativecommons.org/ns#" xmlns:rdf="http://www.w3.org/1999/02/22-rdf-syntax-ns#">
   <cc:Work>
    <dc:type rdf:resource="http://purl.org/dc/dcmitype/StillImage"/>
    <dc:date>2024-02-02T19:14:45.511353</dc:date>
    <dc:format>image/svg+xml</dc:format>
    <dc:creator>
     <cc:Agent>
      <dc:title>Matplotlib v3.7.2, https://matplotlib.org/</dc:title>
     </cc:Agent>
    </dc:creator>
   </cc:Work>
  </rdf:RDF>
 </metadata>
 <defs>
  <style type="text/css">*{stroke-linejoin: round; stroke-linecap: butt}</style>
 </defs>
 <g id="figure_1">
  <g id="patch_1">
   <path d="M 0 365.54875 
L 675.923125 365.54875 
L 675.923125 -0 
L 0 -0 
z
" style="fill: #ffffff"/>
  </g>
  <g id="axes_1">
   <g id="patch_2">
    <path d="M 92.490625 308.63625 
L 650.490625 308.63625 
L 650.490625 31.43625 
L 92.490625 31.43625 
z
" style="fill: #ffffff"/>
   </g>
   <g id="matplotlib.axis_1">
    <g id="xtick_1">
     <g id="line2d_1">
      <defs>
       <path id="m58d81d67c6" d="M 0 0 
L 0 3.5 
" style="stroke: #000000; stroke-width: 0.8"/>
      </defs>
      <g>
       <use xlink:href="#m58d81d67c6" x="117.854261" y="308.63625" style="stroke: #000000; stroke-width: 0.8"/>
      </g>
     </g>
     <g id="text_1">
      <!-- 0 -->
      <g transform="translate(111.491761 330.833125) scale(0.2 -0.2)">
       <defs>
        <path id="DejaVuSans-30" d="M 2034 4250 
Q 1547 4250 1301 3770 
Q 1056 3291 1056 2328 
Q 1056 1369 1301 889 
Q 1547 409 2034 409 
Q 2525 409 2770 889 
Q 3016 1369 3016 2328 
Q 3016 3291 2770 3770 
Q 2525 4250 2034 4250 
z
M 2034 4750 
Q 2819 4750 3233 4129 
Q 3647 3509 3647 2328 
Q 3647 1150 3233 529 
Q 2819 -91 2034 -91 
Q 1250 -91 836 529 
Q 422 1150 422 2328 
Q 422 3509 836 4129 
Q 1250 4750 2034 4750 
z
" transform="scale(0.015625)"/>
       </defs>
       <use xlink:href="#DejaVuSans-30"/>
      </g>
     </g>
    </g>
    <g id="xtick_2">
     <g id="line2d_2">
      <g>
       <use xlink:href="#m58d81d67c6" x="224.64852" y="308.63625" style="stroke: #000000; stroke-width: 0.8"/>
      </g>
     </g>
     <g id="text_2">
      <!-- 200 -->
      <g transform="translate(205.56102 330.833125) scale(0.2 -0.2)">
       <defs>
        <path id="DejaVuSans-32" d="M 1228 531 
L 3431 531 
L 3431 0 
L 469 0 
L 469 531 
Q 828 903 1448 1529 
Q 2069 2156 2228 2338 
Q 2531 2678 2651 2914 
Q 2772 3150 2772 3378 
Q 2772 3750 2511 3984 
Q 2250 4219 1831 4219 
Q 1534 4219 1204 4116 
Q 875 4013 500 3803 
L 500 4441 
Q 881 4594 1212 4672 
Q 1544 4750 1819 4750 
Q 2544 4750 2975 4387 
Q 3406 4025 3406 3419 
Q 3406 3131 3298 2873 
Q 3191 2616 2906 2266 
Q 2828 2175 2409 1742 
Q 1991 1309 1228 531 
z
" transform="scale(0.015625)"/>
       </defs>
       <use xlink:href="#DejaVuSans-32"/>
       <use xlink:href="#DejaVuSans-30" x="63.623047"/>
       <use xlink:href="#DejaVuSans-30" x="127.246094"/>
      </g>
     </g>
    </g>
    <g id="xtick_3">
     <g id="line2d_3">
      <g>
       <use xlink:href="#m58d81d67c6" x="331.442778" y="308.63625" style="stroke: #000000; stroke-width: 0.8"/>
      </g>
     </g>
     <g id="text_3">
      <!-- 400 -->
      <g transform="translate(312.355278 330.833125) scale(0.2 -0.2)">
       <defs>
        <path id="DejaVuSans-34" d="M 2419 4116 
L 825 1625 
L 2419 1625 
L 2419 4116 
z
M 2253 4666 
L 3047 4666 
L 3047 1625 
L 3713 1625 
L 3713 1100 
L 3047 1100 
L 3047 0 
L 2419 0 
L 2419 1100 
L 313 1100 
L 313 1709 
L 2253 4666 
z
" transform="scale(0.015625)"/>
       </defs>
       <use xlink:href="#DejaVuSans-34"/>
       <use xlink:href="#DejaVuSans-30" x="63.623047"/>
       <use xlink:href="#DejaVuSans-30" x="127.246094"/>
      </g>
     </g>
    </g>
    <g id="xtick_4">
     <g id="line2d_4">
      <g>
       <use xlink:href="#m58d81d67c6" x="438.237036" y="308.63625" style="stroke: #000000; stroke-width: 0.8"/>
      </g>
     </g>
     <g id="text_4">
      <!-- 600 -->
      <g transform="translate(419.149536 330.833125) scale(0.2 -0.2)">
       <defs>
        <path id="DejaVuSans-36" d="M 2113 2584 
Q 1688 2584 1439 2293 
Q 1191 2003 1191 1497 
Q 1191 994 1439 701 
Q 1688 409 2113 409 
Q 2538 409 2786 701 
Q 3034 994 3034 1497 
Q 3034 2003 2786 2293 
Q 2538 2584 2113 2584 
z
M 3366 4563 
L 3366 3988 
Q 3128 4100 2886 4159 
Q 2644 4219 2406 4219 
Q 1781 4219 1451 3797 
Q 1122 3375 1075 2522 
Q 1259 2794 1537 2939 
Q 1816 3084 2150 3084 
Q 2853 3084 3261 2657 
Q 3669 2231 3669 1497 
Q 3669 778 3244 343 
Q 2819 -91 2113 -91 
Q 1303 -91 875 529 
Q 447 1150 447 2328 
Q 447 3434 972 4092 
Q 1497 4750 2381 4750 
Q 2619 4750 2861 4703 
Q 3103 4656 3366 4563 
z
" transform="scale(0.015625)"/>
       </defs>
       <use xlink:href="#DejaVuSans-36"/>
       <use xlink:href="#DejaVuSans-30" x="63.623047"/>
       <use xlink:href="#DejaVuSans-30" x="127.246094"/>
      </g>
     </g>
    </g>
    <g id="xtick_5">
     <g id="line2d_5">
      <g>
       <use xlink:href="#m58d81d67c6" x="545.031295" y="308.63625" style="stroke: #000000; stroke-width: 0.8"/>
      </g>
     </g>
     <g id="text_5">
      <!-- 800 -->
      <g transform="translate(525.943795 330.833125) scale(0.2 -0.2)">
       <defs>
        <path id="DejaVuSans-38" d="M 2034 2216 
Q 1584 2216 1326 1975 
Q 1069 1734 1069 1313 
Q 1069 891 1326 650 
Q 1584 409 2034 409 
Q 2484 409 2743 651 
Q 3003 894 3003 1313 
Q 3003 1734 2745 1975 
Q 2488 2216 2034 2216 
z
M 1403 2484 
Q 997 2584 770 2862 
Q 544 3141 544 3541 
Q 544 4100 942 4425 
Q 1341 4750 2034 4750 
Q 2731 4750 3128 4425 
Q 3525 4100 3525 3541 
Q 3525 3141 3298 2862 
Q 3072 2584 2669 2484 
Q 3125 2378 3379 2068 
Q 3634 1759 3634 1313 
Q 3634 634 3220 271 
Q 2806 -91 2034 -91 
Q 1263 -91 848 271 
Q 434 634 434 1313 
Q 434 1759 690 2068 
Q 947 2378 1403 2484 
z
M 1172 3481 
Q 1172 3119 1398 2916 
Q 1625 2713 2034 2713 
Q 2441 2713 2670 2916 
Q 2900 3119 2900 3481 
Q 2900 3844 2670 4047 
Q 2441 4250 2034 4250 
Q 1625 4250 1398 4047 
Q 1172 3844 1172 3481 
z
" transform="scale(0.015625)"/>
       </defs>
       <use xlink:href="#DejaVuSans-38"/>
       <use xlink:href="#DejaVuSans-30" x="63.623047"/>
       <use xlink:href="#DejaVuSans-30" x="127.246094"/>
      </g>
     </g>
    </g>
    <g id="text_6">
     <!-- iterations -->
     <g transform="translate(324.035938 354.189375) scale(0.2 -0.2)">
      <defs>
       <path id="DejaVuSans-69" d="M 603 3500 
L 1178 3500 
L 1178 0 
L 603 0 
L 603 3500 
z
M 603 4863 
L 1178 4863 
L 1178 4134 
L 603 4134 
L 603 4863 
z
" transform="scale(0.015625)"/>
       <path id="DejaVuSans-74" d="M 1172 4494 
L 1172 3500 
L 2356 3500 
L 2356 3053 
L 1172 3053 
L 1172 1153 
Q 1172 725 1289 603 
Q 1406 481 1766 481 
L 2356 481 
L 2356 0 
L 1766 0 
Q 1100 0 847 248 
Q 594 497 594 1153 
L 594 3053 
L 172 3053 
L 172 3500 
L 594 3500 
L 594 4494 
L 1172 4494 
z
" transform="scale(0.015625)"/>
       <path id="DejaVuSans-65" d="M 3597 1894 
L 3597 1613 
L 953 1613 
Q 991 1019 1311 708 
Q 1631 397 2203 397 
Q 2534 397 2845 478 
Q 3156 559 3463 722 
L 3463 178 
Q 3153 47 2828 -22 
Q 2503 -91 2169 -91 
Q 1331 -91 842 396 
Q 353 884 353 1716 
Q 353 2575 817 3079 
Q 1281 3584 2069 3584 
Q 2775 3584 3186 3129 
Q 3597 2675 3597 1894 
z
M 3022 2063 
Q 3016 2534 2758 2815 
Q 2500 3097 2075 3097 
Q 1594 3097 1305 2825 
Q 1016 2553 972 2059 
L 3022 2063 
z
" transform="scale(0.015625)"/>
       <path id="DejaVuSans-72" d="M 2631 2963 
Q 2534 3019 2420 3045 
Q 2306 3072 2169 3072 
Q 1681 3072 1420 2755 
Q 1159 2438 1159 1844 
L 1159 0 
L 581 0 
L 581 3500 
L 1159 3500 
L 1159 2956 
Q 1341 3275 1631 3429 
Q 1922 3584 2338 3584 
Q 2397 3584 2469 3576 
Q 2541 3569 2628 3553 
L 2631 2963 
z
" transform="scale(0.015625)"/>
       <path id="DejaVuSans-61" d="M 2194 1759 
Q 1497 1759 1228 1600 
Q 959 1441 959 1056 
Q 959 750 1161 570 
Q 1363 391 1709 391 
Q 2188 391 2477 730 
Q 2766 1069 2766 1631 
L 2766 1759 
L 2194 1759 
z
M 3341 1997 
L 3341 0 
L 2766 0 
L 2766 531 
Q 2569 213 2275 61 
Q 1981 -91 1556 -91 
Q 1019 -91 701 211 
Q 384 513 384 1019 
Q 384 1609 779 1909 
Q 1175 2209 1959 2209 
L 2766 2209 
L 2766 2266 
Q 2766 2663 2505 2880 
Q 2244 3097 1772 3097 
Q 1472 3097 1187 3025 
Q 903 2953 641 2809 
L 641 3341 
Q 956 3463 1253 3523 
Q 1550 3584 1831 3584 
Q 2591 3584 2966 3190 
Q 3341 2797 3341 1997 
z
" transform="scale(0.015625)"/>
       <path id="DejaVuSans-6f" d="M 1959 3097 
Q 1497 3097 1228 2736 
Q 959 2375 959 1747 
Q 959 1119 1226 758 
Q 1494 397 1959 397 
Q 2419 397 2687 759 
Q 2956 1122 2956 1747 
Q 2956 2369 2687 2733 
Q 2419 3097 1959 3097 
z
M 1959 3584 
Q 2709 3584 3137 3096 
Q 3566 2609 3566 1747 
Q 3566 888 3137 398 
Q 2709 -91 1959 -91 
Q 1206 -91 779 398 
Q 353 888 353 1747 
Q 353 2609 779 3096 
Q 1206 3584 1959 3584 
z
" transform="scale(0.015625)"/>
       <path id="DejaVuSans-6e" d="M 3513 2113 
L 3513 0 
L 2938 0 
L 2938 2094 
Q 2938 2591 2744 2837 
Q 2550 3084 2163 3084 
Q 1697 3084 1428 2787 
Q 1159 2491 1159 1978 
L 1159 0 
L 581 0 
L 581 3500 
L 1159 3500 
L 1159 2956 
Q 1366 3272 1645 3428 
Q 1925 3584 2291 3584 
Q 2894 3584 3203 3211 
Q 3513 2838 3513 2113 
z
" transform="scale(0.015625)"/>
       <path id="DejaVuSans-73" d="M 2834 3397 
L 2834 2853 
Q 2591 2978 2328 3040 
Q 2066 3103 1784 3103 
Q 1356 3103 1142 2972 
Q 928 2841 928 2578 
Q 928 2378 1081 2264 
Q 1234 2150 1697 2047 
L 1894 2003 
Q 2506 1872 2764 1633 
Q 3022 1394 3022 966 
Q 3022 478 2636 193 
Q 2250 -91 1575 -91 
Q 1294 -91 989 -36 
Q 684 19 347 128 
L 347 722 
Q 666 556 975 473 
Q 1284 391 1588 391 
Q 1994 391 2212 530 
Q 2431 669 2431 922 
Q 2431 1156 2273 1281 
Q 2116 1406 1581 1522 
L 1381 1569 
Q 847 1681 609 1914 
Q 372 2147 372 2553 
Q 372 3047 722 3315 
Q 1072 3584 1716 3584 
Q 2034 3584 2315 3537 
Q 2597 3491 2834 3397 
z
" transform="scale(0.015625)"/>
      </defs>
      <use xlink:href="#DejaVuSans-69"/>
      <use xlink:href="#DejaVuSans-74" x="27.783203"/>
      <use xlink:href="#DejaVuSans-65" x="66.992188"/>
      <use xlink:href="#DejaVuSans-72" x="128.515625"/>
      <use xlink:href="#DejaVuSans-61" x="169.628906"/>
      <use xlink:href="#DejaVuSans-74" x="230.908203"/>
      <use xlink:href="#DejaVuSans-69" x="270.117188"/>
      <use xlink:href="#DejaVuSans-6f" x="297.900391"/>
      <use xlink:href="#DejaVuSans-6e" x="359.082031"/>
      <use xlink:href="#DejaVuSans-73" x="422.460938"/>
     </g>
    </g>
   </g>
   <g id="matplotlib.axis_2">
    <g id="ytick_1">
     <g id="line2d_6">
      <defs>
       <path id="m3db8ce82ae" d="M 0 0 
L -3.5 0 
" style="stroke: #000000; stroke-width: 0.8"/>
      </defs>
      <g>
       <use xlink:href="#m3db8ce82ae" x="92.490625" y="308.076474" style="stroke: #000000; stroke-width: 0.8"/>
      </g>
     </g>
     <g id="text_7">
      <!-- −300 -->
      <g transform="translate(30.55625 315.674911) scale(0.2 -0.2)">
       <defs>
        <path id="DejaVuSans-2212" d="M 678 2272 
L 4684 2272 
L 4684 1741 
L 678 1741 
L 678 2272 
z
" transform="scale(0.015625)"/>
        <path id="DejaVuSans-33" d="M 2597 2516 
Q 3050 2419 3304 2112 
Q 3559 1806 3559 1356 
Q 3559 666 3084 287 
Q 2609 -91 1734 -91 
Q 1441 -91 1130 -33 
Q 819 25 488 141 
L 488 750 
Q 750 597 1062 519 
Q 1375 441 1716 441 
Q 2309 441 2620 675 
Q 2931 909 2931 1356 
Q 2931 1769 2642 2001 
Q 2353 2234 1838 2234 
L 1294 2234 
L 1294 2753 
L 1863 2753 
Q 2328 2753 2575 2939 
Q 2822 3125 2822 3475 
Q 2822 3834 2567 4026 
Q 2313 4219 1838 4219 
Q 1578 4219 1281 4162 
Q 984 4106 628 3988 
L 628 4550 
Q 988 4650 1302 4700 
Q 1616 4750 1894 4750 
Q 2613 4750 3031 4423 
Q 3450 4097 3450 3541 
Q 3450 3153 3228 2886 
Q 3006 2619 2597 2516 
z
" transform="scale(0.015625)"/>
       </defs>
       <use xlink:href="#DejaVuSans-2212"/>
       <use xlink:href="#DejaVuSans-33" x="83.789062"/>
       <use xlink:href="#DejaVuSans-30" x="147.412109"/>
       <use xlink:href="#DejaVuSans-30" x="211.035156"/>
      </g>
     </g>
    </g>
    <g id="ytick_2">
     <g id="line2d_7">
      <g>
       <use xlink:href="#m3db8ce82ae" x="92.490625" y="260.333863" style="stroke: #000000; stroke-width: 0.8"/>
      </g>
     </g>
     <g id="text_8">
      <!-- −200 -->
      <g transform="translate(30.55625 267.9323) scale(0.2 -0.2)">
       <use xlink:href="#DejaVuSans-2212"/>
       <use xlink:href="#DejaVuSans-32" x="83.789062"/>
       <use xlink:href="#DejaVuSans-30" x="147.412109"/>
       <use xlink:href="#DejaVuSans-30" x="211.035156"/>
      </g>
     </g>
    </g>
    <g id="ytick_3">
     <g id="line2d_8">
      <g>
       <use xlink:href="#m3db8ce82ae" x="92.490625" y="212.591251" style="stroke: #000000; stroke-width: 0.8"/>
      </g>
     </g>
     <g id="text_9">
      <!-- −100 -->
      <g transform="translate(30.55625 220.189689) scale(0.2 -0.2)">
       <defs>
        <path id="DejaVuSans-31" d="M 794 531 
L 1825 531 
L 1825 4091 
L 703 3866 
L 703 4441 
L 1819 4666 
L 2450 4666 
L 2450 531 
L 3481 531 
L 3481 0 
L 794 0 
L 794 531 
z
" transform="scale(0.015625)"/>
       </defs>
       <use xlink:href="#DejaVuSans-2212"/>
       <use xlink:href="#DejaVuSans-31" x="83.789062"/>
       <use xlink:href="#DejaVuSans-30" x="147.412109"/>
       <use xlink:href="#DejaVuSans-30" x="211.035156"/>
      </g>
     </g>
    </g>
    <g id="ytick_4">
     <g id="line2d_9">
      <g>
       <use xlink:href="#m3db8ce82ae" x="92.490625" y="164.84864" style="stroke: #000000; stroke-width: 0.8"/>
      </g>
     </g>
     <g id="text_10">
      <!-- 0 -->
      <g transform="translate(72.765625 172.447078) scale(0.2 -0.2)">
       <use xlink:href="#DejaVuSans-30"/>
      </g>
     </g>
    </g>
    <g id="ytick_5">
     <g id="line2d_10">
      <g>
       <use xlink:href="#m3db8ce82ae" x="92.490625" y="117.106029" style="stroke: #000000; stroke-width: 0.8"/>
      </g>
     </g>
     <g id="text_11">
      <!-- 100 -->
      <g transform="translate(47.315625 124.704466) scale(0.2 -0.2)">
       <use xlink:href="#DejaVuSans-31"/>
       <use xlink:href="#DejaVuSans-30" x="63.623047"/>
       <use xlink:href="#DejaVuSans-30" x="127.246094"/>
      </g>
     </g>
    </g>
    <g id="ytick_6">
     <g id="line2d_11">
      <g>
       <use xlink:href="#m3db8ce82ae" x="92.490625" y="69.363418" style="stroke: #000000; stroke-width: 0.8"/>
      </g>
     </g>
     <g id="text_12">
      <!-- 200 -->
      <g transform="translate(47.315625 76.961855) scale(0.2 -0.2)">
       <use xlink:href="#DejaVuSans-32"/>
       <use xlink:href="#DejaVuSans-30" x="63.623047"/>
       <use xlink:href="#DejaVuSans-30" x="127.246094"/>
      </g>
     </g>
    </g>
    <g id="text_13">
     <!-- Loss -->
     <g transform="translate(22.396875 191.970625) rotate(-90) scale(0.2 -0.2)">
      <defs>
       <path id="DejaVuSans-4c" d="M 628 4666 
L 1259 4666 
L 1259 531 
L 3531 531 
L 3531 0 
L 628 0 
L 628 4666 
z
" transform="scale(0.015625)"/>
      </defs>
      <use xlink:href="#DejaVuSans-4c"/>
      <use xlink:href="#DejaVuSans-6f" x="53.962891"/>
      <use xlink:href="#DejaVuSans-73" x="115.144531"/>
      <use xlink:href="#DejaVuSans-73" x="167.244141"/>
     </g>
    </g>
   </g>
   <g id="line2d_12">
    <path d="M 117.854261 146.813401 
L 118.388233 108.371969 
L 118.922204 80.391515 
L 119.456175 93.97479 
L 120.524118 106.442787 
L 121.058089 102.548887 
L 121.59206 66.652339 
L 122.126032 44.03625 
L 122.660003 55.803627 
L 123.193974 64.165815 
L 123.727946 68.653032 
L 124.261917 61.460956 
L 124.795888 63.790343 
L 125.329859 62.242846 
L 125.863831 69.057708 
L 126.397802 80.741477 
L 126.931773 87.131444 
L 127.465745 98.140049 
L 127.999716 103.093068 
L 128.533687 93.825742 
L 129.067658 104.094745 
L 129.60163 107.308578 
L 130.135601 107.992912 
L 130.669572 109.644738 
L 131.203544 119.773596 
L 131.737515 118.892841 
L 132.271486 114.429748 
L 132.805458 114.41171 
L 133.339429 118.415431 
L 133.8734 117.206988 
L 134.407371 117.824206 
L 134.941343 124.735137 
L 135.475314 128.258738 
L 136.009285 123.195727 
L 136.543257 122.886145 
L 137.077228 125.843859 
L 137.611199 125.967041 
L 138.14517 131.582295 
L 138.679142 131.871905 
L 139.213113 133.114474 
L 139.747084 127.878369 
L 140.281056 129.495931 
L 140.815027 127.712842 
L 141.348998 124.552253 
L 141.882969 129.481497 
L 142.416941 130.09079 
L 142.950912 138.115362 
L 143.484883 141.78177 
L 144.018855 134.414925 
L 144.552826 137.67643 
L 145.086797 136.065027 
L 145.620769 137.869639 
L 146.15474 132.690907 
L 146.688711 140.119834 
L 147.222682 137.644756 
L 147.756654 136.745389 
L 148.290625 135.335573 
L 148.824596 138.130464 
L 149.358568 142.002796 
L 149.892539 141.84562 
L 150.42651 142.578861 
L 150.960481 142.251124 
L 151.494453 142.172145 
L 152.028424 141.417091 
L 152.562395 140.224809 
L 153.096367 143.217005 
L 153.630338 144.687951 
L 154.164309 143.797342 
L 154.698281 144.278274 
L 155.232252 146.270732 
L 155.766223 146.701501 
L 156.300194 145.461789 
L 156.834166 145.833763 
L 157.368137 143.692652 
L 157.902108 147.194435 
L 158.43608 146.821302 
L 158.970051 147.072493 
L 159.504022 148.093813 
L 160.037993 147.234276 
L 161.105936 150.883918 
L 161.639907 150.092965 
L 162.173879 150.882584 
L 162.70785 151.093285 
L 163.241821 150.889117 
L 163.775792 152.174483 
L 164.309764 152.94296 
L 164.843735 151.837858 
L 165.377706 153.425732 
L 165.911678 152.601994 
L 166.445649 154.162992 
L 166.97962 155.336526 
L 167.513592 153.768577 
L 168.047563 155.985871 
L 168.581534 156.51429 
L 169.115505 156.791584 
L 169.649477 158.00526 
L 170.183448 156.319263 
L 170.717419 157.103248 
L 171.251391 155.953429 
L 171.785362 157.745158 
L 172.319333 158.683875 
L 172.853304 158.244609 
L 173.387276 154.730314 
L 173.921247 156.566221 
L 174.455218 157.700492 
L 174.98919 156.920326 
L 175.523161 157.017393 
L 176.057132 158.068498 
L 176.591103 156.190997 
L 177.125075 157.968617 
L 177.659046 157.662547 
L 178.726989 159.727833 
L 179.26096 161.236052 
L 180.328903 160.847517 
L 180.862874 159.687739 
L 181.396845 158.799593 
L 181.930816 160.259755 
L 182.464788 159.926854 
L 182.998759 160.268099 
L 183.53273 160.364639 
L 184.600673 158.883726 
L 185.668615 162.122629 
L 186.202587 161.527582 
L 186.736558 159.785258 
L 187.270529 160.608374 
L 187.804501 159.759418 
L 188.338472 161.088617 
L 189.406414 159.732294 
L 189.940386 161.106603 
L 190.474357 160.441163 
L 191.008328 161.629867 
L 191.5423 161.67122 
L 192.076271 162.151759 
L 192.610242 163.316399 
L 193.678185 161.53737 
L 194.212156 162.63625 
L 195.280099 162.150268 
L 195.81407 164.664075 
L 196.348041 165.211228 
L 196.882013 165.140243 
L 197.415984 165.829806 
L 197.949955 166.831469 
L 198.483926 166.91882 
L 199.017898 167.478491 
L 199.551869 167.575725 
L 200.08584 165.443178 
L 200.619812 165.627313 
L 201.153783 166.592773 
L 201.687754 165.96152 
L 202.221725 166.931254 
L 202.755697 166.917131 
L 203.289668 165.406154 
L 203.823639 166.035049 
L 204.357611 164.400182 
L 204.891582 164.527758 
L 205.425553 164.778149 
L 205.959525 165.583527 
L 206.493496 167.012243 
L 207.027467 164.441019 
L 208.09541 166.745217 
L 209.163352 164.955568 
L 209.697324 165.543819 
L 210.231295 168.059276 
L 210.765266 166.862587 
L 211.299237 166.852146 
L 211.833209 167.158344 
L 212.36718 167.610948 
L 212.901151 163.137368 
L 213.435123 166.852458 
L 213.969094 164.939072 
L 214.503065 164.213958 
L 215.037036 164.386659 
L 215.571008 167.063814 
L 216.104979 167.008493 
L 216.63895 166.463196 
L 217.172922 166.887252 
L 217.706893 166.910252 
L 218.240864 167.962763 
L 218.774836 166.681478 
L 219.308807 167.175909 
L 219.842778 167.245556 
L 220.376749 168.843924 
L 220.910721 167.709087 
L 221.444692 168.158478 
L 221.978663 169.017948 
L 222.512635 167.592203 
L 223.046606 168.116261 
L 223.580577 167.660477 
L 224.64852 165.994739 
L 225.182491 166.959647 
L 225.716462 167.091176 
L 226.250434 166.721602 
L 226.784405 167.801531 
L 227.318376 167.452339 
L 227.852347 167.493911 
L 228.386319 166.976974 
L 228.92029 164.934127 
L 229.454261 165.345127 
L 229.988233 166.14828 
L 230.522204 166.617358 
L 231.590147 163.956945 
L 232.124118 163.966765 
L 232.658089 164.243007 
L 233.19206 164.33267 
L 233.726032 164.564122 
L 234.260003 164.054355 
L 234.793974 165.162294 
L 235.327946 164.311079 
L 235.861917 163.895203 
L 236.395888 162.229669 
L 236.929859 163.02108 
L 237.463831 163.191493 
L 237.997802 163.821427 
L 238.531773 164.095406 
L 239.065745 163.815524 
L 239.599716 163.811161 
L 240.133687 164.365739 
L 240.667658 164.153971 
L 241.20163 164.380678 
L 241.735601 163.315187 
L 242.269572 163.671799 
L 242.803544 162.34971 
L 243.337515 162.174869 
L 243.871486 163.137305 
L 244.405458 163.467982 
L 244.939429 164.097514 
L 245.4734 164.051731 
L 246.007371 163.19249 
L 246.541343 163.338166 
L 247.075314 163.609537 
L 247.609285 163.409286 
L 248.143257 162.704454 
L 248.677228 163.022985 
L 249.211199 163.529448 
L 249.74517 162.514471 
L 250.279142 161.906048 
L 251.347084 163.801088 
L 251.881056 163.662423 
L 252.415027 162.76663 
L 252.948998 163.428382 
L 253.482969 163.457511 
L 254.016941 162.018732 
L 254.550912 163.01992 
L 255.084883 162.950906 
L 255.618855 162.106919 
L 256.686797 162.228724 
L 257.75474 162.468102 
L 258.288711 162.912715 
L 258.822682 162.77536 
L 259.356654 162.843327 
L 259.890625 163.355386 
L 260.424596 162.62776 
L 260.958568 162.306488 
L 261.492539 162.595105 
L 262.02651 163.279859 
L 262.560481 163.234508 
L 263.094453 161.797956 
L 263.628424 162.181096 
L 264.162395 163.30094 
L 264.696367 163.675187 
L 265.230338 163.380859 
L 265.764309 162.733879 
L 266.298281 163.610364 
L 266.832252 163.322777 
L 267.366223 163.352923 
L 267.900194 162.602164 
L 268.434166 163.122249 
L 268.968137 162.569941 
L 269.502108 163.908707 
L 270.03608 164.132175 
L 270.570051 164.182415 
L 271.104022 164.06866 
L 271.637993 164.587901 
L 272.171965 164.740009 
L 272.705936 164.282625 
L 273.773879 164.185717 
L 274.30785 164.616448 
L 274.841821 165.503936 
L 275.909764 165.766536 
L 276.977706 165.438424 
L 277.511678 165.165958 
L 278.57962 165.820635 
L 279.113592 166.698822 
L 279.647563 166.090311 
L 280.181534 166.546281 
L 280.715505 167.201853 
L 281.249477 166.721574 
L 282.317419 167.357401 
L 283.919333 166.196017 
L 284.453304 166.671504 
L 284.987276 166.873768 
L 285.521247 166.185705 
L 286.58919 164.468642 
L 287.123161 165.366566 
L 287.657132 165.737146 
L 288.725075 165.388637 
L 289.259046 166.118239 
L 289.793017 166.045435 
L 290.326989 165.651529 
L 290.86096 166.464095 
L 291.394931 165.812214 
L 291.928903 165.811342 
L 292.462874 166.233304 
L 292.996845 166.328533 
L 293.530816 166.183783 
L 294.064788 165.83156 
L 295.13273 165.619053 
L 295.666702 166.240895 
L 296.200673 166.331851 
L 296.734644 166.229317 
L 297.268615 166.537021 
L 297.802587 166.706569 
L 298.870529 166.056973 
L 299.404501 166.36659 
L 299.938472 167.259645 
L 300.472443 167.00779 
L 301.006414 167.161823 
L 301.540386 167.141942 
L 302.074357 167.917632 
L 302.608328 167.265631 
L 303.1423 167.629537 
L 303.676271 167.501643 
L 304.210242 168.160859 
L 305.278185 166.86691 
L 305.812156 166.920471 
L 306.346127 166.549066 
L 306.880099 167.038505 
L 307.41407 166.612435 
L 309.015984 167.228123 
L 309.549955 166.976342 
L 310.083926 166.452188 
L 310.617898 166.488802 
L 311.151869 166.091526 
L 311.68584 166.502338 
L 312.219812 166.560258 
L 312.753783 165.909882 
L 314.355697 166.006467 
L 315.423639 166.348677 
L 315.957611 166.322912 
L 317.025553 165.845957 
L 317.559525 166.437074 
L 318.093496 165.983663 
L 318.627467 166.38031 
L 320.229381 166.068 
L 320.763352 166.069951 
L 321.297324 166.237616 
L 321.831295 166.275353 
L 322.365266 166.559866 
L 322.899237 166.42806 
L 323.433209 165.903486 
L 323.96718 166.414469 
L 324.501151 165.688138 
L 325.035123 166.209658 
L 325.569094 166.443395 
L 326.103065 167.174898 
L 326.637036 166.546986 
L 327.171008 166.811977 
L 327.704979 166.533579 
L 328.23895 166.875147 
L 328.772922 167.081266 
L 329.840864 166.839537 
L 330.374836 166.368862 
L 331.442778 166.87614 
L 331.976749 166.808474 
L 332.510721 166.56272 
L 333.044692 166.009525 
L 333.578663 166.357339 
L 334.112635 166.028483 
L 334.646606 166.255005 
L 335.180577 166.696161 
L 335.714548 166.183707 
L 336.24852 166.003365 
L 336.782491 166.706365 
L 337.316462 166.21531 
L 337.850434 166.14197 
L 338.384405 165.532035 
L 338.918376 166.138229 
L 339.452347 165.987485 
L 339.986319 165.611724 
L 341.588233 166.712348 
L 342.122204 166.03513 
L 343.190147 165.784352 
L 344.79206 166.055311 
L 345.860003 165.583788 
L 346.393974 165.646263 
L 346.927946 165.846987 
L 347.461917 165.521687 
L 347.995888 165.978731 
L 348.529859 166.035145 
L 349.063831 166.661504 
L 349.597802 166.760297 
L 351.199716 166.435477 
L 351.733687 166.783371 
L 352.267658 166.141324 
L 352.80163 165.874838 
L 353.335601 165.97542 
L 353.869572 166.270776 
L 354.403544 165.838433 
L 355.471486 165.769593 
L 356.539429 166.178324 
L 357.0734 166.191207 
L 357.607371 165.81833 
L 358.675314 166.51138 
L 359.209285 166.448924 
L 359.743257 166.241097 
L 361.879142 166.882604 
L 362.413113 166.459606 
L 362.947084 166.757516 
L 364.015027 166.516183 
L 364.548998 166.007551 
L 365.082969 166.12876 
L 366.150912 166.844733 
L 366.684883 166.274435 
L 367.218855 166.281576 
L 368.286797 166.711753 
L 368.820769 166.497263 
L 369.35474 166.610833 
L 369.888711 166.443589 
L 370.422682 166.729574 
L 370.956654 166.436764 
L 371.490625 166.704082 
L 372.024596 166.441254 
L 372.558568 166.890386 
L 373.092539 166.502654 
L 374.160481 166.926292 
L 374.694453 166.802534 
L 375.228424 166.976452 
L 375.762395 166.899472 
L 376.296367 166.984121 
L 376.830338 166.475711 
L 377.898281 166.278405 
L 378.432252 166.503053 
L 378.966223 166.569999 
L 379.500194 166.369568 
L 380.034166 166.852875 
L 380.568137 166.530569 
L 381.102108 167.047616 
L 381.63608 166.761014 
L 382.170051 166.88594 
L 383.237993 166.645192 
L 383.771965 166.825855 
L 384.305936 167.224149 
L 384.839907 167.398477 
L 385.90785 167.136946 
L 386.441821 167.250324 
L 387.509764 166.93557 
L 388.043735 167.181139 
L 389.111678 167.295278 
L 389.645649 167.000585 
L 390.17962 167.301564 
L 390.713592 166.535478 
L 391.247563 166.396558 
L 391.781534 166.434709 
L 392.315505 166.783238 
L 393.383448 166.731299 
L 393.917419 166.216886 
L 394.451391 166.566691 
L 394.985362 166.529329 
L 395.519333 166.719295 
L 396.053304 166.46481 
L 396.587276 166.682676 
L 397.121247 167.027086 
L 397.655218 166.683276 
L 398.18919 167.335819 
L 398.723161 167.091504 
L 399.257132 166.566761 
L 399.791103 166.988799 
L 400.325075 166.623194 
L 401.926989 166.675388 
L 402.46096 167.061763 
L 402.994931 166.723804 
L 404.062874 166.844911 
L 404.596845 166.961732 
L 405.664788 166.983111 
L 406.198759 166.841912 
L 406.73273 166.501931 
L 407.266702 167.418016 
L 407.800673 167.30157 
L 408.334644 167.366067 
L 409.402587 167.02388 
L 409.936558 167.390764 
L 410.470529 166.756981 
L 411.004501 167.057009 
L 412.072443 166.957972 
L 412.606414 167.276026 
L 413.140386 167.375123 
L 413.674357 166.84129 
L 415.276271 167.11316 
L 416.344214 166.971584 
L 416.878185 167.290888 
L 417.412156 167.066544 
L 417.946127 165.323307 
L 418.480099 166.545885 
L 419.01407 166.380095 
L 419.548041 166.350188 
L 420.082013 166.50404 
L 421.149955 166.555807 
L 421.683926 166.356261 
L 422.217898 166.793856 
L 422.751869 166.395077 
L 424.353783 166.557929 
L 424.887754 167.176148 
L 425.421725 166.286676 
L 425.955697 166.511268 
L 426.489668 166.462493 
L 427.557611 166.764231 
L 428.091582 166.130331 
L 428.625553 166.802709 
L 429.159525 166.742324 
L 430.227467 165.927039 
L 431.829381 166.933795 
L 432.897324 166.745378 
L 433.431295 166.369924 
L 433.965266 166.800786 
L 434.499237 166.995365 
L 435.033209 167.07098 
L 435.56718 166.816037 
L 436.101151 167.223374 
L 437.169094 167.362637 
L 437.703065 166.969143 
L 438.237036 166.753254 
L 438.771008 166.998402 
L 439.304979 166.382302 
L 439.83895 166.995114 
L 440.372922 167.874512 
L 440.906893 166.987137 
L 441.440864 166.825792 
L 442.508807 167.048812 
L 443.042778 166.644523 
L 443.576749 166.909597 
L 444.110721 166.632009 
L 444.644692 166.784255 
L 445.178663 166.544729 
L 445.712635 166.455566 
L 446.246606 166.537231 
L 446.780577 167.145024 
L 447.314548 166.201103 
L 447.84852 166.478157 
L 448.916462 166.526268 
L 449.450434 166.161988 
L 449.984405 166.0622 
L 450.518376 166.734352 
L 451.052347 167.214498 
L 451.586319 166.755575 
L 452.12029 166.973666 
L 452.654261 166.737883 
L 453.188233 167.536392 
L 453.722204 167.145261 
L 454.256175 166.919932 
L 454.790147 166.985462 
L 455.324118 166.843619 
L 455.858089 167.331072 
L 456.39206 167.095779 
L 456.926032 167.413069 
L 457.460003 167.981538 
L 457.993974 167.302931 
L 458.527946 167.114096 
L 459.061917 167.372238 
L 460.129859 167.021455 
L 460.663831 167.14747 
L 461.197802 167.058253 
L 461.731773 167.107391 
L 462.799716 166.768336 
L 463.333687 166.903449 
L 464.40163 166.860062 
L 464.935601 166.763995 
L 465.469572 167.353189 
L 466.003544 166.946869 
L 466.537515 166.896951 
L 467.071486 167.015569 
L 467.605458 166.461696 
L 468.6734 167.159127 
L 469.741343 166.939349 
L 470.275314 166.851717 
L 470.809285 166.907606 
L 471.343257 166.615213 
L 471.877228 166.527251 
L 472.411199 166.990676 
L 472.94517 167.131883 
L 473.479142 166.87159 
L 474.013113 167.064202 
L 475.081056 167.055898 
L 475.615027 167.200545 
L 476.148998 167.045965 
L 476.682969 167.141436 
L 477.216941 166.671473 
L 478.284883 167.15067 
L 479.352826 167.093419 
L 479.886797 166.961498 
L 480.420769 167.238443 
L 480.95474 167.067239 
L 481.488711 167.194622 
L 482.556654 166.997806 
L 483.090625 167.05962 
L 483.624596 167.288663 
L 484.158568 167.065158 
L 484.692539 167.092838 
L 485.760481 166.717651 
L 486.294453 166.926468 
L 486.828424 167.257168 
L 487.362395 166.84786 
L 487.896367 166.864819 
L 488.430338 167.268105 
L 490.032252 167.314542 
L 490.566223 167.11197 
L 491.100194 167.047703 
L 491.634166 167.417386 
L 492.168137 166.858553 
L 492.702108 166.975317 
L 493.23608 167.212109 
L 493.770051 166.952572 
L 494.304022 167.154298 
L 495.371965 166.886214 
L 495.905936 166.962463 
L 496.439907 166.795377 
L 496.973879 167.377051 
L 497.50785 167.534359 
L 498.041821 167.193189 
L 498.575792 167.395914 
L 499.109764 166.865444 
L 500.177706 167.310023 
L 500.711678 167.143646 
L 501.245649 167.839257 
L 501.77962 167.391751 
L 502.313592 167.624121 
L 502.847563 167.266595 
L 504.983448 167.197231 
L 505.517419 167.238835 
L 506.585362 167.601499 
L 507.119333 167.566912 
L 507.653304 167.343159 
L 508.187276 167.627105 
L 508.721247 167.185018 
L 510.323161 167.75358 
L 510.857132 167.193165 
L 511.925075 167.345123 
L 512.459046 167.275755 
L 512.993017 167.33833 
L 513.526989 167.218481 
L 514.06096 167.524625 
L 514.594931 167.485847 
L 515.662874 166.934059 
L 516.196845 167.598699 
L 516.730816 167.195997 
L 517.264788 167.07312 
L 517.798759 167.231047 
L 518.33273 167.088166 
L 518.866702 167.193842 
L 519.400673 167.140813 
L 519.934644 167.287539 
L 520.468615 167.258121 
L 521.536558 166.999258 
L 522.604501 167.023811 
L 523.138472 167.265694 
L 523.672443 167.302736 
L 524.206414 166.628543 
L 524.740386 166.868234 
L 525.274357 167.276377 
L 525.808328 167.516864 
L 526.3423 167.131464 
L 527.944214 167.05853 
L 528.478185 167.225277 
L 529.012156 167.074134 
L 529.546127 167.300374 
L 530.080099 167.004552 
L 530.61407 167.180986 
L 531.148041 166.781859 
L 531.682013 167.195129 
L 532.749955 167.097083 
L 533.283926 167.292166 
L 533.817898 167.158983 
L 534.351869 167.28468 
L 534.88584 166.966519 
L 535.419812 167.693968 
L 535.953783 167.503178 
L 536.487754 167.513798 
L 537.021725 167.160503 
L 538.089668 167.502693 
L 539.157611 166.898246 
L 539.691582 167.309784 
L 540.759525 167.0164 
L 541.293496 167.250778 
L 542.89541 167.416309 
L 543.429381 167.210728 
L 543.963352 166.433808 
L 544.497324 166.127449 
L 545.031295 166.373511 
L 545.565266 166.339871 
L 546.633209 166.698783 
L 547.16718 166.366816 
L 547.701151 166.288825 
L 548.235123 166.736823 
L 548.769094 166.210298 
L 549.303065 166.205723 
L 549.837036 166.469254 
L 550.371008 166.893486 
L 550.904979 166.70044 
L 551.43895 166.797322 
L 552.506893 166.497499 
L 553.040864 166.169747 
L 553.574836 166.417518 
L 554.642778 166.052766 
L 555.176749 166.192371 
L 555.710721 166.458809 
L 556.778663 166.547735 
L 557.312635 166.246446 
L 558.380577 166.631007 
L 559.44852 165.866555 
L 561.050434 166.255021 
L 562.118376 166.262861 
L 562.652347 166.559212 
L 563.72029 165.905145 
L 564.788233 165.974496 
L 565.322204 165.350545 
L 565.856175 165.297679 
L 566.390147 165.698049 
L 569.593974 165.774658 
L 570.127946 165.533159 
L 570.661917 165.743569 
L 571.195888 165.64798 
L 571.729859 165.786708 
L 573.331773 165.80996 
L 573.865745 165.0623 
L 574.399716 165.784689 
L 574.933687 165.418918 
L 576.00163 165.781192 
L 576.535601 165.647521 
L 578.671486 166.187874 
L 579.205458 165.338447 
L 579.739429 165.297218 
L 580.2734 165.514819 
L 580.807371 165.50545 
L 581.341343 165.657646 
L 581.875314 165.549139 
L 582.409285 165.653896 
L 582.943257 165.39391 
L 583.477228 165.753425 
L 584.011199 165.820735 
L 584.54517 165.605532 
L 585.079142 166.029359 
L 585.613113 165.869283 
L 586.681056 165.945625 
L 587.748998 165.76486 
L 588.282969 165.98245 
L 589.350912 166.00156 
L 589.884883 165.787654 
L 590.418855 166.287165 
L 591.486797 166.210825 
L 592.020769 166.457298 
L 593.088711 166.18791 
L 593.622682 165.779754 
L 594.156654 166.208858 
L 594.690625 165.987755 
L 595.758568 165.82723 
L 596.292539 166.02958 
L 596.82651 166.003079 
L 597.360481 166.121423 
L 598.428424 165.924299 
L 598.962395 165.720731 
L 599.496367 165.697142 
L 600.030338 165.404708 
L 600.564309 165.597086 
L 601.632252 165.339743 
L 602.166223 165.681835 
L 602.700194 165.580475 
L 603.234166 165.730561 
L 603.768137 165.65167 
L 604.302108 165.688021 
L 604.83608 165.883927 
L 605.370051 165.58446 
L 606.437993 165.404099 
L 606.971965 165.352046 
L 607.505936 165.579946 
L 609.10785 165.60261 
L 609.641821 165.346274 
L 611.243735 165.159108 
L 611.777706 165.340775 
L 612.845649 164.955487 
L 613.37962 164.961174 
L 613.913592 165.192407 
L 615.515505 164.957008 
L 616.049477 165.14609 
L 616.583448 165.056912 
L 617.651391 165.095156 
L 618.185362 164.807499 
L 618.719333 165.227654 
L 619.253304 165.265696 
L 619.787276 165.102711 
L 620.321247 165.185314 
L 620.855218 165.01151 
L 621.38919 164.705123 
L 621.923161 165.269076 
L 622.457132 164.957094 
L 622.991103 165.006678 
L 623.525075 165.341122 
L 625.126989 164.874448 
L 625.126989 164.874448 
" clip-path="url(#p3c407ff76d)" style="fill: none; stroke: #1f77b4; stroke-width: 1.5; stroke-linecap: square"/>
   </g>
   <g id="line2d_13">
    <path d="M 117.854261 279.873572 
L 118.388233 296.03625 
L 118.922204 229.281287 
L 119.456175 236.122226 
L 119.990147 248.683705 
L 120.524118 218.367146 
L 121.058089 218.400539 
L 121.59206 211.195002 
L 122.126032 212.309144 
L 122.660003 198.962672 
L 123.193974 190.346982 
L 123.727946 196.462808 
L 124.261917 197.599644 
L 124.795888 188.094759 
L 125.329859 190.045917 
L 125.863831 186.494612 
L 126.397802 182.039231 
L 126.931773 184.063975 
L 127.465745 178.165499 
L 127.999716 185.158377 
L 128.533687 189.378565 
L 129.067658 176.672747 
L 130.135601 183.472574 
L 130.669572 179.997455 
L 131.203544 178.764802 
L 131.737515 179.431397 
L 132.271486 182.701853 
L 132.805458 182.914498 
L 133.8734 177.760056 
L 134.407371 179.800106 
L 134.941343 178.200928 
L 135.475314 177.564652 
L 136.009285 182.456204 
L 136.543257 180.002798 
L 137.077228 180.160606 
L 137.611199 177.633725 
L 138.14517 171.751738 
L 138.679142 175.715035 
L 139.213113 176.917602 
L 139.747084 180.125995 
L 140.281056 180.754979 
L 140.815027 181.196825 
L 141.348998 177.825646 
L 141.882969 172.58093 
L 142.416941 176.092026 
L 142.950912 173.568487 
L 143.484883 176.855695 
L 144.018855 172.650635 
L 144.552826 173.922036 
L 145.086797 173.975875 
L 145.620769 176.504977 
L 146.15474 175.221635 
L 146.688711 174.523708 
L 147.222682 174.930204 
L 147.756654 173.528425 
L 148.290625 173.39019 
L 148.824596 173.696387 
L 149.358568 172.941273 
L 149.892539 173.272394 
L 150.42651 172.507198 
L 150.960481 171.465539 
L 151.494453 173.366213 
L 152.028424 174.304074 
L 152.562395 173.084636 
L 153.630338 171.892487 
L 154.164309 173.810638 
L 154.698281 171.464085 
L 155.232252 172.166575 
L 155.766223 171.781889 
L 156.300194 173.27443 
L 156.834166 173.75368 
L 157.368137 172.98322 
L 157.902108 172.752532 
L 158.43608 171.319888 
L 158.970051 172.930911 
L 159.504022 172.60628 
L 160.037993 172.42504 
L 160.571965 172.06188 
L 161.105936 172.467343 
L 161.639907 173.41976 
L 162.173879 172.478722 
L 162.70785 172.219409 
L 163.241821 172.697218 
L 163.775792 171.90948 
L 164.309764 172.378783 
L 164.843735 171.586432 
L 165.377706 171.869044 
L 165.911678 171.526817 
L 166.445649 170.921173 
L 166.97962 171.461252 
L 167.513592 171.83602 
L 168.047563 171.57401 
L 168.581534 170.570799 
L 169.115505 170.899908 
L 169.649477 170.631288 
L 170.183448 170.626831 
L 170.717419 171.536026 
L 171.251391 171.903319 
L 171.785362 171.117061 
L 172.319333 170.543677 
L 172.853304 170.406881 
L 173.387276 171.779958 
L 173.921247 171.60602 
L 174.455218 170.761067 
L 174.98919 171.723131 
L 175.523161 172.054827 
L 176.057132 171.475037 
L 176.591103 172.41331 
L 177.125075 170.467703 
L 177.659046 170.643053 
L 178.193017 171.659859 
L 178.726989 172.318618 
L 179.26096 171.77277 
L 179.794931 170.608154 
L 180.328903 170.90237 
L 180.862874 170.988016 
L 181.396845 171.349299 
L 181.930816 171.397261 
L 182.464788 170.114963 
L 182.998759 170.751939 
L 183.53273 170.629996 
L 184.066702 170.773039 
L 184.600673 169.586336 
L 185.134644 171.048779 
L 185.668615 172.064358 
L 186.202587 170.821795 
L 186.736558 170.186214 
L 187.270529 171.034565 
L 187.804501 170.430537 
L 188.338472 170.719736 
L 188.872443 170.830545 
L 189.940386 170.704124 
L 191.5423 171.807075 
L 192.076271 170.82302 
L 192.610242 170.941997 
L 193.144214 170.739885 
L 193.678185 171.1053 
L 194.746127 170.846343 
L 195.280099 170.275569 
L 195.81407 171.007003 
L 196.348041 170.317854 
L 196.882013 170.045591 
L 197.415984 170.058158 
L 197.949955 169.565035 
L 198.483926 171.321042 
L 199.017898 170.030748 
L 199.551869 170.162693 
L 200.08584 170.965113 
L 200.619812 171.410399 
L 201.153783 170.487894 
L 201.687754 170.52781 
L 202.221725 170.74821 
L 202.755697 170.162101 
L 203.289668 170.190171 
L 204.357611 171.636929 
L 204.891582 170.866164 
L 205.425553 170.810881 
L 206.493496 171.681934 
L 207.027467 170.616611 
L 207.561438 170.565592 
L 208.09541 171.141648 
L 208.629381 170.184501 
L 209.163352 171.161076 
L 209.697324 170.901531 
L 210.231295 170.791018 
L 210.765266 171.147726 
L 211.299237 171.722995 
L 211.833209 172.623044 
L 212.36718 171.459207 
L 212.901151 171.681699 
L 213.435123 171.57636 
L 213.969094 172.06863 
L 214.503065 171.753699 
L 215.037036 172.544106 
L 215.571008 171.423933 
L 216.104979 171.005426 
L 216.63895 171.843317 
L 217.706893 171.640797 
L 218.774836 172.14075 
L 219.842778 172.954871 
L 220.910721 172.095974 
L 221.444692 172.188807 
L 221.978663 173.760838 
L 222.512635 172.562795 
L 223.580577 173.052606 
L 224.114548 172.443163 
L 224.64852 173.142692 
L 225.182491 172.775511 
L 226.250434 173.084929 
L 226.784405 173.920099 
L 227.318376 173.144824 
L 227.852347 172.101883 
L 228.386319 172.398162 
L 228.92029 172.541096 
L 229.454261 172.803393 
L 229.988233 172.85655 
L 230.522204 172.351432 
L 231.056175 171.509069 
L 231.590147 171.321223 
L 232.124118 171.419382 
L 232.658089 171.285774 
L 233.19206 172.108168 
L 234.260003 171.253369 
L 234.793974 171.974652 
L 235.327946 172.49078 
L 235.861917 172.608069 
L 236.395888 173.112575 
L 236.929859 172.269899 
L 237.463831 171.918521 
L 237.997802 172.153425 
L 238.531773 172.02884 
L 239.065745 172.719266 
L 240.133687 172.177208 
L 240.667658 172.423473 
L 241.20163 172.513332 
L 241.735601 172.845066 
L 242.269572 172.658453 
L 242.803544 171.245621 
L 243.337515 172.38168 
L 243.871486 172.28215 
L 244.405458 173.372593 
L 244.939429 172.186195 
L 245.4734 172.165862 
L 246.541343 172.337176 
L 247.609285 171.738366 
L 248.143257 171.665087 
L 248.677228 172.437338 
L 249.211199 172.733014 
L 249.74517 172.696569 
L 250.279142 172.782286 
L 250.813113 172.151995 
L 251.347084 172.602721 
L 252.415027 172.812256 
L 252.948998 172.508644 
L 253.482969 172.662115 
L 254.016941 172.388833 
L 254.550912 172.616574 
L 255.084883 172.498701 
L 255.618855 172.122567 
L 256.152826 172.47289 
L 256.686797 172.364584 
L 257.75474 172.871487 
L 258.288711 172.517568 
L 259.356654 172.59048 
L 260.424596 172.624459 
L 260.958568 173.175465 
L 261.492539 172.992484 
L 262.02651 172.353261 
L 262.560481 172.5161 
L 263.094453 172.116873 
L 263.628424 171.884285 
L 264.162395 172.097075 
L 264.696367 172.109714 
L 265.230338 171.864138 
L 265.764309 171.240428 
L 266.298281 171.567323 
L 266.832252 172.146654 
L 267.366223 171.994954 
L 267.900194 171.425419 
L 270.03608 171.522025 
L 270.570051 171.31688 
L 271.104022 171.770494 
L 271.637993 171.386278 
L 272.171965 171.928892 
L 272.705936 171.259012 
L 273.239907 171.4512 
L 273.773879 170.369318 
L 274.30785 170.40821 
L 274.841821 171.24932 
L 275.909764 171.645808 
L 276.443735 171.432089 
L 276.977706 170.870355 
L 277.511678 170.705431 
L 278.57962 171.496114 
L 279.113592 171.357391 
L 279.647563 171.090043 
L 280.715505 171.195128 
L 281.249477 170.567788 
L 281.783448 171.1952 
L 282.317419 171.372187 
L 283.385362 171.282026 
L 283.919333 171.504699 
L 284.453304 171.413546 
L 284.987276 171.482663 
L 285.521247 171.283417 
L 286.055218 170.488237 
L 286.58919 170.14749 
L 287.123161 170.217916 
L 287.657132 170.620474 
L 288.191103 170.588689 
L 288.725075 170.770071 
L 289.259046 171.479387 
L 289.793017 171.577134 
L 291.394931 169.732971 
L 292.462874 170.853654 
L 292.996845 171.834664 
L 294.064788 169.863961 
L 294.598759 170.01213 
L 295.13273 170.679295 
L 295.666702 170.809484 
L 296.200673 170.373653 
L 296.734644 170.646982 
L 297.268615 170.706901 
L 297.802587 171.397387 
L 298.336558 171.649515 
L 298.870529 170.914472 
L 299.938472 171.327974 
L 300.472443 171.237939 
L 301.006414 171.673736 
L 302.074357 171.156738 
L 302.608328 171.678756 
L 303.1423 171.908632 
L 303.676271 171.920126 
L 304.210242 172.136642 
L 304.744214 171.43629 
L 305.278185 172.067896 
L 305.812156 171.752724 
L 306.346127 171.255918 
L 306.880099 171.689928 
L 307.41407 171.761018 
L 307.948041 171.126637 
L 308.482013 171.644371 
L 309.015984 171.762199 
L 309.549955 171.024279 
L 310.083926 170.619721 
L 311.151869 171.182932 
L 311.68584 171.228709 
L 312.219812 172.165991 
L 312.753783 170.488334 
L 313.287754 170.738428 
L 314.355697 170.361173 
L 315.423639 170.765861 
L 315.957611 170.67092 
L 316.491582 170.332637 
L 317.025553 170.253046 
L 318.093496 170.94447 
L 318.627467 170.847824 
L 320.229381 170.808926 
L 320.763352 170.111458 
L 321.297324 170.489234 
L 321.831295 170.271381 
L 322.365266 170.959132 
L 322.899237 170.820191 
L 323.433209 170.369069 
L 323.96718 170.638293 
L 325.035123 170.1911 
L 325.569094 170.466663 
L 326.103065 170.581859 
L 326.637036 171.227926 
L 327.171008 170.580491 
L 327.704979 170.653676 
L 328.23895 170.451126 
L 328.772922 170.944141 
L 330.374836 170.110239 
L 330.908807 170.330278 
L 331.442778 171.00966 
L 332.510721 170.360234 
L 333.578663 170.717318 
L 334.112635 170.471237 
L 334.646606 170.075147 
L 335.180577 170.575221 
L 335.714548 170.607303 
L 336.24852 171.228849 
L 337.316462 170.540423 
L 337.850434 170.754063 
L 338.384405 170.564182 
L 338.918376 170.554935 
L 339.986319 171.075504 
L 341.054261 170.495544 
L 341.588233 170.914215 
L 342.122204 170.258211 
L 342.656175 170.444911 
L 343.190147 171.156295 
L 343.724118 170.631476 
L 344.258089 170.687671 
L 344.79206 170.969143 
L 345.326032 171.027482 
L 345.860003 170.651871 
L 346.393974 171.264681 
L 346.927946 170.833352 
L 347.461917 171.104245 
L 347.995888 171.049843 
L 348.529859 170.797557 
L 349.063831 171.194854 
L 349.597802 170.688947 
L 350.131773 170.853175 
L 351.733687 170.609858 
L 352.267658 170.932736 
L 352.80163 170.881473 
L 354.403544 171.164751 
L 354.937515 171.039106 
L 355.471486 171.263688 
L 356.539429 170.682666 
L 357.0734 171.0841 
L 357.607371 170.865254 
L 358.141343 170.919221 
L 359.209285 169.970601 
L 359.743257 170.716222 
L 361.34517 170.824175 
L 361.879142 171.040578 
L 362.413113 170.842447 
L 362.947084 171.139937 
L 363.481056 170.725562 
L 364.015027 170.723661 
L 364.548998 171.404812 
L 365.082969 171.520254 
L 365.616941 171.04479 
L 366.150912 171.109308 
L 366.684883 170.499166 
L 367.218855 170.538778 
L 367.752826 170.372335 
L 368.286797 170.553715 
L 368.820769 170.509947 
L 369.35474 170.322723 
L 369.888711 170.603899 
L 370.422682 170.523176 
L 370.956654 171.179263 
L 371.490625 170.524289 
L 372.024596 170.359959 
L 372.558568 170.562681 
L 374.160481 170.824989 
L 374.694453 171.195004 
L 375.228424 170.871304 
L 375.762395 170.723989 
L 377.364309 170.931994 
L 377.898281 170.610474 
L 378.966223 170.723797 
L 379.500194 170.663586 
L 380.034166 170.220067 
L 380.568137 170.623727 
L 381.102108 170.470245 
L 381.63608 170.651572 
L 382.704022 170.687737 
L 383.237993 170.913263 
L 383.771965 171.407915 
L 384.305936 171.001143 
L 384.839907 171.088535 
L 385.373879 170.53874 
L 385.90785 170.487934 
L 386.441821 170.994191 
L 386.975792 170.748104 
L 387.509764 170.35788 
L 388.043735 170.819966 
L 390.17962 170.541169 
L 390.713592 171.107514 
L 391.247563 171.014682 
L 391.781534 170.751041 
L 392.315505 171.028125 
L 392.849477 170.895951 
L 393.383448 171.079823 
L 393.917419 170.895905 
L 394.985362 171.318046 
L 395.519333 171.257973 
L 396.053304 170.889967 
L 396.587276 171.1763 
L 397.121247 170.916294 
L 397.655218 171.377944 
L 398.18919 171.162762 
L 398.723161 171.180479 
L 399.257132 170.558245 
L 399.791103 171.138559 
L 400.325075 171.548957 
L 400.859046 171.032995 
L 401.393017 171.463148 
L 401.926989 170.882761 
L 402.46096 170.59282 
L 402.994931 171.253108 
L 403.528903 170.78524 
L 404.062874 171.021826 
L 405.130816 170.645328 
L 405.664788 171.000515 
L 406.198759 170.860525 
L 407.266702 171.094552 
L 407.800673 170.364914 
L 408.334644 170.866997 
L 408.868615 170.831859 
L 409.402587 171.290416 
L 409.936558 171.293254 
L 410.470529 170.908916 
L 411.004501 171.048758 
L 411.538472 170.913447 
L 412.072443 171.070581 
L 412.606414 170.749205 
L 413.674357 170.848254 
L 414.208328 170.962731 
L 415.276271 170.782693 
L 415.810242 170.933034 
L 416.344214 170.949966 
L 416.878185 171.301036 
L 417.412156 169.332539 
L 417.946127 169.926711 
L 419.01407 170.49499 
L 420.082013 170.405228 
L 421.683926 170.811339 
L 422.217898 170.612967 
L 422.751869 170.642198 
L 423.28584 170.455008 
L 423.819812 170.731423 
L 424.887754 170.809703 
L 425.421725 170.577778 
L 425.955697 170.505986 
L 426.489668 170.677812 
L 428.091582 170.609635 
L 428.625553 170.225772 
L 429.159525 170.528325 
L 429.693496 170.568146 
L 430.227467 170.439006 
L 430.761438 170.782697 
L 431.29541 170.641427 
L 431.829381 170.035326 
L 432.363352 170.041078 
L 433.431295 171.248826 
L 433.965266 170.746982 
L 435.033209 170.667659 
L 435.56718 170.477283 
L 436.101151 171.042017 
L 436.635123 170.825114 
L 437.169094 171.00509 
L 437.703065 171.56915 
L 438.237036 171.049443 
L 438.771008 170.327246 
L 439.304979 170.535135 
L 439.83895 170.962961 
L 440.372922 170.77303 
L 440.906893 170.441492 
L 441.440864 170.657906 
L 441.974836 170.720379 
L 442.508807 170.290958 
L 443.042778 170.997113 
L 443.576749 170.501205 
L 444.110721 171.006051 
L 444.644692 170.707502 
L 445.178663 170.674827 
L 445.712635 170.45803 
L 446.246606 170.61639 
L 446.780577 172.325143 
L 447.314548 171.185924 
L 447.84852 171.618554 
L 448.382491 170.854029 
L 448.916462 170.917794 
L 449.450434 171.271686 
L 449.984405 170.88346 
L 450.518376 171.182975 
L 451.586319 170.945011 
L 452.12029 170.78515 
L 452.654261 171.311183 
L 453.188233 171.256314 
L 453.722204 170.719517 
L 454.256175 171.386026 
L 454.790147 170.838861 
L 455.858089 171.202269 
L 456.39206 170.874266 
L 456.926032 170.84593 
L 457.460003 170.54823 
L 457.993974 170.867128 
L 459.061917 170.53779 
L 459.595888 170.924849 
L 460.129859 171.054051 
L 460.663831 171.547175 
L 461.197802 170.712395 
L 461.731773 170.824263 
L 462.265745 171.641213 
L 462.799716 171.108665 
L 463.333687 171.620599 
L 463.867658 171.096028 
L 464.40163 171.280202 
L 464.935601 170.916987 
L 465.469572 171.126795 
L 466.003544 171.162409 
L 466.537515 170.940667 
L 467.071486 171.351826 
L 467.605458 170.151216 
L 468.139429 170.686556 
L 468.6734 170.974301 
L 469.207371 170.84513 
L 469.741343 171.255612 
L 471.877228 171.129073 
L 472.411199 170.605783 
L 472.94517 170.924165 
L 474.013113 170.892578 
L 474.547084 171.174157 
L 476.682969 171.039056 
L 477.216941 170.75442 
L 477.750912 170.972632 
L 478.284883 170.780145 
L 478.818855 171.070128 
L 479.352826 170.743612 
L 479.886797 170.932481 
L 480.95474 170.893091 
L 482.556654 170.910405 
L 483.090625 170.771546 
L 483.624596 170.408399 
L 484.158568 170.846615 
L 485.22651 171.151511 
L 485.760481 171.363946 
L 486.294453 171.270962 
L 486.828424 170.580653 
L 487.362395 171.562097 
L 487.896367 170.570145 
L 488.430338 171.126438 
L 488.964309 171.103101 
L 489.498281 170.853095 
L 490.032252 170.920671 
L 490.566223 170.615124 
L 491.100194 170.682173 
L 491.634166 170.591477 
L 492.168137 170.385041 
L 492.702108 170.625611 
L 493.23608 170.422309 
L 493.770051 170.678709 
L 494.304022 170.575004 
L 495.905936 169.848171 
L 496.439907 170.460824 
L 496.973879 170.255669 
L 497.50785 171.026152 
L 498.041821 170.522831 
L 498.575792 170.536451 
L 499.109764 170.135789 
L 499.643735 170.098764 
L 501.245649 170.710914 
L 501.77962 170.414901 
L 502.313592 170.63194 
L 502.847563 170.129311 
L 503.381534 170.130603 
L 504.449477 169.887663 
L 504.983448 169.874953 
L 505.517419 170.316266 
L 506.051391 170.502616 
L 507.119333 170.119472 
L 507.653304 170.159134 
L 508.187276 170.662215 
L 509.255218 170.279717 
L 510.323161 170.34651 
L 510.857132 170.069146 
L 511.391103 170.374545 
L 511.925075 170.491802 
L 512.459046 170.216185 
L 512.993017 170.749537 
L 513.526989 170.813786 
L 514.06096 170.617648 
L 514.594931 170.661828 
L 515.128903 170.133418 
L 515.662874 170.464369 
L 516.196845 170.979377 
L 517.798759 170.197248 
L 518.33273 170.520642 
L 518.866702 170.321574 
L 519.400673 170.425701 
L 519.934644 170.117817 
L 520.468615 170.439945 
L 521.002587 170.242221 
L 521.536558 170.408411 
L 522.604501 170.060405 
L 523.138472 170.250804 
L 523.672443 170.167196 
L 524.206414 170.302541 
L 525.274357 170.212723 
L 525.808328 170.535555 
L 526.3423 170.368037 
L 526.876271 170.546681 
L 527.410242 170.03399 
L 527.944214 170.354272 
L 528.478185 170.124131 
L 529.012156 170.374013 
L 529.546127 170.083487 
L 530.080099 170.100018 
L 530.61407 169.97173 
L 531.148041 170.318687 
L 531.682013 170.376881 
L 532.215984 170.122507 
L 532.749955 170.314316 
L 533.283926 170.073596 
L 533.817898 170.370768 
L 534.351869 170.264862 
L 534.88584 170.412241 
L 535.419812 170.838574 
L 535.953783 170.282593 
L 536.487754 170.348494 
L 537.021725 169.93179 
L 537.555697 170.131248 
L 538.089668 169.840465 
L 538.623639 170.324899 
L 539.691582 170.065878 
L 540.225553 169.89356 
L 540.759525 169.855657 
L 541.293496 170.009696 
L 541.827467 170.493488 
L 542.361438 170.242058 
L 543.429381 170.538344 
L 543.963352 170.252216 
L 544.497324 170.415828 
L 545.031295 170.044925 
L 545.565266 170.063647 
L 546.099237 169.915651 
L 546.633209 170.417419 
L 547.16718 170.427913 
L 547.701151 170.846237 
L 548.769094 170.142493 
L 549.303065 170.341243 
L 549.837036 170.691597 
L 550.904979 170.892928 
L 551.972922 171.120652 
L 552.506893 170.728451 
L 553.040864 170.85151 
L 553.574836 171.110739 
L 555.176749 170.77133 
L 555.710721 170.90171 
L 556.244692 170.854564 
L 556.778663 170.925761 
L 557.312635 170.649481 
L 557.846606 170.805442 
L 558.380577 170.81924 
L 558.914548 170.559292 
L 559.44852 171.124981 
L 559.982491 171.2993 
L 560.516462 170.762827 
L 561.050434 171.028866 
L 561.584405 171.09506 
L 562.118376 171.609669 
L 562.652347 171.188789 
L 563.186319 171.281541 
L 563.72029 170.928361 
L 564.254261 171.110586 
L 564.788233 171.089306 
L 565.322204 170.879606 
L 565.856175 170.860786 
L 566.390147 171.113281 
L 566.924118 170.846153 
L 567.458089 171.311583 
L 567.99206 171.210715 
L 568.526032 170.668596 
L 569.060003 170.869015 
L 569.593974 170.589399 
L 570.127946 170.871449 
L 571.195888 170.943933 
L 571.729859 170.6563 
L 572.263831 170.771053 
L 572.797802 170.48415 
L 573.865745 170.756563 
L 574.399716 170.709858 
L 574.933687 171.286731 
L 575.467658 170.91314 
L 576.00163 171.253242 
L 576.535601 170.921944 
L 577.069572 171.252282 
L 577.603544 171.17014 
L 578.137515 170.884132 
L 580.807371 171.057768 
L 581.341343 170.745244 
L 582.409285 170.677015 
L 582.943257 170.763415 
L 584.011199 170.263252 
L 584.54517 170.507545 
L 585.613113 170.363127 
L 586.147084 170.089164 
L 586.681056 170.420628 
L 587.748998 170.016914 
L 588.282969 170.271502 
L 589.350912 170.023458 
L 589.884883 170.0542 
L 590.418855 170.479579 
L 590.952826 170.578667 
L 591.486797 170.33761 
L 592.020769 170.646129 
L 592.55474 170.686021 
L 593.088711 170.881125 
L 593.622682 169.948732 
L 594.156654 170.562044 
L 594.690625 170.569201 
L 595.224596 170.025146 
L 595.758568 170.052905 
L 596.292539 170.286068 
L 596.82651 170.3356 
L 597.360481 170.798744 
L 597.894453 170.779287 
L 598.428424 170.29529 
L 599.496367 170.692191 
L 600.030338 170.394517 
L 600.564309 170.509295 
L 601.632252 170.40034 
L 602.166223 170.642438 
L 602.700194 170.573191 
L 603.234166 170.667713 
L 603.768137 170.879313 
L 604.302108 170.661327 
L 604.83608 170.73691 
L 605.904022 170.677608 
L 609.10785 171.002538 
L 609.641821 170.756244 
L 610.175792 170.773272 
L 610.709764 170.959438 
L 611.243735 170.699644 
L 611.777706 170.73429 
L 612.311678 170.607199 
L 612.845649 170.750103 
L 613.37962 170.540203 
L 613.913592 170.746863 
L 614.447563 170.659646 
L 614.981534 170.310499 
L 615.515505 170.374529 
L 616.049477 170.569105 
L 616.583448 170.573168 
L 617.117419 170.405482 
L 617.651391 170.816978 
L 618.185362 170.724727 
L 618.719333 171.17465 
L 619.253304 170.950989 
L 619.787276 171.001581 
L 620.855218 170.53722 
L 621.38919 170.852213 
L 621.923161 170.498689 
L 622.991103 171.005971 
L 623.525075 171.086147 
L 624.593017 170.613077 
L 625.126989 170.319721 
L 625.126989 170.319721 
" clip-path="url(#p3c407ff76d)" style="fill: none; stroke: #ff7f0e; stroke-width: 1.5; stroke-linecap: square"/>
   </g>
   <g id="patch_3">
    <path d="M 92.490625 308.63625 
L 92.490625 31.43625 
" style="fill: none; stroke: #000000; stroke-width: 0.8; stroke-linejoin: miter; stroke-linecap: square"/>
   </g>
   <g id="patch_4">
    <path d="M 650.490625 308.63625 
L 650.490625 31.43625 
" style="fill: none; stroke: #000000; stroke-width: 0.8; stroke-linejoin: miter; stroke-linecap: square"/>
   </g>
   <g id="patch_5">
    <path d="M 92.490625 308.63625 
L 650.490625 308.63625 
" style="fill: none; stroke: #000000; stroke-width: 0.8; stroke-linejoin: miter; stroke-linecap: square"/>
   </g>
   <g id="patch_6">
    <path d="M 92.490625 31.43625 
L 650.490625 31.43625 
" style="fill: none; stroke: #000000; stroke-width: 0.8; stroke-linejoin: miter; stroke-linecap: square"/>
   </g>
   <g id="text_14">
    <!-- Generator and Discriminator Loss During Training -->
    <g transform="translate(74.258125 25.43625) scale(0.24 -0.24)">
     <defs>
      <path id="DejaVuSans-47" d="M 3809 666 
L 3809 1919 
L 2778 1919 
L 2778 2438 
L 4434 2438 
L 4434 434 
Q 4069 175 3628 42 
Q 3188 -91 2688 -91 
Q 1594 -91 976 548 
Q 359 1188 359 2328 
Q 359 3472 976 4111 
Q 1594 4750 2688 4750 
Q 3144 4750 3555 4637 
Q 3966 4525 4313 4306 
L 4313 3634 
Q 3963 3931 3569 4081 
Q 3175 4231 2741 4231 
Q 1884 4231 1454 3753 
Q 1025 3275 1025 2328 
Q 1025 1384 1454 906 
Q 1884 428 2741 428 
Q 3075 428 3337 486 
Q 3600 544 3809 666 
z
" transform="scale(0.015625)"/>
      <path id="DejaVuSans-20" transform="scale(0.015625)"/>
      <path id="DejaVuSans-64" d="M 2906 2969 
L 2906 4863 
L 3481 4863 
L 3481 0 
L 2906 0 
L 2906 525 
Q 2725 213 2448 61 
Q 2172 -91 1784 -91 
Q 1150 -91 751 415 
Q 353 922 353 1747 
Q 353 2572 751 3078 
Q 1150 3584 1784 3584 
Q 2172 3584 2448 3432 
Q 2725 3281 2906 2969 
z
M 947 1747 
Q 947 1113 1208 752 
Q 1469 391 1925 391 
Q 2381 391 2643 752 
Q 2906 1113 2906 1747 
Q 2906 2381 2643 2742 
Q 2381 3103 1925 3103 
Q 1469 3103 1208 2742 
Q 947 2381 947 1747 
z
" transform="scale(0.015625)"/>
      <path id="DejaVuSans-44" d="M 1259 4147 
L 1259 519 
L 2022 519 
Q 2988 519 3436 956 
Q 3884 1394 3884 2338 
Q 3884 3275 3436 3711 
Q 2988 4147 2022 4147 
L 1259 4147 
z
M 628 4666 
L 1925 4666 
Q 3281 4666 3915 4102 
Q 4550 3538 4550 2338 
Q 4550 1131 3912 565 
Q 3275 0 1925 0 
L 628 0 
L 628 4666 
z
" transform="scale(0.015625)"/>
      <path id="DejaVuSans-63" d="M 3122 3366 
L 3122 2828 
Q 2878 2963 2633 3030 
Q 2388 3097 2138 3097 
Q 1578 3097 1268 2742 
Q 959 2388 959 1747 
Q 959 1106 1268 751 
Q 1578 397 2138 397 
Q 2388 397 2633 464 
Q 2878 531 3122 666 
L 3122 134 
Q 2881 22 2623 -34 
Q 2366 -91 2075 -91 
Q 1284 -91 818 406 
Q 353 903 353 1747 
Q 353 2603 823 3093 
Q 1294 3584 2113 3584 
Q 2378 3584 2631 3529 
Q 2884 3475 3122 3366 
z
" transform="scale(0.015625)"/>
      <path id="DejaVuSans-6d" d="M 3328 2828 
Q 3544 3216 3844 3400 
Q 4144 3584 4550 3584 
Q 5097 3584 5394 3201 
Q 5691 2819 5691 2113 
L 5691 0 
L 5113 0 
L 5113 2094 
Q 5113 2597 4934 2840 
Q 4756 3084 4391 3084 
Q 3944 3084 3684 2787 
Q 3425 2491 3425 1978 
L 3425 0 
L 2847 0 
L 2847 2094 
Q 2847 2600 2669 2842 
Q 2491 3084 2119 3084 
Q 1678 3084 1418 2786 
Q 1159 2488 1159 1978 
L 1159 0 
L 581 0 
L 581 3500 
L 1159 3500 
L 1159 2956 
Q 1356 3278 1631 3431 
Q 1906 3584 2284 3584 
Q 2666 3584 2933 3390 
Q 3200 3197 3328 2828 
z
" transform="scale(0.015625)"/>
      <path id="DejaVuSans-75" d="M 544 1381 
L 544 3500 
L 1119 3500 
L 1119 1403 
Q 1119 906 1312 657 
Q 1506 409 1894 409 
Q 2359 409 2629 706 
Q 2900 1003 2900 1516 
L 2900 3500 
L 3475 3500 
L 3475 0 
L 2900 0 
L 2900 538 
Q 2691 219 2414 64 
Q 2138 -91 1772 -91 
Q 1169 -91 856 284 
Q 544 659 544 1381 
z
M 1991 3584 
L 1991 3584 
z
" transform="scale(0.015625)"/>
      <path id="DejaVuSans-67" d="M 2906 1791 
Q 2906 2416 2648 2759 
Q 2391 3103 1925 3103 
Q 1463 3103 1205 2759 
Q 947 2416 947 1791 
Q 947 1169 1205 825 
Q 1463 481 1925 481 
Q 2391 481 2648 825 
Q 2906 1169 2906 1791 
z
M 3481 434 
Q 3481 -459 3084 -895 
Q 2688 -1331 1869 -1331 
Q 1566 -1331 1297 -1286 
Q 1028 -1241 775 -1147 
L 775 -588 
Q 1028 -725 1275 -790 
Q 1522 -856 1778 -856 
Q 2344 -856 2625 -561 
Q 2906 -266 2906 331 
L 2906 616 
Q 2728 306 2450 153 
Q 2172 0 1784 0 
Q 1141 0 747 490 
Q 353 981 353 1791 
Q 353 2603 747 3093 
Q 1141 3584 1784 3584 
Q 2172 3584 2450 3431 
Q 2728 3278 2906 2969 
L 2906 3500 
L 3481 3500 
L 3481 434 
z
" transform="scale(0.015625)"/>
      <path id="DejaVuSans-54" d="M -19 4666 
L 3928 4666 
L 3928 4134 
L 2272 4134 
L 2272 0 
L 1638 0 
L 1638 4134 
L -19 4134 
L -19 4666 
z
" transform="scale(0.015625)"/>
     </defs>
     <use xlink:href="#DejaVuSans-47"/>
     <use xlink:href="#DejaVuSans-65" x="77.490234"/>
     <use xlink:href="#DejaVuSans-6e" x="139.013672"/>
     <use xlink:href="#DejaVuSans-65" x="202.392578"/>
     <use xlink:href="#DejaVuSans-72" x="263.916016"/>
     <use xlink:href="#DejaVuSans-61" x="305.029297"/>
     <use xlink:href="#DejaVuSans-74" x="366.308594"/>
     <use xlink:href="#DejaVuSans-6f" x="405.517578"/>
     <use xlink:href="#DejaVuSans-72" x="466.699219"/>
     <use xlink:href="#DejaVuSans-20" x="507.8125"/>
     <use xlink:href="#DejaVuSans-61" x="539.599609"/>
     <use xlink:href="#DejaVuSans-6e" x="600.878906"/>
     <use xlink:href="#DejaVuSans-64" x="664.257812"/>
     <use xlink:href="#DejaVuSans-20" x="727.734375"/>
     <use xlink:href="#DejaVuSans-44" x="759.521484"/>
     <use xlink:href="#DejaVuSans-69" x="836.523438"/>
     <use xlink:href="#DejaVuSans-73" x="864.306641"/>
     <use xlink:href="#DejaVuSans-63" x="916.40625"/>
     <use xlink:href="#DejaVuSans-72" x="971.386719"/>
     <use xlink:href="#DejaVuSans-69" x="1012.5"/>
     <use xlink:href="#DejaVuSans-6d" x="1040.283203"/>
     <use xlink:href="#DejaVuSans-69" x="1137.695312"/>
     <use xlink:href="#DejaVuSans-6e" x="1165.478516"/>
     <use xlink:href="#DejaVuSans-61" x="1228.857422"/>
     <use xlink:href="#DejaVuSans-74" x="1290.136719"/>
     <use xlink:href="#DejaVuSans-6f" x="1329.345703"/>
     <use xlink:href="#DejaVuSans-72" x="1390.527344"/>
     <use xlink:href="#DejaVuSans-20" x="1431.640625"/>
     <use xlink:href="#DejaVuSans-4c" x="1463.427734"/>
     <use xlink:href="#DejaVuSans-6f" x="1517.390625"/>
     <use xlink:href="#DejaVuSans-73" x="1578.572266"/>
     <use xlink:href="#DejaVuSans-73" x="1630.671875"/>
     <use xlink:href="#DejaVuSans-20" x="1682.771484"/>
     <use xlink:href="#DejaVuSans-44" x="1714.558594"/>
     <use xlink:href="#DejaVuSans-75" x="1791.560547"/>
     <use xlink:href="#DejaVuSans-72" x="1854.939453"/>
     <use xlink:href="#DejaVuSans-69" x="1896.052734"/>
     <use xlink:href="#DejaVuSans-6e" x="1923.835938"/>
     <use xlink:href="#DejaVuSans-67" x="1987.214844"/>
     <use xlink:href="#DejaVuSans-20" x="2050.691406"/>
     <use xlink:href="#DejaVuSans-54" x="2082.478516"/>
     <use xlink:href="#DejaVuSans-72" x="2128.8125"/>
     <use xlink:href="#DejaVuSans-61" x="2169.925781"/>
     <use xlink:href="#DejaVuSans-69" x="2231.205078"/>
     <use xlink:href="#DejaVuSans-6e" x="2258.988281"/>
     <use xlink:href="#DejaVuSans-69" x="2322.367188"/>
     <use xlink:href="#DejaVuSans-6e" x="2350.150391"/>
     <use xlink:href="#DejaVuSans-67" x="2413.529297"/>
    </g>
   </g>
   <g id="legend_1">
    <g id="patch_7">
     <path d="M 556.99375 106.14875 
L 636.490625 106.14875 
Q 640.490625 106.14875 640.490625 102.14875 
L 640.490625 45.43625 
Q 640.490625 41.43625 636.490625 41.43625 
L 556.99375 41.43625 
Q 552.99375 41.43625 552.99375 45.43625 
L 552.99375 102.14875 
Q 552.99375 106.14875 556.99375 106.14875 
z
" style="fill: #ffffff; opacity: 0.8; stroke: #cccccc; stroke-linejoin: miter"/>
    </g>
    <g id="line2d_14">
     <path d="M 560.99375 57.633125 
L 580.99375 57.633125 
L 600.99375 57.633125 
" style="fill: none; stroke: #1f77b4; stroke-width: 1.5; stroke-linecap: square"/>
    </g>
    <g id="text_15">
     <!-- G -->
     <g transform="translate(616.99375 64.633125) scale(0.2 -0.2)">
      <use xlink:href="#DejaVuSans-47"/>
     </g>
    </g>
    <g id="line2d_15">
     <path d="M 560.99375 86.989375 
L 580.99375 86.989375 
L 600.99375 86.989375 
" style="fill: none; stroke: #ff7f0e; stroke-width: 1.5; stroke-linecap: square"/>
    </g>
    <g id="text_16">
     <!-- D -->
     <g transform="translate(616.99375 93.989375) scale(0.2 -0.2)">
      <use xlink:href="#DejaVuSans-44"/>
     </g>
    </g>
   </g>
  </g>
 </g>
 <defs>
  <clipPath id="p3c407ff76d">
   <rect x="92.490625" y="31.43625" width="558" height="277.2"/>
  </clipPath>
 </defs>
</svg>
