<?xml version="1.0" encoding="utf-8" standalone="no"?>
<!DOCTYPE svg PUBLIC "-//W3C//DTD SVG 1.1//EN"
  "http://www.w3.org/Graphics/SVG/1.1/DTD/svg11.dtd">
<svg xmlns:xlink="http://www.w3.org/1999/xlink" width="675.923125pt" height="365.54875pt" viewBox="0 0 675.923125 365.54875" xmlns="http://www.w3.org/2000/svg" version="1.1">
 <metadata>
  <rdf:RDF xmlns:dc="http://purl.org/dc/elements/1.1/" xmlns:cc="http://creativecommons.org/ns#" xmlns:rdf="http://www.w3.org/1999/02/22-rdf-syntax-ns#">
   <cc:Work>
    <dc:type rdf:resource="http://purl.org/dc/dcmitype/StillImage"/>
    <dc:date>2024-02-01T21:30:47.663287</dc:date>
    <dc:format>image/svg+xml</dc:format>
    <dc:creator>
     <cc:Agent>
      <dc:title>Matplotlib v3.7.2, https://matplotlib.org/</dc:title>
     </cc:Agent>
    </dc:creator>
   </cc:Work>
  </rdf:RDF>
 </metadata>
 <defs>
  <style type="text/css">*{stroke-linejoin: round; stroke-linecap: butt}</style>
 </defs>
 <g id="figure_1">
  <g id="patch_1">
   <path d="M 0 365.54875 
L 675.923125 365.54875 
L 675.923125 -0 
L 0 -0 
z
" style="fill: #ffffff"/>
  </g>
  <g id="axes_1">
   <g id="patch_2">
    <path d="M 92.490625 308.63625 
L 650.490625 308.63625 
L 650.490625 31.43625 
L 92.490625 31.43625 
z
" style="fill: #ffffff"/>
   </g>
   <g id="matplotlib.axis_1">
    <g id="xtick_1">
     <g id="line2d_1">
      <defs>
       <path id="m81221f1519" d="M 0 0 
L 0 3.5 
" style="stroke: #000000; stroke-width: 0.8"/>
      </defs>
      <g>
       <use xlink:href="#m81221f1519" x="117.854261" y="308.63625" style="stroke: #000000; stroke-width: 0.8"/>
      </g>
     </g>
     <g id="text_1">
      <!-- 0 -->
      <g transform="translate(111.491761 330.833125) scale(0.2 -0.2)">
       <defs>
        <path id="DejaVuSans-30" d="M 2034 4250 
Q 1547 4250 1301 3770 
Q 1056 3291 1056 2328 
Q 1056 1369 1301 889 
Q 1547 409 2034 409 
Q 2525 409 2770 889 
Q 3016 1369 3016 2328 
Q 3016 3291 2770 3770 
Q 2525 4250 2034 4250 
z
M 2034 4750 
Q 2819 4750 3233 4129 
Q 3647 3509 3647 2328 
Q 3647 1150 3233 529 
Q 2819 -91 2034 -91 
Q 1250 -91 836 529 
Q 422 1150 422 2328 
Q 422 3509 836 4129 
Q 1250 4750 2034 4750 
z
" transform="scale(0.015625)"/>
       </defs>
       <use xlink:href="#DejaVuSans-30"/>
      </g>
     </g>
    </g>
    <g id="xtick_2">
     <g id="line2d_2">
      <g>
       <use xlink:href="#m81221f1519" x="181.263352" y="308.63625" style="stroke: #000000; stroke-width: 0.8"/>
      </g>
     </g>
     <g id="text_2">
      <!-- 250 -->
      <g transform="translate(162.175852 330.833125) scale(0.2 -0.2)">
       <defs>
        <path id="DejaVuSans-32" d="M 1228 531 
L 3431 531 
L 3431 0 
L 469 0 
L 469 531 
Q 828 903 1448 1529 
Q 2069 2156 2228 2338 
Q 2531 2678 2651 2914 
Q 2772 3150 2772 3378 
Q 2772 3750 2511 3984 
Q 2250 4219 1831 4219 
Q 1534 4219 1204 4116 
Q 875 4013 500 3803 
L 500 4441 
Q 881 4594 1212 4672 
Q 1544 4750 1819 4750 
Q 2544 4750 2975 4387 
Q 3406 4025 3406 3419 
Q 3406 3131 3298 2873 
Q 3191 2616 2906 2266 
Q 2828 2175 2409 1742 
Q 1991 1309 1228 531 
z
" transform="scale(0.015625)"/>
        <path id="DejaVuSans-35" d="M 691 4666 
L 3169 4666 
L 3169 4134 
L 1269 4134 
L 1269 2991 
Q 1406 3038 1543 3061 
Q 1681 3084 1819 3084 
Q 2600 3084 3056 2656 
Q 3513 2228 3513 1497 
Q 3513 744 3044 326 
Q 2575 -91 1722 -91 
Q 1428 -91 1123 -41 
Q 819 9 494 109 
L 494 744 
Q 775 591 1075 516 
Q 1375 441 1709 441 
Q 2250 441 2565 725 
Q 2881 1009 2881 1497 
Q 2881 1984 2565 2268 
Q 2250 2553 1709 2553 
Q 1456 2553 1204 2497 
Q 953 2441 691 2322 
L 691 4666 
z
" transform="scale(0.015625)"/>
       </defs>
       <use xlink:href="#DejaVuSans-32"/>
       <use xlink:href="#DejaVuSans-35" x="63.623047"/>
       <use xlink:href="#DejaVuSans-30" x="127.246094"/>
      </g>
     </g>
    </g>
    <g id="xtick_3">
     <g id="line2d_3">
      <g>
       <use xlink:href="#m81221f1519" x="244.672443" y="308.63625" style="stroke: #000000; stroke-width: 0.8"/>
      </g>
     </g>
     <g id="text_3">
      <!-- 500 -->
      <g transform="translate(225.584943 330.833125) scale(0.2 -0.2)">
       <use xlink:href="#DejaVuSans-35"/>
       <use xlink:href="#DejaVuSans-30" x="63.623047"/>
       <use xlink:href="#DejaVuSans-30" x="127.246094"/>
      </g>
     </g>
    </g>
    <g id="xtick_4">
     <g id="line2d_4">
      <g>
       <use xlink:href="#m81221f1519" x="308.081534" y="308.63625" style="stroke: #000000; stroke-width: 0.8"/>
      </g>
     </g>
     <g id="text_4">
      <!-- 750 -->
      <g transform="translate(288.994034 330.833125) scale(0.2 -0.2)">
       <defs>
        <path id="DejaVuSans-37" d="M 525 4666 
L 3525 4666 
L 3525 4397 
L 1831 0 
L 1172 0 
L 2766 4134 
L 525 4134 
L 525 4666 
z
" transform="scale(0.015625)"/>
       </defs>
       <use xlink:href="#DejaVuSans-37"/>
       <use xlink:href="#DejaVuSans-35" x="63.623047"/>
       <use xlink:href="#DejaVuSans-30" x="127.246094"/>
      </g>
     </g>
    </g>
    <g id="xtick_5">
     <g id="line2d_5">
      <g>
       <use xlink:href="#m81221f1519" x="371.490625" y="308.63625" style="stroke: #000000; stroke-width: 0.8"/>
      </g>
     </g>
     <g id="text_5">
      <!-- 1000 -->
      <g transform="translate(346.040625 330.833125) scale(0.2 -0.2)">
       <defs>
        <path id="DejaVuSans-31" d="M 794 531 
L 1825 531 
L 1825 4091 
L 703 3866 
L 703 4441 
L 1819 4666 
L 2450 4666 
L 2450 531 
L 3481 531 
L 3481 0 
L 794 0 
L 794 531 
z
" transform="scale(0.015625)"/>
       </defs>
       <use xlink:href="#DejaVuSans-31"/>
       <use xlink:href="#DejaVuSans-30" x="63.623047"/>
       <use xlink:href="#DejaVuSans-30" x="127.246094"/>
       <use xlink:href="#DejaVuSans-30" x="190.869141"/>
      </g>
     </g>
    </g>
    <g id="xtick_6">
     <g id="line2d_6">
      <g>
       <use xlink:href="#m81221f1519" x="434.899716" y="308.63625" style="stroke: #000000; stroke-width: 0.8"/>
      </g>
     </g>
     <g id="text_6">
      <!-- 1250 -->
      <g transform="translate(409.449716 330.833125) scale(0.2 -0.2)">
       <use xlink:href="#DejaVuSans-31"/>
       <use xlink:href="#DejaVuSans-32" x="63.623047"/>
       <use xlink:href="#DejaVuSans-35" x="127.246094"/>
       <use xlink:href="#DejaVuSans-30" x="190.869141"/>
      </g>
     </g>
    </g>
    <g id="xtick_7">
     <g id="line2d_7">
      <g>
       <use xlink:href="#m81221f1519" x="498.308807" y="308.63625" style="stroke: #000000; stroke-width: 0.8"/>
      </g>
     </g>
     <g id="text_7">
      <!-- 1500 -->
      <g transform="translate(472.858807 330.833125) scale(0.2 -0.2)">
       <use xlink:href="#DejaVuSans-31"/>
       <use xlink:href="#DejaVuSans-35" x="63.623047"/>
       <use xlink:href="#DejaVuSans-30" x="127.246094"/>
       <use xlink:href="#DejaVuSans-30" x="190.869141"/>
      </g>
     </g>
    </g>
    <g id="xtick_8">
     <g id="line2d_8">
      <g>
       <use xlink:href="#m81221f1519" x="561.717898" y="308.63625" style="stroke: #000000; stroke-width: 0.8"/>
      </g>
     </g>
     <g id="text_8">
      <!-- 1750 -->
      <g transform="translate(536.267898 330.833125) scale(0.2 -0.2)">
       <use xlink:href="#DejaVuSans-31"/>
       <use xlink:href="#DejaVuSans-37" x="63.623047"/>
       <use xlink:href="#DejaVuSans-35" x="127.246094"/>
       <use xlink:href="#DejaVuSans-30" x="190.869141"/>
      </g>
     </g>
    </g>
    <g id="xtick_9">
     <g id="line2d_9">
      <g>
       <use xlink:href="#m81221f1519" x="625.126989" y="308.63625" style="stroke: #000000; stroke-width: 0.8"/>
      </g>
     </g>
     <g id="text_9">
      <!-- 2000 -->
      <g transform="translate(599.676989 330.833125) scale(0.2 -0.2)">
       <use xlink:href="#DejaVuSans-32"/>
       <use xlink:href="#DejaVuSans-30" x="63.623047"/>
       <use xlink:href="#DejaVuSans-30" x="127.246094"/>
       <use xlink:href="#DejaVuSans-30" x="190.869141"/>
      </g>
     </g>
    </g>
    <g id="text_10">
     <!-- iterations -->
     <g transform="translate(324.035938 354.189375) scale(0.2 -0.2)">
      <defs>
       <path id="DejaVuSans-69" d="M 603 3500 
L 1178 3500 
L 1178 0 
L 603 0 
L 603 3500 
z
M 603 4863 
L 1178 4863 
L 1178 4134 
L 603 4134 
L 603 4863 
z
" transform="scale(0.015625)"/>
       <path id="DejaVuSans-74" d="M 1172 4494 
L 1172 3500 
L 2356 3500 
L 2356 3053 
L 1172 3053 
L 1172 1153 
Q 1172 725 1289 603 
Q 1406 481 1766 481 
L 2356 481 
L 2356 0 
L 1766 0 
Q 1100 0 847 248 
Q 594 497 594 1153 
L 594 3053 
L 172 3053 
L 172 3500 
L 594 3500 
L 594 4494 
L 1172 4494 
z
" transform="scale(0.015625)"/>
       <path id="DejaVuSans-65" d="M 3597 1894 
L 3597 1613 
L 953 1613 
Q 991 1019 1311 708 
Q 1631 397 2203 397 
Q 2534 397 2845 478 
Q 3156 559 3463 722 
L 3463 178 
Q 3153 47 2828 -22 
Q 2503 -91 2169 -91 
Q 1331 -91 842 396 
Q 353 884 353 1716 
Q 353 2575 817 3079 
Q 1281 3584 2069 3584 
Q 2775 3584 3186 3129 
Q 3597 2675 3597 1894 
z
M 3022 2063 
Q 3016 2534 2758 2815 
Q 2500 3097 2075 3097 
Q 1594 3097 1305 2825 
Q 1016 2553 972 2059 
L 3022 2063 
z
" transform="scale(0.015625)"/>
       <path id="DejaVuSans-72" d="M 2631 2963 
Q 2534 3019 2420 3045 
Q 2306 3072 2169 3072 
Q 1681 3072 1420 2755 
Q 1159 2438 1159 1844 
L 1159 0 
L 581 0 
L 581 3500 
L 1159 3500 
L 1159 2956 
Q 1341 3275 1631 3429 
Q 1922 3584 2338 3584 
Q 2397 3584 2469 3576 
Q 2541 3569 2628 3553 
L 2631 2963 
z
" transform="scale(0.015625)"/>
       <path id="DejaVuSans-61" d="M 2194 1759 
Q 1497 1759 1228 1600 
Q 959 1441 959 1056 
Q 959 750 1161 570 
Q 1363 391 1709 391 
Q 2188 391 2477 730 
Q 2766 1069 2766 1631 
L 2766 1759 
L 2194 1759 
z
M 3341 1997 
L 3341 0 
L 2766 0 
L 2766 531 
Q 2569 213 2275 61 
Q 1981 -91 1556 -91 
Q 1019 -91 701 211 
Q 384 513 384 1019 
Q 384 1609 779 1909 
Q 1175 2209 1959 2209 
L 2766 2209 
L 2766 2266 
Q 2766 2663 2505 2880 
Q 2244 3097 1772 3097 
Q 1472 3097 1187 3025 
Q 903 2953 641 2809 
L 641 3341 
Q 956 3463 1253 3523 
Q 1550 3584 1831 3584 
Q 2591 3584 2966 3190 
Q 3341 2797 3341 1997 
z
" transform="scale(0.015625)"/>
       <path id="DejaVuSans-6f" d="M 1959 3097 
Q 1497 3097 1228 2736 
Q 959 2375 959 1747 
Q 959 1119 1226 758 
Q 1494 397 1959 397 
Q 2419 397 2687 759 
Q 2956 1122 2956 1747 
Q 2956 2369 2687 2733 
Q 2419 3097 1959 3097 
z
M 1959 3584 
Q 2709 3584 3137 3096 
Q 3566 2609 3566 1747 
Q 3566 888 3137 398 
Q 2709 -91 1959 -91 
Q 1206 -91 779 398 
Q 353 888 353 1747 
Q 353 2609 779 3096 
Q 1206 3584 1959 3584 
z
" transform="scale(0.015625)"/>
       <path id="DejaVuSans-6e" d="M 3513 2113 
L 3513 0 
L 2938 0 
L 2938 2094 
Q 2938 2591 2744 2837 
Q 2550 3084 2163 3084 
Q 1697 3084 1428 2787 
Q 1159 2491 1159 1978 
L 1159 0 
L 581 0 
L 581 3500 
L 1159 3500 
L 1159 2956 
Q 1366 3272 1645 3428 
Q 1925 3584 2291 3584 
Q 2894 3584 3203 3211 
Q 3513 2838 3513 2113 
z
" transform="scale(0.015625)"/>
       <path id="DejaVuSans-73" d="M 2834 3397 
L 2834 2853 
Q 2591 2978 2328 3040 
Q 2066 3103 1784 3103 
Q 1356 3103 1142 2972 
Q 928 2841 928 2578 
Q 928 2378 1081 2264 
Q 1234 2150 1697 2047 
L 1894 2003 
Q 2506 1872 2764 1633 
Q 3022 1394 3022 966 
Q 3022 478 2636 193 
Q 2250 -91 1575 -91 
Q 1294 -91 989 -36 
Q 684 19 347 128 
L 347 722 
Q 666 556 975 473 
Q 1284 391 1588 391 
Q 1994 391 2212 530 
Q 2431 669 2431 922 
Q 2431 1156 2273 1281 
Q 2116 1406 1581 1522 
L 1381 1569 
Q 847 1681 609 1914 
Q 372 2147 372 2553 
Q 372 3047 722 3315 
Q 1072 3584 1716 3584 
Q 2034 3584 2315 3537 
Q 2597 3491 2834 3397 
z
" transform="scale(0.015625)"/>
      </defs>
      <use xlink:href="#DejaVuSans-69"/>
      <use xlink:href="#DejaVuSans-74" x="27.783203"/>
      <use xlink:href="#DejaVuSans-65" x="66.992188"/>
      <use xlink:href="#DejaVuSans-72" x="128.515625"/>
      <use xlink:href="#DejaVuSans-61" x="169.628906"/>
      <use xlink:href="#DejaVuSans-74" x="230.908203"/>
      <use xlink:href="#DejaVuSans-69" x="270.117188"/>
      <use xlink:href="#DejaVuSans-6f" x="297.900391"/>
      <use xlink:href="#DejaVuSans-6e" x="359.082031"/>
      <use xlink:href="#DejaVuSans-73" x="422.460938"/>
     </g>
    </g>
   </g>
   <g id="matplotlib.axis_2">
    <g id="ytick_1">
     <g id="line2d_10">
      <defs>
       <path id="m7ae511ee40" d="M 0 0 
L -3.5 0 
" style="stroke: #000000; stroke-width: 0.8"/>
      </defs>
      <g>
       <use xlink:href="#m7ae511ee40" x="92.490625" y="234.626549" style="stroke: #000000; stroke-width: 0.8"/>
      </g>
     </g>
     <g id="text_11">
      <!-- −200 -->
      <g transform="translate(30.55625 242.224987) scale(0.2 -0.2)">
       <defs>
        <path id="DejaVuSans-2212" d="M 678 2272 
L 4684 2272 
L 4684 1741 
L 678 1741 
L 678 2272 
z
" transform="scale(0.015625)"/>
       </defs>
       <use xlink:href="#DejaVuSans-2212"/>
       <use xlink:href="#DejaVuSans-32" x="83.789062"/>
       <use xlink:href="#DejaVuSans-30" x="147.412109"/>
       <use xlink:href="#DejaVuSans-30" x="211.035156"/>
      </g>
     </g>
    </g>
    <g id="ytick_2">
     <g id="line2d_11">
      <g>
       <use xlink:href="#m7ae511ee40" x="92.490625" y="151.376755" style="stroke: #000000; stroke-width: 0.8"/>
      </g>
     </g>
     <g id="text_12">
      <!-- 0 -->
      <g transform="translate(72.765625 158.975193) scale(0.2 -0.2)">
       <use xlink:href="#DejaVuSans-30"/>
      </g>
     </g>
    </g>
    <g id="ytick_3">
     <g id="line2d_12">
      <g>
       <use xlink:href="#m7ae511ee40" x="92.490625" y="68.126962" style="stroke: #000000; stroke-width: 0.8"/>
      </g>
     </g>
     <g id="text_13">
      <!-- 200 -->
      <g transform="translate(47.315625 75.725399) scale(0.2 -0.2)">
       <use xlink:href="#DejaVuSans-32"/>
       <use xlink:href="#DejaVuSans-30" x="63.623047"/>
       <use xlink:href="#DejaVuSans-30" x="127.246094"/>
      </g>
     </g>
    </g>
    <g id="text_14">
     <!-- Loss -->
     <g transform="translate(22.396875 191.970625) rotate(-90) scale(0.2 -0.2)">
      <defs>
       <path id="DejaVuSans-4c" d="M 628 4666 
L 1259 4666 
L 1259 531 
L 3531 531 
L 3531 0 
L 628 0 
L 628 4666 
z
" transform="scale(0.015625)"/>
      </defs>
      <use xlink:href="#DejaVuSans-4c"/>
      <use xlink:href="#DejaVuSans-6f" x="53.962891"/>
      <use xlink:href="#DejaVuSans-73" x="115.144531"/>
      <use xlink:href="#DejaVuSans-73" x="167.244141"/>
     </g>
    </g>
   </g>
   <g id="line2d_13">
    <path d="M 117.854261 114.726306 
L 118.107898 106.081918 
L 118.61517 44.03625 
L 118.868807 55.607746 
L 119.122443 116.630126 
L 119.37608 138.664661 
L 119.629716 137.321124 
L 119.883352 122.741893 
L 120.136989 120.788415 
L 120.390625 127.999278 
L 120.644261 122.989826 
L 120.897898 108.458537 
L 121.151534 122.646974 
L 121.40517 126.556792 
L 121.912443 120.201515 
L 122.16608 126.255443 
L 122.419716 122.797609 
L 122.673352 127.006439 
L 122.926989 118.64052 
L 123.180625 124.366742 
L 123.434261 117.662909 
L 123.687898 117.330772 
L 123.941534 114.695364 
L 124.19517 107.764658 
L 124.448807 108.435758 
L 124.95608 106.219874 
L 125.209716 110.116506 
L 125.716989 103.735206 
L 125.970625 107.114803 
L 126.224261 106.33327 
L 126.477898 103.507469 
L 126.731534 108.842958 
L 126.98517 102.920055 
L 127.238807 108.429686 
L 127.492443 110.936486 
L 127.74608 110.869457 
L 127.999716 106.939005 
L 128.253352 105.409875 
L 128.506989 110.445841 
L 128.760625 111.131011 
L 129.014261 113.912796 
L 129.267898 112.411065 
L 129.521534 111.591078 
L 129.77517 112.594274 
L 130.028807 115.130586 
L 130.282443 112.662515 
L 130.53608 111.560611 
L 130.789716 112.925905 
L 131.043352 108.346789 
L 131.296989 112.549272 
L 131.550625 114.58122 
L 131.804261 115.179402 
L 132.057898 119.262292 
L 132.311534 117.014571 
L 132.56517 116.380063 
L 132.818807 120.267786 
L 133.072443 120.37667 
L 133.32608 120.879402 
L 133.579716 120.548412 
L 133.833352 123.597646 
L 134.086989 123.431828 
L 134.340625 121.429234 
L 134.594261 122.560572 
L 134.847898 119.85272 
L 135.101534 118.694633 
L 135.608807 118.68102 
L 135.862443 118.119314 
L 136.11608 121.17012 
L 136.623352 116.7473 
L 136.876989 113.297092 
L 137.130625 118.688744 
L 137.384261 120.343387 
L 137.637898 123.308616 
L 138.14517 118.109455 
L 138.652443 123.245243 
L 139.159716 118.407012 
L 139.666989 122.653338 
L 139.920625 123.836576 
L 140.174261 125.744796 
L 140.427898 123.447651 
L 140.681534 128.318527 
L 140.93517 129.080516 
L 141.188807 128.830815 
L 141.442443 128.20745 
L 141.69608 128.76154 
L 141.949716 132.053196 
L 142.203352 133.596636 
L 142.456989 133.934515 
L 142.710625 135.141517 
L 142.964261 135.137063 
L 143.217898 134.780402 
L 143.471534 135.202134 
L 143.72517 135.093015 
L 143.978807 136.905242 
L 144.48608 142.399589 
L 144.739716 142.128559 
L 144.993352 142.779249 
L 145.246989 139.598641 
L 145.500625 140.408307 
L 145.754261 138.506123 
L 146.007898 139.937779 
L 147.022443 135.089312 
L 147.27608 138.125691 
L 147.529716 137.931203 
L 147.783352 136.48173 
L 148.036989 135.887461 
L 148.544261 133.177328 
L 148.797898 135.336782 
L 149.051534 134.894951 
L 149.30517 135.405771 
L 149.558807 135.395858 
L 149.812443 136.106534 
L 150.06608 138.160945 
L 150.573352 138.778501 
L 150.826989 139.328544 
L 151.080625 137.455284 
L 151.334261 138.146409 
L 151.587898 139.584531 
L 151.841534 139.54211 
L 152.09517 140.772087 
L 152.348807 139.328314 
L 152.602443 141.270704 
L 153.109716 138.38691 
L 153.363352 138.267975 
L 153.616989 138.407029 
L 153.870625 138.064147 
L 154.124261 136.366411 
L 154.377898 136.725459 
L 154.631534 137.7051 
L 154.88517 136.859223 
L 155.138807 139.049001 
L 155.392443 137.336016 
L 155.64608 137.257625 
L 155.899716 138.794003 
L 156.153352 138.317046 
L 156.406989 138.127537 
L 156.660625 137.085883 
L 156.914261 140.357201 
L 157.167898 142.188057 
L 157.421534 140.211719 
L 157.67517 141.214973 
L 157.928807 140.469004 
L 158.182443 140.399257 
L 158.43608 137.341402 
L 158.689716 136.956775 
L 158.943352 138.004539 
L 159.196989 141.917493 
L 159.450625 141.394417 
L 159.957898 138.757231 
L 160.211534 139.627896 
L 160.718807 142.544043 
L 160.972443 142.319792 
L 161.22608 139.759331 
L 161.479716 140.416344 
L 161.733352 141.45395 
L 161.986989 141.363625 
L 162.240625 140.978604 
L 162.494261 142.910652 
L 162.747898 142.90158 
L 163.001534 144.549058 
L 163.25517 145.17122 
L 163.508807 145.44887 
L 163.762443 144.416339 
L 164.01608 144.947962 
L 164.269716 143.814591 
L 164.523352 145.207917 
L 164.776989 145.528567 
L 165.030625 144.861957 
L 165.284261 145.227471 
L 165.537898 144.527959 
L 165.791534 145.046411 
L 166.04517 146.68308 
L 166.298807 147.135187 
L 166.80608 143.988933 
L 167.059716 145.81337 
L 167.313352 144.652605 
L 167.566989 145.491722 
L 167.820625 145.544312 
L 168.074261 146.479505 
L 168.327898 145.926367 
L 168.581534 146.569906 
L 168.83517 146.635087 
L 169.088807 145.762171 
L 169.342443 146.892018 
L 169.59608 148.983063 
L 169.849716 148.879743 
L 170.103352 147.783513 
L 170.356989 148.254067 
L 170.610625 147.888736 
L 171.117898 146.202176 
L 171.371534 146.837467 
L 171.62517 146.997663 
L 172.132443 146.666794 
L 172.639716 146.848622 
L 172.893352 146.639285 
L 173.146989 145.433562 
L 173.400625 146.697151 
L 173.654261 146.488051 
L 173.907898 148.265055 
L 174.161534 147.613654 
L 174.41517 147.710403 
L 174.668807 147.419561 
L 174.922443 147.740517 
L 175.17608 146.590609 
L 175.683352 147.987777 
L 176.190625 148.092569 
L 176.444261 147.626153 
L 176.697898 148.346627 
L 176.951534 147.834075 
L 177.20517 146.928657 
L 177.458807 148.067958 
L 177.712443 147.258653 
L 177.96608 148.865305 
L 178.219716 148.410553 
L 178.473352 148.967358 
L 178.726989 149.221557 
L 178.980625 149.822095 
L 179.234261 148.406232 
L 179.487898 148.806973 
L 179.741534 148.539764 
L 179.99517 149.07262 
L 180.502443 148.61838 
L 181.009716 149.440954 
L 181.263352 149.36957 
L 181.516989 150.013568 
L 181.770625 149.776241 
L 182.024261 150.325511 
L 182.277898 149.880589 
L 182.531534 151.162299 
L 182.78517 149.985682 
L 183.038807 151.13516 
L 183.292443 149.965057 
L 183.799716 149.636812 
L 184.053352 150.277934 
L 184.306989 150.130294 
L 184.560625 149.369379 
L 184.814261 148.998461 
L 185.321534 149.411097 
L 185.57517 150.464825 
L 185.828807 150.199464 
L 186.082443 150.562235 
L 186.33608 150.590935 
L 186.589716 151.04972 
L 186.843352 151.841912 
L 187.350625 151.175547 
L 187.604261 152.473986 
L 187.857898 151.552817 
L 188.111534 151.225341 
L 188.36517 151.595681 
L 188.618807 152.660834 
L 188.872443 151.773162 
L 189.12608 152.094372 
L 189.379716 152.17824 
L 189.633352 151.68895 
L 190.394261 152.286212 
L 190.647898 152.200918 
L 190.901534 152.280159 
L 191.15517 151.754625 
L 191.408807 152.272882 
L 191.91608 151.842046 
L 192.169716 152.141914 
L 192.423352 152.770268 
L 192.676989 152.207484 
L 192.930625 152.377094 
L 193.184261 152.188492 
L 193.437898 152.676249 
L 193.691534 151.731846 
L 194.198807 151.345152 
L 194.452443 152.186997 
L 194.70608 152.122104 
L 194.959716 151.359375 
L 195.213352 151.397048 
L 195.466989 151.085501 
L 195.974261 152.610465 
L 196.481534 151.755312 
L 196.73517 151.745505 
L 197.242443 151.233799 
L 198.256989 151.931251 
L 198.510625 150.713665 
L 198.764261 151.562487 
L 199.271534 150.850461 
L 199.52517 150.617443 
L 199.778807 151.580261 
L 200.032443 151.282821 
L 200.28608 151.651857 
L 200.539716 151.11709 
L 200.793352 151.018062 
L 201.046989 149.816142 
L 201.554261 151.54643 
L 201.807898 151.134366 
L 202.061534 150.083957 
L 202.31517 149.856048 
L 202.568807 150.084806 
L 203.07608 150.905625 
L 203.583352 150.592418 
L 203.836989 150.540132 
L 204.090625 150.835766 
L 204.344261 149.605204 
L 204.597898 150.155542 
L 204.851534 148.359728 
L 205.358807 149.470042 
L 205.612443 148.774616 
L 205.86608 149.156396 
L 206.119716 149.200486 
L 206.373352 148.372847 
L 206.626989 148.781279 
L 206.880625 148.915586 
L 207.134261 148.736299 
L 207.387898 148.278376 
L 207.641534 150.048145 
L 207.89517 149.794805 
L 208.402443 147.006615 
L 208.65608 149.701961 
L 208.909716 148.584931 
L 209.163352 150.113674 
L 209.416989 149.148353 
L 209.670625 149.050289 
L 209.924261 149.482133 
L 210.177898 149.221502 
L 210.68517 149.716106 
L 211.192443 149.448828 
L 211.44608 148.575808 
L 211.953352 149.033621 
L 212.206989 149.043221 
L 212.460625 148.766445 
L 212.714261 150.10204 
L 212.967898 149.976308 
L 213.221534 149.01284 
L 213.728807 150.415562 
L 213.982443 150.191345 
L 214.23608 149.765998 
L 214.743352 151.094122 
L 214.996989 150.749297 
L 215.250625 150.748543 
L 215.504261 150.552951 
L 215.757898 150.811243 
L 216.011534 150.267491 
L 216.26517 150.78941 
L 216.518807 151.586957 
L 216.772443 150.325004 
L 217.02608 151.032796 
L 217.279716 150.88367 
L 217.533352 150.884052 
L 217.786989 151.261011 
L 218.040625 150.707683 
L 218.294261 150.648162 
L 218.547898 149.982535 
L 218.801534 150.220711 
L 219.05517 150.660541 
L 219.308807 150.245039 
L 219.562443 151.090624 
L 219.81608 151.255264 
L 220.069716 150.92556 
L 220.323352 151.095426 
L 220.576989 151.622911 
L 220.830625 151.330097 
L 221.084261 151.27642 
L 221.337898 151.926709 
L 221.591534 151.644614 
L 221.84517 151.748004 
L 222.098807 151.589741 
L 222.352443 151.096936 
L 222.60608 151.232504 
L 222.859716 152.274212 
L 223.113352 151.431557 
L 223.366989 152.15493 
L 223.620625 150.750337 
L 223.874261 151.642762 
L 224.127898 152.003527 
L 224.381534 151.370928 
L 224.63517 151.81159 
L 225.39608 152.347011 
L 225.649716 152.287551 
L 225.903352 152.792889 
L 226.156989 152.330353 
L 226.410625 152.840892 
L 226.664261 152.952117 
L 226.917898 152.415944 
L 227.171534 152.560223 
L 227.42517 151.791173 
L 227.678807 151.744005 
L 227.932443 151.92552 
L 228.18608 151.236089 
L 228.439716 151.001596 
L 228.693352 152.275131 
L 228.946989 151.230055 
L 229.707898 152.57704 
L 230.21517 151.791563 
L 230.468807 152.511252 
L 230.722443 151.929362 
L 230.97608 152.536765 
L 231.229716 151.959364 
L 231.483352 152.067056 
L 231.736989 152.043511 
L 232.244261 152.304802 
L 232.497898 151.700389 
L 233.00517 151.287794 
L 233.512443 152.210526 
L 233.76608 152.047336 
L 234.019716 152.215515 
L 234.273352 151.418016 
L 234.526989 151.783619 
L 235.034261 151.755368 
L 235.287898 152.372138 
L 235.79517 152.398249 
L 236.302443 152.143606 
L 236.55608 152.661245 
L 236.809716 152.418168 
L 237.063352 151.076607 
L 237.316989 152.230132 
L 237.570625 152.254543 
L 237.824261 152.085501 
L 238.077898 152.097016 
L 238.58517 151.575627 
L 239.092443 151.848856 
L 239.34608 151.953318 
L 239.599716 152.623378 
L 240.106989 151.842257 
L 240.360625 152.267785 
L 240.867898 152.143958 
L 241.121534 150.987889 
L 241.628807 151.975647 
L 241.882443 151.998391 
L 242.13608 151.335571 
L 242.389716 151.682935 
L 242.643352 152.632733 
L 242.896989 152.19404 
L 243.657898 151.946123 
L 243.911534 152.200519 
L 244.16517 152.193347 
L 244.418807 151.984494 
L 244.92608 152.365496 
L 245.179716 152.266247 
L 245.433352 151.934436 
L 245.686989 152.40168 
L 245.940625 152.065543 
L 246.194261 151.446763 
L 246.447898 151.828722 
L 246.701534 151.947018 
L 246.95517 152.448695 
L 247.462443 151.506004 
L 247.71608 151.857779 
L 247.969716 151.871857 
L 248.223352 151.079205 
L 248.476989 151.507201 
L 248.730625 151.45044 
L 248.984261 151.647678 
L 249.237898 151.448021 
L 249.491534 151.495779 
L 249.74517 150.817983 
L 249.998807 151.706664 
L 250.252443 151.308106 
L 250.50608 151.276547 
L 250.759716 151.5955 
L 251.013352 151.62933 
L 251.266989 151.070949 
L 251.520625 151.645706 
L 251.774261 151.69572 
L 252.281534 151.149644 
L 252.53517 151.458323 
L 252.788807 151.46821 
L 253.042443 152.024571 
L 253.29608 152.047261 
L 253.549716 151.13832 
L 253.803352 151.604247 
L 254.056989 151.562435 
L 254.310625 151.300639 
L 254.564261 151.701181 
L 254.817898 151.454309 
L 255.071534 151.537243 
L 255.32517 151.037532 
L 255.578807 151.344607 
L 255.832443 151.194195 
L 256.08608 151.298938 
L 256.593352 151.177206 
L 256.846989 151.24606 
L 257.354261 151.801094 
L 257.607898 151.715007 
L 257.861534 151.495821 
L 258.11517 151.575049 
L 258.368807 152.208455 
L 258.622443 151.707065 
L 258.87608 151.726826 
L 259.129716 151.988182 
L 259.383352 152.692704 
L 259.636989 152.089559 
L 260.144261 152.427433 
L 260.397898 152.218327 
L 260.651534 152.372906 
L 260.90517 152.029724 
L 261.158807 152.286971 
L 261.412443 151.970467 
L 261.66608 152.555662 
L 261.919716 152.245332 
L 262.426989 152.541199 
L 262.680625 151.979995 
L 262.934261 152.520662 
L 263.187898 152.584042 
L 263.441534 152.14573 
L 263.69517 152.190755 
L 263.948807 151.690852 
L 264.202443 152.114592 
L 264.45608 152.29273 
L 264.963352 152.107116 
L 265.216989 152.648587 
L 265.470625 152.284687 
L 265.977898 152.570828 
L 266.231534 151.94545 
L 266.48517 152.373726 
L 266.992443 152.544228 
L 267.24608 152.822214 
L 267.753352 152.090089 
L 268.006989 152.535167 
L 268.514261 152.221624 
L 268.767898 152.436898 
L 269.021534 152.35947 
L 269.528807 152.520215 
L 269.782443 153.016444 
L 270.03608 151.731253 
L 270.289716 152.950878 
L 270.543352 152.456644 
L 271.050625 152.995511 
L 271.304261 152.141711 
L 271.557898 152.638712 
L 271.811534 152.800987 
L 272.318807 152.785811 
L 272.572443 152.008473 
L 272.82608 152.737062 
L 273.079716 152.400565 
L 273.333352 152.305675 
L 273.586989 151.975513 
L 273.840625 152.573437 
L 274.094261 151.750127 
L 274.347898 152.303332 
L 274.601534 148.524838 
L 274.85517 151.957175 
L 275.108807 151.768497 
L 275.362443 151.228879 
L 275.61608 149.876511 
L 275.869716 150.908245 
L 276.123352 150.634714 
L 276.376989 150.781189 
L 276.630625 151.133643 
L 276.884261 150.985306 
L 277.137898 151.421726 
L 277.391534 151.07346 
L 277.898807 151.445347 
L 278.152443 151.544725 
L 278.40608 151.284326 
L 278.659716 151.233488 
L 279.166989 152.068305 
L 279.420625 151.888559 
L 279.674261 152.299186 
L 279.927898 152.396925 
L 280.181534 152.804566 
L 280.43517 151.928435 
L 280.942443 151.75361 
L 281.19608 152.006023 
L 281.449716 152.058703 
L 281.703352 151.994579 
L 281.956989 151.590229 
L 282.464261 151.647107 
L 282.717898 151.896192 
L 282.971534 151.728772 
L 283.478807 151.971596 
L 283.732443 151.477873 
L 284.239716 152.194692 
L 285.000625 152.161486 
L 285.254261 151.747277 
L 285.507898 151.809392 
L 285.761534 152.215417 
L 286.01517 152.396104 
L 286.268807 152.099389 
L 286.522443 152.378092 
L 287.283352 152.240698 
L 287.536989 151.902568 
L 287.790625 152.467766 
L 288.044261 152.124655 
L 288.297898 152.70934 
L 288.551534 152.230334 
L 288.80517 152.155856 
L 289.058807 152.355853 
L 289.312443 152.094614 
L 289.56608 152.597834 
L 289.819716 152.284626 
L 290.073352 151.680398 
L 290.326989 152.298811 
L 290.580625 152.390976 
L 290.834261 152.345511 
L 291.087898 151.894844 
L 291.341534 151.847075 
L 291.59517 152.100982 
L 291.848807 151.939378 
L 292.102443 152.30459 
L 292.609716 152.323955 
L 292.863352 151.872378 
L 293.116989 152.179649 
L 293.370625 152.235323 
L 293.624261 151.742924 
L 293.877898 151.994381 
L 294.131534 151.714282 
L 294.38517 152.59086 
L 294.638807 152.371201 
L 294.892443 152.410087 
L 295.14608 151.979833 
L 295.399716 152.13412 
L 295.906989 151.953103 
L 296.160625 152.663517 
L 296.414261 152.850887 
L 296.667898 152.335265 
L 296.921534 152.093904 
L 297.17517 152.09731 
L 297.428807 151.861739 
L 297.682443 152.22775 
L 297.93608 152.143963 
L 298.189716 151.920261 
L 298.443352 152.292448 
L 298.950625 151.608838 
L 299.204261 151.884717 
L 299.457898 151.948034 
L 299.96517 151.885639 
L 300.218807 151.98697 
L 300.472443 151.792668 
L 300.72608 151.911078 
L 300.979716 151.859503 
L 301.486989 151.98688 
L 301.740625 152.018334 
L 301.994261 152.415296 
L 302.501534 151.914235 
L 302.75517 151.89707 
L 303.262443 152.22128 
L 304.276989 151.399755 
L 304.530625 152.082493 
L 304.784261 151.858426 
L 305.037898 151.14337 
L 305.291534 151.339535 
L 305.54517 151.059344 
L 305.798807 151.37599 
L 306.559716 151.377481 
L 306.813352 151.680836 
L 307.320625 151.543694 
L 307.574261 150.926786 
L 308.081534 151.767019 
L 308.33517 151.616761 
L 308.588807 151.706296 
L 308.842443 151.076738 
L 309.09608 151.587845 
L 309.349716 151.442994 
L 309.603352 151.430316 
L 309.856989 151.547727 
L 310.110625 151.213943 
L 310.364261 151.582079 
L 310.617898 151.353998 
L 311.12517 151.507801 
L 311.632443 151.177908 
L 311.88608 151.384978 
L 312.646989 151.092115 
L 312.900625 151.176657 
L 313.154261 151.640328 
L 313.661534 151.604892 
L 313.91517 151.570655 
L 314.168807 151.945732 
L 314.67608 151.938915 
L 314.929716 151.661181 
L 315.183352 151.550083 
L 315.436989 151.205932 
L 315.944261 151.191742 
L 316.197898 151.686735 
L 316.451534 151.613083 
L 316.70517 151.852518 
L 316.958807 151.679496 
L 317.46608 152.207215 
L 318.987898 151.367225 
L 319.241534 151.667476 
L 319.748807 151.296849 
L 320.002443 151.849446 
L 320.25608 151.805784 
L 320.509716 151.328364 
L 320.763352 151.674293 
L 321.016989 151.743831 
L 321.270625 152.042436 
L 321.524261 151.830819 
L 321.777898 151.370385 
L 322.28517 151.709383 
L 322.538807 151.443255 
L 322.792443 151.744608 
L 323.04608 151.368646 
L 323.299716 151.488061 
L 323.553352 151.828688 
L 323.806989 151.146687 
L 324.060625 151.689779 
L 324.314261 151.498835 
L 324.821534 151.770987 
L 325.07517 151.543286 
L 325.328807 150.945401 
L 325.582443 151.778396 
L 325.83608 151.49887 
L 326.343352 151.858059 
L 326.850625 151.134675 
L 327.104261 151.486843 
L 327.357898 151.396916 
L 327.611534 151.719428 
L 327.86517 151.424326 
L 328.118807 151.788686 
L 328.372443 151.564222 
L 328.62608 151.705691 
L 328.879716 151.996654 
L 329.133352 151.92431 
L 329.386989 151.704387 
L 329.640625 152.328413 
L 330.147898 152.27705 
L 330.401534 151.88783 
L 331.162443 151.92844 
L 331.41608 152.307681 
L 331.923352 152.183362 
L 332.430625 152.189478 
L 332.684261 152.038944 
L 332.937898 152.635119 
L 333.191534 152.101613 
L 333.44517 151.938368 
L 333.698807 152.079164 
L 333.952443 151.71079 
L 334.20608 151.797494 
L 334.459716 151.646745 
L 334.713352 152.143108 
L 334.966989 151.99021 
L 335.220625 152.18414 
L 335.474261 152.22808 
L 335.981534 151.906362 
L 336.23517 151.692709 
L 336.488807 151.910702 
L 336.742443 151.764202 
L 337.249716 151.699157 
L 337.503352 152.14054 
L 337.756989 151.37151 
L 338.264261 151.766142 
L 338.771534 151.713636 
L 339.02517 151.875768 
L 339.278807 151.39868 
L 339.532443 151.225943 
L 339.78608 151.535501 
L 340.039716 151.645419 
L 340.293352 151.240036 
L 340.800625 151.689344 
L 342.068807 151.53041 
L 342.322443 151.307105 
L 342.57608 151.856963 
L 343.083352 151.503902 
L 343.336989 151.979471 
L 343.590625 151.697348 
L 343.844261 151.934772 
L 344.097898 151.508816 
L 344.351534 152.151504 
L 344.60517 151.747737 
L 344.858807 151.834478 
L 345.112443 152.265236 
L 345.36608 151.941584 
L 345.619716 151.934039 
L 345.873352 151.171931 
L 346.126989 151.802155 
L 346.380625 152.066033 
L 346.887898 151.545989 
L 347.39517 151.575974 
L 347.648807 151.873294 
L 347.902443 151.918905 
L 348.15608 151.736145 
L 348.409716 151.989589 
L 348.663352 151.574647 
L 348.916989 151.879342 
L 349.677898 151.910117 
L 349.931534 151.70139 
L 350.18517 151.937435 
L 350.438807 152.009852 
L 350.692443 151.533277 
L 351.199716 152.084454 
L 351.453352 151.590728 
L 351.960625 152.446118 
L 352.467898 151.724952 
L 352.97517 152.141755 
L 353.228807 151.898353 
L 353.482443 152.1334 
L 353.73608 152.032246 
L 353.989716 152.398274 
L 354.243352 151.485606 
L 354.496989 151.919006 
L 354.750625 151.88307 
L 355.004261 151.55212 
L 355.257898 151.715725 
L 355.511534 152.216185 
L 356.018807 151.526062 
L 356.272443 151.839099 
L 356.52608 152.344255 
L 356.779716 152.354418 
L 357.033352 151.937689 
L 357.286989 151.854042 
L 357.794261 152.403465 
L 358.047898 151.928993 
L 358.808807 152.361175 
L 359.31608 152.27399 
L 359.569716 152.385159 
L 359.823352 151.892379 
L 360.584261 152.244459 
L 360.837898 151.72125 
L 361.091534 152.643585 
L 361.34517 152.199328 
L 361.598807 152.058942 
L 361.852443 152.411634 
L 362.359716 151.943532 
L 362.613352 151.985253 
L 363.120625 151.866921 
L 363.374261 151.978894 
L 363.627898 152.516977 
L 363.881534 152.155609 
L 364.13517 152.389905 
L 364.388807 152.072178 
L 364.642443 152.703306 
L 364.89608 152.95425 
L 365.149716 152.619859 
L 365.656989 152.332556 
L 366.164261 152.769971 
L 366.671534 152.24283 
L 367.178807 152.833334 
L 367.432443 152.80824 
L 367.68608 152.291823 
L 367.939716 152.833655 
L 368.446989 152.210842 
L 368.954261 152.278928 
L 369.461534 152.356118 
L 369.71517 152.226534 
L 369.968807 152.465522 
L 370.222443 152.474592 
L 370.47608 152.221023 
L 370.729716 152.302501 
L 370.983352 152.05563 
L 371.490625 152.459694 
L 371.744261 152.101627 
L 371.997898 152.179048 
L 372.251534 152.103387 
L 372.50517 152.219353 
L 372.758807 152.510258 
L 373.012443 152.273396 
L 373.26608 152.398583 
L 373.773352 152.125431 
L 374.026989 152.171389 
L 374.280625 151.970359 
L 374.534261 152.253858 
L 374.787898 152.200606 
L 375.041534 152.397954 
L 375.29517 152.317683 
L 375.548807 152.115818 
L 376.05608 152.208094 
L 376.309716 151.816096 
L 376.563352 152.263418 
L 376.816989 152.06862 
L 377.070625 152.056638 
L 377.324261 152.361283 
L 377.577898 152.3193 
L 377.831534 151.907125 
L 378.08517 152.04794 
L 378.338807 152.353644 
L 378.592443 152.087623 
L 378.84608 152.359963 
L 379.099716 152.294126 
L 379.353352 152.614881 
L 379.606989 152.20847 
L 379.860625 152.351788 
L 380.114261 152.690721 
L 380.87517 151.781281 
L 381.382443 152.27773 
L 381.889716 151.806116 
L 382.143352 152.353814 
L 382.396989 151.890548 
L 382.650625 152.196915 
L 382.904261 151.925702 
L 383.411534 151.948349 
L 383.918807 152.060363 
L 384.172443 152.072341 
L 384.679716 152.921489 
L 385.186989 152.006672 
L 385.440625 152.520321 
L 385.694261 152.654111 
L 385.947898 152.500869 
L 386.201534 151.963768 
L 386.45517 151.764147 
L 386.708807 152.336932 
L 386.962443 151.989874 
L 387.469716 152.021301 
L 387.723352 152.29921 
L 387.976989 152.317879 
L 388.230625 152.627305 
L 388.737898 152.462779 
L 388.991534 152.18155 
L 389.24517 152.654229 
L 389.498807 152.367052 
L 389.752443 152.439632 
L 390.259716 152.247902 
L 390.513352 152.307977 
L 390.766989 152.507178 
L 391.020625 152.42275 
L 391.527898 152.686774 
L 391.781534 152.495383 
L 392.03517 152.551822 
L 392.288807 152.895301 
L 392.542443 152.279384 
L 392.79608 152.848113 
L 393.049716 152.753765 
L 393.303352 152.488698 
L 393.556989 152.949287 
L 393.810625 152.571899 
L 394.064261 152.693882 
L 394.317898 152.64935 
L 394.571534 152.353643 
L 394.82517 152.669361 
L 395.078807 152.368571 
L 395.332443 152.538901 
L 395.58608 152.843801 
L 395.839716 152.570692 
L 396.346989 152.54439 
L 396.600625 152.787501 
L 397.361534 152.488456 
L 398.122443 153.162053 
L 398.37608 152.986459 
L 398.629716 152.455687 
L 398.883352 153.06156 
L 399.136989 152.777063 
L 399.390625 152.756131 
L 399.644261 153.00796 
L 400.151534 152.882425 
L 400.40517 152.355673 
L 400.658807 152.493841 
L 401.16608 153.210481 
L 401.673352 153.058307 
L 402.180625 152.955914 
L 402.434261 152.74624 
L 402.941534 153.027155 
L 403.19517 152.504372 
L 403.448807 152.859766 
L 404.209716 153.041754 
L 404.463352 152.541584 
L 404.716989 152.417945 
L 404.970625 152.832131 
L 405.224261 152.925445 
L 405.477898 152.586765 
L 405.98517 153.048029 
L 406.492443 152.626115 
L 406.999716 152.936892 
L 407.253352 152.683649 
L 407.506989 152.911091 
L 407.760625 152.363894 
L 408.014261 153.042916 
L 408.267898 152.990963 
L 408.521534 152.506209 
L 408.77517 152.774364 
L 409.028807 152.52135 
L 409.53608 152.919921 
L 409.789716 152.54567 
L 410.043352 152.87646 
L 410.296989 152.736383 
L 410.550625 153.032834 
L 410.804261 153.108853 
L 411.057898 152.820255 
L 411.56517 152.876966 
L 411.818807 153.321299 
L 412.072443 152.960797 
L 412.32608 152.98893 
L 412.579716 153.202848 
L 413.847898 152.827884 
L 414.101534 153.304688 
L 414.35517 153.046339 
L 414.608807 153.28803 
L 414.862443 153.168489 
L 415.11608 152.752113 
L 415.369716 153.269234 
L 415.623352 153.139193 
L 415.876989 152.812752 
L 416.637898 152.878505 
L 416.891534 153.041601 
L 417.14517 153.015541 
L 417.398807 153.262489 
L 417.90608 152.676142 
L 418.159716 153.009325 
L 418.413352 152.575587 
L 418.920625 152.872476 
L 419.174261 152.953163 
L 419.681534 152.705524 
L 419.93517 152.7006 
L 420.188807 153.317643 
L 420.442443 153.208254 
L 420.69608 152.574833 
L 420.949716 153.190572 
L 421.456989 153.272659 
L 422.217898 153.167297 
L 422.471534 153.395762 
L 422.72517 152.937887 
L 422.978807 153.385975 
L 423.739716 153.064183 
L 425.007898 153.346452 
L 425.261534 152.849626 
L 425.51517 153.348604 
L 425.768807 153.083616 
L 426.022443 153.063849 
L 426.783352 153.460508 
L 427.036989 153.094293 
L 427.290625 153.305938 
L 427.544261 153.136372 
L 428.051534 153.354174 
L 428.30517 153.002398 
L 428.558807 152.853821 
L 428.812443 153.119664 
L 429.319716 152.353978 
L 429.573352 152.973688 
L 429.826989 152.615818 
L 430.080625 152.885859 
L 430.587898 153.080894 
L 430.841534 152.475642 
L 431.348807 153.111158 
L 431.602443 152.834946 
L 432.109716 153.084885 
L 432.616989 153.287478 
L 432.870625 152.899149 
L 433.377898 152.909204 
L 433.631534 152.915387 
L 433.88517 153.399765 
L 434.138807 153.2647 
L 434.392443 152.885833 
L 434.64608 153.286273 
L 434.899716 152.630615 
L 435.153352 153.617197 
L 435.406989 153.268812 
L 435.660625 153.215023 
L 435.914261 153.590197 
L 436.167898 153.722517 
L 436.421534 152.92342 
L 436.67517 153.482382 
L 436.928807 152.757448 
L 437.182443 152.935928 
L 437.43608 153.25308 
L 438.196989 153.696591 
L 438.704261 154.158429 
L 438.957898 153.541019 
L 439.211534 153.952786 
L 439.718807 153.701989 
L 439.972443 153.335836 
L 440.22608 153.582743 
L 440.733352 153.377643 
L 441.240625 153.699386 
L 442.25517 153.434308 
L 442.508807 153.758098 
L 442.762443 153.542321 
L 443.523352 153.698703 
L 444.284261 153.253953 
L 444.537898 153.498585 
L 445.04517 153.51771 
L 445.298807 153.175226 
L 445.552443 153.628483 
L 446.313352 153.407202 
L 447.074261 153.88538 
L 447.327898 154.079353 
L 447.581534 153.52271 
L 447.83517 154.142258 
L 448.088807 153.775613 
L 448.59608 153.691069 
L 448.849716 153.250884 
L 449.103352 153.65295 
L 449.356989 153.240823 
L 449.610625 153.363758 
L 449.864261 153.665132 
L 450.371534 153.547324 
L 450.62517 153.727648 
L 450.878807 153.437601 
L 451.132443 153.591748 
L 451.38608 153.20177 
L 451.639716 153.62279 
L 451.893352 153.613591 
L 452.146989 153.297419 
L 452.400625 153.498631 
L 452.654261 153.269644 
L 452.907898 153.50599 
L 453.161534 153.039009 
L 453.41517 153.420922 
L 453.668807 153.227858 
L 453.922443 153.610846 
L 454.17608 153.223473 
L 454.429716 153.61341 
L 454.683352 153.395769 
L 454.936989 153.530347 
L 455.951534 153.527112 
L 456.458807 153.154881 
L 457.219716 152.945378 
L 457.473352 153.069234 
L 457.726989 152.895172 
L 457.980625 152.954893 
L 458.487898 153.231055 
L 458.741534 152.952159 
L 459.248807 152.711547 
L 459.75608 153.406709 
L 460.009716 153.080918 
L 460.263352 153.18338 
L 460.770625 153.677974 
L 461.277898 152.99729 
L 461.531534 153.279174 
L 461.78517 153.329818 
L 462.038807 153.070421 
L 462.292443 153.08816 
L 462.799716 153.589711 
L 463.053352 153.321398 
L 463.306989 153.503544 
L 463.560625 153.224771 
L 463.814261 153.148529 
L 464.067898 152.935954 
L 464.57517 152.90536 
L 464.828807 152.898195 
L 465.082443 153.30974 
L 465.843352 152.883784 
L 466.096989 153.524074 
L 466.350625 152.95302 
L 466.604261 153.130791 
L 466.857898 153.132953 
L 467.111534 152.785131 
L 467.36517 153.14254 
L 467.618807 152.821081 
L 467.872443 153.039831 
L 468.12608 152.69415 
L 468.379716 152.627309 
L 468.633352 153.250003 
L 468.886989 152.936387 
L 469.140625 152.939571 
L 469.394261 153.188603 
L 469.647898 152.91533 
L 469.901534 153.216382 
L 470.15517 152.989003 
L 470.662443 153.063867 
L 471.169716 153.033201 
L 471.676989 152.855591 
L 471.930625 153.06581 
L 472.437898 152.609432 
L 472.691534 152.722255 
L 472.94517 152.712911 
L 473.198807 152.263852 
L 473.452443 152.351952 
L 473.70608 152.726475 
L 474.213352 152.559372 
L 474.466989 152.80446 
L 474.720625 152.748245 
L 474.974261 152.450868 
L 475.227898 153.044907 
L 475.481534 152.88045 
L 475.73517 152.563451 
L 475.988807 152.538204 
L 476.242443 152.761004 
L 476.749716 152.56896 
L 477.003352 152.841062 
L 477.256989 152.781233 
L 477.764261 152.9799 
L 478.017898 152.620084 
L 478.52517 153.010949 
L 478.778807 152.620599 
L 479.032443 152.759768 
L 479.28608 152.341864 
L 479.539716 152.189816 
L 479.793352 152.232322 
L 480.046989 152.081882 
L 481.061534 152.850663 
L 481.31517 152.606638 
L 481.568807 153.012085 
L 482.07608 152.88128 
L 482.329716 152.959163 
L 482.583352 152.871557 
L 482.836989 152.470064 
L 483.090625 152.464329 
L 483.344261 152.338737 
L 483.851534 152.479379 
L 484.10517 152.213927 
L 484.358807 152.544605 
L 484.612443 152.586562 
L 484.86608 153.004439 
L 485.119716 152.78288 
L 485.373352 153.020857 
L 486.134261 152.70677 
L 486.387898 152.984976 
L 486.641534 152.76254 
L 486.89517 152.826365 
L 487.148807 152.65628 
L 487.65608 152.991104 
L 487.909716 152.631896 
L 488.163352 152.596405 
L 488.416989 152.930498 
L 488.670625 152.517437 
L 488.924261 152.876324 
L 489.177898 152.550556 
L 489.431534 152.638999 
L 489.68517 152.420192 
L 489.938807 152.832896 
L 490.192443 152.470918 
L 490.699716 152.852128 
L 491.206989 152.872129 
L 491.460625 152.538653 
L 491.714261 152.555474 
L 491.967898 152.251174 
L 492.221534 152.721179 
L 492.47517 152.507361 
L 492.982443 152.906622 
L 493.23608 152.66763 
L 493.489716 152.841139 
L 493.743352 152.36401 
L 493.996989 152.966757 
L 494.250625 152.657263 
L 494.504261 152.605128 
L 494.757898 152.158719 
L 495.518807 152.338716 
L 495.772443 152.60879 
L 496.02608 152.278133 
L 496.279716 152.293181 
L 496.533352 152.449185 
L 496.786989 152.372741 
L 497.040625 152.759631 
L 497.294261 152.645883 
L 497.547898 152.224476 
L 498.308807 152.548796 
L 498.81608 151.982525 
L 499.576989 152.47898 
L 499.830625 152.494222 
L 500.084261 152.725815 
L 500.337898 152.493639 
L 500.591534 152.061848 
L 500.84517 152.254294 
L 501.098807 152.296119 
L 501.352443 152.7446 
L 501.60608 152.275565 
L 501.859716 152.610069 
L 502.113352 152.205358 
L 502.620625 152.69851 
L 502.874261 152.198785 
L 503.127898 152.587381 
L 503.381534 152.149128 
L 503.888807 152.576665 
L 504.649716 152.436056 
L 504.903352 152.88295 
L 505.156989 152.221981 
L 505.410625 152.510987 
L 505.664261 152.402454 
L 505.917898 152.628892 
L 506.171534 152.14363 
L 506.678807 152.529065 
L 506.932443 152.720471 
L 507.18608 152.296181 
L 507.439716 152.8266 
L 507.946989 152.419394 
L 508.454261 152.76012 
L 508.707898 152.571466 
L 509.468807 152.618647 
L 509.722443 152.208865 
L 509.97608 152.447137 
L 510.229716 152.298292 
L 510.483352 152.981215 
L 510.736989 152.967968 
L 511.244261 152.377224 
L 511.751534 153.027993 
L 512.512443 152.76738 
L 512.76608 152.921496 
L 513.019716 152.738698 
L 513.273352 153.036872 
L 513.526989 153.108161 
L 513.780625 153.060822 
L 514.034261 152.601152 
L 514.79517 152.747112 
L 515.048807 152.716531 
L 515.302443 153.012263 
L 515.55608 152.629935 
L 516.316989 152.667877 
L 516.570625 153.147832 
L 516.824261 152.735324 
L 517.331534 152.967806 
L 517.58517 152.357874 
L 517.838807 152.647736 
L 518.599716 152.462185 
L 518.853352 152.903257 
L 519.106989 152.747007 
L 519.614261 153.245768 
L 520.121534 152.73189 
L 520.37517 152.930247 
L 520.628807 152.923364 
L 520.882443 152.433713 
L 521.13608 152.999371 
L 521.896989 152.56963 
L 522.150625 152.731361 
L 522.404261 152.510596 
L 522.657898 152.818962 
L 523.16517 152.617299 
L 523.418807 152.735365 
L 523.672443 153.219281 
L 524.179716 152.750068 
L 524.433352 152.958135 
L 524.686989 152.547586 
L 524.940625 152.98493 
L 525.447898 152.704469 
L 525.701534 152.928179 
L 525.95517 152.775105 
L 526.208807 153.097064 
L 526.462443 152.923451 
L 526.71608 153.025617 
L 526.969716 152.488737 
L 527.223352 152.887747 
L 527.984261 152.819609 
L 528.237898 153.15109 
L 528.491534 153.071453 
L 528.74517 153.128667 
L 528.998807 152.526117 
L 529.252443 152.965208 
L 529.50608 153.056647 
L 530.013352 152.859511 
L 530.266989 153.169108 
L 530.520625 152.854596 
L 530.774261 152.965462 
L 531.027898 153.246933 
L 531.788807 152.597443 
L 532.042443 153.072106 
L 532.29608 153.058405 
L 532.549716 153.428869 
L 532.803352 153.057914 
L 533.564261 153.264184 
L 533.817898 152.586297 
L 534.071534 153.072086 
L 534.32517 152.978036 
L 534.578807 153.071754 
L 534.832443 152.986843 
L 535.08608 152.765696 
L 535.339716 153.142829 
L 535.593352 153.101927 
L 535.846989 152.894442 
L 536.100625 152.991273 
L 536.354261 152.966906 
L 536.861534 153.370116 
L 537.11517 153.183243 
L 537.622443 153.074233 
L 537.87608 152.798613 
L 538.129716 152.6991 
L 538.383352 153.01464 
L 538.890625 152.977459 
L 539.144261 153.160749 
L 539.397898 152.71692 
L 539.651534 153.471434 
L 539.90517 153.133989 
L 540.158807 153.045937 
L 540.412443 153.261052 
L 540.66608 152.587301 
L 540.919716 152.887318 
L 541.173352 152.668606 
L 541.426989 152.753308 
L 541.680625 152.994019 
L 541.934261 152.666203 
L 542.187898 152.927863 
L 542.441534 152.971235 
L 542.69517 153.213757 
L 542.948807 153.022203 
L 543.202443 153.107955 
L 543.45608 152.91052 
L 543.963352 153.235324 
L 544.216989 152.815237 
L 544.470625 153.268668 
L 544.724261 153.062522 
L 544.977898 153.271535 
L 545.231534 153.21294 
L 545.48517 153.293363 
L 545.738807 152.817912 
L 546.24608 153.308658 
L 546.499716 153.210248 
L 546.753352 153.531624 
L 547.006989 153.226282 
L 547.260625 153.300823 
L 547.514261 153.085907 
L 548.021534 153.129707 
L 548.27517 152.765519 
L 548.528807 153.124876 
L 548.782443 153.157065 
L 549.289716 152.807071 
L 549.796989 153.229667 
L 550.050625 153.646384 
L 550.557898 152.874685 
L 550.811534 153.225706 
L 551.06517 152.98024 
L 552.333352 153.004757 
L 552.586989 153.073459 
L 552.840625 153.008083 
L 553.094261 153.143841 
L 553.347898 153.123692 
L 553.601534 152.839986 
L 553.85517 152.810881 
L 554.108807 153.16607 
L 554.362443 152.675434 
L 555.123352 153.226441 
L 555.376989 153.035337 
L 555.630625 153.110795 
L 555.884261 153.37487 
L 556.137898 153.156258 
L 556.391534 153.473089 
L 556.64517 153.188348 
L 557.152443 152.928871 
L 557.40608 153.181566 
L 558.420625 153.003089 
L 558.674261 153.35545 
L 558.927898 153.063389 
L 559.181534 153.158357 
L 559.688807 152.632183 
L 559.942443 152.902688 
L 560.19608 152.829938 
L 560.449716 153.005102 
L 560.956989 152.965166 
L 561.464261 153.532232 
L 561.717898 152.966592 
L 562.22517 153.205076 
L 562.478807 153.335464 
L 562.732443 153.167209 
L 562.98608 153.571985 
L 563.239716 152.964393 
L 563.493352 153.269327 
L 563.746989 152.905449 
L 564.254261 153.090388 
L 564.507898 152.950711 
L 565.01517 153.303369 
L 565.268807 152.973792 
L 565.522443 153.268031 
L 565.77608 152.813376 
L 566.029716 153.108713 
L 566.283352 152.710011 
L 566.790625 153.340705 
L 567.044261 152.905419 
L 567.297898 153.0613 
L 567.80517 152.841023 
L 568.058807 152.898118 
L 568.56608 153.246035 
L 568.819716 152.769839 
L 569.073352 152.695096 
L 569.326989 152.764963 
L 569.580625 152.39008 
L 569.834261 152.987267 
L 570.59517 153.104748 
L 570.848807 152.770321 
L 571.102443 153.249002 
L 571.609716 152.665685 
L 571.863352 152.917079 
L 572.116989 152.964787 
L 572.370625 152.87184 
L 572.624261 153.12327 
L 572.877898 152.799086 
L 573.131534 153.154417 
L 573.38517 152.843733 
L 573.892443 152.592664 
L 574.14608 152.696293 
L 574.653352 153.360695 
L 574.906989 152.881871 
L 575.160625 153.049248 
L 575.414261 152.936847 
L 575.667898 152.611383 
L 575.921534 152.707404 
L 576.428807 152.702568 
L 576.682443 153.256971 
L 577.189716 152.883662 
L 577.950625 153.134753 
L 578.204261 152.838401 
L 578.457898 152.90419 
L 578.711534 152.767408 
L 578.96517 152.978625 
L 580.233352 152.948825 
L 580.486989 152.963451 
L 580.740625 152.791243 
L 580.994261 152.80905 
L 581.247898 152.948838 
L 581.501534 152.598478 
L 581.75517 152.762327 
L 582.008807 152.748911 
L 582.262443 152.964557 
L 582.51608 152.942624 
L 583.023352 152.403529 
L 583.276989 152.68585 
L 583.530625 152.308433 
L 583.784261 152.439407 
L 584.291534 152.426197 
L 584.798807 152.526403 
L 585.30608 152.95898 
L 585.559716 152.746198 
L 585.813352 152.952214 
L 586.066989 152.965839 
L 586.320625 152.474259 
L 586.574261 152.810738 
L 587.33517 152.666269 
L 587.588807 152.984317 
L 587.842443 152.828385 
L 588.09608 153.059015 
L 588.349716 152.730574 
L 588.603352 152.634475 
L 588.856989 152.692454 
L 589.110625 152.902485 
L 589.364261 152.785002 
L 589.871534 152.865364 
L 590.12517 152.851496 
L 590.378807 153.053359 
L 590.632443 152.829743 
L 590.88608 152.783747 
L 591.393352 153.03791 
L 591.900625 152.851973 
L 592.407898 153.179367 
L 592.91517 152.731101 
L 593.168807 152.630979 
L 593.422443 152.829446 
L 594.183352 152.82981 
L 594.436989 152.585722 
L 594.944261 152.964308 
L 595.197898 152.344311 
L 595.70517 152.562714 
L 595.958807 152.552387 
L 596.212443 152.787314 
L 596.719716 152.770034 
L 596.973352 152.705241 
L 597.480625 152.844899 
L 597.734261 152.975682 
L 597.987898 152.618686 
L 598.241534 152.556719 
L 598.49517 152.663535 
L 598.748807 152.546227 
L 599.002443 152.659156 
L 599.25608 152.649596 
L 599.763352 152.786461 
L 600.270625 152.67186 
L 600.524261 152.24592 
L 601.031534 153.072875 
L 601.28517 152.654502 
L 601.538807 152.45676 
L 602.04608 152.771429 
L 602.299716 152.515405 
L 602.806989 153.029308 
L 603.060625 152.760187 
L 603.314261 152.324726 
L 603.567898 152.749817 
L 603.821534 152.532191 
L 604.07517 152.605702 
L 604.328807 151.981683 
L 604.582443 152.323927 
L 604.83608 152.27737 
L 605.343352 151.709474 
L 605.850625 152.467967 
L 606.104261 152.084439 
L 606.357898 152.427392 
L 606.611534 152.303051 
L 607.372443 152.666625 
L 608.133352 152.362766 
L 608.640625 152.3776 
L 608.894261 152.207164 
L 609.147898 152.42045 
L 609.401534 151.952592 
L 609.65517 152.157412 
L 609.908807 152.164012 
L 610.162443 151.858353 
L 610.41608 152.397393 
L 610.923352 151.696431 
L 611.430625 152.269031 
L 611.937898 151.784508 
L 612.952443 152.381554 
L 613.20608 151.879642 
L 613.459716 151.698334 
L 613.713352 151.765961 
L 613.966989 152.176091 
L 614.220625 152.00678 
L 614.474261 152.269765 
L 614.727898 152.029628 
L 614.981534 152.277339 
L 615.23517 151.607627 
L 615.488807 152.195708 
L 615.742443 151.791559 
L 616.249716 152.208907 
L 616.503352 152.168915 
L 617.010625 152.381984 
L 617.517898 152.352853 
L 617.771534 152.655253 
L 618.278807 151.900295 
L 618.532443 152.256793 
L 618.78608 152.221954 
L 619.039716 151.803998 
L 619.293352 151.844901 
L 619.800625 152.36294 
L 620.054261 151.649839 
L 620.307898 152.013427 
L 620.561534 152.103184 
L 620.81517 151.975901 
L 621.068807 152.057677 
L 621.322443 151.843479 
L 621.829716 152.088555 
L 622.336989 151.690819 
L 622.844261 151.804324 
L 623.097898 152.131927 
L 623.351534 152.191485 
L 623.60517 151.864934 
L 623.858807 152.038517 
L 624.112443 152.007285 
L 624.36608 152.093773 
L 624.873352 151.863468 
L 625.126989 152.42396 
L 625.126989 152.42396 
" clip-path="url(#p9f954b4aea)" style="fill: none; stroke: #1f77b4; stroke-width: 1.5; stroke-linecap: square"/>
   </g>
   <g id="line2d_14">
    <path d="M 117.854261 257.658289 
L 118.107898 262.165711 
L 118.361534 291.943205 
L 118.61517 296.03625 
L 119.122443 271.11781 
L 119.37608 227.057898 
L 119.629716 207.5709 
L 119.883352 203.182002 
L 120.136989 203.974264 
L 120.390625 211.845554 
L 120.897898 201.196422 
L 121.151534 195.910364 
L 121.40517 195.703205 
L 121.658807 192.753227 
L 121.912443 197.401453 
L 122.16608 172.184989 
L 122.419716 172.103903 
L 122.673352 169.627321 
L 122.926989 171.510379 
L 123.180625 166.488463 
L 123.434261 169.662831 
L 123.687898 167.766312 
L 123.941534 168.409239 
L 124.19517 168.391562 
L 124.448807 165.287616 
L 124.702443 166.881572 
L 124.95608 166.794035 
L 125.209716 165.094572 
L 125.463352 166.165148 
L 125.716989 165.451608 
L 125.970625 164.010929 
L 126.224261 163.25549 
L 126.477898 164.862355 
L 126.98517 163.485609 
L 127.492443 161.702402 
L 127.74608 160.420844 
L 127.999716 164.815428 
L 128.253352 163.952454 
L 128.506989 162.432016 
L 128.760625 163.099974 
L 129.014261 162.512979 
L 129.267898 162.265303 
L 129.521534 163.58709 
L 129.77517 161.410305 
L 130.028807 162.710343 
L 130.282443 161.565435 
L 130.53608 161.16584 
L 130.789716 161.539059 
L 131.043352 162.557454 
L 131.296989 161.171452 
L 131.550625 161.384449 
L 131.804261 160.92679 
L 132.057898 160.831448 
L 132.56517 161.328739 
L 132.818807 161.196216 
L 133.072443 161.194354 
L 133.32608 161.482621 
L 133.579716 161.201429 
L 133.833352 159.7919 
L 134.086989 160.884693 
L 134.340625 160.064798 
L 134.594261 160.550759 
L 135.101534 163.054654 
L 135.35517 160.376997 
L 135.608807 163.420413 
L 135.862443 160.81798 
L 136.11608 160.706714 
L 136.623352 162.97898 
L 136.876989 161.428681 
L 137.384261 160.440512 
L 137.637898 160.193846 
L 138.14517 162.631121 
L 138.652443 159.442412 
L 138.90608 161.834268 
L 139.159716 161.591212 
L 139.413352 160.94865 
L 139.666989 161.58259 
L 139.920625 161.661909 
L 140.174261 162.60633 
L 140.681534 161.360388 
L 141.188807 161.703732 
L 141.442443 160.981433 
L 141.949716 161.378065 
L 142.456989 159.80897 
L 143.217898 161.088266 
L 143.72517 161.389012 
L 143.978807 160.004467 
L 144.232443 161.423814 
L 144.48608 161.588497 
L 144.739716 160.70362 
L 144.993352 161.311015 
L 145.246989 162.288528 
L 145.500625 161.574032 
L 145.754261 162.933584 
L 146.007898 162.761098 
L 146.261534 161.823109 
L 146.51517 163.255695 
L 146.768807 162.48772 
L 147.022443 162.510713 
L 147.27608 162.845991 
L 147.529716 162.220304 
L 147.783352 162.518876 
L 148.290625 164.100062 
L 148.544261 161.71733 
L 148.797898 160.953926 
L 149.051534 162.188098 
L 149.558807 161.382858 
L 149.812443 162.157181 
L 150.06608 162.385889 
L 150.319716 160.804717 
L 150.573352 161.59229 
L 150.826989 161.478432 
L 151.080625 161.686822 
L 151.334261 162.509587 
L 151.587898 161.135064 
L 151.841534 161.60804 
L 152.348807 163.370876 
L 152.602443 161.109782 
L 152.85608 153.752785 
L 153.109716 154.884893 
L 153.363352 154.642952 
L 153.616989 156.15602 
L 153.870625 156.257159 
L 154.124261 154.933457 
L 154.377898 156.047679 
L 154.631534 156.254787 
L 154.88517 157.181505 
L 155.138807 156.53724 
L 155.392443 156.437924 
L 155.64608 156.791371 
L 155.899716 156.526013 
L 156.153352 156.899174 
L 156.406989 156.612682 
L 156.660625 155.971204 
L 156.914261 156.374247 
L 157.421534 156.676973 
L 157.67517 156.380954 
L 157.928807 156.744293 
L 158.182443 156.508302 
L 158.689716 156.742195 
L 158.943352 156.015266 
L 159.196989 156.667905 
L 159.704261 156.571618 
L 160.211534 157.011189 
L 160.718807 156.562438 
L 160.972443 157.11912 
L 161.22608 157.288222 
L 161.479716 156.918805 
L 161.733352 156.340906 
L 161.986989 157.068537 
L 162.240625 156.310565 
L 162.747898 155.798621 
L 163.001534 156.372213 
L 163.25517 156.620934 
L 163.762443 155.934658 
L 164.01608 155.997717 
L 164.269716 156.237635 
L 164.523352 156.252845 
L 164.776989 155.534283 
L 165.030625 156.106492 
L 165.284261 155.971055 
L 165.537898 155.262929 
L 165.791534 155.565248 
L 166.04517 155.523103 
L 166.298807 155.801346 
L 166.552443 156.566333 
L 166.80608 156.216639 
L 167.059716 156.133157 
L 167.313352 155.391582 
L 167.566989 155.66232 
L 167.820625 156.145638 
L 168.074261 155.672539 
L 168.327898 155.874484 
L 168.581534 155.743108 
L 168.83517 156.238413 
L 169.088807 155.989438 
L 169.59608 156.440338 
L 170.103352 155.672807 
L 170.356989 155.631246 
L 170.610625 155.827528 
L 170.864261 156.184732 
L 171.117898 155.693904 
L 171.371534 156.168457 
L 171.62517 156.299126 
L 171.878807 155.762169 
L 172.38608 156.752607 
L 172.639716 155.909613 
L 172.893352 156.437744 
L 173.400625 156.503263 
L 173.654261 156.287067 
L 173.907898 156.348738 
L 174.161534 156.141802 
L 174.41517 156.48928 
L 174.668807 155.958175 
L 174.922443 155.93672 
L 175.17608 156.125692 
L 175.429716 156.556642 
L 175.683352 156.08584 
L 175.936989 155.853602 
L 176.190625 156.224566 
L 176.697898 155.977781 
L 176.951534 156.594103 
L 177.20517 155.667991 
L 177.712443 156.37959 
L 177.96608 156.129236 
L 178.219716 156.608581 
L 178.473352 155.852199 
L 178.726989 155.933841 
L 178.980625 155.823862 
L 179.234261 156.261902 
L 179.487898 156.217012 
L 179.741534 156.433896 
L 179.99517 156.219792 
L 180.248807 156.336659 
L 180.502443 156.096349 
L 180.75608 156.14078 
L 181.009716 156.421176 
L 181.770625 156.095558 
L 182.024261 157.212045 
L 182.277898 156.587763 
L 182.531534 156.30008 
L 182.78517 156.348145 
L 183.038807 156.214621 
L 183.292443 156.433314 
L 183.54608 156.347303 
L 184.053352 156.730407 
L 184.306989 156.311451 
L 184.560625 156.422137 
L 184.814261 156.363393 
L 185.067898 156.605773 
L 186.082443 156.104843 
L 186.33608 156.384421 
L 186.589716 156.488825 
L 186.843352 156.398473 
L 187.096989 156.77701 
L 187.604261 156.438086 
L 187.857898 156.575574 
L 188.111534 156.895077 
L 188.36517 156.586644 
L 188.618807 156.758388 
L 188.872443 156.656062 
L 189.12608 156.965966 
L 189.633352 156.474212 
L 189.886989 156.979237 
L 190.647898 156.78095 
L 190.901534 157.101613 
L 191.408807 156.551084 
L 191.91608 157.098151 
L 192.169716 156.494078 
L 192.423352 156.470489 
L 192.676989 156.88698 
L 192.930625 156.736063 
L 193.184261 156.7347 
L 193.437898 157.464837 
L 193.691534 157.245992 
L 193.94517 156.862099 
L 194.198807 156.935837 
L 194.452443 156.769388 
L 194.70608 157.033425 
L 194.959716 156.931994 
L 195.466989 157.300986 
L 195.720625 156.96563 
L 195.974261 157.144787 
L 196.481534 156.797355 
L 196.73517 157.022033 
L 196.988807 156.650283 
L 197.242443 156.643316 
L 197.49608 157.060201 
L 197.749716 156.635579 
L 198.256989 156.742267 
L 198.764261 156.37065 
L 199.017898 156.805563 
L 199.271534 157.010789 
L 199.52517 156.41239 
L 199.778807 156.30752 
L 200.032443 156.518043 
L 200.28608 154.394413 
L 200.539716 153.868807 
L 200.793352 154.745371 
L 201.046989 154.964107 
L 201.300625 155.882272 
L 202.061534 155.2932 
L 202.568807 155.89478 
L 202.822443 155.705633 
L 203.07608 155.735094 
L 203.329716 156.291481 
L 203.836989 155.58715 
L 204.090625 155.645655 
L 204.344261 153.043477 
L 204.597898 154.084499 
L 204.851534 154.435394 
L 205.10517 154.271206 
L 205.358807 154.535556 
L 205.612443 155.139117 
L 205.86608 154.806182 
L 206.119716 155.013079 
L 206.373352 154.635972 
L 206.626989 155.060609 
L 206.880625 155.242783 
L 207.134261 154.710172 
L 207.387898 155.23496 
L 208.148807 154.912978 
L 208.402443 154.600437 
L 208.65608 154.867425 
L 208.909716 154.496443 
L 209.163352 155.003689 
L 209.670625 155.096093 
L 209.924261 154.993173 
L 210.177898 155.095595 
L 210.431534 155.423929 
L 211.192443 155.077029 
L 211.44608 155.272574 
L 211.699716 154.511676 
L 212.460625 155.833112 
L 212.714261 155.491651 
L 213.221534 155.26391 
L 213.47517 155.533926 
L 213.728807 155.532608 
L 213.982443 155.347737 
L 214.23608 155.905205 
L 214.743352 155.375726 
L 214.996989 155.269938 
L 215.250625 155.835803 
L 215.757898 155.153243 
L 216.518807 155.751553 
L 217.02608 155.403771 
L 217.279716 155.480373 
L 217.533352 155.800394 
L 217.786989 155.63988 
L 218.040625 156.279948 
L 218.294261 155.760215 
L 218.801534 155.431543 
L 219.562443 155.709706 
L 219.81608 155.219692 
L 220.069716 155.442174 
L 220.323352 155.890347 
L 220.830625 156.019055 
L 221.084261 155.491745 
L 221.84517 155.350416 
L 222.098807 155.346429 
L 222.352443 155.665712 
L 222.60608 155.630159 
L 222.859716 156.297099 
L 223.366989 154.636774 
L 223.620625 155.540049 
L 224.127898 155.596634 
L 224.381534 155.315462 
L 224.63517 155.58118 
L 224.888807 154.986037 
L 225.649716 155.552048 
L 226.664261 155.310278 
L 226.917898 155.408083 
L 227.171534 155.196475 
L 227.42517 155.538965 
L 227.678807 155.442706 
L 227.932443 155.091318 
L 228.18608 153.608385 
L 228.693352 154.714612 
L 228.946989 154.891346 
L 229.200625 154.903836 
L 229.454261 154.621878 
L 229.707898 155.658852 
L 229.961534 155.249258 
L 230.21517 155.713823 
L 230.468807 155.021825 
L 230.97608 155.150075 
L 231.229716 155.154992 
L 231.483352 155.317545 
L 231.736989 155.151199 
L 231.990625 155.264146 
L 232.244261 155.587818 
L 233.258807 155.074538 
L 233.512443 155.645964 
L 233.76608 155.841646 
L 234.273352 155.051135 
L 234.526989 155.565542 
L 234.780625 155.17962 
L 235.034261 155.260668 
L 235.287898 155.475398 
L 235.541534 155.165695 
L 235.79517 155.24334 
L 236.048807 155.072499 
L 236.302443 155.269896 
L 236.55608 154.818812 
L 236.809716 155.188621 
L 237.063352 155.108289 
L 237.316989 154.669359 
L 237.570625 155.152197 
L 237.824261 155.156871 
L 238.077898 154.848813 
L 238.331534 155.390366 
L 238.58517 155.278702 
L 238.838807 155.436354 
L 239.092443 155.245938 
L 239.34608 155.244318 
L 239.599716 154.974139 
L 239.853352 155.382234 
L 240.106989 155.004301 
L 240.360625 154.988872 
L 240.614261 155.262399 
L 241.121534 155.096087 
L 241.37517 154.837695 
L 241.882443 155.423065 
L 242.13608 155.028617 
L 242.389716 155.512282 
L 243.150625 154.743231 
L 243.404261 155.366563 
L 243.911534 155.130873 
L 244.16517 154.707484 
L 244.418807 154.986333 
L 244.92608 154.818989 
L 245.179716 155.046058 
L 245.433352 154.702934 
L 245.940625 155.039919 
L 246.194261 154.975369 
L 246.447898 155.334182 
L 246.701534 154.849228 
L 246.95517 155.037184 
L 247.208807 154.970428 
L 247.462443 155.284791 
L 247.71608 154.96514 
L 247.969716 155.305088 
L 248.223352 154.640369 
L 248.476989 155.181552 
L 249.237898 155.488724 
L 249.491534 154.730194 
L 250.252443 154.930242 
L 250.50608 155.111416 
L 250.759716 155.045237 
L 251.013352 155.248884 
L 251.266989 154.713462 
L 251.520625 154.878149 
L 251.774261 155.207209 
L 252.027898 154.545471 
L 252.53517 155.620813 
L 252.788807 155.274956 
L 253.042443 155.497977 
L 253.29608 155.070469 
L 253.549716 155.350361 
L 253.803352 154.947572 
L 254.056989 155.52839 
L 254.310625 155.107947 
L 254.564261 155.580213 
L 254.817898 155.139409 
L 255.071534 155.178293 
L 255.32517 155.381478 
L 255.578807 155.187845 
L 255.832443 155.494437 
L 256.08608 155.217882 
L 256.339716 155.285562 
L 256.593352 155.031702 
L 256.846989 155.296398 
L 257.100625 154.910107 
L 257.354261 155.275375 
L 257.607898 155.15732 
L 257.861534 155.31056 
L 258.368807 155.333147 
L 258.87608 154.904764 
L 259.129716 155.58039 
L 259.636989 155.156327 
L 259.890625 155.373803 
L 260.144261 155.249042 
L 260.397898 155.254083 
L 260.651534 155.55925 
L 260.90517 155.219763 
L 261.158807 155.562492 
L 261.412443 155.304436 
L 262.426989 155.284766 
L 262.934261 155.369909 
L 263.441534 155.254357 
L 263.69517 155.33416 
L 263.948807 155.032186 
L 264.45608 155.323129 
L 264.709716 155.204486 
L 264.963352 155.311507 
L 265.216989 155.125744 
L 265.977898 155.663483 
L 266.231534 155.077817 
L 266.48517 154.902083 
L 266.738807 155.02242 
L 266.992443 155.328052 
L 267.753352 155.428283 
L 268.006989 155.442195 
L 268.260625 155.699922 
L 269.021534 155.499555 
L 269.27517 155.280517 
L 269.782443 155.843515 
L 270.03608 154.460927 
L 270.289716 155.107892 
L 271.557898 155.057375 
L 271.811534 155.366999 
L 272.06517 155.084903 
L 272.318807 153.80868 
L 272.572443 154.421182 
L 272.82608 154.517176 
L 273.079716 154.371533 
L 273.333352 155.156259 
L 273.840625 155.151924 
L 274.094261 154.886121 
L 274.347898 155.168401 
L 274.601534 151.549215 
L 274.85517 153.671801 
L 275.108807 154.210377 
L 275.362443 153.137968 
L 275.61608 153.212823 
L 275.869716 153.538874 
L 276.123352 153.63788 
L 276.376989 153.866057 
L 276.630625 153.574882 
L 276.884261 153.807505 
L 277.137898 153.786339 
L 277.391534 153.559401 
L 277.64517 154.12274 
L 277.898807 153.933107 
L 278.152443 154.043313 
L 278.40608 153.748751 
L 278.659716 154.127582 
L 278.913352 154.275268 
L 279.166989 153.823059 
L 279.420625 153.913277 
L 279.674261 154.303842 
L 279.927898 154.969832 
L 280.181534 153.886911 
L 280.43517 153.764402 
L 280.942443 154.095029 
L 281.19608 153.892431 
L 281.449716 154.085215 
L 281.703352 153.970061 
L 281.956989 154.195834 
L 282.210625 154.003589 
L 282.464261 154.439732 
L 282.717898 154.185034 
L 282.971534 154.274745 
L 283.22517 154.164723 
L 283.478807 154.349258 
L 283.732443 154.215334 
L 283.98608 153.931444 
L 284.746989 154.356585 
L 285.000625 154.372823 
L 285.254261 154.028425 
L 285.507898 154.139414 
L 285.761534 154.375035 
L 286.268807 154.007671 
L 286.522443 154.379753 
L 286.77608 154.30798 
L 287.029716 153.920567 
L 287.283352 154.074949 
L 287.536989 154.48548 
L 287.790625 154.264881 
L 288.044261 154.224904 
L 288.297898 154.30137 
L 288.551534 153.986259 
L 289.312443 154.153079 
L 289.56608 154.133734 
L 289.819716 154.287122 
L 290.580625 154.271796 
L 290.834261 153.937811 
L 291.341534 154.089754 
L 291.59517 154.338696 
L 291.848807 153.865401 
L 292.102443 153.971171 
L 292.35608 153.877875 
L 293.370625 154.158169 
L 293.877898 153.920859 
L 294.131534 154.317894 
L 294.38517 154.224999 
L 294.638807 154.446094 
L 295.14608 154.076167 
L 295.653352 154.223886 
L 295.906989 153.940132 
L 296.160625 154.107708 
L 296.921534 154.023793 
L 297.428807 154.114796 
L 297.682443 153.951738 
L 297.93608 154.329505 
L 298.189716 154.126174 
L 298.950625 154.319701 
L 299.204261 154.315378 
L 299.457898 154.621295 
L 299.96517 153.964944 
L 300.472443 154.028827 
L 300.72608 154.227184 
L 301.994261 154.378203 
L 302.247898 154.049099 
L 302.501534 153.978356 
L 302.75517 154.58294 
L 303.008807 154.206178 
L 303.262443 154.275986 
L 303.51608 154.143732 
L 304.023352 154.376685 
L 304.276989 154.080599 
L 304.530625 154.252721 
L 305.037898 154.154387 
L 305.291534 153.922477 
L 305.54517 154.097532 
L 305.798807 154.597194 
L 306.052443 153.976399 
L 306.30608 154.136974 
L 306.559716 153.96186 
L 306.813352 154.141673 
L 307.066989 154.478791 
L 307.320625 154.129619 
L 307.827898 153.999698 
L 308.081534 154.097529 
L 308.33517 154.352394 
L 308.588807 154.116491 
L 309.349716 154.07981 
L 309.603352 154.264089 
L 309.856989 154.060622 
L 310.110625 154.013722 
L 310.364261 154.207735 
L 310.617898 153.979308 
L 310.871534 154.218602 
L 311.378807 154.080605 
L 311.632443 154.243596 
L 311.88608 153.864804 
L 312.900625 153.877679 
L 313.154261 153.959656 
L 313.407898 153.795453 
L 313.661534 153.773476 
L 313.91517 154.186488 
L 314.422443 153.700009 
L 314.929716 154.06566 
L 315.183352 153.754328 
L 315.436989 154.287848 
L 316.197898 153.849293 
L 316.70517 153.528761 
L 316.958807 153.87291 
L 317.212443 153.786487 
L 317.46608 153.579352 
L 317.719716 153.644116 
L 317.973352 153.925112 
L 318.226989 153.711868 
L 318.480625 153.664731 
L 318.987898 153.907606 
L 319.241534 153.79868 
L 319.49517 154.055372 
L 320.002443 153.587292 
L 320.25608 153.925825 
L 320.509716 153.770486 
L 320.763352 153.886633 
L 321.016989 153.472232 
L 321.270625 154.056653 
L 321.524261 153.617917 
L 321.777898 153.571063 
L 322.28517 153.9403 
L 322.538807 153.841082 
L 323.04608 154.012851 
L 323.553352 153.814185 
L 323.806989 153.871481 
L 324.060625 153.812954 
L 324.314261 154.077296 
L 324.567898 153.678675 
L 324.821534 153.96379 
L 325.07517 153.987649 
L 325.328807 153.71852 
L 325.582443 153.826589 
L 325.83608 154.332645 
L 326.089716 153.935132 
L 326.343352 154.064574 
L 326.596989 153.981866 
L 327.104261 154.219335 
L 327.357898 154.053844 
L 328.372443 154.018075 
L 328.62608 153.842495 
L 328.879716 154.030466 
L 329.386989 154.052931 
L 329.640625 153.843973 
L 330.147898 153.90353 
L 330.401534 153.818086 
L 330.65517 154.2799 
L 331.162443 153.933575 
L 331.41608 154.300037 
L 331.669716 153.893896 
L 332.176989 154.058179 
L 332.430625 153.92214 
L 332.684261 154.22361 
L 333.191534 153.693224 
L 333.44517 153.719976 
L 333.952443 154.112372 
L 334.20608 153.760369 
L 334.459716 153.934932 
L 334.713352 153.758076 
L 334.966989 154.126527 
L 335.474261 153.698017 
L 336.23517 153.836213 
L 336.488807 153.927989 
L 336.742443 154.164977 
L 336.99608 154.133394 
L 337.249716 153.938669 
L 337.756989 154.558286 
L 338.010625 154.414128 
L 338.264261 154.028473 
L 338.517898 154.414489 
L 338.771534 154.491601 
L 339.02517 154.373761 
L 339.278807 153.969343 
L 339.532443 154.198198 
L 339.78608 153.895323 
L 340.039716 153.924063 
L 340.293352 154.150303 
L 341.054261 153.796347 
L 341.307898 153.902566 
L 341.561534 153.840236 
L 341.81517 154.118608 
L 342.068807 153.73167 
L 342.322443 153.699172 
L 343.083352 154.417767 
L 343.336989 153.697973 
L 343.590625 154.16362 
L 343.844261 153.967527 
L 344.097898 154.424971 
L 344.351534 154.075927 
L 344.60517 153.943741 
L 344.858807 154.111361 
L 345.112443 154.029278 
L 345.36608 154.3959 
L 345.619716 154.279221 
L 345.873352 153.731126 
L 346.126989 153.933458 
L 346.380625 153.759584 
L 346.634261 154.252961 
L 347.39517 154.214123 
L 347.648807 153.817382 
L 347.902443 153.954916 
L 348.15608 153.954131 
L 348.409716 154.139536 
L 348.663352 153.998398 
L 348.916989 154.01198 
L 349.170625 153.770395 
L 349.424261 153.984374 
L 349.677898 153.803639 
L 349.931534 153.896815 
L 350.18517 154.327526 
L 350.692443 154.01714 
L 350.94608 154.148716 
L 351.199716 154.020145 
L 351.453352 153.737345 
L 352.214261 154.160656 
L 352.467898 154.289256 
L 352.721534 154.099192 
L 353.228807 154.258271 
L 353.482443 154.43969 
L 353.73608 154.466777 
L 353.989716 154.188428 
L 354.243352 154.177265 
L 354.496989 153.911907 
L 354.750625 154.21176 
L 355.004261 153.868858 
L 355.511534 153.936139 
L 355.76517 153.989305 
L 356.018807 153.910832 
L 356.272443 154.05375 
L 356.52608 154.331082 
L 356.779716 154.389428 
L 357.033352 153.938845 
L 357.540625 154.264901 
L 357.794261 154.185355 
L 358.047898 153.866401 
L 358.301534 154.115681 
L 358.808807 154.051252 
L 359.31608 154.501722 
L 359.569716 154.195006 
L 359.823352 154.12441 
L 360.076989 154.291247 
L 360.330625 154.21853 
L 360.584261 154.024233 
L 360.837898 154.026906 
L 361.34517 154.571016 
L 362.10608 154.264473 
L 362.359716 153.853914 
L 362.613352 154.087683 
L 362.866989 154.514502 
L 363.120625 154.336722 
L 363.374261 153.90356 
L 363.881534 154.311913 
L 364.13517 154.234345 
L 364.388807 154.378542 
L 364.642443 154.14663 
L 364.89608 154.348093 
L 365.149716 154.146855 
L 365.403352 154.325467 
L 365.656989 154.251309 
L 365.910625 154.003232 
L 366.92517 154.103678 
L 367.178807 153.875189 
L 367.68608 154.247452 
L 367.939716 153.897624 
L 368.700625 153.909604 
L 368.954261 154.191593 
L 369.71517 154.095129 
L 369.968807 154.1144 
L 370.222443 153.94871 
L 370.983352 154.296575 
L 371.236989 154.075555 
L 371.490625 154.44911 
L 371.744261 154.356132 
L 371.997898 154.41537 
L 372.251534 154.055603 
L 372.758807 154.100535 
L 373.012443 154.232757 
L 373.26608 154.118349 
L 373.519716 154.138495 
L 373.773352 154.328127 
L 374.026989 153.934045 
L 374.280625 154.232494 
L 374.534261 154.254489 
L 374.787898 154.447165 
L 375.041534 154.444631 
L 375.29517 154.209224 
L 375.802443 154.089822 
L 376.05608 154.288049 
L 376.816989 154.007912 
L 377.324261 153.948876 
L 377.577898 154.078815 
L 378.08517 153.885951 
L 378.338807 154.219233 
L 378.592443 154.203418 
L 378.84608 154.057217 
L 379.099716 154.410819 
L 379.606989 154.002355 
L 379.860625 154.37376 
L 380.367898 154.106879 
L 380.621534 154.135913 
L 381.128807 154.319537 
L 381.889716 154.079798 
L 382.143352 154.40421 
L 382.396989 154.117763 
L 383.411534 154.326372 
L 383.66517 154.320393 
L 383.918807 154.110944 
L 384.172443 154.164353 
L 384.42608 154.637807 
L 384.679716 154.313117 
L 384.933352 154.253446 
L 385.440625 154.433177 
L 385.694261 154.015535 
L 385.947898 154.215634 
L 386.45517 153.984831 
L 386.708807 154.11794 
L 387.21608 154.046193 
L 388.230625 154.157147 
L 388.484261 154.329375 
L 388.737898 154.29765 
L 389.498807 153.914481 
L 389.752443 154.236359 
L 390.00608 154.010467 
L 390.513352 153.943755 
L 390.766989 153.53262 
L 391.020625 154.056023 
L 392.288807 153.909032 
L 392.542443 154.2921 
L 392.79608 153.614156 
L 393.303352 154.203688 
L 394.571534 153.864617 
L 395.078807 153.818541 
L 395.332443 153.670539 
L 395.58608 154.022802 
L 396.346989 153.789161 
L 397.61517 153.978781 
L 397.868807 154.234708 
L 398.629716 154.044837 
L 398.883352 153.792993 
L 399.136989 153.755277 
L 399.644261 154.220482 
L 399.897898 154.110407 
L 400.151534 153.783916 
L 400.40517 154.313478 
L 400.658807 153.969518 
L 400.912443 153.849672 
L 401.419716 154.113797 
L 401.673352 154.137897 
L 402.180625 153.730601 
L 402.434261 154.258245 
L 402.687898 153.954271 
L 403.19517 153.740594 
L 403.448807 154.018024 
L 403.95608 153.926222 
L 404.209716 154.145229 
L 404.463352 153.997193 
L 404.716989 154.056473 
L 405.224261 153.804752 
L 405.477898 154.092211 
L 405.731534 153.919203 
L 405.98517 154.010276 
L 406.492443 153.727286 
L 407.253352 153.840228 
L 407.506989 153.856192 
L 407.760625 153.619472 
L 408.014261 153.731829 
L 408.267898 153.699567 
L 408.521534 153.889863 
L 408.77517 153.784353 
L 409.028807 153.988048 
L 409.282443 153.608502 
L 409.789716 153.756962 
L 410.043352 153.648117 
L 410.296989 153.751202 
L 410.550625 154.048419 
L 410.804261 153.988363 
L 411.057898 153.535162 
L 411.818807 154.299353 
L 412.32608 153.766523 
L 412.579716 153.960111 
L 413.086989 153.809754 
L 413.340625 153.74915 
L 413.594261 153.937067 
L 413.847898 153.740406 
L 414.101534 153.839032 
L 414.35517 153.580448 
L 414.608807 153.682983 
L 414.862443 153.506394 
L 415.369716 153.783745 
L 415.623352 153.71797 
L 415.876989 153.786397 
L 416.130625 153.68383 
L 416.384261 153.854369 
L 416.637898 153.811334 
L 417.14517 153.474582 
L 417.398807 153.444142 
L 417.652443 153.585643 
L 417.90608 153.55147 
L 418.159716 153.852637 
L 418.413352 153.444372 
L 418.920625 153.799378 
L 419.174261 153.435373 
L 419.427898 153.565787 
L 419.681534 153.909216 
L 419.93517 153.591031 
L 420.188807 153.713839 
L 420.442443 153.515405 
L 420.69608 153.796574 
L 421.710625 153.78357 
L 421.964261 153.486434 
L 422.471534 153.660724 
L 422.72517 153.465208 
L 422.978807 153.628123 
L 423.739716 153.383135 
L 424.246989 153.437859 
L 424.500625 153.333022 
L 424.754261 153.601678 
L 425.261534 153.52113 
L 425.51517 153.540977 
L 425.768807 153.705811 
L 426.022443 153.506279 
L 426.27608 153.50767 
L 426.529716 153.394018 
L 426.783352 153.543582 
L 427.036989 153.396164 
L 427.544261 153.654618 
L 427.797898 153.638947 
L 428.051534 153.442629 
L 428.30517 153.612165 
L 428.558807 153.610306 
L 428.812443 153.750076 
L 429.06608 153.548167 
L 429.319716 153.495158 
L 429.573352 153.768391 
L 429.826989 153.635529 
L 430.334261 153.811356 
L 430.587898 153.571337 
L 430.841534 153.866926 
L 431.348807 153.612034 
L 431.85608 153.719393 
L 432.109716 153.746423 
L 432.363352 153.642421 
L 432.870625 154.113019 
L 433.377898 153.752669 
L 433.631534 153.838809 
L 434.392443 153.70945 
L 434.899716 153.669421 
L 435.406989 153.643659 
L 435.660625 153.898688 
L 435.914261 153.619783 
L 436.421534 153.466474 
L 436.928807 153.827922 
L 437.182443 153.595058 
L 437.43608 153.638498 
L 437.689716 154.161071 
L 438.196989 153.911531 
L 438.450625 154.08234 
L 438.704261 153.722731 
L 439.46517 153.607553 
L 439.718807 153.951289 
L 440.22608 153.64361 
L 441.240625 153.947013 
L 441.747898 153.779647 
L 442.508807 153.916043 
L 442.762443 153.627443 
L 443.01608 153.815472 
L 443.269716 153.644593 
L 443.523352 153.704829 
L 443.776989 153.644729 
L 444.030625 153.784662 
L 444.284261 153.728161 
L 444.537898 153.813443 
L 444.791534 153.633944 
L 445.04517 153.934501 
L 445.298807 153.98363 
L 445.80608 153.604701 
L 446.059716 153.893512 
L 446.313352 153.675376 
L 446.820625 153.61956 
L 447.327898 153.661399 
L 447.581534 153.682053 
L 447.83517 153.895038 
L 448.088807 153.692404 
L 448.342443 153.69523 
L 448.59608 153.877967 
L 449.356989 153.783067 
L 449.864261 153.451278 
L 450.117898 153.740433 
L 450.371534 153.593752 
L 450.62517 153.708738 
L 451.38608 153.589259 
L 451.893352 153.892645 
L 452.146989 153.701044 
L 452.907898 154.094306 
L 453.41517 153.631876 
L 453.668807 153.821865 
L 453.922443 153.53313 
L 454.17608 153.837683 
L 454.429716 153.709512 
L 454.683352 153.976963 
L 454.936989 153.524268 
L 455.190625 153.851789 
L 455.697898 153.893796 
L 455.951534 153.564461 
L 456.20517 153.934477 
L 456.458807 153.87539 
L 456.712443 153.521523 
L 456.96608 153.617314 
L 457.473352 153.522105 
L 457.726989 153.570153 
L 457.980625 153.749106 
L 458.234261 153.732442 
L 458.487898 153.539779 
L 458.741534 153.519816 
L 458.99517 153.763688 
L 459.248807 153.385901 
L 459.502443 153.254838 
L 459.75608 153.64038 
L 460.009716 153.767238 
L 460.263352 153.311902 
L 461.024261 153.773653 
L 461.277898 153.54239 
L 461.531534 153.774382 
L 461.78517 153.551954 
L 462.038807 153.577954 
L 462.292443 153.823898 
L 462.54608 153.573428 
L 463.306989 153.566822 
L 463.560625 153.409663 
L 463.814261 153.558861 
L 464.321534 153.467655 
L 464.57517 153.786692 
L 465.082443 153.819304 
L 465.33608 153.526983 
L 465.589716 153.661894 
L 465.843352 153.626087 
L 466.096989 153.99085 
L 466.350625 153.611746 
L 466.604261 153.841844 
L 466.857898 153.630269 
L 467.111534 153.58926 
L 467.36517 153.714092 
L 467.618807 153.662656 
L 467.872443 153.788584 
L 468.12608 153.663854 
L 468.379716 153.927436 
L 468.633352 153.608622 
L 468.886989 153.84961 
L 469.140625 153.620663 
L 469.647898 153.708176 
L 469.901534 153.674792 
L 470.15517 153.822119 
L 470.408807 153.563004 
L 470.662443 153.67597 
L 471.676989 153.310989 
L 471.930625 153.617095 
L 472.184261 153.34086 
L 472.437898 153.515964 
L 473.198807 153.527073 
L 473.452443 153.295187 
L 473.70608 153.495705 
L 473.959716 153.364802 
L 474.720625 153.577266 
L 474.974261 153.386816 
L 475.227898 153.789625 
L 475.481534 153.215657 
L 475.73517 153.456652 
L 476.749716 153.732618 
L 477.003352 153.570805 
L 477.256989 153.745731 
L 477.510625 153.553034 
L 477.764261 153.72733 
L 478.017898 153.443527 
L 478.778807 153.486646 
L 479.032443 153.633082 
L 480.046989 153.150589 
L 480.807898 153.363028 
L 481.061534 153.441042 
L 481.31517 153.12213 
L 481.822443 153.345722 
L 482.07608 153.287108 
L 482.583352 153.394502 
L 483.090625 153.123854 
L 483.344261 153.29572 
L 483.597898 153.259546 
L 483.851534 153.414328 
L 484.10517 153.169864 
L 484.358807 153.589313 
L 484.612443 153.310722 
L 485.626989 153.074632 
L 486.134261 153.375424 
L 486.89517 153.39394 
L 487.402443 153.213101 
L 488.670625 153.305209 
L 488.924261 153.642875 
L 489.68517 153.219974 
L 489.938807 153.360109 
L 490.192443 153.268092 
L 490.953352 153.522112 
L 491.460625 153.304114 
L 491.714261 153.197294 
L 491.967898 153.353062 
L 492.221534 153.352243 
L 492.47517 153.514872 
L 492.728807 153.1508 
L 493.489716 153.42874 
L 494.250625 153.40628 
L 494.504261 153.325218 
L 494.757898 153.420448 
L 495.011534 153.689085 
L 495.26517 153.175583 
L 495.518807 153.295932 
L 496.02608 153.010928 
L 496.279716 153.158466 
L 496.533352 153.002519 
L 496.786989 153.103744 
L 497.040625 153.348791 
L 497.294261 153.414407 
L 497.547898 153.255084 
L 498.05517 153.55702 
L 498.308807 153.307669 
L 498.562443 153.471619 
L 498.81608 153.338908 
L 499.069716 153.489748 
L 499.323352 153.157198 
L 499.830625 153.229429 
L 500.084261 153.122373 
L 500.84517 153.335821 
L 501.352443 153.263609 
L 501.60608 153.523582 
L 502.366989 153.241465 
L 502.620625 153.352413 
L 503.127898 153.247114 
L 503.63517 153.578611 
L 504.39608 153.287029 
L 504.649716 153.597787 
L 504.903352 153.577999 
L 505.156989 153.228747 
L 505.917898 152.991536 
L 506.932443 153.0719 
L 507.18608 153.394673 
L 507.693352 153.122708 
L 507.946989 153.34781 
L 508.707898 153.193604 
L 508.961534 153.356206 
L 509.21517 153.101592 
L 509.468807 153.236333 
L 509.722443 153.241952 
L 509.97608 153.378006 
L 510.736989 153.300455 
L 510.990625 153.274422 
L 511.244261 153.362097 
L 511.497898 153.055824 
L 512.00517 153.123356 
L 512.512443 153.286312 
L 512.76608 153.241122 
L 513.019716 153.333852 
L 513.780625 153.077256 
L 514.541534 153.287651 
L 514.79517 153.119691 
L 515.048807 153.390178 
L 515.55608 153.555823 
L 515.809716 153.261305 
L 516.063352 153.269223 
L 516.316989 153.461192 
L 516.824261 153.349592 
L 517.077898 153.530363 
L 517.331534 153.374637 
L 517.58517 153.563108 
L 518.092443 153.151832 
L 518.853352 153.386099 
L 519.360625 153.173586 
L 520.121534 153.489755 
L 520.37517 153.506098 
L 520.628807 153.249463 
L 520.882443 153.668513 
L 521.13608 153.321028 
L 521.389716 153.375023 
L 521.643352 153.217508 
L 521.896989 153.438894 
L 522.150625 153.441465 
L 522.404261 153.299701 
L 522.657898 153.316906 
L 522.911534 153.16941 
L 523.16517 153.16602 
L 523.418807 153.378197 
L 523.672443 153.275509 
L 524.433352 153.432676 
L 524.686989 153.292636 
L 524.940625 153.28352 
L 525.194261 153.137678 
L 525.447898 153.15773 
L 525.95517 153.443877 
L 526.208807 153.151781 
L 526.462443 153.254116 
L 526.71608 153.060122 
L 527.476989 153.403341 
L 528.237898 153.441244 
L 528.491534 153.669271 
L 528.74517 153.293515 
L 529.252443 153.203355 
L 529.759716 153.108848 
L 530.266989 153.366188 
L 530.520625 153.078729 
L 530.774261 153.243851 
L 532.29608 153.305525 
L 533.056989 153.053216 
L 533.310625 153.320177 
L 533.564261 153.168925 
L 533.817898 153.240159 
L 534.071534 153.136188 
L 534.32517 153.152692 
L 534.578807 153.280572 
L 534.832443 153.176477 
L 535.339716 153.427916 
L 535.593352 153.219656 
L 536.100625 153.25249 
L 536.607898 153.416147 
L 536.861534 153.240914 
L 537.368807 153.449765 
L 537.622443 153.267955 
L 537.87608 153.376127 
L 538.129716 153.200082 
L 538.890625 153.203108 
L 539.144261 153.334917 
L 539.397898 153.315177 
L 539.651534 153.500635 
L 540.158807 153.187995 
L 540.412443 153.062713 
L 540.66608 153.445698 
L 541.173352 153.182682 
L 541.426989 153.165216 
L 541.680625 153.614389 
L 542.187898 153.370003 
L 542.441534 153.389177 
L 542.948807 153.075333 
L 543.45608 153.34501 
L 543.709716 153.135357 
L 544.216989 153.519055 
L 544.724261 153.521653 
L 544.977898 153.427736 
L 545.231534 153.596221 
L 545.992443 153.335739 
L 546.753352 153.557397 
L 547.006989 153.448385 
L 547.514261 153.531978 
L 548.021534 153.54424 
L 548.27517 153.256091 
L 548.528807 153.453715 
L 549.03608 153.386594 
L 549.289716 153.567694 
L 549.796989 153.500238 
L 550.050625 153.541007 
L 550.304261 153.330139 
L 550.557898 153.475395 
L 551.06517 153.412441 
L 551.318807 153.339484 
L 551.82608 153.537619 
L 552.079716 153.656001 
L 552.333352 153.462349 
L 552.586989 153.69027 
L 552.840625 153.476832 
L 553.094261 153.572752 
L 553.347898 153.394373 
L 553.601534 153.573494 
L 553.85517 153.534476 
L 554.108807 153.334606 
L 554.362443 153.450318 
L 554.61608 153.726391 
L 554.869716 153.560339 
L 555.123352 153.650249 
L 555.376989 153.438393 
L 555.884261 153.600963 
L 556.137898 153.42283 
L 556.391534 153.641245 
L 556.64517 153.501168 
L 556.898807 153.817292 
L 557.152443 153.314901 
L 557.40608 153.558387 
L 558.166989 153.408458 
L 558.420625 153.517917 
L 558.674261 153.295693 
L 559.43517 153.468175 
L 559.688807 153.657612 
L 559.942443 153.653052 
L 560.19608 153.241308 
L 560.449716 153.262062 
L 560.703352 153.489567 
L 561.210625 153.310521 
L 561.717898 153.46209 
L 562.478807 153.313838 
L 562.732443 153.435222 
L 562.98608 153.405877 
L 563.239716 153.636545 
L 563.493352 153.579087 
L 563.746989 153.332408 
L 564.254261 153.475995 
L 564.507898 153.415294 
L 564.761534 153.47324 
L 565.01517 153.234564 
L 565.268807 153.255155 
L 565.77608 153.520595 
L 566.283352 153.451719 
L 566.536989 153.669141 
L 566.790625 153.486125 
L 567.551534 153.434707 
L 567.80517 153.168803 
L 568.058807 153.531145 
L 568.56608 153.470492 
L 568.819716 153.278891 
L 569.073352 153.609753 
L 569.326989 153.428539 
L 569.580625 153.429296 
L 569.834261 153.298223 
L 570.59517 153.534343 
L 570.848807 153.35891 
L 571.609716 153.3031 
L 572.624261 153.775369 
L 572.877898 153.4702 
L 573.131534 153.726208 
L 573.38517 153.469453 
L 573.638807 153.598145 
L 573.892443 153.28731 
L 574.399716 153.70472 
L 574.906989 153.332922 
L 575.160625 153.417711 
L 575.414261 153.214567 
L 575.667898 153.401392 
L 575.921534 153.178973 
L 576.17517 153.472496 
L 576.428807 153.262517 
L 576.682443 153.247437 
L 576.93608 153.357643 
L 577.189716 153.685013 
L 577.443352 153.393333 
L 577.696989 153.32234 
L 577.950625 153.577011 
L 578.204261 153.641627 
L 578.96517 153.396655 
L 579.218807 153.679376 
L 580.994261 153.147086 
L 581.247898 153.577495 
L 581.501534 153.4411 
L 581.75517 153.733897 
L 582.008807 153.333528 
L 582.769716 153.250414 
L 583.276989 153.165729 
L 583.530625 153.439787 
L 583.784261 153.091362 
L 584.037898 153.314817 
L 584.291534 153.262298 
L 584.54517 153.053829 
L 584.798807 153.557268 
L 585.052443 153.610957 
L 585.30608 153.522991 
L 585.559716 153.203311 
L 585.813352 153.400114 
L 586.066989 153.298179 
L 586.320625 153.568517 
L 587.081534 153.209681 
L 587.588807 153.397703 
L 587.842443 153.529631 
L 588.349716 153.212025 
L 588.603352 153.501997 
L 588.856989 153.37865 
L 589.110625 153.116407 
L 589.364261 153.469986 
L 589.617898 153.460639 
L 589.871534 153.26927 
L 590.378807 153.477161 
L 590.632443 153.326073 
L 590.88608 153.50476 
L 591.139716 153.239168 
L 591.393352 153.334629 
L 591.900625 153.223228 
L 592.154261 153.246142 
L 592.407898 153.39874 
L 592.661534 153.326272 
L 593.422443 153.751176 
L 594.183352 153.26881 
L 594.436989 153.417104 
L 594.690625 153.435556 
L 594.944261 153.287668 
L 595.197898 153.519428 
L 595.451534 153.237898 
L 595.70517 153.237125 
L 596.212443 153.396607 
L 596.46608 153.319765 
L 597.480625 153.440434 
L 598.49517 153.417017 
L 599.002443 153.718529 
L 599.25608 153.318032 
L 599.509716 153.320706 
L 599.763352 153.169154 
L 600.524261 153.434627 
L 600.777898 153.266348 
L 601.031534 153.315811 
L 601.28517 153.590261 
L 601.538807 153.362591 
L 601.792443 153.334224 
L 602.04608 153.491337 
L 602.553352 153.306058 
L 603.060625 153.712937 
L 603.314261 153.715902 
L 603.567898 153.27678 
L 603.821534 153.317587 
L 604.07517 153.212498 
L 604.328807 153.38883 
L 604.582443 153.15756 
L 605.089716 153.202723 
L 606.104261 153.195205 
L 606.357898 153.370045 
L 606.611534 153.253604 
L 606.86517 153.269459 
L 607.372443 153.426879 
L 608.133352 153.098947 
L 608.386989 153.105058 
L 609.147898 153.489748 
L 609.401534 153.42832 
L 609.65517 153.539887 
L 609.908807 153.397256 
L 610.41608 153.402925 
L 610.669716 153.285066 
L 610.923352 153.319623 
L 611.176989 153.054981 
L 611.430625 153.307381 
L 611.937898 153.184104 
L 612.952443 153.375682 
L 613.20608 153.348245 
L 613.459716 153.470457 
L 613.713352 153.405472 
L 613.966989 153.188338 
L 614.220625 153.351886 
L 615.23517 153.199476 
L 615.488807 153.138218 
L 616.503352 153.342069 
L 616.756989 153.272917 
L 617.010625 153.449304 
L 617.264261 153.170159 
L 617.771534 153.56227 
L 618.02517 153.372777 
L 619.039716 153.347076 
L 619.293352 153.235687 
L 620.307898 153.463065 
L 620.81517 153.34173 
L 621.068807 153.46028 
L 621.57608 153.275972 
L 621.829716 153.54527 
L 622.336989 153.586912 
L 622.590625 153.22786 
L 623.097898 153.528772 
L 623.351534 153.380545 
L 624.112443 153.443017 
L 624.36608 153.262348 
L 624.619716 153.267638 
L 624.873352 153.635823 
L 625.126989 153.492624 
L 625.126989 153.492624 
" clip-path="url(#p9f954b4aea)" style="fill: none; stroke: #ff7f0e; stroke-width: 1.5; stroke-linecap: square"/>
   </g>
   <g id="patch_3">
    <path d="M 92.490625 308.63625 
L 92.490625 31.43625 
" style="fill: none; stroke: #000000; stroke-width: 0.8; stroke-linejoin: miter; stroke-linecap: square"/>
   </g>
   <g id="patch_4">
    <path d="M 650.490625 308.63625 
L 650.490625 31.43625 
" style="fill: none; stroke: #000000; stroke-width: 0.8; stroke-linejoin: miter; stroke-linecap: square"/>
   </g>
   <g id="patch_5">
    <path d="M 92.490625 308.63625 
L 650.490625 308.63625 
" style="fill: none; stroke: #000000; stroke-width: 0.8; stroke-linejoin: miter; stroke-linecap: square"/>
   </g>
   <g id="patch_6">
    <path d="M 92.490625 31.43625 
L 650.490625 31.43625 
" style="fill: none; stroke: #000000; stroke-width: 0.8; stroke-linejoin: miter; stroke-linecap: square"/>
   </g>
   <g id="text_15">
    <!-- Generator and Discriminator Loss During Training -->
    <g transform="translate(74.258125 25.43625) scale(0.24 -0.24)">
     <defs>
      <path id="DejaVuSans-47" d="M 3809 666 
L 3809 1919 
L 2778 1919 
L 2778 2438 
L 4434 2438 
L 4434 434 
Q 4069 175 3628 42 
Q 3188 -91 2688 -91 
Q 1594 -91 976 548 
Q 359 1188 359 2328 
Q 359 3472 976 4111 
Q 1594 4750 2688 4750 
Q 3144 4750 3555 4637 
Q 3966 4525 4313 4306 
L 4313 3634 
Q 3963 3931 3569 4081 
Q 3175 4231 2741 4231 
Q 1884 4231 1454 3753 
Q 1025 3275 1025 2328 
Q 1025 1384 1454 906 
Q 1884 428 2741 428 
Q 3075 428 3337 486 
Q 3600 544 3809 666 
z
" transform="scale(0.015625)"/>
      <path id="DejaVuSans-20" transform="scale(0.015625)"/>
      <path id="DejaVuSans-64" d="M 2906 2969 
L 2906 4863 
L 3481 4863 
L 3481 0 
L 2906 0 
L 2906 525 
Q 2725 213 2448 61 
Q 2172 -91 1784 -91 
Q 1150 -91 751 415 
Q 353 922 353 1747 
Q 353 2572 751 3078 
Q 1150 3584 1784 3584 
Q 2172 3584 2448 3432 
Q 2725 3281 2906 2969 
z
M 947 1747 
Q 947 1113 1208 752 
Q 1469 391 1925 391 
Q 2381 391 2643 752 
Q 2906 1113 2906 1747 
Q 2906 2381 2643 2742 
Q 2381 3103 1925 3103 
Q 1469 3103 1208 2742 
Q 947 2381 947 1747 
z
" transform="scale(0.015625)"/>
      <path id="DejaVuSans-44" d="M 1259 4147 
L 1259 519 
L 2022 519 
Q 2988 519 3436 956 
Q 3884 1394 3884 2338 
Q 3884 3275 3436 3711 
Q 2988 4147 2022 4147 
L 1259 4147 
z
M 628 4666 
L 1925 4666 
Q 3281 4666 3915 4102 
Q 4550 3538 4550 2338 
Q 4550 1131 3912 565 
Q 3275 0 1925 0 
L 628 0 
L 628 4666 
z
" transform="scale(0.015625)"/>
      <path id="DejaVuSans-63" d="M 3122 3366 
L 3122 2828 
Q 2878 2963 2633 3030 
Q 2388 3097 2138 3097 
Q 1578 3097 1268 2742 
Q 959 2388 959 1747 
Q 959 1106 1268 751 
Q 1578 397 2138 397 
Q 2388 397 2633 464 
Q 2878 531 3122 666 
L 3122 134 
Q 2881 22 2623 -34 
Q 2366 -91 2075 -91 
Q 1284 -91 818 406 
Q 353 903 353 1747 
Q 353 2603 823 3093 
Q 1294 3584 2113 3584 
Q 2378 3584 2631 3529 
Q 2884 3475 3122 3366 
z
" transform="scale(0.015625)"/>
      <path id="DejaVuSans-6d" d="M 3328 2828 
Q 3544 3216 3844 3400 
Q 4144 3584 4550 3584 
Q 5097 3584 5394 3201 
Q 5691 2819 5691 2113 
L 5691 0 
L 5113 0 
L 5113 2094 
Q 5113 2597 4934 2840 
Q 4756 3084 4391 3084 
Q 3944 3084 3684 2787 
Q 3425 2491 3425 1978 
L 3425 0 
L 2847 0 
L 2847 2094 
Q 2847 2600 2669 2842 
Q 2491 3084 2119 3084 
Q 1678 3084 1418 2786 
Q 1159 2488 1159 1978 
L 1159 0 
L 581 0 
L 581 3500 
L 1159 3500 
L 1159 2956 
Q 1356 3278 1631 3431 
Q 1906 3584 2284 3584 
Q 2666 3584 2933 3390 
Q 3200 3197 3328 2828 
z
" transform="scale(0.015625)"/>
      <path id="DejaVuSans-75" d="M 544 1381 
L 544 3500 
L 1119 3500 
L 1119 1403 
Q 1119 906 1312 657 
Q 1506 409 1894 409 
Q 2359 409 2629 706 
Q 2900 1003 2900 1516 
L 2900 3500 
L 3475 3500 
L 3475 0 
L 2900 0 
L 2900 538 
Q 2691 219 2414 64 
Q 2138 -91 1772 -91 
Q 1169 -91 856 284 
Q 544 659 544 1381 
z
M 1991 3584 
L 1991 3584 
z
" transform="scale(0.015625)"/>
      <path id="DejaVuSans-67" d="M 2906 1791 
Q 2906 2416 2648 2759 
Q 2391 3103 1925 3103 
Q 1463 3103 1205 2759 
Q 947 2416 947 1791 
Q 947 1169 1205 825 
Q 1463 481 1925 481 
Q 2391 481 2648 825 
Q 2906 1169 2906 1791 
z
M 3481 434 
Q 3481 -459 3084 -895 
Q 2688 -1331 1869 -1331 
Q 1566 -1331 1297 -1286 
Q 1028 -1241 775 -1147 
L 775 -588 
Q 1028 -725 1275 -790 
Q 1522 -856 1778 -856 
Q 2344 -856 2625 -561 
Q 2906 -266 2906 331 
L 2906 616 
Q 2728 306 2450 153 
Q 2172 0 1784 0 
Q 1141 0 747 490 
Q 353 981 353 1791 
Q 353 2603 747 3093 
Q 1141 3584 1784 3584 
Q 2172 3584 2450 3431 
Q 2728 3278 2906 2969 
L 2906 3500 
L 3481 3500 
L 3481 434 
z
" transform="scale(0.015625)"/>
      <path id="DejaVuSans-54" d="M -19 4666 
L 3928 4666 
L 3928 4134 
L 2272 4134 
L 2272 0 
L 1638 0 
L 1638 4134 
L -19 4134 
L -19 4666 
z
" transform="scale(0.015625)"/>
     </defs>
     <use xlink:href="#DejaVuSans-47"/>
     <use xlink:href="#DejaVuSans-65" x="77.490234"/>
     <use xlink:href="#DejaVuSans-6e" x="139.013672"/>
     <use xlink:href="#DejaVuSans-65" x="202.392578"/>
     <use xlink:href="#DejaVuSans-72" x="263.916016"/>
     <use xlink:href="#DejaVuSans-61" x="305.029297"/>
     <use xlink:href="#DejaVuSans-74" x="366.308594"/>
     <use xlink:href="#DejaVuSans-6f" x="405.517578"/>
     <use xlink:href="#DejaVuSans-72" x="466.699219"/>
     <use xlink:href="#DejaVuSans-20" x="507.8125"/>
     <use xlink:href="#DejaVuSans-61" x="539.599609"/>
     <use xlink:href="#DejaVuSans-6e" x="600.878906"/>
     <use xlink:href="#DejaVuSans-64" x="664.257812"/>
     <use xlink:href="#DejaVuSans-20" x="727.734375"/>
     <use xlink:href="#DejaVuSans-44" x="759.521484"/>
     <use xlink:href="#DejaVuSans-69" x="836.523438"/>
     <use xlink:href="#DejaVuSans-73" x="864.306641"/>
     <use xlink:href="#DejaVuSans-63" x="916.40625"/>
     <use xlink:href="#DejaVuSans-72" x="971.386719"/>
     <use xlink:href="#DejaVuSans-69" x="1012.5"/>
     <use xlink:href="#DejaVuSans-6d" x="1040.283203"/>
     <use xlink:href="#DejaVuSans-69" x="1137.695312"/>
     <use xlink:href="#DejaVuSans-6e" x="1165.478516"/>
     <use xlink:href="#DejaVuSans-61" x="1228.857422"/>
     <use xlink:href="#DejaVuSans-74" x="1290.136719"/>
     <use xlink:href="#DejaVuSans-6f" x="1329.345703"/>
     <use xlink:href="#DejaVuSans-72" x="1390.527344"/>
     <use xlink:href="#DejaVuSans-20" x="1431.640625"/>
     <use xlink:href="#DejaVuSans-4c" x="1463.427734"/>
     <use xlink:href="#DejaVuSans-6f" x="1517.390625"/>
     <use xlink:href="#DejaVuSans-73" x="1578.572266"/>
     <use xlink:href="#DejaVuSans-73" x="1630.671875"/>
     <use xlink:href="#DejaVuSans-20" x="1682.771484"/>
     <use xlink:href="#DejaVuSans-44" x="1714.558594"/>
     <use xlink:href="#DejaVuSans-75" x="1791.560547"/>
     <use xlink:href="#DejaVuSans-72" x="1854.939453"/>
     <use xlink:href="#DejaVuSans-69" x="1896.052734"/>
     <use xlink:href="#DejaVuSans-6e" x="1923.835938"/>
     <use xlink:href="#DejaVuSans-67" x="1987.214844"/>
     <use xlink:href="#DejaVuSans-20" x="2050.691406"/>
     <use xlink:href="#DejaVuSans-54" x="2082.478516"/>
     <use xlink:href="#DejaVuSans-72" x="2128.8125"/>
     <use xlink:href="#DejaVuSans-61" x="2169.925781"/>
     <use xlink:href="#DejaVuSans-69" x="2231.205078"/>
     <use xlink:href="#DejaVuSans-6e" x="2258.988281"/>
     <use xlink:href="#DejaVuSans-69" x="2322.367188"/>
     <use xlink:href="#DejaVuSans-6e" x="2350.150391"/>
     <use xlink:href="#DejaVuSans-67" x="2413.529297"/>
    </g>
   </g>
   <g id="legend_1">
    <g id="patch_7">
     <path d="M 556.99375 106.14875 
L 636.490625 106.14875 
Q 640.490625 106.14875 640.490625 102.14875 
L 640.490625 45.43625 
Q 640.490625 41.43625 636.490625 41.43625 
L 556.99375 41.43625 
Q 552.99375 41.43625 552.99375 45.43625 
L 552.99375 102.14875 
Q 552.99375 106.14875 556.99375 106.14875 
z
" style="fill: #ffffff; opacity: 0.8; stroke: #cccccc; stroke-linejoin: miter"/>
    </g>
    <g id="line2d_15">
     <path d="M 560.99375 57.633125 
L 580.99375 57.633125 
L 600.99375 57.633125 
" style="fill: none; stroke: #1f77b4; stroke-width: 1.5; stroke-linecap: square"/>
    </g>
    <g id="text_16">
     <!-- G -->
     <g transform="translate(616.99375 64.633125) scale(0.2 -0.2)">
      <use xlink:href="#DejaVuSans-47"/>
     </g>
    </g>
    <g id="line2d_16">
     <path d="M 560.99375 86.989375 
L 580.99375 86.989375 
L 600.99375 86.989375 
" style="fill: none; stroke: #ff7f0e; stroke-width: 1.5; stroke-linecap: square"/>
    </g>
    <g id="text_17">
     <!-- D -->
     <g transform="translate(616.99375 93.989375) scale(0.2 -0.2)">
      <use xlink:href="#DejaVuSans-44"/>
     </g>
    </g>
   </g>
  </g>
 </g>
 <defs>
  <clipPath id="p9f954b4aea">
   <rect x="92.490625" y="31.43625" width="558" height="277.2"/>
  </clipPath>
 </defs>
</svg>
