<?xml version="1.0" encoding="utf-8" standalone="no"?>
<!DOCTYPE svg PUBLIC "-//W3C//DTD SVG 1.1//EN"
  "http://www.w3.org/Graphics/SVG/1.1/DTD/svg11.dtd">
<svg xmlns:xlink="http://www.w3.org/1999/xlink" width="675.923125pt" height="365.54875pt" viewBox="0 0 675.923125 365.54875" xmlns="http://www.w3.org/2000/svg" version="1.1">
 <metadata>
  <rdf:RDF xmlns:dc="http://purl.org/dc/elements/1.1/" xmlns:cc="http://creativecommons.org/ns#" xmlns:rdf="http://www.w3.org/1999/02/22-rdf-syntax-ns#">
   <cc:Work>
    <dc:type rdf:resource="http://purl.org/dc/dcmitype/StillImage"/>
    <dc:date>2024-02-01T21:28:35.380985</dc:date>
    <dc:format>image/svg+xml</dc:format>
    <dc:creator>
     <cc:Agent>
      <dc:title>Matplotlib v3.7.2, https://matplotlib.org/</dc:title>
     </cc:Agent>
    </dc:creator>
   </cc:Work>
  </rdf:RDF>
 </metadata>
 <defs>
  <style type="text/css">*{stroke-linejoin: round; stroke-linecap: butt}</style>
 </defs>
 <g id="figure_1">
  <g id="patch_1">
   <path d="M 0 365.54875 
L 675.923125 365.54875 
L 675.923125 -0 
L 0 -0 
z
" style="fill: #ffffff"/>
  </g>
  <g id="axes_1">
   <g id="patch_2">
    <path d="M 92.490625 308.63625 
L 650.490625 308.63625 
L 650.490625 31.43625 
L 92.490625 31.43625 
z
" style="fill: #ffffff"/>
   </g>
   <g id="matplotlib.axis_1">
    <g id="xtick_1">
     <g id="line2d_1">
      <defs>
       <path id="mf3b9629908" d="M 0 0 
L 0 3.5 
" style="stroke: #000000; stroke-width: 0.8"/>
      </defs>
      <g>
       <use xlink:href="#mf3b9629908" x="117.854261" y="308.63625" style="stroke: #000000; stroke-width: 0.8"/>
      </g>
     </g>
     <g id="text_1">
      <!-- 0 -->
      <g transform="translate(111.491761 330.833125) scale(0.2 -0.2)">
       <defs>
        <path id="DejaVuSans-30" d="M 2034 4250 
Q 1547 4250 1301 3770 
Q 1056 3291 1056 2328 
Q 1056 1369 1301 889 
Q 1547 409 2034 409 
Q 2525 409 2770 889 
Q 3016 1369 3016 2328 
Q 3016 3291 2770 3770 
Q 2525 4250 2034 4250 
z
M 2034 4750 
Q 2819 4750 3233 4129 
Q 3647 3509 3647 2328 
Q 3647 1150 3233 529 
Q 2819 -91 2034 -91 
Q 1250 -91 836 529 
Q 422 1150 422 2328 
Q 422 3509 836 4129 
Q 1250 4750 2034 4750 
z
" transform="scale(0.015625)"/>
       </defs>
       <use xlink:href="#DejaVuSans-30"/>
      </g>
     </g>
    </g>
    <g id="xtick_2">
     <g id="line2d_2">
      <g>
       <use xlink:href="#mf3b9629908" x="184.600673" y="308.63625" style="stroke: #000000; stroke-width: 0.8"/>
      </g>
     </g>
     <g id="text_2">
      <!-- 250 -->
      <g transform="translate(165.513173 330.833125) scale(0.2 -0.2)">
       <defs>
        <path id="DejaVuSans-32" d="M 1228 531 
L 3431 531 
L 3431 0 
L 469 0 
L 469 531 
Q 828 903 1448 1529 
Q 2069 2156 2228 2338 
Q 2531 2678 2651 2914 
Q 2772 3150 2772 3378 
Q 2772 3750 2511 3984 
Q 2250 4219 1831 4219 
Q 1534 4219 1204 4116 
Q 875 4013 500 3803 
L 500 4441 
Q 881 4594 1212 4672 
Q 1544 4750 1819 4750 
Q 2544 4750 2975 4387 
Q 3406 4025 3406 3419 
Q 3406 3131 3298 2873 
Q 3191 2616 2906 2266 
Q 2828 2175 2409 1742 
Q 1991 1309 1228 531 
z
" transform="scale(0.015625)"/>
        <path id="DejaVuSans-35" d="M 691 4666 
L 3169 4666 
L 3169 4134 
L 1269 4134 
L 1269 2991 
Q 1406 3038 1543 3061 
Q 1681 3084 1819 3084 
Q 2600 3084 3056 2656 
Q 3513 2228 3513 1497 
Q 3513 744 3044 326 
Q 2575 -91 1722 -91 
Q 1428 -91 1123 -41 
Q 819 9 494 109 
L 494 744 
Q 775 591 1075 516 
Q 1375 441 1709 441 
Q 2250 441 2565 725 
Q 2881 1009 2881 1497 
Q 2881 1984 2565 2268 
Q 2250 2553 1709 2553 
Q 1456 2553 1204 2497 
Q 953 2441 691 2322 
L 691 4666 
z
" transform="scale(0.015625)"/>
       </defs>
       <use xlink:href="#DejaVuSans-32"/>
       <use xlink:href="#DejaVuSans-35" x="63.623047"/>
       <use xlink:href="#DejaVuSans-30" x="127.246094"/>
      </g>
     </g>
    </g>
    <g id="xtick_3">
     <g id="line2d_3">
      <g>
       <use xlink:href="#mf3b9629908" x="251.347084" y="308.63625" style="stroke: #000000; stroke-width: 0.8"/>
      </g>
     </g>
     <g id="text_3">
      <!-- 500 -->
      <g transform="translate(232.259584 330.833125) scale(0.2 -0.2)">
       <use xlink:href="#DejaVuSans-35"/>
       <use xlink:href="#DejaVuSans-30" x="63.623047"/>
       <use xlink:href="#DejaVuSans-30" x="127.246094"/>
      </g>
     </g>
    </g>
    <g id="xtick_4">
     <g id="line2d_4">
      <g>
       <use xlink:href="#mf3b9629908" x="318.093496" y="308.63625" style="stroke: #000000; stroke-width: 0.8"/>
      </g>
     </g>
     <g id="text_4">
      <!-- 750 -->
      <g transform="translate(299.005996 330.833125) scale(0.2 -0.2)">
       <defs>
        <path id="DejaVuSans-37" d="M 525 4666 
L 3525 4666 
L 3525 4397 
L 1831 0 
L 1172 0 
L 2766 4134 
L 525 4134 
L 525 4666 
z
" transform="scale(0.015625)"/>
       </defs>
       <use xlink:href="#DejaVuSans-37"/>
       <use xlink:href="#DejaVuSans-35" x="63.623047"/>
       <use xlink:href="#DejaVuSans-30" x="127.246094"/>
      </g>
     </g>
    </g>
    <g id="xtick_5">
     <g id="line2d_5">
      <g>
       <use xlink:href="#mf3b9629908" x="384.839907" y="308.63625" style="stroke: #000000; stroke-width: 0.8"/>
      </g>
     </g>
     <g id="text_5">
      <!-- 1000 -->
      <g transform="translate(359.389907 330.833125) scale(0.2 -0.2)">
       <defs>
        <path id="DejaVuSans-31" d="M 794 531 
L 1825 531 
L 1825 4091 
L 703 3866 
L 703 4441 
L 1819 4666 
L 2450 4666 
L 2450 531 
L 3481 531 
L 3481 0 
L 794 0 
L 794 531 
z
" transform="scale(0.015625)"/>
       </defs>
       <use xlink:href="#DejaVuSans-31"/>
       <use xlink:href="#DejaVuSans-30" x="63.623047"/>
       <use xlink:href="#DejaVuSans-30" x="127.246094"/>
       <use xlink:href="#DejaVuSans-30" x="190.869141"/>
      </g>
     </g>
    </g>
    <g id="xtick_6">
     <g id="line2d_6">
      <g>
       <use xlink:href="#mf3b9629908" x="451.586319" y="308.63625" style="stroke: #000000; stroke-width: 0.8"/>
      </g>
     </g>
     <g id="text_6">
      <!-- 1250 -->
      <g transform="translate(426.136319 330.833125) scale(0.2 -0.2)">
       <use xlink:href="#DejaVuSans-31"/>
       <use xlink:href="#DejaVuSans-32" x="63.623047"/>
       <use xlink:href="#DejaVuSans-35" x="127.246094"/>
       <use xlink:href="#DejaVuSans-30" x="190.869141"/>
      </g>
     </g>
    </g>
    <g id="xtick_7">
     <g id="line2d_7">
      <g>
       <use xlink:href="#mf3b9629908" x="518.33273" y="308.63625" style="stroke: #000000; stroke-width: 0.8"/>
      </g>
     </g>
     <g id="text_7">
      <!-- 1500 -->
      <g transform="translate(492.88273 330.833125) scale(0.2 -0.2)">
       <use xlink:href="#DejaVuSans-31"/>
       <use xlink:href="#DejaVuSans-35" x="63.623047"/>
       <use xlink:href="#DejaVuSans-30" x="127.246094"/>
       <use xlink:href="#DejaVuSans-30" x="190.869141"/>
      </g>
     </g>
    </g>
    <g id="xtick_8">
     <g id="line2d_8">
      <g>
       <use xlink:href="#mf3b9629908" x="585.079142" y="308.63625" style="stroke: #000000; stroke-width: 0.8"/>
      </g>
     </g>
     <g id="text_8">
      <!-- 1750 -->
      <g transform="translate(559.629142 330.833125) scale(0.2 -0.2)">
       <use xlink:href="#DejaVuSans-31"/>
       <use xlink:href="#DejaVuSans-37" x="63.623047"/>
       <use xlink:href="#DejaVuSans-35" x="127.246094"/>
       <use xlink:href="#DejaVuSans-30" x="190.869141"/>
      </g>
     </g>
    </g>
    <g id="text_9">
     <!-- iterations -->
     <g transform="translate(324.035938 354.189375) scale(0.2 -0.2)">
      <defs>
       <path id="DejaVuSans-69" d="M 603 3500 
L 1178 3500 
L 1178 0 
L 603 0 
L 603 3500 
z
M 603 4863 
L 1178 4863 
L 1178 4134 
L 603 4134 
L 603 4863 
z
" transform="scale(0.015625)"/>
       <path id="DejaVuSans-74" d="M 1172 4494 
L 1172 3500 
L 2356 3500 
L 2356 3053 
L 1172 3053 
L 1172 1153 
Q 1172 725 1289 603 
Q 1406 481 1766 481 
L 2356 481 
L 2356 0 
L 1766 0 
Q 1100 0 847 248 
Q 594 497 594 1153 
L 594 3053 
L 172 3053 
L 172 3500 
L 594 3500 
L 594 4494 
L 1172 4494 
z
" transform="scale(0.015625)"/>
       <path id="DejaVuSans-65" d="M 3597 1894 
L 3597 1613 
L 953 1613 
Q 991 1019 1311 708 
Q 1631 397 2203 397 
Q 2534 397 2845 478 
Q 3156 559 3463 722 
L 3463 178 
Q 3153 47 2828 -22 
Q 2503 -91 2169 -91 
Q 1331 -91 842 396 
Q 353 884 353 1716 
Q 353 2575 817 3079 
Q 1281 3584 2069 3584 
Q 2775 3584 3186 3129 
Q 3597 2675 3597 1894 
z
M 3022 2063 
Q 3016 2534 2758 2815 
Q 2500 3097 2075 3097 
Q 1594 3097 1305 2825 
Q 1016 2553 972 2059 
L 3022 2063 
z
" transform="scale(0.015625)"/>
       <path id="DejaVuSans-72" d="M 2631 2963 
Q 2534 3019 2420 3045 
Q 2306 3072 2169 3072 
Q 1681 3072 1420 2755 
Q 1159 2438 1159 1844 
L 1159 0 
L 581 0 
L 581 3500 
L 1159 3500 
L 1159 2956 
Q 1341 3275 1631 3429 
Q 1922 3584 2338 3584 
Q 2397 3584 2469 3576 
Q 2541 3569 2628 3553 
L 2631 2963 
z
" transform="scale(0.015625)"/>
       <path id="DejaVuSans-61" d="M 2194 1759 
Q 1497 1759 1228 1600 
Q 959 1441 959 1056 
Q 959 750 1161 570 
Q 1363 391 1709 391 
Q 2188 391 2477 730 
Q 2766 1069 2766 1631 
L 2766 1759 
L 2194 1759 
z
M 3341 1997 
L 3341 0 
L 2766 0 
L 2766 531 
Q 2569 213 2275 61 
Q 1981 -91 1556 -91 
Q 1019 -91 701 211 
Q 384 513 384 1019 
Q 384 1609 779 1909 
Q 1175 2209 1959 2209 
L 2766 2209 
L 2766 2266 
Q 2766 2663 2505 2880 
Q 2244 3097 1772 3097 
Q 1472 3097 1187 3025 
Q 903 2953 641 2809 
L 641 3341 
Q 956 3463 1253 3523 
Q 1550 3584 1831 3584 
Q 2591 3584 2966 3190 
Q 3341 2797 3341 1997 
z
" transform="scale(0.015625)"/>
       <path id="DejaVuSans-6f" d="M 1959 3097 
Q 1497 3097 1228 2736 
Q 959 2375 959 1747 
Q 959 1119 1226 758 
Q 1494 397 1959 397 
Q 2419 397 2687 759 
Q 2956 1122 2956 1747 
Q 2956 2369 2687 2733 
Q 2419 3097 1959 3097 
z
M 1959 3584 
Q 2709 3584 3137 3096 
Q 3566 2609 3566 1747 
Q 3566 888 3137 398 
Q 2709 -91 1959 -91 
Q 1206 -91 779 398 
Q 353 888 353 1747 
Q 353 2609 779 3096 
Q 1206 3584 1959 3584 
z
" transform="scale(0.015625)"/>
       <path id="DejaVuSans-6e" d="M 3513 2113 
L 3513 0 
L 2938 0 
L 2938 2094 
Q 2938 2591 2744 2837 
Q 2550 3084 2163 3084 
Q 1697 3084 1428 2787 
Q 1159 2491 1159 1978 
L 1159 0 
L 581 0 
L 581 3500 
L 1159 3500 
L 1159 2956 
Q 1366 3272 1645 3428 
Q 1925 3584 2291 3584 
Q 2894 3584 3203 3211 
Q 3513 2838 3513 2113 
z
" transform="scale(0.015625)"/>
       <path id="DejaVuSans-73" d="M 2834 3397 
L 2834 2853 
Q 2591 2978 2328 3040 
Q 2066 3103 1784 3103 
Q 1356 3103 1142 2972 
Q 928 2841 928 2578 
Q 928 2378 1081 2264 
Q 1234 2150 1697 2047 
L 1894 2003 
Q 2506 1872 2764 1633 
Q 3022 1394 3022 966 
Q 3022 478 2636 193 
Q 2250 -91 1575 -91 
Q 1294 -91 989 -36 
Q 684 19 347 128 
L 347 722 
Q 666 556 975 473 
Q 1284 391 1588 391 
Q 1994 391 2212 530 
Q 2431 669 2431 922 
Q 2431 1156 2273 1281 
Q 2116 1406 1581 1522 
L 1381 1569 
Q 847 1681 609 1914 
Q 372 2147 372 2553 
Q 372 3047 722 3315 
Q 1072 3584 1716 3584 
Q 2034 3584 2315 3537 
Q 2597 3491 2834 3397 
z
" transform="scale(0.015625)"/>
      </defs>
      <use xlink:href="#DejaVuSans-69"/>
      <use xlink:href="#DejaVuSans-74" x="27.783203"/>
      <use xlink:href="#DejaVuSans-65" x="66.992188"/>
      <use xlink:href="#DejaVuSans-72" x="128.515625"/>
      <use xlink:href="#DejaVuSans-61" x="169.628906"/>
      <use xlink:href="#DejaVuSans-74" x="230.908203"/>
      <use xlink:href="#DejaVuSans-69" x="270.117188"/>
      <use xlink:href="#DejaVuSans-6f" x="297.900391"/>
      <use xlink:href="#DejaVuSans-6e" x="359.082031"/>
      <use xlink:href="#DejaVuSans-73" x="422.460938"/>
     </g>
    </g>
   </g>
   <g id="matplotlib.axis_2">
    <g id="ytick_1">
     <g id="line2d_9">
      <defs>
       <path id="m3c2c05a022" d="M 0 0 
L -3.5 0 
" style="stroke: #000000; stroke-width: 0.8"/>
      </defs>
      <g>
       <use xlink:href="#m3c2c05a022" x="92.490625" y="234.626549" style="stroke: #000000; stroke-width: 0.8"/>
      </g>
     </g>
     <g id="text_10">
      <!-- −200 -->
      <g transform="translate(30.55625 242.224987) scale(0.2 -0.2)">
       <defs>
        <path id="DejaVuSans-2212" d="M 678 2272 
L 4684 2272 
L 4684 1741 
L 678 1741 
L 678 2272 
z
" transform="scale(0.015625)"/>
       </defs>
       <use xlink:href="#DejaVuSans-2212"/>
       <use xlink:href="#DejaVuSans-32" x="83.789062"/>
       <use xlink:href="#DejaVuSans-30" x="147.412109"/>
       <use xlink:href="#DejaVuSans-30" x="211.035156"/>
      </g>
     </g>
    </g>
    <g id="ytick_2">
     <g id="line2d_10">
      <g>
       <use xlink:href="#m3c2c05a022" x="92.490625" y="151.376755" style="stroke: #000000; stroke-width: 0.8"/>
      </g>
     </g>
     <g id="text_11">
      <!-- 0 -->
      <g transform="translate(72.765625 158.975193) scale(0.2 -0.2)">
       <use xlink:href="#DejaVuSans-30"/>
      </g>
     </g>
    </g>
    <g id="ytick_3">
     <g id="line2d_11">
      <g>
       <use xlink:href="#m3c2c05a022" x="92.490625" y="68.126962" style="stroke: #000000; stroke-width: 0.8"/>
      </g>
     </g>
     <g id="text_12">
      <!-- 200 -->
      <g transform="translate(47.315625 75.725399) scale(0.2 -0.2)">
       <use xlink:href="#DejaVuSans-32"/>
       <use xlink:href="#DejaVuSans-30" x="63.623047"/>
       <use xlink:href="#DejaVuSans-30" x="127.246094"/>
      </g>
     </g>
    </g>
    <g id="text_13">
     <!-- Loss -->
     <g transform="translate(22.396875 191.970625) rotate(-90) scale(0.2 -0.2)">
      <defs>
       <path id="DejaVuSans-4c" d="M 628 4666 
L 1259 4666 
L 1259 531 
L 3531 531 
L 3531 0 
L 628 0 
L 628 4666 
z
" transform="scale(0.015625)"/>
      </defs>
      <use xlink:href="#DejaVuSans-4c"/>
      <use xlink:href="#DejaVuSans-6f" x="53.962891"/>
      <use xlink:href="#DejaVuSans-73" x="115.144531"/>
      <use xlink:href="#DejaVuSans-73" x="167.244141"/>
     </g>
    </g>
   </g>
   <g id="line2d_12">
    <path d="M 117.854261 114.726306 
L 118.121247 106.081918 
L 118.388233 66.645135 
L 118.655218 44.03625 
L 118.922204 55.607746 
L 119.18919 116.630126 
L 119.456175 138.664661 
L 119.723161 137.321124 
L 119.990147 122.741893 
L 120.257132 120.788415 
L 120.524118 127.999278 
L 120.791103 122.989826 
L 121.058089 108.458537 
L 121.325075 122.646974 
L 121.59206 126.556792 
L 122.126032 120.201515 
L 122.393017 126.255443 
L 122.660003 122.797609 
L 122.926989 127.006439 
L 123.193974 118.64052 
L 123.46096 124.366742 
L 123.727946 117.662909 
L 123.994931 117.330772 
L 124.261917 114.695364 
L 124.528903 107.764658 
L 124.795888 108.435758 
L 125.329859 106.219874 
L 125.596845 110.116506 
L 126.130816 103.735206 
L 126.397802 107.114803 
L 126.664788 106.33327 
L 126.931773 103.507469 
L 127.198759 108.842958 
L 127.465745 102.920055 
L 127.73273 108.429686 
L 127.999716 110.936486 
L 128.266702 110.869457 
L 128.533687 106.939005 
L 128.800673 105.409875 
L 129.067658 110.445841 
L 129.334644 111.131011 
L 129.60163 113.912796 
L 129.868615 112.411065 
L 130.135601 111.591078 
L 130.402587 112.594274 
L 130.669572 115.130586 
L 130.936558 112.662515 
L 131.203544 111.560611 
L 131.470529 112.925905 
L 131.737515 108.346789 
L 132.004501 112.549272 
L 132.271486 114.58122 
L 132.538472 115.179402 
L 132.805458 119.262292 
L 133.072443 117.014571 
L 133.339429 116.380063 
L 133.606414 120.267786 
L 133.8734 120.37667 
L 134.140386 120.879402 
L 134.407371 120.548412 
L 134.674357 123.597646 
L 134.941343 123.431828 
L 135.208328 121.429234 
L 135.475314 122.560572 
L 135.7423 119.85272 
L 136.009285 118.694633 
L 136.543257 118.68102 
L 136.810242 118.119314 
L 137.077228 121.17012 
L 137.611199 116.7473 
L 137.878185 113.297092 
L 138.14517 118.688744 
L 138.412156 120.343387 
L 138.679142 123.308616 
L 139.213113 118.109455 
L 139.747084 123.245243 
L 140.281056 118.407012 
L 140.815027 122.653338 
L 141.082013 123.836576 
L 141.348998 125.744796 
L 141.615984 123.447651 
L 141.882969 128.318527 
L 142.149955 129.080516 
L 142.416941 128.830815 
L 142.683926 128.20745 
L 142.950912 128.76154 
L 143.217898 132.053196 
L 143.484883 133.596636 
L 143.751869 133.934515 
L 144.018855 135.141517 
L 144.28584 135.137063 
L 144.552826 134.780402 
L 144.819812 135.202134 
L 145.086797 135.093015 
L 145.353783 136.905242 
L 145.887754 142.399589 
L 146.15474 142.128559 
L 146.421725 142.779249 
L 146.688711 139.598641 
L 146.955697 140.408307 
L 147.222682 138.506123 
L 147.489668 139.937779 
L 148.557611 135.089312 
L 148.824596 138.125691 
L 149.091582 137.931203 
L 149.358568 136.48173 
L 149.625553 135.887461 
L 150.159525 133.177328 
L 150.42651 135.336782 
L 150.693496 134.894951 
L 150.960481 135.405771 
L 151.227467 135.395858 
L 151.494453 136.106534 
L 151.761438 138.160945 
L 152.29541 138.778501 
L 152.562395 139.328544 
L 152.829381 137.455284 
L 153.096367 138.146409 
L 153.363352 139.584531 
L 153.630338 139.54211 
L 153.897324 140.772087 
L 154.164309 139.328314 
L 154.431295 141.270704 
L 154.965266 138.38691 
L 155.232252 138.267975 
L 155.499237 138.407029 
L 155.766223 138.064147 
L 156.033209 136.366411 
L 156.300194 136.725459 
L 156.56718 137.7051 
L 156.834166 136.859223 
L 157.101151 139.049001 
L 157.368137 137.336016 
L 157.635123 137.257625 
L 157.902108 138.794003 
L 158.169094 138.317046 
L 158.43608 138.127537 
L 158.703065 137.085883 
L 158.970051 140.357201 
L 159.237036 142.188057 
L 159.504022 140.211719 
L 159.771008 141.214973 
L 160.037993 140.469004 
L 160.304979 140.399257 
L 160.571965 137.341402 
L 160.83895 136.956775 
L 161.105936 138.004539 
L 161.372922 141.917493 
L 161.639907 141.394417 
L 162.173879 138.757231 
L 162.440864 139.627896 
L 162.974836 142.544043 
L 163.241821 142.319792 
L 163.508807 139.759331 
L 163.775792 140.416344 
L 164.042778 141.45395 
L 164.309764 141.363625 
L 164.576749 140.978604 
L 164.843735 142.910652 
L 165.110721 142.90158 
L 165.377706 144.549058 
L 165.644692 145.17122 
L 165.911678 145.44887 
L 166.178663 144.416339 
L 166.445649 144.947962 
L 166.712635 143.814591 
L 166.97962 145.207917 
L 167.246606 145.528567 
L 167.513592 144.861957 
L 167.780577 145.227471 
L 168.047563 144.527959 
L 168.314548 145.046411 
L 168.581534 146.68308 
L 168.84852 147.135187 
L 169.382491 143.988933 
L 169.649477 145.81337 
L 169.916462 144.652605 
L 170.183448 145.491722 
L 170.450434 145.544312 
L 170.717419 146.479505 
L 170.984405 145.926367 
L 171.251391 146.569906 
L 171.518376 146.635087 
L 171.785362 145.762171 
L 172.052347 146.892018 
L 172.319333 148.983063 
L 172.586319 148.879743 
L 172.853304 147.783513 
L 173.12029 148.254067 
L 173.387276 147.888736 
L 173.921247 146.202176 
L 174.188233 146.837467 
L 174.455218 146.997663 
L 174.98919 146.666794 
L 175.523161 146.848622 
L 175.790147 146.639285 
L 176.057132 145.433562 
L 176.324118 146.697151 
L 176.591103 146.488051 
L 176.858089 148.265055 
L 177.125075 147.613654 
L 177.39206 147.710403 
L 177.659046 147.419561 
L 177.926032 147.740517 
L 178.193017 146.590609 
L 178.726989 147.987777 
L 179.26096 148.092569 
L 179.527946 147.626153 
L 179.794931 148.346627 
L 180.061917 147.834075 
L 180.328903 146.928657 
L 180.595888 148.067958 
L 180.862874 147.258653 
L 181.129859 148.865305 
L 181.396845 148.410553 
L 181.663831 148.967358 
L 181.930816 149.221557 
L 182.197802 149.822095 
L 182.464788 148.406232 
L 182.731773 148.806973 
L 182.998759 148.539764 
L 183.265745 149.07262 
L 183.799716 148.61838 
L 184.333687 149.440954 
L 184.600673 149.36957 
L 184.867658 150.013568 
L 185.134644 149.776241 
L 185.40163 150.325511 
L 185.668615 149.880589 
L 185.935601 151.162299 
L 186.202587 149.985682 
L 186.469572 151.13516 
L 186.736558 149.965057 
L 187.270529 149.636812 
L 187.537515 150.277934 
L 187.804501 150.130294 
L 188.071486 149.369379 
L 188.338472 148.998461 
L 188.872443 149.411097 
L 189.139429 150.464825 
L 189.406414 150.199464 
L 189.6734 150.562235 
L 189.940386 150.590935 
L 190.207371 151.04972 
L 190.474357 151.841912 
L 191.008328 151.175547 
L 191.275314 152.473986 
L 191.5423 151.552817 
L 191.809285 151.225341 
L 192.076271 151.595681 
L 192.343257 152.660834 
L 192.610242 151.773162 
L 192.877228 152.094372 
L 193.144214 152.17824 
L 193.411199 151.68895 
L 194.212156 152.286212 
L 194.479142 152.200918 
L 194.746127 152.280159 
L 195.013113 151.754625 
L 195.280099 152.272882 
L 195.81407 151.842046 
L 196.081056 152.141914 
L 196.348041 152.770268 
L 196.615027 152.207484 
L 196.882013 152.377094 
L 197.148998 152.188492 
L 197.415984 152.676249 
L 197.682969 151.731846 
L 198.216941 151.345152 
L 198.483926 152.186997 
L 198.750912 152.122104 
L 199.017898 151.359375 
L 199.284883 151.397048 
L 199.551869 151.085501 
L 200.08584 152.610465 
L 200.619812 151.755312 
L 200.886797 151.745505 
L 201.420769 151.233799 
L 202.488711 151.931251 
L 202.755697 150.713665 
L 203.022682 151.562487 
L 203.556654 150.850461 
L 203.823639 150.617443 
L 204.090625 151.580261 
L 204.357611 151.282821 
L 204.624596 151.651857 
L 204.891582 151.11709 
L 205.158568 151.018062 
L 205.425553 149.816142 
L 205.959525 151.54643 
L 206.22651 151.134366 
L 206.493496 150.083957 
L 206.760481 149.856048 
L 207.027467 150.084806 
L 207.561438 150.905625 
L 208.09541 150.592418 
L 208.362395 150.540132 
L 208.629381 150.835766 
L 208.896367 149.605204 
L 209.163352 150.155542 
L 209.430338 148.359728 
L 209.964309 149.470042 
L 210.231295 148.774616 
L 210.498281 149.156396 
L 210.765266 149.200486 
L 211.032252 148.372847 
L 211.299237 148.781279 
L 211.566223 148.915586 
L 211.833209 148.736299 
L 212.100194 148.278376 
L 212.36718 150.048145 
L 212.634166 149.794805 
L 213.168137 147.006615 
L 213.435123 149.701961 
L 213.702108 148.584931 
L 213.969094 150.113674 
L 214.23608 149.148353 
L 214.503065 149.050289 
L 214.770051 149.482133 
L 215.037036 149.221502 
L 215.571008 149.716106 
L 216.104979 149.448828 
L 216.371965 148.575808 
L 216.905936 149.033621 
L 217.172922 149.043221 
L 217.439907 148.766445 
L 217.706893 150.10204 
L 217.973879 149.976308 
L 218.240864 149.01284 
L 218.774836 150.415562 
L 219.041821 150.191345 
L 219.308807 149.765998 
L 219.842778 151.094122 
L 220.109764 150.749297 
L 220.376749 150.748543 
L 220.643735 150.552951 
L 220.910721 150.811243 
L 221.177706 150.267491 
L 221.444692 150.78941 
L 221.711678 151.586957 
L 221.978663 150.325004 
L 222.245649 151.032796 
L 222.512635 150.88367 
L 222.77962 150.884052 
L 223.046606 151.261011 
L 223.313592 150.707683 
L 223.580577 150.648162 
L 223.847563 149.982535 
L 224.114548 150.220711 
L 224.381534 150.660541 
L 224.64852 150.245039 
L 224.915505 151.090624 
L 225.182491 151.255264 
L 225.449477 150.92556 
L 225.716462 151.095426 
L 225.983448 151.622911 
L 226.250434 151.330097 
L 226.517419 151.27642 
L 226.784405 151.926709 
L 227.051391 151.644614 
L 227.318376 151.748004 
L 227.585362 151.589741 
L 227.852347 151.096936 
L 228.119333 151.232504 
L 228.386319 152.274212 
L 228.653304 151.431557 
L 228.92029 152.15493 
L 229.187276 150.750337 
L 229.454261 151.642762 
L 229.721247 152.003527 
L 229.988233 151.370928 
L 230.255218 151.81159 
L 231.056175 152.347011 
L 231.323161 152.287551 
L 231.590147 152.792889 
L 231.857132 152.330353 
L 232.124118 152.840892 
L 232.391103 152.952117 
L 232.658089 152.415944 
L 232.925075 152.560223 
L 233.19206 151.791173 
L 233.459046 151.744005 
L 233.726032 151.92552 
L 233.993017 151.236089 
L 234.260003 151.001596 
L 234.526989 152.275131 
L 234.793974 151.230055 
L 235.594931 152.57704 
L 236.128903 151.791563 
L 236.395888 152.511252 
L 236.662874 151.929362 
L 236.929859 152.536765 
L 237.196845 151.959364 
L 237.463831 152.067056 
L 237.730816 152.043511 
L 238.264788 152.304802 
L 238.531773 151.700389 
L 239.065745 151.287794 
L 239.599716 152.210526 
L 239.866702 152.047336 
L 240.133687 152.215515 
L 240.400673 151.418016 
L 240.667658 151.783619 
L 241.20163 151.755368 
L 241.468615 152.372138 
L 242.002587 152.398249 
L 242.536558 152.143606 
L 242.803544 152.661245 
L 243.070529 152.418168 
L 243.337515 151.076607 
L 243.604501 152.230132 
L 243.871486 152.254543 
L 244.138472 152.085501 
L 244.405458 152.097016 
L 244.939429 151.575627 
L 245.4734 151.848856 
L 245.740386 151.953318 
L 246.007371 152.623378 
L 246.541343 151.842257 
L 246.808328 152.267785 
L 247.3423 152.143958 
L 247.609285 150.987889 
L 248.143257 151.975647 
L 248.410242 151.998391 
L 248.677228 151.335571 
L 248.944214 151.682935 
L 249.211199 152.632733 
L 249.478185 152.19404 
L 250.279142 151.946123 
L 250.546127 152.200519 
L 250.813113 152.193347 
L 251.080099 151.984494 
L 251.61407 152.365496 
L 251.881056 152.266247 
L 252.148041 151.934436 
L 252.415027 152.40168 
L 252.682013 152.065543 
L 252.948998 151.446763 
L 253.215984 151.828722 
L 253.482969 151.947018 
L 253.749955 152.448695 
L 254.283926 151.506004 
L 254.550912 151.857779 
L 254.817898 151.871857 
L 255.084883 151.079205 
L 255.351869 151.507201 
L 255.618855 151.45044 
L 255.88584 151.647678 
L 256.152826 151.448021 
L 256.419812 151.495779 
L 256.686797 150.817983 
L 256.953783 151.706664 
L 257.220769 151.308106 
L 257.487754 151.276547 
L 257.75474 151.5955 
L 258.021725 151.62933 
L 258.288711 151.070949 
L 258.555697 151.645706 
L 258.822682 151.69572 
L 259.356654 151.149644 
L 259.623639 151.458323 
L 259.890625 151.46821 
L 260.157611 152.024571 
L 260.424596 152.047261 
L 260.691582 151.13832 
L 260.958568 151.604247 
L 261.225553 151.562435 
L 261.492539 151.300639 
L 261.759525 151.701181 
L 262.02651 151.454309 
L 262.293496 151.537243 
L 262.560481 151.037532 
L 262.827467 151.344607 
L 263.094453 151.194195 
L 263.361438 151.298938 
L 263.89541 151.177206 
L 264.162395 151.24606 
L 264.696367 151.801094 
L 264.963352 151.715007 
L 265.230338 151.495821 
L 265.497324 151.575049 
L 265.764309 152.208455 
L 266.031295 151.707065 
L 266.298281 151.726826 
L 266.565266 151.988182 
L 266.832252 152.692704 
L 267.099237 152.089559 
L 267.633209 152.427433 
L 267.900194 152.218327 
L 268.16718 152.372906 
L 268.434166 152.029724 
L 268.701151 152.286971 
L 268.968137 151.970467 
L 269.235123 152.555662 
L 269.502108 152.245332 
L 270.03608 152.541199 
L 270.303065 151.979995 
L 270.570051 152.520662 
L 270.837036 152.584042 
L 271.104022 152.14573 
L 271.371008 152.190755 
L 271.637993 151.690852 
L 271.904979 152.114592 
L 272.171965 152.29273 
L 272.705936 152.107116 
L 272.972922 152.648587 
L 273.239907 152.284687 
L 273.773879 152.570828 
L 274.040864 151.94545 
L 274.30785 152.373726 
L 274.841821 152.544228 
L 275.108807 152.822214 
L 275.642778 152.090089 
L 275.909764 152.535167 
L 276.443735 152.221624 
L 276.710721 152.436898 
L 276.977706 152.35947 
L 277.511678 152.520215 
L 277.778663 153.016444 
L 278.045649 151.731253 
L 278.312635 152.950878 
L 278.57962 152.456644 
L 279.113592 152.995511 
L 279.380577 152.141711 
L 279.647563 152.638712 
L 279.914548 152.800987 
L 280.44852 152.785811 
L 280.715505 152.008473 
L 280.982491 152.737062 
L 281.249477 152.400565 
L 281.516462 152.305675 
L 281.783448 151.975513 
L 282.050434 152.573437 
L 282.317419 151.750127 
L 282.584405 152.303332 
L 282.851391 148.524838 
L 283.118376 151.957175 
L 283.385362 151.768497 
L 283.652347 151.228879 
L 283.919333 149.876511 
L 284.186319 150.908245 
L 284.453304 150.634714 
L 284.72029 150.781189 
L 284.987276 151.133643 
L 285.254261 150.985306 
L 285.521247 151.421726 
L 285.788233 151.07346 
L 286.322204 151.445347 
L 286.58919 151.544725 
L 286.856175 151.284326 
L 287.123161 151.233488 
L 287.657132 152.068305 
L 287.924118 151.888559 
L 288.191103 152.299186 
L 288.458089 152.396925 
L 288.725075 152.804566 
L 288.99206 151.928435 
L 289.526032 151.75361 
L 289.793017 152.006023 
L 290.060003 152.058703 
L 290.326989 151.994579 
L 290.593974 151.590229 
L 291.127946 151.647107 
L 291.394931 151.896192 
L 291.661917 151.728772 
L 292.195888 151.971596 
L 292.462874 151.477873 
L 292.996845 152.194692 
L 293.797802 152.161486 
L 294.064788 151.747277 
L 294.331773 151.809392 
L 294.598759 152.215417 
L 294.865745 152.396104 
L 295.13273 152.099389 
L 295.399716 152.378092 
L 296.200673 152.240698 
L 296.467658 151.902568 
L 296.734644 152.467766 
L 297.00163 152.124655 
L 297.268615 152.70934 
L 297.535601 152.230334 
L 297.802587 152.155856 
L 298.069572 152.355853 
L 298.336558 152.094614 
L 298.603544 152.597834 
L 298.870529 152.284626 
L 299.137515 151.680398 
L 299.404501 152.298811 
L 299.671486 152.390976 
L 299.938472 152.345511 
L 300.205458 151.894844 
L 300.472443 151.847075 
L 300.739429 152.100982 
L 301.006414 151.939378 
L 301.2734 152.30459 
L 301.807371 152.323955 
L 302.074357 151.872378 
L 302.341343 152.179649 
L 302.608328 152.235323 
L 302.875314 151.742924 
L 303.1423 151.994381 
L 303.409285 151.714282 
L 303.676271 152.59086 
L 303.943257 152.371201 
L 304.210242 152.410087 
L 304.477228 151.979833 
L 304.744214 152.13412 
L 305.278185 151.953103 
L 305.54517 152.663517 
L 305.812156 152.850887 
L 306.079142 152.335265 
L 306.346127 152.093904 
L 306.613113 152.09731 
L 306.880099 151.861739 
L 307.147084 152.22775 
L 307.41407 152.143963 
L 307.681056 151.920261 
L 307.948041 152.292448 
L 308.482013 151.608838 
L 308.748998 151.884717 
L 309.015984 151.948034 
L 309.549955 151.885639 
L 309.816941 151.98697 
L 310.083926 151.792668 
L 310.350912 151.911078 
L 310.617898 151.859503 
L 311.151869 151.98688 
L 311.418855 152.018334 
L 311.68584 152.415296 
L 312.219812 151.914235 
L 312.486797 151.89707 
L 313.020769 152.22128 
L 314.088711 151.399755 
L 314.355697 152.082493 
L 314.622682 151.858426 
L 314.889668 151.14337 
L 315.156654 151.339535 
L 315.423639 151.059344 
L 315.690625 151.37599 
L 316.491582 151.377481 
L 316.758568 151.680836 
L 317.292539 151.543694 
L 317.559525 150.926786 
L 318.093496 151.767019 
L 318.360481 151.616761 
L 318.627467 151.706296 
L 318.894453 151.076738 
L 319.161438 151.587845 
L 319.428424 151.442994 
L 319.69541 151.430316 
L 319.962395 151.547727 
L 320.229381 151.213943 
L 320.496367 151.582079 
L 320.763352 151.353998 
L 321.297324 151.507801 
L 321.831295 151.177908 
L 322.098281 151.384978 
L 322.899237 151.092115 
L 323.166223 151.176657 
L 323.433209 151.640328 
L 323.96718 151.604892 
L 324.234166 151.570655 
L 324.501151 151.945732 
L 325.035123 151.938915 
L 325.302108 151.661181 
L 325.569094 151.550083 
L 325.83608 151.205932 
L 326.370051 151.191742 
L 326.637036 151.686735 
L 326.904022 151.613083 
L 327.171008 151.852518 
L 327.437993 151.679496 
L 327.971965 152.207215 
L 329.573879 151.367225 
L 329.840864 151.667476 
L 330.374836 151.296849 
L 330.641821 151.849446 
L 330.908807 151.805784 
L 331.175792 151.328364 
L 331.442778 151.674293 
L 331.709764 151.743831 
L 331.976749 152.042436 
L 332.243735 151.830819 
L 332.510721 151.370385 
L 333.044692 151.709383 
L 333.311678 151.443255 
L 333.578663 151.744608 
L 333.845649 151.368646 
L 334.112635 151.488061 
L 334.37962 151.828688 
L 334.646606 151.146687 
L 334.913592 151.689779 
L 335.180577 151.498835 
L 335.714548 151.770987 
L 335.981534 151.543286 
L 336.24852 150.945401 
L 336.515505 151.778396 
L 336.782491 151.49887 
L 337.316462 151.858059 
L 337.850434 151.134675 
L 338.117419 151.486843 
L 338.384405 151.396916 
L 338.651391 151.719428 
L 338.918376 151.424326 
L 339.185362 151.788686 
L 339.452347 151.564222 
L 339.719333 151.705691 
L 339.986319 151.996654 
L 340.253304 151.92431 
L 340.52029 151.704387 
L 340.787276 152.328413 
L 341.321247 152.27705 
L 341.588233 151.88783 
L 342.38919 151.92844 
L 342.656175 152.307681 
L 343.190147 152.183362 
L 343.724118 152.189478 
L 343.991103 152.038944 
L 344.258089 152.635119 
L 344.525075 152.101613 
L 344.79206 151.938368 
L 345.059046 152.079164 
L 345.326032 151.71079 
L 345.593017 151.797494 
L 345.860003 151.646745 
L 346.126989 152.143108 
L 346.393974 151.99021 
L 346.66096 152.18414 
L 346.927946 152.22808 
L 347.461917 151.906362 
L 347.728903 151.692709 
L 347.995888 151.910702 
L 348.262874 151.764202 
L 348.796845 151.699157 
L 349.063831 152.14054 
L 349.330816 151.37151 
L 349.864788 151.766142 
L 350.398759 151.713636 
L 350.665745 151.875768 
L 350.93273 151.39868 
L 351.199716 151.225943 
L 351.466702 151.535501 
L 351.733687 151.645419 
L 352.000673 151.240036 
L 352.534644 151.689344 
L 353.869572 151.53041 
L 354.136558 151.307105 
L 354.403544 151.856963 
L 354.937515 151.503902 
L 355.204501 151.979471 
L 355.471486 151.697348 
L 355.738472 151.934772 
L 356.005458 151.508816 
L 356.272443 152.151504 
L 356.539429 151.747737 
L 356.806414 151.834478 
L 357.0734 152.265236 
L 357.340386 151.941584 
L 357.607371 151.934039 
L 357.874357 151.171931 
L 358.141343 151.802155 
L 358.408328 152.066033 
L 358.9423 151.545989 
L 359.476271 151.575974 
L 359.743257 151.873294 
L 360.010242 151.918905 
L 360.277228 151.736145 
L 360.544214 151.989589 
L 360.811199 151.574647 
L 361.078185 151.879342 
L 361.879142 151.910117 
L 362.146127 151.70139 
L 362.413113 151.937435 
L 362.680099 152.009852 
L 362.947084 151.533277 
L 363.481056 152.084454 
L 363.748041 151.590728 
L 364.282013 152.446118 
L 364.815984 151.724952 
L 365.349955 152.141755 
L 365.616941 151.898353 
L 365.883926 152.1334 
L 366.150912 152.032246 
L 366.417898 152.398274 
L 366.684883 151.485606 
L 366.951869 151.919006 
L 367.218855 151.88307 
L 367.48584 151.55212 
L 367.752826 151.715725 
L 368.019812 152.216185 
L 368.553783 151.526062 
L 368.820769 151.839099 
L 369.087754 152.344255 
L 369.35474 152.354418 
L 369.621725 151.937689 
L 369.888711 151.854042 
L 370.422682 152.403465 
L 370.689668 151.928993 
L 371.490625 152.361175 
L 372.024596 152.27399 
L 372.291582 152.385159 
L 372.558568 151.892379 
L 373.359525 152.244459 
L 373.62651 151.72125 
L 373.893496 152.643585 
L 374.160481 152.199328 
L 374.427467 152.058942 
L 374.694453 152.411634 
L 375.228424 151.943532 
L 375.49541 151.985253 
L 376.029381 151.866921 
L 376.296367 151.978894 
L 376.563352 152.516977 
L 376.830338 152.155609 
L 377.097324 152.389905 
L 377.364309 152.072178 
L 377.631295 152.703306 
L 377.898281 152.95425 
L 378.165266 152.619859 
L 378.699237 152.332556 
L 379.233209 152.769971 
L 379.76718 152.24283 
L 380.301151 152.833334 
L 380.568137 152.80824 
L 380.835123 152.291823 
L 381.102108 152.833655 
L 381.63608 152.210842 
L 382.170051 152.278928 
L 382.704022 152.356118 
L 382.971008 152.226534 
L 383.237993 152.465522 
L 383.504979 152.474592 
L 383.771965 152.221023 
L 384.03895 152.302501 
L 384.305936 152.05563 
L 384.839907 152.459694 
L 385.106893 152.101627 
L 385.373879 152.179048 
L 385.640864 152.103387 
L 385.90785 152.219353 
L 386.174836 152.510258 
L 386.441821 152.273396 
L 386.708807 152.398583 
L 387.242778 152.125431 
L 387.509764 152.171389 
L 387.776749 151.970359 
L 388.043735 152.253858 
L 388.310721 152.200606 
L 388.577706 152.397954 
L 388.844692 152.317683 
L 389.111678 152.115818 
L 389.645649 152.208094 
L 389.912635 151.816096 
L 390.17962 152.263418 
L 390.446606 152.06862 
L 390.713592 152.056638 
L 390.980577 152.361283 
L 391.247563 152.3193 
L 391.514548 151.907125 
L 391.781534 152.04794 
L 392.04852 152.353644 
L 392.315505 152.087623 
L 392.582491 152.359963 
L 392.849477 152.294126 
L 393.116462 152.614881 
L 393.383448 152.20847 
L 393.650434 152.351788 
L 393.917419 152.690721 
L 394.718376 151.781281 
L 394.985362 152.120058 
L 395.252347 152.27773 
L 395.786319 151.806116 
L 396.053304 152.353814 
L 396.32029 151.890548 
L 396.587276 152.196915 
L 396.854261 151.925702 
L 397.388233 151.948349 
L 397.922204 152.060363 
L 398.18919 152.072341 
L 398.723161 152.921489 
L 399.257132 152.006672 
L 399.524118 152.520321 
L 399.791103 152.654111 
L 400.058089 152.500869 
L 400.325075 151.963768 
L 400.59206 151.764147 
L 400.859046 152.336932 
L 401.126032 151.989874 
L 401.660003 152.021301 
L 401.926989 152.29921 
L 402.193974 152.317879 
L 402.46096 152.627305 
L 402.994931 152.462779 
L 403.261917 152.18155 
L 403.528903 152.654229 
L 403.795888 152.367052 
L 404.062874 152.439632 
L 404.596845 152.247902 
L 404.863831 152.307977 
L 405.130816 152.507178 
L 405.397802 152.42275 
L 405.931773 152.686774 
L 406.198759 152.495383 
L 406.465745 152.551822 
L 406.73273 152.895301 
L 406.999716 152.279384 
L 407.266702 152.848113 
L 407.533687 152.753765 
L 407.800673 152.488698 
L 408.067658 152.949287 
L 408.334644 152.571899 
L 408.60163 152.693882 
L 408.868615 152.64935 
L 409.135601 152.353643 
L 409.402587 152.669361 
L 409.669572 152.368571 
L 409.936558 152.538901 
L 410.203544 152.843801 
L 410.470529 152.570692 
L 411.004501 152.54439 
L 411.271486 152.787501 
L 412.072443 152.488456 
L 412.8734 153.162053 
L 413.140386 152.986459 
L 413.407371 152.455687 
L 413.674357 153.06156 
L 413.941343 152.777063 
L 414.208328 152.756131 
L 414.475314 153.00796 
L 415.009285 152.882425 
L 415.276271 152.355673 
L 415.543257 152.493841 
L 416.077228 153.210481 
L 416.611199 153.058307 
L 417.14517 152.955914 
L 417.412156 152.74624 
L 417.946127 153.027155 
L 418.213113 152.504372 
L 418.480099 152.859766 
L 419.281056 153.041754 
L 419.548041 152.541584 
L 419.815027 152.417945 
L 420.082013 152.832131 
L 420.348998 152.925445 
L 420.615984 152.586765 
L 421.149955 153.048029 
L 421.416941 152.752645 
L 421.683926 152.626115 
L 422.217898 152.936892 
L 422.484883 152.683649 
L 422.751869 152.911091 
L 423.018855 152.363894 
L 423.28584 153.042916 
L 423.552826 152.990963 
L 423.819812 152.506209 
L 424.086797 152.774364 
L 424.353783 152.52135 
L 424.887754 152.919921 
L 425.15474 152.54567 
L 425.421725 152.87646 
L 425.688711 152.736383 
L 425.955697 153.032834 
L 426.222682 153.108853 
L 426.489668 152.820255 
L 427.023639 152.876966 
L 427.290625 153.321299 
L 427.557611 152.960797 
L 427.824596 152.98893 
L 428.091582 153.202848 
L 429.42651 152.827884 
L 429.693496 153.304688 
L 429.960481 153.046339 
L 430.227467 153.28803 
L 430.494453 153.168489 
L 430.761438 152.752113 
L 431.028424 153.269234 
L 431.29541 153.139193 
L 431.562395 152.812752 
L 432.363352 152.878505 
L 432.630338 153.041601 
L 432.897324 153.015541 
L 433.164309 153.262489 
L 433.698281 152.676142 
L 433.965266 153.009325 
L 434.232252 152.575587 
L 434.766223 152.872476 
L 435.033209 152.953163 
L 435.56718 152.705524 
L 435.834166 152.7006 
L 436.101151 153.317643 
L 436.368137 153.208254 
L 436.635123 152.574833 
L 436.902108 153.190572 
L 437.43608 153.272659 
L 438.237036 153.167297 
L 438.504022 153.395762 
L 438.771008 152.937887 
L 439.037993 153.385975 
L 439.83895 153.064183 
L 441.173879 153.346452 
L 441.440864 152.849626 
L 441.70785 153.348604 
L 441.974836 153.083616 
L 442.241821 153.063849 
L 443.042778 153.460508 
L 443.309764 153.094293 
L 443.576749 153.305938 
L 443.843735 153.136372 
L 444.377706 153.354174 
L 444.644692 153.002398 
L 444.911678 152.853821 
L 445.178663 153.119664 
L 445.712635 152.353978 
L 445.97962 152.973688 
L 446.246606 152.615818 
L 446.513592 152.885859 
L 447.047563 153.080894 
L 447.314548 152.475642 
L 447.84852 153.111158 
L 448.115505 152.834946 
L 448.649477 153.084885 
L 449.183448 153.287478 
L 449.450434 152.899149 
L 449.984405 152.909204 
L 450.251391 152.915387 
L 450.518376 153.399765 
L 450.785362 153.2647 
L 451.052347 152.885833 
L 451.319333 153.286273 
L 451.586319 152.630615 
L 451.853304 153.617197 
L 452.12029 153.268812 
L 452.387276 153.215023 
L 452.654261 153.590197 
L 452.921247 153.722517 
L 453.188233 152.92342 
L 453.455218 153.482382 
L 453.722204 152.757448 
L 453.98919 152.935928 
L 454.256175 153.25308 
L 455.057132 153.696591 
L 455.591103 154.158429 
L 455.858089 153.541019 
L 456.125075 153.952786 
L 456.659046 153.701989 
L 456.926032 153.335836 
L 457.193017 153.582743 
L 457.726989 153.377643 
L 458.26096 153.699386 
L 459.328903 153.434308 
L 459.595888 153.758098 
L 459.862874 153.542321 
L 460.663831 153.698703 
L 461.464788 153.253953 
L 461.731773 153.498585 
L 462.265745 153.51771 
L 462.53273 153.175226 
L 462.799716 153.628483 
L 463.600673 153.407202 
L 464.40163 153.88538 
L 464.668615 154.079353 
L 464.935601 153.52271 
L 465.202587 154.142258 
L 465.469572 153.775613 
L 466.003544 153.691069 
L 466.270529 153.250884 
L 466.537515 153.65295 
L 466.804501 153.240823 
L 467.071486 153.363758 
L 467.338472 153.665132 
L 467.872443 153.547324 
L 468.139429 153.727648 
L 468.406414 153.437601 
L 468.6734 153.591748 
L 468.940386 153.20177 
L 469.207371 153.62279 
L 469.474357 153.613591 
L 469.741343 153.297419 
L 470.008328 153.498631 
L 470.275314 153.269644 
L 470.5423 153.50599 
L 470.809285 153.039009 
L 471.076271 153.420922 
L 471.343257 153.227858 
L 471.610242 153.610846 
L 471.877228 153.223473 
L 472.144214 153.61341 
L 472.411199 153.395769 
L 472.678185 153.530347 
L 473.746127 153.527112 
L 474.280099 153.154881 
L 475.081056 152.945378 
L 475.348041 153.069234 
L 475.615027 152.895172 
L 475.882013 152.954893 
L 476.415984 153.231055 
L 476.682969 152.952159 
L 477.216941 152.711547 
L 477.750912 153.406709 
L 478.017898 153.080918 
L 478.284883 153.18338 
L 478.818855 153.677974 
L 479.352826 152.99729 
L 479.619812 153.279174 
L 479.886797 153.329818 
L 480.153783 153.070421 
L 480.420769 153.08816 
L 480.95474 153.589711 
L 481.221725 153.321398 
L 481.488711 153.503544 
L 481.755697 153.224771 
L 482.022682 153.148529 
L 482.289668 152.935954 
L 482.823639 152.90536 
L 483.090625 152.898195 
L 483.357611 153.30974 
L 484.158568 152.883784 
L 484.425553 153.524074 
L 484.692539 152.95302 
L 484.959525 153.130791 
L 485.22651 153.132953 
L 485.493496 152.785131 
L 485.760481 153.14254 
L 486.027467 152.821081 
L 486.294453 153.039831 
L 486.561438 152.69415 
L 486.828424 152.627309 
L 487.09541 153.250003 
L 487.362395 152.936387 
L 487.629381 152.939571 
L 487.896367 153.188603 
L 488.163352 152.91533 
L 488.430338 153.216382 
L 488.697324 152.989003 
L 489.231295 153.063867 
L 489.765266 153.033201 
L 490.299237 152.855591 
L 490.566223 153.06581 
L 491.100194 152.609432 
L 491.36718 152.722255 
L 491.634166 152.712911 
L 491.901151 152.263852 
L 492.168137 152.351952 
L 492.435123 152.726475 
L 492.969094 152.559372 
L 493.23608 152.80446 
L 493.503065 152.748245 
L 493.770051 152.450868 
L 494.037036 153.044907 
L 494.304022 152.88045 
L 494.571008 152.563451 
L 494.837993 152.538204 
L 495.104979 152.761004 
L 495.63895 152.56896 
L 495.905936 152.841062 
L 496.172922 152.781233 
L 496.706893 152.9799 
L 496.973879 152.620084 
L 497.50785 153.010949 
L 497.774836 152.620599 
L 498.041821 152.759768 
L 498.308807 152.341864 
L 498.575792 152.189816 
L 498.842778 152.232322 
L 499.109764 152.081882 
L 500.177706 152.850663 
L 500.444692 152.606638 
L 500.711678 153.012085 
L 501.245649 152.88128 
L 501.512635 152.959163 
L 501.77962 152.871557 
L 502.046606 152.470064 
L 502.313592 152.464329 
L 502.580577 152.338737 
L 503.114548 152.479379 
L 503.381534 152.213927 
L 503.64852 152.544605 
L 503.915505 152.586562 
L 504.182491 153.004439 
L 504.449477 152.78288 
L 504.716462 153.020857 
L 505.517419 152.70677 
L 505.784405 152.984976 
L 506.051391 152.76254 
L 506.318376 152.826365 
L 506.585362 152.65628 
L 507.119333 152.991104 
L 507.386319 152.631896 
L 507.653304 152.596405 
L 507.92029 152.930498 
L 508.187276 152.517437 
L 508.454261 152.876324 
L 508.721247 152.550556 
L 508.988233 152.638999 
L 509.255218 152.420192 
L 509.522204 152.832896 
L 509.78919 152.470918 
L 510.323161 152.852128 
L 510.857132 152.872129 
L 511.124118 152.538653 
L 511.391103 152.555474 
L 511.658089 152.251174 
L 511.925075 152.721179 
L 512.19206 152.507361 
L 512.726032 152.906622 
L 512.993017 152.66763 
L 513.260003 152.841139 
L 513.526989 152.36401 
L 513.793974 152.966757 
L 514.06096 152.657263 
L 514.327946 152.605128 
L 514.594931 152.158719 
L 515.395888 152.338716 
L 515.662874 152.60879 
L 515.929859 152.278133 
L 516.196845 152.293181 
L 516.463831 152.449185 
L 516.730816 152.372741 
L 516.997802 152.759631 
L 517.264788 152.645883 
L 517.531773 152.224476 
L 518.33273 152.548796 
L 518.866702 151.982525 
L 519.667658 152.47898 
L 519.934644 152.494222 
L 520.20163 152.725815 
L 520.468615 152.493639 
L 520.735601 152.061848 
L 521.002587 152.254294 
L 521.269572 152.296119 
L 521.536558 152.7446 
L 521.803544 152.275565 
L 522.070529 152.610069 
L 522.337515 152.205358 
L 522.871486 152.69851 
L 523.138472 152.198785 
L 523.405458 152.587381 
L 523.672443 152.149128 
L 524.206414 152.576665 
L 525.007371 152.436056 
L 525.274357 152.88295 
L 525.541343 152.221981 
L 525.808328 152.510987 
L 526.075314 152.402454 
L 526.3423 152.628892 
L 526.609285 152.14363 
L 527.143257 152.529065 
L 527.410242 152.720471 
L 527.677228 152.296181 
L 527.944214 152.8266 
L 528.478185 152.419394 
L 529.012156 152.76012 
L 529.279142 152.571466 
L 530.080099 152.618647 
L 530.347084 152.208865 
L 530.61407 152.447137 
L 530.881056 152.298292 
L 531.148041 152.981215 
L 531.415027 152.967968 
L 531.948998 152.377224 
L 532.482969 153.027993 
L 533.283926 152.76738 
L 533.550912 152.921496 
L 533.817898 152.738698 
L 534.084883 153.036872 
L 534.351869 153.108161 
L 534.618855 153.060822 
L 534.88584 152.601152 
L 535.686797 152.747112 
L 535.953783 152.716531 
L 536.220769 153.012263 
L 536.487754 152.629935 
L 537.288711 152.667877 
L 537.555697 153.147832 
L 537.822682 152.735324 
L 538.356654 152.967806 
L 538.623639 152.357874 
L 538.890625 152.647736 
L 539.691582 152.462185 
L 539.958568 152.903257 
L 540.225553 152.747007 
L 540.759525 153.245768 
L 541.293496 152.73189 
L 541.560481 152.930247 
L 541.827467 152.923364 
L 542.094453 152.433713 
L 542.361438 152.999371 
L 543.162395 152.56963 
L 543.429381 152.731361 
L 543.696367 152.510596 
L 543.963352 152.818962 
L 544.497324 152.617299 
L 544.764309 152.735365 
L 545.031295 153.219281 
L 545.565266 152.750068 
L 545.832252 152.958135 
L 546.099237 152.547586 
L 546.366223 152.98493 
L 546.900194 152.704469 
L 547.16718 152.928179 
L 547.434166 152.775105 
L 547.701151 153.097064 
L 547.968137 152.923451 
L 548.235123 153.025617 
L 548.502108 152.488737 
L 548.769094 152.887747 
L 549.570051 152.819609 
L 549.837036 153.15109 
L 550.104022 153.071453 
L 550.371008 153.128667 
L 550.637993 152.526117 
L 550.904979 152.965208 
L 551.171965 153.056647 
L 551.705936 152.859511 
L 551.972922 153.169108 
L 552.239907 152.854596 
L 552.506893 152.965462 
L 552.773879 153.246933 
L 553.574836 152.597443 
L 553.841821 153.072106 
L 554.108807 153.058405 
L 554.375792 153.428869 
L 554.642778 153.057914 
L 555.443735 153.264184 
L 555.710721 152.586297 
L 555.977706 153.072086 
L 556.244692 152.978036 
L 556.511678 153.071754 
L 556.778663 152.986843 
L 557.045649 152.765696 
L 557.312635 153.142829 
L 557.57962 153.101927 
L 557.846606 152.894442 
L 558.113592 152.991273 
L 558.380577 152.966906 
L 558.914548 153.370116 
L 559.181534 153.183243 
L 559.715505 153.074233 
L 559.982491 152.798613 
L 560.249477 152.6991 
L 560.516462 153.01464 
L 561.050434 152.977459 
L 561.317419 153.160749 
L 561.584405 152.71692 
L 561.851391 153.471434 
L 562.118376 153.133989 
L 562.385362 153.045937 
L 562.652347 153.261052 
L 562.919333 152.587301 
L 563.186319 152.887318 
L 563.453304 152.668606 
L 563.72029 152.753308 
L 563.987276 152.994019 
L 564.254261 152.666203 
L 564.521247 152.927863 
L 564.788233 152.971235 
L 565.055218 153.213757 
L 565.322204 153.022203 
L 565.58919 153.107955 
L 565.856175 152.91052 
L 566.390147 153.235324 
L 566.657132 152.815237 
L 566.924118 153.268668 
L 567.191103 153.062522 
L 567.458089 153.271535 
L 567.725075 153.21294 
L 567.99206 153.293363 
L 568.259046 152.817912 
L 568.793017 153.308658 
L 569.060003 153.210248 
L 569.326989 153.531624 
L 569.593974 153.226282 
L 569.86096 153.300823 
L 570.127946 153.085907 
L 570.661917 153.129707 
L 570.928903 152.765519 
L 571.195888 153.124876 
L 571.462874 153.157065 
L 571.996845 152.807071 
L 572.530816 153.229667 
L 572.797802 153.646384 
L 573.331773 152.874685 
L 573.598759 153.225706 
L 573.865745 152.98024 
L 575.200673 153.004757 
L 575.467658 153.073459 
L 575.734644 153.008083 
L 576.00163 153.143841 
L 576.268615 153.123692 
L 576.535601 152.839986 
L 576.802587 152.810881 
L 577.069572 153.16607 
L 577.336558 152.675434 
L 578.137515 153.226441 
L 578.404501 153.035337 
L 578.671486 153.110795 
L 578.938472 153.37487 
L 579.205458 153.156258 
L 579.472443 153.473089 
L 579.739429 153.188348 
L 580.2734 152.928871 
L 580.540386 153.181566 
L 581.608328 153.003089 
L 581.875314 153.35545 
L 582.1423 153.063389 
L 582.409285 153.158357 
L 582.943257 152.632183 
L 583.210242 152.902688 
L 583.477228 152.829938 
L 583.744214 153.005102 
L 584.278185 152.965166 
L 584.812156 153.532232 
L 585.079142 152.966592 
L 585.346127 153.154418 
L 585.880099 153.335464 
L 586.147084 153.167209 
L 586.41407 153.571985 
L 586.681056 152.964393 
L 586.948041 153.269327 
L 587.215027 152.905449 
L 587.748998 153.090388 
L 588.015984 152.950711 
L 588.549955 153.303369 
L 588.816941 152.973792 
L 589.083926 153.268031 
L 589.350912 152.813376 
L 589.617898 153.108713 
L 589.884883 152.710011 
L 590.418855 153.340705 
L 590.68584 152.905419 
L 590.952826 153.0613 
L 591.486797 152.841023 
L 591.753783 152.898118 
L 592.287754 153.246035 
L 592.55474 152.769839 
L 592.821725 152.695096 
L 593.088711 152.764963 
L 593.355697 152.39008 
L 593.622682 152.987267 
L 594.423639 153.104748 
L 594.690625 152.770321 
L 594.957611 153.249002 
L 595.491582 152.665685 
L 595.758568 152.917079 
L 596.025553 152.964787 
L 596.292539 152.87184 
L 596.559525 153.12327 
L 596.82651 152.799086 
L 597.093496 153.154417 
L 597.360481 152.843733 
L 597.894453 152.592664 
L 598.161438 152.696293 
L 598.69541 153.360695 
L 598.962395 152.881871 
L 599.229381 153.049248 
L 599.496367 152.936847 
L 599.763352 152.611383 
L 600.030338 152.707404 
L 600.564309 152.702568 
L 600.831295 153.256971 
L 601.365266 152.883662 
L 602.166223 153.134753 
L 602.433209 152.838401 
L 602.700194 152.90419 
L 602.96718 152.767408 
L 603.234166 152.978625 
L 604.569094 152.948825 
L 604.83608 152.963451 
L 605.103065 152.791243 
L 605.370051 152.80905 
L 605.637036 152.948838 
L 605.904022 152.598478 
L 606.171008 152.762327 
L 606.437993 152.748911 
L 606.704979 152.964557 
L 606.971965 152.942624 
L 607.505936 152.403529 
L 607.772922 152.68585 
L 608.039907 152.308433 
L 608.306893 152.439407 
L 608.840864 152.426197 
L 609.374836 152.526403 
L 609.908807 152.95898 
L 610.175792 152.746198 
L 610.442778 152.952214 
L 610.709764 152.965839 
L 610.976749 152.474259 
L 611.243735 152.810738 
L 612.044692 152.666269 
L 612.311678 152.984317 
L 612.578663 152.828385 
L 612.845649 153.059015 
L 613.112635 152.730574 
L 613.37962 152.634475 
L 613.646606 152.692454 
L 613.913592 152.902485 
L 614.180577 152.785002 
L 614.714548 152.865364 
L 614.981534 152.851496 
L 615.24852 153.053359 
L 615.515505 152.829743 
L 615.782491 152.783747 
L 616.316462 153.03791 
L 616.850434 152.851973 
L 617.384405 153.179367 
L 617.918376 152.731101 
L 618.185362 152.630979 
L 618.452347 152.829446 
L 619.253304 152.82981 
L 619.52029 152.585722 
L 620.054261 152.964308 
L 620.321247 152.344311 
L 620.855218 152.562714 
L 621.122204 152.552387 
L 621.38919 152.787314 
L 621.923161 152.770034 
L 622.190147 152.705241 
L 622.724118 152.844899 
L 622.991103 152.975682 
L 623.258089 152.618686 
L 623.525075 152.556719 
L 623.79206 152.663535 
L 624.059046 152.546227 
L 624.326032 152.659156 
L 624.593017 152.649596 
L 625.126989 152.786461 
L 625.126989 152.786461 
" clip-path="url(#p3f6b665bfa)" style="fill: none; stroke: #1f77b4; stroke-width: 1.5; stroke-linecap: square"/>
   </g>
   <g id="line2d_13">
    <path d="M 117.854261 257.658289 
L 118.121247 262.165711 
L 118.388233 291.943205 
L 118.655218 296.03625 
L 119.18919 271.11781 
L 119.456175 227.057898 
L 119.723161 207.5709 
L 119.990147 203.182002 
L 120.257132 203.974264 
L 120.524118 211.845554 
L 121.058089 201.196422 
L 121.325075 195.910364 
L 121.59206 195.703205 
L 121.859046 192.753227 
L 122.126032 197.401453 
L 122.393017 172.184989 
L 122.660003 172.103903 
L 122.926989 169.627321 
L 123.193974 171.510379 
L 123.46096 166.488463 
L 123.727946 169.662831 
L 123.994931 167.766312 
L 124.261917 168.409239 
L 124.528903 168.391562 
L 124.795888 165.287616 
L 125.062874 166.881572 
L 125.329859 166.794035 
L 125.596845 165.094572 
L 125.863831 166.165148 
L 126.130816 165.451608 
L 126.397802 164.010929 
L 126.664788 163.25549 
L 126.931773 164.862355 
L 127.198759 163.978923 
L 127.465745 163.485609 
L 127.999716 161.702402 
L 128.266702 160.420844 
L 128.533687 164.815428 
L 128.800673 163.952454 
L 129.067658 162.432016 
L 129.334644 163.099974 
L 129.60163 162.512979 
L 129.868615 162.265303 
L 130.135601 163.58709 
L 130.402587 161.410305 
L 130.669572 162.710343 
L 130.936558 161.565435 
L 131.203544 161.16584 
L 131.470529 161.539059 
L 131.737515 162.557454 
L 132.004501 161.171452 
L 132.271486 161.384449 
L 132.538472 160.92679 
L 132.805458 160.831448 
L 133.339429 161.328739 
L 133.606414 161.196216 
L 133.8734 161.194354 
L 134.140386 161.482621 
L 134.407371 161.201429 
L 134.674357 159.7919 
L 134.941343 160.884693 
L 135.208328 160.064798 
L 135.475314 160.550759 
L 136.009285 163.054654 
L 136.276271 160.376997 
L 136.543257 163.420413 
L 136.810242 160.81798 
L 137.077228 160.706714 
L 137.611199 162.97898 
L 137.878185 161.428681 
L 138.412156 160.440512 
L 138.679142 160.193846 
L 139.213113 162.631121 
L 139.747084 159.442412 
L 140.01407 161.834268 
L 140.281056 161.591212 
L 140.548041 160.94865 
L 140.815027 161.58259 
L 141.082013 161.661909 
L 141.348998 162.60633 
L 141.882969 161.360388 
L 142.416941 161.703732 
L 142.683926 160.981433 
L 143.217898 161.378065 
L 143.751869 159.80897 
L 144.552826 161.088266 
L 145.086797 161.389012 
L 145.353783 160.004467 
L 145.620769 161.423814 
L 145.887754 161.588497 
L 146.15474 160.70362 
L 146.421725 161.311015 
L 146.688711 162.288528 
L 146.955697 161.574032 
L 147.222682 162.933584 
L 147.489668 162.761098 
L 147.756654 161.823109 
L 148.023639 163.255695 
L 148.290625 162.48772 
L 148.557611 162.510713 
L 148.824596 162.845991 
L 149.091582 162.220304 
L 149.358568 162.518876 
L 149.892539 164.100062 
L 150.159525 161.71733 
L 150.42651 160.953926 
L 150.693496 162.188098 
L 151.227467 161.382858 
L 151.494453 162.157181 
L 151.761438 162.385889 
L 152.028424 160.804717 
L 152.29541 161.59229 
L 152.562395 161.478432 
L 152.829381 161.686822 
L 153.096367 162.509587 
L 153.363352 161.135064 
L 153.630338 161.60804 
L 154.164309 163.370876 
L 154.431295 161.109782 
L 154.698281 153.752785 
L 154.965266 154.884893 
L 155.232252 154.642952 
L 155.499237 156.15602 
L 155.766223 156.257159 
L 156.033209 154.933457 
L 156.300194 156.047679 
L 156.56718 156.254787 
L 156.834166 157.181505 
L 157.101151 156.53724 
L 157.368137 156.437924 
L 157.635123 156.791371 
L 157.902108 156.526013 
L 158.169094 156.899174 
L 158.43608 156.612682 
L 158.703065 155.971204 
L 158.970051 156.374247 
L 159.504022 156.676973 
L 159.771008 156.380954 
L 160.037993 156.744293 
L 160.304979 156.508302 
L 160.83895 156.742195 
L 161.105936 156.015266 
L 161.372922 156.667905 
L 161.906893 156.571618 
L 162.173879 156.876875 
L 162.440864 157.011189 
L 162.974836 156.562438 
L 163.241821 157.11912 
L 163.508807 157.288222 
L 163.775792 156.918805 
L 164.042778 156.340906 
L 164.309764 157.068537 
L 164.576749 156.310565 
L 165.110721 155.798621 
L 165.377706 156.372213 
L 165.644692 156.620934 
L 166.178663 155.934658 
L 166.445649 155.997717 
L 166.712635 156.237635 
L 166.97962 156.252845 
L 167.246606 155.534283 
L 167.513592 156.106492 
L 167.780577 155.971055 
L 168.047563 155.262929 
L 168.314548 155.565248 
L 168.581534 155.523103 
L 168.84852 155.801346 
L 169.115505 156.566333 
L 169.382491 156.216639 
L 169.649477 156.133157 
L 169.916462 155.391582 
L 170.183448 155.66232 
L 170.450434 156.145638 
L 170.717419 155.672539 
L 170.984405 155.874484 
L 171.251391 155.743108 
L 171.518376 156.238413 
L 171.785362 155.989438 
L 172.319333 156.440338 
L 172.853304 155.672807 
L 173.12029 155.631246 
L 173.387276 155.827528 
L 173.654261 156.184732 
L 173.921247 155.693904 
L 174.188233 156.168457 
L 174.455218 156.299126 
L 174.722204 155.762169 
L 175.256175 156.752607 
L 175.523161 155.909613 
L 175.790147 156.437744 
L 176.324118 156.503263 
L 176.591103 156.287067 
L 176.858089 156.348738 
L 177.125075 156.141802 
L 177.39206 156.48928 
L 177.659046 155.958175 
L 177.926032 155.93672 
L 178.193017 156.125692 
L 178.460003 156.556642 
L 178.726989 156.08584 
L 178.993974 155.853602 
L 179.26096 156.224566 
L 179.794931 155.977781 
L 180.061917 156.594103 
L 180.328903 155.667991 
L 180.862874 156.37959 
L 181.129859 156.129236 
L 181.396845 156.608581 
L 181.663831 155.852199 
L 181.930816 155.933841 
L 182.197802 155.823862 
L 182.464788 156.261902 
L 182.731773 156.217012 
L 182.998759 156.433896 
L 183.265745 156.219792 
L 183.53273 156.336659 
L 183.799716 156.096349 
L 184.066702 156.14078 
L 184.333687 156.421176 
L 185.134644 156.095558 
L 185.40163 157.212045 
L 185.668615 156.587763 
L 185.935601 156.30008 
L 186.202587 156.348145 
L 186.469572 156.214621 
L 186.736558 156.433314 
L 187.003544 156.347303 
L 187.537515 156.730407 
L 187.804501 156.311451 
L 188.071486 156.422137 
L 188.338472 156.363393 
L 188.605458 156.605773 
L 189.6734 156.104843 
L 189.940386 156.384421 
L 190.207371 156.488825 
L 190.474357 156.398473 
L 190.741343 156.77701 
L 191.275314 156.438086 
L 191.5423 156.575574 
L 191.809285 156.895077 
L 192.076271 156.586644 
L 192.343257 156.758388 
L 192.610242 156.656062 
L 192.877228 156.965966 
L 193.411199 156.474212 
L 193.678185 156.979237 
L 194.479142 156.78095 
L 194.746127 157.101613 
L 195.280099 156.551084 
L 195.81407 157.098151 
L 196.081056 156.494078 
L 196.348041 156.470489 
L 196.615027 156.88698 
L 196.882013 156.736063 
L 197.148998 156.7347 
L 197.415984 157.464837 
L 197.682969 157.245992 
L 197.949955 156.862099 
L 198.216941 156.935837 
L 198.483926 156.769388 
L 198.750912 157.033425 
L 199.017898 156.931994 
L 199.551869 157.300986 
L 199.818855 156.96563 
L 200.08584 157.144787 
L 200.619812 156.797355 
L 200.886797 157.022033 
L 201.153783 156.650283 
L 201.420769 156.643316 
L 201.687754 157.060201 
L 201.95474 156.635579 
L 202.488711 156.742267 
L 203.022682 156.37065 
L 203.289668 156.805563 
L 203.556654 157.010789 
L 203.823639 156.41239 
L 204.090625 156.30752 
L 204.357611 156.518043 
L 204.624596 154.394413 
L 204.891582 153.868807 
L 205.158568 154.745371 
L 205.425553 154.964107 
L 205.692539 155.882272 
L 206.493496 155.2932 
L 207.027467 155.89478 
L 207.294453 155.705633 
L 207.561438 155.735094 
L 207.828424 156.291481 
L 208.362395 155.58715 
L 208.629381 155.645655 
L 208.896367 153.043477 
L 209.163352 154.084499 
L 209.430338 154.435394 
L 209.697324 154.271206 
L 209.964309 154.535556 
L 210.231295 155.139117 
L 210.498281 154.806182 
L 210.765266 155.013079 
L 211.032252 154.635972 
L 211.299237 155.060609 
L 211.566223 155.242783 
L 211.833209 154.710172 
L 212.100194 155.23496 
L 212.901151 154.912978 
L 213.168137 154.600437 
L 213.435123 154.867425 
L 213.702108 154.496443 
L 213.969094 155.003689 
L 214.503065 155.096093 
L 214.770051 154.993173 
L 215.037036 155.095595 
L 215.304022 155.423929 
L 216.104979 155.077029 
L 216.371965 155.272574 
L 216.63895 154.511676 
L 217.439907 155.833112 
L 217.706893 155.491651 
L 218.240864 155.26391 
L 218.50785 155.533926 
L 218.774836 155.532608 
L 219.041821 155.347737 
L 219.308807 155.905205 
L 219.842778 155.375726 
L 220.109764 155.269938 
L 220.376749 155.835803 
L 220.910721 155.153243 
L 221.711678 155.751553 
L 222.245649 155.403771 
L 222.512635 155.480373 
L 222.77962 155.800394 
L 223.046606 155.63988 
L 223.313592 156.279948 
L 223.580577 155.760215 
L 224.114548 155.431543 
L 224.915505 155.709706 
L 225.182491 155.219692 
L 225.449477 155.442174 
L 225.716462 155.890347 
L 226.250434 156.019055 
L 226.517419 155.491745 
L 227.318376 155.350416 
L 227.585362 155.346429 
L 227.852347 155.665712 
L 228.119333 155.630159 
L 228.386319 156.297099 
L 228.92029 154.636774 
L 229.187276 155.540049 
L 229.721247 155.596634 
L 229.988233 155.315462 
L 230.255218 155.58118 
L 230.522204 154.986037 
L 231.323161 155.552048 
L 232.391103 155.310278 
L 232.658089 155.408083 
L 232.925075 155.196475 
L 233.19206 155.538965 
L 233.459046 155.442706 
L 233.726032 155.091318 
L 233.993017 153.608385 
L 234.526989 154.714612 
L 234.793974 154.891346 
L 235.06096 154.903836 
L 235.327946 154.621878 
L 235.594931 155.658852 
L 235.861917 155.249258 
L 236.128903 155.713823 
L 236.395888 155.021825 
L 236.929859 155.150075 
L 237.196845 155.154992 
L 237.463831 155.317545 
L 237.730816 155.151199 
L 237.997802 155.264146 
L 238.264788 155.587818 
L 239.33273 155.074538 
L 239.599716 155.645964 
L 239.866702 155.841646 
L 240.400673 155.051135 
L 240.667658 155.565542 
L 240.934644 155.17962 
L 241.20163 155.260668 
L 241.468615 155.475398 
L 241.735601 155.165695 
L 242.002587 155.24334 
L 242.269572 155.072499 
L 242.536558 155.269896 
L 242.803544 154.818812 
L 243.070529 155.188621 
L 243.337515 155.108289 
L 243.604501 154.669359 
L 243.871486 155.152197 
L 244.138472 155.156871 
L 244.405458 154.848813 
L 244.672443 155.390366 
L 244.939429 155.278702 
L 245.206414 155.436354 
L 245.4734 155.245938 
L 245.740386 155.244318 
L 246.007371 154.974139 
L 246.274357 155.382234 
L 246.541343 155.004301 
L 246.808328 154.988872 
L 247.075314 155.262399 
L 247.609285 155.096087 
L 247.876271 154.837695 
L 248.410242 155.423065 
L 248.677228 155.028617 
L 248.944214 155.512282 
L 249.211199 155.296887 
L 249.478185 155.225788 
L 249.74517 154.743231 
L 250.012156 155.366563 
L 250.546127 155.130873 
L 250.813113 154.707484 
L 251.080099 154.986333 
L 251.61407 154.818989 
L 251.881056 155.046058 
L 252.148041 154.702934 
L 252.682013 155.039919 
L 252.948998 154.975369 
L 253.215984 155.334182 
L 253.482969 154.849228 
L 253.749955 155.037184 
L 254.016941 154.970428 
L 254.283926 155.284791 
L 254.550912 154.96514 
L 254.817898 155.305088 
L 255.084883 154.640369 
L 255.351869 155.181552 
L 256.152826 155.488724 
L 256.419812 154.730194 
L 257.220769 154.930242 
L 257.487754 155.111416 
L 257.75474 155.045237 
L 258.021725 155.248884 
L 258.288711 154.713462 
L 258.555697 154.878149 
L 258.822682 155.207209 
L 259.089668 154.545471 
L 259.623639 155.620813 
L 259.890625 155.274956 
L 260.157611 155.497977 
L 260.424596 155.070469 
L 260.691582 155.350361 
L 260.958568 154.947572 
L 261.225553 155.52839 
L 261.492539 155.107947 
L 261.759525 155.580213 
L 262.02651 155.139409 
L 262.293496 155.178293 
L 262.560481 155.381478 
L 262.827467 155.187845 
L 263.094453 155.494437 
L 263.361438 155.217882 
L 263.628424 155.285562 
L 263.89541 155.031702 
L 264.162395 155.296398 
L 264.429381 154.910107 
L 264.696367 155.275375 
L 264.963352 155.15732 
L 265.230338 155.31056 
L 265.764309 155.333147 
L 266.298281 154.904764 
L 266.565266 155.58039 
L 267.099237 155.156327 
L 267.366223 155.373803 
L 267.633209 155.249042 
L 267.900194 155.254083 
L 268.16718 155.55925 
L 268.434166 155.219763 
L 268.701151 155.562492 
L 268.968137 155.304436 
L 270.03608 155.284766 
L 270.570051 155.369909 
L 271.104022 155.254357 
L 271.371008 155.33416 
L 271.637993 155.032186 
L 272.171965 155.323129 
L 272.43895 155.204486 
L 272.705936 155.311507 
L 272.972922 155.125744 
L 273.773879 155.663483 
L 274.040864 155.077817 
L 274.30785 154.902083 
L 274.574836 155.02242 
L 274.841821 155.328052 
L 275.642778 155.428283 
L 275.909764 155.442195 
L 276.176749 155.699922 
L 276.977706 155.499555 
L 277.244692 155.280517 
L 277.778663 155.843515 
L 278.045649 154.460927 
L 278.312635 155.107892 
L 279.647563 155.057375 
L 279.914548 155.366999 
L 280.181534 155.084903 
L 280.44852 153.80868 
L 280.715505 154.421182 
L 280.982491 154.517176 
L 281.249477 154.371533 
L 281.516462 155.156259 
L 282.050434 155.151924 
L 282.317419 154.886121 
L 282.584405 155.168401 
L 282.851391 151.549215 
L 283.118376 153.671801 
L 283.385362 154.210377 
L 283.652347 153.137968 
L 283.919333 153.212823 
L 284.186319 153.538874 
L 284.453304 153.63788 
L 284.72029 153.866057 
L 284.987276 153.574882 
L 285.254261 153.807505 
L 285.521247 153.786339 
L 285.788233 153.559401 
L 286.055218 154.12274 
L 286.322204 153.933107 
L 286.58919 154.043313 
L 286.856175 153.748751 
L 287.123161 154.127582 
L 287.390147 154.275268 
L 287.657132 153.823059 
L 287.924118 153.913277 
L 288.191103 154.303842 
L 288.458089 154.969832 
L 288.725075 153.886911 
L 288.99206 153.764402 
L 289.526032 154.095029 
L 289.793017 153.892431 
L 290.060003 154.085215 
L 290.326989 153.970061 
L 290.593974 154.195834 
L 290.86096 154.003589 
L 291.127946 154.439732 
L 291.394931 154.185034 
L 291.661917 154.274745 
L 291.928903 154.164723 
L 292.195888 154.349258 
L 292.462874 154.215334 
L 292.729859 153.931444 
L 293.530816 154.356585 
L 293.797802 154.372823 
L 294.064788 154.028425 
L 294.331773 154.139414 
L 294.598759 154.375035 
L 295.13273 154.007671 
L 295.399716 154.379753 
L 295.666702 154.30798 
L 295.933687 153.920567 
L 296.200673 154.074949 
L 296.467658 154.48548 
L 296.734644 154.264881 
L 297.00163 154.224904 
L 297.268615 154.30137 
L 297.535601 153.986259 
L 298.336558 154.153079 
L 298.603544 154.133734 
L 298.870529 154.287122 
L 299.671486 154.271796 
L 299.938472 153.937811 
L 300.472443 154.089754 
L 300.739429 154.338696 
L 301.006414 153.865401 
L 301.2734 153.971171 
L 301.540386 153.877875 
L 302.608328 154.158169 
L 303.1423 153.920859 
L 303.409285 154.317894 
L 303.676271 154.224999 
L 303.943257 154.446094 
L 304.477228 154.076167 
L 305.011199 154.223886 
L 305.278185 153.940132 
L 305.54517 154.107708 
L 306.346127 154.023793 
L 306.880099 154.114796 
L 307.147084 153.951738 
L 307.41407 154.329505 
L 307.681056 154.126174 
L 308.482013 154.319701 
L 308.748998 154.315378 
L 309.015984 154.621295 
L 309.549955 153.964944 
L 310.083926 154.028827 
L 310.350912 154.227184 
L 311.68584 154.378203 
L 311.952826 154.049099 
L 312.219812 153.978356 
L 312.486797 154.58294 
L 312.753783 154.206178 
L 313.020769 154.275986 
L 313.287754 154.143732 
L 313.821725 154.376685 
L 314.088711 154.080599 
L 314.355697 154.252721 
L 314.889668 154.154387 
L 315.156654 153.922477 
L 315.423639 154.097532 
L 315.690625 154.597194 
L 315.957611 153.976399 
L 316.224596 154.136974 
L 316.491582 153.96186 
L 316.758568 154.141673 
L 317.025553 154.478791 
L 317.292539 154.129619 
L 317.82651 153.999698 
L 318.093496 154.097529 
L 318.360481 154.352394 
L 318.627467 154.116491 
L 319.428424 154.07981 
L 319.69541 154.264089 
L 319.962395 154.060622 
L 320.229381 154.013722 
L 320.496367 154.207735 
L 320.763352 153.979308 
L 321.030338 154.218602 
L 321.564309 154.080605 
L 321.831295 154.243596 
L 322.098281 153.864804 
L 323.166223 153.877679 
L 323.433209 153.959656 
L 323.700194 153.795453 
L 323.96718 153.773476 
L 324.234166 154.186488 
L 324.768137 153.700009 
L 325.302108 154.06566 
L 325.569094 153.754328 
L 325.83608 154.287848 
L 326.637036 153.849293 
L 327.171008 153.528761 
L 327.437993 153.87291 
L 327.704979 153.786487 
L 327.971965 153.579352 
L 328.23895 153.644116 
L 328.505936 153.925112 
L 328.772922 153.711868 
L 329.039907 153.664731 
L 329.573879 153.907606 
L 329.840864 153.79868 
L 330.10785 154.055372 
L 330.641821 153.587292 
L 330.908807 153.925825 
L 331.175792 153.770486 
L 331.442778 153.886633 
L 331.709764 153.472232 
L 331.976749 154.056653 
L 332.243735 153.617917 
L 332.510721 153.571063 
L 333.044692 153.9403 
L 333.311678 153.841082 
L 333.845649 154.012851 
L 334.37962 153.814185 
L 334.646606 153.871481 
L 334.913592 153.812954 
L 335.180577 154.077296 
L 335.447563 153.678675 
L 335.714548 153.96379 
L 335.981534 153.987649 
L 336.24852 153.71852 
L 336.515505 153.826589 
L 336.782491 154.332645 
L 337.049477 153.935132 
L 337.316462 154.064574 
L 337.583448 153.981866 
L 338.117419 154.219335 
L 338.384405 154.053844 
L 339.452347 154.018075 
L 339.719333 153.842495 
L 339.986319 154.030466 
L 340.52029 154.052931 
L 340.787276 153.843973 
L 341.321247 153.90353 
L 341.588233 153.818086 
L 341.855218 154.2799 
L 342.38919 153.933575 
L 342.656175 154.300037 
L 342.923161 153.893896 
L 343.457132 154.058179 
L 343.724118 153.92214 
L 343.991103 154.22361 
L 344.258089 153.862036 
L 344.525075 153.693224 
L 344.79206 153.719976 
L 345.326032 154.112372 
L 345.593017 153.760369 
L 345.860003 153.934932 
L 346.126989 153.758076 
L 346.393974 154.126527 
L 346.927946 153.698017 
L 347.728903 153.836213 
L 347.995888 153.927989 
L 348.262874 154.164977 
L 348.529859 154.133394 
L 348.796845 153.938669 
L 349.330816 154.558286 
L 349.597802 154.414128 
L 349.864788 154.028473 
L 350.131773 154.414489 
L 350.398759 154.491601 
L 350.665745 154.373761 
L 350.93273 153.969343 
L 351.199716 154.198198 
L 351.466702 153.895323 
L 351.733687 153.924063 
L 352.000673 154.150303 
L 352.80163 153.796347 
L 353.068615 153.902566 
L 353.335601 153.840236 
L 353.602587 154.118608 
L 353.869572 153.73167 
L 354.136558 153.699172 
L 354.937515 154.417767 
L 355.204501 153.697973 
L 355.471486 154.16362 
L 355.738472 153.967527 
L 356.005458 154.424971 
L 356.272443 154.075927 
L 356.539429 153.943741 
L 356.806414 154.111361 
L 357.0734 154.029278 
L 357.340386 154.3959 
L 357.607371 154.279221 
L 357.874357 153.731126 
L 358.141343 153.933458 
L 358.408328 153.759584 
L 358.675314 154.252961 
L 359.476271 154.214123 
L 359.743257 153.817382 
L 360.010242 153.954916 
L 360.277228 153.954131 
L 360.544214 154.139536 
L 360.811199 153.998398 
L 361.078185 154.01198 
L 361.34517 153.770395 
L 361.612156 153.984374 
L 361.879142 153.803639 
L 362.146127 153.896815 
L 362.413113 154.327526 
L 362.947084 154.01714 
L 363.21407 154.148716 
L 363.481056 154.020145 
L 363.748041 153.737345 
L 364.548998 154.160656 
L 364.815984 154.289256 
L 365.082969 154.099192 
L 365.616941 154.258271 
L 365.883926 154.43969 
L 366.150912 154.466777 
L 366.417898 154.188428 
L 366.684883 154.177265 
L 366.951869 153.911907 
L 367.218855 154.21176 
L 367.48584 153.868858 
L 368.019812 153.936139 
L 368.286797 153.989305 
L 368.553783 153.910832 
L 368.820769 154.05375 
L 369.087754 154.331082 
L 369.35474 154.389428 
L 369.621725 153.938845 
L 370.155697 154.264901 
L 370.422682 154.185355 
L 370.689668 153.866401 
L 370.956654 154.115681 
L 371.490625 154.051252 
L 372.024596 154.501722 
L 372.291582 154.195006 
L 372.558568 154.12441 
L 372.825553 154.291247 
L 373.092539 154.21853 
L 373.359525 154.024233 
L 373.62651 154.026906 
L 374.160481 154.571016 
L 374.961438 154.264473 
L 375.228424 153.853914 
L 375.49541 154.087683 
L 375.762395 154.514502 
L 376.029381 154.336722 
L 376.296367 153.90356 
L 376.830338 154.311913 
L 377.097324 154.234345 
L 377.364309 154.378542 
L 377.631295 154.14663 
L 377.898281 154.348093 
L 378.165266 154.146855 
L 378.432252 154.325467 
L 378.699237 154.251309 
L 378.966223 154.003232 
L 380.034166 154.103678 
L 380.301151 153.875189 
L 380.835123 154.247452 
L 381.102108 153.897624 
L 381.903065 153.909604 
L 382.170051 154.191593 
L 382.971008 154.095129 
L 383.237993 154.1144 
L 383.504979 153.94871 
L 384.305936 154.296575 
L 384.572922 154.075555 
L 384.839907 154.44911 
L 385.106893 154.356132 
L 385.373879 154.41537 
L 385.640864 154.055603 
L 386.174836 154.100535 
L 386.441821 154.232757 
L 386.708807 154.118349 
L 386.975792 154.138495 
L 387.242778 154.328127 
L 387.509764 153.934045 
L 387.776749 154.232494 
L 388.043735 154.254489 
L 388.310721 154.447165 
L 388.577706 154.444631 
L 388.844692 154.209224 
L 389.378663 154.089822 
L 389.645649 154.288049 
L 390.446606 154.007912 
L 390.980577 153.948876 
L 391.247563 154.078815 
L 391.781534 153.885951 
L 392.04852 154.219233 
L 392.315505 154.203418 
L 392.582491 154.057217 
L 392.849477 154.410819 
L 393.383448 154.002355 
L 393.650434 154.37376 
L 394.184405 154.106879 
L 394.451391 154.135913 
L 394.985362 154.319537 
L 395.786319 154.079798 
L 396.053304 154.40421 
L 396.32029 154.117763 
L 397.388233 154.326372 
L 397.655218 154.320393 
L 397.922204 154.110944 
L 398.18919 154.164353 
L 398.456175 154.637807 
L 398.723161 154.313117 
L 398.990147 154.253446 
L 399.524118 154.433177 
L 399.791103 154.015535 
L 400.058089 154.215634 
L 400.59206 153.984831 
L 400.859046 154.11794 
L 401.393017 154.046193 
L 402.46096 154.157147 
L 402.727946 154.329375 
L 402.994931 154.29765 
L 403.795888 153.914481 
L 404.062874 154.236359 
L 404.329859 154.010467 
L 404.863831 153.943755 
L 405.130816 153.53262 
L 405.397802 154.056023 
L 406.73273 153.909032 
L 406.999716 154.2921 
L 407.266702 153.614156 
L 407.800673 154.203688 
L 409.135601 153.864617 
L 409.669572 153.818541 
L 409.936558 153.670539 
L 410.203544 154.022802 
L 411.004501 153.789161 
L 412.339429 153.978781 
L 412.606414 154.234708 
L 413.407371 154.044837 
L 413.674357 153.792993 
L 413.941343 153.755277 
L 414.475314 154.220482 
L 414.7423 154.110407 
L 415.009285 153.783916 
L 415.276271 154.313478 
L 415.543257 153.969518 
L 415.810242 153.849672 
L 416.344214 154.113797 
L 416.611199 154.137897 
L 416.878185 153.850286 
L 417.14517 153.730601 
L 417.412156 154.258245 
L 417.679142 153.954271 
L 418.213113 153.740594 
L 418.480099 154.018024 
L 419.01407 153.926222 
L 419.281056 154.145229 
L 419.548041 153.997193 
L 419.815027 154.056473 
L 420.348998 153.804752 
L 420.615984 154.092211 
L 420.882969 153.919203 
L 421.149955 154.010276 
L 421.683926 153.727286 
L 422.484883 153.840228 
L 422.751869 153.856192 
L 423.018855 153.619472 
L 423.28584 153.731829 
L 423.552826 153.699567 
L 423.819812 153.889863 
L 424.086797 153.784353 
L 424.353783 153.988048 
L 424.620769 153.608502 
L 425.15474 153.756962 
L 425.421725 153.648117 
L 425.688711 153.751202 
L 425.955697 154.048419 
L 426.222682 153.988363 
L 426.489668 153.535162 
L 427.290625 154.299353 
L 427.824596 153.766523 
L 428.091582 153.960111 
L 428.625553 153.809754 
L 428.892539 153.74915 
L 429.159525 153.937067 
L 429.42651 153.740406 
L 429.693496 153.839032 
L 429.960481 153.580448 
L 430.227467 153.682983 
L 430.494453 153.506394 
L 431.028424 153.783745 
L 431.29541 153.71797 
L 431.562395 153.786397 
L 431.829381 153.68383 
L 432.096367 153.854369 
L 432.363352 153.811334 
L 432.897324 153.474582 
L 433.164309 153.444142 
L 433.431295 153.585643 
L 433.698281 153.55147 
L 433.965266 153.852637 
L 434.232252 153.444372 
L 434.766223 153.799378 
L 435.033209 153.435373 
L 435.300194 153.565787 
L 435.56718 153.909216 
L 435.834166 153.591031 
L 436.101151 153.713839 
L 436.368137 153.515405 
L 436.635123 153.796574 
L 437.703065 153.78357 
L 437.970051 153.486434 
L 438.504022 153.660724 
L 438.771008 153.465208 
L 439.037993 153.628123 
L 439.83895 153.383135 
L 440.372922 153.437859 
L 440.639907 153.333022 
L 440.906893 153.601678 
L 441.440864 153.52113 
L 441.70785 153.540977 
L 441.974836 153.705811 
L 442.241821 153.506279 
L 442.508807 153.50767 
L 442.775792 153.394018 
L 443.042778 153.543582 
L 443.309764 153.396164 
L 443.843735 153.654618 
L 444.110721 153.638947 
L 444.377706 153.442629 
L 444.644692 153.612165 
L 444.911678 153.610306 
L 445.178663 153.750076 
L 445.445649 153.548167 
L 445.712635 153.495158 
L 445.97962 153.768391 
L 446.246606 153.635529 
L 446.780577 153.811356 
L 447.047563 153.571337 
L 447.314548 153.866926 
L 447.84852 153.612034 
L 448.115505 153.726404 
L 448.916462 153.642421 
L 449.450434 154.113019 
L 449.984405 153.752669 
L 450.251391 153.838809 
L 451.052347 153.70945 
L 451.586319 153.669421 
L 452.12029 153.643659 
L 452.387276 153.898688 
L 452.654261 153.619783 
L 453.188233 153.466474 
L 453.722204 153.827922 
L 453.98919 153.595058 
L 454.256175 153.638498 
L 454.523161 154.161071 
L 455.057132 153.911531 
L 455.324118 154.08234 
L 455.591103 153.722731 
L 456.39206 153.607553 
L 456.659046 153.951289 
L 457.193017 153.64361 
L 458.26096 153.947013 
L 458.794931 153.779647 
L 459.595888 153.916043 
L 459.862874 153.627443 
L 460.129859 153.815472 
L 460.396845 153.644593 
L 460.663831 153.704829 
L 460.930816 153.644729 
L 461.197802 153.784662 
L 461.464788 153.728161 
L 461.731773 153.813443 
L 461.998759 153.633944 
L 462.265745 153.934501 
L 462.53273 153.98363 
L 463.066702 153.604701 
L 463.333687 153.893512 
L 463.600673 153.675376 
L 464.134644 153.61956 
L 464.668615 153.661399 
L 464.935601 153.682053 
L 465.202587 153.895038 
L 465.469572 153.692404 
L 465.736558 153.69523 
L 466.003544 153.877967 
L 466.804501 153.783067 
L 467.338472 153.451278 
L 467.605458 153.740433 
L 467.872443 153.593752 
L 468.139429 153.708738 
L 468.940386 153.589259 
L 469.474357 153.892645 
L 469.741343 153.701044 
L 470.5423 154.094306 
L 471.076271 153.631876 
L 471.343257 153.821865 
L 471.610242 153.53313 
L 471.877228 153.837683 
L 472.144214 153.709512 
L 472.411199 153.976963 
L 472.678185 153.524268 
L 472.94517 153.851789 
L 473.479142 153.893796 
L 473.746127 153.564461 
L 474.013113 153.934477 
L 474.280099 153.87539 
L 474.547084 153.521523 
L 474.81407 153.617314 
L 475.348041 153.522105 
L 475.615027 153.570153 
L 475.882013 153.749106 
L 476.148998 153.732442 
L 476.415984 153.539779 
L 476.682969 153.519816 
L 476.949955 153.763688 
L 477.216941 153.385901 
L 477.483926 153.254838 
L 477.750912 153.64038 
L 478.017898 153.767238 
L 478.284883 153.311902 
L 479.08584 153.773653 
L 479.352826 153.54239 
L 479.619812 153.774382 
L 479.886797 153.551954 
L 480.153783 153.577954 
L 480.420769 153.823898 
L 480.687754 153.573428 
L 481.488711 153.566822 
L 481.755697 153.409663 
L 482.022682 153.558861 
L 482.556654 153.467655 
L 482.823639 153.786692 
L 483.357611 153.819304 
L 483.624596 153.526983 
L 483.891582 153.661894 
L 484.158568 153.626087 
L 484.425553 153.99085 
L 484.692539 153.611746 
L 484.959525 153.841844 
L 485.22651 153.630269 
L 485.493496 153.58926 
L 485.760481 153.714092 
L 486.027467 153.662656 
L 486.294453 153.788584 
L 486.561438 153.663854 
L 486.828424 153.927436 
L 487.09541 153.608622 
L 487.362395 153.84961 
L 487.629381 153.620663 
L 488.163352 153.708176 
L 488.430338 153.674792 
L 488.697324 153.822119 
L 488.964309 153.563004 
L 489.231295 153.67597 
L 490.299237 153.310989 
L 490.566223 153.617095 
L 490.833209 153.34086 
L 491.100194 153.515964 
L 491.901151 153.527073 
L 492.168137 153.295187 
L 492.435123 153.495705 
L 492.702108 153.364802 
L 493.503065 153.577266 
L 493.770051 153.386816 
L 494.037036 153.789625 
L 494.304022 153.215657 
L 494.571008 153.456652 
L 495.63895 153.732618 
L 495.905936 153.570805 
L 496.172922 153.745731 
L 496.439907 153.553034 
L 496.706893 153.72733 
L 496.973879 153.443527 
L 497.774836 153.486646 
L 498.041821 153.633082 
L 499.109764 153.150589 
L 499.910721 153.363028 
L 500.177706 153.441042 
L 500.444692 153.12213 
L 500.978663 153.345722 
L 501.245649 153.287108 
L 501.77962 153.394502 
L 502.313592 153.123854 
L 502.580577 153.29572 
L 502.847563 153.259546 
L 503.114548 153.414328 
L 503.381534 153.169864 
L 503.64852 153.589313 
L 503.915505 153.310722 
L 504.983448 153.074632 
L 505.517419 153.375424 
L 506.318376 153.39394 
L 506.852347 153.213101 
L 508.187276 153.305209 
L 508.454261 153.642875 
L 509.255218 153.219974 
L 509.522204 153.360109 
L 509.78919 153.268092 
L 510.590147 153.522112 
L 511.124118 153.304114 
L 511.391103 153.197294 
L 511.658089 153.353062 
L 511.925075 153.352243 
L 512.19206 153.514872 
L 512.459046 153.1508 
L 513.260003 153.42874 
L 514.06096 153.40628 
L 514.327946 153.325218 
L 514.594931 153.420448 
L 514.861917 153.689085 
L 515.128903 153.175583 
L 515.395888 153.295932 
L 515.929859 153.010928 
L 516.196845 153.158466 
L 516.463831 153.002519 
L 516.730816 153.103744 
L 516.997802 153.348791 
L 517.264788 153.414407 
L 517.531773 153.255084 
L 518.065745 153.55702 
L 518.33273 153.307669 
L 518.599716 153.471619 
L 518.866702 153.338908 
L 519.133687 153.489748 
L 519.400673 153.157198 
L 519.934644 153.229429 
L 520.20163 153.122373 
L 521.002587 153.335821 
L 521.536558 153.263609 
L 521.803544 153.523582 
L 522.604501 153.241465 
L 522.871486 153.352413 
L 523.405458 153.247114 
L 523.939429 153.578611 
L 524.740386 153.287029 
L 525.007371 153.597787 
L 525.274357 153.577999 
L 525.541343 153.228747 
L 526.3423 152.991536 
L 527.410242 153.0719 
L 527.677228 153.394673 
L 528.211199 153.122708 
L 528.478185 153.34781 
L 529.279142 153.193604 
L 529.546127 153.356206 
L 529.813113 153.101592 
L 530.080099 153.236333 
L 530.347084 153.241952 
L 530.61407 153.378006 
L 531.415027 153.300455 
L 531.682013 153.274422 
L 531.948998 153.362097 
L 532.215984 153.055824 
L 532.749955 153.123356 
L 533.283926 153.286312 
L 533.550912 153.241122 
L 533.817898 153.333852 
L 534.618855 153.077256 
L 535.419812 153.287651 
L 535.686797 153.119691 
L 535.953783 153.390178 
L 536.487754 153.555823 
L 536.75474 153.261305 
L 537.021725 153.269223 
L 537.288711 153.461192 
L 537.822682 153.349592 
L 538.089668 153.530363 
L 538.356654 153.374637 
L 538.623639 153.563108 
L 539.157611 153.151832 
L 539.958568 153.386099 
L 540.492539 153.173586 
L 541.293496 153.489755 
L 541.560481 153.506098 
L 541.827467 153.249463 
L 542.094453 153.668513 
L 542.361438 153.321028 
L 542.628424 153.375023 
L 542.89541 153.217508 
L 543.162395 153.438894 
L 543.429381 153.441465 
L 543.696367 153.299701 
L 543.963352 153.316906 
L 544.230338 153.16941 
L 544.497324 153.16602 
L 544.764309 153.378197 
L 545.031295 153.275509 
L 545.832252 153.432676 
L 546.099237 153.292636 
L 546.366223 153.28352 
L 546.633209 153.137678 
L 546.900194 153.15773 
L 547.434166 153.443877 
L 547.701151 153.151781 
L 547.968137 153.254116 
L 548.235123 153.060122 
L 549.03608 153.403341 
L 549.837036 153.441244 
L 550.104022 153.669271 
L 550.371008 153.293515 
L 550.904979 153.203355 
L 551.43895 153.108848 
L 551.972922 153.366188 
L 552.239907 153.078729 
L 552.506893 153.243851 
L 554.108807 153.305525 
L 554.909764 153.053216 
L 555.176749 153.320177 
L 555.443735 153.168925 
L 555.710721 153.240159 
L 555.977706 153.136188 
L 556.244692 153.152692 
L 556.511678 153.280572 
L 556.778663 153.176477 
L 557.312635 153.427916 
L 557.57962 153.219656 
L 558.113592 153.25249 
L 558.647563 153.416147 
L 558.914548 153.240914 
L 559.44852 153.449765 
L 559.715505 153.267955 
L 559.982491 153.376127 
L 560.249477 153.200082 
L 561.050434 153.203108 
L 561.317419 153.334917 
L 561.584405 153.315177 
L 561.851391 153.500635 
L 562.385362 153.187995 
L 562.652347 153.062713 
L 562.919333 153.445698 
L 563.453304 153.182682 
L 563.72029 153.165216 
L 563.987276 153.614389 
L 564.521247 153.370003 
L 564.788233 153.389177 
L 565.055218 153.158164 
L 565.322204 153.075333 
L 565.856175 153.34501 
L 566.123161 153.135357 
L 566.657132 153.519055 
L 567.191103 153.521653 
L 567.458089 153.427736 
L 567.725075 153.596221 
L 568.526032 153.335739 
L 569.326989 153.557397 
L 569.593974 153.448385 
L 570.127946 153.531978 
L 570.661917 153.54424 
L 570.928903 153.256091 
L 571.195888 153.453715 
L 571.729859 153.386594 
L 571.996845 153.567694 
L 572.530816 153.500238 
L 572.797802 153.541007 
L 573.064788 153.330139 
L 573.331773 153.475395 
L 573.865745 153.412441 
L 574.13273 153.339484 
L 574.666702 153.537619 
L 574.933687 153.656001 
L 575.200673 153.462349 
L 575.467658 153.69027 
L 575.734644 153.476832 
L 576.00163 153.572752 
L 576.268615 153.394373 
L 576.535601 153.573494 
L 576.802587 153.534476 
L 577.069572 153.334606 
L 577.336558 153.450318 
L 577.603544 153.726391 
L 577.870529 153.560339 
L 578.137515 153.650249 
L 578.404501 153.438393 
L 578.938472 153.600963 
L 579.205458 153.42283 
L 579.472443 153.641245 
L 579.739429 153.501168 
L 580.006414 153.817292 
L 580.2734 153.314901 
L 580.540386 153.558387 
L 581.341343 153.408458 
L 581.608328 153.517917 
L 581.875314 153.295693 
L 582.676271 153.468175 
L 582.943257 153.657612 
L 583.210242 153.653052 
L 583.477228 153.241308 
L 583.744214 153.262062 
L 584.011199 153.489567 
L 584.54517 153.310521 
L 585.079142 153.46209 
L 585.880099 153.313838 
L 586.147084 153.435222 
L 586.41407 153.405877 
L 586.681056 153.636545 
L 586.948041 153.579087 
L 587.215027 153.332408 
L 587.748998 153.475995 
L 588.015984 153.415294 
L 588.282969 153.47324 
L 588.549955 153.234564 
L 588.816941 153.255155 
L 589.350912 153.520595 
L 589.884883 153.451719 
L 590.151869 153.669141 
L 590.418855 153.486125 
L 591.219812 153.434707 
L 591.486797 153.168803 
L 591.753783 153.531145 
L 592.287754 153.470492 
L 592.55474 153.278891 
L 592.821725 153.609753 
L 593.088711 153.428539 
L 593.355697 153.429296 
L 593.622682 153.298223 
L 594.423639 153.534343 
L 594.690625 153.35891 
L 595.491582 153.3031 
L 596.559525 153.775369 
L 596.82651 153.4702 
L 597.093496 153.726208 
L 597.360481 153.469453 
L 597.627467 153.598145 
L 597.894453 153.28731 
L 598.428424 153.70472 
L 598.962395 153.332922 
L 599.229381 153.417711 
L 599.496367 153.214567 
L 599.763352 153.401392 
L 600.030338 153.178973 
L 600.297324 153.472496 
L 600.564309 153.262517 
L 600.831295 153.247437 
L 601.098281 153.357643 
L 601.365266 153.685013 
L 601.632252 153.393333 
L 601.899237 153.32234 
L 602.166223 153.577011 
L 602.433209 153.641627 
L 603.234166 153.396655 
L 603.501151 153.679376 
L 605.370051 153.147086 
L 605.637036 153.577495 
L 605.904022 153.4411 
L 606.171008 153.733897 
L 606.437993 153.333528 
L 607.23895 153.250414 
L 607.772922 153.165729 
L 608.039907 153.439787 
L 608.306893 153.091362 
L 608.573879 153.314817 
L 608.840864 153.262298 
L 609.10785 153.053829 
L 609.374836 153.557268 
L 609.641821 153.610957 
L 609.908807 153.522991 
L 610.175792 153.203311 
L 610.442778 153.400114 
L 610.709764 153.298179 
L 610.976749 153.568517 
L 611.777706 153.209681 
L 612.311678 153.397703 
L 612.578663 153.529631 
L 613.112635 153.212025 
L 613.37962 153.501997 
L 613.646606 153.37865 
L 613.913592 153.116407 
L 614.180577 153.469986 
L 614.447563 153.460639 
L 614.714548 153.26927 
L 615.24852 153.477161 
L 615.515505 153.326073 
L 615.782491 153.50476 
L 616.049477 153.239168 
L 616.316462 153.334629 
L 616.850434 153.223228 
L 617.117419 153.246142 
L 617.384405 153.39874 
L 617.651391 153.326272 
L 618.452347 153.751176 
L 619.253304 153.26881 
L 619.52029 153.417104 
L 619.787276 153.435556 
L 620.054261 153.287668 
L 620.321247 153.519428 
L 620.588233 153.237898 
L 620.855218 153.237125 
L 621.38919 153.396607 
L 621.656175 153.319765 
L 622.724118 153.440434 
L 623.79206 153.417017 
L 624.326032 153.718529 
L 624.593017 153.318032 
L 624.860003 153.320706 
L 625.126989 153.169154 
L 625.126989 153.169154 
" clip-path="url(#p3f6b665bfa)" style="fill: none; stroke: #ff7f0e; stroke-width: 1.5; stroke-linecap: square"/>
   </g>
   <g id="patch_3">
    <path d="M 92.490625 308.63625 
L 92.490625 31.43625 
" style="fill: none; stroke: #000000; stroke-width: 0.8; stroke-linejoin: miter; stroke-linecap: square"/>
   </g>
   <g id="patch_4">
    <path d="M 650.490625 308.63625 
L 650.490625 31.43625 
" style="fill: none; stroke: #000000; stroke-width: 0.8; stroke-linejoin: miter; stroke-linecap: square"/>
   </g>
   <g id="patch_5">
    <path d="M 92.490625 308.63625 
L 650.490625 308.63625 
" style="fill: none; stroke: #000000; stroke-width: 0.8; stroke-linejoin: miter; stroke-linecap: square"/>
   </g>
   <g id="patch_6">
    <path d="M 92.490625 31.43625 
L 650.490625 31.43625 
" style="fill: none; stroke: #000000; stroke-width: 0.8; stroke-linejoin: miter; stroke-linecap: square"/>
   </g>
   <g id="text_14">
    <!-- Generator and Discriminator Loss During Training -->
    <g transform="translate(74.258125 25.43625) scale(0.24 -0.24)">
     <defs>
      <path id="DejaVuSans-47" d="M 3809 666 
L 3809 1919 
L 2778 1919 
L 2778 2438 
L 4434 2438 
L 4434 434 
Q 4069 175 3628 42 
Q 3188 -91 2688 -91 
Q 1594 -91 976 548 
Q 359 1188 359 2328 
Q 359 3472 976 4111 
Q 1594 4750 2688 4750 
Q 3144 4750 3555 4637 
Q 3966 4525 4313 4306 
L 4313 3634 
Q 3963 3931 3569 4081 
Q 3175 4231 2741 4231 
Q 1884 4231 1454 3753 
Q 1025 3275 1025 2328 
Q 1025 1384 1454 906 
Q 1884 428 2741 428 
Q 3075 428 3337 486 
Q 3600 544 3809 666 
z
" transform="scale(0.015625)"/>
      <path id="DejaVuSans-20" transform="scale(0.015625)"/>
      <path id="DejaVuSans-64" d="M 2906 2969 
L 2906 4863 
L 3481 4863 
L 3481 0 
L 2906 0 
L 2906 525 
Q 2725 213 2448 61 
Q 2172 -91 1784 -91 
Q 1150 -91 751 415 
Q 353 922 353 1747 
Q 353 2572 751 3078 
Q 1150 3584 1784 3584 
Q 2172 3584 2448 3432 
Q 2725 3281 2906 2969 
z
M 947 1747 
Q 947 1113 1208 752 
Q 1469 391 1925 391 
Q 2381 391 2643 752 
Q 2906 1113 2906 1747 
Q 2906 2381 2643 2742 
Q 2381 3103 1925 3103 
Q 1469 3103 1208 2742 
Q 947 2381 947 1747 
z
" transform="scale(0.015625)"/>
      <path id="DejaVuSans-44" d="M 1259 4147 
L 1259 519 
L 2022 519 
Q 2988 519 3436 956 
Q 3884 1394 3884 2338 
Q 3884 3275 3436 3711 
Q 2988 4147 2022 4147 
L 1259 4147 
z
M 628 4666 
L 1925 4666 
Q 3281 4666 3915 4102 
Q 4550 3538 4550 2338 
Q 4550 1131 3912 565 
Q 3275 0 1925 0 
L 628 0 
L 628 4666 
z
" transform="scale(0.015625)"/>
      <path id="DejaVuSans-63" d="M 3122 3366 
L 3122 2828 
Q 2878 2963 2633 3030 
Q 2388 3097 2138 3097 
Q 1578 3097 1268 2742 
Q 959 2388 959 1747 
Q 959 1106 1268 751 
Q 1578 397 2138 397 
Q 2388 397 2633 464 
Q 2878 531 3122 666 
L 3122 134 
Q 2881 22 2623 -34 
Q 2366 -91 2075 -91 
Q 1284 -91 818 406 
Q 353 903 353 1747 
Q 353 2603 823 3093 
Q 1294 3584 2113 3584 
Q 2378 3584 2631 3529 
Q 2884 3475 3122 3366 
z
" transform="scale(0.015625)"/>
      <path id="DejaVuSans-6d" d="M 3328 2828 
Q 3544 3216 3844 3400 
Q 4144 3584 4550 3584 
Q 5097 3584 5394 3201 
Q 5691 2819 5691 2113 
L 5691 0 
L 5113 0 
L 5113 2094 
Q 5113 2597 4934 2840 
Q 4756 3084 4391 3084 
Q 3944 3084 3684 2787 
Q 3425 2491 3425 1978 
L 3425 0 
L 2847 0 
L 2847 2094 
Q 2847 2600 2669 2842 
Q 2491 3084 2119 3084 
Q 1678 3084 1418 2786 
Q 1159 2488 1159 1978 
L 1159 0 
L 581 0 
L 581 3500 
L 1159 3500 
L 1159 2956 
Q 1356 3278 1631 3431 
Q 1906 3584 2284 3584 
Q 2666 3584 2933 3390 
Q 3200 3197 3328 2828 
z
" transform="scale(0.015625)"/>
      <path id="DejaVuSans-75" d="M 544 1381 
L 544 3500 
L 1119 3500 
L 1119 1403 
Q 1119 906 1312 657 
Q 1506 409 1894 409 
Q 2359 409 2629 706 
Q 2900 1003 2900 1516 
L 2900 3500 
L 3475 3500 
L 3475 0 
L 2900 0 
L 2900 538 
Q 2691 219 2414 64 
Q 2138 -91 1772 -91 
Q 1169 -91 856 284 
Q 544 659 544 1381 
z
M 1991 3584 
L 1991 3584 
z
" transform="scale(0.015625)"/>
      <path id="DejaVuSans-67" d="M 2906 1791 
Q 2906 2416 2648 2759 
Q 2391 3103 1925 3103 
Q 1463 3103 1205 2759 
Q 947 2416 947 1791 
Q 947 1169 1205 825 
Q 1463 481 1925 481 
Q 2391 481 2648 825 
Q 2906 1169 2906 1791 
z
M 3481 434 
Q 3481 -459 3084 -895 
Q 2688 -1331 1869 -1331 
Q 1566 -1331 1297 -1286 
Q 1028 -1241 775 -1147 
L 775 -588 
Q 1028 -725 1275 -790 
Q 1522 -856 1778 -856 
Q 2344 -856 2625 -561 
Q 2906 -266 2906 331 
L 2906 616 
Q 2728 306 2450 153 
Q 2172 0 1784 0 
Q 1141 0 747 490 
Q 353 981 353 1791 
Q 353 2603 747 3093 
Q 1141 3584 1784 3584 
Q 2172 3584 2450 3431 
Q 2728 3278 2906 2969 
L 2906 3500 
L 3481 3500 
L 3481 434 
z
" transform="scale(0.015625)"/>
      <path id="DejaVuSans-54" d="M -19 4666 
L 3928 4666 
L 3928 4134 
L 2272 4134 
L 2272 0 
L 1638 0 
L 1638 4134 
L -19 4134 
L -19 4666 
z
" transform="scale(0.015625)"/>
     </defs>
     <use xlink:href="#DejaVuSans-47"/>
     <use xlink:href="#DejaVuSans-65" x="77.490234"/>
     <use xlink:href="#DejaVuSans-6e" x="139.013672"/>
     <use xlink:href="#DejaVuSans-65" x="202.392578"/>
     <use xlink:href="#DejaVuSans-72" x="263.916016"/>
     <use xlink:href="#DejaVuSans-61" x="305.029297"/>
     <use xlink:href="#DejaVuSans-74" x="366.308594"/>
     <use xlink:href="#DejaVuSans-6f" x="405.517578"/>
     <use xlink:href="#DejaVuSans-72" x="466.699219"/>
     <use xlink:href="#DejaVuSans-20" x="507.8125"/>
     <use xlink:href="#DejaVuSans-61" x="539.599609"/>
     <use xlink:href="#DejaVuSans-6e" x="600.878906"/>
     <use xlink:href="#DejaVuSans-64" x="664.257812"/>
     <use xlink:href="#DejaVuSans-20" x="727.734375"/>
     <use xlink:href="#DejaVuSans-44" x="759.521484"/>
     <use xlink:href="#DejaVuSans-69" x="836.523438"/>
     <use xlink:href="#DejaVuSans-73" x="864.306641"/>
     <use xlink:href="#DejaVuSans-63" x="916.40625"/>
     <use xlink:href="#DejaVuSans-72" x="971.386719"/>
     <use xlink:href="#DejaVuSans-69" x="1012.5"/>
     <use xlink:href="#DejaVuSans-6d" x="1040.283203"/>
     <use xlink:href="#DejaVuSans-69" x="1137.695312"/>
     <use xlink:href="#DejaVuSans-6e" x="1165.478516"/>
     <use xlink:href="#DejaVuSans-61" x="1228.857422"/>
     <use xlink:href="#DejaVuSans-74" x="1290.136719"/>
     <use xlink:href="#DejaVuSans-6f" x="1329.345703"/>
     <use xlink:href="#DejaVuSans-72" x="1390.527344"/>
     <use xlink:href="#DejaVuSans-20" x="1431.640625"/>
     <use xlink:href="#DejaVuSans-4c" x="1463.427734"/>
     <use xlink:href="#DejaVuSans-6f" x="1517.390625"/>
     <use xlink:href="#DejaVuSans-73" x="1578.572266"/>
     <use xlink:href="#DejaVuSans-73" x="1630.671875"/>
     <use xlink:href="#DejaVuSans-20" x="1682.771484"/>
     <use xlink:href="#DejaVuSans-44" x="1714.558594"/>
     <use xlink:href="#DejaVuSans-75" x="1791.560547"/>
     <use xlink:href="#DejaVuSans-72" x="1854.939453"/>
     <use xlink:href="#DejaVuSans-69" x="1896.052734"/>
     <use xlink:href="#DejaVuSans-6e" x="1923.835938"/>
     <use xlink:href="#DejaVuSans-67" x="1987.214844"/>
     <use xlink:href="#DejaVuSans-20" x="2050.691406"/>
     <use xlink:href="#DejaVuSans-54" x="2082.478516"/>
     <use xlink:href="#DejaVuSans-72" x="2128.8125"/>
     <use xlink:href="#DejaVuSans-61" x="2169.925781"/>
     <use xlink:href="#DejaVuSans-69" x="2231.205078"/>
     <use xlink:href="#DejaVuSans-6e" x="2258.988281"/>
     <use xlink:href="#DejaVuSans-69" x="2322.367188"/>
     <use xlink:href="#DejaVuSans-6e" x="2350.150391"/>
     <use xlink:href="#DejaVuSans-67" x="2413.529297"/>
    </g>
   </g>
   <g id="legend_1">
    <g id="patch_7">
     <path d="M 556.99375 106.14875 
L 636.490625 106.14875 
Q 640.490625 106.14875 640.490625 102.14875 
L 640.490625 45.43625 
Q 640.490625 41.43625 636.490625 41.43625 
L 556.99375 41.43625 
Q 552.99375 41.43625 552.99375 45.43625 
L 552.99375 102.14875 
Q 552.99375 106.14875 556.99375 106.14875 
z
" style="fill: #ffffff; opacity: 0.8; stroke: #cccccc; stroke-linejoin: miter"/>
    </g>
    <g id="line2d_14">
     <path d="M 560.99375 57.633125 
L 580.99375 57.633125 
L 600.99375 57.633125 
" style="fill: none; stroke: #1f77b4; stroke-width: 1.5; stroke-linecap: square"/>
    </g>
    <g id="text_15">
     <!-- G -->
     <g transform="translate(616.99375 64.633125) scale(0.2 -0.2)">
      <use xlink:href="#DejaVuSans-47"/>
     </g>
    </g>
    <g id="line2d_15">
     <path d="M 560.99375 86.989375 
L 580.99375 86.989375 
L 600.99375 86.989375 
" style="fill: none; stroke: #ff7f0e; stroke-width: 1.5; stroke-linecap: square"/>
    </g>
    <g id="text_16">
     <!-- D -->
     <g transform="translate(616.99375 93.989375) scale(0.2 -0.2)">
      <use xlink:href="#DejaVuSans-44"/>
     </g>
    </g>
   </g>
  </g>
 </g>
 <defs>
  <clipPath id="p3f6b665bfa">
   <rect x="92.490625" y="31.43625" width="558" height="277.2"/>
  </clipPath>
 </defs>
</svg>
