<?xml version="1.0" encoding="utf-8" standalone="no"?>
<!DOCTYPE svg PUBLIC "-//W3C//DTD SVG 1.1//EN"
  "http://www.w3.org/Graphics/SVG/1.1/DTD/svg11.dtd">
<svg xmlns:xlink="http://www.w3.org/1999/xlink" width="675.923125pt" height="365.54875pt" viewBox="0 0 675.923125 365.54875" xmlns="http://www.w3.org/2000/svg" version="1.1">
 <metadata>
  <rdf:RDF xmlns:dc="http://purl.org/dc/elements/1.1/" xmlns:cc="http://creativecommons.org/ns#" xmlns:rdf="http://www.w3.org/1999/02/22-rdf-syntax-ns#">
   <cc:Work>
    <dc:type rdf:resource="http://purl.org/dc/dcmitype/StillImage"/>
    <dc:date>2024-02-01T21:27:29.591377</dc:date>
    <dc:format>image/svg+xml</dc:format>
    <dc:creator>
     <cc:Agent>
      <dc:title>Matplotlib v3.7.2, https://matplotlib.org/</dc:title>
     </cc:Agent>
    </dc:creator>
   </cc:Work>
  </rdf:RDF>
 </metadata>
 <defs>
  <style type="text/css">*{stroke-linejoin: round; stroke-linecap: butt}</style>
 </defs>
 <g id="figure_1">
  <g id="patch_1">
   <path d="M 0 365.54875 
L 675.923125 365.54875 
L 675.923125 -0 
L 0 -0 
z
" style="fill: #ffffff"/>
  </g>
  <g id="axes_1">
   <g id="patch_2">
    <path d="M 92.490625 308.63625 
L 650.490625 308.63625 
L 650.490625 31.43625 
L 92.490625 31.43625 
z
" style="fill: #ffffff"/>
   </g>
   <g id="matplotlib.axis_1">
    <g id="xtick_1">
     <g id="line2d_1">
      <defs>
       <path id="mfa142afaae" d="M 0 0 
L 0 3.5 
" style="stroke: #000000; stroke-width: 0.8"/>
      </defs>
      <g>
       <use xlink:href="#mfa142afaae" x="117.854261" y="308.63625" style="stroke: #000000; stroke-width: 0.8"/>
      </g>
     </g>
     <g id="text_1">
      <!-- 0 -->
      <g transform="translate(111.491761 330.833125) scale(0.2 -0.2)">
       <defs>
        <path id="DejaVuSans-30" d="M 2034 4250 
Q 1547 4250 1301 3770 
Q 1056 3291 1056 2328 
Q 1056 1369 1301 889 
Q 1547 409 2034 409 
Q 2525 409 2770 889 
Q 3016 1369 3016 2328 
Q 3016 3291 2770 3770 
Q 2525 4250 2034 4250 
z
M 2034 4750 
Q 2819 4750 3233 4129 
Q 3647 3509 3647 2328 
Q 3647 1150 3233 529 
Q 2819 -91 2034 -91 
Q 1250 -91 836 529 
Q 422 1150 422 2328 
Q 422 3509 836 4129 
Q 1250 4750 2034 4750 
z
" transform="scale(0.015625)"/>
       </defs>
       <use xlink:href="#DejaVuSans-30"/>
      </g>
     </g>
    </g>
    <g id="xtick_2">
     <g id="line2d_2">
      <g>
       <use xlink:href="#mfa142afaae" x="186.40463" y="308.63625" style="stroke: #000000; stroke-width: 0.8"/>
      </g>
     </g>
     <g id="text_2">
      <!-- 250 -->
      <g transform="translate(167.31713 330.833125) scale(0.2 -0.2)">
       <defs>
        <path id="DejaVuSans-32" d="M 1228 531 
L 3431 531 
L 3431 0 
L 469 0 
L 469 531 
Q 828 903 1448 1529 
Q 2069 2156 2228 2338 
Q 2531 2678 2651 2914 
Q 2772 3150 2772 3378 
Q 2772 3750 2511 3984 
Q 2250 4219 1831 4219 
Q 1534 4219 1204 4116 
Q 875 4013 500 3803 
L 500 4441 
Q 881 4594 1212 4672 
Q 1544 4750 1819 4750 
Q 2544 4750 2975 4387 
Q 3406 4025 3406 3419 
Q 3406 3131 3298 2873 
Q 3191 2616 2906 2266 
Q 2828 2175 2409 1742 
Q 1991 1309 1228 531 
z
" transform="scale(0.015625)"/>
        <path id="DejaVuSans-35" d="M 691 4666 
L 3169 4666 
L 3169 4134 
L 1269 4134 
L 1269 2991 
Q 1406 3038 1543 3061 
Q 1681 3084 1819 3084 
Q 2600 3084 3056 2656 
Q 3513 2228 3513 1497 
Q 3513 744 3044 326 
Q 2575 -91 1722 -91 
Q 1428 -91 1123 -41 
Q 819 9 494 109 
L 494 744 
Q 775 591 1075 516 
Q 1375 441 1709 441 
Q 2250 441 2565 725 
Q 2881 1009 2881 1497 
Q 2881 1984 2565 2268 
Q 2250 2553 1709 2553 
Q 1456 2553 1204 2497 
Q 953 2441 691 2322 
L 691 4666 
z
" transform="scale(0.015625)"/>
       </defs>
       <use xlink:href="#DejaVuSans-32"/>
       <use xlink:href="#DejaVuSans-35" x="63.623047"/>
       <use xlink:href="#DejaVuSans-30" x="127.246094"/>
      </g>
     </g>
    </g>
    <g id="xtick_3">
     <g id="line2d_3">
      <g>
       <use xlink:href="#mfa142afaae" x="254.954998" y="308.63625" style="stroke: #000000; stroke-width: 0.8"/>
      </g>
     </g>
     <g id="text_3">
      <!-- 500 -->
      <g transform="translate(235.867498 330.833125) scale(0.2 -0.2)">
       <use xlink:href="#DejaVuSans-35"/>
       <use xlink:href="#DejaVuSans-30" x="63.623047"/>
       <use xlink:href="#DejaVuSans-30" x="127.246094"/>
      </g>
     </g>
    </g>
    <g id="xtick_4">
     <g id="line2d_4">
      <g>
       <use xlink:href="#mfa142afaae" x="323.505367" y="308.63625" style="stroke: #000000; stroke-width: 0.8"/>
      </g>
     </g>
     <g id="text_4">
      <!-- 750 -->
      <g transform="translate(304.417867 330.833125) scale(0.2 -0.2)">
       <defs>
        <path id="DejaVuSans-37" d="M 525 4666 
L 3525 4666 
L 3525 4397 
L 1831 0 
L 1172 0 
L 2766 4134 
L 525 4134 
L 525 4666 
z
" transform="scale(0.015625)"/>
       </defs>
       <use xlink:href="#DejaVuSans-37"/>
       <use xlink:href="#DejaVuSans-35" x="63.623047"/>
       <use xlink:href="#DejaVuSans-30" x="127.246094"/>
      </g>
     </g>
    </g>
    <g id="xtick_5">
     <g id="line2d_5">
      <g>
       <use xlink:href="#mfa142afaae" x="392.055736" y="308.63625" style="stroke: #000000; stroke-width: 0.8"/>
      </g>
     </g>
     <g id="text_5">
      <!-- 1000 -->
      <g transform="translate(366.605736 330.833125) scale(0.2 -0.2)">
       <defs>
        <path id="DejaVuSans-31" d="M 794 531 
L 1825 531 
L 1825 4091 
L 703 3866 
L 703 4441 
L 1819 4666 
L 2450 4666 
L 2450 531 
L 3481 531 
L 3481 0 
L 794 0 
L 794 531 
z
" transform="scale(0.015625)"/>
       </defs>
       <use xlink:href="#DejaVuSans-31"/>
       <use xlink:href="#DejaVuSans-30" x="63.623047"/>
       <use xlink:href="#DejaVuSans-30" x="127.246094"/>
       <use xlink:href="#DejaVuSans-30" x="190.869141"/>
      </g>
     </g>
    </g>
    <g id="xtick_6">
     <g id="line2d_6">
      <g>
       <use xlink:href="#mfa142afaae" x="460.606104" y="308.63625" style="stroke: #000000; stroke-width: 0.8"/>
      </g>
     </g>
     <g id="text_6">
      <!-- 1250 -->
      <g transform="translate(435.156104 330.833125) scale(0.2 -0.2)">
       <use xlink:href="#DejaVuSans-31"/>
       <use xlink:href="#DejaVuSans-32" x="63.623047"/>
       <use xlink:href="#DejaVuSans-35" x="127.246094"/>
       <use xlink:href="#DejaVuSans-30" x="190.869141"/>
      </g>
     </g>
    </g>
    <g id="xtick_7">
     <g id="line2d_7">
      <g>
       <use xlink:href="#mfa142afaae" x="529.156473" y="308.63625" style="stroke: #000000; stroke-width: 0.8"/>
      </g>
     </g>
     <g id="text_7">
      <!-- 1500 -->
      <g transform="translate(503.706473 330.833125) scale(0.2 -0.2)">
       <use xlink:href="#DejaVuSans-31"/>
       <use xlink:href="#DejaVuSans-35" x="63.623047"/>
       <use xlink:href="#DejaVuSans-30" x="127.246094"/>
       <use xlink:href="#DejaVuSans-30" x="190.869141"/>
      </g>
     </g>
    </g>
    <g id="xtick_8">
     <g id="line2d_8">
      <g>
       <use xlink:href="#mfa142afaae" x="597.706841" y="308.63625" style="stroke: #000000; stroke-width: 0.8"/>
      </g>
     </g>
     <g id="text_8">
      <!-- 1750 -->
      <g transform="translate(572.256841 330.833125) scale(0.2 -0.2)">
       <use xlink:href="#DejaVuSans-31"/>
       <use xlink:href="#DejaVuSans-37" x="63.623047"/>
       <use xlink:href="#DejaVuSans-35" x="127.246094"/>
       <use xlink:href="#DejaVuSans-30" x="190.869141"/>
      </g>
     </g>
    </g>
    <g id="text_9">
     <!-- iterations -->
     <g transform="translate(324.035938 354.189375) scale(0.2 -0.2)">
      <defs>
       <path id="DejaVuSans-69" d="M 603 3500 
L 1178 3500 
L 1178 0 
L 603 0 
L 603 3500 
z
M 603 4863 
L 1178 4863 
L 1178 4134 
L 603 4134 
L 603 4863 
z
" transform="scale(0.015625)"/>
       <path id="DejaVuSans-74" d="M 1172 4494 
L 1172 3500 
L 2356 3500 
L 2356 3053 
L 1172 3053 
L 1172 1153 
Q 1172 725 1289 603 
Q 1406 481 1766 481 
L 2356 481 
L 2356 0 
L 1766 0 
Q 1100 0 847 248 
Q 594 497 594 1153 
L 594 3053 
L 172 3053 
L 172 3500 
L 594 3500 
L 594 4494 
L 1172 4494 
z
" transform="scale(0.015625)"/>
       <path id="DejaVuSans-65" d="M 3597 1894 
L 3597 1613 
L 953 1613 
Q 991 1019 1311 708 
Q 1631 397 2203 397 
Q 2534 397 2845 478 
Q 3156 559 3463 722 
L 3463 178 
Q 3153 47 2828 -22 
Q 2503 -91 2169 -91 
Q 1331 -91 842 396 
Q 353 884 353 1716 
Q 353 2575 817 3079 
Q 1281 3584 2069 3584 
Q 2775 3584 3186 3129 
Q 3597 2675 3597 1894 
z
M 3022 2063 
Q 3016 2534 2758 2815 
Q 2500 3097 2075 3097 
Q 1594 3097 1305 2825 
Q 1016 2553 972 2059 
L 3022 2063 
z
" transform="scale(0.015625)"/>
       <path id="DejaVuSans-72" d="M 2631 2963 
Q 2534 3019 2420 3045 
Q 2306 3072 2169 3072 
Q 1681 3072 1420 2755 
Q 1159 2438 1159 1844 
L 1159 0 
L 581 0 
L 581 3500 
L 1159 3500 
L 1159 2956 
Q 1341 3275 1631 3429 
Q 1922 3584 2338 3584 
Q 2397 3584 2469 3576 
Q 2541 3569 2628 3553 
L 2631 2963 
z
" transform="scale(0.015625)"/>
       <path id="DejaVuSans-61" d="M 2194 1759 
Q 1497 1759 1228 1600 
Q 959 1441 959 1056 
Q 959 750 1161 570 
Q 1363 391 1709 391 
Q 2188 391 2477 730 
Q 2766 1069 2766 1631 
L 2766 1759 
L 2194 1759 
z
M 3341 1997 
L 3341 0 
L 2766 0 
L 2766 531 
Q 2569 213 2275 61 
Q 1981 -91 1556 -91 
Q 1019 -91 701 211 
Q 384 513 384 1019 
Q 384 1609 779 1909 
Q 1175 2209 1959 2209 
L 2766 2209 
L 2766 2266 
Q 2766 2663 2505 2880 
Q 2244 3097 1772 3097 
Q 1472 3097 1187 3025 
Q 903 2953 641 2809 
L 641 3341 
Q 956 3463 1253 3523 
Q 1550 3584 1831 3584 
Q 2591 3584 2966 3190 
Q 3341 2797 3341 1997 
z
" transform="scale(0.015625)"/>
       <path id="DejaVuSans-6f" d="M 1959 3097 
Q 1497 3097 1228 2736 
Q 959 2375 959 1747 
Q 959 1119 1226 758 
Q 1494 397 1959 397 
Q 2419 397 2687 759 
Q 2956 1122 2956 1747 
Q 2956 2369 2687 2733 
Q 2419 3097 1959 3097 
z
M 1959 3584 
Q 2709 3584 3137 3096 
Q 3566 2609 3566 1747 
Q 3566 888 3137 398 
Q 2709 -91 1959 -91 
Q 1206 -91 779 398 
Q 353 888 353 1747 
Q 353 2609 779 3096 
Q 1206 3584 1959 3584 
z
" transform="scale(0.015625)"/>
       <path id="DejaVuSans-6e" d="M 3513 2113 
L 3513 0 
L 2938 0 
L 2938 2094 
Q 2938 2591 2744 2837 
Q 2550 3084 2163 3084 
Q 1697 3084 1428 2787 
Q 1159 2491 1159 1978 
L 1159 0 
L 581 0 
L 581 3500 
L 1159 3500 
L 1159 2956 
Q 1366 3272 1645 3428 
Q 1925 3584 2291 3584 
Q 2894 3584 3203 3211 
Q 3513 2838 3513 2113 
z
" transform="scale(0.015625)"/>
       <path id="DejaVuSans-73" d="M 2834 3397 
L 2834 2853 
Q 2591 2978 2328 3040 
Q 2066 3103 1784 3103 
Q 1356 3103 1142 2972 
Q 928 2841 928 2578 
Q 928 2378 1081 2264 
Q 1234 2150 1697 2047 
L 1894 2003 
Q 2506 1872 2764 1633 
Q 3022 1394 3022 966 
Q 3022 478 2636 193 
Q 2250 -91 1575 -91 
Q 1294 -91 989 -36 
Q 684 19 347 128 
L 347 722 
Q 666 556 975 473 
Q 1284 391 1588 391 
Q 1994 391 2212 530 
Q 2431 669 2431 922 
Q 2431 1156 2273 1281 
Q 2116 1406 1581 1522 
L 1381 1569 
Q 847 1681 609 1914 
Q 372 2147 372 2553 
Q 372 3047 722 3315 
Q 1072 3584 1716 3584 
Q 2034 3584 2315 3537 
Q 2597 3491 2834 3397 
z
" transform="scale(0.015625)"/>
      </defs>
      <use xlink:href="#DejaVuSans-69"/>
      <use xlink:href="#DejaVuSans-74" x="27.783203"/>
      <use xlink:href="#DejaVuSans-65" x="66.992188"/>
      <use xlink:href="#DejaVuSans-72" x="128.515625"/>
      <use xlink:href="#DejaVuSans-61" x="169.628906"/>
      <use xlink:href="#DejaVuSans-74" x="230.908203"/>
      <use xlink:href="#DejaVuSans-69" x="270.117188"/>
      <use xlink:href="#DejaVuSans-6f" x="297.900391"/>
      <use xlink:href="#DejaVuSans-6e" x="359.082031"/>
      <use xlink:href="#DejaVuSans-73" x="422.460938"/>
     </g>
    </g>
   </g>
   <g id="matplotlib.axis_2">
    <g id="ytick_1">
     <g id="line2d_9">
      <defs>
       <path id="mcf8db805fa" d="M 0 0 
L -3.5 0 
" style="stroke: #000000; stroke-width: 0.8"/>
      </defs>
      <g>
       <use xlink:href="#mcf8db805fa" x="92.490625" y="234.626549" style="stroke: #000000; stroke-width: 0.8"/>
      </g>
     </g>
     <g id="text_10">
      <!-- −200 -->
      <g transform="translate(30.55625 242.224987) scale(0.2 -0.2)">
       <defs>
        <path id="DejaVuSans-2212" d="M 678 2272 
L 4684 2272 
L 4684 1741 
L 678 1741 
L 678 2272 
z
" transform="scale(0.015625)"/>
       </defs>
       <use xlink:href="#DejaVuSans-2212"/>
       <use xlink:href="#DejaVuSans-32" x="83.789062"/>
       <use xlink:href="#DejaVuSans-30" x="147.412109"/>
       <use xlink:href="#DejaVuSans-30" x="211.035156"/>
      </g>
     </g>
    </g>
    <g id="ytick_2">
     <g id="line2d_10">
      <g>
       <use xlink:href="#mcf8db805fa" x="92.490625" y="151.376755" style="stroke: #000000; stroke-width: 0.8"/>
      </g>
     </g>
     <g id="text_11">
      <!-- 0 -->
      <g transform="translate(72.765625 158.975193) scale(0.2 -0.2)">
       <use xlink:href="#DejaVuSans-30"/>
      </g>
     </g>
    </g>
    <g id="ytick_3">
     <g id="line2d_11">
      <g>
       <use xlink:href="#mcf8db805fa" x="92.490625" y="68.126962" style="stroke: #000000; stroke-width: 0.8"/>
      </g>
     </g>
     <g id="text_12">
      <!-- 200 -->
      <g transform="translate(47.315625 75.725399) scale(0.2 -0.2)">
       <use xlink:href="#DejaVuSans-32"/>
       <use xlink:href="#DejaVuSans-30" x="63.623047"/>
       <use xlink:href="#DejaVuSans-30" x="127.246094"/>
      </g>
     </g>
    </g>
    <g id="text_13">
     <!-- Loss -->
     <g transform="translate(22.396875 191.970625) rotate(-90) scale(0.2 -0.2)">
      <defs>
       <path id="DejaVuSans-4c" d="M 628 4666 
L 1259 4666 
L 1259 531 
L 3531 531 
L 3531 0 
L 628 0 
L 628 4666 
z
" transform="scale(0.015625)"/>
      </defs>
      <use xlink:href="#DejaVuSans-4c"/>
      <use xlink:href="#DejaVuSans-6f" x="53.962891"/>
      <use xlink:href="#DejaVuSans-73" x="115.144531"/>
      <use xlink:href="#DejaVuSans-73" x="167.244141"/>
     </g>
    </g>
   </g>
   <g id="line2d_12">
    <path d="M 117.854261 114.726306 
L 118.128463 106.081918 
L 118.402664 66.645135 
L 118.676866 44.03625 
L 118.951067 55.607746 
L 119.225269 116.630126 
L 119.49947 138.664661 
L 119.773672 137.321124 
L 120.047873 122.741893 
L 120.322075 120.788415 
L 120.596276 127.999278 
L 120.870478 122.989826 
L 121.144679 108.458537 
L 121.418881 122.646974 
L 121.693082 126.556792 
L 122.241485 120.201515 
L 122.515686 126.255443 
L 122.789888 122.797609 
L 123.064089 127.006439 
L 123.338291 118.64052 
L 123.612492 124.366742 
L 123.886694 117.662909 
L 124.160895 117.330772 
L 124.435097 114.695364 
L 124.709298 107.764658 
L 124.9835 108.435758 
L 125.531903 106.219874 
L 125.806104 110.116506 
L 126.354507 103.735206 
L 126.628709 107.114803 
L 126.90291 106.33327 
L 127.177111 103.507469 
L 127.451313 108.842958 
L 127.725514 102.920055 
L 127.999716 108.429686 
L 128.273917 110.936486 
L 128.548119 110.869457 
L 128.82232 106.939005 
L 129.096522 105.409875 
L 129.370723 110.445841 
L 129.644925 111.131011 
L 129.919126 113.912796 
L 130.193328 112.411065 
L 130.467529 111.591078 
L 130.741731 112.594274 
L 131.015932 115.130586 
L 131.290134 112.662515 
L 131.564335 111.560611 
L 131.838537 112.925905 
L 132.112738 108.346789 
L 132.386939 112.549272 
L 132.661141 114.58122 
L 132.935342 115.179402 
L 133.209544 119.262292 
L 133.483745 117.014571 
L 133.757947 116.380063 
L 134.032148 120.267786 
L 134.30635 120.37667 
L 134.580551 120.879402 
L 134.854753 120.548412 
L 135.128954 123.597646 
L 135.403156 123.431828 
L 135.677357 121.429234 
L 135.951559 122.560572 
L 136.22576 119.85272 
L 136.499962 118.694633 
L 137.048365 118.68102 
L 137.322566 118.119314 
L 137.596768 121.17012 
L 138.14517 116.7473 
L 138.419372 113.297092 
L 138.693573 118.688744 
L 138.967775 120.343387 
L 139.241976 123.308616 
L 139.790379 118.109455 
L 140.338782 123.245243 
L 140.887185 118.407012 
L 141.435588 122.653338 
L 141.70979 123.836576 
L 141.983991 125.744796 
L 142.258193 123.447651 
L 142.532394 128.318527 
L 142.806596 129.080516 
L 143.080797 128.830815 
L 143.354998 128.20745 
L 143.6292 128.76154 
L 143.903401 132.053196 
L 144.177603 133.596636 
L 144.451804 133.934515 
L 144.726006 135.141517 
L 145.000207 135.137063 
L 145.274409 134.780402 
L 145.54861 135.202134 
L 145.822812 135.093015 
L 146.097013 136.905242 
L 146.645416 142.399589 
L 146.919618 142.128559 
L 147.193819 142.779249 
L 147.468021 139.598641 
L 147.742222 140.408307 
L 148.016424 138.506123 
L 148.290625 139.937779 
L 149.387431 135.089312 
L 149.661632 138.125691 
L 149.935834 137.931203 
L 150.210035 136.48173 
L 150.484237 135.887461 
L 151.03264 133.177328 
L 151.306841 135.336782 
L 151.581043 134.894951 
L 151.855244 135.405771 
L 152.129446 135.395858 
L 152.403647 136.106534 
L 152.677849 138.160945 
L 153.226252 138.778501 
L 153.500453 139.328544 
L 153.774654 137.455284 
L 154.048856 138.146409 
L 154.323057 139.584531 
L 154.597259 139.54211 
L 154.87146 140.772087 
L 155.145662 139.328314 
L 155.419863 141.270704 
L 155.968266 138.38691 
L 156.242468 138.267975 
L 156.516669 138.407029 
L 156.790871 138.064147 
L 157.065072 136.366411 
L 157.339274 136.725459 
L 157.613475 137.7051 
L 157.887677 136.859223 
L 158.161878 139.049001 
L 158.43608 137.336016 
L 158.710281 137.257625 
L 158.984482 138.794003 
L 159.258684 138.317046 
L 159.532885 138.127537 
L 159.807087 137.085883 
L 160.081288 140.357201 
L 160.35549 142.188057 
L 160.629691 140.211719 
L 160.903893 141.214973 
L 161.178094 140.469004 
L 161.452296 140.399257 
L 161.726497 137.341402 
L 162.000699 136.956775 
L 162.2749 138.004539 
L 162.549102 141.917493 
L 162.823303 141.394417 
L 163.371706 138.757231 
L 163.645908 139.627896 
L 164.194311 142.544043 
L 164.468512 142.319792 
L 164.742713 139.759331 
L 165.016915 140.416344 
L 165.291116 141.45395 
L 165.565318 141.363625 
L 165.839519 140.978604 
L 166.113721 142.910652 
L 166.387922 142.90158 
L 166.662124 144.549058 
L 166.936325 145.17122 
L 167.210527 145.44887 
L 167.484728 144.416339 
L 167.75893 144.947962 
L 168.033131 143.814591 
L 168.307333 145.207917 
L 168.581534 145.528567 
L 168.855736 144.861957 
L 169.129937 145.227471 
L 169.404139 144.527959 
L 169.67834 145.046411 
L 169.952541 146.68308 
L 170.226743 147.135187 
L 170.775146 143.988933 
L 171.049347 145.81337 
L 171.323549 144.652605 
L 171.59775 145.491722 
L 171.871952 145.544312 
L 172.146153 146.479505 
L 172.420355 145.926367 
L 172.694556 146.569906 
L 172.968758 146.635087 
L 173.242959 145.762171 
L 173.517161 146.892018 
L 173.791362 148.983063 
L 174.065564 148.879743 
L 174.339765 147.783513 
L 174.613967 148.254067 
L 174.888168 147.888736 
L 175.436571 146.202176 
L 175.710772 146.837467 
L 175.984974 146.997663 
L 176.533377 146.666794 
L 177.08178 146.848622 
L 177.355981 146.639285 
L 177.630183 145.433562 
L 177.904384 146.697151 
L 178.178586 146.488051 
L 178.452787 148.265055 
L 178.726989 147.613654 
L 179.00119 147.710403 
L 179.275392 147.419561 
L 179.549593 147.740517 
L 179.823795 146.590609 
L 180.372197 147.987777 
L 180.9206 148.092569 
L 181.194802 147.626153 
L 181.469003 148.346627 
L 181.743205 147.834075 
L 182.017406 146.928657 
L 182.291608 148.067958 
L 182.565809 147.258653 
L 182.840011 148.865305 
L 183.114212 148.410553 
L 183.388414 148.967358 
L 183.662615 149.221557 
L 183.936817 149.822095 
L 184.211018 148.406232 
L 184.48522 148.806973 
L 184.759421 148.539764 
L 185.033623 149.07262 
L 185.582025 148.61838 
L 186.130428 149.440954 
L 186.40463 149.36957 
L 186.678831 150.013568 
L 186.953033 149.776241 
L 187.227234 150.325511 
L 187.501436 149.880589 
L 187.775637 151.162299 
L 188.049839 149.985682 
L 188.32404 151.13516 
L 188.598242 149.965057 
L 189.146645 149.636812 
L 189.420846 150.277934 
L 189.695048 150.130294 
L 189.969249 149.369379 
L 190.243451 148.998461 
L 190.791854 149.411097 
L 191.066055 150.464825 
L 191.340256 150.199464 
L 191.614458 150.562235 
L 191.888659 150.590935 
L 192.162861 151.04972 
L 192.437062 151.841912 
L 192.985465 151.175547 
L 193.259667 152.473986 
L 193.533868 151.552817 
L 193.80807 151.225341 
L 194.082271 151.595681 
L 194.356473 152.660834 
L 194.630674 151.773162 
L 194.904876 152.094372 
L 195.179077 152.17824 
L 195.453279 151.68895 
L 196.275883 152.286212 
L 196.550084 152.200918 
L 196.824286 152.280159 
L 197.098487 151.754625 
L 197.372689 152.272882 
L 197.921092 151.842046 
L 198.195293 152.141914 
L 198.469495 152.770268 
L 198.743696 152.207484 
L 199.017898 152.377094 
L 199.292099 152.188492 
L 199.566301 152.676249 
L 199.840502 151.731846 
L 200.388905 151.345152 
L 200.663107 152.186997 
L 200.937308 152.122104 
L 201.21151 151.359375 
L 201.485711 151.397048 
L 201.759912 151.085501 
L 202.308315 152.610465 
L 202.856718 151.755312 
L 203.13092 151.745505 
L 203.679323 151.233799 
L 204.776129 151.931251 
L 205.05033 150.713665 
L 205.324532 151.562487 
L 205.872935 150.850461 
L 206.147136 150.617443 
L 206.421338 151.580261 
L 206.695539 151.282821 
L 206.96974 151.651857 
L 207.243942 151.11709 
L 207.518143 151.018062 
L 207.792345 149.816142 
L 208.340748 151.54643 
L 208.614949 151.134366 
L 208.889151 150.083957 
L 209.163352 149.856048 
L 209.437554 150.084806 
L 209.985957 150.905625 
L 210.53436 150.592418 
L 210.808561 150.540132 
L 211.082763 150.835766 
L 211.356964 149.605204 
L 211.631166 150.155542 
L 211.905367 148.359728 
L 212.179568 149.069275 
L 212.45377 149.470042 
L 212.727971 148.774616 
L 213.002173 149.156396 
L 213.276374 149.200486 
L 213.550576 148.372847 
L 213.824777 148.781279 
L 214.098979 148.915586 
L 214.37318 148.736299 
L 214.647382 148.278376 
L 214.921583 150.048145 
L 215.195785 149.794805 
L 215.744188 147.006615 
L 216.018389 149.701961 
L 216.292591 148.584931 
L 216.566792 150.113674 
L 216.840994 149.148353 
L 217.115195 149.050289 
L 217.389396 149.482133 
L 217.663598 149.221502 
L 218.212001 149.716106 
L 218.760404 149.448828 
L 219.034605 148.575808 
L 219.583008 149.033621 
L 219.85721 149.043221 
L 220.131411 148.766445 
L 220.405613 150.10204 
L 220.679814 149.976308 
L 220.954016 149.01284 
L 221.502419 150.415562 
L 221.77662 150.191345 
L 222.050822 149.765998 
L 222.599225 151.094122 
L 222.873426 150.749297 
L 223.147627 150.748543 
L 223.421829 150.552951 
L 223.69603 150.811243 
L 223.970232 150.267491 
L 224.244433 150.78941 
L 224.518635 151.586957 
L 224.792836 150.325004 
L 225.067038 151.032796 
L 225.341239 150.88367 
L 225.615441 150.884052 
L 225.889642 151.261011 
L 226.163844 150.707683 
L 226.438045 150.648162 
L 226.712247 149.982535 
L 226.986448 150.220711 
L 227.26065 150.660541 
L 227.534851 150.245039 
L 227.809053 151.090624 
L 228.083254 151.255264 
L 228.357455 150.92556 
L 228.631657 151.095426 
L 228.905858 151.622911 
L 229.18006 151.330097 
L 229.454261 151.27642 
L 229.728463 151.926709 
L 230.002664 151.644614 
L 230.276866 151.748004 
L 230.551067 151.589741 
L 230.825269 151.096936 
L 231.09947 151.232504 
L 231.373672 152.274212 
L 231.647873 151.431557 
L 231.922075 152.15493 
L 232.196276 150.750337 
L 232.470478 151.642762 
L 232.744679 152.003527 
L 233.018881 151.370928 
L 233.293082 151.81159 
L 234.115686 152.347011 
L 234.389888 152.287551 
L 234.664089 152.792889 
L 234.938291 152.330353 
L 235.212492 152.840892 
L 235.486694 152.952117 
L 235.760895 152.415944 
L 236.035097 152.560223 
L 236.309298 151.791173 
L 236.5835 151.744005 
L 236.857701 151.92552 
L 237.131903 151.236089 
L 237.406104 151.001596 
L 237.680306 152.275131 
L 237.954507 151.230055 
L 238.777111 152.57704 
L 239.325514 151.791563 
L 239.599716 152.511252 
L 239.873917 151.929362 
L 240.148119 152.536765 
L 240.42232 151.959364 
L 240.696522 152.067056 
L 240.970723 152.043511 
L 241.519126 152.304802 
L 241.793328 151.700389 
L 242.341731 151.287794 
L 242.890134 152.210526 
L 243.164335 152.047336 
L 243.438537 152.215515 
L 243.712738 151.418016 
L 243.986939 151.783619 
L 244.535342 151.755368 
L 244.809544 152.372138 
L 245.357947 152.398249 
L 245.90635 152.143606 
L 246.180551 152.661245 
L 246.454753 152.418168 
L 246.728954 151.076607 
L 247.003156 152.230132 
L 247.277357 152.254543 
L 247.551559 152.085501 
L 247.82576 152.097016 
L 248.374163 151.575627 
L 248.922566 151.848856 
L 249.196768 151.953318 
L 249.470969 152.623378 
L 250.019372 151.842257 
L 250.293573 152.267785 
L 250.841976 152.143958 
L 251.116178 150.987889 
L 251.664581 151.975647 
L 251.938782 151.998391 
L 252.212984 151.335571 
L 252.487185 151.682935 
L 252.761387 152.632733 
L 253.035588 152.19404 
L 253.858193 151.946123 
L 254.132394 152.200519 
L 254.406596 152.193347 
L 254.680797 151.984494 
L 255.2292 152.365496 
L 255.503401 152.266247 
L 255.777603 151.934436 
L 256.051804 152.40168 
L 256.326006 152.065543 
L 256.600207 151.446763 
L 256.874409 151.828722 
L 257.14861 151.947018 
L 257.422812 152.448695 
L 257.971215 151.506004 
L 258.245416 151.857779 
L 258.519618 151.871857 
L 258.793819 151.079205 
L 259.068021 151.507201 
L 259.342222 151.45044 
L 259.616424 151.647678 
L 259.890625 151.448021 
L 260.164826 151.495779 
L 260.439028 150.817983 
L 260.713229 151.706664 
L 260.987431 151.308106 
L 261.261632 151.276547 
L 261.535834 151.5955 
L 261.810035 151.62933 
L 262.084237 151.070949 
L 262.358438 151.645706 
L 262.63264 151.69572 
L 263.181043 151.149644 
L 263.455244 151.458323 
L 263.729446 151.46821 
L 264.003647 152.024571 
L 264.277849 152.047261 
L 264.55205 151.13832 
L 264.826252 151.604247 
L 265.100453 151.562435 
L 265.374654 151.300639 
L 265.648856 151.701181 
L 265.923057 151.454309 
L 266.197259 151.537243 
L 266.47146 151.037532 
L 266.745662 151.344607 
L 267.019863 151.194195 
L 267.294065 151.298938 
L 267.842468 151.177206 
L 268.116669 151.24606 
L 268.665072 151.801094 
L 268.939274 151.715007 
L 269.213475 151.495821 
L 269.487677 151.575049 
L 269.761878 152.208455 
L 270.03608 151.707065 
L 270.310281 151.726826 
L 270.584482 151.988182 
L 270.858684 152.692704 
L 271.132885 152.089559 
L 271.681288 152.427433 
L 271.95549 152.218327 
L 272.229691 152.372906 
L 272.503893 152.029724 
L 272.778094 152.286971 
L 273.052296 151.970467 
L 273.326497 152.555662 
L 273.600699 152.245332 
L 274.149102 152.541199 
L 274.423303 151.979995 
L 274.697505 152.520662 
L 274.971706 152.584042 
L 275.245908 152.14573 
L 275.520109 152.190755 
L 275.794311 151.690852 
L 276.068512 152.114592 
L 276.342713 152.29273 
L 276.891116 152.107116 
L 277.165318 152.648587 
L 277.439519 152.284687 
L 277.987922 152.570828 
L 278.262124 151.94545 
L 278.536325 152.373726 
L 279.084728 152.544228 
L 279.35893 152.822214 
L 279.907333 152.090089 
L 280.181534 152.535167 
L 280.729937 152.221624 
L 281.004139 152.436898 
L 281.27834 152.35947 
L 281.826743 152.520215 
L 282.100944 153.016444 
L 282.375146 151.731253 
L 282.649347 152.950878 
L 282.923549 152.456644 
L 283.471952 152.995511 
L 283.746153 152.141711 
L 284.020355 152.638712 
L 284.294556 152.800987 
L 284.842959 152.785811 
L 285.117161 152.008473 
L 285.391362 152.737062 
L 285.665564 152.400565 
L 285.939765 152.305675 
L 286.213967 151.975513 
L 286.488168 152.573437 
L 286.762369 151.750127 
L 287.036571 152.303332 
L 287.310772 148.524838 
L 287.584974 151.957175 
L 287.859175 151.768497 
L 288.133377 151.228879 
L 288.407578 149.876511 
L 288.68178 150.908245 
L 288.955981 150.634714 
L 289.230183 150.781189 
L 289.504384 151.133643 
L 289.778586 150.985306 
L 290.052787 151.421726 
L 290.326989 151.07346 
L 290.875392 151.445347 
L 291.149593 151.544725 
L 291.423795 151.284326 
L 291.697996 151.233488 
L 291.972197 151.776222 
L 292.246399 152.068305 
L 292.5206 151.888559 
L 292.794802 152.299186 
L 293.069003 152.396925 
L 293.343205 152.804566 
L 293.617406 151.928435 
L 294.165809 151.75361 
L 294.440011 152.006023 
L 294.714212 152.058703 
L 294.988414 151.994579 
L 295.262615 151.590229 
L 295.811018 151.647107 
L 296.08522 151.896192 
L 296.359421 151.728772 
L 296.907824 151.971596 
L 297.182025 151.477873 
L 297.730428 152.194692 
L 298.553033 152.161486 
L 298.827234 151.747277 
L 299.101436 151.809392 
L 299.375637 152.215417 
L 299.649839 152.396104 
L 299.92404 152.099389 
L 300.198242 152.378092 
L 301.020846 152.240698 
L 301.295048 151.902568 
L 301.569249 152.467766 
L 301.843451 152.124655 
L 302.117652 152.70934 
L 302.391854 152.230334 
L 302.666055 152.155856 
L 302.940256 152.355853 
L 303.214458 152.094614 
L 303.488659 152.597834 
L 303.762861 152.284626 
L 304.037062 151.680398 
L 304.311264 152.298811 
L 304.585465 152.390976 
L 304.859667 152.345511 
L 305.133868 151.894844 
L 305.40807 151.847075 
L 305.682271 152.100982 
L 305.956473 151.939378 
L 306.230674 152.30459 
L 306.779077 152.323955 
L 307.053279 151.872378 
L 307.32748 152.179649 
L 307.601682 152.235323 
L 307.875883 151.742924 
L 308.150084 151.994381 
L 308.424286 151.714282 
L 308.698487 152.59086 
L 308.972689 152.371201 
L 309.24689 152.410087 
L 309.521092 151.979833 
L 309.795293 152.13412 
L 310.343696 151.953103 
L 310.617898 152.663517 
L 310.892099 152.850887 
L 311.166301 152.335265 
L 311.440502 152.093904 
L 311.714704 152.09731 
L 311.988905 151.861739 
L 312.263107 152.22775 
L 312.537308 152.143963 
L 312.81151 151.920261 
L 313.085711 152.292448 
L 313.634114 151.608838 
L 313.908315 151.884717 
L 314.182517 151.948034 
L 314.73092 151.885639 
L 315.005121 151.98697 
L 315.279323 151.792668 
L 315.553524 151.911078 
L 315.827726 151.859503 
L 316.376129 151.98688 
L 316.65033 152.018334 
L 316.924532 152.415296 
L 317.472935 151.914235 
L 317.747136 151.89707 
L 318.295539 152.22128 
L 319.392345 151.399755 
L 319.666546 152.082493 
L 319.940748 151.858426 
L 320.214949 151.14337 
L 320.489151 151.339535 
L 320.763352 151.059344 
L 321.037554 151.37599 
L 321.860158 151.377481 
L 322.13436 151.680836 
L 322.682763 151.543694 
L 322.956964 150.926786 
L 323.505367 151.767019 
L 323.779568 151.616761 
L 324.05377 151.706296 
L 324.327971 151.076738 
L 324.602173 151.587845 
L 324.876374 151.442994 
L 325.150576 151.430316 
L 325.424777 151.547727 
L 325.698979 151.213943 
L 325.97318 151.582079 
L 326.247382 151.353998 
L 326.795785 151.507801 
L 327.344188 151.177908 
L 327.618389 151.384978 
L 328.440994 151.092115 
L 328.715195 151.176657 
L 328.989396 151.640328 
L 329.537799 151.604892 
L 329.812001 151.570655 
L 330.086202 151.945732 
L 330.634605 151.938915 
L 330.908807 151.661181 
L 331.183008 151.550083 
L 331.45721 151.205932 
L 332.005613 151.191742 
L 332.279814 151.686735 
L 332.554016 151.613083 
L 332.828217 151.852518 
L 333.102419 151.679496 
L 333.650822 152.207215 
L 335.29603 151.367225 
L 335.570232 151.667476 
L 336.118635 151.296849 
L 336.392836 151.849446 
L 336.667038 151.805784 
L 336.941239 151.328364 
L 337.215441 151.674293 
L 337.489642 151.743831 
L 337.763844 152.042436 
L 338.038045 151.830819 
L 338.312247 151.370385 
L 338.86065 151.709383 
L 339.134851 151.443255 
L 339.409053 151.744608 
L 339.683254 151.368646 
L 339.957455 151.488061 
L 340.231657 151.828688 
L 340.505858 151.146687 
L 340.78006 151.689779 
L 341.054261 151.498835 
L 341.602664 151.770987 
L 341.876866 151.543286 
L 342.151067 150.945401 
L 342.425269 151.778396 
L 342.69947 151.49887 
L 343.247873 151.858059 
L 343.796276 151.134675 
L 344.070478 151.486843 
L 344.344679 151.396916 
L 344.618881 151.719428 
L 344.893082 151.424326 
L 345.167283 151.788686 
L 345.441485 151.564222 
L 345.715686 151.705691 
L 345.989888 151.996654 
L 346.264089 151.92431 
L 346.538291 151.704387 
L 346.812492 152.328413 
L 347.360895 152.27705 
L 347.635097 151.88783 
L 348.457701 151.92844 
L 348.731903 152.307681 
L 349.280306 152.183362 
L 349.828709 152.189478 
L 350.10291 152.038944 
L 350.377111 152.635119 
L 350.651313 152.101613 
L 350.925514 151.938368 
L 351.199716 152.079164 
L 351.473917 151.71079 
L 351.748119 151.797494 
L 352.02232 151.646745 
L 352.296522 152.143108 
L 352.570723 151.99021 
L 352.844925 152.18414 
L 353.119126 152.22808 
L 353.667529 151.906362 
L 353.941731 151.692709 
L 354.215932 151.910702 
L 354.490134 151.764202 
L 355.038537 151.699157 
L 355.312738 152.14054 
L 355.586939 151.37151 
L 356.135342 151.766142 
L 356.683745 151.713636 
L 356.957947 151.875768 
L 357.232148 151.39868 
L 357.50635 151.225943 
L 357.780551 151.535501 
L 358.054753 151.645419 
L 358.328954 151.240036 
L 358.877357 151.689344 
L 360.248365 151.53041 
L 360.522566 151.307105 
L 360.796768 151.856963 
L 361.34517 151.503902 
L 361.619372 151.979471 
L 361.893573 151.697348 
L 362.167775 151.934772 
L 362.441976 151.508816 
L 362.716178 152.151504 
L 362.990379 151.747737 
L 363.264581 151.834478 
L 363.538782 152.265236 
L 363.812984 151.941584 
L 364.087185 151.934039 
L 364.361387 151.171931 
L 364.635588 151.802155 
L 364.90979 152.066033 
L 365.458193 151.545989 
L 366.006596 151.575974 
L 366.280797 151.873294 
L 366.554998 151.918905 
L 366.8292 151.736145 
L 367.103401 151.989589 
L 367.377603 151.574647 
L 367.651804 151.879342 
L 368.474409 151.910117 
L 368.74861 151.70139 
L 369.022812 151.937435 
L 369.297013 152.009852 
L 369.571215 151.533277 
L 370.119618 152.084454 
L 370.393819 151.590728 
L 370.942222 152.446118 
L 371.490625 151.724952 
L 372.039028 152.141755 
L 372.313229 151.898353 
L 372.587431 152.1334 
L 372.861632 152.032246 
L 373.135834 152.398274 
L 373.410035 151.485606 
L 373.684237 151.919006 
L 373.958438 151.88307 
L 374.23264 151.55212 
L 374.506841 151.715725 
L 374.781043 152.216185 
L 375.329446 151.526062 
L 375.603647 151.839099 
L 375.877849 152.344255 
L 376.15205 152.354418 
L 376.426252 151.937689 
L 376.700453 151.854042 
L 377.248856 152.403465 
L 377.523057 151.928993 
L 378.345662 152.361175 
L 378.894065 152.27399 
L 379.168266 152.385159 
L 379.442468 151.892379 
L 380.265072 152.244459 
L 380.539274 151.72125 
L 380.813475 152.643585 
L 381.087677 152.199328 
L 381.361878 152.058942 
L 381.63608 152.411634 
L 382.184482 151.943532 
L 382.458684 151.985253 
L 383.007087 151.866921 
L 383.281288 151.978894 
L 383.55549 152.516977 
L 383.829691 152.155609 
L 384.103893 152.389905 
L 384.378094 152.072178 
L 384.652296 152.703306 
L 384.926497 152.95425 
L 385.200699 152.619859 
L 385.749102 152.332556 
L 386.297505 152.769971 
L 386.845908 152.24283 
L 387.394311 152.833334 
L 387.668512 152.80824 
L 387.942713 152.291823 
L 388.216915 152.833655 
L 388.765318 152.210842 
L 389.313721 152.278928 
L 389.862124 152.356118 
L 390.136325 152.226534 
L 390.410527 152.465522 
L 390.684728 152.474592 
L 390.95893 152.221023 
L 391.233131 152.302501 
L 391.507333 152.05563 
L 392.055736 152.459694 
L 392.329937 152.101627 
L 392.604139 152.179048 
L 392.87834 152.103387 
L 393.152541 152.219353 
L 393.426743 152.510258 
L 393.700944 152.273396 
L 393.975146 152.398583 
L 394.523549 152.125431 
L 394.79775 152.171389 
L 395.071952 151.970359 
L 395.346153 152.253858 
L 395.620355 152.200606 
L 395.894556 152.397954 
L 396.168758 152.317683 
L 396.442959 152.115818 
L 396.991362 152.208094 
L 397.265564 151.816096 
L 397.539765 152.263418 
L 397.813967 152.06862 
L 398.088168 152.056638 
L 398.362369 152.361283 
L 398.636571 152.3193 
L 398.910772 151.907125 
L 399.184974 152.04794 
L 399.459175 152.353644 
L 399.733377 152.087623 
L 400.007578 152.359963 
L 400.28178 152.294126 
L 400.555981 152.614881 
L 400.830183 152.20847 
L 401.104384 152.351788 
L 401.378586 152.690721 
L 402.20119 151.781281 
L 402.475392 152.120058 
L 402.749593 152.27773 
L 403.297996 151.806116 
L 403.572197 152.353814 
L 403.846399 151.890548 
L 404.1206 152.196915 
L 404.394802 151.925702 
L 404.943205 151.948349 
L 405.491608 152.060363 
L 405.765809 152.072341 
L 406.314212 152.921489 
L 406.862615 152.006672 
L 407.136817 152.520321 
L 407.411018 152.654111 
L 407.68522 152.500869 
L 407.959421 151.963768 
L 408.233623 151.764147 
L 408.507824 152.336932 
L 408.782025 151.989874 
L 409.330428 152.021301 
L 409.60463 152.29921 
L 409.878831 152.317879 
L 410.153033 152.627305 
L 410.701436 152.462779 
L 410.975637 152.18155 
L 411.249839 152.654229 
L 411.52404 152.367052 
L 411.798242 152.439632 
L 412.346645 152.247902 
L 412.620846 152.307977 
L 412.895048 152.507178 
L 413.169249 152.42275 
L 413.717652 152.686774 
L 413.991854 152.495383 
L 414.266055 152.551822 
L 414.540256 152.895301 
L 414.814458 152.279384 
L 415.088659 152.848113 
L 415.362861 152.753765 
L 415.637062 152.488698 
L 415.911264 152.949287 
L 416.185465 152.571899 
L 416.459667 152.693882 
L 416.733868 152.64935 
L 417.00807 152.353643 
L 417.282271 152.669361 
L 417.556473 152.368571 
L 417.830674 152.538901 
L 418.104876 152.843801 
L 418.379077 152.570692 
L 418.92748 152.54439 
L 419.201682 152.787501 
L 420.024286 152.488456 
L 420.84689 153.162053 
L 421.121092 152.986459 
L 421.395293 152.455687 
L 421.669495 153.06156 
L 421.943696 152.777063 
L 422.217898 152.756131 
L 422.492099 153.00796 
L 423.040502 152.882425 
L 423.314704 152.355673 
L 423.588905 152.493841 
L 424.137308 153.210481 
L 424.685711 153.058307 
L 425.234114 152.955914 
L 425.508315 152.74624 
L 426.056718 153.027155 
L 426.33092 152.504372 
L 426.605121 152.859766 
L 427.427726 153.041754 
L 427.701927 152.541584 
L 427.976129 152.417945 
L 428.25033 152.832131 
L 428.524532 152.925445 
L 428.798733 152.586765 
L 429.347136 153.048029 
L 429.621338 152.752645 
L 429.895539 152.626115 
L 430.443942 152.936892 
L 430.718143 152.683649 
L 430.992345 152.911091 
L 431.266546 152.363894 
L 431.540748 153.042916 
L 431.814949 152.990963 
L 432.089151 152.506209 
L 432.363352 152.774364 
L 432.637554 152.52135 
L 433.185957 152.919921 
L 433.460158 152.54567 
L 433.73436 152.87646 
L 434.008561 152.736383 
L 434.282763 153.032834 
L 434.556964 153.108853 
L 434.831166 152.820255 
L 435.379568 152.876966 
L 435.65377 153.321299 
L 435.927971 152.960797 
L 436.202173 152.98893 
L 436.476374 153.202848 
L 437.847382 152.827884 
L 438.121583 153.304688 
L 438.395785 153.046339 
L 438.669986 153.28803 
L 438.944188 153.168489 
L 439.218389 152.752113 
L 439.492591 153.269234 
L 439.766792 153.139193 
L 440.040994 152.812752 
L 440.863598 152.878505 
L 441.137799 153.041601 
L 441.412001 153.015541 
L 441.686202 153.262489 
L 442.234605 152.676142 
L 442.508807 153.009325 
L 442.783008 152.575587 
L 443.331411 152.872476 
L 443.605613 152.953163 
L 444.154016 152.705524 
L 444.428217 152.7006 
L 444.702419 153.317643 
L 444.97662 153.208254 
L 445.250822 152.574833 
L 445.525023 153.190572 
L 446.073426 153.272659 
L 446.89603 153.167297 
L 447.170232 153.395762 
L 447.444433 152.937887 
L 447.718635 153.385975 
L 448.541239 153.064183 
L 449.912247 153.346452 
L 450.186448 152.849626 
L 450.46065 153.348604 
L 450.734851 153.083616 
L 451.009053 153.063849 
L 451.831657 153.460508 
L 452.105858 153.094293 
L 452.38006 153.305938 
L 452.654261 153.136372 
L 453.202664 153.354174 
L 453.476866 153.002398 
L 453.751067 152.853821 
L 454.025269 153.119664 
L 454.573672 152.353978 
L 454.847873 152.973688 
L 455.122075 152.615818 
L 455.396276 152.885859 
L 455.944679 153.080894 
L 456.218881 152.475642 
L 456.767283 153.111158 
L 457.041485 152.834946 
L 457.589888 153.084885 
L 458.138291 153.287478 
L 458.412492 152.899149 
L 458.960895 152.909204 
L 459.235097 152.915387 
L 459.509298 153.399765 
L 459.7835 153.2647 
L 460.057701 152.885833 
L 460.331903 153.286273 
L 460.606104 152.630615 
L 460.880306 153.617197 
L 461.154507 153.268812 
L 461.428709 153.215023 
L 461.70291 153.590197 
L 461.977111 153.722517 
L 462.251313 152.92342 
L 462.525514 153.482382 
L 462.799716 152.757448 
L 463.073917 152.935928 
L 463.348119 153.25308 
L 464.170723 153.696591 
L 464.719126 154.158429 
L 464.993328 153.541019 
L 465.267529 153.952786 
L 465.815932 153.701989 
L 466.090134 153.335836 
L 466.364335 153.582743 
L 466.912738 153.377643 
L 467.461141 153.699386 
L 468.557947 153.434308 
L 468.832148 153.758098 
L 469.10635 153.542321 
L 469.928954 153.698703 
L 470.751559 153.253953 
L 471.02576 153.498585 
L 471.574163 153.51771 
L 471.848365 153.175226 
L 472.122566 153.628483 
L 472.94517 153.407202 
L 473.767775 153.88538 
L 474.041976 154.079353 
L 474.316178 153.52271 
L 474.590379 154.142258 
L 474.864581 153.775613 
L 475.412984 153.691069 
L 475.687185 153.250884 
L 475.961387 153.65295 
L 476.235588 153.240823 
L 476.50979 153.363758 
L 476.783991 153.665132 
L 477.332394 153.547324 
L 477.606596 153.727648 
L 477.880797 153.437601 
L 478.154998 153.591748 
L 478.4292 153.20177 
L 478.703401 153.62279 
L 478.977603 153.613591 
L 479.251804 153.297419 
L 479.526006 153.498631 
L 479.800207 153.269644 
L 480.074409 153.50599 
L 480.34861 153.039009 
L 480.622812 153.420922 
L 480.897013 153.227858 
L 481.171215 153.610846 
L 481.445416 153.223473 
L 481.719618 153.61341 
L 481.993819 153.395769 
L 482.268021 153.530347 
L 483.364826 153.527112 
L 483.913229 153.154881 
L 484.735834 152.945378 
L 485.010035 153.069234 
L 485.284237 152.895172 
L 485.558438 152.954893 
L 486.106841 153.231055 
L 486.381043 152.952159 
L 486.929446 152.711547 
L 487.477849 153.406709 
L 487.75205 153.080918 
L 488.026252 153.18338 
L 488.574654 153.677974 
L 489.123057 152.99729 
L 489.397259 153.279174 
L 489.67146 153.329818 
L 489.945662 153.070421 
L 490.219863 153.08816 
L 490.768266 153.589711 
L 491.042468 153.321398 
L 491.316669 153.503544 
L 491.590871 153.224771 
L 491.865072 153.148529 
L 492.139274 152.935954 
L 492.687677 152.90536 
L 492.961878 152.898195 
L 493.23608 153.30974 
L 494.058684 152.883784 
L 494.332885 153.524074 
L 494.607087 152.95302 
L 494.881288 153.130791 
L 495.15549 153.132953 
L 495.429691 152.785131 
L 495.703893 153.14254 
L 495.978094 152.821081 
L 496.252296 153.039831 
L 496.526497 152.69415 
L 496.800699 152.627309 
L 497.0749 153.250003 
L 497.349102 152.936387 
L 497.623303 152.939571 
L 497.897505 153.188603 
L 498.171706 152.91533 
L 498.445908 153.216382 
L 498.720109 152.989003 
L 499.268512 153.063867 
L 499.816915 153.033201 
L 500.365318 152.855591 
L 500.639519 153.06581 
L 501.187922 152.609432 
L 501.462124 152.722255 
L 501.736325 152.712911 
L 502.010527 152.263852 
L 502.284728 152.351952 
L 502.55893 152.726475 
L 503.107333 152.559372 
L 503.381534 152.80446 
L 503.655736 152.748245 
L 503.929937 152.450868 
L 504.204139 153.044907 
L 504.47834 152.88045 
L 504.752541 152.563451 
L 505.026743 152.538204 
L 505.300944 152.761004 
L 505.849347 152.56896 
L 506.123549 152.841062 
L 506.39775 152.781233 
L 506.946153 152.9799 
L 507.220355 152.620084 
L 507.768758 153.010949 
L 508.042959 152.620599 
L 508.317161 152.759768 
L 508.591362 152.341864 
L 508.865564 152.189816 
L 509.139765 152.232322 
L 509.413967 152.081882 
L 510.510772 152.850663 
L 510.784974 152.606638 
L 511.059175 153.012085 
L 511.607578 152.88128 
L 511.88178 152.959163 
L 512.155981 152.871557 
L 512.430183 152.470064 
L 512.704384 152.464329 
L 512.978586 152.338737 
L 513.526989 152.479379 
L 513.80119 152.213927 
L 514.075392 152.544605 
L 514.349593 152.586562 
L 514.623795 153.004439 
L 514.897996 152.78288 
L 515.172197 153.020857 
L 515.994802 152.70677 
L 516.269003 152.984976 
L 516.543205 152.76254 
L 516.817406 152.826365 
L 517.091608 152.65628 
L 517.640011 152.991104 
L 517.914212 152.631896 
L 518.188414 152.596405 
L 518.462615 152.930498 
L 518.736817 152.517437 
L 519.011018 152.876324 
L 519.28522 152.550556 
L 519.559421 152.638999 
L 519.833623 152.420192 
L 520.107824 152.832896 
L 520.382025 152.470918 
L 520.930428 152.852128 
L 521.478831 152.872129 
L 521.753033 152.538653 
L 522.027234 152.555474 
L 522.301436 152.251174 
L 522.575637 152.721179 
L 522.849839 152.507361 
L 523.398242 152.906622 
L 523.672443 152.66763 
L 523.946645 152.841139 
L 524.220846 152.36401 
L 524.495048 152.966757 
L 524.769249 152.657263 
L 525.043451 152.605128 
L 525.317652 152.158719 
L 526.140256 152.338716 
L 526.414458 152.60879 
L 526.688659 152.278133 
L 526.962861 152.293181 
L 527.237062 152.449185 
L 527.511264 152.372741 
L 527.785465 152.759631 
L 528.059667 152.645883 
L 528.333868 152.224476 
L 529.156473 152.548796 
L 529.704876 151.982525 
L 530.52748 152.47898 
L 530.801682 152.494222 
L 531.075883 152.725815 
L 531.350084 152.493639 
L 531.624286 152.061848 
L 531.898487 152.254294 
L 532.172689 152.296119 
L 532.44689 152.7446 
L 532.721092 152.275565 
L 532.995293 152.610069 
L 533.269495 152.205358 
L 533.817898 152.69851 
L 534.092099 152.198785 
L 534.366301 152.587381 
L 534.640502 152.149128 
L 535.188905 152.576665 
L 536.01151 152.436056 
L 536.285711 152.88295 
L 536.559912 152.221981 
L 536.834114 152.510987 
L 537.108315 152.402454 
L 537.382517 152.628892 
L 537.656718 152.14363 
L 538.205121 152.529065 
L 538.479323 152.720471 
L 538.753524 152.296181 
L 539.027726 152.8266 
L 539.576129 152.419394 
L 540.124532 152.76012 
L 540.398733 152.571466 
L 541.221338 152.618647 
L 541.495539 152.208865 
L 541.76974 152.447137 
L 542.043942 152.298292 
L 542.318143 152.981215 
L 542.592345 152.967968 
L 543.140748 152.377224 
L 543.689151 153.027993 
L 544.511755 152.76738 
L 544.785957 152.921496 
L 545.060158 152.738698 
L 545.33436 153.036872 
L 545.608561 153.108161 
L 545.882763 153.060822 
L 546.156964 152.601152 
L 546.979568 152.747112 
L 547.25377 152.716531 
L 547.527971 153.012263 
L 547.802173 152.629935 
L 548.624777 152.667877 
L 548.898979 153.147832 
L 549.17318 152.735324 
L 549.721583 152.967806 
L 549.995785 152.357874 
L 550.269986 152.647736 
L 551.092591 152.462185 
L 551.366792 152.903257 
L 551.640994 152.747007 
L 552.189396 153.245768 
L 552.737799 152.73189 
L 553.012001 152.930247 
L 553.286202 152.923364 
L 553.560404 152.433713 
L 553.834605 152.999371 
L 554.65721 152.56963 
L 554.931411 152.731361 
L 555.205613 152.510596 
L 555.479814 152.818962 
L 556.028217 152.617299 
L 556.302419 152.735365 
L 556.57662 153.219281 
L 557.125023 152.750068 
L 557.399225 152.958135 
L 557.673426 152.547586 
L 557.947627 152.98493 
L 558.49603 152.704469 
L 558.770232 152.928179 
L 559.044433 152.775105 
L 559.318635 153.097064 
L 559.592836 152.923451 
L 559.867038 153.025617 
L 560.141239 152.488737 
L 560.415441 152.887747 
L 561.238045 152.819609 
L 561.512247 153.15109 
L 561.786448 153.071453 
L 562.06065 153.128667 
L 562.334851 152.526117 
L 562.609053 152.965208 
L 562.883254 153.056647 
L 563.431657 152.859511 
L 563.705858 153.169108 
L 563.98006 152.854596 
L 564.254261 152.965462 
L 564.528463 153.246933 
L 565.351067 152.597443 
L 565.625269 153.072106 
L 565.89947 153.058405 
L 566.173672 153.428869 
L 566.447873 153.057914 
L 567.270478 153.264184 
L 567.544679 152.586297 
L 567.818881 153.072086 
L 568.093082 152.978036 
L 568.367283 153.071754 
L 568.641485 152.986843 
L 568.915686 152.765696 
L 569.189888 153.142829 
L 569.464089 153.101927 
L 569.738291 152.894442 
L 570.012492 152.991273 
L 570.286694 152.966906 
L 570.835097 153.370116 
L 571.109298 153.183243 
L 571.657701 153.074233 
L 571.931903 152.798613 
L 572.206104 152.6991 
L 572.480306 153.01464 
L 573.028709 152.977459 
L 573.30291 153.160749 
L 573.577111 152.71692 
L 573.851313 153.471434 
L 574.125514 153.133989 
L 574.399716 153.045937 
L 574.673917 153.261052 
L 574.948119 152.587301 
L 575.22232 152.887318 
L 575.496522 152.668606 
L 575.770723 152.753308 
L 576.044925 152.994019 
L 576.319126 152.666203 
L 576.593328 152.927863 
L 576.867529 152.971235 
L 577.141731 153.213757 
L 577.415932 153.022203 
L 577.690134 153.107955 
L 577.964335 152.91052 
L 578.512738 153.235324 
L 578.786939 152.815237 
L 579.061141 153.268668 
L 579.335342 153.062522 
L 579.609544 153.271535 
L 579.883745 153.21294 
L 580.157947 153.293363 
L 580.432148 152.817912 
L 580.980551 153.308658 
L 581.254753 153.210248 
L 581.528954 153.531624 
L 581.803156 153.226282 
L 582.077357 153.300823 
L 582.351559 153.085907 
L 582.899962 153.129707 
L 583.174163 152.765519 
L 583.448365 153.124876 
L 583.722566 153.157065 
L 584.270969 152.807071 
L 584.819372 153.229667 
L 585.093573 153.646384 
L 585.641976 152.874685 
L 585.916178 153.225706 
L 586.190379 152.98024 
L 587.561387 153.004757 
L 587.835588 153.073459 
L 588.10979 153.008083 
L 588.383991 153.143841 
L 588.658193 153.123692 
L 588.932394 152.839986 
L 589.206596 152.810881 
L 589.480797 153.16607 
L 589.754998 152.675434 
L 590.577603 153.226441 
L 590.851804 153.035337 
L 591.126006 153.110795 
L 591.400207 153.37487 
L 591.674409 153.156258 
L 591.94861 153.473089 
L 592.222812 153.188348 
L 592.771215 152.928871 
L 593.045416 153.181566 
L 594.142222 153.003089 
L 594.416424 153.35545 
L 594.690625 153.063389 
L 594.964826 153.158357 
L 595.513229 152.632183 
L 595.787431 152.902688 
L 596.061632 152.829938 
L 596.335834 153.005102 
L 596.884237 152.965166 
L 597.43264 153.532232 
L 597.706841 152.966592 
L 597.981043 153.154418 
L 598.529446 153.335464 
L 598.803647 153.167209 
L 599.077849 153.571985 
L 599.35205 152.964393 
L 599.626252 153.269327 
L 599.900453 152.905449 
L 600.448856 153.090388 
L 600.723057 152.950711 
L 601.27146 153.303369 
L 601.545662 152.973792 
L 601.819863 153.268031 
L 602.094065 152.813376 
L 602.368266 153.108713 
L 602.642468 152.710011 
L 603.190871 153.340705 
L 603.465072 152.905419 
L 603.739274 153.0613 
L 604.287677 152.841023 
L 604.561878 152.898118 
L 605.110281 153.246035 
L 605.384482 152.769839 
L 605.658684 152.695096 
L 605.932885 152.764963 
L 606.207087 152.39008 
L 606.481288 152.987267 
L 607.303893 153.104748 
L 607.578094 152.770321 
L 607.852296 153.249002 
L 608.400699 152.665685 
L 608.6749 152.917079 
L 608.949102 152.964787 
L 609.223303 152.87184 
L 609.497505 153.12327 
L 609.771706 152.799086 
L 610.045908 153.154417 
L 610.320109 152.843733 
L 610.868512 152.592664 
L 611.142713 152.696293 
L 611.691116 153.360695 
L 611.965318 152.881871 
L 612.239519 153.049248 
L 612.513721 152.936847 
L 612.787922 152.611383 
L 613.062124 152.707404 
L 613.610527 152.702568 
L 613.884728 153.256971 
L 614.433131 152.883662 
L 615.255736 153.134753 
L 615.529937 152.838401 
L 615.804139 152.90419 
L 616.07834 152.767408 
L 616.352541 152.978625 
L 617.723549 152.948825 
L 617.99775 152.963451 
L 618.271952 152.791243 
L 618.546153 152.80905 
L 618.820355 152.948838 
L 619.094556 152.598478 
L 619.368758 152.762327 
L 619.642959 152.748911 
L 619.917161 152.964557 
L 620.191362 152.942624 
L 620.739765 152.403529 
L 621.013967 152.68585 
L 621.288168 152.308433 
L 621.562369 152.439407 
L 622.110772 152.426197 
L 622.659175 152.526403 
L 623.207578 152.95898 
L 623.48178 152.746198 
L 623.755981 152.952214 
L 624.030183 152.965839 
L 624.304384 152.474259 
L 624.578586 152.810738 
L 625.126989 152.751901 
L 625.126989 152.751901 
" clip-path="url(#pc22cb153ec)" style="fill: none; stroke: #1f77b4; stroke-width: 1.5; stroke-linecap: square"/>
   </g>
   <g id="line2d_13">
    <path d="M 117.854261 257.658289 
L 118.128463 262.165711 
L 118.402664 291.943205 
L 118.676866 296.03625 
L 119.225269 271.11781 
L 119.49947 227.057898 
L 119.773672 207.5709 
L 120.047873 203.182002 
L 120.322075 203.974264 
L 120.596276 211.845554 
L 121.144679 201.196422 
L 121.418881 195.910364 
L 121.693082 195.703205 
L 121.967283 192.753227 
L 122.241485 197.401453 
L 122.515686 172.184989 
L 122.789888 172.103903 
L 123.064089 169.627321 
L 123.338291 171.510379 
L 123.612492 166.488463 
L 123.886694 169.662831 
L 124.160895 167.766312 
L 124.435097 168.409239 
L 124.709298 168.391562 
L 124.9835 165.287616 
L 125.257701 166.881572 
L 125.531903 166.794035 
L 125.806104 165.094572 
L 126.080306 166.165148 
L 126.354507 165.451608 
L 126.628709 164.010929 
L 126.90291 163.25549 
L 127.177111 164.862355 
L 127.451313 163.978923 
L 127.725514 163.485609 
L 128.273917 161.702402 
L 128.548119 160.420844 
L 128.82232 164.815428 
L 129.096522 163.952454 
L 129.370723 162.432016 
L 129.644925 163.099974 
L 129.919126 162.512979 
L 130.193328 162.265303 
L 130.467529 163.58709 
L 130.741731 161.410305 
L 131.015932 162.710343 
L 131.290134 161.565435 
L 131.564335 161.16584 
L 131.838537 161.539059 
L 132.112738 162.557454 
L 132.386939 161.171452 
L 132.661141 161.384449 
L 132.935342 160.92679 
L 133.209544 160.831448 
L 133.757947 161.328739 
L 134.032148 161.196216 
L 134.30635 161.194354 
L 134.580551 161.482621 
L 134.854753 161.201429 
L 135.128954 159.7919 
L 135.403156 160.884693 
L 135.677357 160.064798 
L 135.951559 160.550759 
L 136.499962 163.054654 
L 136.774163 160.376997 
L 137.048365 163.420413 
L 137.322566 160.81798 
L 137.596768 160.706714 
L 138.14517 162.97898 
L 138.419372 161.428681 
L 138.967775 160.440512 
L 139.241976 160.193846 
L 139.790379 162.631121 
L 140.338782 159.442412 
L 140.612984 161.834268 
L 140.887185 161.591212 
L 141.161387 160.94865 
L 141.435588 161.58259 
L 141.70979 161.661909 
L 141.983991 162.60633 
L 142.532394 161.360388 
L 143.080797 161.703732 
L 143.354998 160.981433 
L 143.903401 161.378065 
L 144.451804 159.80897 
L 145.274409 161.088266 
L 145.822812 161.389012 
L 146.097013 160.004467 
L 146.371215 161.423814 
L 146.645416 161.588497 
L 146.919618 160.70362 
L 147.193819 161.311015 
L 147.468021 162.288528 
L 147.742222 161.574032 
L 148.016424 162.933584 
L 148.290625 162.761098 
L 148.564826 161.823109 
L 148.839028 163.255695 
L 149.113229 162.48772 
L 149.387431 162.510713 
L 149.661632 162.845991 
L 149.935834 162.220304 
L 150.210035 162.518876 
L 150.758438 164.100062 
L 151.03264 161.71733 
L 151.306841 160.953926 
L 151.581043 162.188098 
L 152.129446 161.382858 
L 152.403647 162.157181 
L 152.677849 162.385889 
L 152.95205 160.804717 
L 153.226252 161.59229 
L 153.500453 161.478432 
L 153.774654 161.686822 
L 154.048856 162.509587 
L 154.323057 161.135064 
L 154.597259 161.60804 
L 155.145662 163.370876 
L 155.419863 161.109782 
L 155.694065 153.752785 
L 155.968266 154.884893 
L 156.242468 154.642952 
L 156.516669 156.15602 
L 156.790871 156.257159 
L 157.065072 154.933457 
L 157.339274 156.047679 
L 157.613475 156.254787 
L 157.887677 157.181505 
L 158.161878 156.53724 
L 158.43608 156.437924 
L 158.710281 156.791371 
L 158.984482 156.526013 
L 159.258684 156.899174 
L 159.532885 156.612682 
L 159.807087 155.971204 
L 160.081288 156.374247 
L 160.629691 156.676973 
L 160.903893 156.380954 
L 161.178094 156.744293 
L 161.452296 156.508302 
L 162.000699 156.742195 
L 162.2749 156.015266 
L 162.549102 156.667905 
L 163.097505 156.571618 
L 163.371706 156.876875 
L 163.645908 157.011189 
L 164.194311 156.562438 
L 164.468512 157.11912 
L 164.742713 157.288222 
L 165.016915 156.918805 
L 165.291116 156.340906 
L 165.565318 157.068537 
L 165.839519 156.310565 
L 166.387922 155.798621 
L 166.662124 156.372213 
L 166.936325 156.620934 
L 167.484728 155.934658 
L 167.75893 155.997717 
L 168.033131 156.237635 
L 168.307333 156.252845 
L 168.581534 155.534283 
L 168.855736 156.106492 
L 169.129937 155.971055 
L 169.404139 155.262929 
L 169.67834 155.565248 
L 169.952541 155.523103 
L 170.226743 155.801346 
L 170.500944 156.566333 
L 170.775146 156.216639 
L 171.049347 156.133157 
L 171.323549 155.391582 
L 171.59775 155.66232 
L 171.871952 156.145638 
L 172.146153 155.672539 
L 172.420355 155.874484 
L 172.694556 155.743108 
L 172.968758 156.238413 
L 173.242959 155.989438 
L 173.791362 156.440338 
L 174.339765 155.672807 
L 174.613967 155.631246 
L 174.888168 155.827528 
L 175.162369 156.184732 
L 175.436571 155.693904 
L 175.710772 156.168457 
L 175.984974 156.299126 
L 176.259175 155.762169 
L 176.807578 156.752607 
L 177.08178 155.909613 
L 177.355981 156.437744 
L 177.904384 156.503263 
L 178.178586 156.287067 
L 178.452787 156.348738 
L 178.726989 156.141802 
L 179.00119 156.48928 
L 179.275392 155.958175 
L 179.549593 155.93672 
L 179.823795 156.125692 
L 180.097996 156.556642 
L 180.372197 156.08584 
L 180.646399 155.853602 
L 180.9206 156.224566 
L 181.469003 155.977781 
L 181.743205 156.594103 
L 182.017406 155.667991 
L 182.565809 156.37959 
L 182.840011 156.129236 
L 183.114212 156.608581 
L 183.388414 155.852199 
L 183.662615 155.933841 
L 183.936817 155.823862 
L 184.211018 156.261902 
L 184.48522 156.217012 
L 184.759421 156.433896 
L 185.033623 156.219792 
L 185.307824 156.336659 
L 185.582025 156.096349 
L 185.856227 156.14078 
L 186.130428 156.421176 
L 186.953033 156.095558 
L 187.227234 157.212045 
L 187.501436 156.587763 
L 187.775637 156.30008 
L 188.049839 156.348145 
L 188.32404 156.214621 
L 188.598242 156.433314 
L 188.872443 156.347303 
L 189.420846 156.730407 
L 189.695048 156.311451 
L 189.969249 156.422137 
L 190.243451 156.363393 
L 190.517652 156.605773 
L 191.614458 156.104843 
L 191.888659 156.384421 
L 192.162861 156.488825 
L 192.437062 156.398473 
L 192.711264 156.77701 
L 193.259667 156.438086 
L 193.533868 156.575574 
L 193.80807 156.895077 
L 194.082271 156.586644 
L 194.356473 156.758388 
L 194.630674 156.656062 
L 194.904876 156.965966 
L 195.453279 156.474212 
L 195.72748 156.979237 
L 196.550084 156.78095 
L 196.824286 157.101613 
L 197.372689 156.551084 
L 197.921092 157.098151 
L 198.195293 156.494078 
L 198.469495 156.470489 
L 198.743696 156.88698 
L 199.017898 156.736063 
L 199.292099 156.7347 
L 199.566301 157.464837 
L 199.840502 157.245992 
L 200.114704 156.862099 
L 200.388905 156.935837 
L 200.663107 156.769388 
L 200.937308 157.033425 
L 201.21151 156.931994 
L 201.759912 157.300986 
L 202.034114 156.96563 
L 202.308315 157.144787 
L 202.856718 156.797355 
L 203.13092 157.022033 
L 203.405121 156.650283 
L 203.679323 156.643316 
L 203.953524 157.060201 
L 204.227726 156.635579 
L 204.776129 156.742267 
L 205.324532 156.37065 
L 205.598733 156.805563 
L 205.872935 157.010789 
L 206.147136 156.41239 
L 206.421338 156.30752 
L 206.695539 156.518043 
L 206.96974 154.394413 
L 207.243942 153.868807 
L 207.518143 154.745371 
L 207.792345 154.964107 
L 208.066546 155.882272 
L 208.889151 155.2932 
L 209.437554 155.89478 
L 209.711755 155.705633 
L 209.985957 155.735094 
L 210.260158 156.291481 
L 210.808561 155.58715 
L 211.082763 155.645655 
L 211.356964 153.043477 
L 211.631166 154.084499 
L 211.905367 154.435394 
L 212.179568 154.271206 
L 212.45377 154.535556 
L 212.727971 155.139117 
L 213.002173 154.806182 
L 213.276374 155.013079 
L 213.550576 154.635972 
L 213.824777 155.060609 
L 214.098979 155.242783 
L 214.37318 154.710172 
L 214.647382 155.23496 
L 215.469986 154.912978 
L 215.744188 154.600437 
L 216.018389 154.867425 
L 216.292591 154.496443 
L 216.566792 155.003689 
L 217.115195 155.096093 
L 217.389396 154.993173 
L 217.663598 155.095595 
L 217.937799 155.423929 
L 218.760404 155.077029 
L 219.034605 155.272574 
L 219.308807 154.511676 
L 220.131411 155.833112 
L 220.405613 155.491651 
L 220.954016 155.26391 
L 221.228217 155.533926 
L 221.502419 155.532608 
L 221.77662 155.347737 
L 222.050822 155.905205 
L 222.599225 155.375726 
L 222.873426 155.269938 
L 223.147627 155.835803 
L 223.69603 155.153243 
L 224.518635 155.751553 
L 225.067038 155.403771 
L 225.341239 155.480373 
L 225.615441 155.800394 
L 225.889642 155.63988 
L 226.163844 156.279948 
L 226.438045 155.760215 
L 226.986448 155.431543 
L 227.809053 155.709706 
L 228.083254 155.219692 
L 228.357455 155.442174 
L 228.631657 155.890347 
L 229.18006 156.019055 
L 229.454261 155.491745 
L 230.276866 155.350416 
L 230.551067 155.346429 
L 230.825269 155.665712 
L 231.09947 155.630159 
L 231.373672 156.297099 
L 231.922075 154.636774 
L 232.196276 155.540049 
L 232.744679 155.596634 
L 233.018881 155.315462 
L 233.293082 155.58118 
L 233.567283 154.986037 
L 234.389888 155.552048 
L 235.486694 155.310278 
L 235.760895 155.408083 
L 236.035097 155.196475 
L 236.309298 155.538965 
L 236.5835 155.442706 
L 236.857701 155.091318 
L 237.131903 153.608385 
L 237.680306 154.714612 
L 237.954507 154.891346 
L 238.228709 154.903836 
L 238.50291 154.621878 
L 238.777111 155.658852 
L 239.051313 155.249258 
L 239.325514 155.713823 
L 239.599716 155.021825 
L 240.148119 155.150075 
L 240.42232 155.154992 
L 240.696522 155.317545 
L 240.970723 155.151199 
L 241.244925 155.264146 
L 241.519126 155.587818 
L 242.615932 155.074538 
L 242.890134 155.645964 
L 243.164335 155.841646 
L 243.712738 155.051135 
L 243.986939 155.565542 
L 244.261141 155.17962 
L 244.535342 155.260668 
L 244.809544 155.475398 
L 245.083745 155.165695 
L 245.357947 155.24334 
L 245.632148 155.072499 
L 245.90635 155.269896 
L 246.180551 154.818812 
L 246.454753 155.188621 
L 246.728954 155.108289 
L 247.003156 154.669359 
L 247.277357 155.152197 
L 247.551559 155.156871 
L 247.82576 154.848813 
L 248.099962 155.390366 
L 248.374163 155.278702 
L 248.648365 155.436354 
L 248.922566 155.245938 
L 249.196768 155.244318 
L 249.470969 154.974139 
L 249.74517 155.382234 
L 250.019372 155.004301 
L 250.293573 154.988872 
L 250.567775 155.262399 
L 251.116178 155.096087 
L 251.390379 154.837695 
L 251.938782 155.423065 
L 252.212984 155.028617 
L 252.487185 155.512282 
L 252.761387 155.296887 
L 253.035588 155.225788 
L 253.30979 154.743231 
L 253.583991 155.366563 
L 254.132394 155.130873 
L 254.406596 154.707484 
L 254.680797 154.986333 
L 255.2292 154.818989 
L 255.503401 155.046058 
L 255.777603 154.702934 
L 256.326006 155.039919 
L 256.600207 154.975369 
L 256.874409 155.334182 
L 257.14861 154.849228 
L 257.422812 155.037184 
L 257.697013 154.970428 
L 257.971215 155.284791 
L 258.245416 154.96514 
L 258.519618 155.305088 
L 258.793819 154.640369 
L 259.068021 155.181552 
L 259.890625 155.488724 
L 260.164826 154.730194 
L 260.987431 154.930242 
L 261.261632 155.111416 
L 261.535834 155.045237 
L 261.810035 155.248884 
L 262.084237 154.713462 
L 262.358438 154.878149 
L 262.63264 155.207209 
L 262.906841 154.545471 
L 263.455244 155.620813 
L 263.729446 155.274956 
L 264.003647 155.497977 
L 264.277849 155.070469 
L 264.55205 155.350361 
L 264.826252 154.947572 
L 265.100453 155.52839 
L 265.374654 155.107947 
L 265.648856 155.580213 
L 265.923057 155.139409 
L 266.197259 155.178293 
L 266.47146 155.381478 
L 266.745662 155.187845 
L 267.019863 155.494437 
L 267.294065 155.217882 
L 267.568266 155.285562 
L 267.842468 155.031702 
L 268.116669 155.296398 
L 268.390871 154.910107 
L 268.665072 155.275375 
L 268.939274 155.15732 
L 269.213475 155.31056 
L 269.761878 155.333147 
L 270.310281 154.904764 
L 270.584482 155.58039 
L 271.132885 155.156327 
L 271.407087 155.373803 
L 271.681288 155.249042 
L 271.95549 155.254083 
L 272.229691 155.55925 
L 272.503893 155.219763 
L 272.778094 155.562492 
L 273.052296 155.304436 
L 274.149102 155.284766 
L 274.697505 155.369909 
L 275.245908 155.254357 
L 275.520109 155.33416 
L 275.794311 155.032186 
L 276.342713 155.323129 
L 276.616915 155.204486 
L 276.891116 155.311507 
L 277.165318 155.125744 
L 277.987922 155.663483 
L 278.262124 155.077817 
L 278.536325 154.902083 
L 278.810527 155.02242 
L 279.084728 155.328052 
L 279.907333 155.428283 
L 280.181534 155.442195 
L 280.455736 155.699922 
L 281.27834 155.499555 
L 281.552541 155.280517 
L 282.100944 155.843515 
L 282.375146 154.460927 
L 282.649347 155.107892 
L 284.020355 155.057375 
L 284.294556 155.366999 
L 284.568758 155.084903 
L 284.842959 153.80868 
L 285.117161 154.421182 
L 285.391362 154.517176 
L 285.665564 154.371533 
L 285.939765 155.156259 
L 286.488168 155.151924 
L 286.762369 154.886121 
L 287.036571 155.168401 
L 287.310772 151.549215 
L 287.584974 153.671801 
L 287.859175 154.210377 
L 288.133377 153.137968 
L 288.407578 153.212823 
L 288.68178 153.538874 
L 288.955981 153.63788 
L 289.230183 153.866057 
L 289.504384 153.574882 
L 289.778586 153.807505 
L 290.052787 153.786339 
L 290.326989 153.559401 
L 290.60119 154.12274 
L 290.875392 153.933107 
L 291.149593 154.043313 
L 291.423795 153.748751 
L 291.697996 154.127582 
L 291.972197 154.275268 
L 292.246399 153.823059 
L 292.5206 153.913277 
L 292.794802 154.303842 
L 293.069003 154.969832 
L 293.343205 153.886911 
L 293.617406 153.764402 
L 294.165809 154.095029 
L 294.440011 153.892431 
L 294.714212 154.085215 
L 294.988414 153.970061 
L 295.262615 154.195834 
L 295.536817 154.003589 
L 295.811018 154.439732 
L 296.08522 154.185034 
L 296.359421 154.274745 
L 296.633623 154.164723 
L 296.907824 154.349258 
L 297.182025 154.215334 
L 297.456227 153.931444 
L 298.278831 154.356585 
L 298.553033 154.372823 
L 298.827234 154.028425 
L 299.101436 154.139414 
L 299.375637 154.375035 
L 299.92404 154.007671 
L 300.198242 154.379753 
L 300.472443 154.30798 
L 300.746645 153.920567 
L 301.020846 154.074949 
L 301.295048 154.48548 
L 301.569249 154.264881 
L 301.843451 154.224904 
L 302.117652 154.30137 
L 302.391854 153.986259 
L 303.214458 154.153079 
L 303.488659 154.133734 
L 303.762861 154.287122 
L 304.585465 154.271796 
L 304.859667 153.937811 
L 305.40807 154.089754 
L 305.682271 154.338696 
L 305.956473 153.865401 
L 306.230674 153.971171 
L 306.504876 153.877875 
L 307.601682 154.158169 
L 308.150084 153.920859 
L 308.424286 154.317894 
L 308.698487 154.224999 
L 308.972689 154.446094 
L 309.521092 154.076167 
L 310.069495 154.223886 
L 310.343696 153.940132 
L 310.617898 154.107708 
L 311.440502 154.023793 
L 311.988905 154.114796 
L 312.263107 153.951738 
L 312.537308 154.329505 
L 312.81151 154.126174 
L 313.634114 154.319701 
L 313.908315 154.315378 
L 314.182517 154.621295 
L 314.73092 153.964944 
L 315.279323 154.028827 
L 315.553524 154.227184 
L 316.924532 154.378203 
L 317.198733 154.049099 
L 317.472935 153.978356 
L 317.747136 154.58294 
L 318.021338 154.206178 
L 318.295539 154.275986 
L 318.56974 154.143732 
L 319.118143 154.376685 
L 319.392345 154.080599 
L 319.666546 154.252721 
L 320.214949 154.154387 
L 320.489151 153.922477 
L 320.763352 154.097532 
L 321.037554 154.597194 
L 321.311755 153.976399 
L 321.585957 154.136974 
L 321.860158 153.96186 
L 322.13436 154.141673 
L 322.408561 154.478791 
L 322.682763 154.129619 
L 323.231166 153.999698 
L 323.505367 154.097529 
L 323.779568 154.352394 
L 324.05377 154.116491 
L 324.876374 154.07981 
L 325.150576 154.264089 
L 325.424777 154.060622 
L 325.698979 154.013722 
L 325.97318 154.207735 
L 326.247382 153.979308 
L 326.521583 154.218602 
L 327.069986 154.080605 
L 327.344188 154.243596 
L 327.618389 153.864804 
L 328.715195 153.877679 
L 328.989396 153.959656 
L 329.263598 153.795453 
L 329.537799 153.773476 
L 329.812001 154.186488 
L 330.360404 153.700009 
L 330.908807 154.06566 
L 331.183008 153.754328 
L 331.45721 154.287848 
L 332.279814 153.849293 
L 332.828217 153.528761 
L 333.102419 153.87291 
L 333.37662 153.786487 
L 333.650822 153.579352 
L 333.925023 153.644116 
L 334.199225 153.925112 
L 334.473426 153.711868 
L 334.747627 153.664731 
L 335.29603 153.907606 
L 335.570232 153.79868 
L 335.844433 154.055372 
L 336.392836 153.587292 
L 336.667038 153.925825 
L 336.941239 153.770486 
L 337.215441 153.886633 
L 337.489642 153.472232 
L 337.763844 154.056653 
L 338.038045 153.617917 
L 338.312247 153.571063 
L 338.86065 153.9403 
L 339.134851 153.841082 
L 339.683254 154.012851 
L 340.231657 153.814185 
L 340.505858 153.871481 
L 340.78006 153.812954 
L 341.054261 154.077296 
L 341.328463 153.678675 
L 341.602664 153.96379 
L 341.876866 153.987649 
L 342.151067 153.71852 
L 342.425269 153.826589 
L 342.69947 154.332645 
L 342.973672 153.935132 
L 343.247873 154.064574 
L 343.522075 153.981866 
L 344.070478 154.219335 
L 344.344679 154.053844 
L 345.441485 154.018075 
L 345.715686 153.842495 
L 345.989888 154.030466 
L 346.538291 154.052931 
L 346.812492 153.843973 
L 347.360895 153.90353 
L 347.635097 153.818086 
L 347.909298 154.2799 
L 348.457701 153.933575 
L 348.731903 154.300037 
L 349.006104 153.893896 
L 349.554507 154.058179 
L 349.828709 153.92214 
L 350.10291 154.22361 
L 350.377111 153.862036 
L 350.651313 153.693224 
L 350.925514 153.719976 
L 351.473917 154.112372 
L 351.748119 153.760369 
L 352.02232 153.934932 
L 352.296522 153.758076 
L 352.570723 154.126527 
L 353.119126 153.698017 
L 353.941731 153.836213 
L 354.215932 153.927989 
L 354.490134 154.164977 
L 354.764335 154.133394 
L 355.038537 153.938669 
L 355.586939 154.558286 
L 355.861141 154.414128 
L 356.135342 154.028473 
L 356.409544 154.414489 
L 356.683745 154.491601 
L 356.957947 154.373761 
L 357.232148 153.969343 
L 357.50635 154.198198 
L 357.780551 153.895323 
L 358.054753 153.924063 
L 358.328954 154.150303 
L 359.151559 153.796347 
L 359.42576 153.902566 
L 359.699962 153.840236 
L 359.974163 154.118608 
L 360.248365 153.73167 
L 360.522566 153.699172 
L 361.34517 154.417767 
L 361.619372 153.697973 
L 361.893573 154.16362 
L 362.167775 153.967527 
L 362.441976 154.424971 
L 362.716178 154.075927 
L 362.990379 153.943741 
L 363.264581 154.111361 
L 363.538782 154.029278 
L 363.812984 154.3959 
L 364.087185 154.279221 
L 364.361387 153.731126 
L 364.635588 153.933458 
L 364.90979 153.759584 
L 365.183991 154.252961 
L 366.006596 154.214123 
L 366.280797 153.817382 
L 366.554998 153.954916 
L 366.8292 153.954131 
L 367.103401 154.139536 
L 367.377603 153.998398 
L 367.651804 154.01198 
L 367.926006 153.770395 
L 368.200207 153.984374 
L 368.474409 153.803639 
L 368.74861 153.896815 
L 369.022812 154.327526 
L 369.571215 154.01714 
L 369.845416 154.148716 
L 370.119618 154.020145 
L 370.393819 153.737345 
L 371.216424 154.160656 
L 371.490625 154.289256 
L 371.764826 154.099192 
L 372.313229 154.258271 
L 372.587431 154.43969 
L 372.861632 154.466777 
L 373.135834 154.188428 
L 373.410035 154.177265 
L 373.684237 153.911907 
L 373.958438 154.21176 
L 374.23264 153.868858 
L 374.781043 153.936139 
L 375.055244 153.989305 
L 375.329446 153.910832 
L 375.603647 154.05375 
L 375.877849 154.331082 
L 376.15205 154.389428 
L 376.426252 153.938845 
L 376.974654 154.264901 
L 377.248856 154.185355 
L 377.523057 153.866401 
L 377.797259 154.115681 
L 378.345662 154.051252 
L 378.894065 154.501722 
L 379.168266 154.195006 
L 379.442468 154.12441 
L 379.716669 154.291247 
L 379.990871 154.21853 
L 380.265072 154.024233 
L 380.539274 154.026906 
L 381.087677 154.571016 
L 381.910281 154.264473 
L 382.184482 153.853914 
L 382.458684 154.087683 
L 382.732885 154.514502 
L 383.007087 154.336722 
L 383.281288 153.90356 
L 383.829691 154.311913 
L 384.103893 154.234345 
L 384.378094 154.378542 
L 384.652296 154.14663 
L 384.926497 154.348093 
L 385.200699 154.146855 
L 385.4749 154.325467 
L 385.749102 154.251309 
L 386.023303 154.003232 
L 387.120109 154.103678 
L 387.394311 153.875189 
L 387.942713 154.247452 
L 388.216915 153.897624 
L 389.039519 153.909604 
L 389.313721 154.191593 
L 390.136325 154.095129 
L 390.410527 154.1144 
L 390.684728 153.94871 
L 391.507333 154.296575 
L 391.781534 154.075555 
L 392.055736 154.44911 
L 392.329937 154.356132 
L 392.604139 154.41537 
L 392.87834 154.055603 
L 393.426743 154.100535 
L 393.700944 154.232757 
L 393.975146 154.118349 
L 394.249347 154.138495 
L 394.523549 154.328127 
L 394.79775 153.934045 
L 395.071952 154.232494 
L 395.346153 154.254489 
L 395.620355 154.447165 
L 395.894556 154.444631 
L 396.168758 154.209224 
L 396.717161 154.089822 
L 396.991362 154.288049 
L 397.813967 154.007912 
L 398.362369 153.948876 
L 398.636571 154.078815 
L 399.184974 153.885951 
L 399.459175 154.219233 
L 399.733377 154.203418 
L 400.007578 154.057217 
L 400.28178 154.410819 
L 400.830183 154.002355 
L 401.104384 154.37376 
L 401.652787 154.106879 
L 401.926989 154.135913 
L 402.475392 154.319537 
L 403.297996 154.079798 
L 403.572197 154.40421 
L 403.846399 154.117763 
L 404.943205 154.326372 
L 405.217406 154.320393 
L 405.491608 154.110944 
L 405.765809 154.164353 
L 406.040011 154.637807 
L 406.314212 154.313117 
L 406.588414 154.253446 
L 407.136817 154.433177 
L 407.411018 154.015535 
L 407.68522 154.215634 
L 408.233623 153.984831 
L 408.507824 154.11794 
L 409.056227 154.046193 
L 410.153033 154.157147 
L 410.427234 154.329375 
L 410.701436 154.29765 
L 411.52404 153.914481 
L 411.798242 154.236359 
L 412.072443 154.010467 
L 412.620846 153.943755 
L 412.895048 153.53262 
L 413.169249 154.056023 
L 414.540256 153.909032 
L 414.814458 154.2921 
L 415.088659 153.614156 
L 415.637062 154.203688 
L 417.00807 153.864617 
L 417.556473 153.818541 
L 417.830674 153.670539 
L 418.104876 154.022802 
L 418.92748 153.789161 
L 420.298487 153.978781 
L 420.572689 154.234708 
L 421.395293 154.044837 
L 421.669495 153.792993 
L 421.943696 153.755277 
L 422.492099 154.220482 
L 422.766301 154.110407 
L 423.040502 153.783916 
L 423.314704 154.313478 
L 423.588905 153.969518 
L 423.863107 153.849672 
L 424.41151 154.113797 
L 424.685711 154.137897 
L 424.959912 153.850286 
L 425.234114 153.730601 
L 425.508315 154.258245 
L 425.782517 153.954271 
L 426.33092 153.740594 
L 426.605121 154.018024 
L 427.153524 153.926222 
L 427.427726 154.145229 
L 427.701927 153.997193 
L 427.976129 154.056473 
L 428.524532 153.804752 
L 428.798733 154.092211 
L 429.072935 153.919203 
L 429.347136 154.010276 
L 429.895539 153.727286 
L 430.718143 153.840228 
L 430.992345 153.856192 
L 431.266546 153.619472 
L 431.540748 153.731829 
L 431.814949 153.699567 
L 432.089151 153.889863 
L 432.363352 153.784353 
L 432.637554 153.988048 
L 432.911755 153.608502 
L 433.460158 153.756962 
L 433.73436 153.648117 
L 434.008561 153.751202 
L 434.282763 154.048419 
L 434.556964 153.988363 
L 434.831166 153.535162 
L 435.65377 154.299353 
L 436.202173 153.766523 
L 436.476374 153.960111 
L 437.024777 153.809754 
L 437.298979 153.74915 
L 437.57318 153.937067 
L 437.847382 153.740406 
L 438.121583 153.839032 
L 438.395785 153.580448 
L 438.669986 153.682983 
L 438.944188 153.506394 
L 439.492591 153.783745 
L 439.766792 153.71797 
L 440.040994 153.786397 
L 440.315195 153.68383 
L 440.589396 153.854369 
L 440.863598 153.811334 
L 441.412001 153.474582 
L 441.686202 153.444142 
L 441.960404 153.585643 
L 442.234605 153.55147 
L 442.508807 153.852637 
L 442.783008 153.444372 
L 443.331411 153.799378 
L 443.605613 153.435373 
L 443.879814 153.565787 
L 444.154016 153.909216 
L 444.428217 153.591031 
L 444.702419 153.713839 
L 444.97662 153.515405 
L 445.250822 153.796574 
L 446.347627 153.78357 
L 446.621829 153.486434 
L 447.170232 153.660724 
L 447.444433 153.465208 
L 447.718635 153.628123 
L 448.541239 153.383135 
L 449.089642 153.437859 
L 449.363844 153.333022 
L 449.638045 153.601678 
L 450.186448 153.52113 
L 450.46065 153.540977 
L 450.734851 153.705811 
L 451.009053 153.506279 
L 451.283254 153.50767 
L 451.557455 153.394018 
L 451.831657 153.543582 
L 452.105858 153.396164 
L 452.654261 153.654618 
L 452.928463 153.638947 
L 453.202664 153.442629 
L 453.476866 153.612165 
L 453.751067 153.610306 
L 454.025269 153.750076 
L 454.29947 153.548167 
L 454.573672 153.495158 
L 454.847873 153.768391 
L 455.122075 153.635529 
L 455.670478 153.811356 
L 455.944679 153.571337 
L 456.218881 153.866926 
L 456.767283 153.612034 
L 457.041485 153.726404 
L 457.864089 153.642421 
L 458.412492 154.113019 
L 458.960895 153.752669 
L 459.235097 153.838809 
L 460.057701 153.70945 
L 460.606104 153.669421 
L 461.154507 153.643659 
L 461.428709 153.898688 
L 461.70291 153.619783 
L 462.251313 153.466474 
L 462.799716 153.827922 
L 463.073917 153.595058 
L 463.348119 153.638498 
L 463.62232 154.161071 
L 464.170723 153.911531 
L 464.444925 154.08234 
L 464.719126 153.722731 
L 465.541731 153.607553 
L 465.815932 153.951289 
L 466.364335 153.64361 
L 467.461141 153.947013 
L 468.009544 153.779647 
L 468.832148 153.916043 
L 469.10635 153.627443 
L 469.380551 153.815472 
L 469.654753 153.644593 
L 469.928954 153.704829 
L 470.203156 153.644729 
L 470.477357 153.784662 
L 470.751559 153.728161 
L 471.02576 153.813443 
L 471.299962 153.633944 
L 471.574163 153.934501 
L 471.848365 153.98363 
L 472.396768 153.604701 
L 472.670969 153.893512 
L 472.94517 153.675376 
L 473.493573 153.61956 
L 474.041976 153.661399 
L 474.316178 153.682053 
L 474.590379 153.895038 
L 474.864581 153.692404 
L 475.138782 153.69523 
L 475.412984 153.877967 
L 476.235588 153.783067 
L 476.783991 153.451278 
L 477.058193 153.740433 
L 477.332394 153.593752 
L 477.606596 153.708738 
L 478.4292 153.589259 
L 478.977603 153.892645 
L 479.251804 153.701044 
L 480.074409 154.094306 
L 480.622812 153.631876 
L 480.897013 153.821865 
L 481.171215 153.53313 
L 481.445416 153.837683 
L 481.719618 153.709512 
L 481.993819 153.976963 
L 482.268021 153.524268 
L 482.542222 153.851789 
L 483.090625 153.893796 
L 483.364826 153.564461 
L 483.639028 153.934477 
L 483.913229 153.87539 
L 484.187431 153.521523 
L 484.461632 153.617314 
L 485.010035 153.522105 
L 485.284237 153.570153 
L 485.558438 153.749106 
L 485.83264 153.732442 
L 486.106841 153.539779 
L 486.381043 153.519816 
L 486.655244 153.763688 
L 486.929446 153.385901 
L 487.203647 153.254838 
L 487.477849 153.64038 
L 487.75205 153.767238 
L 488.026252 153.311902 
L 488.848856 153.773653 
L 489.123057 153.54239 
L 489.397259 153.774382 
L 489.67146 153.551954 
L 489.945662 153.577954 
L 490.219863 153.823898 
L 490.494065 153.573428 
L 491.316669 153.566822 
L 491.590871 153.409663 
L 491.865072 153.558861 
L 492.413475 153.467655 
L 492.687677 153.786692 
L 493.23608 153.819304 
L 493.510281 153.526983 
L 493.784482 153.661894 
L 494.058684 153.626087 
L 494.332885 153.99085 
L 494.607087 153.611746 
L 494.881288 153.841844 
L 495.15549 153.630269 
L 495.429691 153.58926 
L 495.703893 153.714092 
L 495.978094 153.662656 
L 496.252296 153.788584 
L 496.526497 153.663854 
L 496.800699 153.927436 
L 497.0749 153.608622 
L 497.349102 153.84961 
L 497.623303 153.620663 
L 498.171706 153.708176 
L 498.445908 153.674792 
L 498.720109 153.822119 
L 498.994311 153.563004 
L 499.268512 153.67597 
L 500.365318 153.310989 
L 500.639519 153.617095 
L 500.913721 153.34086 
L 501.187922 153.515964 
L 502.010527 153.527073 
L 502.284728 153.295187 
L 502.55893 153.495705 
L 502.833131 153.364802 
L 503.655736 153.577266 
L 503.929937 153.386816 
L 504.204139 153.789625 
L 504.47834 153.215657 
L 504.752541 153.456652 
L 505.849347 153.732618 
L 506.123549 153.570805 
L 506.39775 153.745731 
L 506.671952 153.553034 
L 506.946153 153.72733 
L 507.220355 153.443527 
L 508.042959 153.486646 
L 508.317161 153.633082 
L 509.413967 153.150589 
L 510.236571 153.363028 
L 510.510772 153.441042 
L 510.784974 153.12213 
L 511.333377 153.345722 
L 511.607578 153.287108 
L 512.155981 153.394502 
L 512.704384 153.123854 
L 512.978586 153.29572 
L 513.252787 153.259546 
L 513.526989 153.414328 
L 513.80119 153.169864 
L 514.075392 153.589313 
L 514.349593 153.310722 
L 515.446399 153.074632 
L 515.994802 153.375424 
L 516.817406 153.39394 
L 517.365809 153.213101 
L 518.736817 153.305209 
L 519.011018 153.642875 
L 519.833623 153.219974 
L 520.107824 153.360109 
L 520.382025 153.268092 
L 521.20463 153.522112 
L 521.753033 153.304114 
L 522.027234 153.197294 
L 522.301436 153.353062 
L 522.575637 153.352243 
L 522.849839 153.514872 
L 523.12404 153.1508 
L 523.946645 153.42874 
L 524.769249 153.40628 
L 525.043451 153.325218 
L 525.317652 153.420448 
L 525.591854 153.689085 
L 525.866055 153.175583 
L 526.140256 153.295932 
L 526.688659 153.010928 
L 526.962861 153.158466 
L 527.237062 153.002519 
L 527.511264 153.103744 
L 527.785465 153.348791 
L 528.059667 153.414407 
L 528.333868 153.255084 
L 528.60807 153.478076 
L 528.882271 153.55702 
L 529.156473 153.307669 
L 529.430674 153.471619 
L 529.704876 153.338908 
L 529.979077 153.489748 
L 530.253279 153.157198 
L 530.801682 153.229429 
L 531.075883 153.122373 
L 531.898487 153.335821 
L 532.44689 153.263609 
L 532.721092 153.523582 
L 533.543696 153.241465 
L 533.817898 153.352413 
L 534.366301 153.247114 
L 534.914704 153.578611 
L 535.737308 153.287029 
L 536.01151 153.597787 
L 536.285711 153.577999 
L 536.559912 153.228747 
L 537.382517 152.991536 
L 538.479323 153.0719 
L 538.753524 153.394673 
L 539.301927 153.122708 
L 539.576129 153.34781 
L 540.398733 153.193604 
L 540.672935 153.356206 
L 540.947136 153.101592 
L 541.221338 153.236333 
L 541.495539 153.241952 
L 541.76974 153.378006 
L 542.592345 153.300455 
L 542.866546 153.274422 
L 543.140748 153.362097 
L 543.414949 153.055824 
L 543.963352 153.123356 
L 544.511755 153.286312 
L 544.785957 153.241122 
L 545.060158 153.333852 
L 545.882763 153.077256 
L 546.705367 153.287651 
L 546.979568 153.119691 
L 547.25377 153.390178 
L 547.802173 153.555823 
L 548.076374 153.261305 
L 548.350576 153.269223 
L 548.624777 153.461192 
L 549.17318 153.349592 
L 549.447382 153.530363 
L 549.721583 153.374637 
L 549.995785 153.563108 
L 550.544188 153.151832 
L 551.366792 153.386099 
L 551.915195 153.173586 
L 552.737799 153.489755 
L 553.012001 153.506098 
L 553.286202 153.249463 
L 553.560404 153.668513 
L 553.834605 153.321028 
L 554.108807 153.375023 
L 554.383008 153.217508 
L 554.65721 153.438894 
L 554.931411 153.441465 
L 555.205613 153.299701 
L 555.479814 153.316906 
L 555.754016 153.16941 
L 556.028217 153.16602 
L 556.302419 153.378197 
L 556.57662 153.275509 
L 557.399225 153.432676 
L 557.673426 153.292636 
L 557.947627 153.28352 
L 558.221829 153.137678 
L 558.49603 153.15773 
L 559.044433 153.443877 
L 559.318635 153.151781 
L 559.592836 153.254116 
L 559.867038 153.060122 
L 560.689642 153.403341 
L 561.512247 153.441244 
L 561.786448 153.669271 
L 562.06065 153.293515 
L 562.609053 153.203355 
L 563.157455 153.108848 
L 563.705858 153.366188 
L 563.98006 153.078729 
L 564.254261 153.243851 
L 565.89947 153.305525 
L 566.722075 153.053216 
L 566.996276 153.320177 
L 567.270478 153.168925 
L 567.544679 153.240159 
L 567.818881 153.136188 
L 568.093082 153.152692 
L 568.367283 153.280572 
L 568.641485 153.176477 
L 569.189888 153.427916 
L 569.464089 153.219656 
L 570.012492 153.25249 
L 570.560895 153.416147 
L 570.835097 153.240914 
L 571.3835 153.449765 
L 571.657701 153.267955 
L 571.931903 153.376127 
L 572.206104 153.200082 
L 573.028709 153.203108 
L 573.30291 153.334917 
L 573.577111 153.315177 
L 573.851313 153.500635 
L 574.399716 153.187995 
L 574.673917 153.062713 
L 574.948119 153.445698 
L 575.496522 153.182682 
L 575.770723 153.165216 
L 576.044925 153.614389 
L 576.593328 153.370003 
L 576.867529 153.389177 
L 577.141731 153.158164 
L 577.415932 153.075333 
L 577.964335 153.34501 
L 578.238537 153.135357 
L 578.786939 153.519055 
L 579.335342 153.521653 
L 579.609544 153.427736 
L 579.883745 153.596221 
L 580.70635 153.335739 
L 581.528954 153.557397 
L 581.803156 153.448385 
L 582.351559 153.531978 
L 582.899962 153.54424 
L 583.174163 153.256091 
L 583.448365 153.453715 
L 583.996768 153.386594 
L 584.270969 153.567694 
L 584.819372 153.500238 
L 585.093573 153.541007 
L 585.367775 153.330139 
L 585.641976 153.475395 
L 586.190379 153.412441 
L 586.464581 153.339484 
L 587.012984 153.537619 
L 587.287185 153.656001 
L 587.561387 153.462349 
L 587.835588 153.69027 
L 588.10979 153.476832 
L 588.383991 153.572752 
L 588.658193 153.394373 
L 588.932394 153.573494 
L 589.206596 153.534476 
L 589.480797 153.334606 
L 589.754998 153.450318 
L 590.0292 153.726391 
L 590.303401 153.560339 
L 590.577603 153.650249 
L 590.851804 153.438393 
L 591.400207 153.600963 
L 591.674409 153.42283 
L 591.94861 153.641245 
L 592.222812 153.501168 
L 592.497013 153.817292 
L 592.771215 153.314901 
L 593.045416 153.558387 
L 593.868021 153.408458 
L 594.142222 153.517917 
L 594.416424 153.295693 
L 595.239028 153.468175 
L 595.513229 153.657612 
L 595.787431 153.653052 
L 596.061632 153.241308 
L 596.335834 153.262062 
L 596.610035 153.489567 
L 597.158438 153.310521 
L 597.706841 153.46209 
L 598.529446 153.313838 
L 598.803647 153.435222 
L 599.077849 153.405877 
L 599.35205 153.636545 
L 599.626252 153.579087 
L 599.900453 153.332408 
L 600.448856 153.475995 
L 600.723057 153.415294 
L 600.997259 153.47324 
L 601.27146 153.234564 
L 601.545662 153.255155 
L 602.094065 153.520595 
L 602.642468 153.451719 
L 602.916669 153.669141 
L 603.190871 153.486125 
L 604.013475 153.434707 
L 604.287677 153.168803 
L 604.561878 153.531145 
L 605.110281 153.470492 
L 605.384482 153.278891 
L 605.658684 153.609753 
L 605.932885 153.428539 
L 606.207087 153.429296 
L 606.481288 153.298223 
L 607.303893 153.534343 
L 607.578094 153.35891 
L 608.400699 153.3031 
L 609.497505 153.775369 
L 609.771706 153.4702 
L 610.045908 153.726208 
L 610.320109 153.469453 
L 610.594311 153.598145 
L 610.868512 153.28731 
L 611.416915 153.70472 
L 611.965318 153.332922 
L 612.239519 153.417711 
L 612.513721 153.214567 
L 612.787922 153.401392 
L 613.062124 153.178973 
L 613.336325 153.472496 
L 613.610527 153.262517 
L 613.884728 153.247437 
L 614.15893 153.357643 
L 614.433131 153.685013 
L 614.707333 153.393333 
L 614.981534 153.32234 
L 615.255736 153.577011 
L 615.529937 153.641627 
L 616.352541 153.396655 
L 616.626743 153.679376 
L 618.546153 153.147086 
L 618.820355 153.577495 
L 619.094556 153.4411 
L 619.368758 153.733897 
L 619.642959 153.333528 
L 620.465564 153.250414 
L 621.013967 153.165729 
L 621.288168 153.439787 
L 621.562369 153.091362 
L 621.836571 153.314817 
L 622.110772 153.262298 
L 622.384974 153.053829 
L 622.659175 153.557268 
L 622.933377 153.610957 
L 623.207578 153.522991 
L 623.48178 153.203311 
L 623.755981 153.400114 
L 624.030183 153.298179 
L 624.304384 153.568517 
L 625.126989 153.209681 
L 625.126989 153.209681 
" clip-path="url(#pc22cb153ec)" style="fill: none; stroke: #ff7f0e; stroke-width: 1.5; stroke-linecap: square"/>
   </g>
   <g id="patch_3">
    <path d="M 92.490625 308.63625 
L 92.490625 31.43625 
" style="fill: none; stroke: #000000; stroke-width: 0.8; stroke-linejoin: miter; stroke-linecap: square"/>
   </g>
   <g id="patch_4">
    <path d="M 650.490625 308.63625 
L 650.490625 31.43625 
" style="fill: none; stroke: #000000; stroke-width: 0.8; stroke-linejoin: miter; stroke-linecap: square"/>
   </g>
   <g id="patch_5">
    <path d="M 92.490625 308.63625 
L 650.490625 308.63625 
" style="fill: none; stroke: #000000; stroke-width: 0.8; stroke-linejoin: miter; stroke-linecap: square"/>
   </g>
   <g id="patch_6">
    <path d="M 92.490625 31.43625 
L 650.490625 31.43625 
" style="fill: none; stroke: #000000; stroke-width: 0.8; stroke-linejoin: miter; stroke-linecap: square"/>
   </g>
   <g id="text_14">
    <!-- Generator and Discriminator Loss During Training -->
    <g transform="translate(74.258125 25.43625) scale(0.24 -0.24)">
     <defs>
      <path id="DejaVuSans-47" d="M 3809 666 
L 3809 1919 
L 2778 1919 
L 2778 2438 
L 4434 2438 
L 4434 434 
Q 4069 175 3628 42 
Q 3188 -91 2688 -91 
Q 1594 -91 976 548 
Q 359 1188 359 2328 
Q 359 3472 976 4111 
Q 1594 4750 2688 4750 
Q 3144 4750 3555 4637 
Q 3966 4525 4313 4306 
L 4313 3634 
Q 3963 3931 3569 4081 
Q 3175 4231 2741 4231 
Q 1884 4231 1454 3753 
Q 1025 3275 1025 2328 
Q 1025 1384 1454 906 
Q 1884 428 2741 428 
Q 3075 428 3337 486 
Q 3600 544 3809 666 
z
" transform="scale(0.015625)"/>
      <path id="DejaVuSans-20" transform="scale(0.015625)"/>
      <path id="DejaVuSans-64" d="M 2906 2969 
L 2906 4863 
L 3481 4863 
L 3481 0 
L 2906 0 
L 2906 525 
Q 2725 213 2448 61 
Q 2172 -91 1784 -91 
Q 1150 -91 751 415 
Q 353 922 353 1747 
Q 353 2572 751 3078 
Q 1150 3584 1784 3584 
Q 2172 3584 2448 3432 
Q 2725 3281 2906 2969 
z
M 947 1747 
Q 947 1113 1208 752 
Q 1469 391 1925 391 
Q 2381 391 2643 752 
Q 2906 1113 2906 1747 
Q 2906 2381 2643 2742 
Q 2381 3103 1925 3103 
Q 1469 3103 1208 2742 
Q 947 2381 947 1747 
z
" transform="scale(0.015625)"/>
      <path id="DejaVuSans-44" d="M 1259 4147 
L 1259 519 
L 2022 519 
Q 2988 519 3436 956 
Q 3884 1394 3884 2338 
Q 3884 3275 3436 3711 
Q 2988 4147 2022 4147 
L 1259 4147 
z
M 628 4666 
L 1925 4666 
Q 3281 4666 3915 4102 
Q 4550 3538 4550 2338 
Q 4550 1131 3912 565 
Q 3275 0 1925 0 
L 628 0 
L 628 4666 
z
" transform="scale(0.015625)"/>
      <path id="DejaVuSans-63" d="M 3122 3366 
L 3122 2828 
Q 2878 2963 2633 3030 
Q 2388 3097 2138 3097 
Q 1578 3097 1268 2742 
Q 959 2388 959 1747 
Q 959 1106 1268 751 
Q 1578 397 2138 397 
Q 2388 397 2633 464 
Q 2878 531 3122 666 
L 3122 134 
Q 2881 22 2623 -34 
Q 2366 -91 2075 -91 
Q 1284 -91 818 406 
Q 353 903 353 1747 
Q 353 2603 823 3093 
Q 1294 3584 2113 3584 
Q 2378 3584 2631 3529 
Q 2884 3475 3122 3366 
z
" transform="scale(0.015625)"/>
      <path id="DejaVuSans-6d" d="M 3328 2828 
Q 3544 3216 3844 3400 
Q 4144 3584 4550 3584 
Q 5097 3584 5394 3201 
Q 5691 2819 5691 2113 
L 5691 0 
L 5113 0 
L 5113 2094 
Q 5113 2597 4934 2840 
Q 4756 3084 4391 3084 
Q 3944 3084 3684 2787 
Q 3425 2491 3425 1978 
L 3425 0 
L 2847 0 
L 2847 2094 
Q 2847 2600 2669 2842 
Q 2491 3084 2119 3084 
Q 1678 3084 1418 2786 
Q 1159 2488 1159 1978 
L 1159 0 
L 581 0 
L 581 3500 
L 1159 3500 
L 1159 2956 
Q 1356 3278 1631 3431 
Q 1906 3584 2284 3584 
Q 2666 3584 2933 3390 
Q 3200 3197 3328 2828 
z
" transform="scale(0.015625)"/>
      <path id="DejaVuSans-75" d="M 544 1381 
L 544 3500 
L 1119 3500 
L 1119 1403 
Q 1119 906 1312 657 
Q 1506 409 1894 409 
Q 2359 409 2629 706 
Q 2900 1003 2900 1516 
L 2900 3500 
L 3475 3500 
L 3475 0 
L 2900 0 
L 2900 538 
Q 2691 219 2414 64 
Q 2138 -91 1772 -91 
Q 1169 -91 856 284 
Q 544 659 544 1381 
z
M 1991 3584 
L 1991 3584 
z
" transform="scale(0.015625)"/>
      <path id="DejaVuSans-67" d="M 2906 1791 
Q 2906 2416 2648 2759 
Q 2391 3103 1925 3103 
Q 1463 3103 1205 2759 
Q 947 2416 947 1791 
Q 947 1169 1205 825 
Q 1463 481 1925 481 
Q 2391 481 2648 825 
Q 2906 1169 2906 1791 
z
M 3481 434 
Q 3481 -459 3084 -895 
Q 2688 -1331 1869 -1331 
Q 1566 -1331 1297 -1286 
Q 1028 -1241 775 -1147 
L 775 -588 
Q 1028 -725 1275 -790 
Q 1522 -856 1778 -856 
Q 2344 -856 2625 -561 
Q 2906 -266 2906 331 
L 2906 616 
Q 2728 306 2450 153 
Q 2172 0 1784 0 
Q 1141 0 747 490 
Q 353 981 353 1791 
Q 353 2603 747 3093 
Q 1141 3584 1784 3584 
Q 2172 3584 2450 3431 
Q 2728 3278 2906 2969 
L 2906 3500 
L 3481 3500 
L 3481 434 
z
" transform="scale(0.015625)"/>
      <path id="DejaVuSans-54" d="M -19 4666 
L 3928 4666 
L 3928 4134 
L 2272 4134 
L 2272 0 
L 1638 0 
L 1638 4134 
L -19 4134 
L -19 4666 
z
" transform="scale(0.015625)"/>
     </defs>
     <use xlink:href="#DejaVuSans-47"/>
     <use xlink:href="#DejaVuSans-65" x="77.490234"/>
     <use xlink:href="#DejaVuSans-6e" x="139.013672"/>
     <use xlink:href="#DejaVuSans-65" x="202.392578"/>
     <use xlink:href="#DejaVuSans-72" x="263.916016"/>
     <use xlink:href="#DejaVuSans-61" x="305.029297"/>
     <use xlink:href="#DejaVuSans-74" x="366.308594"/>
     <use xlink:href="#DejaVuSans-6f" x="405.517578"/>
     <use xlink:href="#DejaVuSans-72" x="466.699219"/>
     <use xlink:href="#DejaVuSans-20" x="507.8125"/>
     <use xlink:href="#DejaVuSans-61" x="539.599609"/>
     <use xlink:href="#DejaVuSans-6e" x="600.878906"/>
     <use xlink:href="#DejaVuSans-64" x="664.257812"/>
     <use xlink:href="#DejaVuSans-20" x="727.734375"/>
     <use xlink:href="#DejaVuSans-44" x="759.521484"/>
     <use xlink:href="#DejaVuSans-69" x="836.523438"/>
     <use xlink:href="#DejaVuSans-73" x="864.306641"/>
     <use xlink:href="#DejaVuSans-63" x="916.40625"/>
     <use xlink:href="#DejaVuSans-72" x="971.386719"/>
     <use xlink:href="#DejaVuSans-69" x="1012.5"/>
     <use xlink:href="#DejaVuSans-6d" x="1040.283203"/>
     <use xlink:href="#DejaVuSans-69" x="1137.695312"/>
     <use xlink:href="#DejaVuSans-6e" x="1165.478516"/>
     <use xlink:href="#DejaVuSans-61" x="1228.857422"/>
     <use xlink:href="#DejaVuSans-74" x="1290.136719"/>
     <use xlink:href="#DejaVuSans-6f" x="1329.345703"/>
     <use xlink:href="#DejaVuSans-72" x="1390.527344"/>
     <use xlink:href="#DejaVuSans-20" x="1431.640625"/>
     <use xlink:href="#DejaVuSans-4c" x="1463.427734"/>
     <use xlink:href="#DejaVuSans-6f" x="1517.390625"/>
     <use xlink:href="#DejaVuSans-73" x="1578.572266"/>
     <use xlink:href="#DejaVuSans-73" x="1630.671875"/>
     <use xlink:href="#DejaVuSans-20" x="1682.771484"/>
     <use xlink:href="#DejaVuSans-44" x="1714.558594"/>
     <use xlink:href="#DejaVuSans-75" x="1791.560547"/>
     <use xlink:href="#DejaVuSans-72" x="1854.939453"/>
     <use xlink:href="#DejaVuSans-69" x="1896.052734"/>
     <use xlink:href="#DejaVuSans-6e" x="1923.835938"/>
     <use xlink:href="#DejaVuSans-67" x="1987.214844"/>
     <use xlink:href="#DejaVuSans-20" x="2050.691406"/>
     <use xlink:href="#DejaVuSans-54" x="2082.478516"/>
     <use xlink:href="#DejaVuSans-72" x="2128.8125"/>
     <use xlink:href="#DejaVuSans-61" x="2169.925781"/>
     <use xlink:href="#DejaVuSans-69" x="2231.205078"/>
     <use xlink:href="#DejaVuSans-6e" x="2258.988281"/>
     <use xlink:href="#DejaVuSans-69" x="2322.367188"/>
     <use xlink:href="#DejaVuSans-6e" x="2350.150391"/>
     <use xlink:href="#DejaVuSans-67" x="2413.529297"/>
    </g>
   </g>
   <g id="legend_1">
    <g id="patch_7">
     <path d="M 556.99375 106.14875 
L 636.490625 106.14875 
Q 640.490625 106.14875 640.490625 102.14875 
L 640.490625 45.43625 
Q 640.490625 41.43625 636.490625 41.43625 
L 556.99375 41.43625 
Q 552.99375 41.43625 552.99375 45.43625 
L 552.99375 102.14875 
Q 552.99375 106.14875 556.99375 106.14875 
z
" style="fill: #ffffff; opacity: 0.8; stroke: #cccccc; stroke-linejoin: miter"/>
    </g>
    <g id="line2d_14">
     <path d="M 560.99375 57.633125 
L 580.99375 57.633125 
L 600.99375 57.633125 
" style="fill: none; stroke: #1f77b4; stroke-width: 1.5; stroke-linecap: square"/>
    </g>
    <g id="text_15">
     <!-- G -->
     <g transform="translate(616.99375 64.633125) scale(0.2 -0.2)">
      <use xlink:href="#DejaVuSans-47"/>
     </g>
    </g>
    <g id="line2d_15">
     <path d="M 560.99375 86.989375 
L 580.99375 86.989375 
L 600.99375 86.989375 
" style="fill: none; stroke: #ff7f0e; stroke-width: 1.5; stroke-linecap: square"/>
    </g>
    <g id="text_16">
     <!-- D -->
     <g transform="translate(616.99375 93.989375) scale(0.2 -0.2)">
      <use xlink:href="#DejaVuSans-44"/>
     </g>
    </g>
   </g>
  </g>
 </g>
 <defs>
  <clipPath id="pc22cb153ec">
   <rect x="92.490625" y="31.43625" width="558" height="277.2"/>
  </clipPath>
 </defs>
</svg>
