<?xml version="1.0" encoding="utf-8" standalone="no"?>
<!DOCTYPE svg PUBLIC "-//W3C//DTD SVG 1.1//EN"
  "http://www.w3.org/Graphics/SVG/1.1/DTD/svg11.dtd">
<svg xmlns:xlink="http://www.w3.org/1999/xlink" width="675.923125pt" height="365.54875pt" viewBox="0 0 675.923125 365.54875" xmlns="http://www.w3.org/2000/svg" version="1.1">
 <metadata>
  <rdf:RDF xmlns:dc="http://purl.org/dc/elements/1.1/" xmlns:cc="http://creativecommons.org/ns#" xmlns:rdf="http://www.w3.org/1999/02/22-rdf-syntax-ns#">
   <cc:Work>
    <dc:type rdf:resource="http://purl.org/dc/dcmitype/StillImage"/>
    <dc:date>2024-02-01T21:18:44.046145</dc:date>
    <dc:format>image/svg+xml</dc:format>
    <dc:creator>
     <cc:Agent>
      <dc:title>Matplotlib v3.7.2, https://matplotlib.org/</dc:title>
     </cc:Agent>
    </dc:creator>
   </cc:Work>
  </rdf:RDF>
 </metadata>
 <defs>
  <style type="text/css">*{stroke-linejoin: round; stroke-linecap: butt}</style>
 </defs>
 <g id="figure_1">
  <g id="patch_1">
   <path d="M 0 365.54875 
L 675.923125 365.54875 
L 675.923125 -0 
L 0 -0 
z
" style="fill: #ffffff"/>
  </g>
  <g id="axes_1">
   <g id="patch_2">
    <path d="M 92.490625 308.63625 
L 650.490625 308.63625 
L 650.490625 31.43625 
L 92.490625 31.43625 
z
" style="fill: #ffffff"/>
   </g>
   <g id="matplotlib.axis_1">
    <g id="xtick_1">
     <g id="line2d_1">
      <defs>
       <path id="md093369281" d="M 0 0 
L 0 3.5 
" style="stroke: #000000; stroke-width: 0.8"/>
      </defs>
      <g>
       <use xlink:href="#md093369281" x="117.854261" y="308.63625" style="stroke: #000000; stroke-width: 0.8"/>
      </g>
     </g>
     <g id="text_1">
      <!-- 0 -->
      <g transform="translate(111.491761 330.833125) scale(0.2 -0.2)">
       <defs>
        <path id="DejaVuSans-30" d="M 2034 4250 
Q 1547 4250 1301 3770 
Q 1056 3291 1056 2328 
Q 1056 1369 1301 889 
Q 1547 409 2034 409 
Q 2525 409 2770 889 
Q 3016 1369 3016 2328 
Q 3016 3291 2770 3770 
Q 2525 4250 2034 4250 
z
M 2034 4750 
Q 2819 4750 3233 4129 
Q 3647 3509 3647 2328 
Q 3647 1150 3233 529 
Q 2819 -91 2034 -91 
Q 1250 -91 836 529 
Q 422 1150 422 2328 
Q 422 3509 836 4129 
Q 1250 4750 2034 4750 
z
" transform="scale(0.015625)"/>
       </defs>
       <use xlink:href="#DejaVuSans-30"/>
      </g>
     </g>
    </g>
    <g id="xtick_2">
     <g id="line2d_2">
      <g>
       <use xlink:href="#md093369281" x="187.822913" y="308.63625" style="stroke: #000000; stroke-width: 0.8"/>
      </g>
     </g>
     <g id="text_2">
      <!-- 200 -->
      <g transform="translate(168.735413 330.833125) scale(0.2 -0.2)">
       <defs>
        <path id="DejaVuSans-32" d="M 1228 531 
L 3431 531 
L 3431 0 
L 469 0 
L 469 531 
Q 828 903 1448 1529 
Q 2069 2156 2228 2338 
Q 2531 2678 2651 2914 
Q 2772 3150 2772 3378 
Q 2772 3750 2511 3984 
Q 2250 4219 1831 4219 
Q 1534 4219 1204 4116 
Q 875 4013 500 3803 
L 500 4441 
Q 881 4594 1212 4672 
Q 1544 4750 1819 4750 
Q 2544 4750 2975 4387 
Q 3406 4025 3406 3419 
Q 3406 3131 3298 2873 
Q 3191 2616 2906 2266 
Q 2828 2175 2409 1742 
Q 1991 1309 1228 531 
z
" transform="scale(0.015625)"/>
       </defs>
       <use xlink:href="#DejaVuSans-32"/>
       <use xlink:href="#DejaVuSans-30" x="63.623047"/>
       <use xlink:href="#DejaVuSans-30" x="127.246094"/>
      </g>
     </g>
    </g>
    <g id="xtick_3">
     <g id="line2d_3">
      <g>
       <use xlink:href="#md093369281" x="257.791565" y="308.63625" style="stroke: #000000; stroke-width: 0.8"/>
      </g>
     </g>
     <g id="text_3">
      <!-- 400 -->
      <g transform="translate(238.704065 330.833125) scale(0.2 -0.2)">
       <defs>
        <path id="DejaVuSans-34" d="M 2419 4116 
L 825 1625 
L 2419 1625 
L 2419 4116 
z
M 2253 4666 
L 3047 4666 
L 3047 1625 
L 3713 1625 
L 3713 1100 
L 3047 1100 
L 3047 0 
L 2419 0 
L 2419 1100 
L 313 1100 
L 313 1709 
L 2253 4666 
z
" transform="scale(0.015625)"/>
       </defs>
       <use xlink:href="#DejaVuSans-34"/>
       <use xlink:href="#DejaVuSans-30" x="63.623047"/>
       <use xlink:href="#DejaVuSans-30" x="127.246094"/>
      </g>
     </g>
    </g>
    <g id="xtick_4">
     <g id="line2d_4">
      <g>
       <use xlink:href="#md093369281" x="327.760217" y="308.63625" style="stroke: #000000; stroke-width: 0.8"/>
      </g>
     </g>
     <g id="text_4">
      <!-- 600 -->
      <g transform="translate(308.672717 330.833125) scale(0.2 -0.2)">
       <defs>
        <path id="DejaVuSans-36" d="M 2113 2584 
Q 1688 2584 1439 2293 
Q 1191 2003 1191 1497 
Q 1191 994 1439 701 
Q 1688 409 2113 409 
Q 2538 409 2786 701 
Q 3034 994 3034 1497 
Q 3034 2003 2786 2293 
Q 2538 2584 2113 2584 
z
M 3366 4563 
L 3366 3988 
Q 3128 4100 2886 4159 
Q 2644 4219 2406 4219 
Q 1781 4219 1451 3797 
Q 1122 3375 1075 2522 
Q 1259 2794 1537 2939 
Q 1816 3084 2150 3084 
Q 2853 3084 3261 2657 
Q 3669 2231 3669 1497 
Q 3669 778 3244 343 
Q 2819 -91 2113 -91 
Q 1303 -91 875 529 
Q 447 1150 447 2328 
Q 447 3434 972 4092 
Q 1497 4750 2381 4750 
Q 2619 4750 2861 4703 
Q 3103 4656 3366 4563 
z
" transform="scale(0.015625)"/>
       </defs>
       <use xlink:href="#DejaVuSans-36"/>
       <use xlink:href="#DejaVuSans-30" x="63.623047"/>
       <use xlink:href="#DejaVuSans-30" x="127.246094"/>
      </g>
     </g>
    </g>
    <g id="xtick_5">
     <g id="line2d_5">
      <g>
       <use xlink:href="#md093369281" x="397.72887" y="308.63625" style="stroke: #000000; stroke-width: 0.8"/>
      </g>
     </g>
     <g id="text_5">
      <!-- 800 -->
      <g transform="translate(378.64137 330.833125) scale(0.2 -0.2)">
       <defs>
        <path id="DejaVuSans-38" d="M 2034 2216 
Q 1584 2216 1326 1975 
Q 1069 1734 1069 1313 
Q 1069 891 1326 650 
Q 1584 409 2034 409 
Q 2484 409 2743 651 
Q 3003 894 3003 1313 
Q 3003 1734 2745 1975 
Q 2488 2216 2034 2216 
z
M 1403 2484 
Q 997 2584 770 2862 
Q 544 3141 544 3541 
Q 544 4100 942 4425 
Q 1341 4750 2034 4750 
Q 2731 4750 3128 4425 
Q 3525 4100 3525 3541 
Q 3525 3141 3298 2862 
Q 3072 2584 2669 2484 
Q 3125 2378 3379 2068 
Q 3634 1759 3634 1313 
Q 3634 634 3220 271 
Q 2806 -91 2034 -91 
Q 1263 -91 848 271 
Q 434 634 434 1313 
Q 434 1759 690 2068 
Q 947 2378 1403 2484 
z
M 1172 3481 
Q 1172 3119 1398 2916 
Q 1625 2713 2034 2713 
Q 2441 2713 2670 2916 
Q 2900 3119 2900 3481 
Q 2900 3844 2670 4047 
Q 2441 4250 2034 4250 
Q 1625 4250 1398 4047 
Q 1172 3844 1172 3481 
z
" transform="scale(0.015625)"/>
       </defs>
       <use xlink:href="#DejaVuSans-38"/>
       <use xlink:href="#DejaVuSans-30" x="63.623047"/>
       <use xlink:href="#DejaVuSans-30" x="127.246094"/>
      </g>
     </g>
    </g>
    <g id="xtick_6">
     <g id="line2d_6">
      <g>
       <use xlink:href="#md093369281" x="467.697522" y="308.63625" style="stroke: #000000; stroke-width: 0.8"/>
      </g>
     </g>
     <g id="text_6">
      <!-- 1000 -->
      <g transform="translate(442.247522 330.833125) scale(0.2 -0.2)">
       <defs>
        <path id="DejaVuSans-31" d="M 794 531 
L 1825 531 
L 1825 4091 
L 703 3866 
L 703 4441 
L 1819 4666 
L 2450 4666 
L 2450 531 
L 3481 531 
L 3481 0 
L 794 0 
L 794 531 
z
" transform="scale(0.015625)"/>
       </defs>
       <use xlink:href="#DejaVuSans-31"/>
       <use xlink:href="#DejaVuSans-30" x="63.623047"/>
       <use xlink:href="#DejaVuSans-30" x="127.246094"/>
       <use xlink:href="#DejaVuSans-30" x="190.869141"/>
      </g>
     </g>
    </g>
    <g id="xtick_7">
     <g id="line2d_7">
      <g>
       <use xlink:href="#md093369281" x="537.666174" y="308.63625" style="stroke: #000000; stroke-width: 0.8"/>
      </g>
     </g>
     <g id="text_7">
      <!-- 1200 -->
      <g transform="translate(512.216174 330.833125) scale(0.2 -0.2)">
       <use xlink:href="#DejaVuSans-31"/>
       <use xlink:href="#DejaVuSans-32" x="63.623047"/>
       <use xlink:href="#DejaVuSans-30" x="127.246094"/>
       <use xlink:href="#DejaVuSans-30" x="190.869141"/>
      </g>
     </g>
    </g>
    <g id="xtick_8">
     <g id="line2d_8">
      <g>
       <use xlink:href="#md093369281" x="607.634826" y="308.63625" style="stroke: #000000; stroke-width: 0.8"/>
      </g>
     </g>
     <g id="text_8">
      <!-- 1400 -->
      <g transform="translate(582.184826 330.833125) scale(0.2 -0.2)">
       <use xlink:href="#DejaVuSans-31"/>
       <use xlink:href="#DejaVuSans-34" x="63.623047"/>
       <use xlink:href="#DejaVuSans-30" x="127.246094"/>
       <use xlink:href="#DejaVuSans-30" x="190.869141"/>
      </g>
     </g>
    </g>
    <g id="text_9">
     <!-- iterations -->
     <g transform="translate(324.035938 354.189375) scale(0.2 -0.2)">
      <defs>
       <path id="DejaVuSans-69" d="M 603 3500 
L 1178 3500 
L 1178 0 
L 603 0 
L 603 3500 
z
M 603 4863 
L 1178 4863 
L 1178 4134 
L 603 4134 
L 603 4863 
z
" transform="scale(0.015625)"/>
       <path id="DejaVuSans-74" d="M 1172 4494 
L 1172 3500 
L 2356 3500 
L 2356 3053 
L 1172 3053 
L 1172 1153 
Q 1172 725 1289 603 
Q 1406 481 1766 481 
L 2356 481 
L 2356 0 
L 1766 0 
Q 1100 0 847 248 
Q 594 497 594 1153 
L 594 3053 
L 172 3053 
L 172 3500 
L 594 3500 
L 594 4494 
L 1172 4494 
z
" transform="scale(0.015625)"/>
       <path id="DejaVuSans-65" d="M 3597 1894 
L 3597 1613 
L 953 1613 
Q 991 1019 1311 708 
Q 1631 397 2203 397 
Q 2534 397 2845 478 
Q 3156 559 3463 722 
L 3463 178 
Q 3153 47 2828 -22 
Q 2503 -91 2169 -91 
Q 1331 -91 842 396 
Q 353 884 353 1716 
Q 353 2575 817 3079 
Q 1281 3584 2069 3584 
Q 2775 3584 3186 3129 
Q 3597 2675 3597 1894 
z
M 3022 2063 
Q 3016 2534 2758 2815 
Q 2500 3097 2075 3097 
Q 1594 3097 1305 2825 
Q 1016 2553 972 2059 
L 3022 2063 
z
" transform="scale(0.015625)"/>
       <path id="DejaVuSans-72" d="M 2631 2963 
Q 2534 3019 2420 3045 
Q 2306 3072 2169 3072 
Q 1681 3072 1420 2755 
Q 1159 2438 1159 1844 
L 1159 0 
L 581 0 
L 581 3500 
L 1159 3500 
L 1159 2956 
Q 1341 3275 1631 3429 
Q 1922 3584 2338 3584 
Q 2397 3584 2469 3576 
Q 2541 3569 2628 3553 
L 2631 2963 
z
" transform="scale(0.015625)"/>
       <path id="DejaVuSans-61" d="M 2194 1759 
Q 1497 1759 1228 1600 
Q 959 1441 959 1056 
Q 959 750 1161 570 
Q 1363 391 1709 391 
Q 2188 391 2477 730 
Q 2766 1069 2766 1631 
L 2766 1759 
L 2194 1759 
z
M 3341 1997 
L 3341 0 
L 2766 0 
L 2766 531 
Q 2569 213 2275 61 
Q 1981 -91 1556 -91 
Q 1019 -91 701 211 
Q 384 513 384 1019 
Q 384 1609 779 1909 
Q 1175 2209 1959 2209 
L 2766 2209 
L 2766 2266 
Q 2766 2663 2505 2880 
Q 2244 3097 1772 3097 
Q 1472 3097 1187 3025 
Q 903 2953 641 2809 
L 641 3341 
Q 956 3463 1253 3523 
Q 1550 3584 1831 3584 
Q 2591 3584 2966 3190 
Q 3341 2797 3341 1997 
z
" transform="scale(0.015625)"/>
       <path id="DejaVuSans-6f" d="M 1959 3097 
Q 1497 3097 1228 2736 
Q 959 2375 959 1747 
Q 959 1119 1226 758 
Q 1494 397 1959 397 
Q 2419 397 2687 759 
Q 2956 1122 2956 1747 
Q 2956 2369 2687 2733 
Q 2419 3097 1959 3097 
z
M 1959 3584 
Q 2709 3584 3137 3096 
Q 3566 2609 3566 1747 
Q 3566 888 3137 398 
Q 2709 -91 1959 -91 
Q 1206 -91 779 398 
Q 353 888 353 1747 
Q 353 2609 779 3096 
Q 1206 3584 1959 3584 
z
" transform="scale(0.015625)"/>
       <path id="DejaVuSans-6e" d="M 3513 2113 
L 3513 0 
L 2938 0 
L 2938 2094 
Q 2938 2591 2744 2837 
Q 2550 3084 2163 3084 
Q 1697 3084 1428 2787 
Q 1159 2491 1159 1978 
L 1159 0 
L 581 0 
L 581 3500 
L 1159 3500 
L 1159 2956 
Q 1366 3272 1645 3428 
Q 1925 3584 2291 3584 
Q 2894 3584 3203 3211 
Q 3513 2838 3513 2113 
z
" transform="scale(0.015625)"/>
       <path id="DejaVuSans-73" d="M 2834 3397 
L 2834 2853 
Q 2591 2978 2328 3040 
Q 2066 3103 1784 3103 
Q 1356 3103 1142 2972 
Q 928 2841 928 2578 
Q 928 2378 1081 2264 
Q 1234 2150 1697 2047 
L 1894 2003 
Q 2506 1872 2764 1633 
Q 3022 1394 3022 966 
Q 3022 478 2636 193 
Q 2250 -91 1575 -91 
Q 1294 -91 989 -36 
Q 684 19 347 128 
L 347 722 
Q 666 556 975 473 
Q 1284 391 1588 391 
Q 1994 391 2212 530 
Q 2431 669 2431 922 
Q 2431 1156 2273 1281 
Q 2116 1406 1581 1522 
L 1381 1569 
Q 847 1681 609 1914 
Q 372 2147 372 2553 
Q 372 3047 722 3315 
Q 1072 3584 1716 3584 
Q 2034 3584 2315 3537 
Q 2597 3491 2834 3397 
z
" transform="scale(0.015625)"/>
      </defs>
      <use xlink:href="#DejaVuSans-69"/>
      <use xlink:href="#DejaVuSans-74" x="27.783203"/>
      <use xlink:href="#DejaVuSans-65" x="66.992188"/>
      <use xlink:href="#DejaVuSans-72" x="128.515625"/>
      <use xlink:href="#DejaVuSans-61" x="169.628906"/>
      <use xlink:href="#DejaVuSans-74" x="230.908203"/>
      <use xlink:href="#DejaVuSans-69" x="270.117188"/>
      <use xlink:href="#DejaVuSans-6f" x="297.900391"/>
      <use xlink:href="#DejaVuSans-6e" x="359.082031"/>
      <use xlink:href="#DejaVuSans-73" x="422.460938"/>
     </g>
    </g>
   </g>
   <g id="matplotlib.axis_2">
    <g id="ytick_1">
     <g id="line2d_9">
      <defs>
       <path id="mb26adf98b6" d="M 0 0 
L -3.5 0 
" style="stroke: #000000; stroke-width: 0.8"/>
      </defs>
      <g>
       <use xlink:href="#mb26adf98b6" x="92.490625" y="234.626549" style="stroke: #000000; stroke-width: 0.8"/>
      </g>
     </g>
     <g id="text_10">
      <!-- −200 -->
      <g transform="translate(30.55625 242.224987) scale(0.2 -0.2)">
       <defs>
        <path id="DejaVuSans-2212" d="M 678 2272 
L 4684 2272 
L 4684 1741 
L 678 1741 
L 678 2272 
z
" transform="scale(0.015625)"/>
       </defs>
       <use xlink:href="#DejaVuSans-2212"/>
       <use xlink:href="#DejaVuSans-32" x="83.789062"/>
       <use xlink:href="#DejaVuSans-30" x="147.412109"/>
       <use xlink:href="#DejaVuSans-30" x="211.035156"/>
      </g>
     </g>
    </g>
    <g id="ytick_2">
     <g id="line2d_10">
      <g>
       <use xlink:href="#mb26adf98b6" x="92.490625" y="151.376755" style="stroke: #000000; stroke-width: 0.8"/>
      </g>
     </g>
     <g id="text_11">
      <!-- 0 -->
      <g transform="translate(72.765625 158.975193) scale(0.2 -0.2)">
       <use xlink:href="#DejaVuSans-30"/>
      </g>
     </g>
    </g>
    <g id="ytick_3">
     <g id="line2d_11">
      <g>
       <use xlink:href="#mb26adf98b6" x="92.490625" y="68.126962" style="stroke: #000000; stroke-width: 0.8"/>
      </g>
     </g>
     <g id="text_12">
      <!-- 200 -->
      <g transform="translate(47.315625 75.725399) scale(0.2 -0.2)">
       <use xlink:href="#DejaVuSans-32"/>
       <use xlink:href="#DejaVuSans-30" x="63.623047"/>
       <use xlink:href="#DejaVuSans-30" x="127.246094"/>
      </g>
     </g>
    </g>
    <g id="text_13">
     <!-- Loss -->
     <g transform="translate(22.396875 191.970625) rotate(-90) scale(0.2 -0.2)">
      <defs>
       <path id="DejaVuSans-4c" d="M 628 4666 
L 1259 4666 
L 1259 531 
L 3531 531 
L 3531 0 
L 628 0 
L 628 4666 
z
" transform="scale(0.015625)"/>
      </defs>
      <use xlink:href="#DejaVuSans-4c"/>
      <use xlink:href="#DejaVuSans-6f" x="53.962891"/>
      <use xlink:href="#DejaVuSans-73" x="115.144531"/>
      <use xlink:href="#DejaVuSans-73" x="167.244141"/>
     </g>
    </g>
   </g>
   <g id="line2d_12">
    <path d="M 117.854261 114.726306 
L 118.204105 106.081918 
L 118.553948 66.645135 
L 118.903791 44.03625 
L 119.253634 55.607746 
L 119.603478 116.630126 
L 119.953321 138.664661 
L 120.303164 137.321124 
L 120.653007 122.741893 
L 121.002851 120.788415 
L 121.352694 127.999278 
L 121.702537 122.989826 
L 122.05238 108.458537 
L 122.402224 122.646974 
L 122.752067 126.556792 
L 123.10191 123.898785 
L 123.451754 120.201515 
L 123.801597 126.255443 
L 124.15144 122.797609 
L 124.501283 127.006439 
L 124.851127 118.64052 
L 125.20097 124.366742 
L 125.550813 117.662909 
L 125.900656 117.330772 
L 126.2505 114.695364 
L 126.600343 107.764658 
L 126.950186 108.435758 
L 127.300029 107.051208 
L 127.649873 106.219874 
L 127.999716 110.116506 
L 128.699402 103.735206 
L 129.049246 107.114803 
L 129.399089 106.33327 
L 129.748932 103.507469 
L 130.098775 108.842958 
L 130.448619 102.920055 
L 130.798462 108.429686 
L 131.148305 110.936486 
L 131.498149 110.869457 
L 131.847992 106.939005 
L 132.197835 105.409875 
L 132.547678 110.445841 
L 132.897522 111.131011 
L 133.247365 113.912796 
L 133.597208 112.411065 
L 133.947051 111.591078 
L 134.296895 112.594274 
L 134.646738 115.130586 
L 134.996581 112.662515 
L 135.346424 111.560611 
L 135.696268 112.925905 
L 136.046111 108.346789 
L 136.395954 112.549272 
L 136.745797 114.58122 
L 137.095641 115.179402 
L 137.445484 119.262292 
L 137.795327 117.014571 
L 138.14517 116.380063 
L 138.495014 120.267786 
L 138.844857 120.37667 
L 139.1947 120.879402 
L 139.544543 120.548412 
L 139.894387 123.597646 
L 140.24423 123.431828 
L 140.594073 121.429234 
L 140.943917 122.560572 
L 141.29376 119.85272 
L 141.643603 118.694633 
L 142.34329 118.68102 
L 142.693133 118.119314 
L 143.042976 121.17012 
L 143.742663 116.7473 
L 144.092506 113.297092 
L 144.442349 118.688744 
L 144.792192 120.343387 
L 145.142036 123.308616 
L 145.841722 118.109455 
L 146.541409 123.245243 
L 147.241095 118.407012 
L 147.940782 122.653338 
L 148.290625 123.836576 
L 148.640468 125.744796 
L 148.990312 123.447651 
L 149.340155 128.318527 
L 149.689998 129.080516 
L 150.039841 128.830815 
L 150.389685 128.20745 
L 150.739528 128.76154 
L 151.089371 132.053196 
L 151.439214 133.596636 
L 151.789058 133.934515 
L 152.138901 135.141517 
L 152.488744 135.137063 
L 152.838587 134.780402 
L 153.188431 135.202134 
L 153.538274 135.093015 
L 153.888117 136.905242 
L 154.587804 142.399589 
L 154.937647 142.128559 
L 155.28749 142.779249 
L 155.637333 139.598641 
L 155.987177 140.408307 
L 156.33702 138.506123 
L 156.686863 139.937779 
L 158.086236 135.089312 
L 158.43608 138.125691 
L 158.785923 137.931203 
L 159.135766 136.48173 
L 159.485609 135.887461 
L 160.185296 133.177328 
L 160.535139 135.336782 
L 160.884982 134.894951 
L 161.234826 135.405771 
L 161.584669 135.395858 
L 161.934512 136.106534 
L 162.284355 138.160945 
L 162.984042 138.778501 
L 163.333885 139.328544 
L 163.683728 137.455284 
L 164.033572 138.146409 
L 164.383415 139.584531 
L 164.733258 139.54211 
L 165.083101 140.772087 
L 165.432945 139.328314 
L 165.782788 141.270704 
L 166.482475 138.38691 
L 166.832318 138.267975 
L 167.182161 138.407029 
L 167.532004 138.064147 
L 167.881848 136.366411 
L 168.231691 136.725459 
L 168.581534 137.7051 
L 168.931377 136.859223 
L 169.281221 139.049001 
L 169.631064 137.336016 
L 169.980907 137.257625 
L 170.33075 138.794003 
L 170.680594 138.317046 
L 171.030437 138.127537 
L 171.38028 137.085883 
L 171.730123 140.357201 
L 172.079967 142.188057 
L 172.42981 140.211719 
L 172.779653 141.214973 
L 173.129496 140.469004 
L 173.47934 140.399257 
L 173.829183 137.341402 
L 174.179026 136.956775 
L 174.52887 138.004539 
L 174.878713 141.917493 
L 175.228556 141.394417 
L 175.578399 139.770456 
L 175.928243 138.757231 
L 176.278086 139.627896 
L 176.977772 142.544043 
L 177.327616 142.319792 
L 177.677459 139.759331 
L 178.027302 140.416344 
L 178.377145 141.45395 
L 178.726989 141.363625 
L 179.076832 140.978604 
L 179.426675 142.910652 
L 179.776518 142.90158 
L 180.126362 144.549058 
L 180.476205 145.17122 
L 180.826048 145.44887 
L 181.175891 144.416339 
L 181.525735 144.947962 
L 181.875578 143.814591 
L 182.225421 145.207917 
L 182.575264 145.528567 
L 182.925108 144.861957 
L 183.274951 145.227471 
L 183.624794 144.527959 
L 183.974638 145.046411 
L 184.324481 146.68308 
L 184.674324 147.135187 
L 185.374011 143.988933 
L 185.723854 145.81337 
L 186.073697 144.652605 
L 186.42354 145.491722 
L 186.773384 145.544312 
L 187.123227 146.479505 
L 187.47307 145.926367 
L 187.822913 146.569906 
L 188.172757 146.635087 
L 188.5226 145.762171 
L 188.872443 146.892018 
L 189.222286 148.983063 
L 189.57213 148.879743 
L 189.921973 147.783513 
L 190.271816 148.254067 
L 190.621659 147.888736 
L 190.971503 146.84581 
L 191.321346 146.202176 
L 191.671189 146.837467 
L 192.021033 146.997663 
L 192.720719 146.666794 
L 193.420406 146.848622 
L 193.770249 146.639285 
L 194.120092 145.433562 
L 194.469935 146.697151 
L 194.819779 146.488051 
L 195.169622 148.265055 
L 195.519465 147.613654 
L 195.869308 147.710403 
L 196.219152 147.419561 
L 196.568995 147.740517 
L 196.918838 146.590609 
L 197.618525 147.987777 
L 198.318211 148.092569 
L 198.668054 147.626153 
L 199.017898 148.346627 
L 199.367741 147.834075 
L 199.717584 146.928657 
L 200.067428 148.067958 
L 200.417271 147.258653 
L 200.767114 148.865305 
L 201.116957 148.410553 
L 201.466801 148.967358 
L 201.816644 149.221557 
L 202.166487 149.822095 
L 202.51633 148.406232 
L 202.866174 148.806973 
L 203.216017 148.539764 
L 203.56586 149.07262 
L 203.915703 148.908721 
L 204.265547 148.61838 
L 204.965233 149.440954 
L 205.315076 149.36957 
L 205.66492 150.013568 
L 206.014763 149.776241 
L 206.364606 150.325511 
L 206.714449 149.880589 
L 207.064293 151.162299 
L 207.414136 149.985682 
L 207.763979 151.13516 
L 208.113822 149.965057 
L 208.813509 149.636812 
L 209.163352 150.277934 
L 209.513196 150.130294 
L 209.863039 149.369379 
L 210.212882 148.998461 
L 210.912569 149.411097 
L 211.262412 150.464825 
L 211.612255 150.199464 
L 211.962098 150.562235 
L 212.311942 150.590935 
L 212.661785 151.04972 
L 213.011628 151.841912 
L 213.711315 151.175547 
L 214.061158 152.473986 
L 214.411001 151.552817 
L 214.760844 151.225341 
L 215.110688 151.595681 
L 215.460531 152.660834 
L 215.810374 151.773162 
L 216.160217 152.094372 
L 216.510061 152.17824 
L 216.859904 151.68895 
L 217.909434 152.286212 
L 218.259277 152.200918 
L 218.60912 152.280159 
L 218.958964 151.754625 
L 219.308807 152.272882 
L 220.008493 151.842046 
L 220.358337 152.141914 
L 220.70818 152.770268 
L 221.058023 152.207484 
L 221.407866 152.377094 
L 221.75771 152.188492 
L 222.107553 152.676249 
L 222.457396 151.731846 
L 223.157083 151.345152 
L 223.506926 152.186997 
L 223.856769 152.122104 
L 224.206612 151.359375 
L 224.556456 151.397048 
L 224.906299 151.085501 
L 225.605986 152.610465 
L 226.305672 151.755312 
L 226.655515 151.745505 
L 227.005359 151.555412 
L 227.355202 151.233799 
L 228.054888 151.617299 
L 228.404732 151.69156 
L 228.754575 151.931251 
L 229.104418 150.713665 
L 229.454261 151.562487 
L 229.804105 151.106358 
L 230.503791 150.617443 
L 230.853634 151.580261 
L 231.203478 151.282821 
L 231.553321 151.651857 
L 231.903164 151.11709 
L 232.253007 151.018062 
L 232.602851 149.816142 
L 232.952694 150.538729 
L 233.302537 151.54643 
L 233.65238 151.134366 
L 234.002224 150.083957 
L 234.352067 149.856048 
L 234.70191 150.084806 
L 235.401597 150.905625 
L 236.101283 150.592418 
L 236.451127 150.540132 
L 236.80097 150.835766 
L 237.150813 149.605204 
L 237.500656 150.155542 
L 237.8505 148.359728 
L 238.200343 149.069275 
L 238.550186 149.470042 
L 238.900029 148.774616 
L 239.249873 149.156396 
L 239.599716 149.200486 
L 239.949559 148.372847 
L 240.299402 148.781279 
L 240.649246 148.915586 
L 240.999089 148.736299 
L 241.348932 148.278376 
L 241.698775 150.048145 
L 242.048619 149.794805 
L 242.748305 147.006615 
L 243.098149 149.701961 
L 243.447992 148.584931 
L 243.797835 150.113674 
L 244.147678 149.148353 
L 244.497522 149.050289 
L 244.847365 149.482133 
L 245.197208 149.221502 
L 245.896895 149.716106 
L 246.596581 149.448828 
L 246.946424 148.575808 
L 247.646111 149.033621 
L 247.995954 149.043221 
L 248.345797 148.766445 
L 248.695641 150.10204 
L 249.045484 149.976308 
L 249.395327 149.01284 
L 250.095014 150.415562 
L 250.444857 150.191345 
L 250.7947 149.765998 
L 251.494387 151.094122 
L 251.84423 150.749297 
L 252.194073 150.748543 
L 252.543917 150.552951 
L 252.89376 150.811243 
L 253.243603 150.267491 
L 253.593446 150.78941 
L 253.94329 151.586957 
L 254.293133 150.325004 
L 254.642976 151.032796 
L 254.992819 150.88367 
L 255.342663 150.884052 
L 255.692506 151.261011 
L 256.042349 150.707683 
L 256.392192 150.648162 
L 256.742036 149.982535 
L 257.091879 150.220711 
L 257.441722 150.660541 
L 257.791565 150.245039 
L 258.141409 151.090624 
L 258.491252 151.255264 
L 258.841095 150.92556 
L 259.190938 151.095426 
L 259.540782 151.622911 
L 259.890625 151.330097 
L 260.240468 151.27642 
L 260.590312 151.926709 
L 260.940155 151.644614 
L 261.289998 151.748004 
L 261.639841 151.589741 
L 261.989685 151.096936 
L 262.339528 151.232504 
L 262.689371 152.274212 
L 263.039214 151.431557 
L 263.389058 152.15493 
L 263.738901 150.750337 
L 264.088744 151.642762 
L 264.438587 152.003527 
L 264.788431 151.370928 
L 265.138274 151.81159 
L 266.187804 152.347011 
L 266.537647 152.287551 
L 266.88749 152.792889 
L 267.237333 152.330353 
L 267.587177 152.840892 
L 267.93702 152.952117 
L 268.286863 152.415944 
L 268.636707 152.560223 
L 268.98655 151.791173 
L 269.336393 151.744005 
L 269.686236 151.92552 
L 270.03608 151.236089 
L 270.385923 151.001596 
L 270.735766 152.275131 
L 271.085609 151.230055 
L 272.135139 152.57704 
L 272.484982 152.080164 
L 272.834826 151.791563 
L 273.184669 152.511252 
L 273.534512 151.929362 
L 273.884355 152.536765 
L 274.234199 151.959364 
L 274.584042 152.067056 
L 274.933885 152.043511 
L 275.633572 152.304802 
L 275.983415 151.700389 
L 276.333258 151.420254 
L 276.683101 151.287794 
L 277.032945 151.665874 
L 277.382788 152.210526 
L 277.732631 152.047336 
L 278.082475 152.215515 
L 278.432318 151.418016 
L 278.782161 151.783619 
L 279.481848 151.755368 
L 279.831691 152.372138 
L 280.531377 152.398249 
L 280.881221 152.2066 
L 281.231064 152.143606 
L 281.580907 152.661245 
L 281.93075 152.418168 
L 282.280594 151.076607 
L 282.630437 152.230132 
L 282.98028 152.254543 
L 283.330123 152.085501 
L 283.679967 152.097016 
L 284.379653 151.575627 
L 285.07934 151.848856 
L 285.429183 151.953318 
L 285.779026 152.623378 
L 286.478713 151.842257 
L 286.828556 152.267785 
L 287.528243 152.143958 
L 287.878086 150.987889 
L 288.577772 151.975647 
L 288.927616 151.998391 
L 289.277459 151.335571 
L 289.627302 151.682935 
L 289.977145 152.632733 
L 290.326989 152.19404 
L 291.376518 151.946123 
L 291.726362 152.200519 
L 292.076205 152.193347 
L 292.426048 151.984494 
L 293.125735 152.365496 
L 293.475578 152.266247 
L 293.825421 151.934436 
L 294.175264 152.40168 
L 294.525108 152.065543 
L 294.874951 151.446763 
L 295.224794 151.828722 
L 295.574638 151.947018 
L 295.924481 152.448695 
L 296.274324 151.844327 
L 296.624167 151.506004 
L 296.974011 151.857779 
L 297.323854 151.871857 
L 297.673697 151.079205 
L 298.02354 151.507201 
L 298.373384 151.45044 
L 298.723227 151.647678 
L 299.07307 151.448021 
L 299.422913 151.495779 
L 299.772757 150.817983 
L 300.1226 151.706664 
L 300.472443 151.308106 
L 300.822286 151.276547 
L 301.17213 151.5955 
L 301.521973 151.62933 
L 301.871816 151.070949 
L 302.221659 151.645706 
L 302.571503 151.69572 
L 303.271189 151.149644 
L 303.621033 151.458323 
L 303.970876 151.46821 
L 304.320719 152.024571 
L 304.670562 152.047261 
L 305.020406 151.13832 
L 305.370249 151.604247 
L 305.720092 151.562435 
L 306.069935 151.300639 
L 306.419779 151.701181 
L 306.769622 151.454309 
L 307.119465 151.537243 
L 307.469308 151.037532 
L 307.819152 151.344607 
L 308.168995 151.194195 
L 308.518838 151.298938 
L 309.218525 151.177206 
L 309.568368 151.24606 
L 310.268054 151.801094 
L 310.617898 151.715007 
L 310.967741 151.495821 
L 311.317584 151.575049 
L 311.667428 152.208455 
L 312.017271 151.707065 
L 312.367114 151.726826 
L 312.716957 151.988182 
L 313.066801 152.692704 
L 313.416644 152.089559 
L 314.11633 152.427433 
L 314.466174 152.218327 
L 314.816017 152.372906 
L 315.16586 152.029724 
L 315.515703 152.286971 
L 315.865547 151.970467 
L 316.21539 152.555662 
L 316.565233 152.245332 
L 317.26492 152.541199 
L 317.614763 151.979995 
L 317.964606 152.520662 
L 318.314449 152.584042 
L 318.664293 152.14573 
L 319.014136 152.190755 
L 319.363979 151.690852 
L 319.713822 152.114592 
L 320.063666 152.29273 
L 320.763352 152.107116 
L 321.113196 152.648587 
L 321.463039 152.284687 
L 322.162725 152.570828 
L 322.512569 151.94545 
L 322.862412 152.373726 
L 323.562098 152.544228 
L 323.911942 152.822214 
L 324.261785 152.360177 
L 324.611628 152.090089 
L 324.961471 152.535167 
L 325.661158 152.221624 
L 326.011001 152.436898 
L 326.360844 152.35947 
L 327.060531 152.520215 
L 327.410374 153.016444 
L 327.760217 151.731253 
L 328.110061 152.950878 
L 328.459904 152.456644 
L 329.159591 152.995511 
L 329.509434 152.141711 
L 329.859277 152.638712 
L 330.20912 152.800987 
L 330.908807 152.785811 
L 331.25865 152.008473 
L 331.608493 152.737062 
L 331.958337 152.400565 
L 332.30818 152.305675 
L 332.658023 151.975513 
L 333.007866 152.573437 
L 333.35771 151.750127 
L 333.707553 152.303332 
L 334.057396 148.524838 
L 334.407239 151.957175 
L 334.757083 151.768497 
L 335.106926 151.228879 
L 335.456769 149.876511 
L 335.806612 150.908245 
L 336.156456 150.634714 
L 336.506299 150.781189 
L 336.856142 151.133643 
L 337.205986 150.985306 
L 337.555829 151.421726 
L 337.905672 151.07346 
L 338.605359 151.445347 
L 338.955202 151.544725 
L 339.305045 151.284326 
L 339.654888 151.233488 
L 340.004732 151.776222 
L 340.354575 152.068305 
L 340.704418 151.888559 
L 341.054261 152.299186 
L 341.404105 152.396925 
L 341.753948 152.804566 
L 342.103791 151.928435 
L 342.803478 151.75361 
L 343.153321 152.006023 
L 343.503164 152.058703 
L 343.853007 151.994579 
L 344.202851 151.590229 
L 344.902537 151.647107 
L 345.25238 151.896192 
L 345.602224 151.728772 
L 346.30191 151.971596 
L 346.651754 151.477873 
L 347.35144 152.194692 
L 348.40097 152.161486 
L 348.750813 151.747277 
L 349.100656 151.809392 
L 349.4505 152.215417 
L 349.800343 152.396104 
L 350.150186 152.099389 
L 350.500029 152.378092 
L 351.549559 152.240698 
L 351.899402 151.902568 
L 352.249246 152.467766 
L 352.599089 152.124655 
L 352.948932 152.70934 
L 353.298775 152.230334 
L 353.648619 152.155856 
L 353.998462 152.355853 
L 354.348305 152.094614 
L 354.698149 152.597834 
L 355.047992 152.284626 
L 355.397835 151.680398 
L 355.747678 152.298811 
L 356.097522 152.390976 
L 356.447365 152.345511 
L 356.797208 151.894844 
L 357.147051 151.847075 
L 357.496895 152.100982 
L 357.846738 151.939378 
L 358.196581 152.30459 
L 358.896268 152.323955 
L 359.246111 151.872378 
L 359.595954 152.179649 
L 359.945797 152.235323 
L 360.295641 151.742924 
L 360.645484 151.994381 
L 360.995327 151.714282 
L 361.34517 152.59086 
L 361.695014 152.371201 
L 362.044857 152.410087 
L 362.3947 151.979833 
L 362.744543 152.13412 
L 363.44423 151.953103 
L 363.794073 152.663517 
L 364.143917 152.850887 
L 364.49376 152.335265 
L 364.843603 152.093904 
L 365.193446 152.09731 
L 365.54329 151.861739 
L 365.893133 152.22775 
L 366.242976 152.143963 
L 366.592819 151.920261 
L 366.942663 152.292448 
L 367.642349 151.608838 
L 367.992192 151.884717 
L 368.342036 151.948034 
L 369.041722 151.885639 
L 369.391565 151.98697 
L 369.741409 151.792668 
L 370.091252 151.911078 
L 370.441095 151.859503 
L 371.140782 151.98688 
L 371.490625 152.018334 
L 371.840468 152.415296 
L 372.540155 151.914235 
L 372.889998 151.89707 
L 373.589685 152.22128 
L 374.989058 151.399755 
L 375.338901 152.082493 
L 375.688744 151.858426 
L 376.038587 151.14337 
L 376.388431 151.339535 
L 376.738274 151.059344 
L 377.088117 151.37599 
L 378.137647 151.377481 
L 378.48749 151.680836 
L 379.187177 151.543694 
L 379.53702 150.926786 
L 380.236707 151.767019 
L 380.58655 151.616761 
L 380.936393 151.706296 
L 381.286236 151.076738 
L 381.63608 151.587845 
L 381.985923 151.442994 
L 382.335766 151.430316 
L 382.685609 151.547727 
L 383.035453 151.213943 
L 383.385296 151.582079 
L 383.735139 151.353998 
L 384.434826 151.507801 
L 385.134512 151.177908 
L 385.484355 151.384978 
L 386.533885 151.092115 
L 386.883728 151.176657 
L 387.233572 151.640328 
L 387.933258 151.604892 
L 388.283101 151.570655 
L 388.632945 151.945732 
L 389.332631 151.938915 
L 389.682475 151.661181 
L 390.032318 151.550083 
L 390.382161 151.205932 
L 391.081848 151.191742 
L 391.431691 151.686735 
L 391.781534 151.613083 
L 392.131377 151.852518 
L 392.481221 151.679496 
L 393.180907 152.207215 
L 395.279967 151.367225 
L 395.62981 151.667476 
L 396.329496 151.296849 
L 396.67934 151.849446 
L 397.029183 151.805784 
L 397.379026 151.328364 
L 397.72887 151.674293 
L 398.078713 151.743831 
L 398.428556 152.042436 
L 398.778399 151.830819 
L 399.128243 151.370385 
L 399.827929 151.709383 
L 400.177772 151.443255 
L 400.527616 151.744608 
L 400.877459 151.368646 
L 401.227302 151.488061 
L 401.577145 151.828688 
L 401.926989 151.146687 
L 402.276832 151.689779 
L 402.626675 151.498835 
L 403.326362 151.770987 
L 403.676205 151.543286 
L 404.026048 150.945401 
L 404.375891 151.778396 
L 404.725735 151.49887 
L 405.425421 151.858059 
L 406.125108 151.134675 
L 406.474951 151.486843 
L 406.824794 151.396916 
L 407.174638 151.719428 
L 407.524481 151.424326 
L 407.874324 151.788686 
L 408.224167 151.564222 
L 408.574011 151.705691 
L 408.923854 151.996654 
L 409.273697 151.92431 
L 409.62354 151.704387 
L 409.973384 152.328413 
L 410.67307 152.27705 
L 411.022913 151.88783 
L 412.072443 151.92844 
L 412.422286 152.307681 
L 413.121973 152.183362 
L 413.821659 152.189478 
L 414.171503 152.038944 
L 414.521346 152.635119 
L 414.871189 152.101613 
L 415.221033 151.938368 
L 415.570876 152.079164 
L 415.920719 151.71079 
L 416.270562 151.797494 
L 416.620406 151.646745 
L 416.970249 152.143108 
L 417.320092 151.99021 
L 417.669935 152.18414 
L 418.019779 152.22808 
L 418.369622 152.125307 
L 419.069308 151.692709 
L 419.419152 151.910702 
L 419.768995 151.764202 
L 420.468681 151.699157 
L 420.818525 152.14054 
L 421.168368 151.37151 
L 421.868054 151.766142 
L 422.567741 151.713636 
L 422.917584 151.875768 
L 423.267428 151.39868 
L 423.617271 151.225943 
L 423.967114 151.535501 
L 424.316957 151.645419 
L 424.666801 151.240036 
L 425.366487 151.689344 
L 427.115703 151.53041 
L 427.465547 151.307105 
L 427.81539 151.856963 
L 428.515076 151.503902 
L 428.86492 151.979471 
L 429.214763 151.697348 
L 429.564606 151.934772 
L 429.914449 151.508816 
L 430.264293 152.151504 
L 430.614136 151.747737 
L 430.963979 151.834478 
L 431.313822 152.265236 
L 431.663666 151.941584 
L 432.013509 151.934039 
L 432.363352 151.171931 
L 432.713196 151.802155 
L 433.063039 152.066033 
L 433.762725 151.545989 
L 434.462412 151.575974 
L 434.812255 151.873294 
L 435.162098 151.918905 
L 435.511942 151.736145 
L 435.861785 151.989589 
L 436.211628 151.574647 
L 436.561471 151.879342 
L 437.611001 151.910117 
L 437.960844 151.70139 
L 438.310688 151.937435 
L 438.660531 152.009852 
L 439.010374 151.533277 
L 439.710061 152.084454 
L 440.059904 151.590728 
L 440.759591 152.446118 
L 441.459277 151.724952 
L 442.158964 152.141755 
L 442.508807 151.898353 
L 442.85865 152.1334 
L 443.208493 152.032246 
L 443.558337 152.398274 
L 443.90818 151.485606 
L 444.258023 151.919006 
L 444.607866 151.88307 
L 444.95771 151.55212 
L 445.307553 151.715725 
L 445.657396 152.216185 
L 446.007239 151.943226 
L 446.357083 151.526062 
L 446.706926 151.839099 
L 447.056769 152.344255 
L 447.406612 152.354418 
L 447.756456 151.937689 
L 448.106299 151.854042 
L 448.805986 152.403465 
L 449.155829 151.928993 
L 450.205359 152.361175 
L 450.555202 152.258287 
L 451.254888 152.385159 
L 451.604732 151.892379 
L 452.654261 152.244459 
L 453.004105 151.72125 
L 453.353948 152.643585 
L 453.703791 152.199328 
L 454.053634 152.058942 
L 454.403478 152.411634 
L 455.103164 151.943532 
L 455.453007 151.985253 
L 456.152694 151.866921 
L 456.502537 151.978894 
L 456.85238 152.516977 
L 457.202224 152.155609 
L 457.552067 152.389905 
L 457.90191 152.072178 
L 458.251754 152.703306 
L 458.601597 152.95425 
L 458.95144 152.619859 
L 459.651127 152.332556 
L 460.350813 152.769971 
L 461.0505 152.24283 
L 461.750186 152.833334 
L 462.100029 152.80824 
L 462.449873 152.291823 
L 462.799716 152.833655 
L 463.149559 152.436755 
L 463.499402 152.210842 
L 464.199089 152.278928 
L 464.898775 152.356118 
L 465.248619 152.226534 
L 465.598462 152.465522 
L 465.948305 152.474592 
L 466.298149 152.221023 
L 466.647992 152.302501 
L 466.997835 152.05563 
L 467.697522 152.459694 
L 468.047365 152.101627 
L 468.397208 152.179048 
L 468.747051 152.103387 
L 469.096895 152.219353 
L 469.446738 152.510258 
L 469.796581 152.273396 
L 470.146424 152.398583 
L 470.846111 152.125431 
L 471.195954 152.171389 
L 471.545797 151.970359 
L 471.895641 152.253858 
L 472.245484 152.200606 
L 472.595327 152.397954 
L 472.94517 152.317683 
L 473.295014 152.115818 
L 473.9947 152.208094 
L 474.344543 151.816096 
L 474.694387 152.263418 
L 475.04423 152.06862 
L 475.394073 152.056638 
L 475.743917 152.361283 
L 476.09376 152.3193 
L 476.443603 151.907125 
L 476.793446 152.04794 
L 477.14329 152.353644 
L 477.493133 152.087623 
L 477.842976 152.359963 
L 478.192819 152.294126 
L 478.542663 152.614881 
L 478.892506 152.20847 
L 479.242349 152.351788 
L 479.592192 152.690721 
L 480.641722 151.781281 
L 480.991565 152.120058 
L 481.341409 152.27773 
L 482.041095 151.806116 
L 482.390938 152.353814 
L 482.740782 151.890548 
L 483.090625 152.196915 
L 483.440468 151.925702 
L 484.140155 151.948349 
L 484.839841 152.060363 
L 485.189685 152.072341 
L 485.889371 152.921489 
L 486.239214 152.333817 
L 486.589058 152.006672 
L 486.938901 152.520321 
L 487.288744 152.654111 
L 487.638587 152.500869 
L 487.988431 151.963768 
L 488.338274 151.764147 
L 488.688117 152.336932 
L 489.03796 151.989874 
L 489.737647 152.021301 
L 490.08749 152.29921 
L 490.437333 152.317879 
L 490.787177 152.627305 
L 491.486863 152.462779 
L 491.836707 152.18155 
L 492.18655 152.654229 
L 492.536393 152.367052 
L 492.886236 152.439632 
L 493.585923 152.247902 
L 493.935766 152.307977 
L 494.285609 152.507178 
L 494.635453 152.42275 
L 495.335139 152.686774 
L 495.684982 152.495383 
L 496.034826 152.551822 
L 496.384669 152.895301 
L 496.734512 152.279384 
L 497.084355 152.848113 
L 497.434199 152.753765 
L 497.784042 152.488698 
L 498.133885 152.949287 
L 498.483728 152.571899 
L 498.833572 152.693882 
L 499.183415 152.64935 
L 499.533258 152.353643 
L 499.883101 152.669361 
L 500.232945 152.368571 
L 500.582788 152.538901 
L 500.932631 152.843801 
L 501.282475 152.570692 
L 501.982161 152.54439 
L 502.332004 152.787501 
L 503.381534 152.488456 
L 504.431064 153.162053 
L 504.780907 152.986459 
L 505.13075 152.455687 
L 505.480594 153.06156 
L 505.830437 152.777063 
L 506.18028 152.756131 
L 506.530123 153.00796 
L 507.22981 152.882425 
L 507.579653 152.355673 
L 507.929496 152.493841 
L 508.629183 153.210481 
L 509.32887 153.058307 
L 510.028556 152.955914 
L 510.378399 152.74624 
L 511.078086 153.027155 
L 511.427929 152.504372 
L 511.777772 152.859766 
L 512.827302 153.041754 
L 513.177145 152.541584 
L 513.526989 152.417945 
L 513.876832 152.832131 
L 514.226675 152.925445 
L 514.576518 152.586765 
L 515.276205 153.048029 
L 515.626048 152.752645 
L 515.975891 152.626115 
L 516.675578 152.936892 
L 517.025421 152.683649 
L 517.375264 152.911091 
L 517.725108 152.363894 
L 518.074951 153.042916 
L 518.424794 152.990963 
L 518.774638 152.506209 
L 519.124481 152.774364 
L 519.474324 152.52135 
L 520.174011 152.919921 
L 520.523854 152.54567 
L 520.873697 152.87646 
L 521.22354 152.736383 
L 521.573384 153.032834 
L 521.923227 153.108853 
L 522.27307 152.820255 
L 522.972757 152.876966 
L 523.3226 153.321299 
L 523.672443 152.960797 
L 524.022286 152.98893 
L 524.37213 153.202848 
L 526.121346 152.827884 
L 526.471189 153.304688 
L 526.821033 153.046339 
L 527.170876 153.28803 
L 527.520719 153.168489 
L 527.870562 152.752113 
L 528.220406 153.269234 
L 528.570249 153.139193 
L 528.920092 152.812752 
L 529.969622 152.878505 
L 530.319465 153.041601 
L 530.669308 153.015541 
L 531.019152 153.262489 
L 531.718838 152.676142 
L 532.068681 153.009325 
L 532.418525 152.575587 
L 533.118211 152.872476 
L 533.468054 152.953163 
L 534.167741 152.705524 
L 534.517584 152.7006 
L 534.867428 153.317643 
L 535.217271 153.208254 
L 535.567114 152.574833 
L 535.916957 153.190572 
L 536.616644 153.272659 
L 537.666174 153.167297 
L 538.016017 153.395762 
L 538.36586 152.937887 
L 538.715703 153.385975 
L 539.765233 153.064183 
L 541.514449 153.346452 
L 541.864293 152.849626 
L 542.214136 153.348604 
L 542.563979 153.083616 
L 542.913822 153.063849 
L 543.963352 153.460508 
L 544.313196 153.094293 
L 544.663039 153.305938 
L 545.012882 153.136372 
L 545.712569 153.354174 
L 546.062412 153.002398 
L 546.412255 152.853821 
L 546.762098 153.119664 
L 547.461785 152.353978 
L 547.811628 152.973688 
L 548.161471 152.615818 
L 548.511315 152.885859 
L 549.211001 153.080894 
L 549.560844 152.475642 
L 550.260531 153.111158 
L 550.610374 152.834946 
L 550.960217 153.024378 
L 552.009747 153.287478 
L 552.359591 152.899149 
L 553.059277 152.909204 
L 553.40912 152.915387 
L 553.758964 153.399765 
L 554.108807 153.2647 
L 554.45865 152.885833 
L 554.808493 153.286273 
L 555.158337 152.630615 
L 555.50818 153.617197 
L 555.858023 153.268812 
L 556.207866 153.215023 
L 556.55771 153.590197 
L 556.907553 153.722517 
L 557.257396 152.92342 
L 557.607239 153.482382 
L 557.957083 152.757448 
L 558.306926 152.935928 
L 558.656769 153.25308 
L 559.706299 153.696591 
L 560.405986 154.158429 
L 560.755829 153.541019 
L 561.105672 153.952786 
L 561.805359 153.701989 
L 562.155202 153.335836 
L 562.505045 153.582743 
L 563.204732 153.377643 
L 563.904418 153.699386 
L 565.303791 153.434308 
L 565.653634 153.758098 
L 566.003478 153.542321 
L 567.053007 153.698703 
L 568.102537 153.253953 
L 568.45238 153.498585 
L 569.152067 153.51771 
L 569.50191 153.175226 
L 569.851754 153.628483 
L 570.901283 153.407202 
L 571.60097 153.625232 
L 572.300656 154.079353 
L 572.6505 153.52271 
L 573.000343 154.142258 
L 573.350186 153.775613 
L 574.049873 153.691069 
L 574.399716 153.250884 
L 574.749559 153.65295 
L 575.099402 153.240823 
L 575.449246 153.363758 
L 575.799089 153.665132 
L 576.498775 153.547324 
L 576.848619 153.727648 
L 577.198462 153.437601 
L 577.548305 153.591748 
L 577.898149 153.20177 
L 578.247992 153.62279 
L 578.597835 153.613591 
L 578.947678 153.297419 
L 579.297522 153.498631 
L 579.647365 153.269644 
L 579.997208 153.50599 
L 580.347051 153.039009 
L 580.696895 153.420922 
L 581.046738 153.227858 
L 581.396581 153.610846 
L 581.746424 153.223473 
L 582.096268 153.61341 
L 582.446111 153.395769 
L 582.795954 153.530347 
L 584.195327 153.527112 
L 584.895014 153.154881 
L 585.944543 152.945378 
L 586.294387 153.069234 
L 586.64423 152.895172 
L 586.994073 152.954893 
L 587.69376 153.231055 
L 588.043603 152.952159 
L 588.74329 152.711547 
L 589.442976 153.406709 
L 589.792819 153.080918 
L 590.142663 153.18338 
L 590.842349 153.677974 
L 591.542036 152.99729 
L 591.891879 153.279174 
L 592.241722 153.329818 
L 592.591565 153.070421 
L 592.941409 153.08816 
L 593.641095 153.589711 
L 593.990938 153.321398 
L 594.340782 153.503544 
L 594.690625 153.224771 
L 595.040468 153.148529 
L 595.390312 152.935954 
L 596.089998 152.90536 
L 596.439841 152.898195 
L 596.789685 153.30974 
L 597.839214 152.883784 
L 598.189058 153.524074 
L 598.538901 152.95302 
L 598.888744 153.130791 
L 599.238587 153.132953 
L 599.588431 152.785131 
L 599.938274 153.14254 
L 600.288117 152.821081 
L 600.63796 153.039831 
L 600.987804 152.69415 
L 601.337647 152.627309 
L 601.68749 153.250003 
L 602.037333 152.936387 
L 602.387177 152.939571 
L 602.73702 153.188603 
L 603.086863 152.91533 
L 603.436707 153.216382 
L 603.78655 152.989003 
L 604.486236 153.063867 
L 605.185923 153.033201 
L 605.885609 152.855591 
L 606.235453 153.06581 
L 606.935139 152.609432 
L 607.284982 152.722255 
L 607.634826 152.712911 
L 607.984669 152.263852 
L 608.334512 152.351952 
L 608.684355 152.726475 
L 609.384042 152.559372 
L 609.733885 152.80446 
L 610.083728 152.748245 
L 610.433572 152.450868 
L 610.783415 153.044907 
L 611.133258 152.88045 
L 611.483101 152.563451 
L 611.832945 152.538204 
L 612.182788 152.761004 
L 612.882475 152.56896 
L 613.232318 152.841062 
L 613.582161 152.781233 
L 614.281848 152.9799 
L 614.631691 152.620084 
L 615.331377 153.010949 
L 615.681221 152.620599 
L 616.031064 152.759768 
L 616.380907 152.341864 
L 616.73075 152.189816 
L 617.080594 152.232322 
L 617.430437 152.081882 
L 618.130123 152.523441 
L 618.479967 152.511256 
L 618.82981 152.850663 
L 619.179653 152.606638 
L 619.529496 153.012085 
L 620.229183 152.88128 
L 620.579026 152.959163 
L 620.92887 152.871557 
L 621.278713 152.470064 
L 621.628556 152.464329 
L 621.978399 152.338737 
L 622.678086 152.479379 
L 623.027929 152.213927 
L 623.377772 152.544605 
L 623.727616 152.586562 
L 624.077459 153.004439 
L 624.427302 152.78288 
L 624.777145 153.020857 
L 625.126989 152.941119 
L 625.126989 152.941119 
" clip-path="url(#pd338455d39)" style="fill: none; stroke: #1f77b4; stroke-width: 1.5; stroke-linecap: square"/>
   </g>
   <g id="line2d_13">
    <path d="M 117.854261 257.658289 
L 118.204105 262.165711 
L 118.553948 291.943205 
L 118.903791 296.03625 
L 119.603478 271.11781 
L 119.953321 227.057898 
L 120.303164 207.5709 
L 120.653007 203.182002 
L 121.002851 203.974264 
L 121.352694 211.845554 
L 122.05238 201.196422 
L 122.402224 195.910364 
L 122.752067 195.703205 
L 123.10191 192.753227 
L 123.451754 197.401453 
L 123.801597 172.184989 
L 124.15144 172.103903 
L 124.501283 169.627321 
L 124.851127 171.510379 
L 125.20097 166.488463 
L 125.550813 169.662831 
L 125.900656 167.766312 
L 126.2505 168.409239 
L 126.600343 168.391562 
L 126.950186 165.287616 
L 127.300029 166.881572 
L 127.649873 166.794035 
L 127.999716 165.094572 
L 128.349559 166.165148 
L 128.699402 165.451608 
L 129.049246 164.010929 
L 129.399089 163.25549 
L 129.748932 164.862355 
L 130.098775 163.978923 
L 130.448619 163.485609 
L 131.148305 161.702402 
L 131.498149 160.420844 
L 131.847992 164.815428 
L 132.197835 163.952454 
L 132.547678 162.432016 
L 132.897522 163.099974 
L 133.247365 162.512979 
L 133.597208 162.265303 
L 133.947051 163.58709 
L 134.296895 161.410305 
L 134.646738 162.710343 
L 134.996581 161.565435 
L 135.346424 161.16584 
L 135.696268 161.539059 
L 136.046111 162.557454 
L 136.395954 161.171452 
L 136.745797 161.384449 
L 137.095641 160.92679 
L 137.445484 160.831448 
L 138.14517 161.328739 
L 138.495014 161.196216 
L 138.844857 161.194354 
L 139.1947 161.482621 
L 139.544543 161.201429 
L 139.894387 159.7919 
L 140.24423 160.884693 
L 140.594073 160.064798 
L 140.943917 160.550759 
L 141.29376 162.077185 
L 141.643603 163.054654 
L 141.993446 160.376997 
L 142.34329 163.420413 
L 142.693133 160.81798 
L 143.042976 160.706714 
L 143.742663 162.97898 
L 144.092506 161.428681 
L 144.442349 160.805188 
L 145.142036 160.193846 
L 145.841722 162.631121 
L 146.541409 159.442412 
L 146.891252 161.834268 
L 147.241095 161.591212 
L 147.590938 160.94865 
L 147.940782 161.58259 
L 148.290625 161.661909 
L 148.640468 162.60633 
L 149.340155 161.360388 
L 150.039841 161.703732 
L 150.389685 160.981433 
L 151.089371 161.378065 
L 151.789058 159.80897 
L 152.838587 161.088266 
L 153.538274 161.389012 
L 153.888117 160.004467 
L 154.23796 161.423814 
L 154.587804 161.588497 
L 154.937647 160.70362 
L 155.28749 161.311015 
L 155.637333 162.288528 
L 155.987177 161.574032 
L 156.33702 162.933584 
L 156.686863 162.761098 
L 157.036707 161.823109 
L 157.38655 163.255695 
L 157.736393 162.48772 
L 158.086236 162.510713 
L 158.43608 162.845991 
L 158.785923 162.220304 
L 159.135766 162.518876 
L 159.835453 164.100062 
L 160.185296 161.71733 
L 160.535139 160.953926 
L 160.884982 162.188098 
L 161.584669 161.382858 
L 161.934512 162.157181 
L 162.284355 162.385889 
L 162.634199 160.804717 
L 162.984042 161.59229 
L 163.333885 161.478432 
L 163.683728 161.686822 
L 164.033572 162.509587 
L 164.383415 161.135064 
L 164.733258 161.60804 
L 165.432945 163.370876 
L 165.782788 161.109782 
L 166.132631 153.752785 
L 166.482475 154.884893 
L 166.832318 154.642952 
L 167.182161 156.15602 
L 167.532004 156.257159 
L 167.881848 154.933457 
L 168.231691 156.047679 
L 168.581534 156.254787 
L 168.931377 157.181505 
L 169.281221 156.53724 
L 169.631064 156.437924 
L 169.980907 156.791371 
L 170.33075 156.526013 
L 170.680594 156.899174 
L 171.030437 156.612682 
L 171.38028 155.971204 
L 171.730123 156.374247 
L 172.42981 156.676973 
L 172.779653 156.380954 
L 173.129496 156.744293 
L 173.47934 156.508302 
L 174.179026 156.742195 
L 174.52887 156.015266 
L 174.878713 156.667905 
L 175.578399 156.571618 
L 175.928243 156.876875 
L 176.278086 157.011189 
L 176.977772 156.562438 
L 177.327616 157.11912 
L 177.677459 157.288222 
L 178.027302 156.918805 
L 178.377145 156.340906 
L 178.726989 157.068537 
L 179.076832 156.310565 
L 179.776518 155.798621 
L 180.126362 156.372213 
L 180.476205 156.620934 
L 181.175891 155.934658 
L 181.525735 155.997717 
L 181.875578 156.237635 
L 182.225421 156.252845 
L 182.575264 155.534283 
L 182.925108 156.106492 
L 183.274951 155.971055 
L 183.624794 155.262929 
L 183.974638 155.565248 
L 184.324481 155.523103 
L 184.674324 155.801346 
L 185.024167 156.566333 
L 185.374011 156.216639 
L 185.723854 156.133157 
L 186.073697 155.391582 
L 186.42354 155.66232 
L 186.773384 156.145638 
L 187.123227 155.672539 
L 187.47307 155.874484 
L 187.822913 155.743108 
L 188.172757 156.238413 
L 188.5226 155.989438 
L 189.222286 156.440338 
L 189.921973 155.672807 
L 190.271816 155.631246 
L 190.621659 155.827528 
L 190.971503 156.184732 
L 191.321346 155.693904 
L 191.671189 156.168457 
L 192.021033 156.299126 
L 192.370876 155.762169 
L 193.070562 156.752607 
L 193.420406 155.909613 
L 193.770249 156.437744 
L 194.469935 156.503263 
L 194.819779 156.287067 
L 195.169622 156.348738 
L 195.519465 156.141802 
L 195.869308 156.48928 
L 196.219152 155.958175 
L 196.568995 155.93672 
L 196.918838 156.125692 
L 197.268681 156.556642 
L 197.618525 156.08584 
L 197.968368 155.853602 
L 198.318211 156.224566 
L 199.017898 155.977781 
L 199.367741 156.594103 
L 199.717584 155.667991 
L 200.417271 156.37959 
L 200.767114 156.129236 
L 201.116957 156.608581 
L 201.466801 155.852199 
L 201.816644 155.933841 
L 202.166487 155.823862 
L 202.51633 156.261902 
L 202.866174 156.217012 
L 203.216017 156.433896 
L 203.56586 156.219792 
L 203.915703 156.336659 
L 204.265547 156.096349 
L 204.61539 156.14078 
L 204.965233 156.421176 
L 206.014763 156.095558 
L 206.364606 157.212045 
L 206.714449 156.587763 
L 207.064293 156.30008 
L 207.414136 156.348145 
L 207.763979 156.214621 
L 208.113822 156.433314 
L 208.463666 156.347303 
L 209.163352 156.730407 
L 209.513196 156.311451 
L 209.863039 156.422137 
L 210.212882 156.363393 
L 210.562725 156.605773 
L 211.962098 156.104843 
L 212.311942 156.384421 
L 212.661785 156.488825 
L 213.011628 156.398473 
L 213.361471 156.77701 
L 214.061158 156.438086 
L 214.411001 156.575574 
L 214.760844 156.895077 
L 215.110688 156.586644 
L 215.460531 156.758388 
L 215.810374 156.656062 
L 216.160217 156.965966 
L 216.859904 156.474212 
L 217.209747 156.979237 
L 218.259277 156.78095 
L 218.60912 157.101613 
L 219.308807 156.551084 
L 220.008493 157.098151 
L 220.358337 156.494078 
L 220.70818 156.470489 
L 221.058023 156.88698 
L 221.407866 156.736063 
L 221.75771 156.7347 
L 222.107553 157.464837 
L 222.457396 157.245992 
L 222.807239 156.862099 
L 223.157083 156.935837 
L 223.506926 156.769388 
L 223.856769 157.033425 
L 224.206612 156.931994 
L 224.906299 157.300986 
L 225.256142 156.96563 
L 225.605986 157.144787 
L 226.305672 156.797355 
L 226.655515 157.022033 
L 227.005359 156.650283 
L 227.355202 156.643316 
L 227.705045 157.060201 
L 228.054888 156.635579 
L 228.754575 156.742267 
L 229.454261 156.37065 
L 229.804105 156.805563 
L 230.153948 157.010789 
L 230.503791 156.41239 
L 230.853634 156.30752 
L 231.203478 156.518043 
L 231.553321 154.394413 
L 231.903164 153.868807 
L 232.253007 154.745371 
L 232.602851 154.964107 
L 232.952694 155.882272 
L 234.002224 155.2932 
L 234.70191 155.89478 
L 235.051754 155.705633 
L 235.401597 155.735094 
L 235.75144 156.291481 
L 236.451127 155.58715 
L 236.80097 155.645655 
L 237.150813 153.043477 
L 237.500656 154.084499 
L 237.8505 154.435394 
L 238.200343 154.271206 
L 238.550186 154.535556 
L 238.900029 155.139117 
L 239.249873 154.806182 
L 239.599716 155.013079 
L 239.949559 154.635972 
L 240.299402 155.060609 
L 240.649246 155.242783 
L 240.999089 154.710172 
L 241.348932 155.23496 
L 242.398462 154.912978 
L 242.748305 154.600437 
L 243.098149 154.867425 
L 243.447992 154.496443 
L 243.797835 155.003689 
L 244.497522 155.096093 
L 244.847365 154.993173 
L 245.197208 155.095595 
L 245.547051 155.423929 
L 246.596581 155.077029 
L 246.946424 155.272574 
L 247.296268 154.511676 
L 247.646111 155.031347 
L 247.995954 155.333706 
L 248.345797 155.833112 
L 248.695641 155.491651 
L 249.395327 155.26391 
L 249.74517 155.533926 
L 250.095014 155.532608 
L 250.444857 155.347737 
L 250.7947 155.905205 
L 251.494387 155.375726 
L 251.84423 155.269938 
L 252.194073 155.835803 
L 252.89376 155.153243 
L 253.94329 155.751553 
L 254.642976 155.403771 
L 254.992819 155.480373 
L 255.342663 155.800394 
L 255.692506 155.63988 
L 256.042349 156.279948 
L 256.392192 155.760215 
L 257.091879 155.431543 
L 258.141409 155.709706 
L 258.491252 155.219692 
L 258.841095 155.442174 
L 259.190938 155.890347 
L 259.890625 156.019055 
L 260.240468 155.491745 
L 261.289998 155.350416 
L 261.639841 155.346429 
L 261.989685 155.665712 
L 262.339528 155.630159 
L 262.689371 156.297099 
L 263.389058 154.636774 
L 263.738901 155.540049 
L 264.438587 155.596634 
L 264.788431 155.315462 
L 265.138274 155.58118 
L 265.488117 154.986037 
L 266.537647 155.552048 
L 267.93702 155.310278 
L 268.286863 155.408083 
L 268.636707 155.196475 
L 268.98655 155.538965 
L 269.336393 155.442706 
L 269.686236 155.091318 
L 270.03608 153.608385 
L 270.735766 154.714612 
L 271.085609 154.891346 
L 271.435453 154.903836 
L 271.785296 154.621878 
L 272.135139 155.658852 
L 272.484982 155.249258 
L 272.834826 155.713823 
L 273.184669 155.021825 
L 273.884355 155.150075 
L 274.234199 155.154992 
L 274.584042 155.317545 
L 274.933885 155.151199 
L 275.283728 155.264146 
L 275.633572 155.587818 
L 277.032945 155.074538 
L 277.382788 155.645964 
L 277.732631 155.841646 
L 278.432318 155.051135 
L 278.782161 155.565542 
L 279.132004 155.17962 
L 279.481848 155.260668 
L 279.831691 155.475398 
L 280.181534 155.165695 
L 280.531377 155.24334 
L 280.881221 155.072499 
L 281.231064 155.269896 
L 281.580907 154.818812 
L 281.93075 155.188621 
L 282.280594 155.108289 
L 282.630437 154.669359 
L 282.98028 155.152197 
L 283.330123 155.156871 
L 283.679967 154.848813 
L 284.02981 155.390366 
L 284.379653 155.278702 
L 284.729496 155.436354 
L 285.07934 155.245938 
L 285.429183 155.244318 
L 285.779026 154.974139 
L 286.12887 155.382234 
L 286.478713 155.004301 
L 286.828556 154.988872 
L 287.178399 155.262399 
L 287.878086 155.096087 
L 288.227929 154.837695 
L 288.927616 155.423065 
L 289.277459 155.028617 
L 289.627302 155.512282 
L 289.977145 155.296887 
L 290.326989 155.225788 
L 290.676832 154.743231 
L 291.026675 155.366563 
L 291.726362 155.130873 
L 292.076205 154.707484 
L 292.426048 154.986333 
L 293.125735 154.818989 
L 293.475578 155.046058 
L 293.825421 154.702934 
L 294.525108 155.039919 
L 294.874951 154.975369 
L 295.224794 155.334182 
L 295.574638 154.849228 
L 295.924481 155.037184 
L 296.274324 154.970428 
L 296.624167 155.284791 
L 296.974011 154.96514 
L 297.323854 155.305088 
L 297.673697 154.640369 
L 298.02354 155.181552 
L 299.07307 155.488724 
L 299.422913 154.730194 
L 300.472443 154.930242 
L 300.822286 155.111416 
L 301.17213 155.045237 
L 301.521973 155.248884 
L 301.871816 154.713462 
L 302.221659 154.878149 
L 302.571503 155.207209 
L 302.921346 154.545471 
L 303.621033 155.620813 
L 303.970876 155.274956 
L 304.320719 155.497977 
L 304.670562 155.070469 
L 305.020406 155.350361 
L 305.370249 154.947572 
L 305.720092 155.52839 
L 306.069935 155.107947 
L 306.419779 155.580213 
L 306.769622 155.139409 
L 307.119465 155.178293 
L 307.469308 155.381478 
L 307.819152 155.187845 
L 308.168995 155.494437 
L 308.518838 155.217882 
L 308.868681 155.285562 
L 309.218525 155.031702 
L 309.568368 155.296398 
L 309.918211 154.910107 
L 310.268054 155.275375 
L 310.617898 155.15732 
L 310.967741 155.31056 
L 311.667428 155.333147 
L 312.367114 154.904764 
L 312.716957 155.58039 
L 313.416644 155.156327 
L 313.766487 155.373803 
L 314.11633 155.249042 
L 314.466174 155.254083 
L 314.816017 155.55925 
L 315.16586 155.219763 
L 315.515703 155.562492 
L 315.865547 155.304436 
L 317.26492 155.284766 
L 317.964606 155.369909 
L 318.664293 155.254357 
L 319.014136 155.33416 
L 319.363979 155.032186 
L 320.063666 155.323129 
L 320.413509 155.204486 
L 320.763352 155.311507 
L 321.113196 155.125744 
L 322.162725 155.663483 
L 322.512569 155.077817 
L 322.862412 154.902083 
L 323.212255 155.02242 
L 323.562098 155.328052 
L 324.611628 155.428283 
L 324.961471 155.442195 
L 325.311315 155.699922 
L 326.360844 155.499555 
L 326.710688 155.280517 
L 327.410374 155.843515 
L 327.760217 154.460927 
L 328.110061 155.107892 
L 329.859277 155.057375 
L 330.20912 155.366999 
L 330.558964 155.084903 
L 330.908807 153.80868 
L 331.25865 154.421182 
L 331.608493 154.517176 
L 331.958337 154.371533 
L 332.30818 155.156259 
L 333.007866 155.151924 
L 333.35771 154.886121 
L 333.707553 155.168401 
L 334.057396 151.549215 
L 334.407239 153.671801 
L 334.757083 154.210377 
L 335.106926 153.137968 
L 335.456769 153.212823 
L 335.806612 153.538874 
L 336.156456 153.63788 
L 336.506299 153.866057 
L 336.856142 153.574882 
L 337.205986 153.807505 
L 337.555829 153.786339 
L 337.905672 153.559401 
L 338.255515 154.12274 
L 338.605359 153.933107 
L 338.955202 154.043313 
L 339.305045 153.748751 
L 339.654888 154.127582 
L 340.004732 154.275268 
L 340.354575 153.823059 
L 340.704418 153.913277 
L 341.054261 154.303842 
L 341.404105 154.969832 
L 341.753948 153.886911 
L 342.103791 153.764402 
L 342.803478 154.095029 
L 343.153321 153.892431 
L 343.503164 154.085215 
L 343.853007 153.970061 
L 344.202851 154.195834 
L 344.552694 154.003589 
L 344.902537 154.439732 
L 345.25238 154.185034 
L 345.602224 154.274745 
L 345.952067 154.164723 
L 346.30191 154.349258 
L 346.651754 154.215334 
L 347.001597 153.931444 
L 348.051127 154.356585 
L 348.40097 154.372823 
L 348.750813 154.028425 
L 349.100656 154.139414 
L 349.4505 154.375035 
L 350.150186 154.007671 
L 350.500029 154.379753 
L 350.849873 154.30798 
L 351.199716 153.920567 
L 351.549559 154.074949 
L 351.899402 154.48548 
L 352.249246 154.264881 
L 352.599089 154.224904 
L 352.948932 154.30137 
L 353.298775 153.986259 
L 354.348305 154.153079 
L 354.698149 154.133734 
L 355.047992 154.287122 
L 356.097522 154.271796 
L 356.447365 153.937811 
L 357.147051 154.089754 
L 357.496895 154.338696 
L 357.846738 153.865401 
L 358.196581 153.971171 
L 358.546424 153.877875 
L 359.945797 154.158169 
L 360.645484 153.920859 
L 360.995327 154.317894 
L 361.34517 154.224999 
L 361.695014 154.446094 
L 362.3947 154.076167 
L 363.094387 154.223886 
L 363.44423 153.940132 
L 363.794073 154.107708 
L 364.843603 154.023793 
L 365.54329 154.114796 
L 365.893133 153.951738 
L 366.242976 154.329505 
L 366.592819 154.126174 
L 367.642349 154.319701 
L 367.992192 154.315378 
L 368.342036 154.621295 
L 369.041722 153.964944 
L 369.741409 154.028827 
L 370.091252 154.227184 
L 371.840468 154.378203 
L 372.190312 154.049099 
L 372.540155 153.978356 
L 372.889998 154.58294 
L 373.239841 154.206178 
L 373.589685 154.275986 
L 373.939528 154.143732 
L 374.639214 154.376685 
L 374.989058 154.080599 
L 375.338901 154.252721 
L 376.038587 154.154387 
L 376.388431 153.922477 
L 376.738274 154.097532 
L 377.088117 154.597194 
L 377.43796 153.976399 
L 377.787804 154.136974 
L 378.137647 153.96186 
L 378.48749 154.141673 
L 378.837333 154.478791 
L 379.187177 154.129619 
L 379.886863 153.999698 
L 380.236707 154.097529 
L 380.58655 154.352394 
L 380.936393 154.116491 
L 381.985923 154.07981 
L 382.335766 154.264089 
L 382.685609 154.060622 
L 383.035453 154.013722 
L 383.385296 154.207735 
L 383.735139 153.979308 
L 384.084982 154.218602 
L 384.784669 154.080605 
L 385.134512 154.243596 
L 385.484355 153.864804 
L 386.883728 153.877679 
L 387.233572 153.959656 
L 387.583415 153.795453 
L 387.933258 153.773476 
L 388.283101 154.186488 
L 388.982788 153.700009 
L 389.682475 154.06566 
L 390.032318 153.754328 
L 390.382161 154.287848 
L 391.431691 153.849293 
L 392.131377 153.528761 
L 392.481221 153.87291 
L 392.831064 153.786487 
L 393.180907 153.579352 
L 393.53075 153.644116 
L 393.880594 153.925112 
L 394.230437 153.711868 
L 394.58028 153.664731 
L 395.279967 153.907606 
L 395.62981 153.79868 
L 395.979653 154.055372 
L 396.67934 153.587292 
L 397.029183 153.925825 
L 397.379026 153.770486 
L 397.72887 153.886633 
L 398.078713 153.472232 
L 398.428556 154.056653 
L 398.778399 153.617917 
L 399.128243 153.571063 
L 399.827929 153.9403 
L 400.177772 153.841082 
L 400.877459 154.012851 
L 401.577145 153.814185 
L 401.926989 153.871481 
L 402.276832 153.812954 
L 402.626675 154.077296 
L 402.976518 153.678675 
L 403.326362 153.96379 
L 403.676205 153.987649 
L 404.026048 153.71852 
L 404.375891 153.826589 
L 404.725735 154.332645 
L 405.075578 153.935132 
L 405.425421 154.064574 
L 405.775264 153.981866 
L 406.474951 154.219335 
L 406.824794 154.053844 
L 408.224167 154.018075 
L 408.574011 153.842495 
L 408.923854 154.030466 
L 409.62354 154.052931 
L 409.973384 153.843973 
L 410.67307 153.90353 
L 411.022913 153.818086 
L 411.372757 154.2799 
L 412.072443 153.933575 
L 412.422286 154.300037 
L 412.77213 153.893896 
L 413.471816 154.058179 
L 413.821659 153.92214 
L 414.171503 154.22361 
L 414.521346 153.862036 
L 414.871189 153.693224 
L 415.221033 153.719976 
L 415.570876 153.987266 
L 415.920719 154.112372 
L 416.270562 153.760369 
L 416.620406 153.934932 
L 416.970249 153.758076 
L 417.320092 154.126527 
L 418.019779 153.698017 
L 419.069308 153.836213 
L 419.419152 153.927989 
L 419.768995 154.164977 
L 420.118838 154.133394 
L 420.468681 153.938669 
L 421.168368 154.558286 
L 421.518211 154.414128 
L 421.868054 154.028473 
L 422.217898 154.414489 
L 422.567741 154.491601 
L 422.917584 154.373761 
L 423.267428 153.969343 
L 423.617271 154.198198 
L 423.967114 153.895323 
L 424.316957 153.924063 
L 424.666801 154.150303 
L 425.71633 153.796347 
L 426.066174 153.902566 
L 426.416017 153.840236 
L 426.76586 154.118608 
L 427.115703 153.73167 
L 427.465547 153.699172 
L 428.515076 154.417767 
L 428.86492 153.697973 
L 429.214763 154.16362 
L 429.564606 153.967527 
L 429.914449 154.424971 
L 430.264293 154.075927 
L 430.614136 153.943741 
L 430.963979 154.111361 
L 431.313822 154.029278 
L 431.663666 154.3959 
L 432.013509 154.279221 
L 432.363352 153.731126 
L 432.713196 153.933458 
L 433.063039 153.759584 
L 433.412882 154.252961 
L 434.462412 154.214123 
L 434.812255 153.817382 
L 435.162098 153.954916 
L 435.511942 153.954131 
L 435.861785 154.139536 
L 436.211628 153.998398 
L 436.561471 154.01198 
L 436.911315 153.770395 
L 437.261158 153.984374 
L 437.611001 153.803639 
L 437.960844 153.896815 
L 438.310688 154.327526 
L 439.010374 154.01714 
L 439.360217 154.148716 
L 439.710061 154.020145 
L 440.059904 153.737345 
L 441.109434 154.160656 
L 441.459277 154.289256 
L 441.80912 154.099192 
L 442.508807 154.258271 
L 442.85865 154.43969 
L 443.208493 154.466777 
L 443.558337 154.188428 
L 443.90818 154.177265 
L 444.258023 153.911907 
L 444.607866 154.21176 
L 444.95771 153.868858 
L 445.657396 153.936139 
L 446.007239 153.989305 
L 446.357083 153.910832 
L 446.706926 154.05375 
L 447.056769 154.331082 
L 447.406612 154.389428 
L 447.756456 153.938845 
L 448.456142 154.264901 
L 448.805986 154.185355 
L 449.155829 153.866401 
L 449.505672 154.115681 
L 450.205359 154.051252 
L 450.905045 154.501722 
L 451.254888 154.195006 
L 451.604732 154.12441 
L 451.954575 154.291247 
L 452.304418 154.21853 
L 452.654261 154.024233 
L 453.004105 154.026906 
L 453.703791 154.571016 
L 454.753321 154.264473 
L 455.103164 153.853914 
L 455.453007 154.087683 
L 455.802851 154.514502 
L 456.152694 154.336722 
L 456.502537 153.90356 
L 457.202224 154.311913 
L 457.552067 154.234345 
L 457.90191 154.378542 
L 458.251754 154.14663 
L 458.601597 154.348093 
L 458.95144 154.146855 
L 459.301283 154.325467 
L 459.651127 154.251309 
L 460.00097 154.003232 
L 461.400343 154.103678 
L 461.750186 153.875189 
L 462.449873 154.247452 
L 462.799716 153.897624 
L 463.849246 153.909604 
L 464.199089 154.191593 
L 465.248619 154.095129 
L 465.598462 154.1144 
L 465.948305 153.94871 
L 466.997835 154.296575 
L 467.347678 154.075555 
L 467.697522 154.44911 
L 468.047365 154.356132 
L 468.397208 154.41537 
L 468.747051 154.055603 
L 469.446738 154.100535 
L 469.796581 154.232757 
L 470.146424 154.118349 
L 470.496268 154.138495 
L 470.846111 154.328127 
L 471.195954 153.934045 
L 471.545797 154.232494 
L 471.895641 154.254489 
L 472.245484 154.447165 
L 472.595327 154.444631 
L 472.94517 154.209224 
L 473.644857 154.089822 
L 473.9947 154.288049 
L 475.04423 154.007912 
L 475.743917 153.948876 
L 476.09376 154.078815 
L 476.793446 153.885951 
L 477.14329 154.219233 
L 477.493133 154.203418 
L 477.842976 154.057217 
L 478.192819 154.410819 
L 478.542663 154.129415 
L 478.892506 154.002355 
L 479.242349 154.37376 
L 479.942036 154.106879 
L 480.291879 154.135913 
L 480.991565 154.319537 
L 482.041095 154.079798 
L 482.390938 154.40421 
L 482.740782 154.117763 
L 483.440468 154.195802 
L 484.489998 154.320393 
L 484.839841 154.110944 
L 485.189685 154.164353 
L 485.539528 154.637807 
L 485.889371 154.313117 
L 486.239214 154.253446 
L 486.938901 154.433177 
L 487.288744 154.015535 
L 487.638587 154.215634 
L 488.338274 153.984831 
L 488.688117 154.11794 
L 489.387804 154.046193 
L 490.787177 154.157147 
L 491.13702 154.329375 
L 491.486863 154.29765 
L 492.536393 153.914481 
L 492.886236 154.236359 
L 493.23608 154.010467 
L 493.935766 153.943755 
L 494.285609 153.53262 
L 494.635453 154.056023 
L 496.384669 153.909032 
L 496.734512 154.2921 
L 497.084355 153.614156 
L 497.784042 154.203688 
L 499.533258 153.864617 
L 500.232945 153.818541 
L 500.582788 153.670539 
L 500.932631 154.022802 
L 501.982161 153.789161 
L 503.731377 153.978781 
L 504.081221 154.234708 
L 505.13075 154.044837 
L 505.480594 153.792993 
L 505.830437 153.755277 
L 506.18028 154.069154 
L 506.530123 154.220482 
L 506.879967 154.110407 
L 507.22981 153.783916 
L 507.579653 154.313478 
L 507.929496 153.969518 
L 508.27934 153.849672 
L 508.979026 154.113797 
L 509.32887 154.137897 
L 509.678713 153.850286 
L 510.028556 153.730601 
L 510.378399 154.258245 
L 510.728243 153.954271 
L 511.427929 153.740594 
L 511.777772 154.018024 
L 512.477459 153.926222 
L 512.827302 154.145229 
L 513.177145 153.997193 
L 513.526989 154.056473 
L 513.876832 153.86292 
L 514.226675 153.804752 
L 514.576518 154.092211 
L 514.926362 153.919203 
L 515.276205 154.010276 
L 515.975891 153.727286 
L 517.025421 153.840228 
L 517.375264 153.856192 
L 517.725108 153.619472 
L 518.074951 153.731829 
L 518.424794 153.699567 
L 518.774638 153.889863 
L 519.124481 153.784353 
L 519.474324 153.988048 
L 519.824167 153.608502 
L 520.523854 153.756962 
L 520.873697 153.648117 
L 521.22354 153.751202 
L 521.573384 154.048419 
L 521.923227 153.988363 
L 522.27307 153.535162 
L 523.3226 154.299353 
L 524.022286 153.766523 
L 524.37213 153.960111 
L 525.071816 153.809754 
L 525.421659 153.74915 
L 525.771503 153.937067 
L 526.121346 153.740406 
L 526.471189 153.839032 
L 526.821033 153.580448 
L 527.170876 153.682983 
L 527.520719 153.506394 
L 528.220406 153.783745 
L 528.570249 153.71797 
L 528.920092 153.786397 
L 529.269935 153.68383 
L 529.619779 153.854369 
L 529.969622 153.811334 
L 530.319465 153.571192 
L 531.019152 153.444142 
L 531.368995 153.585643 
L 531.718838 153.55147 
L 532.068681 153.852637 
L 532.418525 153.444372 
L 533.118211 153.799378 
L 533.468054 153.435373 
L 533.817898 153.565787 
L 534.167741 153.909216 
L 534.517584 153.591031 
L 534.867428 153.713839 
L 535.217271 153.515405 
L 535.567114 153.796574 
L 536.966487 153.78357 
L 537.31633 153.486434 
L 538.016017 153.660724 
L 538.36586 153.465208 
L 538.715703 153.628123 
L 539.065547 153.525158 
L 539.41539 153.30624 
L 540.46492 153.437859 
L 540.814763 153.333022 
L 541.164606 153.601678 
L 541.864293 153.52113 
L 542.214136 153.540977 
L 542.563979 153.705811 
L 542.913822 153.506279 
L 543.263666 153.50767 
L 543.613509 153.394018 
L 543.963352 153.543582 
L 544.313196 153.396164 
L 545.012882 153.654618 
L 545.362725 153.638947 
L 545.712569 153.442629 
L 546.062412 153.612165 
L 546.412255 153.610306 
L 546.762098 153.750076 
L 547.111942 153.548167 
L 547.461785 153.495158 
L 547.811628 153.768391 
L 548.161471 153.635529 
L 548.861158 153.811356 
L 549.211001 153.571337 
L 549.560844 153.866926 
L 550.260531 153.612034 
L 550.610374 153.726404 
L 551.659904 153.642421 
L 552.359591 154.113019 
L 553.059277 153.752669 
L 553.40912 153.838809 
L 554.45865 153.70945 
L 555.158337 153.669421 
L 555.858023 153.643659 
L 556.207866 153.898688 
L 556.55771 153.619783 
L 557.257396 153.466474 
L 557.957083 153.827922 
L 558.306926 153.595058 
L 558.656769 153.638498 
L 559.006612 154.161071 
L 559.706299 153.911531 
L 560.056142 154.08234 
L 560.405986 153.722731 
L 561.455515 153.607553 
L 561.805359 153.951289 
L 562.505045 153.64361 
L 563.904418 153.947013 
L 564.604105 153.779647 
L 565.653634 153.916043 
L 566.003478 153.627443 
L 566.353321 153.815472 
L 566.703164 153.644593 
L 567.053007 153.704829 
L 567.402851 153.644729 
L 567.752694 153.784662 
L 568.102537 153.728161 
L 568.45238 153.813443 
L 568.802224 153.633944 
L 569.152067 153.934501 
L 569.50191 153.98363 
L 570.201597 153.604701 
L 570.55144 153.893512 
L 570.901283 153.675376 
L 571.60097 153.61956 
L 572.300656 153.661399 
L 572.6505 153.682053 
L 573.000343 153.895038 
L 573.350186 153.692404 
L 573.700029 153.69523 
L 574.049873 153.877967 
L 575.099402 153.783067 
L 575.799089 153.451278 
L 576.148932 153.740433 
L 576.498775 153.593752 
L 576.848619 153.708738 
L 577.898149 153.589259 
L 578.597835 153.892645 
L 578.947678 153.701044 
L 579.997208 154.094306 
L 580.347051 153.783035 
L 580.696895 153.631876 
L 581.046738 153.821865 
L 581.396581 153.53313 
L 581.746424 153.837683 
L 582.096268 153.709512 
L 582.446111 153.976963 
L 582.795954 153.524268 
L 583.145797 153.851789 
L 583.845484 153.893796 
L 584.195327 153.564461 
L 584.54517 153.934477 
L 584.895014 153.87539 
L 585.244857 153.521523 
L 585.5947 153.617314 
L 586.294387 153.522105 
L 586.64423 153.570153 
L 586.994073 153.749106 
L 587.343917 153.732442 
L 587.69376 153.539779 
L 588.043603 153.519816 
L 588.393446 153.763688 
L 588.74329 153.385901 
L 589.093133 153.254838 
L 589.442976 153.64038 
L 589.792819 153.767238 
L 590.142663 153.311902 
L 591.192192 153.773653 
L 591.542036 153.54239 
L 591.891879 153.774382 
L 592.241722 153.551954 
L 592.591565 153.577954 
L 592.941409 153.823898 
L 593.291252 153.573428 
L 594.340782 153.566822 
L 594.690625 153.409663 
L 595.040468 153.558861 
L 595.740155 153.467655 
L 596.089998 153.786692 
L 596.789685 153.819304 
L 597.139528 153.526983 
L 597.489371 153.661894 
L 597.839214 153.626087 
L 598.189058 153.99085 
L 598.538901 153.611746 
L 598.888744 153.841844 
L 599.238587 153.630269 
L 599.588431 153.58926 
L 599.938274 153.714092 
L 600.288117 153.662656 
L 600.63796 153.788584 
L 600.987804 153.663854 
L 601.337647 153.927436 
L 601.68749 153.608622 
L 602.037333 153.84961 
L 602.387177 153.620663 
L 603.086863 153.708176 
L 603.436707 153.674792 
L 603.78655 153.822119 
L 604.136393 153.563004 
L 604.486236 153.67597 
L 605.885609 153.310989 
L 606.235453 153.617095 
L 606.585296 153.34086 
L 606.935139 153.515964 
L 607.984669 153.527073 
L 608.334512 153.295187 
L 608.684355 153.495705 
L 609.034199 153.364802 
L 610.083728 153.577266 
L 610.433572 153.386816 
L 610.783415 153.789625 
L 611.133258 153.215657 
L 611.483101 153.456652 
L 612.882475 153.732618 
L 613.232318 153.570805 
L 613.582161 153.745731 
L 613.932004 153.553034 
L 614.281848 153.72733 
L 614.631691 153.443527 
L 615.681221 153.486646 
L 616.031064 153.633082 
L 617.430437 153.150589 
L 618.130123 153.33821 
L 618.82981 153.441042 
L 619.179653 153.12213 
L 619.529496 153.298495 
L 620.92887 153.394502 
L 621.628556 153.123854 
L 621.978399 153.29572 
L 622.328243 153.259546 
L 622.678086 153.414328 
L 623.027929 153.169864 
L 623.377772 153.589313 
L 623.727616 153.310722 
L 625.126989 153.074632 
L 625.126989 153.074632 
" clip-path="url(#pd338455d39)" style="fill: none; stroke: #ff7f0e; stroke-width: 1.5; stroke-linecap: square"/>
   </g>
   <g id="patch_3">
    <path d="M 92.490625 308.63625 
L 92.490625 31.43625 
" style="fill: none; stroke: #000000; stroke-width: 0.8; stroke-linejoin: miter; stroke-linecap: square"/>
   </g>
   <g id="patch_4">
    <path d="M 650.490625 308.63625 
L 650.490625 31.43625 
" style="fill: none; stroke: #000000; stroke-width: 0.8; stroke-linejoin: miter; stroke-linecap: square"/>
   </g>
   <g id="patch_5">
    <path d="M 92.490625 308.63625 
L 650.490625 308.63625 
" style="fill: none; stroke: #000000; stroke-width: 0.8; stroke-linejoin: miter; stroke-linecap: square"/>
   </g>
   <g id="patch_6">
    <path d="M 92.490625 31.43625 
L 650.490625 31.43625 
" style="fill: none; stroke: #000000; stroke-width: 0.8; stroke-linejoin: miter; stroke-linecap: square"/>
   </g>
   <g id="text_14">
    <!-- Generator and Discriminator Loss During Training -->
    <g transform="translate(74.258125 25.43625) scale(0.24 -0.24)">
     <defs>
      <path id="DejaVuSans-47" d="M 3809 666 
L 3809 1919 
L 2778 1919 
L 2778 2438 
L 4434 2438 
L 4434 434 
Q 4069 175 3628 42 
Q 3188 -91 2688 -91 
Q 1594 -91 976 548 
Q 359 1188 359 2328 
Q 359 3472 976 4111 
Q 1594 4750 2688 4750 
Q 3144 4750 3555 4637 
Q 3966 4525 4313 4306 
L 4313 3634 
Q 3963 3931 3569 4081 
Q 3175 4231 2741 4231 
Q 1884 4231 1454 3753 
Q 1025 3275 1025 2328 
Q 1025 1384 1454 906 
Q 1884 428 2741 428 
Q 3075 428 3337 486 
Q 3600 544 3809 666 
z
" transform="scale(0.015625)"/>
      <path id="DejaVuSans-20" transform="scale(0.015625)"/>
      <path id="DejaVuSans-64" d="M 2906 2969 
L 2906 4863 
L 3481 4863 
L 3481 0 
L 2906 0 
L 2906 525 
Q 2725 213 2448 61 
Q 2172 -91 1784 -91 
Q 1150 -91 751 415 
Q 353 922 353 1747 
Q 353 2572 751 3078 
Q 1150 3584 1784 3584 
Q 2172 3584 2448 3432 
Q 2725 3281 2906 2969 
z
M 947 1747 
Q 947 1113 1208 752 
Q 1469 391 1925 391 
Q 2381 391 2643 752 
Q 2906 1113 2906 1747 
Q 2906 2381 2643 2742 
Q 2381 3103 1925 3103 
Q 1469 3103 1208 2742 
Q 947 2381 947 1747 
z
" transform="scale(0.015625)"/>
      <path id="DejaVuSans-44" d="M 1259 4147 
L 1259 519 
L 2022 519 
Q 2988 519 3436 956 
Q 3884 1394 3884 2338 
Q 3884 3275 3436 3711 
Q 2988 4147 2022 4147 
L 1259 4147 
z
M 628 4666 
L 1925 4666 
Q 3281 4666 3915 4102 
Q 4550 3538 4550 2338 
Q 4550 1131 3912 565 
Q 3275 0 1925 0 
L 628 0 
L 628 4666 
z
" transform="scale(0.015625)"/>
      <path id="DejaVuSans-63" d="M 3122 3366 
L 3122 2828 
Q 2878 2963 2633 3030 
Q 2388 3097 2138 3097 
Q 1578 3097 1268 2742 
Q 959 2388 959 1747 
Q 959 1106 1268 751 
Q 1578 397 2138 397 
Q 2388 397 2633 464 
Q 2878 531 3122 666 
L 3122 134 
Q 2881 22 2623 -34 
Q 2366 -91 2075 -91 
Q 1284 -91 818 406 
Q 353 903 353 1747 
Q 353 2603 823 3093 
Q 1294 3584 2113 3584 
Q 2378 3584 2631 3529 
Q 2884 3475 3122 3366 
z
" transform="scale(0.015625)"/>
      <path id="DejaVuSans-6d" d="M 3328 2828 
Q 3544 3216 3844 3400 
Q 4144 3584 4550 3584 
Q 5097 3584 5394 3201 
Q 5691 2819 5691 2113 
L 5691 0 
L 5113 0 
L 5113 2094 
Q 5113 2597 4934 2840 
Q 4756 3084 4391 3084 
Q 3944 3084 3684 2787 
Q 3425 2491 3425 1978 
L 3425 0 
L 2847 0 
L 2847 2094 
Q 2847 2600 2669 2842 
Q 2491 3084 2119 3084 
Q 1678 3084 1418 2786 
Q 1159 2488 1159 1978 
L 1159 0 
L 581 0 
L 581 3500 
L 1159 3500 
L 1159 2956 
Q 1356 3278 1631 3431 
Q 1906 3584 2284 3584 
Q 2666 3584 2933 3390 
Q 3200 3197 3328 2828 
z
" transform="scale(0.015625)"/>
      <path id="DejaVuSans-75" d="M 544 1381 
L 544 3500 
L 1119 3500 
L 1119 1403 
Q 1119 906 1312 657 
Q 1506 409 1894 409 
Q 2359 409 2629 706 
Q 2900 1003 2900 1516 
L 2900 3500 
L 3475 3500 
L 3475 0 
L 2900 0 
L 2900 538 
Q 2691 219 2414 64 
Q 2138 -91 1772 -91 
Q 1169 -91 856 284 
Q 544 659 544 1381 
z
M 1991 3584 
L 1991 3584 
z
" transform="scale(0.015625)"/>
      <path id="DejaVuSans-67" d="M 2906 1791 
Q 2906 2416 2648 2759 
Q 2391 3103 1925 3103 
Q 1463 3103 1205 2759 
Q 947 2416 947 1791 
Q 947 1169 1205 825 
Q 1463 481 1925 481 
Q 2391 481 2648 825 
Q 2906 1169 2906 1791 
z
M 3481 434 
Q 3481 -459 3084 -895 
Q 2688 -1331 1869 -1331 
Q 1566 -1331 1297 -1286 
Q 1028 -1241 775 -1147 
L 775 -588 
Q 1028 -725 1275 -790 
Q 1522 -856 1778 -856 
Q 2344 -856 2625 -561 
Q 2906 -266 2906 331 
L 2906 616 
Q 2728 306 2450 153 
Q 2172 0 1784 0 
Q 1141 0 747 490 
Q 353 981 353 1791 
Q 353 2603 747 3093 
Q 1141 3584 1784 3584 
Q 2172 3584 2450 3431 
Q 2728 3278 2906 2969 
L 2906 3500 
L 3481 3500 
L 3481 434 
z
" transform="scale(0.015625)"/>
      <path id="DejaVuSans-54" d="M -19 4666 
L 3928 4666 
L 3928 4134 
L 2272 4134 
L 2272 0 
L 1638 0 
L 1638 4134 
L -19 4134 
L -19 4666 
z
" transform="scale(0.015625)"/>
     </defs>
     <use xlink:href="#DejaVuSans-47"/>
     <use xlink:href="#DejaVuSans-65" x="77.490234"/>
     <use xlink:href="#DejaVuSans-6e" x="139.013672"/>
     <use xlink:href="#DejaVuSans-65" x="202.392578"/>
     <use xlink:href="#DejaVuSans-72" x="263.916016"/>
     <use xlink:href="#DejaVuSans-61" x="305.029297"/>
     <use xlink:href="#DejaVuSans-74" x="366.308594"/>
     <use xlink:href="#DejaVuSans-6f" x="405.517578"/>
     <use xlink:href="#DejaVuSans-72" x="466.699219"/>
     <use xlink:href="#DejaVuSans-20" x="507.8125"/>
     <use xlink:href="#DejaVuSans-61" x="539.599609"/>
     <use xlink:href="#DejaVuSans-6e" x="600.878906"/>
     <use xlink:href="#DejaVuSans-64" x="664.257812"/>
     <use xlink:href="#DejaVuSans-20" x="727.734375"/>
     <use xlink:href="#DejaVuSans-44" x="759.521484"/>
     <use xlink:href="#DejaVuSans-69" x="836.523438"/>
     <use xlink:href="#DejaVuSans-73" x="864.306641"/>
     <use xlink:href="#DejaVuSans-63" x="916.40625"/>
     <use xlink:href="#DejaVuSans-72" x="971.386719"/>
     <use xlink:href="#DejaVuSans-69" x="1012.5"/>
     <use xlink:href="#DejaVuSans-6d" x="1040.283203"/>
     <use xlink:href="#DejaVuSans-69" x="1137.695312"/>
     <use xlink:href="#DejaVuSans-6e" x="1165.478516"/>
     <use xlink:href="#DejaVuSans-61" x="1228.857422"/>
     <use xlink:href="#DejaVuSans-74" x="1290.136719"/>
     <use xlink:href="#DejaVuSans-6f" x="1329.345703"/>
     <use xlink:href="#DejaVuSans-72" x="1390.527344"/>
     <use xlink:href="#DejaVuSans-20" x="1431.640625"/>
     <use xlink:href="#DejaVuSans-4c" x="1463.427734"/>
     <use xlink:href="#DejaVuSans-6f" x="1517.390625"/>
     <use xlink:href="#DejaVuSans-73" x="1578.572266"/>
     <use xlink:href="#DejaVuSans-73" x="1630.671875"/>
     <use xlink:href="#DejaVuSans-20" x="1682.771484"/>
     <use xlink:href="#DejaVuSans-44" x="1714.558594"/>
     <use xlink:href="#DejaVuSans-75" x="1791.560547"/>
     <use xlink:href="#DejaVuSans-72" x="1854.939453"/>
     <use xlink:href="#DejaVuSans-69" x="1896.052734"/>
     <use xlink:href="#DejaVuSans-6e" x="1923.835938"/>
     <use xlink:href="#DejaVuSans-67" x="1987.214844"/>
     <use xlink:href="#DejaVuSans-20" x="2050.691406"/>
     <use xlink:href="#DejaVuSans-54" x="2082.478516"/>
     <use xlink:href="#DejaVuSans-72" x="2128.8125"/>
     <use xlink:href="#DejaVuSans-61" x="2169.925781"/>
     <use xlink:href="#DejaVuSans-69" x="2231.205078"/>
     <use xlink:href="#DejaVuSans-6e" x="2258.988281"/>
     <use xlink:href="#DejaVuSans-69" x="2322.367188"/>
     <use xlink:href="#DejaVuSans-6e" x="2350.150391"/>
     <use xlink:href="#DejaVuSans-67" x="2413.529297"/>
    </g>
   </g>
   <g id="legend_1">
    <g id="patch_7">
     <path d="M 556.99375 106.14875 
L 636.490625 106.14875 
Q 640.490625 106.14875 640.490625 102.14875 
L 640.490625 45.43625 
Q 640.490625 41.43625 636.490625 41.43625 
L 556.99375 41.43625 
Q 552.99375 41.43625 552.99375 45.43625 
L 552.99375 102.14875 
Q 552.99375 106.14875 556.99375 106.14875 
z
" style="fill: #ffffff; opacity: 0.8; stroke: #cccccc; stroke-linejoin: miter"/>
    </g>
    <g id="line2d_14">
     <path d="M 560.99375 57.633125 
L 580.99375 57.633125 
L 600.99375 57.633125 
" style="fill: none; stroke: #1f77b4; stroke-width: 1.5; stroke-linecap: square"/>
    </g>
    <g id="text_15">
     <!-- G -->
     <g transform="translate(616.99375 64.633125) scale(0.2 -0.2)">
      <use xlink:href="#DejaVuSans-47"/>
     </g>
    </g>
    <g id="line2d_15">
     <path d="M 560.99375 86.989375 
L 580.99375 86.989375 
L 600.99375 86.989375 
" style="fill: none; stroke: #ff7f0e; stroke-width: 1.5; stroke-linecap: square"/>
    </g>
    <g id="text_16">
     <!-- D -->
     <g transform="translate(616.99375 93.989375) scale(0.2 -0.2)">
      <use xlink:href="#DejaVuSans-44"/>
     </g>
    </g>
   </g>
  </g>
 </g>
 <defs>
  <clipPath id="pd338455d39">
   <rect x="92.490625" y="31.43625" width="558" height="277.2"/>
  </clipPath>
 </defs>
</svg>
