<?xml version="1.0" encoding="utf-8" standalone="no"?>
<!DOCTYPE svg PUBLIC "-//W3C//DTD SVG 1.1//EN"
  "http://www.w3.org/Graphics/SVG/1.1/DTD/svg11.dtd">
<svg xmlns:xlink="http://www.w3.org/1999/xlink" width="675.923125pt" height="365.54875pt" viewBox="0 0 675.923125 365.54875" xmlns="http://www.w3.org/2000/svg" version="1.1">
 <metadata>
  <rdf:RDF xmlns:dc="http://purl.org/dc/elements/1.1/" xmlns:cc="http://creativecommons.org/ns#" xmlns:rdf="http://www.w3.org/1999/02/22-rdf-syntax-ns#">
   <cc:Work>
    <dc:type rdf:resource="http://purl.org/dc/dcmitype/StillImage"/>
    <dc:date>2024-02-01T21:07:47.346854</dc:date>
    <dc:format>image/svg+xml</dc:format>
    <dc:creator>
     <cc:Agent>
      <dc:title>Matplotlib v3.7.2, https://matplotlib.org/</dc:title>
     </cc:Agent>
    </dc:creator>
   </cc:Work>
  </rdf:RDF>
 </metadata>
 <defs>
  <style type="text/css">*{stroke-linejoin: round; stroke-linecap: butt}</style>
 </defs>
 <g id="figure_1">
  <g id="patch_1">
   <path d="M 0 365.54875 
L 675.923125 365.54875 
L 675.923125 -0 
L 0 -0 
z
" style="fill: #ffffff"/>
  </g>
  <g id="axes_1">
   <g id="patch_2">
    <path d="M 92.490625 308.63625 
L 650.490625 308.63625 
L 650.490625 31.43625 
L 92.490625 31.43625 
z
" style="fill: #ffffff"/>
   </g>
   <g id="matplotlib.axis_1">
    <g id="xtick_1">
     <g id="line2d_1">
      <defs>
       <path id="ma525abb323" d="M 0 0 
L 0 3.5 
" style="stroke: #000000; stroke-width: 0.8"/>
      </defs>
      <g>
       <use xlink:href="#ma525abb323" x="117.854261" y="308.63625" style="stroke: #000000; stroke-width: 0.8"/>
      </g>
     </g>
     <g id="text_1">
      <!-- 0 -->
      <g transform="translate(111.491761 330.833125) scale(0.2 -0.2)">
       <defs>
        <path id="DejaVuSans-30" d="M 2034 4250 
Q 1547 4250 1301 3770 
Q 1056 3291 1056 2328 
Q 1056 1369 1301 889 
Q 1547 409 2034 409 
Q 2525 409 2770 889 
Q 3016 1369 3016 2328 
Q 3016 3291 2770 3770 
Q 2525 4250 2034 4250 
z
M 2034 4750 
Q 2819 4750 3233 4129 
Q 3647 3509 3647 2328 
Q 3647 1150 3233 529 
Q 2819 -91 2034 -91 
Q 1250 -91 836 529 
Q 422 1150 422 2328 
Q 422 3509 836 4129 
Q 1250 4750 2034 4750 
z
" transform="scale(0.015625)"/>
       </defs>
       <use xlink:href="#DejaVuSans-30"/>
      </g>
     </g>
    </g>
    <g id="xtick_2">
     <g id="line2d_2">
      <g>
       <use xlink:href="#ma525abb323" x="224.64852" y="308.63625" style="stroke: #000000; stroke-width: 0.8"/>
      </g>
     </g>
     <g id="text_2">
      <!-- 200 -->
      <g transform="translate(205.56102 330.833125) scale(0.2 -0.2)">
       <defs>
        <path id="DejaVuSans-32" d="M 1228 531 
L 3431 531 
L 3431 0 
L 469 0 
L 469 531 
Q 828 903 1448 1529 
Q 2069 2156 2228 2338 
Q 2531 2678 2651 2914 
Q 2772 3150 2772 3378 
Q 2772 3750 2511 3984 
Q 2250 4219 1831 4219 
Q 1534 4219 1204 4116 
Q 875 4013 500 3803 
L 500 4441 
Q 881 4594 1212 4672 
Q 1544 4750 1819 4750 
Q 2544 4750 2975 4387 
Q 3406 4025 3406 3419 
Q 3406 3131 3298 2873 
Q 3191 2616 2906 2266 
Q 2828 2175 2409 1742 
Q 1991 1309 1228 531 
z
" transform="scale(0.015625)"/>
       </defs>
       <use xlink:href="#DejaVuSans-32"/>
       <use xlink:href="#DejaVuSans-30" x="63.623047"/>
       <use xlink:href="#DejaVuSans-30" x="127.246094"/>
      </g>
     </g>
    </g>
    <g id="xtick_3">
     <g id="line2d_3">
      <g>
       <use xlink:href="#ma525abb323" x="331.442778" y="308.63625" style="stroke: #000000; stroke-width: 0.8"/>
      </g>
     </g>
     <g id="text_3">
      <!-- 400 -->
      <g transform="translate(312.355278 330.833125) scale(0.2 -0.2)">
       <defs>
        <path id="DejaVuSans-34" d="M 2419 4116 
L 825 1625 
L 2419 1625 
L 2419 4116 
z
M 2253 4666 
L 3047 4666 
L 3047 1625 
L 3713 1625 
L 3713 1100 
L 3047 1100 
L 3047 0 
L 2419 0 
L 2419 1100 
L 313 1100 
L 313 1709 
L 2253 4666 
z
" transform="scale(0.015625)"/>
       </defs>
       <use xlink:href="#DejaVuSans-34"/>
       <use xlink:href="#DejaVuSans-30" x="63.623047"/>
       <use xlink:href="#DejaVuSans-30" x="127.246094"/>
      </g>
     </g>
    </g>
    <g id="xtick_4">
     <g id="line2d_4">
      <g>
       <use xlink:href="#ma525abb323" x="438.237036" y="308.63625" style="stroke: #000000; stroke-width: 0.8"/>
      </g>
     </g>
     <g id="text_4">
      <!-- 600 -->
      <g transform="translate(419.149536 330.833125) scale(0.2 -0.2)">
       <defs>
        <path id="DejaVuSans-36" d="M 2113 2584 
Q 1688 2584 1439 2293 
Q 1191 2003 1191 1497 
Q 1191 994 1439 701 
Q 1688 409 2113 409 
Q 2538 409 2786 701 
Q 3034 994 3034 1497 
Q 3034 2003 2786 2293 
Q 2538 2584 2113 2584 
z
M 3366 4563 
L 3366 3988 
Q 3128 4100 2886 4159 
Q 2644 4219 2406 4219 
Q 1781 4219 1451 3797 
Q 1122 3375 1075 2522 
Q 1259 2794 1537 2939 
Q 1816 3084 2150 3084 
Q 2853 3084 3261 2657 
Q 3669 2231 3669 1497 
Q 3669 778 3244 343 
Q 2819 -91 2113 -91 
Q 1303 -91 875 529 
Q 447 1150 447 2328 
Q 447 3434 972 4092 
Q 1497 4750 2381 4750 
Q 2619 4750 2861 4703 
Q 3103 4656 3366 4563 
z
" transform="scale(0.015625)"/>
       </defs>
       <use xlink:href="#DejaVuSans-36"/>
       <use xlink:href="#DejaVuSans-30" x="63.623047"/>
       <use xlink:href="#DejaVuSans-30" x="127.246094"/>
      </g>
     </g>
    </g>
    <g id="xtick_5">
     <g id="line2d_5">
      <g>
       <use xlink:href="#ma525abb323" x="545.031295" y="308.63625" style="stroke: #000000; stroke-width: 0.8"/>
      </g>
     </g>
     <g id="text_5">
      <!-- 800 -->
      <g transform="translate(525.943795 330.833125) scale(0.2 -0.2)">
       <defs>
        <path id="DejaVuSans-38" d="M 2034 2216 
Q 1584 2216 1326 1975 
Q 1069 1734 1069 1313 
Q 1069 891 1326 650 
Q 1584 409 2034 409 
Q 2484 409 2743 651 
Q 3003 894 3003 1313 
Q 3003 1734 2745 1975 
Q 2488 2216 2034 2216 
z
M 1403 2484 
Q 997 2584 770 2862 
Q 544 3141 544 3541 
Q 544 4100 942 4425 
Q 1341 4750 2034 4750 
Q 2731 4750 3128 4425 
Q 3525 4100 3525 3541 
Q 3525 3141 3298 2862 
Q 3072 2584 2669 2484 
Q 3125 2378 3379 2068 
Q 3634 1759 3634 1313 
Q 3634 634 3220 271 
Q 2806 -91 2034 -91 
Q 1263 -91 848 271 
Q 434 634 434 1313 
Q 434 1759 690 2068 
Q 947 2378 1403 2484 
z
M 1172 3481 
Q 1172 3119 1398 2916 
Q 1625 2713 2034 2713 
Q 2441 2713 2670 2916 
Q 2900 3119 2900 3481 
Q 2900 3844 2670 4047 
Q 2441 4250 2034 4250 
Q 1625 4250 1398 4047 
Q 1172 3844 1172 3481 
z
" transform="scale(0.015625)"/>
       </defs>
       <use xlink:href="#DejaVuSans-38"/>
       <use xlink:href="#DejaVuSans-30" x="63.623047"/>
       <use xlink:href="#DejaVuSans-30" x="127.246094"/>
      </g>
     </g>
    </g>
    <g id="text_6">
     <!-- iterations -->
     <g transform="translate(324.035938 354.189375) scale(0.2 -0.2)">
      <defs>
       <path id="DejaVuSans-69" d="M 603 3500 
L 1178 3500 
L 1178 0 
L 603 0 
L 603 3500 
z
M 603 4863 
L 1178 4863 
L 1178 4134 
L 603 4134 
L 603 4863 
z
" transform="scale(0.015625)"/>
       <path id="DejaVuSans-74" d="M 1172 4494 
L 1172 3500 
L 2356 3500 
L 2356 3053 
L 1172 3053 
L 1172 1153 
Q 1172 725 1289 603 
Q 1406 481 1766 481 
L 2356 481 
L 2356 0 
L 1766 0 
Q 1100 0 847 248 
Q 594 497 594 1153 
L 594 3053 
L 172 3053 
L 172 3500 
L 594 3500 
L 594 4494 
L 1172 4494 
z
" transform="scale(0.015625)"/>
       <path id="DejaVuSans-65" d="M 3597 1894 
L 3597 1613 
L 953 1613 
Q 991 1019 1311 708 
Q 1631 397 2203 397 
Q 2534 397 2845 478 
Q 3156 559 3463 722 
L 3463 178 
Q 3153 47 2828 -22 
Q 2503 -91 2169 -91 
Q 1331 -91 842 396 
Q 353 884 353 1716 
Q 353 2575 817 3079 
Q 1281 3584 2069 3584 
Q 2775 3584 3186 3129 
Q 3597 2675 3597 1894 
z
M 3022 2063 
Q 3016 2534 2758 2815 
Q 2500 3097 2075 3097 
Q 1594 3097 1305 2825 
Q 1016 2553 972 2059 
L 3022 2063 
z
" transform="scale(0.015625)"/>
       <path id="DejaVuSans-72" d="M 2631 2963 
Q 2534 3019 2420 3045 
Q 2306 3072 2169 3072 
Q 1681 3072 1420 2755 
Q 1159 2438 1159 1844 
L 1159 0 
L 581 0 
L 581 3500 
L 1159 3500 
L 1159 2956 
Q 1341 3275 1631 3429 
Q 1922 3584 2338 3584 
Q 2397 3584 2469 3576 
Q 2541 3569 2628 3553 
L 2631 2963 
z
" transform="scale(0.015625)"/>
       <path id="DejaVuSans-61" d="M 2194 1759 
Q 1497 1759 1228 1600 
Q 959 1441 959 1056 
Q 959 750 1161 570 
Q 1363 391 1709 391 
Q 2188 391 2477 730 
Q 2766 1069 2766 1631 
L 2766 1759 
L 2194 1759 
z
M 3341 1997 
L 3341 0 
L 2766 0 
L 2766 531 
Q 2569 213 2275 61 
Q 1981 -91 1556 -91 
Q 1019 -91 701 211 
Q 384 513 384 1019 
Q 384 1609 779 1909 
Q 1175 2209 1959 2209 
L 2766 2209 
L 2766 2266 
Q 2766 2663 2505 2880 
Q 2244 3097 1772 3097 
Q 1472 3097 1187 3025 
Q 903 2953 641 2809 
L 641 3341 
Q 956 3463 1253 3523 
Q 1550 3584 1831 3584 
Q 2591 3584 2966 3190 
Q 3341 2797 3341 1997 
z
" transform="scale(0.015625)"/>
       <path id="DejaVuSans-6f" d="M 1959 3097 
Q 1497 3097 1228 2736 
Q 959 2375 959 1747 
Q 959 1119 1226 758 
Q 1494 397 1959 397 
Q 2419 397 2687 759 
Q 2956 1122 2956 1747 
Q 2956 2369 2687 2733 
Q 2419 3097 1959 3097 
z
M 1959 3584 
Q 2709 3584 3137 3096 
Q 3566 2609 3566 1747 
Q 3566 888 3137 398 
Q 2709 -91 1959 -91 
Q 1206 -91 779 398 
Q 353 888 353 1747 
Q 353 2609 779 3096 
Q 1206 3584 1959 3584 
z
" transform="scale(0.015625)"/>
       <path id="DejaVuSans-6e" d="M 3513 2113 
L 3513 0 
L 2938 0 
L 2938 2094 
Q 2938 2591 2744 2837 
Q 2550 3084 2163 3084 
Q 1697 3084 1428 2787 
Q 1159 2491 1159 1978 
L 1159 0 
L 581 0 
L 581 3500 
L 1159 3500 
L 1159 2956 
Q 1366 3272 1645 3428 
Q 1925 3584 2291 3584 
Q 2894 3584 3203 3211 
Q 3513 2838 3513 2113 
z
" transform="scale(0.015625)"/>
       <path id="DejaVuSans-73" d="M 2834 3397 
L 2834 2853 
Q 2591 2978 2328 3040 
Q 2066 3103 1784 3103 
Q 1356 3103 1142 2972 
Q 928 2841 928 2578 
Q 928 2378 1081 2264 
Q 1234 2150 1697 2047 
L 1894 2003 
Q 2506 1872 2764 1633 
Q 3022 1394 3022 966 
Q 3022 478 2636 193 
Q 2250 -91 1575 -91 
Q 1294 -91 989 -36 
Q 684 19 347 128 
L 347 722 
Q 666 556 975 473 
Q 1284 391 1588 391 
Q 1994 391 2212 530 
Q 2431 669 2431 922 
Q 2431 1156 2273 1281 
Q 2116 1406 1581 1522 
L 1381 1569 
Q 847 1681 609 1914 
Q 372 2147 372 2553 
Q 372 3047 722 3315 
Q 1072 3584 1716 3584 
Q 2034 3584 2315 3537 
Q 2597 3491 2834 3397 
z
" transform="scale(0.015625)"/>
      </defs>
      <use xlink:href="#DejaVuSans-69"/>
      <use xlink:href="#DejaVuSans-74" x="27.783203"/>
      <use xlink:href="#DejaVuSans-65" x="66.992188"/>
      <use xlink:href="#DejaVuSans-72" x="128.515625"/>
      <use xlink:href="#DejaVuSans-61" x="169.628906"/>
      <use xlink:href="#DejaVuSans-74" x="230.908203"/>
      <use xlink:href="#DejaVuSans-69" x="270.117188"/>
      <use xlink:href="#DejaVuSans-6f" x="297.900391"/>
      <use xlink:href="#DejaVuSans-6e" x="359.082031"/>
      <use xlink:href="#DejaVuSans-73" x="422.460938"/>
     </g>
    </g>
   </g>
   <g id="matplotlib.axis_2">
    <g id="ytick_1">
     <g id="line2d_6">
      <defs>
       <path id="m8f83a5464f" d="M 0 0 
L -3.5 0 
" style="stroke: #000000; stroke-width: 0.8"/>
      </defs>
      <g>
       <use xlink:href="#m8f83a5464f" x="92.490625" y="234.626549" style="stroke: #000000; stroke-width: 0.8"/>
      </g>
     </g>
     <g id="text_7">
      <!-- −200 -->
      <g transform="translate(30.55625 242.224987) scale(0.2 -0.2)">
       <defs>
        <path id="DejaVuSans-2212" d="M 678 2272 
L 4684 2272 
L 4684 1741 
L 678 1741 
L 678 2272 
z
" transform="scale(0.015625)"/>
       </defs>
       <use xlink:href="#DejaVuSans-2212"/>
       <use xlink:href="#DejaVuSans-32" x="83.789062"/>
       <use xlink:href="#DejaVuSans-30" x="147.412109"/>
       <use xlink:href="#DejaVuSans-30" x="211.035156"/>
      </g>
     </g>
    </g>
    <g id="ytick_2">
     <g id="line2d_7">
      <g>
       <use xlink:href="#m8f83a5464f" x="92.490625" y="151.376755" style="stroke: #000000; stroke-width: 0.8"/>
      </g>
     </g>
     <g id="text_8">
      <!-- 0 -->
      <g transform="translate(72.765625 158.975193) scale(0.2 -0.2)">
       <use xlink:href="#DejaVuSans-30"/>
      </g>
     </g>
    </g>
    <g id="ytick_3">
     <g id="line2d_8">
      <g>
       <use xlink:href="#m8f83a5464f" x="92.490625" y="68.126962" style="stroke: #000000; stroke-width: 0.8"/>
      </g>
     </g>
     <g id="text_9">
      <!-- 200 -->
      <g transform="translate(47.315625 75.725399) scale(0.2 -0.2)">
       <use xlink:href="#DejaVuSans-32"/>
       <use xlink:href="#DejaVuSans-30" x="63.623047"/>
       <use xlink:href="#DejaVuSans-30" x="127.246094"/>
      </g>
     </g>
    </g>
    <g id="text_10">
     <!-- Loss -->
     <g transform="translate(22.396875 191.970625) rotate(-90) scale(0.2 -0.2)">
      <defs>
       <path id="DejaVuSans-4c" d="M 628 4666 
L 1259 4666 
L 1259 531 
L 3531 531 
L 3531 0 
L 628 0 
L 628 4666 
z
" transform="scale(0.015625)"/>
      </defs>
      <use xlink:href="#DejaVuSans-4c"/>
      <use xlink:href="#DejaVuSans-6f" x="53.962891"/>
      <use xlink:href="#DejaVuSans-73" x="115.144531"/>
      <use xlink:href="#DejaVuSans-73" x="167.244141"/>
     </g>
    </g>
   </g>
   <g id="line2d_9">
    <path d="M 117.854261 114.726306 
L 118.388233 106.081918 
L 118.922204 66.645135 
L 119.456175 44.03625 
L 119.990147 55.607746 
L 120.524118 116.630126 
L 121.058089 138.664661 
L 121.59206 137.321124 
L 122.126032 122.741893 
L 122.660003 120.788415 
L 123.193974 127.999278 
L 123.727946 122.989826 
L 124.261917 108.458537 
L 124.795888 122.646974 
L 125.329859 126.556792 
L 125.863831 123.898785 
L 126.397802 120.201515 
L 126.931773 126.255443 
L 127.465745 122.797609 
L 127.999716 127.006439 
L 128.533687 118.64052 
L 129.067658 124.366742 
L 129.60163 117.662909 
L 130.135601 117.330772 
L 130.669572 114.695364 
L 131.203544 107.764658 
L 131.737515 108.435758 
L 132.271486 107.051208 
L 132.805458 106.219874 
L 133.339429 110.116506 
L 133.8734 106.40337 
L 134.407371 103.735206 
L 134.941343 107.114803 
L 135.475314 106.33327 
L 136.009285 103.507469 
L 136.543257 108.842958 
L 137.077228 102.920055 
L 137.611199 108.429686 
L 138.14517 110.936486 
L 138.679142 110.869457 
L 139.213113 106.939005 
L 139.747084 105.409875 
L 140.281056 110.445841 
L 140.815027 111.131011 
L 141.348998 113.912796 
L 141.882969 112.411065 
L 142.416941 111.591078 
L 142.950912 112.594274 
L 143.484883 115.130586 
L 144.018855 112.662515 
L 144.552826 111.560611 
L 145.086797 112.925905 
L 145.620769 108.346789 
L 146.15474 112.549272 
L 146.688711 114.58122 
L 147.222682 115.179402 
L 147.756654 119.262292 
L 148.290625 117.014571 
L 148.824596 116.380063 
L 149.358568 120.267786 
L 149.892539 120.37667 
L 150.42651 120.879402 
L 150.960481 120.548412 
L 151.494453 123.597646 
L 152.028424 123.431828 
L 152.562395 121.429234 
L 153.096367 122.560572 
L 153.630338 119.85272 
L 154.164309 118.694633 
L 155.232252 118.68102 
L 155.766223 118.119314 
L 156.300194 121.17012 
L 157.368137 116.7473 
L 157.902108 113.297092 
L 158.43608 118.688744 
L 158.970051 120.343387 
L 159.504022 123.308616 
L 160.037993 120.224883 
L 160.571965 118.109455 
L 161.105936 120.364991 
L 161.639907 123.245243 
L 162.70785 118.407012 
L 163.775792 122.653338 
L 164.309764 123.836576 
L 164.843735 125.744796 
L 165.377706 123.447651 
L 165.911678 128.318527 
L 166.445649 129.080516 
L 166.97962 128.830815 
L 167.513592 128.20745 
L 168.047563 128.76154 
L 168.581534 132.053196 
L 169.115505 133.596636 
L 169.649477 133.934515 
L 170.183448 135.141517 
L 170.717419 135.137063 
L 171.251391 134.780402 
L 171.785362 135.202134 
L 172.319333 135.093015 
L 172.853304 136.905242 
L 173.921247 142.399589 
L 174.455218 142.128559 
L 174.98919 142.779249 
L 175.523161 139.598641 
L 176.057132 140.408307 
L 176.591103 138.506123 
L 177.125075 139.937779 
L 177.659046 138.802053 
L 178.193017 137.3209 
L 179.26096 135.089312 
L 179.794931 138.125691 
L 180.328903 137.931203 
L 180.862874 136.48173 
L 181.396845 135.887461 
L 181.930816 134.35985 
L 182.464788 133.177328 
L 182.998759 135.336782 
L 183.53273 134.894951 
L 184.066702 135.405771 
L 184.600673 135.395858 
L 185.134644 136.106534 
L 185.668615 138.160945 
L 186.736558 138.778501 
L 187.270529 139.328544 
L 187.804501 137.455284 
L 188.338472 138.146409 
L 188.872443 139.584531 
L 189.406414 139.54211 
L 189.940386 140.772087 
L 190.474357 139.328314 
L 191.008328 141.270704 
L 192.076271 138.38691 
L 192.610242 138.267975 
L 193.144214 138.407029 
L 193.678185 138.064147 
L 194.212156 136.366411 
L 194.746127 136.725459 
L 195.280099 137.7051 
L 195.81407 136.859223 
L 196.348041 139.049001 
L 196.882013 137.336016 
L 197.415984 137.257625 
L 197.949955 138.794003 
L 198.483926 138.317046 
L 199.017898 138.127537 
L 199.551869 137.085883 
L 200.08584 140.357201 
L 200.619812 142.188057 
L 201.153783 140.211719 
L 201.687754 141.214973 
L 202.221725 140.469004 
L 202.755697 140.399257 
L 203.289668 137.341402 
L 203.823639 136.956775 
L 204.357611 138.004539 
L 204.891582 141.917493 
L 205.425553 141.394417 
L 205.959525 139.770456 
L 206.493496 138.757231 
L 207.027467 139.627896 
L 208.09541 142.544043 
L 208.629381 142.319792 
L 209.163352 139.759331 
L 209.697324 140.416344 
L 210.231295 141.45395 
L 210.765266 141.363625 
L 211.299237 140.978604 
L 211.833209 142.910652 
L 212.36718 142.90158 
L 212.901151 144.549058 
L 213.435123 145.17122 
L 213.969094 145.44887 
L 214.503065 144.416339 
L 215.037036 144.947962 
L 215.571008 143.814591 
L 216.104979 145.207917 
L 216.63895 145.528567 
L 217.172922 144.861957 
L 217.706893 145.227471 
L 218.240864 144.527959 
L 218.774836 145.046411 
L 219.308807 146.68308 
L 219.842778 147.135187 
L 220.376749 145.32902 
L 220.910721 143.988933 
L 221.444692 145.81337 
L 221.978663 144.652605 
L 222.512635 145.491722 
L 223.046606 145.544312 
L 223.580577 146.479505 
L 224.114548 145.926367 
L 224.64852 146.569906 
L 225.182491 146.635087 
L 225.716462 145.762171 
L 226.250434 146.892018 
L 226.784405 148.983063 
L 227.318376 148.879743 
L 227.852347 147.783513 
L 228.386319 148.254067 
L 228.92029 147.888736 
L 229.454261 146.84581 
L 229.988233 146.202176 
L 230.522204 146.837467 
L 231.056175 146.997663 
L 232.124118 146.666794 
L 233.19206 146.848622 
L 233.726032 146.639285 
L 234.260003 145.433562 
L 234.793974 146.697151 
L 235.327946 146.488051 
L 235.861917 148.265055 
L 236.395888 147.613654 
L 236.929859 147.710403 
L 237.463831 147.419561 
L 237.997802 147.740517 
L 238.531773 146.590609 
L 239.599716 147.987777 
L 240.667658 148.092569 
L 241.20163 147.626153 
L 241.735601 148.346627 
L 242.269572 147.834075 
L 242.803544 146.928657 
L 243.337515 148.067958 
L 243.871486 147.258653 
L 244.405458 148.865305 
L 244.939429 148.410553 
L 245.4734 148.967358 
L 246.007371 149.221557 
L 246.541343 149.822095 
L 247.075314 148.406232 
L 247.609285 148.806973 
L 248.143257 148.539764 
L 248.677228 149.07262 
L 249.211199 148.908721 
L 249.74517 148.61838 
L 250.813113 149.440954 
L 251.347084 149.36957 
L 251.881056 150.013568 
L 252.415027 149.776241 
L 252.948998 150.325511 
L 253.482969 149.880589 
L 254.016941 151.162299 
L 254.550912 149.985682 
L 255.084883 151.13516 
L 255.618855 149.965057 
L 256.686797 149.636812 
L 257.220769 150.277934 
L 257.75474 150.130294 
L 258.288711 149.369379 
L 258.822682 148.998461 
L 259.890625 149.411097 
L 260.424596 150.464825 
L 260.958568 150.199464 
L 261.492539 150.562235 
L 262.02651 150.590935 
L 262.560481 151.04972 
L 263.094453 151.841912 
L 263.628424 151.427364 
L 264.162395 151.175547 
L 264.696367 152.473986 
L 265.230338 151.552817 
L 265.764309 151.225341 
L 266.298281 151.595681 
L 266.832252 152.660834 
L 267.366223 151.773162 
L 267.900194 152.094372 
L 268.434166 152.17824 
L 268.968137 151.68895 
L 270.570051 152.286212 
L 271.104022 152.200918 
L 271.637993 152.280159 
L 272.171965 151.754625 
L 272.705936 152.272882 
L 273.773879 151.842046 
L 274.30785 152.141914 
L 274.841821 152.770268 
L 275.375792 152.207484 
L 275.909764 152.377094 
L 276.443735 152.188492 
L 276.977706 152.676249 
L 277.511678 151.731846 
L 278.57962 151.345152 
L 279.113592 152.186997 
L 279.647563 152.122104 
L 280.181534 151.359375 
L 280.715505 151.397048 
L 281.249477 151.085501 
L 282.317419 152.610465 
L 282.851391 152.103367 
L 283.385362 151.755312 
L 283.919333 151.745505 
L 284.453304 151.555412 
L 284.987276 151.233799 
L 286.055218 151.617299 
L 286.58919 151.69156 
L 287.123161 151.931251 
L 287.657132 150.713665 
L 288.191103 151.562487 
L 288.725075 151.106358 
L 289.793017 150.617443 
L 290.326989 151.580261 
L 290.86096 151.282821 
L 291.394931 151.651857 
L 291.928903 151.11709 
L 292.462874 151.018062 
L 292.996845 149.816142 
L 293.530816 150.538729 
L 294.064788 151.54643 
L 294.598759 151.134366 
L 295.13273 150.083957 
L 295.666702 149.856048 
L 296.200673 150.084806 
L 297.268615 150.905625 
L 298.336558 150.592418 
L 298.870529 150.540132 
L 299.404501 150.835766 
L 299.938472 149.605204 
L 300.472443 150.155542 
L 301.006414 148.359728 
L 301.540386 149.069275 
L 302.074357 149.470042 
L 302.608328 148.774616 
L 303.1423 149.156396 
L 303.676271 149.200486 
L 304.210242 148.372847 
L 304.744214 148.781279 
L 305.278185 148.915586 
L 305.812156 148.736299 
L 306.346127 148.278376 
L 306.880099 150.048145 
L 307.41407 149.794805 
L 307.948041 148.207867 
L 308.482013 147.006615 
L 309.015984 149.701961 
L 309.549955 148.584931 
L 310.083926 150.113674 
L 310.617898 149.148353 
L 311.151869 149.050289 
L 311.68584 149.482133 
L 312.219812 149.221502 
L 313.287754 149.716106 
L 314.355697 149.448828 
L 314.889668 148.575808 
L 315.957611 149.033621 
L 316.491582 149.043221 
L 317.025553 148.766445 
L 317.559525 150.10204 
L 318.093496 149.976308 
L 318.627467 149.01284 
L 319.69541 150.415562 
L 320.229381 150.191345 
L 320.763352 149.765998 
L 321.297324 150.542045 
L 321.831295 151.094122 
L 322.365266 150.749297 
L 322.899237 150.748543 
L 323.433209 150.552951 
L 323.96718 150.811243 
L 324.501151 150.267491 
L 325.035123 150.78941 
L 325.569094 151.586957 
L 326.103065 150.325004 
L 326.637036 151.032796 
L 327.171008 150.88367 
L 327.704979 150.884052 
L 328.23895 151.261011 
L 328.772922 150.707683 
L 329.306893 150.648162 
L 329.840864 149.982535 
L 330.374836 150.220711 
L 330.908807 150.660541 
L 331.442778 150.245039 
L 331.976749 151.090624 
L 332.510721 151.255264 
L 333.044692 150.92556 
L 333.578663 151.095426 
L 334.112635 151.622911 
L 334.646606 151.330097 
L 335.180577 151.27642 
L 335.714548 151.926709 
L 336.24852 151.644614 
L 336.782491 151.748004 
L 337.316462 151.589741 
L 337.850434 151.096936 
L 338.384405 151.232504 
L 338.918376 152.274212 
L 339.452347 151.431557 
L 339.986319 152.15493 
L 340.52029 150.750337 
L 341.054261 151.642762 
L 341.588233 152.003527 
L 342.122204 151.370928 
L 342.656175 151.81159 
L 344.258089 152.347011 
L 344.79206 152.287551 
L 345.326032 152.792889 
L 345.860003 152.330353 
L 346.393974 152.840892 
L 346.927946 152.952117 
L 347.461917 152.415944 
L 347.995888 152.560223 
L 348.529859 151.791173 
L 349.063831 151.744005 
L 349.597802 151.92552 
L 350.131773 151.236089 
L 350.665745 151.001596 
L 351.199716 152.275131 
L 351.733687 151.230055 
L 353.335601 152.57704 
L 353.869572 152.080164 
L 354.403544 151.791563 
L 354.937515 152.511252 
L 355.471486 151.929362 
L 356.005458 152.536765 
L 356.539429 151.959364 
L 357.0734 152.067056 
L 357.607371 152.043511 
L 358.675314 152.304802 
L 359.209285 151.700389 
L 359.743257 151.420254 
L 360.277228 151.287794 
L 360.811199 151.665874 
L 361.34517 152.210526 
L 361.879142 152.047336 
L 362.413113 152.215515 
L 362.947084 151.418016 
L 363.481056 151.783619 
L 364.548998 151.755368 
L 365.082969 152.372138 
L 366.150912 152.398249 
L 366.684883 152.2066 
L 367.218855 152.143606 
L 367.752826 152.661245 
L 368.286797 152.418168 
L 368.820769 151.076607 
L 369.35474 152.230132 
L 369.888711 152.254543 
L 370.422682 152.085501 
L 370.956654 152.097016 
L 372.024596 151.575627 
L 373.092539 151.848856 
L 373.62651 151.953318 
L 374.160481 152.623378 
L 375.228424 151.842257 
L 375.762395 152.267785 
L 376.830338 152.143958 
L 377.364309 150.987889 
L 377.898281 151.397289 
L 378.432252 151.975647 
L 378.966223 151.998391 
L 379.500194 151.335571 
L 380.034166 151.682935 
L 380.568137 152.632733 
L 381.102108 152.19404 
L 382.704022 151.946123 
L 383.237993 152.200519 
L 383.771965 152.193347 
L 384.305936 151.984494 
L 385.373879 152.365496 
L 385.90785 152.266247 
L 386.441821 151.934436 
L 386.975792 152.40168 
L 387.509764 152.065543 
L 388.043735 151.446763 
L 388.577706 151.828722 
L 389.111678 151.947018 
L 389.645649 152.448695 
L 390.17962 151.844327 
L 390.713592 151.506004 
L 391.247563 151.857779 
L 391.781534 151.871857 
L 392.315505 151.079205 
L 392.849477 151.507201 
L 393.383448 151.45044 
L 393.917419 151.647678 
L 394.451391 151.448021 
L 394.985362 151.495779 
L 395.519333 150.817983 
L 396.053304 151.706664 
L 396.587276 151.308106 
L 397.121247 151.276547 
L 397.655218 151.5955 
L 398.18919 151.62933 
L 398.723161 151.070949 
L 399.257132 151.645706 
L 399.791103 151.69572 
L 400.859046 151.149644 
L 401.393017 151.458323 
L 401.926989 151.46821 
L 402.46096 152.024571 
L 402.994931 152.047261 
L 403.528903 151.13832 
L 404.062874 151.604247 
L 404.596845 151.562435 
L 405.130816 151.300639 
L 405.664788 151.701181 
L 406.198759 151.454309 
L 406.73273 151.537243 
L 407.266702 151.037532 
L 407.800673 151.344607 
L 408.334644 151.194195 
L 408.868615 151.298938 
L 409.402587 151.180666 
L 410.470529 151.24606 
L 411.004501 151.461987 
L 411.538472 151.801094 
L 412.072443 151.715007 
L 412.606414 151.495821 
L 413.140386 151.575049 
L 413.674357 152.208455 
L 414.208328 151.707065 
L 414.7423 151.726826 
L 415.276271 151.988182 
L 415.810242 152.692704 
L 416.344214 152.089559 
L 417.412156 152.427433 
L 417.946127 152.218327 
L 418.480099 152.372906 
L 419.01407 152.029724 
L 419.548041 152.286971 
L 420.082013 151.970467 
L 420.615984 152.555662 
L 421.149955 152.245332 
L 422.217898 152.541199 
L 422.751869 151.979995 
L 423.28584 152.520662 
L 423.819812 152.584042 
L 424.353783 152.14573 
L 424.887754 152.190755 
L 425.421725 151.690852 
L 425.955697 152.114592 
L 426.489668 152.29273 
L 427.557611 152.107116 
L 428.091582 152.648587 
L 428.625553 152.284687 
L 429.693496 152.570828 
L 430.227467 151.94545 
L 430.761438 152.373726 
L 431.829381 152.544228 
L 432.363352 152.822214 
L 432.897324 152.360177 
L 433.431295 152.090089 
L 433.965266 152.535167 
L 435.033209 152.221624 
L 435.56718 152.436898 
L 436.101151 152.35947 
L 437.169094 152.520215 
L 437.703065 153.016444 
L 438.237036 151.731253 
L 438.771008 152.950878 
L 439.304979 152.456644 
L 440.372922 152.995511 
L 440.906893 152.141711 
L 441.440864 152.638712 
L 441.974836 152.800987 
L 443.042778 152.785811 
L 443.576749 152.008473 
L 444.110721 152.737062 
L 444.644692 152.400565 
L 445.178663 152.305675 
L 445.712635 151.975513 
L 446.246606 152.573437 
L 446.780577 151.750127 
L 447.314548 152.303332 
L 447.84852 148.524838 
L 448.382491 151.957175 
L 448.916462 151.768497 
L 449.450434 151.228879 
L 449.984405 149.876511 
L 450.518376 150.908245 
L 451.052347 150.634714 
L 451.586319 150.781189 
L 452.12029 151.133643 
L 452.654261 150.985306 
L 453.188233 151.421726 
L 453.722204 151.07346 
L 454.790147 151.445347 
L 455.324118 151.544725 
L 455.858089 151.284326 
L 456.39206 151.233488 
L 456.926032 151.776222 
L 457.460003 152.068305 
L 457.993974 151.888559 
L 458.527946 152.299186 
L 459.061917 152.396925 
L 459.595888 152.804566 
L 460.129859 151.928435 
L 461.197802 151.75361 
L 461.731773 152.006023 
L 462.265745 152.058703 
L 462.799716 151.994579 
L 463.333687 151.590229 
L 464.40163 151.647107 
L 464.935601 151.896192 
L 465.469572 151.728772 
L 466.537515 151.971596 
L 467.071486 151.477873 
L 468.139429 152.194692 
L 469.741343 152.161486 
L 470.275314 151.747277 
L 470.809285 151.809392 
L 471.343257 152.215417 
L 471.877228 152.396104 
L 472.411199 152.099389 
L 472.94517 152.378092 
L 474.547084 152.240698 
L 475.081056 151.902568 
L 475.615027 152.467766 
L 476.148998 152.124655 
L 476.682969 152.70934 
L 477.216941 152.230334 
L 477.750912 152.155856 
L 478.284883 152.355853 
L 478.818855 152.094614 
L 479.352826 152.597834 
L 479.886797 152.284626 
L 480.420769 151.680398 
L 480.95474 152.298811 
L 481.488711 152.390976 
L 482.022682 152.345511 
L 482.556654 151.894844 
L 483.090625 151.847075 
L 483.624596 152.100982 
L 484.158568 151.939378 
L 484.692539 152.30459 
L 485.760481 152.323955 
L 486.294453 151.872378 
L 486.828424 152.179649 
L 487.362395 152.235323 
L 487.896367 151.742924 
L 488.430338 151.994381 
L 488.964309 151.714282 
L 489.498281 152.59086 
L 490.032252 152.371201 
L 490.566223 152.410087 
L 491.100194 151.979833 
L 491.634166 152.13412 
L 492.702108 151.953103 
L 493.23608 152.663517 
L 493.770051 152.850887 
L 494.304022 152.335265 
L 494.837993 152.093904 
L 495.371965 152.09731 
L 495.905936 151.861739 
L 496.439907 152.22775 
L 496.973879 152.143963 
L 497.50785 151.920261 
L 498.041821 152.292448 
L 499.109764 151.608838 
L 499.643735 151.884717 
L 500.177706 151.948034 
L 501.245649 151.885639 
L 501.77962 151.98697 
L 502.313592 151.792668 
L 502.847563 151.911078 
L 503.381534 151.859503 
L 504.449477 151.98688 
L 504.983448 152.018334 
L 505.517419 152.415296 
L 506.585362 151.914235 
L 507.119333 151.89707 
L 508.187276 152.22128 
L 510.323161 151.399755 
L 510.857132 152.082493 
L 511.391103 151.858426 
L 511.925075 151.14337 
L 512.459046 151.339535 
L 512.993017 151.059344 
L 513.526989 151.37599 
L 515.128903 151.377481 
L 515.662874 151.680836 
L 516.730816 151.543694 
L 517.264788 150.926786 
L 518.33273 151.767019 
L 518.866702 151.616761 
L 519.400673 151.706296 
L 519.934644 151.076738 
L 520.468615 151.587845 
L 521.002587 151.442994 
L 521.536558 151.430316 
L 522.070529 151.547727 
L 522.604501 151.213943 
L 523.138472 151.582079 
L 523.672443 151.353998 
L 524.740386 151.507801 
L 525.808328 151.177908 
L 526.3423 151.384978 
L 527.944214 151.092115 
L 528.478185 151.176657 
L 529.012156 151.640328 
L 530.080099 151.604892 
L 530.61407 151.570655 
L 531.148041 151.945732 
L 532.215984 151.938915 
L 532.749955 151.661181 
L 533.283926 151.550083 
L 533.817898 151.205932 
L 534.88584 151.191742 
L 535.419812 151.686735 
L 535.953783 151.613083 
L 536.487754 151.852518 
L 537.021725 151.679496 
L 538.089668 152.207215 
L 541.293496 151.367225 
L 541.827467 151.667476 
L 542.89541 151.296849 
L 543.429381 151.849446 
L 543.963352 151.805784 
L 544.497324 151.328364 
L 545.031295 151.674293 
L 545.565266 151.743831 
L 546.099237 152.042436 
L 546.633209 151.830819 
L 547.16718 151.370385 
L 548.235123 151.709383 
L 548.769094 151.443255 
L 549.303065 151.744608 
L 549.837036 151.368646 
L 550.371008 151.488061 
L 550.904979 151.828688 
L 551.43895 151.146687 
L 551.972922 151.689779 
L 552.506893 151.498835 
L 553.574836 151.770987 
L 554.108807 151.543286 
L 554.642778 150.945401 
L 555.176749 151.778396 
L 555.710721 151.49887 
L 556.778663 151.858059 
L 557.846606 151.134675 
L 558.380577 151.486843 
L 558.914548 151.396916 
L 559.44852 151.719428 
L 559.982491 151.424326 
L 560.516462 151.788686 
L 561.050434 151.564222 
L 561.584405 151.705691 
L 562.118376 151.996654 
L 562.652347 151.92431 
L 563.186319 151.704387 
L 563.72029 152.328413 
L 564.788233 152.27705 
L 565.322204 151.88783 
L 566.924118 151.92844 
L 567.458089 152.307681 
L 568.526032 152.183362 
L 569.593974 152.189478 
L 570.127946 152.038944 
L 570.661917 152.635119 
L 571.195888 152.101613 
L 571.729859 151.938368 
L 572.263831 152.079164 
L 572.797802 151.71079 
L 573.331773 151.797494 
L 573.865745 151.646745 
L 574.399716 152.143108 
L 574.933687 151.99021 
L 575.467658 152.18414 
L 576.00163 152.22808 
L 576.535601 152.125307 
L 577.603544 151.692709 
L 578.137515 151.910702 
L 578.671486 151.764202 
L 579.739429 151.699157 
L 580.2734 152.14054 
L 580.807371 151.37151 
L 581.341343 151.636387 
L 581.875314 151.766142 
L 582.943257 151.713636 
L 583.477228 151.875768 
L 584.011199 151.39868 
L 584.54517 151.225943 
L 585.079142 151.535501 
L 585.613113 151.645419 
L 586.147084 151.240036 
L 587.215027 151.689344 
L 589.884883 151.53041 
L 590.418855 151.307105 
L 590.952826 151.856963 
L 592.020769 151.503902 
L 592.55474 151.979471 
L 593.088711 151.697348 
L 593.622682 151.934772 
L 594.156654 151.508816 
L 594.690625 152.151504 
L 595.224596 151.747737 
L 595.758568 151.834478 
L 596.292539 152.265236 
L 596.82651 151.941584 
L 597.360481 151.934039 
L 597.894453 151.171931 
L 598.428424 151.802155 
L 598.962395 152.066033 
L 600.030338 151.545989 
L 601.098281 151.575974 
L 601.632252 151.873294 
L 602.166223 151.918905 
L 602.700194 151.736145 
L 603.234166 151.989589 
L 603.768137 151.574647 
L 604.302108 151.879342 
L 605.904022 151.910117 
L 606.437993 151.70139 
L 606.971965 151.937435 
L 607.505936 152.009852 
L 608.039907 151.533277 
L 609.10785 152.084454 
L 609.641821 151.590728 
L 610.709764 152.446118 
L 611.777706 151.724952 
L 612.845649 152.141755 
L 613.37962 151.898353 
L 613.913592 152.1334 
L 614.447563 152.032246 
L 614.981534 152.398274 
L 615.515505 151.485606 
L 616.049477 151.919006 
L 616.583448 151.88307 
L 617.117419 151.55212 
L 617.651391 151.715725 
L 618.185362 152.216185 
L 618.719333 151.943226 
L 619.253304 151.526062 
L 619.787276 151.839099 
L 620.321247 152.344255 
L 620.855218 152.354418 
L 621.38919 151.937689 
L 621.923161 151.854042 
L 622.991103 152.403465 
L 623.525075 151.928993 
L 625.126989 152.361175 
L 625.126989 152.361175 
" clip-path="url(#p6350bc0ad5)" style="fill: none; stroke: #1f77b4; stroke-width: 1.5; stroke-linecap: square"/>
   </g>
   <g id="line2d_10">
    <path d="M 117.854261 257.658289 
L 118.388233 262.165711 
L 118.922204 291.943205 
L 119.456175 296.03625 
L 120.524118 271.11781 
L 121.058089 227.057898 
L 121.59206 207.5709 
L 122.126032 203.182002 
L 122.660003 203.974264 
L 123.193974 211.845554 
L 123.727946 205.520858 
L 124.261917 201.196422 
L 124.795888 195.910364 
L 125.329859 195.703205 
L 125.863831 192.753227 
L 126.397802 197.401453 
L 126.931773 172.184989 
L 127.465745 172.103903 
L 127.999716 169.627321 
L 128.533687 171.510379 
L 129.067658 166.488463 
L 129.60163 169.662831 
L 130.135601 167.766312 
L 130.669572 168.409239 
L 131.203544 168.391562 
L 131.737515 165.287616 
L 132.271486 166.881572 
L 132.805458 166.794035 
L 133.339429 165.094572 
L 133.8734 166.165148 
L 134.407371 165.451608 
L 134.941343 164.010929 
L 135.475314 163.25549 
L 136.009285 164.862355 
L 136.543257 163.978923 
L 137.077228 163.485609 
L 138.14517 161.702402 
L 138.679142 160.420844 
L 139.213113 164.815428 
L 139.747084 163.952454 
L 140.281056 162.432016 
L 140.815027 163.099974 
L 141.348998 162.512979 
L 141.882969 162.265303 
L 142.416941 163.58709 
L 142.950912 161.410305 
L 143.484883 162.710343 
L 144.018855 161.565435 
L 144.552826 161.16584 
L 145.086797 161.539059 
L 145.620769 162.557454 
L 146.15474 161.171452 
L 146.688711 161.384449 
L 147.222682 160.92679 
L 147.756654 160.831448 
L 148.824596 161.328739 
L 149.358568 161.196216 
L 149.892539 161.194354 
L 150.42651 161.482621 
L 150.960481 161.201429 
L 151.494453 159.7919 
L 152.028424 160.884693 
L 152.562395 160.064798 
L 153.096367 160.550759 
L 153.630338 162.077185 
L 154.164309 163.054654 
L 154.698281 160.376997 
L 155.232252 163.420413 
L 155.766223 160.81798 
L 156.300194 160.706714 
L 157.368137 162.97898 
L 157.902108 161.428681 
L 158.43608 160.805188 
L 159.504022 160.193846 
L 160.571965 162.631121 
L 161.105936 161.251941 
L 161.639907 159.442412 
L 162.173879 161.834268 
L 162.70785 161.591212 
L 163.241821 160.94865 
L 163.775792 161.58259 
L 164.309764 161.661909 
L 164.843735 162.60633 
L 165.911678 161.360388 
L 166.97962 161.703732 
L 167.513592 160.981433 
L 168.581534 161.378065 
L 169.649477 159.80897 
L 170.183448 160.21275 
L 170.717419 160.462935 
L 171.251391 161.088266 
L 172.319333 161.389012 
L 172.853304 160.004467 
L 173.387276 161.423814 
L 173.921247 161.588497 
L 174.455218 160.70362 
L 174.98919 161.311015 
L 175.523161 162.288528 
L 176.057132 161.574032 
L 176.591103 162.933584 
L 177.125075 162.761098 
L 177.659046 161.823109 
L 178.193017 163.255695 
L 178.726989 162.48772 
L 179.26096 162.510713 
L 179.794931 162.845991 
L 180.328903 162.220304 
L 180.862874 162.518876 
L 181.396845 163.464852 
L 181.930816 164.100062 
L 182.464788 161.71733 
L 182.998759 160.953926 
L 183.53273 162.188098 
L 184.600673 161.382858 
L 185.134644 162.157181 
L 185.668615 162.385889 
L 186.202587 160.804717 
L 186.736558 161.59229 
L 187.270529 161.478432 
L 187.804501 161.686822 
L 188.338472 162.509587 
L 188.872443 161.135064 
L 189.406414 161.60804 
L 189.940386 162.642114 
L 190.474357 163.370876 
L 191.008328 161.109782 
L 191.5423 153.752785 
L 192.076271 154.884893 
L 192.610242 154.642952 
L 193.144214 156.15602 
L 193.678185 156.257159 
L 194.212156 154.933457 
L 194.746127 156.047679 
L 195.280099 156.254787 
L 195.81407 157.181505 
L 196.348041 156.53724 
L 196.882013 156.437924 
L 197.415984 156.791371 
L 197.949955 156.526013 
L 198.483926 156.899174 
L 199.017898 156.612682 
L 199.551869 155.971204 
L 200.08584 156.374247 
L 201.153783 156.676973 
L 201.687754 156.380954 
L 202.221725 156.744293 
L 202.755697 156.508302 
L 203.823639 156.742195 
L 204.357611 156.015266 
L 204.891582 156.667905 
L 205.959525 156.571618 
L 206.493496 156.876875 
L 207.027467 157.011189 
L 208.09541 156.562438 
L 208.629381 157.11912 
L 209.163352 157.288222 
L 209.697324 156.918805 
L 210.231295 156.340906 
L 210.765266 157.068537 
L 211.299237 156.310565 
L 212.36718 155.798621 
L 212.901151 156.372213 
L 213.435123 156.620934 
L 214.503065 155.934658 
L 215.037036 155.997717 
L 215.571008 156.237635 
L 216.104979 156.252845 
L 216.63895 155.534283 
L 217.172922 156.106492 
L 217.706893 155.971055 
L 218.240864 155.262929 
L 218.774836 155.565248 
L 219.308807 155.523103 
L 219.842778 155.801346 
L 220.376749 156.566333 
L 220.910721 156.216639 
L 221.444692 156.133157 
L 221.978663 155.391582 
L 222.512635 155.66232 
L 223.046606 156.145638 
L 223.580577 155.672539 
L 224.114548 155.874484 
L 224.64852 155.743108 
L 225.182491 156.238413 
L 225.716462 155.989438 
L 226.784405 156.440338 
L 227.852347 155.672807 
L 228.386319 155.631246 
L 228.92029 155.827528 
L 229.454261 156.184732 
L 229.988233 155.693904 
L 230.522204 156.168457 
L 231.056175 156.299126 
L 231.590147 155.762169 
L 232.658089 156.752607 
L 233.19206 155.909613 
L 233.726032 156.437744 
L 234.793974 156.503263 
L 235.327946 156.287067 
L 235.861917 156.348738 
L 236.395888 156.141802 
L 236.929859 156.48928 
L 237.463831 155.958175 
L 237.997802 155.93672 
L 238.531773 156.125692 
L 239.065745 156.556642 
L 239.599716 156.08584 
L 240.133687 155.853602 
L 240.667658 156.224566 
L 241.735601 155.977781 
L 242.269572 156.594103 
L 242.803544 155.667991 
L 243.871486 156.37959 
L 244.405458 156.129236 
L 244.939429 156.608581 
L 245.4734 155.852199 
L 246.007371 155.933841 
L 246.541343 155.823862 
L 247.075314 156.261902 
L 247.609285 156.217012 
L 248.143257 156.433896 
L 248.677228 156.219792 
L 249.211199 156.336659 
L 249.74517 156.096349 
L 250.279142 156.14078 
L 250.813113 156.421176 
L 252.415027 156.095558 
L 252.948998 157.212045 
L 253.482969 156.587763 
L 254.016941 156.30008 
L 254.550912 156.348145 
L 255.084883 156.214621 
L 255.618855 156.433314 
L 256.152826 156.347303 
L 257.220769 156.730407 
L 257.75474 156.311451 
L 258.288711 156.422137 
L 258.822682 156.363393 
L 259.356654 156.605773 
L 261.492539 156.104843 
L 262.02651 156.384421 
L 262.560481 156.488825 
L 263.094453 156.398473 
L 263.628424 156.77701 
L 264.696367 156.438086 
L 265.230338 156.575574 
L 265.764309 156.895077 
L 266.298281 156.586644 
L 266.832252 156.758388 
L 267.366223 156.656062 
L 267.900194 156.965966 
L 268.968137 156.474212 
L 269.502108 156.979237 
L 271.104022 156.78095 
L 271.637993 157.101613 
L 272.171965 156.75467 
L 272.705936 156.551084 
L 273.773879 157.098151 
L 274.30785 156.494078 
L 274.841821 156.470489 
L 275.375792 156.88698 
L 275.909764 156.736063 
L 276.443735 156.7347 
L 276.977706 157.464837 
L 277.511678 157.245992 
L 278.045649 156.862099 
L 278.57962 156.935837 
L 279.113592 156.769388 
L 279.647563 157.033425 
L 280.181534 156.931994 
L 281.249477 157.300986 
L 281.783448 156.96563 
L 282.317419 157.144787 
L 283.385362 156.797355 
L 283.919333 157.022033 
L 284.453304 156.650283 
L 284.987276 156.643316 
L 285.521247 157.060201 
L 286.055218 156.635579 
L 287.123161 156.742267 
L 287.657132 156.495117 
L 288.191103 156.37065 
L 288.725075 156.805563 
L 289.259046 157.010789 
L 289.793017 156.41239 
L 290.326989 156.30752 
L 290.86096 156.518043 
L 291.394931 154.394413 
L 291.928903 153.868807 
L 292.462874 154.745371 
L 292.996845 154.964107 
L 293.530816 155.882272 
L 295.13273 155.2932 
L 296.200673 155.89478 
L 296.734644 155.705633 
L 297.268615 155.735094 
L 297.802587 156.291481 
L 298.870529 155.58715 
L 299.404501 155.645655 
L 299.938472 153.043477 
L 300.472443 154.084499 
L 301.006414 154.435394 
L 301.540386 154.271206 
L 302.074357 154.535556 
L 302.608328 155.139117 
L 303.1423 154.806182 
L 303.676271 155.013079 
L 304.210242 154.635972 
L 304.744214 155.060609 
L 305.278185 155.242783 
L 305.812156 154.710172 
L 306.346127 155.23496 
L 307.948041 154.912978 
L 308.482013 154.600437 
L 309.015984 154.867425 
L 309.549955 154.496443 
L 310.083926 155.003689 
L 311.151869 155.096093 
L 311.68584 154.993173 
L 312.219812 155.095595 
L 312.753783 155.423929 
L 314.355697 155.077029 
L 314.889668 155.272574 
L 315.423639 154.511676 
L 315.957611 155.031347 
L 316.491582 155.333706 
L 317.025553 155.833112 
L 317.559525 155.491651 
L 318.627467 155.26391 
L 319.161438 155.533926 
L 319.69541 155.532608 
L 320.229381 155.347737 
L 320.763352 155.905205 
L 321.831295 155.375726 
L 322.365266 155.269938 
L 322.899237 155.835803 
L 323.96718 155.153243 
L 325.569094 155.751553 
L 326.637036 155.403771 
L 327.171008 155.480373 
L 327.704979 155.800394 
L 328.23895 155.63988 
L 328.772922 156.279948 
L 329.306893 155.760215 
L 330.374836 155.431543 
L 331.976749 155.709706 
L 332.510721 155.219692 
L 333.044692 155.442174 
L 333.578663 155.890347 
L 334.646606 156.019055 
L 335.180577 155.491745 
L 336.782491 155.350416 
L 337.316462 155.346429 
L 337.850434 155.665712 
L 338.384405 155.630159 
L 338.918376 156.297099 
L 339.452347 155.577022 
L 339.986319 154.636774 
L 340.52029 155.540049 
L 341.588233 155.596634 
L 342.122204 155.315462 
L 342.656175 155.58118 
L 343.190147 154.986037 
L 344.79206 155.552048 
L 346.927946 155.310278 
L 347.461917 155.408083 
L 347.995888 155.196475 
L 348.529859 155.538965 
L 349.063831 155.442706 
L 349.597802 155.091318 
L 350.131773 153.608385 
L 351.199716 154.714612 
L 351.733687 154.891346 
L 352.267658 154.903836 
L 352.80163 154.621878 
L 353.335601 155.658852 
L 353.869572 155.249258 
L 354.403544 155.713823 
L 354.937515 155.021825 
L 356.005458 155.150075 
L 356.539429 155.154992 
L 357.0734 155.317545 
L 357.607371 155.151199 
L 358.141343 155.264146 
L 358.675314 155.587818 
L 360.811199 155.074538 
L 361.34517 155.645964 
L 361.879142 155.841646 
L 362.413113 155.354586 
L 362.947084 155.051135 
L 363.481056 155.565542 
L 364.015027 155.17962 
L 364.548998 155.260668 
L 365.082969 155.475398 
L 365.616941 155.165695 
L 366.150912 155.24334 
L 366.684883 155.072499 
L 367.218855 155.269896 
L 367.752826 154.818812 
L 368.286797 155.188621 
L 368.820769 155.108289 
L 369.35474 154.669359 
L 369.888711 155.152197 
L 370.422682 155.156871 
L 370.956654 154.848813 
L 371.490625 155.390366 
L 372.024596 155.278702 
L 372.558568 155.436354 
L 373.092539 155.245938 
L 373.62651 155.244318 
L 374.160481 154.974139 
L 374.694453 155.382234 
L 375.228424 155.004301 
L 375.762395 154.988872 
L 376.296367 155.262399 
L 377.364309 155.096087 
L 377.898281 154.837695 
L 378.966223 155.423065 
L 379.500194 155.028617 
L 380.034166 155.512282 
L 380.568137 155.296887 
L 381.102108 155.225788 
L 381.63608 154.743231 
L 382.170051 155.366563 
L 383.237993 155.130873 
L 383.771965 154.707484 
L 384.305936 154.986333 
L 385.373879 154.818989 
L 385.90785 155.046058 
L 386.441821 154.702934 
L 387.509764 155.039919 
L 388.043735 154.975369 
L 388.577706 155.334182 
L 389.111678 154.849228 
L 389.645649 155.037184 
L 390.17962 154.970428 
L 390.713592 155.284791 
L 391.247563 154.96514 
L 391.781534 155.305088 
L 392.315505 154.640369 
L 392.849477 155.181552 
L 394.451391 155.488724 
L 394.985362 154.730194 
L 396.587276 154.930242 
L 397.121247 155.111416 
L 397.655218 155.045237 
L 398.18919 155.248884 
L 398.723161 154.713462 
L 399.257132 154.878149 
L 399.791103 155.207209 
L 400.325075 154.545471 
L 401.393017 155.620813 
L 401.926989 155.274956 
L 402.46096 155.497977 
L 402.994931 155.070469 
L 403.528903 155.350361 
L 404.062874 154.947572 
L 404.596845 155.52839 
L 405.130816 155.107947 
L 405.664788 155.580213 
L 406.198759 155.139409 
L 406.73273 155.178293 
L 407.266702 155.381478 
L 407.800673 155.187845 
L 408.334644 155.494437 
L 408.868615 155.217882 
L 409.402587 155.285562 
L 409.936558 155.031702 
L 410.470529 155.296398 
L 411.004501 154.910107 
L 411.538472 155.275375 
L 412.072443 155.15732 
L 412.606414 155.31056 
L 413.674357 155.333147 
L 414.7423 154.904764 
L 415.276271 155.58039 
L 416.344214 155.156327 
L 416.878185 155.373803 
L 417.412156 155.249042 
L 417.946127 155.254083 
L 418.480099 155.55925 
L 419.01407 155.219763 
L 419.548041 155.562492 
L 420.082013 155.304436 
L 422.217898 155.284766 
L 423.28584 155.369909 
L 424.353783 155.254357 
L 424.887754 155.33416 
L 425.421725 155.032186 
L 426.489668 155.323129 
L 427.023639 155.204486 
L 427.557611 155.311507 
L 428.091582 155.125744 
L 429.693496 155.663483 
L 430.227467 155.077817 
L 430.761438 154.902083 
L 431.29541 155.02242 
L 431.829381 155.328052 
L 433.431295 155.428283 
L 433.965266 155.442195 
L 434.499237 155.699922 
L 436.101151 155.499555 
L 436.635123 155.280517 
L 437.703065 155.843515 
L 438.237036 154.460927 
L 438.771008 155.107892 
L 441.440864 155.057375 
L 441.974836 155.366999 
L 442.508807 155.084903 
L 443.042778 153.80868 
L 443.576749 154.421182 
L 444.110721 154.517176 
L 444.644692 154.371533 
L 445.178663 155.156259 
L 446.246606 155.151924 
L 446.780577 154.886121 
L 447.314548 155.168401 
L 447.84852 151.549215 
L 448.382491 153.671801 
L 448.916462 154.210377 
L 449.450434 153.137968 
L 449.984405 153.212823 
L 450.518376 153.538874 
L 451.052347 153.63788 
L 451.586319 153.866057 
L 452.12029 153.574882 
L 452.654261 153.807505 
L 453.188233 153.786339 
L 453.722204 153.559401 
L 454.256175 154.12274 
L 454.790147 153.933107 
L 455.324118 154.043313 
L 455.858089 153.748751 
L 456.39206 154.127582 
L 456.926032 154.275268 
L 457.460003 153.823059 
L 457.993974 153.913277 
L 458.527946 154.303842 
L 459.061917 154.969832 
L 459.595888 153.886911 
L 460.129859 153.764402 
L 461.197802 154.095029 
L 461.731773 153.892431 
L 462.265745 154.085215 
L 462.799716 153.970061 
L 463.333687 154.195834 
L 463.867658 154.003589 
L 464.40163 154.439732 
L 464.935601 154.185034 
L 465.469572 154.274745 
L 466.003544 154.164723 
L 466.537515 154.349258 
L 467.071486 154.215334 
L 467.605458 153.931444 
L 469.207371 154.356585 
L 469.741343 154.372823 
L 470.275314 154.028425 
L 470.809285 154.139414 
L 471.343257 154.375035 
L 472.411199 154.007671 
L 472.94517 154.379753 
L 473.479142 154.30798 
L 474.013113 153.920567 
L 474.547084 154.074949 
L 475.081056 154.48548 
L 475.615027 154.264881 
L 476.148998 154.224904 
L 476.682969 154.30137 
L 477.216941 153.986259 
L 478.818855 154.153079 
L 479.352826 154.133734 
L 479.886797 154.287122 
L 481.488711 154.271796 
L 482.022682 153.937811 
L 483.090625 154.089754 
L 483.624596 154.338696 
L 484.158568 153.865401 
L 484.692539 153.971171 
L 485.22651 153.877875 
L 487.362395 154.158169 
L 488.430338 153.920859 
L 488.964309 154.317894 
L 489.498281 154.224999 
L 490.032252 154.446094 
L 491.100194 154.076167 
L 492.168137 154.223886 
L 492.702108 153.940132 
L 493.23608 154.107708 
L 494.837993 154.023793 
L 495.905936 154.114796 
L 496.439907 153.951738 
L 496.973879 154.329505 
L 497.50785 154.126174 
L 499.109764 154.319701 
L 499.643735 154.315378 
L 500.177706 154.621295 
L 501.245649 153.964944 
L 502.313592 154.028827 
L 502.847563 154.227184 
L 505.517419 154.378203 
L 506.051391 154.049099 
L 506.585362 153.978356 
L 507.119333 154.58294 
L 507.653304 154.206178 
L 508.187276 154.275986 
L 508.721247 154.143732 
L 509.255218 154.319655 
L 509.78919 154.376685 
L 510.323161 154.080599 
L 510.857132 154.252721 
L 511.925075 154.154387 
L 512.459046 153.922477 
L 512.993017 154.097532 
L 513.526989 154.597194 
L 514.06096 153.976399 
L 514.594931 154.136974 
L 515.128903 153.96186 
L 515.662874 154.141673 
L 516.196845 154.478791 
L 516.730816 154.129619 
L 517.798759 153.999698 
L 518.33273 154.097529 
L 518.866702 154.352394 
L 519.400673 154.116491 
L 521.002587 154.07981 
L 521.536558 154.264089 
L 522.070529 154.060622 
L 522.604501 154.013722 
L 523.138472 154.207735 
L 523.672443 153.979308 
L 524.206414 154.218602 
L 525.274357 154.080605 
L 525.808328 154.243596 
L 526.3423 153.864804 
L 528.478185 153.877679 
L 529.012156 153.959656 
L 529.546127 153.795453 
L 530.080099 153.773476 
L 530.61407 154.186488 
L 531.682013 153.700009 
L 532.215984 153.946222 
L 532.749955 154.06566 
L 533.283926 153.754328 
L 533.817898 154.287848 
L 535.419812 153.849293 
L 536.487754 153.528761 
L 537.021725 153.87291 
L 537.555697 153.786487 
L 538.089668 153.579352 
L 538.623639 153.644116 
L 539.157611 153.925112 
L 539.691582 153.711868 
L 540.225553 153.664731 
L 541.293496 153.907606 
L 541.827467 153.79868 
L 542.361438 154.055372 
L 543.429381 153.587292 
L 543.963352 153.925825 
L 544.497324 153.770486 
L 545.031295 153.886633 
L 545.565266 153.472232 
L 546.099237 154.056653 
L 546.633209 153.617917 
L 547.16718 153.571063 
L 548.235123 153.9403 
L 548.769094 153.841082 
L 549.837036 154.012851 
L 550.904979 153.814185 
L 551.43895 153.871481 
L 551.972922 153.812954 
L 552.506893 154.077296 
L 553.040864 153.678675 
L 553.574836 153.96379 
L 554.108807 153.987649 
L 554.642778 153.71852 
L 555.176749 153.826589 
L 555.710721 154.332645 
L 556.244692 153.935132 
L 556.778663 154.064574 
L 557.312635 153.981866 
L 558.380577 154.219335 
L 558.914548 154.053844 
L 561.050434 154.018075 
L 561.584405 153.842495 
L 562.118376 154.030466 
L 563.186319 154.052931 
L 563.72029 153.843973 
L 564.788233 153.90353 
L 565.322204 153.818086 
L 565.856175 154.2799 
L 566.924118 153.933575 
L 567.458089 154.300037 
L 567.99206 153.893896 
L 569.060003 154.058179 
L 569.593974 153.92214 
L 570.127946 154.22361 
L 570.661917 153.862036 
L 571.195888 153.693224 
L 571.729859 153.719976 
L 572.263831 153.987266 
L 572.797802 154.112372 
L 573.331773 153.760369 
L 573.865745 153.934932 
L 574.399716 153.758076 
L 574.933687 154.126527 
L 576.00163 153.698017 
L 577.603544 153.836213 
L 578.137515 153.927989 
L 578.671486 154.164977 
L 579.205458 154.133394 
L 579.739429 153.938669 
L 580.2734 154.325476 
L 580.807371 154.558286 
L 581.341343 154.414128 
L 581.875314 154.028473 
L 582.409285 154.414489 
L 582.943257 154.491601 
L 583.477228 154.373761 
L 584.011199 153.969343 
L 584.54517 154.198198 
L 585.079142 153.895323 
L 585.613113 153.924063 
L 586.147084 154.150303 
L 587.748998 153.796347 
L 588.282969 153.902566 
L 588.816941 153.840236 
L 589.350912 154.118608 
L 589.884883 153.73167 
L 590.418855 153.699172 
L 592.020769 154.417767 
L 592.55474 153.697973 
L 593.088711 154.16362 
L 593.622682 153.967527 
L 594.156654 154.424971 
L 594.690625 154.075927 
L 595.224596 153.943741 
L 595.758568 154.111361 
L 596.292539 154.029278 
L 596.82651 154.3959 
L 597.360481 154.279221 
L 597.894453 153.731126 
L 598.428424 153.933458 
L 598.962395 153.759584 
L 599.496367 154.252961 
L 601.098281 154.214123 
L 601.632252 153.817382 
L 602.166223 153.954916 
L 602.700194 153.954131 
L 603.234166 154.139536 
L 603.768137 153.998398 
L 604.302108 154.01198 
L 604.83608 153.770395 
L 605.370051 153.984374 
L 605.904022 153.803639 
L 606.437993 153.896815 
L 606.971965 154.327526 
L 608.039907 154.01714 
L 608.573879 154.148716 
L 609.10785 154.020145 
L 609.641821 153.737345 
L 610.709764 154.148158 
L 611.243735 154.160656 
L 611.777706 154.289256 
L 612.311678 154.099192 
L 613.37962 154.258271 
L 613.913592 154.43969 
L 614.447563 154.466777 
L 614.981534 154.188428 
L 615.515505 154.177265 
L 616.049477 153.911907 
L 616.583448 154.21176 
L 617.117419 153.868858 
L 618.185362 153.936139 
L 618.719333 153.989305 
L 619.253304 153.910832 
L 619.787276 154.05375 
L 620.321247 154.331082 
L 620.855218 154.389428 
L 621.38919 153.938845 
L 622.457132 154.264901 
L 622.991103 154.185355 
L 623.525075 153.866401 
L 624.059046 154.115681 
L 625.126989 154.051252 
L 625.126989 154.051252 
" clip-path="url(#p6350bc0ad5)" style="fill: none; stroke: #ff7f0e; stroke-width: 1.5; stroke-linecap: square"/>
   </g>
   <g id="patch_3">
    <path d="M 92.490625 308.63625 
L 92.490625 31.43625 
" style="fill: none; stroke: #000000; stroke-width: 0.8; stroke-linejoin: miter; stroke-linecap: square"/>
   </g>
   <g id="patch_4">
    <path d="M 650.490625 308.63625 
L 650.490625 31.43625 
" style="fill: none; stroke: #000000; stroke-width: 0.8; stroke-linejoin: miter; stroke-linecap: square"/>
   </g>
   <g id="patch_5">
    <path d="M 92.490625 308.63625 
L 650.490625 308.63625 
" style="fill: none; stroke: #000000; stroke-width: 0.8; stroke-linejoin: miter; stroke-linecap: square"/>
   </g>
   <g id="patch_6">
    <path d="M 92.490625 31.43625 
L 650.490625 31.43625 
" style="fill: none; stroke: #000000; stroke-width: 0.8; stroke-linejoin: miter; stroke-linecap: square"/>
   </g>
   <g id="text_11">
    <!-- Generator and Discriminator Loss During Training -->
    <g transform="translate(74.258125 25.43625) scale(0.24 -0.24)">
     <defs>
      <path id="DejaVuSans-47" d="M 3809 666 
L 3809 1919 
L 2778 1919 
L 2778 2438 
L 4434 2438 
L 4434 434 
Q 4069 175 3628 42 
Q 3188 -91 2688 -91 
Q 1594 -91 976 548 
Q 359 1188 359 2328 
Q 359 3472 976 4111 
Q 1594 4750 2688 4750 
Q 3144 4750 3555 4637 
Q 3966 4525 4313 4306 
L 4313 3634 
Q 3963 3931 3569 4081 
Q 3175 4231 2741 4231 
Q 1884 4231 1454 3753 
Q 1025 3275 1025 2328 
Q 1025 1384 1454 906 
Q 1884 428 2741 428 
Q 3075 428 3337 486 
Q 3600 544 3809 666 
z
" transform="scale(0.015625)"/>
      <path id="DejaVuSans-20" transform="scale(0.015625)"/>
      <path id="DejaVuSans-64" d="M 2906 2969 
L 2906 4863 
L 3481 4863 
L 3481 0 
L 2906 0 
L 2906 525 
Q 2725 213 2448 61 
Q 2172 -91 1784 -91 
Q 1150 -91 751 415 
Q 353 922 353 1747 
Q 353 2572 751 3078 
Q 1150 3584 1784 3584 
Q 2172 3584 2448 3432 
Q 2725 3281 2906 2969 
z
M 947 1747 
Q 947 1113 1208 752 
Q 1469 391 1925 391 
Q 2381 391 2643 752 
Q 2906 1113 2906 1747 
Q 2906 2381 2643 2742 
Q 2381 3103 1925 3103 
Q 1469 3103 1208 2742 
Q 947 2381 947 1747 
z
" transform="scale(0.015625)"/>
      <path id="DejaVuSans-44" d="M 1259 4147 
L 1259 519 
L 2022 519 
Q 2988 519 3436 956 
Q 3884 1394 3884 2338 
Q 3884 3275 3436 3711 
Q 2988 4147 2022 4147 
L 1259 4147 
z
M 628 4666 
L 1925 4666 
Q 3281 4666 3915 4102 
Q 4550 3538 4550 2338 
Q 4550 1131 3912 565 
Q 3275 0 1925 0 
L 628 0 
L 628 4666 
z
" transform="scale(0.015625)"/>
      <path id="DejaVuSans-63" d="M 3122 3366 
L 3122 2828 
Q 2878 2963 2633 3030 
Q 2388 3097 2138 3097 
Q 1578 3097 1268 2742 
Q 959 2388 959 1747 
Q 959 1106 1268 751 
Q 1578 397 2138 397 
Q 2388 397 2633 464 
Q 2878 531 3122 666 
L 3122 134 
Q 2881 22 2623 -34 
Q 2366 -91 2075 -91 
Q 1284 -91 818 406 
Q 353 903 353 1747 
Q 353 2603 823 3093 
Q 1294 3584 2113 3584 
Q 2378 3584 2631 3529 
Q 2884 3475 3122 3366 
z
" transform="scale(0.015625)"/>
      <path id="DejaVuSans-6d" d="M 3328 2828 
Q 3544 3216 3844 3400 
Q 4144 3584 4550 3584 
Q 5097 3584 5394 3201 
Q 5691 2819 5691 2113 
L 5691 0 
L 5113 0 
L 5113 2094 
Q 5113 2597 4934 2840 
Q 4756 3084 4391 3084 
Q 3944 3084 3684 2787 
Q 3425 2491 3425 1978 
L 3425 0 
L 2847 0 
L 2847 2094 
Q 2847 2600 2669 2842 
Q 2491 3084 2119 3084 
Q 1678 3084 1418 2786 
Q 1159 2488 1159 1978 
L 1159 0 
L 581 0 
L 581 3500 
L 1159 3500 
L 1159 2956 
Q 1356 3278 1631 3431 
Q 1906 3584 2284 3584 
Q 2666 3584 2933 3390 
Q 3200 3197 3328 2828 
z
" transform="scale(0.015625)"/>
      <path id="DejaVuSans-75" d="M 544 1381 
L 544 3500 
L 1119 3500 
L 1119 1403 
Q 1119 906 1312 657 
Q 1506 409 1894 409 
Q 2359 409 2629 706 
Q 2900 1003 2900 1516 
L 2900 3500 
L 3475 3500 
L 3475 0 
L 2900 0 
L 2900 538 
Q 2691 219 2414 64 
Q 2138 -91 1772 -91 
Q 1169 -91 856 284 
Q 544 659 544 1381 
z
M 1991 3584 
L 1991 3584 
z
" transform="scale(0.015625)"/>
      <path id="DejaVuSans-67" d="M 2906 1791 
Q 2906 2416 2648 2759 
Q 2391 3103 1925 3103 
Q 1463 3103 1205 2759 
Q 947 2416 947 1791 
Q 947 1169 1205 825 
Q 1463 481 1925 481 
Q 2391 481 2648 825 
Q 2906 1169 2906 1791 
z
M 3481 434 
Q 3481 -459 3084 -895 
Q 2688 -1331 1869 -1331 
Q 1566 -1331 1297 -1286 
Q 1028 -1241 775 -1147 
L 775 -588 
Q 1028 -725 1275 -790 
Q 1522 -856 1778 -856 
Q 2344 -856 2625 -561 
Q 2906 -266 2906 331 
L 2906 616 
Q 2728 306 2450 153 
Q 2172 0 1784 0 
Q 1141 0 747 490 
Q 353 981 353 1791 
Q 353 2603 747 3093 
Q 1141 3584 1784 3584 
Q 2172 3584 2450 3431 
Q 2728 3278 2906 2969 
L 2906 3500 
L 3481 3500 
L 3481 434 
z
" transform="scale(0.015625)"/>
      <path id="DejaVuSans-54" d="M -19 4666 
L 3928 4666 
L 3928 4134 
L 2272 4134 
L 2272 0 
L 1638 0 
L 1638 4134 
L -19 4134 
L -19 4666 
z
" transform="scale(0.015625)"/>
     </defs>
     <use xlink:href="#DejaVuSans-47"/>
     <use xlink:href="#DejaVuSans-65" x="77.490234"/>
     <use xlink:href="#DejaVuSans-6e" x="139.013672"/>
     <use xlink:href="#DejaVuSans-65" x="202.392578"/>
     <use xlink:href="#DejaVuSans-72" x="263.916016"/>
     <use xlink:href="#DejaVuSans-61" x="305.029297"/>
     <use xlink:href="#DejaVuSans-74" x="366.308594"/>
     <use xlink:href="#DejaVuSans-6f" x="405.517578"/>
     <use xlink:href="#DejaVuSans-72" x="466.699219"/>
     <use xlink:href="#DejaVuSans-20" x="507.8125"/>
     <use xlink:href="#DejaVuSans-61" x="539.599609"/>
     <use xlink:href="#DejaVuSans-6e" x="600.878906"/>
     <use xlink:href="#DejaVuSans-64" x="664.257812"/>
     <use xlink:href="#DejaVuSans-20" x="727.734375"/>
     <use xlink:href="#DejaVuSans-44" x="759.521484"/>
     <use xlink:href="#DejaVuSans-69" x="836.523438"/>
     <use xlink:href="#DejaVuSans-73" x="864.306641"/>
     <use xlink:href="#DejaVuSans-63" x="916.40625"/>
     <use xlink:href="#DejaVuSans-72" x="971.386719"/>
     <use xlink:href="#DejaVuSans-69" x="1012.5"/>
     <use xlink:href="#DejaVuSans-6d" x="1040.283203"/>
     <use xlink:href="#DejaVuSans-69" x="1137.695312"/>
     <use xlink:href="#DejaVuSans-6e" x="1165.478516"/>
     <use xlink:href="#DejaVuSans-61" x="1228.857422"/>
     <use xlink:href="#DejaVuSans-74" x="1290.136719"/>
     <use xlink:href="#DejaVuSans-6f" x="1329.345703"/>
     <use xlink:href="#DejaVuSans-72" x="1390.527344"/>
     <use xlink:href="#DejaVuSans-20" x="1431.640625"/>
     <use xlink:href="#DejaVuSans-4c" x="1463.427734"/>
     <use xlink:href="#DejaVuSans-6f" x="1517.390625"/>
     <use xlink:href="#DejaVuSans-73" x="1578.572266"/>
     <use xlink:href="#DejaVuSans-73" x="1630.671875"/>
     <use xlink:href="#DejaVuSans-20" x="1682.771484"/>
     <use xlink:href="#DejaVuSans-44" x="1714.558594"/>
     <use xlink:href="#DejaVuSans-75" x="1791.560547"/>
     <use xlink:href="#DejaVuSans-72" x="1854.939453"/>
     <use xlink:href="#DejaVuSans-69" x="1896.052734"/>
     <use xlink:href="#DejaVuSans-6e" x="1923.835938"/>
     <use xlink:href="#DejaVuSans-67" x="1987.214844"/>
     <use xlink:href="#DejaVuSans-20" x="2050.691406"/>
     <use xlink:href="#DejaVuSans-54" x="2082.478516"/>
     <use xlink:href="#DejaVuSans-72" x="2128.8125"/>
     <use xlink:href="#DejaVuSans-61" x="2169.925781"/>
     <use xlink:href="#DejaVuSans-69" x="2231.205078"/>
     <use xlink:href="#DejaVuSans-6e" x="2258.988281"/>
     <use xlink:href="#DejaVuSans-69" x="2322.367188"/>
     <use xlink:href="#DejaVuSans-6e" x="2350.150391"/>
     <use xlink:href="#DejaVuSans-67" x="2413.529297"/>
    </g>
   </g>
   <g id="legend_1">
    <g id="patch_7">
     <path d="M 556.99375 106.14875 
L 636.490625 106.14875 
Q 640.490625 106.14875 640.490625 102.14875 
L 640.490625 45.43625 
Q 640.490625 41.43625 636.490625 41.43625 
L 556.99375 41.43625 
Q 552.99375 41.43625 552.99375 45.43625 
L 552.99375 102.14875 
Q 552.99375 106.14875 556.99375 106.14875 
z
" style="fill: #ffffff; opacity: 0.8; stroke: #cccccc; stroke-linejoin: miter"/>
    </g>
    <g id="line2d_11">
     <path d="M 560.99375 57.633125 
L 580.99375 57.633125 
L 600.99375 57.633125 
" style="fill: none; stroke: #1f77b4; stroke-width: 1.5; stroke-linecap: square"/>
    </g>
    <g id="text_12">
     <!-- G -->
     <g transform="translate(616.99375 64.633125) scale(0.2 -0.2)">
      <use xlink:href="#DejaVuSans-47"/>
     </g>
    </g>
    <g id="line2d_12">
     <path d="M 560.99375 86.989375 
L 580.99375 86.989375 
L 600.99375 86.989375 
" style="fill: none; stroke: #ff7f0e; stroke-width: 1.5; stroke-linecap: square"/>
    </g>
    <g id="text_13">
     <!-- D -->
     <g transform="translate(616.99375 93.989375) scale(0.2 -0.2)">
      <use xlink:href="#DejaVuSans-44"/>
     </g>
    </g>
   </g>
  </g>
 </g>
 <defs>
  <clipPath id="p6350bc0ad5">
   <rect x="92.490625" y="31.43625" width="558" height="277.2"/>
  </clipPath>
 </defs>
</svg>
