<?xml version="1.0" encoding="utf-8" standalone="no"?>
<!DOCTYPE svg PUBLIC "-//W3C//DTD SVG 1.1//EN"
  "http://www.w3.org/Graphics/SVG/1.1/DTD/svg11.dtd">
<svg xmlns:xlink="http://www.w3.org/1999/xlink" width="675.923125pt" height="365.54875pt" viewBox="0 0 675.923125 365.54875" xmlns="http://www.w3.org/2000/svg" version="1.1">
 <metadata>
  <rdf:RDF xmlns:dc="http://purl.org/dc/elements/1.1/" xmlns:cc="http://creativecommons.org/ns#" xmlns:rdf="http://www.w3.org/1999/02/22-rdf-syntax-ns#">
   <cc:Work>
    <dc:type rdf:resource="http://purl.org/dc/dcmitype/StillImage"/>
    <dc:date>2024-02-01T21:29:41.192198</dc:date>
    <dc:format>image/svg+xml</dc:format>
    <dc:creator>
     <cc:Agent>
      <dc:title>Matplotlib v3.7.2, https://matplotlib.org/</dc:title>
     </cc:Agent>
    </dc:creator>
   </cc:Work>
  </rdf:RDF>
 </metadata>
 <defs>
  <style type="text/css">*{stroke-linejoin: round; stroke-linecap: butt}</style>
 </defs>
 <g id="figure_1">
  <g id="patch_1">
   <path d="M 0 365.54875 
L 675.923125 365.54875 
L 675.923125 -0 
L 0 -0 
z
" style="fill: #ffffff"/>
  </g>
  <g id="axes_1">
   <g id="patch_2">
    <path d="M 92.490625 308.63625 
L 650.490625 308.63625 
L 650.490625 31.43625 
L 92.490625 31.43625 
z
" style="fill: #ffffff"/>
   </g>
   <g id="matplotlib.axis_1">
    <g id="xtick_1">
     <g id="line2d_1">
      <defs>
       <path id="md2044154e5" d="M 0 0 
L 0 3.5 
" style="stroke: #000000; stroke-width: 0.8"/>
      </defs>
      <g>
       <use xlink:href="#md2044154e5" x="117.854261" y="308.63625" style="stroke: #000000; stroke-width: 0.8"/>
      </g>
     </g>
     <g id="text_1">
      <!-- 0 -->
      <g transform="translate(111.491761 330.833125) scale(0.2 -0.2)">
       <defs>
        <path id="DejaVuSans-30" d="M 2034 4250 
Q 1547 4250 1301 3770 
Q 1056 3291 1056 2328 
Q 1056 1369 1301 889 
Q 1547 409 2034 409 
Q 2525 409 2770 889 
Q 3016 1369 3016 2328 
Q 3016 3291 2770 3770 
Q 2525 4250 2034 4250 
z
M 2034 4750 
Q 2819 4750 3233 4129 
Q 3647 3509 3647 2328 
Q 3647 1150 3233 529 
Q 2819 -91 2034 -91 
Q 1250 -91 836 529 
Q 422 1150 422 2328 
Q 422 3509 836 4129 
Q 1250 4750 2034 4750 
z
" transform="scale(0.015625)"/>
       </defs>
       <use xlink:href="#DejaVuSans-30"/>
      </g>
     </g>
    </g>
    <g id="xtick_2">
     <g id="line2d_2">
      <g>
       <use xlink:href="#md2044154e5" x="182.889226" y="308.63625" style="stroke: #000000; stroke-width: 0.8"/>
      </g>
     </g>
     <g id="text_2">
      <!-- 250 -->
      <g transform="translate(163.801726 330.833125) scale(0.2 -0.2)">
       <defs>
        <path id="DejaVuSans-32" d="M 1228 531 
L 3431 531 
L 3431 0 
L 469 0 
L 469 531 
Q 828 903 1448 1529 
Q 2069 2156 2228 2338 
Q 2531 2678 2651 2914 
Q 2772 3150 2772 3378 
Q 2772 3750 2511 3984 
Q 2250 4219 1831 4219 
Q 1534 4219 1204 4116 
Q 875 4013 500 3803 
L 500 4441 
Q 881 4594 1212 4672 
Q 1544 4750 1819 4750 
Q 2544 4750 2975 4387 
Q 3406 4025 3406 3419 
Q 3406 3131 3298 2873 
Q 3191 2616 2906 2266 
Q 2828 2175 2409 1742 
Q 1991 1309 1228 531 
z
" transform="scale(0.015625)"/>
        <path id="DejaVuSans-35" d="M 691 4666 
L 3169 4666 
L 3169 4134 
L 1269 4134 
L 1269 2991 
Q 1406 3038 1543 3061 
Q 1681 3084 1819 3084 
Q 2600 3084 3056 2656 
Q 3513 2228 3513 1497 
Q 3513 744 3044 326 
Q 2575 -91 1722 -91 
Q 1428 -91 1123 -41 
Q 819 9 494 109 
L 494 744 
Q 775 591 1075 516 
Q 1375 441 1709 441 
Q 2250 441 2565 725 
Q 2881 1009 2881 1497 
Q 2881 1984 2565 2268 
Q 2250 2553 1709 2553 
Q 1456 2553 1204 2497 
Q 953 2441 691 2322 
L 691 4666 
z
" transform="scale(0.015625)"/>
       </defs>
       <use xlink:href="#DejaVuSans-32"/>
       <use xlink:href="#DejaVuSans-35" x="63.623047"/>
       <use xlink:href="#DejaVuSans-30" x="127.246094"/>
      </g>
     </g>
    </g>
    <g id="xtick_3">
     <g id="line2d_3">
      <g>
       <use xlink:href="#md2044154e5" x="247.924191" y="308.63625" style="stroke: #000000; stroke-width: 0.8"/>
      </g>
     </g>
     <g id="text_3">
      <!-- 500 -->
      <g transform="translate(228.836691 330.833125) scale(0.2 -0.2)">
       <use xlink:href="#DejaVuSans-35"/>
       <use xlink:href="#DejaVuSans-30" x="63.623047"/>
       <use xlink:href="#DejaVuSans-30" x="127.246094"/>
      </g>
     </g>
    </g>
    <g id="xtick_4">
     <g id="line2d_4">
      <g>
       <use xlink:href="#md2044154e5" x="312.959156" y="308.63625" style="stroke: #000000; stroke-width: 0.8"/>
      </g>
     </g>
     <g id="text_4">
      <!-- 750 -->
      <g transform="translate(293.871656 330.833125) scale(0.2 -0.2)">
       <defs>
        <path id="DejaVuSans-37" d="M 525 4666 
L 3525 4666 
L 3525 4397 
L 1831 0 
L 1172 0 
L 2766 4134 
L 525 4134 
L 525 4666 
z
" transform="scale(0.015625)"/>
       </defs>
       <use xlink:href="#DejaVuSans-37"/>
       <use xlink:href="#DejaVuSans-35" x="63.623047"/>
       <use xlink:href="#DejaVuSans-30" x="127.246094"/>
      </g>
     </g>
    </g>
    <g id="xtick_5">
     <g id="line2d_5">
      <g>
       <use xlink:href="#md2044154e5" x="377.994122" y="308.63625" style="stroke: #000000; stroke-width: 0.8"/>
      </g>
     </g>
     <g id="text_5">
      <!-- 1000 -->
      <g transform="translate(352.544122 330.833125) scale(0.2 -0.2)">
       <defs>
        <path id="DejaVuSans-31" d="M 794 531 
L 1825 531 
L 1825 4091 
L 703 3866 
L 703 4441 
L 1819 4666 
L 2450 4666 
L 2450 531 
L 3481 531 
L 3481 0 
L 794 0 
L 794 531 
z
" transform="scale(0.015625)"/>
       </defs>
       <use xlink:href="#DejaVuSans-31"/>
       <use xlink:href="#DejaVuSans-30" x="63.623047"/>
       <use xlink:href="#DejaVuSans-30" x="127.246094"/>
       <use xlink:href="#DejaVuSans-30" x="190.869141"/>
      </g>
     </g>
    </g>
    <g id="xtick_6">
     <g id="line2d_6">
      <g>
       <use xlink:href="#md2044154e5" x="443.029087" y="308.63625" style="stroke: #000000; stroke-width: 0.8"/>
      </g>
     </g>
     <g id="text_6">
      <!-- 1250 -->
      <g transform="translate(417.579087 330.833125) scale(0.2 -0.2)">
       <use xlink:href="#DejaVuSans-31"/>
       <use xlink:href="#DejaVuSans-32" x="63.623047"/>
       <use xlink:href="#DejaVuSans-35" x="127.246094"/>
       <use xlink:href="#DejaVuSans-30" x="190.869141"/>
      </g>
     </g>
    </g>
    <g id="xtick_7">
     <g id="line2d_7">
      <g>
       <use xlink:href="#md2044154e5" x="508.064052" y="308.63625" style="stroke: #000000; stroke-width: 0.8"/>
      </g>
     </g>
     <g id="text_7">
      <!-- 1500 -->
      <g transform="translate(482.614052 330.833125) scale(0.2 -0.2)">
       <use xlink:href="#DejaVuSans-31"/>
       <use xlink:href="#DejaVuSans-35" x="63.623047"/>
       <use xlink:href="#DejaVuSans-30" x="127.246094"/>
       <use xlink:href="#DejaVuSans-30" x="190.869141"/>
      </g>
     </g>
    </g>
    <g id="xtick_8">
     <g id="line2d_8">
      <g>
       <use xlink:href="#md2044154e5" x="573.099017" y="308.63625" style="stroke: #000000; stroke-width: 0.8"/>
      </g>
     </g>
     <g id="text_8">
      <!-- 1750 -->
      <g transform="translate(547.649017 330.833125) scale(0.2 -0.2)">
       <use xlink:href="#DejaVuSans-31"/>
       <use xlink:href="#DejaVuSans-37" x="63.623047"/>
       <use xlink:href="#DejaVuSans-35" x="127.246094"/>
       <use xlink:href="#DejaVuSans-30" x="190.869141"/>
      </g>
     </g>
    </g>
    <g id="xtick_9">
     <g id="line2d_9">
      <g>
       <use xlink:href="#md2044154e5" x="638.133982" y="308.63625" style="stroke: #000000; stroke-width: 0.8"/>
      </g>
     </g>
     <g id="text_9">
      <!-- 2000 -->
      <g transform="translate(612.683982 330.833125) scale(0.2 -0.2)">
       <use xlink:href="#DejaVuSans-32"/>
       <use xlink:href="#DejaVuSans-30" x="63.623047"/>
       <use xlink:href="#DejaVuSans-30" x="127.246094"/>
       <use xlink:href="#DejaVuSans-30" x="190.869141"/>
      </g>
     </g>
    </g>
    <g id="text_10">
     <!-- iterations -->
     <g transform="translate(324.035938 354.189375) scale(0.2 -0.2)">
      <defs>
       <path id="DejaVuSans-69" d="M 603 3500 
L 1178 3500 
L 1178 0 
L 603 0 
L 603 3500 
z
M 603 4863 
L 1178 4863 
L 1178 4134 
L 603 4134 
L 603 4863 
z
" transform="scale(0.015625)"/>
       <path id="DejaVuSans-74" d="M 1172 4494 
L 1172 3500 
L 2356 3500 
L 2356 3053 
L 1172 3053 
L 1172 1153 
Q 1172 725 1289 603 
Q 1406 481 1766 481 
L 2356 481 
L 2356 0 
L 1766 0 
Q 1100 0 847 248 
Q 594 497 594 1153 
L 594 3053 
L 172 3053 
L 172 3500 
L 594 3500 
L 594 4494 
L 1172 4494 
z
" transform="scale(0.015625)"/>
       <path id="DejaVuSans-65" d="M 3597 1894 
L 3597 1613 
L 953 1613 
Q 991 1019 1311 708 
Q 1631 397 2203 397 
Q 2534 397 2845 478 
Q 3156 559 3463 722 
L 3463 178 
Q 3153 47 2828 -22 
Q 2503 -91 2169 -91 
Q 1331 -91 842 396 
Q 353 884 353 1716 
Q 353 2575 817 3079 
Q 1281 3584 2069 3584 
Q 2775 3584 3186 3129 
Q 3597 2675 3597 1894 
z
M 3022 2063 
Q 3016 2534 2758 2815 
Q 2500 3097 2075 3097 
Q 1594 3097 1305 2825 
Q 1016 2553 972 2059 
L 3022 2063 
z
" transform="scale(0.015625)"/>
       <path id="DejaVuSans-72" d="M 2631 2963 
Q 2534 3019 2420 3045 
Q 2306 3072 2169 3072 
Q 1681 3072 1420 2755 
Q 1159 2438 1159 1844 
L 1159 0 
L 581 0 
L 581 3500 
L 1159 3500 
L 1159 2956 
Q 1341 3275 1631 3429 
Q 1922 3584 2338 3584 
Q 2397 3584 2469 3576 
Q 2541 3569 2628 3553 
L 2631 2963 
z
" transform="scale(0.015625)"/>
       <path id="DejaVuSans-61" d="M 2194 1759 
Q 1497 1759 1228 1600 
Q 959 1441 959 1056 
Q 959 750 1161 570 
Q 1363 391 1709 391 
Q 2188 391 2477 730 
Q 2766 1069 2766 1631 
L 2766 1759 
L 2194 1759 
z
M 3341 1997 
L 3341 0 
L 2766 0 
L 2766 531 
Q 2569 213 2275 61 
Q 1981 -91 1556 -91 
Q 1019 -91 701 211 
Q 384 513 384 1019 
Q 384 1609 779 1909 
Q 1175 2209 1959 2209 
L 2766 2209 
L 2766 2266 
Q 2766 2663 2505 2880 
Q 2244 3097 1772 3097 
Q 1472 3097 1187 3025 
Q 903 2953 641 2809 
L 641 3341 
Q 956 3463 1253 3523 
Q 1550 3584 1831 3584 
Q 2591 3584 2966 3190 
Q 3341 2797 3341 1997 
z
" transform="scale(0.015625)"/>
       <path id="DejaVuSans-6f" d="M 1959 3097 
Q 1497 3097 1228 2736 
Q 959 2375 959 1747 
Q 959 1119 1226 758 
Q 1494 397 1959 397 
Q 2419 397 2687 759 
Q 2956 1122 2956 1747 
Q 2956 2369 2687 2733 
Q 2419 3097 1959 3097 
z
M 1959 3584 
Q 2709 3584 3137 3096 
Q 3566 2609 3566 1747 
Q 3566 888 3137 398 
Q 2709 -91 1959 -91 
Q 1206 -91 779 398 
Q 353 888 353 1747 
Q 353 2609 779 3096 
Q 1206 3584 1959 3584 
z
" transform="scale(0.015625)"/>
       <path id="DejaVuSans-6e" d="M 3513 2113 
L 3513 0 
L 2938 0 
L 2938 2094 
Q 2938 2591 2744 2837 
Q 2550 3084 2163 3084 
Q 1697 3084 1428 2787 
Q 1159 2491 1159 1978 
L 1159 0 
L 581 0 
L 581 3500 
L 1159 3500 
L 1159 2956 
Q 1366 3272 1645 3428 
Q 1925 3584 2291 3584 
Q 2894 3584 3203 3211 
Q 3513 2838 3513 2113 
z
" transform="scale(0.015625)"/>
       <path id="DejaVuSans-73" d="M 2834 3397 
L 2834 2853 
Q 2591 2978 2328 3040 
Q 2066 3103 1784 3103 
Q 1356 3103 1142 2972 
Q 928 2841 928 2578 
Q 928 2378 1081 2264 
Q 1234 2150 1697 2047 
L 1894 2003 
Q 2506 1872 2764 1633 
Q 3022 1394 3022 966 
Q 3022 478 2636 193 
Q 2250 -91 1575 -91 
Q 1294 -91 989 -36 
Q 684 19 347 128 
L 347 722 
Q 666 556 975 473 
Q 1284 391 1588 391 
Q 1994 391 2212 530 
Q 2431 669 2431 922 
Q 2431 1156 2273 1281 
Q 2116 1406 1581 1522 
L 1381 1569 
Q 847 1681 609 1914 
Q 372 2147 372 2553 
Q 372 3047 722 3315 
Q 1072 3584 1716 3584 
Q 2034 3584 2315 3537 
Q 2597 3491 2834 3397 
z
" transform="scale(0.015625)"/>
      </defs>
      <use xlink:href="#DejaVuSans-69"/>
      <use xlink:href="#DejaVuSans-74" x="27.783203"/>
      <use xlink:href="#DejaVuSans-65" x="66.992188"/>
      <use xlink:href="#DejaVuSans-72" x="128.515625"/>
      <use xlink:href="#DejaVuSans-61" x="169.628906"/>
      <use xlink:href="#DejaVuSans-74" x="230.908203"/>
      <use xlink:href="#DejaVuSans-69" x="270.117188"/>
      <use xlink:href="#DejaVuSans-6f" x="297.900391"/>
      <use xlink:href="#DejaVuSans-6e" x="359.082031"/>
      <use xlink:href="#DejaVuSans-73" x="422.460938"/>
     </g>
    </g>
   </g>
   <g id="matplotlib.axis_2">
    <g id="ytick_1">
     <g id="line2d_10">
      <defs>
       <path id="m681728ab06" d="M 0 0 
L -3.5 0 
" style="stroke: #000000; stroke-width: 0.8"/>
      </defs>
      <g>
       <use xlink:href="#m681728ab06" x="92.490625" y="234.626549" style="stroke: #000000; stroke-width: 0.8"/>
      </g>
     </g>
     <g id="text_11">
      <!-- −200 -->
      <g transform="translate(30.55625 242.224987) scale(0.2 -0.2)">
       <defs>
        <path id="DejaVuSans-2212" d="M 678 2272 
L 4684 2272 
L 4684 1741 
L 678 1741 
L 678 2272 
z
" transform="scale(0.015625)"/>
       </defs>
       <use xlink:href="#DejaVuSans-2212"/>
       <use xlink:href="#DejaVuSans-32" x="83.789062"/>
       <use xlink:href="#DejaVuSans-30" x="147.412109"/>
       <use xlink:href="#DejaVuSans-30" x="211.035156"/>
      </g>
     </g>
    </g>
    <g id="ytick_2">
     <g id="line2d_11">
      <g>
       <use xlink:href="#m681728ab06" x="92.490625" y="151.376755" style="stroke: #000000; stroke-width: 0.8"/>
      </g>
     </g>
     <g id="text_12">
      <!-- 0 -->
      <g transform="translate(72.765625 158.975193) scale(0.2 -0.2)">
       <use xlink:href="#DejaVuSans-30"/>
      </g>
     </g>
    </g>
    <g id="ytick_3">
     <g id="line2d_12">
      <g>
       <use xlink:href="#m681728ab06" x="92.490625" y="68.126962" style="stroke: #000000; stroke-width: 0.8"/>
      </g>
     </g>
     <g id="text_13">
      <!-- 200 -->
      <g transform="translate(47.315625 75.725399) scale(0.2 -0.2)">
       <use xlink:href="#DejaVuSans-32"/>
       <use xlink:href="#DejaVuSans-30" x="63.623047"/>
       <use xlink:href="#DejaVuSans-30" x="127.246094"/>
      </g>
     </g>
    </g>
    <g id="text_14">
     <!-- Loss -->
     <g transform="translate(22.396875 191.970625) rotate(-90) scale(0.2 -0.2)">
      <defs>
       <path id="DejaVuSans-4c" d="M 628 4666 
L 1259 4666 
L 1259 531 
L 3531 531 
L 3531 0 
L 628 0 
L 628 4666 
z
" transform="scale(0.015625)"/>
      </defs>
      <use xlink:href="#DejaVuSans-4c"/>
      <use xlink:href="#DejaVuSans-6f" x="53.962891"/>
      <use xlink:href="#DejaVuSans-73" x="115.144531"/>
      <use xlink:href="#DejaVuSans-73" x="167.244141"/>
     </g>
    </g>
   </g>
   <g id="line2d_13">
    <path d="M 117.854261 114.726306 
L 118.114401 106.081918 
L 118.634681 44.03625 
L 118.894821 55.607746 
L 119.154961 116.630126 
L 119.415101 138.664661 
L 119.67524 137.321124 
L 119.93538 122.741893 
L 120.19552 120.788415 
L 120.45566 127.999278 
L 120.7158 122.989826 
L 120.97594 108.458537 
L 121.23608 122.646974 
L 121.496219 126.556792 
L 122.016499 120.201515 
L 122.276639 126.255443 
L 122.536779 122.797609 
L 122.796919 127.006439 
L 123.057059 118.64052 
L 123.317198 124.366742 
L 123.577338 117.662909 
L 123.837478 117.330772 
L 124.097618 114.695364 
L 124.357758 107.764658 
L 124.617898 108.435758 
L 125.138177 106.219874 
L 125.398317 110.116506 
L 125.918597 103.735206 
L 126.178737 107.114803 
L 126.438877 106.33327 
L 126.699017 103.507469 
L 126.959156 108.842958 
L 127.219296 102.920055 
L 127.479436 108.429686 
L 127.739576 110.936486 
L 127.999716 110.869457 
L 128.259856 106.939005 
L 128.519996 105.409875 
L 128.780135 110.445841 
L 129.040275 111.131011 
L 129.300415 113.912796 
L 129.560555 112.411065 
L 129.820695 111.591078 
L 130.080835 112.594274 
L 130.340975 115.130586 
L 130.601115 112.662515 
L 130.861254 111.560611 
L 131.121394 112.925905 
L 131.381534 108.346789 
L 131.641674 112.549272 
L 131.901814 114.58122 
L 132.161954 115.179402 
L 132.422094 119.262292 
L 132.682233 117.014571 
L 132.942373 116.380063 
L 133.202513 120.267786 
L 133.462653 120.37667 
L 133.722793 120.879402 
L 133.982933 120.548412 
L 134.243073 123.597646 
L 134.503212 123.431828 
L 134.763352 121.429234 
L 135.023492 122.560572 
L 135.283632 119.85272 
L 135.543772 118.694633 
L 136.064052 118.68102 
L 136.324191 118.119314 
L 136.584331 121.17012 
L 137.104611 116.7473 
L 137.364751 113.297092 
L 137.624891 118.688744 
L 137.885031 120.343387 
L 138.14517 123.308616 
L 138.66545 118.109455 
L 139.18573 123.245243 
L 139.70601 118.407012 
L 140.226289 122.653338 
L 140.486429 123.836576 
L 140.746569 125.744796 
L 141.006709 123.447651 
L 141.266849 128.318527 
L 141.526989 129.080516 
L 141.787128 128.830815 
L 142.047268 128.20745 
L 142.307408 128.76154 
L 142.567548 132.053196 
L 142.827688 133.596636 
L 143.087828 133.934515 
L 143.347968 135.141517 
L 143.608108 135.137063 
L 143.868247 134.780402 
L 144.128387 135.202134 
L 144.388527 135.093015 
L 144.648667 136.905242 
L 145.168947 142.399589 
L 145.429087 142.128559 
L 145.689226 142.779249 
L 145.949366 139.598641 
L 146.209506 140.408307 
L 146.469646 138.506123 
L 146.729786 139.937779 
L 147.770345 135.089312 
L 148.030485 138.125691 
L 148.290625 137.931203 
L 148.550765 136.48173 
L 148.810905 135.887461 
L 149.331184 133.177328 
L 149.591324 135.336782 
L 149.851464 134.894951 
L 150.111604 135.405771 
L 150.371744 135.395858 
L 150.631884 136.106534 
L 150.892024 138.160945 
L 151.412303 138.778501 
L 151.672443 139.328544 
L 151.932583 137.455284 
L 152.192723 138.146409 
L 152.452863 139.584531 
L 152.713003 139.54211 
L 152.973142 140.772087 
L 153.233282 139.328314 
L 153.493422 141.270704 
L 154.013702 138.38691 
L 154.273842 138.267975 
L 154.533982 138.407029 
L 154.794122 138.064147 
L 155.054261 136.366411 
L 155.314401 136.725459 
L 155.574541 137.7051 
L 155.834681 136.859223 
L 156.094821 139.049001 
L 156.354961 137.336016 
L 156.615101 137.257625 
L 156.87524 138.794003 
L 157.13538 138.317046 
L 157.39552 138.127537 
L 157.65566 137.085883 
L 157.9158 140.357201 
L 158.17594 142.188057 
L 158.43608 140.211719 
L 158.696219 141.214973 
L 158.956359 140.469004 
L 159.216499 140.399257 
L 159.476639 137.341402 
L 159.736779 136.956775 
L 159.996919 138.004539 
L 160.257059 141.917493 
L 160.517198 141.394417 
L 161.037478 138.757231 
L 161.297618 139.627896 
L 161.817898 142.544043 
L 162.078038 142.319792 
L 162.338177 139.759331 
L 162.598317 140.416344 
L 162.858457 141.45395 
L 163.118597 141.363625 
L 163.378737 140.978604 
L 163.638877 142.910652 
L 163.899017 142.90158 
L 164.159156 144.549058 
L 164.419296 145.17122 
L 164.679436 145.44887 
L 164.939576 144.416339 
L 165.199716 144.947962 
L 165.459856 143.814591 
L 165.719996 145.207917 
L 165.980135 145.528567 
L 166.240275 144.861957 
L 166.500415 145.227471 
L 166.760555 144.527959 
L 167.020695 145.046411 
L 167.280835 146.68308 
L 167.540975 147.135187 
L 168.061254 143.988933 
L 168.321394 145.81337 
L 168.581534 144.652605 
L 168.841674 145.491722 
L 169.101814 145.544312 
L 169.361954 146.479505 
L 169.622094 145.926367 
L 169.882233 146.569906 
L 170.142373 146.635087 
L 170.402513 145.762171 
L 170.662653 146.892018 
L 170.922793 148.983063 
L 171.182933 148.879743 
L 171.443073 147.783513 
L 171.703212 148.254067 
L 171.963352 147.888736 
L 172.483632 146.202176 
L 172.743772 146.837467 
L 173.003912 146.997663 
L 173.524191 146.666794 
L 174.044471 146.848622 
L 174.304611 146.639285 
L 174.564751 145.433562 
L 174.824891 146.697151 
L 175.085031 146.488051 
L 175.34517 148.265055 
L 175.60531 147.613654 
L 175.86545 147.710403 
L 176.12559 147.419561 
L 176.38573 147.740517 
L 176.64587 146.590609 
L 177.166149 147.987777 
L 177.686429 148.092569 
L 177.946569 147.626153 
L 178.206709 148.346627 
L 178.466849 147.834075 
L 178.726989 146.928657 
L 178.987128 148.067958 
L 179.247268 147.258653 
L 179.507408 148.865305 
L 179.767548 148.410553 
L 180.027688 148.967358 
L 180.287828 149.221557 
L 180.547968 149.822095 
L 180.808108 148.406232 
L 181.068247 148.806973 
L 181.328387 148.539764 
L 181.588527 149.07262 
L 182.108807 148.61838 
L 182.629087 149.440954 
L 182.889226 149.36957 
L 183.149366 150.013568 
L 183.409506 149.776241 
L 183.669646 150.325511 
L 183.929786 149.880589 
L 184.189926 151.162299 
L 184.450066 149.985682 
L 184.710205 151.13516 
L 184.970345 149.965057 
L 185.490625 149.636812 
L 185.750765 150.277934 
L 186.010905 150.130294 
L 186.271045 149.369379 
L 186.531184 148.998461 
L 187.051464 149.411097 
L 187.311604 150.464825 
L 187.571744 150.199464 
L 187.831884 150.562235 
L 188.092024 150.590935 
L 188.352163 151.04972 
L 188.612303 151.841912 
L 189.132583 151.175547 
L 189.392723 152.473986 
L 189.652863 151.552817 
L 189.913003 151.225341 
L 190.173142 151.595681 
L 190.433282 152.660834 
L 190.693422 151.773162 
L 190.953562 152.094372 
L 191.213702 152.17824 
L 191.473842 151.68895 
L 192.254261 152.286212 
L 192.514401 152.200918 
L 192.774541 152.280159 
L 193.034681 151.754625 
L 193.294821 152.272882 
L 193.815101 151.842046 
L 194.07524 152.141914 
L 194.33538 152.770268 
L 194.59552 152.207484 
L 194.85566 152.377094 
L 195.1158 152.188492 
L 195.37594 152.676249 
L 195.63608 151.731846 
L 196.156359 151.345152 
L 196.416499 152.186997 
L 196.676639 152.122104 
L 196.936779 151.359375 
L 197.196919 151.397048 
L 197.457059 151.085501 
L 197.977338 152.610465 
L 198.497618 151.755312 
L 198.757758 151.745505 
L 199.278038 151.233799 
L 200.318597 151.931251 
L 200.578737 150.713665 
L 200.838877 151.562487 
L 201.359156 150.850461 
L 201.619296 150.617443 
L 201.879436 151.580261 
L 202.139576 151.282821 
L 202.399716 151.651857 
L 202.659856 151.11709 
L 202.919996 151.018062 
L 203.180135 149.816142 
L 203.700415 151.54643 
L 203.960555 151.134366 
L 204.220695 150.083957 
L 204.480835 149.856048 
L 204.740975 150.084806 
L 205.261254 150.905625 
L 205.781534 150.592418 
L 206.041674 150.540132 
L 206.301814 150.835766 
L 206.561954 149.605204 
L 206.822094 150.155542 
L 207.082233 148.359728 
L 207.602513 149.470042 
L 207.862653 148.774616 
L 208.122793 149.156396 
L 208.382933 149.200486 
L 208.643073 148.372847 
L 208.903212 148.781279 
L 209.163352 148.915586 
L 209.423492 148.736299 
L 209.683632 148.278376 
L 209.943772 150.048145 
L 210.203912 149.794805 
L 210.724191 147.006615 
L 210.984331 149.701961 
L 211.244471 148.584931 
L 211.504611 150.113674 
L 211.764751 149.148353 
L 212.024891 149.050289 
L 212.285031 149.482133 
L 212.54517 149.221502 
L 213.06545 149.716106 
L 213.58573 149.448828 
L 213.84587 148.575808 
L 214.366149 149.033621 
L 214.626289 149.043221 
L 214.886429 148.766445 
L 215.146569 150.10204 
L 215.406709 149.976308 
L 215.666849 149.01284 
L 216.187128 150.415562 
L 216.447268 150.191345 
L 216.707408 149.765998 
L 217.227688 151.094122 
L 217.487828 150.749297 
L 217.747968 150.748543 
L 218.008108 150.552951 
L 218.268247 150.811243 
L 218.528387 150.267491 
L 218.788527 150.78941 
L 219.048667 151.586957 
L 219.308807 150.325004 
L 219.568947 151.032796 
L 219.829087 150.88367 
L 220.089226 150.884052 
L 220.349366 151.261011 
L 220.609506 150.707683 
L 220.869646 150.648162 
L 221.129786 149.982535 
L 221.389926 150.220711 
L 221.650066 150.660541 
L 221.910205 150.245039 
L 222.170345 151.090624 
L 222.430485 151.255264 
L 222.690625 150.92556 
L 222.950765 151.095426 
L 223.210905 151.622911 
L 223.471045 151.330097 
L 223.731184 151.27642 
L 223.991324 151.926709 
L 224.251464 151.644614 
L 224.511604 151.748004 
L 224.771744 151.589741 
L 225.031884 151.096936 
L 225.292024 151.232504 
L 225.552163 152.274212 
L 225.812303 151.431557 
L 226.072443 152.15493 
L 226.332583 150.750337 
L 226.592723 151.642762 
L 226.852863 152.003527 
L 227.113003 151.370928 
L 227.373142 151.81159 
L 228.153562 152.347011 
L 228.413702 152.287551 
L 228.673842 152.792889 
L 228.933982 152.330353 
L 229.194122 152.840892 
L 229.454261 152.952117 
L 229.714401 152.415944 
L 229.974541 152.560223 
L 230.234681 151.791173 
L 230.494821 151.744005 
L 230.754961 151.92552 
L 231.015101 151.236089 
L 231.27524 151.001596 
L 231.53538 152.275131 
L 231.79552 151.230055 
L 232.57594 152.57704 
L 233.096219 151.791563 
L 233.356359 152.511252 
L 233.616499 151.929362 
L 233.876639 152.536765 
L 234.136779 151.959364 
L 234.396919 152.067056 
L 234.657059 152.043511 
L 235.177338 152.304802 
L 235.437478 151.700389 
L 235.957758 151.287794 
L 236.478038 152.210526 
L 236.738177 152.047336 
L 236.998317 152.215515 
L 237.258457 151.418016 
L 237.518597 151.783619 
L 238.038877 151.755368 
L 238.299017 152.372138 
L 238.819296 152.398249 
L 239.339576 152.143606 
L 239.599716 152.661245 
L 239.859856 152.418168 
L 240.119996 151.076607 
L 240.380135 152.230132 
L 240.640275 152.254543 
L 240.900415 152.085501 
L 241.160555 152.097016 
L 241.680835 151.575627 
L 242.201115 151.848856 
L 242.461254 151.953318 
L 242.721394 152.623378 
L 243.241674 151.842257 
L 243.501814 152.267785 
L 244.022094 152.143958 
L 244.282233 150.987889 
L 244.802513 151.975647 
L 245.062653 151.998391 
L 245.322793 151.335571 
L 245.582933 151.682935 
L 245.843073 152.632733 
L 246.103212 152.19404 
L 246.883632 151.946123 
L 247.143772 152.200519 
L 247.403912 152.193347 
L 247.664052 151.984494 
L 248.184331 152.365496 
L 248.444471 152.266247 
L 248.704611 151.934436 
L 248.964751 152.40168 
L 249.224891 152.065543 
L 249.485031 151.446763 
L 249.74517 151.828722 
L 250.00531 151.947018 
L 250.26545 152.448695 
L 250.78573 151.506004 
L 251.04587 151.857779 
L 251.30601 151.871857 
L 251.566149 151.079205 
L 251.826289 151.507201 
L 252.086429 151.45044 
L 252.346569 151.647678 
L 252.606709 151.448021 
L 252.866849 151.495779 
L 253.126989 150.817983 
L 253.387128 151.706664 
L 253.647268 151.308106 
L 253.907408 151.276547 
L 254.167548 151.5955 
L 254.427688 151.62933 
L 254.687828 151.070949 
L 254.947968 151.645706 
L 255.208108 151.69572 
L 255.728387 151.149644 
L 255.988527 151.458323 
L 256.248667 151.46821 
L 256.508807 152.024571 
L 256.768947 152.047261 
L 257.029087 151.13832 
L 257.289226 151.604247 
L 257.549366 151.562435 
L 257.809506 151.300639 
L 258.069646 151.701181 
L 258.329786 151.454309 
L 258.589926 151.537243 
L 258.850066 151.037532 
L 259.110205 151.344607 
L 259.370345 151.194195 
L 259.630485 151.298938 
L 260.150765 151.177206 
L 260.410905 151.24606 
L 260.931184 151.801094 
L 261.191324 151.715007 
L 261.451464 151.495821 
L 261.711604 151.575049 
L 261.971744 152.208455 
L 262.231884 151.707065 
L 262.492024 151.726826 
L 262.752163 151.988182 
L 263.012303 152.692704 
L 263.272443 152.089559 
L 263.792723 152.427433 
L 264.052863 152.218327 
L 264.313003 152.372906 
L 264.573142 152.029724 
L 264.833282 152.286971 
L 265.093422 151.970467 
L 265.353562 152.555662 
L 265.613702 152.245332 
L 266.133982 152.541199 
L 266.394122 151.979995 
L 266.654261 152.520662 
L 266.914401 152.584042 
L 267.174541 152.14573 
L 267.434681 152.190755 
L 267.694821 151.690852 
L 267.954961 152.114592 
L 268.215101 152.29273 
L 268.73538 152.107116 
L 268.99552 152.648587 
L 269.25566 152.284687 
L 269.77594 152.570828 
L 270.03608 151.94545 
L 270.296219 152.373726 
L 270.816499 152.544228 
L 271.076639 152.822214 
L 271.596919 152.090089 
L 271.857059 152.535167 
L 272.377338 152.221624 
L 272.637478 152.436898 
L 272.897618 152.35947 
L 273.417898 152.520215 
L 273.678038 153.016444 
L 273.938177 151.731253 
L 274.198317 152.950878 
L 274.458457 152.456644 
L 274.978737 152.995511 
L 275.238877 152.141711 
L 275.499017 152.638712 
L 275.759156 152.800987 
L 276.279436 152.785811 
L 276.539576 152.008473 
L 276.799716 152.737062 
L 277.059856 152.400565 
L 277.319996 152.305675 
L 277.580135 151.975513 
L 277.840275 152.573437 
L 278.100415 151.750127 
L 278.360555 152.303332 
L 278.620695 148.524838 
L 278.880835 151.957175 
L 279.140975 151.768497 
L 279.401115 151.228879 
L 279.661254 149.876511 
L 279.921394 150.908245 
L 280.181534 150.634714 
L 280.441674 150.781189 
L 280.701814 151.133643 
L 280.961954 150.985306 
L 281.222094 151.421726 
L 281.482233 151.07346 
L 282.002513 151.445347 
L 282.262653 151.544725 
L 282.522793 151.284326 
L 282.782933 151.233488 
L 283.303212 152.068305 
L 283.563352 151.888559 
L 283.823492 152.299186 
L 284.083632 152.396925 
L 284.343772 152.804566 
L 284.603912 151.928435 
L 285.124191 151.75361 
L 285.384331 152.006023 
L 285.644471 152.058703 
L 285.904611 151.994579 
L 286.164751 151.590229 
L 286.685031 151.647107 
L 286.94517 151.896192 
L 287.20531 151.728772 
L 287.72559 151.971596 
L 287.98573 151.477873 
L 288.50601 152.194692 
L 289.286429 152.161486 
L 289.546569 151.747277 
L 289.806709 151.809392 
L 290.066849 152.215417 
L 290.326989 152.396104 
L 290.587128 152.099389 
L 290.847268 152.378092 
L 291.627688 152.240698 
L 291.887828 151.902568 
L 292.147968 152.467766 
L 292.408108 152.124655 
L 292.668247 152.70934 
L 292.928387 152.230334 
L 293.188527 152.155856 
L 293.448667 152.355853 
L 293.708807 152.094614 
L 293.968947 152.597834 
L 294.229087 152.284626 
L 294.489226 151.680398 
L 294.749366 152.298811 
L 295.009506 152.390976 
L 295.269646 152.345511 
L 295.529786 151.894844 
L 295.789926 151.847075 
L 296.050066 152.100982 
L 296.310205 151.939378 
L 296.570345 152.30459 
L 297.090625 152.323955 
L 297.350765 151.872378 
L 297.610905 152.179649 
L 297.871045 152.235323 
L 298.131184 151.742924 
L 298.391324 151.994381 
L 298.651464 151.714282 
L 298.911604 152.59086 
L 299.171744 152.371201 
L 299.431884 152.410087 
L 299.692024 151.979833 
L 299.952163 152.13412 
L 300.472443 151.953103 
L 300.732583 152.663517 
L 300.992723 152.850887 
L 301.252863 152.335265 
L 301.513003 152.093904 
L 301.773142 152.09731 
L 302.033282 151.861739 
L 302.293422 152.22775 
L 302.553562 152.143963 
L 302.813702 151.920261 
L 303.073842 152.292448 
L 303.594122 151.608838 
L 303.854261 151.884717 
L 304.114401 151.948034 
L 304.634681 151.885639 
L 304.894821 151.98697 
L 305.154961 151.792668 
L 305.415101 151.911078 
L 305.67524 151.859503 
L 306.19552 151.98688 
L 306.45566 152.018334 
L 306.7158 152.415296 
L 307.23608 151.914235 
L 307.496219 151.89707 
L 308.016499 152.22128 
L 309.057059 151.399755 
L 309.317198 152.082493 
L 309.577338 151.858426 
L 309.837478 151.14337 
L 310.097618 151.339535 
L 310.357758 151.059344 
L 310.617898 151.37599 
L 311.398317 151.377481 
L 311.658457 151.680836 
L 312.178737 151.543694 
L 312.438877 150.926786 
L 312.959156 151.767019 
L 313.219296 151.616761 
L 313.479436 151.706296 
L 313.739576 151.076738 
L 313.999716 151.587845 
L 314.259856 151.442994 
L 314.519996 151.430316 
L 314.780135 151.547727 
L 315.040275 151.213943 
L 315.300415 151.582079 
L 315.560555 151.353998 
L 316.080835 151.507801 
L 316.601115 151.177908 
L 316.861254 151.384978 
L 317.641674 151.092115 
L 317.901814 151.176657 
L 318.161954 151.640328 
L 318.682233 151.604892 
L 318.942373 151.570655 
L 319.202513 151.945732 
L 319.722793 151.938915 
L 319.982933 151.661181 
L 320.243073 151.550083 
L 320.503212 151.205932 
L 321.023492 151.191742 
L 321.283632 151.686735 
L 321.543772 151.613083 
L 321.803912 151.852518 
L 322.064052 151.679496 
L 322.584331 152.207215 
L 324.14517 151.367225 
L 324.40531 151.667476 
L 324.92559 151.296849 
L 325.18573 151.849446 
L 325.44587 151.805784 
L 325.70601 151.328364 
L 325.966149 151.674293 
L 326.226289 151.743831 
L 326.486429 152.042436 
L 326.746569 151.830819 
L 327.006709 151.370385 
L 327.526989 151.709383 
L 327.787128 151.443255 
L 328.047268 151.744608 
L 328.307408 151.368646 
L 328.567548 151.488061 
L 328.827688 151.828688 
L 329.087828 151.146687 
L 329.347968 151.689779 
L 329.608108 151.498835 
L 330.128387 151.770987 
L 330.388527 151.543286 
L 330.648667 150.945401 
L 330.908807 151.778396 
L 331.168947 151.49887 
L 331.689226 151.858059 
L 332.209506 151.134675 
L 332.469646 151.486843 
L 332.729786 151.396916 
L 332.989926 151.719428 
L 333.250066 151.424326 
L 333.510205 151.788686 
L 333.770345 151.564222 
L 334.030485 151.705691 
L 334.290625 151.996654 
L 334.550765 151.92431 
L 334.810905 151.704387 
L 335.071045 152.328413 
L 335.591324 152.27705 
L 335.851464 151.88783 
L 336.631884 151.92844 
L 336.892024 152.307681 
L 337.412303 152.183362 
L 337.932583 152.189478 
L 338.192723 152.038944 
L 338.452863 152.635119 
L 338.713003 152.101613 
L 338.973142 151.938368 
L 339.233282 152.079164 
L 339.493422 151.71079 
L 339.753562 151.797494 
L 340.013702 151.646745 
L 340.273842 152.143108 
L 340.533982 151.99021 
L 340.794122 152.18414 
L 341.054261 152.22808 
L 341.574541 151.906362 
L 341.834681 151.692709 
L 342.094821 151.910702 
L 342.354961 151.764202 
L 342.87524 151.699157 
L 343.13538 152.14054 
L 343.39552 151.37151 
L 343.9158 151.766142 
L 344.43608 151.713636 
L 344.696219 151.875768 
L 344.956359 151.39868 
L 345.216499 151.225943 
L 345.476639 151.535501 
L 345.736779 151.645419 
L 345.996919 151.240036 
L 346.517198 151.689344 
L 347.817898 151.53041 
L 348.078038 151.307105 
L 348.338177 151.856963 
L 348.858457 151.503902 
L 349.118597 151.979471 
L 349.378737 151.697348 
L 349.638877 151.934772 
L 349.899017 151.508816 
L 350.159156 152.151504 
L 350.419296 151.747737 
L 350.679436 151.834478 
L 350.939576 152.265236 
L 351.199716 151.941584 
L 351.459856 151.934039 
L 351.719996 151.171931 
L 351.980135 151.802155 
L 352.240275 152.066033 
L 352.760555 151.545989 
L 353.280835 151.575974 
L 353.540975 151.873294 
L 353.801115 151.918905 
L 354.061254 151.736145 
L 354.321394 151.989589 
L 354.581534 151.574647 
L 354.841674 151.879342 
L 355.622094 151.910117 
L 355.882233 151.70139 
L 356.142373 151.937435 
L 356.402513 152.009852 
L 356.662653 151.533277 
L 357.182933 152.084454 
L 357.443073 151.590728 
L 357.963352 152.446118 
L 358.483632 151.724952 
L 359.003912 152.141755 
L 359.264052 151.898353 
L 359.524191 152.1334 
L 359.784331 152.032246 
L 360.044471 152.398274 
L 360.304611 151.485606 
L 360.564751 151.919006 
L 360.824891 151.88307 
L 361.085031 151.55212 
L 361.34517 151.715725 
L 361.60531 152.216185 
L 362.12559 151.526062 
L 362.38573 151.839099 
L 362.64587 152.344255 
L 362.90601 152.354418 
L 363.166149 151.937689 
L 363.426289 151.854042 
L 363.946569 152.403465 
L 364.206709 151.928993 
L 364.987128 152.361175 
L 365.507408 152.27399 
L 365.767548 152.385159 
L 366.027688 151.892379 
L 366.808108 152.244459 
L 367.068247 151.72125 
L 367.328387 152.643585 
L 367.588527 152.199328 
L 367.848667 152.058942 
L 368.108807 152.411634 
L 368.629087 151.943532 
L 368.889226 151.985253 
L 369.409506 151.866921 
L 369.669646 151.978894 
L 369.929786 152.516977 
L 370.189926 152.155609 
L 370.450066 152.389905 
L 370.710205 152.072178 
L 370.970345 152.703306 
L 371.230485 152.95425 
L 371.490625 152.619859 
L 372.010905 152.332556 
L 372.531184 152.769971 
L 373.051464 152.24283 
L 373.571744 152.833334 
L 373.831884 152.80824 
L 374.092024 152.291823 
L 374.352163 152.833655 
L 374.872443 152.210842 
L 375.392723 152.278928 
L 375.913003 152.356118 
L 376.173142 152.226534 
L 376.433282 152.465522 
L 376.693422 152.474592 
L 376.953562 152.221023 
L 377.213702 152.302501 
L 377.473842 152.05563 
L 377.994122 152.459694 
L 378.254261 152.101627 
L 378.514401 152.179048 
L 378.774541 152.103387 
L 379.034681 152.219353 
L 379.294821 152.510258 
L 379.554961 152.273396 
L 379.815101 152.398583 
L 380.33538 152.125431 
L 380.59552 152.171389 
L 380.85566 151.970359 
L 381.1158 152.253858 
L 381.37594 152.200606 
L 381.63608 152.397954 
L 381.896219 152.317683 
L 382.156359 152.115818 
L 382.676639 152.208094 
L 382.936779 151.816096 
L 383.196919 152.263418 
L 383.457059 152.06862 
L 383.717198 152.056638 
L 383.977338 152.361283 
L 384.237478 152.3193 
L 384.497618 151.907125 
L 384.757758 152.04794 
L 385.017898 152.353644 
L 385.278038 152.087623 
L 385.538177 152.359963 
L 385.798317 152.294126 
L 386.058457 152.614881 
L 386.318597 152.20847 
L 386.578737 152.351788 
L 386.838877 152.690721 
L 387.619296 151.781281 
L 388.139576 152.27773 
L 388.659856 151.806116 
L 388.919996 152.353814 
L 389.180135 151.890548 
L 389.440275 152.196915 
L 389.700415 151.925702 
L 390.220695 151.948349 
L 390.740975 152.060363 
L 391.001115 152.072341 
L 391.521394 152.921489 
L 392.041674 152.006672 
L 392.301814 152.520321 
L 392.561954 152.654111 
L 392.822094 152.500869 
L 393.082233 151.963768 
L 393.342373 151.764147 
L 393.602513 152.336932 
L 393.862653 151.989874 
L 394.382933 152.021301 
L 394.643073 152.29921 
L 394.903212 152.317879 
L 395.163352 152.627305 
L 395.683632 152.462779 
L 395.943772 152.18155 
L 396.203912 152.654229 
L 396.464052 152.367052 
L 396.724191 152.439632 
L 397.244471 152.247902 
L 397.504611 152.307977 
L 397.764751 152.507178 
L 398.024891 152.42275 
L 398.54517 152.686774 
L 398.80531 152.495383 
L 399.06545 152.551822 
L 399.32559 152.895301 
L 399.58573 152.279384 
L 399.84587 152.848113 
L 400.10601 152.753765 
L 400.366149 152.488698 
L 400.626289 152.949287 
L 400.886429 152.571899 
L 401.146569 152.693882 
L 401.406709 152.64935 
L 401.666849 152.353643 
L 401.926989 152.669361 
L 402.187128 152.368571 
L 402.447268 152.538901 
L 402.707408 152.843801 
L 402.967548 152.570692 
L 403.487828 152.54439 
L 403.747968 152.787501 
L 404.528387 152.488456 
L 405.308807 153.162053 
L 405.568947 152.986459 
L 405.829087 152.455687 
L 406.089226 153.06156 
L 406.349366 152.777063 
L 406.609506 152.756131 
L 406.869646 153.00796 
L 407.389926 152.882425 
L 407.650066 152.355673 
L 407.910205 152.493841 
L 408.430485 153.210481 
L 408.950765 153.058307 
L 409.471045 152.955914 
L 409.731184 152.74624 
L 410.251464 153.027155 
L 410.511604 152.504372 
L 410.771744 152.859766 
L 411.552163 153.041754 
L 411.812303 152.541584 
L 412.072443 152.417945 
L 412.332583 152.832131 
L 412.592723 152.925445 
L 412.852863 152.586765 
L 413.373142 153.048029 
L 413.633282 152.752645 
L 413.893422 152.626115 
L 414.413702 152.936892 
L 414.673842 152.683649 
L 414.933982 152.911091 
L 415.194122 152.363894 
L 415.454261 153.042916 
L 415.714401 152.990963 
L 415.974541 152.506209 
L 416.234681 152.774364 
L 416.494821 152.52135 
L 417.015101 152.919921 
L 417.27524 152.54567 
L 417.53538 152.87646 
L 417.79552 152.736383 
L 418.05566 153.032834 
L 418.3158 153.108853 
L 418.57594 152.820255 
L 419.096219 152.876966 
L 419.356359 153.321299 
L 419.616499 152.960797 
L 419.876639 152.98893 
L 420.136779 153.202848 
L 421.437478 152.827884 
L 421.697618 153.304688 
L 421.957758 153.046339 
L 422.217898 153.28803 
L 422.478038 153.168489 
L 422.738177 152.752113 
L 422.998317 153.269234 
L 423.258457 153.139193 
L 423.518597 152.812752 
L 424.299017 152.878505 
L 424.559156 153.041601 
L 424.819296 153.015541 
L 425.079436 153.262489 
L 425.599716 152.676142 
L 425.859856 153.009325 
L 426.119996 152.575587 
L 426.640275 152.872476 
L 426.900415 152.953163 
L 427.420695 152.705524 
L 427.680835 152.7006 
L 427.940975 153.317643 
L 428.201115 153.208254 
L 428.461254 152.574833 
L 428.721394 153.190572 
L 429.241674 153.272659 
L 430.022094 153.167297 
L 430.282233 153.395762 
L 430.542373 152.937887 
L 430.802513 153.385975 
L 431.582933 153.064183 
L 432.883632 153.346452 
L 433.143772 152.849626 
L 433.403912 153.348604 
L 433.664052 153.083616 
L 433.924191 153.063849 
L 434.704611 153.460508 
L 434.964751 153.094293 
L 435.224891 153.305938 
L 435.485031 153.136372 
L 436.00531 153.354174 
L 436.26545 153.002398 
L 436.52559 152.853821 
L 436.78573 153.119664 
L 437.30601 152.353978 
L 437.566149 152.973688 
L 437.826289 152.615818 
L 438.086429 152.885859 
L 438.606709 153.080894 
L 438.866849 152.475642 
L 439.387128 153.111158 
L 439.647268 152.834946 
L 440.167548 153.084885 
L 440.687828 153.287478 
L 440.947968 152.899149 
L 441.468247 152.909204 
L 441.728387 152.915387 
L 441.988527 153.399765 
L 442.248667 153.2647 
L 442.508807 152.885833 
L 442.768947 153.286273 
L 443.029087 152.630615 
L 443.289226 153.617197 
L 443.549366 153.268812 
L 443.809506 153.215023 
L 444.069646 153.590197 
L 444.329786 153.722517 
L 444.589926 152.92342 
L 444.850066 153.482382 
L 445.110205 152.757448 
L 445.370345 152.935928 
L 445.630485 153.25308 
L 446.410905 153.696591 
L 446.931184 154.158429 
L 447.191324 153.541019 
L 447.451464 153.952786 
L 447.971744 153.701989 
L 448.231884 153.335836 
L 448.492024 153.582743 
L 449.012303 153.377643 
L 449.532583 153.699386 
L 450.573142 153.434308 
L 450.833282 153.758098 
L 451.093422 153.542321 
L 451.873842 153.698703 
L 452.654261 153.253953 
L 452.914401 153.498585 
L 453.434681 153.51771 
L 453.694821 153.175226 
L 453.954961 153.628483 
L 454.73538 153.407202 
L 455.5158 153.88538 
L 455.77594 154.079353 
L 456.03608 153.52271 
L 456.296219 154.142258 
L 456.556359 153.775613 
L 457.076639 153.691069 
L 457.336779 153.250884 
L 457.596919 153.65295 
L 457.857059 153.240823 
L 458.117198 153.363758 
L 458.377338 153.665132 
L 458.897618 153.547324 
L 459.157758 153.727648 
L 459.417898 153.437601 
L 459.678038 153.591748 
L 459.938177 153.20177 
L 460.198317 153.62279 
L 460.458457 153.613591 
L 460.718597 153.297419 
L 460.978737 153.498631 
L 461.238877 153.269644 
L 461.499017 153.50599 
L 461.759156 153.039009 
L 462.019296 153.420922 
L 462.279436 153.227858 
L 462.539576 153.610846 
L 462.799716 153.223473 
L 463.059856 153.61341 
L 463.319996 153.395769 
L 463.580135 153.530347 
L 464.620695 153.527112 
L 465.140975 153.154881 
L 465.921394 152.945378 
L 466.181534 153.069234 
L 466.441674 152.895172 
L 466.701814 152.954893 
L 467.222094 153.231055 
L 467.482233 152.952159 
L 468.002513 152.711547 
L 468.522793 153.406709 
L 468.782933 153.080918 
L 469.043073 153.18338 
L 469.563352 153.677974 
L 470.083632 152.99729 
L 470.343772 153.279174 
L 470.603912 153.329818 
L 470.864052 153.070421 
L 471.124191 153.08816 
L 471.644471 153.589711 
L 471.904611 153.321398 
L 472.164751 153.503544 
L 472.424891 153.224771 
L 472.685031 153.148529 
L 472.94517 152.935954 
L 473.46545 152.90536 
L 473.72559 152.898195 
L 473.98573 153.30974 
L 474.766149 152.883784 
L 475.026289 153.524074 
L 475.286429 152.95302 
L 475.546569 153.130791 
L 475.806709 153.132953 
L 476.066849 152.785131 
L 476.326989 153.14254 
L 476.587128 152.821081 
L 476.847268 153.039831 
L 477.107408 152.69415 
L 477.367548 152.627309 
L 477.627688 153.250003 
L 477.887828 152.936387 
L 478.147968 152.939571 
L 478.408108 153.188603 
L 478.668247 152.91533 
L 478.928387 153.216382 
L 479.188527 152.989003 
L 479.708807 153.063867 
L 480.229087 153.033201 
L 480.749366 152.855591 
L 481.009506 153.06581 
L 481.529786 152.609432 
L 481.789926 152.722255 
L 482.050066 152.712911 
L 482.310205 152.263852 
L 482.570345 152.351952 
L 482.830485 152.726475 
L 483.350765 152.559372 
L 483.610905 152.80446 
L 483.871045 152.748245 
L 484.131184 152.450868 
L 484.391324 153.044907 
L 484.651464 152.88045 
L 484.911604 152.563451 
L 485.171744 152.538204 
L 485.431884 152.761004 
L 485.952163 152.56896 
L 486.212303 152.841062 
L 486.472443 152.781233 
L 486.992723 152.9799 
L 487.252863 152.620084 
L 487.773142 153.010949 
L 488.033282 152.620599 
L 488.293422 152.759768 
L 488.553562 152.341864 
L 488.813702 152.189816 
L 489.073842 152.232322 
L 489.333982 152.081882 
L 490.374541 152.850663 
L 490.634681 152.606638 
L 490.894821 153.012085 
L 491.415101 152.88128 
L 491.67524 152.959163 
L 491.93538 152.871557 
L 492.19552 152.470064 
L 492.45566 152.464329 
L 492.7158 152.338737 
L 493.23608 152.479379 
L 493.496219 152.213927 
L 493.756359 152.544605 
L 494.016499 152.586562 
L 494.276639 153.004439 
L 494.536779 152.78288 
L 494.796919 153.020857 
L 495.577338 152.70677 
L 495.837478 152.984976 
L 496.097618 152.76254 
L 496.357758 152.826365 
L 496.617898 152.65628 
L 497.138177 152.991104 
L 497.398317 152.631896 
L 497.658457 152.596405 
L 497.918597 152.930498 
L 498.178737 152.517437 
L 498.438877 152.876324 
L 498.699017 152.550556 
L 498.959156 152.638999 
L 499.219296 152.420192 
L 499.479436 152.832896 
L 499.739576 152.470918 
L 500.259856 152.852128 
L 500.780135 152.872129 
L 501.040275 152.538653 
L 501.300415 152.555474 
L 501.560555 152.251174 
L 501.820695 152.721179 
L 502.080835 152.507361 
L 502.601115 152.906622 
L 502.861254 152.66763 
L 503.121394 152.841139 
L 503.381534 152.36401 
L 503.641674 152.966757 
L 503.901814 152.657263 
L 504.161954 152.605128 
L 504.422094 152.158719 
L 505.202513 152.338716 
L 505.462653 152.60879 
L 505.722793 152.278133 
L 505.982933 152.293181 
L 506.243073 152.449185 
L 506.503212 152.372741 
L 506.763352 152.759631 
L 507.023492 152.645883 
L 507.283632 152.224476 
L 508.064052 152.548796 
L 508.584331 151.982525 
L 509.364751 152.47898 
L 509.624891 152.494222 
L 509.885031 152.725815 
L 510.14517 152.493639 
L 510.40531 152.061848 
L 510.66545 152.254294 
L 510.92559 152.296119 
L 511.18573 152.7446 
L 511.44587 152.275565 
L 511.70601 152.610069 
L 511.966149 152.205358 
L 512.486429 152.69851 
L 512.746569 152.198785 
L 513.006709 152.587381 
L 513.266849 152.149128 
L 513.787128 152.576665 
L 514.567548 152.436056 
L 514.827688 152.88295 
L 515.087828 152.221981 
L 515.347968 152.510987 
L 515.608108 152.402454 
L 515.868247 152.628892 
L 516.128387 152.14363 
L 516.648667 152.529065 
L 516.908807 152.720471 
L 517.168947 152.296181 
L 517.429087 152.8266 
L 517.949366 152.419394 
L 518.469646 152.76012 
L 518.729786 152.571466 
L 519.510205 152.618647 
L 519.770345 152.208865 
L 520.030485 152.447137 
L 520.290625 152.298292 
L 520.550765 152.981215 
L 520.810905 152.967968 
L 521.331184 152.377224 
L 521.851464 153.027993 
L 522.631884 152.76738 
L 522.892024 152.921496 
L 523.152163 152.738698 
L 523.412303 153.036872 
L 523.672443 153.108161 
L 523.932583 153.060822 
L 524.192723 152.601152 
L 524.973142 152.747112 
L 525.233282 152.716531 
L 525.493422 153.012263 
L 525.753562 152.629935 
L 526.533982 152.667877 
L 526.794122 153.147832 
L 527.054261 152.735324 
L 527.574541 152.967806 
L 527.834681 152.357874 
L 528.094821 152.647736 
L 528.87524 152.462185 
L 529.13538 152.903257 
L 529.39552 152.747007 
L 529.9158 153.245768 
L 530.43608 152.73189 
L 530.696219 152.930247 
L 530.956359 152.923364 
L 531.216499 152.433713 
L 531.476639 152.999371 
L 532.257059 152.56963 
L 532.517198 152.731361 
L 532.777338 152.510596 
L 533.037478 152.818962 
L 533.557758 152.617299 
L 533.817898 152.735365 
L 534.078038 153.219281 
L 534.598317 152.750068 
L 534.858457 152.958135 
L 535.118597 152.547586 
L 535.378737 152.98493 
L 535.899017 152.704469 
L 536.159156 152.928179 
L 536.419296 152.775105 
L 536.679436 153.097064 
L 536.939576 152.923451 
L 537.199716 153.025617 
L 537.459856 152.488737 
L 537.719996 152.887747 
L 538.500415 152.819609 
L 538.760555 153.15109 
L 539.020695 153.071453 
L 539.280835 153.128667 
L 539.540975 152.526117 
L 539.801115 152.965208 
L 540.061254 153.056647 
L 540.581534 152.859511 
L 540.841674 153.169108 
L 541.101814 152.854596 
L 541.361954 152.965462 
L 541.622094 153.246933 
L 542.402513 152.597443 
L 542.662653 153.072106 
L 542.922793 153.058405 
L 543.182933 153.428869 
L 543.443073 153.057914 
L 544.223492 153.264184 
L 544.483632 152.586297 
L 544.743772 153.072086 
L 545.003912 152.978036 
L 545.264052 153.071754 
L 545.524191 152.986843 
L 545.784331 152.765696 
L 546.044471 153.142829 
L 546.304611 153.101927 
L 546.564751 152.894442 
L 546.824891 152.991273 
L 547.085031 152.966906 
L 547.60531 153.370116 
L 547.86545 153.183243 
L 548.38573 153.074233 
L 548.64587 152.798613 
L 548.90601 152.6991 
L 549.166149 153.01464 
L 549.686429 152.977459 
L 549.946569 153.160749 
L 550.206709 152.71692 
L 550.466849 153.471434 
L 550.726989 153.133989 
L 550.987128 153.045937 
L 551.247268 153.261052 
L 551.507408 152.587301 
L 551.767548 152.887318 
L 552.027688 152.668606 
L 552.287828 152.753308 
L 552.547968 152.994019 
L 552.808108 152.666203 
L 553.068247 152.927863 
L 553.328387 152.971235 
L 553.588527 153.213757 
L 553.848667 153.022203 
L 554.108807 153.107955 
L 554.368947 152.91052 
L 554.889226 153.235324 
L 555.149366 152.815237 
L 555.409506 153.268668 
L 555.669646 153.062522 
L 555.929786 153.271535 
L 556.189926 153.21294 
L 556.450066 153.293363 
L 556.710205 152.817912 
L 557.230485 153.308658 
L 557.490625 153.210248 
L 557.750765 153.531624 
L 558.010905 153.226282 
L 558.271045 153.300823 
L 558.531184 153.085907 
L 559.051464 153.129707 
L 559.311604 152.765519 
L 559.571744 153.124876 
L 559.831884 153.157065 
L 560.352163 152.807071 
L 560.872443 153.229667 
L 561.132583 153.646384 
L 561.652863 152.874685 
L 561.913003 153.225706 
L 562.173142 152.98024 
L 563.473842 153.004757 
L 563.733982 153.073459 
L 563.994122 153.008083 
L 564.254261 153.143841 
L 564.514401 153.123692 
L 564.774541 152.839986 
L 565.034681 152.810881 
L 565.294821 153.16607 
L 565.554961 152.675434 
L 566.33538 153.226441 
L 566.59552 153.035337 
L 566.85566 153.110795 
L 567.1158 153.37487 
L 567.37594 153.156258 
L 567.63608 153.473089 
L 567.896219 153.188348 
L 568.416499 152.928871 
L 568.676639 153.181566 
L 569.717198 153.003089 
L 569.977338 153.35545 
L 570.237478 153.063389 
L 570.497618 153.158357 
L 571.017898 152.632183 
L 571.278038 152.902688 
L 571.538177 152.829938 
L 571.798317 153.005102 
L 572.318597 152.965166 
L 572.838877 153.532232 
L 573.099017 152.966592 
L 573.359156 153.154418 
L 573.879436 153.335464 
L 574.139576 153.167209 
L 574.399716 153.571985 
L 574.659856 152.964393 
L 574.919996 153.269327 
L 575.180135 152.905449 
L 575.700415 153.090388 
L 575.960555 152.950711 
L 576.480835 153.303369 
L 576.740975 152.973792 
L 577.001115 153.268031 
L 577.261254 152.813376 
L 577.521394 153.108713 
L 577.781534 152.710011 
L 578.301814 153.340705 
L 578.561954 152.905419 
L 578.822094 153.0613 
L 579.342373 152.841023 
L 579.602513 152.898118 
L 580.122793 153.246035 
L 580.382933 152.769839 
L 580.643073 152.695096 
L 580.903212 152.764963 
L 581.163352 152.39008 
L 581.423492 152.987267 
L 582.203912 153.104748 
L 582.464052 152.770321 
L 582.724191 153.249002 
L 583.244471 152.665685 
L 583.504611 152.917079 
L 583.764751 152.964787 
L 584.024891 152.87184 
L 584.285031 153.12327 
L 584.54517 152.799086 
L 584.80531 153.154417 
L 585.06545 152.843733 
L 585.58573 152.592664 
L 585.84587 152.696293 
L 586.366149 153.360695 
L 586.626289 152.881871 
L 586.886429 153.049248 
L 587.146569 152.936847 
L 587.406709 152.611383 
L 587.666849 152.707404 
L 588.187128 152.702568 
L 588.447268 153.256971 
L 588.967548 152.883662 
L 589.747968 153.134753 
L 590.008108 152.838401 
L 590.268247 152.90419 
L 590.528387 152.767408 
L 590.788527 152.978625 
L 592.089226 152.948825 
L 592.349366 152.963451 
L 592.609506 152.791243 
L 592.869646 152.80905 
L 593.129786 152.948838 
L 593.389926 152.598478 
L 593.650066 152.762327 
L 593.910205 152.748911 
L 594.170345 152.964557 
L 594.430485 152.942624 
L 594.950765 152.403529 
L 595.210905 152.68585 
L 595.471045 152.308433 
L 595.731184 152.439407 
L 596.251464 152.426197 
L 596.771744 152.526403 
L 597.292024 152.95898 
L 597.552163 152.746198 
L 597.812303 152.952214 
L 598.072443 152.965839 
L 598.332583 152.474259 
L 598.592723 152.810738 
L 599.373142 152.666269 
L 599.633282 152.984317 
L 599.893422 152.828385 
L 600.153562 153.059015 
L 600.413702 152.730574 
L 600.673842 152.634475 
L 600.933982 152.692454 
L 601.194122 152.902485 
L 601.454261 152.785002 
L 601.974541 152.865364 
L 602.234681 152.851496 
L 602.494821 153.053359 
L 602.754961 152.829743 
L 603.015101 152.783747 
L 603.53538 153.03791 
L 604.05566 152.851973 
L 604.57594 153.179367 
L 605.096219 152.731101 
L 605.356359 152.630979 
L 605.616499 152.829446 
L 606.396919 152.82981 
L 606.657059 152.585722 
L 607.177338 152.964308 
L 607.437478 152.344311 
L 607.957758 152.562714 
L 608.217898 152.552387 
L 608.478038 152.787314 
L 608.998317 152.770034 
L 609.258457 152.705241 
L 609.778737 152.844899 
L 610.038877 152.975682 
L 610.299017 152.618686 
L 610.559156 152.556719 
L 610.819296 152.663535 
L 611.079436 152.546227 
L 611.339576 152.659156 
L 611.599716 152.649596 
L 612.119996 152.786461 
L 612.640275 152.67186 
L 612.900415 152.24592 
L 613.420695 153.072875 
L 613.680835 152.654502 
L 613.940975 152.45676 
L 614.461254 152.771429 
L 614.721394 152.515405 
L 615.241674 153.029308 
L 615.501814 152.760187 
L 615.761954 152.324726 
L 616.022094 152.749817 
L 616.282233 152.532191 
L 616.542373 152.605702 
L 616.802513 151.981683 
L 617.062653 152.323927 
L 617.322793 152.27737 
L 617.843073 151.709474 
L 618.363352 152.467967 
L 618.623492 152.084439 
L 618.883632 152.427392 
L 619.143772 152.303051 
L 619.924191 152.666625 
L 620.704611 152.362766 
L 621.224891 152.3776 
L 621.485031 152.207164 
L 621.74517 152.42045 
L 622.00531 151.952592 
L 622.26545 152.157412 
L 622.52559 152.164012 
L 622.78573 151.858353 
L 623.04587 152.397393 
L 623.566149 151.696431 
L 624.086429 152.269031 
L 624.606709 151.784508 
L 625.126989 152.055133 
L 625.126989 152.055133 
" clip-path="url(#p81b9cb7ed8)" style="fill: none; stroke: #1f77b4; stroke-width: 1.5; stroke-linecap: square"/>
   </g>
   <g id="line2d_14">
    <path d="M 117.854261 257.658289 
L 118.114401 262.165711 
L 118.374541 291.943205 
L 118.634681 296.03625 
L 119.154961 271.11781 
L 119.415101 227.057898 
L 119.67524 207.5709 
L 119.93538 203.182002 
L 120.19552 203.974264 
L 120.45566 211.845554 
L 120.97594 201.196422 
L 121.23608 195.910364 
L 121.496219 195.703205 
L 121.756359 192.753227 
L 122.016499 197.401453 
L 122.276639 172.184989 
L 122.536779 172.103903 
L 122.796919 169.627321 
L 123.057059 171.510379 
L 123.317198 166.488463 
L 123.577338 169.662831 
L 123.837478 167.766312 
L 124.097618 168.409239 
L 124.357758 168.391562 
L 124.617898 165.287616 
L 124.878038 166.881572 
L 125.138177 166.794035 
L 125.398317 165.094572 
L 125.658457 166.165148 
L 125.918597 165.451608 
L 126.178737 164.010929 
L 126.438877 163.25549 
L 126.699017 164.862355 
L 127.219296 163.485609 
L 127.739576 161.702402 
L 127.999716 160.420844 
L 128.259856 164.815428 
L 128.519996 163.952454 
L 128.780135 162.432016 
L 129.040275 163.099974 
L 129.300415 162.512979 
L 129.560555 162.265303 
L 129.820695 163.58709 
L 130.080835 161.410305 
L 130.340975 162.710343 
L 130.601115 161.565435 
L 130.861254 161.16584 
L 131.121394 161.539059 
L 131.381534 162.557454 
L 131.641674 161.171452 
L 131.901814 161.384449 
L 132.161954 160.92679 
L 132.422094 160.831448 
L 132.942373 161.328739 
L 133.202513 161.196216 
L 133.462653 161.194354 
L 133.722793 161.482621 
L 133.982933 161.201429 
L 134.243073 159.7919 
L 134.503212 160.884693 
L 134.763352 160.064798 
L 135.023492 160.550759 
L 135.543772 163.054654 
L 135.803912 160.376997 
L 136.064052 163.420413 
L 136.324191 160.81798 
L 136.584331 160.706714 
L 137.104611 162.97898 
L 137.364751 161.428681 
L 137.885031 160.440512 
L 138.14517 160.193846 
L 138.66545 162.631121 
L 139.18573 159.442412 
L 139.44587 161.834268 
L 139.70601 161.591212 
L 139.966149 160.94865 
L 140.226289 161.58259 
L 140.486429 161.661909 
L 140.746569 162.60633 
L 141.266849 161.360388 
L 141.787128 161.703732 
L 142.047268 160.981433 
L 142.567548 161.378065 
L 143.087828 159.80897 
L 143.868247 161.088266 
L 144.388527 161.389012 
L 144.648667 160.004467 
L 144.908807 161.423814 
L 145.168947 161.588497 
L 145.429087 160.70362 
L 145.689226 161.311015 
L 145.949366 162.288528 
L 146.209506 161.574032 
L 146.469646 162.933584 
L 146.729786 162.761098 
L 146.989926 161.823109 
L 147.250066 163.255695 
L 147.510205 162.48772 
L 147.770345 162.510713 
L 148.030485 162.845991 
L 148.290625 162.220304 
L 148.550765 162.518876 
L 149.071045 164.100062 
L 149.331184 161.71733 
L 149.591324 160.953926 
L 149.851464 162.188098 
L 150.371744 161.382858 
L 150.631884 162.157181 
L 150.892024 162.385889 
L 151.152163 160.804717 
L 151.412303 161.59229 
L 151.672443 161.478432 
L 151.932583 161.686822 
L 152.192723 162.509587 
L 152.452863 161.135064 
L 152.713003 161.60804 
L 153.233282 163.370876 
L 153.493422 161.109782 
L 153.753562 153.752785 
L 154.013702 154.884893 
L 154.273842 154.642952 
L 154.533982 156.15602 
L 154.794122 156.257159 
L 155.054261 154.933457 
L 155.314401 156.047679 
L 155.574541 156.254787 
L 155.834681 157.181505 
L 156.094821 156.53724 
L 156.354961 156.437924 
L 156.615101 156.791371 
L 156.87524 156.526013 
L 157.13538 156.899174 
L 157.39552 156.612682 
L 157.65566 155.971204 
L 157.9158 156.374247 
L 158.43608 156.676973 
L 158.696219 156.380954 
L 158.956359 156.744293 
L 159.216499 156.508302 
L 159.736779 156.742195 
L 159.996919 156.015266 
L 160.257059 156.667905 
L 160.777338 156.571618 
L 161.297618 157.011189 
L 161.817898 156.562438 
L 162.078038 157.11912 
L 162.338177 157.288222 
L 162.598317 156.918805 
L 162.858457 156.340906 
L 163.118597 157.068537 
L 163.378737 156.310565 
L 163.899017 155.798621 
L 164.159156 156.372213 
L 164.419296 156.620934 
L 164.939576 155.934658 
L 165.199716 155.997717 
L 165.459856 156.237635 
L 165.719996 156.252845 
L 165.980135 155.534283 
L 166.240275 156.106492 
L 166.500415 155.971055 
L 166.760555 155.262929 
L 167.020695 155.565248 
L 167.280835 155.523103 
L 167.540975 155.801346 
L 167.801115 156.566333 
L 168.061254 156.216639 
L 168.321394 156.133157 
L 168.581534 155.391582 
L 168.841674 155.66232 
L 169.101814 156.145638 
L 169.361954 155.672539 
L 169.622094 155.874484 
L 169.882233 155.743108 
L 170.142373 156.238413 
L 170.402513 155.989438 
L 170.922793 156.440338 
L 171.443073 155.672807 
L 171.703212 155.631246 
L 171.963352 155.827528 
L 172.223492 156.184732 
L 172.483632 155.693904 
L 172.743772 156.168457 
L 173.003912 156.299126 
L 173.264052 155.762169 
L 173.784331 156.752607 
L 174.044471 155.909613 
L 174.304611 156.437744 
L 174.824891 156.503263 
L 175.085031 156.287067 
L 175.34517 156.348738 
L 175.60531 156.141802 
L 175.86545 156.48928 
L 176.12559 155.958175 
L 176.38573 155.93672 
L 176.64587 156.125692 
L 176.90601 156.556642 
L 177.166149 156.08584 
L 177.426289 155.853602 
L 177.686429 156.224566 
L 178.206709 155.977781 
L 178.466849 156.594103 
L 178.726989 155.667991 
L 179.247268 156.37959 
L 179.507408 156.129236 
L 179.767548 156.608581 
L 180.027688 155.852199 
L 180.287828 155.933841 
L 180.547968 155.823862 
L 180.808108 156.261902 
L 181.068247 156.217012 
L 181.328387 156.433896 
L 181.588527 156.219792 
L 181.848667 156.336659 
L 182.108807 156.096349 
L 182.368947 156.14078 
L 182.629087 156.421176 
L 183.409506 156.095558 
L 183.669646 157.212045 
L 183.929786 156.587763 
L 184.189926 156.30008 
L 184.450066 156.348145 
L 184.710205 156.214621 
L 184.970345 156.433314 
L 185.230485 156.347303 
L 185.750765 156.730407 
L 186.010905 156.311451 
L 186.271045 156.422137 
L 186.531184 156.363393 
L 186.791324 156.605773 
L 187.831884 156.104843 
L 188.092024 156.384421 
L 188.352163 156.488825 
L 188.612303 156.398473 
L 188.872443 156.77701 
L 189.392723 156.438086 
L 189.652863 156.575574 
L 189.913003 156.895077 
L 190.173142 156.586644 
L 190.433282 156.758388 
L 190.693422 156.656062 
L 190.953562 156.965966 
L 191.473842 156.474212 
L 191.733982 156.979237 
L 192.514401 156.78095 
L 192.774541 157.101613 
L 193.294821 156.551084 
L 193.815101 157.098151 
L 194.07524 156.494078 
L 194.33538 156.470489 
L 194.59552 156.88698 
L 194.85566 156.736063 
L 195.1158 156.7347 
L 195.37594 157.464837 
L 195.63608 157.245992 
L 195.896219 156.862099 
L 196.156359 156.935837 
L 196.416499 156.769388 
L 196.676639 157.033425 
L 196.936779 156.931994 
L 197.457059 157.300986 
L 197.717198 156.96563 
L 197.977338 157.144787 
L 198.497618 156.797355 
L 198.757758 157.022033 
L 199.017898 156.650283 
L 199.278038 156.643316 
L 199.538177 157.060201 
L 199.798317 156.635579 
L 200.318597 156.742267 
L 200.838877 156.37065 
L 201.099017 156.805563 
L 201.359156 157.010789 
L 201.619296 156.41239 
L 201.879436 156.30752 
L 202.139576 156.518043 
L 202.399716 154.394413 
L 202.659856 153.868807 
L 202.919996 154.745371 
L 203.180135 154.964107 
L 203.440275 155.882272 
L 204.220695 155.2932 
L 204.740975 155.89478 
L 205.001115 155.705633 
L 205.261254 155.735094 
L 205.521394 156.291481 
L 206.041674 155.58715 
L 206.301814 155.645655 
L 206.561954 153.043477 
L 206.822094 154.084499 
L 207.082233 154.435394 
L 207.342373 154.271206 
L 207.602513 154.535556 
L 207.862653 155.139117 
L 208.122793 154.806182 
L 208.382933 155.013079 
L 208.643073 154.635972 
L 208.903212 155.060609 
L 209.163352 155.242783 
L 209.423492 154.710172 
L 209.683632 155.23496 
L 210.464052 154.912978 
L 210.724191 154.600437 
L 210.984331 154.867425 
L 211.244471 154.496443 
L 211.504611 155.003689 
L 212.024891 155.096093 
L 212.285031 154.993173 
L 212.54517 155.095595 
L 212.80531 155.423929 
L 213.58573 155.077029 
L 213.84587 155.272574 
L 214.10601 154.511676 
L 214.886429 155.833112 
L 215.146569 155.491651 
L 215.666849 155.26391 
L 215.926989 155.533926 
L 216.187128 155.532608 
L 216.447268 155.347737 
L 216.707408 155.905205 
L 217.227688 155.375726 
L 217.487828 155.269938 
L 217.747968 155.835803 
L 218.268247 155.153243 
L 219.048667 155.751553 
L 219.568947 155.403771 
L 219.829087 155.480373 
L 220.089226 155.800394 
L 220.349366 155.63988 
L 220.609506 156.279948 
L 220.869646 155.760215 
L 221.389926 155.431543 
L 222.170345 155.709706 
L 222.430485 155.219692 
L 222.690625 155.442174 
L 222.950765 155.890347 
L 223.471045 156.019055 
L 223.731184 155.491745 
L 224.511604 155.350416 
L 224.771744 155.346429 
L 225.031884 155.665712 
L 225.292024 155.630159 
L 225.552163 156.297099 
L 226.072443 154.636774 
L 226.332583 155.540049 
L 226.852863 155.596634 
L 227.113003 155.315462 
L 227.373142 155.58118 
L 227.633282 154.986037 
L 228.413702 155.552048 
L 229.454261 155.310278 
L 229.714401 155.408083 
L 229.974541 155.196475 
L 230.234681 155.538965 
L 230.494821 155.442706 
L 230.754961 155.091318 
L 231.015101 153.608385 
L 231.53538 154.714612 
L 231.79552 154.891346 
L 232.05566 154.903836 
L 232.3158 154.621878 
L 232.57594 155.658852 
L 232.83608 155.249258 
L 233.096219 155.713823 
L 233.356359 155.021825 
L 233.876639 155.150075 
L 234.136779 155.154992 
L 234.396919 155.317545 
L 234.657059 155.151199 
L 234.917198 155.264146 
L 235.177338 155.587818 
L 236.217898 155.074538 
L 236.478038 155.645964 
L 236.738177 155.841646 
L 237.258457 155.051135 
L 237.518597 155.565542 
L 237.778737 155.17962 
L 238.038877 155.260668 
L 238.299017 155.475398 
L 238.559156 155.165695 
L 238.819296 155.24334 
L 239.079436 155.072499 
L 239.339576 155.269896 
L 239.599716 154.818812 
L 239.859856 155.188621 
L 240.119996 155.108289 
L 240.380135 154.669359 
L 240.640275 155.152197 
L 240.900415 155.156871 
L 241.160555 154.848813 
L 241.420695 155.390366 
L 241.680835 155.278702 
L 241.940975 155.436354 
L 242.201115 155.245938 
L 242.461254 155.244318 
L 242.721394 154.974139 
L 242.981534 155.382234 
L 243.241674 155.004301 
L 243.501814 154.988872 
L 243.761954 155.262399 
L 244.282233 155.096087 
L 244.542373 154.837695 
L 245.062653 155.423065 
L 245.322793 155.028617 
L 245.582933 155.512282 
L 245.843073 155.296887 
L 246.103212 155.225788 
L 246.363352 154.743231 
L 246.623492 155.366563 
L 247.143772 155.130873 
L 247.403912 154.707484 
L 247.664052 154.986333 
L 248.184331 154.818989 
L 248.444471 155.046058 
L 248.704611 154.702934 
L 249.224891 155.039919 
L 249.485031 154.975369 
L 249.74517 155.334182 
L 250.00531 154.849228 
L 250.26545 155.037184 
L 250.52559 154.970428 
L 250.78573 155.284791 
L 251.04587 154.96514 
L 251.30601 155.305088 
L 251.566149 154.640369 
L 251.826289 155.181552 
L 252.606709 155.488724 
L 252.866849 154.730194 
L 253.647268 154.930242 
L 253.907408 155.111416 
L 254.167548 155.045237 
L 254.427688 155.248884 
L 254.687828 154.713462 
L 254.947968 154.878149 
L 255.208108 155.207209 
L 255.468247 154.545471 
L 255.988527 155.620813 
L 256.248667 155.274956 
L 256.508807 155.497977 
L 256.768947 155.070469 
L 257.029087 155.350361 
L 257.289226 154.947572 
L 257.549366 155.52839 
L 257.809506 155.107947 
L 258.069646 155.580213 
L 258.329786 155.139409 
L 258.589926 155.178293 
L 258.850066 155.381478 
L 259.110205 155.187845 
L 259.370345 155.494437 
L 259.630485 155.217882 
L 259.890625 155.285562 
L 260.150765 155.031702 
L 260.410905 155.296398 
L 260.671045 154.910107 
L 260.931184 155.275375 
L 261.191324 155.15732 
L 261.451464 155.31056 
L 261.971744 155.333147 
L 262.492024 154.904764 
L 262.752163 155.58039 
L 263.272443 155.156327 
L 263.532583 155.373803 
L 263.792723 155.249042 
L 264.052863 155.254083 
L 264.313003 155.55925 
L 264.573142 155.219763 
L 264.833282 155.562492 
L 265.093422 155.304436 
L 266.133982 155.284766 
L 266.654261 155.369909 
L 267.174541 155.254357 
L 267.434681 155.33416 
L 267.694821 155.032186 
L 268.215101 155.323129 
L 268.47524 155.204486 
L 268.73538 155.311507 
L 268.99552 155.125744 
L 269.77594 155.663483 
L 270.03608 155.077817 
L 270.296219 154.902083 
L 270.556359 155.02242 
L 270.816499 155.328052 
L 271.596919 155.428283 
L 271.857059 155.442195 
L 272.117198 155.699922 
L 272.897618 155.499555 
L 273.157758 155.280517 
L 273.678038 155.843515 
L 273.938177 154.460927 
L 274.198317 155.107892 
L 275.499017 155.057375 
L 275.759156 155.366999 
L 276.019296 155.084903 
L 276.279436 153.80868 
L 276.539576 154.421182 
L 276.799716 154.517176 
L 277.059856 154.371533 
L 277.319996 155.156259 
L 277.840275 155.151924 
L 278.100415 154.886121 
L 278.360555 155.168401 
L 278.620695 151.549215 
L 278.880835 153.671801 
L 279.140975 154.210377 
L 279.401115 153.137968 
L 279.661254 153.212823 
L 279.921394 153.538874 
L 280.181534 153.63788 
L 280.441674 153.866057 
L 280.701814 153.574882 
L 280.961954 153.807505 
L 281.222094 153.786339 
L 281.482233 153.559401 
L 281.742373 154.12274 
L 282.002513 153.933107 
L 282.262653 154.043313 
L 282.522793 153.748751 
L 282.782933 154.127582 
L 283.043073 154.275268 
L 283.303212 153.823059 
L 283.563352 153.913277 
L 283.823492 154.303842 
L 284.083632 154.969832 
L 284.343772 153.886911 
L 284.603912 153.764402 
L 285.124191 154.095029 
L 285.384331 153.892431 
L 285.644471 154.085215 
L 285.904611 153.970061 
L 286.164751 154.195834 
L 286.424891 154.003589 
L 286.685031 154.439732 
L 286.94517 154.185034 
L 287.20531 154.274745 
L 287.46545 154.164723 
L 287.72559 154.349258 
L 287.98573 154.215334 
L 288.24587 153.931444 
L 289.026289 154.356585 
L 289.286429 154.372823 
L 289.546569 154.028425 
L 289.806709 154.139414 
L 290.066849 154.375035 
L 290.587128 154.007671 
L 290.847268 154.379753 
L 291.107408 154.30798 
L 291.367548 153.920567 
L 291.627688 154.074949 
L 291.887828 154.48548 
L 292.147968 154.264881 
L 292.408108 154.224904 
L 292.668247 154.30137 
L 292.928387 153.986259 
L 293.708807 154.153079 
L 293.968947 154.133734 
L 294.229087 154.287122 
L 295.009506 154.271796 
L 295.269646 153.937811 
L 295.789926 154.089754 
L 296.050066 154.338696 
L 296.310205 153.865401 
L 296.570345 153.971171 
L 296.830485 153.877875 
L 297.871045 154.158169 
L 298.391324 153.920859 
L 298.651464 154.317894 
L 298.911604 154.224999 
L 299.171744 154.446094 
L 299.692024 154.076167 
L 300.212303 154.223886 
L 300.472443 153.940132 
L 300.732583 154.107708 
L 301.513003 154.023793 
L 302.033282 154.114796 
L 302.293422 153.951738 
L 302.553562 154.329505 
L 302.813702 154.126174 
L 303.594122 154.319701 
L 303.854261 154.315378 
L 304.114401 154.621295 
L 304.634681 153.964944 
L 305.154961 154.028827 
L 305.415101 154.227184 
L 306.7158 154.378203 
L 306.97594 154.049099 
L 307.23608 153.978356 
L 307.496219 154.58294 
L 307.756359 154.206178 
L 308.016499 154.275986 
L 308.276639 154.143732 
L 308.796919 154.376685 
L 309.057059 154.080599 
L 309.317198 154.252721 
L 309.837478 154.154387 
L 310.097618 153.922477 
L 310.357758 154.097532 
L 310.617898 154.597194 
L 310.878038 153.976399 
L 311.138177 154.136974 
L 311.398317 153.96186 
L 311.658457 154.141673 
L 311.918597 154.478791 
L 312.178737 154.129619 
L 312.699017 153.999698 
L 312.959156 154.097529 
L 313.219296 154.352394 
L 313.479436 154.116491 
L 314.259856 154.07981 
L 314.519996 154.264089 
L 314.780135 154.060622 
L 315.040275 154.013722 
L 315.300415 154.207735 
L 315.560555 153.979308 
L 315.820695 154.218602 
L 316.340975 154.080605 
L 316.601115 154.243596 
L 316.861254 153.864804 
L 317.901814 153.877679 
L 318.161954 153.959656 
L 318.422094 153.795453 
L 318.682233 153.773476 
L 318.942373 154.186488 
L 319.462653 153.700009 
L 319.982933 154.06566 
L 320.243073 153.754328 
L 320.503212 154.287848 
L 321.283632 153.849293 
L 321.803912 153.528761 
L 322.064052 153.87291 
L 322.324191 153.786487 
L 322.584331 153.579352 
L 322.844471 153.644116 
L 323.104611 153.925112 
L 323.364751 153.711868 
L 323.624891 153.664731 
L 324.14517 153.907606 
L 324.40531 153.79868 
L 324.66545 154.055372 
L 325.18573 153.587292 
L 325.44587 153.925825 
L 325.70601 153.770486 
L 325.966149 153.886633 
L 326.226289 153.472232 
L 326.486429 154.056653 
L 326.746569 153.617917 
L 327.006709 153.571063 
L 327.526989 153.9403 
L 327.787128 153.841082 
L 328.307408 154.012851 
L 328.827688 153.814185 
L 329.087828 153.871481 
L 329.347968 153.812954 
L 329.608108 154.077296 
L 329.868247 153.678675 
L 330.128387 153.96379 
L 330.388527 153.987649 
L 330.648667 153.71852 
L 330.908807 153.826589 
L 331.168947 154.332645 
L 331.429087 153.935132 
L 331.689226 154.064574 
L 331.949366 153.981866 
L 332.469646 154.219335 
L 332.729786 154.053844 
L 333.770345 154.018075 
L 334.030485 153.842495 
L 334.290625 154.030466 
L 334.810905 154.052931 
L 335.071045 153.843973 
L 335.591324 153.90353 
L 335.851464 153.818086 
L 336.111604 154.2799 
L 336.631884 153.933575 
L 336.892024 154.300037 
L 337.152163 153.893896 
L 337.672443 154.058179 
L 337.932583 153.92214 
L 338.192723 154.22361 
L 338.452863 153.862036 
L 338.713003 153.693224 
L 338.973142 153.719976 
L 339.493422 154.112372 
L 339.753562 153.760369 
L 340.013702 153.934932 
L 340.273842 153.758076 
L 340.533982 154.126527 
L 341.054261 153.698017 
L 341.834681 153.836213 
L 342.094821 153.927989 
L 342.354961 154.164977 
L 342.615101 154.133394 
L 342.87524 153.938669 
L 343.39552 154.558286 
L 343.65566 154.414128 
L 343.9158 154.028473 
L 344.17594 154.414489 
L 344.43608 154.491601 
L 344.696219 154.373761 
L 344.956359 153.969343 
L 345.216499 154.198198 
L 345.476639 153.895323 
L 345.736779 153.924063 
L 345.996919 154.150303 
L 346.777338 153.796347 
L 347.037478 153.902566 
L 347.297618 153.840236 
L 347.557758 154.118608 
L 347.817898 153.73167 
L 348.078038 153.699172 
L 348.858457 154.417767 
L 349.118597 153.697973 
L 349.378737 154.16362 
L 349.638877 153.967527 
L 349.899017 154.424971 
L 350.159156 154.075927 
L 350.419296 153.943741 
L 350.679436 154.111361 
L 350.939576 154.029278 
L 351.199716 154.3959 
L 351.459856 154.279221 
L 351.719996 153.731126 
L 351.980135 153.933458 
L 352.240275 153.759584 
L 352.500415 154.252961 
L 353.280835 154.214123 
L 353.540975 153.817382 
L 353.801115 153.954916 
L 354.061254 153.954131 
L 354.321394 154.139536 
L 354.581534 153.998398 
L 354.841674 154.01198 
L 355.101814 153.770395 
L 355.361954 153.984374 
L 355.622094 153.803639 
L 355.882233 153.896815 
L 356.142373 154.327526 
L 356.662653 154.01714 
L 356.922793 154.148716 
L 357.182933 154.020145 
L 357.443073 153.737345 
L 358.223492 154.160656 
L 358.483632 154.289256 
L 358.743772 154.099192 
L 359.264052 154.258271 
L 359.524191 154.43969 
L 359.784331 154.466777 
L 360.044471 154.188428 
L 360.304611 154.177265 
L 360.564751 153.911907 
L 360.824891 154.21176 
L 361.085031 153.868858 
L 361.60531 153.936139 
L 361.86545 153.989305 
L 362.12559 153.910832 
L 362.38573 154.05375 
L 362.64587 154.331082 
L 362.90601 154.389428 
L 363.166149 153.938845 
L 363.686429 154.264901 
L 363.946569 154.185355 
L 364.206709 153.866401 
L 364.466849 154.115681 
L 364.987128 154.051252 
L 365.507408 154.501722 
L 365.767548 154.195006 
L 366.027688 154.12441 
L 366.287828 154.291247 
L 366.547968 154.21853 
L 366.808108 154.024233 
L 367.068247 154.026906 
L 367.588527 154.571016 
L 368.368947 154.264473 
L 368.629087 153.853914 
L 368.889226 154.087683 
L 369.149366 154.514502 
L 369.409506 154.336722 
L 369.669646 153.90356 
L 370.189926 154.311913 
L 370.450066 154.234345 
L 370.710205 154.378542 
L 370.970345 154.14663 
L 371.230485 154.348093 
L 371.490625 154.146855 
L 371.750765 154.325467 
L 372.010905 154.251309 
L 372.271045 154.003232 
L 373.311604 154.103678 
L 373.571744 153.875189 
L 374.092024 154.247452 
L 374.352163 153.897624 
L 375.132583 153.909604 
L 375.392723 154.191593 
L 376.173142 154.095129 
L 376.433282 154.1144 
L 376.693422 153.94871 
L 377.473842 154.296575 
L 377.733982 154.075555 
L 377.994122 154.44911 
L 378.254261 154.356132 
L 378.514401 154.41537 
L 378.774541 154.055603 
L 379.294821 154.100535 
L 379.554961 154.232757 
L 379.815101 154.118349 
L 380.07524 154.138495 
L 380.33538 154.328127 
L 380.59552 153.934045 
L 380.85566 154.232494 
L 381.1158 154.254489 
L 381.37594 154.447165 
L 381.63608 154.444631 
L 381.896219 154.209224 
L 382.416499 154.089822 
L 382.676639 154.288049 
L 383.457059 154.007912 
L 383.977338 153.948876 
L 384.237478 154.078815 
L 384.757758 153.885951 
L 385.017898 154.219233 
L 385.278038 154.203418 
L 385.538177 154.057217 
L 385.798317 154.410819 
L 386.318597 154.002355 
L 386.578737 154.37376 
L 387.099017 154.106879 
L 387.359156 154.135913 
L 387.879436 154.319537 
L 388.659856 154.079798 
L 388.919996 154.40421 
L 389.180135 154.117763 
L 390.220695 154.326372 
L 390.480835 154.320393 
L 390.740975 154.110944 
L 391.001115 154.164353 
L 391.261254 154.637807 
L 391.521394 154.313117 
L 391.781534 154.253446 
L 392.301814 154.433177 
L 392.561954 154.015535 
L 392.822094 154.215634 
L 393.342373 153.984831 
L 393.602513 154.11794 
L 394.122793 154.046193 
L 395.163352 154.157147 
L 395.423492 154.329375 
L 395.683632 154.29765 
L 396.464052 153.914481 
L 396.724191 154.236359 
L 396.984331 154.010467 
L 397.504611 153.943755 
L 397.764751 153.53262 
L 398.024891 154.056023 
L 399.32559 153.909032 
L 399.58573 154.2921 
L 399.84587 153.614156 
L 400.366149 154.203688 
L 401.666849 153.864617 
L 402.187128 153.818541 
L 402.447268 153.670539 
L 402.707408 154.022802 
L 403.487828 153.789161 
L 404.788527 153.978781 
L 405.048667 154.234708 
L 405.829087 154.044837 
L 406.089226 153.792993 
L 406.349366 153.755277 
L 406.869646 154.220482 
L 407.129786 154.110407 
L 407.389926 153.783916 
L 407.650066 154.313478 
L 407.910205 153.969518 
L 408.170345 153.849672 
L 408.690625 154.113797 
L 408.950765 154.137897 
L 409.210905 153.850286 
L 409.471045 153.730601 
L 409.731184 154.258245 
L 409.991324 153.954271 
L 410.511604 153.740594 
L 410.771744 154.018024 
L 411.292024 153.926222 
L 411.552163 154.145229 
L 411.812303 153.997193 
L 412.072443 154.056473 
L 412.592723 153.804752 
L 412.852863 154.092211 
L 413.113003 153.919203 
L 413.373142 154.010276 
L 413.893422 153.727286 
L 414.673842 153.840228 
L 414.933982 153.856192 
L 415.194122 153.619472 
L 415.454261 153.731829 
L 415.714401 153.699567 
L 415.974541 153.889863 
L 416.234681 153.784353 
L 416.494821 153.988048 
L 416.754961 153.608502 
L 417.27524 153.756962 
L 417.53538 153.648117 
L 417.79552 153.751202 
L 418.05566 154.048419 
L 418.3158 153.988363 
L 418.57594 153.535162 
L 419.356359 154.299353 
L 419.876639 153.766523 
L 420.136779 153.960111 
L 420.657059 153.809754 
L 420.917198 153.74915 
L 421.177338 153.937067 
L 421.437478 153.740406 
L 421.697618 153.839032 
L 421.957758 153.580448 
L 422.217898 153.682983 
L 422.478038 153.506394 
L 422.998317 153.783745 
L 423.258457 153.71797 
L 423.518597 153.786397 
L 423.778737 153.68383 
L 424.038877 153.854369 
L 424.299017 153.811334 
L 424.819296 153.474582 
L 425.079436 153.444142 
L 425.339576 153.585643 
L 425.599716 153.55147 
L 425.859856 153.852637 
L 426.119996 153.444372 
L 426.640275 153.799378 
L 426.900415 153.435373 
L 427.160555 153.565787 
L 427.420695 153.909216 
L 427.680835 153.591031 
L 427.940975 153.713839 
L 428.201115 153.515405 
L 428.461254 153.796574 
L 429.501814 153.78357 
L 429.761954 153.486434 
L 430.282233 153.660724 
L 430.542373 153.465208 
L 430.802513 153.628123 
L 431.582933 153.383135 
L 432.103212 153.437859 
L 432.363352 153.333022 
L 432.623492 153.601678 
L 433.143772 153.52113 
L 433.403912 153.540977 
L 433.664052 153.705811 
L 433.924191 153.506279 
L 434.184331 153.50767 
L 434.444471 153.394018 
L 434.704611 153.543582 
L 434.964751 153.396164 
L 435.485031 153.654618 
L 435.74517 153.638947 
L 436.00531 153.442629 
L 436.26545 153.612165 
L 436.52559 153.610306 
L 436.78573 153.750076 
L 437.04587 153.548167 
L 437.30601 153.495158 
L 437.566149 153.768391 
L 437.826289 153.635529 
L 438.346569 153.811356 
L 438.606709 153.571337 
L 438.866849 153.866926 
L 439.387128 153.612034 
L 439.647268 153.726404 
L 440.427688 153.642421 
L 440.947968 154.113019 
L 441.468247 153.752669 
L 441.728387 153.838809 
L 442.508807 153.70945 
L 443.029087 153.669421 
L 443.549366 153.643659 
L 443.809506 153.898688 
L 444.069646 153.619783 
L 444.589926 153.466474 
L 445.110205 153.827922 
L 445.370345 153.595058 
L 445.630485 153.638498 
L 445.890625 154.161071 
L 446.410905 153.911531 
L 446.671045 154.08234 
L 446.931184 153.722731 
L 447.711604 153.607553 
L 447.971744 153.951289 
L 448.492024 153.64361 
L 449.532583 153.947013 
L 450.052863 153.779647 
L 450.833282 153.916043 
L 451.093422 153.627443 
L 451.353562 153.815472 
L 451.613702 153.644593 
L 451.873842 153.704829 
L 452.133982 153.644729 
L 452.394122 153.784662 
L 452.654261 153.728161 
L 452.914401 153.813443 
L 453.174541 153.633944 
L 453.434681 153.934501 
L 453.694821 153.98363 
L 454.215101 153.604701 
L 454.47524 153.893512 
L 454.73538 153.675376 
L 455.25566 153.61956 
L 455.77594 153.661399 
L 456.03608 153.682053 
L 456.296219 153.895038 
L 456.556359 153.692404 
L 456.816499 153.69523 
L 457.076639 153.877967 
L 457.857059 153.783067 
L 458.377338 153.451278 
L 458.637478 153.740433 
L 458.897618 153.593752 
L 459.157758 153.708738 
L 459.938177 153.589259 
L 460.458457 153.892645 
L 460.718597 153.701044 
L 461.499017 154.094306 
L 462.019296 153.631876 
L 462.279436 153.821865 
L 462.539576 153.53313 
L 462.799716 153.837683 
L 463.059856 153.709512 
L 463.319996 153.976963 
L 463.580135 153.524268 
L 463.840275 153.851789 
L 464.360555 153.893796 
L 464.620695 153.564461 
L 464.880835 153.934477 
L 465.140975 153.87539 
L 465.401115 153.521523 
L 465.661254 153.617314 
L 466.181534 153.522105 
L 466.441674 153.570153 
L 466.701814 153.749106 
L 466.961954 153.732442 
L 467.222094 153.539779 
L 467.482233 153.519816 
L 467.742373 153.763688 
L 468.002513 153.385901 
L 468.262653 153.254838 
L 468.522793 153.64038 
L 468.782933 153.767238 
L 469.043073 153.311902 
L 469.823492 153.773653 
L 470.083632 153.54239 
L 470.343772 153.774382 
L 470.603912 153.551954 
L 470.864052 153.577954 
L 471.124191 153.823898 
L 471.384331 153.573428 
L 472.164751 153.566822 
L 472.424891 153.409663 
L 472.685031 153.558861 
L 473.20531 153.467655 
L 473.46545 153.786692 
L 473.98573 153.819304 
L 474.24587 153.526983 
L 474.50601 153.661894 
L 474.766149 153.626087 
L 475.026289 153.99085 
L 475.286429 153.611746 
L 475.546569 153.841844 
L 475.806709 153.630269 
L 476.066849 153.58926 
L 476.326989 153.714092 
L 476.587128 153.662656 
L 476.847268 153.788584 
L 477.107408 153.663854 
L 477.367548 153.927436 
L 477.627688 153.608622 
L 477.887828 153.84961 
L 478.147968 153.620663 
L 478.668247 153.708176 
L 478.928387 153.674792 
L 479.188527 153.822119 
L 479.448667 153.563004 
L 479.708807 153.67597 
L 480.749366 153.310989 
L 481.009506 153.617095 
L 481.269646 153.34086 
L 481.529786 153.515964 
L 482.310205 153.527073 
L 482.570345 153.295187 
L 482.830485 153.495705 
L 483.090625 153.364802 
L 483.871045 153.577266 
L 484.131184 153.386816 
L 484.391324 153.789625 
L 484.651464 153.215657 
L 484.911604 153.456652 
L 485.952163 153.732618 
L 486.212303 153.570805 
L 486.472443 153.745731 
L 486.732583 153.553034 
L 486.992723 153.72733 
L 487.252863 153.443527 
L 488.033282 153.486646 
L 488.293422 153.633082 
L 489.333982 153.150589 
L 490.114401 153.363028 
L 490.374541 153.441042 
L 490.634681 153.12213 
L 491.154961 153.345722 
L 491.415101 153.287108 
L 491.93538 153.394502 
L 492.45566 153.123854 
L 492.7158 153.29572 
L 492.97594 153.259546 
L 493.23608 153.414328 
L 493.496219 153.169864 
L 493.756359 153.589313 
L 494.016499 153.310722 
L 495.057059 153.074632 
L 495.577338 153.375424 
L 496.357758 153.39394 
L 496.878038 153.213101 
L 498.178737 153.305209 
L 498.438877 153.642875 
L 499.219296 153.219974 
L 499.479436 153.360109 
L 499.739576 153.268092 
L 500.519996 153.522112 
L 501.040275 153.304114 
L 501.300415 153.197294 
L 501.560555 153.353062 
L 501.820695 153.352243 
L 502.080835 153.514872 
L 502.340975 153.1508 
L 503.121394 153.42874 
L 503.901814 153.40628 
L 504.161954 153.325218 
L 504.422094 153.420448 
L 504.682233 153.689085 
L 504.942373 153.175583 
L 505.202513 153.295932 
L 505.722793 153.010928 
L 505.982933 153.158466 
L 506.243073 153.002519 
L 506.503212 153.103744 
L 506.763352 153.348791 
L 507.023492 153.414407 
L 507.283632 153.255084 
L 507.803912 153.55702 
L 508.064052 153.307669 
L 508.324191 153.471619 
L 508.584331 153.338908 
L 508.844471 153.489748 
L 509.104611 153.157198 
L 509.624891 153.229429 
L 509.885031 153.122373 
L 510.66545 153.335821 
L 511.18573 153.263609 
L 511.44587 153.523582 
L 512.226289 153.241465 
L 512.486429 153.352413 
L 513.006709 153.247114 
L 513.526989 153.578611 
L 514.307408 153.287029 
L 514.567548 153.597787 
L 514.827688 153.577999 
L 515.087828 153.228747 
L 515.868247 152.991536 
L 516.908807 153.0719 
L 517.168947 153.394673 
L 517.689226 153.122708 
L 517.949366 153.34781 
L 518.729786 153.193604 
L 518.989926 153.356206 
L 519.250066 153.101592 
L 519.510205 153.236333 
L 519.770345 153.241952 
L 520.030485 153.378006 
L 520.810905 153.300455 
L 521.071045 153.274422 
L 521.331184 153.362097 
L 521.591324 153.055824 
L 522.111604 153.123356 
L 522.631884 153.286312 
L 522.892024 153.241122 
L 523.152163 153.333852 
L 523.932583 153.077256 
L 524.713003 153.287651 
L 524.973142 153.119691 
L 525.233282 153.390178 
L 525.753562 153.555823 
L 526.013702 153.261305 
L 526.273842 153.269223 
L 526.533982 153.461192 
L 527.054261 153.349592 
L 527.314401 153.530363 
L 527.574541 153.374637 
L 527.834681 153.563108 
L 528.354961 153.151832 
L 529.13538 153.386099 
L 529.65566 153.173586 
L 530.43608 153.489755 
L 530.696219 153.506098 
L 530.956359 153.249463 
L 531.216499 153.668513 
L 531.476639 153.321028 
L 531.736779 153.375023 
L 531.996919 153.217508 
L 532.257059 153.438894 
L 532.517198 153.441465 
L 532.777338 153.299701 
L 533.037478 153.316906 
L 533.297618 153.16941 
L 533.557758 153.16602 
L 533.817898 153.378197 
L 534.078038 153.275509 
L 534.858457 153.432676 
L 535.118597 153.292636 
L 535.378737 153.28352 
L 535.638877 153.137678 
L 535.899017 153.15773 
L 536.419296 153.443877 
L 536.679436 153.151781 
L 536.939576 153.254116 
L 537.199716 153.060122 
L 537.980135 153.403341 
L 538.760555 153.441244 
L 539.020695 153.669271 
L 539.280835 153.293515 
L 539.801115 153.203355 
L 540.321394 153.108848 
L 540.841674 153.366188 
L 541.101814 153.078729 
L 541.361954 153.243851 
L 542.922793 153.305525 
L 543.703212 153.053216 
L 543.963352 153.320177 
L 544.223492 153.168925 
L 544.483632 153.240159 
L 544.743772 153.136188 
L 545.003912 153.152692 
L 545.264052 153.280572 
L 545.524191 153.176477 
L 546.044471 153.427916 
L 546.304611 153.219656 
L 546.824891 153.25249 
L 547.34517 153.416147 
L 547.60531 153.240914 
L 548.12559 153.449765 
L 548.38573 153.267955 
L 548.64587 153.376127 
L 548.90601 153.200082 
L 549.686429 153.203108 
L 549.946569 153.334917 
L 550.206709 153.315177 
L 550.466849 153.500635 
L 550.987128 153.187995 
L 551.247268 153.062713 
L 551.507408 153.445698 
L 552.027688 153.182682 
L 552.287828 153.165216 
L 552.547968 153.614389 
L 553.068247 153.370003 
L 553.328387 153.389177 
L 553.848667 153.075333 
L 554.368947 153.34501 
L 554.629087 153.135357 
L 555.149366 153.519055 
L 555.669646 153.521653 
L 555.929786 153.427736 
L 556.189926 153.596221 
L 556.970345 153.335739 
L 557.750765 153.557397 
L 558.010905 153.448385 
L 558.531184 153.531978 
L 559.051464 153.54424 
L 559.311604 153.256091 
L 559.571744 153.453715 
L 560.092024 153.386594 
L 560.352163 153.567694 
L 560.872443 153.500238 
L 561.132583 153.541007 
L 561.392723 153.330139 
L 561.652863 153.475395 
L 562.173142 153.412441 
L 562.433282 153.339484 
L 562.953562 153.537619 
L 563.213702 153.656001 
L 563.473842 153.462349 
L 563.733982 153.69027 
L 563.994122 153.476832 
L 564.254261 153.572752 
L 564.514401 153.394373 
L 564.774541 153.573494 
L 565.034681 153.534476 
L 565.294821 153.334606 
L 565.554961 153.450318 
L 565.815101 153.726391 
L 566.07524 153.560339 
L 566.33538 153.650249 
L 566.59552 153.438393 
L 567.1158 153.600963 
L 567.37594 153.42283 
L 567.63608 153.641245 
L 567.896219 153.501168 
L 568.156359 153.817292 
L 568.416499 153.314901 
L 568.676639 153.558387 
L 569.457059 153.408458 
L 569.717198 153.517917 
L 569.977338 153.295693 
L 570.757758 153.468175 
L 571.017898 153.657612 
L 571.278038 153.653052 
L 571.538177 153.241308 
L 571.798317 153.262062 
L 572.058457 153.489567 
L 572.578737 153.310521 
L 573.099017 153.46209 
L 573.879436 153.313838 
L 574.139576 153.435222 
L 574.399716 153.405877 
L 574.659856 153.636545 
L 574.919996 153.579087 
L 575.180135 153.332408 
L 575.700415 153.475995 
L 575.960555 153.415294 
L 576.220695 153.47324 
L 576.480835 153.234564 
L 576.740975 153.255155 
L 577.261254 153.520595 
L 577.781534 153.451719 
L 578.041674 153.669141 
L 578.301814 153.486125 
L 579.082233 153.434707 
L 579.342373 153.168803 
L 579.602513 153.531145 
L 580.122793 153.470492 
L 580.382933 153.278891 
L 580.643073 153.609753 
L 580.903212 153.428539 
L 581.163352 153.429296 
L 581.423492 153.298223 
L 582.203912 153.534343 
L 582.464052 153.35891 
L 583.244471 153.3031 
L 584.285031 153.775369 
L 584.54517 153.4702 
L 584.80531 153.726208 
L 585.06545 153.469453 
L 585.32559 153.598145 
L 585.58573 153.28731 
L 586.10601 153.70472 
L 586.626289 153.332922 
L 586.886429 153.417711 
L 587.146569 153.214567 
L 587.406709 153.401392 
L 587.666849 153.178973 
L 587.926989 153.472496 
L 588.187128 153.262517 
L 588.447268 153.247437 
L 588.707408 153.357643 
L 588.967548 153.685013 
L 589.227688 153.393333 
L 589.487828 153.32234 
L 589.747968 153.577011 
L 590.008108 153.641627 
L 590.788527 153.396655 
L 591.048667 153.679376 
L 592.869646 153.147086 
L 593.129786 153.577495 
L 593.389926 153.4411 
L 593.650066 153.733897 
L 593.910205 153.333528 
L 594.690625 153.250414 
L 595.210905 153.165729 
L 595.471045 153.439787 
L 595.731184 153.091362 
L 595.991324 153.314817 
L 596.251464 153.262298 
L 596.511604 153.053829 
L 596.771744 153.557268 
L 597.031884 153.610957 
L 597.292024 153.522991 
L 597.552163 153.203311 
L 597.812303 153.400114 
L 598.072443 153.298179 
L 598.332583 153.568517 
L 599.113003 153.209681 
L 599.633282 153.397703 
L 599.893422 153.529631 
L 600.413702 153.212025 
L 600.673842 153.501997 
L 600.933982 153.37865 
L 601.194122 153.116407 
L 601.454261 153.469986 
L 601.714401 153.460639 
L 601.974541 153.26927 
L 602.494821 153.477161 
L 602.754961 153.326073 
L 603.015101 153.50476 
L 603.27524 153.239168 
L 603.53538 153.334629 
L 604.05566 153.223228 
L 604.3158 153.246142 
L 604.57594 153.39874 
L 604.83608 153.326272 
L 605.616499 153.751176 
L 606.396919 153.26881 
L 606.657059 153.417104 
L 606.917198 153.435556 
L 607.177338 153.287668 
L 607.437478 153.519428 
L 607.697618 153.237898 
L 607.957758 153.237125 
L 608.478038 153.396607 
L 608.738177 153.319765 
L 609.778737 153.440434 
L 610.819296 153.417017 
L 611.339576 153.718529 
L 611.599716 153.318032 
L 611.859856 153.320706 
L 612.119996 153.169154 
L 612.900415 153.434627 
L 613.160555 153.266348 
L 613.420695 153.315811 
L 613.680835 153.590261 
L 613.940975 153.362591 
L 614.201115 153.334224 
L 614.461254 153.491337 
L 614.981534 153.306058 
L 615.501814 153.712937 
L 615.761954 153.715902 
L 616.022094 153.27678 
L 616.282233 153.317587 
L 616.542373 153.212498 
L 616.802513 153.38883 
L 617.062653 153.15756 
L 617.582933 153.202723 
L 618.623492 153.195205 
L 618.883632 153.370045 
L 619.143772 153.253604 
L 619.403912 153.269459 
L 619.924191 153.426879 
L 620.704611 153.098947 
L 620.964751 153.105058 
L 621.74517 153.489748 
L 622.00531 153.42832 
L 622.26545 153.539887 
L 622.52559 153.397256 
L 623.04587 153.402925 
L 623.30601 153.285066 
L 623.566149 153.319623 
L 623.826289 153.054981 
L 624.086429 153.307381 
L 624.606709 153.184104 
L 625.126989 153.29449 
L 625.126989 153.29449 
" clip-path="url(#p81b9cb7ed8)" style="fill: none; stroke: #ff7f0e; stroke-width: 1.5; stroke-linecap: square"/>
   </g>
   <g id="patch_3">
    <path d="M 92.490625 308.63625 
L 92.490625 31.43625 
" style="fill: none; stroke: #000000; stroke-width: 0.8; stroke-linejoin: miter; stroke-linecap: square"/>
   </g>
   <g id="patch_4">
    <path d="M 650.490625 308.63625 
L 650.490625 31.43625 
" style="fill: none; stroke: #000000; stroke-width: 0.8; stroke-linejoin: miter; stroke-linecap: square"/>
   </g>
   <g id="patch_5">
    <path d="M 92.490625 308.63625 
L 650.490625 308.63625 
" style="fill: none; stroke: #000000; stroke-width: 0.8; stroke-linejoin: miter; stroke-linecap: square"/>
   </g>
   <g id="patch_6">
    <path d="M 92.490625 31.43625 
L 650.490625 31.43625 
" style="fill: none; stroke: #000000; stroke-width: 0.8; stroke-linejoin: miter; stroke-linecap: square"/>
   </g>
   <g id="text_15">
    <!-- Generator and Discriminator Loss During Training -->
    <g transform="translate(74.258125 25.43625) scale(0.24 -0.24)">
     <defs>
      <path id="DejaVuSans-47" d="M 3809 666 
L 3809 1919 
L 2778 1919 
L 2778 2438 
L 4434 2438 
L 4434 434 
Q 4069 175 3628 42 
Q 3188 -91 2688 -91 
Q 1594 -91 976 548 
Q 359 1188 359 2328 
Q 359 3472 976 4111 
Q 1594 4750 2688 4750 
Q 3144 4750 3555 4637 
Q 3966 4525 4313 4306 
L 4313 3634 
Q 3963 3931 3569 4081 
Q 3175 4231 2741 4231 
Q 1884 4231 1454 3753 
Q 1025 3275 1025 2328 
Q 1025 1384 1454 906 
Q 1884 428 2741 428 
Q 3075 428 3337 486 
Q 3600 544 3809 666 
z
" transform="scale(0.015625)"/>
      <path id="DejaVuSans-20" transform="scale(0.015625)"/>
      <path id="DejaVuSans-64" d="M 2906 2969 
L 2906 4863 
L 3481 4863 
L 3481 0 
L 2906 0 
L 2906 525 
Q 2725 213 2448 61 
Q 2172 -91 1784 -91 
Q 1150 -91 751 415 
Q 353 922 353 1747 
Q 353 2572 751 3078 
Q 1150 3584 1784 3584 
Q 2172 3584 2448 3432 
Q 2725 3281 2906 2969 
z
M 947 1747 
Q 947 1113 1208 752 
Q 1469 391 1925 391 
Q 2381 391 2643 752 
Q 2906 1113 2906 1747 
Q 2906 2381 2643 2742 
Q 2381 3103 1925 3103 
Q 1469 3103 1208 2742 
Q 947 2381 947 1747 
z
" transform="scale(0.015625)"/>
      <path id="DejaVuSans-44" d="M 1259 4147 
L 1259 519 
L 2022 519 
Q 2988 519 3436 956 
Q 3884 1394 3884 2338 
Q 3884 3275 3436 3711 
Q 2988 4147 2022 4147 
L 1259 4147 
z
M 628 4666 
L 1925 4666 
Q 3281 4666 3915 4102 
Q 4550 3538 4550 2338 
Q 4550 1131 3912 565 
Q 3275 0 1925 0 
L 628 0 
L 628 4666 
z
" transform="scale(0.015625)"/>
      <path id="DejaVuSans-63" d="M 3122 3366 
L 3122 2828 
Q 2878 2963 2633 3030 
Q 2388 3097 2138 3097 
Q 1578 3097 1268 2742 
Q 959 2388 959 1747 
Q 959 1106 1268 751 
Q 1578 397 2138 397 
Q 2388 397 2633 464 
Q 2878 531 3122 666 
L 3122 134 
Q 2881 22 2623 -34 
Q 2366 -91 2075 -91 
Q 1284 -91 818 406 
Q 353 903 353 1747 
Q 353 2603 823 3093 
Q 1294 3584 2113 3584 
Q 2378 3584 2631 3529 
Q 2884 3475 3122 3366 
z
" transform="scale(0.015625)"/>
      <path id="DejaVuSans-6d" d="M 3328 2828 
Q 3544 3216 3844 3400 
Q 4144 3584 4550 3584 
Q 5097 3584 5394 3201 
Q 5691 2819 5691 2113 
L 5691 0 
L 5113 0 
L 5113 2094 
Q 5113 2597 4934 2840 
Q 4756 3084 4391 3084 
Q 3944 3084 3684 2787 
Q 3425 2491 3425 1978 
L 3425 0 
L 2847 0 
L 2847 2094 
Q 2847 2600 2669 2842 
Q 2491 3084 2119 3084 
Q 1678 3084 1418 2786 
Q 1159 2488 1159 1978 
L 1159 0 
L 581 0 
L 581 3500 
L 1159 3500 
L 1159 2956 
Q 1356 3278 1631 3431 
Q 1906 3584 2284 3584 
Q 2666 3584 2933 3390 
Q 3200 3197 3328 2828 
z
" transform="scale(0.015625)"/>
      <path id="DejaVuSans-75" d="M 544 1381 
L 544 3500 
L 1119 3500 
L 1119 1403 
Q 1119 906 1312 657 
Q 1506 409 1894 409 
Q 2359 409 2629 706 
Q 2900 1003 2900 1516 
L 2900 3500 
L 3475 3500 
L 3475 0 
L 2900 0 
L 2900 538 
Q 2691 219 2414 64 
Q 2138 -91 1772 -91 
Q 1169 -91 856 284 
Q 544 659 544 1381 
z
M 1991 3584 
L 1991 3584 
z
" transform="scale(0.015625)"/>
      <path id="DejaVuSans-67" d="M 2906 1791 
Q 2906 2416 2648 2759 
Q 2391 3103 1925 3103 
Q 1463 3103 1205 2759 
Q 947 2416 947 1791 
Q 947 1169 1205 825 
Q 1463 481 1925 481 
Q 2391 481 2648 825 
Q 2906 1169 2906 1791 
z
M 3481 434 
Q 3481 -459 3084 -895 
Q 2688 -1331 1869 -1331 
Q 1566 -1331 1297 -1286 
Q 1028 -1241 775 -1147 
L 775 -588 
Q 1028 -725 1275 -790 
Q 1522 -856 1778 -856 
Q 2344 -856 2625 -561 
Q 2906 -266 2906 331 
L 2906 616 
Q 2728 306 2450 153 
Q 2172 0 1784 0 
Q 1141 0 747 490 
Q 353 981 353 1791 
Q 353 2603 747 3093 
Q 1141 3584 1784 3584 
Q 2172 3584 2450 3431 
Q 2728 3278 2906 2969 
L 2906 3500 
L 3481 3500 
L 3481 434 
z
" transform="scale(0.015625)"/>
      <path id="DejaVuSans-54" d="M -19 4666 
L 3928 4666 
L 3928 4134 
L 2272 4134 
L 2272 0 
L 1638 0 
L 1638 4134 
L -19 4134 
L -19 4666 
z
" transform="scale(0.015625)"/>
     </defs>
     <use xlink:href="#DejaVuSans-47"/>
     <use xlink:href="#DejaVuSans-65" x="77.490234"/>
     <use xlink:href="#DejaVuSans-6e" x="139.013672"/>
     <use xlink:href="#DejaVuSans-65" x="202.392578"/>
     <use xlink:href="#DejaVuSans-72" x="263.916016"/>
     <use xlink:href="#DejaVuSans-61" x="305.029297"/>
     <use xlink:href="#DejaVuSans-74" x="366.308594"/>
     <use xlink:href="#DejaVuSans-6f" x="405.517578"/>
     <use xlink:href="#DejaVuSans-72" x="466.699219"/>
     <use xlink:href="#DejaVuSans-20" x="507.8125"/>
     <use xlink:href="#DejaVuSans-61" x="539.599609"/>
     <use xlink:href="#DejaVuSans-6e" x="600.878906"/>
     <use xlink:href="#DejaVuSans-64" x="664.257812"/>
     <use xlink:href="#DejaVuSans-20" x="727.734375"/>
     <use xlink:href="#DejaVuSans-44" x="759.521484"/>
     <use xlink:href="#DejaVuSans-69" x="836.523438"/>
     <use xlink:href="#DejaVuSans-73" x="864.306641"/>
     <use xlink:href="#DejaVuSans-63" x="916.40625"/>
     <use xlink:href="#DejaVuSans-72" x="971.386719"/>
     <use xlink:href="#DejaVuSans-69" x="1012.5"/>
     <use xlink:href="#DejaVuSans-6d" x="1040.283203"/>
     <use xlink:href="#DejaVuSans-69" x="1137.695312"/>
     <use xlink:href="#DejaVuSans-6e" x="1165.478516"/>
     <use xlink:href="#DejaVuSans-61" x="1228.857422"/>
     <use xlink:href="#DejaVuSans-74" x="1290.136719"/>
     <use xlink:href="#DejaVuSans-6f" x="1329.345703"/>
     <use xlink:href="#DejaVuSans-72" x="1390.527344"/>
     <use xlink:href="#DejaVuSans-20" x="1431.640625"/>
     <use xlink:href="#DejaVuSans-4c" x="1463.427734"/>
     <use xlink:href="#DejaVuSans-6f" x="1517.390625"/>
     <use xlink:href="#DejaVuSans-73" x="1578.572266"/>
     <use xlink:href="#DejaVuSans-73" x="1630.671875"/>
     <use xlink:href="#DejaVuSans-20" x="1682.771484"/>
     <use xlink:href="#DejaVuSans-44" x="1714.558594"/>
     <use xlink:href="#DejaVuSans-75" x="1791.560547"/>
     <use xlink:href="#DejaVuSans-72" x="1854.939453"/>
     <use xlink:href="#DejaVuSans-69" x="1896.052734"/>
     <use xlink:href="#DejaVuSans-6e" x="1923.835938"/>
     <use xlink:href="#DejaVuSans-67" x="1987.214844"/>
     <use xlink:href="#DejaVuSans-20" x="2050.691406"/>
     <use xlink:href="#DejaVuSans-54" x="2082.478516"/>
     <use xlink:href="#DejaVuSans-72" x="2128.8125"/>
     <use xlink:href="#DejaVuSans-61" x="2169.925781"/>
     <use xlink:href="#DejaVuSans-69" x="2231.205078"/>
     <use xlink:href="#DejaVuSans-6e" x="2258.988281"/>
     <use xlink:href="#DejaVuSans-69" x="2322.367188"/>
     <use xlink:href="#DejaVuSans-6e" x="2350.150391"/>
     <use xlink:href="#DejaVuSans-67" x="2413.529297"/>
    </g>
   </g>
   <g id="legend_1">
    <g id="patch_7">
     <path d="M 556.99375 106.14875 
L 636.490625 106.14875 
Q 640.490625 106.14875 640.490625 102.14875 
L 640.490625 45.43625 
Q 640.490625 41.43625 636.490625 41.43625 
L 556.99375 41.43625 
Q 552.99375 41.43625 552.99375 45.43625 
L 552.99375 102.14875 
Q 552.99375 106.14875 556.99375 106.14875 
z
" style="fill: #ffffff; opacity: 0.8; stroke: #cccccc; stroke-linejoin: miter"/>
    </g>
    <g id="line2d_15">
     <path d="M 560.99375 57.633125 
L 580.99375 57.633125 
L 600.99375 57.633125 
" style="fill: none; stroke: #1f77b4; stroke-width: 1.5; stroke-linecap: square"/>
    </g>
    <g id="text_16">
     <!-- G -->
     <g transform="translate(616.99375 64.633125) scale(0.2 -0.2)">
      <use xlink:href="#DejaVuSans-47"/>
     </g>
    </g>
    <g id="line2d_16">
     <path d="M 560.99375 86.989375 
L 580.99375 86.989375 
L 600.99375 86.989375 
" style="fill: none; stroke: #ff7f0e; stroke-width: 1.5; stroke-linecap: square"/>
    </g>
    <g id="text_17">
     <!-- D -->
     <g transform="translate(616.99375 93.989375) scale(0.2 -0.2)">
      <use xlink:href="#DejaVuSans-44"/>
     </g>
    </g>
   </g>
  </g>
 </g>
 <defs>
  <clipPath id="p81b9cb7ed8">
   <rect x="92.490625" y="31.43625" width="558" height="277.2"/>
  </clipPath>
 </defs>
</svg>
