<?xml version="1.0" encoding="utf-8" standalone="no"?>
<!DOCTYPE svg PUBLIC "-//W3C//DTD SVG 1.1//EN"
  "http://www.w3.org/Graphics/SVG/1.1/DTD/svg11.dtd">
<svg xmlns:xlink="http://www.w3.org/1999/xlink" width="675.923125pt" height="365.54875pt" viewBox="0 0 675.923125 365.54875" xmlns="http://www.w3.org/2000/svg" version="1.1">
 <metadata>
  <rdf:RDF xmlns:dc="http://purl.org/dc/elements/1.1/" xmlns:cc="http://creativecommons.org/ns#" xmlns:rdf="http://www.w3.org/1999/02/22-rdf-syntax-ns#">
   <cc:Work>
    <dc:type rdf:resource="http://purl.org/dc/dcmitype/StillImage"/>
    <dc:date>2024-02-01T20:57:56.651340</dc:date>
    <dc:format>image/svg+xml</dc:format>
    <dc:creator>
     <cc:Agent>
      <dc:title>Matplotlib v3.7.2, https://matplotlib.org/</dc:title>
     </cc:Agent>
    </dc:creator>
   </cc:Work>
  </rdf:RDF>
 </metadata>
 <defs>
  <style type="text/css">*{stroke-linejoin: round; stroke-linecap: butt}</style>
 </defs>
 <g id="figure_1">
  <g id="patch_1">
   <path d="M 0 365.54875 
L 675.923125 365.54875 
L 675.923125 -0 
L 0 -0 
z
" style="fill: #ffffff"/>
  </g>
  <g id="axes_1">
   <g id="patch_2">
    <path d="M 92.490625 308.63625 
L 650.490625 308.63625 
L 650.490625 31.43625 
L 92.490625 31.43625 
z
" style="fill: #ffffff"/>
   </g>
   <g id="matplotlib.axis_1">
    <g id="xtick_1">
     <g id="line2d_1">
      <defs>
       <path id="m5beea8374a" d="M 0 0 
L 0 3.5 
" style="stroke: #000000; stroke-width: 0.8"/>
      </defs>
      <g>
       <use xlink:href="#m5beea8374a" x="117.854261" y="308.63625" style="stroke: #000000; stroke-width: 0.8"/>
      </g>
     </g>
     <g id="text_1">
      <!-- 0 -->
      <g transform="translate(111.491761 330.833125) scale(0.2 -0.2)">
       <defs>
        <path id="DejaVuSans-30" d="M 2034 4250 
Q 1547 4250 1301 3770 
Q 1056 3291 1056 2328 
Q 1056 1369 1301 889 
Q 1547 409 2034 409 
Q 2525 409 2770 889 
Q 3016 1369 3016 2328 
Q 3016 3291 2770 3770 
Q 2525 4250 2034 4250 
z
M 2034 4750 
Q 2819 4750 3233 4129 
Q 3647 3509 3647 2328 
Q 3647 1150 3233 529 
Q 2819 -91 2034 -91 
Q 1250 -91 836 529 
Q 422 1150 422 2328 
Q 422 3509 836 4129 
Q 1250 4750 2034 4750 
z
" transform="scale(0.015625)"/>
       </defs>
       <use xlink:href="#DejaVuSans-30"/>
      </g>
     </g>
    </g>
    <g id="xtick_2">
     <g id="line2d_2">
      <g>
       <use xlink:href="#m5beea8374a" x="219.308807" y="308.63625" style="stroke: #000000; stroke-width: 0.8"/>
      </g>
     </g>
     <g id="text_2">
      <!-- 100 -->
      <g transform="translate(200.221307 330.833125) scale(0.2 -0.2)">
       <defs>
        <path id="DejaVuSans-31" d="M 794 531 
L 1825 531 
L 1825 4091 
L 703 3866 
L 703 4441 
L 1819 4666 
L 2450 4666 
L 2450 531 
L 3481 531 
L 3481 0 
L 794 0 
L 794 531 
z
" transform="scale(0.015625)"/>
       </defs>
       <use xlink:href="#DejaVuSans-31"/>
       <use xlink:href="#DejaVuSans-30" x="63.623047"/>
       <use xlink:href="#DejaVuSans-30" x="127.246094"/>
      </g>
     </g>
    </g>
    <g id="xtick_3">
     <g id="line2d_3">
      <g>
       <use xlink:href="#m5beea8374a" x="320.763352" y="308.63625" style="stroke: #000000; stroke-width: 0.8"/>
      </g>
     </g>
     <g id="text_3">
      <!-- 200 -->
      <g transform="translate(301.675852 330.833125) scale(0.2 -0.2)">
       <defs>
        <path id="DejaVuSans-32" d="M 1228 531 
L 3431 531 
L 3431 0 
L 469 0 
L 469 531 
Q 828 903 1448 1529 
Q 2069 2156 2228 2338 
Q 2531 2678 2651 2914 
Q 2772 3150 2772 3378 
Q 2772 3750 2511 3984 
Q 2250 4219 1831 4219 
Q 1534 4219 1204 4116 
Q 875 4013 500 3803 
L 500 4441 
Q 881 4594 1212 4672 
Q 1544 4750 1819 4750 
Q 2544 4750 2975 4387 
Q 3406 4025 3406 3419 
Q 3406 3131 3298 2873 
Q 3191 2616 2906 2266 
Q 2828 2175 2409 1742 
Q 1991 1309 1228 531 
z
" transform="scale(0.015625)"/>
       </defs>
       <use xlink:href="#DejaVuSans-32"/>
       <use xlink:href="#DejaVuSans-30" x="63.623047"/>
       <use xlink:href="#DejaVuSans-30" x="127.246094"/>
      </g>
     </g>
    </g>
    <g id="xtick_4">
     <g id="line2d_4">
      <g>
       <use xlink:href="#m5beea8374a" x="422.217898" y="308.63625" style="stroke: #000000; stroke-width: 0.8"/>
      </g>
     </g>
     <g id="text_4">
      <!-- 300 -->
      <g transform="translate(403.130398 330.833125) scale(0.2 -0.2)">
       <defs>
        <path id="DejaVuSans-33" d="M 2597 2516 
Q 3050 2419 3304 2112 
Q 3559 1806 3559 1356 
Q 3559 666 3084 287 
Q 2609 -91 1734 -91 
Q 1441 -91 1130 -33 
Q 819 25 488 141 
L 488 750 
Q 750 597 1062 519 
Q 1375 441 1716 441 
Q 2309 441 2620 675 
Q 2931 909 2931 1356 
Q 2931 1769 2642 2001 
Q 2353 2234 1838 2234 
L 1294 2234 
L 1294 2753 
L 1863 2753 
Q 2328 2753 2575 2939 
Q 2822 3125 2822 3475 
Q 2822 3834 2567 4026 
Q 2313 4219 1838 4219 
Q 1578 4219 1281 4162 
Q 984 4106 628 3988 
L 628 4550 
Q 988 4650 1302 4700 
Q 1616 4750 1894 4750 
Q 2613 4750 3031 4423 
Q 3450 4097 3450 3541 
Q 3450 3153 3228 2886 
Q 3006 2619 2597 2516 
z
" transform="scale(0.015625)"/>
       </defs>
       <use xlink:href="#DejaVuSans-33"/>
       <use xlink:href="#DejaVuSans-30" x="63.623047"/>
       <use xlink:href="#DejaVuSans-30" x="127.246094"/>
      </g>
     </g>
    </g>
    <g id="xtick_5">
     <g id="line2d_5">
      <g>
       <use xlink:href="#m5beea8374a" x="523.672443" y="308.63625" style="stroke: #000000; stroke-width: 0.8"/>
      </g>
     </g>
     <g id="text_5">
      <!-- 400 -->
      <g transform="translate(504.584943 330.833125) scale(0.2 -0.2)">
       <defs>
        <path id="DejaVuSans-34" d="M 2419 4116 
L 825 1625 
L 2419 1625 
L 2419 4116 
z
M 2253 4666 
L 3047 4666 
L 3047 1625 
L 3713 1625 
L 3713 1100 
L 3047 1100 
L 3047 0 
L 2419 0 
L 2419 1100 
L 313 1100 
L 313 1709 
L 2253 4666 
z
" transform="scale(0.015625)"/>
       </defs>
       <use xlink:href="#DejaVuSans-34"/>
       <use xlink:href="#DejaVuSans-30" x="63.623047"/>
       <use xlink:href="#DejaVuSans-30" x="127.246094"/>
      </g>
     </g>
    </g>
    <g id="xtick_6">
     <g id="line2d_6">
      <g>
       <use xlink:href="#m5beea8374a" x="625.126989" y="308.63625" style="stroke: #000000; stroke-width: 0.8"/>
      </g>
     </g>
     <g id="text_6">
      <!-- 500 -->
      <g transform="translate(606.039489 330.833125) scale(0.2 -0.2)">
       <defs>
        <path id="DejaVuSans-35" d="M 691 4666 
L 3169 4666 
L 3169 4134 
L 1269 4134 
L 1269 2991 
Q 1406 3038 1543 3061 
Q 1681 3084 1819 3084 
Q 2600 3084 3056 2656 
Q 3513 2228 3513 1497 
Q 3513 744 3044 326 
Q 2575 -91 1722 -91 
Q 1428 -91 1123 -41 
Q 819 9 494 109 
L 494 744 
Q 775 591 1075 516 
Q 1375 441 1709 441 
Q 2250 441 2565 725 
Q 2881 1009 2881 1497 
Q 2881 1984 2565 2268 
Q 2250 2553 1709 2553 
Q 1456 2553 1204 2497 
Q 953 2441 691 2322 
L 691 4666 
z
" transform="scale(0.015625)"/>
       </defs>
       <use xlink:href="#DejaVuSans-35"/>
       <use xlink:href="#DejaVuSans-30" x="63.623047"/>
       <use xlink:href="#DejaVuSans-30" x="127.246094"/>
      </g>
     </g>
    </g>
    <g id="text_7">
     <!-- iterations -->
     <g transform="translate(324.035938 354.189375) scale(0.2 -0.2)">
      <defs>
       <path id="DejaVuSans-69" d="M 603 3500 
L 1178 3500 
L 1178 0 
L 603 0 
L 603 3500 
z
M 603 4863 
L 1178 4863 
L 1178 4134 
L 603 4134 
L 603 4863 
z
" transform="scale(0.015625)"/>
       <path id="DejaVuSans-74" d="M 1172 4494 
L 1172 3500 
L 2356 3500 
L 2356 3053 
L 1172 3053 
L 1172 1153 
Q 1172 725 1289 603 
Q 1406 481 1766 481 
L 2356 481 
L 2356 0 
L 1766 0 
Q 1100 0 847 248 
Q 594 497 594 1153 
L 594 3053 
L 172 3053 
L 172 3500 
L 594 3500 
L 594 4494 
L 1172 4494 
z
" transform="scale(0.015625)"/>
       <path id="DejaVuSans-65" d="M 3597 1894 
L 3597 1613 
L 953 1613 
Q 991 1019 1311 708 
Q 1631 397 2203 397 
Q 2534 397 2845 478 
Q 3156 559 3463 722 
L 3463 178 
Q 3153 47 2828 -22 
Q 2503 -91 2169 -91 
Q 1331 -91 842 396 
Q 353 884 353 1716 
Q 353 2575 817 3079 
Q 1281 3584 2069 3584 
Q 2775 3584 3186 3129 
Q 3597 2675 3597 1894 
z
M 3022 2063 
Q 3016 2534 2758 2815 
Q 2500 3097 2075 3097 
Q 1594 3097 1305 2825 
Q 1016 2553 972 2059 
L 3022 2063 
z
" transform="scale(0.015625)"/>
       <path id="DejaVuSans-72" d="M 2631 2963 
Q 2534 3019 2420 3045 
Q 2306 3072 2169 3072 
Q 1681 3072 1420 2755 
Q 1159 2438 1159 1844 
L 1159 0 
L 581 0 
L 581 3500 
L 1159 3500 
L 1159 2956 
Q 1341 3275 1631 3429 
Q 1922 3584 2338 3584 
Q 2397 3584 2469 3576 
Q 2541 3569 2628 3553 
L 2631 2963 
z
" transform="scale(0.015625)"/>
       <path id="DejaVuSans-61" d="M 2194 1759 
Q 1497 1759 1228 1600 
Q 959 1441 959 1056 
Q 959 750 1161 570 
Q 1363 391 1709 391 
Q 2188 391 2477 730 
Q 2766 1069 2766 1631 
L 2766 1759 
L 2194 1759 
z
M 3341 1997 
L 3341 0 
L 2766 0 
L 2766 531 
Q 2569 213 2275 61 
Q 1981 -91 1556 -91 
Q 1019 -91 701 211 
Q 384 513 384 1019 
Q 384 1609 779 1909 
Q 1175 2209 1959 2209 
L 2766 2209 
L 2766 2266 
Q 2766 2663 2505 2880 
Q 2244 3097 1772 3097 
Q 1472 3097 1187 3025 
Q 903 2953 641 2809 
L 641 3341 
Q 956 3463 1253 3523 
Q 1550 3584 1831 3584 
Q 2591 3584 2966 3190 
Q 3341 2797 3341 1997 
z
" transform="scale(0.015625)"/>
       <path id="DejaVuSans-6f" d="M 1959 3097 
Q 1497 3097 1228 2736 
Q 959 2375 959 1747 
Q 959 1119 1226 758 
Q 1494 397 1959 397 
Q 2419 397 2687 759 
Q 2956 1122 2956 1747 
Q 2956 2369 2687 2733 
Q 2419 3097 1959 3097 
z
M 1959 3584 
Q 2709 3584 3137 3096 
Q 3566 2609 3566 1747 
Q 3566 888 3137 398 
Q 2709 -91 1959 -91 
Q 1206 -91 779 398 
Q 353 888 353 1747 
Q 353 2609 779 3096 
Q 1206 3584 1959 3584 
z
" transform="scale(0.015625)"/>
       <path id="DejaVuSans-6e" d="M 3513 2113 
L 3513 0 
L 2938 0 
L 2938 2094 
Q 2938 2591 2744 2837 
Q 2550 3084 2163 3084 
Q 1697 3084 1428 2787 
Q 1159 2491 1159 1978 
L 1159 0 
L 581 0 
L 581 3500 
L 1159 3500 
L 1159 2956 
Q 1366 3272 1645 3428 
Q 1925 3584 2291 3584 
Q 2894 3584 3203 3211 
Q 3513 2838 3513 2113 
z
" transform="scale(0.015625)"/>
       <path id="DejaVuSans-73" d="M 2834 3397 
L 2834 2853 
Q 2591 2978 2328 3040 
Q 2066 3103 1784 3103 
Q 1356 3103 1142 2972 
Q 928 2841 928 2578 
Q 928 2378 1081 2264 
Q 1234 2150 1697 2047 
L 1894 2003 
Q 2506 1872 2764 1633 
Q 3022 1394 3022 966 
Q 3022 478 2636 193 
Q 2250 -91 1575 -91 
Q 1294 -91 989 -36 
Q 684 19 347 128 
L 347 722 
Q 666 556 975 473 
Q 1284 391 1588 391 
Q 1994 391 2212 530 
Q 2431 669 2431 922 
Q 2431 1156 2273 1281 
Q 2116 1406 1581 1522 
L 1381 1569 
Q 847 1681 609 1914 
Q 372 2147 372 2553 
Q 372 3047 722 3315 
Q 1072 3584 1716 3584 
Q 2034 3584 2315 3537 
Q 2597 3491 2834 3397 
z
" transform="scale(0.015625)"/>
      </defs>
      <use xlink:href="#DejaVuSans-69"/>
      <use xlink:href="#DejaVuSans-74" x="27.783203"/>
      <use xlink:href="#DejaVuSans-65" x="66.992188"/>
      <use xlink:href="#DejaVuSans-72" x="128.515625"/>
      <use xlink:href="#DejaVuSans-61" x="169.628906"/>
      <use xlink:href="#DejaVuSans-74" x="230.908203"/>
      <use xlink:href="#DejaVuSans-69" x="270.117188"/>
      <use xlink:href="#DejaVuSans-6f" x="297.900391"/>
      <use xlink:href="#DejaVuSans-6e" x="359.082031"/>
      <use xlink:href="#DejaVuSans-73" x="422.460938"/>
     </g>
    </g>
   </g>
   <g id="matplotlib.axis_2">
    <g id="ytick_1">
     <g id="line2d_7">
      <defs>
       <path id="m2362242171" d="M 0 0 
L -3.5 0 
" style="stroke: #000000; stroke-width: 0.8"/>
      </defs>
      <g>
       <use xlink:href="#m2362242171" x="92.490625" y="234.626549" style="stroke: #000000; stroke-width: 0.8"/>
      </g>
     </g>
     <g id="text_8">
      <!-- −200 -->
      <g transform="translate(30.55625 242.224987) scale(0.2 -0.2)">
       <defs>
        <path id="DejaVuSans-2212" d="M 678 2272 
L 4684 2272 
L 4684 1741 
L 678 1741 
L 678 2272 
z
" transform="scale(0.015625)"/>
       </defs>
       <use xlink:href="#DejaVuSans-2212"/>
       <use xlink:href="#DejaVuSans-32" x="83.789062"/>
       <use xlink:href="#DejaVuSans-30" x="147.412109"/>
       <use xlink:href="#DejaVuSans-30" x="211.035156"/>
      </g>
     </g>
    </g>
    <g id="ytick_2">
     <g id="line2d_8">
      <g>
       <use xlink:href="#m2362242171" x="92.490625" y="151.376755" style="stroke: #000000; stroke-width: 0.8"/>
      </g>
     </g>
     <g id="text_9">
      <!-- 0 -->
      <g transform="translate(72.765625 158.975193) scale(0.2 -0.2)">
       <use xlink:href="#DejaVuSans-30"/>
      </g>
     </g>
    </g>
    <g id="ytick_3">
     <g id="line2d_9">
      <g>
       <use xlink:href="#m2362242171" x="92.490625" y="68.126962" style="stroke: #000000; stroke-width: 0.8"/>
      </g>
     </g>
     <g id="text_10">
      <!-- 200 -->
      <g transform="translate(47.315625 75.725399) scale(0.2 -0.2)">
       <use xlink:href="#DejaVuSans-32"/>
       <use xlink:href="#DejaVuSans-30" x="63.623047"/>
       <use xlink:href="#DejaVuSans-30" x="127.246094"/>
      </g>
     </g>
    </g>
    <g id="text_11">
     <!-- Loss -->
     <g transform="translate(22.396875 191.970625) rotate(-90) scale(0.2 -0.2)">
      <defs>
       <path id="DejaVuSans-4c" d="M 628 4666 
L 1259 4666 
L 1259 531 
L 3531 531 
L 3531 0 
L 628 0 
L 628 4666 
z
" transform="scale(0.015625)"/>
      </defs>
      <use xlink:href="#DejaVuSans-4c"/>
      <use xlink:href="#DejaVuSans-6f" x="53.962891"/>
      <use xlink:href="#DejaVuSans-73" x="115.144531"/>
      <use xlink:href="#DejaVuSans-73" x="167.244141"/>
     </g>
    </g>
   </g>
   <g id="line2d_10">
    <path d="M 117.854261 114.726306 
L 118.868807 106.081918 
L 119.883352 66.645135 
L 120.897898 44.03625 
L 121.912443 55.607746 
L 122.926989 116.630126 
L 123.941534 138.664661 
L 124.95608 137.321124 
L 125.970625 122.741893 
L 126.98517 120.788415 
L 127.999716 127.999278 
L 129.014261 122.989826 
L 130.028807 108.458537 
L 131.043352 122.646974 
L 132.057898 126.556792 
L 133.072443 123.898785 
L 134.086989 120.201515 
L 135.101534 126.255443 
L 136.11608 122.797609 
L 137.130625 127.006439 
L 138.14517 118.64052 
L 139.159716 124.366742 
L 140.174261 117.662909 
L 141.188807 117.330772 
L 142.203352 114.695364 
L 143.217898 107.764658 
L 144.232443 108.435758 
L 145.246989 107.051208 
L 146.261534 106.219874 
L 147.27608 110.116506 
L 148.290625 106.40337 
L 149.30517 103.735206 
L 150.319716 107.114803 
L 151.334261 106.33327 
L 152.348807 103.507469 
L 153.363352 108.842958 
L 154.377898 102.920055 
L 155.392443 108.429686 
L 156.406989 110.936486 
L 157.421534 110.869457 
L 158.43608 106.939005 
L 159.450625 105.409875 
L 160.46517 110.445841 
L 161.479716 111.131011 
L 162.494261 113.912796 
L 163.508807 112.411065 
L 164.523352 111.591078 
L 165.537898 112.594274 
L 166.552443 115.130586 
L 167.566989 112.662515 
L 168.581534 111.560611 
L 169.59608 112.925905 
L 170.610625 108.346789 
L 171.62517 112.549272 
L 172.639716 114.58122 
L 173.654261 115.179402 
L 174.668807 119.262292 
L 175.683352 117.014571 
L 176.697898 116.380063 
L 177.712443 120.267786 
L 178.726989 120.37667 
L 179.741534 120.879402 
L 180.75608 120.548412 
L 181.770625 123.597646 
L 182.78517 123.431828 
L 183.799716 121.429234 
L 184.814261 122.560572 
L 185.828807 119.85272 
L 186.843352 118.694633 
L 188.872443 118.68102 
L 189.886989 118.119314 
L 190.901534 121.17012 
L 191.91608 119.147663 
L 192.930625 116.7473 
L 193.94517 113.297092 
L 194.959716 118.688744 
L 195.974261 120.343387 
L 196.988807 123.308616 
L 198.003352 120.224883 
L 199.017898 118.109455 
L 200.032443 120.364991 
L 201.046989 123.245243 
L 203.07608 118.407012 
L 204.090625 120.74258 
L 205.10517 122.653338 
L 206.119716 123.836576 
L 207.134261 125.744796 
L 208.148807 123.447651 
L 209.163352 128.318527 
L 210.177898 129.080516 
L 211.192443 128.830815 
L 212.206989 128.20745 
L 213.221534 128.76154 
L 214.23608 132.053196 
L 215.250625 133.596636 
L 216.26517 133.934515 
L 217.279716 135.141517 
L 218.294261 135.137063 
L 219.308807 134.780402 
L 220.323352 135.202134 
L 221.337898 135.093015 
L 222.352443 136.905242 
L 224.381534 142.399589 
L 225.39608 142.128559 
L 226.410625 142.779249 
L 227.42517 139.598641 
L 228.439716 140.408307 
L 229.454261 138.506123 
L 230.468807 139.937779 
L 231.483352 138.802053 
L 232.497898 137.3209 
L 233.512443 136.304856 
L 234.526989 135.089312 
L 235.541534 138.125691 
L 236.55608 137.931203 
L 237.570625 136.48173 
L 238.58517 135.887461 
L 239.599716 134.35985 
L 240.614261 133.177328 
L 241.628807 135.336782 
L 242.643352 134.894951 
L 243.657898 135.405771 
L 244.672443 135.395858 
L 245.686989 136.106534 
L 246.701534 138.160945 
L 248.730625 138.778501 
L 249.74517 139.328544 
L 250.759716 137.455284 
L 251.774261 138.146409 
L 252.788807 139.584531 
L 253.803352 139.54211 
L 254.817898 140.772087 
L 255.832443 139.328314 
L 256.846989 141.270704 
L 258.87608 138.38691 
L 259.890625 138.267975 
L 260.90517 138.407029 
L 261.919716 138.064147 
L 262.934261 136.366411 
L 263.948807 136.725459 
L 264.963352 137.7051 
L 265.977898 136.859223 
L 266.992443 139.049001 
L 268.006989 137.336016 
L 269.021534 137.257625 
L 270.03608 138.794003 
L 271.050625 138.317046 
L 272.06517 138.127537 
L 273.079716 137.085883 
L 274.094261 140.357201 
L 275.108807 142.188057 
L 276.123352 140.211719 
L 277.137898 141.214973 
L 278.152443 140.469004 
L 279.166989 140.399257 
L 280.181534 137.341402 
L 281.19608 136.956775 
L 282.210625 138.004539 
L 283.22517 141.917493 
L 284.239716 141.394417 
L 285.254261 139.770456 
L 286.268807 138.757231 
L 287.283352 139.627896 
L 288.297898 141.258242 
L 289.312443 142.544043 
L 290.326989 142.319792 
L 291.341534 139.759331 
L 292.35608 140.416344 
L 293.370625 141.45395 
L 294.38517 141.363625 
L 295.399716 140.978604 
L 296.414261 142.910652 
L 297.428807 142.90158 
L 298.443352 144.549058 
L 299.457898 145.17122 
L 300.472443 145.44887 
L 301.486989 144.416339 
L 302.501534 144.947962 
L 303.51608 143.814591 
L 304.530625 145.207917 
L 305.54517 145.528567 
L 306.559716 144.861957 
L 307.574261 145.227471 
L 308.588807 144.527959 
L 309.603352 145.046411 
L 310.617898 146.68308 
L 311.632443 147.135187 
L 312.646989 145.32902 
L 313.661534 143.988933 
L 314.67608 145.81337 
L 315.690625 144.652605 
L 316.70517 145.491722 
L 317.719716 145.544312 
L 318.734261 146.479505 
L 319.748807 145.926367 
L 320.763352 146.569906 
L 321.777898 146.635087 
L 322.792443 145.762171 
L 323.806989 146.892018 
L 324.821534 148.983063 
L 325.83608 148.879743 
L 326.850625 147.783513 
L 327.86517 148.254067 
L 328.879716 147.888736 
L 329.894261 146.84581 
L 330.908807 146.202176 
L 331.923352 146.837467 
L 332.937898 146.997663 
L 334.966989 146.666794 
L 336.99608 146.848622 
L 338.010625 146.639285 
L 339.02517 145.433562 
L 340.039716 146.697151 
L 341.054261 146.488051 
L 342.068807 148.265055 
L 343.083352 147.613654 
L 344.097898 147.710403 
L 345.112443 147.419561 
L 346.126989 147.740517 
L 347.141534 146.590609 
L 349.170625 147.987777 
L 351.199716 148.092569 
L 352.214261 147.626153 
L 353.228807 148.346627 
L 354.243352 147.834075 
L 355.257898 146.928657 
L 356.272443 148.067958 
L 357.286989 147.258653 
L 358.301534 148.865305 
L 359.31608 148.410553 
L 360.330625 148.967358 
L 361.34517 149.221557 
L 362.359716 149.822095 
L 363.374261 148.406232 
L 364.388807 148.806973 
L 365.403352 148.539764 
L 366.417898 149.07262 
L 367.432443 148.908721 
L 368.446989 148.61838 
L 370.47608 149.440954 
L 371.490625 149.36957 
L 372.50517 150.013568 
L 373.519716 149.776241 
L 374.534261 150.325511 
L 375.548807 149.880589 
L 376.563352 151.162299 
L 377.577898 149.985682 
L 378.592443 151.13516 
L 379.606989 149.965057 
L 381.63608 149.636812 
L 382.650625 150.277934 
L 383.66517 150.130294 
L 384.679716 149.369379 
L 385.694261 148.998461 
L 386.708807 149.263791 
L 387.723352 149.411097 
L 388.737898 150.464825 
L 389.752443 150.199464 
L 390.766989 150.562235 
L 391.781534 150.590935 
L 392.79608 151.04972 
L 393.810625 151.841912 
L 394.82517 151.427364 
L 395.839716 151.175547 
L 396.854261 152.473986 
L 397.868807 151.552817 
L 398.883352 151.225341 
L 399.897898 151.595681 
L 400.912443 152.660834 
L 401.926989 151.773162 
L 402.941534 152.094372 
L 403.95608 152.17824 
L 404.970625 151.68895 
L 408.014261 152.286212 
L 409.028807 152.200918 
L 410.043352 152.280159 
L 411.057898 151.754625 
L 412.072443 152.272882 
L 414.101534 151.842046 
L 415.11608 152.141914 
L 416.130625 152.770268 
L 417.14517 152.207484 
L 418.159716 152.377094 
L 419.174261 152.188492 
L 420.188807 152.676249 
L 421.203352 151.731846 
L 423.232443 151.345152 
L 424.246989 152.186997 
L 425.261534 152.122104 
L 426.27608 151.359375 
L 427.290625 151.397048 
L 428.30517 151.085501 
L 430.334261 152.610465 
L 431.348807 152.103367 
L 432.363352 151.755312 
L 433.377898 151.745505 
L 434.392443 151.555412 
L 435.406989 151.233799 
L 437.43608 151.617299 
L 438.450625 151.69156 
L 439.46517 151.931251 
L 440.479716 150.713665 
L 441.494261 151.562487 
L 442.508807 151.106358 
L 444.537898 150.617443 
L 445.552443 151.580261 
L 446.566989 151.282821 
L 447.581534 151.651857 
L 448.59608 151.11709 
L 449.610625 151.018062 
L 450.62517 149.816142 
L 451.639716 150.538729 
L 452.654261 151.54643 
L 453.668807 151.134366 
L 454.683352 150.083957 
L 455.697898 149.856048 
L 456.712443 150.084806 
L 458.741534 150.905625 
L 460.770625 150.592418 
L 461.78517 150.540132 
L 462.799716 150.835766 
L 463.814261 149.605204 
L 464.828807 150.155542 
L 465.843352 148.359728 
L 466.857898 149.069275 
L 467.872443 149.470042 
L 468.886989 148.774616 
L 469.901534 149.156396 
L 470.91608 149.200486 
L 471.930625 148.372847 
L 472.94517 148.781279 
L 473.959716 148.915586 
L 474.974261 148.736299 
L 475.988807 148.278376 
L 477.003352 150.048145 
L 478.017898 149.794805 
L 479.032443 148.207867 
L 480.046989 147.006615 
L 481.061534 149.701961 
L 482.07608 148.584931 
L 483.090625 150.113674 
L 484.10517 149.148353 
L 485.119716 149.050289 
L 486.134261 149.482133 
L 487.148807 149.221502 
L 489.177898 149.716106 
L 491.206989 149.448828 
L 492.221534 148.575808 
L 493.23608 148.865793 
L 494.250625 149.033621 
L 495.26517 149.043221 
L 496.279716 148.766445 
L 497.294261 150.10204 
L 498.308807 149.976308 
L 499.323352 149.01284 
L 501.352443 150.415562 
L 502.366989 150.191345 
L 503.381534 149.765998 
L 504.39608 150.542045 
L 505.410625 151.094122 
L 506.42517 150.749297 
L 507.439716 150.748543 
L 508.454261 150.552951 
L 509.468807 150.811243 
L 510.483352 150.267491 
L 511.497898 150.78941 
L 512.512443 151.586957 
L 513.526989 150.325004 
L 514.541534 151.032796 
L 515.55608 150.88367 
L 516.570625 150.884052 
L 517.58517 151.261011 
L 518.599716 150.707683 
L 519.614261 150.648162 
L 520.628807 149.982535 
L 521.643352 150.220711 
L 522.657898 150.660541 
L 523.672443 150.245039 
L 524.686989 151.090624 
L 525.701534 151.255264 
L 526.71608 150.92556 
L 527.730625 151.095426 
L 528.74517 151.622911 
L 529.759716 151.330097 
L 530.774261 151.27642 
L 531.788807 151.926709 
L 532.803352 151.644614 
L 533.817898 151.748004 
L 534.832443 151.589741 
L 535.846989 151.096936 
L 536.861534 151.232504 
L 537.87608 152.274212 
L 538.890625 151.431557 
L 539.90517 152.15493 
L 540.919716 150.750337 
L 541.934261 151.642762 
L 542.948807 152.003527 
L 543.963352 151.370928 
L 544.977898 151.81159 
L 548.021534 152.347011 
L 549.03608 152.287551 
L 550.050625 152.792889 
L 551.06517 152.330353 
L 552.079716 152.840892 
L 553.094261 152.952117 
L 554.108807 152.415944 
L 555.123352 152.560223 
L 556.137898 151.791173 
L 557.152443 151.744005 
L 558.166989 151.92552 
L 559.181534 151.236089 
L 560.19608 151.001596 
L 561.210625 152.275131 
L 562.22517 151.230055 
L 565.268807 152.57704 
L 566.283352 152.080164 
L 567.297898 151.791563 
L 568.312443 152.511252 
L 569.326989 151.929362 
L 570.341534 152.536765 
L 571.35608 151.959364 
L 572.370625 152.067056 
L 573.38517 152.043511 
L 575.414261 152.304802 
L 576.428807 151.700389 
L 577.443352 151.420254 
L 578.457898 151.287794 
L 579.472443 151.665874 
L 580.486989 152.210526 
L 581.501534 152.047336 
L 582.51608 152.215515 
L 583.530625 151.418016 
L 584.54517 151.783619 
L 586.574261 151.755368 
L 587.588807 152.372138 
L 589.617898 152.398249 
L 590.632443 152.2066 
L 591.646989 152.143606 
L 592.661534 152.661245 
L 593.67608 152.418168 
L 594.690625 151.076607 
L 595.70517 152.230132 
L 596.719716 152.254543 
L 597.734261 152.085501 
L 598.748807 152.097016 
L 600.777898 151.575627 
L 602.806989 151.848856 
L 603.821534 151.953318 
L 604.83608 152.623378 
L 606.86517 151.842257 
L 607.879716 152.267785 
L 609.908807 152.143958 
L 610.923352 150.987889 
L 611.937898 151.397289 
L 612.952443 151.975647 
L 613.966989 151.998391 
L 614.981534 151.335571 
L 615.99608 151.682935 
L 617.010625 152.632733 
L 618.02517 152.19404 
L 621.068807 151.946123 
L 622.083352 152.200519 
L 623.097898 152.193347 
L 624.112443 151.984494 
L 625.126989 152.122977 
L 625.126989 152.122977 
" clip-path="url(#p750ffac86b)" style="fill: none; stroke: #1f77b4; stroke-width: 1.5; stroke-linecap: square"/>
   </g>
   <g id="line2d_11">
    <path d="M 117.854261 257.658289 
L 118.868807 262.165711 
L 119.883352 291.943205 
L 120.897898 296.03625 
L 121.912443 284.397593 
L 122.926989 271.11781 
L 123.941534 227.057898 
L 124.95608 207.5709 
L 125.970625 203.182002 
L 126.98517 203.974264 
L 127.999716 211.845554 
L 129.014261 205.520858 
L 130.028807 201.196422 
L 131.043352 195.910364 
L 132.057898 195.703205 
L 133.072443 192.753227 
L 134.086989 197.401453 
L 135.101534 172.184989 
L 136.11608 172.103903 
L 137.130625 169.627321 
L 138.14517 171.510379 
L 139.159716 166.488463 
L 140.174261 169.662831 
L 141.188807 167.766312 
L 142.203352 168.409239 
L 143.217898 168.391562 
L 144.232443 165.287616 
L 145.246989 166.881572 
L 146.261534 166.794035 
L 147.27608 165.094572 
L 148.290625 166.165148 
L 149.30517 165.451608 
L 150.319716 164.010929 
L 151.334261 163.25549 
L 152.348807 164.862355 
L 153.363352 163.978923 
L 154.377898 163.485609 
L 156.406989 161.702402 
L 157.421534 160.420844 
L 158.43608 164.815428 
L 159.450625 163.952454 
L 160.46517 162.432016 
L 161.479716 163.099974 
L 162.494261 162.512979 
L 163.508807 162.265303 
L 164.523352 163.58709 
L 165.537898 161.410305 
L 166.552443 162.710343 
L 167.566989 161.565435 
L 168.581534 161.16584 
L 169.59608 161.539059 
L 170.610625 162.557454 
L 171.62517 161.171452 
L 172.639716 161.384449 
L 173.654261 160.92679 
L 174.668807 160.831448 
L 176.697898 161.328739 
L 177.712443 161.196216 
L 178.726989 161.194354 
L 179.741534 161.482621 
L 180.75608 161.201429 
L 181.770625 159.7919 
L 182.78517 160.884693 
L 183.799716 160.064798 
L 184.814261 160.550759 
L 185.828807 162.077185 
L 186.843352 163.054654 
L 187.857898 160.376997 
L 188.872443 163.420413 
L 189.886989 160.81798 
L 190.901534 160.706714 
L 191.91608 161.975153 
L 192.930625 162.97898 
L 193.94517 161.428681 
L 194.959716 160.805188 
L 196.988807 160.193846 
L 198.003352 161.309852 
L 199.017898 162.631121 
L 200.032443 161.251941 
L 201.046989 159.442412 
L 202.061534 161.834268 
L 203.07608 161.591212 
L 204.090625 160.94865 
L 205.10517 161.58259 
L 206.119716 161.661909 
L 207.134261 162.60633 
L 209.163352 161.360388 
L 211.192443 161.703732 
L 212.206989 160.981433 
L 214.23608 161.378065 
L 216.26517 159.80897 
L 217.279716 160.21275 
L 218.294261 160.462935 
L 219.308807 161.088266 
L 221.337898 161.389012 
L 222.352443 160.004467 
L 223.366989 161.423814 
L 224.381534 161.588497 
L 225.39608 160.70362 
L 226.410625 161.311015 
L 227.42517 162.288528 
L 228.439716 161.574032 
L 229.454261 162.933584 
L 230.468807 162.761098 
L 231.483352 161.823109 
L 232.497898 163.255695 
L 233.512443 162.48772 
L 234.526989 162.510713 
L 235.541534 162.845991 
L 236.55608 162.220304 
L 237.570625 162.518876 
L 238.58517 163.464852 
L 239.599716 164.100062 
L 240.614261 161.71733 
L 241.628807 160.953926 
L 242.643352 162.188098 
L 244.672443 161.382858 
L 245.686989 162.157181 
L 246.701534 162.385889 
L 247.71608 160.804717 
L 248.730625 161.59229 
L 249.74517 161.478432 
L 250.759716 161.686822 
L 251.774261 162.509587 
L 252.788807 161.135064 
L 253.803352 161.60804 
L 254.817898 162.642114 
L 255.832443 163.370876 
L 256.846989 161.109782 
L 257.861534 153.752785 
L 258.87608 154.884893 
L 259.890625 154.642952 
L 260.90517 156.15602 
L 261.919716 156.257159 
L 262.934261 154.933457 
L 263.948807 156.047679 
L 264.963352 156.254787 
L 265.977898 157.181505 
L 266.992443 156.53724 
L 268.006989 156.437924 
L 269.021534 156.791371 
L 270.03608 156.526013 
L 271.050625 156.899174 
L 272.06517 156.612682 
L 273.079716 155.971204 
L 274.094261 156.374247 
L 276.123352 156.676973 
L 277.137898 156.380954 
L 278.152443 156.744293 
L 279.166989 156.508302 
L 281.19608 156.742195 
L 282.210625 156.015266 
L 283.22517 156.667905 
L 285.254261 156.571618 
L 286.268807 156.876875 
L 287.283352 157.011189 
L 289.312443 156.562438 
L 290.326989 157.11912 
L 291.341534 157.288222 
L 292.35608 156.918805 
L 293.370625 156.340906 
L 294.38517 157.068537 
L 295.399716 156.310565 
L 297.428807 155.798621 
L 298.443352 156.372213 
L 299.457898 156.620934 
L 300.472443 156.340232 
L 301.486989 155.934658 
L 302.501534 155.997717 
L 303.51608 156.237635 
L 304.530625 156.252845 
L 305.54517 155.534283 
L 306.559716 156.106492 
L 307.574261 155.971055 
L 308.588807 155.262929 
L 309.603352 155.565248 
L 310.617898 155.523103 
L 311.632443 155.801346 
L 312.646989 156.566333 
L 313.661534 156.216639 
L 314.67608 156.133157 
L 315.690625 155.391582 
L 316.70517 155.66232 
L 317.719716 156.145638 
L 318.734261 155.672539 
L 319.748807 155.874484 
L 320.763352 155.743108 
L 321.777898 156.238413 
L 322.792443 155.989438 
L 323.806989 156.156793 
L 324.821534 156.440338 
L 326.850625 155.672807 
L 327.86517 155.631246 
L 328.879716 155.827528 
L 329.894261 156.184732 
L 330.908807 155.693904 
L 331.923352 156.168457 
L 332.937898 156.299126 
L 333.952443 155.762169 
L 335.981534 156.752607 
L 336.99608 155.909613 
L 338.010625 156.437744 
L 340.039716 156.503263 
L 341.054261 156.287067 
L 342.068807 156.348738 
L 343.083352 156.141802 
L 344.097898 156.48928 
L 345.112443 155.958175 
L 346.126989 155.93672 
L 347.141534 156.125692 
L 348.15608 156.556642 
L 349.170625 156.08584 
L 350.18517 155.853602 
L 351.199716 156.224566 
L 353.228807 155.977781 
L 354.243352 156.594103 
L 355.257898 155.667991 
L 357.286989 156.37959 
L 358.301534 156.129236 
L 359.31608 156.608581 
L 360.330625 155.852199 
L 361.34517 155.933841 
L 362.359716 155.823862 
L 363.374261 156.261902 
L 364.388807 156.217012 
L 365.403352 156.433896 
L 366.417898 156.219792 
L 367.432443 156.336659 
L 368.446989 156.096349 
L 369.461534 156.14078 
L 370.47608 156.421176 
L 373.519716 156.095558 
L 374.534261 157.212045 
L 375.548807 156.587763 
L 376.563352 156.30008 
L 377.577898 156.348145 
L 378.592443 156.214621 
L 379.606989 156.433314 
L 380.621534 156.347303 
L 382.650625 156.730407 
L 383.66517 156.311451 
L 384.679716 156.422137 
L 385.694261 156.363393 
L 386.708807 156.605773 
L 390.766989 156.104843 
L 391.781534 156.384421 
L 392.79608 156.488825 
L 393.810625 156.398473 
L 394.82517 156.77701 
L 396.854261 156.438086 
L 397.868807 156.575574 
L 398.883352 156.895077 
L 399.897898 156.586644 
L 400.912443 156.758388 
L 401.926989 156.656062 
L 402.941534 156.965966 
L 404.970625 156.474212 
L 405.98517 156.979237 
L 409.028807 156.78095 
L 410.043352 157.101613 
L 411.057898 156.75467 
L 412.072443 156.551084 
L 414.101534 157.098151 
L 415.11608 156.494078 
L 416.130625 156.470489 
L 417.14517 156.88698 
L 418.159716 156.736063 
L 419.174261 156.7347 
L 420.188807 157.464837 
L 421.203352 157.245992 
L 422.217898 156.862099 
L 423.232443 156.935837 
L 424.246989 156.769388 
L 425.261534 157.033425 
L 426.27608 156.931994 
L 428.30517 157.300986 
L 429.319716 156.96563 
L 430.334261 157.144787 
L 432.363352 156.797355 
L 433.377898 157.022033 
L 434.392443 156.650283 
L 435.406989 156.643316 
L 436.421534 157.060201 
L 437.43608 156.635579 
L 439.46517 156.742267 
L 440.479716 156.495117 
L 441.494261 156.37065 
L 442.508807 156.805563 
L 443.523352 157.010789 
L 444.537898 156.41239 
L 445.552443 156.30752 
L 446.566989 156.518043 
L 447.581534 154.394413 
L 448.59608 153.868807 
L 449.610625 154.745371 
L 450.62517 154.964107 
L 451.639716 155.882272 
L 454.683352 155.2932 
L 456.712443 155.89478 
L 457.726989 155.705633 
L 458.741534 155.735094 
L 459.75608 156.291481 
L 461.78517 155.58715 
L 462.799716 155.645655 
L 463.814261 153.043477 
L 464.828807 154.084499 
L 465.843352 154.435394 
L 466.857898 154.271206 
L 467.872443 154.535556 
L 468.886989 155.139117 
L 469.901534 154.806182 
L 470.91608 155.013079 
L 471.930625 154.635972 
L 472.94517 155.060609 
L 473.959716 155.242783 
L 474.974261 154.710172 
L 475.988807 155.23496 
L 479.032443 154.912978 
L 480.046989 154.600437 
L 481.061534 154.867425 
L 482.07608 154.496443 
L 483.090625 155.003689 
L 485.119716 155.096093 
L 486.134261 154.993173 
L 487.148807 155.095595 
L 488.163352 155.423929 
L 491.206989 155.077029 
L 492.221534 155.272574 
L 493.23608 154.511676 
L 494.250625 155.031347 
L 495.26517 155.333706 
L 496.279716 155.833112 
L 497.294261 155.491651 
L 499.323352 155.26391 
L 500.337898 155.533926 
L 501.352443 155.532608 
L 502.366989 155.347737 
L 503.381534 155.905205 
L 505.410625 155.375726 
L 506.42517 155.269938 
L 507.439716 155.835803 
L 509.468807 155.153243 
L 512.512443 155.751553 
L 514.541534 155.403771 
L 515.55608 155.480373 
L 516.570625 155.800394 
L 517.58517 155.63988 
L 518.599716 156.279948 
L 519.614261 155.760215 
L 521.643352 155.431543 
L 524.686989 155.709706 
L 525.701534 155.219692 
L 526.71608 155.442174 
L 527.730625 155.890347 
L 529.759716 156.019055 
L 530.774261 155.491745 
L 533.817898 155.350416 
L 534.832443 155.346429 
L 535.846989 155.665712 
L 536.861534 155.630159 
L 537.87608 156.297099 
L 538.890625 155.577022 
L 539.90517 154.636774 
L 540.919716 155.540049 
L 542.948807 155.596634 
L 543.963352 155.315462 
L 544.977898 155.58118 
L 545.992443 154.986037 
L 549.03608 155.552048 
L 553.094261 155.310278 
L 554.108807 155.408083 
L 555.123352 155.196475 
L 556.137898 155.538965 
L 557.152443 155.442706 
L 558.166989 155.091318 
L 559.181534 153.608385 
L 561.210625 154.714612 
L 562.22517 154.891346 
L 563.239716 154.903836 
L 564.254261 154.621878 
L 565.268807 155.658852 
L 566.283352 155.249258 
L 567.297898 155.713823 
L 568.312443 155.021825 
L 570.341534 155.150075 
L 571.35608 155.154992 
L 572.370625 155.317545 
L 573.38517 155.151199 
L 574.399716 155.264146 
L 575.414261 155.587818 
L 579.472443 155.074538 
L 580.486989 155.645964 
L 581.501534 155.841646 
L 582.51608 155.354586 
L 583.530625 155.051135 
L 584.54517 155.565542 
L 585.559716 155.17962 
L 586.574261 155.260668 
L 587.588807 155.475398 
L 588.603352 155.165695 
L 589.617898 155.24334 
L 590.632443 155.072499 
L 591.646989 155.269896 
L 592.661534 154.818812 
L 593.67608 155.188621 
L 594.690625 155.108289 
L 595.70517 154.669359 
L 596.719716 155.152197 
L 597.734261 155.156871 
L 598.748807 154.848813 
L 599.763352 155.390366 
L 600.777898 155.278702 
L 601.792443 155.436354 
L 602.806989 155.245938 
L 603.821534 155.244318 
L 604.83608 154.974139 
L 605.850625 155.382234 
L 606.86517 155.004301 
L 607.879716 154.988872 
L 608.894261 155.262399 
L 610.923352 155.096087 
L 611.937898 154.837695 
L 613.966989 155.423065 
L 614.981534 155.028617 
L 615.99608 155.512282 
L 617.010625 155.296887 
L 618.02517 155.225788 
L 619.039716 154.743231 
L 620.054261 155.366563 
L 622.083352 155.130873 
L 623.097898 154.707484 
L 624.112443 154.986333 
L 625.126989 154.93384 
L 625.126989 154.93384 
" clip-path="url(#p750ffac86b)" style="fill: none; stroke: #ff7f0e; stroke-width: 1.5; stroke-linecap: square"/>
   </g>
   <g id="patch_3">
    <path d="M 92.490625 308.63625 
L 92.490625 31.43625 
" style="fill: none; stroke: #000000; stroke-width: 0.8; stroke-linejoin: miter; stroke-linecap: square"/>
   </g>
   <g id="patch_4">
    <path d="M 650.490625 308.63625 
L 650.490625 31.43625 
" style="fill: none; stroke: #000000; stroke-width: 0.8; stroke-linejoin: miter; stroke-linecap: square"/>
   </g>
   <g id="patch_5">
    <path d="M 92.490625 308.63625 
L 650.490625 308.63625 
" style="fill: none; stroke: #000000; stroke-width: 0.8; stroke-linejoin: miter; stroke-linecap: square"/>
   </g>
   <g id="patch_6">
    <path d="M 92.490625 31.43625 
L 650.490625 31.43625 
" style="fill: none; stroke: #000000; stroke-width: 0.8; stroke-linejoin: miter; stroke-linecap: square"/>
   </g>
   <g id="text_12">
    <!-- Generator and Discriminator Loss During Training -->
    <g transform="translate(74.258125 25.43625) scale(0.24 -0.24)">
     <defs>
      <path id="DejaVuSans-47" d="M 3809 666 
L 3809 1919 
L 2778 1919 
L 2778 2438 
L 4434 2438 
L 4434 434 
Q 4069 175 3628 42 
Q 3188 -91 2688 -91 
Q 1594 -91 976 548 
Q 359 1188 359 2328 
Q 359 3472 976 4111 
Q 1594 4750 2688 4750 
Q 3144 4750 3555 4637 
Q 3966 4525 4313 4306 
L 4313 3634 
Q 3963 3931 3569 4081 
Q 3175 4231 2741 4231 
Q 1884 4231 1454 3753 
Q 1025 3275 1025 2328 
Q 1025 1384 1454 906 
Q 1884 428 2741 428 
Q 3075 428 3337 486 
Q 3600 544 3809 666 
z
" transform="scale(0.015625)"/>
      <path id="DejaVuSans-20" transform="scale(0.015625)"/>
      <path id="DejaVuSans-64" d="M 2906 2969 
L 2906 4863 
L 3481 4863 
L 3481 0 
L 2906 0 
L 2906 525 
Q 2725 213 2448 61 
Q 2172 -91 1784 -91 
Q 1150 -91 751 415 
Q 353 922 353 1747 
Q 353 2572 751 3078 
Q 1150 3584 1784 3584 
Q 2172 3584 2448 3432 
Q 2725 3281 2906 2969 
z
M 947 1747 
Q 947 1113 1208 752 
Q 1469 391 1925 391 
Q 2381 391 2643 752 
Q 2906 1113 2906 1747 
Q 2906 2381 2643 2742 
Q 2381 3103 1925 3103 
Q 1469 3103 1208 2742 
Q 947 2381 947 1747 
z
" transform="scale(0.015625)"/>
      <path id="DejaVuSans-44" d="M 1259 4147 
L 1259 519 
L 2022 519 
Q 2988 519 3436 956 
Q 3884 1394 3884 2338 
Q 3884 3275 3436 3711 
Q 2988 4147 2022 4147 
L 1259 4147 
z
M 628 4666 
L 1925 4666 
Q 3281 4666 3915 4102 
Q 4550 3538 4550 2338 
Q 4550 1131 3912 565 
Q 3275 0 1925 0 
L 628 0 
L 628 4666 
z
" transform="scale(0.015625)"/>
      <path id="DejaVuSans-63" d="M 3122 3366 
L 3122 2828 
Q 2878 2963 2633 3030 
Q 2388 3097 2138 3097 
Q 1578 3097 1268 2742 
Q 959 2388 959 1747 
Q 959 1106 1268 751 
Q 1578 397 2138 397 
Q 2388 397 2633 464 
Q 2878 531 3122 666 
L 3122 134 
Q 2881 22 2623 -34 
Q 2366 -91 2075 -91 
Q 1284 -91 818 406 
Q 353 903 353 1747 
Q 353 2603 823 3093 
Q 1294 3584 2113 3584 
Q 2378 3584 2631 3529 
Q 2884 3475 3122 3366 
z
" transform="scale(0.015625)"/>
      <path id="DejaVuSans-6d" d="M 3328 2828 
Q 3544 3216 3844 3400 
Q 4144 3584 4550 3584 
Q 5097 3584 5394 3201 
Q 5691 2819 5691 2113 
L 5691 0 
L 5113 0 
L 5113 2094 
Q 5113 2597 4934 2840 
Q 4756 3084 4391 3084 
Q 3944 3084 3684 2787 
Q 3425 2491 3425 1978 
L 3425 0 
L 2847 0 
L 2847 2094 
Q 2847 2600 2669 2842 
Q 2491 3084 2119 3084 
Q 1678 3084 1418 2786 
Q 1159 2488 1159 1978 
L 1159 0 
L 581 0 
L 581 3500 
L 1159 3500 
L 1159 2956 
Q 1356 3278 1631 3431 
Q 1906 3584 2284 3584 
Q 2666 3584 2933 3390 
Q 3200 3197 3328 2828 
z
" transform="scale(0.015625)"/>
      <path id="DejaVuSans-75" d="M 544 1381 
L 544 3500 
L 1119 3500 
L 1119 1403 
Q 1119 906 1312 657 
Q 1506 409 1894 409 
Q 2359 409 2629 706 
Q 2900 1003 2900 1516 
L 2900 3500 
L 3475 3500 
L 3475 0 
L 2900 0 
L 2900 538 
Q 2691 219 2414 64 
Q 2138 -91 1772 -91 
Q 1169 -91 856 284 
Q 544 659 544 1381 
z
M 1991 3584 
L 1991 3584 
z
" transform="scale(0.015625)"/>
      <path id="DejaVuSans-67" d="M 2906 1791 
Q 2906 2416 2648 2759 
Q 2391 3103 1925 3103 
Q 1463 3103 1205 2759 
Q 947 2416 947 1791 
Q 947 1169 1205 825 
Q 1463 481 1925 481 
Q 2391 481 2648 825 
Q 2906 1169 2906 1791 
z
M 3481 434 
Q 3481 -459 3084 -895 
Q 2688 -1331 1869 -1331 
Q 1566 -1331 1297 -1286 
Q 1028 -1241 775 -1147 
L 775 -588 
Q 1028 -725 1275 -790 
Q 1522 -856 1778 -856 
Q 2344 -856 2625 -561 
Q 2906 -266 2906 331 
L 2906 616 
Q 2728 306 2450 153 
Q 2172 0 1784 0 
Q 1141 0 747 490 
Q 353 981 353 1791 
Q 353 2603 747 3093 
Q 1141 3584 1784 3584 
Q 2172 3584 2450 3431 
Q 2728 3278 2906 2969 
L 2906 3500 
L 3481 3500 
L 3481 434 
z
" transform="scale(0.015625)"/>
      <path id="DejaVuSans-54" d="M -19 4666 
L 3928 4666 
L 3928 4134 
L 2272 4134 
L 2272 0 
L 1638 0 
L 1638 4134 
L -19 4134 
L -19 4666 
z
" transform="scale(0.015625)"/>
     </defs>
     <use xlink:href="#DejaVuSans-47"/>
     <use xlink:href="#DejaVuSans-65" x="77.490234"/>
     <use xlink:href="#DejaVuSans-6e" x="139.013672"/>
     <use xlink:href="#DejaVuSans-65" x="202.392578"/>
     <use xlink:href="#DejaVuSans-72" x="263.916016"/>
     <use xlink:href="#DejaVuSans-61" x="305.029297"/>
     <use xlink:href="#DejaVuSans-74" x="366.308594"/>
     <use xlink:href="#DejaVuSans-6f" x="405.517578"/>
     <use xlink:href="#DejaVuSans-72" x="466.699219"/>
     <use xlink:href="#DejaVuSans-20" x="507.8125"/>
     <use xlink:href="#DejaVuSans-61" x="539.599609"/>
     <use xlink:href="#DejaVuSans-6e" x="600.878906"/>
     <use xlink:href="#DejaVuSans-64" x="664.257812"/>
     <use xlink:href="#DejaVuSans-20" x="727.734375"/>
     <use xlink:href="#DejaVuSans-44" x="759.521484"/>
     <use xlink:href="#DejaVuSans-69" x="836.523438"/>
     <use xlink:href="#DejaVuSans-73" x="864.306641"/>
     <use xlink:href="#DejaVuSans-63" x="916.40625"/>
     <use xlink:href="#DejaVuSans-72" x="971.386719"/>
     <use xlink:href="#DejaVuSans-69" x="1012.5"/>
     <use xlink:href="#DejaVuSans-6d" x="1040.283203"/>
     <use xlink:href="#DejaVuSans-69" x="1137.695312"/>
     <use xlink:href="#DejaVuSans-6e" x="1165.478516"/>
     <use xlink:href="#DejaVuSans-61" x="1228.857422"/>
     <use xlink:href="#DejaVuSans-74" x="1290.136719"/>
     <use xlink:href="#DejaVuSans-6f" x="1329.345703"/>
     <use xlink:href="#DejaVuSans-72" x="1390.527344"/>
     <use xlink:href="#DejaVuSans-20" x="1431.640625"/>
     <use xlink:href="#DejaVuSans-4c" x="1463.427734"/>
     <use xlink:href="#DejaVuSans-6f" x="1517.390625"/>
     <use xlink:href="#DejaVuSans-73" x="1578.572266"/>
     <use xlink:href="#DejaVuSans-73" x="1630.671875"/>
     <use xlink:href="#DejaVuSans-20" x="1682.771484"/>
     <use xlink:href="#DejaVuSans-44" x="1714.558594"/>
     <use xlink:href="#DejaVuSans-75" x="1791.560547"/>
     <use xlink:href="#DejaVuSans-72" x="1854.939453"/>
     <use xlink:href="#DejaVuSans-69" x="1896.052734"/>
     <use xlink:href="#DejaVuSans-6e" x="1923.835938"/>
     <use xlink:href="#DejaVuSans-67" x="1987.214844"/>
     <use xlink:href="#DejaVuSans-20" x="2050.691406"/>
     <use xlink:href="#DejaVuSans-54" x="2082.478516"/>
     <use xlink:href="#DejaVuSans-72" x="2128.8125"/>
     <use xlink:href="#DejaVuSans-61" x="2169.925781"/>
     <use xlink:href="#DejaVuSans-69" x="2231.205078"/>
     <use xlink:href="#DejaVuSans-6e" x="2258.988281"/>
     <use xlink:href="#DejaVuSans-69" x="2322.367188"/>
     <use xlink:href="#DejaVuSans-6e" x="2350.150391"/>
     <use xlink:href="#DejaVuSans-67" x="2413.529297"/>
    </g>
   </g>
   <g id="legend_1">
    <g id="patch_7">
     <path d="M 556.99375 106.14875 
L 636.490625 106.14875 
Q 640.490625 106.14875 640.490625 102.14875 
L 640.490625 45.43625 
Q 640.490625 41.43625 636.490625 41.43625 
L 556.99375 41.43625 
Q 552.99375 41.43625 552.99375 45.43625 
L 552.99375 102.14875 
Q 552.99375 106.14875 556.99375 106.14875 
z
" style="fill: #ffffff; opacity: 0.8; stroke: #cccccc; stroke-linejoin: miter"/>
    </g>
    <g id="line2d_12">
     <path d="M 560.99375 57.633125 
L 580.99375 57.633125 
L 600.99375 57.633125 
" style="fill: none; stroke: #1f77b4; stroke-width: 1.5; stroke-linecap: square"/>
    </g>
    <g id="text_13">
     <!-- G -->
     <g transform="translate(616.99375 64.633125) scale(0.2 -0.2)">
      <use xlink:href="#DejaVuSans-47"/>
     </g>
    </g>
    <g id="line2d_13">
     <path d="M 560.99375 86.989375 
L 580.99375 86.989375 
L 600.99375 86.989375 
" style="fill: none; stroke: #ff7f0e; stroke-width: 1.5; stroke-linecap: square"/>
    </g>
    <g id="text_14">
     <!-- D -->
     <g transform="translate(616.99375 93.989375) scale(0.2 -0.2)">
      <use xlink:href="#DejaVuSans-44"/>
     </g>
    </g>
   </g>
  </g>
 </g>
 <defs>
  <clipPath id="p750ffac86b">
   <rect x="92.490625" y="31.43625" width="558" height="277.2"/>
  </clipPath>
 </defs>
</svg>
