<?xml version="1.0" encoding="utf-8" standalone="no"?>
<!DOCTYPE svg PUBLIC "-//W3C//DTD SVG 1.1//EN"
  "http://www.w3.org/Graphics/SVG/1.1/DTD/svg11.dtd">
<svg xmlns:xlink="http://www.w3.org/1999/xlink" width="675.923125pt" height="365.54875pt" viewBox="0 0 675.923125 365.54875" xmlns="http://www.w3.org/2000/svg" version="1.1">
 <metadata>
  <rdf:RDF xmlns:dc="http://purl.org/dc/elements/1.1/" xmlns:cc="http://creativecommons.org/ns#" xmlns:rdf="http://www.w3.org/1999/02/22-rdf-syntax-ns#">
   <cc:Work>
    <dc:type rdf:resource="http://purl.org/dc/dcmitype/StillImage"/>
    <dc:date>2024-02-01T21:31:54.004234</dc:date>
    <dc:format>image/svg+xml</dc:format>
    <dc:creator>
     <cc:Agent>
      <dc:title>Matplotlib v3.7.2, https://matplotlib.org/</dc:title>
     </cc:Agent>
    </dc:creator>
   </cc:Work>
  </rdf:RDF>
 </metadata>
 <defs>
  <style type="text/css">*{stroke-linejoin: round; stroke-linecap: butt}</style>
 </defs>
 <g id="figure_1">
  <g id="patch_1">
   <path d="M 0 365.54875 
L 675.923125 365.54875 
L 675.923125 -0 
L 0 -0 
z
" style="fill: #ffffff"/>
  </g>
  <g id="axes_1">
   <g id="patch_2">
    <path d="M 92.490625 308.63625 
L 650.490625 308.63625 
L 650.490625 31.43625 
L 92.490625 31.43625 
z
" style="fill: #ffffff"/>
   </g>
   <g id="matplotlib.axis_1">
    <g id="xtick_1">
     <g id="line2d_1">
      <defs>
       <path id="m2a55d5b146" d="M 0 0 
L 0 3.5 
" style="stroke: #000000; stroke-width: 0.8"/>
      </defs>
      <g>
       <use xlink:href="#m2a55d5b146" x="117.854261" y="308.63625" style="stroke: #000000; stroke-width: 0.8"/>
      </g>
     </g>
     <g id="text_1">
      <!-- 0 -->
      <g transform="translate(111.491761 330.833125) scale(0.2 -0.2)">
       <defs>
        <path id="DejaVuSans-30" d="M 2034 4250 
Q 1547 4250 1301 3770 
Q 1056 3291 1056 2328 
Q 1056 1369 1301 889 
Q 1547 409 2034 409 
Q 2525 409 2770 889 
Q 3016 1369 3016 2328 
Q 3016 3291 2770 3770 
Q 2525 4250 2034 4250 
z
M 2034 4750 
Q 2819 4750 3233 4129 
Q 3647 3509 3647 2328 
Q 3647 1150 3233 529 
Q 2819 -91 2034 -91 
Q 1250 -91 836 529 
Q 422 1150 422 2328 
Q 422 3509 836 4129 
Q 1250 4750 2034 4750 
z
" transform="scale(0.015625)"/>
       </defs>
       <use xlink:href="#DejaVuSans-30"/>
      </g>
     </g>
    </g>
    <g id="xtick_2">
     <g id="line2d_2">
      <g>
       <use xlink:href="#m2a55d5b146" x="241.579317" y="308.63625" style="stroke: #000000; stroke-width: 0.8"/>
      </g>
     </g>
     <g id="text_2">
      <!-- 500 -->
      <g transform="translate(222.491817 330.833125) scale(0.2 -0.2)">
       <defs>
        <path id="DejaVuSans-35" d="M 691 4666 
L 3169 4666 
L 3169 4134 
L 1269 4134 
L 1269 2991 
Q 1406 3038 1543 3061 
Q 1681 3084 1819 3084 
Q 2600 3084 3056 2656 
Q 3513 2228 3513 1497 
Q 3513 744 3044 326 
Q 2575 -91 1722 -91 
Q 1428 -91 1123 -41 
Q 819 9 494 109 
L 494 744 
Q 775 591 1075 516 
Q 1375 441 1709 441 
Q 2250 441 2565 725 
Q 2881 1009 2881 1497 
Q 2881 1984 2565 2268 
Q 2250 2553 1709 2553 
Q 1456 2553 1204 2497 
Q 953 2441 691 2322 
L 691 4666 
z
" transform="scale(0.015625)"/>
       </defs>
       <use xlink:href="#DejaVuSans-35"/>
       <use xlink:href="#DejaVuSans-30" x="63.623047"/>
       <use xlink:href="#DejaVuSans-30" x="127.246094"/>
      </g>
     </g>
    </g>
    <g id="xtick_3">
     <g id="line2d_3">
      <g>
       <use xlink:href="#m2a55d5b146" x="365.304372" y="308.63625" style="stroke: #000000; stroke-width: 0.8"/>
      </g>
     </g>
     <g id="text_3">
      <!-- 1000 -->
      <g transform="translate(339.854372 330.833125) scale(0.2 -0.2)">
       <defs>
        <path id="DejaVuSans-31" d="M 794 531 
L 1825 531 
L 1825 4091 
L 703 3866 
L 703 4441 
L 1819 4666 
L 2450 4666 
L 2450 531 
L 3481 531 
L 3481 0 
L 794 0 
L 794 531 
z
" transform="scale(0.015625)"/>
       </defs>
       <use xlink:href="#DejaVuSans-31"/>
       <use xlink:href="#DejaVuSans-30" x="63.623047"/>
       <use xlink:href="#DejaVuSans-30" x="127.246094"/>
       <use xlink:href="#DejaVuSans-30" x="190.869141"/>
      </g>
     </g>
    </g>
    <g id="xtick_4">
     <g id="line2d_4">
      <g>
       <use xlink:href="#m2a55d5b146" x="489.029428" y="308.63625" style="stroke: #000000; stroke-width: 0.8"/>
      </g>
     </g>
     <g id="text_4">
      <!-- 1500 -->
      <g transform="translate(463.579428 330.833125) scale(0.2 -0.2)">
       <use xlink:href="#DejaVuSans-31"/>
       <use xlink:href="#DejaVuSans-35" x="63.623047"/>
       <use xlink:href="#DejaVuSans-30" x="127.246094"/>
       <use xlink:href="#DejaVuSans-30" x="190.869141"/>
      </g>
     </g>
    </g>
    <g id="xtick_5">
     <g id="line2d_5">
      <g>
       <use xlink:href="#m2a55d5b146" x="612.754483" y="308.63625" style="stroke: #000000; stroke-width: 0.8"/>
      </g>
     </g>
     <g id="text_5">
      <!-- 2000 -->
      <g transform="translate(587.304483 330.833125) scale(0.2 -0.2)">
       <defs>
        <path id="DejaVuSans-32" d="M 1228 531 
L 3431 531 
L 3431 0 
L 469 0 
L 469 531 
Q 828 903 1448 1529 
Q 2069 2156 2228 2338 
Q 2531 2678 2651 2914 
Q 2772 3150 2772 3378 
Q 2772 3750 2511 3984 
Q 2250 4219 1831 4219 
Q 1534 4219 1204 4116 
Q 875 4013 500 3803 
L 500 4441 
Q 881 4594 1212 4672 
Q 1544 4750 1819 4750 
Q 2544 4750 2975 4387 
Q 3406 4025 3406 3419 
Q 3406 3131 3298 2873 
Q 3191 2616 2906 2266 
Q 2828 2175 2409 1742 
Q 1991 1309 1228 531 
z
" transform="scale(0.015625)"/>
       </defs>
       <use xlink:href="#DejaVuSans-32"/>
       <use xlink:href="#DejaVuSans-30" x="63.623047"/>
       <use xlink:href="#DejaVuSans-30" x="127.246094"/>
       <use xlink:href="#DejaVuSans-30" x="190.869141"/>
      </g>
     </g>
    </g>
    <g id="text_6">
     <!-- iterations -->
     <g transform="translate(324.035938 354.189375) scale(0.2 -0.2)">
      <defs>
       <path id="DejaVuSans-69" d="M 603 3500 
L 1178 3500 
L 1178 0 
L 603 0 
L 603 3500 
z
M 603 4863 
L 1178 4863 
L 1178 4134 
L 603 4134 
L 603 4863 
z
" transform="scale(0.015625)"/>
       <path id="DejaVuSans-74" d="M 1172 4494 
L 1172 3500 
L 2356 3500 
L 2356 3053 
L 1172 3053 
L 1172 1153 
Q 1172 725 1289 603 
Q 1406 481 1766 481 
L 2356 481 
L 2356 0 
L 1766 0 
Q 1100 0 847 248 
Q 594 497 594 1153 
L 594 3053 
L 172 3053 
L 172 3500 
L 594 3500 
L 594 4494 
L 1172 4494 
z
" transform="scale(0.015625)"/>
       <path id="DejaVuSans-65" d="M 3597 1894 
L 3597 1613 
L 953 1613 
Q 991 1019 1311 708 
Q 1631 397 2203 397 
Q 2534 397 2845 478 
Q 3156 559 3463 722 
L 3463 178 
Q 3153 47 2828 -22 
Q 2503 -91 2169 -91 
Q 1331 -91 842 396 
Q 353 884 353 1716 
Q 353 2575 817 3079 
Q 1281 3584 2069 3584 
Q 2775 3584 3186 3129 
Q 3597 2675 3597 1894 
z
M 3022 2063 
Q 3016 2534 2758 2815 
Q 2500 3097 2075 3097 
Q 1594 3097 1305 2825 
Q 1016 2553 972 2059 
L 3022 2063 
z
" transform="scale(0.015625)"/>
       <path id="DejaVuSans-72" d="M 2631 2963 
Q 2534 3019 2420 3045 
Q 2306 3072 2169 3072 
Q 1681 3072 1420 2755 
Q 1159 2438 1159 1844 
L 1159 0 
L 581 0 
L 581 3500 
L 1159 3500 
L 1159 2956 
Q 1341 3275 1631 3429 
Q 1922 3584 2338 3584 
Q 2397 3584 2469 3576 
Q 2541 3569 2628 3553 
L 2631 2963 
z
" transform="scale(0.015625)"/>
       <path id="DejaVuSans-61" d="M 2194 1759 
Q 1497 1759 1228 1600 
Q 959 1441 959 1056 
Q 959 750 1161 570 
Q 1363 391 1709 391 
Q 2188 391 2477 730 
Q 2766 1069 2766 1631 
L 2766 1759 
L 2194 1759 
z
M 3341 1997 
L 3341 0 
L 2766 0 
L 2766 531 
Q 2569 213 2275 61 
Q 1981 -91 1556 -91 
Q 1019 -91 701 211 
Q 384 513 384 1019 
Q 384 1609 779 1909 
Q 1175 2209 1959 2209 
L 2766 2209 
L 2766 2266 
Q 2766 2663 2505 2880 
Q 2244 3097 1772 3097 
Q 1472 3097 1187 3025 
Q 903 2953 641 2809 
L 641 3341 
Q 956 3463 1253 3523 
Q 1550 3584 1831 3584 
Q 2591 3584 2966 3190 
Q 3341 2797 3341 1997 
z
" transform="scale(0.015625)"/>
       <path id="DejaVuSans-6f" d="M 1959 3097 
Q 1497 3097 1228 2736 
Q 959 2375 959 1747 
Q 959 1119 1226 758 
Q 1494 397 1959 397 
Q 2419 397 2687 759 
Q 2956 1122 2956 1747 
Q 2956 2369 2687 2733 
Q 2419 3097 1959 3097 
z
M 1959 3584 
Q 2709 3584 3137 3096 
Q 3566 2609 3566 1747 
Q 3566 888 3137 398 
Q 2709 -91 1959 -91 
Q 1206 -91 779 398 
Q 353 888 353 1747 
Q 353 2609 779 3096 
Q 1206 3584 1959 3584 
z
" transform="scale(0.015625)"/>
       <path id="DejaVuSans-6e" d="M 3513 2113 
L 3513 0 
L 2938 0 
L 2938 2094 
Q 2938 2591 2744 2837 
Q 2550 3084 2163 3084 
Q 1697 3084 1428 2787 
Q 1159 2491 1159 1978 
L 1159 0 
L 581 0 
L 581 3500 
L 1159 3500 
L 1159 2956 
Q 1366 3272 1645 3428 
Q 1925 3584 2291 3584 
Q 2894 3584 3203 3211 
Q 3513 2838 3513 2113 
z
" transform="scale(0.015625)"/>
       <path id="DejaVuSans-73" d="M 2834 3397 
L 2834 2853 
Q 2591 2978 2328 3040 
Q 2066 3103 1784 3103 
Q 1356 3103 1142 2972 
Q 928 2841 928 2578 
Q 928 2378 1081 2264 
Q 1234 2150 1697 2047 
L 1894 2003 
Q 2506 1872 2764 1633 
Q 3022 1394 3022 966 
Q 3022 478 2636 193 
Q 2250 -91 1575 -91 
Q 1294 -91 989 -36 
Q 684 19 347 128 
L 347 722 
Q 666 556 975 473 
Q 1284 391 1588 391 
Q 1994 391 2212 530 
Q 2431 669 2431 922 
Q 2431 1156 2273 1281 
Q 2116 1406 1581 1522 
L 1381 1569 
Q 847 1681 609 1914 
Q 372 2147 372 2553 
Q 372 3047 722 3315 
Q 1072 3584 1716 3584 
Q 2034 3584 2315 3537 
Q 2597 3491 2834 3397 
z
" transform="scale(0.015625)"/>
      </defs>
      <use xlink:href="#DejaVuSans-69"/>
      <use xlink:href="#DejaVuSans-74" x="27.783203"/>
      <use xlink:href="#DejaVuSans-65" x="66.992188"/>
      <use xlink:href="#DejaVuSans-72" x="128.515625"/>
      <use xlink:href="#DejaVuSans-61" x="169.628906"/>
      <use xlink:href="#DejaVuSans-74" x="230.908203"/>
      <use xlink:href="#DejaVuSans-69" x="270.117188"/>
      <use xlink:href="#DejaVuSans-6f" x="297.900391"/>
      <use xlink:href="#DejaVuSans-6e" x="359.082031"/>
      <use xlink:href="#DejaVuSans-73" x="422.460938"/>
     </g>
    </g>
   </g>
   <g id="matplotlib.axis_2">
    <g id="ytick_1">
     <g id="line2d_6">
      <defs>
       <path id="mf1b4bced24" d="M 0 0 
L -3.5 0 
" style="stroke: #000000; stroke-width: 0.8"/>
      </defs>
      <g>
       <use xlink:href="#mf1b4bced24" x="92.490625" y="234.626549" style="stroke: #000000; stroke-width: 0.8"/>
      </g>
     </g>
     <g id="text_7">
      <!-- −200 -->
      <g transform="translate(30.55625 242.224987) scale(0.2 -0.2)">
       <defs>
        <path id="DejaVuSans-2212" d="M 678 2272 
L 4684 2272 
L 4684 1741 
L 678 1741 
L 678 2272 
z
" transform="scale(0.015625)"/>
       </defs>
       <use xlink:href="#DejaVuSans-2212"/>
       <use xlink:href="#DejaVuSans-32" x="83.789062"/>
       <use xlink:href="#DejaVuSans-30" x="147.412109"/>
       <use xlink:href="#DejaVuSans-30" x="211.035156"/>
      </g>
     </g>
    </g>
    <g id="ytick_2">
     <g id="line2d_7">
      <g>
       <use xlink:href="#mf1b4bced24" x="92.490625" y="151.376755" style="stroke: #000000; stroke-width: 0.8"/>
      </g>
     </g>
     <g id="text_8">
      <!-- 0 -->
      <g transform="translate(72.765625 158.975193) scale(0.2 -0.2)">
       <use xlink:href="#DejaVuSans-30"/>
      </g>
     </g>
    </g>
    <g id="ytick_3">
     <g id="line2d_8">
      <g>
       <use xlink:href="#mf1b4bced24" x="92.490625" y="68.126962" style="stroke: #000000; stroke-width: 0.8"/>
      </g>
     </g>
     <g id="text_9">
      <!-- 200 -->
      <g transform="translate(47.315625 75.725399) scale(0.2 -0.2)">
       <use xlink:href="#DejaVuSans-32"/>
       <use xlink:href="#DejaVuSans-30" x="63.623047"/>
       <use xlink:href="#DejaVuSans-30" x="127.246094"/>
      </g>
     </g>
    </g>
    <g id="text_10">
     <!-- Loss -->
     <g transform="translate(22.396875 191.970625) rotate(-90) scale(0.2 -0.2)">
      <defs>
       <path id="DejaVuSans-4c" d="M 628 4666 
L 1259 4666 
L 1259 531 
L 3531 531 
L 3531 0 
L 628 0 
L 628 4666 
z
" transform="scale(0.015625)"/>
      </defs>
      <use xlink:href="#DejaVuSans-4c"/>
      <use xlink:href="#DejaVuSans-6f" x="53.962891"/>
      <use xlink:href="#DejaVuSans-73" x="115.144531"/>
      <use xlink:href="#DejaVuSans-73" x="167.244141"/>
     </g>
    </g>
   </g>
   <g id="line2d_9">
    <path d="M 117.854261 114.726306 
L 118.101711 106.081918 
L 118.596612 44.03625 
L 118.844062 55.607746 
L 119.091512 116.630126 
L 119.338962 138.664661 
L 119.586412 137.321124 
L 119.833862 122.741893 
L 120.081312 120.788415 
L 120.328762 127.999278 
L 120.576213 122.989826 
L 120.823663 108.458537 
L 121.071113 122.646974 
L 121.318563 126.556792 
L 121.813463 120.201515 
L 122.060913 126.255443 
L 122.308363 122.797609 
L 122.555813 127.006439 
L 122.803264 118.64052 
L 123.050714 124.366742 
L 123.298164 117.662909 
L 123.545614 117.330772 
L 123.793064 114.695364 
L 124.040514 107.764658 
L 124.287964 108.435758 
L 124.782864 106.219874 
L 125.030315 110.116506 
L 125.525215 103.735206 
L 125.772665 107.114803 
L 126.020115 106.33327 
L 126.267565 103.507469 
L 126.515015 108.842958 
L 126.762465 102.920055 
L 127.009915 108.429686 
L 127.257366 110.936486 
L 127.504816 110.869457 
L 127.752266 106.939005 
L 127.999716 105.409875 
L 128.247166 110.445841 
L 128.494616 111.131011 
L 128.742066 113.912796 
L 129.236966 111.591078 
L 129.484417 112.594274 
L 129.731867 115.130586 
L 129.979317 112.662515 
L 130.226767 111.560611 
L 130.474217 112.925905 
L 130.721667 108.346789 
L 130.969117 112.549272 
L 131.216567 114.58122 
L 131.464017 115.179402 
L 131.711468 119.262292 
L 131.958918 117.014571 
L 132.206368 116.380063 
L 132.453818 120.267786 
L 132.701268 120.37667 
L 132.948718 120.879402 
L 133.196168 120.548412 
L 133.443618 123.597646 
L 133.691068 123.431828 
L 133.938519 121.429234 
L 134.185969 122.560572 
L 134.433419 119.85272 
L 134.680869 118.694633 
L 135.175769 118.68102 
L 135.423219 118.119314 
L 135.670669 121.17012 
L 136.16557 116.7473 
L 136.41302 113.297092 
L 136.66047 118.688744 
L 136.90792 120.343387 
L 137.15537 123.308616 
L 137.65027 118.109455 
L 138.14517 123.245243 
L 138.640071 118.407012 
L 139.134971 122.653338 
L 139.382421 123.836576 
L 139.629871 125.744796 
L 139.877321 123.447651 
L 140.124771 128.318527 
L 140.372221 129.080516 
L 140.619672 128.830815 
L 140.867122 128.20745 
L 141.114572 128.76154 
L 141.362022 132.053196 
L 141.609472 133.596636 
L 141.856922 133.934515 
L 142.104372 135.141517 
L 142.351822 135.137063 
L 142.599272 134.780402 
L 142.846723 135.202134 
L 143.094173 135.093015 
L 143.341623 136.905242 
L 143.836523 142.399589 
L 144.083973 142.128559 
L 144.331423 142.779249 
L 144.578873 139.598641 
L 144.826323 140.408307 
L 145.073774 138.506123 
L 145.321224 139.937779 
L 146.311024 135.089312 
L 146.558474 138.125691 
L 146.805924 137.931203 
L 147.053374 136.48173 
L 147.300825 135.887461 
L 147.795725 133.177328 
L 148.043175 135.336782 
L 148.290625 134.894951 
L 148.538075 135.405771 
L 148.785525 135.395858 
L 149.032975 136.106534 
L 149.280425 138.160945 
L 149.775326 138.778501 
L 150.022776 139.328544 
L 150.270226 137.455284 
L 150.517676 138.146409 
L 150.765126 139.584531 
L 151.012576 139.54211 
L 151.260026 140.772087 
L 151.507476 139.328314 
L 151.754927 141.270704 
L 152.249827 138.38691 
L 152.497277 138.267975 
L 152.744727 138.407029 
L 152.992177 138.064147 
L 153.239627 136.366411 
L 153.487077 136.725459 
L 153.734527 137.7051 
L 153.981978 136.859223 
L 154.229428 139.049001 
L 154.476878 137.336016 
L 154.724328 137.257625 
L 154.971778 138.794003 
L 155.219228 138.317046 
L 155.466678 138.127537 
L 155.714128 137.085883 
L 156.209029 142.188057 
L 156.456479 140.211719 
L 156.703929 141.214973 
L 156.951379 140.469004 
L 157.198829 140.399257 
L 157.446279 137.341402 
L 157.693729 136.956775 
L 157.941179 138.004539 
L 158.188629 141.917493 
L 158.43608 141.394417 
L 158.93098 138.757231 
L 159.17843 139.627896 
L 159.67333 142.544043 
L 159.92078 142.319792 
L 160.16823 139.759331 
L 160.41568 140.416344 
L 160.663131 141.45395 
L 160.910581 141.363625 
L 161.158031 140.978604 
L 161.405481 142.910652 
L 161.652931 142.90158 
L 161.900381 144.549058 
L 162.147831 145.17122 
L 162.395281 145.44887 
L 162.642731 144.416339 
L 162.890182 144.947962 
L 163.137632 143.814591 
L 163.385082 145.207917 
L 163.632532 145.528567 
L 163.879982 144.861957 
L 164.127432 145.227471 
L 164.374882 144.527959 
L 164.622332 145.046411 
L 164.869782 146.68308 
L 165.117233 147.135187 
L 165.612133 143.988933 
L 165.859583 145.81337 
L 166.107033 144.652605 
L 166.354483 145.491722 
L 166.601933 145.544312 
L 166.849383 146.479505 
L 167.096833 145.926367 
L 167.344284 146.569906 
L 167.591734 146.635087 
L 167.839184 145.762171 
L 168.086634 146.892018 
L 168.334084 148.983063 
L 168.581534 148.879743 
L 168.828984 147.783513 
L 169.076434 148.254067 
L 169.323884 147.888736 
L 169.818785 146.202176 
L 170.066235 146.837467 
L 170.313685 146.997663 
L 170.808585 146.666794 
L 171.303485 146.848622 
L 171.550935 146.639285 
L 171.798386 145.433562 
L 172.045836 146.697151 
L 172.293286 146.488051 
L 172.540736 148.265055 
L 172.788186 147.613654 
L 173.035636 147.710403 
L 173.283086 147.419561 
L 173.530536 147.740517 
L 173.777986 146.590609 
L 174.272887 147.987777 
L 174.767787 148.092569 
L 175.015237 147.626153 
L 175.262687 148.346627 
L 175.510137 147.834075 
L 175.757587 146.928657 
L 176.005037 148.067958 
L 176.252488 147.258653 
L 176.499938 148.865305 
L 176.747388 148.410553 
L 176.994838 148.967358 
L 177.242288 149.221557 
L 177.489738 149.822095 
L 177.737188 148.406232 
L 177.984638 148.806973 
L 178.232088 148.539764 
L 178.479539 149.07262 
L 178.974439 148.61838 
L 179.469339 149.440954 
L 179.716789 149.36957 
L 179.964239 150.013568 
L 180.211689 149.776241 
L 180.459139 150.325511 
L 180.70659 149.880589 
L 180.95404 151.162299 
L 181.20149 149.985682 
L 181.44894 151.13516 
L 181.69639 149.965057 
L 182.19129 149.636812 
L 182.43874 150.277934 
L 182.68619 150.130294 
L 182.933641 149.369379 
L 183.181091 148.998461 
L 183.675991 149.411097 
L 183.923441 150.464825 
L 184.170891 150.199464 
L 184.418341 150.562235 
L 184.665791 150.590935 
L 184.913241 151.04972 
L 185.160692 151.841912 
L 185.655592 151.175547 
L 185.903042 152.473986 
L 186.150492 151.552817 
L 186.397942 151.225341 
L 186.645392 151.595681 
L 186.892842 152.660834 
L 187.140292 151.773162 
L 187.387743 152.094372 
L 187.635193 152.17824 
L 187.882643 151.68895 
L 188.624993 152.286212 
L 188.872443 152.200918 
L 189.119893 152.280159 
L 189.367343 151.754625 
L 189.614794 152.272882 
L 190.109694 151.842046 
L 190.357144 152.141914 
L 190.604594 152.770268 
L 190.852044 152.207484 
L 191.099494 152.377094 
L 191.346944 152.188492 
L 191.594394 152.676249 
L 191.841845 151.731846 
L 192.336745 151.345152 
L 192.584195 152.186997 
L 192.831645 152.122104 
L 193.079095 151.359375 
L 193.326545 151.397048 
L 193.573995 151.085501 
L 194.068896 152.610465 
L 194.563796 151.755312 
L 194.811246 151.745505 
L 195.306146 151.233799 
L 196.295947 151.931251 
L 196.543397 150.713665 
L 196.790847 151.562487 
L 197.285747 150.850461 
L 197.533197 150.617443 
L 197.780647 151.580261 
L 198.028097 151.282821 
L 198.275547 151.651857 
L 198.522998 151.11709 
L 198.770448 151.018062 
L 199.017898 149.816142 
L 199.512798 151.54643 
L 199.760248 151.134366 
L 200.007698 150.083957 
L 200.255148 149.856048 
L 200.502598 150.084806 
L 200.997499 150.905625 
L 201.492399 150.592418 
L 201.739849 150.540132 
L 201.987299 150.835766 
L 202.234749 149.605204 
L 202.482199 150.155542 
L 202.729649 148.359728 
L 203.22455 149.470042 
L 203.472 148.774616 
L 203.71945 149.156396 
L 203.9669 149.200486 
L 204.21435 148.372847 
L 204.4618 148.781279 
L 204.70925 148.915586 
L 204.9567 148.736299 
L 205.20415 148.278376 
L 205.451601 150.048145 
L 205.699051 149.794805 
L 206.193951 147.006615 
L 206.441401 149.701961 
L 206.688851 148.584931 
L 206.936301 150.113674 
L 207.183751 149.148353 
L 207.431201 149.050289 
L 207.678652 149.482133 
L 207.926102 149.221502 
L 208.421002 149.716106 
L 208.915902 149.448828 
L 209.163352 148.575808 
L 209.658252 149.033621 
L 209.905703 149.043221 
L 210.153153 148.766445 
L 210.400603 150.10204 
L 210.648053 149.976308 
L 210.895503 149.01284 
L 211.390403 150.415562 
L 211.637853 150.191345 
L 211.885303 149.765998 
L 212.380204 151.094122 
L 212.627654 150.749297 
L 212.875104 150.748543 
L 213.122554 150.552951 
L 213.370004 150.811243 
L 213.617454 150.267491 
L 213.864904 150.78941 
L 214.112354 151.586957 
L 214.359805 150.325004 
L 214.607255 151.032796 
L 214.854705 150.88367 
L 215.102155 150.884052 
L 215.349605 151.261011 
L 215.597055 150.707683 
L 215.844505 150.648162 
L 216.091955 149.982535 
L 216.339405 150.220711 
L 216.586856 150.660541 
L 216.834306 150.245039 
L 217.081756 151.090624 
L 217.329206 151.255264 
L 217.576656 150.92556 
L 217.824106 151.095426 
L 218.071556 151.622911 
L 218.319006 151.330097 
L 218.566456 151.27642 
L 218.813907 151.926709 
L 219.061357 151.644614 
L 219.308807 151.748004 
L 219.556257 151.589741 
L 219.803707 151.096936 
L 220.051157 151.232504 
L 220.298607 152.274212 
L 220.546057 151.431557 
L 220.793507 152.15493 
L 221.040958 150.750337 
L 221.288408 151.642762 
L 221.535858 152.003527 
L 221.783308 151.370928 
L 222.030758 151.81159 
L 222.773108 152.347011 
L 223.020558 152.287551 
L 223.268009 152.792889 
L 223.515459 152.330353 
L 223.762909 152.840892 
L 224.010359 152.952117 
L 224.257809 152.415944 
L 224.505259 152.560223 
L 224.752709 151.791173 
L 225.000159 151.744005 
L 225.247609 151.92552 
L 225.49506 151.236089 
L 225.74251 151.001596 
L 225.98996 152.275131 
L 226.23741 151.230055 
L 226.97976 152.57704 
L 227.47466 151.791563 
L 227.722111 152.511252 
L 227.969561 151.929362 
L 228.217011 152.536765 
L 228.464461 151.959364 
L 228.711911 152.067056 
L 228.959361 152.043511 
L 229.454261 152.304802 
L 229.701711 151.700389 
L 230.196612 151.287794 
L 230.691512 152.210526 
L 230.938962 152.047336 
L 231.186412 152.215515 
L 231.433862 151.418016 
L 231.681312 151.783619 
L 232.176213 151.755368 
L 232.423663 152.372138 
L 232.918563 152.398249 
L 233.413463 152.143606 
L 233.660913 152.661245 
L 233.908363 152.418168 
L 234.155813 151.076607 
L 234.403264 152.230132 
L 234.650714 152.254543 
L 234.898164 152.085501 
L 235.145614 152.097016 
L 235.640514 151.575627 
L 236.135414 151.848856 
L 236.382864 151.953318 
L 236.630315 152.623378 
L 237.125215 151.842257 
L 237.372665 152.267785 
L 237.867565 152.143958 
L 238.115015 150.987889 
L 238.609915 151.975647 
L 238.857366 151.998391 
L 239.104816 151.335571 
L 239.352266 151.682935 
L 239.599716 152.632733 
L 239.847166 152.19404 
L 240.589516 151.946123 
L 240.836966 152.200519 
L 241.084417 152.193347 
L 241.331867 151.984494 
L 241.826767 152.365496 
L 242.074217 152.266247 
L 242.321667 151.934436 
L 242.569117 152.40168 
L 242.816567 152.065543 
L 243.064017 151.446763 
L 243.311468 151.828722 
L 243.558918 151.947018 
L 243.806368 152.448695 
L 244.301268 151.506004 
L 244.548718 151.857779 
L 244.796168 151.871857 
L 245.043618 151.079205 
L 245.291068 151.507201 
L 245.538519 151.45044 
L 245.785969 151.647678 
L 246.033419 151.448021 
L 246.280869 151.495779 
L 246.528319 150.817983 
L 246.775769 151.706664 
L 247.023219 151.308106 
L 247.270669 151.276547 
L 247.518119 151.5955 
L 247.76557 151.62933 
L 248.01302 151.070949 
L 248.26047 151.645706 
L 248.50792 151.69572 
L 249.00282 151.149644 
L 249.25027 151.458323 
L 249.49772 151.46821 
L 249.74517 152.024571 
L 249.992621 152.047261 
L 250.240071 151.13832 
L 250.487521 151.604247 
L 250.734971 151.562435 
L 250.982421 151.300639 
L 251.229871 151.701181 
L 251.477321 151.454309 
L 251.724771 151.537243 
L 251.972221 151.037532 
L 252.219672 151.344607 
L 252.467122 151.194195 
L 252.714572 151.298938 
L 253.209472 151.177206 
L 253.456922 151.24606 
L 253.951822 151.801094 
L 254.199272 151.715007 
L 254.446723 151.495821 
L 254.694173 151.575049 
L 254.941623 152.208455 
L 255.189073 151.707065 
L 255.436523 151.726826 
L 255.683973 151.988182 
L 255.931423 152.692704 
L 256.178873 152.089559 
L 256.673774 152.427433 
L 256.921224 152.218327 
L 257.168674 152.372906 
L 257.416124 152.029724 
L 257.663574 152.286971 
L 257.911024 151.970467 
L 258.158474 152.555662 
L 258.405924 152.245332 
L 258.900825 152.541199 
L 259.148275 151.979995 
L 259.395725 152.520662 
L 259.643175 152.584042 
L 259.890625 152.14573 
L 260.138075 152.190755 
L 260.385525 151.690852 
L 260.632975 152.114592 
L 260.880425 152.29273 
L 261.375326 152.107116 
L 261.622776 152.648587 
L 261.870226 152.284687 
L 262.365126 152.570828 
L 262.612576 151.94545 
L 262.860026 152.373726 
L 263.354927 152.544228 
L 263.602377 152.822214 
L 264.097277 152.090089 
L 264.344727 152.535167 
L 264.839627 152.221624 
L 265.087077 152.436898 
L 265.334527 152.35947 
L 265.829428 152.520215 
L 266.076878 153.016444 
L 266.324328 151.731253 
L 266.571778 152.950878 
L 266.819228 152.456644 
L 267.314128 152.995511 
L 267.561578 152.141711 
L 267.809029 152.638712 
L 268.056479 152.800987 
L 268.551379 152.785811 
L 268.798829 152.008473 
L 269.046279 152.737062 
L 269.293729 152.400565 
L 269.541179 152.305675 
L 269.788629 151.975513 
L 270.03608 152.573437 
L 270.28353 151.750127 
L 270.53098 152.303332 
L 270.77843 148.524838 
L 271.02588 151.957175 
L 271.27333 151.768497 
L 271.52078 151.228879 
L 271.76823 149.876511 
L 272.01568 150.908245 
L 272.263131 150.634714 
L 272.510581 150.781189 
L 272.758031 151.133643 
L 273.005481 150.985306 
L 273.252931 151.421726 
L 273.500381 151.07346 
L 273.995281 151.445347 
L 274.242731 151.544725 
L 274.490182 151.284326 
L 274.737632 151.233488 
L 275.232532 152.068305 
L 275.479982 151.888559 
L 275.727432 152.299186 
L 275.974882 152.396925 
L 276.222332 152.804566 
L 276.469782 151.928435 
L 276.964683 151.75361 
L 277.212133 152.006023 
L 277.459583 152.058703 
L 277.707033 151.994579 
L 277.954483 151.590229 
L 278.449383 151.647107 
L 278.696833 151.896192 
L 278.944284 151.728772 
L 279.439184 151.971596 
L 279.686634 151.477873 
L 280.181534 152.194692 
L 280.923884 152.161486 
L 281.171335 151.747277 
L 281.418785 151.809392 
L 281.666235 152.215417 
L 281.913685 152.396104 
L 282.161135 152.099389 
L 282.408585 152.378092 
L 283.150935 152.240698 
L 283.398386 151.902568 
L 283.645836 152.467766 
L 283.893286 152.124655 
L 284.140736 152.70934 
L 284.388186 152.230334 
L 284.635636 152.155856 
L 284.883086 152.355853 
L 285.130536 152.094614 
L 285.377986 152.597834 
L 285.625437 152.284626 
L 285.872887 151.680398 
L 286.120337 152.298811 
L 286.367787 152.390976 
L 286.615237 152.345511 
L 286.862687 151.894844 
L 287.110137 151.847075 
L 287.357587 152.100982 
L 287.605037 151.939378 
L 287.852488 152.30459 
L 288.347388 152.323955 
L 288.594838 151.872378 
L 288.842288 152.179649 
L 289.089738 152.235323 
L 289.337188 151.742924 
L 289.584638 151.994381 
L 289.832088 151.714282 
L 290.079539 152.59086 
L 290.326989 152.371201 
L 290.574439 152.410087 
L 290.821889 151.979833 
L 291.069339 152.13412 
L 291.564239 151.953103 
L 291.811689 152.663517 
L 292.059139 152.850887 
L 292.30659 152.335265 
L 292.55404 152.093904 
L 292.80149 152.09731 
L 293.04894 151.861739 
L 293.29639 152.22775 
L 293.54384 152.143963 
L 293.79129 151.920261 
L 294.03874 152.292448 
L 294.533641 151.608838 
L 294.781091 151.884717 
L 295.028541 151.948034 
L 295.523441 151.885639 
L 295.770891 151.98697 
L 296.018341 151.792668 
L 296.265791 151.911078 
L 296.513241 151.859503 
L 297.008142 151.98688 
L 297.255592 152.018334 
L 297.503042 152.415296 
L 297.997942 151.914235 
L 298.245392 151.89707 
L 298.740292 152.22128 
L 299.730093 151.399755 
L 299.977543 152.082493 
L 300.224993 151.858426 
L 300.472443 151.14337 
L 300.719893 151.339535 
L 300.967343 151.059344 
L 301.214794 151.37599 
L 301.957144 151.377481 
L 302.204594 151.680836 
L 302.699494 151.543694 
L 302.946944 150.926786 
L 303.441845 151.767019 
L 303.689295 151.616761 
L 303.936745 151.706296 
L 304.184195 151.076738 
L 304.431645 151.587845 
L 304.679095 151.442994 
L 304.926545 151.430316 
L 305.173995 151.547727 
L 305.421445 151.213943 
L 305.668896 151.582079 
L 305.916346 151.353998 
L 306.411246 151.507801 
L 306.906146 151.177908 
L 307.153596 151.384978 
L 307.895947 151.092115 
L 308.143397 151.176657 
L 308.390847 151.640328 
L 308.885747 151.604892 
L 309.133197 151.570655 
L 309.380647 151.945732 
L 309.875547 151.938915 
L 310.617898 151.205932 
L 311.112798 151.191742 
L 311.360248 151.686735 
L 311.607698 151.613083 
L 311.855148 151.852518 
L 312.102598 151.679496 
L 312.597499 152.207215 
L 314.082199 151.367225 
L 314.329649 151.667476 
L 314.82455 151.296849 
L 315.072 151.849446 
L 315.31945 151.805784 
L 315.5669 151.328364 
L 315.81435 151.674293 
L 316.0618 151.743831 
L 316.30925 152.042436 
L 316.5567 151.830819 
L 316.80415 151.370385 
L 317.299051 151.709383 
L 317.546501 151.443255 
L 317.793951 151.744608 
L 318.041401 151.368646 
L 318.288851 151.488061 
L 318.536301 151.828688 
L 318.783751 151.146687 
L 319.031201 151.689779 
L 319.278652 151.498835 
L 319.773552 151.770987 
L 320.021002 151.543286 
L 320.268452 150.945401 
L 320.515902 151.778396 
L 320.763352 151.49887 
L 321.258252 151.858059 
L 321.753153 151.134675 
L 322.000603 151.486843 
L 322.248053 151.396916 
L 322.495503 151.719428 
L 322.742953 151.424326 
L 322.990403 151.788686 
L 323.237853 151.564222 
L 323.485303 151.705691 
L 323.732754 151.996654 
L 323.980204 151.92431 
L 324.227654 151.704387 
L 324.475104 152.328413 
L 324.970004 152.27705 
L 325.217454 151.88783 
L 325.959805 151.92844 
L 326.207255 152.307681 
L 326.702155 152.183362 
L 327.197055 152.189478 
L 327.444505 152.038944 
L 327.691955 152.635119 
L 327.939405 152.101613 
L 328.186856 151.938368 
L 328.434306 152.079164 
L 328.681756 151.71079 
L 328.929206 151.797494 
L 329.176656 151.646745 
L 329.424106 152.143108 
L 329.671556 151.99021 
L 329.919006 152.18414 
L 330.166456 152.22808 
L 330.661357 151.906362 
L 330.908807 151.692709 
L 331.156257 151.910702 
L 331.403707 151.764202 
L 331.898607 151.699157 
L 332.146057 152.14054 
L 332.393507 151.37151 
L 332.888408 151.766142 
L 333.383308 151.713636 
L 333.630758 151.875768 
L 333.878208 151.39868 
L 334.125658 151.225943 
L 334.373108 151.535501 
L 334.620558 151.645419 
L 334.868009 151.240036 
L 335.362909 151.689344 
L 336.600159 151.53041 
L 336.847609 151.307105 
L 337.09506 151.856963 
L 337.58996 151.503902 
L 337.83741 151.979471 
L 338.08486 151.697348 
L 338.33231 151.934772 
L 338.57976 151.508816 
L 338.82721 152.151504 
L 339.07466 151.747737 
L 339.322111 151.834478 
L 339.569561 152.265236 
L 339.817011 151.941584 
L 340.064461 151.934039 
L 340.311911 151.171931 
L 340.559361 151.802155 
L 340.806811 152.066033 
L 341.301711 151.545989 
L 341.796612 151.575974 
L 342.044062 151.873294 
L 342.291512 151.918905 
L 342.538962 151.736145 
L 342.786412 151.989589 
L 343.033862 151.574647 
L 343.281312 151.879342 
L 344.023663 151.910117 
L 344.271113 151.70139 
L 344.518563 151.937435 
L 344.766013 152.009852 
L 345.013463 151.533277 
L 345.508363 152.084454 
L 345.755813 151.590728 
L 346.250714 152.446118 
L 346.745614 151.724952 
L 347.240514 152.141755 
L 347.487964 151.898353 
L 347.735414 152.1334 
L 347.982864 152.032246 
L 348.230315 152.398274 
L 348.477765 151.485606 
L 348.725215 151.919006 
L 348.972665 151.88307 
L 349.220115 151.55212 
L 349.467565 151.715725 
L 349.715015 152.216185 
L 350.209915 151.526062 
L 350.457366 151.839099 
L 350.704816 152.344255 
L 350.952266 152.354418 
L 351.199716 151.937689 
L 351.447166 151.854042 
L 351.942066 152.403465 
L 352.189516 151.928993 
L 352.931867 152.361175 
L 353.426767 152.27399 
L 353.674217 152.385159 
L 353.921667 151.892379 
L 354.664017 152.244459 
L 354.911468 151.72125 
L 355.158918 152.643585 
L 355.406368 152.199328 
L 355.653818 152.058942 
L 355.901268 152.411634 
L 356.396168 151.943532 
L 356.643618 151.985253 
L 357.138519 151.866921 
L 357.385969 151.978894 
L 357.633419 152.516977 
L 357.880869 152.155609 
L 358.128319 152.389905 
L 358.375769 152.072178 
L 358.623219 152.703306 
L 358.870669 152.95425 
L 359.118119 152.619859 
L 359.61302 152.332556 
L 360.10792 152.769971 
L 360.60282 152.24283 
L 361.09772 152.833334 
L 361.34517 152.80824 
L 361.592621 152.291823 
L 361.840071 152.833655 
L 362.334971 152.210842 
L 362.829871 152.278928 
L 363.324771 152.356118 
L 363.572221 152.226534 
L 363.819672 152.465522 
L 364.067122 152.474592 
L 364.314572 152.221023 
L 364.562022 152.302501 
L 364.809472 152.05563 
L 365.304372 152.459694 
L 365.551822 152.101627 
L 365.799272 152.179048 
L 366.046723 152.103387 
L 366.294173 152.219353 
L 366.541623 152.510258 
L 366.789073 152.273396 
L 367.036523 152.398583 
L 367.531423 152.125431 
L 367.778873 152.171389 
L 368.026323 151.970359 
L 368.273774 152.253858 
L 368.521224 152.200606 
L 368.768674 152.397954 
L 369.016124 152.317683 
L 369.263574 152.115818 
L 369.758474 152.208094 
L 370.005924 151.816096 
L 370.253374 152.263418 
L 370.500825 152.06862 
L 370.748275 152.056638 
L 370.995725 152.361283 
L 371.243175 152.3193 
L 371.490625 151.907125 
L 371.738075 152.04794 
L 371.985525 152.353644 
L 372.232975 152.087623 
L 372.480425 152.359963 
L 372.727876 152.294126 
L 372.975326 152.614881 
L 373.222776 152.20847 
L 373.470226 152.351788 
L 373.717676 152.690721 
L 374.460026 151.781281 
L 374.954927 152.27773 
L 375.449827 151.806116 
L 375.697277 152.353814 
L 375.944727 151.890548 
L 376.192177 152.196915 
L 376.439627 151.925702 
L 376.934527 151.948349 
L 377.429428 152.060363 
L 377.676878 152.072341 
L 378.171778 152.921489 
L 378.666678 152.006672 
L 378.914128 152.520321 
L 379.161578 152.654111 
L 379.409029 152.500869 
L 379.656479 151.963768 
L 379.903929 151.764147 
L 380.151379 152.336932 
L 380.398829 151.989874 
L 380.893729 152.021301 
L 381.141179 152.29921 
L 381.388629 152.317879 
L 381.63608 152.627305 
L 382.13098 152.462779 
L 382.37843 152.18155 
L 382.62588 152.654229 
L 382.87333 152.367052 
L 383.12078 152.439632 
L 383.61568 152.247902 
L 383.863131 152.307977 
L 384.110581 152.507178 
L 384.358031 152.42275 
L 384.852931 152.686774 
L 385.100381 152.495383 
L 385.347831 152.551822 
L 385.595281 152.895301 
L 385.842731 152.279384 
L 386.090182 152.848113 
L 386.337632 152.753765 
L 386.585082 152.488698 
L 386.832532 152.949287 
L 387.079982 152.571899 
L 387.327432 152.693882 
L 387.574882 152.64935 
L 387.822332 152.353643 
L 388.069782 152.669361 
L 388.317233 152.368571 
L 388.812133 152.843801 
L 389.059583 152.570692 
L 389.554483 152.54439 
L 389.801933 152.787501 
L 390.544284 152.488456 
L 391.286634 153.162053 
L 391.534084 152.986459 
L 391.781534 152.455687 
L 392.028984 153.06156 
L 392.276434 152.777063 
L 392.523884 152.756131 
L 392.771335 153.00796 
L 393.266235 152.882425 
L 393.513685 152.355673 
L 393.761135 152.493841 
L 394.256035 153.210481 
L 394.750935 153.058307 
L 395.245836 152.955914 
L 395.493286 152.74624 
L 395.988186 153.027155 
L 396.235636 152.504372 
L 396.483086 152.859766 
L 397.225437 153.041754 
L 397.472887 152.541584 
L 397.720337 152.417945 
L 397.967787 152.832131 
L 398.215237 152.925445 
L 398.462687 152.586765 
L 398.957587 153.048029 
L 399.452488 152.626115 
L 399.947388 152.936892 
L 400.194838 152.683649 
L 400.442288 152.911091 
L 400.689738 152.363894 
L 400.937188 153.042916 
L 401.184638 152.990963 
L 401.432088 152.506209 
L 401.679539 152.774364 
L 401.926989 152.52135 
L 402.421889 152.919921 
L 402.669339 152.54567 
L 402.916789 152.87646 
L 403.164239 152.736383 
L 403.411689 153.032834 
L 403.659139 153.108853 
L 403.90659 152.820255 
L 404.40149 152.876966 
L 404.64894 153.321299 
L 404.89639 152.960797 
L 405.14384 152.98893 
L 405.39129 153.202848 
L 406.628541 152.827884 
L 406.875991 153.304688 
L 407.123441 153.046339 
L 407.370891 153.28803 
L 407.618341 153.168489 
L 407.865791 152.752113 
L 408.113241 153.269234 
L 408.360692 153.139193 
L 408.608142 152.812752 
L 409.350492 152.878505 
L 409.597942 153.041601 
L 409.845392 153.015541 
L 410.092842 153.262489 
L 410.587743 152.676142 
L 410.835193 153.009325 
L 411.082643 152.575587 
L 411.577543 152.872476 
L 411.824993 152.953163 
L 412.319893 152.705524 
L 412.567343 152.7006 
L 412.814794 153.317643 
L 413.062244 153.208254 
L 413.309694 152.574833 
L 413.557144 153.190572 
L 414.052044 153.272659 
L 414.794394 153.167297 
L 415.041845 153.395762 
L 415.289295 152.937887 
L 415.536745 153.385975 
L 416.279095 153.064183 
L 417.516346 153.346452 
L 417.763796 152.849626 
L 418.011246 153.348604 
L 418.258696 153.083616 
L 418.506146 153.063849 
L 419.248496 153.460508 
L 419.495947 153.094293 
L 419.743397 153.305938 
L 419.990847 153.136372 
L 420.485747 153.354174 
L 420.733197 153.002398 
L 420.980647 152.853821 
L 421.228097 153.119664 
L 421.722998 152.353978 
L 421.970448 152.973688 
L 422.217898 152.615818 
L 422.465348 152.885859 
L 422.960248 153.080894 
L 423.207698 152.475642 
L 423.702598 153.111158 
L 423.950049 152.834946 
L 424.444949 153.084885 
L 424.939849 153.287478 
L 425.187299 152.899149 
L 425.682199 152.909204 
L 425.929649 152.915387 
L 426.1771 153.399765 
L 426.42455 153.2647 
L 426.672 152.885833 
L 426.91945 153.286273 
L 427.1669 152.630615 
L 427.41435 153.617197 
L 427.6618 153.268812 
L 427.90925 153.215023 
L 428.1567 153.590197 
L 428.40415 153.722517 
L 428.651601 152.92342 
L 428.899051 153.482382 
L 429.146501 152.757448 
L 429.393951 152.935928 
L 429.641401 153.25308 
L 430.383751 153.696591 
L 430.878652 154.158429 
L 431.126102 153.541019 
L 431.373552 153.952786 
L 431.868452 153.701989 
L 432.115902 153.335836 
L 432.363352 153.582743 
L 432.858252 153.377643 
L 433.353153 153.699386 
L 434.342953 153.434308 
L 434.590403 153.758098 
L 434.837853 153.542321 
L 435.580204 153.698703 
L 436.322554 153.253953 
L 436.570004 153.498585 
L 437.064904 153.51771 
L 437.312354 153.175226 
L 437.559805 153.628483 
L 438.302155 153.407202 
L 439.044505 153.88538 
L 439.291955 154.079353 
L 439.539405 153.52271 
L 439.786856 154.142258 
L 440.034306 153.775613 
L 440.529206 153.691069 
L 440.776656 153.250884 
L 441.024106 153.65295 
L 441.271556 153.240823 
L 441.519006 153.363758 
L 441.766456 153.665132 
L 442.261357 153.547324 
L 442.508807 153.727648 
L 442.756257 153.437601 
L 443.003707 153.591748 
L 443.251157 153.20177 
L 443.498607 153.62279 
L 443.746057 153.613591 
L 443.993507 153.297419 
L 444.240958 153.498631 
L 444.488408 153.269644 
L 444.735858 153.50599 
L 444.983308 153.039009 
L 445.230758 153.420922 
L 445.478208 153.227858 
L 445.725658 153.610846 
L 445.973108 153.223473 
L 446.220558 153.61341 
L 446.468009 153.395769 
L 446.715459 153.530347 
L 447.705259 153.527112 
L 448.200159 153.154881 
L 448.94251 152.945378 
L 449.18996 153.069234 
L 449.43741 152.895172 
L 449.68486 152.954893 
L 450.17976 153.231055 
L 450.42721 152.952159 
L 450.922111 152.711547 
L 451.417011 153.406709 
L 451.664461 153.080918 
L 451.911911 153.18338 
L 452.406811 153.677974 
L 452.901711 152.99729 
L 453.149162 153.279174 
L 453.396612 153.329818 
L 453.644062 153.070421 
L 453.891512 153.08816 
L 454.386412 153.589711 
L 454.633862 153.321398 
L 454.881312 153.503544 
L 455.128762 153.224771 
L 455.376213 153.148529 
L 455.623663 152.935954 
L 456.118563 152.90536 
L 456.366013 152.898195 
L 456.613463 153.30974 
L 457.355813 152.883784 
L 457.603264 153.524074 
L 457.850714 152.95302 
L 458.098164 153.130791 
L 458.345614 153.132953 
L 458.593064 152.785131 
L 458.840514 153.14254 
L 459.087964 152.821081 
L 459.335414 153.039831 
L 459.582864 152.69415 
L 459.830315 152.627309 
L 460.077765 153.250003 
L 460.325215 152.936387 
L 460.572665 152.939571 
L 460.820115 153.188603 
L 461.067565 152.91533 
L 461.315015 153.216382 
L 461.562465 152.989003 
L 462.057366 153.063867 
L 462.552266 153.033201 
L 463.047166 152.855591 
L 463.294616 153.06581 
L 463.789516 152.609432 
L 464.036966 152.722255 
L 464.284417 152.712911 
L 464.531867 152.263852 
L 464.779317 152.351952 
L 465.026767 152.726475 
L 465.521667 152.559372 
L 465.769117 152.80446 
L 466.016567 152.748245 
L 466.264017 152.450868 
L 466.511468 153.044907 
L 466.758918 152.88045 
L 467.006368 152.563451 
L 467.253818 152.538204 
L 467.501268 152.761004 
L 467.996168 152.56896 
L 468.243618 152.841062 
L 468.491068 152.781233 
L 468.985969 152.9799 
L 469.233419 152.620084 
L 469.728319 153.010949 
L 469.975769 152.620599 
L 470.223219 152.759768 
L 470.470669 152.341864 
L 470.718119 152.189816 
L 470.96557 152.232322 
L 471.21302 152.081882 
L 472.20282 152.850663 
L 472.45027 152.606638 
L 472.69772 153.012085 
L 473.192621 152.88128 
L 473.440071 152.959163 
L 473.687521 152.871557 
L 473.934971 152.470064 
L 474.182421 152.464329 
L 474.429871 152.338737 
L 474.924771 152.479379 
L 475.172221 152.213927 
L 475.419672 152.544605 
L 475.667122 152.586562 
L 475.914572 153.004439 
L 476.162022 152.78288 
L 476.409472 153.020857 
L 477.151822 152.70677 
L 477.399272 152.984976 
L 477.646723 152.76254 
L 477.894173 152.826365 
L 478.141623 152.65628 
L 478.636523 152.991104 
L 478.883973 152.631896 
L 479.131423 152.596405 
L 479.378873 152.930498 
L 479.626323 152.517437 
L 479.873774 152.876324 
L 480.121224 152.550556 
L 480.368674 152.638999 
L 480.616124 152.420192 
L 480.863574 152.832896 
L 481.111024 152.470918 
L 481.605924 152.852128 
L 482.100825 152.872129 
L 482.348275 152.538653 
L 482.595725 152.555474 
L 482.843175 152.251174 
L 483.090625 152.721179 
L 483.338075 152.507361 
L 483.832975 152.906622 
L 484.080425 152.66763 
L 484.327876 152.841139 
L 484.575326 152.36401 
L 484.822776 152.966757 
L 485.070226 152.657263 
L 485.317676 152.605128 
L 485.565126 152.158719 
L 486.307476 152.338716 
L 486.554927 152.60879 
L 486.802377 152.278133 
L 487.049827 152.293181 
L 487.297277 152.449185 
L 487.544727 152.372741 
L 487.792177 152.759631 
L 488.039627 152.645883 
L 488.287077 152.224476 
L 489.029428 152.548796 
L 489.524328 151.982525 
L 490.266678 152.47898 
L 490.514128 152.494222 
L 490.761578 152.725815 
L 491.009029 152.493639 
L 491.256479 152.061848 
L 491.503929 152.254294 
L 491.751379 152.296119 
L 491.998829 152.7446 
L 492.246279 152.275565 
L 492.493729 152.610069 
L 492.741179 152.205358 
L 493.23608 152.69851 
L 493.48353 152.198785 
L 493.73098 152.587381 
L 493.97843 152.149128 
L 494.47333 152.576665 
L 495.21568 152.436056 
L 495.463131 152.88295 
L 495.710581 152.221981 
L 495.958031 152.510987 
L 496.205481 152.402454 
L 496.452931 152.628892 
L 496.700381 152.14363 
L 497.195281 152.529065 
L 497.442731 152.720471 
L 497.690182 152.296181 
L 497.937632 152.8266 
L 498.432532 152.419394 
L 498.927432 152.76012 
L 499.174882 152.571466 
L 499.917233 152.618647 
L 500.164683 152.208865 
L 500.412133 152.447137 
L 500.659583 152.298292 
L 500.907033 152.981215 
L 501.154483 152.967968 
L 501.649383 152.377224 
L 502.144284 153.027993 
L 502.886634 152.76738 
L 503.134084 152.921496 
L 503.381534 152.738698 
L 503.628984 153.036872 
L 503.876434 153.108161 
L 504.123884 153.060822 
L 504.371335 152.601152 
L 505.113685 152.747112 
L 505.361135 152.716531 
L 505.608585 153.012263 
L 505.856035 152.629935 
L 506.598386 152.667877 
L 506.845836 153.147832 
L 507.093286 152.735324 
L 507.588186 152.967806 
L 507.835636 152.357874 
L 508.083086 152.647736 
L 508.825437 152.462185 
L 509.072887 152.903257 
L 509.320337 152.747007 
L 509.815237 153.245768 
L 510.310137 152.73189 
L 510.557587 152.930247 
L 510.805037 152.923364 
L 511.052488 152.433713 
L 511.299938 152.999371 
L 512.042288 152.56963 
L 512.289738 152.731361 
L 512.537188 152.510596 
L 512.784638 152.818962 
L 513.279539 152.617299 
L 513.526989 152.735365 
L 513.774439 153.219281 
L 514.269339 152.750068 
L 514.516789 152.958135 
L 514.764239 152.547586 
L 515.011689 152.98493 
L 515.50659 152.704469 
L 515.75404 152.928179 
L 516.00149 152.775105 
L 516.24894 153.097064 
L 516.49639 152.923451 
L 516.74384 153.025617 
L 516.99129 152.488737 
L 517.23874 152.887747 
L 517.981091 152.819609 
L 518.228541 153.15109 
L 518.475991 153.071453 
L 518.723441 153.128667 
L 518.970891 152.526117 
L 519.218341 152.965208 
L 519.465791 153.056647 
L 519.960692 152.859511 
L 520.208142 153.169108 
L 520.455592 152.854596 
L 520.703042 152.965462 
L 520.950492 153.246933 
L 521.692842 152.597443 
L 521.940292 153.072106 
L 522.187743 153.058405 
L 522.435193 153.428869 
L 522.682643 153.057914 
L 523.424993 153.264184 
L 523.672443 152.586297 
L 523.919893 153.072086 
L 524.167343 152.978036 
L 524.414794 153.071754 
L 524.662244 152.986843 
L 524.909694 152.765696 
L 525.157144 153.142829 
L 525.404594 153.101927 
L 525.652044 152.894442 
L 525.899494 152.991273 
L 526.146944 152.966906 
L 526.641845 153.370116 
L 526.889295 153.183243 
L 527.384195 153.074233 
L 527.631645 152.798613 
L 527.879095 152.6991 
L 528.126545 153.01464 
L 528.621445 152.977459 
L 528.868896 153.160749 
L 529.116346 152.71692 
L 529.363796 153.471434 
L 529.611246 153.133989 
L 529.858696 153.045937 
L 530.106146 153.261052 
L 530.353596 152.587301 
L 530.601046 152.887318 
L 530.848496 152.668606 
L 531.095947 152.753308 
L 531.343397 152.994019 
L 531.590847 152.666203 
L 531.838297 152.927863 
L 532.085747 152.971235 
L 532.333197 153.213757 
L 532.580647 153.022203 
L 532.828097 153.107955 
L 533.075547 152.91052 
L 533.570448 153.235324 
L 533.817898 152.815237 
L 534.065348 153.268668 
L 534.312798 153.062522 
L 534.560248 153.271535 
L 534.807698 153.21294 
L 535.055148 153.293363 
L 535.302598 152.817912 
L 535.797499 153.308658 
L 536.044949 153.210248 
L 536.292399 153.531624 
L 536.539849 153.226282 
L 536.787299 153.300823 
L 537.034749 153.085907 
L 537.529649 153.129707 
L 537.7771 152.765519 
L 538.02455 153.124876 
L 538.272 153.157065 
L 538.7669 152.807071 
L 539.2618 153.229667 
L 539.50925 153.646384 
L 540.00415 152.874685 
L 540.251601 153.225706 
L 540.499051 152.98024 
L 541.736301 153.004757 
L 541.983751 153.073459 
L 542.231201 153.008083 
L 542.478652 153.143841 
L 542.726102 153.123692 
L 542.973552 152.839986 
L 543.221002 152.810881 
L 543.468452 153.16607 
L 543.715902 152.675434 
L 544.458252 153.226441 
L 544.705703 153.035337 
L 544.953153 153.110795 
L 545.200603 153.37487 
L 545.448053 153.156258 
L 545.695503 153.473089 
L 545.942953 153.188348 
L 546.437853 152.928871 
L 546.685303 153.181566 
L 547.675104 153.003089 
L 547.922554 153.35545 
L 548.170004 153.063389 
L 548.417454 153.158357 
L 548.912354 152.632183 
L 549.159805 152.902688 
L 549.407255 152.829938 
L 549.654705 153.005102 
L 550.149605 152.965166 
L 550.644505 153.532232 
L 550.891955 152.966592 
L 551.386856 153.205076 
L 551.634306 153.335464 
L 551.881756 153.167209 
L 552.129206 153.571985 
L 552.376656 152.964393 
L 552.624106 153.269327 
L 552.871556 152.905449 
L 553.366456 153.090388 
L 553.613907 152.950711 
L 554.108807 153.303369 
L 554.356257 152.973792 
L 554.603707 153.268031 
L 554.851157 152.813376 
L 555.098607 153.108713 
L 555.346057 152.710011 
L 555.840958 153.340705 
L 556.088408 152.905419 
L 556.335858 153.0613 
L 556.830758 152.841023 
L 557.078208 152.898118 
L 557.573108 153.246035 
L 557.820558 152.769839 
L 558.068009 152.695096 
L 558.315459 152.764963 
L 558.562909 152.39008 
L 558.810359 152.987267 
L 559.552709 153.104748 
L 559.800159 152.770321 
L 560.047609 153.249002 
L 560.54251 152.665685 
L 560.78996 152.917079 
L 561.03741 152.964787 
L 561.28486 152.87184 
L 561.53231 153.12327 
L 561.77976 152.799086 
L 562.02721 153.154417 
L 562.27466 152.843733 
L 562.769561 152.592664 
L 563.017011 152.696293 
L 563.511911 153.360695 
L 563.759361 152.881871 
L 564.006811 153.049248 
L 564.254261 152.936847 
L 564.501711 152.611383 
L 564.749162 152.707404 
L 565.244062 152.702568 
L 565.491512 153.256971 
L 565.986412 152.883662 
L 566.728762 153.134753 
L 566.976213 152.838401 
L 567.223663 152.90419 
L 567.471113 152.767408 
L 567.718563 152.978625 
L 568.955813 152.948825 
L 569.203264 152.963451 
L 569.450714 152.791243 
L 569.698164 152.80905 
L 569.945614 152.948838 
L 570.193064 152.598478 
L 570.440514 152.762327 
L 570.687964 152.748911 
L 570.935414 152.964557 
L 571.182864 152.942624 
L 571.677765 152.403529 
L 571.925215 152.68585 
L 572.172665 152.308433 
L 572.420115 152.439407 
L 572.915015 152.426197 
L 573.409915 152.526403 
L 573.904816 152.95898 
L 574.152266 152.746198 
L 574.399716 152.952214 
L 574.647166 152.965839 
L 574.894616 152.474259 
L 575.142066 152.810738 
L 575.884417 152.666269 
L 576.131867 152.984317 
L 576.379317 152.828385 
L 576.626767 153.059015 
L 576.874217 152.730574 
L 577.121667 152.634475 
L 577.369117 152.692454 
L 577.616567 152.902485 
L 577.864017 152.785002 
L 578.358918 152.865364 
L 578.606368 152.851496 
L 578.853818 153.053359 
L 579.101268 152.829743 
L 579.348718 152.783747 
L 579.843618 153.03791 
L 580.338519 152.851973 
L 580.833419 153.179367 
L 581.328319 152.731101 
L 581.575769 152.630979 
L 581.823219 152.829446 
L 582.56557 152.82981 
L 582.81302 152.585722 
L 583.30792 152.964308 
L 583.55537 152.344311 
L 584.05027 152.562714 
L 584.29772 152.552387 
L 584.54517 152.787314 
L 585.040071 152.770034 
L 585.287521 152.705241 
L 585.782421 152.844899 
L 586.029871 152.975682 
L 586.277321 152.618686 
L 586.524771 152.556719 
L 586.772221 152.663535 
L 587.019672 152.546227 
L 587.267122 152.659156 
L 587.514572 152.649596 
L 588.009472 152.786461 
L 588.504372 152.67186 
L 588.751822 152.24592 
L 589.246723 153.072875 
L 589.494173 152.654502 
L 589.741623 152.45676 
L 590.236523 152.771429 
L 590.483973 152.515405 
L 590.978873 153.029308 
L 591.226323 152.760187 
L 591.473774 152.324726 
L 591.721224 152.749817 
L 591.968674 152.532191 
L 592.216124 152.605702 
L 592.463574 151.981683 
L 592.711024 152.323927 
L 592.958474 152.27737 
L 593.453374 151.709474 
L 593.948275 152.467967 
L 594.195725 152.084439 
L 594.443175 152.427392 
L 594.690625 152.303051 
L 595.432975 152.666625 
L 596.175326 152.362766 
L 596.670226 152.3776 
L 596.917676 152.207164 
L 597.165126 152.42045 
L 597.412576 151.952592 
L 597.660026 152.157412 
L 597.907476 152.164012 
L 598.154927 151.858353 
L 598.402377 152.397393 
L 598.897277 151.696431 
L 599.392177 152.269031 
L 599.887077 151.784508 
L 600.876878 152.381554 
L 601.124328 151.879642 
L 601.371778 151.698334 
L 601.619228 151.765961 
L 601.866678 152.176091 
L 602.114128 152.00678 
L 602.361578 152.269765 
L 602.609029 152.029628 
L 602.856479 152.277339 
L 603.103929 151.607627 
L 603.351379 152.195708 
L 603.598829 151.791559 
L 604.093729 152.208907 
L 604.341179 152.168915 
L 604.83608 152.381984 
L 605.33098 152.352853 
L 605.57843 152.655253 
L 606.07333 151.900295 
L 606.32078 152.256793 
L 606.56823 152.221954 
L 606.81568 151.803998 
L 607.063131 151.844901 
L 607.558031 152.36294 
L 607.805481 151.649839 
L 608.052931 152.013427 
L 608.300381 152.103184 
L 608.547831 151.975901 
L 608.795281 152.057677 
L 609.042731 151.843479 
L 609.537632 152.088555 
L 610.032532 151.690819 
L 610.527432 151.804324 
L 610.774882 152.131927 
L 611.022332 152.191485 
L 611.269782 151.864934 
L 611.517233 152.038517 
L 611.764683 152.007285 
L 612.012133 152.093773 
L 612.507033 151.863468 
L 612.754483 152.42396 
L 613.001933 151.9116 
L 613.249383 151.960493 
L 613.496833 151.762025 
L 613.744284 152.101428 
L 613.991734 151.965816 
L 614.734084 152.221244 
L 614.981534 152.041571 
L 615.228984 152.347016 
L 615.723884 151.878337 
L 615.971335 152.261693 
L 616.218785 151.890625 
L 616.713685 152.268305 
L 616.961135 152.368548 
L 617.456035 152.039753 
L 617.703485 152.359712 
L 617.950935 152.352037 
L 618.198386 152.461646 
L 618.445836 152.115622 
L 618.693286 152.110054 
L 618.940736 152.616013 
L 619.435636 152.253913 
L 619.930536 152.519589 
L 620.177986 152.387814 
L 620.425437 151.953805 
L 620.920337 152.320428 
L 621.167787 152.025934 
L 621.415237 152.155438 
L 621.662687 151.907515 
L 622.157587 152.087882 
L 622.405037 152.231269 
L 622.652488 151.989384 
L 623.394838 152.556758 
L 623.642288 151.605831 
L 623.889738 151.718238 
L 624.137188 152.413008 
L 624.384638 152.126724 
L 624.632088 152.021058 
L 624.879539 152.270397 
L 625.126989 152.10354 
L 625.126989 152.10354 
" clip-path="url(#paf8909d1cd)" style="fill: none; stroke: #1f77b4; stroke-width: 1.5; stroke-linecap: square"/>
   </g>
   <g id="line2d_10">
    <path d="M 117.854261 257.658289 
L 118.101711 262.165711 
L 118.349162 291.943205 
L 118.596612 296.03625 
L 119.091512 271.11781 
L 119.338962 227.057898 
L 119.586412 207.5709 
L 119.833862 203.182002 
L 120.081312 203.974264 
L 120.328762 211.845554 
L 120.823663 201.196422 
L 121.071113 195.910364 
L 121.318563 195.703205 
L 121.566013 192.753227 
L 121.813463 197.401453 
L 122.060913 172.184989 
L 122.308363 172.103903 
L 122.555813 169.627321 
L 122.803264 171.510379 
L 123.050714 166.488463 
L 123.298164 169.662831 
L 123.545614 167.766312 
L 123.793064 168.409239 
L 124.040514 168.391562 
L 124.287964 165.287616 
L 124.535414 166.881572 
L 124.782864 166.794035 
L 125.030315 165.094572 
L 125.277765 166.165148 
L 125.525215 165.451608 
L 125.772665 164.010929 
L 126.020115 163.25549 
L 126.267565 164.862355 
L 126.762465 163.485609 
L 127.257366 161.702402 
L 127.504816 160.420844 
L 127.752266 164.815428 
L 127.999716 163.952454 
L 128.247166 162.432016 
L 128.494616 163.099974 
L 128.742066 162.512979 
L 128.989516 162.265303 
L 129.236966 163.58709 
L 129.484417 161.410305 
L 129.731867 162.710343 
L 129.979317 161.565435 
L 130.226767 161.16584 
L 130.474217 161.539059 
L 130.721667 162.557454 
L 130.969117 161.171452 
L 131.216567 161.384449 
L 131.464017 160.92679 
L 131.711468 160.831448 
L 132.206368 161.328739 
L 132.453818 161.196216 
L 132.701268 161.194354 
L 132.948718 161.482621 
L 133.196168 161.201429 
L 133.443618 159.7919 
L 133.691068 160.884693 
L 133.938519 160.064798 
L 134.185969 160.550759 
L 134.680869 163.054654 
L 134.928319 160.376997 
L 135.175769 163.420413 
L 135.423219 160.81798 
L 135.670669 160.706714 
L 136.16557 162.97898 
L 136.41302 161.428681 
L 136.90792 160.440512 
L 137.15537 160.193846 
L 137.65027 162.631121 
L 138.14517 159.442412 
L 138.392621 161.834268 
L 138.640071 161.591212 
L 138.887521 160.94865 
L 139.134971 161.58259 
L 139.382421 161.661909 
L 139.629871 162.60633 
L 140.124771 161.360388 
L 140.619672 161.703732 
L 140.867122 160.981433 
L 141.362022 161.378065 
L 141.856922 159.80897 
L 142.599272 161.088266 
L 143.094173 161.389012 
L 143.341623 160.004467 
L 143.589073 161.423814 
L 143.836523 161.588497 
L 144.083973 160.70362 
L 144.331423 161.311015 
L 144.578873 162.288528 
L 144.826323 161.574032 
L 145.073774 162.933584 
L 145.321224 162.761098 
L 145.568674 161.823109 
L 145.816124 163.255695 
L 146.063574 162.48772 
L 146.311024 162.510713 
L 146.558474 162.845991 
L 146.805924 162.220304 
L 147.053374 162.518876 
L 147.548275 164.100062 
L 147.795725 161.71733 
L 148.043175 160.953926 
L 148.290625 162.188098 
L 148.785525 161.382858 
L 149.032975 162.157181 
L 149.280425 162.385889 
L 149.527876 160.804717 
L 149.775326 161.59229 
L 150.022776 161.478432 
L 150.270226 161.686822 
L 150.517676 162.509587 
L 150.765126 161.135064 
L 151.012576 161.60804 
L 151.507476 163.370876 
L 151.754927 161.109782 
L 152.002377 153.752785 
L 152.249827 154.884893 
L 152.497277 154.642952 
L 152.744727 156.15602 
L 152.992177 156.257159 
L 153.239627 154.933457 
L 153.487077 156.047679 
L 153.734527 156.254787 
L 153.981978 157.181505 
L 154.229428 156.53724 
L 154.476878 156.437924 
L 154.724328 156.791371 
L 154.971778 156.526013 
L 155.219228 156.899174 
L 155.466678 156.612682 
L 155.714128 155.971204 
L 155.961578 156.374247 
L 156.456479 156.676973 
L 156.703929 156.380954 
L 156.951379 156.744293 
L 157.198829 156.508302 
L 157.693729 156.742195 
L 157.941179 156.015266 
L 158.188629 156.667905 
L 158.68353 156.571618 
L 159.17843 157.011189 
L 159.67333 156.562438 
L 159.92078 157.11912 
L 160.16823 157.288222 
L 160.41568 156.918805 
L 160.663131 156.340906 
L 160.910581 157.068537 
L 161.158031 156.310565 
L 161.652931 155.798621 
L 161.900381 156.372213 
L 162.147831 156.620934 
L 162.642731 155.934658 
L 162.890182 155.997717 
L 163.137632 156.237635 
L 163.385082 156.252845 
L 163.632532 155.534283 
L 163.879982 156.106492 
L 164.127432 155.971055 
L 164.374882 155.262929 
L 164.622332 155.565248 
L 164.869782 155.523103 
L 165.117233 155.801346 
L 165.364683 156.566333 
L 165.612133 156.216639 
L 165.859583 156.133157 
L 166.107033 155.391582 
L 166.354483 155.66232 
L 166.601933 156.145638 
L 166.849383 155.672539 
L 167.096833 155.874484 
L 167.344284 155.743108 
L 167.591734 156.238413 
L 167.839184 155.989438 
L 168.334084 156.440338 
L 168.828984 155.672807 
L 169.076434 155.631246 
L 169.323884 155.827528 
L 169.571335 156.184732 
L 169.818785 155.693904 
L 170.066235 156.168457 
L 170.313685 156.299126 
L 170.561135 155.762169 
L 171.056035 156.752607 
L 171.303485 155.909613 
L 171.550935 156.437744 
L 172.045836 156.503263 
L 172.293286 156.287067 
L 172.540736 156.348738 
L 172.788186 156.141802 
L 173.035636 156.48928 
L 173.283086 155.958175 
L 173.530536 155.93672 
L 173.777986 156.125692 
L 174.025437 156.556642 
L 174.520337 155.853602 
L 174.767787 156.224566 
L 175.262687 155.977781 
L 175.510137 156.594103 
L 175.757587 155.667991 
L 176.252488 156.37959 
L 176.499938 156.129236 
L 176.747388 156.608581 
L 176.994838 155.852199 
L 177.242288 155.933841 
L 177.489738 155.823862 
L 177.737188 156.261902 
L 177.984638 156.217012 
L 178.232088 156.433896 
L 178.479539 156.219792 
L 178.726989 156.336659 
L 178.974439 156.096349 
L 179.221889 156.14078 
L 179.469339 156.421176 
L 180.211689 156.095558 
L 180.459139 157.212045 
L 180.70659 156.587763 
L 180.95404 156.30008 
L 181.20149 156.348145 
L 181.44894 156.214621 
L 181.69639 156.433314 
L 181.94384 156.347303 
L 182.43874 156.730407 
L 182.68619 156.311451 
L 182.933641 156.422137 
L 183.181091 156.363393 
L 183.428541 156.605773 
L 184.418341 156.104843 
L 184.665791 156.384421 
L 184.913241 156.488825 
L 185.160692 156.398473 
L 185.408142 156.77701 
L 185.903042 156.438086 
L 186.150492 156.575574 
L 186.397942 156.895077 
L 186.645392 156.586644 
L 186.892842 156.758388 
L 187.140292 156.656062 
L 187.387743 156.965966 
L 187.882643 156.474212 
L 188.130093 156.979237 
L 188.872443 156.78095 
L 189.119893 157.101613 
L 189.614794 156.551084 
L 190.109694 157.098151 
L 190.357144 156.494078 
L 190.604594 156.470489 
L 190.852044 156.88698 
L 191.099494 156.736063 
L 191.346944 156.7347 
L 191.594394 157.464837 
L 191.841845 157.245992 
L 192.089295 156.862099 
L 192.336745 156.935837 
L 192.584195 156.769388 
L 192.831645 157.033425 
L 193.079095 156.931994 
L 193.573995 157.300986 
L 193.821445 156.96563 
L 194.068896 157.144787 
L 194.563796 156.797355 
L 194.811246 157.022033 
L 195.058696 156.650283 
L 195.306146 156.643316 
L 195.553596 157.060201 
L 195.801046 156.635579 
L 196.295947 156.742267 
L 196.790847 156.37065 
L 197.038297 156.805563 
L 197.285747 157.010789 
L 197.533197 156.41239 
L 197.780647 156.30752 
L 198.028097 156.518043 
L 198.275547 154.394413 
L 198.522998 153.868807 
L 198.770448 154.745371 
L 199.017898 154.964107 
L 199.265348 155.882272 
L 200.007698 155.2932 
L 200.502598 155.89478 
L 200.750049 155.705633 
L 200.997499 155.735094 
L 201.244949 156.291481 
L 201.739849 155.58715 
L 201.987299 155.645655 
L 202.234749 153.043477 
L 202.482199 154.084499 
L 202.729649 154.435394 
L 202.9771 154.271206 
L 203.22455 154.535556 
L 203.472 155.139117 
L 203.71945 154.806182 
L 203.9669 155.013079 
L 204.21435 154.635972 
L 204.4618 155.060609 
L 204.70925 155.242783 
L 204.9567 154.710172 
L 205.20415 155.23496 
L 205.946501 154.912978 
L 206.193951 154.600437 
L 206.441401 154.867425 
L 206.688851 154.496443 
L 206.936301 155.003689 
L 207.431201 155.096093 
L 207.678652 154.993173 
L 207.926102 155.095595 
L 208.173552 155.423929 
L 208.915902 155.077029 
L 209.163352 155.272574 
L 209.410802 154.511676 
L 210.153153 155.833112 
L 210.400603 155.491651 
L 210.895503 155.26391 
L 211.142953 155.533926 
L 211.390403 155.532608 
L 211.637853 155.347737 
L 211.885303 155.905205 
L 212.380204 155.375726 
L 212.627654 155.269938 
L 212.875104 155.835803 
L 213.370004 155.153243 
L 214.112354 155.751553 
L 214.607255 155.403771 
L 214.854705 155.480373 
L 215.102155 155.800394 
L 215.349605 155.63988 
L 215.597055 156.279948 
L 215.844505 155.760215 
L 216.339405 155.431543 
L 217.081756 155.709706 
L 217.329206 155.219692 
L 217.576656 155.442174 
L 217.824106 155.890347 
L 218.319006 156.019055 
L 218.566456 155.491745 
L 219.308807 155.350416 
L 219.556257 155.346429 
L 219.803707 155.665712 
L 220.051157 155.630159 
L 220.298607 156.297099 
L 220.793507 154.636774 
L 221.040958 155.540049 
L 221.535858 155.596634 
L 221.783308 155.315462 
L 222.030758 155.58118 
L 222.278208 154.986037 
L 223.020558 155.552048 
L 224.010359 155.310278 
L 224.257809 155.408083 
L 224.505259 155.196475 
L 224.752709 155.538965 
L 225.000159 155.442706 
L 225.247609 155.091318 
L 225.49506 153.608385 
L 225.98996 154.714612 
L 226.23741 154.891346 
L 226.48486 154.903836 
L 226.73231 154.621878 
L 226.97976 155.658852 
L 227.22721 155.249258 
L 227.47466 155.713823 
L 227.722111 155.021825 
L 228.217011 155.150075 
L 228.464461 155.154992 
L 228.711911 155.317545 
L 228.959361 155.151199 
L 229.206811 155.264146 
L 229.454261 155.587818 
L 230.444062 155.074538 
L 230.691512 155.645964 
L 230.938962 155.841646 
L 231.433862 155.051135 
L 231.681312 155.565542 
L 231.928762 155.17962 
L 232.176213 155.260668 
L 232.423663 155.475398 
L 232.671113 155.165695 
L 232.918563 155.24334 
L 233.166013 155.072499 
L 233.413463 155.269896 
L 233.660913 154.818812 
L 233.908363 155.188621 
L 234.155813 155.108289 
L 234.403264 154.669359 
L 234.650714 155.152197 
L 234.898164 155.156871 
L 235.145614 154.848813 
L 235.393064 155.390366 
L 235.640514 155.278702 
L 235.887964 155.436354 
L 236.135414 155.245938 
L 236.382864 155.244318 
L 236.630315 154.974139 
L 236.877765 155.382234 
L 237.125215 155.004301 
L 237.372665 154.988872 
L 237.620115 155.262399 
L 238.115015 155.096087 
L 238.362465 154.837695 
L 238.857366 155.423065 
L 239.104816 155.028617 
L 239.352266 155.512282 
L 240.094616 154.743231 
L 240.342066 155.366563 
L 240.836966 155.130873 
L 241.084417 154.707484 
L 241.331867 154.986333 
L 241.826767 154.818989 
L 242.074217 155.046058 
L 242.321667 154.702934 
L 242.816567 155.039919 
L 243.064017 154.975369 
L 243.311468 155.334182 
L 243.558918 154.849228 
L 243.806368 155.037184 
L 244.053818 154.970428 
L 244.301268 155.284791 
L 244.548718 154.96514 
L 244.796168 155.305088 
L 245.043618 154.640369 
L 245.291068 155.181552 
L 246.033419 155.488724 
L 246.280869 154.730194 
L 247.023219 154.930242 
L 247.270669 155.111416 
L 247.518119 155.045237 
L 247.76557 155.248884 
L 248.01302 154.713462 
L 248.26047 154.878149 
L 248.50792 155.207209 
L 248.75537 154.545471 
L 249.25027 155.620813 
L 249.49772 155.274956 
L 249.74517 155.497977 
L 249.992621 155.070469 
L 250.240071 155.350361 
L 250.487521 154.947572 
L 250.734971 155.52839 
L 250.982421 155.107947 
L 251.229871 155.580213 
L 251.477321 155.139409 
L 251.724771 155.178293 
L 251.972221 155.381478 
L 252.219672 155.187845 
L 252.467122 155.494437 
L 252.714572 155.217882 
L 252.962022 155.285562 
L 253.209472 155.031702 
L 253.456922 155.296398 
L 253.704372 154.910107 
L 253.951822 155.275375 
L 254.199272 155.15732 
L 254.446723 155.31056 
L 254.941623 155.333147 
L 255.436523 154.904764 
L 255.683973 155.58039 
L 256.178873 155.156327 
L 256.426323 155.373803 
L 256.673774 155.249042 
L 256.921224 155.254083 
L 257.168674 155.55925 
L 257.416124 155.219763 
L 257.663574 155.562492 
L 257.911024 155.304436 
L 258.900825 155.284766 
L 259.395725 155.369909 
L 259.890625 155.254357 
L 260.138075 155.33416 
L 260.385525 155.032186 
L 260.880425 155.323129 
L 261.127876 155.204486 
L 261.375326 155.311507 
L 261.622776 155.125744 
L 262.365126 155.663483 
L 262.612576 155.077817 
L 262.860026 154.902083 
L 263.107476 155.02242 
L 263.354927 155.328052 
L 264.097277 155.428283 
L 264.344727 155.442195 
L 264.592177 155.699922 
L 265.334527 155.499555 
L 265.581978 155.280517 
L 266.076878 155.843515 
L 266.324328 154.460927 
L 266.571778 155.107892 
L 267.809029 155.057375 
L 268.056479 155.366999 
L 268.303929 155.084903 
L 268.551379 153.80868 
L 268.798829 154.421182 
L 269.046279 154.517176 
L 269.293729 154.371533 
L 269.541179 155.156259 
L 270.03608 155.151924 
L 270.28353 154.886121 
L 270.53098 155.168401 
L 270.77843 151.549215 
L 271.02588 153.671801 
L 271.27333 154.210377 
L 271.52078 153.137968 
L 271.76823 153.212823 
L 272.01568 153.538874 
L 272.263131 153.63788 
L 272.510581 153.866057 
L 272.758031 153.574882 
L 273.005481 153.807505 
L 273.252931 153.786339 
L 273.500381 153.559401 
L 273.747831 154.12274 
L 273.995281 153.933107 
L 274.242731 154.043313 
L 274.490182 153.748751 
L 274.737632 154.127582 
L 274.985082 154.275268 
L 275.232532 153.823059 
L 275.479982 153.913277 
L 275.727432 154.303842 
L 275.974882 154.969832 
L 276.222332 153.886911 
L 276.469782 153.764402 
L 276.964683 154.095029 
L 277.212133 153.892431 
L 277.459583 154.085215 
L 277.707033 153.970061 
L 277.954483 154.195834 
L 278.201933 154.003589 
L 278.449383 154.439732 
L 278.696833 154.185034 
L 278.944284 154.274745 
L 279.191734 154.164723 
L 279.439184 154.349258 
L 279.686634 154.215334 
L 279.934084 153.931444 
L 280.676434 154.356585 
L 280.923884 154.372823 
L 281.171335 154.028425 
L 281.418785 154.139414 
L 281.666235 154.375035 
L 282.161135 154.007671 
L 282.408585 154.379753 
L 282.656035 154.30798 
L 282.903485 153.920567 
L 283.150935 154.074949 
L 283.398386 154.48548 
L 283.645836 154.264881 
L 283.893286 154.224904 
L 284.140736 154.30137 
L 284.388186 153.986259 
L 285.130536 154.153079 
L 285.377986 154.133734 
L 285.625437 154.287122 
L 286.367787 154.271796 
L 286.615237 153.937811 
L 287.110137 154.089754 
L 287.357587 154.338696 
L 287.605037 153.865401 
L 287.852488 153.971171 
L 288.099938 153.877875 
L 289.089738 154.158169 
L 289.584638 153.920859 
L 289.832088 154.317894 
L 290.079539 154.224999 
L 290.326989 154.446094 
L 290.821889 154.076167 
L 291.316789 154.223886 
L 291.564239 153.940132 
L 291.811689 154.107708 
L 292.55404 154.023793 
L 293.04894 154.114796 
L 293.29639 153.951738 
L 293.54384 154.329505 
L 293.79129 154.126174 
L 294.533641 154.319701 
L 294.781091 154.315378 
L 295.028541 154.621295 
L 295.523441 153.964944 
L 296.018341 154.028827 
L 296.265791 154.227184 
L 297.503042 154.378203 
L 297.750492 154.049099 
L 297.997942 153.978356 
L 298.245392 154.58294 
L 298.492842 154.206178 
L 298.740292 154.275986 
L 298.987743 154.143732 
L 299.482643 154.376685 
L 299.730093 154.080599 
L 299.977543 154.252721 
L 300.472443 154.154387 
L 300.719893 153.922477 
L 300.967343 154.097532 
L 301.214794 154.597194 
L 301.462244 153.976399 
L 301.709694 154.136974 
L 301.957144 153.96186 
L 302.204594 154.141673 
L 302.452044 154.478791 
L 302.699494 154.129619 
L 303.194394 153.999698 
L 303.441845 154.097529 
L 303.689295 154.352394 
L 303.936745 154.116491 
L 304.679095 154.07981 
L 304.926545 154.264089 
L 305.173995 154.060622 
L 305.421445 154.013722 
L 305.668896 154.207735 
L 305.916346 153.979308 
L 306.163796 154.218602 
L 306.658696 154.080605 
L 306.906146 154.243596 
L 307.153596 153.864804 
L 308.143397 153.877679 
L 308.390847 153.959656 
L 308.638297 153.795453 
L 308.885747 153.773476 
L 309.133197 154.186488 
L 309.628097 153.700009 
L 310.122998 154.06566 
L 310.370448 153.754328 
L 310.617898 154.287848 
L 311.360248 153.849293 
L 311.855148 153.528761 
L 312.102598 153.87291 
L 312.350049 153.786487 
L 312.597499 153.579352 
L 312.844949 153.644116 
L 313.092399 153.925112 
L 313.339849 153.711868 
L 313.587299 153.664731 
L 314.082199 153.907606 
L 314.329649 153.79868 
L 314.5771 154.055372 
L 315.072 153.587292 
L 315.31945 153.925825 
L 315.5669 153.770486 
L 315.81435 153.886633 
L 316.0618 153.472232 
L 316.30925 154.056653 
L 316.5567 153.617917 
L 316.80415 153.571063 
L 317.299051 153.9403 
L 317.546501 153.841082 
L 318.041401 154.012851 
L 318.536301 153.814185 
L 318.783751 153.871481 
L 319.031201 153.812954 
L 319.278652 154.077296 
L 319.526102 153.678675 
L 319.773552 153.96379 
L 320.021002 153.987649 
L 320.268452 153.71852 
L 320.515902 153.826589 
L 320.763352 154.332645 
L 321.010802 153.935132 
L 321.258252 154.064574 
L 321.505703 153.981866 
L 322.000603 154.219335 
L 322.248053 154.053844 
L 323.237853 154.018075 
L 323.485303 153.842495 
L 323.732754 154.030466 
L 324.227654 154.052931 
L 324.475104 153.843973 
L 324.970004 153.90353 
L 325.217454 153.818086 
L 325.464904 154.2799 
L 325.959805 153.933575 
L 326.207255 154.300037 
L 326.454705 153.893896 
L 326.949605 154.058179 
L 327.197055 153.92214 
L 327.444505 154.22361 
L 327.939405 153.693224 
L 328.186856 153.719976 
L 328.681756 154.112372 
L 328.929206 153.760369 
L 329.176656 153.934932 
L 329.424106 153.758076 
L 329.671556 154.126527 
L 330.166456 153.698017 
L 330.908807 153.836213 
L 331.156257 153.927989 
L 331.403707 154.164977 
L 331.651157 154.133394 
L 331.898607 153.938669 
L 332.393507 154.558286 
L 332.640958 154.414128 
L 332.888408 154.028473 
L 333.135858 154.414489 
L 333.383308 154.491601 
L 333.630758 154.373761 
L 333.878208 153.969343 
L 334.125658 154.198198 
L 334.373108 153.895323 
L 334.620558 153.924063 
L 334.868009 154.150303 
L 335.610359 153.796347 
L 335.857809 153.902566 
L 336.105259 153.840236 
L 336.352709 154.118608 
L 336.600159 153.73167 
L 336.847609 153.699172 
L 337.58996 154.417767 
L 337.83741 153.697973 
L 338.08486 154.16362 
L 338.33231 153.967527 
L 338.57976 154.424971 
L 338.82721 154.075927 
L 339.07466 153.943741 
L 339.322111 154.111361 
L 339.569561 154.029278 
L 339.817011 154.3959 
L 340.064461 154.279221 
L 340.311911 153.731126 
L 340.559361 153.933458 
L 340.806811 153.759584 
L 341.054261 154.252961 
L 341.796612 154.214123 
L 342.044062 153.817382 
L 342.291512 153.954916 
L 342.538962 153.954131 
L 342.786412 154.139536 
L 343.033862 153.998398 
L 343.281312 154.01198 
L 343.528762 153.770395 
L 343.776213 153.984374 
L 344.023663 153.803639 
L 344.271113 153.896815 
L 344.518563 154.327526 
L 345.013463 154.01714 
L 345.260913 154.148716 
L 345.508363 154.020145 
L 345.755813 153.737345 
L 346.498164 154.160656 
L 346.745614 154.289256 
L 346.993064 154.099192 
L 347.487964 154.258271 
L 347.735414 154.43969 
L 347.982864 154.466777 
L 348.230315 154.188428 
L 348.477765 154.177265 
L 348.725215 153.911907 
L 348.972665 154.21176 
L 349.220115 153.868858 
L 349.715015 153.936139 
L 349.962465 153.989305 
L 350.209915 153.910832 
L 350.457366 154.05375 
L 350.704816 154.331082 
L 350.952266 154.389428 
L 351.199716 153.938845 
L 351.694616 154.264901 
L 351.942066 154.185355 
L 352.189516 153.866401 
L 352.436966 154.115681 
L 352.931867 154.051252 
L 353.426767 154.501722 
L 353.674217 154.195006 
L 353.921667 154.12441 
L 354.169117 154.291247 
L 354.416567 154.21853 
L 354.664017 154.024233 
L 354.911468 154.026906 
L 355.406368 154.571016 
L 356.148718 154.264473 
L 356.396168 153.853914 
L 356.643618 154.087683 
L 356.891068 154.514502 
L 357.138519 154.336722 
L 357.385969 153.90356 
L 357.880869 154.311913 
L 358.128319 154.234345 
L 358.375769 154.378542 
L 358.623219 154.14663 
L 358.870669 154.348093 
L 359.118119 154.146855 
L 359.36557 154.325467 
L 359.61302 154.251309 
L 359.86047 154.003232 
L 360.85027 154.103678 
L 361.09772 153.875189 
L 361.592621 154.247452 
L 361.840071 153.897624 
L 362.582421 153.909604 
L 362.829871 154.191593 
L 363.572221 154.095129 
L 363.819672 154.1144 
L 364.067122 153.94871 
L 364.809472 154.296575 
L 365.056922 154.075555 
L 365.304372 154.44911 
L 365.551822 154.356132 
L 365.799272 154.41537 
L 366.046723 154.055603 
L 366.541623 154.100535 
L 366.789073 154.232757 
L 367.036523 154.118349 
L 367.283973 154.138495 
L 367.531423 154.328127 
L 367.778873 153.934045 
L 368.026323 154.232494 
L 368.273774 154.254489 
L 368.521224 154.447165 
L 368.768674 154.444631 
L 369.016124 154.209224 
L 369.511024 154.089822 
L 369.758474 154.288049 
L 370.500825 154.007912 
L 370.995725 153.948876 
L 371.243175 154.078815 
L 371.738075 153.885951 
L 371.985525 154.219233 
L 372.232975 154.203418 
L 372.480425 154.057217 
L 372.727876 154.410819 
L 373.222776 154.002355 
L 373.470226 154.37376 
L 373.965126 154.106879 
L 374.212576 154.135913 
L 374.707476 154.319537 
L 375.449827 154.079798 
L 375.697277 154.40421 
L 375.944727 154.117763 
L 376.934527 154.326372 
L 377.181978 154.320393 
L 377.429428 154.110944 
L 377.676878 154.164353 
L 377.924328 154.637807 
L 378.171778 154.313117 
L 378.419228 154.253446 
L 378.914128 154.433177 
L 379.161578 154.015535 
L 379.409029 154.215634 
L 379.903929 153.984831 
L 380.151379 154.11794 
L 380.646279 154.046193 
L 381.63608 154.157147 
L 381.88353 154.329375 
L 382.13098 154.29765 
L 382.87333 153.914481 
L 383.12078 154.236359 
L 383.36823 154.010467 
L 383.863131 153.943755 
L 384.110581 153.53262 
L 384.358031 154.056023 
L 385.595281 153.909032 
L 385.842731 154.2921 
L 386.090182 153.614156 
L 386.585082 154.203688 
L 387.822332 153.864617 
L 388.317233 153.818541 
L 388.564683 153.670539 
L 388.812133 154.022802 
L 389.554483 153.789161 
L 390.791734 153.978781 
L 391.039184 154.234708 
L 391.781534 154.044837 
L 392.028984 153.792993 
L 392.276434 153.755277 
L 392.771335 154.220482 
L 393.018785 154.110407 
L 393.266235 153.783916 
L 393.513685 154.313478 
L 393.761135 153.969518 
L 394.008585 153.849672 
L 394.503485 154.113797 
L 394.750935 154.137897 
L 395.245836 153.730601 
L 395.493286 154.258245 
L 395.740736 153.954271 
L 396.235636 153.740594 
L 396.483086 154.018024 
L 396.977986 153.926222 
L 397.225437 154.145229 
L 397.472887 153.997193 
L 397.720337 154.056473 
L 398.215237 153.804752 
L 398.462687 154.092211 
L 398.710137 153.919203 
L 398.957587 154.010276 
L 399.452488 153.727286 
L 400.194838 153.840228 
L 400.442288 153.856192 
L 400.689738 153.619472 
L 400.937188 153.731829 
L 401.184638 153.699567 
L 401.432088 153.889863 
L 401.679539 153.784353 
L 401.926989 153.988048 
L 402.174439 153.608502 
L 402.669339 153.756962 
L 402.916789 153.648117 
L 403.164239 153.751202 
L 403.411689 154.048419 
L 403.659139 153.988363 
L 403.90659 153.535162 
L 404.64894 154.299353 
L 405.14384 153.766523 
L 405.39129 153.960111 
L 405.88619 153.809754 
L 406.133641 153.74915 
L 406.381091 153.937067 
L 406.628541 153.740406 
L 406.875991 153.839032 
L 407.123441 153.580448 
L 407.370891 153.682983 
L 407.618341 153.506394 
L 408.113241 153.783745 
L 408.360692 153.71797 
L 408.608142 153.786397 
L 408.855592 153.68383 
L 409.103042 153.854369 
L 409.350492 153.811334 
L 409.845392 153.474582 
L 410.092842 153.444142 
L 410.340292 153.585643 
L 410.587743 153.55147 
L 410.835193 153.852637 
L 411.082643 153.444372 
L 411.577543 153.799378 
L 411.824993 153.435373 
L 412.072443 153.565787 
L 412.319893 153.909216 
L 412.567343 153.591031 
L 412.814794 153.713839 
L 413.062244 153.515405 
L 413.309694 153.796574 
L 414.299494 153.78357 
L 414.546944 153.486434 
L 415.041845 153.660724 
L 415.289295 153.465208 
L 415.536745 153.628123 
L 416.279095 153.383135 
L 416.773995 153.437859 
L 417.021445 153.333022 
L 417.268896 153.601678 
L 417.763796 153.52113 
L 418.011246 153.540977 
L 418.258696 153.705811 
L 418.506146 153.506279 
L 418.753596 153.50767 
L 419.001046 153.394018 
L 419.248496 153.543582 
L 419.495947 153.396164 
L 419.990847 153.654618 
L 420.238297 153.638947 
L 420.485747 153.442629 
L 420.733197 153.612165 
L 420.980647 153.610306 
L 421.228097 153.750076 
L 421.475547 153.548167 
L 421.722998 153.495158 
L 421.970448 153.768391 
L 422.217898 153.635529 
L 422.712798 153.811356 
L 422.960248 153.571337 
L 423.207698 153.866926 
L 423.702598 153.612034 
L 424.197499 153.719393 
L 424.444949 153.746423 
L 424.692399 153.642421 
L 425.187299 154.113019 
L 425.682199 153.752669 
L 425.929649 153.838809 
L 426.672 153.70945 
L 427.1669 153.669421 
L 427.6618 153.643659 
L 427.90925 153.898688 
L 428.1567 153.619783 
L 428.651601 153.466474 
L 429.146501 153.827922 
L 429.393951 153.595058 
L 429.641401 153.638498 
L 429.888851 154.161071 
L 430.383751 153.911531 
L 430.631201 154.08234 
L 430.878652 153.722731 
L 431.621002 153.607553 
L 431.868452 153.951289 
L 432.363352 153.64361 
L 433.353153 153.947013 
L 433.848053 153.779647 
L 434.590403 153.916043 
L 434.837853 153.627443 
L 435.085303 153.815472 
L 435.332754 153.644593 
L 435.580204 153.704829 
L 435.827654 153.644729 
L 436.075104 153.784662 
L 436.322554 153.728161 
L 436.570004 153.813443 
L 436.817454 153.633944 
L 437.064904 153.934501 
L 437.312354 153.98363 
L 437.807255 153.604701 
L 438.054705 153.893512 
L 438.302155 153.675376 
L 438.797055 153.61956 
L 439.291955 153.661399 
L 439.539405 153.682053 
L 439.786856 153.895038 
L 440.034306 153.692404 
L 440.281756 153.69523 
L 440.529206 153.877967 
L 441.271556 153.783067 
L 441.766456 153.451278 
L 442.013907 153.740433 
L 442.261357 153.593752 
L 442.508807 153.708738 
L 443.251157 153.589259 
L 443.746057 153.892645 
L 443.993507 153.701044 
L 444.735858 154.094306 
L 445.230758 153.631876 
L 445.478208 153.821865 
L 445.725658 153.53313 
L 445.973108 153.837683 
L 446.220558 153.709512 
L 446.468009 153.976963 
L 446.715459 153.524268 
L 446.962909 153.851789 
L 447.457809 153.893796 
L 447.705259 153.564461 
L 447.952709 153.934477 
L 448.200159 153.87539 
L 448.447609 153.521523 
L 448.69506 153.617314 
L 449.18996 153.522105 
L 449.43741 153.570153 
L 449.68486 153.749106 
L 449.93231 153.732442 
L 450.17976 153.539779 
L 450.42721 153.519816 
L 450.67466 153.763688 
L 450.922111 153.385901 
L 451.169561 153.254838 
L 451.417011 153.64038 
L 451.664461 153.767238 
L 451.911911 153.311902 
L 452.654261 153.773653 
L 452.901711 153.54239 
L 453.149162 153.774382 
L 453.396612 153.551954 
L 453.644062 153.577954 
L 453.891512 153.823898 
L 454.138962 153.573428 
L 454.881312 153.566822 
L 455.128762 153.409663 
L 455.376213 153.558861 
L 455.871113 153.467655 
L 456.118563 153.786692 
L 456.613463 153.819304 
L 456.860913 153.526983 
L 457.108363 153.661894 
L 457.355813 153.626087 
L 457.603264 153.99085 
L 457.850714 153.611746 
L 458.098164 153.841844 
L 458.345614 153.630269 
L 458.593064 153.58926 
L 458.840514 153.714092 
L 459.087964 153.662656 
L 459.335414 153.788584 
L 459.582864 153.663854 
L 459.830315 153.927436 
L 460.077765 153.608622 
L 460.325215 153.84961 
L 460.572665 153.620663 
L 461.067565 153.708176 
L 461.315015 153.674792 
L 461.562465 153.822119 
L 461.809915 153.563004 
L 462.057366 153.67597 
L 463.047166 153.310989 
L 463.294616 153.617095 
L 463.542066 153.34086 
L 463.789516 153.515964 
L 464.531867 153.527073 
L 464.779317 153.295187 
L 465.026767 153.495705 
L 465.274217 153.364802 
L 466.016567 153.577266 
L 466.264017 153.386816 
L 466.511468 153.789625 
L 466.758918 153.215657 
L 467.006368 153.456652 
L 467.996168 153.732618 
L 468.243618 153.570805 
L 468.491068 153.745731 
L 468.738519 153.553034 
L 468.985969 153.72733 
L 469.233419 153.443527 
L 469.975769 153.486646 
L 470.223219 153.633082 
L 471.21302 153.150589 
L 471.95537 153.363028 
L 472.20282 153.441042 
L 472.45027 153.12213 
L 472.94517 153.345722 
L 473.192621 153.287108 
L 473.687521 153.394502 
L 474.182421 153.123854 
L 474.429871 153.29572 
L 474.677321 153.259546 
L 474.924771 153.414328 
L 475.172221 153.169864 
L 475.419672 153.589313 
L 475.667122 153.310722 
L 476.656922 153.074632 
L 477.151822 153.375424 
L 477.894173 153.39394 
L 478.389073 153.213101 
L 479.626323 153.305209 
L 479.873774 153.642875 
L 480.616124 153.219974 
L 480.863574 153.360109 
L 481.111024 153.268092 
L 481.853374 153.522112 
L 482.348275 153.304114 
L 482.595725 153.197294 
L 482.843175 153.353062 
L 483.090625 153.352243 
L 483.338075 153.514872 
L 483.585525 153.1508 
L 484.327876 153.42874 
L 485.070226 153.40628 
L 485.317676 153.325218 
L 485.565126 153.420448 
L 485.812576 153.689085 
L 486.060026 153.175583 
L 486.307476 153.295932 
L 486.802377 153.010928 
L 487.049827 153.158466 
L 487.297277 153.002519 
L 487.544727 153.103744 
L 487.792177 153.348791 
L 488.039627 153.414407 
L 488.287077 153.255084 
L 488.781978 153.55702 
L 489.029428 153.307669 
L 489.276878 153.471619 
L 489.524328 153.338908 
L 489.771778 153.489748 
L 490.019228 153.157198 
L 490.514128 153.229429 
L 490.761578 153.122373 
L 491.503929 153.335821 
L 491.998829 153.263609 
L 492.246279 153.523582 
L 492.988629 153.241465 
L 493.23608 153.352413 
L 493.73098 153.247114 
L 494.22588 153.578611 
L 494.96823 153.287029 
L 495.21568 153.597787 
L 495.463131 153.577999 
L 495.710581 153.228747 
L 496.452931 152.991536 
L 497.442731 153.0719 
L 497.690182 153.394673 
L 498.185082 153.122708 
L 498.432532 153.34781 
L 499.174882 153.193604 
L 499.422332 153.356206 
L 499.669782 153.101592 
L 499.917233 153.236333 
L 500.164683 153.241952 
L 500.412133 153.378006 
L 501.154483 153.300455 
L 501.401933 153.274422 
L 501.649383 153.362097 
L 501.896833 153.055824 
L 502.391734 153.123356 
L 502.886634 153.286312 
L 503.134084 153.241122 
L 503.381534 153.333852 
L 504.123884 153.077256 
L 504.866235 153.287651 
L 505.113685 153.119691 
L 505.361135 153.390178 
L 505.856035 153.555823 
L 506.103485 153.261305 
L 506.350935 153.269223 
L 506.598386 153.461192 
L 507.093286 153.349592 
L 507.340736 153.530363 
L 507.588186 153.374637 
L 507.835636 153.563108 
L 508.330536 153.151832 
L 509.072887 153.386099 
L 509.567787 153.173586 
L 510.310137 153.489755 
L 510.557587 153.506098 
L 510.805037 153.249463 
L 511.052488 153.668513 
L 511.299938 153.321028 
L 511.547388 153.375023 
L 511.794838 153.217508 
L 512.042288 153.438894 
L 512.289738 153.441465 
L 512.537188 153.299701 
L 512.784638 153.316906 
L 513.032088 153.16941 
L 513.279539 153.16602 
L 513.526989 153.378197 
L 513.774439 153.275509 
L 514.516789 153.432676 
L 514.764239 153.292636 
L 515.011689 153.28352 
L 515.259139 153.137678 
L 515.50659 153.15773 
L 516.00149 153.443877 
L 516.24894 153.151781 
L 516.49639 153.254116 
L 516.74384 153.060122 
L 517.48619 153.403341 
L 518.228541 153.441244 
L 518.475991 153.669271 
L 518.723441 153.293515 
L 519.218341 153.203355 
L 519.713241 153.108848 
L 520.208142 153.366188 
L 520.455592 153.078729 
L 520.703042 153.243851 
L 522.187743 153.305525 
L 522.930093 153.053216 
L 523.177543 153.320177 
L 523.424993 153.168925 
L 523.672443 153.240159 
L 524.167343 153.152692 
L 524.414794 153.280572 
L 524.662244 153.176477 
L 525.157144 153.427916 
L 525.404594 153.219656 
L 525.899494 153.25249 
L 526.394394 153.416147 
L 526.641845 153.240914 
L 527.136745 153.449765 
L 527.384195 153.267955 
L 527.631645 153.376127 
L 527.879095 153.200082 
L 528.621445 153.203108 
L 528.868896 153.334917 
L 529.116346 153.315177 
L 529.363796 153.500635 
L 529.858696 153.187995 
L 530.106146 153.062713 
L 530.353596 153.445698 
L 530.848496 153.182682 
L 531.095947 153.165216 
L 531.343397 153.614389 
L 531.838297 153.370003 
L 532.085747 153.389177 
L 532.580647 153.075333 
L 533.075547 153.34501 
L 533.322998 153.135357 
L 533.817898 153.519055 
L 534.312798 153.521653 
L 534.560248 153.427736 
L 534.807698 153.596221 
L 535.550049 153.335739 
L 536.292399 153.557397 
L 536.539849 153.448385 
L 537.034749 153.531978 
L 537.529649 153.54424 
L 537.7771 153.256091 
L 538.02455 153.453715 
L 538.51945 153.386594 
L 538.7669 153.567694 
L 539.2618 153.500238 
L 539.50925 153.541007 
L 539.7567 153.330139 
L 540.00415 153.475395 
L 540.499051 153.412441 
L 540.746501 153.339484 
L 541.241401 153.537619 
L 541.488851 153.656001 
L 541.736301 153.462349 
L 541.983751 153.69027 
L 542.231201 153.476832 
L 542.478652 153.572752 
L 542.726102 153.394373 
L 542.973552 153.573494 
L 543.221002 153.534476 
L 543.468452 153.334606 
L 543.715902 153.450318 
L 543.963352 153.726391 
L 544.210802 153.560339 
L 544.458252 153.650249 
L 544.705703 153.438393 
L 545.200603 153.600963 
L 545.448053 153.42283 
L 545.695503 153.641245 
L 545.942953 153.501168 
L 546.190403 153.817292 
L 546.437853 153.314901 
L 546.685303 153.558387 
L 547.427654 153.408458 
L 547.675104 153.517917 
L 547.922554 153.295693 
L 548.664904 153.468175 
L 548.912354 153.657612 
L 549.159805 153.653052 
L 549.407255 153.241308 
L 549.654705 153.262062 
L 549.902155 153.489567 
L 550.397055 153.310521 
L 550.891955 153.46209 
L 551.634306 153.313838 
L 551.881756 153.435222 
L 552.129206 153.405877 
L 552.376656 153.636545 
L 552.624106 153.579087 
L 552.871556 153.332408 
L 553.366456 153.475995 
L 553.613907 153.415294 
L 553.861357 153.47324 
L 554.108807 153.234564 
L 554.356257 153.255155 
L 554.851157 153.520595 
L 555.346057 153.451719 
L 555.593507 153.669141 
L 555.840958 153.486125 
L 556.583308 153.434707 
L 556.830758 153.168803 
L 557.078208 153.531145 
L 557.573108 153.470492 
L 557.820558 153.278891 
L 558.068009 153.609753 
L 558.315459 153.428539 
L 558.562909 153.429296 
L 558.810359 153.298223 
L 559.552709 153.534343 
L 559.800159 153.35891 
L 560.54251 153.3031 
L 561.53231 153.775369 
L 561.77976 153.4702 
L 562.02721 153.726208 
L 562.27466 153.469453 
L 562.522111 153.598145 
L 562.769561 153.28731 
L 563.264461 153.70472 
L 563.759361 153.332922 
L 564.006811 153.417711 
L 564.254261 153.214567 
L 564.501711 153.401392 
L 564.749162 153.178973 
L 564.996612 153.472496 
L 565.244062 153.262517 
L 565.491512 153.247437 
L 565.738962 153.357643 
L 565.986412 153.685013 
L 566.233862 153.393333 
L 566.481312 153.32234 
L 566.728762 153.577011 
L 566.976213 153.641627 
L 567.718563 153.396655 
L 567.966013 153.679376 
L 569.698164 153.147086 
L 569.945614 153.577495 
L 570.193064 153.4411 
L 570.440514 153.733897 
L 570.687964 153.333528 
L 571.430315 153.250414 
L 571.925215 153.165729 
L 572.172665 153.439787 
L 572.420115 153.091362 
L 572.667565 153.314817 
L 572.915015 153.262298 
L 573.162465 153.053829 
L 573.409915 153.557268 
L 573.657366 153.610957 
L 573.904816 153.522991 
L 574.152266 153.203311 
L 574.399716 153.400114 
L 574.647166 153.298179 
L 574.894616 153.568517 
L 575.636966 153.209681 
L 576.131867 153.397703 
L 576.379317 153.529631 
L 576.874217 153.212025 
L 577.121667 153.501997 
L 577.369117 153.37865 
L 577.616567 153.116407 
L 577.864017 153.469986 
L 578.111468 153.460639 
L 578.358918 153.26927 
L 578.853818 153.477161 
L 579.101268 153.326073 
L 579.348718 153.50476 
L 579.596168 153.239168 
L 579.843618 153.334629 
L 580.338519 153.223228 
L 580.585969 153.246142 
L 580.833419 153.39874 
L 581.080869 153.326272 
L 581.823219 153.751176 
L 582.56557 153.26881 
L 582.81302 153.417104 
L 583.06047 153.435556 
L 583.30792 153.287668 
L 583.55537 153.519428 
L 583.80282 153.237898 
L 584.05027 153.237125 
L 584.54517 153.396607 
L 584.792621 153.319765 
L 585.782421 153.440434 
L 586.772221 153.417017 
L 587.267122 153.718529 
L 587.514572 153.318032 
L 587.762022 153.320706 
L 588.009472 153.169154 
L 588.751822 153.434627 
L 588.999272 153.266348 
L 589.246723 153.315811 
L 589.494173 153.590261 
L 589.741623 153.362591 
L 589.989073 153.334224 
L 590.236523 153.491337 
L 590.731423 153.306058 
L 591.226323 153.712937 
L 591.473774 153.715902 
L 591.721224 153.27678 
L 591.968674 153.317587 
L 592.216124 153.212498 
L 592.463574 153.38883 
L 592.711024 153.15756 
L 593.205924 153.202723 
L 594.195725 153.195205 
L 594.443175 153.370045 
L 594.690625 153.253604 
L 594.938075 153.269459 
L 595.432975 153.426879 
L 596.175326 153.098947 
L 596.422776 153.105058 
L 597.165126 153.489748 
L 597.412576 153.42832 
L 597.660026 153.539887 
L 597.907476 153.397256 
L 598.402377 153.402925 
L 598.649827 153.285066 
L 598.897277 153.319623 
L 599.144727 153.054981 
L 599.392177 153.307381 
L 599.887077 153.184104 
L 600.876878 153.375682 
L 601.124328 153.348245 
L 601.371778 153.470457 
L 601.619228 153.405472 
L 601.866678 153.188338 
L 602.114128 153.351886 
L 603.103929 153.199476 
L 603.598829 153.191345 
L 603.846279 153.150388 
L 604.093729 153.395211 
L 604.588629 153.272917 
L 604.83608 153.449304 
L 605.08353 153.170159 
L 605.57843 153.56227 
L 605.82588 153.372777 
L 606.81568 153.347076 
L 607.063131 153.235687 
L 608.052931 153.463065 
L 608.547831 153.34173 
L 608.795281 153.46028 
L 609.290182 153.275972 
L 609.537632 153.54527 
L 610.032532 153.586912 
L 610.279982 153.22786 
L 610.774882 153.528772 
L 611.022332 153.380545 
L 611.764683 153.443017 
L 612.012133 153.262348 
L 612.259583 153.267638 
L 612.507033 153.635823 
L 613.001933 153.29992 
L 613.249383 153.515663 
L 613.496833 153.312846 
L 613.744284 153.258797 
L 613.991734 153.060633 
L 615.723884 153.524866 
L 615.971335 153.304518 
L 616.466235 153.379557 
L 616.713685 153.192579 
L 616.961135 153.412616 
L 617.456035 153.551702 
L 617.703485 153.268718 
L 617.950935 153.594873 
L 618.198386 153.444045 
L 618.445836 153.562084 
L 619.188186 153.370465 
L 619.435636 153.433037 
L 619.683086 153.097521 
L 620.177986 153.377849 
L 620.425437 153.226353 
L 620.672887 153.454068 
L 620.920337 153.313907 
L 621.167787 153.39849 
L 621.415237 153.195014 
L 621.662687 153.300663 
L 621.910137 153.260128 
L 622.157587 153.456158 
L 622.652488 153.321281 
L 622.899938 153.566823 
L 623.147388 153.442522 
L 623.394838 153.518993 
L 623.642288 153.192984 
L 623.889738 153.189161 
L 624.137188 153.439036 
L 624.384638 153.323075 
L 624.879539 153.439328 
L 625.126989 153.287787 
L 625.126989 153.287787 
" clip-path="url(#paf8909d1cd)" style="fill: none; stroke: #ff7f0e; stroke-width: 1.5; stroke-linecap: square"/>
   </g>
   <g id="patch_3">
    <path d="M 92.490625 308.63625 
L 92.490625 31.43625 
" style="fill: none; stroke: #000000; stroke-width: 0.8; stroke-linejoin: miter; stroke-linecap: square"/>
   </g>
   <g id="patch_4">
    <path d="M 650.490625 308.63625 
L 650.490625 31.43625 
" style="fill: none; stroke: #000000; stroke-width: 0.8; stroke-linejoin: miter; stroke-linecap: square"/>
   </g>
   <g id="patch_5">
    <path d="M 92.490625 308.63625 
L 650.490625 308.63625 
" style="fill: none; stroke: #000000; stroke-width: 0.8; stroke-linejoin: miter; stroke-linecap: square"/>
   </g>
   <g id="patch_6">
    <path d="M 92.490625 31.43625 
L 650.490625 31.43625 
" style="fill: none; stroke: #000000; stroke-width: 0.8; stroke-linejoin: miter; stroke-linecap: square"/>
   </g>
   <g id="text_11">
    <!-- Generator and Discriminator Loss During Training -->
    <g transform="translate(74.258125 25.43625) scale(0.24 -0.24)">
     <defs>
      <path id="DejaVuSans-47" d="M 3809 666 
L 3809 1919 
L 2778 1919 
L 2778 2438 
L 4434 2438 
L 4434 434 
Q 4069 175 3628 42 
Q 3188 -91 2688 -91 
Q 1594 -91 976 548 
Q 359 1188 359 2328 
Q 359 3472 976 4111 
Q 1594 4750 2688 4750 
Q 3144 4750 3555 4637 
Q 3966 4525 4313 4306 
L 4313 3634 
Q 3963 3931 3569 4081 
Q 3175 4231 2741 4231 
Q 1884 4231 1454 3753 
Q 1025 3275 1025 2328 
Q 1025 1384 1454 906 
Q 1884 428 2741 428 
Q 3075 428 3337 486 
Q 3600 544 3809 666 
z
" transform="scale(0.015625)"/>
      <path id="DejaVuSans-20" transform="scale(0.015625)"/>
      <path id="DejaVuSans-64" d="M 2906 2969 
L 2906 4863 
L 3481 4863 
L 3481 0 
L 2906 0 
L 2906 525 
Q 2725 213 2448 61 
Q 2172 -91 1784 -91 
Q 1150 -91 751 415 
Q 353 922 353 1747 
Q 353 2572 751 3078 
Q 1150 3584 1784 3584 
Q 2172 3584 2448 3432 
Q 2725 3281 2906 2969 
z
M 947 1747 
Q 947 1113 1208 752 
Q 1469 391 1925 391 
Q 2381 391 2643 752 
Q 2906 1113 2906 1747 
Q 2906 2381 2643 2742 
Q 2381 3103 1925 3103 
Q 1469 3103 1208 2742 
Q 947 2381 947 1747 
z
" transform="scale(0.015625)"/>
      <path id="DejaVuSans-44" d="M 1259 4147 
L 1259 519 
L 2022 519 
Q 2988 519 3436 956 
Q 3884 1394 3884 2338 
Q 3884 3275 3436 3711 
Q 2988 4147 2022 4147 
L 1259 4147 
z
M 628 4666 
L 1925 4666 
Q 3281 4666 3915 4102 
Q 4550 3538 4550 2338 
Q 4550 1131 3912 565 
Q 3275 0 1925 0 
L 628 0 
L 628 4666 
z
" transform="scale(0.015625)"/>
      <path id="DejaVuSans-63" d="M 3122 3366 
L 3122 2828 
Q 2878 2963 2633 3030 
Q 2388 3097 2138 3097 
Q 1578 3097 1268 2742 
Q 959 2388 959 1747 
Q 959 1106 1268 751 
Q 1578 397 2138 397 
Q 2388 397 2633 464 
Q 2878 531 3122 666 
L 3122 134 
Q 2881 22 2623 -34 
Q 2366 -91 2075 -91 
Q 1284 -91 818 406 
Q 353 903 353 1747 
Q 353 2603 823 3093 
Q 1294 3584 2113 3584 
Q 2378 3584 2631 3529 
Q 2884 3475 3122 3366 
z
" transform="scale(0.015625)"/>
      <path id="DejaVuSans-6d" d="M 3328 2828 
Q 3544 3216 3844 3400 
Q 4144 3584 4550 3584 
Q 5097 3584 5394 3201 
Q 5691 2819 5691 2113 
L 5691 0 
L 5113 0 
L 5113 2094 
Q 5113 2597 4934 2840 
Q 4756 3084 4391 3084 
Q 3944 3084 3684 2787 
Q 3425 2491 3425 1978 
L 3425 0 
L 2847 0 
L 2847 2094 
Q 2847 2600 2669 2842 
Q 2491 3084 2119 3084 
Q 1678 3084 1418 2786 
Q 1159 2488 1159 1978 
L 1159 0 
L 581 0 
L 581 3500 
L 1159 3500 
L 1159 2956 
Q 1356 3278 1631 3431 
Q 1906 3584 2284 3584 
Q 2666 3584 2933 3390 
Q 3200 3197 3328 2828 
z
" transform="scale(0.015625)"/>
      <path id="DejaVuSans-75" d="M 544 1381 
L 544 3500 
L 1119 3500 
L 1119 1403 
Q 1119 906 1312 657 
Q 1506 409 1894 409 
Q 2359 409 2629 706 
Q 2900 1003 2900 1516 
L 2900 3500 
L 3475 3500 
L 3475 0 
L 2900 0 
L 2900 538 
Q 2691 219 2414 64 
Q 2138 -91 1772 -91 
Q 1169 -91 856 284 
Q 544 659 544 1381 
z
M 1991 3584 
L 1991 3584 
z
" transform="scale(0.015625)"/>
      <path id="DejaVuSans-67" d="M 2906 1791 
Q 2906 2416 2648 2759 
Q 2391 3103 1925 3103 
Q 1463 3103 1205 2759 
Q 947 2416 947 1791 
Q 947 1169 1205 825 
Q 1463 481 1925 481 
Q 2391 481 2648 825 
Q 2906 1169 2906 1791 
z
M 3481 434 
Q 3481 -459 3084 -895 
Q 2688 -1331 1869 -1331 
Q 1566 -1331 1297 -1286 
Q 1028 -1241 775 -1147 
L 775 -588 
Q 1028 -725 1275 -790 
Q 1522 -856 1778 -856 
Q 2344 -856 2625 -561 
Q 2906 -266 2906 331 
L 2906 616 
Q 2728 306 2450 153 
Q 2172 0 1784 0 
Q 1141 0 747 490 
Q 353 981 353 1791 
Q 353 2603 747 3093 
Q 1141 3584 1784 3584 
Q 2172 3584 2450 3431 
Q 2728 3278 2906 2969 
L 2906 3500 
L 3481 3500 
L 3481 434 
z
" transform="scale(0.015625)"/>
      <path id="DejaVuSans-54" d="M -19 4666 
L 3928 4666 
L 3928 4134 
L 2272 4134 
L 2272 0 
L 1638 0 
L 1638 4134 
L -19 4134 
L -19 4666 
z
" transform="scale(0.015625)"/>
     </defs>
     <use xlink:href="#DejaVuSans-47"/>
     <use xlink:href="#DejaVuSans-65" x="77.490234"/>
     <use xlink:href="#DejaVuSans-6e" x="139.013672"/>
     <use xlink:href="#DejaVuSans-65" x="202.392578"/>
     <use xlink:href="#DejaVuSans-72" x="263.916016"/>
     <use xlink:href="#DejaVuSans-61" x="305.029297"/>
     <use xlink:href="#DejaVuSans-74" x="366.308594"/>
     <use xlink:href="#DejaVuSans-6f" x="405.517578"/>
     <use xlink:href="#DejaVuSans-72" x="466.699219"/>
     <use xlink:href="#DejaVuSans-20" x="507.8125"/>
     <use xlink:href="#DejaVuSans-61" x="539.599609"/>
     <use xlink:href="#DejaVuSans-6e" x="600.878906"/>
     <use xlink:href="#DejaVuSans-64" x="664.257812"/>
     <use xlink:href="#DejaVuSans-20" x="727.734375"/>
     <use xlink:href="#DejaVuSans-44" x="759.521484"/>
     <use xlink:href="#DejaVuSans-69" x="836.523438"/>
     <use xlink:href="#DejaVuSans-73" x="864.306641"/>
     <use xlink:href="#DejaVuSans-63" x="916.40625"/>
     <use xlink:href="#DejaVuSans-72" x="971.386719"/>
     <use xlink:href="#DejaVuSans-69" x="1012.5"/>
     <use xlink:href="#DejaVuSans-6d" x="1040.283203"/>
     <use xlink:href="#DejaVuSans-69" x="1137.695312"/>
     <use xlink:href="#DejaVuSans-6e" x="1165.478516"/>
     <use xlink:href="#DejaVuSans-61" x="1228.857422"/>
     <use xlink:href="#DejaVuSans-74" x="1290.136719"/>
     <use xlink:href="#DejaVuSans-6f" x="1329.345703"/>
     <use xlink:href="#DejaVuSans-72" x="1390.527344"/>
     <use xlink:href="#DejaVuSans-20" x="1431.640625"/>
     <use xlink:href="#DejaVuSans-4c" x="1463.427734"/>
     <use xlink:href="#DejaVuSans-6f" x="1517.390625"/>
     <use xlink:href="#DejaVuSans-73" x="1578.572266"/>
     <use xlink:href="#DejaVuSans-73" x="1630.671875"/>
     <use xlink:href="#DejaVuSans-20" x="1682.771484"/>
     <use xlink:href="#DejaVuSans-44" x="1714.558594"/>
     <use xlink:href="#DejaVuSans-75" x="1791.560547"/>
     <use xlink:href="#DejaVuSans-72" x="1854.939453"/>
     <use xlink:href="#DejaVuSans-69" x="1896.052734"/>
     <use xlink:href="#DejaVuSans-6e" x="1923.835938"/>
     <use xlink:href="#DejaVuSans-67" x="1987.214844"/>
     <use xlink:href="#DejaVuSans-20" x="2050.691406"/>
     <use xlink:href="#DejaVuSans-54" x="2082.478516"/>
     <use xlink:href="#DejaVuSans-72" x="2128.8125"/>
     <use xlink:href="#DejaVuSans-61" x="2169.925781"/>
     <use xlink:href="#DejaVuSans-69" x="2231.205078"/>
     <use xlink:href="#DejaVuSans-6e" x="2258.988281"/>
     <use xlink:href="#DejaVuSans-69" x="2322.367188"/>
     <use xlink:href="#DejaVuSans-6e" x="2350.150391"/>
     <use xlink:href="#DejaVuSans-67" x="2413.529297"/>
    </g>
   </g>
   <g id="legend_1">
    <g id="patch_7">
     <path d="M 556.99375 106.14875 
L 636.490625 106.14875 
Q 640.490625 106.14875 640.490625 102.14875 
L 640.490625 45.43625 
Q 640.490625 41.43625 636.490625 41.43625 
L 556.99375 41.43625 
Q 552.99375 41.43625 552.99375 45.43625 
L 552.99375 102.14875 
Q 552.99375 106.14875 556.99375 106.14875 
z
" style="fill: #ffffff; opacity: 0.8; stroke: #cccccc; stroke-linejoin: miter"/>
    </g>
    <g id="line2d_11">
     <path d="M 560.99375 57.633125 
L 580.99375 57.633125 
L 600.99375 57.633125 
" style="fill: none; stroke: #1f77b4; stroke-width: 1.5; stroke-linecap: square"/>
    </g>
    <g id="text_12">
     <!-- G -->
     <g transform="translate(616.99375 64.633125) scale(0.2 -0.2)">
      <use xlink:href="#DejaVuSans-47"/>
     </g>
    </g>
    <g id="line2d_12">
     <path d="M 560.99375 86.989375 
L 580.99375 86.989375 
L 600.99375 86.989375 
" style="fill: none; stroke: #ff7f0e; stroke-width: 1.5; stroke-linecap: square"/>
    </g>
    <g id="text_13">
     <!-- D -->
     <g transform="translate(616.99375 93.989375) scale(0.2 -0.2)">
      <use xlink:href="#DejaVuSans-44"/>
     </g>
    </g>
   </g>
  </g>
 </g>
 <defs>
  <clipPath id="paf8909d1cd">
   <rect x="92.490625" y="31.43625" width="558" height="277.2"/>
  </clipPath>
 </defs>
</svg>
