<?xml version="1.0" encoding="utf-8" standalone="no"?>
<!DOCTYPE svg PUBLIC "-//W3C//DTD SVG 1.1//EN"
  "http://www.w3.org/Graphics/SVG/1.1/DTD/svg11.dtd">
<svg xmlns:xlink="http://www.w3.org/1999/xlink" width="675.923125pt" height="365.54875pt" viewBox="0 0 675.923125 365.54875" xmlns="http://www.w3.org/2000/svg" version="1.1">
 <metadata>
  <rdf:RDF xmlns:dc="http://purl.org/dc/elements/1.1/" xmlns:cc="http://creativecommons.org/ns#" xmlns:rdf="http://www.w3.org/1999/02/22-rdf-syntax-ns#">
   <cc:Work>
    <dc:type rdf:resource="http://purl.org/dc/dcmitype/StillImage"/>
    <dc:date>2024-02-01T21:01:12.880136</dc:date>
    <dc:format>image/svg+xml</dc:format>
    <dc:creator>
     <cc:Agent>
      <dc:title>Matplotlib v3.7.2, https://matplotlib.org/</dc:title>
     </cc:Agent>
    </dc:creator>
   </cc:Work>
  </rdf:RDF>
 </metadata>
 <defs>
  <style type="text/css">*{stroke-linejoin: round; stroke-linecap: butt}</style>
 </defs>
 <g id="figure_1">
  <g id="patch_1">
   <path d="M 0 365.54875 
L 675.923125 365.54875 
L 675.923125 -0 
L 0 -0 
z
" style="fill: #ffffff"/>
  </g>
  <g id="axes_1">
   <g id="patch_2">
    <path d="M 92.490625 308.63625 
L 650.490625 308.63625 
L 650.490625 31.43625 
L 92.490625 31.43625 
z
" style="fill: #ffffff"/>
   </g>
   <g id="matplotlib.axis_1">
    <g id="xtick_1">
     <g id="line2d_1">
      <defs>
       <path id="mf6365d6809" d="M 0 0 
L 0 3.5 
" style="stroke: #000000; stroke-width: 0.8"/>
      </defs>
      <g>
       <use xlink:href="#mf6365d6809" x="117.854261" y="308.63625" style="stroke: #000000; stroke-width: 0.8"/>
      </g>
     </g>
     <g id="text_1">
      <!-- 0 -->
      <g transform="translate(111.491761 330.833125) scale(0.2 -0.2)">
       <defs>
        <path id="DejaVuSans-30" d="M 2034 4250 
Q 1547 4250 1301 3770 
Q 1056 3291 1056 2328 
Q 1056 1369 1301 889 
Q 1547 409 2034 409 
Q 2525 409 2770 889 
Q 3016 1369 3016 2328 
Q 3016 3291 2770 3770 
Q 2525 4250 2034 4250 
z
M 2034 4750 
Q 2819 4750 3233 4129 
Q 3647 3509 3647 2328 
Q 3647 1150 3233 529 
Q 2819 -91 2034 -91 
Q 1250 -91 836 529 
Q 422 1150 422 2328 
Q 422 3509 836 4129 
Q 1250 4750 2034 4750 
z
" transform="scale(0.015625)"/>
       </defs>
       <use xlink:href="#DejaVuSans-30"/>
      </g>
     </g>
    </g>
    <g id="xtick_2">
     <g id="line2d_2">
      <g>
       <use xlink:href="#mf6365d6809" x="195.896219" y="308.63625" style="stroke: #000000; stroke-width: 0.8"/>
      </g>
     </g>
     <g id="text_2">
      <!-- 100 -->
      <g transform="translate(176.808719 330.833125) scale(0.2 -0.2)">
       <defs>
        <path id="DejaVuSans-31" d="M 794 531 
L 1825 531 
L 1825 4091 
L 703 3866 
L 703 4441 
L 1819 4666 
L 2450 4666 
L 2450 531 
L 3481 531 
L 3481 0 
L 794 0 
L 794 531 
z
" transform="scale(0.015625)"/>
       </defs>
       <use xlink:href="#DejaVuSans-31"/>
       <use xlink:href="#DejaVuSans-30" x="63.623047"/>
       <use xlink:href="#DejaVuSans-30" x="127.246094"/>
      </g>
     </g>
    </g>
    <g id="xtick_3">
     <g id="line2d_3">
      <g>
       <use xlink:href="#mf6365d6809" x="273.938177" y="308.63625" style="stroke: #000000; stroke-width: 0.8"/>
      </g>
     </g>
     <g id="text_3">
      <!-- 200 -->
      <g transform="translate(254.850677 330.833125) scale(0.2 -0.2)">
       <defs>
        <path id="DejaVuSans-32" d="M 1228 531 
L 3431 531 
L 3431 0 
L 469 0 
L 469 531 
Q 828 903 1448 1529 
Q 2069 2156 2228 2338 
Q 2531 2678 2651 2914 
Q 2772 3150 2772 3378 
Q 2772 3750 2511 3984 
Q 2250 4219 1831 4219 
Q 1534 4219 1204 4116 
Q 875 4013 500 3803 
L 500 4441 
Q 881 4594 1212 4672 
Q 1544 4750 1819 4750 
Q 2544 4750 2975 4387 
Q 3406 4025 3406 3419 
Q 3406 3131 3298 2873 
Q 3191 2616 2906 2266 
Q 2828 2175 2409 1742 
Q 1991 1309 1228 531 
z
" transform="scale(0.015625)"/>
       </defs>
       <use xlink:href="#DejaVuSans-32"/>
       <use xlink:href="#DejaVuSans-30" x="63.623047"/>
       <use xlink:href="#DejaVuSans-30" x="127.246094"/>
      </g>
     </g>
    </g>
    <g id="xtick_4">
     <g id="line2d_4">
      <g>
       <use xlink:href="#mf6365d6809" x="351.980135" y="308.63625" style="stroke: #000000; stroke-width: 0.8"/>
      </g>
     </g>
     <g id="text_4">
      <!-- 300 -->
      <g transform="translate(332.892635 330.833125) scale(0.2 -0.2)">
       <defs>
        <path id="DejaVuSans-33" d="M 2597 2516 
Q 3050 2419 3304 2112 
Q 3559 1806 3559 1356 
Q 3559 666 3084 287 
Q 2609 -91 1734 -91 
Q 1441 -91 1130 -33 
Q 819 25 488 141 
L 488 750 
Q 750 597 1062 519 
Q 1375 441 1716 441 
Q 2309 441 2620 675 
Q 2931 909 2931 1356 
Q 2931 1769 2642 2001 
Q 2353 2234 1838 2234 
L 1294 2234 
L 1294 2753 
L 1863 2753 
Q 2328 2753 2575 2939 
Q 2822 3125 2822 3475 
Q 2822 3834 2567 4026 
Q 2313 4219 1838 4219 
Q 1578 4219 1281 4162 
Q 984 4106 628 3988 
L 628 4550 
Q 988 4650 1302 4700 
Q 1616 4750 1894 4750 
Q 2613 4750 3031 4423 
Q 3450 4097 3450 3541 
Q 3450 3153 3228 2886 
Q 3006 2619 2597 2516 
z
" transform="scale(0.015625)"/>
       </defs>
       <use xlink:href="#DejaVuSans-33"/>
       <use xlink:href="#DejaVuSans-30" x="63.623047"/>
       <use xlink:href="#DejaVuSans-30" x="127.246094"/>
      </g>
     </g>
    </g>
    <g id="xtick_5">
     <g id="line2d_5">
      <g>
       <use xlink:href="#mf6365d6809" x="430.022094" y="308.63625" style="stroke: #000000; stroke-width: 0.8"/>
      </g>
     </g>
     <g id="text_5">
      <!-- 400 -->
      <g transform="translate(410.934594 330.833125) scale(0.2 -0.2)">
       <defs>
        <path id="DejaVuSans-34" d="M 2419 4116 
L 825 1625 
L 2419 1625 
L 2419 4116 
z
M 2253 4666 
L 3047 4666 
L 3047 1625 
L 3713 1625 
L 3713 1100 
L 3047 1100 
L 3047 0 
L 2419 0 
L 2419 1100 
L 313 1100 
L 313 1709 
L 2253 4666 
z
" transform="scale(0.015625)"/>
       </defs>
       <use xlink:href="#DejaVuSans-34"/>
       <use xlink:href="#DejaVuSans-30" x="63.623047"/>
       <use xlink:href="#DejaVuSans-30" x="127.246094"/>
      </g>
     </g>
    </g>
    <g id="xtick_6">
     <g id="line2d_6">
      <g>
       <use xlink:href="#mf6365d6809" x="508.064052" y="308.63625" style="stroke: #000000; stroke-width: 0.8"/>
      </g>
     </g>
     <g id="text_6">
      <!-- 500 -->
      <g transform="translate(488.976552 330.833125) scale(0.2 -0.2)">
       <defs>
        <path id="DejaVuSans-35" d="M 691 4666 
L 3169 4666 
L 3169 4134 
L 1269 4134 
L 1269 2991 
Q 1406 3038 1543 3061 
Q 1681 3084 1819 3084 
Q 2600 3084 3056 2656 
Q 3513 2228 3513 1497 
Q 3513 744 3044 326 
Q 2575 -91 1722 -91 
Q 1428 -91 1123 -41 
Q 819 9 494 109 
L 494 744 
Q 775 591 1075 516 
Q 1375 441 1709 441 
Q 2250 441 2565 725 
Q 2881 1009 2881 1497 
Q 2881 1984 2565 2268 
Q 2250 2553 1709 2553 
Q 1456 2553 1204 2497 
Q 953 2441 691 2322 
L 691 4666 
z
" transform="scale(0.015625)"/>
       </defs>
       <use xlink:href="#DejaVuSans-35"/>
       <use xlink:href="#DejaVuSans-30" x="63.623047"/>
       <use xlink:href="#DejaVuSans-30" x="127.246094"/>
      </g>
     </g>
    </g>
    <g id="xtick_7">
     <g id="line2d_7">
      <g>
       <use xlink:href="#mf6365d6809" x="586.10601" y="308.63625" style="stroke: #000000; stroke-width: 0.8"/>
      </g>
     </g>
     <g id="text_7">
      <!-- 600 -->
      <g transform="translate(567.01851 330.833125) scale(0.2 -0.2)">
       <defs>
        <path id="DejaVuSans-36" d="M 2113 2584 
Q 1688 2584 1439 2293 
Q 1191 2003 1191 1497 
Q 1191 994 1439 701 
Q 1688 409 2113 409 
Q 2538 409 2786 701 
Q 3034 994 3034 1497 
Q 3034 2003 2786 2293 
Q 2538 2584 2113 2584 
z
M 3366 4563 
L 3366 3988 
Q 3128 4100 2886 4159 
Q 2644 4219 2406 4219 
Q 1781 4219 1451 3797 
Q 1122 3375 1075 2522 
Q 1259 2794 1537 2939 
Q 1816 3084 2150 3084 
Q 2853 3084 3261 2657 
Q 3669 2231 3669 1497 
Q 3669 778 3244 343 
Q 2819 -91 2113 -91 
Q 1303 -91 875 529 
Q 447 1150 447 2328 
Q 447 3434 972 4092 
Q 1497 4750 2381 4750 
Q 2619 4750 2861 4703 
Q 3103 4656 3366 4563 
z
" transform="scale(0.015625)"/>
       </defs>
       <use xlink:href="#DejaVuSans-36"/>
       <use xlink:href="#DejaVuSans-30" x="63.623047"/>
       <use xlink:href="#DejaVuSans-30" x="127.246094"/>
      </g>
     </g>
    </g>
    <g id="text_8">
     <!-- iterations -->
     <g transform="translate(324.035938 354.189375) scale(0.2 -0.2)">
      <defs>
       <path id="DejaVuSans-69" d="M 603 3500 
L 1178 3500 
L 1178 0 
L 603 0 
L 603 3500 
z
M 603 4863 
L 1178 4863 
L 1178 4134 
L 603 4134 
L 603 4863 
z
" transform="scale(0.015625)"/>
       <path id="DejaVuSans-74" d="M 1172 4494 
L 1172 3500 
L 2356 3500 
L 2356 3053 
L 1172 3053 
L 1172 1153 
Q 1172 725 1289 603 
Q 1406 481 1766 481 
L 2356 481 
L 2356 0 
L 1766 0 
Q 1100 0 847 248 
Q 594 497 594 1153 
L 594 3053 
L 172 3053 
L 172 3500 
L 594 3500 
L 594 4494 
L 1172 4494 
z
" transform="scale(0.015625)"/>
       <path id="DejaVuSans-65" d="M 3597 1894 
L 3597 1613 
L 953 1613 
Q 991 1019 1311 708 
Q 1631 397 2203 397 
Q 2534 397 2845 478 
Q 3156 559 3463 722 
L 3463 178 
Q 3153 47 2828 -22 
Q 2503 -91 2169 -91 
Q 1331 -91 842 396 
Q 353 884 353 1716 
Q 353 2575 817 3079 
Q 1281 3584 2069 3584 
Q 2775 3584 3186 3129 
Q 3597 2675 3597 1894 
z
M 3022 2063 
Q 3016 2534 2758 2815 
Q 2500 3097 2075 3097 
Q 1594 3097 1305 2825 
Q 1016 2553 972 2059 
L 3022 2063 
z
" transform="scale(0.015625)"/>
       <path id="DejaVuSans-72" d="M 2631 2963 
Q 2534 3019 2420 3045 
Q 2306 3072 2169 3072 
Q 1681 3072 1420 2755 
Q 1159 2438 1159 1844 
L 1159 0 
L 581 0 
L 581 3500 
L 1159 3500 
L 1159 2956 
Q 1341 3275 1631 3429 
Q 1922 3584 2338 3584 
Q 2397 3584 2469 3576 
Q 2541 3569 2628 3553 
L 2631 2963 
z
" transform="scale(0.015625)"/>
       <path id="DejaVuSans-61" d="M 2194 1759 
Q 1497 1759 1228 1600 
Q 959 1441 959 1056 
Q 959 750 1161 570 
Q 1363 391 1709 391 
Q 2188 391 2477 730 
Q 2766 1069 2766 1631 
L 2766 1759 
L 2194 1759 
z
M 3341 1997 
L 3341 0 
L 2766 0 
L 2766 531 
Q 2569 213 2275 61 
Q 1981 -91 1556 -91 
Q 1019 -91 701 211 
Q 384 513 384 1019 
Q 384 1609 779 1909 
Q 1175 2209 1959 2209 
L 2766 2209 
L 2766 2266 
Q 2766 2663 2505 2880 
Q 2244 3097 1772 3097 
Q 1472 3097 1187 3025 
Q 903 2953 641 2809 
L 641 3341 
Q 956 3463 1253 3523 
Q 1550 3584 1831 3584 
Q 2591 3584 2966 3190 
Q 3341 2797 3341 1997 
z
" transform="scale(0.015625)"/>
       <path id="DejaVuSans-6f" d="M 1959 3097 
Q 1497 3097 1228 2736 
Q 959 2375 959 1747 
Q 959 1119 1226 758 
Q 1494 397 1959 397 
Q 2419 397 2687 759 
Q 2956 1122 2956 1747 
Q 2956 2369 2687 2733 
Q 2419 3097 1959 3097 
z
M 1959 3584 
Q 2709 3584 3137 3096 
Q 3566 2609 3566 1747 
Q 3566 888 3137 398 
Q 2709 -91 1959 -91 
Q 1206 -91 779 398 
Q 353 888 353 1747 
Q 353 2609 779 3096 
Q 1206 3584 1959 3584 
z
" transform="scale(0.015625)"/>
       <path id="DejaVuSans-6e" d="M 3513 2113 
L 3513 0 
L 2938 0 
L 2938 2094 
Q 2938 2591 2744 2837 
Q 2550 3084 2163 3084 
Q 1697 3084 1428 2787 
Q 1159 2491 1159 1978 
L 1159 0 
L 581 0 
L 581 3500 
L 1159 3500 
L 1159 2956 
Q 1366 3272 1645 3428 
Q 1925 3584 2291 3584 
Q 2894 3584 3203 3211 
Q 3513 2838 3513 2113 
z
" transform="scale(0.015625)"/>
       <path id="DejaVuSans-73" d="M 2834 3397 
L 2834 2853 
Q 2591 2978 2328 3040 
Q 2066 3103 1784 3103 
Q 1356 3103 1142 2972 
Q 928 2841 928 2578 
Q 928 2378 1081 2264 
Q 1234 2150 1697 2047 
L 1894 2003 
Q 2506 1872 2764 1633 
Q 3022 1394 3022 966 
Q 3022 478 2636 193 
Q 2250 -91 1575 -91 
Q 1294 -91 989 -36 
Q 684 19 347 128 
L 347 722 
Q 666 556 975 473 
Q 1284 391 1588 391 
Q 1994 391 2212 530 
Q 2431 669 2431 922 
Q 2431 1156 2273 1281 
Q 2116 1406 1581 1522 
L 1381 1569 
Q 847 1681 609 1914 
Q 372 2147 372 2553 
Q 372 3047 722 3315 
Q 1072 3584 1716 3584 
Q 2034 3584 2315 3537 
Q 2597 3491 2834 3397 
z
" transform="scale(0.015625)"/>
      </defs>
      <use xlink:href="#DejaVuSans-69"/>
      <use xlink:href="#DejaVuSans-74" x="27.783203"/>
      <use xlink:href="#DejaVuSans-65" x="66.992188"/>
      <use xlink:href="#DejaVuSans-72" x="128.515625"/>
      <use xlink:href="#DejaVuSans-61" x="169.628906"/>
      <use xlink:href="#DejaVuSans-74" x="230.908203"/>
      <use xlink:href="#DejaVuSans-69" x="270.117188"/>
      <use xlink:href="#DejaVuSans-6f" x="297.900391"/>
      <use xlink:href="#DejaVuSans-6e" x="359.082031"/>
      <use xlink:href="#DejaVuSans-73" x="422.460938"/>
     </g>
    </g>
   </g>
   <g id="matplotlib.axis_2">
    <g id="ytick_1">
     <g id="line2d_8">
      <defs>
       <path id="mfc16448fdd" d="M 0 0 
L -3.5 0 
" style="stroke: #000000; stroke-width: 0.8"/>
      </defs>
      <g>
       <use xlink:href="#mfc16448fdd" x="92.490625" y="234.626549" style="stroke: #000000; stroke-width: 0.8"/>
      </g>
     </g>
     <g id="text_9">
      <!-- −200 -->
      <g transform="translate(30.55625 242.224987) scale(0.2 -0.2)">
       <defs>
        <path id="DejaVuSans-2212" d="M 678 2272 
L 4684 2272 
L 4684 1741 
L 678 1741 
L 678 2272 
z
" transform="scale(0.015625)"/>
       </defs>
       <use xlink:href="#DejaVuSans-2212"/>
       <use xlink:href="#DejaVuSans-32" x="83.789062"/>
       <use xlink:href="#DejaVuSans-30" x="147.412109"/>
       <use xlink:href="#DejaVuSans-30" x="211.035156"/>
      </g>
     </g>
    </g>
    <g id="ytick_2">
     <g id="line2d_9">
      <g>
       <use xlink:href="#mfc16448fdd" x="92.490625" y="151.376755" style="stroke: #000000; stroke-width: 0.8"/>
      </g>
     </g>
     <g id="text_10">
      <!-- 0 -->
      <g transform="translate(72.765625 158.975193) scale(0.2 -0.2)">
       <use xlink:href="#DejaVuSans-30"/>
      </g>
     </g>
    </g>
    <g id="ytick_3">
     <g id="line2d_10">
      <g>
       <use xlink:href="#mfc16448fdd" x="92.490625" y="68.126962" style="stroke: #000000; stroke-width: 0.8"/>
      </g>
     </g>
     <g id="text_11">
      <!-- 200 -->
      <g transform="translate(47.315625 75.725399) scale(0.2 -0.2)">
       <use xlink:href="#DejaVuSans-32"/>
       <use xlink:href="#DejaVuSans-30" x="63.623047"/>
       <use xlink:href="#DejaVuSans-30" x="127.246094"/>
      </g>
     </g>
    </g>
    <g id="text_12">
     <!-- Loss -->
     <g transform="translate(22.396875 191.970625) rotate(-90) scale(0.2 -0.2)">
      <defs>
       <path id="DejaVuSans-4c" d="M 628 4666 
L 1259 4666 
L 1259 531 
L 3531 531 
L 3531 0 
L 628 0 
L 628 4666 
z
" transform="scale(0.015625)"/>
      </defs>
      <use xlink:href="#DejaVuSans-4c"/>
      <use xlink:href="#DejaVuSans-6f" x="53.962891"/>
      <use xlink:href="#DejaVuSans-73" x="115.144531"/>
      <use xlink:href="#DejaVuSans-73" x="167.244141"/>
     </g>
    </g>
   </g>
   <g id="line2d_11">
    <path d="M 117.854261 114.726306 
L 118.634681 106.081918 
L 119.415101 66.645135 
L 120.19552 44.03625 
L 120.97594 55.607746 
L 121.756359 116.630126 
L 122.536779 138.664661 
L 123.317198 137.321124 
L 124.097618 122.741893 
L 124.878038 120.788415 
L 125.658457 127.999278 
L 126.438877 122.989826 
L 127.219296 108.458537 
L 127.999716 122.646974 
L 128.780135 126.556792 
L 129.560555 123.898785 
L 130.340975 120.201515 
L 131.121394 126.255443 
L 131.901814 122.797609 
L 132.682233 127.006439 
L 133.462653 118.64052 
L 134.243073 124.366742 
L 135.023492 117.662909 
L 135.803912 117.330772 
L 136.584331 114.695364 
L 137.364751 107.764658 
L 138.14517 108.435758 
L 138.92559 107.051208 
L 139.70601 106.219874 
L 140.486429 110.116506 
L 141.266849 106.40337 
L 142.047268 103.735206 
L 142.827688 107.114803 
L 143.608108 106.33327 
L 144.388527 103.507469 
L 145.168947 108.842958 
L 145.949366 102.920055 
L 146.729786 108.429686 
L 147.510205 110.936486 
L 148.290625 110.869457 
L 149.071045 106.939005 
L 149.851464 105.409875 
L 150.631884 110.445841 
L 151.412303 111.131011 
L 152.192723 113.912796 
L 152.973142 112.411065 
L 153.753562 111.591078 
L 154.533982 112.594274 
L 155.314401 115.130586 
L 156.094821 112.662515 
L 156.87524 111.560611 
L 157.65566 112.925905 
L 158.43608 108.346789 
L 159.216499 112.549272 
L 159.996919 114.58122 
L 160.777338 115.179402 
L 161.557758 119.262292 
L 162.338177 117.014571 
L 163.118597 116.380063 
L 163.899017 120.267786 
L 164.679436 120.37667 
L 165.459856 120.879402 
L 166.240275 120.548412 
L 167.020695 123.597646 
L 167.801115 123.431828 
L 168.581534 121.429234 
L 169.361954 122.560572 
L 170.142373 119.85272 
L 170.922793 118.694633 
L 172.483632 118.68102 
L 173.264052 118.119314 
L 174.044471 121.17012 
L 174.824891 119.147663 
L 175.60531 116.7473 
L 176.38573 113.297092 
L 177.166149 118.688744 
L 177.946569 120.343387 
L 178.726989 123.308616 
L 179.507408 120.224883 
L 180.287828 118.109455 
L 181.068247 120.364991 
L 181.848667 123.245243 
L 183.409506 118.407012 
L 184.189926 120.74258 
L 184.970345 122.653338 
L 185.750765 123.836576 
L 186.531184 125.744796 
L 187.311604 123.447651 
L 188.092024 128.318527 
L 188.872443 129.080516 
L 189.652863 128.830815 
L 190.433282 128.20745 
L 191.213702 128.76154 
L 191.994122 132.053196 
L 192.774541 133.596636 
L 193.554961 133.934515 
L 194.33538 135.141517 
L 195.1158 135.137063 
L 195.896219 134.780402 
L 196.676639 135.202134 
L 197.457059 135.093015 
L 198.237478 136.905242 
L 199.798317 142.399589 
L 200.578737 142.128559 
L 201.359156 142.779249 
L 202.139576 139.598641 
L 202.919996 140.408307 
L 203.700415 138.506123 
L 204.480835 139.937779 
L 205.261254 138.802053 
L 206.041674 137.3209 
L 206.822094 136.304856 
L 207.602513 135.089312 
L 208.382933 138.125691 
L 209.163352 137.931203 
L 209.943772 136.48173 
L 210.724191 135.887461 
L 211.504611 134.35985 
L 212.285031 133.177328 
L 213.06545 135.336782 
L 213.84587 134.894951 
L 214.626289 135.405771 
L 215.406709 135.395858 
L 216.187128 136.106534 
L 216.967548 138.160945 
L 218.528387 138.778501 
L 219.308807 139.328544 
L 220.089226 137.455284 
L 220.869646 138.146409 
L 221.650066 139.584531 
L 222.430485 139.54211 
L 223.210905 140.772087 
L 223.991324 139.328314 
L 224.771744 141.270704 
L 226.332583 138.38691 
L 227.113003 138.267975 
L 227.893422 138.407029 
L 228.673842 138.064147 
L 229.454261 136.366411 
L 230.234681 136.725459 
L 231.015101 137.7051 
L 231.79552 136.859223 
L 232.57594 139.049001 
L 233.356359 137.336016 
L 234.136779 137.257625 
L 234.917198 138.794003 
L 235.697618 138.317046 
L 236.478038 138.127537 
L 237.258457 137.085883 
L 238.038877 140.357201 
L 238.819296 142.188057 
L 239.599716 140.211719 
L 240.380135 141.214973 
L 241.160555 140.469004 
L 241.940975 140.399257 
L 242.721394 137.341402 
L 243.501814 136.956775 
L 244.282233 138.004539 
L 245.062653 141.917493 
L 245.843073 141.394417 
L 246.623492 139.770456 
L 247.403912 138.757231 
L 248.184331 139.627896 
L 248.964751 141.258242 
L 249.74517 142.544043 
L 250.52559 142.319792 
L 251.30601 139.759331 
L 252.086429 140.416344 
L 252.866849 141.45395 
L 253.647268 141.363625 
L 254.427688 140.978604 
L 255.208108 142.910652 
L 255.988527 142.90158 
L 256.768947 144.549058 
L 257.549366 145.17122 
L 258.329786 145.44887 
L 259.110205 144.416339 
L 259.890625 144.947962 
L 260.671045 143.814591 
L 261.451464 145.207917 
L 262.231884 145.528567 
L 263.012303 144.861957 
L 263.792723 145.227471 
L 264.573142 144.527959 
L 265.353562 145.046411 
L 266.133982 146.68308 
L 266.914401 147.135187 
L 267.694821 145.32902 
L 268.47524 143.988933 
L 269.25566 145.81337 
L 270.03608 144.652605 
L 270.816499 145.491722 
L 271.596919 145.544312 
L 272.377338 146.479505 
L 273.157758 145.926367 
L 273.938177 146.569906 
L 274.718597 146.635087 
L 275.499017 145.762171 
L 276.279436 146.892018 
L 277.059856 148.983063 
L 277.840275 148.879743 
L 278.620695 147.783513 
L 279.401115 148.254067 
L 280.181534 147.888736 
L 280.961954 146.84581 
L 281.742373 146.202176 
L 282.522793 146.837467 
L 283.303212 146.997663 
L 284.864052 146.666794 
L 286.424891 146.848622 
L 287.20531 146.639285 
L 287.98573 145.433562 
L 288.766149 146.697151 
L 289.546569 146.488051 
L 290.326989 148.265055 
L 291.107408 147.613654 
L 291.887828 147.710403 
L 292.668247 147.419561 
L 293.448667 147.740517 
L 294.229087 146.590609 
L 295.789926 147.987777 
L 297.350765 148.092569 
L 298.131184 147.626153 
L 298.911604 148.346627 
L 299.692024 147.834075 
L 300.472443 146.928657 
L 301.252863 148.067958 
L 302.033282 147.258653 
L 302.813702 148.865305 
L 303.594122 148.410553 
L 304.374541 148.967358 
L 305.154961 149.221557 
L 305.93538 149.822095 
L 306.7158 148.406232 
L 307.496219 148.806973 
L 308.276639 148.539764 
L 309.057059 149.07262 
L 309.837478 148.908721 
L 310.617898 148.61838 
L 312.178737 149.440954 
L 312.959156 149.36957 
L 313.739576 150.013568 
L 314.519996 149.776241 
L 315.300415 150.325511 
L 316.080835 149.880589 
L 316.861254 151.162299 
L 317.641674 149.985682 
L 318.422094 151.13516 
L 319.202513 149.965057 
L 320.763352 149.636812 
L 321.543772 150.277934 
L 322.324191 150.130294 
L 323.104611 149.369379 
L 323.885031 148.998461 
L 324.66545 149.263791 
L 325.44587 149.411097 
L 326.226289 150.464825 
L 327.006709 150.199464 
L 327.787128 150.562235 
L 328.567548 150.590935 
L 329.347968 151.04972 
L 330.128387 151.841912 
L 330.908807 151.427364 
L 331.689226 151.175547 
L 332.469646 152.473986 
L 333.250066 151.552817 
L 334.030485 151.225341 
L 334.810905 151.595681 
L 335.591324 152.660834 
L 336.371744 151.773162 
L 337.152163 152.094372 
L 337.932583 152.17824 
L 338.713003 151.68895 
L 341.054261 152.286212 
L 341.834681 152.200918 
L 342.615101 152.280159 
L 343.39552 151.754625 
L 344.17594 152.272882 
L 345.736779 151.842046 
L 346.517198 152.141914 
L 347.297618 152.770268 
L 348.078038 152.207484 
L 348.858457 152.377094 
L 349.638877 152.188492 
L 350.419296 152.676249 
L 351.199716 151.731846 
L 352.760555 151.345152 
L 353.540975 152.186997 
L 354.321394 152.122104 
L 355.101814 151.359375 
L 355.882233 151.397048 
L 356.662653 151.085501 
L 358.223492 152.610465 
L 359.003912 152.103367 
L 359.784331 151.755312 
L 360.564751 151.745505 
L 361.34517 151.555412 
L 362.12559 151.233799 
L 363.686429 151.617299 
L 364.466849 151.69156 
L 365.247268 151.931251 
L 366.027688 150.713665 
L 366.808108 151.562487 
L 367.588527 151.106358 
L 369.149366 150.617443 
L 369.929786 151.580261 
L 370.710205 151.282821 
L 371.490625 151.651857 
L 372.271045 151.11709 
L 373.051464 151.018062 
L 373.831884 149.816142 
L 374.612303 150.538729 
L 375.392723 151.54643 
L 376.173142 151.134366 
L 376.953562 150.083957 
L 377.733982 149.856048 
L 378.514401 150.084806 
L 380.07524 150.905625 
L 381.63608 150.592418 
L 382.416499 150.540132 
L 383.196919 150.835766 
L 383.977338 149.605204 
L 384.757758 150.155542 
L 385.538177 148.359728 
L 386.318597 149.069275 
L 387.099017 149.470042 
L 387.879436 148.774616 
L 388.659856 149.156396 
L 389.440275 149.200486 
L 390.220695 148.372847 
L 391.001115 148.781279 
L 391.781534 148.915586 
L 392.561954 148.736299 
L 393.342373 148.278376 
L 394.122793 150.048145 
L 394.903212 149.794805 
L 395.683632 148.207867 
L 396.464052 147.006615 
L 397.244471 149.701961 
L 398.024891 148.584931 
L 398.80531 150.113674 
L 399.58573 149.148353 
L 400.366149 149.050289 
L 401.146569 149.482133 
L 401.926989 149.221502 
L 403.487828 149.716106 
L 405.048667 149.448828 
L 405.829087 148.575808 
L 406.609506 148.865793 
L 407.389926 149.033621 
L 408.170345 149.043221 
L 408.950765 148.766445 
L 409.731184 150.10204 
L 410.511604 149.976308 
L 411.292024 149.01284 
L 412.852863 150.415562 
L 413.633282 150.191345 
L 414.413702 149.765998 
L 415.194122 150.542045 
L 415.974541 151.094122 
L 416.754961 150.749297 
L 417.53538 150.748543 
L 418.3158 150.552951 
L 419.096219 150.811243 
L 419.876639 150.267491 
L 420.657059 150.78941 
L 421.437478 151.586957 
L 422.217898 150.325004 
L 422.998317 151.032796 
L 423.778737 150.88367 
L 424.559156 150.884052 
L 425.339576 151.261011 
L 426.119996 150.707683 
L 426.900415 150.648162 
L 427.680835 149.982535 
L 428.461254 150.220711 
L 429.241674 150.660541 
L 430.022094 150.245039 
L 430.802513 151.090624 
L 431.582933 151.255264 
L 432.363352 150.92556 
L 433.143772 151.095426 
L 433.924191 151.622911 
L 434.704611 151.330097 
L 435.485031 151.27642 
L 436.26545 151.926709 
L 437.04587 151.644614 
L 437.826289 151.748004 
L 438.606709 151.589741 
L 439.387128 151.096936 
L 440.167548 151.232504 
L 440.947968 152.274212 
L 441.728387 151.431557 
L 442.508807 152.15493 
L 443.289226 150.750337 
L 444.069646 151.642762 
L 444.850066 152.003527 
L 445.630485 151.370928 
L 446.410905 151.81159 
L 448.752163 152.347011 
L 449.532583 152.287551 
L 450.313003 152.792889 
L 451.093422 152.330353 
L 451.873842 152.840892 
L 452.654261 152.952117 
L 453.434681 152.415944 
L 454.215101 152.560223 
L 454.99552 151.791173 
L 455.77594 151.744005 
L 456.556359 151.92552 
L 457.336779 151.236089 
L 458.117198 151.001596 
L 458.897618 152.275131 
L 459.678038 151.230055 
L 462.019296 152.57704 
L 462.799716 152.080164 
L 463.580135 151.791563 
L 464.360555 152.511252 
L 465.140975 151.929362 
L 465.921394 152.536765 
L 466.701814 151.959364 
L 467.482233 152.067056 
L 468.262653 152.043511 
L 469.823492 152.304802 
L 470.603912 151.700389 
L 471.384331 151.420254 
L 472.164751 151.287794 
L 472.94517 151.665874 
L 473.72559 152.210526 
L 474.50601 152.047336 
L 475.286429 152.215515 
L 476.066849 151.418016 
L 476.847268 151.783619 
L 478.408108 151.755368 
L 479.188527 152.372138 
L 480.749366 152.398249 
L 481.529786 152.2066 
L 482.310205 152.143606 
L 483.090625 152.661245 
L 483.871045 152.418168 
L 484.651464 151.076607 
L 485.431884 152.230132 
L 486.212303 152.254543 
L 486.992723 152.085501 
L 487.773142 152.097016 
L 489.333982 151.575627 
L 490.894821 151.848856 
L 491.67524 151.953318 
L 492.45566 152.623378 
L 494.016499 151.842257 
L 494.796919 152.267785 
L 496.357758 152.143958 
L 497.138177 150.987889 
L 497.918597 151.397289 
L 498.699017 151.975647 
L 499.479436 151.998391 
L 500.259856 151.335571 
L 501.040275 151.682935 
L 501.820695 152.632733 
L 502.601115 152.19404 
L 504.942373 151.946123 
L 505.722793 152.200519 
L 506.503212 152.193347 
L 507.283632 151.984494 
L 508.844471 152.365496 
L 509.624891 152.266247 
L 510.40531 151.934436 
L 511.18573 152.40168 
L 511.966149 152.065543 
L 512.746569 151.446763 
L 513.526989 151.828722 
L 514.307408 151.947018 
L 515.087828 152.448695 
L 515.868247 151.844327 
L 516.648667 151.506004 
L 517.429087 151.857779 
L 518.209506 151.871857 
L 518.989926 151.079205 
L 519.770345 151.507201 
L 520.550765 151.45044 
L 521.331184 151.647678 
L 522.111604 151.448021 
L 522.892024 151.495779 
L 523.672443 150.817983 
L 524.452863 151.706664 
L 525.233282 151.308106 
L 526.013702 151.276547 
L 526.794122 151.5955 
L 527.574541 151.62933 
L 528.354961 151.070949 
L 529.13538 151.645706 
L 529.9158 151.69572 
L 531.476639 151.149644 
L 532.257059 151.458323 
L 533.037478 151.46821 
L 533.817898 152.024571 
L 534.598317 152.047261 
L 535.378737 151.13832 
L 536.159156 151.604247 
L 536.939576 151.562435 
L 537.719996 151.300639 
L 538.500415 151.701181 
L 539.280835 151.454309 
L 540.061254 151.537243 
L 540.841674 151.037532 
L 541.622094 151.344607 
L 542.402513 151.194195 
L 543.182933 151.298938 
L 543.963352 151.180666 
L 545.524191 151.24606 
L 546.304611 151.461987 
L 547.085031 151.801094 
L 547.86545 151.715007 
L 548.64587 151.495821 
L 549.426289 151.575049 
L 550.206709 152.208455 
L 550.987128 151.707065 
L 551.767548 151.726826 
L 552.547968 151.988182 
L 553.328387 152.692704 
L 554.108807 152.089559 
L 555.669646 152.427433 
L 556.450066 152.218327 
L 557.230485 152.372906 
L 558.010905 152.029724 
L 558.791324 152.286971 
L 559.571744 151.970467 
L 560.352163 152.555662 
L 561.132583 152.245332 
L 562.693422 152.541199 
L 563.473842 151.979995 
L 564.254261 152.520662 
L 565.034681 152.584042 
L 565.815101 152.14573 
L 566.59552 152.190755 
L 567.37594 151.690852 
L 568.156359 152.114592 
L 568.936779 152.29273 
L 570.497618 152.107116 
L 571.278038 152.648587 
L 572.058457 152.284687 
L 573.619296 152.570828 
L 574.399716 151.94545 
L 575.180135 152.373726 
L 576.740975 152.544228 
L 577.521394 152.822214 
L 578.301814 152.360177 
L 579.082233 152.090089 
L 579.862653 152.535167 
L 581.423492 152.221624 
L 582.203912 152.436898 
L 582.984331 152.35947 
L 584.54517 152.520215 
L 585.32559 153.016444 
L 586.10601 151.731253 
L 586.886429 152.950878 
L 587.666849 152.456644 
L 589.227688 152.995511 
L 590.008108 152.141711 
L 590.788527 152.638712 
L 591.568947 152.800987 
L 593.129786 152.785811 
L 593.910205 152.008473 
L 594.690625 152.737062 
L 595.471045 152.400565 
L 596.251464 152.305675 
L 597.031884 151.975513 
L 597.812303 152.573437 
L 598.592723 151.750127 
L 599.373142 152.303332 
L 600.153562 148.524838 
L 600.933982 151.957175 
L 601.714401 151.768497 
L 602.494821 151.228879 
L 603.27524 149.876511 
L 604.05566 150.908245 
L 604.83608 150.634714 
L 605.616499 150.781189 
L 606.396919 151.133643 
L 607.177338 150.985306 
L 607.957758 151.421726 
L 608.738177 151.07346 
L 610.299017 151.445347 
L 611.079436 151.544725 
L 611.859856 151.284326 
L 612.640275 151.233488 
L 613.420695 151.776222 
L 614.201115 152.068305 
L 614.981534 151.888559 
L 615.761954 152.299186 
L 616.542373 152.396925 
L 617.322793 152.804566 
L 618.103212 151.928435 
L 619.664052 151.75361 
L 620.444471 152.006023 
L 621.224891 152.058703 
L 622.00531 151.994579 
L 622.78573 151.590229 
L 624.346569 151.647107 
L 625.126989 151.896192 
L 625.126989 151.896192 
" clip-path="url(#p9feb893657)" style="fill: none; stroke: #1f77b4; stroke-width: 1.5; stroke-linecap: square"/>
   </g>
   <g id="line2d_12">
    <path d="M 117.854261 257.658289 
L 118.634681 262.165711 
L 119.415101 291.943205 
L 120.19552 296.03625 
L 121.756359 271.11781 
L 122.536779 227.057898 
L 123.317198 207.5709 
L 124.097618 203.182002 
L 124.878038 203.974264 
L 125.658457 211.845554 
L 126.438877 205.520858 
L 127.219296 201.196422 
L 127.999716 195.910364 
L 128.780135 195.703205 
L 129.560555 192.753227 
L 130.340975 197.401453 
L 131.121394 172.184989 
L 131.901814 172.103903 
L 132.682233 169.627321 
L 133.462653 171.510379 
L 134.243073 166.488463 
L 135.023492 169.662831 
L 135.803912 167.766312 
L 136.584331 168.409239 
L 137.364751 168.391562 
L 138.14517 165.287616 
L 138.92559 166.881572 
L 139.70601 166.794035 
L 140.486429 165.094572 
L 141.266849 166.165148 
L 142.047268 165.451608 
L 142.827688 164.010929 
L 143.608108 163.25549 
L 144.388527 164.862355 
L 145.168947 163.978923 
L 145.949366 163.485609 
L 147.510205 161.702402 
L 148.290625 160.420844 
L 149.071045 164.815428 
L 149.851464 163.952454 
L 150.631884 162.432016 
L 151.412303 163.099974 
L 152.192723 162.512979 
L 152.973142 162.265303 
L 153.753562 163.58709 
L 154.533982 161.410305 
L 155.314401 162.710343 
L 156.094821 161.565435 
L 156.87524 161.16584 
L 157.65566 161.539059 
L 158.43608 162.557454 
L 159.216499 161.171452 
L 159.996919 161.384449 
L 160.777338 160.92679 
L 161.557758 160.831448 
L 163.118597 161.328739 
L 163.899017 161.196216 
L 164.679436 161.194354 
L 165.459856 161.482621 
L 166.240275 161.201429 
L 167.020695 159.7919 
L 167.801115 160.884693 
L 168.581534 160.064798 
L 169.361954 160.550759 
L 170.142373 162.077185 
L 170.922793 163.054654 
L 171.703212 160.376997 
L 172.483632 163.420413 
L 173.264052 160.81798 
L 174.044471 160.706714 
L 174.824891 161.975153 
L 175.60531 162.97898 
L 176.38573 161.428681 
L 177.166149 160.805188 
L 178.726989 160.193846 
L 179.507408 161.309852 
L 180.287828 162.631121 
L 181.068247 161.251941 
L 181.848667 159.442412 
L 182.629087 161.834268 
L 183.409506 161.591212 
L 184.189926 160.94865 
L 184.970345 161.58259 
L 185.750765 161.661909 
L 186.531184 162.60633 
L 188.092024 161.360388 
L 189.652863 161.703732 
L 190.433282 160.981433 
L 191.994122 161.378065 
L 193.554961 159.80897 
L 194.33538 160.21275 
L 195.1158 160.462935 
L 195.896219 161.088266 
L 197.457059 161.389012 
L 198.237478 160.004467 
L 199.017898 161.423814 
L 199.798317 161.588497 
L 200.578737 160.70362 
L 201.359156 161.311015 
L 202.139576 162.288528 
L 202.919996 161.574032 
L 203.700415 162.933584 
L 204.480835 162.761098 
L 205.261254 161.823109 
L 206.041674 163.255695 
L 206.822094 162.48772 
L 207.602513 162.510713 
L 208.382933 162.845991 
L 209.163352 162.220304 
L 209.943772 162.518876 
L 210.724191 163.464852 
L 211.504611 164.100062 
L 212.285031 161.71733 
L 213.06545 160.953926 
L 213.84587 162.188098 
L 215.406709 161.382858 
L 216.187128 162.157181 
L 216.967548 162.385889 
L 217.747968 160.804717 
L 218.528387 161.59229 
L 219.308807 161.478432 
L 220.089226 161.686822 
L 220.869646 162.509587 
L 221.650066 161.135064 
L 222.430485 161.60804 
L 223.210905 162.642114 
L 223.991324 163.370876 
L 224.771744 161.109782 
L 225.552163 153.752785 
L 226.332583 154.884893 
L 227.113003 154.642952 
L 227.893422 156.15602 
L 228.673842 156.257159 
L 229.454261 154.933457 
L 230.234681 156.047679 
L 231.015101 156.254787 
L 231.79552 157.181505 
L 232.57594 156.53724 
L 233.356359 156.437924 
L 234.136779 156.791371 
L 234.917198 156.526013 
L 235.697618 156.899174 
L 236.478038 156.612682 
L 237.258457 155.971204 
L 238.038877 156.374247 
L 239.599716 156.676973 
L 240.380135 156.380954 
L 241.160555 156.744293 
L 241.940975 156.508302 
L 243.501814 156.742195 
L 244.282233 156.015266 
L 245.062653 156.667905 
L 246.623492 156.571618 
L 247.403912 156.876875 
L 248.184331 157.011189 
L 249.74517 156.562438 
L 250.52559 157.11912 
L 251.30601 157.288222 
L 252.086429 156.918805 
L 252.866849 156.340906 
L 253.647268 157.068537 
L 254.427688 156.310565 
L 255.988527 155.798621 
L 256.768947 156.372213 
L 257.549366 156.620934 
L 258.329786 156.340232 
L 259.110205 155.934658 
L 259.890625 155.997717 
L 260.671045 156.237635 
L 261.451464 156.252845 
L 262.231884 155.534283 
L 263.012303 156.106492 
L 263.792723 155.971055 
L 264.573142 155.262929 
L 265.353562 155.565248 
L 266.133982 155.523103 
L 266.914401 155.801346 
L 267.694821 156.566333 
L 268.47524 156.216639 
L 269.25566 156.133157 
L 270.03608 155.391582 
L 270.816499 155.66232 
L 271.596919 156.145638 
L 272.377338 155.672539 
L 273.157758 155.874484 
L 273.938177 155.743108 
L 274.718597 156.238413 
L 275.499017 155.989438 
L 276.279436 156.156793 
L 277.059856 156.440338 
L 278.620695 155.672807 
L 279.401115 155.631246 
L 280.181534 155.827528 
L 280.961954 156.184732 
L 281.742373 155.693904 
L 282.522793 156.168457 
L 283.303212 156.299126 
L 284.083632 155.762169 
L 285.644471 156.752607 
L 286.424891 155.909613 
L 287.20531 156.437744 
L 288.766149 156.503263 
L 289.546569 156.287067 
L 290.326989 156.348738 
L 291.107408 156.141802 
L 291.887828 156.48928 
L 292.668247 155.958175 
L 293.448667 155.93672 
L 294.229087 156.125692 
L 295.009506 156.556642 
L 295.789926 156.08584 
L 296.570345 155.853602 
L 297.350765 156.224566 
L 298.911604 155.977781 
L 299.692024 156.594103 
L 300.472443 155.667991 
L 302.033282 156.37959 
L 302.813702 156.129236 
L 303.594122 156.608581 
L 304.374541 155.852199 
L 305.154961 155.933841 
L 305.93538 155.823862 
L 306.7158 156.261902 
L 307.496219 156.217012 
L 308.276639 156.433896 
L 309.057059 156.219792 
L 309.837478 156.336659 
L 310.617898 156.096349 
L 311.398317 156.14078 
L 312.178737 156.421176 
L 314.519996 156.095558 
L 315.300415 157.212045 
L 316.080835 156.587763 
L 316.861254 156.30008 
L 317.641674 156.348145 
L 318.422094 156.214621 
L 319.202513 156.433314 
L 319.982933 156.347303 
L 321.543772 156.730407 
L 322.324191 156.311451 
L 323.104611 156.422137 
L 323.885031 156.363393 
L 324.66545 156.605773 
L 327.787128 156.104843 
L 328.567548 156.384421 
L 329.347968 156.488825 
L 330.128387 156.398473 
L 330.908807 156.77701 
L 332.469646 156.438086 
L 333.250066 156.575574 
L 334.030485 156.895077 
L 334.810905 156.586644 
L 335.591324 156.758388 
L 336.371744 156.656062 
L 337.152163 156.965966 
L 338.713003 156.474212 
L 339.493422 156.979237 
L 341.834681 156.78095 
L 342.615101 157.101613 
L 343.39552 156.75467 
L 344.17594 156.551084 
L 345.736779 157.098151 
L 346.517198 156.494078 
L 347.297618 156.470489 
L 348.078038 156.88698 
L 348.858457 156.736063 
L 349.638877 156.7347 
L 350.419296 157.464837 
L 351.199716 157.245992 
L 351.980135 156.862099 
L 352.760555 156.935837 
L 353.540975 156.769388 
L 354.321394 157.033425 
L 355.101814 156.931994 
L 356.662653 157.300986 
L 357.443073 156.96563 
L 358.223492 157.144787 
L 359.784331 156.797355 
L 360.564751 157.022033 
L 361.34517 156.650283 
L 362.12559 156.643316 
L 362.90601 157.060201 
L 363.686429 156.635579 
L 365.247268 156.742267 
L 366.027688 156.495117 
L 366.808108 156.37065 
L 367.588527 156.805563 
L 368.368947 157.010789 
L 369.149366 156.41239 
L 369.929786 156.30752 
L 370.710205 156.518043 
L 371.490625 154.394413 
L 372.271045 153.868807 
L 373.051464 154.745371 
L 373.831884 154.964107 
L 374.612303 155.882272 
L 376.953562 155.2932 
L 378.514401 155.89478 
L 379.294821 155.705633 
L 380.07524 155.735094 
L 380.85566 156.291481 
L 382.416499 155.58715 
L 383.196919 155.645655 
L 383.977338 153.043477 
L 384.757758 154.084499 
L 385.538177 154.435394 
L 386.318597 154.271206 
L 387.099017 154.535556 
L 387.879436 155.139117 
L 388.659856 154.806182 
L 389.440275 155.013079 
L 390.220695 154.635972 
L 391.001115 155.060609 
L 391.781534 155.242783 
L 392.561954 154.710172 
L 393.342373 155.23496 
L 395.683632 154.912978 
L 396.464052 154.600437 
L 397.244471 154.867425 
L 398.024891 154.496443 
L 398.80531 155.003689 
L 400.366149 155.096093 
L 401.146569 154.993173 
L 401.926989 155.095595 
L 402.707408 155.423929 
L 405.048667 155.077029 
L 405.829087 155.272574 
L 406.609506 154.511676 
L 407.389926 155.031347 
L 408.170345 155.333706 
L 408.950765 155.833112 
L 409.731184 155.491651 
L 411.292024 155.26391 
L 412.072443 155.533926 
L 412.852863 155.532608 
L 413.633282 155.347737 
L 414.413702 155.905205 
L 415.974541 155.375726 
L 416.754961 155.269938 
L 417.53538 155.835803 
L 419.096219 155.153243 
L 421.437478 155.751553 
L 422.998317 155.403771 
L 423.778737 155.480373 
L 424.559156 155.800394 
L 425.339576 155.63988 
L 426.119996 156.279948 
L 426.900415 155.760215 
L 428.461254 155.431543 
L 430.802513 155.709706 
L 431.582933 155.219692 
L 432.363352 155.442174 
L 433.143772 155.890347 
L 434.704611 156.019055 
L 435.485031 155.491745 
L 437.826289 155.350416 
L 438.606709 155.346429 
L 439.387128 155.665712 
L 440.167548 155.630159 
L 440.947968 156.297099 
L 441.728387 155.577022 
L 442.508807 154.636774 
L 443.289226 155.540049 
L 444.850066 155.596634 
L 445.630485 155.315462 
L 446.410905 155.58118 
L 447.191324 154.986037 
L 449.532583 155.552048 
L 452.654261 155.310278 
L 453.434681 155.408083 
L 454.215101 155.196475 
L 454.99552 155.538965 
L 455.77594 155.442706 
L 456.556359 155.091318 
L 457.336779 153.608385 
L 458.897618 154.714612 
L 459.678038 154.891346 
L 460.458457 154.903836 
L 461.238877 154.621878 
L 462.019296 155.658852 
L 462.799716 155.249258 
L 463.580135 155.713823 
L 464.360555 155.021825 
L 465.921394 155.150075 
L 466.701814 155.154992 
L 467.482233 155.317545 
L 468.262653 155.151199 
L 469.043073 155.264146 
L 469.823492 155.587818 
L 472.94517 155.074538 
L 473.72559 155.645964 
L 474.50601 155.841646 
L 475.286429 155.354586 
L 476.066849 155.051135 
L 476.847268 155.565542 
L 477.627688 155.17962 
L 478.408108 155.260668 
L 479.188527 155.475398 
L 479.968947 155.165695 
L 480.749366 155.24334 
L 481.529786 155.072499 
L 482.310205 155.269896 
L 483.090625 154.818812 
L 483.871045 155.188621 
L 484.651464 155.108289 
L 485.431884 154.669359 
L 486.212303 155.152197 
L 486.992723 155.156871 
L 487.773142 154.848813 
L 488.553562 155.390366 
L 489.333982 155.278702 
L 490.114401 155.436354 
L 490.894821 155.245938 
L 491.67524 155.244318 
L 492.45566 154.974139 
L 493.23608 155.382234 
L 494.016499 155.004301 
L 494.796919 154.988872 
L 495.577338 155.262399 
L 497.138177 155.096087 
L 497.918597 154.837695 
L 499.479436 155.423065 
L 500.259856 155.028617 
L 501.040275 155.512282 
L 501.820695 155.296887 
L 502.601115 155.225788 
L 503.381534 154.743231 
L 504.161954 155.366563 
L 505.722793 155.130873 
L 506.503212 154.707484 
L 507.283632 154.986333 
L 508.844471 154.818989 
L 509.624891 155.046058 
L 510.40531 154.702934 
L 511.966149 155.039919 
L 512.746569 154.975369 
L 513.526989 155.334182 
L 514.307408 154.849228 
L 515.087828 155.037184 
L 515.868247 154.970428 
L 516.648667 155.284791 
L 517.429087 154.96514 
L 518.209506 155.305088 
L 518.989926 154.640369 
L 519.770345 155.181552 
L 522.111604 155.488724 
L 522.892024 154.730194 
L 525.233282 154.930242 
L 526.013702 155.111416 
L 526.794122 155.045237 
L 527.574541 155.248884 
L 528.354961 154.713462 
L 529.13538 154.878149 
L 529.9158 155.207209 
L 530.696219 154.545471 
L 532.257059 155.620813 
L 533.037478 155.274956 
L 533.817898 155.497977 
L 534.598317 155.070469 
L 535.378737 155.350361 
L 536.159156 154.947572 
L 536.939576 155.52839 
L 537.719996 155.107947 
L 538.500415 155.580213 
L 539.280835 155.139409 
L 540.061254 155.178293 
L 540.841674 155.381478 
L 541.622094 155.187845 
L 542.402513 155.494437 
L 543.182933 155.217882 
L 543.963352 155.285562 
L 544.743772 155.031702 
L 545.524191 155.296398 
L 546.304611 154.910107 
L 547.085031 155.275375 
L 547.86545 155.15732 
L 548.64587 155.31056 
L 550.206709 155.333147 
L 551.767548 154.904764 
L 552.547968 155.58039 
L 554.108807 155.156327 
L 554.889226 155.373803 
L 555.669646 155.249042 
L 556.450066 155.254083 
L 557.230485 155.55925 
L 558.010905 155.219763 
L 558.791324 155.562492 
L 559.571744 155.304436 
L 562.693422 155.284766 
L 564.254261 155.369909 
L 565.815101 155.254357 
L 566.59552 155.33416 
L 567.37594 155.032186 
L 568.936779 155.323129 
L 569.717198 155.204486 
L 570.497618 155.311507 
L 571.278038 155.125744 
L 573.619296 155.663483 
L 574.399716 155.077817 
L 575.180135 154.902083 
L 575.960555 155.02242 
L 576.740975 155.328052 
L 579.082233 155.428283 
L 579.862653 155.442195 
L 580.643073 155.699922 
L 582.984331 155.499555 
L 583.764751 155.280517 
L 585.32559 155.843515 
L 586.10601 154.460927 
L 586.886429 155.107892 
L 590.788527 155.057375 
L 591.568947 155.366999 
L 592.349366 155.084903 
L 593.129786 153.80868 
L 593.910205 154.421182 
L 594.690625 154.517176 
L 595.471045 154.371533 
L 596.251464 155.156259 
L 597.812303 155.151924 
L 598.592723 154.886121 
L 599.373142 155.168401 
L 600.153562 151.549215 
L 600.933982 153.671801 
L 601.714401 154.210377 
L 602.494821 153.137968 
L 603.27524 153.212823 
L 604.05566 153.538874 
L 604.83608 153.63788 
L 605.616499 153.866057 
L 606.396919 153.574882 
L 607.177338 153.807505 
L 607.957758 153.786339 
L 608.738177 153.559401 
L 609.518597 154.12274 
L 610.299017 153.933107 
L 611.079436 154.043313 
L 611.859856 153.748751 
L 612.640275 154.127582 
L 613.420695 154.275268 
L 614.201115 153.823059 
L 614.981534 153.913277 
L 615.761954 154.303842 
L 616.542373 154.969832 
L 617.322793 153.886911 
L 618.103212 153.764402 
L 619.664052 154.095029 
L 620.444471 153.892431 
L 621.224891 154.085215 
L 622.00531 153.970061 
L 622.78573 154.195834 
L 623.566149 154.003589 
L 624.346569 154.439732 
L 625.126989 154.185034 
L 625.126989 154.185034 
" clip-path="url(#p9feb893657)" style="fill: none; stroke: #ff7f0e; stroke-width: 1.5; stroke-linecap: square"/>
   </g>
   <g id="patch_3">
    <path d="M 92.490625 308.63625 
L 92.490625 31.43625 
" style="fill: none; stroke: #000000; stroke-width: 0.8; stroke-linejoin: miter; stroke-linecap: square"/>
   </g>
   <g id="patch_4">
    <path d="M 650.490625 308.63625 
L 650.490625 31.43625 
" style="fill: none; stroke: #000000; stroke-width: 0.8; stroke-linejoin: miter; stroke-linecap: square"/>
   </g>
   <g id="patch_5">
    <path d="M 92.490625 308.63625 
L 650.490625 308.63625 
" style="fill: none; stroke: #000000; stroke-width: 0.8; stroke-linejoin: miter; stroke-linecap: square"/>
   </g>
   <g id="patch_6">
    <path d="M 92.490625 31.43625 
L 650.490625 31.43625 
" style="fill: none; stroke: #000000; stroke-width: 0.8; stroke-linejoin: miter; stroke-linecap: square"/>
   </g>
   <g id="text_13">
    <!-- Generator and Discriminator Loss During Training -->
    <g transform="translate(74.258125 25.43625) scale(0.24 -0.24)">
     <defs>
      <path id="DejaVuSans-47" d="M 3809 666 
L 3809 1919 
L 2778 1919 
L 2778 2438 
L 4434 2438 
L 4434 434 
Q 4069 175 3628 42 
Q 3188 -91 2688 -91 
Q 1594 -91 976 548 
Q 359 1188 359 2328 
Q 359 3472 976 4111 
Q 1594 4750 2688 4750 
Q 3144 4750 3555 4637 
Q 3966 4525 4313 4306 
L 4313 3634 
Q 3963 3931 3569 4081 
Q 3175 4231 2741 4231 
Q 1884 4231 1454 3753 
Q 1025 3275 1025 2328 
Q 1025 1384 1454 906 
Q 1884 428 2741 428 
Q 3075 428 3337 486 
Q 3600 544 3809 666 
z
" transform="scale(0.015625)"/>
      <path id="DejaVuSans-20" transform="scale(0.015625)"/>
      <path id="DejaVuSans-64" d="M 2906 2969 
L 2906 4863 
L 3481 4863 
L 3481 0 
L 2906 0 
L 2906 525 
Q 2725 213 2448 61 
Q 2172 -91 1784 -91 
Q 1150 -91 751 415 
Q 353 922 353 1747 
Q 353 2572 751 3078 
Q 1150 3584 1784 3584 
Q 2172 3584 2448 3432 
Q 2725 3281 2906 2969 
z
M 947 1747 
Q 947 1113 1208 752 
Q 1469 391 1925 391 
Q 2381 391 2643 752 
Q 2906 1113 2906 1747 
Q 2906 2381 2643 2742 
Q 2381 3103 1925 3103 
Q 1469 3103 1208 2742 
Q 947 2381 947 1747 
z
" transform="scale(0.015625)"/>
      <path id="DejaVuSans-44" d="M 1259 4147 
L 1259 519 
L 2022 519 
Q 2988 519 3436 956 
Q 3884 1394 3884 2338 
Q 3884 3275 3436 3711 
Q 2988 4147 2022 4147 
L 1259 4147 
z
M 628 4666 
L 1925 4666 
Q 3281 4666 3915 4102 
Q 4550 3538 4550 2338 
Q 4550 1131 3912 565 
Q 3275 0 1925 0 
L 628 0 
L 628 4666 
z
" transform="scale(0.015625)"/>
      <path id="DejaVuSans-63" d="M 3122 3366 
L 3122 2828 
Q 2878 2963 2633 3030 
Q 2388 3097 2138 3097 
Q 1578 3097 1268 2742 
Q 959 2388 959 1747 
Q 959 1106 1268 751 
Q 1578 397 2138 397 
Q 2388 397 2633 464 
Q 2878 531 3122 666 
L 3122 134 
Q 2881 22 2623 -34 
Q 2366 -91 2075 -91 
Q 1284 -91 818 406 
Q 353 903 353 1747 
Q 353 2603 823 3093 
Q 1294 3584 2113 3584 
Q 2378 3584 2631 3529 
Q 2884 3475 3122 3366 
z
" transform="scale(0.015625)"/>
      <path id="DejaVuSans-6d" d="M 3328 2828 
Q 3544 3216 3844 3400 
Q 4144 3584 4550 3584 
Q 5097 3584 5394 3201 
Q 5691 2819 5691 2113 
L 5691 0 
L 5113 0 
L 5113 2094 
Q 5113 2597 4934 2840 
Q 4756 3084 4391 3084 
Q 3944 3084 3684 2787 
Q 3425 2491 3425 1978 
L 3425 0 
L 2847 0 
L 2847 2094 
Q 2847 2600 2669 2842 
Q 2491 3084 2119 3084 
Q 1678 3084 1418 2786 
Q 1159 2488 1159 1978 
L 1159 0 
L 581 0 
L 581 3500 
L 1159 3500 
L 1159 2956 
Q 1356 3278 1631 3431 
Q 1906 3584 2284 3584 
Q 2666 3584 2933 3390 
Q 3200 3197 3328 2828 
z
" transform="scale(0.015625)"/>
      <path id="DejaVuSans-75" d="M 544 1381 
L 544 3500 
L 1119 3500 
L 1119 1403 
Q 1119 906 1312 657 
Q 1506 409 1894 409 
Q 2359 409 2629 706 
Q 2900 1003 2900 1516 
L 2900 3500 
L 3475 3500 
L 3475 0 
L 2900 0 
L 2900 538 
Q 2691 219 2414 64 
Q 2138 -91 1772 -91 
Q 1169 -91 856 284 
Q 544 659 544 1381 
z
M 1991 3584 
L 1991 3584 
z
" transform="scale(0.015625)"/>
      <path id="DejaVuSans-67" d="M 2906 1791 
Q 2906 2416 2648 2759 
Q 2391 3103 1925 3103 
Q 1463 3103 1205 2759 
Q 947 2416 947 1791 
Q 947 1169 1205 825 
Q 1463 481 1925 481 
Q 2391 481 2648 825 
Q 2906 1169 2906 1791 
z
M 3481 434 
Q 3481 -459 3084 -895 
Q 2688 -1331 1869 -1331 
Q 1566 -1331 1297 -1286 
Q 1028 -1241 775 -1147 
L 775 -588 
Q 1028 -725 1275 -790 
Q 1522 -856 1778 -856 
Q 2344 -856 2625 -561 
Q 2906 -266 2906 331 
L 2906 616 
Q 2728 306 2450 153 
Q 2172 0 1784 0 
Q 1141 0 747 490 
Q 353 981 353 1791 
Q 353 2603 747 3093 
Q 1141 3584 1784 3584 
Q 2172 3584 2450 3431 
Q 2728 3278 2906 2969 
L 2906 3500 
L 3481 3500 
L 3481 434 
z
" transform="scale(0.015625)"/>
      <path id="DejaVuSans-54" d="M -19 4666 
L 3928 4666 
L 3928 4134 
L 2272 4134 
L 2272 0 
L 1638 0 
L 1638 4134 
L -19 4134 
L -19 4666 
z
" transform="scale(0.015625)"/>
     </defs>
     <use xlink:href="#DejaVuSans-47"/>
     <use xlink:href="#DejaVuSans-65" x="77.490234"/>
     <use xlink:href="#DejaVuSans-6e" x="139.013672"/>
     <use xlink:href="#DejaVuSans-65" x="202.392578"/>
     <use xlink:href="#DejaVuSans-72" x="263.916016"/>
     <use xlink:href="#DejaVuSans-61" x="305.029297"/>
     <use xlink:href="#DejaVuSans-74" x="366.308594"/>
     <use xlink:href="#DejaVuSans-6f" x="405.517578"/>
     <use xlink:href="#DejaVuSans-72" x="466.699219"/>
     <use xlink:href="#DejaVuSans-20" x="507.8125"/>
     <use xlink:href="#DejaVuSans-61" x="539.599609"/>
     <use xlink:href="#DejaVuSans-6e" x="600.878906"/>
     <use xlink:href="#DejaVuSans-64" x="664.257812"/>
     <use xlink:href="#DejaVuSans-20" x="727.734375"/>
     <use xlink:href="#DejaVuSans-44" x="759.521484"/>
     <use xlink:href="#DejaVuSans-69" x="836.523438"/>
     <use xlink:href="#DejaVuSans-73" x="864.306641"/>
     <use xlink:href="#DejaVuSans-63" x="916.40625"/>
     <use xlink:href="#DejaVuSans-72" x="971.386719"/>
     <use xlink:href="#DejaVuSans-69" x="1012.5"/>
     <use xlink:href="#DejaVuSans-6d" x="1040.283203"/>
     <use xlink:href="#DejaVuSans-69" x="1137.695312"/>
     <use xlink:href="#DejaVuSans-6e" x="1165.478516"/>
     <use xlink:href="#DejaVuSans-61" x="1228.857422"/>
     <use xlink:href="#DejaVuSans-74" x="1290.136719"/>
     <use xlink:href="#DejaVuSans-6f" x="1329.345703"/>
     <use xlink:href="#DejaVuSans-72" x="1390.527344"/>
     <use xlink:href="#DejaVuSans-20" x="1431.640625"/>
     <use xlink:href="#DejaVuSans-4c" x="1463.427734"/>
     <use xlink:href="#DejaVuSans-6f" x="1517.390625"/>
     <use xlink:href="#DejaVuSans-73" x="1578.572266"/>
     <use xlink:href="#DejaVuSans-73" x="1630.671875"/>
     <use xlink:href="#DejaVuSans-20" x="1682.771484"/>
     <use xlink:href="#DejaVuSans-44" x="1714.558594"/>
     <use xlink:href="#DejaVuSans-75" x="1791.560547"/>
     <use xlink:href="#DejaVuSans-72" x="1854.939453"/>
     <use xlink:href="#DejaVuSans-69" x="1896.052734"/>
     <use xlink:href="#DejaVuSans-6e" x="1923.835938"/>
     <use xlink:href="#DejaVuSans-67" x="1987.214844"/>
     <use xlink:href="#DejaVuSans-20" x="2050.691406"/>
     <use xlink:href="#DejaVuSans-54" x="2082.478516"/>
     <use xlink:href="#DejaVuSans-72" x="2128.8125"/>
     <use xlink:href="#DejaVuSans-61" x="2169.925781"/>
     <use xlink:href="#DejaVuSans-69" x="2231.205078"/>
     <use xlink:href="#DejaVuSans-6e" x="2258.988281"/>
     <use xlink:href="#DejaVuSans-69" x="2322.367188"/>
     <use xlink:href="#DejaVuSans-6e" x="2350.150391"/>
     <use xlink:href="#DejaVuSans-67" x="2413.529297"/>
    </g>
   </g>
   <g id="legend_1">
    <g id="patch_7">
     <path d="M 556.99375 106.14875 
L 636.490625 106.14875 
Q 640.490625 106.14875 640.490625 102.14875 
L 640.490625 45.43625 
Q 640.490625 41.43625 636.490625 41.43625 
L 556.99375 41.43625 
Q 552.99375 41.43625 552.99375 45.43625 
L 552.99375 102.14875 
Q 552.99375 106.14875 556.99375 106.14875 
z
" style="fill: #ffffff; opacity: 0.8; stroke: #cccccc; stroke-linejoin: miter"/>
    </g>
    <g id="line2d_13">
     <path d="M 560.99375 57.633125 
L 580.99375 57.633125 
L 600.99375 57.633125 
" style="fill: none; stroke: #1f77b4; stroke-width: 1.5; stroke-linecap: square"/>
    </g>
    <g id="text_14">
     <!-- G -->
     <g transform="translate(616.99375 64.633125) scale(0.2 -0.2)">
      <use xlink:href="#DejaVuSans-47"/>
     </g>
    </g>
    <g id="line2d_14">
     <path d="M 560.99375 86.989375 
L 580.99375 86.989375 
L 600.99375 86.989375 
" style="fill: none; stroke: #ff7f0e; stroke-width: 1.5; stroke-linecap: square"/>
    </g>
    <g id="text_15">
     <!-- D -->
     <g transform="translate(616.99375 93.989375) scale(0.2 -0.2)">
      <use xlink:href="#DejaVuSans-44"/>
     </g>
    </g>
   </g>
  </g>
 </g>
 <defs>
  <clipPath id="p9feb893657">
   <rect x="92.490625" y="31.43625" width="558" height="277.2"/>
  </clipPath>
 </defs>
</svg>
