<?xml version="1.0" encoding="utf-8" standalone="no"?>
<!DOCTYPE svg PUBLIC "-//W3C//DTD SVG 1.1//EN"
  "http://www.w3.org/Graphics/SVG/1.1/DTD/svg11.dtd">
<svg xmlns:xlink="http://www.w3.org/1999/xlink" width="675.923125pt" height="365.54875pt" viewBox="0 0 675.923125 365.54875" xmlns="http://www.w3.org/2000/svg" version="1.1">
 <metadata>
  <rdf:RDF xmlns:dc="http://purl.org/dc/elements/1.1/" xmlns:cc="http://creativecommons.org/ns#" xmlns:rdf="http://www.w3.org/1999/02/22-rdf-syntax-ns#">
   <cc:Work>
    <dc:type rdf:resource="http://purl.org/dc/dcmitype/StillImage"/>
    <dc:date>2024-02-01T21:08:52.705566</dc:date>
    <dc:format>image/svg+xml</dc:format>
    <dc:creator>
     <cc:Agent>
      <dc:title>Matplotlib v3.7.2, https://matplotlib.org/</dc:title>
     </cc:Agent>
    </dc:creator>
   </cc:Work>
  </rdf:RDF>
 </metadata>
 <defs>
  <style type="text/css">*{stroke-linejoin: round; stroke-linecap: butt}</style>
 </defs>
 <g id="figure_1">
  <g id="patch_1">
   <path d="M 0 365.54875 
L 675.923125 365.54875 
L 675.923125 -0 
L 0 -0 
z
" style="fill: #ffffff"/>
  </g>
  <g id="axes_1">
   <g id="patch_2">
    <path d="M 92.490625 308.63625 
L 650.490625 308.63625 
L 650.490625 31.43625 
L 92.490625 31.43625 
z
" style="fill: #ffffff"/>
   </g>
   <g id="matplotlib.axis_1">
    <g id="xtick_1">
     <g id="line2d_1">
      <defs>
       <path id="m258a87adb2" d="M 0 0 
L 0 3.5 
" style="stroke: #000000; stroke-width: 0.8"/>
      </defs>
      <g>
       <use xlink:href="#m258a87adb2" x="117.854261" y="308.63625" style="stroke: #000000; stroke-width: 0.8"/>
      </g>
     </g>
     <g id="text_1">
      <!-- 0 -->
      <g transform="translate(111.491761 330.833125) scale(0.2 -0.2)">
       <defs>
        <path id="DejaVuSans-30" d="M 2034 4250 
Q 1547 4250 1301 3770 
Q 1056 3291 1056 2328 
Q 1056 1369 1301 889 
Q 1547 409 2034 409 
Q 2525 409 2770 889 
Q 3016 1369 3016 2328 
Q 3016 3291 2770 3770 
Q 2525 4250 2034 4250 
z
M 2034 4750 
Q 2819 4750 3233 4129 
Q 3647 3509 3647 2328 
Q 3647 1150 3233 529 
Q 2819 -91 2034 -91 
Q 1250 -91 836 529 
Q 422 1150 422 2328 
Q 422 3509 836 4129 
Q 1250 4750 2034 4750 
z
" transform="scale(0.015625)"/>
       </defs>
       <use xlink:href="#DejaVuSans-30"/>
      </g>
     </g>
    </g>
    <g id="xtick_2">
     <g id="line2d_2">
      <g>
       <use xlink:href="#m258a87adb2" x="219.308807" y="308.63625" style="stroke: #000000; stroke-width: 0.8"/>
      </g>
     </g>
     <g id="text_2">
      <!-- 200 -->
      <g transform="translate(200.221307 330.833125) scale(0.2 -0.2)">
       <defs>
        <path id="DejaVuSans-32" d="M 1228 531 
L 3431 531 
L 3431 0 
L 469 0 
L 469 531 
Q 828 903 1448 1529 
Q 2069 2156 2228 2338 
Q 2531 2678 2651 2914 
Q 2772 3150 2772 3378 
Q 2772 3750 2511 3984 
Q 2250 4219 1831 4219 
Q 1534 4219 1204 4116 
Q 875 4013 500 3803 
L 500 4441 
Q 881 4594 1212 4672 
Q 1544 4750 1819 4750 
Q 2544 4750 2975 4387 
Q 3406 4025 3406 3419 
Q 3406 3131 3298 2873 
Q 3191 2616 2906 2266 
Q 2828 2175 2409 1742 
Q 1991 1309 1228 531 
z
" transform="scale(0.015625)"/>
       </defs>
       <use xlink:href="#DejaVuSans-32"/>
       <use xlink:href="#DejaVuSans-30" x="63.623047"/>
       <use xlink:href="#DejaVuSans-30" x="127.246094"/>
      </g>
     </g>
    </g>
    <g id="xtick_3">
     <g id="line2d_3">
      <g>
       <use xlink:href="#m258a87adb2" x="320.763352" y="308.63625" style="stroke: #000000; stroke-width: 0.8"/>
      </g>
     </g>
     <g id="text_3">
      <!-- 400 -->
      <g transform="translate(301.675852 330.833125) scale(0.2 -0.2)">
       <defs>
        <path id="DejaVuSans-34" d="M 2419 4116 
L 825 1625 
L 2419 1625 
L 2419 4116 
z
M 2253 4666 
L 3047 4666 
L 3047 1625 
L 3713 1625 
L 3713 1100 
L 3047 1100 
L 3047 0 
L 2419 0 
L 2419 1100 
L 313 1100 
L 313 1709 
L 2253 4666 
z
" transform="scale(0.015625)"/>
       </defs>
       <use xlink:href="#DejaVuSans-34"/>
       <use xlink:href="#DejaVuSans-30" x="63.623047"/>
       <use xlink:href="#DejaVuSans-30" x="127.246094"/>
      </g>
     </g>
    </g>
    <g id="xtick_4">
     <g id="line2d_4">
      <g>
       <use xlink:href="#m258a87adb2" x="422.217898" y="308.63625" style="stroke: #000000; stroke-width: 0.8"/>
      </g>
     </g>
     <g id="text_4">
      <!-- 600 -->
      <g transform="translate(403.130398 330.833125) scale(0.2 -0.2)">
       <defs>
        <path id="DejaVuSans-36" d="M 2113 2584 
Q 1688 2584 1439 2293 
Q 1191 2003 1191 1497 
Q 1191 994 1439 701 
Q 1688 409 2113 409 
Q 2538 409 2786 701 
Q 3034 994 3034 1497 
Q 3034 2003 2786 2293 
Q 2538 2584 2113 2584 
z
M 3366 4563 
L 3366 3988 
Q 3128 4100 2886 4159 
Q 2644 4219 2406 4219 
Q 1781 4219 1451 3797 
Q 1122 3375 1075 2522 
Q 1259 2794 1537 2939 
Q 1816 3084 2150 3084 
Q 2853 3084 3261 2657 
Q 3669 2231 3669 1497 
Q 3669 778 3244 343 
Q 2819 -91 2113 -91 
Q 1303 -91 875 529 
Q 447 1150 447 2328 
Q 447 3434 972 4092 
Q 1497 4750 2381 4750 
Q 2619 4750 2861 4703 
Q 3103 4656 3366 4563 
z
" transform="scale(0.015625)"/>
       </defs>
       <use xlink:href="#DejaVuSans-36"/>
       <use xlink:href="#DejaVuSans-30" x="63.623047"/>
       <use xlink:href="#DejaVuSans-30" x="127.246094"/>
      </g>
     </g>
    </g>
    <g id="xtick_5">
     <g id="line2d_5">
      <g>
       <use xlink:href="#m258a87adb2" x="523.672443" y="308.63625" style="stroke: #000000; stroke-width: 0.8"/>
      </g>
     </g>
     <g id="text_5">
      <!-- 800 -->
      <g transform="translate(504.584943 330.833125) scale(0.2 -0.2)">
       <defs>
        <path id="DejaVuSans-38" d="M 2034 2216 
Q 1584 2216 1326 1975 
Q 1069 1734 1069 1313 
Q 1069 891 1326 650 
Q 1584 409 2034 409 
Q 2484 409 2743 651 
Q 3003 894 3003 1313 
Q 3003 1734 2745 1975 
Q 2488 2216 2034 2216 
z
M 1403 2484 
Q 997 2584 770 2862 
Q 544 3141 544 3541 
Q 544 4100 942 4425 
Q 1341 4750 2034 4750 
Q 2731 4750 3128 4425 
Q 3525 4100 3525 3541 
Q 3525 3141 3298 2862 
Q 3072 2584 2669 2484 
Q 3125 2378 3379 2068 
Q 3634 1759 3634 1313 
Q 3634 634 3220 271 
Q 2806 -91 2034 -91 
Q 1263 -91 848 271 
Q 434 634 434 1313 
Q 434 1759 690 2068 
Q 947 2378 1403 2484 
z
M 1172 3481 
Q 1172 3119 1398 2916 
Q 1625 2713 2034 2713 
Q 2441 2713 2670 2916 
Q 2900 3119 2900 3481 
Q 2900 3844 2670 4047 
Q 2441 4250 2034 4250 
Q 1625 4250 1398 4047 
Q 1172 3844 1172 3481 
z
" transform="scale(0.015625)"/>
       </defs>
       <use xlink:href="#DejaVuSans-38"/>
       <use xlink:href="#DejaVuSans-30" x="63.623047"/>
       <use xlink:href="#DejaVuSans-30" x="127.246094"/>
      </g>
     </g>
    </g>
    <g id="xtick_6">
     <g id="line2d_6">
      <g>
       <use xlink:href="#m258a87adb2" x="625.126989" y="308.63625" style="stroke: #000000; stroke-width: 0.8"/>
      </g>
     </g>
     <g id="text_6">
      <!-- 1000 -->
      <g transform="translate(599.676989 330.833125) scale(0.2 -0.2)">
       <defs>
        <path id="DejaVuSans-31" d="M 794 531 
L 1825 531 
L 1825 4091 
L 703 3866 
L 703 4441 
L 1819 4666 
L 2450 4666 
L 2450 531 
L 3481 531 
L 3481 0 
L 794 0 
L 794 531 
z
" transform="scale(0.015625)"/>
       </defs>
       <use xlink:href="#DejaVuSans-31"/>
       <use xlink:href="#DejaVuSans-30" x="63.623047"/>
       <use xlink:href="#DejaVuSans-30" x="127.246094"/>
       <use xlink:href="#DejaVuSans-30" x="190.869141"/>
      </g>
     </g>
    </g>
    <g id="text_7">
     <!-- iterations -->
     <g transform="translate(324.035938 354.189375) scale(0.2 -0.2)">
      <defs>
       <path id="DejaVuSans-69" d="M 603 3500 
L 1178 3500 
L 1178 0 
L 603 0 
L 603 3500 
z
M 603 4863 
L 1178 4863 
L 1178 4134 
L 603 4134 
L 603 4863 
z
" transform="scale(0.015625)"/>
       <path id="DejaVuSans-74" d="M 1172 4494 
L 1172 3500 
L 2356 3500 
L 2356 3053 
L 1172 3053 
L 1172 1153 
Q 1172 725 1289 603 
Q 1406 481 1766 481 
L 2356 481 
L 2356 0 
L 1766 0 
Q 1100 0 847 248 
Q 594 497 594 1153 
L 594 3053 
L 172 3053 
L 172 3500 
L 594 3500 
L 594 4494 
L 1172 4494 
z
" transform="scale(0.015625)"/>
       <path id="DejaVuSans-65" d="M 3597 1894 
L 3597 1613 
L 953 1613 
Q 991 1019 1311 708 
Q 1631 397 2203 397 
Q 2534 397 2845 478 
Q 3156 559 3463 722 
L 3463 178 
Q 3153 47 2828 -22 
Q 2503 -91 2169 -91 
Q 1331 -91 842 396 
Q 353 884 353 1716 
Q 353 2575 817 3079 
Q 1281 3584 2069 3584 
Q 2775 3584 3186 3129 
Q 3597 2675 3597 1894 
z
M 3022 2063 
Q 3016 2534 2758 2815 
Q 2500 3097 2075 3097 
Q 1594 3097 1305 2825 
Q 1016 2553 972 2059 
L 3022 2063 
z
" transform="scale(0.015625)"/>
       <path id="DejaVuSans-72" d="M 2631 2963 
Q 2534 3019 2420 3045 
Q 2306 3072 2169 3072 
Q 1681 3072 1420 2755 
Q 1159 2438 1159 1844 
L 1159 0 
L 581 0 
L 581 3500 
L 1159 3500 
L 1159 2956 
Q 1341 3275 1631 3429 
Q 1922 3584 2338 3584 
Q 2397 3584 2469 3576 
Q 2541 3569 2628 3553 
L 2631 2963 
z
" transform="scale(0.015625)"/>
       <path id="DejaVuSans-61" d="M 2194 1759 
Q 1497 1759 1228 1600 
Q 959 1441 959 1056 
Q 959 750 1161 570 
Q 1363 391 1709 391 
Q 2188 391 2477 730 
Q 2766 1069 2766 1631 
L 2766 1759 
L 2194 1759 
z
M 3341 1997 
L 3341 0 
L 2766 0 
L 2766 531 
Q 2569 213 2275 61 
Q 1981 -91 1556 -91 
Q 1019 -91 701 211 
Q 384 513 384 1019 
Q 384 1609 779 1909 
Q 1175 2209 1959 2209 
L 2766 2209 
L 2766 2266 
Q 2766 2663 2505 2880 
Q 2244 3097 1772 3097 
Q 1472 3097 1187 3025 
Q 903 2953 641 2809 
L 641 3341 
Q 956 3463 1253 3523 
Q 1550 3584 1831 3584 
Q 2591 3584 2966 3190 
Q 3341 2797 3341 1997 
z
" transform="scale(0.015625)"/>
       <path id="DejaVuSans-6f" d="M 1959 3097 
Q 1497 3097 1228 2736 
Q 959 2375 959 1747 
Q 959 1119 1226 758 
Q 1494 397 1959 397 
Q 2419 397 2687 759 
Q 2956 1122 2956 1747 
Q 2956 2369 2687 2733 
Q 2419 3097 1959 3097 
z
M 1959 3584 
Q 2709 3584 3137 3096 
Q 3566 2609 3566 1747 
Q 3566 888 3137 398 
Q 2709 -91 1959 -91 
Q 1206 -91 779 398 
Q 353 888 353 1747 
Q 353 2609 779 3096 
Q 1206 3584 1959 3584 
z
" transform="scale(0.015625)"/>
       <path id="DejaVuSans-6e" d="M 3513 2113 
L 3513 0 
L 2938 0 
L 2938 2094 
Q 2938 2591 2744 2837 
Q 2550 3084 2163 3084 
Q 1697 3084 1428 2787 
Q 1159 2491 1159 1978 
L 1159 0 
L 581 0 
L 581 3500 
L 1159 3500 
L 1159 2956 
Q 1366 3272 1645 3428 
Q 1925 3584 2291 3584 
Q 2894 3584 3203 3211 
Q 3513 2838 3513 2113 
z
" transform="scale(0.015625)"/>
       <path id="DejaVuSans-73" d="M 2834 3397 
L 2834 2853 
Q 2591 2978 2328 3040 
Q 2066 3103 1784 3103 
Q 1356 3103 1142 2972 
Q 928 2841 928 2578 
Q 928 2378 1081 2264 
Q 1234 2150 1697 2047 
L 1894 2003 
Q 2506 1872 2764 1633 
Q 3022 1394 3022 966 
Q 3022 478 2636 193 
Q 2250 -91 1575 -91 
Q 1294 -91 989 -36 
Q 684 19 347 128 
L 347 722 
Q 666 556 975 473 
Q 1284 391 1588 391 
Q 1994 391 2212 530 
Q 2431 669 2431 922 
Q 2431 1156 2273 1281 
Q 2116 1406 1581 1522 
L 1381 1569 
Q 847 1681 609 1914 
Q 372 2147 372 2553 
Q 372 3047 722 3315 
Q 1072 3584 1716 3584 
Q 2034 3584 2315 3537 
Q 2597 3491 2834 3397 
z
" transform="scale(0.015625)"/>
      </defs>
      <use xlink:href="#DejaVuSans-69"/>
      <use xlink:href="#DejaVuSans-74" x="27.783203"/>
      <use xlink:href="#DejaVuSans-65" x="66.992188"/>
      <use xlink:href="#DejaVuSans-72" x="128.515625"/>
      <use xlink:href="#DejaVuSans-61" x="169.628906"/>
      <use xlink:href="#DejaVuSans-74" x="230.908203"/>
      <use xlink:href="#DejaVuSans-69" x="270.117188"/>
      <use xlink:href="#DejaVuSans-6f" x="297.900391"/>
      <use xlink:href="#DejaVuSans-6e" x="359.082031"/>
      <use xlink:href="#DejaVuSans-73" x="422.460938"/>
     </g>
    </g>
   </g>
   <g id="matplotlib.axis_2">
    <g id="ytick_1">
     <g id="line2d_7">
      <defs>
       <path id="m790720f452" d="M 0 0 
L -3.5 0 
" style="stroke: #000000; stroke-width: 0.8"/>
      </defs>
      <g>
       <use xlink:href="#m790720f452" x="92.490625" y="234.626549" style="stroke: #000000; stroke-width: 0.8"/>
      </g>
     </g>
     <g id="text_8">
      <!-- −200 -->
      <g transform="translate(30.55625 242.224987) scale(0.2 -0.2)">
       <defs>
        <path id="DejaVuSans-2212" d="M 678 2272 
L 4684 2272 
L 4684 1741 
L 678 1741 
L 678 2272 
z
" transform="scale(0.015625)"/>
       </defs>
       <use xlink:href="#DejaVuSans-2212"/>
       <use xlink:href="#DejaVuSans-32" x="83.789062"/>
       <use xlink:href="#DejaVuSans-30" x="147.412109"/>
       <use xlink:href="#DejaVuSans-30" x="211.035156"/>
      </g>
     </g>
    </g>
    <g id="ytick_2">
     <g id="line2d_8">
      <g>
       <use xlink:href="#m790720f452" x="92.490625" y="151.376755" style="stroke: #000000; stroke-width: 0.8"/>
      </g>
     </g>
     <g id="text_9">
      <!-- 0 -->
      <g transform="translate(72.765625 158.975193) scale(0.2 -0.2)">
       <use xlink:href="#DejaVuSans-30"/>
      </g>
     </g>
    </g>
    <g id="ytick_3">
     <g id="line2d_9">
      <g>
       <use xlink:href="#m790720f452" x="92.490625" y="68.126962" style="stroke: #000000; stroke-width: 0.8"/>
      </g>
     </g>
     <g id="text_10">
      <!-- 200 -->
      <g transform="translate(47.315625 75.725399) scale(0.2 -0.2)">
       <use xlink:href="#DejaVuSans-32"/>
       <use xlink:href="#DejaVuSans-30" x="63.623047"/>
       <use xlink:href="#DejaVuSans-30" x="127.246094"/>
      </g>
     </g>
    </g>
    <g id="text_11">
     <!-- Loss -->
     <g transform="translate(22.396875 191.970625) rotate(-90) scale(0.2 -0.2)">
      <defs>
       <path id="DejaVuSans-4c" d="M 628 4666 
L 1259 4666 
L 1259 531 
L 3531 531 
L 3531 0 
L 628 0 
L 628 4666 
z
" transform="scale(0.015625)"/>
      </defs>
      <use xlink:href="#DejaVuSans-4c"/>
      <use xlink:href="#DejaVuSans-6f" x="53.962891"/>
      <use xlink:href="#DejaVuSans-73" x="115.144531"/>
      <use xlink:href="#DejaVuSans-73" x="167.244141"/>
     </g>
    </g>
   </g>
   <g id="line2d_10">
    <path d="M 117.854261 114.726306 
L 118.361534 106.081918 
L 118.868807 66.645135 
L 119.37608 44.03625 
L 119.883352 55.607746 
L 120.390625 116.630126 
L 120.897898 138.664661 
L 121.40517 137.321124 
L 121.912443 122.741893 
L 122.419716 120.788415 
L 122.926989 127.999278 
L 123.434261 122.989826 
L 123.941534 108.458537 
L 124.448807 122.646974 
L 124.95608 126.556792 
L 125.463352 123.898785 
L 125.970625 120.201515 
L 126.477898 126.255443 
L 126.98517 122.797609 
L 127.492443 127.006439 
L 127.999716 118.64052 
L 128.506989 124.366742 
L 129.014261 117.662909 
L 129.521534 117.330772 
L 130.028807 114.695364 
L 130.53608 107.764658 
L 131.043352 108.435758 
L 131.550625 107.051208 
L 132.057898 106.219874 
L 132.56517 110.116506 
L 133.072443 106.40337 
L 133.579716 103.735206 
L 134.086989 107.114803 
L 134.594261 106.33327 
L 135.101534 103.507469 
L 135.608807 108.842958 
L 136.11608 102.920055 
L 136.623352 108.429686 
L 137.130625 110.936486 
L 137.637898 110.869457 
L 138.14517 106.939005 
L 138.652443 105.409875 
L 139.159716 110.445841 
L 139.666989 111.131011 
L 140.174261 113.912796 
L 140.681534 112.411065 
L 141.188807 111.591078 
L 141.69608 112.594274 
L 142.203352 115.130586 
L 142.710625 112.662515 
L 143.217898 111.560611 
L 143.72517 112.925905 
L 144.232443 108.346789 
L 144.739716 112.549272 
L 145.246989 114.58122 
L 145.754261 115.179402 
L 146.261534 119.262292 
L 146.768807 117.014571 
L 147.27608 116.380063 
L 147.783352 120.267786 
L 148.290625 120.37667 
L 148.797898 120.879402 
L 149.30517 120.548412 
L 149.812443 123.597646 
L 150.319716 123.431828 
L 150.826989 121.429234 
L 151.334261 122.560572 
L 151.841534 119.85272 
L 152.348807 118.694633 
L 153.363352 118.68102 
L 153.870625 118.119314 
L 154.377898 121.17012 
L 155.392443 116.7473 
L 155.899716 113.297092 
L 156.406989 118.688744 
L 156.914261 120.343387 
L 157.421534 123.308616 
L 157.928807 120.224883 
L 158.43608 118.109455 
L 158.943352 120.364991 
L 159.450625 123.245243 
L 160.46517 118.407012 
L 161.479716 122.653338 
L 161.986989 123.836576 
L 162.494261 125.744796 
L 163.001534 123.447651 
L 163.508807 128.318527 
L 164.01608 129.080516 
L 164.523352 128.830815 
L 165.030625 128.20745 
L 165.537898 128.76154 
L 166.04517 132.053196 
L 166.552443 133.596636 
L 167.059716 133.934515 
L 167.566989 135.141517 
L 168.074261 135.137063 
L 168.581534 134.780402 
L 169.088807 135.202134 
L 169.59608 135.093015 
L 170.103352 136.905242 
L 171.117898 142.399589 
L 171.62517 142.128559 
L 172.132443 142.779249 
L 172.639716 139.598641 
L 173.146989 140.408307 
L 173.654261 138.506123 
L 174.161534 139.937779 
L 174.668807 138.802053 
L 175.17608 137.3209 
L 176.190625 135.089312 
L 176.697898 138.125691 
L 177.20517 137.931203 
L 177.712443 136.48173 
L 178.219716 135.887461 
L 179.234261 133.177328 
L 179.741534 135.336782 
L 180.248807 134.894951 
L 180.75608 135.405771 
L 181.263352 135.395858 
L 181.770625 136.106534 
L 182.277898 138.160945 
L 183.292443 138.778501 
L 183.799716 139.328544 
L 184.306989 137.455284 
L 184.814261 138.146409 
L 185.321534 139.584531 
L 185.828807 139.54211 
L 186.33608 140.772087 
L 186.843352 139.328314 
L 187.350625 141.270704 
L 188.36517 138.38691 
L 188.872443 138.267975 
L 189.379716 138.407029 
L 189.886989 138.064147 
L 190.394261 136.366411 
L 190.901534 136.725459 
L 191.408807 137.7051 
L 191.91608 136.859223 
L 192.423352 139.049001 
L 192.930625 137.336016 
L 193.437898 137.257625 
L 193.94517 138.794003 
L 194.452443 138.317046 
L 194.959716 138.127537 
L 195.466989 137.085883 
L 195.974261 140.357201 
L 196.481534 142.188057 
L 196.988807 140.211719 
L 197.49608 141.214973 
L 198.003352 140.469004 
L 198.510625 140.399257 
L 199.017898 137.341402 
L 199.52517 136.956775 
L 200.032443 138.004539 
L 200.539716 141.917493 
L 201.046989 141.394417 
L 201.554261 139.770456 
L 202.061534 138.757231 
L 202.568807 139.627896 
L 203.583352 142.544043 
L 204.090625 142.319792 
L 204.597898 139.759331 
L 205.10517 140.416344 
L 205.612443 141.45395 
L 206.119716 141.363625 
L 206.626989 140.978604 
L 207.134261 142.910652 
L 207.641534 142.90158 
L 208.148807 144.549058 
L 208.65608 145.17122 
L 209.163352 145.44887 
L 209.670625 144.416339 
L 210.177898 144.947962 
L 210.68517 143.814591 
L 211.192443 145.207917 
L 211.699716 145.528567 
L 212.206989 144.861957 
L 212.714261 145.227471 
L 213.221534 144.527959 
L 213.728807 145.046411 
L 214.23608 146.68308 
L 214.743352 147.135187 
L 215.250625 145.32902 
L 215.757898 143.988933 
L 216.26517 145.81337 
L 216.772443 144.652605 
L 217.279716 145.491722 
L 217.786989 145.544312 
L 218.294261 146.479505 
L 218.801534 145.926367 
L 219.308807 146.569906 
L 219.81608 146.635087 
L 220.323352 145.762171 
L 220.830625 146.892018 
L 221.337898 148.983063 
L 221.84517 148.879743 
L 222.352443 147.783513 
L 222.859716 148.254067 
L 223.366989 147.888736 
L 223.874261 146.84581 
L 224.381534 146.202176 
L 224.888807 146.837467 
L 225.39608 146.997663 
L 226.410625 146.666794 
L 227.42517 146.848622 
L 227.932443 146.639285 
L 228.439716 145.433562 
L 228.946989 146.697151 
L 229.454261 146.488051 
L 229.961534 148.265055 
L 230.468807 147.613654 
L 230.97608 147.710403 
L 231.483352 147.419561 
L 231.990625 147.740517 
L 232.497898 146.590609 
L 233.512443 147.987777 
L 234.526989 148.092569 
L 235.034261 147.626153 
L 235.541534 148.346627 
L 236.048807 147.834075 
L 236.55608 146.928657 
L 237.063352 148.067958 
L 237.570625 147.258653 
L 238.077898 148.865305 
L 238.58517 148.410553 
L 239.092443 148.967358 
L 239.599716 149.221557 
L 240.106989 149.822095 
L 240.614261 148.406232 
L 241.121534 148.806973 
L 241.628807 148.539764 
L 242.13608 149.07262 
L 242.643352 148.908721 
L 243.150625 148.61838 
L 244.16517 149.440954 
L 244.672443 149.36957 
L 245.179716 150.013568 
L 245.686989 149.776241 
L 246.194261 150.325511 
L 246.701534 149.880589 
L 247.208807 151.162299 
L 247.71608 149.985682 
L 248.223352 151.13516 
L 248.730625 149.965057 
L 249.74517 149.636812 
L 250.252443 150.277934 
L 250.759716 150.130294 
L 251.266989 149.369379 
L 251.774261 148.998461 
L 252.788807 149.411097 
L 253.29608 150.464825 
L 253.803352 150.199464 
L 254.310625 150.562235 
L 254.817898 150.590935 
L 255.32517 151.04972 
L 255.832443 151.841912 
L 256.339716 151.427364 
L 256.846989 151.175547 
L 257.354261 152.473986 
L 257.861534 151.552817 
L 258.368807 151.225341 
L 258.87608 151.595681 
L 259.383352 152.660834 
L 259.890625 151.773162 
L 260.397898 152.094372 
L 260.90517 152.17824 
L 261.412443 151.68895 
L 262.934261 152.286212 
L 263.441534 152.200918 
L 263.948807 152.280159 
L 264.45608 151.754625 
L 264.963352 152.272882 
L 265.977898 151.842046 
L 266.48517 152.141914 
L 266.992443 152.770268 
L 267.499716 152.207484 
L 268.006989 152.377094 
L 268.514261 152.188492 
L 269.021534 152.676249 
L 269.528807 151.731846 
L 270.543352 151.345152 
L 271.050625 152.186997 
L 271.557898 152.122104 
L 272.06517 151.359375 
L 272.572443 151.397048 
L 273.079716 151.085501 
L 274.094261 152.610465 
L 274.601534 152.103367 
L 275.108807 151.755312 
L 275.61608 151.745505 
L 276.123352 151.555412 
L 276.630625 151.233799 
L 277.64517 151.617299 
L 278.152443 151.69156 
L 278.659716 151.931251 
L 279.166989 150.713665 
L 279.674261 151.562487 
L 280.181534 151.106358 
L 281.19608 150.617443 
L 281.703352 151.580261 
L 282.210625 151.282821 
L 282.717898 151.651857 
L 283.22517 151.11709 
L 283.732443 151.018062 
L 284.239716 149.816142 
L 284.746989 150.538729 
L 285.254261 151.54643 
L 285.761534 151.134366 
L 286.268807 150.083957 
L 286.77608 149.856048 
L 287.283352 150.084806 
L 288.297898 150.905625 
L 289.312443 150.592418 
L 289.819716 150.540132 
L 290.326989 150.835766 
L 290.834261 149.605204 
L 291.341534 150.155542 
L 291.848807 148.359728 
L 292.35608 149.069275 
L 292.863352 149.470042 
L 293.370625 148.774616 
L 293.877898 149.156396 
L 294.38517 149.200486 
L 294.892443 148.372847 
L 295.399716 148.781279 
L 295.906989 148.915586 
L 296.414261 148.736299 
L 296.921534 148.278376 
L 297.428807 150.048145 
L 297.93608 149.794805 
L 298.443352 148.207867 
L 298.950625 147.006615 
L 299.457898 149.701961 
L 299.96517 148.584931 
L 300.472443 150.113674 
L 300.979716 149.148353 
L 301.486989 149.050289 
L 301.994261 149.482133 
L 302.501534 149.221502 
L 303.51608 149.716106 
L 304.530625 149.448828 
L 305.037898 148.575808 
L 306.052443 149.033621 
L 306.559716 149.043221 
L 307.066989 148.766445 
L 307.574261 150.10204 
L 308.081534 149.976308 
L 308.588807 149.01284 
L 309.603352 150.415562 
L 310.110625 150.191345 
L 310.617898 149.765998 
L 311.12517 150.542045 
L 311.632443 151.094122 
L 312.139716 150.749297 
L 312.646989 150.748543 
L 313.154261 150.552951 
L 313.661534 150.811243 
L 314.168807 150.267491 
L 314.67608 150.78941 
L 315.183352 151.586957 
L 315.690625 150.325004 
L 316.197898 151.032796 
L 316.70517 150.88367 
L 317.212443 150.884052 
L 317.719716 151.261011 
L 318.226989 150.707683 
L 318.734261 150.648162 
L 319.241534 149.982535 
L 319.748807 150.220711 
L 320.25608 150.660541 
L 320.763352 150.245039 
L 321.270625 151.090624 
L 321.777898 151.255264 
L 322.28517 150.92556 
L 322.792443 151.095426 
L 323.299716 151.622911 
L 323.806989 151.330097 
L 324.314261 151.27642 
L 324.821534 151.926709 
L 325.328807 151.644614 
L 325.83608 151.748004 
L 326.343352 151.589741 
L 326.850625 151.096936 
L 327.357898 151.232504 
L 327.86517 152.274212 
L 328.372443 151.431557 
L 328.879716 152.15493 
L 329.386989 150.750337 
L 329.894261 151.642762 
L 330.401534 152.003527 
L 330.908807 151.370928 
L 331.41608 151.81159 
L 332.937898 152.347011 
L 333.44517 152.287551 
L 333.952443 152.792889 
L 334.459716 152.330353 
L 334.966989 152.840892 
L 335.474261 152.952117 
L 335.981534 152.415944 
L 336.488807 152.560223 
L 336.99608 151.791173 
L 337.503352 151.744005 
L 338.010625 151.92552 
L 338.517898 151.236089 
L 339.02517 151.001596 
L 339.532443 152.275131 
L 340.039716 151.230055 
L 341.561534 152.57704 
L 342.068807 152.080164 
L 342.57608 151.791563 
L 343.083352 152.511252 
L 343.590625 151.929362 
L 344.097898 152.536765 
L 344.60517 151.959364 
L 345.112443 152.067056 
L 345.619716 152.043511 
L 346.634261 152.304802 
L 347.141534 151.700389 
L 347.648807 151.420254 
L 348.15608 151.287794 
L 348.663352 151.665874 
L 349.170625 152.210526 
L 349.677898 152.047336 
L 350.18517 152.215515 
L 350.692443 151.418016 
L 351.199716 151.783619 
L 352.214261 151.755368 
L 352.721534 152.372138 
L 353.73608 152.398249 
L 354.243352 152.2066 
L 354.750625 152.143606 
L 355.257898 152.661245 
L 355.76517 152.418168 
L 356.272443 151.076607 
L 356.779716 152.230132 
L 357.286989 152.254543 
L 357.794261 152.085501 
L 358.301534 152.097016 
L 359.31608 151.575627 
L 360.330625 151.848856 
L 360.837898 151.953318 
L 361.34517 152.623378 
L 362.359716 151.842257 
L 362.866989 152.267785 
L 363.881534 152.143958 
L 364.388807 150.987889 
L 364.89608 151.397289 
L 365.403352 151.975647 
L 365.910625 151.998391 
L 366.417898 151.335571 
L 366.92517 151.682935 
L 367.432443 152.632733 
L 367.939716 152.19404 
L 369.461534 151.946123 
L 369.968807 152.200519 
L 370.47608 152.193347 
L 370.983352 151.984494 
L 371.997898 152.365496 
L 372.50517 152.266247 
L 373.012443 151.934436 
L 373.519716 152.40168 
L 374.026989 152.065543 
L 374.534261 151.446763 
L 375.041534 151.828722 
L 375.548807 151.947018 
L 376.05608 152.448695 
L 376.563352 151.844327 
L 377.070625 151.506004 
L 377.577898 151.857779 
L 378.08517 151.871857 
L 378.592443 151.079205 
L 379.099716 151.507201 
L 379.606989 151.45044 
L 380.114261 151.647678 
L 380.621534 151.448021 
L 381.128807 151.495779 
L 381.63608 150.817983 
L 382.143352 151.706664 
L 382.650625 151.308106 
L 383.157898 151.276547 
L 383.66517 151.5955 
L 384.172443 151.62933 
L 384.679716 151.070949 
L 385.186989 151.645706 
L 385.694261 151.69572 
L 386.708807 151.149644 
L 387.21608 151.458323 
L 387.723352 151.46821 
L 388.230625 152.024571 
L 388.737898 152.047261 
L 389.24517 151.13832 
L 389.752443 151.604247 
L 390.259716 151.562435 
L 390.766989 151.300639 
L 391.274261 151.701181 
L 391.781534 151.454309 
L 392.288807 151.537243 
L 392.79608 151.037532 
L 393.303352 151.344607 
L 393.810625 151.194195 
L 394.317898 151.298938 
L 394.82517 151.180666 
L 395.839716 151.24606 
L 396.346989 151.461987 
L 396.854261 151.801094 
L 397.361534 151.715007 
L 397.868807 151.495821 
L 398.37608 151.575049 
L 398.883352 152.208455 
L 399.390625 151.707065 
L 399.897898 151.726826 
L 400.40517 151.988182 
L 400.912443 152.692704 
L 401.419716 152.089559 
L 402.434261 152.427433 
L 402.941534 152.218327 
L 403.448807 152.372906 
L 403.95608 152.029724 
L 404.463352 152.286971 
L 404.970625 151.970467 
L 405.477898 152.555662 
L 405.98517 152.245332 
L 406.999716 152.541199 
L 407.506989 151.979995 
L 408.014261 152.520662 
L 408.521534 152.584042 
L 409.028807 152.14573 
L 409.53608 152.190755 
L 410.043352 151.690852 
L 410.550625 152.114592 
L 411.057898 152.29273 
L 412.072443 152.107116 
L 412.579716 152.648587 
L 413.086989 152.284687 
L 414.101534 152.570828 
L 414.608807 151.94545 
L 415.11608 152.373726 
L 416.130625 152.544228 
L 416.637898 152.822214 
L 417.14517 152.360177 
L 417.652443 152.090089 
L 418.159716 152.535167 
L 419.174261 152.221624 
L 419.681534 152.436898 
L 420.188807 152.35947 
L 421.203352 152.520215 
L 421.710625 153.016444 
L 422.217898 151.731253 
L 422.72517 152.950878 
L 423.232443 152.456644 
L 424.246989 152.995511 
L 424.754261 152.141711 
L 425.261534 152.638712 
L 425.768807 152.800987 
L 426.783352 152.785811 
L 427.290625 152.008473 
L 427.797898 152.737062 
L 428.30517 152.400565 
L 428.812443 152.305675 
L 429.319716 151.975513 
L 429.826989 152.573437 
L 430.334261 151.750127 
L 430.841534 152.303332 
L 431.348807 148.524838 
L 431.85608 151.957175 
L 432.363352 151.768497 
L 432.870625 151.228879 
L 433.377898 149.876511 
L 433.88517 150.908245 
L 434.392443 150.634714 
L 434.899716 150.781189 
L 435.406989 151.133643 
L 435.914261 150.985306 
L 436.421534 151.421726 
L 436.928807 151.07346 
L 437.943352 151.445347 
L 438.450625 151.544725 
L 438.957898 151.284326 
L 439.46517 151.233488 
L 439.972443 151.776222 
L 440.479716 152.068305 
L 440.986989 151.888559 
L 441.494261 152.299186 
L 442.001534 152.396925 
L 442.508807 152.804566 
L 443.01608 151.928435 
L 444.030625 151.75361 
L 444.537898 152.006023 
L 445.04517 152.058703 
L 445.552443 151.994579 
L 446.059716 151.590229 
L 447.074261 151.647107 
L 447.581534 151.896192 
L 448.088807 151.728772 
L 449.103352 151.971596 
L 449.610625 151.477873 
L 450.62517 152.194692 
L 452.146989 152.161486 
L 452.654261 151.747277 
L 453.161534 151.809392 
L 453.668807 152.215417 
L 454.17608 152.396104 
L 454.683352 152.099389 
L 455.190625 152.378092 
L 456.712443 152.240698 
L 457.219716 151.902568 
L 457.726989 152.467766 
L 458.234261 152.124655 
L 458.741534 152.70934 
L 459.248807 152.230334 
L 459.75608 152.155856 
L 460.263352 152.355853 
L 460.770625 152.094614 
L 461.277898 152.597834 
L 461.78517 152.284626 
L 462.292443 151.680398 
L 462.799716 152.298811 
L 463.306989 152.390976 
L 463.814261 152.345511 
L 464.321534 151.894844 
L 464.828807 151.847075 
L 465.33608 152.100982 
L 465.843352 151.939378 
L 466.350625 152.30459 
L 467.36517 152.323955 
L 467.872443 151.872378 
L 468.379716 152.179649 
L 468.886989 152.235323 
L 469.394261 151.742924 
L 469.901534 151.994381 
L 470.408807 151.714282 
L 470.91608 152.59086 
L 471.423352 152.371201 
L 471.930625 152.410087 
L 472.437898 151.979833 
L 472.94517 152.13412 
L 473.959716 151.953103 
L 474.466989 152.663517 
L 474.974261 152.850887 
L 475.481534 152.335265 
L 475.988807 152.093904 
L 476.49608 152.09731 
L 477.003352 151.861739 
L 477.510625 152.22775 
L 478.017898 152.143963 
L 478.52517 151.920261 
L 479.032443 152.292448 
L 480.046989 151.608838 
L 480.554261 151.884717 
L 481.061534 151.948034 
L 482.07608 151.885639 
L 482.583352 151.98697 
L 483.090625 151.792668 
L 483.597898 151.911078 
L 484.10517 151.859503 
L 485.119716 151.98688 
L 485.626989 152.018334 
L 486.134261 152.415296 
L 487.148807 151.914235 
L 487.65608 151.89707 
L 488.670625 152.22128 
L 490.699716 151.399755 
L 491.206989 152.082493 
L 491.714261 151.858426 
L 492.221534 151.14337 
L 492.728807 151.339535 
L 493.23608 151.059344 
L 493.743352 151.37599 
L 495.26517 151.377481 
L 495.772443 151.680836 
L 496.786989 151.543694 
L 497.294261 150.926786 
L 498.308807 151.767019 
L 498.81608 151.616761 
L 499.323352 151.706296 
L 499.830625 151.076738 
L 500.337898 151.587845 
L 500.84517 151.442994 
L 501.352443 151.430316 
L 501.859716 151.547727 
L 502.366989 151.213943 
L 502.874261 151.582079 
L 503.381534 151.353998 
L 504.39608 151.507801 
L 505.410625 151.177908 
L 505.917898 151.384978 
L 507.439716 151.092115 
L 507.946989 151.176657 
L 508.454261 151.640328 
L 509.468807 151.604892 
L 509.97608 151.570655 
L 510.483352 151.945732 
L 511.497898 151.938915 
L 512.00517 151.661181 
L 512.512443 151.550083 
L 513.019716 151.205932 
L 514.034261 151.191742 
L 514.541534 151.686735 
L 515.048807 151.613083 
L 515.55608 151.852518 
L 516.063352 151.679496 
L 517.077898 152.207215 
L 520.121534 151.367225 
L 520.628807 151.667476 
L 521.643352 151.296849 
L 522.150625 151.849446 
L 522.657898 151.805784 
L 523.16517 151.328364 
L 523.672443 151.674293 
L 524.179716 151.743831 
L 524.686989 152.042436 
L 525.194261 151.830819 
L 525.701534 151.370385 
L 526.71608 151.709383 
L 527.223352 151.443255 
L 527.730625 151.744608 
L 528.237898 151.368646 
L 528.74517 151.488061 
L 529.252443 151.828688 
L 529.759716 151.146687 
L 530.266989 151.689779 
L 530.774261 151.498835 
L 531.788807 151.770987 
L 532.29608 151.543286 
L 532.803352 150.945401 
L 533.310625 151.778396 
L 533.817898 151.49887 
L 534.832443 151.858059 
L 535.846989 151.134675 
L 536.354261 151.486843 
L 536.861534 151.396916 
L 537.368807 151.719428 
L 537.87608 151.424326 
L 538.383352 151.788686 
L 538.890625 151.564222 
L 539.397898 151.705691 
L 539.90517 151.996654 
L 540.412443 151.92431 
L 540.919716 151.704387 
L 541.426989 152.328413 
L 542.441534 152.27705 
L 542.948807 151.88783 
L 544.470625 151.92844 
L 544.977898 152.307681 
L 545.992443 152.183362 
L 547.006989 152.189478 
L 547.514261 152.038944 
L 548.021534 152.635119 
L 548.528807 152.101613 
L 549.03608 151.938368 
L 549.543352 152.079164 
L 550.050625 151.71079 
L 550.557898 151.797494 
L 551.06517 151.646745 
L 551.572443 152.143108 
L 552.079716 151.99021 
L 552.586989 152.18414 
L 553.094261 152.22808 
L 553.601534 152.125307 
L 554.61608 151.692709 
L 555.123352 151.910702 
L 555.630625 151.764202 
L 556.64517 151.699157 
L 557.152443 152.14054 
L 557.659716 151.37151 
L 558.166989 151.636387 
L 558.674261 151.766142 
L 559.688807 151.713636 
L 560.19608 151.875768 
L 560.703352 151.39868 
L 561.210625 151.225943 
L 561.717898 151.535501 
L 562.22517 151.645419 
L 562.732443 151.240036 
L 563.746989 151.689344 
L 566.283352 151.53041 
L 566.790625 151.307105 
L 567.297898 151.856963 
L 568.312443 151.503902 
L 568.819716 151.979471 
L 569.326989 151.697348 
L 569.834261 151.934772 
L 570.341534 151.508816 
L 570.848807 152.151504 
L 571.35608 151.747737 
L 571.863352 151.834478 
L 572.370625 152.265236 
L 572.877898 151.941584 
L 573.38517 151.934039 
L 573.892443 151.171931 
L 574.399716 151.802155 
L 574.906989 152.066033 
L 575.921534 151.545989 
L 576.93608 151.575974 
L 577.443352 151.873294 
L 577.950625 151.918905 
L 578.457898 151.736145 
L 578.96517 151.989589 
L 579.472443 151.574647 
L 579.979716 151.879342 
L 581.501534 151.910117 
L 582.008807 151.70139 
L 582.51608 151.937435 
L 583.023352 152.009852 
L 583.530625 151.533277 
L 584.54517 152.084454 
L 585.052443 151.590728 
L 586.066989 152.446118 
L 587.081534 151.724952 
L 588.09608 152.141755 
L 588.603352 151.898353 
L 589.110625 152.1334 
L 589.617898 152.032246 
L 590.12517 152.398274 
L 590.632443 151.485606 
L 591.139716 151.919006 
L 591.646989 151.88307 
L 592.154261 151.55212 
L 592.661534 151.715725 
L 593.168807 152.216185 
L 593.67608 151.943226 
L 594.183352 151.526062 
L 594.690625 151.839099 
L 595.197898 152.344255 
L 595.70517 152.354418 
L 596.212443 151.937689 
L 596.719716 151.854042 
L 597.734261 152.403465 
L 598.241534 151.928993 
L 599.763352 152.361175 
L 600.270625 152.258287 
L 601.28517 152.385159 
L 601.792443 151.892379 
L 603.314261 152.244459 
L 603.821534 151.72125 
L 604.328807 152.643585 
L 604.83608 152.199328 
L 605.343352 152.058942 
L 605.850625 152.411634 
L 606.86517 151.943532 
L 607.372443 151.985253 
L 608.386989 151.866921 
L 608.894261 151.978894 
L 609.401534 152.516977 
L 609.908807 152.155609 
L 610.41608 152.389905 
L 610.923352 152.072178 
L 611.430625 152.703306 
L 611.937898 152.95425 
L 612.44517 152.619859 
L 613.459716 152.332556 
L 614.474261 152.769971 
L 615.488807 152.24283 
L 616.503352 152.833334 
L 617.010625 152.80824 
L 617.517898 152.291823 
L 618.02517 152.833655 
L 618.532443 152.436755 
L 619.039716 152.210842 
L 620.054261 152.278928 
L 620.561534 152.374975 
L 621.57608 152.226534 
L 622.083352 152.465522 
L 622.590625 152.474592 
L 623.097898 152.221023 
L 623.60517 152.302501 
L 624.112443 152.05563 
L 625.126989 152.459694 
L 625.126989 152.459694 
" clip-path="url(#p17c36dbfab)" style="fill: none; stroke: #1f77b4; stroke-width: 1.5; stroke-linecap: square"/>
   </g>
   <g id="line2d_11">
    <path d="M 117.854261 257.658289 
L 118.361534 262.165711 
L 118.868807 291.943205 
L 119.37608 296.03625 
L 120.390625 271.11781 
L 120.897898 227.057898 
L 121.40517 207.5709 
L 121.912443 203.182002 
L 122.419716 203.974264 
L 122.926989 211.845554 
L 123.434261 205.520858 
L 123.941534 201.196422 
L 124.448807 195.910364 
L 124.95608 195.703205 
L 125.463352 192.753227 
L 125.970625 197.401453 
L 126.477898 172.184989 
L 126.98517 172.103903 
L 127.492443 169.627321 
L 127.999716 171.510379 
L 128.506989 166.488463 
L 129.014261 169.662831 
L 129.521534 167.766312 
L 130.028807 168.409239 
L 130.53608 168.391562 
L 131.043352 165.287616 
L 131.550625 166.881572 
L 132.057898 166.794035 
L 132.56517 165.094572 
L 133.072443 166.165148 
L 133.579716 165.451608 
L 134.086989 164.010929 
L 134.594261 163.25549 
L 135.101534 164.862355 
L 135.608807 163.978923 
L 136.11608 163.485609 
L 137.130625 161.702402 
L 137.637898 160.420844 
L 138.14517 164.815428 
L 138.652443 163.952454 
L 139.159716 162.432016 
L 139.666989 163.099974 
L 140.174261 162.512979 
L 140.681534 162.265303 
L 141.188807 163.58709 
L 141.69608 161.410305 
L 142.203352 162.710343 
L 142.710625 161.565435 
L 143.217898 161.16584 
L 143.72517 161.539059 
L 144.232443 162.557454 
L 144.739716 161.171452 
L 145.246989 161.384449 
L 145.754261 160.92679 
L 146.261534 160.831448 
L 147.27608 161.328739 
L 147.783352 161.196216 
L 148.290625 161.194354 
L 148.797898 161.482621 
L 149.30517 161.201429 
L 149.812443 159.7919 
L 150.319716 160.884693 
L 150.826989 160.064798 
L 151.334261 160.550759 
L 151.841534 162.077185 
L 152.348807 163.054654 
L 152.85608 160.376997 
L 153.363352 163.420413 
L 153.870625 160.81798 
L 154.377898 160.706714 
L 155.392443 162.97898 
L 155.899716 161.428681 
L 156.406989 160.805188 
L 157.421534 160.193846 
L 158.43608 162.631121 
L 158.943352 161.251941 
L 159.450625 159.442412 
L 159.957898 161.834268 
L 160.46517 161.591212 
L 160.972443 160.94865 
L 161.479716 161.58259 
L 161.986989 161.661909 
L 162.494261 162.60633 
L 163.508807 161.360388 
L 164.523352 161.703732 
L 165.030625 160.981433 
L 166.04517 161.378065 
L 167.059716 159.80897 
L 167.566989 160.21275 
L 168.074261 160.462935 
L 168.581534 161.088266 
L 169.59608 161.389012 
L 170.103352 160.004467 
L 170.610625 161.423814 
L 171.117898 161.588497 
L 171.62517 160.70362 
L 172.132443 161.311015 
L 172.639716 162.288528 
L 173.146989 161.574032 
L 173.654261 162.933584 
L 174.161534 162.761098 
L 174.668807 161.823109 
L 175.17608 163.255695 
L 175.683352 162.48772 
L 176.190625 162.510713 
L 176.697898 162.845991 
L 177.20517 162.220304 
L 177.712443 162.518876 
L 178.219716 163.464852 
L 178.726989 164.100062 
L 179.234261 161.71733 
L 179.741534 160.953926 
L 180.248807 162.188098 
L 181.263352 161.382858 
L 181.770625 162.157181 
L 182.277898 162.385889 
L 182.78517 160.804717 
L 183.292443 161.59229 
L 183.799716 161.478432 
L 184.306989 161.686822 
L 184.814261 162.509587 
L 185.321534 161.135064 
L 185.828807 161.60804 
L 186.33608 162.642114 
L 186.843352 163.370876 
L 187.350625 161.109782 
L 187.857898 153.752785 
L 188.36517 154.884893 
L 188.872443 154.642952 
L 189.379716 156.15602 
L 189.886989 156.257159 
L 190.394261 154.933457 
L 190.901534 156.047679 
L 191.408807 156.254787 
L 191.91608 157.181505 
L 192.423352 156.53724 
L 192.930625 156.437924 
L 193.437898 156.791371 
L 193.94517 156.526013 
L 194.452443 156.899174 
L 194.959716 156.612682 
L 195.466989 155.971204 
L 195.974261 156.374247 
L 196.988807 156.676973 
L 197.49608 156.380954 
L 198.003352 156.744293 
L 198.510625 156.508302 
L 199.52517 156.742195 
L 200.032443 156.015266 
L 200.539716 156.667905 
L 201.554261 156.571618 
L 202.061534 156.876875 
L 202.568807 157.011189 
L 203.583352 156.562438 
L 204.090625 157.11912 
L 204.597898 157.288222 
L 205.10517 156.918805 
L 205.612443 156.340906 
L 206.119716 157.068537 
L 206.626989 156.310565 
L 207.641534 155.798621 
L 208.148807 156.372213 
L 208.65608 156.620934 
L 209.670625 155.934658 
L 210.177898 155.997717 
L 210.68517 156.237635 
L 211.192443 156.252845 
L 211.699716 155.534283 
L 212.206989 156.106492 
L 212.714261 155.971055 
L 213.221534 155.262929 
L 213.728807 155.565248 
L 214.23608 155.523103 
L 214.743352 155.801346 
L 215.250625 156.566333 
L 215.757898 156.216639 
L 216.26517 156.133157 
L 216.772443 155.391582 
L 217.279716 155.66232 
L 217.786989 156.145638 
L 218.294261 155.672539 
L 218.801534 155.874484 
L 219.308807 155.743108 
L 219.81608 156.238413 
L 220.323352 155.989438 
L 221.337898 156.440338 
L 222.352443 155.672807 
L 222.859716 155.631246 
L 223.366989 155.827528 
L 223.874261 156.184732 
L 224.381534 155.693904 
L 224.888807 156.168457 
L 225.39608 156.299126 
L 225.903352 155.762169 
L 226.917898 156.752607 
L 227.42517 155.909613 
L 227.932443 156.437744 
L 228.946989 156.503263 
L 229.454261 156.287067 
L 229.961534 156.348738 
L 230.468807 156.141802 
L 230.97608 156.48928 
L 231.483352 155.958175 
L 231.990625 155.93672 
L 232.497898 156.125692 
L 233.00517 156.556642 
L 233.512443 156.08584 
L 234.019716 155.853602 
L 234.526989 156.224566 
L 235.541534 155.977781 
L 236.048807 156.594103 
L 236.55608 155.667991 
L 237.570625 156.37959 
L 238.077898 156.129236 
L 238.58517 156.608581 
L 239.092443 155.852199 
L 239.599716 155.933841 
L 240.106989 155.823862 
L 240.614261 156.261902 
L 241.121534 156.217012 
L 241.628807 156.433896 
L 242.13608 156.219792 
L 242.643352 156.336659 
L 243.150625 156.096349 
L 243.657898 156.14078 
L 244.16517 156.421176 
L 245.686989 156.095558 
L 246.194261 157.212045 
L 246.701534 156.587763 
L 247.208807 156.30008 
L 247.71608 156.348145 
L 248.223352 156.214621 
L 248.730625 156.433314 
L 249.237898 156.347303 
L 250.252443 156.730407 
L 250.759716 156.311451 
L 251.266989 156.422137 
L 251.774261 156.363393 
L 252.281534 156.605773 
L 254.310625 156.104843 
L 254.817898 156.384421 
L 255.32517 156.488825 
L 255.832443 156.398473 
L 256.339716 156.77701 
L 257.354261 156.438086 
L 257.861534 156.575574 
L 258.368807 156.895077 
L 258.87608 156.586644 
L 259.383352 156.758388 
L 259.890625 156.656062 
L 260.397898 156.965966 
L 261.412443 156.474212 
L 261.919716 156.979237 
L 263.441534 156.78095 
L 263.948807 157.101613 
L 264.45608 156.75467 
L 264.963352 156.551084 
L 265.977898 157.098151 
L 266.48517 156.494078 
L 266.992443 156.470489 
L 267.499716 156.88698 
L 268.006989 156.736063 
L 268.514261 156.7347 
L 269.021534 157.464837 
L 269.528807 157.245992 
L 270.03608 156.862099 
L 270.543352 156.935837 
L 271.050625 156.769388 
L 271.557898 157.033425 
L 272.06517 156.931994 
L 273.079716 157.300986 
L 273.586989 156.96563 
L 274.094261 157.144787 
L 275.108807 156.797355 
L 275.61608 157.022033 
L 276.123352 156.650283 
L 276.630625 156.643316 
L 277.137898 157.060201 
L 277.64517 156.635579 
L 278.659716 156.742267 
L 279.674261 156.37065 
L 280.181534 156.805563 
L 280.688807 157.010789 
L 281.19608 156.41239 
L 281.703352 156.30752 
L 282.210625 156.518043 
L 282.717898 154.394413 
L 283.22517 153.868807 
L 283.732443 154.745371 
L 284.239716 154.964107 
L 284.746989 155.882272 
L 286.268807 155.2932 
L 287.283352 155.89478 
L 287.790625 155.705633 
L 288.297898 155.735094 
L 288.80517 156.291481 
L 289.819716 155.58715 
L 290.326989 155.645655 
L 290.834261 153.043477 
L 291.341534 154.084499 
L 291.848807 154.435394 
L 292.35608 154.271206 
L 292.863352 154.535556 
L 293.370625 155.139117 
L 293.877898 154.806182 
L 294.38517 155.013079 
L 294.892443 154.635972 
L 295.399716 155.060609 
L 295.906989 155.242783 
L 296.414261 154.710172 
L 296.921534 155.23496 
L 298.443352 154.912978 
L 298.950625 154.600437 
L 299.457898 154.867425 
L 299.96517 154.496443 
L 300.472443 155.003689 
L 301.486989 155.096093 
L 301.994261 154.993173 
L 302.501534 155.095595 
L 303.008807 155.423929 
L 304.530625 155.077029 
L 305.037898 155.272574 
L 305.54517 154.511676 
L 306.052443 155.031347 
L 306.559716 155.333706 
L 307.066989 155.833112 
L 307.574261 155.491651 
L 308.588807 155.26391 
L 309.09608 155.533926 
L 309.603352 155.532608 
L 310.110625 155.347737 
L 310.617898 155.905205 
L 311.632443 155.375726 
L 312.139716 155.269938 
L 312.646989 155.835803 
L 313.661534 155.153243 
L 315.183352 155.751553 
L 316.197898 155.403771 
L 316.70517 155.480373 
L 317.212443 155.800394 
L 317.719716 155.63988 
L 318.226989 156.279948 
L 318.734261 155.760215 
L 319.748807 155.431543 
L 321.270625 155.709706 
L 321.777898 155.219692 
L 322.28517 155.442174 
L 322.792443 155.890347 
L 323.806989 156.019055 
L 324.314261 155.491745 
L 325.83608 155.350416 
L 326.343352 155.346429 
L 326.850625 155.665712 
L 327.357898 155.630159 
L 327.86517 156.297099 
L 328.372443 155.577022 
L 328.879716 154.636774 
L 329.386989 155.540049 
L 330.401534 155.596634 
L 330.908807 155.315462 
L 331.41608 155.58118 
L 331.923352 154.986037 
L 333.44517 155.552048 
L 335.474261 155.310278 
L 335.981534 155.408083 
L 336.488807 155.196475 
L 336.99608 155.538965 
L 337.503352 155.442706 
L 338.010625 155.091318 
L 338.517898 153.608385 
L 339.532443 154.714612 
L 340.039716 154.891346 
L 340.546989 154.903836 
L 341.054261 154.621878 
L 341.561534 155.658852 
L 342.068807 155.249258 
L 342.57608 155.713823 
L 343.083352 155.021825 
L 344.097898 155.150075 
L 344.60517 155.154992 
L 345.112443 155.317545 
L 345.619716 155.151199 
L 346.126989 155.264146 
L 346.634261 155.587818 
L 348.663352 155.074538 
L 349.170625 155.645964 
L 349.677898 155.841646 
L 350.18517 155.354586 
L 350.692443 155.051135 
L 351.199716 155.565542 
L 351.706989 155.17962 
L 352.214261 155.260668 
L 352.721534 155.475398 
L 353.228807 155.165695 
L 353.73608 155.24334 
L 354.243352 155.072499 
L 354.750625 155.269896 
L 355.257898 154.818812 
L 355.76517 155.188621 
L 356.272443 155.108289 
L 356.779716 154.669359 
L 357.286989 155.152197 
L 357.794261 155.156871 
L 358.301534 154.848813 
L 358.808807 155.390366 
L 359.31608 155.278702 
L 359.823352 155.436354 
L 360.330625 155.245938 
L 360.837898 155.244318 
L 361.34517 154.974139 
L 361.852443 155.382234 
L 362.359716 155.004301 
L 362.866989 154.988872 
L 363.374261 155.262399 
L 364.388807 155.096087 
L 364.89608 154.837695 
L 365.910625 155.423065 
L 366.417898 155.028617 
L 366.92517 155.512282 
L 367.432443 155.296887 
L 367.939716 155.225788 
L 368.446989 154.743231 
L 368.954261 155.366563 
L 369.968807 155.130873 
L 370.47608 154.707484 
L 370.983352 154.986333 
L 371.997898 154.818989 
L 372.50517 155.046058 
L 373.012443 154.702934 
L 374.026989 155.039919 
L 374.534261 154.975369 
L 375.041534 155.334182 
L 375.548807 154.849228 
L 376.05608 155.037184 
L 376.563352 154.970428 
L 377.070625 155.284791 
L 377.577898 154.96514 
L 378.08517 155.305088 
L 378.592443 154.640369 
L 379.099716 155.181552 
L 380.621534 155.488724 
L 381.128807 154.730194 
L 382.650625 154.930242 
L 383.157898 155.111416 
L 383.66517 155.045237 
L 384.172443 155.248884 
L 384.679716 154.713462 
L 385.186989 154.878149 
L 385.694261 155.207209 
L 386.201534 154.545471 
L 387.21608 155.620813 
L 387.723352 155.274956 
L 388.230625 155.497977 
L 388.737898 155.070469 
L 389.24517 155.350361 
L 389.752443 154.947572 
L 390.259716 155.52839 
L 390.766989 155.107947 
L 391.274261 155.580213 
L 391.781534 155.139409 
L 392.288807 155.178293 
L 392.79608 155.381478 
L 393.303352 155.187845 
L 393.810625 155.494437 
L 394.317898 155.217882 
L 394.82517 155.285562 
L 395.332443 155.031702 
L 395.839716 155.296398 
L 396.346989 154.910107 
L 396.854261 155.275375 
L 397.361534 155.15732 
L 397.868807 155.31056 
L 398.883352 155.333147 
L 399.897898 154.904764 
L 400.40517 155.58039 
L 401.419716 155.156327 
L 401.926989 155.373803 
L 402.434261 155.249042 
L 402.941534 155.254083 
L 403.448807 155.55925 
L 403.95608 155.219763 
L 404.463352 155.562492 
L 404.970625 155.304436 
L 406.999716 155.284766 
L 408.014261 155.369909 
L 409.028807 155.254357 
L 409.53608 155.33416 
L 410.043352 155.032186 
L 411.057898 155.323129 
L 411.56517 155.204486 
L 412.072443 155.311507 
L 412.579716 155.125744 
L 414.101534 155.663483 
L 414.608807 155.077817 
L 415.11608 154.902083 
L 415.623352 155.02242 
L 416.130625 155.328052 
L 417.652443 155.428283 
L 418.159716 155.442195 
L 418.666989 155.699922 
L 420.188807 155.499555 
L 420.69608 155.280517 
L 421.710625 155.843515 
L 422.217898 154.460927 
L 422.72517 155.107892 
L 425.261534 155.057375 
L 425.768807 155.366999 
L 426.27608 155.084903 
L 426.783352 153.80868 
L 427.290625 154.421182 
L 427.797898 154.517176 
L 428.30517 154.371533 
L 428.812443 155.156259 
L 429.826989 155.151924 
L 430.334261 154.886121 
L 430.841534 155.168401 
L 431.348807 151.549215 
L 431.85608 153.671801 
L 432.363352 154.210377 
L 432.870625 153.137968 
L 433.377898 153.212823 
L 433.88517 153.538874 
L 434.392443 153.63788 
L 434.899716 153.866057 
L 435.406989 153.574882 
L 435.914261 153.807505 
L 436.421534 153.786339 
L 436.928807 153.559401 
L 437.43608 154.12274 
L 437.943352 153.933107 
L 438.450625 154.043313 
L 438.957898 153.748751 
L 439.46517 154.127582 
L 439.972443 154.275268 
L 440.479716 153.823059 
L 440.986989 153.913277 
L 441.494261 154.303842 
L 442.001534 154.969832 
L 442.508807 153.886911 
L 443.01608 153.764402 
L 444.030625 154.095029 
L 444.537898 153.892431 
L 445.04517 154.085215 
L 445.552443 153.970061 
L 446.059716 154.195834 
L 446.566989 154.003589 
L 447.074261 154.439732 
L 447.581534 154.185034 
L 448.088807 154.274745 
L 448.59608 154.164723 
L 449.103352 154.349258 
L 449.610625 154.215334 
L 450.117898 153.931444 
L 451.639716 154.356585 
L 452.146989 154.372823 
L 452.654261 154.028425 
L 453.161534 154.139414 
L 453.668807 154.375035 
L 454.683352 154.007671 
L 455.190625 154.379753 
L 455.697898 154.30798 
L 456.20517 153.920567 
L 456.712443 154.074949 
L 457.219716 154.48548 
L 457.726989 154.264881 
L 458.234261 154.224904 
L 458.741534 154.30137 
L 459.248807 153.986259 
L 460.770625 154.153079 
L 461.277898 154.133734 
L 461.78517 154.287122 
L 463.306989 154.271796 
L 463.814261 153.937811 
L 464.828807 154.089754 
L 465.33608 154.338696 
L 465.843352 153.865401 
L 466.350625 153.971171 
L 466.857898 153.877875 
L 468.886989 154.158169 
L 469.901534 153.920859 
L 470.408807 154.317894 
L 470.91608 154.224999 
L 471.423352 154.446094 
L 472.437898 154.076167 
L 473.452443 154.223886 
L 473.959716 153.940132 
L 474.466989 154.107708 
L 475.988807 154.023793 
L 477.003352 154.114796 
L 477.510625 153.951738 
L 478.017898 154.329505 
L 478.52517 154.126174 
L 480.046989 154.319701 
L 480.554261 154.315378 
L 481.061534 154.621295 
L 482.07608 153.964944 
L 483.090625 154.028827 
L 483.597898 154.227184 
L 486.134261 154.378203 
L 486.641534 154.049099 
L 487.148807 153.978356 
L 487.65608 154.58294 
L 488.163352 154.206178 
L 488.670625 154.275986 
L 489.177898 154.143732 
L 489.68517 154.319655 
L 490.192443 154.376685 
L 490.699716 154.080599 
L 491.206989 154.252721 
L 492.221534 154.154387 
L 492.728807 153.922477 
L 493.23608 154.097532 
L 493.743352 154.597194 
L 494.250625 153.976399 
L 494.757898 154.136974 
L 495.26517 153.96186 
L 495.772443 154.141673 
L 496.279716 154.478791 
L 496.786989 154.129619 
L 497.801534 153.999698 
L 498.308807 154.097529 
L 498.81608 154.352394 
L 499.323352 154.116491 
L 500.84517 154.07981 
L 501.352443 154.264089 
L 501.859716 154.060622 
L 502.366989 154.013722 
L 502.874261 154.207735 
L 503.381534 153.979308 
L 503.888807 154.218602 
L 504.903352 154.080605 
L 505.410625 154.243596 
L 505.917898 153.864804 
L 507.946989 153.877679 
L 508.454261 153.959656 
L 508.961534 153.795453 
L 509.468807 153.773476 
L 509.97608 154.186488 
L 510.990625 153.700009 
L 511.497898 153.946222 
L 512.00517 154.06566 
L 512.512443 153.754328 
L 513.019716 154.287848 
L 514.541534 153.849293 
L 515.55608 153.528761 
L 516.063352 153.87291 
L 516.570625 153.786487 
L 517.077898 153.579352 
L 517.58517 153.644116 
L 518.092443 153.925112 
L 518.599716 153.711868 
L 519.106989 153.664731 
L 520.121534 153.907606 
L 520.628807 153.79868 
L 521.13608 154.055372 
L 522.150625 153.587292 
L 522.657898 153.925825 
L 523.16517 153.770486 
L 523.672443 153.886633 
L 524.179716 153.472232 
L 524.686989 154.056653 
L 525.194261 153.617917 
L 525.701534 153.571063 
L 526.71608 153.9403 
L 527.223352 153.841082 
L 528.237898 154.012851 
L 529.252443 153.814185 
L 529.759716 153.871481 
L 530.266989 153.812954 
L 530.774261 154.077296 
L 531.281534 153.678675 
L 531.788807 153.96379 
L 532.29608 153.987649 
L 532.803352 153.71852 
L 533.310625 153.826589 
L 533.817898 154.332645 
L 534.32517 153.935132 
L 534.832443 154.064574 
L 535.339716 153.981866 
L 536.354261 154.219335 
L 536.861534 154.053844 
L 538.890625 154.018075 
L 539.397898 153.842495 
L 539.90517 154.030466 
L 540.919716 154.052931 
L 541.426989 153.843973 
L 542.441534 153.90353 
L 542.948807 153.818086 
L 543.45608 154.2799 
L 544.470625 153.933575 
L 544.977898 154.300037 
L 545.48517 153.893896 
L 546.499716 154.058179 
L 547.006989 153.92214 
L 547.514261 154.22361 
L 548.021534 153.862036 
L 548.528807 153.693224 
L 549.03608 153.719976 
L 549.543352 153.987266 
L 550.050625 154.112372 
L 550.557898 153.760369 
L 551.06517 153.934932 
L 551.572443 153.758076 
L 552.079716 154.126527 
L 553.094261 153.698017 
L 554.61608 153.836213 
L 555.123352 153.927989 
L 555.630625 154.164977 
L 556.137898 154.133394 
L 556.64517 153.938669 
L 557.152443 154.325476 
L 557.659716 154.558286 
L 558.166989 154.414128 
L 558.674261 154.028473 
L 559.181534 154.414489 
L 559.688807 154.491601 
L 560.19608 154.373761 
L 560.703352 153.969343 
L 561.210625 154.198198 
L 561.717898 153.895323 
L 562.22517 153.924063 
L 562.732443 154.150303 
L 564.254261 153.796347 
L 564.761534 153.902566 
L 565.268807 153.840236 
L 565.77608 154.118608 
L 566.283352 153.73167 
L 566.790625 153.699172 
L 568.312443 154.417767 
L 568.819716 153.697973 
L 569.326989 154.16362 
L 569.834261 153.967527 
L 570.341534 154.424971 
L 570.848807 154.075927 
L 571.35608 153.943741 
L 571.863352 154.111361 
L 572.370625 154.029278 
L 572.877898 154.3959 
L 573.38517 154.279221 
L 573.892443 153.731126 
L 574.399716 153.933458 
L 574.906989 153.759584 
L 575.414261 154.252961 
L 576.93608 154.214123 
L 577.443352 153.817382 
L 577.950625 153.954916 
L 578.457898 153.954131 
L 578.96517 154.139536 
L 579.472443 153.998398 
L 579.979716 154.01198 
L 580.486989 153.770395 
L 580.994261 153.984374 
L 581.501534 153.803639 
L 582.008807 153.896815 
L 582.51608 154.327526 
L 583.530625 154.01714 
L 584.037898 154.148716 
L 584.54517 154.020145 
L 585.052443 153.737345 
L 586.066989 154.148158 
L 586.574261 154.160656 
L 587.081534 154.289256 
L 587.588807 154.099192 
L 588.603352 154.258271 
L 589.110625 154.43969 
L 589.617898 154.466777 
L 590.12517 154.188428 
L 590.632443 154.177265 
L 591.139716 153.911907 
L 591.646989 154.21176 
L 592.154261 153.868858 
L 593.168807 153.936139 
L 593.67608 153.989305 
L 594.183352 153.910832 
L 594.690625 154.05375 
L 595.197898 154.331082 
L 595.70517 154.389428 
L 596.212443 153.938845 
L 597.226989 154.264901 
L 597.734261 154.185355 
L 598.241534 153.866401 
L 598.748807 154.115681 
L 599.763352 154.051252 
L 600.777898 154.501722 
L 601.28517 154.195006 
L 601.792443 154.12441 
L 602.299716 154.291247 
L 602.806989 154.21853 
L 603.314261 154.024233 
L 603.821534 154.026906 
L 604.83608 154.571016 
L 606.357898 154.264473 
L 606.86517 153.853914 
L 607.372443 154.087683 
L 607.879716 154.514502 
L 608.386989 154.336722 
L 608.894261 153.90356 
L 609.908807 154.311913 
L 610.41608 154.234345 
L 610.923352 154.378542 
L 611.430625 154.14663 
L 611.937898 154.348093 
L 612.44517 154.146855 
L 612.952443 154.325467 
L 613.459716 154.251309 
L 613.966989 154.003232 
L 615.99608 154.103678 
L 616.503352 153.875189 
L 617.517898 154.247452 
L 618.02517 153.897624 
L 619.546989 153.909604 
L 620.054261 154.191593 
L 621.57608 154.095129 
L 622.083352 154.1144 
L 622.590625 153.94871 
L 624.112443 154.296575 
L 624.619716 154.075555 
L 625.126989 154.44911 
L 625.126989 154.44911 
" clip-path="url(#p17c36dbfab)" style="fill: none; stroke: #ff7f0e; stroke-width: 1.5; stroke-linecap: square"/>
   </g>
   <g id="patch_3">
    <path d="M 92.490625 308.63625 
L 92.490625 31.43625 
" style="fill: none; stroke: #000000; stroke-width: 0.8; stroke-linejoin: miter; stroke-linecap: square"/>
   </g>
   <g id="patch_4">
    <path d="M 650.490625 308.63625 
L 650.490625 31.43625 
" style="fill: none; stroke: #000000; stroke-width: 0.8; stroke-linejoin: miter; stroke-linecap: square"/>
   </g>
   <g id="patch_5">
    <path d="M 92.490625 308.63625 
L 650.490625 308.63625 
" style="fill: none; stroke: #000000; stroke-width: 0.8; stroke-linejoin: miter; stroke-linecap: square"/>
   </g>
   <g id="patch_6">
    <path d="M 92.490625 31.43625 
L 650.490625 31.43625 
" style="fill: none; stroke: #000000; stroke-width: 0.8; stroke-linejoin: miter; stroke-linecap: square"/>
   </g>
   <g id="text_12">
    <!-- Generator and Discriminator Loss During Training -->
    <g transform="translate(74.258125 25.43625) scale(0.24 -0.24)">
     <defs>
      <path id="DejaVuSans-47" d="M 3809 666 
L 3809 1919 
L 2778 1919 
L 2778 2438 
L 4434 2438 
L 4434 434 
Q 4069 175 3628 42 
Q 3188 -91 2688 -91 
Q 1594 -91 976 548 
Q 359 1188 359 2328 
Q 359 3472 976 4111 
Q 1594 4750 2688 4750 
Q 3144 4750 3555 4637 
Q 3966 4525 4313 4306 
L 4313 3634 
Q 3963 3931 3569 4081 
Q 3175 4231 2741 4231 
Q 1884 4231 1454 3753 
Q 1025 3275 1025 2328 
Q 1025 1384 1454 906 
Q 1884 428 2741 428 
Q 3075 428 3337 486 
Q 3600 544 3809 666 
z
" transform="scale(0.015625)"/>
      <path id="DejaVuSans-20" transform="scale(0.015625)"/>
      <path id="DejaVuSans-64" d="M 2906 2969 
L 2906 4863 
L 3481 4863 
L 3481 0 
L 2906 0 
L 2906 525 
Q 2725 213 2448 61 
Q 2172 -91 1784 -91 
Q 1150 -91 751 415 
Q 353 922 353 1747 
Q 353 2572 751 3078 
Q 1150 3584 1784 3584 
Q 2172 3584 2448 3432 
Q 2725 3281 2906 2969 
z
M 947 1747 
Q 947 1113 1208 752 
Q 1469 391 1925 391 
Q 2381 391 2643 752 
Q 2906 1113 2906 1747 
Q 2906 2381 2643 2742 
Q 2381 3103 1925 3103 
Q 1469 3103 1208 2742 
Q 947 2381 947 1747 
z
" transform="scale(0.015625)"/>
      <path id="DejaVuSans-44" d="M 1259 4147 
L 1259 519 
L 2022 519 
Q 2988 519 3436 956 
Q 3884 1394 3884 2338 
Q 3884 3275 3436 3711 
Q 2988 4147 2022 4147 
L 1259 4147 
z
M 628 4666 
L 1925 4666 
Q 3281 4666 3915 4102 
Q 4550 3538 4550 2338 
Q 4550 1131 3912 565 
Q 3275 0 1925 0 
L 628 0 
L 628 4666 
z
" transform="scale(0.015625)"/>
      <path id="DejaVuSans-63" d="M 3122 3366 
L 3122 2828 
Q 2878 2963 2633 3030 
Q 2388 3097 2138 3097 
Q 1578 3097 1268 2742 
Q 959 2388 959 1747 
Q 959 1106 1268 751 
Q 1578 397 2138 397 
Q 2388 397 2633 464 
Q 2878 531 3122 666 
L 3122 134 
Q 2881 22 2623 -34 
Q 2366 -91 2075 -91 
Q 1284 -91 818 406 
Q 353 903 353 1747 
Q 353 2603 823 3093 
Q 1294 3584 2113 3584 
Q 2378 3584 2631 3529 
Q 2884 3475 3122 3366 
z
" transform="scale(0.015625)"/>
      <path id="DejaVuSans-6d" d="M 3328 2828 
Q 3544 3216 3844 3400 
Q 4144 3584 4550 3584 
Q 5097 3584 5394 3201 
Q 5691 2819 5691 2113 
L 5691 0 
L 5113 0 
L 5113 2094 
Q 5113 2597 4934 2840 
Q 4756 3084 4391 3084 
Q 3944 3084 3684 2787 
Q 3425 2491 3425 1978 
L 3425 0 
L 2847 0 
L 2847 2094 
Q 2847 2600 2669 2842 
Q 2491 3084 2119 3084 
Q 1678 3084 1418 2786 
Q 1159 2488 1159 1978 
L 1159 0 
L 581 0 
L 581 3500 
L 1159 3500 
L 1159 2956 
Q 1356 3278 1631 3431 
Q 1906 3584 2284 3584 
Q 2666 3584 2933 3390 
Q 3200 3197 3328 2828 
z
" transform="scale(0.015625)"/>
      <path id="DejaVuSans-75" d="M 544 1381 
L 544 3500 
L 1119 3500 
L 1119 1403 
Q 1119 906 1312 657 
Q 1506 409 1894 409 
Q 2359 409 2629 706 
Q 2900 1003 2900 1516 
L 2900 3500 
L 3475 3500 
L 3475 0 
L 2900 0 
L 2900 538 
Q 2691 219 2414 64 
Q 2138 -91 1772 -91 
Q 1169 -91 856 284 
Q 544 659 544 1381 
z
M 1991 3584 
L 1991 3584 
z
" transform="scale(0.015625)"/>
      <path id="DejaVuSans-67" d="M 2906 1791 
Q 2906 2416 2648 2759 
Q 2391 3103 1925 3103 
Q 1463 3103 1205 2759 
Q 947 2416 947 1791 
Q 947 1169 1205 825 
Q 1463 481 1925 481 
Q 2391 481 2648 825 
Q 2906 1169 2906 1791 
z
M 3481 434 
Q 3481 -459 3084 -895 
Q 2688 -1331 1869 -1331 
Q 1566 -1331 1297 -1286 
Q 1028 -1241 775 -1147 
L 775 -588 
Q 1028 -725 1275 -790 
Q 1522 -856 1778 -856 
Q 2344 -856 2625 -561 
Q 2906 -266 2906 331 
L 2906 616 
Q 2728 306 2450 153 
Q 2172 0 1784 0 
Q 1141 0 747 490 
Q 353 981 353 1791 
Q 353 2603 747 3093 
Q 1141 3584 1784 3584 
Q 2172 3584 2450 3431 
Q 2728 3278 2906 2969 
L 2906 3500 
L 3481 3500 
L 3481 434 
z
" transform="scale(0.015625)"/>
      <path id="DejaVuSans-54" d="M -19 4666 
L 3928 4666 
L 3928 4134 
L 2272 4134 
L 2272 0 
L 1638 0 
L 1638 4134 
L -19 4134 
L -19 4666 
z
" transform="scale(0.015625)"/>
     </defs>
     <use xlink:href="#DejaVuSans-47"/>
     <use xlink:href="#DejaVuSans-65" x="77.490234"/>
     <use xlink:href="#DejaVuSans-6e" x="139.013672"/>
     <use xlink:href="#DejaVuSans-65" x="202.392578"/>
     <use xlink:href="#DejaVuSans-72" x="263.916016"/>
     <use xlink:href="#DejaVuSans-61" x="305.029297"/>
     <use xlink:href="#DejaVuSans-74" x="366.308594"/>
     <use xlink:href="#DejaVuSans-6f" x="405.517578"/>
     <use xlink:href="#DejaVuSans-72" x="466.699219"/>
     <use xlink:href="#DejaVuSans-20" x="507.8125"/>
     <use xlink:href="#DejaVuSans-61" x="539.599609"/>
     <use xlink:href="#DejaVuSans-6e" x="600.878906"/>
     <use xlink:href="#DejaVuSans-64" x="664.257812"/>
     <use xlink:href="#DejaVuSans-20" x="727.734375"/>
     <use xlink:href="#DejaVuSans-44" x="759.521484"/>
     <use xlink:href="#DejaVuSans-69" x="836.523438"/>
     <use xlink:href="#DejaVuSans-73" x="864.306641"/>
     <use xlink:href="#DejaVuSans-63" x="916.40625"/>
     <use xlink:href="#DejaVuSans-72" x="971.386719"/>
     <use xlink:href="#DejaVuSans-69" x="1012.5"/>
     <use xlink:href="#DejaVuSans-6d" x="1040.283203"/>
     <use xlink:href="#DejaVuSans-69" x="1137.695312"/>
     <use xlink:href="#DejaVuSans-6e" x="1165.478516"/>
     <use xlink:href="#DejaVuSans-61" x="1228.857422"/>
     <use xlink:href="#DejaVuSans-74" x="1290.136719"/>
     <use xlink:href="#DejaVuSans-6f" x="1329.345703"/>
     <use xlink:href="#DejaVuSans-72" x="1390.527344"/>
     <use xlink:href="#DejaVuSans-20" x="1431.640625"/>
     <use xlink:href="#DejaVuSans-4c" x="1463.427734"/>
     <use xlink:href="#DejaVuSans-6f" x="1517.390625"/>
     <use xlink:href="#DejaVuSans-73" x="1578.572266"/>
     <use xlink:href="#DejaVuSans-73" x="1630.671875"/>
     <use xlink:href="#DejaVuSans-20" x="1682.771484"/>
     <use xlink:href="#DejaVuSans-44" x="1714.558594"/>
     <use xlink:href="#DejaVuSans-75" x="1791.560547"/>
     <use xlink:href="#DejaVuSans-72" x="1854.939453"/>
     <use xlink:href="#DejaVuSans-69" x="1896.052734"/>
     <use xlink:href="#DejaVuSans-6e" x="1923.835938"/>
     <use xlink:href="#DejaVuSans-67" x="1987.214844"/>
     <use xlink:href="#DejaVuSans-20" x="2050.691406"/>
     <use xlink:href="#DejaVuSans-54" x="2082.478516"/>
     <use xlink:href="#DejaVuSans-72" x="2128.8125"/>
     <use xlink:href="#DejaVuSans-61" x="2169.925781"/>
     <use xlink:href="#DejaVuSans-69" x="2231.205078"/>
     <use xlink:href="#DejaVuSans-6e" x="2258.988281"/>
     <use xlink:href="#DejaVuSans-69" x="2322.367188"/>
     <use xlink:href="#DejaVuSans-6e" x="2350.150391"/>
     <use xlink:href="#DejaVuSans-67" x="2413.529297"/>
    </g>
   </g>
   <g id="legend_1">
    <g id="patch_7">
     <path d="M 556.99375 106.14875 
L 636.490625 106.14875 
Q 640.490625 106.14875 640.490625 102.14875 
L 640.490625 45.43625 
Q 640.490625 41.43625 636.490625 41.43625 
L 556.99375 41.43625 
Q 552.99375 41.43625 552.99375 45.43625 
L 552.99375 102.14875 
Q 552.99375 106.14875 556.99375 106.14875 
z
" style="fill: #ffffff; opacity: 0.8; stroke: #cccccc; stroke-linejoin: miter"/>
    </g>
    <g id="line2d_12">
     <path d="M 560.99375 57.633125 
L 580.99375 57.633125 
L 600.99375 57.633125 
" style="fill: none; stroke: #1f77b4; stroke-width: 1.5; stroke-linecap: square"/>
    </g>
    <g id="text_13">
     <!-- G -->
     <g transform="translate(616.99375 64.633125) scale(0.2 -0.2)">
      <use xlink:href="#DejaVuSans-47"/>
     </g>
    </g>
    <g id="line2d_13">
     <path d="M 560.99375 86.989375 
L 580.99375 86.989375 
L 600.99375 86.989375 
" style="fill: none; stroke: #ff7f0e; stroke-width: 1.5; stroke-linecap: square"/>
    </g>
    <g id="text_14">
     <!-- D -->
     <g transform="translate(616.99375 93.989375) scale(0.2 -0.2)">
      <use xlink:href="#DejaVuSans-44"/>
     </g>
    </g>
   </g>
  </g>
 </g>
 <defs>
  <clipPath id="p17c36dbfab">
   <rect x="92.490625" y="31.43625" width="558" height="277.2"/>
  </clipPath>
 </defs>
</svg>
