<?xml version="1.0" encoding="utf-8" standalone="no"?>
<!DOCTYPE svg PUBLIC "-//W3C//DTD SVG 1.1//EN"
  "http://www.w3.org/Graphics/SVG/1.1/DTD/svg11.dtd">
<svg xmlns:xlink="http://www.w3.org/1999/xlink" width="675.923125pt" height="365.54875pt" viewBox="0 0 675.923125 365.54875" xmlns="http://www.w3.org/2000/svg" version="1.1">
 <metadata>
  <rdf:RDF xmlns:dc="http://purl.org/dc/elements/1.1/" xmlns:cc="http://creativecommons.org/ns#" xmlns:rdf="http://www.w3.org/1999/02/22-rdf-syntax-ns#">
   <cc:Work>
    <dc:type rdf:resource="http://purl.org/dc/dcmitype/StillImage"/>
    <dc:date>2024-02-01T07:10:34.472360</dc:date>
    <dc:format>image/svg+xml</dc:format>
    <dc:creator>
     <cc:Agent>
      <dc:title>Matplotlib v3.7.2, https://matplotlib.org/</dc:title>
     </cc:Agent>
    </dc:creator>
   </cc:Work>
  </rdf:RDF>
 </metadata>
 <defs>
  <style type="text/css">*{stroke-linejoin: round; stroke-linecap: butt}</style>
 </defs>
 <g id="figure_1">
  <g id="patch_1">
   <path d="M 0 365.54875 
L 675.923125 365.54875 
L 675.923125 -0 
L 0 -0 
z
" style="fill: #ffffff"/>
  </g>
  <g id="axes_1">
   <g id="patch_2">
    <path d="M 92.490625 308.63625 
L 650.490625 308.63625 
L 650.490625 31.43625 
L 92.490625 31.43625 
z
" style="fill: #ffffff"/>
   </g>
   <g id="matplotlib.axis_1">
    <g id="xtick_1">
     <g id="line2d_1">
      <defs>
       <path id="ma0815fa529" d="M 0 0 
L 0 3.5 
" style="stroke: #000000; stroke-width: 0.8"/>
      </defs>
      <g>
       <use xlink:href="#ma0815fa529" x="117.854261" y="308.63625" style="stroke: #000000; stroke-width: 0.8"/>
      </g>
     </g>
     <g id="text_1">
      <!-- 0 -->
      <g transform="translate(111.491761 330.833125) scale(0.2 -0.2)">
       <defs>
        <path id="DejaVuSans-30" d="M 2034 4250 
Q 1547 4250 1301 3770 
Q 1056 3291 1056 2328 
Q 1056 1369 1301 889 
Q 1547 409 2034 409 
Q 2525 409 2770 889 
Q 3016 1369 3016 2328 
Q 3016 3291 2770 3770 
Q 2525 4250 2034 4250 
z
M 2034 4750 
Q 2819 4750 3233 4129 
Q 3647 3509 3647 2328 
Q 3647 1150 3233 529 
Q 2819 -91 2034 -91 
Q 1250 -91 836 529 
Q 422 1150 422 2328 
Q 422 3509 836 4129 
Q 1250 4750 2034 4750 
z
" transform="scale(0.015625)"/>
       </defs>
       <use xlink:href="#DejaVuSans-30"/>
      </g>
     </g>
    </g>
    <g id="xtick_2">
     <g id="line2d_2">
      <g>
       <use xlink:href="#ma0815fa529" x="187.822913" y="308.63625" style="stroke: #000000; stroke-width: 0.8"/>
      </g>
     </g>
     <g id="text_2">
      <!-- 200 -->
      <g transform="translate(168.735413 330.833125) scale(0.2 -0.2)">
       <defs>
        <path id="DejaVuSans-32" d="M 1228 531 
L 3431 531 
L 3431 0 
L 469 0 
L 469 531 
Q 828 903 1448 1529 
Q 2069 2156 2228 2338 
Q 2531 2678 2651 2914 
Q 2772 3150 2772 3378 
Q 2772 3750 2511 3984 
Q 2250 4219 1831 4219 
Q 1534 4219 1204 4116 
Q 875 4013 500 3803 
L 500 4441 
Q 881 4594 1212 4672 
Q 1544 4750 1819 4750 
Q 2544 4750 2975 4387 
Q 3406 4025 3406 3419 
Q 3406 3131 3298 2873 
Q 3191 2616 2906 2266 
Q 2828 2175 2409 1742 
Q 1991 1309 1228 531 
z
" transform="scale(0.015625)"/>
       </defs>
       <use xlink:href="#DejaVuSans-32"/>
       <use xlink:href="#DejaVuSans-30" x="63.623047"/>
       <use xlink:href="#DejaVuSans-30" x="127.246094"/>
      </g>
     </g>
    </g>
    <g id="xtick_3">
     <g id="line2d_3">
      <g>
       <use xlink:href="#ma0815fa529" x="257.791565" y="308.63625" style="stroke: #000000; stroke-width: 0.8"/>
      </g>
     </g>
     <g id="text_3">
      <!-- 400 -->
      <g transform="translate(238.704065 330.833125) scale(0.2 -0.2)">
       <defs>
        <path id="DejaVuSans-34" d="M 2419 4116 
L 825 1625 
L 2419 1625 
L 2419 4116 
z
M 2253 4666 
L 3047 4666 
L 3047 1625 
L 3713 1625 
L 3713 1100 
L 3047 1100 
L 3047 0 
L 2419 0 
L 2419 1100 
L 313 1100 
L 313 1709 
L 2253 4666 
z
" transform="scale(0.015625)"/>
       </defs>
       <use xlink:href="#DejaVuSans-34"/>
       <use xlink:href="#DejaVuSans-30" x="63.623047"/>
       <use xlink:href="#DejaVuSans-30" x="127.246094"/>
      </g>
     </g>
    </g>
    <g id="xtick_4">
     <g id="line2d_4">
      <g>
       <use xlink:href="#ma0815fa529" x="327.760217" y="308.63625" style="stroke: #000000; stroke-width: 0.8"/>
      </g>
     </g>
     <g id="text_4">
      <!-- 600 -->
      <g transform="translate(308.672717 330.833125) scale(0.2 -0.2)">
       <defs>
        <path id="DejaVuSans-36" d="M 2113 2584 
Q 1688 2584 1439 2293 
Q 1191 2003 1191 1497 
Q 1191 994 1439 701 
Q 1688 409 2113 409 
Q 2538 409 2786 701 
Q 3034 994 3034 1497 
Q 3034 2003 2786 2293 
Q 2538 2584 2113 2584 
z
M 3366 4563 
L 3366 3988 
Q 3128 4100 2886 4159 
Q 2644 4219 2406 4219 
Q 1781 4219 1451 3797 
Q 1122 3375 1075 2522 
Q 1259 2794 1537 2939 
Q 1816 3084 2150 3084 
Q 2853 3084 3261 2657 
Q 3669 2231 3669 1497 
Q 3669 778 3244 343 
Q 2819 -91 2113 -91 
Q 1303 -91 875 529 
Q 447 1150 447 2328 
Q 447 3434 972 4092 
Q 1497 4750 2381 4750 
Q 2619 4750 2861 4703 
Q 3103 4656 3366 4563 
z
" transform="scale(0.015625)"/>
       </defs>
       <use xlink:href="#DejaVuSans-36"/>
       <use xlink:href="#DejaVuSans-30" x="63.623047"/>
       <use xlink:href="#DejaVuSans-30" x="127.246094"/>
      </g>
     </g>
    </g>
    <g id="xtick_5">
     <g id="line2d_5">
      <g>
       <use xlink:href="#ma0815fa529" x="397.72887" y="308.63625" style="stroke: #000000; stroke-width: 0.8"/>
      </g>
     </g>
     <g id="text_5">
      <!-- 800 -->
      <g transform="translate(378.64137 330.833125) scale(0.2 -0.2)">
       <defs>
        <path id="DejaVuSans-38" d="M 2034 2216 
Q 1584 2216 1326 1975 
Q 1069 1734 1069 1313 
Q 1069 891 1326 650 
Q 1584 409 2034 409 
Q 2484 409 2743 651 
Q 3003 894 3003 1313 
Q 3003 1734 2745 1975 
Q 2488 2216 2034 2216 
z
M 1403 2484 
Q 997 2584 770 2862 
Q 544 3141 544 3541 
Q 544 4100 942 4425 
Q 1341 4750 2034 4750 
Q 2731 4750 3128 4425 
Q 3525 4100 3525 3541 
Q 3525 3141 3298 2862 
Q 3072 2584 2669 2484 
Q 3125 2378 3379 2068 
Q 3634 1759 3634 1313 
Q 3634 634 3220 271 
Q 2806 -91 2034 -91 
Q 1263 -91 848 271 
Q 434 634 434 1313 
Q 434 1759 690 2068 
Q 947 2378 1403 2484 
z
M 1172 3481 
Q 1172 3119 1398 2916 
Q 1625 2713 2034 2713 
Q 2441 2713 2670 2916 
Q 2900 3119 2900 3481 
Q 2900 3844 2670 4047 
Q 2441 4250 2034 4250 
Q 1625 4250 1398 4047 
Q 1172 3844 1172 3481 
z
" transform="scale(0.015625)"/>
       </defs>
       <use xlink:href="#DejaVuSans-38"/>
       <use xlink:href="#DejaVuSans-30" x="63.623047"/>
       <use xlink:href="#DejaVuSans-30" x="127.246094"/>
      </g>
     </g>
    </g>
    <g id="xtick_6">
     <g id="line2d_6">
      <g>
       <use xlink:href="#ma0815fa529" x="467.697522" y="308.63625" style="stroke: #000000; stroke-width: 0.8"/>
      </g>
     </g>
     <g id="text_6">
      <!-- 1000 -->
      <g transform="translate(442.247522 330.833125) scale(0.2 -0.2)">
       <defs>
        <path id="DejaVuSans-31" d="M 794 531 
L 1825 531 
L 1825 4091 
L 703 3866 
L 703 4441 
L 1819 4666 
L 2450 4666 
L 2450 531 
L 3481 531 
L 3481 0 
L 794 0 
L 794 531 
z
" transform="scale(0.015625)"/>
       </defs>
       <use xlink:href="#DejaVuSans-31"/>
       <use xlink:href="#DejaVuSans-30" x="63.623047"/>
       <use xlink:href="#DejaVuSans-30" x="127.246094"/>
       <use xlink:href="#DejaVuSans-30" x="190.869141"/>
      </g>
     </g>
    </g>
    <g id="xtick_7">
     <g id="line2d_7">
      <g>
       <use xlink:href="#ma0815fa529" x="537.666174" y="308.63625" style="stroke: #000000; stroke-width: 0.8"/>
      </g>
     </g>
     <g id="text_7">
      <!-- 1200 -->
      <g transform="translate(512.216174 330.833125) scale(0.2 -0.2)">
       <use xlink:href="#DejaVuSans-31"/>
       <use xlink:href="#DejaVuSans-32" x="63.623047"/>
       <use xlink:href="#DejaVuSans-30" x="127.246094"/>
       <use xlink:href="#DejaVuSans-30" x="190.869141"/>
      </g>
     </g>
    </g>
    <g id="xtick_8">
     <g id="line2d_8">
      <g>
       <use xlink:href="#ma0815fa529" x="607.634826" y="308.63625" style="stroke: #000000; stroke-width: 0.8"/>
      </g>
     </g>
     <g id="text_8">
      <!-- 1400 -->
      <g transform="translate(582.184826 330.833125) scale(0.2 -0.2)">
       <use xlink:href="#DejaVuSans-31"/>
       <use xlink:href="#DejaVuSans-34" x="63.623047"/>
       <use xlink:href="#DejaVuSans-30" x="127.246094"/>
       <use xlink:href="#DejaVuSans-30" x="190.869141"/>
      </g>
     </g>
    </g>
    <g id="text_9">
     <!-- iterations -->
     <g transform="translate(324.035938 354.189375) scale(0.2 -0.2)">
      <defs>
       <path id="DejaVuSans-69" d="M 603 3500 
L 1178 3500 
L 1178 0 
L 603 0 
L 603 3500 
z
M 603 4863 
L 1178 4863 
L 1178 4134 
L 603 4134 
L 603 4863 
z
" transform="scale(0.015625)"/>
       <path id="DejaVuSans-74" d="M 1172 4494 
L 1172 3500 
L 2356 3500 
L 2356 3053 
L 1172 3053 
L 1172 1153 
Q 1172 725 1289 603 
Q 1406 481 1766 481 
L 2356 481 
L 2356 0 
L 1766 0 
Q 1100 0 847 248 
Q 594 497 594 1153 
L 594 3053 
L 172 3053 
L 172 3500 
L 594 3500 
L 594 4494 
L 1172 4494 
z
" transform="scale(0.015625)"/>
       <path id="DejaVuSans-65" d="M 3597 1894 
L 3597 1613 
L 953 1613 
Q 991 1019 1311 708 
Q 1631 397 2203 397 
Q 2534 397 2845 478 
Q 3156 559 3463 722 
L 3463 178 
Q 3153 47 2828 -22 
Q 2503 -91 2169 -91 
Q 1331 -91 842 396 
Q 353 884 353 1716 
Q 353 2575 817 3079 
Q 1281 3584 2069 3584 
Q 2775 3584 3186 3129 
Q 3597 2675 3597 1894 
z
M 3022 2063 
Q 3016 2534 2758 2815 
Q 2500 3097 2075 3097 
Q 1594 3097 1305 2825 
Q 1016 2553 972 2059 
L 3022 2063 
z
" transform="scale(0.015625)"/>
       <path id="DejaVuSans-72" d="M 2631 2963 
Q 2534 3019 2420 3045 
Q 2306 3072 2169 3072 
Q 1681 3072 1420 2755 
Q 1159 2438 1159 1844 
L 1159 0 
L 581 0 
L 581 3500 
L 1159 3500 
L 1159 2956 
Q 1341 3275 1631 3429 
Q 1922 3584 2338 3584 
Q 2397 3584 2469 3576 
Q 2541 3569 2628 3553 
L 2631 2963 
z
" transform="scale(0.015625)"/>
       <path id="DejaVuSans-61" d="M 2194 1759 
Q 1497 1759 1228 1600 
Q 959 1441 959 1056 
Q 959 750 1161 570 
Q 1363 391 1709 391 
Q 2188 391 2477 730 
Q 2766 1069 2766 1631 
L 2766 1759 
L 2194 1759 
z
M 3341 1997 
L 3341 0 
L 2766 0 
L 2766 531 
Q 2569 213 2275 61 
Q 1981 -91 1556 -91 
Q 1019 -91 701 211 
Q 384 513 384 1019 
Q 384 1609 779 1909 
Q 1175 2209 1959 2209 
L 2766 2209 
L 2766 2266 
Q 2766 2663 2505 2880 
Q 2244 3097 1772 3097 
Q 1472 3097 1187 3025 
Q 903 2953 641 2809 
L 641 3341 
Q 956 3463 1253 3523 
Q 1550 3584 1831 3584 
Q 2591 3584 2966 3190 
Q 3341 2797 3341 1997 
z
" transform="scale(0.015625)"/>
       <path id="DejaVuSans-6f" d="M 1959 3097 
Q 1497 3097 1228 2736 
Q 959 2375 959 1747 
Q 959 1119 1226 758 
Q 1494 397 1959 397 
Q 2419 397 2687 759 
Q 2956 1122 2956 1747 
Q 2956 2369 2687 2733 
Q 2419 3097 1959 3097 
z
M 1959 3584 
Q 2709 3584 3137 3096 
Q 3566 2609 3566 1747 
Q 3566 888 3137 398 
Q 2709 -91 1959 -91 
Q 1206 -91 779 398 
Q 353 888 353 1747 
Q 353 2609 779 3096 
Q 1206 3584 1959 3584 
z
" transform="scale(0.015625)"/>
       <path id="DejaVuSans-6e" d="M 3513 2113 
L 3513 0 
L 2938 0 
L 2938 2094 
Q 2938 2591 2744 2837 
Q 2550 3084 2163 3084 
Q 1697 3084 1428 2787 
Q 1159 2491 1159 1978 
L 1159 0 
L 581 0 
L 581 3500 
L 1159 3500 
L 1159 2956 
Q 1366 3272 1645 3428 
Q 1925 3584 2291 3584 
Q 2894 3584 3203 3211 
Q 3513 2838 3513 2113 
z
" transform="scale(0.015625)"/>
       <path id="DejaVuSans-73" d="M 2834 3397 
L 2834 2853 
Q 2591 2978 2328 3040 
Q 2066 3103 1784 3103 
Q 1356 3103 1142 2972 
Q 928 2841 928 2578 
Q 928 2378 1081 2264 
Q 1234 2150 1697 2047 
L 1894 2003 
Q 2506 1872 2764 1633 
Q 3022 1394 3022 966 
Q 3022 478 2636 193 
Q 2250 -91 1575 -91 
Q 1294 -91 989 -36 
Q 684 19 347 128 
L 347 722 
Q 666 556 975 473 
Q 1284 391 1588 391 
Q 1994 391 2212 530 
Q 2431 669 2431 922 
Q 2431 1156 2273 1281 
Q 2116 1406 1581 1522 
L 1381 1569 
Q 847 1681 609 1914 
Q 372 2147 372 2553 
Q 372 3047 722 3315 
Q 1072 3584 1716 3584 
Q 2034 3584 2315 3537 
Q 2597 3491 2834 3397 
z
" transform="scale(0.015625)"/>
      </defs>
      <use xlink:href="#DejaVuSans-69"/>
      <use xlink:href="#DejaVuSans-74" x="27.783203"/>
      <use xlink:href="#DejaVuSans-65" x="66.992188"/>
      <use xlink:href="#DejaVuSans-72" x="128.515625"/>
      <use xlink:href="#DejaVuSans-61" x="169.628906"/>
      <use xlink:href="#DejaVuSans-74" x="230.908203"/>
      <use xlink:href="#DejaVuSans-69" x="270.117188"/>
      <use xlink:href="#DejaVuSans-6f" x="297.900391"/>
      <use xlink:href="#DejaVuSans-6e" x="359.082031"/>
      <use xlink:href="#DejaVuSans-73" x="422.460938"/>
     </g>
    </g>
   </g>
   <g id="matplotlib.axis_2">
    <g id="ytick_1">
     <g id="line2d_9">
      <defs>
       <path id="ma2dca40b5d" d="M 0 0 
L -3.5 0 
" style="stroke: #000000; stroke-width: 0.8"/>
      </defs>
      <g>
       <use xlink:href="#ma2dca40b5d" x="92.490625" y="233.89928" style="stroke: #000000; stroke-width: 0.8"/>
      </g>
     </g>
     <g id="text_10">
      <!-- −200 -->
      <g transform="translate(30.55625 241.497718) scale(0.2 -0.2)">
       <defs>
        <path id="DejaVuSans-2212" d="M 678 2272 
L 4684 2272 
L 4684 1741 
L 678 1741 
L 678 2272 
z
" transform="scale(0.015625)"/>
       </defs>
       <use xlink:href="#DejaVuSans-2212"/>
       <use xlink:href="#DejaVuSans-32" x="83.789062"/>
       <use xlink:href="#DejaVuSans-30" x="147.412109"/>
       <use xlink:href="#DejaVuSans-30" x="211.035156"/>
      </g>
     </g>
    </g>
    <g id="ytick_2">
     <g id="line2d_10">
      <g>
       <use xlink:href="#ma2dca40b5d" x="92.490625" y="156.400898" style="stroke: #000000; stroke-width: 0.8"/>
      </g>
     </g>
     <g id="text_11">
      <!-- 0 -->
      <g transform="translate(72.765625 163.999335) scale(0.2 -0.2)">
       <use xlink:href="#DejaVuSans-30"/>
      </g>
     </g>
    </g>
    <g id="ytick_3">
     <g id="line2d_11">
      <g>
       <use xlink:href="#ma2dca40b5d" x="92.490625" y="78.902515" style="stroke: #000000; stroke-width: 0.8"/>
      </g>
     </g>
     <g id="text_12">
      <!-- 200 -->
      <g transform="translate(47.315625 86.500953) scale(0.2 -0.2)">
       <use xlink:href="#DejaVuSans-32"/>
       <use xlink:href="#DejaVuSans-30" x="63.623047"/>
       <use xlink:href="#DejaVuSans-30" x="127.246094"/>
      </g>
     </g>
    </g>
    <g id="text_13">
     <!-- Loss -->
     <g transform="translate(22.396875 191.970625) rotate(-90) scale(0.2 -0.2)">
      <defs>
       <path id="DejaVuSans-4c" d="M 628 4666 
L 1259 4666 
L 1259 531 
L 3531 531 
L 3531 0 
L 628 0 
L 628 4666 
z
" transform="scale(0.015625)"/>
      </defs>
      <use xlink:href="#DejaVuSans-4c"/>
      <use xlink:href="#DejaVuSans-6f" x="53.962891"/>
      <use xlink:href="#DejaVuSans-73" x="115.144531"/>
      <use xlink:href="#DejaVuSans-73" x="167.244141"/>
     </g>
    </g>
   </g>
   <g id="line2d_12">
    <path d="M 117.854261 136.140105 
L 118.553948 97.658702 
L 119.253634 132.66545 
L 119.603478 131.50223 
L 119.953321 109.074995 
L 120.303164 70.056914 
L 120.653007 54.902085 
L 121.002851 57.926545 
L 121.352694 54.948943 
L 121.702537 45.679812 
L 122.05238 44.03625 
L 122.402224 46.554003 
L 122.752067 46.4645 
L 123.10191 61.12117 
L 123.451754 55.452144 
L 123.801597 47.371821 
L 124.15144 48.94424 
L 124.501283 60.27658 
L 124.851127 67.071176 
L 125.20097 67.466942 
L 125.550813 72.47849 
L 125.900656 69.342872 
L 126.950186 94.790736 
L 127.300029 91.969084 
L 127.649873 93.229692 
L 127.999716 92.7299 
L 128.349559 100.783666 
L 128.699402 98.377732 
L 129.049246 103.555557 
L 129.399089 102.926982 
L 129.748932 106.843558 
L 130.098775 103.849343 
L 130.448619 107.982067 
L 130.798462 104.046284 
L 131.148305 105.454914 
L 131.498149 106.159588 
L 131.847992 109.279874 
L 132.197835 108.658111 
L 132.547678 113.348977 
L 132.897522 112.802562 
L 133.247365 112.886724 
L 134.296895 117.192842 
L 134.996581 121.529548 
L 135.346424 117.759482 
L 135.696268 121.031451 
L 136.046111 117.874613 
L 136.395954 123.929319 
L 137.095641 125.098673 
L 137.445484 122.790211 
L 137.795327 126.681087 
L 138.14517 124.35353 
L 138.495014 124.598737 
L 138.844857 127.579039 
L 139.544543 125.949512 
L 139.894387 128.740085 
L 140.24423 127.119974 
L 140.594073 126.066819 
L 140.943917 124.500406 
L 141.29376 128.099512 
L 141.643603 127.64869 
L 141.993446 124.880741 
L 142.34329 126.072068 
L 142.693133 125.0338 
L 143.392819 128.291852 
L 143.742663 127.820071 
L 144.092506 128.384262 
L 144.442349 127.725314 
L 144.792192 130.487021 
L 145.142036 124.764492 
L 145.841722 131.03801 
L 146.191565 129.370054 
L 146.541409 128.507903 
L 146.891252 129.992741 
L 147.241095 127.025059 
L 147.590938 128.463137 
L 147.940782 132.280888 
L 148.290625 126.205151 
L 148.640468 127.786885 
L 148.990312 128.36622 
L 149.340155 130.870562 
L 149.689998 129.202161 
L 150.039841 130.454508 
L 150.389685 129.324651 
L 150.739528 131.486962 
L 151.089371 126.280908 
L 151.439214 129.134088 
L 151.789058 127.71524 
L 152.138901 127.933912 
L 152.488744 130.968429 
L 152.838587 131.451701 
L 153.188431 128.47423 
L 153.538274 131.651787 
L 153.888117 132.517027 
L 154.23796 132.328264 
L 154.587804 131.551236 
L 154.937647 127.719658 
L 155.28749 129.542392 
L 155.637333 129.013006 
L 155.987177 133.998128 
L 156.33702 132.652585 
L 156.686863 134.846951 
L 157.036707 134.467355 
L 157.38655 136.200018 
L 157.736393 135.546954 
L 158.086236 132.983733 
L 158.43608 132.881623 
L 158.785923 135.628088 
L 159.135766 134.707247 
L 159.485609 132.554932 
L 159.835453 134.507047 
L 160.185296 133.025755 
L 160.535139 139.875843 
L 160.884982 134.53711 
L 161.234826 138.060798 
L 161.584669 135.610679 
L 161.934512 134.071004 
L 162.284355 137.174334 
L 162.634199 138.894034 
L 162.984042 134.346656 
L 163.333885 133.628541 
L 163.683728 139.905496 
L 164.033572 139.351825 
L 164.383415 141.054145 
L 164.733258 140.309269 
L 165.083101 138.998649 
L 165.782788 139.653628 
L 166.132631 140.618431 
L 166.482475 137.012362 
L 166.832318 139.155162 
L 167.881848 136.511355 
L 168.231691 140.473876 
L 168.581534 136.474656 
L 168.931377 137.701627 
L 169.281221 137.834537 
L 169.631064 137.004483 
L 169.980907 137.949913 
L 170.33075 137.668135 
L 170.680594 141.592374 
L 171.030437 138.273643 
L 171.38028 140.58307 
L 172.079967 137.903665 
L 172.42981 139.007768 
L 172.779653 138.482864 
L 173.129496 137.668388 
L 173.47934 137.640647 
L 173.829183 137.021624 
L 174.179026 136.006231 
L 174.52887 137.474276 
L 174.878713 137.944546 
L 175.228556 135.579974 
L 175.578399 135.523171 
L 175.928243 137.942839 
L 176.278086 138.274288 
L 176.627929 140.577836 
L 177.327616 137.334687 
L 177.677459 137.22565 
L 178.726989 140.935747 
L 179.076832 138.706081 
L 179.426675 138.031621 
L 179.776518 141.258663 
L 180.126362 139.099333 
L 180.476205 141.369672 
L 180.826048 137.77225 
L 181.175891 137.347757 
L 181.525735 140.418194 
L 181.875578 139.414461 
L 182.225421 138.878593 
L 182.925108 142.18506 
L 183.274951 141.024633 
L 183.624794 141.071503 
L 183.974638 143.735901 
L 184.324481 143.388929 
L 185.024167 142.271918 
L 185.374011 144.383795 
L 185.723854 145.16363 
L 186.073697 144.086809 
L 186.42354 143.883762 
L 186.773384 144.458331 
L 187.123227 144.067005 
L 187.47307 144.523268 
L 187.822913 144.575892 
L 188.172757 144.057221 
L 188.5226 145.96549 
L 189.222286 142.712513 
L 189.57213 143.651971 
L 190.271816 146.492216 
L 190.621659 144.780635 
L 190.971503 144.081637 
L 191.321346 144.851548 
L 191.671189 146.190345 
L 192.021033 144.657309 
L 192.370876 145.82573 
L 193.070562 143.079696 
L 193.420406 144.296385 
L 193.770249 144.961194 
L 194.120092 143.808949 
L 194.469935 143.997531 
L 194.819779 146.215528 
L 195.169622 144.776813 
L 195.519465 144.718914 
L 195.869308 147.279174 
L 196.219152 145.481445 
L 196.568995 144.759004 
L 196.918838 144.778459 
L 197.618525 147.19603 
L 197.968368 145.77178 
L 198.318211 146.071329 
L 198.668054 146.691365 
L 199.017898 146.571939 
L 199.367741 146.757617 
L 199.717584 146.584022 
L 200.067428 145.073014 
L 200.417271 146.164435 
L 200.767114 146.019355 
L 201.116957 143.897742 
L 201.466801 143.447988 
L 201.816644 143.242848 
L 202.166487 144.033963 
L 202.51633 145.291173 
L 202.866174 144.827294 
L 203.216017 145.635636 
L 203.56586 145.168239 
L 204.265547 145.380979 
L 204.61539 145.052218 
L 204.965233 146.595932 
L 205.315076 146.597405 
L 205.66492 146.024231 
L 206.014763 146.12066 
L 206.364606 145.644051 
L 206.714449 145.637259 
L 207.064293 145.064343 
L 207.414136 146.527707 
L 207.763979 146.054691 
L 208.113822 146.378687 
L 208.463666 147.244862 
L 208.813509 147.743065 
L 209.513196 145.699305 
L 209.863039 145.614191 
L 210.562725 146.032133 
L 210.912569 145.842341 
L 211.262412 145.851376 
L 211.612255 147.242077 
L 212.311942 145.384992 
L 212.661785 144.331136 
L 213.011628 145.156912 
L 213.361471 145.113214 
L 213.711315 146.046768 
L 214.061158 146.109475 
L 214.411001 146.358465 
L 214.760844 147.967362 
L 215.110688 145.834115 
L 215.460531 145.471832 
L 215.810374 145.909016 
L 216.160217 145.176336 
L 216.510061 145.312189 
L 216.859904 144.622425 
L 217.209747 146.161472 
L 217.559591 145.988952 
L 217.909434 145.609696 
L 218.259277 146.340256 
L 218.60912 145.255584 
L 218.958964 146.137073 
L 219.308807 145.934825 
L 220.008493 144.794355 
L 220.358337 145.822868 
L 220.70818 146.259016 
L 221.058023 145.545879 
L 221.407866 145.704226 
L 221.75771 143.833665 
L 222.107553 143.39312 
L 222.807239 144.764031 
L 223.157083 141.471619 
L 223.506926 143.258355 
L 223.856769 142.1225 
L 224.206612 142.770739 
L 224.906299 140.613826 
L 225.256142 140.124447 
L 225.605986 139.984476 
L 225.955829 140.198564 
L 226.305672 139.866343 
L 226.655515 140.192398 
L 227.005359 139.209319 
L 227.355202 137.699922 
L 227.705045 138.211979 
L 228.054888 137.472748 
L 228.404732 135.659297 
L 228.754575 136.513748 
L 229.104418 136.846126 
L 229.454261 136.708991 
L 230.153948 136.991124 
L 230.503791 137.518005 
L 230.853634 137.284661 
L 231.553321 135.462121 
L 231.903164 135.642996 
L 232.253007 135.398218 
L 232.602851 133.458761 
L 233.302537 134.309588 
L 234.002224 133.713049 
L 234.352067 133.073662 
L 234.70191 133.282183 
L 235.051754 134.055024 
L 235.401597 133.006076 
L 235.75144 133.292302 
L 236.101283 134.015364 
L 236.451127 133.691593 
L 236.80097 133.654318 
L 237.150813 134.463807 
L 237.500656 134.107787 
L 237.8505 134.925327 
L 238.200343 134.93708 
L 238.550186 134.225088 
L 238.900029 135.658831 
L 239.249873 135.124509 
L 239.599716 134.892409 
L 239.949559 136.184751 
L 240.299402 135.805301 
L 240.649246 136.403224 
L 240.999089 136.162705 
L 241.348932 137.044153 
L 241.698775 136.978352 
L 242.048619 137.257002 
L 243.098149 138.599311 
L 243.447992 138.164326 
L 243.797835 138.148874 
L 244.147678 138.875902 
L 244.497522 139.009496 
L 244.847365 138.996887 
L 245.197208 139.359301 
L 245.547051 140.196006 
L 246.246738 139.446259 
L 246.596581 139.624629 
L 246.946424 139.175819 
L 247.296268 140.360832 
L 247.646111 140.507721 
L 247.995954 140.277501 
L 248.345797 140.344361 
L 248.695641 139.688527 
L 249.045484 139.764017 
L 249.395327 140.47098 
L 249.74517 140.823755 
L 250.095014 140.00849 
L 250.444857 140.867939 
L 251.144543 140.809753 
L 251.494387 141.309758 
L 252.194073 140.6429 
L 252.543917 141.04968 
L 252.89376 141.153351 
L 253.243603 140.423128 
L 253.593446 140.617213 
L 253.94329 140.614077 
L 254.293133 141.862909 
L 254.992819 141.368711 
L 255.342663 141.72775 
L 255.692506 141.138194 
L 256.042349 141.33949 
L 256.742036 141.923022 
L 257.091879 141.878898 
L 257.441722 141.446056 
L 257.791565 142.348734 
L 258.141409 142.177576 
L 258.491252 142.347438 
L 258.841095 142.125741 
L 259.540782 142.400078 
L 259.890625 142.475297 
L 260.240468 142.970731 
L 260.590312 143.255098 
L 261.289998 142.624791 
L 261.639841 142.940462 
L 261.989685 142.544034 
L 262.339528 142.637308 
L 262.689371 143.49133 
L 263.039214 143.441073 
L 263.389058 142.498801 
L 264.088744 143.267946 
L 264.438587 143.508972 
L 264.788431 144.054366 
L 265.138274 144.34474 
L 265.488117 144.041871 
L 265.83796 143.350409 
L 266.187804 143.766515 
L 266.537647 143.467922 
L 267.237333 144.488671 
L 267.587177 144.668617 
L 267.93702 144.67175 
L 268.286863 145.670451 
L 268.636707 145.760743 
L 268.98655 146.258358 
L 269.686236 147.847549 
L 270.03608 148.41856 
L 270.385923 148.68886 
L 270.735766 148.046676 
L 271.085609 148.448831 
L 271.435453 147.839463 
L 271.785296 148.048703 
L 272.135139 148.580042 
L 272.484982 148.47331 
L 272.834826 148.869761 
L 273.184669 148.968766 
L 274.234199 148.022524 
L 274.584042 148.76923 
L 274.933885 148.372024 
L 275.283728 148.493244 
L 275.633572 148.478269 
L 275.983415 148.748364 
L 277.032945 148.377159 
L 277.382788 148.893702 
L 278.082475 149.112677 
L 278.432318 148.8705 
L 278.782161 149.059157 
L 279.132004 148.448253 
L 279.481848 148.639738 
L 279.831691 148.443988 
L 280.181534 148.854225 
L 280.531377 148.831863 
L 280.881221 149.493462 
L 281.231064 149.32119 
L 281.580907 148.955499 
L 282.280594 149.348102 
L 282.630437 149.343716 
L 282.98028 149.914771 
L 283.330123 149.513644 
L 283.679967 149.769645 
L 284.379653 149.281482 
L 284.729496 149.528568 
L 285.07934 150.340114 
L 285.429183 149.765789 
L 285.779026 149.810813 
L 286.12887 150.424258 
L 286.478713 149.525793 
L 286.828556 149.916599 
L 287.528243 149.784206 
L 287.878086 149.297795 
L 288.577772 149.799474 
L 288.927616 150.375535 
L 289.277459 150.047529 
L 289.627302 150.061927 
L 289.977145 150.378216 
L 290.326989 149.992059 
L 290.676832 149.896424 
L 291.026675 150.321031 
L 291.376518 150.541045 
L 291.726362 150.338546 
L 292.076205 150.392109 
L 292.426048 150.798539 
L 292.775891 150.783767 
L 293.125735 150.475998 
L 293.475578 150.561397 
L 293.825421 150.76721 
L 294.175264 150.404802 
L 294.525108 150.591651 
L 294.874951 150.610028 
L 295.224794 150.43635 
L 295.574638 150.758872 
L 296.274324 150.626565 
L 296.624167 150.923386 
L 296.974011 151.43372 
L 297.323854 150.559952 
L 297.673697 150.812884 
L 298.02354 151.217041 
L 298.373384 151.339018 
L 298.723227 151.682673 
L 299.07307 151.686438 
L 299.422913 151.245356 
L 299.772757 151.340401 
L 300.1226 151.189276 
L 300.822286 151.459706 
L 301.17213 151.102673 
L 301.521973 151.462666 
L 301.871816 150.909301 
L 302.221659 151.435733 
L 302.571503 151.265245 
L 302.921346 151.238926 
L 303.271189 151.036157 
L 303.621033 151.155105 
L 303.970876 151.430886 
L 304.320719 151.182892 
L 305.020406 151.762198 
L 305.720092 151.339679 
L 306.069935 152.078093 
L 306.419779 151.541049 
L 306.769622 152.217249 
L 307.119465 151.720446 
L 307.819152 152.453899 
L 308.168995 152.47466 
L 308.518838 152.178387 
L 308.868681 152.557004 
L 309.218525 151.581745 
L 309.918211 152.08738 
L 310.268054 151.927755 
L 310.617898 151.923196 
L 311.317584 152.252462 
L 311.667428 151.786521 
L 312.017271 151.652429 
L 312.367114 152.266472 
L 312.716957 151.899119 
L 313.066801 151.93214 
L 313.416644 151.812318 
L 313.766487 151.389304 
L 314.11633 151.815481 
L 314.466174 151.796132 
L 315.16586 152.379641 
L 315.515703 152.494751 
L 315.865547 152.357874 
L 316.21539 151.779789 
L 316.565233 151.870045 
L 316.915076 151.81871 
L 317.614763 152.744623 
L 317.964606 152.027593 
L 318.664293 152.579643 
L 319.014136 151.995365 
L 319.363979 152.91781 
L 319.713822 152.035264 
L 320.063666 152.038265 
L 320.413509 152.223482 
L 320.763352 152.150448 
L 321.463039 152.494614 
L 321.812882 153.040017 
L 322.512569 152.224673 
L 322.862412 152.337672 
L 323.212255 152.756649 
L 323.562098 152.018976 
L 323.911942 152.465712 
L 324.261785 152.591943 
L 324.611628 152.545378 
L 324.961471 152.874846 
L 325.661158 153.082897 
L 326.011001 153.593069 
L 326.360844 153.244655 
L 326.710688 153.559309 
L 327.060531 153.291544 
L 327.410374 153.297665 
L 328.459904 153.69826 
L 328.809747 153.675887 
L 329.159591 154.340532 
L 329.509434 153.994852 
L 329.859277 154.429286 
L 330.20912 154.116396 
L 330.558964 154.144122 
L 331.25865 154.426372 
L 331.608493 154.494814 
L 331.958337 154.264573 
L 332.30818 154.362213 
L 332.658023 154.155068 
L 333.35771 154.004674 
L 333.707553 153.935798 
L 334.057396 154.459518 
L 334.407239 154.768638 
L 334.757083 154.579417 
L 335.106926 155.456125 
L 336.506299 155.400505 
L 336.856142 155.46561 
L 337.205986 155.063341 
L 337.555829 155.62921 
L 337.905672 155.636871 
L 338.605359 155.925934 
L 338.955202 155.242112 
L 339.305045 155.242005 
L 339.654888 155.431229 
L 340.004732 155.342126 
L 340.354575 155.675356 
L 340.704418 155.317863 
L 341.054261 155.312605 
L 341.404105 155.587132 
L 341.753948 155.539639 
L 342.103791 155.212933 
L 342.803478 155.795154 
L 344.202851 155.96858 
L 344.552694 155.538262 
L 345.25238 155.561329 
L 345.602224 155.127905 
L 345.952067 155.427119 
L 346.30191 154.904094 
L 346.651754 155.655727 
L 347.001597 155.442788 
L 347.35144 155.553067 
L 347.701283 155.221002 
L 348.051127 155.211599 
L 348.40097 155.376185 
L 348.750813 155.325448 
L 349.100656 155.754255 
L 349.4505 156.000229 
L 349.800343 155.642691 
L 350.150186 155.71339 
L 350.500029 155.55804 
L 350.849873 156.06054 
L 352.249246 155.963129 
L 352.599089 155.754411 
L 352.948932 155.876285 
L 353.648619 156.499908 
L 353.998462 156.33346 
L 354.698149 156.593919 
L 355.047992 156.8335 
L 355.397835 156.668702 
L 355.747678 156.794918 
L 356.097522 156.476798 
L 356.797208 156.337321 
L 357.147051 156.607915 
L 358.546424 156.199787 
L 358.896268 156.409511 
L 359.246111 156.418915 
L 359.945797 156.920316 
L 360.995327 156.500873 
L 361.34517 156.703038 
L 361.695014 156.705211 
L 362.044857 157.113282 
L 362.3947 156.699662 
L 363.094387 157.104351 
L 363.44423 157.024251 
L 363.794073 156.489976 
L 364.143917 156.827424 
L 364.843603 156.908301 
L 365.193446 156.981501 
L 365.54329 156.459182 
L 365.893133 156.947286 
L 366.242976 157.035849 
L 366.592819 156.907641 
L 366.942663 156.962777 
L 367.292506 156.661193 
L 367.642349 156.696036 
L 367.992192 156.53097 
L 368.342036 156.491423 
L 368.691879 156.746532 
L 369.041722 156.511599 
L 369.391565 157.237169 
L 369.741409 156.881704 
L 370.091252 157.134891 
L 370.441095 156.859105 
L 371.140782 157.091594 
L 372.190312 157.060549 
L 372.540155 156.659538 
L 372.889998 156.484064 
L 373.239841 157.089212 
L 373.589685 156.919912 
L 373.939528 157.220388 
L 374.989058 156.938472 
L 375.338901 156.524485 
L 375.688744 156.773895 
L 376.388431 156.595714 
L 376.738274 156.120883 
L 377.088117 156.279941 
L 377.43796 156.10918 
L 377.787804 156.802168 
L 378.137647 156.50623 
L 378.837333 156.570882 
L 379.53702 156.085815 
L 379.886863 156.558871 
L 380.58655 156.428751 
L 380.936393 156.743505 
L 381.286236 156.563803 
L 381.63608 156.865861 
L 381.985923 156.778252 
L 382.335766 156.87216 
L 383.385296 156.796657 
L 383.735139 156.349296 
L 384.084982 156.889186 
L 385.484355 156.72056 
L 385.834199 156.948533 
L 386.184042 156.867149 
L 386.883728 156.924917 
L 387.233572 157.307309 
L 387.583415 157.138188 
L 388.632945 157.020573 
L 388.982788 157.242116 
L 389.332631 156.89345 
L 389.682475 156.954108 
L 390.032318 156.868894 
L 390.382161 156.91237 
L 390.732004 157.117368 
L 391.081848 157.564812 
L 391.431691 157.002444 
L 392.481221 157.304028 
L 392.831064 157.064388 
L 393.180907 157.098418 
L 393.880594 157.402296 
L 394.230437 157.157317 
L 394.930123 157.305286 
L 395.279967 157.041411 
L 396.329496 157.02764 
L 396.67934 157.231152 
L 397.379026 157.13538 
L 397.72887 156.949878 
L 398.078713 157.166234 
L 398.428556 156.814488 
L 399.128243 156.947148 
L 400.177772 157.092111 
L 400.527616 157.169659 
L 400.877459 156.863023 
L 401.577145 156.897315 
L 401.926989 157.19827 
L 402.276832 157.229496 
L 403.326362 156.590116 
L 404.026048 157.064287 
L 404.375891 156.939517 
L 405.075578 157.183636 
L 405.425421 156.978618 
L 406.474951 157.215952 
L 406.824794 156.659101 
L 407.174638 157.073064 
L 408.224167 156.957331 
L 408.574011 157.355872 
L 409.273697 156.861785 
L 409.62354 157.05704 
L 409.973384 156.635702 
L 410.323227 156.752532 
L 410.67307 156.679933 
L 411.022913 156.857354 
L 411.372757 156.844268 
L 411.7226 157.049871 
L 412.422286 157.113893 
L 413.121973 156.859888 
L 413.471816 157.006028 
L 414.171503 156.903558 
L 414.521346 157.157826 
L 414.871189 157.005948 
L 415.221033 156.707447 
L 415.570876 156.7611 
L 415.920719 156.965757 
L 416.620406 156.879134 
L 416.970249 157.015963 
L 417.320092 156.933193 
L 417.669935 156.5966 
L 418.019779 156.938272 
L 418.719465 156.619101 
L 419.069308 156.905403 
L 420.118838 156.840711 
L 420.468681 156.98429 
L 420.818525 156.784391 
L 421.168368 156.950945 
L 421.518211 156.845454 
L 421.868054 156.944772 
L 422.217898 156.738596 
L 422.567741 156.985249 
L 422.917584 156.798298 
L 424.316957 157.228802 
L 424.666801 157.085884 
L 425.016644 157.29452 
L 425.366487 157.358049 
L 426.066174 156.767647 
L 426.416017 157.276589 
L 426.76586 156.969462 
L 427.115703 157.357298 
L 427.465547 157.315657 
L 427.81539 156.992552 
L 428.165233 157.255557 
L 428.515076 157.107822 
L 428.86492 157.194068 
L 429.214763 156.964599 
L 429.914449 156.881277 
L 430.264293 156.857108 
L 430.614136 157.127138 
L 430.963979 156.814408 
L 432.013509 157.181291 
L 432.363352 157.127673 
L 432.713196 156.920315 
L 433.762725 157.081161 
L 434.112569 156.862729 
L 434.812255 157.202825 
L 435.162098 156.860582 
L 435.511942 157.04992 
L 436.211628 157.097812 
L 436.561471 156.884484 
L 437.261158 157.04506 
L 437.611001 157.240259 
L 437.960844 157.081584 
L 438.310688 157.06549 
L 438.660531 156.804342 
L 439.360217 156.900257 
L 439.710061 156.620796 
L 440.059904 156.584278 
L 440.409747 156.28696 
L 441.109434 157.002038 
L 441.459277 156.78861 
L 441.80912 157.04417 
L 442.508807 156.965016 
L 442.85865 156.958457 
L 443.208493 157.162572 
L 443.558337 157.050881 
L 443.90818 156.783993 
L 444.258023 157.317478 
L 444.607866 157.24046 
L 444.95771 157.293773 
L 446.007239 157.01247 
L 446.357083 156.930029 
L 446.706926 157.151737 
L 447.056769 156.774057 
L 447.406612 157.071522 
L 447.756456 157.188691 
L 448.106299 157.071641 
L 448.805986 157.157254 
L 449.505672 157.214291 
L 449.855515 157.15898 
L 450.205359 157.360904 
L 450.905045 156.997702 
L 451.254888 157.194465 
L 451.604732 156.958928 
L 451.954575 157.207504 
L 452.654261 157.123454 
L 453.004105 157.379931 
L 453.703791 156.781357 
L 454.053634 156.843251 
L 454.403478 157.025809 
L 454.753321 156.672248 
L 455.103164 156.997018 
L 455.453007 156.767273 
L 456.152694 156.891964 
L 456.502537 156.525233 
L 456.85238 157.069887 
L 457.202224 156.711689 
L 457.90191 156.629385 
L 458.251754 156.921364 
L 458.601597 156.741025 
L 458.95144 156.931866 
L 459.301283 156.869437 
L 459.651127 156.95297 
L 460.00097 157.325228 
L 460.350813 157.298327 
L 460.700656 156.965534 
L 461.400343 157.174368 
L 461.750186 157.216075 
L 462.100029 156.922971 
L 462.449873 157.106337 
L 463.149559 157.022951 
L 463.499402 157.332163 
L 463.849246 157.168667 
L 464.548932 157.453814 
L 464.898775 156.994763 
L 465.248619 156.99318 
L 465.598462 157.190726 
L 465.948305 156.968555 
L 466.298149 157.005915 
L 466.647992 157.276595 
L 466.997835 157.026292 
L 467.347678 157.241281 
L 467.697522 156.931915 
L 468.397208 156.664016 
L 468.747051 156.84604 
L 469.446738 156.780014 
L 469.796581 156.673134 
L 470.146424 156.824006 
L 470.496268 157.168924 
L 470.846111 157.190466 
L 472.245484 156.75704 
L 472.595327 157.067917 
L 472.94517 157.201226 
L 473.295014 157.552285 
L 474.344543 157.099451 
L 474.694387 157.305882 
L 475.743917 156.954412 
L 476.09376 157.08658 
L 476.793446 156.716346 
L 477.14329 156.814848 
L 477.493133 156.794005 
L 477.842976 157.097061 
L 478.192819 156.752772 
L 478.542663 156.809305 
L 478.892506 156.726122 
L 479.592192 156.853729 
L 480.291879 156.558932 
L 480.991565 156.821823 
L 481.341409 156.637478 
L 481.691252 157.228641 
L 482.041095 156.790699 
L 482.390938 156.873658 
L 482.740782 156.761293 
L 483.440468 157.043346 
L 483.790312 156.626639 
L 484.140155 156.745497 
L 484.489998 156.735423 
L 484.839841 156.589803 
L 485.189685 156.967555 
L 485.539528 156.991546 
L 486.589058 156.619805 
L 486.938901 157.033005 
L 487.288744 156.256251 
L 487.638587 156.560651 
L 488.338274 156.581748 
L 489.03796 156.40131 
L 489.387804 156.379756 
L 490.437333 156.669645 
L 491.13702 156.541291 
L 491.486863 156.336147 
L 491.836707 156.331775 
L 492.18655 156.531117 
L 492.886236 156.429771 
L 493.23608 156.726495 
L 493.585923 156.686724 
L 493.935766 156.912091 
L 494.635453 156.765474 
L 494.985296 157.007131 
L 495.335139 156.657293 
L 496.034826 156.765566 
L 496.384669 156.676975 
L 496.734512 156.774615 
L 497.084355 156.676206 
L 497.434199 156.897556 
L 497.784042 156.580199 
L 498.133885 157.002127 
L 498.833572 156.38125 
L 500.232945 156.42652 
L 500.932631 156.166888 
L 501.282475 156.676661 
L 501.632318 156.607214 
L 501.982161 156.813065 
L 502.332004 156.685717 
L 503.031691 156.584306 
L 503.381534 156.45115 
L 503.731377 156.524964 
L 504.081221 156.857067 
L 504.780907 156.844767 
L 505.480594 157.035811 
L 505.830437 156.956528 
L 506.18028 156.700263 
L 506.879967 156.982464 
L 507.22981 156.829137 
L 507.929496 156.851996 
L 508.27934 156.630005 
L 508.979026 156.813495 
L 509.32887 156.530259 
L 510.028556 156.526709 
L 510.378399 156.791914 
L 510.728243 156.70857 
L 511.078086 156.482309 
L 511.427929 156.748484 
L 511.777772 156.667525 
L 513.526989 156.873798 
L 513.876832 156.665598 
L 514.226675 156.969997 
L 514.576518 156.868234 
L 514.926362 156.394809 
L 515.626048 156.935192 
L 515.975891 156.648261 
L 516.325735 156.779428 
L 516.675578 156.637957 
L 517.025421 156.767656 
L 517.375264 157.115061 
L 517.725108 156.695413 
L 518.074951 156.494281 
L 518.774638 156.707596 
L 519.124481 157.044696 
L 519.474324 156.747812 
L 520.174011 156.681122 
L 520.523854 156.917042 
L 521.22354 156.556288 
L 521.573384 156.971636 
L 521.923227 156.724337 
L 522.27307 156.872701 
L 522.622913 156.814154 
L 522.972757 156.950991 
L 523.3226 156.807323 
L 523.672443 157.214683 
L 524.022286 157.158081 
L 524.37213 156.902606 
L 524.721973 157.197934 
L 525.071816 157.274166 
L 525.421659 157.006934 
L 525.771503 156.933382 
L 526.821033 157.299545 
L 527.520719 157.317807 
L 527.870562 157.395789 
L 528.220406 157.229788 
L 530.669308 157.153888 
L 531.019152 157.218635 
L 531.368995 157.4042 
L 532.418525 157.319612 
L 532.768368 157.066366 
L 533.118211 157.030827 
L 533.468054 157.208899 
L 534.517584 157.305866 
L 534.867428 157.147753 
L 535.217271 157.478512 
L 535.567114 157.431349 
L 535.916957 157.151738 
L 536.266801 157.064506 
L 536.616644 157.277349 
L 538.016017 157.153039 
L 538.36586 157.424577 
L 538.715703 157.185398 
L 539.065547 157.377459 
L 539.41539 157.38607 
L 539.765233 157.16414 
L 540.46492 157.543701 
L 540.814763 157.473206 
L 541.164606 157.186025 
L 541.514449 157.440872 
L 541.864293 157.398754 
L 542.214136 157.230969 
L 542.913822 157.136352 
L 543.263666 157.396812 
L 543.613509 157.236476 
L 543.963352 157.410381 
L 544.663039 157.339079 
L 545.012882 157.452236 
L 545.712569 157.458858 
L 546.062412 157.609286 
L 546.412255 157.397912 
L 546.762098 157.363696 
L 547.111942 157.095948 
L 547.461785 157.451459 
L 547.811628 157.228895 
L 548.161471 157.165011 
L 548.511315 157.243152 
L 548.861158 157.461782 
L 549.211001 157.176534 
L 549.560844 157.386941 
L 549.910688 157.297579 
L 550.260531 157.720571 
L 550.610374 157.405566 
L 550.960217 157.685948 
L 551.310061 157.731368 
L 552.009747 157.459591 
L 552.359591 157.829444 
L 552.709434 157.401019 
L 553.059277 157.383646 
L 553.40912 157.688003 
L 554.108807 157.478963 
L 554.45865 157.611723 
L 555.158337 157.463038 
L 555.50818 157.196849 
L 555.858023 157.450248 
L 556.207866 157.273119 
L 556.55771 157.486691 
L 556.907553 157.248067 
L 557.257396 157.398509 
L 557.607239 157.413549 
L 557.957083 157.544717 
L 559.706299 157.351241 
L 560.056142 157.047504 
L 560.755829 157.474026 
L 562.155202 157.608809 
L 562.505045 157.616021 
L 562.854888 157.762144 
L 563.204732 157.577958 
L 563.554575 157.748481 
L 563.904418 157.674787 
L 564.254261 157.367928 
L 564.953948 157.731152 
L 565.303791 157.675192 
L 565.653634 157.388196 
L 566.003478 157.723952 
L 566.353321 157.425709 
L 567.053007 157.276192 
L 567.402851 157.243702 
L 567.752694 157.371686 
L 568.102537 157.311179 
L 568.45238 157.480472 
L 568.802224 157.333347 
L 569.50191 157.435204 
L 569.851754 157.213202 
L 570.201597 157.42264 
L 570.901283 157.516533 
L 571.251127 157.397726 
L 571.60097 157.471742 
L 571.950813 157.400704 
L 572.300656 157.452568 
L 572.6505 157.118808 
L 573.000343 157.121419 
L 573.350186 157.320368 
L 573.700029 157.065685 
L 574.049873 157.480127 
L 574.399716 157.580221 
L 574.749559 157.941956 
L 575.099402 157.99473 
L 575.449246 157.392726 
L 575.799089 157.62587 
L 577.548305 157.479241 
L 578.247992 157.186928 
L 578.597835 157.031504 
L 579.297522 157.135997 
L 580.696895 157.586261 
L 581.746424 157.040234 
L 582.096268 157.45804 
L 582.795954 157.401577 
L 583.145797 157.215256 
L 583.495641 157.63279 
L 583.845484 157.174889 
L 584.195327 157.436009 
L 584.54517 157.246168 
L 584.895014 157.449039 
L 585.244857 157.233074 
L 585.944543 157.574156 
L 586.294387 157.242756 
L 586.64423 157.222277 
L 586.994073 156.961946 
L 587.69376 157.24139 
L 588.043603 157.275007 
L 588.393446 157.133943 
L 588.74329 157.306623 
L 589.093133 157.068769 
L 589.442976 157.364376 
L 589.792819 157.305828 
L 590.142663 157.579262 
L 590.492506 157.534252 
L 590.842349 157.73048 
L 591.542036 157.160485 
L 591.891879 157.14379 
L 592.241722 157.241685 
L 592.941409 157.713176 
L 593.990938 157.052433 
L 594.340782 157.48283 
L 594.690625 157.711293 
L 595.390312 157.360933 
L 595.740155 157.731732 
L 597.139528 157.986674 
L 597.489371 158.224134 
L 598.189058 157.863367 
L 598.538901 158.056374 
L 599.238587 157.971196 
L 599.938274 158.122377 
L 600.288117 157.706486 
L 600.63796 157.802726 
L 601.337647 158.359444 
L 601.68749 158.151754 
L 602.037333 158.189393 
L 603.086863 158.025179 
L 603.436707 158.160489 
L 604.136393 158.128554 
L 604.486236 158.185402 
L 604.83608 158.114062 
L 605.185923 157.810648 
L 605.535766 158.288977 
L 605.885609 158.082816 
L 606.235453 158.157528 
L 606.585296 157.972389 
L 606.935139 157.958637 
L 607.284982 158.168791 
L 607.984669 157.869957 
L 608.334512 158.08321 
L 608.684355 157.995369 
L 609.034199 158.150523 
L 609.384042 158.100594 
L 609.733885 158.163093 
L 610.433572 158.080599 
L 611.133258 158.300445 
L 611.483101 158.260873 
L 611.832945 158.038262 
L 612.882475 158.301004 
L 613.232318 158.438642 
L 613.582161 158.227964 
L 613.932004 158.285599 
L 614.281848 158.108866 
L 614.631691 158.128389 
L 614.981534 158.001208 
L 615.681221 158.045974 
L 616.031064 157.829037 
L 616.380907 158.125693 
L 616.73075 157.699357 
L 617.080594 158.021588 
L 617.78028 157.689195 
L 618.130123 157.96439 
L 618.82981 157.633171 
L 619.179653 158.015701 
L 619.529496 158.226138 
L 619.87934 157.875538 
L 620.229183 157.712027 
L 620.579026 157.840517 
L 620.92887 157.611358 
L 621.278713 157.731589 
L 621.978399 157.496991 
L 622.328243 157.610955 
L 622.678086 157.444894 
L 623.377772 157.842906 
L 624.077459 157.479309 
L 625.126989 158.03149 
L 625.126989 158.03149 
" clip-path="url(#p0b0766997a)" style="fill: none; stroke: #1f77b4; stroke-width: 1.5; stroke-linecap: square"/>
   </g>
   <g id="line2d_13">
    <path d="M 117.854261 254.938135 
L 118.204105 296.03625 
L 118.903791 208.813361 
L 119.253634 187.276667 
L 119.603478 189.706367 
L 119.953321 199.947919 
L 120.303164 215.797721 
L 121.002851 198.696802 
L 121.702537 191.667623 
L 122.05238 187.178186 
L 122.402224 184.771631 
L 122.752067 181.518091 
L 123.10191 172.836631 
L 123.451754 177.084168 
L 123.801597 176.002442 
L 124.15144 180.292152 
L 124.851127 176.06466 
L 125.20097 175.975991 
L 125.550813 174.803012 
L 125.900656 176.218112 
L 126.600343 172.621992 
L 126.950186 174.243191 
L 127.300029 176.566693 
L 127.649873 173.999041 
L 127.999716 173.336092 
L 128.349559 171.437928 
L 128.699402 173.335198 
L 129.049246 172.257273 
L 129.399089 172.221129 
L 129.748932 171.317887 
L 130.098775 174.228225 
L 130.448619 174.212043 
L 130.798462 172.3616 
L 131.148305 174.62792 
L 131.847992 173.635043 
L 132.197835 172.33708 
L 132.547678 172.44086 
L 132.897522 171.153063 
L 133.247365 171.94099 
L 133.597208 171.945602 
L 133.947051 172.134762 
L 134.296895 171.688203 
L 134.646738 172.966357 
L 134.996581 172.10459 
L 135.346424 171.552824 
L 136.046111 173.746198 
L 136.395954 171.707896 
L 137.095641 171.970886 
L 137.445484 170.970049 
L 138.14517 171.354679 
L 138.844857 173.167313 
L 139.544543 172.811369 
L 139.894387 171.409545 
L 140.594073 174.302414 
L 140.943917 172.613514 
L 141.29376 172.593085 
L 141.643603 171.222889 
L 141.993446 171.566571 
L 142.34329 172.197917 
L 143.042976 172.719121 
L 143.392819 172.528508 
L 143.742663 171.880279 
L 144.092506 171.604792 
L 144.442349 172.486302 
L 144.792192 172.588694 
L 145.142036 173.111377 
L 145.491879 171.824538 
L 145.841722 171.427537 
L 146.191565 172.134662 
L 146.541409 172.388463 
L 146.891252 172.99041 
L 147.590938 173.19691 
L 147.940782 172.615522 
L 148.290625 173.116519 
L 148.640468 174.450834 
L 149.340155 173.067075 
L 149.689998 173.406221 
L 150.039841 172.090916 
L 150.389685 173.59965 
L 150.739528 173.205076 
L 151.439214 175.600819 
L 151.789058 175.336454 
L 152.138901 175.347132 
L 152.488744 172.839012 
L 152.838587 174.86629 
L 153.188431 172.849161 
L 153.538274 173.691814 
L 153.888117 174.198152 
L 154.23796 175.266 
L 154.587804 173.253777 
L 154.937647 175.196099 
L 155.28749 176.064354 
L 155.637333 174.710514 
L 155.987177 174.716729 
L 156.33702 174.534071 
L 156.686863 173.717343 
L 157.036707 174.202458 
L 157.38655 175.168232 
L 157.736393 173.329799 
L 158.086236 173.707572 
L 158.43608 175.512934 
L 158.785923 175.412587 
L 159.485609 174.236053 
L 159.835453 174.495109 
L 160.185296 174.457927 
L 160.535139 173.598044 
L 160.884982 173.556798 
L 161.234826 174.226957 
L 161.584669 172.842117 
L 161.934512 174.033998 
L 162.284355 171.82722 
L 162.634199 173.466877 
L 162.984042 171.590813 
L 163.333885 173.837477 
L 163.683728 174.196744 
L 164.383415 172.477713 
L 164.733258 174.105548 
L 165.083101 170.266629 
L 165.432945 170.28206 
L 165.782788 170.728368 
L 166.132631 172.379129 
L 166.482475 172.545078 
L 166.832318 173.10725 
L 167.182161 172.727759 
L 167.881848 171.206784 
L 168.231691 172.85732 
L 168.581534 169.132799 
L 168.931377 167.331023 
L 169.281221 169.746138 
L 169.631064 170.89915 
L 169.980907 171.197267 
L 170.33075 171.290808 
L 170.680594 170.065879 
L 171.030437 170.701915 
L 171.38028 169.38946 
L 171.730123 169.828205 
L 172.079967 167.50936 
L 172.42981 169.867771 
L 172.779653 170.174255 
L 173.129496 169.140012 
L 173.47934 169.54945 
L 173.829183 171.783569 
L 174.179026 168.517541 
L 174.52887 168.987571 
L 174.878713 168.750076 
L 175.578399 171.450895 
L 175.928243 171.729048 
L 176.278086 171.055364 
L 176.627929 168.730249 
L 177.327616 171.317043 
L 177.677459 170.891562 
L 178.027302 168.43404 
L 178.726989 169.887103 
L 179.076832 170.685864 
L 179.426675 167.229364 
L 179.776518 169.860336 
L 180.126362 170.315567 
L 180.476205 166.725035 
L 180.826048 168.727225 
L 181.175891 168.558664 
L 181.875578 169.35949 
L 182.225421 169.370134 
L 182.575264 169.961826 
L 182.925108 168.556259 
L 183.274951 170.718922 
L 183.624794 168.860858 
L 183.974638 170.40796 
L 184.324481 167.685218 
L 184.674324 168.199201 
L 185.374011 170.578275 
L 186.073697 169.629412 
L 186.773384 169.775695 
L 187.123227 170.735877 
L 187.47307 170.170243 
L 187.822913 170.533776 
L 188.172757 170.003519 
L 188.5226 170.422865 
L 188.872443 169.232927 
L 189.222286 168.608221 
L 189.57213 168.981682 
L 189.921973 169.866374 
L 190.271816 168.866532 
L 190.621659 170.029044 
L 190.971503 169.272354 
L 191.321346 170.493606 
L 191.671189 169.511944 
L 192.021033 169.666177 
L 192.370876 170.312552 
L 193.070562 170.441513 
L 193.420406 169.193993 
L 193.770249 170.700225 
L 194.120092 170.408394 
L 194.469935 170.390795 
L 194.819779 168.707613 
L 195.169622 168.567834 
L 195.519465 168.555006 
L 195.869308 169.782664 
L 196.219152 169.375414 
L 196.568995 170.828587 
L 196.918838 169.300857 
L 197.268681 169.55813 
L 197.618525 168.334885 
L 197.968368 167.962417 
L 198.668054 169.137734 
L 199.017898 169.272664 
L 199.367741 168.226628 
L 199.717584 169.71668 
L 200.417271 167.264729 
L 200.767114 168.508186 
L 201.116957 168.568905 
L 201.466801 169.47394 
L 201.816644 167.353207 
L 202.51633 169.12375 
L 202.866174 167.556371 
L 203.216017 167.498236 
L 203.56586 168.372565 
L 203.915703 166.057744 
L 204.265547 168.455916 
L 204.61539 169.283844 
L 205.315076 168.434012 
L 206.014763 169.942208 
L 206.364606 171.442653 
L 206.714449 170.744467 
L 207.064293 169.635116 
L 207.414136 169.531875 
L 207.763979 169.192391 
L 208.113822 171.219978 
L 208.463666 169.751376 
L 208.813509 168.883082 
L 209.163352 169.9975 
L 209.513196 170.620432 
L 209.863039 170.428596 
L 210.212882 169.78904 
L 210.562725 171.271427 
L 210.912569 170.455118 
L 211.612255 169.500853 
L 212.661785 171.378662 
L 213.011628 169.724076 
L 213.361471 169.908073 
L 213.711315 170.59831 
L 214.061158 168.845588 
L 214.760844 170.196902 
L 215.110688 170.477496 
L 215.460531 169.453045 
L 215.810374 170.539155 
L 216.160217 170.41447 
L 216.510061 170.541219 
L 216.859904 170.364321 
L 217.209747 169.476405 
L 217.909434 170.988097 
L 218.259277 170.720209 
L 218.60912 170.610929 
L 218.958964 170.250932 
L 219.308807 170.983601 
L 219.65865 171.334155 
L 220.008493 170.607384 
L 220.358337 171.594585 
L 220.70818 170.74801 
L 221.058023 171.102039 
L 221.407866 165.668203 
L 221.75771 157.260271 
L 222.107553 158.109435 
L 222.807239 158.065066 
L 223.157083 159.253093 
L 223.506926 157.933172 
L 224.206612 159.216684 
L 224.556456 158.952384 
L 224.906299 159.774269 
L 225.256142 159.497486 
L 225.605986 159.514434 
L 225.955829 159.810076 
L 226.305672 159.243292 
L 226.655515 159.990796 
L 227.005359 159.520692 
L 227.355202 160.025602 
L 228.054888 159.908322 
L 228.404732 160.32958 
L 228.754575 160.154614 
L 229.104418 159.818638 
L 229.454261 159.734872 
L 229.804105 159.897215 
L 230.153948 159.637781 
L 230.503791 160.053261 
L 230.853634 159.948993 
L 231.203478 160.615295 
L 231.553321 159.828245 
L 231.903164 159.865906 
L 232.253007 159.767255 
L 232.602851 160.544821 
L 232.952694 159.858306 
L 233.302537 160.628665 
L 233.65238 160.316323 
L 234.002224 160.832474 
L 234.352067 160.978815 
L 234.70191 159.986471 
L 235.051754 159.913214 
L 235.401597 160.487713 
L 236.101283 160.706538 
L 236.80097 160.026634 
L 237.150813 160.417298 
L 237.500656 160.304212 
L 237.8505 160.57298 
L 238.200343 160.25048 
L 238.550186 160.492115 
L 238.900029 160.432943 
L 239.249873 160.643788 
L 239.599716 160.544122 
L 240.299402 160.211009 
L 240.649246 159.614008 
L 240.999089 160.273213 
L 241.698775 159.906737 
L 242.048619 160.47459 
L 242.398462 159.342558 
L 242.748305 159.780157 
L 243.098149 159.273843 
L 243.797835 159.899822 
L 244.147678 159.765321 
L 244.497522 159.897305 
L 244.847365 159.424204 
L 245.197208 159.791611 
L 245.547051 159.646656 
L 245.896895 159.29827 
L 246.246738 159.624578 
L 246.596581 159.152912 
L 246.946424 159.176085 
L 247.296268 159.064748 
L 247.646111 159.418686 
L 247.995954 159.253508 
L 248.695641 159.800961 
L 249.045484 159.610222 
L 249.395327 159.767646 
L 249.74517 159.258101 
L 250.095014 159.465059 
L 250.444857 159.516275 
L 250.7947 159.389562 
L 251.84423 159.476896 
L 252.194073 159.130857 
L 252.89376 159.603505 
L 253.243603 158.947125 
L 253.593446 159.258055 
L 254.293133 159.591428 
L 254.642976 159.406045 
L 254.992819 159.503871 
L 255.342663 158.876726 
L 255.692506 159.627697 
L 256.042349 159.631467 
L 256.392192 159.09707 
L 256.742036 159.191761 
L 257.091879 159.851682 
L 257.441722 159.400114 
L 257.791565 159.600971 
L 258.141409 159.400481 
L 258.491252 159.734207 
L 258.841095 159.494294 
L 259.540782 159.609264 
L 260.590312 159.752787 
L 260.940155 159.198844 
L 261.289998 159.908282 
L 261.639841 159.466196 
L 261.989685 159.699557 
L 262.339528 159.645381 
L 262.689371 160.019621 
L 263.039214 159.595929 
L 264.788431 159.606665 
L 265.138274 159.94807 
L 265.488117 159.719841 
L 265.83796 159.649272 
L 266.187804 162.848622 
L 266.537647 158.196261 
L 266.88749 159.594087 
L 267.237333 159.816541 
L 267.587177 159.585803 
L 267.93702 159.791473 
L 268.286863 159.62025 
L 268.636707 159.814353 
L 268.98655 159.681243 
L 269.336393 159.994622 
L 269.686236 159.768833 
L 270.03608 159.373059 
L 271.085609 159.860811 
L 271.435453 159.527404 
L 271.785296 159.690969 
L 272.135139 159.504895 
L 272.484982 159.835262 
L 272.834826 159.449771 
L 273.184669 159.812848 
L 273.534512 159.550961 
L 273.884355 159.758294 
L 274.584042 159.550144 
L 275.283728 159.683732 
L 275.633572 159.744483 
L 276.333258 159.492884 
L 276.683101 159.886462 
L 277.032945 159.425712 
L 278.082475 159.597965 
L 278.782161 159.507324 
L 279.132004 159.820618 
L 279.481848 159.745091 
L 280.181534 159.926608 
L 280.531377 159.71463 
L 280.881221 160.015056 
L 281.231064 159.538858 
L 282.280594 160.086147 
L 282.630437 159.750671 
L 283.330123 159.785548 
L 283.679967 159.464118 
L 284.02981 159.979955 
L 284.379653 160.123462 
L 284.729496 159.783599 
L 285.429183 159.852492 
L 285.779026 159.76547 
L 286.12887 159.849602 
L 286.478713 160.331629 
L 286.828556 159.971812 
L 287.178399 159.825108 
L 287.528243 159.831308 
L 287.878086 160.129987 
L 288.227929 160.084658 
L 288.577772 160.428929 
L 288.927616 159.703395 
L 290.326989 159.86017 
L 290.676832 160.021164 
L 291.026675 159.838181 
L 291.376518 160.044828 
L 292.076205 159.802884 
L 292.426048 160.08104 
L 292.775891 159.821094 
L 293.125735 159.862872 
L 293.475578 159.664279 
L 294.175264 159.991116 
L 294.525108 159.845669 
L 294.874951 159.564818 
L 295.224794 159.790168 
L 295.574638 159.71072 
L 295.924481 159.947068 
L 296.624167 159.906012 
L 296.974011 159.76006 
L 297.323854 159.991688 
L 298.02354 159.622636 
L 298.373384 159.63479 
L 298.723227 160.404745 
L 299.07307 159.638482 
L 299.422913 159.88917 
L 299.772757 159.97846 
L 300.1226 159.696818 
L 300.472443 160.236157 
L 300.822286 160.100391 
L 301.17213 159.790208 
L 301.521973 160.004479 
L 301.871816 159.662231 
L 302.221659 159.830562 
L 302.571503 160.244886 
L 302.921346 160.341749 
L 303.271189 159.687567 
L 303.621033 159.846473 
L 303.970876 159.855453 
L 304.320719 159.645816 
L 304.670562 159.946496 
L 305.020406 159.753758 
L 305.370249 160.061147 
L 306.769622 159.708261 
L 307.119465 159.433518 
L 307.819152 159.985576 
L 308.168995 159.963234 
L 308.518838 160.270411 
L 308.868681 159.757382 
L 309.918211 160.045401 
L 310.617898 159.52485 
L 311.317584 159.783737 
L 311.667428 160.015356 
L 312.017271 159.970082 
L 312.367114 159.466431 
L 313.066801 159.635054 
L 313.766487 159.885683 
L 314.11633 159.906866 
L 314.466174 159.816491 
L 314.816017 159.598509 
L 315.16586 159.9902 
L 315.515703 159.46575 
L 315.865547 159.562266 
L 316.21539 159.920128 
L 316.565233 159.713966 
L 316.915076 159.773368 
L 317.614763 159.604772 
L 318.314449 159.926805 
L 318.664293 159.652873 
L 319.713822 159.965805 
L 320.063666 159.683187 
L 320.413509 159.548664 
L 321.113196 159.707622 
L 321.463039 159.896745 
L 321.812882 159.945302 
L 322.162725 159.644816 
L 322.862412 159.736002 
L 323.212255 159.510788 
L 323.911942 159.811761 
L 324.961471 159.450157 
L 325.311315 159.792891 
L 326.360844 159.629241 
L 326.710688 159.587784 
L 327.060531 159.78791 
L 327.410374 159.697469 
L 328.459904 159.848373 
L 328.809747 159.419198 
L 329.509434 159.72341 
L 330.20912 159.395262 
L 330.558964 159.633672 
L 330.908807 159.68716 
L 331.25865 159.473452 
L 331.608493 159.770971 
L 331.958337 159.680967 
L 332.30818 159.826732 
L 332.658023 159.701002 
L 333.707553 159.706407 
L 334.057396 158.956341 
L 334.407239 159.210162 
L 334.757083 159.150131 
L 335.806612 159.326243 
L 336.156456 159.274705 
L 336.506299 159.101313 
L 336.856142 159.082649 
L 337.205986 159.538282 
L 337.555829 159.18276 
L 337.905672 159.372376 
L 338.605359 159.415286 
L 338.955202 159.405631 
L 339.654888 159.099731 
L 340.004732 159.168823 
L 340.354575 159.613607 
L 340.704418 159.548557 
L 341.054261 159.303915 
L 341.404105 159.197683 
L 343.153321 159.347542 
L 343.503164 159.231899 
L 344.202851 159.535565 
L 344.552694 159.212669 
L 344.902537 159.350605 
L 345.25238 159.010449 
L 345.602224 159.577426 
L 345.952067 159.346066 
L 346.651754 159.271282 
L 347.001597 159.582383 
L 347.35144 159.202346 
L 347.701283 159.384679 
L 348.051127 159.292158 
L 348.40097 159.356976 
L 348.750813 159.145893 
L 349.100656 159.101161 
L 349.4505 159.326422 
L 349.800343 159.329543 
L 350.150186 159.536034 
L 350.500029 159.403914 
L 351.549559 159.628812 
L 352.249246 159.206096 
L 352.599089 159.228473 
L 352.948932 159.556564 
L 353.648619 159.344892 
L 353.998462 159.371927 
L 354.348305 159.515831 
L 354.698149 159.412729 
L 355.397835 159.516309 
L 355.747678 159.291315 
L 356.447365 159.604475 
L 357.147051 159.478132 
L 357.496895 159.163141 
L 358.196581 159.43178 
L 358.546424 159.352497 
L 358.896268 159.655163 
L 359.246111 159.574333 
L 359.595954 159.285191 
L 359.945797 159.381459 
L 360.645484 159.324402 
L 360.995327 159.458589 
L 361.34517 159.088448 
L 362.744543 159.732886 
L 363.094387 159.821255 
L 363.44423 159.536899 
L 364.143917 159.350916 
L 365.193446 159.64263 
L 365.893133 159.167728 
L 366.592819 159.803997 
L 367.292506 159.420055 
L 367.642349 159.583008 
L 368.342036 159.307652 
L 368.691879 159.83824 
L 369.041722 159.50724 
L 369.391565 159.513531 
L 369.741409 159.750751 
L 370.790938 159.395116 
L 371.140782 159.244557 
L 371.490625 159.54009 
L 371.840468 159.555156 
L 372.190312 159.443475 
L 372.540155 159.761959 
L 372.889998 159.439606 
L 373.939528 159.493523 
L 374.289371 159.5239 
L 374.639214 159.861896 
L 375.688744 159.462552 
L 377.43796 159.698796 
L 377.787804 159.472698 
L 378.137647 159.801056 
L 378.48749 159.782304 
L 378.837333 159.508473 
L 379.187177 159.517261 
L 379.53702 159.743753 
L 380.236707 159.692201 
L 381.286236 159.799585 
L 382.335766 159.69435 
L 382.685609 160.026117 
L 383.035453 159.533543 
L 383.385296 160.027189 
L 383.735139 159.729629 
L 384.084982 159.834519 
L 384.434826 159.761206 
L 384.784669 159.543284 
L 385.134512 159.661817 
L 385.484355 159.571411 
L 385.834199 159.959909 
L 386.184042 159.747461 
L 386.883728 159.724208 
L 387.233572 159.480784 
L 387.583415 159.593188 
L 387.933258 159.83157 
L 388.982788 159.585146 
L 389.332631 159.439153 
L 389.682475 159.819119 
L 390.382161 159.708435 
L 391.081848 159.662827 
L 391.431691 159.879633 
L 391.781534 159.687496 
L 392.131377 159.74539 
L 392.831064 159.553485 
L 393.180907 159.622187 
L 393.53075 159.415154 
L 393.880594 159.775125 
L 394.58028 159.7147 
L 394.930123 159.783111 
L 395.279967 159.538692 
L 395.979653 159.90848 
L 396.67934 159.477932 
L 397.029183 159.900248 
L 397.379026 159.471127 
L 398.078713 159.601649 
L 398.428556 159.62955 
L 398.778399 159.790189 
L 399.128243 159.513038 
L 399.478086 159.569492 
L 400.527616 159.289072 
L 400.877459 159.471976 
L 401.577145 159.374036 
L 401.926989 159.788639 
L 402.276832 159.147229 
L 402.626675 159.307542 
L 402.976518 159.742232 
L 403.326362 159.67504 
L 403.676205 159.410793 
L 404.026048 159.50115 
L 404.375891 159.385024 
L 404.725735 159.700471 
L 405.425421 159.697331 
L 405.775264 159.766796 
L 406.125108 159.496689 
L 406.474951 159.914742 
L 406.824794 159.448661 
L 407.524481 159.526298 
L 409.273697 160.034643 
L 409.62354 159.930973 
L 409.973384 159.549915 
L 410.323227 160.006157 
L 410.67307 159.85438 
L 411.022913 159.455156 
L 411.372757 159.668607 
L 411.7226 159.711955 
L 412.072443 159.543182 
L 412.422286 159.570787 
L 412.77213 159.952514 
L 413.471816 159.740781 
L 413.821659 160.024092 
L 414.171503 159.773599 
L 414.871189 159.608166 
L 415.221033 159.982724 
L 415.570876 159.745533 
L 415.920719 159.720903 
L 416.270562 159.866206 
L 416.620406 159.519399 
L 417.320092 159.60149 
L 417.669935 159.139675 
L 418.019779 159.711909 
L 418.719465 159.328031 
L 419.069308 159.430813 
L 419.419152 159.414399 
L 419.768995 159.823902 
L 420.118838 159.534425 
L 420.468681 159.454347 
L 420.818525 159.697668 
L 421.168368 159.526248 
L 421.868054 159.530927 
L 422.567741 159.779882 
L 423.267428 159.492664 
L 423.617271 159.429365 
L 424.316957 159.531068 
L 425.71633 159.521309 
L 426.066174 159.282817 
L 426.416017 159.404112 
L 426.76586 159.25863 
L 427.115703 159.297662 
L 427.465547 159.739175 
L 427.81539 159.663931 
L 428.165233 159.352342 
L 428.515076 159.532874 
L 428.86492 159.571296 
L 429.214763 159.304234 
L 429.564606 159.5288 
L 429.914449 159.408174 
L 430.963979 159.446086 
L 431.313822 159.429242 
L 431.663666 159.583049 
L 432.013509 159.256764 
L 432.363352 159.178391 
L 432.713196 159.21655 
L 433.063039 159.500185 
L 433.762725 159.502946 
L 434.112569 159.324808 
L 434.812255 159.452139 
L 435.162098 159.556143 
L 435.511942 159.346862 
L 436.211628 159.795516 
L 436.561471 159.456845 
L 436.911315 159.656084 
L 438.310688 159.54322 
L 438.660531 159.108917 
L 439.010374 159.491197 
L 439.710061 159.747815 
L 440.059904 159.789845 
L 440.759591 159.338114 
L 441.80912 159.667715 
L 442.85865 159.439418 
L 443.208493 159.64441 
L 443.558337 159.326737 
L 443.90818 159.710196 
L 444.258023 159.687435 
L 444.607866 159.374196 
L 444.95771 159.734714 
L 445.307553 159.494122 
L 445.657396 159.644118 
L 446.007239 159.394707 
L 446.706926 159.702644 
L 447.056769 159.587716 
L 447.406612 159.624401 
L 448.106299 159.435365 
L 448.456142 159.643733 
L 448.805986 159.20884 
L 449.155829 159.38156 
L 449.855515 159.524548 
L 450.205359 159.656495 
L 451.254888 159.673257 
L 451.604732 159.341085 
L 451.954575 159.314489 
L 452.654261 159.63012 
L 453.353948 159.545637 
L 453.703791 159.724555 
L 454.403478 159.720195 
L 454.753321 159.732752 
L 455.453007 159.517618 
L 455.802851 159.65694 
L 456.85238 159.716498 
L 457.202224 159.819512 
L 457.90191 159.449787 
L 458.601597 159.579427 
L 458.95144 159.587575 
L 459.301283 159.313503 
L 459.651127 159.495652 
L 460.00097 159.536232 
L 460.350813 159.875302 
L 460.700656 159.609927 
L 461.0505 159.505796 
L 461.400343 159.744403 
L 461.750186 159.816955 
L 462.449873 159.428054 
L 463.149559 159.509739 
L 463.849246 159.525389 
L 464.199089 159.380383 
L 464.548932 159.604921 
L 464.898775 159.494035 
L 465.598462 159.763635 
L 465.948305 159.45245 
L 466.997835 159.634865 
L 467.347678 159.449201 
L 467.697522 159.901162 
L 468.047365 159.591707 
L 468.397208 159.561419 
L 468.747051 159.824703 
L 469.096895 159.600347 
L 470.496268 159.889638 
L 470.846111 159.714231 
L 471.195954 159.8754 
L 471.895641 159.450661 
L 472.245484 159.637099 
L 472.595327 159.446477 
L 472.94517 159.57453 
L 474.694387 159.62848 
L 475.04423 159.505493 
L 475.394073 159.674214 
L 475.743917 159.519186 
L 476.09376 159.832837 
L 476.793446 159.429122 
L 477.14329 159.757839 
L 477.493133 159.898156 
L 477.842976 159.755126 
L 478.192819 160.112504 
L 478.542663 159.725632 
L 479.592192 159.669072 
L 479.942036 159.729294 
L 480.291879 160.040188 
L 480.641722 160.052854 
L 480.991565 159.896999 
L 481.341409 159.933446 
L 482.390938 159.734445 
L 482.740782 159.968722 
L 483.090625 159.836955 
L 483.440468 160.016696 
L 483.790312 159.606598 
L 484.839841 160.148566 
L 485.189685 159.980135 
L 485.889371 160.26983 
L 486.239214 159.920814 
L 486.589058 159.862846 
L 486.938901 160.12178 
L 487.638587 160.136281 
L 487.988431 160.057228 
L 488.338274 160.21907 
L 488.688117 160.005969 
L 489.03796 160.135018 
L 489.387804 159.881965 
L 489.737647 160.059702 
L 490.437333 159.860121 
L 490.787177 160.081947 
L 492.536393 160.133197 
L 492.886236 159.956105 
L 493.585923 159.806906 
L 493.935766 159.713799 
L 494.285609 160.083397 
L 494.635453 160.00115 
L 495.684982 160.12699 
L 496.034826 159.649867 
L 496.384669 159.990463 
L 497.434199 159.860726 
L 497.784042 160.18576 
L 498.483728 159.780786 
L 498.833572 159.838794 
L 499.183415 159.601415 
L 499.533258 159.949269 
L 499.883101 159.993924 
L 500.232945 159.920866 
L 500.582788 159.729038 
L 500.932631 160.00489 
L 501.282475 159.954406 
L 501.632318 159.6966 
L 502.332004 159.87414 
L 503.031691 159.824099 
L 503.381534 160.081569 
L 503.731377 159.5808 
L 504.081221 159.930805 
L 504.431064 159.626735 
L 504.780907 159.81654 
L 505.13075 159.718918 
L 505.480594 159.936655 
L 505.830437 159.711283 
L 506.18028 159.868317 
L 506.879967 159.679539 
L 507.22981 159.797399 
L 507.929496 159.741714 
L 508.27934 159.552871 
L 508.979026 159.933726 
L 509.32887 160.183809 
L 509.678713 160.00262 
L 510.028556 159.673592 
L 510.728243 159.940752 
L 511.078086 159.645777 
L 511.427929 159.875995 
L 512.127616 159.746021 
L 513.526989 159.865316 
L 514.926362 159.537773 
L 515.276205 159.819234 
L 515.626048 159.630136 
L 516.325735 159.759536 
L 516.675578 159.641354 
L 517.025421 159.859099 
L 517.375264 159.908891 
L 518.074951 159.794249 
L 518.424794 159.80096 
L 518.774638 159.677804 
L 519.124481 159.813629 
L 519.474324 159.488641 
L 520.873697 159.694787 
L 521.22354 160.147921 
L 521.573384 160.156468 
L 521.923227 159.693855 
L 522.622913 159.606839 
L 522.972757 159.686566 
L 523.3226 159.463515 
L 523.672443 159.655897 
L 524.721973 159.27166 
L 525.071816 159.659907 
L 525.421659 159.562841 
L 525.771503 159.846286 
L 526.121346 159.791676 
L 526.471189 159.62079 
L 526.821033 159.753217 
L 527.170876 159.36951 
L 527.870562 159.751166 
L 528.220406 159.425858 
L 528.920092 159.417738 
L 529.269935 159.798508 
L 529.619779 159.485476 
L 530.319465 159.69975 
L 530.669308 159.574771 
L 531.019152 159.590338 
L 531.368995 159.408781 
L 532.418525 159.610035 
L 532.768368 159.351786 
L 533.118211 159.763508 
L 533.468054 159.855228 
L 534.167741 159.666302 
L 534.517584 159.699491 
L 534.867428 159.490449 
L 535.217271 159.587118 
L 535.567114 159.905329 
L 535.916957 159.793016 
L 536.266801 159.435549 
L 536.616644 159.586284 
L 538.016017 159.41242 
L 538.715703 159.511803 
L 539.065547 159.421732 
L 539.765233 159.527112 
L 540.115076 159.738887 
L 540.46492 159.659056 
L 540.814763 159.380914 
L 541.864293 159.647705 
L 542.214136 159.485879 
L 542.913822 159.772861 
L 543.263666 159.288573 
L 543.613509 159.512686 
L 544.313196 159.726163 
L 544.663039 159.493014 
L 545.012882 159.690268 
L 545.362725 159.752655 
L 545.712569 159.53422 
L 546.062412 159.76499 
L 546.412255 159.549533 
L 548.511315 159.373882 
L 548.861158 159.59583 
L 549.211001 159.520448 
L 549.560844 159.291873 
L 550.960217 159.347053 
L 551.310061 159.183105 
L 551.659904 159.432497 
L 552.009747 159.262491 
L 552.359591 159.593969 
L 553.059277 159.227279 
L 553.758964 159.328931 
L 554.108807 159.232215 
L 554.45865 159.251524 
L 555.50818 159.665913 
L 555.858023 159.454533 
L 556.207866 159.435962 
L 556.55771 159.68433 
L 556.907553 159.426113 
L 557.257396 159.449003 
L 557.607239 159.257284 
L 557.957083 159.456978 
L 558.306926 159.30405 
L 558.656769 159.501237 
L 559.356456 159.394667 
L 559.706299 159.515108 
L 560.056142 159.179665 
L 560.405986 159.532834 
L 560.755829 159.309891 
L 561.105672 159.464331 
L 561.455515 159.466292 
L 561.805359 159.20631 
L 562.155202 159.343079 
L 562.505045 159.329486 
L 563.204732 159.555537 
L 563.554575 159.409654 
L 563.904418 159.478526 
L 564.254261 159.175951 
L 564.604105 159.221496 
L 564.953948 158.999204 
L 566.003478 159.427368 
L 566.703164 159.079605 
L 567.402851 159.65813 
L 567.752694 159.381467 
L 568.102537 159.341337 
L 568.45238 159.72104 
L 568.802224 159.317652 
L 569.152067 159.145908 
L 569.50191 159.304488 
L 571.60097 159.472833 
L 572.300656 159.191371 
L 572.6505 159.402192 
L 573.000343 159.44428 
L 573.350186 159.337955 
L 573.700029 159.616899 
L 574.049873 159.073256 
L 574.399716 159.091922 
L 574.749559 159.556844 
L 576.498775 159.452945 
L 576.848619 159.586297 
L 577.198462 159.592005 
L 577.548305 159.486001 
L 577.898149 158.899336 
L 578.247992 158.003987 
L 578.947678 158.879162 
L 579.297522 158.862496 
L 579.647365 159.005324 
L 579.997208 158.879011 
L 580.696895 159.197948 
L 581.396581 159.051869 
L 581.746424 159.274149 
L 582.446111 159.099388 
L 582.795954 159.046486 
L 583.145797 159.175417 
L 584.895014 159.272893 
L 585.5947 158.842898 
L 585.944543 159.021238 
L 586.294387 159.361978 
L 586.64423 159.518446 
L 586.994073 159.199618 
L 587.69376 159.091074 
L 588.74329 159.263664 
L 589.093133 159.453515 
L 589.792819 159.090151 
L 590.492506 159.198085 
L 590.842349 159.349574 
L 591.192192 159.116218 
L 591.542036 159.307855 
L 591.891879 159.319902 
L 592.241722 159.155548 
L 592.941409 159.442667 
L 593.641095 159.088154 
L 594.690625 159.392005 
L 595.040468 159.225261 
L 595.390312 159.453977 
L 595.740155 159.444142 
L 596.089998 159.151936 
L 596.439841 159.274032 
L 596.789685 159.084634 
L 597.139528 159.34848 
L 597.489371 159.186183 
L 598.538901 159.264768 
L 598.888744 159.064034 
L 599.238587 159.114143 
L 599.588431 159.438743 
L 599.938274 159.383622 
L 600.288117 159.141323 
L 600.63796 159.511424 
L 601.68749 159.223266 
L 602.037333 159.304592 
L 602.387177 159.122111 
L 602.73702 159.140219 
L 603.086863 159.01583 
L 603.436707 159.289632 
L 605.185923 159.289031 
L 605.535766 159.360818 
L 605.885609 159.036288 
L 606.235453 159.053012 
L 606.585296 158.863311 
L 607.284982 159.210691 
L 607.634826 159.447206 
L 607.984669 159.093597 
L 608.334512 159.246072 
L 610.433572 159.110554 
L 610.783415 159.278099 
L 611.133258 159.10161 
L 611.832945 159.155708 
L 612.182788 159.153041 
L 612.532631 159.373727 
L 612.882475 159.082113 
L 613.582161 159.299473 
L 613.932004 159.548631 
L 614.281848 159.267257 
L 614.631691 159.146505 
L 615.331377 159.234023 
L 615.681221 159.125528 
L 616.031064 159.259211 
L 616.380907 159.256376 
L 616.73075 159.072117 
L 617.430437 159.155252 
L 617.78028 159.448899 
L 618.130123 159.398846 
L 618.479967 159.466904 
L 618.82981 159.179112 
L 619.529496 159.438995 
L 620.579026 159.183983 
L 620.92887 159.488518 
L 622.328243 159.250571 
L 623.027929 159.414905 
L 623.377772 159.183358 
L 623.727616 159.098757 
L 624.077459 159.390451 
L 625.126989 159.185516 
L 625.126989 159.185516 
" clip-path="url(#p0b0766997a)" style="fill: none; stroke: #ff7f0e; stroke-width: 1.5; stroke-linecap: square"/>
   </g>
   <g id="patch_3">
    <path d="M 92.490625 308.63625 
L 92.490625 31.43625 
" style="fill: none; stroke: #000000; stroke-width: 0.8; stroke-linejoin: miter; stroke-linecap: square"/>
   </g>
   <g id="patch_4">
    <path d="M 650.490625 308.63625 
L 650.490625 31.43625 
" style="fill: none; stroke: #000000; stroke-width: 0.8; stroke-linejoin: miter; stroke-linecap: square"/>
   </g>
   <g id="patch_5">
    <path d="M 92.490625 308.63625 
L 650.490625 308.63625 
" style="fill: none; stroke: #000000; stroke-width: 0.8; stroke-linejoin: miter; stroke-linecap: square"/>
   </g>
   <g id="patch_6">
    <path d="M 92.490625 31.43625 
L 650.490625 31.43625 
" style="fill: none; stroke: #000000; stroke-width: 0.8; stroke-linejoin: miter; stroke-linecap: square"/>
   </g>
   <g id="text_14">
    <!-- Generator and Discriminator Loss During Training -->
    <g transform="translate(74.258125 25.43625) scale(0.24 -0.24)">
     <defs>
      <path id="DejaVuSans-47" d="M 3809 666 
L 3809 1919 
L 2778 1919 
L 2778 2438 
L 4434 2438 
L 4434 434 
Q 4069 175 3628 42 
Q 3188 -91 2688 -91 
Q 1594 -91 976 548 
Q 359 1188 359 2328 
Q 359 3472 976 4111 
Q 1594 4750 2688 4750 
Q 3144 4750 3555 4637 
Q 3966 4525 4313 4306 
L 4313 3634 
Q 3963 3931 3569 4081 
Q 3175 4231 2741 4231 
Q 1884 4231 1454 3753 
Q 1025 3275 1025 2328 
Q 1025 1384 1454 906 
Q 1884 428 2741 428 
Q 3075 428 3337 486 
Q 3600 544 3809 666 
z
" transform="scale(0.015625)"/>
      <path id="DejaVuSans-20" transform="scale(0.015625)"/>
      <path id="DejaVuSans-64" d="M 2906 2969 
L 2906 4863 
L 3481 4863 
L 3481 0 
L 2906 0 
L 2906 525 
Q 2725 213 2448 61 
Q 2172 -91 1784 -91 
Q 1150 -91 751 415 
Q 353 922 353 1747 
Q 353 2572 751 3078 
Q 1150 3584 1784 3584 
Q 2172 3584 2448 3432 
Q 2725 3281 2906 2969 
z
M 947 1747 
Q 947 1113 1208 752 
Q 1469 391 1925 391 
Q 2381 391 2643 752 
Q 2906 1113 2906 1747 
Q 2906 2381 2643 2742 
Q 2381 3103 1925 3103 
Q 1469 3103 1208 2742 
Q 947 2381 947 1747 
z
" transform="scale(0.015625)"/>
      <path id="DejaVuSans-44" d="M 1259 4147 
L 1259 519 
L 2022 519 
Q 2988 519 3436 956 
Q 3884 1394 3884 2338 
Q 3884 3275 3436 3711 
Q 2988 4147 2022 4147 
L 1259 4147 
z
M 628 4666 
L 1925 4666 
Q 3281 4666 3915 4102 
Q 4550 3538 4550 2338 
Q 4550 1131 3912 565 
Q 3275 0 1925 0 
L 628 0 
L 628 4666 
z
" transform="scale(0.015625)"/>
      <path id="DejaVuSans-63" d="M 3122 3366 
L 3122 2828 
Q 2878 2963 2633 3030 
Q 2388 3097 2138 3097 
Q 1578 3097 1268 2742 
Q 959 2388 959 1747 
Q 959 1106 1268 751 
Q 1578 397 2138 397 
Q 2388 397 2633 464 
Q 2878 531 3122 666 
L 3122 134 
Q 2881 22 2623 -34 
Q 2366 -91 2075 -91 
Q 1284 -91 818 406 
Q 353 903 353 1747 
Q 353 2603 823 3093 
Q 1294 3584 2113 3584 
Q 2378 3584 2631 3529 
Q 2884 3475 3122 3366 
z
" transform="scale(0.015625)"/>
      <path id="DejaVuSans-6d" d="M 3328 2828 
Q 3544 3216 3844 3400 
Q 4144 3584 4550 3584 
Q 5097 3584 5394 3201 
Q 5691 2819 5691 2113 
L 5691 0 
L 5113 0 
L 5113 2094 
Q 5113 2597 4934 2840 
Q 4756 3084 4391 3084 
Q 3944 3084 3684 2787 
Q 3425 2491 3425 1978 
L 3425 0 
L 2847 0 
L 2847 2094 
Q 2847 2600 2669 2842 
Q 2491 3084 2119 3084 
Q 1678 3084 1418 2786 
Q 1159 2488 1159 1978 
L 1159 0 
L 581 0 
L 581 3500 
L 1159 3500 
L 1159 2956 
Q 1356 3278 1631 3431 
Q 1906 3584 2284 3584 
Q 2666 3584 2933 3390 
Q 3200 3197 3328 2828 
z
" transform="scale(0.015625)"/>
      <path id="DejaVuSans-75" d="M 544 1381 
L 544 3500 
L 1119 3500 
L 1119 1403 
Q 1119 906 1312 657 
Q 1506 409 1894 409 
Q 2359 409 2629 706 
Q 2900 1003 2900 1516 
L 2900 3500 
L 3475 3500 
L 3475 0 
L 2900 0 
L 2900 538 
Q 2691 219 2414 64 
Q 2138 -91 1772 -91 
Q 1169 -91 856 284 
Q 544 659 544 1381 
z
M 1991 3584 
L 1991 3584 
z
" transform="scale(0.015625)"/>
      <path id="DejaVuSans-67" d="M 2906 1791 
Q 2906 2416 2648 2759 
Q 2391 3103 1925 3103 
Q 1463 3103 1205 2759 
Q 947 2416 947 1791 
Q 947 1169 1205 825 
Q 1463 481 1925 481 
Q 2391 481 2648 825 
Q 2906 1169 2906 1791 
z
M 3481 434 
Q 3481 -459 3084 -895 
Q 2688 -1331 1869 -1331 
Q 1566 -1331 1297 -1286 
Q 1028 -1241 775 -1147 
L 775 -588 
Q 1028 -725 1275 -790 
Q 1522 -856 1778 -856 
Q 2344 -856 2625 -561 
Q 2906 -266 2906 331 
L 2906 616 
Q 2728 306 2450 153 
Q 2172 0 1784 0 
Q 1141 0 747 490 
Q 353 981 353 1791 
Q 353 2603 747 3093 
Q 1141 3584 1784 3584 
Q 2172 3584 2450 3431 
Q 2728 3278 2906 2969 
L 2906 3500 
L 3481 3500 
L 3481 434 
z
" transform="scale(0.015625)"/>
      <path id="DejaVuSans-54" d="M -19 4666 
L 3928 4666 
L 3928 4134 
L 2272 4134 
L 2272 0 
L 1638 0 
L 1638 4134 
L -19 4134 
L -19 4666 
z
" transform="scale(0.015625)"/>
     </defs>
     <use xlink:href="#DejaVuSans-47"/>
     <use xlink:href="#DejaVuSans-65" x="77.490234"/>
     <use xlink:href="#DejaVuSans-6e" x="139.013672"/>
     <use xlink:href="#DejaVuSans-65" x="202.392578"/>
     <use xlink:href="#DejaVuSans-72" x="263.916016"/>
     <use xlink:href="#DejaVuSans-61" x="305.029297"/>
     <use xlink:href="#DejaVuSans-74" x="366.308594"/>
     <use xlink:href="#DejaVuSans-6f" x="405.517578"/>
     <use xlink:href="#DejaVuSans-72" x="466.699219"/>
     <use xlink:href="#DejaVuSans-20" x="507.8125"/>
     <use xlink:href="#DejaVuSans-61" x="539.599609"/>
     <use xlink:href="#DejaVuSans-6e" x="600.878906"/>
     <use xlink:href="#DejaVuSans-64" x="664.257812"/>
     <use xlink:href="#DejaVuSans-20" x="727.734375"/>
     <use xlink:href="#DejaVuSans-44" x="759.521484"/>
     <use xlink:href="#DejaVuSans-69" x="836.523438"/>
     <use xlink:href="#DejaVuSans-73" x="864.306641"/>
     <use xlink:href="#DejaVuSans-63" x="916.40625"/>
     <use xlink:href="#DejaVuSans-72" x="971.386719"/>
     <use xlink:href="#DejaVuSans-69" x="1012.5"/>
     <use xlink:href="#DejaVuSans-6d" x="1040.283203"/>
     <use xlink:href="#DejaVuSans-69" x="1137.695312"/>
     <use xlink:href="#DejaVuSans-6e" x="1165.478516"/>
     <use xlink:href="#DejaVuSans-61" x="1228.857422"/>
     <use xlink:href="#DejaVuSans-74" x="1290.136719"/>
     <use xlink:href="#DejaVuSans-6f" x="1329.345703"/>
     <use xlink:href="#DejaVuSans-72" x="1390.527344"/>
     <use xlink:href="#DejaVuSans-20" x="1431.640625"/>
     <use xlink:href="#DejaVuSans-4c" x="1463.427734"/>
     <use xlink:href="#DejaVuSans-6f" x="1517.390625"/>
     <use xlink:href="#DejaVuSans-73" x="1578.572266"/>
     <use xlink:href="#DejaVuSans-73" x="1630.671875"/>
     <use xlink:href="#DejaVuSans-20" x="1682.771484"/>
     <use xlink:href="#DejaVuSans-44" x="1714.558594"/>
     <use xlink:href="#DejaVuSans-75" x="1791.560547"/>
     <use xlink:href="#DejaVuSans-72" x="1854.939453"/>
     <use xlink:href="#DejaVuSans-69" x="1896.052734"/>
     <use xlink:href="#DejaVuSans-6e" x="1923.835938"/>
     <use xlink:href="#DejaVuSans-67" x="1987.214844"/>
     <use xlink:href="#DejaVuSans-20" x="2050.691406"/>
     <use xlink:href="#DejaVuSans-54" x="2082.478516"/>
     <use xlink:href="#DejaVuSans-72" x="2128.8125"/>
     <use xlink:href="#DejaVuSans-61" x="2169.925781"/>
     <use xlink:href="#DejaVuSans-69" x="2231.205078"/>
     <use xlink:href="#DejaVuSans-6e" x="2258.988281"/>
     <use xlink:href="#DejaVuSans-69" x="2322.367188"/>
     <use xlink:href="#DejaVuSans-6e" x="2350.150391"/>
     <use xlink:href="#DejaVuSans-67" x="2413.529297"/>
    </g>
   </g>
   <g id="legend_1">
    <g id="patch_7">
     <path d="M 556.99375 106.14875 
L 636.490625 106.14875 
Q 640.490625 106.14875 640.490625 102.14875 
L 640.490625 45.43625 
Q 640.490625 41.43625 636.490625 41.43625 
L 556.99375 41.43625 
Q 552.99375 41.43625 552.99375 45.43625 
L 552.99375 102.14875 
Q 552.99375 106.14875 556.99375 106.14875 
z
" style="fill: #ffffff; opacity: 0.8; stroke: #cccccc; stroke-linejoin: miter"/>
    </g>
    <g id="line2d_14">
     <path d="M 560.99375 57.633125 
L 580.99375 57.633125 
L 600.99375 57.633125 
" style="fill: none; stroke: #1f77b4; stroke-width: 1.5; stroke-linecap: square"/>
    </g>
    <g id="text_15">
     <!-- G -->
     <g transform="translate(616.99375 64.633125) scale(0.2 -0.2)">
      <use xlink:href="#DejaVuSans-47"/>
     </g>
    </g>
    <g id="line2d_15">
     <path d="M 560.99375 86.989375 
L 580.99375 86.989375 
L 600.99375 86.989375 
" style="fill: none; stroke: #ff7f0e; stroke-width: 1.5; stroke-linecap: square"/>
    </g>
    <g id="text_16">
     <!-- D -->
     <g transform="translate(616.99375 93.989375) scale(0.2 -0.2)">
      <use xlink:href="#DejaVuSans-44"/>
     </g>
    </g>
   </g>
  </g>
 </g>
 <defs>
  <clipPath id="p0b0766997a">
   <rect x="92.490625" y="31.43625" width="558" height="277.2"/>
  </clipPath>
 </defs>
</svg>
