<?xml version="1.0" encoding="utf-8" standalone="no"?>
<!DOCTYPE svg PUBLIC "-//W3C//DTD SVG 1.1//EN"
  "http://www.w3.org/Graphics/SVG/1.1/DTD/svg11.dtd">
<svg xmlns:xlink="http://www.w3.org/1999/xlink" width="679.832325pt" height="365.54875pt" viewBox="0 0 679.832325 365.54875" xmlns="http://www.w3.org/2000/svg" version="1.1">
 <metadata>
  <rdf:RDF xmlns:dc="http://purl.org/dc/elements/1.1/" xmlns:cc="http://creativecommons.org/ns#" xmlns:rdf="http://www.w3.org/1999/02/22-rdf-syntax-ns#">
   <cc:Work>
    <dc:type rdf:resource="http://purl.org/dc/dcmitype/StillImage"/>
    <dc:date>2024-02-01T07:03:56.633152</dc:date>
    <dc:format>image/svg+xml</dc:format>
    <dc:creator>
     <cc:Agent>
      <dc:title>Matplotlib v3.7.2, https://matplotlib.org/</dc:title>
     </cc:Agent>
    </dc:creator>
   </cc:Work>
  </rdf:RDF>
 </metadata>
 <defs>
  <style type="text/css">*{stroke-linejoin: round; stroke-linecap: butt}</style>
 </defs>
 <g id="figure_1">
  <g id="patch_1">
   <path d="M 0 365.54875 
L 679.832325 365.54875 
L 679.832325 -0 
L 0 -0 
z
" style="fill: #ffffff"/>
  </g>
  <g id="axes_1">
   <g id="patch_2">
    <path d="M 92.490625 308.63625 
L 650.490625 308.63625 
L 650.490625 31.43625 
L 92.490625 31.43625 
z
" style="fill: #ffffff"/>
   </g>
   <g id="matplotlib.axis_1">
    <g id="xtick_1">
     <g id="line2d_1">
      <defs>
       <path id="m7b13371ab7" d="M 0 0 
L 0 3.5 
" style="stroke: #000000; stroke-width: 0.8"/>
      </defs>
      <g>
       <use xlink:href="#m7b13371ab7" x="117.854261" y="308.63625" style="stroke: #000000; stroke-width: 0.8"/>
      </g>
     </g>
     <g id="text_1">
      <!-- 0 -->
      <g transform="translate(111.491761 330.833125) scale(0.2 -0.2)">
       <defs>
        <path id="DejaVuSans-30" d="M 2034 4250 
Q 1547 4250 1301 3770 
Q 1056 3291 1056 2328 
Q 1056 1369 1301 889 
Q 1547 409 2034 409 
Q 2525 409 2770 889 
Q 3016 1369 3016 2328 
Q 3016 3291 2770 3770 
Q 2525 4250 2034 4250 
z
M 2034 4750 
Q 2819 4750 3233 4129 
Q 3647 3509 3647 2328 
Q 3647 1150 3233 529 
Q 2819 -91 2034 -91 
Q 1250 -91 836 529 
Q 422 1150 422 2328 
Q 422 3509 836 4129 
Q 1250 4750 2034 4750 
z
" transform="scale(0.015625)"/>
       </defs>
       <use xlink:href="#DejaVuSans-30"/>
      </g>
     </g>
    </g>
    <g id="xtick_2">
     <g id="line2d_2">
      <g>
       <use xlink:href="#m7b13371ab7" x="206.075605" y="308.63625" style="stroke: #000000; stroke-width: 0.8"/>
      </g>
     </g>
     <g id="text_2">
      <!-- 200 -->
      <g transform="translate(186.988105 330.833125) scale(0.2 -0.2)">
       <defs>
        <path id="DejaVuSans-32" d="M 1228 531 
L 3431 531 
L 3431 0 
L 469 0 
L 469 531 
Q 828 903 1448 1529 
Q 2069 2156 2228 2338 
Q 2531 2678 2651 2914 
Q 2772 3150 2772 3378 
Q 2772 3750 2511 3984 
Q 2250 4219 1831 4219 
Q 1534 4219 1204 4116 
Q 875 4013 500 3803 
L 500 4441 
Q 881 4594 1212 4672 
Q 1544 4750 1819 4750 
Q 2544 4750 2975 4387 
Q 3406 4025 3406 3419 
Q 3406 3131 3298 2873 
Q 3191 2616 2906 2266 
Q 2828 2175 2409 1742 
Q 1991 1309 1228 531 
z
" transform="scale(0.015625)"/>
       </defs>
       <use xlink:href="#DejaVuSans-32"/>
       <use xlink:href="#DejaVuSans-30" x="63.623047"/>
       <use xlink:href="#DejaVuSans-30" x="127.246094"/>
      </g>
     </g>
    </g>
    <g id="xtick_3">
     <g id="line2d_3">
      <g>
       <use xlink:href="#m7b13371ab7" x="294.296949" y="308.63625" style="stroke: #000000; stroke-width: 0.8"/>
      </g>
     </g>
     <g id="text_3">
      <!-- 400 -->
      <g transform="translate(275.209449 330.833125) scale(0.2 -0.2)">
       <defs>
        <path id="DejaVuSans-34" d="M 2419 4116 
L 825 1625 
L 2419 1625 
L 2419 4116 
z
M 2253 4666 
L 3047 4666 
L 3047 1625 
L 3713 1625 
L 3713 1100 
L 3047 1100 
L 3047 0 
L 2419 0 
L 2419 1100 
L 313 1100 
L 313 1709 
L 2253 4666 
z
" transform="scale(0.015625)"/>
       </defs>
       <use xlink:href="#DejaVuSans-34"/>
       <use xlink:href="#DejaVuSans-30" x="63.623047"/>
       <use xlink:href="#DejaVuSans-30" x="127.246094"/>
      </g>
     </g>
    </g>
    <g id="xtick_4">
     <g id="line2d_4">
      <g>
       <use xlink:href="#m7b13371ab7" x="382.518293" y="308.63625" style="stroke: #000000; stroke-width: 0.8"/>
      </g>
     </g>
     <g id="text_4">
      <!-- 600 -->
      <g transform="translate(363.430793 330.833125) scale(0.2 -0.2)">
       <defs>
        <path id="DejaVuSans-36" d="M 2113 2584 
Q 1688 2584 1439 2293 
Q 1191 2003 1191 1497 
Q 1191 994 1439 701 
Q 1688 409 2113 409 
Q 2538 409 2786 701 
Q 3034 994 3034 1497 
Q 3034 2003 2786 2293 
Q 2538 2584 2113 2584 
z
M 3366 4563 
L 3366 3988 
Q 3128 4100 2886 4159 
Q 2644 4219 2406 4219 
Q 1781 4219 1451 3797 
Q 1122 3375 1075 2522 
Q 1259 2794 1537 2939 
Q 1816 3084 2150 3084 
Q 2853 3084 3261 2657 
Q 3669 2231 3669 1497 
Q 3669 778 3244 343 
Q 2819 -91 2113 -91 
Q 1303 -91 875 529 
Q 447 1150 447 2328 
Q 447 3434 972 4092 
Q 1497 4750 2381 4750 
Q 2619 4750 2861 4703 
Q 3103 4656 3366 4563 
z
" transform="scale(0.015625)"/>
       </defs>
       <use xlink:href="#DejaVuSans-36"/>
       <use xlink:href="#DejaVuSans-30" x="63.623047"/>
       <use xlink:href="#DejaVuSans-30" x="127.246094"/>
      </g>
     </g>
    </g>
    <g id="xtick_5">
     <g id="line2d_5">
      <g>
       <use xlink:href="#m7b13371ab7" x="470.739637" y="308.63625" style="stroke: #000000; stroke-width: 0.8"/>
      </g>
     </g>
     <g id="text_5">
      <!-- 800 -->
      <g transform="translate(451.652137 330.833125) scale(0.2 -0.2)">
       <defs>
        <path id="DejaVuSans-38" d="M 2034 2216 
Q 1584 2216 1326 1975 
Q 1069 1734 1069 1313 
Q 1069 891 1326 650 
Q 1584 409 2034 409 
Q 2484 409 2743 651 
Q 3003 894 3003 1313 
Q 3003 1734 2745 1975 
Q 2488 2216 2034 2216 
z
M 1403 2484 
Q 997 2584 770 2862 
Q 544 3141 544 3541 
Q 544 4100 942 4425 
Q 1341 4750 2034 4750 
Q 2731 4750 3128 4425 
Q 3525 4100 3525 3541 
Q 3525 3141 3298 2862 
Q 3072 2584 2669 2484 
Q 3125 2378 3379 2068 
Q 3634 1759 3634 1313 
Q 3634 634 3220 271 
Q 2806 -91 2034 -91 
Q 1263 -91 848 271 
Q 434 634 434 1313 
Q 434 1759 690 2068 
Q 947 2378 1403 2484 
z
M 1172 3481 
Q 1172 3119 1398 2916 
Q 1625 2713 2034 2713 
Q 2441 2713 2670 2916 
Q 2900 3119 2900 3481 
Q 2900 3844 2670 4047 
Q 2441 4250 2034 4250 
Q 1625 4250 1398 4047 
Q 1172 3844 1172 3481 
z
" transform="scale(0.015625)"/>
       </defs>
       <use xlink:href="#DejaVuSans-38"/>
       <use xlink:href="#DejaVuSans-30" x="63.623047"/>
       <use xlink:href="#DejaVuSans-30" x="127.246094"/>
      </g>
     </g>
    </g>
    <g id="xtick_6">
     <g id="line2d_6">
      <g>
       <use xlink:href="#m7b13371ab7" x="558.960981" y="308.63625" style="stroke: #000000; stroke-width: 0.8"/>
      </g>
     </g>
     <g id="text_6">
      <!-- 1000 -->
      <g transform="translate(533.510981 330.833125) scale(0.2 -0.2)">
       <defs>
        <path id="DejaVuSans-31" d="M 794 531 
L 1825 531 
L 1825 4091 
L 703 3866 
L 703 4441 
L 1819 4666 
L 2450 4666 
L 2450 531 
L 3481 531 
L 3481 0 
L 794 0 
L 794 531 
z
" transform="scale(0.015625)"/>
       </defs>
       <use xlink:href="#DejaVuSans-31"/>
       <use xlink:href="#DejaVuSans-30" x="63.623047"/>
       <use xlink:href="#DejaVuSans-30" x="127.246094"/>
       <use xlink:href="#DejaVuSans-30" x="190.869141"/>
      </g>
     </g>
    </g>
    <g id="xtick_7">
     <g id="line2d_7">
      <g>
       <use xlink:href="#m7b13371ab7" x="647.182325" y="308.63625" style="stroke: #000000; stroke-width: 0.8"/>
      </g>
     </g>
     <g id="text_7">
      <!-- 1200 -->
      <g transform="translate(621.732325 330.833125) scale(0.2 -0.2)">
       <use xlink:href="#DejaVuSans-31"/>
       <use xlink:href="#DejaVuSans-32" x="63.623047"/>
       <use xlink:href="#DejaVuSans-30" x="127.246094"/>
       <use xlink:href="#DejaVuSans-30" x="190.869141"/>
      </g>
     </g>
    </g>
    <g id="text_8">
     <!-- iterations -->
     <g transform="translate(324.035938 354.189375) scale(0.2 -0.2)">
      <defs>
       <path id="DejaVuSans-69" d="M 603 3500 
L 1178 3500 
L 1178 0 
L 603 0 
L 603 3500 
z
M 603 4863 
L 1178 4863 
L 1178 4134 
L 603 4134 
L 603 4863 
z
" transform="scale(0.015625)"/>
       <path id="DejaVuSans-74" d="M 1172 4494 
L 1172 3500 
L 2356 3500 
L 2356 3053 
L 1172 3053 
L 1172 1153 
Q 1172 725 1289 603 
Q 1406 481 1766 481 
L 2356 481 
L 2356 0 
L 1766 0 
Q 1100 0 847 248 
Q 594 497 594 1153 
L 594 3053 
L 172 3053 
L 172 3500 
L 594 3500 
L 594 4494 
L 1172 4494 
z
" transform="scale(0.015625)"/>
       <path id="DejaVuSans-65" d="M 3597 1894 
L 3597 1613 
L 953 1613 
Q 991 1019 1311 708 
Q 1631 397 2203 397 
Q 2534 397 2845 478 
Q 3156 559 3463 722 
L 3463 178 
Q 3153 47 2828 -22 
Q 2503 -91 2169 -91 
Q 1331 -91 842 396 
Q 353 884 353 1716 
Q 353 2575 817 3079 
Q 1281 3584 2069 3584 
Q 2775 3584 3186 3129 
Q 3597 2675 3597 1894 
z
M 3022 2063 
Q 3016 2534 2758 2815 
Q 2500 3097 2075 3097 
Q 1594 3097 1305 2825 
Q 1016 2553 972 2059 
L 3022 2063 
z
" transform="scale(0.015625)"/>
       <path id="DejaVuSans-72" d="M 2631 2963 
Q 2534 3019 2420 3045 
Q 2306 3072 2169 3072 
Q 1681 3072 1420 2755 
Q 1159 2438 1159 1844 
L 1159 0 
L 581 0 
L 581 3500 
L 1159 3500 
L 1159 2956 
Q 1341 3275 1631 3429 
Q 1922 3584 2338 3584 
Q 2397 3584 2469 3576 
Q 2541 3569 2628 3553 
L 2631 2963 
z
" transform="scale(0.015625)"/>
       <path id="DejaVuSans-61" d="M 2194 1759 
Q 1497 1759 1228 1600 
Q 959 1441 959 1056 
Q 959 750 1161 570 
Q 1363 391 1709 391 
Q 2188 391 2477 730 
Q 2766 1069 2766 1631 
L 2766 1759 
L 2194 1759 
z
M 3341 1997 
L 3341 0 
L 2766 0 
L 2766 531 
Q 2569 213 2275 61 
Q 1981 -91 1556 -91 
Q 1019 -91 701 211 
Q 384 513 384 1019 
Q 384 1609 779 1909 
Q 1175 2209 1959 2209 
L 2766 2209 
L 2766 2266 
Q 2766 2663 2505 2880 
Q 2244 3097 1772 3097 
Q 1472 3097 1187 3025 
Q 903 2953 641 2809 
L 641 3341 
Q 956 3463 1253 3523 
Q 1550 3584 1831 3584 
Q 2591 3584 2966 3190 
Q 3341 2797 3341 1997 
z
" transform="scale(0.015625)"/>
       <path id="DejaVuSans-6f" d="M 1959 3097 
Q 1497 3097 1228 2736 
Q 959 2375 959 1747 
Q 959 1119 1226 758 
Q 1494 397 1959 397 
Q 2419 397 2687 759 
Q 2956 1122 2956 1747 
Q 2956 2369 2687 2733 
Q 2419 3097 1959 3097 
z
M 1959 3584 
Q 2709 3584 3137 3096 
Q 3566 2609 3566 1747 
Q 3566 888 3137 398 
Q 2709 -91 1959 -91 
Q 1206 -91 779 398 
Q 353 888 353 1747 
Q 353 2609 779 3096 
Q 1206 3584 1959 3584 
z
" transform="scale(0.015625)"/>
       <path id="DejaVuSans-6e" d="M 3513 2113 
L 3513 0 
L 2938 0 
L 2938 2094 
Q 2938 2591 2744 2837 
Q 2550 3084 2163 3084 
Q 1697 3084 1428 2787 
Q 1159 2491 1159 1978 
L 1159 0 
L 581 0 
L 581 3500 
L 1159 3500 
L 1159 2956 
Q 1366 3272 1645 3428 
Q 1925 3584 2291 3584 
Q 2894 3584 3203 3211 
Q 3513 2838 3513 2113 
z
" transform="scale(0.015625)"/>
       <path id="DejaVuSans-73" d="M 2834 3397 
L 2834 2853 
Q 2591 2978 2328 3040 
Q 2066 3103 1784 3103 
Q 1356 3103 1142 2972 
Q 928 2841 928 2578 
Q 928 2378 1081 2264 
Q 1234 2150 1697 2047 
L 1894 2003 
Q 2506 1872 2764 1633 
Q 3022 1394 3022 966 
Q 3022 478 2636 193 
Q 2250 -91 1575 -91 
Q 1294 -91 989 -36 
Q 684 19 347 128 
L 347 722 
Q 666 556 975 473 
Q 1284 391 1588 391 
Q 1994 391 2212 530 
Q 2431 669 2431 922 
Q 2431 1156 2273 1281 
Q 2116 1406 1581 1522 
L 1381 1569 
Q 847 1681 609 1914 
Q 372 2147 372 2553 
Q 372 3047 722 3315 
Q 1072 3584 1716 3584 
Q 2034 3584 2315 3537 
Q 2597 3491 2834 3397 
z
" transform="scale(0.015625)"/>
      </defs>
      <use xlink:href="#DejaVuSans-69"/>
      <use xlink:href="#DejaVuSans-74" x="27.783203"/>
      <use xlink:href="#DejaVuSans-65" x="66.992188"/>
      <use xlink:href="#DejaVuSans-72" x="128.515625"/>
      <use xlink:href="#DejaVuSans-61" x="169.628906"/>
      <use xlink:href="#DejaVuSans-74" x="230.908203"/>
      <use xlink:href="#DejaVuSans-69" x="270.117188"/>
      <use xlink:href="#DejaVuSans-6f" x="297.900391"/>
      <use xlink:href="#DejaVuSans-6e" x="359.082031"/>
      <use xlink:href="#DejaVuSans-73" x="422.460938"/>
     </g>
    </g>
   </g>
   <g id="matplotlib.axis_2">
    <g id="ytick_1">
     <g id="line2d_8">
      <defs>
       <path id="md6192e0d6c" d="M 0 0 
L -3.5 0 
" style="stroke: #000000; stroke-width: 0.8"/>
      </defs>
      <g>
       <use xlink:href="#md6192e0d6c" x="92.490625" y="233.89928" style="stroke: #000000; stroke-width: 0.8"/>
      </g>
     </g>
     <g id="text_9">
      <!-- −200 -->
      <g transform="translate(30.55625 241.497718) scale(0.2 -0.2)">
       <defs>
        <path id="DejaVuSans-2212" d="M 678 2272 
L 4684 2272 
L 4684 1741 
L 678 1741 
L 678 2272 
z
" transform="scale(0.015625)"/>
       </defs>
       <use xlink:href="#DejaVuSans-2212"/>
       <use xlink:href="#DejaVuSans-32" x="83.789062"/>
       <use xlink:href="#DejaVuSans-30" x="147.412109"/>
       <use xlink:href="#DejaVuSans-30" x="211.035156"/>
      </g>
     </g>
    </g>
    <g id="ytick_2">
     <g id="line2d_9">
      <g>
       <use xlink:href="#md6192e0d6c" x="92.490625" y="156.400898" style="stroke: #000000; stroke-width: 0.8"/>
      </g>
     </g>
     <g id="text_10">
      <!-- 0 -->
      <g transform="translate(72.765625 163.999335) scale(0.2 -0.2)">
       <use xlink:href="#DejaVuSans-30"/>
      </g>
     </g>
    </g>
    <g id="ytick_3">
     <g id="line2d_10">
      <g>
       <use xlink:href="#md6192e0d6c" x="92.490625" y="78.902515" style="stroke: #000000; stroke-width: 0.8"/>
      </g>
     </g>
     <g id="text_11">
      <!-- 200 -->
      <g transform="translate(47.315625 86.500953) scale(0.2 -0.2)">
       <use xlink:href="#DejaVuSans-32"/>
       <use xlink:href="#DejaVuSans-30" x="63.623047"/>
       <use xlink:href="#DejaVuSans-30" x="127.246094"/>
      </g>
     </g>
    </g>
    <g id="text_12">
     <!-- Loss -->
     <g transform="translate(22.396875 191.970625) rotate(-90) scale(0.2 -0.2)">
      <defs>
       <path id="DejaVuSans-4c" d="M 628 4666 
L 1259 4666 
L 1259 531 
L 3531 531 
L 3531 0 
L 628 0 
L 628 4666 
z
" transform="scale(0.015625)"/>
      </defs>
      <use xlink:href="#DejaVuSans-4c"/>
      <use xlink:href="#DejaVuSans-6f" x="53.962891"/>
      <use xlink:href="#DejaVuSans-73" x="115.144531"/>
      <use xlink:href="#DejaVuSans-73" x="167.244141"/>
     </g>
    </g>
   </g>
   <g id="line2d_11">
    <path d="M 117.854261 136.140105 
L 118.295368 119.386488 
L 118.736475 97.658702 
L 119.618688 132.66545 
L 120.059795 131.50223 
L 120.500902 109.074995 
L 120.942008 70.056914 
L 121.383115 54.902085 
L 121.824222 57.926545 
L 122.265329 54.948943 
L 122.706435 45.679812 
L 123.147542 44.03625 
L 123.588649 46.554003 
L 124.029755 46.4645 
L 124.470862 61.12117 
L 124.911969 55.452144 
L 125.353076 47.371821 
L 125.794182 48.94424 
L 126.235289 60.27658 
L 126.676396 67.071176 
L 127.117502 67.466942 
L 127.558609 72.47849 
L 127.999716 69.342872 
L 129.323036 94.790736 
L 129.764143 91.969084 
L 130.20525 93.229692 
L 130.646356 92.7299 
L 131.087463 100.783666 
L 131.52857 98.377732 
L 131.969676 103.555557 
L 132.410783 102.926982 
L 132.85189 106.843558 
L 133.292997 103.849343 
L 133.734103 107.982067 
L 134.17521 104.046284 
L 134.616317 105.454914 
L 135.057423 106.159588 
L 135.49853 109.279874 
L 135.939637 108.658111 
L 136.380744 113.348977 
L 136.82185 112.802562 
L 137.262957 112.886724 
L 138.586277 117.192842 
L 139.027384 119.698511 
L 139.468491 121.529548 
L 139.909597 117.759482 
L 140.350704 121.031451 
L 140.791811 117.874613 
L 141.232917 123.929319 
L 142.115131 125.098673 
L 142.556238 122.790211 
L 142.997344 126.681087 
L 143.438451 124.35353 
L 143.879558 124.598737 
L 144.320665 127.579039 
L 145.202878 125.949512 
L 145.643985 128.740085 
L 146.085091 127.119974 
L 146.526198 126.066819 
L 146.967305 124.500406 
L 147.408412 128.099512 
L 147.849518 127.64869 
L 148.290625 124.880741 
L 148.731732 126.072068 
L 149.172838 125.0338 
L 150.055052 128.291852 
L 150.496159 127.820071 
L 150.937265 128.384262 
L 151.378372 127.725314 
L 151.819479 130.487021 
L 152.260585 124.764492 
L 153.142799 131.03801 
L 153.583906 129.370054 
L 154.025012 128.507903 
L 154.466119 129.992741 
L 154.907226 127.025059 
L 155.348333 128.463137 
L 155.789439 132.280888 
L 156.230546 126.205151 
L 156.671653 127.786885 
L 157.112759 128.36622 
L 157.553866 130.870562 
L 157.994973 129.202161 
L 158.43608 130.454508 
L 158.877186 129.324651 
L 159.318293 131.486962 
L 159.7594 126.280908 
L 160.200506 129.134088 
L 160.641613 127.71524 
L 161.08272 127.933912 
L 161.523827 130.968429 
L 161.964933 131.451701 
L 162.40604 128.47423 
L 162.847147 131.651787 
L 163.288253 132.517027 
L 163.72936 132.328264 
L 164.170467 131.551236 
L 164.611574 127.719658 
L 165.05268 129.542392 
L 165.493787 129.013006 
L 165.934894 133.998128 
L 166.376 132.652585 
L 166.817107 134.846951 
L 167.258214 134.467355 
L 167.699321 136.200018 
L 168.140427 135.546954 
L 168.581534 132.983733 
L 169.022641 132.881623 
L 169.463748 135.628088 
L 169.904854 134.707247 
L 170.345961 132.554932 
L 170.787068 134.507047 
L 171.228174 133.025755 
L 171.669281 139.875843 
L 172.110388 134.53711 
L 172.551495 138.060798 
L 172.992601 135.610679 
L 173.433708 134.071004 
L 173.874815 137.174334 
L 174.315921 138.894034 
L 174.757028 134.346656 
L 175.198135 133.628541 
L 175.639242 139.905496 
L 176.080348 139.351825 
L 176.521455 141.054145 
L 176.962562 140.309269 
L 177.403668 138.998649 
L 178.285882 139.653628 
L 178.726989 140.618431 
L 179.168095 137.012362 
L 179.609202 139.155162 
L 180.932522 136.511355 
L 181.373629 140.473876 
L 181.814736 136.474656 
L 182.255842 137.701627 
L 182.696949 137.834537 
L 183.138056 137.004483 
L 183.579163 137.949913 
L 184.020269 137.668135 
L 184.461376 141.592374 
L 184.902483 138.273643 
L 185.343589 140.58307 
L 186.225803 137.903665 
L 186.66691 139.007768 
L 187.108016 138.482864 
L 187.549123 137.668388 
L 187.99023 137.640647 
L 188.431336 137.021624 
L 188.872443 136.006231 
L 189.31355 137.474276 
L 189.754657 137.944546 
L 190.195763 135.579974 
L 190.63687 135.523171 
L 191.077977 137.942839 
L 191.519083 138.274288 
L 191.96019 140.577836 
L 192.842404 137.334687 
L 193.28351 137.22565 
L 194.606831 140.935747 
L 195.047937 138.706081 
L 195.489044 138.031621 
L 195.930151 141.258663 
L 196.371257 139.099333 
L 196.812364 141.369672 
L 197.253471 137.77225 
L 197.694578 137.347757 
L 198.135684 140.418194 
L 198.576791 139.414461 
L 199.017898 138.878593 
L 199.900111 142.18506 
L 200.341218 141.024633 
L 200.782325 141.071503 
L 201.223431 143.735901 
L 201.664538 143.388929 
L 202.546751 142.271918 
L 202.987858 144.383795 
L 203.428965 145.16363 
L 203.870072 144.086809 
L 204.311178 143.883762 
L 204.752285 144.458331 
L 205.193392 144.067005 
L 205.634499 144.523268 
L 206.075605 144.575892 
L 206.516712 144.057221 
L 206.957819 145.96549 
L 207.840032 142.712513 
L 208.281139 143.651971 
L 209.163352 146.492216 
L 209.604459 144.780635 
L 210.045566 144.081637 
L 210.486672 144.851548 
L 210.927779 146.190345 
L 211.368886 144.657309 
L 211.809993 145.82573 
L 212.692206 143.079696 
L 213.133313 144.296385 
L 213.574419 144.961194 
L 214.015526 143.808949 
L 214.456633 143.997531 
L 214.89774 146.215528 
L 215.338846 144.776813 
L 215.779953 144.718914 
L 216.22106 147.279174 
L 216.662167 145.481445 
L 217.103273 144.759004 
L 217.54438 144.778459 
L 218.426593 147.19603 
L 218.8677 145.77178 
L 219.308807 146.071329 
L 219.749914 146.691365 
L 220.19102 146.571939 
L 220.632127 146.757617 
L 221.073234 146.584022 
L 221.51434 145.073014 
L 221.955447 146.164435 
L 222.396554 146.019355 
L 222.837661 143.897742 
L 223.278767 143.447988 
L 223.719874 143.242848 
L 224.160981 144.033963 
L 224.602087 145.291173 
L 225.043194 144.827294 
L 225.484301 145.635636 
L 225.925408 145.168239 
L 226.807621 145.380979 
L 227.248728 145.052218 
L 227.689834 146.595932 
L 228.130941 146.597405 
L 228.572048 146.024231 
L 229.013155 146.12066 
L 229.454261 145.644051 
L 229.895368 145.637259 
L 230.336475 145.064343 
L 230.777582 146.527707 
L 231.218688 146.054691 
L 231.659795 146.378687 
L 232.100902 147.244862 
L 232.542008 147.743065 
L 233.424222 145.699305 
L 233.865329 145.614191 
L 234.747542 146.032133 
L 235.188649 145.842341 
L 235.629755 145.851376 
L 236.070862 147.242077 
L 236.511969 146.43271 
L 237.394182 144.331136 
L 237.835289 145.156912 
L 238.276396 145.113214 
L 238.717502 146.046768 
L 239.158609 146.109475 
L 239.599716 146.358465 
L 240.040823 147.967362 
L 240.481929 145.834115 
L 240.923036 145.471832 
L 241.364143 145.909016 
L 241.80525 145.176336 
L 242.246356 145.312189 
L 242.687463 144.622425 
L 243.12857 146.161472 
L 243.569676 145.988952 
L 244.010783 145.609696 
L 244.45189 146.340256 
L 244.892997 145.255584 
L 245.334103 146.137073 
L 245.77521 145.934825 
L 246.657423 144.794355 
L 247.09853 145.822868 
L 247.539637 146.259016 
L 247.980744 145.545879 
L 248.42185 145.704226 
L 248.862957 143.833665 
L 249.304064 143.39312 
L 249.74517 143.983717 
L 250.186277 144.764031 
L 250.627384 141.471619 
L 251.068491 143.258355 
L 251.509597 142.1225 
L 251.950704 142.770739 
L 252.832917 140.613826 
L 253.274024 140.124447 
L 253.715131 139.984476 
L 254.156238 140.198564 
L 254.597344 139.866343 
L 255.038451 140.192398 
L 255.479558 139.209319 
L 255.920665 137.699922 
L 256.361771 138.211979 
L 256.802878 137.472748 
L 257.243985 135.659297 
L 257.685091 136.513748 
L 258.126198 136.846126 
L 258.567305 136.708991 
L 259.449518 136.991124 
L 259.890625 137.518005 
L 260.331732 137.284661 
L 260.772838 136.19745 
L 261.213945 135.462121 
L 261.655052 135.642996 
L 262.096159 135.398218 
L 262.537265 133.458761 
L 263.419479 134.309588 
L 264.301692 133.713049 
L 264.742799 133.073662 
L 265.183906 133.282183 
L 265.625012 134.055024 
L 266.066119 133.006076 
L 266.507226 133.292302 
L 266.948333 134.015364 
L 267.389439 133.691593 
L 267.830546 133.654318 
L 268.271653 134.463807 
L 268.712759 134.107787 
L 269.153866 134.925327 
L 269.594973 134.93708 
L 270.03608 134.225088 
L 270.477186 135.658831 
L 270.918293 135.124509 
L 271.3594 134.892409 
L 271.800506 136.184751 
L 272.241613 135.805301 
L 272.68272 136.403224 
L 273.123827 136.162705 
L 273.564933 137.044153 
L 274.00604 136.978352 
L 274.447147 137.257002 
L 275.770467 138.599311 
L 276.211574 138.164326 
L 276.65268 138.148874 
L 277.093787 138.875902 
L 277.534894 139.009496 
L 277.976 138.996887 
L 278.417107 139.359301 
L 278.858214 140.196006 
L 279.740427 139.446259 
L 280.181534 139.624629 
L 280.622641 139.175819 
L 281.063748 140.360832 
L 281.504854 140.507721 
L 281.945961 140.277501 
L 282.387068 140.344361 
L 282.828174 139.688527 
L 283.269281 139.764017 
L 283.710388 140.47098 
L 284.151495 140.823755 
L 284.592601 140.00849 
L 285.033708 140.867939 
L 285.915921 140.809753 
L 286.357028 141.309758 
L 287.239242 140.6429 
L 287.680348 141.04968 
L 288.121455 141.153351 
L 288.562562 140.423128 
L 289.003668 140.617213 
L 289.444775 140.614077 
L 289.885882 141.862909 
L 290.326989 141.540245 
L 290.768095 141.368711 
L 291.209202 141.72775 
L 291.650309 141.138194 
L 292.091416 141.33949 
L 292.973629 141.923022 
L 293.414736 141.878898 
L 293.855842 141.446056 
L 294.296949 142.348734 
L 294.738056 142.177576 
L 295.179163 142.347438 
L 295.620269 142.125741 
L 296.502483 142.400078 
L 296.943589 142.475297 
L 297.384696 142.970731 
L 297.825803 143.255098 
L 298.708016 142.624791 
L 299.149123 142.940462 
L 299.59023 142.544034 
L 300.031336 142.637308 
L 300.472443 143.49133 
L 300.91355 143.441073 
L 301.354657 142.498801 
L 302.23687 143.267946 
L 302.677977 143.508972 
L 303.119083 144.054366 
L 303.56019 144.34474 
L 304.001297 144.041871 
L 304.442404 143.350409 
L 304.88351 143.766515 
L 305.324617 143.467922 
L 306.206831 144.488671 
L 306.647937 144.668617 
L 307.089044 144.67175 
L 307.530151 145.670451 
L 307.971257 145.760743 
L 308.412364 146.258358 
L 309.294578 147.847549 
L 309.735684 148.41856 
L 310.176791 148.68886 
L 310.617898 148.046676 
L 311.059004 148.448831 
L 311.500111 147.839463 
L 311.941218 148.048703 
L 312.382325 148.580042 
L 312.823431 148.47331 
L 313.264538 148.869761 
L 313.705645 148.968766 
L 315.028965 148.022524 
L 315.470072 148.76923 
L 315.911178 148.372024 
L 316.352285 148.493244 
L 316.793392 148.478269 
L 317.234499 148.748364 
L 318.557819 148.377159 
L 318.998925 148.893702 
L 319.881139 149.112677 
L 320.322246 148.8705 
L 320.763352 149.059157 
L 321.204459 148.448253 
L 321.645566 148.639738 
L 322.086672 148.443988 
L 322.527779 148.854225 
L 322.968886 148.831863 
L 323.409993 149.493462 
L 323.851099 149.32119 
L 324.292206 148.955499 
L 325.174419 149.348102 
L 325.615526 149.343716 
L 326.056633 149.914771 
L 326.49774 149.513644 
L 326.938846 149.769645 
L 327.82106 149.281482 
L 328.262167 149.528568 
L 328.703273 150.340114 
L 329.14438 149.765789 
L 329.585487 149.810813 
L 330.026593 150.424258 
L 330.4677 149.525793 
L 330.908807 149.916599 
L 331.79102 149.784206 
L 332.232127 149.297795 
L 333.11434 149.799474 
L 333.555447 150.375535 
L 333.996554 150.047529 
L 334.437661 150.061927 
L 334.878767 150.378216 
L 335.319874 149.992059 
L 335.760981 149.896424 
L 336.202087 150.321031 
L 336.643194 150.541045 
L 337.084301 150.338546 
L 337.525408 150.392109 
L 337.966514 150.798539 
L 338.407621 150.783767 
L 338.848728 150.475998 
L 339.289834 150.561397 
L 339.730941 150.76721 
L 340.172048 150.404802 
L 340.613155 150.591651 
L 341.054261 150.610028 
L 341.495368 150.43635 
L 341.936475 150.758872 
L 342.818688 150.626565 
L 343.259795 150.923386 
L 343.700902 151.43372 
L 344.142008 150.559952 
L 344.583115 150.812884 
L 345.024222 151.217041 
L 345.465329 151.339018 
L 345.906435 151.682673 
L 346.347542 151.686438 
L 346.788649 151.245356 
L 347.229755 151.340401 
L 347.670862 151.189276 
L 348.553076 151.459706 
L 348.994182 151.102673 
L 349.435289 151.462666 
L 349.876396 150.909301 
L 350.317502 151.435733 
L 350.758609 151.265245 
L 351.199716 151.238926 
L 351.640823 151.036157 
L 352.081929 151.155105 
L 352.523036 151.430886 
L 352.964143 151.182892 
L 353.846356 151.762198 
L 354.72857 151.339679 
L 355.169676 152.078093 
L 355.610783 151.541049 
L 356.05189 152.217249 
L 356.492997 151.720446 
L 357.37521 152.453899 
L 357.816317 152.47466 
L 358.257423 152.178387 
L 358.69853 152.557004 
L 359.139637 151.581745 
L 359.580744 151.90679 
L 360.02185 152.08738 
L 360.462957 151.927755 
L 360.904064 151.923196 
L 361.786277 152.252462 
L 362.227384 151.786521 
L 362.668491 151.652429 
L 363.109597 152.266472 
L 363.550704 151.899119 
L 363.991811 151.93214 
L 364.432917 151.812318 
L 364.874024 151.389304 
L 365.315131 151.815481 
L 365.756238 151.796132 
L 366.638451 152.379641 
L 367.079558 152.494751 
L 367.520665 152.357874 
L 367.961771 151.779789 
L 368.402878 151.870045 
L 368.843985 151.81871 
L 369.285091 152.20695 
L 369.726198 152.744623 
L 370.167305 152.027593 
L 371.049518 152.579643 
L 371.490625 151.995365 
L 371.931732 152.91781 
L 372.372838 152.035264 
L 372.813945 152.038265 
L 373.255052 152.223482 
L 373.696159 152.150448 
L 374.578372 152.494614 
L 375.019479 153.040017 
L 375.901692 152.224673 
L 376.342799 152.337672 
L 376.783906 152.756649 
L 377.225012 152.018976 
L 377.666119 152.465712 
L 378.107226 152.591943 
L 378.548333 152.545378 
L 378.989439 152.874846 
L 379.871653 153.082897 
L 380.312759 153.593069 
L 380.753866 153.244655 
L 381.194973 153.559309 
L 381.63608 153.291544 
L 382.077186 153.297665 
L 383.400506 153.69826 
L 383.841613 153.675887 
L 384.28272 154.340532 
L 384.723827 153.994852 
L 385.164933 154.429286 
L 385.60604 154.116396 
L 386.047147 154.144122 
L 386.92936 154.426372 
L 387.370467 154.494814 
L 387.811574 154.264573 
L 388.25268 154.362213 
L 388.693787 154.155068 
L 389.576 154.004674 
L 390.017107 153.935798 
L 390.458214 154.459518 
L 390.899321 154.768638 
L 391.340427 154.579417 
L 391.781534 155.456125 
L 393.545961 155.400505 
L 393.987068 155.46561 
L 394.428174 155.063341 
L 394.869281 155.62921 
L 395.310388 155.636871 
L 396.192601 155.925934 
L 396.633708 155.242112 
L 397.074815 155.242005 
L 397.515921 155.431229 
L 397.957028 155.342126 
L 398.398135 155.675356 
L 398.839242 155.317863 
L 399.280348 155.312605 
L 399.721455 155.587132 
L 400.162562 155.539639 
L 400.603668 155.212933 
L 401.485882 155.795154 
L 403.250309 155.96858 
L 403.691416 155.538262 
L 404.573629 155.561329 
L 405.014736 155.127905 
L 405.455842 155.427119 
L 405.896949 154.904094 
L 406.338056 155.655727 
L 406.779163 155.442788 
L 407.220269 155.553067 
L 407.661376 155.221002 
L 408.102483 155.211599 
L 408.543589 155.376185 
L 408.984696 155.325448 
L 409.425803 155.754255 
L 409.86691 156.000229 
L 410.308016 155.642691 
L 410.749123 155.71339 
L 411.19023 155.55804 
L 411.631336 156.06054 
L 413.395763 155.963129 
L 413.83687 155.754411 
L 414.277977 155.876285 
L 415.16019 156.499908 
L 415.601297 156.33346 
L 416.48351 156.593919 
L 416.924617 156.8335 
L 417.365724 156.668702 
L 417.806831 156.794918 
L 418.247937 156.476798 
L 419.130151 156.337321 
L 419.571257 156.607915 
L 421.335684 156.199787 
L 421.776791 156.409511 
L 422.217898 156.418915 
L 423.100111 156.920316 
L 424.423431 156.500873 
L 424.864538 156.703038 
L 425.305645 156.705211 
L 425.746751 157.113282 
L 426.187858 156.699662 
L 427.070072 157.104351 
L 427.511178 157.024251 
L 427.952285 156.489976 
L 428.393392 156.827424 
L 429.275605 156.908301 
L 429.716712 156.981501 
L 430.157819 156.459182 
L 430.598925 156.947286 
L 431.040032 157.035849 
L 431.481139 156.907641 
L 431.922246 156.962777 
L 432.363352 156.661193 
L 432.804459 156.696036 
L 433.245566 156.53097 
L 433.686672 156.491423 
L 434.127779 156.746532 
L 434.568886 156.511599 
L 435.009993 157.237169 
L 435.451099 156.881704 
L 435.892206 157.134891 
L 436.333313 156.859105 
L 437.215526 157.091594 
L 438.538846 157.060549 
L 438.979953 156.659538 
L 439.42106 156.484064 
L 439.862167 157.089212 
L 440.303273 156.919912 
L 440.74438 157.220388 
L 442.0677 156.938472 
L 442.508807 156.524485 
L 442.949914 156.773895 
L 443.832127 156.595714 
L 444.273234 156.120883 
L 444.71434 156.279941 
L 445.155447 156.10918 
L 445.596554 156.802168 
L 446.037661 156.50623 
L 446.919874 156.570882 
L 447.802087 156.085815 
L 448.243194 156.558871 
L 449.125408 156.428751 
L 449.566514 156.743505 
L 450.007621 156.563803 
L 450.448728 156.865861 
L 450.889834 156.778252 
L 451.330941 156.87216 
L 452.654261 156.796657 
L 453.095368 156.349296 
L 453.536475 156.889186 
L 455.300902 156.72056 
L 455.742008 156.948533 
L 456.183115 156.867149 
L 457.065329 156.924917 
L 457.506435 157.307309 
L 457.947542 157.138188 
L 459.270862 157.020573 
L 459.711969 157.242116 
L 460.153076 156.89345 
L 460.594182 156.954108 
L 461.035289 156.868894 
L 461.476396 156.91237 
L 461.917502 157.117368 
L 462.358609 157.564812 
L 462.799716 157.002444 
L 464.123036 157.304028 
L 464.564143 157.064388 
L 465.00525 157.098418 
L 465.887463 157.402296 
L 466.32857 157.157317 
L 467.210783 157.305286 
L 467.65189 157.041411 
L 468.97521 157.02764 
L 469.416317 157.231152 
L 470.29853 157.13538 
L 470.739637 156.949878 
L 471.180744 157.166234 
L 471.62185 156.814488 
L 472.504064 156.947148 
L 473.827384 157.092111 
L 474.268491 157.169659 
L 474.709597 156.863023 
L 475.591811 156.897315 
L 476.032917 157.19827 
L 476.474024 157.229496 
L 477.797344 156.590116 
L 478.679558 157.064287 
L 479.120665 156.939517 
L 480.002878 157.183636 
L 480.443985 156.978618 
L 481.767305 157.215952 
L 482.208412 156.659101 
L 482.649518 157.073064 
L 483.972838 156.957331 
L 484.413945 157.355872 
L 485.296159 156.861785 
L 485.737265 157.05704 
L 486.178372 156.635702 
L 486.619479 156.752532 
L 487.060585 156.679933 
L 487.501692 156.857354 
L 487.942799 156.844268 
L 488.383906 157.049871 
L 489.266119 157.113893 
L 490.148333 156.859888 
L 490.589439 157.006028 
L 491.471653 156.903558 
L 491.912759 157.157826 
L 492.353866 157.005948 
L 492.794973 156.707447 
L 493.23608 156.7611 
L 493.677186 156.965757 
L 494.5594 156.879134 
L 495.000506 157.015963 
L 495.441613 156.933193 
L 495.88272 156.5966 
L 496.323827 156.938272 
L 497.20604 156.619101 
L 497.647147 156.905403 
L 498.970467 156.840711 
L 499.411574 156.98429 
L 499.85268 156.784391 
L 500.293787 156.950945 
L 500.734894 156.845454 
L 501.176 156.944772 
L 501.617107 156.738596 
L 502.058214 156.985249 
L 502.499321 156.798298 
L 504.263748 157.228802 
L 504.704854 157.085884 
L 505.145961 157.29452 
L 505.587068 157.358049 
L 506.469281 156.767647 
L 506.910388 157.276589 
L 507.351495 156.969462 
L 507.792601 157.357298 
L 508.233708 157.315657 
L 508.674815 156.992552 
L 509.115921 157.255557 
L 509.557028 157.107822 
L 509.998135 157.194068 
L 510.439242 156.964599 
L 511.321455 156.881277 
L 511.762562 156.857108 
L 512.203668 157.127138 
L 512.644775 156.814408 
L 513.968095 157.181291 
L 514.409202 157.127673 
L 514.850309 156.920315 
L 516.173629 157.081161 
L 516.614736 156.862729 
L 517.496949 157.202825 
L 517.938056 156.860582 
L 518.379163 157.04992 
L 519.261376 157.097812 
L 519.702483 156.884484 
L 520.584696 157.04506 
L 521.025803 157.240259 
L 521.46691 157.081584 
L 521.908016 157.06549 
L 522.349123 156.804342 
L 523.231336 156.900257 
L 523.672443 156.620796 
L 524.11355 156.584278 
L 524.554657 156.28696 
L 525.43687 157.002038 
L 525.877977 156.78861 
L 526.319083 157.04417 
L 527.201297 156.965016 
L 527.642404 156.958457 
L 528.08351 157.162572 
L 528.524617 157.050881 
L 528.965724 156.783993 
L 529.406831 157.317478 
L 529.847937 157.24046 
L 530.289044 157.293773 
L 531.612364 157.01247 
L 532.053471 156.930029 
L 532.494578 157.151737 
L 532.935684 156.774057 
L 533.376791 157.071522 
L 533.817898 157.188691 
L 534.259004 157.071641 
L 535.141218 157.157254 
L 536.023431 157.214291 
L 536.464538 157.15898 
L 536.905645 157.360904 
L 537.787858 156.997702 
L 538.228965 157.194465 
L 538.670072 156.958928 
L 539.111178 157.207504 
L 539.993392 157.123454 
L 540.434499 157.379931 
L 541.316712 156.781357 
L 541.757819 156.843251 
L 542.198925 157.025809 
L 542.640032 156.672248 
L 543.081139 156.997018 
L 543.522246 156.767273 
L 544.404459 156.891964 
L 544.845566 156.525233 
L 545.286672 157.069887 
L 545.727779 156.711689 
L 546.609993 156.629385 
L 547.051099 156.921364 
L 547.492206 156.741025 
L 547.933313 156.931866 
L 548.374419 156.869437 
L 548.815526 156.95297 
L 549.256633 157.325228 
L 549.69774 157.298327 
L 550.138846 156.965534 
L 551.02106 157.174368 
L 551.462167 157.216075 
L 551.903273 156.922971 
L 552.34438 157.106337 
L 553.226593 157.022951 
L 553.6677 157.332163 
L 554.108807 157.168667 
L 554.99102 157.453814 
L 555.432127 156.994763 
L 555.873234 156.99318 
L 556.31434 157.190726 
L 556.755447 156.968555 
L 557.196554 157.005915 
L 557.637661 157.276595 
L 558.078767 157.026292 
L 558.519874 157.241281 
L 558.960981 156.931915 
L 559.843194 156.664016 
L 560.284301 156.84604 
L 561.166514 156.780014 
L 561.607621 156.673134 
L 562.048728 156.824006 
L 562.489834 157.168924 
L 562.930941 157.190466 
L 564.695368 156.75704 
L 565.136475 157.067917 
L 565.577582 157.201226 
L 566.018688 157.552285 
L 566.459795 157.393819 
L 566.900902 157.356464 
L 567.342008 157.099451 
L 567.783115 157.305882 
L 569.106435 156.954412 
L 569.547542 157.08658 
L 569.988649 156.835485 
L 570.429755 156.716346 
L 570.870862 156.814848 
L 571.311969 156.794005 
L 571.753076 157.097061 
L 572.194182 156.752772 
L 572.635289 156.809305 
L 573.076396 156.726122 
L 573.958609 156.853729 
L 574.840823 156.558932 
L 575.723036 156.821823 
L 576.164143 156.637478 
L 576.60525 157.228641 
L 577.046356 156.790699 
L 577.487463 156.873658 
L 577.92857 156.761293 
L 578.810783 157.043346 
L 579.25189 156.626639 
L 579.692997 156.745497 
L 580.134103 156.735423 
L 580.57521 156.589803 
L 581.016317 156.967555 
L 581.457423 156.991546 
L 582.780744 156.619805 
L 583.22185 157.033005 
L 583.662957 156.256251 
L 584.104064 156.560651 
L 584.986277 156.581748 
L 585.868491 156.40131 
L 586.309597 156.379756 
L 587.632917 156.669645 
L 588.515131 156.541291 
L 588.956238 156.336147 
L 589.397344 156.331775 
L 589.838451 156.531117 
L 590.720665 156.429771 
L 591.161771 156.726495 
L 591.602878 156.686724 
L 592.043985 156.912091 
L 592.926198 156.765474 
L 593.367305 157.007131 
L 593.808412 156.657293 
L 594.690625 156.765566 
L 595.131732 156.676975 
L 595.572838 156.774615 
L 596.013945 156.676206 
L 596.455052 156.897556 
L 596.896159 156.580199 
L 597.337265 157.002127 
L 598.219479 156.38125 
L 599.983906 156.42652 
L 600.866119 156.166888 
L 601.307226 156.676661 
L 601.748333 156.607214 
L 602.189439 156.813065 
L 602.630546 156.685717 
L 603.512759 156.584306 
L 603.953866 156.45115 
L 604.394973 156.524964 
L 604.83608 156.857067 
L 605.718293 156.844767 
L 606.600506 157.035811 
L 607.041613 156.956528 
L 607.48272 156.700263 
L 608.364933 156.982464 
L 608.80604 156.829137 
L 609.688253 156.851996 
L 610.12936 156.630005 
L 611.011574 156.813495 
L 611.45268 156.530259 
L 612.334894 156.526709 
L 612.776 156.791914 
L 613.217107 156.70857 
L 613.658214 156.482309 
L 614.099321 156.748484 
L 614.540427 156.667525 
L 616.745961 156.873798 
L 617.187068 156.665598 
L 617.628174 156.969997 
L 618.069281 156.868234 
L 618.510388 156.394809 
L 619.392601 156.935192 
L 619.833708 156.648261 
L 620.274815 156.779428 
L 620.715921 156.637957 
L 621.157028 156.767656 
L 621.598135 157.115061 
L 622.039242 156.695413 
L 622.480348 156.494281 
L 623.362562 156.707596 
L 623.803668 157.044696 
L 624.244775 156.747812 
L 625.126989 156.681122 
L 625.126989 156.681122 
" clip-path="url(#paf968a4e19)" style="fill: none; stroke: #1f77b4; stroke-width: 1.5; stroke-linecap: square"/>
   </g>
   <g id="line2d_12">
    <path d="M 117.854261 254.938135 
L 118.295368 296.03625 
L 119.177582 208.813361 
L 119.618688 187.276667 
L 120.059795 189.706367 
L 120.500902 199.947919 
L 120.942008 215.797721 
L 121.824222 198.696802 
L 122.265329 195.653424 
L 123.147542 187.178186 
L 123.588649 184.771631 
L 124.029755 181.518091 
L 124.470862 172.836631 
L 124.911969 177.084168 
L 125.353076 176.002442 
L 125.794182 180.292152 
L 126.676396 176.06466 
L 127.117502 175.975991 
L 127.558609 174.803012 
L 127.999716 176.218112 
L 128.440823 174.095347 
L 128.881929 172.621992 
L 129.323036 174.243191 
L 129.764143 176.566693 
L 130.20525 173.999041 
L 130.646356 173.336092 
L 131.087463 171.437928 
L 131.52857 173.335198 
L 131.969676 172.257273 
L 132.410783 172.221129 
L 132.85189 171.317887 
L 133.292997 174.228225 
L 133.734103 174.212043 
L 134.17521 172.3616 
L 134.616317 174.62792 
L 135.49853 173.635043 
L 135.939637 172.33708 
L 136.380744 172.44086 
L 136.82185 171.153063 
L 137.262957 171.94099 
L 137.704064 171.945602 
L 138.14517 172.134762 
L 138.586277 171.688203 
L 139.027384 172.966357 
L 139.468491 172.10459 
L 139.909597 171.552824 
L 140.350704 172.491549 
L 140.791811 173.746198 
L 141.232917 171.707896 
L 142.115131 171.970886 
L 142.556238 170.970049 
L 143.438451 171.354679 
L 144.320665 173.167313 
L 145.202878 172.811369 
L 145.643985 171.409545 
L 146.526198 174.302414 
L 146.967305 172.613514 
L 147.408412 172.593085 
L 147.849518 171.222889 
L 148.290625 171.566571 
L 148.731732 172.197917 
L 149.613945 172.719121 
L 150.055052 172.528508 
L 150.496159 171.880279 
L 150.937265 171.604792 
L 151.378372 172.486302 
L 151.819479 172.588694 
L 152.260585 173.111377 
L 152.701692 171.824538 
L 153.142799 171.427537 
L 153.583906 172.134662 
L 154.025012 172.388463 
L 154.466119 172.99041 
L 155.348333 173.19691 
L 155.789439 172.615522 
L 156.230546 173.116519 
L 156.671653 174.450834 
L 157.553866 173.067075 
L 157.994973 173.406221 
L 158.43608 172.090916 
L 158.877186 173.59965 
L 159.318293 173.205076 
L 160.200506 175.600819 
L 160.641613 175.336454 
L 161.08272 175.347132 
L 161.523827 172.839012 
L 161.964933 174.86629 
L 162.40604 172.849161 
L 162.847147 173.691814 
L 163.288253 174.198152 
L 163.72936 175.266 
L 164.170467 173.253777 
L 164.611574 175.196099 
L 165.05268 176.064354 
L 165.493787 174.710514 
L 165.934894 174.716729 
L 166.376 174.534071 
L 166.817107 173.717343 
L 167.258214 174.202458 
L 167.699321 175.168232 
L 168.140427 173.329799 
L 168.581534 173.707572 
L 169.022641 175.512934 
L 169.463748 175.412587 
L 170.345961 174.236053 
L 170.787068 174.495109 
L 171.228174 174.457927 
L 171.669281 173.598044 
L 172.110388 173.556798 
L 172.551495 174.226957 
L 172.992601 172.842117 
L 173.433708 174.033998 
L 173.874815 171.82722 
L 174.315921 173.466877 
L 174.757028 171.590813 
L 175.198135 173.837477 
L 175.639242 174.196744 
L 176.521455 172.477713 
L 176.962562 174.105548 
L 177.403668 170.266629 
L 177.844775 170.28206 
L 178.285882 170.728368 
L 178.726989 172.379129 
L 179.168095 172.545078 
L 179.609202 173.10725 
L 180.050309 172.727759 
L 180.932522 171.206784 
L 181.373629 172.85732 
L 181.814736 169.132799 
L 182.255842 167.331023 
L 182.696949 169.746138 
L 183.138056 170.89915 
L 183.579163 171.197267 
L 184.020269 171.290808 
L 184.461376 170.065879 
L 184.902483 170.701915 
L 185.343589 169.38946 
L 185.784696 169.828205 
L 186.225803 167.50936 
L 186.66691 169.867771 
L 187.108016 170.174255 
L 187.549123 169.140012 
L 187.99023 169.54945 
L 188.431336 171.783569 
L 188.872443 168.517541 
L 189.31355 168.987571 
L 189.754657 168.750076 
L 190.63687 171.450895 
L 191.077977 171.729048 
L 191.519083 171.055364 
L 191.96019 168.730249 
L 192.401297 170.262241 
L 192.842404 171.317043 
L 193.28351 170.891562 
L 193.724617 168.43404 
L 194.165724 169.292704 
L 194.606831 169.887103 
L 195.047937 170.685864 
L 195.489044 167.229364 
L 195.930151 169.860336 
L 196.371257 170.315567 
L 196.812364 166.725035 
L 197.253471 168.727225 
L 197.694578 168.558664 
L 198.576791 169.35949 
L 199.017898 169.370134 
L 199.459004 169.961826 
L 199.900111 168.556259 
L 200.341218 170.718922 
L 200.782325 168.860858 
L 201.223431 170.40796 
L 201.664538 167.685218 
L 202.105645 168.199201 
L 202.987858 170.578275 
L 203.870072 169.629412 
L 204.752285 169.775695 
L 205.193392 170.735877 
L 205.634499 170.170243 
L 206.075605 170.533776 
L 206.516712 170.003519 
L 206.957819 170.422865 
L 207.398925 169.232927 
L 207.840032 168.608221 
L 208.281139 168.981682 
L 208.722246 169.866374 
L 209.163352 168.866532 
L 209.604459 170.029044 
L 210.045566 169.272354 
L 210.486672 170.493606 
L 210.927779 169.511944 
L 211.368886 169.666177 
L 211.809993 170.312552 
L 212.692206 170.441513 
L 213.133313 169.193993 
L 213.574419 170.700225 
L 214.015526 170.408394 
L 214.456633 170.390795 
L 214.89774 168.707613 
L 215.338846 168.567834 
L 215.779953 168.555006 
L 216.22106 169.782664 
L 216.662167 169.375414 
L 217.103273 170.828587 
L 217.54438 169.300857 
L 217.985487 169.55813 
L 218.426593 168.334885 
L 218.8677 167.962417 
L 219.749914 169.137734 
L 220.19102 169.272664 
L 220.632127 168.226628 
L 221.073234 169.71668 
L 221.955447 167.264729 
L 222.396554 168.508186 
L 222.837661 168.568905 
L 223.278767 169.47394 
L 223.719874 167.353207 
L 224.602087 169.12375 
L 225.043194 167.556371 
L 225.484301 167.498236 
L 225.925408 168.372565 
L 226.366514 166.057744 
L 226.807621 168.455916 
L 227.248728 169.283844 
L 228.130941 168.434012 
L 229.013155 169.942208 
L 229.454261 171.442653 
L 229.895368 170.744467 
L 230.336475 169.635116 
L 230.777582 169.531875 
L 231.218688 169.192391 
L 231.659795 171.219978 
L 232.100902 169.751376 
L 232.542008 168.883082 
L 232.983115 169.9975 
L 233.424222 170.620432 
L 233.865329 170.428596 
L 234.306435 169.78904 
L 234.747542 171.271427 
L 235.188649 170.455118 
L 236.070862 169.500853 
L 237.394182 171.378662 
L 237.835289 169.724076 
L 238.276396 169.908073 
L 238.717502 170.59831 
L 239.158609 168.845588 
L 240.040823 170.196902 
L 240.481929 170.477496 
L 240.923036 169.453045 
L 241.364143 170.539155 
L 241.80525 170.41447 
L 242.246356 170.541219 
L 242.687463 170.364321 
L 243.12857 169.476405 
L 244.010783 170.988097 
L 244.45189 170.720209 
L 244.892997 170.610929 
L 245.334103 170.250932 
L 245.77521 170.983601 
L 246.216317 171.334155 
L 246.657423 170.607384 
L 247.09853 171.594585 
L 247.539637 170.74801 
L 247.980744 171.102039 
L 248.42185 165.668203 
L 248.862957 157.260271 
L 249.304064 158.109435 
L 250.186277 158.065066 
L 250.627384 159.253093 
L 251.068491 157.933172 
L 251.950704 159.216684 
L 252.391811 158.952384 
L 252.832917 159.774269 
L 253.274024 159.497486 
L 253.715131 159.514434 
L 254.156238 159.810076 
L 254.597344 159.243292 
L 255.038451 159.990796 
L 255.479558 159.520692 
L 255.920665 160.025602 
L 256.802878 159.908322 
L 257.243985 160.32958 
L 257.685091 160.154614 
L 258.126198 159.818638 
L 258.567305 159.734872 
L 259.008412 159.897215 
L 259.449518 159.637781 
L 259.890625 160.053261 
L 260.331732 159.948993 
L 260.772838 160.615295 
L 261.213945 159.828245 
L 261.655052 159.865906 
L 262.096159 159.767255 
L 262.537265 160.544821 
L 262.978372 159.858306 
L 263.419479 160.628665 
L 263.860585 160.316323 
L 264.301692 160.832474 
L 264.742799 160.978815 
L 265.183906 159.986471 
L 265.625012 159.913214 
L 266.066119 160.487713 
L 266.948333 160.706538 
L 267.389439 160.286802 
L 267.830546 160.026634 
L 268.271653 160.417298 
L 268.712759 160.304212 
L 269.153866 160.57298 
L 269.594973 160.25048 
L 270.03608 160.492115 
L 270.477186 160.432943 
L 270.918293 160.643788 
L 271.3594 160.544122 
L 271.800506 160.312588 
L 272.241613 160.211009 
L 272.68272 159.614008 
L 273.123827 160.273213 
L 274.00604 159.906737 
L 274.447147 160.47459 
L 274.888253 159.342558 
L 275.32936 159.780157 
L 275.770467 159.273843 
L 276.65268 159.899822 
L 277.093787 159.765321 
L 277.534894 159.897305 
L 277.976 159.424204 
L 278.417107 159.791611 
L 278.858214 159.646656 
L 279.299321 159.29827 
L 279.740427 159.624578 
L 280.181534 159.152912 
L 280.622641 159.176085 
L 281.063748 159.064748 
L 281.504854 159.418686 
L 281.945961 159.253508 
L 282.387068 159.600608 
L 282.828174 159.800961 
L 283.269281 159.610222 
L 283.710388 159.767646 
L 284.151495 159.258101 
L 284.592601 159.465059 
L 285.033708 159.516275 
L 285.474815 159.389562 
L 286.798135 159.476896 
L 287.239242 159.130857 
L 288.121455 159.603505 
L 288.562562 158.947125 
L 289.003668 159.258055 
L 289.885882 159.591428 
L 290.326989 159.406045 
L 290.768095 159.503871 
L 291.209202 158.876726 
L 291.650309 159.627697 
L 292.091416 159.631467 
L 292.532522 159.09707 
L 292.973629 159.191761 
L 293.414736 159.851682 
L 293.855842 159.400114 
L 294.296949 159.600971 
L 294.738056 159.400481 
L 295.179163 159.734207 
L 295.620269 159.494294 
L 296.502483 159.609264 
L 297.825803 159.752787 
L 298.26691 159.198844 
L 298.708016 159.908282 
L 299.149123 159.466196 
L 299.59023 159.699557 
L 300.031336 159.645381 
L 300.472443 160.019621 
L 300.91355 159.595929 
L 303.119083 159.606665 
L 303.56019 159.94807 
L 304.001297 159.719841 
L 304.442404 159.649272 
L 304.88351 162.848622 
L 305.324617 158.196261 
L 305.765724 159.594087 
L 306.206831 159.816541 
L 306.647937 159.585803 
L 307.089044 159.791473 
L 307.530151 159.62025 
L 307.971257 159.814353 
L 308.412364 159.681243 
L 308.853471 159.994622 
L 309.294578 159.768833 
L 309.735684 159.373059 
L 311.059004 159.860811 
L 311.500111 159.527404 
L 311.941218 159.690969 
L 312.382325 159.504895 
L 312.823431 159.835262 
L 313.264538 159.449771 
L 313.705645 159.812848 
L 314.146751 159.550961 
L 314.587858 159.758294 
L 315.470072 159.550144 
L 316.352285 159.683732 
L 316.793392 159.744483 
L 317.675605 159.492884 
L 318.116712 159.886462 
L 318.557819 159.425712 
L 319.881139 159.597965 
L 320.763352 159.507324 
L 321.204459 159.820618 
L 321.645566 159.745091 
L 322.527779 159.926608 
L 322.968886 159.71463 
L 323.409993 160.015056 
L 323.851099 159.538858 
L 325.174419 160.086147 
L 325.615526 159.750671 
L 326.49774 159.785548 
L 326.938846 159.464118 
L 327.379953 159.979955 
L 327.82106 160.123462 
L 328.262167 159.783599 
L 329.14438 159.852492 
L 329.585487 159.76547 
L 330.026593 159.849602 
L 330.4677 160.331629 
L 330.908807 159.971812 
L 331.349914 159.825108 
L 331.79102 159.831308 
L 332.232127 160.129987 
L 332.673234 160.084658 
L 333.11434 160.428929 
L 333.555447 159.703395 
L 335.319874 159.86017 
L 335.760981 160.021164 
L 336.202087 159.838181 
L 336.643194 160.044828 
L 337.525408 159.802884 
L 337.966514 160.08104 
L 338.407621 159.821094 
L 338.848728 159.862872 
L 339.289834 159.664279 
L 339.730941 159.891898 
L 340.172048 159.991116 
L 340.613155 159.845669 
L 341.054261 159.564818 
L 341.495368 159.790168 
L 341.936475 159.71072 
L 342.377582 159.947068 
L 343.259795 159.906012 
L 343.700902 159.76006 
L 344.142008 159.991688 
L 345.024222 159.622636 
L 345.465329 159.63479 
L 345.906435 160.404745 
L 346.347542 159.638482 
L 346.788649 159.88917 
L 347.229755 159.97846 
L 347.670862 159.696818 
L 348.111969 160.236157 
L 348.553076 160.100391 
L 348.994182 159.790208 
L 349.435289 160.004479 
L 349.876396 159.662231 
L 350.317502 159.830562 
L 350.758609 160.244886 
L 351.199716 160.341749 
L 351.640823 159.687567 
L 352.081929 159.846473 
L 352.523036 159.855453 
L 352.964143 159.645816 
L 353.40525 159.946496 
L 353.846356 159.753758 
L 354.287463 160.061147 
L 356.05189 159.708261 
L 356.492997 159.433518 
L 356.934103 159.782549 
L 357.37521 159.985576 
L 357.816317 159.963234 
L 358.257423 160.270411 
L 358.69853 159.757382 
L 360.02185 160.045401 
L 360.904064 159.52485 
L 361.786277 159.783737 
L 362.227384 160.015356 
L 362.668491 159.970082 
L 363.109597 159.466431 
L 363.991811 159.635054 
L 364.874024 159.885683 
L 365.315131 159.906866 
L 365.756238 159.816491 
L 366.197344 159.598509 
L 366.638451 159.9902 
L 367.079558 159.46575 
L 367.520665 159.562266 
L 367.961771 159.920128 
L 368.402878 159.713966 
L 368.843985 159.773368 
L 369.726198 159.604772 
L 370.608412 159.926805 
L 371.049518 159.652873 
L 372.372838 159.965805 
L 372.813945 159.683187 
L 373.255052 159.548664 
L 374.137265 159.707622 
L 374.578372 159.896745 
L 375.019479 159.945302 
L 375.460585 159.644816 
L 376.342799 159.736002 
L 376.783906 159.510788 
L 377.666119 159.811761 
L 378.989439 159.450157 
L 379.430546 159.792891 
L 380.753866 159.629241 
L 381.194973 159.587784 
L 381.63608 159.78791 
L 382.077186 159.697469 
L 383.400506 159.848373 
L 383.841613 159.419198 
L 384.723827 159.72341 
L 385.60604 159.395262 
L 386.047147 159.633672 
L 386.488253 159.68716 
L 386.92936 159.473452 
L 387.370467 159.770971 
L 387.811574 159.680967 
L 388.25268 159.826732 
L 388.693787 159.701002 
L 390.017107 159.706407 
L 390.458214 158.956341 
L 390.899321 159.210162 
L 391.340427 159.150131 
L 392.663748 159.326243 
L 393.104854 159.274705 
L 393.545961 159.101313 
L 393.987068 159.082649 
L 394.428174 159.538282 
L 394.869281 159.18276 
L 395.310388 159.372376 
L 396.192601 159.415286 
L 396.633708 159.405631 
L 397.515921 159.099731 
L 397.957028 159.168823 
L 398.398135 159.613607 
L 398.839242 159.548557 
L 399.280348 159.303915 
L 399.721455 159.197683 
L 401.926989 159.347542 
L 402.368095 159.231899 
L 403.250309 159.535565 
L 403.691416 159.212669 
L 404.132522 159.350605 
L 404.573629 159.010449 
L 405.014736 159.577426 
L 405.455842 159.346066 
L 406.338056 159.271282 
L 406.779163 159.582383 
L 407.220269 159.202346 
L 407.661376 159.384679 
L 408.102483 159.292158 
L 408.543589 159.356976 
L 408.984696 159.145893 
L 409.425803 159.101161 
L 409.86691 159.326422 
L 410.308016 159.329543 
L 410.749123 159.536034 
L 411.19023 159.403914 
L 412.51355 159.628812 
L 413.395763 159.206096 
L 413.83687 159.228473 
L 414.277977 159.556564 
L 415.16019 159.344892 
L 415.601297 159.371927 
L 416.042404 159.515831 
L 416.48351 159.412729 
L 417.365724 159.516309 
L 417.806831 159.291315 
L 418.689044 159.604475 
L 419.571257 159.478132 
L 420.012364 159.163141 
L 420.894578 159.43178 
L 421.335684 159.352497 
L 421.776791 159.655163 
L 422.217898 159.574333 
L 422.659004 159.285191 
L 423.100111 159.381459 
L 423.982325 159.324402 
L 424.423431 159.458589 
L 424.864538 159.088448 
L 426.628965 159.732886 
L 427.070072 159.821255 
L 427.511178 159.536899 
L 428.393392 159.350916 
L 429.716712 159.64263 
L 430.598925 159.167728 
L 431.481139 159.803997 
L 432.363352 159.420055 
L 432.804459 159.583008 
L 433.686672 159.307652 
L 434.127779 159.83824 
L 434.568886 159.50724 
L 435.009993 159.513531 
L 435.451099 159.750751 
L 436.333313 159.335591 
L 436.774419 159.395116 
L 437.215526 159.244557 
L 437.656633 159.54009 
L 438.09774 159.555156 
L 438.538846 159.443475 
L 438.979953 159.761959 
L 439.42106 159.439606 
L 440.74438 159.493523 
L 441.185487 159.5239 
L 441.626593 159.861896 
L 442.949914 159.462552 
L 445.155447 159.698796 
L 445.596554 159.472698 
L 446.037661 159.801056 
L 446.478767 159.782304 
L 446.919874 159.508473 
L 447.360981 159.517261 
L 447.802087 159.743753 
L 448.684301 159.692201 
L 450.007621 159.799585 
L 451.330941 159.69435 
L 451.772048 160.026117 
L 452.213155 159.533543 
L 452.654261 160.027189 
L 453.095368 159.729629 
L 453.536475 159.834519 
L 453.977582 159.761206 
L 454.418688 159.543284 
L 454.859795 159.661817 
L 455.300902 159.571411 
L 455.742008 159.959909 
L 456.183115 159.747461 
L 457.065329 159.724208 
L 457.506435 159.480784 
L 457.947542 159.593188 
L 458.388649 159.83157 
L 459.711969 159.585146 
L 460.153076 159.439153 
L 460.594182 159.819119 
L 461.476396 159.708435 
L 462.358609 159.662827 
L 462.799716 159.879633 
L 463.240823 159.687496 
L 463.681929 159.74539 
L 464.564143 159.553485 
L 465.00525 159.622187 
L 465.446356 159.415154 
L 465.887463 159.775125 
L 466.769676 159.7147 
L 467.210783 159.783111 
L 467.65189 159.538692 
L 468.534103 159.90848 
L 469.416317 159.477932 
L 469.857423 159.900248 
L 470.29853 159.471127 
L 471.180744 159.601649 
L 471.62185 159.62955 
L 472.062957 159.790189 
L 472.504064 159.513038 
L 472.94517 159.569492 
L 474.268491 159.289072 
L 474.709597 159.471976 
L 475.591811 159.374036 
L 476.032917 159.788639 
L 476.474024 159.147229 
L 476.915131 159.307542 
L 477.356238 159.742232 
L 477.797344 159.67504 
L 478.238451 159.410793 
L 478.679558 159.50115 
L 479.120665 159.385024 
L 479.561771 159.700471 
L 480.443985 159.697331 
L 480.885091 159.766796 
L 481.326198 159.496689 
L 481.767305 159.914742 
L 482.208412 159.448661 
L 483.090625 159.526298 
L 485.296159 160.034643 
L 485.737265 159.930973 
L 486.178372 159.549915 
L 486.619479 160.006157 
L 487.060585 159.85438 
L 487.501692 159.455156 
L 487.942799 159.668607 
L 488.383906 159.711955 
L 488.825012 159.543182 
L 489.266119 159.570787 
L 489.707226 159.952514 
L 490.589439 159.740781 
L 491.030546 160.024092 
L 491.471653 159.773599 
L 492.353866 159.608166 
L 492.794973 159.982724 
L 493.23608 159.745533 
L 493.677186 159.720903 
L 494.118293 159.866206 
L 494.5594 159.519399 
L 495.441613 159.60149 
L 495.88272 159.139675 
L 496.323827 159.711909 
L 497.20604 159.328031 
L 497.647147 159.430813 
L 498.088253 159.414399 
L 498.52936 159.823902 
L 498.970467 159.534425 
L 499.411574 159.454347 
L 499.85268 159.697668 
L 500.293787 159.526248 
L 501.176 159.530927 
L 502.058214 159.779882 
L 502.940427 159.492664 
L 503.381534 159.429365 
L 504.263748 159.531068 
L 506.028174 159.521309 
L 506.469281 159.282817 
L 506.910388 159.404112 
L 507.351495 159.25863 
L 507.792601 159.297662 
L 508.233708 159.739175 
L 508.674815 159.663931 
L 509.115921 159.352342 
L 509.557028 159.532874 
L 509.998135 159.571296 
L 510.439242 159.304234 
L 510.880348 159.5288 
L 511.321455 159.408174 
L 512.644775 159.446086 
L 513.085882 159.429242 
L 513.526989 159.583049 
L 513.968095 159.256764 
L 514.409202 159.178391 
L 514.850309 159.21655 
L 515.291416 159.500185 
L 516.173629 159.502946 
L 516.614736 159.324808 
L 517.496949 159.452139 
L 517.938056 159.556143 
L 518.379163 159.346862 
L 519.261376 159.795516 
L 519.702483 159.456845 
L 520.143589 159.656084 
L 521.908016 159.54322 
L 522.349123 159.108917 
L 522.79023 159.491197 
L 523.672443 159.747815 
L 524.11355 159.789845 
L 524.995763 159.338114 
L 526.319083 159.667715 
L 527.642404 159.439418 
L 528.08351 159.64441 
L 528.524617 159.326737 
L 528.965724 159.710196 
L 529.406831 159.687435 
L 529.847937 159.374196 
L 530.289044 159.734714 
L 530.730151 159.494122 
L 531.171257 159.644118 
L 531.612364 159.394707 
L 532.494578 159.702644 
L 532.935684 159.587716 
L 533.376791 159.624401 
L 534.259004 159.435365 
L 534.700111 159.643733 
L 535.141218 159.20884 
L 535.582325 159.38156 
L 536.464538 159.524548 
L 536.905645 159.656495 
L 538.228965 159.673257 
L 538.670072 159.341085 
L 539.111178 159.314489 
L 539.993392 159.63012 
L 540.875605 159.545637 
L 541.316712 159.724555 
L 542.198925 159.720195 
L 542.640032 159.732752 
L 543.081139 159.565542 
L 543.522246 159.517618 
L 543.963352 159.65694 
L 545.286672 159.716498 
L 545.727779 159.819512 
L 546.609993 159.449787 
L 547.492206 159.579427 
L 547.933313 159.587575 
L 548.374419 159.313503 
L 548.815526 159.495652 
L 549.256633 159.536232 
L 549.69774 159.875302 
L 550.138846 159.609927 
L 550.579953 159.505796 
L 551.02106 159.744403 
L 551.462167 159.816955 
L 552.34438 159.428054 
L 553.226593 159.509739 
L 554.108807 159.525389 
L 554.549914 159.380383 
L 554.99102 159.604921 
L 555.432127 159.494035 
L 556.31434 159.763635 
L 556.755447 159.45245 
L 558.078767 159.634865 
L 558.519874 159.449201 
L 558.960981 159.901162 
L 559.402087 159.591707 
L 559.843194 159.561419 
L 560.284301 159.824703 
L 560.725408 159.600347 
L 561.166514 159.692118 
L 561.607621 159.669106 
L 562.048728 159.893762 
L 562.489834 159.889638 
L 562.930941 159.714231 
L 563.372048 159.8754 
L 564.254261 159.450661 
L 564.695368 159.637099 
L 565.136475 159.446477 
L 565.577582 159.57453 
L 567.783115 159.62848 
L 568.224222 159.505493 
L 568.665329 159.674214 
L 569.106435 159.519186 
L 569.547542 159.832837 
L 570.429755 159.429122 
L 570.870862 159.757839 
L 571.311969 159.898156 
L 571.753076 159.755126 
L 572.194182 160.112504 
L 572.635289 159.725632 
L 573.517502 159.570341 
L 574.399716 159.729294 
L 574.840823 160.040188 
L 575.281929 160.052854 
L 575.723036 159.896999 
L 576.164143 159.933446 
L 577.487463 159.734445 
L 577.92857 159.968722 
L 578.369676 159.836955 
L 578.810783 160.016696 
L 579.25189 159.606598 
L 580.57521 160.148566 
L 581.016317 159.980135 
L 581.89853 160.26983 
L 582.339637 159.920814 
L 582.780744 159.862846 
L 583.22185 160.12178 
L 584.104064 160.136281 
L 584.54517 160.057228 
L 584.986277 160.21907 
L 585.427384 160.005969 
L 585.868491 160.135018 
L 586.309597 159.881965 
L 586.750704 160.059702 
L 587.632917 159.860121 
L 588.074024 160.081947 
L 590.279558 160.133197 
L 590.720665 159.956105 
L 591.602878 159.806906 
L 592.043985 159.713799 
L 592.485091 160.083397 
L 592.926198 160.00115 
L 594.249518 160.12699 
L 594.690625 159.649867 
L 595.131732 159.990463 
L 596.455052 159.860726 
L 596.896159 160.18576 
L 597.778372 159.780786 
L 598.219479 159.838794 
L 598.660585 159.601415 
L 599.101692 159.949269 
L 599.542799 159.993924 
L 599.983906 159.920866 
L 600.425012 159.729038 
L 600.866119 160.00489 
L 601.307226 159.954406 
L 601.748333 159.6966 
L 602.630546 159.87414 
L 603.512759 159.824099 
L 603.953866 160.081569 
L 604.394973 159.5808 
L 604.83608 159.930805 
L 605.277186 159.626735 
L 605.718293 159.81654 
L 606.1594 159.718918 
L 606.600506 159.936655 
L 607.041613 159.711283 
L 607.48272 159.868317 
L 608.364933 159.679539 
L 608.80604 159.797399 
L 609.688253 159.741714 
L 610.12936 159.552871 
L 611.011574 159.933726 
L 611.45268 160.183809 
L 611.893787 160.00262 
L 612.334894 159.673592 
L 613.217107 159.940752 
L 613.658214 159.645777 
L 614.099321 159.875995 
L 614.981534 159.746021 
L 616.745961 159.865316 
L 618.510388 159.537773 
L 618.951495 159.819234 
L 619.392601 159.630136 
L 620.274815 159.759536 
L 620.715921 159.641354 
L 621.157028 159.859099 
L 621.598135 159.908891 
L 622.480348 159.794249 
L 622.921455 159.80096 
L 623.362562 159.677804 
L 623.803668 159.813629 
L 624.244775 159.488641 
L 625.126989 159.522514 
L 625.126989 159.522514 
" clip-path="url(#paf968a4e19)" style="fill: none; stroke: #ff7f0e; stroke-width: 1.5; stroke-linecap: square"/>
   </g>
   <g id="patch_3">
    <path d="M 92.490625 308.63625 
L 92.490625 31.43625 
" style="fill: none; stroke: #000000; stroke-width: 0.8; stroke-linejoin: miter; stroke-linecap: square"/>
   </g>
   <g id="patch_4">
    <path d="M 650.490625 308.63625 
L 650.490625 31.43625 
" style="fill: none; stroke: #000000; stroke-width: 0.8; stroke-linejoin: miter; stroke-linecap: square"/>
   </g>
   <g id="patch_5">
    <path d="M 92.490625 308.63625 
L 650.490625 308.63625 
" style="fill: none; stroke: #000000; stroke-width: 0.8; stroke-linejoin: miter; stroke-linecap: square"/>
   </g>
   <g id="patch_6">
    <path d="M 92.490625 31.43625 
L 650.490625 31.43625 
" style="fill: none; stroke: #000000; stroke-width: 0.8; stroke-linejoin: miter; stroke-linecap: square"/>
   </g>
   <g id="text_13">
    <!-- Generator and Discriminator Loss During Training -->
    <g transform="translate(74.258125 25.43625) scale(0.24 -0.24)">
     <defs>
      <path id="DejaVuSans-47" d="M 3809 666 
L 3809 1919 
L 2778 1919 
L 2778 2438 
L 4434 2438 
L 4434 434 
Q 4069 175 3628 42 
Q 3188 -91 2688 -91 
Q 1594 -91 976 548 
Q 359 1188 359 2328 
Q 359 3472 976 4111 
Q 1594 4750 2688 4750 
Q 3144 4750 3555 4637 
Q 3966 4525 4313 4306 
L 4313 3634 
Q 3963 3931 3569 4081 
Q 3175 4231 2741 4231 
Q 1884 4231 1454 3753 
Q 1025 3275 1025 2328 
Q 1025 1384 1454 906 
Q 1884 428 2741 428 
Q 3075 428 3337 486 
Q 3600 544 3809 666 
z
" transform="scale(0.015625)"/>
      <path id="DejaVuSans-20" transform="scale(0.015625)"/>
      <path id="DejaVuSans-64" d="M 2906 2969 
L 2906 4863 
L 3481 4863 
L 3481 0 
L 2906 0 
L 2906 525 
Q 2725 213 2448 61 
Q 2172 -91 1784 -91 
Q 1150 -91 751 415 
Q 353 922 353 1747 
Q 353 2572 751 3078 
Q 1150 3584 1784 3584 
Q 2172 3584 2448 3432 
Q 2725 3281 2906 2969 
z
M 947 1747 
Q 947 1113 1208 752 
Q 1469 391 1925 391 
Q 2381 391 2643 752 
Q 2906 1113 2906 1747 
Q 2906 2381 2643 2742 
Q 2381 3103 1925 3103 
Q 1469 3103 1208 2742 
Q 947 2381 947 1747 
z
" transform="scale(0.015625)"/>
      <path id="DejaVuSans-44" d="M 1259 4147 
L 1259 519 
L 2022 519 
Q 2988 519 3436 956 
Q 3884 1394 3884 2338 
Q 3884 3275 3436 3711 
Q 2988 4147 2022 4147 
L 1259 4147 
z
M 628 4666 
L 1925 4666 
Q 3281 4666 3915 4102 
Q 4550 3538 4550 2338 
Q 4550 1131 3912 565 
Q 3275 0 1925 0 
L 628 0 
L 628 4666 
z
" transform="scale(0.015625)"/>
      <path id="DejaVuSans-63" d="M 3122 3366 
L 3122 2828 
Q 2878 2963 2633 3030 
Q 2388 3097 2138 3097 
Q 1578 3097 1268 2742 
Q 959 2388 959 1747 
Q 959 1106 1268 751 
Q 1578 397 2138 397 
Q 2388 397 2633 464 
Q 2878 531 3122 666 
L 3122 134 
Q 2881 22 2623 -34 
Q 2366 -91 2075 -91 
Q 1284 -91 818 406 
Q 353 903 353 1747 
Q 353 2603 823 3093 
Q 1294 3584 2113 3584 
Q 2378 3584 2631 3529 
Q 2884 3475 3122 3366 
z
" transform="scale(0.015625)"/>
      <path id="DejaVuSans-6d" d="M 3328 2828 
Q 3544 3216 3844 3400 
Q 4144 3584 4550 3584 
Q 5097 3584 5394 3201 
Q 5691 2819 5691 2113 
L 5691 0 
L 5113 0 
L 5113 2094 
Q 5113 2597 4934 2840 
Q 4756 3084 4391 3084 
Q 3944 3084 3684 2787 
Q 3425 2491 3425 1978 
L 3425 0 
L 2847 0 
L 2847 2094 
Q 2847 2600 2669 2842 
Q 2491 3084 2119 3084 
Q 1678 3084 1418 2786 
Q 1159 2488 1159 1978 
L 1159 0 
L 581 0 
L 581 3500 
L 1159 3500 
L 1159 2956 
Q 1356 3278 1631 3431 
Q 1906 3584 2284 3584 
Q 2666 3584 2933 3390 
Q 3200 3197 3328 2828 
z
" transform="scale(0.015625)"/>
      <path id="DejaVuSans-75" d="M 544 1381 
L 544 3500 
L 1119 3500 
L 1119 1403 
Q 1119 906 1312 657 
Q 1506 409 1894 409 
Q 2359 409 2629 706 
Q 2900 1003 2900 1516 
L 2900 3500 
L 3475 3500 
L 3475 0 
L 2900 0 
L 2900 538 
Q 2691 219 2414 64 
Q 2138 -91 1772 -91 
Q 1169 -91 856 284 
Q 544 659 544 1381 
z
M 1991 3584 
L 1991 3584 
z
" transform="scale(0.015625)"/>
      <path id="DejaVuSans-67" d="M 2906 1791 
Q 2906 2416 2648 2759 
Q 2391 3103 1925 3103 
Q 1463 3103 1205 2759 
Q 947 2416 947 1791 
Q 947 1169 1205 825 
Q 1463 481 1925 481 
Q 2391 481 2648 825 
Q 2906 1169 2906 1791 
z
M 3481 434 
Q 3481 -459 3084 -895 
Q 2688 -1331 1869 -1331 
Q 1566 -1331 1297 -1286 
Q 1028 -1241 775 -1147 
L 775 -588 
Q 1028 -725 1275 -790 
Q 1522 -856 1778 -856 
Q 2344 -856 2625 -561 
Q 2906 -266 2906 331 
L 2906 616 
Q 2728 306 2450 153 
Q 2172 0 1784 0 
Q 1141 0 747 490 
Q 353 981 353 1791 
Q 353 2603 747 3093 
Q 1141 3584 1784 3584 
Q 2172 3584 2450 3431 
Q 2728 3278 2906 2969 
L 2906 3500 
L 3481 3500 
L 3481 434 
z
" transform="scale(0.015625)"/>
      <path id="DejaVuSans-54" d="M -19 4666 
L 3928 4666 
L 3928 4134 
L 2272 4134 
L 2272 0 
L 1638 0 
L 1638 4134 
L -19 4134 
L -19 4666 
z
" transform="scale(0.015625)"/>
     </defs>
     <use xlink:href="#DejaVuSans-47"/>
     <use xlink:href="#DejaVuSans-65" x="77.490234"/>
     <use xlink:href="#DejaVuSans-6e" x="139.013672"/>
     <use xlink:href="#DejaVuSans-65" x="202.392578"/>
     <use xlink:href="#DejaVuSans-72" x="263.916016"/>
     <use xlink:href="#DejaVuSans-61" x="305.029297"/>
     <use xlink:href="#DejaVuSans-74" x="366.308594"/>
     <use xlink:href="#DejaVuSans-6f" x="405.517578"/>
     <use xlink:href="#DejaVuSans-72" x="466.699219"/>
     <use xlink:href="#DejaVuSans-20" x="507.8125"/>
     <use xlink:href="#DejaVuSans-61" x="539.599609"/>
     <use xlink:href="#DejaVuSans-6e" x="600.878906"/>
     <use xlink:href="#DejaVuSans-64" x="664.257812"/>
     <use xlink:href="#DejaVuSans-20" x="727.734375"/>
     <use xlink:href="#DejaVuSans-44" x="759.521484"/>
     <use xlink:href="#DejaVuSans-69" x="836.523438"/>
     <use xlink:href="#DejaVuSans-73" x="864.306641"/>
     <use xlink:href="#DejaVuSans-63" x="916.40625"/>
     <use xlink:href="#DejaVuSans-72" x="971.386719"/>
     <use xlink:href="#DejaVuSans-69" x="1012.5"/>
     <use xlink:href="#DejaVuSans-6d" x="1040.283203"/>
     <use xlink:href="#DejaVuSans-69" x="1137.695312"/>
     <use xlink:href="#DejaVuSans-6e" x="1165.478516"/>
     <use xlink:href="#DejaVuSans-61" x="1228.857422"/>
     <use xlink:href="#DejaVuSans-74" x="1290.136719"/>
     <use xlink:href="#DejaVuSans-6f" x="1329.345703"/>
     <use xlink:href="#DejaVuSans-72" x="1390.527344"/>
     <use xlink:href="#DejaVuSans-20" x="1431.640625"/>
     <use xlink:href="#DejaVuSans-4c" x="1463.427734"/>
     <use xlink:href="#DejaVuSans-6f" x="1517.390625"/>
     <use xlink:href="#DejaVuSans-73" x="1578.572266"/>
     <use xlink:href="#DejaVuSans-73" x="1630.671875"/>
     <use xlink:href="#DejaVuSans-20" x="1682.771484"/>
     <use xlink:href="#DejaVuSans-44" x="1714.558594"/>
     <use xlink:href="#DejaVuSans-75" x="1791.560547"/>
     <use xlink:href="#DejaVuSans-72" x="1854.939453"/>
     <use xlink:href="#DejaVuSans-69" x="1896.052734"/>
     <use xlink:href="#DejaVuSans-6e" x="1923.835938"/>
     <use xlink:href="#DejaVuSans-67" x="1987.214844"/>
     <use xlink:href="#DejaVuSans-20" x="2050.691406"/>
     <use xlink:href="#DejaVuSans-54" x="2082.478516"/>
     <use xlink:href="#DejaVuSans-72" x="2128.8125"/>
     <use xlink:href="#DejaVuSans-61" x="2169.925781"/>
     <use xlink:href="#DejaVuSans-69" x="2231.205078"/>
     <use xlink:href="#DejaVuSans-6e" x="2258.988281"/>
     <use xlink:href="#DejaVuSans-69" x="2322.367188"/>
     <use xlink:href="#DejaVuSans-6e" x="2350.150391"/>
     <use xlink:href="#DejaVuSans-67" x="2413.529297"/>
    </g>
   </g>
   <g id="legend_1">
    <g id="patch_7">
     <path d="M 556.99375 106.14875 
L 636.490625 106.14875 
Q 640.490625 106.14875 640.490625 102.14875 
L 640.490625 45.43625 
Q 640.490625 41.43625 636.490625 41.43625 
L 556.99375 41.43625 
Q 552.99375 41.43625 552.99375 45.43625 
L 552.99375 102.14875 
Q 552.99375 106.14875 556.99375 106.14875 
z
" style="fill: #ffffff; opacity: 0.8; stroke: #cccccc; stroke-linejoin: miter"/>
    </g>
    <g id="line2d_13">
     <path d="M 560.99375 57.633125 
L 580.99375 57.633125 
L 600.99375 57.633125 
" style="fill: none; stroke: #1f77b4; stroke-width: 1.5; stroke-linecap: square"/>
    </g>
    <g id="text_14">
     <!-- G -->
     <g transform="translate(616.99375 64.633125) scale(0.2 -0.2)">
      <use xlink:href="#DejaVuSans-47"/>
     </g>
    </g>
    <g id="line2d_14">
     <path d="M 560.99375 86.989375 
L 580.99375 86.989375 
L 600.99375 86.989375 
" style="fill: none; stroke: #ff7f0e; stroke-width: 1.5; stroke-linecap: square"/>
    </g>
    <g id="text_15">
     <!-- D -->
     <g transform="translate(616.99375 93.989375) scale(0.2 -0.2)">
      <use xlink:href="#DejaVuSans-44"/>
     </g>
    </g>
   </g>
  </g>
 </g>
 <defs>
  <clipPath id="paf968a4e19">
   <rect x="92.490625" y="31.43625" width="558" height="277.2"/>
  </clipPath>
 </defs>
</svg>
