<?xml version="1.0" encoding="utf-8" standalone="no"?>
<!DOCTYPE svg PUBLIC "-//W3C//DTD SVG 1.1//EN"
  "http://www.w3.org/Graphics/SVG/1.1/DTD/svg11.dtd">
<svg xmlns:xlink="http://www.w3.org/1999/xlink" width="675.923125pt" height="365.54875pt" viewBox="0 0 675.923125 365.54875" xmlns="http://www.w3.org/2000/svg" version="1.1">
 <metadata>
  <rdf:RDF xmlns:dc="http://purl.org/dc/elements/1.1/" xmlns:cc="http://creativecommons.org/ns#" xmlns:rdf="http://www.w3.org/1999/02/22-rdf-syntax-ns#">
   <cc:Work>
    <dc:type rdf:resource="http://purl.org/dc/dcmitype/StillImage"/>
    <dc:date>2024-02-01T06:58:28.572737</dc:date>
    <dc:format>image/svg+xml</dc:format>
    <dc:creator>
     <cc:Agent>
      <dc:title>Matplotlib v3.7.2, https://matplotlib.org/</dc:title>
     </cc:Agent>
    </dc:creator>
   </cc:Work>
  </rdf:RDF>
 </metadata>
 <defs>
  <style type="text/css">*{stroke-linejoin: round; stroke-linecap: butt}</style>
 </defs>
 <g id="figure_1">
  <g id="patch_1">
   <path d="M 0 365.54875 
L 675.923125 365.54875 
L 675.923125 -0 
L 0 -0 
z
" style="fill: #ffffff"/>
  </g>
  <g id="axes_1">
   <g id="patch_2">
    <path d="M 92.490625 308.63625 
L 650.490625 308.63625 
L 650.490625 31.43625 
L 92.490625 31.43625 
z
" style="fill: #ffffff"/>
   </g>
   <g id="matplotlib.axis_1">
    <g id="xtick_1">
     <g id="line2d_1">
      <defs>
       <path id="m9d1c6d1ed7" d="M 0 0 
L 0 3.5 
" style="stroke: #000000; stroke-width: 0.8"/>
      </defs>
      <g>
       <use xlink:href="#m9d1c6d1ed7" x="117.854261" y="308.63625" style="stroke: #000000; stroke-width: 0.8"/>
      </g>
     </g>
     <g id="text_1">
      <!-- 0 -->
      <g transform="translate(111.491761 330.833125) scale(0.2 -0.2)">
       <defs>
        <path id="DejaVuSans-30" d="M 2034 4250 
Q 1547 4250 1301 3770 
Q 1056 3291 1056 2328 
Q 1056 1369 1301 889 
Q 1547 409 2034 409 
Q 2525 409 2770 889 
Q 3016 1369 3016 2328 
Q 3016 3291 2770 3770 
Q 2525 4250 2034 4250 
z
M 2034 4750 
Q 2819 4750 3233 4129 
Q 3647 3509 3647 2328 
Q 3647 1150 3233 529 
Q 2819 -91 2034 -91 
Q 1250 -91 836 529 
Q 422 1150 422 2328 
Q 422 3509 836 4129 
Q 1250 4750 2034 4750 
z
" transform="scale(0.015625)"/>
       </defs>
       <use xlink:href="#DejaVuSans-30"/>
      </g>
     </g>
    </g>
    <g id="xtick_2">
     <g id="line2d_2">
      <g>
       <use xlink:href="#m9d1c6d1ed7" x="230.581534" y="308.63625" style="stroke: #000000; stroke-width: 0.8"/>
      </g>
     </g>
     <g id="text_2">
      <!-- 200 -->
      <g transform="translate(211.494034 330.833125) scale(0.2 -0.2)">
       <defs>
        <path id="DejaVuSans-32" d="M 1228 531 
L 3431 531 
L 3431 0 
L 469 0 
L 469 531 
Q 828 903 1448 1529 
Q 2069 2156 2228 2338 
Q 2531 2678 2651 2914 
Q 2772 3150 2772 3378 
Q 2772 3750 2511 3984 
Q 2250 4219 1831 4219 
Q 1534 4219 1204 4116 
Q 875 4013 500 3803 
L 500 4441 
Q 881 4594 1212 4672 
Q 1544 4750 1819 4750 
Q 2544 4750 2975 4387 
Q 3406 4025 3406 3419 
Q 3406 3131 3298 2873 
Q 3191 2616 2906 2266 
Q 2828 2175 2409 1742 
Q 1991 1309 1228 531 
z
" transform="scale(0.015625)"/>
       </defs>
       <use xlink:href="#DejaVuSans-32"/>
       <use xlink:href="#DejaVuSans-30" x="63.623047"/>
       <use xlink:href="#DejaVuSans-30" x="127.246094"/>
      </g>
     </g>
    </g>
    <g id="xtick_3">
     <g id="line2d_3">
      <g>
       <use xlink:href="#m9d1c6d1ed7" x="343.308807" y="308.63625" style="stroke: #000000; stroke-width: 0.8"/>
      </g>
     </g>
     <g id="text_3">
      <!-- 400 -->
      <g transform="translate(324.221307 330.833125) scale(0.2 -0.2)">
       <defs>
        <path id="DejaVuSans-34" d="M 2419 4116 
L 825 1625 
L 2419 1625 
L 2419 4116 
z
M 2253 4666 
L 3047 4666 
L 3047 1625 
L 3713 1625 
L 3713 1100 
L 3047 1100 
L 3047 0 
L 2419 0 
L 2419 1100 
L 313 1100 
L 313 1709 
L 2253 4666 
z
" transform="scale(0.015625)"/>
       </defs>
       <use xlink:href="#DejaVuSans-34"/>
       <use xlink:href="#DejaVuSans-30" x="63.623047"/>
       <use xlink:href="#DejaVuSans-30" x="127.246094"/>
      </g>
     </g>
    </g>
    <g id="xtick_4">
     <g id="line2d_4">
      <g>
       <use xlink:href="#m9d1c6d1ed7" x="456.03608" y="308.63625" style="stroke: #000000; stroke-width: 0.8"/>
      </g>
     </g>
     <g id="text_4">
      <!-- 600 -->
      <g transform="translate(436.94858 330.833125) scale(0.2 -0.2)">
       <defs>
        <path id="DejaVuSans-36" d="M 2113 2584 
Q 1688 2584 1439 2293 
Q 1191 2003 1191 1497 
Q 1191 994 1439 701 
Q 1688 409 2113 409 
Q 2538 409 2786 701 
Q 3034 994 3034 1497 
Q 3034 2003 2786 2293 
Q 2538 2584 2113 2584 
z
M 3366 4563 
L 3366 3988 
Q 3128 4100 2886 4159 
Q 2644 4219 2406 4219 
Q 1781 4219 1451 3797 
Q 1122 3375 1075 2522 
Q 1259 2794 1537 2939 
Q 1816 3084 2150 3084 
Q 2853 3084 3261 2657 
Q 3669 2231 3669 1497 
Q 3669 778 3244 343 
Q 2819 -91 2113 -91 
Q 1303 -91 875 529 
Q 447 1150 447 2328 
Q 447 3434 972 4092 
Q 1497 4750 2381 4750 
Q 2619 4750 2861 4703 
Q 3103 4656 3366 4563 
z
" transform="scale(0.015625)"/>
       </defs>
       <use xlink:href="#DejaVuSans-36"/>
       <use xlink:href="#DejaVuSans-30" x="63.623047"/>
       <use xlink:href="#DejaVuSans-30" x="127.246094"/>
      </g>
     </g>
    </g>
    <g id="xtick_5">
     <g id="line2d_5">
      <g>
       <use xlink:href="#m9d1c6d1ed7" x="568.763352" y="308.63625" style="stroke: #000000; stroke-width: 0.8"/>
      </g>
     </g>
     <g id="text_5">
      <!-- 800 -->
      <g transform="translate(549.675852 330.833125) scale(0.2 -0.2)">
       <defs>
        <path id="DejaVuSans-38" d="M 2034 2216 
Q 1584 2216 1326 1975 
Q 1069 1734 1069 1313 
Q 1069 891 1326 650 
Q 1584 409 2034 409 
Q 2484 409 2743 651 
Q 3003 894 3003 1313 
Q 3003 1734 2745 1975 
Q 2488 2216 2034 2216 
z
M 1403 2484 
Q 997 2584 770 2862 
Q 544 3141 544 3541 
Q 544 4100 942 4425 
Q 1341 4750 2034 4750 
Q 2731 4750 3128 4425 
Q 3525 4100 3525 3541 
Q 3525 3141 3298 2862 
Q 3072 2584 2669 2484 
Q 3125 2378 3379 2068 
Q 3634 1759 3634 1313 
Q 3634 634 3220 271 
Q 2806 -91 2034 -91 
Q 1263 -91 848 271 
Q 434 634 434 1313 
Q 434 1759 690 2068 
Q 947 2378 1403 2484 
z
M 1172 3481 
Q 1172 3119 1398 2916 
Q 1625 2713 2034 2713 
Q 2441 2713 2670 2916 
Q 2900 3119 2900 3481 
Q 2900 3844 2670 4047 
Q 2441 4250 2034 4250 
Q 1625 4250 1398 4047 
Q 1172 3844 1172 3481 
z
" transform="scale(0.015625)"/>
       </defs>
       <use xlink:href="#DejaVuSans-38"/>
       <use xlink:href="#DejaVuSans-30" x="63.623047"/>
       <use xlink:href="#DejaVuSans-30" x="127.246094"/>
      </g>
     </g>
    </g>
    <g id="text_6">
     <!-- iterations -->
     <g transform="translate(324.035938 354.189375) scale(0.2 -0.2)">
      <defs>
       <path id="DejaVuSans-69" d="M 603 3500 
L 1178 3500 
L 1178 0 
L 603 0 
L 603 3500 
z
M 603 4863 
L 1178 4863 
L 1178 4134 
L 603 4134 
L 603 4863 
z
" transform="scale(0.015625)"/>
       <path id="DejaVuSans-74" d="M 1172 4494 
L 1172 3500 
L 2356 3500 
L 2356 3053 
L 1172 3053 
L 1172 1153 
Q 1172 725 1289 603 
Q 1406 481 1766 481 
L 2356 481 
L 2356 0 
L 1766 0 
Q 1100 0 847 248 
Q 594 497 594 1153 
L 594 3053 
L 172 3053 
L 172 3500 
L 594 3500 
L 594 4494 
L 1172 4494 
z
" transform="scale(0.015625)"/>
       <path id="DejaVuSans-65" d="M 3597 1894 
L 3597 1613 
L 953 1613 
Q 991 1019 1311 708 
Q 1631 397 2203 397 
Q 2534 397 2845 478 
Q 3156 559 3463 722 
L 3463 178 
Q 3153 47 2828 -22 
Q 2503 -91 2169 -91 
Q 1331 -91 842 396 
Q 353 884 353 1716 
Q 353 2575 817 3079 
Q 1281 3584 2069 3584 
Q 2775 3584 3186 3129 
Q 3597 2675 3597 1894 
z
M 3022 2063 
Q 3016 2534 2758 2815 
Q 2500 3097 2075 3097 
Q 1594 3097 1305 2825 
Q 1016 2553 972 2059 
L 3022 2063 
z
" transform="scale(0.015625)"/>
       <path id="DejaVuSans-72" d="M 2631 2963 
Q 2534 3019 2420 3045 
Q 2306 3072 2169 3072 
Q 1681 3072 1420 2755 
Q 1159 2438 1159 1844 
L 1159 0 
L 581 0 
L 581 3500 
L 1159 3500 
L 1159 2956 
Q 1341 3275 1631 3429 
Q 1922 3584 2338 3584 
Q 2397 3584 2469 3576 
Q 2541 3569 2628 3553 
L 2631 2963 
z
" transform="scale(0.015625)"/>
       <path id="DejaVuSans-61" d="M 2194 1759 
Q 1497 1759 1228 1600 
Q 959 1441 959 1056 
Q 959 750 1161 570 
Q 1363 391 1709 391 
Q 2188 391 2477 730 
Q 2766 1069 2766 1631 
L 2766 1759 
L 2194 1759 
z
M 3341 1997 
L 3341 0 
L 2766 0 
L 2766 531 
Q 2569 213 2275 61 
Q 1981 -91 1556 -91 
Q 1019 -91 701 211 
Q 384 513 384 1019 
Q 384 1609 779 1909 
Q 1175 2209 1959 2209 
L 2766 2209 
L 2766 2266 
Q 2766 2663 2505 2880 
Q 2244 3097 1772 3097 
Q 1472 3097 1187 3025 
Q 903 2953 641 2809 
L 641 3341 
Q 956 3463 1253 3523 
Q 1550 3584 1831 3584 
Q 2591 3584 2966 3190 
Q 3341 2797 3341 1997 
z
" transform="scale(0.015625)"/>
       <path id="DejaVuSans-6f" d="M 1959 3097 
Q 1497 3097 1228 2736 
Q 959 2375 959 1747 
Q 959 1119 1226 758 
Q 1494 397 1959 397 
Q 2419 397 2687 759 
Q 2956 1122 2956 1747 
Q 2956 2369 2687 2733 
Q 2419 3097 1959 3097 
z
M 1959 3584 
Q 2709 3584 3137 3096 
Q 3566 2609 3566 1747 
Q 3566 888 3137 398 
Q 2709 -91 1959 -91 
Q 1206 -91 779 398 
Q 353 888 353 1747 
Q 353 2609 779 3096 
Q 1206 3584 1959 3584 
z
" transform="scale(0.015625)"/>
       <path id="DejaVuSans-6e" d="M 3513 2113 
L 3513 0 
L 2938 0 
L 2938 2094 
Q 2938 2591 2744 2837 
Q 2550 3084 2163 3084 
Q 1697 3084 1428 2787 
Q 1159 2491 1159 1978 
L 1159 0 
L 581 0 
L 581 3500 
L 1159 3500 
L 1159 2956 
Q 1366 3272 1645 3428 
Q 1925 3584 2291 3584 
Q 2894 3584 3203 3211 
Q 3513 2838 3513 2113 
z
" transform="scale(0.015625)"/>
       <path id="DejaVuSans-73" d="M 2834 3397 
L 2834 2853 
Q 2591 2978 2328 3040 
Q 2066 3103 1784 3103 
Q 1356 3103 1142 2972 
Q 928 2841 928 2578 
Q 928 2378 1081 2264 
Q 1234 2150 1697 2047 
L 1894 2003 
Q 2506 1872 2764 1633 
Q 3022 1394 3022 966 
Q 3022 478 2636 193 
Q 2250 -91 1575 -91 
Q 1294 -91 989 -36 
Q 684 19 347 128 
L 347 722 
Q 666 556 975 473 
Q 1284 391 1588 391 
Q 1994 391 2212 530 
Q 2431 669 2431 922 
Q 2431 1156 2273 1281 
Q 2116 1406 1581 1522 
L 1381 1569 
Q 847 1681 609 1914 
Q 372 2147 372 2553 
Q 372 3047 722 3315 
Q 1072 3584 1716 3584 
Q 2034 3584 2315 3537 
Q 2597 3491 2834 3397 
z
" transform="scale(0.015625)"/>
      </defs>
      <use xlink:href="#DejaVuSans-69"/>
      <use xlink:href="#DejaVuSans-74" x="27.783203"/>
      <use xlink:href="#DejaVuSans-65" x="66.992188"/>
      <use xlink:href="#DejaVuSans-72" x="128.515625"/>
      <use xlink:href="#DejaVuSans-61" x="169.628906"/>
      <use xlink:href="#DejaVuSans-74" x="230.908203"/>
      <use xlink:href="#DejaVuSans-69" x="270.117188"/>
      <use xlink:href="#DejaVuSans-6f" x="297.900391"/>
      <use xlink:href="#DejaVuSans-6e" x="359.082031"/>
      <use xlink:href="#DejaVuSans-73" x="422.460938"/>
     </g>
    </g>
   </g>
   <g id="matplotlib.axis_2">
    <g id="ytick_1">
     <g id="line2d_6">
      <defs>
       <path id="m00d3135416" d="M 0 0 
L -3.5 0 
" style="stroke: #000000; stroke-width: 0.8"/>
      </defs>
      <g>
       <use xlink:href="#m00d3135416" x="92.490625" y="233.89928" style="stroke: #000000; stroke-width: 0.8"/>
      </g>
     </g>
     <g id="text_7">
      <!-- −200 -->
      <g transform="translate(30.55625 241.497718) scale(0.2 -0.2)">
       <defs>
        <path id="DejaVuSans-2212" d="M 678 2272 
L 4684 2272 
L 4684 1741 
L 678 1741 
L 678 2272 
z
" transform="scale(0.015625)"/>
       </defs>
       <use xlink:href="#DejaVuSans-2212"/>
       <use xlink:href="#DejaVuSans-32" x="83.789062"/>
       <use xlink:href="#DejaVuSans-30" x="147.412109"/>
       <use xlink:href="#DejaVuSans-30" x="211.035156"/>
      </g>
     </g>
    </g>
    <g id="ytick_2">
     <g id="line2d_7">
      <g>
       <use xlink:href="#m00d3135416" x="92.490625" y="156.400898" style="stroke: #000000; stroke-width: 0.8"/>
      </g>
     </g>
     <g id="text_8">
      <!-- 0 -->
      <g transform="translate(72.765625 163.999335) scale(0.2 -0.2)">
       <use xlink:href="#DejaVuSans-30"/>
      </g>
     </g>
    </g>
    <g id="ytick_3">
     <g id="line2d_8">
      <g>
       <use xlink:href="#m00d3135416" x="92.490625" y="78.902515" style="stroke: #000000; stroke-width: 0.8"/>
      </g>
     </g>
     <g id="text_9">
      <!-- 200 -->
      <g transform="translate(47.315625 86.500953) scale(0.2 -0.2)">
       <use xlink:href="#DejaVuSans-32"/>
       <use xlink:href="#DejaVuSans-30" x="63.623047"/>
       <use xlink:href="#DejaVuSans-30" x="127.246094"/>
      </g>
     </g>
    </g>
    <g id="text_10">
     <!-- Loss -->
     <g transform="translate(22.396875 191.970625) rotate(-90) scale(0.2 -0.2)">
      <defs>
       <path id="DejaVuSans-4c" d="M 628 4666 
L 1259 4666 
L 1259 531 
L 3531 531 
L 3531 0 
L 628 0 
L 628 4666 
z
" transform="scale(0.015625)"/>
      </defs>
      <use xlink:href="#DejaVuSans-4c"/>
      <use xlink:href="#DejaVuSans-6f" x="53.962891"/>
      <use xlink:href="#DejaVuSans-73" x="115.144531"/>
      <use xlink:href="#DejaVuSans-73" x="167.244141"/>
     </g>
    </g>
   </g>
   <g id="line2d_9">
    <path d="M 117.854261 136.140105 
L 118.417898 119.386488 
L 118.981534 97.658702 
L 120.108807 132.66545 
L 120.672443 131.50223 
L 121.23608 109.074995 
L 121.799716 70.056914 
L 122.363352 54.902085 
L 122.926989 57.926545 
L 123.490625 54.948943 
L 124.054261 45.679812 
L 124.617898 44.03625 
L 125.181534 46.554003 
L 125.74517 46.4645 
L 126.308807 61.12117 
L 126.872443 55.452144 
L 127.43608 47.371821 
L 127.999716 48.94424 
L 128.563352 60.27658 
L 129.126989 67.071176 
L 129.690625 67.466942 
L 130.254261 72.47849 
L 130.817898 69.342872 
L 132.508807 94.790736 
L 133.072443 91.969084 
L 133.63608 93.229692 
L 134.199716 92.7299 
L 134.763352 100.783666 
L 135.326989 98.377732 
L 135.890625 103.555557 
L 136.454261 102.926982 
L 137.017898 106.843558 
L 137.581534 103.849343 
L 138.14517 107.982067 
L 138.708807 104.046284 
L 139.272443 105.454914 
L 139.83608 106.159588 
L 140.399716 109.279874 
L 140.963352 108.658111 
L 141.526989 113.348977 
L 142.090625 112.802562 
L 142.654261 112.886724 
L 143.217898 114.323495 
L 143.781534 115.418994 
L 144.34517 117.192842 
L 144.908807 119.698511 
L 145.472443 121.529548 
L 146.03608 117.759482 
L 146.599716 121.031451 
L 147.163352 117.874613 
L 147.726989 123.929319 
L 148.290625 124.437846 
L 148.854261 125.098673 
L 149.417898 122.790211 
L 149.981534 126.681087 
L 150.54517 124.35353 
L 151.108807 124.598737 
L 151.672443 127.579039 
L 152.799716 125.949512 
L 153.363352 128.740085 
L 153.926989 127.119974 
L 154.490625 126.066819 
L 155.054261 124.500406 
L 155.617898 128.099512 
L 156.181534 127.64869 
L 156.74517 124.880741 
L 157.308807 126.072068 
L 157.872443 125.0338 
L 158.999716 128.291852 
L 159.563352 127.820071 
L 160.126989 128.384262 
L 160.690625 127.725314 
L 161.254261 130.487021 
L 161.817898 124.764492 
L 162.94517 131.03801 
L 163.508807 129.370054 
L 164.072443 128.507903 
L 164.63608 129.992741 
L 165.199716 127.025059 
L 165.763352 128.463137 
L 166.326989 132.280888 
L 166.890625 126.205151 
L 167.454261 127.786885 
L 168.017898 128.36622 
L 168.581534 130.870562 
L 169.14517 129.202161 
L 169.708807 130.454508 
L 170.272443 129.324651 
L 170.83608 131.486962 
L 171.399716 126.280908 
L 171.963352 129.134088 
L 172.526989 127.71524 
L 173.090625 127.933912 
L 173.654261 130.968429 
L 174.217898 131.451701 
L 174.781534 128.47423 
L 175.34517 131.651787 
L 175.908807 132.517027 
L 176.472443 132.328264 
L 177.03608 131.551236 
L 177.599716 127.719658 
L 178.163352 129.542392 
L 178.726989 129.013006 
L 179.290625 133.998128 
L 179.854261 132.652585 
L 180.417898 134.846951 
L 180.981534 134.467355 
L 181.54517 136.200018 
L 182.108807 135.546954 
L 182.672443 132.983733 
L 183.23608 132.881623 
L 183.799716 135.628088 
L 184.363352 134.707247 
L 184.926989 132.554932 
L 185.490625 134.507047 
L 186.054261 133.025755 
L 186.617898 139.875843 
L 187.181534 134.53711 
L 187.74517 138.060798 
L 188.308807 135.610679 
L 188.872443 134.071004 
L 189.43608 137.174334 
L 189.999716 138.894034 
L 190.563352 134.346656 
L 191.126989 133.628541 
L 191.690625 139.905496 
L 192.254261 139.351825 
L 192.817898 141.054145 
L 193.381534 140.309269 
L 193.94517 138.998649 
L 195.072443 139.653628 
L 195.63608 140.618431 
L 196.199716 137.012362 
L 196.763352 139.155162 
L 197.326989 138.342522 
L 197.890625 137.298371 
L 198.454261 136.511355 
L 199.017898 140.473876 
L 199.581534 136.474656 
L 200.14517 137.701627 
L 200.708807 137.834537 
L 201.272443 137.004483 
L 201.83608 137.949913 
L 202.399716 137.668135 
L 202.963352 141.592374 
L 203.526989 138.273643 
L 204.090625 140.58307 
L 204.654261 139.392533 
L 205.217898 137.903665 
L 205.781534 139.007768 
L 206.34517 138.482864 
L 206.908807 137.668388 
L 207.472443 137.640647 
L 208.03608 137.021624 
L 208.599716 136.006231 
L 209.163352 137.474276 
L 209.726989 137.944546 
L 210.290625 135.579974 
L 210.854261 135.523171 
L 211.417898 137.942839 
L 211.981534 138.274288 
L 212.54517 140.577836 
L 213.672443 137.334687 
L 214.23608 137.22565 
L 214.799716 138.422765 
L 215.363352 139.345492 
L 215.926989 140.935747 
L 216.490625 138.706081 
L 217.054261 138.031621 
L 217.617898 141.258663 
L 218.181534 139.099333 
L 218.74517 141.369672 
L 219.308807 137.77225 
L 219.872443 137.347757 
L 220.43608 140.418194 
L 220.999716 139.414461 
L 221.563352 138.878593 
L 222.690625 142.18506 
L 223.254261 141.024633 
L 223.817898 141.071503 
L 224.381534 143.735901 
L 224.94517 143.388929 
L 226.072443 142.271918 
L 226.63608 144.383795 
L 227.199716 145.16363 
L 227.763352 144.086809 
L 228.326989 143.883762 
L 228.890625 144.458331 
L 229.454261 144.067005 
L 230.017898 144.523268 
L 230.581534 144.575892 
L 231.14517 144.057221 
L 231.708807 145.96549 
L 232.83608 142.712513 
L 233.399716 143.651971 
L 234.526989 146.492216 
L 235.090625 144.780635 
L 235.654261 144.081637 
L 236.217898 144.851548 
L 236.781534 146.190345 
L 237.34517 144.657309 
L 237.908807 145.82573 
L 239.03608 143.079696 
L 239.599716 144.296385 
L 240.163352 144.961194 
L 240.726989 143.808949 
L 241.290625 143.997531 
L 241.854261 146.215528 
L 242.417898 144.776813 
L 242.981534 144.718914 
L 243.54517 147.279174 
L 244.108807 145.481445 
L 244.672443 144.759004 
L 245.23608 144.778459 
L 246.363352 147.19603 
L 246.926989 145.77178 
L 247.490625 146.071329 
L 248.054261 146.691365 
L 248.617898 146.571939 
L 249.181534 146.757617 
L 249.74517 146.584022 
L 250.308807 145.073014 
L 250.872443 146.164435 
L 251.43608 146.019355 
L 251.999716 143.897742 
L 252.563352 143.447988 
L 253.126989 143.242848 
L 253.690625 144.033963 
L 254.254261 145.291173 
L 254.817898 144.827294 
L 255.381534 145.635636 
L 255.94517 145.168239 
L 257.072443 145.380979 
L 257.63608 145.052218 
L 258.199716 146.595932 
L 258.763352 146.597405 
L 259.326989 146.024231 
L 259.890625 146.12066 
L 260.454261 145.644051 
L 261.017898 145.637259 
L 261.581534 145.064343 
L 262.14517 146.527707 
L 262.708807 146.054691 
L 263.272443 146.378687 
L 263.83608 147.244862 
L 264.399716 147.743065 
L 265.526989 145.699305 
L 266.090625 145.614191 
L 267.217898 146.032133 
L 267.781534 145.842341 
L 268.34517 145.851376 
L 268.908807 147.242077 
L 269.472443 146.43271 
L 270.599716 144.331136 
L 271.163352 145.156912 
L 271.726989 145.113214 
L 272.290625 146.046768 
L 272.854261 146.109475 
L 273.417898 146.358465 
L 273.981534 147.967362 
L 274.54517 145.834115 
L 275.108807 145.471832 
L 275.672443 145.909016 
L 276.23608 145.176336 
L 276.799716 145.312189 
L 277.363352 144.622425 
L 277.926989 146.161472 
L 278.490625 145.988952 
L 279.054261 145.609696 
L 279.617898 146.340256 
L 280.181534 145.255584 
L 280.74517 146.137073 
L 281.308807 145.934825 
L 282.43608 144.794355 
L 282.999716 145.822868 
L 283.563352 146.259016 
L 284.126989 145.545879 
L 284.690625 145.704226 
L 285.254261 143.833665 
L 285.817898 143.39312 
L 286.381534 143.983717 
L 286.94517 144.764031 
L 287.508807 141.471619 
L 288.072443 143.258355 
L 288.63608 142.1225 
L 289.199716 142.770739 
L 290.326989 140.613826 
L 290.890625 140.124447 
L 291.454261 139.984476 
L 292.017898 140.198564 
L 292.581534 139.866343 
L 293.14517 140.192398 
L 293.708807 139.209319 
L 294.272443 137.699922 
L 294.83608 138.211979 
L 295.399716 137.472748 
L 295.963352 135.659297 
L 296.526989 136.513748 
L 297.090625 136.846126 
L 297.654261 136.708991 
L 298.781534 136.991124 
L 299.34517 137.518005 
L 299.908807 137.284661 
L 300.472443 136.19745 
L 301.03608 135.462121 
L 301.599716 135.642996 
L 302.163352 135.398218 
L 302.726989 133.458761 
L 303.854261 134.309588 
L 304.981534 133.713049 
L 305.54517 133.073662 
L 306.108807 133.282183 
L 306.672443 134.055024 
L 307.23608 133.006076 
L 307.799716 133.292302 
L 308.363352 134.015364 
L 308.926989 133.691593 
L 309.490625 133.654318 
L 310.054261 134.463807 
L 310.617898 134.107787 
L 311.181534 134.925327 
L 311.74517 134.93708 
L 312.308807 134.225088 
L 312.872443 135.658831 
L 313.43608 135.124509 
L 313.999716 134.892409 
L 314.563352 136.184751 
L 315.126989 135.805301 
L 315.690625 136.403224 
L 316.254261 136.162705 
L 316.817898 137.044153 
L 317.381534 136.978352 
L 317.94517 137.257002 
L 319.63608 138.599311 
L 320.199716 138.164326 
L 320.763352 138.148874 
L 321.326989 138.875902 
L 321.890625 139.009496 
L 322.454261 138.996887 
L 323.017898 139.359301 
L 323.581534 140.196006 
L 324.14517 139.88815 
L 324.708807 139.446259 
L 325.272443 139.624629 
L 325.83608 139.175819 
L 326.399716 140.360832 
L 326.963352 140.507721 
L 327.526989 140.277501 
L 328.090625 140.344361 
L 328.654261 139.688527 
L 329.217898 139.764017 
L 329.781534 140.47098 
L 330.34517 140.823755 
L 330.908807 140.00849 
L 331.472443 140.867939 
L 332.599716 140.809753 
L 333.163352 141.309758 
L 334.290625 140.6429 
L 334.854261 141.04968 
L 335.417898 141.153351 
L 335.981534 140.423128 
L 336.54517 140.617213 
L 337.108807 140.614077 
L 337.672443 141.862909 
L 338.23608 141.540245 
L 338.799716 141.368711 
L 339.363352 141.72775 
L 339.926989 141.138194 
L 340.490625 141.33949 
L 341.617898 141.923022 
L 342.181534 141.878898 
L 342.74517 141.446056 
L 343.308807 142.348734 
L 343.872443 142.177576 
L 344.43608 142.347438 
L 344.999716 142.125741 
L 346.126989 142.400078 
L 346.690625 142.475297 
L 347.254261 142.970731 
L 347.817898 143.255098 
L 348.381534 142.866823 
L 348.94517 142.624791 
L 349.508807 142.940462 
L 350.072443 142.544034 
L 350.63608 142.637308 
L 351.199716 143.49133 
L 351.763352 143.441073 
L 352.326989 142.498801 
L 353.454261 143.267946 
L 354.017898 143.508972 
L 354.581534 144.054366 
L 355.14517 144.34474 
L 355.708807 144.041871 
L 356.272443 143.350409 
L 356.83608 143.766515 
L 357.399716 143.467922 
L 358.526989 144.488671 
L 359.090625 144.668617 
L 359.654261 144.67175 
L 360.217898 145.670451 
L 360.781534 145.760743 
L 361.34517 146.258358 
L 362.472443 147.847549 
L 363.03608 148.41856 
L 363.599716 148.68886 
L 364.163352 148.046676 
L 364.726989 148.448831 
L 365.290625 147.839463 
L 365.854261 148.048703 
L 366.417898 148.580042 
L 366.981534 148.47331 
L 367.54517 148.869761 
L 368.108807 148.968766 
L 369.799716 148.022524 
L 370.363352 148.76923 
L 370.926989 148.372024 
L 371.490625 148.493244 
L 372.054261 148.478269 
L 372.617898 148.748364 
L 374.308807 148.377159 
L 374.872443 148.893702 
L 375.999716 149.112677 
L 376.563352 148.8705 
L 377.126989 149.059157 
L 377.690625 148.448253 
L 378.254261 148.639738 
L 378.817898 148.443988 
L 379.381534 148.854225 
L 379.94517 148.831863 
L 380.508807 149.493462 
L 381.072443 149.32119 
L 381.63608 148.955499 
L 382.763352 149.348102 
L 383.326989 149.343716 
L 383.890625 149.914771 
L 384.454261 149.513644 
L 385.017898 149.769645 
L 386.14517 149.281482 
L 386.708807 149.528568 
L 387.272443 150.340114 
L 387.83608 149.765789 
L 388.399716 149.810813 
L 388.963352 150.424258 
L 389.526989 149.525793 
L 390.090625 149.916599 
L 391.217898 149.784206 
L 391.781534 149.297795 
L 392.908807 149.799474 
L 393.472443 150.375535 
L 394.03608 150.047529 
L 394.599716 150.061927 
L 395.163352 150.378216 
L 395.726989 149.992059 
L 396.290625 149.896424 
L 396.854261 150.321031 
L 397.417898 150.541045 
L 397.981534 150.338546 
L 398.54517 150.392109 
L 399.108807 150.798539 
L 399.672443 150.783767 
L 400.23608 150.475998 
L 400.799716 150.561397 
L 401.363352 150.76721 
L 401.926989 150.404802 
L 402.490625 150.591651 
L 403.054261 150.610028 
L 403.617898 150.43635 
L 404.181534 150.758872 
L 405.308807 150.626565 
L 405.872443 150.923386 
L 406.43608 151.43372 
L 406.999716 150.559952 
L 407.563352 150.812884 
L 408.126989 151.217041 
L 408.690625 151.339018 
L 409.254261 151.682673 
L 409.817898 151.686438 
L 410.381534 151.245356 
L 410.94517 151.340401 
L 411.508807 151.189276 
L 412.63608 151.459706 
L 413.199716 151.102673 
L 413.763352 151.462666 
L 414.326989 150.909301 
L 414.890625 151.435733 
L 415.454261 151.265245 
L 416.017898 151.238926 
L 416.581534 151.036157 
L 417.14517 151.155105 
L 417.708807 151.430886 
L 418.272443 151.182892 
L 419.399716 151.762198 
L 420.526989 151.339679 
L 421.090625 152.078093 
L 421.654261 151.541049 
L 422.217898 152.217249 
L 422.781534 151.720446 
L 423.908807 152.453899 
L 424.472443 152.47466 
L 425.03608 152.178387 
L 425.599716 152.557004 
L 426.163352 151.581745 
L 426.726989 151.90679 
L 427.290625 152.08738 
L 427.854261 151.927755 
L 428.417898 151.923196 
L 429.54517 152.252462 
L 430.108807 151.786521 
L 430.672443 151.652429 
L 431.23608 152.266472 
L 431.799716 151.899119 
L 432.363352 151.93214 
L 432.926989 151.812318 
L 433.490625 151.389304 
L 434.054261 151.815481 
L 434.617898 151.796132 
L 435.74517 152.379641 
L 436.308807 152.494751 
L 436.872443 152.357874 
L 437.43608 151.779789 
L 437.999716 151.870045 
L 438.563352 151.81871 
L 439.126989 152.20695 
L 439.690625 152.744623 
L 440.254261 152.027593 
L 441.381534 152.579643 
L 441.94517 151.995365 
L 442.508807 152.91781 
L 443.072443 152.035264 
L 443.63608 152.038265 
L 444.199716 152.223482 
L 444.763352 152.150448 
L 445.890625 152.494614 
L 446.454261 153.040017 
L 447.581534 152.224673 
L 448.14517 152.337672 
L 448.708807 152.756649 
L 449.272443 152.018976 
L 449.83608 152.465712 
L 450.399716 152.591943 
L 450.963352 152.545378 
L 451.526989 152.874846 
L 452.654261 153.082897 
L 453.217898 153.593069 
L 453.781534 153.244655 
L 454.34517 153.559309 
L 454.908807 153.291544 
L 455.472443 153.297665 
L 457.163352 153.69826 
L 457.726989 153.675887 
L 458.290625 154.340532 
L 458.854261 153.994852 
L 459.417898 154.429286 
L 459.981534 154.116396 
L 460.54517 154.144122 
L 461.672443 154.426372 
L 462.23608 154.494814 
L 462.799716 154.264573 
L 463.363352 154.362213 
L 463.926989 154.155068 
L 465.054261 154.004674 
L 465.617898 153.935798 
L 466.181534 154.459518 
L 466.74517 154.768638 
L 467.308807 154.579417 
L 467.872443 155.456125 
L 470.126989 155.400505 
L 470.690625 155.46561 
L 471.254261 155.063341 
L 471.817898 155.62921 
L 472.381534 155.636871 
L 473.508807 155.925934 
L 474.072443 155.242112 
L 474.63608 155.242005 
L 475.199716 155.431229 
L 475.763352 155.342126 
L 476.326989 155.675356 
L 476.890625 155.317863 
L 477.454261 155.312605 
L 478.017898 155.587132 
L 478.581534 155.539639 
L 479.14517 155.212933 
L 480.272443 155.795154 
L 482.526989 155.96858 
L 483.090625 155.538262 
L 484.217898 155.561329 
L 484.781534 155.127905 
L 485.34517 155.427119 
L 485.908807 154.904094 
L 486.472443 155.655727 
L 487.03608 155.442788 
L 487.599716 155.553067 
L 488.163352 155.221002 
L 488.726989 155.211599 
L 489.290625 155.376185 
L 489.854261 155.325448 
L 490.417898 155.754255 
L 490.981534 156.000229 
L 491.54517 155.642691 
L 492.108807 155.71339 
L 492.672443 155.55804 
L 493.23608 156.06054 
L 495.490625 155.963129 
L 496.054261 155.754411 
L 496.617898 155.876285 
L 497.74517 156.499908 
L 498.308807 156.33346 
L 499.43608 156.593919 
L 499.999716 156.8335 
L 500.563352 156.668702 
L 501.126989 156.794918 
L 501.690625 156.476798 
L 502.817898 156.337321 
L 503.381534 156.607915 
L 505.63608 156.199787 
L 506.199716 156.409511 
L 506.763352 156.418915 
L 507.890625 156.920316 
L 509.581534 156.500873 
L 510.14517 156.703038 
L 510.708807 156.705211 
L 511.272443 157.113282 
L 511.83608 156.699662 
L 512.963352 157.104351 
L 513.526989 157.024251 
L 514.090625 156.489976 
L 514.654261 156.827424 
L 515.781534 156.908301 
L 516.34517 156.981501 
L 516.908807 156.459182 
L 517.472443 156.947286 
L 518.03608 157.035849 
L 518.599716 156.907641 
L 519.163352 156.962777 
L 519.726989 156.661193 
L 520.290625 156.696036 
L 520.854261 156.53097 
L 521.417898 156.491423 
L 521.981534 156.746532 
L 522.54517 156.511599 
L 523.108807 157.237169 
L 523.672443 156.881704 
L 524.23608 157.134891 
L 524.799716 156.859105 
L 525.926989 157.091594 
L 527.617898 157.060549 
L 528.181534 156.659538 
L 528.74517 156.484064 
L 529.308807 157.089212 
L 529.872443 156.919912 
L 530.43608 157.220388 
L 530.999716 157.111321 
L 531.563352 156.887898 
L 532.126989 156.938472 
L 532.690625 156.524485 
L 533.254261 156.773895 
L 534.381534 156.595714 
L 534.94517 156.120883 
L 535.508807 156.279941 
L 536.072443 156.10918 
L 536.63608 156.802168 
L 537.199716 156.50623 
L 538.326989 156.570882 
L 539.454261 156.085815 
L 540.017898 156.558871 
L 541.14517 156.428751 
L 541.708807 156.743505 
L 542.272443 156.563803 
L 542.83608 156.865861 
L 543.399716 156.778252 
L 543.963352 156.87216 
L 545.654261 156.796657 
L 546.217898 156.349296 
L 546.781534 156.889186 
L 549.03608 156.72056 
L 549.599716 156.948533 
L 550.163352 156.867149 
L 551.290625 156.924917 
L 551.854261 157.307309 
L 552.417898 157.138188 
L 554.108807 157.020573 
L 554.672443 157.242116 
L 555.23608 156.89345 
L 555.799716 156.954108 
L 556.363352 156.868894 
L 556.926989 156.91237 
L 557.490625 157.117368 
L 558.054261 157.564812 
L 558.617898 157.002444 
L 560.308807 157.304028 
L 560.872443 157.064388 
L 561.43608 157.098418 
L 562.563352 157.402296 
L 563.126989 157.157317 
L 564.254261 157.305286 
L 564.817898 157.041411 
L 566.508807 157.02764 
L 567.072443 157.231152 
L 568.199716 157.13538 
L 568.763352 156.949878 
L 569.326989 157.166234 
L 569.890625 156.814488 
L 571.017898 156.947148 
L 572.708807 157.092111 
L 573.272443 157.169659 
L 573.83608 156.863023 
L 574.963352 156.897315 
L 575.526989 157.19827 
L 576.090625 157.229496 
L 576.654261 156.985169 
L 577.217898 156.864394 
L 577.781534 156.590116 
L 578.908807 157.064287 
L 579.472443 156.939517 
L 580.599716 157.183636 
L 581.163352 156.978618 
L 582.854261 157.215952 
L 583.417898 156.659101 
L 583.981534 157.073064 
L 585.672443 156.957331 
L 586.23608 157.355872 
L 587.363352 156.861785 
L 587.926989 157.05704 
L 588.490625 156.635702 
L 589.054261 156.752532 
L 589.617898 156.679933 
L 590.181534 156.857354 
L 590.74517 156.844268 
L 591.308807 157.049871 
L 592.43608 157.113893 
L 593.563352 156.859888 
L 594.126989 157.006028 
L 595.254261 156.903558 
L 595.817898 157.157826 
L 596.381534 157.005948 
L 596.94517 156.707447 
L 597.508807 156.7611 
L 598.072443 156.965757 
L 599.199716 156.879134 
L 599.763352 157.015963 
L 600.326989 156.933193 
L 600.890625 156.5966 
L 601.454261 156.938272 
L 602.017898 156.717809 
L 602.581534 156.619101 
L 603.14517 156.905403 
L 604.83608 156.840711 
L 605.399716 156.98429 
L 605.963352 156.784391 
L 606.526989 156.950945 
L 607.090625 156.845454 
L 607.654261 156.944772 
L 608.217898 156.738596 
L 608.781534 156.985249 
L 609.34517 156.798298 
L 611.599716 157.228802 
L 612.163352 157.085884 
L 612.726989 157.29452 
L 613.290625 157.358049 
L 614.417898 156.767647 
L 614.981534 157.276589 
L 615.54517 156.969462 
L 616.108807 157.357298 
L 616.672443 157.315657 
L 617.23608 156.992552 
L 617.799716 157.255557 
L 618.363352 157.107822 
L 618.926989 157.194068 
L 619.490625 156.964599 
L 620.617898 156.881277 
L 621.181534 156.857108 
L 621.74517 157.127138 
L 622.308807 156.814408 
L 623.999716 157.181291 
L 624.563352 157.127673 
L 625.126989 156.920315 
L 625.126989 156.920315 
" clip-path="url(#p5b76cbaca3)" style="fill: none; stroke: #1f77b4; stroke-width: 1.5; stroke-linecap: square"/>
   </g>
   <g id="line2d_10">
    <path d="M 117.854261 254.938135 
L 118.417898 296.03625 
L 119.54517 208.813361 
L 120.108807 187.276667 
L 120.672443 189.706367 
L 121.23608 199.947919 
L 121.799716 215.797721 
L 122.363352 206.249023 
L 122.926989 198.696802 
L 123.490625 195.653424 
L 124.617898 187.178186 
L 125.181534 184.771631 
L 125.74517 181.518091 
L 126.308807 172.836631 
L 126.872443 177.084168 
L 127.43608 176.002442 
L 127.999716 180.292152 
L 129.126989 176.06466 
L 129.690625 175.975991 
L 130.254261 174.803012 
L 130.817898 176.218112 
L 131.381534 174.095347 
L 131.94517 172.621992 
L 132.508807 174.243191 
L 133.072443 176.566693 
L 133.63608 173.999041 
L 134.199716 173.336092 
L 134.763352 171.437928 
L 135.326989 173.335198 
L 135.890625 172.257273 
L 136.454261 172.221129 
L 137.017898 171.317887 
L 137.581534 174.228225 
L 138.14517 174.212043 
L 138.708807 172.3616 
L 139.272443 174.62792 
L 140.399716 173.635043 
L 140.963352 172.33708 
L 141.526989 172.44086 
L 142.090625 171.153063 
L 142.654261 171.94099 
L 143.217898 171.945602 
L 143.781534 172.134762 
L 144.34517 171.688203 
L 144.908807 172.966357 
L 145.472443 172.10459 
L 146.03608 171.552824 
L 146.599716 172.491549 
L 147.163352 173.746198 
L 147.726989 171.707896 
L 148.854261 171.970886 
L 149.417898 170.970049 
L 150.54517 171.354679 
L 151.672443 173.167313 
L 152.799716 172.811369 
L 153.363352 171.409545 
L 154.490625 174.302414 
L 155.054261 172.613514 
L 155.617898 172.593085 
L 156.181534 171.222889 
L 156.74517 171.566571 
L 157.308807 172.197917 
L 158.43608 172.719121 
L 158.999716 172.528508 
L 159.563352 171.880279 
L 160.126989 171.604792 
L 160.690625 172.486302 
L 161.254261 172.588694 
L 161.817898 173.111377 
L 162.381534 171.824538 
L 162.94517 171.427537 
L 163.508807 172.134662 
L 164.072443 172.388463 
L 164.63608 172.99041 
L 165.763352 173.19691 
L 166.326989 172.615522 
L 166.890625 173.116519 
L 167.454261 174.450834 
L 168.017898 173.848685 
L 168.581534 173.067075 
L 169.14517 173.406221 
L 169.708807 172.090916 
L 170.272443 173.59965 
L 170.83608 173.205076 
L 171.963352 175.600819 
L 172.526989 175.336454 
L 173.090625 175.347132 
L 173.654261 172.839012 
L 174.217898 174.86629 
L 174.781534 172.849161 
L 175.34517 173.691814 
L 175.908807 174.198152 
L 176.472443 175.266 
L 177.03608 173.253777 
L 177.599716 175.196099 
L 178.163352 176.064354 
L 178.726989 174.710514 
L 179.290625 174.716729 
L 179.854261 174.534071 
L 180.417898 173.717343 
L 180.981534 174.202458 
L 181.54517 175.168232 
L 182.108807 173.329799 
L 182.672443 173.707572 
L 183.23608 175.512934 
L 183.799716 175.412587 
L 184.926989 174.236053 
L 185.490625 174.495109 
L 186.054261 174.457927 
L 186.617898 173.598044 
L 187.181534 173.556798 
L 187.74517 174.226957 
L 188.308807 172.842117 
L 188.872443 174.033998 
L 189.43608 171.82722 
L 189.999716 173.466877 
L 190.563352 171.590813 
L 191.126989 173.837477 
L 191.690625 174.196744 
L 192.817898 172.477713 
L 193.381534 174.105548 
L 193.94517 170.266629 
L 194.508807 170.28206 
L 195.072443 170.728368 
L 195.63608 172.379129 
L 196.199716 172.545078 
L 196.763352 173.10725 
L 197.326989 172.727759 
L 198.454261 171.206784 
L 199.017898 172.85732 
L 199.581534 169.132799 
L 200.14517 167.331023 
L 200.708807 169.746138 
L 201.272443 170.89915 
L 201.83608 171.197267 
L 202.399716 171.290808 
L 202.963352 170.065879 
L 203.526989 170.701915 
L 204.090625 169.38946 
L 204.654261 169.828205 
L 205.217898 167.50936 
L 205.781534 169.867771 
L 206.34517 170.174255 
L 206.908807 169.140012 
L 207.472443 169.54945 
L 208.03608 171.783569 
L 208.599716 168.517541 
L 209.163352 168.987571 
L 209.726989 168.750076 
L 210.854261 171.450895 
L 211.417898 171.729048 
L 211.981534 171.055364 
L 212.54517 168.730249 
L 213.108807 170.262241 
L 213.672443 171.317043 
L 214.23608 170.891562 
L 214.799716 168.43404 
L 215.363352 169.292704 
L 215.926989 169.887103 
L 216.490625 170.685864 
L 217.054261 167.229364 
L 217.617898 169.860336 
L 218.181534 170.315567 
L 218.74517 166.725035 
L 219.308807 168.727225 
L 219.872443 168.558664 
L 220.999716 169.35949 
L 221.563352 169.370134 
L 222.126989 169.961826 
L 222.690625 168.556259 
L 223.254261 170.718922 
L 223.817898 168.860858 
L 224.381534 170.40796 
L 224.94517 167.685218 
L 225.508807 168.199201 
L 226.63608 170.578275 
L 227.763352 169.629412 
L 228.890625 169.775695 
L 229.454261 170.735877 
L 230.017898 170.170243 
L 230.581534 170.533776 
L 231.14517 170.003519 
L 231.708807 170.422865 
L 232.272443 169.232927 
L 232.83608 168.608221 
L 233.399716 168.981682 
L 233.963352 169.866374 
L 234.526989 168.866532 
L 235.090625 170.029044 
L 235.654261 169.272354 
L 236.217898 170.493606 
L 236.781534 169.511944 
L 237.34517 169.666177 
L 237.908807 170.312552 
L 239.03608 170.441513 
L 239.599716 169.193993 
L 240.163352 170.700225 
L 240.726989 170.408394 
L 241.290625 170.390795 
L 241.854261 168.707613 
L 242.417898 168.567834 
L 242.981534 168.555006 
L 243.54517 169.782664 
L 244.108807 169.375414 
L 244.672443 170.828587 
L 245.23608 169.300857 
L 245.799716 169.55813 
L 246.363352 168.334885 
L 246.926989 167.962417 
L 248.054261 169.137734 
L 248.617898 169.272664 
L 249.181534 168.226628 
L 249.74517 169.71668 
L 250.872443 167.264729 
L 251.43608 168.508186 
L 251.999716 168.568905 
L 252.563352 169.47394 
L 253.126989 167.353207 
L 254.254261 169.12375 
L 254.817898 167.556371 
L 255.381534 167.498236 
L 255.94517 168.372565 
L 256.508807 166.057744 
L 257.072443 168.455916 
L 257.63608 169.283844 
L 258.763352 168.434012 
L 259.890625 169.942208 
L 260.454261 171.442653 
L 261.017898 170.744467 
L 261.581534 169.635116 
L 262.14517 169.531875 
L 262.708807 169.192391 
L 263.272443 171.219978 
L 263.83608 169.751376 
L 264.399716 168.883082 
L 264.963352 169.9975 
L 265.526989 170.620432 
L 266.090625 170.428596 
L 266.654261 169.78904 
L 267.217898 171.271427 
L 267.781534 170.455118 
L 268.908807 169.500853 
L 270.599716 171.378662 
L 271.163352 169.724076 
L 271.726989 169.908073 
L 272.290625 170.59831 
L 272.854261 168.845588 
L 273.981534 170.196902 
L 274.54517 170.477496 
L 275.108807 169.453045 
L 275.672443 170.539155 
L 276.23608 170.41447 
L 276.799716 170.541219 
L 277.363352 170.364321 
L 277.926989 169.476405 
L 279.054261 170.988097 
L 279.617898 170.720209 
L 280.181534 170.610929 
L 280.74517 170.250932 
L 281.308807 170.983601 
L 281.872443 171.334155 
L 282.43608 170.607384 
L 282.999716 171.594585 
L 283.563352 170.74801 
L 284.126989 171.102039 
L 284.690625 165.668203 
L 285.254261 157.260271 
L 285.817898 158.109435 
L 286.94517 158.065066 
L 287.508807 159.253093 
L 288.072443 157.933172 
L 288.63608 158.683074 
L 289.199716 159.216684 
L 289.763352 158.952384 
L 290.326989 159.774269 
L 290.890625 159.497486 
L 291.454261 159.514434 
L 292.017898 159.810076 
L 292.581534 159.243292 
L 293.14517 159.990796 
L 293.708807 159.520692 
L 294.272443 160.025602 
L 295.399716 159.908322 
L 295.963352 160.32958 
L 296.526989 160.154614 
L 297.090625 159.818638 
L 297.654261 159.734872 
L 298.217898 159.897215 
L 298.781534 159.637781 
L 299.34517 160.053261 
L 299.908807 159.948993 
L 300.472443 160.615295 
L 301.03608 159.828245 
L 301.599716 159.865906 
L 302.163352 159.767255 
L 302.726989 160.544821 
L 303.290625 159.858306 
L 303.854261 160.628665 
L 304.417898 160.316323 
L 304.981534 160.832474 
L 305.54517 160.978815 
L 306.108807 159.986471 
L 306.672443 159.913214 
L 307.23608 160.487713 
L 308.363352 160.706538 
L 308.926989 160.286802 
L 309.490625 160.026634 
L 310.054261 160.417298 
L 310.617898 160.304212 
L 311.181534 160.57298 
L 311.74517 160.25048 
L 312.308807 160.492115 
L 312.872443 160.432943 
L 313.43608 160.643788 
L 313.999716 160.544122 
L 314.563352 160.312588 
L 315.126989 160.211009 
L 315.690625 159.614008 
L 316.254261 160.273213 
L 317.381534 159.906737 
L 317.94517 160.47459 
L 318.508807 159.342558 
L 319.072443 159.780157 
L 319.63608 159.273843 
L 320.763352 159.899822 
L 321.326989 159.765321 
L 321.890625 159.897305 
L 322.454261 159.424204 
L 323.017898 159.791611 
L 323.581534 159.646656 
L 324.14517 159.29827 
L 324.708807 159.624578 
L 325.272443 159.152912 
L 325.83608 159.176085 
L 326.399716 159.064748 
L 326.963352 159.418686 
L 327.526989 159.253508 
L 328.090625 159.600608 
L 328.654261 159.800961 
L 329.217898 159.610222 
L 329.781534 159.767646 
L 330.34517 159.258101 
L 330.908807 159.465059 
L 331.472443 159.516275 
L 332.03608 159.389562 
L 333.726989 159.476896 
L 334.290625 159.130857 
L 335.417898 159.603505 
L 335.981534 158.947125 
L 336.54517 159.258055 
L 337.672443 159.591428 
L 338.23608 159.406045 
L 338.799716 159.503871 
L 339.363352 158.876726 
L 339.926989 159.627697 
L 340.490625 159.631467 
L 341.054261 159.09707 
L 341.617898 159.191761 
L 342.181534 159.851682 
L 342.74517 159.400114 
L 343.308807 159.600971 
L 343.872443 159.400481 
L 344.43608 159.734207 
L 344.999716 159.494294 
L 346.126989 159.609264 
L 347.817898 159.752787 
L 348.381534 159.198844 
L 348.94517 159.908282 
L 349.508807 159.466196 
L 350.072443 159.699557 
L 350.63608 159.645381 
L 351.199716 160.019621 
L 351.763352 159.595929 
L 354.581534 159.606665 
L 355.14517 159.94807 
L 355.708807 159.719841 
L 356.272443 159.649272 
L 356.83608 162.848622 
L 357.399716 158.196261 
L 357.963352 159.594087 
L 358.526989 159.816541 
L 359.090625 159.585803 
L 359.654261 159.791473 
L 360.217898 159.62025 
L 360.781534 159.814353 
L 361.34517 159.681243 
L 361.908807 159.994622 
L 362.472443 159.768833 
L 363.03608 159.373059 
L 364.726989 159.860811 
L 365.290625 159.527404 
L 365.854261 159.690969 
L 366.417898 159.504895 
L 366.981534 159.835262 
L 367.54517 159.449771 
L 368.108807 159.812848 
L 368.672443 159.550961 
L 369.23608 159.758294 
L 370.363352 159.550144 
L 371.490625 159.683732 
L 372.054261 159.744483 
L 373.181534 159.492884 
L 373.74517 159.886462 
L 374.308807 159.425712 
L 375.999716 159.597965 
L 377.126989 159.507324 
L 377.690625 159.820618 
L 378.254261 159.745091 
L 379.381534 159.926608 
L 379.94517 159.71463 
L 380.508807 160.015056 
L 381.072443 159.538858 
L 382.763352 160.086147 
L 383.326989 159.750671 
L 384.454261 159.785548 
L 385.017898 159.464118 
L 385.581534 159.979955 
L 386.14517 160.123462 
L 386.708807 159.783599 
L 387.83608 159.852492 
L 388.399716 159.76547 
L 388.963352 159.849602 
L 389.526989 160.331629 
L 390.090625 159.971812 
L 390.654261 159.825108 
L 391.217898 159.831308 
L 391.781534 160.129987 
L 392.34517 160.084658 
L 392.908807 160.428929 
L 393.472443 159.703395 
L 395.726989 159.86017 
L 396.290625 160.021164 
L 396.854261 159.838181 
L 397.417898 160.044828 
L 398.54517 159.802884 
L 399.108807 160.08104 
L 399.672443 159.821094 
L 400.23608 159.862872 
L 400.799716 159.664279 
L 401.363352 159.891898 
L 401.926989 159.991116 
L 402.490625 159.845669 
L 403.054261 159.564818 
L 403.617898 159.790168 
L 404.181534 159.71072 
L 404.74517 159.947068 
L 405.872443 159.906012 
L 406.43608 159.76006 
L 406.999716 159.991688 
L 407.563352 159.744492 
L 408.126989 159.622636 
L 408.690625 159.63479 
L 409.254261 160.404745 
L 409.817898 159.638482 
L 410.381534 159.88917 
L 410.94517 159.97846 
L 411.508807 159.696818 
L 412.072443 160.236157 
L 412.63608 160.100391 
L 413.199716 159.790208 
L 413.763352 160.004479 
L 414.326989 159.662231 
L 414.890625 159.830562 
L 415.454261 160.244886 
L 416.017898 160.341749 
L 416.581534 159.687567 
L 417.14517 159.846473 
L 417.708807 159.855453 
L 418.272443 159.645816 
L 418.83608 159.946496 
L 419.399716 159.753758 
L 419.963352 160.061147 
L 422.217898 159.708261 
L 422.781534 159.433518 
L 423.34517 159.782549 
L 423.908807 159.985576 
L 424.472443 159.963234 
L 425.03608 160.270411 
L 425.599716 159.757382 
L 427.290625 160.045401 
L 428.417898 159.52485 
L 429.54517 159.783737 
L 430.108807 160.015356 
L 430.672443 159.970082 
L 431.23608 159.466431 
L 432.363352 159.635054 
L 433.490625 159.885683 
L 434.054261 159.906866 
L 434.617898 159.816491 
L 435.181534 159.598509 
L 435.74517 159.9902 
L 436.308807 159.46575 
L 436.872443 159.562266 
L 437.43608 159.920128 
L 437.999716 159.713966 
L 438.563352 159.773368 
L 439.690625 159.604772 
L 440.817898 159.926805 
L 441.381534 159.652873 
L 443.072443 159.965805 
L 443.63608 159.683187 
L 444.199716 159.548664 
L 445.326989 159.707622 
L 445.890625 159.896745 
L 446.454261 159.945302 
L 447.017898 159.644816 
L 448.14517 159.736002 
L 448.708807 159.510788 
L 449.83608 159.811761 
L 451.526989 159.450157 
L 452.090625 159.792891 
L 453.781534 159.629241 
L 454.34517 159.587784 
L 454.908807 159.78791 
L 455.472443 159.697469 
L 457.163352 159.848373 
L 457.726989 159.419198 
L 458.854261 159.72341 
L 459.981534 159.395262 
L 460.54517 159.633672 
L 461.108807 159.68716 
L 461.672443 159.473452 
L 462.23608 159.770971 
L 462.799716 159.680967 
L 463.363352 159.826732 
L 463.926989 159.701002 
L 465.617898 159.706407 
L 466.181534 158.956341 
L 466.74517 159.210162 
L 467.308807 159.150131 
L 468.999716 159.326243 
L 469.563352 159.274705 
L 470.126989 159.101313 
L 470.690625 159.082649 
L 471.254261 159.538282 
L 471.817898 159.18276 
L 472.381534 159.372376 
L 473.508807 159.415286 
L 474.072443 159.405631 
L 475.199716 159.099731 
L 475.763352 159.168823 
L 476.326989 159.613607 
L 476.890625 159.548557 
L 477.454261 159.303915 
L 478.017898 159.197683 
L 480.83608 159.347542 
L 481.399716 159.231899 
L 482.526989 159.535565 
L 483.090625 159.212669 
L 483.654261 159.350605 
L 484.217898 159.010449 
L 484.781534 159.577426 
L 485.34517 159.346066 
L 486.472443 159.271282 
L 487.03608 159.582383 
L 487.599716 159.202346 
L 488.163352 159.384679 
L 488.726989 159.292158 
L 489.290625 159.356976 
L 489.854261 159.145893 
L 490.417898 159.101161 
L 490.981534 159.326422 
L 491.54517 159.329543 
L 492.108807 159.536034 
L 492.672443 159.403914 
L 494.363352 159.628812 
L 495.490625 159.206096 
L 496.054261 159.228473 
L 496.617898 159.556564 
L 497.74517 159.344892 
L 498.308807 159.371927 
L 498.872443 159.515831 
L 499.43608 159.412729 
L 500.563352 159.516309 
L 501.126989 159.291315 
L 502.254261 159.604475 
L 503.381534 159.478132 
L 503.94517 159.163141 
L 505.072443 159.43178 
L 505.63608 159.352497 
L 506.199716 159.655163 
L 506.763352 159.574333 
L 507.326989 159.285191 
L 507.890625 159.381459 
L 509.017898 159.324402 
L 509.581534 159.458589 
L 510.14517 159.088448 
L 512.399716 159.732886 
L 512.963352 159.821255 
L 513.526989 159.536899 
L 514.654261 159.350916 
L 516.34517 159.64263 
L 517.472443 159.167728 
L 518.599716 159.803997 
L 519.726989 159.420055 
L 520.290625 159.583008 
L 521.417898 159.307652 
L 521.981534 159.83824 
L 522.54517 159.50724 
L 523.108807 159.513531 
L 523.672443 159.750751 
L 524.799716 159.335591 
L 525.363352 159.395116 
L 525.926989 159.244557 
L 526.490625 159.54009 
L 527.054261 159.555156 
L 527.617898 159.443475 
L 528.181534 159.761959 
L 528.74517 159.439606 
L 530.43608 159.493523 
L 530.999716 159.5239 
L 531.563352 159.861896 
L 533.254261 159.462552 
L 536.072443 159.698796 
L 536.63608 159.472698 
L 537.199716 159.801056 
L 537.763352 159.782304 
L 538.326989 159.508473 
L 538.890625 159.517261 
L 539.454261 159.743753 
L 540.581534 159.692201 
L 542.272443 159.799585 
L 543.963352 159.69435 
L 544.526989 160.026117 
L 545.090625 159.533543 
L 545.654261 160.027189 
L 546.217898 159.729629 
L 546.781534 159.834519 
L 547.34517 159.761206 
L 547.908807 159.543284 
L 548.472443 159.661817 
L 549.03608 159.571411 
L 549.599716 159.959909 
L 550.163352 159.747461 
L 551.290625 159.724208 
L 551.854261 159.480784 
L 552.417898 159.593188 
L 552.981534 159.83157 
L 554.672443 159.585146 
L 555.23608 159.439153 
L 555.799716 159.819119 
L 556.926989 159.708435 
L 558.054261 159.662827 
L 558.617898 159.879633 
L 559.181534 159.687496 
L 559.74517 159.74539 
L 560.872443 159.553485 
L 561.43608 159.622187 
L 561.999716 159.415154 
L 562.563352 159.775125 
L 563.690625 159.7147 
L 564.254261 159.783111 
L 564.817898 159.538692 
L 565.94517 159.90848 
L 567.072443 159.477932 
L 567.63608 159.900248 
L 568.199716 159.471127 
L 569.326989 159.601649 
L 569.890625 159.62955 
L 570.454261 159.790189 
L 571.017898 159.513038 
L 571.581534 159.569492 
L 573.272443 159.289072 
L 573.83608 159.471976 
L 574.963352 159.374036 
L 575.526989 159.788639 
L 576.090625 159.147229 
L 576.654261 159.307542 
L 577.217898 159.742232 
L 577.781534 159.67504 
L 578.34517 159.410793 
L 578.908807 159.50115 
L 579.472443 159.385024 
L 580.03608 159.700471 
L 581.163352 159.697331 
L 581.726989 159.766796 
L 582.290625 159.496689 
L 582.854261 159.914742 
L 583.417898 159.448661 
L 584.54517 159.526298 
L 587.363352 160.034643 
L 587.926989 159.930973 
L 588.490625 159.549915 
L 589.054261 160.006157 
L 589.617898 159.85438 
L 590.181534 159.455156 
L 590.74517 159.668607 
L 591.308807 159.711955 
L 591.872443 159.543182 
L 592.43608 159.570787 
L 592.999716 159.952514 
L 594.126989 159.740781 
L 594.690625 160.024092 
L 595.254261 159.773599 
L 596.381534 159.608166 
L 596.94517 159.982724 
L 597.508807 159.745533 
L 598.072443 159.720903 
L 598.63608 159.866206 
L 599.199716 159.519399 
L 600.326989 159.60149 
L 600.890625 159.139675 
L 601.454261 159.711909 
L 602.581534 159.328031 
L 603.14517 159.430813 
L 603.708807 159.414399 
L 604.272443 159.823902 
L 604.83608 159.534425 
L 605.399716 159.454347 
L 605.963352 159.697668 
L 606.526989 159.526248 
L 607.654261 159.530927 
L 608.217898 159.714081 
L 608.781534 159.779882 
L 609.908807 159.492664 
L 610.472443 159.429365 
L 611.599716 159.531068 
L 613.854261 159.521309 
L 614.417898 159.282817 
L 614.981534 159.404112 
L 615.54517 159.25863 
L 616.108807 159.297662 
L 616.672443 159.739175 
L 617.23608 159.663931 
L 617.799716 159.352342 
L 618.363352 159.532874 
L 618.926989 159.571296 
L 619.490625 159.304234 
L 620.054261 159.5288 
L 620.617898 159.408174 
L 622.308807 159.446086 
L 622.872443 159.429242 
L 623.43608 159.583049 
L 623.999716 159.256764 
L 624.563352 159.178391 
L 625.126989 159.21655 
L 625.126989 159.21655 
" clip-path="url(#p5b76cbaca3)" style="fill: none; stroke: #ff7f0e; stroke-width: 1.5; stroke-linecap: square"/>
   </g>
   <g id="patch_3">
    <path d="M 92.490625 308.63625 
L 92.490625 31.43625 
" style="fill: none; stroke: #000000; stroke-width: 0.8; stroke-linejoin: miter; stroke-linecap: square"/>
   </g>
   <g id="patch_4">
    <path d="M 650.490625 308.63625 
L 650.490625 31.43625 
" style="fill: none; stroke: #000000; stroke-width: 0.8; stroke-linejoin: miter; stroke-linecap: square"/>
   </g>
   <g id="patch_5">
    <path d="M 92.490625 308.63625 
L 650.490625 308.63625 
" style="fill: none; stroke: #000000; stroke-width: 0.8; stroke-linejoin: miter; stroke-linecap: square"/>
   </g>
   <g id="patch_6">
    <path d="M 92.490625 31.43625 
L 650.490625 31.43625 
" style="fill: none; stroke: #000000; stroke-width: 0.8; stroke-linejoin: miter; stroke-linecap: square"/>
   </g>
   <g id="text_11">
    <!-- Generator and Discriminator Loss During Training -->
    <g transform="translate(74.258125 25.43625) scale(0.24 -0.24)">
     <defs>
      <path id="DejaVuSans-47" d="M 3809 666 
L 3809 1919 
L 2778 1919 
L 2778 2438 
L 4434 2438 
L 4434 434 
Q 4069 175 3628 42 
Q 3188 -91 2688 -91 
Q 1594 -91 976 548 
Q 359 1188 359 2328 
Q 359 3472 976 4111 
Q 1594 4750 2688 4750 
Q 3144 4750 3555 4637 
Q 3966 4525 4313 4306 
L 4313 3634 
Q 3963 3931 3569 4081 
Q 3175 4231 2741 4231 
Q 1884 4231 1454 3753 
Q 1025 3275 1025 2328 
Q 1025 1384 1454 906 
Q 1884 428 2741 428 
Q 3075 428 3337 486 
Q 3600 544 3809 666 
z
" transform="scale(0.015625)"/>
      <path id="DejaVuSans-20" transform="scale(0.015625)"/>
      <path id="DejaVuSans-64" d="M 2906 2969 
L 2906 4863 
L 3481 4863 
L 3481 0 
L 2906 0 
L 2906 525 
Q 2725 213 2448 61 
Q 2172 -91 1784 -91 
Q 1150 -91 751 415 
Q 353 922 353 1747 
Q 353 2572 751 3078 
Q 1150 3584 1784 3584 
Q 2172 3584 2448 3432 
Q 2725 3281 2906 2969 
z
M 947 1747 
Q 947 1113 1208 752 
Q 1469 391 1925 391 
Q 2381 391 2643 752 
Q 2906 1113 2906 1747 
Q 2906 2381 2643 2742 
Q 2381 3103 1925 3103 
Q 1469 3103 1208 2742 
Q 947 2381 947 1747 
z
" transform="scale(0.015625)"/>
      <path id="DejaVuSans-44" d="M 1259 4147 
L 1259 519 
L 2022 519 
Q 2988 519 3436 956 
Q 3884 1394 3884 2338 
Q 3884 3275 3436 3711 
Q 2988 4147 2022 4147 
L 1259 4147 
z
M 628 4666 
L 1925 4666 
Q 3281 4666 3915 4102 
Q 4550 3538 4550 2338 
Q 4550 1131 3912 565 
Q 3275 0 1925 0 
L 628 0 
L 628 4666 
z
" transform="scale(0.015625)"/>
      <path id="DejaVuSans-63" d="M 3122 3366 
L 3122 2828 
Q 2878 2963 2633 3030 
Q 2388 3097 2138 3097 
Q 1578 3097 1268 2742 
Q 959 2388 959 1747 
Q 959 1106 1268 751 
Q 1578 397 2138 397 
Q 2388 397 2633 464 
Q 2878 531 3122 666 
L 3122 134 
Q 2881 22 2623 -34 
Q 2366 -91 2075 -91 
Q 1284 -91 818 406 
Q 353 903 353 1747 
Q 353 2603 823 3093 
Q 1294 3584 2113 3584 
Q 2378 3584 2631 3529 
Q 2884 3475 3122 3366 
z
" transform="scale(0.015625)"/>
      <path id="DejaVuSans-6d" d="M 3328 2828 
Q 3544 3216 3844 3400 
Q 4144 3584 4550 3584 
Q 5097 3584 5394 3201 
Q 5691 2819 5691 2113 
L 5691 0 
L 5113 0 
L 5113 2094 
Q 5113 2597 4934 2840 
Q 4756 3084 4391 3084 
Q 3944 3084 3684 2787 
Q 3425 2491 3425 1978 
L 3425 0 
L 2847 0 
L 2847 2094 
Q 2847 2600 2669 2842 
Q 2491 3084 2119 3084 
Q 1678 3084 1418 2786 
Q 1159 2488 1159 1978 
L 1159 0 
L 581 0 
L 581 3500 
L 1159 3500 
L 1159 2956 
Q 1356 3278 1631 3431 
Q 1906 3584 2284 3584 
Q 2666 3584 2933 3390 
Q 3200 3197 3328 2828 
z
" transform="scale(0.015625)"/>
      <path id="DejaVuSans-75" d="M 544 1381 
L 544 3500 
L 1119 3500 
L 1119 1403 
Q 1119 906 1312 657 
Q 1506 409 1894 409 
Q 2359 409 2629 706 
Q 2900 1003 2900 1516 
L 2900 3500 
L 3475 3500 
L 3475 0 
L 2900 0 
L 2900 538 
Q 2691 219 2414 64 
Q 2138 -91 1772 -91 
Q 1169 -91 856 284 
Q 544 659 544 1381 
z
M 1991 3584 
L 1991 3584 
z
" transform="scale(0.015625)"/>
      <path id="DejaVuSans-67" d="M 2906 1791 
Q 2906 2416 2648 2759 
Q 2391 3103 1925 3103 
Q 1463 3103 1205 2759 
Q 947 2416 947 1791 
Q 947 1169 1205 825 
Q 1463 481 1925 481 
Q 2391 481 2648 825 
Q 2906 1169 2906 1791 
z
M 3481 434 
Q 3481 -459 3084 -895 
Q 2688 -1331 1869 -1331 
Q 1566 -1331 1297 -1286 
Q 1028 -1241 775 -1147 
L 775 -588 
Q 1028 -725 1275 -790 
Q 1522 -856 1778 -856 
Q 2344 -856 2625 -561 
Q 2906 -266 2906 331 
L 2906 616 
Q 2728 306 2450 153 
Q 2172 0 1784 0 
Q 1141 0 747 490 
Q 353 981 353 1791 
Q 353 2603 747 3093 
Q 1141 3584 1784 3584 
Q 2172 3584 2450 3431 
Q 2728 3278 2906 2969 
L 2906 3500 
L 3481 3500 
L 3481 434 
z
" transform="scale(0.015625)"/>
      <path id="DejaVuSans-54" d="M -19 4666 
L 3928 4666 
L 3928 4134 
L 2272 4134 
L 2272 0 
L 1638 0 
L 1638 4134 
L -19 4134 
L -19 4666 
z
" transform="scale(0.015625)"/>
     </defs>
     <use xlink:href="#DejaVuSans-47"/>
     <use xlink:href="#DejaVuSans-65" x="77.490234"/>
     <use xlink:href="#DejaVuSans-6e" x="139.013672"/>
     <use xlink:href="#DejaVuSans-65" x="202.392578"/>
     <use xlink:href="#DejaVuSans-72" x="263.916016"/>
     <use xlink:href="#DejaVuSans-61" x="305.029297"/>
     <use xlink:href="#DejaVuSans-74" x="366.308594"/>
     <use xlink:href="#DejaVuSans-6f" x="405.517578"/>
     <use xlink:href="#DejaVuSans-72" x="466.699219"/>
     <use xlink:href="#DejaVuSans-20" x="507.8125"/>
     <use xlink:href="#DejaVuSans-61" x="539.599609"/>
     <use xlink:href="#DejaVuSans-6e" x="600.878906"/>
     <use xlink:href="#DejaVuSans-64" x="664.257812"/>
     <use xlink:href="#DejaVuSans-20" x="727.734375"/>
     <use xlink:href="#DejaVuSans-44" x="759.521484"/>
     <use xlink:href="#DejaVuSans-69" x="836.523438"/>
     <use xlink:href="#DejaVuSans-73" x="864.306641"/>
     <use xlink:href="#DejaVuSans-63" x="916.40625"/>
     <use xlink:href="#DejaVuSans-72" x="971.386719"/>
     <use xlink:href="#DejaVuSans-69" x="1012.5"/>
     <use xlink:href="#DejaVuSans-6d" x="1040.283203"/>
     <use xlink:href="#DejaVuSans-69" x="1137.695312"/>
     <use xlink:href="#DejaVuSans-6e" x="1165.478516"/>
     <use xlink:href="#DejaVuSans-61" x="1228.857422"/>
     <use xlink:href="#DejaVuSans-74" x="1290.136719"/>
     <use xlink:href="#DejaVuSans-6f" x="1329.345703"/>
     <use xlink:href="#DejaVuSans-72" x="1390.527344"/>
     <use xlink:href="#DejaVuSans-20" x="1431.640625"/>
     <use xlink:href="#DejaVuSans-4c" x="1463.427734"/>
     <use xlink:href="#DejaVuSans-6f" x="1517.390625"/>
     <use xlink:href="#DejaVuSans-73" x="1578.572266"/>
     <use xlink:href="#DejaVuSans-73" x="1630.671875"/>
     <use xlink:href="#DejaVuSans-20" x="1682.771484"/>
     <use xlink:href="#DejaVuSans-44" x="1714.558594"/>
     <use xlink:href="#DejaVuSans-75" x="1791.560547"/>
     <use xlink:href="#DejaVuSans-72" x="1854.939453"/>
     <use xlink:href="#DejaVuSans-69" x="1896.052734"/>
     <use xlink:href="#DejaVuSans-6e" x="1923.835938"/>
     <use xlink:href="#DejaVuSans-67" x="1987.214844"/>
     <use xlink:href="#DejaVuSans-20" x="2050.691406"/>
     <use xlink:href="#DejaVuSans-54" x="2082.478516"/>
     <use xlink:href="#DejaVuSans-72" x="2128.8125"/>
     <use xlink:href="#DejaVuSans-61" x="2169.925781"/>
     <use xlink:href="#DejaVuSans-69" x="2231.205078"/>
     <use xlink:href="#DejaVuSans-6e" x="2258.988281"/>
     <use xlink:href="#DejaVuSans-69" x="2322.367188"/>
     <use xlink:href="#DejaVuSans-6e" x="2350.150391"/>
     <use xlink:href="#DejaVuSans-67" x="2413.529297"/>
    </g>
   </g>
   <g id="legend_1">
    <g id="patch_7">
     <path d="M 556.99375 106.14875 
L 636.490625 106.14875 
Q 640.490625 106.14875 640.490625 102.14875 
L 640.490625 45.43625 
Q 640.490625 41.43625 636.490625 41.43625 
L 556.99375 41.43625 
Q 552.99375 41.43625 552.99375 45.43625 
L 552.99375 102.14875 
Q 552.99375 106.14875 556.99375 106.14875 
z
" style="fill: #ffffff; opacity: 0.8; stroke: #cccccc; stroke-linejoin: miter"/>
    </g>
    <g id="line2d_11">
     <path d="M 560.99375 57.633125 
L 580.99375 57.633125 
L 600.99375 57.633125 
" style="fill: none; stroke: #1f77b4; stroke-width: 1.5; stroke-linecap: square"/>
    </g>
    <g id="text_12">
     <!-- G -->
     <g transform="translate(616.99375 64.633125) scale(0.2 -0.2)">
      <use xlink:href="#DejaVuSans-47"/>
     </g>
    </g>
    <g id="line2d_12">
     <path d="M 560.99375 86.989375 
L 580.99375 86.989375 
L 600.99375 86.989375 
" style="fill: none; stroke: #ff7f0e; stroke-width: 1.5; stroke-linecap: square"/>
    </g>
    <g id="text_13">
     <!-- D -->
     <g transform="translate(616.99375 93.989375) scale(0.2 -0.2)">
      <use xlink:href="#DejaVuSans-44"/>
     </g>
    </g>
   </g>
  </g>
 </g>
 <defs>
  <clipPath id="p5b76cbaca3">
   <rect x="92.490625" y="31.43625" width="558" height="277.2"/>
  </clipPath>
 </defs>
</svg>
