<?xml version="1.0" encoding="utf-8" standalone="no"?>
<!DOCTYPE svg PUBLIC "-//W3C//DTD SVG 1.1//EN"
  "http://www.w3.org/Graphics/SVG/1.1/DTD/svg11.dtd">
<svg xmlns:xlink="http://www.w3.org/1999/xlink" width="675.923125pt" height="365.54875pt" viewBox="0 0 675.923125 365.54875" xmlns="http://www.w3.org/2000/svg" version="1.1">
 <metadata>
  <rdf:RDF xmlns:dc="http://purl.org/dc/elements/1.1/" xmlns:cc="http://creativecommons.org/ns#" xmlns:rdf="http://www.w3.org/1999/02/22-rdf-syntax-ns#">
   <cc:Work>
    <dc:type rdf:resource="http://purl.org/dc/dcmitype/StillImage"/>
    <dc:date>2024-02-01T07:01:45.268468</dc:date>
    <dc:format>image/svg+xml</dc:format>
    <dc:creator>
     <cc:Agent>
      <dc:title>Matplotlib v3.7.2, https://matplotlib.org/</dc:title>
     </cc:Agent>
    </dc:creator>
   </cc:Work>
  </rdf:RDF>
 </metadata>
 <defs>
  <style type="text/css">*{stroke-linejoin: round; stroke-linecap: butt}</style>
 </defs>
 <g id="figure_1">
  <g id="patch_1">
   <path d="M 0 365.54875 
L 675.923125 365.54875 
L 675.923125 -0 
L 0 -0 
z
" style="fill: #ffffff"/>
  </g>
  <g id="axes_1">
   <g id="patch_2">
    <path d="M 92.490625 308.63625 
L 650.490625 308.63625 
L 650.490625 31.43625 
L 92.490625 31.43625 
z
" style="fill: #ffffff"/>
   </g>
   <g id="matplotlib.axis_1">
    <g id="xtick_1">
     <g id="line2d_1">
      <defs>
       <path id="m89eb131f6d" d="M 0 0 
L 0 3.5 
" style="stroke: #000000; stroke-width: 0.8"/>
      </defs>
      <g>
       <use xlink:href="#m89eb131f6d" x="117.854261" y="308.63625" style="stroke: #000000; stroke-width: 0.8"/>
      </g>
     </g>
     <g id="text_1">
      <!-- 0 -->
      <g transform="translate(111.491761 330.833125) scale(0.2 -0.2)">
       <defs>
        <path id="DejaVuSans-30" d="M 2034 4250 
Q 1547 4250 1301 3770 
Q 1056 3291 1056 2328 
Q 1056 1369 1301 889 
Q 1547 409 2034 409 
Q 2525 409 2770 889 
Q 3016 1369 3016 2328 
Q 3016 3291 2770 3770 
Q 2525 4250 2034 4250 
z
M 2034 4750 
Q 2819 4750 3233 4129 
Q 3647 3509 3647 2328 
Q 3647 1150 3233 529 
Q 2819 -91 2034 -91 
Q 1250 -91 836 529 
Q 422 1150 422 2328 
Q 422 3509 836 4129 
Q 1250 4750 2034 4750 
z
" transform="scale(0.015625)"/>
       </defs>
       <use xlink:href="#DejaVuSans-30"/>
      </g>
     </g>
    </g>
    <g id="xtick_2">
     <g id="line2d_2">
      <g>
       <use xlink:href="#m89eb131f6d" x="214.477638" y="308.63625" style="stroke: #000000; stroke-width: 0.8"/>
      </g>
     </g>
     <g id="text_2">
      <!-- 200 -->
      <g transform="translate(195.390138 330.833125) scale(0.2 -0.2)">
       <defs>
        <path id="DejaVuSans-32" d="M 1228 531 
L 3431 531 
L 3431 0 
L 469 0 
L 469 531 
Q 828 903 1448 1529 
Q 2069 2156 2228 2338 
Q 2531 2678 2651 2914 
Q 2772 3150 2772 3378 
Q 2772 3750 2511 3984 
Q 2250 4219 1831 4219 
Q 1534 4219 1204 4116 
Q 875 4013 500 3803 
L 500 4441 
Q 881 4594 1212 4672 
Q 1544 4750 1819 4750 
Q 2544 4750 2975 4387 
Q 3406 4025 3406 3419 
Q 3406 3131 3298 2873 
Q 3191 2616 2906 2266 
Q 2828 2175 2409 1742 
Q 1991 1309 1228 531 
z
" transform="scale(0.015625)"/>
       </defs>
       <use xlink:href="#DejaVuSans-32"/>
       <use xlink:href="#DejaVuSans-30" x="63.623047"/>
       <use xlink:href="#DejaVuSans-30" x="127.246094"/>
      </g>
     </g>
    </g>
    <g id="xtick_3">
     <g id="line2d_3">
      <g>
       <use xlink:href="#m89eb131f6d" x="311.101015" y="308.63625" style="stroke: #000000; stroke-width: 0.8"/>
      </g>
     </g>
     <g id="text_3">
      <!-- 400 -->
      <g transform="translate(292.013515 330.833125) scale(0.2 -0.2)">
       <defs>
        <path id="DejaVuSans-34" d="M 2419 4116 
L 825 1625 
L 2419 1625 
L 2419 4116 
z
M 2253 4666 
L 3047 4666 
L 3047 1625 
L 3713 1625 
L 3713 1100 
L 3047 1100 
L 3047 0 
L 2419 0 
L 2419 1100 
L 313 1100 
L 313 1709 
L 2253 4666 
z
" transform="scale(0.015625)"/>
       </defs>
       <use xlink:href="#DejaVuSans-34"/>
       <use xlink:href="#DejaVuSans-30" x="63.623047"/>
       <use xlink:href="#DejaVuSans-30" x="127.246094"/>
      </g>
     </g>
    </g>
    <g id="xtick_4">
     <g id="line2d_4">
      <g>
       <use xlink:href="#m89eb131f6d" x="407.724391" y="308.63625" style="stroke: #000000; stroke-width: 0.8"/>
      </g>
     </g>
     <g id="text_4">
      <!-- 600 -->
      <g transform="translate(388.636891 330.833125) scale(0.2 -0.2)">
       <defs>
        <path id="DejaVuSans-36" d="M 2113 2584 
Q 1688 2584 1439 2293 
Q 1191 2003 1191 1497 
Q 1191 994 1439 701 
Q 1688 409 2113 409 
Q 2538 409 2786 701 
Q 3034 994 3034 1497 
Q 3034 2003 2786 2293 
Q 2538 2584 2113 2584 
z
M 3366 4563 
L 3366 3988 
Q 3128 4100 2886 4159 
Q 2644 4219 2406 4219 
Q 1781 4219 1451 3797 
Q 1122 3375 1075 2522 
Q 1259 2794 1537 2939 
Q 1816 3084 2150 3084 
Q 2853 3084 3261 2657 
Q 3669 2231 3669 1497 
Q 3669 778 3244 343 
Q 2819 -91 2113 -91 
Q 1303 -91 875 529 
Q 447 1150 447 2328 
Q 447 3434 972 4092 
Q 1497 4750 2381 4750 
Q 2619 4750 2861 4703 
Q 3103 4656 3366 4563 
z
" transform="scale(0.015625)"/>
       </defs>
       <use xlink:href="#DejaVuSans-36"/>
       <use xlink:href="#DejaVuSans-30" x="63.623047"/>
       <use xlink:href="#DejaVuSans-30" x="127.246094"/>
      </g>
     </g>
    </g>
    <g id="xtick_5">
     <g id="line2d_5">
      <g>
       <use xlink:href="#m89eb131f6d" x="504.347768" y="308.63625" style="stroke: #000000; stroke-width: 0.8"/>
      </g>
     </g>
     <g id="text_5">
      <!-- 800 -->
      <g transform="translate(485.260268 330.833125) scale(0.2 -0.2)">
       <defs>
        <path id="DejaVuSans-38" d="M 2034 2216 
Q 1584 2216 1326 1975 
Q 1069 1734 1069 1313 
Q 1069 891 1326 650 
Q 1584 409 2034 409 
Q 2484 409 2743 651 
Q 3003 894 3003 1313 
Q 3003 1734 2745 1975 
Q 2488 2216 2034 2216 
z
M 1403 2484 
Q 997 2584 770 2862 
Q 544 3141 544 3541 
Q 544 4100 942 4425 
Q 1341 4750 2034 4750 
Q 2731 4750 3128 4425 
Q 3525 4100 3525 3541 
Q 3525 3141 3298 2862 
Q 3072 2584 2669 2484 
Q 3125 2378 3379 2068 
Q 3634 1759 3634 1313 
Q 3634 634 3220 271 
Q 2806 -91 2034 -91 
Q 1263 -91 848 271 
Q 434 634 434 1313 
Q 434 1759 690 2068 
Q 947 2378 1403 2484 
z
M 1172 3481 
Q 1172 3119 1398 2916 
Q 1625 2713 2034 2713 
Q 2441 2713 2670 2916 
Q 2900 3119 2900 3481 
Q 2900 3844 2670 4047 
Q 2441 4250 2034 4250 
Q 1625 4250 1398 4047 
Q 1172 3844 1172 3481 
z
" transform="scale(0.015625)"/>
       </defs>
       <use xlink:href="#DejaVuSans-38"/>
       <use xlink:href="#DejaVuSans-30" x="63.623047"/>
       <use xlink:href="#DejaVuSans-30" x="127.246094"/>
      </g>
     </g>
    </g>
    <g id="xtick_6">
     <g id="line2d_6">
      <g>
       <use xlink:href="#m89eb131f6d" x="600.971144" y="308.63625" style="stroke: #000000; stroke-width: 0.8"/>
      </g>
     </g>
     <g id="text_6">
      <!-- 1000 -->
      <g transform="translate(575.521144 330.833125) scale(0.2 -0.2)">
       <defs>
        <path id="DejaVuSans-31" d="M 794 531 
L 1825 531 
L 1825 4091 
L 703 3866 
L 703 4441 
L 1819 4666 
L 2450 4666 
L 2450 531 
L 3481 531 
L 3481 0 
L 794 0 
L 794 531 
z
" transform="scale(0.015625)"/>
       </defs>
       <use xlink:href="#DejaVuSans-31"/>
       <use xlink:href="#DejaVuSans-30" x="63.623047"/>
       <use xlink:href="#DejaVuSans-30" x="127.246094"/>
       <use xlink:href="#DejaVuSans-30" x="190.869141"/>
      </g>
     </g>
    </g>
    <g id="text_7">
     <!-- iterations -->
     <g transform="translate(324.035938 354.189375) scale(0.2 -0.2)">
      <defs>
       <path id="DejaVuSans-69" d="M 603 3500 
L 1178 3500 
L 1178 0 
L 603 0 
L 603 3500 
z
M 603 4863 
L 1178 4863 
L 1178 4134 
L 603 4134 
L 603 4863 
z
" transform="scale(0.015625)"/>
       <path id="DejaVuSans-74" d="M 1172 4494 
L 1172 3500 
L 2356 3500 
L 2356 3053 
L 1172 3053 
L 1172 1153 
Q 1172 725 1289 603 
Q 1406 481 1766 481 
L 2356 481 
L 2356 0 
L 1766 0 
Q 1100 0 847 248 
Q 594 497 594 1153 
L 594 3053 
L 172 3053 
L 172 3500 
L 594 3500 
L 594 4494 
L 1172 4494 
z
" transform="scale(0.015625)"/>
       <path id="DejaVuSans-65" d="M 3597 1894 
L 3597 1613 
L 953 1613 
Q 991 1019 1311 708 
Q 1631 397 2203 397 
Q 2534 397 2845 478 
Q 3156 559 3463 722 
L 3463 178 
Q 3153 47 2828 -22 
Q 2503 -91 2169 -91 
Q 1331 -91 842 396 
Q 353 884 353 1716 
Q 353 2575 817 3079 
Q 1281 3584 2069 3584 
Q 2775 3584 3186 3129 
Q 3597 2675 3597 1894 
z
M 3022 2063 
Q 3016 2534 2758 2815 
Q 2500 3097 2075 3097 
Q 1594 3097 1305 2825 
Q 1016 2553 972 2059 
L 3022 2063 
z
" transform="scale(0.015625)"/>
       <path id="DejaVuSans-72" d="M 2631 2963 
Q 2534 3019 2420 3045 
Q 2306 3072 2169 3072 
Q 1681 3072 1420 2755 
Q 1159 2438 1159 1844 
L 1159 0 
L 581 0 
L 581 3500 
L 1159 3500 
L 1159 2956 
Q 1341 3275 1631 3429 
Q 1922 3584 2338 3584 
Q 2397 3584 2469 3576 
Q 2541 3569 2628 3553 
L 2631 2963 
z
" transform="scale(0.015625)"/>
       <path id="DejaVuSans-61" d="M 2194 1759 
Q 1497 1759 1228 1600 
Q 959 1441 959 1056 
Q 959 750 1161 570 
Q 1363 391 1709 391 
Q 2188 391 2477 730 
Q 2766 1069 2766 1631 
L 2766 1759 
L 2194 1759 
z
M 3341 1997 
L 3341 0 
L 2766 0 
L 2766 531 
Q 2569 213 2275 61 
Q 1981 -91 1556 -91 
Q 1019 -91 701 211 
Q 384 513 384 1019 
Q 384 1609 779 1909 
Q 1175 2209 1959 2209 
L 2766 2209 
L 2766 2266 
Q 2766 2663 2505 2880 
Q 2244 3097 1772 3097 
Q 1472 3097 1187 3025 
Q 903 2953 641 2809 
L 641 3341 
Q 956 3463 1253 3523 
Q 1550 3584 1831 3584 
Q 2591 3584 2966 3190 
Q 3341 2797 3341 1997 
z
" transform="scale(0.015625)"/>
       <path id="DejaVuSans-6f" d="M 1959 3097 
Q 1497 3097 1228 2736 
Q 959 2375 959 1747 
Q 959 1119 1226 758 
Q 1494 397 1959 397 
Q 2419 397 2687 759 
Q 2956 1122 2956 1747 
Q 2956 2369 2687 2733 
Q 2419 3097 1959 3097 
z
M 1959 3584 
Q 2709 3584 3137 3096 
Q 3566 2609 3566 1747 
Q 3566 888 3137 398 
Q 2709 -91 1959 -91 
Q 1206 -91 779 398 
Q 353 888 353 1747 
Q 353 2609 779 3096 
Q 1206 3584 1959 3584 
z
" transform="scale(0.015625)"/>
       <path id="DejaVuSans-6e" d="M 3513 2113 
L 3513 0 
L 2938 0 
L 2938 2094 
Q 2938 2591 2744 2837 
Q 2550 3084 2163 3084 
Q 1697 3084 1428 2787 
Q 1159 2491 1159 1978 
L 1159 0 
L 581 0 
L 581 3500 
L 1159 3500 
L 1159 2956 
Q 1366 3272 1645 3428 
Q 1925 3584 2291 3584 
Q 2894 3584 3203 3211 
Q 3513 2838 3513 2113 
z
" transform="scale(0.015625)"/>
       <path id="DejaVuSans-73" d="M 2834 3397 
L 2834 2853 
Q 2591 2978 2328 3040 
Q 2066 3103 1784 3103 
Q 1356 3103 1142 2972 
Q 928 2841 928 2578 
Q 928 2378 1081 2264 
Q 1234 2150 1697 2047 
L 1894 2003 
Q 2506 1872 2764 1633 
Q 3022 1394 3022 966 
Q 3022 478 2636 193 
Q 2250 -91 1575 -91 
Q 1294 -91 989 -36 
Q 684 19 347 128 
L 347 722 
Q 666 556 975 473 
Q 1284 391 1588 391 
Q 1994 391 2212 530 
Q 2431 669 2431 922 
Q 2431 1156 2273 1281 
Q 2116 1406 1581 1522 
L 1381 1569 
Q 847 1681 609 1914 
Q 372 2147 372 2553 
Q 372 3047 722 3315 
Q 1072 3584 1716 3584 
Q 2034 3584 2315 3537 
Q 2597 3491 2834 3397 
z
" transform="scale(0.015625)"/>
      </defs>
      <use xlink:href="#DejaVuSans-69"/>
      <use xlink:href="#DejaVuSans-74" x="27.783203"/>
      <use xlink:href="#DejaVuSans-65" x="66.992188"/>
      <use xlink:href="#DejaVuSans-72" x="128.515625"/>
      <use xlink:href="#DejaVuSans-61" x="169.628906"/>
      <use xlink:href="#DejaVuSans-74" x="230.908203"/>
      <use xlink:href="#DejaVuSans-69" x="270.117188"/>
      <use xlink:href="#DejaVuSans-6f" x="297.900391"/>
      <use xlink:href="#DejaVuSans-6e" x="359.082031"/>
      <use xlink:href="#DejaVuSans-73" x="422.460938"/>
     </g>
    </g>
   </g>
   <g id="matplotlib.axis_2">
    <g id="ytick_1">
     <g id="line2d_7">
      <defs>
       <path id="m5b281a9aa6" d="M 0 0 
L -3.5 0 
" style="stroke: #000000; stroke-width: 0.8"/>
      </defs>
      <g>
       <use xlink:href="#m5b281a9aa6" x="92.490625" y="233.89928" style="stroke: #000000; stroke-width: 0.8"/>
      </g>
     </g>
     <g id="text_8">
      <!-- −200 -->
      <g transform="translate(30.55625 241.497718) scale(0.2 -0.2)">
       <defs>
        <path id="DejaVuSans-2212" d="M 678 2272 
L 4684 2272 
L 4684 1741 
L 678 1741 
L 678 2272 
z
" transform="scale(0.015625)"/>
       </defs>
       <use xlink:href="#DejaVuSans-2212"/>
       <use xlink:href="#DejaVuSans-32" x="83.789062"/>
       <use xlink:href="#DejaVuSans-30" x="147.412109"/>
       <use xlink:href="#DejaVuSans-30" x="211.035156"/>
      </g>
     </g>
    </g>
    <g id="ytick_2">
     <g id="line2d_8">
      <g>
       <use xlink:href="#m5b281a9aa6" x="92.490625" y="156.400898" style="stroke: #000000; stroke-width: 0.8"/>
      </g>
     </g>
     <g id="text_9">
      <!-- 0 -->
      <g transform="translate(72.765625 163.999335) scale(0.2 -0.2)">
       <use xlink:href="#DejaVuSans-30"/>
      </g>
     </g>
    </g>
    <g id="ytick_3">
     <g id="line2d_9">
      <g>
       <use xlink:href="#m5b281a9aa6" x="92.490625" y="78.902515" style="stroke: #000000; stroke-width: 0.8"/>
      </g>
     </g>
     <g id="text_10">
      <!-- 200 -->
      <g transform="translate(47.315625 86.500953) scale(0.2 -0.2)">
       <use xlink:href="#DejaVuSans-32"/>
       <use xlink:href="#DejaVuSans-30" x="63.623047"/>
       <use xlink:href="#DejaVuSans-30" x="127.246094"/>
      </g>
     </g>
    </g>
    <g id="text_11">
     <!-- Loss -->
     <g transform="translate(22.396875 191.970625) rotate(-90) scale(0.2 -0.2)">
      <defs>
       <path id="DejaVuSans-4c" d="M 628 4666 
L 1259 4666 
L 1259 531 
L 3531 531 
L 3531 0 
L 628 0 
L 628 4666 
z
" transform="scale(0.015625)"/>
      </defs>
      <use xlink:href="#DejaVuSans-4c"/>
      <use xlink:href="#DejaVuSans-6f" x="53.962891"/>
      <use xlink:href="#DejaVuSans-73" x="115.144531"/>
      <use xlink:href="#DejaVuSans-73" x="167.244141"/>
     </g>
    </g>
   </g>
   <g id="line2d_10">
    <path d="M 117.854261 136.140105 
L 118.337378 119.386488 
L 118.820495 97.658702 
L 119.786729 132.66545 
L 120.269846 131.50223 
L 120.752963 109.074995 
L 121.23608 70.056914 
L 121.719196 54.902085 
L 122.202313 57.926545 
L 122.68543 54.948943 
L 123.168547 45.679812 
L 123.651664 44.03625 
L 124.134781 46.554003 
L 124.617898 46.4645 
L 125.101015 61.12117 
L 125.584131 55.452144 
L 126.067248 47.371821 
L 126.550365 48.94424 
L 127.033482 60.27658 
L 127.516599 67.071176 
L 127.999716 67.466942 
L 128.482833 72.47849 
L 128.96595 69.342872 
L 130.4153 94.790736 
L 130.898417 91.969084 
L 131.381534 93.229692 
L 131.864651 92.7299 
L 132.347768 100.783666 
L 132.830885 98.377732 
L 133.314002 103.555557 
L 133.797119 102.926982 
L 134.280235 106.843558 
L 134.763352 103.849343 
L 135.246469 107.982067 
L 135.729586 104.046284 
L 136.212703 105.454914 
L 136.69582 106.159588 
L 137.178937 109.279874 
L 137.662054 108.658111 
L 138.14517 113.348977 
L 138.628287 112.802562 
L 139.111404 112.886724 
L 140.560755 117.192842 
L 141.043872 119.698511 
L 141.526989 121.529548 
L 142.010106 117.759482 
L 142.493222 121.031451 
L 142.976339 117.874613 
L 143.459456 123.929319 
L 144.42569 125.098673 
L 144.908807 122.790211 
L 145.391924 126.681087 
L 145.875041 124.35353 
L 146.358157 124.598737 
L 146.841274 127.579039 
L 147.807508 125.949512 
L 148.290625 128.740085 
L 148.773742 127.119974 
L 149.256859 126.066819 
L 149.739976 124.500406 
L 150.223093 128.099512 
L 150.706209 127.64869 
L 151.189326 124.880741 
L 151.672443 126.072068 
L 152.15556 125.0338 
L 153.121794 128.291852 
L 153.604911 127.820071 
L 154.088028 128.384262 
L 154.571144 127.725314 
L 155.054261 130.487021 
L 155.537378 124.764492 
L 156.503612 131.03801 
L 156.986729 129.370054 
L 157.469846 128.507903 
L 157.952963 129.992741 
L 158.43608 127.025059 
L 158.919196 128.463137 
L 159.402313 132.280888 
L 159.88543 126.205151 
L 160.368547 127.786885 
L 160.851664 128.36622 
L 161.334781 130.870562 
L 161.817898 129.202161 
L 162.301015 130.454508 
L 162.784131 129.324651 
L 163.267248 131.486962 
L 163.750365 126.280908 
L 164.233482 129.134088 
L 164.716599 127.71524 
L 165.199716 127.933912 
L 165.682833 130.968429 
L 166.16595 131.451701 
L 166.649067 128.47423 
L 167.132183 131.651787 
L 167.6153 132.517027 
L 168.098417 132.328264 
L 168.581534 131.551236 
L 169.064651 127.719658 
L 169.547768 129.542392 
L 170.030885 129.013006 
L 170.514002 133.998128 
L 170.997119 132.652585 
L 171.480235 134.846951 
L 171.963352 134.467355 
L 172.446469 136.200018 
L 172.929586 135.546954 
L 173.412703 132.983733 
L 173.89582 132.881623 
L 174.378937 135.628088 
L 174.862054 134.707247 
L 175.34517 132.554932 
L 175.828287 134.507047 
L 176.311404 133.025755 
L 176.794521 139.875843 
L 177.277638 134.53711 
L 177.760755 138.060798 
L 178.243872 135.610679 
L 178.726989 134.071004 
L 179.210106 137.174334 
L 179.693222 138.894034 
L 180.176339 134.346656 
L 180.659456 133.628541 
L 181.142573 139.905496 
L 181.62569 139.351825 
L 182.108807 141.054145 
L 182.591924 140.309269 
L 183.075041 138.998649 
L 184.041274 139.653628 
L 184.524391 140.618431 
L 185.007508 137.012362 
L 185.490625 139.155162 
L 185.973742 138.342522 
L 186.939976 136.511355 
L 187.423093 140.473876 
L 187.906209 136.474656 
L 188.389326 137.701627 
L 188.872443 137.834537 
L 189.35556 137.004483 
L 189.838677 137.949913 
L 190.321794 137.668135 
L 190.804911 141.592374 
L 191.288028 138.273643 
L 191.771144 140.58307 
L 192.254261 139.392533 
L 192.737378 137.903665 
L 193.220495 139.007768 
L 193.703612 138.482864 
L 194.186729 137.668388 
L 194.669846 137.640647 
L 195.152963 137.021624 
L 195.63608 136.006231 
L 196.119196 137.474276 
L 196.602313 137.944546 
L 197.08543 135.579974 
L 197.568547 135.523171 
L 198.051664 137.942839 
L 198.534781 138.274288 
L 199.017898 140.577836 
L 199.984131 137.334687 
L 200.467248 137.22565 
L 201.916599 140.935747 
L 202.399716 138.706081 
L 202.882833 138.031621 
L 203.36595 141.258663 
L 203.849067 139.099333 
L 204.332183 141.369672 
L 204.8153 137.77225 
L 205.298417 137.347757 
L 205.781534 140.418194 
L 206.264651 139.414461 
L 206.747768 138.878593 
L 207.714002 142.18506 
L 208.197119 141.024633 
L 208.680235 141.071503 
L 209.163352 143.735901 
L 209.646469 143.388929 
L 210.612703 142.271918 
L 211.09582 144.383795 
L 211.578937 145.16363 
L 212.062054 144.086809 
L 212.54517 143.883762 
L 213.028287 144.458331 
L 213.511404 144.067005 
L 213.994521 144.523268 
L 214.477638 144.575892 
L 214.960755 144.057221 
L 215.443872 145.96549 
L 216.410106 142.712513 
L 216.893222 143.651971 
L 217.859456 146.492216 
L 218.342573 144.780635 
L 218.82569 144.081637 
L 219.308807 144.851548 
L 219.791924 146.190345 
L 220.275041 144.657309 
L 220.758157 145.82573 
L 221.724391 143.079696 
L 222.207508 144.296385 
L 222.690625 144.961194 
L 223.173742 143.808949 
L 223.656859 143.997531 
L 224.139976 146.215528 
L 224.623093 144.776813 
L 225.106209 144.718914 
L 225.589326 147.279174 
L 226.072443 145.481445 
L 226.55556 144.759004 
L 227.038677 144.778459 
L 228.004911 147.19603 
L 228.488028 145.77178 
L 228.971144 146.071329 
L 229.454261 146.691365 
L 229.937378 146.571939 
L 230.420495 146.757617 
L 230.903612 146.584022 
L 231.386729 145.073014 
L 231.869846 146.164435 
L 232.352963 146.019355 
L 232.83608 143.897742 
L 233.319196 143.447988 
L 233.802313 143.242848 
L 234.28543 144.033963 
L 234.768547 145.291173 
L 235.251664 144.827294 
L 235.734781 145.635636 
L 236.217898 145.168239 
L 237.184131 145.380979 
L 237.667248 145.052218 
L 238.150365 146.595932 
L 238.633482 146.597405 
L 239.116599 146.024231 
L 239.599716 146.12066 
L 240.082833 145.644051 
L 240.56595 145.637259 
L 241.049067 145.064343 
L 241.532183 146.527707 
L 242.0153 146.054691 
L 242.498417 146.378687 
L 242.981534 147.244862 
L 243.464651 147.743065 
L 244.430885 145.699305 
L 244.914002 145.614191 
L 245.880235 146.032133 
L 246.363352 145.842341 
L 246.846469 145.851376 
L 247.329586 147.242077 
L 247.812703 146.43271 
L 248.778937 144.331136 
L 249.262054 145.156912 
L 249.74517 145.113214 
L 250.228287 146.046768 
L 250.711404 146.109475 
L 251.194521 146.358465 
L 251.677638 147.967362 
L 252.160755 145.834115 
L 252.643872 145.471832 
L 253.126989 145.909016 
L 253.610106 145.176336 
L 254.093222 145.312189 
L 254.576339 144.622425 
L 255.059456 146.161472 
L 255.542573 145.988952 
L 256.02569 145.609696 
L 256.508807 146.340256 
L 256.991924 145.255584 
L 257.475041 146.137073 
L 257.958157 145.934825 
L 258.924391 144.794355 
L 259.407508 145.822868 
L 259.890625 146.259016 
L 260.373742 145.545879 
L 260.856859 145.704226 
L 261.339976 143.833665 
L 261.823093 143.39312 
L 262.306209 143.983717 
L 262.789326 144.764031 
L 263.272443 141.471619 
L 263.75556 143.258355 
L 264.238677 142.1225 
L 264.721794 142.770739 
L 265.688028 140.613826 
L 266.171144 140.124447 
L 266.654261 139.984476 
L 267.137378 140.198564 
L 267.620495 139.866343 
L 268.103612 140.192398 
L 268.586729 139.209319 
L 269.069846 137.699922 
L 269.552963 138.211979 
L 270.03608 137.472748 
L 270.519196 135.659297 
L 271.002313 136.513748 
L 271.48543 136.846126 
L 271.968547 136.708991 
L 272.934781 136.991124 
L 273.417898 137.518005 
L 273.901015 137.284661 
L 274.384131 136.19745 
L 274.867248 135.462121 
L 275.350365 135.642996 
L 275.833482 135.398218 
L 276.316599 133.458761 
L 277.282833 134.309588 
L 278.249067 133.713049 
L 278.732183 133.073662 
L 279.2153 133.282183 
L 279.698417 134.055024 
L 280.181534 133.006076 
L 280.664651 133.292302 
L 281.147768 134.015364 
L 281.630885 133.691593 
L 282.114002 133.654318 
L 282.597119 134.463807 
L 283.080235 134.107787 
L 283.563352 134.925327 
L 284.046469 134.93708 
L 284.529586 134.225088 
L 285.012703 135.658831 
L 285.49582 135.124509 
L 285.978937 134.892409 
L 286.462054 136.184751 
L 286.94517 135.805301 
L 287.428287 136.403224 
L 287.911404 136.162705 
L 288.394521 137.044153 
L 288.877638 136.978352 
L 289.360755 137.257002 
L 290.810106 138.599311 
L 291.293222 138.164326 
L 291.776339 138.148874 
L 292.259456 138.875902 
L 292.742573 139.009496 
L 293.22569 138.996887 
L 293.708807 139.359301 
L 294.191924 140.196006 
L 294.675041 139.88815 
L 295.158157 139.446259 
L 295.641274 139.624629 
L 296.124391 139.175819 
L 296.607508 140.360832 
L 297.090625 140.507721 
L 297.573742 140.277501 
L 298.056859 140.344361 
L 298.539976 139.688527 
L 299.023093 139.764017 
L 299.506209 140.47098 
L 299.989326 140.823755 
L 300.472443 140.00849 
L 300.95556 140.867939 
L 301.921794 140.809753 
L 302.404911 141.309758 
L 303.371144 140.6429 
L 303.854261 141.04968 
L 304.337378 141.153351 
L 304.820495 140.423128 
L 305.303612 140.617213 
L 305.786729 140.614077 
L 306.269846 141.862909 
L 306.752963 141.540245 
L 307.23608 141.368711 
L 307.719196 141.72775 
L 308.202313 141.138194 
L 308.68543 141.33949 
L 309.651664 141.923022 
L 310.134781 141.878898 
L 310.617898 141.446056 
L 311.101015 142.348734 
L 311.584131 142.177576 
L 312.067248 142.347438 
L 312.550365 142.125741 
L 313.516599 142.400078 
L 313.999716 142.475297 
L 314.482833 142.970731 
L 314.96595 143.255098 
L 315.449067 142.866823 
L 315.932183 142.624791 
L 316.4153 142.940462 
L 316.898417 142.544034 
L 317.381534 142.637308 
L 317.864651 143.49133 
L 318.347768 143.441073 
L 318.830885 142.498801 
L 319.797119 143.267946 
L 320.280235 143.508972 
L 320.763352 144.054366 
L 321.246469 144.34474 
L 321.729586 144.041871 
L 322.212703 143.350409 
L 322.69582 143.766515 
L 323.178937 143.467922 
L 324.14517 144.488671 
L 324.628287 144.668617 
L 325.111404 144.67175 
L 325.594521 145.670451 
L 326.077638 145.760743 
L 326.560755 146.258358 
L 327.526989 147.847549 
L 328.010106 148.41856 
L 328.493222 148.68886 
L 328.976339 148.046676 
L 329.459456 148.448831 
L 329.942573 147.839463 
L 330.42569 148.048703 
L 330.908807 148.580042 
L 331.391924 148.47331 
L 331.875041 148.869761 
L 332.358157 148.968766 
L 333.807508 148.022524 
L 334.290625 148.76923 
L 334.773742 148.372024 
L 335.256859 148.493244 
L 335.739976 148.478269 
L 336.223093 148.748364 
L 337.672443 148.377159 
L 338.15556 148.893702 
L 339.121794 149.112677 
L 339.604911 148.8705 
L 340.088028 149.059157 
L 340.571144 148.448253 
L 341.054261 148.639738 
L 341.537378 148.443988 
L 342.020495 148.854225 
L 342.503612 148.831863 
L 342.986729 149.493462 
L 343.469846 149.32119 
L 343.952963 148.955499 
L 344.919196 149.348102 
L 345.402313 149.343716 
L 345.88543 149.914771 
L 346.368547 149.513644 
L 346.851664 149.769645 
L 347.817898 149.281482 
L 348.301015 149.528568 
L 348.784131 150.340114 
L 349.267248 149.765789 
L 349.750365 149.810813 
L 350.233482 150.424258 
L 350.716599 149.525793 
L 351.199716 149.916599 
L 352.16595 149.784206 
L 352.649067 149.297795 
L 353.6153 149.799474 
L 354.098417 150.375535 
L 354.581534 150.047529 
L 355.064651 150.061927 
L 355.547768 150.378216 
L 356.030885 149.992059 
L 356.514002 149.896424 
L 356.997119 150.321031 
L 357.480235 150.541045 
L 357.963352 150.338546 
L 358.446469 150.392109 
L 358.929586 150.798539 
L 359.412703 150.783767 
L 359.89582 150.475998 
L 360.378937 150.561397 
L 360.862054 150.76721 
L 361.34517 150.404802 
L 361.828287 150.591651 
L 362.311404 150.610028 
L 362.794521 150.43635 
L 363.277638 150.758872 
L 364.243872 150.626565 
L 364.726989 150.923386 
L 365.210106 151.43372 
L 365.693222 150.559952 
L 366.176339 150.812884 
L 366.659456 151.217041 
L 367.142573 151.339018 
L 367.62569 151.682673 
L 368.108807 151.686438 
L 368.591924 151.245356 
L 369.075041 151.340401 
L 369.558157 151.189276 
L 370.524391 151.459706 
L 371.007508 151.102673 
L 371.490625 151.462666 
L 371.973742 150.909301 
L 372.456859 151.435733 
L 372.939976 151.265245 
L 373.423093 151.238926 
L 373.906209 151.036157 
L 374.389326 151.155105 
L 374.872443 151.430886 
L 375.35556 151.182892 
L 376.321794 151.762198 
L 377.288028 151.339679 
L 377.771144 152.078093 
L 378.254261 151.541049 
L 378.737378 152.217249 
L 379.220495 151.720446 
L 380.186729 152.453899 
L 380.669846 152.47466 
L 381.152963 152.178387 
L 381.63608 152.557004 
L 382.119196 151.581745 
L 382.602313 151.90679 
L 383.08543 152.08738 
L 383.568547 151.927755 
L 384.051664 151.923196 
L 385.017898 152.252462 
L 385.501015 151.786521 
L 385.984131 151.652429 
L 386.467248 152.266472 
L 386.950365 151.899119 
L 387.433482 151.93214 
L 387.916599 151.812318 
L 388.399716 151.389304 
L 388.882833 151.815481 
L 389.36595 151.796132 
L 390.332183 152.379641 
L 390.8153 152.494751 
L 391.298417 152.357874 
L 391.781534 151.779789 
L 392.264651 151.870045 
L 392.747768 151.81871 
L 393.230885 152.20695 
L 393.714002 152.744623 
L 394.197119 152.027593 
L 395.163352 152.579643 
L 395.646469 151.995365 
L 396.129586 152.91781 
L 396.612703 152.035264 
L 397.09582 152.038265 
L 397.578937 152.223482 
L 398.062054 152.150448 
L 399.028287 152.494614 
L 399.511404 153.040017 
L 400.477638 152.224673 
L 400.960755 152.337672 
L 401.443872 152.756649 
L 401.926989 152.018976 
L 402.410106 152.465712 
L 402.893222 152.591943 
L 403.376339 152.545378 
L 403.859456 152.874846 
L 404.82569 153.082897 
L 405.308807 153.593069 
L 405.791924 153.244655 
L 406.275041 153.559309 
L 406.758157 153.291544 
L 407.241274 153.297665 
L 408.690625 153.69826 
L 409.173742 153.675887 
L 409.656859 154.340532 
L 410.139976 153.994852 
L 410.623093 154.429286 
L 411.106209 154.116396 
L 411.589326 154.144122 
L 412.55556 154.426372 
L 413.038677 154.494814 
L 413.521794 154.264573 
L 414.004911 154.362213 
L 414.488028 154.155068 
L 415.454261 154.004674 
L 415.937378 153.935798 
L 416.420495 154.459518 
L 416.903612 154.768638 
L 417.386729 154.579417 
L 417.869846 155.456125 
L 419.802313 155.400505 
L 420.28543 155.46561 
L 420.768547 155.063341 
L 421.251664 155.62921 
L 421.734781 155.636871 
L 422.701015 155.925934 
L 423.184131 155.242112 
L 423.667248 155.242005 
L 424.150365 155.431229 
L 424.633482 155.342126 
L 425.116599 155.675356 
L 425.599716 155.317863 
L 426.082833 155.312605 
L 426.56595 155.587132 
L 427.049067 155.539639 
L 427.532183 155.212933 
L 428.498417 155.795154 
L 430.430885 155.96858 
L 430.914002 155.538262 
L 431.880235 155.561329 
L 432.363352 155.127905 
L 432.846469 155.427119 
L 433.329586 154.904094 
L 433.812703 155.655727 
L 434.29582 155.442788 
L 434.778937 155.553067 
L 435.262054 155.221002 
L 435.74517 155.211599 
L 436.228287 155.376185 
L 436.711404 155.325448 
L 437.194521 155.754255 
L 437.677638 156.000229 
L 438.160755 155.642691 
L 438.643872 155.71339 
L 439.126989 155.55804 
L 439.610106 156.06054 
L 441.542573 155.963129 
L 442.02569 155.754411 
L 442.508807 155.876285 
L 443.475041 156.499908 
L 443.958157 156.33346 
L 444.924391 156.593919 
L 445.407508 156.8335 
L 445.890625 156.668702 
L 446.373742 156.794918 
L 446.856859 156.476798 
L 447.823093 156.337321 
L 448.306209 156.607915 
L 450.238677 156.199787 
L 450.721794 156.409511 
L 451.204911 156.418915 
L 452.171144 156.920316 
L 453.620495 156.500873 
L 454.103612 156.703038 
L 454.586729 156.705211 
L 455.069846 157.113282 
L 455.552963 156.699662 
L 456.519196 157.104351 
L 457.002313 157.024251 
L 457.48543 156.489976 
L 457.968547 156.827424 
L 458.934781 156.908301 
L 459.417898 156.981501 
L 459.901015 156.459182 
L 460.384131 156.947286 
L 460.867248 157.035849 
L 461.350365 156.907641 
L 461.833482 156.962777 
L 462.316599 156.661193 
L 462.799716 156.696036 
L 463.282833 156.53097 
L 463.76595 156.491423 
L 464.249067 156.746532 
L 464.732183 156.511599 
L 465.2153 157.237169 
L 465.698417 156.881704 
L 466.181534 157.134891 
L 466.664651 156.859105 
L 467.630885 157.091594 
L 469.080235 157.060549 
L 469.563352 156.659538 
L 470.046469 156.484064 
L 470.529586 157.089212 
L 471.012703 156.919912 
L 471.49582 157.220388 
L 471.978937 157.111321 
L 472.462054 156.887898 
L 472.94517 156.938472 
L 473.428287 156.524485 
L 473.911404 156.773895 
L 474.877638 156.595714 
L 475.360755 156.120883 
L 475.843872 156.279941 
L 476.326989 156.10918 
L 476.810106 156.802168 
L 477.293222 156.50623 
L 478.259456 156.570882 
L 479.22569 156.085815 
L 479.708807 156.558871 
L 480.675041 156.428751 
L 481.158157 156.743505 
L 481.641274 156.563803 
L 482.124391 156.865861 
L 482.607508 156.778252 
L 483.090625 156.87216 
L 484.539976 156.796657 
L 485.023093 156.349296 
L 485.506209 156.889186 
L 487.438677 156.72056 
L 487.921794 156.948533 
L 488.404911 156.867149 
L 489.371144 156.924917 
L 489.854261 157.307309 
L 490.337378 157.138188 
L 491.786729 157.020573 
L 492.269846 157.242116 
L 492.752963 156.89345 
L 493.23608 156.954108 
L 493.719196 156.868894 
L 494.202313 156.91237 
L 494.68543 157.117368 
L 495.168547 157.564812 
L 495.651664 157.002444 
L 497.101015 157.304028 
L 497.584131 157.064388 
L 498.067248 157.098418 
L 499.033482 157.402296 
L 499.516599 157.157317 
L 500.482833 157.305286 
L 500.96595 157.041411 
L 502.4153 157.02764 
L 502.898417 157.231152 
L 503.864651 157.13538 
L 504.347768 156.949878 
L 504.830885 157.166234 
L 505.314002 156.814488 
L 506.280235 156.947148 
L 507.729586 157.092111 
L 508.212703 157.169659 
L 508.69582 156.863023 
L 509.662054 156.897315 
L 510.14517 157.19827 
L 510.628287 157.229496 
L 512.077638 156.590116 
L 513.043872 157.064287 
L 513.526989 156.939517 
L 514.493222 157.183636 
L 514.976339 156.978618 
L 516.42569 157.215952 
L 516.908807 156.659101 
L 517.391924 157.073064 
L 518.841274 156.957331 
L 519.324391 157.355872 
L 520.290625 156.861785 
L 520.773742 157.05704 
L 521.256859 156.635702 
L 521.739976 156.752532 
L 522.223093 156.679933 
L 522.706209 156.857354 
L 523.189326 156.844268 
L 523.672443 157.049871 
L 524.638677 157.113893 
L 525.604911 156.859888 
L 526.088028 157.006028 
L 527.054261 156.903558 
L 527.537378 157.157826 
L 528.020495 157.005948 
L 528.503612 156.707447 
L 528.986729 156.7611 
L 529.469846 156.965757 
L 530.43608 156.879134 
L 530.919196 157.015963 
L 531.402313 156.933193 
L 531.88543 156.5966 
L 532.368547 156.938272 
L 533.334781 156.619101 
L 533.817898 156.905403 
L 535.267248 156.840711 
L 535.750365 156.98429 
L 536.233482 156.784391 
L 536.716599 156.950945 
L 537.199716 156.845454 
L 537.682833 156.944772 
L 538.16595 156.738596 
L 538.649067 156.985249 
L 539.132183 156.798298 
L 541.064651 157.228802 
L 541.547768 157.085884 
L 542.030885 157.29452 
L 542.514002 157.358049 
L 543.480235 156.767647 
L 543.963352 157.276589 
L 544.446469 156.969462 
L 544.929586 157.357298 
L 545.412703 157.315657 
L 545.89582 156.992552 
L 546.378937 157.255557 
L 546.862054 157.107822 
L 547.34517 157.194068 
L 547.828287 156.964599 
L 548.794521 156.881277 
L 549.277638 156.857108 
L 549.760755 157.127138 
L 550.243872 156.814408 
L 551.693222 157.181291 
L 552.176339 157.127673 
L 552.659456 156.920315 
L 554.108807 157.081161 
L 554.591924 156.862729 
L 555.558157 157.202825 
L 556.041274 156.860582 
L 556.524391 157.04992 
L 557.490625 157.097812 
L 557.973742 156.884484 
L 558.939976 157.04506 
L 559.423093 157.240259 
L 559.906209 157.081584 
L 560.389326 157.06549 
L 560.872443 156.804342 
L 561.838677 156.900257 
L 562.321794 156.620796 
L 562.804911 156.584278 
L 563.288028 156.28696 
L 564.254261 157.002038 
L 564.737378 156.78861 
L 565.220495 157.04417 
L 566.186729 156.965016 
L 566.669846 156.958457 
L 567.152963 157.162572 
L 567.63608 157.050881 
L 568.119196 156.783993 
L 568.602313 157.317478 
L 569.08543 157.24046 
L 569.568547 157.293773 
L 571.017898 157.01247 
L 571.501015 156.930029 
L 571.984131 157.151737 
L 572.467248 156.774057 
L 572.950365 157.071522 
L 573.433482 157.188691 
L 573.916599 157.071641 
L 574.882833 157.157254 
L 575.849067 157.214291 
L 576.332183 157.15898 
L 576.8153 157.360904 
L 577.781534 156.997702 
L 578.264651 157.194465 
L 578.747768 156.958928 
L 579.230885 157.207504 
L 580.197119 157.123454 
L 580.680235 157.379931 
L 581.646469 156.781357 
L 582.129586 156.843251 
L 582.612703 157.025809 
L 583.09582 156.672248 
L 583.578937 156.997018 
L 584.062054 156.767273 
L 585.028287 156.891964 
L 585.511404 156.525233 
L 585.994521 157.069887 
L 586.477638 156.711689 
L 587.443872 156.629385 
L 587.926989 156.921364 
L 588.410106 156.741025 
L 588.893222 156.931866 
L 589.376339 156.869437 
L 589.859456 156.95297 
L 590.342573 157.325228 
L 590.82569 157.298327 
L 591.308807 156.965534 
L 592.275041 157.174368 
L 592.758157 157.216075 
L 593.241274 156.922971 
L 593.724391 157.106337 
L 594.690625 157.022951 
L 595.173742 157.332163 
L 595.656859 157.168667 
L 596.623093 157.453814 
L 597.106209 156.994763 
L 597.589326 156.99318 
L 598.072443 157.190726 
L 598.55556 156.968555 
L 599.038677 157.005915 
L 599.521794 157.276595 
L 600.004911 157.026292 
L 600.488028 157.241281 
L 600.971144 156.931915 
L 601.937378 156.664016 
L 602.420495 156.84604 
L 603.386729 156.780014 
L 603.869846 156.673134 
L 604.352963 156.824006 
L 604.83608 157.168924 
L 605.319196 157.190466 
L 607.251664 156.75704 
L 607.734781 157.067917 
L 608.217898 157.201226 
L 608.701015 157.552285 
L 609.184131 157.393819 
L 609.667248 157.356464 
L 610.150365 157.099451 
L 610.633482 157.305882 
L 612.082833 156.954412 
L 612.56595 157.08658 
L 613.049067 156.835485 
L 613.532183 156.716346 
L 614.0153 156.814848 
L 614.498417 156.794005 
L 614.981534 157.097061 
L 615.464651 156.752772 
L 615.947768 156.809305 
L 616.430885 156.726122 
L 617.397119 156.853729 
L 618.363352 156.558932 
L 619.329586 156.821823 
L 619.812703 156.637478 
L 620.29582 157.228641 
L 620.778937 156.790699 
L 621.262054 156.873658 
L 621.74517 156.761293 
L 622.711404 157.043346 
L 623.194521 156.626639 
L 623.677638 156.745497 
L 624.160755 156.735423 
L 624.643872 156.589803 
L 625.126989 156.967555 
L 625.126989 156.967555 
" clip-path="url(#p217d1f41b3)" style="fill: none; stroke: #1f77b4; stroke-width: 1.5; stroke-linecap: square"/>
   </g>
   <g id="line2d_11">
    <path d="M 117.854261 254.938135 
L 118.337378 296.03625 
L 119.303612 208.813361 
L 119.786729 187.276667 
L 120.269846 189.706367 
L 120.752963 199.947919 
L 121.23608 215.797721 
L 122.202313 198.696802 
L 122.68543 195.653424 
L 123.651664 187.178186 
L 124.134781 184.771631 
L 124.617898 181.518091 
L 125.101015 172.836631 
L 125.584131 177.084168 
L 126.067248 176.002442 
L 126.550365 180.292152 
L 127.516599 176.06466 
L 127.999716 175.975991 
L 128.482833 174.803012 
L 128.96595 176.218112 
L 129.449067 174.095347 
L 129.932183 172.621992 
L 130.4153 174.243191 
L 130.898417 176.566693 
L 131.381534 173.999041 
L 131.864651 173.336092 
L 132.347768 171.437928 
L 132.830885 173.335198 
L 133.314002 172.257273 
L 133.797119 172.221129 
L 134.280235 171.317887 
L 134.763352 174.228225 
L 135.246469 174.212043 
L 135.729586 172.3616 
L 136.212703 174.62792 
L 137.178937 173.635043 
L 137.662054 172.33708 
L 138.14517 172.44086 
L 138.628287 171.153063 
L 139.111404 171.94099 
L 139.594521 171.945602 
L 140.077638 172.134762 
L 140.560755 171.688203 
L 141.043872 172.966357 
L 141.526989 172.10459 
L 142.010106 171.552824 
L 142.493222 172.491549 
L 142.976339 173.746198 
L 143.459456 171.707896 
L 144.42569 171.970886 
L 144.908807 170.970049 
L 145.875041 171.354679 
L 146.841274 173.167313 
L 147.807508 172.811369 
L 148.290625 171.409545 
L 149.256859 174.302414 
L 149.739976 172.613514 
L 150.223093 172.593085 
L 150.706209 171.222889 
L 151.189326 171.566571 
L 151.672443 172.197917 
L 152.638677 172.719121 
L 153.121794 172.528508 
L 153.604911 171.880279 
L 154.088028 171.604792 
L 154.571144 172.486302 
L 155.054261 172.588694 
L 155.537378 173.111377 
L 156.020495 171.824538 
L 156.503612 171.427537 
L 156.986729 172.134662 
L 157.469846 172.388463 
L 157.952963 172.99041 
L 158.919196 173.19691 
L 159.402313 172.615522 
L 159.88543 173.116519 
L 160.368547 174.450834 
L 160.851664 173.848685 
L 161.334781 173.067075 
L 161.817898 173.406221 
L 162.301015 172.090916 
L 162.784131 173.59965 
L 163.267248 173.205076 
L 164.233482 175.600819 
L 164.716599 175.336454 
L 165.199716 175.347132 
L 165.682833 172.839012 
L 166.16595 174.86629 
L 166.649067 172.849161 
L 167.132183 173.691814 
L 167.6153 174.198152 
L 168.098417 175.266 
L 168.581534 173.253777 
L 169.064651 175.196099 
L 169.547768 176.064354 
L 170.030885 174.710514 
L 170.514002 174.716729 
L 170.997119 174.534071 
L 171.480235 173.717343 
L 171.963352 174.202458 
L 172.446469 175.168232 
L 172.929586 173.329799 
L 173.412703 173.707572 
L 173.89582 175.512934 
L 174.378937 175.412587 
L 175.34517 174.236053 
L 175.828287 174.495109 
L 176.311404 174.457927 
L 176.794521 173.598044 
L 177.277638 173.556798 
L 177.760755 174.226957 
L 178.243872 172.842117 
L 178.726989 174.033998 
L 179.210106 171.82722 
L 179.693222 173.466877 
L 180.176339 171.590813 
L 180.659456 173.837477 
L 181.142573 174.196744 
L 182.108807 172.477713 
L 182.591924 174.105548 
L 183.075041 170.266629 
L 183.558157 170.28206 
L 184.041274 170.728368 
L 184.524391 172.379129 
L 185.007508 172.545078 
L 185.490625 173.10725 
L 185.973742 172.727759 
L 186.939976 171.206784 
L 187.423093 172.85732 
L 187.906209 169.132799 
L 188.389326 167.331023 
L 188.872443 169.746138 
L 189.35556 170.89915 
L 189.838677 171.197267 
L 190.321794 171.290808 
L 190.804911 170.065879 
L 191.288028 170.701915 
L 191.771144 169.38946 
L 192.254261 169.828205 
L 192.737378 167.50936 
L 193.220495 169.867771 
L 193.703612 170.174255 
L 194.186729 169.140012 
L 194.669846 169.54945 
L 195.152963 171.783569 
L 195.63608 168.517541 
L 196.119196 168.987571 
L 196.602313 168.750076 
L 197.568547 171.450895 
L 198.051664 171.729048 
L 198.534781 171.055364 
L 199.017898 168.730249 
L 199.501015 170.262241 
L 199.984131 171.317043 
L 200.467248 170.891562 
L 200.950365 168.43404 
L 201.433482 169.292704 
L 201.916599 169.887103 
L 202.399716 170.685864 
L 202.882833 167.229364 
L 203.36595 169.860336 
L 203.849067 170.315567 
L 204.332183 166.725035 
L 204.8153 168.727225 
L 205.298417 168.558664 
L 206.264651 169.35949 
L 206.747768 169.370134 
L 207.230885 169.961826 
L 207.714002 168.556259 
L 208.197119 170.718922 
L 208.680235 168.860858 
L 209.163352 170.40796 
L 209.646469 167.685218 
L 210.129586 168.199201 
L 211.09582 170.578275 
L 212.062054 169.629412 
L 213.028287 169.775695 
L 213.511404 170.735877 
L 213.994521 170.170243 
L 214.477638 170.533776 
L 214.960755 170.003519 
L 215.443872 170.422865 
L 215.926989 169.232927 
L 216.410106 168.608221 
L 216.893222 168.981682 
L 217.376339 169.866374 
L 217.859456 168.866532 
L 218.342573 170.029044 
L 218.82569 169.272354 
L 219.308807 170.493606 
L 219.791924 169.511944 
L 220.275041 169.666177 
L 220.758157 170.312552 
L 221.724391 170.441513 
L 222.207508 169.193993 
L 222.690625 170.700225 
L 223.173742 170.408394 
L 223.656859 170.390795 
L 224.139976 168.707613 
L 224.623093 168.567834 
L 225.106209 168.555006 
L 225.589326 169.782664 
L 226.072443 169.375414 
L 226.55556 170.828587 
L 227.038677 169.300857 
L 227.521794 169.55813 
L 228.004911 168.334885 
L 228.488028 167.962417 
L 229.454261 169.137734 
L 229.937378 169.272664 
L 230.420495 168.226628 
L 230.903612 169.71668 
L 231.869846 167.264729 
L 232.352963 168.508186 
L 232.83608 168.568905 
L 233.319196 169.47394 
L 233.802313 167.353207 
L 234.768547 169.12375 
L 235.251664 167.556371 
L 235.734781 167.498236 
L 236.217898 168.372565 
L 236.701015 166.057744 
L 237.184131 168.455916 
L 237.667248 169.283844 
L 238.633482 168.434012 
L 239.599716 169.942208 
L 240.082833 171.442653 
L 240.56595 170.744467 
L 241.049067 169.635116 
L 241.532183 169.531875 
L 242.0153 169.192391 
L 242.498417 171.219978 
L 242.981534 169.751376 
L 243.464651 168.883082 
L 243.947768 169.9975 
L 244.430885 170.620432 
L 244.914002 170.428596 
L 245.397119 169.78904 
L 245.880235 171.271427 
L 246.363352 170.455118 
L 247.329586 169.500853 
L 248.778937 171.378662 
L 249.262054 169.724076 
L 249.74517 169.908073 
L 250.228287 170.59831 
L 250.711404 168.845588 
L 251.677638 170.196902 
L 252.160755 170.477496 
L 252.643872 169.453045 
L 253.126989 170.539155 
L 253.610106 170.41447 
L 254.093222 170.541219 
L 254.576339 170.364321 
L 255.059456 169.476405 
L 256.02569 170.988097 
L 256.508807 170.720209 
L 256.991924 170.610929 
L 257.475041 170.250932 
L 257.958157 170.983601 
L 258.441274 171.334155 
L 258.924391 170.607384 
L 259.407508 171.594585 
L 259.890625 170.74801 
L 260.373742 171.102039 
L 260.856859 165.668203 
L 261.339976 157.260271 
L 261.823093 158.109435 
L 262.789326 158.065066 
L 263.272443 159.253093 
L 263.75556 157.933172 
L 264.238677 158.683074 
L 264.721794 159.216684 
L 265.204911 158.952384 
L 265.688028 159.774269 
L 266.171144 159.497486 
L 266.654261 159.514434 
L 267.137378 159.810076 
L 267.620495 159.243292 
L 268.103612 159.990796 
L 268.586729 159.520692 
L 269.069846 160.025602 
L 270.03608 159.908322 
L 270.519196 160.32958 
L 271.002313 160.154614 
L 271.48543 159.818638 
L 271.968547 159.734872 
L 272.451664 159.897215 
L 272.934781 159.637781 
L 273.417898 160.053261 
L 273.901015 159.948993 
L 274.384131 160.615295 
L 274.867248 159.828245 
L 275.350365 159.865906 
L 275.833482 159.767255 
L 276.316599 160.544821 
L 276.799716 159.858306 
L 277.282833 160.628665 
L 277.76595 160.316323 
L 278.249067 160.832474 
L 278.732183 160.978815 
L 279.2153 159.986471 
L 279.698417 159.913214 
L 280.181534 160.487713 
L 281.147768 160.706538 
L 281.630885 160.286802 
L 282.114002 160.026634 
L 282.597119 160.417298 
L 283.080235 160.304212 
L 283.563352 160.57298 
L 284.046469 160.25048 
L 284.529586 160.492115 
L 285.012703 160.432943 
L 285.49582 160.643788 
L 285.978937 160.544122 
L 286.462054 160.312588 
L 286.94517 160.211009 
L 287.428287 159.614008 
L 287.911404 160.273213 
L 288.877638 159.906737 
L 289.360755 160.47459 
L 289.843872 159.342558 
L 290.326989 159.780157 
L 290.810106 159.273843 
L 291.776339 159.899822 
L 292.259456 159.765321 
L 292.742573 159.897305 
L 293.22569 159.424204 
L 293.708807 159.791611 
L 294.191924 159.646656 
L 294.675041 159.29827 
L 295.158157 159.624578 
L 295.641274 159.152912 
L 296.124391 159.176085 
L 296.607508 159.064748 
L 297.090625 159.418686 
L 297.573742 159.253508 
L 298.056859 159.600608 
L 298.539976 159.800961 
L 299.023093 159.610222 
L 299.506209 159.767646 
L 299.989326 159.258101 
L 300.472443 159.465059 
L 300.95556 159.516275 
L 301.438677 159.389562 
L 302.888028 159.476896 
L 303.371144 159.130857 
L 304.337378 159.603505 
L 304.820495 158.947125 
L 305.303612 159.258055 
L 306.269846 159.591428 
L 306.752963 159.406045 
L 307.23608 159.503871 
L 307.719196 158.876726 
L 308.202313 159.627697 
L 308.68543 159.631467 
L 309.168547 159.09707 
L 309.651664 159.191761 
L 310.134781 159.851682 
L 310.617898 159.400114 
L 311.101015 159.600971 
L 311.584131 159.400481 
L 312.067248 159.734207 
L 312.550365 159.494294 
L 313.516599 159.609264 
L 314.96595 159.752787 
L 315.449067 159.198844 
L 315.932183 159.908282 
L 316.4153 159.466196 
L 316.898417 159.699557 
L 317.381534 159.645381 
L 317.864651 160.019621 
L 318.347768 159.595929 
L 320.763352 159.606665 
L 321.246469 159.94807 
L 321.729586 159.719841 
L 322.212703 159.649272 
L 322.69582 162.848622 
L 323.178937 158.196261 
L 323.662054 159.594087 
L 324.14517 159.816541 
L 324.628287 159.585803 
L 325.111404 159.791473 
L 325.594521 159.62025 
L 326.077638 159.814353 
L 326.560755 159.681243 
L 327.043872 159.994622 
L 327.526989 159.768833 
L 328.010106 159.373059 
L 329.459456 159.860811 
L 329.942573 159.527404 
L 330.42569 159.690969 
L 330.908807 159.504895 
L 331.391924 159.835262 
L 331.875041 159.449771 
L 332.358157 159.812848 
L 332.841274 159.550961 
L 333.324391 159.758294 
L 334.290625 159.550144 
L 335.256859 159.683732 
L 335.739976 159.744483 
L 336.706209 159.492884 
L 337.189326 159.886462 
L 337.672443 159.425712 
L 339.121794 159.597965 
L 340.088028 159.507324 
L 340.571144 159.820618 
L 341.054261 159.745091 
L 342.020495 159.926608 
L 342.503612 159.71463 
L 342.986729 160.015056 
L 343.469846 159.538858 
L 344.919196 160.086147 
L 345.402313 159.750671 
L 346.368547 159.785548 
L 346.851664 159.464118 
L 347.334781 159.979955 
L 347.817898 160.123462 
L 348.301015 159.783599 
L 349.267248 159.852492 
L 349.750365 159.76547 
L 350.233482 159.849602 
L 350.716599 160.331629 
L 351.199716 159.971812 
L 351.682833 159.825108 
L 352.16595 159.831308 
L 352.649067 160.129987 
L 353.132183 160.084658 
L 353.6153 160.428929 
L 354.098417 159.703395 
L 356.030885 159.86017 
L 356.514002 160.021164 
L 356.997119 159.838181 
L 357.480235 160.044828 
L 358.446469 159.802884 
L 358.929586 160.08104 
L 359.412703 159.821094 
L 359.89582 159.862872 
L 360.378937 159.664279 
L 360.862054 159.891898 
L 361.34517 159.991116 
L 361.828287 159.845669 
L 362.311404 159.564818 
L 362.794521 159.790168 
L 363.277638 159.71072 
L 363.760755 159.947068 
L 364.726989 159.906012 
L 365.210106 159.76006 
L 365.693222 159.991688 
L 366.176339 159.744492 
L 366.659456 159.622636 
L 367.142573 159.63479 
L 367.62569 160.404745 
L 368.108807 159.638482 
L 368.591924 159.88917 
L 369.075041 159.97846 
L 369.558157 159.696818 
L 370.041274 160.236157 
L 370.524391 160.100391 
L 371.007508 159.790208 
L 371.490625 160.004479 
L 371.973742 159.662231 
L 372.456859 159.830562 
L 372.939976 160.244886 
L 373.423093 160.341749 
L 373.906209 159.687567 
L 374.389326 159.846473 
L 374.872443 159.855453 
L 375.35556 159.645816 
L 375.838677 159.946496 
L 376.321794 159.753758 
L 376.804911 160.061147 
L 378.737378 159.708261 
L 379.220495 159.433518 
L 379.703612 159.782549 
L 380.186729 159.985576 
L 380.669846 159.963234 
L 381.152963 160.270411 
L 381.63608 159.757382 
L 383.08543 160.045401 
L 384.051664 159.52485 
L 385.017898 159.783737 
L 385.501015 160.015356 
L 385.984131 159.970082 
L 386.467248 159.466431 
L 387.433482 159.635054 
L 388.399716 159.885683 
L 388.882833 159.906866 
L 389.36595 159.816491 
L 389.849067 159.598509 
L 390.332183 159.9902 
L 390.8153 159.46575 
L 391.298417 159.562266 
L 391.781534 159.920128 
L 392.264651 159.713966 
L 392.747768 159.773368 
L 393.714002 159.604772 
L 394.680235 159.926805 
L 395.163352 159.652873 
L 396.612703 159.965805 
L 397.09582 159.683187 
L 397.578937 159.548664 
L 398.54517 159.707622 
L 399.028287 159.896745 
L 399.511404 159.945302 
L 399.994521 159.644816 
L 400.960755 159.736002 
L 401.443872 159.510788 
L 402.410106 159.811761 
L 403.859456 159.450157 
L 404.342573 159.792891 
L 405.791924 159.629241 
L 406.275041 159.587784 
L 406.758157 159.78791 
L 407.241274 159.697469 
L 408.690625 159.848373 
L 409.173742 159.419198 
L 410.139976 159.72341 
L 411.106209 159.395262 
L 411.589326 159.633672 
L 412.072443 159.68716 
L 412.55556 159.473452 
L 413.038677 159.770971 
L 413.521794 159.680967 
L 414.004911 159.826732 
L 414.488028 159.701002 
L 415.937378 159.706407 
L 416.420495 158.956341 
L 416.903612 159.210162 
L 417.386729 159.150131 
L 418.83608 159.326243 
L 419.319196 159.274705 
L 419.802313 159.101313 
L 420.28543 159.082649 
L 420.768547 159.538282 
L 421.251664 159.18276 
L 421.734781 159.372376 
L 422.701015 159.415286 
L 423.184131 159.405631 
L 424.150365 159.099731 
L 424.633482 159.168823 
L 425.116599 159.613607 
L 425.599716 159.548557 
L 426.082833 159.303915 
L 426.56595 159.197683 
L 428.981534 159.347542 
L 429.464651 159.231899 
L 430.430885 159.535565 
L 430.914002 159.212669 
L 431.397119 159.350605 
L 431.880235 159.010449 
L 432.363352 159.577426 
L 432.846469 159.346066 
L 433.812703 159.271282 
L 434.29582 159.582383 
L 434.778937 159.202346 
L 435.262054 159.384679 
L 435.74517 159.292158 
L 436.228287 159.356976 
L 436.711404 159.145893 
L 437.194521 159.101161 
L 437.677638 159.326422 
L 438.160755 159.329543 
L 438.643872 159.536034 
L 439.126989 159.403914 
L 440.576339 159.628812 
L 441.542573 159.206096 
L 442.02569 159.228473 
L 442.508807 159.556564 
L 443.475041 159.344892 
L 443.958157 159.371927 
L 444.441274 159.515831 
L 444.924391 159.412729 
L 445.890625 159.516309 
L 446.373742 159.291315 
L 447.339976 159.604475 
L 448.306209 159.478132 
L 448.789326 159.163141 
L 449.75556 159.43178 
L 450.238677 159.352497 
L 450.721794 159.655163 
L 451.204911 159.574333 
L 451.688028 159.285191 
L 452.171144 159.381459 
L 453.137378 159.324402 
L 453.620495 159.458589 
L 454.103612 159.088448 
L 456.03608 159.732886 
L 456.519196 159.821255 
L 457.002313 159.536899 
L 457.968547 159.350916 
L 459.417898 159.64263 
L 460.384131 159.167728 
L 461.350365 159.803997 
L 462.316599 159.420055 
L 462.799716 159.583008 
L 463.76595 159.307652 
L 464.249067 159.83824 
L 464.732183 159.50724 
L 465.2153 159.513531 
L 465.698417 159.750751 
L 466.664651 159.335591 
L 467.147768 159.395116 
L 467.630885 159.244557 
L 468.114002 159.54009 
L 468.597119 159.555156 
L 469.080235 159.443475 
L 469.563352 159.761959 
L 470.046469 159.439606 
L 471.49582 159.493523 
L 471.978937 159.5239 
L 472.462054 159.861896 
L 473.911404 159.462552 
L 476.326989 159.698796 
L 476.810106 159.472698 
L 477.293222 159.801056 
L 477.776339 159.782304 
L 478.259456 159.508473 
L 478.742573 159.517261 
L 479.22569 159.743753 
L 480.191924 159.692201 
L 481.641274 159.799585 
L 483.090625 159.69435 
L 483.573742 160.026117 
L 484.056859 159.533543 
L 484.539976 160.027189 
L 485.023093 159.729629 
L 485.506209 159.834519 
L 485.989326 159.761206 
L 486.472443 159.543284 
L 486.95556 159.661817 
L 487.438677 159.571411 
L 487.921794 159.959909 
L 488.404911 159.747461 
L 489.371144 159.724208 
L 489.854261 159.480784 
L 490.337378 159.593188 
L 490.820495 159.83157 
L 492.269846 159.585146 
L 492.752963 159.439153 
L 493.23608 159.819119 
L 494.202313 159.708435 
L 495.168547 159.662827 
L 495.651664 159.879633 
L 496.134781 159.687496 
L 496.617898 159.74539 
L 497.584131 159.553485 
L 498.067248 159.622187 
L 498.550365 159.415154 
L 499.033482 159.775125 
L 499.999716 159.7147 
L 500.482833 159.783111 
L 500.96595 159.538692 
L 501.932183 159.90848 
L 502.898417 159.477932 
L 503.381534 159.900248 
L 503.864651 159.471127 
L 504.830885 159.601649 
L 505.314002 159.62955 
L 505.797119 159.790189 
L 506.280235 159.513038 
L 506.763352 159.569492 
L 508.212703 159.289072 
L 508.69582 159.471976 
L 509.662054 159.374036 
L 510.14517 159.788639 
L 510.628287 159.147229 
L 511.111404 159.307542 
L 511.594521 159.742232 
L 512.077638 159.67504 
L 512.560755 159.410793 
L 513.043872 159.50115 
L 513.526989 159.385024 
L 514.010106 159.700471 
L 514.976339 159.697331 
L 515.459456 159.766796 
L 515.942573 159.496689 
L 516.42569 159.914742 
L 516.908807 159.448661 
L 517.875041 159.526298 
L 520.290625 160.034643 
L 520.773742 159.930973 
L 521.256859 159.549915 
L 521.739976 160.006157 
L 522.223093 159.85438 
L 522.706209 159.455156 
L 523.189326 159.668607 
L 523.672443 159.711955 
L 524.15556 159.543182 
L 524.638677 159.570787 
L 525.121794 159.952514 
L 526.088028 159.740781 
L 526.571144 160.024092 
L 527.054261 159.773599 
L 528.020495 159.608166 
L 528.503612 159.982724 
L 528.986729 159.745533 
L 529.469846 159.720903 
L 529.952963 159.866206 
L 530.43608 159.519399 
L 531.402313 159.60149 
L 531.88543 159.139675 
L 532.368547 159.711909 
L 533.334781 159.328031 
L 533.817898 159.430813 
L 534.301015 159.414399 
L 534.784131 159.823902 
L 535.267248 159.534425 
L 535.750365 159.454347 
L 536.233482 159.697668 
L 536.716599 159.526248 
L 537.682833 159.530927 
L 538.649067 159.779882 
L 539.6153 159.492664 
L 540.098417 159.429365 
L 541.064651 159.531068 
L 542.997119 159.521309 
L 543.480235 159.282817 
L 543.963352 159.404112 
L 544.446469 159.25863 
L 544.929586 159.297662 
L 545.412703 159.739175 
L 545.89582 159.663931 
L 546.378937 159.352342 
L 546.862054 159.532874 
L 547.34517 159.571296 
L 547.828287 159.304234 
L 548.311404 159.5288 
L 548.794521 159.408174 
L 550.243872 159.446086 
L 550.726989 159.429242 
L 551.210106 159.583049 
L 551.693222 159.256764 
L 552.176339 159.178391 
L 552.659456 159.21655 
L 553.142573 159.500185 
L 554.108807 159.502946 
L 554.591924 159.324808 
L 555.558157 159.452139 
L 556.041274 159.556143 
L 556.524391 159.346862 
L 557.490625 159.795516 
L 557.973742 159.456845 
L 558.456859 159.656084 
L 560.389326 159.54322 
L 560.872443 159.108917 
L 561.35556 159.491197 
L 562.321794 159.747815 
L 562.804911 159.789845 
L 563.771144 159.338114 
L 565.220495 159.667715 
L 566.669846 159.439418 
L 567.152963 159.64441 
L 567.63608 159.326737 
L 568.119196 159.710196 
L 568.602313 159.687435 
L 569.08543 159.374196 
L 569.568547 159.734714 
L 570.051664 159.494122 
L 570.534781 159.644118 
L 571.017898 159.394707 
L 571.984131 159.702644 
L 572.467248 159.587716 
L 572.950365 159.624401 
L 573.916599 159.435365 
L 574.399716 159.643733 
L 574.882833 159.20884 
L 575.36595 159.38156 
L 576.332183 159.524548 
L 576.8153 159.656495 
L 578.264651 159.673257 
L 578.747768 159.341085 
L 579.230885 159.314489 
L 580.197119 159.63012 
L 581.163352 159.545637 
L 581.646469 159.724555 
L 582.612703 159.720195 
L 583.09582 159.732752 
L 583.578937 159.565542 
L 584.062054 159.517618 
L 584.54517 159.65694 
L 585.994521 159.716498 
L 586.477638 159.819512 
L 587.443872 159.449787 
L 588.410106 159.579427 
L 588.893222 159.587575 
L 589.376339 159.313503 
L 589.859456 159.495652 
L 590.342573 159.536232 
L 590.82569 159.875302 
L 591.308807 159.609927 
L 591.791924 159.505796 
L 592.275041 159.744403 
L 592.758157 159.816955 
L 593.724391 159.428054 
L 594.690625 159.509739 
L 595.656859 159.525389 
L 596.139976 159.380383 
L 596.623093 159.604921 
L 597.106209 159.494035 
L 598.072443 159.763635 
L 598.55556 159.45245 
L 600.004911 159.634865 
L 600.488028 159.449201 
L 600.971144 159.901162 
L 601.454261 159.591707 
L 601.937378 159.561419 
L 602.420495 159.824703 
L 602.903612 159.600347 
L 603.386729 159.692118 
L 603.869846 159.669106 
L 604.352963 159.893762 
L 604.83608 159.889638 
L 605.319196 159.714231 
L 605.802313 159.8754 
L 606.768547 159.450661 
L 607.251664 159.637099 
L 607.734781 159.446477 
L 608.217898 159.57453 
L 610.633482 159.62848 
L 611.116599 159.505493 
L 611.599716 159.674214 
L 612.082833 159.519186 
L 612.56595 159.832837 
L 613.532183 159.429122 
L 614.0153 159.757839 
L 614.498417 159.898156 
L 614.981534 159.755126 
L 615.464651 160.112504 
L 615.947768 159.725632 
L 616.914002 159.570341 
L 617.880235 159.729294 
L 618.363352 160.040188 
L 618.846469 160.052854 
L 619.329586 159.896999 
L 619.812703 159.933446 
L 621.262054 159.734445 
L 621.74517 159.968722 
L 622.228287 159.836955 
L 622.711404 160.016696 
L 623.194521 159.606598 
L 624.643872 160.148566 
L 625.126989 159.980135 
L 625.126989 159.980135 
" clip-path="url(#p217d1f41b3)" style="fill: none; stroke: #ff7f0e; stroke-width: 1.5; stroke-linecap: square"/>
   </g>
   <g id="patch_3">
    <path d="M 92.490625 308.63625 
L 92.490625 31.43625 
" style="fill: none; stroke: #000000; stroke-width: 0.8; stroke-linejoin: miter; stroke-linecap: square"/>
   </g>
   <g id="patch_4">
    <path d="M 650.490625 308.63625 
L 650.490625 31.43625 
" style="fill: none; stroke: #000000; stroke-width: 0.8; stroke-linejoin: miter; stroke-linecap: square"/>
   </g>
   <g id="patch_5">
    <path d="M 92.490625 308.63625 
L 650.490625 308.63625 
" style="fill: none; stroke: #000000; stroke-width: 0.8; stroke-linejoin: miter; stroke-linecap: square"/>
   </g>
   <g id="patch_6">
    <path d="M 92.490625 31.43625 
L 650.490625 31.43625 
" style="fill: none; stroke: #000000; stroke-width: 0.8; stroke-linejoin: miter; stroke-linecap: square"/>
   </g>
   <g id="text_12">
    <!-- Generator and Discriminator Loss During Training -->
    <g transform="translate(74.258125 25.43625) scale(0.24 -0.24)">
     <defs>
      <path id="DejaVuSans-47" d="M 3809 666 
L 3809 1919 
L 2778 1919 
L 2778 2438 
L 4434 2438 
L 4434 434 
Q 4069 175 3628 42 
Q 3188 -91 2688 -91 
Q 1594 -91 976 548 
Q 359 1188 359 2328 
Q 359 3472 976 4111 
Q 1594 4750 2688 4750 
Q 3144 4750 3555 4637 
Q 3966 4525 4313 4306 
L 4313 3634 
Q 3963 3931 3569 4081 
Q 3175 4231 2741 4231 
Q 1884 4231 1454 3753 
Q 1025 3275 1025 2328 
Q 1025 1384 1454 906 
Q 1884 428 2741 428 
Q 3075 428 3337 486 
Q 3600 544 3809 666 
z
" transform="scale(0.015625)"/>
      <path id="DejaVuSans-20" transform="scale(0.015625)"/>
      <path id="DejaVuSans-64" d="M 2906 2969 
L 2906 4863 
L 3481 4863 
L 3481 0 
L 2906 0 
L 2906 525 
Q 2725 213 2448 61 
Q 2172 -91 1784 -91 
Q 1150 -91 751 415 
Q 353 922 353 1747 
Q 353 2572 751 3078 
Q 1150 3584 1784 3584 
Q 2172 3584 2448 3432 
Q 2725 3281 2906 2969 
z
M 947 1747 
Q 947 1113 1208 752 
Q 1469 391 1925 391 
Q 2381 391 2643 752 
Q 2906 1113 2906 1747 
Q 2906 2381 2643 2742 
Q 2381 3103 1925 3103 
Q 1469 3103 1208 2742 
Q 947 2381 947 1747 
z
" transform="scale(0.015625)"/>
      <path id="DejaVuSans-44" d="M 1259 4147 
L 1259 519 
L 2022 519 
Q 2988 519 3436 956 
Q 3884 1394 3884 2338 
Q 3884 3275 3436 3711 
Q 2988 4147 2022 4147 
L 1259 4147 
z
M 628 4666 
L 1925 4666 
Q 3281 4666 3915 4102 
Q 4550 3538 4550 2338 
Q 4550 1131 3912 565 
Q 3275 0 1925 0 
L 628 0 
L 628 4666 
z
" transform="scale(0.015625)"/>
      <path id="DejaVuSans-63" d="M 3122 3366 
L 3122 2828 
Q 2878 2963 2633 3030 
Q 2388 3097 2138 3097 
Q 1578 3097 1268 2742 
Q 959 2388 959 1747 
Q 959 1106 1268 751 
Q 1578 397 2138 397 
Q 2388 397 2633 464 
Q 2878 531 3122 666 
L 3122 134 
Q 2881 22 2623 -34 
Q 2366 -91 2075 -91 
Q 1284 -91 818 406 
Q 353 903 353 1747 
Q 353 2603 823 3093 
Q 1294 3584 2113 3584 
Q 2378 3584 2631 3529 
Q 2884 3475 3122 3366 
z
" transform="scale(0.015625)"/>
      <path id="DejaVuSans-6d" d="M 3328 2828 
Q 3544 3216 3844 3400 
Q 4144 3584 4550 3584 
Q 5097 3584 5394 3201 
Q 5691 2819 5691 2113 
L 5691 0 
L 5113 0 
L 5113 2094 
Q 5113 2597 4934 2840 
Q 4756 3084 4391 3084 
Q 3944 3084 3684 2787 
Q 3425 2491 3425 1978 
L 3425 0 
L 2847 0 
L 2847 2094 
Q 2847 2600 2669 2842 
Q 2491 3084 2119 3084 
Q 1678 3084 1418 2786 
Q 1159 2488 1159 1978 
L 1159 0 
L 581 0 
L 581 3500 
L 1159 3500 
L 1159 2956 
Q 1356 3278 1631 3431 
Q 1906 3584 2284 3584 
Q 2666 3584 2933 3390 
Q 3200 3197 3328 2828 
z
" transform="scale(0.015625)"/>
      <path id="DejaVuSans-75" d="M 544 1381 
L 544 3500 
L 1119 3500 
L 1119 1403 
Q 1119 906 1312 657 
Q 1506 409 1894 409 
Q 2359 409 2629 706 
Q 2900 1003 2900 1516 
L 2900 3500 
L 3475 3500 
L 3475 0 
L 2900 0 
L 2900 538 
Q 2691 219 2414 64 
Q 2138 -91 1772 -91 
Q 1169 -91 856 284 
Q 544 659 544 1381 
z
M 1991 3584 
L 1991 3584 
z
" transform="scale(0.015625)"/>
      <path id="DejaVuSans-67" d="M 2906 1791 
Q 2906 2416 2648 2759 
Q 2391 3103 1925 3103 
Q 1463 3103 1205 2759 
Q 947 2416 947 1791 
Q 947 1169 1205 825 
Q 1463 481 1925 481 
Q 2391 481 2648 825 
Q 2906 1169 2906 1791 
z
M 3481 434 
Q 3481 -459 3084 -895 
Q 2688 -1331 1869 -1331 
Q 1566 -1331 1297 -1286 
Q 1028 -1241 775 -1147 
L 775 -588 
Q 1028 -725 1275 -790 
Q 1522 -856 1778 -856 
Q 2344 -856 2625 -561 
Q 2906 -266 2906 331 
L 2906 616 
Q 2728 306 2450 153 
Q 2172 0 1784 0 
Q 1141 0 747 490 
Q 353 981 353 1791 
Q 353 2603 747 3093 
Q 1141 3584 1784 3584 
Q 2172 3584 2450 3431 
Q 2728 3278 2906 2969 
L 2906 3500 
L 3481 3500 
L 3481 434 
z
" transform="scale(0.015625)"/>
      <path id="DejaVuSans-54" d="M -19 4666 
L 3928 4666 
L 3928 4134 
L 2272 4134 
L 2272 0 
L 1638 0 
L 1638 4134 
L -19 4134 
L -19 4666 
z
" transform="scale(0.015625)"/>
     </defs>
     <use xlink:href="#DejaVuSans-47"/>
     <use xlink:href="#DejaVuSans-65" x="77.490234"/>
     <use xlink:href="#DejaVuSans-6e" x="139.013672"/>
     <use xlink:href="#DejaVuSans-65" x="202.392578"/>
     <use xlink:href="#DejaVuSans-72" x="263.916016"/>
     <use xlink:href="#DejaVuSans-61" x="305.029297"/>
     <use xlink:href="#DejaVuSans-74" x="366.308594"/>
     <use xlink:href="#DejaVuSans-6f" x="405.517578"/>
     <use xlink:href="#DejaVuSans-72" x="466.699219"/>
     <use xlink:href="#DejaVuSans-20" x="507.8125"/>
     <use xlink:href="#DejaVuSans-61" x="539.599609"/>
     <use xlink:href="#DejaVuSans-6e" x="600.878906"/>
     <use xlink:href="#DejaVuSans-64" x="664.257812"/>
     <use xlink:href="#DejaVuSans-20" x="727.734375"/>
     <use xlink:href="#DejaVuSans-44" x="759.521484"/>
     <use xlink:href="#DejaVuSans-69" x="836.523438"/>
     <use xlink:href="#DejaVuSans-73" x="864.306641"/>
     <use xlink:href="#DejaVuSans-63" x="916.40625"/>
     <use xlink:href="#DejaVuSans-72" x="971.386719"/>
     <use xlink:href="#DejaVuSans-69" x="1012.5"/>
     <use xlink:href="#DejaVuSans-6d" x="1040.283203"/>
     <use xlink:href="#DejaVuSans-69" x="1137.695312"/>
     <use xlink:href="#DejaVuSans-6e" x="1165.478516"/>
     <use xlink:href="#DejaVuSans-61" x="1228.857422"/>
     <use xlink:href="#DejaVuSans-74" x="1290.136719"/>
     <use xlink:href="#DejaVuSans-6f" x="1329.345703"/>
     <use xlink:href="#DejaVuSans-72" x="1390.527344"/>
     <use xlink:href="#DejaVuSans-20" x="1431.640625"/>
     <use xlink:href="#DejaVuSans-4c" x="1463.427734"/>
     <use xlink:href="#DejaVuSans-6f" x="1517.390625"/>
     <use xlink:href="#DejaVuSans-73" x="1578.572266"/>
     <use xlink:href="#DejaVuSans-73" x="1630.671875"/>
     <use xlink:href="#DejaVuSans-20" x="1682.771484"/>
     <use xlink:href="#DejaVuSans-44" x="1714.558594"/>
     <use xlink:href="#DejaVuSans-75" x="1791.560547"/>
     <use xlink:href="#DejaVuSans-72" x="1854.939453"/>
     <use xlink:href="#DejaVuSans-69" x="1896.052734"/>
     <use xlink:href="#DejaVuSans-6e" x="1923.835938"/>
     <use xlink:href="#DejaVuSans-67" x="1987.214844"/>
     <use xlink:href="#DejaVuSans-20" x="2050.691406"/>
     <use xlink:href="#DejaVuSans-54" x="2082.478516"/>
     <use xlink:href="#DejaVuSans-72" x="2128.8125"/>
     <use xlink:href="#DejaVuSans-61" x="2169.925781"/>
     <use xlink:href="#DejaVuSans-69" x="2231.205078"/>
     <use xlink:href="#DejaVuSans-6e" x="2258.988281"/>
     <use xlink:href="#DejaVuSans-69" x="2322.367188"/>
     <use xlink:href="#DejaVuSans-6e" x="2350.150391"/>
     <use xlink:href="#DejaVuSans-67" x="2413.529297"/>
    </g>
   </g>
   <g id="legend_1">
    <g id="patch_7">
     <path d="M 556.99375 106.14875 
L 636.490625 106.14875 
Q 640.490625 106.14875 640.490625 102.14875 
L 640.490625 45.43625 
Q 640.490625 41.43625 636.490625 41.43625 
L 556.99375 41.43625 
Q 552.99375 41.43625 552.99375 45.43625 
L 552.99375 102.14875 
Q 552.99375 106.14875 556.99375 106.14875 
z
" style="fill: #ffffff; opacity: 0.8; stroke: #cccccc; stroke-linejoin: miter"/>
    </g>
    <g id="line2d_12">
     <path d="M 560.99375 57.633125 
L 580.99375 57.633125 
L 600.99375 57.633125 
" style="fill: none; stroke: #1f77b4; stroke-width: 1.5; stroke-linecap: square"/>
    </g>
    <g id="text_13">
     <!-- G -->
     <g transform="translate(616.99375 64.633125) scale(0.2 -0.2)">
      <use xlink:href="#DejaVuSans-47"/>
     </g>
    </g>
    <g id="line2d_13">
     <path d="M 560.99375 86.989375 
L 580.99375 86.989375 
L 600.99375 86.989375 
" style="fill: none; stroke: #ff7f0e; stroke-width: 1.5; stroke-linecap: square"/>
    </g>
    <g id="text_14">
     <!-- D -->
     <g transform="translate(616.99375 93.989375) scale(0.2 -0.2)">
      <use xlink:href="#DejaVuSans-44"/>
     </g>
    </g>
   </g>
  </g>
 </g>
 <defs>
  <clipPath id="p217d1f41b3">
   <rect x="92.490625" y="31.43625" width="558" height="277.2"/>
  </clipPath>
 </defs>
</svg>
