<?xml version="1.0" encoding="utf-8" standalone="no"?>
<!DOCTYPE svg PUBLIC "-//W3C//DTD SVG 1.1//EN"
  "http://www.w3.org/Graphics/SVG/1.1/DTD/svg11.dtd">
<svg xmlns:xlink="http://www.w3.org/1999/xlink" width="676.564867pt" height="365.54875pt" viewBox="0 0 676.564867 365.54875" xmlns="http://www.w3.org/2000/svg" version="1.1">
 <metadata>
  <rdf:RDF xmlns:dc="http://purl.org/dc/elements/1.1/" xmlns:cc="http://creativecommons.org/ns#" xmlns:rdf="http://www.w3.org/1999/02/22-rdf-syntax-ns#">
   <cc:Work>
    <dc:type rdf:resource="http://purl.org/dc/dcmitype/StillImage"/>
    <dc:date>2024-02-01T07:08:21.307571</dc:date>
    <dc:format>image/svg+xml</dc:format>
    <dc:creator>
     <cc:Agent>
      <dc:title>Matplotlib v3.7.2, https://matplotlib.org/</dc:title>
     </cc:Agent>
    </dc:creator>
   </cc:Work>
  </rdf:RDF>
 </metadata>
 <defs>
  <style type="text/css">*{stroke-linejoin: round; stroke-linecap: butt}</style>
 </defs>
 <g id="figure_1">
  <g id="patch_1">
   <path d="M 0 365.54875 
L 676.564867 365.54875 
L 676.564867 -0 
L 0 -0 
z
" style="fill: #ffffff"/>
  </g>
  <g id="axes_1">
   <g id="patch_2">
    <path d="M 92.490625 308.63625 
L 650.490625 308.63625 
L 650.490625 31.43625 
L 92.490625 31.43625 
z
" style="fill: #ffffff"/>
   </g>
   <g id="matplotlib.axis_1">
    <g id="xtick_1">
     <g id="line2d_1">
      <defs>
       <path id="m57c29344ad" d="M 0 0 
L 0 3.5 
" style="stroke: #000000; stroke-width: 0.8"/>
      </defs>
      <g>
       <use xlink:href="#m57c29344ad" x="117.854261" y="308.63625" style="stroke: #000000; stroke-width: 0.8"/>
      </g>
     </g>
     <g id="text_1">
      <!-- 0 -->
      <g transform="translate(111.491761 330.833125) scale(0.2 -0.2)">
       <defs>
        <path id="DejaVuSans-30" d="M 2034 4250 
Q 1547 4250 1301 3770 
Q 1056 3291 1056 2328 
Q 1056 1369 1301 889 
Q 1547 409 2034 409 
Q 2525 409 2770 889 
Q 3016 1369 3016 2328 
Q 3016 3291 2770 3770 
Q 2525 4250 2034 4250 
z
M 2034 4750 
Q 2819 4750 3233 4129 
Q 3647 3509 3647 2328 
Q 3647 1150 3233 529 
Q 2819 -91 2034 -91 
Q 1250 -91 836 529 
Q 422 1150 422 2328 
Q 422 3509 836 4129 
Q 1250 4750 2034 4750 
z
" transform="scale(0.015625)"/>
       </defs>
       <use xlink:href="#DejaVuSans-30"/>
      </g>
     </g>
    </g>
    <g id="xtick_2">
     <g id="line2d_2">
      <g>
       <use xlink:href="#m57c29344ad" x="193.005777" y="308.63625" style="stroke: #000000; stroke-width: 0.8"/>
      </g>
     </g>
     <g id="text_2">
      <!-- 200 -->
      <g transform="translate(173.918277 330.833125) scale(0.2 -0.2)">
       <defs>
        <path id="DejaVuSans-32" d="M 1228 531 
L 3431 531 
L 3431 0 
L 469 0 
L 469 531 
Q 828 903 1448 1529 
Q 2069 2156 2228 2338 
Q 2531 2678 2651 2914 
Q 2772 3150 2772 3378 
Q 2772 3750 2511 3984 
Q 2250 4219 1831 4219 
Q 1534 4219 1204 4116 
Q 875 4013 500 3803 
L 500 4441 
Q 881 4594 1212 4672 
Q 1544 4750 1819 4750 
Q 2544 4750 2975 4387 
Q 3406 4025 3406 3419 
Q 3406 3131 3298 2873 
Q 3191 2616 2906 2266 
Q 2828 2175 2409 1742 
Q 1991 1309 1228 531 
z
" transform="scale(0.015625)"/>
       </defs>
       <use xlink:href="#DejaVuSans-32"/>
       <use xlink:href="#DejaVuSans-30" x="63.623047"/>
       <use xlink:href="#DejaVuSans-30" x="127.246094"/>
      </g>
     </g>
    </g>
    <g id="xtick_3">
     <g id="line2d_3">
      <g>
       <use xlink:href="#m57c29344ad" x="268.157292" y="308.63625" style="stroke: #000000; stroke-width: 0.8"/>
      </g>
     </g>
     <g id="text_3">
      <!-- 400 -->
      <g transform="translate(249.069792 330.833125) scale(0.2 -0.2)">
       <defs>
        <path id="DejaVuSans-34" d="M 2419 4116 
L 825 1625 
L 2419 1625 
L 2419 4116 
z
M 2253 4666 
L 3047 4666 
L 3047 1625 
L 3713 1625 
L 3713 1100 
L 3047 1100 
L 3047 0 
L 2419 0 
L 2419 1100 
L 313 1100 
L 313 1709 
L 2253 4666 
z
" transform="scale(0.015625)"/>
       </defs>
       <use xlink:href="#DejaVuSans-34"/>
       <use xlink:href="#DejaVuSans-30" x="63.623047"/>
       <use xlink:href="#DejaVuSans-30" x="127.246094"/>
      </g>
     </g>
    </g>
    <g id="xtick_4">
     <g id="line2d_4">
      <g>
       <use xlink:href="#m57c29344ad" x="343.308807" y="308.63625" style="stroke: #000000; stroke-width: 0.8"/>
      </g>
     </g>
     <g id="text_4">
      <!-- 600 -->
      <g transform="translate(324.221307 330.833125) scale(0.2 -0.2)">
       <defs>
        <path id="DejaVuSans-36" d="M 2113 2584 
Q 1688 2584 1439 2293 
Q 1191 2003 1191 1497 
Q 1191 994 1439 701 
Q 1688 409 2113 409 
Q 2538 409 2786 701 
Q 3034 994 3034 1497 
Q 3034 2003 2786 2293 
Q 2538 2584 2113 2584 
z
M 3366 4563 
L 3366 3988 
Q 3128 4100 2886 4159 
Q 2644 4219 2406 4219 
Q 1781 4219 1451 3797 
Q 1122 3375 1075 2522 
Q 1259 2794 1537 2939 
Q 1816 3084 2150 3084 
Q 2853 3084 3261 2657 
Q 3669 2231 3669 1497 
Q 3669 778 3244 343 
Q 2819 -91 2113 -91 
Q 1303 -91 875 529 
Q 447 1150 447 2328 
Q 447 3434 972 4092 
Q 1497 4750 2381 4750 
Q 2619 4750 2861 4703 
Q 3103 4656 3366 4563 
z
" transform="scale(0.015625)"/>
       </defs>
       <use xlink:href="#DejaVuSans-36"/>
       <use xlink:href="#DejaVuSans-30" x="63.623047"/>
       <use xlink:href="#DejaVuSans-30" x="127.246094"/>
      </g>
     </g>
    </g>
    <g id="xtick_5">
     <g id="line2d_5">
      <g>
       <use xlink:href="#m57c29344ad" x="418.460322" y="308.63625" style="stroke: #000000; stroke-width: 0.8"/>
      </g>
     </g>
     <g id="text_5">
      <!-- 800 -->
      <g transform="translate(399.372822 330.833125) scale(0.2 -0.2)">
       <defs>
        <path id="DejaVuSans-38" d="M 2034 2216 
Q 1584 2216 1326 1975 
Q 1069 1734 1069 1313 
Q 1069 891 1326 650 
Q 1584 409 2034 409 
Q 2484 409 2743 651 
Q 3003 894 3003 1313 
Q 3003 1734 2745 1975 
Q 2488 2216 2034 2216 
z
M 1403 2484 
Q 997 2584 770 2862 
Q 544 3141 544 3541 
Q 544 4100 942 4425 
Q 1341 4750 2034 4750 
Q 2731 4750 3128 4425 
Q 3525 4100 3525 3541 
Q 3525 3141 3298 2862 
Q 3072 2584 2669 2484 
Q 3125 2378 3379 2068 
Q 3634 1759 3634 1313 
Q 3634 634 3220 271 
Q 2806 -91 2034 -91 
Q 1263 -91 848 271 
Q 434 634 434 1313 
Q 434 1759 690 2068 
Q 947 2378 1403 2484 
z
M 1172 3481 
Q 1172 3119 1398 2916 
Q 1625 2713 2034 2713 
Q 2441 2713 2670 2916 
Q 2900 3119 2900 3481 
Q 2900 3844 2670 4047 
Q 2441 4250 2034 4250 
Q 1625 4250 1398 4047 
Q 1172 3844 1172 3481 
z
" transform="scale(0.015625)"/>
       </defs>
       <use xlink:href="#DejaVuSans-38"/>
       <use xlink:href="#DejaVuSans-30" x="63.623047"/>
       <use xlink:href="#DejaVuSans-30" x="127.246094"/>
      </g>
     </g>
    </g>
    <g id="xtick_6">
     <g id="line2d_6">
      <g>
       <use xlink:href="#m57c29344ad" x="493.611837" y="308.63625" style="stroke: #000000; stroke-width: 0.8"/>
      </g>
     </g>
     <g id="text_6">
      <!-- 1000 -->
      <g transform="translate(468.161837 330.833125) scale(0.2 -0.2)">
       <defs>
        <path id="DejaVuSans-31" d="M 794 531 
L 1825 531 
L 1825 4091 
L 703 3866 
L 703 4441 
L 1819 4666 
L 2450 4666 
L 2450 531 
L 3481 531 
L 3481 0 
L 794 0 
L 794 531 
z
" transform="scale(0.015625)"/>
       </defs>
       <use xlink:href="#DejaVuSans-31"/>
       <use xlink:href="#DejaVuSans-30" x="63.623047"/>
       <use xlink:href="#DejaVuSans-30" x="127.246094"/>
       <use xlink:href="#DejaVuSans-30" x="190.869141"/>
      </g>
     </g>
    </g>
    <g id="xtick_7">
     <g id="line2d_7">
      <g>
       <use xlink:href="#m57c29344ad" x="568.763352" y="308.63625" style="stroke: #000000; stroke-width: 0.8"/>
      </g>
     </g>
     <g id="text_7">
      <!-- 1200 -->
      <g transform="translate(543.313352 330.833125) scale(0.2 -0.2)">
       <use xlink:href="#DejaVuSans-31"/>
       <use xlink:href="#DejaVuSans-32" x="63.623047"/>
       <use xlink:href="#DejaVuSans-30" x="127.246094"/>
       <use xlink:href="#DejaVuSans-30" x="190.869141"/>
      </g>
     </g>
    </g>
    <g id="xtick_8">
     <g id="line2d_8">
      <g>
       <use xlink:href="#m57c29344ad" x="643.914867" y="308.63625" style="stroke: #000000; stroke-width: 0.8"/>
      </g>
     </g>
     <g id="text_8">
      <!-- 1400 -->
      <g transform="translate(618.464867 330.833125) scale(0.2 -0.2)">
       <use xlink:href="#DejaVuSans-31"/>
       <use xlink:href="#DejaVuSans-34" x="63.623047"/>
       <use xlink:href="#DejaVuSans-30" x="127.246094"/>
       <use xlink:href="#DejaVuSans-30" x="190.869141"/>
      </g>
     </g>
    </g>
    <g id="text_9">
     <!-- iterations -->
     <g transform="translate(324.035938 354.189375) scale(0.2 -0.2)">
      <defs>
       <path id="DejaVuSans-69" d="M 603 3500 
L 1178 3500 
L 1178 0 
L 603 0 
L 603 3500 
z
M 603 4863 
L 1178 4863 
L 1178 4134 
L 603 4134 
L 603 4863 
z
" transform="scale(0.015625)"/>
       <path id="DejaVuSans-74" d="M 1172 4494 
L 1172 3500 
L 2356 3500 
L 2356 3053 
L 1172 3053 
L 1172 1153 
Q 1172 725 1289 603 
Q 1406 481 1766 481 
L 2356 481 
L 2356 0 
L 1766 0 
Q 1100 0 847 248 
Q 594 497 594 1153 
L 594 3053 
L 172 3053 
L 172 3500 
L 594 3500 
L 594 4494 
L 1172 4494 
z
" transform="scale(0.015625)"/>
       <path id="DejaVuSans-65" d="M 3597 1894 
L 3597 1613 
L 953 1613 
Q 991 1019 1311 708 
Q 1631 397 2203 397 
Q 2534 397 2845 478 
Q 3156 559 3463 722 
L 3463 178 
Q 3153 47 2828 -22 
Q 2503 -91 2169 -91 
Q 1331 -91 842 396 
Q 353 884 353 1716 
Q 353 2575 817 3079 
Q 1281 3584 2069 3584 
Q 2775 3584 3186 3129 
Q 3597 2675 3597 1894 
z
M 3022 2063 
Q 3016 2534 2758 2815 
Q 2500 3097 2075 3097 
Q 1594 3097 1305 2825 
Q 1016 2553 972 2059 
L 3022 2063 
z
" transform="scale(0.015625)"/>
       <path id="DejaVuSans-72" d="M 2631 2963 
Q 2534 3019 2420 3045 
Q 2306 3072 2169 3072 
Q 1681 3072 1420 2755 
Q 1159 2438 1159 1844 
L 1159 0 
L 581 0 
L 581 3500 
L 1159 3500 
L 1159 2956 
Q 1341 3275 1631 3429 
Q 1922 3584 2338 3584 
Q 2397 3584 2469 3576 
Q 2541 3569 2628 3553 
L 2631 2963 
z
" transform="scale(0.015625)"/>
       <path id="DejaVuSans-61" d="M 2194 1759 
Q 1497 1759 1228 1600 
Q 959 1441 959 1056 
Q 959 750 1161 570 
Q 1363 391 1709 391 
Q 2188 391 2477 730 
Q 2766 1069 2766 1631 
L 2766 1759 
L 2194 1759 
z
M 3341 1997 
L 3341 0 
L 2766 0 
L 2766 531 
Q 2569 213 2275 61 
Q 1981 -91 1556 -91 
Q 1019 -91 701 211 
Q 384 513 384 1019 
Q 384 1609 779 1909 
Q 1175 2209 1959 2209 
L 2766 2209 
L 2766 2266 
Q 2766 2663 2505 2880 
Q 2244 3097 1772 3097 
Q 1472 3097 1187 3025 
Q 903 2953 641 2809 
L 641 3341 
Q 956 3463 1253 3523 
Q 1550 3584 1831 3584 
Q 2591 3584 2966 3190 
Q 3341 2797 3341 1997 
z
" transform="scale(0.015625)"/>
       <path id="DejaVuSans-6f" d="M 1959 3097 
Q 1497 3097 1228 2736 
Q 959 2375 959 1747 
Q 959 1119 1226 758 
Q 1494 397 1959 397 
Q 2419 397 2687 759 
Q 2956 1122 2956 1747 
Q 2956 2369 2687 2733 
Q 2419 3097 1959 3097 
z
M 1959 3584 
Q 2709 3584 3137 3096 
Q 3566 2609 3566 1747 
Q 3566 888 3137 398 
Q 2709 -91 1959 -91 
Q 1206 -91 779 398 
Q 353 888 353 1747 
Q 353 2609 779 3096 
Q 1206 3584 1959 3584 
z
" transform="scale(0.015625)"/>
       <path id="DejaVuSans-6e" d="M 3513 2113 
L 3513 0 
L 2938 0 
L 2938 2094 
Q 2938 2591 2744 2837 
Q 2550 3084 2163 3084 
Q 1697 3084 1428 2787 
Q 1159 2491 1159 1978 
L 1159 0 
L 581 0 
L 581 3500 
L 1159 3500 
L 1159 2956 
Q 1366 3272 1645 3428 
Q 1925 3584 2291 3584 
Q 2894 3584 3203 3211 
Q 3513 2838 3513 2113 
z
" transform="scale(0.015625)"/>
       <path id="DejaVuSans-73" d="M 2834 3397 
L 2834 2853 
Q 2591 2978 2328 3040 
Q 2066 3103 1784 3103 
Q 1356 3103 1142 2972 
Q 928 2841 928 2578 
Q 928 2378 1081 2264 
Q 1234 2150 1697 2047 
L 1894 2003 
Q 2506 1872 2764 1633 
Q 3022 1394 3022 966 
Q 3022 478 2636 193 
Q 2250 -91 1575 -91 
Q 1294 -91 989 -36 
Q 684 19 347 128 
L 347 722 
Q 666 556 975 473 
Q 1284 391 1588 391 
Q 1994 391 2212 530 
Q 2431 669 2431 922 
Q 2431 1156 2273 1281 
Q 2116 1406 1581 1522 
L 1381 1569 
Q 847 1681 609 1914 
Q 372 2147 372 2553 
Q 372 3047 722 3315 
Q 1072 3584 1716 3584 
Q 2034 3584 2315 3537 
Q 2597 3491 2834 3397 
z
" transform="scale(0.015625)"/>
      </defs>
      <use xlink:href="#DejaVuSans-69"/>
      <use xlink:href="#DejaVuSans-74" x="27.783203"/>
      <use xlink:href="#DejaVuSans-65" x="66.992188"/>
      <use xlink:href="#DejaVuSans-72" x="128.515625"/>
      <use xlink:href="#DejaVuSans-61" x="169.628906"/>
      <use xlink:href="#DejaVuSans-74" x="230.908203"/>
      <use xlink:href="#DejaVuSans-69" x="270.117188"/>
      <use xlink:href="#DejaVuSans-6f" x="297.900391"/>
      <use xlink:href="#DejaVuSans-6e" x="359.082031"/>
      <use xlink:href="#DejaVuSans-73" x="422.460938"/>
     </g>
    </g>
   </g>
   <g id="matplotlib.axis_2">
    <g id="ytick_1">
     <g id="line2d_9">
      <defs>
       <path id="m5f2a83f399" d="M 0 0 
L -3.5 0 
" style="stroke: #000000; stroke-width: 0.8"/>
      </defs>
      <g>
       <use xlink:href="#m5f2a83f399" x="92.490625" y="233.89928" style="stroke: #000000; stroke-width: 0.8"/>
      </g>
     </g>
     <g id="text_10">
      <!-- −200 -->
      <g transform="translate(30.55625 241.497718) scale(0.2 -0.2)">
       <defs>
        <path id="DejaVuSans-2212" d="M 678 2272 
L 4684 2272 
L 4684 1741 
L 678 1741 
L 678 2272 
z
" transform="scale(0.015625)"/>
       </defs>
       <use xlink:href="#DejaVuSans-2212"/>
       <use xlink:href="#DejaVuSans-32" x="83.789062"/>
       <use xlink:href="#DejaVuSans-30" x="147.412109"/>
       <use xlink:href="#DejaVuSans-30" x="211.035156"/>
      </g>
     </g>
    </g>
    <g id="ytick_2">
     <g id="line2d_10">
      <g>
       <use xlink:href="#m5f2a83f399" x="92.490625" y="156.400898" style="stroke: #000000; stroke-width: 0.8"/>
      </g>
     </g>
     <g id="text_11">
      <!-- 0 -->
      <g transform="translate(72.765625 163.999335) scale(0.2 -0.2)">
       <use xlink:href="#DejaVuSans-30"/>
      </g>
     </g>
    </g>
    <g id="ytick_3">
     <g id="line2d_11">
      <g>
       <use xlink:href="#m5f2a83f399" x="92.490625" y="78.902515" style="stroke: #000000; stroke-width: 0.8"/>
      </g>
     </g>
     <g id="text_12">
      <!-- 200 -->
      <g transform="translate(47.315625 86.500953) scale(0.2 -0.2)">
       <use xlink:href="#DejaVuSans-32"/>
       <use xlink:href="#DejaVuSans-30" x="63.623047"/>
       <use xlink:href="#DejaVuSans-30" x="127.246094"/>
      </g>
     </g>
    </g>
    <g id="text_13">
     <!-- Loss -->
     <g transform="translate(22.396875 191.970625) rotate(-90) scale(0.2 -0.2)">
      <defs>
       <path id="DejaVuSans-4c" d="M 628 4666 
L 1259 4666 
L 1259 531 
L 3531 531 
L 3531 0 
L 628 0 
L 628 4666 
z
" transform="scale(0.015625)"/>
      </defs>
      <use xlink:href="#DejaVuSans-4c"/>
      <use xlink:href="#DejaVuSans-6f" x="53.962891"/>
      <use xlink:href="#DejaVuSans-73" x="115.144531"/>
      <use xlink:href="#DejaVuSans-73" x="167.244141"/>
     </g>
    </g>
   </g>
   <g id="line2d_12">
    <path d="M 117.854261 136.140105 
L 118.230019 119.386488 
L 118.605777 97.658702 
L 119.357292 132.66545 
L 119.733049 131.50223 
L 120.108807 109.074995 
L 120.484564 70.056914 
L 120.860322 54.902085 
L 121.23608 57.926545 
L 121.611837 54.948943 
L 121.987595 45.679812 
L 122.363352 44.03625 
L 122.73911 46.554003 
L 123.114867 46.4645 
L 123.490625 61.12117 
L 123.866383 55.452144 
L 124.24214 47.371821 
L 124.617898 48.94424 
L 124.993655 60.27658 
L 125.369413 67.071176 
L 125.74517 67.466942 
L 126.120928 72.47849 
L 126.496686 69.342872 
L 127.623958 94.790736 
L 127.999716 91.969084 
L 128.375473 93.229692 
L 128.751231 92.7299 
L 129.126989 100.783666 
L 129.502746 98.377732 
L 129.878504 103.555557 
L 130.254261 102.926982 
L 130.630019 106.843558 
L 131.005777 103.849343 
L 131.381534 107.982067 
L 131.757292 104.046284 
L 132.133049 105.454914 
L 132.508807 106.159588 
L 132.884564 109.279874 
L 133.260322 108.658111 
L 133.63608 113.348977 
L 134.011837 112.802562 
L 134.387595 112.886724 
L 135.514867 117.192842 
L 136.266383 121.529548 
L 136.64214 117.759482 
L 137.017898 121.031451 
L 137.393655 117.874613 
L 137.769413 123.929319 
L 138.520928 125.098673 
L 138.896686 122.790211 
L 139.272443 126.681087 
L 139.648201 124.35353 
L 140.023958 124.598737 
L 140.399716 127.579039 
L 141.151231 125.949512 
L 141.526989 128.740085 
L 141.902746 127.119974 
L 142.278504 126.066819 
L 142.654261 124.500406 
L 143.030019 128.099512 
L 143.405777 127.64869 
L 143.781534 124.880741 
L 144.157292 126.072068 
L 144.533049 125.0338 
L 145.284564 128.291852 
L 145.660322 127.820071 
L 146.03608 128.384262 
L 146.411837 127.725314 
L 146.787595 130.487021 
L 147.163352 124.764492 
L 147.914867 131.03801 
L 148.290625 129.370054 
L 148.666383 128.507903 
L 149.04214 129.992741 
L 149.417898 127.025059 
L 149.793655 128.463137 
L 150.169413 132.280888 
L 150.54517 126.205151 
L 150.920928 127.786885 
L 151.296686 128.36622 
L 151.672443 130.870562 
L 152.048201 129.202161 
L 152.423958 130.454508 
L 152.799716 129.324651 
L 153.175473 131.486962 
L 153.551231 126.280908 
L 153.926989 129.134088 
L 154.302746 127.71524 
L 154.678504 127.933912 
L 155.054261 130.968429 
L 155.430019 131.451701 
L 155.805777 128.47423 
L 156.181534 131.651787 
L 156.557292 132.517027 
L 156.933049 132.328264 
L 157.308807 131.551236 
L 157.684564 127.719658 
L 158.060322 129.542392 
L 158.43608 129.013006 
L 158.811837 133.998128 
L 159.187595 132.652585 
L 159.563352 134.846951 
L 159.93911 134.467355 
L 160.314867 136.200018 
L 160.690625 135.546954 
L 161.066383 132.983733 
L 161.44214 132.881623 
L 161.817898 135.628088 
L 162.193655 134.707247 
L 162.569413 132.554932 
L 162.94517 134.507047 
L 163.320928 133.025755 
L 163.696686 139.875843 
L 164.072443 134.53711 
L 164.448201 138.060798 
L 164.823958 135.610679 
L 165.199716 134.071004 
L 165.575473 137.174334 
L 165.951231 138.894034 
L 166.326989 134.346656 
L 166.702746 133.628541 
L 167.078504 139.905496 
L 167.454261 139.351825 
L 167.830019 141.054145 
L 168.205777 140.309269 
L 168.581534 138.998649 
L 169.333049 139.653628 
L 169.708807 140.618431 
L 170.084564 137.012362 
L 170.460322 139.155162 
L 171.587595 136.511355 
L 171.963352 140.473876 
L 172.33911 136.474656 
L 172.714867 137.701627 
L 173.090625 137.834537 
L 173.466383 137.004483 
L 173.84214 137.949913 
L 174.217898 137.668135 
L 174.593655 141.592374 
L 174.969413 138.273643 
L 175.34517 140.58307 
L 176.096686 137.903665 
L 176.472443 139.007768 
L 176.848201 138.482864 
L 177.223958 137.668388 
L 177.599716 137.640647 
L 177.975473 137.021624 
L 178.351231 136.006231 
L 178.726989 137.474276 
L 179.102746 137.944546 
L 179.478504 135.579974 
L 179.854261 135.523171 
L 180.230019 137.942839 
L 180.605777 138.274288 
L 180.981534 140.577836 
L 181.733049 137.334687 
L 182.108807 137.22565 
L 183.23608 140.935747 
L 183.611837 138.706081 
L 183.987595 138.031621 
L 184.363352 141.258663 
L 184.73911 139.099333 
L 185.114867 141.369672 
L 185.490625 137.77225 
L 185.866383 137.347757 
L 186.24214 140.418194 
L 186.617898 139.414461 
L 186.993655 138.878593 
L 187.74517 142.18506 
L 188.120928 141.024633 
L 188.496686 141.071503 
L 188.872443 143.735901 
L 189.248201 143.388929 
L 189.999716 142.271918 
L 190.375473 144.383795 
L 190.751231 145.16363 
L 191.126989 144.086809 
L 191.502746 143.883762 
L 191.878504 144.458331 
L 192.254261 144.067005 
L 192.630019 144.523268 
L 193.005777 144.575892 
L 193.381534 144.057221 
L 193.757292 145.96549 
L 194.508807 142.712513 
L 194.884564 143.651971 
L 195.63608 146.492216 
L 196.011837 144.780635 
L 196.387595 144.081637 
L 196.763352 144.851548 
L 197.13911 146.190345 
L 197.514867 144.657309 
L 197.890625 145.82573 
L 198.64214 143.079696 
L 199.017898 144.296385 
L 199.393655 144.961194 
L 199.769413 143.808949 
L 200.14517 143.997531 
L 200.520928 146.215528 
L 200.896686 144.776813 
L 201.272443 144.718914 
L 201.648201 147.279174 
L 202.023958 145.481445 
L 202.399716 144.759004 
L 202.775473 144.778459 
L 203.526989 147.19603 
L 203.902746 145.77178 
L 204.278504 146.071329 
L 204.654261 146.691365 
L 205.030019 146.571939 
L 205.405777 146.757617 
L 205.781534 146.584022 
L 206.157292 145.073014 
L 206.533049 146.164435 
L 206.908807 146.019355 
L 207.284564 143.897742 
L 207.660322 143.447988 
L 208.03608 143.242848 
L 208.411837 144.033963 
L 208.787595 145.291173 
L 209.163352 144.827294 
L 209.53911 145.635636 
L 209.914867 145.168239 
L 210.666383 145.380979 
L 211.04214 145.052218 
L 211.417898 146.595932 
L 211.793655 146.597405 
L 212.169413 146.024231 
L 212.54517 146.12066 
L 212.920928 145.644051 
L 213.296686 145.637259 
L 213.672443 145.064343 
L 214.048201 146.527707 
L 214.423958 146.054691 
L 214.799716 146.378687 
L 215.175473 147.244862 
L 215.551231 147.743065 
L 216.302746 145.699305 
L 216.678504 145.614191 
L 217.430019 146.032133 
L 217.805777 145.842341 
L 218.181534 145.851376 
L 218.557292 147.242077 
L 219.308807 145.384992 
L 219.684564 144.331136 
L 220.060322 145.156912 
L 220.43608 145.113214 
L 220.811837 146.046768 
L 221.187595 146.109475 
L 221.563352 146.358465 
L 221.93911 147.967362 
L 222.314867 145.834115 
L 222.690625 145.471832 
L 223.066383 145.909016 
L 223.44214 145.176336 
L 223.817898 145.312189 
L 224.193655 144.622425 
L 224.569413 146.161472 
L 224.94517 145.988952 
L 225.320928 145.609696 
L 225.696686 146.340256 
L 226.072443 145.255584 
L 226.448201 146.137073 
L 226.823958 145.934825 
L 227.575473 144.794355 
L 227.951231 145.822868 
L 228.326989 146.259016 
L 228.702746 145.545879 
L 229.078504 145.704226 
L 229.454261 143.833665 
L 229.830019 143.39312 
L 230.581534 144.764031 
L 230.957292 141.471619 
L 231.333049 143.258355 
L 231.708807 142.1225 
L 232.084564 142.770739 
L 232.83608 140.613826 
L 233.211837 140.124447 
L 233.587595 139.984476 
L 233.963352 140.198564 
L 234.33911 139.866343 
L 234.714867 140.192398 
L 235.090625 139.209319 
L 235.466383 137.699922 
L 235.84214 138.211979 
L 236.217898 137.472748 
L 236.593655 135.659297 
L 236.969413 136.513748 
L 237.34517 136.846126 
L 237.720928 136.708991 
L 238.472443 136.991124 
L 238.848201 137.518005 
L 239.223958 137.284661 
L 239.599716 136.19745 
L 239.975473 135.462121 
L 240.351231 135.642996 
L 240.726989 135.398218 
L 241.102746 133.458761 
L 241.854261 134.309588 
L 242.605777 133.713049 
L 242.981534 133.073662 
L 243.357292 133.282183 
L 243.733049 134.055024 
L 244.108807 133.006076 
L 244.484564 133.292302 
L 244.860322 134.015364 
L 245.23608 133.691593 
L 245.611837 133.654318 
L 245.987595 134.463807 
L 246.363352 134.107787 
L 246.73911 134.925327 
L 247.114867 134.93708 
L 247.490625 134.225088 
L 247.866383 135.658831 
L 248.24214 135.124509 
L 248.617898 134.892409 
L 248.993655 136.184751 
L 249.369413 135.805301 
L 249.74517 136.403224 
L 250.120928 136.162705 
L 250.496686 137.044153 
L 250.872443 136.978352 
L 251.248201 137.257002 
L 252.375473 138.599311 
L 252.751231 138.164326 
L 253.126989 138.148874 
L 253.502746 138.875902 
L 253.878504 139.009496 
L 254.254261 138.996887 
L 254.630019 139.359301 
L 255.005777 140.196006 
L 255.757292 139.446259 
L 256.133049 139.624629 
L 256.508807 139.175819 
L 256.884564 140.360832 
L 257.260322 140.507721 
L 257.63608 140.277501 
L 258.011837 140.344361 
L 258.387595 139.688527 
L 258.763352 139.764017 
L 259.13911 140.47098 
L 259.514867 140.823755 
L 259.890625 140.00849 
L 260.266383 140.867939 
L 261.017898 140.809753 
L 261.393655 141.309758 
L 262.14517 140.6429 
L 262.520928 141.04968 
L 262.896686 141.153351 
L 263.272443 140.423128 
L 263.648201 140.617213 
L 264.023958 140.614077 
L 264.399716 141.862909 
L 264.775473 141.540245 
L 265.151231 141.368711 
L 265.526989 141.72775 
L 265.902746 141.138194 
L 266.278504 141.33949 
L 267.030019 141.923022 
L 267.405777 141.878898 
L 267.781534 141.446056 
L 268.157292 142.348734 
L 268.533049 142.177576 
L 268.908807 142.347438 
L 269.284564 142.125741 
L 270.03608 142.400078 
L 270.411837 142.475297 
L 270.787595 142.970731 
L 271.163352 143.255098 
L 271.914867 142.624791 
L 272.290625 142.940462 
L 272.666383 142.544034 
L 273.04214 142.637308 
L 273.417898 143.49133 
L 273.793655 143.441073 
L 274.169413 142.498801 
L 274.920928 143.267946 
L 275.296686 143.508972 
L 275.672443 144.054366 
L 276.048201 144.34474 
L 276.423958 144.041871 
L 276.799716 143.350409 
L 277.175473 143.766515 
L 277.551231 143.467922 
L 278.302746 144.488671 
L 278.678504 144.668617 
L 279.054261 144.67175 
L 279.430019 145.670451 
L 279.805777 145.760743 
L 280.181534 146.258358 
L 280.933049 147.847549 
L 281.308807 148.41856 
L 281.684564 148.68886 
L 282.060322 148.046676 
L 282.43608 148.448831 
L 282.811837 147.839463 
L 283.187595 148.048703 
L 283.563352 148.580042 
L 283.93911 148.47331 
L 284.314867 148.869761 
L 284.690625 148.968766 
L 285.817898 148.022524 
L 286.193655 148.76923 
L 286.569413 148.372024 
L 286.94517 148.493244 
L 287.320928 148.478269 
L 287.696686 148.748364 
L 288.823958 148.377159 
L 289.199716 148.893702 
L 289.951231 149.112677 
L 290.326989 148.8705 
L 290.702746 149.059157 
L 291.078504 148.448253 
L 291.454261 148.639738 
L 291.830019 148.443988 
L 292.205777 148.854225 
L 292.581534 148.831863 
L 292.957292 149.493462 
L 293.333049 149.32119 
L 293.708807 148.955499 
L 294.460322 149.348102 
L 294.83608 149.343716 
L 295.211837 149.914771 
L 295.587595 149.513644 
L 295.963352 149.769645 
L 296.714867 149.281482 
L 297.090625 149.528568 
L 297.466383 150.340114 
L 297.84214 149.765789 
L 298.217898 149.810813 
L 298.593655 150.424258 
L 298.969413 149.525793 
L 299.34517 149.916599 
L 300.096686 149.784206 
L 300.472443 149.297795 
L 301.223958 149.799474 
L 301.599716 150.375535 
L 301.975473 150.047529 
L 302.351231 150.061927 
L 302.726989 150.378216 
L 303.102746 149.992059 
L 303.478504 149.896424 
L 303.854261 150.321031 
L 304.230019 150.541045 
L 304.605777 150.338546 
L 304.981534 150.392109 
L 305.357292 150.798539 
L 305.733049 150.783767 
L 306.108807 150.475998 
L 306.484564 150.561397 
L 306.860322 150.76721 
L 307.23608 150.404802 
L 307.611837 150.591651 
L 307.987595 150.610028 
L 308.363352 150.43635 
L 308.73911 150.758872 
L 309.490625 150.626565 
L 309.866383 150.923386 
L 310.24214 151.43372 
L 310.617898 150.559952 
L 310.993655 150.812884 
L 311.369413 151.217041 
L 311.74517 151.339018 
L 312.120928 151.682673 
L 312.496686 151.686438 
L 312.872443 151.245356 
L 313.248201 151.340401 
L 313.623958 151.189276 
L 314.375473 151.459706 
L 314.751231 151.102673 
L 315.126989 151.462666 
L 315.502746 150.909301 
L 315.878504 151.435733 
L 316.254261 151.265245 
L 316.630019 151.238926 
L 317.005777 151.036157 
L 317.381534 151.155105 
L 317.757292 151.430886 
L 318.133049 151.182892 
L 318.884564 151.762198 
L 319.63608 151.339679 
L 320.011837 152.078093 
L 320.387595 151.541049 
L 320.763352 152.217249 
L 321.13911 151.720446 
L 321.890625 152.453899 
L 322.266383 152.47466 
L 322.64214 152.178387 
L 323.017898 152.557004 
L 323.393655 151.581745 
L 324.14517 152.08738 
L 324.520928 151.927755 
L 324.896686 151.923196 
L 325.648201 152.252462 
L 326.023958 151.786521 
L 326.399716 151.652429 
L 326.775473 152.266472 
L 327.151231 151.899119 
L 327.526989 151.93214 
L 327.902746 151.812318 
L 328.278504 151.389304 
L 328.654261 151.815481 
L 329.030019 151.796132 
L 329.781534 152.379641 
L 330.157292 152.494751 
L 330.533049 152.357874 
L 330.908807 151.779789 
L 331.284564 151.870045 
L 331.660322 151.81871 
L 332.411837 152.744623 
L 332.787595 152.027593 
L 333.53911 152.579643 
L 333.914867 151.995365 
L 334.290625 152.91781 
L 334.666383 152.035264 
L 335.04214 152.038265 
L 335.417898 152.223482 
L 335.793655 152.150448 
L 336.54517 152.494614 
L 336.920928 153.040017 
L 337.672443 152.224673 
L 338.048201 152.337672 
L 338.423958 152.756649 
L 338.799716 152.018976 
L 339.175473 152.465712 
L 339.551231 152.591943 
L 339.926989 152.545378 
L 340.302746 152.874846 
L 341.054261 153.082897 
L 341.430019 153.593069 
L 341.805777 153.244655 
L 342.181534 153.559309 
L 342.557292 153.291544 
L 342.933049 153.297665 
L 344.060322 153.69826 
L 344.43608 153.675887 
L 344.811837 154.340532 
L 345.187595 153.994852 
L 345.563352 154.429286 
L 345.93911 154.116396 
L 346.314867 154.144122 
L 347.066383 154.426372 
L 347.44214 154.494814 
L 347.817898 154.264573 
L 348.193655 154.362213 
L 348.569413 154.155068 
L 349.320928 154.004674 
L 349.696686 153.935798 
L 350.072443 154.459518 
L 350.448201 154.768638 
L 350.823958 154.579417 
L 351.199716 155.456125 
L 352.702746 155.400505 
L 353.078504 155.46561 
L 353.454261 155.063341 
L 353.830019 155.62921 
L 354.205777 155.636871 
L 354.957292 155.925934 
L 355.333049 155.242112 
L 355.708807 155.242005 
L 356.084564 155.431229 
L 356.460322 155.342126 
L 356.83608 155.675356 
L 357.211837 155.317863 
L 357.587595 155.312605 
L 357.963352 155.587132 
L 358.33911 155.539639 
L 358.714867 155.212933 
L 359.466383 155.795154 
L 360.969413 155.96858 
L 361.34517 155.538262 
L 362.096686 155.561329 
L 362.472443 155.127905 
L 362.848201 155.427119 
L 363.223958 154.904094 
L 363.599716 155.655727 
L 363.975473 155.442788 
L 364.351231 155.553067 
L 364.726989 155.221002 
L 365.102746 155.211599 
L 365.478504 155.376185 
L 365.854261 155.325448 
L 366.230019 155.754255 
L 366.605777 156.000229 
L 366.981534 155.642691 
L 367.357292 155.71339 
L 367.733049 155.55804 
L 368.108807 156.06054 
L 369.611837 155.963129 
L 369.987595 155.754411 
L 370.363352 155.876285 
L 371.114867 156.499908 
L 371.490625 156.33346 
L 372.24214 156.593919 
L 372.617898 156.8335 
L 372.993655 156.668702 
L 373.369413 156.794918 
L 373.74517 156.476798 
L 374.496686 156.337321 
L 374.872443 156.607915 
L 376.375473 156.199787 
L 376.751231 156.409511 
L 377.126989 156.418915 
L 377.878504 156.920316 
L 379.005777 156.500873 
L 379.381534 156.703038 
L 379.757292 156.705211 
L 380.133049 157.113282 
L 380.508807 156.699662 
L 381.260322 157.104351 
L 381.63608 157.024251 
L 382.011837 156.489976 
L 382.387595 156.827424 
L 383.13911 156.908301 
L 383.514867 156.981501 
L 383.890625 156.459182 
L 384.266383 156.947286 
L 384.64214 157.035849 
L 385.017898 156.907641 
L 385.393655 156.962777 
L 385.769413 156.661193 
L 386.14517 156.696036 
L 386.520928 156.53097 
L 386.896686 156.491423 
L 387.272443 156.746532 
L 387.648201 156.511599 
L 388.023958 157.237169 
L 388.399716 156.881704 
L 388.775473 157.134891 
L 389.151231 156.859105 
L 389.902746 157.091594 
L 391.030019 157.060549 
L 391.405777 156.659538 
L 391.781534 156.484064 
L 392.157292 157.089212 
L 392.533049 156.919912 
L 392.908807 157.220388 
L 394.03608 156.938472 
L 394.411837 156.524485 
L 394.787595 156.773895 
L 395.53911 156.595714 
L 395.914867 156.120883 
L 396.290625 156.279941 
L 396.666383 156.10918 
L 397.04214 156.802168 
L 397.417898 156.50623 
L 398.169413 156.570882 
L 398.920928 156.085815 
L 399.296686 156.558871 
L 400.048201 156.428751 
L 400.423958 156.743505 
L 400.799716 156.563803 
L 401.175473 156.865861 
L 401.551231 156.778252 
L 401.926989 156.87216 
L 403.054261 156.796657 
L 403.430019 156.349296 
L 403.805777 156.889186 
L 405.308807 156.72056 
L 405.684564 156.948533 
L 406.060322 156.867149 
L 406.811837 156.924917 
L 407.187595 157.307309 
L 407.563352 157.138188 
L 408.690625 157.020573 
L 409.066383 157.242116 
L 409.44214 156.89345 
L 409.817898 156.954108 
L 410.193655 156.868894 
L 410.569413 156.91237 
L 410.94517 157.117368 
L 411.320928 157.564812 
L 411.696686 157.002444 
L 412.823958 157.304028 
L 413.199716 157.064388 
L 413.575473 157.098418 
L 414.326989 157.402296 
L 414.702746 157.157317 
L 415.454261 157.305286 
L 415.830019 157.041411 
L 416.957292 157.02764 
L 417.333049 157.231152 
L 418.084564 157.13538 
L 418.460322 156.949878 
L 418.83608 157.166234 
L 419.211837 156.814488 
L 419.963352 156.947148 
L 421.090625 157.092111 
L 421.466383 157.169659 
L 421.84214 156.863023 
L 422.593655 156.897315 
L 422.969413 157.19827 
L 423.34517 157.229496 
L 424.472443 156.590116 
L 425.223958 157.064287 
L 425.599716 156.939517 
L 426.351231 157.183636 
L 426.726989 156.978618 
L 427.854261 157.215952 
L 428.230019 156.659101 
L 428.605777 157.073064 
L 429.733049 156.957331 
L 430.108807 157.355872 
L 430.860322 156.861785 
L 431.23608 157.05704 
L 431.611837 156.635702 
L 431.987595 156.752532 
L 432.363352 156.679933 
L 432.73911 156.857354 
L 433.114867 156.844268 
L 433.490625 157.049871 
L 434.24214 157.113893 
L 434.993655 156.859888 
L 435.369413 157.006028 
L 436.120928 156.903558 
L 436.496686 157.157826 
L 436.872443 157.005948 
L 437.248201 156.707447 
L 437.623958 156.7611 
L 437.999716 156.965757 
L 438.751231 156.879134 
L 439.126989 157.015963 
L 439.502746 156.933193 
L 439.878504 156.5966 
L 440.254261 156.938272 
L 441.005777 156.619101 
L 441.381534 156.905403 
L 442.508807 156.840711 
L 442.884564 156.98429 
L 443.260322 156.784391 
L 443.63608 156.950945 
L 444.011837 156.845454 
L 444.387595 156.944772 
L 444.763352 156.738596 
L 445.13911 156.985249 
L 445.514867 156.798298 
L 447.017898 157.228802 
L 447.393655 157.085884 
L 447.769413 157.29452 
L 448.14517 157.358049 
L 448.896686 156.767647 
L 449.272443 157.276589 
L 449.648201 156.969462 
L 450.023958 157.357298 
L 450.399716 157.315657 
L 450.775473 156.992552 
L 451.151231 157.255557 
L 451.526989 157.107822 
L 451.902746 157.194068 
L 452.278504 156.964599 
L 453.030019 156.881277 
L 453.405777 156.857108 
L 453.781534 157.127138 
L 454.157292 156.814408 
L 455.284564 157.181291 
L 455.660322 157.127673 
L 456.03608 156.920315 
L 457.163352 157.081161 
L 457.53911 156.862729 
L 458.290625 157.202825 
L 458.666383 156.860582 
L 459.04214 157.04992 
L 459.793655 157.097812 
L 460.169413 156.884484 
L 460.920928 157.04506 
L 461.296686 157.240259 
L 461.672443 157.081584 
L 462.048201 157.06549 
L 462.423958 156.804342 
L 463.175473 156.900257 
L 463.551231 156.620796 
L 463.926989 156.584278 
L 464.302746 156.28696 
L 465.054261 157.002038 
L 465.430019 156.78861 
L 465.805777 157.04417 
L 466.557292 156.965016 
L 466.933049 156.958457 
L 467.308807 157.162572 
L 467.684564 157.050881 
L 468.060322 156.783993 
L 468.43608 157.317478 
L 468.811837 157.24046 
L 469.187595 157.293773 
L 470.314867 157.01247 
L 470.690625 156.930029 
L 471.066383 157.151737 
L 471.44214 156.774057 
L 471.817898 157.071522 
L 472.193655 157.188691 
L 472.569413 157.071641 
L 473.320928 157.157254 
L 474.072443 157.214291 
L 474.448201 157.15898 
L 474.823958 157.360904 
L 475.575473 156.997702 
L 475.951231 157.194465 
L 476.326989 156.958928 
L 476.702746 157.207504 
L 477.454261 157.123454 
L 477.830019 157.379931 
L 478.581534 156.781357 
L 478.957292 156.843251 
L 479.333049 157.025809 
L 479.708807 156.672248 
L 480.084564 156.997018 
L 480.460322 156.767273 
L 481.211837 156.891964 
L 481.587595 156.525233 
L 481.963352 157.069887 
L 482.33911 156.711689 
L 483.090625 156.629385 
L 483.466383 156.921364 
L 483.84214 156.741025 
L 484.217898 156.931866 
L 484.593655 156.869437 
L 484.969413 156.95297 
L 485.34517 157.325228 
L 485.720928 157.298327 
L 486.096686 156.965534 
L 486.848201 157.174368 
L 487.223958 157.216075 
L 487.599716 156.922971 
L 487.975473 157.106337 
L 488.726989 157.022951 
L 489.102746 157.332163 
L 489.478504 157.168667 
L 490.230019 157.453814 
L 490.605777 156.994763 
L 490.981534 156.99318 
L 491.357292 157.190726 
L 491.733049 156.968555 
L 492.108807 157.005915 
L 492.484564 157.276595 
L 492.860322 157.026292 
L 493.23608 157.241281 
L 493.611837 156.931915 
L 494.363352 156.664016 
L 494.73911 156.84604 
L 495.490625 156.780014 
L 495.866383 156.673134 
L 496.24214 156.824006 
L 496.617898 157.168924 
L 496.993655 157.190466 
L 498.496686 156.75704 
L 498.872443 157.067917 
L 499.248201 157.201226 
L 499.623958 157.552285 
L 499.999716 157.393819 
L 500.375473 157.356464 
L 500.751231 157.099451 
L 501.126989 157.305882 
L 502.254261 156.954412 
L 502.630019 157.08658 
L 503.381534 156.716346 
L 503.757292 156.814848 
L 504.133049 156.794005 
L 504.508807 157.097061 
L 504.884564 156.752772 
L 505.260322 156.809305 
L 505.63608 156.726122 
L 506.387595 156.853729 
L 507.13911 156.558932 
L 507.890625 156.821823 
L 508.266383 156.637478 
L 508.64214 157.228641 
L 509.017898 156.790699 
L 509.393655 156.873658 
L 509.769413 156.761293 
L 510.520928 157.043346 
L 510.896686 156.626639 
L 511.272443 156.745497 
L 511.648201 156.735423 
L 512.023958 156.589803 
L 512.399716 156.967555 
L 512.775473 156.991546 
L 513.902746 156.619805 
L 514.278504 157.033005 
L 514.654261 156.256251 
L 515.030019 156.560651 
L 515.781534 156.581748 
L 516.533049 156.40131 
L 516.908807 156.379756 
L 518.03608 156.669645 
L 518.787595 156.541291 
L 519.163352 156.336147 
L 519.53911 156.331775 
L 519.914867 156.531117 
L 520.666383 156.429771 
L 521.04214 156.726495 
L 521.417898 156.686724 
L 521.793655 156.912091 
L 522.54517 156.765474 
L 522.920928 157.007131 
L 523.296686 156.657293 
L 524.048201 156.765566 
L 524.423958 156.676975 
L 524.799716 156.774615 
L 525.175473 156.676206 
L 525.551231 156.897556 
L 525.926989 156.580199 
L 526.302746 157.002127 
L 527.054261 156.38125 
L 528.557292 156.42652 
L 529.308807 156.166888 
L 529.684564 156.676661 
L 530.060322 156.607214 
L 530.43608 156.813065 
L 530.811837 156.685717 
L 531.563352 156.584306 
L 531.93911 156.45115 
L 532.314867 156.524964 
L 532.690625 156.857067 
L 533.44214 156.844767 
L 534.193655 157.035811 
L 534.569413 156.956528 
L 534.94517 156.700263 
L 535.696686 156.982464 
L 536.072443 156.829137 
L 536.823958 156.851996 
L 537.199716 156.630005 
L 537.951231 156.813495 
L 538.326989 156.530259 
L 539.078504 156.526709 
L 539.454261 156.791914 
L 539.830019 156.70857 
L 540.205777 156.482309 
L 540.581534 156.748484 
L 540.957292 156.667525 
L 542.83608 156.873798 
L 543.211837 156.665598 
L 543.587595 156.969997 
L 543.963352 156.868234 
L 544.33911 156.394809 
L 545.090625 156.935192 
L 545.466383 156.648261 
L 545.84214 156.779428 
L 546.217898 156.637957 
L 546.593655 156.767656 
L 546.969413 157.115061 
L 547.34517 156.695413 
L 547.720928 156.494281 
L 548.472443 156.707596 
L 548.848201 157.044696 
L 549.223958 156.747812 
L 549.975473 156.681122 
L 550.351231 156.917042 
L 551.102746 156.556288 
L 551.478504 156.971636 
L 551.854261 156.724337 
L 552.230019 156.872701 
L 552.605777 156.814154 
L 552.981534 156.950991 
L 553.357292 156.807323 
L 553.733049 157.214683 
L 554.108807 157.158081 
L 554.484564 156.902606 
L 554.860322 157.197934 
L 555.23608 157.274166 
L 555.611837 157.006934 
L 555.987595 156.933382 
L 557.114867 157.299545 
L 557.866383 157.317807 
L 558.24214 157.395789 
L 558.617898 157.229788 
L 561.248201 157.153888 
L 561.623958 157.218635 
L 561.999716 157.4042 
L 563.126989 157.319612 
L 563.502746 157.066366 
L 563.878504 157.030827 
L 564.254261 157.208899 
L 565.381534 157.305866 
L 565.757292 157.147753 
L 566.133049 157.478512 
L 566.508807 157.431349 
L 566.884564 157.151738 
L 567.260322 157.064506 
L 567.63608 157.277349 
L 569.13911 157.153039 
L 569.514867 157.424577 
L 569.890625 157.185398 
L 570.266383 157.377459 
L 570.64214 157.38607 
L 571.017898 157.16414 
L 571.769413 157.543701 
L 572.14517 157.473206 
L 572.520928 157.186025 
L 572.896686 157.440872 
L 573.272443 157.398754 
L 573.648201 157.230969 
L 574.399716 157.136352 
L 574.775473 157.396812 
L 575.151231 157.236476 
L 575.526989 157.410381 
L 576.278504 157.339079 
L 576.654261 157.452236 
L 577.405777 157.458858 
L 577.781534 157.609286 
L 578.157292 157.397912 
L 578.533049 157.363696 
L 578.908807 157.095948 
L 579.284564 157.451459 
L 579.660322 157.228895 
L 580.03608 157.165011 
L 580.411837 157.243152 
L 580.787595 157.461782 
L 581.163352 157.176534 
L 581.53911 157.386941 
L 581.914867 157.297579 
L 582.290625 157.720571 
L 582.666383 157.405566 
L 583.04214 157.685948 
L 583.417898 157.731368 
L 584.169413 157.459591 
L 584.54517 157.829444 
L 584.920928 157.401019 
L 585.296686 157.383646 
L 585.672443 157.688003 
L 586.423958 157.478963 
L 586.799716 157.611723 
L 587.551231 157.463038 
L 587.926989 157.196849 
L 588.302746 157.450248 
L 588.678504 157.273119 
L 589.054261 157.486691 
L 589.430019 157.248067 
L 589.805777 157.398509 
L 590.181534 157.413549 
L 590.557292 157.544717 
L 592.43608 157.351241 
L 592.811837 157.047504 
L 593.563352 157.474026 
L 595.066383 157.608809 
L 595.44214 157.616021 
L 595.817898 157.762144 
L 596.193655 157.577958 
L 596.569413 157.748481 
L 596.94517 157.674787 
L 597.320928 157.367928 
L 598.072443 157.731152 
L 598.448201 157.675192 
L 598.823958 157.388196 
L 599.199716 157.723952 
L 599.575473 157.425709 
L 600.326989 157.276192 
L 600.702746 157.243702 
L 601.078504 157.371686 
L 601.454261 157.311179 
L 601.830019 157.480472 
L 602.205777 157.333347 
L 602.957292 157.435204 
L 603.333049 157.213202 
L 603.708807 157.42264 
L 604.460322 157.516533 
L 604.83608 157.397726 
L 605.211837 157.471742 
L 605.587595 157.400704 
L 605.963352 157.452568 
L 606.33911 157.118808 
L 606.714867 157.121419 
L 607.090625 157.320368 
L 607.466383 157.065685 
L 607.84214 157.480127 
L 608.217898 157.580221 
L 608.593655 157.941956 
L 608.969413 157.99473 
L 609.34517 157.392726 
L 609.720928 157.62587 
L 611.599716 157.479241 
L 612.351231 157.186928 
L 612.726989 157.031504 
L 613.478504 157.135997 
L 614.981534 157.586261 
L 616.108807 157.040234 
L 616.484564 157.45804 
L 617.23608 157.401577 
L 617.611837 157.215256 
L 617.987595 157.63279 
L 618.363352 157.174889 
L 618.73911 157.436009 
L 619.114867 157.246168 
L 619.490625 157.449039 
L 619.866383 157.233074 
L 620.617898 157.574156 
L 620.993655 157.242756 
L 621.369413 157.222277 
L 621.74517 156.961946 
L 622.496686 157.24139 
L 622.872443 157.275007 
L 623.248201 157.133943 
L 623.623958 157.306623 
L 623.999716 157.068769 
L 624.375473 157.364376 
L 624.751231 157.305828 
L 625.126989 157.579262 
L 625.126989 157.579262 
" clip-path="url(#p9075d984ea)" style="fill: none; stroke: #1f77b4; stroke-width: 1.5; stroke-linecap: square"/>
   </g>
   <g id="line2d_13">
    <path d="M 117.854261 254.938135 
L 118.230019 296.03625 
L 118.981534 208.813361 
L 119.357292 187.276667 
L 119.733049 189.706367 
L 120.108807 199.947919 
L 120.484564 215.797721 
L 121.23608 198.696802 
L 121.611837 195.653424 
L 122.73911 184.771631 
L 123.114867 181.518091 
L 123.490625 172.836631 
L 123.866383 177.084168 
L 124.24214 176.002442 
L 124.617898 180.292152 
L 125.369413 176.06466 
L 125.74517 175.975991 
L 126.120928 174.803012 
L 126.496686 176.218112 
L 126.872443 174.095347 
L 127.248201 172.621992 
L 127.623958 174.243191 
L 127.999716 176.566693 
L 128.375473 173.999041 
L 128.751231 173.336092 
L 129.126989 171.437928 
L 129.502746 173.335198 
L 129.878504 172.257273 
L 130.254261 172.221129 
L 130.630019 171.317887 
L 131.005777 174.228225 
L 131.381534 174.212043 
L 131.757292 172.3616 
L 132.133049 174.62792 
L 132.884564 173.635043 
L 133.260322 172.33708 
L 133.63608 172.44086 
L 134.011837 171.153063 
L 134.387595 171.94099 
L 134.763352 171.945602 
L 135.13911 172.134762 
L 135.514867 171.688203 
L 135.890625 172.966357 
L 136.266383 172.10459 
L 136.64214 171.552824 
L 137.017898 172.491549 
L 137.393655 173.746198 
L 137.769413 171.707896 
L 138.520928 171.970886 
L 138.896686 170.970049 
L 139.648201 171.354679 
L 140.399716 173.167313 
L 141.151231 172.811369 
L 141.526989 171.409545 
L 142.278504 174.302414 
L 142.654261 172.613514 
L 143.030019 172.593085 
L 143.405777 171.222889 
L 143.781534 171.566571 
L 144.157292 172.197917 
L 144.908807 172.719121 
L 145.284564 172.528508 
L 145.660322 171.880279 
L 146.03608 171.604792 
L 146.411837 172.486302 
L 146.787595 172.588694 
L 147.163352 173.111377 
L 147.53911 171.824538 
L 147.914867 171.427537 
L 148.290625 172.134662 
L 148.666383 172.388463 
L 149.04214 172.99041 
L 149.793655 173.19691 
L 150.169413 172.615522 
L 150.54517 173.116519 
L 150.920928 174.450834 
L 151.672443 173.067075 
L 152.048201 173.406221 
L 152.423958 172.090916 
L 152.799716 173.59965 
L 153.175473 173.205076 
L 153.926989 175.600819 
L 154.302746 175.336454 
L 154.678504 175.347132 
L 155.054261 172.839012 
L 155.430019 174.86629 
L 155.805777 172.849161 
L 156.181534 173.691814 
L 156.557292 174.198152 
L 156.933049 175.266 
L 157.308807 173.253777 
L 157.684564 175.196099 
L 158.060322 176.064354 
L 158.43608 174.710514 
L 158.811837 174.716729 
L 159.187595 174.534071 
L 159.563352 173.717343 
L 159.93911 174.202458 
L 160.314867 175.168232 
L 160.690625 173.329799 
L 161.066383 173.707572 
L 161.44214 175.512934 
L 161.817898 175.412587 
L 162.569413 174.236053 
L 162.94517 174.495109 
L 163.320928 174.457927 
L 163.696686 173.598044 
L 164.072443 173.556798 
L 164.448201 174.226957 
L 164.823958 172.842117 
L 165.199716 174.033998 
L 165.575473 171.82722 
L 165.951231 173.466877 
L 166.326989 171.590813 
L 166.702746 173.837477 
L 167.078504 174.196744 
L 167.830019 172.477713 
L 168.205777 174.105548 
L 168.581534 170.266629 
L 168.957292 170.28206 
L 169.333049 170.728368 
L 169.708807 172.379129 
L 170.084564 172.545078 
L 170.460322 173.10725 
L 170.83608 172.727759 
L 171.587595 171.206784 
L 171.963352 172.85732 
L 172.33911 169.132799 
L 172.714867 167.331023 
L 173.090625 169.746138 
L 173.466383 170.89915 
L 173.84214 171.197267 
L 174.217898 171.290808 
L 174.593655 170.065879 
L 174.969413 170.701915 
L 175.34517 169.38946 
L 175.720928 169.828205 
L 176.096686 167.50936 
L 176.472443 169.867771 
L 176.848201 170.174255 
L 177.223958 169.140012 
L 177.599716 169.54945 
L 177.975473 171.783569 
L 178.351231 168.517541 
L 178.726989 168.987571 
L 179.102746 168.750076 
L 179.854261 171.450895 
L 180.230019 171.729048 
L 180.605777 171.055364 
L 180.981534 168.730249 
L 181.357292 170.262241 
L 181.733049 171.317043 
L 182.108807 170.891562 
L 182.484564 168.43404 
L 183.23608 169.887103 
L 183.611837 170.685864 
L 183.987595 167.229364 
L 184.363352 169.860336 
L 184.73911 170.315567 
L 185.114867 166.725035 
L 185.490625 168.727225 
L 185.866383 168.558664 
L 186.617898 169.35949 
L 186.993655 169.370134 
L 187.369413 169.961826 
L 187.74517 168.556259 
L 188.120928 170.718922 
L 188.496686 168.860858 
L 188.872443 170.40796 
L 189.248201 167.685218 
L 189.623958 168.199201 
L 190.375473 170.578275 
L 191.126989 169.629412 
L 191.878504 169.775695 
L 192.254261 170.735877 
L 192.630019 170.170243 
L 193.005777 170.533776 
L 193.381534 170.003519 
L 193.757292 170.422865 
L 194.133049 169.232927 
L 194.508807 168.608221 
L 194.884564 168.981682 
L 195.260322 169.866374 
L 195.63608 168.866532 
L 196.011837 170.029044 
L 196.387595 169.272354 
L 196.763352 170.493606 
L 197.13911 169.511944 
L 197.514867 169.666177 
L 197.890625 170.312552 
L 198.64214 170.441513 
L 199.017898 169.193993 
L 199.393655 170.700225 
L 199.769413 170.408394 
L 200.14517 170.390795 
L 200.520928 168.707613 
L 200.896686 168.567834 
L 201.272443 168.555006 
L 201.648201 169.782664 
L 202.023958 169.375414 
L 202.399716 170.828587 
L 202.775473 169.300857 
L 203.151231 169.55813 
L 203.526989 168.334885 
L 203.902746 167.962417 
L 204.654261 169.137734 
L 205.030019 169.272664 
L 205.405777 168.226628 
L 205.781534 169.71668 
L 206.533049 167.264729 
L 206.908807 168.508186 
L 207.284564 168.568905 
L 207.660322 169.47394 
L 208.03608 167.353207 
L 208.787595 169.12375 
L 209.163352 167.556371 
L 209.53911 167.498236 
L 209.914867 168.372565 
L 210.290625 166.057744 
L 210.666383 168.455916 
L 211.04214 169.283844 
L 211.793655 168.434012 
L 212.54517 169.942208 
L 212.920928 171.442653 
L 213.296686 170.744467 
L 213.672443 169.635116 
L 214.048201 169.531875 
L 214.423958 169.192391 
L 214.799716 171.219978 
L 215.175473 169.751376 
L 215.551231 168.883082 
L 215.926989 169.9975 
L 216.302746 170.620432 
L 216.678504 170.428596 
L 217.054261 169.78904 
L 217.430019 171.271427 
L 217.805777 170.455118 
L 218.557292 169.500853 
L 219.684564 171.378662 
L 220.060322 169.724076 
L 220.43608 169.908073 
L 220.811837 170.59831 
L 221.187595 168.845588 
L 221.93911 170.196902 
L 222.314867 170.477496 
L 222.690625 169.453045 
L 223.066383 170.539155 
L 223.44214 170.41447 
L 223.817898 170.541219 
L 224.193655 170.364321 
L 224.569413 169.476405 
L 225.320928 170.988097 
L 225.696686 170.720209 
L 226.072443 170.610929 
L 226.448201 170.250932 
L 226.823958 170.983601 
L 227.199716 171.334155 
L 227.575473 170.607384 
L 227.951231 171.594585 
L 228.326989 170.74801 
L 228.702746 171.102039 
L 229.078504 165.668203 
L 229.454261 157.260271 
L 229.830019 158.109435 
L 230.581534 158.065066 
L 230.957292 159.253093 
L 231.333049 157.933172 
L 232.084564 159.216684 
L 232.460322 158.952384 
L 232.83608 159.774269 
L 233.211837 159.497486 
L 233.587595 159.514434 
L 233.963352 159.810076 
L 234.33911 159.243292 
L 234.714867 159.990796 
L 235.090625 159.520692 
L 235.466383 160.025602 
L 236.217898 159.908322 
L 236.593655 160.32958 
L 236.969413 160.154614 
L 237.34517 159.818638 
L 237.720928 159.734872 
L 238.096686 159.897215 
L 238.472443 159.637781 
L 238.848201 160.053261 
L 239.223958 159.948993 
L 239.599716 160.615295 
L 239.975473 159.828245 
L 240.351231 159.865906 
L 240.726989 159.767255 
L 241.102746 160.544821 
L 241.478504 159.858306 
L 241.854261 160.628665 
L 242.230019 160.316323 
L 242.605777 160.832474 
L 242.981534 160.978815 
L 243.357292 159.986471 
L 243.733049 159.913214 
L 244.108807 160.487713 
L 244.860322 160.706538 
L 245.611837 160.026634 
L 245.987595 160.417298 
L 246.363352 160.304212 
L 246.73911 160.57298 
L 247.114867 160.25048 
L 247.490625 160.492115 
L 247.866383 160.432943 
L 248.24214 160.643788 
L 248.617898 160.544122 
L 249.369413 160.211009 
L 249.74517 159.614008 
L 250.120928 160.273213 
L 250.872443 159.906737 
L 251.248201 160.47459 
L 251.623958 159.342558 
L 251.999716 159.780157 
L 252.375473 159.273843 
L 253.126989 159.899822 
L 253.502746 159.765321 
L 253.878504 159.897305 
L 254.254261 159.424204 
L 254.630019 159.791611 
L 255.005777 159.646656 
L 255.381534 159.29827 
L 255.757292 159.624578 
L 256.133049 159.152912 
L 256.508807 159.176085 
L 256.884564 159.064748 
L 257.260322 159.418686 
L 257.63608 159.253508 
L 258.387595 159.800961 
L 258.763352 159.610222 
L 259.13911 159.767646 
L 259.514867 159.258101 
L 259.890625 159.465059 
L 260.266383 159.516275 
L 260.64214 159.389562 
L 261.769413 159.476896 
L 262.14517 159.130857 
L 262.896686 159.603505 
L 263.272443 158.947125 
L 263.648201 159.258055 
L 264.399716 159.591428 
L 264.775473 159.406045 
L 265.151231 159.503871 
L 265.526989 158.876726 
L 265.902746 159.627697 
L 266.278504 159.631467 
L 266.654261 159.09707 
L 267.030019 159.191761 
L 267.405777 159.851682 
L 267.781534 159.400114 
L 268.157292 159.600971 
L 268.533049 159.400481 
L 268.908807 159.734207 
L 269.284564 159.494294 
L 270.03608 159.609264 
L 271.163352 159.752787 
L 271.53911 159.198844 
L 271.914867 159.908282 
L 272.290625 159.466196 
L 272.666383 159.699557 
L 273.04214 159.645381 
L 273.417898 160.019621 
L 273.793655 159.595929 
L 275.672443 159.606665 
L 276.048201 159.94807 
L 276.423958 159.719841 
L 276.799716 159.649272 
L 277.175473 162.848622 
L 277.551231 158.196261 
L 277.926989 159.594087 
L 278.302746 159.816541 
L 278.678504 159.585803 
L 279.054261 159.791473 
L 279.430019 159.62025 
L 279.805777 159.814353 
L 280.181534 159.681243 
L 280.557292 159.994622 
L 280.933049 159.768833 
L 281.308807 159.373059 
L 282.43608 159.860811 
L 282.811837 159.527404 
L 283.187595 159.690969 
L 283.563352 159.504895 
L 283.93911 159.835262 
L 284.314867 159.449771 
L 284.690625 159.812848 
L 285.066383 159.550961 
L 285.44214 159.758294 
L 286.193655 159.550144 
L 286.94517 159.683732 
L 287.320928 159.744483 
L 288.072443 159.492884 
L 288.448201 159.886462 
L 288.823958 159.425712 
L 289.951231 159.597965 
L 290.702746 159.507324 
L 291.078504 159.820618 
L 291.454261 159.745091 
L 292.205777 159.926608 
L 292.581534 159.71463 
L 292.957292 160.015056 
L 293.333049 159.538858 
L 294.460322 160.086147 
L 294.83608 159.750671 
L 295.587595 159.785548 
L 295.963352 159.464118 
L 296.33911 159.979955 
L 296.714867 160.123462 
L 297.090625 159.783599 
L 297.84214 159.852492 
L 298.217898 159.76547 
L 298.593655 159.849602 
L 298.969413 160.331629 
L 299.34517 159.971812 
L 299.720928 159.825108 
L 300.096686 159.831308 
L 300.472443 160.129987 
L 300.848201 160.084658 
L 301.223958 160.428929 
L 301.599716 159.703395 
L 303.102746 159.86017 
L 303.478504 160.021164 
L 303.854261 159.838181 
L 304.230019 160.044828 
L 304.981534 159.802884 
L 305.357292 160.08104 
L 305.733049 159.821094 
L 306.108807 159.862872 
L 306.484564 159.664279 
L 307.23608 159.991116 
L 307.611837 159.845669 
L 307.987595 159.564818 
L 308.363352 159.790168 
L 308.73911 159.71072 
L 309.114867 159.947068 
L 309.866383 159.906012 
L 310.24214 159.76006 
L 310.617898 159.991688 
L 311.369413 159.622636 
L 311.74517 159.63479 
L 312.120928 160.404745 
L 312.496686 159.638482 
L 312.872443 159.88917 
L 313.248201 159.97846 
L 313.623958 159.696818 
L 313.999716 160.236157 
L 314.375473 160.100391 
L 314.751231 159.790208 
L 315.126989 160.004479 
L 315.502746 159.662231 
L 315.878504 159.830562 
L 316.254261 160.244886 
L 316.630019 160.341749 
L 317.005777 159.687567 
L 317.381534 159.846473 
L 317.757292 159.855453 
L 318.133049 159.645816 
L 318.508807 159.946496 
L 318.884564 159.753758 
L 319.260322 160.061147 
L 320.763352 159.708261 
L 321.13911 159.433518 
L 321.890625 159.985576 
L 322.266383 159.963234 
L 322.64214 160.270411 
L 323.017898 159.757382 
L 324.14517 160.045401 
L 324.896686 159.52485 
L 325.648201 159.783737 
L 326.023958 160.015356 
L 326.399716 159.970082 
L 326.775473 159.466431 
L 327.526989 159.635054 
L 328.278504 159.885683 
L 328.654261 159.906866 
L 329.030019 159.816491 
L 329.405777 159.598509 
L 329.781534 159.9902 
L 330.157292 159.46575 
L 330.533049 159.562266 
L 330.908807 159.920128 
L 331.284564 159.713966 
L 331.660322 159.773368 
L 332.411837 159.604772 
L 333.163352 159.926805 
L 333.53911 159.652873 
L 334.666383 159.965805 
L 335.04214 159.683187 
L 335.417898 159.548664 
L 336.169413 159.707622 
L 336.54517 159.896745 
L 336.920928 159.945302 
L 337.296686 159.644816 
L 338.048201 159.736002 
L 338.423958 159.510788 
L 339.175473 159.811761 
L 340.302746 159.450157 
L 340.678504 159.792891 
L 341.805777 159.629241 
L 342.181534 159.587784 
L 342.557292 159.78791 
L 342.933049 159.697469 
L 344.060322 159.848373 
L 344.43608 159.419198 
L 345.187595 159.72341 
L 345.93911 159.395262 
L 346.314867 159.633672 
L 346.690625 159.68716 
L 347.066383 159.473452 
L 347.44214 159.770971 
L 347.817898 159.680967 
L 348.193655 159.826732 
L 348.569413 159.701002 
L 349.696686 159.706407 
L 350.072443 158.956341 
L 350.448201 159.210162 
L 350.823958 159.150131 
L 351.951231 159.326243 
L 352.326989 159.274705 
L 352.702746 159.101313 
L 353.078504 159.082649 
L 353.454261 159.538282 
L 353.830019 159.18276 
L 354.205777 159.372376 
L 354.957292 159.415286 
L 355.333049 159.405631 
L 356.084564 159.099731 
L 356.460322 159.168823 
L 356.83608 159.613607 
L 357.211837 159.548557 
L 357.587595 159.303915 
L 357.963352 159.197683 
L 359.84214 159.347542 
L 360.217898 159.231899 
L 360.969413 159.535565 
L 361.34517 159.212669 
L 361.720928 159.350605 
L 362.096686 159.010449 
L 362.472443 159.577426 
L 362.848201 159.346066 
L 363.599716 159.271282 
L 363.975473 159.582383 
L 364.351231 159.202346 
L 364.726989 159.384679 
L 365.102746 159.292158 
L 365.478504 159.356976 
L 365.854261 159.145893 
L 366.230019 159.101161 
L 366.605777 159.326422 
L 366.981534 159.329543 
L 367.357292 159.536034 
L 367.733049 159.403914 
L 368.860322 159.628812 
L 369.611837 159.206096 
L 369.987595 159.228473 
L 370.363352 159.556564 
L 371.114867 159.344892 
L 371.490625 159.371927 
L 371.866383 159.515831 
L 372.24214 159.412729 
L 372.993655 159.516309 
L 373.369413 159.291315 
L 374.120928 159.604475 
L 374.872443 159.478132 
L 375.248201 159.163141 
L 375.999716 159.43178 
L 376.375473 159.352497 
L 376.751231 159.655163 
L 377.126989 159.574333 
L 377.502746 159.285191 
L 377.878504 159.381459 
L 378.630019 159.324402 
L 379.005777 159.458589 
L 379.381534 159.088448 
L 380.884564 159.732886 
L 381.260322 159.821255 
L 381.63608 159.536899 
L 382.387595 159.350916 
L 383.514867 159.64263 
L 384.266383 159.167728 
L 385.017898 159.803997 
L 385.769413 159.420055 
L 386.14517 159.583008 
L 386.896686 159.307652 
L 387.272443 159.83824 
L 387.648201 159.50724 
L 388.023958 159.513531 
L 388.399716 159.750751 
L 389.151231 159.335591 
L 389.526989 159.395116 
L 389.902746 159.244557 
L 390.278504 159.54009 
L 390.654261 159.555156 
L 391.030019 159.443475 
L 391.405777 159.761959 
L 391.781534 159.439606 
L 392.908807 159.493523 
L 393.284564 159.5239 
L 393.660322 159.861896 
L 394.787595 159.462552 
L 396.666383 159.698796 
L 397.04214 159.472698 
L 397.417898 159.801056 
L 397.793655 159.782304 
L 398.169413 159.508473 
L 398.54517 159.517261 
L 398.920928 159.743753 
L 399.672443 159.692201 
L 400.799716 159.799585 
L 401.926989 159.69435 
L 402.302746 160.026117 
L 402.678504 159.533543 
L 403.054261 160.027189 
L 403.430019 159.729629 
L 403.805777 159.834519 
L 404.181534 159.761206 
L 404.557292 159.543284 
L 404.933049 159.661817 
L 405.308807 159.571411 
L 405.684564 159.959909 
L 406.060322 159.747461 
L 406.811837 159.724208 
L 407.187595 159.480784 
L 407.563352 159.593188 
L 407.93911 159.83157 
L 409.066383 159.585146 
L 409.44214 159.439153 
L 409.817898 159.819119 
L 410.569413 159.708435 
L 411.320928 159.662827 
L 411.696686 159.879633 
L 412.072443 159.687496 
L 412.448201 159.74539 
L 413.199716 159.553485 
L 413.575473 159.622187 
L 413.951231 159.415154 
L 414.326989 159.775125 
L 415.078504 159.7147 
L 415.454261 159.783111 
L 415.830019 159.538692 
L 416.581534 159.90848 
L 417.333049 159.477932 
L 417.708807 159.900248 
L 418.084564 159.471127 
L 418.83608 159.601649 
L 419.211837 159.62955 
L 419.587595 159.790189 
L 419.963352 159.513038 
L 420.33911 159.569492 
L 421.466383 159.289072 
L 421.84214 159.471976 
L 422.593655 159.374036 
L 422.969413 159.788639 
L 423.34517 159.147229 
L 423.720928 159.307542 
L 424.096686 159.742232 
L 424.472443 159.67504 
L 424.848201 159.410793 
L 425.223958 159.50115 
L 425.599716 159.385024 
L 425.975473 159.700471 
L 426.726989 159.697331 
L 427.102746 159.766796 
L 427.478504 159.496689 
L 427.854261 159.914742 
L 428.230019 159.448661 
L 428.981534 159.526298 
L 430.860322 160.034643 
L 431.23608 159.930973 
L 431.611837 159.549915 
L 431.987595 160.006157 
L 432.363352 159.85438 
L 432.73911 159.455156 
L 433.114867 159.668607 
L 433.490625 159.711955 
L 433.866383 159.543182 
L 434.24214 159.570787 
L 434.617898 159.952514 
L 435.369413 159.740781 
L 435.74517 160.024092 
L 436.120928 159.773599 
L 436.872443 159.608166 
L 437.248201 159.982724 
L 437.623958 159.745533 
L 437.999716 159.720903 
L 438.375473 159.866206 
L 438.751231 159.519399 
L 439.502746 159.60149 
L 439.878504 159.139675 
L 440.254261 159.711909 
L 441.005777 159.328031 
L 441.381534 159.430813 
L 441.757292 159.414399 
L 442.133049 159.823902 
L 442.508807 159.534425 
L 442.884564 159.454347 
L 443.260322 159.697668 
L 443.63608 159.526248 
L 444.387595 159.530927 
L 445.13911 159.779882 
L 445.890625 159.492664 
L 446.266383 159.429365 
L 447.017898 159.531068 
L 448.520928 159.521309 
L 448.896686 159.282817 
L 449.272443 159.404112 
L 449.648201 159.25863 
L 450.023958 159.297662 
L 450.399716 159.739175 
L 450.775473 159.663931 
L 451.151231 159.352342 
L 451.526989 159.532874 
L 451.902746 159.571296 
L 452.278504 159.304234 
L 452.654261 159.5288 
L 453.030019 159.408174 
L 454.157292 159.446086 
L 454.533049 159.429242 
L 454.908807 159.583049 
L 455.284564 159.256764 
L 455.660322 159.178391 
L 456.03608 159.21655 
L 456.411837 159.500185 
L 457.163352 159.502946 
L 457.53911 159.324808 
L 458.290625 159.452139 
L 458.666383 159.556143 
L 459.04214 159.346862 
L 459.793655 159.795516 
L 460.169413 159.456845 
L 460.54517 159.656084 
L 462.048201 159.54322 
L 462.423958 159.108917 
L 462.799716 159.491197 
L 463.551231 159.747815 
L 463.926989 159.789845 
L 464.678504 159.338114 
L 465.805777 159.667715 
L 466.933049 159.439418 
L 467.308807 159.64441 
L 467.684564 159.326737 
L 468.060322 159.710196 
L 468.43608 159.687435 
L 468.811837 159.374196 
L 469.187595 159.734714 
L 469.563352 159.494122 
L 469.93911 159.644118 
L 470.314867 159.394707 
L 471.066383 159.702644 
L 471.44214 159.587716 
L 471.817898 159.624401 
L 472.569413 159.435365 
L 472.94517 159.643733 
L 473.320928 159.20884 
L 473.696686 159.38156 
L 474.448201 159.524548 
L 474.823958 159.656495 
L 475.951231 159.673257 
L 476.326989 159.341085 
L 476.702746 159.314489 
L 477.454261 159.63012 
L 478.205777 159.545637 
L 478.581534 159.724555 
L 479.333049 159.720195 
L 479.708807 159.732752 
L 480.460322 159.517618 
L 480.83608 159.65694 
L 481.963352 159.716498 
L 482.33911 159.819512 
L 483.090625 159.449787 
L 483.84214 159.579427 
L 484.217898 159.587575 
L 484.593655 159.313503 
L 484.969413 159.495652 
L 485.34517 159.536232 
L 485.720928 159.875302 
L 486.096686 159.609927 
L 486.472443 159.505796 
L 486.848201 159.744403 
L 487.223958 159.816955 
L 487.975473 159.428054 
L 488.726989 159.509739 
L 489.478504 159.525389 
L 489.854261 159.380383 
L 490.230019 159.604921 
L 490.605777 159.494035 
L 491.357292 159.763635 
L 491.733049 159.45245 
L 492.860322 159.634865 
L 493.23608 159.449201 
L 493.611837 159.901162 
L 493.987595 159.591707 
L 494.363352 159.561419 
L 494.73911 159.824703 
L 495.114867 159.600347 
L 495.490625 159.692118 
L 495.866383 159.669106 
L 496.24214 159.893762 
L 496.617898 159.889638 
L 496.993655 159.714231 
L 497.369413 159.8754 
L 498.120928 159.450661 
L 498.496686 159.637099 
L 498.872443 159.446477 
L 499.248201 159.57453 
L 501.126989 159.62848 
L 501.502746 159.505493 
L 501.878504 159.674214 
L 502.254261 159.519186 
L 502.630019 159.832837 
L 503.381534 159.429122 
L 503.757292 159.757839 
L 504.133049 159.898156 
L 504.508807 159.755126 
L 504.884564 160.112504 
L 505.260322 159.725632 
L 506.011837 159.570341 
L 506.763352 159.729294 
L 507.13911 160.040188 
L 507.514867 160.052854 
L 507.890625 159.896999 
L 508.266383 159.933446 
L 509.393655 159.734445 
L 509.769413 159.968722 
L 510.14517 159.836955 
L 510.520928 160.016696 
L 510.896686 159.606598 
L 512.023958 160.148566 
L 512.399716 159.980135 
L 513.151231 160.26983 
L 513.526989 159.920814 
L 513.902746 159.862846 
L 514.278504 160.12178 
L 515.030019 160.136281 
L 515.405777 160.057228 
L 515.781534 160.21907 
L 516.157292 160.005969 
L 516.533049 160.135018 
L 516.908807 159.881965 
L 517.284564 160.059702 
L 518.03608 159.860121 
L 518.411837 160.081947 
L 520.290625 160.133197 
L 520.666383 159.956105 
L 521.417898 159.806906 
L 521.793655 159.713799 
L 522.169413 160.083397 
L 522.54517 160.00115 
L 523.672443 160.12699 
L 524.048201 159.649867 
L 524.423958 159.990463 
L 525.551231 159.860726 
L 525.926989 160.18576 
L 526.678504 159.780786 
L 527.054261 159.838794 
L 527.430019 159.601415 
L 527.805777 159.949269 
L 528.181534 159.993924 
L 528.557292 159.920866 
L 528.933049 159.729038 
L 529.308807 160.00489 
L 529.684564 159.954406 
L 530.060322 159.6966 
L 530.811837 159.87414 
L 531.563352 159.824099 
L 531.93911 160.081569 
L 532.314867 159.5808 
L 532.690625 159.930805 
L 533.066383 159.626735 
L 533.44214 159.81654 
L 533.817898 159.718918 
L 534.193655 159.936655 
L 534.569413 159.711283 
L 534.94517 159.868317 
L 535.696686 159.679539 
L 536.072443 159.797399 
L 536.823958 159.741714 
L 537.199716 159.552871 
L 537.951231 159.933726 
L 538.326989 160.183809 
L 538.702746 160.00262 
L 539.078504 159.673592 
L 539.830019 159.940752 
L 540.205777 159.645777 
L 540.581534 159.875995 
L 541.333049 159.746021 
L 542.83608 159.865316 
L 544.33911 159.537773 
L 544.714867 159.819234 
L 545.090625 159.630136 
L 545.84214 159.759536 
L 546.217898 159.641354 
L 546.593655 159.859099 
L 546.969413 159.908891 
L 547.720928 159.794249 
L 548.096686 159.80096 
L 548.472443 159.677804 
L 548.848201 159.813629 
L 549.223958 159.488641 
L 550.726989 159.694787 
L 551.102746 160.147921 
L 551.478504 160.156468 
L 551.854261 159.693855 
L 552.605777 159.606839 
L 552.981534 159.686566 
L 553.357292 159.463515 
L 553.733049 159.655897 
L 554.860322 159.27166 
L 555.23608 159.659907 
L 555.611837 159.562841 
L 555.987595 159.846286 
L 556.363352 159.791676 
L 556.73911 159.62079 
L 557.114867 159.753217 
L 557.490625 159.36951 
L 558.24214 159.751166 
L 558.617898 159.425858 
L 559.369413 159.417738 
L 559.74517 159.798508 
L 560.120928 159.485476 
L 560.872443 159.69975 
L 561.248201 159.574771 
L 561.623958 159.590338 
L 561.999716 159.408781 
L 563.126989 159.610035 
L 563.502746 159.351786 
L 563.878504 159.763508 
L 564.254261 159.855228 
L 565.005777 159.666302 
L 565.381534 159.699491 
L 565.757292 159.490449 
L 566.133049 159.587118 
L 566.508807 159.905329 
L 566.884564 159.793016 
L 567.260322 159.435549 
L 567.63608 159.586284 
L 568.763352 159.430726 
L 569.514867 159.470875 
L 569.890625 159.511803 
L 570.266383 159.421732 
L 571.017898 159.527112 
L 571.393655 159.738887 
L 571.769413 159.659056 
L 572.14517 159.380914 
L 573.272443 159.647705 
L 573.648201 159.485879 
L 574.399716 159.772861 
L 574.775473 159.288573 
L 575.151231 159.512686 
L 575.902746 159.726163 
L 576.278504 159.493014 
L 576.654261 159.690268 
L 577.030019 159.752655 
L 577.405777 159.53422 
L 577.781534 159.76499 
L 578.157292 159.549533 
L 580.411837 159.373882 
L 580.787595 159.59583 
L 581.163352 159.520448 
L 581.53911 159.291873 
L 583.04214 159.347053 
L 583.417898 159.183105 
L 583.793655 159.432497 
L 584.169413 159.262491 
L 584.54517 159.593969 
L 585.296686 159.227279 
L 586.048201 159.328931 
L 586.423958 159.232215 
L 586.799716 159.251524 
L 587.926989 159.665913 
L 588.302746 159.454533 
L 588.678504 159.435962 
L 589.054261 159.68433 
L 589.430019 159.426113 
L 589.805777 159.449003 
L 590.181534 159.257284 
L 590.557292 159.456978 
L 590.933049 159.30405 
L 591.308807 159.501237 
L 592.060322 159.394667 
L 592.43608 159.515108 
L 592.811837 159.179665 
L 593.187595 159.532834 
L 593.563352 159.309891 
L 593.93911 159.464331 
L 594.314867 159.466292 
L 594.690625 159.20631 
L 595.066383 159.343079 
L 595.44214 159.329486 
L 596.193655 159.555537 
L 596.569413 159.409654 
L 596.94517 159.478526 
L 597.320928 159.175951 
L 597.696686 159.221496 
L 598.072443 158.999204 
L 599.199716 159.427368 
L 599.951231 159.079605 
L 600.702746 159.65813 
L 601.078504 159.381467 
L 601.454261 159.341337 
L 601.830019 159.72104 
L 602.205777 159.317652 
L 602.581534 159.145908 
L 602.957292 159.304488 
L 605.211837 159.472833 
L 605.963352 159.191371 
L 606.33911 159.402192 
L 606.714867 159.44428 
L 607.090625 159.337955 
L 607.466383 159.616899 
L 607.84214 159.073256 
L 608.217898 159.091922 
L 608.593655 159.556844 
L 610.472443 159.452945 
L 610.848201 159.586297 
L 611.223958 159.592005 
L 611.599716 159.486001 
L 611.975473 158.899336 
L 612.351231 158.003987 
L 613.102746 158.879162 
L 613.478504 158.862496 
L 613.854261 159.005324 
L 614.230019 158.879011 
L 614.981534 159.197948 
L 615.733049 159.051869 
L 616.108807 159.274149 
L 616.860322 159.099388 
L 617.23608 159.046486 
L 617.611837 159.175417 
L 619.490625 159.272893 
L 620.24214 158.842898 
L 620.617898 159.021238 
L 620.993655 159.361978 
L 621.369413 159.518446 
L 621.74517 159.199618 
L 622.496686 159.091074 
L 623.623958 159.263664 
L 623.999716 159.453515 
L 624.751231 159.090151 
L 625.126989 159.129862 
L 625.126989 159.129862 
" clip-path="url(#p9075d984ea)" style="fill: none; stroke: #ff7f0e; stroke-width: 1.5; stroke-linecap: square"/>
   </g>
   <g id="patch_3">
    <path d="M 92.490625 308.63625 
L 92.490625 31.43625 
" style="fill: none; stroke: #000000; stroke-width: 0.8; stroke-linejoin: miter; stroke-linecap: square"/>
   </g>
   <g id="patch_4">
    <path d="M 650.490625 308.63625 
L 650.490625 31.43625 
" style="fill: none; stroke: #000000; stroke-width: 0.8; stroke-linejoin: miter; stroke-linecap: square"/>
   </g>
   <g id="patch_5">
    <path d="M 92.490625 308.63625 
L 650.490625 308.63625 
" style="fill: none; stroke: #000000; stroke-width: 0.8; stroke-linejoin: miter; stroke-linecap: square"/>
   </g>
   <g id="patch_6">
    <path d="M 92.490625 31.43625 
L 650.490625 31.43625 
" style="fill: none; stroke: #000000; stroke-width: 0.8; stroke-linejoin: miter; stroke-linecap: square"/>
   </g>
   <g id="text_14">
    <!-- Generator and Discriminator Loss During Training -->
    <g transform="translate(74.258125 25.43625) scale(0.24 -0.24)">
     <defs>
      <path id="DejaVuSans-47" d="M 3809 666 
L 3809 1919 
L 2778 1919 
L 2778 2438 
L 4434 2438 
L 4434 434 
Q 4069 175 3628 42 
Q 3188 -91 2688 -91 
Q 1594 -91 976 548 
Q 359 1188 359 2328 
Q 359 3472 976 4111 
Q 1594 4750 2688 4750 
Q 3144 4750 3555 4637 
Q 3966 4525 4313 4306 
L 4313 3634 
Q 3963 3931 3569 4081 
Q 3175 4231 2741 4231 
Q 1884 4231 1454 3753 
Q 1025 3275 1025 2328 
Q 1025 1384 1454 906 
Q 1884 428 2741 428 
Q 3075 428 3337 486 
Q 3600 544 3809 666 
z
" transform="scale(0.015625)"/>
      <path id="DejaVuSans-20" transform="scale(0.015625)"/>
      <path id="DejaVuSans-64" d="M 2906 2969 
L 2906 4863 
L 3481 4863 
L 3481 0 
L 2906 0 
L 2906 525 
Q 2725 213 2448 61 
Q 2172 -91 1784 -91 
Q 1150 -91 751 415 
Q 353 922 353 1747 
Q 353 2572 751 3078 
Q 1150 3584 1784 3584 
Q 2172 3584 2448 3432 
Q 2725 3281 2906 2969 
z
M 947 1747 
Q 947 1113 1208 752 
Q 1469 391 1925 391 
Q 2381 391 2643 752 
Q 2906 1113 2906 1747 
Q 2906 2381 2643 2742 
Q 2381 3103 1925 3103 
Q 1469 3103 1208 2742 
Q 947 2381 947 1747 
z
" transform="scale(0.015625)"/>
      <path id="DejaVuSans-44" d="M 1259 4147 
L 1259 519 
L 2022 519 
Q 2988 519 3436 956 
Q 3884 1394 3884 2338 
Q 3884 3275 3436 3711 
Q 2988 4147 2022 4147 
L 1259 4147 
z
M 628 4666 
L 1925 4666 
Q 3281 4666 3915 4102 
Q 4550 3538 4550 2338 
Q 4550 1131 3912 565 
Q 3275 0 1925 0 
L 628 0 
L 628 4666 
z
" transform="scale(0.015625)"/>
      <path id="DejaVuSans-63" d="M 3122 3366 
L 3122 2828 
Q 2878 2963 2633 3030 
Q 2388 3097 2138 3097 
Q 1578 3097 1268 2742 
Q 959 2388 959 1747 
Q 959 1106 1268 751 
Q 1578 397 2138 397 
Q 2388 397 2633 464 
Q 2878 531 3122 666 
L 3122 134 
Q 2881 22 2623 -34 
Q 2366 -91 2075 -91 
Q 1284 -91 818 406 
Q 353 903 353 1747 
Q 353 2603 823 3093 
Q 1294 3584 2113 3584 
Q 2378 3584 2631 3529 
Q 2884 3475 3122 3366 
z
" transform="scale(0.015625)"/>
      <path id="DejaVuSans-6d" d="M 3328 2828 
Q 3544 3216 3844 3400 
Q 4144 3584 4550 3584 
Q 5097 3584 5394 3201 
Q 5691 2819 5691 2113 
L 5691 0 
L 5113 0 
L 5113 2094 
Q 5113 2597 4934 2840 
Q 4756 3084 4391 3084 
Q 3944 3084 3684 2787 
Q 3425 2491 3425 1978 
L 3425 0 
L 2847 0 
L 2847 2094 
Q 2847 2600 2669 2842 
Q 2491 3084 2119 3084 
Q 1678 3084 1418 2786 
Q 1159 2488 1159 1978 
L 1159 0 
L 581 0 
L 581 3500 
L 1159 3500 
L 1159 2956 
Q 1356 3278 1631 3431 
Q 1906 3584 2284 3584 
Q 2666 3584 2933 3390 
Q 3200 3197 3328 2828 
z
" transform="scale(0.015625)"/>
      <path id="DejaVuSans-75" d="M 544 1381 
L 544 3500 
L 1119 3500 
L 1119 1403 
Q 1119 906 1312 657 
Q 1506 409 1894 409 
Q 2359 409 2629 706 
Q 2900 1003 2900 1516 
L 2900 3500 
L 3475 3500 
L 3475 0 
L 2900 0 
L 2900 538 
Q 2691 219 2414 64 
Q 2138 -91 1772 -91 
Q 1169 -91 856 284 
Q 544 659 544 1381 
z
M 1991 3584 
L 1991 3584 
z
" transform="scale(0.015625)"/>
      <path id="DejaVuSans-67" d="M 2906 1791 
Q 2906 2416 2648 2759 
Q 2391 3103 1925 3103 
Q 1463 3103 1205 2759 
Q 947 2416 947 1791 
Q 947 1169 1205 825 
Q 1463 481 1925 481 
Q 2391 481 2648 825 
Q 2906 1169 2906 1791 
z
M 3481 434 
Q 3481 -459 3084 -895 
Q 2688 -1331 1869 -1331 
Q 1566 -1331 1297 -1286 
Q 1028 -1241 775 -1147 
L 775 -588 
Q 1028 -725 1275 -790 
Q 1522 -856 1778 -856 
Q 2344 -856 2625 -561 
Q 2906 -266 2906 331 
L 2906 616 
Q 2728 306 2450 153 
Q 2172 0 1784 0 
Q 1141 0 747 490 
Q 353 981 353 1791 
Q 353 2603 747 3093 
Q 1141 3584 1784 3584 
Q 2172 3584 2450 3431 
Q 2728 3278 2906 2969 
L 2906 3500 
L 3481 3500 
L 3481 434 
z
" transform="scale(0.015625)"/>
      <path id="DejaVuSans-54" d="M -19 4666 
L 3928 4666 
L 3928 4134 
L 2272 4134 
L 2272 0 
L 1638 0 
L 1638 4134 
L -19 4134 
L -19 4666 
z
" transform="scale(0.015625)"/>
     </defs>
     <use xlink:href="#DejaVuSans-47"/>
     <use xlink:href="#DejaVuSans-65" x="77.490234"/>
     <use xlink:href="#DejaVuSans-6e" x="139.013672"/>
     <use xlink:href="#DejaVuSans-65" x="202.392578"/>
     <use xlink:href="#DejaVuSans-72" x="263.916016"/>
     <use xlink:href="#DejaVuSans-61" x="305.029297"/>
     <use xlink:href="#DejaVuSans-74" x="366.308594"/>
     <use xlink:href="#DejaVuSans-6f" x="405.517578"/>
     <use xlink:href="#DejaVuSans-72" x="466.699219"/>
     <use xlink:href="#DejaVuSans-20" x="507.8125"/>
     <use xlink:href="#DejaVuSans-61" x="539.599609"/>
     <use xlink:href="#DejaVuSans-6e" x="600.878906"/>
     <use xlink:href="#DejaVuSans-64" x="664.257812"/>
     <use xlink:href="#DejaVuSans-20" x="727.734375"/>
     <use xlink:href="#DejaVuSans-44" x="759.521484"/>
     <use xlink:href="#DejaVuSans-69" x="836.523438"/>
     <use xlink:href="#DejaVuSans-73" x="864.306641"/>
     <use xlink:href="#DejaVuSans-63" x="916.40625"/>
     <use xlink:href="#DejaVuSans-72" x="971.386719"/>
     <use xlink:href="#DejaVuSans-69" x="1012.5"/>
     <use xlink:href="#DejaVuSans-6d" x="1040.283203"/>
     <use xlink:href="#DejaVuSans-69" x="1137.695312"/>
     <use xlink:href="#DejaVuSans-6e" x="1165.478516"/>
     <use xlink:href="#DejaVuSans-61" x="1228.857422"/>
     <use xlink:href="#DejaVuSans-74" x="1290.136719"/>
     <use xlink:href="#DejaVuSans-6f" x="1329.345703"/>
     <use xlink:href="#DejaVuSans-72" x="1390.527344"/>
     <use xlink:href="#DejaVuSans-20" x="1431.640625"/>
     <use xlink:href="#DejaVuSans-4c" x="1463.427734"/>
     <use xlink:href="#DejaVuSans-6f" x="1517.390625"/>
     <use xlink:href="#DejaVuSans-73" x="1578.572266"/>
     <use xlink:href="#DejaVuSans-73" x="1630.671875"/>
     <use xlink:href="#DejaVuSans-20" x="1682.771484"/>
     <use xlink:href="#DejaVuSans-44" x="1714.558594"/>
     <use xlink:href="#DejaVuSans-75" x="1791.560547"/>
     <use xlink:href="#DejaVuSans-72" x="1854.939453"/>
     <use xlink:href="#DejaVuSans-69" x="1896.052734"/>
     <use xlink:href="#DejaVuSans-6e" x="1923.835938"/>
     <use xlink:href="#DejaVuSans-67" x="1987.214844"/>
     <use xlink:href="#DejaVuSans-20" x="2050.691406"/>
     <use xlink:href="#DejaVuSans-54" x="2082.478516"/>
     <use xlink:href="#DejaVuSans-72" x="2128.8125"/>
     <use xlink:href="#DejaVuSans-61" x="2169.925781"/>
     <use xlink:href="#DejaVuSans-69" x="2231.205078"/>
     <use xlink:href="#DejaVuSans-6e" x="2258.988281"/>
     <use xlink:href="#DejaVuSans-69" x="2322.367188"/>
     <use xlink:href="#DejaVuSans-6e" x="2350.150391"/>
     <use xlink:href="#DejaVuSans-67" x="2413.529297"/>
    </g>
   </g>
   <g id="legend_1">
    <g id="patch_7">
     <path d="M 556.99375 106.14875 
L 636.490625 106.14875 
Q 640.490625 106.14875 640.490625 102.14875 
L 640.490625 45.43625 
Q 640.490625 41.43625 636.490625 41.43625 
L 556.99375 41.43625 
Q 552.99375 41.43625 552.99375 45.43625 
L 552.99375 102.14875 
Q 552.99375 106.14875 556.99375 106.14875 
z
" style="fill: #ffffff; opacity: 0.8; stroke: #cccccc; stroke-linejoin: miter"/>
    </g>
    <g id="line2d_14">
     <path d="M 560.99375 57.633125 
L 580.99375 57.633125 
L 600.99375 57.633125 
" style="fill: none; stroke: #1f77b4; stroke-width: 1.5; stroke-linecap: square"/>
    </g>
    <g id="text_15">
     <!-- G -->
     <g transform="translate(616.99375 64.633125) scale(0.2 -0.2)">
      <use xlink:href="#DejaVuSans-47"/>
     </g>
    </g>
    <g id="line2d_15">
     <path d="M 560.99375 86.989375 
L 580.99375 86.989375 
L 600.99375 86.989375 
" style="fill: none; stroke: #ff7f0e; stroke-width: 1.5; stroke-linecap: square"/>
    </g>
    <g id="text_16">
     <!-- D -->
     <g transform="translate(616.99375 93.989375) scale(0.2 -0.2)">
      <use xlink:href="#DejaVuSans-44"/>
     </g>
    </g>
   </g>
  </g>
 </g>
 <defs>
  <clipPath id="p9075d984ea">
   <rect x="92.490625" y="31.43625" width="558" height="277.2"/>
  </clipPath>
 </defs>
</svg>
