<?xml version="1.0" encoding="utf-8" standalone="no"?>
<!DOCTYPE svg PUBLIC "-//W3C//DTD SVG 1.1//EN"
  "http://www.w3.org/Graphics/SVG/1.1/DTD/svg11.dtd">
<svg xmlns:xlink="http://www.w3.org/1999/xlink" width="675.923125pt" height="365.54875pt" viewBox="0 0 675.923125 365.54875" xmlns="http://www.w3.org/2000/svg" version="1.1">
 <metadata>
  <rdf:RDF xmlns:dc="http://purl.org/dc/elements/1.1/" xmlns:cc="http://creativecommons.org/ns#" xmlns:rdf="http://www.w3.org/1999/02/22-rdf-syntax-ns#">
   <cc:Work>
    <dc:type rdf:resource="http://purl.org/dc/dcmitype/StillImage"/>
    <dc:date>2024-02-01T07:07:14.657723</dc:date>
    <dc:format>image/svg+xml</dc:format>
    <dc:creator>
     <cc:Agent>
      <dc:title>Matplotlib v3.7.2, https://matplotlib.org/</dc:title>
     </cc:Agent>
    </dc:creator>
   </cc:Work>
  </rdf:RDF>
 </metadata>
 <defs>
  <style type="text/css">*{stroke-linejoin: round; stroke-linecap: butt}</style>
 </defs>
 <g id="figure_1">
  <g id="patch_1">
   <path d="M 0 365.54875 
L 675.923125 365.54875 
L 675.923125 -0 
L 0 -0 
z
" style="fill: #ffffff"/>
  </g>
  <g id="axes_1">
   <g id="patch_2">
    <path d="M 92.490625 308.63625 
L 650.490625 308.63625 
L 650.490625 31.43625 
L 92.490625 31.43625 
z
" style="fill: #ffffff"/>
   </g>
   <g id="matplotlib.axis_1">
    <g id="xtick_1">
     <g id="line2d_1">
      <defs>
       <path id="mff1dee9402" d="M 0 0 
L 0 3.5 
" style="stroke: #000000; stroke-width: 0.8"/>
      </defs>
      <g>
       <use xlink:href="#mff1dee9402" x="117.854261" y="308.63625" style="stroke: #000000; stroke-width: 0.8"/>
      </g>
     </g>
     <g id="text_1">
      <!-- 0 -->
      <g transform="translate(111.491761 330.833125) scale(0.2 -0.2)">
       <defs>
        <path id="DejaVuSans-30" d="M 2034 4250 
Q 1547 4250 1301 3770 
Q 1056 3291 1056 2328 
Q 1056 1369 1301 889 
Q 1547 409 2034 409 
Q 2525 409 2770 889 
Q 3016 1369 3016 2328 
Q 3016 3291 2770 3770 
Q 2525 4250 2034 4250 
z
M 2034 4750 
Q 2819 4750 3233 4129 
Q 3647 3509 3647 2328 
Q 3647 1150 3233 529 
Q 2819 -91 2034 -91 
Q 1250 -91 836 529 
Q 422 1150 422 2328 
Q 422 3509 836 4129 
Q 1250 4750 2034 4750 
z
" transform="scale(0.015625)"/>
       </defs>
       <use xlink:href="#DejaVuSans-30"/>
      </g>
     </g>
    </g>
    <g id="xtick_2">
     <g id="line2d_2">
      <g>
       <use xlink:href="#mff1dee9402" x="195.896219" y="308.63625" style="stroke: #000000; stroke-width: 0.8"/>
      </g>
     </g>
     <g id="text_2">
      <!-- 200 -->
      <g transform="translate(176.808719 330.833125) scale(0.2 -0.2)">
       <defs>
        <path id="DejaVuSans-32" d="M 1228 531 
L 3431 531 
L 3431 0 
L 469 0 
L 469 531 
Q 828 903 1448 1529 
Q 2069 2156 2228 2338 
Q 2531 2678 2651 2914 
Q 2772 3150 2772 3378 
Q 2772 3750 2511 3984 
Q 2250 4219 1831 4219 
Q 1534 4219 1204 4116 
Q 875 4013 500 3803 
L 500 4441 
Q 881 4594 1212 4672 
Q 1544 4750 1819 4750 
Q 2544 4750 2975 4387 
Q 3406 4025 3406 3419 
Q 3406 3131 3298 2873 
Q 3191 2616 2906 2266 
Q 2828 2175 2409 1742 
Q 1991 1309 1228 531 
z
" transform="scale(0.015625)"/>
       </defs>
       <use xlink:href="#DejaVuSans-32"/>
       <use xlink:href="#DejaVuSans-30" x="63.623047"/>
       <use xlink:href="#DejaVuSans-30" x="127.246094"/>
      </g>
     </g>
    </g>
    <g id="xtick_3">
     <g id="line2d_3">
      <g>
       <use xlink:href="#mff1dee9402" x="273.938177" y="308.63625" style="stroke: #000000; stroke-width: 0.8"/>
      </g>
     </g>
     <g id="text_3">
      <!-- 400 -->
      <g transform="translate(254.850677 330.833125) scale(0.2 -0.2)">
       <defs>
        <path id="DejaVuSans-34" d="M 2419 4116 
L 825 1625 
L 2419 1625 
L 2419 4116 
z
M 2253 4666 
L 3047 4666 
L 3047 1625 
L 3713 1625 
L 3713 1100 
L 3047 1100 
L 3047 0 
L 2419 0 
L 2419 1100 
L 313 1100 
L 313 1709 
L 2253 4666 
z
" transform="scale(0.015625)"/>
       </defs>
       <use xlink:href="#DejaVuSans-34"/>
       <use xlink:href="#DejaVuSans-30" x="63.623047"/>
       <use xlink:href="#DejaVuSans-30" x="127.246094"/>
      </g>
     </g>
    </g>
    <g id="xtick_4">
     <g id="line2d_4">
      <g>
       <use xlink:href="#mff1dee9402" x="351.980135" y="308.63625" style="stroke: #000000; stroke-width: 0.8"/>
      </g>
     </g>
     <g id="text_4">
      <!-- 600 -->
      <g transform="translate(332.892635 330.833125) scale(0.2 -0.2)">
       <defs>
        <path id="DejaVuSans-36" d="M 2113 2584 
Q 1688 2584 1439 2293 
Q 1191 2003 1191 1497 
Q 1191 994 1439 701 
Q 1688 409 2113 409 
Q 2538 409 2786 701 
Q 3034 994 3034 1497 
Q 3034 2003 2786 2293 
Q 2538 2584 2113 2584 
z
M 3366 4563 
L 3366 3988 
Q 3128 4100 2886 4159 
Q 2644 4219 2406 4219 
Q 1781 4219 1451 3797 
Q 1122 3375 1075 2522 
Q 1259 2794 1537 2939 
Q 1816 3084 2150 3084 
Q 2853 3084 3261 2657 
Q 3669 2231 3669 1497 
Q 3669 778 3244 343 
Q 2819 -91 2113 -91 
Q 1303 -91 875 529 
Q 447 1150 447 2328 
Q 447 3434 972 4092 
Q 1497 4750 2381 4750 
Q 2619 4750 2861 4703 
Q 3103 4656 3366 4563 
z
" transform="scale(0.015625)"/>
       </defs>
       <use xlink:href="#DejaVuSans-36"/>
       <use xlink:href="#DejaVuSans-30" x="63.623047"/>
       <use xlink:href="#DejaVuSans-30" x="127.246094"/>
      </g>
     </g>
    </g>
    <g id="xtick_5">
     <g id="line2d_5">
      <g>
       <use xlink:href="#mff1dee9402" x="430.022094" y="308.63625" style="stroke: #000000; stroke-width: 0.8"/>
      </g>
     </g>
     <g id="text_5">
      <!-- 800 -->
      <g transform="translate(410.934594 330.833125) scale(0.2 -0.2)">
       <defs>
        <path id="DejaVuSans-38" d="M 2034 2216 
Q 1584 2216 1326 1975 
Q 1069 1734 1069 1313 
Q 1069 891 1326 650 
Q 1584 409 2034 409 
Q 2484 409 2743 651 
Q 3003 894 3003 1313 
Q 3003 1734 2745 1975 
Q 2488 2216 2034 2216 
z
M 1403 2484 
Q 997 2584 770 2862 
Q 544 3141 544 3541 
Q 544 4100 942 4425 
Q 1341 4750 2034 4750 
Q 2731 4750 3128 4425 
Q 3525 4100 3525 3541 
Q 3525 3141 3298 2862 
Q 3072 2584 2669 2484 
Q 3125 2378 3379 2068 
Q 3634 1759 3634 1313 
Q 3634 634 3220 271 
Q 2806 -91 2034 -91 
Q 1263 -91 848 271 
Q 434 634 434 1313 
Q 434 1759 690 2068 
Q 947 2378 1403 2484 
z
M 1172 3481 
Q 1172 3119 1398 2916 
Q 1625 2713 2034 2713 
Q 2441 2713 2670 2916 
Q 2900 3119 2900 3481 
Q 2900 3844 2670 4047 
Q 2441 4250 2034 4250 
Q 1625 4250 1398 4047 
Q 1172 3844 1172 3481 
z
" transform="scale(0.015625)"/>
       </defs>
       <use xlink:href="#DejaVuSans-38"/>
       <use xlink:href="#DejaVuSans-30" x="63.623047"/>
       <use xlink:href="#DejaVuSans-30" x="127.246094"/>
      </g>
     </g>
    </g>
    <g id="xtick_6">
     <g id="line2d_6">
      <g>
       <use xlink:href="#mff1dee9402" x="508.064052" y="308.63625" style="stroke: #000000; stroke-width: 0.8"/>
      </g>
     </g>
     <g id="text_6">
      <!-- 1000 -->
      <g transform="translate(482.614052 330.833125) scale(0.2 -0.2)">
       <defs>
        <path id="DejaVuSans-31" d="M 794 531 
L 1825 531 
L 1825 4091 
L 703 3866 
L 703 4441 
L 1819 4666 
L 2450 4666 
L 2450 531 
L 3481 531 
L 3481 0 
L 794 0 
L 794 531 
z
" transform="scale(0.015625)"/>
       </defs>
       <use xlink:href="#DejaVuSans-31"/>
       <use xlink:href="#DejaVuSans-30" x="63.623047"/>
       <use xlink:href="#DejaVuSans-30" x="127.246094"/>
       <use xlink:href="#DejaVuSans-30" x="190.869141"/>
      </g>
     </g>
    </g>
    <g id="xtick_7">
     <g id="line2d_7">
      <g>
       <use xlink:href="#mff1dee9402" x="586.10601" y="308.63625" style="stroke: #000000; stroke-width: 0.8"/>
      </g>
     </g>
     <g id="text_7">
      <!-- 1200 -->
      <g transform="translate(560.65601 330.833125) scale(0.2 -0.2)">
       <use xlink:href="#DejaVuSans-31"/>
       <use xlink:href="#DejaVuSans-32" x="63.623047"/>
       <use xlink:href="#DejaVuSans-30" x="127.246094"/>
       <use xlink:href="#DejaVuSans-30" x="190.869141"/>
      </g>
     </g>
    </g>
    <g id="text_8">
     <!-- iterations -->
     <g transform="translate(324.035938 354.189375) scale(0.2 -0.2)">
      <defs>
       <path id="DejaVuSans-69" d="M 603 3500 
L 1178 3500 
L 1178 0 
L 603 0 
L 603 3500 
z
M 603 4863 
L 1178 4863 
L 1178 4134 
L 603 4134 
L 603 4863 
z
" transform="scale(0.015625)"/>
       <path id="DejaVuSans-74" d="M 1172 4494 
L 1172 3500 
L 2356 3500 
L 2356 3053 
L 1172 3053 
L 1172 1153 
Q 1172 725 1289 603 
Q 1406 481 1766 481 
L 2356 481 
L 2356 0 
L 1766 0 
Q 1100 0 847 248 
Q 594 497 594 1153 
L 594 3053 
L 172 3053 
L 172 3500 
L 594 3500 
L 594 4494 
L 1172 4494 
z
" transform="scale(0.015625)"/>
       <path id="DejaVuSans-65" d="M 3597 1894 
L 3597 1613 
L 953 1613 
Q 991 1019 1311 708 
Q 1631 397 2203 397 
Q 2534 397 2845 478 
Q 3156 559 3463 722 
L 3463 178 
Q 3153 47 2828 -22 
Q 2503 -91 2169 -91 
Q 1331 -91 842 396 
Q 353 884 353 1716 
Q 353 2575 817 3079 
Q 1281 3584 2069 3584 
Q 2775 3584 3186 3129 
Q 3597 2675 3597 1894 
z
M 3022 2063 
Q 3016 2534 2758 2815 
Q 2500 3097 2075 3097 
Q 1594 3097 1305 2825 
Q 1016 2553 972 2059 
L 3022 2063 
z
" transform="scale(0.015625)"/>
       <path id="DejaVuSans-72" d="M 2631 2963 
Q 2534 3019 2420 3045 
Q 2306 3072 2169 3072 
Q 1681 3072 1420 2755 
Q 1159 2438 1159 1844 
L 1159 0 
L 581 0 
L 581 3500 
L 1159 3500 
L 1159 2956 
Q 1341 3275 1631 3429 
Q 1922 3584 2338 3584 
Q 2397 3584 2469 3576 
Q 2541 3569 2628 3553 
L 2631 2963 
z
" transform="scale(0.015625)"/>
       <path id="DejaVuSans-61" d="M 2194 1759 
Q 1497 1759 1228 1600 
Q 959 1441 959 1056 
Q 959 750 1161 570 
Q 1363 391 1709 391 
Q 2188 391 2477 730 
Q 2766 1069 2766 1631 
L 2766 1759 
L 2194 1759 
z
M 3341 1997 
L 3341 0 
L 2766 0 
L 2766 531 
Q 2569 213 2275 61 
Q 1981 -91 1556 -91 
Q 1019 -91 701 211 
Q 384 513 384 1019 
Q 384 1609 779 1909 
Q 1175 2209 1959 2209 
L 2766 2209 
L 2766 2266 
Q 2766 2663 2505 2880 
Q 2244 3097 1772 3097 
Q 1472 3097 1187 3025 
Q 903 2953 641 2809 
L 641 3341 
Q 956 3463 1253 3523 
Q 1550 3584 1831 3584 
Q 2591 3584 2966 3190 
Q 3341 2797 3341 1997 
z
" transform="scale(0.015625)"/>
       <path id="DejaVuSans-6f" d="M 1959 3097 
Q 1497 3097 1228 2736 
Q 959 2375 959 1747 
Q 959 1119 1226 758 
Q 1494 397 1959 397 
Q 2419 397 2687 759 
Q 2956 1122 2956 1747 
Q 2956 2369 2687 2733 
Q 2419 3097 1959 3097 
z
M 1959 3584 
Q 2709 3584 3137 3096 
Q 3566 2609 3566 1747 
Q 3566 888 3137 398 
Q 2709 -91 1959 -91 
Q 1206 -91 779 398 
Q 353 888 353 1747 
Q 353 2609 779 3096 
Q 1206 3584 1959 3584 
z
" transform="scale(0.015625)"/>
       <path id="DejaVuSans-6e" d="M 3513 2113 
L 3513 0 
L 2938 0 
L 2938 2094 
Q 2938 2591 2744 2837 
Q 2550 3084 2163 3084 
Q 1697 3084 1428 2787 
Q 1159 2491 1159 1978 
L 1159 0 
L 581 0 
L 581 3500 
L 1159 3500 
L 1159 2956 
Q 1366 3272 1645 3428 
Q 1925 3584 2291 3584 
Q 2894 3584 3203 3211 
Q 3513 2838 3513 2113 
z
" transform="scale(0.015625)"/>
       <path id="DejaVuSans-73" d="M 2834 3397 
L 2834 2853 
Q 2591 2978 2328 3040 
Q 2066 3103 1784 3103 
Q 1356 3103 1142 2972 
Q 928 2841 928 2578 
Q 928 2378 1081 2264 
Q 1234 2150 1697 2047 
L 1894 2003 
Q 2506 1872 2764 1633 
Q 3022 1394 3022 966 
Q 3022 478 2636 193 
Q 2250 -91 1575 -91 
Q 1294 -91 989 -36 
Q 684 19 347 128 
L 347 722 
Q 666 556 975 473 
Q 1284 391 1588 391 
Q 1994 391 2212 530 
Q 2431 669 2431 922 
Q 2431 1156 2273 1281 
Q 2116 1406 1581 1522 
L 1381 1569 
Q 847 1681 609 1914 
Q 372 2147 372 2553 
Q 372 3047 722 3315 
Q 1072 3584 1716 3584 
Q 2034 3584 2315 3537 
Q 2597 3491 2834 3397 
z
" transform="scale(0.015625)"/>
      </defs>
      <use xlink:href="#DejaVuSans-69"/>
      <use xlink:href="#DejaVuSans-74" x="27.783203"/>
      <use xlink:href="#DejaVuSans-65" x="66.992188"/>
      <use xlink:href="#DejaVuSans-72" x="128.515625"/>
      <use xlink:href="#DejaVuSans-61" x="169.628906"/>
      <use xlink:href="#DejaVuSans-74" x="230.908203"/>
      <use xlink:href="#DejaVuSans-69" x="270.117188"/>
      <use xlink:href="#DejaVuSans-6f" x="297.900391"/>
      <use xlink:href="#DejaVuSans-6e" x="359.082031"/>
      <use xlink:href="#DejaVuSans-73" x="422.460938"/>
     </g>
    </g>
   </g>
   <g id="matplotlib.axis_2">
    <g id="ytick_1">
     <g id="line2d_8">
      <defs>
       <path id="md747de5f01" d="M 0 0 
L -3.5 0 
" style="stroke: #000000; stroke-width: 0.8"/>
      </defs>
      <g>
       <use xlink:href="#md747de5f01" x="92.490625" y="233.89928" style="stroke: #000000; stroke-width: 0.8"/>
      </g>
     </g>
     <g id="text_9">
      <!-- −200 -->
      <g transform="translate(30.55625 241.497718) scale(0.2 -0.2)">
       <defs>
        <path id="DejaVuSans-2212" d="M 678 2272 
L 4684 2272 
L 4684 1741 
L 678 1741 
L 678 2272 
z
" transform="scale(0.015625)"/>
       </defs>
       <use xlink:href="#DejaVuSans-2212"/>
       <use xlink:href="#DejaVuSans-32" x="83.789062"/>
       <use xlink:href="#DejaVuSans-30" x="147.412109"/>
       <use xlink:href="#DejaVuSans-30" x="211.035156"/>
      </g>
     </g>
    </g>
    <g id="ytick_2">
     <g id="line2d_9">
      <g>
       <use xlink:href="#md747de5f01" x="92.490625" y="156.400898" style="stroke: #000000; stroke-width: 0.8"/>
      </g>
     </g>
     <g id="text_10">
      <!-- 0 -->
      <g transform="translate(72.765625 163.999335) scale(0.2 -0.2)">
       <use xlink:href="#DejaVuSans-30"/>
      </g>
     </g>
    </g>
    <g id="ytick_3">
     <g id="line2d_10">
      <g>
       <use xlink:href="#md747de5f01" x="92.490625" y="78.902515" style="stroke: #000000; stroke-width: 0.8"/>
      </g>
     </g>
     <g id="text_11">
      <!-- 200 -->
      <g transform="translate(47.315625 86.500953) scale(0.2 -0.2)">
       <use xlink:href="#DejaVuSans-32"/>
       <use xlink:href="#DejaVuSans-30" x="63.623047"/>
       <use xlink:href="#DejaVuSans-30" x="127.246094"/>
      </g>
     </g>
    </g>
    <g id="text_12">
     <!-- Loss -->
     <g transform="translate(22.396875 191.970625) rotate(-90) scale(0.2 -0.2)">
      <defs>
       <path id="DejaVuSans-4c" d="M 628 4666 
L 1259 4666 
L 1259 531 
L 3531 531 
L 3531 0 
L 628 0 
L 628 4666 
z
" transform="scale(0.015625)"/>
      </defs>
      <use xlink:href="#DejaVuSans-4c"/>
      <use xlink:href="#DejaVuSans-6f" x="53.962891"/>
      <use xlink:href="#DejaVuSans-73" x="115.144531"/>
      <use xlink:href="#DejaVuSans-73" x="167.244141"/>
     </g>
    </g>
   </g>
   <g id="line2d_11">
    <path d="M 117.854261 136.140105 
L 118.244471 119.386488 
L 118.634681 97.658702 
L 119.415101 132.66545 
L 119.80531 131.50223 
L 120.19552 109.074995 
L 120.58573 70.056914 
L 120.97594 54.902085 
L 121.366149 57.926545 
L 121.756359 54.948943 
L 122.146569 45.679812 
L 122.536779 44.03625 
L 122.926989 46.554003 
L 123.317198 46.4645 
L 123.707408 61.12117 
L 124.097618 55.452144 
L 124.487828 47.371821 
L 124.878038 48.94424 
L 125.268247 60.27658 
L 125.658457 67.071176 
L 126.048667 67.466942 
L 126.438877 72.47849 
L 126.829087 69.342872 
L 127.999716 94.790736 
L 128.389926 91.969084 
L 128.780135 93.229692 
L 129.170345 92.7299 
L 129.560555 100.783666 
L 129.950765 98.377732 
L 130.340975 103.555557 
L 130.731184 102.926982 
L 131.121394 106.843558 
L 131.511604 103.849343 
L 131.901814 107.982067 
L 132.292024 104.046284 
L 132.682233 105.454914 
L 133.072443 106.159588 
L 133.462653 109.279874 
L 133.852863 108.658111 
L 134.243073 113.348977 
L 134.633282 112.802562 
L 135.023492 112.886724 
L 136.194122 117.192842 
L 136.974541 121.529548 
L 137.364751 117.759482 
L 137.754961 121.031451 
L 138.14517 117.874613 
L 138.53538 123.929319 
L 139.3158 125.098673 
L 139.70601 122.790211 
L 140.096219 126.681087 
L 140.486429 124.35353 
L 140.876639 124.598737 
L 141.266849 127.579039 
L 142.047268 125.949512 
L 142.437478 128.740085 
L 142.827688 127.119974 
L 143.217898 126.066819 
L 143.608108 124.500406 
L 143.998317 128.099512 
L 144.388527 127.64869 
L 144.778737 124.880741 
L 145.168947 126.072068 
L 145.559156 125.0338 
L 146.339576 128.291852 
L 146.729786 127.820071 
L 147.119996 128.384262 
L 147.510205 127.725314 
L 147.900415 130.487021 
L 148.290625 124.764492 
L 149.071045 131.03801 
L 149.461254 129.370054 
L 149.851464 128.507903 
L 150.241674 129.992741 
L 150.631884 127.025059 
L 151.022094 128.463137 
L 151.412303 132.280888 
L 151.802513 126.205151 
L 152.192723 127.786885 
L 152.582933 128.36622 
L 152.973142 130.870562 
L 153.363352 129.202161 
L 153.753562 130.454508 
L 154.143772 129.324651 
L 154.533982 131.486962 
L 154.924191 126.280908 
L 155.314401 129.134088 
L 155.704611 127.71524 
L 156.094821 127.933912 
L 156.485031 130.968429 
L 156.87524 131.451701 
L 157.26545 128.47423 
L 157.65566 131.651787 
L 158.04587 132.517027 
L 158.43608 132.328264 
L 158.826289 131.551236 
L 159.216499 127.719658 
L 159.606709 129.542392 
L 159.996919 129.013006 
L 160.387128 133.998128 
L 160.777338 132.652585 
L 161.167548 134.846951 
L 161.557758 134.467355 
L 161.947968 136.200018 
L 162.338177 135.546954 
L 162.728387 132.983733 
L 163.118597 132.881623 
L 163.508807 135.628088 
L 163.899017 134.707247 
L 164.289226 132.554932 
L 164.679436 134.507047 
L 165.069646 133.025755 
L 165.459856 139.875843 
L 165.850066 134.53711 
L 166.240275 138.060798 
L 166.630485 135.610679 
L 167.020695 134.071004 
L 167.410905 137.174334 
L 167.801115 138.894034 
L 168.191324 134.346656 
L 168.581534 133.628541 
L 168.971744 139.905496 
L 169.361954 139.351825 
L 169.752163 141.054145 
L 170.142373 140.309269 
L 170.532583 138.998649 
L 171.313003 139.653628 
L 171.703212 140.618431 
L 172.093422 137.012362 
L 172.483632 139.155162 
L 173.654261 136.511355 
L 174.044471 140.473876 
L 174.434681 136.474656 
L 174.824891 137.701627 
L 175.215101 137.834537 
L 175.60531 137.004483 
L 175.99552 137.949913 
L 176.38573 137.668135 
L 176.77594 141.592374 
L 177.166149 138.273643 
L 177.556359 140.58307 
L 178.336779 137.903665 
L 178.726989 139.007768 
L 179.117198 138.482864 
L 179.507408 137.668388 
L 179.897618 137.640647 
L 180.287828 137.021624 
L 180.678038 136.006231 
L 181.068247 137.474276 
L 181.458457 137.944546 
L 181.848667 135.579974 
L 182.238877 135.523171 
L 182.629087 137.942839 
L 183.019296 138.274288 
L 183.409506 140.577836 
L 184.189926 137.334687 
L 184.580135 137.22565 
L 185.750765 140.935747 
L 186.140975 138.706081 
L 186.531184 138.031621 
L 186.921394 141.258663 
L 187.311604 139.099333 
L 187.701814 141.369672 
L 188.092024 137.77225 
L 188.482233 137.347757 
L 188.872443 140.418194 
L 189.262653 139.414461 
L 189.652863 138.878593 
L 190.433282 142.18506 
L 190.823492 141.024633 
L 191.213702 141.071503 
L 191.603912 143.735901 
L 191.994122 143.388929 
L 192.774541 142.271918 
L 193.164751 144.383795 
L 193.554961 145.16363 
L 193.94517 144.086809 
L 194.33538 143.883762 
L 194.72559 144.458331 
L 195.1158 144.067005 
L 195.50601 144.523268 
L 195.896219 144.575892 
L 196.286429 144.057221 
L 196.676639 145.96549 
L 197.457059 142.712513 
L 197.847268 143.651971 
L 198.627688 146.492216 
L 199.017898 144.780635 
L 199.408108 144.081637 
L 199.798317 144.851548 
L 200.188527 146.190345 
L 200.578737 144.657309 
L 200.968947 145.82573 
L 201.749366 143.079696 
L 202.139576 144.296385 
L 202.529786 144.961194 
L 202.919996 143.808949 
L 203.310205 143.997531 
L 203.700415 146.215528 
L 204.090625 144.776813 
L 204.480835 144.718914 
L 204.871045 147.279174 
L 205.261254 145.481445 
L 205.651464 144.759004 
L 206.041674 144.778459 
L 206.822094 147.19603 
L 207.212303 145.77178 
L 207.602513 146.071329 
L 207.992723 146.691365 
L 208.382933 146.571939 
L 208.773142 146.757617 
L 209.163352 146.584022 
L 209.553562 145.073014 
L 209.943772 146.164435 
L 210.333982 146.019355 
L 210.724191 143.897742 
L 211.114401 143.447988 
L 211.504611 143.242848 
L 211.894821 144.033963 
L 212.285031 145.291173 
L 212.67524 144.827294 
L 213.06545 145.635636 
L 213.45566 145.168239 
L 214.23608 145.380979 
L 214.626289 145.052218 
L 215.016499 146.595932 
L 215.406709 146.597405 
L 215.796919 146.024231 
L 216.187128 146.12066 
L 216.577338 145.644051 
L 216.967548 145.637259 
L 217.357758 145.064343 
L 217.747968 146.527707 
L 218.138177 146.054691 
L 218.528387 146.378687 
L 218.918597 147.244862 
L 219.308807 147.743065 
L 220.089226 145.699305 
L 220.479436 145.614191 
L 221.259856 146.032133 
L 221.650066 145.842341 
L 222.040275 145.851376 
L 222.430485 147.242077 
L 223.210905 145.384992 
L 223.601115 144.331136 
L 223.991324 145.156912 
L 224.381534 145.113214 
L 224.771744 146.046768 
L 225.161954 146.109475 
L 225.552163 146.358465 
L 225.942373 147.967362 
L 226.332583 145.834115 
L 226.722793 145.471832 
L 227.113003 145.909016 
L 227.503212 145.176336 
L 227.893422 145.312189 
L 228.283632 144.622425 
L 228.673842 146.161472 
L 229.064052 145.988952 
L 229.454261 145.609696 
L 229.844471 146.340256 
L 230.234681 145.255584 
L 230.624891 146.137073 
L 231.015101 145.934825 
L 231.79552 144.794355 
L 232.18573 145.822868 
L 232.57594 146.259016 
L 232.966149 145.545879 
L 233.356359 145.704226 
L 233.746569 143.833665 
L 234.136779 143.39312 
L 234.917198 144.764031 
L 235.307408 141.471619 
L 235.697618 143.258355 
L 236.087828 142.1225 
L 236.478038 142.770739 
L 237.258457 140.613826 
L 237.648667 140.124447 
L 238.038877 139.984476 
L 238.429087 140.198564 
L 238.819296 139.866343 
L 239.209506 140.192398 
L 239.599716 139.209319 
L 239.989926 137.699922 
L 240.380135 138.211979 
L 240.770345 137.472748 
L 241.160555 135.659297 
L 241.550765 136.513748 
L 241.940975 136.846126 
L 242.331184 136.708991 
L 243.111604 136.991124 
L 243.501814 137.518005 
L 243.892024 137.284661 
L 244.282233 136.19745 
L 244.672443 135.462121 
L 245.062653 135.642996 
L 245.452863 135.398218 
L 245.843073 133.458761 
L 246.623492 134.309588 
L 247.403912 133.713049 
L 247.794122 133.073662 
L 248.184331 133.282183 
L 248.574541 134.055024 
L 248.964751 133.006076 
L 249.354961 133.292302 
L 249.74517 134.015364 
L 250.13538 133.691593 
L 250.52559 133.654318 
L 250.9158 134.463807 
L 251.30601 134.107787 
L 251.696219 134.925327 
L 252.086429 134.93708 
L 252.476639 134.225088 
L 252.866849 135.658831 
L 253.257059 135.124509 
L 253.647268 134.892409 
L 254.037478 136.184751 
L 254.427688 135.805301 
L 254.817898 136.403224 
L 255.208108 136.162705 
L 255.598317 137.044153 
L 255.988527 136.978352 
L 256.378737 137.257002 
L 257.549366 138.599311 
L 257.939576 138.164326 
L 258.329786 138.148874 
L 258.719996 138.875902 
L 259.110205 139.009496 
L 259.500415 138.996887 
L 259.890625 139.359301 
L 260.280835 140.196006 
L 261.061254 139.446259 
L 261.451464 139.624629 
L 261.841674 139.175819 
L 262.231884 140.360832 
L 262.622094 140.507721 
L 263.012303 140.277501 
L 263.402513 140.344361 
L 263.792723 139.688527 
L 264.182933 139.764017 
L 264.573142 140.47098 
L 264.963352 140.823755 
L 265.353562 140.00849 
L 265.743772 140.867939 
L 266.524191 140.809753 
L 266.914401 141.309758 
L 267.694821 140.6429 
L 268.085031 141.04968 
L 268.47524 141.153351 
L 268.86545 140.423128 
L 269.25566 140.617213 
L 269.64587 140.614077 
L 270.03608 141.862909 
L 270.426289 141.540245 
L 270.816499 141.368711 
L 271.206709 141.72775 
L 271.596919 141.138194 
L 271.987128 141.33949 
L 272.767548 141.923022 
L 273.157758 141.878898 
L 273.547968 141.446056 
L 273.938177 142.348734 
L 274.328387 142.177576 
L 274.718597 142.347438 
L 275.108807 142.125741 
L 275.889226 142.400078 
L 276.279436 142.475297 
L 276.669646 142.970731 
L 277.059856 143.255098 
L 277.840275 142.624791 
L 278.230485 142.940462 
L 278.620695 142.544034 
L 279.010905 142.637308 
L 279.401115 143.49133 
L 279.791324 143.441073 
L 280.181534 142.498801 
L 280.961954 143.267946 
L 281.352163 143.508972 
L 281.742373 144.054366 
L 282.132583 144.34474 
L 282.522793 144.041871 
L 282.913003 143.350409 
L 283.303212 143.766515 
L 283.693422 143.467922 
L 284.473842 144.488671 
L 284.864052 144.668617 
L 285.254261 144.67175 
L 285.644471 145.670451 
L 286.034681 145.760743 
L 286.424891 146.258358 
L 287.20531 147.847549 
L 287.59552 148.41856 
L 287.98573 148.68886 
L 288.37594 148.046676 
L 288.766149 148.448831 
L 289.156359 147.839463 
L 289.546569 148.048703 
L 289.936779 148.580042 
L 290.326989 148.47331 
L 290.717198 148.869761 
L 291.107408 148.968766 
L 292.278038 148.022524 
L 292.668247 148.76923 
L 293.058457 148.372024 
L 293.448667 148.493244 
L 293.838877 148.478269 
L 294.229087 148.748364 
L 295.399716 148.377159 
L 295.789926 148.893702 
L 296.570345 149.112677 
L 296.960555 148.8705 
L 297.350765 149.059157 
L 297.740975 148.448253 
L 298.131184 148.639738 
L 298.521394 148.443988 
L 298.911604 148.854225 
L 299.301814 148.831863 
L 299.692024 149.493462 
L 300.082233 149.32119 
L 300.472443 148.955499 
L 301.252863 149.348102 
L 301.643073 149.343716 
L 302.033282 149.914771 
L 302.423492 149.513644 
L 302.813702 149.769645 
L 303.594122 149.281482 
L 303.984331 149.528568 
L 304.374541 150.340114 
L 304.764751 149.765789 
L 305.154961 149.810813 
L 305.54517 150.424258 
L 305.93538 149.525793 
L 306.32559 149.916599 
L 307.10601 149.784206 
L 307.496219 149.297795 
L 308.276639 149.799474 
L 308.666849 150.375535 
L 309.057059 150.047529 
L 309.447268 150.061927 
L 309.837478 150.378216 
L 310.227688 149.992059 
L 310.617898 149.896424 
L 311.008108 150.321031 
L 311.398317 150.541045 
L 311.788527 150.338546 
L 312.178737 150.392109 
L 312.568947 150.798539 
L 312.959156 150.783767 
L 313.349366 150.475998 
L 313.739576 150.561397 
L 314.129786 150.76721 
L 314.519996 150.404802 
L 314.910205 150.591651 
L 315.300415 150.610028 
L 315.690625 150.43635 
L 316.080835 150.758872 
L 316.861254 150.626565 
L 317.251464 150.923386 
L 317.641674 151.43372 
L 318.031884 150.559952 
L 318.422094 150.812884 
L 318.812303 151.217041 
L 319.202513 151.339018 
L 319.592723 151.682673 
L 319.982933 151.686438 
L 320.373142 151.245356 
L 320.763352 151.340401 
L 321.153562 151.189276 
L 321.933982 151.459706 
L 322.324191 151.102673 
L 322.714401 151.462666 
L 323.104611 150.909301 
L 323.494821 151.435733 
L 323.885031 151.265245 
L 324.27524 151.238926 
L 324.66545 151.036157 
L 325.05566 151.155105 
L 325.44587 151.430886 
L 325.83608 151.182892 
L 326.616499 151.762198 
L 327.396919 151.339679 
L 327.787128 152.078093 
L 328.177338 151.541049 
L 328.567548 152.217249 
L 328.957758 151.720446 
L 329.738177 152.453899 
L 330.128387 152.47466 
L 330.518597 152.178387 
L 330.908807 152.557004 
L 331.299017 151.581745 
L 332.079436 152.08738 
L 332.469646 151.927755 
L 332.859856 151.923196 
L 333.640275 152.252462 
L 334.030485 151.786521 
L 334.420695 151.652429 
L 334.810905 152.266472 
L 335.201115 151.899119 
L 335.591324 151.93214 
L 335.981534 151.812318 
L 336.371744 151.389304 
L 336.761954 151.815481 
L 337.152163 151.796132 
L 337.932583 152.379641 
L 338.322793 152.494751 
L 338.713003 152.357874 
L 339.103212 151.779789 
L 339.493422 151.870045 
L 339.883632 151.81871 
L 340.664052 152.744623 
L 341.054261 152.027593 
L 341.834681 152.579643 
L 342.224891 151.995365 
L 342.615101 152.91781 
L 343.00531 152.035264 
L 343.39552 152.038265 
L 343.78573 152.223482 
L 344.17594 152.150448 
L 344.956359 152.494614 
L 345.346569 153.040017 
L 346.126989 152.224673 
L 346.517198 152.337672 
L 346.907408 152.756649 
L 347.297618 152.018976 
L 347.687828 152.465712 
L 348.078038 152.591943 
L 348.468247 152.545378 
L 348.858457 152.874846 
L 349.638877 153.082897 
L 350.029087 153.593069 
L 350.419296 153.244655 
L 350.809506 153.559309 
L 351.199716 153.291544 
L 351.589926 153.297665 
L 352.760555 153.69826 
L 353.150765 153.675887 
L 353.540975 154.340532 
L 353.931184 153.994852 
L 354.321394 154.429286 
L 354.711604 154.116396 
L 355.101814 154.144122 
L 355.882233 154.426372 
L 356.272443 154.494814 
L 356.662653 154.264573 
L 357.052863 154.362213 
L 357.443073 154.155068 
L 358.223492 154.004674 
L 358.613702 153.935798 
L 359.003912 154.459518 
L 359.394122 154.768638 
L 359.784331 154.579417 
L 360.174541 155.456125 
L 361.73538 155.400505 
L 362.12559 155.46561 
L 362.5158 155.063341 
L 362.90601 155.62921 
L 363.296219 155.636871 
L 364.076639 155.925934 
L 364.466849 155.242112 
L 364.857059 155.242005 
L 365.247268 155.431229 
L 365.637478 155.342126 
L 366.027688 155.675356 
L 366.417898 155.317863 
L 366.808108 155.312605 
L 367.198317 155.587132 
L 367.588527 155.539639 
L 367.978737 155.212933 
L 368.759156 155.795154 
L 370.319996 155.96858 
L 370.710205 155.538262 
L 371.490625 155.561329 
L 371.880835 155.127905 
L 372.271045 155.427119 
L 372.661254 154.904094 
L 373.051464 155.655727 
L 373.441674 155.442788 
L 373.831884 155.553067 
L 374.222094 155.221002 
L 374.612303 155.211599 
L 375.002513 155.376185 
L 375.392723 155.325448 
L 375.782933 155.754255 
L 376.173142 156.000229 
L 376.563352 155.642691 
L 376.953562 155.71339 
L 377.343772 155.55804 
L 377.733982 156.06054 
L 379.294821 155.963129 
L 379.685031 155.754411 
L 380.07524 155.876285 
L 380.85566 156.499908 
L 381.24587 156.33346 
L 382.026289 156.593919 
L 382.416499 156.8335 
L 382.806709 156.668702 
L 383.196919 156.794918 
L 383.587128 156.476798 
L 384.367548 156.337321 
L 384.757758 156.607915 
L 386.318597 156.199787 
L 386.708807 156.409511 
L 387.099017 156.418915 
L 387.879436 156.920316 
L 389.050066 156.500873 
L 389.440275 156.703038 
L 389.830485 156.705211 
L 390.220695 157.113282 
L 390.610905 156.699662 
L 391.391324 157.104351 
L 391.781534 157.024251 
L 392.171744 156.489976 
L 392.561954 156.827424 
L 393.342373 156.908301 
L 393.732583 156.981501 
L 394.122793 156.459182 
L 394.513003 156.947286 
L 394.903212 157.035849 
L 395.293422 156.907641 
L 395.683632 156.962777 
L 396.073842 156.661193 
L 396.464052 156.696036 
L 396.854261 156.53097 
L 397.244471 156.491423 
L 397.634681 156.746532 
L 398.024891 156.511599 
L 398.415101 157.237169 
L 398.80531 156.881704 
L 399.19552 157.134891 
L 399.58573 156.859105 
L 400.366149 157.091594 
L 401.536779 157.060549 
L 401.926989 156.659538 
L 402.317198 156.484064 
L 402.707408 157.089212 
L 403.097618 156.919912 
L 403.487828 157.220388 
L 404.658457 156.938472 
L 405.048667 156.524485 
L 405.438877 156.773895 
L 406.219296 156.595714 
L 406.609506 156.120883 
L 406.999716 156.279941 
L 407.389926 156.10918 
L 407.780135 156.802168 
L 408.170345 156.50623 
L 408.950765 156.570882 
L 409.731184 156.085815 
L 410.121394 156.558871 
L 410.901814 156.428751 
L 411.292024 156.743505 
L 411.682233 156.563803 
L 412.072443 156.865861 
L 412.462653 156.778252 
L 412.852863 156.87216 
L 414.023492 156.796657 
L 414.413702 156.349296 
L 414.803912 156.889186 
L 416.364751 156.72056 
L 416.754961 156.948533 
L 417.14517 156.867149 
L 417.92559 156.924917 
L 418.3158 157.307309 
L 418.70601 157.138188 
L 419.876639 157.020573 
L 420.266849 157.242116 
L 420.657059 156.89345 
L 421.047268 156.954108 
L 421.437478 156.868894 
L 421.827688 156.91237 
L 422.217898 157.117368 
L 422.608108 157.564812 
L 422.998317 157.002444 
L 424.168947 157.304028 
L 424.559156 157.064388 
L 424.949366 157.098418 
L 425.729786 157.402296 
L 426.119996 157.157317 
L 426.900415 157.305286 
L 427.290625 157.041411 
L 428.461254 157.02764 
L 428.851464 157.231152 
L 429.631884 157.13538 
L 430.022094 156.949878 
L 430.412303 157.166234 
L 430.802513 156.814488 
L 431.582933 156.947148 
L 432.753562 157.092111 
L 433.143772 157.169659 
L 433.533982 156.863023 
L 434.314401 156.897315 
L 434.704611 157.19827 
L 435.094821 157.229496 
L 436.26545 156.590116 
L 437.04587 157.064287 
L 437.43608 156.939517 
L 438.216499 157.183636 
L 438.606709 156.978618 
L 439.777338 157.215952 
L 440.167548 156.659101 
L 440.557758 157.073064 
L 441.728387 156.957331 
L 442.118597 157.355872 
L 442.899017 156.861785 
L 443.289226 157.05704 
L 443.679436 156.635702 
L 444.069646 156.752532 
L 444.459856 156.679933 
L 444.850066 156.857354 
L 445.240275 156.844268 
L 445.630485 157.049871 
L 446.410905 157.113893 
L 447.191324 156.859888 
L 447.581534 157.006028 
L 448.361954 156.903558 
L 448.752163 157.157826 
L 449.142373 157.005948 
L 449.532583 156.707447 
L 449.922793 156.7611 
L 450.313003 156.965757 
L 451.093422 156.879134 
L 451.483632 157.015963 
L 451.873842 156.933193 
L 452.264052 156.5966 
L 452.654261 156.938272 
L 453.434681 156.619101 
L 453.824891 156.905403 
L 454.99552 156.840711 
L 455.38573 156.98429 
L 455.77594 156.784391 
L 456.166149 156.950945 
L 456.556359 156.845454 
L 456.946569 156.944772 
L 457.336779 156.738596 
L 457.726989 156.985249 
L 458.117198 156.798298 
L 459.678038 157.228802 
L 460.068247 157.085884 
L 460.458457 157.29452 
L 460.848667 157.358049 
L 461.629087 156.767647 
L 462.019296 157.276589 
L 462.409506 156.969462 
L 462.799716 157.357298 
L 463.189926 157.315657 
L 463.580135 156.992552 
L 463.970345 157.255557 
L 464.360555 157.107822 
L 464.750765 157.194068 
L 465.140975 156.964599 
L 465.921394 156.881277 
L 466.311604 156.857108 
L 466.701814 157.127138 
L 467.092024 156.814408 
L 468.262653 157.181291 
L 468.652863 157.127673 
L 469.043073 156.920315 
L 470.213702 157.081161 
L 470.603912 156.862729 
L 471.384331 157.202825 
L 471.774541 156.860582 
L 472.164751 157.04992 
L 472.94517 157.097812 
L 473.33538 156.884484 
L 474.1158 157.04506 
L 474.50601 157.240259 
L 474.896219 157.081584 
L 475.286429 157.06549 
L 475.676639 156.804342 
L 476.457059 156.900257 
L 476.847268 156.620796 
L 477.237478 156.584278 
L 477.627688 156.28696 
L 478.408108 157.002038 
L 478.798317 156.78861 
L 479.188527 157.04417 
L 479.968947 156.965016 
L 480.359156 156.958457 
L 480.749366 157.162572 
L 481.139576 157.050881 
L 481.529786 156.783993 
L 481.919996 157.317478 
L 482.310205 157.24046 
L 482.700415 157.293773 
L 483.871045 157.01247 
L 484.261254 156.930029 
L 484.651464 157.151737 
L 485.041674 156.774057 
L 485.431884 157.071522 
L 485.822094 157.188691 
L 486.212303 157.071641 
L 486.992723 157.157254 
L 487.773142 157.214291 
L 488.163352 157.15898 
L 488.553562 157.360904 
L 489.333982 156.997702 
L 489.724191 157.194465 
L 490.114401 156.958928 
L 490.504611 157.207504 
L 491.285031 157.123454 
L 491.67524 157.379931 
L 492.45566 156.781357 
L 492.84587 156.843251 
L 493.23608 157.025809 
L 493.626289 156.672248 
L 494.016499 156.997018 
L 494.406709 156.767273 
L 495.187128 156.891964 
L 495.577338 156.525233 
L 495.967548 157.069887 
L 496.357758 156.711689 
L 497.138177 156.629385 
L 497.528387 156.921364 
L 497.918597 156.741025 
L 498.308807 156.931866 
L 498.699017 156.869437 
L 499.089226 156.95297 
L 499.479436 157.325228 
L 499.869646 157.298327 
L 500.259856 156.965534 
L 501.040275 157.174368 
L 501.430485 157.216075 
L 501.820695 156.922971 
L 502.210905 157.106337 
L 502.991324 157.022951 
L 503.381534 157.332163 
L 503.771744 157.168667 
L 504.552163 157.453814 
L 504.942373 156.994763 
L 505.332583 156.99318 
L 505.722793 157.190726 
L 506.113003 156.968555 
L 506.503212 157.005915 
L 506.893422 157.276595 
L 507.283632 157.026292 
L 507.673842 157.241281 
L 508.064052 156.931915 
L 508.844471 156.664016 
L 509.234681 156.84604 
L 510.015101 156.780014 
L 510.40531 156.673134 
L 510.79552 156.824006 
L 511.18573 157.168924 
L 511.57594 157.190466 
L 513.136779 156.75704 
L 513.526989 157.067917 
L 513.917198 157.201226 
L 514.307408 157.552285 
L 514.697618 157.393819 
L 515.087828 157.356464 
L 515.478038 157.099451 
L 515.868247 157.305882 
L 517.038877 156.954412 
L 517.429087 157.08658 
L 518.209506 156.716346 
L 518.599716 156.814848 
L 518.989926 156.794005 
L 519.380135 157.097061 
L 519.770345 156.752772 
L 520.160555 156.809305 
L 520.550765 156.726122 
L 521.331184 156.853729 
L 522.111604 156.558932 
L 522.892024 156.821823 
L 523.282233 156.637478 
L 523.672443 157.228641 
L 524.062653 156.790699 
L 524.452863 156.873658 
L 524.843073 156.761293 
L 525.623492 157.043346 
L 526.013702 156.626639 
L 526.403912 156.745497 
L 526.794122 156.735423 
L 527.184331 156.589803 
L 527.574541 156.967555 
L 527.964751 156.991546 
L 529.13538 156.619805 
L 529.52559 157.033005 
L 529.9158 156.256251 
L 530.30601 156.560651 
L 531.086429 156.581748 
L 531.866849 156.40131 
L 532.257059 156.379756 
L 533.427688 156.669645 
L 534.208108 156.541291 
L 534.598317 156.336147 
L 534.988527 156.331775 
L 535.378737 156.531117 
L 536.159156 156.429771 
L 536.549366 156.726495 
L 536.939576 156.686724 
L 537.329786 156.912091 
L 538.110205 156.765474 
L 538.500415 157.007131 
L 538.890625 156.657293 
L 539.671045 156.765566 
L 540.061254 156.676975 
L 540.451464 156.774615 
L 540.841674 156.676206 
L 541.231884 156.897556 
L 541.622094 156.580199 
L 542.012303 157.002127 
L 542.792723 156.38125 
L 544.353562 156.42652 
L 545.133982 156.166888 
L 545.524191 156.676661 
L 545.914401 156.607214 
L 546.304611 156.813065 
L 546.694821 156.685717 
L 547.47524 156.584306 
L 547.86545 156.45115 
L 548.25566 156.524964 
L 548.64587 156.857067 
L 549.426289 156.844767 
L 550.206709 157.035811 
L 550.596919 156.956528 
L 550.987128 156.700263 
L 551.767548 156.982464 
L 552.157758 156.829137 
L 552.938177 156.851996 
L 553.328387 156.630005 
L 554.108807 156.813495 
L 554.499017 156.530259 
L 555.279436 156.526709 
L 555.669646 156.791914 
L 556.059856 156.70857 
L 556.450066 156.482309 
L 556.840275 156.748484 
L 557.230485 156.667525 
L 559.181534 156.873798 
L 559.571744 156.665598 
L 559.961954 156.969997 
L 560.352163 156.868234 
L 560.742373 156.394809 
L 561.522793 156.935192 
L 561.913003 156.648261 
L 562.303212 156.779428 
L 562.693422 156.637957 
L 563.083632 156.767656 
L 563.473842 157.115061 
L 563.864052 156.695413 
L 564.254261 156.494281 
L 565.034681 156.707596 
L 565.424891 157.044696 
L 565.815101 156.747812 
L 566.59552 156.681122 
L 566.98573 156.917042 
L 567.766149 156.556288 
L 568.156359 156.971636 
L 568.546569 156.724337 
L 568.936779 156.872701 
L 569.326989 156.814154 
L 569.717198 156.950991 
L 570.107408 156.807323 
L 570.497618 157.214683 
L 570.887828 157.158081 
L 571.278038 156.902606 
L 571.668247 157.197934 
L 572.058457 157.274166 
L 572.448667 157.006934 
L 572.838877 156.933382 
L 574.009506 157.299545 
L 574.789926 157.317807 
L 575.180135 157.395789 
L 575.570345 157.229788 
L 578.301814 157.153888 
L 578.692024 157.218635 
L 579.082233 157.4042 
L 580.252863 157.319612 
L 580.643073 157.066366 
L 581.033282 157.030827 
L 581.423492 157.208899 
L 582.594122 157.305866 
L 582.984331 157.147753 
L 583.374541 157.478512 
L 583.764751 157.431349 
L 584.154961 157.151738 
L 584.54517 157.064506 
L 584.93538 157.277349 
L 586.496219 157.153039 
L 586.886429 157.424577 
L 587.276639 157.185398 
L 587.666849 157.377459 
L 588.057059 157.38607 
L 588.447268 157.16414 
L 589.227688 157.543701 
L 589.617898 157.473206 
L 590.008108 157.186025 
L 590.398317 157.440872 
L 590.788527 157.398754 
L 591.178737 157.230969 
L 591.959156 157.136352 
L 592.349366 157.396812 
L 592.739576 157.236476 
L 593.129786 157.410381 
L 593.910205 157.339079 
L 594.300415 157.452236 
L 595.080835 157.458858 
L 595.471045 157.609286 
L 595.861254 157.397912 
L 596.251464 157.363696 
L 596.641674 157.095948 
L 597.031884 157.451459 
L 597.422094 157.228895 
L 597.812303 157.165011 
L 598.202513 157.243152 
L 598.592723 157.461782 
L 598.982933 157.176534 
L 599.373142 157.386941 
L 599.763352 157.297579 
L 600.153562 157.720571 
L 600.543772 157.405566 
L 600.933982 157.685948 
L 601.324191 157.731368 
L 602.104611 157.459591 
L 602.494821 157.829444 
L 602.885031 157.401019 
L 603.27524 157.383646 
L 603.66545 157.688003 
L 604.44587 157.478963 
L 604.83608 157.611723 
L 605.616499 157.463038 
L 606.006709 157.196849 
L 606.396919 157.450248 
L 606.787128 157.273119 
L 607.177338 157.486691 
L 607.567548 157.248067 
L 607.957758 157.398509 
L 608.347968 157.413549 
L 608.738177 157.544717 
L 610.689226 157.351241 
L 611.079436 157.047504 
L 611.859856 157.474026 
L 613.420695 157.608809 
L 613.810905 157.616021 
L 614.201115 157.762144 
L 614.591324 157.577958 
L 614.981534 157.748481 
L 615.371744 157.674787 
L 615.761954 157.367928 
L 616.542373 157.731152 
L 616.932583 157.675192 
L 617.322793 157.388196 
L 617.713003 157.723952 
L 618.103212 157.425709 
L 618.883632 157.276192 
L 619.273842 157.243702 
L 619.664052 157.371686 
L 620.054261 157.311179 
L 620.444471 157.480472 
L 620.834681 157.333347 
L 621.615101 157.435204 
L 622.00531 157.213202 
L 622.39552 157.42264 
L 623.17594 157.516533 
L 623.566149 157.397726 
L 623.956359 157.471742 
L 624.346569 157.400704 
L 624.736779 157.452568 
L 625.126989 157.118808 
L 625.126989 157.118808 
" clip-path="url(#pb82ec345d6)" style="fill: none; stroke: #1f77b4; stroke-width: 1.5; stroke-linecap: square"/>
   </g>
   <g id="line2d_12">
    <path d="M 117.854261 254.938135 
L 118.244471 296.03625 
L 119.024891 208.813361 
L 119.415101 187.276667 
L 119.80531 189.706367 
L 120.19552 199.947919 
L 120.58573 215.797721 
L 121.366149 198.696802 
L 121.756359 195.653424 
L 122.926989 184.771631 
L 123.317198 181.518091 
L 123.707408 172.836631 
L 124.097618 177.084168 
L 124.487828 176.002442 
L 124.878038 180.292152 
L 125.658457 176.06466 
L 126.048667 175.975991 
L 126.438877 174.803012 
L 126.829087 176.218112 
L 127.219296 174.095347 
L 127.609506 172.621992 
L 127.999716 174.243191 
L 128.389926 176.566693 
L 128.780135 173.999041 
L 129.170345 173.336092 
L 129.560555 171.437928 
L 129.950765 173.335198 
L 130.340975 172.257273 
L 130.731184 172.221129 
L 131.121394 171.317887 
L 131.511604 174.228225 
L 131.901814 174.212043 
L 132.292024 172.3616 
L 132.682233 174.62792 
L 133.462653 173.635043 
L 133.852863 172.33708 
L 134.243073 172.44086 
L 134.633282 171.153063 
L 135.023492 171.94099 
L 135.413702 171.945602 
L 135.803912 172.134762 
L 136.194122 171.688203 
L 136.584331 172.966357 
L 136.974541 172.10459 
L 137.364751 171.552824 
L 137.754961 172.491549 
L 138.14517 173.746198 
L 138.53538 171.707896 
L 139.3158 171.970886 
L 139.70601 170.970049 
L 140.486429 171.354679 
L 141.266849 173.167313 
L 142.047268 172.811369 
L 142.437478 171.409545 
L 143.217898 174.302414 
L 143.608108 172.613514 
L 143.998317 172.593085 
L 144.388527 171.222889 
L 144.778737 171.566571 
L 145.168947 172.197917 
L 145.949366 172.719121 
L 146.339576 172.528508 
L 146.729786 171.880279 
L 147.119996 171.604792 
L 147.510205 172.486302 
L 147.900415 172.588694 
L 148.290625 173.111377 
L 148.680835 171.824538 
L 149.071045 171.427537 
L 149.461254 172.134662 
L 149.851464 172.388463 
L 150.241674 172.99041 
L 151.022094 173.19691 
L 151.412303 172.615522 
L 151.802513 173.116519 
L 152.192723 174.450834 
L 152.973142 173.067075 
L 153.363352 173.406221 
L 153.753562 172.090916 
L 154.143772 173.59965 
L 154.533982 173.205076 
L 155.314401 175.600819 
L 155.704611 175.336454 
L 156.094821 175.347132 
L 156.485031 172.839012 
L 156.87524 174.86629 
L 157.26545 172.849161 
L 157.65566 173.691814 
L 158.04587 174.198152 
L 158.43608 175.266 
L 158.826289 173.253777 
L 159.216499 175.196099 
L 159.606709 176.064354 
L 159.996919 174.710514 
L 160.387128 174.716729 
L 160.777338 174.534071 
L 161.167548 173.717343 
L 161.557758 174.202458 
L 161.947968 175.168232 
L 162.338177 173.329799 
L 162.728387 173.707572 
L 163.118597 175.512934 
L 163.508807 175.412587 
L 164.289226 174.236053 
L 164.679436 174.495109 
L 165.069646 174.457927 
L 165.459856 173.598044 
L 165.850066 173.556798 
L 166.240275 174.226957 
L 166.630485 172.842117 
L 167.020695 174.033998 
L 167.410905 171.82722 
L 167.801115 173.466877 
L 168.191324 171.590813 
L 168.581534 173.837477 
L 168.971744 174.196744 
L 169.752163 172.477713 
L 170.142373 174.105548 
L 170.532583 170.266629 
L 170.922793 170.28206 
L 171.313003 170.728368 
L 171.703212 172.379129 
L 172.093422 172.545078 
L 172.483632 173.10725 
L 172.873842 172.727759 
L 173.654261 171.206784 
L 174.044471 172.85732 
L 174.434681 169.132799 
L 174.824891 167.331023 
L 175.215101 169.746138 
L 175.60531 170.89915 
L 175.99552 171.197267 
L 176.38573 171.290808 
L 176.77594 170.065879 
L 177.166149 170.701915 
L 177.556359 169.38946 
L 177.946569 169.828205 
L 178.336779 167.50936 
L 178.726989 169.867771 
L 179.117198 170.174255 
L 179.507408 169.140012 
L 179.897618 169.54945 
L 180.287828 171.783569 
L 180.678038 168.517541 
L 181.068247 168.987571 
L 181.458457 168.750076 
L 182.238877 171.450895 
L 182.629087 171.729048 
L 183.019296 171.055364 
L 183.409506 168.730249 
L 183.799716 170.262241 
L 184.189926 171.317043 
L 184.580135 170.891562 
L 184.970345 168.43404 
L 185.750765 169.887103 
L 186.140975 170.685864 
L 186.531184 167.229364 
L 186.921394 169.860336 
L 187.311604 170.315567 
L 187.701814 166.725035 
L 188.092024 168.727225 
L 188.482233 168.558664 
L 189.262653 169.35949 
L 189.652863 169.370134 
L 190.043073 169.961826 
L 190.433282 168.556259 
L 190.823492 170.718922 
L 191.213702 168.860858 
L 191.603912 170.40796 
L 191.994122 167.685218 
L 192.384331 168.199201 
L 193.164751 170.578275 
L 193.94517 169.629412 
L 194.72559 169.775695 
L 195.1158 170.735877 
L 195.50601 170.170243 
L 195.896219 170.533776 
L 196.286429 170.003519 
L 196.676639 170.422865 
L 197.066849 169.232927 
L 197.457059 168.608221 
L 197.847268 168.981682 
L 198.237478 169.866374 
L 198.627688 168.866532 
L 199.017898 170.029044 
L 199.408108 169.272354 
L 199.798317 170.493606 
L 200.188527 169.511944 
L 200.578737 169.666177 
L 200.968947 170.312552 
L 201.749366 170.441513 
L 202.139576 169.193993 
L 202.529786 170.700225 
L 202.919996 170.408394 
L 203.310205 170.390795 
L 203.700415 168.707613 
L 204.090625 168.567834 
L 204.480835 168.555006 
L 204.871045 169.782664 
L 205.261254 169.375414 
L 205.651464 170.828587 
L 206.041674 169.300857 
L 206.431884 169.55813 
L 206.822094 168.334885 
L 207.212303 167.962417 
L 207.992723 169.137734 
L 208.382933 169.272664 
L 208.773142 168.226628 
L 209.163352 169.71668 
L 209.943772 167.264729 
L 210.333982 168.508186 
L 210.724191 168.568905 
L 211.114401 169.47394 
L 211.504611 167.353207 
L 212.285031 169.12375 
L 212.67524 167.556371 
L 213.06545 167.498236 
L 213.45566 168.372565 
L 213.84587 166.057744 
L 214.23608 168.455916 
L 214.626289 169.283844 
L 215.406709 168.434012 
L 216.187128 169.942208 
L 216.577338 171.442653 
L 216.967548 170.744467 
L 217.357758 169.635116 
L 217.747968 169.531875 
L 218.138177 169.192391 
L 218.528387 171.219978 
L 218.918597 169.751376 
L 219.308807 168.883082 
L 219.699017 169.9975 
L 220.089226 170.620432 
L 220.479436 170.428596 
L 220.869646 169.78904 
L 221.259856 171.271427 
L 221.650066 170.455118 
L 222.430485 169.500853 
L 223.601115 171.378662 
L 223.991324 169.724076 
L 224.381534 169.908073 
L 224.771744 170.59831 
L 225.161954 168.845588 
L 225.942373 170.196902 
L 226.332583 170.477496 
L 226.722793 169.453045 
L 227.113003 170.539155 
L 227.503212 170.41447 
L 227.893422 170.541219 
L 228.283632 170.364321 
L 228.673842 169.476405 
L 229.454261 170.988097 
L 229.844471 170.720209 
L 230.234681 170.610929 
L 230.624891 170.250932 
L 231.015101 170.983601 
L 231.40531 171.334155 
L 231.79552 170.607384 
L 232.18573 171.594585 
L 232.57594 170.74801 
L 232.966149 171.102039 
L 233.356359 165.668203 
L 233.746569 157.260271 
L 234.136779 158.109435 
L 234.917198 158.065066 
L 235.307408 159.253093 
L 235.697618 157.933172 
L 236.478038 159.216684 
L 236.868247 158.952384 
L 237.258457 159.774269 
L 237.648667 159.497486 
L 238.038877 159.514434 
L 238.429087 159.810076 
L 238.819296 159.243292 
L 239.209506 159.990796 
L 239.599716 159.520692 
L 239.989926 160.025602 
L 240.770345 159.908322 
L 241.160555 160.32958 
L 241.550765 160.154614 
L 241.940975 159.818638 
L 242.331184 159.734872 
L 242.721394 159.897215 
L 243.111604 159.637781 
L 243.501814 160.053261 
L 243.892024 159.948993 
L 244.282233 160.615295 
L 244.672443 159.828245 
L 245.062653 159.865906 
L 245.452863 159.767255 
L 245.843073 160.544821 
L 246.233282 159.858306 
L 246.623492 160.628665 
L 247.013702 160.316323 
L 247.403912 160.832474 
L 247.794122 160.978815 
L 248.184331 159.986471 
L 248.574541 159.913214 
L 248.964751 160.487713 
L 249.74517 160.706538 
L 250.52559 160.026634 
L 250.9158 160.417298 
L 251.30601 160.304212 
L 251.696219 160.57298 
L 252.086429 160.25048 
L 252.476639 160.492115 
L 252.866849 160.432943 
L 253.257059 160.643788 
L 253.647268 160.544122 
L 254.037478 160.312588 
L 254.427688 160.211009 
L 254.817898 159.614008 
L 255.208108 160.273213 
L 255.988527 159.906737 
L 256.378737 160.47459 
L 256.768947 159.342558 
L 257.159156 159.780157 
L 257.549366 159.273843 
L 258.329786 159.899822 
L 258.719996 159.765321 
L 259.110205 159.897305 
L 259.500415 159.424204 
L 259.890625 159.791611 
L 260.280835 159.646656 
L 260.671045 159.29827 
L 261.061254 159.624578 
L 261.451464 159.152912 
L 261.841674 159.176085 
L 262.231884 159.064748 
L 262.622094 159.418686 
L 263.012303 159.253508 
L 263.792723 159.800961 
L 264.182933 159.610222 
L 264.573142 159.767646 
L 264.963352 159.258101 
L 265.353562 159.465059 
L 265.743772 159.516275 
L 266.133982 159.389562 
L 267.304611 159.476896 
L 267.694821 159.130857 
L 268.47524 159.603505 
L 268.86545 158.947125 
L 269.25566 159.258055 
L 270.03608 159.591428 
L 270.426289 159.406045 
L 270.816499 159.503871 
L 271.206709 158.876726 
L 271.596919 159.627697 
L 271.987128 159.631467 
L 272.377338 159.09707 
L 272.767548 159.191761 
L 273.157758 159.851682 
L 273.547968 159.400114 
L 273.938177 159.600971 
L 274.328387 159.400481 
L 274.718597 159.734207 
L 275.108807 159.494294 
L 275.889226 159.609264 
L 277.059856 159.752787 
L 277.450066 159.198844 
L 277.840275 159.908282 
L 278.230485 159.466196 
L 278.620695 159.699557 
L 279.010905 159.645381 
L 279.401115 160.019621 
L 279.791324 159.595929 
L 281.742373 159.606665 
L 282.132583 159.94807 
L 282.522793 159.719841 
L 282.913003 159.649272 
L 283.303212 162.848622 
L 283.693422 158.196261 
L 284.083632 159.594087 
L 284.473842 159.816541 
L 284.864052 159.585803 
L 285.254261 159.791473 
L 285.644471 159.62025 
L 286.034681 159.814353 
L 286.424891 159.681243 
L 286.815101 159.994622 
L 287.20531 159.768833 
L 287.59552 159.373059 
L 288.766149 159.860811 
L 289.156359 159.527404 
L 289.546569 159.690969 
L 289.936779 159.504895 
L 290.326989 159.835262 
L 290.717198 159.449771 
L 291.107408 159.812848 
L 291.497618 159.550961 
L 291.887828 159.758294 
L 292.668247 159.550144 
L 293.448667 159.683732 
L 293.838877 159.744483 
L 294.619296 159.492884 
L 295.009506 159.886462 
L 295.399716 159.425712 
L 296.570345 159.597965 
L 297.350765 159.507324 
L 297.740975 159.820618 
L 298.131184 159.745091 
L 298.911604 159.926608 
L 299.301814 159.71463 
L 299.692024 160.015056 
L 300.082233 159.538858 
L 301.252863 160.086147 
L 301.643073 159.750671 
L 302.423492 159.785548 
L 302.813702 159.464118 
L 303.203912 159.979955 
L 303.594122 160.123462 
L 303.984331 159.783599 
L 304.764751 159.852492 
L 305.154961 159.76547 
L 305.54517 159.849602 
L 305.93538 160.331629 
L 306.32559 159.971812 
L 306.7158 159.825108 
L 307.10601 159.831308 
L 307.496219 160.129987 
L 307.886429 160.084658 
L 308.276639 160.428929 
L 308.666849 159.703395 
L 310.227688 159.86017 
L 310.617898 160.021164 
L 311.008108 159.838181 
L 311.398317 160.044828 
L 312.178737 159.802884 
L 312.568947 160.08104 
L 312.959156 159.821094 
L 313.349366 159.862872 
L 313.739576 159.664279 
L 314.519996 159.991116 
L 314.910205 159.845669 
L 315.300415 159.564818 
L 315.690625 159.790168 
L 316.080835 159.71072 
L 316.471045 159.947068 
L 317.251464 159.906012 
L 317.641674 159.76006 
L 318.031884 159.991688 
L 318.812303 159.622636 
L 319.202513 159.63479 
L 319.592723 160.404745 
L 319.982933 159.638482 
L 320.373142 159.88917 
L 320.763352 159.97846 
L 321.153562 159.696818 
L 321.543772 160.236157 
L 321.933982 160.100391 
L 322.324191 159.790208 
L 322.714401 160.004479 
L 323.104611 159.662231 
L 323.494821 159.830562 
L 323.885031 160.244886 
L 324.27524 160.341749 
L 324.66545 159.687567 
L 325.05566 159.846473 
L 325.44587 159.855453 
L 325.83608 159.645816 
L 326.226289 159.946496 
L 326.616499 159.753758 
L 327.006709 160.061147 
L 328.567548 159.708261 
L 328.957758 159.433518 
L 329.738177 159.985576 
L 330.128387 159.963234 
L 330.518597 160.270411 
L 330.908807 159.757382 
L 332.079436 160.045401 
L 332.859856 159.52485 
L 333.640275 159.783737 
L 334.030485 160.015356 
L 334.420695 159.970082 
L 334.810905 159.466431 
L 335.591324 159.635054 
L 336.371744 159.885683 
L 336.761954 159.906866 
L 337.152163 159.816491 
L 337.542373 159.598509 
L 337.932583 159.9902 
L 338.322793 159.46575 
L 338.713003 159.562266 
L 339.103212 159.920128 
L 339.493422 159.713966 
L 339.883632 159.773368 
L 340.664052 159.604772 
L 341.444471 159.926805 
L 341.834681 159.652873 
L 343.00531 159.965805 
L 343.39552 159.683187 
L 343.78573 159.548664 
L 344.566149 159.707622 
L 344.956359 159.896745 
L 345.346569 159.945302 
L 345.736779 159.644816 
L 346.517198 159.736002 
L 346.907408 159.510788 
L 347.687828 159.811761 
L 348.858457 159.450157 
L 349.248667 159.792891 
L 350.419296 159.629241 
L 350.809506 159.587784 
L 351.199716 159.78791 
L 351.589926 159.697469 
L 352.760555 159.848373 
L 353.150765 159.419198 
L 353.931184 159.72341 
L 354.711604 159.395262 
L 355.101814 159.633672 
L 355.492024 159.68716 
L 355.882233 159.473452 
L 356.272443 159.770971 
L 356.662653 159.680967 
L 357.052863 159.826732 
L 357.443073 159.701002 
L 358.613702 159.706407 
L 359.003912 158.956341 
L 359.394122 159.210162 
L 359.784331 159.150131 
L 360.954961 159.326243 
L 361.34517 159.274705 
L 361.73538 159.101313 
L 362.12559 159.082649 
L 362.5158 159.538282 
L 362.90601 159.18276 
L 363.296219 159.372376 
L 364.076639 159.415286 
L 364.466849 159.405631 
L 365.247268 159.099731 
L 365.637478 159.168823 
L 366.027688 159.613607 
L 366.417898 159.548557 
L 366.808108 159.303915 
L 367.198317 159.197683 
L 369.149366 159.347542 
L 369.539576 159.231899 
L 370.319996 159.535565 
L 370.710205 159.212669 
L 371.100415 159.350605 
L 371.490625 159.010449 
L 371.880835 159.577426 
L 372.271045 159.346066 
L 373.051464 159.271282 
L 373.441674 159.582383 
L 373.831884 159.202346 
L 374.222094 159.384679 
L 374.612303 159.292158 
L 375.002513 159.356976 
L 375.392723 159.145893 
L 375.782933 159.101161 
L 376.173142 159.326422 
L 376.563352 159.329543 
L 376.953562 159.536034 
L 377.343772 159.403914 
L 378.514401 159.628812 
L 379.294821 159.206096 
L 379.685031 159.228473 
L 380.07524 159.556564 
L 380.85566 159.344892 
L 381.24587 159.371927 
L 381.63608 159.515831 
L 382.026289 159.412729 
L 382.806709 159.516309 
L 383.196919 159.291315 
L 383.977338 159.604475 
L 384.757758 159.478132 
L 385.147968 159.163141 
L 385.928387 159.43178 
L 386.318597 159.352497 
L 386.708807 159.655163 
L 387.099017 159.574333 
L 387.489226 159.285191 
L 387.879436 159.381459 
L 388.659856 159.324402 
L 389.050066 159.458589 
L 389.440275 159.088448 
L 391.001115 159.732886 
L 391.391324 159.821255 
L 391.781534 159.536899 
L 392.561954 159.350916 
L 393.732583 159.64263 
L 394.513003 159.167728 
L 395.293422 159.803997 
L 396.073842 159.420055 
L 396.464052 159.583008 
L 397.244471 159.307652 
L 397.634681 159.83824 
L 398.024891 159.50724 
L 398.415101 159.513531 
L 398.80531 159.750751 
L 399.58573 159.335591 
L 399.97594 159.395116 
L 400.366149 159.244557 
L 400.756359 159.54009 
L 401.146569 159.555156 
L 401.536779 159.443475 
L 401.926989 159.761959 
L 402.317198 159.439606 
L 403.487828 159.493523 
L 403.878038 159.5239 
L 404.268247 159.861896 
L 405.438877 159.462552 
L 407.389926 159.698796 
L 407.780135 159.472698 
L 408.170345 159.801056 
L 408.560555 159.782304 
L 408.950765 159.508473 
L 409.340975 159.517261 
L 409.731184 159.743753 
L 410.511604 159.692201 
L 411.682233 159.799585 
L 412.852863 159.69435 
L 413.243073 160.026117 
L 413.633282 159.533543 
L 414.023492 160.027189 
L 414.413702 159.729629 
L 414.803912 159.834519 
L 415.194122 159.761206 
L 415.584331 159.543284 
L 415.974541 159.661817 
L 416.364751 159.571411 
L 416.754961 159.959909 
L 417.14517 159.747461 
L 417.92559 159.724208 
L 418.3158 159.480784 
L 418.70601 159.593188 
L 419.096219 159.83157 
L 420.266849 159.585146 
L 420.657059 159.439153 
L 421.047268 159.819119 
L 421.827688 159.708435 
L 422.608108 159.662827 
L 422.998317 159.879633 
L 423.388527 159.687496 
L 423.778737 159.74539 
L 424.559156 159.553485 
L 424.949366 159.622187 
L 425.339576 159.415154 
L 425.729786 159.775125 
L 426.510205 159.7147 
L 426.900415 159.783111 
L 427.290625 159.538692 
L 428.071045 159.90848 
L 428.851464 159.477932 
L 429.241674 159.900248 
L 429.631884 159.471127 
L 430.412303 159.601649 
L 430.802513 159.62955 
L 431.192723 159.790189 
L 431.582933 159.513038 
L 431.973142 159.569492 
L 433.143772 159.289072 
L 433.533982 159.471976 
L 434.314401 159.374036 
L 434.704611 159.788639 
L 435.094821 159.147229 
L 435.485031 159.307542 
L 435.87524 159.742232 
L 436.26545 159.67504 
L 436.65566 159.410793 
L 437.04587 159.50115 
L 437.43608 159.385024 
L 437.826289 159.700471 
L 438.606709 159.697331 
L 438.996919 159.766796 
L 439.387128 159.496689 
L 439.777338 159.914742 
L 440.167548 159.448661 
L 440.947968 159.526298 
L 442.899017 160.034643 
L 443.289226 159.930973 
L 443.679436 159.549915 
L 444.069646 160.006157 
L 444.459856 159.85438 
L 444.850066 159.455156 
L 445.240275 159.668607 
L 445.630485 159.711955 
L 446.020695 159.543182 
L 446.410905 159.570787 
L 446.801115 159.952514 
L 447.581534 159.740781 
L 447.971744 160.024092 
L 448.361954 159.773599 
L 449.142373 159.608166 
L 449.532583 159.982724 
L 449.922793 159.745533 
L 450.313003 159.720903 
L 450.703212 159.866206 
L 451.093422 159.519399 
L 451.873842 159.60149 
L 452.264052 159.139675 
L 452.654261 159.711909 
L 453.434681 159.328031 
L 453.824891 159.430813 
L 454.215101 159.414399 
L 454.60531 159.823902 
L 454.99552 159.534425 
L 455.38573 159.454347 
L 455.77594 159.697668 
L 456.166149 159.526248 
L 456.946569 159.530927 
L 457.726989 159.779882 
L 458.507408 159.492664 
L 458.897618 159.429365 
L 459.678038 159.531068 
L 461.238877 159.521309 
L 461.629087 159.282817 
L 462.019296 159.404112 
L 462.409506 159.25863 
L 462.799716 159.297662 
L 463.189926 159.739175 
L 463.580135 159.663931 
L 463.970345 159.352342 
L 464.360555 159.532874 
L 464.750765 159.571296 
L 465.140975 159.304234 
L 465.531184 159.5288 
L 465.921394 159.408174 
L 467.092024 159.446086 
L 467.482233 159.429242 
L 467.872443 159.583049 
L 468.262653 159.256764 
L 468.652863 159.178391 
L 469.043073 159.21655 
L 469.433282 159.500185 
L 470.213702 159.502946 
L 470.603912 159.324808 
L 471.384331 159.452139 
L 471.774541 159.556143 
L 472.164751 159.346862 
L 472.94517 159.795516 
L 473.33538 159.456845 
L 473.72559 159.656084 
L 475.286429 159.54322 
L 475.676639 159.108917 
L 476.066849 159.491197 
L 476.847268 159.747815 
L 477.237478 159.789845 
L 478.017898 159.338114 
L 479.188527 159.667715 
L 480.359156 159.439418 
L 480.749366 159.64441 
L 481.139576 159.326737 
L 481.529786 159.710196 
L 481.919996 159.687435 
L 482.310205 159.374196 
L 482.700415 159.734714 
L 483.090625 159.494122 
L 483.480835 159.644118 
L 483.871045 159.394707 
L 484.651464 159.702644 
L 485.041674 159.587716 
L 485.431884 159.624401 
L 486.212303 159.435365 
L 486.602513 159.643733 
L 486.992723 159.20884 
L 487.382933 159.38156 
L 488.163352 159.524548 
L 488.553562 159.656495 
L 489.724191 159.673257 
L 490.114401 159.341085 
L 490.504611 159.314489 
L 491.285031 159.63012 
L 492.06545 159.545637 
L 492.45566 159.724555 
L 493.23608 159.720195 
L 493.626289 159.732752 
L 494.406709 159.517618 
L 494.796919 159.65694 
L 495.967548 159.716498 
L 496.357758 159.819512 
L 497.138177 159.449787 
L 497.918597 159.579427 
L 498.308807 159.587575 
L 498.699017 159.313503 
L 499.089226 159.495652 
L 499.479436 159.536232 
L 499.869646 159.875302 
L 500.259856 159.609927 
L 500.650066 159.505796 
L 501.040275 159.744403 
L 501.430485 159.816955 
L 502.210905 159.428054 
L 502.991324 159.509739 
L 503.771744 159.525389 
L 504.161954 159.380383 
L 504.552163 159.604921 
L 504.942373 159.494035 
L 505.722793 159.763635 
L 506.113003 159.45245 
L 507.283632 159.634865 
L 507.673842 159.449201 
L 508.064052 159.901162 
L 508.454261 159.591707 
L 508.844471 159.561419 
L 509.234681 159.824703 
L 509.624891 159.600347 
L 510.015101 159.692118 
L 510.40531 159.669106 
L 510.79552 159.893762 
L 511.18573 159.889638 
L 511.57594 159.714231 
L 511.966149 159.8754 
L 512.746569 159.450661 
L 513.136779 159.637099 
L 513.526989 159.446477 
L 513.917198 159.57453 
L 515.868247 159.62848 
L 516.258457 159.505493 
L 516.648667 159.674214 
L 517.038877 159.519186 
L 517.429087 159.832837 
L 518.209506 159.429122 
L 518.599716 159.757839 
L 518.989926 159.898156 
L 519.380135 159.755126 
L 519.770345 160.112504 
L 520.160555 159.725632 
L 520.940975 159.570341 
L 521.721394 159.729294 
L 522.111604 160.040188 
L 522.501814 160.052854 
L 522.892024 159.896999 
L 523.282233 159.933446 
L 524.452863 159.734445 
L 524.843073 159.968722 
L 525.233282 159.836955 
L 525.623492 160.016696 
L 526.013702 159.606598 
L 527.184331 160.148566 
L 527.574541 159.980135 
L 528.354961 160.26983 
L 528.74517 159.920814 
L 529.13538 159.862846 
L 529.52559 160.12178 
L 530.30601 160.136281 
L 530.696219 160.057228 
L 531.086429 160.21907 
L 531.476639 160.005969 
L 531.866849 160.135018 
L 532.257059 159.881965 
L 532.647268 160.059702 
L 533.427688 159.860121 
L 533.817898 160.081947 
L 535.768947 160.133197 
L 536.159156 159.956105 
L 536.939576 159.806906 
L 537.329786 159.713799 
L 537.719996 160.083397 
L 538.110205 160.00115 
L 539.280835 160.12699 
L 539.671045 159.649867 
L 540.061254 159.990463 
L 541.231884 159.860726 
L 541.622094 160.18576 
L 542.402513 159.780786 
L 542.792723 159.838794 
L 543.182933 159.601415 
L 543.573142 159.949269 
L 543.963352 159.993924 
L 544.353562 159.920866 
L 544.743772 159.729038 
L 545.133982 160.00489 
L 545.524191 159.954406 
L 545.914401 159.6966 
L 546.694821 159.87414 
L 547.47524 159.824099 
L 547.86545 160.081569 
L 548.25566 159.5808 
L 548.64587 159.930805 
L 549.03608 159.626735 
L 549.426289 159.81654 
L 549.816499 159.718918 
L 550.206709 159.936655 
L 550.596919 159.711283 
L 550.987128 159.868317 
L 551.767548 159.679539 
L 552.157758 159.797399 
L 552.938177 159.741714 
L 553.328387 159.552871 
L 554.108807 159.933726 
L 554.499017 160.183809 
L 554.889226 160.00262 
L 555.279436 159.673592 
L 556.059856 159.940752 
L 556.450066 159.645777 
L 556.840275 159.875995 
L 557.620695 159.746021 
L 559.181534 159.865316 
L 560.742373 159.537773 
L 561.132583 159.819234 
L 561.522793 159.630136 
L 562.303212 159.759536 
L 562.693422 159.641354 
L 563.083632 159.859099 
L 563.473842 159.908891 
L 564.254261 159.794249 
L 564.644471 159.80096 
L 565.034681 159.677804 
L 565.424891 159.813629 
L 565.815101 159.488641 
L 567.37594 159.694787 
L 567.766149 160.147921 
L 568.156359 160.156468 
L 568.546569 159.693855 
L 569.326989 159.606839 
L 569.717198 159.686566 
L 570.107408 159.463515 
L 570.497618 159.655897 
L 571.668247 159.27166 
L 572.058457 159.659907 
L 572.448667 159.562841 
L 572.838877 159.846286 
L 573.229087 159.791676 
L 573.619296 159.62079 
L 574.009506 159.753217 
L 574.399716 159.36951 
L 575.180135 159.751166 
L 575.570345 159.425858 
L 576.350765 159.417738 
L 576.740975 159.798508 
L 577.131184 159.485476 
L 577.911604 159.69975 
L 578.301814 159.574771 
L 578.692024 159.590338 
L 579.082233 159.408781 
L 580.252863 159.610035 
L 580.643073 159.351786 
L 581.033282 159.763508 
L 581.423492 159.855228 
L 582.203912 159.666302 
L 582.594122 159.699491 
L 582.984331 159.490449 
L 583.374541 159.587118 
L 583.764751 159.905329 
L 584.154961 159.793016 
L 584.54517 159.435549 
L 584.93538 159.586284 
L 586.10601 159.430726 
L 586.886429 159.470875 
L 587.276639 159.511803 
L 587.666849 159.421732 
L 588.447268 159.527112 
L 588.837478 159.738887 
L 589.227688 159.659056 
L 589.617898 159.380914 
L 590.788527 159.647705 
L 591.178737 159.485879 
L 591.959156 159.772861 
L 592.349366 159.288573 
L 592.739576 159.512686 
L 593.519996 159.726163 
L 593.910205 159.493014 
L 594.300415 159.690268 
L 594.690625 159.752655 
L 595.080835 159.53422 
L 595.471045 159.76499 
L 595.861254 159.549533 
L 598.202513 159.373882 
L 598.592723 159.59583 
L 598.982933 159.520448 
L 599.373142 159.291873 
L 600.933982 159.347053 
L 601.324191 159.183105 
L 601.714401 159.432497 
L 602.104611 159.262491 
L 602.494821 159.593969 
L 603.27524 159.227279 
L 604.05566 159.328931 
L 604.44587 159.232215 
L 604.83608 159.251524 
L 606.006709 159.665913 
L 606.396919 159.454533 
L 606.787128 159.435962 
L 607.177338 159.68433 
L 607.567548 159.426113 
L 607.957758 159.449003 
L 608.347968 159.257284 
L 608.738177 159.456978 
L 609.128387 159.30405 
L 609.518597 159.501237 
L 610.299017 159.394667 
L 610.689226 159.515108 
L 611.079436 159.179665 
L 611.469646 159.532834 
L 611.859856 159.309891 
L 612.250066 159.464331 
L 612.640275 159.466292 
L 613.030485 159.20631 
L 613.420695 159.343079 
L 613.810905 159.329486 
L 614.591324 159.555537 
L 614.981534 159.409654 
L 615.371744 159.478526 
L 615.761954 159.175951 
L 616.152163 159.221496 
L 616.542373 158.999204 
L 617.713003 159.427368 
L 618.493422 159.079605 
L 619.273842 159.65813 
L 619.664052 159.381467 
L 620.054261 159.341337 
L 620.444471 159.72104 
L 620.834681 159.317652 
L 621.224891 159.145908 
L 621.615101 159.304488 
L 623.956359 159.472833 
L 624.736779 159.191371 
L 625.126989 159.402192 
L 625.126989 159.402192 
" clip-path="url(#pb82ec345d6)" style="fill: none; stroke: #ff7f0e; stroke-width: 1.5; stroke-linecap: square"/>
   </g>
   <g id="patch_3">
    <path d="M 92.490625 308.63625 
L 92.490625 31.43625 
" style="fill: none; stroke: #000000; stroke-width: 0.8; stroke-linejoin: miter; stroke-linecap: square"/>
   </g>
   <g id="patch_4">
    <path d="M 650.490625 308.63625 
L 650.490625 31.43625 
" style="fill: none; stroke: #000000; stroke-width: 0.8; stroke-linejoin: miter; stroke-linecap: square"/>
   </g>
   <g id="patch_5">
    <path d="M 92.490625 308.63625 
L 650.490625 308.63625 
" style="fill: none; stroke: #000000; stroke-width: 0.8; stroke-linejoin: miter; stroke-linecap: square"/>
   </g>
   <g id="patch_6">
    <path d="M 92.490625 31.43625 
L 650.490625 31.43625 
" style="fill: none; stroke: #000000; stroke-width: 0.8; stroke-linejoin: miter; stroke-linecap: square"/>
   </g>
   <g id="text_13">
    <!-- Generator and Discriminator Loss During Training -->
    <g transform="translate(74.258125 25.43625) scale(0.24 -0.24)">
     <defs>
      <path id="DejaVuSans-47" d="M 3809 666 
L 3809 1919 
L 2778 1919 
L 2778 2438 
L 4434 2438 
L 4434 434 
Q 4069 175 3628 42 
Q 3188 -91 2688 -91 
Q 1594 -91 976 548 
Q 359 1188 359 2328 
Q 359 3472 976 4111 
Q 1594 4750 2688 4750 
Q 3144 4750 3555 4637 
Q 3966 4525 4313 4306 
L 4313 3634 
Q 3963 3931 3569 4081 
Q 3175 4231 2741 4231 
Q 1884 4231 1454 3753 
Q 1025 3275 1025 2328 
Q 1025 1384 1454 906 
Q 1884 428 2741 428 
Q 3075 428 3337 486 
Q 3600 544 3809 666 
z
" transform="scale(0.015625)"/>
      <path id="DejaVuSans-20" transform="scale(0.015625)"/>
      <path id="DejaVuSans-64" d="M 2906 2969 
L 2906 4863 
L 3481 4863 
L 3481 0 
L 2906 0 
L 2906 525 
Q 2725 213 2448 61 
Q 2172 -91 1784 -91 
Q 1150 -91 751 415 
Q 353 922 353 1747 
Q 353 2572 751 3078 
Q 1150 3584 1784 3584 
Q 2172 3584 2448 3432 
Q 2725 3281 2906 2969 
z
M 947 1747 
Q 947 1113 1208 752 
Q 1469 391 1925 391 
Q 2381 391 2643 752 
Q 2906 1113 2906 1747 
Q 2906 2381 2643 2742 
Q 2381 3103 1925 3103 
Q 1469 3103 1208 2742 
Q 947 2381 947 1747 
z
" transform="scale(0.015625)"/>
      <path id="DejaVuSans-44" d="M 1259 4147 
L 1259 519 
L 2022 519 
Q 2988 519 3436 956 
Q 3884 1394 3884 2338 
Q 3884 3275 3436 3711 
Q 2988 4147 2022 4147 
L 1259 4147 
z
M 628 4666 
L 1925 4666 
Q 3281 4666 3915 4102 
Q 4550 3538 4550 2338 
Q 4550 1131 3912 565 
Q 3275 0 1925 0 
L 628 0 
L 628 4666 
z
" transform="scale(0.015625)"/>
      <path id="DejaVuSans-63" d="M 3122 3366 
L 3122 2828 
Q 2878 2963 2633 3030 
Q 2388 3097 2138 3097 
Q 1578 3097 1268 2742 
Q 959 2388 959 1747 
Q 959 1106 1268 751 
Q 1578 397 2138 397 
Q 2388 397 2633 464 
Q 2878 531 3122 666 
L 3122 134 
Q 2881 22 2623 -34 
Q 2366 -91 2075 -91 
Q 1284 -91 818 406 
Q 353 903 353 1747 
Q 353 2603 823 3093 
Q 1294 3584 2113 3584 
Q 2378 3584 2631 3529 
Q 2884 3475 3122 3366 
z
" transform="scale(0.015625)"/>
      <path id="DejaVuSans-6d" d="M 3328 2828 
Q 3544 3216 3844 3400 
Q 4144 3584 4550 3584 
Q 5097 3584 5394 3201 
Q 5691 2819 5691 2113 
L 5691 0 
L 5113 0 
L 5113 2094 
Q 5113 2597 4934 2840 
Q 4756 3084 4391 3084 
Q 3944 3084 3684 2787 
Q 3425 2491 3425 1978 
L 3425 0 
L 2847 0 
L 2847 2094 
Q 2847 2600 2669 2842 
Q 2491 3084 2119 3084 
Q 1678 3084 1418 2786 
Q 1159 2488 1159 1978 
L 1159 0 
L 581 0 
L 581 3500 
L 1159 3500 
L 1159 2956 
Q 1356 3278 1631 3431 
Q 1906 3584 2284 3584 
Q 2666 3584 2933 3390 
Q 3200 3197 3328 2828 
z
" transform="scale(0.015625)"/>
      <path id="DejaVuSans-75" d="M 544 1381 
L 544 3500 
L 1119 3500 
L 1119 1403 
Q 1119 906 1312 657 
Q 1506 409 1894 409 
Q 2359 409 2629 706 
Q 2900 1003 2900 1516 
L 2900 3500 
L 3475 3500 
L 3475 0 
L 2900 0 
L 2900 538 
Q 2691 219 2414 64 
Q 2138 -91 1772 -91 
Q 1169 -91 856 284 
Q 544 659 544 1381 
z
M 1991 3584 
L 1991 3584 
z
" transform="scale(0.015625)"/>
      <path id="DejaVuSans-67" d="M 2906 1791 
Q 2906 2416 2648 2759 
Q 2391 3103 1925 3103 
Q 1463 3103 1205 2759 
Q 947 2416 947 1791 
Q 947 1169 1205 825 
Q 1463 481 1925 481 
Q 2391 481 2648 825 
Q 2906 1169 2906 1791 
z
M 3481 434 
Q 3481 -459 3084 -895 
Q 2688 -1331 1869 -1331 
Q 1566 -1331 1297 -1286 
Q 1028 -1241 775 -1147 
L 775 -588 
Q 1028 -725 1275 -790 
Q 1522 -856 1778 -856 
Q 2344 -856 2625 -561 
Q 2906 -266 2906 331 
L 2906 616 
Q 2728 306 2450 153 
Q 2172 0 1784 0 
Q 1141 0 747 490 
Q 353 981 353 1791 
Q 353 2603 747 3093 
Q 1141 3584 1784 3584 
Q 2172 3584 2450 3431 
Q 2728 3278 2906 2969 
L 2906 3500 
L 3481 3500 
L 3481 434 
z
" transform="scale(0.015625)"/>
      <path id="DejaVuSans-54" d="M -19 4666 
L 3928 4666 
L 3928 4134 
L 2272 4134 
L 2272 0 
L 1638 0 
L 1638 4134 
L -19 4134 
L -19 4666 
z
" transform="scale(0.015625)"/>
     </defs>
     <use xlink:href="#DejaVuSans-47"/>
     <use xlink:href="#DejaVuSans-65" x="77.490234"/>
     <use xlink:href="#DejaVuSans-6e" x="139.013672"/>
     <use xlink:href="#DejaVuSans-65" x="202.392578"/>
     <use xlink:href="#DejaVuSans-72" x="263.916016"/>
     <use xlink:href="#DejaVuSans-61" x="305.029297"/>
     <use xlink:href="#DejaVuSans-74" x="366.308594"/>
     <use xlink:href="#DejaVuSans-6f" x="405.517578"/>
     <use xlink:href="#DejaVuSans-72" x="466.699219"/>
     <use xlink:href="#DejaVuSans-20" x="507.8125"/>
     <use xlink:href="#DejaVuSans-61" x="539.599609"/>
     <use xlink:href="#DejaVuSans-6e" x="600.878906"/>
     <use xlink:href="#DejaVuSans-64" x="664.257812"/>
     <use xlink:href="#DejaVuSans-20" x="727.734375"/>
     <use xlink:href="#DejaVuSans-44" x="759.521484"/>
     <use xlink:href="#DejaVuSans-69" x="836.523438"/>
     <use xlink:href="#DejaVuSans-73" x="864.306641"/>
     <use xlink:href="#DejaVuSans-63" x="916.40625"/>
     <use xlink:href="#DejaVuSans-72" x="971.386719"/>
     <use xlink:href="#DejaVuSans-69" x="1012.5"/>
     <use xlink:href="#DejaVuSans-6d" x="1040.283203"/>
     <use xlink:href="#DejaVuSans-69" x="1137.695312"/>
     <use xlink:href="#DejaVuSans-6e" x="1165.478516"/>
     <use xlink:href="#DejaVuSans-61" x="1228.857422"/>
     <use xlink:href="#DejaVuSans-74" x="1290.136719"/>
     <use xlink:href="#DejaVuSans-6f" x="1329.345703"/>
     <use xlink:href="#DejaVuSans-72" x="1390.527344"/>
     <use xlink:href="#DejaVuSans-20" x="1431.640625"/>
     <use xlink:href="#DejaVuSans-4c" x="1463.427734"/>
     <use xlink:href="#DejaVuSans-6f" x="1517.390625"/>
     <use xlink:href="#DejaVuSans-73" x="1578.572266"/>
     <use xlink:href="#DejaVuSans-73" x="1630.671875"/>
     <use xlink:href="#DejaVuSans-20" x="1682.771484"/>
     <use xlink:href="#DejaVuSans-44" x="1714.558594"/>
     <use xlink:href="#DejaVuSans-75" x="1791.560547"/>
     <use xlink:href="#DejaVuSans-72" x="1854.939453"/>
     <use xlink:href="#DejaVuSans-69" x="1896.052734"/>
     <use xlink:href="#DejaVuSans-6e" x="1923.835938"/>
     <use xlink:href="#DejaVuSans-67" x="1987.214844"/>
     <use xlink:href="#DejaVuSans-20" x="2050.691406"/>
     <use xlink:href="#DejaVuSans-54" x="2082.478516"/>
     <use xlink:href="#DejaVuSans-72" x="2128.8125"/>
     <use xlink:href="#DejaVuSans-61" x="2169.925781"/>
     <use xlink:href="#DejaVuSans-69" x="2231.205078"/>
     <use xlink:href="#DejaVuSans-6e" x="2258.988281"/>
     <use xlink:href="#DejaVuSans-69" x="2322.367188"/>
     <use xlink:href="#DejaVuSans-6e" x="2350.150391"/>
     <use xlink:href="#DejaVuSans-67" x="2413.529297"/>
    </g>
   </g>
   <g id="legend_1">
    <g id="patch_7">
     <path d="M 556.99375 106.14875 
L 636.490625 106.14875 
Q 640.490625 106.14875 640.490625 102.14875 
L 640.490625 45.43625 
Q 640.490625 41.43625 636.490625 41.43625 
L 556.99375 41.43625 
Q 552.99375 41.43625 552.99375 45.43625 
L 552.99375 102.14875 
Q 552.99375 106.14875 556.99375 106.14875 
z
" style="fill: #ffffff; opacity: 0.8; stroke: #cccccc; stroke-linejoin: miter"/>
    </g>
    <g id="line2d_13">
     <path d="M 560.99375 57.633125 
L 580.99375 57.633125 
L 600.99375 57.633125 
" style="fill: none; stroke: #1f77b4; stroke-width: 1.5; stroke-linecap: square"/>
    </g>
    <g id="text_14">
     <!-- G -->
     <g transform="translate(616.99375 64.633125) scale(0.2 -0.2)">
      <use xlink:href="#DejaVuSans-47"/>
     </g>
    </g>
    <g id="line2d_14">
     <path d="M 560.99375 86.989375 
L 580.99375 86.989375 
L 600.99375 86.989375 
" style="fill: none; stroke: #ff7f0e; stroke-width: 1.5; stroke-linecap: square"/>
    </g>
    <g id="text_15">
     <!-- D -->
     <g transform="translate(616.99375 93.989375) scale(0.2 -0.2)">
      <use xlink:href="#DejaVuSans-44"/>
     </g>
    </g>
   </g>
  </g>
 </g>
 <defs>
  <clipPath id="pb82ec345d6">
   <rect x="92.490625" y="31.43625" width="558" height="277.2"/>
  </clipPath>
 </defs>
</svg>
