<?xml version="1.0" encoding="utf-8" standalone="no"?>
<!DOCTYPE svg PUBLIC "-//W3C//DTD SVG 1.1//EN"
  "http://www.w3.org/Graphics/SVG/1.1/DTD/svg11.dtd">
<svg xmlns:xlink="http://www.w3.org/1999/xlink" width="675.923125pt" height="365.54875pt" viewBox="0 0 675.923125 365.54875" xmlns="http://www.w3.org/2000/svg" version="1.1">
 <metadata>
  <rdf:RDF xmlns:dc="http://purl.org/dc/elements/1.1/" xmlns:cc="http://creativecommons.org/ns#" xmlns:rdf="http://www.w3.org/1999/02/22-rdf-syntax-ns#">
   <cc:Work>
    <dc:type rdf:resource="http://purl.org/dc/dcmitype/StillImage"/>
    <dc:date>2024-02-01T06:48:35.362716</dc:date>
    <dc:format>image/svg+xml</dc:format>
    <dc:creator>
     <cc:Agent>
      <dc:title>Matplotlib v3.7.2, https://matplotlib.org/</dc:title>
     </cc:Agent>
    </dc:creator>
   </cc:Work>
  </rdf:RDF>
 </metadata>
 <defs>
  <style type="text/css">*{stroke-linejoin: round; stroke-linecap: butt}</style>
 </defs>
 <g id="figure_1">
  <g id="patch_1">
   <path d="M 0 365.54875 
L 675.923125 365.54875 
L 675.923125 -0 
L 0 -0 
z
" style="fill: #ffffff"/>
  </g>
  <g id="axes_1">
   <g id="patch_2">
    <path d="M 92.490625 308.63625 
L 650.490625 308.63625 
L 650.490625 31.43625 
L 92.490625 31.43625 
z
" style="fill: #ffffff"/>
   </g>
   <g id="matplotlib.axis_1">
    <g id="xtick_1">
     <g id="line2d_1">
      <defs>
       <path id="mff4d5a3d20" d="M 0 0 
L 0 3.5 
" style="stroke: #000000; stroke-width: 0.8"/>
      </defs>
      <g>
       <use xlink:href="#mff4d5a3d20" x="117.854261" y="308.63625" style="stroke: #000000; stroke-width: 0.8"/>
      </g>
     </g>
     <g id="text_1">
      <!-- 0 -->
      <g transform="translate(111.491761 330.833125) scale(0.2 -0.2)">
       <defs>
        <path id="DejaVuSans-30" d="M 2034 4250 
Q 1547 4250 1301 3770 
Q 1056 3291 1056 2328 
Q 1056 1369 1301 889 
Q 1547 409 2034 409 
Q 2525 409 2770 889 
Q 3016 1369 3016 2328 
Q 3016 3291 2770 3770 
Q 2525 4250 2034 4250 
z
M 2034 4750 
Q 2819 4750 3233 4129 
Q 3647 3509 3647 2328 
Q 3647 1150 3233 529 
Q 2819 -91 2034 -91 
Q 1250 -91 836 529 
Q 422 1150 422 2328 
Q 422 3509 836 4129 
Q 1250 4750 2034 4750 
z
" transform="scale(0.015625)"/>
       </defs>
       <use xlink:href="#DejaVuSans-30"/>
      </g>
     </g>
    </g>
    <g id="xtick_2">
     <g id="line2d_2">
      <g>
       <use xlink:href="#mff4d5a3d20" x="230.581534" y="308.63625" style="stroke: #000000; stroke-width: 0.8"/>
      </g>
     </g>
     <g id="text_2">
      <!-- 100 -->
      <g transform="translate(211.494034 330.833125) scale(0.2 -0.2)">
       <defs>
        <path id="DejaVuSans-31" d="M 794 531 
L 1825 531 
L 1825 4091 
L 703 3866 
L 703 4441 
L 1819 4666 
L 2450 4666 
L 2450 531 
L 3481 531 
L 3481 0 
L 794 0 
L 794 531 
z
" transform="scale(0.015625)"/>
       </defs>
       <use xlink:href="#DejaVuSans-31"/>
       <use xlink:href="#DejaVuSans-30" x="63.623047"/>
       <use xlink:href="#DejaVuSans-30" x="127.246094"/>
      </g>
     </g>
    </g>
    <g id="xtick_3">
     <g id="line2d_3">
      <g>
       <use xlink:href="#mff4d5a3d20" x="343.308807" y="308.63625" style="stroke: #000000; stroke-width: 0.8"/>
      </g>
     </g>
     <g id="text_3">
      <!-- 200 -->
      <g transform="translate(324.221307 330.833125) scale(0.2 -0.2)">
       <defs>
        <path id="DejaVuSans-32" d="M 1228 531 
L 3431 531 
L 3431 0 
L 469 0 
L 469 531 
Q 828 903 1448 1529 
Q 2069 2156 2228 2338 
Q 2531 2678 2651 2914 
Q 2772 3150 2772 3378 
Q 2772 3750 2511 3984 
Q 2250 4219 1831 4219 
Q 1534 4219 1204 4116 
Q 875 4013 500 3803 
L 500 4441 
Q 881 4594 1212 4672 
Q 1544 4750 1819 4750 
Q 2544 4750 2975 4387 
Q 3406 4025 3406 3419 
Q 3406 3131 3298 2873 
Q 3191 2616 2906 2266 
Q 2828 2175 2409 1742 
Q 1991 1309 1228 531 
z
" transform="scale(0.015625)"/>
       </defs>
       <use xlink:href="#DejaVuSans-32"/>
       <use xlink:href="#DejaVuSans-30" x="63.623047"/>
       <use xlink:href="#DejaVuSans-30" x="127.246094"/>
      </g>
     </g>
    </g>
    <g id="xtick_4">
     <g id="line2d_4">
      <g>
       <use xlink:href="#mff4d5a3d20" x="456.03608" y="308.63625" style="stroke: #000000; stroke-width: 0.8"/>
      </g>
     </g>
     <g id="text_4">
      <!-- 300 -->
      <g transform="translate(436.94858 330.833125) scale(0.2 -0.2)">
       <defs>
        <path id="DejaVuSans-33" d="M 2597 2516 
Q 3050 2419 3304 2112 
Q 3559 1806 3559 1356 
Q 3559 666 3084 287 
Q 2609 -91 1734 -91 
Q 1441 -91 1130 -33 
Q 819 25 488 141 
L 488 750 
Q 750 597 1062 519 
Q 1375 441 1716 441 
Q 2309 441 2620 675 
Q 2931 909 2931 1356 
Q 2931 1769 2642 2001 
Q 2353 2234 1838 2234 
L 1294 2234 
L 1294 2753 
L 1863 2753 
Q 2328 2753 2575 2939 
Q 2822 3125 2822 3475 
Q 2822 3834 2567 4026 
Q 2313 4219 1838 4219 
Q 1578 4219 1281 4162 
Q 984 4106 628 3988 
L 628 4550 
Q 988 4650 1302 4700 
Q 1616 4750 1894 4750 
Q 2613 4750 3031 4423 
Q 3450 4097 3450 3541 
Q 3450 3153 3228 2886 
Q 3006 2619 2597 2516 
z
" transform="scale(0.015625)"/>
       </defs>
       <use xlink:href="#DejaVuSans-33"/>
       <use xlink:href="#DejaVuSans-30" x="63.623047"/>
       <use xlink:href="#DejaVuSans-30" x="127.246094"/>
      </g>
     </g>
    </g>
    <g id="xtick_5">
     <g id="line2d_5">
      <g>
       <use xlink:href="#mff4d5a3d20" x="568.763352" y="308.63625" style="stroke: #000000; stroke-width: 0.8"/>
      </g>
     </g>
     <g id="text_5">
      <!-- 400 -->
      <g transform="translate(549.675852 330.833125) scale(0.2 -0.2)">
       <defs>
        <path id="DejaVuSans-34" d="M 2419 4116 
L 825 1625 
L 2419 1625 
L 2419 4116 
z
M 2253 4666 
L 3047 4666 
L 3047 1625 
L 3713 1625 
L 3713 1100 
L 3047 1100 
L 3047 0 
L 2419 0 
L 2419 1100 
L 313 1100 
L 313 1709 
L 2253 4666 
z
" transform="scale(0.015625)"/>
       </defs>
       <use xlink:href="#DejaVuSans-34"/>
       <use xlink:href="#DejaVuSans-30" x="63.623047"/>
       <use xlink:href="#DejaVuSans-30" x="127.246094"/>
      </g>
     </g>
    </g>
    <g id="text_6">
     <!-- iterations -->
     <g transform="translate(324.035938 354.189375) scale(0.2 -0.2)">
      <defs>
       <path id="DejaVuSans-69" d="M 603 3500 
L 1178 3500 
L 1178 0 
L 603 0 
L 603 3500 
z
M 603 4863 
L 1178 4863 
L 1178 4134 
L 603 4134 
L 603 4863 
z
" transform="scale(0.015625)"/>
       <path id="DejaVuSans-74" d="M 1172 4494 
L 1172 3500 
L 2356 3500 
L 2356 3053 
L 1172 3053 
L 1172 1153 
Q 1172 725 1289 603 
Q 1406 481 1766 481 
L 2356 481 
L 2356 0 
L 1766 0 
Q 1100 0 847 248 
Q 594 497 594 1153 
L 594 3053 
L 172 3053 
L 172 3500 
L 594 3500 
L 594 4494 
L 1172 4494 
z
" transform="scale(0.015625)"/>
       <path id="DejaVuSans-65" d="M 3597 1894 
L 3597 1613 
L 953 1613 
Q 991 1019 1311 708 
Q 1631 397 2203 397 
Q 2534 397 2845 478 
Q 3156 559 3463 722 
L 3463 178 
Q 3153 47 2828 -22 
Q 2503 -91 2169 -91 
Q 1331 -91 842 396 
Q 353 884 353 1716 
Q 353 2575 817 3079 
Q 1281 3584 2069 3584 
Q 2775 3584 3186 3129 
Q 3597 2675 3597 1894 
z
M 3022 2063 
Q 3016 2534 2758 2815 
Q 2500 3097 2075 3097 
Q 1594 3097 1305 2825 
Q 1016 2553 972 2059 
L 3022 2063 
z
" transform="scale(0.015625)"/>
       <path id="DejaVuSans-72" d="M 2631 2963 
Q 2534 3019 2420 3045 
Q 2306 3072 2169 3072 
Q 1681 3072 1420 2755 
Q 1159 2438 1159 1844 
L 1159 0 
L 581 0 
L 581 3500 
L 1159 3500 
L 1159 2956 
Q 1341 3275 1631 3429 
Q 1922 3584 2338 3584 
Q 2397 3584 2469 3576 
Q 2541 3569 2628 3553 
L 2631 2963 
z
" transform="scale(0.015625)"/>
       <path id="DejaVuSans-61" d="M 2194 1759 
Q 1497 1759 1228 1600 
Q 959 1441 959 1056 
Q 959 750 1161 570 
Q 1363 391 1709 391 
Q 2188 391 2477 730 
Q 2766 1069 2766 1631 
L 2766 1759 
L 2194 1759 
z
M 3341 1997 
L 3341 0 
L 2766 0 
L 2766 531 
Q 2569 213 2275 61 
Q 1981 -91 1556 -91 
Q 1019 -91 701 211 
Q 384 513 384 1019 
Q 384 1609 779 1909 
Q 1175 2209 1959 2209 
L 2766 2209 
L 2766 2266 
Q 2766 2663 2505 2880 
Q 2244 3097 1772 3097 
Q 1472 3097 1187 3025 
Q 903 2953 641 2809 
L 641 3341 
Q 956 3463 1253 3523 
Q 1550 3584 1831 3584 
Q 2591 3584 2966 3190 
Q 3341 2797 3341 1997 
z
" transform="scale(0.015625)"/>
       <path id="DejaVuSans-6f" d="M 1959 3097 
Q 1497 3097 1228 2736 
Q 959 2375 959 1747 
Q 959 1119 1226 758 
Q 1494 397 1959 397 
Q 2419 397 2687 759 
Q 2956 1122 2956 1747 
Q 2956 2369 2687 2733 
Q 2419 3097 1959 3097 
z
M 1959 3584 
Q 2709 3584 3137 3096 
Q 3566 2609 3566 1747 
Q 3566 888 3137 398 
Q 2709 -91 1959 -91 
Q 1206 -91 779 398 
Q 353 888 353 1747 
Q 353 2609 779 3096 
Q 1206 3584 1959 3584 
z
" transform="scale(0.015625)"/>
       <path id="DejaVuSans-6e" d="M 3513 2113 
L 3513 0 
L 2938 0 
L 2938 2094 
Q 2938 2591 2744 2837 
Q 2550 3084 2163 3084 
Q 1697 3084 1428 2787 
Q 1159 2491 1159 1978 
L 1159 0 
L 581 0 
L 581 3500 
L 1159 3500 
L 1159 2956 
Q 1366 3272 1645 3428 
Q 1925 3584 2291 3584 
Q 2894 3584 3203 3211 
Q 3513 2838 3513 2113 
z
" transform="scale(0.015625)"/>
       <path id="DejaVuSans-73" d="M 2834 3397 
L 2834 2853 
Q 2591 2978 2328 3040 
Q 2066 3103 1784 3103 
Q 1356 3103 1142 2972 
Q 928 2841 928 2578 
Q 928 2378 1081 2264 
Q 1234 2150 1697 2047 
L 1894 2003 
Q 2506 1872 2764 1633 
Q 3022 1394 3022 966 
Q 3022 478 2636 193 
Q 2250 -91 1575 -91 
Q 1294 -91 989 -36 
Q 684 19 347 128 
L 347 722 
Q 666 556 975 473 
Q 1284 391 1588 391 
Q 1994 391 2212 530 
Q 2431 669 2431 922 
Q 2431 1156 2273 1281 
Q 2116 1406 1581 1522 
L 1381 1569 
Q 847 1681 609 1914 
Q 372 2147 372 2553 
Q 372 3047 722 3315 
Q 1072 3584 1716 3584 
Q 2034 3584 2315 3537 
Q 2597 3491 2834 3397 
z
" transform="scale(0.015625)"/>
      </defs>
      <use xlink:href="#DejaVuSans-69"/>
      <use xlink:href="#DejaVuSans-74" x="27.783203"/>
      <use xlink:href="#DejaVuSans-65" x="66.992188"/>
      <use xlink:href="#DejaVuSans-72" x="128.515625"/>
      <use xlink:href="#DejaVuSans-61" x="169.628906"/>
      <use xlink:href="#DejaVuSans-74" x="230.908203"/>
      <use xlink:href="#DejaVuSans-69" x="270.117188"/>
      <use xlink:href="#DejaVuSans-6f" x="297.900391"/>
      <use xlink:href="#DejaVuSans-6e" x="359.082031"/>
      <use xlink:href="#DejaVuSans-73" x="422.460938"/>
     </g>
    </g>
   </g>
   <g id="matplotlib.axis_2">
    <g id="ytick_1">
     <g id="line2d_6">
      <defs>
       <path id="m43a8e8ae3a" d="M 0 0 
L -3.5 0 
" style="stroke: #000000; stroke-width: 0.8"/>
      </defs>
      <g>
       <use xlink:href="#m43a8e8ae3a" x="92.490625" y="233.89928" style="stroke: #000000; stroke-width: 0.8"/>
      </g>
     </g>
     <g id="text_7">
      <!-- −200 -->
      <g transform="translate(30.55625 241.497718) scale(0.2 -0.2)">
       <defs>
        <path id="DejaVuSans-2212" d="M 678 2272 
L 4684 2272 
L 4684 1741 
L 678 1741 
L 678 2272 
z
" transform="scale(0.015625)"/>
       </defs>
       <use xlink:href="#DejaVuSans-2212"/>
       <use xlink:href="#DejaVuSans-32" x="83.789062"/>
       <use xlink:href="#DejaVuSans-30" x="147.412109"/>
       <use xlink:href="#DejaVuSans-30" x="211.035156"/>
      </g>
     </g>
    </g>
    <g id="ytick_2">
     <g id="line2d_7">
      <g>
       <use xlink:href="#m43a8e8ae3a" x="92.490625" y="156.400898" style="stroke: #000000; stroke-width: 0.8"/>
      </g>
     </g>
     <g id="text_8">
      <!-- 0 -->
      <g transform="translate(72.765625 163.999335) scale(0.2 -0.2)">
       <use xlink:href="#DejaVuSans-30"/>
      </g>
     </g>
    </g>
    <g id="ytick_3">
     <g id="line2d_8">
      <g>
       <use xlink:href="#m43a8e8ae3a" x="92.490625" y="78.902515" style="stroke: #000000; stroke-width: 0.8"/>
      </g>
     </g>
     <g id="text_9">
      <!-- 200 -->
      <g transform="translate(47.315625 86.500953) scale(0.2 -0.2)">
       <use xlink:href="#DejaVuSans-32"/>
       <use xlink:href="#DejaVuSans-30" x="63.623047"/>
       <use xlink:href="#DejaVuSans-30" x="127.246094"/>
      </g>
     </g>
    </g>
    <g id="text_10">
     <!-- Loss -->
     <g transform="translate(22.396875 191.970625) rotate(-90) scale(0.2 -0.2)">
      <defs>
       <path id="DejaVuSans-4c" d="M 628 4666 
L 1259 4666 
L 1259 531 
L 3531 531 
L 3531 0 
L 628 0 
L 628 4666 
z
" transform="scale(0.015625)"/>
      </defs>
      <use xlink:href="#DejaVuSans-4c"/>
      <use xlink:href="#DejaVuSans-6f" x="53.962891"/>
      <use xlink:href="#DejaVuSans-73" x="115.144531"/>
      <use xlink:href="#DejaVuSans-73" x="167.244141"/>
     </g>
    </g>
   </g>
   <g id="line2d_9">
    <path d="M 117.854261 136.140105 
L 118.981534 119.386488 
L 120.108807 97.658702 
L 121.23608 116.435418 
L 122.363352 132.66545 
L 123.490625 131.50223 
L 124.617898 109.074995 
L 125.74517 70.056914 
L 126.872443 54.902085 
L 127.999716 57.926545 
L 129.126989 54.948943 
L 130.254261 45.679812 
L 131.381534 44.03625 
L 132.508807 46.554003 
L 133.63608 46.4645 
L 134.763352 61.12117 
L 135.890625 55.452144 
L 137.017898 47.371821 
L 138.14517 48.94424 
L 139.272443 60.27658 
L 140.399716 67.071176 
L 141.526989 67.466942 
L 142.654261 72.47849 
L 143.781534 69.342872 
L 146.03608 88.049269 
L 147.163352 94.790736 
L 148.290625 91.969084 
L 149.417898 93.229692 
L 150.54517 92.7299 
L 151.672443 100.783666 
L 152.799716 98.377732 
L 153.926989 103.555557 
L 155.054261 102.926982 
L 156.181534 106.843558 
L 157.308807 103.849343 
L 158.43608 107.982067 
L 159.563352 104.046284 
L 160.690625 105.454914 
L 161.817898 106.159588 
L 162.94517 109.279874 
L 164.072443 108.658111 
L 165.199716 113.348977 
L 166.326989 112.802562 
L 167.454261 112.886724 
L 168.581534 114.323495 
L 169.708807 115.418994 
L 170.83608 117.192842 
L 171.963352 119.698511 
L 173.090625 121.529548 
L 174.217898 117.759482 
L 175.34517 121.031451 
L 176.472443 117.874613 
L 177.599716 123.929319 
L 178.726989 124.437846 
L 179.854261 125.098673 
L 180.981534 122.790211 
L 182.108807 126.681087 
L 183.23608 124.35353 
L 184.363352 124.598737 
L 185.490625 127.579039 
L 186.617898 126.84408 
L 187.74517 125.949512 
L 188.872443 128.740085 
L 189.999716 127.119974 
L 191.126989 126.066819 
L 192.254261 124.500406 
L 193.381534 128.099512 
L 194.508807 127.64869 
L 195.63608 124.880741 
L 196.763352 126.072068 
L 197.890625 125.0338 
L 200.14517 128.291852 
L 201.272443 127.820071 
L 202.399716 128.384262 
L 203.526989 127.725314 
L 204.654261 130.487021 
L 205.781534 124.764492 
L 206.908807 128.248503 
L 208.03608 131.03801 
L 209.163352 129.370054 
L 210.290625 128.507903 
L 211.417898 129.992741 
L 212.54517 127.025059 
L 213.672443 128.463137 
L 214.799716 132.280888 
L 215.926989 126.205151 
L 217.054261 127.786885 
L 218.181534 128.36622 
L 219.308807 130.870562 
L 220.43608 129.202161 
L 221.563352 130.454508 
L 222.690625 129.324651 
L 223.817898 131.486962 
L 224.94517 126.280908 
L 226.072443 129.134088 
L 227.199716 127.71524 
L 228.326989 127.933912 
L 229.454261 130.968429 
L 230.581534 131.451701 
L 231.708807 128.47423 
L 232.83608 131.651787 
L 233.963352 132.517027 
L 235.090625 132.328264 
L 236.217898 131.551236 
L 237.34517 127.719658 
L 238.472443 129.542392 
L 239.599716 129.013006 
L 240.726989 133.998128 
L 241.854261 132.652585 
L 242.981534 134.846951 
L 244.108807 134.467355 
L 245.23608 136.200018 
L 246.363352 135.546954 
L 247.490625 132.983733 
L 248.617898 132.881623 
L 249.74517 135.628088 
L 250.872443 134.707247 
L 251.999716 132.554932 
L 253.126989 134.507047 
L 254.254261 133.025755 
L 255.381534 139.875843 
L 256.508807 134.53711 
L 257.63608 138.060798 
L 258.763352 135.610679 
L 259.890625 134.071004 
L 261.017898 137.174334 
L 262.14517 138.894034 
L 263.272443 134.346656 
L 264.399716 133.628541 
L 265.526989 139.905496 
L 266.654261 139.351825 
L 267.781534 141.054145 
L 268.908807 140.309269 
L 270.03608 138.998649 
L 272.290625 139.653628 
L 273.417898 140.618431 
L 274.54517 137.012362 
L 275.672443 139.155162 
L 276.799716 138.342522 
L 277.926989 137.298371 
L 279.054261 136.511355 
L 280.181534 140.473876 
L 281.308807 136.474656 
L 282.43608 137.701627 
L 283.563352 137.834537 
L 284.690625 137.004483 
L 285.817898 137.949913 
L 286.94517 137.668135 
L 288.072443 141.592374 
L 289.199716 138.273643 
L 290.326989 140.58307 
L 291.454261 139.392533 
L 292.581534 137.903665 
L 293.708807 139.007768 
L 294.83608 138.482864 
L 295.963352 137.668388 
L 297.090625 137.640647 
L 298.217898 137.021624 
L 299.34517 136.006231 
L 300.472443 137.474276 
L 301.599716 137.944546 
L 302.726989 135.579974 
L 303.854261 135.523171 
L 304.981534 137.942839 
L 306.108807 138.274288 
L 307.23608 140.577836 
L 309.490625 137.334687 
L 310.617898 137.22565 
L 311.74517 138.422765 
L 312.872443 139.345492 
L 313.999716 140.935747 
L 315.126989 138.706081 
L 316.254261 138.031621 
L 317.381534 141.258663 
L 318.508807 139.099333 
L 319.63608 141.369672 
L 320.763352 137.77225 
L 321.890625 137.347757 
L 323.017898 140.418194 
L 324.14517 139.414461 
L 325.272443 138.878593 
L 327.526989 142.18506 
L 328.654261 141.024633 
L 329.781534 141.071503 
L 330.908807 143.735901 
L 332.03608 143.388929 
L 334.290625 142.271918 
L 335.417898 144.383795 
L 336.54517 145.16363 
L 337.672443 144.086809 
L 338.799716 143.883762 
L 339.926989 144.458331 
L 341.054261 144.067005 
L 342.181534 144.523268 
L 343.308807 144.575892 
L 344.43608 144.057221 
L 345.563352 145.96549 
L 347.817898 142.712513 
L 348.94517 143.651971 
L 350.072443 145.212597 
L 351.199716 146.492216 
L 352.326989 144.780635 
L 353.454261 144.081637 
L 354.581534 144.851548 
L 355.708807 146.190345 
L 356.83608 144.657309 
L 357.963352 145.82573 
L 360.217898 143.079696 
L 361.34517 144.296385 
L 362.472443 144.961194 
L 363.599716 143.808949 
L 364.726989 143.997531 
L 365.854261 146.215528 
L 366.981534 144.776813 
L 368.108807 144.718914 
L 369.23608 147.279174 
L 370.363352 145.481445 
L 371.490625 144.759004 
L 372.617898 144.778459 
L 374.872443 147.19603 
L 375.999716 145.77178 
L 377.126989 146.071329 
L 378.254261 146.691365 
L 379.381534 146.571939 
L 380.508807 146.757617 
L 381.63608 146.584022 
L 382.763352 145.073014 
L 383.890625 146.164435 
L 385.017898 146.019355 
L 386.14517 143.897742 
L 387.272443 143.447988 
L 388.399716 143.242848 
L 389.526989 144.033963 
L 390.654261 145.291173 
L 391.781534 144.827294 
L 392.908807 145.635636 
L 394.03608 145.168239 
L 396.290625 145.380979 
L 397.417898 145.052218 
L 398.54517 146.595932 
L 399.672443 146.597405 
L 400.799716 146.024231 
L 401.926989 146.12066 
L 403.054261 145.644051 
L 404.181534 145.637259 
L 405.308807 145.064343 
L 406.43608 146.527707 
L 407.563352 146.054691 
L 408.690625 146.378687 
L 409.817898 147.244862 
L 410.94517 147.743065 
L 413.199716 145.699305 
L 414.326989 145.614191 
L 416.581534 146.032133 
L 417.708807 145.842341 
L 418.83608 145.851376 
L 419.963352 147.242077 
L 421.090625 146.43271 
L 423.34517 144.331136 
L 424.472443 145.156912 
L 425.599716 145.113214 
L 426.726989 146.046768 
L 427.854261 146.109475 
L 428.981534 146.358465 
L 430.108807 147.967362 
L 431.23608 145.834115 
L 432.363352 145.471832 
L 433.490625 145.909016 
L 434.617898 145.176336 
L 435.74517 145.312189 
L 436.872443 144.622425 
L 437.999716 146.161472 
L 439.126989 145.988952 
L 440.254261 145.609696 
L 441.381534 146.340256 
L 442.508807 145.255584 
L 443.63608 146.137073 
L 444.763352 145.934825 
L 447.017898 144.794355 
L 448.14517 145.822868 
L 449.272443 146.259016 
L 450.399716 145.545879 
L 451.526989 145.704226 
L 452.654261 143.833665 
L 453.781534 143.39312 
L 454.908807 143.983717 
L 456.03608 144.764031 
L 457.163352 141.471619 
L 458.290625 143.258355 
L 459.417898 142.1225 
L 460.54517 142.770739 
L 462.799716 140.613826 
L 463.926989 140.124447 
L 465.054261 139.984476 
L 466.181534 140.198564 
L 467.308807 139.866343 
L 468.43608 140.192398 
L 469.563352 139.209319 
L 470.690625 137.699922 
L 471.817898 138.211979 
L 472.94517 137.472748 
L 474.072443 135.659297 
L 475.199716 136.513748 
L 476.326989 136.846126 
L 477.454261 136.708991 
L 479.708807 136.991124 
L 480.83608 137.518005 
L 481.963352 137.284661 
L 483.090625 136.19745 
L 484.217898 135.462121 
L 485.34517 135.642996 
L 486.472443 135.398218 
L 487.599716 133.458761 
L 488.726989 133.953103 
L 489.854261 134.309588 
L 492.108807 133.713049 
L 493.23608 133.073662 
L 494.363352 133.282183 
L 495.490625 134.055024 
L 496.617898 133.006076 
L 497.74517 133.292302 
L 498.872443 134.015364 
L 499.999716 133.691593 
L 501.126989 133.654318 
L 502.254261 134.463807 
L 503.381534 134.107787 
L 504.508807 134.925327 
L 505.63608 134.93708 
L 506.763352 134.225088 
L 507.890625 135.658831 
L 509.017898 135.124509 
L 510.14517 134.892409 
L 511.272443 136.184751 
L 512.399716 135.805301 
L 513.526989 136.403224 
L 514.654261 136.162705 
L 515.781534 137.044153 
L 516.908807 136.978352 
L 518.03608 137.257002 
L 520.290625 138.220465 
L 521.417898 138.599311 
L 522.54517 138.164326 
L 523.672443 138.148874 
L 524.799716 138.875902 
L 525.926989 139.009496 
L 527.054261 138.996887 
L 528.181534 139.359301 
L 529.308807 140.196006 
L 530.43608 139.88815 
L 531.563352 139.446259 
L 532.690625 139.624629 
L 533.817898 139.175819 
L 534.94517 140.360832 
L 536.072443 140.507721 
L 537.199716 140.277501 
L 538.326989 140.344361 
L 539.454261 139.688527 
L 540.581534 139.764017 
L 541.708807 140.47098 
L 542.83608 140.823755 
L 543.963352 140.00849 
L 545.090625 140.867939 
L 547.34517 140.809753 
L 548.472443 141.309758 
L 550.726989 140.6429 
L 551.854261 141.04968 
L 552.981534 141.153351 
L 554.108807 140.423128 
L 555.23608 140.617213 
L 556.363352 140.614077 
L 557.490625 141.862909 
L 558.617898 141.540245 
L 559.74517 141.368711 
L 560.872443 141.72775 
L 561.999716 141.138194 
L 563.126989 141.33949 
L 565.381534 141.923022 
L 566.508807 141.878898 
L 567.63608 141.446056 
L 568.763352 142.348734 
L 569.890625 142.177576 
L 571.017898 142.347438 
L 572.14517 142.125741 
L 574.399716 142.400078 
L 575.526989 142.475297 
L 576.654261 142.970731 
L 577.781534 143.255098 
L 578.908807 142.866823 
L 580.03608 142.624791 
L 581.163352 142.940462 
L 582.290625 142.544034 
L 583.417898 142.637308 
L 584.54517 143.49133 
L 585.672443 143.441073 
L 586.799716 142.498801 
L 589.054261 143.267946 
L 590.181534 143.508972 
L 591.308807 144.054366 
L 592.43608 144.34474 
L 593.563352 144.041871 
L 594.690625 143.350409 
L 595.817898 143.766515 
L 596.94517 143.467922 
L 599.199716 144.488671 
L 600.326989 144.668617 
L 601.454261 144.67175 
L 602.581534 145.670451 
L 603.708807 145.760743 
L 604.83608 146.258358 
L 605.963352 147.1414 
L 607.090625 147.847549 
L 608.217898 148.41856 
L 609.34517 148.68886 
L 610.472443 148.046676 
L 611.599716 148.448831 
L 612.726989 147.839463 
L 613.854261 148.048703 
L 614.981534 148.580042 
L 616.108807 148.47331 
L 617.23608 148.869761 
L 618.363352 148.968766 
L 621.74517 148.022524 
L 622.872443 148.76923 
L 623.999716 148.372024 
L 625.126989 148.493244 
L 625.126989 148.493244 
" clip-path="url(#p0c07a9e4ab)" style="fill: none; stroke: #1f77b4; stroke-width: 1.5; stroke-linecap: square"/>
   </g>
   <g id="line2d_10">
    <path d="M 117.854261 254.938135 
L 118.981534 296.03625 
L 120.108807 255.116532 
L 121.23608 208.813361 
L 122.363352 187.276667 
L 123.490625 189.706367 
L 124.617898 199.947919 
L 125.74517 215.797721 
L 126.872443 206.249023 
L 127.999716 198.696802 
L 129.126989 195.653424 
L 130.254261 191.667623 
L 131.381534 187.178186 
L 132.508807 184.771631 
L 133.63608 181.518091 
L 134.763352 172.836631 
L 135.890625 177.084168 
L 137.017898 176.002442 
L 138.14517 180.292152 
L 140.399716 176.06466 
L 141.526989 175.975991 
L 142.654261 174.803012 
L 143.781534 176.218112 
L 144.908807 174.095347 
L 146.03608 172.621992 
L 147.163352 174.243191 
L 148.290625 176.566693 
L 149.417898 173.999041 
L 150.54517 173.336092 
L 151.672443 171.437928 
L 152.799716 173.335198 
L 153.926989 172.257273 
L 155.054261 172.221129 
L 156.181534 171.317887 
L 157.308807 174.228225 
L 158.43608 174.212043 
L 159.563352 172.3616 
L 160.690625 174.62792 
L 162.94517 173.635043 
L 164.072443 172.33708 
L 165.199716 172.44086 
L 166.326989 171.153063 
L 167.454261 171.94099 
L 168.581534 171.945602 
L 169.708807 172.134762 
L 170.83608 171.688203 
L 171.963352 172.966357 
L 173.090625 172.10459 
L 174.217898 171.552824 
L 175.34517 172.491549 
L 176.472443 173.746198 
L 177.599716 171.707896 
L 179.854261 171.970886 
L 180.981534 170.970049 
L 183.23608 171.354679 
L 185.490625 173.167313 
L 187.74517 172.811369 
L 188.872443 171.409545 
L 191.126989 174.302414 
L 192.254261 172.613514 
L 193.381534 172.593085 
L 194.508807 171.222889 
L 195.63608 171.566571 
L 196.763352 172.197917 
L 197.890625 172.400267 
L 199.017898 172.719121 
L 200.14517 172.528508 
L 201.272443 171.880279 
L 202.399716 171.604792 
L 203.526989 172.486302 
L 204.654261 172.588694 
L 205.781534 173.111377 
L 206.908807 171.824538 
L 208.03608 171.427537 
L 209.163352 172.134662 
L 210.290625 172.388463 
L 211.417898 172.99041 
L 213.672443 173.19691 
L 214.799716 172.615522 
L 215.926989 173.116519 
L 217.054261 174.450834 
L 218.181534 173.848685 
L 219.308807 173.067075 
L 220.43608 173.406221 
L 221.563352 172.090916 
L 222.690625 173.59965 
L 223.817898 173.205076 
L 226.072443 175.600819 
L 227.199716 175.336454 
L 228.326989 175.347132 
L 229.454261 172.839012 
L 230.581534 174.86629 
L 231.708807 172.849161 
L 232.83608 173.691814 
L 233.963352 174.198152 
L 235.090625 175.266 
L 236.217898 173.253777 
L 237.34517 175.196099 
L 238.472443 176.064354 
L 239.599716 174.710514 
L 240.726989 174.716729 
L 241.854261 174.534071 
L 242.981534 173.717343 
L 244.108807 174.202458 
L 245.23608 175.168232 
L 246.363352 173.329799 
L 247.490625 173.707572 
L 248.617898 175.512934 
L 249.74517 175.412587 
L 250.872443 174.743105 
L 251.999716 174.236053 
L 253.126989 174.495109 
L 254.254261 174.457927 
L 255.381534 173.598044 
L 256.508807 173.556798 
L 257.63608 174.226957 
L 258.763352 172.842117 
L 259.890625 174.033998 
L 261.017898 171.82722 
L 262.14517 173.466877 
L 263.272443 171.590813 
L 264.399716 173.837477 
L 265.526989 174.196744 
L 267.781534 172.477713 
L 268.908807 174.105548 
L 270.03608 170.266629 
L 271.163352 170.28206 
L 272.290625 170.728368 
L 273.417898 172.379129 
L 274.54517 172.545078 
L 275.672443 173.10725 
L 276.799716 172.727759 
L 279.054261 171.206784 
L 280.181534 172.85732 
L 281.308807 169.132799 
L 282.43608 167.331023 
L 283.563352 169.746138 
L 284.690625 170.89915 
L 285.817898 171.197267 
L 286.94517 171.290808 
L 288.072443 170.065879 
L 289.199716 170.701915 
L 290.326989 169.38946 
L 291.454261 169.828205 
L 292.581534 167.50936 
L 293.708807 169.867771 
L 294.83608 170.174255 
L 295.963352 169.140012 
L 297.090625 169.54945 
L 298.217898 171.783569 
L 299.34517 168.517541 
L 300.472443 168.987571 
L 301.599716 168.750076 
L 303.854261 171.450895 
L 304.981534 171.729048 
L 306.108807 171.055364 
L 307.23608 168.730249 
L 308.363352 170.262241 
L 309.490625 171.317043 
L 310.617898 170.891562 
L 311.74517 168.43404 
L 312.872443 169.292704 
L 313.999716 169.887103 
L 315.126989 170.685864 
L 316.254261 167.229364 
L 317.381534 169.860336 
L 318.508807 170.315567 
L 319.63608 166.725035 
L 320.763352 168.727225 
L 321.890625 168.558664 
L 324.14517 169.35949 
L 325.272443 169.370134 
L 326.399716 169.961826 
L 327.526989 168.556259 
L 328.654261 170.718922 
L 329.781534 168.860858 
L 330.908807 170.40796 
L 332.03608 167.685218 
L 333.163352 168.199201 
L 335.417898 170.578275 
L 337.672443 169.629412 
L 339.926989 169.775695 
L 341.054261 170.735877 
L 342.181534 170.170243 
L 343.308807 170.533776 
L 344.43608 170.003519 
L 345.563352 170.422865 
L 346.690625 169.232927 
L 347.817898 168.608221 
L 348.94517 168.981682 
L 350.072443 169.866374 
L 351.199716 168.866532 
L 352.326989 170.029044 
L 353.454261 169.272354 
L 354.581534 170.493606 
L 355.708807 169.511944 
L 356.83608 169.666177 
L 357.963352 170.312552 
L 360.217898 170.441513 
L 361.34517 169.193993 
L 362.472443 170.700225 
L 363.599716 170.408394 
L 364.726989 170.390795 
L 365.854261 168.707613 
L 366.981534 168.567834 
L 368.108807 168.555006 
L 369.23608 169.782664 
L 370.363352 169.375414 
L 371.490625 170.828587 
L 372.617898 169.300857 
L 373.74517 169.55813 
L 374.872443 168.334885 
L 375.999716 167.962417 
L 378.254261 169.137734 
L 379.381534 169.272664 
L 380.508807 168.226628 
L 381.63608 169.71668 
L 382.763352 168.361433 
L 383.890625 167.264729 
L 385.017898 168.508186 
L 386.14517 168.568905 
L 387.272443 169.47394 
L 388.399716 167.353207 
L 389.526989 168.169052 
L 390.654261 169.12375 
L 391.781534 167.556371 
L 392.908807 167.498236 
L 394.03608 168.372565 
L 395.163352 166.057744 
L 396.290625 168.455916 
L 397.417898 169.283844 
L 399.672443 168.434012 
L 401.926989 169.942208 
L 403.054261 171.442653 
L 404.181534 170.744467 
L 405.308807 169.635116 
L 406.43608 169.531875 
L 407.563352 169.192391 
L 408.690625 171.219978 
L 409.817898 169.751376 
L 410.94517 168.883082 
L 412.072443 169.9975 
L 413.199716 170.620432 
L 414.326989 170.428596 
L 415.454261 169.78904 
L 416.581534 171.271427 
L 417.708807 170.455118 
L 419.963352 169.500853 
L 421.090625 170.121718 
L 422.217898 170.614219 
L 423.34517 171.378662 
L 424.472443 169.724076 
L 425.599716 169.908073 
L 426.726989 170.59831 
L 427.854261 168.845588 
L 430.108807 170.196902 
L 431.23608 170.477496 
L 432.363352 169.453045 
L 433.490625 170.539155 
L 434.617898 170.41447 
L 435.74517 170.541219 
L 436.872443 170.364321 
L 437.999716 169.476405 
L 440.254261 170.988097 
L 441.381534 170.720209 
L 442.508807 170.610929 
L 443.63608 170.250932 
L 444.763352 170.983601 
L 445.890625 171.334155 
L 447.017898 170.607384 
L 448.14517 171.594585 
L 449.272443 170.74801 
L 450.399716 171.102039 
L 451.526989 165.668203 
L 452.654261 157.260271 
L 453.781534 158.109435 
L 456.03608 158.065066 
L 457.163352 159.253093 
L 458.290625 157.933172 
L 459.417898 158.683074 
L 460.54517 159.216684 
L 461.672443 158.952384 
L 462.799716 159.774269 
L 463.926989 159.497486 
L 465.054261 159.514434 
L 466.181534 159.810076 
L 467.308807 159.243292 
L 468.43608 159.990796 
L 469.563352 159.520692 
L 470.690625 160.025602 
L 472.94517 159.908322 
L 474.072443 160.32958 
L 475.199716 160.154614 
L 476.326989 159.818638 
L 477.454261 159.734872 
L 478.581534 159.897215 
L 479.708807 159.637781 
L 480.83608 160.053261 
L 481.963352 159.948993 
L 483.090625 160.615295 
L 484.217898 159.828245 
L 485.34517 159.865906 
L 486.472443 159.767255 
L 487.599716 160.544821 
L 488.726989 159.858306 
L 489.854261 160.628665 
L 490.981534 160.316323 
L 492.108807 160.832474 
L 493.23608 160.978815 
L 494.363352 159.986471 
L 495.490625 159.913214 
L 496.617898 160.487713 
L 498.872443 160.706538 
L 499.999716 160.286802 
L 501.126989 160.026634 
L 502.254261 160.417298 
L 503.381534 160.304212 
L 504.508807 160.57298 
L 505.63608 160.25048 
L 506.763352 160.492115 
L 507.890625 160.432943 
L 509.017898 160.643788 
L 510.14517 160.544122 
L 511.272443 160.312588 
L 512.399716 160.211009 
L 513.526989 159.614008 
L 514.654261 160.273213 
L 516.908807 159.906737 
L 518.03608 160.47459 
L 519.163352 159.342558 
L 520.290625 159.780157 
L 521.417898 159.273843 
L 523.672443 159.899822 
L 524.799716 159.765321 
L 525.926989 159.897305 
L 527.054261 159.424204 
L 528.181534 159.791611 
L 529.308807 159.646656 
L 530.43608 159.29827 
L 531.563352 159.624578 
L 532.690625 159.152912 
L 533.817898 159.176085 
L 534.94517 159.064748 
L 536.072443 159.418686 
L 537.199716 159.253508 
L 538.326989 159.600608 
L 539.454261 159.800961 
L 540.581534 159.610222 
L 541.708807 159.767646 
L 542.83608 159.258101 
L 543.963352 159.465059 
L 545.090625 159.516275 
L 546.217898 159.389562 
L 549.599716 159.476896 
L 550.726989 159.130857 
L 552.981534 159.603505 
L 554.108807 158.947125 
L 555.23608 159.258055 
L 557.490625 159.591428 
L 558.617898 159.406045 
L 559.74517 159.503871 
L 560.872443 158.876726 
L 561.999716 159.627697 
L 563.126989 159.631467 
L 564.254261 159.09707 
L 565.381534 159.191761 
L 566.508807 159.851682 
L 567.63608 159.400114 
L 568.763352 159.600971 
L 569.890625 159.400481 
L 571.017898 159.734207 
L 572.14517 159.494294 
L 574.399716 159.609264 
L 577.781534 159.752787 
L 578.908807 159.198844 
L 580.03608 159.908282 
L 581.163352 159.466196 
L 582.290625 159.699557 
L 583.417898 159.645381 
L 584.54517 160.019621 
L 585.672443 159.595929 
L 591.308807 159.606665 
L 592.43608 159.94807 
L 593.563352 159.719841 
L 594.690625 159.649272 
L 595.817898 162.848622 
L 596.94517 158.196261 
L 598.072443 159.594087 
L 599.199716 159.816541 
L 600.326989 159.585803 
L 601.454261 159.791473 
L 602.581534 159.62025 
L 603.708807 159.814353 
L 604.83608 159.681243 
L 605.963352 159.994622 
L 607.090625 159.768833 
L 608.217898 159.373059 
L 611.599716 159.860811 
L 612.726989 159.527404 
L 613.854261 159.690969 
L 614.981534 159.504895 
L 616.108807 159.835262 
L 617.23608 159.449771 
L 618.363352 159.812848 
L 619.490625 159.550961 
L 620.617898 159.758294 
L 622.872443 159.550144 
L 625.126989 159.683732 
L 625.126989 159.683732 
" clip-path="url(#p0c07a9e4ab)" style="fill: none; stroke: #ff7f0e; stroke-width: 1.5; stroke-linecap: square"/>
   </g>
   <g id="patch_3">
    <path d="M 92.490625 308.63625 
L 92.490625 31.43625 
" style="fill: none; stroke: #000000; stroke-width: 0.8; stroke-linejoin: miter; stroke-linecap: square"/>
   </g>
   <g id="patch_4">
    <path d="M 650.490625 308.63625 
L 650.490625 31.43625 
" style="fill: none; stroke: #000000; stroke-width: 0.8; stroke-linejoin: miter; stroke-linecap: square"/>
   </g>
   <g id="patch_5">
    <path d="M 92.490625 308.63625 
L 650.490625 308.63625 
" style="fill: none; stroke: #000000; stroke-width: 0.8; stroke-linejoin: miter; stroke-linecap: square"/>
   </g>
   <g id="patch_6">
    <path d="M 92.490625 31.43625 
L 650.490625 31.43625 
" style="fill: none; stroke: #000000; stroke-width: 0.8; stroke-linejoin: miter; stroke-linecap: square"/>
   </g>
   <g id="text_11">
    <!-- Generator and Discriminator Loss During Training -->
    <g transform="translate(74.258125 25.43625) scale(0.24 -0.24)">
     <defs>
      <path id="DejaVuSans-47" d="M 3809 666 
L 3809 1919 
L 2778 1919 
L 2778 2438 
L 4434 2438 
L 4434 434 
Q 4069 175 3628 42 
Q 3188 -91 2688 -91 
Q 1594 -91 976 548 
Q 359 1188 359 2328 
Q 359 3472 976 4111 
Q 1594 4750 2688 4750 
Q 3144 4750 3555 4637 
Q 3966 4525 4313 4306 
L 4313 3634 
Q 3963 3931 3569 4081 
Q 3175 4231 2741 4231 
Q 1884 4231 1454 3753 
Q 1025 3275 1025 2328 
Q 1025 1384 1454 906 
Q 1884 428 2741 428 
Q 3075 428 3337 486 
Q 3600 544 3809 666 
z
" transform="scale(0.015625)"/>
      <path id="DejaVuSans-20" transform="scale(0.015625)"/>
      <path id="DejaVuSans-64" d="M 2906 2969 
L 2906 4863 
L 3481 4863 
L 3481 0 
L 2906 0 
L 2906 525 
Q 2725 213 2448 61 
Q 2172 -91 1784 -91 
Q 1150 -91 751 415 
Q 353 922 353 1747 
Q 353 2572 751 3078 
Q 1150 3584 1784 3584 
Q 2172 3584 2448 3432 
Q 2725 3281 2906 2969 
z
M 947 1747 
Q 947 1113 1208 752 
Q 1469 391 1925 391 
Q 2381 391 2643 752 
Q 2906 1113 2906 1747 
Q 2906 2381 2643 2742 
Q 2381 3103 1925 3103 
Q 1469 3103 1208 2742 
Q 947 2381 947 1747 
z
" transform="scale(0.015625)"/>
      <path id="DejaVuSans-44" d="M 1259 4147 
L 1259 519 
L 2022 519 
Q 2988 519 3436 956 
Q 3884 1394 3884 2338 
Q 3884 3275 3436 3711 
Q 2988 4147 2022 4147 
L 1259 4147 
z
M 628 4666 
L 1925 4666 
Q 3281 4666 3915 4102 
Q 4550 3538 4550 2338 
Q 4550 1131 3912 565 
Q 3275 0 1925 0 
L 628 0 
L 628 4666 
z
" transform="scale(0.015625)"/>
      <path id="DejaVuSans-63" d="M 3122 3366 
L 3122 2828 
Q 2878 2963 2633 3030 
Q 2388 3097 2138 3097 
Q 1578 3097 1268 2742 
Q 959 2388 959 1747 
Q 959 1106 1268 751 
Q 1578 397 2138 397 
Q 2388 397 2633 464 
Q 2878 531 3122 666 
L 3122 134 
Q 2881 22 2623 -34 
Q 2366 -91 2075 -91 
Q 1284 -91 818 406 
Q 353 903 353 1747 
Q 353 2603 823 3093 
Q 1294 3584 2113 3584 
Q 2378 3584 2631 3529 
Q 2884 3475 3122 3366 
z
" transform="scale(0.015625)"/>
      <path id="DejaVuSans-6d" d="M 3328 2828 
Q 3544 3216 3844 3400 
Q 4144 3584 4550 3584 
Q 5097 3584 5394 3201 
Q 5691 2819 5691 2113 
L 5691 0 
L 5113 0 
L 5113 2094 
Q 5113 2597 4934 2840 
Q 4756 3084 4391 3084 
Q 3944 3084 3684 2787 
Q 3425 2491 3425 1978 
L 3425 0 
L 2847 0 
L 2847 2094 
Q 2847 2600 2669 2842 
Q 2491 3084 2119 3084 
Q 1678 3084 1418 2786 
Q 1159 2488 1159 1978 
L 1159 0 
L 581 0 
L 581 3500 
L 1159 3500 
L 1159 2956 
Q 1356 3278 1631 3431 
Q 1906 3584 2284 3584 
Q 2666 3584 2933 3390 
Q 3200 3197 3328 2828 
z
" transform="scale(0.015625)"/>
      <path id="DejaVuSans-75" d="M 544 1381 
L 544 3500 
L 1119 3500 
L 1119 1403 
Q 1119 906 1312 657 
Q 1506 409 1894 409 
Q 2359 409 2629 706 
Q 2900 1003 2900 1516 
L 2900 3500 
L 3475 3500 
L 3475 0 
L 2900 0 
L 2900 538 
Q 2691 219 2414 64 
Q 2138 -91 1772 -91 
Q 1169 -91 856 284 
Q 544 659 544 1381 
z
M 1991 3584 
L 1991 3584 
z
" transform="scale(0.015625)"/>
      <path id="DejaVuSans-67" d="M 2906 1791 
Q 2906 2416 2648 2759 
Q 2391 3103 1925 3103 
Q 1463 3103 1205 2759 
Q 947 2416 947 1791 
Q 947 1169 1205 825 
Q 1463 481 1925 481 
Q 2391 481 2648 825 
Q 2906 1169 2906 1791 
z
M 3481 434 
Q 3481 -459 3084 -895 
Q 2688 -1331 1869 -1331 
Q 1566 -1331 1297 -1286 
Q 1028 -1241 775 -1147 
L 775 -588 
Q 1028 -725 1275 -790 
Q 1522 -856 1778 -856 
Q 2344 -856 2625 -561 
Q 2906 -266 2906 331 
L 2906 616 
Q 2728 306 2450 153 
Q 2172 0 1784 0 
Q 1141 0 747 490 
Q 353 981 353 1791 
Q 353 2603 747 3093 
Q 1141 3584 1784 3584 
Q 2172 3584 2450 3431 
Q 2728 3278 2906 2969 
L 2906 3500 
L 3481 3500 
L 3481 434 
z
" transform="scale(0.015625)"/>
      <path id="DejaVuSans-54" d="M -19 4666 
L 3928 4666 
L 3928 4134 
L 2272 4134 
L 2272 0 
L 1638 0 
L 1638 4134 
L -19 4134 
L -19 4666 
z
" transform="scale(0.015625)"/>
     </defs>
     <use xlink:href="#DejaVuSans-47"/>
     <use xlink:href="#DejaVuSans-65" x="77.490234"/>
     <use xlink:href="#DejaVuSans-6e" x="139.013672"/>
     <use xlink:href="#DejaVuSans-65" x="202.392578"/>
     <use xlink:href="#DejaVuSans-72" x="263.916016"/>
     <use xlink:href="#DejaVuSans-61" x="305.029297"/>
     <use xlink:href="#DejaVuSans-74" x="366.308594"/>
     <use xlink:href="#DejaVuSans-6f" x="405.517578"/>
     <use xlink:href="#DejaVuSans-72" x="466.699219"/>
     <use xlink:href="#DejaVuSans-20" x="507.8125"/>
     <use xlink:href="#DejaVuSans-61" x="539.599609"/>
     <use xlink:href="#DejaVuSans-6e" x="600.878906"/>
     <use xlink:href="#DejaVuSans-64" x="664.257812"/>
     <use xlink:href="#DejaVuSans-20" x="727.734375"/>
     <use xlink:href="#DejaVuSans-44" x="759.521484"/>
     <use xlink:href="#DejaVuSans-69" x="836.523438"/>
     <use xlink:href="#DejaVuSans-73" x="864.306641"/>
     <use xlink:href="#DejaVuSans-63" x="916.40625"/>
     <use xlink:href="#DejaVuSans-72" x="971.386719"/>
     <use xlink:href="#DejaVuSans-69" x="1012.5"/>
     <use xlink:href="#DejaVuSans-6d" x="1040.283203"/>
     <use xlink:href="#DejaVuSans-69" x="1137.695312"/>
     <use xlink:href="#DejaVuSans-6e" x="1165.478516"/>
     <use xlink:href="#DejaVuSans-61" x="1228.857422"/>
     <use xlink:href="#DejaVuSans-74" x="1290.136719"/>
     <use xlink:href="#DejaVuSans-6f" x="1329.345703"/>
     <use xlink:href="#DejaVuSans-72" x="1390.527344"/>
     <use xlink:href="#DejaVuSans-20" x="1431.640625"/>
     <use xlink:href="#DejaVuSans-4c" x="1463.427734"/>
     <use xlink:href="#DejaVuSans-6f" x="1517.390625"/>
     <use xlink:href="#DejaVuSans-73" x="1578.572266"/>
     <use xlink:href="#DejaVuSans-73" x="1630.671875"/>
     <use xlink:href="#DejaVuSans-20" x="1682.771484"/>
     <use xlink:href="#DejaVuSans-44" x="1714.558594"/>
     <use xlink:href="#DejaVuSans-75" x="1791.560547"/>
     <use xlink:href="#DejaVuSans-72" x="1854.939453"/>
     <use xlink:href="#DejaVuSans-69" x="1896.052734"/>
     <use xlink:href="#DejaVuSans-6e" x="1923.835938"/>
     <use xlink:href="#DejaVuSans-67" x="1987.214844"/>
     <use xlink:href="#DejaVuSans-20" x="2050.691406"/>
     <use xlink:href="#DejaVuSans-54" x="2082.478516"/>
     <use xlink:href="#DejaVuSans-72" x="2128.8125"/>
     <use xlink:href="#DejaVuSans-61" x="2169.925781"/>
     <use xlink:href="#DejaVuSans-69" x="2231.205078"/>
     <use xlink:href="#DejaVuSans-6e" x="2258.988281"/>
     <use xlink:href="#DejaVuSans-69" x="2322.367188"/>
     <use xlink:href="#DejaVuSans-6e" x="2350.150391"/>
     <use xlink:href="#DejaVuSans-67" x="2413.529297"/>
    </g>
   </g>
   <g id="legend_1">
    <g id="patch_7">
     <path d="M 556.99375 106.14875 
L 636.490625 106.14875 
Q 640.490625 106.14875 640.490625 102.14875 
L 640.490625 45.43625 
Q 640.490625 41.43625 636.490625 41.43625 
L 556.99375 41.43625 
Q 552.99375 41.43625 552.99375 45.43625 
L 552.99375 102.14875 
Q 552.99375 106.14875 556.99375 106.14875 
z
" style="fill: #ffffff; opacity: 0.8; stroke: #cccccc; stroke-linejoin: miter"/>
    </g>
    <g id="line2d_11">
     <path d="M 560.99375 57.633125 
L 580.99375 57.633125 
L 600.99375 57.633125 
" style="fill: none; stroke: #1f77b4; stroke-width: 1.5; stroke-linecap: square"/>
    </g>
    <g id="text_12">
     <!-- G -->
     <g transform="translate(616.99375 64.633125) scale(0.2 -0.2)">
      <use xlink:href="#DejaVuSans-47"/>
     </g>
    </g>
    <g id="line2d_12">
     <path d="M 560.99375 86.989375 
L 580.99375 86.989375 
L 600.99375 86.989375 
" style="fill: none; stroke: #ff7f0e; stroke-width: 1.5; stroke-linecap: square"/>
    </g>
    <g id="text_13">
     <!-- D -->
     <g transform="translate(616.99375 93.989375) scale(0.2 -0.2)">
      <use xlink:href="#DejaVuSans-44"/>
     </g>
    </g>
   </g>
  </g>
 </g>
 <defs>
  <clipPath id="p0c07a9e4ab">
   <rect x="92.490625" y="31.43625" width="558" height="277.2"/>
  </clipPath>
 </defs>
</svg>
