<?xml version="1.0" encoding="utf-8" standalone="no"?>
<!DOCTYPE svg PUBLIC "-//W3C//DTD SVG 1.1//EN"
  "http://www.w3.org/Graphics/SVG/1.1/DTD/svg11.dtd">
<svg xmlns:xlink="http://www.w3.org/1999/xlink" width="675.923125pt" height="365.54875pt" viewBox="0 0 675.923125 365.54875" xmlns="http://www.w3.org/2000/svg" version="1.1">
 <metadata>
  <rdf:RDF xmlns:dc="http://purl.org/dc/elements/1.1/" xmlns:cc="http://creativecommons.org/ns#" xmlns:rdf="http://www.w3.org/1999/02/22-rdf-syntax-ns#">
   <cc:Work>
    <dc:type rdf:resource="http://purl.org/dc/dcmitype/StillImage"/>
    <dc:date>2024-02-01T06:44:11.834365</dc:date>
    <dc:format>image/svg+xml</dc:format>
    <dc:creator>
     <cc:Agent>
      <dc:title>Matplotlib v3.7.2, https://matplotlib.org/</dc:title>
     </cc:Agent>
    </dc:creator>
   </cc:Work>
  </rdf:RDF>
 </metadata>
 <defs>
  <style type="text/css">*{stroke-linejoin: round; stroke-linecap: butt}</style>
 </defs>
 <g id="figure_1">
  <g id="patch_1">
   <path d="M 0 365.54875 
L 675.923125 365.54875 
L 675.923125 -0 
L 0 -0 
z
" style="fill: #ffffff"/>
  </g>
  <g id="axes_1">
   <g id="patch_2">
    <path d="M 92.490625 308.63625 
L 650.490625 308.63625 
L 650.490625 31.43625 
L 92.490625 31.43625 
z
" style="fill: #ffffff"/>
   </g>
   <g id="matplotlib.axis_1">
    <g id="xtick_1">
     <g id="line2d_1">
      <defs>
       <path id="mb14092eb5e" d="M 0 0 
L 0 3.5 
" style="stroke: #000000; stroke-width: 0.8"/>
      </defs>
      <g>
       <use xlink:href="#mb14092eb5e" x="117.854261" y="308.63625" style="stroke: #000000; stroke-width: 0.8"/>
      </g>
     </g>
     <g id="text_1">
      <!-- 0 -->
      <g transform="translate(111.491761 330.833125) scale(0.2 -0.2)">
       <defs>
        <path id="DejaVuSans-30" d="M 2034 4250 
Q 1547 4250 1301 3770 
Q 1056 3291 1056 2328 
Q 1056 1369 1301 889 
Q 1547 409 2034 409 
Q 2525 409 2770 889 
Q 3016 1369 3016 2328 
Q 3016 3291 2770 3770 
Q 2525 4250 2034 4250 
z
M 2034 4750 
Q 2819 4750 3233 4129 
Q 3647 3509 3647 2328 
Q 3647 1150 3233 529 
Q 2819 -91 2034 -91 
Q 1250 -91 836 529 
Q 422 1150 422 2328 
Q 422 3509 836 4129 
Q 1250 4750 2034 4750 
z
" transform="scale(0.015625)"/>
       </defs>
       <use xlink:href="#DejaVuSans-30"/>
      </g>
     </g>
    </g>
    <g id="xtick_2">
     <g id="line2d_2">
      <g>
       <use xlink:href="#mb14092eb5e" x="219.308807" y="308.63625" style="stroke: #000000; stroke-width: 0.8"/>
      </g>
     </g>
     <g id="text_2">
      <!-- 50 -->
      <g transform="translate(206.583807 330.833125) scale(0.2 -0.2)">
       <defs>
        <path id="DejaVuSans-35" d="M 691 4666 
L 3169 4666 
L 3169 4134 
L 1269 4134 
L 1269 2991 
Q 1406 3038 1543 3061 
Q 1681 3084 1819 3084 
Q 2600 3084 3056 2656 
Q 3513 2228 3513 1497 
Q 3513 744 3044 326 
Q 2575 -91 1722 -91 
Q 1428 -91 1123 -41 
Q 819 9 494 109 
L 494 744 
Q 775 591 1075 516 
Q 1375 441 1709 441 
Q 2250 441 2565 725 
Q 2881 1009 2881 1497 
Q 2881 1984 2565 2268 
Q 2250 2553 1709 2553 
Q 1456 2553 1204 2497 
Q 953 2441 691 2322 
L 691 4666 
z
" transform="scale(0.015625)"/>
       </defs>
       <use xlink:href="#DejaVuSans-35"/>
       <use xlink:href="#DejaVuSans-30" x="63.623047"/>
      </g>
     </g>
    </g>
    <g id="xtick_3">
     <g id="line2d_3">
      <g>
       <use xlink:href="#mb14092eb5e" x="320.763352" y="308.63625" style="stroke: #000000; stroke-width: 0.8"/>
      </g>
     </g>
     <g id="text_3">
      <!-- 100 -->
      <g transform="translate(301.675852 330.833125) scale(0.2 -0.2)">
       <defs>
        <path id="DejaVuSans-31" d="M 794 531 
L 1825 531 
L 1825 4091 
L 703 3866 
L 703 4441 
L 1819 4666 
L 2450 4666 
L 2450 531 
L 3481 531 
L 3481 0 
L 794 0 
L 794 531 
z
" transform="scale(0.015625)"/>
       </defs>
       <use xlink:href="#DejaVuSans-31"/>
       <use xlink:href="#DejaVuSans-30" x="63.623047"/>
       <use xlink:href="#DejaVuSans-30" x="127.246094"/>
      </g>
     </g>
    </g>
    <g id="xtick_4">
     <g id="line2d_4">
      <g>
       <use xlink:href="#mb14092eb5e" x="422.217898" y="308.63625" style="stroke: #000000; stroke-width: 0.8"/>
      </g>
     </g>
     <g id="text_4">
      <!-- 150 -->
      <g transform="translate(403.130398 330.833125) scale(0.2 -0.2)">
       <use xlink:href="#DejaVuSans-31"/>
       <use xlink:href="#DejaVuSans-35" x="63.623047"/>
       <use xlink:href="#DejaVuSans-30" x="127.246094"/>
      </g>
     </g>
    </g>
    <g id="xtick_5">
     <g id="line2d_5">
      <g>
       <use xlink:href="#mb14092eb5e" x="523.672443" y="308.63625" style="stroke: #000000; stroke-width: 0.8"/>
      </g>
     </g>
     <g id="text_5">
      <!-- 200 -->
      <g transform="translate(504.584943 330.833125) scale(0.2 -0.2)">
       <defs>
        <path id="DejaVuSans-32" d="M 1228 531 
L 3431 531 
L 3431 0 
L 469 0 
L 469 531 
Q 828 903 1448 1529 
Q 2069 2156 2228 2338 
Q 2531 2678 2651 2914 
Q 2772 3150 2772 3378 
Q 2772 3750 2511 3984 
Q 2250 4219 1831 4219 
Q 1534 4219 1204 4116 
Q 875 4013 500 3803 
L 500 4441 
Q 881 4594 1212 4672 
Q 1544 4750 1819 4750 
Q 2544 4750 2975 4387 
Q 3406 4025 3406 3419 
Q 3406 3131 3298 2873 
Q 3191 2616 2906 2266 
Q 2828 2175 2409 1742 
Q 1991 1309 1228 531 
z
" transform="scale(0.015625)"/>
       </defs>
       <use xlink:href="#DejaVuSans-32"/>
       <use xlink:href="#DejaVuSans-30" x="63.623047"/>
       <use xlink:href="#DejaVuSans-30" x="127.246094"/>
      </g>
     </g>
    </g>
    <g id="xtick_6">
     <g id="line2d_6">
      <g>
       <use xlink:href="#mb14092eb5e" x="625.126989" y="308.63625" style="stroke: #000000; stroke-width: 0.8"/>
      </g>
     </g>
     <g id="text_6">
      <!-- 250 -->
      <g transform="translate(606.039489 330.833125) scale(0.2 -0.2)">
       <use xlink:href="#DejaVuSans-32"/>
       <use xlink:href="#DejaVuSans-35" x="63.623047"/>
       <use xlink:href="#DejaVuSans-30" x="127.246094"/>
      </g>
     </g>
    </g>
    <g id="text_7">
     <!-- iterations -->
     <g transform="translate(324.035938 354.189375) scale(0.2 -0.2)">
      <defs>
       <path id="DejaVuSans-69" d="M 603 3500 
L 1178 3500 
L 1178 0 
L 603 0 
L 603 3500 
z
M 603 4863 
L 1178 4863 
L 1178 4134 
L 603 4134 
L 603 4863 
z
" transform="scale(0.015625)"/>
       <path id="DejaVuSans-74" d="M 1172 4494 
L 1172 3500 
L 2356 3500 
L 2356 3053 
L 1172 3053 
L 1172 1153 
Q 1172 725 1289 603 
Q 1406 481 1766 481 
L 2356 481 
L 2356 0 
L 1766 0 
Q 1100 0 847 248 
Q 594 497 594 1153 
L 594 3053 
L 172 3053 
L 172 3500 
L 594 3500 
L 594 4494 
L 1172 4494 
z
" transform="scale(0.015625)"/>
       <path id="DejaVuSans-65" d="M 3597 1894 
L 3597 1613 
L 953 1613 
Q 991 1019 1311 708 
Q 1631 397 2203 397 
Q 2534 397 2845 478 
Q 3156 559 3463 722 
L 3463 178 
Q 3153 47 2828 -22 
Q 2503 -91 2169 -91 
Q 1331 -91 842 396 
Q 353 884 353 1716 
Q 353 2575 817 3079 
Q 1281 3584 2069 3584 
Q 2775 3584 3186 3129 
Q 3597 2675 3597 1894 
z
M 3022 2063 
Q 3016 2534 2758 2815 
Q 2500 3097 2075 3097 
Q 1594 3097 1305 2825 
Q 1016 2553 972 2059 
L 3022 2063 
z
" transform="scale(0.015625)"/>
       <path id="DejaVuSans-72" d="M 2631 2963 
Q 2534 3019 2420 3045 
Q 2306 3072 2169 3072 
Q 1681 3072 1420 2755 
Q 1159 2438 1159 1844 
L 1159 0 
L 581 0 
L 581 3500 
L 1159 3500 
L 1159 2956 
Q 1341 3275 1631 3429 
Q 1922 3584 2338 3584 
Q 2397 3584 2469 3576 
Q 2541 3569 2628 3553 
L 2631 2963 
z
" transform="scale(0.015625)"/>
       <path id="DejaVuSans-61" d="M 2194 1759 
Q 1497 1759 1228 1600 
Q 959 1441 959 1056 
Q 959 750 1161 570 
Q 1363 391 1709 391 
Q 2188 391 2477 730 
Q 2766 1069 2766 1631 
L 2766 1759 
L 2194 1759 
z
M 3341 1997 
L 3341 0 
L 2766 0 
L 2766 531 
Q 2569 213 2275 61 
Q 1981 -91 1556 -91 
Q 1019 -91 701 211 
Q 384 513 384 1019 
Q 384 1609 779 1909 
Q 1175 2209 1959 2209 
L 2766 2209 
L 2766 2266 
Q 2766 2663 2505 2880 
Q 2244 3097 1772 3097 
Q 1472 3097 1187 3025 
Q 903 2953 641 2809 
L 641 3341 
Q 956 3463 1253 3523 
Q 1550 3584 1831 3584 
Q 2591 3584 2966 3190 
Q 3341 2797 3341 1997 
z
" transform="scale(0.015625)"/>
       <path id="DejaVuSans-6f" d="M 1959 3097 
Q 1497 3097 1228 2736 
Q 959 2375 959 1747 
Q 959 1119 1226 758 
Q 1494 397 1959 397 
Q 2419 397 2687 759 
Q 2956 1122 2956 1747 
Q 2956 2369 2687 2733 
Q 2419 3097 1959 3097 
z
M 1959 3584 
Q 2709 3584 3137 3096 
Q 3566 2609 3566 1747 
Q 3566 888 3137 398 
Q 2709 -91 1959 -91 
Q 1206 -91 779 398 
Q 353 888 353 1747 
Q 353 2609 779 3096 
Q 1206 3584 1959 3584 
z
" transform="scale(0.015625)"/>
       <path id="DejaVuSans-6e" d="M 3513 2113 
L 3513 0 
L 2938 0 
L 2938 2094 
Q 2938 2591 2744 2837 
Q 2550 3084 2163 3084 
Q 1697 3084 1428 2787 
Q 1159 2491 1159 1978 
L 1159 0 
L 581 0 
L 581 3500 
L 1159 3500 
L 1159 2956 
Q 1366 3272 1645 3428 
Q 1925 3584 2291 3584 
Q 2894 3584 3203 3211 
Q 3513 2838 3513 2113 
z
" transform="scale(0.015625)"/>
       <path id="DejaVuSans-73" d="M 2834 3397 
L 2834 2853 
Q 2591 2978 2328 3040 
Q 2066 3103 1784 3103 
Q 1356 3103 1142 2972 
Q 928 2841 928 2578 
Q 928 2378 1081 2264 
Q 1234 2150 1697 2047 
L 1894 2003 
Q 2506 1872 2764 1633 
Q 3022 1394 3022 966 
Q 3022 478 2636 193 
Q 2250 -91 1575 -91 
Q 1294 -91 989 -36 
Q 684 19 347 128 
L 347 722 
Q 666 556 975 473 
Q 1284 391 1588 391 
Q 1994 391 2212 530 
Q 2431 669 2431 922 
Q 2431 1156 2273 1281 
Q 2116 1406 1581 1522 
L 1381 1569 
Q 847 1681 609 1914 
Q 372 2147 372 2553 
Q 372 3047 722 3315 
Q 1072 3584 1716 3584 
Q 2034 3584 2315 3537 
Q 2597 3491 2834 3397 
z
" transform="scale(0.015625)"/>
      </defs>
      <use xlink:href="#DejaVuSans-69"/>
      <use xlink:href="#DejaVuSans-74" x="27.783203"/>
      <use xlink:href="#DejaVuSans-65" x="66.992188"/>
      <use xlink:href="#DejaVuSans-72" x="128.515625"/>
      <use xlink:href="#DejaVuSans-61" x="169.628906"/>
      <use xlink:href="#DejaVuSans-74" x="230.908203"/>
      <use xlink:href="#DejaVuSans-69" x="270.117188"/>
      <use xlink:href="#DejaVuSans-6f" x="297.900391"/>
      <use xlink:href="#DejaVuSans-6e" x="359.082031"/>
      <use xlink:href="#DejaVuSans-73" x="422.460938"/>
     </g>
    </g>
   </g>
   <g id="matplotlib.axis_2">
    <g id="ytick_1">
     <g id="line2d_7">
      <defs>
       <path id="m9f83b4578f" d="M 0 0 
L -3.5 0 
" style="stroke: #000000; stroke-width: 0.8"/>
      </defs>
      <g>
       <use xlink:href="#m9f83b4578f" x="92.490625" y="233.89928" style="stroke: #000000; stroke-width: 0.8"/>
      </g>
     </g>
     <g id="text_8">
      <!-- −200 -->
      <g transform="translate(30.55625 241.497718) scale(0.2 -0.2)">
       <defs>
        <path id="DejaVuSans-2212" d="M 678 2272 
L 4684 2272 
L 4684 1741 
L 678 1741 
L 678 2272 
z
" transform="scale(0.015625)"/>
       </defs>
       <use xlink:href="#DejaVuSans-2212"/>
       <use xlink:href="#DejaVuSans-32" x="83.789062"/>
       <use xlink:href="#DejaVuSans-30" x="147.412109"/>
       <use xlink:href="#DejaVuSans-30" x="211.035156"/>
      </g>
     </g>
    </g>
    <g id="ytick_2">
     <g id="line2d_8">
      <g>
       <use xlink:href="#m9f83b4578f" x="92.490625" y="156.400898" style="stroke: #000000; stroke-width: 0.8"/>
      </g>
     </g>
     <g id="text_9">
      <!-- 0 -->
      <g transform="translate(72.765625 163.999335) scale(0.2 -0.2)">
       <use xlink:href="#DejaVuSans-30"/>
      </g>
     </g>
    </g>
    <g id="ytick_3">
     <g id="line2d_9">
      <g>
       <use xlink:href="#m9f83b4578f" x="92.490625" y="78.902515" style="stroke: #000000; stroke-width: 0.8"/>
      </g>
     </g>
     <g id="text_10">
      <!-- 200 -->
      <g transform="translate(47.315625 86.500953) scale(0.2 -0.2)">
       <use xlink:href="#DejaVuSans-32"/>
       <use xlink:href="#DejaVuSans-30" x="63.623047"/>
       <use xlink:href="#DejaVuSans-30" x="127.246094"/>
      </g>
     </g>
    </g>
    <g id="text_11">
     <!-- Loss -->
     <g transform="translate(22.396875 191.970625) rotate(-90) scale(0.2 -0.2)">
      <defs>
       <path id="DejaVuSans-4c" d="M 628 4666 
L 1259 4666 
L 1259 531 
L 3531 531 
L 3531 0 
L 628 0 
L 628 4666 
z
" transform="scale(0.015625)"/>
      </defs>
      <use xlink:href="#DejaVuSans-4c"/>
      <use xlink:href="#DejaVuSans-6f" x="53.962891"/>
      <use xlink:href="#DejaVuSans-73" x="115.144531"/>
      <use xlink:href="#DejaVuSans-73" x="167.244141"/>
     </g>
    </g>
   </g>
   <g id="line2d_10">
    <path d="M 117.854261 136.140105 
L 119.883352 119.386488 
L 121.912443 97.658702 
L 123.941534 116.435418 
L 125.970625 132.66545 
L 127.999716 131.50223 
L 130.028807 109.074995 
L 132.057898 70.056914 
L 134.086989 54.902085 
L 136.11608 57.926545 
L 138.14517 54.948943 
L 140.174261 45.679812 
L 142.203352 44.03625 
L 144.232443 46.554003 
L 146.261534 46.4645 
L 148.290625 61.12117 
L 150.319716 55.452144 
L 152.348807 47.371821 
L 154.377898 48.94424 
L 156.406989 60.27658 
L 158.43608 67.071176 
L 160.46517 67.466942 
L 162.494261 72.47849 
L 164.523352 69.342872 
L 166.552443 78.321815 
L 168.581534 88.049269 
L 170.610625 94.790736 
L 172.639716 91.969084 
L 174.668807 93.229692 
L 176.697898 92.7299 
L 178.726989 100.783666 
L 180.75608 98.377732 
L 182.78517 103.555557 
L 184.814261 102.926982 
L 186.843352 106.843558 
L 188.872443 103.849343 
L 190.901534 107.982067 
L 192.930625 104.046284 
L 194.959716 105.454914 
L 196.988807 106.159588 
L 199.017898 109.279874 
L 201.046989 108.658111 
L 203.07608 113.348977 
L 205.10517 112.802562 
L 207.134261 112.886724 
L 209.163352 114.323495 
L 211.192443 115.418994 
L 213.221534 117.192842 
L 215.250625 119.698511 
L 217.279716 121.529548 
L 219.308807 117.759482 
L 221.337898 121.031451 
L 223.366989 117.874613 
L 225.39608 123.929319 
L 227.42517 124.437846 
L 229.454261 125.098673 
L 231.483352 122.790211 
L 233.512443 126.681087 
L 235.541534 124.35353 
L 237.570625 124.598737 
L 239.599716 127.579039 
L 241.628807 126.84408 
L 243.657898 125.949512 
L 245.686989 128.740085 
L 247.71608 127.119974 
L 249.74517 126.066819 
L 251.774261 124.500406 
L 253.803352 128.099512 
L 255.832443 127.64869 
L 257.861534 124.880741 
L 259.890625 126.072068 
L 261.919716 125.0338 
L 265.977898 128.291852 
L 268.006989 127.820071 
L 270.03608 128.384262 
L 272.06517 127.725314 
L 274.094261 130.487021 
L 276.123352 124.764492 
L 278.152443 128.248503 
L 280.181534 131.03801 
L 282.210625 129.370054 
L 284.239716 128.507903 
L 286.268807 129.992741 
L 288.297898 127.025059 
L 290.326989 128.463137 
L 292.35608 132.280888 
L 294.38517 126.205151 
L 296.414261 127.786885 
L 298.443352 128.36622 
L 300.472443 130.870562 
L 302.501534 129.202161 
L 304.530625 130.454508 
L 306.559716 129.324651 
L 308.588807 131.486962 
L 310.617898 126.280908 
L 312.646989 129.134088 
L 314.67608 127.71524 
L 316.70517 127.933912 
L 318.734261 130.968429 
L 320.763352 131.451701 
L 322.792443 128.47423 
L 324.821534 131.651787 
L 326.850625 132.517027 
L 328.879716 132.328264 
L 330.908807 131.551236 
L 332.937898 127.719658 
L 334.966989 129.542392 
L 336.99608 129.013006 
L 339.02517 133.998128 
L 341.054261 132.652585 
L 343.083352 134.846951 
L 345.112443 134.467355 
L 347.141534 136.200018 
L 349.170625 135.546954 
L 351.199716 132.983733 
L 353.228807 132.881623 
L 355.257898 135.628088 
L 357.286989 134.707247 
L 359.31608 132.554932 
L 361.34517 134.507047 
L 363.374261 133.025755 
L 365.403352 139.875843 
L 367.432443 134.53711 
L 369.461534 138.060798 
L 371.490625 135.610679 
L 373.519716 134.071004 
L 375.548807 137.174334 
L 377.577898 138.894034 
L 379.606989 134.346656 
L 381.63608 133.628541 
L 383.66517 139.905496 
L 385.694261 139.351825 
L 387.723352 141.054145 
L 389.752443 140.309269 
L 391.781534 138.998649 
L 395.839716 139.653628 
L 397.868807 140.618431 
L 399.897898 137.012362 
L 401.926989 139.155162 
L 403.95608 138.342522 
L 405.98517 137.298371 
L 408.014261 136.511355 
L 410.043352 140.473876 
L 412.072443 136.474656 
L 414.101534 137.701627 
L 416.130625 137.834537 
L 418.159716 137.004483 
L 420.188807 137.949913 
L 422.217898 137.668135 
L 424.246989 141.592374 
L 426.27608 138.273643 
L 428.30517 140.58307 
L 430.334261 139.392533 
L 432.363352 137.903665 
L 434.392443 139.007768 
L 436.421534 138.482864 
L 438.450625 137.668388 
L 440.479716 137.640647 
L 442.508807 137.021624 
L 444.537898 136.006231 
L 446.566989 137.474276 
L 448.59608 137.944546 
L 450.62517 135.579974 
L 452.654261 135.523171 
L 454.683352 137.942839 
L 456.712443 138.274288 
L 458.741534 140.577836 
L 462.799716 137.334687 
L 464.828807 137.22565 
L 466.857898 138.422765 
L 468.886989 139.345492 
L 470.91608 140.935747 
L 472.94517 138.706081 
L 474.974261 138.031621 
L 477.003352 141.258663 
L 479.032443 139.099333 
L 481.061534 141.369672 
L 483.090625 137.77225 
L 485.119716 137.347757 
L 487.148807 140.418194 
L 489.177898 139.414461 
L 491.206989 138.878593 
L 495.26517 142.18506 
L 497.294261 141.024633 
L 499.323352 141.071503 
L 501.352443 143.735901 
L 503.381534 143.388929 
L 507.439716 142.271918 
L 509.468807 144.383795 
L 511.497898 145.16363 
L 513.526989 144.086809 
L 515.55608 143.883762 
L 517.58517 144.458331 
L 519.614261 144.067005 
L 521.643352 144.523268 
L 523.672443 144.575892 
L 525.701534 144.057221 
L 527.730625 145.96549 
L 531.788807 142.712513 
L 533.817898 143.651971 
L 535.846989 145.212597 
L 537.87608 146.492216 
L 539.90517 144.780635 
L 541.934261 144.081637 
L 543.963352 144.851548 
L 545.992443 146.190345 
L 548.021534 144.657309 
L 550.050625 145.82573 
L 554.108807 143.079696 
L 556.137898 144.296385 
L 558.166989 144.961194 
L 560.19608 143.808949 
L 562.22517 143.997531 
L 564.254261 146.215528 
L 566.283352 144.776813 
L 568.312443 144.718914 
L 570.341534 147.279174 
L 572.370625 145.481445 
L 574.399716 144.759004 
L 576.428807 144.778459 
L 580.486989 147.19603 
L 582.51608 145.77178 
L 584.54517 146.071329 
L 586.574261 146.691365 
L 588.603352 146.571939 
L 590.632443 146.757617 
L 592.661534 146.584022 
L 594.690625 145.073014 
L 596.719716 146.164435 
L 598.748807 146.019355 
L 600.777898 143.897742 
L 602.806989 143.447988 
L 604.83608 143.242848 
L 606.86517 144.033963 
L 608.894261 145.291173 
L 610.923352 144.827294 
L 612.952443 145.635636 
L 614.981534 145.168239 
L 619.039716 145.380979 
L 621.068807 145.052218 
L 623.097898 146.595932 
L 625.126989 146.597405 
L 625.126989 146.597405 
" clip-path="url(#pefc35b9fc7)" style="fill: none; stroke: #1f77b4; stroke-width: 1.5; stroke-linecap: square"/>
   </g>
   <g id="line2d_11">
    <path d="M 117.854261 254.938135 
L 119.883352 296.03625 
L 121.912443 255.116532 
L 123.941534 208.813361 
L 125.970625 187.276667 
L 127.999716 189.706367 
L 130.028807 199.947919 
L 132.057898 215.797721 
L 134.086989 206.249023 
L 136.11608 198.696802 
L 138.14517 195.653424 
L 140.174261 191.667623 
L 142.203352 187.178186 
L 144.232443 184.771631 
L 146.261534 181.518091 
L 148.290625 172.836631 
L 150.319716 177.084168 
L 152.348807 176.002442 
L 154.377898 180.292152 
L 156.406989 178.088016 
L 158.43608 176.06466 
L 160.46517 175.975991 
L 162.494261 174.803012 
L 164.523352 176.218112 
L 166.552443 174.095347 
L 168.581534 172.621992 
L 170.610625 174.243191 
L 172.639716 176.566693 
L 174.668807 173.999041 
L 176.697898 173.336092 
L 178.726989 171.437928 
L 180.75608 173.335198 
L 182.78517 172.257273 
L 184.814261 172.221129 
L 186.843352 171.317887 
L 188.872443 174.228225 
L 190.901534 174.212043 
L 192.930625 172.3616 
L 194.959716 174.62792 
L 199.017898 173.635043 
L 201.046989 172.33708 
L 203.07608 172.44086 
L 205.10517 171.153063 
L 207.134261 171.94099 
L 209.163352 171.945602 
L 211.192443 172.134762 
L 213.221534 171.688203 
L 215.250625 172.966357 
L 217.279716 172.10459 
L 219.308807 171.552824 
L 221.337898 172.491549 
L 223.366989 173.746198 
L 225.39608 171.707896 
L 229.454261 171.970886 
L 231.483352 170.970049 
L 235.541534 171.354679 
L 239.599716 173.167313 
L 243.657898 172.811369 
L 245.686989 171.409545 
L 247.71608 172.940729 
L 249.74517 174.302414 
L 251.774261 172.613514 
L 253.803352 172.593085 
L 255.832443 171.222889 
L 257.861534 171.566571 
L 259.890625 172.197917 
L 261.919716 172.400267 
L 263.948807 172.719121 
L 265.977898 172.528508 
L 268.006989 171.880279 
L 270.03608 171.604792 
L 272.06517 172.486302 
L 274.094261 172.588694 
L 276.123352 173.111377 
L 278.152443 171.824538 
L 280.181534 171.427537 
L 282.210625 172.134662 
L 284.239716 172.388463 
L 286.268807 172.99041 
L 290.326989 173.19691 
L 292.35608 172.615522 
L 294.38517 173.116519 
L 296.414261 174.450834 
L 298.443352 173.848685 
L 300.472443 173.067075 
L 302.501534 173.406221 
L 304.530625 172.090916 
L 306.559716 173.59965 
L 308.588807 173.205076 
L 312.646989 175.600819 
L 314.67608 175.336454 
L 316.70517 175.347132 
L 318.734261 172.839012 
L 320.763352 174.86629 
L 322.792443 172.849161 
L 324.821534 173.691814 
L 326.850625 174.198152 
L 328.879716 175.266 
L 330.908807 173.253777 
L 332.937898 175.196099 
L 334.966989 176.064354 
L 336.99608 174.710514 
L 339.02517 174.716729 
L 341.054261 174.534071 
L 343.083352 173.717343 
L 345.112443 174.202458 
L 347.141534 175.168232 
L 349.170625 173.329799 
L 351.199716 173.707572 
L 353.228807 175.512934 
L 355.257898 175.412587 
L 357.286989 174.743105 
L 359.31608 174.236053 
L 361.34517 174.495109 
L 363.374261 174.457927 
L 365.403352 173.598044 
L 367.432443 173.556798 
L 369.461534 174.226957 
L 371.490625 172.842117 
L 373.519716 174.033998 
L 375.548807 171.82722 
L 377.577898 173.466877 
L 379.606989 171.590813 
L 381.63608 173.837477 
L 383.66517 174.196744 
L 387.723352 172.477713 
L 389.752443 174.105548 
L 391.781534 170.266629 
L 393.810625 170.28206 
L 395.839716 170.728368 
L 397.868807 172.379129 
L 399.897898 172.545078 
L 401.926989 173.10725 
L 403.95608 172.727759 
L 408.014261 171.206784 
L 410.043352 172.85732 
L 412.072443 169.132799 
L 414.101534 167.331023 
L 416.130625 169.746138 
L 418.159716 170.89915 
L 420.188807 171.197267 
L 422.217898 171.290808 
L 424.246989 170.065879 
L 426.27608 170.701915 
L 428.30517 169.38946 
L 430.334261 169.828205 
L 432.363352 167.50936 
L 434.392443 169.867771 
L 436.421534 170.174255 
L 438.450625 169.140012 
L 440.479716 169.54945 
L 442.508807 171.783569 
L 444.537898 168.517541 
L 446.566989 168.987571 
L 448.59608 168.750076 
L 452.654261 171.450895 
L 454.683352 171.729048 
L 456.712443 171.055364 
L 458.741534 168.730249 
L 460.770625 170.262241 
L 462.799716 171.317043 
L 464.828807 170.891562 
L 466.857898 168.43404 
L 468.886989 169.292704 
L 470.91608 169.887103 
L 472.94517 170.685864 
L 474.974261 167.229364 
L 477.003352 169.860336 
L 479.032443 170.315567 
L 481.061534 166.725035 
L 483.090625 168.727225 
L 485.119716 168.558664 
L 487.148807 169.017186 
L 489.177898 169.35949 
L 491.206989 169.370134 
L 493.23608 169.961826 
L 495.26517 168.556259 
L 497.294261 170.718922 
L 499.323352 168.860858 
L 501.352443 170.40796 
L 503.381534 167.685218 
L 505.410625 168.199201 
L 509.468807 170.578275 
L 513.526989 169.629412 
L 517.58517 169.775695 
L 519.614261 170.735877 
L 521.643352 170.170243 
L 523.672443 170.533776 
L 525.701534 170.003519 
L 527.730625 170.422865 
L 529.759716 169.232927 
L 531.788807 168.608221 
L 533.817898 168.981682 
L 535.846989 169.866374 
L 537.87608 168.866532 
L 539.90517 170.029044 
L 541.934261 169.272354 
L 543.963352 170.493606 
L 545.992443 169.511944 
L 548.021534 169.666177 
L 550.050625 170.312552 
L 554.108807 170.441513 
L 556.137898 169.193993 
L 558.166989 170.700225 
L 560.19608 170.408394 
L 562.22517 170.390795 
L 564.254261 168.707613 
L 566.283352 168.567834 
L 568.312443 168.555006 
L 570.341534 169.782664 
L 572.370625 169.375414 
L 574.399716 170.828587 
L 576.428807 169.300857 
L 578.457898 169.55813 
L 580.486989 168.334885 
L 582.51608 167.962417 
L 586.574261 169.137734 
L 588.603352 169.272664 
L 590.632443 168.226628 
L 592.661534 169.71668 
L 594.690625 168.361433 
L 596.719716 167.264729 
L 598.748807 168.508186 
L 600.777898 168.568905 
L 602.806989 169.47394 
L 604.83608 167.353207 
L 606.86517 168.169052 
L 608.894261 169.12375 
L 610.923352 167.556371 
L 612.952443 167.498236 
L 614.981534 168.372565 
L 617.010625 166.057744 
L 619.039716 168.455916 
L 621.068807 169.283844 
L 625.126989 168.434012 
L 625.126989 168.434012 
" clip-path="url(#pefc35b9fc7)" style="fill: none; stroke: #ff7f0e; stroke-width: 1.5; stroke-linecap: square"/>
   </g>
   <g id="patch_3">
    <path d="M 92.490625 308.63625 
L 92.490625 31.43625 
" style="fill: none; stroke: #000000; stroke-width: 0.8; stroke-linejoin: miter; stroke-linecap: square"/>
   </g>
   <g id="patch_4">
    <path d="M 650.490625 308.63625 
L 650.490625 31.43625 
" style="fill: none; stroke: #000000; stroke-width: 0.8; stroke-linejoin: miter; stroke-linecap: square"/>
   </g>
   <g id="patch_5">
    <path d="M 92.490625 308.63625 
L 650.490625 308.63625 
" style="fill: none; stroke: #000000; stroke-width: 0.8; stroke-linejoin: miter; stroke-linecap: square"/>
   </g>
   <g id="patch_6">
    <path d="M 92.490625 31.43625 
L 650.490625 31.43625 
" style="fill: none; stroke: #000000; stroke-width: 0.8; stroke-linejoin: miter; stroke-linecap: square"/>
   </g>
   <g id="text_12">
    <!-- Generator and Discriminator Loss During Training -->
    <g transform="translate(74.258125 25.43625) scale(0.24 -0.24)">
     <defs>
      <path id="DejaVuSans-47" d="M 3809 666 
L 3809 1919 
L 2778 1919 
L 2778 2438 
L 4434 2438 
L 4434 434 
Q 4069 175 3628 42 
Q 3188 -91 2688 -91 
Q 1594 -91 976 548 
Q 359 1188 359 2328 
Q 359 3472 976 4111 
Q 1594 4750 2688 4750 
Q 3144 4750 3555 4637 
Q 3966 4525 4313 4306 
L 4313 3634 
Q 3963 3931 3569 4081 
Q 3175 4231 2741 4231 
Q 1884 4231 1454 3753 
Q 1025 3275 1025 2328 
Q 1025 1384 1454 906 
Q 1884 428 2741 428 
Q 3075 428 3337 486 
Q 3600 544 3809 666 
z
" transform="scale(0.015625)"/>
      <path id="DejaVuSans-20" transform="scale(0.015625)"/>
      <path id="DejaVuSans-64" d="M 2906 2969 
L 2906 4863 
L 3481 4863 
L 3481 0 
L 2906 0 
L 2906 525 
Q 2725 213 2448 61 
Q 2172 -91 1784 -91 
Q 1150 -91 751 415 
Q 353 922 353 1747 
Q 353 2572 751 3078 
Q 1150 3584 1784 3584 
Q 2172 3584 2448 3432 
Q 2725 3281 2906 2969 
z
M 947 1747 
Q 947 1113 1208 752 
Q 1469 391 1925 391 
Q 2381 391 2643 752 
Q 2906 1113 2906 1747 
Q 2906 2381 2643 2742 
Q 2381 3103 1925 3103 
Q 1469 3103 1208 2742 
Q 947 2381 947 1747 
z
" transform="scale(0.015625)"/>
      <path id="DejaVuSans-44" d="M 1259 4147 
L 1259 519 
L 2022 519 
Q 2988 519 3436 956 
Q 3884 1394 3884 2338 
Q 3884 3275 3436 3711 
Q 2988 4147 2022 4147 
L 1259 4147 
z
M 628 4666 
L 1925 4666 
Q 3281 4666 3915 4102 
Q 4550 3538 4550 2338 
Q 4550 1131 3912 565 
Q 3275 0 1925 0 
L 628 0 
L 628 4666 
z
" transform="scale(0.015625)"/>
      <path id="DejaVuSans-63" d="M 3122 3366 
L 3122 2828 
Q 2878 2963 2633 3030 
Q 2388 3097 2138 3097 
Q 1578 3097 1268 2742 
Q 959 2388 959 1747 
Q 959 1106 1268 751 
Q 1578 397 2138 397 
Q 2388 397 2633 464 
Q 2878 531 3122 666 
L 3122 134 
Q 2881 22 2623 -34 
Q 2366 -91 2075 -91 
Q 1284 -91 818 406 
Q 353 903 353 1747 
Q 353 2603 823 3093 
Q 1294 3584 2113 3584 
Q 2378 3584 2631 3529 
Q 2884 3475 3122 3366 
z
" transform="scale(0.015625)"/>
      <path id="DejaVuSans-6d" d="M 3328 2828 
Q 3544 3216 3844 3400 
Q 4144 3584 4550 3584 
Q 5097 3584 5394 3201 
Q 5691 2819 5691 2113 
L 5691 0 
L 5113 0 
L 5113 2094 
Q 5113 2597 4934 2840 
Q 4756 3084 4391 3084 
Q 3944 3084 3684 2787 
Q 3425 2491 3425 1978 
L 3425 0 
L 2847 0 
L 2847 2094 
Q 2847 2600 2669 2842 
Q 2491 3084 2119 3084 
Q 1678 3084 1418 2786 
Q 1159 2488 1159 1978 
L 1159 0 
L 581 0 
L 581 3500 
L 1159 3500 
L 1159 2956 
Q 1356 3278 1631 3431 
Q 1906 3584 2284 3584 
Q 2666 3584 2933 3390 
Q 3200 3197 3328 2828 
z
" transform="scale(0.015625)"/>
      <path id="DejaVuSans-75" d="M 544 1381 
L 544 3500 
L 1119 3500 
L 1119 1403 
Q 1119 906 1312 657 
Q 1506 409 1894 409 
Q 2359 409 2629 706 
Q 2900 1003 2900 1516 
L 2900 3500 
L 3475 3500 
L 3475 0 
L 2900 0 
L 2900 538 
Q 2691 219 2414 64 
Q 2138 -91 1772 -91 
Q 1169 -91 856 284 
Q 544 659 544 1381 
z
M 1991 3584 
L 1991 3584 
z
" transform="scale(0.015625)"/>
      <path id="DejaVuSans-67" d="M 2906 1791 
Q 2906 2416 2648 2759 
Q 2391 3103 1925 3103 
Q 1463 3103 1205 2759 
Q 947 2416 947 1791 
Q 947 1169 1205 825 
Q 1463 481 1925 481 
Q 2391 481 2648 825 
Q 2906 1169 2906 1791 
z
M 3481 434 
Q 3481 -459 3084 -895 
Q 2688 -1331 1869 -1331 
Q 1566 -1331 1297 -1286 
Q 1028 -1241 775 -1147 
L 775 -588 
Q 1028 -725 1275 -790 
Q 1522 -856 1778 -856 
Q 2344 -856 2625 -561 
Q 2906 -266 2906 331 
L 2906 616 
Q 2728 306 2450 153 
Q 2172 0 1784 0 
Q 1141 0 747 490 
Q 353 981 353 1791 
Q 353 2603 747 3093 
Q 1141 3584 1784 3584 
Q 2172 3584 2450 3431 
Q 2728 3278 2906 2969 
L 2906 3500 
L 3481 3500 
L 3481 434 
z
" transform="scale(0.015625)"/>
      <path id="DejaVuSans-54" d="M -19 4666 
L 3928 4666 
L 3928 4134 
L 2272 4134 
L 2272 0 
L 1638 0 
L 1638 4134 
L -19 4134 
L -19 4666 
z
" transform="scale(0.015625)"/>
     </defs>
     <use xlink:href="#DejaVuSans-47"/>
     <use xlink:href="#DejaVuSans-65" x="77.490234"/>
     <use xlink:href="#DejaVuSans-6e" x="139.013672"/>
     <use xlink:href="#DejaVuSans-65" x="202.392578"/>
     <use xlink:href="#DejaVuSans-72" x="263.916016"/>
     <use xlink:href="#DejaVuSans-61" x="305.029297"/>
     <use xlink:href="#DejaVuSans-74" x="366.308594"/>
     <use xlink:href="#DejaVuSans-6f" x="405.517578"/>
     <use xlink:href="#DejaVuSans-72" x="466.699219"/>
     <use xlink:href="#DejaVuSans-20" x="507.8125"/>
     <use xlink:href="#DejaVuSans-61" x="539.599609"/>
     <use xlink:href="#DejaVuSans-6e" x="600.878906"/>
     <use xlink:href="#DejaVuSans-64" x="664.257812"/>
     <use xlink:href="#DejaVuSans-20" x="727.734375"/>
     <use xlink:href="#DejaVuSans-44" x="759.521484"/>
     <use xlink:href="#DejaVuSans-69" x="836.523438"/>
     <use xlink:href="#DejaVuSans-73" x="864.306641"/>
     <use xlink:href="#DejaVuSans-63" x="916.40625"/>
     <use xlink:href="#DejaVuSans-72" x="971.386719"/>
     <use xlink:href="#DejaVuSans-69" x="1012.5"/>
     <use xlink:href="#DejaVuSans-6d" x="1040.283203"/>
     <use xlink:href="#DejaVuSans-69" x="1137.695312"/>
     <use xlink:href="#DejaVuSans-6e" x="1165.478516"/>
     <use xlink:href="#DejaVuSans-61" x="1228.857422"/>
     <use xlink:href="#DejaVuSans-74" x="1290.136719"/>
     <use xlink:href="#DejaVuSans-6f" x="1329.345703"/>
     <use xlink:href="#DejaVuSans-72" x="1390.527344"/>
     <use xlink:href="#DejaVuSans-20" x="1431.640625"/>
     <use xlink:href="#DejaVuSans-4c" x="1463.427734"/>
     <use xlink:href="#DejaVuSans-6f" x="1517.390625"/>
     <use xlink:href="#DejaVuSans-73" x="1578.572266"/>
     <use xlink:href="#DejaVuSans-73" x="1630.671875"/>
     <use xlink:href="#DejaVuSans-20" x="1682.771484"/>
     <use xlink:href="#DejaVuSans-44" x="1714.558594"/>
     <use xlink:href="#DejaVuSans-75" x="1791.560547"/>
     <use xlink:href="#DejaVuSans-72" x="1854.939453"/>
     <use xlink:href="#DejaVuSans-69" x="1896.052734"/>
     <use xlink:href="#DejaVuSans-6e" x="1923.835938"/>
     <use xlink:href="#DejaVuSans-67" x="1987.214844"/>
     <use xlink:href="#DejaVuSans-20" x="2050.691406"/>
     <use xlink:href="#DejaVuSans-54" x="2082.478516"/>
     <use xlink:href="#DejaVuSans-72" x="2128.8125"/>
     <use xlink:href="#DejaVuSans-61" x="2169.925781"/>
     <use xlink:href="#DejaVuSans-69" x="2231.205078"/>
     <use xlink:href="#DejaVuSans-6e" x="2258.988281"/>
     <use xlink:href="#DejaVuSans-69" x="2322.367188"/>
     <use xlink:href="#DejaVuSans-6e" x="2350.150391"/>
     <use xlink:href="#DejaVuSans-67" x="2413.529297"/>
    </g>
   </g>
   <g id="legend_1">
    <g id="patch_7">
     <path d="M 556.99375 106.14875 
L 636.490625 106.14875 
Q 640.490625 106.14875 640.490625 102.14875 
L 640.490625 45.43625 
Q 640.490625 41.43625 636.490625 41.43625 
L 556.99375 41.43625 
Q 552.99375 41.43625 552.99375 45.43625 
L 552.99375 102.14875 
Q 552.99375 106.14875 556.99375 106.14875 
z
" style="fill: #ffffff; opacity: 0.8; stroke: #cccccc; stroke-linejoin: miter"/>
    </g>
    <g id="line2d_12">
     <path d="M 560.99375 57.633125 
L 580.99375 57.633125 
L 600.99375 57.633125 
" style="fill: none; stroke: #1f77b4; stroke-width: 1.5; stroke-linecap: square"/>
    </g>
    <g id="text_13">
     <!-- G -->
     <g transform="translate(616.99375 64.633125) scale(0.2 -0.2)">
      <use xlink:href="#DejaVuSans-47"/>
     </g>
    </g>
    <g id="line2d_13">
     <path d="M 560.99375 86.989375 
L 580.99375 86.989375 
L 600.99375 86.989375 
" style="fill: none; stroke: #ff7f0e; stroke-width: 1.5; stroke-linecap: square"/>
    </g>
    <g id="text_14">
     <!-- D -->
     <g transform="translate(616.99375 93.989375) scale(0.2 -0.2)">
      <use xlink:href="#DejaVuSans-44"/>
     </g>
    </g>
   </g>
  </g>
 </g>
 <defs>
  <clipPath id="pefc35b9fc7">
   <rect x="92.490625" y="31.43625" width="558" height="277.2"/>
  </clipPath>
 </defs>
</svg>
