<?xml version="1.0" encoding="utf-8" standalone="no"?>
<!DOCTYPE svg PUBLIC "-//W3C//DTD SVG 1.1//EN"
  "http://www.w3.org/Graphics/SVG/1.1/DTD/svg11.dtd">
<svg xmlns:xlink="http://www.w3.org/1999/xlink" width="675.923125pt" height="365.54875pt" viewBox="0 0 675.923125 365.54875" xmlns="http://www.w3.org/2000/svg" version="1.1">
 <metadata>
  <rdf:RDF xmlns:dc="http://purl.org/dc/elements/1.1/" xmlns:cc="http://creativecommons.org/ns#" xmlns:rdf="http://www.w3.org/1999/02/22-rdf-syntax-ns#">
   <cc:Work>
    <dc:type rdf:resource="http://purl.org/dc/dcmitype/StillImage"/>
    <dc:date>2024-02-01T07:20:29.117417</dc:date>
    <dc:format>image/svg+xml</dc:format>
    <dc:creator>
     <cc:Agent>
      <dc:title>Matplotlib v3.7.2, https://matplotlib.org/</dc:title>
     </cc:Agent>
    </dc:creator>
   </cc:Work>
  </rdf:RDF>
 </metadata>
 <defs>
  <style type="text/css">*{stroke-linejoin: round; stroke-linecap: butt}</style>
 </defs>
 <g id="figure_1">
  <g id="patch_1">
   <path d="M 0 365.54875 
L 675.923125 365.54875 
L 675.923125 -0 
L 0 -0 
z
" style="fill: #ffffff"/>
  </g>
  <g id="axes_1">
   <g id="patch_2">
    <path d="M 92.490625 308.63625 
L 650.490625 308.63625 
L 650.490625 31.43625 
L 92.490625 31.43625 
z
" style="fill: #ffffff"/>
   </g>
   <g id="matplotlib.axis_1">
    <g id="xtick_1">
     <g id="line2d_1">
      <defs>
       <path id="m77da456e6e" d="M 0 0 
L 0 3.5 
" style="stroke: #000000; stroke-width: 0.8"/>
      </defs>
      <g>
       <use xlink:href="#m77da456e6e" x="117.854261" y="308.63625" style="stroke: #000000; stroke-width: 0.8"/>
      </g>
     </g>
     <g id="text_1">
      <!-- 0 -->
      <g transform="translate(111.491761 330.833125) scale(0.2 -0.2)">
       <defs>
        <path id="DejaVuSans-30" d="M 2034 4250 
Q 1547 4250 1301 3770 
Q 1056 3291 1056 2328 
Q 1056 1369 1301 889 
Q 1547 409 2034 409 
Q 2525 409 2770 889 
Q 3016 1369 3016 2328 
Q 3016 3291 2770 3770 
Q 2525 4250 2034 4250 
z
M 2034 4750 
Q 2819 4750 3233 4129 
Q 3647 3509 3647 2328 
Q 3647 1150 3233 529 
Q 2819 -91 2034 -91 
Q 1250 -91 836 529 
Q 422 1150 422 2328 
Q 422 3509 836 4129 
Q 1250 4750 2034 4750 
z
" transform="scale(0.015625)"/>
       </defs>
       <use xlink:href="#DejaVuSans-30"/>
      </g>
     </g>
    </g>
    <g id="xtick_2">
     <g id="line2d_2">
      <g>
       <use xlink:href="#m77da456e6e" x="184.600673" y="308.63625" style="stroke: #000000; stroke-width: 0.8"/>
      </g>
     </g>
     <g id="text_2">
      <!-- 250 -->
      <g transform="translate(165.513173 330.833125) scale(0.2 -0.2)">
       <defs>
        <path id="DejaVuSans-32" d="M 1228 531 
L 3431 531 
L 3431 0 
L 469 0 
L 469 531 
Q 828 903 1448 1529 
Q 2069 2156 2228 2338 
Q 2531 2678 2651 2914 
Q 2772 3150 2772 3378 
Q 2772 3750 2511 3984 
Q 2250 4219 1831 4219 
Q 1534 4219 1204 4116 
Q 875 4013 500 3803 
L 500 4441 
Q 881 4594 1212 4672 
Q 1544 4750 1819 4750 
Q 2544 4750 2975 4387 
Q 3406 4025 3406 3419 
Q 3406 3131 3298 2873 
Q 3191 2616 2906 2266 
Q 2828 2175 2409 1742 
Q 1991 1309 1228 531 
z
" transform="scale(0.015625)"/>
        <path id="DejaVuSans-35" d="M 691 4666 
L 3169 4666 
L 3169 4134 
L 1269 4134 
L 1269 2991 
Q 1406 3038 1543 3061 
Q 1681 3084 1819 3084 
Q 2600 3084 3056 2656 
Q 3513 2228 3513 1497 
Q 3513 744 3044 326 
Q 2575 -91 1722 -91 
Q 1428 -91 1123 -41 
Q 819 9 494 109 
L 494 744 
Q 775 591 1075 516 
Q 1375 441 1709 441 
Q 2250 441 2565 725 
Q 2881 1009 2881 1497 
Q 2881 1984 2565 2268 
Q 2250 2553 1709 2553 
Q 1456 2553 1204 2497 
Q 953 2441 691 2322 
L 691 4666 
z
" transform="scale(0.015625)"/>
       </defs>
       <use xlink:href="#DejaVuSans-32"/>
       <use xlink:href="#DejaVuSans-35" x="63.623047"/>
       <use xlink:href="#DejaVuSans-30" x="127.246094"/>
      </g>
     </g>
    </g>
    <g id="xtick_3">
     <g id="line2d_3">
      <g>
       <use xlink:href="#m77da456e6e" x="251.347084" y="308.63625" style="stroke: #000000; stroke-width: 0.8"/>
      </g>
     </g>
     <g id="text_3">
      <!-- 500 -->
      <g transform="translate(232.259584 330.833125) scale(0.2 -0.2)">
       <use xlink:href="#DejaVuSans-35"/>
       <use xlink:href="#DejaVuSans-30" x="63.623047"/>
       <use xlink:href="#DejaVuSans-30" x="127.246094"/>
      </g>
     </g>
    </g>
    <g id="xtick_4">
     <g id="line2d_4">
      <g>
       <use xlink:href="#m77da456e6e" x="318.093496" y="308.63625" style="stroke: #000000; stroke-width: 0.8"/>
      </g>
     </g>
     <g id="text_4">
      <!-- 750 -->
      <g transform="translate(299.005996 330.833125) scale(0.2 -0.2)">
       <defs>
        <path id="DejaVuSans-37" d="M 525 4666 
L 3525 4666 
L 3525 4397 
L 1831 0 
L 1172 0 
L 2766 4134 
L 525 4134 
L 525 4666 
z
" transform="scale(0.015625)"/>
       </defs>
       <use xlink:href="#DejaVuSans-37"/>
       <use xlink:href="#DejaVuSans-35" x="63.623047"/>
       <use xlink:href="#DejaVuSans-30" x="127.246094"/>
      </g>
     </g>
    </g>
    <g id="xtick_5">
     <g id="line2d_5">
      <g>
       <use xlink:href="#m77da456e6e" x="384.839907" y="308.63625" style="stroke: #000000; stroke-width: 0.8"/>
      </g>
     </g>
     <g id="text_5">
      <!-- 1000 -->
      <g transform="translate(359.389907 330.833125) scale(0.2 -0.2)">
       <defs>
        <path id="DejaVuSans-31" d="M 794 531 
L 1825 531 
L 1825 4091 
L 703 3866 
L 703 4441 
L 1819 4666 
L 2450 4666 
L 2450 531 
L 3481 531 
L 3481 0 
L 794 0 
L 794 531 
z
" transform="scale(0.015625)"/>
       </defs>
       <use xlink:href="#DejaVuSans-31"/>
       <use xlink:href="#DejaVuSans-30" x="63.623047"/>
       <use xlink:href="#DejaVuSans-30" x="127.246094"/>
       <use xlink:href="#DejaVuSans-30" x="190.869141"/>
      </g>
     </g>
    </g>
    <g id="xtick_6">
     <g id="line2d_6">
      <g>
       <use xlink:href="#m77da456e6e" x="451.586319" y="308.63625" style="stroke: #000000; stroke-width: 0.8"/>
      </g>
     </g>
     <g id="text_6">
      <!-- 1250 -->
      <g transform="translate(426.136319 330.833125) scale(0.2 -0.2)">
       <use xlink:href="#DejaVuSans-31"/>
       <use xlink:href="#DejaVuSans-32" x="63.623047"/>
       <use xlink:href="#DejaVuSans-35" x="127.246094"/>
       <use xlink:href="#DejaVuSans-30" x="190.869141"/>
      </g>
     </g>
    </g>
    <g id="xtick_7">
     <g id="line2d_7">
      <g>
       <use xlink:href="#m77da456e6e" x="518.33273" y="308.63625" style="stroke: #000000; stroke-width: 0.8"/>
      </g>
     </g>
     <g id="text_7">
      <!-- 1500 -->
      <g transform="translate(492.88273 330.833125) scale(0.2 -0.2)">
       <use xlink:href="#DejaVuSans-31"/>
       <use xlink:href="#DejaVuSans-35" x="63.623047"/>
       <use xlink:href="#DejaVuSans-30" x="127.246094"/>
       <use xlink:href="#DejaVuSans-30" x="190.869141"/>
      </g>
     </g>
    </g>
    <g id="xtick_8">
     <g id="line2d_8">
      <g>
       <use xlink:href="#m77da456e6e" x="585.079142" y="308.63625" style="stroke: #000000; stroke-width: 0.8"/>
      </g>
     </g>
     <g id="text_8">
      <!-- 1750 -->
      <g transform="translate(559.629142 330.833125) scale(0.2 -0.2)">
       <use xlink:href="#DejaVuSans-31"/>
       <use xlink:href="#DejaVuSans-37" x="63.623047"/>
       <use xlink:href="#DejaVuSans-35" x="127.246094"/>
       <use xlink:href="#DejaVuSans-30" x="190.869141"/>
      </g>
     </g>
    </g>
    <g id="text_9">
     <!-- iterations -->
     <g transform="translate(324.035938 354.189375) scale(0.2 -0.2)">
      <defs>
       <path id="DejaVuSans-69" d="M 603 3500 
L 1178 3500 
L 1178 0 
L 603 0 
L 603 3500 
z
M 603 4863 
L 1178 4863 
L 1178 4134 
L 603 4134 
L 603 4863 
z
" transform="scale(0.015625)"/>
       <path id="DejaVuSans-74" d="M 1172 4494 
L 1172 3500 
L 2356 3500 
L 2356 3053 
L 1172 3053 
L 1172 1153 
Q 1172 725 1289 603 
Q 1406 481 1766 481 
L 2356 481 
L 2356 0 
L 1766 0 
Q 1100 0 847 248 
Q 594 497 594 1153 
L 594 3053 
L 172 3053 
L 172 3500 
L 594 3500 
L 594 4494 
L 1172 4494 
z
" transform="scale(0.015625)"/>
       <path id="DejaVuSans-65" d="M 3597 1894 
L 3597 1613 
L 953 1613 
Q 991 1019 1311 708 
Q 1631 397 2203 397 
Q 2534 397 2845 478 
Q 3156 559 3463 722 
L 3463 178 
Q 3153 47 2828 -22 
Q 2503 -91 2169 -91 
Q 1331 -91 842 396 
Q 353 884 353 1716 
Q 353 2575 817 3079 
Q 1281 3584 2069 3584 
Q 2775 3584 3186 3129 
Q 3597 2675 3597 1894 
z
M 3022 2063 
Q 3016 2534 2758 2815 
Q 2500 3097 2075 3097 
Q 1594 3097 1305 2825 
Q 1016 2553 972 2059 
L 3022 2063 
z
" transform="scale(0.015625)"/>
       <path id="DejaVuSans-72" d="M 2631 2963 
Q 2534 3019 2420 3045 
Q 2306 3072 2169 3072 
Q 1681 3072 1420 2755 
Q 1159 2438 1159 1844 
L 1159 0 
L 581 0 
L 581 3500 
L 1159 3500 
L 1159 2956 
Q 1341 3275 1631 3429 
Q 1922 3584 2338 3584 
Q 2397 3584 2469 3576 
Q 2541 3569 2628 3553 
L 2631 2963 
z
" transform="scale(0.015625)"/>
       <path id="DejaVuSans-61" d="M 2194 1759 
Q 1497 1759 1228 1600 
Q 959 1441 959 1056 
Q 959 750 1161 570 
Q 1363 391 1709 391 
Q 2188 391 2477 730 
Q 2766 1069 2766 1631 
L 2766 1759 
L 2194 1759 
z
M 3341 1997 
L 3341 0 
L 2766 0 
L 2766 531 
Q 2569 213 2275 61 
Q 1981 -91 1556 -91 
Q 1019 -91 701 211 
Q 384 513 384 1019 
Q 384 1609 779 1909 
Q 1175 2209 1959 2209 
L 2766 2209 
L 2766 2266 
Q 2766 2663 2505 2880 
Q 2244 3097 1772 3097 
Q 1472 3097 1187 3025 
Q 903 2953 641 2809 
L 641 3341 
Q 956 3463 1253 3523 
Q 1550 3584 1831 3584 
Q 2591 3584 2966 3190 
Q 3341 2797 3341 1997 
z
" transform="scale(0.015625)"/>
       <path id="DejaVuSans-6f" d="M 1959 3097 
Q 1497 3097 1228 2736 
Q 959 2375 959 1747 
Q 959 1119 1226 758 
Q 1494 397 1959 397 
Q 2419 397 2687 759 
Q 2956 1122 2956 1747 
Q 2956 2369 2687 2733 
Q 2419 3097 1959 3097 
z
M 1959 3584 
Q 2709 3584 3137 3096 
Q 3566 2609 3566 1747 
Q 3566 888 3137 398 
Q 2709 -91 1959 -91 
Q 1206 -91 779 398 
Q 353 888 353 1747 
Q 353 2609 779 3096 
Q 1206 3584 1959 3584 
z
" transform="scale(0.015625)"/>
       <path id="DejaVuSans-6e" d="M 3513 2113 
L 3513 0 
L 2938 0 
L 2938 2094 
Q 2938 2591 2744 2837 
Q 2550 3084 2163 3084 
Q 1697 3084 1428 2787 
Q 1159 2491 1159 1978 
L 1159 0 
L 581 0 
L 581 3500 
L 1159 3500 
L 1159 2956 
Q 1366 3272 1645 3428 
Q 1925 3584 2291 3584 
Q 2894 3584 3203 3211 
Q 3513 2838 3513 2113 
z
" transform="scale(0.015625)"/>
       <path id="DejaVuSans-73" d="M 2834 3397 
L 2834 2853 
Q 2591 2978 2328 3040 
Q 2066 3103 1784 3103 
Q 1356 3103 1142 2972 
Q 928 2841 928 2578 
Q 928 2378 1081 2264 
Q 1234 2150 1697 2047 
L 1894 2003 
Q 2506 1872 2764 1633 
Q 3022 1394 3022 966 
Q 3022 478 2636 193 
Q 2250 -91 1575 -91 
Q 1294 -91 989 -36 
Q 684 19 347 128 
L 347 722 
Q 666 556 975 473 
Q 1284 391 1588 391 
Q 1994 391 2212 530 
Q 2431 669 2431 922 
Q 2431 1156 2273 1281 
Q 2116 1406 1581 1522 
L 1381 1569 
Q 847 1681 609 1914 
Q 372 2147 372 2553 
Q 372 3047 722 3315 
Q 1072 3584 1716 3584 
Q 2034 3584 2315 3537 
Q 2597 3491 2834 3397 
z
" transform="scale(0.015625)"/>
      </defs>
      <use xlink:href="#DejaVuSans-69"/>
      <use xlink:href="#DejaVuSans-74" x="27.783203"/>
      <use xlink:href="#DejaVuSans-65" x="66.992188"/>
      <use xlink:href="#DejaVuSans-72" x="128.515625"/>
      <use xlink:href="#DejaVuSans-61" x="169.628906"/>
      <use xlink:href="#DejaVuSans-74" x="230.908203"/>
      <use xlink:href="#DejaVuSans-69" x="270.117188"/>
      <use xlink:href="#DejaVuSans-6f" x="297.900391"/>
      <use xlink:href="#DejaVuSans-6e" x="359.082031"/>
      <use xlink:href="#DejaVuSans-73" x="422.460938"/>
     </g>
    </g>
   </g>
   <g id="matplotlib.axis_2">
    <g id="ytick_1">
     <g id="line2d_9">
      <defs>
       <path id="mdd82480e68" d="M 0 0 
L -3.5 0 
" style="stroke: #000000; stroke-width: 0.8"/>
      </defs>
      <g>
       <use xlink:href="#mdd82480e68" x="92.490625" y="233.89928" style="stroke: #000000; stroke-width: 0.8"/>
      </g>
     </g>
     <g id="text_10">
      <!-- −200 -->
      <g transform="translate(30.55625 241.497718) scale(0.2 -0.2)">
       <defs>
        <path id="DejaVuSans-2212" d="M 678 2272 
L 4684 2272 
L 4684 1741 
L 678 1741 
L 678 2272 
z
" transform="scale(0.015625)"/>
       </defs>
       <use xlink:href="#DejaVuSans-2212"/>
       <use xlink:href="#DejaVuSans-32" x="83.789062"/>
       <use xlink:href="#DejaVuSans-30" x="147.412109"/>
       <use xlink:href="#DejaVuSans-30" x="211.035156"/>
      </g>
     </g>
    </g>
    <g id="ytick_2">
     <g id="line2d_10">
      <g>
       <use xlink:href="#mdd82480e68" x="92.490625" y="156.400898" style="stroke: #000000; stroke-width: 0.8"/>
      </g>
     </g>
     <g id="text_11">
      <!-- 0 -->
      <g transform="translate(72.765625 163.999335) scale(0.2 -0.2)">
       <use xlink:href="#DejaVuSans-30"/>
      </g>
     </g>
    </g>
    <g id="ytick_3">
     <g id="line2d_11">
      <g>
       <use xlink:href="#mdd82480e68" x="92.490625" y="78.902515" style="stroke: #000000; stroke-width: 0.8"/>
      </g>
     </g>
     <g id="text_12">
      <!-- 200 -->
      <g transform="translate(47.315625 86.500953) scale(0.2 -0.2)">
       <use xlink:href="#DejaVuSans-32"/>
       <use xlink:href="#DejaVuSans-30" x="63.623047"/>
       <use xlink:href="#DejaVuSans-30" x="127.246094"/>
      </g>
     </g>
    </g>
    <g id="text_13">
     <!-- Loss -->
     <g transform="translate(22.396875 191.970625) rotate(-90) scale(0.2 -0.2)">
      <defs>
       <path id="DejaVuSans-4c" d="M 628 4666 
L 1259 4666 
L 1259 531 
L 3531 531 
L 3531 0 
L 628 0 
L 628 4666 
z
" transform="scale(0.015625)"/>
      </defs>
      <use xlink:href="#DejaVuSans-4c"/>
      <use xlink:href="#DejaVuSans-6f" x="53.962891"/>
      <use xlink:href="#DejaVuSans-73" x="115.144531"/>
      <use xlink:href="#DejaVuSans-73" x="167.244141"/>
     </g>
    </g>
   </g>
   <g id="line2d_12">
    <path d="M 117.854261 136.140105 
L 118.388233 97.658702 
L 118.922204 132.66545 
L 119.18919 131.50223 
L 119.456175 109.074995 
L 119.723161 70.056914 
L 119.990147 54.902085 
L 120.257132 57.926545 
L 120.524118 54.948943 
L 120.791103 45.679812 
L 121.058089 44.03625 
L 121.325075 46.554003 
L 121.59206 46.4645 
L 121.859046 61.12117 
L 122.126032 55.452144 
L 122.393017 47.371821 
L 122.660003 48.94424 
L 123.193974 67.071176 
L 123.46096 67.466942 
L 123.727946 72.47849 
L 123.994931 69.342872 
L 124.795888 94.790736 
L 125.062874 91.969084 
L 125.329859 93.229692 
L 125.596845 92.7299 
L 125.863831 100.783666 
L 126.130816 98.377732 
L 126.397802 103.555557 
L 126.664788 102.926982 
L 126.931773 106.843558 
L 127.198759 103.849343 
L 127.465745 107.982067 
L 127.73273 104.046284 
L 127.999716 105.454914 
L 128.266702 106.159588 
L 128.533687 109.279874 
L 128.800673 108.658111 
L 129.067658 113.348977 
L 129.334644 112.802562 
L 129.60163 112.886724 
L 130.402587 117.192842 
L 130.936558 121.529548 
L 131.203544 117.759482 
L 131.470529 121.031451 
L 131.737515 117.874613 
L 132.004501 123.929319 
L 132.538472 125.098673 
L 132.805458 122.790211 
L 133.072443 126.681087 
L 133.339429 124.35353 
L 133.606414 124.598737 
L 133.8734 127.579039 
L 134.407371 125.949512 
L 134.674357 128.740085 
L 135.475314 124.500406 
L 135.7423 128.099512 
L 136.009285 127.64869 
L 136.276271 124.880741 
L 136.543257 126.072068 
L 136.810242 125.0338 
L 137.344214 128.291852 
L 137.611199 127.820071 
L 137.878185 128.384262 
L 138.14517 127.725314 
L 138.412156 130.487021 
L 138.679142 124.764492 
L 139.213113 131.03801 
L 139.480099 129.370054 
L 139.747084 128.507903 
L 140.01407 129.992741 
L 140.281056 127.025059 
L 140.548041 128.463137 
L 140.815027 132.280888 
L 141.082013 126.205151 
L 141.348998 127.786885 
L 141.615984 128.36622 
L 141.882969 130.870562 
L 142.149955 129.202161 
L 142.416941 130.454508 
L 142.683926 129.324651 
L 142.950912 131.486962 
L 143.217898 126.280908 
L 143.484883 129.134088 
L 143.751869 127.71524 
L 144.018855 127.933912 
L 144.28584 130.968429 
L 144.552826 131.451701 
L 144.819812 128.47423 
L 145.086797 131.651787 
L 145.353783 132.517027 
L 145.620769 132.328264 
L 145.887754 131.551236 
L 146.15474 127.719658 
L 146.421725 129.542392 
L 146.688711 129.013006 
L 146.955697 133.998128 
L 147.222682 132.652585 
L 147.489668 134.846951 
L 147.756654 134.467355 
L 148.023639 136.200018 
L 148.290625 135.546954 
L 148.557611 132.983733 
L 148.824596 132.881623 
L 149.091582 135.628088 
L 149.358568 134.707247 
L 149.625553 132.554932 
L 149.892539 134.507047 
L 150.159525 133.025755 
L 150.42651 139.875843 
L 150.693496 134.53711 
L 150.960481 138.060798 
L 151.494453 134.071004 
L 151.761438 137.174334 
L 152.028424 138.894034 
L 152.29541 134.346656 
L 152.562395 133.628541 
L 152.829381 139.905496 
L 153.096367 139.351825 
L 153.363352 141.054145 
L 153.630338 140.309269 
L 153.897324 138.998649 
L 154.431295 139.653628 
L 154.698281 140.618431 
L 154.965266 137.012362 
L 155.232252 139.155162 
L 156.033209 136.511355 
L 156.300194 140.473876 
L 156.56718 136.474656 
L 156.834166 137.701627 
L 157.101151 137.834537 
L 157.368137 137.004483 
L 157.635123 137.949913 
L 157.902108 137.668135 
L 158.169094 141.592374 
L 158.43608 138.273643 
L 158.703065 140.58307 
L 159.237036 137.903665 
L 159.504022 139.007768 
L 159.771008 138.482864 
L 160.037993 137.668388 
L 160.304979 137.640647 
L 160.571965 137.021624 
L 160.83895 136.006231 
L 161.105936 137.474276 
L 161.372922 137.944546 
L 161.639907 135.579974 
L 161.906893 135.523171 
L 162.173879 137.942839 
L 162.440864 138.274288 
L 162.70785 140.577836 
L 163.241821 137.334687 
L 163.508807 137.22565 
L 164.309764 140.935747 
L 164.576749 138.706081 
L 164.843735 138.031621 
L 165.110721 141.258663 
L 165.377706 139.099333 
L 165.644692 141.369672 
L 165.911678 137.77225 
L 166.178663 137.347757 
L 166.445649 140.418194 
L 166.712635 139.414461 
L 166.97962 138.878593 
L 167.513592 142.18506 
L 167.780577 141.024633 
L 168.047563 141.071503 
L 168.314548 143.735901 
L 168.581534 143.388929 
L 169.115505 142.271918 
L 169.382491 144.383795 
L 169.649477 145.16363 
L 169.916462 144.086809 
L 170.183448 143.883762 
L 170.450434 144.458331 
L 170.717419 144.067005 
L 170.984405 144.523268 
L 171.251391 144.575892 
L 171.518376 144.057221 
L 171.785362 145.96549 
L 172.319333 142.712513 
L 172.586319 143.651971 
L 173.12029 146.492216 
L 173.387276 144.780635 
L 173.654261 144.081637 
L 173.921247 144.851548 
L 174.188233 146.190345 
L 174.455218 144.657309 
L 174.722204 145.82573 
L 175.256175 143.079696 
L 175.523161 144.296385 
L 175.790147 144.961194 
L 176.057132 143.808949 
L 176.324118 143.997531 
L 176.591103 146.215528 
L 176.858089 144.776813 
L 177.125075 144.718914 
L 177.39206 147.279174 
L 177.659046 145.481445 
L 177.926032 144.759004 
L 178.193017 144.778459 
L 178.726989 147.19603 
L 178.993974 145.77178 
L 179.26096 146.071329 
L 179.527946 146.691365 
L 179.794931 146.571939 
L 180.061917 146.757617 
L 180.328903 146.584022 
L 180.595888 145.073014 
L 180.862874 146.164435 
L 181.129859 146.019355 
L 181.396845 143.897742 
L 181.663831 143.447988 
L 181.930816 143.242848 
L 182.197802 144.033963 
L 182.464788 145.291173 
L 182.731773 144.827294 
L 182.998759 145.635636 
L 183.265745 145.168239 
L 183.799716 145.380979 
L 184.066702 145.052218 
L 184.333687 146.595932 
L 184.600673 146.597405 
L 184.867658 146.024231 
L 185.134644 146.12066 
L 185.40163 145.644051 
L 185.668615 145.637259 
L 185.935601 145.064343 
L 186.202587 146.527707 
L 186.469572 146.054691 
L 186.736558 146.378687 
L 187.270529 147.743065 
L 187.804501 145.699305 
L 188.071486 145.614191 
L 188.605458 146.032133 
L 188.872443 145.842341 
L 189.139429 145.851376 
L 189.406414 147.242077 
L 189.940386 145.384992 
L 190.207371 144.331136 
L 190.474357 145.156912 
L 190.741343 145.113214 
L 191.008328 146.046768 
L 191.275314 146.109475 
L 191.5423 146.358465 
L 191.809285 147.967362 
L 192.076271 145.834115 
L 192.343257 145.471832 
L 192.610242 145.909016 
L 192.877228 145.176336 
L 193.144214 145.312189 
L 193.411199 144.622425 
L 193.678185 146.161472 
L 193.94517 145.988952 
L 194.212156 145.609696 
L 194.479142 146.340256 
L 194.746127 145.255584 
L 195.013113 146.137073 
L 195.280099 145.934825 
L 195.81407 144.794355 
L 196.081056 145.822868 
L 196.348041 146.259016 
L 196.615027 145.545879 
L 196.882013 145.704226 
L 197.148998 143.833665 
L 197.415984 143.39312 
L 197.949955 144.764031 
L 198.216941 141.471619 
L 198.483926 143.258355 
L 198.750912 142.1225 
L 199.017898 142.770739 
L 199.551869 140.613826 
L 199.818855 140.124447 
L 200.08584 139.984476 
L 200.352826 140.198564 
L 200.619812 139.866343 
L 200.886797 140.192398 
L 201.153783 139.209319 
L 201.420769 137.699922 
L 201.687754 138.211979 
L 201.95474 137.472748 
L 202.221725 135.659297 
L 202.488711 136.513748 
L 202.755697 136.846126 
L 203.022682 136.708991 
L 203.556654 136.991124 
L 203.823639 137.518005 
L 204.090625 137.284661 
L 204.624596 135.462121 
L 204.891582 135.642996 
L 205.158568 135.398218 
L 205.425553 133.458761 
L 205.959525 134.309588 
L 206.493496 133.713049 
L 206.760481 133.073662 
L 207.027467 133.282183 
L 207.294453 134.055024 
L 207.561438 133.006076 
L 207.828424 133.292302 
L 208.09541 134.015364 
L 208.362395 133.691593 
L 208.629381 133.654318 
L 208.896367 134.463807 
L 209.163352 134.107787 
L 209.430338 134.925327 
L 209.697324 134.93708 
L 209.964309 134.225088 
L 210.231295 135.658831 
L 210.498281 135.124509 
L 210.765266 134.892409 
L 211.032252 136.184751 
L 211.299237 135.805301 
L 211.566223 136.403224 
L 211.833209 136.162705 
L 212.100194 137.044153 
L 212.36718 136.978352 
L 212.634166 137.257002 
L 213.435123 138.599311 
L 213.702108 138.164326 
L 213.969094 138.148874 
L 214.23608 138.875902 
L 214.503065 139.009496 
L 214.770051 138.996887 
L 215.037036 139.359301 
L 215.304022 140.196006 
L 215.837993 139.446259 
L 216.104979 139.624629 
L 216.371965 139.175819 
L 216.63895 140.360832 
L 216.905936 140.507721 
L 217.172922 140.277501 
L 217.439907 140.344361 
L 217.706893 139.688527 
L 217.973879 139.764017 
L 218.240864 140.47098 
L 218.50785 140.823755 
L 218.774836 140.00849 
L 219.041821 140.867939 
L 219.575792 140.809753 
L 219.842778 141.309758 
L 220.376749 140.6429 
L 220.643735 141.04968 
L 220.910721 141.153351 
L 221.177706 140.423128 
L 221.444692 140.617213 
L 221.711678 140.614077 
L 221.978663 141.862909 
L 222.512635 141.368711 
L 222.77962 141.72775 
L 223.046606 141.138194 
L 223.313592 141.33949 
L 223.847563 141.923022 
L 224.114548 141.878898 
L 224.381534 141.446056 
L 224.64852 142.348734 
L 224.915505 142.177576 
L 225.182491 142.347438 
L 225.449477 142.125741 
L 225.983448 142.400078 
L 226.250434 142.475297 
L 226.784405 143.255098 
L 227.318376 142.624791 
L 227.585362 142.940462 
L 227.852347 142.544034 
L 228.119333 142.637308 
L 228.386319 143.49133 
L 228.653304 143.441073 
L 228.92029 142.498801 
L 229.454261 143.267946 
L 229.721247 143.508972 
L 229.988233 144.054366 
L 230.255218 144.34474 
L 230.522204 144.041871 
L 230.78919 143.350409 
L 231.056175 143.766515 
L 231.323161 143.467922 
L 231.857132 144.488671 
L 232.124118 144.668617 
L 232.391103 144.67175 
L 232.658089 145.670451 
L 232.925075 145.760743 
L 233.19206 146.258358 
L 233.726032 147.847549 
L 233.993017 148.41856 
L 234.260003 148.68886 
L 234.526989 148.046676 
L 234.793974 148.448831 
L 235.06096 147.839463 
L 235.327946 148.048703 
L 235.594931 148.580042 
L 235.861917 148.47331 
L 236.128903 148.869761 
L 236.395888 148.968766 
L 237.196845 148.022524 
L 237.463831 148.76923 
L 237.730816 148.372024 
L 237.997802 148.493244 
L 238.264788 148.478269 
L 238.531773 148.748364 
L 239.33273 148.377159 
L 239.599716 148.893702 
L 240.133687 149.112677 
L 240.400673 148.8705 
L 240.667658 149.059157 
L 240.934644 148.448253 
L 241.20163 148.639738 
L 241.468615 148.443988 
L 241.735601 148.854225 
L 242.002587 148.831863 
L 242.269572 149.493462 
L 242.536558 149.32119 
L 242.803544 148.955499 
L 243.337515 149.348102 
L 243.604501 149.343716 
L 243.871486 149.914771 
L 244.138472 149.513644 
L 244.405458 149.769645 
L 244.939429 149.281482 
L 245.206414 149.528568 
L 245.4734 150.340114 
L 245.740386 149.765789 
L 246.007371 149.810813 
L 246.274357 150.424258 
L 246.541343 149.525793 
L 246.808328 149.916599 
L 247.3423 149.784206 
L 247.609285 149.297795 
L 248.143257 149.799474 
L 248.410242 150.375535 
L 248.677228 150.047529 
L 248.944214 150.061927 
L 249.211199 150.378216 
L 249.478185 149.992059 
L 249.74517 149.896424 
L 250.279142 150.541045 
L 250.546127 150.338546 
L 250.813113 150.392109 
L 251.080099 150.798539 
L 251.347084 150.783767 
L 251.61407 150.475998 
L 251.881056 150.561397 
L 252.148041 150.76721 
L 252.415027 150.404802 
L 252.682013 150.591651 
L 252.948998 150.610028 
L 253.215984 150.43635 
L 253.482969 150.758872 
L 254.016941 150.626565 
L 254.283926 150.923386 
L 254.550912 151.43372 
L 254.817898 150.559952 
L 256.152826 151.686438 
L 256.419812 151.245356 
L 256.686797 151.340401 
L 256.953783 151.189276 
L 257.487754 151.459706 
L 257.75474 151.102673 
L 258.021725 151.462666 
L 258.288711 150.909301 
L 258.555697 151.435733 
L 258.822682 151.265245 
L 259.089668 151.238926 
L 259.356654 151.036157 
L 259.623639 151.155105 
L 259.890625 151.430886 
L 260.157611 151.182892 
L 260.691582 151.762198 
L 261.225553 151.339679 
L 261.492539 152.078093 
L 261.759525 151.541049 
L 262.02651 152.217249 
L 262.293496 151.720446 
L 262.827467 152.453899 
L 263.094453 152.47466 
L 263.361438 152.178387 
L 263.628424 152.557004 
L 263.89541 151.581745 
L 264.429381 152.08738 
L 264.696367 151.927755 
L 264.963352 151.923196 
L 265.497324 152.252462 
L 265.764309 151.786521 
L 266.031295 151.652429 
L 266.298281 152.266472 
L 266.565266 151.899119 
L 266.832252 151.93214 
L 267.099237 151.812318 
L 267.366223 151.389304 
L 267.633209 151.815481 
L 267.900194 151.796132 
L 268.434166 152.379641 
L 268.701151 152.494751 
L 268.968137 152.357874 
L 269.235123 151.779789 
L 269.502108 151.870045 
L 269.769094 151.81871 
L 270.303065 152.744623 
L 270.570051 152.027593 
L 271.104022 152.579643 
L 271.371008 151.995365 
L 271.637993 152.91781 
L 271.904979 152.035264 
L 272.171965 152.038265 
L 272.43895 152.223482 
L 272.705936 152.150448 
L 273.239907 152.494614 
L 273.506893 153.040017 
L 274.040864 152.224673 
L 274.30785 152.337672 
L 274.574836 152.756649 
L 274.841821 152.018976 
L 275.108807 152.465712 
L 275.375792 152.591943 
L 275.642778 152.545378 
L 276.176749 153.036084 
L 276.443735 153.082897 
L 276.710721 153.593069 
L 276.977706 153.244655 
L 277.244692 153.559309 
L 277.511678 153.291544 
L 277.778663 153.297665 
L 278.57962 153.69826 
L 278.846606 153.675887 
L 279.113592 154.340532 
L 279.380577 153.994852 
L 279.647563 154.429286 
L 279.914548 154.116396 
L 280.181534 154.144122 
L 280.715505 154.426372 
L 280.982491 154.494814 
L 281.249477 154.264573 
L 281.516462 154.362213 
L 281.783448 154.155068 
L 282.317419 154.004674 
L 282.584405 153.935798 
L 283.118376 154.768638 
L 283.385362 154.579417 
L 283.652347 155.456125 
L 284.72029 155.400505 
L 284.987276 155.46561 
L 285.254261 155.063341 
L 285.521247 155.62921 
L 285.788233 155.636871 
L 286.322204 155.925934 
L 286.58919 155.242112 
L 286.856175 155.242005 
L 287.123161 155.431229 
L 287.390147 155.342126 
L 287.657132 155.675356 
L 287.924118 155.317863 
L 288.191103 155.312605 
L 288.458089 155.587132 
L 288.725075 155.539639 
L 288.99206 155.212933 
L 289.526032 155.795154 
L 290.593974 155.96858 
L 290.86096 155.538262 
L 291.394931 155.561329 
L 291.661917 155.127905 
L 291.928903 155.427119 
L 292.195888 154.904094 
L 292.462874 155.655727 
L 292.729859 155.442788 
L 292.996845 155.553067 
L 293.263831 155.221002 
L 293.530816 155.211599 
L 293.797802 155.376185 
L 294.064788 155.325448 
L 294.598759 156.000229 
L 294.865745 155.642691 
L 295.13273 155.71339 
L 295.399716 155.55804 
L 295.666702 156.06054 
L 296.734644 155.963129 
L 297.00163 155.754411 
L 297.268615 155.876285 
L 297.802587 156.499908 
L 298.069572 156.33346 
L 298.603544 156.593919 
L 298.870529 156.8335 
L 299.137515 156.668702 
L 299.404501 156.794918 
L 299.671486 156.476798 
L 300.205458 156.337321 
L 300.472443 156.607915 
L 301.540386 156.199787 
L 301.807371 156.409511 
L 302.074357 156.418915 
L 302.608328 156.920316 
L 303.409285 156.500873 
L 303.676271 156.703038 
L 303.943257 156.705211 
L 304.210242 157.113282 
L 304.477228 156.699662 
L 305.011199 157.104351 
L 305.278185 157.024251 
L 305.54517 156.489976 
L 305.812156 156.827424 
L 306.346127 156.908301 
L 306.613113 156.981501 
L 306.880099 156.459182 
L 307.147084 156.947286 
L 307.41407 157.035849 
L 307.681056 156.907641 
L 307.948041 156.962777 
L 308.215027 156.661193 
L 308.482013 156.696036 
L 309.015984 156.491423 
L 309.282969 156.746532 
L 309.549955 156.511599 
L 309.816941 157.237169 
L 310.083926 156.881704 
L 310.350912 157.134891 
L 310.617898 156.859105 
L 311.151869 157.091594 
L 311.952826 157.060549 
L 312.219812 156.659538 
L 312.486797 156.484064 
L 312.753783 157.089212 
L 313.020769 156.919912 
L 313.287754 157.220388 
L 314.088711 156.938472 
L 314.355697 156.524485 
L 314.622682 156.773895 
L 315.156654 156.595714 
L 315.423639 156.120883 
L 315.690625 156.279941 
L 315.957611 156.10918 
L 316.224596 156.802168 
L 316.491582 156.50623 
L 317.025553 156.570882 
L 317.559525 156.085815 
L 317.82651 156.558871 
L 318.360481 156.428751 
L 318.627467 156.743505 
L 318.894453 156.563803 
L 319.161438 156.865861 
L 319.428424 156.778252 
L 319.69541 156.87216 
L 320.496367 156.796657 
L 320.763352 156.349296 
L 321.030338 156.889186 
L 322.098281 156.72056 
L 322.365266 156.948533 
L 322.632252 156.867149 
L 323.166223 156.924917 
L 323.433209 157.307309 
L 323.700194 157.138188 
L 324.501151 157.020573 
L 324.768137 157.242116 
L 325.035123 156.89345 
L 325.302108 156.954108 
L 325.569094 156.868894 
L 325.83608 156.91237 
L 326.103065 157.117368 
L 326.370051 157.564812 
L 326.637036 157.002444 
L 327.437993 157.304028 
L 327.704979 157.064388 
L 327.971965 157.098418 
L 328.505936 157.402296 
L 328.772922 157.157317 
L 329.306893 157.305286 
L 329.573879 157.041411 
L 330.374836 157.02764 
L 330.641821 157.231152 
L 331.175792 157.13538 
L 331.442778 156.949878 
L 331.709764 157.166234 
L 331.976749 156.814488 
L 332.510721 156.947148 
L 333.311678 157.092111 
L 333.578663 157.169659 
L 333.845649 156.863023 
L 334.37962 156.897315 
L 334.646606 157.19827 
L 334.913592 157.229496 
L 335.714548 156.590116 
L 336.24852 157.064287 
L 336.515505 156.939517 
L 337.049477 157.183636 
L 337.316462 156.978618 
L 338.117419 157.215952 
L 338.384405 156.659101 
L 338.651391 157.073064 
L 339.452347 156.957331 
L 339.719333 157.355872 
L 340.253304 156.861785 
L 340.52029 157.05704 
L 340.787276 156.635702 
L 341.054261 156.752532 
L 341.321247 156.679933 
L 341.588233 156.857354 
L 341.855218 156.844268 
L 342.122204 157.049871 
L 342.656175 157.113893 
L 343.190147 156.859888 
L 343.457132 157.006028 
L 343.991103 156.903558 
L 344.258089 157.157826 
L 344.525075 157.005948 
L 344.79206 156.707447 
L 345.059046 156.7611 
L 345.326032 156.965757 
L 345.860003 156.879134 
L 346.126989 157.015963 
L 346.393974 156.933193 
L 346.66096 156.5966 
L 346.927946 156.938272 
L 347.461917 156.619101 
L 347.728903 156.905403 
L 348.529859 156.840711 
L 348.796845 156.98429 
L 349.063831 156.784391 
L 349.330816 156.950945 
L 349.597802 156.845454 
L 349.864788 156.944772 
L 350.131773 156.738596 
L 350.398759 156.985249 
L 350.665745 156.798298 
L 351.733687 157.228802 
L 352.000673 157.085884 
L 352.267658 157.29452 
L 352.534644 157.358049 
L 353.068615 156.767647 
L 353.335601 157.276589 
L 353.602587 156.969462 
L 353.869572 157.357298 
L 354.136558 157.315657 
L 354.403544 156.992552 
L 354.670529 157.255557 
L 354.937515 157.107822 
L 355.204501 157.194068 
L 355.471486 156.964599 
L 356.005458 156.881277 
L 356.272443 156.857108 
L 356.539429 157.127138 
L 356.806414 156.814408 
L 357.607371 157.181291 
L 357.874357 157.127673 
L 358.141343 156.920315 
L 358.9423 157.081161 
L 359.209285 156.862729 
L 359.743257 157.202825 
L 360.010242 156.860582 
L 360.277228 157.04992 
L 360.811199 157.097812 
L 361.078185 156.884484 
L 361.612156 157.04506 
L 361.879142 157.240259 
L 362.146127 157.081584 
L 362.413113 157.06549 
L 362.680099 156.804342 
L 363.21407 156.900257 
L 363.481056 156.620796 
L 363.748041 156.584278 
L 364.015027 156.28696 
L 364.548998 157.002038 
L 364.815984 156.78861 
L 365.082969 157.04417 
L 365.616941 156.965016 
L 365.883926 156.958457 
L 366.150912 157.162572 
L 366.417898 157.050881 
L 366.684883 156.783993 
L 366.951869 157.317478 
L 367.218855 157.24046 
L 367.48584 157.293773 
L 368.553783 156.930029 
L 368.820769 157.151737 
L 369.087754 156.774057 
L 369.35474 157.071522 
L 369.621725 157.188691 
L 369.888711 157.071641 
L 370.422682 157.157254 
L 370.956654 157.214291 
L 371.223639 157.15898 
L 371.490625 157.360904 
L 372.024596 156.997702 
L 372.291582 157.194465 
L 372.558568 156.958928 
L 372.825553 157.207504 
L 373.359525 157.123454 
L 373.62651 157.379931 
L 374.160481 156.781357 
L 374.427467 156.843251 
L 374.694453 157.025809 
L 374.961438 156.672248 
L 375.228424 156.997018 
L 375.49541 156.767273 
L 376.029381 156.891964 
L 376.296367 156.525233 
L 376.563352 157.069887 
L 376.830338 156.711689 
L 377.364309 156.629385 
L 377.631295 156.921364 
L 377.898281 156.741025 
L 378.165266 156.931866 
L 378.432252 156.869437 
L 378.699237 156.95297 
L 378.966223 157.325228 
L 379.233209 157.298327 
L 379.500194 156.965534 
L 380.034166 157.174368 
L 380.301151 157.216075 
L 380.568137 156.922971 
L 380.835123 157.106337 
L 381.369094 157.022951 
L 381.63608 157.332163 
L 381.903065 157.168667 
L 382.437036 157.453814 
L 382.704022 156.994763 
L 382.971008 156.99318 
L 383.237993 157.190726 
L 383.504979 156.968555 
L 383.771965 157.005915 
L 384.03895 157.276595 
L 384.305936 157.026292 
L 384.572922 157.241281 
L 384.839907 156.931915 
L 385.373879 156.664016 
L 385.640864 156.84604 
L 386.174836 156.780014 
L 386.441821 156.673134 
L 386.708807 156.824006 
L 386.975792 157.168924 
L 387.242778 157.190466 
L 388.310721 156.75704 
L 388.577706 157.067917 
L 388.844692 157.201226 
L 389.111678 157.552285 
L 389.912635 157.099451 
L 390.17962 157.305882 
L 390.980577 156.954412 
L 391.247563 157.08658 
L 391.781534 156.716346 
L 392.04852 156.814848 
L 392.315505 156.794005 
L 392.582491 157.097061 
L 392.849477 156.752772 
L 393.116462 156.809305 
L 393.383448 156.726122 
L 393.917419 156.853729 
L 394.451391 156.558932 
L 394.985362 156.821823 
L 395.252347 156.637478 
L 395.519333 157.228641 
L 395.786319 156.790699 
L 396.053304 156.873658 
L 396.32029 156.761293 
L 396.854261 157.043346 
L 397.121247 156.626639 
L 397.388233 156.745497 
L 397.655218 156.735423 
L 397.922204 156.589803 
L 398.18919 156.967555 
L 398.456175 156.991546 
L 399.257132 156.619805 
L 399.524118 157.033005 
L 399.791103 156.256251 
L 400.058089 156.560651 
L 400.59206 156.581748 
L 401.126032 156.40131 
L 401.393017 156.379756 
L 402.193974 156.669645 
L 402.727946 156.541291 
L 402.994931 156.336147 
L 403.261917 156.331775 
L 403.528903 156.531117 
L 404.062874 156.429771 
L 404.329859 156.726495 
L 404.596845 156.686724 
L 404.863831 156.912091 
L 405.397802 156.765474 
L 405.664788 157.007131 
L 405.931773 156.657293 
L 406.465745 156.765566 
L 406.73273 156.676975 
L 406.999716 156.774615 
L 407.266702 156.676206 
L 407.533687 156.897556 
L 407.800673 156.580199 
L 408.067658 157.002127 
L 408.60163 156.38125 
L 409.669572 156.42652 
L 410.203544 156.166888 
L 410.470529 156.676661 
L 410.737515 156.607214 
L 411.004501 156.813065 
L 411.538472 156.676634 
L 412.072443 156.45115 
L 412.339429 156.524964 
L 412.606414 156.857067 
L 413.140386 156.844767 
L 413.674357 157.035811 
L 413.941343 156.956528 
L 414.208328 156.700263 
L 414.7423 156.982464 
L 415.009285 156.829137 
L 415.543257 156.851996 
L 415.810242 156.630005 
L 416.344214 156.813495 
L 416.611199 156.530259 
L 417.14517 156.526709 
L 417.412156 156.791914 
L 417.679142 156.70857 
L 417.946127 156.482309 
L 418.213113 156.748484 
L 418.480099 156.667525 
L 419.815027 156.873798 
L 420.082013 156.665598 
L 420.348998 156.969997 
L 420.615984 156.868234 
L 420.882969 156.394809 
L 421.416941 156.935192 
L 421.683926 156.648261 
L 421.950912 156.779428 
L 422.217898 156.637957 
L 422.484883 156.767656 
L 422.751869 157.115061 
L 423.018855 156.695413 
L 423.28584 156.494281 
L 423.819812 156.707596 
L 424.086797 157.044696 
L 424.353783 156.747812 
L 424.887754 156.681122 
L 425.15474 156.917042 
L 425.688711 156.556288 
L 425.955697 156.971636 
L 426.222682 156.724337 
L 426.489668 156.872701 
L 426.756654 156.814154 
L 427.023639 156.950991 
L 427.290625 156.807323 
L 427.557611 157.214683 
L 427.824596 157.158081 
L 428.091582 156.902606 
L 428.358568 157.197934 
L 428.625553 157.274166 
L 428.892539 157.006934 
L 429.159525 156.933382 
L 429.960481 157.299545 
L 430.494453 157.317807 
L 430.761438 157.395789 
L 431.028424 157.229788 
L 432.897324 157.153888 
L 433.164309 157.218635 
L 433.431295 157.4042 
L 434.232252 157.319612 
L 434.499237 157.066366 
L 434.766223 157.030827 
L 435.033209 157.208899 
L 435.834166 157.305866 
L 436.101151 157.147753 
L 436.368137 157.478512 
L 436.635123 157.431349 
L 436.902108 157.151738 
L 437.169094 157.064506 
L 437.43608 157.277349 
L 438.504022 157.153039 
L 438.771008 157.424577 
L 439.037993 157.185398 
L 439.304979 157.377459 
L 439.571965 157.38607 
L 439.83895 157.16414 
L 440.372922 157.543701 
L 440.639907 157.473206 
L 440.906893 157.186025 
L 441.173879 157.440872 
L 441.440864 157.398754 
L 441.70785 157.230969 
L 442.241821 157.136352 
L 442.508807 157.396812 
L 442.775792 157.236476 
L 443.042778 157.410381 
L 443.576749 157.339079 
L 443.843735 157.452236 
L 444.377706 157.458858 
L 444.644692 157.609286 
L 444.911678 157.397912 
L 445.178663 157.363696 
L 445.445649 157.095948 
L 445.712635 157.451459 
L 445.97962 157.228895 
L 446.246606 157.165011 
L 446.513592 157.243152 
L 446.780577 157.461782 
L 447.047563 157.176534 
L 447.314548 157.386941 
L 447.581534 157.297579 
L 447.84852 157.720571 
L 448.115505 157.405566 
L 448.382491 157.685948 
L 448.649477 157.731368 
L 449.183448 157.459591 
L 449.450434 157.829444 
L 449.717419 157.401019 
L 449.984405 157.383646 
L 450.251391 157.688003 
L 450.785362 157.478963 
L 451.052347 157.611723 
L 451.586319 157.463038 
L 451.853304 157.196849 
L 452.12029 157.450248 
L 452.387276 157.273119 
L 452.654261 157.486691 
L 452.921247 157.248067 
L 453.188233 157.398509 
L 453.455218 157.413549 
L 453.722204 157.544717 
L 455.057132 157.351241 
L 455.324118 157.047504 
L 455.858089 157.474026 
L 456.926032 157.608809 
L 457.193017 157.616021 
L 457.460003 157.762144 
L 457.726989 157.577958 
L 457.993974 157.748481 
L 458.26096 157.674787 
L 458.527946 157.367928 
L 459.061917 157.731152 
L 459.328903 157.675192 
L 459.595888 157.388196 
L 459.862874 157.723952 
L 460.129859 157.425709 
L 460.663831 157.276192 
L 460.930816 157.243702 
L 461.197802 157.371686 
L 461.464788 157.311179 
L 461.731773 157.480472 
L 461.998759 157.333347 
L 462.53273 157.435204 
L 462.799716 157.213202 
L 463.066702 157.42264 
L 463.600673 157.516533 
L 463.867658 157.397726 
L 464.134644 157.471742 
L 464.40163 157.400704 
L 464.668615 157.452568 
L 464.935601 157.118808 
L 465.202587 157.121419 
L 465.469572 157.320368 
L 465.736558 157.065685 
L 466.003544 157.480127 
L 466.270529 157.580221 
L 466.537515 157.941956 
L 466.804501 157.99473 
L 467.071486 157.392726 
L 467.338472 157.62587 
L 468.6734 157.479241 
L 469.207371 157.186928 
L 469.474357 157.031504 
L 470.008328 157.135997 
L 471.076271 157.586261 
L 471.877228 157.040234 
L 472.144214 157.45804 
L 472.678185 157.401577 
L 472.94517 157.215256 
L 473.212156 157.63279 
L 473.479142 157.174889 
L 473.746127 157.436009 
L 474.013113 157.246168 
L 474.280099 157.449039 
L 474.547084 157.233074 
L 475.081056 157.574156 
L 475.348041 157.242756 
L 475.615027 157.222277 
L 475.882013 156.961946 
L 476.415984 157.24139 
L 476.682969 157.275007 
L 476.949955 157.133943 
L 477.216941 157.306623 
L 477.483926 157.068769 
L 477.750912 157.364376 
L 478.017898 157.305828 
L 478.284883 157.579262 
L 478.551869 157.534252 
L 478.818855 157.73048 
L 479.352826 157.160485 
L 479.619812 157.14379 
L 479.886797 157.241685 
L 480.420769 157.713176 
L 481.221725 157.052433 
L 481.755697 157.711293 
L 482.289668 157.360933 
L 482.556654 157.731732 
L 483.624596 157.986674 
L 483.891582 158.224134 
L 484.425553 157.863367 
L 484.692539 158.056374 
L 485.22651 157.971196 
L 485.760481 158.122377 
L 486.027467 157.706486 
L 486.294453 157.802726 
L 486.828424 158.359444 
L 487.09541 158.151754 
L 487.362395 158.189393 
L 488.163352 158.025179 
L 488.430338 158.160489 
L 488.964309 158.128554 
L 489.231295 158.185402 
L 489.498281 158.114062 
L 489.765266 157.810648 
L 490.032252 158.288977 
L 490.299237 158.082816 
L 490.566223 158.157528 
L 490.833209 157.972389 
L 491.100194 157.958637 
L 491.36718 158.168791 
L 491.901151 157.869957 
L 492.168137 158.08321 
L 492.435123 157.995369 
L 492.702108 158.150523 
L 493.503065 158.080294 
L 493.770051 158.080599 
L 494.304022 158.300445 
L 494.571008 158.260873 
L 494.837993 158.038262 
L 495.63895 158.301004 
L 495.905936 158.438642 
L 496.172922 158.227964 
L 496.439907 158.285599 
L 496.706893 158.108866 
L 496.973879 158.128389 
L 497.240864 158.001208 
L 497.774836 158.045974 
L 498.041821 157.829037 
L 498.308807 158.125693 
L 498.575792 157.699357 
L 498.842778 158.021588 
L 499.376749 157.689195 
L 499.643735 157.96439 
L 500.177706 157.633171 
L 500.711678 158.226138 
L 500.978663 157.875538 
L 501.245649 157.712027 
L 501.512635 157.840517 
L 501.77962 157.611358 
L 502.046606 157.731589 
L 502.580577 157.496991 
L 502.847563 157.610955 
L 503.114548 157.444894 
L 503.64852 157.842906 
L 504.182491 157.479309 
L 504.983448 158.03149 
L 505.250434 157.767348 
L 505.517419 157.92344 
L 505.784405 157.74766 
L 506.051391 157.963075 
L 506.318376 157.504708 
L 506.852347 157.71524 
L 507.653304 157.801124 
L 507.92029 157.780383 
L 508.187276 157.602048 
L 508.454261 157.969906 
L 508.721247 157.851506 
L 508.988233 157.860081 
L 509.255218 157.466349 
L 509.522204 157.806401 
L 509.78919 157.659981 
L 510.056175 157.886537 
L 510.323161 157.502009 
L 510.590147 157.475304 
L 511.391103 157.863981 
L 511.658089 157.855771 
L 511.925075 158.138948 
L 512.459046 157.685258 
L 513.260003 157.587453 
L 513.793974 157.948054 
L 514.06096 157.712707 
L 514.327946 157.689305 
L 514.861917 157.503519 
L 515.395888 158.070544 
L 515.662874 157.555642 
L 515.929859 157.911242 
L 516.196845 157.97747 
L 516.463831 157.760102 
L 516.730816 158.034998 
L 517.264788 157.823807 
L 517.531773 157.977156 
L 518.065745 157.938486 
L 518.33273 157.961408 
L 518.599716 157.682361 
L 518.866702 157.794958 
L 519.133687 157.49921 
L 519.667658 157.68894 
L 519.934644 157.433559 
L 520.468615 157.582751 
L 520.735601 157.539845 
L 521.002587 157.73281 
L 521.269572 157.638841 
L 521.803544 157.86119 
L 522.337515 157.594704 
L 522.604501 157.925916 
L 522.871486 157.625117 
L 523.138472 157.549178 
L 523.405458 157.789651 
L 523.672443 157.553611 
L 523.939429 157.740942 
L 524.206414 157.589741 
L 524.740386 157.622405 
L 525.007371 157.383812 
L 525.274357 157.552347 
L 525.541343 157.424867 
L 525.808328 157.756217 
L 526.075314 157.801961 
L 526.3423 157.553469 
L 526.609285 157.770641 
L 526.876271 157.768272 
L 527.410242 157.471275 
L 527.944214 157.767883 
L 528.211199 157.593783 
L 528.478185 157.896669 
L 529.012156 157.93131 
L 529.279142 157.81331 
L 530.347084 157.87469 
L 530.881056 157.67426 
L 531.148041 157.725691 
L 531.682013 157.610073 
L 531.948998 157.662954 
L 532.482969 157.336612 
L 532.749955 157.613198 
L 533.016941 157.5346 
L 533.283926 157.154997 
L 533.817898 157.233737 
L 534.084883 157.909556 
L 534.618855 157.532703 
L 534.88584 157.546559 
L 535.152826 157.672078 
L 535.419812 157.20263 
L 535.686797 157.018569 
L 535.953783 157.442466 
L 536.220769 157.596777 
L 536.487754 157.23918 
L 537.021725 157.65768 
L 537.288711 157.396838 
L 537.555697 157.623418 
L 538.089668 157.484274 
L 538.356654 157.721884 
L 538.623639 157.508966 
L 538.890625 157.764389 
L 539.424596 157.505975 
L 539.958568 157.743156 
L 540.492539 157.840981 
L 540.759525 157.580055 
L 541.02651 157.55157 
L 541.293496 157.778027 
L 541.560481 157.449123 
L 541.827467 157.869658 
L 542.094453 157.59729 
L 542.628424 157.605017 
L 542.89541 157.764661 
L 543.162395 157.659595 
L 543.429381 157.87691 
L 543.696367 157.705622 
L 543.963352 157.773473 
L 544.230338 157.546814 
L 544.497324 157.531149 
L 544.764309 157.683392 
L 545.031295 157.407992 
L 545.565266 157.724069 
L 545.832252 157.344477 
L 546.099237 157.743472 
L 546.366223 157.526342 
L 546.900194 157.611014 
L 547.16718 157.617163 
L 547.434166 157.87734 
L 547.701151 157.532254 
L 547.968137 157.708911 
L 548.235123 157.641141 
L 548.502108 157.759307 
L 549.303065 157.616095 
L 549.570051 157.820933 
L 549.837036 157.804791 
L 550.104022 157.975464 
L 550.371008 157.72731 
L 550.637993 157.747482 
L 550.904979 157.525282 
L 551.43895 157.900287 
L 552.239907 157.698475 
L 552.506893 157.867135 
L 552.773879 157.634738 
L 553.30785 157.772174 
L 553.841821 157.64916 
L 554.375792 157.114389 
L 554.909764 157.798533 
L 555.176749 157.554442 
L 555.977706 157.756239 
L 556.244692 157.740759 
L 556.511678 157.521421 
L 557.045649 157.698147 
L 557.312635 157.868272 
L 557.57962 157.797966 
L 557.846606 157.86282 
L 558.113592 157.734487 
L 558.380577 157.453691 
L 558.647563 157.795092 
L 559.181534 157.77029 
L 559.44852 157.440921 
L 560.249477 157.90009 
L 560.516462 157.738334 
L 561.584405 157.710931 
L 561.851391 157.631378 
L 562.118376 157.847901 
L 562.385362 157.651281 
L 562.652347 157.786088 
L 562.919333 157.737756 
L 563.186319 157.321947 
L 563.72029 157.604255 
L 564.254261 157.459478 
L 565.58919 157.746468 
L 565.856175 157.082673 
L 566.390147 157.003651 
L 566.657132 157.359292 
L 566.924118 157.376604 
L 567.191103 157.80967 
L 567.458089 157.550614 
L 567.99206 158.035146 
L 568.259046 158.042473 
L 568.793017 157.72142 
L 569.060003 157.815258 
L 569.326989 158.078517 
L 569.593974 157.682671 
L 569.86096 157.515631 
L 570.127946 157.881075 
L 570.394931 157.714549 
L 570.661917 157.329939 
L 570.928903 157.49114 
L 571.195888 157.386692 
L 571.462874 157.635487 
L 571.729859 157.485264 
L 571.996845 157.716257 
L 572.263831 157.353224 
L 572.530816 157.607024 
L 573.064788 157.51627 
L 573.331773 157.641356 
L 573.598759 157.483552 
L 573.865745 157.649739 
L 574.13273 157.545873 
L 574.399716 157.794796 
L 574.666702 157.608627 
L 574.933687 157.796775 
L 575.200673 157.50909 
L 575.734644 157.371444 
L 576.00163 156.963666 
L 576.535601 157.607738 
L 576.802587 157.261248 
L 577.069572 157.46966 
L 577.336558 157.370851 
L 577.603544 157.527226 
L 577.870529 157.975446 
L 578.137515 157.811063 
L 578.404501 157.814517 
L 579.205458 157.461869 
L 580.006414 157.612096 
L 580.2734 157.425711 
L 580.540386 157.692565 
L 580.807371 157.653135 
L 581.074357 157.299848 
L 581.608328 157.687697 
L 582.1423 157.602856 
L 582.676271 157.787088 
L 582.943257 157.653886 
L 583.477228 157.574719 
L 584.278185 157.1544 
L 584.54517 157.48553 
L 584.812156 157.41846 
L 585.079142 157.53363 
L 585.346127 157.482296 
L 585.613113 157.249348 
L 585.880099 157.497397 
L 586.41407 157.666267 
L 586.948041 157.323235 
L 587.215027 157.478626 
L 587.482013 157.315742 
L 588.015984 157.342157 
L 588.282969 157.744141 
L 588.549955 157.379933 
L 588.816941 157.768976 
L 589.083926 157.82353 
L 589.350912 157.48486 
L 589.617898 157.556979 
L 589.884883 157.786835 
L 590.151869 157.683917 
L 590.418855 157.742106 
L 590.68584 157.250578 
L 590.952826 157.882644 
L 591.219812 157.352554 
L 591.486797 157.618952 
L 591.753783 157.552203 
L 592.020769 157.810314 
L 592.55474 157.747254 
L 592.821725 157.96629 
L 593.088711 157.637494 
L 593.355697 157.840465 
L 594.423639 158.053088 
L 594.690625 157.860334 
L 594.957611 157.878711 
L 595.491582 157.627546 
L 595.758568 157.741776 
L 596.025553 157.494956 
L 596.292539 157.62489 
L 596.559525 157.627944 
L 596.82651 157.82993 
L 597.093496 157.702649 
L 597.360481 157.818193 
L 598.69541 157.664092 
L 598.962395 157.467348 
L 599.496367 158.117657 
L 599.763352 157.961348 
L 600.030338 157.656475 
L 600.297324 157.575927 
L 600.564309 157.987246 
L 601.365266 157.464802 
L 601.632252 157.873153 
L 601.899237 158.004703 
L 602.166223 158.006909 
L 602.700194 157.676152 
L 602.96718 157.946209 
L 603.234166 157.697413 
L 603.501151 157.635562 
L 603.768137 157.842202 
L 604.035123 157.718379 
L 604.302108 157.94242 
L 604.569094 157.891256 
L 604.83608 158.138062 
L 605.103065 158.162837 
L 605.637036 157.83943 
L 605.904022 157.975943 
L 606.171008 157.715908 
L 606.437993 157.746637 
L 606.971965 157.268295 
L 607.505936 158.005007 
L 607.772922 157.78413 
L 608.306893 157.948923 
L 608.573879 157.854459 
L 609.10785 158.023611 
L 609.374836 157.865586 
L 609.641821 157.964979 
L 609.908807 157.806228 
L 610.175792 157.859752 
L 610.976749 157.621087 
L 611.243735 157.800328 
L 611.510721 157.647773 
L 611.777706 157.968243 
L 613.37962 157.812471 
L 613.646606 157.706434 
L 614.447563 158.007571 
L 614.714548 157.731495 
L 614.981534 157.755374 
L 615.24852 157.618735 
L 615.515505 157.897625 
L 615.782491 157.579873 
L 616.049477 157.869409 
L 616.316462 157.912186 
L 617.117419 157.495576 
L 617.384405 157.760244 
L 617.918376 157.75722 
L 618.185362 157.884517 
L 618.452347 157.845191 
L 618.719333 157.998307 
L 619.253304 158.039585 
L 619.52029 157.701593 
L 619.787276 157.985027 
L 620.054261 157.682186 
L 620.588233 158.031847 
L 621.38919 157.301636 
L 622.190147 157.924529 
L 622.457132 157.808914 
L 622.724118 158.181066 
L 622.991103 157.891204 
L 623.258089 158.090881 
L 623.525075 157.905414 
L 624.059046 157.813422 
L 624.326032 158.100396 
L 624.593017 157.708498 
L 624.860003 157.731194 
L 625.126989 157.899263 
L 625.126989 157.899263 
" clip-path="url(#p7e2cc772ef)" style="fill: none; stroke: #1f77b4; stroke-width: 1.5; stroke-linecap: square"/>
   </g>
   <g id="line2d_13">
    <path d="M 117.854261 254.938135 
L 118.121247 296.03625 
L 118.922204 187.276667 
L 119.18919 189.706367 
L 119.456175 199.947919 
L 119.723161 215.797721 
L 120.257132 198.696802 
L 120.791103 191.667623 
L 121.058089 187.178186 
L 121.59206 181.518091 
L 121.859046 172.836631 
L 122.126032 177.084168 
L 122.393017 176.002442 
L 122.660003 180.292152 
L 123.193974 176.06466 
L 123.46096 175.975991 
L 123.727946 174.803012 
L 123.994931 176.218112 
L 124.528903 172.621992 
L 124.795888 174.243191 
L 125.062874 176.566693 
L 125.329859 173.999041 
L 125.596845 173.336092 
L 125.863831 171.437928 
L 126.130816 173.335198 
L 126.397802 172.257273 
L 126.664788 172.221129 
L 126.931773 171.317887 
L 127.198759 174.228225 
L 127.465745 174.212043 
L 127.73273 172.3616 
L 127.999716 174.62792 
L 128.533687 173.635043 
L 128.800673 172.33708 
L 129.067658 172.44086 
L 129.334644 171.153063 
L 129.60163 171.94099 
L 129.868615 171.945602 
L 130.135601 172.134762 
L 130.402587 171.688203 
L 130.669572 172.966357 
L 131.203544 171.552824 
L 131.737515 173.746198 
L 132.004501 171.707896 
L 132.538472 171.970886 
L 132.805458 170.970049 
L 133.339429 171.354679 
L 133.8734 173.167313 
L 134.407371 172.811369 
L 134.674357 171.409545 
L 135.208328 174.302414 
L 135.475314 172.613514 
L 135.7423 172.593085 
L 136.009285 171.222889 
L 136.276271 171.566571 
L 136.543257 172.197917 
L 137.077228 172.719121 
L 137.344214 172.528508 
L 137.611199 171.880279 
L 137.878185 171.604792 
L 138.14517 172.486302 
L 138.412156 172.588694 
L 138.679142 173.111377 
L 138.946127 171.824538 
L 139.213113 171.427537 
L 139.480099 172.134662 
L 139.747084 172.388463 
L 140.01407 172.99041 
L 140.548041 173.19691 
L 140.815027 172.615522 
L 141.082013 173.116519 
L 141.348998 174.450834 
L 141.882969 173.067075 
L 142.149955 173.406221 
L 142.416941 172.090916 
L 142.683926 173.59965 
L 142.950912 173.205076 
L 143.484883 175.600819 
L 143.751869 175.336454 
L 144.018855 175.347132 
L 144.28584 172.839012 
L 144.552826 174.86629 
L 144.819812 172.849161 
L 145.620769 175.266 
L 145.887754 173.253777 
L 146.15474 175.196099 
L 146.421725 176.064354 
L 146.688711 174.710514 
L 146.955697 174.716729 
L 147.222682 174.534071 
L 147.489668 173.717343 
L 147.756654 174.202458 
L 148.023639 175.168232 
L 148.290625 173.329799 
L 148.557611 173.707572 
L 148.824596 175.512934 
L 149.091582 175.412587 
L 149.625553 174.236053 
L 149.892539 174.495109 
L 150.159525 174.457927 
L 150.42651 173.598044 
L 150.693496 173.556798 
L 150.960481 174.226957 
L 151.227467 172.842117 
L 151.494453 174.033998 
L 151.761438 171.82722 
L 152.028424 173.466877 
L 152.29541 171.590813 
L 152.562395 173.837477 
L 152.829381 174.196744 
L 153.363352 172.477713 
L 153.630338 174.105548 
L 153.897324 170.266629 
L 154.164309 170.28206 
L 154.431295 170.728368 
L 154.698281 172.379129 
L 154.965266 172.545078 
L 155.232252 173.10725 
L 155.499237 172.727759 
L 156.033209 171.206784 
L 156.300194 172.85732 
L 156.56718 169.132799 
L 156.834166 167.331023 
L 157.101151 169.746138 
L 157.368137 170.89915 
L 157.635123 171.197267 
L 157.902108 171.290808 
L 158.169094 170.065879 
L 158.43608 170.701915 
L 158.703065 169.38946 
L 158.970051 169.828205 
L 159.237036 167.50936 
L 159.504022 169.867771 
L 159.771008 170.174255 
L 160.037993 169.140012 
L 160.304979 169.54945 
L 160.571965 171.783569 
L 160.83895 168.517541 
L 161.105936 168.987571 
L 161.372922 168.750076 
L 161.906893 171.450895 
L 162.173879 171.729048 
L 162.440864 171.055364 
L 162.70785 168.730249 
L 163.241821 171.317043 
L 163.508807 170.891562 
L 163.775792 168.43404 
L 164.576749 170.685864 
L 164.843735 167.229364 
L 165.110721 169.860336 
L 165.377706 170.315567 
L 165.644692 166.725035 
L 165.911678 168.727225 
L 166.178663 168.558664 
L 166.712635 169.35949 
L 166.97962 169.370134 
L 167.246606 169.961826 
L 167.513592 168.556259 
L 167.780577 170.718922 
L 168.047563 168.860858 
L 168.314548 170.40796 
L 168.581534 167.685218 
L 168.84852 168.199201 
L 169.382491 170.578275 
L 169.916462 169.629412 
L 170.450434 169.775695 
L 170.717419 170.735877 
L 170.984405 170.170243 
L 171.251391 170.533776 
L 171.518376 170.003519 
L 171.785362 170.422865 
L 172.052347 169.232927 
L 172.319333 168.608221 
L 172.586319 168.981682 
L 172.853304 169.866374 
L 173.12029 168.866532 
L 173.387276 170.029044 
L 173.654261 169.272354 
L 173.921247 170.493606 
L 174.188233 169.511944 
L 174.455218 169.666177 
L 174.722204 170.312552 
L 175.256175 170.441513 
L 175.523161 169.193993 
L 175.790147 170.700225 
L 176.057132 170.408394 
L 176.324118 170.390795 
L 176.591103 168.707613 
L 176.858089 168.567834 
L 177.125075 168.555006 
L 177.39206 169.782664 
L 177.659046 169.375414 
L 177.926032 170.828587 
L 178.193017 169.300857 
L 178.460003 169.55813 
L 178.726989 168.334885 
L 178.993974 167.962417 
L 179.527946 169.137734 
L 179.794931 169.272664 
L 180.061917 168.226628 
L 180.328903 169.71668 
L 180.862874 167.264729 
L 181.129859 168.508186 
L 181.396845 168.568905 
L 181.663831 169.47394 
L 181.930816 167.353207 
L 182.464788 169.12375 
L 182.731773 167.556371 
L 182.998759 167.498236 
L 183.265745 168.372565 
L 183.53273 166.057744 
L 183.799716 168.455916 
L 184.066702 169.283844 
L 184.600673 168.434012 
L 185.134644 169.942208 
L 185.40163 171.442653 
L 185.668615 170.744467 
L 185.935601 169.635116 
L 186.202587 169.531875 
L 186.469572 169.192391 
L 186.736558 171.219978 
L 187.270529 168.883082 
L 187.537515 169.9975 
L 187.804501 170.620432 
L 188.071486 170.428596 
L 188.338472 169.78904 
L 188.605458 171.271427 
L 188.872443 170.455118 
L 189.406414 169.500853 
L 190.207371 171.378662 
L 190.474357 169.724076 
L 190.741343 169.908073 
L 191.008328 170.59831 
L 191.275314 168.845588 
L 192.076271 170.477496 
L 192.343257 169.453045 
L 192.610242 170.539155 
L 192.877228 170.41447 
L 193.144214 170.541219 
L 193.411199 170.364321 
L 193.678185 169.476405 
L 194.212156 170.988097 
L 194.479142 170.720209 
L 194.746127 170.610929 
L 195.013113 170.250932 
L 195.280099 170.983601 
L 195.547084 171.334155 
L 195.81407 170.607384 
L 196.081056 171.594585 
L 196.348041 170.74801 
L 196.615027 171.102039 
L 196.882013 165.668203 
L 197.148998 157.260271 
L 197.415984 158.109435 
L 197.949955 158.065066 
L 198.216941 159.253093 
L 198.483926 157.933172 
L 199.017898 159.216684 
L 199.284883 158.952384 
L 199.551869 159.774269 
L 199.818855 159.497486 
L 200.08584 159.514434 
L 200.352826 159.810076 
L 200.619812 159.243292 
L 200.886797 159.990796 
L 201.153783 159.520692 
L 201.420769 160.025602 
L 201.95474 159.908322 
L 202.221725 160.32958 
L 202.488711 160.154614 
L 202.755697 159.818638 
L 203.022682 159.734872 
L 203.289668 159.897215 
L 203.556654 159.637781 
L 203.823639 160.053261 
L 204.090625 159.948993 
L 204.357611 160.615295 
L 204.624596 159.828245 
L 204.891582 159.865906 
L 205.158568 159.767255 
L 205.425553 160.544821 
L 205.692539 159.858306 
L 205.959525 160.628665 
L 206.22651 160.316323 
L 206.493496 160.832474 
L 206.760481 160.978815 
L 207.027467 159.986471 
L 207.294453 159.913214 
L 207.561438 160.487713 
L 208.09541 160.706538 
L 208.629381 160.026634 
L 208.896367 160.417298 
L 209.163352 160.304212 
L 209.430338 160.57298 
L 209.697324 160.25048 
L 209.964309 160.492115 
L 210.231295 160.432943 
L 210.498281 160.643788 
L 210.765266 160.544122 
L 211.299237 160.211009 
L 211.566223 159.614008 
L 211.833209 160.273213 
L 212.36718 159.906737 
L 212.634166 160.47459 
L 212.901151 159.342558 
L 213.168137 159.780157 
L 213.435123 159.273843 
L 213.969094 159.899822 
L 214.23608 159.765321 
L 214.503065 159.897305 
L 214.770051 159.424204 
L 215.037036 159.791611 
L 215.304022 159.646656 
L 215.571008 159.29827 
L 215.837993 159.624578 
L 216.104979 159.152912 
L 216.371965 159.176085 
L 216.63895 159.064748 
L 216.905936 159.418686 
L 217.172922 159.253508 
L 217.706893 159.800961 
L 217.973879 159.610222 
L 218.240864 159.767646 
L 218.50785 159.258101 
L 218.774836 159.465059 
L 219.041821 159.516275 
L 219.575792 159.381971 
L 220.109764 159.476896 
L 220.376749 159.130857 
L 220.910721 159.603505 
L 221.177706 158.947125 
L 221.711678 159.399262 
L 221.978663 159.591428 
L 222.245649 159.406045 
L 222.512635 159.503871 
L 222.77962 158.876726 
L 223.046606 159.627697 
L 223.313592 159.631467 
L 223.580577 159.09707 
L 223.847563 159.191761 
L 224.114548 159.851682 
L 224.381534 159.400114 
L 224.64852 159.600971 
L 224.915505 159.400481 
L 225.182491 159.734207 
L 225.449477 159.494294 
L 225.983448 159.609264 
L 226.784405 159.752787 
L 227.051391 159.198844 
L 227.318376 159.908282 
L 227.585362 159.466196 
L 227.852347 159.699557 
L 228.119333 159.645381 
L 228.386319 160.019621 
L 228.653304 159.595929 
L 229.988233 159.606665 
L 230.255218 159.94807 
L 230.522204 159.719841 
L 230.78919 159.649272 
L 231.056175 162.848622 
L 231.323161 158.196261 
L 231.590147 159.594087 
L 231.857132 159.816541 
L 232.124118 159.585803 
L 232.391103 159.791473 
L 232.658089 159.62025 
L 232.925075 159.814353 
L 233.19206 159.681243 
L 233.459046 159.994622 
L 233.726032 159.768833 
L 233.993017 159.373059 
L 234.793974 159.860811 
L 235.06096 159.527404 
L 235.327946 159.690969 
L 235.594931 159.504895 
L 235.861917 159.835262 
L 236.128903 159.449771 
L 236.395888 159.812848 
L 236.662874 159.550961 
L 236.929859 159.758294 
L 237.463831 159.550144 
L 237.997802 159.683732 
L 238.264788 159.744483 
L 238.798759 159.492884 
L 239.065745 159.886462 
L 239.33273 159.425712 
L 240.133687 159.597965 
L 240.667658 159.507324 
L 240.934644 159.820618 
L 241.20163 159.745091 
L 241.735601 159.926608 
L 242.002587 159.71463 
L 242.269572 160.015056 
L 242.536558 159.538858 
L 243.337515 160.086147 
L 243.604501 159.750671 
L 244.138472 159.785548 
L 244.405458 159.464118 
L 244.672443 159.979955 
L 244.939429 160.123462 
L 245.206414 159.783599 
L 245.740386 159.852492 
L 246.007371 159.76547 
L 246.274357 159.849602 
L 246.541343 160.331629 
L 246.808328 159.971812 
L 247.075314 159.825108 
L 247.3423 159.831308 
L 247.609285 160.129987 
L 247.876271 160.084658 
L 248.143257 160.428929 
L 248.410242 159.703395 
L 249.478185 159.86017 
L 249.74517 160.021164 
L 250.012156 159.838181 
L 250.279142 160.044828 
L 250.813113 159.802884 
L 251.080099 160.08104 
L 251.347084 159.821094 
L 251.61407 159.862872 
L 251.881056 159.664279 
L 252.415027 159.991116 
L 252.682013 159.845669 
L 252.948998 159.564818 
L 253.215984 159.790168 
L 253.482969 159.71072 
L 253.749955 159.947068 
L 254.283926 159.906012 
L 254.550912 159.76006 
L 254.817898 159.991688 
L 255.351869 159.622636 
L 255.618855 159.63479 
L 255.88584 160.404745 
L 256.152826 159.638482 
L 256.419812 159.88917 
L 256.686797 159.97846 
L 256.953783 159.696818 
L 257.220769 160.236157 
L 257.487754 160.100391 
L 257.75474 159.790208 
L 258.021725 160.004479 
L 258.288711 159.662231 
L 258.555697 159.830562 
L 258.822682 160.244886 
L 259.089668 160.341749 
L 259.356654 159.687567 
L 259.623639 159.846473 
L 259.890625 159.855453 
L 260.157611 159.645816 
L 260.424596 159.946496 
L 260.691582 159.753758 
L 260.958568 160.061147 
L 262.02651 159.708261 
L 262.293496 159.433518 
L 262.827467 159.985576 
L 263.094453 159.963234 
L 263.361438 160.270411 
L 263.628424 159.757382 
L 264.429381 160.045401 
L 264.963352 159.52485 
L 265.497324 159.783737 
L 265.764309 160.015356 
L 266.031295 159.970082 
L 266.298281 159.466431 
L 266.832252 159.635054 
L 267.366223 159.885683 
L 267.633209 159.906866 
L 267.900194 159.816491 
L 268.16718 159.598509 
L 268.434166 159.9902 
L 268.701151 159.46575 
L 268.968137 159.562266 
L 269.235123 159.920128 
L 269.502108 159.713966 
L 269.769094 159.773368 
L 270.303065 159.604772 
L 270.837036 159.926805 
L 271.104022 159.652873 
L 271.904979 159.965805 
L 272.43895 159.548664 
L 272.972922 159.707622 
L 273.239907 159.896745 
L 273.506893 159.945302 
L 273.773879 159.644816 
L 274.30785 159.736002 
L 274.574836 159.510788 
L 275.108807 159.811761 
L 275.909764 159.450157 
L 276.176749 159.792891 
L 276.977706 159.629241 
L 277.244692 159.587784 
L 277.511678 159.78791 
L 277.778663 159.697469 
L 278.57962 159.848373 
L 278.846606 159.419198 
L 279.380577 159.72341 
L 279.914548 159.395262 
L 280.181534 159.633672 
L 280.44852 159.68716 
L 280.715505 159.473452 
L 280.982491 159.770971 
L 281.249477 159.680967 
L 281.516462 159.826732 
L 281.783448 159.701002 
L 282.584405 159.706407 
L 282.851391 158.956341 
L 283.118376 159.210162 
L 283.385362 159.150131 
L 284.186319 159.326243 
L 284.453304 159.274705 
L 284.72029 159.101313 
L 284.987276 159.082649 
L 285.254261 159.538282 
L 285.521247 159.18276 
L 285.788233 159.372376 
L 286.322204 159.415286 
L 286.58919 159.405631 
L 287.123161 159.099731 
L 287.390147 159.168823 
L 287.657132 159.613607 
L 287.924118 159.548557 
L 288.458089 159.197683 
L 289.793017 159.347542 
L 290.060003 159.231899 
L 290.593974 159.535565 
L 290.86096 159.212669 
L 291.127946 159.350605 
L 291.394931 159.010449 
L 291.661917 159.577426 
L 291.928903 159.346066 
L 292.462874 159.271282 
L 292.729859 159.582383 
L 292.996845 159.202346 
L 293.263831 159.384679 
L 293.530816 159.292158 
L 293.797802 159.356976 
L 294.064788 159.145893 
L 294.331773 159.101161 
L 294.598759 159.326422 
L 294.865745 159.329543 
L 295.13273 159.536034 
L 295.399716 159.403914 
L 296.200673 159.628812 
L 296.734644 159.206096 
L 297.00163 159.228473 
L 297.268615 159.556564 
L 297.802587 159.344892 
L 298.069572 159.371927 
L 298.336558 159.515831 
L 298.603544 159.412729 
L 299.137515 159.516309 
L 299.404501 159.291315 
L 299.938472 159.604475 
L 300.472443 159.478132 
L 300.739429 159.163141 
L 301.2734 159.43178 
L 301.540386 159.352497 
L 301.807371 159.655163 
L 302.074357 159.574333 
L 302.341343 159.285191 
L 302.608328 159.381459 
L 303.1423 159.324402 
L 303.409285 159.458589 
L 303.676271 159.088448 
L 304.744214 159.732886 
L 305.011199 159.821255 
L 305.54517 159.397001 
L 305.812156 159.350916 
L 306.613113 159.64263 
L 307.147084 159.167728 
L 307.681056 159.803997 
L 308.215027 159.420055 
L 308.482013 159.583008 
L 309.015984 159.307652 
L 309.282969 159.83824 
L 309.549955 159.50724 
L 309.816941 159.513531 
L 310.083926 159.750751 
L 311.151869 159.244557 
L 311.418855 159.54009 
L 311.68584 159.555156 
L 311.952826 159.443475 
L 312.219812 159.761959 
L 312.486797 159.439606 
L 313.287754 159.493523 
L 313.55474 159.5239 
L 313.821725 159.861896 
L 314.622682 159.462552 
L 315.957611 159.698796 
L 316.224596 159.472698 
L 316.491582 159.801056 
L 316.758568 159.782304 
L 317.025553 159.508473 
L 317.292539 159.517261 
L 317.559525 159.743753 
L 318.093496 159.692201 
L 318.894453 159.799585 
L 319.69541 159.69435 
L 319.962395 160.026117 
L 320.229381 159.533543 
L 320.496367 160.027189 
L 320.763352 159.729629 
L 321.030338 159.834519 
L 321.297324 159.761206 
L 321.564309 159.543284 
L 321.831295 159.661817 
L 322.098281 159.571411 
L 322.365266 159.959909 
L 322.632252 159.747461 
L 323.166223 159.724208 
L 323.433209 159.480784 
L 323.700194 159.593188 
L 323.96718 159.83157 
L 324.768137 159.585146 
L 325.035123 159.439153 
L 325.302108 159.819119 
L 325.83608 159.708435 
L 326.370051 159.662827 
L 326.637036 159.879633 
L 326.904022 159.687496 
L 327.171008 159.74539 
L 327.704979 159.553485 
L 327.971965 159.622187 
L 328.23895 159.415154 
L 328.505936 159.775125 
L 329.039907 159.7147 
L 329.306893 159.783111 
L 329.573879 159.538692 
L 330.10785 159.90848 
L 330.641821 159.477932 
L 330.908807 159.900248 
L 331.175792 159.471127 
L 331.709764 159.601649 
L 331.976749 159.62955 
L 332.243735 159.790189 
L 332.510721 159.513038 
L 332.777706 159.569492 
L 333.578663 159.289072 
L 333.845649 159.471976 
L 334.37962 159.374036 
L 334.646606 159.788639 
L 334.913592 159.147229 
L 335.180577 159.307542 
L 335.447563 159.742232 
L 335.714548 159.67504 
L 335.981534 159.410793 
L 336.24852 159.50115 
L 336.515505 159.385024 
L 336.782491 159.700471 
L 337.316462 159.697331 
L 337.583448 159.766796 
L 337.850434 159.496689 
L 338.117419 159.914742 
L 338.384405 159.448661 
L 338.918376 159.526298 
L 340.253304 160.034643 
L 340.52029 159.930973 
L 340.787276 159.549915 
L 341.054261 160.006157 
L 341.321247 159.85438 
L 341.588233 159.455156 
L 341.855218 159.668607 
L 342.122204 159.711955 
L 342.38919 159.543182 
L 342.656175 159.570787 
L 342.923161 159.952514 
L 343.457132 159.740781 
L 343.724118 160.024092 
L 344.258089 159.661005 
L 344.525075 159.608166 
L 344.79206 159.982724 
L 345.059046 159.745533 
L 345.326032 159.720903 
L 345.593017 159.866206 
L 345.860003 159.519399 
L 346.393974 159.60149 
L 346.66096 159.139675 
L 346.927946 159.711909 
L 347.461917 159.328031 
L 347.728903 159.430813 
L 347.995888 159.414399 
L 348.262874 159.823902 
L 348.529859 159.534425 
L 348.796845 159.454347 
L 349.063831 159.697668 
L 349.330816 159.526248 
L 349.864788 159.530927 
L 350.398759 159.779882 
L 350.93273 159.492664 
L 351.199716 159.429365 
L 351.733687 159.531068 
L 352.80163 159.521309 
L 353.068615 159.282817 
L 353.335601 159.404112 
L 353.602587 159.25863 
L 353.869572 159.297662 
L 354.136558 159.739175 
L 354.403544 159.663931 
L 354.670529 159.352342 
L 354.937515 159.532874 
L 355.204501 159.571296 
L 355.471486 159.304234 
L 355.738472 159.5288 
L 356.005458 159.408174 
L 356.806414 159.446086 
L 357.0734 159.429242 
L 357.340386 159.583049 
L 357.607371 159.256764 
L 357.874357 159.178391 
L 358.141343 159.21655 
L 358.408328 159.500185 
L 358.9423 159.502946 
L 359.209285 159.324808 
L 359.743257 159.452139 
L 360.010242 159.556143 
L 360.277228 159.346862 
L 360.811199 159.795516 
L 361.078185 159.456845 
L 361.34517 159.656084 
L 362.413113 159.54322 
L 362.680099 159.108917 
L 362.947084 159.491197 
L 363.481056 159.747815 
L 363.748041 159.789845 
L 364.282013 159.338114 
L 365.082969 159.667715 
L 365.883926 159.439418 
L 366.150912 159.64441 
L 366.417898 159.326737 
L 366.684883 159.710196 
L 366.951869 159.687435 
L 367.218855 159.374196 
L 367.48584 159.734714 
L 367.752826 159.494122 
L 368.019812 159.644118 
L 368.286797 159.394707 
L 368.820769 159.702644 
L 369.087754 159.587716 
L 369.35474 159.624401 
L 369.888711 159.435365 
L 370.155697 159.643733 
L 370.422682 159.20884 
L 370.689668 159.38156 
L 371.223639 159.524548 
L 371.490625 159.656495 
L 372.291582 159.673257 
L 372.558568 159.341085 
L 372.825553 159.314489 
L 373.359525 159.63012 
L 373.893496 159.545637 
L 374.160481 159.724555 
L 374.694453 159.720195 
L 374.961438 159.732752 
L 375.49541 159.517618 
L 375.762395 159.65694 
L 376.563352 159.716498 
L 376.830338 159.819512 
L 377.364309 159.449787 
L 377.898281 159.579427 
L 378.165266 159.587575 
L 378.432252 159.313503 
L 378.699237 159.495652 
L 378.966223 159.536232 
L 379.233209 159.875302 
L 379.500194 159.609927 
L 379.76718 159.505796 
L 380.034166 159.744403 
L 380.301151 159.816955 
L 380.835123 159.428054 
L 381.369094 159.509739 
L 381.903065 159.525389 
L 382.170051 159.380383 
L 382.437036 159.604921 
L 382.704022 159.494035 
L 383.237993 159.763635 
L 383.504979 159.45245 
L 384.305936 159.634865 
L 384.572922 159.449201 
L 384.839907 159.901162 
L 385.106893 159.591707 
L 385.373879 159.561419 
L 385.640864 159.824703 
L 385.90785 159.600347 
L 386.975792 159.889638 
L 387.242778 159.714231 
L 387.509764 159.8754 
L 388.043735 159.450661 
L 388.310721 159.637099 
L 388.577706 159.446477 
L 389.111678 159.584198 
L 389.378663 159.662242 
L 389.645649 159.520966 
L 390.17962 159.62848 
L 390.446606 159.505493 
L 390.713592 159.674214 
L 390.980577 159.519186 
L 391.247563 159.832837 
L 391.781534 159.429122 
L 392.04852 159.757839 
L 392.315505 159.898156 
L 392.582491 159.755126 
L 392.849477 160.112504 
L 393.116462 159.725632 
L 393.917419 159.669072 
L 394.184405 159.729294 
L 394.451391 160.040188 
L 394.718376 160.052854 
L 394.985362 159.896999 
L 395.252347 159.933446 
L 396.053304 159.734445 
L 396.32029 159.968722 
L 396.587276 159.836955 
L 396.854261 160.016696 
L 397.121247 159.606598 
L 397.922204 160.148566 
L 398.18919 159.980135 
L 398.723161 160.26983 
L 398.990147 159.920814 
L 399.257132 159.862846 
L 399.524118 160.12178 
L 400.058089 160.136281 
L 400.325075 160.057228 
L 400.59206 160.21907 
L 400.859046 160.005969 
L 401.126032 160.135018 
L 401.393017 159.881965 
L 401.660003 160.059702 
L 402.193974 159.860121 
L 402.46096 160.081947 
L 403.795888 160.133197 
L 404.062874 159.956105 
L 404.596845 159.806906 
L 404.863831 159.713799 
L 405.130816 160.083397 
L 405.397802 160.00115 
L 406.198759 160.12699 
L 406.465745 159.649867 
L 406.73273 159.990463 
L 407.533687 159.860726 
L 407.800673 160.18576 
L 408.334644 159.780786 
L 408.60163 159.838794 
L 408.868615 159.601415 
L 409.135601 159.949269 
L 409.402587 159.993924 
L 409.669572 159.920866 
L 409.936558 159.729038 
L 410.203544 160.00489 
L 410.470529 159.954406 
L 410.737515 159.6966 
L 411.271486 159.87414 
L 411.805458 159.824099 
L 412.072443 160.081569 
L 412.339429 159.5808 
L 412.606414 159.930805 
L 412.8734 159.626735 
L 413.140386 159.81654 
L 413.407371 159.718918 
L 413.674357 159.936655 
L 413.941343 159.711283 
L 414.208328 159.868317 
L 414.7423 159.679539 
L 415.009285 159.797399 
L 415.543257 159.741714 
L 415.810242 159.552871 
L 416.344214 159.933726 
L 416.611199 160.183809 
L 416.878185 160.00262 
L 417.14517 159.673592 
L 417.679142 159.940752 
L 417.946127 159.645777 
L 418.213113 159.875995 
L 418.747084 159.746021 
L 419.815027 159.865316 
L 420.882969 159.537773 
L 421.149955 159.819234 
L 421.416941 159.630136 
L 421.950912 159.759536 
L 422.217898 159.641354 
L 422.484883 159.859099 
L 422.751869 159.908891 
L 423.28584 159.794249 
L 423.552826 159.80096 
L 423.819812 159.677804 
L 424.086797 159.813629 
L 424.353783 159.488641 
L 425.421725 159.694787 
L 425.688711 160.147921 
L 425.955697 160.156468 
L 426.222682 159.693855 
L 426.756654 159.606839 
L 427.023639 159.686566 
L 427.290625 159.463515 
L 427.557611 159.655897 
L 428.358568 159.27166 
L 428.625553 159.659907 
L 428.892539 159.562841 
L 429.159525 159.846286 
L 429.42651 159.791676 
L 429.693496 159.62079 
L 429.960481 159.753217 
L 430.227467 159.36951 
L 430.761438 159.751166 
L 431.028424 159.425858 
L 431.562395 159.417738 
L 431.829381 159.798508 
L 432.096367 159.485476 
L 432.630338 159.69975 
L 432.897324 159.574771 
L 433.164309 159.590338 
L 433.431295 159.408781 
L 434.232252 159.610035 
L 434.499237 159.351786 
L 434.766223 159.763508 
L 435.033209 159.855228 
L 435.56718 159.666302 
L 435.834166 159.699491 
L 436.101151 159.490449 
L 436.368137 159.587118 
L 436.635123 159.905329 
L 436.902108 159.793016 
L 437.169094 159.435549 
L 437.43608 159.586284 
L 438.504022 159.41242 
L 439.037993 159.511803 
L 439.304979 159.421732 
L 439.83895 159.527112 
L 440.105936 159.738887 
L 440.372922 159.659056 
L 440.639907 159.380914 
L 441.440864 159.647705 
L 441.70785 159.485879 
L 442.241821 159.772861 
L 442.508807 159.288573 
L 442.775792 159.512686 
L 443.309764 159.726163 
L 443.576749 159.493014 
L 444.110721 159.752655 
L 444.377706 159.53422 
L 444.644692 159.76499 
L 444.911678 159.549533 
L 446.513592 159.373882 
L 446.780577 159.59583 
L 447.047563 159.520448 
L 447.314548 159.291873 
L 448.382491 159.347053 
L 448.649477 159.183105 
L 448.916462 159.432497 
L 449.183448 159.262491 
L 449.450434 159.593969 
L 449.984405 159.227279 
L 450.518376 159.328931 
L 451.052347 159.251524 
L 451.853304 159.665913 
L 452.12029 159.454533 
L 452.387276 159.435962 
L 452.654261 159.68433 
L 452.921247 159.426113 
L 453.188233 159.449003 
L 453.455218 159.257284 
L 453.722204 159.456978 
L 453.98919 159.30405 
L 454.256175 159.501237 
L 454.790147 159.394667 
L 455.057132 159.515108 
L 455.324118 159.179665 
L 455.591103 159.532834 
L 455.858089 159.309891 
L 456.125075 159.464331 
L 456.39206 159.466292 
L 456.659046 159.20631 
L 456.926032 159.343079 
L 457.193017 159.329486 
L 457.726989 159.555537 
L 457.993974 159.409654 
L 458.26096 159.478526 
L 458.527946 159.175951 
L 458.794931 159.221496 
L 459.061917 158.999204 
L 459.862874 159.427368 
L 460.396845 159.079605 
L 460.930816 159.65813 
L 461.197802 159.381467 
L 461.464788 159.341337 
L 461.731773 159.72104 
L 461.998759 159.317652 
L 462.265745 159.145908 
L 462.53273 159.304488 
L 464.134644 159.472833 
L 464.668615 159.191371 
L 464.935601 159.402192 
L 465.202587 159.44428 
L 465.469572 159.337955 
L 465.736558 159.616899 
L 466.003544 159.073256 
L 466.270529 159.091922 
L 466.537515 159.556844 
L 467.872443 159.452945 
L 468.139429 159.586297 
L 468.406414 159.592005 
L 468.6734 159.486001 
L 468.940386 158.899336 
L 469.207371 158.003987 
L 469.741343 158.879162 
L 470.008328 158.862496 
L 470.275314 159.005324 
L 470.5423 158.879011 
L 471.076271 159.197948 
L 471.610242 159.051869 
L 471.877228 159.274149 
L 472.411199 159.099388 
L 472.678185 159.046486 
L 472.94517 159.175417 
L 474.280099 159.272893 
L 474.81407 158.842898 
L 475.081056 159.021238 
L 475.348041 159.361978 
L 475.615027 159.518446 
L 475.882013 159.199618 
L 476.415984 159.091074 
L 477.216941 159.263664 
L 477.483926 159.453515 
L 478.017898 159.090151 
L 478.551869 159.198085 
L 478.818855 159.349574 
L 479.08584 159.116218 
L 479.352826 159.307855 
L 479.619812 159.319902 
L 479.886797 159.155548 
L 480.420769 159.442667 
L 480.95474 159.088154 
L 481.755697 159.392005 
L 482.022682 159.225261 
L 482.289668 159.453977 
L 482.556654 159.444142 
L 482.823639 159.151936 
L 483.090625 159.274032 
L 483.357611 159.084634 
L 483.624596 159.34848 
L 483.891582 159.186183 
L 484.692539 159.264768 
L 484.959525 159.064034 
L 485.22651 159.114143 
L 485.493496 159.438743 
L 485.760481 159.383622 
L 486.027467 159.141323 
L 486.294453 159.511424 
L 487.09541 159.223266 
L 487.362395 159.304592 
L 487.629381 159.122111 
L 487.896367 159.140219 
L 488.163352 159.01583 
L 488.430338 159.289632 
L 489.765266 159.289031 
L 490.032252 159.360818 
L 490.299237 159.036288 
L 490.566223 159.053012 
L 490.833209 158.863311 
L 491.36718 159.210691 
L 491.634166 159.447206 
L 491.901151 159.093597 
L 492.168137 159.246072 
L 493.770051 159.110554 
L 494.037036 159.278099 
L 494.304022 159.10161 
L 494.837993 159.155708 
L 495.104979 159.153041 
L 495.371965 159.373727 
L 495.63895 159.082113 
L 496.172922 159.299473 
L 496.439907 159.548631 
L 496.973879 159.146505 
L 497.50785 159.234023 
L 497.774836 159.125528 
L 498.041821 159.259211 
L 498.308807 159.256376 
L 498.575792 159.072117 
L 499.109764 159.155252 
L 499.376749 159.448899 
L 499.643735 159.398846 
L 499.910721 159.466904 
L 500.177706 159.179112 
L 500.711678 159.438995 
L 501.512635 159.183983 
L 501.77962 159.488518 
L 502.847563 159.250571 
L 503.381534 159.414905 
L 503.915505 159.098757 
L 504.182491 159.390451 
L 504.983448 159.185516 
L 505.250434 159.534182 
L 505.784405 158.827296 
L 506.051391 159.230734 
L 506.318376 159.018089 
L 506.852347 159.450297 
L 507.653304 158.956488 
L 507.92029 159.10434 
L 508.187276 159.406038 
L 508.454261 159.390124 
L 508.721247 159.093709 
L 508.988233 159.301532 
L 510.056175 159.259072 
L 510.590147 159.654362 
L 510.857132 159.517937 
L 511.124118 159.112459 
L 511.391103 159.579525 
L 511.658089 159.356064 
L 511.925075 159.538176 
L 512.19206 159.336329 
L 512.459046 159.523294 
L 512.726032 159.095471 
L 512.993017 159.328474 
L 513.260003 159.214917 
L 513.526989 159.238568 
L 513.793974 159.463432 
L 514.06096 159.336114 
L 514.327946 159.371214 
L 514.594931 159.003497 
L 514.861917 159.425594 
L 515.128903 159.275349 
L 515.395888 159.447039 
L 515.929859 159.341351 
L 516.463831 159.043313 
L 516.730816 159.290882 
L 516.997802 159.111946 
L 517.264788 159.39416 
L 517.531773 158.978849 
L 517.798759 159.594843 
L 518.065745 159.268843 
L 518.33273 159.203447 
L 518.599716 159.360939 
L 518.866702 159.158794 
L 519.133687 159.344586 
L 519.667658 159.429633 
L 519.934644 158.983202 
L 520.20163 159.167933 
L 520.735601 159.264787 
L 521.002587 159.55279 
L 521.536558 159.182046 
L 521.803544 159.251437 
L 522.070529 159.19695 
L 522.337515 159.389876 
L 522.604501 159.363848 
L 522.871486 159.151184 
L 523.138472 159.219959 
L 523.405458 159.540704 
L 523.672443 159.432546 
L 523.939429 159.104321 
L 524.206414 159.346655 
L 524.4734 159.136442 
L 525.007371 159.280501 
L 525.808328 158.997794 
L 526.075314 159.330885 
L 526.3423 159.362026 
L 526.609285 158.992906 
L 527.143257 159.116277 
L 527.410242 158.92544 
L 527.677228 159.209745 
L 528.211199 158.928437 
L 528.478185 158.84874 
L 529.012156 159.032629 
L 529.546127 158.910901 
L 530.080099 159.058414 
L 530.347084 159.039388 
L 530.61407 159.2095 
L 530.881056 159.084884 
L 531.948998 159.331411 
L 532.482969 159.101291 
L 532.749955 159.083502 
L 533.016941 159.204251 
L 533.283926 158.108318 
L 534.351869 158.736507 
L 534.88584 158.839687 
L 535.152826 158.382554 
L 535.686797 158.185659 
L 535.953783 157.968647 
L 536.220769 158.511352 
L 536.75474 158.304499 
L 537.021725 158.482685 
L 537.288711 158.356419 
L 538.089668 158.43663 
L 538.356654 158.668759 
L 538.890625 158.720199 
L 539.424596 158.157177 
L 539.691582 158.405659 
L 539.958568 158.191948 
L 540.225553 158.439843 
L 540.759525 158.387554 
L 541.02651 158.314403 
L 541.560481 158.34334 
L 541.827467 158.331678 
L 542.361438 158.582212 
L 542.628424 158.235271 
L 542.89541 158.481213 
L 543.162395 158.34142 
L 543.963352 158.443074 
L 544.497324 158.10498 
L 545.031295 158.440227 
L 545.298281 158.327735 
L 546.099237 158.429455 
L 546.366223 158.076776 
L 546.633209 158.406135 
L 546.900194 158.104959 
L 547.16718 158.265343 
L 547.434166 158.239468 
L 547.701151 158.386296 
L 547.968137 158.295456 
L 548.502108 158.323243 
L 549.03608 158.276168 
L 549.303065 158.348569 
L 549.570051 158.553417 
L 550.104022 158.286388 
L 550.371008 158.400917 
L 550.637993 158.323523 
L 551.171965 158.537015 
L 551.705936 158.301369 
L 551.972922 158.440519 
L 552.239907 158.415879 
L 552.506893 158.577805 
L 553.040864 158.474524 
L 553.30785 158.520382 
L 553.841821 158.234909 
L 554.108807 157.96738 
L 554.375792 158.652495 
L 555.176749 158.361952 
L 555.710721 158.484098 
L 555.977706 158.304603 
L 556.244692 158.496432 
L 556.511678 158.274428 
L 557.312635 158.522384 
L 557.57962 158.408583 
L 557.846606 158.468863 
L 558.113592 158.675547 
L 558.380577 158.424128 
L 558.647563 158.564791 
L 559.44852 158.427071 
L 559.715505 158.469526 
L 559.982491 158.27099 
L 560.249477 158.438399 
L 560.783448 158.236386 
L 561.317419 158.37815 
L 561.584405 158.483304 
L 561.851391 158.334638 
L 562.652347 158.348012 
L 562.919333 158.102606 
L 563.186319 158.201766 
L 563.453304 158.462072 
L 563.72029 158.227601 
L 563.987276 158.377568 
L 564.254261 158.315315 
L 564.521247 158.394371 
L 564.788233 158.275148 
L 565.58919 158.273684 
L 566.123161 157.208127 
L 566.924118 157.491882 
L 567.191103 157.621168 
L 567.725075 157.669049 
L 567.99206 157.779067 
L 568.259046 158.152072 
L 568.526032 158.036305 
L 569.060003 158.146226 
L 569.326989 157.985161 
L 570.661917 158.069482 
L 570.928903 157.873415 
L 571.195888 157.979548 
L 571.462874 158.285356 
L 571.996845 158.059329 
L 572.263831 158.108893 
L 572.797802 157.640404 
L 573.064788 158.01851 
L 573.331773 157.88671 
L 573.865745 158.008035 
L 574.13273 157.752118 
L 574.399716 158.009229 
L 574.666702 157.92961 
L 574.933687 157.645254 
L 575.467658 157.608622 
L 575.734644 156.963062 
L 576.00163 157.704123 
L 576.268615 157.75225 
L 576.535601 157.647033 
L 577.069572 157.791681 
L 577.603544 157.809546 
L 577.870529 157.636198 
L 578.137515 157.810162 
L 578.671486 157.789503 
L 578.938472 157.901056 
L 579.472443 157.653382 
L 579.739429 157.786364 
L 580.006414 157.717021 
L 580.2734 158.010967 
L 580.807371 157.868429 
L 581.341343 157.930493 
L 581.608328 157.944006 
L 581.875314 157.835117 
L 582.1423 158.127367 
L 582.409285 157.838622 
L 582.676271 157.751677 
L 583.210242 158.170981 
L 583.744214 157.724092 
L 584.011199 157.730193 
L 584.54517 158.044818 
L 585.613113 157.951918 
L 585.880099 157.825039 
L 586.41407 158.039267 
L 586.681056 157.859206 
L 586.948041 158.165626 
L 587.215027 158.11353 
L 587.482013 158.320557 
L 587.748998 158.38037 
L 588.549955 157.983463 
L 589.617898 158.212841 
L 589.884883 158.114344 
L 590.151869 158.148869 
L 590.418855 157.961212 
L 590.68584 158.206359 
L 591.486797 158.102318 
L 591.753783 157.879331 
L 592.020769 158.177994 
L 592.821725 157.957734 
L 593.088711 158.173975 
L 593.355697 158.086463 
L 593.622682 158.335944 
L 594.156654 158.158665 
L 594.423639 158.218491 
L 594.957611 158.101603 
L 595.491582 158.155686 
L 595.758568 158.283107 
L 596.292539 158.241061 
L 596.82651 158.562617 
L 597.093496 158.29635 
L 597.894453 158.111821 
L 598.161438 158.247908 
L 598.428424 158.160399 
L 598.69541 158.567746 
L 598.962395 158.314658 
L 599.229381 158.40682 
L 599.496367 158.802631 
L 599.763352 158.350314 
L 600.030338 158.321737 
L 600.297324 158.093911 
L 600.564309 158.120214 
L 600.831295 157.999021 
L 601.098281 158.026889 
L 601.365266 158.412805 
L 602.433209 158.162366 
L 603.234166 158.405794 
L 603.501151 158.151752 
L 603.768137 158.188082 
L 604.035123 158.089977 
L 604.302108 158.242712 
L 604.569094 158.142021 
L 604.83608 158.390372 
L 605.370051 158.412656 
L 605.637036 158.096092 
L 605.904022 158.25548 
L 606.437993 158.121568 
L 606.704979 158.386141 
L 606.971965 158.172479 
L 607.23895 158.438488 
L 607.772922 158.282356 
L 608.039907 158.346021 
L 608.306893 158.275132 
L 608.573879 158.433918 
L 608.840864 158.423793 
L 609.374836 158.070554 
L 609.641821 158.359387 
L 609.908807 158.242031 
L 610.175792 158.437071 
L 610.709764 158.343158 
L 610.976749 158.025153 
L 611.243735 158.138141 
L 611.510721 157.899362 
L 611.777706 158.154239 
L 612.044692 158.221885 
L 612.311678 157.872003 
L 613.112635 158.212029 
L 613.37962 158.297788 
L 613.646606 158.205791 
L 613.913592 158.249922 
L 614.180577 158.051844 
L 614.447563 158.231774 
L 615.515505 158.0152 
L 616.049477 158.252807 
L 616.316462 158.214959 
L 616.850434 157.785178 
L 617.117419 158.298543 
L 617.384405 158.350622 
L 617.651391 158.072288 
L 617.918376 158.317967 
L 618.185362 158.401579 
L 618.452347 158.052437 
L 618.719333 158.190394 
L 618.986319 158.041829 
L 619.52029 158.192663 
L 619.787276 158.028833 
L 620.054261 158.01966 
L 620.321247 158.290655 
L 620.588233 157.906979 
L 620.855218 158.097424 
L 621.122204 157.945792 
L 621.38919 158.170289 
L 621.656175 157.965395 
L 621.923161 158.155786 
L 622.190147 158.199229 
L 622.457132 158.060751 
L 622.724118 158.328546 
L 622.991103 158.092691 
L 623.525075 158.140336 
L 624.059046 158.323826 
L 624.593017 158.142628 
L 624.860003 158.082686 
L 625.126989 157.802967 
L 625.126989 157.802967 
" clip-path="url(#p7e2cc772ef)" style="fill: none; stroke: #ff7f0e; stroke-width: 1.5; stroke-linecap: square"/>
   </g>
   <g id="patch_3">
    <path d="M 92.490625 308.63625 
L 92.490625 31.43625 
" style="fill: none; stroke: #000000; stroke-width: 0.8; stroke-linejoin: miter; stroke-linecap: square"/>
   </g>
   <g id="patch_4">
    <path d="M 650.490625 308.63625 
L 650.490625 31.43625 
" style="fill: none; stroke: #000000; stroke-width: 0.8; stroke-linejoin: miter; stroke-linecap: square"/>
   </g>
   <g id="patch_5">
    <path d="M 92.490625 308.63625 
L 650.490625 308.63625 
" style="fill: none; stroke: #000000; stroke-width: 0.8; stroke-linejoin: miter; stroke-linecap: square"/>
   </g>
   <g id="patch_6">
    <path d="M 92.490625 31.43625 
L 650.490625 31.43625 
" style="fill: none; stroke: #000000; stroke-width: 0.8; stroke-linejoin: miter; stroke-linecap: square"/>
   </g>
   <g id="text_14">
    <!-- Generator and Discriminator Loss During Training -->
    <g transform="translate(74.258125 25.43625) scale(0.24 -0.24)">
     <defs>
      <path id="DejaVuSans-47" d="M 3809 666 
L 3809 1919 
L 2778 1919 
L 2778 2438 
L 4434 2438 
L 4434 434 
Q 4069 175 3628 42 
Q 3188 -91 2688 -91 
Q 1594 -91 976 548 
Q 359 1188 359 2328 
Q 359 3472 976 4111 
Q 1594 4750 2688 4750 
Q 3144 4750 3555 4637 
Q 3966 4525 4313 4306 
L 4313 3634 
Q 3963 3931 3569 4081 
Q 3175 4231 2741 4231 
Q 1884 4231 1454 3753 
Q 1025 3275 1025 2328 
Q 1025 1384 1454 906 
Q 1884 428 2741 428 
Q 3075 428 3337 486 
Q 3600 544 3809 666 
z
" transform="scale(0.015625)"/>
      <path id="DejaVuSans-20" transform="scale(0.015625)"/>
      <path id="DejaVuSans-64" d="M 2906 2969 
L 2906 4863 
L 3481 4863 
L 3481 0 
L 2906 0 
L 2906 525 
Q 2725 213 2448 61 
Q 2172 -91 1784 -91 
Q 1150 -91 751 415 
Q 353 922 353 1747 
Q 353 2572 751 3078 
Q 1150 3584 1784 3584 
Q 2172 3584 2448 3432 
Q 2725 3281 2906 2969 
z
M 947 1747 
Q 947 1113 1208 752 
Q 1469 391 1925 391 
Q 2381 391 2643 752 
Q 2906 1113 2906 1747 
Q 2906 2381 2643 2742 
Q 2381 3103 1925 3103 
Q 1469 3103 1208 2742 
Q 947 2381 947 1747 
z
" transform="scale(0.015625)"/>
      <path id="DejaVuSans-44" d="M 1259 4147 
L 1259 519 
L 2022 519 
Q 2988 519 3436 956 
Q 3884 1394 3884 2338 
Q 3884 3275 3436 3711 
Q 2988 4147 2022 4147 
L 1259 4147 
z
M 628 4666 
L 1925 4666 
Q 3281 4666 3915 4102 
Q 4550 3538 4550 2338 
Q 4550 1131 3912 565 
Q 3275 0 1925 0 
L 628 0 
L 628 4666 
z
" transform="scale(0.015625)"/>
      <path id="DejaVuSans-63" d="M 3122 3366 
L 3122 2828 
Q 2878 2963 2633 3030 
Q 2388 3097 2138 3097 
Q 1578 3097 1268 2742 
Q 959 2388 959 1747 
Q 959 1106 1268 751 
Q 1578 397 2138 397 
Q 2388 397 2633 464 
Q 2878 531 3122 666 
L 3122 134 
Q 2881 22 2623 -34 
Q 2366 -91 2075 -91 
Q 1284 -91 818 406 
Q 353 903 353 1747 
Q 353 2603 823 3093 
Q 1294 3584 2113 3584 
Q 2378 3584 2631 3529 
Q 2884 3475 3122 3366 
z
" transform="scale(0.015625)"/>
      <path id="DejaVuSans-6d" d="M 3328 2828 
Q 3544 3216 3844 3400 
Q 4144 3584 4550 3584 
Q 5097 3584 5394 3201 
Q 5691 2819 5691 2113 
L 5691 0 
L 5113 0 
L 5113 2094 
Q 5113 2597 4934 2840 
Q 4756 3084 4391 3084 
Q 3944 3084 3684 2787 
Q 3425 2491 3425 1978 
L 3425 0 
L 2847 0 
L 2847 2094 
Q 2847 2600 2669 2842 
Q 2491 3084 2119 3084 
Q 1678 3084 1418 2786 
Q 1159 2488 1159 1978 
L 1159 0 
L 581 0 
L 581 3500 
L 1159 3500 
L 1159 2956 
Q 1356 3278 1631 3431 
Q 1906 3584 2284 3584 
Q 2666 3584 2933 3390 
Q 3200 3197 3328 2828 
z
" transform="scale(0.015625)"/>
      <path id="DejaVuSans-75" d="M 544 1381 
L 544 3500 
L 1119 3500 
L 1119 1403 
Q 1119 906 1312 657 
Q 1506 409 1894 409 
Q 2359 409 2629 706 
Q 2900 1003 2900 1516 
L 2900 3500 
L 3475 3500 
L 3475 0 
L 2900 0 
L 2900 538 
Q 2691 219 2414 64 
Q 2138 -91 1772 -91 
Q 1169 -91 856 284 
Q 544 659 544 1381 
z
M 1991 3584 
L 1991 3584 
z
" transform="scale(0.015625)"/>
      <path id="DejaVuSans-67" d="M 2906 1791 
Q 2906 2416 2648 2759 
Q 2391 3103 1925 3103 
Q 1463 3103 1205 2759 
Q 947 2416 947 1791 
Q 947 1169 1205 825 
Q 1463 481 1925 481 
Q 2391 481 2648 825 
Q 2906 1169 2906 1791 
z
M 3481 434 
Q 3481 -459 3084 -895 
Q 2688 -1331 1869 -1331 
Q 1566 -1331 1297 -1286 
Q 1028 -1241 775 -1147 
L 775 -588 
Q 1028 -725 1275 -790 
Q 1522 -856 1778 -856 
Q 2344 -856 2625 -561 
Q 2906 -266 2906 331 
L 2906 616 
Q 2728 306 2450 153 
Q 2172 0 1784 0 
Q 1141 0 747 490 
Q 353 981 353 1791 
Q 353 2603 747 3093 
Q 1141 3584 1784 3584 
Q 2172 3584 2450 3431 
Q 2728 3278 2906 2969 
L 2906 3500 
L 3481 3500 
L 3481 434 
z
" transform="scale(0.015625)"/>
      <path id="DejaVuSans-54" d="M -19 4666 
L 3928 4666 
L 3928 4134 
L 2272 4134 
L 2272 0 
L 1638 0 
L 1638 4134 
L -19 4134 
L -19 4666 
z
" transform="scale(0.015625)"/>
     </defs>
     <use xlink:href="#DejaVuSans-47"/>
     <use xlink:href="#DejaVuSans-65" x="77.490234"/>
     <use xlink:href="#DejaVuSans-6e" x="139.013672"/>
     <use xlink:href="#DejaVuSans-65" x="202.392578"/>
     <use xlink:href="#DejaVuSans-72" x="263.916016"/>
     <use xlink:href="#DejaVuSans-61" x="305.029297"/>
     <use xlink:href="#DejaVuSans-74" x="366.308594"/>
     <use xlink:href="#DejaVuSans-6f" x="405.517578"/>
     <use xlink:href="#DejaVuSans-72" x="466.699219"/>
     <use xlink:href="#DejaVuSans-20" x="507.8125"/>
     <use xlink:href="#DejaVuSans-61" x="539.599609"/>
     <use xlink:href="#DejaVuSans-6e" x="600.878906"/>
     <use xlink:href="#DejaVuSans-64" x="664.257812"/>
     <use xlink:href="#DejaVuSans-20" x="727.734375"/>
     <use xlink:href="#DejaVuSans-44" x="759.521484"/>
     <use xlink:href="#DejaVuSans-69" x="836.523438"/>
     <use xlink:href="#DejaVuSans-73" x="864.306641"/>
     <use xlink:href="#DejaVuSans-63" x="916.40625"/>
     <use xlink:href="#DejaVuSans-72" x="971.386719"/>
     <use xlink:href="#DejaVuSans-69" x="1012.5"/>
     <use xlink:href="#DejaVuSans-6d" x="1040.283203"/>
     <use xlink:href="#DejaVuSans-69" x="1137.695312"/>
     <use xlink:href="#DejaVuSans-6e" x="1165.478516"/>
     <use xlink:href="#DejaVuSans-61" x="1228.857422"/>
     <use xlink:href="#DejaVuSans-74" x="1290.136719"/>
     <use xlink:href="#DejaVuSans-6f" x="1329.345703"/>
     <use xlink:href="#DejaVuSans-72" x="1390.527344"/>
     <use xlink:href="#DejaVuSans-20" x="1431.640625"/>
     <use xlink:href="#DejaVuSans-4c" x="1463.427734"/>
     <use xlink:href="#DejaVuSans-6f" x="1517.390625"/>
     <use xlink:href="#DejaVuSans-73" x="1578.572266"/>
     <use xlink:href="#DejaVuSans-73" x="1630.671875"/>
     <use xlink:href="#DejaVuSans-20" x="1682.771484"/>
     <use xlink:href="#DejaVuSans-44" x="1714.558594"/>
     <use xlink:href="#DejaVuSans-75" x="1791.560547"/>
     <use xlink:href="#DejaVuSans-72" x="1854.939453"/>
     <use xlink:href="#DejaVuSans-69" x="1896.052734"/>
     <use xlink:href="#DejaVuSans-6e" x="1923.835938"/>
     <use xlink:href="#DejaVuSans-67" x="1987.214844"/>
     <use xlink:href="#DejaVuSans-20" x="2050.691406"/>
     <use xlink:href="#DejaVuSans-54" x="2082.478516"/>
     <use xlink:href="#DejaVuSans-72" x="2128.8125"/>
     <use xlink:href="#DejaVuSans-61" x="2169.925781"/>
     <use xlink:href="#DejaVuSans-69" x="2231.205078"/>
     <use xlink:href="#DejaVuSans-6e" x="2258.988281"/>
     <use xlink:href="#DejaVuSans-69" x="2322.367188"/>
     <use xlink:href="#DejaVuSans-6e" x="2350.150391"/>
     <use xlink:href="#DejaVuSans-67" x="2413.529297"/>
    </g>
   </g>
   <g id="legend_1">
    <g id="patch_7">
     <path d="M 556.99375 106.14875 
L 636.490625 106.14875 
Q 640.490625 106.14875 640.490625 102.14875 
L 640.490625 45.43625 
Q 640.490625 41.43625 636.490625 41.43625 
L 556.99375 41.43625 
Q 552.99375 41.43625 552.99375 45.43625 
L 552.99375 102.14875 
Q 552.99375 106.14875 556.99375 106.14875 
z
" style="fill: #ffffff; opacity: 0.8; stroke: #cccccc; stroke-linejoin: miter"/>
    </g>
    <g id="line2d_14">
     <path d="M 560.99375 57.633125 
L 580.99375 57.633125 
L 600.99375 57.633125 
" style="fill: none; stroke: #1f77b4; stroke-width: 1.5; stroke-linecap: square"/>
    </g>
    <g id="text_15">
     <!-- G -->
     <g transform="translate(616.99375 64.633125) scale(0.2 -0.2)">
      <use xlink:href="#DejaVuSans-47"/>
     </g>
    </g>
    <g id="line2d_15">
     <path d="M 560.99375 86.989375 
L 580.99375 86.989375 
L 600.99375 86.989375 
" style="fill: none; stroke: #ff7f0e; stroke-width: 1.5; stroke-linecap: square"/>
    </g>
    <g id="text_16">
     <!-- D -->
     <g transform="translate(616.99375 93.989375) scale(0.2 -0.2)">
      <use xlink:href="#DejaVuSans-44"/>
     </g>
    </g>
   </g>
  </g>
 </g>
 <defs>
  <clipPath id="p7e2cc772ef">
   <rect x="92.490625" y="31.43625" width="558" height="277.2"/>
  </clipPath>
 </defs>
</svg>
