<?xml version="1.0" encoding="utf-8" standalone="no"?>
<!DOCTYPE svg PUBLIC "-//W3C//DTD SVG 1.1//EN"
  "http://www.w3.org/Graphics/SVG/1.1/DTD/svg11.dtd">
<svg xmlns:xlink="http://www.w3.org/1999/xlink" width="676.564867pt" height="365.54875pt" viewBox="0 0 676.564867 365.54875" xmlns="http://www.w3.org/2000/svg" version="1.1">
 <metadata>
  <rdf:RDF xmlns:dc="http://purl.org/dc/elements/1.1/" xmlns:cc="http://creativecommons.org/ns#" xmlns:rdf="http://www.w3.org/1999/02/22-rdf-syntax-ns#">
   <cc:Work>
    <dc:type rdf:resource="http://purl.org/dc/dcmitype/StillImage"/>
    <dc:date>2024-02-07T04:40:22.671506</dc:date>
    <dc:format>image/svg+xml</dc:format>
    <dc:creator>
     <cc:Agent>
      <dc:title>Matplotlib v3.7.2, https://matplotlib.org/</dc:title>
     </cc:Agent>
    </dc:creator>
   </cc:Work>
  </rdf:RDF>
 </metadata>
 <defs>
  <style type="text/css">*{stroke-linejoin: round; stroke-linecap: butt}</style>
 </defs>
 <g id="figure_1">
  <g id="patch_1">
   <path d="M 0 365.54875 
L 676.564867 365.54875 
L 676.564867 -0 
L 0 -0 
z
" style="fill: #ffffff"/>
  </g>
  <g id="axes_1">
   <g id="patch_2">
    <path d="M 92.490625 308.63625 
L 650.490625 308.63625 
L 650.490625 31.43625 
L 92.490625 31.43625 
z
" style="fill: #ffffff"/>
   </g>
   <g id="matplotlib.axis_1">
    <g id="xtick_1">
     <g id="line2d_1">
      <defs>
       <path id="m0da37f984e" d="M 0 0 
L 0 3.5 
" style="stroke: #000000; stroke-width: 0.8"/>
      </defs>
      <g>
       <use xlink:href="#m0da37f984e" x="117.854261" y="308.63625" style="stroke: #000000; stroke-width: 0.8"/>
      </g>
     </g>
     <g id="text_1">
      <!-- 0 -->
      <g transform="translate(111.491761 330.833125) scale(0.2 -0.2)">
       <defs>
        <path id="DejaVuSans-30" d="M 2034 4250 
Q 1547 4250 1301 3770 
Q 1056 3291 1056 2328 
Q 1056 1369 1301 889 
Q 1547 409 2034 409 
Q 2525 409 2770 889 
Q 3016 1369 3016 2328 
Q 3016 3291 2770 3770 
Q 2525 4250 2034 4250 
z
M 2034 4750 
Q 2819 4750 3233 4129 
Q 3647 3509 3647 2328 
Q 3647 1150 3233 529 
Q 2819 -91 2034 -91 
Q 1250 -91 836 529 
Q 422 1150 422 2328 
Q 422 3509 836 4129 
Q 1250 4750 2034 4750 
z
" transform="scale(0.015625)"/>
       </defs>
       <use xlink:href="#DejaVuSans-30"/>
      </g>
     </g>
    </g>
    <g id="xtick_2">
     <g id="line2d_2">
      <g>
       <use xlink:href="#m0da37f984e" x="193.005777" y="308.63625" style="stroke: #000000; stroke-width: 0.8"/>
      </g>
     </g>
     <g id="text_2">
      <!-- 200 -->
      <g transform="translate(173.918277 330.833125) scale(0.2 -0.2)">
       <defs>
        <path id="DejaVuSans-32" d="M 1228 531 
L 3431 531 
L 3431 0 
L 469 0 
L 469 531 
Q 828 903 1448 1529 
Q 2069 2156 2228 2338 
Q 2531 2678 2651 2914 
Q 2772 3150 2772 3378 
Q 2772 3750 2511 3984 
Q 2250 4219 1831 4219 
Q 1534 4219 1204 4116 
Q 875 4013 500 3803 
L 500 4441 
Q 881 4594 1212 4672 
Q 1544 4750 1819 4750 
Q 2544 4750 2975 4387 
Q 3406 4025 3406 3419 
Q 3406 3131 3298 2873 
Q 3191 2616 2906 2266 
Q 2828 2175 2409 1742 
Q 1991 1309 1228 531 
z
" transform="scale(0.015625)"/>
       </defs>
       <use xlink:href="#DejaVuSans-32"/>
       <use xlink:href="#DejaVuSans-30" x="63.623047"/>
       <use xlink:href="#DejaVuSans-30" x="127.246094"/>
      </g>
     </g>
    </g>
    <g id="xtick_3">
     <g id="line2d_3">
      <g>
       <use xlink:href="#m0da37f984e" x="268.157292" y="308.63625" style="stroke: #000000; stroke-width: 0.8"/>
      </g>
     </g>
     <g id="text_3">
      <!-- 400 -->
      <g transform="translate(249.069792 330.833125) scale(0.2 -0.2)">
       <defs>
        <path id="DejaVuSans-34" d="M 2419 4116 
L 825 1625 
L 2419 1625 
L 2419 4116 
z
M 2253 4666 
L 3047 4666 
L 3047 1625 
L 3713 1625 
L 3713 1100 
L 3047 1100 
L 3047 0 
L 2419 0 
L 2419 1100 
L 313 1100 
L 313 1709 
L 2253 4666 
z
" transform="scale(0.015625)"/>
       </defs>
       <use xlink:href="#DejaVuSans-34"/>
       <use xlink:href="#DejaVuSans-30" x="63.623047"/>
       <use xlink:href="#DejaVuSans-30" x="127.246094"/>
      </g>
     </g>
    </g>
    <g id="xtick_4">
     <g id="line2d_4">
      <g>
       <use xlink:href="#m0da37f984e" x="343.308807" y="308.63625" style="stroke: #000000; stroke-width: 0.8"/>
      </g>
     </g>
     <g id="text_4">
      <!-- 600 -->
      <g transform="translate(324.221307 330.833125) scale(0.2 -0.2)">
       <defs>
        <path id="DejaVuSans-36" d="M 2113 2584 
Q 1688 2584 1439 2293 
Q 1191 2003 1191 1497 
Q 1191 994 1439 701 
Q 1688 409 2113 409 
Q 2538 409 2786 701 
Q 3034 994 3034 1497 
Q 3034 2003 2786 2293 
Q 2538 2584 2113 2584 
z
M 3366 4563 
L 3366 3988 
Q 3128 4100 2886 4159 
Q 2644 4219 2406 4219 
Q 1781 4219 1451 3797 
Q 1122 3375 1075 2522 
Q 1259 2794 1537 2939 
Q 1816 3084 2150 3084 
Q 2853 3084 3261 2657 
Q 3669 2231 3669 1497 
Q 3669 778 3244 343 
Q 2819 -91 2113 -91 
Q 1303 -91 875 529 
Q 447 1150 447 2328 
Q 447 3434 972 4092 
Q 1497 4750 2381 4750 
Q 2619 4750 2861 4703 
Q 3103 4656 3366 4563 
z
" transform="scale(0.015625)"/>
       </defs>
       <use xlink:href="#DejaVuSans-36"/>
       <use xlink:href="#DejaVuSans-30" x="63.623047"/>
       <use xlink:href="#DejaVuSans-30" x="127.246094"/>
      </g>
     </g>
    </g>
    <g id="xtick_5">
     <g id="line2d_5">
      <g>
       <use xlink:href="#m0da37f984e" x="418.460322" y="308.63625" style="stroke: #000000; stroke-width: 0.8"/>
      </g>
     </g>
     <g id="text_5">
      <!-- 800 -->
      <g transform="translate(399.372822 330.833125) scale(0.2 -0.2)">
       <defs>
        <path id="DejaVuSans-38" d="M 2034 2216 
Q 1584 2216 1326 1975 
Q 1069 1734 1069 1313 
Q 1069 891 1326 650 
Q 1584 409 2034 409 
Q 2484 409 2743 651 
Q 3003 894 3003 1313 
Q 3003 1734 2745 1975 
Q 2488 2216 2034 2216 
z
M 1403 2484 
Q 997 2584 770 2862 
Q 544 3141 544 3541 
Q 544 4100 942 4425 
Q 1341 4750 2034 4750 
Q 2731 4750 3128 4425 
Q 3525 4100 3525 3541 
Q 3525 3141 3298 2862 
Q 3072 2584 2669 2484 
Q 3125 2378 3379 2068 
Q 3634 1759 3634 1313 
Q 3634 634 3220 271 
Q 2806 -91 2034 -91 
Q 1263 -91 848 271 
Q 434 634 434 1313 
Q 434 1759 690 2068 
Q 947 2378 1403 2484 
z
M 1172 3481 
Q 1172 3119 1398 2916 
Q 1625 2713 2034 2713 
Q 2441 2713 2670 2916 
Q 2900 3119 2900 3481 
Q 2900 3844 2670 4047 
Q 2441 4250 2034 4250 
Q 1625 4250 1398 4047 
Q 1172 3844 1172 3481 
z
" transform="scale(0.015625)"/>
       </defs>
       <use xlink:href="#DejaVuSans-38"/>
       <use xlink:href="#DejaVuSans-30" x="63.623047"/>
       <use xlink:href="#DejaVuSans-30" x="127.246094"/>
      </g>
     </g>
    </g>
    <g id="xtick_6">
     <g id="line2d_6">
      <g>
       <use xlink:href="#m0da37f984e" x="493.611837" y="308.63625" style="stroke: #000000; stroke-width: 0.8"/>
      </g>
     </g>
     <g id="text_6">
      <!-- 1000 -->
      <g transform="translate(468.161837 330.833125) scale(0.2 -0.2)">
       <defs>
        <path id="DejaVuSans-31" d="M 794 531 
L 1825 531 
L 1825 4091 
L 703 3866 
L 703 4441 
L 1819 4666 
L 2450 4666 
L 2450 531 
L 3481 531 
L 3481 0 
L 794 0 
L 794 531 
z
" transform="scale(0.015625)"/>
       </defs>
       <use xlink:href="#DejaVuSans-31"/>
       <use xlink:href="#DejaVuSans-30" x="63.623047"/>
       <use xlink:href="#DejaVuSans-30" x="127.246094"/>
       <use xlink:href="#DejaVuSans-30" x="190.869141"/>
      </g>
     </g>
    </g>
    <g id="xtick_7">
     <g id="line2d_7">
      <g>
       <use xlink:href="#m0da37f984e" x="568.763352" y="308.63625" style="stroke: #000000; stroke-width: 0.8"/>
      </g>
     </g>
     <g id="text_7">
      <!-- 1200 -->
      <g transform="translate(543.313352 330.833125) scale(0.2 -0.2)">
       <use xlink:href="#DejaVuSans-31"/>
       <use xlink:href="#DejaVuSans-32" x="63.623047"/>
       <use xlink:href="#DejaVuSans-30" x="127.246094"/>
       <use xlink:href="#DejaVuSans-30" x="190.869141"/>
      </g>
     </g>
    </g>
    <g id="xtick_8">
     <g id="line2d_8">
      <g>
       <use xlink:href="#m0da37f984e" x="643.914867" y="308.63625" style="stroke: #000000; stroke-width: 0.8"/>
      </g>
     </g>
     <g id="text_8">
      <!-- 1400 -->
      <g transform="translate(618.464867 330.833125) scale(0.2 -0.2)">
       <use xlink:href="#DejaVuSans-31"/>
       <use xlink:href="#DejaVuSans-34" x="63.623047"/>
       <use xlink:href="#DejaVuSans-30" x="127.246094"/>
       <use xlink:href="#DejaVuSans-30" x="190.869141"/>
      </g>
     </g>
    </g>
    <g id="text_9">
     <!-- iterations -->
     <g transform="translate(324.035938 354.189375) scale(0.2 -0.2)">
      <defs>
       <path id="DejaVuSans-69" d="M 603 3500 
L 1178 3500 
L 1178 0 
L 603 0 
L 603 3500 
z
M 603 4863 
L 1178 4863 
L 1178 4134 
L 603 4134 
L 603 4863 
z
" transform="scale(0.015625)"/>
       <path id="DejaVuSans-74" d="M 1172 4494 
L 1172 3500 
L 2356 3500 
L 2356 3053 
L 1172 3053 
L 1172 1153 
Q 1172 725 1289 603 
Q 1406 481 1766 481 
L 2356 481 
L 2356 0 
L 1766 0 
Q 1100 0 847 248 
Q 594 497 594 1153 
L 594 3053 
L 172 3053 
L 172 3500 
L 594 3500 
L 594 4494 
L 1172 4494 
z
" transform="scale(0.015625)"/>
       <path id="DejaVuSans-65" d="M 3597 1894 
L 3597 1613 
L 953 1613 
Q 991 1019 1311 708 
Q 1631 397 2203 397 
Q 2534 397 2845 478 
Q 3156 559 3463 722 
L 3463 178 
Q 3153 47 2828 -22 
Q 2503 -91 2169 -91 
Q 1331 -91 842 396 
Q 353 884 353 1716 
Q 353 2575 817 3079 
Q 1281 3584 2069 3584 
Q 2775 3584 3186 3129 
Q 3597 2675 3597 1894 
z
M 3022 2063 
Q 3016 2534 2758 2815 
Q 2500 3097 2075 3097 
Q 1594 3097 1305 2825 
Q 1016 2553 972 2059 
L 3022 2063 
z
" transform="scale(0.015625)"/>
       <path id="DejaVuSans-72" d="M 2631 2963 
Q 2534 3019 2420 3045 
Q 2306 3072 2169 3072 
Q 1681 3072 1420 2755 
Q 1159 2438 1159 1844 
L 1159 0 
L 581 0 
L 581 3500 
L 1159 3500 
L 1159 2956 
Q 1341 3275 1631 3429 
Q 1922 3584 2338 3584 
Q 2397 3584 2469 3576 
Q 2541 3569 2628 3553 
L 2631 2963 
z
" transform="scale(0.015625)"/>
       <path id="DejaVuSans-61" d="M 2194 1759 
Q 1497 1759 1228 1600 
Q 959 1441 959 1056 
Q 959 750 1161 570 
Q 1363 391 1709 391 
Q 2188 391 2477 730 
Q 2766 1069 2766 1631 
L 2766 1759 
L 2194 1759 
z
M 3341 1997 
L 3341 0 
L 2766 0 
L 2766 531 
Q 2569 213 2275 61 
Q 1981 -91 1556 -91 
Q 1019 -91 701 211 
Q 384 513 384 1019 
Q 384 1609 779 1909 
Q 1175 2209 1959 2209 
L 2766 2209 
L 2766 2266 
Q 2766 2663 2505 2880 
Q 2244 3097 1772 3097 
Q 1472 3097 1187 3025 
Q 903 2953 641 2809 
L 641 3341 
Q 956 3463 1253 3523 
Q 1550 3584 1831 3584 
Q 2591 3584 2966 3190 
Q 3341 2797 3341 1997 
z
" transform="scale(0.015625)"/>
       <path id="DejaVuSans-6f" d="M 1959 3097 
Q 1497 3097 1228 2736 
Q 959 2375 959 1747 
Q 959 1119 1226 758 
Q 1494 397 1959 397 
Q 2419 397 2687 759 
Q 2956 1122 2956 1747 
Q 2956 2369 2687 2733 
Q 2419 3097 1959 3097 
z
M 1959 3584 
Q 2709 3584 3137 3096 
Q 3566 2609 3566 1747 
Q 3566 888 3137 398 
Q 2709 -91 1959 -91 
Q 1206 -91 779 398 
Q 353 888 353 1747 
Q 353 2609 779 3096 
Q 1206 3584 1959 3584 
z
" transform="scale(0.015625)"/>
       <path id="DejaVuSans-6e" d="M 3513 2113 
L 3513 0 
L 2938 0 
L 2938 2094 
Q 2938 2591 2744 2837 
Q 2550 3084 2163 3084 
Q 1697 3084 1428 2787 
Q 1159 2491 1159 1978 
L 1159 0 
L 581 0 
L 581 3500 
L 1159 3500 
L 1159 2956 
Q 1366 3272 1645 3428 
Q 1925 3584 2291 3584 
Q 2894 3584 3203 3211 
Q 3513 2838 3513 2113 
z
" transform="scale(0.015625)"/>
       <path id="DejaVuSans-73" d="M 2834 3397 
L 2834 2853 
Q 2591 2978 2328 3040 
Q 2066 3103 1784 3103 
Q 1356 3103 1142 2972 
Q 928 2841 928 2578 
Q 928 2378 1081 2264 
Q 1234 2150 1697 2047 
L 1894 2003 
Q 2506 1872 2764 1633 
Q 3022 1394 3022 966 
Q 3022 478 2636 193 
Q 2250 -91 1575 -91 
Q 1294 -91 989 -36 
Q 684 19 347 128 
L 347 722 
Q 666 556 975 473 
Q 1284 391 1588 391 
Q 1994 391 2212 530 
Q 2431 669 2431 922 
Q 2431 1156 2273 1281 
Q 2116 1406 1581 1522 
L 1381 1569 
Q 847 1681 609 1914 
Q 372 2147 372 2553 
Q 372 3047 722 3315 
Q 1072 3584 1716 3584 
Q 2034 3584 2315 3537 
Q 2597 3491 2834 3397 
z
" transform="scale(0.015625)"/>
      </defs>
      <use xlink:href="#DejaVuSans-69"/>
      <use xlink:href="#DejaVuSans-74" x="27.783203"/>
      <use xlink:href="#DejaVuSans-65" x="66.992188"/>
      <use xlink:href="#DejaVuSans-72" x="128.515625"/>
      <use xlink:href="#DejaVuSans-61" x="169.628906"/>
      <use xlink:href="#DejaVuSans-74" x="230.908203"/>
      <use xlink:href="#DejaVuSans-69" x="270.117188"/>
      <use xlink:href="#DejaVuSans-6f" x="297.900391"/>
      <use xlink:href="#DejaVuSans-6e" x="359.082031"/>
      <use xlink:href="#DejaVuSans-73" x="422.460938"/>
     </g>
    </g>
   </g>
   <g id="matplotlib.axis_2">
    <g id="ytick_1">
     <g id="line2d_9">
      <defs>
       <path id="m88337c8710" d="M 0 0 
L -3.5 0 
" style="stroke: #000000; stroke-width: 0.8"/>
      </defs>
      <g>
       <use xlink:href="#m88337c8710" x="92.490625" y="308.301222" style="stroke: #000000; stroke-width: 0.8"/>
      </g>
     </g>
     <g id="text_10">
      <!-- −400 -->
      <g transform="translate(30.55625 315.89966) scale(0.2 -0.2)">
       <defs>
        <path id="DejaVuSans-2212" d="M 678 2272 
L 4684 2272 
L 4684 1741 
L 678 1741 
L 678 2272 
z
" transform="scale(0.015625)"/>
       </defs>
       <use xlink:href="#DejaVuSans-2212"/>
       <use xlink:href="#DejaVuSans-34" x="83.789062"/>
       <use xlink:href="#DejaVuSans-30" x="147.412109"/>
       <use xlink:href="#DejaVuSans-30" x="211.035156"/>
      </g>
     </g>
    </g>
    <g id="ytick_2">
     <g id="line2d_10">
      <g>
       <use xlink:href="#m88337c8710" x="92.490625" y="216.520244" style="stroke: #000000; stroke-width: 0.8"/>
      </g>
     </g>
     <g id="text_11">
      <!-- −200 -->
      <g transform="translate(30.55625 224.118682) scale(0.2 -0.2)">
       <use xlink:href="#DejaVuSans-2212"/>
       <use xlink:href="#DejaVuSans-32" x="83.789062"/>
       <use xlink:href="#DejaVuSans-30" x="147.412109"/>
       <use xlink:href="#DejaVuSans-30" x="211.035156"/>
      </g>
     </g>
    </g>
    <g id="ytick_3">
     <g id="line2d_11">
      <g>
       <use xlink:href="#m88337c8710" x="92.490625" y="124.739266" style="stroke: #000000; stroke-width: 0.8"/>
      </g>
     </g>
     <g id="text_12">
      <!-- 0 -->
      <g transform="translate(72.765625 132.337703) scale(0.2 -0.2)">
       <use xlink:href="#DejaVuSans-30"/>
      </g>
     </g>
    </g>
    <g id="ytick_4">
     <g id="line2d_12">
      <g>
       <use xlink:href="#m88337c8710" x="92.490625" y="32.958288" style="stroke: #000000; stroke-width: 0.8"/>
      </g>
     </g>
     <g id="text_13">
      <!-- 200 -->
      <g transform="translate(47.315625 40.556725) scale(0.2 -0.2)">
       <use xlink:href="#DejaVuSans-32"/>
       <use xlink:href="#DejaVuSans-30" x="63.623047"/>
       <use xlink:href="#DejaVuSans-30" x="127.246094"/>
      </g>
     </g>
    </g>
    <g id="text_14">
     <!-- Loss -->
     <g transform="translate(22.396875 191.970625) rotate(-90) scale(0.2 -0.2)">
      <defs>
       <path id="DejaVuSans-4c" d="M 628 4666 
L 1259 4666 
L 1259 531 
L 3531 531 
L 3531 0 
L 628 0 
L 628 4666 
z
" transform="scale(0.015625)"/>
      </defs>
      <use xlink:href="#DejaVuSans-4c"/>
      <use xlink:href="#DejaVuSans-6f" x="53.962891"/>
      <use xlink:href="#DejaVuSans-73" x="115.144531"/>
      <use xlink:href="#DejaVuSans-73" x="167.244141"/>
     </g>
    </g>
   </g>
   <g id="line2d_13">
    <path d="M 117.854261 68.010133 
L 118.230019 44.03625 
L 118.605777 82.894351 
L 118.981534 135.352713 
L 119.357292 149.038488 
L 119.733049 131.291508 
L 120.108807 102.480738 
L 120.484564 114.663802 
L 120.860322 109.036371 
L 121.23608 138.147454 
L 121.611837 138.134175 
L 122.363352 115.734088 
L 122.73911 94.696244 
L 123.490625 139.285864 
L 123.866383 148.794628 
L 124.617898 156.877753 
L 124.993655 83.249261 
L 125.369413 75.174256 
L 125.74517 90.472575 
L 126.120928 116.457012 
L 126.496686 96.256189 
L 126.872443 94.259751 
L 127.248201 95.075452 
L 127.623958 105.7445 
L 127.999716 103.501109 
L 128.375473 98.938048 
L 128.751231 98.781496 
L 129.126989 115.658893 
L 129.502746 104.793282 
L 129.878504 107.674873 
L 130.254261 115.096063 
L 130.630019 112.159413 
L 131.381534 104.28473 
L 131.757292 96.706982 
L 132.133049 93.680446 
L 132.508807 98.193758 
L 132.884564 106.085946 
L 133.260322 105.036287 
L 133.63608 102.32328 
L 134.011837 103.945881 
L 134.387595 99.317411 
L 134.763352 110.564882 
L 135.13911 112.307272 
L 135.514867 111.665537 
L 135.890625 108.167608 
L 136.266383 111.994753 
L 136.64214 117.502876 
L 137.017898 119.774341 
L 137.393655 119.367335 
L 137.769413 113.051816 
L 138.14517 123.794414 
L 138.520928 123.121725 
L 138.896686 116.751972 
L 139.272443 119.486809 
L 139.648201 125.7908 
L 140.023958 120.97786 
L 140.399716 122.459209 
L 140.775473 119.601567 
L 141.151231 123.368147 
L 141.526989 125.26741 
L 141.902746 126.254064 
L 142.654261 123.83292 
L 143.030019 125.066543 
L 143.405777 124.405088 
L 143.781534 124.342819 
L 144.157292 129.684678 
L 144.908807 122.440892 
L 145.284564 125.291613 
L 145.660322 126.638633 
L 146.03608 127.489029 
L 146.411837 124.104561 
L 146.787595 127.006761 
L 147.163352 124.634792 
L 147.53911 130.008476 
L 147.914867 132.148012 
L 148.290625 129.332871 
L 148.666383 130.19862 
L 149.04214 128.532356 
L 149.417898 130.615072 
L 149.793655 129.75035 
L 150.169413 131.974644 
L 150.54517 133.042215 
L 150.920928 130.869486 
L 151.296686 131.244071 
L 152.048201 129.485777 
L 152.423958 131.902921 
L 152.799716 130.300497 
L 153.175473 132.787354 
L 153.551231 130.1042 
L 153.926989 132.296661 
L 154.302746 128.828173 
L 155.054261 133.624985 
L 155.430019 133.67938 
L 155.805777 132.890623 
L 156.181534 131.166154 
L 156.557292 130.029175 
L 156.933049 136.267329 
L 157.308807 133.171776 
L 157.684564 131.366796 
L 158.060322 131.143967 
L 158.43608 134.254403 
L 158.811837 133.153225 
L 159.187595 135.194366 
L 159.563352 132.960254 
L 160.314867 131.082405 
L 160.690625 132.584999 
L 161.066383 133.28086 
L 161.44214 131.34064 
L 161.817898 128.753412 
L 162.193655 129.527871 
L 162.569413 133.657564 
L 162.94517 133.308306 
L 163.320928 134.759946 
L 164.072443 132.202234 
L 164.448201 132.039851 
L 165.199716 128.292917 
L 165.575473 131.624082 
L 165.951231 132.367101 
L 166.326989 133.574511 
L 166.702746 133.467695 
L 167.078504 132.013518 
L 167.454261 133.775036 
L 168.205777 135.816838 
L 168.581534 134.15553 
L 168.957292 133.039205 
L 169.333049 132.365518 
L 169.708807 130.732202 
L 170.084564 130.422276 
L 170.83608 131.352335 
L 171.211837 130.397482 
L 171.587595 132.385544 
L 171.963352 133.44874 
L 172.33911 130.621022 
L 172.714867 129.915593 
L 173.090625 130.780378 
L 173.466383 130.366748 
L 173.84214 133.018114 
L 174.217898 129.699722 
L 174.593655 128.315437 
L 174.969413 131.243071 
L 175.34517 129.040349 
L 175.720928 129.159144 
L 176.096686 131.657577 
L 176.472443 130.8775 
L 176.848201 132.068264 
L 177.599716 129.381879 
L 177.975473 131.489051 
L 178.351231 132.135005 
L 178.726989 129.520044 
L 179.102746 128.526529 
L 179.478504 128.62714 
L 179.854261 129.507322 
L 180.230019 130.753813 
L 180.605777 131.148931 
L 180.981534 130.542598 
L 181.357292 130.694105 
L 181.733049 129.90088 
L 182.108807 130.887488 
L 182.484564 130.639837 
L 182.860322 129.355283 
L 183.23608 130.364738 
L 183.611837 132.129378 
L 183.987595 131.451921 
L 184.363352 133.778023 
L 184.73911 132.793608 
L 185.114867 132.710615 
L 185.490625 130.760632 
L 185.866383 131.242131 
L 186.24214 132.939387 
L 186.617898 133.68315 
L 186.993655 132.669464 
L 187.74517 132.445423 
L 188.120928 132.99424 
L 188.496686 133.06021 
L 188.872443 133.884776 
L 189.248201 132.891875 
L 189.623958 133.233263 
L 189.999716 133.746225 
L 190.375473 133.738837 
L 190.751231 134.525428 
L 191.126989 135.704528 
L 191.502746 132.744017 
L 191.878504 135.219024 
L 192.254261 135.591216 
L 192.630019 136.432579 
L 193.005777 132.965228 
L 193.381534 134.074961 
L 193.757292 133.540772 
L 194.133049 133.421911 
L 194.508807 135.236827 
L 195.63608 131.970848 
L 196.011837 134.240862 
L 196.387595 134.068398 
L 196.763352 134.936951 
L 197.13911 132.84045 
L 197.514867 131.756121 
L 197.890625 131.859176 
L 198.266383 132.698611 
L 198.64214 132.988609 
L 199.017898 131.533742 
L 199.393655 131.9431 
L 199.769413 132.900108 
L 200.14517 132.248788 
L 200.520928 134.623461 
L 200.896686 132.871426 
L 201.272443 133.638704 
L 201.648201 133.327539 
L 202.023958 131.803134 
L 202.399716 132.483812 
L 202.775473 131.304209 
L 203.151231 132.833603 
L 203.526989 131.565009 
L 203.902746 132.345541 
L 204.278504 132.763423 
L 204.654261 132.03401 
L 205.030019 132.010279 
L 205.405777 131.256279 
L 205.781534 133.787578 
L 206.157292 130.493204 
L 206.533049 130.135762 
L 206.908807 131.669798 
L 207.284564 129.935866 
L 207.660322 131.293905 
L 208.03608 131.094286 
L 208.787595 132.187449 
L 209.53911 131.860606 
L 209.914867 132.639894 
L 210.666383 129.529896 
L 211.04214 132.111943 
L 211.793655 130.58016 
L 212.169413 130.407129 
L 212.54517 130.956694 
L 212.920928 129.941585 
L 213.296686 129.765758 
L 213.672443 130.065677 
L 214.048201 130.203255 
L 214.423958 129.980455 
L 214.799716 130.627125 
L 215.175473 129.133283 
L 215.551231 129.835422 
L 216.302746 129.364363 
L 216.678504 130.856948 
L 217.054261 129.246312 
L 217.430019 129.706363 
L 217.805777 130.420866 
L 218.181534 129.545153 
L 218.557292 130.94038 
L 218.933049 129.371043 
L 219.308807 130.738 
L 219.684564 128.822413 
L 220.060322 130.609681 
L 220.43608 130.102713 
L 221.187595 128.586713 
L 221.563352 129.331779 
L 222.314867 130.013815 
L 222.690625 130.004582 
L 223.066383 129.563682 
L 223.44214 128.277651 
L 223.817898 129.132506 
L 224.193655 129.444018 
L 224.94517 131.421887 
L 225.696686 129.226555 
L 226.072443 128.386728 
L 226.448201 130.002226 
L 226.823958 128.766129 
L 227.199716 129.727915 
L 227.575473 130.295393 
L 228.326989 130.22921 
L 228.702746 129.990359 
L 229.078504 130.146286 
L 229.454261 130.742029 
L 229.830019 130.232945 
L 230.205777 130.335787 
L 230.581534 130.008628 
L 230.957292 129.832388 
L 231.333049 129.938118 
L 231.708807 130.276968 
L 232.084564 129.159825 
L 232.460322 128.427935 
L 232.83608 128.815487 
L 233.211837 128.502613 
L 233.587595 130.018413 
L 233.963352 128.712991 
L 234.33911 129.533333 
L 234.714867 129.687427 
L 235.090625 128.563167 
L 235.466383 128.720108 
L 235.84214 129.560897 
L 236.217898 129.261363 
L 236.593655 129.333281 
L 236.969413 130.124582 
L 237.34517 128.725848 
L 238.096686 128.192742 
L 238.848201 128.481323 
L 239.223958 129.22743 
L 239.599716 129.363656 
L 239.975473 129.292759 
L 240.351231 128.9788 
L 241.102746 128.90032 
L 241.478504 130.108556 
L 241.854261 129.085007 
L 242.605777 128.25835 
L 242.981534 128.582519 
L 243.357292 128.639878 
L 243.733049 127.829148 
L 244.484564 127.621747 
L 244.860322 129.027438 
L 245.23608 128.3083 
L 245.611837 129.060965 
L 245.987595 128.862738 
L 246.363352 128.027623 
L 246.73911 127.590238 
L 247.114867 127.417529 
L 247.490625 128.046032 
L 247.866383 127.509991 
L 248.24214 127.816074 
L 248.617898 127.724732 
L 248.993655 128.205471 
L 249.369413 127.909681 
L 249.74517 128.495895 
L 250.120928 127.306562 
L 250.496686 127.660654 
L 250.872443 127.074124 
L 251.248201 127.464054 
L 251.623958 127.567987 
L 251.999716 127.49324 
L 252.751231 128.934154 
L 253.502746 127.494717 
L 253.878504 127.974081 
L 254.254261 127.963539 
L 254.630019 127.433418 
L 255.005777 128.445598 
L 255.381534 128.005912 
L 256.133049 127.934451 
L 256.508807 127.502908 
L 256.884564 128.276474 
L 257.260322 127.592299 
L 257.63608 127.820724 
L 258.011837 126.41959 
L 258.387595 127.184355 
L 258.763352 128.350894 
L 259.514867 126.478268 
L 259.890625 127.287549 
L 260.64214 127.097101 
L 261.017898 127.943905 
L 261.393655 127.522738 
L 261.769413 127.369173 
L 262.14517 128.15539 
L 262.520928 127.606288 
L 262.896686 128.470277 
L 263.272443 127.53738 
L 263.648201 128.0492 
L 264.023958 127.705244 
L 264.775473 128.758381 
L 265.151231 128.176185 
L 265.526989 128.949204 
L 265.902746 127.88594 
L 266.278504 128.758213 
L 267.030019 127.763718 
L 267.405777 128.040503 
L 267.781534 127.818379 
L 268.157292 128.539413 
L 268.533049 127.909191 
L 268.908807 127.620119 
L 269.284564 128.215233 
L 269.660322 127.871823 
L 270.03608 128.730731 
L 270.411837 127.830667 
L 270.787595 127.973207 
L 271.163352 128.302131 
L 271.53911 128.874641 
L 271.914867 128.730779 
L 272.290625 127.936563 
L 272.666383 128.147492 
L 273.793655 126.865166 
L 274.169413 126.205635 
L 274.54517 127.195389 
L 274.920928 127.405704 
L 275.296686 125.752486 
L 275.672443 127.181242 
L 276.048201 127.621653 
L 276.423958 128.285453 
L 277.175473 127.952824 
L 277.551231 127.320872 
L 277.926989 128.138393 
L 278.302746 127.595705 
L 278.678504 127.777125 
L 279.054261 127.076334 
L 279.430019 128.23788 
L 279.805777 127.355098 
L 280.181534 127.310545 
L 280.557292 127.383422 
L 280.933049 128.051083 
L 281.308807 127.910596 
L 281.684564 127.191374 
L 282.060322 127.862572 
L 282.43608 127.925051 
L 282.811837 128.140637 
L 283.187595 126.966591 
L 283.563352 127.601789 
L 283.93911 127.303259 
L 284.314867 128.020273 
L 284.690625 127.395705 
L 285.44214 127.549729 
L 285.817898 127.240643 
L 286.193655 127.562493 
L 286.569413 127.469046 
L 286.94517 127.017582 
L 287.320928 126.329977 
L 287.696686 123.594003 
L 288.072443 125.641018 
L 288.448201 126.194417 
L 288.823958 127.565289 
L 289.199716 125.926257 
L 289.575473 126.83942 
L 290.326989 127.662776 
L 290.702746 127.0441 
L 291.078504 127.646191 
L 291.454261 126.217146 
L 291.830019 127.246878 
L 292.205777 126.968989 
L 292.581534 127.389283 
L 292.957292 127.366595 
L 293.333049 126.909622 
L 293.708807 126.920462 
L 294.084564 127.869458 
L 294.460322 127.673739 
L 294.83608 128.140586 
L 295.211837 128.296592 
L 295.587595 127.668539 
L 295.963352 127.522494 
L 296.33911 127.864583 
L 296.714867 128.588431 
L 297.090625 128.132745 
L 297.466383 128.535777 
L 298.217898 126.453202 
L 298.969413 127.878267 
L 299.34517 127.473338 
L 300.096686 127.994517 
L 300.472443 127.785176 
L 300.848201 127.876873 
L 301.223958 128.483396 
L 301.599716 128.793588 
L 301.975473 128.220969 
L 302.351231 127.947937 
L 302.726989 128.312831 
L 303.102746 128.854793 
L 303.478504 128.997201 
L 303.854261 129.420327 
L 304.230019 127.991662 
L 304.605777 128.745344 
L 304.981534 128.776292 
L 305.357292 128.306823 
L 306.484564 127.365727 
L 306.860322 128.478041 
L 307.23608 127.867424 
L 307.611837 128.945239 
L 307.987595 127.881041 
L 308.363352 127.1771 
L 308.73911 128.168141 
L 309.114867 126.793318 
L 309.490625 127.978285 
L 309.866383 128.793073 
L 310.24214 128.765525 
L 310.617898 127.131237 
L 310.993655 128.101187 
L 311.74517 127.293432 
L 312.120928 127.158085 
L 312.496686 128.714304 
L 312.872443 128.370978 
L 313.248201 128.486902 
L 313.623958 128.947382 
L 313.999716 128.838007 
L 314.375473 128.260208 
L 314.751231 127.950895 
L 315.126989 126.283135 
L 315.502746 128.140022 
L 316.254261 126.207577 
L 316.630019 127.539877 
L 317.005777 127.357292 
L 317.757292 126.763006 
L 318.133049 127.259967 
L 318.508807 126.996985 
L 318.884564 126.529472 
L 319.63608 127.412347 
L 320.011837 127.049697 
L 320.387595 126.292813 
L 320.763352 126.895689 
L 321.13911 126.452249 
L 321.514867 126.552457 
L 321.890625 125.732269 
L 322.266383 127.180789 
L 322.64214 126.470533 
L 323.017898 128.10307 
L 323.393655 127.623482 
L 323.769413 126.756451 
L 324.14517 126.674386 
L 324.520928 126.430197 
L 324.896686 126.382953 
L 325.272443 126.125891 
L 325.648201 126.832502 
L 326.023958 126.755911 
L 326.399716 127.53797 
L 326.775473 126.623237 
L 327.151231 127.500371 
L 327.526989 127.788318 
L 327.902746 127.217003 
L 328.278504 125.721419 
L 328.654261 127.374596 
L 329.030019 126.931644 
L 329.405777 126.74159 
L 329.781534 127.096731 
L 330.157292 126.733166 
L 330.533049 126.862768 
L 330.908807 127.330305 
L 331.284564 126.593448 
L 331.660322 127.082128 
L 332.03608 126.241215 
L 332.411837 126.633846 
L 332.787595 126.147503 
L 333.163352 126.651037 
L 333.53911 127.735513 
L 334.290625 127.235319 
L 334.666383 126.961516 
L 335.04214 127.437199 
L 335.417898 127.198821 
L 335.793655 128.460895 
L 336.54517 127.468841 
L 337.296686 126.841378 
L 337.672443 128.237104 
L 338.048201 128.194875 
L 338.423958 127.590703 
L 338.799716 128.171441 
L 339.175473 128.288059 
L 339.551231 127.73191 
L 339.926989 125.465954 
L 340.302746 127.135651 
L 340.678504 127.340297 
L 341.054261 127.065755 
L 342.181534 126.838191 
L 342.557292 127.52029 
L 342.933049 127.098561 
L 343.308807 126.969432 
L 343.684564 126.098803 
L 344.060322 126.906418 
L 344.43608 127.215905 
L 344.811837 127.302956 
L 345.187595 127.894747 
L 345.563352 127.955347 
L 345.93911 127.820972 
L 346.690625 127.888876 
L 347.066383 128.066486 
L 347.44214 128.803499 
L 347.817898 128.845657 
L 348.193655 127.944364 
L 348.569413 127.772268 
L 348.94517 127.404629 
L 349.320928 128.84971 
L 349.696686 128.150776 
L 350.448201 128.344491 
L 350.823958 128.322087 
L 351.199716 128.418924 
L 351.575473 129.027839 
L 351.951231 127.744921 
L 352.326989 128.373087 
L 352.702746 128.703798 
L 353.078504 128.760818 
L 353.454261 128.525646 
L 353.830019 127.503979 
L 354.205777 128.062294 
L 354.957292 128.643735 
L 356.084564 128.131017 
L 356.460322 128.268253 
L 356.83608 128.735457 
L 357.211837 128.723364 
L 357.587595 128.321858 
L 357.963352 128.121742 
L 358.33911 128.456856 
L 359.090625 127.55073 
L 359.466383 128.638946 
L 359.84214 127.979961 
L 360.217898 127.939318 
L 360.593655 128.899886 
L 361.720928 128.486266 
L 362.096686 128.134005 
L 362.848201 128.665262 
L 363.223958 128.103499 
L 363.599716 128.333266 
L 363.975473 128.272072 
L 364.351231 128.749882 
L 364.726989 128.50958 
L 365.854261 128.499473 
L 366.605777 127.554026 
L 367.733049 128.884605 
L 368.108807 127.878574 
L 368.484564 128.530693 
L 368.860322 128.326842 
L 369.23608 127.605462 
L 369.611837 128.513567 
L 369.987595 128.938562 
L 370.73911 128.72805 
L 371.114867 128.386151 
L 371.490625 128.783101 
L 371.866383 128.184901 
L 372.617898 128.133105 
L 373.369413 129.568759 
L 373.74517 129.101744 
L 374.120928 128.148939 
L 374.496686 128.871646 
L 374.872443 128.615969 
L 375.248201 129.793413 
L 375.623958 129.034977 
L 375.999716 128.759412 
L 376.375473 128.825487 
L 376.751231 128.702248 
L 377.502746 128.989234 
L 377.878504 129.501328 
L 378.254261 128.900245 
L 378.630019 128.86146 
L 379.005777 129.53309 
L 379.381534 128.054782 
L 379.757292 129.236677 
L 380.133049 129.465643 
L 380.508807 129.964422 
L 380.884564 128.734684 
L 381.260322 128.215194 
L 381.63608 129.03556 
L 382.011837 128.773163 
L 382.387595 129.047373 
L 383.13911 129.044006 
L 383.514867 129.319321 
L 383.890625 128.563791 
L 384.266383 129.011729 
L 384.64214 128.318426 
L 385.017898 128.286183 
L 385.393655 127.138914 
L 385.769413 128.622457 
L 386.14517 128.504327 
L 386.520928 128.592736 
L 386.896686 128.832187 
L 387.648201 129.037423 
L 388.399716 127.809104 
L 388.775473 128.392742 
L 389.151231 127.990917 
L 389.526989 128.813058 
L 389.902746 128.313435 
L 390.278504 128.162896 
L 390.654261 127.789042 
L 391.030019 128.223701 
L 391.405777 128.43314 
L 391.781534 128.489887 
L 392.157292 128.121951 
L 392.533049 127.979753 
L 392.908807 128.462189 
L 393.284564 128.703921 
L 393.660322 127.683583 
L 394.03608 127.67312 
L 394.411837 128.074475 
L 394.787595 127.454904 
L 395.163352 127.970714 
L 395.53911 129.080553 
L 395.914867 129.154413 
L 396.290625 128.514427 
L 396.666383 129.011695 
L 397.04214 128.909241 
L 397.417898 128.977208 
L 397.793655 128.132629 
L 398.169413 128.556288 
L 398.54517 127.716828 
L 398.920928 128.307662 
L 399.296686 128.415071 
L 399.672443 128.86873 
L 400.048201 129.115289 
L 400.423958 128.582988 
L 400.799716 128.590721 
L 401.551231 128.286928 
L 402.302746 128.424822 
L 402.678504 128.333838 
L 403.054261 128.597987 
L 403.430019 127.948214 
L 403.805777 128.183036 
L 404.181534 128.928406 
L 404.557292 128.505044 
L 404.933049 128.977094 
L 405.308807 127.945485 
L 405.684564 128.972658 
L 406.060322 128.971656 
L 406.43608 128.845404 
L 406.811837 129.12386 
L 407.187595 128.708879 
L 407.563352 128.582957 
L 407.93911 127.836887 
L 408.314867 130.04573 
L 408.690625 128.798843 
L 409.066383 129.143693 
L 409.44214 128.329285 
L 409.817898 129.239804 
L 410.193655 128.930261 
L 410.569413 128.951432 
L 410.94517 129.382906 
L 411.320928 129.070555 
L 411.696686 128.082144 
L 412.072443 128.609262 
L 412.823958 128.725486 
L 413.199716 128.285281 
L 413.575473 128.905435 
L 413.951231 128.931916 
L 414.326989 128.470201 
L 414.702746 128.500942 
L 415.078504 128.307246 
L 415.830019 128.803581 
L 416.205777 128.133226 
L 416.957292 127.877252 
L 417.333049 128.187444 
L 417.708807 128.324657 
L 418.084564 128.133732 
L 418.460322 129.491465 
L 418.83608 128.420976 
L 419.211837 128.626047 
L 419.587595 127.814621 
L 420.33911 128.600698 
L 421.090625 127.53657 
L 421.466383 128.289323 
L 422.217898 127.848374 
L 422.593655 128.013614 
L 422.969413 128.374404 
L 423.34517 128.276493 
L 423.720928 127.726133 
L 425.223958 128.123373 
L 425.599716 128.593274 
L 425.975473 128.025183 
L 426.351231 127.879194 
L 426.726989 127.872547 
L 427.102746 127.585772 
L 428.230019 128.033239 
L 428.605777 127.882367 
L 428.981534 128.339916 
L 429.357292 128.303777 
L 429.733049 127.588442 
L 430.108807 127.78635 
L 430.860322 127.472765 
L 431.23608 128.308491 
L 431.611837 127.703087 
L 431.987595 128.154555 
L 432.363352 128.117919 
L 432.73911 127.952047 
L 433.114867 128.172754 
L 433.490625 128.193837 
L 433.866383 127.598257 
L 434.24214 127.688815 
L 434.617898 127.294305 
L 434.993655 127.750466 
L 435.369413 127.921249 
L 435.74517 127.733347 
L 436.120928 127.694063 
L 436.496686 127.786505 
L 436.872443 128.272949 
L 437.248201 127.79188 
L 437.623958 128.087616 
L 437.999716 127.834081 
L 438.751231 128.306809 
L 439.502746 128.167171 
L 439.878504 127.649578 
L 440.254261 128.319063 
L 440.630019 127.208487 
L 441.005777 127.670107 
L 441.381534 128.719482 
L 441.757292 127.621998 
L 442.133049 128.342651 
L 442.508807 127.951814 
L 442.884564 128.124872 
L 443.260322 128.104059 
L 443.63608 128.446385 
L 444.011837 127.959925 
L 444.763352 128.137055 
L 445.13911 128.542693 
L 445.890625 127.845509 
L 446.266383 128.096267 
L 446.64214 128.485013 
L 447.017898 128.309247 
L 447.393655 127.077541 
L 448.14517 127.773553 
L 448.896686 127.545165 
L 449.272443 128.473183 
L 449.648201 128.18567 
L 450.023958 127.167599 
L 451.151231 127.629923 
L 451.526989 127.983582 
L 451.902746 127.646028 
L 452.278504 128.271904 
L 452.654261 127.599941 
L 453.030019 127.737622 
L 453.405777 127.453109 
L 453.781534 127.813961 
L 454.157292 127.507727 
L 454.533049 128.200919 
L 454.908807 128.335249 
L 455.660322 127.612635 
L 456.411837 127.424422 
L 456.787595 127.572679 
L 457.163352 125.891945 
L 457.53911 127.173782 
L 457.914867 127.84229 
L 458.290625 127.952828 
L 459.04214 127.588948 
L 459.417898 128.086194 
L 459.793655 127.791232 
L 460.169413 127.288656 
L 460.54517 127.075581 
L 460.920928 127.47013 
L 461.296686 127.702949 
L 461.672443 127.18889 
L 462.048201 127.915919 
L 462.423958 128.084911 
L 462.799716 127.275617 
L 463.175473 126.949414 
L 463.926989 128.157093 
L 464.678504 127.462313 
L 465.054261 127.990181 
L 465.430019 126.915693 
L 465.805777 127.125149 
L 466.557292 126.893283 
L 466.933049 127.640379 
L 467.308807 127.747758 
L 467.684564 127.703928 
L 468.060322 127.395001 
L 468.43608 126.906893 
L 468.811837 127.338218 
L 469.187595 127.592494 
L 469.563352 127.474913 
L 469.93911 128.158564 
L 470.690625 127.531598 
L 471.066383 127.621877 
L 471.44214 127.910986 
L 471.817898 128.007929 
L 472.569413 127.73232 
L 472.94517 127.46652 
L 473.320928 128.089422 
L 473.696686 127.795202 
L 474.072443 128.47234 
L 474.448201 127.679575 
L 474.823958 127.596604 
L 475.199716 127.763637 
L 475.575473 127.090065 
L 476.326989 127.482469 
L 476.702746 127.251639 
L 477.078504 128.213374 
L 477.454261 127.612115 
L 477.830019 127.494466 
L 478.205777 128.19617 
L 478.957292 127.999238 
L 479.708807 127.48116 
L 480.084564 127.838092 
L 480.460322 127.969765 
L 480.83608 127.679034 
L 481.587595 128.012391 
L 482.33911 127.930562 
L 482.714867 127.672991 
L 483.090625 127.696994 
L 483.466383 128.267994 
L 484.217898 128.452634 
L 484.593655 128.563551 
L 485.720928 128.102766 
L 486.096686 128.409777 
L 486.472443 127.840502 
L 486.848201 128.087208 
L 487.975473 128.496903 
L 488.351231 127.695491 
L 488.726989 127.89008 
L 489.102746 127.845634 
L 489.478504 128.225364 
L 489.854261 128.321429 
L 490.230019 127.718541 
L 490.605777 128.108086 
L 491.357292 127.772109 
L 491.733049 127.695736 
L 492.860322 128.475804 
L 493.23608 127.693832 
L 493.611837 128.277375 
L 493.987595 128.054634 
L 494.363352 127.699902 
L 495.114867 127.697513 
L 495.866383 127.249776 
L 496.24214 127.825069 
L 496.993655 127.047545 
L 497.369413 128.100615 
L 497.74517 126.908696 
L 498.496686 127.965902 
L 498.872443 128.072124 
L 499.248201 127.928944 
L 499.623958 128.081196 
L 500.375473 127.330396 
L 500.751231 127.251411 
L 501.126989 127.555699 
L 501.502746 127.127047 
L 501.878504 127.769072 
L 502.254261 127.279089 
L 502.630019 127.672423 
L 503.005777 127.367881 
L 503.381534 127.344589 
L 503.757292 127.156747 
L 504.133049 127.500759 
L 504.508807 127.564655 
L 504.884564 127.078006 
L 505.63608 127.537489 
L 506.011837 127.75117 
L 506.387595 128.113672 
L 506.763352 127.692191 
L 507.13911 127.492538 
L 507.514867 127.736669 
L 507.890625 127.395651 
L 508.266383 127.238436 
L 508.64214 127.849291 
L 509.017898 127.31017 
L 509.393655 127.920972 
L 510.14517 128.675367 
L 511.272443 127.236561 
L 511.648201 126.894699 
L 512.023958 127.556987 
L 512.399716 127.759698 
L 512.775473 127.041677 
L 513.151231 127.48991 
L 513.526989 126.958709 
L 513.902746 125.827001 
L 514.278504 127.098844 
L 514.654261 127.557037 
L 515.030019 127.071524 
L 515.405777 127.22973 
L 516.157292 126.91431 
L 516.533049 127.55524 
L 516.908807 129.069233 
L 517.284564 127.717443 
L 518.03608 128.541842 
L 518.411837 128.548889 
L 518.787595 128.396757 
L 519.163352 127.394366 
L 519.53911 127.716887 
L 519.914867 127.25978 
L 520.290625 127.431042 
L 520.666383 127.321301 
L 521.04214 128.026349 
L 521.417898 127.820932 
L 522.169413 128.17302 
L 522.54517 127.943062 
L 522.920928 128.49432 
L 523.672443 127.702263 
L 524.048201 128.291246 
L 524.423958 128.103132 
L 524.799716 128.178476 
L 525.175473 127.624702 
L 525.551231 128.316546 
L 525.926989 128.342179 
L 526.302746 128.017746 
L 526.678504 128.074345 
L 527.054261 127.74964 
L 528.181534 127.652277 
L 528.557292 127.220382 
L 528.933049 128.288529 
L 529.684564 127.402581 
L 530.43608 123.871576 
L 530.811837 126.680226 
L 531.187595 128.130099 
L 531.563352 127.744199 
L 531.93911 127.040784 
L 532.314867 126.749992 
L 533.066383 127.715379 
L 533.44214 127.828865 
L 534.193655 126.920697 
L 534.569413 127.91969 
L 534.94517 128.193002 
L 535.320928 127.299768 
L 535.696686 127.504828 
L 536.072443 127.435135 
L 536.448201 127.189371 
L 536.823958 127.73022 
L 537.199716 128.007199 
L 537.575473 127.39641 
L 537.951231 127.337453 
L 538.702746 127.465881 
L 539.078504 127.890897 
L 539.454261 127.582663 
L 539.830019 127.821589 
L 541.333049 127.414752 
L 541.708807 127.682765 
L 542.084564 127.339779 
L 542.460322 127.37472 
L 542.83608 127.24827 
L 543.211837 127.759085 
L 543.587595 127.389256 
L 543.963352 127.923922 
L 544.33911 128.039553 
L 544.714867 127.905366 
L 545.090625 128.788361 
L 545.466383 128.148829 
L 545.84214 128.81063 
L 546.593655 128.183465 
L 546.969413 128.106482 
L 547.720928 128.411687 
L 548.096686 128.340169 
L 548.472443 128.701319 
L 549.223958 128.167492 
L 549.599716 128.671259 
L 550.351231 128.026179 
L 551.102746 127.703185 
L 551.478504 127.975413 
L 551.854261 128.484376 
L 552.230019 128.768287 
L 552.605777 128.676664 
L 552.981534 128.928172 
L 553.357292 127.780946 
L 554.108807 128.691961 
L 554.860322 128.486904 
L 555.23608 129.147189 
L 555.611837 127.697568 
L 555.987595 127.36636 
L 556.363352 127.490537 
L 557.114867 128.456929 
L 557.490625 128.351157 
L 557.866383 127.821503 
L 558.24214 128.440631 
L 558.617898 128.340979 
L 558.993655 127.839542 
L 559.369413 128.183897 
L 559.74517 129.060217 
L 560.120928 128.290644 
L 560.496686 128.277735 
L 560.872443 127.816516 
L 561.248201 128.587264 
L 561.623958 127.712004 
L 561.999716 128.004859 
L 562.375473 127.761841 
L 562.751231 128.279528 
L 563.126989 127.252879 
L 563.502746 127.503452 
L 563.878504 127.943295 
L 564.254261 128.192713 
L 564.630019 127.928758 
L 565.005777 127.880828 
L 565.381534 129.005345 
L 566.133049 128.314704 
L 566.508807 128.335302 
L 566.884564 129.039509 
L 567.260322 128.535691 
L 567.63608 127.711742 
L 568.011837 127.527929 
L 568.387595 128.695724 
L 568.763352 128.391718 
L 569.13911 128.285857 
L 569.514867 127.521842 
L 569.890625 128.146454 
L 570.64214 128.153569 
L 571.017898 127.915116 
L 571.769413 127.82412 
L 572.14517 128.248338 
L 572.520928 127.427978 
L 572.896686 127.806463 
L 573.648201 127.808958 
L 574.023958 128.529429 
L 574.399716 128.409342 
L 574.775473 128.441488 
L 575.151231 127.899427 
L 575.526989 127.574319 
L 575.902746 127.906744 
L 576.278504 127.227745 
L 576.654261 127.370365 
L 577.030019 127.664661 
L 577.405777 127.195707 
L 577.781534 127.622761 
L 578.157292 127.171447 
L 578.533049 127.618761 
L 578.908807 127.396622 
L 579.284564 127.324162 
L 580.03608 128.078178 
L 580.411837 127.275546 
L 580.787595 127.929651 
L 581.163352 128.354406 
L 581.53911 127.521878 
L 581.914867 127.372369 
L 582.290625 127.828269 
L 582.666383 127.796785 
L 583.04214 127.91206 
L 584.169413 127.244399 
L 584.920928 127.895099 
L 585.296686 127.259501 
L 586.048201 127.457416 
L 586.423958 128.246715 
L 587.175473 128.080434 
L 587.551231 128.753653 
L 587.926989 127.414704 
L 588.302746 127.660818 
L 588.678504 127.596838 
L 589.054261 126.233061 
L 589.430019 128.164397 
L 589.805777 129.201337 
L 590.181534 127.821293 
L 590.557292 127.659072 
L 590.933049 127.259164 
L 591.308807 128.498016 
L 591.684564 128.274423 
L 592.43608 128.387314 
L 593.187595 128.0139 
L 593.563352 128.288109 
L 593.93911 128.100486 
L 594.314867 127.543495 
L 594.690625 128.456858 
L 595.066383 128.276029 
L 595.817898 127.376279 
L 596.193655 127.881526 
L 596.569413 127.566609 
L 596.94517 128.504799 
L 597.320928 127.864722 
L 597.696686 127.969611 
L 598.072443 128.192948 
L 598.823958 128.960918 
L 599.199716 127.85642 
L 599.575473 128.530704 
L 600.326989 128.083977 
L 600.702746 128.089811 
L 601.078504 128.486558 
L 601.454261 128.083245 
L 601.830019 128.52183 
L 602.205777 128.587141 
L 602.581534 127.399609 
L 602.957292 128.622225 
L 603.333049 127.814139 
L 604.084564 128.590027 
L 604.83608 127.824774 
L 605.211837 127.855236 
L 605.587595 128.598182 
L 605.963352 128.623991 
L 606.33911 127.687831 
L 606.714867 127.747095 
L 607.090625 127.618251 
L 607.466383 128.141055 
L 607.84214 128.053699 
L 608.217898 128.260007 
L 608.593655 128.237809 
L 608.969413 127.535737 
L 609.34517 127.211983 
L 609.720928 127.965842 
L 610.096686 128.21168 
L 610.472443 127.657311 
L 610.848201 127.617504 
L 611.223958 127.145944 
L 611.599716 127.927584 
L 611.975473 128.00687 
L 612.351231 127.647086 
L 612.726989 127.7914 
L 613.478504 127.757008 
L 613.854261 128.347961 
L 614.230019 127.746569 
L 614.605777 128.747922 
L 614.981534 127.807395 
L 615.357292 127.828644 
L 616.484564 127.345033 
L 617.611837 127.573485 
L 617.987595 127.272746 
L 618.73911 127.486279 
L 619.114867 127.621594 
L 619.490625 127.985695 
L 619.866383 127.000644 
L 620.617898 128.093939 
L 620.993655 127.937176 
L 621.369413 127.594697 
L 621.74517 127.723237 
L 622.120928 127.677483 
L 622.496686 126.356551 
L 622.872443 128.018713 
L 623.248201 127.988109 
L 623.623958 127.585085 
L 623.999716 127.359695 
L 624.375473 127.810998 
L 624.751231 127.604988 
L 625.126989 126.895483 
L 625.126989 126.895483 
" clip-path="url(#p3940a82f5d)" style="fill: none; stroke: #1f77b4; stroke-width: 1.5; stroke-linecap: square"/>
   </g>
   <g id="line2d_14">
    <path d="M 117.854261 272.296377 
L 118.230019 296.03625 
L 118.605777 264.026086 
L 118.981534 207.799987 
L 119.357292 243.066594 
L 119.733049 193.629605 
L 120.108807 187.417065 
L 120.484564 175.612571 
L 120.860322 188.708502 
L 121.23608 182.468813 
L 121.987595 163.200798 
L 122.363352 165.079255 
L 122.73911 164.641227 
L 123.114867 164.583714 
L 123.490625 170.878139 
L 123.866383 192.699071 
L 124.24214 175.336276 
L 124.617898 168.049861 
L 124.993655 151.28019 
L 125.369413 159.248282 
L 125.74517 146.28808 
L 126.120928 140.901759 
L 126.496686 145.551194 
L 126.872443 142.666678 
L 127.248201 143.648375 
L 127.623958 145.606527 
L 127.999716 140.852092 
L 128.375473 145.328446 
L 128.751231 143.822301 
L 129.126989 139.007021 
L 129.502746 137.082641 
L 129.878504 136.292485 
L 130.254261 134.505795 
L 130.630019 136.254305 
L 131.005777 137.319965 
L 131.381534 137.857859 
L 131.757292 137.248942 
L 132.133049 137.370009 
L 132.508807 140.140774 
L 132.884564 136.559143 
L 133.260322 136.20536 
L 133.63608 136.796645 
L 134.011837 135.641941 
L 134.387595 138.298132 
L 134.763352 136.548575 
L 135.13911 138.086089 
L 135.514867 137.093049 
L 135.890625 139.686466 
L 136.266383 134.660049 
L 136.64214 136.760201 
L 137.017898 136.928963 
L 137.393655 137.545384 
L 138.14517 135.145935 
L 138.896686 138.556555 
L 139.272443 138.551237 
L 139.648201 137.30024 
L 140.023958 134.618055 
L 140.399716 136.359067 
L 140.775473 135.329998 
L 141.526989 134.580303 
L 141.902746 133.586949 
L 142.278504 134.311701 
L 142.654261 134.512647 
L 143.030019 134.178027 
L 143.405777 133.276789 
L 143.781534 134.796104 
L 144.157292 135.5698 
L 144.533049 133.398496 
L 144.908807 134.94464 
L 145.660322 136.023794 
L 146.03608 134.271671 
L 146.411837 133.52041 
L 146.787595 134.134421 
L 147.163352 134.354601 
L 147.53911 134.101571 
L 147.914867 134.851017 
L 148.290625 135.281328 
L 149.04214 133.753552 
L 149.417898 134.350299 
L 149.793655 134.197715 
L 150.169413 135.957243 
L 150.54517 133.746004 
L 150.920928 134.598264 
L 151.296686 133.655918 
L 151.672443 134.480093 
L 152.048201 134.348458 
L 152.423958 134.696788 
L 152.799716 133.512672 
L 153.175473 135.221075 
L 153.551231 133.730723 
L 153.926989 134.529465 
L 154.302746 132.370661 
L 155.054261 134.572126 
L 155.430019 134.072371 
L 155.805777 134.627531 
L 156.181534 133.686821 
L 156.557292 135.793761 
L 156.933049 136.798164 
L 157.308807 135.970146 
L 157.684564 136.020147 
L 158.43608 133.937679 
L 158.811837 133.883375 
L 159.187595 135.783679 
L 159.563352 134.246771 
L 159.93911 134.67069 
L 160.314867 133.787839 
L 160.690625 133.98603 
L 161.066383 133.749291 
L 161.44214 134.937766 
L 161.817898 133.590693 
L 162.193655 133.948955 
L 162.94517 135.163464 
L 163.320928 135.250225 
L 163.696686 133.417657 
L 164.072443 134.83951 
L 164.448201 134.042226 
L 164.823958 133.857755 
L 165.199716 132.744474 
L 165.575473 133.127158 
L 165.951231 133.733979 
L 166.702746 132.540356 
L 167.078504 132.381644 
L 167.454261 133.468012 
L 167.830019 132.89523 
L 168.205777 133.132457 
L 168.581534 133.054752 
L 168.957292 134.444325 
L 169.333049 134.492291 
L 169.708807 132.703812 
L 170.084564 132.803628 
L 170.460322 132.034225 
L 170.83608 131.855089 
L 171.211837 132.523579 
L 171.587595 133.899917 
L 171.963352 133.3576 
L 172.33911 133.204065 
L 172.714867 132.664753 
L 173.090625 133.850222 
L 173.466383 132.380251 
L 173.84214 134.508646 
L 174.217898 132.891838 
L 174.593655 132.60006 
L 175.34517 133.371722 
L 176.096686 133.289836 
L 176.472443 133.233779 
L 176.848201 132.59753 
L 177.223958 133.140671 
L 177.599716 133.469409 
L 177.975473 135.298431 
L 178.351231 133.081593 
L 178.726989 133.76687 
L 179.102746 133.628306 
L 179.478504 134.142602 
L 180.230019 133.234211 
L 180.605777 133.387198 
L 180.981534 132.977919 
L 181.357292 133.963267 
L 181.733049 133.314476 
L 182.108807 132.411628 
L 182.484564 133.066124 
L 182.860322 134.496277 
L 183.23608 133.755932 
L 183.611837 135.162542 
L 183.987595 133.581566 
L 184.363352 133.305612 
L 184.73911 133.524542 
L 185.490625 133.266223 
L 185.866383 134.589685 
L 186.24214 133.405029 
L 186.993655 134.669077 
L 187.369413 133.501361 
L 187.74517 134.54872 
L 188.120928 134.330751 
L 188.496686 133.594184 
L 188.872443 133.685259 
L 189.248201 133.132268 
L 189.999716 134.556337 
L 190.375473 134.747522 
L 190.751231 133.734818 
L 191.126989 134.057103 
L 191.502746 133.400449 
L 192.254261 135.078663 
L 192.630019 134.763415 
L 193.005777 132.670398 
L 193.381534 133.845273 
L 193.757292 134.183134 
L 194.133049 135.394309 
L 194.508807 134.32218 
L 194.884564 135.40424 
L 195.260322 135.965906 
L 195.63608 134.883353 
L 196.011837 135.13337 
L 196.387595 133.912702 
L 196.763352 134.390122 
L 197.13911 133.280426 
L 197.514867 133.387114 
L 198.266383 133.884612 
L 198.64214 134.965188 
L 199.017898 135.665181 
L 199.393655 133.526647 
L 199.769413 134.958716 
L 200.14517 134.407457 
L 200.520928 133.612359 
L 200.896686 132.453903 
L 201.272443 132.901754 
L 201.648201 134.501656 
L 202.023958 132.691125 
L 202.399716 132.707572 
L 202.775473 133.549338 
L 203.151231 133.084856 
L 203.526989 134.094326 
L 203.902746 134.739972 
L 204.278504 133.289971 
L 204.654261 133.717798 
L 205.030019 134.941621 
L 205.405777 133.779234 
L 205.781534 134.403515 
L 206.157292 132.779398 
L 206.533049 134.351158 
L 206.908807 134.337696 
L 207.284564 134.155492 
L 207.660322 132.525546 
L 208.03608 133.086877 
L 208.411837 131.931183 
L 208.787595 134.582029 
L 209.163352 134.47649 
L 210.290625 133.335482 
L 211.04214 133.982783 
L 211.417898 133.474433 
L 211.793655 133.545177 
L 212.169413 134.065804 
L 212.54517 133.091783 
L 212.920928 133.394984 
L 213.296686 133.362916 
L 213.672443 133.734817 
L 214.799716 134.215488 
L 215.175473 133.965623 
L 215.551231 135.494185 
L 216.302746 133.550128 
L 216.678504 133.11194 
L 217.054261 132.238664 
L 217.430019 132.453043 
L 217.805777 130.810441 
L 218.557292 134.124518 
L 218.933049 135.103878 
L 219.308807 133.781092 
L 219.684564 133.99295 
L 220.060322 132.891941 
L 220.43608 133.912624 
L 221.187595 132.399447 
L 221.563352 131.713326 
L 221.93911 132.090483 
L 222.314867 132.856766 
L 222.690625 133.123812 
L 223.066383 133.135695 
L 223.44214 132.27877 
L 223.817898 132.610056 
L 224.193655 134.40004 
L 224.569413 133.040585 
L 224.94517 133.285989 
L 225.320928 133.033763 
L 225.696686 134.071489 
L 226.072443 133.40679 
L 226.823958 133.948797 
L 227.199716 133.393113 
L 227.575473 134.972785 
L 227.951231 133.784309 
L 228.326989 134.35198 
L 228.702746 133.539669 
L 229.078504 133.178662 
L 229.454261 134.394646 
L 229.830019 132.953353 
L 230.205777 132.700312 
L 230.957292 133.674356 
L 231.333049 132.279369 
L 231.708807 132.540283 
L 232.084564 132.63201 
L 232.460322 132.106652 
L 233.211837 131.875436 
L 233.587595 132.101985 
L 233.963352 131.632349 
L 234.33911 132.243352 
L 234.714867 131.312647 
L 235.090625 132.518016 
L 235.466383 132.074249 
L 235.84214 133.525432 
L 236.593655 131.365266 
L 236.969413 132.376833 
L 237.34517 132.470925 
L 238.096686 131.396327 
L 238.472443 131.54476 
L 238.848201 132.302675 
L 239.223958 131.590595 
L 239.599716 132.470348 
L 239.975473 132.412599 
L 240.351231 131.673215 
L 241.102746 133.198533 
L 241.478504 133.673751 
L 242.230019 131.4986 
L 242.605777 132.618971 
L 242.981534 132.490221 
L 243.357292 132.556169 
L 243.733049 131.788266 
L 244.108807 131.942189 
L 244.484564 131.903216 
L 244.860322 132.539686 
L 245.23608 130.569412 
L 245.611837 131.466622 
L 245.987595 132.033561 
L 246.363352 131.906376 
L 246.73911 130.992269 
L 247.490625 132.544933 
L 247.866383 132.199204 
L 248.24214 132.783126 
L 248.617898 132.067351 
L 248.993655 132.47541 
L 249.369413 132.238959 
L 249.74517 132.671792 
L 250.120928 132.285419 
L 250.496686 132.183509 
L 250.872443 131.733499 
L 251.623958 132.243679 
L 251.999716 132.787757 
L 253.126989 132.398486 
L 253.878504 132.428882 
L 254.254261 131.97184 
L 254.630019 132.431972 
L 255.005777 133.559509 
L 255.381534 133.063622 
L 255.757292 133.288699 
L 256.133049 132.205903 
L 256.508807 132.12337 
L 256.884564 131.742718 
L 257.260322 132.882066 
L 258.387595 132.404978 
L 259.13911 132.463904 
L 259.514867 131.924399 
L 259.890625 132.932016 
L 260.266383 132.058467 
L 260.64214 131.58803 
L 261.017898 132.137126 
L 261.393655 131.581192 
L 262.14517 132.978092 
L 262.520928 133.131272 
L 262.896686 134.108581 
L 263.272443 132.805618 
L 263.648201 132.444667 
L 264.023958 132.462697 
L 264.399716 132.82047 
L 264.775473 132.728157 
L 265.526989 132.097278 
L 265.902746 132.340179 
L 266.278504 132.742722 
L 266.654261 133.609747 
L 267.030019 132.67693 
L 267.405777 132.79041 
L 267.781534 132.485461 
L 268.157292 132.365072 
L 268.533049 133.161963 
L 268.908807 133.657013 
L 269.284564 132.932014 
L 269.660322 133.725188 
L 270.411837 133.602527 
L 271.163352 132.317633 
L 271.914867 134.369376 
L 272.290625 133.267726 
L 272.666383 134.488446 
L 273.04214 133.333287 
L 273.417898 133.597625 
L 273.793655 135.119699 
L 274.169413 133.710805 
L 274.54517 134.149777 
L 274.920928 133.742468 
L 275.296686 131.405445 
L 276.048201 134.263899 
L 276.423958 132.946087 
L 276.799716 133.713455 
L 277.175473 133.403473 
L 277.551231 132.451649 
L 277.926989 132.25086 
L 278.302746 132.746294 
L 279.054261 134.145032 
L 279.430019 133.773815 
L 279.805777 132.745112 
L 280.181534 133.204419 
L 280.557292 132.526789 
L 281.308807 132.501007 
L 281.684564 132.877976 
L 282.060322 132.827072 
L 282.43608 133.125438 
L 282.811837 133.077798 
L 283.563352 132.281847 
L 283.93911 132.139013 
L 284.314867 133.059999 
L 284.690625 132.847204 
L 285.066383 133.215277 
L 285.44214 133.038088 
L 285.817898 133.341311 
L 286.193655 133.198229 
L 286.569413 132.869768 
L 287.320928 130.601714 
L 287.696686 130.221287 
L 288.072443 132.44365 
L 288.448201 132.860736 
L 288.823958 132.116999 
L 289.199716 132.416893 
L 289.575473 132.019425 
L 289.951231 132.093121 
L 290.326989 131.574188 
L 290.702746 131.30707 
L 291.078504 131.666799 
L 291.454261 131.029464 
L 291.830019 133.131409 
L 292.581534 131.66752 
L 292.957292 130.991933 
L 293.333049 131.632793 
L 294.084564 132.233251 
L 294.460322 131.305001 
L 294.83608 130.814976 
L 295.211837 131.642424 
L 295.587595 132.145508 
L 295.963352 131.893631 
L 296.33911 131.26196 
L 296.714867 131.298169 
L 297.090625 132.251309 
L 297.466383 131.744891 
L 297.84214 131.722877 
L 298.217898 131.213984 
L 298.593655 133.009789 
L 298.969413 132.112158 
L 299.720928 132.428836 
L 300.096686 132.054355 
L 300.848201 133.03029 
L 301.223958 132.790353 
L 301.599716 133.726846 
L 301.975473 131.680295 
L 302.351231 132.280318 
L 302.726989 133.309699 
L 303.102746 132.588921 
L 303.478504 132.646088 
L 303.854261 132.094469 
L 304.230019 132.633491 
L 304.605777 132.299455 
L 304.981534 132.719236 
L 305.357292 132.658564 
L 305.733049 130.7238 
L 306.108807 132.541882 
L 306.484564 131.890837 
L 306.860322 132.252463 
L 307.23608 132.059202 
L 307.987595 131.33064 
L 308.363352 131.620803 
L 308.73911 132.843674 
L 309.114867 132.807016 
L 309.490625 132.123512 
L 309.866383 132.344499 
L 310.24214 132.697557 
L 310.617898 132.59924 
L 310.993655 131.928732 
L 311.369413 132.041675 
L 311.74517 132.651605 
L 312.120928 132.183978 
L 312.872443 133.385368 
L 313.623958 133.234771 
L 314.375473 133.314622 
L 314.751231 133.123202 
L 315.126989 130.267198 
L 315.502746 131.961519 
L 315.878504 132.457787 
L 316.254261 131.922502 
L 316.630019 132.137043 
L 317.005777 131.904927 
L 317.381534 132.655 
L 317.757292 132.616746 
L 318.133049 131.219268 
L 318.508807 130.828335 
L 318.884564 131.633501 
L 319.260322 131.692301 
L 319.63608 133.00353 
L 320.011837 131.70666 
L 320.387595 132.741796 
L 320.763352 131.429345 
L 321.514867 131.603527 
L 321.890625 132.149271 
L 322.266383 131.578289 
L 322.64214 131.710636 
L 323.017898 133.077386 
L 323.393655 133.171804 
L 323.769413 131.927192 
L 324.14517 131.326142 
L 324.520928 131.693857 
L 324.896686 131.160785 
L 325.272443 132.014318 
L 326.023958 131.679714 
L 326.399716 131.938007 
L 326.775473 131.955963 
L 327.151231 132.66614 
L 327.526989 132.074235 
L 328.278504 131.45893 
L 328.654261 131.684332 
L 329.030019 132.235263 
L 329.405777 131.630971 
L 329.781534 132.221324 
L 330.157292 132.119814 
L 330.533049 132.407691 
L 330.908807 132.042115 
L 331.284564 131.368889 
L 331.660322 132.476174 
L 332.03608 132.517321 
L 332.411837 131.085981 
L 332.787595 131.956984 
L 333.163352 131.732544 
L 333.53911 132.372228 
L 333.914867 131.597795 
L 334.290625 131.822922 
L 334.666383 130.872069 
L 335.04214 132.252918 
L 335.417898 131.896233 
L 335.793655 132.798829 
L 336.54517 131.423575 
L 336.920928 132.113453 
L 337.296686 131.16003 
L 337.672443 132.417548 
L 338.048201 132.480037 
L 338.423958 131.610612 
L 338.799716 131.893874 
L 339.551231 130.508775 
L 339.926989 129.977019 
L 340.302746 131.37025 
L 340.678504 130.291315 
L 341.054261 131.423547 
L 341.430019 130.796264 
L 341.805777 131.738487 
L 342.181534 131.537825 
L 342.557292 130.668533 
L 342.933049 131.041875 
L 343.308807 130.949823 
L 343.684564 131.078029 
L 344.060322 131.601004 
L 344.43608 131.066591 
L 344.811837 130.974 
L 345.187595 130.53843 
L 345.563352 131.155066 
L 345.93911 131.48501 
L 346.314867 131.632228 
L 347.066383 130.628291 
L 347.44214 132.335118 
L 347.817898 131.484981 
L 348.193655 131.950548 
L 348.569413 131.455994 
L 348.94517 131.328138 
L 349.696686 130.68959 
L 350.072443 131.92097 
L 350.448201 131.415325 
L 350.823958 131.543803 
L 351.199716 131.519969 
L 351.575473 131.803965 
L 351.951231 131.677254 
L 352.326989 131.359358 
L 352.702746 131.90808 
L 353.078504 131.520382 
L 353.454261 131.787374 
L 353.830019 131.411736 
L 354.205777 131.404292 
L 354.581534 132.255072 
L 354.957292 131.798463 
L 355.333049 130.909378 
L 355.708807 131.273687 
L 356.084564 131.908029 
L 356.460322 131.302501 
L 356.83608 131.099072 
L 357.211837 131.333146 
L 357.587595 131.356257 
L 357.963352 130.961632 
L 358.33911 131.366747 
L 358.714867 130.951825 
L 359.466383 131.212655 
L 359.84214 131.168558 
L 360.217898 130.967352 
L 360.593655 131.518516 
L 361.34517 131.433964 
L 361.720928 131.759866 
L 362.472443 131.484234 
L 362.848201 131.763791 
L 363.223958 131.549835 
L 363.599716 131.751839 
L 363.975473 131.656265 
L 364.351231 132.157738 
L 364.726989 131.513777 
L 365.102746 131.526221 
L 365.478504 131.854591 
L 365.854261 132.654571 
L 366.605777 131.865287 
L 366.981534 130.593149 
L 367.357292 131.921112 
L 367.733049 131.63564 
L 368.108807 130.461283 
L 368.860322 130.893114 
L 369.23608 131.384476 
L 369.611837 130.934519 
L 369.987595 131.984969 
L 370.363352 131.163396 
L 370.73911 131.732841 
L 371.114867 131.006899 
L 371.490625 131.856539 
L 371.866383 131.359202 
L 372.24214 132.228461 
L 372.617898 130.795866 
L 372.993655 131.643273 
L 373.369413 132.082196 
L 373.74517 131.832027 
L 374.120928 132.757849 
L 374.496686 132.44943 
L 374.872443 132.587832 
L 375.248201 131.584111 
L 375.623958 131.543406 
L 375.999716 131.805415 
L 376.375473 131.450258 
L 377.126989 131.646294 
L 377.502746 132.107408 
L 377.878504 131.880479 
L 378.254261 132.134369 
L 378.630019 131.970307 
L 379.005777 132.386177 
L 379.381534 132.565465 
L 379.757292 131.64731 
L 380.133049 132.947028 
L 380.508807 131.513955 
L 380.884564 130.972511 
L 381.260322 131.252736 
L 381.63608 131.206001 
L 383.13911 132.653737 
L 383.514867 131.817172 
L 383.890625 132.11926 
L 384.266383 132.101248 
L 384.64214 131.966333 
L 385.017898 132.36078 
L 385.393655 131.258936 
L 385.769413 131.780393 
L 386.14517 131.54957 
L 386.896686 132.062622 
L 387.272443 131.957732 
L 387.648201 131.340718 
L 388.399716 131.670869 
L 388.775473 132.04183 
L 389.151231 132.236152 
L 389.526989 131.734186 
L 390.278504 131.782786 
L 390.654261 132.226408 
L 391.030019 132.283621 
L 391.405777 132.111478 
L 391.781534 132.220502 
L 392.157292 131.680684 
L 392.533049 132.290601 
L 392.908807 132.376387 
L 393.284564 133.543685 
L 393.660322 132.38326 
L 394.03608 131.997624 
L 394.411837 132.406125 
L 394.787595 131.864386 
L 395.914867 132.973723 
L 396.290625 132.207043 
L 396.666383 132.183732 
L 397.04214 132.917983 
L 397.417898 132.879916 
L 397.793655 131.609121 
L 398.169413 131.75248 
L 398.54517 131.61044 
L 398.920928 132.08651 
L 399.296686 131.515783 
L 399.672443 131.668492 
L 400.423958 130.424179 
L 400.799716 131.188671 
L 401.175473 131.541565 
L 401.551231 131.578801 
L 401.926989 131.760852 
L 402.302746 132.089249 
L 402.678504 131.078796 
L 403.054261 132.11539 
L 403.430019 131.641106 
L 403.805777 131.402283 
L 404.181534 130.979465 
L 404.557292 131.242137 
L 405.308807 131.105524 
L 405.684564 132.424635 
L 406.060322 132.220091 
L 406.43608 131.791997 
L 406.811837 131.938228 
L 407.187595 131.510736 
L 407.563352 132.098564 
L 407.93911 132.012834 
L 408.314867 133.27861 
L 409.066383 132.277825 
L 409.44214 132.339868 
L 409.817898 132.847564 
L 410.193655 132.572358 
L 410.569413 133.344471 
L 410.94517 133.44242 
L 411.320928 132.453226 
L 411.696686 132.987202 
L 412.072443 132.14924 
L 412.448201 132.405849 
L 413.199716 132.268171 
L 413.575473 132.281259 
L 413.951231 132.721498 
L 414.326989 132.325764 
L 414.702746 133.125103 
L 415.078504 133.109208 
L 415.454261 132.866023 
L 415.830019 133.262784 
L 416.205777 132.177378 
L 416.581534 132.36252 
L 416.957292 132.07249 
L 417.333049 132.346752 
L 418.084564 131.733131 
L 418.460322 132.763355 
L 418.83608 132.709225 
L 419.211837 132.462485 
L 419.963352 131.213038 
L 420.33911 131.659717 
L 420.714867 130.566539 
L 421.090625 130.559564 
L 421.466383 131.276871 
L 421.84214 130.846549 
L 422.217898 131.440441 
L 422.593655 130.957548 
L 422.969413 131.844636 
L 423.34517 131.094976 
L 423.720928 131.335715 
L 424.096686 131.407347 
L 424.472443 131.85281 
L 424.848201 131.305705 
L 425.223958 131.308068 
L 425.599716 131.126722 
L 425.975473 131.168921 
L 426.351231 130.91508 
L 426.726989 130.92399 
L 427.102746 130.733538 
L 427.478504 131.131068 
L 427.854261 131.184255 
L 428.230019 130.941223 
L 428.605777 131.384591 
L 428.981534 131.049911 
L 429.357292 131.456985 
L 429.733049 131.590332 
L 430.484564 131.392327 
L 430.860322 131.21249 
L 431.23608 131.931509 
L 431.611837 131.14334 
L 431.987595 131.232342 
L 432.363352 131.723453 
L 432.73911 131.587985 
L 433.490625 131.615276 
L 433.866383 131.440857 
L 434.617898 132.056708 
L 434.993655 131.762927 
L 435.369413 131.632992 
L 435.74517 132.353469 
L 436.496686 132.599687 
L 436.872443 132.971818 
L 437.623958 131.790298 
L 437.999716 132.466741 
L 438.375473 131.938196 
L 438.751231 131.1858 
L 439.126989 131.753227 
L 439.502746 131.454488 
L 439.878504 131.32602 
L 440.254261 131.732054 
L 441.381534 131.451028 
L 441.757292 131.069915 
L 442.133049 131.545053 
L 442.508807 132.321151 
L 442.884564 131.661514 
L 443.260322 131.759212 
L 444.011837 131.447085 
L 444.763352 132.403037 
L 445.13911 132.550619 
L 445.514867 132.262497 
L 446.266383 132.502361 
L 446.64214 131.712199 
L 447.017898 131.984447 
L 447.393655 131.804647 
L 447.769413 131.906886 
L 448.14517 131.496733 
L 448.520928 131.928376 
L 448.896686 131.837591 
L 449.272443 131.989177 
L 449.648201 131.447812 
L 450.023958 132.31555 
L 450.775473 131.861633 
L 451.151231 131.085775 
L 451.902746 131.103766 
L 452.278504 131.831547 
L 452.654261 132.165961 
L 453.030019 131.924331 
L 453.405777 132.49913 
L 453.781534 132.133288 
L 454.157292 132.703963 
L 454.533049 131.519711 
L 454.908807 131.787084 
L 455.284564 131.61516 
L 455.660322 131.905243 
L 456.03608 132.023337 
L 456.411837 131.424601 
L 456.787595 131.941062 
L 457.163352 131.584992 
L 457.53911 131.396081 
L 458.290625 131.734183 
L 458.666383 132.120899 
L 459.04214 131.868529 
L 459.417898 131.330176 
L 459.793655 131.950312 
L 460.169413 132.09371 
L 460.54517 131.285402 
L 460.920928 131.09023 
L 461.296686 131.418014 
L 462.423958 130.349473 
L 463.175473 130.653642 
L 463.551231 131.671098 
L 463.926989 131.704918 
L 464.678504 131.017815 
L 465.054261 131.587552 
L 465.430019 130.190526 
L 465.805777 131.64654 
L 466.181534 130.790442 
L 466.557292 131.176106 
L 466.933049 131.278116 
L 467.308807 132.267317 
L 467.684564 132.623179 
L 468.060322 131.651776 
L 468.43608 131.352801 
L 468.811837 131.294282 
L 469.187595 131.836177 
L 469.563352 131.318101 
L 469.93911 131.550916 
L 470.314867 131.334676 
L 470.690625 131.388509 
L 471.44214 131.856621 
L 471.817898 132.054724 
L 472.193655 131.115779 
L 472.569413 130.623342 
L 472.94517 130.862776 
L 473.320928 131.410627 
L 473.696686 131.349292 
L 474.072443 131.637476 
L 474.448201 130.877067 
L 474.823958 130.668975 
L 475.199716 131.473748 
L 475.575473 131.673314 
L 475.951231 132.305557 
L 476.326989 130.570695 
L 476.702746 131.524208 
L 477.078504 131.254612 
L 477.454261 131.168066 
L 477.830019 131.483211 
L 478.205777 130.980283 
L 478.957292 130.639009 
L 479.333049 131.405517 
L 479.708807 131.013127 
L 480.084564 131.049724 
L 480.460322 130.651157 
L 481.211837 131.651566 
L 481.587595 131.527573 
L 481.963352 131.633015 
L 482.33911 131.866406 
L 482.714867 131.748473 
L 483.090625 132.402915 
L 483.466383 132.503654 
L 484.217898 130.610999 
L 484.593655 131.411022 
L 484.969413 131.806313 
L 485.34517 131.121768 
L 485.720928 131.700637 
L 486.096686 131.62757 
L 486.472443 131.238641 
L 486.848201 131.260974 
L 487.975473 131.616936 
L 488.351231 131.295897 
L 488.726989 130.745783 
L 489.102746 130.782025 
L 489.478504 131.695054 
L 489.854261 131.024701 
L 490.230019 130.822981 
L 490.605777 131.750217 
L 490.981534 131.740044 
L 491.733049 130.129551 
L 492.108807 130.751975 
L 492.484564 131.003511 
L 492.860322 130.501422 
L 493.23608 130.73707 
L 493.611837 130.607715 
L 493.987595 129.985918 
L 494.363352 130.368178 
L 494.73911 131.084768 
L 495.114867 131.174641 
L 495.490625 130.543423 
L 495.866383 130.139932 
L 496.24214 131.065379 
L 496.617898 130.833717 
L 497.369413 131.372946 
L 497.74517 131.291543 
L 498.120928 130.667029 
L 498.872443 130.97347 
L 499.248201 131.307341 
L 499.623958 131.831564 
L 499.999716 131.625404 
L 500.375473 131.179196 
L 500.751231 130.424577 
L 501.126989 131.765082 
L 501.502746 131.368139 
L 501.878504 131.226704 
L 502.254261 129.60527 
L 502.630019 131.070313 
L 503.005777 130.095266 
L 503.381534 130.115799 
L 503.757292 131.068329 
L 504.133049 131.166856 
L 504.508807 129.884812 
L 504.884564 130.754992 
L 505.260322 131.081415 
L 505.63608 131.562154 
L 506.011837 130.966667 
L 506.387595 131.136951 
L 506.763352 130.97303 
L 507.13911 130.964746 
L 507.514867 131.401499 
L 507.890625 130.626838 
L 508.64214 131.470264 
L 509.017898 130.858801 
L 509.393655 130.899558 
L 510.14517 131.327705 
L 510.520928 130.755858 
L 510.896686 130.392417 
L 511.648201 130.354384 
L 512.023958 131.156742 
L 512.399716 130.83115 
L 512.775473 130.24938 
L 513.151231 130.371003 
L 513.526989 129.487353 
L 513.902746 124.532664 
L 514.278504 128.733557 
L 514.654261 130.746911 
L 515.030019 130.987071 
L 515.405777 130.324001 
L 515.781534 130.448759 
L 516.157292 130.830733 
L 516.533049 130.595539 
L 516.908807 131.188754 
L 517.284564 130.164736 
L 518.03608 129.37263 
L 518.411837 129.95629 
L 519.163352 129.478811 
L 519.53911 130.005955 
L 519.914867 130.010266 
L 520.290625 130.341497 
L 520.666383 130.519867 
L 521.04214 130.921899 
L 521.417898 130.187721 
L 521.793655 130.113992 
L 522.169413 131.214958 
L 522.54517 130.452203 
L 522.920928 130.945951 
L 523.296686 130.491291 
L 524.048201 131.514279 
L 524.423958 131.223316 
L 525.175473 131.389353 
L 525.926989 131.656079 
L 526.302746 129.705955 
L 526.678504 129.917771 
L 527.054261 129.276748 
L 527.430019 130.453329 
L 527.805777 130.414805 
L 528.181534 130.50234 
L 528.557292 130.467444 
L 528.933049 131.055133 
L 529.308807 130.138572 
L 529.684564 130.40683 
L 530.060322 125.50742 
L 530.43608 122.84104 
L 530.811837 130.1481 
L 531.187595 130.84771 
L 531.93911 130.640343 
L 532.314867 130.828383 
L 532.690625 130.498662 
L 533.066383 130.583282 
L 533.44214 129.75929 
L 533.817898 130.374035 
L 534.193655 129.867492 
L 534.569413 131.896064 
L 535.320928 130.212515 
L 535.696686 130.845973 
L 536.072443 130.804372 
L 536.448201 131.0562 
L 537.199716 130.108805 
L 537.575473 130.992055 
L 537.951231 130.592388 
L 538.326989 130.488568 
L 538.702746 130.23127 
L 539.078504 130.805741 
L 539.830019 130.00987 
L 540.205777 130.389554 
L 540.581534 130.413294 
L 540.957292 129.829188 
L 541.333049 130.722457 
L 541.708807 131.024591 
L 542.084564 129.376244 
L 542.460322 130.437763 
L 542.83608 130.424088 
L 543.587595 130.688667 
L 543.963352 132.07996 
L 544.33911 130.667219 
L 544.714867 130.690392 
L 545.090625 129.888552 
L 545.466383 131.129125 
L 545.84214 130.389063 
L 546.217898 130.100626 
L 546.969413 130.674351 
L 547.34517 130.416076 
L 548.472443 130.233648 
L 548.848201 130.664875 
L 549.223958 129.387487 
L 549.599716 130.22461 
L 549.975473 129.77033 
L 550.351231 129.585297 
L 550.726989 130.128692 
L 551.478504 129.829608 
L 551.854261 130.994181 
L 552.230019 131.219198 
L 552.605777 130.70974 
L 552.981534 131.566129 
L 553.357292 131.209827 
L 553.733049 130.306914 
L 554.108807 130.868781 
L 554.484564 130.571939 
L 554.860322 130.595518 
L 555.23608 131.053044 
L 555.611837 130.282901 
L 555.987595 129.976774 
L 556.363352 130.526792 
L 556.73911 130.344896 
L 557.114867 131.020758 
L 557.490625 129.906556 
L 558.24214 130.716983 
L 558.617898 130.488582 
L 558.993655 130.787487 
L 559.369413 130.366097 
L 559.74517 130.165814 
L 560.120928 130.934409 
L 560.496686 130.164311 
L 561.248201 131.18006 
L 561.623958 129.463145 
L 561.999716 129.98269 
L 562.375473 130.244075 
L 562.751231 130.903143 
L 563.126989 130.176831 
L 564.254261 129.780195 
L 564.630019 130.4535 
L 565.005777 130.120047 
L 566.133049 130.726894 
L 566.508807 131.722965 
L 566.884564 131.979351 
L 567.260322 131.055048 
L 567.63608 130.63362 
L 568.763352 130.679998 
L 569.13911 129.982784 
L 569.514867 130.691736 
L 569.890625 129.917174 
L 570.266383 130.440223 
L 570.64214 130.522927 
L 571.017898 129.957382 
L 571.769413 129.849221 
L 572.14517 130.755282 
L 572.520928 130.96083 
L 572.896686 130.41423 
L 573.648201 130.557492 
L 574.023958 130.789901 
L 574.399716 130.863772 
L 574.775473 131.564199 
L 575.151231 130.661505 
L 575.526989 130.28247 
L 575.902746 130.699576 
L 576.278504 130.326585 
L 576.654261 130.781557 
L 577.030019 130.910442 
L 577.781534 130.744515 
L 578.157292 130.13246 
L 578.533049 130.820767 
L 578.908807 130.326052 
L 579.284564 130.391666 
L 579.660322 131.018171 
L 580.03608 130.115225 
L 580.411837 131.049893 
L 580.787595 130.829827 
L 581.163352 131.060234 
L 582.290625 130.133804 
L 582.666383 130.323136 
L 583.04214 131.045865 
L 583.417898 130.84038 
L 583.793655 130.122947 
L 584.169413 130.817559 
L 584.920928 131.009742 
L 585.296686 130.685493 
L 585.672443 129.957812 
L 586.048201 129.944515 
L 586.423958 130.66462 
L 586.799716 130.17704 
L 587.175473 131.316742 
L 587.551231 130.989109 
L 587.926989 131.196682 
L 588.678504 131.094299 
L 589.054261 130.872635 
L 589.430019 132.222389 
L 590.181534 130.76153 
L 590.557292 131.008135 
L 590.933049 130.604647 
L 591.308807 131.381519 
L 592.060322 131.74209 
L 592.43608 131.417356 
L 592.811837 130.539769 
L 593.187595 130.296014 
L 593.563352 129.894973 
L 593.93911 130.040812 
L 594.314867 130.328041 
L 594.690625 130.099852 
L 595.066383 130.564728 
L 595.44214 130.417975 
L 596.193655 130.946676 
L 596.569413 131.021662 
L 596.94517 131.322415 
L 597.320928 130.227999 
L 597.696686 130.593962 
L 598.072443 130.52789 
L 598.448201 130.654234 
L 598.823958 131.421961 
L 599.199716 131.238056 
L 599.575473 131.204655 
L 599.951231 130.872112 
L 600.326989 130.693748 
L 600.702746 130.878738 
L 601.078504 131.617836 
L 601.454261 131.698071 
L 601.830019 131.485252 
L 602.205777 131.641098 
L 602.581534 131.335069 
L 602.957292 131.546914 
L 603.708807 130.955012 
L 604.084564 131.187717 
L 604.460322 131.776312 
L 604.83608 131.668382 
L 605.211837 130.825121 
L 605.587595 131.29556 
L 606.33911 130.48569 
L 606.714867 130.797796 
L 607.090625 130.06752 
L 607.466383 130.561251 
L 607.84214 130.77423 
L 608.217898 131.655061 
L 608.593655 130.695025 
L 608.969413 130.686328 
L 609.34517 130.027288 
L 609.720928 130.48206 
L 610.096686 130.457861 
L 610.848201 131.306902 
L 611.223958 131.29802 
L 611.599716 131.931612 
L 611.975473 131.096228 
L 612.351231 131.42237 
L 612.726989 131.525918 
L 613.102746 130.490469 
L 613.478504 131.427434 
L 613.854261 131.319698 
L 614.230019 132.065013 
L 614.605777 131.848164 
L 614.981534 130.823013 
L 615.357292 130.725385 
L 616.108807 131.711716 
L 616.484564 130.974484 
L 616.860322 131.716505 
L 617.23608 131.639789 
L 617.611837 131.837882 
L 617.987595 131.099314 
L 618.73911 130.933967 
L 619.114867 131.017748 
L 619.866383 130.888717 
L 620.24214 131.115387 
L 620.617898 131.109607 
L 620.993655 130.501021 
L 621.369413 131.002452 
L 621.74517 131.276586 
L 622.120928 131.222873 
L 622.496686 130.550084 
L 622.872443 131.494701 
L 623.248201 130.518888 
L 623.623958 131.319896 
L 624.375473 131.651287 
L 624.751231 131.305954 
L 625.126989 131.485045 
L 625.126989 131.485045 
" clip-path="url(#p3940a82f5d)" style="fill: none; stroke: #ff7f0e; stroke-width: 1.5; stroke-linecap: square"/>
   </g>
   <g id="patch_3">
    <path d="M 92.490625 308.63625 
L 92.490625 31.43625 
" style="fill: none; stroke: #000000; stroke-width: 0.8; stroke-linejoin: miter; stroke-linecap: square"/>
   </g>
   <g id="patch_4">
    <path d="M 650.490625 308.63625 
L 650.490625 31.43625 
" style="fill: none; stroke: #000000; stroke-width: 0.8; stroke-linejoin: miter; stroke-linecap: square"/>
   </g>
   <g id="patch_5">
    <path d="M 92.490625 308.63625 
L 650.490625 308.63625 
" style="fill: none; stroke: #000000; stroke-width: 0.8; stroke-linejoin: miter; stroke-linecap: square"/>
   </g>
   <g id="patch_6">
    <path d="M 92.490625 31.43625 
L 650.490625 31.43625 
" style="fill: none; stroke: #000000; stroke-width: 0.8; stroke-linejoin: miter; stroke-linecap: square"/>
   </g>
   <g id="text_15">
    <!-- Generator and Discriminator Loss During Training -->
    <g transform="translate(74.258125 25.43625) scale(0.24 -0.24)">
     <defs>
      <path id="DejaVuSans-47" d="M 3809 666 
L 3809 1919 
L 2778 1919 
L 2778 2438 
L 4434 2438 
L 4434 434 
Q 4069 175 3628 42 
Q 3188 -91 2688 -91 
Q 1594 -91 976 548 
Q 359 1188 359 2328 
Q 359 3472 976 4111 
Q 1594 4750 2688 4750 
Q 3144 4750 3555 4637 
Q 3966 4525 4313 4306 
L 4313 3634 
Q 3963 3931 3569 4081 
Q 3175 4231 2741 4231 
Q 1884 4231 1454 3753 
Q 1025 3275 1025 2328 
Q 1025 1384 1454 906 
Q 1884 428 2741 428 
Q 3075 428 3337 486 
Q 3600 544 3809 666 
z
" transform="scale(0.015625)"/>
      <path id="DejaVuSans-20" transform="scale(0.015625)"/>
      <path id="DejaVuSans-64" d="M 2906 2969 
L 2906 4863 
L 3481 4863 
L 3481 0 
L 2906 0 
L 2906 525 
Q 2725 213 2448 61 
Q 2172 -91 1784 -91 
Q 1150 -91 751 415 
Q 353 922 353 1747 
Q 353 2572 751 3078 
Q 1150 3584 1784 3584 
Q 2172 3584 2448 3432 
Q 2725 3281 2906 2969 
z
M 947 1747 
Q 947 1113 1208 752 
Q 1469 391 1925 391 
Q 2381 391 2643 752 
Q 2906 1113 2906 1747 
Q 2906 2381 2643 2742 
Q 2381 3103 1925 3103 
Q 1469 3103 1208 2742 
Q 947 2381 947 1747 
z
" transform="scale(0.015625)"/>
      <path id="DejaVuSans-44" d="M 1259 4147 
L 1259 519 
L 2022 519 
Q 2988 519 3436 956 
Q 3884 1394 3884 2338 
Q 3884 3275 3436 3711 
Q 2988 4147 2022 4147 
L 1259 4147 
z
M 628 4666 
L 1925 4666 
Q 3281 4666 3915 4102 
Q 4550 3538 4550 2338 
Q 4550 1131 3912 565 
Q 3275 0 1925 0 
L 628 0 
L 628 4666 
z
" transform="scale(0.015625)"/>
      <path id="DejaVuSans-63" d="M 3122 3366 
L 3122 2828 
Q 2878 2963 2633 3030 
Q 2388 3097 2138 3097 
Q 1578 3097 1268 2742 
Q 959 2388 959 1747 
Q 959 1106 1268 751 
Q 1578 397 2138 397 
Q 2388 397 2633 464 
Q 2878 531 3122 666 
L 3122 134 
Q 2881 22 2623 -34 
Q 2366 -91 2075 -91 
Q 1284 -91 818 406 
Q 353 903 353 1747 
Q 353 2603 823 3093 
Q 1294 3584 2113 3584 
Q 2378 3584 2631 3529 
Q 2884 3475 3122 3366 
z
" transform="scale(0.015625)"/>
      <path id="DejaVuSans-6d" d="M 3328 2828 
Q 3544 3216 3844 3400 
Q 4144 3584 4550 3584 
Q 5097 3584 5394 3201 
Q 5691 2819 5691 2113 
L 5691 0 
L 5113 0 
L 5113 2094 
Q 5113 2597 4934 2840 
Q 4756 3084 4391 3084 
Q 3944 3084 3684 2787 
Q 3425 2491 3425 1978 
L 3425 0 
L 2847 0 
L 2847 2094 
Q 2847 2600 2669 2842 
Q 2491 3084 2119 3084 
Q 1678 3084 1418 2786 
Q 1159 2488 1159 1978 
L 1159 0 
L 581 0 
L 581 3500 
L 1159 3500 
L 1159 2956 
Q 1356 3278 1631 3431 
Q 1906 3584 2284 3584 
Q 2666 3584 2933 3390 
Q 3200 3197 3328 2828 
z
" transform="scale(0.015625)"/>
      <path id="DejaVuSans-75" d="M 544 1381 
L 544 3500 
L 1119 3500 
L 1119 1403 
Q 1119 906 1312 657 
Q 1506 409 1894 409 
Q 2359 409 2629 706 
Q 2900 1003 2900 1516 
L 2900 3500 
L 3475 3500 
L 3475 0 
L 2900 0 
L 2900 538 
Q 2691 219 2414 64 
Q 2138 -91 1772 -91 
Q 1169 -91 856 284 
Q 544 659 544 1381 
z
M 1991 3584 
L 1991 3584 
z
" transform="scale(0.015625)"/>
      <path id="DejaVuSans-67" d="M 2906 1791 
Q 2906 2416 2648 2759 
Q 2391 3103 1925 3103 
Q 1463 3103 1205 2759 
Q 947 2416 947 1791 
Q 947 1169 1205 825 
Q 1463 481 1925 481 
Q 2391 481 2648 825 
Q 2906 1169 2906 1791 
z
M 3481 434 
Q 3481 -459 3084 -895 
Q 2688 -1331 1869 -1331 
Q 1566 -1331 1297 -1286 
Q 1028 -1241 775 -1147 
L 775 -588 
Q 1028 -725 1275 -790 
Q 1522 -856 1778 -856 
Q 2344 -856 2625 -561 
Q 2906 -266 2906 331 
L 2906 616 
Q 2728 306 2450 153 
Q 2172 0 1784 0 
Q 1141 0 747 490 
Q 353 981 353 1791 
Q 353 2603 747 3093 
Q 1141 3584 1784 3584 
Q 2172 3584 2450 3431 
Q 2728 3278 2906 2969 
L 2906 3500 
L 3481 3500 
L 3481 434 
z
" transform="scale(0.015625)"/>
      <path id="DejaVuSans-54" d="M -19 4666 
L 3928 4666 
L 3928 4134 
L 2272 4134 
L 2272 0 
L 1638 0 
L 1638 4134 
L -19 4134 
L -19 4666 
z
" transform="scale(0.015625)"/>
     </defs>
     <use xlink:href="#DejaVuSans-47"/>
     <use xlink:href="#DejaVuSans-65" x="77.490234"/>
     <use xlink:href="#DejaVuSans-6e" x="139.013672"/>
     <use xlink:href="#DejaVuSans-65" x="202.392578"/>
     <use xlink:href="#DejaVuSans-72" x="263.916016"/>
     <use xlink:href="#DejaVuSans-61" x="305.029297"/>
     <use xlink:href="#DejaVuSans-74" x="366.308594"/>
     <use xlink:href="#DejaVuSans-6f" x="405.517578"/>
     <use xlink:href="#DejaVuSans-72" x="466.699219"/>
     <use xlink:href="#DejaVuSans-20" x="507.8125"/>
     <use xlink:href="#DejaVuSans-61" x="539.599609"/>
     <use xlink:href="#DejaVuSans-6e" x="600.878906"/>
     <use xlink:href="#DejaVuSans-64" x="664.257812"/>
     <use xlink:href="#DejaVuSans-20" x="727.734375"/>
     <use xlink:href="#DejaVuSans-44" x="759.521484"/>
     <use xlink:href="#DejaVuSans-69" x="836.523438"/>
     <use xlink:href="#DejaVuSans-73" x="864.306641"/>
     <use xlink:href="#DejaVuSans-63" x="916.40625"/>
     <use xlink:href="#DejaVuSans-72" x="971.386719"/>
     <use xlink:href="#DejaVuSans-69" x="1012.5"/>
     <use xlink:href="#DejaVuSans-6d" x="1040.283203"/>
     <use xlink:href="#DejaVuSans-69" x="1137.695312"/>
     <use xlink:href="#DejaVuSans-6e" x="1165.478516"/>
     <use xlink:href="#DejaVuSans-61" x="1228.857422"/>
     <use xlink:href="#DejaVuSans-74" x="1290.136719"/>
     <use xlink:href="#DejaVuSans-6f" x="1329.345703"/>
     <use xlink:href="#DejaVuSans-72" x="1390.527344"/>
     <use xlink:href="#DejaVuSans-20" x="1431.640625"/>
     <use xlink:href="#DejaVuSans-4c" x="1463.427734"/>
     <use xlink:href="#DejaVuSans-6f" x="1517.390625"/>
     <use xlink:href="#DejaVuSans-73" x="1578.572266"/>
     <use xlink:href="#DejaVuSans-73" x="1630.671875"/>
     <use xlink:href="#DejaVuSans-20" x="1682.771484"/>
     <use xlink:href="#DejaVuSans-44" x="1714.558594"/>
     <use xlink:href="#DejaVuSans-75" x="1791.560547"/>
     <use xlink:href="#DejaVuSans-72" x="1854.939453"/>
     <use xlink:href="#DejaVuSans-69" x="1896.052734"/>
     <use xlink:href="#DejaVuSans-6e" x="1923.835938"/>
     <use xlink:href="#DejaVuSans-67" x="1987.214844"/>
     <use xlink:href="#DejaVuSans-20" x="2050.691406"/>
     <use xlink:href="#DejaVuSans-54" x="2082.478516"/>
     <use xlink:href="#DejaVuSans-72" x="2128.8125"/>
     <use xlink:href="#DejaVuSans-61" x="2169.925781"/>
     <use xlink:href="#DejaVuSans-69" x="2231.205078"/>
     <use xlink:href="#DejaVuSans-6e" x="2258.988281"/>
     <use xlink:href="#DejaVuSans-69" x="2322.367188"/>
     <use xlink:href="#DejaVuSans-6e" x="2350.150391"/>
     <use xlink:href="#DejaVuSans-67" x="2413.529297"/>
    </g>
   </g>
   <g id="legend_1">
    <g id="patch_7">
     <path d="M 556.99375 106.14875 
L 636.490625 106.14875 
Q 640.490625 106.14875 640.490625 102.14875 
L 640.490625 45.43625 
Q 640.490625 41.43625 636.490625 41.43625 
L 556.99375 41.43625 
Q 552.99375 41.43625 552.99375 45.43625 
L 552.99375 102.14875 
Q 552.99375 106.14875 556.99375 106.14875 
z
" style="fill: #ffffff; opacity: 0.8; stroke: #cccccc; stroke-linejoin: miter"/>
    </g>
    <g id="line2d_15">
     <path d="M 560.99375 57.633125 
L 580.99375 57.633125 
L 600.99375 57.633125 
" style="fill: none; stroke: #1f77b4; stroke-width: 1.5; stroke-linecap: square"/>
    </g>
    <g id="text_16">
     <!-- G -->
     <g transform="translate(616.99375 64.633125) scale(0.2 -0.2)">
      <use xlink:href="#DejaVuSans-47"/>
     </g>
    </g>
    <g id="line2d_16">
     <path d="M 560.99375 86.989375 
L 580.99375 86.989375 
L 600.99375 86.989375 
" style="fill: none; stroke: #ff7f0e; stroke-width: 1.5; stroke-linecap: square"/>
    </g>
    <g id="text_17">
     <!-- D -->
     <g transform="translate(616.99375 93.989375) scale(0.2 -0.2)">
      <use xlink:href="#DejaVuSans-44"/>
     </g>
    </g>
   </g>
  </g>
 </g>
 <defs>
  <clipPath id="p3940a82f5d">
   <rect x="92.490625" y="31.43625" width="558" height="277.2"/>
  </clipPath>
 </defs>
</svg>
