<?xml version="1.0" encoding="utf-8" standalone="no"?>
<!DOCTYPE svg PUBLIC "-//W3C//DTD SVG 1.1//EN"
  "http://www.w3.org/Graphics/SVG/1.1/DTD/svg11.dtd">
<svg xmlns:xlink="http://www.w3.org/1999/xlink" width="675.923125pt" height="365.54875pt" viewBox="0 0 675.923125 365.54875" xmlns="http://www.w3.org/2000/svg" version="1.1">
 <metadata>
  <rdf:RDF xmlns:dc="http://purl.org/dc/elements/1.1/" xmlns:cc="http://creativecommons.org/ns#" xmlns:rdf="http://www.w3.org/1999/02/22-rdf-syntax-ns#">
   <cc:Work>
    <dc:type rdf:resource="http://purl.org/dc/dcmitype/StillImage"/>
    <dc:date>2024-02-07T04:25:43.979243</dc:date>
    <dc:format>image/svg+xml</dc:format>
    <dc:creator>
     <cc:Agent>
      <dc:title>Matplotlib v3.7.2, https://matplotlib.org/</dc:title>
     </cc:Agent>
    </dc:creator>
   </cc:Work>
  </rdf:RDF>
 </metadata>
 <defs>
  <style type="text/css">*{stroke-linejoin: round; stroke-linecap: butt}</style>
 </defs>
 <g id="figure_1">
  <g id="patch_1">
   <path d="M 0 365.54875 
L 675.923125 365.54875 
L 675.923125 -0 
L 0 -0 
z
" style="fill: #ffffff"/>
  </g>
  <g id="axes_1">
   <g id="patch_2">
    <path d="M 92.490625 308.63625 
L 650.490625 308.63625 
L 650.490625 31.43625 
L 92.490625 31.43625 
z
" style="fill: #ffffff"/>
   </g>
   <g id="matplotlib.axis_1">
    <g id="xtick_1">
     <g id="line2d_1">
      <defs>
       <path id="me67998fc0a" d="M 0 0 
L 0 3.5 
" style="stroke: #000000; stroke-width: 0.8"/>
      </defs>
      <g>
       <use xlink:href="#me67998fc0a" x="117.854261" y="308.63625" style="stroke: #000000; stroke-width: 0.8"/>
      </g>
     </g>
     <g id="text_1">
      <!-- 0 -->
      <g transform="translate(111.491761 330.833125) scale(0.2 -0.2)">
       <defs>
        <path id="DejaVuSans-30" d="M 2034 4250 
Q 1547 4250 1301 3770 
Q 1056 3291 1056 2328 
Q 1056 1369 1301 889 
Q 1547 409 2034 409 
Q 2525 409 2770 889 
Q 3016 1369 3016 2328 
Q 3016 3291 2770 3770 
Q 2525 4250 2034 4250 
z
M 2034 4750 
Q 2819 4750 3233 4129 
Q 3647 3509 3647 2328 
Q 3647 1150 3233 529 
Q 2819 -91 2034 -91 
Q 1250 -91 836 529 
Q 422 1150 422 2328 
Q 422 3509 836 4129 
Q 1250 4750 2034 4750 
z
" transform="scale(0.015625)"/>
       </defs>
       <use xlink:href="#DejaVuSans-30"/>
      </g>
     </g>
    </g>
    <g id="xtick_2">
     <g id="line2d_2">
      <g>
       <use xlink:href="#me67998fc0a" x="181.263352" y="308.63625" style="stroke: #000000; stroke-width: 0.8"/>
      </g>
     </g>
     <g id="text_2">
      <!-- 100 -->
      <g transform="translate(162.175852 330.833125) scale(0.2 -0.2)">
       <defs>
        <path id="DejaVuSans-31" d="M 794 531 
L 1825 531 
L 1825 4091 
L 703 3866 
L 703 4441 
L 1819 4666 
L 2450 4666 
L 2450 531 
L 3481 531 
L 3481 0 
L 794 0 
L 794 531 
z
" transform="scale(0.015625)"/>
       </defs>
       <use xlink:href="#DejaVuSans-31"/>
       <use xlink:href="#DejaVuSans-30" x="63.623047"/>
       <use xlink:href="#DejaVuSans-30" x="127.246094"/>
      </g>
     </g>
    </g>
    <g id="xtick_3">
     <g id="line2d_3">
      <g>
       <use xlink:href="#me67998fc0a" x="244.672443" y="308.63625" style="stroke: #000000; stroke-width: 0.8"/>
      </g>
     </g>
     <g id="text_3">
      <!-- 200 -->
      <g transform="translate(225.584943 330.833125) scale(0.2 -0.2)">
       <defs>
        <path id="DejaVuSans-32" d="M 1228 531 
L 3431 531 
L 3431 0 
L 469 0 
L 469 531 
Q 828 903 1448 1529 
Q 2069 2156 2228 2338 
Q 2531 2678 2651 2914 
Q 2772 3150 2772 3378 
Q 2772 3750 2511 3984 
Q 2250 4219 1831 4219 
Q 1534 4219 1204 4116 
Q 875 4013 500 3803 
L 500 4441 
Q 881 4594 1212 4672 
Q 1544 4750 1819 4750 
Q 2544 4750 2975 4387 
Q 3406 4025 3406 3419 
Q 3406 3131 3298 2873 
Q 3191 2616 2906 2266 
Q 2828 2175 2409 1742 
Q 1991 1309 1228 531 
z
" transform="scale(0.015625)"/>
       </defs>
       <use xlink:href="#DejaVuSans-32"/>
       <use xlink:href="#DejaVuSans-30" x="63.623047"/>
       <use xlink:href="#DejaVuSans-30" x="127.246094"/>
      </g>
     </g>
    </g>
    <g id="xtick_4">
     <g id="line2d_4">
      <g>
       <use xlink:href="#me67998fc0a" x="308.081534" y="308.63625" style="stroke: #000000; stroke-width: 0.8"/>
      </g>
     </g>
     <g id="text_4">
      <!-- 300 -->
      <g transform="translate(288.994034 330.833125) scale(0.2 -0.2)">
       <defs>
        <path id="DejaVuSans-33" d="M 2597 2516 
Q 3050 2419 3304 2112 
Q 3559 1806 3559 1356 
Q 3559 666 3084 287 
Q 2609 -91 1734 -91 
Q 1441 -91 1130 -33 
Q 819 25 488 141 
L 488 750 
Q 750 597 1062 519 
Q 1375 441 1716 441 
Q 2309 441 2620 675 
Q 2931 909 2931 1356 
Q 2931 1769 2642 2001 
Q 2353 2234 1838 2234 
L 1294 2234 
L 1294 2753 
L 1863 2753 
Q 2328 2753 2575 2939 
Q 2822 3125 2822 3475 
Q 2822 3834 2567 4026 
Q 2313 4219 1838 4219 
Q 1578 4219 1281 4162 
Q 984 4106 628 3988 
L 628 4550 
Q 988 4650 1302 4700 
Q 1616 4750 1894 4750 
Q 2613 4750 3031 4423 
Q 3450 4097 3450 3541 
Q 3450 3153 3228 2886 
Q 3006 2619 2597 2516 
z
" transform="scale(0.015625)"/>
       </defs>
       <use xlink:href="#DejaVuSans-33"/>
       <use xlink:href="#DejaVuSans-30" x="63.623047"/>
       <use xlink:href="#DejaVuSans-30" x="127.246094"/>
      </g>
     </g>
    </g>
    <g id="xtick_5">
     <g id="line2d_5">
      <g>
       <use xlink:href="#me67998fc0a" x="371.490625" y="308.63625" style="stroke: #000000; stroke-width: 0.8"/>
      </g>
     </g>
     <g id="text_5">
      <!-- 400 -->
      <g transform="translate(352.403125 330.833125) scale(0.2 -0.2)">
       <defs>
        <path id="DejaVuSans-34" d="M 2419 4116 
L 825 1625 
L 2419 1625 
L 2419 4116 
z
M 2253 4666 
L 3047 4666 
L 3047 1625 
L 3713 1625 
L 3713 1100 
L 3047 1100 
L 3047 0 
L 2419 0 
L 2419 1100 
L 313 1100 
L 313 1709 
L 2253 4666 
z
" transform="scale(0.015625)"/>
       </defs>
       <use xlink:href="#DejaVuSans-34"/>
       <use xlink:href="#DejaVuSans-30" x="63.623047"/>
       <use xlink:href="#DejaVuSans-30" x="127.246094"/>
      </g>
     </g>
    </g>
    <g id="xtick_6">
     <g id="line2d_6">
      <g>
       <use xlink:href="#me67998fc0a" x="434.899716" y="308.63625" style="stroke: #000000; stroke-width: 0.8"/>
      </g>
     </g>
     <g id="text_6">
      <!-- 500 -->
      <g transform="translate(415.812216 330.833125) scale(0.2 -0.2)">
       <defs>
        <path id="DejaVuSans-35" d="M 691 4666 
L 3169 4666 
L 3169 4134 
L 1269 4134 
L 1269 2991 
Q 1406 3038 1543 3061 
Q 1681 3084 1819 3084 
Q 2600 3084 3056 2656 
Q 3513 2228 3513 1497 
Q 3513 744 3044 326 
Q 2575 -91 1722 -91 
Q 1428 -91 1123 -41 
Q 819 9 494 109 
L 494 744 
Q 775 591 1075 516 
Q 1375 441 1709 441 
Q 2250 441 2565 725 
Q 2881 1009 2881 1497 
Q 2881 1984 2565 2268 
Q 2250 2553 1709 2553 
Q 1456 2553 1204 2497 
Q 953 2441 691 2322 
L 691 4666 
z
" transform="scale(0.015625)"/>
       </defs>
       <use xlink:href="#DejaVuSans-35"/>
       <use xlink:href="#DejaVuSans-30" x="63.623047"/>
       <use xlink:href="#DejaVuSans-30" x="127.246094"/>
      </g>
     </g>
    </g>
    <g id="xtick_7">
     <g id="line2d_7">
      <g>
       <use xlink:href="#me67998fc0a" x="498.308807" y="308.63625" style="stroke: #000000; stroke-width: 0.8"/>
      </g>
     </g>
     <g id="text_7">
      <!-- 600 -->
      <g transform="translate(479.221307 330.833125) scale(0.2 -0.2)">
       <defs>
        <path id="DejaVuSans-36" d="M 2113 2584 
Q 1688 2584 1439 2293 
Q 1191 2003 1191 1497 
Q 1191 994 1439 701 
Q 1688 409 2113 409 
Q 2538 409 2786 701 
Q 3034 994 3034 1497 
Q 3034 2003 2786 2293 
Q 2538 2584 2113 2584 
z
M 3366 4563 
L 3366 3988 
Q 3128 4100 2886 4159 
Q 2644 4219 2406 4219 
Q 1781 4219 1451 3797 
Q 1122 3375 1075 2522 
Q 1259 2794 1537 2939 
Q 1816 3084 2150 3084 
Q 2853 3084 3261 2657 
Q 3669 2231 3669 1497 
Q 3669 778 3244 343 
Q 2819 -91 2113 -91 
Q 1303 -91 875 529 
Q 447 1150 447 2328 
Q 447 3434 972 4092 
Q 1497 4750 2381 4750 
Q 2619 4750 2861 4703 
Q 3103 4656 3366 4563 
z
" transform="scale(0.015625)"/>
       </defs>
       <use xlink:href="#DejaVuSans-36"/>
       <use xlink:href="#DejaVuSans-30" x="63.623047"/>
       <use xlink:href="#DejaVuSans-30" x="127.246094"/>
      </g>
     </g>
    </g>
    <g id="xtick_8">
     <g id="line2d_8">
      <g>
       <use xlink:href="#me67998fc0a" x="561.717898" y="308.63625" style="stroke: #000000; stroke-width: 0.8"/>
      </g>
     </g>
     <g id="text_8">
      <!-- 700 -->
      <g transform="translate(542.630398 330.833125) scale(0.2 -0.2)">
       <defs>
        <path id="DejaVuSans-37" d="M 525 4666 
L 3525 4666 
L 3525 4397 
L 1831 0 
L 1172 0 
L 2766 4134 
L 525 4134 
L 525 4666 
z
" transform="scale(0.015625)"/>
       </defs>
       <use xlink:href="#DejaVuSans-37"/>
       <use xlink:href="#DejaVuSans-30" x="63.623047"/>
       <use xlink:href="#DejaVuSans-30" x="127.246094"/>
      </g>
     </g>
    </g>
    <g id="xtick_9">
     <g id="line2d_9">
      <g>
       <use xlink:href="#me67998fc0a" x="625.126989" y="308.63625" style="stroke: #000000; stroke-width: 0.8"/>
      </g>
     </g>
     <g id="text_9">
      <!-- 800 -->
      <g transform="translate(606.039489 330.833125) scale(0.2 -0.2)">
       <defs>
        <path id="DejaVuSans-38" d="M 2034 2216 
Q 1584 2216 1326 1975 
Q 1069 1734 1069 1313 
Q 1069 891 1326 650 
Q 1584 409 2034 409 
Q 2484 409 2743 651 
Q 3003 894 3003 1313 
Q 3003 1734 2745 1975 
Q 2488 2216 2034 2216 
z
M 1403 2484 
Q 997 2584 770 2862 
Q 544 3141 544 3541 
Q 544 4100 942 4425 
Q 1341 4750 2034 4750 
Q 2731 4750 3128 4425 
Q 3525 4100 3525 3541 
Q 3525 3141 3298 2862 
Q 3072 2584 2669 2484 
Q 3125 2378 3379 2068 
Q 3634 1759 3634 1313 
Q 3634 634 3220 271 
Q 2806 -91 2034 -91 
Q 1263 -91 848 271 
Q 434 634 434 1313 
Q 434 1759 690 2068 
Q 947 2378 1403 2484 
z
M 1172 3481 
Q 1172 3119 1398 2916 
Q 1625 2713 2034 2713 
Q 2441 2713 2670 2916 
Q 2900 3119 2900 3481 
Q 2900 3844 2670 4047 
Q 2441 4250 2034 4250 
Q 1625 4250 1398 4047 
Q 1172 3844 1172 3481 
z
" transform="scale(0.015625)"/>
       </defs>
       <use xlink:href="#DejaVuSans-38"/>
       <use xlink:href="#DejaVuSans-30" x="63.623047"/>
       <use xlink:href="#DejaVuSans-30" x="127.246094"/>
      </g>
     </g>
    </g>
    <g id="text_10">
     <!-- iterations -->
     <g transform="translate(324.035938 354.189375) scale(0.2 -0.2)">
      <defs>
       <path id="DejaVuSans-69" d="M 603 3500 
L 1178 3500 
L 1178 0 
L 603 0 
L 603 3500 
z
M 603 4863 
L 1178 4863 
L 1178 4134 
L 603 4134 
L 603 4863 
z
" transform="scale(0.015625)"/>
       <path id="DejaVuSans-74" d="M 1172 4494 
L 1172 3500 
L 2356 3500 
L 2356 3053 
L 1172 3053 
L 1172 1153 
Q 1172 725 1289 603 
Q 1406 481 1766 481 
L 2356 481 
L 2356 0 
L 1766 0 
Q 1100 0 847 248 
Q 594 497 594 1153 
L 594 3053 
L 172 3053 
L 172 3500 
L 594 3500 
L 594 4494 
L 1172 4494 
z
" transform="scale(0.015625)"/>
       <path id="DejaVuSans-65" d="M 3597 1894 
L 3597 1613 
L 953 1613 
Q 991 1019 1311 708 
Q 1631 397 2203 397 
Q 2534 397 2845 478 
Q 3156 559 3463 722 
L 3463 178 
Q 3153 47 2828 -22 
Q 2503 -91 2169 -91 
Q 1331 -91 842 396 
Q 353 884 353 1716 
Q 353 2575 817 3079 
Q 1281 3584 2069 3584 
Q 2775 3584 3186 3129 
Q 3597 2675 3597 1894 
z
M 3022 2063 
Q 3016 2534 2758 2815 
Q 2500 3097 2075 3097 
Q 1594 3097 1305 2825 
Q 1016 2553 972 2059 
L 3022 2063 
z
" transform="scale(0.015625)"/>
       <path id="DejaVuSans-72" d="M 2631 2963 
Q 2534 3019 2420 3045 
Q 2306 3072 2169 3072 
Q 1681 3072 1420 2755 
Q 1159 2438 1159 1844 
L 1159 0 
L 581 0 
L 581 3500 
L 1159 3500 
L 1159 2956 
Q 1341 3275 1631 3429 
Q 1922 3584 2338 3584 
Q 2397 3584 2469 3576 
Q 2541 3569 2628 3553 
L 2631 2963 
z
" transform="scale(0.015625)"/>
       <path id="DejaVuSans-61" d="M 2194 1759 
Q 1497 1759 1228 1600 
Q 959 1441 959 1056 
Q 959 750 1161 570 
Q 1363 391 1709 391 
Q 2188 391 2477 730 
Q 2766 1069 2766 1631 
L 2766 1759 
L 2194 1759 
z
M 3341 1997 
L 3341 0 
L 2766 0 
L 2766 531 
Q 2569 213 2275 61 
Q 1981 -91 1556 -91 
Q 1019 -91 701 211 
Q 384 513 384 1019 
Q 384 1609 779 1909 
Q 1175 2209 1959 2209 
L 2766 2209 
L 2766 2266 
Q 2766 2663 2505 2880 
Q 2244 3097 1772 3097 
Q 1472 3097 1187 3025 
Q 903 2953 641 2809 
L 641 3341 
Q 956 3463 1253 3523 
Q 1550 3584 1831 3584 
Q 2591 3584 2966 3190 
Q 3341 2797 3341 1997 
z
" transform="scale(0.015625)"/>
       <path id="DejaVuSans-6f" d="M 1959 3097 
Q 1497 3097 1228 2736 
Q 959 2375 959 1747 
Q 959 1119 1226 758 
Q 1494 397 1959 397 
Q 2419 397 2687 759 
Q 2956 1122 2956 1747 
Q 2956 2369 2687 2733 
Q 2419 3097 1959 3097 
z
M 1959 3584 
Q 2709 3584 3137 3096 
Q 3566 2609 3566 1747 
Q 3566 888 3137 398 
Q 2709 -91 1959 -91 
Q 1206 -91 779 398 
Q 353 888 353 1747 
Q 353 2609 779 3096 
Q 1206 3584 1959 3584 
z
" transform="scale(0.015625)"/>
       <path id="DejaVuSans-6e" d="M 3513 2113 
L 3513 0 
L 2938 0 
L 2938 2094 
Q 2938 2591 2744 2837 
Q 2550 3084 2163 3084 
Q 1697 3084 1428 2787 
Q 1159 2491 1159 1978 
L 1159 0 
L 581 0 
L 581 3500 
L 1159 3500 
L 1159 2956 
Q 1366 3272 1645 3428 
Q 1925 3584 2291 3584 
Q 2894 3584 3203 3211 
Q 3513 2838 3513 2113 
z
" transform="scale(0.015625)"/>
       <path id="DejaVuSans-73" d="M 2834 3397 
L 2834 2853 
Q 2591 2978 2328 3040 
Q 2066 3103 1784 3103 
Q 1356 3103 1142 2972 
Q 928 2841 928 2578 
Q 928 2378 1081 2264 
Q 1234 2150 1697 2047 
L 1894 2003 
Q 2506 1872 2764 1633 
Q 3022 1394 3022 966 
Q 3022 478 2636 193 
Q 2250 -91 1575 -91 
Q 1294 -91 989 -36 
Q 684 19 347 128 
L 347 722 
Q 666 556 975 473 
Q 1284 391 1588 391 
Q 1994 391 2212 530 
Q 2431 669 2431 922 
Q 2431 1156 2273 1281 
Q 2116 1406 1581 1522 
L 1381 1569 
Q 847 1681 609 1914 
Q 372 2147 372 2553 
Q 372 3047 722 3315 
Q 1072 3584 1716 3584 
Q 2034 3584 2315 3537 
Q 2597 3491 2834 3397 
z
" transform="scale(0.015625)"/>
      </defs>
      <use xlink:href="#DejaVuSans-69"/>
      <use xlink:href="#DejaVuSans-74" x="27.783203"/>
      <use xlink:href="#DejaVuSans-65" x="66.992188"/>
      <use xlink:href="#DejaVuSans-72" x="128.515625"/>
      <use xlink:href="#DejaVuSans-61" x="169.628906"/>
      <use xlink:href="#DejaVuSans-74" x="230.908203"/>
      <use xlink:href="#DejaVuSans-69" x="270.117188"/>
      <use xlink:href="#DejaVuSans-6f" x="297.900391"/>
      <use xlink:href="#DejaVuSans-6e" x="359.082031"/>
      <use xlink:href="#DejaVuSans-73" x="422.460938"/>
     </g>
    </g>
   </g>
   <g id="matplotlib.axis_2">
    <g id="ytick_1">
     <g id="line2d_10">
      <defs>
       <path id="maae0beb629" d="M 0 0 
L -3.5 0 
" style="stroke: #000000; stroke-width: 0.8"/>
      </defs>
      <g>
       <use xlink:href="#maae0beb629" x="92.490625" y="308.301222" style="stroke: #000000; stroke-width: 0.8"/>
      </g>
     </g>
     <g id="text_11">
      <!-- −400 -->
      <g transform="translate(30.55625 315.89966) scale(0.2 -0.2)">
       <defs>
        <path id="DejaVuSans-2212" d="M 678 2272 
L 4684 2272 
L 4684 1741 
L 678 1741 
L 678 2272 
z
" transform="scale(0.015625)"/>
       </defs>
       <use xlink:href="#DejaVuSans-2212"/>
       <use xlink:href="#DejaVuSans-34" x="83.789062"/>
       <use xlink:href="#DejaVuSans-30" x="147.412109"/>
       <use xlink:href="#DejaVuSans-30" x="211.035156"/>
      </g>
     </g>
    </g>
    <g id="ytick_2">
     <g id="line2d_11">
      <g>
       <use xlink:href="#maae0beb629" x="92.490625" y="216.520244" style="stroke: #000000; stroke-width: 0.8"/>
      </g>
     </g>
     <g id="text_12">
      <!-- −200 -->
      <g transform="translate(30.55625 224.118682) scale(0.2 -0.2)">
       <use xlink:href="#DejaVuSans-2212"/>
       <use xlink:href="#DejaVuSans-32" x="83.789062"/>
       <use xlink:href="#DejaVuSans-30" x="147.412109"/>
       <use xlink:href="#DejaVuSans-30" x="211.035156"/>
      </g>
     </g>
    </g>
    <g id="ytick_3">
     <g id="line2d_12">
      <g>
       <use xlink:href="#maae0beb629" x="92.490625" y="124.739266" style="stroke: #000000; stroke-width: 0.8"/>
      </g>
     </g>
     <g id="text_13">
      <!-- 0 -->
      <g transform="translate(72.765625 132.337703) scale(0.2 -0.2)">
       <use xlink:href="#DejaVuSans-30"/>
      </g>
     </g>
    </g>
    <g id="ytick_4">
     <g id="line2d_13">
      <g>
       <use xlink:href="#maae0beb629" x="92.490625" y="32.958288" style="stroke: #000000; stroke-width: 0.8"/>
      </g>
     </g>
     <g id="text_14">
      <!-- 200 -->
      <g transform="translate(47.315625 40.556725) scale(0.2 -0.2)">
       <use xlink:href="#DejaVuSans-32"/>
       <use xlink:href="#DejaVuSans-30" x="63.623047"/>
       <use xlink:href="#DejaVuSans-30" x="127.246094"/>
      </g>
     </g>
    </g>
    <g id="text_15">
     <!-- Loss -->
     <g transform="translate(22.396875 191.970625) rotate(-90) scale(0.2 -0.2)">
      <defs>
       <path id="DejaVuSans-4c" d="M 628 4666 
L 1259 4666 
L 1259 531 
L 3531 531 
L 3531 0 
L 628 0 
L 628 4666 
z
" transform="scale(0.015625)"/>
      </defs>
      <use xlink:href="#DejaVuSans-4c"/>
      <use xlink:href="#DejaVuSans-6f" x="53.962891"/>
      <use xlink:href="#DejaVuSans-73" x="115.144531"/>
      <use xlink:href="#DejaVuSans-73" x="167.244141"/>
     </g>
    </g>
   </g>
   <g id="line2d_14">
    <path d="M 117.854261 68.010133 
L 118.488352 44.03625 
L 119.122443 82.894351 
L 119.756534 135.352713 
L 120.390625 149.038488 
L 121.024716 131.291508 
L 121.658807 102.480738 
L 122.292898 114.663802 
L 122.926989 109.036371 
L 123.56108 138.147454 
L 124.19517 138.134175 
L 125.463352 115.734088 
L 126.097443 94.696244 
L 127.365625 139.285864 
L 127.999716 148.794628 
L 128.633807 153.318112 
L 129.267898 156.877753 
L 129.901989 83.249261 
L 130.53608 75.174256 
L 131.17017 90.472575 
L 131.804261 116.457012 
L 132.438352 96.256189 
L 133.072443 94.259751 
L 133.706534 95.075452 
L 134.340625 105.7445 
L 134.974716 103.501109 
L 135.608807 98.938048 
L 136.242898 98.781496 
L 136.876989 115.658893 
L 137.51108 104.793282 
L 138.14517 107.674873 
L 138.779261 115.096063 
L 139.413352 112.159413 
L 140.047443 107.601371 
L 140.681534 104.28473 
L 141.315625 96.706982 
L 141.949716 93.680446 
L 142.583807 98.193758 
L 143.217898 106.085946 
L 143.851989 105.036287 
L 144.48608 102.32328 
L 145.12017 103.945881 
L 145.754261 99.317411 
L 146.388352 110.564882 
L 147.022443 112.307272 
L 147.656534 111.665537 
L 148.290625 108.167608 
L 148.924716 111.994753 
L 149.558807 117.502876 
L 150.192898 119.774341 
L 150.826989 119.367335 
L 151.46108 113.051816 
L 152.09517 123.794414 
L 152.729261 123.121725 
L 153.363352 116.751972 
L 153.997443 119.486809 
L 154.631534 125.7908 
L 155.265625 120.97786 
L 155.899716 122.459209 
L 156.533807 119.601567 
L 157.167898 123.368147 
L 157.801989 125.26741 
L 158.43608 126.254064 
L 159.704261 123.83292 
L 160.338352 125.066543 
L 160.972443 124.405088 
L 161.606534 124.342819 
L 162.240625 129.684678 
L 163.508807 122.440892 
L 164.142898 125.291613 
L 164.776989 126.638633 
L 165.41108 127.489029 
L 166.04517 124.104561 
L 166.679261 127.006761 
L 167.313352 124.634792 
L 167.947443 130.008476 
L 168.581534 132.148012 
L 169.215625 129.332871 
L 169.849716 130.19862 
L 170.483807 128.532356 
L 171.117898 130.615072 
L 171.751989 129.75035 
L 172.38608 131.974644 
L 173.02017 133.042215 
L 173.654261 130.869486 
L 174.288352 131.244071 
L 175.556534 129.485777 
L 176.190625 131.902921 
L 176.824716 130.300497 
L 177.458807 132.787354 
L 178.092898 130.1042 
L 178.726989 132.296661 
L 179.36108 128.828173 
L 179.99517 130.977045 
L 180.629261 133.624985 
L 181.263352 133.67938 
L 181.897443 132.890623 
L 182.531534 131.166154 
L 183.165625 130.029175 
L 183.799716 136.267329 
L 184.433807 133.171776 
L 185.067898 131.366796 
L 185.701989 131.143967 
L 186.33608 134.254403 
L 186.97017 133.153225 
L 187.604261 135.194366 
L 188.238352 132.960254 
L 189.506534 131.082405 
L 190.140625 132.584999 
L 190.774716 133.28086 
L 191.408807 131.34064 
L 192.042898 128.753412 
L 192.676989 129.527871 
L 193.31108 133.657564 
L 193.94517 133.308306 
L 194.579261 134.759946 
L 195.847443 132.202234 
L 196.481534 132.039851 
L 197.749716 128.292917 
L 198.383807 131.624082 
L 199.017898 132.367101 
L 199.651989 133.574511 
L 200.28608 133.467695 
L 200.92017 132.013518 
L 201.554261 133.775036 
L 202.822443 135.816838 
L 203.456534 134.15553 
L 204.090625 133.039205 
L 204.724716 132.365518 
L 205.358807 130.732202 
L 205.992898 130.422276 
L 207.26108 131.352335 
L 207.89517 130.397482 
L 208.529261 132.385544 
L 209.163352 133.44874 
L 209.797443 130.621022 
L 210.431534 129.915593 
L 211.065625 130.780378 
L 211.699716 130.366748 
L 212.333807 133.018114 
L 212.967898 129.699722 
L 213.601989 128.315437 
L 214.23608 131.243071 
L 214.87017 129.040349 
L 215.504261 129.159144 
L 216.138352 131.657577 
L 216.772443 130.8775 
L 217.406534 132.068264 
L 218.674716 129.381879 
L 219.308807 131.489051 
L 219.942898 132.135005 
L 220.576989 129.520044 
L 221.21108 128.526529 
L 221.84517 128.62714 
L 222.479261 129.507322 
L 223.113352 130.753813 
L 223.747443 131.148931 
L 224.381534 130.542598 
L 225.015625 130.694105 
L 225.649716 129.90088 
L 226.283807 130.887488 
L 226.917898 130.639837 
L 227.551989 129.355283 
L 228.18608 130.364738 
L 228.82017 132.129378 
L 229.454261 131.451921 
L 230.088352 133.778023 
L 230.722443 132.793608 
L 231.356534 132.710615 
L 231.990625 130.760632 
L 232.624716 131.242131 
L 233.258807 132.939387 
L 233.892898 133.68315 
L 234.526989 132.669464 
L 235.79517 132.445423 
L 236.429261 132.99424 
L 237.063352 133.06021 
L 237.697443 133.884776 
L 238.331534 132.891875 
L 238.965625 133.233263 
L 239.599716 133.746225 
L 240.233807 133.738837 
L 240.867898 134.525428 
L 241.501989 135.704528 
L 242.13608 132.744017 
L 242.77017 135.219024 
L 243.404261 135.591216 
L 244.038352 136.432579 
L 244.672443 132.965228 
L 245.306534 134.074961 
L 245.940625 133.540772 
L 246.574716 133.421911 
L 247.208807 135.236827 
L 247.842898 134.063046 
L 248.476989 133.228807 
L 249.11108 131.970848 
L 249.74517 134.240862 
L 250.379261 134.068398 
L 251.013352 134.936951 
L 251.647443 132.84045 
L 252.281534 131.756121 
L 252.915625 131.859176 
L 253.549716 132.698611 
L 254.183807 132.988609 
L 254.817898 131.533742 
L 255.451989 131.9431 
L 256.08608 132.900108 
L 256.72017 132.248788 
L 257.354261 134.623461 
L 257.988352 132.871426 
L 258.622443 133.638704 
L 259.256534 133.327539 
L 259.890625 131.803134 
L 260.524716 132.483812 
L 261.158807 131.304209 
L 261.792898 132.833603 
L 262.426989 131.565009 
L 263.06108 132.345541 
L 263.69517 132.763423 
L 264.329261 132.03401 
L 264.963352 132.010279 
L 265.597443 131.256279 
L 266.231534 133.787578 
L 266.865625 130.493204 
L 267.499716 130.135762 
L 268.133807 131.669798 
L 268.767898 129.935866 
L 269.401989 131.293905 
L 270.03608 131.094286 
L 271.304261 132.187449 
L 272.572443 131.860606 
L 273.206534 132.639894 
L 273.840625 131.282355 
L 274.474716 129.529896 
L 275.108807 132.111943 
L 276.376989 130.58016 
L 277.01108 130.407129 
L 277.64517 130.956694 
L 278.279261 129.941585 
L 278.913352 129.765758 
L 279.547443 130.065677 
L 280.181534 130.203255 
L 280.815625 129.980455 
L 281.449716 130.627125 
L 282.083807 129.133283 
L 282.717898 129.835422 
L 283.351989 129.533889 
L 283.98608 129.364363 
L 284.62017 130.856948 
L 285.254261 129.246312 
L 285.888352 129.706363 
L 286.522443 130.420866 
L 287.156534 129.545153 
L 287.790625 130.94038 
L 288.424716 129.371043 
L 289.058807 130.738 
L 289.692898 128.822413 
L 290.326989 130.609681 
L 290.96108 130.102713 
L 292.229261 128.586713 
L 292.863352 129.331779 
L 294.131534 130.013815 
L 294.765625 130.004582 
L 295.399716 129.563682 
L 296.033807 128.277651 
L 296.667898 129.132506 
L 297.301989 129.444018 
L 297.93608 130.328218 
L 298.57017 131.421887 
L 299.204261 130.156646 
L 300.472443 128.386728 
L 301.106534 130.002226 
L 301.740625 128.766129 
L 302.374716 129.727915 
L 303.008807 130.295393 
L 304.276989 130.22921 
L 304.91108 129.990359 
L 305.54517 130.146286 
L 306.179261 130.742029 
L 306.813352 130.232945 
L 307.447443 130.335787 
L 308.081534 130.008628 
L 308.715625 129.832388 
L 309.349716 129.938118 
L 309.983807 130.276968 
L 310.617898 129.159825 
L 311.251989 128.427935 
L 311.88608 128.815487 
L 312.52017 128.502613 
L 313.154261 130.018413 
L 313.788352 128.712991 
L 314.422443 129.533333 
L 315.056534 129.687427 
L 315.690625 128.563167 
L 316.324716 128.720108 
L 316.958807 129.560897 
L 317.592898 129.261363 
L 318.226989 129.333281 
L 318.86108 130.124582 
L 319.49517 128.725848 
L 320.763352 128.192742 
L 322.031534 128.481323 
L 322.665625 129.22743 
L 323.299716 129.363656 
L 323.933807 129.292759 
L 324.567898 128.9788 
L 325.83608 128.90032 
L 326.47017 130.108556 
L 327.104261 129.085007 
L 328.372443 128.25835 
L 329.006534 128.582519 
L 329.640625 128.639878 
L 330.274716 127.829148 
L 331.542898 127.621747 
L 332.176989 129.027438 
L 332.81108 128.3083 
L 333.44517 129.060965 
L 334.079261 128.862738 
L 334.713352 128.027623 
L 335.347443 127.590238 
L 335.981534 127.417529 
L 336.615625 128.046032 
L 337.249716 127.509991 
L 337.883807 127.816074 
L 338.517898 127.724732 
L 339.151989 128.205471 
L 339.78608 127.909681 
L 340.42017 128.495895 
L 341.054261 127.306562 
L 341.688352 127.660654 
L 342.322443 127.074124 
L 342.956534 127.464054 
L 343.590625 127.567987 
L 344.224716 127.49324 
L 345.492898 128.934154 
L 346.76108 127.494717 
L 347.39517 127.974081 
L 348.029261 127.963539 
L 348.663352 127.433418 
L 349.297443 128.445598 
L 349.931534 128.005912 
L 351.199716 127.934451 
L 351.833807 127.502908 
L 352.467898 128.276474 
L 353.101989 127.592299 
L 353.73608 127.820724 
L 354.37017 126.41959 
L 355.004261 127.184355 
L 355.638352 128.350894 
L 356.906534 126.478268 
L 357.540625 127.287549 
L 358.808807 127.097101 
L 359.442898 127.943905 
L 360.076989 127.522738 
L 360.71108 127.369173 
L 361.34517 128.15539 
L 361.979261 127.606288 
L 362.613352 128.470277 
L 363.247443 127.53738 
L 363.881534 128.0492 
L 364.515625 127.705244 
L 365.783807 128.758381 
L 366.417898 128.176185 
L 367.051989 128.949204 
L 367.68608 127.88594 
L 368.32017 128.758213 
L 369.588352 127.763718 
L 370.222443 128.040503 
L 370.856534 127.818379 
L 371.490625 128.539413 
L 372.124716 127.909191 
L 372.758807 127.620119 
L 373.392898 128.215233 
L 374.026989 127.871823 
L 374.66108 128.730731 
L 375.29517 127.830667 
L 375.929261 127.973207 
L 376.563352 128.302131 
L 377.197443 128.874641 
L 377.831534 128.730779 
L 378.465625 127.936563 
L 379.099716 128.147492 
L 381.001989 126.865166 
L 381.63608 126.205635 
L 382.27017 127.195389 
L 382.904261 127.405704 
L 383.538352 125.752486 
L 384.172443 127.181242 
L 384.806534 127.621653 
L 385.440625 128.285453 
L 386.708807 127.952824 
L 387.342898 127.320872 
L 387.976989 128.138393 
L 388.61108 127.595705 
L 389.24517 127.777125 
L 389.879261 127.076334 
L 390.513352 128.23788 
L 391.147443 127.355098 
L 391.781534 127.310545 
L 392.415625 127.383422 
L 393.049716 128.051083 
L 393.683807 127.910596 
L 394.317898 127.191374 
L 394.951989 127.862572 
L 395.58608 127.925051 
L 396.22017 128.140637 
L 396.854261 126.966591 
L 397.488352 127.601789 
L 398.122443 127.303259 
L 398.756534 128.020273 
L 399.390625 127.395705 
L 400.658807 127.549729 
L 401.292898 127.240643 
L 401.926989 127.562493 
L 402.56108 127.469046 
L 403.19517 127.017582 
L 403.829261 126.329977 
L 404.463352 123.594003 
L 405.097443 125.641018 
L 405.731534 126.194417 
L 406.365625 127.565289 
L 406.999716 125.926257 
L 407.633807 126.83942 
L 408.901989 127.662776 
L 409.53608 127.0441 
L 410.17017 127.646191 
L 410.804261 126.217146 
L 411.438352 127.246878 
L 412.072443 126.968989 
L 412.706534 127.389283 
L 413.340625 127.366595 
L 413.974716 126.909622 
L 414.608807 126.920462 
L 415.242898 127.869458 
L 415.876989 127.673739 
L 416.51108 128.140586 
L 417.14517 128.296592 
L 417.779261 127.668539 
L 418.413352 127.522494 
L 419.047443 127.864583 
L 419.681534 128.588431 
L 420.315625 128.132745 
L 420.949716 128.535777 
L 421.583807 127.35185 
L 422.217898 126.453202 
L 423.48608 127.878267 
L 424.12017 127.473338 
L 425.388352 127.994517 
L 426.022443 127.785176 
L 426.656534 127.876873 
L 427.290625 128.483396 
L 427.924716 128.793588 
L 428.558807 128.220969 
L 429.192898 127.947937 
L 429.826989 128.312831 
L 430.46108 128.854793 
L 431.09517 128.997201 
L 431.729261 129.420327 
L 432.363352 127.991662 
L 432.997443 128.745344 
L 433.631534 128.776292 
L 434.265625 128.306823 
L 436.167898 127.365727 
L 436.801989 128.478041 
L 437.43608 127.867424 
L 438.07017 128.945239 
L 438.704261 127.881041 
L 439.338352 127.1771 
L 439.972443 128.168141 
L 440.606534 126.793318 
L 441.240625 127.978285 
L 441.874716 128.793073 
L 442.508807 128.765525 
L 443.142898 127.131237 
L 443.776989 128.101187 
L 445.04517 127.293432 
L 445.679261 127.158085 
L 446.313352 128.714304 
L 446.947443 128.370978 
L 447.581534 128.486902 
L 448.215625 128.947382 
L 448.849716 128.838007 
L 449.483807 128.260208 
L 450.117898 127.950895 
L 450.751989 126.283135 
L 451.38608 128.140022 
L 452.654261 126.207577 
L 453.288352 127.539877 
L 453.922443 127.357292 
L 455.190625 126.763006 
L 455.824716 127.259967 
L 456.458807 126.996985 
L 457.092898 126.529472 
L 458.36108 127.412347 
L 458.99517 127.049697 
L 459.629261 126.292813 
L 460.263352 126.895689 
L 460.897443 126.452249 
L 461.531534 126.552457 
L 462.165625 125.732269 
L 462.799716 127.180789 
L 463.433807 126.470533 
L 464.067898 128.10307 
L 464.701989 127.623482 
L 465.33608 126.756451 
L 465.97017 126.674386 
L 466.604261 126.430197 
L 467.238352 126.382953 
L 467.872443 126.125891 
L 468.506534 126.832502 
L 469.140625 126.755911 
L 469.774716 127.53797 
L 470.408807 126.623237 
L 471.042898 127.500371 
L 471.676989 127.788318 
L 472.31108 127.217003 
L 472.94517 125.721419 
L 473.579261 127.374596 
L 474.213352 126.931644 
L 474.847443 126.74159 
L 475.481534 127.096731 
L 476.115625 126.733166 
L 476.749716 126.862768 
L 477.383807 127.330305 
L 478.017898 126.593448 
L 478.651989 127.082128 
L 479.28608 126.241215 
L 479.92017 126.633846 
L 480.554261 126.147503 
L 481.188352 126.651037 
L 481.822443 127.735513 
L 483.090625 127.235319 
L 483.724716 126.961516 
L 484.358807 127.437199 
L 484.992898 127.198821 
L 485.626989 128.460895 
L 486.89517 127.468841 
L 488.163352 126.841378 
L 488.797443 128.237104 
L 489.431534 128.194875 
L 490.065625 127.590703 
L 490.699716 128.171441 
L 491.333807 128.288059 
L 491.967898 127.73191 
L 492.601989 125.465954 
L 493.23608 127.135651 
L 493.87017 127.340297 
L 494.504261 127.065755 
L 496.406534 126.838191 
L 497.040625 127.52029 
L 497.674716 127.098561 
L 498.308807 126.969432 
L 498.942898 126.098803 
L 499.576989 126.906418 
L 500.21108 127.215905 
L 500.84517 127.302956 
L 501.479261 127.894747 
L 502.113352 127.955347 
L 502.747443 127.820972 
L 504.015625 127.888876 
L 504.649716 128.066486 
L 505.283807 128.803499 
L 505.917898 128.845657 
L 506.551989 127.944364 
L 507.18608 127.772268 
L 507.82017 127.404629 
L 508.454261 128.84971 
L 509.088352 128.150776 
L 510.356534 128.344491 
L 510.990625 128.322087 
L 511.624716 128.418924 
L 512.258807 129.027839 
L 512.892898 127.744921 
L 513.526989 128.373087 
L 514.16108 128.703798 
L 514.79517 128.760818 
L 515.429261 128.525646 
L 516.063352 127.503979 
L 516.697443 128.062294 
L 517.965625 128.643735 
L 519.867898 128.131017 
L 520.501989 128.268253 
L 521.13608 128.735457 
L 521.77017 128.723364 
L 522.404261 128.321858 
L 523.038352 128.121742 
L 523.672443 128.456856 
L 524.940625 127.55073 
L 525.574716 128.638946 
L 526.208807 127.979961 
L 526.842898 127.939318 
L 527.476989 128.899886 
L 529.379261 128.486266 
L 530.013352 128.134005 
L 531.281534 128.665262 
L 531.915625 128.103499 
L 532.549716 128.333266 
L 533.183807 128.272072 
L 533.817898 128.749882 
L 534.451989 128.50958 
L 536.354261 128.499473 
L 537.622443 127.554026 
L 539.524716 128.884605 
L 540.158807 127.878574 
L 540.792898 128.530693 
L 541.426989 128.326842 
L 542.06108 127.605462 
L 542.69517 128.513567 
L 543.329261 128.938562 
L 544.597443 128.72805 
L 545.231534 128.386151 
L 545.865625 128.783101 
L 546.499716 128.184901 
L 547.767898 128.133105 
L 548.401989 128.750582 
L 549.03608 129.568759 
L 549.67017 129.101744 
L 550.304261 128.148939 
L 550.938352 128.871646 
L 551.572443 128.615969 
L 552.206534 129.793413 
L 552.840625 129.034977 
L 553.474716 128.759412 
L 554.108807 128.825487 
L 554.742898 128.702248 
L 556.01108 128.989234 
L 556.64517 129.501328 
L 557.279261 128.900245 
L 557.913352 128.86146 
L 558.547443 129.53309 
L 559.181534 128.054782 
L 559.815625 129.236677 
L 560.449716 129.465643 
L 561.083807 129.964422 
L 561.717898 128.734684 
L 562.351989 128.215194 
L 562.98608 129.03556 
L 563.62017 128.773163 
L 564.254261 129.047373 
L 565.522443 129.044006 
L 566.156534 129.319321 
L 566.790625 128.563791 
L 567.424716 129.011729 
L 568.058807 128.318426 
L 568.692898 128.286183 
L 569.326989 127.138914 
L 569.96108 128.622457 
L 570.59517 128.504327 
L 571.229261 128.592736 
L 571.863352 128.832187 
L 573.131534 129.037423 
L 574.399716 127.809104 
L 575.033807 128.392742 
L 575.667898 127.990917 
L 576.301989 128.813058 
L 576.93608 128.313435 
L 577.57017 128.162896 
L 578.204261 127.789042 
L 578.838352 128.223701 
L 579.472443 128.43314 
L 580.106534 128.489887 
L 580.740625 128.121951 
L 581.374716 127.979753 
L 582.008807 128.462189 
L 582.642898 128.703921 
L 583.276989 127.683583 
L 583.91108 127.67312 
L 584.54517 128.074475 
L 585.179261 127.454904 
L 585.813352 127.970714 
L 586.447443 129.080553 
L 587.081534 129.154413 
L 587.715625 128.514427 
L 588.349716 129.011695 
L 588.983807 128.909241 
L 589.617898 128.977208 
L 590.251989 128.132629 
L 590.88608 128.556288 
L 591.52017 127.716828 
L 592.154261 128.307662 
L 592.788352 128.415071 
L 593.422443 128.86873 
L 594.056534 129.115289 
L 594.690625 128.582988 
L 595.324716 128.590721 
L 596.592898 128.286928 
L 597.86108 128.424822 
L 598.49517 128.333838 
L 599.129261 128.597987 
L 599.763352 127.948214 
L 600.397443 128.183036 
L 601.031534 128.928406 
L 601.665625 128.505044 
L 602.299716 128.977094 
L 602.933807 127.945485 
L 603.567898 128.972658 
L 604.201989 128.971656 
L 604.83608 128.845404 
L 605.47017 129.12386 
L 606.104261 128.708879 
L 606.738352 128.582957 
L 607.372443 127.836887 
L 608.006534 130.04573 
L 608.640625 128.798843 
L 609.274716 129.143693 
L 609.908807 128.329285 
L 610.542898 129.239804 
L 611.176989 128.930261 
L 611.81108 128.951432 
L 612.44517 129.382906 
L 613.079261 129.070555 
L 613.713352 128.082144 
L 614.347443 128.609262 
L 615.615625 128.725486 
L 616.249716 128.285281 
L 616.883807 128.905435 
L 617.517898 128.931916 
L 618.151989 128.470201 
L 618.78608 128.500942 
L 619.42017 128.307246 
L 620.688352 128.803581 
L 621.322443 128.133226 
L 622.590625 127.877252 
L 623.224716 128.187444 
L 623.858807 128.324657 
L 624.492898 128.133732 
L 625.126989 129.491465 
L 625.126989 129.491465 
" clip-path="url(#p276592a8da)" style="fill: none; stroke: #1f77b4; stroke-width: 1.5; stroke-linecap: square"/>
   </g>
   <g id="line2d_15">
    <path d="M 117.854261 272.296377 
L 118.488352 296.03625 
L 119.122443 264.026086 
L 119.756534 207.799987 
L 120.390625 243.066594 
L 121.024716 193.629605 
L 121.658807 187.417065 
L 122.292898 175.612571 
L 122.926989 188.708502 
L 123.56108 182.468813 
L 124.19517 171.245586 
L 124.829261 163.200798 
L 125.463352 165.079255 
L 126.097443 164.641227 
L 126.731534 164.583714 
L 127.365625 170.878139 
L 127.999716 192.699071 
L 128.633807 175.336276 
L 129.267898 168.049861 
L 129.901989 151.28019 
L 130.53608 159.248282 
L 131.17017 146.28808 
L 131.804261 140.901759 
L 132.438352 145.551194 
L 133.072443 142.666678 
L 133.706534 143.648375 
L 134.340625 145.606527 
L 134.974716 140.852092 
L 135.608807 145.328446 
L 136.242898 143.822301 
L 136.876989 139.007021 
L 137.51108 137.082641 
L 138.14517 136.292485 
L 138.779261 134.505795 
L 139.413352 136.254305 
L 140.047443 137.319965 
L 140.681534 137.857859 
L 141.315625 137.248942 
L 141.949716 137.370009 
L 142.583807 140.140774 
L 143.217898 136.559143 
L 143.851989 136.20536 
L 144.48608 136.796645 
L 145.12017 135.641941 
L 145.754261 138.298132 
L 146.388352 136.548575 
L 147.022443 138.086089 
L 147.656534 137.093049 
L 148.290625 139.686466 
L 148.924716 134.660049 
L 149.558807 136.760201 
L 150.192898 136.928963 
L 150.826989 137.545384 
L 152.09517 135.145935 
L 153.363352 138.556555 
L 153.997443 138.551237 
L 154.631534 137.30024 
L 155.265625 134.618055 
L 155.899716 136.359067 
L 156.533807 135.329998 
L 157.801989 134.580303 
L 158.43608 133.586949 
L 159.07017 134.311701 
L 159.704261 134.512647 
L 160.338352 134.178027 
L 160.972443 133.276789 
L 161.606534 134.796104 
L 162.240625 135.5698 
L 162.874716 133.398496 
L 163.508807 134.94464 
L 164.142898 135.594839 
L 164.776989 136.023794 
L 165.41108 134.271671 
L 166.04517 133.52041 
L 166.679261 134.134421 
L 167.313352 134.354601 
L 167.947443 134.101571 
L 168.581534 134.851017 
L 169.215625 135.281328 
L 169.849716 134.599304 
L 170.483807 133.753552 
L 171.117898 134.350299 
L 171.751989 134.197715 
L 172.38608 135.957243 
L 173.02017 133.746004 
L 173.654261 134.598264 
L 174.288352 133.655918 
L 174.922443 134.480093 
L 175.556534 134.348458 
L 176.190625 134.696788 
L 176.824716 133.512672 
L 177.458807 135.221075 
L 178.092898 133.730723 
L 178.726989 134.529465 
L 179.36108 132.370661 
L 180.629261 134.572126 
L 181.263352 134.072371 
L 181.897443 134.627531 
L 182.531534 133.686821 
L 183.165625 135.793761 
L 183.799716 136.798164 
L 184.433807 135.970146 
L 185.067898 136.020147 
L 186.33608 133.937679 
L 186.97017 133.883375 
L 187.604261 135.783679 
L 188.238352 134.246771 
L 188.872443 134.67069 
L 189.506534 133.787839 
L 190.140625 133.98603 
L 190.774716 133.749291 
L 191.408807 134.937766 
L 192.042898 133.590693 
L 192.676989 133.948955 
L 193.94517 135.163464 
L 194.579261 135.250225 
L 195.213352 133.417657 
L 195.847443 134.83951 
L 196.481534 134.042226 
L 197.115625 133.857755 
L 197.749716 132.744474 
L 198.383807 133.127158 
L 199.017898 133.733979 
L 200.28608 132.540356 
L 200.92017 132.381644 
L 201.554261 133.468012 
L 202.188352 132.89523 
L 202.822443 133.132457 
L 203.456534 133.054752 
L 204.090625 134.444325 
L 204.724716 134.492291 
L 205.358807 132.703812 
L 205.992898 132.803628 
L 206.626989 132.034225 
L 207.26108 131.855089 
L 207.89517 132.523579 
L 208.529261 133.899917 
L 209.163352 133.3576 
L 209.797443 133.204065 
L 210.431534 132.664753 
L 211.065625 133.850222 
L 211.699716 132.380251 
L 212.333807 134.508646 
L 212.967898 132.891838 
L 213.601989 132.60006 
L 214.87017 133.371722 
L 216.138352 133.289836 
L 216.772443 133.233779 
L 217.406534 132.59753 
L 218.040625 133.140671 
L 218.674716 133.469409 
L 219.308807 135.298431 
L 219.942898 133.081593 
L 220.576989 133.76687 
L 221.21108 133.628306 
L 221.84517 134.142602 
L 223.113352 133.234211 
L 223.747443 133.387198 
L 224.381534 132.977919 
L 225.015625 133.963267 
L 225.649716 133.314476 
L 226.283807 132.411628 
L 226.917898 133.066124 
L 227.551989 134.496277 
L 228.18608 133.755932 
L 228.82017 135.162542 
L 229.454261 133.581566 
L 230.088352 133.305612 
L 230.722443 133.524542 
L 231.990625 133.266223 
L 232.624716 134.589685 
L 233.258807 133.405029 
L 234.526989 134.669077 
L 235.16108 133.501361 
L 235.79517 134.54872 
L 236.429261 134.330751 
L 237.063352 133.594184 
L 237.697443 133.685259 
L 238.331534 133.132268 
L 239.599716 134.556337 
L 240.233807 134.747522 
L 240.867898 133.734818 
L 241.501989 134.057103 
L 242.13608 133.400449 
L 243.404261 135.078663 
L 244.038352 134.763415 
L 244.672443 132.670398 
L 245.306534 133.845273 
L 245.940625 134.183134 
L 246.574716 135.394309 
L 247.208807 134.32218 
L 247.842898 135.40424 
L 248.476989 135.965906 
L 249.11108 134.883353 
L 249.74517 135.13337 
L 250.379261 133.912702 
L 251.013352 134.390122 
L 251.647443 133.280426 
L 252.281534 133.387114 
L 253.549716 133.884612 
L 254.183807 134.965188 
L 254.817898 135.665181 
L 255.451989 133.526647 
L 256.08608 134.958716 
L 256.72017 134.407457 
L 257.354261 133.612359 
L 257.988352 132.453903 
L 258.622443 132.901754 
L 259.256534 134.501656 
L 259.890625 132.691125 
L 260.524716 132.707572 
L 261.158807 133.549338 
L 261.792898 133.084856 
L 262.426989 134.094326 
L 263.06108 134.739972 
L 263.69517 133.289971 
L 264.329261 133.717798 
L 264.963352 134.941621 
L 265.597443 133.779234 
L 266.231534 134.403515 
L 266.865625 132.779398 
L 267.499716 134.351158 
L 268.133807 134.337696 
L 268.767898 134.155492 
L 269.401989 132.525546 
L 270.03608 133.086877 
L 270.67017 131.931183 
L 271.304261 134.582029 
L 271.938352 134.47649 
L 273.206534 133.679502 
L 273.840625 133.335482 
L 275.108807 133.982783 
L 275.742898 133.474433 
L 276.376989 133.545177 
L 277.01108 134.065804 
L 277.64517 133.091783 
L 278.279261 133.394984 
L 278.913352 133.362916 
L 279.547443 133.734817 
L 280.815625 133.935786 
L 281.449716 134.215488 
L 282.083807 133.965623 
L 282.717898 135.494185 
L 283.98608 133.550128 
L 284.62017 133.11194 
L 285.254261 132.238664 
L 285.888352 132.453043 
L 286.522443 130.810441 
L 287.790625 134.124518 
L 288.424716 135.103878 
L 289.058807 133.781092 
L 289.692898 133.99295 
L 290.326989 132.891941 
L 290.96108 133.912624 
L 291.59517 133.264993 
L 292.863352 131.713326 
L 293.497443 132.090483 
L 294.131534 132.856766 
L 294.765625 133.123812 
L 295.399716 133.135695 
L 296.033807 132.27877 
L 296.667898 132.610056 
L 297.301989 134.40004 
L 297.93608 133.040585 
L 298.57017 133.285989 
L 299.204261 133.033763 
L 299.838352 134.071489 
L 300.472443 133.40679 
L 301.740625 133.948797 
L 302.374716 133.393113 
L 303.008807 134.972785 
L 303.642898 133.784309 
L 304.276989 134.35198 
L 304.91108 133.539669 
L 305.54517 133.178662 
L 306.179261 134.394646 
L 306.813352 132.953353 
L 307.447443 132.700312 
L 308.081534 133.263802 
L 308.715625 133.674356 
L 309.349716 132.279369 
L 309.983807 132.540283 
L 310.617898 132.63201 
L 311.251989 132.106652 
L 312.52017 131.875436 
L 313.154261 132.101985 
L 313.788352 131.632349 
L 314.422443 132.243352 
L 315.056534 131.312647 
L 315.690625 132.518016 
L 316.324716 132.074249 
L 316.958807 133.525432 
L 317.592898 132.311771 
L 318.226989 131.365266 
L 318.86108 132.376833 
L 319.49517 132.470925 
L 320.763352 131.396327 
L 321.397443 131.54476 
L 322.031534 132.302675 
L 322.665625 131.590595 
L 323.299716 132.470348 
L 323.933807 132.412599 
L 324.567898 131.673215 
L 325.83608 133.198533 
L 326.47017 133.673751 
L 327.104261 132.436078 
L 327.738352 131.4986 
L 328.372443 132.618971 
L 329.006534 132.490221 
L 329.640625 132.556169 
L 330.274716 131.788266 
L 330.908807 131.942189 
L 331.542898 131.903216 
L 332.176989 132.539686 
L 332.81108 130.569412 
L 333.44517 131.466622 
L 334.079261 132.033561 
L 334.713352 131.906376 
L 335.347443 130.992269 
L 336.615625 132.544933 
L 337.249716 132.199204 
L 337.883807 132.783126 
L 338.517898 132.067351 
L 339.151989 132.47541 
L 339.78608 132.238959 
L 340.42017 132.671792 
L 341.054261 132.285419 
L 341.688352 132.183509 
L 342.322443 131.733499 
L 343.590625 132.243679 
L 344.224716 132.787757 
L 346.126989 132.398486 
L 347.39517 132.428882 
L 348.029261 131.97184 
L 348.663352 132.431972 
L 349.297443 133.559509 
L 349.931534 133.063622 
L 350.565625 133.288699 
L 351.199716 132.205903 
L 351.833807 132.12337 
L 352.467898 131.742718 
L 353.101989 132.882066 
L 355.004261 132.404978 
L 356.272443 132.463904 
L 356.906534 131.924399 
L 357.540625 132.932016 
L 358.174716 132.058467 
L 358.808807 131.58803 
L 359.442898 132.137126 
L 360.076989 131.581192 
L 360.71108 132.375005 
L 361.34517 132.978092 
L 361.979261 133.131272 
L 362.613352 134.108581 
L 363.247443 132.805618 
L 363.881534 132.444667 
L 364.515625 132.462697 
L 365.149716 132.82047 
L 365.783807 132.728157 
L 367.051989 132.097278 
L 367.68608 132.340179 
L 368.32017 132.742722 
L 368.954261 133.609747 
L 369.588352 132.67693 
L 370.222443 132.79041 
L 370.856534 132.485461 
L 371.490625 132.365072 
L 372.124716 133.161963 
L 372.758807 133.657013 
L 373.392898 132.932014 
L 374.026989 133.725188 
L 375.29517 133.602527 
L 375.929261 132.867533 
L 376.563352 132.317633 
L 377.197443 133.242729 
L 377.831534 134.369376 
L 378.465625 133.267726 
L 379.099716 134.488446 
L 379.733807 133.333287 
L 380.367898 133.597625 
L 381.001989 135.119699 
L 381.63608 133.710805 
L 382.27017 134.149777 
L 382.904261 133.742468 
L 383.538352 131.405445 
L 384.806534 134.263899 
L 385.440625 132.946087 
L 386.074716 133.713455 
L 386.708807 133.403473 
L 387.342898 132.451649 
L 387.976989 132.25086 
L 388.61108 132.746294 
L 389.24517 133.543493 
L 389.879261 134.145032 
L 390.513352 133.773815 
L 391.147443 132.745112 
L 391.781534 133.204419 
L 392.415625 132.526789 
L 393.683807 132.501007 
L 394.317898 132.877976 
L 394.951989 132.827072 
L 395.58608 133.125438 
L 396.22017 133.077798 
L 397.488352 132.281847 
L 398.122443 132.139013 
L 398.756534 133.059999 
L 399.390625 132.847204 
L 400.024716 133.215277 
L 400.658807 133.038088 
L 401.292898 133.341311 
L 401.926989 133.198229 
L 402.56108 132.869768 
L 403.19517 131.541686 
L 403.829261 130.601714 
L 404.463352 130.221287 
L 405.097443 132.44365 
L 405.731534 132.860736 
L 406.365625 132.116999 
L 406.999716 132.416893 
L 407.633807 132.019425 
L 408.267898 132.093121 
L 408.901989 131.574188 
L 409.53608 131.30707 
L 410.17017 131.666799 
L 410.804261 131.029464 
L 411.438352 133.131409 
L 412.706534 131.66752 
L 413.340625 130.991933 
L 413.974716 131.632793 
L 415.242898 132.233251 
L 415.876989 131.305001 
L 416.51108 130.814976 
L 417.14517 131.642424 
L 417.779261 132.145508 
L 418.413352 131.893631 
L 419.047443 131.26196 
L 419.681534 131.298169 
L 420.315625 132.251309 
L 420.949716 131.744891 
L 421.583807 131.722877 
L 422.217898 131.213984 
L 422.851989 133.009789 
L 423.48608 132.112158 
L 424.754261 132.428836 
L 425.388352 132.054355 
L 426.656534 133.03029 
L 427.290625 132.790353 
L 427.924716 133.726846 
L 428.558807 131.680295 
L 429.192898 132.280318 
L 429.826989 133.309699 
L 430.46108 132.588921 
L 431.09517 132.646088 
L 431.729261 132.094469 
L 432.363352 132.633491 
L 432.997443 132.299455 
L 433.631534 132.719236 
L 434.265625 132.658564 
L 434.899716 130.7238 
L 435.533807 132.541882 
L 436.167898 131.890837 
L 436.801989 132.252463 
L 437.43608 132.059202 
L 438.704261 131.33064 
L 439.338352 131.620803 
L 439.972443 132.843674 
L 440.606534 132.807016 
L 441.240625 132.123512 
L 441.874716 132.344499 
L 442.508807 132.697557 
L 443.142898 132.59924 
L 443.776989 131.928732 
L 444.41108 132.041675 
L 445.04517 132.651605 
L 445.679261 132.183978 
L 446.947443 133.385368 
L 448.215625 133.234771 
L 449.483807 133.314622 
L 450.117898 133.123202 
L 450.751989 130.267198 
L 451.38608 131.961519 
L 452.02017 132.457787 
L 452.654261 131.922502 
L 453.288352 132.137043 
L 453.922443 131.904927 
L 454.556534 132.655 
L 455.190625 132.616746 
L 455.824716 131.219268 
L 456.458807 130.828335 
L 457.092898 131.633501 
L 457.726989 131.692301 
L 458.36108 133.00353 
L 458.99517 131.70666 
L 459.629261 132.741796 
L 460.263352 131.429345 
L 461.531534 131.603527 
L 462.165625 132.149271 
L 462.799716 131.578289 
L 463.433807 131.710636 
L 464.067898 133.077386 
L 464.701989 133.171804 
L 465.33608 131.927192 
L 465.97017 131.326142 
L 466.604261 131.693857 
L 467.238352 131.160785 
L 467.872443 132.014318 
L 469.140625 131.679714 
L 469.774716 131.938007 
L 470.408807 131.955963 
L 471.042898 132.66614 
L 471.676989 132.074235 
L 472.94517 131.45893 
L 473.579261 131.684332 
L 474.213352 132.235263 
L 474.847443 131.630971 
L 475.481534 132.221324 
L 476.115625 132.119814 
L 476.749716 132.407691 
L 477.383807 132.042115 
L 478.017898 131.368889 
L 478.651989 132.476174 
L 479.28608 132.517321 
L 479.92017 131.085981 
L 480.554261 131.956984 
L 481.188352 131.732544 
L 481.822443 132.372228 
L 482.456534 131.597795 
L 483.090625 131.822922 
L 483.724716 130.872069 
L 484.358807 132.252918 
L 484.992898 131.896233 
L 485.626989 132.798829 
L 486.89517 131.423575 
L 487.529261 132.113453 
L 488.163352 131.16003 
L 488.797443 132.417548 
L 489.431534 132.480037 
L 490.065625 131.610612 
L 490.699716 131.893874 
L 491.967898 130.508775 
L 492.601989 129.977019 
L 493.23608 131.37025 
L 493.87017 130.291315 
L 494.504261 131.423547 
L 495.138352 130.796264 
L 495.772443 131.738487 
L 496.406534 131.537825 
L 497.040625 130.668533 
L 497.674716 131.041875 
L 498.308807 130.949823 
L 498.942898 131.078029 
L 499.576989 131.601004 
L 500.21108 131.066591 
L 500.84517 130.974 
L 501.479261 130.53843 
L 502.113352 131.155066 
L 502.747443 131.48501 
L 503.381534 131.632228 
L 504.649716 130.628291 
L 505.283807 132.335118 
L 505.917898 131.484981 
L 506.551989 131.950548 
L 507.18608 131.455994 
L 507.82017 131.328138 
L 509.088352 130.68959 
L 509.722443 131.92097 
L 510.356534 131.415325 
L 510.990625 131.543803 
L 511.624716 131.519969 
L 512.258807 131.803965 
L 512.892898 131.677254 
L 513.526989 131.359358 
L 514.16108 131.90808 
L 514.79517 131.520382 
L 515.429261 131.787374 
L 516.063352 131.411736 
L 516.697443 131.404292 
L 517.331534 132.255072 
L 517.965625 131.798463 
L 518.599716 130.909378 
L 519.233807 131.273687 
L 519.867898 131.908029 
L 520.501989 131.302501 
L 521.13608 131.099072 
L 521.77017 131.333146 
L 522.404261 131.356257 
L 523.038352 130.961632 
L 523.672443 131.366747 
L 524.306534 130.951825 
L 524.940625 131.143372 
L 525.574716 131.212655 
L 526.208807 131.168558 
L 526.842898 130.967352 
L 527.476989 131.518516 
L 528.74517 131.433964 
L 529.379261 131.759866 
L 530.647443 131.484234 
L 531.281534 131.763791 
L 531.915625 131.549835 
L 532.549716 131.751839 
L 533.183807 131.656265 
L 533.817898 132.157738 
L 534.451989 131.513777 
L 535.08608 131.526221 
L 535.72017 131.854591 
L 536.354261 132.654571 
L 537.622443 131.865287 
L 538.256534 130.593149 
L 538.890625 131.921112 
L 539.524716 131.63564 
L 540.158807 130.461283 
L 541.426989 130.893114 
L 542.06108 131.384476 
L 542.69517 130.934519 
L 543.329261 131.984969 
L 543.963352 131.163396 
L 544.597443 131.732841 
L 545.231534 131.006899 
L 545.865625 131.856539 
L 546.499716 131.359202 
L 547.133807 132.228461 
L 547.767898 130.795866 
L 548.401989 131.643273 
L 549.03608 132.082196 
L 549.67017 131.832027 
L 550.304261 132.757849 
L 550.938352 132.44943 
L 551.572443 132.587832 
L 552.206534 131.584111 
L 552.840625 131.543406 
L 553.474716 131.805415 
L 554.108807 131.450258 
L 555.376989 131.646294 
L 556.01108 132.107408 
L 556.64517 131.880479 
L 557.279261 132.134369 
L 557.913352 131.970307 
L 558.547443 132.386177 
L 559.181534 132.565465 
L 559.815625 131.64731 
L 560.449716 132.947028 
L 561.083807 131.513955 
L 561.717898 130.972511 
L 562.351989 131.252736 
L 562.98608 131.206001 
L 565.522443 132.653737 
L 566.156534 131.817172 
L 566.790625 132.11926 
L 567.424716 132.101248 
L 568.058807 131.966333 
L 568.692898 132.36078 
L 569.326989 131.258936 
L 569.96108 131.780393 
L 570.59517 131.54957 
L 571.863352 132.062622 
L 572.497443 131.957732 
L 573.131534 131.340718 
L 574.399716 131.670869 
L 575.033807 132.04183 
L 575.667898 132.236152 
L 576.301989 131.734186 
L 577.57017 131.782786 
L 578.204261 132.226408 
L 578.838352 132.283621 
L 579.472443 132.111478 
L 580.106534 132.220502 
L 580.740625 131.680684 
L 581.374716 132.290601 
L 582.008807 132.376387 
L 582.642898 133.543685 
L 583.276989 132.38326 
L 583.91108 131.997624 
L 584.54517 132.406125 
L 585.179261 131.864386 
L 585.813352 132.229356 
L 586.447443 132.464632 
L 587.081534 132.973723 
L 587.715625 132.207043 
L 588.349716 132.183732 
L 588.983807 132.917983 
L 589.617898 132.879916 
L 590.251989 131.609121 
L 590.88608 131.75248 
L 591.52017 131.61044 
L 592.154261 132.08651 
L 592.788352 131.515783 
L 593.422443 131.668492 
L 594.690625 130.424179 
L 595.324716 131.188671 
L 595.958807 131.541565 
L 596.592898 131.578801 
L 597.226989 131.760852 
L 597.86108 132.089249 
L 598.49517 131.078796 
L 599.129261 132.11539 
L 599.763352 131.641106 
L 600.397443 131.402283 
L 601.031534 130.979465 
L 601.665625 131.242137 
L 602.933807 131.105524 
L 603.567898 132.424635 
L 604.201989 132.220091 
L 604.83608 131.791997 
L 605.47017 131.938228 
L 606.104261 131.510736 
L 606.738352 132.098564 
L 607.372443 132.012834 
L 608.006534 133.27861 
L 608.640625 132.694443 
L 609.274716 132.277825 
L 609.908807 132.339868 
L 610.542898 132.847564 
L 611.176989 132.572358 
L 611.81108 133.344471 
L 612.44517 133.44242 
L 613.079261 132.453226 
L 613.713352 132.987202 
L 614.347443 132.14924 
L 614.981534 132.405849 
L 616.249716 132.268171 
L 616.883807 132.281259 
L 617.517898 132.721498 
L 618.151989 132.325764 
L 618.78608 133.125103 
L 619.42017 133.109208 
L 620.054261 132.866023 
L 620.688352 133.262784 
L 621.322443 132.177378 
L 621.956534 132.36252 
L 622.590625 132.07249 
L 623.224716 132.346752 
L 624.492898 131.733131 
L 625.126989 132.763355 
L 625.126989 132.763355 
" clip-path="url(#p276592a8da)" style="fill: none; stroke: #ff7f0e; stroke-width: 1.5; stroke-linecap: square"/>
   </g>
   <g id="patch_3">
    <path d="M 92.490625 308.63625 
L 92.490625 31.43625 
" style="fill: none; stroke: #000000; stroke-width: 0.8; stroke-linejoin: miter; stroke-linecap: square"/>
   </g>
   <g id="patch_4">
    <path d="M 650.490625 308.63625 
L 650.490625 31.43625 
" style="fill: none; stroke: #000000; stroke-width: 0.8; stroke-linejoin: miter; stroke-linecap: square"/>
   </g>
   <g id="patch_5">
    <path d="M 92.490625 308.63625 
L 650.490625 308.63625 
" style="fill: none; stroke: #000000; stroke-width: 0.8; stroke-linejoin: miter; stroke-linecap: square"/>
   </g>
   <g id="patch_6">
    <path d="M 92.490625 31.43625 
L 650.490625 31.43625 
" style="fill: none; stroke: #000000; stroke-width: 0.8; stroke-linejoin: miter; stroke-linecap: square"/>
   </g>
   <g id="text_16">
    <!-- Generator and Discriminator Loss During Training -->
    <g transform="translate(74.258125 25.43625) scale(0.24 -0.24)">
     <defs>
      <path id="DejaVuSans-47" d="M 3809 666 
L 3809 1919 
L 2778 1919 
L 2778 2438 
L 4434 2438 
L 4434 434 
Q 4069 175 3628 42 
Q 3188 -91 2688 -91 
Q 1594 -91 976 548 
Q 359 1188 359 2328 
Q 359 3472 976 4111 
Q 1594 4750 2688 4750 
Q 3144 4750 3555 4637 
Q 3966 4525 4313 4306 
L 4313 3634 
Q 3963 3931 3569 4081 
Q 3175 4231 2741 4231 
Q 1884 4231 1454 3753 
Q 1025 3275 1025 2328 
Q 1025 1384 1454 906 
Q 1884 428 2741 428 
Q 3075 428 3337 486 
Q 3600 544 3809 666 
z
" transform="scale(0.015625)"/>
      <path id="DejaVuSans-20" transform="scale(0.015625)"/>
      <path id="DejaVuSans-64" d="M 2906 2969 
L 2906 4863 
L 3481 4863 
L 3481 0 
L 2906 0 
L 2906 525 
Q 2725 213 2448 61 
Q 2172 -91 1784 -91 
Q 1150 -91 751 415 
Q 353 922 353 1747 
Q 353 2572 751 3078 
Q 1150 3584 1784 3584 
Q 2172 3584 2448 3432 
Q 2725 3281 2906 2969 
z
M 947 1747 
Q 947 1113 1208 752 
Q 1469 391 1925 391 
Q 2381 391 2643 752 
Q 2906 1113 2906 1747 
Q 2906 2381 2643 2742 
Q 2381 3103 1925 3103 
Q 1469 3103 1208 2742 
Q 947 2381 947 1747 
z
" transform="scale(0.015625)"/>
      <path id="DejaVuSans-44" d="M 1259 4147 
L 1259 519 
L 2022 519 
Q 2988 519 3436 956 
Q 3884 1394 3884 2338 
Q 3884 3275 3436 3711 
Q 2988 4147 2022 4147 
L 1259 4147 
z
M 628 4666 
L 1925 4666 
Q 3281 4666 3915 4102 
Q 4550 3538 4550 2338 
Q 4550 1131 3912 565 
Q 3275 0 1925 0 
L 628 0 
L 628 4666 
z
" transform="scale(0.015625)"/>
      <path id="DejaVuSans-63" d="M 3122 3366 
L 3122 2828 
Q 2878 2963 2633 3030 
Q 2388 3097 2138 3097 
Q 1578 3097 1268 2742 
Q 959 2388 959 1747 
Q 959 1106 1268 751 
Q 1578 397 2138 397 
Q 2388 397 2633 464 
Q 2878 531 3122 666 
L 3122 134 
Q 2881 22 2623 -34 
Q 2366 -91 2075 -91 
Q 1284 -91 818 406 
Q 353 903 353 1747 
Q 353 2603 823 3093 
Q 1294 3584 2113 3584 
Q 2378 3584 2631 3529 
Q 2884 3475 3122 3366 
z
" transform="scale(0.015625)"/>
      <path id="DejaVuSans-6d" d="M 3328 2828 
Q 3544 3216 3844 3400 
Q 4144 3584 4550 3584 
Q 5097 3584 5394 3201 
Q 5691 2819 5691 2113 
L 5691 0 
L 5113 0 
L 5113 2094 
Q 5113 2597 4934 2840 
Q 4756 3084 4391 3084 
Q 3944 3084 3684 2787 
Q 3425 2491 3425 1978 
L 3425 0 
L 2847 0 
L 2847 2094 
Q 2847 2600 2669 2842 
Q 2491 3084 2119 3084 
Q 1678 3084 1418 2786 
Q 1159 2488 1159 1978 
L 1159 0 
L 581 0 
L 581 3500 
L 1159 3500 
L 1159 2956 
Q 1356 3278 1631 3431 
Q 1906 3584 2284 3584 
Q 2666 3584 2933 3390 
Q 3200 3197 3328 2828 
z
" transform="scale(0.015625)"/>
      <path id="DejaVuSans-75" d="M 544 1381 
L 544 3500 
L 1119 3500 
L 1119 1403 
Q 1119 906 1312 657 
Q 1506 409 1894 409 
Q 2359 409 2629 706 
Q 2900 1003 2900 1516 
L 2900 3500 
L 3475 3500 
L 3475 0 
L 2900 0 
L 2900 538 
Q 2691 219 2414 64 
Q 2138 -91 1772 -91 
Q 1169 -91 856 284 
Q 544 659 544 1381 
z
M 1991 3584 
L 1991 3584 
z
" transform="scale(0.015625)"/>
      <path id="DejaVuSans-67" d="M 2906 1791 
Q 2906 2416 2648 2759 
Q 2391 3103 1925 3103 
Q 1463 3103 1205 2759 
Q 947 2416 947 1791 
Q 947 1169 1205 825 
Q 1463 481 1925 481 
Q 2391 481 2648 825 
Q 2906 1169 2906 1791 
z
M 3481 434 
Q 3481 -459 3084 -895 
Q 2688 -1331 1869 -1331 
Q 1566 -1331 1297 -1286 
Q 1028 -1241 775 -1147 
L 775 -588 
Q 1028 -725 1275 -790 
Q 1522 -856 1778 -856 
Q 2344 -856 2625 -561 
Q 2906 -266 2906 331 
L 2906 616 
Q 2728 306 2450 153 
Q 2172 0 1784 0 
Q 1141 0 747 490 
Q 353 981 353 1791 
Q 353 2603 747 3093 
Q 1141 3584 1784 3584 
Q 2172 3584 2450 3431 
Q 2728 3278 2906 2969 
L 2906 3500 
L 3481 3500 
L 3481 434 
z
" transform="scale(0.015625)"/>
      <path id="DejaVuSans-54" d="M -19 4666 
L 3928 4666 
L 3928 4134 
L 2272 4134 
L 2272 0 
L 1638 0 
L 1638 4134 
L -19 4134 
L -19 4666 
z
" transform="scale(0.015625)"/>
     </defs>
     <use xlink:href="#DejaVuSans-47"/>
     <use xlink:href="#DejaVuSans-65" x="77.490234"/>
     <use xlink:href="#DejaVuSans-6e" x="139.013672"/>
     <use xlink:href="#DejaVuSans-65" x="202.392578"/>
     <use xlink:href="#DejaVuSans-72" x="263.916016"/>
     <use xlink:href="#DejaVuSans-61" x="305.029297"/>
     <use xlink:href="#DejaVuSans-74" x="366.308594"/>
     <use xlink:href="#DejaVuSans-6f" x="405.517578"/>
     <use xlink:href="#DejaVuSans-72" x="466.699219"/>
     <use xlink:href="#DejaVuSans-20" x="507.8125"/>
     <use xlink:href="#DejaVuSans-61" x="539.599609"/>
     <use xlink:href="#DejaVuSans-6e" x="600.878906"/>
     <use xlink:href="#DejaVuSans-64" x="664.257812"/>
     <use xlink:href="#DejaVuSans-20" x="727.734375"/>
     <use xlink:href="#DejaVuSans-44" x="759.521484"/>
     <use xlink:href="#DejaVuSans-69" x="836.523438"/>
     <use xlink:href="#DejaVuSans-73" x="864.306641"/>
     <use xlink:href="#DejaVuSans-63" x="916.40625"/>
     <use xlink:href="#DejaVuSans-72" x="971.386719"/>
     <use xlink:href="#DejaVuSans-69" x="1012.5"/>
     <use xlink:href="#DejaVuSans-6d" x="1040.283203"/>
     <use xlink:href="#DejaVuSans-69" x="1137.695312"/>
     <use xlink:href="#DejaVuSans-6e" x="1165.478516"/>
     <use xlink:href="#DejaVuSans-61" x="1228.857422"/>
     <use xlink:href="#DejaVuSans-74" x="1290.136719"/>
     <use xlink:href="#DejaVuSans-6f" x="1329.345703"/>
     <use xlink:href="#DejaVuSans-72" x="1390.527344"/>
     <use xlink:href="#DejaVuSans-20" x="1431.640625"/>
     <use xlink:href="#DejaVuSans-4c" x="1463.427734"/>
     <use xlink:href="#DejaVuSans-6f" x="1517.390625"/>
     <use xlink:href="#DejaVuSans-73" x="1578.572266"/>
     <use xlink:href="#DejaVuSans-73" x="1630.671875"/>
     <use xlink:href="#DejaVuSans-20" x="1682.771484"/>
     <use xlink:href="#DejaVuSans-44" x="1714.558594"/>
     <use xlink:href="#DejaVuSans-75" x="1791.560547"/>
     <use xlink:href="#DejaVuSans-72" x="1854.939453"/>
     <use xlink:href="#DejaVuSans-69" x="1896.052734"/>
     <use xlink:href="#DejaVuSans-6e" x="1923.835938"/>
     <use xlink:href="#DejaVuSans-67" x="1987.214844"/>
     <use xlink:href="#DejaVuSans-20" x="2050.691406"/>
     <use xlink:href="#DejaVuSans-54" x="2082.478516"/>
     <use xlink:href="#DejaVuSans-72" x="2128.8125"/>
     <use xlink:href="#DejaVuSans-61" x="2169.925781"/>
     <use xlink:href="#DejaVuSans-69" x="2231.205078"/>
     <use xlink:href="#DejaVuSans-6e" x="2258.988281"/>
     <use xlink:href="#DejaVuSans-69" x="2322.367188"/>
     <use xlink:href="#DejaVuSans-6e" x="2350.150391"/>
     <use xlink:href="#DejaVuSans-67" x="2413.529297"/>
    </g>
   </g>
   <g id="legend_1">
    <g id="patch_7">
     <path d="M 556.99375 106.14875 
L 636.490625 106.14875 
Q 640.490625 106.14875 640.490625 102.14875 
L 640.490625 45.43625 
Q 640.490625 41.43625 636.490625 41.43625 
L 556.99375 41.43625 
Q 552.99375 41.43625 552.99375 45.43625 
L 552.99375 102.14875 
Q 552.99375 106.14875 556.99375 106.14875 
z
" style="fill: #ffffff; opacity: 0.8; stroke: #cccccc; stroke-linejoin: miter"/>
    </g>
    <g id="line2d_16">
     <path d="M 560.99375 57.633125 
L 580.99375 57.633125 
L 600.99375 57.633125 
" style="fill: none; stroke: #1f77b4; stroke-width: 1.5; stroke-linecap: square"/>
    </g>
    <g id="text_17">
     <!-- G -->
     <g transform="translate(616.99375 64.633125) scale(0.2 -0.2)">
      <use xlink:href="#DejaVuSans-47"/>
     </g>
    </g>
    <g id="line2d_17">
     <path d="M 560.99375 86.989375 
L 580.99375 86.989375 
L 600.99375 86.989375 
" style="fill: none; stroke: #ff7f0e; stroke-width: 1.5; stroke-linecap: square"/>
    </g>
    <g id="text_18">
     <!-- D -->
     <g transform="translate(616.99375 93.989375) scale(0.2 -0.2)">
      <use xlink:href="#DejaVuSans-44"/>
     </g>
    </g>
   </g>
  </g>
 </g>
 <defs>
  <clipPath id="p276592a8da">
   <rect x="92.490625" y="31.43625" width="558" height="277.2"/>
  </clipPath>
 </defs>
</svg>
