<?xml version="1.0" encoding="utf-8" standalone="no"?>
<!DOCTYPE svg PUBLIC "-//W3C//DTD SVG 1.1//EN"
  "http://www.w3.org/Graphics/SVG/1.1/DTD/svg11.dtd">
<svg xmlns:xlink="http://www.w3.org/1999/xlink" width="675.923125pt" height="365.54875pt" viewBox="0 0 675.923125 365.54875" xmlns="http://www.w3.org/2000/svg" version="1.1">
 <metadata>
  <rdf:RDF xmlns:dc="http://purl.org/dc/elements/1.1/" xmlns:cc="http://creativecommons.org/ns#" xmlns:rdf="http://www.w3.org/1999/02/22-rdf-syntax-ns#">
   <cc:Work>
    <dc:type rdf:resource="http://purl.org/dc/dcmitype/StillImage"/>
    <dc:date>2024-02-07T04:20:25.055218</dc:date>
    <dc:format>image/svg+xml</dc:format>
    <dc:creator>
     <cc:Agent>
      <dc:title>Matplotlib v3.7.2, https://matplotlib.org/</dc:title>
     </cc:Agent>
    </dc:creator>
   </cc:Work>
  </rdf:RDF>
 </metadata>
 <defs>
  <style type="text/css">*{stroke-linejoin: round; stroke-linecap: butt}</style>
 </defs>
 <g id="figure_1">
  <g id="patch_1">
   <path d="M 0 365.54875 
L 675.923125 365.54875 
L 675.923125 -0 
L 0 -0 
z
" style="fill: #ffffff"/>
  </g>
  <g id="axes_1">
   <g id="patch_2">
    <path d="M 92.490625 308.63625 
L 650.490625 308.63625 
L 650.490625 31.43625 
L 92.490625 31.43625 
z
" style="fill: #ffffff"/>
   </g>
   <g id="matplotlib.axis_1">
    <g id="xtick_1">
     <g id="line2d_1">
      <defs>
       <path id="med37a4d54d" d="M 0 0 
L 0 3.5 
" style="stroke: #000000; stroke-width: 0.8"/>
      </defs>
      <g>
       <use xlink:href="#med37a4d54d" x="117.854261" y="308.63625" style="stroke: #000000; stroke-width: 0.8"/>
      </g>
     </g>
     <g id="text_1">
      <!-- 0 -->
      <g transform="translate(111.491761 330.833125) scale(0.2 -0.2)">
       <defs>
        <path id="DejaVuSans-30" d="M 2034 4250 
Q 1547 4250 1301 3770 
Q 1056 3291 1056 2328 
Q 1056 1369 1301 889 
Q 1547 409 2034 409 
Q 2525 409 2770 889 
Q 3016 1369 3016 2328 
Q 3016 3291 2770 3770 
Q 2525 4250 2034 4250 
z
M 2034 4750 
Q 2819 4750 3233 4129 
Q 3647 3509 3647 2328 
Q 3647 1150 3233 529 
Q 2819 -91 2034 -91 
Q 1250 -91 836 529 
Q 422 1150 422 2328 
Q 422 3509 836 4129 
Q 1250 4750 2034 4750 
z
" transform="scale(0.015625)"/>
       </defs>
       <use xlink:href="#DejaVuSans-30"/>
      </g>
     </g>
    </g>
    <g id="xtick_2">
     <g id="line2d_2">
      <g>
       <use xlink:href="#med37a4d54d" x="202.399716" y="308.63625" style="stroke: #000000; stroke-width: 0.8"/>
      </g>
     </g>
     <g id="text_2">
      <!-- 100 -->
      <g transform="translate(183.312216 330.833125) scale(0.2 -0.2)">
       <defs>
        <path id="DejaVuSans-31" d="M 794 531 
L 1825 531 
L 1825 4091 
L 703 3866 
L 703 4441 
L 1819 4666 
L 2450 4666 
L 2450 531 
L 3481 531 
L 3481 0 
L 794 0 
L 794 531 
z
" transform="scale(0.015625)"/>
       </defs>
       <use xlink:href="#DejaVuSans-31"/>
       <use xlink:href="#DejaVuSans-30" x="63.623047"/>
       <use xlink:href="#DejaVuSans-30" x="127.246094"/>
      </g>
     </g>
    </g>
    <g id="xtick_3">
     <g id="line2d_3">
      <g>
       <use xlink:href="#med37a4d54d" x="286.94517" y="308.63625" style="stroke: #000000; stroke-width: 0.8"/>
      </g>
     </g>
     <g id="text_3">
      <!-- 200 -->
      <g transform="translate(267.85767 330.833125) scale(0.2 -0.2)">
       <defs>
        <path id="DejaVuSans-32" d="M 1228 531 
L 3431 531 
L 3431 0 
L 469 0 
L 469 531 
Q 828 903 1448 1529 
Q 2069 2156 2228 2338 
Q 2531 2678 2651 2914 
Q 2772 3150 2772 3378 
Q 2772 3750 2511 3984 
Q 2250 4219 1831 4219 
Q 1534 4219 1204 4116 
Q 875 4013 500 3803 
L 500 4441 
Q 881 4594 1212 4672 
Q 1544 4750 1819 4750 
Q 2544 4750 2975 4387 
Q 3406 4025 3406 3419 
Q 3406 3131 3298 2873 
Q 3191 2616 2906 2266 
Q 2828 2175 2409 1742 
Q 1991 1309 1228 531 
z
" transform="scale(0.015625)"/>
       </defs>
       <use xlink:href="#DejaVuSans-32"/>
       <use xlink:href="#DejaVuSans-30" x="63.623047"/>
       <use xlink:href="#DejaVuSans-30" x="127.246094"/>
      </g>
     </g>
    </g>
    <g id="xtick_4">
     <g id="line2d_4">
      <g>
       <use xlink:href="#med37a4d54d" x="371.490625" y="308.63625" style="stroke: #000000; stroke-width: 0.8"/>
      </g>
     </g>
     <g id="text_4">
      <!-- 300 -->
      <g transform="translate(352.403125 330.833125) scale(0.2 -0.2)">
       <defs>
        <path id="DejaVuSans-33" d="M 2597 2516 
Q 3050 2419 3304 2112 
Q 3559 1806 3559 1356 
Q 3559 666 3084 287 
Q 2609 -91 1734 -91 
Q 1441 -91 1130 -33 
Q 819 25 488 141 
L 488 750 
Q 750 597 1062 519 
Q 1375 441 1716 441 
Q 2309 441 2620 675 
Q 2931 909 2931 1356 
Q 2931 1769 2642 2001 
Q 2353 2234 1838 2234 
L 1294 2234 
L 1294 2753 
L 1863 2753 
Q 2328 2753 2575 2939 
Q 2822 3125 2822 3475 
Q 2822 3834 2567 4026 
Q 2313 4219 1838 4219 
Q 1578 4219 1281 4162 
Q 984 4106 628 3988 
L 628 4550 
Q 988 4650 1302 4700 
Q 1616 4750 1894 4750 
Q 2613 4750 3031 4423 
Q 3450 4097 3450 3541 
Q 3450 3153 3228 2886 
Q 3006 2619 2597 2516 
z
" transform="scale(0.015625)"/>
       </defs>
       <use xlink:href="#DejaVuSans-33"/>
       <use xlink:href="#DejaVuSans-30" x="63.623047"/>
       <use xlink:href="#DejaVuSans-30" x="127.246094"/>
      </g>
     </g>
    </g>
    <g id="xtick_5">
     <g id="line2d_5">
      <g>
       <use xlink:href="#med37a4d54d" x="456.03608" y="308.63625" style="stroke: #000000; stroke-width: 0.8"/>
      </g>
     </g>
     <g id="text_5">
      <!-- 400 -->
      <g transform="translate(436.94858 330.833125) scale(0.2 -0.2)">
       <defs>
        <path id="DejaVuSans-34" d="M 2419 4116 
L 825 1625 
L 2419 1625 
L 2419 4116 
z
M 2253 4666 
L 3047 4666 
L 3047 1625 
L 3713 1625 
L 3713 1100 
L 3047 1100 
L 3047 0 
L 2419 0 
L 2419 1100 
L 313 1100 
L 313 1709 
L 2253 4666 
z
" transform="scale(0.015625)"/>
       </defs>
       <use xlink:href="#DejaVuSans-34"/>
       <use xlink:href="#DejaVuSans-30" x="63.623047"/>
       <use xlink:href="#DejaVuSans-30" x="127.246094"/>
      </g>
     </g>
    </g>
    <g id="xtick_6">
     <g id="line2d_6">
      <g>
       <use xlink:href="#med37a4d54d" x="540.581534" y="308.63625" style="stroke: #000000; stroke-width: 0.8"/>
      </g>
     </g>
     <g id="text_6">
      <!-- 500 -->
      <g transform="translate(521.494034 330.833125) scale(0.2 -0.2)">
       <defs>
        <path id="DejaVuSans-35" d="M 691 4666 
L 3169 4666 
L 3169 4134 
L 1269 4134 
L 1269 2991 
Q 1406 3038 1543 3061 
Q 1681 3084 1819 3084 
Q 2600 3084 3056 2656 
Q 3513 2228 3513 1497 
Q 3513 744 3044 326 
Q 2575 -91 1722 -91 
Q 1428 -91 1123 -41 
Q 819 9 494 109 
L 494 744 
Q 775 591 1075 516 
Q 1375 441 1709 441 
Q 2250 441 2565 725 
Q 2881 1009 2881 1497 
Q 2881 1984 2565 2268 
Q 2250 2553 1709 2553 
Q 1456 2553 1204 2497 
Q 953 2441 691 2322 
L 691 4666 
z
" transform="scale(0.015625)"/>
       </defs>
       <use xlink:href="#DejaVuSans-35"/>
       <use xlink:href="#DejaVuSans-30" x="63.623047"/>
       <use xlink:href="#DejaVuSans-30" x="127.246094"/>
      </g>
     </g>
    </g>
    <g id="xtick_7">
     <g id="line2d_7">
      <g>
       <use xlink:href="#med37a4d54d" x="625.126989" y="308.63625" style="stroke: #000000; stroke-width: 0.8"/>
      </g>
     </g>
     <g id="text_7">
      <!-- 600 -->
      <g transform="translate(606.039489 330.833125) scale(0.2 -0.2)">
       <defs>
        <path id="DejaVuSans-36" d="M 2113 2584 
Q 1688 2584 1439 2293 
Q 1191 2003 1191 1497 
Q 1191 994 1439 701 
Q 1688 409 2113 409 
Q 2538 409 2786 701 
Q 3034 994 3034 1497 
Q 3034 2003 2786 2293 
Q 2538 2584 2113 2584 
z
M 3366 4563 
L 3366 3988 
Q 3128 4100 2886 4159 
Q 2644 4219 2406 4219 
Q 1781 4219 1451 3797 
Q 1122 3375 1075 2522 
Q 1259 2794 1537 2939 
Q 1816 3084 2150 3084 
Q 2853 3084 3261 2657 
Q 3669 2231 3669 1497 
Q 3669 778 3244 343 
Q 2819 -91 2113 -91 
Q 1303 -91 875 529 
Q 447 1150 447 2328 
Q 447 3434 972 4092 
Q 1497 4750 2381 4750 
Q 2619 4750 2861 4703 
Q 3103 4656 3366 4563 
z
" transform="scale(0.015625)"/>
       </defs>
       <use xlink:href="#DejaVuSans-36"/>
       <use xlink:href="#DejaVuSans-30" x="63.623047"/>
       <use xlink:href="#DejaVuSans-30" x="127.246094"/>
      </g>
     </g>
    </g>
    <g id="text_8">
     <!-- iterations -->
     <g transform="translate(324.035938 354.189375) scale(0.2 -0.2)">
      <defs>
       <path id="DejaVuSans-69" d="M 603 3500 
L 1178 3500 
L 1178 0 
L 603 0 
L 603 3500 
z
M 603 4863 
L 1178 4863 
L 1178 4134 
L 603 4134 
L 603 4863 
z
" transform="scale(0.015625)"/>
       <path id="DejaVuSans-74" d="M 1172 4494 
L 1172 3500 
L 2356 3500 
L 2356 3053 
L 1172 3053 
L 1172 1153 
Q 1172 725 1289 603 
Q 1406 481 1766 481 
L 2356 481 
L 2356 0 
L 1766 0 
Q 1100 0 847 248 
Q 594 497 594 1153 
L 594 3053 
L 172 3053 
L 172 3500 
L 594 3500 
L 594 4494 
L 1172 4494 
z
" transform="scale(0.015625)"/>
       <path id="DejaVuSans-65" d="M 3597 1894 
L 3597 1613 
L 953 1613 
Q 991 1019 1311 708 
Q 1631 397 2203 397 
Q 2534 397 2845 478 
Q 3156 559 3463 722 
L 3463 178 
Q 3153 47 2828 -22 
Q 2503 -91 2169 -91 
Q 1331 -91 842 396 
Q 353 884 353 1716 
Q 353 2575 817 3079 
Q 1281 3584 2069 3584 
Q 2775 3584 3186 3129 
Q 3597 2675 3597 1894 
z
M 3022 2063 
Q 3016 2534 2758 2815 
Q 2500 3097 2075 3097 
Q 1594 3097 1305 2825 
Q 1016 2553 972 2059 
L 3022 2063 
z
" transform="scale(0.015625)"/>
       <path id="DejaVuSans-72" d="M 2631 2963 
Q 2534 3019 2420 3045 
Q 2306 3072 2169 3072 
Q 1681 3072 1420 2755 
Q 1159 2438 1159 1844 
L 1159 0 
L 581 0 
L 581 3500 
L 1159 3500 
L 1159 2956 
Q 1341 3275 1631 3429 
Q 1922 3584 2338 3584 
Q 2397 3584 2469 3576 
Q 2541 3569 2628 3553 
L 2631 2963 
z
" transform="scale(0.015625)"/>
       <path id="DejaVuSans-61" d="M 2194 1759 
Q 1497 1759 1228 1600 
Q 959 1441 959 1056 
Q 959 750 1161 570 
Q 1363 391 1709 391 
Q 2188 391 2477 730 
Q 2766 1069 2766 1631 
L 2766 1759 
L 2194 1759 
z
M 3341 1997 
L 3341 0 
L 2766 0 
L 2766 531 
Q 2569 213 2275 61 
Q 1981 -91 1556 -91 
Q 1019 -91 701 211 
Q 384 513 384 1019 
Q 384 1609 779 1909 
Q 1175 2209 1959 2209 
L 2766 2209 
L 2766 2266 
Q 2766 2663 2505 2880 
Q 2244 3097 1772 3097 
Q 1472 3097 1187 3025 
Q 903 2953 641 2809 
L 641 3341 
Q 956 3463 1253 3523 
Q 1550 3584 1831 3584 
Q 2591 3584 2966 3190 
Q 3341 2797 3341 1997 
z
" transform="scale(0.015625)"/>
       <path id="DejaVuSans-6f" d="M 1959 3097 
Q 1497 3097 1228 2736 
Q 959 2375 959 1747 
Q 959 1119 1226 758 
Q 1494 397 1959 397 
Q 2419 397 2687 759 
Q 2956 1122 2956 1747 
Q 2956 2369 2687 2733 
Q 2419 3097 1959 3097 
z
M 1959 3584 
Q 2709 3584 3137 3096 
Q 3566 2609 3566 1747 
Q 3566 888 3137 398 
Q 2709 -91 1959 -91 
Q 1206 -91 779 398 
Q 353 888 353 1747 
Q 353 2609 779 3096 
Q 1206 3584 1959 3584 
z
" transform="scale(0.015625)"/>
       <path id="DejaVuSans-6e" d="M 3513 2113 
L 3513 0 
L 2938 0 
L 2938 2094 
Q 2938 2591 2744 2837 
Q 2550 3084 2163 3084 
Q 1697 3084 1428 2787 
Q 1159 2491 1159 1978 
L 1159 0 
L 581 0 
L 581 3500 
L 1159 3500 
L 1159 2956 
Q 1366 3272 1645 3428 
Q 1925 3584 2291 3584 
Q 2894 3584 3203 3211 
Q 3513 2838 3513 2113 
z
" transform="scale(0.015625)"/>
       <path id="DejaVuSans-73" d="M 2834 3397 
L 2834 2853 
Q 2591 2978 2328 3040 
Q 2066 3103 1784 3103 
Q 1356 3103 1142 2972 
Q 928 2841 928 2578 
Q 928 2378 1081 2264 
Q 1234 2150 1697 2047 
L 1894 2003 
Q 2506 1872 2764 1633 
Q 3022 1394 3022 966 
Q 3022 478 2636 193 
Q 2250 -91 1575 -91 
Q 1294 -91 989 -36 
Q 684 19 347 128 
L 347 722 
Q 666 556 975 473 
Q 1284 391 1588 391 
Q 1994 391 2212 530 
Q 2431 669 2431 922 
Q 2431 1156 2273 1281 
Q 2116 1406 1581 1522 
L 1381 1569 
Q 847 1681 609 1914 
Q 372 2147 372 2553 
Q 372 3047 722 3315 
Q 1072 3584 1716 3584 
Q 2034 3584 2315 3537 
Q 2597 3491 2834 3397 
z
" transform="scale(0.015625)"/>
      </defs>
      <use xlink:href="#DejaVuSans-69"/>
      <use xlink:href="#DejaVuSans-74" x="27.783203"/>
      <use xlink:href="#DejaVuSans-65" x="66.992188"/>
      <use xlink:href="#DejaVuSans-72" x="128.515625"/>
      <use xlink:href="#DejaVuSans-61" x="169.628906"/>
      <use xlink:href="#DejaVuSans-74" x="230.908203"/>
      <use xlink:href="#DejaVuSans-69" x="270.117188"/>
      <use xlink:href="#DejaVuSans-6f" x="297.900391"/>
      <use xlink:href="#DejaVuSans-6e" x="359.082031"/>
      <use xlink:href="#DejaVuSans-73" x="422.460938"/>
     </g>
    </g>
   </g>
   <g id="matplotlib.axis_2">
    <g id="ytick_1">
     <g id="line2d_8">
      <defs>
       <path id="m2ef15fa7cf" d="M 0 0 
L -3.5 0 
" style="stroke: #000000; stroke-width: 0.8"/>
      </defs>
      <g>
       <use xlink:href="#m2ef15fa7cf" x="92.490625" y="308.301222" style="stroke: #000000; stroke-width: 0.8"/>
      </g>
     </g>
     <g id="text_9">
      <!-- −400 -->
      <g transform="translate(30.55625 315.89966) scale(0.2 -0.2)">
       <defs>
        <path id="DejaVuSans-2212" d="M 678 2272 
L 4684 2272 
L 4684 1741 
L 678 1741 
L 678 2272 
z
" transform="scale(0.015625)"/>
       </defs>
       <use xlink:href="#DejaVuSans-2212"/>
       <use xlink:href="#DejaVuSans-34" x="83.789062"/>
       <use xlink:href="#DejaVuSans-30" x="147.412109"/>
       <use xlink:href="#DejaVuSans-30" x="211.035156"/>
      </g>
     </g>
    </g>
    <g id="ytick_2">
     <g id="line2d_9">
      <g>
       <use xlink:href="#m2ef15fa7cf" x="92.490625" y="216.520244" style="stroke: #000000; stroke-width: 0.8"/>
      </g>
     </g>
     <g id="text_10">
      <!-- −200 -->
      <g transform="translate(30.55625 224.118682) scale(0.2 -0.2)">
       <use xlink:href="#DejaVuSans-2212"/>
       <use xlink:href="#DejaVuSans-32" x="83.789062"/>
       <use xlink:href="#DejaVuSans-30" x="147.412109"/>
       <use xlink:href="#DejaVuSans-30" x="211.035156"/>
      </g>
     </g>
    </g>
    <g id="ytick_3">
     <g id="line2d_10">
      <g>
       <use xlink:href="#m2ef15fa7cf" x="92.490625" y="124.739266" style="stroke: #000000; stroke-width: 0.8"/>
      </g>
     </g>
     <g id="text_11">
      <!-- 0 -->
      <g transform="translate(72.765625 132.337703) scale(0.2 -0.2)">
       <use xlink:href="#DejaVuSans-30"/>
      </g>
     </g>
    </g>
    <g id="ytick_4">
     <g id="line2d_11">
      <g>
       <use xlink:href="#m2ef15fa7cf" x="92.490625" y="32.958288" style="stroke: #000000; stroke-width: 0.8"/>
      </g>
     </g>
     <g id="text_12">
      <!-- 200 -->
      <g transform="translate(47.315625 40.556725) scale(0.2 -0.2)">
       <use xlink:href="#DejaVuSans-32"/>
       <use xlink:href="#DejaVuSans-30" x="63.623047"/>
       <use xlink:href="#DejaVuSans-30" x="127.246094"/>
      </g>
     </g>
    </g>
    <g id="text_13">
     <!-- Loss -->
     <g transform="translate(22.396875 191.970625) rotate(-90) scale(0.2 -0.2)">
      <defs>
       <path id="DejaVuSans-4c" d="M 628 4666 
L 1259 4666 
L 1259 531 
L 3531 531 
L 3531 0 
L 628 0 
L 628 4666 
z
" transform="scale(0.015625)"/>
      </defs>
      <use xlink:href="#DejaVuSans-4c"/>
      <use xlink:href="#DejaVuSans-6f" x="53.962891"/>
      <use xlink:href="#DejaVuSans-73" x="115.144531"/>
      <use xlink:href="#DejaVuSans-73" x="167.244141"/>
     </g>
    </g>
   </g>
   <g id="line2d_12">
    <path d="M 117.854261 68.010133 
L 118.699716 44.03625 
L 119.54517 82.894351 
L 120.390625 135.352713 
L 121.23608 149.038488 
L 122.081534 131.291508 
L 122.926989 102.480738 
L 123.772443 114.663802 
L 124.617898 109.036371 
L 125.463352 138.147454 
L 126.308807 138.134175 
L 127.999716 115.734088 
L 128.84517 94.696244 
L 130.53608 139.285864 
L 131.381534 148.794628 
L 132.226989 153.318112 
L 133.072443 156.877753 
L 133.917898 83.249261 
L 134.763352 75.174256 
L 135.608807 90.472575 
L 136.454261 116.457012 
L 137.299716 96.256189 
L 138.14517 94.259751 
L 138.990625 95.075452 
L 139.83608 105.7445 
L 140.681534 103.501109 
L 141.526989 98.938048 
L 142.372443 98.781496 
L 143.217898 115.658893 
L 144.063352 104.793282 
L 144.908807 107.674873 
L 145.754261 115.096063 
L 146.599716 112.159413 
L 147.44517 107.601371 
L 148.290625 104.28473 
L 149.13608 96.706982 
L 149.981534 93.680446 
L 150.826989 98.193758 
L 151.672443 106.085946 
L 152.517898 105.036287 
L 153.363352 102.32328 
L 154.208807 103.945881 
L 155.054261 99.317411 
L 155.899716 110.564882 
L 156.74517 112.307272 
L 157.590625 111.665537 
L 158.43608 108.167608 
L 159.281534 111.994753 
L 160.126989 117.502876 
L 160.972443 119.774341 
L 161.817898 119.367335 
L 162.663352 113.051816 
L 163.508807 123.794414 
L 164.354261 123.121725 
L 165.199716 116.751972 
L 166.04517 119.486809 
L 166.890625 125.7908 
L 167.73608 120.97786 
L 168.581534 122.459209 
L 169.426989 119.601567 
L 170.272443 123.368147 
L 171.117898 125.26741 
L 171.963352 126.254064 
L 173.654261 123.83292 
L 174.499716 125.066543 
L 175.34517 124.405088 
L 176.190625 124.342819 
L 177.03608 129.684678 
L 178.726989 122.440892 
L 179.572443 125.291613 
L 180.417898 126.638633 
L 181.263352 127.489029 
L 182.108807 124.104561 
L 182.954261 127.006761 
L 183.799716 124.634792 
L 184.64517 130.008476 
L 185.490625 132.148012 
L 186.33608 129.332871 
L 187.181534 130.19862 
L 188.026989 128.532356 
L 188.872443 130.615072 
L 189.717898 129.75035 
L 190.563352 131.974644 
L 191.408807 133.042215 
L 192.254261 130.869486 
L 193.099716 131.244071 
L 194.790625 129.485777 
L 195.63608 131.902921 
L 196.481534 130.300497 
L 197.326989 132.787354 
L 198.172443 130.1042 
L 199.017898 132.296661 
L 199.863352 128.828173 
L 200.708807 130.977045 
L 201.554261 133.624985 
L 202.399716 133.67938 
L 203.24517 132.890623 
L 204.090625 131.166154 
L 204.93608 130.029175 
L 205.781534 136.267329 
L 206.626989 133.171776 
L 207.472443 131.366796 
L 208.317898 131.143967 
L 209.163352 134.254403 
L 210.008807 133.153225 
L 210.854261 135.194366 
L 211.699716 132.960254 
L 213.390625 131.082405 
L 214.23608 132.584999 
L 215.081534 133.28086 
L 215.926989 131.34064 
L 216.772443 128.753412 
L 217.617898 129.527871 
L 218.463352 133.657564 
L 219.308807 133.308306 
L 220.154261 134.759946 
L 221.84517 132.202234 
L 222.690625 132.039851 
L 224.381534 128.292917 
L 225.226989 131.624082 
L 226.072443 132.367101 
L 226.917898 133.574511 
L 227.763352 133.467695 
L 228.608807 132.013518 
L 229.454261 133.775036 
L 231.14517 135.816838 
L 231.990625 134.15553 
L 232.83608 133.039205 
L 233.681534 132.365518 
L 234.526989 130.732202 
L 235.372443 130.422276 
L 237.063352 131.352335 
L 237.908807 130.397482 
L 238.754261 132.385544 
L 239.599716 133.44874 
L 240.44517 130.621022 
L 241.290625 129.915593 
L 242.13608 130.780378 
L 242.981534 130.366748 
L 243.826989 133.018114 
L 244.672443 129.699722 
L 245.517898 128.315437 
L 246.363352 131.243071 
L 247.208807 129.040349 
L 248.054261 129.159144 
L 248.899716 131.657577 
L 249.74517 130.8775 
L 250.590625 132.068264 
L 252.281534 129.381879 
L 253.126989 131.489051 
L 253.972443 132.135005 
L 254.817898 129.520044 
L 255.663352 128.526529 
L 256.508807 128.62714 
L 257.354261 129.507322 
L 258.199716 130.753813 
L 259.04517 131.148931 
L 259.890625 130.542598 
L 260.73608 130.694105 
L 261.581534 129.90088 
L 262.426989 130.887488 
L 263.272443 130.639837 
L 264.117898 129.355283 
L 264.963352 130.364738 
L 265.808807 132.129378 
L 266.654261 131.451921 
L 267.499716 133.778023 
L 268.34517 132.793608 
L 269.190625 132.710615 
L 270.03608 130.760632 
L 270.881534 131.242131 
L 271.726989 132.939387 
L 272.572443 133.68315 
L 273.417898 132.669464 
L 275.108807 132.445423 
L 275.954261 132.99424 
L 276.799716 133.06021 
L 277.64517 133.884776 
L 278.490625 132.891875 
L 279.33608 133.233263 
L 280.181534 133.746225 
L 281.026989 133.738837 
L 281.872443 134.525428 
L 282.717898 135.704528 
L 283.563352 132.744017 
L 284.408807 135.219024 
L 285.254261 135.591216 
L 286.099716 136.432579 
L 286.94517 132.965228 
L 287.790625 134.074961 
L 288.63608 133.540772 
L 289.481534 133.421911 
L 290.326989 135.236827 
L 291.172443 134.063046 
L 292.017898 133.228807 
L 292.863352 131.970848 
L 293.708807 134.240862 
L 294.554261 134.068398 
L 295.399716 134.936951 
L 296.24517 132.84045 
L 297.090625 131.756121 
L 297.93608 131.859176 
L 298.781534 132.698611 
L 299.626989 132.988609 
L 300.472443 131.533742 
L 301.317898 131.9431 
L 302.163352 132.900108 
L 303.008807 132.248788 
L 303.854261 134.623461 
L 304.699716 132.871426 
L 305.54517 133.638704 
L 306.390625 133.327539 
L 307.23608 131.803134 
L 308.081534 132.483812 
L 308.926989 131.304209 
L 309.772443 132.833603 
L 310.617898 131.565009 
L 311.463352 132.345541 
L 312.308807 132.763423 
L 313.154261 132.03401 
L 313.999716 132.010279 
L 314.84517 131.256279 
L 315.690625 133.787578 
L 316.53608 130.493204 
L 317.381534 130.135762 
L 318.226989 131.669798 
L 319.072443 129.935866 
L 319.917898 131.293905 
L 320.763352 131.094286 
L 322.454261 132.187449 
L 324.14517 131.860606 
L 324.990625 132.639894 
L 325.83608 131.282355 
L 326.681534 129.529896 
L 327.526989 132.111943 
L 329.217898 130.58016 
L 330.063352 130.407129 
L 330.908807 130.956694 
L 331.754261 129.941585 
L 332.599716 129.765758 
L 333.44517 130.065677 
L 334.290625 130.203255 
L 335.13608 129.980455 
L 335.981534 130.627125 
L 336.826989 129.133283 
L 337.672443 129.835422 
L 338.517898 129.533889 
L 339.363352 129.364363 
L 340.208807 130.856948 
L 341.054261 129.246312 
L 341.899716 129.706363 
L 342.74517 130.420866 
L 343.590625 129.545153 
L 344.43608 130.94038 
L 345.281534 129.371043 
L 346.126989 130.738 
L 346.972443 128.822413 
L 347.817898 130.609681 
L 348.663352 130.102713 
L 350.354261 128.586713 
L 351.199716 129.331779 
L 352.890625 130.013815 
L 353.73608 130.004582 
L 354.581534 129.563682 
L 355.426989 128.277651 
L 356.272443 129.132506 
L 357.117898 129.444018 
L 357.963352 130.328218 
L 358.808807 131.421887 
L 359.654261 130.156646 
L 361.34517 128.386728 
L 362.190625 130.002226 
L 363.03608 128.766129 
L 363.881534 129.727915 
L 364.726989 130.295393 
L 366.417898 130.22921 
L 367.263352 129.990359 
L 368.108807 130.146286 
L 368.954261 130.742029 
L 369.799716 130.232945 
L 370.64517 130.335787 
L 371.490625 130.008628 
L 372.33608 129.832388 
L 373.181534 129.938118 
L 374.026989 130.276968 
L 374.872443 129.159825 
L 375.717898 128.427935 
L 376.563352 128.815487 
L 377.408807 128.502613 
L 378.254261 130.018413 
L 379.099716 128.712991 
L 379.94517 129.533333 
L 380.790625 129.687427 
L 381.63608 128.563167 
L 382.481534 128.720108 
L 383.326989 129.560897 
L 384.172443 129.261363 
L 385.017898 129.333281 
L 385.863352 130.124582 
L 386.708807 128.725848 
L 388.399716 128.192742 
L 390.090625 128.481323 
L 390.93608 129.22743 
L 391.781534 129.363656 
L 392.626989 129.292759 
L 393.472443 128.9788 
L 395.163352 128.90032 
L 396.008807 130.108556 
L 396.854261 129.085007 
L 398.54517 128.25835 
L 399.390625 128.582519 
L 400.23608 128.639878 
L 401.081534 127.829148 
L 402.772443 127.621747 
L 403.617898 129.027438 
L 404.463352 128.3083 
L 405.308807 129.060965 
L 406.154261 128.862738 
L 406.999716 128.027623 
L 407.84517 127.590238 
L 408.690625 127.417529 
L 409.53608 128.046032 
L 410.381534 127.509991 
L 411.226989 127.816074 
L 412.072443 127.724732 
L 412.917898 128.205471 
L 413.763352 127.909681 
L 414.608807 128.495895 
L 415.454261 127.306562 
L 416.299716 127.660654 
L 417.14517 127.074124 
L 417.990625 127.464054 
L 418.83608 127.567987 
L 419.681534 127.49324 
L 421.372443 128.934154 
L 422.217898 128.287035 
L 423.063352 127.494717 
L 423.908807 127.974081 
L 424.754261 127.963539 
L 425.599716 127.433418 
L 426.44517 128.445598 
L 427.290625 128.005912 
L 428.981534 127.934451 
L 429.826989 127.502908 
L 430.672443 128.276474 
L 431.517898 127.592299 
L 432.363352 127.820724 
L 433.208807 126.41959 
L 434.054261 127.184355 
L 434.899716 128.350894 
L 435.74517 127.326198 
L 436.590625 126.478268 
L 437.43608 127.287549 
L 439.126989 127.097101 
L 439.972443 127.943905 
L 440.817898 127.522738 
L 441.663352 127.369173 
L 442.508807 128.15539 
L 443.354261 127.606288 
L 444.199716 128.470277 
L 445.04517 127.53738 
L 445.890625 128.0492 
L 446.73608 127.705244 
L 448.426989 128.758381 
L 449.272443 128.176185 
L 450.117898 128.949204 
L 450.963352 127.88594 
L 451.808807 128.758213 
L 453.499716 127.763718 
L 454.34517 128.040503 
L 455.190625 127.818379 
L 456.03608 128.539413 
L 456.881534 127.909191 
L 457.726989 127.620119 
L 458.572443 128.215233 
L 459.417898 127.871823 
L 460.263352 128.730731 
L 461.108807 127.830667 
L 461.954261 127.973207 
L 462.799716 128.302131 
L 463.64517 128.874641 
L 464.490625 128.730779 
L 465.33608 127.936563 
L 466.181534 128.147492 
L 468.717898 126.865166 
L 469.563352 126.205635 
L 470.408807 127.195389 
L 471.254261 127.405704 
L 472.099716 125.752486 
L 472.94517 127.181242 
L 473.790625 127.621653 
L 474.63608 128.285453 
L 476.326989 127.952824 
L 477.172443 127.320872 
L 478.017898 128.138393 
L 478.863352 127.595705 
L 479.708807 127.777125 
L 480.554261 127.076334 
L 481.399716 128.23788 
L 482.24517 127.355098 
L 483.090625 127.310545 
L 483.93608 127.383422 
L 484.781534 128.051083 
L 485.626989 127.910596 
L 486.472443 127.191374 
L 487.317898 127.862572 
L 488.163352 127.925051 
L 489.008807 128.140637 
L 489.854261 126.966591 
L 490.699716 127.601789 
L 491.54517 127.303259 
L 492.390625 128.020273 
L 493.23608 127.395705 
L 494.926989 127.549729 
L 495.772443 127.240643 
L 496.617898 127.562493 
L 497.463352 127.469046 
L 498.308807 127.017582 
L 499.154261 126.329977 
L 499.999716 123.594003 
L 500.84517 125.641018 
L 501.690625 126.194417 
L 502.53608 127.565289 
L 503.381534 125.926257 
L 504.226989 126.83942 
L 505.917898 127.662776 
L 506.763352 127.0441 
L 507.608807 127.646191 
L 508.454261 126.217146 
L 509.299716 127.246878 
L 510.14517 126.968989 
L 510.990625 127.389283 
L 511.83608 127.366595 
L 512.681534 126.909622 
L 513.526989 126.920462 
L 514.372443 127.869458 
L 515.217898 127.673739 
L 516.063352 128.140586 
L 516.908807 128.296592 
L 517.754261 127.668539 
L 518.599716 127.522494 
L 519.44517 127.864583 
L 520.290625 128.588431 
L 521.13608 128.132745 
L 521.981534 128.535777 
L 522.826989 127.35185 
L 523.672443 126.453202 
L 525.363352 127.878267 
L 526.208807 127.473338 
L 527.899716 127.994517 
L 528.74517 127.785176 
L 529.590625 127.876873 
L 530.43608 128.483396 
L 531.281534 128.793588 
L 532.126989 128.220969 
L 532.972443 127.947937 
L 533.817898 128.312831 
L 534.663352 128.854793 
L 535.508807 128.997201 
L 536.354261 129.420327 
L 537.199716 127.991662 
L 538.04517 128.745344 
L 538.890625 128.776292 
L 539.73608 128.306823 
L 542.272443 127.365727 
L 543.117898 128.478041 
L 543.963352 127.867424 
L 544.808807 128.945239 
L 545.654261 127.881041 
L 546.499716 127.1771 
L 547.34517 128.168141 
L 548.190625 126.793318 
L 549.03608 127.978285 
L 549.881534 128.793073 
L 550.726989 128.765525 
L 551.572443 127.131237 
L 552.417898 128.101187 
L 554.108807 127.293432 
L 554.954261 127.158085 
L 555.799716 128.714304 
L 556.64517 128.370978 
L 557.490625 128.486902 
L 558.33608 128.947382 
L 559.181534 128.838007 
L 560.026989 128.260208 
L 560.872443 127.950895 
L 561.717898 126.283135 
L 562.563352 128.140022 
L 564.254261 126.207577 
L 565.099716 127.539877 
L 565.94517 127.357292 
L 567.63608 126.763006 
L 568.481534 127.259967 
L 569.326989 126.996985 
L 570.172443 126.529472 
L 571.863352 127.412347 
L 572.708807 127.049697 
L 573.554261 126.292813 
L 574.399716 126.895689 
L 575.24517 126.452249 
L 576.090625 126.552457 
L 576.93608 125.732269 
L 577.781534 127.180789 
L 578.626989 126.470533 
L 579.472443 128.10307 
L 580.317898 127.623482 
L 581.163352 126.756451 
L 582.008807 126.674386 
L 582.854261 126.430197 
L 583.699716 126.382953 
L 584.54517 126.125891 
L 585.390625 126.832502 
L 586.23608 126.755911 
L 587.081534 127.53797 
L 587.926989 126.623237 
L 588.772443 127.500371 
L 589.617898 127.788318 
L 590.463352 127.217003 
L 591.308807 125.721419 
L 592.154261 127.374596 
L 592.999716 126.931644 
L 593.84517 126.74159 
L 594.690625 127.096731 
L 595.53608 126.733166 
L 596.381534 126.862768 
L 597.226989 127.330305 
L 598.072443 126.593448 
L 598.917898 127.082128 
L 599.763352 126.241215 
L 600.608807 126.633846 
L 601.454261 126.147503 
L 602.299716 126.651037 
L 603.14517 127.735513 
L 604.83608 127.235319 
L 605.681534 126.961516 
L 606.526989 127.437199 
L 607.372443 127.198821 
L 608.217898 128.460895 
L 609.908807 127.468841 
L 611.599716 126.841378 
L 612.44517 128.237104 
L 613.290625 128.194875 
L 614.13608 127.590703 
L 614.981534 128.171441 
L 615.826989 128.288059 
L 616.672443 127.73191 
L 617.517898 125.465954 
L 618.363352 127.135651 
L 619.208807 127.340297 
L 620.054261 127.065755 
L 622.590625 126.838191 
L 623.43608 127.52029 
L 624.281534 127.098561 
L 625.126989 126.969432 
L 625.126989 126.969432 
" clip-path="url(#pd29e8c156b)" style="fill: none; stroke: #1f77b4; stroke-width: 1.5; stroke-linecap: square"/>
   </g>
   <g id="line2d_13">
    <path d="M 117.854261 272.296377 
L 118.699716 296.03625 
L 119.54517 264.026086 
L 120.390625 207.799987 
L 121.23608 243.066594 
L 122.081534 193.629605 
L 122.926989 187.417065 
L 123.772443 175.612571 
L 124.617898 188.708502 
L 125.463352 182.468813 
L 126.308807 171.245586 
L 127.154261 163.200798 
L 127.999716 165.079255 
L 128.84517 164.641227 
L 129.690625 164.583714 
L 130.53608 170.878139 
L 131.381534 192.699071 
L 132.226989 175.336276 
L 133.072443 168.049861 
L 133.917898 151.28019 
L 134.763352 159.248282 
L 135.608807 146.28808 
L 136.454261 140.901759 
L 137.299716 145.551194 
L 138.14517 142.666678 
L 138.990625 143.648375 
L 139.83608 145.606527 
L 140.681534 140.852092 
L 141.526989 145.328446 
L 142.372443 143.822301 
L 143.217898 139.007021 
L 144.063352 137.082641 
L 144.908807 136.292485 
L 145.754261 134.505795 
L 146.599716 136.254305 
L 147.44517 137.319965 
L 148.290625 137.857859 
L 149.13608 137.248942 
L 149.981534 137.370009 
L 150.826989 140.140774 
L 151.672443 136.559143 
L 152.517898 136.20536 
L 153.363352 136.796645 
L 154.208807 135.641941 
L 155.054261 138.298132 
L 155.899716 136.548575 
L 156.74517 138.086089 
L 157.590625 137.093049 
L 158.43608 139.686466 
L 159.281534 134.660049 
L 160.126989 136.760201 
L 160.972443 136.928963 
L 161.817898 137.545384 
L 163.508807 135.145935 
L 165.199716 138.556555 
L 166.04517 138.551237 
L 166.890625 137.30024 
L 167.73608 134.618055 
L 168.581534 136.359067 
L 169.426989 135.329998 
L 171.117898 134.580303 
L 171.963352 133.586949 
L 172.808807 134.311701 
L 173.654261 134.512647 
L 174.499716 134.178027 
L 175.34517 133.276789 
L 176.190625 134.796104 
L 177.03608 135.5698 
L 177.881534 133.398496 
L 178.726989 134.94464 
L 179.572443 135.594839 
L 180.417898 136.023794 
L 181.263352 134.271671 
L 182.108807 133.52041 
L 182.954261 134.134421 
L 183.799716 134.354601 
L 184.64517 134.101571 
L 185.490625 134.851017 
L 186.33608 135.281328 
L 187.181534 134.599304 
L 188.026989 133.753552 
L 188.872443 134.350299 
L 189.717898 134.197715 
L 190.563352 135.957243 
L 191.408807 133.746004 
L 192.254261 134.598264 
L 193.099716 133.655918 
L 193.94517 134.480093 
L 194.790625 134.348458 
L 195.63608 134.696788 
L 196.481534 133.512672 
L 197.326989 135.221075 
L 198.172443 133.730723 
L 199.017898 134.529465 
L 199.863352 132.370661 
L 201.554261 134.572126 
L 202.399716 134.072371 
L 203.24517 134.627531 
L 204.090625 133.686821 
L 204.93608 135.793761 
L 205.781534 136.798164 
L 206.626989 135.970146 
L 207.472443 136.020147 
L 209.163352 133.937679 
L 210.008807 133.883375 
L 210.854261 135.783679 
L 211.699716 134.246771 
L 212.54517 134.67069 
L 213.390625 133.787839 
L 214.23608 133.98603 
L 215.081534 133.749291 
L 215.926989 134.937766 
L 216.772443 133.590693 
L 217.617898 133.948955 
L 219.308807 135.163464 
L 220.154261 135.250225 
L 220.999716 133.417657 
L 221.84517 134.83951 
L 222.690625 134.042226 
L 223.53608 133.857755 
L 224.381534 132.744474 
L 225.226989 133.127158 
L 226.072443 133.733979 
L 227.763352 132.540356 
L 228.608807 132.381644 
L 229.454261 133.468012 
L 230.299716 132.89523 
L 231.14517 133.132457 
L 231.990625 133.054752 
L 232.83608 134.444325 
L 233.681534 134.492291 
L 234.526989 132.703812 
L 235.372443 132.803628 
L 236.217898 132.034225 
L 237.063352 131.855089 
L 237.908807 132.523579 
L 238.754261 133.899917 
L 239.599716 133.3576 
L 240.44517 133.204065 
L 241.290625 132.664753 
L 242.13608 133.850222 
L 242.981534 132.380251 
L 243.826989 134.508646 
L 244.672443 132.891838 
L 245.517898 132.60006 
L 247.208807 133.371722 
L 248.899716 133.289836 
L 249.74517 133.233779 
L 250.590625 132.59753 
L 251.43608 133.140671 
L 252.281534 133.469409 
L 253.126989 135.298431 
L 253.972443 133.081593 
L 254.817898 133.76687 
L 255.663352 133.628306 
L 256.508807 134.142602 
L 258.199716 133.234211 
L 259.04517 133.387198 
L 259.890625 132.977919 
L 260.73608 133.963267 
L 261.581534 133.314476 
L 262.426989 132.411628 
L 263.272443 133.066124 
L 264.117898 134.496277 
L 264.963352 133.755932 
L 265.808807 135.162542 
L 266.654261 133.581566 
L 267.499716 133.305612 
L 268.34517 133.524542 
L 270.03608 133.266223 
L 270.881534 134.589685 
L 271.726989 133.405029 
L 273.417898 134.669077 
L 274.263352 133.501361 
L 275.108807 134.54872 
L 275.954261 134.330751 
L 276.799716 133.594184 
L 277.64517 133.685259 
L 278.490625 133.132268 
L 280.181534 134.556337 
L 281.026989 134.747522 
L 281.872443 133.734818 
L 282.717898 134.057103 
L 283.563352 133.400449 
L 285.254261 135.078663 
L 286.099716 134.763415 
L 286.94517 132.670398 
L 287.790625 133.845273 
L 288.63608 134.183134 
L 289.481534 135.394309 
L 290.326989 134.32218 
L 291.172443 135.40424 
L 292.017898 135.965906 
L 292.863352 134.883353 
L 293.708807 135.13337 
L 294.554261 133.912702 
L 295.399716 134.390122 
L 296.24517 133.280426 
L 297.090625 133.387114 
L 298.781534 133.884612 
L 299.626989 134.965188 
L 300.472443 135.665181 
L 301.317898 133.526647 
L 302.163352 134.958716 
L 303.008807 134.407457 
L 303.854261 133.612359 
L 304.699716 132.453903 
L 305.54517 132.901754 
L 306.390625 134.501656 
L 307.23608 132.691125 
L 308.081534 132.707572 
L 308.926989 133.549338 
L 309.772443 133.084856 
L 310.617898 134.094326 
L 311.463352 134.739972 
L 312.308807 133.289971 
L 313.154261 133.717798 
L 313.999716 134.941621 
L 314.84517 133.779234 
L 315.690625 134.403515 
L 316.53608 132.779398 
L 317.381534 134.351158 
L 318.226989 134.337696 
L 319.072443 134.155492 
L 319.917898 132.525546 
L 320.763352 133.086877 
L 321.608807 131.931183 
L 322.454261 134.582029 
L 323.299716 134.47649 
L 324.990625 133.679502 
L 325.83608 133.335482 
L 327.526989 133.982783 
L 328.372443 133.474433 
L 329.217898 133.545177 
L 330.063352 134.065804 
L 330.908807 133.091783 
L 331.754261 133.394984 
L 332.599716 133.362916 
L 333.44517 133.734817 
L 335.13608 133.935786 
L 335.981534 134.215488 
L 336.826989 133.965623 
L 337.672443 135.494185 
L 339.363352 133.550128 
L 340.208807 133.11194 
L 341.054261 132.238664 
L 341.899716 132.453043 
L 342.74517 130.810441 
L 344.43608 134.124518 
L 345.281534 135.103878 
L 346.126989 133.781092 
L 346.972443 133.99295 
L 347.817898 132.891941 
L 348.663352 133.912624 
L 349.508807 133.264993 
L 350.354261 132.399447 
L 351.199716 131.713326 
L 352.04517 132.090483 
L 352.890625 132.856766 
L 353.73608 133.123812 
L 354.581534 133.135695 
L 355.426989 132.27877 
L 356.272443 132.610056 
L 357.117898 134.40004 
L 357.963352 133.040585 
L 358.808807 133.285989 
L 359.654261 133.033763 
L 360.499716 134.071489 
L 361.34517 133.40679 
L 363.03608 133.948797 
L 363.881534 133.393113 
L 364.726989 134.972785 
L 365.572443 133.784309 
L 366.417898 134.35198 
L 367.263352 133.539669 
L 368.108807 133.178662 
L 368.954261 134.394646 
L 369.799716 132.953353 
L 370.64517 132.700312 
L 371.490625 133.263802 
L 372.33608 133.674356 
L 373.181534 132.279369 
L 374.026989 132.540283 
L 374.872443 132.63201 
L 375.717898 132.106652 
L 377.408807 131.875436 
L 378.254261 132.101985 
L 379.099716 131.632349 
L 379.94517 132.243352 
L 380.790625 131.312647 
L 381.63608 132.518016 
L 382.481534 132.074249 
L 383.326989 133.525432 
L 384.172443 132.311771 
L 385.017898 131.365266 
L 385.863352 132.376833 
L 386.708807 132.470925 
L 388.399716 131.396327 
L 389.24517 131.54476 
L 390.090625 132.302675 
L 390.93608 131.590595 
L 391.781534 132.470348 
L 392.626989 132.412599 
L 393.472443 131.673215 
L 395.163352 133.198533 
L 396.008807 133.673751 
L 396.854261 132.436078 
L 397.699716 131.4986 
L 398.54517 132.618971 
L 399.390625 132.490221 
L 400.23608 132.556169 
L 401.081534 131.788266 
L 401.926989 131.942189 
L 402.772443 131.903216 
L 403.617898 132.539686 
L 404.463352 130.569412 
L 405.308807 131.466622 
L 406.154261 132.033561 
L 406.999716 131.906376 
L 407.84517 130.992269 
L 408.690625 131.851759 
L 409.53608 132.544933 
L 410.381534 132.199204 
L 411.226989 132.783126 
L 412.072443 132.067351 
L 412.917898 132.47541 
L 413.763352 132.238959 
L 414.608807 132.671792 
L 415.454261 132.285419 
L 416.299716 132.183509 
L 417.14517 131.733499 
L 418.83608 132.243679 
L 419.681534 132.787757 
L 422.217898 132.398486 
L 423.908807 132.428882 
L 424.754261 131.97184 
L 425.599716 132.431972 
L 426.44517 133.559509 
L 427.290625 133.063622 
L 428.13608 133.288699 
L 428.981534 132.205903 
L 429.826989 132.12337 
L 430.672443 131.742718 
L 431.517898 132.882066 
L 434.054261 132.404978 
L 435.74517 132.463904 
L 436.590625 131.924399 
L 437.43608 132.932016 
L 438.281534 132.058467 
L 439.126989 131.58803 
L 439.972443 132.137126 
L 440.817898 131.581192 
L 441.663352 132.375005 
L 442.508807 132.978092 
L 443.354261 133.131272 
L 444.199716 134.108581 
L 445.04517 132.805618 
L 445.890625 132.444667 
L 446.73608 132.462697 
L 447.581534 132.82047 
L 448.426989 132.728157 
L 450.117898 132.097278 
L 450.963352 132.340179 
L 451.808807 132.742722 
L 452.654261 133.609747 
L 453.499716 132.67693 
L 454.34517 132.79041 
L 455.190625 132.485461 
L 456.03608 132.365072 
L 456.881534 133.161963 
L 457.726989 133.657013 
L 458.572443 132.932014 
L 459.417898 133.725188 
L 461.108807 133.602527 
L 461.954261 132.867533 
L 462.799716 132.317633 
L 463.64517 133.242729 
L 464.490625 134.369376 
L 465.33608 133.267726 
L 466.181534 134.488446 
L 467.026989 133.333287 
L 467.872443 133.597625 
L 468.717898 135.119699 
L 469.563352 133.710805 
L 470.408807 134.149777 
L 471.254261 133.742468 
L 472.099716 131.405445 
L 473.790625 134.263899 
L 474.63608 132.946087 
L 475.481534 133.713455 
L 476.326989 133.403473 
L 477.172443 132.451649 
L 478.017898 132.25086 
L 478.863352 132.746294 
L 479.708807 133.543493 
L 480.554261 134.145032 
L 481.399716 133.773815 
L 482.24517 132.745112 
L 483.090625 133.204419 
L 483.93608 132.526789 
L 485.626989 132.501007 
L 486.472443 132.877976 
L 487.317898 132.827072 
L 488.163352 133.125438 
L 489.008807 133.077798 
L 490.699716 132.281847 
L 491.54517 132.139013 
L 492.390625 133.059999 
L 493.23608 132.847204 
L 494.081534 133.215277 
L 494.926989 133.038088 
L 495.772443 133.341311 
L 496.617898 133.198229 
L 497.463352 132.869768 
L 498.308807 131.541686 
L 499.154261 130.601714 
L 499.999716 130.221287 
L 500.84517 132.44365 
L 501.690625 132.860736 
L 502.53608 132.116999 
L 503.381534 132.416893 
L 504.226989 132.019425 
L 505.072443 132.093121 
L 505.917898 131.574188 
L 506.763352 131.30707 
L 507.608807 131.666799 
L 508.454261 131.029464 
L 509.299716 133.131409 
L 510.14517 132.308717 
L 511.83608 130.991933 
L 512.681534 131.632793 
L 514.372443 132.233251 
L 515.217898 131.305001 
L 516.063352 130.814976 
L 516.908807 131.642424 
L 517.754261 132.145508 
L 518.599716 131.893631 
L 519.44517 131.26196 
L 520.290625 131.298169 
L 521.13608 132.251309 
L 521.981534 131.744891 
L 522.826989 131.722877 
L 523.672443 131.213984 
L 524.517898 133.009789 
L 525.363352 132.112158 
L 527.054261 132.428836 
L 527.899716 132.054355 
L 529.590625 133.03029 
L 530.43608 132.790353 
L 531.281534 133.726846 
L 532.126989 131.680295 
L 532.972443 132.280318 
L 533.817898 133.309699 
L 534.663352 132.588921 
L 535.508807 132.646088 
L 536.354261 132.094469 
L 537.199716 132.633491 
L 538.04517 132.299455 
L 538.890625 132.719236 
L 539.73608 132.658564 
L 540.581534 130.7238 
L 541.426989 132.541882 
L 542.272443 131.890837 
L 543.117898 132.252463 
L 543.963352 132.059202 
L 545.654261 131.33064 
L 546.499716 131.620803 
L 547.34517 132.843674 
L 548.190625 132.807016 
L 549.03608 132.123512 
L 549.881534 132.344499 
L 550.726989 132.697557 
L 551.572443 132.59924 
L 552.417898 131.928732 
L 553.263352 132.041675 
L 554.108807 132.651605 
L 554.954261 132.183978 
L 556.64517 133.385368 
L 558.33608 133.234771 
L 560.026989 133.314622 
L 560.872443 133.123202 
L 561.717898 130.267198 
L 562.563352 131.961519 
L 563.408807 132.457787 
L 564.254261 131.922502 
L 565.099716 132.137043 
L 565.94517 131.904927 
L 566.790625 132.655 
L 567.63608 132.616746 
L 568.481534 131.219268 
L 569.326989 130.828335 
L 570.172443 131.633501 
L 571.017898 131.692301 
L 571.863352 133.00353 
L 572.708807 131.70666 
L 573.554261 132.741796 
L 574.399716 131.429345 
L 576.090625 131.603527 
L 576.93608 132.149271 
L 577.781534 131.578289 
L 578.626989 131.710636 
L 579.472443 133.077386 
L 580.317898 133.171804 
L 581.163352 131.927192 
L 582.008807 131.326142 
L 582.854261 131.693857 
L 583.699716 131.160785 
L 584.54517 132.014318 
L 586.23608 131.679714 
L 587.081534 131.938007 
L 587.926989 131.955963 
L 588.772443 132.66614 
L 589.617898 132.074235 
L 591.308807 131.45893 
L 592.154261 131.684332 
L 592.999716 132.235263 
L 593.84517 131.630971 
L 594.690625 132.221324 
L 595.53608 132.119814 
L 596.381534 132.407691 
L 597.226989 132.042115 
L 598.072443 131.368889 
L 598.917898 132.476174 
L 599.763352 132.517321 
L 600.608807 131.085981 
L 601.454261 131.956984 
L 602.299716 131.732544 
L 603.14517 132.372228 
L 603.990625 131.597795 
L 604.83608 131.822922 
L 605.681534 130.872069 
L 606.526989 132.252918 
L 607.372443 131.896233 
L 608.217898 132.798829 
L 609.908807 131.423575 
L 610.754261 132.113453 
L 611.599716 131.16003 
L 612.44517 132.417548 
L 613.290625 132.480037 
L 614.13608 131.610612 
L 614.981534 131.893874 
L 615.826989 131.121883 
L 617.517898 129.977019 
L 618.363352 131.37025 
L 619.208807 130.291315 
L 620.054261 131.423547 
L 620.899716 130.796264 
L 621.74517 131.738487 
L 622.590625 131.537825 
L 623.43608 130.668533 
L 624.281534 131.041875 
L 625.126989 130.949823 
L 625.126989 130.949823 
" clip-path="url(#pd29e8c156b)" style="fill: none; stroke: #ff7f0e; stroke-width: 1.5; stroke-linecap: square"/>
   </g>
   <g id="patch_3">
    <path d="M 92.490625 308.63625 
L 92.490625 31.43625 
" style="fill: none; stroke: #000000; stroke-width: 0.8; stroke-linejoin: miter; stroke-linecap: square"/>
   </g>
   <g id="patch_4">
    <path d="M 650.490625 308.63625 
L 650.490625 31.43625 
" style="fill: none; stroke: #000000; stroke-width: 0.8; stroke-linejoin: miter; stroke-linecap: square"/>
   </g>
   <g id="patch_5">
    <path d="M 92.490625 308.63625 
L 650.490625 308.63625 
" style="fill: none; stroke: #000000; stroke-width: 0.8; stroke-linejoin: miter; stroke-linecap: square"/>
   </g>
   <g id="patch_6">
    <path d="M 92.490625 31.43625 
L 650.490625 31.43625 
" style="fill: none; stroke: #000000; stroke-width: 0.8; stroke-linejoin: miter; stroke-linecap: square"/>
   </g>
   <g id="text_14">
    <!-- Generator and Discriminator Loss During Training -->
    <g transform="translate(74.258125 25.43625) scale(0.24 -0.24)">
     <defs>
      <path id="DejaVuSans-47" d="M 3809 666 
L 3809 1919 
L 2778 1919 
L 2778 2438 
L 4434 2438 
L 4434 434 
Q 4069 175 3628 42 
Q 3188 -91 2688 -91 
Q 1594 -91 976 548 
Q 359 1188 359 2328 
Q 359 3472 976 4111 
Q 1594 4750 2688 4750 
Q 3144 4750 3555 4637 
Q 3966 4525 4313 4306 
L 4313 3634 
Q 3963 3931 3569 4081 
Q 3175 4231 2741 4231 
Q 1884 4231 1454 3753 
Q 1025 3275 1025 2328 
Q 1025 1384 1454 906 
Q 1884 428 2741 428 
Q 3075 428 3337 486 
Q 3600 544 3809 666 
z
" transform="scale(0.015625)"/>
      <path id="DejaVuSans-20" transform="scale(0.015625)"/>
      <path id="DejaVuSans-64" d="M 2906 2969 
L 2906 4863 
L 3481 4863 
L 3481 0 
L 2906 0 
L 2906 525 
Q 2725 213 2448 61 
Q 2172 -91 1784 -91 
Q 1150 -91 751 415 
Q 353 922 353 1747 
Q 353 2572 751 3078 
Q 1150 3584 1784 3584 
Q 2172 3584 2448 3432 
Q 2725 3281 2906 2969 
z
M 947 1747 
Q 947 1113 1208 752 
Q 1469 391 1925 391 
Q 2381 391 2643 752 
Q 2906 1113 2906 1747 
Q 2906 2381 2643 2742 
Q 2381 3103 1925 3103 
Q 1469 3103 1208 2742 
Q 947 2381 947 1747 
z
" transform="scale(0.015625)"/>
      <path id="DejaVuSans-44" d="M 1259 4147 
L 1259 519 
L 2022 519 
Q 2988 519 3436 956 
Q 3884 1394 3884 2338 
Q 3884 3275 3436 3711 
Q 2988 4147 2022 4147 
L 1259 4147 
z
M 628 4666 
L 1925 4666 
Q 3281 4666 3915 4102 
Q 4550 3538 4550 2338 
Q 4550 1131 3912 565 
Q 3275 0 1925 0 
L 628 0 
L 628 4666 
z
" transform="scale(0.015625)"/>
      <path id="DejaVuSans-63" d="M 3122 3366 
L 3122 2828 
Q 2878 2963 2633 3030 
Q 2388 3097 2138 3097 
Q 1578 3097 1268 2742 
Q 959 2388 959 1747 
Q 959 1106 1268 751 
Q 1578 397 2138 397 
Q 2388 397 2633 464 
Q 2878 531 3122 666 
L 3122 134 
Q 2881 22 2623 -34 
Q 2366 -91 2075 -91 
Q 1284 -91 818 406 
Q 353 903 353 1747 
Q 353 2603 823 3093 
Q 1294 3584 2113 3584 
Q 2378 3584 2631 3529 
Q 2884 3475 3122 3366 
z
" transform="scale(0.015625)"/>
      <path id="DejaVuSans-6d" d="M 3328 2828 
Q 3544 3216 3844 3400 
Q 4144 3584 4550 3584 
Q 5097 3584 5394 3201 
Q 5691 2819 5691 2113 
L 5691 0 
L 5113 0 
L 5113 2094 
Q 5113 2597 4934 2840 
Q 4756 3084 4391 3084 
Q 3944 3084 3684 2787 
Q 3425 2491 3425 1978 
L 3425 0 
L 2847 0 
L 2847 2094 
Q 2847 2600 2669 2842 
Q 2491 3084 2119 3084 
Q 1678 3084 1418 2786 
Q 1159 2488 1159 1978 
L 1159 0 
L 581 0 
L 581 3500 
L 1159 3500 
L 1159 2956 
Q 1356 3278 1631 3431 
Q 1906 3584 2284 3584 
Q 2666 3584 2933 3390 
Q 3200 3197 3328 2828 
z
" transform="scale(0.015625)"/>
      <path id="DejaVuSans-75" d="M 544 1381 
L 544 3500 
L 1119 3500 
L 1119 1403 
Q 1119 906 1312 657 
Q 1506 409 1894 409 
Q 2359 409 2629 706 
Q 2900 1003 2900 1516 
L 2900 3500 
L 3475 3500 
L 3475 0 
L 2900 0 
L 2900 538 
Q 2691 219 2414 64 
Q 2138 -91 1772 -91 
Q 1169 -91 856 284 
Q 544 659 544 1381 
z
M 1991 3584 
L 1991 3584 
z
" transform="scale(0.015625)"/>
      <path id="DejaVuSans-67" d="M 2906 1791 
Q 2906 2416 2648 2759 
Q 2391 3103 1925 3103 
Q 1463 3103 1205 2759 
Q 947 2416 947 1791 
Q 947 1169 1205 825 
Q 1463 481 1925 481 
Q 2391 481 2648 825 
Q 2906 1169 2906 1791 
z
M 3481 434 
Q 3481 -459 3084 -895 
Q 2688 -1331 1869 -1331 
Q 1566 -1331 1297 -1286 
Q 1028 -1241 775 -1147 
L 775 -588 
Q 1028 -725 1275 -790 
Q 1522 -856 1778 -856 
Q 2344 -856 2625 -561 
Q 2906 -266 2906 331 
L 2906 616 
Q 2728 306 2450 153 
Q 2172 0 1784 0 
Q 1141 0 747 490 
Q 353 981 353 1791 
Q 353 2603 747 3093 
Q 1141 3584 1784 3584 
Q 2172 3584 2450 3431 
Q 2728 3278 2906 2969 
L 2906 3500 
L 3481 3500 
L 3481 434 
z
" transform="scale(0.015625)"/>
      <path id="DejaVuSans-54" d="M -19 4666 
L 3928 4666 
L 3928 4134 
L 2272 4134 
L 2272 0 
L 1638 0 
L 1638 4134 
L -19 4134 
L -19 4666 
z
" transform="scale(0.015625)"/>
     </defs>
     <use xlink:href="#DejaVuSans-47"/>
     <use xlink:href="#DejaVuSans-65" x="77.490234"/>
     <use xlink:href="#DejaVuSans-6e" x="139.013672"/>
     <use xlink:href="#DejaVuSans-65" x="202.392578"/>
     <use xlink:href="#DejaVuSans-72" x="263.916016"/>
     <use xlink:href="#DejaVuSans-61" x="305.029297"/>
     <use xlink:href="#DejaVuSans-74" x="366.308594"/>
     <use xlink:href="#DejaVuSans-6f" x="405.517578"/>
     <use xlink:href="#DejaVuSans-72" x="466.699219"/>
     <use xlink:href="#DejaVuSans-20" x="507.8125"/>
     <use xlink:href="#DejaVuSans-61" x="539.599609"/>
     <use xlink:href="#DejaVuSans-6e" x="600.878906"/>
     <use xlink:href="#DejaVuSans-64" x="664.257812"/>
     <use xlink:href="#DejaVuSans-20" x="727.734375"/>
     <use xlink:href="#DejaVuSans-44" x="759.521484"/>
     <use xlink:href="#DejaVuSans-69" x="836.523438"/>
     <use xlink:href="#DejaVuSans-73" x="864.306641"/>
     <use xlink:href="#DejaVuSans-63" x="916.40625"/>
     <use xlink:href="#DejaVuSans-72" x="971.386719"/>
     <use xlink:href="#DejaVuSans-69" x="1012.5"/>
     <use xlink:href="#DejaVuSans-6d" x="1040.283203"/>
     <use xlink:href="#DejaVuSans-69" x="1137.695312"/>
     <use xlink:href="#DejaVuSans-6e" x="1165.478516"/>
     <use xlink:href="#DejaVuSans-61" x="1228.857422"/>
     <use xlink:href="#DejaVuSans-74" x="1290.136719"/>
     <use xlink:href="#DejaVuSans-6f" x="1329.345703"/>
     <use xlink:href="#DejaVuSans-72" x="1390.527344"/>
     <use xlink:href="#DejaVuSans-20" x="1431.640625"/>
     <use xlink:href="#DejaVuSans-4c" x="1463.427734"/>
     <use xlink:href="#DejaVuSans-6f" x="1517.390625"/>
     <use xlink:href="#DejaVuSans-73" x="1578.572266"/>
     <use xlink:href="#DejaVuSans-73" x="1630.671875"/>
     <use xlink:href="#DejaVuSans-20" x="1682.771484"/>
     <use xlink:href="#DejaVuSans-44" x="1714.558594"/>
     <use xlink:href="#DejaVuSans-75" x="1791.560547"/>
     <use xlink:href="#DejaVuSans-72" x="1854.939453"/>
     <use xlink:href="#DejaVuSans-69" x="1896.052734"/>
     <use xlink:href="#DejaVuSans-6e" x="1923.835938"/>
     <use xlink:href="#DejaVuSans-67" x="1987.214844"/>
     <use xlink:href="#DejaVuSans-20" x="2050.691406"/>
     <use xlink:href="#DejaVuSans-54" x="2082.478516"/>
     <use xlink:href="#DejaVuSans-72" x="2128.8125"/>
     <use xlink:href="#DejaVuSans-61" x="2169.925781"/>
     <use xlink:href="#DejaVuSans-69" x="2231.205078"/>
     <use xlink:href="#DejaVuSans-6e" x="2258.988281"/>
     <use xlink:href="#DejaVuSans-69" x="2322.367188"/>
     <use xlink:href="#DejaVuSans-6e" x="2350.150391"/>
     <use xlink:href="#DejaVuSans-67" x="2413.529297"/>
    </g>
   </g>
   <g id="legend_1">
    <g id="patch_7">
     <path d="M 556.99375 106.14875 
L 636.490625 106.14875 
Q 640.490625 106.14875 640.490625 102.14875 
L 640.490625 45.43625 
Q 640.490625 41.43625 636.490625 41.43625 
L 556.99375 41.43625 
Q 552.99375 41.43625 552.99375 45.43625 
L 552.99375 102.14875 
Q 552.99375 106.14875 556.99375 106.14875 
z
" style="fill: #ffffff; opacity: 0.8; stroke: #cccccc; stroke-linejoin: miter"/>
    </g>
    <g id="line2d_14">
     <path d="M 560.99375 57.633125 
L 580.99375 57.633125 
L 600.99375 57.633125 
" style="fill: none; stroke: #1f77b4; stroke-width: 1.5; stroke-linecap: square"/>
    </g>
    <g id="text_15">
     <!-- G -->
     <g transform="translate(616.99375 64.633125) scale(0.2 -0.2)">
      <use xlink:href="#DejaVuSans-47"/>
     </g>
    </g>
    <g id="line2d_15">
     <path d="M 560.99375 86.989375 
L 580.99375 86.989375 
L 600.99375 86.989375 
" style="fill: none; stroke: #ff7f0e; stroke-width: 1.5; stroke-linecap: square"/>
    </g>
    <g id="text_16">
     <!-- D -->
     <g transform="translate(616.99375 93.989375) scale(0.2 -0.2)">
      <use xlink:href="#DejaVuSans-44"/>
     </g>
    </g>
   </g>
  </g>
 </g>
 <defs>
  <clipPath id="pd29e8c156b">
   <rect x="92.490625" y="31.43625" width="558" height="277.2"/>
  </clipPath>
 </defs>
</svg>
