<?xml version="1.0" encoding="utf-8" standalone="no"?>
<!DOCTYPE svg PUBLIC "-//W3C//DTD SVG 1.1//EN"
  "http://www.w3.org/Graphics/SVG/1.1/DTD/svg11.dtd">
<svg xmlns:xlink="http://www.w3.org/1999/xlink" width="675.923125pt" height="365.54875pt" viewBox="0 0 675.923125 365.54875" xmlns="http://www.w3.org/2000/svg" version="1.1">
 <metadata>
  <rdf:RDF xmlns:dc="http://purl.org/dc/elements/1.1/" xmlns:cc="http://creativecommons.org/ns#" xmlns:rdf="http://www.w3.org/1999/02/22-rdf-syntax-ns#">
   <cc:Work>
    <dc:type rdf:resource="http://purl.org/dc/dcmitype/StillImage"/>
    <dc:date>2024-02-07T04:43:03.040581</dc:date>
    <dc:format>image/svg+xml</dc:format>
    <dc:creator>
     <cc:Agent>
      <dc:title>Matplotlib v3.7.2, https://matplotlib.org/</dc:title>
     </cc:Agent>
    </dc:creator>
   </cc:Work>
  </rdf:RDF>
 </metadata>
 <defs>
  <style type="text/css">*{stroke-linejoin: round; stroke-linecap: butt}</style>
 </defs>
 <g id="figure_1">
  <g id="patch_1">
   <path d="M 0 365.54875 
L 675.923125 365.54875 
L 675.923125 -0 
L 0 -0 
z
" style="fill: #ffffff"/>
  </g>
  <g id="axes_1">
   <g id="patch_2">
    <path d="M 92.490625 308.63625 
L 650.490625 308.63625 
L 650.490625 31.43625 
L 92.490625 31.43625 
z
" style="fill: #ffffff"/>
   </g>
   <g id="matplotlib.axis_1">
    <g id="xtick_1">
     <g id="line2d_1">
      <defs>
       <path id="m33e8e099ec" d="M 0 0 
L 0 3.5 
" style="stroke: #000000; stroke-width: 0.8"/>
      </defs>
      <g>
       <use xlink:href="#m33e8e099ec" x="117.854261" y="308.63625" style="stroke: #000000; stroke-width: 0.8"/>
      </g>
     </g>
     <g id="text_1">
      <!-- 0 -->
      <g transform="translate(111.491761 330.833125) scale(0.2 -0.2)">
       <defs>
        <path id="DejaVuSans-30" d="M 2034 4250 
Q 1547 4250 1301 3770 
Q 1056 3291 1056 2328 
Q 1056 1369 1301 889 
Q 1547 409 2034 409 
Q 2525 409 2770 889 
Q 3016 1369 3016 2328 
Q 3016 3291 2770 3770 
Q 2525 4250 2034 4250 
z
M 2034 4750 
Q 2819 4750 3233 4129 
Q 3647 3509 3647 2328 
Q 3647 1150 3233 529 
Q 2819 -91 2034 -91 
Q 1250 -91 836 529 
Q 422 1150 422 2328 
Q 422 3509 836 4129 
Q 1250 4750 2034 4750 
z
" transform="scale(0.015625)"/>
       </defs>
       <use xlink:href="#DejaVuSans-30"/>
      </g>
     </g>
    </g>
    <g id="xtick_2">
     <g id="line2d_2">
      <g>
       <use xlink:href="#m33e8e099ec" x="187.822913" y="308.63625" style="stroke: #000000; stroke-width: 0.8"/>
      </g>
     </g>
     <g id="text_2">
      <!-- 200 -->
      <g transform="translate(168.735413 330.833125) scale(0.2 -0.2)">
       <defs>
        <path id="DejaVuSans-32" d="M 1228 531 
L 3431 531 
L 3431 0 
L 469 0 
L 469 531 
Q 828 903 1448 1529 
Q 2069 2156 2228 2338 
Q 2531 2678 2651 2914 
Q 2772 3150 2772 3378 
Q 2772 3750 2511 3984 
Q 2250 4219 1831 4219 
Q 1534 4219 1204 4116 
Q 875 4013 500 3803 
L 500 4441 
Q 881 4594 1212 4672 
Q 1544 4750 1819 4750 
Q 2544 4750 2975 4387 
Q 3406 4025 3406 3419 
Q 3406 3131 3298 2873 
Q 3191 2616 2906 2266 
Q 2828 2175 2409 1742 
Q 1991 1309 1228 531 
z
" transform="scale(0.015625)"/>
       </defs>
       <use xlink:href="#DejaVuSans-32"/>
       <use xlink:href="#DejaVuSans-30" x="63.623047"/>
       <use xlink:href="#DejaVuSans-30" x="127.246094"/>
      </g>
     </g>
    </g>
    <g id="xtick_3">
     <g id="line2d_3">
      <g>
       <use xlink:href="#m33e8e099ec" x="257.791565" y="308.63625" style="stroke: #000000; stroke-width: 0.8"/>
      </g>
     </g>
     <g id="text_3">
      <!-- 400 -->
      <g transform="translate(238.704065 330.833125) scale(0.2 -0.2)">
       <defs>
        <path id="DejaVuSans-34" d="M 2419 4116 
L 825 1625 
L 2419 1625 
L 2419 4116 
z
M 2253 4666 
L 3047 4666 
L 3047 1625 
L 3713 1625 
L 3713 1100 
L 3047 1100 
L 3047 0 
L 2419 0 
L 2419 1100 
L 313 1100 
L 313 1709 
L 2253 4666 
z
" transform="scale(0.015625)"/>
       </defs>
       <use xlink:href="#DejaVuSans-34"/>
       <use xlink:href="#DejaVuSans-30" x="63.623047"/>
       <use xlink:href="#DejaVuSans-30" x="127.246094"/>
      </g>
     </g>
    </g>
    <g id="xtick_4">
     <g id="line2d_4">
      <g>
       <use xlink:href="#m33e8e099ec" x="327.760217" y="308.63625" style="stroke: #000000; stroke-width: 0.8"/>
      </g>
     </g>
     <g id="text_4">
      <!-- 600 -->
      <g transform="translate(308.672717 330.833125) scale(0.2 -0.2)">
       <defs>
        <path id="DejaVuSans-36" d="M 2113 2584 
Q 1688 2584 1439 2293 
Q 1191 2003 1191 1497 
Q 1191 994 1439 701 
Q 1688 409 2113 409 
Q 2538 409 2786 701 
Q 3034 994 3034 1497 
Q 3034 2003 2786 2293 
Q 2538 2584 2113 2584 
z
M 3366 4563 
L 3366 3988 
Q 3128 4100 2886 4159 
Q 2644 4219 2406 4219 
Q 1781 4219 1451 3797 
Q 1122 3375 1075 2522 
Q 1259 2794 1537 2939 
Q 1816 3084 2150 3084 
Q 2853 3084 3261 2657 
Q 3669 2231 3669 1497 
Q 3669 778 3244 343 
Q 2819 -91 2113 -91 
Q 1303 -91 875 529 
Q 447 1150 447 2328 
Q 447 3434 972 4092 
Q 1497 4750 2381 4750 
Q 2619 4750 2861 4703 
Q 3103 4656 3366 4563 
z
" transform="scale(0.015625)"/>
       </defs>
       <use xlink:href="#DejaVuSans-36"/>
       <use xlink:href="#DejaVuSans-30" x="63.623047"/>
       <use xlink:href="#DejaVuSans-30" x="127.246094"/>
      </g>
     </g>
    </g>
    <g id="xtick_5">
     <g id="line2d_5">
      <g>
       <use xlink:href="#m33e8e099ec" x="397.72887" y="308.63625" style="stroke: #000000; stroke-width: 0.8"/>
      </g>
     </g>
     <g id="text_5">
      <!-- 800 -->
      <g transform="translate(378.64137 330.833125) scale(0.2 -0.2)">
       <defs>
        <path id="DejaVuSans-38" d="M 2034 2216 
Q 1584 2216 1326 1975 
Q 1069 1734 1069 1313 
Q 1069 891 1326 650 
Q 1584 409 2034 409 
Q 2484 409 2743 651 
Q 3003 894 3003 1313 
Q 3003 1734 2745 1975 
Q 2488 2216 2034 2216 
z
M 1403 2484 
Q 997 2584 770 2862 
Q 544 3141 544 3541 
Q 544 4100 942 4425 
Q 1341 4750 2034 4750 
Q 2731 4750 3128 4425 
Q 3525 4100 3525 3541 
Q 3525 3141 3298 2862 
Q 3072 2584 2669 2484 
Q 3125 2378 3379 2068 
Q 3634 1759 3634 1313 
Q 3634 634 3220 271 
Q 2806 -91 2034 -91 
Q 1263 -91 848 271 
Q 434 634 434 1313 
Q 434 1759 690 2068 
Q 947 2378 1403 2484 
z
M 1172 3481 
Q 1172 3119 1398 2916 
Q 1625 2713 2034 2713 
Q 2441 2713 2670 2916 
Q 2900 3119 2900 3481 
Q 2900 3844 2670 4047 
Q 2441 4250 2034 4250 
Q 1625 4250 1398 4047 
Q 1172 3844 1172 3481 
z
" transform="scale(0.015625)"/>
       </defs>
       <use xlink:href="#DejaVuSans-38"/>
       <use xlink:href="#DejaVuSans-30" x="63.623047"/>
       <use xlink:href="#DejaVuSans-30" x="127.246094"/>
      </g>
     </g>
    </g>
    <g id="xtick_6">
     <g id="line2d_6">
      <g>
       <use xlink:href="#m33e8e099ec" x="467.697522" y="308.63625" style="stroke: #000000; stroke-width: 0.8"/>
      </g>
     </g>
     <g id="text_6">
      <!-- 1000 -->
      <g transform="translate(442.247522 330.833125) scale(0.2 -0.2)">
       <defs>
        <path id="DejaVuSans-31" d="M 794 531 
L 1825 531 
L 1825 4091 
L 703 3866 
L 703 4441 
L 1819 4666 
L 2450 4666 
L 2450 531 
L 3481 531 
L 3481 0 
L 794 0 
L 794 531 
z
" transform="scale(0.015625)"/>
       </defs>
       <use xlink:href="#DejaVuSans-31"/>
       <use xlink:href="#DejaVuSans-30" x="63.623047"/>
       <use xlink:href="#DejaVuSans-30" x="127.246094"/>
       <use xlink:href="#DejaVuSans-30" x="190.869141"/>
      </g>
     </g>
    </g>
    <g id="xtick_7">
     <g id="line2d_7">
      <g>
       <use xlink:href="#m33e8e099ec" x="537.666174" y="308.63625" style="stroke: #000000; stroke-width: 0.8"/>
      </g>
     </g>
     <g id="text_7">
      <!-- 1200 -->
      <g transform="translate(512.216174 330.833125) scale(0.2 -0.2)">
       <use xlink:href="#DejaVuSans-31"/>
       <use xlink:href="#DejaVuSans-32" x="63.623047"/>
       <use xlink:href="#DejaVuSans-30" x="127.246094"/>
       <use xlink:href="#DejaVuSans-30" x="190.869141"/>
      </g>
     </g>
    </g>
    <g id="xtick_8">
     <g id="line2d_8">
      <g>
       <use xlink:href="#m33e8e099ec" x="607.634826" y="308.63625" style="stroke: #000000; stroke-width: 0.8"/>
      </g>
     </g>
     <g id="text_8">
      <!-- 1400 -->
      <g transform="translate(582.184826 330.833125) scale(0.2 -0.2)">
       <use xlink:href="#DejaVuSans-31"/>
       <use xlink:href="#DejaVuSans-34" x="63.623047"/>
       <use xlink:href="#DejaVuSans-30" x="127.246094"/>
       <use xlink:href="#DejaVuSans-30" x="190.869141"/>
      </g>
     </g>
    </g>
    <g id="text_9">
     <!-- iterations -->
     <g transform="translate(324.035938 354.189375) scale(0.2 -0.2)">
      <defs>
       <path id="DejaVuSans-69" d="M 603 3500 
L 1178 3500 
L 1178 0 
L 603 0 
L 603 3500 
z
M 603 4863 
L 1178 4863 
L 1178 4134 
L 603 4134 
L 603 4863 
z
" transform="scale(0.015625)"/>
       <path id="DejaVuSans-74" d="M 1172 4494 
L 1172 3500 
L 2356 3500 
L 2356 3053 
L 1172 3053 
L 1172 1153 
Q 1172 725 1289 603 
Q 1406 481 1766 481 
L 2356 481 
L 2356 0 
L 1766 0 
Q 1100 0 847 248 
Q 594 497 594 1153 
L 594 3053 
L 172 3053 
L 172 3500 
L 594 3500 
L 594 4494 
L 1172 4494 
z
" transform="scale(0.015625)"/>
       <path id="DejaVuSans-65" d="M 3597 1894 
L 3597 1613 
L 953 1613 
Q 991 1019 1311 708 
Q 1631 397 2203 397 
Q 2534 397 2845 478 
Q 3156 559 3463 722 
L 3463 178 
Q 3153 47 2828 -22 
Q 2503 -91 2169 -91 
Q 1331 -91 842 396 
Q 353 884 353 1716 
Q 353 2575 817 3079 
Q 1281 3584 2069 3584 
Q 2775 3584 3186 3129 
Q 3597 2675 3597 1894 
z
M 3022 2063 
Q 3016 2534 2758 2815 
Q 2500 3097 2075 3097 
Q 1594 3097 1305 2825 
Q 1016 2553 972 2059 
L 3022 2063 
z
" transform="scale(0.015625)"/>
       <path id="DejaVuSans-72" d="M 2631 2963 
Q 2534 3019 2420 3045 
Q 2306 3072 2169 3072 
Q 1681 3072 1420 2755 
Q 1159 2438 1159 1844 
L 1159 0 
L 581 0 
L 581 3500 
L 1159 3500 
L 1159 2956 
Q 1341 3275 1631 3429 
Q 1922 3584 2338 3584 
Q 2397 3584 2469 3576 
Q 2541 3569 2628 3553 
L 2631 2963 
z
" transform="scale(0.015625)"/>
       <path id="DejaVuSans-61" d="M 2194 1759 
Q 1497 1759 1228 1600 
Q 959 1441 959 1056 
Q 959 750 1161 570 
Q 1363 391 1709 391 
Q 2188 391 2477 730 
Q 2766 1069 2766 1631 
L 2766 1759 
L 2194 1759 
z
M 3341 1997 
L 3341 0 
L 2766 0 
L 2766 531 
Q 2569 213 2275 61 
Q 1981 -91 1556 -91 
Q 1019 -91 701 211 
Q 384 513 384 1019 
Q 384 1609 779 1909 
Q 1175 2209 1959 2209 
L 2766 2209 
L 2766 2266 
Q 2766 2663 2505 2880 
Q 2244 3097 1772 3097 
Q 1472 3097 1187 3025 
Q 903 2953 641 2809 
L 641 3341 
Q 956 3463 1253 3523 
Q 1550 3584 1831 3584 
Q 2591 3584 2966 3190 
Q 3341 2797 3341 1997 
z
" transform="scale(0.015625)"/>
       <path id="DejaVuSans-6f" d="M 1959 3097 
Q 1497 3097 1228 2736 
Q 959 2375 959 1747 
Q 959 1119 1226 758 
Q 1494 397 1959 397 
Q 2419 397 2687 759 
Q 2956 1122 2956 1747 
Q 2956 2369 2687 2733 
Q 2419 3097 1959 3097 
z
M 1959 3584 
Q 2709 3584 3137 3096 
Q 3566 2609 3566 1747 
Q 3566 888 3137 398 
Q 2709 -91 1959 -91 
Q 1206 -91 779 398 
Q 353 888 353 1747 
Q 353 2609 779 3096 
Q 1206 3584 1959 3584 
z
" transform="scale(0.015625)"/>
       <path id="DejaVuSans-6e" d="M 3513 2113 
L 3513 0 
L 2938 0 
L 2938 2094 
Q 2938 2591 2744 2837 
Q 2550 3084 2163 3084 
Q 1697 3084 1428 2787 
Q 1159 2491 1159 1978 
L 1159 0 
L 581 0 
L 581 3500 
L 1159 3500 
L 1159 2956 
Q 1366 3272 1645 3428 
Q 1925 3584 2291 3584 
Q 2894 3584 3203 3211 
Q 3513 2838 3513 2113 
z
" transform="scale(0.015625)"/>
       <path id="DejaVuSans-73" d="M 2834 3397 
L 2834 2853 
Q 2591 2978 2328 3040 
Q 2066 3103 1784 3103 
Q 1356 3103 1142 2972 
Q 928 2841 928 2578 
Q 928 2378 1081 2264 
Q 1234 2150 1697 2047 
L 1894 2003 
Q 2506 1872 2764 1633 
Q 3022 1394 3022 966 
Q 3022 478 2636 193 
Q 2250 -91 1575 -91 
Q 1294 -91 989 -36 
Q 684 19 347 128 
L 347 722 
Q 666 556 975 473 
Q 1284 391 1588 391 
Q 1994 391 2212 530 
Q 2431 669 2431 922 
Q 2431 1156 2273 1281 
Q 2116 1406 1581 1522 
L 1381 1569 
Q 847 1681 609 1914 
Q 372 2147 372 2553 
Q 372 3047 722 3315 
Q 1072 3584 1716 3584 
Q 2034 3584 2315 3537 
Q 2597 3491 2834 3397 
z
" transform="scale(0.015625)"/>
      </defs>
      <use xlink:href="#DejaVuSans-69"/>
      <use xlink:href="#DejaVuSans-74" x="27.783203"/>
      <use xlink:href="#DejaVuSans-65" x="66.992188"/>
      <use xlink:href="#DejaVuSans-72" x="128.515625"/>
      <use xlink:href="#DejaVuSans-61" x="169.628906"/>
      <use xlink:href="#DejaVuSans-74" x="230.908203"/>
      <use xlink:href="#DejaVuSans-69" x="270.117188"/>
      <use xlink:href="#DejaVuSans-6f" x="297.900391"/>
      <use xlink:href="#DejaVuSans-6e" x="359.082031"/>
      <use xlink:href="#DejaVuSans-73" x="422.460938"/>
     </g>
    </g>
   </g>
   <g id="matplotlib.axis_2">
    <g id="ytick_1">
     <g id="line2d_9">
      <defs>
       <path id="m278a00020c" d="M 0 0 
L -3.5 0 
" style="stroke: #000000; stroke-width: 0.8"/>
      </defs>
      <g>
       <use xlink:href="#m278a00020c" x="92.490625" y="308.301222" style="stroke: #000000; stroke-width: 0.8"/>
      </g>
     </g>
     <g id="text_10">
      <!-- −400 -->
      <g transform="translate(30.55625 315.89966) scale(0.2 -0.2)">
       <defs>
        <path id="DejaVuSans-2212" d="M 678 2272 
L 4684 2272 
L 4684 1741 
L 678 1741 
L 678 2272 
z
" transform="scale(0.015625)"/>
       </defs>
       <use xlink:href="#DejaVuSans-2212"/>
       <use xlink:href="#DejaVuSans-34" x="83.789062"/>
       <use xlink:href="#DejaVuSans-30" x="147.412109"/>
       <use xlink:href="#DejaVuSans-30" x="211.035156"/>
      </g>
     </g>
    </g>
    <g id="ytick_2">
     <g id="line2d_10">
      <g>
       <use xlink:href="#m278a00020c" x="92.490625" y="216.520244" style="stroke: #000000; stroke-width: 0.8"/>
      </g>
     </g>
     <g id="text_11">
      <!-- −200 -->
      <g transform="translate(30.55625 224.118682) scale(0.2 -0.2)">
       <use xlink:href="#DejaVuSans-2212"/>
       <use xlink:href="#DejaVuSans-32" x="83.789062"/>
       <use xlink:href="#DejaVuSans-30" x="147.412109"/>
       <use xlink:href="#DejaVuSans-30" x="211.035156"/>
      </g>
     </g>
    </g>
    <g id="ytick_3">
     <g id="line2d_11">
      <g>
       <use xlink:href="#m278a00020c" x="92.490625" y="124.739266" style="stroke: #000000; stroke-width: 0.8"/>
      </g>
     </g>
     <g id="text_12">
      <!-- 0 -->
      <g transform="translate(72.765625 132.337703) scale(0.2 -0.2)">
       <use xlink:href="#DejaVuSans-30"/>
      </g>
     </g>
    </g>
    <g id="ytick_4">
     <g id="line2d_12">
      <g>
       <use xlink:href="#m278a00020c" x="92.490625" y="32.958288" style="stroke: #000000; stroke-width: 0.8"/>
      </g>
     </g>
     <g id="text_13">
      <!-- 200 -->
      <g transform="translate(47.315625 40.556725) scale(0.2 -0.2)">
       <use xlink:href="#DejaVuSans-32"/>
       <use xlink:href="#DejaVuSans-30" x="63.623047"/>
       <use xlink:href="#DejaVuSans-30" x="127.246094"/>
      </g>
     </g>
    </g>
    <g id="text_14">
     <!-- Loss -->
     <g transform="translate(22.396875 191.970625) rotate(-90) scale(0.2 -0.2)">
      <defs>
       <path id="DejaVuSans-4c" d="M 628 4666 
L 1259 4666 
L 1259 531 
L 3531 531 
L 3531 0 
L 628 0 
L 628 4666 
z
" transform="scale(0.015625)"/>
      </defs>
      <use xlink:href="#DejaVuSans-4c"/>
      <use xlink:href="#DejaVuSans-6f" x="53.962891"/>
      <use xlink:href="#DejaVuSans-73" x="115.144531"/>
      <use xlink:href="#DejaVuSans-73" x="167.244141"/>
     </g>
    </g>
   </g>
   <g id="line2d_13">
    <path d="M 117.854261 68.010133 
L 118.204105 44.03625 
L 118.553948 82.894351 
L 118.903791 135.352713 
L 119.253634 149.038488 
L 119.603478 131.291508 
L 119.953321 102.480738 
L 120.303164 114.663802 
L 120.653007 109.036371 
L 121.002851 138.147454 
L 121.352694 138.134175 
L 122.05238 115.734088 
L 122.402224 94.696244 
L 123.10191 139.285864 
L 123.451754 148.794628 
L 124.15144 156.877753 
L 124.501283 83.249261 
L 124.851127 75.174256 
L 125.20097 90.472575 
L 125.550813 116.457012 
L 125.900656 96.256189 
L 126.2505 94.259751 
L 126.600343 95.075452 
L 126.950186 105.7445 
L 127.300029 103.501109 
L 127.649873 98.938048 
L 127.999716 98.781496 
L 128.349559 115.658893 
L 128.699402 104.793282 
L 129.049246 107.674873 
L 129.399089 115.096063 
L 129.748932 112.159413 
L 130.448619 104.28473 
L 130.798462 96.706982 
L 131.148305 93.680446 
L 131.498149 98.193758 
L 131.847992 106.085946 
L 132.197835 105.036287 
L 132.547678 102.32328 
L 132.897522 103.945881 
L 133.247365 99.317411 
L 133.597208 110.564882 
L 133.947051 112.307272 
L 134.296895 111.665537 
L 134.646738 108.167608 
L 134.996581 111.994753 
L 135.346424 117.502876 
L 135.696268 119.774341 
L 136.046111 119.367335 
L 136.395954 113.051816 
L 136.745797 123.794414 
L 137.095641 123.121725 
L 137.445484 116.751972 
L 137.795327 119.486809 
L 138.14517 125.7908 
L 138.495014 120.97786 
L 138.844857 122.459209 
L 139.1947 119.601567 
L 139.544543 123.368147 
L 139.894387 125.26741 
L 140.24423 126.254064 
L 140.943917 123.83292 
L 141.29376 125.066543 
L 141.643603 124.405088 
L 141.993446 124.342819 
L 142.34329 129.684678 
L 143.042976 122.440892 
L 143.392819 125.291613 
L 143.742663 126.638633 
L 144.092506 127.489029 
L 144.442349 124.104561 
L 144.792192 127.006761 
L 145.142036 124.634792 
L 145.491879 130.008476 
L 145.841722 132.148012 
L 146.191565 129.332871 
L 146.541409 130.19862 
L 146.891252 128.532356 
L 147.241095 130.615072 
L 147.590938 129.75035 
L 147.940782 131.974644 
L 148.290625 133.042215 
L 148.640468 130.869486 
L 148.990312 131.244071 
L 149.689998 129.485777 
L 150.039841 131.902921 
L 150.389685 130.300497 
L 150.739528 132.787354 
L 151.089371 130.1042 
L 151.439214 132.296661 
L 151.789058 128.828173 
L 152.488744 133.624985 
L 152.838587 133.67938 
L 153.188431 132.890623 
L 153.538274 131.166154 
L 153.888117 130.029175 
L 154.23796 136.267329 
L 154.587804 133.171776 
L 154.937647 131.366796 
L 155.28749 131.143967 
L 155.637333 134.254403 
L 155.987177 133.153225 
L 156.33702 135.194366 
L 156.686863 132.960254 
L 157.38655 131.082405 
L 157.736393 132.584999 
L 158.086236 133.28086 
L 158.43608 131.34064 
L 158.785923 128.753412 
L 159.135766 129.527871 
L 159.485609 133.657564 
L 159.835453 133.308306 
L 160.185296 134.759946 
L 160.884982 132.202234 
L 161.234826 132.039851 
L 161.934512 128.292917 
L 162.284355 131.624082 
L 162.634199 132.367101 
L 162.984042 133.574511 
L 163.333885 133.467695 
L 163.683728 132.013518 
L 164.033572 133.775036 
L 164.733258 135.816838 
L 165.083101 134.15553 
L 165.432945 133.039205 
L 165.782788 132.365518 
L 166.132631 130.732202 
L 166.482475 130.422276 
L 167.182161 131.352335 
L 167.532004 130.397482 
L 167.881848 132.385544 
L 168.231691 133.44874 
L 168.581534 130.621022 
L 168.931377 129.915593 
L 169.281221 130.780378 
L 169.631064 130.366748 
L 169.980907 133.018114 
L 170.33075 129.699722 
L 170.680594 128.315437 
L 171.030437 131.243071 
L 171.38028 129.040349 
L 171.730123 129.159144 
L 172.079967 131.657577 
L 172.42981 130.8775 
L 172.779653 132.068264 
L 173.47934 129.381879 
L 173.829183 131.489051 
L 174.179026 132.135005 
L 174.52887 129.520044 
L 174.878713 128.526529 
L 175.228556 128.62714 
L 175.578399 129.507322 
L 175.928243 130.753813 
L 176.278086 131.148931 
L 176.627929 130.542598 
L 176.977772 130.694105 
L 177.327616 129.90088 
L 177.677459 130.887488 
L 178.027302 130.639837 
L 178.377145 129.355283 
L 178.726989 130.364738 
L 179.076832 132.129378 
L 179.426675 131.451921 
L 179.776518 133.778023 
L 180.126362 132.793608 
L 180.476205 132.710615 
L 180.826048 130.760632 
L 181.175891 131.242131 
L 181.525735 132.939387 
L 181.875578 133.68315 
L 182.225421 132.669464 
L 182.925108 132.445423 
L 183.274951 132.99424 
L 183.624794 133.06021 
L 183.974638 133.884776 
L 184.324481 132.891875 
L 184.674324 133.233263 
L 185.024167 133.746225 
L 185.374011 133.738837 
L 185.723854 134.525428 
L 186.073697 135.704528 
L 186.42354 132.744017 
L 186.773384 135.219024 
L 187.123227 135.591216 
L 187.47307 136.432579 
L 187.822913 132.965228 
L 188.172757 134.074961 
L 188.5226 133.540772 
L 188.872443 133.421911 
L 189.222286 135.236827 
L 190.271816 131.970848 
L 190.621659 134.240862 
L 190.971503 134.068398 
L 191.321346 134.936951 
L 191.671189 132.84045 
L 192.021033 131.756121 
L 192.370876 131.859176 
L 192.720719 132.698611 
L 193.070562 132.988609 
L 193.420406 131.533742 
L 193.770249 131.9431 
L 194.120092 132.900108 
L 194.469935 132.248788 
L 194.819779 134.623461 
L 195.169622 132.871426 
L 195.519465 133.638704 
L 195.869308 133.327539 
L 196.219152 131.803134 
L 196.568995 132.483812 
L 196.918838 131.304209 
L 197.268681 132.833603 
L 197.618525 131.565009 
L 197.968368 132.345541 
L 198.318211 132.763423 
L 198.668054 132.03401 
L 199.017898 132.010279 
L 199.367741 131.256279 
L 199.717584 133.787578 
L 200.067428 130.493204 
L 200.417271 130.135762 
L 200.767114 131.669798 
L 201.116957 129.935866 
L 201.466801 131.293905 
L 201.816644 131.094286 
L 202.51633 132.187449 
L 203.216017 131.860606 
L 203.56586 132.639894 
L 204.265547 129.529896 
L 204.61539 132.111943 
L 205.315076 130.58016 
L 205.66492 130.407129 
L 206.014763 130.956694 
L 206.364606 129.941585 
L 206.714449 129.765758 
L 207.064293 130.065677 
L 207.414136 130.203255 
L 207.763979 129.980455 
L 208.113822 130.627125 
L 208.463666 129.133283 
L 208.813509 129.835422 
L 209.513196 129.364363 
L 209.863039 130.856948 
L 210.212882 129.246312 
L 210.562725 129.706363 
L 210.912569 130.420866 
L 211.262412 129.545153 
L 211.612255 130.94038 
L 211.962098 129.371043 
L 212.311942 130.738 
L 212.661785 128.822413 
L 213.011628 130.609681 
L 213.361471 130.102713 
L 214.061158 128.586713 
L 214.411001 129.331779 
L 215.110688 130.013815 
L 215.460531 130.004582 
L 215.810374 129.563682 
L 216.160217 128.277651 
L 216.510061 129.132506 
L 216.859904 129.444018 
L 217.559591 131.421887 
L 218.259277 129.226555 
L 218.60912 128.386728 
L 218.958964 130.002226 
L 219.308807 128.766129 
L 219.65865 129.727915 
L 220.008493 130.295393 
L 220.70818 130.22921 
L 221.058023 129.990359 
L 221.407866 130.146286 
L 221.75771 130.742029 
L 222.107553 130.232945 
L 222.457396 130.335787 
L 223.157083 129.832388 
L 223.506926 129.938118 
L 223.856769 130.276968 
L 224.206612 129.159825 
L 224.556456 128.427935 
L 224.906299 128.815487 
L 225.256142 128.502613 
L 225.605986 130.018413 
L 225.955829 128.712991 
L 226.305672 129.533333 
L 226.655515 129.687427 
L 227.005359 128.563167 
L 227.355202 128.720108 
L 227.705045 129.560897 
L 228.054888 129.261363 
L 228.404732 129.333281 
L 228.754575 130.124582 
L 229.104418 128.725848 
L 229.804105 128.192742 
L 230.503791 128.481323 
L 230.853634 129.22743 
L 231.203478 129.363656 
L 231.553321 129.292759 
L 231.903164 128.9788 
L 232.602851 128.90032 
L 232.952694 130.108556 
L 233.302537 129.085007 
L 234.002224 128.25835 
L 234.352067 128.582519 
L 234.70191 128.639878 
L 235.051754 127.829148 
L 235.75144 127.621747 
L 236.101283 129.027438 
L 236.451127 128.3083 
L 236.80097 129.060965 
L 237.150813 128.862738 
L 237.500656 128.027623 
L 237.8505 127.590238 
L 238.200343 127.417529 
L 238.550186 128.046032 
L 238.900029 127.509991 
L 239.249873 127.816074 
L 239.599716 127.724732 
L 239.949559 128.205471 
L 240.299402 127.909681 
L 240.649246 128.495895 
L 240.999089 127.306562 
L 241.348932 127.660654 
L 241.698775 127.074124 
L 242.048619 127.464054 
L 242.398462 127.567987 
L 242.748305 127.49324 
L 243.447992 128.934154 
L 244.147678 127.494717 
L 244.497522 127.974081 
L 244.847365 127.963539 
L 245.197208 127.433418 
L 245.547051 128.445598 
L 245.896895 128.005912 
L 246.596581 127.934451 
L 246.946424 127.502908 
L 247.296268 128.276474 
L 247.646111 127.592299 
L 247.995954 127.820724 
L 248.345797 126.41959 
L 248.695641 127.184355 
L 249.045484 128.350894 
L 249.74517 126.478268 
L 250.095014 127.287549 
L 250.7947 127.097101 
L 251.144543 127.943905 
L 251.494387 127.522738 
L 251.84423 127.369173 
L 252.194073 128.15539 
L 252.543917 127.606288 
L 252.89376 128.470277 
L 253.243603 127.53738 
L 253.593446 128.0492 
L 253.94329 127.705244 
L 254.642976 128.758381 
L 254.992819 128.176185 
L 255.342663 128.949204 
L 255.692506 127.88594 
L 256.042349 128.758213 
L 256.742036 127.763718 
L 257.091879 128.040503 
L 257.441722 127.818379 
L 257.791565 128.539413 
L 258.141409 127.909191 
L 258.491252 127.620119 
L 258.841095 128.215233 
L 259.190938 127.871823 
L 259.540782 128.730731 
L 259.890625 127.830667 
L 260.240468 127.973207 
L 260.590312 128.302131 
L 260.940155 128.874641 
L 261.289998 128.730779 
L 261.639841 127.936563 
L 261.989685 128.147492 
L 263.039214 126.865166 
L 263.389058 126.205635 
L 263.738901 127.195389 
L 264.088744 127.405704 
L 264.438587 125.752486 
L 264.788431 127.181242 
L 265.138274 127.621653 
L 265.488117 128.285453 
L 266.187804 127.952824 
L 266.537647 127.320872 
L 266.88749 128.138393 
L 267.237333 127.595705 
L 267.587177 127.777125 
L 267.93702 127.076334 
L 268.286863 128.23788 
L 268.636707 127.355098 
L 268.98655 127.310545 
L 269.336393 127.383422 
L 269.686236 128.051083 
L 270.03608 127.910596 
L 270.385923 127.191374 
L 270.735766 127.862572 
L 271.085609 127.925051 
L 271.435453 128.140637 
L 271.785296 126.966591 
L 272.135139 127.601789 
L 272.484982 127.303259 
L 272.834826 128.020273 
L 273.184669 127.395705 
L 273.884355 127.549729 
L 274.234199 127.240643 
L 274.584042 127.562493 
L 274.933885 127.469046 
L 275.283728 127.017582 
L 275.633572 126.329977 
L 275.983415 123.594003 
L 276.333258 125.641018 
L 276.683101 126.194417 
L 277.032945 127.565289 
L 277.382788 125.926257 
L 277.732631 126.83942 
L 278.432318 127.662776 
L 278.782161 127.0441 
L 279.132004 127.646191 
L 279.481848 126.217146 
L 279.831691 127.246878 
L 280.181534 126.968989 
L 280.531377 127.389283 
L 280.881221 127.366595 
L 281.231064 126.909622 
L 281.580907 126.920462 
L 281.93075 127.869458 
L 282.280594 127.673739 
L 282.630437 128.140586 
L 282.98028 128.296592 
L 283.330123 127.668539 
L 283.679967 127.522494 
L 284.02981 127.864583 
L 284.379653 128.588431 
L 284.729496 128.132745 
L 285.07934 128.535777 
L 285.779026 126.453202 
L 286.478713 127.878267 
L 286.828556 127.473338 
L 287.528243 127.994517 
L 287.878086 127.785176 
L 288.227929 127.876873 
L 288.577772 128.483396 
L 288.927616 128.793588 
L 289.277459 128.220969 
L 289.627302 127.947937 
L 289.977145 128.312831 
L 290.326989 128.854793 
L 290.676832 128.997201 
L 291.026675 129.420327 
L 291.376518 127.991662 
L 291.726362 128.745344 
L 292.076205 128.776292 
L 292.775891 128.018685 
L 293.475578 127.365727 
L 293.825421 128.478041 
L 294.175264 127.867424 
L 294.525108 128.945239 
L 294.874951 127.881041 
L 295.224794 127.1771 
L 295.574638 128.168141 
L 295.924481 126.793318 
L 296.624167 128.793073 
L 296.974011 128.765525 
L 297.323854 127.131237 
L 297.673697 128.101187 
L 298.373384 127.293432 
L 298.723227 127.158085 
L 299.07307 128.714304 
L 299.422913 128.370978 
L 299.772757 128.486902 
L 300.1226 128.947382 
L 300.472443 128.838007 
L 300.822286 128.260208 
L 301.17213 127.950895 
L 301.521973 126.283135 
L 301.871816 128.140022 
L 302.571503 126.207577 
L 302.921346 127.539877 
L 303.271189 127.357292 
L 303.970876 126.763006 
L 304.320719 127.259967 
L 304.670562 126.996985 
L 305.020406 126.529472 
L 305.720092 127.412347 
L 306.069935 127.049697 
L 306.419779 126.292813 
L 306.769622 126.895689 
L 307.119465 126.452249 
L 307.469308 126.552457 
L 307.819152 125.732269 
L 308.168995 127.180789 
L 308.518838 126.470533 
L 308.868681 128.10307 
L 309.218525 127.623482 
L 309.568368 126.756451 
L 309.918211 126.674386 
L 310.268054 126.430197 
L 310.617898 126.382953 
L 310.967741 126.125891 
L 311.317584 126.832502 
L 311.667428 126.755911 
L 312.017271 127.53797 
L 312.367114 126.623237 
L 312.716957 127.500371 
L 313.066801 127.788318 
L 313.416644 127.217003 
L 313.766487 125.721419 
L 314.11633 127.374596 
L 314.466174 126.931644 
L 314.816017 126.74159 
L 315.16586 127.096731 
L 315.515703 126.733166 
L 315.865547 126.862768 
L 316.21539 127.330305 
L 316.565233 126.593448 
L 316.915076 127.082128 
L 317.26492 126.241215 
L 317.614763 126.633846 
L 317.964606 126.147503 
L 318.314449 126.651037 
L 318.664293 127.735513 
L 319.363979 127.235319 
L 319.713822 126.961516 
L 320.063666 127.437199 
L 320.413509 127.198821 
L 320.763352 128.460895 
L 321.463039 127.468841 
L 322.162725 126.841378 
L 322.512569 128.237104 
L 322.862412 128.194875 
L 323.212255 127.590703 
L 323.562098 128.171441 
L 323.911942 128.288059 
L 324.261785 127.73191 
L 324.611628 125.465954 
L 324.961471 127.135651 
L 325.311315 127.340297 
L 325.661158 127.065755 
L 326.710688 126.838191 
L 327.060531 127.52029 
L 327.410374 127.098561 
L 327.760217 126.969432 
L 328.110061 126.098803 
L 328.459904 126.906418 
L 328.809747 127.215905 
L 329.159591 127.302956 
L 329.509434 127.894747 
L 329.859277 127.955347 
L 330.20912 127.820972 
L 330.908807 127.888876 
L 331.25865 128.066486 
L 331.608493 128.803499 
L 331.958337 128.845657 
L 332.30818 127.944364 
L 332.658023 127.772268 
L 333.007866 127.404629 
L 333.35771 128.84971 
L 333.707553 128.150776 
L 334.407239 128.344491 
L 334.757083 128.322087 
L 335.106926 128.418924 
L 335.456769 129.027839 
L 335.806612 127.744921 
L 336.156456 128.373087 
L 336.506299 128.703798 
L 336.856142 128.760818 
L 337.205986 128.525646 
L 337.555829 127.503979 
L 337.905672 128.062294 
L 338.605359 128.643735 
L 339.654888 128.131017 
L 340.004732 128.268253 
L 340.354575 128.735457 
L 340.704418 128.723364 
L 341.054261 128.321858 
L 341.404105 128.121742 
L 341.753948 128.456856 
L 342.453634 127.55073 
L 342.803478 128.638946 
L 343.153321 127.979961 
L 343.503164 127.939318 
L 343.853007 128.899886 
L 344.902537 128.486266 
L 345.25238 128.134005 
L 345.952067 128.665262 
L 346.30191 128.103499 
L 346.651754 128.333266 
L 347.001597 128.272072 
L 347.35144 128.749882 
L 347.701283 128.50958 
L 348.750813 128.499473 
L 349.4505 127.554026 
L 350.500029 128.884605 
L 350.849873 127.878574 
L 351.199716 128.530693 
L 351.549559 128.326842 
L 351.899402 127.605462 
L 352.249246 128.513567 
L 352.599089 128.938562 
L 353.298775 128.72805 
L 353.648619 128.386151 
L 353.998462 128.783101 
L 354.348305 128.184901 
L 355.047992 128.133105 
L 355.747678 129.568759 
L 356.097522 129.101744 
L 356.447365 128.148939 
L 356.797208 128.871646 
L 357.147051 128.615969 
L 357.496895 129.793413 
L 357.846738 129.034977 
L 358.196581 128.759412 
L 358.546424 128.825487 
L 358.896268 128.702248 
L 359.595954 128.989234 
L 359.945797 129.501328 
L 360.295641 128.900245 
L 360.645484 128.86146 
L 360.995327 129.53309 
L 361.34517 128.054782 
L 361.695014 129.236677 
L 362.044857 129.465643 
L 362.3947 129.964422 
L 362.744543 128.734684 
L 363.094387 128.215194 
L 363.44423 129.03556 
L 363.794073 128.773163 
L 364.143917 129.047373 
L 364.843603 129.044006 
L 365.193446 129.319321 
L 365.54329 128.563791 
L 365.893133 129.011729 
L 366.242976 128.318426 
L 366.592819 128.286183 
L 366.942663 127.138914 
L 367.292506 128.622457 
L 367.642349 128.504327 
L 367.992192 128.592736 
L 368.342036 128.832187 
L 369.041722 129.037423 
L 369.741409 127.809104 
L 370.091252 128.392742 
L 370.441095 127.990917 
L 370.790938 128.813058 
L 371.140782 128.313435 
L 371.490625 128.162896 
L 371.840468 127.789042 
L 372.190312 128.223701 
L 372.540155 128.43314 
L 372.889998 128.489887 
L 373.239841 128.121951 
L 373.589685 127.979753 
L 373.939528 128.462189 
L 374.289371 128.703921 
L 374.639214 127.683583 
L 374.989058 127.67312 
L 375.338901 128.074475 
L 375.688744 127.454904 
L 376.038587 127.970714 
L 376.388431 129.080553 
L 376.738274 129.154413 
L 377.088117 128.514427 
L 377.43796 129.011695 
L 377.787804 128.909241 
L 378.137647 128.977208 
L 378.48749 128.132629 
L 378.837333 128.556288 
L 379.187177 127.716828 
L 379.53702 128.307662 
L 379.886863 128.415071 
L 380.236707 128.86873 
L 380.58655 129.115289 
L 380.936393 128.582988 
L 381.286236 128.590721 
L 381.985923 128.286928 
L 382.685609 128.424822 
L 383.035453 128.333838 
L 383.385296 128.597987 
L 383.735139 127.948214 
L 384.084982 128.183036 
L 384.434826 128.928406 
L 384.784669 128.505044 
L 385.134512 128.977094 
L 385.484355 127.945485 
L 385.834199 128.972658 
L 386.184042 128.971656 
L 386.533885 128.845404 
L 386.883728 129.12386 
L 387.233572 128.708879 
L 387.583415 128.582957 
L 387.933258 127.836887 
L 388.283101 130.04573 
L 388.632945 128.798843 
L 388.982788 129.143693 
L 389.332631 128.329285 
L 389.682475 129.239804 
L 390.032318 128.930261 
L 390.382161 128.951432 
L 390.732004 129.382906 
L 391.081848 129.070555 
L 391.431691 128.082144 
L 391.781534 128.609262 
L 392.481221 128.725486 
L 392.831064 128.285281 
L 393.180907 128.905435 
L 393.53075 128.931916 
L 393.880594 128.470201 
L 394.230437 128.500942 
L 394.58028 128.307246 
L 395.279967 128.803581 
L 395.62981 128.133226 
L 396.329496 127.877252 
L 396.67934 128.187444 
L 397.029183 128.324657 
L 397.379026 128.133732 
L 397.72887 129.491465 
L 398.078713 128.420976 
L 398.428556 128.626047 
L 398.778399 127.814621 
L 399.478086 128.600698 
L 400.177772 127.53657 
L 400.527616 128.289323 
L 401.227302 127.848374 
L 401.577145 128.013614 
L 401.926989 128.374404 
L 402.276832 128.276493 
L 402.626675 127.726133 
L 404.026048 128.123373 
L 404.375891 128.593274 
L 404.725735 128.025183 
L 405.075578 127.879194 
L 405.425421 127.872547 
L 405.775264 127.585772 
L 406.824794 128.033239 
L 407.174638 127.882367 
L 407.524481 128.339916 
L 407.874324 128.303777 
L 408.224167 127.588442 
L 408.574011 127.78635 
L 409.273697 127.472765 
L 409.62354 128.308491 
L 409.973384 127.703087 
L 410.323227 128.154555 
L 410.67307 128.117919 
L 411.022913 127.952047 
L 411.372757 128.172754 
L 411.7226 128.193837 
L 412.072443 127.598257 
L 412.422286 127.688815 
L 412.77213 127.294305 
L 413.121973 127.750466 
L 413.471816 127.921249 
L 413.821659 127.733347 
L 414.171503 127.694063 
L 414.521346 127.786505 
L 414.871189 128.272949 
L 415.221033 127.79188 
L 415.570876 128.087616 
L 415.920719 127.834081 
L 416.620406 128.306809 
L 417.320092 128.167171 
L 417.669935 127.649578 
L 418.019779 128.319063 
L 418.369622 127.208487 
L 418.719465 127.670107 
L 419.069308 128.719482 
L 419.419152 127.621998 
L 419.768995 128.342651 
L 420.118838 127.951814 
L 420.468681 128.124872 
L 420.818525 128.104059 
L 421.168368 128.446385 
L 421.518211 127.959925 
L 422.217898 128.137055 
L 422.567741 128.542693 
L 423.267428 127.845509 
L 423.617271 128.096267 
L 423.967114 128.485013 
L 424.316957 128.309247 
L 424.666801 127.077541 
L 425.366487 127.773553 
L 426.066174 127.545165 
L 426.416017 128.473183 
L 426.76586 128.18567 
L 427.115703 127.167599 
L 428.165233 127.629923 
L 428.515076 127.983582 
L 428.86492 127.646028 
L 429.214763 128.271904 
L 429.564606 127.599941 
L 429.914449 127.737622 
L 430.264293 127.453109 
L 430.614136 127.813961 
L 430.963979 127.507727 
L 431.313822 128.200919 
L 431.663666 128.335249 
L 432.363352 127.612635 
L 433.063039 127.424422 
L 433.412882 127.572679 
L 433.762725 125.891945 
L 434.112569 127.173782 
L 434.462412 127.84229 
L 434.812255 127.952828 
L 435.511942 127.588948 
L 435.861785 128.086194 
L 436.211628 127.791232 
L 436.561471 127.288656 
L 436.911315 127.075581 
L 437.611001 127.702949 
L 437.960844 127.18889 
L 438.310688 127.915919 
L 438.660531 128.084911 
L 439.010374 127.275617 
L 439.360217 126.949414 
L 440.059904 128.157093 
L 440.759591 127.462313 
L 441.109434 127.990181 
L 441.459277 126.915693 
L 441.80912 127.125149 
L 442.508807 126.893283 
L 442.85865 127.640379 
L 443.208493 127.747758 
L 443.558337 127.703928 
L 443.90818 127.395001 
L 444.258023 126.906893 
L 444.607866 127.338218 
L 444.95771 127.592494 
L 445.307553 127.474913 
L 445.657396 128.158564 
L 446.357083 127.531598 
L 446.706926 127.621877 
L 447.056769 127.910986 
L 447.406612 128.007929 
L 448.106299 127.73232 
L 448.456142 127.46652 
L 448.805986 128.089422 
L 449.155829 127.795202 
L 449.505672 128.47234 
L 449.855515 127.679575 
L 450.205359 127.596604 
L 450.555202 127.763637 
L 450.905045 127.090065 
L 451.604732 127.482469 
L 451.954575 127.251639 
L 452.304418 128.213374 
L 452.654261 127.612115 
L 453.004105 127.494466 
L 453.353948 128.19617 
L 454.053634 127.999238 
L 454.753321 127.48116 
L 455.103164 127.838092 
L 455.453007 127.969765 
L 455.802851 127.679034 
L 456.502537 128.012391 
L 457.202224 127.930562 
L 457.552067 127.672991 
L 457.90191 127.696994 
L 458.251754 128.267994 
L 458.95144 128.452634 
L 459.301283 128.563551 
L 460.350813 128.102766 
L 460.700656 128.409777 
L 461.0505 127.840502 
L 461.400343 128.087208 
L 462.449873 128.496903 
L 462.799716 127.695491 
L 463.149559 127.89008 
L 463.499402 127.845634 
L 463.849246 128.225364 
L 464.199089 128.321429 
L 464.548932 127.718541 
L 464.898775 128.108086 
L 465.598462 127.772109 
L 465.948305 127.695736 
L 466.997835 128.475804 
L 467.347678 127.693832 
L 467.697522 128.277375 
L 468.047365 128.054634 
L 468.397208 127.699902 
L 469.096895 127.697513 
L 469.796581 127.249776 
L 470.146424 127.825069 
L 470.846111 127.047545 
L 471.195954 128.100615 
L 471.545797 126.908696 
L 472.245484 127.965902 
L 472.595327 128.072124 
L 472.94517 127.928944 
L 473.295014 128.081196 
L 473.9947 127.330396 
L 474.344543 127.251411 
L 474.694387 127.555699 
L 475.04423 127.127047 
L 475.394073 127.769072 
L 475.743917 127.279089 
L 476.09376 127.672423 
L 476.443603 127.367881 
L 476.793446 127.344589 
L 477.14329 127.156747 
L 477.493133 127.500759 
L 477.842976 127.564655 
L 478.192819 127.078006 
L 478.892506 127.537489 
L 479.242349 127.75117 
L 479.592192 128.113672 
L 479.942036 127.692191 
L 480.291879 127.492538 
L 480.641722 127.736669 
L 480.991565 127.395651 
L 481.341409 127.238436 
L 481.691252 127.849291 
L 482.041095 127.31017 
L 482.390938 127.920972 
L 483.090625 128.675367 
L 484.140155 127.236561 
L 484.489998 126.894699 
L 484.839841 127.556987 
L 485.189685 127.759698 
L 485.539528 127.041677 
L 485.889371 127.48991 
L 486.239214 126.958709 
L 486.589058 125.827001 
L 486.938901 127.098844 
L 487.288744 127.557037 
L 487.638587 127.071524 
L 487.988431 127.22973 
L 488.688117 126.91431 
L 489.03796 127.55524 
L 489.387804 129.069233 
L 489.737647 127.717443 
L 490.437333 128.541842 
L 490.787177 128.548889 
L 491.13702 128.396757 
L 491.486863 127.394366 
L 491.836707 127.716887 
L 492.18655 127.25978 
L 492.536393 127.431042 
L 492.886236 127.321301 
L 493.23608 128.026349 
L 493.585923 127.820932 
L 494.285609 128.17302 
L 494.635453 127.943062 
L 494.985296 128.49432 
L 495.684982 127.702263 
L 496.034826 128.291246 
L 496.384669 128.103132 
L 496.734512 128.178476 
L 497.084355 127.624702 
L 497.434199 128.316546 
L 497.784042 128.342179 
L 498.133885 128.017746 
L 498.483728 128.074345 
L 498.833572 127.74964 
L 499.883101 127.652277 
L 500.232945 127.220382 
L 500.582788 128.288529 
L 501.282475 127.402581 
L 501.982161 123.871576 
L 502.332004 126.680226 
L 502.681848 128.130099 
L 503.031691 127.744199 
L 503.381534 127.040784 
L 503.731377 126.749992 
L 504.431064 127.715379 
L 504.780907 127.828865 
L 505.480594 126.920697 
L 505.830437 127.91969 
L 506.18028 128.193002 
L 506.530123 127.299768 
L 506.879967 127.504828 
L 507.22981 127.435135 
L 507.579653 127.189371 
L 507.929496 127.73022 
L 508.27934 128.007199 
L 508.629183 127.39641 
L 508.979026 127.337453 
L 509.678713 127.465881 
L 510.028556 127.890897 
L 510.378399 127.582663 
L 510.728243 127.821589 
L 512.127616 127.414752 
L 512.477459 127.682765 
L 512.827302 127.339779 
L 513.177145 127.37472 
L 513.526989 127.24827 
L 513.876832 127.759085 
L 514.226675 127.389256 
L 514.576518 127.923922 
L 514.926362 128.039553 
L 515.276205 127.905366 
L 515.626048 128.788361 
L 515.975891 128.148829 
L 516.325735 128.81063 
L 517.025421 128.183465 
L 517.375264 128.106482 
L 518.074951 128.411687 
L 518.424794 128.340169 
L 518.774638 128.701319 
L 519.474324 128.167492 
L 519.824167 128.671259 
L 520.523854 128.026179 
L 521.22354 127.703185 
L 521.573384 127.975413 
L 521.923227 128.484376 
L 522.27307 128.768287 
L 522.622913 128.676664 
L 522.972757 128.928172 
L 523.3226 127.780946 
L 524.022286 128.691961 
L 524.721973 128.486904 
L 525.071816 129.147189 
L 525.421659 127.697568 
L 525.771503 127.36636 
L 526.121346 127.490537 
L 526.821033 128.456929 
L 527.170876 128.351157 
L 527.520719 127.821503 
L 527.870562 128.440631 
L 528.220406 128.340979 
L 528.570249 127.839542 
L 528.920092 128.183897 
L 529.269935 129.060217 
L 529.619779 128.290644 
L 529.969622 128.277735 
L 530.319465 127.816516 
L 530.669308 128.587264 
L 531.019152 127.712004 
L 531.368995 128.004859 
L 531.718838 127.761841 
L 532.068681 128.279528 
L 532.418525 127.252879 
L 532.768368 127.503452 
L 533.118211 127.943295 
L 533.468054 128.192713 
L 533.817898 127.928758 
L 534.167741 127.880828 
L 534.517584 129.005345 
L 535.217271 128.314704 
L 535.567114 128.335302 
L 535.916957 129.039509 
L 536.266801 128.535691 
L 536.616644 127.711742 
L 536.966487 127.527929 
L 537.31633 128.695724 
L 537.666174 128.391718 
L 538.016017 128.285857 
L 538.36586 127.521842 
L 538.715703 128.146454 
L 539.41539 128.153569 
L 539.765233 127.915116 
L 540.46492 127.82412 
L 540.814763 128.248338 
L 541.164606 127.427978 
L 541.514449 127.806463 
L 542.214136 127.808958 
L 542.563979 128.529429 
L 542.913822 128.409342 
L 543.263666 128.441488 
L 543.613509 127.899427 
L 543.963352 127.574319 
L 544.313196 127.906744 
L 544.663039 127.227745 
L 545.012882 127.370365 
L 545.362725 127.664661 
L 545.712569 127.195707 
L 546.062412 127.622761 
L 546.412255 127.171447 
L 546.762098 127.618761 
L 547.111942 127.396622 
L 547.461785 127.324162 
L 548.161471 128.078178 
L 548.511315 127.275546 
L 549.211001 128.354406 
L 549.560844 127.521878 
L 549.910688 127.372369 
L 550.260531 127.828269 
L 550.610374 127.796785 
L 550.960217 127.91206 
L 552.009747 127.244399 
L 552.709434 127.895099 
L 553.059277 127.259501 
L 553.758964 127.457416 
L 554.108807 128.246715 
L 554.808493 128.080434 
L 555.158337 128.753653 
L 555.50818 127.414704 
L 555.858023 127.660818 
L 556.207866 127.596838 
L 556.55771 126.233061 
L 556.907553 128.164397 
L 557.257396 129.201337 
L 557.607239 127.821293 
L 557.957083 127.659072 
L 558.306926 127.259164 
L 558.656769 128.498016 
L 559.006612 128.274423 
L 559.706299 128.387314 
L 560.405986 128.0139 
L 560.755829 128.288109 
L 561.105672 128.100486 
L 561.455515 127.543495 
L 561.805359 128.456858 
L 562.155202 128.276029 
L 562.854888 127.376279 
L 563.204732 127.881526 
L 563.554575 127.566609 
L 563.904418 128.504799 
L 564.254261 127.864722 
L 564.604105 127.969611 
L 564.953948 128.192948 
L 565.653634 128.960918 
L 566.003478 127.85642 
L 566.353321 128.530704 
L 567.053007 128.083977 
L 567.402851 128.089811 
L 567.752694 128.486558 
L 568.102537 128.083245 
L 568.45238 128.52183 
L 568.802224 128.587141 
L 569.152067 127.399609 
L 569.50191 128.622225 
L 569.851754 127.814139 
L 570.55144 128.590027 
L 571.251127 127.824774 
L 571.60097 127.855236 
L 571.950813 128.598182 
L 572.300656 128.623991 
L 572.6505 127.687831 
L 573.000343 127.747095 
L 573.350186 127.618251 
L 573.700029 128.141055 
L 574.049873 128.053699 
L 574.399716 128.260007 
L 574.749559 128.237809 
L 575.099402 127.535737 
L 575.449246 127.211983 
L 575.799089 127.965842 
L 576.148932 128.21168 
L 576.498775 127.657311 
L 576.848619 127.617504 
L 577.198462 127.145944 
L 577.548305 127.927584 
L 577.898149 128.00687 
L 578.247992 127.647086 
L 578.597835 127.7914 
L 579.297522 127.757008 
L 579.647365 128.347961 
L 579.997208 127.746569 
L 580.347051 128.747922 
L 580.696895 127.807395 
L 581.046738 127.828644 
L 582.096268 127.345033 
L 583.145797 127.573485 
L 583.495641 127.272746 
L 584.195327 127.486279 
L 584.54517 127.621594 
L 584.895014 127.985695 
L 585.244857 127.000644 
L 585.944543 128.093939 
L 586.294387 127.937176 
L 586.64423 127.594697 
L 586.994073 127.723237 
L 587.343917 127.677483 
L 587.69376 126.356551 
L 588.043603 128.018713 
L 588.393446 127.988109 
L 588.74329 127.585085 
L 589.093133 127.359695 
L 589.442976 127.810998 
L 589.792819 127.604988 
L 590.142663 126.895483 
L 590.492506 127.286613 
L 590.842349 127.132644 
L 591.192192 127.738217 
L 591.542036 127.356705 
L 591.891879 127.557332 
L 592.241722 126.794138 
L 592.591565 126.422708 
L 593.291252 127.416682 
L 593.641095 127.021801 
L 593.990938 126.803318 
L 594.340782 127.887229 
L 594.690625 127.818982 
L 595.040468 127.464524 
L 595.390312 127.516661 
L 595.740155 127.357237 
L 596.089998 127.685198 
L 596.439841 127.127078 
L 597.139528 127.573866 
L 597.489371 126.939082 
L 597.839214 126.933985 
L 598.189058 126.523913 
L 598.538901 127.650705 
L 598.888744 127.933758 
L 599.238587 127.434541 
L 599.588431 127.979045 
L 599.938274 126.357291 
L 600.63796 127.283212 
L 601.337647 127.00033 
L 601.68749 126.706382 
L 602.387177 127.292072 
L 602.73702 127.798313 
L 603.086863 126.374753 
L 603.436707 127.293712 
L 603.78655 126.746382 
L 604.136393 126.585297 
L 604.83608 127.177386 
L 605.185923 126.826336 
L 605.535766 127.075823 
L 605.885609 126.237749 
L 606.585296 127.544276 
L 606.935139 127.545922 
L 607.284982 126.576973 
L 607.634826 127.802719 
L 607.984669 127.300055 
L 608.334512 127.386778 
L 608.684355 127.151534 
L 609.034199 127.751722 
L 609.384042 126.784998 
L 609.733885 127.154867 
L 610.083728 127.944264 
L 610.433572 128.160127 
L 610.783415 128.137548 
L 611.133258 127.316155 
L 611.483101 127.437618 
L 611.832945 127.738468 
L 612.182788 128.661689 
L 612.532631 127.508538 
L 612.882475 126.793511 
L 613.582161 127.571562 
L 613.932004 126.441999 
L 614.281848 127.068186 
L 614.631691 126.840333 
L 614.981534 127.409232 
L 615.331377 127.126617 
L 615.681221 127.87588 
L 616.031064 127.846103 
L 616.380907 127.242305 
L 616.73075 127.533455 
L 617.080594 128.223215 
L 617.430437 128.12054 
L 618.130123 127.273517 
L 618.479967 127.335004 
L 618.82981 127.606613 
L 619.529496 127.110542 
L 619.87934 127.933671 
L 620.229183 127.138406 
L 620.92887 127.271312 
L 621.278713 127.624501 
L 621.628556 127.024854 
L 621.978399 126.903841 
L 622.328243 127.667194 
L 622.678086 127.474926 
L 623.027929 126.997623 
L 623.727616 127.803393 
L 624.077459 127.016092 
L 624.427302 128.048824 
L 624.777145 126.916901 
L 625.126989 127.760835 
L 625.126989 127.760835 
" clip-path="url(#p264f3db361)" style="fill: none; stroke: #1f77b4; stroke-width: 1.5; stroke-linecap: square"/>
   </g>
   <g id="line2d_14">
    <path d="M 117.854261 272.296377 
L 118.204105 296.03625 
L 118.553948 264.026086 
L 118.903791 207.799987 
L 119.253634 243.066594 
L 119.603478 193.629605 
L 119.953321 187.417065 
L 120.303164 175.612571 
L 120.653007 188.708502 
L 121.002851 182.468813 
L 121.702537 163.200798 
L 122.05238 165.079255 
L 122.402224 164.641227 
L 122.752067 164.583714 
L 123.10191 170.878139 
L 123.451754 192.699071 
L 123.801597 175.336276 
L 124.15144 168.049861 
L 124.501283 151.28019 
L 124.851127 159.248282 
L 125.20097 146.28808 
L 125.550813 140.901759 
L 125.900656 145.551194 
L 126.2505 142.666678 
L 126.600343 143.648375 
L 126.950186 145.606527 
L 127.300029 140.852092 
L 127.649873 145.328446 
L 127.999716 143.822301 
L 128.349559 139.007021 
L 128.699402 137.082641 
L 129.049246 136.292485 
L 129.399089 134.505795 
L 129.748932 136.254305 
L 130.098775 137.319965 
L 130.448619 137.857859 
L 130.798462 137.248942 
L 131.148305 137.370009 
L 131.498149 140.140774 
L 131.847992 136.559143 
L 132.197835 136.20536 
L 132.547678 136.796645 
L 132.897522 135.641941 
L 133.247365 138.298132 
L 133.597208 136.548575 
L 133.947051 138.086089 
L 134.296895 137.093049 
L 134.646738 139.686466 
L 134.996581 134.660049 
L 135.346424 136.760201 
L 135.696268 136.928963 
L 136.046111 137.545384 
L 136.745797 135.145935 
L 137.445484 138.556555 
L 137.795327 138.551237 
L 138.14517 137.30024 
L 138.495014 134.618055 
L 138.844857 136.359067 
L 139.1947 135.329998 
L 139.894387 134.580303 
L 140.24423 133.586949 
L 140.594073 134.311701 
L 140.943917 134.512647 
L 141.29376 134.178027 
L 141.643603 133.276789 
L 141.993446 134.796104 
L 142.34329 135.5698 
L 142.693133 133.398496 
L 143.042976 134.94464 
L 143.742663 136.023794 
L 144.092506 134.271671 
L 144.442349 133.52041 
L 144.792192 134.134421 
L 145.142036 134.354601 
L 145.491879 134.101571 
L 145.841722 134.851017 
L 146.191565 135.281328 
L 146.891252 133.753552 
L 147.241095 134.350299 
L 147.590938 134.197715 
L 147.940782 135.957243 
L 148.290625 133.746004 
L 148.640468 134.598264 
L 148.990312 133.655918 
L 149.340155 134.480093 
L 149.689998 134.348458 
L 150.039841 134.696788 
L 150.389685 133.512672 
L 150.739528 135.221075 
L 151.089371 133.730723 
L 151.439214 134.529465 
L 151.789058 132.370661 
L 152.488744 134.572126 
L 152.838587 134.072371 
L 153.188431 134.627531 
L 153.538274 133.686821 
L 153.888117 135.793761 
L 154.23796 136.798164 
L 154.587804 135.970146 
L 154.937647 136.020147 
L 155.637333 133.937679 
L 155.987177 133.883375 
L 156.33702 135.783679 
L 156.686863 134.246771 
L 157.036707 134.67069 
L 157.38655 133.787839 
L 157.736393 133.98603 
L 158.086236 133.749291 
L 158.43608 134.937766 
L 158.785923 133.590693 
L 159.135766 133.948955 
L 159.835453 135.163464 
L 160.185296 135.250225 
L 160.535139 133.417657 
L 160.884982 134.83951 
L 161.234826 134.042226 
L 161.584669 133.857755 
L 161.934512 132.744474 
L 162.284355 133.127158 
L 162.634199 133.733979 
L 163.333885 132.540356 
L 163.683728 132.381644 
L 164.033572 133.468012 
L 164.383415 132.89523 
L 164.733258 133.132457 
L 165.083101 133.054752 
L 165.432945 134.444325 
L 165.782788 134.492291 
L 166.132631 132.703812 
L 166.482475 132.803628 
L 166.832318 132.034225 
L 167.182161 131.855089 
L 167.532004 132.523579 
L 167.881848 133.899917 
L 168.231691 133.3576 
L 168.581534 133.204065 
L 168.931377 132.664753 
L 169.281221 133.850222 
L 169.631064 132.380251 
L 169.980907 134.508646 
L 170.33075 132.891838 
L 170.680594 132.60006 
L 171.38028 133.371722 
L 172.079967 133.289836 
L 172.42981 133.233779 
L 172.779653 132.59753 
L 173.129496 133.140671 
L 173.47934 133.469409 
L 173.829183 135.298431 
L 174.179026 133.081593 
L 174.52887 133.76687 
L 174.878713 133.628306 
L 175.228556 134.142602 
L 175.928243 133.234211 
L 176.278086 133.387198 
L 176.627929 132.977919 
L 176.977772 133.963267 
L 177.327616 133.314476 
L 177.677459 132.411628 
L 178.027302 133.066124 
L 178.377145 134.496277 
L 178.726989 133.755932 
L 179.076832 135.162542 
L 179.426675 133.581566 
L 179.776518 133.305612 
L 180.126362 133.524542 
L 180.826048 133.266223 
L 181.175891 134.589685 
L 181.525735 133.405029 
L 182.225421 134.669077 
L 182.575264 133.501361 
L 182.925108 134.54872 
L 183.274951 134.330751 
L 183.624794 133.594184 
L 183.974638 133.685259 
L 184.324481 133.132268 
L 185.024167 134.556337 
L 185.374011 134.747522 
L 185.723854 133.734818 
L 186.073697 134.057103 
L 186.42354 133.400449 
L 187.123227 135.078663 
L 187.47307 134.763415 
L 187.822913 132.670398 
L 188.172757 133.845273 
L 188.5226 134.183134 
L 188.872443 135.394309 
L 189.222286 134.32218 
L 189.57213 135.40424 
L 189.921973 135.965906 
L 190.271816 134.883353 
L 190.621659 135.13337 
L 190.971503 133.912702 
L 191.321346 134.390122 
L 191.671189 133.280426 
L 192.021033 133.387114 
L 192.720719 133.884612 
L 193.070562 134.965188 
L 193.420406 135.665181 
L 193.770249 133.526647 
L 194.120092 134.958716 
L 194.469935 134.407457 
L 194.819779 133.612359 
L 195.169622 132.453903 
L 195.519465 132.901754 
L 195.869308 134.501656 
L 196.219152 132.691125 
L 196.568995 132.707572 
L 196.918838 133.549338 
L 197.268681 133.084856 
L 197.618525 134.094326 
L 197.968368 134.739972 
L 198.318211 133.289971 
L 198.668054 133.717798 
L 199.017898 134.941621 
L 199.367741 133.779234 
L 199.717584 134.403515 
L 200.067428 132.779398 
L 200.417271 134.351158 
L 200.767114 134.337696 
L 201.116957 134.155492 
L 201.466801 132.525546 
L 201.816644 133.086877 
L 202.166487 131.931183 
L 202.51633 134.582029 
L 202.866174 134.47649 
L 203.915703 133.335482 
L 204.61539 133.982783 
L 204.965233 133.474433 
L 205.315076 133.545177 
L 205.66492 134.065804 
L 206.014763 133.091783 
L 206.364606 133.394984 
L 206.714449 133.362916 
L 207.064293 133.734817 
L 208.113822 134.215488 
L 208.463666 133.965623 
L 208.813509 135.494185 
L 209.513196 133.550128 
L 209.863039 133.11194 
L 210.212882 132.238664 
L 210.562725 132.453043 
L 210.912569 130.810441 
L 211.612255 134.124518 
L 211.962098 135.103878 
L 212.311942 133.781092 
L 212.661785 133.99295 
L 213.011628 132.891941 
L 213.361471 133.912624 
L 214.061158 132.399447 
L 214.411001 131.713326 
L 214.760844 132.090483 
L 215.110688 132.856766 
L 215.460531 133.123812 
L 215.810374 133.135695 
L 216.160217 132.27877 
L 216.510061 132.610056 
L 216.859904 134.40004 
L 217.209747 133.040585 
L 217.559591 133.285989 
L 217.909434 133.033763 
L 218.259277 134.071489 
L 218.60912 133.40679 
L 219.308807 133.948797 
L 219.65865 133.393113 
L 220.008493 134.972785 
L 220.358337 133.784309 
L 220.70818 134.35198 
L 221.058023 133.539669 
L 221.407866 133.178662 
L 221.75771 134.394646 
L 222.107553 132.953353 
L 222.457396 132.700312 
L 223.157083 133.674356 
L 223.506926 132.279369 
L 223.856769 132.540283 
L 224.206612 132.63201 
L 224.556456 132.106652 
L 225.256142 131.875436 
L 225.605986 132.101985 
L 225.955829 131.632349 
L 226.305672 132.243352 
L 226.655515 131.312647 
L 227.005359 132.518016 
L 227.355202 132.074249 
L 227.705045 133.525432 
L 228.404732 131.365266 
L 228.754575 132.376833 
L 229.104418 132.470925 
L 229.804105 131.396327 
L 230.153948 131.54476 
L 230.503791 132.302675 
L 230.853634 131.590595 
L 231.203478 132.470348 
L 231.553321 132.412599 
L 231.903164 131.673215 
L 232.602851 133.198533 
L 232.952694 133.673751 
L 233.65238 131.4986 
L 234.002224 132.618971 
L 234.352067 132.490221 
L 234.70191 132.556169 
L 235.051754 131.788266 
L 235.401597 131.942189 
L 235.75144 131.903216 
L 236.101283 132.539686 
L 236.451127 130.569412 
L 236.80097 131.466622 
L 237.150813 132.033561 
L 237.500656 131.906376 
L 237.8505 130.992269 
L 238.550186 132.544933 
L 238.900029 132.199204 
L 239.249873 132.783126 
L 239.599716 132.067351 
L 239.949559 132.47541 
L 240.299402 132.238959 
L 240.649246 132.671792 
L 240.999089 132.285419 
L 241.348932 132.183509 
L 241.698775 131.733499 
L 242.398462 132.243679 
L 242.748305 132.787757 
L 243.797835 132.398486 
L 244.497522 132.428882 
L 244.847365 131.97184 
L 245.197208 132.431972 
L 245.547051 133.559509 
L 245.896895 133.063622 
L 246.246738 133.288699 
L 246.596581 132.205903 
L 246.946424 132.12337 
L 247.296268 131.742718 
L 247.646111 132.882066 
L 248.695641 132.404978 
L 249.395327 132.463904 
L 249.74517 131.924399 
L 250.095014 132.932016 
L 250.444857 132.058467 
L 250.7947 131.58803 
L 251.144543 132.137126 
L 251.494387 131.581192 
L 252.194073 132.978092 
L 252.543917 133.131272 
L 252.89376 134.108581 
L 253.243603 132.805618 
L 253.593446 132.444667 
L 253.94329 132.462697 
L 254.293133 132.82047 
L 254.642976 132.728157 
L 255.342663 132.097278 
L 255.692506 132.340179 
L 256.042349 132.742722 
L 256.392192 133.609747 
L 256.742036 132.67693 
L 257.091879 132.79041 
L 257.441722 132.485461 
L 257.791565 132.365072 
L 258.141409 133.161963 
L 258.491252 133.657013 
L 258.841095 132.932014 
L 259.190938 133.725188 
L 259.890625 133.602527 
L 260.590312 132.317633 
L 261.289998 134.369376 
L 261.639841 133.267726 
L 261.989685 134.488446 
L 262.339528 133.333287 
L 262.689371 133.597625 
L 263.039214 135.119699 
L 263.389058 133.710805 
L 263.738901 134.149777 
L 264.088744 133.742468 
L 264.438587 131.405445 
L 265.138274 134.263899 
L 265.488117 132.946087 
L 265.83796 133.713455 
L 266.187804 133.403473 
L 266.537647 132.451649 
L 266.88749 132.25086 
L 267.237333 132.746294 
L 267.93702 134.145032 
L 268.286863 133.773815 
L 268.636707 132.745112 
L 268.98655 133.204419 
L 269.336393 132.526789 
L 270.03608 132.501007 
L 270.385923 132.877976 
L 270.735766 132.827072 
L 271.085609 133.125438 
L 271.435453 133.077798 
L 272.135139 132.281847 
L 272.484982 132.139013 
L 272.834826 133.059999 
L 273.184669 132.847204 
L 273.534512 133.215277 
L 273.884355 133.038088 
L 274.234199 133.341311 
L 274.584042 133.198229 
L 274.933885 132.869768 
L 275.633572 130.601714 
L 275.983415 130.221287 
L 276.333258 132.44365 
L 276.683101 132.860736 
L 277.032945 132.116999 
L 277.382788 132.416893 
L 277.732631 132.019425 
L 278.082475 132.093121 
L 278.432318 131.574188 
L 278.782161 131.30707 
L 279.132004 131.666799 
L 279.481848 131.029464 
L 279.831691 133.131409 
L 280.531377 131.66752 
L 280.881221 130.991933 
L 281.231064 131.632793 
L 281.93075 132.233251 
L 282.280594 131.305001 
L 282.630437 130.814976 
L 282.98028 131.642424 
L 283.330123 132.145508 
L 283.679967 131.893631 
L 284.02981 131.26196 
L 284.379653 131.298169 
L 284.729496 132.251309 
L 285.07934 131.744891 
L 285.429183 131.722877 
L 285.779026 131.213984 
L 286.12887 133.009789 
L 286.478713 132.112158 
L 287.178399 132.428836 
L 287.528243 132.054355 
L 288.227929 133.03029 
L 288.577772 132.790353 
L 288.927616 133.726846 
L 289.277459 131.680295 
L 289.627302 132.280318 
L 289.977145 133.309699 
L 290.326989 132.588921 
L 290.676832 132.646088 
L 291.026675 132.094469 
L 291.376518 132.633491 
L 291.726362 132.299455 
L 292.076205 132.719236 
L 292.426048 132.658564 
L 292.775891 130.7238 
L 293.125735 132.541882 
L 293.475578 131.890837 
L 293.825421 132.252463 
L 294.175264 132.059202 
L 294.874951 131.33064 
L 295.224794 131.620803 
L 295.574638 132.843674 
L 295.924481 132.807016 
L 296.274324 132.123512 
L 296.624167 132.344499 
L 296.974011 132.697557 
L 297.323854 132.59924 
L 297.673697 131.928732 
L 298.02354 132.041675 
L 298.373384 132.651605 
L 298.723227 132.183978 
L 299.422913 133.385368 
L 300.1226 133.234771 
L 300.822286 133.314622 
L 301.17213 133.123202 
L 301.521973 130.267198 
L 301.871816 131.961519 
L 302.221659 132.457787 
L 302.571503 131.922502 
L 302.921346 132.137043 
L 303.271189 131.904927 
L 303.621033 132.655 
L 303.970876 132.616746 
L 304.320719 131.219268 
L 304.670562 130.828335 
L 305.020406 131.633501 
L 305.370249 131.692301 
L 305.720092 133.00353 
L 306.069935 131.70666 
L 306.419779 132.741796 
L 306.769622 131.429345 
L 307.469308 131.603527 
L 307.819152 132.149271 
L 308.168995 131.578289 
L 308.518838 131.710636 
L 308.868681 133.077386 
L 309.218525 133.171804 
L 309.568368 131.927192 
L 309.918211 131.326142 
L 310.268054 131.693857 
L 310.617898 131.160785 
L 310.967741 132.014318 
L 311.667428 131.679714 
L 312.017271 131.938007 
L 312.367114 131.955963 
L 312.716957 132.66614 
L 313.066801 132.074235 
L 313.766487 131.45893 
L 314.11633 131.684332 
L 314.466174 132.235263 
L 314.816017 131.630971 
L 315.16586 132.221324 
L 315.515703 132.119814 
L 315.865547 132.407691 
L 316.21539 132.042115 
L 316.565233 131.368889 
L 316.915076 132.476174 
L 317.26492 132.517321 
L 317.614763 131.085981 
L 317.964606 131.956984 
L 318.314449 131.732544 
L 318.664293 132.372228 
L 319.014136 131.597795 
L 319.363979 131.822922 
L 319.713822 130.872069 
L 320.063666 132.252918 
L 320.413509 131.896233 
L 320.763352 132.798829 
L 321.463039 131.423575 
L 321.812882 132.113453 
L 322.162725 131.16003 
L 322.512569 132.417548 
L 322.862412 132.480037 
L 323.212255 131.610612 
L 323.562098 131.893874 
L 324.261785 130.508775 
L 324.611628 129.977019 
L 324.961471 131.37025 
L 325.311315 130.291315 
L 325.661158 131.423547 
L 326.011001 130.796264 
L 326.360844 131.738487 
L 326.710688 131.537825 
L 327.060531 130.668533 
L 327.410374 131.041875 
L 327.760217 130.949823 
L 328.110061 131.078029 
L 328.459904 131.601004 
L 328.809747 131.066591 
L 329.159591 130.974 
L 329.509434 130.53843 
L 329.859277 131.155066 
L 330.20912 131.48501 
L 330.558964 131.632228 
L 331.25865 130.628291 
L 331.608493 132.335118 
L 331.958337 131.484981 
L 332.30818 131.950548 
L 332.658023 131.455994 
L 333.007866 131.328138 
L 333.707553 130.68959 
L 334.057396 131.92097 
L 334.407239 131.415325 
L 334.757083 131.543803 
L 335.106926 131.519969 
L 335.456769 131.803965 
L 335.806612 131.677254 
L 336.156456 131.359358 
L 336.506299 131.90808 
L 336.856142 131.520382 
L 337.205986 131.787374 
L 337.555829 131.411736 
L 337.905672 131.404292 
L 338.255515 132.255072 
L 338.605359 131.798463 
L 338.955202 130.909378 
L 339.305045 131.273687 
L 339.654888 131.908029 
L 340.004732 131.302501 
L 340.354575 131.099072 
L 340.704418 131.333146 
L 341.054261 131.356257 
L 341.404105 130.961632 
L 341.753948 131.366747 
L 342.103791 130.951825 
L 342.803478 131.212655 
L 343.153321 131.168558 
L 343.503164 130.967352 
L 343.853007 131.518516 
L 344.552694 131.433964 
L 344.902537 131.759866 
L 345.602224 131.484234 
L 345.952067 131.763791 
L 346.30191 131.549835 
L 346.651754 131.751839 
L 347.001597 131.656265 
L 347.35144 132.157738 
L 347.701283 131.513777 
L 348.051127 131.526221 
L 348.40097 131.854591 
L 348.750813 132.654571 
L 349.4505 131.865287 
L 349.800343 130.593149 
L 350.150186 131.921112 
L 350.500029 131.63564 
L 350.849873 130.461283 
L 351.549559 130.893114 
L 351.899402 131.384476 
L 352.249246 130.934519 
L 352.599089 131.984969 
L 352.948932 131.163396 
L 353.298775 131.732841 
L 353.648619 131.006899 
L 353.998462 131.856539 
L 354.348305 131.359202 
L 354.698149 132.228461 
L 355.047992 130.795866 
L 355.397835 131.643273 
L 355.747678 132.082196 
L 356.097522 131.832027 
L 356.447365 132.757849 
L 356.797208 132.44943 
L 357.147051 132.587832 
L 357.496895 131.584111 
L 357.846738 131.543406 
L 358.196581 131.805415 
L 358.546424 131.450258 
L 359.246111 131.646294 
L 359.595954 132.107408 
L 359.945797 131.880479 
L 360.295641 132.134369 
L 360.645484 131.970307 
L 360.995327 132.386177 
L 361.34517 132.565465 
L 361.695014 131.64731 
L 362.044857 132.947028 
L 362.3947 131.513955 
L 362.744543 130.972511 
L 363.094387 131.252736 
L 363.44423 131.206001 
L 364.843603 132.653737 
L 365.193446 131.817172 
L 365.54329 132.11926 
L 365.893133 132.101248 
L 366.242976 131.966333 
L 366.592819 132.36078 
L 366.942663 131.258936 
L 367.292506 131.780393 
L 367.642349 131.54957 
L 368.342036 132.062622 
L 368.691879 131.957732 
L 369.041722 131.340718 
L 369.741409 131.670869 
L 370.091252 132.04183 
L 370.441095 132.236152 
L 370.790938 131.734186 
L 371.490625 131.782786 
L 371.840468 132.226408 
L 372.190312 132.283621 
L 372.540155 132.111478 
L 372.889998 132.220502 
L 373.239841 131.680684 
L 373.589685 132.290601 
L 373.939528 132.376387 
L 374.289371 133.543685 
L 374.639214 132.38326 
L 374.989058 131.997624 
L 375.338901 132.406125 
L 375.688744 131.864386 
L 376.738274 132.973723 
L 377.088117 132.207043 
L 377.43796 132.183732 
L 377.787804 132.917983 
L 378.137647 132.879916 
L 378.48749 131.609121 
L 378.837333 131.75248 
L 379.187177 131.61044 
L 379.53702 132.08651 
L 379.886863 131.515783 
L 380.236707 131.668492 
L 380.936393 130.424179 
L 381.286236 131.188671 
L 381.63608 131.541565 
L 381.985923 131.578801 
L 382.335766 131.760852 
L 382.685609 132.089249 
L 383.035453 131.078796 
L 383.385296 132.11539 
L 383.735139 131.641106 
L 384.084982 131.402283 
L 384.434826 130.979465 
L 384.784669 131.242137 
L 385.484355 131.105524 
L 385.834199 132.424635 
L 386.184042 132.220091 
L 386.533885 131.791997 
L 386.883728 131.938228 
L 387.233572 131.510736 
L 387.583415 132.098564 
L 387.933258 132.012834 
L 388.283101 133.27861 
L 388.982788 132.277825 
L 389.332631 132.339868 
L 389.682475 132.847564 
L 390.032318 132.572358 
L 390.382161 133.344471 
L 390.732004 133.44242 
L 391.081848 132.453226 
L 391.431691 132.987202 
L 391.781534 132.14924 
L 392.131377 132.405849 
L 392.831064 132.268171 
L 393.180907 132.281259 
L 393.53075 132.721498 
L 393.880594 132.325764 
L 394.230437 133.125103 
L 394.58028 133.109208 
L 394.930123 132.866023 
L 395.279967 133.262784 
L 395.62981 132.177378 
L 395.979653 132.36252 
L 396.329496 132.07249 
L 396.67934 132.346752 
L 397.379026 131.733131 
L 397.72887 132.763355 
L 398.078713 132.709225 
L 398.428556 132.462485 
L 399.128243 131.213038 
L 399.478086 131.659717 
L 399.827929 130.566539 
L 400.177772 130.559564 
L 400.527616 131.276871 
L 400.877459 130.846549 
L 401.227302 131.440441 
L 401.577145 130.957548 
L 401.926989 131.844636 
L 402.276832 131.094976 
L 402.626675 131.335715 
L 402.976518 131.407347 
L 403.326362 131.85281 
L 403.676205 131.305705 
L 404.026048 131.308068 
L 404.375891 131.126722 
L 404.725735 131.168921 
L 405.075578 130.91508 
L 405.425421 130.92399 
L 405.775264 130.733538 
L 406.125108 131.131068 
L 406.474951 131.184255 
L 406.824794 130.941223 
L 407.174638 131.384591 
L 407.524481 131.049911 
L 407.874324 131.456985 
L 408.224167 131.590332 
L 408.923854 131.392327 
L 409.273697 131.21249 
L 409.62354 131.931509 
L 409.973384 131.14334 
L 410.323227 131.232342 
L 410.67307 131.723453 
L 411.022913 131.587985 
L 411.7226 131.615276 
L 412.072443 131.440857 
L 412.77213 132.056708 
L 413.121973 131.762927 
L 413.471816 131.632992 
L 413.821659 132.353469 
L 414.521346 132.599687 
L 414.871189 132.971818 
L 415.570876 131.790298 
L 415.920719 132.466741 
L 416.270562 131.938196 
L 416.620406 131.1858 
L 416.970249 131.753227 
L 417.320092 131.454488 
L 417.669935 131.32602 
L 418.019779 131.732054 
L 419.069308 131.451028 
L 419.419152 131.069915 
L 419.768995 131.545053 
L 420.118838 132.321151 
L 420.468681 131.661514 
L 420.818525 131.759212 
L 421.518211 131.447085 
L 422.217898 132.403037 
L 422.567741 132.550619 
L 422.917584 132.262497 
L 423.617271 132.502361 
L 423.967114 131.712199 
L 424.316957 131.984447 
L 424.666801 131.804647 
L 425.016644 131.906886 
L 425.366487 131.496733 
L 425.71633 131.928376 
L 426.066174 131.837591 
L 426.416017 131.989177 
L 426.76586 131.447812 
L 427.115703 132.31555 
L 427.81539 131.861633 
L 428.165233 131.085775 
L 428.86492 131.103766 
L 429.214763 131.831547 
L 429.564606 132.165961 
L 429.914449 131.924331 
L 430.264293 132.49913 
L 430.614136 132.133288 
L 430.963979 132.703963 
L 431.313822 131.519711 
L 431.663666 131.787084 
L 432.013509 131.61516 
L 432.363352 131.905243 
L 432.713196 132.023337 
L 433.063039 131.424601 
L 433.412882 131.941062 
L 433.762725 131.584992 
L 434.112569 131.396081 
L 434.812255 131.734183 
L 435.162098 132.120899 
L 435.511942 131.868529 
L 435.861785 131.330176 
L 436.211628 131.950312 
L 436.561471 132.09371 
L 436.911315 131.285402 
L 437.261158 131.09023 
L 437.611001 131.418014 
L 438.660531 130.349473 
L 439.360217 130.653642 
L 439.710061 131.671098 
L 440.059904 131.704918 
L 440.759591 131.017815 
L 441.109434 131.587552 
L 441.459277 130.190526 
L 441.80912 131.64654 
L 442.158964 130.790442 
L 442.508807 131.176106 
L 442.85865 131.278116 
L 443.208493 132.267317 
L 443.558337 132.623179 
L 443.90818 131.651776 
L 444.258023 131.352801 
L 444.607866 131.294282 
L 444.95771 131.836177 
L 445.307553 131.318101 
L 445.657396 131.550916 
L 446.007239 131.334676 
L 446.357083 131.388509 
L 447.056769 131.856621 
L 447.406612 132.054724 
L 447.756456 131.115779 
L 448.106299 130.623342 
L 448.456142 130.862776 
L 448.805986 131.410627 
L 449.155829 131.349292 
L 449.505672 131.637476 
L 449.855515 130.877067 
L 450.205359 130.668975 
L 450.555202 131.473748 
L 450.905045 131.673314 
L 451.254888 132.305557 
L 451.604732 130.570695 
L 451.954575 131.524208 
L 452.304418 131.254612 
L 452.654261 131.168066 
L 453.004105 131.483211 
L 453.353948 130.980283 
L 454.053634 130.639009 
L 454.403478 131.405517 
L 454.753321 131.013127 
L 455.103164 131.049724 
L 455.453007 130.651157 
L 456.152694 131.651566 
L 456.502537 131.527573 
L 456.85238 131.633015 
L 457.202224 131.866406 
L 457.552067 131.748473 
L 457.90191 132.402915 
L 458.251754 132.503654 
L 458.95144 130.610999 
L 459.301283 131.411022 
L 459.651127 131.806313 
L 460.00097 131.121768 
L 460.350813 131.700637 
L 460.700656 131.62757 
L 461.0505 131.238641 
L 461.400343 131.260974 
L 462.449873 131.616936 
L 462.799716 131.295897 
L 463.149559 130.745783 
L 463.499402 130.782025 
L 463.849246 131.695054 
L 464.199089 131.024701 
L 464.548932 130.822981 
L 464.898775 131.750217 
L 465.248619 131.740044 
L 465.948305 130.129551 
L 466.298149 130.751975 
L 466.647992 131.003511 
L 466.997835 130.501422 
L 467.347678 130.73707 
L 467.697522 130.607715 
L 468.047365 129.985918 
L 468.397208 130.368178 
L 468.747051 131.084768 
L 469.096895 131.174641 
L 469.796581 130.139932 
L 470.146424 131.065379 
L 470.496268 130.833717 
L 471.195954 131.372946 
L 471.545797 131.291543 
L 471.895641 130.667029 
L 472.595327 130.97347 
L 472.94517 131.307341 
L 473.295014 131.831564 
L 473.644857 131.625404 
L 473.9947 131.179196 
L 474.344543 130.424577 
L 474.694387 131.765082 
L 475.04423 131.368139 
L 475.394073 131.226704 
L 475.743917 129.60527 
L 476.09376 131.070313 
L 476.443603 130.095266 
L 476.793446 130.115799 
L 477.14329 131.068329 
L 477.493133 131.166856 
L 477.842976 129.884812 
L 478.192819 130.754992 
L 478.542663 131.081415 
L 478.892506 131.562154 
L 479.242349 130.966667 
L 479.592192 131.136951 
L 479.942036 130.97303 
L 480.291879 130.964746 
L 480.641722 131.401499 
L 480.991565 130.626838 
L 481.691252 131.470264 
L 482.041095 130.858801 
L 482.390938 130.899558 
L 483.090625 131.327705 
L 483.790312 130.392417 
L 484.489998 130.354384 
L 484.839841 131.156742 
L 485.189685 130.83115 
L 485.539528 130.24938 
L 485.889371 130.371003 
L 486.239214 129.487353 
L 486.589058 124.532664 
L 486.938901 128.733557 
L 487.288744 130.746911 
L 487.638587 130.987071 
L 487.988431 130.324001 
L 488.338274 130.448759 
L 488.688117 130.830733 
L 489.03796 130.595539 
L 489.387804 131.188754 
L 489.737647 130.164736 
L 490.437333 129.37263 
L 490.787177 129.95629 
L 491.486863 129.478811 
L 491.836707 130.005955 
L 492.18655 130.010266 
L 493.23608 130.921899 
L 493.585923 130.187721 
L 493.935766 130.113992 
L 494.285609 131.214958 
L 494.635453 130.452203 
L 494.985296 130.945951 
L 495.335139 130.491291 
L 496.034826 131.514279 
L 496.384669 131.223316 
L 497.084355 131.389353 
L 497.784042 131.656079 
L 498.133885 129.705955 
L 498.483728 129.917771 
L 498.833572 129.276748 
L 499.183415 130.453329 
L 499.533258 130.414805 
L 499.883101 130.50234 
L 500.232945 130.467444 
L 500.582788 131.055133 
L 500.932631 130.138572 
L 501.282475 130.40683 
L 501.632318 125.50742 
L 501.982161 122.84104 
L 502.332004 130.1481 
L 502.681848 130.84771 
L 503.381534 130.640343 
L 503.731377 130.828383 
L 504.081221 130.498662 
L 504.431064 130.583282 
L 504.780907 129.75929 
L 505.13075 130.374035 
L 505.480594 129.867492 
L 505.830437 131.896064 
L 506.530123 130.212515 
L 506.879967 130.845973 
L 507.22981 130.804372 
L 507.579653 131.0562 
L 508.27934 130.108805 
L 508.629183 130.992055 
L 508.979026 130.592388 
L 509.32887 130.488568 
L 509.678713 130.23127 
L 510.028556 130.805741 
L 510.728243 130.00987 
L 511.078086 130.389554 
L 511.427929 130.413294 
L 511.777772 129.829188 
L 512.127616 130.722457 
L 512.477459 131.024591 
L 512.827302 129.376244 
L 513.177145 130.437763 
L 513.526989 130.424088 
L 514.226675 130.688667 
L 514.576518 132.07996 
L 514.926362 130.667219 
L 515.276205 130.690392 
L 515.626048 129.888552 
L 515.975891 131.129125 
L 516.325735 130.389063 
L 516.675578 130.100626 
L 517.375264 130.674351 
L 517.725108 130.416076 
L 518.774638 130.233648 
L 519.124481 130.664875 
L 519.474324 129.387487 
L 519.824167 130.22461 
L 520.174011 129.77033 
L 520.523854 129.585297 
L 520.873697 130.128692 
L 521.573384 129.829608 
L 521.923227 130.994181 
L 522.27307 131.219198 
L 522.622913 130.70974 
L 522.972757 131.566129 
L 523.3226 131.209827 
L 523.672443 130.306914 
L 524.022286 130.868781 
L 524.37213 130.571939 
L 524.721973 130.595518 
L 525.071816 131.053044 
L 525.421659 130.282901 
L 525.771503 129.976774 
L 526.121346 130.526792 
L 526.471189 130.344896 
L 526.821033 131.020758 
L 527.170876 129.906556 
L 527.870562 130.716983 
L 528.220406 130.488582 
L 528.570249 130.787487 
L 528.920092 130.366097 
L 529.269935 130.165814 
L 529.619779 130.934409 
L 529.969622 130.164311 
L 530.669308 131.18006 
L 531.019152 129.463145 
L 531.368995 129.98269 
L 531.718838 130.244075 
L 532.068681 130.903143 
L 532.418525 130.176831 
L 533.468054 129.780195 
L 533.817898 130.4535 
L 534.167741 130.120047 
L 535.217271 130.726894 
L 535.567114 131.722965 
L 535.916957 131.979351 
L 536.266801 131.055048 
L 536.616644 130.63362 
L 537.666174 130.679998 
L 538.016017 129.982784 
L 538.36586 130.691736 
L 538.715703 129.917174 
L 539.065547 130.440223 
L 539.41539 130.522927 
L 539.765233 129.957382 
L 540.46492 129.849221 
L 540.814763 130.755282 
L 541.164606 130.96083 
L 541.514449 130.41423 
L 542.214136 130.557492 
L 542.563979 130.789901 
L 542.913822 130.863772 
L 543.263666 131.564199 
L 543.613509 130.661505 
L 543.963352 130.28247 
L 544.313196 130.699576 
L 544.663039 130.326585 
L 545.012882 130.781557 
L 545.362725 130.910442 
L 546.062412 130.744515 
L 546.412255 130.13246 
L 546.762098 130.820767 
L 547.111942 130.326052 
L 547.461785 130.391666 
L 547.811628 131.018171 
L 548.161471 130.115225 
L 548.511315 131.049893 
L 548.861158 130.829827 
L 549.211001 131.060234 
L 550.260531 130.133804 
L 550.610374 130.323136 
L 550.960217 131.045865 
L 551.310061 130.84038 
L 551.659904 130.122947 
L 552.009747 130.817559 
L 552.709434 131.009742 
L 553.059277 130.685493 
L 553.40912 129.957812 
L 553.758964 129.944515 
L 554.108807 130.66462 
L 554.45865 130.17704 
L 554.808493 131.316742 
L 555.158337 130.989109 
L 555.50818 131.196682 
L 556.207866 131.094299 
L 556.55771 130.872635 
L 556.907553 132.222389 
L 557.607239 130.76153 
L 557.957083 131.008135 
L 558.306926 130.604647 
L 558.656769 131.381519 
L 559.356456 131.74209 
L 559.706299 131.417356 
L 560.056142 130.539769 
L 560.405986 130.296014 
L 560.755829 129.894973 
L 561.105672 130.040812 
L 561.455515 130.328041 
L 561.805359 130.099852 
L 562.155202 130.564728 
L 562.505045 130.417975 
L 563.204732 130.946676 
L 563.554575 131.021662 
L 563.904418 131.322415 
L 564.254261 130.227999 
L 564.604105 130.593962 
L 564.953948 130.52789 
L 565.303791 130.654234 
L 565.653634 131.421961 
L 566.003478 131.238056 
L 566.353321 131.204655 
L 566.703164 130.872112 
L 567.053007 130.693748 
L 567.402851 130.878738 
L 567.752694 131.617836 
L 568.102537 131.698071 
L 568.45238 131.485252 
L 568.802224 131.641098 
L 569.152067 131.335069 
L 569.50191 131.546914 
L 570.201597 130.955012 
L 570.55144 131.187717 
L 570.901283 131.776312 
L 571.251127 131.668382 
L 571.60097 130.825121 
L 571.950813 131.29556 
L 572.6505 130.48569 
L 573.000343 130.797796 
L 573.350186 130.06752 
L 573.700029 130.561251 
L 574.049873 130.77423 
L 574.399716 131.655061 
L 574.749559 130.695025 
L 575.099402 130.686328 
L 575.449246 130.027288 
L 575.799089 130.48206 
L 576.148932 130.457861 
L 576.848619 131.306902 
L 577.198462 131.29802 
L 577.548305 131.931612 
L 577.898149 131.096228 
L 578.247992 131.42237 
L 578.597835 131.525918 
L 578.947678 130.490469 
L 579.297522 131.427434 
L 579.647365 131.319698 
L 579.997208 132.065013 
L 580.347051 131.848164 
L 580.696895 130.823013 
L 581.046738 130.725385 
L 581.746424 131.711716 
L 582.096268 130.974484 
L 582.446111 131.716505 
L 582.795954 131.639789 
L 583.145797 131.837882 
L 583.495641 131.099314 
L 584.195327 130.933967 
L 584.54517 131.017748 
L 585.244857 130.888717 
L 585.5947 131.115387 
L 585.944543 131.109607 
L 586.294387 130.501021 
L 586.64423 131.002452 
L 586.994073 131.276586 
L 587.343917 131.222873 
L 587.69376 130.550084 
L 588.043603 131.494701 
L 588.393446 130.518888 
L 588.74329 131.319896 
L 589.442976 131.651287 
L 589.792819 131.305954 
L 590.142663 131.485045 
L 590.492506 130.531172 
L 590.842349 131.553836 
L 591.542036 129.965807 
L 591.891879 130.976343 
L 592.241722 131.249134 
L 592.591565 130.946057 
L 593.291252 131.226626 
L 593.641095 131.81106 
L 593.990938 131.330166 
L 594.340782 131.943713 
L 594.690625 132.114566 
L 595.390312 131.332326 
L 595.740155 132.325968 
L 596.089998 131.770171 
L 596.789685 131.460832 
L 597.139528 130.908258 
L 597.489371 131.492037 
L 597.839214 130.796225 
L 598.189058 130.547813 
L 598.538901 130.55218 
L 598.888744 131.262246 
L 599.238587 131.600058 
L 599.588431 131.133912 
L 599.938274 131.236189 
L 600.63796 130.883149 
L 600.987804 131.667761 
L 601.337647 131.447666 
L 602.037333 131.53297 
L 602.387177 131.352271 
L 603.086863 130.793341 
L 603.436707 130.551271 
L 604.136393 130.365484 
L 604.83608 131.728002 
L 605.185923 130.947119 
L 605.535766 131.103142 
L 606.235453 130.976254 
L 606.935139 132.198462 
L 607.984669 131.035508 
L 608.684355 130.629323 
L 609.384042 131.404048 
L 609.733885 131.586858 
L 610.083728 131.990964 
L 610.433572 132.071076 
L 610.783415 131.910629 
L 611.133258 131.34271 
L 611.483101 131.359568 
L 611.832945 132.435423 
L 612.182788 131.631789 
L 612.532631 131.545106 
L 612.882475 130.616834 
L 613.232318 130.482872 
L 613.582161 131.048006 
L 614.281848 130.251048 
L 614.631691 130.841582 
L 614.981534 130.174568 
L 615.331377 130.169603 
L 615.681221 131.135607 
L 616.031064 131.002913 
L 616.380907 130.619073 
L 616.73075 130.60738 
L 617.080594 130.939915 
L 617.430437 131.060842 
L 617.78028 130.826112 
L 618.130123 130.974252 
L 618.479967 130.49139 
L 618.82981 131.383115 
L 619.529496 130.358012 
L 619.87934 131.086693 
L 620.229183 131.297943 
L 620.579026 130.876218 
L 620.92887 131.345251 
L 621.278713 132.137334 
L 621.978399 130.989599 
L 622.328243 131.535417 
L 622.678086 130.874531 
L 623.027929 131.071163 
L 623.377772 131.002047 
L 623.727616 131.134322 
L 624.427302 130.864932 
L 624.777145 130.918441 
L 625.126989 131.279989 
L 625.126989 131.279989 
" clip-path="url(#p264f3db361)" style="fill: none; stroke: #ff7f0e; stroke-width: 1.5; stroke-linecap: square"/>
   </g>
   <g id="patch_3">
    <path d="M 92.490625 308.63625 
L 92.490625 31.43625 
" style="fill: none; stroke: #000000; stroke-width: 0.8; stroke-linejoin: miter; stroke-linecap: square"/>
   </g>
   <g id="patch_4">
    <path d="M 650.490625 308.63625 
L 650.490625 31.43625 
" style="fill: none; stroke: #000000; stroke-width: 0.8; stroke-linejoin: miter; stroke-linecap: square"/>
   </g>
   <g id="patch_5">
    <path d="M 92.490625 308.63625 
L 650.490625 308.63625 
" style="fill: none; stroke: #000000; stroke-width: 0.8; stroke-linejoin: miter; stroke-linecap: square"/>
   </g>
   <g id="patch_6">
    <path d="M 92.490625 31.43625 
L 650.490625 31.43625 
" style="fill: none; stroke: #000000; stroke-width: 0.8; stroke-linejoin: miter; stroke-linecap: square"/>
   </g>
   <g id="text_15">
    <!-- Generator and Discriminator Loss During Training -->
    <g transform="translate(74.258125 25.43625) scale(0.24 -0.24)">
     <defs>
      <path id="DejaVuSans-47" d="M 3809 666 
L 3809 1919 
L 2778 1919 
L 2778 2438 
L 4434 2438 
L 4434 434 
Q 4069 175 3628 42 
Q 3188 -91 2688 -91 
Q 1594 -91 976 548 
Q 359 1188 359 2328 
Q 359 3472 976 4111 
Q 1594 4750 2688 4750 
Q 3144 4750 3555 4637 
Q 3966 4525 4313 4306 
L 4313 3634 
Q 3963 3931 3569 4081 
Q 3175 4231 2741 4231 
Q 1884 4231 1454 3753 
Q 1025 3275 1025 2328 
Q 1025 1384 1454 906 
Q 1884 428 2741 428 
Q 3075 428 3337 486 
Q 3600 544 3809 666 
z
" transform="scale(0.015625)"/>
      <path id="DejaVuSans-20" transform="scale(0.015625)"/>
      <path id="DejaVuSans-64" d="M 2906 2969 
L 2906 4863 
L 3481 4863 
L 3481 0 
L 2906 0 
L 2906 525 
Q 2725 213 2448 61 
Q 2172 -91 1784 -91 
Q 1150 -91 751 415 
Q 353 922 353 1747 
Q 353 2572 751 3078 
Q 1150 3584 1784 3584 
Q 2172 3584 2448 3432 
Q 2725 3281 2906 2969 
z
M 947 1747 
Q 947 1113 1208 752 
Q 1469 391 1925 391 
Q 2381 391 2643 752 
Q 2906 1113 2906 1747 
Q 2906 2381 2643 2742 
Q 2381 3103 1925 3103 
Q 1469 3103 1208 2742 
Q 947 2381 947 1747 
z
" transform="scale(0.015625)"/>
      <path id="DejaVuSans-44" d="M 1259 4147 
L 1259 519 
L 2022 519 
Q 2988 519 3436 956 
Q 3884 1394 3884 2338 
Q 3884 3275 3436 3711 
Q 2988 4147 2022 4147 
L 1259 4147 
z
M 628 4666 
L 1925 4666 
Q 3281 4666 3915 4102 
Q 4550 3538 4550 2338 
Q 4550 1131 3912 565 
Q 3275 0 1925 0 
L 628 0 
L 628 4666 
z
" transform="scale(0.015625)"/>
      <path id="DejaVuSans-63" d="M 3122 3366 
L 3122 2828 
Q 2878 2963 2633 3030 
Q 2388 3097 2138 3097 
Q 1578 3097 1268 2742 
Q 959 2388 959 1747 
Q 959 1106 1268 751 
Q 1578 397 2138 397 
Q 2388 397 2633 464 
Q 2878 531 3122 666 
L 3122 134 
Q 2881 22 2623 -34 
Q 2366 -91 2075 -91 
Q 1284 -91 818 406 
Q 353 903 353 1747 
Q 353 2603 823 3093 
Q 1294 3584 2113 3584 
Q 2378 3584 2631 3529 
Q 2884 3475 3122 3366 
z
" transform="scale(0.015625)"/>
      <path id="DejaVuSans-6d" d="M 3328 2828 
Q 3544 3216 3844 3400 
Q 4144 3584 4550 3584 
Q 5097 3584 5394 3201 
Q 5691 2819 5691 2113 
L 5691 0 
L 5113 0 
L 5113 2094 
Q 5113 2597 4934 2840 
Q 4756 3084 4391 3084 
Q 3944 3084 3684 2787 
Q 3425 2491 3425 1978 
L 3425 0 
L 2847 0 
L 2847 2094 
Q 2847 2600 2669 2842 
Q 2491 3084 2119 3084 
Q 1678 3084 1418 2786 
Q 1159 2488 1159 1978 
L 1159 0 
L 581 0 
L 581 3500 
L 1159 3500 
L 1159 2956 
Q 1356 3278 1631 3431 
Q 1906 3584 2284 3584 
Q 2666 3584 2933 3390 
Q 3200 3197 3328 2828 
z
" transform="scale(0.015625)"/>
      <path id="DejaVuSans-75" d="M 544 1381 
L 544 3500 
L 1119 3500 
L 1119 1403 
Q 1119 906 1312 657 
Q 1506 409 1894 409 
Q 2359 409 2629 706 
Q 2900 1003 2900 1516 
L 2900 3500 
L 3475 3500 
L 3475 0 
L 2900 0 
L 2900 538 
Q 2691 219 2414 64 
Q 2138 -91 1772 -91 
Q 1169 -91 856 284 
Q 544 659 544 1381 
z
M 1991 3584 
L 1991 3584 
z
" transform="scale(0.015625)"/>
      <path id="DejaVuSans-67" d="M 2906 1791 
Q 2906 2416 2648 2759 
Q 2391 3103 1925 3103 
Q 1463 3103 1205 2759 
Q 947 2416 947 1791 
Q 947 1169 1205 825 
Q 1463 481 1925 481 
Q 2391 481 2648 825 
Q 2906 1169 2906 1791 
z
M 3481 434 
Q 3481 -459 3084 -895 
Q 2688 -1331 1869 -1331 
Q 1566 -1331 1297 -1286 
Q 1028 -1241 775 -1147 
L 775 -588 
Q 1028 -725 1275 -790 
Q 1522 -856 1778 -856 
Q 2344 -856 2625 -561 
Q 2906 -266 2906 331 
L 2906 616 
Q 2728 306 2450 153 
Q 2172 0 1784 0 
Q 1141 0 747 490 
Q 353 981 353 1791 
Q 353 2603 747 3093 
Q 1141 3584 1784 3584 
Q 2172 3584 2450 3431 
Q 2728 3278 2906 2969 
L 2906 3500 
L 3481 3500 
L 3481 434 
z
" transform="scale(0.015625)"/>
      <path id="DejaVuSans-54" d="M -19 4666 
L 3928 4666 
L 3928 4134 
L 2272 4134 
L 2272 0 
L 1638 0 
L 1638 4134 
L -19 4134 
L -19 4666 
z
" transform="scale(0.015625)"/>
     </defs>
     <use xlink:href="#DejaVuSans-47"/>
     <use xlink:href="#DejaVuSans-65" x="77.490234"/>
     <use xlink:href="#DejaVuSans-6e" x="139.013672"/>
     <use xlink:href="#DejaVuSans-65" x="202.392578"/>
     <use xlink:href="#DejaVuSans-72" x="263.916016"/>
     <use xlink:href="#DejaVuSans-61" x="305.029297"/>
     <use xlink:href="#DejaVuSans-74" x="366.308594"/>
     <use xlink:href="#DejaVuSans-6f" x="405.517578"/>
     <use xlink:href="#DejaVuSans-72" x="466.699219"/>
     <use xlink:href="#DejaVuSans-20" x="507.8125"/>
     <use xlink:href="#DejaVuSans-61" x="539.599609"/>
     <use xlink:href="#DejaVuSans-6e" x="600.878906"/>
     <use xlink:href="#DejaVuSans-64" x="664.257812"/>
     <use xlink:href="#DejaVuSans-20" x="727.734375"/>
     <use xlink:href="#DejaVuSans-44" x="759.521484"/>
     <use xlink:href="#DejaVuSans-69" x="836.523438"/>
     <use xlink:href="#DejaVuSans-73" x="864.306641"/>
     <use xlink:href="#DejaVuSans-63" x="916.40625"/>
     <use xlink:href="#DejaVuSans-72" x="971.386719"/>
     <use xlink:href="#DejaVuSans-69" x="1012.5"/>
     <use xlink:href="#DejaVuSans-6d" x="1040.283203"/>
     <use xlink:href="#DejaVuSans-69" x="1137.695312"/>
     <use xlink:href="#DejaVuSans-6e" x="1165.478516"/>
     <use xlink:href="#DejaVuSans-61" x="1228.857422"/>
     <use xlink:href="#DejaVuSans-74" x="1290.136719"/>
     <use xlink:href="#DejaVuSans-6f" x="1329.345703"/>
     <use xlink:href="#DejaVuSans-72" x="1390.527344"/>
     <use xlink:href="#DejaVuSans-20" x="1431.640625"/>
     <use xlink:href="#DejaVuSans-4c" x="1463.427734"/>
     <use xlink:href="#DejaVuSans-6f" x="1517.390625"/>
     <use xlink:href="#DejaVuSans-73" x="1578.572266"/>
     <use xlink:href="#DejaVuSans-73" x="1630.671875"/>
     <use xlink:href="#DejaVuSans-20" x="1682.771484"/>
     <use xlink:href="#DejaVuSans-44" x="1714.558594"/>
     <use xlink:href="#DejaVuSans-75" x="1791.560547"/>
     <use xlink:href="#DejaVuSans-72" x="1854.939453"/>
     <use xlink:href="#DejaVuSans-69" x="1896.052734"/>
     <use xlink:href="#DejaVuSans-6e" x="1923.835938"/>
     <use xlink:href="#DejaVuSans-67" x="1987.214844"/>
     <use xlink:href="#DejaVuSans-20" x="2050.691406"/>
     <use xlink:href="#DejaVuSans-54" x="2082.478516"/>
     <use xlink:href="#DejaVuSans-72" x="2128.8125"/>
     <use xlink:href="#DejaVuSans-61" x="2169.925781"/>
     <use xlink:href="#DejaVuSans-69" x="2231.205078"/>
     <use xlink:href="#DejaVuSans-6e" x="2258.988281"/>
     <use xlink:href="#DejaVuSans-69" x="2322.367188"/>
     <use xlink:href="#DejaVuSans-6e" x="2350.150391"/>
     <use xlink:href="#DejaVuSans-67" x="2413.529297"/>
    </g>
   </g>
   <g id="legend_1">
    <g id="patch_7">
     <path d="M 556.99375 106.14875 
L 636.490625 106.14875 
Q 640.490625 106.14875 640.490625 102.14875 
L 640.490625 45.43625 
Q 640.490625 41.43625 636.490625 41.43625 
L 556.99375 41.43625 
Q 552.99375 41.43625 552.99375 45.43625 
L 552.99375 102.14875 
Q 552.99375 106.14875 556.99375 106.14875 
z
" style="fill: #ffffff; opacity: 0.8; stroke: #cccccc; stroke-linejoin: miter"/>
    </g>
    <g id="line2d_15">
     <path d="M 560.99375 57.633125 
L 580.99375 57.633125 
L 600.99375 57.633125 
" style="fill: none; stroke: #1f77b4; stroke-width: 1.5; stroke-linecap: square"/>
    </g>
    <g id="text_16">
     <!-- G -->
     <g transform="translate(616.99375 64.633125) scale(0.2 -0.2)">
      <use xlink:href="#DejaVuSans-47"/>
     </g>
    </g>
    <g id="line2d_16">
     <path d="M 560.99375 86.989375 
L 580.99375 86.989375 
L 600.99375 86.989375 
" style="fill: none; stroke: #ff7f0e; stroke-width: 1.5; stroke-linecap: square"/>
    </g>
    <g id="text_17">
     <!-- D -->
     <g transform="translate(616.99375 93.989375) scale(0.2 -0.2)">
      <use xlink:href="#DejaVuSans-44"/>
     </g>
    </g>
   </g>
  </g>
 </g>
 <defs>
  <clipPath id="p264f3db361">
   <rect x="92.490625" y="31.43625" width="558" height="277.2"/>
  </clipPath>
 </defs>
</svg>
