<?xml version="1.0" encoding="utf-8" standalone="no"?>
<!DOCTYPE svg PUBLIC "-//W3C//DTD SVG 1.1//EN"
  "http://www.w3.org/Graphics/SVG/1.1/DTD/svg11.dtd">
<svg xmlns:xlink="http://www.w3.org/1999/xlink" width="675.923125pt" height="365.54875pt" viewBox="0 0 675.923125 365.54875" xmlns="http://www.w3.org/2000/svg" version="1.1">
 <metadata>
  <rdf:RDF xmlns:dc="http://purl.org/dc/elements/1.1/" xmlns:cc="http://creativecommons.org/ns#" xmlns:rdf="http://www.w3.org/1999/02/22-rdf-syntax-ns#">
   <cc:Work>
    <dc:type rdf:resource="http://purl.org/dc/dcmitype/StillImage"/>
    <dc:date>2024-02-01T20:52:25.782978</dc:date>
    <dc:format>image/svg+xml</dc:format>
    <dc:creator>
     <cc:Agent>
      <dc:title>Matplotlib v3.7.2, https://matplotlib.org/</dc:title>
     </cc:Agent>
    </dc:creator>
   </cc:Work>
  </rdf:RDF>
 </metadata>
 <defs>
  <style type="text/css">*{stroke-linejoin: round; stroke-linecap: butt}</style>
 </defs>
 <g id="figure_1">
  <g id="patch_1">
   <path d="M 0 365.54875 
L 675.923125 365.54875 
L 675.923125 -0 
L 0 -0 
z
" style="fill: #ffffff"/>
  </g>
  <g id="axes_1">
   <g id="patch_2">
    <path d="M 92.490625 308.63625 
L 650.490625 308.63625 
L 650.490625 31.43625 
L 92.490625 31.43625 
z
" style="fill: #ffffff"/>
   </g>
   <g id="matplotlib.axis_1">
    <g id="xtick_1">
     <g id="line2d_1">
      <defs>
       <path id="m52b1328f97" d="M 0 0 
L 0 3.5 
" style="stroke: #000000; stroke-width: 0.8"/>
      </defs>
      <g>
       <use xlink:href="#m52b1328f97" x="117.854261" y="308.63625" style="stroke: #000000; stroke-width: 0.8"/>
      </g>
     </g>
     <g id="text_1">
      <!-- 0 -->
      <g transform="translate(111.491761 330.833125) scale(0.2 -0.2)">
       <defs>
        <path id="DejaVuSans-30" d="M 2034 4250 
Q 1547 4250 1301 3770 
Q 1056 3291 1056 2328 
Q 1056 1369 1301 889 
Q 1547 409 2034 409 
Q 2525 409 2770 889 
Q 3016 1369 3016 2328 
Q 3016 3291 2770 3770 
Q 2525 4250 2034 4250 
z
M 2034 4750 
Q 2819 4750 3233 4129 
Q 3647 3509 3647 2328 
Q 3647 1150 3233 529 
Q 2819 -91 2034 -91 
Q 1250 -91 836 529 
Q 422 1150 422 2328 
Q 422 3509 836 4129 
Q 1250 4750 2034 4750 
z
" transform="scale(0.015625)"/>
       </defs>
       <use xlink:href="#DejaVuSans-30"/>
      </g>
     </g>
    </g>
    <g id="xtick_2">
     <g id="line2d_2">
      <g>
       <use xlink:href="#m52b1328f97" x="219.308807" y="308.63625" style="stroke: #000000; stroke-width: 0.8"/>
      </g>
     </g>
     <g id="text_2">
      <!-- 50 -->
      <g transform="translate(206.583807 330.833125) scale(0.2 -0.2)">
       <defs>
        <path id="DejaVuSans-35" d="M 691 4666 
L 3169 4666 
L 3169 4134 
L 1269 4134 
L 1269 2991 
Q 1406 3038 1543 3061 
Q 1681 3084 1819 3084 
Q 2600 3084 3056 2656 
Q 3513 2228 3513 1497 
Q 3513 744 3044 326 
Q 2575 -91 1722 -91 
Q 1428 -91 1123 -41 
Q 819 9 494 109 
L 494 744 
Q 775 591 1075 516 
Q 1375 441 1709 441 
Q 2250 441 2565 725 
Q 2881 1009 2881 1497 
Q 2881 1984 2565 2268 
Q 2250 2553 1709 2553 
Q 1456 2553 1204 2497 
Q 953 2441 691 2322 
L 691 4666 
z
" transform="scale(0.015625)"/>
       </defs>
       <use xlink:href="#DejaVuSans-35"/>
       <use xlink:href="#DejaVuSans-30" x="63.623047"/>
      </g>
     </g>
    </g>
    <g id="xtick_3">
     <g id="line2d_3">
      <g>
       <use xlink:href="#m52b1328f97" x="320.763352" y="308.63625" style="stroke: #000000; stroke-width: 0.8"/>
      </g>
     </g>
     <g id="text_3">
      <!-- 100 -->
      <g transform="translate(301.675852 330.833125) scale(0.2 -0.2)">
       <defs>
        <path id="DejaVuSans-31" d="M 794 531 
L 1825 531 
L 1825 4091 
L 703 3866 
L 703 4441 
L 1819 4666 
L 2450 4666 
L 2450 531 
L 3481 531 
L 3481 0 
L 794 0 
L 794 531 
z
" transform="scale(0.015625)"/>
       </defs>
       <use xlink:href="#DejaVuSans-31"/>
       <use xlink:href="#DejaVuSans-30" x="63.623047"/>
       <use xlink:href="#DejaVuSans-30" x="127.246094"/>
      </g>
     </g>
    </g>
    <g id="xtick_4">
     <g id="line2d_4">
      <g>
       <use xlink:href="#m52b1328f97" x="422.217898" y="308.63625" style="stroke: #000000; stroke-width: 0.8"/>
      </g>
     </g>
     <g id="text_4">
      <!-- 150 -->
      <g transform="translate(403.130398 330.833125) scale(0.2 -0.2)">
       <use xlink:href="#DejaVuSans-31"/>
       <use xlink:href="#DejaVuSans-35" x="63.623047"/>
       <use xlink:href="#DejaVuSans-30" x="127.246094"/>
      </g>
     </g>
    </g>
    <g id="xtick_5">
     <g id="line2d_5">
      <g>
       <use xlink:href="#m52b1328f97" x="523.672443" y="308.63625" style="stroke: #000000; stroke-width: 0.8"/>
      </g>
     </g>
     <g id="text_5">
      <!-- 200 -->
      <g transform="translate(504.584943 330.833125) scale(0.2 -0.2)">
       <defs>
        <path id="DejaVuSans-32" d="M 1228 531 
L 3431 531 
L 3431 0 
L 469 0 
L 469 531 
Q 828 903 1448 1529 
Q 2069 2156 2228 2338 
Q 2531 2678 2651 2914 
Q 2772 3150 2772 3378 
Q 2772 3750 2511 3984 
Q 2250 4219 1831 4219 
Q 1534 4219 1204 4116 
Q 875 4013 500 3803 
L 500 4441 
Q 881 4594 1212 4672 
Q 1544 4750 1819 4750 
Q 2544 4750 2975 4387 
Q 3406 4025 3406 3419 
Q 3406 3131 3298 2873 
Q 3191 2616 2906 2266 
Q 2828 2175 2409 1742 
Q 1991 1309 1228 531 
z
" transform="scale(0.015625)"/>
       </defs>
       <use xlink:href="#DejaVuSans-32"/>
       <use xlink:href="#DejaVuSans-30" x="63.623047"/>
       <use xlink:href="#DejaVuSans-30" x="127.246094"/>
      </g>
     </g>
    </g>
    <g id="xtick_6">
     <g id="line2d_6">
      <g>
       <use xlink:href="#m52b1328f97" x="625.126989" y="308.63625" style="stroke: #000000; stroke-width: 0.8"/>
      </g>
     </g>
     <g id="text_6">
      <!-- 250 -->
      <g transform="translate(606.039489 330.833125) scale(0.2 -0.2)">
       <use xlink:href="#DejaVuSans-32"/>
       <use xlink:href="#DejaVuSans-35" x="63.623047"/>
       <use xlink:href="#DejaVuSans-30" x="127.246094"/>
      </g>
     </g>
    </g>
    <g id="text_7">
     <!-- iterations -->
     <g transform="translate(324.035938 354.189375) scale(0.2 -0.2)">
      <defs>
       <path id="DejaVuSans-69" d="M 603 3500 
L 1178 3500 
L 1178 0 
L 603 0 
L 603 3500 
z
M 603 4863 
L 1178 4863 
L 1178 4134 
L 603 4134 
L 603 4863 
z
" transform="scale(0.015625)"/>
       <path id="DejaVuSans-74" d="M 1172 4494 
L 1172 3500 
L 2356 3500 
L 2356 3053 
L 1172 3053 
L 1172 1153 
Q 1172 725 1289 603 
Q 1406 481 1766 481 
L 2356 481 
L 2356 0 
L 1766 0 
Q 1100 0 847 248 
Q 594 497 594 1153 
L 594 3053 
L 172 3053 
L 172 3500 
L 594 3500 
L 594 4494 
L 1172 4494 
z
" transform="scale(0.015625)"/>
       <path id="DejaVuSans-65" d="M 3597 1894 
L 3597 1613 
L 953 1613 
Q 991 1019 1311 708 
Q 1631 397 2203 397 
Q 2534 397 2845 478 
Q 3156 559 3463 722 
L 3463 178 
Q 3153 47 2828 -22 
Q 2503 -91 2169 -91 
Q 1331 -91 842 396 
Q 353 884 353 1716 
Q 353 2575 817 3079 
Q 1281 3584 2069 3584 
Q 2775 3584 3186 3129 
Q 3597 2675 3597 1894 
z
M 3022 2063 
Q 3016 2534 2758 2815 
Q 2500 3097 2075 3097 
Q 1594 3097 1305 2825 
Q 1016 2553 972 2059 
L 3022 2063 
z
" transform="scale(0.015625)"/>
       <path id="DejaVuSans-72" d="M 2631 2963 
Q 2534 3019 2420 3045 
Q 2306 3072 2169 3072 
Q 1681 3072 1420 2755 
Q 1159 2438 1159 1844 
L 1159 0 
L 581 0 
L 581 3500 
L 1159 3500 
L 1159 2956 
Q 1341 3275 1631 3429 
Q 1922 3584 2338 3584 
Q 2397 3584 2469 3576 
Q 2541 3569 2628 3553 
L 2631 2963 
z
" transform="scale(0.015625)"/>
       <path id="DejaVuSans-61" d="M 2194 1759 
Q 1497 1759 1228 1600 
Q 959 1441 959 1056 
Q 959 750 1161 570 
Q 1363 391 1709 391 
Q 2188 391 2477 730 
Q 2766 1069 2766 1631 
L 2766 1759 
L 2194 1759 
z
M 3341 1997 
L 3341 0 
L 2766 0 
L 2766 531 
Q 2569 213 2275 61 
Q 1981 -91 1556 -91 
Q 1019 -91 701 211 
Q 384 513 384 1019 
Q 384 1609 779 1909 
Q 1175 2209 1959 2209 
L 2766 2209 
L 2766 2266 
Q 2766 2663 2505 2880 
Q 2244 3097 1772 3097 
Q 1472 3097 1187 3025 
Q 903 2953 641 2809 
L 641 3341 
Q 956 3463 1253 3523 
Q 1550 3584 1831 3584 
Q 2591 3584 2966 3190 
Q 3341 2797 3341 1997 
z
" transform="scale(0.015625)"/>
       <path id="DejaVuSans-6f" d="M 1959 3097 
Q 1497 3097 1228 2736 
Q 959 2375 959 1747 
Q 959 1119 1226 758 
Q 1494 397 1959 397 
Q 2419 397 2687 759 
Q 2956 1122 2956 1747 
Q 2956 2369 2687 2733 
Q 2419 3097 1959 3097 
z
M 1959 3584 
Q 2709 3584 3137 3096 
Q 3566 2609 3566 1747 
Q 3566 888 3137 398 
Q 2709 -91 1959 -91 
Q 1206 -91 779 398 
Q 353 888 353 1747 
Q 353 2609 779 3096 
Q 1206 3584 1959 3584 
z
" transform="scale(0.015625)"/>
       <path id="DejaVuSans-6e" d="M 3513 2113 
L 3513 0 
L 2938 0 
L 2938 2094 
Q 2938 2591 2744 2837 
Q 2550 3084 2163 3084 
Q 1697 3084 1428 2787 
Q 1159 2491 1159 1978 
L 1159 0 
L 581 0 
L 581 3500 
L 1159 3500 
L 1159 2956 
Q 1366 3272 1645 3428 
Q 1925 3584 2291 3584 
Q 2894 3584 3203 3211 
Q 3513 2838 3513 2113 
z
" transform="scale(0.015625)"/>
       <path id="DejaVuSans-73" d="M 2834 3397 
L 2834 2853 
Q 2591 2978 2328 3040 
Q 2066 3103 1784 3103 
Q 1356 3103 1142 2972 
Q 928 2841 928 2578 
Q 928 2378 1081 2264 
Q 1234 2150 1697 2047 
L 1894 2003 
Q 2506 1872 2764 1633 
Q 3022 1394 3022 966 
Q 3022 478 2636 193 
Q 2250 -91 1575 -91 
Q 1294 -91 989 -36 
Q 684 19 347 128 
L 347 722 
Q 666 556 975 473 
Q 1284 391 1588 391 
Q 1994 391 2212 530 
Q 2431 669 2431 922 
Q 2431 1156 2273 1281 
Q 2116 1406 1581 1522 
L 1381 1569 
Q 847 1681 609 1914 
Q 372 2147 372 2553 
Q 372 3047 722 3315 
Q 1072 3584 1716 3584 
Q 2034 3584 2315 3537 
Q 2597 3491 2834 3397 
z
" transform="scale(0.015625)"/>
      </defs>
      <use xlink:href="#DejaVuSans-69"/>
      <use xlink:href="#DejaVuSans-74" x="27.783203"/>
      <use xlink:href="#DejaVuSans-65" x="66.992188"/>
      <use xlink:href="#DejaVuSans-72" x="128.515625"/>
      <use xlink:href="#DejaVuSans-61" x="169.628906"/>
      <use xlink:href="#DejaVuSans-74" x="230.908203"/>
      <use xlink:href="#DejaVuSans-69" x="270.117188"/>
      <use xlink:href="#DejaVuSans-6f" x="297.900391"/>
      <use xlink:href="#DejaVuSans-6e" x="359.082031"/>
      <use xlink:href="#DejaVuSans-73" x="422.460938"/>
     </g>
    </g>
   </g>
   <g id="matplotlib.axis_2">
    <g id="ytick_1">
     <g id="line2d_7">
      <defs>
       <path id="meb3ddd6e24" d="M 0 0 
L -3.5 0 
" style="stroke: #000000; stroke-width: 0.8"/>
      </defs>
      <g>
       <use xlink:href="#meb3ddd6e24" x="92.490625" y="234.626549" style="stroke: #000000; stroke-width: 0.8"/>
      </g>
     </g>
     <g id="text_8">
      <!-- −200 -->
      <g transform="translate(30.55625 242.224987) scale(0.2 -0.2)">
       <defs>
        <path id="DejaVuSans-2212" d="M 678 2272 
L 4684 2272 
L 4684 1741 
L 678 1741 
L 678 2272 
z
" transform="scale(0.015625)"/>
       </defs>
       <use xlink:href="#DejaVuSans-2212"/>
       <use xlink:href="#DejaVuSans-32" x="83.789062"/>
       <use xlink:href="#DejaVuSans-30" x="147.412109"/>
       <use xlink:href="#DejaVuSans-30" x="211.035156"/>
      </g>
     </g>
    </g>
    <g id="ytick_2">
     <g id="line2d_8">
      <g>
       <use xlink:href="#meb3ddd6e24" x="92.490625" y="151.376755" style="stroke: #000000; stroke-width: 0.8"/>
      </g>
     </g>
     <g id="text_9">
      <!-- 0 -->
      <g transform="translate(72.765625 158.975193) scale(0.2 -0.2)">
       <use xlink:href="#DejaVuSans-30"/>
      </g>
     </g>
    </g>
    <g id="ytick_3">
     <g id="line2d_9">
      <g>
       <use xlink:href="#meb3ddd6e24" x="92.490625" y="68.126962" style="stroke: #000000; stroke-width: 0.8"/>
      </g>
     </g>
     <g id="text_10">
      <!-- 200 -->
      <g transform="translate(47.315625 75.725399) scale(0.2 -0.2)">
       <use xlink:href="#DejaVuSans-32"/>
       <use xlink:href="#DejaVuSans-30" x="63.623047"/>
       <use xlink:href="#DejaVuSans-30" x="127.246094"/>
      </g>
     </g>
    </g>
    <g id="text_11">
     <!-- Loss -->
     <g transform="translate(22.396875 191.970625) rotate(-90) scale(0.2 -0.2)">
      <defs>
       <path id="DejaVuSans-4c" d="M 628 4666 
L 1259 4666 
L 1259 531 
L 3531 531 
L 3531 0 
L 628 0 
L 628 4666 
z
" transform="scale(0.015625)"/>
      </defs>
      <use xlink:href="#DejaVuSans-4c"/>
      <use xlink:href="#DejaVuSans-6f" x="53.962891"/>
      <use xlink:href="#DejaVuSans-73" x="115.144531"/>
      <use xlink:href="#DejaVuSans-73" x="167.244141"/>
     </g>
    </g>
   </g>
   <g id="line2d_10">
    <path d="M 117.854261 114.726306 
L 119.883352 106.081918 
L 121.912443 66.645135 
L 123.941534 44.03625 
L 125.970625 55.607746 
L 127.999716 116.630126 
L 130.028807 138.664661 
L 132.057898 137.321124 
L 134.086989 122.741893 
L 136.11608 120.788415 
L 138.14517 127.999278 
L 140.174261 122.989826 
L 142.203352 108.458537 
L 144.232443 122.646974 
L 146.261534 126.556792 
L 148.290625 123.898785 
L 150.319716 120.201515 
L 152.348807 126.255443 
L 154.377898 122.797609 
L 156.406989 127.006439 
L 158.43608 118.64052 
L 160.46517 124.366742 
L 162.494261 117.662909 
L 164.523352 117.330772 
L 166.552443 114.695364 
L 168.581534 107.764658 
L 170.610625 108.435758 
L 172.639716 107.051208 
L 174.668807 106.219874 
L 176.697898 110.116506 
L 178.726989 106.40337 
L 180.75608 103.735206 
L 182.78517 107.114803 
L 184.814261 106.33327 
L 186.843352 103.507469 
L 188.872443 108.842958 
L 190.901534 102.920055 
L 192.930625 108.429686 
L 194.959716 110.936486 
L 196.988807 110.869457 
L 199.017898 106.939005 
L 201.046989 105.409875 
L 203.07608 110.445841 
L 205.10517 111.131011 
L 207.134261 113.912796 
L 209.163352 112.411065 
L 211.192443 111.591078 
L 213.221534 112.594274 
L 215.250625 115.130586 
L 217.279716 112.662515 
L 219.308807 111.560611 
L 221.337898 112.925905 
L 223.366989 108.346789 
L 225.39608 112.549272 
L 227.42517 114.58122 
L 229.454261 115.179402 
L 231.483352 119.262292 
L 233.512443 117.014571 
L 235.541534 116.380063 
L 237.570625 120.267786 
L 239.599716 120.37667 
L 241.628807 120.879402 
L 243.657898 120.548412 
L 245.686989 123.597646 
L 247.71608 123.431828 
L 249.74517 121.429234 
L 251.774261 122.560572 
L 253.803352 119.85272 
L 255.832443 118.694633 
L 259.890625 118.68102 
L 261.919716 118.119314 
L 263.948807 121.17012 
L 265.977898 119.147663 
L 268.006989 116.7473 
L 270.03608 113.297092 
L 272.06517 118.688744 
L 274.094261 120.343387 
L 276.123352 123.308616 
L 278.152443 120.224883 
L 280.181534 118.109455 
L 282.210625 120.364991 
L 284.239716 123.245243 
L 288.297898 118.407012 
L 290.326989 120.74258 
L 292.35608 122.653338 
L 294.38517 123.836576 
L 296.414261 125.744796 
L 298.443352 123.447651 
L 300.472443 128.318527 
L 302.501534 129.080516 
L 304.530625 128.830815 
L 306.559716 128.20745 
L 308.588807 128.76154 
L 310.617898 132.053196 
L 312.646989 133.596636 
L 314.67608 133.934515 
L 316.70517 135.141517 
L 318.734261 135.137063 
L 320.763352 134.780402 
L 322.792443 135.202134 
L 324.821534 135.093015 
L 326.850625 136.905242 
L 330.908807 142.399589 
L 332.937898 142.128559 
L 334.966989 142.779249 
L 336.99608 139.598641 
L 339.02517 140.408307 
L 341.054261 138.506123 
L 343.083352 139.937779 
L 345.112443 138.802053 
L 347.141534 137.3209 
L 349.170625 136.304856 
L 351.199716 135.089312 
L 353.228807 138.125691 
L 355.257898 137.931203 
L 357.286989 136.48173 
L 359.31608 135.887461 
L 361.34517 134.35985 
L 363.374261 133.177328 
L 365.403352 135.336782 
L 367.432443 134.894951 
L 369.461534 135.405771 
L 371.490625 135.395858 
L 373.519716 136.106534 
L 375.548807 138.160945 
L 379.606989 138.778501 
L 381.63608 139.328544 
L 383.66517 137.455284 
L 385.694261 138.146409 
L 387.723352 139.584531 
L 389.752443 139.54211 
L 391.781534 140.772087 
L 393.810625 139.328314 
L 395.839716 141.270704 
L 397.868807 139.912962 
L 399.897898 138.38691 
L 401.926989 138.267975 
L 403.95608 138.407029 
L 405.98517 138.064147 
L 408.014261 136.366411 
L 410.043352 136.725459 
L 412.072443 137.7051 
L 414.101534 136.859223 
L 416.130625 139.049001 
L 418.159716 137.336016 
L 420.188807 137.257625 
L 422.217898 138.794003 
L 424.246989 138.317046 
L 426.27608 138.127537 
L 428.30517 137.085883 
L 430.334261 140.357201 
L 432.363352 142.188057 
L 434.392443 140.211719 
L 436.421534 141.214973 
L 438.450625 140.469004 
L 440.479716 140.399257 
L 442.508807 137.341402 
L 444.537898 136.956775 
L 446.566989 138.004539 
L 448.59608 141.917493 
L 450.62517 141.394417 
L 452.654261 139.770456 
L 454.683352 138.757231 
L 456.712443 139.627896 
L 458.741534 141.258242 
L 460.770625 142.544043 
L 462.799716 142.319792 
L 464.828807 139.759331 
L 466.857898 140.416344 
L 468.886989 141.45395 
L 470.91608 141.363625 
L 472.94517 140.978604 
L 474.974261 142.910652 
L 477.003352 142.90158 
L 479.032443 144.549058 
L 481.061534 145.17122 
L 483.090625 145.44887 
L 485.119716 144.416339 
L 487.148807 144.947962 
L 489.177898 143.814591 
L 491.206989 145.207917 
L 493.23608 145.528567 
L 495.26517 144.861957 
L 497.294261 145.227471 
L 499.323352 144.527959 
L 501.352443 145.046411 
L 503.381534 146.68308 
L 505.410625 147.135187 
L 507.439716 145.32902 
L 509.468807 143.988933 
L 511.497898 145.81337 
L 513.526989 144.652605 
L 515.55608 145.491722 
L 517.58517 145.544312 
L 519.614261 146.479505 
L 521.643352 145.926367 
L 523.672443 146.569906 
L 525.701534 146.635087 
L 527.730625 145.762171 
L 529.759716 146.892018 
L 531.788807 148.983063 
L 533.817898 148.879743 
L 535.846989 147.783513 
L 537.87608 148.254067 
L 539.90517 147.888736 
L 541.934261 146.84581 
L 543.963352 146.202176 
L 545.992443 146.837467 
L 548.021534 146.997663 
L 552.079716 146.666794 
L 556.137898 146.848622 
L 558.166989 146.639285 
L 560.19608 145.433562 
L 562.22517 146.697151 
L 564.254261 146.488051 
L 566.283352 148.265055 
L 568.312443 147.613654 
L 570.341534 147.710403 
L 572.370625 147.419561 
L 574.399716 147.740517 
L 576.428807 146.590609 
L 580.486989 147.987777 
L 584.54517 148.092569 
L 586.574261 147.626153 
L 588.603352 148.346627 
L 590.632443 147.834075 
L 592.661534 146.928657 
L 594.690625 148.067958 
L 596.719716 147.258653 
L 598.748807 148.865305 
L 600.777898 148.410553 
L 602.806989 148.967358 
L 604.83608 149.221557 
L 606.86517 149.822095 
L 608.894261 148.406232 
L 610.923352 148.806973 
L 612.952443 148.539764 
L 614.981534 149.07262 
L 617.010625 148.908721 
L 619.039716 148.61838 
L 623.097898 149.440954 
L 625.126989 149.36957 
L 625.126989 149.36957 
" clip-path="url(#pa87ecad56c)" style="fill: none; stroke: #1f77b4; stroke-width: 1.5; stroke-linecap: square"/>
   </g>
   <g id="line2d_11">
    <path d="M 117.854261 257.658289 
L 119.883352 262.165711 
L 121.912443 291.943205 
L 123.941534 296.03625 
L 125.970625 284.397593 
L 127.999716 271.11781 
L 130.028807 227.057898 
L 132.057898 207.5709 
L 134.086989 203.182002 
L 136.11608 203.974264 
L 138.14517 211.845554 
L 140.174261 205.520858 
L 142.203352 201.196422 
L 144.232443 195.910364 
L 146.261534 195.703205 
L 148.290625 192.753227 
L 150.319716 197.401453 
L 152.348807 172.184989 
L 154.377898 172.103903 
L 156.406989 169.627321 
L 158.43608 171.510379 
L 160.46517 166.488463 
L 162.494261 169.662831 
L 164.523352 167.766312 
L 166.552443 168.409239 
L 168.581534 168.391562 
L 170.610625 165.287616 
L 172.639716 166.881572 
L 174.668807 166.794035 
L 176.697898 165.094572 
L 178.726989 166.165148 
L 180.75608 165.451608 
L 182.78517 164.010929 
L 184.814261 163.25549 
L 186.843352 164.862355 
L 188.872443 163.978923 
L 190.901534 163.485609 
L 194.959716 161.702402 
L 196.988807 160.420844 
L 199.017898 164.815428 
L 201.046989 163.952454 
L 203.07608 162.432016 
L 205.10517 163.099974 
L 207.134261 162.512979 
L 209.163352 162.265303 
L 211.192443 163.58709 
L 213.221534 161.410305 
L 215.250625 162.710343 
L 217.279716 161.565435 
L 219.308807 161.16584 
L 221.337898 161.539059 
L 223.366989 162.557454 
L 225.39608 161.171452 
L 227.42517 161.384449 
L 229.454261 160.92679 
L 231.483352 160.831448 
L 235.541534 161.328739 
L 237.570625 161.196216 
L 239.599716 161.194354 
L 241.628807 161.482621 
L 243.657898 161.201429 
L 245.686989 159.7919 
L 247.71608 160.884693 
L 249.74517 160.064798 
L 251.774261 160.550759 
L 253.803352 162.077185 
L 255.832443 163.054654 
L 257.861534 160.376997 
L 259.890625 163.420413 
L 261.919716 160.81798 
L 263.948807 160.706714 
L 265.977898 161.975153 
L 268.006989 162.97898 
L 270.03608 161.428681 
L 272.06517 160.805188 
L 274.094261 160.440512 
L 276.123352 160.193846 
L 278.152443 161.309852 
L 280.181534 162.631121 
L 282.210625 161.251941 
L 284.239716 159.442412 
L 286.268807 161.834268 
L 288.297898 161.591212 
L 290.326989 160.94865 
L 292.35608 161.58259 
L 294.38517 161.661909 
L 296.414261 162.60633 
L 300.472443 161.360388 
L 304.530625 161.703732 
L 306.559716 160.981433 
L 310.617898 161.378065 
L 314.67608 159.80897 
L 316.70517 160.21275 
L 318.734261 160.462935 
L 320.763352 161.088266 
L 324.821534 161.389012 
L 326.850625 160.004467 
L 328.879716 161.423814 
L 330.908807 161.588497 
L 332.937898 160.70362 
L 334.966989 161.311015 
L 336.99608 162.288528 
L 339.02517 161.574032 
L 341.054261 162.933584 
L 343.083352 162.761098 
L 345.112443 161.823109 
L 347.141534 163.255695 
L 349.170625 162.48772 
L 351.199716 162.510713 
L 353.228807 162.845991 
L 355.257898 162.220304 
L 357.286989 162.518876 
L 359.31608 163.464852 
L 361.34517 164.100062 
L 363.374261 161.71733 
L 365.403352 160.953926 
L 367.432443 162.188098 
L 371.490625 161.382858 
L 373.519716 162.157181 
L 375.548807 162.385889 
L 377.577898 160.804717 
L 379.606989 161.59229 
L 381.63608 161.478432 
L 383.66517 161.686822 
L 385.694261 162.509587 
L 387.723352 161.135064 
L 389.752443 161.60804 
L 391.781534 162.642114 
L 393.810625 163.370876 
L 395.839716 161.109782 
L 397.868807 153.752785 
L 399.897898 154.884893 
L 401.926989 154.642952 
L 403.95608 156.15602 
L 405.98517 156.257159 
L 408.014261 154.933457 
L 410.043352 156.047679 
L 412.072443 156.254787 
L 414.101534 157.181505 
L 416.130625 156.53724 
L 418.159716 156.437924 
L 420.188807 156.791371 
L 422.217898 156.526013 
L 424.246989 156.899174 
L 426.27608 156.612682 
L 428.30517 155.971204 
L 430.334261 156.374247 
L 434.392443 156.676973 
L 436.421534 156.380954 
L 438.450625 156.744293 
L 440.479716 156.508302 
L 444.537898 156.742195 
L 446.566989 156.015266 
L 448.59608 156.667905 
L 452.654261 156.571618 
L 454.683352 156.876875 
L 456.712443 157.011189 
L 460.770625 156.562438 
L 462.799716 157.11912 
L 464.828807 157.288222 
L 466.857898 156.918805 
L 468.886989 156.340906 
L 470.91608 157.068537 
L 472.94517 156.310565 
L 477.003352 155.798621 
L 479.032443 156.372213 
L 481.061534 156.620934 
L 483.090625 156.340232 
L 485.119716 155.934658 
L 487.148807 155.997717 
L 489.177898 156.237635 
L 491.206989 156.252845 
L 493.23608 155.534283 
L 495.26517 156.106492 
L 497.294261 155.971055 
L 499.323352 155.262929 
L 501.352443 155.565248 
L 503.381534 155.523103 
L 505.410625 155.801346 
L 507.439716 156.566333 
L 509.468807 156.216639 
L 511.497898 156.133157 
L 513.526989 155.391582 
L 515.55608 155.66232 
L 517.58517 156.145638 
L 519.614261 155.672539 
L 521.643352 155.874484 
L 523.672443 155.743108 
L 525.701534 156.238413 
L 527.730625 155.989438 
L 529.759716 156.156793 
L 531.788807 156.440338 
L 535.846989 155.672807 
L 537.87608 155.631246 
L 539.90517 155.827528 
L 541.934261 156.184732 
L 543.963352 155.693904 
L 545.992443 156.168457 
L 548.021534 156.299126 
L 550.050625 155.762169 
L 554.108807 156.752607 
L 556.137898 155.909613 
L 558.166989 156.437744 
L 562.22517 156.503263 
L 564.254261 156.287067 
L 566.283352 156.348738 
L 568.312443 156.141802 
L 570.341534 156.48928 
L 572.370625 155.958175 
L 574.399716 155.93672 
L 576.428807 156.125692 
L 578.457898 156.556642 
L 580.486989 156.08584 
L 582.51608 155.853602 
L 584.54517 156.224566 
L 588.603352 155.977781 
L 590.632443 156.594103 
L 592.661534 155.667991 
L 596.719716 156.37959 
L 598.748807 156.129236 
L 600.777898 156.608581 
L 602.806989 155.852199 
L 604.83608 155.933841 
L 606.86517 155.823862 
L 608.894261 156.261902 
L 610.923352 156.217012 
L 612.952443 156.433896 
L 614.981534 156.219792 
L 617.010625 156.336659 
L 619.039716 156.096349 
L 621.068807 156.14078 
L 623.097898 156.421176 
L 625.126989 156.319825 
L 625.126989 156.319825 
" clip-path="url(#pa87ecad56c)" style="fill: none; stroke: #ff7f0e; stroke-width: 1.5; stroke-linecap: square"/>
   </g>
   <g id="patch_3">
    <path d="M 92.490625 308.63625 
L 92.490625 31.43625 
" style="fill: none; stroke: #000000; stroke-width: 0.8; stroke-linejoin: miter; stroke-linecap: square"/>
   </g>
   <g id="patch_4">
    <path d="M 650.490625 308.63625 
L 650.490625 31.43625 
" style="fill: none; stroke: #000000; stroke-width: 0.8; stroke-linejoin: miter; stroke-linecap: square"/>
   </g>
   <g id="patch_5">
    <path d="M 92.490625 308.63625 
L 650.490625 308.63625 
" style="fill: none; stroke: #000000; stroke-width: 0.8; stroke-linejoin: miter; stroke-linecap: square"/>
   </g>
   <g id="patch_6">
    <path d="M 92.490625 31.43625 
L 650.490625 31.43625 
" style="fill: none; stroke: #000000; stroke-width: 0.8; stroke-linejoin: miter; stroke-linecap: square"/>
   </g>
   <g id="text_12">
    <!-- Generator and Discriminator Loss During Training -->
    <g transform="translate(74.258125 25.43625) scale(0.24 -0.24)">
     <defs>
      <path id="DejaVuSans-47" d="M 3809 666 
L 3809 1919 
L 2778 1919 
L 2778 2438 
L 4434 2438 
L 4434 434 
Q 4069 175 3628 42 
Q 3188 -91 2688 -91 
Q 1594 -91 976 548 
Q 359 1188 359 2328 
Q 359 3472 976 4111 
Q 1594 4750 2688 4750 
Q 3144 4750 3555 4637 
Q 3966 4525 4313 4306 
L 4313 3634 
Q 3963 3931 3569 4081 
Q 3175 4231 2741 4231 
Q 1884 4231 1454 3753 
Q 1025 3275 1025 2328 
Q 1025 1384 1454 906 
Q 1884 428 2741 428 
Q 3075 428 3337 486 
Q 3600 544 3809 666 
z
" transform="scale(0.015625)"/>
      <path id="DejaVuSans-20" transform="scale(0.015625)"/>
      <path id="DejaVuSans-64" d="M 2906 2969 
L 2906 4863 
L 3481 4863 
L 3481 0 
L 2906 0 
L 2906 525 
Q 2725 213 2448 61 
Q 2172 -91 1784 -91 
Q 1150 -91 751 415 
Q 353 922 353 1747 
Q 353 2572 751 3078 
Q 1150 3584 1784 3584 
Q 2172 3584 2448 3432 
Q 2725 3281 2906 2969 
z
M 947 1747 
Q 947 1113 1208 752 
Q 1469 391 1925 391 
Q 2381 391 2643 752 
Q 2906 1113 2906 1747 
Q 2906 2381 2643 2742 
Q 2381 3103 1925 3103 
Q 1469 3103 1208 2742 
Q 947 2381 947 1747 
z
" transform="scale(0.015625)"/>
      <path id="DejaVuSans-44" d="M 1259 4147 
L 1259 519 
L 2022 519 
Q 2988 519 3436 956 
Q 3884 1394 3884 2338 
Q 3884 3275 3436 3711 
Q 2988 4147 2022 4147 
L 1259 4147 
z
M 628 4666 
L 1925 4666 
Q 3281 4666 3915 4102 
Q 4550 3538 4550 2338 
Q 4550 1131 3912 565 
Q 3275 0 1925 0 
L 628 0 
L 628 4666 
z
" transform="scale(0.015625)"/>
      <path id="DejaVuSans-63" d="M 3122 3366 
L 3122 2828 
Q 2878 2963 2633 3030 
Q 2388 3097 2138 3097 
Q 1578 3097 1268 2742 
Q 959 2388 959 1747 
Q 959 1106 1268 751 
Q 1578 397 2138 397 
Q 2388 397 2633 464 
Q 2878 531 3122 666 
L 3122 134 
Q 2881 22 2623 -34 
Q 2366 -91 2075 -91 
Q 1284 -91 818 406 
Q 353 903 353 1747 
Q 353 2603 823 3093 
Q 1294 3584 2113 3584 
Q 2378 3584 2631 3529 
Q 2884 3475 3122 3366 
z
" transform="scale(0.015625)"/>
      <path id="DejaVuSans-6d" d="M 3328 2828 
Q 3544 3216 3844 3400 
Q 4144 3584 4550 3584 
Q 5097 3584 5394 3201 
Q 5691 2819 5691 2113 
L 5691 0 
L 5113 0 
L 5113 2094 
Q 5113 2597 4934 2840 
Q 4756 3084 4391 3084 
Q 3944 3084 3684 2787 
Q 3425 2491 3425 1978 
L 3425 0 
L 2847 0 
L 2847 2094 
Q 2847 2600 2669 2842 
Q 2491 3084 2119 3084 
Q 1678 3084 1418 2786 
Q 1159 2488 1159 1978 
L 1159 0 
L 581 0 
L 581 3500 
L 1159 3500 
L 1159 2956 
Q 1356 3278 1631 3431 
Q 1906 3584 2284 3584 
Q 2666 3584 2933 3390 
Q 3200 3197 3328 2828 
z
" transform="scale(0.015625)"/>
      <path id="DejaVuSans-75" d="M 544 1381 
L 544 3500 
L 1119 3500 
L 1119 1403 
Q 1119 906 1312 657 
Q 1506 409 1894 409 
Q 2359 409 2629 706 
Q 2900 1003 2900 1516 
L 2900 3500 
L 3475 3500 
L 3475 0 
L 2900 0 
L 2900 538 
Q 2691 219 2414 64 
Q 2138 -91 1772 -91 
Q 1169 -91 856 284 
Q 544 659 544 1381 
z
M 1991 3584 
L 1991 3584 
z
" transform="scale(0.015625)"/>
      <path id="DejaVuSans-67" d="M 2906 1791 
Q 2906 2416 2648 2759 
Q 2391 3103 1925 3103 
Q 1463 3103 1205 2759 
Q 947 2416 947 1791 
Q 947 1169 1205 825 
Q 1463 481 1925 481 
Q 2391 481 2648 825 
Q 2906 1169 2906 1791 
z
M 3481 434 
Q 3481 -459 3084 -895 
Q 2688 -1331 1869 -1331 
Q 1566 -1331 1297 -1286 
Q 1028 -1241 775 -1147 
L 775 -588 
Q 1028 -725 1275 -790 
Q 1522 -856 1778 -856 
Q 2344 -856 2625 -561 
Q 2906 -266 2906 331 
L 2906 616 
Q 2728 306 2450 153 
Q 2172 0 1784 0 
Q 1141 0 747 490 
Q 353 981 353 1791 
Q 353 2603 747 3093 
Q 1141 3584 1784 3584 
Q 2172 3584 2450 3431 
Q 2728 3278 2906 2969 
L 2906 3500 
L 3481 3500 
L 3481 434 
z
" transform="scale(0.015625)"/>
      <path id="DejaVuSans-54" d="M -19 4666 
L 3928 4666 
L 3928 4134 
L 2272 4134 
L 2272 0 
L 1638 0 
L 1638 4134 
L -19 4134 
L -19 4666 
z
" transform="scale(0.015625)"/>
     </defs>
     <use xlink:href="#DejaVuSans-47"/>
     <use xlink:href="#DejaVuSans-65" x="77.490234"/>
     <use xlink:href="#DejaVuSans-6e" x="139.013672"/>
     <use xlink:href="#DejaVuSans-65" x="202.392578"/>
     <use xlink:href="#DejaVuSans-72" x="263.916016"/>
     <use xlink:href="#DejaVuSans-61" x="305.029297"/>
     <use xlink:href="#DejaVuSans-74" x="366.308594"/>
     <use xlink:href="#DejaVuSans-6f" x="405.517578"/>
     <use xlink:href="#DejaVuSans-72" x="466.699219"/>
     <use xlink:href="#DejaVuSans-20" x="507.8125"/>
     <use xlink:href="#DejaVuSans-61" x="539.599609"/>
     <use xlink:href="#DejaVuSans-6e" x="600.878906"/>
     <use xlink:href="#DejaVuSans-64" x="664.257812"/>
     <use xlink:href="#DejaVuSans-20" x="727.734375"/>
     <use xlink:href="#DejaVuSans-44" x="759.521484"/>
     <use xlink:href="#DejaVuSans-69" x="836.523438"/>
     <use xlink:href="#DejaVuSans-73" x="864.306641"/>
     <use xlink:href="#DejaVuSans-63" x="916.40625"/>
     <use xlink:href="#DejaVuSans-72" x="971.386719"/>
     <use xlink:href="#DejaVuSans-69" x="1012.5"/>
     <use xlink:href="#DejaVuSans-6d" x="1040.283203"/>
     <use xlink:href="#DejaVuSans-69" x="1137.695312"/>
     <use xlink:href="#DejaVuSans-6e" x="1165.478516"/>
     <use xlink:href="#DejaVuSans-61" x="1228.857422"/>
     <use xlink:href="#DejaVuSans-74" x="1290.136719"/>
     <use xlink:href="#DejaVuSans-6f" x="1329.345703"/>
     <use xlink:href="#DejaVuSans-72" x="1390.527344"/>
     <use xlink:href="#DejaVuSans-20" x="1431.640625"/>
     <use xlink:href="#DejaVuSans-4c" x="1463.427734"/>
     <use xlink:href="#DejaVuSans-6f" x="1517.390625"/>
     <use xlink:href="#DejaVuSans-73" x="1578.572266"/>
     <use xlink:href="#DejaVuSans-73" x="1630.671875"/>
     <use xlink:href="#DejaVuSans-20" x="1682.771484"/>
     <use xlink:href="#DejaVuSans-44" x="1714.558594"/>
     <use xlink:href="#DejaVuSans-75" x="1791.560547"/>
     <use xlink:href="#DejaVuSans-72" x="1854.939453"/>
     <use xlink:href="#DejaVuSans-69" x="1896.052734"/>
     <use xlink:href="#DejaVuSans-6e" x="1923.835938"/>
     <use xlink:href="#DejaVuSans-67" x="1987.214844"/>
     <use xlink:href="#DejaVuSans-20" x="2050.691406"/>
     <use xlink:href="#DejaVuSans-54" x="2082.478516"/>
     <use xlink:href="#DejaVuSans-72" x="2128.8125"/>
     <use xlink:href="#DejaVuSans-61" x="2169.925781"/>
     <use xlink:href="#DejaVuSans-69" x="2231.205078"/>
     <use xlink:href="#DejaVuSans-6e" x="2258.988281"/>
     <use xlink:href="#DejaVuSans-69" x="2322.367188"/>
     <use xlink:href="#DejaVuSans-6e" x="2350.150391"/>
     <use xlink:href="#DejaVuSans-67" x="2413.529297"/>
    </g>
   </g>
   <g id="legend_1">
    <g id="patch_7">
     <path d="M 556.99375 106.14875 
L 636.490625 106.14875 
Q 640.490625 106.14875 640.490625 102.14875 
L 640.490625 45.43625 
Q 640.490625 41.43625 636.490625 41.43625 
L 556.99375 41.43625 
Q 552.99375 41.43625 552.99375 45.43625 
L 552.99375 102.14875 
Q 552.99375 106.14875 556.99375 106.14875 
z
" style="fill: #ffffff; opacity: 0.8; stroke: #cccccc; stroke-linejoin: miter"/>
    </g>
    <g id="line2d_12">
     <path d="M 560.99375 57.633125 
L 580.99375 57.633125 
L 600.99375 57.633125 
" style="fill: none; stroke: #1f77b4; stroke-width: 1.5; stroke-linecap: square"/>
    </g>
    <g id="text_13">
     <!-- G -->
     <g transform="translate(616.99375 64.633125) scale(0.2 -0.2)">
      <use xlink:href="#DejaVuSans-47"/>
     </g>
    </g>
    <g id="line2d_13">
     <path d="M 560.99375 86.989375 
L 580.99375 86.989375 
L 600.99375 86.989375 
" style="fill: none; stroke: #ff7f0e; stroke-width: 1.5; stroke-linecap: square"/>
    </g>
    <g id="text_14">
     <!-- D -->
     <g transform="translate(616.99375 93.989375) scale(0.2 -0.2)">
      <use xlink:href="#DejaVuSans-44"/>
     </g>
    </g>
   </g>
  </g>
 </g>
 <defs>
  <clipPath id="pa87ecad56c">
   <rect x="92.490625" y="31.43625" width="558" height="277.2"/>
  </clipPath>
 </defs>
</svg>
