<?xml version="1.0" encoding="utf-8" standalone="no"?>
<!DOCTYPE svg PUBLIC "-//W3C//DTD SVG 1.1//EN"
  "http://www.w3.org/Graphics/SVG/1.1/DTD/svg11.dtd">
<svg xmlns:xlink="http://www.w3.org/1999/xlink" width="675.923125pt" height="365.54875pt" viewBox="0 0 675.923125 365.54875" xmlns="http://www.w3.org/2000/svg" version="1.1">
 <metadata>
  <rdf:RDF xmlns:dc="http://purl.org/dc/elements/1.1/" xmlns:cc="http://creativecommons.org/ns#" xmlns:rdf="http://www.w3.org/1999/02/22-rdf-syntax-ns#">
   <cc:Work>
    <dc:type rdf:resource="http://purl.org/dc/dcmitype/StillImage"/>
    <dc:date>2024-02-01T21:09:58.265258</dc:date>
    <dc:format>image/svg+xml</dc:format>
    <dc:creator>
     <cc:Agent>
      <dc:title>Matplotlib v3.7.2, https://matplotlib.org/</dc:title>
     </cc:Agent>
    </dc:creator>
   </cc:Work>
  </rdf:RDF>
 </metadata>
 <defs>
  <style type="text/css">*{stroke-linejoin: round; stroke-linecap: butt}</style>
 </defs>
 <g id="figure_1">
  <g id="patch_1">
   <path d="M 0 365.54875 
L 675.923125 365.54875 
L 675.923125 -0 
L 0 -0 
z
" style="fill: #ffffff"/>
  </g>
  <g id="axes_1">
   <g id="patch_2">
    <path d="M 92.490625 308.63625 
L 650.490625 308.63625 
L 650.490625 31.43625 
L 92.490625 31.43625 
z
" style="fill: #ffffff"/>
   </g>
   <g id="matplotlib.axis_1">
    <g id="xtick_1">
     <g id="line2d_1">
      <defs>
       <path id="mc3fb7b3b6e" d="M 0 0 
L 0 3.5 
" style="stroke: #000000; stroke-width: 0.8"/>
      </defs>
      <g>
       <use xlink:href="#mc3fb7b3b6e" x="117.854261" y="308.63625" style="stroke: #000000; stroke-width: 0.8"/>
      </g>
     </g>
     <g id="text_1">
      <!-- 0 -->
      <g transform="translate(111.491761 330.833125) scale(0.2 -0.2)">
       <defs>
        <path id="DejaVuSans-30" d="M 2034 4250 
Q 1547 4250 1301 3770 
Q 1056 3291 1056 2328 
Q 1056 1369 1301 889 
Q 1547 409 2034 409 
Q 2525 409 2770 889 
Q 3016 1369 3016 2328 
Q 3016 3291 2770 3770 
Q 2525 4250 2034 4250 
z
M 2034 4750 
Q 2819 4750 3233 4129 
Q 3647 3509 3647 2328 
Q 3647 1150 3233 529 
Q 2819 -91 2034 -91 
Q 1250 -91 836 529 
Q 422 1150 422 2328 
Q 422 3509 836 4129 
Q 1250 4750 2034 4750 
z
" transform="scale(0.015625)"/>
       </defs>
       <use xlink:href="#DejaVuSans-30"/>
      </g>
     </g>
    </g>
    <g id="xtick_2">
     <g id="line2d_2">
      <g>
       <use xlink:href="#mc3fb7b3b6e" x="214.477638" y="308.63625" style="stroke: #000000; stroke-width: 0.8"/>
      </g>
     </g>
     <g id="text_2">
      <!-- 200 -->
      <g transform="translate(195.390138 330.833125) scale(0.2 -0.2)">
       <defs>
        <path id="DejaVuSans-32" d="M 1228 531 
L 3431 531 
L 3431 0 
L 469 0 
L 469 531 
Q 828 903 1448 1529 
Q 2069 2156 2228 2338 
Q 2531 2678 2651 2914 
Q 2772 3150 2772 3378 
Q 2772 3750 2511 3984 
Q 2250 4219 1831 4219 
Q 1534 4219 1204 4116 
Q 875 4013 500 3803 
L 500 4441 
Q 881 4594 1212 4672 
Q 1544 4750 1819 4750 
Q 2544 4750 2975 4387 
Q 3406 4025 3406 3419 
Q 3406 3131 3298 2873 
Q 3191 2616 2906 2266 
Q 2828 2175 2409 1742 
Q 1991 1309 1228 531 
z
" transform="scale(0.015625)"/>
       </defs>
       <use xlink:href="#DejaVuSans-32"/>
       <use xlink:href="#DejaVuSans-30" x="63.623047"/>
       <use xlink:href="#DejaVuSans-30" x="127.246094"/>
      </g>
     </g>
    </g>
    <g id="xtick_3">
     <g id="line2d_3">
      <g>
       <use xlink:href="#mc3fb7b3b6e" x="311.101015" y="308.63625" style="stroke: #000000; stroke-width: 0.8"/>
      </g>
     </g>
     <g id="text_3">
      <!-- 400 -->
      <g transform="translate(292.013515 330.833125) scale(0.2 -0.2)">
       <defs>
        <path id="DejaVuSans-34" d="M 2419 4116 
L 825 1625 
L 2419 1625 
L 2419 4116 
z
M 2253 4666 
L 3047 4666 
L 3047 1625 
L 3713 1625 
L 3713 1100 
L 3047 1100 
L 3047 0 
L 2419 0 
L 2419 1100 
L 313 1100 
L 313 1709 
L 2253 4666 
z
" transform="scale(0.015625)"/>
       </defs>
       <use xlink:href="#DejaVuSans-34"/>
       <use xlink:href="#DejaVuSans-30" x="63.623047"/>
       <use xlink:href="#DejaVuSans-30" x="127.246094"/>
      </g>
     </g>
    </g>
    <g id="xtick_4">
     <g id="line2d_4">
      <g>
       <use xlink:href="#mc3fb7b3b6e" x="407.724391" y="308.63625" style="stroke: #000000; stroke-width: 0.8"/>
      </g>
     </g>
     <g id="text_4">
      <!-- 600 -->
      <g transform="translate(388.636891 330.833125) scale(0.2 -0.2)">
       <defs>
        <path id="DejaVuSans-36" d="M 2113 2584 
Q 1688 2584 1439 2293 
Q 1191 2003 1191 1497 
Q 1191 994 1439 701 
Q 1688 409 2113 409 
Q 2538 409 2786 701 
Q 3034 994 3034 1497 
Q 3034 2003 2786 2293 
Q 2538 2584 2113 2584 
z
M 3366 4563 
L 3366 3988 
Q 3128 4100 2886 4159 
Q 2644 4219 2406 4219 
Q 1781 4219 1451 3797 
Q 1122 3375 1075 2522 
Q 1259 2794 1537 2939 
Q 1816 3084 2150 3084 
Q 2853 3084 3261 2657 
Q 3669 2231 3669 1497 
Q 3669 778 3244 343 
Q 2819 -91 2113 -91 
Q 1303 -91 875 529 
Q 447 1150 447 2328 
Q 447 3434 972 4092 
Q 1497 4750 2381 4750 
Q 2619 4750 2861 4703 
Q 3103 4656 3366 4563 
z
" transform="scale(0.015625)"/>
       </defs>
       <use xlink:href="#DejaVuSans-36"/>
       <use xlink:href="#DejaVuSans-30" x="63.623047"/>
       <use xlink:href="#DejaVuSans-30" x="127.246094"/>
      </g>
     </g>
    </g>
    <g id="xtick_5">
     <g id="line2d_5">
      <g>
       <use xlink:href="#mc3fb7b3b6e" x="504.347768" y="308.63625" style="stroke: #000000; stroke-width: 0.8"/>
      </g>
     </g>
     <g id="text_5">
      <!-- 800 -->
      <g transform="translate(485.260268 330.833125) scale(0.2 -0.2)">
       <defs>
        <path id="DejaVuSans-38" d="M 2034 2216 
Q 1584 2216 1326 1975 
Q 1069 1734 1069 1313 
Q 1069 891 1326 650 
Q 1584 409 2034 409 
Q 2484 409 2743 651 
Q 3003 894 3003 1313 
Q 3003 1734 2745 1975 
Q 2488 2216 2034 2216 
z
M 1403 2484 
Q 997 2584 770 2862 
Q 544 3141 544 3541 
Q 544 4100 942 4425 
Q 1341 4750 2034 4750 
Q 2731 4750 3128 4425 
Q 3525 4100 3525 3541 
Q 3525 3141 3298 2862 
Q 3072 2584 2669 2484 
Q 3125 2378 3379 2068 
Q 3634 1759 3634 1313 
Q 3634 634 3220 271 
Q 2806 -91 2034 -91 
Q 1263 -91 848 271 
Q 434 634 434 1313 
Q 434 1759 690 2068 
Q 947 2378 1403 2484 
z
M 1172 3481 
Q 1172 3119 1398 2916 
Q 1625 2713 2034 2713 
Q 2441 2713 2670 2916 
Q 2900 3119 2900 3481 
Q 2900 3844 2670 4047 
Q 2441 4250 2034 4250 
Q 1625 4250 1398 4047 
Q 1172 3844 1172 3481 
z
" transform="scale(0.015625)"/>
       </defs>
       <use xlink:href="#DejaVuSans-38"/>
       <use xlink:href="#DejaVuSans-30" x="63.623047"/>
       <use xlink:href="#DejaVuSans-30" x="127.246094"/>
      </g>
     </g>
    </g>
    <g id="xtick_6">
     <g id="line2d_6">
      <g>
       <use xlink:href="#mc3fb7b3b6e" x="600.971144" y="308.63625" style="stroke: #000000; stroke-width: 0.8"/>
      </g>
     </g>
     <g id="text_6">
      <!-- 1000 -->
      <g transform="translate(575.521144 330.833125) scale(0.2 -0.2)">
       <defs>
        <path id="DejaVuSans-31" d="M 794 531 
L 1825 531 
L 1825 4091 
L 703 3866 
L 703 4441 
L 1819 4666 
L 2450 4666 
L 2450 531 
L 3481 531 
L 3481 0 
L 794 0 
L 794 531 
z
" transform="scale(0.015625)"/>
       </defs>
       <use xlink:href="#DejaVuSans-31"/>
       <use xlink:href="#DejaVuSans-30" x="63.623047"/>
       <use xlink:href="#DejaVuSans-30" x="127.246094"/>
       <use xlink:href="#DejaVuSans-30" x="190.869141"/>
      </g>
     </g>
    </g>
    <g id="text_7">
     <!-- iterations -->
     <g transform="translate(324.035938 354.189375) scale(0.2 -0.2)">
      <defs>
       <path id="DejaVuSans-69" d="M 603 3500 
L 1178 3500 
L 1178 0 
L 603 0 
L 603 3500 
z
M 603 4863 
L 1178 4863 
L 1178 4134 
L 603 4134 
L 603 4863 
z
" transform="scale(0.015625)"/>
       <path id="DejaVuSans-74" d="M 1172 4494 
L 1172 3500 
L 2356 3500 
L 2356 3053 
L 1172 3053 
L 1172 1153 
Q 1172 725 1289 603 
Q 1406 481 1766 481 
L 2356 481 
L 2356 0 
L 1766 0 
Q 1100 0 847 248 
Q 594 497 594 1153 
L 594 3053 
L 172 3053 
L 172 3500 
L 594 3500 
L 594 4494 
L 1172 4494 
z
" transform="scale(0.015625)"/>
       <path id="DejaVuSans-65" d="M 3597 1894 
L 3597 1613 
L 953 1613 
Q 991 1019 1311 708 
Q 1631 397 2203 397 
Q 2534 397 2845 478 
Q 3156 559 3463 722 
L 3463 178 
Q 3153 47 2828 -22 
Q 2503 -91 2169 -91 
Q 1331 -91 842 396 
Q 353 884 353 1716 
Q 353 2575 817 3079 
Q 1281 3584 2069 3584 
Q 2775 3584 3186 3129 
Q 3597 2675 3597 1894 
z
M 3022 2063 
Q 3016 2534 2758 2815 
Q 2500 3097 2075 3097 
Q 1594 3097 1305 2825 
Q 1016 2553 972 2059 
L 3022 2063 
z
" transform="scale(0.015625)"/>
       <path id="DejaVuSans-72" d="M 2631 2963 
Q 2534 3019 2420 3045 
Q 2306 3072 2169 3072 
Q 1681 3072 1420 2755 
Q 1159 2438 1159 1844 
L 1159 0 
L 581 0 
L 581 3500 
L 1159 3500 
L 1159 2956 
Q 1341 3275 1631 3429 
Q 1922 3584 2338 3584 
Q 2397 3584 2469 3576 
Q 2541 3569 2628 3553 
L 2631 2963 
z
" transform="scale(0.015625)"/>
       <path id="DejaVuSans-61" d="M 2194 1759 
Q 1497 1759 1228 1600 
Q 959 1441 959 1056 
Q 959 750 1161 570 
Q 1363 391 1709 391 
Q 2188 391 2477 730 
Q 2766 1069 2766 1631 
L 2766 1759 
L 2194 1759 
z
M 3341 1997 
L 3341 0 
L 2766 0 
L 2766 531 
Q 2569 213 2275 61 
Q 1981 -91 1556 -91 
Q 1019 -91 701 211 
Q 384 513 384 1019 
Q 384 1609 779 1909 
Q 1175 2209 1959 2209 
L 2766 2209 
L 2766 2266 
Q 2766 2663 2505 2880 
Q 2244 3097 1772 3097 
Q 1472 3097 1187 3025 
Q 903 2953 641 2809 
L 641 3341 
Q 956 3463 1253 3523 
Q 1550 3584 1831 3584 
Q 2591 3584 2966 3190 
Q 3341 2797 3341 1997 
z
" transform="scale(0.015625)"/>
       <path id="DejaVuSans-6f" d="M 1959 3097 
Q 1497 3097 1228 2736 
Q 959 2375 959 1747 
Q 959 1119 1226 758 
Q 1494 397 1959 397 
Q 2419 397 2687 759 
Q 2956 1122 2956 1747 
Q 2956 2369 2687 2733 
Q 2419 3097 1959 3097 
z
M 1959 3584 
Q 2709 3584 3137 3096 
Q 3566 2609 3566 1747 
Q 3566 888 3137 398 
Q 2709 -91 1959 -91 
Q 1206 -91 779 398 
Q 353 888 353 1747 
Q 353 2609 779 3096 
Q 1206 3584 1959 3584 
z
" transform="scale(0.015625)"/>
       <path id="DejaVuSans-6e" d="M 3513 2113 
L 3513 0 
L 2938 0 
L 2938 2094 
Q 2938 2591 2744 2837 
Q 2550 3084 2163 3084 
Q 1697 3084 1428 2787 
Q 1159 2491 1159 1978 
L 1159 0 
L 581 0 
L 581 3500 
L 1159 3500 
L 1159 2956 
Q 1366 3272 1645 3428 
Q 1925 3584 2291 3584 
Q 2894 3584 3203 3211 
Q 3513 2838 3513 2113 
z
" transform="scale(0.015625)"/>
       <path id="DejaVuSans-73" d="M 2834 3397 
L 2834 2853 
Q 2591 2978 2328 3040 
Q 2066 3103 1784 3103 
Q 1356 3103 1142 2972 
Q 928 2841 928 2578 
Q 928 2378 1081 2264 
Q 1234 2150 1697 2047 
L 1894 2003 
Q 2506 1872 2764 1633 
Q 3022 1394 3022 966 
Q 3022 478 2636 193 
Q 2250 -91 1575 -91 
Q 1294 -91 989 -36 
Q 684 19 347 128 
L 347 722 
Q 666 556 975 473 
Q 1284 391 1588 391 
Q 1994 391 2212 530 
Q 2431 669 2431 922 
Q 2431 1156 2273 1281 
Q 2116 1406 1581 1522 
L 1381 1569 
Q 847 1681 609 1914 
Q 372 2147 372 2553 
Q 372 3047 722 3315 
Q 1072 3584 1716 3584 
Q 2034 3584 2315 3537 
Q 2597 3491 2834 3397 
z
" transform="scale(0.015625)"/>
      </defs>
      <use xlink:href="#DejaVuSans-69"/>
      <use xlink:href="#DejaVuSans-74" x="27.783203"/>
      <use xlink:href="#DejaVuSans-65" x="66.992188"/>
      <use xlink:href="#DejaVuSans-72" x="128.515625"/>
      <use xlink:href="#DejaVuSans-61" x="169.628906"/>
      <use xlink:href="#DejaVuSans-74" x="230.908203"/>
      <use xlink:href="#DejaVuSans-69" x="270.117188"/>
      <use xlink:href="#DejaVuSans-6f" x="297.900391"/>
      <use xlink:href="#DejaVuSans-6e" x="359.082031"/>
      <use xlink:href="#DejaVuSans-73" x="422.460938"/>
     </g>
    </g>
   </g>
   <g id="matplotlib.axis_2">
    <g id="ytick_1">
     <g id="line2d_7">
      <defs>
       <path id="mc314c79865" d="M 0 0 
L -3.5 0 
" style="stroke: #000000; stroke-width: 0.8"/>
      </defs>
      <g>
       <use xlink:href="#mc314c79865" x="92.490625" y="234.626549" style="stroke: #000000; stroke-width: 0.8"/>
      </g>
     </g>
     <g id="text_8">
      <!-- −200 -->
      <g transform="translate(30.55625 242.224987) scale(0.2 -0.2)">
       <defs>
        <path id="DejaVuSans-2212" d="M 678 2272 
L 4684 2272 
L 4684 1741 
L 678 1741 
L 678 2272 
z
" transform="scale(0.015625)"/>
       </defs>
       <use xlink:href="#DejaVuSans-2212"/>
       <use xlink:href="#DejaVuSans-32" x="83.789062"/>
       <use xlink:href="#DejaVuSans-30" x="147.412109"/>
       <use xlink:href="#DejaVuSans-30" x="211.035156"/>
      </g>
     </g>
    </g>
    <g id="ytick_2">
     <g id="line2d_8">
      <g>
       <use xlink:href="#mc314c79865" x="92.490625" y="151.376755" style="stroke: #000000; stroke-width: 0.8"/>
      </g>
     </g>
     <g id="text_9">
      <!-- 0 -->
      <g transform="translate(72.765625 158.975193) scale(0.2 -0.2)">
       <use xlink:href="#DejaVuSans-30"/>
      </g>
     </g>
    </g>
    <g id="ytick_3">
     <g id="line2d_9">
      <g>
       <use xlink:href="#mc314c79865" x="92.490625" y="68.126962" style="stroke: #000000; stroke-width: 0.8"/>
      </g>
     </g>
     <g id="text_10">
      <!-- 200 -->
      <g transform="translate(47.315625 75.725399) scale(0.2 -0.2)">
       <use xlink:href="#DejaVuSans-32"/>
       <use xlink:href="#DejaVuSans-30" x="63.623047"/>
       <use xlink:href="#DejaVuSans-30" x="127.246094"/>
      </g>
     </g>
    </g>
    <g id="text_11">
     <!-- Loss -->
     <g transform="translate(22.396875 191.970625) rotate(-90) scale(0.2 -0.2)">
      <defs>
       <path id="DejaVuSans-4c" d="M 628 4666 
L 1259 4666 
L 1259 531 
L 3531 531 
L 3531 0 
L 628 0 
L 628 4666 
z
" transform="scale(0.015625)"/>
      </defs>
      <use xlink:href="#DejaVuSans-4c"/>
      <use xlink:href="#DejaVuSans-6f" x="53.962891"/>
      <use xlink:href="#DejaVuSans-73" x="115.144531"/>
      <use xlink:href="#DejaVuSans-73" x="167.244141"/>
     </g>
    </g>
   </g>
   <g id="line2d_10">
    <path d="M 117.854261 114.726306 
L 118.337378 106.081918 
L 118.820495 66.645135 
L 119.303612 44.03625 
L 119.786729 55.607746 
L 120.269846 116.630126 
L 120.752963 138.664661 
L 121.23608 137.321124 
L 121.719196 122.741893 
L 122.202313 120.788415 
L 122.68543 127.999278 
L 123.168547 122.989826 
L 123.651664 108.458537 
L 124.134781 122.646974 
L 124.617898 126.556792 
L 125.101015 123.898785 
L 125.584131 120.201515 
L 126.067248 126.255443 
L 126.550365 122.797609 
L 127.033482 127.006439 
L 127.516599 118.64052 
L 127.999716 124.366742 
L 128.482833 117.662909 
L 128.96595 117.330772 
L 129.449067 114.695364 
L 129.932183 107.764658 
L 130.4153 108.435758 
L 130.898417 107.051208 
L 131.381534 106.219874 
L 131.864651 110.116506 
L 132.347768 106.40337 
L 132.830885 103.735206 
L 133.314002 107.114803 
L 133.797119 106.33327 
L 134.280235 103.507469 
L 134.763352 108.842958 
L 135.246469 102.920055 
L 135.729586 108.429686 
L 136.212703 110.936486 
L 136.69582 110.869457 
L 137.178937 106.939005 
L 137.662054 105.409875 
L 138.14517 110.445841 
L 138.628287 111.131011 
L 139.111404 113.912796 
L 139.594521 112.411065 
L 140.077638 111.591078 
L 140.560755 112.594274 
L 141.043872 115.130586 
L 141.526989 112.662515 
L 142.010106 111.560611 
L 142.493222 112.925905 
L 142.976339 108.346789 
L 143.459456 112.549272 
L 143.942573 114.58122 
L 144.42569 115.179402 
L 144.908807 119.262292 
L 145.391924 117.014571 
L 145.875041 116.380063 
L 146.358157 120.267786 
L 146.841274 120.37667 
L 147.324391 120.879402 
L 147.807508 120.548412 
L 148.290625 123.597646 
L 148.773742 123.431828 
L 149.256859 121.429234 
L 149.739976 122.560572 
L 150.223093 119.85272 
L 150.706209 118.694633 
L 151.672443 118.68102 
L 152.15556 118.119314 
L 152.638677 121.17012 
L 153.604911 116.7473 
L 154.088028 113.297092 
L 154.571144 118.688744 
L 155.054261 120.343387 
L 155.537378 123.308616 
L 156.020495 120.224883 
L 156.503612 118.109455 
L 156.986729 120.364991 
L 157.469846 123.245243 
L 158.43608 118.407012 
L 159.402313 122.653338 
L 159.88543 123.836576 
L 160.368547 125.744796 
L 160.851664 123.447651 
L 161.334781 128.318527 
L 161.817898 129.080516 
L 162.301015 128.830815 
L 162.784131 128.20745 
L 163.267248 128.76154 
L 163.750365 132.053196 
L 164.233482 133.596636 
L 164.716599 133.934515 
L 165.199716 135.141517 
L 165.682833 135.137063 
L 166.16595 134.780402 
L 166.649067 135.202134 
L 167.132183 135.093015 
L 167.6153 136.905242 
L 168.581534 142.399589 
L 169.064651 142.128559 
L 169.547768 142.779249 
L 170.030885 139.598641 
L 170.514002 140.408307 
L 170.997119 138.506123 
L 171.480235 139.937779 
L 171.963352 138.802053 
L 172.446469 137.3209 
L 173.412703 135.089312 
L 173.89582 138.125691 
L 174.378937 137.931203 
L 174.862054 136.48173 
L 175.34517 135.887461 
L 176.311404 133.177328 
L 176.794521 135.336782 
L 177.277638 134.894951 
L 177.760755 135.405771 
L 178.243872 135.395858 
L 178.726989 136.106534 
L 179.210106 138.160945 
L 180.176339 138.778501 
L 180.659456 139.328544 
L 181.142573 137.455284 
L 181.62569 138.146409 
L 182.108807 139.584531 
L 182.591924 139.54211 
L 183.075041 140.772087 
L 183.558157 139.328314 
L 184.041274 141.270704 
L 185.007508 138.38691 
L 185.490625 138.267975 
L 185.973742 138.407029 
L 186.456859 138.064147 
L 186.939976 136.366411 
L 187.423093 136.725459 
L 187.906209 137.7051 
L 188.389326 136.859223 
L 188.872443 139.049001 
L 189.35556 137.336016 
L 189.838677 137.257625 
L 190.321794 138.794003 
L 190.804911 138.317046 
L 191.288028 138.127537 
L 191.771144 137.085883 
L 192.254261 140.357201 
L 192.737378 142.188057 
L 193.220495 140.211719 
L 193.703612 141.214973 
L 194.186729 140.469004 
L 194.669846 140.399257 
L 195.152963 137.341402 
L 195.63608 136.956775 
L 196.119196 138.004539 
L 196.602313 141.917493 
L 197.08543 141.394417 
L 197.568547 139.770456 
L 198.051664 138.757231 
L 198.534781 139.627896 
L 199.501015 142.544043 
L 199.984131 142.319792 
L 200.467248 139.759331 
L 200.950365 140.416344 
L 201.433482 141.45395 
L 201.916599 141.363625 
L 202.399716 140.978604 
L 202.882833 142.910652 
L 203.36595 142.90158 
L 203.849067 144.549058 
L 204.332183 145.17122 
L 204.8153 145.44887 
L 205.298417 144.416339 
L 205.781534 144.947962 
L 206.264651 143.814591 
L 206.747768 145.207917 
L 207.230885 145.528567 
L 207.714002 144.861957 
L 208.197119 145.227471 
L 208.680235 144.527959 
L 209.163352 145.046411 
L 209.646469 146.68308 
L 210.129586 147.135187 
L 210.612703 145.32902 
L 211.09582 143.988933 
L 211.578937 145.81337 
L 212.062054 144.652605 
L 212.54517 145.491722 
L 213.028287 145.544312 
L 213.511404 146.479505 
L 213.994521 145.926367 
L 214.477638 146.569906 
L 214.960755 146.635087 
L 215.443872 145.762171 
L 215.926989 146.892018 
L 216.410106 148.983063 
L 216.893222 148.879743 
L 217.376339 147.783513 
L 217.859456 148.254067 
L 218.342573 147.888736 
L 218.82569 146.84581 
L 219.308807 146.202176 
L 219.791924 146.837467 
L 220.275041 146.997663 
L 221.241274 146.666794 
L 222.207508 146.848622 
L 222.690625 146.639285 
L 223.173742 145.433562 
L 223.656859 146.697151 
L 224.139976 146.488051 
L 224.623093 148.265055 
L 225.106209 147.613654 
L 225.589326 147.710403 
L 226.072443 147.419561 
L 226.55556 147.740517 
L 227.038677 146.590609 
L 228.004911 147.987777 
L 228.971144 148.092569 
L 229.454261 147.626153 
L 229.937378 148.346627 
L 230.420495 147.834075 
L 230.903612 146.928657 
L 231.386729 148.067958 
L 231.869846 147.258653 
L 232.352963 148.865305 
L 232.83608 148.410553 
L 233.319196 148.967358 
L 233.802313 149.221557 
L 234.28543 149.822095 
L 234.768547 148.406232 
L 235.251664 148.806973 
L 235.734781 148.539764 
L 236.217898 149.07262 
L 236.701015 148.908721 
L 237.184131 148.61838 
L 238.150365 149.440954 
L 238.633482 149.36957 
L 239.116599 150.013568 
L 239.599716 149.776241 
L 240.082833 150.325511 
L 240.56595 149.880589 
L 241.049067 151.162299 
L 241.532183 149.985682 
L 242.0153 151.13516 
L 242.498417 149.965057 
L 243.464651 149.636812 
L 243.947768 150.277934 
L 244.430885 150.130294 
L 244.914002 149.369379 
L 245.397119 148.998461 
L 246.363352 149.411097 
L 246.846469 150.464825 
L 247.329586 150.199464 
L 247.812703 150.562235 
L 248.29582 150.590935 
L 248.778937 151.04972 
L 249.262054 151.841912 
L 249.74517 151.427364 
L 250.228287 151.175547 
L 250.711404 152.473986 
L 251.194521 151.552817 
L 251.677638 151.225341 
L 252.160755 151.595681 
L 252.643872 152.660834 
L 253.126989 151.773162 
L 253.610106 152.094372 
L 254.093222 152.17824 
L 254.576339 151.68895 
L 256.02569 152.286212 
L 256.508807 152.200918 
L 256.991924 152.280159 
L 257.475041 151.754625 
L 257.958157 152.272882 
L 258.924391 151.842046 
L 259.407508 152.141914 
L 259.890625 152.770268 
L 260.373742 152.207484 
L 260.856859 152.377094 
L 261.339976 152.188492 
L 261.823093 152.676249 
L 262.306209 151.731846 
L 263.272443 151.345152 
L 263.75556 152.186997 
L 264.238677 152.122104 
L 264.721794 151.359375 
L 265.204911 151.397048 
L 265.688028 151.085501 
L 266.654261 152.610465 
L 267.620495 151.755312 
L 268.103612 151.745505 
L 268.586729 151.555412 
L 269.069846 151.233799 
L 270.03608 151.617299 
L 270.519196 151.69156 
L 271.002313 151.931251 
L 271.48543 150.713665 
L 271.968547 151.562487 
L 272.451664 151.106358 
L 273.417898 150.617443 
L 273.901015 151.580261 
L 274.384131 151.282821 
L 274.867248 151.651857 
L 275.350365 151.11709 
L 275.833482 151.018062 
L 276.316599 149.816142 
L 276.799716 150.538729 
L 277.282833 151.54643 
L 277.76595 151.134366 
L 278.249067 150.083957 
L 278.732183 149.856048 
L 279.2153 150.084806 
L 280.181534 150.905625 
L 281.147768 150.592418 
L 281.630885 150.540132 
L 282.114002 150.835766 
L 282.597119 149.605204 
L 283.080235 150.155542 
L 283.563352 148.359728 
L 284.046469 149.069275 
L 284.529586 149.470042 
L 285.012703 148.774616 
L 285.49582 149.156396 
L 285.978937 149.200486 
L 286.462054 148.372847 
L 286.94517 148.781279 
L 287.428287 148.915586 
L 287.911404 148.736299 
L 288.394521 148.278376 
L 288.877638 150.048145 
L 289.360755 149.794805 
L 289.843872 148.207867 
L 290.326989 147.006615 
L 290.810106 149.701961 
L 291.293222 148.584931 
L 291.776339 150.113674 
L 292.259456 149.148353 
L 292.742573 149.050289 
L 293.22569 149.482133 
L 293.708807 149.221502 
L 294.675041 149.716106 
L 295.641274 149.448828 
L 296.124391 148.575808 
L 297.090625 149.033621 
L 297.573742 149.043221 
L 298.056859 148.766445 
L 298.539976 150.10204 
L 299.023093 149.976308 
L 299.506209 149.01284 
L 300.472443 150.415562 
L 300.95556 150.191345 
L 301.438677 149.765998 
L 301.921794 150.542045 
L 302.404911 151.094122 
L 302.888028 150.749297 
L 303.371144 150.748543 
L 303.854261 150.552951 
L 304.337378 150.811243 
L 304.820495 150.267491 
L 305.303612 150.78941 
L 305.786729 151.586957 
L 306.269846 150.325004 
L 306.752963 151.032796 
L 307.23608 150.88367 
L 307.719196 150.884052 
L 308.202313 151.261011 
L 308.68543 150.707683 
L 309.168547 150.648162 
L 309.651664 149.982535 
L 310.134781 150.220711 
L 310.617898 150.660541 
L 311.101015 150.245039 
L 311.584131 151.090624 
L 312.067248 151.255264 
L 312.550365 150.92556 
L 313.033482 151.095426 
L 313.516599 151.622911 
L 313.999716 151.330097 
L 314.482833 151.27642 
L 314.96595 151.926709 
L 315.449067 151.644614 
L 315.932183 151.748004 
L 316.4153 151.589741 
L 316.898417 151.096936 
L 317.381534 151.232504 
L 317.864651 152.274212 
L 318.347768 151.431557 
L 318.830885 152.15493 
L 319.314002 150.750337 
L 319.797119 151.642762 
L 320.280235 152.003527 
L 320.763352 151.370928 
L 321.246469 151.81159 
L 322.69582 152.347011 
L 323.178937 152.287551 
L 323.662054 152.792889 
L 324.14517 152.330353 
L 324.628287 152.840892 
L 325.111404 152.952117 
L 325.594521 152.415944 
L 326.077638 152.560223 
L 326.560755 151.791173 
L 327.043872 151.744005 
L 327.526989 151.92552 
L 328.010106 151.236089 
L 328.493222 151.001596 
L 328.976339 152.275131 
L 329.459456 151.230055 
L 330.908807 152.57704 
L 331.391924 152.080164 
L 331.875041 151.791563 
L 332.358157 152.511252 
L 332.841274 151.929362 
L 333.324391 152.536765 
L 333.807508 151.959364 
L 334.290625 152.067056 
L 334.773742 152.043511 
L 335.739976 152.304802 
L 336.223093 151.700389 
L 336.706209 151.420254 
L 337.189326 151.287794 
L 337.672443 151.665874 
L 338.15556 152.210526 
L 338.638677 152.047336 
L 339.121794 152.215515 
L 339.604911 151.418016 
L 340.088028 151.783619 
L 341.054261 151.755368 
L 341.537378 152.372138 
L 342.503612 152.398249 
L 342.986729 152.2066 
L 343.469846 152.143606 
L 343.952963 152.661245 
L 344.43608 152.418168 
L 344.919196 151.076607 
L 345.402313 152.230132 
L 345.88543 152.254543 
L 346.368547 152.085501 
L 346.851664 152.097016 
L 347.817898 151.575627 
L 348.784131 151.848856 
L 349.267248 151.953318 
L 349.750365 152.623378 
L 350.716599 151.842257 
L 351.199716 152.267785 
L 352.16595 152.143958 
L 352.649067 150.987889 
L 353.132183 151.397289 
L 353.6153 151.975647 
L 354.098417 151.998391 
L 354.581534 151.335571 
L 355.064651 151.682935 
L 355.547768 152.632733 
L 356.030885 152.19404 
L 357.480235 151.946123 
L 357.963352 152.200519 
L 358.446469 152.193347 
L 358.929586 151.984494 
L 359.89582 152.365496 
L 360.378937 152.266247 
L 360.862054 151.934436 
L 361.34517 152.40168 
L 361.828287 152.065543 
L 362.311404 151.446763 
L 362.794521 151.828722 
L 363.277638 151.947018 
L 363.760755 152.448695 
L 364.243872 151.844327 
L 364.726989 151.506004 
L 365.210106 151.857779 
L 365.693222 151.871857 
L 366.176339 151.079205 
L 366.659456 151.507201 
L 367.142573 151.45044 
L 367.62569 151.647678 
L 368.108807 151.448021 
L 368.591924 151.495779 
L 369.075041 150.817983 
L 369.558157 151.706664 
L 370.041274 151.308106 
L 370.524391 151.276547 
L 371.007508 151.5955 
L 371.490625 151.62933 
L 371.973742 151.070949 
L 372.456859 151.645706 
L 372.939976 151.69572 
L 373.906209 151.149644 
L 374.389326 151.458323 
L 374.872443 151.46821 
L 375.35556 152.024571 
L 375.838677 152.047261 
L 376.321794 151.13832 
L 376.804911 151.604247 
L 377.288028 151.562435 
L 377.771144 151.300639 
L 378.254261 151.701181 
L 378.737378 151.454309 
L 379.220495 151.537243 
L 379.703612 151.037532 
L 380.186729 151.344607 
L 380.669846 151.194195 
L 381.152963 151.298938 
L 381.63608 151.180666 
L 382.602313 151.24606 
L 383.08543 151.461987 
L 383.568547 151.801094 
L 384.051664 151.715007 
L 384.534781 151.495821 
L 385.017898 151.575049 
L 385.501015 152.208455 
L 385.984131 151.707065 
L 386.467248 151.726826 
L 386.950365 151.988182 
L 387.433482 152.692704 
L 387.916599 152.089559 
L 388.882833 152.427433 
L 389.36595 152.218327 
L 389.849067 152.372906 
L 390.332183 152.029724 
L 390.8153 152.286971 
L 391.298417 151.970467 
L 391.781534 152.555662 
L 392.264651 152.245332 
L 393.230885 152.541199 
L 393.714002 151.979995 
L 394.197119 152.520662 
L 394.680235 152.584042 
L 395.163352 152.14573 
L 395.646469 152.190755 
L 396.129586 151.690852 
L 396.612703 152.114592 
L 397.09582 152.29273 
L 398.062054 152.107116 
L 398.54517 152.648587 
L 399.028287 152.284687 
L 399.994521 152.570828 
L 400.477638 151.94545 
L 400.960755 152.373726 
L 401.926989 152.544228 
L 402.410106 152.822214 
L 402.893222 152.360177 
L 403.376339 152.090089 
L 403.859456 152.535167 
L 404.82569 152.221624 
L 405.308807 152.436898 
L 405.791924 152.35947 
L 406.758157 152.520215 
L 407.241274 153.016444 
L 407.724391 151.731253 
L 408.207508 152.950878 
L 408.690625 152.456644 
L 409.656859 152.995511 
L 410.139976 152.141711 
L 410.623093 152.638712 
L 411.106209 152.800987 
L 412.072443 152.785811 
L 412.55556 152.008473 
L 413.038677 152.737062 
L 413.521794 152.400565 
L 414.004911 152.305675 
L 414.488028 151.975513 
L 414.971144 152.573437 
L 415.454261 151.750127 
L 415.937378 152.303332 
L 416.420495 148.524838 
L 416.903612 151.957175 
L 417.386729 151.768497 
L 417.869846 151.228879 
L 418.352963 149.876511 
L 418.83608 150.908245 
L 419.319196 150.634714 
L 419.802313 150.781189 
L 420.28543 151.133643 
L 420.768547 150.985306 
L 421.251664 151.421726 
L 421.734781 151.07346 
L 422.701015 151.445347 
L 423.184131 151.544725 
L 423.667248 151.284326 
L 424.150365 151.233488 
L 424.633482 151.776222 
L 425.116599 152.068305 
L 425.599716 151.888559 
L 426.082833 152.299186 
L 426.56595 152.396925 
L 427.049067 152.804566 
L 427.532183 151.928435 
L 428.498417 151.75361 
L 428.981534 152.006023 
L 429.464651 152.058703 
L 429.947768 151.994579 
L 430.430885 151.590229 
L 431.397119 151.647107 
L 431.880235 151.896192 
L 432.363352 151.728772 
L 433.329586 151.971596 
L 433.812703 151.477873 
L 434.778937 152.194692 
L 436.228287 152.161486 
L 436.711404 151.747277 
L 437.194521 151.809392 
L 437.677638 152.215417 
L 438.160755 152.396104 
L 438.643872 152.099389 
L 439.126989 152.378092 
L 440.576339 152.240698 
L 441.059456 151.902568 
L 441.542573 152.467766 
L 442.02569 152.124655 
L 442.508807 152.70934 
L 442.991924 152.230334 
L 443.475041 152.155856 
L 443.958157 152.355853 
L 444.441274 152.094614 
L 444.924391 152.597834 
L 445.407508 152.284626 
L 445.890625 151.680398 
L 446.373742 152.298811 
L 446.856859 152.390976 
L 447.339976 152.345511 
L 447.823093 151.894844 
L 448.306209 151.847075 
L 448.789326 152.100982 
L 449.272443 151.939378 
L 449.75556 152.30459 
L 450.721794 152.323955 
L 451.204911 151.872378 
L 451.688028 152.179649 
L 452.171144 152.235323 
L 452.654261 151.742924 
L 453.137378 151.994381 
L 453.620495 151.714282 
L 454.103612 152.59086 
L 454.586729 152.371201 
L 455.069846 152.410087 
L 455.552963 151.979833 
L 456.03608 152.13412 
L 457.002313 151.953103 
L 457.48543 152.663517 
L 457.968547 152.850887 
L 458.451664 152.335265 
L 458.934781 152.093904 
L 459.417898 152.09731 
L 459.901015 151.861739 
L 460.384131 152.22775 
L 460.867248 152.143963 
L 461.350365 151.920261 
L 461.833482 152.292448 
L 462.799716 151.608838 
L 463.282833 151.884717 
L 463.76595 151.948034 
L 464.732183 151.885639 
L 465.2153 151.98697 
L 465.698417 151.792668 
L 466.181534 151.911078 
L 466.664651 151.859503 
L 467.630885 151.98688 
L 468.114002 152.018334 
L 468.597119 152.415296 
L 469.563352 151.914235 
L 470.046469 151.89707 
L 471.012703 152.22128 
L 472.94517 151.399755 
L 473.428287 152.082493 
L 473.911404 151.858426 
L 474.394521 151.14337 
L 474.877638 151.339535 
L 475.360755 151.059344 
L 475.843872 151.37599 
L 477.293222 151.377481 
L 477.776339 151.680836 
L 478.742573 151.543694 
L 479.22569 150.926786 
L 480.191924 151.767019 
L 480.675041 151.616761 
L 481.158157 151.706296 
L 481.641274 151.076738 
L 482.124391 151.587845 
L 482.607508 151.442994 
L 483.090625 151.430316 
L 483.573742 151.547727 
L 484.056859 151.213943 
L 484.539976 151.582079 
L 485.023093 151.353998 
L 485.989326 151.507801 
L 486.95556 151.177908 
L 487.438677 151.384978 
L 488.888028 151.092115 
L 489.371144 151.176657 
L 489.854261 151.640328 
L 490.820495 151.604892 
L 491.303612 151.570655 
L 491.786729 151.945732 
L 492.752963 151.938915 
L 493.23608 151.661181 
L 493.719196 151.550083 
L 494.202313 151.205932 
L 495.168547 151.191742 
L 495.651664 151.686735 
L 496.134781 151.613083 
L 496.617898 151.852518 
L 497.101015 151.679496 
L 498.067248 152.207215 
L 500.96595 151.367225 
L 501.449067 151.667476 
L 502.4153 151.296849 
L 502.898417 151.849446 
L 503.381534 151.805784 
L 503.864651 151.328364 
L 504.347768 151.674293 
L 504.830885 151.743831 
L 505.314002 152.042436 
L 505.797119 151.830819 
L 506.280235 151.370385 
L 507.246469 151.709383 
L 507.729586 151.443255 
L 508.212703 151.744608 
L 508.69582 151.368646 
L 509.178937 151.488061 
L 509.662054 151.828688 
L 510.14517 151.146687 
L 510.628287 151.689779 
L 511.111404 151.498835 
L 512.077638 151.770987 
L 512.560755 151.543286 
L 513.043872 150.945401 
L 513.526989 151.778396 
L 514.010106 151.49887 
L 514.976339 151.858059 
L 515.942573 151.134675 
L 516.42569 151.486843 
L 516.908807 151.396916 
L 517.391924 151.719428 
L 517.875041 151.424326 
L 518.358157 151.788686 
L 518.841274 151.564222 
L 519.324391 151.705691 
L 519.807508 151.996654 
L 520.290625 151.92431 
L 520.773742 151.704387 
L 521.256859 152.328413 
L 522.223093 152.27705 
L 522.706209 151.88783 
L 524.15556 151.92844 
L 524.638677 152.307681 
L 525.604911 152.183362 
L 526.571144 152.189478 
L 527.054261 152.038944 
L 527.537378 152.635119 
L 528.020495 152.101613 
L 528.503612 151.938368 
L 528.986729 152.079164 
L 529.469846 151.71079 
L 529.952963 151.797494 
L 530.43608 151.646745 
L 530.919196 152.143108 
L 531.402313 151.99021 
L 531.88543 152.18414 
L 532.368547 152.22808 
L 532.851664 152.125307 
L 533.817898 151.692709 
L 534.301015 151.910702 
L 534.784131 151.764202 
L 535.750365 151.699157 
L 536.233482 152.14054 
L 536.716599 151.37151 
L 537.199716 151.636387 
L 537.682833 151.766142 
L 538.649067 151.713636 
L 539.132183 151.875768 
L 539.6153 151.39868 
L 540.098417 151.225943 
L 540.581534 151.535501 
L 541.064651 151.645419 
L 541.547768 151.240036 
L 542.514002 151.689344 
L 544.929586 151.53041 
L 545.412703 151.307105 
L 545.89582 151.856963 
L 546.862054 151.503902 
L 547.34517 151.979471 
L 547.828287 151.697348 
L 548.311404 151.934772 
L 548.794521 151.508816 
L 549.277638 152.151504 
L 549.760755 151.747737 
L 550.243872 151.834478 
L 550.726989 152.265236 
L 551.210106 151.941584 
L 551.693222 151.934039 
L 552.176339 151.171931 
L 552.659456 151.802155 
L 553.142573 152.066033 
L 554.108807 151.545989 
L 555.075041 151.575974 
L 555.558157 151.873294 
L 556.041274 151.918905 
L 556.524391 151.736145 
L 557.007508 151.989589 
L 557.490625 151.574647 
L 557.973742 151.879342 
L 559.423093 151.910117 
L 559.906209 151.70139 
L 560.389326 151.937435 
L 560.872443 152.009852 
L 561.35556 151.533277 
L 562.321794 152.084454 
L 562.804911 151.590728 
L 563.771144 152.446118 
L 564.737378 151.724952 
L 565.703612 152.141755 
L 566.186729 151.898353 
L 566.669846 152.1334 
L 567.152963 152.032246 
L 567.63608 152.398274 
L 568.119196 151.485606 
L 568.602313 151.919006 
L 569.08543 151.88307 
L 569.568547 151.55212 
L 570.051664 151.715725 
L 570.534781 152.216185 
L 571.017898 151.943226 
L 571.501015 151.526062 
L 571.984131 151.839099 
L 572.467248 152.344255 
L 572.950365 152.354418 
L 573.433482 151.937689 
L 573.916599 151.854042 
L 574.882833 152.403465 
L 575.36595 151.928993 
L 576.8153 152.361175 
L 577.298417 152.258287 
L 578.264651 152.385159 
L 578.747768 151.892379 
L 580.197119 152.244459 
L 580.680235 151.72125 
L 581.163352 152.643585 
L 581.646469 152.199328 
L 582.129586 152.058942 
L 582.612703 152.411634 
L 583.578937 151.943532 
L 584.062054 151.985253 
L 585.028287 151.866921 
L 585.511404 151.978894 
L 585.994521 152.516977 
L 586.477638 152.155609 
L 586.960755 152.389905 
L 587.443872 152.072178 
L 587.926989 152.703306 
L 588.410106 152.95425 
L 588.893222 152.619859 
L 589.859456 152.332556 
L 590.82569 152.769971 
L 591.791924 152.24283 
L 592.758157 152.833334 
L 593.241274 152.80824 
L 593.724391 152.291823 
L 594.207508 152.833655 
L 594.690625 152.436755 
L 595.173742 152.210842 
L 596.139976 152.278928 
L 596.623093 152.374975 
L 597.589326 152.226534 
L 598.072443 152.465522 
L 598.55556 152.474592 
L 599.038677 152.221023 
L 599.521794 152.302501 
L 600.004911 152.05563 
L 600.971144 152.459694 
L 601.454261 152.101627 
L 601.937378 152.179048 
L 602.420495 152.103387 
L 602.903612 152.219353 
L 603.386729 152.510258 
L 603.869846 152.273396 
L 604.352963 152.398583 
L 605.319196 152.125431 
L 605.802313 152.171389 
L 606.28543 151.970359 
L 606.768547 152.253858 
L 607.251664 152.200606 
L 607.734781 152.397954 
L 608.217898 152.317683 
L 608.701015 152.115818 
L 609.667248 152.208094 
L 610.150365 151.816096 
L 610.633482 152.263418 
L 611.116599 152.06862 
L 611.599716 152.056638 
L 612.082833 152.361283 
L 612.56595 152.3193 
L 613.049067 151.907125 
L 613.532183 152.04794 
L 614.0153 152.353644 
L 614.498417 152.087623 
L 614.981534 152.359963 
L 615.464651 152.294126 
L 615.947768 152.614881 
L 616.430885 152.20847 
L 616.914002 152.351788 
L 617.397119 152.690721 
L 618.846469 151.781281 
L 619.329586 152.120058 
L 619.812703 152.27773 
L 620.778937 151.806116 
L 621.262054 152.353814 
L 621.74517 151.890548 
L 622.228287 152.196915 
L 622.711404 151.925702 
L 623.677638 151.948349 
L 624.643872 152.060363 
L 625.126989 152.072341 
L 625.126989 152.072341 
" clip-path="url(#p1f254ac9fe)" style="fill: none; stroke: #1f77b4; stroke-width: 1.5; stroke-linecap: square"/>
   </g>
   <g id="line2d_11">
    <path d="M 117.854261 257.658289 
L 118.337378 262.165711 
L 118.820495 291.943205 
L 119.303612 296.03625 
L 120.269846 271.11781 
L 120.752963 227.057898 
L 121.23608 207.5709 
L 121.719196 203.182002 
L 122.202313 203.974264 
L 122.68543 211.845554 
L 123.168547 205.520858 
L 124.134781 195.910364 
L 124.617898 195.703205 
L 125.101015 192.753227 
L 125.584131 197.401453 
L 126.067248 172.184989 
L 126.550365 172.103903 
L 127.033482 169.627321 
L 127.516599 171.510379 
L 127.999716 166.488463 
L 128.482833 169.662831 
L 128.96595 167.766312 
L 129.449067 168.409239 
L 129.932183 168.391562 
L 130.4153 165.287616 
L 130.898417 166.881572 
L 131.381534 166.794035 
L 131.864651 165.094572 
L 132.347768 166.165148 
L 132.830885 165.451608 
L 133.314002 164.010929 
L 133.797119 163.25549 
L 134.280235 164.862355 
L 134.763352 163.978923 
L 135.246469 163.485609 
L 136.212703 161.702402 
L 136.69582 160.420844 
L 137.178937 164.815428 
L 137.662054 163.952454 
L 138.14517 162.432016 
L 138.628287 163.099974 
L 139.111404 162.512979 
L 139.594521 162.265303 
L 140.077638 163.58709 
L 140.560755 161.410305 
L 141.043872 162.710343 
L 141.526989 161.565435 
L 142.010106 161.16584 
L 142.493222 161.539059 
L 142.976339 162.557454 
L 143.459456 161.171452 
L 143.942573 161.384449 
L 144.42569 160.92679 
L 144.908807 160.831448 
L 145.875041 161.328739 
L 146.358157 161.196216 
L 146.841274 161.194354 
L 147.324391 161.482621 
L 147.807508 161.201429 
L 148.290625 159.7919 
L 148.773742 160.884693 
L 149.256859 160.064798 
L 149.739976 160.550759 
L 150.223093 162.077185 
L 150.706209 163.054654 
L 151.189326 160.376997 
L 151.672443 163.420413 
L 152.15556 160.81798 
L 152.638677 160.706714 
L 153.604911 162.97898 
L 154.088028 161.428681 
L 154.571144 160.805188 
L 155.537378 160.193846 
L 156.503612 162.631121 
L 156.986729 161.251941 
L 157.469846 159.442412 
L 157.952963 161.834268 
L 158.43608 161.591212 
L 158.919196 160.94865 
L 159.402313 161.58259 
L 159.88543 161.661909 
L 160.368547 162.60633 
L 161.334781 161.360388 
L 162.301015 161.703732 
L 162.784131 160.981433 
L 163.750365 161.378065 
L 164.716599 159.80897 
L 165.199716 160.21275 
L 165.682833 160.462935 
L 166.16595 161.088266 
L 167.132183 161.389012 
L 167.6153 160.004467 
L 168.098417 161.423814 
L 168.581534 161.588497 
L 169.064651 160.70362 
L 169.547768 161.311015 
L 170.030885 162.288528 
L 170.514002 161.574032 
L 170.997119 162.933584 
L 171.480235 162.761098 
L 171.963352 161.823109 
L 172.446469 163.255695 
L 172.929586 162.48772 
L 173.412703 162.510713 
L 173.89582 162.845991 
L 174.378937 162.220304 
L 174.862054 162.518876 
L 175.34517 163.464852 
L 175.828287 164.100062 
L 176.311404 161.71733 
L 176.794521 160.953926 
L 177.277638 162.188098 
L 178.243872 161.382858 
L 178.726989 162.157181 
L 179.210106 162.385889 
L 179.693222 160.804717 
L 180.176339 161.59229 
L 180.659456 161.478432 
L 181.142573 161.686822 
L 181.62569 162.509587 
L 182.108807 161.135064 
L 182.591924 161.60804 
L 183.075041 162.642114 
L 183.558157 163.370876 
L 184.041274 161.109782 
L 184.524391 153.752785 
L 185.007508 154.884893 
L 185.490625 154.642952 
L 185.973742 156.15602 
L 186.456859 156.257159 
L 186.939976 154.933457 
L 187.423093 156.047679 
L 187.906209 156.254787 
L 188.389326 157.181505 
L 188.872443 156.53724 
L 189.35556 156.437924 
L 189.838677 156.791371 
L 190.321794 156.526013 
L 190.804911 156.899174 
L 191.288028 156.612682 
L 191.771144 155.971204 
L 192.254261 156.374247 
L 193.220495 156.676973 
L 193.703612 156.380954 
L 194.186729 156.744293 
L 194.669846 156.508302 
L 195.63608 156.742195 
L 196.119196 156.015266 
L 196.602313 156.667905 
L 197.568547 156.571618 
L 198.051664 156.876875 
L 198.534781 157.011189 
L 199.501015 156.562438 
L 199.984131 157.11912 
L 200.467248 157.288222 
L 200.950365 156.918805 
L 201.433482 156.340906 
L 201.916599 157.068537 
L 202.399716 156.310565 
L 203.36595 155.798621 
L 203.849067 156.372213 
L 204.332183 156.620934 
L 205.298417 155.934658 
L 205.781534 155.997717 
L 206.264651 156.237635 
L 206.747768 156.252845 
L 207.230885 155.534283 
L 207.714002 156.106492 
L 208.197119 155.971055 
L 208.680235 155.262929 
L 209.163352 155.565248 
L 209.646469 155.523103 
L 210.129586 155.801346 
L 210.612703 156.566333 
L 211.09582 156.216639 
L 211.578937 156.133157 
L 212.062054 155.391582 
L 212.54517 155.66232 
L 213.028287 156.145638 
L 213.511404 155.672539 
L 213.994521 155.874484 
L 214.477638 155.743108 
L 214.960755 156.238413 
L 215.443872 155.989438 
L 216.410106 156.440338 
L 217.376339 155.672807 
L 217.859456 155.631246 
L 218.342573 155.827528 
L 218.82569 156.184732 
L 219.308807 155.693904 
L 219.791924 156.168457 
L 220.275041 156.299126 
L 220.758157 155.762169 
L 221.724391 156.752607 
L 222.207508 155.909613 
L 222.690625 156.437744 
L 223.656859 156.503263 
L 224.139976 156.287067 
L 224.623093 156.348738 
L 225.106209 156.141802 
L 225.589326 156.48928 
L 226.072443 155.958175 
L 226.55556 155.93672 
L 227.038677 156.125692 
L 227.521794 156.556642 
L 228.004911 156.08584 
L 228.488028 155.853602 
L 228.971144 156.224566 
L 229.937378 155.977781 
L 230.420495 156.594103 
L 230.903612 155.667991 
L 231.869846 156.37959 
L 232.352963 156.129236 
L 232.83608 156.608581 
L 233.319196 155.852199 
L 233.802313 155.933841 
L 234.28543 155.823862 
L 234.768547 156.261902 
L 235.251664 156.217012 
L 235.734781 156.433896 
L 236.217898 156.219792 
L 236.701015 156.336659 
L 237.184131 156.096349 
L 237.667248 156.14078 
L 238.150365 156.421176 
L 239.599716 156.095558 
L 240.082833 157.212045 
L 240.56595 156.587763 
L 241.049067 156.30008 
L 241.532183 156.348145 
L 242.0153 156.214621 
L 242.498417 156.433314 
L 242.981534 156.347303 
L 243.947768 156.730407 
L 244.430885 156.311451 
L 244.914002 156.422137 
L 245.397119 156.363393 
L 245.880235 156.605773 
L 247.812703 156.104843 
L 248.29582 156.384421 
L 248.778937 156.488825 
L 249.262054 156.398473 
L 249.74517 156.77701 
L 250.711404 156.438086 
L 251.194521 156.575574 
L 251.677638 156.895077 
L 252.160755 156.586644 
L 252.643872 156.758388 
L 253.126989 156.656062 
L 253.610106 156.965966 
L 254.576339 156.474212 
L 255.059456 156.979237 
L 256.508807 156.78095 
L 256.991924 157.101613 
L 257.475041 156.75467 
L 257.958157 156.551084 
L 258.924391 157.098151 
L 259.407508 156.494078 
L 259.890625 156.470489 
L 260.373742 156.88698 
L 260.856859 156.736063 
L 261.339976 156.7347 
L 261.823093 157.464837 
L 262.306209 157.245992 
L 262.789326 156.862099 
L 263.272443 156.935837 
L 263.75556 156.769388 
L 264.238677 157.033425 
L 264.721794 156.931994 
L 265.688028 157.300986 
L 266.171144 156.96563 
L 266.654261 157.144787 
L 267.620495 156.797355 
L 268.103612 157.022033 
L 268.586729 156.650283 
L 269.069846 156.643316 
L 269.552963 157.060201 
L 270.03608 156.635579 
L 271.002313 156.742267 
L 271.968547 156.37065 
L 272.451664 156.805563 
L 272.934781 157.010789 
L 273.417898 156.41239 
L 273.901015 156.30752 
L 274.384131 156.518043 
L 274.867248 154.394413 
L 275.350365 153.868807 
L 275.833482 154.745371 
L 276.316599 154.964107 
L 276.799716 155.882272 
L 278.249067 155.2932 
L 279.2153 155.89478 
L 279.698417 155.705633 
L 280.181534 155.735094 
L 280.664651 156.291481 
L 281.630885 155.58715 
L 282.114002 155.645655 
L 282.597119 153.043477 
L 283.080235 154.084499 
L 283.563352 154.435394 
L 284.046469 154.271206 
L 284.529586 154.535556 
L 285.012703 155.139117 
L 285.49582 154.806182 
L 285.978937 155.013079 
L 286.462054 154.635972 
L 286.94517 155.060609 
L 287.428287 155.242783 
L 287.911404 154.710172 
L 288.394521 155.23496 
L 289.843872 154.912978 
L 290.326989 154.600437 
L 290.810106 154.867425 
L 291.293222 154.496443 
L 291.776339 155.003689 
L 292.742573 155.096093 
L 293.22569 154.993173 
L 293.708807 155.095595 
L 294.191924 155.423929 
L 295.641274 155.077029 
L 296.124391 155.272574 
L 296.607508 154.511676 
L 297.090625 155.031347 
L 297.573742 155.333706 
L 298.056859 155.833112 
L 298.539976 155.491651 
L 299.506209 155.26391 
L 299.989326 155.533926 
L 300.472443 155.532608 
L 300.95556 155.347737 
L 301.438677 155.905205 
L 302.404911 155.375726 
L 302.888028 155.269938 
L 303.371144 155.835803 
L 304.337378 155.153243 
L 305.786729 155.751553 
L 306.752963 155.403771 
L 307.23608 155.480373 
L 307.719196 155.800394 
L 308.202313 155.63988 
L 308.68543 156.279948 
L 309.168547 155.760215 
L 310.134781 155.431543 
L 311.584131 155.709706 
L 312.067248 155.219692 
L 312.550365 155.442174 
L 313.033482 155.890347 
L 313.999716 156.019055 
L 314.482833 155.491745 
L 315.932183 155.350416 
L 316.4153 155.346429 
L 316.898417 155.665712 
L 317.381534 155.630159 
L 317.864651 156.297099 
L 318.347768 155.577022 
L 318.830885 154.636774 
L 319.314002 155.540049 
L 320.280235 155.596634 
L 320.763352 155.315462 
L 321.246469 155.58118 
L 321.729586 154.986037 
L 323.178937 155.552048 
L 325.111404 155.310278 
L 325.594521 155.408083 
L 326.077638 155.196475 
L 326.560755 155.538965 
L 327.043872 155.442706 
L 327.526989 155.091318 
L 328.010106 153.608385 
L 328.976339 154.714612 
L 329.459456 154.891346 
L 329.942573 154.903836 
L 330.42569 154.621878 
L 330.908807 155.658852 
L 331.391924 155.249258 
L 331.875041 155.713823 
L 332.358157 155.021825 
L 333.324391 155.150075 
L 333.807508 155.154992 
L 334.290625 155.317545 
L 334.773742 155.151199 
L 335.256859 155.264146 
L 335.739976 155.587818 
L 337.672443 155.074538 
L 338.15556 155.645964 
L 338.638677 155.841646 
L 339.121794 155.354586 
L 339.604911 155.051135 
L 340.088028 155.565542 
L 340.571144 155.17962 
L 341.054261 155.260668 
L 341.537378 155.475398 
L 342.020495 155.165695 
L 342.503612 155.24334 
L 342.986729 155.072499 
L 343.469846 155.269896 
L 343.952963 154.818812 
L 344.43608 155.188621 
L 344.919196 155.108289 
L 345.402313 154.669359 
L 345.88543 155.152197 
L 346.368547 155.156871 
L 346.851664 154.848813 
L 347.334781 155.390366 
L 347.817898 155.278702 
L 348.301015 155.436354 
L 348.784131 155.245938 
L 349.267248 155.244318 
L 349.750365 154.974139 
L 350.233482 155.382234 
L 350.716599 155.004301 
L 351.199716 154.988872 
L 351.682833 155.262399 
L 352.649067 155.096087 
L 353.132183 154.837695 
L 354.098417 155.423065 
L 354.581534 155.028617 
L 355.064651 155.512282 
L 355.547768 155.296887 
L 356.030885 155.225788 
L 356.514002 154.743231 
L 356.997119 155.366563 
L 357.963352 155.130873 
L 358.446469 154.707484 
L 358.929586 154.986333 
L 359.89582 154.818989 
L 360.378937 155.046058 
L 360.862054 154.702934 
L 361.828287 155.039919 
L 362.311404 154.975369 
L 362.794521 155.334182 
L 363.277638 154.849228 
L 363.760755 155.037184 
L 364.243872 154.970428 
L 364.726989 155.284791 
L 365.210106 154.96514 
L 365.693222 155.305088 
L 366.176339 154.640369 
L 366.659456 155.181552 
L 368.108807 155.488724 
L 368.591924 154.730194 
L 370.041274 154.930242 
L 370.524391 155.111416 
L 371.007508 155.045237 
L 371.490625 155.248884 
L 371.973742 154.713462 
L 372.456859 154.878149 
L 372.939976 155.207209 
L 373.423093 154.545471 
L 374.389326 155.620813 
L 374.872443 155.274956 
L 375.35556 155.497977 
L 375.838677 155.070469 
L 376.321794 155.350361 
L 376.804911 154.947572 
L 377.288028 155.52839 
L 377.771144 155.107947 
L 378.254261 155.580213 
L 378.737378 155.139409 
L 379.220495 155.178293 
L 379.703612 155.381478 
L 380.186729 155.187845 
L 380.669846 155.494437 
L 381.152963 155.217882 
L 381.63608 155.285562 
L 382.119196 155.031702 
L 382.602313 155.296398 
L 383.08543 154.910107 
L 383.568547 155.275375 
L 384.051664 155.15732 
L 384.534781 155.31056 
L 385.501015 155.333147 
L 386.467248 154.904764 
L 386.950365 155.58039 
L 387.916599 155.156327 
L 388.399716 155.373803 
L 388.882833 155.249042 
L 389.36595 155.254083 
L 389.849067 155.55925 
L 390.332183 155.219763 
L 390.8153 155.562492 
L 391.298417 155.304436 
L 393.230885 155.284766 
L 394.197119 155.369909 
L 395.163352 155.254357 
L 395.646469 155.33416 
L 396.129586 155.032186 
L 397.09582 155.323129 
L 397.578937 155.204486 
L 398.062054 155.311507 
L 398.54517 155.125744 
L 399.994521 155.663483 
L 400.477638 155.077817 
L 400.960755 154.902083 
L 401.443872 155.02242 
L 401.926989 155.328052 
L 403.376339 155.428283 
L 403.859456 155.442195 
L 404.342573 155.699922 
L 405.791924 155.499555 
L 406.275041 155.280517 
L 407.241274 155.843515 
L 407.724391 154.460927 
L 408.207508 155.107892 
L 410.623093 155.057375 
L 411.106209 155.366999 
L 411.589326 155.084903 
L 412.072443 153.80868 
L 412.55556 154.421182 
L 413.038677 154.517176 
L 413.521794 154.371533 
L 414.004911 155.156259 
L 414.971144 155.151924 
L 415.454261 154.886121 
L 415.937378 155.168401 
L 416.420495 151.549215 
L 416.903612 153.671801 
L 417.386729 154.210377 
L 417.869846 153.137968 
L 418.352963 153.212823 
L 418.83608 153.538874 
L 419.319196 153.63788 
L 419.802313 153.866057 
L 420.28543 153.574882 
L 420.768547 153.807505 
L 421.251664 153.786339 
L 421.734781 153.559401 
L 422.217898 154.12274 
L 422.701015 153.933107 
L 423.184131 154.043313 
L 423.667248 153.748751 
L 424.150365 154.127582 
L 424.633482 154.275268 
L 425.116599 153.823059 
L 425.599716 153.913277 
L 426.082833 154.303842 
L 426.56595 154.969832 
L 427.049067 153.886911 
L 427.532183 153.764402 
L 428.498417 154.095029 
L 428.981534 153.892431 
L 429.464651 154.085215 
L 429.947768 153.970061 
L 430.430885 154.195834 
L 430.914002 154.003589 
L 431.397119 154.439732 
L 431.880235 154.185034 
L 432.363352 154.274745 
L 432.846469 154.164723 
L 433.329586 154.349258 
L 433.812703 154.215334 
L 434.29582 153.931444 
L 435.74517 154.356585 
L 436.228287 154.372823 
L 436.711404 154.028425 
L 437.194521 154.139414 
L 437.677638 154.375035 
L 438.643872 154.007671 
L 439.126989 154.379753 
L 439.610106 154.30798 
L 440.093222 153.920567 
L 440.576339 154.074949 
L 441.059456 154.48548 
L 441.542573 154.264881 
L 442.02569 154.224904 
L 442.508807 154.30137 
L 442.991924 153.986259 
L 444.441274 154.153079 
L 444.924391 154.133734 
L 445.407508 154.287122 
L 446.856859 154.271796 
L 447.339976 153.937811 
L 448.306209 154.089754 
L 448.789326 154.338696 
L 449.272443 153.865401 
L 449.75556 153.971171 
L 450.238677 153.877875 
L 452.171144 154.158169 
L 453.137378 153.920859 
L 453.620495 154.317894 
L 454.103612 154.224999 
L 454.586729 154.446094 
L 455.552963 154.076167 
L 456.519196 154.223886 
L 457.002313 153.940132 
L 457.48543 154.107708 
L 458.934781 154.023793 
L 459.901015 154.114796 
L 460.384131 153.951738 
L 460.867248 154.329505 
L 461.350365 154.126174 
L 462.799716 154.319701 
L 463.282833 154.315378 
L 463.76595 154.621295 
L 464.732183 153.964944 
L 465.698417 154.028827 
L 466.181534 154.227184 
L 468.597119 154.378203 
L 469.080235 154.049099 
L 469.563352 153.978356 
L 470.046469 154.58294 
L 470.529586 154.206178 
L 471.012703 154.275986 
L 471.49582 154.143732 
L 471.978937 154.319655 
L 472.462054 154.376685 
L 472.94517 154.080599 
L 473.428287 154.252721 
L 474.394521 154.154387 
L 474.877638 153.922477 
L 475.360755 154.097532 
L 475.843872 154.597194 
L 476.326989 153.976399 
L 476.810106 154.136974 
L 477.293222 153.96186 
L 477.776339 154.141673 
L 478.259456 154.478791 
L 478.742573 154.129619 
L 479.708807 153.999698 
L 480.191924 154.097529 
L 480.675041 154.352394 
L 481.158157 154.116491 
L 482.607508 154.07981 
L 483.090625 154.264089 
L 483.573742 154.060622 
L 484.056859 154.013722 
L 484.539976 154.207735 
L 485.023093 153.979308 
L 485.506209 154.218602 
L 486.472443 154.080605 
L 486.95556 154.243596 
L 487.438677 153.864804 
L 489.371144 153.877679 
L 489.854261 153.959656 
L 490.337378 153.795453 
L 490.820495 153.773476 
L 491.303612 154.186488 
L 492.269846 153.700009 
L 492.752963 153.946222 
L 493.23608 154.06566 
L 493.719196 153.754328 
L 494.202313 154.287848 
L 495.651664 153.849293 
L 496.617898 153.528761 
L 497.101015 153.87291 
L 497.584131 153.786487 
L 498.067248 153.579352 
L 498.550365 153.644116 
L 499.033482 153.925112 
L 499.516599 153.711868 
L 499.999716 153.664731 
L 500.96595 153.907606 
L 501.449067 153.79868 
L 501.932183 154.055372 
L 502.898417 153.587292 
L 503.381534 153.925825 
L 503.864651 153.770486 
L 504.347768 153.886633 
L 504.830885 153.472232 
L 505.314002 154.056653 
L 505.797119 153.617917 
L 506.280235 153.571063 
L 507.246469 153.9403 
L 507.729586 153.841082 
L 508.69582 154.012851 
L 509.662054 153.814185 
L 510.14517 153.871481 
L 510.628287 153.812954 
L 511.111404 154.077296 
L 511.594521 153.678675 
L 512.077638 153.96379 
L 512.560755 153.987649 
L 513.043872 153.71852 
L 513.526989 153.826589 
L 514.010106 154.332645 
L 514.493222 153.935132 
L 514.976339 154.064574 
L 515.459456 153.981866 
L 516.42569 154.219335 
L 516.908807 154.053844 
L 518.841274 154.018075 
L 519.324391 153.842495 
L 519.807508 154.030466 
L 520.773742 154.052931 
L 521.256859 153.843973 
L 522.223093 153.90353 
L 522.706209 153.818086 
L 523.189326 154.2799 
L 524.15556 153.933575 
L 524.638677 154.300037 
L 525.121794 153.893896 
L 526.088028 154.058179 
L 526.571144 153.92214 
L 527.054261 154.22361 
L 527.537378 153.862036 
L 528.020495 153.693224 
L 528.503612 153.719976 
L 528.986729 153.987266 
L 529.469846 154.112372 
L 529.952963 153.760369 
L 530.43608 153.934932 
L 530.919196 153.758076 
L 531.402313 154.126527 
L 532.368547 153.698017 
L 533.817898 153.836213 
L 534.301015 153.927989 
L 534.784131 154.164977 
L 535.267248 154.133394 
L 535.750365 153.938669 
L 536.233482 154.325476 
L 536.716599 154.558286 
L 537.199716 154.414128 
L 537.682833 154.028473 
L 538.16595 154.414489 
L 538.649067 154.491601 
L 539.132183 154.373761 
L 539.6153 153.969343 
L 540.098417 154.198198 
L 540.581534 153.895323 
L 541.064651 153.924063 
L 541.547768 154.150303 
L 542.997119 153.796347 
L 543.480235 153.902566 
L 543.963352 153.840236 
L 544.446469 154.118608 
L 544.929586 153.73167 
L 545.412703 153.699172 
L 546.862054 154.417767 
L 547.34517 153.697973 
L 547.828287 154.16362 
L 548.311404 153.967527 
L 548.794521 154.424971 
L 549.277638 154.075927 
L 549.760755 153.943741 
L 550.243872 154.111361 
L 550.726989 154.029278 
L 551.210106 154.3959 
L 551.693222 154.279221 
L 552.176339 153.731126 
L 552.659456 153.933458 
L 553.142573 153.759584 
L 553.62569 154.252961 
L 555.075041 154.214123 
L 555.558157 153.817382 
L 556.041274 153.954916 
L 556.524391 153.954131 
L 557.007508 154.139536 
L 557.490625 153.998398 
L 557.973742 154.01198 
L 558.456859 153.770395 
L 558.939976 153.984374 
L 559.423093 153.803639 
L 559.906209 153.896815 
L 560.389326 154.327526 
L 561.35556 154.01714 
L 561.838677 154.148716 
L 562.321794 154.020145 
L 562.804911 153.737345 
L 563.771144 154.148158 
L 564.254261 154.160656 
L 564.737378 154.289256 
L 565.220495 154.099192 
L 566.186729 154.258271 
L 566.669846 154.43969 
L 567.152963 154.466777 
L 567.63608 154.188428 
L 568.119196 154.177265 
L 568.602313 153.911907 
L 569.08543 154.21176 
L 569.568547 153.868858 
L 570.534781 153.936139 
L 571.017898 153.989305 
L 571.501015 153.910832 
L 571.984131 154.05375 
L 572.467248 154.331082 
L 572.950365 154.389428 
L 573.433482 153.938845 
L 574.399716 154.264901 
L 574.882833 154.185355 
L 575.36595 153.866401 
L 575.849067 154.115681 
L 576.8153 154.051252 
L 577.781534 154.501722 
L 578.264651 154.195006 
L 578.747768 154.12441 
L 579.230885 154.291247 
L 579.714002 154.21853 
L 580.197119 154.024233 
L 580.680235 154.026906 
L 581.646469 154.571016 
L 583.09582 154.264473 
L 583.578937 153.853914 
L 584.062054 154.087683 
L 584.54517 154.514502 
L 585.028287 154.336722 
L 585.511404 153.90356 
L 586.477638 154.311913 
L 586.960755 154.234345 
L 587.443872 154.378542 
L 587.926989 154.14663 
L 588.410106 154.348093 
L 588.893222 154.146855 
L 589.376339 154.325467 
L 589.859456 154.251309 
L 590.342573 154.003232 
L 592.275041 154.103678 
L 592.758157 153.875189 
L 593.724391 154.247452 
L 594.207508 153.897624 
L 595.656859 153.909604 
L 596.139976 154.191593 
L 597.589326 154.095129 
L 598.072443 154.1144 
L 598.55556 153.94871 
L 600.004911 154.296575 
L 600.488028 154.075555 
L 600.971144 154.44911 
L 601.454261 154.356132 
L 601.937378 154.41537 
L 602.420495 154.055603 
L 603.386729 154.100535 
L 603.869846 154.232757 
L 604.352963 154.118349 
L 604.83608 154.138495 
L 605.319196 154.328127 
L 605.802313 153.934045 
L 606.28543 154.232494 
L 606.768547 154.254489 
L 607.251664 154.447165 
L 607.734781 154.444631 
L 608.217898 154.209224 
L 609.184131 154.089822 
L 609.667248 154.288049 
L 611.116599 154.007912 
L 612.082833 153.948876 
L 612.56595 154.078815 
L 613.532183 153.885951 
L 614.0153 154.219233 
L 614.498417 154.203418 
L 614.981534 154.057217 
L 615.464651 154.410819 
L 615.947768 154.129415 
L 616.430885 154.002355 
L 616.914002 154.37376 
L 617.880235 154.106879 
L 618.363352 154.135913 
L 619.329586 154.319537 
L 620.778937 154.079798 
L 621.262054 154.40421 
L 621.74517 154.117763 
L 622.711404 154.195802 
L 624.160755 154.320393 
L 624.643872 154.110944 
L 625.126989 154.164353 
L 625.126989 154.164353 
" clip-path="url(#p1f254ac9fe)" style="fill: none; stroke: #ff7f0e; stroke-width: 1.5; stroke-linecap: square"/>
   </g>
   <g id="patch_3">
    <path d="M 92.490625 308.63625 
L 92.490625 31.43625 
" style="fill: none; stroke: #000000; stroke-width: 0.8; stroke-linejoin: miter; stroke-linecap: square"/>
   </g>
   <g id="patch_4">
    <path d="M 650.490625 308.63625 
L 650.490625 31.43625 
" style="fill: none; stroke: #000000; stroke-width: 0.8; stroke-linejoin: miter; stroke-linecap: square"/>
   </g>
   <g id="patch_5">
    <path d="M 92.490625 308.63625 
L 650.490625 308.63625 
" style="fill: none; stroke: #000000; stroke-width: 0.8; stroke-linejoin: miter; stroke-linecap: square"/>
   </g>
   <g id="patch_6">
    <path d="M 92.490625 31.43625 
L 650.490625 31.43625 
" style="fill: none; stroke: #000000; stroke-width: 0.8; stroke-linejoin: miter; stroke-linecap: square"/>
   </g>
   <g id="text_12">
    <!-- Generator and Discriminator Loss During Training -->
    <g transform="translate(74.258125 25.43625) scale(0.24 -0.24)">
     <defs>
      <path id="DejaVuSans-47" d="M 3809 666 
L 3809 1919 
L 2778 1919 
L 2778 2438 
L 4434 2438 
L 4434 434 
Q 4069 175 3628 42 
Q 3188 -91 2688 -91 
Q 1594 -91 976 548 
Q 359 1188 359 2328 
Q 359 3472 976 4111 
Q 1594 4750 2688 4750 
Q 3144 4750 3555 4637 
Q 3966 4525 4313 4306 
L 4313 3634 
Q 3963 3931 3569 4081 
Q 3175 4231 2741 4231 
Q 1884 4231 1454 3753 
Q 1025 3275 1025 2328 
Q 1025 1384 1454 906 
Q 1884 428 2741 428 
Q 3075 428 3337 486 
Q 3600 544 3809 666 
z
" transform="scale(0.015625)"/>
      <path id="DejaVuSans-20" transform="scale(0.015625)"/>
      <path id="DejaVuSans-64" d="M 2906 2969 
L 2906 4863 
L 3481 4863 
L 3481 0 
L 2906 0 
L 2906 525 
Q 2725 213 2448 61 
Q 2172 -91 1784 -91 
Q 1150 -91 751 415 
Q 353 922 353 1747 
Q 353 2572 751 3078 
Q 1150 3584 1784 3584 
Q 2172 3584 2448 3432 
Q 2725 3281 2906 2969 
z
M 947 1747 
Q 947 1113 1208 752 
Q 1469 391 1925 391 
Q 2381 391 2643 752 
Q 2906 1113 2906 1747 
Q 2906 2381 2643 2742 
Q 2381 3103 1925 3103 
Q 1469 3103 1208 2742 
Q 947 2381 947 1747 
z
" transform="scale(0.015625)"/>
      <path id="DejaVuSans-44" d="M 1259 4147 
L 1259 519 
L 2022 519 
Q 2988 519 3436 956 
Q 3884 1394 3884 2338 
Q 3884 3275 3436 3711 
Q 2988 4147 2022 4147 
L 1259 4147 
z
M 628 4666 
L 1925 4666 
Q 3281 4666 3915 4102 
Q 4550 3538 4550 2338 
Q 4550 1131 3912 565 
Q 3275 0 1925 0 
L 628 0 
L 628 4666 
z
" transform="scale(0.015625)"/>
      <path id="DejaVuSans-63" d="M 3122 3366 
L 3122 2828 
Q 2878 2963 2633 3030 
Q 2388 3097 2138 3097 
Q 1578 3097 1268 2742 
Q 959 2388 959 1747 
Q 959 1106 1268 751 
Q 1578 397 2138 397 
Q 2388 397 2633 464 
Q 2878 531 3122 666 
L 3122 134 
Q 2881 22 2623 -34 
Q 2366 -91 2075 -91 
Q 1284 -91 818 406 
Q 353 903 353 1747 
Q 353 2603 823 3093 
Q 1294 3584 2113 3584 
Q 2378 3584 2631 3529 
Q 2884 3475 3122 3366 
z
" transform="scale(0.015625)"/>
      <path id="DejaVuSans-6d" d="M 3328 2828 
Q 3544 3216 3844 3400 
Q 4144 3584 4550 3584 
Q 5097 3584 5394 3201 
Q 5691 2819 5691 2113 
L 5691 0 
L 5113 0 
L 5113 2094 
Q 5113 2597 4934 2840 
Q 4756 3084 4391 3084 
Q 3944 3084 3684 2787 
Q 3425 2491 3425 1978 
L 3425 0 
L 2847 0 
L 2847 2094 
Q 2847 2600 2669 2842 
Q 2491 3084 2119 3084 
Q 1678 3084 1418 2786 
Q 1159 2488 1159 1978 
L 1159 0 
L 581 0 
L 581 3500 
L 1159 3500 
L 1159 2956 
Q 1356 3278 1631 3431 
Q 1906 3584 2284 3584 
Q 2666 3584 2933 3390 
Q 3200 3197 3328 2828 
z
" transform="scale(0.015625)"/>
      <path id="DejaVuSans-75" d="M 544 1381 
L 544 3500 
L 1119 3500 
L 1119 1403 
Q 1119 906 1312 657 
Q 1506 409 1894 409 
Q 2359 409 2629 706 
Q 2900 1003 2900 1516 
L 2900 3500 
L 3475 3500 
L 3475 0 
L 2900 0 
L 2900 538 
Q 2691 219 2414 64 
Q 2138 -91 1772 -91 
Q 1169 -91 856 284 
Q 544 659 544 1381 
z
M 1991 3584 
L 1991 3584 
z
" transform="scale(0.015625)"/>
      <path id="DejaVuSans-67" d="M 2906 1791 
Q 2906 2416 2648 2759 
Q 2391 3103 1925 3103 
Q 1463 3103 1205 2759 
Q 947 2416 947 1791 
Q 947 1169 1205 825 
Q 1463 481 1925 481 
Q 2391 481 2648 825 
Q 2906 1169 2906 1791 
z
M 3481 434 
Q 3481 -459 3084 -895 
Q 2688 -1331 1869 -1331 
Q 1566 -1331 1297 -1286 
Q 1028 -1241 775 -1147 
L 775 -588 
Q 1028 -725 1275 -790 
Q 1522 -856 1778 -856 
Q 2344 -856 2625 -561 
Q 2906 -266 2906 331 
L 2906 616 
Q 2728 306 2450 153 
Q 2172 0 1784 0 
Q 1141 0 747 490 
Q 353 981 353 1791 
Q 353 2603 747 3093 
Q 1141 3584 1784 3584 
Q 2172 3584 2450 3431 
Q 2728 3278 2906 2969 
L 2906 3500 
L 3481 3500 
L 3481 434 
z
" transform="scale(0.015625)"/>
      <path id="DejaVuSans-54" d="M -19 4666 
L 3928 4666 
L 3928 4134 
L 2272 4134 
L 2272 0 
L 1638 0 
L 1638 4134 
L -19 4134 
L -19 4666 
z
" transform="scale(0.015625)"/>
     </defs>
     <use xlink:href="#DejaVuSans-47"/>
     <use xlink:href="#DejaVuSans-65" x="77.490234"/>
     <use xlink:href="#DejaVuSans-6e" x="139.013672"/>
     <use xlink:href="#DejaVuSans-65" x="202.392578"/>
     <use xlink:href="#DejaVuSans-72" x="263.916016"/>
     <use xlink:href="#DejaVuSans-61" x="305.029297"/>
     <use xlink:href="#DejaVuSans-74" x="366.308594"/>
     <use xlink:href="#DejaVuSans-6f" x="405.517578"/>
     <use xlink:href="#DejaVuSans-72" x="466.699219"/>
     <use xlink:href="#DejaVuSans-20" x="507.8125"/>
     <use xlink:href="#DejaVuSans-61" x="539.599609"/>
     <use xlink:href="#DejaVuSans-6e" x="600.878906"/>
     <use xlink:href="#DejaVuSans-64" x="664.257812"/>
     <use xlink:href="#DejaVuSans-20" x="727.734375"/>
     <use xlink:href="#DejaVuSans-44" x="759.521484"/>
     <use xlink:href="#DejaVuSans-69" x="836.523438"/>
     <use xlink:href="#DejaVuSans-73" x="864.306641"/>
     <use xlink:href="#DejaVuSans-63" x="916.40625"/>
     <use xlink:href="#DejaVuSans-72" x="971.386719"/>
     <use xlink:href="#DejaVuSans-69" x="1012.5"/>
     <use xlink:href="#DejaVuSans-6d" x="1040.283203"/>
     <use xlink:href="#DejaVuSans-69" x="1137.695312"/>
     <use xlink:href="#DejaVuSans-6e" x="1165.478516"/>
     <use xlink:href="#DejaVuSans-61" x="1228.857422"/>
     <use xlink:href="#DejaVuSans-74" x="1290.136719"/>
     <use xlink:href="#DejaVuSans-6f" x="1329.345703"/>
     <use xlink:href="#DejaVuSans-72" x="1390.527344"/>
     <use xlink:href="#DejaVuSans-20" x="1431.640625"/>
     <use xlink:href="#DejaVuSans-4c" x="1463.427734"/>
     <use xlink:href="#DejaVuSans-6f" x="1517.390625"/>
     <use xlink:href="#DejaVuSans-73" x="1578.572266"/>
     <use xlink:href="#DejaVuSans-73" x="1630.671875"/>
     <use xlink:href="#DejaVuSans-20" x="1682.771484"/>
     <use xlink:href="#DejaVuSans-44" x="1714.558594"/>
     <use xlink:href="#DejaVuSans-75" x="1791.560547"/>
     <use xlink:href="#DejaVuSans-72" x="1854.939453"/>
     <use xlink:href="#DejaVuSans-69" x="1896.052734"/>
     <use xlink:href="#DejaVuSans-6e" x="1923.835938"/>
     <use xlink:href="#DejaVuSans-67" x="1987.214844"/>
     <use xlink:href="#DejaVuSans-20" x="2050.691406"/>
     <use xlink:href="#DejaVuSans-54" x="2082.478516"/>
     <use xlink:href="#DejaVuSans-72" x="2128.8125"/>
     <use xlink:href="#DejaVuSans-61" x="2169.925781"/>
     <use xlink:href="#DejaVuSans-69" x="2231.205078"/>
     <use xlink:href="#DejaVuSans-6e" x="2258.988281"/>
     <use xlink:href="#DejaVuSans-69" x="2322.367188"/>
     <use xlink:href="#DejaVuSans-6e" x="2350.150391"/>
     <use xlink:href="#DejaVuSans-67" x="2413.529297"/>
    </g>
   </g>
   <g id="legend_1">
    <g id="patch_7">
     <path d="M 556.99375 106.14875 
L 636.490625 106.14875 
Q 640.490625 106.14875 640.490625 102.14875 
L 640.490625 45.43625 
Q 640.490625 41.43625 636.490625 41.43625 
L 556.99375 41.43625 
Q 552.99375 41.43625 552.99375 45.43625 
L 552.99375 102.14875 
Q 552.99375 106.14875 556.99375 106.14875 
z
" style="fill: #ffffff; opacity: 0.8; stroke: #cccccc; stroke-linejoin: miter"/>
    </g>
    <g id="line2d_12">
     <path d="M 560.99375 57.633125 
L 580.99375 57.633125 
L 600.99375 57.633125 
" style="fill: none; stroke: #1f77b4; stroke-width: 1.5; stroke-linecap: square"/>
    </g>
    <g id="text_13">
     <!-- G -->
     <g transform="translate(616.99375 64.633125) scale(0.2 -0.2)">
      <use xlink:href="#DejaVuSans-47"/>
     </g>
    </g>
    <g id="line2d_13">
     <path d="M 560.99375 86.989375 
L 580.99375 86.989375 
L 600.99375 86.989375 
" style="fill: none; stroke: #ff7f0e; stroke-width: 1.5; stroke-linecap: square"/>
    </g>
    <g id="text_14">
     <!-- D -->
     <g transform="translate(616.99375 93.989375) scale(0.2 -0.2)">
      <use xlink:href="#DejaVuSans-44"/>
     </g>
    </g>
   </g>
  </g>
 </g>
 <defs>
  <clipPath id="p1f254ac9fe">
   <rect x="92.490625" y="31.43625" width="558" height="277.2"/>
  </clipPath>
 </defs>
</svg>
