<?xml version="1.0" encoding="utf-8" standalone="no"?>
<!DOCTYPE svg PUBLIC "-//W3C//DTD SVG 1.1//EN"
  "http://www.w3.org/Graphics/SVG/1.1/DTD/svg11.dtd">
<svg xmlns:xlink="http://www.w3.org/1999/xlink" width="675.923125pt" height="365.54875pt" viewBox="0 0 675.923125 365.54875" xmlns="http://www.w3.org/2000/svg" version="1.1">
 <metadata>
  <rdf:RDF xmlns:dc="http://purl.org/dc/elements/1.1/" xmlns:cc="http://creativecommons.org/ns#" xmlns:rdf="http://www.w3.org/1999/02/22-rdf-syntax-ns#">
   <cc:Work>
    <dc:type rdf:resource="http://purl.org/dc/dcmitype/StillImage"/>
    <dc:date>2024-02-01T21:03:24.689286</dc:date>
    <dc:format>image/svg+xml</dc:format>
    <dc:creator>
     <cc:Agent>
      <dc:title>Matplotlib v3.7.2, https://matplotlib.org/</dc:title>
     </cc:Agent>
    </dc:creator>
   </cc:Work>
  </rdf:RDF>
 </metadata>
 <defs>
  <style type="text/css">*{stroke-linejoin: round; stroke-linecap: butt}</style>
 </defs>
 <g id="figure_1">
  <g id="patch_1">
   <path d="M 0 365.54875 
L 675.923125 365.54875 
L 675.923125 -0 
L 0 -0 
z
" style="fill: #ffffff"/>
  </g>
  <g id="axes_1">
   <g id="patch_2">
    <path d="M 92.490625 308.63625 
L 650.490625 308.63625 
L 650.490625 31.43625 
L 92.490625 31.43625 
z
" style="fill: #ffffff"/>
   </g>
   <g id="matplotlib.axis_1">
    <g id="xtick_1">
     <g id="line2d_1">
      <defs>
       <path id="mb183420e9e" d="M 0 0 
L 0 3.5 
" style="stroke: #000000; stroke-width: 0.8"/>
      </defs>
      <g>
       <use xlink:href="#mb183420e9e" x="117.854261" y="308.63625" style="stroke: #000000; stroke-width: 0.8"/>
      </g>
     </g>
     <g id="text_1">
      <!-- 0 -->
      <g transform="translate(111.491761 330.833125) scale(0.2 -0.2)">
       <defs>
        <path id="DejaVuSans-30" d="M 2034 4250 
Q 1547 4250 1301 3770 
Q 1056 3291 1056 2328 
Q 1056 1369 1301 889 
Q 1547 409 2034 409 
Q 2525 409 2770 889 
Q 3016 1369 3016 2328 
Q 3016 3291 2770 3770 
Q 2525 4250 2034 4250 
z
M 2034 4750 
Q 2819 4750 3233 4129 
Q 3647 3509 3647 2328 
Q 3647 1150 3233 529 
Q 2819 -91 2034 -91 
Q 1250 -91 836 529 
Q 422 1150 422 2328 
Q 422 3509 836 4129 
Q 1250 4750 2034 4750 
z
" transform="scale(0.015625)"/>
       </defs>
       <use xlink:href="#DejaVuSans-30"/>
      </g>
     </g>
    </g>
    <g id="xtick_2">
     <g id="line2d_2">
      <g>
       <use xlink:href="#mb183420e9e" x="185.490625" y="308.63625" style="stroke: #000000; stroke-width: 0.8"/>
      </g>
     </g>
     <g id="text_2">
      <!-- 100 -->
      <g transform="translate(166.403125 330.833125) scale(0.2 -0.2)">
       <defs>
        <path id="DejaVuSans-31" d="M 794 531 
L 1825 531 
L 1825 4091 
L 703 3866 
L 703 4441 
L 1819 4666 
L 2450 4666 
L 2450 531 
L 3481 531 
L 3481 0 
L 794 0 
L 794 531 
z
" transform="scale(0.015625)"/>
       </defs>
       <use xlink:href="#DejaVuSans-31"/>
       <use xlink:href="#DejaVuSans-30" x="63.623047"/>
       <use xlink:href="#DejaVuSans-30" x="127.246094"/>
      </g>
     </g>
    </g>
    <g id="xtick_3">
     <g id="line2d_3">
      <g>
       <use xlink:href="#mb183420e9e" x="253.126989" y="308.63625" style="stroke: #000000; stroke-width: 0.8"/>
      </g>
     </g>
     <g id="text_3">
      <!-- 200 -->
      <g transform="translate(234.039489 330.833125) scale(0.2 -0.2)">
       <defs>
        <path id="DejaVuSans-32" d="M 1228 531 
L 3431 531 
L 3431 0 
L 469 0 
L 469 531 
Q 828 903 1448 1529 
Q 2069 2156 2228 2338 
Q 2531 2678 2651 2914 
Q 2772 3150 2772 3378 
Q 2772 3750 2511 3984 
Q 2250 4219 1831 4219 
Q 1534 4219 1204 4116 
Q 875 4013 500 3803 
L 500 4441 
Q 881 4594 1212 4672 
Q 1544 4750 1819 4750 
Q 2544 4750 2975 4387 
Q 3406 4025 3406 3419 
Q 3406 3131 3298 2873 
Q 3191 2616 2906 2266 
Q 2828 2175 2409 1742 
Q 1991 1309 1228 531 
z
" transform="scale(0.015625)"/>
       </defs>
       <use xlink:href="#DejaVuSans-32"/>
       <use xlink:href="#DejaVuSans-30" x="63.623047"/>
       <use xlink:href="#DejaVuSans-30" x="127.246094"/>
      </g>
     </g>
    </g>
    <g id="xtick_4">
     <g id="line2d_4">
      <g>
       <use xlink:href="#mb183420e9e" x="320.763352" y="308.63625" style="stroke: #000000; stroke-width: 0.8"/>
      </g>
     </g>
     <g id="text_4">
      <!-- 300 -->
      <g transform="translate(301.675852 330.833125) scale(0.2 -0.2)">
       <defs>
        <path id="DejaVuSans-33" d="M 2597 2516 
Q 3050 2419 3304 2112 
Q 3559 1806 3559 1356 
Q 3559 666 3084 287 
Q 2609 -91 1734 -91 
Q 1441 -91 1130 -33 
Q 819 25 488 141 
L 488 750 
Q 750 597 1062 519 
Q 1375 441 1716 441 
Q 2309 441 2620 675 
Q 2931 909 2931 1356 
Q 2931 1769 2642 2001 
Q 2353 2234 1838 2234 
L 1294 2234 
L 1294 2753 
L 1863 2753 
Q 2328 2753 2575 2939 
Q 2822 3125 2822 3475 
Q 2822 3834 2567 4026 
Q 2313 4219 1838 4219 
Q 1578 4219 1281 4162 
Q 984 4106 628 3988 
L 628 4550 
Q 988 4650 1302 4700 
Q 1616 4750 1894 4750 
Q 2613 4750 3031 4423 
Q 3450 4097 3450 3541 
Q 3450 3153 3228 2886 
Q 3006 2619 2597 2516 
z
" transform="scale(0.015625)"/>
       </defs>
       <use xlink:href="#DejaVuSans-33"/>
       <use xlink:href="#DejaVuSans-30" x="63.623047"/>
       <use xlink:href="#DejaVuSans-30" x="127.246094"/>
      </g>
     </g>
    </g>
    <g id="xtick_5">
     <g id="line2d_5">
      <g>
       <use xlink:href="#mb183420e9e" x="388.399716" y="308.63625" style="stroke: #000000; stroke-width: 0.8"/>
      </g>
     </g>
     <g id="text_5">
      <!-- 400 -->
      <g transform="translate(369.312216 330.833125) scale(0.2 -0.2)">
       <defs>
        <path id="DejaVuSans-34" d="M 2419 4116 
L 825 1625 
L 2419 1625 
L 2419 4116 
z
M 2253 4666 
L 3047 4666 
L 3047 1625 
L 3713 1625 
L 3713 1100 
L 3047 1100 
L 3047 0 
L 2419 0 
L 2419 1100 
L 313 1100 
L 313 1709 
L 2253 4666 
z
" transform="scale(0.015625)"/>
       </defs>
       <use xlink:href="#DejaVuSans-34"/>
       <use xlink:href="#DejaVuSans-30" x="63.623047"/>
       <use xlink:href="#DejaVuSans-30" x="127.246094"/>
      </g>
     </g>
    </g>
    <g id="xtick_6">
     <g id="line2d_6">
      <g>
       <use xlink:href="#mb183420e9e" x="456.03608" y="308.63625" style="stroke: #000000; stroke-width: 0.8"/>
      </g>
     </g>
     <g id="text_6">
      <!-- 500 -->
      <g transform="translate(436.94858 330.833125) scale(0.2 -0.2)">
       <defs>
        <path id="DejaVuSans-35" d="M 691 4666 
L 3169 4666 
L 3169 4134 
L 1269 4134 
L 1269 2991 
Q 1406 3038 1543 3061 
Q 1681 3084 1819 3084 
Q 2600 3084 3056 2656 
Q 3513 2228 3513 1497 
Q 3513 744 3044 326 
Q 2575 -91 1722 -91 
Q 1428 -91 1123 -41 
Q 819 9 494 109 
L 494 744 
Q 775 591 1075 516 
Q 1375 441 1709 441 
Q 2250 441 2565 725 
Q 2881 1009 2881 1497 
Q 2881 1984 2565 2268 
Q 2250 2553 1709 2553 
Q 1456 2553 1204 2497 
Q 953 2441 691 2322 
L 691 4666 
z
" transform="scale(0.015625)"/>
       </defs>
       <use xlink:href="#DejaVuSans-35"/>
       <use xlink:href="#DejaVuSans-30" x="63.623047"/>
       <use xlink:href="#DejaVuSans-30" x="127.246094"/>
      </g>
     </g>
    </g>
    <g id="xtick_7">
     <g id="line2d_7">
      <g>
       <use xlink:href="#mb183420e9e" x="523.672443" y="308.63625" style="stroke: #000000; stroke-width: 0.8"/>
      </g>
     </g>
     <g id="text_7">
      <!-- 600 -->
      <g transform="translate(504.584943 330.833125) scale(0.2 -0.2)">
       <defs>
        <path id="DejaVuSans-36" d="M 2113 2584 
Q 1688 2584 1439 2293 
Q 1191 2003 1191 1497 
Q 1191 994 1439 701 
Q 1688 409 2113 409 
Q 2538 409 2786 701 
Q 3034 994 3034 1497 
Q 3034 2003 2786 2293 
Q 2538 2584 2113 2584 
z
M 3366 4563 
L 3366 3988 
Q 3128 4100 2886 4159 
Q 2644 4219 2406 4219 
Q 1781 4219 1451 3797 
Q 1122 3375 1075 2522 
Q 1259 2794 1537 2939 
Q 1816 3084 2150 3084 
Q 2853 3084 3261 2657 
Q 3669 2231 3669 1497 
Q 3669 778 3244 343 
Q 2819 -91 2113 -91 
Q 1303 -91 875 529 
Q 447 1150 447 2328 
Q 447 3434 972 4092 
Q 1497 4750 2381 4750 
Q 2619 4750 2861 4703 
Q 3103 4656 3366 4563 
z
" transform="scale(0.015625)"/>
       </defs>
       <use xlink:href="#DejaVuSans-36"/>
       <use xlink:href="#DejaVuSans-30" x="63.623047"/>
       <use xlink:href="#DejaVuSans-30" x="127.246094"/>
      </g>
     </g>
    </g>
    <g id="xtick_8">
     <g id="line2d_8">
      <g>
       <use xlink:href="#mb183420e9e" x="591.308807" y="308.63625" style="stroke: #000000; stroke-width: 0.8"/>
      </g>
     </g>
     <g id="text_8">
      <!-- 700 -->
      <g transform="translate(572.221307 330.833125) scale(0.2 -0.2)">
       <defs>
        <path id="DejaVuSans-37" d="M 525 4666 
L 3525 4666 
L 3525 4397 
L 1831 0 
L 1172 0 
L 2766 4134 
L 525 4134 
L 525 4666 
z
" transform="scale(0.015625)"/>
       </defs>
       <use xlink:href="#DejaVuSans-37"/>
       <use xlink:href="#DejaVuSans-30" x="63.623047"/>
       <use xlink:href="#DejaVuSans-30" x="127.246094"/>
      </g>
     </g>
    </g>
    <g id="text_9">
     <!-- iterations -->
     <g transform="translate(324.035938 354.189375) scale(0.2 -0.2)">
      <defs>
       <path id="DejaVuSans-69" d="M 603 3500 
L 1178 3500 
L 1178 0 
L 603 0 
L 603 3500 
z
M 603 4863 
L 1178 4863 
L 1178 4134 
L 603 4134 
L 603 4863 
z
" transform="scale(0.015625)"/>
       <path id="DejaVuSans-74" d="M 1172 4494 
L 1172 3500 
L 2356 3500 
L 2356 3053 
L 1172 3053 
L 1172 1153 
Q 1172 725 1289 603 
Q 1406 481 1766 481 
L 2356 481 
L 2356 0 
L 1766 0 
Q 1100 0 847 248 
Q 594 497 594 1153 
L 594 3053 
L 172 3053 
L 172 3500 
L 594 3500 
L 594 4494 
L 1172 4494 
z
" transform="scale(0.015625)"/>
       <path id="DejaVuSans-65" d="M 3597 1894 
L 3597 1613 
L 953 1613 
Q 991 1019 1311 708 
Q 1631 397 2203 397 
Q 2534 397 2845 478 
Q 3156 559 3463 722 
L 3463 178 
Q 3153 47 2828 -22 
Q 2503 -91 2169 -91 
Q 1331 -91 842 396 
Q 353 884 353 1716 
Q 353 2575 817 3079 
Q 1281 3584 2069 3584 
Q 2775 3584 3186 3129 
Q 3597 2675 3597 1894 
z
M 3022 2063 
Q 3016 2534 2758 2815 
Q 2500 3097 2075 3097 
Q 1594 3097 1305 2825 
Q 1016 2553 972 2059 
L 3022 2063 
z
" transform="scale(0.015625)"/>
       <path id="DejaVuSans-72" d="M 2631 2963 
Q 2534 3019 2420 3045 
Q 2306 3072 2169 3072 
Q 1681 3072 1420 2755 
Q 1159 2438 1159 1844 
L 1159 0 
L 581 0 
L 581 3500 
L 1159 3500 
L 1159 2956 
Q 1341 3275 1631 3429 
Q 1922 3584 2338 3584 
Q 2397 3584 2469 3576 
Q 2541 3569 2628 3553 
L 2631 2963 
z
" transform="scale(0.015625)"/>
       <path id="DejaVuSans-61" d="M 2194 1759 
Q 1497 1759 1228 1600 
Q 959 1441 959 1056 
Q 959 750 1161 570 
Q 1363 391 1709 391 
Q 2188 391 2477 730 
Q 2766 1069 2766 1631 
L 2766 1759 
L 2194 1759 
z
M 3341 1997 
L 3341 0 
L 2766 0 
L 2766 531 
Q 2569 213 2275 61 
Q 1981 -91 1556 -91 
Q 1019 -91 701 211 
Q 384 513 384 1019 
Q 384 1609 779 1909 
Q 1175 2209 1959 2209 
L 2766 2209 
L 2766 2266 
Q 2766 2663 2505 2880 
Q 2244 3097 1772 3097 
Q 1472 3097 1187 3025 
Q 903 2953 641 2809 
L 641 3341 
Q 956 3463 1253 3523 
Q 1550 3584 1831 3584 
Q 2591 3584 2966 3190 
Q 3341 2797 3341 1997 
z
" transform="scale(0.015625)"/>
       <path id="DejaVuSans-6f" d="M 1959 3097 
Q 1497 3097 1228 2736 
Q 959 2375 959 1747 
Q 959 1119 1226 758 
Q 1494 397 1959 397 
Q 2419 397 2687 759 
Q 2956 1122 2956 1747 
Q 2956 2369 2687 2733 
Q 2419 3097 1959 3097 
z
M 1959 3584 
Q 2709 3584 3137 3096 
Q 3566 2609 3566 1747 
Q 3566 888 3137 398 
Q 2709 -91 1959 -91 
Q 1206 -91 779 398 
Q 353 888 353 1747 
Q 353 2609 779 3096 
Q 1206 3584 1959 3584 
z
" transform="scale(0.015625)"/>
       <path id="DejaVuSans-6e" d="M 3513 2113 
L 3513 0 
L 2938 0 
L 2938 2094 
Q 2938 2591 2744 2837 
Q 2550 3084 2163 3084 
Q 1697 3084 1428 2787 
Q 1159 2491 1159 1978 
L 1159 0 
L 581 0 
L 581 3500 
L 1159 3500 
L 1159 2956 
Q 1366 3272 1645 3428 
Q 1925 3584 2291 3584 
Q 2894 3584 3203 3211 
Q 3513 2838 3513 2113 
z
" transform="scale(0.015625)"/>
       <path id="DejaVuSans-73" d="M 2834 3397 
L 2834 2853 
Q 2591 2978 2328 3040 
Q 2066 3103 1784 3103 
Q 1356 3103 1142 2972 
Q 928 2841 928 2578 
Q 928 2378 1081 2264 
Q 1234 2150 1697 2047 
L 1894 2003 
Q 2506 1872 2764 1633 
Q 3022 1394 3022 966 
Q 3022 478 2636 193 
Q 2250 -91 1575 -91 
Q 1294 -91 989 -36 
Q 684 19 347 128 
L 347 722 
Q 666 556 975 473 
Q 1284 391 1588 391 
Q 1994 391 2212 530 
Q 2431 669 2431 922 
Q 2431 1156 2273 1281 
Q 2116 1406 1581 1522 
L 1381 1569 
Q 847 1681 609 1914 
Q 372 2147 372 2553 
Q 372 3047 722 3315 
Q 1072 3584 1716 3584 
Q 2034 3584 2315 3537 
Q 2597 3491 2834 3397 
z
" transform="scale(0.015625)"/>
      </defs>
      <use xlink:href="#DejaVuSans-69"/>
      <use xlink:href="#DejaVuSans-74" x="27.783203"/>
      <use xlink:href="#DejaVuSans-65" x="66.992188"/>
      <use xlink:href="#DejaVuSans-72" x="128.515625"/>
      <use xlink:href="#DejaVuSans-61" x="169.628906"/>
      <use xlink:href="#DejaVuSans-74" x="230.908203"/>
      <use xlink:href="#DejaVuSans-69" x="270.117188"/>
      <use xlink:href="#DejaVuSans-6f" x="297.900391"/>
      <use xlink:href="#DejaVuSans-6e" x="359.082031"/>
      <use xlink:href="#DejaVuSans-73" x="422.460938"/>
     </g>
    </g>
   </g>
   <g id="matplotlib.axis_2">
    <g id="ytick_1">
     <g id="line2d_9">
      <defs>
       <path id="m1810625d81" d="M 0 0 
L -3.5 0 
" style="stroke: #000000; stroke-width: 0.8"/>
      </defs>
      <g>
       <use xlink:href="#m1810625d81" x="92.490625" y="234.626549" style="stroke: #000000; stroke-width: 0.8"/>
      </g>
     </g>
     <g id="text_10">
      <!-- −200 -->
      <g transform="translate(30.55625 242.224987) scale(0.2 -0.2)">
       <defs>
        <path id="DejaVuSans-2212" d="M 678 2272 
L 4684 2272 
L 4684 1741 
L 678 1741 
L 678 2272 
z
" transform="scale(0.015625)"/>
       </defs>
       <use xlink:href="#DejaVuSans-2212"/>
       <use xlink:href="#DejaVuSans-32" x="83.789062"/>
       <use xlink:href="#DejaVuSans-30" x="147.412109"/>
       <use xlink:href="#DejaVuSans-30" x="211.035156"/>
      </g>
     </g>
    </g>
    <g id="ytick_2">
     <g id="line2d_10">
      <g>
       <use xlink:href="#m1810625d81" x="92.490625" y="151.376755" style="stroke: #000000; stroke-width: 0.8"/>
      </g>
     </g>
     <g id="text_11">
      <!-- 0 -->
      <g transform="translate(72.765625 158.975193) scale(0.2 -0.2)">
       <use xlink:href="#DejaVuSans-30"/>
      </g>
     </g>
    </g>
    <g id="ytick_3">
     <g id="line2d_11">
      <g>
       <use xlink:href="#m1810625d81" x="92.490625" y="68.126962" style="stroke: #000000; stroke-width: 0.8"/>
      </g>
     </g>
     <g id="text_12">
      <!-- 200 -->
      <g transform="translate(47.315625 75.725399) scale(0.2 -0.2)">
       <use xlink:href="#DejaVuSans-32"/>
       <use xlink:href="#DejaVuSans-30" x="63.623047"/>
       <use xlink:href="#DejaVuSans-30" x="127.246094"/>
      </g>
     </g>
    </g>
    <g id="text_13">
     <!-- Loss -->
     <g transform="translate(22.396875 191.970625) rotate(-90) scale(0.2 -0.2)">
      <defs>
       <path id="DejaVuSans-4c" d="M 628 4666 
L 1259 4666 
L 1259 531 
L 3531 531 
L 3531 0 
L 628 0 
L 628 4666 
z
" transform="scale(0.015625)"/>
      </defs>
      <use xlink:href="#DejaVuSans-4c"/>
      <use xlink:href="#DejaVuSans-6f" x="53.962891"/>
      <use xlink:href="#DejaVuSans-73" x="115.144531"/>
      <use xlink:href="#DejaVuSans-73" x="167.244141"/>
     </g>
    </g>
   </g>
   <g id="line2d_12">
    <path d="M 117.854261 114.726306 
L 118.530625 106.081918 
L 119.206989 66.645135 
L 119.883352 44.03625 
L 120.559716 55.607746 
L 121.23608 116.630126 
L 121.912443 138.664661 
L 122.588807 137.321124 
L 123.26517 122.741893 
L 123.941534 120.788415 
L 124.617898 127.999278 
L 125.294261 122.989826 
L 125.970625 108.458537 
L 126.646989 122.646974 
L 127.323352 126.556792 
L 127.999716 123.898785 
L 128.67608 120.201515 
L 129.352443 126.255443 
L 130.028807 122.797609 
L 130.70517 127.006439 
L 131.381534 118.64052 
L 132.057898 124.366742 
L 132.734261 117.662909 
L 133.410625 117.330772 
L 134.086989 114.695364 
L 134.763352 107.764658 
L 135.439716 108.435758 
L 136.11608 107.051208 
L 136.792443 106.219874 
L 137.468807 110.116506 
L 138.14517 106.40337 
L 138.821534 103.735206 
L 139.497898 107.114803 
L 140.174261 106.33327 
L 140.850625 103.507469 
L 141.526989 108.842958 
L 142.203352 102.920055 
L 142.879716 108.429686 
L 143.55608 110.936486 
L 144.232443 110.869457 
L 144.908807 106.939005 
L 145.58517 105.409875 
L 146.261534 110.445841 
L 146.937898 111.131011 
L 147.614261 113.912796 
L 148.290625 112.411065 
L 148.966989 111.591078 
L 149.643352 112.594274 
L 150.319716 115.130586 
L 150.99608 112.662515 
L 151.672443 111.560611 
L 152.348807 112.925905 
L 153.02517 108.346789 
L 153.701534 112.549272 
L 154.377898 114.58122 
L 155.054261 115.179402 
L 155.730625 119.262292 
L 156.406989 117.014571 
L 157.083352 116.380063 
L 157.759716 120.267786 
L 158.43608 120.37667 
L 159.112443 120.879402 
L 159.788807 120.548412 
L 160.46517 123.597646 
L 161.141534 123.431828 
L 161.817898 121.429234 
L 162.494261 122.560572 
L 163.170625 119.85272 
L 163.846989 118.694633 
L 165.199716 118.68102 
L 165.87608 118.119314 
L 166.552443 121.17012 
L 167.228807 119.147663 
L 167.90517 116.7473 
L 168.581534 113.297092 
L 169.257898 118.688744 
L 169.934261 120.343387 
L 170.610625 123.308616 
L 171.286989 120.224883 
L 171.963352 118.109455 
L 172.639716 120.364991 
L 173.31608 123.245243 
L 174.668807 118.407012 
L 175.34517 120.74258 
L 176.021534 122.653338 
L 176.697898 123.836576 
L 177.374261 125.744796 
L 178.050625 123.447651 
L 178.726989 128.318527 
L 179.403352 129.080516 
L 180.079716 128.830815 
L 180.75608 128.20745 
L 181.432443 128.76154 
L 182.108807 132.053196 
L 182.78517 133.596636 
L 183.461534 133.934515 
L 184.137898 135.141517 
L 184.814261 135.137063 
L 185.490625 134.780402 
L 186.166989 135.202134 
L 186.843352 135.093015 
L 187.519716 136.905242 
L 188.872443 142.399589 
L 189.548807 142.128559 
L 190.22517 142.779249 
L 190.901534 139.598641 
L 191.577898 140.408307 
L 192.254261 138.506123 
L 192.930625 139.937779 
L 193.606989 138.802053 
L 194.283352 137.3209 
L 195.63608 135.089312 
L 196.312443 138.125691 
L 196.988807 137.931203 
L 197.66517 136.48173 
L 198.341534 135.887461 
L 199.017898 134.35985 
L 199.694261 133.177328 
L 200.370625 135.336782 
L 201.046989 134.894951 
L 201.723352 135.405771 
L 202.399716 135.395858 
L 203.07608 136.106534 
L 203.752443 138.160945 
L 205.10517 138.778501 
L 205.781534 139.328544 
L 206.457898 137.455284 
L 207.134261 138.146409 
L 207.810625 139.584531 
L 208.486989 139.54211 
L 209.163352 140.772087 
L 209.839716 139.328314 
L 210.51608 141.270704 
L 211.868807 138.38691 
L 212.54517 138.267975 
L 213.221534 138.407029 
L 213.897898 138.064147 
L 214.574261 136.366411 
L 215.250625 136.725459 
L 215.926989 137.7051 
L 216.603352 136.859223 
L 217.279716 139.049001 
L 217.95608 137.336016 
L 218.632443 137.257625 
L 219.308807 138.794003 
L 219.98517 138.317046 
L 220.661534 138.127537 
L 221.337898 137.085883 
L 222.014261 140.357201 
L 222.690625 142.188057 
L 223.366989 140.211719 
L 224.043352 141.214973 
L 224.719716 140.469004 
L 225.39608 140.399257 
L 226.072443 137.341402 
L 226.748807 136.956775 
L 227.42517 138.004539 
L 228.101534 141.917493 
L 228.777898 141.394417 
L 229.454261 139.770456 
L 230.130625 138.757231 
L 230.806989 139.627896 
L 231.483352 141.258242 
L 232.159716 142.544043 
L 232.83608 142.319792 
L 233.512443 139.759331 
L 234.188807 140.416344 
L 234.86517 141.45395 
L 235.541534 141.363625 
L 236.217898 140.978604 
L 236.894261 142.910652 
L 237.570625 142.90158 
L 238.246989 144.549058 
L 238.923352 145.17122 
L 239.599716 145.44887 
L 240.27608 144.416339 
L 240.952443 144.947962 
L 241.628807 143.814591 
L 242.30517 145.207917 
L 242.981534 145.528567 
L 243.657898 144.861957 
L 244.334261 145.227471 
L 245.010625 144.527959 
L 245.686989 145.046411 
L 246.363352 146.68308 
L 247.039716 147.135187 
L 247.71608 145.32902 
L 248.392443 143.988933 
L 249.068807 145.81337 
L 249.74517 144.652605 
L 250.421534 145.491722 
L 251.097898 145.544312 
L 251.774261 146.479505 
L 252.450625 145.926367 
L 253.126989 146.569906 
L 253.803352 146.635087 
L 254.479716 145.762171 
L 255.15608 146.892018 
L 255.832443 148.983063 
L 256.508807 148.879743 
L 257.18517 147.783513 
L 257.861534 148.254067 
L 258.537898 147.888736 
L 259.214261 146.84581 
L 259.890625 146.202176 
L 260.566989 146.837467 
L 261.243352 146.997663 
L 262.59608 146.666794 
L 263.948807 146.848622 
L 264.62517 146.639285 
L 265.301534 145.433562 
L 265.977898 146.697151 
L 266.654261 146.488051 
L 267.330625 148.265055 
L 268.006989 147.613654 
L 268.683352 147.710403 
L 269.359716 147.419561 
L 270.03608 147.740517 
L 270.712443 146.590609 
L 272.06517 147.987777 
L 273.417898 148.092569 
L 274.094261 147.626153 
L 274.770625 148.346627 
L 275.446989 147.834075 
L 276.123352 146.928657 
L 276.799716 148.067958 
L 277.47608 147.258653 
L 278.152443 148.865305 
L 278.828807 148.410553 
L 279.50517 148.967358 
L 280.181534 149.221557 
L 280.857898 149.822095 
L 281.534261 148.406232 
L 282.210625 148.806973 
L 282.886989 148.539764 
L 283.563352 149.07262 
L 284.239716 148.908721 
L 284.91608 148.61838 
L 286.268807 149.440954 
L 286.94517 149.36957 
L 287.621534 150.013568 
L 288.297898 149.776241 
L 288.974261 150.325511 
L 289.650625 149.880589 
L 290.326989 151.162299 
L 291.003352 149.985682 
L 291.679716 151.13516 
L 292.35608 149.965057 
L 293.708807 149.636812 
L 294.38517 150.277934 
L 295.061534 150.130294 
L 295.737898 149.369379 
L 296.414261 148.998461 
L 297.766989 149.411097 
L 298.443352 150.464825 
L 299.119716 150.199464 
L 299.79608 150.562235 
L 300.472443 150.590935 
L 301.148807 151.04972 
L 301.82517 151.841912 
L 302.501534 151.427364 
L 303.177898 151.175547 
L 303.854261 152.473986 
L 304.530625 151.552817 
L 305.206989 151.225341 
L 305.883352 151.595681 
L 306.559716 152.660834 
L 307.23608 151.773162 
L 307.912443 152.094372 
L 308.588807 152.17824 
L 309.26517 151.68895 
L 311.294261 152.286212 
L 311.970625 152.200918 
L 312.646989 152.280159 
L 313.323352 151.754625 
L 313.999716 152.272882 
L 315.352443 151.842046 
L 316.028807 152.141914 
L 316.70517 152.770268 
L 317.381534 152.207484 
L 318.057898 152.377094 
L 318.734261 152.188492 
L 319.410625 152.676249 
L 320.086989 151.731846 
L 321.439716 151.345152 
L 322.11608 152.186997 
L 322.792443 152.122104 
L 323.468807 151.359375 
L 324.14517 151.397048 
L 324.821534 151.085501 
L 326.174261 152.610465 
L 326.850625 152.103367 
L 327.526989 151.755312 
L 328.203352 151.745505 
L 328.879716 151.555412 
L 329.55608 151.233799 
L 330.908807 151.617299 
L 331.58517 151.69156 
L 332.261534 151.931251 
L 332.937898 150.713665 
L 333.614261 151.562487 
L 334.290625 151.106358 
L 335.643352 150.617443 
L 336.319716 151.580261 
L 336.99608 151.282821 
L 337.672443 151.651857 
L 338.348807 151.11709 
L 339.02517 151.018062 
L 339.701534 149.816142 
L 340.377898 150.538729 
L 341.054261 151.54643 
L 341.730625 151.134366 
L 342.406989 150.083957 
L 343.083352 149.856048 
L 343.759716 150.084806 
L 345.112443 150.905625 
L 346.46517 150.592418 
L 347.141534 150.540132 
L 347.817898 150.835766 
L 348.494261 149.605204 
L 349.170625 150.155542 
L 349.846989 148.359728 
L 350.523352 149.069275 
L 351.199716 149.470042 
L 351.87608 148.774616 
L 352.552443 149.156396 
L 353.228807 149.200486 
L 353.90517 148.372847 
L 354.581534 148.781279 
L 355.257898 148.915586 
L 355.934261 148.736299 
L 356.610625 148.278376 
L 357.286989 150.048145 
L 357.963352 149.794805 
L 358.639716 148.207867 
L 359.31608 147.006615 
L 359.992443 149.701961 
L 360.668807 148.584931 
L 361.34517 150.113674 
L 362.021534 149.148353 
L 362.697898 149.050289 
L 363.374261 149.482133 
L 364.050625 149.221502 
L 365.403352 149.716106 
L 366.75608 149.448828 
L 367.432443 148.575808 
L 368.108807 148.865793 
L 368.78517 149.033621 
L 369.461534 149.043221 
L 370.137898 148.766445 
L 370.814261 150.10204 
L 371.490625 149.976308 
L 372.166989 149.01284 
L 373.519716 150.415562 
L 374.19608 150.191345 
L 374.872443 149.765998 
L 375.548807 150.542045 
L 376.22517 151.094122 
L 376.901534 150.749297 
L 377.577898 150.748543 
L 378.254261 150.552951 
L 378.930625 150.811243 
L 379.606989 150.267491 
L 380.283352 150.78941 
L 380.959716 151.586957 
L 381.63608 150.325004 
L 382.312443 151.032796 
L 382.988807 150.88367 
L 383.66517 150.884052 
L 384.341534 151.261011 
L 385.017898 150.707683 
L 385.694261 150.648162 
L 386.370625 149.982535 
L 387.046989 150.220711 
L 387.723352 150.660541 
L 388.399716 150.245039 
L 389.07608 151.090624 
L 389.752443 151.255264 
L 390.428807 150.92556 
L 391.10517 151.095426 
L 391.781534 151.622911 
L 392.457898 151.330097 
L 393.134261 151.27642 
L 393.810625 151.926709 
L 394.486989 151.644614 
L 395.163352 151.748004 
L 395.839716 151.589741 
L 396.51608 151.096936 
L 397.192443 151.232504 
L 397.868807 152.274212 
L 398.54517 151.431557 
L 399.221534 152.15493 
L 399.897898 150.750337 
L 400.574261 151.642762 
L 401.250625 152.003527 
L 401.926989 151.370928 
L 402.603352 151.81159 
L 404.632443 152.347011 
L 405.308807 152.287551 
L 405.98517 152.792889 
L 406.661534 152.330353 
L 407.337898 152.840892 
L 408.014261 152.952117 
L 408.690625 152.415944 
L 409.366989 152.560223 
L 410.043352 151.791173 
L 410.719716 151.744005 
L 411.39608 151.92552 
L 412.072443 151.236089 
L 412.748807 151.001596 
L 413.42517 152.275131 
L 414.101534 151.230055 
L 416.130625 152.57704 
L 416.806989 152.080164 
L 417.483352 151.791563 
L 418.159716 152.511252 
L 418.83608 151.929362 
L 419.512443 152.536765 
L 420.188807 151.959364 
L 420.86517 152.067056 
L 421.541534 152.043511 
L 422.894261 152.304802 
L 423.570625 151.700389 
L 424.246989 151.420254 
L 424.923352 151.287794 
L 425.599716 151.665874 
L 426.27608 152.210526 
L 426.952443 152.047336 
L 427.628807 152.215515 
L 428.30517 151.418016 
L 428.981534 151.783619 
L 430.334261 151.755368 
L 431.010625 152.372138 
L 432.363352 152.398249 
L 433.039716 152.2066 
L 433.71608 152.143606 
L 434.392443 152.661245 
L 435.068807 152.418168 
L 435.74517 151.076607 
L 436.421534 152.230132 
L 437.097898 152.254543 
L 437.774261 152.085501 
L 438.450625 152.097016 
L 439.803352 151.575627 
L 441.15608 151.848856 
L 441.832443 151.953318 
L 442.508807 152.623378 
L 443.861534 151.842257 
L 444.537898 152.267785 
L 445.890625 152.143958 
L 446.566989 150.987889 
L 447.243352 151.397289 
L 447.919716 151.975647 
L 448.59608 151.998391 
L 449.272443 151.335571 
L 449.948807 151.682935 
L 450.62517 152.632733 
L 451.301534 152.19404 
L 453.330625 151.946123 
L 454.006989 152.200519 
L 454.683352 152.193347 
L 455.359716 151.984494 
L 456.712443 152.365496 
L 457.388807 152.266247 
L 458.06517 151.934436 
L 458.741534 152.40168 
L 459.417898 152.065543 
L 460.094261 151.446763 
L 460.770625 151.828722 
L 461.446989 151.947018 
L 462.123352 152.448695 
L 462.799716 151.844327 
L 463.47608 151.506004 
L 464.152443 151.857779 
L 464.828807 151.871857 
L 465.50517 151.079205 
L 466.181534 151.507201 
L 466.857898 151.45044 
L 467.534261 151.647678 
L 468.210625 151.448021 
L 468.886989 151.495779 
L 469.563352 150.817983 
L 470.239716 151.706664 
L 470.91608 151.308106 
L 471.592443 151.276547 
L 472.268807 151.5955 
L 472.94517 151.62933 
L 473.621534 151.070949 
L 474.297898 151.645706 
L 474.974261 151.69572 
L 476.326989 151.149644 
L 477.003352 151.458323 
L 477.679716 151.46821 
L 478.35608 152.024571 
L 479.032443 152.047261 
L 479.708807 151.13832 
L 480.38517 151.604247 
L 481.061534 151.562435 
L 481.737898 151.300639 
L 482.414261 151.701181 
L 483.090625 151.454309 
L 483.766989 151.537243 
L 484.443352 151.037532 
L 485.119716 151.344607 
L 485.79608 151.194195 
L 486.472443 151.298938 
L 487.148807 151.180666 
L 488.501534 151.24606 
L 489.177898 151.461987 
L 489.854261 151.801094 
L 490.530625 151.715007 
L 491.206989 151.495821 
L 491.883352 151.575049 
L 492.559716 152.208455 
L 493.23608 151.707065 
L 493.912443 151.726826 
L 494.588807 151.988182 
L 495.26517 152.692704 
L 495.941534 152.089559 
L 497.294261 152.427433 
L 497.970625 152.218327 
L 498.646989 152.372906 
L 499.323352 152.029724 
L 499.999716 152.286971 
L 500.67608 151.970467 
L 501.352443 152.555662 
L 502.028807 152.245332 
L 503.381534 152.541199 
L 504.057898 151.979995 
L 504.734261 152.520662 
L 505.410625 152.584042 
L 506.086989 152.14573 
L 506.763352 152.190755 
L 507.439716 151.690852 
L 508.11608 152.114592 
L 508.792443 152.29273 
L 510.14517 152.107116 
L 510.821534 152.648587 
L 511.497898 152.284687 
L 512.850625 152.570828 
L 513.526989 151.94545 
L 514.203352 152.373726 
L 515.55608 152.544228 
L 516.232443 152.822214 
L 516.908807 152.360177 
L 517.58517 152.090089 
L 518.261534 152.535167 
L 519.614261 152.221624 
L 520.290625 152.436898 
L 520.966989 152.35947 
L 522.319716 152.520215 
L 522.99608 153.016444 
L 523.672443 151.731253 
L 524.348807 152.950878 
L 525.02517 152.456644 
L 526.377898 152.995511 
L 527.054261 152.141711 
L 527.730625 152.638712 
L 528.406989 152.800987 
L 529.759716 152.785811 
L 530.43608 152.008473 
L 531.112443 152.737062 
L 531.788807 152.400565 
L 532.46517 152.305675 
L 533.141534 151.975513 
L 533.817898 152.573437 
L 534.494261 151.750127 
L 535.170625 152.303332 
L 535.846989 148.524838 
L 536.523352 151.957175 
L 537.199716 151.768497 
L 537.87608 151.228879 
L 538.552443 149.876511 
L 539.228807 150.908245 
L 539.90517 150.634714 
L 540.581534 150.781189 
L 541.257898 151.133643 
L 541.934261 150.985306 
L 542.610625 151.421726 
L 543.286989 151.07346 
L 544.639716 151.445347 
L 545.31608 151.544725 
L 545.992443 151.284326 
L 546.668807 151.233488 
L 547.34517 151.776222 
L 548.021534 152.068305 
L 548.697898 151.888559 
L 549.374261 152.299186 
L 550.050625 152.396925 
L 550.726989 152.804566 
L 551.403352 151.928435 
L 552.75608 151.75361 
L 553.432443 152.006023 
L 554.108807 152.058703 
L 554.78517 151.994579 
L 555.461534 151.590229 
L 556.814261 151.647107 
L 557.490625 151.896192 
L 558.166989 151.728772 
L 559.519716 151.971596 
L 560.19608 151.477873 
L 561.548807 152.194692 
L 563.577898 152.161486 
L 564.254261 151.747277 
L 564.930625 151.809392 
L 565.606989 152.215417 
L 566.283352 152.396104 
L 566.959716 152.099389 
L 567.63608 152.378092 
L 569.66517 152.240698 
L 570.341534 151.902568 
L 571.017898 152.467766 
L 571.694261 152.124655 
L 572.370625 152.70934 
L 573.046989 152.230334 
L 573.723352 152.155856 
L 574.399716 152.355853 
L 575.07608 152.094614 
L 575.752443 152.597834 
L 576.428807 152.284626 
L 577.10517 151.680398 
L 577.781534 152.298811 
L 578.457898 152.390976 
L 579.134261 152.345511 
L 579.810625 151.894844 
L 580.486989 151.847075 
L 581.163352 152.100982 
L 581.839716 151.939378 
L 582.51608 152.30459 
L 583.868807 152.323955 
L 584.54517 151.872378 
L 585.221534 152.179649 
L 585.897898 152.235323 
L 586.574261 151.742924 
L 587.250625 151.994381 
L 587.926989 151.714282 
L 588.603352 152.59086 
L 589.279716 152.371201 
L 589.95608 152.410087 
L 590.632443 151.979833 
L 591.308807 152.13412 
L 592.661534 151.953103 
L 593.337898 152.663517 
L 594.014261 152.850887 
L 594.690625 152.335265 
L 595.366989 152.093904 
L 596.043352 152.09731 
L 596.719716 151.861739 
L 597.39608 152.22775 
L 598.072443 152.143963 
L 598.748807 151.920261 
L 599.42517 152.292448 
L 600.777898 151.608838 
L 601.454261 151.884717 
L 602.130625 151.948034 
L 603.483352 151.885639 
L 604.159716 151.98697 
L 604.83608 151.792668 
L 605.512443 151.911078 
L 606.188807 151.859503 
L 607.541534 151.98688 
L 608.217898 152.018334 
L 608.894261 152.415296 
L 610.246989 151.914235 
L 610.923352 151.89707 
L 612.27608 152.22128 
L 614.981534 151.399755 
L 615.657898 152.082493 
L 616.334261 151.858426 
L 617.010625 151.14337 
L 617.686989 151.339535 
L 618.363352 151.059344 
L 619.039716 151.37599 
L 621.068807 151.377481 
L 621.74517 151.680836 
L 623.097898 151.543694 
L 623.774261 150.926786 
L 625.126989 151.767019 
L 625.126989 151.767019 
" clip-path="url(#p714566021c)" style="fill: none; stroke: #1f77b4; stroke-width: 1.5; stroke-linecap: square"/>
   </g>
   <g id="line2d_13">
    <path d="M 117.854261 257.658289 
L 118.530625 262.165711 
L 119.206989 291.943205 
L 119.883352 296.03625 
L 121.23608 271.11781 
L 121.912443 227.057898 
L 122.588807 207.5709 
L 123.26517 203.182002 
L 123.941534 203.974264 
L 124.617898 211.845554 
L 125.294261 205.520858 
L 125.970625 201.196422 
L 126.646989 195.910364 
L 127.323352 195.703205 
L 127.999716 192.753227 
L 128.67608 197.401453 
L 129.352443 172.184989 
L 130.028807 172.103903 
L 130.70517 169.627321 
L 131.381534 171.510379 
L 132.057898 166.488463 
L 132.734261 169.662831 
L 133.410625 167.766312 
L 134.086989 168.409239 
L 134.763352 168.391562 
L 135.439716 165.287616 
L 136.11608 166.881572 
L 136.792443 166.794035 
L 137.468807 165.094572 
L 138.14517 166.165148 
L 138.821534 165.451608 
L 139.497898 164.010929 
L 140.174261 163.25549 
L 140.850625 164.862355 
L 141.526989 163.978923 
L 142.203352 163.485609 
L 143.55608 161.702402 
L 144.232443 160.420844 
L 144.908807 164.815428 
L 145.58517 163.952454 
L 146.261534 162.432016 
L 146.937898 163.099974 
L 147.614261 162.512979 
L 148.290625 162.265303 
L 148.966989 163.58709 
L 149.643352 161.410305 
L 150.319716 162.710343 
L 150.99608 161.565435 
L 151.672443 161.16584 
L 152.348807 161.539059 
L 153.02517 162.557454 
L 153.701534 161.171452 
L 154.377898 161.384449 
L 155.054261 160.92679 
L 155.730625 160.831448 
L 157.083352 161.328739 
L 157.759716 161.196216 
L 158.43608 161.194354 
L 159.112443 161.482621 
L 159.788807 161.201429 
L 160.46517 159.7919 
L 161.141534 160.884693 
L 161.817898 160.064798 
L 162.494261 160.550759 
L 163.170625 162.077185 
L 163.846989 163.054654 
L 164.523352 160.376997 
L 165.199716 163.420413 
L 165.87608 160.81798 
L 166.552443 160.706714 
L 167.228807 161.975153 
L 167.90517 162.97898 
L 168.581534 161.428681 
L 169.257898 160.805188 
L 170.610625 160.193846 
L 171.963352 162.631121 
L 172.639716 161.251941 
L 173.31608 159.442412 
L 173.992443 161.834268 
L 174.668807 161.591212 
L 175.34517 160.94865 
L 176.021534 161.58259 
L 176.697898 161.661909 
L 177.374261 162.60633 
L 178.726989 161.360388 
L 180.079716 161.703732 
L 180.75608 160.981433 
L 182.108807 161.378065 
L 183.461534 159.80897 
L 184.137898 160.21275 
L 184.814261 160.462935 
L 185.490625 161.088266 
L 186.843352 161.389012 
L 187.519716 160.004467 
L 188.19608 161.423814 
L 188.872443 161.588497 
L 189.548807 160.70362 
L 190.22517 161.311015 
L 190.901534 162.288528 
L 191.577898 161.574032 
L 192.254261 162.933584 
L 192.930625 162.761098 
L 193.606989 161.823109 
L 194.283352 163.255695 
L 194.959716 162.48772 
L 195.63608 162.510713 
L 196.312443 162.845991 
L 196.988807 162.220304 
L 197.66517 162.518876 
L 198.341534 163.464852 
L 199.017898 164.100062 
L 199.694261 161.71733 
L 200.370625 160.953926 
L 201.046989 162.188098 
L 202.399716 161.382858 
L 203.07608 162.157181 
L 203.752443 162.385889 
L 204.428807 160.804717 
L 205.10517 161.59229 
L 205.781534 161.478432 
L 206.457898 161.686822 
L 207.134261 162.509587 
L 207.810625 161.135064 
L 208.486989 161.60804 
L 209.163352 162.642114 
L 209.839716 163.370876 
L 210.51608 161.109782 
L 211.192443 153.752785 
L 211.868807 154.884893 
L 212.54517 154.642952 
L 213.221534 156.15602 
L 213.897898 156.257159 
L 214.574261 154.933457 
L 215.250625 156.047679 
L 215.926989 156.254787 
L 216.603352 157.181505 
L 217.279716 156.53724 
L 217.95608 156.437924 
L 218.632443 156.791371 
L 219.308807 156.526013 
L 219.98517 156.899174 
L 220.661534 156.612682 
L 221.337898 155.971204 
L 222.014261 156.374247 
L 223.366989 156.676973 
L 224.043352 156.380954 
L 224.719716 156.744293 
L 225.39608 156.508302 
L 226.748807 156.742195 
L 227.42517 156.015266 
L 228.101534 156.667905 
L 229.454261 156.571618 
L 230.130625 156.876875 
L 230.806989 157.011189 
L 232.159716 156.562438 
L 232.83608 157.11912 
L 233.512443 157.288222 
L 234.188807 156.918805 
L 234.86517 156.340906 
L 235.541534 157.068537 
L 236.217898 156.310565 
L 237.570625 155.798621 
L 238.246989 156.372213 
L 238.923352 156.620934 
L 239.599716 156.340232 
L 240.27608 155.934658 
L 240.952443 155.997717 
L 241.628807 156.237635 
L 242.30517 156.252845 
L 242.981534 155.534283 
L 243.657898 156.106492 
L 244.334261 155.971055 
L 245.010625 155.262929 
L 245.686989 155.565248 
L 246.363352 155.523103 
L 247.039716 155.801346 
L 247.71608 156.566333 
L 248.392443 156.216639 
L 249.068807 156.133157 
L 249.74517 155.391582 
L 250.421534 155.66232 
L 251.097898 156.145638 
L 251.774261 155.672539 
L 252.450625 155.874484 
L 253.126989 155.743108 
L 253.803352 156.238413 
L 254.479716 155.989438 
L 255.15608 156.156793 
L 255.832443 156.440338 
L 257.18517 155.672807 
L 257.861534 155.631246 
L 258.537898 155.827528 
L 259.214261 156.184732 
L 259.890625 155.693904 
L 260.566989 156.168457 
L 261.243352 156.299126 
L 261.919716 155.762169 
L 263.272443 156.752607 
L 263.948807 155.909613 
L 264.62517 156.437744 
L 265.977898 156.503263 
L 266.654261 156.287067 
L 267.330625 156.348738 
L 268.006989 156.141802 
L 268.683352 156.48928 
L 269.359716 155.958175 
L 270.03608 155.93672 
L 270.712443 156.125692 
L 271.388807 156.556642 
L 272.06517 156.08584 
L 272.741534 155.853602 
L 273.417898 156.224566 
L 274.770625 155.977781 
L 275.446989 156.594103 
L 276.123352 155.667991 
L 277.47608 156.37959 
L 278.152443 156.129236 
L 278.828807 156.608581 
L 279.50517 155.852199 
L 280.181534 155.933841 
L 280.857898 155.823862 
L 281.534261 156.261902 
L 282.210625 156.217012 
L 282.886989 156.433896 
L 283.563352 156.219792 
L 284.239716 156.336659 
L 284.91608 156.096349 
L 285.592443 156.14078 
L 286.268807 156.421176 
L 288.297898 156.095558 
L 288.974261 157.212045 
L 289.650625 156.587763 
L 290.326989 156.30008 
L 291.003352 156.348145 
L 291.679716 156.214621 
L 292.35608 156.433314 
L 293.032443 156.347303 
L 294.38517 156.730407 
L 295.061534 156.311451 
L 295.737898 156.422137 
L 296.414261 156.363393 
L 297.090625 156.605773 
L 299.79608 156.104843 
L 300.472443 156.384421 
L 301.148807 156.488825 
L 301.82517 156.398473 
L 302.501534 156.77701 
L 303.854261 156.438086 
L 304.530625 156.575574 
L 305.206989 156.895077 
L 305.883352 156.586644 
L 306.559716 156.758388 
L 307.23608 156.656062 
L 307.912443 156.965966 
L 309.26517 156.474212 
L 309.941534 156.979237 
L 311.970625 156.78095 
L 312.646989 157.101613 
L 313.323352 156.75467 
L 313.999716 156.551084 
L 315.352443 157.098151 
L 316.028807 156.494078 
L 316.70517 156.470489 
L 317.381534 156.88698 
L 318.057898 156.736063 
L 318.734261 156.7347 
L 319.410625 157.464837 
L 320.086989 157.245992 
L 320.763352 156.862099 
L 321.439716 156.935837 
L 322.11608 156.769388 
L 322.792443 157.033425 
L 323.468807 156.931994 
L 324.821534 157.300986 
L 325.497898 156.96563 
L 326.174261 157.144787 
L 327.526989 156.797355 
L 328.203352 157.022033 
L 328.879716 156.650283 
L 329.55608 156.643316 
L 330.232443 157.060201 
L 330.908807 156.635579 
L 332.261534 156.742267 
L 332.937898 156.495117 
L 333.614261 156.37065 
L 334.290625 156.805563 
L 334.966989 157.010789 
L 335.643352 156.41239 
L 336.319716 156.30752 
L 336.99608 156.518043 
L 337.672443 154.394413 
L 338.348807 153.868807 
L 339.02517 154.745371 
L 339.701534 154.964107 
L 340.377898 155.882272 
L 342.406989 155.2932 
L 343.759716 155.89478 
L 344.43608 155.705633 
L 345.112443 155.735094 
L 345.788807 156.291481 
L 347.141534 155.58715 
L 347.817898 155.645655 
L 348.494261 153.043477 
L 349.170625 154.084499 
L 349.846989 154.435394 
L 350.523352 154.271206 
L 351.199716 154.535556 
L 351.87608 155.139117 
L 352.552443 154.806182 
L 353.228807 155.013079 
L 353.90517 154.635972 
L 354.581534 155.060609 
L 355.257898 155.242783 
L 355.934261 154.710172 
L 356.610625 155.23496 
L 358.639716 154.912978 
L 359.31608 154.600437 
L 359.992443 154.867425 
L 360.668807 154.496443 
L 361.34517 155.003689 
L 362.697898 155.096093 
L 363.374261 154.993173 
L 364.050625 155.095595 
L 364.726989 155.423929 
L 366.75608 155.077029 
L 367.432443 155.272574 
L 368.108807 154.511676 
L 368.78517 155.031347 
L 369.461534 155.333706 
L 370.137898 155.833112 
L 370.814261 155.491651 
L 372.166989 155.26391 
L 372.843352 155.533926 
L 373.519716 155.532608 
L 374.19608 155.347737 
L 374.872443 155.905205 
L 376.22517 155.375726 
L 376.901534 155.269938 
L 377.577898 155.835803 
L 378.930625 155.153243 
L 380.959716 155.751553 
L 382.312443 155.403771 
L 382.988807 155.480373 
L 383.66517 155.800394 
L 384.341534 155.63988 
L 385.017898 156.279948 
L 385.694261 155.760215 
L 387.046989 155.431543 
L 389.07608 155.709706 
L 389.752443 155.219692 
L 390.428807 155.442174 
L 391.10517 155.890347 
L 392.457898 156.019055 
L 393.134261 155.491745 
L 395.163352 155.350416 
L 395.839716 155.346429 
L 396.51608 155.665712 
L 397.192443 155.630159 
L 397.868807 156.297099 
L 398.54517 155.577022 
L 399.221534 154.636774 
L 399.897898 155.540049 
L 401.250625 155.596634 
L 401.926989 155.315462 
L 402.603352 155.58118 
L 403.279716 154.986037 
L 405.308807 155.552048 
L 408.014261 155.310278 
L 408.690625 155.408083 
L 409.366989 155.196475 
L 410.043352 155.538965 
L 410.719716 155.442706 
L 411.39608 155.091318 
L 412.072443 153.608385 
L 413.42517 154.714612 
L 414.101534 154.891346 
L 414.777898 154.903836 
L 415.454261 154.621878 
L 416.130625 155.658852 
L 416.806989 155.249258 
L 417.483352 155.713823 
L 418.159716 155.021825 
L 419.512443 155.150075 
L 420.188807 155.154992 
L 420.86517 155.317545 
L 421.541534 155.151199 
L 422.217898 155.264146 
L 422.894261 155.587818 
L 425.599716 155.074538 
L 426.27608 155.645964 
L 426.952443 155.841646 
L 427.628807 155.354586 
L 428.30517 155.051135 
L 428.981534 155.565542 
L 429.657898 155.17962 
L 430.334261 155.260668 
L 431.010625 155.475398 
L 431.686989 155.165695 
L 432.363352 155.24334 
L 433.039716 155.072499 
L 433.71608 155.269896 
L 434.392443 154.818812 
L 435.068807 155.188621 
L 435.74517 155.108289 
L 436.421534 154.669359 
L 437.097898 155.152197 
L 437.774261 155.156871 
L 438.450625 154.848813 
L 439.126989 155.390366 
L 439.803352 155.278702 
L 440.479716 155.436354 
L 441.15608 155.245938 
L 441.832443 155.244318 
L 442.508807 154.974139 
L 443.18517 155.382234 
L 443.861534 155.004301 
L 444.537898 154.988872 
L 445.214261 155.262399 
L 446.566989 155.096087 
L 447.243352 154.837695 
L 448.59608 155.423065 
L 449.272443 155.028617 
L 449.948807 155.512282 
L 450.62517 155.296887 
L 451.301534 155.225788 
L 451.977898 154.743231 
L 452.654261 155.366563 
L 454.006989 155.130873 
L 454.683352 154.707484 
L 455.359716 154.986333 
L 456.712443 154.818989 
L 457.388807 155.046058 
L 458.06517 154.702934 
L 459.417898 155.039919 
L 460.094261 154.975369 
L 460.770625 155.334182 
L 461.446989 154.849228 
L 462.123352 155.037184 
L 462.799716 154.970428 
L 463.47608 155.284791 
L 464.152443 154.96514 
L 464.828807 155.305088 
L 465.50517 154.640369 
L 466.181534 155.181552 
L 468.210625 155.488724 
L 468.886989 154.730194 
L 470.91608 154.930242 
L 471.592443 155.111416 
L 472.268807 155.045237 
L 472.94517 155.248884 
L 473.621534 154.713462 
L 474.297898 154.878149 
L 474.974261 155.207209 
L 475.650625 154.545471 
L 477.003352 155.620813 
L 477.679716 155.274956 
L 478.35608 155.497977 
L 479.032443 155.070469 
L 479.708807 155.350361 
L 480.38517 154.947572 
L 481.061534 155.52839 
L 481.737898 155.107947 
L 482.414261 155.580213 
L 483.090625 155.139409 
L 483.766989 155.178293 
L 484.443352 155.381478 
L 485.119716 155.187845 
L 485.79608 155.494437 
L 486.472443 155.217882 
L 487.148807 155.285562 
L 487.82517 155.031702 
L 488.501534 155.296398 
L 489.177898 154.910107 
L 489.854261 155.275375 
L 490.530625 155.15732 
L 491.206989 155.31056 
L 492.559716 155.333147 
L 493.912443 154.904764 
L 494.588807 155.58039 
L 495.941534 155.156327 
L 496.617898 155.373803 
L 497.294261 155.249042 
L 497.970625 155.254083 
L 498.646989 155.55925 
L 499.323352 155.219763 
L 499.999716 155.562492 
L 500.67608 155.304436 
L 503.381534 155.284766 
L 504.734261 155.369909 
L 506.086989 155.254357 
L 506.763352 155.33416 
L 507.439716 155.032186 
L 508.792443 155.323129 
L 509.468807 155.204486 
L 510.14517 155.311507 
L 510.821534 155.125744 
L 512.850625 155.663483 
L 513.526989 155.077817 
L 514.203352 154.902083 
L 514.879716 155.02242 
L 515.55608 155.328052 
L 517.58517 155.428283 
L 518.261534 155.442195 
L 518.937898 155.699922 
L 520.966989 155.499555 
L 521.643352 155.280517 
L 522.99608 155.843515 
L 523.672443 154.460927 
L 524.348807 155.107892 
L 527.730625 155.057375 
L 528.406989 155.366999 
L 529.083352 155.084903 
L 529.759716 153.80868 
L 530.43608 154.421182 
L 531.112443 154.517176 
L 531.788807 154.371533 
L 532.46517 155.156259 
L 533.817898 155.151924 
L 534.494261 154.886121 
L 535.170625 155.168401 
L 535.846989 151.549215 
L 536.523352 153.671801 
L 537.199716 154.210377 
L 537.87608 153.137968 
L 538.552443 153.212823 
L 539.228807 153.538874 
L 539.90517 153.63788 
L 540.581534 153.866057 
L 541.257898 153.574882 
L 541.934261 153.807505 
L 542.610625 153.786339 
L 543.286989 153.559401 
L 543.963352 154.12274 
L 544.639716 153.933107 
L 545.31608 154.043313 
L 545.992443 153.748751 
L 546.668807 154.127582 
L 547.34517 154.275268 
L 548.021534 153.823059 
L 548.697898 153.913277 
L 549.374261 154.303842 
L 550.050625 154.969832 
L 550.726989 153.886911 
L 551.403352 153.764402 
L 552.75608 154.095029 
L 553.432443 153.892431 
L 554.108807 154.085215 
L 554.78517 153.970061 
L 555.461534 154.195834 
L 556.137898 154.003589 
L 556.814261 154.439732 
L 557.490625 154.185034 
L 558.166989 154.274745 
L 558.843352 154.164723 
L 559.519716 154.349258 
L 560.19608 154.215334 
L 560.872443 153.931444 
L 562.901534 154.356585 
L 563.577898 154.372823 
L 564.254261 154.028425 
L 564.930625 154.139414 
L 565.606989 154.375035 
L 566.959716 154.007671 
L 567.63608 154.379753 
L 568.312443 154.30798 
L 568.988807 153.920567 
L 569.66517 154.074949 
L 570.341534 154.48548 
L 571.017898 154.264881 
L 571.694261 154.224904 
L 572.370625 154.30137 
L 573.046989 153.986259 
L 575.07608 154.153079 
L 575.752443 154.133734 
L 576.428807 154.287122 
L 578.457898 154.271796 
L 579.134261 153.937811 
L 580.486989 154.089754 
L 581.163352 154.338696 
L 581.839716 153.865401 
L 582.51608 153.971171 
L 583.192443 153.877875 
L 585.897898 154.158169 
L 587.250625 153.920859 
L 587.926989 154.317894 
L 588.603352 154.224999 
L 589.279716 154.446094 
L 590.632443 154.076167 
L 591.98517 154.223886 
L 592.661534 153.940132 
L 593.337898 154.107708 
L 595.366989 154.023793 
L 596.719716 154.114796 
L 597.39608 153.951738 
L 598.072443 154.329505 
L 598.748807 154.126174 
L 600.777898 154.319701 
L 601.454261 154.315378 
L 602.130625 154.621295 
L 603.483352 153.964944 
L 604.83608 154.028827 
L 605.512443 154.227184 
L 608.894261 154.378203 
L 609.570625 154.049099 
L 610.246989 153.978356 
L 610.923352 154.58294 
L 611.599716 154.206178 
L 612.27608 154.275986 
L 612.952443 154.143732 
L 613.628807 154.319655 
L 614.30517 154.376685 
L 614.981534 154.080599 
L 615.657898 154.252721 
L 617.010625 154.154387 
L 617.686989 153.922477 
L 618.363352 154.097532 
L 619.039716 154.597194 
L 619.71608 153.976399 
L 620.392443 154.136974 
L 621.068807 153.96186 
L 621.74517 154.141673 
L 622.421534 154.478791 
L 623.097898 154.129619 
L 624.450625 153.999698 
L 625.126989 154.097529 
L 625.126989 154.097529 
" clip-path="url(#p714566021c)" style="fill: none; stroke: #ff7f0e; stroke-width: 1.5; stroke-linecap: square"/>
   </g>
   <g id="patch_3">
    <path d="M 92.490625 308.63625 
L 92.490625 31.43625 
" style="fill: none; stroke: #000000; stroke-width: 0.8; stroke-linejoin: miter; stroke-linecap: square"/>
   </g>
   <g id="patch_4">
    <path d="M 650.490625 308.63625 
L 650.490625 31.43625 
" style="fill: none; stroke: #000000; stroke-width: 0.8; stroke-linejoin: miter; stroke-linecap: square"/>
   </g>
   <g id="patch_5">
    <path d="M 92.490625 308.63625 
L 650.490625 308.63625 
" style="fill: none; stroke: #000000; stroke-width: 0.8; stroke-linejoin: miter; stroke-linecap: square"/>
   </g>
   <g id="patch_6">
    <path d="M 92.490625 31.43625 
L 650.490625 31.43625 
" style="fill: none; stroke: #000000; stroke-width: 0.8; stroke-linejoin: miter; stroke-linecap: square"/>
   </g>
   <g id="text_14">
    <!-- Generator and Discriminator Loss During Training -->
    <g transform="translate(74.258125 25.43625) scale(0.24 -0.24)">
     <defs>
      <path id="DejaVuSans-47" d="M 3809 666 
L 3809 1919 
L 2778 1919 
L 2778 2438 
L 4434 2438 
L 4434 434 
Q 4069 175 3628 42 
Q 3188 -91 2688 -91 
Q 1594 -91 976 548 
Q 359 1188 359 2328 
Q 359 3472 976 4111 
Q 1594 4750 2688 4750 
Q 3144 4750 3555 4637 
Q 3966 4525 4313 4306 
L 4313 3634 
Q 3963 3931 3569 4081 
Q 3175 4231 2741 4231 
Q 1884 4231 1454 3753 
Q 1025 3275 1025 2328 
Q 1025 1384 1454 906 
Q 1884 428 2741 428 
Q 3075 428 3337 486 
Q 3600 544 3809 666 
z
" transform="scale(0.015625)"/>
      <path id="DejaVuSans-20" transform="scale(0.015625)"/>
      <path id="DejaVuSans-64" d="M 2906 2969 
L 2906 4863 
L 3481 4863 
L 3481 0 
L 2906 0 
L 2906 525 
Q 2725 213 2448 61 
Q 2172 -91 1784 -91 
Q 1150 -91 751 415 
Q 353 922 353 1747 
Q 353 2572 751 3078 
Q 1150 3584 1784 3584 
Q 2172 3584 2448 3432 
Q 2725 3281 2906 2969 
z
M 947 1747 
Q 947 1113 1208 752 
Q 1469 391 1925 391 
Q 2381 391 2643 752 
Q 2906 1113 2906 1747 
Q 2906 2381 2643 2742 
Q 2381 3103 1925 3103 
Q 1469 3103 1208 2742 
Q 947 2381 947 1747 
z
" transform="scale(0.015625)"/>
      <path id="DejaVuSans-44" d="M 1259 4147 
L 1259 519 
L 2022 519 
Q 2988 519 3436 956 
Q 3884 1394 3884 2338 
Q 3884 3275 3436 3711 
Q 2988 4147 2022 4147 
L 1259 4147 
z
M 628 4666 
L 1925 4666 
Q 3281 4666 3915 4102 
Q 4550 3538 4550 2338 
Q 4550 1131 3912 565 
Q 3275 0 1925 0 
L 628 0 
L 628 4666 
z
" transform="scale(0.015625)"/>
      <path id="DejaVuSans-63" d="M 3122 3366 
L 3122 2828 
Q 2878 2963 2633 3030 
Q 2388 3097 2138 3097 
Q 1578 3097 1268 2742 
Q 959 2388 959 1747 
Q 959 1106 1268 751 
Q 1578 397 2138 397 
Q 2388 397 2633 464 
Q 2878 531 3122 666 
L 3122 134 
Q 2881 22 2623 -34 
Q 2366 -91 2075 -91 
Q 1284 -91 818 406 
Q 353 903 353 1747 
Q 353 2603 823 3093 
Q 1294 3584 2113 3584 
Q 2378 3584 2631 3529 
Q 2884 3475 3122 3366 
z
" transform="scale(0.015625)"/>
      <path id="DejaVuSans-6d" d="M 3328 2828 
Q 3544 3216 3844 3400 
Q 4144 3584 4550 3584 
Q 5097 3584 5394 3201 
Q 5691 2819 5691 2113 
L 5691 0 
L 5113 0 
L 5113 2094 
Q 5113 2597 4934 2840 
Q 4756 3084 4391 3084 
Q 3944 3084 3684 2787 
Q 3425 2491 3425 1978 
L 3425 0 
L 2847 0 
L 2847 2094 
Q 2847 2600 2669 2842 
Q 2491 3084 2119 3084 
Q 1678 3084 1418 2786 
Q 1159 2488 1159 1978 
L 1159 0 
L 581 0 
L 581 3500 
L 1159 3500 
L 1159 2956 
Q 1356 3278 1631 3431 
Q 1906 3584 2284 3584 
Q 2666 3584 2933 3390 
Q 3200 3197 3328 2828 
z
" transform="scale(0.015625)"/>
      <path id="DejaVuSans-75" d="M 544 1381 
L 544 3500 
L 1119 3500 
L 1119 1403 
Q 1119 906 1312 657 
Q 1506 409 1894 409 
Q 2359 409 2629 706 
Q 2900 1003 2900 1516 
L 2900 3500 
L 3475 3500 
L 3475 0 
L 2900 0 
L 2900 538 
Q 2691 219 2414 64 
Q 2138 -91 1772 -91 
Q 1169 -91 856 284 
Q 544 659 544 1381 
z
M 1991 3584 
L 1991 3584 
z
" transform="scale(0.015625)"/>
      <path id="DejaVuSans-67" d="M 2906 1791 
Q 2906 2416 2648 2759 
Q 2391 3103 1925 3103 
Q 1463 3103 1205 2759 
Q 947 2416 947 1791 
Q 947 1169 1205 825 
Q 1463 481 1925 481 
Q 2391 481 2648 825 
Q 2906 1169 2906 1791 
z
M 3481 434 
Q 3481 -459 3084 -895 
Q 2688 -1331 1869 -1331 
Q 1566 -1331 1297 -1286 
Q 1028 -1241 775 -1147 
L 775 -588 
Q 1028 -725 1275 -790 
Q 1522 -856 1778 -856 
Q 2344 -856 2625 -561 
Q 2906 -266 2906 331 
L 2906 616 
Q 2728 306 2450 153 
Q 2172 0 1784 0 
Q 1141 0 747 490 
Q 353 981 353 1791 
Q 353 2603 747 3093 
Q 1141 3584 1784 3584 
Q 2172 3584 2450 3431 
Q 2728 3278 2906 2969 
L 2906 3500 
L 3481 3500 
L 3481 434 
z
" transform="scale(0.015625)"/>
      <path id="DejaVuSans-54" d="M -19 4666 
L 3928 4666 
L 3928 4134 
L 2272 4134 
L 2272 0 
L 1638 0 
L 1638 4134 
L -19 4134 
L -19 4666 
z
" transform="scale(0.015625)"/>
     </defs>
     <use xlink:href="#DejaVuSans-47"/>
     <use xlink:href="#DejaVuSans-65" x="77.490234"/>
     <use xlink:href="#DejaVuSans-6e" x="139.013672"/>
     <use xlink:href="#DejaVuSans-65" x="202.392578"/>
     <use xlink:href="#DejaVuSans-72" x="263.916016"/>
     <use xlink:href="#DejaVuSans-61" x="305.029297"/>
     <use xlink:href="#DejaVuSans-74" x="366.308594"/>
     <use xlink:href="#DejaVuSans-6f" x="405.517578"/>
     <use xlink:href="#DejaVuSans-72" x="466.699219"/>
     <use xlink:href="#DejaVuSans-20" x="507.8125"/>
     <use xlink:href="#DejaVuSans-61" x="539.599609"/>
     <use xlink:href="#DejaVuSans-6e" x="600.878906"/>
     <use xlink:href="#DejaVuSans-64" x="664.257812"/>
     <use xlink:href="#DejaVuSans-20" x="727.734375"/>
     <use xlink:href="#DejaVuSans-44" x="759.521484"/>
     <use xlink:href="#DejaVuSans-69" x="836.523438"/>
     <use xlink:href="#DejaVuSans-73" x="864.306641"/>
     <use xlink:href="#DejaVuSans-63" x="916.40625"/>
     <use xlink:href="#DejaVuSans-72" x="971.386719"/>
     <use xlink:href="#DejaVuSans-69" x="1012.5"/>
     <use xlink:href="#DejaVuSans-6d" x="1040.283203"/>
     <use xlink:href="#DejaVuSans-69" x="1137.695312"/>
     <use xlink:href="#DejaVuSans-6e" x="1165.478516"/>
     <use xlink:href="#DejaVuSans-61" x="1228.857422"/>
     <use xlink:href="#DejaVuSans-74" x="1290.136719"/>
     <use xlink:href="#DejaVuSans-6f" x="1329.345703"/>
     <use xlink:href="#DejaVuSans-72" x="1390.527344"/>
     <use xlink:href="#DejaVuSans-20" x="1431.640625"/>
     <use xlink:href="#DejaVuSans-4c" x="1463.427734"/>
     <use xlink:href="#DejaVuSans-6f" x="1517.390625"/>
     <use xlink:href="#DejaVuSans-73" x="1578.572266"/>
     <use xlink:href="#DejaVuSans-73" x="1630.671875"/>
     <use xlink:href="#DejaVuSans-20" x="1682.771484"/>
     <use xlink:href="#DejaVuSans-44" x="1714.558594"/>
     <use xlink:href="#DejaVuSans-75" x="1791.560547"/>
     <use xlink:href="#DejaVuSans-72" x="1854.939453"/>
     <use xlink:href="#DejaVuSans-69" x="1896.052734"/>
     <use xlink:href="#DejaVuSans-6e" x="1923.835938"/>
     <use xlink:href="#DejaVuSans-67" x="1987.214844"/>
     <use xlink:href="#DejaVuSans-20" x="2050.691406"/>
     <use xlink:href="#DejaVuSans-54" x="2082.478516"/>
     <use xlink:href="#DejaVuSans-72" x="2128.8125"/>
     <use xlink:href="#DejaVuSans-61" x="2169.925781"/>
     <use xlink:href="#DejaVuSans-69" x="2231.205078"/>
     <use xlink:href="#DejaVuSans-6e" x="2258.988281"/>
     <use xlink:href="#DejaVuSans-69" x="2322.367188"/>
     <use xlink:href="#DejaVuSans-6e" x="2350.150391"/>
     <use xlink:href="#DejaVuSans-67" x="2413.529297"/>
    </g>
   </g>
   <g id="legend_1">
    <g id="patch_7">
     <path d="M 556.99375 106.14875 
L 636.490625 106.14875 
Q 640.490625 106.14875 640.490625 102.14875 
L 640.490625 45.43625 
Q 640.490625 41.43625 636.490625 41.43625 
L 556.99375 41.43625 
Q 552.99375 41.43625 552.99375 45.43625 
L 552.99375 102.14875 
Q 552.99375 106.14875 556.99375 106.14875 
z
" style="fill: #ffffff; opacity: 0.8; stroke: #cccccc; stroke-linejoin: miter"/>
    </g>
    <g id="line2d_14">
     <path d="M 560.99375 57.633125 
L 580.99375 57.633125 
L 600.99375 57.633125 
" style="fill: none; stroke: #1f77b4; stroke-width: 1.5; stroke-linecap: square"/>
    </g>
    <g id="text_15">
     <!-- G -->
     <g transform="translate(616.99375 64.633125) scale(0.2 -0.2)">
      <use xlink:href="#DejaVuSans-47"/>
     </g>
    </g>
    <g id="line2d_15">
     <path d="M 560.99375 86.989375 
L 580.99375 86.989375 
L 600.99375 86.989375 
" style="fill: none; stroke: #ff7f0e; stroke-width: 1.5; stroke-linecap: square"/>
    </g>
    <g id="text_16">
     <!-- D -->
     <g transform="translate(616.99375 93.989375) scale(0.2 -0.2)">
      <use xlink:href="#DejaVuSans-44"/>
     </g>
    </g>
   </g>
  </g>
 </g>
 <defs>
  <clipPath id="p714566021c">
   <rect x="92.490625" y="31.43625" width="558" height="277.2"/>
  </clipPath>
 </defs>
</svg>
