<?xml version="1.0" encoding="utf-8" standalone="no"?>
<!DOCTYPE svg PUBLIC "-//W3C//DTD SVG 1.1//EN"
  "http://www.w3.org/Graphics/SVG/1.1/DTD/svg11.dtd">
<svg xmlns:xlink="http://www.w3.org/1999/xlink" width="675.923125pt" height="365.54875pt" viewBox="0 0 675.923125 365.54875" xmlns="http://www.w3.org/2000/svg" version="1.1">
 <metadata>
  <rdf:RDF xmlns:dc="http://purl.org/dc/elements/1.1/" xmlns:cc="http://creativecommons.org/ns#" xmlns:rdf="http://www.w3.org/1999/02/22-rdf-syntax-ns#">
   <cc:Work>
    <dc:type rdf:resource="http://purl.org/dc/dcmitype/StillImage"/>
    <dc:date>2024-02-01T21:22:01.089251</dc:date>
    <dc:format>image/svg+xml</dc:format>
    <dc:creator>
     <cc:Agent>
      <dc:title>Matplotlib v3.7.2, https://matplotlib.org/</dc:title>
     </cc:Agent>
    </dc:creator>
   </cc:Work>
  </rdf:RDF>
 </metadata>
 <defs>
  <style type="text/css">*{stroke-linejoin: round; stroke-linecap: butt}</style>
 </defs>
 <g id="figure_1">
  <g id="patch_1">
   <path d="M 0 365.54875 
L 675.923125 365.54875 
L 675.923125 -0 
L 0 -0 
z
" style="fill: #ffffff"/>
  </g>
  <g id="axes_1">
   <g id="patch_2">
    <path d="M 92.490625 308.63625 
L 650.490625 308.63625 
L 650.490625 31.43625 
L 92.490625 31.43625 
z
" style="fill: #ffffff"/>
   </g>
   <g id="matplotlib.axis_1">
    <g id="xtick_1">
     <g id="line2d_1">
      <defs>
       <path id="m2114553481" d="M 0 0 
L 0 3.5 
" style="stroke: #000000; stroke-width: 0.8"/>
      </defs>
      <g>
       <use xlink:href="#m2114553481" x="117.854261" y="308.63625" style="stroke: #000000; stroke-width: 0.8"/>
      </g>
     </g>
     <g id="text_1">
      <!-- 0 -->
      <g transform="translate(111.491761 330.833125) scale(0.2 -0.2)">
       <defs>
        <path id="DejaVuSans-30" d="M 2034 4250 
Q 1547 4250 1301 3770 
Q 1056 3291 1056 2328 
Q 1056 1369 1301 889 
Q 1547 409 2034 409 
Q 2525 409 2770 889 
Q 3016 1369 3016 2328 
Q 3016 3291 2770 3770 
Q 2525 4250 2034 4250 
z
M 2034 4750 
Q 2819 4750 3233 4129 
Q 3647 3509 3647 2328 
Q 3647 1150 3233 529 
Q 2819 -91 2034 -91 
Q 1250 -91 836 529 
Q 422 1150 422 2328 
Q 422 3509 836 4129 
Q 1250 4750 2034 4750 
z
" transform="scale(0.015625)"/>
       </defs>
       <use xlink:href="#DejaVuSans-30"/>
      </g>
     </g>
    </g>
    <g id="xtick_2">
     <g id="line2d_2">
      <g>
       <use xlink:href="#m2114553481" x="181.263352" y="308.63625" style="stroke: #000000; stroke-width: 0.8"/>
      </g>
     </g>
     <g id="text_2">
      <!-- 200 -->
      <g transform="translate(162.175852 330.833125) scale(0.2 -0.2)">
       <defs>
        <path id="DejaVuSans-32" d="M 1228 531 
L 3431 531 
L 3431 0 
L 469 0 
L 469 531 
Q 828 903 1448 1529 
Q 2069 2156 2228 2338 
Q 2531 2678 2651 2914 
Q 2772 3150 2772 3378 
Q 2772 3750 2511 3984 
Q 2250 4219 1831 4219 
Q 1534 4219 1204 4116 
Q 875 4013 500 3803 
L 500 4441 
Q 881 4594 1212 4672 
Q 1544 4750 1819 4750 
Q 2544 4750 2975 4387 
Q 3406 4025 3406 3419 
Q 3406 3131 3298 2873 
Q 3191 2616 2906 2266 
Q 2828 2175 2409 1742 
Q 1991 1309 1228 531 
z
" transform="scale(0.015625)"/>
       </defs>
       <use xlink:href="#DejaVuSans-32"/>
       <use xlink:href="#DejaVuSans-30" x="63.623047"/>
       <use xlink:href="#DejaVuSans-30" x="127.246094"/>
      </g>
     </g>
    </g>
    <g id="xtick_3">
     <g id="line2d_3">
      <g>
       <use xlink:href="#m2114553481" x="244.672443" y="308.63625" style="stroke: #000000; stroke-width: 0.8"/>
      </g>
     </g>
     <g id="text_3">
      <!-- 400 -->
      <g transform="translate(225.584943 330.833125) scale(0.2 -0.2)">
       <defs>
        <path id="DejaVuSans-34" d="M 2419 4116 
L 825 1625 
L 2419 1625 
L 2419 4116 
z
M 2253 4666 
L 3047 4666 
L 3047 1625 
L 3713 1625 
L 3713 1100 
L 3047 1100 
L 3047 0 
L 2419 0 
L 2419 1100 
L 313 1100 
L 313 1709 
L 2253 4666 
z
" transform="scale(0.015625)"/>
       </defs>
       <use xlink:href="#DejaVuSans-34"/>
       <use xlink:href="#DejaVuSans-30" x="63.623047"/>
       <use xlink:href="#DejaVuSans-30" x="127.246094"/>
      </g>
     </g>
    </g>
    <g id="xtick_4">
     <g id="line2d_4">
      <g>
       <use xlink:href="#m2114553481" x="308.081534" y="308.63625" style="stroke: #000000; stroke-width: 0.8"/>
      </g>
     </g>
     <g id="text_4">
      <!-- 600 -->
      <g transform="translate(288.994034 330.833125) scale(0.2 -0.2)">
       <defs>
        <path id="DejaVuSans-36" d="M 2113 2584 
Q 1688 2584 1439 2293 
Q 1191 2003 1191 1497 
Q 1191 994 1439 701 
Q 1688 409 2113 409 
Q 2538 409 2786 701 
Q 3034 994 3034 1497 
Q 3034 2003 2786 2293 
Q 2538 2584 2113 2584 
z
M 3366 4563 
L 3366 3988 
Q 3128 4100 2886 4159 
Q 2644 4219 2406 4219 
Q 1781 4219 1451 3797 
Q 1122 3375 1075 2522 
Q 1259 2794 1537 2939 
Q 1816 3084 2150 3084 
Q 2853 3084 3261 2657 
Q 3669 2231 3669 1497 
Q 3669 778 3244 343 
Q 2819 -91 2113 -91 
Q 1303 -91 875 529 
Q 447 1150 447 2328 
Q 447 3434 972 4092 
Q 1497 4750 2381 4750 
Q 2619 4750 2861 4703 
Q 3103 4656 3366 4563 
z
" transform="scale(0.015625)"/>
       </defs>
       <use xlink:href="#DejaVuSans-36"/>
       <use xlink:href="#DejaVuSans-30" x="63.623047"/>
       <use xlink:href="#DejaVuSans-30" x="127.246094"/>
      </g>
     </g>
    </g>
    <g id="xtick_5">
     <g id="line2d_5">
      <g>
       <use xlink:href="#m2114553481" x="371.490625" y="308.63625" style="stroke: #000000; stroke-width: 0.8"/>
      </g>
     </g>
     <g id="text_5">
      <!-- 800 -->
      <g transform="translate(352.403125 330.833125) scale(0.2 -0.2)">
       <defs>
        <path id="DejaVuSans-38" d="M 2034 2216 
Q 1584 2216 1326 1975 
Q 1069 1734 1069 1313 
Q 1069 891 1326 650 
Q 1584 409 2034 409 
Q 2484 409 2743 651 
Q 3003 894 3003 1313 
Q 3003 1734 2745 1975 
Q 2488 2216 2034 2216 
z
M 1403 2484 
Q 997 2584 770 2862 
Q 544 3141 544 3541 
Q 544 4100 942 4425 
Q 1341 4750 2034 4750 
Q 2731 4750 3128 4425 
Q 3525 4100 3525 3541 
Q 3525 3141 3298 2862 
Q 3072 2584 2669 2484 
Q 3125 2378 3379 2068 
Q 3634 1759 3634 1313 
Q 3634 634 3220 271 
Q 2806 -91 2034 -91 
Q 1263 -91 848 271 
Q 434 634 434 1313 
Q 434 1759 690 2068 
Q 947 2378 1403 2484 
z
M 1172 3481 
Q 1172 3119 1398 2916 
Q 1625 2713 2034 2713 
Q 2441 2713 2670 2916 
Q 2900 3119 2900 3481 
Q 2900 3844 2670 4047 
Q 2441 4250 2034 4250 
Q 1625 4250 1398 4047 
Q 1172 3844 1172 3481 
z
" transform="scale(0.015625)"/>
       </defs>
       <use xlink:href="#DejaVuSans-38"/>
       <use xlink:href="#DejaVuSans-30" x="63.623047"/>
       <use xlink:href="#DejaVuSans-30" x="127.246094"/>
      </g>
     </g>
    </g>
    <g id="xtick_6">
     <g id="line2d_6">
      <g>
       <use xlink:href="#m2114553481" x="434.899716" y="308.63625" style="stroke: #000000; stroke-width: 0.8"/>
      </g>
     </g>
     <g id="text_6">
      <!-- 1000 -->
      <g transform="translate(409.449716 330.833125) scale(0.2 -0.2)">
       <defs>
        <path id="DejaVuSans-31" d="M 794 531 
L 1825 531 
L 1825 4091 
L 703 3866 
L 703 4441 
L 1819 4666 
L 2450 4666 
L 2450 531 
L 3481 531 
L 3481 0 
L 794 0 
L 794 531 
z
" transform="scale(0.015625)"/>
       </defs>
       <use xlink:href="#DejaVuSans-31"/>
       <use xlink:href="#DejaVuSans-30" x="63.623047"/>
       <use xlink:href="#DejaVuSans-30" x="127.246094"/>
       <use xlink:href="#DejaVuSans-30" x="190.869141"/>
      </g>
     </g>
    </g>
    <g id="xtick_7">
     <g id="line2d_7">
      <g>
       <use xlink:href="#m2114553481" x="498.308807" y="308.63625" style="stroke: #000000; stroke-width: 0.8"/>
      </g>
     </g>
     <g id="text_7">
      <!-- 1200 -->
      <g transform="translate(472.858807 330.833125) scale(0.2 -0.2)">
       <use xlink:href="#DejaVuSans-31"/>
       <use xlink:href="#DejaVuSans-32" x="63.623047"/>
       <use xlink:href="#DejaVuSans-30" x="127.246094"/>
       <use xlink:href="#DejaVuSans-30" x="190.869141"/>
      </g>
     </g>
    </g>
    <g id="xtick_8">
     <g id="line2d_8">
      <g>
       <use xlink:href="#m2114553481" x="561.717898" y="308.63625" style="stroke: #000000; stroke-width: 0.8"/>
      </g>
     </g>
     <g id="text_8">
      <!-- 1400 -->
      <g transform="translate(536.267898 330.833125) scale(0.2 -0.2)">
       <use xlink:href="#DejaVuSans-31"/>
       <use xlink:href="#DejaVuSans-34" x="63.623047"/>
       <use xlink:href="#DejaVuSans-30" x="127.246094"/>
       <use xlink:href="#DejaVuSans-30" x="190.869141"/>
      </g>
     </g>
    </g>
    <g id="xtick_9">
     <g id="line2d_9">
      <g>
       <use xlink:href="#m2114553481" x="625.126989" y="308.63625" style="stroke: #000000; stroke-width: 0.8"/>
      </g>
     </g>
     <g id="text_9">
      <!-- 1600 -->
      <g transform="translate(599.676989 330.833125) scale(0.2 -0.2)">
       <use xlink:href="#DejaVuSans-31"/>
       <use xlink:href="#DejaVuSans-36" x="63.623047"/>
       <use xlink:href="#DejaVuSans-30" x="127.246094"/>
       <use xlink:href="#DejaVuSans-30" x="190.869141"/>
      </g>
     </g>
    </g>
    <g id="text_10">
     <!-- iterations -->
     <g transform="translate(324.035938 354.189375) scale(0.2 -0.2)">
      <defs>
       <path id="DejaVuSans-69" d="M 603 3500 
L 1178 3500 
L 1178 0 
L 603 0 
L 603 3500 
z
M 603 4863 
L 1178 4863 
L 1178 4134 
L 603 4134 
L 603 4863 
z
" transform="scale(0.015625)"/>
       <path id="DejaVuSans-74" d="M 1172 4494 
L 1172 3500 
L 2356 3500 
L 2356 3053 
L 1172 3053 
L 1172 1153 
Q 1172 725 1289 603 
Q 1406 481 1766 481 
L 2356 481 
L 2356 0 
L 1766 0 
Q 1100 0 847 248 
Q 594 497 594 1153 
L 594 3053 
L 172 3053 
L 172 3500 
L 594 3500 
L 594 4494 
L 1172 4494 
z
" transform="scale(0.015625)"/>
       <path id="DejaVuSans-65" d="M 3597 1894 
L 3597 1613 
L 953 1613 
Q 991 1019 1311 708 
Q 1631 397 2203 397 
Q 2534 397 2845 478 
Q 3156 559 3463 722 
L 3463 178 
Q 3153 47 2828 -22 
Q 2503 -91 2169 -91 
Q 1331 -91 842 396 
Q 353 884 353 1716 
Q 353 2575 817 3079 
Q 1281 3584 2069 3584 
Q 2775 3584 3186 3129 
Q 3597 2675 3597 1894 
z
M 3022 2063 
Q 3016 2534 2758 2815 
Q 2500 3097 2075 3097 
Q 1594 3097 1305 2825 
Q 1016 2553 972 2059 
L 3022 2063 
z
" transform="scale(0.015625)"/>
       <path id="DejaVuSans-72" d="M 2631 2963 
Q 2534 3019 2420 3045 
Q 2306 3072 2169 3072 
Q 1681 3072 1420 2755 
Q 1159 2438 1159 1844 
L 1159 0 
L 581 0 
L 581 3500 
L 1159 3500 
L 1159 2956 
Q 1341 3275 1631 3429 
Q 1922 3584 2338 3584 
Q 2397 3584 2469 3576 
Q 2541 3569 2628 3553 
L 2631 2963 
z
" transform="scale(0.015625)"/>
       <path id="DejaVuSans-61" d="M 2194 1759 
Q 1497 1759 1228 1600 
Q 959 1441 959 1056 
Q 959 750 1161 570 
Q 1363 391 1709 391 
Q 2188 391 2477 730 
Q 2766 1069 2766 1631 
L 2766 1759 
L 2194 1759 
z
M 3341 1997 
L 3341 0 
L 2766 0 
L 2766 531 
Q 2569 213 2275 61 
Q 1981 -91 1556 -91 
Q 1019 -91 701 211 
Q 384 513 384 1019 
Q 384 1609 779 1909 
Q 1175 2209 1959 2209 
L 2766 2209 
L 2766 2266 
Q 2766 2663 2505 2880 
Q 2244 3097 1772 3097 
Q 1472 3097 1187 3025 
Q 903 2953 641 2809 
L 641 3341 
Q 956 3463 1253 3523 
Q 1550 3584 1831 3584 
Q 2591 3584 2966 3190 
Q 3341 2797 3341 1997 
z
" transform="scale(0.015625)"/>
       <path id="DejaVuSans-6f" d="M 1959 3097 
Q 1497 3097 1228 2736 
Q 959 2375 959 1747 
Q 959 1119 1226 758 
Q 1494 397 1959 397 
Q 2419 397 2687 759 
Q 2956 1122 2956 1747 
Q 2956 2369 2687 2733 
Q 2419 3097 1959 3097 
z
M 1959 3584 
Q 2709 3584 3137 3096 
Q 3566 2609 3566 1747 
Q 3566 888 3137 398 
Q 2709 -91 1959 -91 
Q 1206 -91 779 398 
Q 353 888 353 1747 
Q 353 2609 779 3096 
Q 1206 3584 1959 3584 
z
" transform="scale(0.015625)"/>
       <path id="DejaVuSans-6e" d="M 3513 2113 
L 3513 0 
L 2938 0 
L 2938 2094 
Q 2938 2591 2744 2837 
Q 2550 3084 2163 3084 
Q 1697 3084 1428 2787 
Q 1159 2491 1159 1978 
L 1159 0 
L 581 0 
L 581 3500 
L 1159 3500 
L 1159 2956 
Q 1366 3272 1645 3428 
Q 1925 3584 2291 3584 
Q 2894 3584 3203 3211 
Q 3513 2838 3513 2113 
z
" transform="scale(0.015625)"/>
       <path id="DejaVuSans-73" d="M 2834 3397 
L 2834 2853 
Q 2591 2978 2328 3040 
Q 2066 3103 1784 3103 
Q 1356 3103 1142 2972 
Q 928 2841 928 2578 
Q 928 2378 1081 2264 
Q 1234 2150 1697 2047 
L 1894 2003 
Q 2506 1872 2764 1633 
Q 3022 1394 3022 966 
Q 3022 478 2636 193 
Q 2250 -91 1575 -91 
Q 1294 -91 989 -36 
Q 684 19 347 128 
L 347 722 
Q 666 556 975 473 
Q 1284 391 1588 391 
Q 1994 391 2212 530 
Q 2431 669 2431 922 
Q 2431 1156 2273 1281 
Q 2116 1406 1581 1522 
L 1381 1569 
Q 847 1681 609 1914 
Q 372 2147 372 2553 
Q 372 3047 722 3315 
Q 1072 3584 1716 3584 
Q 2034 3584 2315 3537 
Q 2597 3491 2834 3397 
z
" transform="scale(0.015625)"/>
      </defs>
      <use xlink:href="#DejaVuSans-69"/>
      <use xlink:href="#DejaVuSans-74" x="27.783203"/>
      <use xlink:href="#DejaVuSans-65" x="66.992188"/>
      <use xlink:href="#DejaVuSans-72" x="128.515625"/>
      <use xlink:href="#DejaVuSans-61" x="169.628906"/>
      <use xlink:href="#DejaVuSans-74" x="230.908203"/>
      <use xlink:href="#DejaVuSans-69" x="270.117188"/>
      <use xlink:href="#DejaVuSans-6f" x="297.900391"/>
      <use xlink:href="#DejaVuSans-6e" x="359.082031"/>
      <use xlink:href="#DejaVuSans-73" x="422.460938"/>
     </g>
    </g>
   </g>
   <g id="matplotlib.axis_2">
    <g id="ytick_1">
     <g id="line2d_10">
      <defs>
       <path id="m8c2dbbe68b" d="M 0 0 
L -3.5 0 
" style="stroke: #000000; stroke-width: 0.8"/>
      </defs>
      <g>
       <use xlink:href="#m8c2dbbe68b" x="92.490625" y="234.626549" style="stroke: #000000; stroke-width: 0.8"/>
      </g>
     </g>
     <g id="text_11">
      <!-- −200 -->
      <g transform="translate(30.55625 242.224987) scale(0.2 -0.2)">
       <defs>
        <path id="DejaVuSans-2212" d="M 678 2272 
L 4684 2272 
L 4684 1741 
L 678 1741 
L 678 2272 
z
" transform="scale(0.015625)"/>
       </defs>
       <use xlink:href="#DejaVuSans-2212"/>
       <use xlink:href="#DejaVuSans-32" x="83.789062"/>
       <use xlink:href="#DejaVuSans-30" x="147.412109"/>
       <use xlink:href="#DejaVuSans-30" x="211.035156"/>
      </g>
     </g>
    </g>
    <g id="ytick_2">
     <g id="line2d_11">
      <g>
       <use xlink:href="#m8c2dbbe68b" x="92.490625" y="151.376755" style="stroke: #000000; stroke-width: 0.8"/>
      </g>
     </g>
     <g id="text_12">
      <!-- 0 -->
      <g transform="translate(72.765625 158.975193) scale(0.2 -0.2)">
       <use xlink:href="#DejaVuSans-30"/>
      </g>
     </g>
    </g>
    <g id="ytick_3">
     <g id="line2d_12">
      <g>
       <use xlink:href="#m8c2dbbe68b" x="92.490625" y="68.126962" style="stroke: #000000; stroke-width: 0.8"/>
      </g>
     </g>
     <g id="text_13">
      <!-- 200 -->
      <g transform="translate(47.315625 75.725399) scale(0.2 -0.2)">
       <use xlink:href="#DejaVuSans-32"/>
       <use xlink:href="#DejaVuSans-30" x="63.623047"/>
       <use xlink:href="#DejaVuSans-30" x="127.246094"/>
      </g>
     </g>
    </g>
    <g id="text_14">
     <!-- Loss -->
     <g transform="translate(22.396875 191.970625) rotate(-90) scale(0.2 -0.2)">
      <defs>
       <path id="DejaVuSans-4c" d="M 628 4666 
L 1259 4666 
L 1259 531 
L 3531 531 
L 3531 0 
L 628 0 
L 628 4666 
z
" transform="scale(0.015625)"/>
      </defs>
      <use xlink:href="#DejaVuSans-4c"/>
      <use xlink:href="#DejaVuSans-6f" x="53.962891"/>
      <use xlink:href="#DejaVuSans-73" x="115.144531"/>
      <use xlink:href="#DejaVuSans-73" x="167.244141"/>
     </g>
    </g>
   </g>
   <g id="line2d_13">
    <path d="M 117.854261 114.726306 
L 118.171307 106.081918 
L 118.488352 66.645135 
L 118.805398 44.03625 
L 119.122443 55.607746 
L 119.439489 116.630126 
L 119.756534 138.664661 
L 120.07358 137.321124 
L 120.390625 122.741893 
L 120.70767 120.788415 
L 121.024716 127.999278 
L 121.341761 122.989826 
L 121.658807 108.458537 
L 121.975852 122.646974 
L 122.292898 126.556792 
L 122.609943 123.898785 
L 122.926989 120.201515 
L 123.244034 126.255443 
L 123.56108 122.797609 
L 123.878125 127.006439 
L 124.19517 118.64052 
L 124.512216 124.366742 
L 124.829261 117.662909 
L 125.146307 117.330772 
L 125.463352 114.695364 
L 125.780398 107.764658 
L 126.097443 108.435758 
L 126.414489 107.051208 
L 126.731534 106.219874 
L 127.04858 110.116506 
L 127.68267 103.735206 
L 127.999716 107.114803 
L 128.316761 106.33327 
L 128.633807 103.507469 
L 128.950852 108.842958 
L 129.267898 102.920055 
L 129.584943 108.429686 
L 129.901989 110.936486 
L 130.219034 110.869457 
L 130.53608 106.939005 
L 130.853125 105.409875 
L 131.17017 110.445841 
L 131.487216 111.131011 
L 131.804261 113.912796 
L 132.121307 112.411065 
L 132.438352 111.591078 
L 132.755398 112.594274 
L 133.072443 115.130586 
L 133.389489 112.662515 
L 133.706534 111.560611 
L 134.02358 112.925905 
L 134.340625 108.346789 
L 134.65767 112.549272 
L 134.974716 114.58122 
L 135.291761 115.179402 
L 135.608807 119.262292 
L 135.925852 117.014571 
L 136.242898 116.380063 
L 136.559943 120.267786 
L 136.876989 120.37667 
L 137.194034 120.879402 
L 137.51108 120.548412 
L 137.828125 123.597646 
L 138.14517 123.431828 
L 138.462216 121.429234 
L 138.779261 122.560572 
L 139.096307 119.85272 
L 139.413352 118.694633 
L 140.047443 118.68102 
L 140.364489 118.119314 
L 140.681534 121.17012 
L 141.315625 116.7473 
L 141.63267 113.297092 
L 141.949716 118.688744 
L 142.266761 120.343387 
L 142.583807 123.308616 
L 143.217898 118.109455 
L 143.851989 123.245243 
L 144.48608 118.407012 
L 145.12017 122.653338 
L 145.437216 123.836576 
L 145.754261 125.744796 
L 146.071307 123.447651 
L 146.388352 128.318527 
L 146.705398 129.080516 
L 147.022443 128.830815 
L 147.339489 128.20745 
L 147.656534 128.76154 
L 147.97358 132.053196 
L 148.290625 133.596636 
L 148.60767 133.934515 
L 148.924716 135.141517 
L 149.241761 135.137063 
L 149.558807 134.780402 
L 149.875852 135.202134 
L 150.192898 135.093015 
L 150.509943 136.905242 
L 151.144034 142.399589 
L 151.46108 142.128559 
L 151.778125 142.779249 
L 152.09517 139.598641 
L 152.412216 140.408307 
L 152.729261 138.506123 
L 153.046307 139.937779 
L 154.314489 135.089312 
L 154.631534 138.125691 
L 154.94858 137.931203 
L 155.265625 136.48173 
L 155.58267 135.887461 
L 156.216761 133.177328 
L 156.533807 135.336782 
L 156.850852 134.894951 
L 157.167898 135.405771 
L 157.484943 135.395858 
L 157.801989 136.106534 
L 158.119034 138.160945 
L 158.753125 138.778501 
L 159.07017 139.328544 
L 159.387216 137.455284 
L 159.704261 138.146409 
L 160.021307 139.584531 
L 160.338352 139.54211 
L 160.655398 140.772087 
L 160.972443 139.328314 
L 161.289489 141.270704 
L 161.92358 138.38691 
L 162.240625 138.267975 
L 162.55767 138.407029 
L 162.874716 138.064147 
L 163.191761 136.366411 
L 163.508807 136.725459 
L 163.825852 137.7051 
L 164.142898 136.859223 
L 164.459943 139.049001 
L 164.776989 137.336016 
L 165.094034 137.257625 
L 165.41108 138.794003 
L 165.728125 138.317046 
L 166.04517 138.127537 
L 166.362216 137.085883 
L 166.679261 140.357201 
L 166.996307 142.188057 
L 167.313352 140.211719 
L 167.630398 141.214973 
L 167.947443 140.469004 
L 168.264489 140.399257 
L 168.581534 137.341402 
L 168.89858 136.956775 
L 169.215625 138.004539 
L 169.53267 141.917493 
L 169.849716 141.394417 
L 170.166761 139.770456 
L 170.483807 138.757231 
L 170.800852 139.627896 
L 171.434943 142.544043 
L 171.751989 142.319792 
L 172.069034 139.759331 
L 172.38608 140.416344 
L 172.703125 141.45395 
L 173.02017 141.363625 
L 173.337216 140.978604 
L 173.654261 142.910652 
L 173.971307 142.90158 
L 174.288352 144.549058 
L 174.605398 145.17122 
L 174.922443 145.44887 
L 175.239489 144.416339 
L 175.556534 144.947962 
L 175.87358 143.814591 
L 176.190625 145.207917 
L 176.50767 145.528567 
L 176.824716 144.861957 
L 177.141761 145.227471 
L 177.458807 144.527959 
L 177.775852 145.046411 
L 178.092898 146.68308 
L 178.409943 147.135187 
L 179.044034 143.988933 
L 179.36108 145.81337 
L 179.678125 144.652605 
L 179.99517 145.491722 
L 180.312216 145.544312 
L 180.629261 146.479505 
L 180.946307 145.926367 
L 181.263352 146.569906 
L 181.580398 146.635087 
L 181.897443 145.762171 
L 182.214489 146.892018 
L 182.531534 148.983063 
L 182.84858 148.879743 
L 183.165625 147.783513 
L 183.48267 148.254067 
L 183.799716 147.888736 
L 184.116761 146.84581 
L 184.433807 146.202176 
L 184.750852 146.837467 
L 185.067898 146.997663 
L 185.701989 146.666794 
L 186.33608 146.848622 
L 186.653125 146.639285 
L 186.97017 145.433562 
L 187.287216 146.697151 
L 187.604261 146.488051 
L 187.921307 148.265055 
L 188.238352 147.613654 
L 188.555398 147.710403 
L 188.872443 147.419561 
L 189.189489 147.740517 
L 189.506534 146.590609 
L 190.140625 147.987777 
L 190.774716 148.092569 
L 191.091761 147.626153 
L 191.408807 148.346627 
L 191.725852 147.834075 
L 192.042898 146.928657 
L 192.359943 148.067958 
L 192.676989 147.258653 
L 192.994034 148.865305 
L 193.31108 148.410553 
L 193.628125 148.967358 
L 193.94517 149.221557 
L 194.262216 149.822095 
L 194.579261 148.406232 
L 194.896307 148.806973 
L 195.213352 148.539764 
L 195.530398 149.07262 
L 195.847443 148.908721 
L 196.164489 148.61838 
L 196.79858 149.440954 
L 197.115625 149.36957 
L 197.43267 150.013568 
L 197.749716 149.776241 
L 198.066761 150.325511 
L 198.383807 149.880589 
L 198.700852 151.162299 
L 199.017898 149.985682 
L 199.334943 151.13516 
L 199.651989 149.965057 
L 200.28608 149.636812 
L 200.603125 150.277934 
L 200.92017 150.130294 
L 201.237216 149.369379 
L 201.554261 148.998461 
L 202.188352 149.411097 
L 202.505398 150.464825 
L 202.822443 150.199464 
L 203.139489 150.562235 
L 203.456534 150.590935 
L 203.77358 151.04972 
L 204.090625 151.841912 
L 204.724716 151.175547 
L 205.041761 152.473986 
L 205.358807 151.552817 
L 205.675852 151.225341 
L 205.992898 151.595681 
L 206.309943 152.660834 
L 206.626989 151.773162 
L 206.944034 152.094372 
L 207.26108 152.17824 
L 207.578125 151.68895 
L 208.529261 152.286212 
L 208.846307 152.200918 
L 209.163352 152.280159 
L 209.480398 151.754625 
L 209.797443 152.272882 
L 210.431534 151.842046 
L 210.74858 152.141914 
L 211.065625 152.770268 
L 211.38267 152.207484 
L 211.699716 152.377094 
L 212.016761 152.188492 
L 212.333807 152.676249 
L 212.650852 151.731846 
L 213.284943 151.345152 
L 213.601989 152.186997 
L 213.919034 152.122104 
L 214.23608 151.359375 
L 214.553125 151.397048 
L 214.87017 151.085501 
L 215.504261 152.610465 
L 216.138352 151.755312 
L 216.455398 151.745505 
L 216.772443 151.555412 
L 217.089489 151.233799 
L 217.72358 151.617299 
L 218.040625 151.69156 
L 218.35767 151.931251 
L 218.674716 150.713665 
L 218.991761 151.562487 
L 219.308807 151.106358 
L 219.942898 150.617443 
L 220.259943 151.580261 
L 220.576989 151.282821 
L 220.894034 151.651857 
L 221.21108 151.11709 
L 221.528125 151.018062 
L 221.84517 149.816142 
L 222.162216 150.538729 
L 222.479261 151.54643 
L 222.796307 151.134366 
L 223.113352 150.083957 
L 223.430398 149.856048 
L 223.747443 150.084806 
L 224.381534 150.905625 
L 225.015625 150.592418 
L 225.33267 150.540132 
L 225.649716 150.835766 
L 225.966761 149.605204 
L 226.283807 150.155542 
L 226.600852 148.359728 
L 226.917898 149.069275 
L 227.234943 149.470042 
L 227.551989 148.774616 
L 227.869034 149.156396 
L 228.18608 149.200486 
L 228.503125 148.372847 
L 228.82017 148.781279 
L 229.137216 148.915586 
L 229.454261 148.736299 
L 229.771307 148.278376 
L 230.088352 150.048145 
L 230.405398 149.794805 
L 231.039489 147.006615 
L 231.356534 149.701961 
L 231.67358 148.584931 
L 231.990625 150.113674 
L 232.30767 149.148353 
L 232.624716 149.050289 
L 232.941761 149.482133 
L 233.258807 149.221502 
L 233.892898 149.716106 
L 234.526989 149.448828 
L 234.844034 148.575808 
L 235.478125 149.033621 
L 235.79517 149.043221 
L 236.112216 148.766445 
L 236.429261 150.10204 
L 236.746307 149.976308 
L 237.063352 149.01284 
L 237.697443 150.415562 
L 238.014489 150.191345 
L 238.331534 149.765998 
L 238.965625 151.094122 
L 239.28267 150.749297 
L 239.599716 150.748543 
L 239.916761 150.552951 
L 240.233807 150.811243 
L 240.550852 150.267491 
L 240.867898 150.78941 
L 241.184943 151.586957 
L 241.501989 150.325004 
L 241.819034 151.032796 
L 242.13608 150.88367 
L 242.453125 150.884052 
L 242.77017 151.261011 
L 243.087216 150.707683 
L 243.404261 150.648162 
L 243.721307 149.982535 
L 244.038352 150.220711 
L 244.355398 150.660541 
L 244.672443 150.245039 
L 244.989489 151.090624 
L 245.306534 151.255264 
L 245.62358 150.92556 
L 245.940625 151.095426 
L 246.25767 151.622911 
L 246.574716 151.330097 
L 246.891761 151.27642 
L 247.208807 151.926709 
L 247.525852 151.644614 
L 247.842898 151.748004 
L 248.159943 151.589741 
L 248.476989 151.096936 
L 248.794034 151.232504 
L 249.11108 152.274212 
L 249.428125 151.431557 
L 249.74517 152.15493 
L 250.062216 150.750337 
L 250.379261 151.642762 
L 250.696307 152.003527 
L 251.013352 151.370928 
L 251.330398 151.81159 
L 252.281534 152.347011 
L 252.59858 152.287551 
L 252.915625 152.792889 
L 253.23267 152.330353 
L 253.549716 152.840892 
L 253.866761 152.952117 
L 254.183807 152.415944 
L 254.500852 152.560223 
L 254.817898 151.791173 
L 255.134943 151.744005 
L 255.451989 151.92552 
L 255.769034 151.236089 
L 256.08608 151.001596 
L 256.403125 152.275131 
L 256.72017 151.230055 
L 257.671307 152.57704 
L 257.988352 152.080164 
L 258.305398 151.791563 
L 258.622443 152.511252 
L 258.939489 151.929362 
L 259.256534 152.536765 
L 259.57358 151.959364 
L 259.890625 152.067056 
L 260.20767 152.043511 
L 260.841761 152.304802 
L 261.158807 151.700389 
L 261.792898 151.287794 
L 262.426989 152.210526 
L 262.744034 152.047336 
L 263.06108 152.215515 
L 263.378125 151.418016 
L 263.69517 151.783619 
L 264.329261 151.755368 
L 264.646307 152.372138 
L 265.280398 152.398249 
L 265.914489 152.143606 
L 266.231534 152.661245 
L 266.54858 152.418168 
L 266.865625 151.076607 
L 267.18267 152.230132 
L 267.499716 152.254543 
L 267.816761 152.085501 
L 268.133807 152.097016 
L 268.767898 151.575627 
L 269.401989 151.848856 
L 269.719034 151.953318 
L 270.03608 152.623378 
L 270.67017 151.842257 
L 270.987216 152.267785 
L 271.621307 152.143958 
L 271.938352 150.987889 
L 272.572443 151.975647 
L 272.889489 151.998391 
L 273.206534 151.335571 
L 273.52358 151.682935 
L 273.840625 152.632733 
L 274.15767 152.19404 
L 275.108807 151.946123 
L 275.425852 152.200519 
L 275.742898 152.193347 
L 276.059943 151.984494 
L 276.694034 152.365496 
L 277.01108 152.266247 
L 277.328125 151.934436 
L 277.64517 152.40168 
L 277.962216 152.065543 
L 278.279261 151.446763 
L 278.596307 151.828722 
L 278.913352 151.947018 
L 279.230398 152.448695 
L 279.547443 151.844327 
L 279.864489 151.506004 
L 280.181534 151.857779 
L 280.49858 151.871857 
L 280.815625 151.079205 
L 281.13267 151.507201 
L 281.449716 151.45044 
L 281.766761 151.647678 
L 282.083807 151.448021 
L 282.400852 151.495779 
L 282.717898 150.817983 
L 283.034943 151.706664 
L 283.351989 151.308106 
L 283.669034 151.276547 
L 283.98608 151.5955 
L 284.303125 151.62933 
L 284.62017 151.070949 
L 284.937216 151.645706 
L 285.254261 151.69572 
L 285.888352 151.149644 
L 286.205398 151.458323 
L 286.522443 151.46821 
L 286.839489 152.024571 
L 287.156534 152.047261 
L 287.47358 151.13832 
L 287.790625 151.604247 
L 288.10767 151.562435 
L 288.424716 151.300639 
L 288.741761 151.701181 
L 289.058807 151.454309 
L 289.375852 151.537243 
L 289.692898 151.037532 
L 290.009943 151.344607 
L 290.326989 151.194195 
L 290.644034 151.298938 
L 291.278125 151.177206 
L 291.59517 151.24606 
L 292.229261 151.801094 
L 292.546307 151.715007 
L 292.863352 151.495821 
L 293.180398 151.575049 
L 293.497443 152.208455 
L 293.814489 151.707065 
L 294.131534 151.726826 
L 294.44858 151.988182 
L 294.765625 152.692704 
L 295.08267 152.089559 
L 295.716761 152.427433 
L 296.033807 152.218327 
L 296.350852 152.372906 
L 296.667898 152.029724 
L 296.984943 152.286971 
L 297.301989 151.970467 
L 297.619034 152.555662 
L 297.93608 152.245332 
L 298.57017 152.541199 
L 298.887216 151.979995 
L 299.204261 152.520662 
L 299.521307 152.584042 
L 299.838352 152.14573 
L 300.155398 152.190755 
L 300.472443 151.690852 
L 300.789489 152.114592 
L 301.106534 152.29273 
L 301.740625 152.107116 
L 302.05767 152.648587 
L 302.374716 152.284687 
L 303.008807 152.570828 
L 303.325852 151.94545 
L 303.642898 152.373726 
L 304.276989 152.544228 
L 304.594034 152.822214 
L 305.228125 152.090089 
L 305.54517 152.535167 
L 306.179261 152.221624 
L 306.496307 152.436898 
L 306.813352 152.35947 
L 307.447443 152.520215 
L 307.764489 153.016444 
L 308.081534 151.731253 
L 308.39858 152.950878 
L 308.715625 152.456644 
L 309.349716 152.995511 
L 309.666761 152.141711 
L 309.983807 152.638712 
L 310.300852 152.800987 
L 310.934943 152.785811 
L 311.251989 152.008473 
L 311.569034 152.737062 
L 311.88608 152.400565 
L 312.203125 152.305675 
L 312.52017 151.975513 
L 312.837216 152.573437 
L 313.154261 151.750127 
L 313.471307 152.303332 
L 313.788352 148.524838 
L 314.105398 151.957175 
L 314.422443 151.768497 
L 314.739489 151.228879 
L 315.056534 149.876511 
L 315.37358 150.908245 
L 315.690625 150.634714 
L 316.00767 150.781189 
L 316.324716 151.133643 
L 316.641761 150.985306 
L 316.958807 151.421726 
L 317.275852 151.07346 
L 317.909943 151.445347 
L 318.226989 151.544725 
L 318.544034 151.284326 
L 318.86108 151.233488 
L 319.178125 151.776222 
L 319.49517 152.068305 
L 319.812216 151.888559 
L 320.129261 152.299186 
L 320.446307 152.396925 
L 320.763352 152.804566 
L 321.080398 151.928435 
L 321.714489 151.75361 
L 322.031534 152.006023 
L 322.34858 152.058703 
L 322.665625 151.994579 
L 322.98267 151.590229 
L 323.616761 151.647107 
L 323.933807 151.896192 
L 324.250852 151.728772 
L 324.884943 151.971596 
L 325.201989 151.477873 
L 325.83608 152.194692 
L 326.787216 152.161486 
L 327.104261 151.747277 
L 327.421307 151.809392 
L 327.738352 152.215417 
L 328.055398 152.396104 
L 328.372443 152.099389 
L 328.689489 152.378092 
L 329.640625 152.240698 
L 329.95767 151.902568 
L 330.274716 152.467766 
L 330.591761 152.124655 
L 330.908807 152.70934 
L 331.225852 152.230334 
L 331.542898 152.155856 
L 331.859943 152.355853 
L 332.176989 152.094614 
L 332.494034 152.597834 
L 332.81108 152.284626 
L 333.128125 151.680398 
L 333.44517 152.298811 
L 333.762216 152.390976 
L 334.079261 152.345511 
L 334.396307 151.894844 
L 334.713352 151.847075 
L 335.030398 152.100982 
L 335.347443 151.939378 
L 335.664489 152.30459 
L 336.29858 152.323955 
L 336.615625 151.872378 
L 336.93267 152.179649 
L 337.249716 152.235323 
L 337.566761 151.742924 
L 337.883807 151.994381 
L 338.200852 151.714282 
L 338.517898 152.59086 
L 338.834943 152.371201 
L 339.151989 152.410087 
L 339.469034 151.979833 
L 339.78608 152.13412 
L 340.42017 151.953103 
L 340.737216 152.663517 
L 341.054261 152.850887 
L 341.371307 152.335265 
L 341.688352 152.093904 
L 342.005398 152.09731 
L 342.322443 151.861739 
L 342.639489 152.22775 
L 342.956534 152.143963 
L 343.27358 151.920261 
L 343.590625 152.292448 
L 344.224716 151.608838 
L 344.541761 151.884717 
L 344.858807 151.948034 
L 345.492898 151.885639 
L 345.809943 151.98697 
L 346.126989 151.792668 
L 346.444034 151.911078 
L 346.76108 151.859503 
L 347.39517 151.98688 
L 347.712216 152.018334 
L 348.029261 152.415296 
L 348.663352 151.914235 
L 348.980398 151.89707 
L 349.614489 152.22128 
L 350.88267 151.399755 
L 351.199716 152.082493 
L 351.516761 151.858426 
L 351.833807 151.14337 
L 352.150852 151.339535 
L 352.467898 151.059344 
L 352.784943 151.37599 
L 353.73608 151.377481 
L 354.053125 151.680836 
L 354.687216 151.543694 
L 355.004261 150.926786 
L 355.638352 151.767019 
L 355.955398 151.616761 
L 356.272443 151.706296 
L 356.589489 151.076738 
L 356.906534 151.587845 
L 357.22358 151.442994 
L 357.540625 151.430316 
L 357.85767 151.547727 
L 358.174716 151.213943 
L 358.491761 151.582079 
L 358.808807 151.353998 
L 359.442898 151.507801 
L 360.076989 151.177908 
L 360.394034 151.384978 
L 361.34517 151.092115 
L 361.662216 151.176657 
L 361.979261 151.640328 
L 362.613352 151.604892 
L 362.930398 151.570655 
L 363.247443 151.945732 
L 363.881534 151.938915 
L 364.19858 151.661181 
L 364.515625 151.550083 
L 364.83267 151.205932 
L 365.466761 151.191742 
L 365.783807 151.686735 
L 366.100852 151.613083 
L 366.417898 151.852518 
L 366.734943 151.679496 
L 367.369034 152.207215 
L 369.271307 151.367225 
L 369.588352 151.667476 
L 370.222443 151.296849 
L 370.539489 151.849446 
L 370.856534 151.805784 
L 371.17358 151.328364 
L 371.490625 151.674293 
L 371.80767 151.743831 
L 372.124716 152.042436 
L 372.441761 151.830819 
L 372.758807 151.370385 
L 373.392898 151.709383 
L 373.709943 151.443255 
L 374.026989 151.744608 
L 374.344034 151.368646 
L 374.66108 151.488061 
L 374.978125 151.828688 
L 375.29517 151.146687 
L 375.612216 151.689779 
L 375.929261 151.498835 
L 376.563352 151.770987 
L 376.880398 151.543286 
L 377.197443 150.945401 
L 377.514489 151.778396 
L 377.831534 151.49887 
L 378.465625 151.858059 
L 379.099716 151.134675 
L 379.416761 151.486843 
L 379.733807 151.396916 
L 380.050852 151.719428 
L 380.367898 151.424326 
L 380.684943 151.788686 
L 381.001989 151.564222 
L 381.319034 151.705691 
L 381.63608 151.996654 
L 381.953125 151.92431 
L 382.27017 151.704387 
L 382.587216 152.328413 
L 383.221307 152.27705 
L 383.538352 151.88783 
L 384.489489 151.92844 
L 384.806534 152.307681 
L 385.440625 152.183362 
L 386.074716 152.189478 
L 386.391761 152.038944 
L 386.708807 152.635119 
L 387.025852 152.101613 
L 387.342898 151.938368 
L 387.659943 152.079164 
L 387.976989 151.71079 
L 388.294034 151.797494 
L 388.61108 151.646745 
L 388.928125 152.143108 
L 389.24517 151.99021 
L 389.562216 152.18414 
L 389.879261 152.22808 
L 390.513352 151.906362 
L 390.830398 151.692709 
L 391.147443 151.910702 
L 391.464489 151.764202 
L 392.09858 151.699157 
L 392.415625 152.14054 
L 392.73267 151.37151 
L 393.366761 151.766142 
L 394.000852 151.713636 
L 394.317898 151.875768 
L 394.634943 151.39868 
L 394.951989 151.225943 
L 395.269034 151.535501 
L 395.58608 151.645419 
L 395.903125 151.240036 
L 396.537216 151.689344 
L 398.122443 151.53041 
L 398.439489 151.307105 
L 398.756534 151.856963 
L 399.390625 151.503902 
L 399.70767 151.979471 
L 400.024716 151.697348 
L 400.341761 151.934772 
L 400.658807 151.508816 
L 400.975852 152.151504 
L 401.292898 151.747737 
L 401.609943 151.834478 
L 401.926989 152.265236 
L 402.244034 151.941584 
L 402.56108 151.934039 
L 402.878125 151.171931 
L 403.19517 151.802155 
L 403.512216 152.066033 
L 404.146307 151.545989 
L 404.780398 151.575974 
L 405.097443 151.873294 
L 405.414489 151.918905 
L 405.731534 151.736145 
L 406.04858 151.989589 
L 406.365625 151.574647 
L 406.68267 151.879342 
L 407.633807 151.910117 
L 407.950852 151.70139 
L 408.267898 151.937435 
L 408.584943 152.009852 
L 408.901989 151.533277 
L 409.53608 152.084454 
L 409.853125 151.590728 
L 410.487216 152.446118 
L 411.121307 151.724952 
L 411.755398 152.141755 
L 412.072443 151.898353 
L 412.389489 152.1334 
L 412.706534 152.032246 
L 413.02358 152.398274 
L 413.340625 151.485606 
L 413.65767 151.919006 
L 413.974716 151.88307 
L 414.291761 151.55212 
L 414.608807 151.715725 
L 414.925852 152.216185 
L 415.559943 151.526062 
L 415.876989 151.839099 
L 416.194034 152.344255 
L 416.51108 152.354418 
L 416.828125 151.937689 
L 417.14517 151.854042 
L 417.779261 152.403465 
L 418.096307 151.928993 
L 419.047443 152.361175 
L 419.364489 152.258287 
L 419.99858 152.385159 
L 420.315625 151.892379 
L 421.266761 152.244459 
L 421.583807 151.72125 
L 421.900852 152.643585 
L 422.217898 152.199328 
L 422.534943 152.058942 
L 422.851989 152.411634 
L 423.48608 151.943532 
L 423.803125 151.985253 
L 424.437216 151.866921 
L 424.754261 151.978894 
L 425.071307 152.516977 
L 425.388352 152.155609 
L 425.705398 152.389905 
L 426.022443 152.072178 
L 426.339489 152.703306 
L 426.656534 152.95425 
L 426.97358 152.619859 
L 427.60767 152.332556 
L 428.241761 152.769971 
L 428.875852 152.24283 
L 429.509943 152.833334 
L 429.826989 152.80824 
L 430.144034 152.291823 
L 430.46108 152.833655 
L 431.09517 152.210842 
L 431.729261 152.278928 
L 432.363352 152.356118 
L 432.680398 152.226534 
L 432.997443 152.465522 
L 433.314489 152.474592 
L 433.631534 152.221023 
L 433.94858 152.302501 
L 434.265625 152.05563 
L 434.899716 152.459694 
L 435.216761 152.101627 
L 435.533807 152.179048 
L 435.850852 152.103387 
L 436.167898 152.219353 
L 436.484943 152.510258 
L 436.801989 152.273396 
L 437.119034 152.398583 
L 437.753125 152.125431 
L 438.07017 152.171389 
L 438.387216 151.970359 
L 438.704261 152.253858 
L 439.021307 152.200606 
L 439.338352 152.397954 
L 439.655398 152.317683 
L 439.972443 152.115818 
L 440.606534 152.208094 
L 440.92358 151.816096 
L 441.240625 152.263418 
L 441.55767 152.06862 
L 441.874716 152.056638 
L 442.191761 152.361283 
L 442.508807 152.3193 
L 442.825852 151.907125 
L 443.142898 152.04794 
L 443.459943 152.353644 
L 443.776989 152.087623 
L 444.094034 152.359963 
L 444.41108 152.294126 
L 444.728125 152.614881 
L 445.04517 152.20847 
L 445.362216 152.351788 
L 445.679261 152.690721 
L 446.630398 151.781281 
L 446.947443 152.120058 
L 447.264489 152.27773 
L 447.89858 151.806116 
L 448.215625 152.353814 
L 448.53267 151.890548 
L 448.849716 152.196915 
L 449.166761 151.925702 
L 449.800852 151.948349 
L 450.434943 152.060363 
L 450.751989 152.072341 
L 451.38608 152.921489 
L 451.703125 152.333817 
L 452.02017 152.006672 
L 452.337216 152.520321 
L 452.654261 152.654111 
L 452.971307 152.500869 
L 453.288352 151.963768 
L 453.605398 151.764147 
L 453.922443 152.336932 
L 454.239489 151.989874 
L 454.87358 152.021301 
L 455.190625 152.29921 
L 455.50767 152.317879 
L 455.824716 152.627305 
L 456.458807 152.462779 
L 456.775852 152.18155 
L 457.092898 152.654229 
L 457.409943 152.367052 
L 457.726989 152.439632 
L 458.36108 152.247902 
L 458.678125 152.307977 
L 458.99517 152.507178 
L 459.312216 152.42275 
L 459.946307 152.686774 
L 460.263352 152.495383 
L 460.580398 152.551822 
L 460.897443 152.895301 
L 461.214489 152.279384 
L 461.531534 152.848113 
L 461.84858 152.753765 
L 462.165625 152.488698 
L 462.48267 152.949287 
L 462.799716 152.571899 
L 463.116761 152.693882 
L 463.433807 152.64935 
L 463.750852 152.353643 
L 464.067898 152.669361 
L 464.384943 152.368571 
L 464.701989 152.538901 
L 465.019034 152.843801 
L 465.33608 152.570692 
L 465.97017 152.54439 
L 466.287216 152.787501 
L 467.238352 152.488456 
L 468.189489 153.162053 
L 468.506534 152.986459 
L 468.82358 152.455687 
L 469.140625 153.06156 
L 469.45767 152.777063 
L 469.774716 152.756131 
L 470.091761 153.00796 
L 470.725852 152.882425 
L 471.042898 152.355673 
L 471.359943 152.493841 
L 471.994034 153.210481 
L 472.628125 153.058307 
L 473.262216 152.955914 
L 473.579261 152.74624 
L 474.213352 153.027155 
L 474.530398 152.504372 
L 474.847443 152.859766 
L 475.79858 153.041754 
L 476.115625 152.541584 
L 476.43267 152.417945 
L 476.749716 152.832131 
L 477.066761 152.925445 
L 477.383807 152.586765 
L 478.017898 153.048029 
L 478.334943 152.752645 
L 478.651989 152.626115 
L 479.28608 152.936892 
L 479.603125 152.683649 
L 479.92017 152.911091 
L 480.237216 152.363894 
L 480.554261 153.042916 
L 480.871307 152.990963 
L 481.188352 152.506209 
L 481.505398 152.774364 
L 481.822443 152.52135 
L 482.456534 152.919921 
L 482.77358 152.54567 
L 483.090625 152.87646 
L 483.40767 152.736383 
L 483.724716 153.032834 
L 484.041761 153.108853 
L 484.358807 152.820255 
L 484.992898 152.876966 
L 485.309943 153.321299 
L 485.626989 152.960797 
L 485.944034 152.98893 
L 486.26108 153.202848 
L 487.846307 152.827884 
L 488.163352 153.304688 
L 488.480398 153.046339 
L 488.797443 153.28803 
L 489.114489 153.168489 
L 489.431534 152.752113 
L 489.74858 153.269234 
L 490.065625 153.139193 
L 490.38267 152.812752 
L 491.333807 152.878505 
L 491.650852 153.041601 
L 491.967898 153.015541 
L 492.284943 153.262489 
L 492.919034 152.676142 
L 493.23608 153.009325 
L 493.553125 152.575587 
L 494.187216 152.872476 
L 494.504261 152.953163 
L 495.138352 152.705524 
L 495.455398 152.7006 
L 495.772443 153.317643 
L 496.089489 153.208254 
L 496.406534 152.574833 
L 496.72358 153.190572 
L 497.35767 153.272659 
L 498.308807 153.167297 
L 498.625852 153.395762 
L 498.942898 152.937887 
L 499.259943 153.385975 
L 500.21108 153.064183 
L 501.796307 153.346452 
L 502.113352 152.849626 
L 502.430398 153.348604 
L 502.747443 153.083616 
L 503.064489 153.063849 
L 504.015625 153.460508 
L 504.33267 153.094293 
L 504.649716 153.305938 
L 504.966761 153.136372 
L 505.600852 153.354174 
L 505.917898 153.002398 
L 506.234943 152.853821 
L 506.551989 153.119664 
L 507.18608 152.353978 
L 507.503125 152.973688 
L 507.82017 152.615818 
L 508.137216 152.885859 
L 508.771307 153.080894 
L 509.088352 152.475642 
L 509.722443 153.111158 
L 510.039489 152.834946 
L 510.67358 153.084885 
L 510.990625 153.249396 
L 511.30767 153.287478 
L 511.624716 152.899149 
L 512.258807 152.909204 
L 512.575852 152.915387 
L 512.892898 153.399765 
L 513.209943 153.2647 
L 513.526989 152.885833 
L 513.844034 153.286273 
L 514.16108 152.630615 
L 514.478125 153.617197 
L 514.79517 153.268812 
L 515.112216 153.215023 
L 515.429261 153.590197 
L 515.746307 153.722517 
L 516.063352 152.92342 
L 516.380398 153.482382 
L 516.697443 152.757448 
L 517.014489 152.935928 
L 517.331534 153.25308 
L 518.28267 153.696591 
L 518.916761 154.158429 
L 519.233807 153.541019 
L 519.550852 153.952786 
L 520.184943 153.701989 
L 520.501989 153.335836 
L 520.819034 153.582743 
L 521.453125 153.377643 
L 522.087216 153.699386 
L 523.355398 153.434308 
L 523.672443 153.758098 
L 523.989489 153.542321 
L 524.940625 153.698703 
L 525.891761 153.253953 
L 526.208807 153.498585 
L 526.842898 153.51771 
L 527.159943 153.175226 
L 527.476989 153.628483 
L 528.428125 153.407202 
L 529.062216 153.625232 
L 529.696307 154.079353 
L 530.013352 153.52271 
L 530.330398 154.142258 
L 530.647443 153.775613 
L 531.281534 153.691069 
L 531.59858 153.250884 
L 531.915625 153.65295 
L 532.23267 153.240823 
L 532.549716 153.363758 
L 532.866761 153.665132 
L 533.500852 153.547324 
L 533.817898 153.727648 
L 534.134943 153.437601 
L 534.451989 153.591748 
L 534.769034 153.20177 
L 535.08608 153.62279 
L 535.403125 153.613591 
L 535.72017 153.297419 
L 536.037216 153.498631 
L 536.354261 153.269644 
L 536.671307 153.50599 
L 536.988352 153.039009 
L 537.305398 153.420922 
L 537.622443 153.227858 
L 537.939489 153.610846 
L 538.256534 153.223473 
L 538.57358 153.61341 
L 538.890625 153.395769 
L 539.20767 153.530347 
L 540.475852 153.527112 
L 541.109943 153.154881 
L 542.06108 152.945378 
L 542.378125 153.069234 
L 542.69517 152.895172 
L 543.012216 152.954893 
L 543.646307 153.231055 
L 543.963352 152.952159 
L 544.597443 152.711547 
L 545.231534 153.406709 
L 545.54858 153.080918 
L 545.865625 153.18338 
L 546.499716 153.677974 
L 547.133807 152.99729 
L 547.450852 153.279174 
L 547.767898 153.329818 
L 548.084943 153.070421 
L 548.401989 153.08816 
L 549.03608 153.589711 
L 549.353125 153.321398 
L 549.67017 153.503544 
L 549.987216 153.224771 
L 550.304261 153.148529 
L 550.621307 152.935954 
L 551.255398 152.90536 
L 551.572443 152.898195 
L 551.889489 153.30974 
L 552.840625 152.883784 
L 553.15767 153.524074 
L 553.474716 152.95302 
L 553.791761 153.130791 
L 554.108807 153.132953 
L 554.425852 152.785131 
L 554.742898 153.14254 
L 555.059943 152.821081 
L 555.376989 153.039831 
L 555.694034 152.69415 
L 556.01108 152.627309 
L 556.328125 153.250003 
L 556.64517 152.936387 
L 556.962216 152.939571 
L 557.279261 153.188603 
L 557.596307 152.91533 
L 557.913352 153.216382 
L 558.230398 152.989003 
L 558.864489 153.063867 
L 559.49858 153.033201 
L 560.13267 152.855591 
L 560.449716 153.06581 
L 561.083807 152.609432 
L 561.400852 152.722255 
L 561.717898 152.712911 
L 562.034943 152.263852 
L 562.351989 152.351952 
L 562.669034 152.726475 
L 563.303125 152.559372 
L 563.62017 152.80446 
L 563.937216 152.748245 
L 564.254261 152.450868 
L 564.571307 153.044907 
L 564.888352 152.88045 
L 565.205398 152.563451 
L 565.522443 152.538204 
L 565.839489 152.761004 
L 566.47358 152.56896 
L 566.790625 152.841062 
L 567.10767 152.781233 
L 567.741761 152.9799 
L 568.058807 152.620084 
L 568.692898 153.010949 
L 569.009943 152.620599 
L 569.326989 152.759768 
L 569.644034 152.341864 
L 569.96108 152.189816 
L 570.278125 152.232322 
L 570.59517 152.081882 
L 571.863352 152.850663 
L 572.180398 152.606638 
L 572.497443 153.012085 
L 573.131534 152.88128 
L 573.44858 152.959163 
L 573.765625 152.871557 
L 574.08267 152.470064 
L 574.399716 152.464329 
L 574.716761 152.338737 
L 575.350852 152.479379 
L 575.667898 152.213927 
L 575.984943 152.544605 
L 576.301989 152.586562 
L 576.619034 153.004439 
L 576.93608 152.78288 
L 577.253125 153.020857 
L 578.204261 152.70677 
L 578.521307 152.984976 
L 578.838352 152.76254 
L 579.155398 152.826365 
L 579.472443 152.65628 
L 580.106534 152.991104 
L 580.42358 152.631896 
L 580.740625 152.596405 
L 581.05767 152.930498 
L 581.374716 152.517437 
L 581.691761 152.876324 
L 582.008807 152.550556 
L 582.325852 152.638999 
L 582.642898 152.420192 
L 582.959943 152.832896 
L 583.276989 152.470918 
L 583.91108 152.852128 
L 584.54517 152.872129 
L 584.862216 152.538653 
L 585.179261 152.555474 
L 585.496307 152.251174 
L 585.813352 152.721179 
L 586.130398 152.507361 
L 586.764489 152.906622 
L 587.081534 152.66763 
L 587.39858 152.841139 
L 587.715625 152.36401 
L 588.03267 152.966757 
L 588.349716 152.657263 
L 588.666761 152.605128 
L 588.983807 152.158719 
L 589.934943 152.338716 
L 590.251989 152.60879 
L 590.569034 152.278133 
L 590.88608 152.293181 
L 591.203125 152.449185 
L 591.52017 152.372741 
L 591.837216 152.759631 
L 592.154261 152.645883 
L 592.471307 152.224476 
L 593.422443 152.548796 
L 594.056534 151.982525 
L 595.00767 152.47898 
L 595.324716 152.494222 
L 595.641761 152.725815 
L 595.958807 152.493639 
L 596.275852 152.061848 
L 596.592898 152.254294 
L 596.909943 152.296119 
L 597.226989 152.7446 
L 597.544034 152.275565 
L 597.86108 152.610069 
L 598.178125 152.205358 
L 598.812216 152.69851 
L 599.129261 152.198785 
L 599.446307 152.587381 
L 599.763352 152.149128 
L 600.397443 152.576665 
L 601.34858 152.436056 
L 601.665625 152.88295 
L 601.98267 152.221981 
L 602.299716 152.510987 
L 602.616761 152.402454 
L 602.933807 152.628892 
L 603.250852 152.14363 
L 603.884943 152.529065 
L 604.201989 152.720471 
L 604.519034 152.296181 
L 604.83608 152.8266 
L 605.47017 152.419394 
L 606.104261 152.76012 
L 606.421307 152.571466 
L 607.372443 152.618647 
L 607.689489 152.208865 
L 608.006534 152.447137 
L 608.32358 152.298292 
L 608.640625 152.981215 
L 608.95767 152.967968 
L 609.591761 152.377224 
L 609.908807 152.629692 
L 610.225852 153.027993 
L 611.176989 152.76738 
L 611.494034 152.921496 
L 611.81108 152.738698 
L 612.128125 153.036872 
L 612.44517 153.108161 
L 612.762216 153.060822 
L 613.079261 152.601152 
L 614.030398 152.747112 
L 614.347443 152.716531 
L 614.664489 153.012263 
L 614.981534 152.629935 
L 615.93267 152.667877 
L 616.249716 153.147832 
L 616.566761 152.735324 
L 617.200852 152.967806 
L 617.517898 152.357874 
L 617.834943 152.647736 
L 618.78608 152.462185 
L 619.103125 152.903257 
L 619.42017 152.747007 
L 620.054261 153.245768 
L 620.688352 152.73189 
L 621.005398 152.930247 
L 621.322443 152.923364 
L 621.639489 152.433713 
L 621.956534 152.999371 
L 622.90767 152.56963 
L 623.224716 152.731361 
L 623.541761 152.510596 
L 623.858807 152.818962 
L 624.492898 152.617299 
L 624.809943 152.735365 
L 625.126989 153.219281 
L 625.126989 153.219281 
" clip-path="url(#pf637f0df29)" style="fill: none; stroke: #1f77b4; stroke-width: 1.5; stroke-linecap: square"/>
   </g>
   <g id="line2d_14">
    <path d="M 117.854261 257.658289 
L 118.171307 262.165711 
L 118.488352 291.943205 
L 118.805398 296.03625 
L 119.439489 271.11781 
L 119.756534 227.057898 
L 120.07358 207.5709 
L 120.390625 203.182002 
L 120.70767 203.974264 
L 121.024716 211.845554 
L 121.658807 201.196422 
L 121.975852 195.910364 
L 122.292898 195.703205 
L 122.609943 192.753227 
L 122.926989 197.401453 
L 123.244034 172.184989 
L 123.56108 172.103903 
L 123.878125 169.627321 
L 124.19517 171.510379 
L 124.512216 166.488463 
L 124.829261 169.662831 
L 125.146307 167.766312 
L 125.463352 168.409239 
L 125.780398 168.391562 
L 126.097443 165.287616 
L 126.414489 166.881572 
L 126.731534 166.794035 
L 127.04858 165.094572 
L 127.365625 166.165148 
L 127.68267 165.451608 
L 127.999716 164.010929 
L 128.316761 163.25549 
L 128.633807 164.862355 
L 128.950852 163.978923 
L 129.267898 163.485609 
L 129.901989 161.702402 
L 130.219034 160.420844 
L 130.53608 164.815428 
L 130.853125 163.952454 
L 131.17017 162.432016 
L 131.487216 163.099974 
L 131.804261 162.512979 
L 132.121307 162.265303 
L 132.438352 163.58709 
L 132.755398 161.410305 
L 133.072443 162.710343 
L 133.389489 161.565435 
L 133.706534 161.16584 
L 134.02358 161.539059 
L 134.340625 162.557454 
L 134.65767 161.171452 
L 134.974716 161.384449 
L 135.291761 160.92679 
L 135.608807 160.831448 
L 136.242898 161.328739 
L 136.559943 161.196216 
L 136.876989 161.194354 
L 137.194034 161.482621 
L 137.51108 161.201429 
L 137.828125 159.7919 
L 138.14517 160.884693 
L 138.462216 160.064798 
L 138.779261 160.550759 
L 139.096307 162.077185 
L 139.413352 163.054654 
L 139.730398 160.376997 
L 140.047443 163.420413 
L 140.364489 160.81798 
L 140.681534 160.706714 
L 141.315625 162.97898 
L 141.63267 161.428681 
L 141.949716 160.805188 
L 142.583807 160.193846 
L 143.217898 162.631121 
L 143.851989 159.442412 
L 144.169034 161.834268 
L 144.48608 161.591212 
L 144.803125 160.94865 
L 145.12017 161.58259 
L 145.437216 161.661909 
L 145.754261 162.60633 
L 146.388352 161.360388 
L 147.022443 161.703732 
L 147.339489 160.981433 
L 147.97358 161.378065 
L 148.60767 159.80897 
L 149.558807 161.088266 
L 150.192898 161.389012 
L 150.509943 160.004467 
L 150.826989 161.423814 
L 151.144034 161.588497 
L 151.46108 160.70362 
L 151.778125 161.311015 
L 152.09517 162.288528 
L 152.412216 161.574032 
L 152.729261 162.933584 
L 153.046307 162.761098 
L 153.363352 161.823109 
L 153.680398 163.255695 
L 153.997443 162.48772 
L 154.314489 162.510713 
L 154.631534 162.845991 
L 154.94858 162.220304 
L 155.265625 162.518876 
L 155.899716 164.100062 
L 156.216761 161.71733 
L 156.533807 160.953926 
L 156.850852 162.188098 
L 157.484943 161.382858 
L 157.801989 162.157181 
L 158.119034 162.385889 
L 158.43608 160.804717 
L 158.753125 161.59229 
L 159.07017 161.478432 
L 159.387216 161.686822 
L 159.704261 162.509587 
L 160.021307 161.135064 
L 160.338352 161.60804 
L 160.972443 163.370876 
L 161.289489 161.109782 
L 161.606534 153.752785 
L 161.92358 154.884893 
L 162.240625 154.642952 
L 162.55767 156.15602 
L 162.874716 156.257159 
L 163.191761 154.933457 
L 163.508807 156.047679 
L 163.825852 156.254787 
L 164.142898 157.181505 
L 164.459943 156.53724 
L 164.776989 156.437924 
L 165.094034 156.791371 
L 165.41108 156.526013 
L 165.728125 156.899174 
L 166.04517 156.612682 
L 166.362216 155.971204 
L 166.679261 156.374247 
L 167.313352 156.676973 
L 167.630398 156.380954 
L 167.947443 156.744293 
L 168.264489 156.508302 
L 168.89858 156.742195 
L 169.215625 156.015266 
L 169.53267 156.667905 
L 170.166761 156.571618 
L 170.483807 156.876875 
L 170.800852 157.011189 
L 171.434943 156.562438 
L 171.751989 157.11912 
L 172.069034 157.288222 
L 172.38608 156.918805 
L 172.703125 156.340906 
L 173.02017 157.068537 
L 173.337216 156.310565 
L 173.971307 155.798621 
L 174.288352 156.372213 
L 174.605398 156.620934 
L 175.239489 155.934658 
L 175.556534 155.997717 
L 175.87358 156.237635 
L 176.190625 156.252845 
L 176.50767 155.534283 
L 176.824716 156.106492 
L 177.141761 155.971055 
L 177.458807 155.262929 
L 177.775852 155.565248 
L 178.092898 155.523103 
L 178.409943 155.801346 
L 178.726989 156.566333 
L 179.044034 156.216639 
L 179.36108 156.133157 
L 179.678125 155.391582 
L 179.99517 155.66232 
L 180.312216 156.145638 
L 180.629261 155.672539 
L 180.946307 155.874484 
L 181.263352 155.743108 
L 181.580398 156.238413 
L 181.897443 155.989438 
L 182.531534 156.440338 
L 183.165625 155.672807 
L 183.48267 155.631246 
L 183.799716 155.827528 
L 184.116761 156.184732 
L 184.433807 155.693904 
L 184.750852 156.168457 
L 185.067898 156.299126 
L 185.384943 155.762169 
L 186.019034 156.752607 
L 186.33608 155.909613 
L 186.653125 156.437744 
L 187.287216 156.503263 
L 187.604261 156.287067 
L 187.921307 156.348738 
L 188.238352 156.141802 
L 188.555398 156.48928 
L 188.872443 155.958175 
L 189.189489 155.93672 
L 189.506534 156.125692 
L 189.82358 156.556642 
L 190.140625 156.08584 
L 190.45767 155.853602 
L 190.774716 156.224566 
L 191.408807 155.977781 
L 191.725852 156.594103 
L 192.042898 155.667991 
L 192.676989 156.37959 
L 192.994034 156.129236 
L 193.31108 156.608581 
L 193.628125 155.852199 
L 193.94517 155.933841 
L 194.262216 155.823862 
L 194.579261 156.261902 
L 194.896307 156.217012 
L 195.213352 156.433896 
L 195.530398 156.219792 
L 195.847443 156.336659 
L 196.164489 156.096349 
L 196.481534 156.14078 
L 196.79858 156.421176 
L 197.749716 156.095558 
L 198.066761 157.212045 
L 198.383807 156.587763 
L 198.700852 156.30008 
L 199.017898 156.348145 
L 199.334943 156.214621 
L 199.651989 156.433314 
L 199.969034 156.347303 
L 200.603125 156.730407 
L 200.92017 156.311451 
L 201.237216 156.422137 
L 201.554261 156.363393 
L 201.871307 156.605773 
L 203.139489 156.104843 
L 203.456534 156.384421 
L 203.77358 156.488825 
L 204.090625 156.398473 
L 204.40767 156.77701 
L 205.041761 156.438086 
L 205.358807 156.575574 
L 205.675852 156.895077 
L 205.992898 156.586644 
L 206.309943 156.758388 
L 206.626989 156.656062 
L 206.944034 156.965966 
L 207.578125 156.474212 
L 207.89517 156.979237 
L 208.846307 156.78095 
L 209.163352 157.101613 
L 209.797443 156.551084 
L 210.431534 157.098151 
L 210.74858 156.494078 
L 211.065625 156.470489 
L 211.38267 156.88698 
L 211.699716 156.736063 
L 212.016761 156.7347 
L 212.333807 157.464837 
L 212.650852 157.245992 
L 212.967898 156.862099 
L 213.284943 156.935837 
L 213.601989 156.769388 
L 213.919034 157.033425 
L 214.23608 156.931994 
L 214.87017 157.300986 
L 215.187216 156.96563 
L 215.504261 157.144787 
L 216.138352 156.797355 
L 216.455398 157.022033 
L 216.772443 156.650283 
L 217.089489 156.643316 
L 217.406534 157.060201 
L 217.72358 156.635579 
L 218.35767 156.742267 
L 218.991761 156.37065 
L 219.308807 156.805563 
L 219.625852 157.010789 
L 219.942898 156.41239 
L 220.259943 156.30752 
L 220.576989 156.518043 
L 220.894034 154.394413 
L 221.21108 153.868807 
L 221.528125 154.745371 
L 221.84517 154.964107 
L 222.162216 155.882272 
L 223.113352 155.2932 
L 223.747443 155.89478 
L 224.064489 155.705633 
L 224.381534 155.735094 
L 224.69858 156.291481 
L 225.33267 155.58715 
L 225.649716 155.645655 
L 225.966761 153.043477 
L 226.283807 154.084499 
L 226.600852 154.435394 
L 226.917898 154.271206 
L 227.234943 154.535556 
L 227.551989 155.139117 
L 227.869034 154.806182 
L 228.18608 155.013079 
L 228.503125 154.635972 
L 228.82017 155.060609 
L 229.137216 155.242783 
L 229.454261 154.710172 
L 229.771307 155.23496 
L 230.722443 154.912978 
L 231.039489 154.600437 
L 231.356534 154.867425 
L 231.67358 154.496443 
L 231.990625 155.003689 
L 232.624716 155.096093 
L 232.941761 154.993173 
L 233.258807 155.095595 
L 233.575852 155.423929 
L 234.526989 155.077029 
L 234.844034 155.272574 
L 235.16108 154.511676 
L 235.478125 155.031347 
L 235.79517 155.333706 
L 236.112216 155.833112 
L 236.429261 155.491651 
L 237.063352 155.26391 
L 237.380398 155.533926 
L 237.697443 155.532608 
L 238.014489 155.347737 
L 238.331534 155.905205 
L 238.965625 155.375726 
L 239.28267 155.269938 
L 239.599716 155.835803 
L 240.233807 155.153243 
L 241.184943 155.751553 
L 241.819034 155.403771 
L 242.13608 155.480373 
L 242.453125 155.800394 
L 242.77017 155.63988 
L 243.087216 156.279948 
L 243.404261 155.760215 
L 244.038352 155.431543 
L 244.989489 155.709706 
L 245.306534 155.219692 
L 245.62358 155.442174 
L 245.940625 155.890347 
L 246.574716 156.019055 
L 246.891761 155.491745 
L 247.842898 155.350416 
L 248.159943 155.346429 
L 248.476989 155.665712 
L 248.794034 155.630159 
L 249.11108 156.297099 
L 249.74517 154.636774 
L 250.062216 155.540049 
L 250.696307 155.596634 
L 251.013352 155.315462 
L 251.330398 155.58118 
L 251.647443 154.986037 
L 252.59858 155.552048 
L 253.866761 155.310278 
L 254.183807 155.408083 
L 254.500852 155.196475 
L 254.817898 155.538965 
L 255.134943 155.442706 
L 255.451989 155.091318 
L 255.769034 153.608385 
L 256.403125 154.714612 
L 256.72017 154.891346 
L 257.037216 154.903836 
L 257.354261 154.621878 
L 257.671307 155.658852 
L 257.988352 155.249258 
L 258.305398 155.713823 
L 258.622443 155.021825 
L 259.256534 155.150075 
L 259.57358 155.154992 
L 259.890625 155.317545 
L 260.20767 155.151199 
L 260.524716 155.264146 
L 260.841761 155.587818 
L 262.109943 155.074538 
L 262.426989 155.645964 
L 262.744034 155.841646 
L 263.378125 155.051135 
L 263.69517 155.565542 
L 264.012216 155.17962 
L 264.329261 155.260668 
L 264.646307 155.475398 
L 264.963352 155.165695 
L 265.280398 155.24334 
L 265.597443 155.072499 
L 265.914489 155.269896 
L 266.231534 154.818812 
L 266.54858 155.188621 
L 266.865625 155.108289 
L 267.18267 154.669359 
L 267.499716 155.152197 
L 267.816761 155.156871 
L 268.133807 154.848813 
L 268.450852 155.390366 
L 268.767898 155.278702 
L 269.084943 155.436354 
L 269.401989 155.245938 
L 269.719034 155.244318 
L 270.03608 154.974139 
L 270.353125 155.382234 
L 270.67017 155.004301 
L 270.987216 154.988872 
L 271.304261 155.262399 
L 271.938352 155.096087 
L 272.255398 154.837695 
L 272.889489 155.423065 
L 273.206534 155.028617 
L 273.52358 155.512282 
L 273.840625 155.296887 
L 274.15767 155.225788 
L 274.474716 154.743231 
L 274.791761 155.366563 
L 275.425852 155.130873 
L 275.742898 154.707484 
L 276.059943 154.986333 
L 276.694034 154.818989 
L 277.01108 155.046058 
L 277.328125 154.702934 
L 277.962216 155.039919 
L 278.279261 154.975369 
L 278.596307 155.334182 
L 278.913352 154.849228 
L 279.230398 155.037184 
L 279.547443 154.970428 
L 279.864489 155.284791 
L 280.181534 154.96514 
L 280.49858 155.305088 
L 280.815625 154.640369 
L 281.13267 155.181552 
L 282.083807 155.488724 
L 282.400852 154.730194 
L 283.351989 154.930242 
L 283.669034 155.111416 
L 283.98608 155.045237 
L 284.303125 155.248884 
L 284.62017 154.713462 
L 284.937216 154.878149 
L 285.254261 155.207209 
L 285.571307 154.545471 
L 286.205398 155.620813 
L 286.522443 155.274956 
L 286.839489 155.497977 
L 287.156534 155.070469 
L 287.47358 155.350361 
L 287.790625 154.947572 
L 288.10767 155.52839 
L 288.424716 155.107947 
L 288.741761 155.580213 
L 289.058807 155.139409 
L 289.375852 155.178293 
L 289.692898 155.381478 
L 290.009943 155.187845 
L 290.326989 155.494437 
L 290.644034 155.217882 
L 290.96108 155.285562 
L 291.278125 155.031702 
L 291.59517 155.296398 
L 291.912216 154.910107 
L 292.229261 155.275375 
L 292.546307 155.15732 
L 292.863352 155.31056 
L 293.497443 155.333147 
L 294.131534 154.904764 
L 294.44858 155.58039 
L 295.08267 155.156327 
L 295.399716 155.373803 
L 295.716761 155.249042 
L 296.033807 155.254083 
L 296.350852 155.55925 
L 296.667898 155.219763 
L 296.984943 155.562492 
L 297.301989 155.304436 
L 298.57017 155.284766 
L 299.204261 155.369909 
L 299.838352 155.254357 
L 300.155398 155.33416 
L 300.472443 155.032186 
L 301.106534 155.323129 
L 301.42358 155.204486 
L 301.740625 155.311507 
L 302.05767 155.125744 
L 303.008807 155.663483 
L 303.325852 155.077817 
L 303.642898 154.902083 
L 303.959943 155.02242 
L 304.276989 155.328052 
L 305.228125 155.428283 
L 305.54517 155.442195 
L 305.862216 155.699922 
L 306.813352 155.499555 
L 307.130398 155.280517 
L 307.764489 155.843515 
L 308.081534 154.460927 
L 308.39858 155.107892 
L 309.983807 155.057375 
L 310.300852 155.366999 
L 310.617898 155.084903 
L 310.934943 153.80868 
L 311.251989 154.421182 
L 311.569034 154.517176 
L 311.88608 154.371533 
L 312.203125 155.156259 
L 312.837216 155.151924 
L 313.154261 154.886121 
L 313.471307 155.168401 
L 313.788352 151.549215 
L 314.105398 153.671801 
L 314.422443 154.210377 
L 314.739489 153.137968 
L 315.056534 153.212823 
L 315.37358 153.538874 
L 315.690625 153.63788 
L 316.00767 153.866057 
L 316.324716 153.574882 
L 316.641761 153.807505 
L 316.958807 153.786339 
L 317.275852 153.559401 
L 317.592898 154.12274 
L 317.909943 153.933107 
L 318.226989 154.043313 
L 318.544034 153.748751 
L 318.86108 154.127582 
L 319.178125 154.275268 
L 319.49517 153.823059 
L 319.812216 153.913277 
L 320.129261 154.303842 
L 320.446307 154.969832 
L 320.763352 153.886911 
L 321.080398 153.764402 
L 321.714489 154.095029 
L 322.031534 153.892431 
L 322.34858 154.085215 
L 322.665625 153.970061 
L 322.98267 154.195834 
L 323.299716 154.003589 
L 323.616761 154.439732 
L 323.933807 154.185034 
L 324.250852 154.274745 
L 324.567898 154.164723 
L 324.884943 154.349258 
L 325.201989 154.215334 
L 325.519034 153.931444 
L 326.47017 154.356585 
L 326.787216 154.372823 
L 327.104261 154.028425 
L 327.421307 154.139414 
L 327.738352 154.375035 
L 328.372443 154.007671 
L 328.689489 154.379753 
L 329.006534 154.30798 
L 329.32358 153.920567 
L 329.640625 154.074949 
L 329.95767 154.48548 
L 330.274716 154.264881 
L 330.591761 154.224904 
L 330.908807 154.30137 
L 331.225852 153.986259 
L 332.176989 154.153079 
L 332.494034 154.133734 
L 332.81108 154.287122 
L 333.762216 154.271796 
L 334.079261 153.937811 
L 334.713352 154.089754 
L 335.030398 154.338696 
L 335.347443 153.865401 
L 335.664489 153.971171 
L 335.981534 153.877875 
L 337.249716 154.158169 
L 337.883807 153.920859 
L 338.200852 154.317894 
L 338.517898 154.224999 
L 338.834943 154.446094 
L 339.469034 154.076167 
L 340.103125 154.223886 
L 340.42017 153.940132 
L 340.737216 154.107708 
L 341.688352 154.023793 
L 342.322443 154.114796 
L 342.639489 153.951738 
L 342.956534 154.329505 
L 343.27358 154.126174 
L 344.224716 154.319701 
L 344.541761 154.315378 
L 344.858807 154.621295 
L 345.492898 153.964944 
L 346.126989 154.028827 
L 346.444034 154.227184 
L 348.029261 154.378203 
L 348.346307 154.049099 
L 348.663352 153.978356 
L 348.980398 154.58294 
L 349.297443 154.206178 
L 349.614489 154.275986 
L 349.931534 154.143732 
L 350.565625 154.376685 
L 350.88267 154.080599 
L 351.199716 154.252721 
L 351.833807 154.154387 
L 352.150852 153.922477 
L 352.467898 154.097532 
L 352.784943 154.597194 
L 353.101989 153.976399 
L 353.419034 154.136974 
L 353.73608 153.96186 
L 354.053125 154.141673 
L 354.37017 154.478791 
L 354.687216 154.129619 
L 355.321307 153.999698 
L 355.638352 154.097529 
L 355.955398 154.352394 
L 356.272443 154.116491 
L 357.22358 154.07981 
L 357.540625 154.264089 
L 357.85767 154.060622 
L 358.174716 154.013722 
L 358.491761 154.207735 
L 358.808807 153.979308 
L 359.125852 154.218602 
L 359.759943 154.080605 
L 360.076989 154.243596 
L 360.394034 153.864804 
L 361.662216 153.877679 
L 361.979261 153.959656 
L 362.296307 153.795453 
L 362.613352 153.773476 
L 362.930398 154.186488 
L 363.564489 153.700009 
L 364.19858 154.06566 
L 364.515625 153.754328 
L 364.83267 154.287848 
L 365.783807 153.849293 
L 366.417898 153.528761 
L 366.734943 153.87291 
L 367.051989 153.786487 
L 367.369034 153.579352 
L 367.68608 153.644116 
L 368.003125 153.925112 
L 368.32017 153.711868 
L 368.637216 153.664731 
L 369.271307 153.907606 
L 369.588352 153.79868 
L 369.905398 154.055372 
L 370.539489 153.587292 
L 370.856534 153.925825 
L 371.17358 153.770486 
L 371.490625 153.886633 
L 371.80767 153.472232 
L 372.124716 154.056653 
L 372.441761 153.617917 
L 372.758807 153.571063 
L 373.392898 153.9403 
L 373.709943 153.841082 
L 374.344034 154.012851 
L 374.978125 153.814185 
L 375.29517 153.871481 
L 375.612216 153.812954 
L 375.929261 154.077296 
L 376.246307 153.678675 
L 376.563352 153.96379 
L 376.880398 153.987649 
L 377.197443 153.71852 
L 377.514489 153.826589 
L 377.831534 154.332645 
L 378.14858 153.935132 
L 378.465625 154.064574 
L 378.78267 153.981866 
L 379.416761 154.219335 
L 379.733807 154.053844 
L 381.001989 154.018075 
L 381.319034 153.842495 
L 381.63608 154.030466 
L 382.27017 154.052931 
L 382.587216 153.843973 
L 383.221307 153.90353 
L 383.538352 153.818086 
L 383.855398 154.2799 
L 384.489489 153.933575 
L 384.806534 154.300037 
L 385.12358 153.893896 
L 385.75767 154.058179 
L 386.074716 153.92214 
L 386.391761 154.22361 
L 386.708807 153.862036 
L 387.025852 153.693224 
L 387.342898 153.719976 
L 387.976989 154.112372 
L 388.294034 153.760369 
L 388.61108 153.934932 
L 388.928125 153.758076 
L 389.24517 154.126527 
L 389.879261 153.698017 
L 390.830398 153.836213 
L 391.147443 153.927989 
L 391.464489 154.164977 
L 391.781534 154.133394 
L 392.09858 153.938669 
L 392.73267 154.558286 
L 393.049716 154.414128 
L 393.366761 154.028473 
L 393.683807 154.414489 
L 394.000852 154.491601 
L 394.317898 154.373761 
L 394.634943 153.969343 
L 394.951989 154.198198 
L 395.269034 153.895323 
L 395.58608 153.924063 
L 395.903125 154.150303 
L 396.854261 153.796347 
L 397.171307 153.902566 
L 397.488352 153.840236 
L 397.805398 154.118608 
L 398.122443 153.73167 
L 398.439489 153.699172 
L 399.390625 154.417767 
L 399.70767 153.697973 
L 400.024716 154.16362 
L 400.341761 153.967527 
L 400.658807 154.424971 
L 400.975852 154.075927 
L 401.292898 153.943741 
L 401.609943 154.111361 
L 401.926989 154.029278 
L 402.244034 154.3959 
L 402.56108 154.279221 
L 402.878125 153.731126 
L 403.19517 153.933458 
L 403.512216 153.759584 
L 403.829261 154.252961 
L 404.780398 154.214123 
L 405.097443 153.817382 
L 405.414489 153.954916 
L 405.731534 153.954131 
L 406.04858 154.139536 
L 406.365625 153.998398 
L 406.68267 154.01198 
L 406.999716 153.770395 
L 407.316761 153.984374 
L 407.633807 153.803639 
L 407.950852 153.896815 
L 408.267898 154.327526 
L 408.901989 154.01714 
L 409.219034 154.148716 
L 409.53608 154.020145 
L 409.853125 153.737345 
L 410.804261 154.160656 
L 411.121307 154.289256 
L 411.438352 154.099192 
L 412.072443 154.258271 
L 412.389489 154.43969 
L 412.706534 154.466777 
L 413.02358 154.188428 
L 413.340625 154.177265 
L 413.65767 153.911907 
L 413.974716 154.21176 
L 414.291761 153.868858 
L 414.925852 153.936139 
L 415.242898 153.989305 
L 415.559943 153.910832 
L 415.876989 154.05375 
L 416.194034 154.331082 
L 416.51108 154.389428 
L 416.828125 153.938845 
L 417.462216 154.264901 
L 417.779261 154.185355 
L 418.096307 153.866401 
L 418.413352 154.115681 
L 419.047443 154.051252 
L 419.681534 154.501722 
L 419.99858 154.195006 
L 420.315625 154.12441 
L 420.63267 154.291247 
L 420.949716 154.21853 
L 421.266761 154.024233 
L 421.583807 154.026906 
L 422.217898 154.571016 
L 423.169034 154.264473 
L 423.48608 153.853914 
L 423.803125 154.087683 
L 424.12017 154.514502 
L 424.437216 154.336722 
L 424.754261 153.90356 
L 425.388352 154.311913 
L 425.705398 154.234345 
L 426.022443 154.378542 
L 426.339489 154.14663 
L 426.656534 154.348093 
L 426.97358 154.146855 
L 427.290625 154.325467 
L 427.60767 154.251309 
L 427.924716 154.003232 
L 429.192898 154.103678 
L 429.509943 153.875189 
L 430.144034 154.247452 
L 430.46108 153.897624 
L 431.412216 153.909604 
L 431.729261 154.191593 
L 432.680398 154.095129 
L 432.997443 154.1144 
L 433.314489 153.94871 
L 434.265625 154.296575 
L 434.58267 154.075555 
L 434.899716 154.44911 
L 435.216761 154.356132 
L 435.533807 154.41537 
L 435.850852 154.055603 
L 436.484943 154.100535 
L 436.801989 154.232757 
L 437.119034 154.118349 
L 437.43608 154.138495 
L 437.753125 154.328127 
L 438.07017 153.934045 
L 438.387216 154.232494 
L 438.704261 154.254489 
L 439.021307 154.447165 
L 439.338352 154.444631 
L 439.655398 154.209224 
L 440.289489 154.089822 
L 440.606534 154.288049 
L 441.55767 154.007912 
L 442.191761 153.948876 
L 442.508807 154.078815 
L 443.142898 153.885951 
L 443.459943 154.219233 
L 443.776989 154.203418 
L 444.094034 154.057217 
L 444.41108 154.410819 
L 444.728125 154.129415 
L 445.04517 154.002355 
L 445.362216 154.37376 
L 445.996307 154.106879 
L 446.313352 154.135913 
L 446.947443 154.319537 
L 447.89858 154.079798 
L 448.215625 154.40421 
L 448.53267 154.117763 
L 449.166761 154.195802 
L 450.117898 154.320393 
L 450.434943 154.110944 
L 450.751989 154.164353 
L 451.069034 154.637807 
L 451.38608 154.313117 
L 451.703125 154.253446 
L 452.337216 154.433177 
L 452.654261 154.015535 
L 452.971307 154.215634 
L 453.605398 153.984831 
L 453.922443 154.11794 
L 454.556534 154.046193 
L 455.824716 154.157147 
L 456.141761 154.329375 
L 456.458807 154.29765 
L 457.409943 153.914481 
L 457.726989 154.236359 
L 458.044034 154.010467 
L 458.678125 153.943755 
L 458.99517 153.53262 
L 459.312216 154.056023 
L 460.897443 153.909032 
L 461.214489 154.2921 
L 461.531534 153.614156 
L 462.165625 154.203688 
L 463.750852 153.864617 
L 464.384943 153.818541 
L 464.701989 153.670539 
L 465.019034 154.022802 
L 465.97017 153.789161 
L 467.555398 153.978781 
L 467.872443 154.234708 
L 468.82358 154.044837 
L 469.140625 153.792993 
L 469.45767 153.755277 
L 469.774716 154.069154 
L 470.091761 154.220482 
L 470.408807 154.110407 
L 470.725852 153.783916 
L 471.042898 154.313478 
L 471.359943 153.969518 
L 471.676989 153.849672 
L 472.31108 154.113797 
L 472.628125 154.137897 
L 472.94517 153.850286 
L 473.262216 153.730601 
L 473.579261 154.258245 
L 473.896307 153.954271 
L 474.530398 153.740594 
L 474.847443 154.018024 
L 475.481534 153.926222 
L 475.79858 154.145229 
L 476.115625 153.997193 
L 476.43267 154.056473 
L 476.749716 153.86292 
L 477.066761 153.804752 
L 477.383807 154.092211 
L 477.700852 153.919203 
L 478.017898 154.010276 
L 478.651989 153.727286 
L 479.603125 153.840228 
L 479.92017 153.856192 
L 480.237216 153.619472 
L 480.554261 153.731829 
L 480.871307 153.699567 
L 481.188352 153.889863 
L 481.505398 153.784353 
L 481.822443 153.988048 
L 482.139489 153.608502 
L 482.77358 153.756962 
L 483.090625 153.648117 
L 483.40767 153.751202 
L 483.724716 154.048419 
L 484.041761 153.988363 
L 484.358807 153.535162 
L 485.309943 154.299353 
L 485.944034 153.766523 
L 486.26108 153.960111 
L 486.89517 153.809754 
L 487.212216 153.74915 
L 487.529261 153.937067 
L 487.846307 153.740406 
L 488.163352 153.839032 
L 488.480398 153.580448 
L 488.797443 153.682983 
L 489.114489 153.506394 
L 489.74858 153.783745 
L 490.065625 153.71797 
L 490.38267 153.786397 
L 490.699716 153.68383 
L 491.016761 153.854369 
L 491.333807 153.811334 
L 491.650852 153.571192 
L 492.284943 153.444142 
L 492.601989 153.585643 
L 492.919034 153.55147 
L 493.23608 153.852637 
L 493.553125 153.444372 
L 494.187216 153.799378 
L 494.504261 153.435373 
L 494.821307 153.565787 
L 495.138352 153.909216 
L 495.455398 153.591031 
L 495.772443 153.713839 
L 496.089489 153.515405 
L 496.406534 153.796574 
L 497.674716 153.78357 
L 497.991761 153.486434 
L 498.625852 153.660724 
L 498.942898 153.465208 
L 499.259943 153.628123 
L 500.21108 153.383135 
L 500.84517 153.437859 
L 501.162216 153.333022 
L 501.479261 153.601678 
L 502.113352 153.52113 
L 502.430398 153.540977 
L 502.747443 153.705811 
L 503.064489 153.506279 
L 503.381534 153.50767 
L 503.69858 153.394018 
L 504.015625 153.543582 
L 504.33267 153.396164 
L 504.966761 153.654618 
L 505.283807 153.638947 
L 505.600852 153.442629 
L 505.917898 153.612165 
L 506.234943 153.610306 
L 506.551989 153.750076 
L 506.869034 153.548167 
L 507.18608 153.495158 
L 507.503125 153.768391 
L 507.82017 153.635529 
L 508.454261 153.811356 
L 508.771307 153.571337 
L 509.088352 153.866926 
L 509.722443 153.612034 
L 510.039489 153.726404 
L 510.990625 153.642421 
L 511.624716 154.113019 
L 512.258807 153.752669 
L 512.575852 153.838809 
L 513.526989 153.70945 
L 514.16108 153.669421 
L 514.79517 153.643659 
L 515.112216 153.898688 
L 515.429261 153.619783 
L 516.063352 153.466474 
L 516.697443 153.827922 
L 517.014489 153.595058 
L 517.331534 153.638498 
L 517.64858 154.161071 
L 518.28267 153.911531 
L 518.599716 154.08234 
L 518.916761 153.722731 
L 519.867898 153.607553 
L 520.184943 153.951289 
L 520.819034 153.64361 
L 522.087216 153.947013 
L 522.721307 153.779647 
L 523.672443 153.916043 
L 523.989489 153.627443 
L 524.306534 153.815472 
L 524.62358 153.644593 
L 524.940625 153.704829 
L 525.25767 153.644729 
L 525.574716 153.784662 
L 525.891761 153.728161 
L 526.208807 153.813443 
L 526.525852 153.633944 
L 526.842898 153.934501 
L 527.159943 153.98363 
L 527.794034 153.604701 
L 528.11108 153.893512 
L 528.428125 153.675376 
L 529.062216 153.61956 
L 529.696307 153.661399 
L 530.013352 153.682053 
L 530.330398 153.895038 
L 530.647443 153.692404 
L 530.964489 153.69523 
L 531.281534 153.877967 
L 532.23267 153.783067 
L 532.866761 153.451278 
L 533.183807 153.740433 
L 533.500852 153.593752 
L 533.817898 153.708738 
L 534.769034 153.589259 
L 535.403125 153.892645 
L 535.72017 153.701044 
L 536.671307 154.094306 
L 536.988352 153.783035 
L 537.305398 153.631876 
L 537.622443 153.821865 
L 537.939489 153.53313 
L 538.256534 153.837683 
L 538.57358 153.709512 
L 538.890625 153.976963 
L 539.20767 153.524268 
L 539.524716 153.851789 
L 540.158807 153.893796 
L 540.475852 153.564461 
L 540.792898 153.934477 
L 541.109943 153.87539 
L 541.426989 153.521523 
L 541.744034 153.617314 
L 542.378125 153.522105 
L 542.69517 153.570153 
L 543.012216 153.749106 
L 543.329261 153.732442 
L 543.646307 153.539779 
L 543.963352 153.519816 
L 544.280398 153.763688 
L 544.597443 153.385901 
L 544.914489 153.254838 
L 545.231534 153.64038 
L 545.54858 153.767238 
L 545.865625 153.311902 
L 546.816761 153.773653 
L 547.133807 153.54239 
L 547.450852 153.774382 
L 547.767898 153.551954 
L 548.084943 153.577954 
L 548.401989 153.823898 
L 548.719034 153.573428 
L 549.67017 153.566822 
L 549.987216 153.409663 
L 550.304261 153.558861 
L 550.938352 153.467655 
L 551.255398 153.786692 
L 551.889489 153.819304 
L 552.206534 153.526983 
L 552.52358 153.661894 
L 552.840625 153.626087 
L 553.15767 153.99085 
L 553.474716 153.611746 
L 553.791761 153.841844 
L 554.108807 153.630269 
L 554.425852 153.58926 
L 554.742898 153.714092 
L 555.059943 153.662656 
L 555.376989 153.788584 
L 555.694034 153.663854 
L 556.01108 153.927436 
L 556.328125 153.608622 
L 556.64517 153.84961 
L 556.962216 153.620663 
L 557.596307 153.708176 
L 557.913352 153.674792 
L 558.230398 153.822119 
L 558.547443 153.563004 
L 558.864489 153.67597 
L 560.13267 153.310989 
L 560.449716 153.617095 
L 560.766761 153.34086 
L 561.083807 153.515964 
L 562.034943 153.527073 
L 562.351989 153.295187 
L 562.669034 153.495705 
L 562.98608 153.364802 
L 563.937216 153.577266 
L 564.254261 153.386816 
L 564.571307 153.789625 
L 564.888352 153.215657 
L 565.205398 153.456652 
L 566.47358 153.732618 
L 566.790625 153.570805 
L 567.10767 153.745731 
L 567.424716 153.553034 
L 567.741761 153.72733 
L 568.058807 153.443527 
L 569.009943 153.486646 
L 569.326989 153.633082 
L 570.59517 153.150589 
L 571.229261 153.33821 
L 571.863352 153.441042 
L 572.180398 153.12213 
L 572.497443 153.298495 
L 573.765625 153.394502 
L 574.399716 153.123854 
L 574.716761 153.29572 
L 575.033807 153.259546 
L 575.350852 153.414328 
L 575.667898 153.169864 
L 575.984943 153.589313 
L 576.301989 153.310722 
L 577.57017 153.074632 
L 578.204261 153.375424 
L 579.155398 153.39394 
L 579.472443 153.240569 
L 580.42358 153.236507 
L 581.05767 153.324673 
L 581.374716 153.305209 
L 581.691761 153.642875 
L 582.642898 153.219974 
L 582.959943 153.360109 
L 583.276989 153.268092 
L 584.228125 153.522112 
L 584.862216 153.304114 
L 585.179261 153.197294 
L 585.496307 153.353062 
L 585.813352 153.352243 
L 586.130398 153.514872 
L 586.447443 153.1508 
L 587.39858 153.42874 
L 588.349716 153.40628 
L 588.666761 153.325218 
L 588.983807 153.420448 
L 589.300852 153.689085 
L 589.617898 153.175583 
L 589.934943 153.295932 
L 590.569034 153.010928 
L 590.88608 153.158466 
L 591.203125 153.002519 
L 591.52017 153.103744 
L 591.837216 153.348791 
L 592.154261 153.414407 
L 592.471307 153.255084 
L 592.788352 153.478076 
L 593.105398 153.55702 
L 593.422443 153.307669 
L 593.739489 153.471619 
L 594.056534 153.338908 
L 594.37358 153.489748 
L 594.690625 153.157198 
L 595.324716 153.229429 
L 595.641761 153.122373 
L 596.592898 153.335821 
L 597.226989 153.263609 
L 597.544034 153.523582 
L 598.49517 153.241465 
L 598.812216 153.352413 
L 599.446307 153.247114 
L 600.080398 153.578611 
L 601.031534 153.287029 
L 601.34858 153.597787 
L 601.665625 153.577999 
L 601.98267 153.228747 
L 602.933807 152.991536 
L 604.201989 153.0719 
L 604.519034 153.394673 
L 605.153125 153.122708 
L 605.47017 153.34781 
L 606.421307 153.193604 
L 606.738352 153.356206 
L 607.055398 153.101592 
L 607.372443 153.236333 
L 607.689489 153.241952 
L 608.006534 153.378006 
L 608.95767 153.300455 
L 609.274716 153.274422 
L 609.591761 153.362097 
L 609.908807 153.055824 
L 610.542898 153.123356 
L 611.176989 153.286312 
L 611.494034 153.241122 
L 611.81108 153.333852 
L 612.762216 153.077256 
L 613.713352 153.287651 
L 614.030398 153.119691 
L 614.347443 153.390178 
L 614.981534 153.555823 
L 615.29858 153.261305 
L 615.615625 153.269223 
L 615.93267 153.461192 
L 616.566761 153.349592 
L 616.883807 153.530363 
L 617.200852 153.374637 
L 617.517898 153.563108 
L 618.151989 153.151832 
L 619.103125 153.386099 
L 619.737216 153.173586 
L 620.688352 153.489755 
L 621.005398 153.506098 
L 621.322443 153.249463 
L 621.639489 153.668513 
L 621.956534 153.321028 
L 622.27358 153.375023 
L 622.590625 153.217508 
L 622.90767 153.438894 
L 623.224716 153.441465 
L 623.541761 153.299701 
L 623.858807 153.316906 
L 624.175852 153.16941 
L 624.492898 153.16602 
L 624.809943 153.378197 
L 625.126989 153.275509 
L 625.126989 153.275509 
" clip-path="url(#pf637f0df29)" style="fill: none; stroke: #ff7f0e; stroke-width: 1.5; stroke-linecap: square"/>
   </g>
   <g id="patch_3">
    <path d="M 92.490625 308.63625 
L 92.490625 31.43625 
" style="fill: none; stroke: #000000; stroke-width: 0.8; stroke-linejoin: miter; stroke-linecap: square"/>
   </g>
   <g id="patch_4">
    <path d="M 650.490625 308.63625 
L 650.490625 31.43625 
" style="fill: none; stroke: #000000; stroke-width: 0.8; stroke-linejoin: miter; stroke-linecap: square"/>
   </g>
   <g id="patch_5">
    <path d="M 92.490625 308.63625 
L 650.490625 308.63625 
" style="fill: none; stroke: #000000; stroke-width: 0.8; stroke-linejoin: miter; stroke-linecap: square"/>
   </g>
   <g id="patch_6">
    <path d="M 92.490625 31.43625 
L 650.490625 31.43625 
" style="fill: none; stroke: #000000; stroke-width: 0.8; stroke-linejoin: miter; stroke-linecap: square"/>
   </g>
   <g id="text_15">
    <!-- Generator and Discriminator Loss During Training -->
    <g transform="translate(74.258125 25.43625) scale(0.24 -0.24)">
     <defs>
      <path id="DejaVuSans-47" d="M 3809 666 
L 3809 1919 
L 2778 1919 
L 2778 2438 
L 4434 2438 
L 4434 434 
Q 4069 175 3628 42 
Q 3188 -91 2688 -91 
Q 1594 -91 976 548 
Q 359 1188 359 2328 
Q 359 3472 976 4111 
Q 1594 4750 2688 4750 
Q 3144 4750 3555 4637 
Q 3966 4525 4313 4306 
L 4313 3634 
Q 3963 3931 3569 4081 
Q 3175 4231 2741 4231 
Q 1884 4231 1454 3753 
Q 1025 3275 1025 2328 
Q 1025 1384 1454 906 
Q 1884 428 2741 428 
Q 3075 428 3337 486 
Q 3600 544 3809 666 
z
" transform="scale(0.015625)"/>
      <path id="DejaVuSans-20" transform="scale(0.015625)"/>
      <path id="DejaVuSans-64" d="M 2906 2969 
L 2906 4863 
L 3481 4863 
L 3481 0 
L 2906 0 
L 2906 525 
Q 2725 213 2448 61 
Q 2172 -91 1784 -91 
Q 1150 -91 751 415 
Q 353 922 353 1747 
Q 353 2572 751 3078 
Q 1150 3584 1784 3584 
Q 2172 3584 2448 3432 
Q 2725 3281 2906 2969 
z
M 947 1747 
Q 947 1113 1208 752 
Q 1469 391 1925 391 
Q 2381 391 2643 752 
Q 2906 1113 2906 1747 
Q 2906 2381 2643 2742 
Q 2381 3103 1925 3103 
Q 1469 3103 1208 2742 
Q 947 2381 947 1747 
z
" transform="scale(0.015625)"/>
      <path id="DejaVuSans-44" d="M 1259 4147 
L 1259 519 
L 2022 519 
Q 2988 519 3436 956 
Q 3884 1394 3884 2338 
Q 3884 3275 3436 3711 
Q 2988 4147 2022 4147 
L 1259 4147 
z
M 628 4666 
L 1925 4666 
Q 3281 4666 3915 4102 
Q 4550 3538 4550 2338 
Q 4550 1131 3912 565 
Q 3275 0 1925 0 
L 628 0 
L 628 4666 
z
" transform="scale(0.015625)"/>
      <path id="DejaVuSans-63" d="M 3122 3366 
L 3122 2828 
Q 2878 2963 2633 3030 
Q 2388 3097 2138 3097 
Q 1578 3097 1268 2742 
Q 959 2388 959 1747 
Q 959 1106 1268 751 
Q 1578 397 2138 397 
Q 2388 397 2633 464 
Q 2878 531 3122 666 
L 3122 134 
Q 2881 22 2623 -34 
Q 2366 -91 2075 -91 
Q 1284 -91 818 406 
Q 353 903 353 1747 
Q 353 2603 823 3093 
Q 1294 3584 2113 3584 
Q 2378 3584 2631 3529 
Q 2884 3475 3122 3366 
z
" transform="scale(0.015625)"/>
      <path id="DejaVuSans-6d" d="M 3328 2828 
Q 3544 3216 3844 3400 
Q 4144 3584 4550 3584 
Q 5097 3584 5394 3201 
Q 5691 2819 5691 2113 
L 5691 0 
L 5113 0 
L 5113 2094 
Q 5113 2597 4934 2840 
Q 4756 3084 4391 3084 
Q 3944 3084 3684 2787 
Q 3425 2491 3425 1978 
L 3425 0 
L 2847 0 
L 2847 2094 
Q 2847 2600 2669 2842 
Q 2491 3084 2119 3084 
Q 1678 3084 1418 2786 
Q 1159 2488 1159 1978 
L 1159 0 
L 581 0 
L 581 3500 
L 1159 3500 
L 1159 2956 
Q 1356 3278 1631 3431 
Q 1906 3584 2284 3584 
Q 2666 3584 2933 3390 
Q 3200 3197 3328 2828 
z
" transform="scale(0.015625)"/>
      <path id="DejaVuSans-75" d="M 544 1381 
L 544 3500 
L 1119 3500 
L 1119 1403 
Q 1119 906 1312 657 
Q 1506 409 1894 409 
Q 2359 409 2629 706 
Q 2900 1003 2900 1516 
L 2900 3500 
L 3475 3500 
L 3475 0 
L 2900 0 
L 2900 538 
Q 2691 219 2414 64 
Q 2138 -91 1772 -91 
Q 1169 -91 856 284 
Q 544 659 544 1381 
z
M 1991 3584 
L 1991 3584 
z
" transform="scale(0.015625)"/>
      <path id="DejaVuSans-67" d="M 2906 1791 
Q 2906 2416 2648 2759 
Q 2391 3103 1925 3103 
Q 1463 3103 1205 2759 
Q 947 2416 947 1791 
Q 947 1169 1205 825 
Q 1463 481 1925 481 
Q 2391 481 2648 825 
Q 2906 1169 2906 1791 
z
M 3481 434 
Q 3481 -459 3084 -895 
Q 2688 -1331 1869 -1331 
Q 1566 -1331 1297 -1286 
Q 1028 -1241 775 -1147 
L 775 -588 
Q 1028 -725 1275 -790 
Q 1522 -856 1778 -856 
Q 2344 -856 2625 -561 
Q 2906 -266 2906 331 
L 2906 616 
Q 2728 306 2450 153 
Q 2172 0 1784 0 
Q 1141 0 747 490 
Q 353 981 353 1791 
Q 353 2603 747 3093 
Q 1141 3584 1784 3584 
Q 2172 3584 2450 3431 
Q 2728 3278 2906 2969 
L 2906 3500 
L 3481 3500 
L 3481 434 
z
" transform="scale(0.015625)"/>
      <path id="DejaVuSans-54" d="M -19 4666 
L 3928 4666 
L 3928 4134 
L 2272 4134 
L 2272 0 
L 1638 0 
L 1638 4134 
L -19 4134 
L -19 4666 
z
" transform="scale(0.015625)"/>
     </defs>
     <use xlink:href="#DejaVuSans-47"/>
     <use xlink:href="#DejaVuSans-65" x="77.490234"/>
     <use xlink:href="#DejaVuSans-6e" x="139.013672"/>
     <use xlink:href="#DejaVuSans-65" x="202.392578"/>
     <use xlink:href="#DejaVuSans-72" x="263.916016"/>
     <use xlink:href="#DejaVuSans-61" x="305.029297"/>
     <use xlink:href="#DejaVuSans-74" x="366.308594"/>
     <use xlink:href="#DejaVuSans-6f" x="405.517578"/>
     <use xlink:href="#DejaVuSans-72" x="466.699219"/>
     <use xlink:href="#DejaVuSans-20" x="507.8125"/>
     <use xlink:href="#DejaVuSans-61" x="539.599609"/>
     <use xlink:href="#DejaVuSans-6e" x="600.878906"/>
     <use xlink:href="#DejaVuSans-64" x="664.257812"/>
     <use xlink:href="#DejaVuSans-20" x="727.734375"/>
     <use xlink:href="#DejaVuSans-44" x="759.521484"/>
     <use xlink:href="#DejaVuSans-69" x="836.523438"/>
     <use xlink:href="#DejaVuSans-73" x="864.306641"/>
     <use xlink:href="#DejaVuSans-63" x="916.40625"/>
     <use xlink:href="#DejaVuSans-72" x="971.386719"/>
     <use xlink:href="#DejaVuSans-69" x="1012.5"/>
     <use xlink:href="#DejaVuSans-6d" x="1040.283203"/>
     <use xlink:href="#DejaVuSans-69" x="1137.695312"/>
     <use xlink:href="#DejaVuSans-6e" x="1165.478516"/>
     <use xlink:href="#DejaVuSans-61" x="1228.857422"/>
     <use xlink:href="#DejaVuSans-74" x="1290.136719"/>
     <use xlink:href="#DejaVuSans-6f" x="1329.345703"/>
     <use xlink:href="#DejaVuSans-72" x="1390.527344"/>
     <use xlink:href="#DejaVuSans-20" x="1431.640625"/>
     <use xlink:href="#DejaVuSans-4c" x="1463.427734"/>
     <use xlink:href="#DejaVuSans-6f" x="1517.390625"/>
     <use xlink:href="#DejaVuSans-73" x="1578.572266"/>
     <use xlink:href="#DejaVuSans-73" x="1630.671875"/>
     <use xlink:href="#DejaVuSans-20" x="1682.771484"/>
     <use xlink:href="#DejaVuSans-44" x="1714.558594"/>
     <use xlink:href="#DejaVuSans-75" x="1791.560547"/>
     <use xlink:href="#DejaVuSans-72" x="1854.939453"/>
     <use xlink:href="#DejaVuSans-69" x="1896.052734"/>
     <use xlink:href="#DejaVuSans-6e" x="1923.835938"/>
     <use xlink:href="#DejaVuSans-67" x="1987.214844"/>
     <use xlink:href="#DejaVuSans-20" x="2050.691406"/>
     <use xlink:href="#DejaVuSans-54" x="2082.478516"/>
     <use xlink:href="#DejaVuSans-72" x="2128.8125"/>
     <use xlink:href="#DejaVuSans-61" x="2169.925781"/>
     <use xlink:href="#DejaVuSans-69" x="2231.205078"/>
     <use xlink:href="#DejaVuSans-6e" x="2258.988281"/>
     <use xlink:href="#DejaVuSans-69" x="2322.367188"/>
     <use xlink:href="#DejaVuSans-6e" x="2350.150391"/>
     <use xlink:href="#DejaVuSans-67" x="2413.529297"/>
    </g>
   </g>
   <g id="legend_1">
    <g id="patch_7">
     <path d="M 556.99375 106.14875 
L 636.490625 106.14875 
Q 640.490625 106.14875 640.490625 102.14875 
L 640.490625 45.43625 
Q 640.490625 41.43625 636.490625 41.43625 
L 556.99375 41.43625 
Q 552.99375 41.43625 552.99375 45.43625 
L 552.99375 102.14875 
Q 552.99375 106.14875 556.99375 106.14875 
z
" style="fill: #ffffff; opacity: 0.8; stroke: #cccccc; stroke-linejoin: miter"/>
    </g>
    <g id="line2d_15">
     <path d="M 560.99375 57.633125 
L 580.99375 57.633125 
L 600.99375 57.633125 
" style="fill: none; stroke: #1f77b4; stroke-width: 1.5; stroke-linecap: square"/>
    </g>
    <g id="text_16">
     <!-- G -->
     <g transform="translate(616.99375 64.633125) scale(0.2 -0.2)">
      <use xlink:href="#DejaVuSans-47"/>
     </g>
    </g>
    <g id="line2d_16">
     <path d="M 560.99375 86.989375 
L 580.99375 86.989375 
L 600.99375 86.989375 
" style="fill: none; stroke: #ff7f0e; stroke-width: 1.5; stroke-linecap: square"/>
    </g>
    <g id="text_17">
     <!-- D -->
     <g transform="translate(616.99375 93.989375) scale(0.2 -0.2)">
      <use xlink:href="#DejaVuSans-44"/>
     </g>
    </g>
   </g>
  </g>
 </g>
 <defs>
  <clipPath id="pf637f0df29">
   <rect x="92.490625" y="31.43625" width="558" height="277.2"/>
  </clipPath>
 </defs>
</svg>
