<?xml version="1.0" encoding="utf-8" standalone="no"?>
<!DOCTYPE svg PUBLIC "-//W3C//DTD SVG 1.1//EN"
  "http://www.w3.org/Graphics/SVG/1.1/DTD/svg11.dtd">
<svg xmlns:xlink="http://www.w3.org/1999/xlink" width="675.923125pt" height="365.54875pt" viewBox="0 0 675.923125 365.54875" xmlns="http://www.w3.org/2000/svg" version="1.1">
 <metadata>
  <rdf:RDF xmlns:dc="http://purl.org/dc/elements/1.1/" xmlns:cc="http://creativecommons.org/ns#" xmlns:rdf="http://www.w3.org/1999/02/22-rdf-syntax-ns#">
   <cc:Work>
    <dc:type rdf:resource="http://purl.org/dc/dcmitype/StillImage"/>
    <dc:date>2024-02-01T20:55:43.919346</dc:date>
    <dc:format>image/svg+xml</dc:format>
    <dc:creator>
     <cc:Agent>
      <dc:title>Matplotlib v3.7.2, https://matplotlib.org/</dc:title>
     </cc:Agent>
    </dc:creator>
   </cc:Work>
  </rdf:RDF>
 </metadata>
 <defs>
  <style type="text/css">*{stroke-linejoin: round; stroke-linecap: butt}</style>
 </defs>
 <g id="figure_1">
  <g id="patch_1">
   <path d="M 0 365.54875 
L 675.923125 365.54875 
L 675.923125 -0 
L 0 -0 
z
" style="fill: #ffffff"/>
  </g>
  <g id="axes_1">
   <g id="patch_2">
    <path d="M 92.490625 308.63625 
L 650.490625 308.63625 
L 650.490625 31.43625 
L 92.490625 31.43625 
z
" style="fill: #ffffff"/>
   </g>
   <g id="matplotlib.axis_1">
    <g id="xtick_1">
     <g id="line2d_1">
      <defs>
       <path id="mcf2dbaaf5d" d="M 0 0 
L 0 3.5 
" style="stroke: #000000; stroke-width: 0.8"/>
      </defs>
      <g>
       <use xlink:href="#mcf2dbaaf5d" x="117.854261" y="308.63625" style="stroke: #000000; stroke-width: 0.8"/>
      </g>
     </g>
     <g id="text_1">
      <!-- 0 -->
      <g transform="translate(111.491761 330.833125) scale(0.2 -0.2)">
       <defs>
        <path id="DejaVuSans-30" d="M 2034 4250 
Q 1547 4250 1301 3770 
Q 1056 3291 1056 2328 
Q 1056 1369 1301 889 
Q 1547 409 2034 409 
Q 2525 409 2770 889 
Q 3016 1369 3016 2328 
Q 3016 3291 2770 3770 
Q 2525 4250 2034 4250 
z
M 2034 4750 
Q 2819 4750 3233 4129 
Q 3647 3509 3647 2328 
Q 3647 1150 3233 529 
Q 2819 -91 2034 -91 
Q 1250 -91 836 529 
Q 422 1150 422 2328 
Q 422 3509 836 4129 
Q 1250 4750 2034 4750 
z
" transform="scale(0.015625)"/>
       </defs>
       <use xlink:href="#DejaVuSans-30"/>
      </g>
     </g>
    </g>
    <g id="xtick_2">
     <g id="line2d_2">
      <g>
       <use xlink:href="#mcf2dbaaf5d" x="181.263352" y="308.63625" style="stroke: #000000; stroke-width: 0.8"/>
      </g>
     </g>
     <g id="text_2">
      <!-- 50 -->
      <g transform="translate(168.538352 330.833125) scale(0.2 -0.2)">
       <defs>
        <path id="DejaVuSans-35" d="M 691 4666 
L 3169 4666 
L 3169 4134 
L 1269 4134 
L 1269 2991 
Q 1406 3038 1543 3061 
Q 1681 3084 1819 3084 
Q 2600 3084 3056 2656 
Q 3513 2228 3513 1497 
Q 3513 744 3044 326 
Q 2575 -91 1722 -91 
Q 1428 -91 1123 -41 
Q 819 9 494 109 
L 494 744 
Q 775 591 1075 516 
Q 1375 441 1709 441 
Q 2250 441 2565 725 
Q 2881 1009 2881 1497 
Q 2881 1984 2565 2268 
Q 2250 2553 1709 2553 
Q 1456 2553 1204 2497 
Q 953 2441 691 2322 
L 691 4666 
z
" transform="scale(0.015625)"/>
       </defs>
       <use xlink:href="#DejaVuSans-35"/>
       <use xlink:href="#DejaVuSans-30" x="63.623047"/>
      </g>
     </g>
    </g>
    <g id="xtick_3">
     <g id="line2d_3">
      <g>
       <use xlink:href="#mcf2dbaaf5d" x="244.672443" y="308.63625" style="stroke: #000000; stroke-width: 0.8"/>
      </g>
     </g>
     <g id="text_3">
      <!-- 100 -->
      <g transform="translate(225.584943 330.833125) scale(0.2 -0.2)">
       <defs>
        <path id="DejaVuSans-31" d="M 794 531 
L 1825 531 
L 1825 4091 
L 703 3866 
L 703 4441 
L 1819 4666 
L 2450 4666 
L 2450 531 
L 3481 531 
L 3481 0 
L 794 0 
L 794 531 
z
" transform="scale(0.015625)"/>
       </defs>
       <use xlink:href="#DejaVuSans-31"/>
       <use xlink:href="#DejaVuSans-30" x="63.623047"/>
       <use xlink:href="#DejaVuSans-30" x="127.246094"/>
      </g>
     </g>
    </g>
    <g id="xtick_4">
     <g id="line2d_4">
      <g>
       <use xlink:href="#mcf2dbaaf5d" x="308.081534" y="308.63625" style="stroke: #000000; stroke-width: 0.8"/>
      </g>
     </g>
     <g id="text_4">
      <!-- 150 -->
      <g transform="translate(288.994034 330.833125) scale(0.2 -0.2)">
       <use xlink:href="#DejaVuSans-31"/>
       <use xlink:href="#DejaVuSans-35" x="63.623047"/>
       <use xlink:href="#DejaVuSans-30" x="127.246094"/>
      </g>
     </g>
    </g>
    <g id="xtick_5">
     <g id="line2d_5">
      <g>
       <use xlink:href="#mcf2dbaaf5d" x="371.490625" y="308.63625" style="stroke: #000000; stroke-width: 0.8"/>
      </g>
     </g>
     <g id="text_5">
      <!-- 200 -->
      <g transform="translate(352.403125 330.833125) scale(0.2 -0.2)">
       <defs>
        <path id="DejaVuSans-32" d="M 1228 531 
L 3431 531 
L 3431 0 
L 469 0 
L 469 531 
Q 828 903 1448 1529 
Q 2069 2156 2228 2338 
Q 2531 2678 2651 2914 
Q 2772 3150 2772 3378 
Q 2772 3750 2511 3984 
Q 2250 4219 1831 4219 
Q 1534 4219 1204 4116 
Q 875 4013 500 3803 
L 500 4441 
Q 881 4594 1212 4672 
Q 1544 4750 1819 4750 
Q 2544 4750 2975 4387 
Q 3406 4025 3406 3419 
Q 3406 3131 3298 2873 
Q 3191 2616 2906 2266 
Q 2828 2175 2409 1742 
Q 1991 1309 1228 531 
z
" transform="scale(0.015625)"/>
       </defs>
       <use xlink:href="#DejaVuSans-32"/>
       <use xlink:href="#DejaVuSans-30" x="63.623047"/>
       <use xlink:href="#DejaVuSans-30" x="127.246094"/>
      </g>
     </g>
    </g>
    <g id="xtick_6">
     <g id="line2d_6">
      <g>
       <use xlink:href="#mcf2dbaaf5d" x="434.899716" y="308.63625" style="stroke: #000000; stroke-width: 0.8"/>
      </g>
     </g>
     <g id="text_6">
      <!-- 250 -->
      <g transform="translate(415.812216 330.833125) scale(0.2 -0.2)">
       <use xlink:href="#DejaVuSans-32"/>
       <use xlink:href="#DejaVuSans-35" x="63.623047"/>
       <use xlink:href="#DejaVuSans-30" x="127.246094"/>
      </g>
     </g>
    </g>
    <g id="xtick_7">
     <g id="line2d_7">
      <g>
       <use xlink:href="#mcf2dbaaf5d" x="498.308807" y="308.63625" style="stroke: #000000; stroke-width: 0.8"/>
      </g>
     </g>
     <g id="text_7">
      <!-- 300 -->
      <g transform="translate(479.221307 330.833125) scale(0.2 -0.2)">
       <defs>
        <path id="DejaVuSans-33" d="M 2597 2516 
Q 3050 2419 3304 2112 
Q 3559 1806 3559 1356 
Q 3559 666 3084 287 
Q 2609 -91 1734 -91 
Q 1441 -91 1130 -33 
Q 819 25 488 141 
L 488 750 
Q 750 597 1062 519 
Q 1375 441 1716 441 
Q 2309 441 2620 675 
Q 2931 909 2931 1356 
Q 2931 1769 2642 2001 
Q 2353 2234 1838 2234 
L 1294 2234 
L 1294 2753 
L 1863 2753 
Q 2328 2753 2575 2939 
Q 2822 3125 2822 3475 
Q 2822 3834 2567 4026 
Q 2313 4219 1838 4219 
Q 1578 4219 1281 4162 
Q 984 4106 628 3988 
L 628 4550 
Q 988 4650 1302 4700 
Q 1616 4750 1894 4750 
Q 2613 4750 3031 4423 
Q 3450 4097 3450 3541 
Q 3450 3153 3228 2886 
Q 3006 2619 2597 2516 
z
" transform="scale(0.015625)"/>
       </defs>
       <use xlink:href="#DejaVuSans-33"/>
       <use xlink:href="#DejaVuSans-30" x="63.623047"/>
       <use xlink:href="#DejaVuSans-30" x="127.246094"/>
      </g>
     </g>
    </g>
    <g id="xtick_8">
     <g id="line2d_8">
      <g>
       <use xlink:href="#mcf2dbaaf5d" x="561.717898" y="308.63625" style="stroke: #000000; stroke-width: 0.8"/>
      </g>
     </g>
     <g id="text_8">
      <!-- 350 -->
      <g transform="translate(542.630398 330.833125) scale(0.2 -0.2)">
       <use xlink:href="#DejaVuSans-33"/>
       <use xlink:href="#DejaVuSans-35" x="63.623047"/>
       <use xlink:href="#DejaVuSans-30" x="127.246094"/>
      </g>
     </g>
    </g>
    <g id="xtick_9">
     <g id="line2d_9">
      <g>
       <use xlink:href="#mcf2dbaaf5d" x="625.126989" y="308.63625" style="stroke: #000000; stroke-width: 0.8"/>
      </g>
     </g>
     <g id="text_9">
      <!-- 400 -->
      <g transform="translate(606.039489 330.833125) scale(0.2 -0.2)">
       <defs>
        <path id="DejaVuSans-34" d="M 2419 4116 
L 825 1625 
L 2419 1625 
L 2419 4116 
z
M 2253 4666 
L 3047 4666 
L 3047 1625 
L 3713 1625 
L 3713 1100 
L 3047 1100 
L 3047 0 
L 2419 0 
L 2419 1100 
L 313 1100 
L 313 1709 
L 2253 4666 
z
" transform="scale(0.015625)"/>
       </defs>
       <use xlink:href="#DejaVuSans-34"/>
       <use xlink:href="#DejaVuSans-30" x="63.623047"/>
       <use xlink:href="#DejaVuSans-30" x="127.246094"/>
      </g>
     </g>
    </g>
    <g id="text_10">
     <!-- iterations -->
     <g transform="translate(324.035938 354.189375) scale(0.2 -0.2)">
      <defs>
       <path id="DejaVuSans-69" d="M 603 3500 
L 1178 3500 
L 1178 0 
L 603 0 
L 603 3500 
z
M 603 4863 
L 1178 4863 
L 1178 4134 
L 603 4134 
L 603 4863 
z
" transform="scale(0.015625)"/>
       <path id="DejaVuSans-74" d="M 1172 4494 
L 1172 3500 
L 2356 3500 
L 2356 3053 
L 1172 3053 
L 1172 1153 
Q 1172 725 1289 603 
Q 1406 481 1766 481 
L 2356 481 
L 2356 0 
L 1766 0 
Q 1100 0 847 248 
Q 594 497 594 1153 
L 594 3053 
L 172 3053 
L 172 3500 
L 594 3500 
L 594 4494 
L 1172 4494 
z
" transform="scale(0.015625)"/>
       <path id="DejaVuSans-65" d="M 3597 1894 
L 3597 1613 
L 953 1613 
Q 991 1019 1311 708 
Q 1631 397 2203 397 
Q 2534 397 2845 478 
Q 3156 559 3463 722 
L 3463 178 
Q 3153 47 2828 -22 
Q 2503 -91 2169 -91 
Q 1331 -91 842 396 
Q 353 884 353 1716 
Q 353 2575 817 3079 
Q 1281 3584 2069 3584 
Q 2775 3584 3186 3129 
Q 3597 2675 3597 1894 
z
M 3022 2063 
Q 3016 2534 2758 2815 
Q 2500 3097 2075 3097 
Q 1594 3097 1305 2825 
Q 1016 2553 972 2059 
L 3022 2063 
z
" transform="scale(0.015625)"/>
       <path id="DejaVuSans-72" d="M 2631 2963 
Q 2534 3019 2420 3045 
Q 2306 3072 2169 3072 
Q 1681 3072 1420 2755 
Q 1159 2438 1159 1844 
L 1159 0 
L 581 0 
L 581 3500 
L 1159 3500 
L 1159 2956 
Q 1341 3275 1631 3429 
Q 1922 3584 2338 3584 
Q 2397 3584 2469 3576 
Q 2541 3569 2628 3553 
L 2631 2963 
z
" transform="scale(0.015625)"/>
       <path id="DejaVuSans-61" d="M 2194 1759 
Q 1497 1759 1228 1600 
Q 959 1441 959 1056 
Q 959 750 1161 570 
Q 1363 391 1709 391 
Q 2188 391 2477 730 
Q 2766 1069 2766 1631 
L 2766 1759 
L 2194 1759 
z
M 3341 1997 
L 3341 0 
L 2766 0 
L 2766 531 
Q 2569 213 2275 61 
Q 1981 -91 1556 -91 
Q 1019 -91 701 211 
Q 384 513 384 1019 
Q 384 1609 779 1909 
Q 1175 2209 1959 2209 
L 2766 2209 
L 2766 2266 
Q 2766 2663 2505 2880 
Q 2244 3097 1772 3097 
Q 1472 3097 1187 3025 
Q 903 2953 641 2809 
L 641 3341 
Q 956 3463 1253 3523 
Q 1550 3584 1831 3584 
Q 2591 3584 2966 3190 
Q 3341 2797 3341 1997 
z
" transform="scale(0.015625)"/>
       <path id="DejaVuSans-6f" d="M 1959 3097 
Q 1497 3097 1228 2736 
Q 959 2375 959 1747 
Q 959 1119 1226 758 
Q 1494 397 1959 397 
Q 2419 397 2687 759 
Q 2956 1122 2956 1747 
Q 2956 2369 2687 2733 
Q 2419 3097 1959 3097 
z
M 1959 3584 
Q 2709 3584 3137 3096 
Q 3566 2609 3566 1747 
Q 3566 888 3137 398 
Q 2709 -91 1959 -91 
Q 1206 -91 779 398 
Q 353 888 353 1747 
Q 353 2609 779 3096 
Q 1206 3584 1959 3584 
z
" transform="scale(0.015625)"/>
       <path id="DejaVuSans-6e" d="M 3513 2113 
L 3513 0 
L 2938 0 
L 2938 2094 
Q 2938 2591 2744 2837 
Q 2550 3084 2163 3084 
Q 1697 3084 1428 2787 
Q 1159 2491 1159 1978 
L 1159 0 
L 581 0 
L 581 3500 
L 1159 3500 
L 1159 2956 
Q 1366 3272 1645 3428 
Q 1925 3584 2291 3584 
Q 2894 3584 3203 3211 
Q 3513 2838 3513 2113 
z
" transform="scale(0.015625)"/>
       <path id="DejaVuSans-73" d="M 2834 3397 
L 2834 2853 
Q 2591 2978 2328 3040 
Q 2066 3103 1784 3103 
Q 1356 3103 1142 2972 
Q 928 2841 928 2578 
Q 928 2378 1081 2264 
Q 1234 2150 1697 2047 
L 1894 2003 
Q 2506 1872 2764 1633 
Q 3022 1394 3022 966 
Q 3022 478 2636 193 
Q 2250 -91 1575 -91 
Q 1294 -91 989 -36 
Q 684 19 347 128 
L 347 722 
Q 666 556 975 473 
Q 1284 391 1588 391 
Q 1994 391 2212 530 
Q 2431 669 2431 922 
Q 2431 1156 2273 1281 
Q 2116 1406 1581 1522 
L 1381 1569 
Q 847 1681 609 1914 
Q 372 2147 372 2553 
Q 372 3047 722 3315 
Q 1072 3584 1716 3584 
Q 2034 3584 2315 3537 
Q 2597 3491 2834 3397 
z
" transform="scale(0.015625)"/>
      </defs>
      <use xlink:href="#DejaVuSans-69"/>
      <use xlink:href="#DejaVuSans-74" x="27.783203"/>
      <use xlink:href="#DejaVuSans-65" x="66.992188"/>
      <use xlink:href="#DejaVuSans-72" x="128.515625"/>
      <use xlink:href="#DejaVuSans-61" x="169.628906"/>
      <use xlink:href="#DejaVuSans-74" x="230.908203"/>
      <use xlink:href="#DejaVuSans-69" x="270.117188"/>
      <use xlink:href="#DejaVuSans-6f" x="297.900391"/>
      <use xlink:href="#DejaVuSans-6e" x="359.082031"/>
      <use xlink:href="#DejaVuSans-73" x="422.460938"/>
     </g>
    </g>
   </g>
   <g id="matplotlib.axis_2">
    <g id="ytick_1">
     <g id="line2d_10">
      <defs>
       <path id="m7668f6dbf3" d="M 0 0 
L -3.5 0 
" style="stroke: #000000; stroke-width: 0.8"/>
      </defs>
      <g>
       <use xlink:href="#m7668f6dbf3" x="92.490625" y="234.626549" style="stroke: #000000; stroke-width: 0.8"/>
      </g>
     </g>
     <g id="text_11">
      <!-- −200 -->
      <g transform="translate(30.55625 242.224987) scale(0.2 -0.2)">
       <defs>
        <path id="DejaVuSans-2212" d="M 678 2272 
L 4684 2272 
L 4684 1741 
L 678 1741 
L 678 2272 
z
" transform="scale(0.015625)"/>
       </defs>
       <use xlink:href="#DejaVuSans-2212"/>
       <use xlink:href="#DejaVuSans-32" x="83.789062"/>
       <use xlink:href="#DejaVuSans-30" x="147.412109"/>
       <use xlink:href="#DejaVuSans-30" x="211.035156"/>
      </g>
     </g>
    </g>
    <g id="ytick_2">
     <g id="line2d_11">
      <g>
       <use xlink:href="#m7668f6dbf3" x="92.490625" y="151.376755" style="stroke: #000000; stroke-width: 0.8"/>
      </g>
     </g>
     <g id="text_12">
      <!-- 0 -->
      <g transform="translate(72.765625 158.975193) scale(0.2 -0.2)">
       <use xlink:href="#DejaVuSans-30"/>
      </g>
     </g>
    </g>
    <g id="ytick_3">
     <g id="line2d_12">
      <g>
       <use xlink:href="#m7668f6dbf3" x="92.490625" y="68.126962" style="stroke: #000000; stroke-width: 0.8"/>
      </g>
     </g>
     <g id="text_13">
      <!-- 200 -->
      <g transform="translate(47.315625 75.725399) scale(0.2 -0.2)">
       <use xlink:href="#DejaVuSans-32"/>
       <use xlink:href="#DejaVuSans-30" x="63.623047"/>
       <use xlink:href="#DejaVuSans-30" x="127.246094"/>
      </g>
     </g>
    </g>
    <g id="text_14">
     <!-- Loss -->
     <g transform="translate(22.396875 191.970625) rotate(-90) scale(0.2 -0.2)">
      <defs>
       <path id="DejaVuSans-4c" d="M 628 4666 
L 1259 4666 
L 1259 531 
L 3531 531 
L 3531 0 
L 628 0 
L 628 4666 
z
" transform="scale(0.015625)"/>
      </defs>
      <use xlink:href="#DejaVuSans-4c"/>
      <use xlink:href="#DejaVuSans-6f" x="53.962891"/>
      <use xlink:href="#DejaVuSans-73" x="115.144531"/>
      <use xlink:href="#DejaVuSans-73" x="167.244141"/>
     </g>
    </g>
   </g>
   <g id="line2d_13">
    <path d="M 117.854261 114.726306 
L 119.122443 106.081918 
L 120.390625 66.645135 
L 121.658807 44.03625 
L 122.926989 55.607746 
L 124.19517 116.630126 
L 125.463352 138.664661 
L 126.731534 137.321124 
L 127.999716 122.741893 
L 129.267898 120.788415 
L 130.53608 127.999278 
L 131.804261 122.989826 
L 133.072443 108.458537 
L 134.340625 122.646974 
L 135.608807 126.556792 
L 136.876989 123.898785 
L 138.14517 120.201515 
L 139.413352 126.255443 
L 140.681534 122.797609 
L 141.949716 127.006439 
L 143.217898 118.64052 
L 144.48608 124.366742 
L 145.754261 117.662909 
L 147.022443 117.330772 
L 148.290625 114.695364 
L 149.558807 107.764658 
L 150.826989 108.435758 
L 152.09517 107.051208 
L 153.363352 106.219874 
L 154.631534 110.116506 
L 155.899716 106.40337 
L 157.167898 103.735206 
L 158.43608 107.114803 
L 159.704261 106.33327 
L 160.972443 103.507469 
L 162.240625 108.842958 
L 163.508807 102.920055 
L 164.776989 108.429686 
L 166.04517 110.936486 
L 167.313352 110.869457 
L 168.581534 106.939005 
L 169.849716 105.409875 
L 171.117898 110.445841 
L 172.38608 111.131011 
L 173.654261 113.912796 
L 174.922443 112.411065 
L 176.190625 111.591078 
L 177.458807 112.594274 
L 178.726989 115.130586 
L 179.99517 112.662515 
L 181.263352 111.560611 
L 182.531534 112.925905 
L 183.799716 108.346789 
L 185.067898 112.549272 
L 186.33608 114.58122 
L 187.604261 115.179402 
L 188.872443 119.262292 
L 190.140625 117.014571 
L 191.408807 116.380063 
L 192.676989 120.267786 
L 193.94517 120.37667 
L 195.213352 120.879402 
L 196.481534 120.548412 
L 197.749716 123.597646 
L 199.017898 123.431828 
L 200.28608 121.429234 
L 201.554261 122.560572 
L 202.822443 119.85272 
L 204.090625 118.694633 
L 206.626989 118.68102 
L 207.89517 118.119314 
L 209.163352 121.17012 
L 210.431534 119.147663 
L 211.699716 116.7473 
L 212.967898 113.297092 
L 214.23608 118.688744 
L 215.504261 120.343387 
L 216.772443 123.308616 
L 218.040625 120.224883 
L 219.308807 118.109455 
L 220.576989 120.364991 
L 221.84517 123.245243 
L 224.381534 118.407012 
L 225.649716 120.74258 
L 226.917898 122.653338 
L 228.18608 123.836576 
L 229.454261 125.744796 
L 230.722443 123.447651 
L 231.990625 128.318527 
L 233.258807 129.080516 
L 234.526989 128.830815 
L 235.79517 128.20745 
L 237.063352 128.76154 
L 238.331534 132.053196 
L 239.599716 133.596636 
L 240.867898 133.934515 
L 242.13608 135.141517 
L 243.404261 135.137063 
L 244.672443 134.780402 
L 245.940625 135.202134 
L 247.208807 135.093015 
L 248.476989 136.905242 
L 251.013352 142.399589 
L 252.281534 142.128559 
L 253.549716 142.779249 
L 254.817898 139.598641 
L 256.08608 140.408307 
L 257.354261 138.506123 
L 258.622443 139.937779 
L 259.890625 138.802053 
L 261.158807 137.3209 
L 262.426989 136.304856 
L 263.69517 135.089312 
L 264.963352 138.125691 
L 266.231534 137.931203 
L 267.499716 136.48173 
L 268.767898 135.887461 
L 270.03608 134.35985 
L 271.304261 133.177328 
L 272.572443 135.336782 
L 273.840625 134.894951 
L 275.108807 135.405771 
L 276.376989 135.395858 
L 277.64517 136.106534 
L 278.913352 138.160945 
L 281.449716 138.778501 
L 282.717898 139.328544 
L 283.98608 137.455284 
L 285.254261 138.146409 
L 286.522443 139.584531 
L 287.790625 139.54211 
L 289.058807 140.772087 
L 290.326989 139.328314 
L 291.59517 141.270704 
L 292.863352 139.912962 
L 294.131534 138.38691 
L 295.399716 138.267975 
L 296.667898 138.407029 
L 297.93608 138.064147 
L 299.204261 136.366411 
L 300.472443 136.725459 
L 301.740625 137.7051 
L 303.008807 136.859223 
L 304.276989 139.049001 
L 305.54517 137.336016 
L 306.813352 137.257625 
L 308.081534 138.794003 
L 309.349716 138.317046 
L 310.617898 138.127537 
L 311.88608 137.085883 
L 313.154261 140.357201 
L 314.422443 142.188057 
L 315.690625 140.211719 
L 316.958807 141.214973 
L 318.226989 140.469004 
L 319.49517 140.399257 
L 320.763352 137.341402 
L 322.031534 136.956775 
L 323.299716 138.004539 
L 324.567898 141.917493 
L 325.83608 141.394417 
L 327.104261 139.770456 
L 328.372443 138.757231 
L 329.640625 139.627896 
L 330.908807 141.258242 
L 332.176989 142.544043 
L 333.44517 142.319792 
L 334.713352 139.759331 
L 335.981534 140.416344 
L 337.249716 141.45395 
L 338.517898 141.363625 
L 339.78608 140.978604 
L 341.054261 142.910652 
L 342.322443 142.90158 
L 343.590625 144.549058 
L 344.858807 145.17122 
L 346.126989 145.44887 
L 347.39517 144.416339 
L 348.663352 144.947962 
L 349.931534 143.814591 
L 351.199716 145.207917 
L 352.467898 145.528567 
L 353.73608 144.861957 
L 355.004261 145.227471 
L 356.272443 144.527959 
L 357.540625 145.046411 
L 358.808807 146.68308 
L 360.076989 147.135187 
L 361.34517 145.32902 
L 362.613352 143.988933 
L 363.881534 145.81337 
L 365.149716 144.652605 
L 366.417898 145.491722 
L 367.68608 145.544312 
L 368.954261 146.479505 
L 370.222443 145.926367 
L 371.490625 146.569906 
L 372.758807 146.635087 
L 374.026989 145.762171 
L 375.29517 146.892018 
L 376.563352 148.983063 
L 377.831534 148.879743 
L 379.099716 147.783513 
L 380.367898 148.254067 
L 381.63608 147.888736 
L 382.904261 146.84581 
L 384.172443 146.202176 
L 385.440625 146.837467 
L 386.708807 146.997663 
L 389.24517 146.666794 
L 391.781534 146.848622 
L 393.049716 146.639285 
L 394.317898 145.433562 
L 395.58608 146.697151 
L 396.854261 146.488051 
L 398.122443 148.265055 
L 399.390625 147.613654 
L 400.658807 147.710403 
L 401.926989 147.419561 
L 403.19517 147.740517 
L 404.463352 146.590609 
L 406.999716 147.987777 
L 409.53608 148.092569 
L 410.804261 147.626153 
L 412.072443 148.346627 
L 413.340625 147.834075 
L 414.608807 146.928657 
L 415.876989 148.067958 
L 417.14517 147.258653 
L 418.413352 148.865305 
L 419.681534 148.410553 
L 420.949716 148.967358 
L 422.217898 149.221557 
L 423.48608 149.822095 
L 424.754261 148.406232 
L 426.022443 148.806973 
L 427.290625 148.539764 
L 428.558807 149.07262 
L 429.826989 148.908721 
L 431.09517 148.61838 
L 433.631534 149.440954 
L 434.899716 149.36957 
L 436.167898 150.013568 
L 437.43608 149.776241 
L 438.704261 150.325511 
L 439.972443 149.880589 
L 441.240625 151.162299 
L 442.508807 149.985682 
L 443.776989 151.13516 
L 445.04517 149.965057 
L 447.581534 149.636812 
L 448.849716 150.277934 
L 450.117898 150.130294 
L 451.38608 149.369379 
L 452.654261 148.998461 
L 453.922443 149.263791 
L 455.190625 149.411097 
L 456.458807 150.464825 
L 457.726989 150.199464 
L 458.99517 150.562235 
L 460.263352 150.590935 
L 461.531534 151.04972 
L 462.799716 151.841912 
L 464.067898 151.427364 
L 465.33608 151.175547 
L 466.604261 152.473986 
L 467.872443 151.552817 
L 469.140625 151.225341 
L 470.408807 151.595681 
L 471.676989 152.660834 
L 472.94517 151.773162 
L 474.213352 152.094372 
L 475.481534 152.17824 
L 476.749716 151.68895 
L 480.554261 152.286212 
L 481.822443 152.200918 
L 483.090625 152.280159 
L 484.358807 151.754625 
L 485.626989 152.272882 
L 488.163352 151.842046 
L 489.431534 152.141914 
L 490.699716 152.770268 
L 491.967898 152.207484 
L 493.23608 152.377094 
L 494.504261 152.188492 
L 495.772443 152.676249 
L 497.040625 151.731846 
L 499.576989 151.345152 
L 500.84517 152.186997 
L 502.113352 152.122104 
L 503.381534 151.359375 
L 504.649716 151.397048 
L 505.917898 151.085501 
L 508.454261 152.610465 
L 509.722443 152.103367 
L 510.990625 151.755312 
L 512.258807 151.745505 
L 513.526989 151.555412 
L 514.79517 151.233799 
L 517.331534 151.617299 
L 518.599716 151.69156 
L 519.867898 151.931251 
L 521.13608 150.713665 
L 522.404261 151.562487 
L 523.672443 151.106358 
L 526.208807 150.617443 
L 527.476989 151.580261 
L 528.74517 151.282821 
L 530.013352 151.651857 
L 531.281534 151.11709 
L 532.549716 151.018062 
L 533.817898 149.816142 
L 535.08608 150.538729 
L 536.354261 151.54643 
L 537.622443 151.134366 
L 538.890625 150.083957 
L 540.158807 149.856048 
L 541.426989 150.084806 
L 543.963352 150.905625 
L 546.499716 150.592418 
L 547.767898 150.540132 
L 549.03608 150.835766 
L 550.304261 149.605204 
L 551.572443 150.155542 
L 552.840625 148.359728 
L 554.108807 149.069275 
L 555.376989 149.470042 
L 556.64517 148.774616 
L 557.913352 149.156396 
L 559.181534 149.200486 
L 560.449716 148.372847 
L 561.717898 148.781279 
L 562.98608 148.915586 
L 564.254261 148.736299 
L 565.522443 148.278376 
L 566.790625 150.048145 
L 568.058807 149.794805 
L 569.326989 148.207867 
L 570.59517 147.006615 
L 571.863352 149.701961 
L 573.131534 148.584931 
L 574.399716 150.113674 
L 575.667898 149.148353 
L 576.93608 149.050289 
L 578.204261 149.482133 
L 579.472443 149.221502 
L 582.008807 149.716106 
L 584.54517 149.448828 
L 585.813352 148.575808 
L 587.081534 148.865793 
L 588.349716 149.033621 
L 589.617898 149.043221 
L 590.88608 148.766445 
L 592.154261 150.10204 
L 593.422443 149.976308 
L 594.690625 149.01284 
L 597.226989 150.415562 
L 598.49517 150.191345 
L 599.763352 149.765998 
L 601.031534 150.542045 
L 602.299716 151.094122 
L 603.567898 150.749297 
L 604.83608 150.748543 
L 606.104261 150.552951 
L 607.372443 150.811243 
L 608.640625 150.267491 
L 609.908807 150.78941 
L 611.176989 151.586957 
L 612.44517 150.325004 
L 613.713352 151.032796 
L 614.981534 150.88367 
L 616.249716 150.884052 
L 617.517898 151.261011 
L 618.78608 150.707683 
L 620.054261 150.648162 
L 621.322443 149.982535 
L 622.590625 150.220711 
L 623.858807 150.660541 
L 625.126989 150.245039 
L 625.126989 150.245039 
" clip-path="url(#p19d38471bd)" style="fill: none; stroke: #1f77b4; stroke-width: 1.5; stroke-linecap: square"/>
   </g>
   <g id="line2d_14">
    <path d="M 117.854261 257.658289 
L 119.122443 262.165711 
L 120.390625 291.943205 
L 121.658807 296.03625 
L 122.926989 284.397593 
L 124.19517 271.11781 
L 125.463352 227.057898 
L 126.731534 207.5709 
L 127.999716 203.182002 
L 129.267898 203.974264 
L 130.53608 211.845554 
L 131.804261 205.520858 
L 133.072443 201.196422 
L 134.340625 195.910364 
L 135.608807 195.703205 
L 136.876989 192.753227 
L 138.14517 197.401453 
L 139.413352 172.184989 
L 140.681534 172.103903 
L 141.949716 169.627321 
L 143.217898 171.510379 
L 144.48608 166.488463 
L 145.754261 169.662831 
L 147.022443 167.766312 
L 148.290625 168.409239 
L 149.558807 168.391562 
L 150.826989 165.287616 
L 152.09517 166.881572 
L 153.363352 166.794035 
L 154.631534 165.094572 
L 155.899716 166.165148 
L 157.167898 165.451608 
L 158.43608 164.010929 
L 159.704261 163.25549 
L 160.972443 164.862355 
L 162.240625 163.978923 
L 163.508807 163.485609 
L 166.04517 161.702402 
L 167.313352 160.420844 
L 168.581534 164.815428 
L 169.849716 163.952454 
L 171.117898 162.432016 
L 172.38608 163.099974 
L 173.654261 162.512979 
L 174.922443 162.265303 
L 176.190625 163.58709 
L 177.458807 161.410305 
L 178.726989 162.710343 
L 179.99517 161.565435 
L 181.263352 161.16584 
L 182.531534 161.539059 
L 183.799716 162.557454 
L 185.067898 161.171452 
L 186.33608 161.384449 
L 187.604261 160.92679 
L 188.872443 160.831448 
L 191.408807 161.328739 
L 192.676989 161.196216 
L 193.94517 161.194354 
L 195.213352 161.482621 
L 196.481534 161.201429 
L 197.749716 159.7919 
L 199.017898 160.884693 
L 200.28608 160.064798 
L 201.554261 160.550759 
L 202.822443 162.077185 
L 204.090625 163.054654 
L 205.358807 160.376997 
L 206.626989 163.420413 
L 207.89517 160.81798 
L 209.163352 160.706714 
L 210.431534 161.975153 
L 211.699716 162.97898 
L 212.967898 161.428681 
L 214.23608 160.805188 
L 215.504261 160.440512 
L 216.772443 160.193846 
L 218.040625 161.309852 
L 219.308807 162.631121 
L 220.576989 161.251941 
L 221.84517 159.442412 
L 223.113352 161.834268 
L 224.381534 161.591212 
L 225.649716 160.94865 
L 226.917898 161.58259 
L 228.18608 161.661909 
L 229.454261 162.60633 
L 231.990625 161.360388 
L 234.526989 161.703732 
L 235.79517 160.981433 
L 238.331534 161.378065 
L 240.867898 159.80897 
L 242.13608 160.21275 
L 243.404261 160.462935 
L 244.672443 161.088266 
L 247.208807 161.389012 
L 248.476989 160.004467 
L 249.74517 161.423814 
L 251.013352 161.588497 
L 252.281534 160.70362 
L 253.549716 161.311015 
L 254.817898 162.288528 
L 256.08608 161.574032 
L 257.354261 162.933584 
L 258.622443 162.761098 
L 259.890625 161.823109 
L 261.158807 163.255695 
L 262.426989 162.48772 
L 263.69517 162.510713 
L 264.963352 162.845991 
L 266.231534 162.220304 
L 267.499716 162.518876 
L 268.767898 163.464852 
L 270.03608 164.100062 
L 271.304261 161.71733 
L 272.572443 160.953926 
L 273.840625 162.188098 
L 276.376989 161.382858 
L 277.64517 162.157181 
L 278.913352 162.385889 
L 280.181534 160.804717 
L 281.449716 161.59229 
L 282.717898 161.478432 
L 283.98608 161.686822 
L 285.254261 162.509587 
L 286.522443 161.135064 
L 287.790625 161.60804 
L 289.058807 162.642114 
L 290.326989 163.370876 
L 291.59517 161.109782 
L 292.863352 153.752785 
L 294.131534 154.884893 
L 295.399716 154.642952 
L 296.667898 156.15602 
L 297.93608 156.257159 
L 299.204261 154.933457 
L 300.472443 156.047679 
L 301.740625 156.254787 
L 303.008807 157.181505 
L 304.276989 156.53724 
L 305.54517 156.437924 
L 306.813352 156.791371 
L 308.081534 156.526013 
L 309.349716 156.899174 
L 310.617898 156.612682 
L 311.88608 155.971204 
L 313.154261 156.374247 
L 315.690625 156.676973 
L 316.958807 156.380954 
L 318.226989 156.744293 
L 319.49517 156.508302 
L 322.031534 156.742195 
L 323.299716 156.015266 
L 324.567898 156.667905 
L 327.104261 156.571618 
L 328.372443 156.876875 
L 329.640625 157.011189 
L 332.176989 156.562438 
L 333.44517 157.11912 
L 334.713352 157.288222 
L 335.981534 156.918805 
L 337.249716 156.340906 
L 338.517898 157.068537 
L 339.78608 156.310565 
L 342.322443 155.798621 
L 343.590625 156.372213 
L 344.858807 156.620934 
L 346.126989 156.340232 
L 347.39517 155.934658 
L 348.663352 155.997717 
L 349.931534 156.237635 
L 351.199716 156.252845 
L 352.467898 155.534283 
L 353.73608 156.106492 
L 355.004261 155.971055 
L 356.272443 155.262929 
L 357.540625 155.565248 
L 358.808807 155.523103 
L 360.076989 155.801346 
L 361.34517 156.566333 
L 362.613352 156.216639 
L 363.881534 156.133157 
L 365.149716 155.391582 
L 366.417898 155.66232 
L 367.68608 156.145638 
L 368.954261 155.672539 
L 370.222443 155.874484 
L 371.490625 155.743108 
L 372.758807 156.238413 
L 374.026989 155.989438 
L 375.29517 156.156793 
L 376.563352 156.440338 
L 379.099716 155.672807 
L 380.367898 155.631246 
L 381.63608 155.827528 
L 382.904261 156.184732 
L 384.172443 155.693904 
L 385.440625 156.168457 
L 386.708807 156.299126 
L 387.976989 155.762169 
L 390.513352 156.752607 
L 391.781534 155.909613 
L 393.049716 156.437744 
L 395.58608 156.503263 
L 396.854261 156.287067 
L 398.122443 156.348738 
L 399.390625 156.141802 
L 400.658807 156.48928 
L 401.926989 155.958175 
L 403.19517 155.93672 
L 404.463352 156.125692 
L 405.731534 156.556642 
L 406.999716 156.08584 
L 408.267898 155.853602 
L 409.53608 156.224566 
L 412.072443 155.977781 
L 413.340625 156.594103 
L 414.608807 155.667991 
L 417.14517 156.37959 
L 418.413352 156.129236 
L 419.681534 156.608581 
L 420.949716 155.852199 
L 422.217898 155.933841 
L 423.48608 155.823862 
L 424.754261 156.261902 
L 426.022443 156.217012 
L 427.290625 156.433896 
L 428.558807 156.219792 
L 429.826989 156.336659 
L 431.09517 156.096349 
L 432.363352 156.14078 
L 433.631534 156.421176 
L 437.43608 156.095558 
L 438.704261 157.212045 
L 439.972443 156.587763 
L 441.240625 156.30008 
L 442.508807 156.348145 
L 443.776989 156.214621 
L 445.04517 156.433314 
L 446.313352 156.347303 
L 448.849716 156.730407 
L 450.117898 156.311451 
L 451.38608 156.422137 
L 452.654261 156.363393 
L 453.922443 156.605773 
L 458.99517 156.104843 
L 460.263352 156.384421 
L 461.531534 156.488825 
L 462.799716 156.398473 
L 464.067898 156.77701 
L 466.604261 156.438086 
L 467.872443 156.575574 
L 469.140625 156.895077 
L 470.408807 156.586644 
L 471.676989 156.758388 
L 472.94517 156.656062 
L 474.213352 156.965966 
L 476.749716 156.474212 
L 478.017898 156.979237 
L 481.822443 156.78095 
L 483.090625 157.101613 
L 484.358807 156.75467 
L 485.626989 156.551084 
L 488.163352 157.098151 
L 489.431534 156.494078 
L 490.699716 156.470489 
L 491.967898 156.88698 
L 493.23608 156.736063 
L 494.504261 156.7347 
L 495.772443 157.464837 
L 497.040625 157.245992 
L 498.308807 156.862099 
L 499.576989 156.935837 
L 500.84517 156.769388 
L 502.113352 157.033425 
L 503.381534 156.931994 
L 505.917898 157.300986 
L 507.18608 156.96563 
L 508.454261 157.144787 
L 510.990625 156.797355 
L 512.258807 157.022033 
L 513.526989 156.650283 
L 514.79517 156.643316 
L 516.063352 157.060201 
L 517.331534 156.635579 
L 519.867898 156.742267 
L 521.13608 156.495117 
L 522.404261 156.37065 
L 523.672443 156.805563 
L 524.940625 157.010789 
L 526.208807 156.41239 
L 527.476989 156.30752 
L 528.74517 156.518043 
L 530.013352 154.394413 
L 531.281534 153.868807 
L 532.549716 154.745371 
L 533.817898 154.964107 
L 535.08608 155.882272 
L 538.890625 155.2932 
L 541.426989 155.89478 
L 542.69517 155.705633 
L 543.963352 155.735094 
L 545.231534 156.291481 
L 547.767898 155.58715 
L 549.03608 155.645655 
L 550.304261 153.043477 
L 551.572443 154.084499 
L 552.840625 154.435394 
L 554.108807 154.271206 
L 555.376989 154.535556 
L 556.64517 155.139117 
L 557.913352 154.806182 
L 559.181534 155.013079 
L 560.449716 154.635972 
L 561.717898 155.060609 
L 562.98608 155.242783 
L 564.254261 154.710172 
L 565.522443 155.23496 
L 569.326989 154.912978 
L 570.59517 154.600437 
L 571.863352 154.867425 
L 573.131534 154.496443 
L 574.399716 155.003689 
L 576.93608 155.096093 
L 578.204261 154.993173 
L 579.472443 155.095595 
L 580.740625 155.423929 
L 584.54517 155.077029 
L 585.813352 155.272574 
L 587.081534 154.511676 
L 588.349716 155.031347 
L 589.617898 155.333706 
L 590.88608 155.833112 
L 592.154261 155.491651 
L 594.690625 155.26391 
L 595.958807 155.533926 
L 597.226989 155.532608 
L 598.49517 155.347737 
L 599.763352 155.905205 
L 602.299716 155.375726 
L 603.567898 155.269938 
L 604.83608 155.835803 
L 607.372443 155.153243 
L 611.176989 155.751553 
L 613.713352 155.403771 
L 614.981534 155.480373 
L 616.249716 155.800394 
L 617.517898 155.63988 
L 618.78608 156.279948 
L 620.054261 155.760215 
L 622.590625 155.431543 
L 625.126989 155.685963 
L 625.126989 155.685963 
" clip-path="url(#p19d38471bd)" style="fill: none; stroke: #ff7f0e; stroke-width: 1.5; stroke-linecap: square"/>
   </g>
   <g id="patch_3">
    <path d="M 92.490625 308.63625 
L 92.490625 31.43625 
" style="fill: none; stroke: #000000; stroke-width: 0.8; stroke-linejoin: miter; stroke-linecap: square"/>
   </g>
   <g id="patch_4">
    <path d="M 650.490625 308.63625 
L 650.490625 31.43625 
" style="fill: none; stroke: #000000; stroke-width: 0.8; stroke-linejoin: miter; stroke-linecap: square"/>
   </g>
   <g id="patch_5">
    <path d="M 92.490625 308.63625 
L 650.490625 308.63625 
" style="fill: none; stroke: #000000; stroke-width: 0.8; stroke-linejoin: miter; stroke-linecap: square"/>
   </g>
   <g id="patch_6">
    <path d="M 92.490625 31.43625 
L 650.490625 31.43625 
" style="fill: none; stroke: #000000; stroke-width: 0.8; stroke-linejoin: miter; stroke-linecap: square"/>
   </g>
   <g id="text_15">
    <!-- Generator and Discriminator Loss During Training -->
    <g transform="translate(74.258125 25.43625) scale(0.24 -0.24)">
     <defs>
      <path id="DejaVuSans-47" d="M 3809 666 
L 3809 1919 
L 2778 1919 
L 2778 2438 
L 4434 2438 
L 4434 434 
Q 4069 175 3628 42 
Q 3188 -91 2688 -91 
Q 1594 -91 976 548 
Q 359 1188 359 2328 
Q 359 3472 976 4111 
Q 1594 4750 2688 4750 
Q 3144 4750 3555 4637 
Q 3966 4525 4313 4306 
L 4313 3634 
Q 3963 3931 3569 4081 
Q 3175 4231 2741 4231 
Q 1884 4231 1454 3753 
Q 1025 3275 1025 2328 
Q 1025 1384 1454 906 
Q 1884 428 2741 428 
Q 3075 428 3337 486 
Q 3600 544 3809 666 
z
" transform="scale(0.015625)"/>
      <path id="DejaVuSans-20" transform="scale(0.015625)"/>
      <path id="DejaVuSans-64" d="M 2906 2969 
L 2906 4863 
L 3481 4863 
L 3481 0 
L 2906 0 
L 2906 525 
Q 2725 213 2448 61 
Q 2172 -91 1784 -91 
Q 1150 -91 751 415 
Q 353 922 353 1747 
Q 353 2572 751 3078 
Q 1150 3584 1784 3584 
Q 2172 3584 2448 3432 
Q 2725 3281 2906 2969 
z
M 947 1747 
Q 947 1113 1208 752 
Q 1469 391 1925 391 
Q 2381 391 2643 752 
Q 2906 1113 2906 1747 
Q 2906 2381 2643 2742 
Q 2381 3103 1925 3103 
Q 1469 3103 1208 2742 
Q 947 2381 947 1747 
z
" transform="scale(0.015625)"/>
      <path id="DejaVuSans-44" d="M 1259 4147 
L 1259 519 
L 2022 519 
Q 2988 519 3436 956 
Q 3884 1394 3884 2338 
Q 3884 3275 3436 3711 
Q 2988 4147 2022 4147 
L 1259 4147 
z
M 628 4666 
L 1925 4666 
Q 3281 4666 3915 4102 
Q 4550 3538 4550 2338 
Q 4550 1131 3912 565 
Q 3275 0 1925 0 
L 628 0 
L 628 4666 
z
" transform="scale(0.015625)"/>
      <path id="DejaVuSans-63" d="M 3122 3366 
L 3122 2828 
Q 2878 2963 2633 3030 
Q 2388 3097 2138 3097 
Q 1578 3097 1268 2742 
Q 959 2388 959 1747 
Q 959 1106 1268 751 
Q 1578 397 2138 397 
Q 2388 397 2633 464 
Q 2878 531 3122 666 
L 3122 134 
Q 2881 22 2623 -34 
Q 2366 -91 2075 -91 
Q 1284 -91 818 406 
Q 353 903 353 1747 
Q 353 2603 823 3093 
Q 1294 3584 2113 3584 
Q 2378 3584 2631 3529 
Q 2884 3475 3122 3366 
z
" transform="scale(0.015625)"/>
      <path id="DejaVuSans-6d" d="M 3328 2828 
Q 3544 3216 3844 3400 
Q 4144 3584 4550 3584 
Q 5097 3584 5394 3201 
Q 5691 2819 5691 2113 
L 5691 0 
L 5113 0 
L 5113 2094 
Q 5113 2597 4934 2840 
Q 4756 3084 4391 3084 
Q 3944 3084 3684 2787 
Q 3425 2491 3425 1978 
L 3425 0 
L 2847 0 
L 2847 2094 
Q 2847 2600 2669 2842 
Q 2491 3084 2119 3084 
Q 1678 3084 1418 2786 
Q 1159 2488 1159 1978 
L 1159 0 
L 581 0 
L 581 3500 
L 1159 3500 
L 1159 2956 
Q 1356 3278 1631 3431 
Q 1906 3584 2284 3584 
Q 2666 3584 2933 3390 
Q 3200 3197 3328 2828 
z
" transform="scale(0.015625)"/>
      <path id="DejaVuSans-75" d="M 544 1381 
L 544 3500 
L 1119 3500 
L 1119 1403 
Q 1119 906 1312 657 
Q 1506 409 1894 409 
Q 2359 409 2629 706 
Q 2900 1003 2900 1516 
L 2900 3500 
L 3475 3500 
L 3475 0 
L 2900 0 
L 2900 538 
Q 2691 219 2414 64 
Q 2138 -91 1772 -91 
Q 1169 -91 856 284 
Q 544 659 544 1381 
z
M 1991 3584 
L 1991 3584 
z
" transform="scale(0.015625)"/>
      <path id="DejaVuSans-67" d="M 2906 1791 
Q 2906 2416 2648 2759 
Q 2391 3103 1925 3103 
Q 1463 3103 1205 2759 
Q 947 2416 947 1791 
Q 947 1169 1205 825 
Q 1463 481 1925 481 
Q 2391 481 2648 825 
Q 2906 1169 2906 1791 
z
M 3481 434 
Q 3481 -459 3084 -895 
Q 2688 -1331 1869 -1331 
Q 1566 -1331 1297 -1286 
Q 1028 -1241 775 -1147 
L 775 -588 
Q 1028 -725 1275 -790 
Q 1522 -856 1778 -856 
Q 2344 -856 2625 -561 
Q 2906 -266 2906 331 
L 2906 616 
Q 2728 306 2450 153 
Q 2172 0 1784 0 
Q 1141 0 747 490 
Q 353 981 353 1791 
Q 353 2603 747 3093 
Q 1141 3584 1784 3584 
Q 2172 3584 2450 3431 
Q 2728 3278 2906 2969 
L 2906 3500 
L 3481 3500 
L 3481 434 
z
" transform="scale(0.015625)"/>
      <path id="DejaVuSans-54" d="M -19 4666 
L 3928 4666 
L 3928 4134 
L 2272 4134 
L 2272 0 
L 1638 0 
L 1638 4134 
L -19 4134 
L -19 4666 
z
" transform="scale(0.015625)"/>
     </defs>
     <use xlink:href="#DejaVuSans-47"/>
     <use xlink:href="#DejaVuSans-65" x="77.490234"/>
     <use xlink:href="#DejaVuSans-6e" x="139.013672"/>
     <use xlink:href="#DejaVuSans-65" x="202.392578"/>
     <use xlink:href="#DejaVuSans-72" x="263.916016"/>
     <use xlink:href="#DejaVuSans-61" x="305.029297"/>
     <use xlink:href="#DejaVuSans-74" x="366.308594"/>
     <use xlink:href="#DejaVuSans-6f" x="405.517578"/>
     <use xlink:href="#DejaVuSans-72" x="466.699219"/>
     <use xlink:href="#DejaVuSans-20" x="507.8125"/>
     <use xlink:href="#DejaVuSans-61" x="539.599609"/>
     <use xlink:href="#DejaVuSans-6e" x="600.878906"/>
     <use xlink:href="#DejaVuSans-64" x="664.257812"/>
     <use xlink:href="#DejaVuSans-20" x="727.734375"/>
     <use xlink:href="#DejaVuSans-44" x="759.521484"/>
     <use xlink:href="#DejaVuSans-69" x="836.523438"/>
     <use xlink:href="#DejaVuSans-73" x="864.306641"/>
     <use xlink:href="#DejaVuSans-63" x="916.40625"/>
     <use xlink:href="#DejaVuSans-72" x="971.386719"/>
     <use xlink:href="#DejaVuSans-69" x="1012.5"/>
     <use xlink:href="#DejaVuSans-6d" x="1040.283203"/>
     <use xlink:href="#DejaVuSans-69" x="1137.695312"/>
     <use xlink:href="#DejaVuSans-6e" x="1165.478516"/>
     <use xlink:href="#DejaVuSans-61" x="1228.857422"/>
     <use xlink:href="#DejaVuSans-74" x="1290.136719"/>
     <use xlink:href="#DejaVuSans-6f" x="1329.345703"/>
     <use xlink:href="#DejaVuSans-72" x="1390.527344"/>
     <use xlink:href="#DejaVuSans-20" x="1431.640625"/>
     <use xlink:href="#DejaVuSans-4c" x="1463.427734"/>
     <use xlink:href="#DejaVuSans-6f" x="1517.390625"/>
     <use xlink:href="#DejaVuSans-73" x="1578.572266"/>
     <use xlink:href="#DejaVuSans-73" x="1630.671875"/>
     <use xlink:href="#DejaVuSans-20" x="1682.771484"/>
     <use xlink:href="#DejaVuSans-44" x="1714.558594"/>
     <use xlink:href="#DejaVuSans-75" x="1791.560547"/>
     <use xlink:href="#DejaVuSans-72" x="1854.939453"/>
     <use xlink:href="#DejaVuSans-69" x="1896.052734"/>
     <use xlink:href="#DejaVuSans-6e" x="1923.835938"/>
     <use xlink:href="#DejaVuSans-67" x="1987.214844"/>
     <use xlink:href="#DejaVuSans-20" x="2050.691406"/>
     <use xlink:href="#DejaVuSans-54" x="2082.478516"/>
     <use xlink:href="#DejaVuSans-72" x="2128.8125"/>
     <use xlink:href="#DejaVuSans-61" x="2169.925781"/>
     <use xlink:href="#DejaVuSans-69" x="2231.205078"/>
     <use xlink:href="#DejaVuSans-6e" x="2258.988281"/>
     <use xlink:href="#DejaVuSans-69" x="2322.367188"/>
     <use xlink:href="#DejaVuSans-6e" x="2350.150391"/>
     <use xlink:href="#DejaVuSans-67" x="2413.529297"/>
    </g>
   </g>
   <g id="legend_1">
    <g id="patch_7">
     <path d="M 556.99375 106.14875 
L 636.490625 106.14875 
Q 640.490625 106.14875 640.490625 102.14875 
L 640.490625 45.43625 
Q 640.490625 41.43625 636.490625 41.43625 
L 556.99375 41.43625 
Q 552.99375 41.43625 552.99375 45.43625 
L 552.99375 102.14875 
Q 552.99375 106.14875 556.99375 106.14875 
z
" style="fill: #ffffff; opacity: 0.8; stroke: #cccccc; stroke-linejoin: miter"/>
    </g>
    <g id="line2d_15">
     <path d="M 560.99375 57.633125 
L 580.99375 57.633125 
L 600.99375 57.633125 
" style="fill: none; stroke: #1f77b4; stroke-width: 1.5; stroke-linecap: square"/>
    </g>
    <g id="text_16">
     <!-- G -->
     <g transform="translate(616.99375 64.633125) scale(0.2 -0.2)">
      <use xlink:href="#DejaVuSans-47"/>
     </g>
    </g>
    <g id="line2d_16">
     <path d="M 560.99375 86.989375 
L 580.99375 86.989375 
L 600.99375 86.989375 
" style="fill: none; stroke: #ff7f0e; stroke-width: 1.5; stroke-linecap: square"/>
    </g>
    <g id="text_17">
     <!-- D -->
     <g transform="translate(616.99375 93.989375) scale(0.2 -0.2)">
      <use xlink:href="#DejaVuSans-44"/>
     </g>
    </g>
   </g>
  </g>
 </g>
 <defs>
  <clipPath id="p19d38471bd">
   <rect x="92.490625" y="31.43625" width="558" height="277.2"/>
  </clipPath>
 </defs>
</svg>
