<?xml version="1.0" encoding="utf-8" standalone="no"?>
<!DOCTYPE svg PUBLIC "-//W3C//DTD SVG 1.1//EN"
  "http://www.w3.org/Graphics/SVG/1.1/DTD/svg11.dtd">
<svg xmlns:xlink="http://www.w3.org/1999/xlink" width="675.923125pt" height="365.54875pt" viewBox="0 0 675.923125 365.54875" xmlns="http://www.w3.org/2000/svg" version="1.1">
 <metadata>
  <rdf:RDF xmlns:dc="http://purl.org/dc/elements/1.1/" xmlns:cc="http://creativecommons.org/ns#" xmlns:rdf="http://www.w3.org/1999/02/22-rdf-syntax-ns#">
   <cc:Work>
    <dc:type rdf:resource="http://purl.org/dc/dcmitype/StillImage"/>
    <dc:date>2024-02-01T21:19:49.759843</dc:date>
    <dc:format>image/svg+xml</dc:format>
    <dc:creator>
     <cc:Agent>
      <dc:title>Matplotlib v3.7.2, https://matplotlib.org/</dc:title>
     </cc:Agent>
    </dc:creator>
   </cc:Work>
  </rdf:RDF>
 </metadata>
 <defs>
  <style type="text/css">*{stroke-linejoin: round; stroke-linecap: butt}</style>
 </defs>
 <g id="figure_1">
  <g id="patch_1">
   <path d="M 0 365.54875 
L 675.923125 365.54875 
L 675.923125 -0 
L 0 -0 
z
" style="fill: #ffffff"/>
  </g>
  <g id="axes_1">
   <g id="patch_2">
    <path d="M 92.490625 308.63625 
L 650.490625 308.63625 
L 650.490625 31.43625 
L 92.490625 31.43625 
z
" style="fill: #ffffff"/>
   </g>
   <g id="matplotlib.axis_1">
    <g id="xtick_1">
     <g id="line2d_1">
      <defs>
       <path id="m9cbedf85d5" d="M 0 0 
L 0 3.5 
" style="stroke: #000000; stroke-width: 0.8"/>
      </defs>
      <g>
       <use xlink:href="#m9cbedf85d5" x="117.854261" y="308.63625" style="stroke: #000000; stroke-width: 0.8"/>
      </g>
     </g>
     <g id="text_1">
      <!-- 0 -->
      <g transform="translate(111.491761 330.833125) scale(0.2 -0.2)">
       <defs>
        <path id="DejaVuSans-30" d="M 2034 4250 
Q 1547 4250 1301 3770 
Q 1056 3291 1056 2328 
Q 1056 1369 1301 889 
Q 1547 409 2034 409 
Q 2525 409 2770 889 
Q 3016 1369 3016 2328 
Q 3016 3291 2770 3770 
Q 2525 4250 2034 4250 
z
M 2034 4750 
Q 2819 4750 3233 4129 
Q 3647 3509 3647 2328 
Q 3647 1150 3233 529 
Q 2819 -91 2034 -91 
Q 1250 -91 836 529 
Q 422 1150 422 2328 
Q 422 3509 836 4129 
Q 1250 4750 2034 4750 
z
" transform="scale(0.015625)"/>
       </defs>
       <use xlink:href="#DejaVuSans-30"/>
      </g>
     </g>
    </g>
    <g id="xtick_2">
     <g id="line2d_2">
      <g>
       <use xlink:href="#m9cbedf85d5" x="185.490625" y="308.63625" style="stroke: #000000; stroke-width: 0.8"/>
      </g>
     </g>
     <g id="text_2">
      <!-- 200 -->
      <g transform="translate(166.403125 330.833125) scale(0.2 -0.2)">
       <defs>
        <path id="DejaVuSans-32" d="M 1228 531 
L 3431 531 
L 3431 0 
L 469 0 
L 469 531 
Q 828 903 1448 1529 
Q 2069 2156 2228 2338 
Q 2531 2678 2651 2914 
Q 2772 3150 2772 3378 
Q 2772 3750 2511 3984 
Q 2250 4219 1831 4219 
Q 1534 4219 1204 4116 
Q 875 4013 500 3803 
L 500 4441 
Q 881 4594 1212 4672 
Q 1544 4750 1819 4750 
Q 2544 4750 2975 4387 
Q 3406 4025 3406 3419 
Q 3406 3131 3298 2873 
Q 3191 2616 2906 2266 
Q 2828 2175 2409 1742 
Q 1991 1309 1228 531 
z
" transform="scale(0.015625)"/>
       </defs>
       <use xlink:href="#DejaVuSans-32"/>
       <use xlink:href="#DejaVuSans-30" x="63.623047"/>
       <use xlink:href="#DejaVuSans-30" x="127.246094"/>
      </g>
     </g>
    </g>
    <g id="xtick_3">
     <g id="line2d_3">
      <g>
       <use xlink:href="#m9cbedf85d5" x="253.126989" y="308.63625" style="stroke: #000000; stroke-width: 0.8"/>
      </g>
     </g>
     <g id="text_3">
      <!-- 400 -->
      <g transform="translate(234.039489 330.833125) scale(0.2 -0.2)">
       <defs>
        <path id="DejaVuSans-34" d="M 2419 4116 
L 825 1625 
L 2419 1625 
L 2419 4116 
z
M 2253 4666 
L 3047 4666 
L 3047 1625 
L 3713 1625 
L 3713 1100 
L 3047 1100 
L 3047 0 
L 2419 0 
L 2419 1100 
L 313 1100 
L 313 1709 
L 2253 4666 
z
" transform="scale(0.015625)"/>
       </defs>
       <use xlink:href="#DejaVuSans-34"/>
       <use xlink:href="#DejaVuSans-30" x="63.623047"/>
       <use xlink:href="#DejaVuSans-30" x="127.246094"/>
      </g>
     </g>
    </g>
    <g id="xtick_4">
     <g id="line2d_4">
      <g>
       <use xlink:href="#m9cbedf85d5" x="320.763352" y="308.63625" style="stroke: #000000; stroke-width: 0.8"/>
      </g>
     </g>
     <g id="text_4">
      <!-- 600 -->
      <g transform="translate(301.675852 330.833125) scale(0.2 -0.2)">
       <defs>
        <path id="DejaVuSans-36" d="M 2113 2584 
Q 1688 2584 1439 2293 
Q 1191 2003 1191 1497 
Q 1191 994 1439 701 
Q 1688 409 2113 409 
Q 2538 409 2786 701 
Q 3034 994 3034 1497 
Q 3034 2003 2786 2293 
Q 2538 2584 2113 2584 
z
M 3366 4563 
L 3366 3988 
Q 3128 4100 2886 4159 
Q 2644 4219 2406 4219 
Q 1781 4219 1451 3797 
Q 1122 3375 1075 2522 
Q 1259 2794 1537 2939 
Q 1816 3084 2150 3084 
Q 2853 3084 3261 2657 
Q 3669 2231 3669 1497 
Q 3669 778 3244 343 
Q 2819 -91 2113 -91 
Q 1303 -91 875 529 
Q 447 1150 447 2328 
Q 447 3434 972 4092 
Q 1497 4750 2381 4750 
Q 2619 4750 2861 4703 
Q 3103 4656 3366 4563 
z
" transform="scale(0.015625)"/>
       </defs>
       <use xlink:href="#DejaVuSans-36"/>
       <use xlink:href="#DejaVuSans-30" x="63.623047"/>
       <use xlink:href="#DejaVuSans-30" x="127.246094"/>
      </g>
     </g>
    </g>
    <g id="xtick_5">
     <g id="line2d_5">
      <g>
       <use xlink:href="#m9cbedf85d5" x="388.399716" y="308.63625" style="stroke: #000000; stroke-width: 0.8"/>
      </g>
     </g>
     <g id="text_5">
      <!-- 800 -->
      <g transform="translate(369.312216 330.833125) scale(0.2 -0.2)">
       <defs>
        <path id="DejaVuSans-38" d="M 2034 2216 
Q 1584 2216 1326 1975 
Q 1069 1734 1069 1313 
Q 1069 891 1326 650 
Q 1584 409 2034 409 
Q 2484 409 2743 651 
Q 3003 894 3003 1313 
Q 3003 1734 2745 1975 
Q 2488 2216 2034 2216 
z
M 1403 2484 
Q 997 2584 770 2862 
Q 544 3141 544 3541 
Q 544 4100 942 4425 
Q 1341 4750 2034 4750 
Q 2731 4750 3128 4425 
Q 3525 4100 3525 3541 
Q 3525 3141 3298 2862 
Q 3072 2584 2669 2484 
Q 3125 2378 3379 2068 
Q 3634 1759 3634 1313 
Q 3634 634 3220 271 
Q 2806 -91 2034 -91 
Q 1263 -91 848 271 
Q 434 634 434 1313 
Q 434 1759 690 2068 
Q 947 2378 1403 2484 
z
M 1172 3481 
Q 1172 3119 1398 2916 
Q 1625 2713 2034 2713 
Q 2441 2713 2670 2916 
Q 2900 3119 2900 3481 
Q 2900 3844 2670 4047 
Q 2441 4250 2034 4250 
Q 1625 4250 1398 4047 
Q 1172 3844 1172 3481 
z
" transform="scale(0.015625)"/>
       </defs>
       <use xlink:href="#DejaVuSans-38"/>
       <use xlink:href="#DejaVuSans-30" x="63.623047"/>
       <use xlink:href="#DejaVuSans-30" x="127.246094"/>
      </g>
     </g>
    </g>
    <g id="xtick_6">
     <g id="line2d_6">
      <g>
       <use xlink:href="#m9cbedf85d5" x="456.03608" y="308.63625" style="stroke: #000000; stroke-width: 0.8"/>
      </g>
     </g>
     <g id="text_6">
      <!-- 1000 -->
      <g transform="translate(430.58608 330.833125) scale(0.2 -0.2)">
       <defs>
        <path id="DejaVuSans-31" d="M 794 531 
L 1825 531 
L 1825 4091 
L 703 3866 
L 703 4441 
L 1819 4666 
L 2450 4666 
L 2450 531 
L 3481 531 
L 3481 0 
L 794 0 
L 794 531 
z
" transform="scale(0.015625)"/>
       </defs>
       <use xlink:href="#DejaVuSans-31"/>
       <use xlink:href="#DejaVuSans-30" x="63.623047"/>
       <use xlink:href="#DejaVuSans-30" x="127.246094"/>
       <use xlink:href="#DejaVuSans-30" x="190.869141"/>
      </g>
     </g>
    </g>
    <g id="xtick_7">
     <g id="line2d_7">
      <g>
       <use xlink:href="#m9cbedf85d5" x="523.672443" y="308.63625" style="stroke: #000000; stroke-width: 0.8"/>
      </g>
     </g>
     <g id="text_7">
      <!-- 1200 -->
      <g transform="translate(498.222443 330.833125) scale(0.2 -0.2)">
       <use xlink:href="#DejaVuSans-31"/>
       <use xlink:href="#DejaVuSans-32" x="63.623047"/>
       <use xlink:href="#DejaVuSans-30" x="127.246094"/>
       <use xlink:href="#DejaVuSans-30" x="190.869141"/>
      </g>
     </g>
    </g>
    <g id="xtick_8">
     <g id="line2d_8">
      <g>
       <use xlink:href="#m9cbedf85d5" x="591.308807" y="308.63625" style="stroke: #000000; stroke-width: 0.8"/>
      </g>
     </g>
     <g id="text_8">
      <!-- 1400 -->
      <g transform="translate(565.858807 330.833125) scale(0.2 -0.2)">
       <use xlink:href="#DejaVuSans-31"/>
       <use xlink:href="#DejaVuSans-34" x="63.623047"/>
       <use xlink:href="#DejaVuSans-30" x="127.246094"/>
       <use xlink:href="#DejaVuSans-30" x="190.869141"/>
      </g>
     </g>
    </g>
    <g id="text_9">
     <!-- iterations -->
     <g transform="translate(324.035938 354.189375) scale(0.2 -0.2)">
      <defs>
       <path id="DejaVuSans-69" d="M 603 3500 
L 1178 3500 
L 1178 0 
L 603 0 
L 603 3500 
z
M 603 4863 
L 1178 4863 
L 1178 4134 
L 603 4134 
L 603 4863 
z
" transform="scale(0.015625)"/>
       <path id="DejaVuSans-74" d="M 1172 4494 
L 1172 3500 
L 2356 3500 
L 2356 3053 
L 1172 3053 
L 1172 1153 
Q 1172 725 1289 603 
Q 1406 481 1766 481 
L 2356 481 
L 2356 0 
L 1766 0 
Q 1100 0 847 248 
Q 594 497 594 1153 
L 594 3053 
L 172 3053 
L 172 3500 
L 594 3500 
L 594 4494 
L 1172 4494 
z
" transform="scale(0.015625)"/>
       <path id="DejaVuSans-65" d="M 3597 1894 
L 3597 1613 
L 953 1613 
Q 991 1019 1311 708 
Q 1631 397 2203 397 
Q 2534 397 2845 478 
Q 3156 559 3463 722 
L 3463 178 
Q 3153 47 2828 -22 
Q 2503 -91 2169 -91 
Q 1331 -91 842 396 
Q 353 884 353 1716 
Q 353 2575 817 3079 
Q 1281 3584 2069 3584 
Q 2775 3584 3186 3129 
Q 3597 2675 3597 1894 
z
M 3022 2063 
Q 3016 2534 2758 2815 
Q 2500 3097 2075 3097 
Q 1594 3097 1305 2825 
Q 1016 2553 972 2059 
L 3022 2063 
z
" transform="scale(0.015625)"/>
       <path id="DejaVuSans-72" d="M 2631 2963 
Q 2534 3019 2420 3045 
Q 2306 3072 2169 3072 
Q 1681 3072 1420 2755 
Q 1159 2438 1159 1844 
L 1159 0 
L 581 0 
L 581 3500 
L 1159 3500 
L 1159 2956 
Q 1341 3275 1631 3429 
Q 1922 3584 2338 3584 
Q 2397 3584 2469 3576 
Q 2541 3569 2628 3553 
L 2631 2963 
z
" transform="scale(0.015625)"/>
       <path id="DejaVuSans-61" d="M 2194 1759 
Q 1497 1759 1228 1600 
Q 959 1441 959 1056 
Q 959 750 1161 570 
Q 1363 391 1709 391 
Q 2188 391 2477 730 
Q 2766 1069 2766 1631 
L 2766 1759 
L 2194 1759 
z
M 3341 1997 
L 3341 0 
L 2766 0 
L 2766 531 
Q 2569 213 2275 61 
Q 1981 -91 1556 -91 
Q 1019 -91 701 211 
Q 384 513 384 1019 
Q 384 1609 779 1909 
Q 1175 2209 1959 2209 
L 2766 2209 
L 2766 2266 
Q 2766 2663 2505 2880 
Q 2244 3097 1772 3097 
Q 1472 3097 1187 3025 
Q 903 2953 641 2809 
L 641 3341 
Q 956 3463 1253 3523 
Q 1550 3584 1831 3584 
Q 2591 3584 2966 3190 
Q 3341 2797 3341 1997 
z
" transform="scale(0.015625)"/>
       <path id="DejaVuSans-6f" d="M 1959 3097 
Q 1497 3097 1228 2736 
Q 959 2375 959 1747 
Q 959 1119 1226 758 
Q 1494 397 1959 397 
Q 2419 397 2687 759 
Q 2956 1122 2956 1747 
Q 2956 2369 2687 2733 
Q 2419 3097 1959 3097 
z
M 1959 3584 
Q 2709 3584 3137 3096 
Q 3566 2609 3566 1747 
Q 3566 888 3137 398 
Q 2709 -91 1959 -91 
Q 1206 -91 779 398 
Q 353 888 353 1747 
Q 353 2609 779 3096 
Q 1206 3584 1959 3584 
z
" transform="scale(0.015625)"/>
       <path id="DejaVuSans-6e" d="M 3513 2113 
L 3513 0 
L 2938 0 
L 2938 2094 
Q 2938 2591 2744 2837 
Q 2550 3084 2163 3084 
Q 1697 3084 1428 2787 
Q 1159 2491 1159 1978 
L 1159 0 
L 581 0 
L 581 3500 
L 1159 3500 
L 1159 2956 
Q 1366 3272 1645 3428 
Q 1925 3584 2291 3584 
Q 2894 3584 3203 3211 
Q 3513 2838 3513 2113 
z
" transform="scale(0.015625)"/>
       <path id="DejaVuSans-73" d="M 2834 3397 
L 2834 2853 
Q 2591 2978 2328 3040 
Q 2066 3103 1784 3103 
Q 1356 3103 1142 2972 
Q 928 2841 928 2578 
Q 928 2378 1081 2264 
Q 1234 2150 1697 2047 
L 1894 2003 
Q 2506 1872 2764 1633 
Q 3022 1394 3022 966 
Q 3022 478 2636 193 
Q 2250 -91 1575 -91 
Q 1294 -91 989 -36 
Q 684 19 347 128 
L 347 722 
Q 666 556 975 473 
Q 1284 391 1588 391 
Q 1994 391 2212 530 
Q 2431 669 2431 922 
Q 2431 1156 2273 1281 
Q 2116 1406 1581 1522 
L 1381 1569 
Q 847 1681 609 1914 
Q 372 2147 372 2553 
Q 372 3047 722 3315 
Q 1072 3584 1716 3584 
Q 2034 3584 2315 3537 
Q 2597 3491 2834 3397 
z
" transform="scale(0.015625)"/>
      </defs>
      <use xlink:href="#DejaVuSans-69"/>
      <use xlink:href="#DejaVuSans-74" x="27.783203"/>
      <use xlink:href="#DejaVuSans-65" x="66.992188"/>
      <use xlink:href="#DejaVuSans-72" x="128.515625"/>
      <use xlink:href="#DejaVuSans-61" x="169.628906"/>
      <use xlink:href="#DejaVuSans-74" x="230.908203"/>
      <use xlink:href="#DejaVuSans-69" x="270.117188"/>
      <use xlink:href="#DejaVuSans-6f" x="297.900391"/>
      <use xlink:href="#DejaVuSans-6e" x="359.082031"/>
      <use xlink:href="#DejaVuSans-73" x="422.460938"/>
     </g>
    </g>
   </g>
   <g id="matplotlib.axis_2">
    <g id="ytick_1">
     <g id="line2d_9">
      <defs>
       <path id="m288d9abfe1" d="M 0 0 
L -3.5 0 
" style="stroke: #000000; stroke-width: 0.8"/>
      </defs>
      <g>
       <use xlink:href="#m288d9abfe1" x="92.490625" y="234.626549" style="stroke: #000000; stroke-width: 0.8"/>
      </g>
     </g>
     <g id="text_10">
      <!-- −200 -->
      <g transform="translate(30.55625 242.224987) scale(0.2 -0.2)">
       <defs>
        <path id="DejaVuSans-2212" d="M 678 2272 
L 4684 2272 
L 4684 1741 
L 678 1741 
L 678 2272 
z
" transform="scale(0.015625)"/>
       </defs>
       <use xlink:href="#DejaVuSans-2212"/>
       <use xlink:href="#DejaVuSans-32" x="83.789062"/>
       <use xlink:href="#DejaVuSans-30" x="147.412109"/>
       <use xlink:href="#DejaVuSans-30" x="211.035156"/>
      </g>
     </g>
    </g>
    <g id="ytick_2">
     <g id="line2d_10">
      <g>
       <use xlink:href="#m288d9abfe1" x="92.490625" y="151.376755" style="stroke: #000000; stroke-width: 0.8"/>
      </g>
     </g>
     <g id="text_11">
      <!-- 0 -->
      <g transform="translate(72.765625 158.975193) scale(0.2 -0.2)">
       <use xlink:href="#DejaVuSans-30"/>
      </g>
     </g>
    </g>
    <g id="ytick_3">
     <g id="line2d_11">
      <g>
       <use xlink:href="#m288d9abfe1" x="92.490625" y="68.126962" style="stroke: #000000; stroke-width: 0.8"/>
      </g>
     </g>
     <g id="text_12">
      <!-- 200 -->
      <g transform="translate(47.315625 75.725399) scale(0.2 -0.2)">
       <use xlink:href="#DejaVuSans-32"/>
       <use xlink:href="#DejaVuSans-30" x="63.623047"/>
       <use xlink:href="#DejaVuSans-30" x="127.246094"/>
      </g>
     </g>
    </g>
    <g id="text_13">
     <!-- Loss -->
     <g transform="translate(22.396875 191.970625) rotate(-90) scale(0.2 -0.2)">
      <defs>
       <path id="DejaVuSans-4c" d="M 628 4666 
L 1259 4666 
L 1259 531 
L 3531 531 
L 3531 0 
L 628 0 
L 628 4666 
z
" transform="scale(0.015625)"/>
      </defs>
      <use xlink:href="#DejaVuSans-4c"/>
      <use xlink:href="#DejaVuSans-6f" x="53.962891"/>
      <use xlink:href="#DejaVuSans-73" x="115.144531"/>
      <use xlink:href="#DejaVuSans-73" x="167.244141"/>
     </g>
    </g>
   </g>
   <g id="line2d_12">
    <path d="M 117.854261 114.726306 
L 118.192443 106.081918 
L 118.530625 66.645135 
L 118.868807 44.03625 
L 119.206989 55.607746 
L 119.54517 116.630126 
L 119.883352 138.664661 
L 120.221534 137.321124 
L 120.559716 122.741893 
L 120.897898 120.788415 
L 121.23608 127.999278 
L 121.574261 122.989826 
L 121.912443 108.458537 
L 122.250625 122.646974 
L 122.588807 126.556792 
L 122.926989 123.898785 
L 123.26517 120.201515 
L 123.603352 126.255443 
L 123.941534 122.797609 
L 124.279716 127.006439 
L 124.617898 118.64052 
L 124.95608 124.366742 
L 125.294261 117.662909 
L 125.632443 117.330772 
L 125.970625 114.695364 
L 126.308807 107.764658 
L 126.646989 108.435758 
L 126.98517 107.051208 
L 127.323352 106.219874 
L 127.661534 110.116506 
L 128.337898 103.735206 
L 128.67608 107.114803 
L 129.014261 106.33327 
L 129.352443 103.507469 
L 129.690625 108.842958 
L 130.028807 102.920055 
L 130.366989 108.429686 
L 130.70517 110.936486 
L 131.043352 110.869457 
L 131.381534 106.939005 
L 131.719716 105.409875 
L 132.057898 110.445841 
L 132.39608 111.131011 
L 132.734261 113.912796 
L 133.072443 112.411065 
L 133.410625 111.591078 
L 133.748807 112.594274 
L 134.086989 115.130586 
L 134.42517 112.662515 
L 134.763352 111.560611 
L 135.101534 112.925905 
L 135.439716 108.346789 
L 135.777898 112.549272 
L 136.11608 114.58122 
L 136.454261 115.179402 
L 136.792443 119.262292 
L 137.130625 117.014571 
L 137.468807 116.380063 
L 137.806989 120.267786 
L 138.14517 120.37667 
L 138.483352 120.879402 
L 138.821534 120.548412 
L 139.159716 123.597646 
L 139.497898 123.431828 
L 139.83608 121.429234 
L 140.174261 122.560572 
L 140.512443 119.85272 
L 140.850625 118.694633 
L 141.526989 118.68102 
L 141.86517 118.119314 
L 142.203352 121.17012 
L 142.879716 116.7473 
L 143.217898 113.297092 
L 143.55608 118.688744 
L 143.894261 120.343387 
L 144.232443 123.308616 
L 144.908807 118.109455 
L 145.58517 123.245243 
L 146.261534 118.407012 
L 146.937898 122.653338 
L 147.27608 123.836576 
L 147.614261 125.744796 
L 147.952443 123.447651 
L 148.290625 128.318527 
L 148.628807 129.080516 
L 148.966989 128.830815 
L 149.30517 128.20745 
L 149.643352 128.76154 
L 149.981534 132.053196 
L 150.319716 133.596636 
L 150.657898 133.934515 
L 150.99608 135.141517 
L 151.334261 135.137063 
L 151.672443 134.780402 
L 152.010625 135.202134 
L 152.348807 135.093015 
L 152.686989 136.905242 
L 153.363352 142.399589 
L 153.701534 142.128559 
L 154.039716 142.779249 
L 154.377898 139.598641 
L 154.71608 140.408307 
L 155.054261 138.506123 
L 155.392443 139.937779 
L 156.74517 135.089312 
L 157.083352 138.125691 
L 157.421534 137.931203 
L 157.759716 136.48173 
L 158.097898 135.887461 
L 158.774261 133.177328 
L 159.112443 135.336782 
L 159.450625 134.894951 
L 159.788807 135.405771 
L 160.126989 135.395858 
L 160.46517 136.106534 
L 160.803352 138.160945 
L 161.479716 138.778501 
L 161.817898 139.328544 
L 162.15608 137.455284 
L 162.494261 138.146409 
L 162.832443 139.584531 
L 163.170625 139.54211 
L 163.508807 140.772087 
L 163.846989 139.328314 
L 164.18517 141.270704 
L 164.861534 138.38691 
L 165.199716 138.267975 
L 165.537898 138.407029 
L 165.87608 138.064147 
L 166.214261 136.366411 
L 166.552443 136.725459 
L 166.890625 137.7051 
L 167.228807 136.859223 
L 167.566989 139.049001 
L 167.90517 137.336016 
L 168.243352 137.257625 
L 168.581534 138.794003 
L 168.919716 138.317046 
L 169.257898 138.127537 
L 169.59608 137.085883 
L 169.934261 140.357201 
L 170.272443 142.188057 
L 170.610625 140.211719 
L 170.948807 141.214973 
L 171.286989 140.469004 
L 171.62517 140.399257 
L 171.963352 137.341402 
L 172.301534 136.956775 
L 172.639716 138.004539 
L 172.977898 141.917493 
L 173.31608 141.394417 
L 173.654261 139.770456 
L 173.992443 138.757231 
L 174.330625 139.627896 
L 175.006989 142.544043 
L 175.34517 142.319792 
L 175.683352 139.759331 
L 176.021534 140.416344 
L 176.359716 141.45395 
L 176.697898 141.363625 
L 177.03608 140.978604 
L 177.374261 142.910652 
L 177.712443 142.90158 
L 178.050625 144.549058 
L 178.388807 145.17122 
L 178.726989 145.44887 
L 179.06517 144.416339 
L 179.403352 144.947962 
L 179.741534 143.814591 
L 180.079716 145.207917 
L 180.417898 145.528567 
L 180.75608 144.861957 
L 181.094261 145.227471 
L 181.432443 144.527959 
L 181.770625 145.046411 
L 182.108807 146.68308 
L 182.446989 147.135187 
L 183.123352 143.988933 
L 183.461534 145.81337 
L 183.799716 144.652605 
L 184.137898 145.491722 
L 184.47608 145.544312 
L 184.814261 146.479505 
L 185.152443 145.926367 
L 185.490625 146.569906 
L 185.828807 146.635087 
L 186.166989 145.762171 
L 186.50517 146.892018 
L 186.843352 148.983063 
L 187.181534 148.879743 
L 187.519716 147.783513 
L 187.857898 148.254067 
L 188.19608 147.888736 
L 188.534261 146.84581 
L 188.872443 146.202176 
L 189.210625 146.837467 
L 189.548807 146.997663 
L 190.22517 146.666794 
L 190.901534 146.848622 
L 191.239716 146.639285 
L 191.577898 145.433562 
L 191.91608 146.697151 
L 192.254261 146.488051 
L 192.592443 148.265055 
L 192.930625 147.613654 
L 193.268807 147.710403 
L 193.606989 147.419561 
L 193.94517 147.740517 
L 194.283352 146.590609 
L 194.959716 147.987777 
L 195.63608 148.092569 
L 195.974261 147.626153 
L 196.312443 148.346627 
L 196.650625 147.834075 
L 196.988807 146.928657 
L 197.326989 148.067958 
L 197.66517 147.258653 
L 198.003352 148.865305 
L 198.341534 148.410553 
L 198.679716 148.967358 
L 199.017898 149.221557 
L 199.35608 149.822095 
L 199.694261 148.406232 
L 200.032443 148.806973 
L 200.370625 148.539764 
L 200.708807 149.07262 
L 201.046989 148.908721 
L 201.38517 148.61838 
L 202.061534 149.440954 
L 202.399716 149.36957 
L 202.737898 150.013568 
L 203.07608 149.776241 
L 203.414261 150.325511 
L 203.752443 149.880589 
L 204.090625 151.162299 
L 204.428807 149.985682 
L 204.766989 151.13516 
L 205.10517 149.965057 
L 205.781534 149.636812 
L 206.119716 150.277934 
L 206.457898 150.130294 
L 206.79608 149.369379 
L 207.134261 148.998461 
L 207.810625 149.411097 
L 208.148807 150.464825 
L 208.486989 150.199464 
L 208.82517 150.562235 
L 209.163352 150.590935 
L 209.501534 151.04972 
L 209.839716 151.841912 
L 210.51608 151.175547 
L 210.854261 152.473986 
L 211.192443 151.552817 
L 211.530625 151.225341 
L 211.868807 151.595681 
L 212.206989 152.660834 
L 212.54517 151.773162 
L 212.883352 152.094372 
L 213.221534 152.17824 
L 213.559716 151.68895 
L 214.574261 152.286212 
L 214.912443 152.200918 
L 215.250625 152.280159 
L 215.588807 151.754625 
L 215.926989 152.272882 
L 216.603352 151.842046 
L 216.941534 152.141914 
L 217.279716 152.770268 
L 217.617898 152.207484 
L 217.95608 152.377094 
L 218.294261 152.188492 
L 218.632443 152.676249 
L 218.970625 151.731846 
L 219.646989 151.345152 
L 219.98517 152.186997 
L 220.323352 152.122104 
L 220.661534 151.359375 
L 220.999716 151.397048 
L 221.337898 151.085501 
L 222.014261 152.610465 
L 222.690625 151.755312 
L 223.028807 151.745505 
L 223.366989 151.555412 
L 223.70517 151.233799 
L 224.381534 151.617299 
L 224.719716 151.69156 
L 225.057898 151.931251 
L 225.39608 150.713665 
L 225.734261 151.562487 
L 226.072443 151.106358 
L 226.748807 150.617443 
L 227.086989 151.580261 
L 227.42517 151.282821 
L 227.763352 151.651857 
L 228.101534 151.11709 
L 228.439716 151.018062 
L 228.777898 149.816142 
L 229.11608 150.538729 
L 229.454261 151.54643 
L 229.792443 151.134366 
L 230.130625 150.083957 
L 230.468807 149.856048 
L 230.806989 150.084806 
L 231.483352 150.905625 
L 232.159716 150.592418 
L 232.497898 150.540132 
L 232.83608 150.835766 
L 233.174261 149.605204 
L 233.512443 150.155542 
L 233.850625 148.359728 
L 234.188807 149.069275 
L 234.526989 149.470042 
L 234.86517 148.774616 
L 235.203352 149.156396 
L 235.541534 149.200486 
L 235.879716 148.372847 
L 236.217898 148.781279 
L 236.55608 148.915586 
L 236.894261 148.736299 
L 237.232443 148.278376 
L 237.570625 150.048145 
L 237.908807 149.794805 
L 238.58517 147.006615 
L 238.923352 149.701961 
L 239.261534 148.584931 
L 239.599716 150.113674 
L 239.937898 149.148353 
L 240.27608 149.050289 
L 240.614261 149.482133 
L 240.952443 149.221502 
L 241.628807 149.716106 
L 242.30517 149.448828 
L 242.643352 148.575808 
L 243.319716 149.033621 
L 243.657898 149.043221 
L 243.99608 148.766445 
L 244.334261 150.10204 
L 244.672443 149.976308 
L 245.010625 149.01284 
L 245.686989 150.415562 
L 246.02517 150.191345 
L 246.363352 149.765998 
L 247.039716 151.094122 
L 247.377898 150.749297 
L 247.71608 150.748543 
L 248.054261 150.552951 
L 248.392443 150.811243 
L 248.730625 150.267491 
L 249.068807 150.78941 
L 249.406989 151.586957 
L 249.74517 150.325004 
L 250.083352 151.032796 
L 250.421534 150.88367 
L 250.759716 150.884052 
L 251.097898 151.261011 
L 251.43608 150.707683 
L 251.774261 150.648162 
L 252.112443 149.982535 
L 252.450625 150.220711 
L 252.788807 150.660541 
L 253.126989 150.245039 
L 253.46517 151.090624 
L 253.803352 151.255264 
L 254.141534 150.92556 
L 254.479716 151.095426 
L 254.817898 151.622911 
L 255.15608 151.330097 
L 255.494261 151.27642 
L 255.832443 151.926709 
L 256.170625 151.644614 
L 256.508807 151.748004 
L 256.846989 151.589741 
L 257.18517 151.096936 
L 257.523352 151.232504 
L 257.861534 152.274212 
L 258.199716 151.431557 
L 258.537898 152.15493 
L 258.87608 150.750337 
L 259.214261 151.642762 
L 259.552443 152.003527 
L 259.890625 151.370928 
L 260.228807 151.81159 
L 261.243352 152.347011 
L 261.581534 152.287551 
L 261.919716 152.792889 
L 262.257898 152.330353 
L 262.59608 152.840892 
L 262.934261 152.952117 
L 263.272443 152.415944 
L 263.610625 152.560223 
L 263.948807 151.791173 
L 264.286989 151.744005 
L 264.62517 151.92552 
L 264.963352 151.236089 
L 265.301534 151.001596 
L 265.639716 152.275131 
L 265.977898 151.230055 
L 266.992443 152.57704 
L 267.330625 152.080164 
L 267.668807 151.791563 
L 268.006989 152.511252 
L 268.34517 151.929362 
L 268.683352 152.536765 
L 269.021534 151.959364 
L 269.359716 152.067056 
L 269.697898 152.043511 
L 270.374261 152.304802 
L 270.712443 151.700389 
L 271.050625 151.420254 
L 271.388807 151.287794 
L 272.06517 152.210526 
L 272.403352 152.047336 
L 272.741534 152.215515 
L 273.079716 151.418016 
L 273.417898 151.783619 
L 274.094261 151.755368 
L 274.432443 152.372138 
L 275.108807 152.398249 
L 275.446989 152.2066 
L 275.78517 152.143606 
L 276.123352 152.661245 
L 276.461534 152.418168 
L 276.799716 151.076607 
L 277.137898 152.230132 
L 277.47608 152.254543 
L 277.814261 152.085501 
L 278.152443 152.097016 
L 278.828807 151.575627 
L 279.50517 151.848856 
L 279.843352 151.953318 
L 280.181534 152.623378 
L 280.857898 151.842257 
L 281.19608 152.267785 
L 281.872443 152.143958 
L 282.210625 150.987889 
L 282.886989 151.975647 
L 283.22517 151.998391 
L 283.563352 151.335571 
L 283.901534 151.682935 
L 284.239716 152.632733 
L 284.577898 152.19404 
L 285.592443 151.946123 
L 285.930625 152.200519 
L 286.268807 152.193347 
L 286.606989 151.984494 
L 287.283352 152.365496 
L 287.621534 152.266247 
L 287.959716 151.934436 
L 288.297898 152.40168 
L 288.63608 152.065543 
L 288.974261 151.446763 
L 289.312443 151.828722 
L 289.650625 151.947018 
L 289.988807 152.448695 
L 290.326989 151.844327 
L 290.66517 151.506004 
L 291.003352 151.857779 
L 291.341534 151.871857 
L 291.679716 151.079205 
L 292.017898 151.507201 
L 292.35608 151.45044 
L 292.694261 151.647678 
L 293.032443 151.448021 
L 293.370625 151.495779 
L 293.708807 150.817983 
L 294.046989 151.706664 
L 294.38517 151.308106 
L 294.723352 151.276547 
L 295.061534 151.5955 
L 295.399716 151.62933 
L 295.737898 151.070949 
L 296.07608 151.645706 
L 296.414261 151.69572 
L 297.090625 151.149644 
L 297.428807 151.458323 
L 297.766989 151.46821 
L 298.10517 152.024571 
L 298.443352 152.047261 
L 298.781534 151.13832 
L 299.119716 151.604247 
L 299.457898 151.562435 
L 299.79608 151.300639 
L 300.134261 151.701181 
L 300.472443 151.454309 
L 300.810625 151.537243 
L 301.148807 151.037532 
L 301.486989 151.344607 
L 301.82517 151.194195 
L 302.163352 151.298938 
L 302.839716 151.177206 
L 303.177898 151.24606 
L 303.854261 151.801094 
L 304.192443 151.715007 
L 304.530625 151.495821 
L 304.868807 151.575049 
L 305.206989 152.208455 
L 305.54517 151.707065 
L 305.883352 151.726826 
L 306.221534 151.988182 
L 306.559716 152.692704 
L 306.897898 152.089559 
L 307.574261 152.427433 
L 307.912443 152.218327 
L 308.250625 152.372906 
L 308.588807 152.029724 
L 308.926989 152.286971 
L 309.26517 151.970467 
L 309.603352 152.555662 
L 309.941534 152.245332 
L 310.617898 152.541199 
L 310.95608 151.979995 
L 311.294261 152.520662 
L 311.632443 152.584042 
L 311.970625 152.14573 
L 312.308807 152.190755 
L 312.646989 151.690852 
L 312.98517 152.114592 
L 313.323352 152.29273 
L 313.999716 152.107116 
L 314.337898 152.648587 
L 314.67608 152.284687 
L 315.352443 152.570828 
L 315.690625 151.94545 
L 316.028807 152.373726 
L 316.70517 152.544228 
L 317.043352 152.822214 
L 317.381534 152.360177 
L 317.719716 152.090089 
L 318.057898 152.535167 
L 318.734261 152.221624 
L 319.072443 152.436898 
L 319.410625 152.35947 
L 320.086989 152.520215 
L 320.42517 153.016444 
L 320.763352 151.731253 
L 321.101534 152.950878 
L 321.439716 152.456644 
L 322.11608 152.995511 
L 322.454261 152.141711 
L 322.792443 152.638712 
L 323.130625 152.800987 
L 323.806989 152.785811 
L 324.14517 152.008473 
L 324.483352 152.737062 
L 324.821534 152.400565 
L 325.159716 152.305675 
L 325.497898 151.975513 
L 325.83608 152.573437 
L 326.174261 151.750127 
L 326.512443 152.303332 
L 326.850625 148.524838 
L 327.188807 151.957175 
L 327.526989 151.768497 
L 327.86517 151.228879 
L 328.203352 149.876511 
L 328.541534 150.908245 
L 328.879716 150.634714 
L 329.217898 150.781189 
L 329.55608 151.133643 
L 329.894261 150.985306 
L 330.232443 151.421726 
L 330.570625 151.07346 
L 331.246989 151.445347 
L 331.58517 151.544725 
L 331.923352 151.284326 
L 332.261534 151.233488 
L 332.599716 151.776222 
L 332.937898 152.068305 
L 333.27608 151.888559 
L 333.614261 152.299186 
L 333.952443 152.396925 
L 334.290625 152.804566 
L 334.628807 151.928435 
L 335.30517 151.75361 
L 335.643352 152.006023 
L 335.981534 152.058703 
L 336.319716 151.994579 
L 336.657898 151.590229 
L 337.334261 151.647107 
L 337.672443 151.896192 
L 338.010625 151.728772 
L 338.686989 151.971596 
L 339.02517 151.477873 
L 339.701534 152.194692 
L 340.71608 152.161486 
L 341.054261 151.747277 
L 341.392443 151.809392 
L 341.730625 152.215417 
L 342.068807 152.396104 
L 342.406989 152.099389 
L 342.74517 152.378092 
L 343.759716 152.240698 
L 344.097898 151.902568 
L 344.43608 152.467766 
L 344.774261 152.124655 
L 345.112443 152.70934 
L 345.450625 152.230334 
L 345.788807 152.155856 
L 346.126989 152.355853 
L 346.46517 152.094614 
L 346.803352 152.597834 
L 347.141534 152.284626 
L 347.479716 151.680398 
L 347.817898 152.298811 
L 348.15608 152.390976 
L 348.494261 152.345511 
L 348.832443 151.894844 
L 349.170625 151.847075 
L 349.508807 152.100982 
L 349.846989 151.939378 
L 350.18517 152.30459 
L 350.861534 152.323955 
L 351.199716 151.872378 
L 351.537898 152.179649 
L 351.87608 152.235323 
L 352.214261 151.742924 
L 352.552443 151.994381 
L 352.890625 151.714282 
L 353.228807 152.59086 
L 353.566989 152.371201 
L 353.90517 152.410087 
L 354.243352 151.979833 
L 354.581534 152.13412 
L 355.257898 151.953103 
L 355.59608 152.663517 
L 355.934261 152.850887 
L 356.272443 152.335265 
L 356.610625 152.093904 
L 356.948807 152.09731 
L 357.286989 151.861739 
L 357.62517 152.22775 
L 357.963352 152.143963 
L 358.301534 151.920261 
L 358.639716 152.292448 
L 359.31608 151.608838 
L 359.654261 151.884717 
L 359.992443 151.948034 
L 360.668807 151.885639 
L 361.006989 151.98697 
L 361.34517 151.792668 
L 361.683352 151.911078 
L 362.021534 151.859503 
L 362.697898 151.98688 
L 363.03608 152.018334 
L 363.374261 152.415296 
L 364.050625 151.914235 
L 364.388807 151.89707 
L 365.06517 152.22128 
L 366.417898 151.399755 
L 366.75608 152.082493 
L 367.094261 151.858426 
L 367.432443 151.14337 
L 367.770625 151.339535 
L 368.108807 151.059344 
L 368.446989 151.37599 
L 369.461534 151.377481 
L 369.799716 151.680836 
L 370.47608 151.543694 
L 370.814261 150.926786 
L 371.490625 151.767019 
L 371.828807 151.616761 
L 372.166989 151.706296 
L 372.50517 151.076738 
L 372.843352 151.587845 
L 373.181534 151.442994 
L 373.519716 151.430316 
L 373.857898 151.547727 
L 374.19608 151.213943 
L 374.534261 151.582079 
L 374.872443 151.353998 
L 375.548807 151.507801 
L 376.22517 151.177908 
L 376.563352 151.384978 
L 377.577898 151.092115 
L 377.91608 151.176657 
L 378.254261 151.640328 
L 378.930625 151.604892 
L 379.268807 151.570655 
L 379.606989 151.945732 
L 380.283352 151.938915 
L 380.621534 151.661181 
L 380.959716 151.550083 
L 381.297898 151.205932 
L 381.974261 151.191742 
L 382.312443 151.686735 
L 382.650625 151.613083 
L 382.988807 151.852518 
L 383.326989 151.679496 
L 384.003352 152.207215 
L 386.032443 151.367225 
L 386.370625 151.667476 
L 387.046989 151.296849 
L 387.38517 151.849446 
L 387.723352 151.805784 
L 388.061534 151.328364 
L 388.399716 151.674293 
L 388.737898 151.743831 
L 389.07608 152.042436 
L 389.414261 151.830819 
L 389.752443 151.370385 
L 390.428807 151.709383 
L 390.766989 151.443255 
L 391.10517 151.744608 
L 391.443352 151.368646 
L 391.781534 151.488061 
L 392.119716 151.828688 
L 392.457898 151.146687 
L 392.79608 151.689779 
L 393.134261 151.498835 
L 393.810625 151.770987 
L 394.148807 151.543286 
L 394.486989 150.945401 
L 394.82517 151.778396 
L 395.163352 151.49887 
L 395.839716 151.858059 
L 396.51608 151.134675 
L 396.854261 151.486843 
L 397.192443 151.396916 
L 397.530625 151.719428 
L 397.868807 151.424326 
L 398.206989 151.788686 
L 398.54517 151.564222 
L 398.883352 151.705691 
L 399.221534 151.996654 
L 399.559716 151.92431 
L 399.897898 151.704387 
L 400.23608 152.328413 
L 400.912443 152.27705 
L 401.250625 151.88783 
L 402.26517 151.92844 
L 402.603352 152.307681 
L 403.279716 152.183362 
L 403.95608 152.189478 
L 404.294261 152.038944 
L 404.632443 152.635119 
L 404.970625 152.101613 
L 405.308807 151.938368 
L 405.646989 152.079164 
L 405.98517 151.71079 
L 406.323352 151.797494 
L 406.661534 151.646745 
L 406.999716 152.143108 
L 407.337898 151.99021 
L 407.67608 152.18414 
L 408.014261 152.22808 
L 408.352443 152.125307 
L 409.028807 151.692709 
L 409.366989 151.910702 
L 409.70517 151.764202 
L 410.381534 151.699157 
L 410.719716 152.14054 
L 411.057898 151.37151 
L 411.734261 151.766142 
L 412.410625 151.713636 
L 412.748807 151.875768 
L 413.086989 151.39868 
L 413.42517 151.225943 
L 413.763352 151.535501 
L 414.101534 151.645419 
L 414.439716 151.240036 
L 415.11608 151.689344 
L 416.806989 151.53041 
L 417.14517 151.307105 
L 417.483352 151.856963 
L 418.159716 151.503902 
L 418.497898 151.979471 
L 418.83608 151.697348 
L 419.174261 151.934772 
L 419.512443 151.508816 
L 419.850625 152.151504 
L 420.188807 151.747737 
L 420.526989 151.834478 
L 420.86517 152.265236 
L 421.203352 151.941584 
L 421.541534 151.934039 
L 421.879716 151.171931 
L 422.217898 151.802155 
L 422.55608 152.066033 
L 423.232443 151.545989 
L 423.908807 151.575974 
L 424.246989 151.873294 
L 424.58517 151.918905 
L 424.923352 151.736145 
L 425.261534 151.989589 
L 425.599716 151.574647 
L 425.937898 151.879342 
L 426.952443 151.910117 
L 427.290625 151.70139 
L 427.628807 151.937435 
L 427.966989 152.009852 
L 428.30517 151.533277 
L 428.981534 152.084454 
L 429.319716 151.590728 
L 429.99608 152.446118 
L 430.672443 151.724952 
L 431.348807 152.141755 
L 431.686989 151.898353 
L 432.02517 152.1334 
L 432.363352 152.032246 
L 432.701534 152.398274 
L 433.039716 151.485606 
L 433.377898 151.919006 
L 433.71608 151.88307 
L 434.054261 151.55212 
L 434.392443 151.715725 
L 434.730625 152.216185 
L 435.068807 151.943226 
L 435.406989 151.526062 
L 435.74517 151.839099 
L 436.083352 152.344255 
L 436.421534 152.354418 
L 436.759716 151.937689 
L 437.097898 151.854042 
L 437.774261 152.403465 
L 438.112443 151.928993 
L 439.126989 152.361175 
L 439.46517 152.258287 
L 440.141534 152.385159 
L 440.479716 151.892379 
L 441.494261 152.244459 
L 441.832443 151.72125 
L 442.170625 152.643585 
L 442.508807 152.199328 
L 442.846989 152.058942 
L 443.18517 152.411634 
L 443.861534 151.943532 
L 444.199716 151.985253 
L 444.87608 151.866921 
L 445.214261 151.978894 
L 445.552443 152.516977 
L 445.890625 152.155609 
L 446.228807 152.389905 
L 446.566989 152.072178 
L 446.90517 152.703306 
L 447.243352 152.95425 
L 447.581534 152.619859 
L 448.257898 152.332556 
L 448.934261 152.769971 
L 449.610625 152.24283 
L 450.286989 152.833334 
L 450.62517 152.80824 
L 450.963352 152.291823 
L 451.301534 152.833655 
L 451.977898 152.210842 
L 452.654261 152.278928 
L 453.330625 152.356118 
L 453.668807 152.226534 
L 454.006989 152.465522 
L 454.34517 152.474592 
L 454.683352 152.221023 
L 455.021534 152.302501 
L 455.359716 152.05563 
L 456.03608 152.459694 
L 456.374261 152.101627 
L 456.712443 152.179048 
L 457.050625 152.103387 
L 457.388807 152.219353 
L 457.726989 152.510258 
L 458.06517 152.273396 
L 458.403352 152.398583 
L 459.079716 152.125431 
L 459.417898 152.171389 
L 459.75608 151.970359 
L 460.094261 152.253858 
L 460.432443 152.200606 
L 460.770625 152.397954 
L 461.108807 152.317683 
L 461.446989 152.115818 
L 462.123352 152.208094 
L 462.461534 151.816096 
L 462.799716 152.263418 
L 463.137898 152.06862 
L 463.47608 152.056638 
L 463.814261 152.361283 
L 464.152443 152.3193 
L 464.490625 151.907125 
L 464.828807 152.04794 
L 465.166989 152.353644 
L 465.50517 152.087623 
L 465.843352 152.359963 
L 466.181534 152.294126 
L 466.519716 152.614881 
L 466.857898 152.20847 
L 467.19608 152.351788 
L 467.534261 152.690721 
L 468.548807 151.781281 
L 468.886989 152.120058 
L 469.22517 152.27773 
L 469.901534 151.806116 
L 470.239716 152.353814 
L 470.577898 151.890548 
L 470.91608 152.196915 
L 471.254261 151.925702 
L 471.930625 151.948349 
L 472.606989 152.060363 
L 472.94517 152.072341 
L 473.621534 152.921489 
L 473.959716 152.333817 
L 474.297898 152.006672 
L 474.63608 152.520321 
L 474.974261 152.654111 
L 475.312443 152.500869 
L 475.650625 151.963768 
L 475.988807 151.764147 
L 476.326989 152.336932 
L 476.66517 151.989874 
L 477.341534 152.021301 
L 477.679716 152.29921 
L 478.017898 152.317879 
L 478.35608 152.627305 
L 479.032443 152.462779 
L 479.370625 152.18155 
L 479.708807 152.654229 
L 480.046989 152.367052 
L 480.38517 152.439632 
L 481.061534 152.247902 
L 481.399716 152.307977 
L 481.737898 152.507178 
L 482.07608 152.42275 
L 482.752443 152.686774 
L 483.090625 152.495383 
L 483.428807 152.551822 
L 483.766989 152.895301 
L 484.10517 152.279384 
L 484.443352 152.848113 
L 484.781534 152.753765 
L 485.119716 152.488698 
L 485.457898 152.949287 
L 485.79608 152.571899 
L 486.134261 152.693882 
L 486.472443 152.64935 
L 486.810625 152.353643 
L 487.148807 152.669361 
L 487.486989 152.368571 
L 487.82517 152.538901 
L 488.163352 152.843801 
L 488.501534 152.570692 
L 489.177898 152.54439 
L 489.51608 152.787501 
L 490.530625 152.488456 
L 491.54517 153.162053 
L 491.883352 152.986459 
L 492.221534 152.455687 
L 492.559716 153.06156 
L 492.897898 152.777063 
L 493.23608 152.756131 
L 493.574261 153.00796 
L 494.250625 152.882425 
L 494.588807 152.355673 
L 494.926989 152.493841 
L 495.603352 153.210481 
L 496.279716 153.058307 
L 496.95608 152.955914 
L 497.294261 152.74624 
L 497.970625 153.027155 
L 498.308807 152.504372 
L 498.646989 152.859766 
L 499.661534 153.041754 
L 499.999716 152.541584 
L 500.337898 152.417945 
L 500.67608 152.832131 
L 501.014261 152.925445 
L 501.352443 152.586765 
L 502.028807 153.048029 
L 502.366989 152.752645 
L 502.70517 152.626115 
L 503.381534 152.936892 
L 503.719716 152.683649 
L 504.057898 152.911091 
L 504.39608 152.363894 
L 504.734261 153.042916 
L 505.072443 152.990963 
L 505.410625 152.506209 
L 505.748807 152.774364 
L 506.086989 152.52135 
L 506.763352 152.919921 
L 507.101534 152.54567 
L 507.439716 152.87646 
L 507.777898 152.736383 
L 508.11608 153.032834 
L 508.454261 153.108853 
L 508.792443 152.820255 
L 509.468807 152.876966 
L 509.806989 153.321299 
L 510.14517 152.960797 
L 510.483352 152.98893 
L 510.821534 153.202848 
L 512.512443 152.827884 
L 512.850625 153.304688 
L 513.188807 153.046339 
L 513.526989 153.28803 
L 513.86517 153.168489 
L 514.203352 152.752113 
L 514.541534 153.269234 
L 514.879716 153.139193 
L 515.217898 152.812752 
L 516.232443 152.878505 
L 516.570625 153.041601 
L 516.908807 153.015541 
L 517.246989 153.262489 
L 517.923352 152.676142 
L 518.261534 153.009325 
L 518.599716 152.575587 
L 519.27608 152.872476 
L 519.614261 152.953163 
L 520.290625 152.705524 
L 520.628807 152.7006 
L 520.966989 153.317643 
L 521.30517 153.208254 
L 521.643352 152.574833 
L 521.981534 153.190572 
L 522.657898 153.272659 
L 523.672443 153.167297 
L 524.010625 153.395762 
L 524.348807 152.937887 
L 524.686989 153.385975 
L 525.701534 153.064183 
L 527.392443 153.346452 
L 527.730625 152.849626 
L 528.068807 153.348604 
L 528.406989 153.083616 
L 528.74517 153.063849 
L 529.759716 153.460508 
L 530.097898 153.094293 
L 530.43608 153.305938 
L 530.774261 153.136372 
L 531.450625 153.354174 
L 531.788807 153.002398 
L 532.126989 152.853821 
L 532.46517 153.119664 
L 533.141534 152.353978 
L 533.479716 152.973688 
L 533.817898 152.615818 
L 534.15608 152.885859 
L 534.832443 153.080894 
L 535.170625 152.475642 
L 535.846989 153.111158 
L 536.18517 152.834946 
L 536.523352 153.024378 
L 537.537898 153.287478 
L 537.87608 152.899149 
L 538.552443 152.909204 
L 538.890625 152.915387 
L 539.228807 153.399765 
L 539.566989 153.2647 
L 539.90517 152.885833 
L 540.243352 153.286273 
L 540.581534 152.630615 
L 540.919716 153.617197 
L 541.257898 153.268812 
L 541.59608 153.215023 
L 541.934261 153.590197 
L 542.272443 153.722517 
L 542.610625 152.92342 
L 542.948807 153.482382 
L 543.286989 152.757448 
L 543.62517 152.935928 
L 543.963352 153.25308 
L 544.977898 153.696591 
L 545.654261 154.158429 
L 545.992443 153.541019 
L 546.330625 153.952786 
L 547.006989 153.701989 
L 547.34517 153.335836 
L 547.683352 153.582743 
L 548.359716 153.377643 
L 549.03608 153.699386 
L 550.388807 153.434308 
L 550.726989 153.758098 
L 551.06517 153.542321 
L 552.079716 153.698703 
L 553.094261 153.253953 
L 553.432443 153.498585 
L 554.108807 153.51771 
L 554.446989 153.175226 
L 554.78517 153.628483 
L 555.799716 153.407202 
L 556.47608 153.625232 
L 557.152443 154.079353 
L 557.490625 153.52271 
L 557.828807 154.142258 
L 558.166989 153.775613 
L 558.843352 153.691069 
L 559.181534 153.250884 
L 559.519716 153.65295 
L 559.857898 153.240823 
L 560.19608 153.363758 
L 560.534261 153.665132 
L 561.210625 153.547324 
L 561.548807 153.727648 
L 561.886989 153.437601 
L 562.22517 153.591748 
L 562.563352 153.20177 
L 562.901534 153.62279 
L 563.239716 153.613591 
L 563.577898 153.297419 
L 563.91608 153.498631 
L 564.254261 153.269644 
L 564.592443 153.50599 
L 564.930625 153.039009 
L 565.268807 153.420922 
L 565.606989 153.227858 
L 565.94517 153.610846 
L 566.283352 153.223473 
L 566.621534 153.61341 
L 566.959716 153.395769 
L 567.297898 153.530347 
L 568.650625 153.527112 
L 569.326989 153.154881 
L 570.341534 152.945378 
L 570.679716 153.069234 
L 571.017898 152.895172 
L 571.35608 152.954893 
L 572.032443 153.231055 
L 572.370625 152.952159 
L 573.046989 152.711547 
L 573.723352 153.406709 
L 574.061534 153.080918 
L 574.399716 153.18338 
L 575.07608 153.677974 
L 575.752443 152.99729 
L 576.090625 153.279174 
L 576.428807 153.329818 
L 576.766989 153.070421 
L 577.10517 153.08816 
L 577.781534 153.589711 
L 578.119716 153.321398 
L 578.457898 153.503544 
L 578.79608 153.224771 
L 579.134261 153.148529 
L 579.472443 152.935954 
L 580.148807 152.90536 
L 580.486989 152.898195 
L 580.82517 153.30974 
L 581.839716 152.883784 
L 582.177898 153.524074 
L 582.51608 152.95302 
L 582.854261 153.130791 
L 583.192443 153.132953 
L 583.530625 152.785131 
L 583.868807 153.14254 
L 584.206989 152.821081 
L 584.54517 153.039831 
L 584.883352 152.69415 
L 585.221534 152.627309 
L 585.559716 153.250003 
L 585.897898 152.936387 
L 586.23608 152.939571 
L 586.574261 153.188603 
L 586.912443 152.91533 
L 587.250625 153.216382 
L 587.588807 152.989003 
L 588.26517 153.063867 
L 588.941534 153.033201 
L 589.617898 152.855591 
L 589.95608 153.06581 
L 590.632443 152.609432 
L 590.970625 152.722255 
L 591.308807 152.712911 
L 591.646989 152.263852 
L 591.98517 152.351952 
L 592.323352 152.726475 
L 592.999716 152.559372 
L 593.337898 152.80446 
L 593.67608 152.748245 
L 594.014261 152.450868 
L 594.352443 153.044907 
L 594.690625 152.88045 
L 595.028807 152.563451 
L 595.366989 152.538204 
L 595.70517 152.761004 
L 596.381534 152.56896 
L 596.719716 152.841062 
L 597.057898 152.781233 
L 597.734261 152.9799 
L 598.072443 152.620084 
L 598.748807 153.010949 
L 599.086989 152.620599 
L 599.42517 152.759768 
L 599.763352 152.341864 
L 600.101534 152.189816 
L 600.439716 152.232322 
L 600.777898 152.081882 
L 601.454261 152.523441 
L 601.792443 152.511256 
L 602.130625 152.850663 
L 602.468807 152.606638 
L 602.806989 153.012085 
L 603.483352 152.88128 
L 603.821534 152.959163 
L 604.159716 152.871557 
L 604.497898 152.470064 
L 604.83608 152.464329 
L 605.174261 152.338737 
L 605.850625 152.479379 
L 606.188807 152.213927 
L 606.526989 152.544605 
L 606.86517 152.586562 
L 607.203352 153.004439 
L 607.541534 152.78288 
L 607.879716 153.020857 
L 608.894261 152.70677 
L 609.232443 152.984976 
L 609.570625 152.76254 
L 609.908807 152.826365 
L 610.246989 152.65628 
L 610.923352 152.991104 
L 611.261534 152.631896 
L 611.599716 152.596405 
L 611.937898 152.930498 
L 612.27608 152.517437 
L 612.614261 152.876324 
L 612.952443 152.550556 
L 613.290625 152.638999 
L 613.628807 152.420192 
L 613.966989 152.832896 
L 614.30517 152.470918 
L 614.981534 152.852128 
L 615.657898 152.872129 
L 615.99608 152.538653 
L 616.334261 152.555474 
L 616.672443 152.251174 
L 617.010625 152.721179 
L 617.348807 152.507361 
L 618.02517 152.906622 
L 618.363352 152.66763 
L 618.701534 152.841139 
L 619.039716 152.36401 
L 619.377898 152.966757 
L 619.71608 152.657263 
L 620.054261 152.605128 
L 620.392443 152.158719 
L 621.406989 152.338716 
L 621.74517 152.60879 
L 622.083352 152.278133 
L 622.421534 152.293181 
L 622.759716 152.449185 
L 623.097898 152.372741 
L 623.43608 152.759631 
L 623.774261 152.645883 
L 624.112443 152.224476 
L 625.126989 152.548796 
L 625.126989 152.548796 
" clip-path="url(#p412486dbbd)" style="fill: none; stroke: #1f77b4; stroke-width: 1.5; stroke-linecap: square"/>
   </g>
   <g id="line2d_13">
    <path d="M 117.854261 257.658289 
L 118.192443 262.165711 
L 118.530625 291.943205 
L 118.868807 296.03625 
L 119.54517 271.11781 
L 119.883352 227.057898 
L 120.221534 207.5709 
L 120.559716 203.182002 
L 120.897898 203.974264 
L 121.23608 211.845554 
L 121.912443 201.196422 
L 122.250625 195.910364 
L 122.588807 195.703205 
L 122.926989 192.753227 
L 123.26517 197.401453 
L 123.603352 172.184989 
L 123.941534 172.103903 
L 124.279716 169.627321 
L 124.617898 171.510379 
L 124.95608 166.488463 
L 125.294261 169.662831 
L 125.632443 167.766312 
L 125.970625 168.409239 
L 126.308807 168.391562 
L 126.646989 165.287616 
L 126.98517 166.881572 
L 127.323352 166.794035 
L 127.661534 165.094572 
L 127.999716 166.165148 
L 128.337898 165.451608 
L 128.67608 164.010929 
L 129.014261 163.25549 
L 129.352443 164.862355 
L 129.690625 163.978923 
L 130.028807 163.485609 
L 130.70517 161.702402 
L 131.043352 160.420844 
L 131.381534 164.815428 
L 131.719716 163.952454 
L 132.057898 162.432016 
L 132.39608 163.099974 
L 132.734261 162.512979 
L 133.072443 162.265303 
L 133.410625 163.58709 
L 133.748807 161.410305 
L 134.086989 162.710343 
L 134.42517 161.565435 
L 134.763352 161.16584 
L 135.101534 161.539059 
L 135.439716 162.557454 
L 135.777898 161.171452 
L 136.11608 161.384449 
L 136.454261 160.92679 
L 136.792443 160.831448 
L 137.468807 161.328739 
L 137.806989 161.196216 
L 138.14517 161.194354 
L 138.483352 161.482621 
L 138.821534 161.201429 
L 139.159716 159.7919 
L 139.497898 160.884693 
L 139.83608 160.064798 
L 140.174261 160.550759 
L 140.512443 162.077185 
L 140.850625 163.054654 
L 141.188807 160.376997 
L 141.526989 163.420413 
L 141.86517 160.81798 
L 142.203352 160.706714 
L 142.879716 162.97898 
L 143.217898 161.428681 
L 143.55608 160.805188 
L 144.232443 160.193846 
L 144.908807 162.631121 
L 145.58517 159.442412 
L 145.923352 161.834268 
L 146.261534 161.591212 
L 146.599716 160.94865 
L 146.937898 161.58259 
L 147.27608 161.661909 
L 147.614261 162.60633 
L 148.290625 161.360388 
L 148.966989 161.703732 
L 149.30517 160.981433 
L 149.981534 161.378065 
L 150.657898 159.80897 
L 151.672443 161.088266 
L 152.348807 161.389012 
L 152.686989 160.004467 
L 153.02517 161.423814 
L 153.363352 161.588497 
L 153.701534 160.70362 
L 154.039716 161.311015 
L 154.377898 162.288528 
L 154.71608 161.574032 
L 155.054261 162.933584 
L 155.392443 162.761098 
L 155.730625 161.823109 
L 156.068807 163.255695 
L 156.406989 162.48772 
L 156.74517 162.510713 
L 157.083352 162.845991 
L 157.421534 162.220304 
L 157.759716 162.518876 
L 158.43608 164.100062 
L 158.774261 161.71733 
L 159.112443 160.953926 
L 159.450625 162.188098 
L 160.126989 161.382858 
L 160.46517 162.157181 
L 160.803352 162.385889 
L 161.141534 160.804717 
L 161.479716 161.59229 
L 161.817898 161.478432 
L 162.15608 161.686822 
L 162.494261 162.509587 
L 162.832443 161.135064 
L 163.170625 161.60804 
L 163.846989 163.370876 
L 164.18517 161.109782 
L 164.523352 153.752785 
L 164.861534 154.884893 
L 165.199716 154.642952 
L 165.537898 156.15602 
L 165.87608 156.257159 
L 166.214261 154.933457 
L 166.552443 156.047679 
L 166.890625 156.254787 
L 167.228807 157.181505 
L 167.566989 156.53724 
L 167.90517 156.437924 
L 168.243352 156.791371 
L 168.581534 156.526013 
L 168.919716 156.899174 
L 169.257898 156.612682 
L 169.59608 155.971204 
L 169.934261 156.374247 
L 170.610625 156.676973 
L 170.948807 156.380954 
L 171.286989 156.744293 
L 171.62517 156.508302 
L 172.301534 156.742195 
L 172.639716 156.015266 
L 172.977898 156.667905 
L 173.654261 156.571618 
L 173.992443 156.876875 
L 174.330625 157.011189 
L 175.006989 156.562438 
L 175.34517 157.11912 
L 175.683352 157.288222 
L 176.021534 156.918805 
L 176.359716 156.340906 
L 176.697898 157.068537 
L 177.03608 156.310565 
L 177.712443 155.798621 
L 178.050625 156.372213 
L 178.388807 156.620934 
L 179.06517 155.934658 
L 179.403352 155.997717 
L 179.741534 156.237635 
L 180.079716 156.252845 
L 180.417898 155.534283 
L 180.75608 156.106492 
L 181.094261 155.971055 
L 181.432443 155.262929 
L 181.770625 155.565248 
L 182.108807 155.523103 
L 182.446989 155.801346 
L 182.78517 156.566333 
L 183.123352 156.216639 
L 183.461534 156.133157 
L 183.799716 155.391582 
L 184.137898 155.66232 
L 184.47608 156.145638 
L 184.814261 155.672539 
L 185.152443 155.874484 
L 185.490625 155.743108 
L 185.828807 156.238413 
L 186.166989 155.989438 
L 186.843352 156.440338 
L 187.519716 155.672807 
L 187.857898 155.631246 
L 188.19608 155.827528 
L 188.534261 156.184732 
L 188.872443 155.693904 
L 189.210625 156.168457 
L 189.548807 156.299126 
L 189.886989 155.762169 
L 190.563352 156.752607 
L 190.901534 155.909613 
L 191.239716 156.437744 
L 191.91608 156.503263 
L 192.254261 156.287067 
L 192.592443 156.348738 
L 192.930625 156.141802 
L 193.268807 156.48928 
L 193.606989 155.958175 
L 193.94517 155.93672 
L 194.283352 156.125692 
L 194.621534 156.556642 
L 194.959716 156.08584 
L 195.297898 155.853602 
L 195.63608 156.224566 
L 196.312443 155.977781 
L 196.650625 156.594103 
L 196.988807 155.667991 
L 197.66517 156.37959 
L 198.003352 156.129236 
L 198.341534 156.608581 
L 198.679716 155.852199 
L 199.017898 155.933841 
L 199.35608 155.823862 
L 199.694261 156.261902 
L 200.032443 156.217012 
L 200.370625 156.433896 
L 200.708807 156.219792 
L 201.046989 156.336659 
L 201.38517 156.096349 
L 201.723352 156.14078 
L 202.061534 156.421176 
L 203.07608 156.095558 
L 203.414261 157.212045 
L 203.752443 156.587763 
L 204.090625 156.30008 
L 204.428807 156.348145 
L 204.766989 156.214621 
L 205.10517 156.433314 
L 205.443352 156.347303 
L 206.119716 156.730407 
L 206.457898 156.311451 
L 206.79608 156.422137 
L 207.134261 156.363393 
L 207.472443 156.605773 
L 208.82517 156.104843 
L 209.163352 156.384421 
L 209.501534 156.488825 
L 209.839716 156.398473 
L 210.177898 156.77701 
L 210.854261 156.438086 
L 211.192443 156.575574 
L 211.530625 156.895077 
L 211.868807 156.586644 
L 212.206989 156.758388 
L 212.54517 156.656062 
L 212.883352 156.965966 
L 213.559716 156.474212 
L 213.897898 156.979237 
L 214.912443 156.78095 
L 215.250625 157.101613 
L 215.926989 156.551084 
L 216.603352 157.098151 
L 216.941534 156.494078 
L 217.279716 156.470489 
L 217.617898 156.88698 
L 217.95608 156.736063 
L 218.294261 156.7347 
L 218.632443 157.464837 
L 218.970625 157.245992 
L 219.308807 156.862099 
L 219.646989 156.935837 
L 219.98517 156.769388 
L 220.323352 157.033425 
L 220.661534 156.931994 
L 221.337898 157.300986 
L 221.67608 156.96563 
L 222.014261 157.144787 
L 222.690625 156.797355 
L 223.028807 157.022033 
L 223.366989 156.650283 
L 223.70517 156.643316 
L 224.043352 157.060201 
L 224.381534 156.635579 
L 225.057898 156.742267 
L 225.734261 156.37065 
L 226.072443 156.805563 
L 226.410625 157.010789 
L 226.748807 156.41239 
L 227.086989 156.30752 
L 227.42517 156.518043 
L 227.763352 154.394413 
L 228.101534 153.868807 
L 228.439716 154.745371 
L 228.777898 154.964107 
L 229.11608 155.882272 
L 230.130625 155.2932 
L 230.806989 155.89478 
L 231.14517 155.705633 
L 231.483352 155.735094 
L 231.821534 156.291481 
L 232.497898 155.58715 
L 232.83608 155.645655 
L 233.174261 153.043477 
L 233.512443 154.084499 
L 233.850625 154.435394 
L 234.188807 154.271206 
L 234.526989 154.535556 
L 234.86517 155.139117 
L 235.203352 154.806182 
L 235.541534 155.013079 
L 235.879716 154.635972 
L 236.217898 155.060609 
L 236.55608 155.242783 
L 236.894261 154.710172 
L 237.232443 155.23496 
L 238.246989 154.912978 
L 238.58517 154.600437 
L 238.923352 154.867425 
L 239.261534 154.496443 
L 239.599716 155.003689 
L 240.27608 155.096093 
L 240.614261 154.993173 
L 240.952443 155.095595 
L 241.290625 155.423929 
L 242.30517 155.077029 
L 242.643352 155.272574 
L 242.981534 154.511676 
L 243.319716 155.031347 
L 243.657898 155.333706 
L 243.99608 155.833112 
L 244.334261 155.491651 
L 245.010625 155.26391 
L 245.348807 155.533926 
L 245.686989 155.532608 
L 246.02517 155.347737 
L 246.363352 155.905205 
L 247.039716 155.375726 
L 247.377898 155.269938 
L 247.71608 155.835803 
L 248.392443 155.153243 
L 249.406989 155.751553 
L 250.083352 155.403771 
L 250.421534 155.480373 
L 250.759716 155.800394 
L 251.097898 155.63988 
L 251.43608 156.279948 
L 251.774261 155.760215 
L 252.450625 155.431543 
L 253.46517 155.709706 
L 253.803352 155.219692 
L 254.141534 155.442174 
L 254.479716 155.890347 
L 255.15608 156.019055 
L 255.494261 155.491745 
L 256.508807 155.350416 
L 256.846989 155.346429 
L 257.18517 155.665712 
L 257.523352 155.630159 
L 257.861534 156.297099 
L 258.537898 154.636774 
L 258.87608 155.540049 
L 259.552443 155.596634 
L 259.890625 155.315462 
L 260.228807 155.58118 
L 260.566989 154.986037 
L 261.581534 155.552048 
L 262.934261 155.310278 
L 263.272443 155.408083 
L 263.610625 155.196475 
L 263.948807 155.538965 
L 264.286989 155.442706 
L 264.62517 155.091318 
L 264.963352 153.608385 
L 265.639716 154.714612 
L 265.977898 154.891346 
L 266.31608 154.903836 
L 266.654261 154.621878 
L 266.992443 155.658852 
L 267.330625 155.249258 
L 267.668807 155.713823 
L 268.006989 155.021825 
L 268.683352 155.150075 
L 269.021534 155.154992 
L 269.359716 155.317545 
L 269.697898 155.151199 
L 270.03608 155.264146 
L 270.374261 155.587818 
L 271.726989 155.074538 
L 272.06517 155.645964 
L 272.403352 155.841646 
L 273.079716 155.051135 
L 273.417898 155.565542 
L 273.75608 155.17962 
L 274.094261 155.260668 
L 274.432443 155.475398 
L 274.770625 155.165695 
L 275.108807 155.24334 
L 275.446989 155.072499 
L 275.78517 155.269896 
L 276.123352 154.818812 
L 276.461534 155.188621 
L 276.799716 155.108289 
L 277.137898 154.669359 
L 277.47608 155.152197 
L 277.814261 155.156871 
L 278.152443 154.848813 
L 278.490625 155.390366 
L 278.828807 155.278702 
L 279.166989 155.436354 
L 279.50517 155.245938 
L 279.843352 155.244318 
L 280.181534 154.974139 
L 280.519716 155.382234 
L 280.857898 155.004301 
L 281.19608 154.988872 
L 281.534261 155.262399 
L 282.210625 155.096087 
L 282.548807 154.837695 
L 283.22517 155.423065 
L 283.563352 155.028617 
L 283.901534 155.512282 
L 284.239716 155.296887 
L 284.577898 155.225788 
L 284.91608 154.743231 
L 285.254261 155.366563 
L 285.930625 155.130873 
L 286.268807 154.707484 
L 286.606989 154.986333 
L 287.283352 154.818989 
L 287.621534 155.046058 
L 287.959716 154.702934 
L 288.63608 155.039919 
L 288.974261 154.975369 
L 289.312443 155.334182 
L 289.650625 154.849228 
L 289.988807 155.037184 
L 290.326989 154.970428 
L 290.66517 155.284791 
L 291.003352 154.96514 
L 291.341534 155.305088 
L 291.679716 154.640369 
L 292.017898 155.181552 
L 293.032443 155.488724 
L 293.370625 154.730194 
L 294.38517 154.930242 
L 294.723352 155.111416 
L 295.061534 155.045237 
L 295.399716 155.248884 
L 295.737898 154.713462 
L 296.07608 154.878149 
L 296.414261 155.207209 
L 296.752443 154.545471 
L 297.428807 155.620813 
L 297.766989 155.274956 
L 298.10517 155.497977 
L 298.443352 155.070469 
L 298.781534 155.350361 
L 299.119716 154.947572 
L 299.457898 155.52839 
L 299.79608 155.107947 
L 300.134261 155.580213 
L 300.472443 155.139409 
L 300.810625 155.178293 
L 301.148807 155.381478 
L 301.486989 155.187845 
L 301.82517 155.494437 
L 302.163352 155.217882 
L 302.501534 155.285562 
L 302.839716 155.031702 
L 303.177898 155.296398 
L 303.51608 154.910107 
L 303.854261 155.275375 
L 304.192443 155.15732 
L 304.530625 155.31056 
L 305.206989 155.333147 
L 305.883352 154.904764 
L 306.221534 155.58039 
L 306.897898 155.156327 
L 307.23608 155.373803 
L 307.574261 155.249042 
L 307.912443 155.254083 
L 308.250625 155.55925 
L 308.588807 155.219763 
L 308.926989 155.562492 
L 309.26517 155.304436 
L 310.617898 155.284766 
L 311.294261 155.369909 
L 311.970625 155.254357 
L 312.308807 155.33416 
L 312.646989 155.032186 
L 313.323352 155.323129 
L 313.661534 155.204486 
L 313.999716 155.311507 
L 314.337898 155.125744 
L 315.352443 155.663483 
L 315.690625 155.077817 
L 316.028807 154.902083 
L 316.366989 155.02242 
L 316.70517 155.328052 
L 317.719716 155.428283 
L 318.057898 155.442195 
L 318.39608 155.699922 
L 319.410625 155.499555 
L 319.748807 155.280517 
L 320.42517 155.843515 
L 320.763352 154.460927 
L 321.101534 155.107892 
L 322.792443 155.057375 
L 323.130625 155.366999 
L 323.468807 155.084903 
L 323.806989 153.80868 
L 324.14517 154.421182 
L 324.483352 154.517176 
L 324.821534 154.371533 
L 325.159716 155.156259 
L 325.83608 155.151924 
L 326.174261 154.886121 
L 326.512443 155.168401 
L 326.850625 151.549215 
L 327.188807 153.671801 
L 327.526989 154.210377 
L 327.86517 153.137968 
L 328.203352 153.212823 
L 328.541534 153.538874 
L 328.879716 153.63788 
L 329.217898 153.866057 
L 329.55608 153.574882 
L 329.894261 153.807505 
L 330.232443 153.786339 
L 330.570625 153.559401 
L 330.908807 154.12274 
L 331.246989 153.933107 
L 331.58517 154.043313 
L 331.923352 153.748751 
L 332.261534 154.127582 
L 332.599716 154.275268 
L 332.937898 153.823059 
L 333.27608 153.913277 
L 333.614261 154.303842 
L 333.952443 154.969832 
L 334.290625 153.886911 
L 334.628807 153.764402 
L 335.30517 154.095029 
L 335.643352 153.892431 
L 335.981534 154.085215 
L 336.319716 153.970061 
L 336.657898 154.195834 
L 336.99608 154.003589 
L 337.334261 154.439732 
L 337.672443 154.185034 
L 338.010625 154.274745 
L 338.348807 154.164723 
L 338.686989 154.349258 
L 339.02517 154.215334 
L 339.363352 153.931444 
L 340.377898 154.356585 
L 340.71608 154.372823 
L 341.054261 154.028425 
L 341.392443 154.139414 
L 341.730625 154.375035 
L 342.406989 154.007671 
L 342.74517 154.379753 
L 343.083352 154.30798 
L 343.421534 153.920567 
L 343.759716 154.074949 
L 344.097898 154.48548 
L 344.43608 154.264881 
L 344.774261 154.224904 
L 345.112443 154.30137 
L 345.450625 153.986259 
L 346.46517 154.153079 
L 346.803352 154.133734 
L 347.141534 154.287122 
L 348.15608 154.271796 
L 348.494261 153.937811 
L 349.170625 154.089754 
L 349.508807 154.338696 
L 349.846989 153.865401 
L 350.18517 153.971171 
L 350.523352 153.877875 
L 351.87608 154.158169 
L 352.552443 153.920859 
L 352.890625 154.317894 
L 353.228807 154.224999 
L 353.566989 154.446094 
L 354.243352 154.076167 
L 354.919716 154.223886 
L 355.257898 153.940132 
L 355.59608 154.107708 
L 356.610625 154.023793 
L 357.286989 154.114796 
L 357.62517 153.951738 
L 357.963352 154.329505 
L 358.301534 154.126174 
L 359.31608 154.319701 
L 359.654261 154.315378 
L 359.992443 154.621295 
L 360.668807 153.964944 
L 361.34517 154.028827 
L 361.683352 154.227184 
L 363.374261 154.378203 
L 363.712443 154.049099 
L 364.050625 153.978356 
L 364.388807 154.58294 
L 364.726989 154.206178 
L 365.06517 154.275986 
L 365.403352 154.143732 
L 366.079716 154.376685 
L 366.417898 154.080599 
L 366.75608 154.252721 
L 367.432443 154.154387 
L 367.770625 153.922477 
L 368.108807 154.097532 
L 368.446989 154.597194 
L 368.78517 153.976399 
L 369.123352 154.136974 
L 369.461534 153.96186 
L 369.799716 154.141673 
L 370.137898 154.478791 
L 370.47608 154.129619 
L 371.152443 153.999698 
L 371.490625 154.097529 
L 371.828807 154.352394 
L 372.166989 154.116491 
L 373.181534 154.07981 
L 373.519716 154.264089 
L 373.857898 154.060622 
L 374.19608 154.013722 
L 374.534261 154.207735 
L 374.872443 153.979308 
L 375.210625 154.218602 
L 375.886989 154.080605 
L 376.22517 154.243596 
L 376.563352 153.864804 
L 377.91608 153.877679 
L 378.254261 153.959656 
L 378.592443 153.795453 
L 378.930625 153.773476 
L 379.268807 154.186488 
L 379.94517 153.700009 
L 380.621534 154.06566 
L 380.959716 153.754328 
L 381.297898 154.287848 
L 382.312443 153.849293 
L 382.988807 153.528761 
L 383.326989 153.87291 
L 383.66517 153.786487 
L 384.003352 153.579352 
L 384.341534 153.644116 
L 384.679716 153.925112 
L 385.017898 153.711868 
L 385.35608 153.664731 
L 386.032443 153.907606 
L 386.370625 153.79868 
L 386.708807 154.055372 
L 387.38517 153.587292 
L 387.723352 153.925825 
L 388.061534 153.770486 
L 388.399716 153.886633 
L 388.737898 153.472232 
L 389.07608 154.056653 
L 389.414261 153.617917 
L 389.752443 153.571063 
L 390.428807 153.9403 
L 390.766989 153.841082 
L 391.443352 154.012851 
L 392.119716 153.814185 
L 392.457898 153.871481 
L 392.79608 153.812954 
L 393.134261 154.077296 
L 393.472443 153.678675 
L 393.810625 153.96379 
L 394.148807 153.987649 
L 394.486989 153.71852 
L 394.82517 153.826589 
L 395.163352 154.332645 
L 395.501534 153.935132 
L 395.839716 154.064574 
L 396.177898 153.981866 
L 396.854261 154.219335 
L 397.192443 154.053844 
L 398.54517 154.018075 
L 398.883352 153.842495 
L 399.221534 154.030466 
L 399.897898 154.052931 
L 400.23608 153.843973 
L 400.912443 153.90353 
L 401.250625 153.818086 
L 401.588807 154.2799 
L 402.26517 153.933575 
L 402.603352 154.300037 
L 402.941534 153.893896 
L 403.617898 154.058179 
L 403.95608 153.92214 
L 404.294261 154.22361 
L 404.632443 153.862036 
L 404.970625 153.693224 
L 405.308807 153.719976 
L 405.646989 153.987266 
L 405.98517 154.112372 
L 406.323352 153.760369 
L 406.661534 153.934932 
L 406.999716 153.758076 
L 407.337898 154.126527 
L 408.014261 153.698017 
L 409.028807 153.836213 
L 409.366989 153.927989 
L 409.70517 154.164977 
L 410.043352 154.133394 
L 410.381534 153.938669 
L 411.057898 154.558286 
L 411.39608 154.414128 
L 411.734261 154.028473 
L 412.072443 154.414489 
L 412.410625 154.491601 
L 412.748807 154.373761 
L 413.086989 153.969343 
L 413.42517 154.198198 
L 413.763352 153.895323 
L 414.101534 153.924063 
L 414.439716 154.150303 
L 415.454261 153.796347 
L 415.792443 153.902566 
L 416.130625 153.840236 
L 416.468807 154.118608 
L 416.806989 153.73167 
L 417.14517 153.699172 
L 418.159716 154.417767 
L 418.497898 153.697973 
L 418.83608 154.16362 
L 419.174261 153.967527 
L 419.512443 154.424971 
L 419.850625 154.075927 
L 420.188807 153.943741 
L 420.526989 154.111361 
L 420.86517 154.029278 
L 421.203352 154.3959 
L 421.541534 154.279221 
L 421.879716 153.731126 
L 422.217898 153.933458 
L 422.55608 153.759584 
L 422.894261 154.252961 
L 423.908807 154.214123 
L 424.246989 153.817382 
L 424.58517 153.954916 
L 424.923352 153.954131 
L 425.261534 154.139536 
L 425.599716 153.998398 
L 425.937898 154.01198 
L 426.27608 153.770395 
L 426.614261 153.984374 
L 426.952443 153.803639 
L 427.290625 153.896815 
L 427.628807 154.327526 
L 428.30517 154.01714 
L 428.643352 154.148716 
L 428.981534 154.020145 
L 429.319716 153.737345 
L 430.334261 154.160656 
L 430.672443 154.289256 
L 431.010625 154.099192 
L 431.686989 154.258271 
L 432.02517 154.43969 
L 432.363352 154.466777 
L 432.701534 154.188428 
L 433.039716 154.177265 
L 433.377898 153.911907 
L 433.71608 154.21176 
L 434.054261 153.868858 
L 434.730625 153.936139 
L 435.068807 153.989305 
L 435.406989 153.910832 
L 435.74517 154.05375 
L 436.083352 154.331082 
L 436.421534 154.389428 
L 436.759716 153.938845 
L 437.43608 154.264901 
L 437.774261 154.185355 
L 438.112443 153.866401 
L 438.450625 154.115681 
L 439.126989 154.051252 
L 439.803352 154.501722 
L 440.141534 154.195006 
L 440.479716 154.12441 
L 440.817898 154.291247 
L 441.15608 154.21853 
L 441.494261 154.024233 
L 441.832443 154.026906 
L 442.508807 154.571016 
L 443.523352 154.264473 
L 443.861534 153.853914 
L 444.199716 154.087683 
L 444.537898 154.514502 
L 444.87608 154.336722 
L 445.214261 153.90356 
L 445.890625 154.311913 
L 446.228807 154.234345 
L 446.566989 154.378542 
L 446.90517 154.14663 
L 447.243352 154.348093 
L 447.581534 154.146855 
L 447.919716 154.325467 
L 448.257898 154.251309 
L 448.59608 154.003232 
L 449.948807 154.103678 
L 450.286989 153.875189 
L 450.963352 154.247452 
L 451.301534 153.897624 
L 452.31608 153.909604 
L 452.654261 154.191593 
L 453.668807 154.095129 
L 454.006989 154.1144 
L 454.34517 153.94871 
L 455.359716 154.296575 
L 455.697898 154.075555 
L 456.03608 154.44911 
L 456.374261 154.356132 
L 456.712443 154.41537 
L 457.050625 154.055603 
L 457.726989 154.100535 
L 458.06517 154.232757 
L 458.403352 154.118349 
L 458.741534 154.138495 
L 459.079716 154.328127 
L 459.417898 153.934045 
L 459.75608 154.232494 
L 460.094261 154.254489 
L 460.432443 154.447165 
L 460.770625 154.444631 
L 461.108807 154.209224 
L 461.78517 154.089822 
L 462.123352 154.288049 
L 463.137898 154.007912 
L 463.814261 153.948876 
L 464.152443 154.078815 
L 464.828807 153.885951 
L 465.166989 154.219233 
L 465.50517 154.203418 
L 465.843352 154.057217 
L 466.181534 154.410819 
L 466.519716 154.129415 
L 466.857898 154.002355 
L 467.19608 154.37376 
L 467.872443 154.106879 
L 468.210625 154.135913 
L 468.886989 154.319537 
L 469.901534 154.079798 
L 470.239716 154.40421 
L 470.577898 154.117763 
L 471.254261 154.195802 
L 472.268807 154.320393 
L 472.606989 154.110944 
L 472.94517 154.164353 
L 473.283352 154.637807 
L 473.621534 154.313117 
L 473.959716 154.253446 
L 474.63608 154.433177 
L 474.974261 154.015535 
L 475.312443 154.215634 
L 475.988807 153.984831 
L 476.326989 154.11794 
L 477.003352 154.046193 
L 478.35608 154.157147 
L 478.694261 154.329375 
L 479.032443 154.29765 
L 480.046989 153.914481 
L 480.38517 154.236359 
L 480.723352 154.010467 
L 481.399716 153.943755 
L 481.737898 153.53262 
L 482.07608 154.056023 
L 483.766989 153.909032 
L 484.10517 154.2921 
L 484.443352 153.614156 
L 485.119716 154.203688 
L 486.810625 153.864617 
L 487.486989 153.818541 
L 487.82517 153.670539 
L 488.163352 154.022802 
L 489.177898 153.789161 
L 490.868807 153.978781 
L 491.206989 154.234708 
L 492.221534 154.044837 
L 492.559716 153.792993 
L 492.897898 153.755277 
L 493.23608 154.069154 
L 493.574261 154.220482 
L 493.912443 154.110407 
L 494.250625 153.783916 
L 494.588807 154.313478 
L 494.926989 153.969518 
L 495.26517 153.849672 
L 495.941534 154.113797 
L 496.279716 154.137897 
L 496.617898 153.850286 
L 496.95608 153.730601 
L 497.294261 154.258245 
L 497.632443 153.954271 
L 498.308807 153.740594 
L 498.646989 154.018024 
L 499.323352 153.926222 
L 499.661534 154.145229 
L 499.999716 153.997193 
L 500.337898 154.056473 
L 500.67608 153.86292 
L 501.014261 153.804752 
L 501.352443 154.092211 
L 501.690625 153.919203 
L 502.028807 154.010276 
L 502.70517 153.727286 
L 503.719716 153.840228 
L 504.057898 153.856192 
L 504.39608 153.619472 
L 504.734261 153.731829 
L 505.072443 153.699567 
L 505.410625 153.889863 
L 505.748807 153.784353 
L 506.086989 153.988048 
L 506.42517 153.608502 
L 507.101534 153.756962 
L 507.439716 153.648117 
L 507.777898 153.751202 
L 508.11608 154.048419 
L 508.454261 153.988363 
L 508.792443 153.535162 
L 509.806989 154.299353 
L 510.483352 153.766523 
L 510.821534 153.960111 
L 511.497898 153.809754 
L 511.83608 153.74915 
L 512.174261 153.937067 
L 512.512443 153.740406 
L 512.850625 153.839032 
L 513.188807 153.580448 
L 513.526989 153.682983 
L 513.86517 153.506394 
L 514.541534 153.783745 
L 514.879716 153.71797 
L 515.217898 153.786397 
L 515.55608 153.68383 
L 515.894261 153.854369 
L 516.232443 153.811334 
L 516.570625 153.571192 
L 517.246989 153.444142 
L 517.58517 153.585643 
L 517.923352 153.55147 
L 518.261534 153.852637 
L 518.599716 153.444372 
L 519.27608 153.799378 
L 519.614261 153.435373 
L 519.952443 153.565787 
L 520.290625 153.909216 
L 520.628807 153.591031 
L 520.966989 153.713839 
L 521.30517 153.515405 
L 521.643352 153.796574 
L 522.99608 153.78357 
L 523.334261 153.486434 
L 524.010625 153.660724 
L 524.348807 153.465208 
L 524.686989 153.628123 
L 525.701534 153.383135 
L 526.377898 153.437859 
L 526.71608 153.333022 
L 527.054261 153.601678 
L 527.730625 153.52113 
L 528.068807 153.540977 
L 528.406989 153.705811 
L 528.74517 153.506279 
L 529.083352 153.50767 
L 529.421534 153.394018 
L 529.759716 153.543582 
L 530.097898 153.396164 
L 530.774261 153.654618 
L 531.112443 153.638947 
L 531.450625 153.442629 
L 531.788807 153.612165 
L 532.126989 153.610306 
L 532.46517 153.750076 
L 532.803352 153.548167 
L 533.141534 153.495158 
L 533.479716 153.768391 
L 533.817898 153.635529 
L 534.494261 153.811356 
L 534.832443 153.571337 
L 535.170625 153.866926 
L 535.846989 153.612034 
L 536.18517 153.726404 
L 537.199716 153.642421 
L 537.87608 154.113019 
L 538.552443 153.752669 
L 538.890625 153.838809 
L 539.90517 153.70945 
L 540.581534 153.669421 
L 541.257898 153.643659 
L 541.59608 153.898688 
L 541.934261 153.619783 
L 542.610625 153.466474 
L 543.286989 153.827922 
L 543.62517 153.595058 
L 543.963352 153.638498 
L 544.301534 154.161071 
L 544.977898 153.911531 
L 545.31608 154.08234 
L 545.654261 153.722731 
L 546.668807 153.607553 
L 547.006989 153.951289 
L 547.683352 153.64361 
L 549.03608 153.947013 
L 549.712443 153.779647 
L 550.726989 153.916043 
L 551.06517 153.627443 
L 551.403352 153.815472 
L 551.741534 153.644593 
L 552.079716 153.704829 
L 552.417898 153.644729 
L 552.75608 153.784662 
L 553.094261 153.728161 
L 553.432443 153.813443 
L 553.770625 153.633944 
L 554.108807 153.934501 
L 554.446989 153.98363 
L 555.123352 153.604701 
L 555.461534 153.893512 
L 555.799716 153.675376 
L 556.47608 153.61956 
L 557.152443 153.661399 
L 557.490625 153.682053 
L 557.828807 153.895038 
L 558.166989 153.692404 
L 558.50517 153.69523 
L 558.843352 153.877967 
L 559.857898 153.783067 
L 560.534261 153.451278 
L 560.872443 153.740433 
L 561.210625 153.593752 
L 561.548807 153.708738 
L 562.563352 153.589259 
L 563.239716 153.892645 
L 563.577898 153.701044 
L 564.592443 154.094306 
L 564.930625 153.783035 
L 565.268807 153.631876 
L 565.606989 153.821865 
L 565.94517 153.53313 
L 566.283352 153.837683 
L 566.621534 153.709512 
L 566.959716 153.976963 
L 567.297898 153.524268 
L 567.63608 153.851789 
L 568.312443 153.893796 
L 568.650625 153.564461 
L 568.988807 153.934477 
L 569.326989 153.87539 
L 569.66517 153.521523 
L 570.003352 153.617314 
L 570.679716 153.522105 
L 571.017898 153.570153 
L 571.35608 153.749106 
L 571.694261 153.732442 
L 572.032443 153.539779 
L 572.370625 153.519816 
L 572.708807 153.763688 
L 573.046989 153.385901 
L 573.38517 153.254838 
L 573.723352 153.64038 
L 574.061534 153.767238 
L 574.399716 153.311902 
L 575.414261 153.773653 
L 575.752443 153.54239 
L 576.090625 153.774382 
L 576.428807 153.551954 
L 576.766989 153.577954 
L 577.10517 153.823898 
L 577.443352 153.573428 
L 578.457898 153.566822 
L 578.79608 153.409663 
L 579.134261 153.558861 
L 579.810625 153.467655 
L 580.148807 153.786692 
L 580.82517 153.819304 
L 581.163352 153.526983 
L 581.501534 153.661894 
L 581.839716 153.626087 
L 582.177898 153.99085 
L 582.51608 153.611746 
L 582.854261 153.841844 
L 583.192443 153.630269 
L 583.530625 153.58926 
L 583.868807 153.714092 
L 584.206989 153.662656 
L 584.54517 153.788584 
L 584.883352 153.663854 
L 585.221534 153.927436 
L 585.559716 153.608622 
L 585.897898 153.84961 
L 586.23608 153.620663 
L 586.912443 153.708176 
L 587.250625 153.674792 
L 587.588807 153.822119 
L 587.926989 153.563004 
L 588.26517 153.67597 
L 589.617898 153.310989 
L 589.95608 153.617095 
L 590.294261 153.34086 
L 590.632443 153.515964 
L 591.646989 153.527073 
L 591.98517 153.295187 
L 592.323352 153.495705 
L 592.661534 153.364802 
L 593.67608 153.577266 
L 594.014261 153.386816 
L 594.352443 153.789625 
L 594.690625 153.215657 
L 595.028807 153.456652 
L 596.381534 153.732618 
L 596.719716 153.570805 
L 597.057898 153.745731 
L 597.39608 153.553034 
L 597.734261 153.72733 
L 598.072443 153.443527 
L 599.086989 153.486646 
L 599.42517 153.633082 
L 600.777898 153.150589 
L 601.454261 153.33821 
L 602.130625 153.441042 
L 602.468807 153.12213 
L 602.806989 153.298495 
L 604.159716 153.394502 
L 604.83608 153.123854 
L 605.174261 153.29572 
L 605.512443 153.259546 
L 605.850625 153.414328 
L 606.188807 153.169864 
L 606.526989 153.589313 
L 606.86517 153.310722 
L 608.217898 153.074632 
L 608.894261 153.375424 
L 609.908807 153.39394 
L 610.246989 153.240569 
L 611.261534 153.236507 
L 611.937898 153.324673 
L 612.27608 153.305209 
L 612.614261 153.642875 
L 613.628807 153.219974 
L 613.966989 153.360109 
L 614.30517 153.268092 
L 615.319716 153.522112 
L 615.99608 153.304114 
L 616.334261 153.197294 
L 616.672443 153.353062 
L 617.010625 153.352243 
L 617.348807 153.514872 
L 617.686989 153.1508 
L 618.701534 153.42874 
L 619.71608 153.40628 
L 620.054261 153.325218 
L 620.392443 153.420448 
L 620.730625 153.689085 
L 621.068807 153.175583 
L 621.406989 153.295932 
L 622.083352 153.010928 
L 622.421534 153.158466 
L 622.759716 153.002519 
L 623.097898 153.103744 
L 623.43608 153.348791 
L 623.774261 153.414407 
L 624.112443 153.255084 
L 624.450625 153.478076 
L 624.788807 153.55702 
L 625.126989 153.307669 
L 625.126989 153.307669 
" clip-path="url(#p412486dbbd)" style="fill: none; stroke: #ff7f0e; stroke-width: 1.5; stroke-linecap: square"/>
   </g>
   <g id="patch_3">
    <path d="M 92.490625 308.63625 
L 92.490625 31.43625 
" style="fill: none; stroke: #000000; stroke-width: 0.8; stroke-linejoin: miter; stroke-linecap: square"/>
   </g>
   <g id="patch_4">
    <path d="M 650.490625 308.63625 
L 650.490625 31.43625 
" style="fill: none; stroke: #000000; stroke-width: 0.8; stroke-linejoin: miter; stroke-linecap: square"/>
   </g>
   <g id="patch_5">
    <path d="M 92.490625 308.63625 
L 650.490625 308.63625 
" style="fill: none; stroke: #000000; stroke-width: 0.8; stroke-linejoin: miter; stroke-linecap: square"/>
   </g>
   <g id="patch_6">
    <path d="M 92.490625 31.43625 
L 650.490625 31.43625 
" style="fill: none; stroke: #000000; stroke-width: 0.8; stroke-linejoin: miter; stroke-linecap: square"/>
   </g>
   <g id="text_14">
    <!-- Generator and Discriminator Loss During Training -->
    <g transform="translate(74.258125 25.43625) scale(0.24 -0.24)">
     <defs>
      <path id="DejaVuSans-47" d="M 3809 666 
L 3809 1919 
L 2778 1919 
L 2778 2438 
L 4434 2438 
L 4434 434 
Q 4069 175 3628 42 
Q 3188 -91 2688 -91 
Q 1594 -91 976 548 
Q 359 1188 359 2328 
Q 359 3472 976 4111 
Q 1594 4750 2688 4750 
Q 3144 4750 3555 4637 
Q 3966 4525 4313 4306 
L 4313 3634 
Q 3963 3931 3569 4081 
Q 3175 4231 2741 4231 
Q 1884 4231 1454 3753 
Q 1025 3275 1025 2328 
Q 1025 1384 1454 906 
Q 1884 428 2741 428 
Q 3075 428 3337 486 
Q 3600 544 3809 666 
z
" transform="scale(0.015625)"/>
      <path id="DejaVuSans-20" transform="scale(0.015625)"/>
      <path id="DejaVuSans-64" d="M 2906 2969 
L 2906 4863 
L 3481 4863 
L 3481 0 
L 2906 0 
L 2906 525 
Q 2725 213 2448 61 
Q 2172 -91 1784 -91 
Q 1150 -91 751 415 
Q 353 922 353 1747 
Q 353 2572 751 3078 
Q 1150 3584 1784 3584 
Q 2172 3584 2448 3432 
Q 2725 3281 2906 2969 
z
M 947 1747 
Q 947 1113 1208 752 
Q 1469 391 1925 391 
Q 2381 391 2643 752 
Q 2906 1113 2906 1747 
Q 2906 2381 2643 2742 
Q 2381 3103 1925 3103 
Q 1469 3103 1208 2742 
Q 947 2381 947 1747 
z
" transform="scale(0.015625)"/>
      <path id="DejaVuSans-44" d="M 1259 4147 
L 1259 519 
L 2022 519 
Q 2988 519 3436 956 
Q 3884 1394 3884 2338 
Q 3884 3275 3436 3711 
Q 2988 4147 2022 4147 
L 1259 4147 
z
M 628 4666 
L 1925 4666 
Q 3281 4666 3915 4102 
Q 4550 3538 4550 2338 
Q 4550 1131 3912 565 
Q 3275 0 1925 0 
L 628 0 
L 628 4666 
z
" transform="scale(0.015625)"/>
      <path id="DejaVuSans-63" d="M 3122 3366 
L 3122 2828 
Q 2878 2963 2633 3030 
Q 2388 3097 2138 3097 
Q 1578 3097 1268 2742 
Q 959 2388 959 1747 
Q 959 1106 1268 751 
Q 1578 397 2138 397 
Q 2388 397 2633 464 
Q 2878 531 3122 666 
L 3122 134 
Q 2881 22 2623 -34 
Q 2366 -91 2075 -91 
Q 1284 -91 818 406 
Q 353 903 353 1747 
Q 353 2603 823 3093 
Q 1294 3584 2113 3584 
Q 2378 3584 2631 3529 
Q 2884 3475 3122 3366 
z
" transform="scale(0.015625)"/>
      <path id="DejaVuSans-6d" d="M 3328 2828 
Q 3544 3216 3844 3400 
Q 4144 3584 4550 3584 
Q 5097 3584 5394 3201 
Q 5691 2819 5691 2113 
L 5691 0 
L 5113 0 
L 5113 2094 
Q 5113 2597 4934 2840 
Q 4756 3084 4391 3084 
Q 3944 3084 3684 2787 
Q 3425 2491 3425 1978 
L 3425 0 
L 2847 0 
L 2847 2094 
Q 2847 2600 2669 2842 
Q 2491 3084 2119 3084 
Q 1678 3084 1418 2786 
Q 1159 2488 1159 1978 
L 1159 0 
L 581 0 
L 581 3500 
L 1159 3500 
L 1159 2956 
Q 1356 3278 1631 3431 
Q 1906 3584 2284 3584 
Q 2666 3584 2933 3390 
Q 3200 3197 3328 2828 
z
" transform="scale(0.015625)"/>
      <path id="DejaVuSans-75" d="M 544 1381 
L 544 3500 
L 1119 3500 
L 1119 1403 
Q 1119 906 1312 657 
Q 1506 409 1894 409 
Q 2359 409 2629 706 
Q 2900 1003 2900 1516 
L 2900 3500 
L 3475 3500 
L 3475 0 
L 2900 0 
L 2900 538 
Q 2691 219 2414 64 
Q 2138 -91 1772 -91 
Q 1169 -91 856 284 
Q 544 659 544 1381 
z
M 1991 3584 
L 1991 3584 
z
" transform="scale(0.015625)"/>
      <path id="DejaVuSans-67" d="M 2906 1791 
Q 2906 2416 2648 2759 
Q 2391 3103 1925 3103 
Q 1463 3103 1205 2759 
Q 947 2416 947 1791 
Q 947 1169 1205 825 
Q 1463 481 1925 481 
Q 2391 481 2648 825 
Q 2906 1169 2906 1791 
z
M 3481 434 
Q 3481 -459 3084 -895 
Q 2688 -1331 1869 -1331 
Q 1566 -1331 1297 -1286 
Q 1028 -1241 775 -1147 
L 775 -588 
Q 1028 -725 1275 -790 
Q 1522 -856 1778 -856 
Q 2344 -856 2625 -561 
Q 2906 -266 2906 331 
L 2906 616 
Q 2728 306 2450 153 
Q 2172 0 1784 0 
Q 1141 0 747 490 
Q 353 981 353 1791 
Q 353 2603 747 3093 
Q 1141 3584 1784 3584 
Q 2172 3584 2450 3431 
Q 2728 3278 2906 2969 
L 2906 3500 
L 3481 3500 
L 3481 434 
z
" transform="scale(0.015625)"/>
      <path id="DejaVuSans-54" d="M -19 4666 
L 3928 4666 
L 3928 4134 
L 2272 4134 
L 2272 0 
L 1638 0 
L 1638 4134 
L -19 4134 
L -19 4666 
z
" transform="scale(0.015625)"/>
     </defs>
     <use xlink:href="#DejaVuSans-47"/>
     <use xlink:href="#DejaVuSans-65" x="77.490234"/>
     <use xlink:href="#DejaVuSans-6e" x="139.013672"/>
     <use xlink:href="#DejaVuSans-65" x="202.392578"/>
     <use xlink:href="#DejaVuSans-72" x="263.916016"/>
     <use xlink:href="#DejaVuSans-61" x="305.029297"/>
     <use xlink:href="#DejaVuSans-74" x="366.308594"/>
     <use xlink:href="#DejaVuSans-6f" x="405.517578"/>
     <use xlink:href="#DejaVuSans-72" x="466.699219"/>
     <use xlink:href="#DejaVuSans-20" x="507.8125"/>
     <use xlink:href="#DejaVuSans-61" x="539.599609"/>
     <use xlink:href="#DejaVuSans-6e" x="600.878906"/>
     <use xlink:href="#DejaVuSans-64" x="664.257812"/>
     <use xlink:href="#DejaVuSans-20" x="727.734375"/>
     <use xlink:href="#DejaVuSans-44" x="759.521484"/>
     <use xlink:href="#DejaVuSans-69" x="836.523438"/>
     <use xlink:href="#DejaVuSans-73" x="864.306641"/>
     <use xlink:href="#DejaVuSans-63" x="916.40625"/>
     <use xlink:href="#DejaVuSans-72" x="971.386719"/>
     <use xlink:href="#DejaVuSans-69" x="1012.5"/>
     <use xlink:href="#DejaVuSans-6d" x="1040.283203"/>
     <use xlink:href="#DejaVuSans-69" x="1137.695312"/>
     <use xlink:href="#DejaVuSans-6e" x="1165.478516"/>
     <use xlink:href="#DejaVuSans-61" x="1228.857422"/>
     <use xlink:href="#DejaVuSans-74" x="1290.136719"/>
     <use xlink:href="#DejaVuSans-6f" x="1329.345703"/>
     <use xlink:href="#DejaVuSans-72" x="1390.527344"/>
     <use xlink:href="#DejaVuSans-20" x="1431.640625"/>
     <use xlink:href="#DejaVuSans-4c" x="1463.427734"/>
     <use xlink:href="#DejaVuSans-6f" x="1517.390625"/>
     <use xlink:href="#DejaVuSans-73" x="1578.572266"/>
     <use xlink:href="#DejaVuSans-73" x="1630.671875"/>
     <use xlink:href="#DejaVuSans-20" x="1682.771484"/>
     <use xlink:href="#DejaVuSans-44" x="1714.558594"/>
     <use xlink:href="#DejaVuSans-75" x="1791.560547"/>
     <use xlink:href="#DejaVuSans-72" x="1854.939453"/>
     <use xlink:href="#DejaVuSans-69" x="1896.052734"/>
     <use xlink:href="#DejaVuSans-6e" x="1923.835938"/>
     <use xlink:href="#DejaVuSans-67" x="1987.214844"/>
     <use xlink:href="#DejaVuSans-20" x="2050.691406"/>
     <use xlink:href="#DejaVuSans-54" x="2082.478516"/>
     <use xlink:href="#DejaVuSans-72" x="2128.8125"/>
     <use xlink:href="#DejaVuSans-61" x="2169.925781"/>
     <use xlink:href="#DejaVuSans-69" x="2231.205078"/>
     <use xlink:href="#DejaVuSans-6e" x="2258.988281"/>
     <use xlink:href="#DejaVuSans-69" x="2322.367188"/>
     <use xlink:href="#DejaVuSans-6e" x="2350.150391"/>
     <use xlink:href="#DejaVuSans-67" x="2413.529297"/>
    </g>
   </g>
   <g id="legend_1">
    <g id="patch_7">
     <path d="M 556.99375 106.14875 
L 636.490625 106.14875 
Q 640.490625 106.14875 640.490625 102.14875 
L 640.490625 45.43625 
Q 640.490625 41.43625 636.490625 41.43625 
L 556.99375 41.43625 
Q 552.99375 41.43625 552.99375 45.43625 
L 552.99375 102.14875 
Q 552.99375 106.14875 556.99375 106.14875 
z
" style="fill: #ffffff; opacity: 0.8; stroke: #cccccc; stroke-linejoin: miter"/>
    </g>
    <g id="line2d_14">
     <path d="M 560.99375 57.633125 
L 580.99375 57.633125 
L 600.99375 57.633125 
" style="fill: none; stroke: #1f77b4; stroke-width: 1.5; stroke-linecap: square"/>
    </g>
    <g id="text_15">
     <!-- G -->
     <g transform="translate(616.99375 64.633125) scale(0.2 -0.2)">
      <use xlink:href="#DejaVuSans-47"/>
     </g>
    </g>
    <g id="line2d_15">
     <path d="M 560.99375 86.989375 
L 580.99375 86.989375 
L 600.99375 86.989375 
" style="fill: none; stroke: #ff7f0e; stroke-width: 1.5; stroke-linecap: square"/>
    </g>
    <g id="text_16">
     <!-- D -->
     <g transform="translate(616.99375 93.989375) scale(0.2 -0.2)">
      <use xlink:href="#DejaVuSans-44"/>
     </g>
    </g>
   </g>
  </g>
 </g>
 <defs>
  <clipPath id="p412486dbbd">
   <rect x="92.490625" y="31.43625" width="558" height="277.2"/>
  </clipPath>
 </defs>
</svg>
