<?xml version="1.0" encoding="utf-8" standalone="no"?>
<!DOCTYPE svg PUBLIC "-//W3C//DTD SVG 1.1//EN"
  "http://www.w3.org/Graphics/SVG/1.1/DTD/svg11.dtd">
<svg xmlns:xlink="http://www.w3.org/1999/xlink" width="675.923125pt" height="365.54875pt" viewBox="0 0 675.923125 365.54875" xmlns="http://www.w3.org/2000/svg" version="1.1">
 <metadata>
  <rdf:RDF xmlns:dc="http://purl.org/dc/elements/1.1/" xmlns:cc="http://creativecommons.org/ns#" xmlns:rdf="http://www.w3.org/1999/02/22-rdf-syntax-ns#">
   <cc:Work>
    <dc:type rdf:resource="http://purl.org/dc/dcmitype/StillImage"/>
    <dc:date>2024-02-04T00:48:42.590859</dc:date>
    <dc:format>image/svg+xml</dc:format>
    <dc:creator>
     <cc:Agent>
      <dc:title>Matplotlib v3.7.2, https://matplotlib.org/</dc:title>
     </cc:Agent>
    </dc:creator>
   </cc:Work>
  </rdf:RDF>
 </metadata>
 <defs>
  <style type="text/css">*{stroke-linejoin: round; stroke-linecap: butt}</style>
 </defs>
 <g id="figure_1">
  <g id="patch_1">
   <path d="M 0 365.54875 
L 675.923125 365.54875 
L 675.923125 -0 
L 0 -0 
z
" style="fill: #ffffff"/>
  </g>
  <g id="axes_1">
   <g id="patch_2">
    <path d="M 92.490625 308.63625 
L 650.490625 308.63625 
L 650.490625 31.43625 
L 92.490625 31.43625 
z
" style="fill: #ffffff"/>
   </g>
   <g id="matplotlib.axis_1">
    <g id="xtick_1">
     <g id="line2d_1">
      <defs>
       <path id="me465523765" d="M 0 0 
L 0 3.5 
" style="stroke: #000000; stroke-width: 0.8"/>
      </defs>
      <g>
       <use xlink:href="#me465523765" x="117.854261" y="308.63625" style="stroke: #000000; stroke-width: 0.8"/>
      </g>
     </g>
     <g id="text_1">
      <!-- 0 -->
      <g transform="translate(111.491761 330.833125) scale(0.2 -0.2)">
       <defs>
        <path id="DejaVuSans-30" d="M 2034 4250 
Q 1547 4250 1301 3770 
Q 1056 3291 1056 2328 
Q 1056 1369 1301 889 
Q 1547 409 2034 409 
Q 2525 409 2770 889 
Q 3016 1369 3016 2328 
Q 3016 3291 2770 3770 
Q 2525 4250 2034 4250 
z
M 2034 4750 
Q 2819 4750 3233 4129 
Q 3647 3509 3647 2328 
Q 3647 1150 3233 529 
Q 2819 -91 2034 -91 
Q 1250 -91 836 529 
Q 422 1150 422 2328 
Q 422 3509 836 4129 
Q 1250 4750 2034 4750 
z
" transform="scale(0.015625)"/>
       </defs>
       <use xlink:href="#DejaVuSans-30"/>
      </g>
     </g>
    </g>
    <g id="xtick_2">
     <g id="line2d_2">
      <g>
       <use xlink:href="#me465523765" x="237.21255" y="308.63625" style="stroke: #000000; stroke-width: 0.8"/>
      </g>
     </g>
     <g id="text_2">
      <!-- 200 -->
      <g transform="translate(218.12505 330.833125) scale(0.2 -0.2)">
       <defs>
        <path id="DejaVuSans-32" d="M 1228 531 
L 3431 531 
L 3431 0 
L 469 0 
L 469 531 
Q 828 903 1448 1529 
Q 2069 2156 2228 2338 
Q 2531 2678 2651 2914 
Q 2772 3150 2772 3378 
Q 2772 3750 2511 3984 
Q 2250 4219 1831 4219 
Q 1534 4219 1204 4116 
Q 875 4013 500 3803 
L 500 4441 
Q 881 4594 1212 4672 
Q 1544 4750 1819 4750 
Q 2544 4750 2975 4387 
Q 3406 4025 3406 3419 
Q 3406 3131 3298 2873 
Q 3191 2616 2906 2266 
Q 2828 2175 2409 1742 
Q 1991 1309 1228 531 
z
" transform="scale(0.015625)"/>
       </defs>
       <use xlink:href="#DejaVuSans-32"/>
       <use xlink:href="#DejaVuSans-30" x="63.623047"/>
       <use xlink:href="#DejaVuSans-30" x="127.246094"/>
      </g>
     </g>
    </g>
    <g id="xtick_3">
     <g id="line2d_3">
      <g>
       <use xlink:href="#me465523765" x="356.570839" y="308.63625" style="stroke: #000000; stroke-width: 0.8"/>
      </g>
     </g>
     <g id="text_3">
      <!-- 400 -->
      <g transform="translate(337.483339 330.833125) scale(0.2 -0.2)">
       <defs>
        <path id="DejaVuSans-34" d="M 2419 4116 
L 825 1625 
L 2419 1625 
L 2419 4116 
z
M 2253 4666 
L 3047 4666 
L 3047 1625 
L 3713 1625 
L 3713 1100 
L 3047 1100 
L 3047 0 
L 2419 0 
L 2419 1100 
L 313 1100 
L 313 1709 
L 2253 4666 
z
" transform="scale(0.015625)"/>
       </defs>
       <use xlink:href="#DejaVuSans-34"/>
       <use xlink:href="#DejaVuSans-30" x="63.623047"/>
       <use xlink:href="#DejaVuSans-30" x="127.246094"/>
      </g>
     </g>
    </g>
    <g id="xtick_4">
     <g id="line2d_4">
      <g>
       <use xlink:href="#me465523765" x="475.929128" y="308.63625" style="stroke: #000000; stroke-width: 0.8"/>
      </g>
     </g>
     <g id="text_4">
      <!-- 600 -->
      <g transform="translate(456.841628 330.833125) scale(0.2 -0.2)">
       <defs>
        <path id="DejaVuSans-36" d="M 2113 2584 
Q 1688 2584 1439 2293 
Q 1191 2003 1191 1497 
Q 1191 994 1439 701 
Q 1688 409 2113 409 
Q 2538 409 2786 701 
Q 3034 994 3034 1497 
Q 3034 2003 2786 2293 
Q 2538 2584 2113 2584 
z
M 3366 4563 
L 3366 3988 
Q 3128 4100 2886 4159 
Q 2644 4219 2406 4219 
Q 1781 4219 1451 3797 
Q 1122 3375 1075 2522 
Q 1259 2794 1537 2939 
Q 1816 3084 2150 3084 
Q 2853 3084 3261 2657 
Q 3669 2231 3669 1497 
Q 3669 778 3244 343 
Q 2819 -91 2113 -91 
Q 1303 -91 875 529 
Q 447 1150 447 2328 
Q 447 3434 972 4092 
Q 1497 4750 2381 4750 
Q 2619 4750 2861 4703 
Q 3103 4656 3366 4563 
z
" transform="scale(0.015625)"/>
       </defs>
       <use xlink:href="#DejaVuSans-36"/>
       <use xlink:href="#DejaVuSans-30" x="63.623047"/>
       <use xlink:href="#DejaVuSans-30" x="127.246094"/>
      </g>
     </g>
    </g>
    <g id="xtick_5">
     <g id="line2d_5">
      <g>
       <use xlink:href="#me465523765" x="595.287416" y="308.63625" style="stroke: #000000; stroke-width: 0.8"/>
      </g>
     </g>
     <g id="text_5">
      <!-- 800 -->
      <g transform="translate(576.199916 330.833125) scale(0.2 -0.2)">
       <defs>
        <path id="DejaVuSans-38" d="M 2034 2216 
Q 1584 2216 1326 1975 
Q 1069 1734 1069 1313 
Q 1069 891 1326 650 
Q 1584 409 2034 409 
Q 2484 409 2743 651 
Q 3003 894 3003 1313 
Q 3003 1734 2745 1975 
Q 2488 2216 2034 2216 
z
M 1403 2484 
Q 997 2584 770 2862 
Q 544 3141 544 3541 
Q 544 4100 942 4425 
Q 1341 4750 2034 4750 
Q 2731 4750 3128 4425 
Q 3525 4100 3525 3541 
Q 3525 3141 3298 2862 
Q 3072 2584 2669 2484 
Q 3125 2378 3379 2068 
Q 3634 1759 3634 1313 
Q 3634 634 3220 271 
Q 2806 -91 2034 -91 
Q 1263 -91 848 271 
Q 434 634 434 1313 
Q 434 1759 690 2068 
Q 947 2378 1403 2484 
z
M 1172 3481 
Q 1172 3119 1398 2916 
Q 1625 2713 2034 2713 
Q 2441 2713 2670 2916 
Q 2900 3119 2900 3481 
Q 2900 3844 2670 4047 
Q 2441 4250 2034 4250 
Q 1625 4250 1398 4047 
Q 1172 3844 1172 3481 
z
" transform="scale(0.015625)"/>
       </defs>
       <use xlink:href="#DejaVuSans-38"/>
       <use xlink:href="#DejaVuSans-30" x="63.623047"/>
       <use xlink:href="#DejaVuSans-30" x="127.246094"/>
      </g>
     </g>
    </g>
    <g id="text_6">
     <!-- iterations -->
     <g transform="translate(324.035938 354.189375) scale(0.2 -0.2)">
      <defs>
       <path id="DejaVuSans-69" d="M 603 3500 
L 1178 3500 
L 1178 0 
L 603 0 
L 603 3500 
z
M 603 4863 
L 1178 4863 
L 1178 4134 
L 603 4134 
L 603 4863 
z
" transform="scale(0.015625)"/>
       <path id="DejaVuSans-74" d="M 1172 4494 
L 1172 3500 
L 2356 3500 
L 2356 3053 
L 1172 3053 
L 1172 1153 
Q 1172 725 1289 603 
Q 1406 481 1766 481 
L 2356 481 
L 2356 0 
L 1766 0 
Q 1100 0 847 248 
Q 594 497 594 1153 
L 594 3053 
L 172 3053 
L 172 3500 
L 594 3500 
L 594 4494 
L 1172 4494 
z
" transform="scale(0.015625)"/>
       <path id="DejaVuSans-65" d="M 3597 1894 
L 3597 1613 
L 953 1613 
Q 991 1019 1311 708 
Q 1631 397 2203 397 
Q 2534 397 2845 478 
Q 3156 559 3463 722 
L 3463 178 
Q 3153 47 2828 -22 
Q 2503 -91 2169 -91 
Q 1331 -91 842 396 
Q 353 884 353 1716 
Q 353 2575 817 3079 
Q 1281 3584 2069 3584 
Q 2775 3584 3186 3129 
Q 3597 2675 3597 1894 
z
M 3022 2063 
Q 3016 2534 2758 2815 
Q 2500 3097 2075 3097 
Q 1594 3097 1305 2825 
Q 1016 2553 972 2059 
L 3022 2063 
z
" transform="scale(0.015625)"/>
       <path id="DejaVuSans-72" d="M 2631 2963 
Q 2534 3019 2420 3045 
Q 2306 3072 2169 3072 
Q 1681 3072 1420 2755 
Q 1159 2438 1159 1844 
L 1159 0 
L 581 0 
L 581 3500 
L 1159 3500 
L 1159 2956 
Q 1341 3275 1631 3429 
Q 1922 3584 2338 3584 
Q 2397 3584 2469 3576 
Q 2541 3569 2628 3553 
L 2631 2963 
z
" transform="scale(0.015625)"/>
       <path id="DejaVuSans-61" d="M 2194 1759 
Q 1497 1759 1228 1600 
Q 959 1441 959 1056 
Q 959 750 1161 570 
Q 1363 391 1709 391 
Q 2188 391 2477 730 
Q 2766 1069 2766 1631 
L 2766 1759 
L 2194 1759 
z
M 3341 1997 
L 3341 0 
L 2766 0 
L 2766 531 
Q 2569 213 2275 61 
Q 1981 -91 1556 -91 
Q 1019 -91 701 211 
Q 384 513 384 1019 
Q 384 1609 779 1909 
Q 1175 2209 1959 2209 
L 2766 2209 
L 2766 2266 
Q 2766 2663 2505 2880 
Q 2244 3097 1772 3097 
Q 1472 3097 1187 3025 
Q 903 2953 641 2809 
L 641 3341 
Q 956 3463 1253 3523 
Q 1550 3584 1831 3584 
Q 2591 3584 2966 3190 
Q 3341 2797 3341 1997 
z
" transform="scale(0.015625)"/>
       <path id="DejaVuSans-6f" d="M 1959 3097 
Q 1497 3097 1228 2736 
Q 959 2375 959 1747 
Q 959 1119 1226 758 
Q 1494 397 1959 397 
Q 2419 397 2687 759 
Q 2956 1122 2956 1747 
Q 2956 2369 2687 2733 
Q 2419 3097 1959 3097 
z
M 1959 3584 
Q 2709 3584 3137 3096 
Q 3566 2609 3566 1747 
Q 3566 888 3137 398 
Q 2709 -91 1959 -91 
Q 1206 -91 779 398 
Q 353 888 353 1747 
Q 353 2609 779 3096 
Q 1206 3584 1959 3584 
z
" transform="scale(0.015625)"/>
       <path id="DejaVuSans-6e" d="M 3513 2113 
L 3513 0 
L 2938 0 
L 2938 2094 
Q 2938 2591 2744 2837 
Q 2550 3084 2163 3084 
Q 1697 3084 1428 2787 
Q 1159 2491 1159 1978 
L 1159 0 
L 581 0 
L 581 3500 
L 1159 3500 
L 1159 2956 
Q 1366 3272 1645 3428 
Q 1925 3584 2291 3584 
Q 2894 3584 3203 3211 
Q 3513 2838 3513 2113 
z
" transform="scale(0.015625)"/>
       <path id="DejaVuSans-73" d="M 2834 3397 
L 2834 2853 
Q 2591 2978 2328 3040 
Q 2066 3103 1784 3103 
Q 1356 3103 1142 2972 
Q 928 2841 928 2578 
Q 928 2378 1081 2264 
Q 1234 2150 1697 2047 
L 1894 2003 
Q 2506 1872 2764 1633 
Q 3022 1394 3022 966 
Q 3022 478 2636 193 
Q 2250 -91 1575 -91 
Q 1294 -91 989 -36 
Q 684 19 347 128 
L 347 722 
Q 666 556 975 473 
Q 1284 391 1588 391 
Q 1994 391 2212 530 
Q 2431 669 2431 922 
Q 2431 1156 2273 1281 
Q 2116 1406 1581 1522 
L 1381 1569 
Q 847 1681 609 1914 
Q 372 2147 372 2553 
Q 372 3047 722 3315 
Q 1072 3584 1716 3584 
Q 2034 3584 2315 3537 
Q 2597 3491 2834 3397 
z
" transform="scale(0.015625)"/>
      </defs>
      <use xlink:href="#DejaVuSans-69"/>
      <use xlink:href="#DejaVuSans-74" x="27.783203"/>
      <use xlink:href="#DejaVuSans-65" x="66.992188"/>
      <use xlink:href="#DejaVuSans-72" x="128.515625"/>
      <use xlink:href="#DejaVuSans-61" x="169.628906"/>
      <use xlink:href="#DejaVuSans-74" x="230.908203"/>
      <use xlink:href="#DejaVuSans-69" x="270.117188"/>
      <use xlink:href="#DejaVuSans-6f" x="297.900391"/>
      <use xlink:href="#DejaVuSans-6e" x="359.082031"/>
      <use xlink:href="#DejaVuSans-73" x="422.460938"/>
     </g>
    </g>
   </g>
   <g id="matplotlib.axis_2">
    <g id="ytick_1">
     <g id="line2d_6">
      <defs>
       <path id="m8c4c95d5d7" d="M 0 0 
L -3.5 0 
" style="stroke: #000000; stroke-width: 0.8"/>
      </defs>
      <g>
       <use xlink:href="#m8c4c95d5d7" x="92.490625" y="295.148568" style="stroke: #000000; stroke-width: 0.8"/>
      </g>
     </g>
     <g id="text_7">
      <!-- −400 -->
      <g transform="translate(30.55625 302.747005) scale(0.2 -0.2)">
       <defs>
        <path id="DejaVuSans-2212" d="M 678 2272 
L 4684 2272 
L 4684 1741 
L 678 1741 
L 678 2272 
z
" transform="scale(0.015625)"/>
       </defs>
       <use xlink:href="#DejaVuSans-2212"/>
       <use xlink:href="#DejaVuSans-34" x="83.789062"/>
       <use xlink:href="#DejaVuSans-30" x="147.412109"/>
       <use xlink:href="#DejaVuSans-30" x="211.035156"/>
      </g>
     </g>
    </g>
    <g id="ytick_2">
     <g id="line2d_7">
      <g>
       <use xlink:href="#m8c4c95d5d7" x="92.490625" y="237.405832" style="stroke: #000000; stroke-width: 0.8"/>
      </g>
     </g>
     <g id="text_8">
      <!-- −200 -->
      <g transform="translate(30.55625 245.00427) scale(0.2 -0.2)">
       <use xlink:href="#DejaVuSans-2212"/>
       <use xlink:href="#DejaVuSans-32" x="83.789062"/>
       <use xlink:href="#DejaVuSans-30" x="147.412109"/>
       <use xlink:href="#DejaVuSans-30" x="211.035156"/>
      </g>
     </g>
    </g>
    <g id="ytick_3">
     <g id="line2d_8">
      <g>
       <use xlink:href="#m8c4c95d5d7" x="92.490625" y="179.663097" style="stroke: #000000; stroke-width: 0.8"/>
      </g>
     </g>
     <g id="text_9">
      <!-- 0 -->
      <g transform="translate(72.765625 187.261534) scale(0.2 -0.2)">
       <use xlink:href="#DejaVuSans-30"/>
      </g>
     </g>
    </g>
    <g id="ytick_4">
     <g id="line2d_9">
      <g>
       <use xlink:href="#m8c4c95d5d7" x="92.490625" y="121.920361" style="stroke: #000000; stroke-width: 0.8"/>
      </g>
     </g>
     <g id="text_10">
      <!-- 200 -->
      <g transform="translate(47.315625 129.518799) scale(0.2 -0.2)">
       <use xlink:href="#DejaVuSans-32"/>
       <use xlink:href="#DejaVuSans-30" x="63.623047"/>
       <use xlink:href="#DejaVuSans-30" x="127.246094"/>
      </g>
     </g>
    </g>
    <g id="ytick_5">
     <g id="line2d_10">
      <g>
       <use xlink:href="#m8c4c95d5d7" x="92.490625" y="64.177625" style="stroke: #000000; stroke-width: 0.8"/>
      </g>
     </g>
     <g id="text_11">
      <!-- 400 -->
      <g transform="translate(47.315625 71.776063) scale(0.2 -0.2)">
       <use xlink:href="#DejaVuSans-34"/>
       <use xlink:href="#DejaVuSans-30" x="63.623047"/>
       <use xlink:href="#DejaVuSans-30" x="127.246094"/>
      </g>
     </g>
    </g>
    <g id="text_12">
     <!-- Loss -->
     <g transform="translate(22.396875 191.970625) rotate(-90) scale(0.2 -0.2)">
      <defs>
       <path id="DejaVuSans-4c" d="M 628 4666 
L 1259 4666 
L 1259 531 
L 3531 531 
L 3531 0 
L 628 0 
L 628 4666 
z
" transform="scale(0.015625)"/>
      </defs>
      <use xlink:href="#DejaVuSans-4c"/>
      <use xlink:href="#DejaVuSans-6f" x="53.962891"/>
      <use xlink:href="#DejaVuSans-73" x="115.144531"/>
      <use xlink:href="#DejaVuSans-73" x="167.244141"/>
     </g>
    </g>
   </g>
   <g id="line2d_11">
    <path d="M 117.854261 139.751496 
L 118.451053 144.722794 
L 119.047844 162.598831 
L 119.644636 109.941422 
L 120.241427 44.03625 
L 120.838219 89.448318 
L 121.43501 77.551362 
L 122.628593 106.365093 
L 123.225384 109.725828 
L 123.822176 120.640356 
L 124.418967 119.204262 
L 125.015759 119.595028 
L 125.61255 123.111252 
L 126.209342 128.275629 
L 126.806133 126.631141 
L 127.402924 125.789985 
L 128.596507 114.95142 
L 129.193299 111.128382 
L 129.79009 114.143471 
L 130.983673 125.682262 
L 131.580465 126.858032 
L 132.177256 129.516622 
L 132.774047 138.461754 
L 133.370839 144.970436 
L 133.96763 142.237891 
L 134.564422 146.018436 
L 135.161213 148.27681 
L 135.758005 152.985986 
L 136.354796 146.939282 
L 136.951588 145.550269 
L 137.548379 146.154845 
L 138.14517 143.578088 
L 138.741962 142.120697 
L 139.338753 138.82778 
L 139.935545 137.32097 
L 140.532336 140.170434 
L 141.129128 149.749148 
L 141.725919 145.161919 
L 142.322711 144.809135 
L 142.919502 141.918695 
L 143.516293 142.056481 
L 144.113085 142.689369 
L 145.306668 144.888742 
L 145.903459 147.579569 
L 146.500251 144.557811 
L 147.097042 146.19867 
L 147.693834 147.266567 
L 148.290625 141.963787 
L 148.887416 146.561523 
L 149.484208 145.704415 
L 150.080999 146.942807 
L 150.677791 146.571102 
L 151.871374 151.018944 
L 152.468165 149.433482 
L 153.064957 151.088431 
L 153.661748 151.882622 
L 154.258539 152.057159 
L 154.855331 155.39376 
L 155.452122 154.443253 
L 156.048914 155.064561 
L 156.645705 157.186868 
L 157.242497 157.456633 
L 157.839288 157.874685 
L 158.43608 161.618246 
L 159.032871 159.61991 
L 159.629662 160.24721 
L 160.226454 159.359568 
L 160.823245 159.626263 
L 161.420037 162.870984 
L 162.016828 162.820485 
L 162.61362 164.349312 
L 163.210411 160.682349 
L 163.807203 164.299326 
L 164.403994 159.838717 
L 165.000785 160.412177 
L 165.597577 159.96084 
L 166.194368 162.549048 
L 166.79116 159.617214 
L 167.387951 162.521514 
L 168.581534 164.689134 
L 169.178326 166.947126 
L 169.775117 167.327422 
L 170.371908 166.729629 
L 170.9687 167.759036 
L 171.565491 165.917583 
L 172.162283 169.659523 
L 172.759074 169.737889 
L 173.355866 170.755676 
L 173.952657 167.899051 
L 174.549449 169.586443 
L 175.743031 170.564861 
L 176.339823 169.882117 
L 176.936614 172.760942 
L 177.533406 170.967299 
L 178.130197 170.438895 
L 178.726989 170.860476 
L 179.32378 172.297656 
L 179.920572 171.898915 
L 180.517363 172.457074 
L 181.114154 171.412696 
L 181.710946 172.181458 
L 182.904529 169.350699 
L 183.50132 171.819749 
L 184.098112 170.702797 
L 184.694903 170.386568 
L 185.291695 171.764484 
L 185.888486 170.363681 
L 186.485277 170.943923 
L 187.082069 171.742956 
L 187.67886 173.321088 
L 188.275652 173.543595 
L 188.872443 173.401278 
L 189.469235 172.410984 
L 190.066026 172.754716 
L 190.662818 172.896141 
L 191.259609 172.496494 
L 191.8564 172.807733 
L 192.453192 172.372041 
L 193.049983 171.548362 
L 193.646775 172.908841 
L 194.840358 173.751662 
L 195.437149 173.680925 
L 196.033941 174.136271 
L 196.630732 173.041145 
L 197.227523 174.437231 
L 197.824315 172.369407 
L 198.421106 174.972957 
L 199.017898 174.250099 
L 199.614689 175.539665 
L 200.211481 174.034876 
L 200.808272 173.63476 
L 201.405064 174.998044 
L 202.598646 173.713275 
L 203.195438 173.768643 
L 203.792229 174.192507 
L 204.389021 175.217428 
L 204.985812 174.549207 
L 205.582604 175.102351 
L 206.179395 173.000769 
L 206.776186 173.396092 
L 207.969769 172.24628 
L 208.566561 173.830064 
L 209.163352 172.971341 
L 209.760144 175.344392 
L 210.356935 176.316089 
L 211.550518 174.720648 
L 212.147309 175.750386 
L 212.744101 175.270053 
L 213.340892 175.659534 
L 213.937684 175.802949 
L 214.534475 176.777934 
L 215.131267 176.066467 
L 215.728058 174.60952 
L 216.32485 175.701538 
L 216.921641 177.18643 
L 217.518432 177.146097 
L 218.712015 176.671732 
L 219.308807 177.625823 
L 219.905598 178.826261 
L 220.50239 178.840463 
L 221.099181 178.124467 
L 221.695973 178.644971 
L 222.292764 177.639782 
L 222.889555 178.637141 
L 223.486347 178.333677 
L 224.083138 178.623996 
L 224.67993 178.507095 
L 225.276721 178.055754 
L 225.873513 178.154192 
L 226.470304 177.461703 
L 227.663887 178.66269 
L 228.260678 178.675581 
L 228.85747 178.230668 
L 229.454261 178.09883 
L 230.051053 178.652588 
L 230.647844 177.930105 
L 232.438219 179.523749 
L 233.03501 178.940492 
L 233.631801 180.274731 
L 234.228593 179.956917 
L 234.825384 179.352725 
L 235.422176 180.378575 
L 236.018967 179.36548 
L 236.615759 179.641085 
L 237.21255 178.456831 
L 239.002924 179.82643 
L 239.599716 180.00236 
L 240.196507 180.935344 
L 240.793299 180.224525 
L 241.39009 180.851568 
L 241.986882 179.961341 
L 242.583673 180.187773 
L 243.180465 180.141461 
L 243.777256 181.494606 
L 244.374047 179.749474 
L 244.970839 181.661703 
L 245.56763 180.841325 
L 246.164422 181.108068 
L 246.761213 180.436024 
L 247.358005 181.135765 
L 247.954796 182.051575 
L 248.551588 181.42228 
L 249.148379 181.417484 
L 249.74517 181.192607 
L 250.341962 181.70878 
L 251.535545 183.370872 
L 252.132336 182.602122 
L 252.729128 181.152498 
L 253.325919 182.618152 
L 253.922711 182.96134 
L 254.519502 182.33576 
L 255.116293 182.827178 
L 255.713085 182.95431 
L 256.309876 182.864038 
L 256.906668 182.510754 
L 257.503459 183.230302 
L 258.100251 182.899408 
L 258.697042 183.054188 
L 259.890625 183.659796 
L 260.487416 183.253415 
L 261.084208 182.987873 
L 261.680999 183.77546 
L 262.277791 182.660957 
L 262.874582 183.157786 
L 263.471374 182.728784 
L 264.068165 183.01416 
L 264.664957 183.988878 
L 265.261748 184.529058 
L 265.858539 184.064193 
L 266.455331 184.222385 
L 267.052122 183.845806 
L 268.245705 183.780493 
L 269.439288 183.786981 
L 270.632871 183.979283 
L 271.229662 184.288766 
L 271.826454 184.176505 
L 273.020037 184.239144 
L 273.616828 184.552823 
L 274.810411 184.184467 
L 275.407203 184.679586 
L 276.003994 184.656079 
L 276.600785 184.883799 
L 277.197577 184.518958 
L 277.794368 184.613429 
L 278.987951 184.125656 
L 279.584743 184.52696 
L 280.181534 184.677067 
L 280.778326 184.492818 
L 281.375117 184.456798 
L 281.971908 185.084062 
L 282.5687 184.766681 
L 283.165491 184.134889 
L 283.762283 184.583512 
L 284.359074 184.059195 
L 284.955866 184.615016 
L 285.552657 184.953905 
L 286.149449 184.443376 
L 286.74624 183.458362 
L 287.343031 183.980596 
L 287.939823 184.344202 
L 288.536614 183.849578 
L 289.133406 184.253663 
L 289.730197 184.82729 
L 290.326989 184.469422 
L 290.92378 185.046916 
L 291.520572 184.443785 
L 292.117363 184.476484 
L 292.714154 184.368245 
L 293.310946 183.937993 
L 294.504529 184.013952 
L 295.10132 184.777115 
L 295.698112 184.99747 
L 296.294903 183.772517 
L 296.891695 184.035706 
L 297.488486 184.102105 
L 298.085277 184.288311 
L 298.682069 184.173766 
L 299.27886 184.293227 
L 299.875652 184.00341 
L 300.472443 184.199036 
L 301.666026 184.092655 
L 302.262818 184.455043 
L 303.4564 184.287347 
L 304.053192 184.290951 
L 304.649983 183.727209 
L 305.843566 184.605861 
L 307.037149 184.274913 
L 307.633941 184.874952 
L 308.230732 184.9632 
L 308.827523 185.316616 
L 309.424315 185.323023 
L 310.021106 184.748002 
L 310.617898 184.519384 
L 311.214689 184.862935 
L 311.811481 184.523637 
L 313.005064 184.617477 
L 313.601855 184.415773 
L 314.198646 184.568713 
L 315.392229 183.720718 
L 315.989021 183.962436 
L 316.585812 183.809039 
L 317.182604 184.237151 
L 317.779395 184.03921 
L 318.376186 184.086871 
L 318.972978 184.247767 
L 321.360144 184.360026 
L 321.956935 184.510466 
L 322.553727 184.111391 
L 323.747309 184.1085 
L 324.344101 183.809955 
L 324.940892 184.328808 
L 325.537684 183.780577 
L 326.134475 184.626633 
L 326.731267 183.751032 
L 327.328058 183.766926 
L 327.92485 184.064515 
L 329.118432 184.284459 
L 329.715224 184.067987 
L 330.312015 184.061054 
L 330.908807 183.094892 
L 332.10239 183.743901 
L 332.699181 184.677753 
L 333.892764 183.939998 
L 334.489555 184.251046 
L 335.086347 184.200395 
L 335.683138 183.966637 
L 337.473513 184.067416 
L 338.070304 183.732881 
L 338.667096 184.6301 
L 339.263887 184.169221 
L 339.860678 183.967957 
L 340.45747 184.074859 
L 341.054261 183.424278 
L 341.651053 184.070452 
L 345.231801 183.61208 
L 345.828593 183.740517 
L 346.425384 184.238776 
L 347.022176 183.488428 
L 348.215759 183.851165 
L 349.409342 183.710228 
L 350.006133 183.838051 
L 351.796507 183.82598 
L 352.99009 183.289922 
L 353.586882 183.561546 
L 354.183673 183.463037 
L 354.780465 183.594836 
L 355.377256 183.446234 
L 355.974047 183.573195 
L 356.570839 183.125697 
L 357.16763 183.257786 
L 357.764422 183.147491 
L 358.361213 182.907027 
L 358.958005 183.072826 
L 359.554796 183.771144 
L 360.151588 183.213293 
L 360.748379 182.883006 
L 361.34517 183.23388 
L 361.941962 183.288898 
L 362.538753 183.483698 
L 363.135545 183.068249 
L 364.329128 183.287115 
L 364.925919 183.159291 
L 365.522711 183.559667 
L 366.119502 183.361178 
L 366.716293 183.401738 
L 367.313085 183.750652 
L 367.909876 183.301438 
L 368.506668 183.920194 
L 369.103459 183.57105 
L 370.297042 183.171462 
L 370.893834 183.961579 
L 371.490625 184.187983 
L 372.087416 184.128509 
L 372.684208 183.744035 
L 373.280999 184.037423 
L 373.877791 183.771991 
L 374.474582 184.014808 
L 375.668165 183.771839 
L 376.861748 183.874599 
L 377.458539 184.11918 
L 378.055331 184.044082 
L 378.652122 183.77541 
L 379.248914 183.297732 
L 379.845705 183.237449 
L 380.442497 183.889617 
L 381.63608 183.403603 
L 382.232871 183.638456 
L 382.829662 183.237933 
L 383.426454 183.478615 
L 384.620037 183.355926 
L 385.216828 183.629338 
L 385.81362 183.641067 
L 386.410411 183.380171 
L 387.007203 183.35723 
L 387.603994 183.559473 
L 388.200785 183.546734 
L 389.394368 184.281031 
L 390.587951 184.485685 
L 391.184743 183.961286 
L 391.781534 184.134919 
L 392.378326 183.670988 
L 392.975117 183.955958 
L 393.571908 183.86234 
L 394.1687 183.350208 
L 394.765491 184.152244 
L 395.362283 183.509946 
L 395.959074 183.848731 
L 398.943031 184.314536 
L 399.539823 183.967137 
L 400.733406 184.477344 
L 401.330197 184.298746 
L 401.926989 183.977648 
L 402.52378 184.087434 
L 403.120572 184.402455 
L 404.314154 184.508636 
L 404.910946 183.924588 
L 406.104529 184.370312 
L 406.70132 184.261772 
L 407.298112 184.387189 
L 407.894903 184.22331 
L 408.491695 184.502419 
L 409.088486 184.57622 
L 409.685277 184.528911 
L 410.282069 184.61146 
L 412.072443 184.47329 
L 413.266026 184.449592 
L 414.459609 184.542384 
L 415.0564 184.103415 
L 415.653192 183.93274 
L 416.249983 184.643783 
L 416.846775 184.946179 
L 417.443566 184.625262 
L 418.040358 184.744458 
L 418.637149 184.123365 
L 419.233941 184.379415 
L 419.830732 184.333722 
L 420.427523 183.967268 
L 422.814689 183.902133 
L 423.411481 183.658483 
L 424.008272 184.056607 
L 425.201855 184.025916 
L 425.798646 183.864077 
L 426.395438 184.022285 
L 426.992229 184.414301 
L 427.589021 184.354348 
L 428.185812 184.134181 
L 429.379395 184.180303 
L 430.572978 183.895296 
L 431.169769 184.035501 
L 431.766561 183.811048 
L 432.363352 184.344264 
L 432.960144 183.948619 
L 433.556935 183.94321 
L 434.153727 183.649513 
L 434.750518 183.551772 
L 436.540892 184.018637 
L 437.137684 183.87005 
L 437.734475 183.563759 
L 438.331267 183.636485 
L 438.928058 183.828049 
L 439.52485 184.158674 
L 440.121641 183.668407 
L 440.718432 183.609338 
L 441.315224 183.336489 
L 441.912015 183.443337 
L 443.105598 183.992413 
L 443.70239 183.9525 
L 444.299181 183.591024 
L 444.895973 183.866701 
L 445.492764 183.821246 
L 446.089555 183.532774 
L 446.686347 183.614149 
L 447.87993 183.406414 
L 448.476721 183.598981 
L 449.073513 183.11501 
L 450.863887 183.699908 
L 452.654261 183.256929 
L 453.251053 183.53883 
L 453.847844 183.211051 
L 454.444636 183.496829 
L 455.041427 183.146545 
L 455.638219 183.510771 
L 456.23501 183.53694 
L 456.831801 183.138242 
L 457.428593 182.937259 
L 458.622176 183.56218 
L 459.218967 183.294892 
L 460.41255 183.236702 
L 461.009342 183.185423 
L 462.202924 183.572691 
L 463.396507 183.287384 
L 464.59009 183.374488 
L 465.186882 182.964802 
L 465.783673 183.324472 
L 467.574047 183.179447 
L 468.76763 182.909484 
L 469.364422 183.053275 
L 471.154796 182.703301 
L 471.751588 182.928952 
L 472.348379 182.642331 
L 472.94517 183.217741 
L 473.541962 182.641699 
L 474.138753 182.342965 
L 476.525919 182.654454 
L 477.719502 182.04344 
L 478.913085 182.575247 
L 480.106668 182.170588 
L 480.703459 182.086222 
L 481.300251 182.501844 
L 483.090625 182.10379 
L 484.284208 181.997351 
L 484.880999 181.859451 
L 485.477791 182.134081 
L 486.074582 181.989034 
L 487.864957 182.131205 
L 488.461748 181.99641 
L 489.058539 182.274329 
L 489.655331 182.348797 
L 490.252122 182.062362 
L 490.848914 182.172839 
L 491.445705 181.898594 
L 492.042497 182.152763 
L 492.639288 182.165862 
L 493.23608 182.051092 
L 493.832871 182.185709 
L 494.429662 182.104618 
L 495.026454 182.26453 
L 495.623245 182.081845 
L 496.816828 182.247898 
L 497.41362 181.880172 
L 498.010411 182.457096 
L 499.800785 182.123083 
L 500.397577 182.252178 
L 500.994368 181.974846 
L 501.59116 181.92908 
L 502.784743 182.289681 
L 503.381534 182.285905 
L 504.575117 181.982313 
L 505.171908 182.177789 
L 505.7687 181.717284 
L 506.365491 182.115084 
L 506.962283 181.991587 
L 508.752657 182.021724 
L 509.94624 181.672198 
L 510.543031 182.019801 
L 511.139823 181.900228 
L 511.736614 181.976095 
L 512.333406 181.715399 
L 513.526989 181.798032 
L 514.12378 181.819888 
L 514.720572 182.410156 
L 515.317363 182.356757 
L 515.914154 181.928667 
L 517.107737 182.085625 
L 517.704529 181.855502 
L 519.494903 182.06467 
L 520.091695 182.173658 
L 520.688486 181.477344 
L 521.285277 181.563387 
L 522.47886 181.991482 
L 523.075652 181.61934 
L 523.672443 181.66816 
L 524.269235 181.947722 
L 524.866026 181.55457 
L 526.059609 181.537416 
L 526.6564 181.455061 
L 527.253192 181.694866 
L 528.446775 181.499582 
L 529.043566 181.899471 
L 530.237149 181.673316 
L 532.027523 181.880001 
L 532.624315 181.918744 
L 533.221106 181.617495 
L 533.817898 181.882768 
L 536.801855 181.82529 
L 537.398646 182.057315 
L 537.995438 181.858086 
L 538.592229 182.088927 
L 539.785812 181.821125 
L 540.979395 182.074436 
L 541.576186 181.714748 
L 542.172978 181.911808 
L 543.366561 181.892884 
L 544.560144 181.914714 
L 545.156935 182.182074 
L 546.350518 182.094069 
L 546.947309 181.837987 
L 547.544101 182.179586 
L 548.140892 182.106454 
L 548.737684 181.874803 
L 549.334475 182.114865 
L 549.931267 182.202642 
L 551.12485 181.849286 
L 552.318432 181.730861 
L 552.915224 181.946451 
L 553.512015 181.832808 
L 554.108807 181.873687 
L 554.705598 181.671185 
L 555.30239 182.115224 
L 555.899181 181.895581 
L 556.495973 181.819581 
L 557.092764 181.896013 
L 558.883138 181.633087 
L 559.47993 181.837148 
L 560.673513 181.605606 
L 562.463887 181.807993 
L 563.060678 181.75169 
L 563.65747 182.010497 
L 564.254261 181.767403 
L 564.851053 181.929536 
L 565.447844 181.713882 
L 566.044636 181.910084 
L 566.641427 181.715839 
L 567.238219 181.752078 
L 567.83501 181.65318 
L 568.431801 182.018652 
L 569.028593 181.700738 
L 570.222176 182.011431 
L 570.818967 181.88846 
L 571.415759 182.119584 
L 572.01255 181.820852 
L 572.609342 181.794943 
L 573.206133 181.933428 
L 573.802924 181.904922 
L 574.399716 182.315877 
L 574.996507 182.176393 
L 575.593299 181.857772 
L 576.19009 181.741719 
L 576.786882 181.970247 
L 578.577256 181.764419 
L 579.174047 181.566946 
L 579.770839 181.948751 
L 580.964422 181.941357 
L 581.561213 181.635605 
L 582.158005 181.647958 
L 583.351588 181.984615 
L 583.948379 181.775092 
L 584.54517 181.958755 
L 585.141962 181.860021 
L 586.335545 181.968245 
L 587.529128 181.940155 
L 588.125919 182.079896 
L 588.722711 181.972468 
L 589.319502 181.635019 
L 589.916293 181.556081 
L 590.513085 182.018883 
L 591.706668 181.70419 
L 592.900251 181.908331 
L 593.497042 181.801337 
L 594.093834 182.096227 
L 594.690625 182.214674 
L 595.884208 182.045872 
L 596.480999 181.844999 
L 597.077791 182.168191 
L 598.271374 182.260202 
L 598.868165 182.578369 
L 599.464957 182.133033 
L 600.061748 182.356243 
L 600.658539 182.325819 
L 601.255331 182.539144 
L 603.045705 182.338434 
L 604.239288 182.612346 
L 604.83608 182.326725 
L 605.432871 182.233393 
L 606.029662 182.260451 
L 606.626454 181.823559 
L 607.820037 182.496897 
L 608.416828 182.381429 
L 609.01362 182.386388 
L 610.207203 182.018036 
L 611.400785 182.035199 
L 613.19116 182.719011 
L 613.787951 181.980023 
L 614.384743 182.126992 
L 614.981534 182.079339 
L 615.578326 182.281469 
L 616.175117 182.152763 
L 617.3687 182.425524 
L 617.965491 182.648119 
L 618.562283 182.343108 
L 619.159074 182.472849 
L 619.755866 182.278617 
L 620.352657 182.420449 
L 620.949449 182.187931 
L 622.143031 182.345065 
L 622.739823 182.225108 
L 623.336614 182.342791 
L 623.933406 182.20205 
L 624.530197 182.310865 
L 625.126989 182.262567 
L 625.126989 182.262567 
" clip-path="url(#p1b519ea224)" style="fill: none; stroke: #1f77b4; stroke-width: 1.5; stroke-linecap: square"/>
   </g>
   <g id="line2d_12">
    <path d="M 117.854261 296.03625 
L 118.451053 281.604935 
L 119.047844 284.937888 
L 119.644636 246.001987 
L 120.241427 270.950308 
L 120.838219 246.561247 
L 122.031801 226.968639 
L 122.628593 210.778769 
L 123.225384 215.903882 
L 123.822176 216.941819 
L 125.61255 206.772593 
L 126.209342 203.915034 
L 126.806133 202.60435 
L 127.402924 206.177986 
L 127.999716 210.825042 
L 128.596507 216.91855 
L 129.193299 216.352314 
L 129.79009 218.493547 
L 130.386882 215.598695 
L 131.580465 221.377916 
L 132.177256 221.237981 
L 132.774047 209.700687 
L 133.370839 203.982905 
L 133.96763 201.936608 
L 134.564422 196.027266 
L 135.161213 195.848203 
L 135.758005 187.438441 
L 136.354796 190.141416 
L 136.951588 189.42714 
L 137.548379 188.949437 
L 138.14517 190.792885 
L 138.741962 190.124215 
L 139.338753 190.46342 
L 139.935545 189.313475 
L 140.532336 188.765514 
L 141.129128 185.85427 
L 141.725919 186.505182 
L 142.322711 185.489899 
L 142.919502 185.992536 
L 143.516293 187.428099 
L 144.113085 187.422095 
L 145.903459 184.904326 
L 146.500251 186.32159 
L 147.097042 184.280463 
L 147.693834 185.073553 
L 148.290625 187.132296 
L 149.484208 185.552295 
L 150.080999 184.810089 
L 150.677791 185.770033 
L 151.274582 184.676514 
L 151.871374 184.446925 
L 152.468165 184.73742 
L 153.064957 185.756947 
L 153.661748 184.552798 
L 154.258539 184.889511 
L 154.855331 184.004759 
L 155.452122 183.901411 
L 156.048914 184.210607 
L 156.645705 183.773288 
L 157.242497 183.881292 
L 157.839288 184.302752 
L 158.43608 184.383936 
L 159.032871 184.847795 
L 159.629662 183.874218 
L 160.226454 183.985069 
L 160.823245 184.487505 
L 161.420037 182.909122 
L 162.016828 182.846106 
L 162.61362 183.355634 
L 163.210411 184.113366 
L 163.807203 183.175639 
L 164.403994 183.903217 
L 165.000785 183.699209 
L 165.597577 183.061725 
L 166.194368 183.196088 
L 166.79116 185.027866 
L 167.984743 183.024234 
L 168.581534 183.024664 
L 169.178326 182.908792 
L 169.775117 182.921731 
L 170.371908 183.446698 
L 170.9687 183.231953 
L 171.565491 183.782402 
L 172.162283 183.157305 
L 173.355866 183.542492 
L 173.952657 183.446975 
L 174.549449 182.928913 
L 175.14624 183.836236 
L 175.743031 183.736315 
L 176.339823 183.907988 
L 176.936614 183.273056 
L 177.533406 183.490009 
L 178.130197 182.720341 
L 178.726989 182.625096 
L 179.32378 182.920247 
L 179.920572 183.852156 
L 180.517363 182.802564 
L 181.114154 182.738626 
L 181.710946 182.801259 
L 182.904529 183.681555 
L 183.50132 182.885937 
L 184.098112 183.817856 
L 184.694903 183.130461 
L 185.291695 183.143888 
L 186.485277 182.841679 
L 187.082069 183.534285 
L 187.67886 182.956399 
L 188.275652 183.1017 
L 188.872443 183.593199 
L 189.469235 183.231413 
L 190.066026 183.494154 
L 190.662818 182.587269 
L 191.8564 183.233486 
L 192.453192 183.014462 
L 193.049983 183.921541 
L 193.646775 183.145828 
L 194.243566 184.071561 
L 194.840358 183.153563 
L 195.437149 183.120939 
L 196.033941 183.217194 
L 196.630732 182.82653 
L 197.227523 183.195985 
L 197.824315 183.2152 
L 198.421106 182.068551 
L 199.017898 182.517478 
L 199.614689 183.2954 
L 200.211481 183.449769 
L 200.808272 183.395169 
L 201.405064 183.713621 
L 202.001855 182.791018 
L 202.598646 182.950666 
L 203.195438 183.437971 
L 203.792229 183.397177 
L 204.389021 182.63061 
L 204.985812 183.785292 
L 205.582604 182.474261 
L 206.179395 183.387489 
L 206.776186 182.480907 
L 207.372978 183.151485 
L 208.566561 182.730728 
L 209.163352 183.290475 
L 209.760144 182.409606 
L 210.356935 182.700566 
L 210.953727 183.743703 
L 211.550518 182.943793 
L 213.340892 182.818776 
L 213.937684 183.03813 
L 214.534475 182.991935 
L 215.131267 183.939272 
L 215.728058 183.640936 
L 216.32485 182.692036 
L 216.921641 182.555659 
L 217.518432 182.842249 
L 218.115224 182.57223 
L 218.712015 183.123184 
L 219.308807 182.891681 
L 219.905598 183.99973 
L 221.099181 182.255185 
L 221.695973 182.325751 
L 222.889555 182.950932 
L 223.486347 182.766578 
L 224.083138 183.213411 
L 224.67993 182.990066 
L 225.276721 183.10962 
L 225.873513 182.88939 
L 226.470304 183.19995 
L 227.067096 182.548171 
L 227.663887 182.331845 
L 228.260678 182.754582 
L 228.85747 182.386773 
L 229.454261 182.499166 
L 230.051053 183.056651 
L 230.647844 182.807802 
L 231.244636 183.105543 
L 231.841427 182.743468 
L 232.438219 183.52151 
L 233.03501 182.973611 
L 236.018967 183.079528 
L 236.615759 182.768168 
L 237.809342 182.513927 
L 239.002924 182.752587 
L 239.599716 183.008193 
L 240.196507 183.679111 
L 241.39009 182.806429 
L 241.986882 182.954243 
L 244.374047 183.070869 
L 244.970839 183.105361 
L 245.56763 182.863134 
L 246.761213 183.206005 
L 247.954796 182.746778 
L 249.148379 183.31884 
L 249.74517 183.573065 
L 250.341962 183.018668 
L 250.938753 183.043531 
L 251.535545 183.317399 
L 252.729128 183.136009 
L 253.325919 183.506695 
L 253.922711 183.383708 
L 254.519502 183.030956 
L 255.713085 183.255503 
L 256.309876 183.74766 
L 256.906668 183.539514 
L 257.503459 184.122744 
L 258.100251 183.116812 
L 258.697042 183.055189 
L 259.890625 183.218949 
L 261.680999 183.497466 
L 262.277791 183.173385 
L 262.874582 183.701313 
L 263.471374 183.1398 
L 264.664957 183.983366 
L 265.261748 183.509783 
L 265.858539 183.31685 
L 266.455331 183.477441 
L 267.052122 182.976603 
L 267.648914 183.427922 
L 268.245705 183.32973 
L 268.842497 182.693731 
L 269.439288 183.190847 
L 270.03608 182.878586 
L 270.632871 183.631742 
L 271.229662 183.532027 
L 271.826454 184.148137 
L 272.423245 183.484397 
L 273.616828 183.193172 
L 274.21362 183.484256 
L 274.810411 183.52136 
L 275.407203 183.165281 
L 276.003994 182.983246 
L 276.600785 183.474534 
L 277.197577 183.229546 
L 277.794368 183.502455 
L 278.39116 183.333029 
L 278.987951 183.590888 
L 279.584743 183.320601 
L 280.181534 183.380472 
L 280.778326 183.071998 
L 281.375117 183.440573 
L 281.971908 183.385062 
L 282.5687 183.523604 
L 283.165491 183.365623 
L 283.762283 183.015156 
L 284.359074 183.250515 
L 284.955866 184.034514 
L 285.552657 183.839587 
L 286.149449 183.988011 
L 286.74624 183.312729 
L 287.343031 183.503067 
L 287.939823 183.375753 
L 288.536614 183.544545 
L 289.133406 183.094009 
L 290.326989 183.721852 
L 290.92378 183.432648 
L 291.520572 183.598003 
L 292.117363 182.852362 
L 292.714154 183.394857 
L 293.907737 183.282232 
L 294.504529 183.698576 
L 295.10132 184.269199 
L 295.698112 183.427617 
L 296.294903 183.745692 
L 296.891695 183.455576 
L 298.085277 183.798223 
L 298.682069 183.654011 
L 299.27886 183.747524 
L 299.875652 183.490886 
L 300.472443 183.697737 
L 301.069235 183.543973 
L 301.666026 183.584663 
L 302.262818 183.770174 
L 302.859609 183.322506 
L 303.4564 183.880069 
L 304.053192 183.989708 
L 304.649983 183.367329 
L 305.246775 183.600689 
L 306.440358 183.696709 
L 307.037149 184.280465 
L 307.633941 183.46197 
L 308.230732 183.688691 
L 309.424315 183.806285 
L 310.021106 183.094654 
L 311.214689 183.904287 
L 311.811481 183.294811 
L 312.408272 183.580542 
L 314.198646 183.662428 
L 314.795438 183.316345 
L 315.392229 183.534865 
L 315.989021 183.912978 
L 316.585812 184.048144 
L 317.182604 183.461047 
L 318.376186 183.752332 
L 318.972978 183.61315 
L 319.569769 184.063493 
L 320.166561 183.592658 
L 320.763352 183.870614 
L 321.360144 183.186031 
L 321.956935 183.964145 
L 322.553727 183.160091 
L 323.150518 183.861212 
L 323.747309 183.292585 
L 324.344101 183.516306 
L 324.940892 183.331213 
L 325.537684 183.617877 
L 326.134475 183.525817 
L 326.731267 183.292991 
L 327.328058 183.480584 
L 327.92485 183.852578 
L 329.118432 183.79079 
L 329.715224 183.497384 
L 330.312015 183.815023 
L 330.908807 184.341255 
L 331.505598 183.225012 
L 332.10239 183.734344 
L 332.699181 183.358944 
L 333.295973 183.242344 
L 333.892764 183.601829 
L 334.489555 183.476473 
L 335.086347 183.648195 
L 335.683138 183.675303 
L 336.27993 183.545577 
L 336.876721 183.551833 
L 337.473513 183.68815 
L 338.070304 184.067365 
L 338.667096 184.011006 
L 339.860678 183.518072 
L 340.45747 183.905989 
L 341.054261 183.72298 
L 341.651053 184.051702 
L 342.247844 183.556504 
L 343.441427 183.560879 
L 344.038219 183.850074 
L 344.63501 183.510944 
L 345.231801 183.786796 
L 345.828593 183.574853 
L 346.425384 184.06199 
L 347.022176 183.535886 
L 347.618967 183.619326 
L 348.215759 184.003903 
L 349.409342 184.168796 
L 350.006133 183.648536 
L 350.602924 184.069936 
L 351.199716 183.989729 
L 351.796507 184.104739 
L 352.393299 183.551519 
L 352.99009 184.201567 
L 354.183673 183.335254 
L 354.780465 183.935562 
L 355.377256 183.628661 
L 355.974047 183.608723 
L 356.570839 183.338168 
L 357.16763 183.369248 
L 357.764422 183.728027 
L 358.361213 183.653923 
L 358.958005 183.871679 
L 359.554796 183.500933 
L 360.151588 183.804692 
L 360.748379 183.557266 
L 361.34517 183.536052 
L 361.941962 183.677491 
L 362.538753 183.511561 
L 363.135545 183.818911 
L 363.732336 183.680106 
L 364.329128 183.316719 
L 364.925919 183.606841 
L 365.522711 184.030771 
L 366.119502 183.89653 
L 366.716293 183.561905 
L 367.313085 183.963076 
L 367.909876 183.589406 
L 368.506668 183.671066 
L 369.103459 184.032846 
L 369.700251 183.816132 
L 370.297042 183.734416 
L 371.490625 183.984267 
L 372.087416 184.460725 
L 373.280999 183.955757 
L 373.877791 183.371575 
L 374.474582 183.800792 
L 375.071374 183.811522 
L 375.668165 184.438955 
L 376.264957 183.90586 
L 376.861748 183.751405 
L 377.458539 184.136892 
L 378.055331 184.113377 
L 378.652122 184.361561 
L 379.248914 183.893618 
L 380.442497 184.154274 
L 381.039288 183.986099 
L 381.63608 184.031172 
L 382.232871 184.746893 
L 382.829662 183.829595 
L 383.426454 184.525654 
L 384.620037 184.484841 
L 385.216828 183.539757 
L 385.81362 184.396892 
L 386.410411 183.562071 
L 387.007203 184.058096 
L 387.603994 184.027067 
L 388.797577 183.606717 
L 389.394368 184.135914 
L 390.587951 183.971408 
L 391.184743 183.836393 
L 391.781534 184.141271 
L 392.378326 183.986363 
L 392.975117 184.560163 
L 393.571908 184.119487 
L 394.765491 184.380259 
L 395.362283 183.942237 
L 395.959074 184.577942 
L 396.555866 184.126651 
L 397.152657 184.089082 
L 397.749449 184.519843 
L 398.34624 184.160777 
L 398.943031 184.141598 
L 399.539823 183.727954 
L 400.136614 184.247347 
L 400.733406 183.795225 
L 401.330197 183.797496 
L 401.926989 183.976826 
L 402.52378 184.007656 
L 403.120572 184.432068 
L 404.314154 184.492172 
L 404.910946 183.747344 
L 405.507737 183.93629 
L 406.104529 184.274464 
L 406.70132 184.085552 
L 407.298112 183.680952 
L 407.894903 184.109062 
L 408.491695 183.982663 
L 409.088486 184.470374 
L 409.685277 183.848077 
L 410.282069 184.292654 
L 410.87886 184.252351 
L 411.475652 184.65116 
L 412.669235 183.831811 
L 413.266026 184.151975 
L 413.862818 183.759917 
L 414.459609 184.046638 
L 415.0564 183.293369 
L 415.653192 183.455596 
L 416.249983 183.788144 
L 416.846775 183.97835 
L 417.443566 184.395394 
L 418.040358 184.200659 
L 418.637149 183.62969 
L 419.233941 183.918979 
L 419.830732 183.887444 
L 420.427523 183.680268 
L 421.024315 184.121697 
L 422.217898 183.577968 
L 422.814689 183.406932 
L 423.411481 183.699485 
L 424.008272 183.838053 
L 424.605064 184.174193 
L 425.201855 183.406188 
L 425.798646 183.566256 
L 426.395438 184.112185 
L 427.589021 183.857474 
L 428.185812 183.661187 
L 428.782604 183.345625 
L 429.379395 183.797981 
L 429.976186 184.10976 
L 430.572978 183.552716 
L 431.169769 183.578276 
L 431.766561 183.451638 
L 432.960144 183.804361 
L 433.556935 183.562106 
L 434.153727 183.65838 
L 434.750518 183.506233 
L 437.137684 183.5843 
L 437.734475 183.401444 
L 438.331267 183.679564 
L 438.928058 183.625895 
L 439.52485 184.167791 
L 440.121641 183.337589 
L 440.718432 183.581917 
L 441.315224 183.259873 
L 441.912015 183.674293 
L 443.105598 183.769385 
L 443.70239 183.061354 
L 445.492764 183.900729 
L 446.089555 183.444012 
L 447.283138 183.288519 
L 447.87993 183.655874 
L 448.476721 183.632594 
L 449.073513 183.295308 
L 449.670304 183.364492 
L 450.267096 183.186586 
L 450.863887 183.503763 
L 452.654261 183.32978 
L 453.251053 183.466503 
L 453.847844 183.454851 
L 454.444636 183.076589 
L 455.041427 183.41821 
L 455.638219 183.524796 
L 456.23501 182.842981 
L 456.831801 183.131057 
L 458.025384 183.245596 
L 458.622176 183.376076 
L 459.218967 183.107833 
L 459.815759 183.460305 
L 460.41255 183.425541 
L 461.009342 183.241457 
L 462.202924 183.619045 
L 462.799716 183.147681 
L 463.396507 183.273929 
L 464.59009 183.159597 
L 465.186882 183.491664 
L 465.783673 183.561443 
L 466.380465 183.185605 
L 466.977256 183.588135 
L 467.574047 183.219707 
L 468.170839 183.087308 
L 468.76763 183.319028 
L 469.364422 183.410961 
L 469.961213 183.24749 
L 471.154796 183.111364 
L 471.751588 183.54411 
L 472.348379 183.164345 
L 472.94517 183.752388 
L 473.541962 182.989223 
L 475.929128 183.309707 
L 476.525919 183.410028 
L 477.122711 183.065202 
L 477.719502 183.062422 
L 478.316293 183.393506 
L 478.913085 183.589781 
L 479.509876 183.391143 
L 480.106668 182.950594 
L 480.703459 183.355 
L 481.300251 183.592637 
L 482.493834 183.61025 
L 483.090625 183.113705 
L 483.687416 182.873457 
L 484.284208 183.084194 
L 484.880999 183.452025 
L 485.477791 182.923494 
L 486.074582 183.434375 
L 487.268165 182.997813 
L 487.864957 183.315565 
L 488.461748 183.145289 
L 489.655331 183.57406 
L 490.252122 183.260156 
L 491.445705 183.06024 
L 492.042497 183.147698 
L 492.639288 182.901852 
L 493.23608 182.782334 
L 493.832871 183.381895 
L 494.429662 182.975455 
L 495.026454 183.442126 
L 495.623245 183.106796 
L 496.220037 183.474376 
L 496.816828 182.835026 
L 497.41362 183.149862 
L 498.010411 183.087538 
L 498.607203 183.411053 
L 499.203994 183.168374 
L 499.800785 183.180928 
L 500.397577 183.325319 
L 500.994368 182.791654 
L 501.59116 182.55984 
L 502.187951 182.914375 
L 502.784743 182.917697 
L 503.978326 183.183789 
L 505.171908 183.159303 
L 506.365491 183.012312 
L 506.962283 182.604557 
L 507.559074 183.046112 
L 508.155866 183.195119 
L 508.752657 182.889687 
L 509.349449 182.996916 
L 510.543031 183.026144 
L 511.736614 183.267688 
L 512.333406 182.864167 
L 512.930197 182.900338 
L 513.526989 183.192053 
L 514.12378 183.121054 
L 514.720572 183.387414 
L 515.914154 182.854778 
L 516.510946 182.99409 
L 517.107737 182.84007 
L 517.704529 182.958257 
L 518.30132 183.343694 
L 518.898112 182.8654 
L 519.494903 183.227404 
L 520.091695 183.320284 
L 520.688486 182.946414 
L 521.285277 182.853768 
L 521.882069 183.247682 
L 523.672443 183.227195 
L 524.269235 183.543206 
L 524.866026 183.115228 
L 525.462818 183.077924 
L 526.059609 182.86555 
L 526.6564 183.262107 
L 527.253192 183.17484 
L 527.849983 182.869864 
L 528.446775 183.09306 
L 529.043566 183.181223 
L 529.640358 182.948603 
L 530.833941 182.98284 
L 531.430732 183.411502 
L 532.027523 183.456222 
L 532.624315 183.160918 
L 533.221106 183.315215 
L 533.817898 183.187405 
L 534.414689 183.406213 
L 535.011481 182.721065 
L 535.608272 183.299725 
L 536.205064 183.430653 
L 537.398646 183.090215 
L 538.592229 183.392291 
L 539.189021 183.283125 
L 539.785812 182.707293 
L 540.979395 183.587734 
L 541.576186 183.586786 
L 542.172978 183.027914 
L 542.769769 183.120785 
L 543.963352 182.952666 
L 544.560144 183.219916 
L 545.156935 183.340357 
L 548.140892 183.243999 
L 548.737684 183.015496 
L 549.334475 183.266255 
L 549.931267 183.388726 
L 551.721641 183.245335 
L 552.318432 183.526566 
L 553.512015 183.38595 
L 554.108807 183.678664 
L 554.705598 183.587264 
L 555.30239 183.229104 
L 555.899181 183.244474 
L 557.092764 183.591564 
L 557.689555 182.83058 
L 558.883138 183.467039 
L 560.673513 183.012192 
L 561.270304 183.285372 
L 561.867096 182.856099 
L 563.060678 183.321429 
L 563.65747 183.278836 
L 564.254261 183.06228 
L 564.851053 183.08701 
L 565.447844 182.810761 
L 566.044636 183.033006 
L 567.238219 183.205329 
L 567.83501 182.746892 
L 568.431801 183.668937 
L 569.028593 183.280835 
L 570.222176 182.987819 
L 570.818967 182.980378 
L 571.415759 182.689718 
L 572.01255 182.881797 
L 572.609342 183.238529 
L 573.206133 182.903573 
L 573.802924 183.032723 
L 574.399716 183.278655 
L 574.996507 183.864914 
L 576.19009 182.881302 
L 577.383673 182.496939 
L 577.980465 182.964083 
L 578.577256 182.932074 
L 579.174047 183.328355 
L 579.770839 183.414942 
L 580.964422 183.08329 
L 581.561213 183.502748 
L 582.158005 183.406766 
L 582.754796 182.975909 
L 583.351588 183.033288 
L 583.948379 183.264682 
L 585.738753 183.125527 
L 589.916293 183.210635 
L 590.513085 183.390996 
L 591.109876 183.247714 
L 592.303459 183.139241 
L 592.900251 182.7976 
L 593.497042 183.158489 
L 594.093834 183.300028 
L 595.287416 182.631251 
L 595.884208 182.771337 
L 596.480999 183.118759 
L 597.077791 182.976473 
L 597.674582 183.321974 
L 598.271374 183.497905 
L 600.061748 183.037855 
L 600.658539 183.406321 
L 601.255331 183.506245 
L 601.852122 183.117107 
L 602.448914 183.270517 
L 603.045705 183.069813 
L 603.642497 183.06227 
L 604.239288 183.500583 
L 604.83608 183.213128 
L 607.223245 183.231397 
L 607.820037 183.41181 
L 609.01362 183.051382 
L 609.610411 183.010845 
L 610.207203 183.358565 
L 611.997577 182.973402 
L 612.594368 183.439632 
L 613.19116 183.343979 
L 613.787951 183.451405 
L 614.384743 183.754983 
L 614.981534 183.196067 
L 615.578326 183.369495 
L 616.175117 182.879069 
L 616.771908 182.881103 
L 617.3687 183.323204 
L 618.562283 183.800187 
L 619.159074 183.416379 
L 619.755866 183.388463 
L 620.352657 182.964581 
L 620.949449 183.437921 
L 622.143031 183.108274 
L 623.336614 182.974154 
L 623.933406 182.937994 
L 624.530197 183.247622 
L 625.126989 183.255529 
L 625.126989 183.255529 
" clip-path="url(#p1b519ea224)" style="fill: none; stroke: #ff7f0e; stroke-width: 1.5; stroke-linecap: square"/>
   </g>
   <g id="patch_3">
    <path d="M 92.490625 308.63625 
L 92.490625 31.43625 
" style="fill: none; stroke: #000000; stroke-width: 0.8; stroke-linejoin: miter; stroke-linecap: square"/>
   </g>
   <g id="patch_4">
    <path d="M 650.490625 308.63625 
L 650.490625 31.43625 
" style="fill: none; stroke: #000000; stroke-width: 0.8; stroke-linejoin: miter; stroke-linecap: square"/>
   </g>
   <g id="patch_5">
    <path d="M 92.490625 308.63625 
L 650.490625 308.63625 
" style="fill: none; stroke: #000000; stroke-width: 0.8; stroke-linejoin: miter; stroke-linecap: square"/>
   </g>
   <g id="patch_6">
    <path d="M 92.490625 31.43625 
L 650.490625 31.43625 
" style="fill: none; stroke: #000000; stroke-width: 0.8; stroke-linejoin: miter; stroke-linecap: square"/>
   </g>
   <g id="text_13">
    <!-- Generator and Discriminator Loss During Training -->
    <g transform="translate(74.258125 25.43625) scale(0.24 -0.24)">
     <defs>
      <path id="DejaVuSans-47" d="M 3809 666 
L 3809 1919 
L 2778 1919 
L 2778 2438 
L 4434 2438 
L 4434 434 
Q 4069 175 3628 42 
Q 3188 -91 2688 -91 
Q 1594 -91 976 548 
Q 359 1188 359 2328 
Q 359 3472 976 4111 
Q 1594 4750 2688 4750 
Q 3144 4750 3555 4637 
Q 3966 4525 4313 4306 
L 4313 3634 
Q 3963 3931 3569 4081 
Q 3175 4231 2741 4231 
Q 1884 4231 1454 3753 
Q 1025 3275 1025 2328 
Q 1025 1384 1454 906 
Q 1884 428 2741 428 
Q 3075 428 3337 486 
Q 3600 544 3809 666 
z
" transform="scale(0.015625)"/>
      <path id="DejaVuSans-20" transform="scale(0.015625)"/>
      <path id="DejaVuSans-64" d="M 2906 2969 
L 2906 4863 
L 3481 4863 
L 3481 0 
L 2906 0 
L 2906 525 
Q 2725 213 2448 61 
Q 2172 -91 1784 -91 
Q 1150 -91 751 415 
Q 353 922 353 1747 
Q 353 2572 751 3078 
Q 1150 3584 1784 3584 
Q 2172 3584 2448 3432 
Q 2725 3281 2906 2969 
z
M 947 1747 
Q 947 1113 1208 752 
Q 1469 391 1925 391 
Q 2381 391 2643 752 
Q 2906 1113 2906 1747 
Q 2906 2381 2643 2742 
Q 2381 3103 1925 3103 
Q 1469 3103 1208 2742 
Q 947 2381 947 1747 
z
" transform="scale(0.015625)"/>
      <path id="DejaVuSans-44" d="M 1259 4147 
L 1259 519 
L 2022 519 
Q 2988 519 3436 956 
Q 3884 1394 3884 2338 
Q 3884 3275 3436 3711 
Q 2988 4147 2022 4147 
L 1259 4147 
z
M 628 4666 
L 1925 4666 
Q 3281 4666 3915 4102 
Q 4550 3538 4550 2338 
Q 4550 1131 3912 565 
Q 3275 0 1925 0 
L 628 0 
L 628 4666 
z
" transform="scale(0.015625)"/>
      <path id="DejaVuSans-63" d="M 3122 3366 
L 3122 2828 
Q 2878 2963 2633 3030 
Q 2388 3097 2138 3097 
Q 1578 3097 1268 2742 
Q 959 2388 959 1747 
Q 959 1106 1268 751 
Q 1578 397 2138 397 
Q 2388 397 2633 464 
Q 2878 531 3122 666 
L 3122 134 
Q 2881 22 2623 -34 
Q 2366 -91 2075 -91 
Q 1284 -91 818 406 
Q 353 903 353 1747 
Q 353 2603 823 3093 
Q 1294 3584 2113 3584 
Q 2378 3584 2631 3529 
Q 2884 3475 3122 3366 
z
" transform="scale(0.015625)"/>
      <path id="DejaVuSans-6d" d="M 3328 2828 
Q 3544 3216 3844 3400 
Q 4144 3584 4550 3584 
Q 5097 3584 5394 3201 
Q 5691 2819 5691 2113 
L 5691 0 
L 5113 0 
L 5113 2094 
Q 5113 2597 4934 2840 
Q 4756 3084 4391 3084 
Q 3944 3084 3684 2787 
Q 3425 2491 3425 1978 
L 3425 0 
L 2847 0 
L 2847 2094 
Q 2847 2600 2669 2842 
Q 2491 3084 2119 3084 
Q 1678 3084 1418 2786 
Q 1159 2488 1159 1978 
L 1159 0 
L 581 0 
L 581 3500 
L 1159 3500 
L 1159 2956 
Q 1356 3278 1631 3431 
Q 1906 3584 2284 3584 
Q 2666 3584 2933 3390 
Q 3200 3197 3328 2828 
z
" transform="scale(0.015625)"/>
      <path id="DejaVuSans-75" d="M 544 1381 
L 544 3500 
L 1119 3500 
L 1119 1403 
Q 1119 906 1312 657 
Q 1506 409 1894 409 
Q 2359 409 2629 706 
Q 2900 1003 2900 1516 
L 2900 3500 
L 3475 3500 
L 3475 0 
L 2900 0 
L 2900 538 
Q 2691 219 2414 64 
Q 2138 -91 1772 -91 
Q 1169 -91 856 284 
Q 544 659 544 1381 
z
M 1991 3584 
L 1991 3584 
z
" transform="scale(0.015625)"/>
      <path id="DejaVuSans-67" d="M 2906 1791 
Q 2906 2416 2648 2759 
Q 2391 3103 1925 3103 
Q 1463 3103 1205 2759 
Q 947 2416 947 1791 
Q 947 1169 1205 825 
Q 1463 481 1925 481 
Q 2391 481 2648 825 
Q 2906 1169 2906 1791 
z
M 3481 434 
Q 3481 -459 3084 -895 
Q 2688 -1331 1869 -1331 
Q 1566 -1331 1297 -1286 
Q 1028 -1241 775 -1147 
L 775 -588 
Q 1028 -725 1275 -790 
Q 1522 -856 1778 -856 
Q 2344 -856 2625 -561 
Q 2906 -266 2906 331 
L 2906 616 
Q 2728 306 2450 153 
Q 2172 0 1784 0 
Q 1141 0 747 490 
Q 353 981 353 1791 
Q 353 2603 747 3093 
Q 1141 3584 1784 3584 
Q 2172 3584 2450 3431 
Q 2728 3278 2906 2969 
L 2906 3500 
L 3481 3500 
L 3481 434 
z
" transform="scale(0.015625)"/>
      <path id="DejaVuSans-54" d="M -19 4666 
L 3928 4666 
L 3928 4134 
L 2272 4134 
L 2272 0 
L 1638 0 
L 1638 4134 
L -19 4134 
L -19 4666 
z
" transform="scale(0.015625)"/>
     </defs>
     <use xlink:href="#DejaVuSans-47"/>
     <use xlink:href="#DejaVuSans-65" x="77.490234"/>
     <use xlink:href="#DejaVuSans-6e" x="139.013672"/>
     <use xlink:href="#DejaVuSans-65" x="202.392578"/>
     <use xlink:href="#DejaVuSans-72" x="263.916016"/>
     <use xlink:href="#DejaVuSans-61" x="305.029297"/>
     <use xlink:href="#DejaVuSans-74" x="366.308594"/>
     <use xlink:href="#DejaVuSans-6f" x="405.517578"/>
     <use xlink:href="#DejaVuSans-72" x="466.699219"/>
     <use xlink:href="#DejaVuSans-20" x="507.8125"/>
     <use xlink:href="#DejaVuSans-61" x="539.599609"/>
     <use xlink:href="#DejaVuSans-6e" x="600.878906"/>
     <use xlink:href="#DejaVuSans-64" x="664.257812"/>
     <use xlink:href="#DejaVuSans-20" x="727.734375"/>
     <use xlink:href="#DejaVuSans-44" x="759.521484"/>
     <use xlink:href="#DejaVuSans-69" x="836.523438"/>
     <use xlink:href="#DejaVuSans-73" x="864.306641"/>
     <use xlink:href="#DejaVuSans-63" x="916.40625"/>
     <use xlink:href="#DejaVuSans-72" x="971.386719"/>
     <use xlink:href="#DejaVuSans-69" x="1012.5"/>
     <use xlink:href="#DejaVuSans-6d" x="1040.283203"/>
     <use xlink:href="#DejaVuSans-69" x="1137.695312"/>
     <use xlink:href="#DejaVuSans-6e" x="1165.478516"/>
     <use xlink:href="#DejaVuSans-61" x="1228.857422"/>
     <use xlink:href="#DejaVuSans-74" x="1290.136719"/>
     <use xlink:href="#DejaVuSans-6f" x="1329.345703"/>
     <use xlink:href="#DejaVuSans-72" x="1390.527344"/>
     <use xlink:href="#DejaVuSans-20" x="1431.640625"/>
     <use xlink:href="#DejaVuSans-4c" x="1463.427734"/>
     <use xlink:href="#DejaVuSans-6f" x="1517.390625"/>
     <use xlink:href="#DejaVuSans-73" x="1578.572266"/>
     <use xlink:href="#DejaVuSans-73" x="1630.671875"/>
     <use xlink:href="#DejaVuSans-20" x="1682.771484"/>
     <use xlink:href="#DejaVuSans-44" x="1714.558594"/>
     <use xlink:href="#DejaVuSans-75" x="1791.560547"/>
     <use xlink:href="#DejaVuSans-72" x="1854.939453"/>
     <use xlink:href="#DejaVuSans-69" x="1896.052734"/>
     <use xlink:href="#DejaVuSans-6e" x="1923.835938"/>
     <use xlink:href="#DejaVuSans-67" x="1987.214844"/>
     <use xlink:href="#DejaVuSans-20" x="2050.691406"/>
     <use xlink:href="#DejaVuSans-54" x="2082.478516"/>
     <use xlink:href="#DejaVuSans-72" x="2128.8125"/>
     <use xlink:href="#DejaVuSans-61" x="2169.925781"/>
     <use xlink:href="#DejaVuSans-69" x="2231.205078"/>
     <use xlink:href="#DejaVuSans-6e" x="2258.988281"/>
     <use xlink:href="#DejaVuSans-69" x="2322.367188"/>
     <use xlink:href="#DejaVuSans-6e" x="2350.150391"/>
     <use xlink:href="#DejaVuSans-67" x="2413.529297"/>
    </g>
   </g>
   <g id="legend_1">
    <g id="patch_7">
     <path d="M 556.99375 106.14875 
L 636.490625 106.14875 
Q 640.490625 106.14875 640.490625 102.14875 
L 640.490625 45.43625 
Q 640.490625 41.43625 636.490625 41.43625 
L 556.99375 41.43625 
Q 552.99375 41.43625 552.99375 45.43625 
L 552.99375 102.14875 
Q 552.99375 106.14875 556.99375 106.14875 
z
" style="fill: #ffffff; opacity: 0.8; stroke: #cccccc; stroke-linejoin: miter"/>
    </g>
    <g id="line2d_13">
     <path d="M 560.99375 57.633125 
L 580.99375 57.633125 
L 600.99375 57.633125 
" style="fill: none; stroke: #1f77b4; stroke-width: 1.5; stroke-linecap: square"/>
    </g>
    <g id="text_14">
     <!-- G -->
     <g transform="translate(616.99375 64.633125) scale(0.2 -0.2)">
      <use xlink:href="#DejaVuSans-47"/>
     </g>
    </g>
    <g id="line2d_14">
     <path d="M 560.99375 86.989375 
L 580.99375 86.989375 
L 600.99375 86.989375 
" style="fill: none; stroke: #ff7f0e; stroke-width: 1.5; stroke-linecap: square"/>
    </g>
    <g id="text_15">
     <!-- D -->
     <g transform="translate(616.99375 93.989375) scale(0.2 -0.2)">
      <use xlink:href="#DejaVuSans-44"/>
     </g>
    </g>
   </g>
  </g>
 </g>
 <defs>
  <clipPath id="p1b519ea224">
   <rect x="92.490625" y="31.43625" width="558" height="277.2"/>
  </clipPath>
 </defs>
</svg>
