<?xml version="1.0" encoding="utf-8" standalone="no"?>
<!DOCTYPE svg PUBLIC "-//W3C//DTD SVG 1.1//EN"
  "http://www.w3.org/Graphics/SVG/1.1/DTD/svg11.dtd">
<svg xmlns:xlink="http://www.w3.org/1999/xlink" width="675.923125pt" height="365.54875pt" viewBox="0 0 675.923125 365.54875" xmlns="http://www.w3.org/2000/svg" version="1.1">
 <metadata>
  <rdf:RDF xmlns:dc="http://purl.org/dc/elements/1.1/" xmlns:cc="http://creativecommons.org/ns#" xmlns:rdf="http://www.w3.org/1999/02/22-rdf-syntax-ns#">
   <cc:Work>
    <dc:type rdf:resource="http://purl.org/dc/dcmitype/StillImage"/>
    <dc:date>2024-02-04T00:42:04.775170</dc:date>
    <dc:format>image/svg+xml</dc:format>
    <dc:creator>
     <cc:Agent>
      <dc:title>Matplotlib v3.7.2, https://matplotlib.org/</dc:title>
     </cc:Agent>
    </dc:creator>
   </cc:Work>
  </rdf:RDF>
 </metadata>
 <defs>
  <style type="text/css">*{stroke-linejoin: round; stroke-linecap: butt}</style>
 </defs>
 <g id="figure_1">
  <g id="patch_1">
   <path d="M 0 365.54875 
L 675.923125 365.54875 
L 675.923125 -0 
L 0 -0 
z
" style="fill: #ffffff"/>
  </g>
  <g id="axes_1">
   <g id="patch_2">
    <path d="M 92.490625 308.63625 
L 650.490625 308.63625 
L 650.490625 31.43625 
L 92.490625 31.43625 
z
" style="fill: #ffffff"/>
   </g>
   <g id="matplotlib.axis_1">
    <g id="xtick_1">
     <g id="line2d_1">
      <defs>
       <path id="m7ff7895041" d="M 0 0 
L 0 3.5 
" style="stroke: #000000; stroke-width: 0.8"/>
      </defs>
      <g>
       <use xlink:href="#m7ff7895041" x="117.854261" y="308.63625" style="stroke: #000000; stroke-width: 0.8"/>
      </g>
     </g>
     <g id="text_1">
      <!-- 0 -->
      <g transform="translate(111.491761 330.833125) scale(0.2 -0.2)">
       <defs>
        <path id="DejaVuSans-30" d="M 2034 4250 
Q 1547 4250 1301 3770 
Q 1056 3291 1056 2328 
Q 1056 1369 1301 889 
Q 1547 409 2034 409 
Q 2525 409 2770 889 
Q 3016 1369 3016 2328 
Q 3016 3291 2770 3770 
Q 2525 4250 2034 4250 
z
M 2034 4750 
Q 2819 4750 3233 4129 
Q 3647 3509 3647 2328 
Q 3647 1150 3233 529 
Q 2819 -91 2034 -91 
Q 1250 -91 836 529 
Q 422 1150 422 2328 
Q 422 3509 836 4129 
Q 1250 4750 2034 4750 
z
" transform="scale(0.015625)"/>
       </defs>
       <use xlink:href="#DejaVuSans-30"/>
      </g>
     </g>
    </g>
    <g id="xtick_2">
     <g id="line2d_2">
      <g>
       <use xlink:href="#m7ff7895041" x="202.399716" y="308.63625" style="stroke: #000000; stroke-width: 0.8"/>
      </g>
     </g>
     <g id="text_2">
      <!-- 100 -->
      <g transform="translate(183.312216 330.833125) scale(0.2 -0.2)">
       <defs>
        <path id="DejaVuSans-31" d="M 794 531 
L 1825 531 
L 1825 4091 
L 703 3866 
L 703 4441 
L 1819 4666 
L 2450 4666 
L 2450 531 
L 3481 531 
L 3481 0 
L 794 0 
L 794 531 
z
" transform="scale(0.015625)"/>
       </defs>
       <use xlink:href="#DejaVuSans-31"/>
       <use xlink:href="#DejaVuSans-30" x="63.623047"/>
       <use xlink:href="#DejaVuSans-30" x="127.246094"/>
      </g>
     </g>
    </g>
    <g id="xtick_3">
     <g id="line2d_3">
      <g>
       <use xlink:href="#m7ff7895041" x="286.94517" y="308.63625" style="stroke: #000000; stroke-width: 0.8"/>
      </g>
     </g>
     <g id="text_3">
      <!-- 200 -->
      <g transform="translate(267.85767 330.833125) scale(0.2 -0.2)">
       <defs>
        <path id="DejaVuSans-32" d="M 1228 531 
L 3431 531 
L 3431 0 
L 469 0 
L 469 531 
Q 828 903 1448 1529 
Q 2069 2156 2228 2338 
Q 2531 2678 2651 2914 
Q 2772 3150 2772 3378 
Q 2772 3750 2511 3984 
Q 2250 4219 1831 4219 
Q 1534 4219 1204 4116 
Q 875 4013 500 3803 
L 500 4441 
Q 881 4594 1212 4672 
Q 1544 4750 1819 4750 
Q 2544 4750 2975 4387 
Q 3406 4025 3406 3419 
Q 3406 3131 3298 2873 
Q 3191 2616 2906 2266 
Q 2828 2175 2409 1742 
Q 1991 1309 1228 531 
z
" transform="scale(0.015625)"/>
       </defs>
       <use xlink:href="#DejaVuSans-32"/>
       <use xlink:href="#DejaVuSans-30" x="63.623047"/>
       <use xlink:href="#DejaVuSans-30" x="127.246094"/>
      </g>
     </g>
    </g>
    <g id="xtick_4">
     <g id="line2d_4">
      <g>
       <use xlink:href="#m7ff7895041" x="371.490625" y="308.63625" style="stroke: #000000; stroke-width: 0.8"/>
      </g>
     </g>
     <g id="text_4">
      <!-- 300 -->
      <g transform="translate(352.403125 330.833125) scale(0.2 -0.2)">
       <defs>
        <path id="DejaVuSans-33" d="M 2597 2516 
Q 3050 2419 3304 2112 
Q 3559 1806 3559 1356 
Q 3559 666 3084 287 
Q 2609 -91 1734 -91 
Q 1441 -91 1130 -33 
Q 819 25 488 141 
L 488 750 
Q 750 597 1062 519 
Q 1375 441 1716 441 
Q 2309 441 2620 675 
Q 2931 909 2931 1356 
Q 2931 1769 2642 2001 
Q 2353 2234 1838 2234 
L 1294 2234 
L 1294 2753 
L 1863 2753 
Q 2328 2753 2575 2939 
Q 2822 3125 2822 3475 
Q 2822 3834 2567 4026 
Q 2313 4219 1838 4219 
Q 1578 4219 1281 4162 
Q 984 4106 628 3988 
L 628 4550 
Q 988 4650 1302 4700 
Q 1616 4750 1894 4750 
Q 2613 4750 3031 4423 
Q 3450 4097 3450 3541 
Q 3450 3153 3228 2886 
Q 3006 2619 2597 2516 
z
" transform="scale(0.015625)"/>
       </defs>
       <use xlink:href="#DejaVuSans-33"/>
       <use xlink:href="#DejaVuSans-30" x="63.623047"/>
       <use xlink:href="#DejaVuSans-30" x="127.246094"/>
      </g>
     </g>
    </g>
    <g id="xtick_5">
     <g id="line2d_5">
      <g>
       <use xlink:href="#m7ff7895041" x="456.03608" y="308.63625" style="stroke: #000000; stroke-width: 0.8"/>
      </g>
     </g>
     <g id="text_5">
      <!-- 400 -->
      <g transform="translate(436.94858 330.833125) scale(0.2 -0.2)">
       <defs>
        <path id="DejaVuSans-34" d="M 2419 4116 
L 825 1625 
L 2419 1625 
L 2419 4116 
z
M 2253 4666 
L 3047 4666 
L 3047 1625 
L 3713 1625 
L 3713 1100 
L 3047 1100 
L 3047 0 
L 2419 0 
L 2419 1100 
L 313 1100 
L 313 1709 
L 2253 4666 
z
" transform="scale(0.015625)"/>
       </defs>
       <use xlink:href="#DejaVuSans-34"/>
       <use xlink:href="#DejaVuSans-30" x="63.623047"/>
       <use xlink:href="#DejaVuSans-30" x="127.246094"/>
      </g>
     </g>
    </g>
    <g id="xtick_6">
     <g id="line2d_6">
      <g>
       <use xlink:href="#m7ff7895041" x="540.581534" y="308.63625" style="stroke: #000000; stroke-width: 0.8"/>
      </g>
     </g>
     <g id="text_6">
      <!-- 500 -->
      <g transform="translate(521.494034 330.833125) scale(0.2 -0.2)">
       <defs>
        <path id="DejaVuSans-35" d="M 691 4666 
L 3169 4666 
L 3169 4134 
L 1269 4134 
L 1269 2991 
Q 1406 3038 1543 3061 
Q 1681 3084 1819 3084 
Q 2600 3084 3056 2656 
Q 3513 2228 3513 1497 
Q 3513 744 3044 326 
Q 2575 -91 1722 -91 
Q 1428 -91 1123 -41 
Q 819 9 494 109 
L 494 744 
Q 775 591 1075 516 
Q 1375 441 1709 441 
Q 2250 441 2565 725 
Q 2881 1009 2881 1497 
Q 2881 1984 2565 2268 
Q 2250 2553 1709 2553 
Q 1456 2553 1204 2497 
Q 953 2441 691 2322 
L 691 4666 
z
" transform="scale(0.015625)"/>
       </defs>
       <use xlink:href="#DejaVuSans-35"/>
       <use xlink:href="#DejaVuSans-30" x="63.623047"/>
       <use xlink:href="#DejaVuSans-30" x="127.246094"/>
      </g>
     </g>
    </g>
    <g id="xtick_7">
     <g id="line2d_7">
      <g>
       <use xlink:href="#m7ff7895041" x="625.126989" y="308.63625" style="stroke: #000000; stroke-width: 0.8"/>
      </g>
     </g>
     <g id="text_7">
      <!-- 600 -->
      <g transform="translate(606.039489 330.833125) scale(0.2 -0.2)">
       <defs>
        <path id="DejaVuSans-36" d="M 2113 2584 
Q 1688 2584 1439 2293 
Q 1191 2003 1191 1497 
Q 1191 994 1439 701 
Q 1688 409 2113 409 
Q 2538 409 2786 701 
Q 3034 994 3034 1497 
Q 3034 2003 2786 2293 
Q 2538 2584 2113 2584 
z
M 3366 4563 
L 3366 3988 
Q 3128 4100 2886 4159 
Q 2644 4219 2406 4219 
Q 1781 4219 1451 3797 
Q 1122 3375 1075 2522 
Q 1259 2794 1537 2939 
Q 1816 3084 2150 3084 
Q 2853 3084 3261 2657 
Q 3669 2231 3669 1497 
Q 3669 778 3244 343 
Q 2819 -91 2113 -91 
Q 1303 -91 875 529 
Q 447 1150 447 2328 
Q 447 3434 972 4092 
Q 1497 4750 2381 4750 
Q 2619 4750 2861 4703 
Q 3103 4656 3366 4563 
z
" transform="scale(0.015625)"/>
       </defs>
       <use xlink:href="#DejaVuSans-36"/>
       <use xlink:href="#DejaVuSans-30" x="63.623047"/>
       <use xlink:href="#DejaVuSans-30" x="127.246094"/>
      </g>
     </g>
    </g>
    <g id="text_8">
     <!-- iterations -->
     <g transform="translate(324.035938 354.189375) scale(0.2 -0.2)">
      <defs>
       <path id="DejaVuSans-69" d="M 603 3500 
L 1178 3500 
L 1178 0 
L 603 0 
L 603 3500 
z
M 603 4863 
L 1178 4863 
L 1178 4134 
L 603 4134 
L 603 4863 
z
" transform="scale(0.015625)"/>
       <path id="DejaVuSans-74" d="M 1172 4494 
L 1172 3500 
L 2356 3500 
L 2356 3053 
L 1172 3053 
L 1172 1153 
Q 1172 725 1289 603 
Q 1406 481 1766 481 
L 2356 481 
L 2356 0 
L 1766 0 
Q 1100 0 847 248 
Q 594 497 594 1153 
L 594 3053 
L 172 3053 
L 172 3500 
L 594 3500 
L 594 4494 
L 1172 4494 
z
" transform="scale(0.015625)"/>
       <path id="DejaVuSans-65" d="M 3597 1894 
L 3597 1613 
L 953 1613 
Q 991 1019 1311 708 
Q 1631 397 2203 397 
Q 2534 397 2845 478 
Q 3156 559 3463 722 
L 3463 178 
Q 3153 47 2828 -22 
Q 2503 -91 2169 -91 
Q 1331 -91 842 396 
Q 353 884 353 1716 
Q 353 2575 817 3079 
Q 1281 3584 2069 3584 
Q 2775 3584 3186 3129 
Q 3597 2675 3597 1894 
z
M 3022 2063 
Q 3016 2534 2758 2815 
Q 2500 3097 2075 3097 
Q 1594 3097 1305 2825 
Q 1016 2553 972 2059 
L 3022 2063 
z
" transform="scale(0.015625)"/>
       <path id="DejaVuSans-72" d="M 2631 2963 
Q 2534 3019 2420 3045 
Q 2306 3072 2169 3072 
Q 1681 3072 1420 2755 
Q 1159 2438 1159 1844 
L 1159 0 
L 581 0 
L 581 3500 
L 1159 3500 
L 1159 2956 
Q 1341 3275 1631 3429 
Q 1922 3584 2338 3584 
Q 2397 3584 2469 3576 
Q 2541 3569 2628 3553 
L 2631 2963 
z
" transform="scale(0.015625)"/>
       <path id="DejaVuSans-61" d="M 2194 1759 
Q 1497 1759 1228 1600 
Q 959 1441 959 1056 
Q 959 750 1161 570 
Q 1363 391 1709 391 
Q 2188 391 2477 730 
Q 2766 1069 2766 1631 
L 2766 1759 
L 2194 1759 
z
M 3341 1997 
L 3341 0 
L 2766 0 
L 2766 531 
Q 2569 213 2275 61 
Q 1981 -91 1556 -91 
Q 1019 -91 701 211 
Q 384 513 384 1019 
Q 384 1609 779 1909 
Q 1175 2209 1959 2209 
L 2766 2209 
L 2766 2266 
Q 2766 2663 2505 2880 
Q 2244 3097 1772 3097 
Q 1472 3097 1187 3025 
Q 903 2953 641 2809 
L 641 3341 
Q 956 3463 1253 3523 
Q 1550 3584 1831 3584 
Q 2591 3584 2966 3190 
Q 3341 2797 3341 1997 
z
" transform="scale(0.015625)"/>
       <path id="DejaVuSans-6f" d="M 1959 3097 
Q 1497 3097 1228 2736 
Q 959 2375 959 1747 
Q 959 1119 1226 758 
Q 1494 397 1959 397 
Q 2419 397 2687 759 
Q 2956 1122 2956 1747 
Q 2956 2369 2687 2733 
Q 2419 3097 1959 3097 
z
M 1959 3584 
Q 2709 3584 3137 3096 
Q 3566 2609 3566 1747 
Q 3566 888 3137 398 
Q 2709 -91 1959 -91 
Q 1206 -91 779 398 
Q 353 888 353 1747 
Q 353 2609 779 3096 
Q 1206 3584 1959 3584 
z
" transform="scale(0.015625)"/>
       <path id="DejaVuSans-6e" d="M 3513 2113 
L 3513 0 
L 2938 0 
L 2938 2094 
Q 2938 2591 2744 2837 
Q 2550 3084 2163 3084 
Q 1697 3084 1428 2787 
Q 1159 2491 1159 1978 
L 1159 0 
L 581 0 
L 581 3500 
L 1159 3500 
L 1159 2956 
Q 1366 3272 1645 3428 
Q 1925 3584 2291 3584 
Q 2894 3584 3203 3211 
Q 3513 2838 3513 2113 
z
" transform="scale(0.015625)"/>
       <path id="DejaVuSans-73" d="M 2834 3397 
L 2834 2853 
Q 2591 2978 2328 3040 
Q 2066 3103 1784 3103 
Q 1356 3103 1142 2972 
Q 928 2841 928 2578 
Q 928 2378 1081 2264 
Q 1234 2150 1697 2047 
L 1894 2003 
Q 2506 1872 2764 1633 
Q 3022 1394 3022 966 
Q 3022 478 2636 193 
Q 2250 -91 1575 -91 
Q 1294 -91 989 -36 
Q 684 19 347 128 
L 347 722 
Q 666 556 975 473 
Q 1284 391 1588 391 
Q 1994 391 2212 530 
Q 2431 669 2431 922 
Q 2431 1156 2273 1281 
Q 2116 1406 1581 1522 
L 1381 1569 
Q 847 1681 609 1914 
Q 372 2147 372 2553 
Q 372 3047 722 3315 
Q 1072 3584 1716 3584 
Q 2034 3584 2315 3537 
Q 2597 3491 2834 3397 
z
" transform="scale(0.015625)"/>
      </defs>
      <use xlink:href="#DejaVuSans-69"/>
      <use xlink:href="#DejaVuSans-74" x="27.783203"/>
      <use xlink:href="#DejaVuSans-65" x="66.992188"/>
      <use xlink:href="#DejaVuSans-72" x="128.515625"/>
      <use xlink:href="#DejaVuSans-61" x="169.628906"/>
      <use xlink:href="#DejaVuSans-74" x="230.908203"/>
      <use xlink:href="#DejaVuSans-69" x="270.117188"/>
      <use xlink:href="#DejaVuSans-6f" x="297.900391"/>
      <use xlink:href="#DejaVuSans-6e" x="359.082031"/>
      <use xlink:href="#DejaVuSans-73" x="422.460938"/>
     </g>
    </g>
   </g>
   <g id="matplotlib.axis_2">
    <g id="ytick_1">
     <g id="line2d_8">
      <defs>
       <path id="m08eaf237e4" d="M 0 0 
L -3.5 0 
" style="stroke: #000000; stroke-width: 0.8"/>
      </defs>
      <g>
       <use xlink:href="#m08eaf237e4" x="92.490625" y="295.148568" style="stroke: #000000; stroke-width: 0.8"/>
      </g>
     </g>
     <g id="text_9">
      <!-- −400 -->
      <g transform="translate(30.55625 302.747005) scale(0.2 -0.2)">
       <defs>
        <path id="DejaVuSans-2212" d="M 678 2272 
L 4684 2272 
L 4684 1741 
L 678 1741 
L 678 2272 
z
" transform="scale(0.015625)"/>
       </defs>
       <use xlink:href="#DejaVuSans-2212"/>
       <use xlink:href="#DejaVuSans-34" x="83.789062"/>
       <use xlink:href="#DejaVuSans-30" x="147.412109"/>
       <use xlink:href="#DejaVuSans-30" x="211.035156"/>
      </g>
     </g>
    </g>
    <g id="ytick_2">
     <g id="line2d_9">
      <g>
       <use xlink:href="#m08eaf237e4" x="92.490625" y="237.405832" style="stroke: #000000; stroke-width: 0.8"/>
      </g>
     </g>
     <g id="text_10">
      <!-- −200 -->
      <g transform="translate(30.55625 245.00427) scale(0.2 -0.2)">
       <use xlink:href="#DejaVuSans-2212"/>
       <use xlink:href="#DejaVuSans-32" x="83.789062"/>
       <use xlink:href="#DejaVuSans-30" x="147.412109"/>
       <use xlink:href="#DejaVuSans-30" x="211.035156"/>
      </g>
     </g>
    </g>
    <g id="ytick_3">
     <g id="line2d_10">
      <g>
       <use xlink:href="#m08eaf237e4" x="92.490625" y="179.663097" style="stroke: #000000; stroke-width: 0.8"/>
      </g>
     </g>
     <g id="text_11">
      <!-- 0 -->
      <g transform="translate(72.765625 187.261534) scale(0.2 -0.2)">
       <use xlink:href="#DejaVuSans-30"/>
      </g>
     </g>
    </g>
    <g id="ytick_4">
     <g id="line2d_11">
      <g>
       <use xlink:href="#m08eaf237e4" x="92.490625" y="121.920361" style="stroke: #000000; stroke-width: 0.8"/>
      </g>
     </g>
     <g id="text_12">
      <!-- 200 -->
      <g transform="translate(47.315625 129.518799) scale(0.2 -0.2)">
       <use xlink:href="#DejaVuSans-32"/>
       <use xlink:href="#DejaVuSans-30" x="63.623047"/>
       <use xlink:href="#DejaVuSans-30" x="127.246094"/>
      </g>
     </g>
    </g>
    <g id="ytick_5">
     <g id="line2d_12">
      <g>
       <use xlink:href="#m08eaf237e4" x="92.490625" y="64.177625" style="stroke: #000000; stroke-width: 0.8"/>
      </g>
     </g>
     <g id="text_13">
      <!-- 400 -->
      <g transform="translate(47.315625 71.776063) scale(0.2 -0.2)">
       <use xlink:href="#DejaVuSans-34"/>
       <use xlink:href="#DejaVuSans-30" x="63.623047"/>
       <use xlink:href="#DejaVuSans-30" x="127.246094"/>
      </g>
     </g>
    </g>
    <g id="text_14">
     <!-- Loss -->
     <g transform="translate(22.396875 191.970625) rotate(-90) scale(0.2 -0.2)">
      <defs>
       <path id="DejaVuSans-4c" d="M 628 4666 
L 1259 4666 
L 1259 531 
L 3531 531 
L 3531 0 
L 628 0 
L 628 4666 
z
" transform="scale(0.015625)"/>
      </defs>
      <use xlink:href="#DejaVuSans-4c"/>
      <use xlink:href="#DejaVuSans-6f" x="53.962891"/>
      <use xlink:href="#DejaVuSans-73" x="115.144531"/>
      <use xlink:href="#DejaVuSans-73" x="167.244141"/>
     </g>
    </g>
   </g>
   <g id="line2d_13">
    <path d="M 117.854261 139.751496 
L 118.699716 144.722794 
L 119.54517 162.598831 
L 120.390625 109.941422 
L 121.23608 44.03625 
L 122.081534 89.448318 
L 122.926989 77.551362 
L 124.617898 106.365093 
L 125.463352 109.725828 
L 126.308807 120.640356 
L 127.154261 119.204262 
L 127.999716 119.595028 
L 128.84517 123.111252 
L 129.690625 128.275629 
L 130.53608 126.631141 
L 131.381534 125.789985 
L 133.072443 114.95142 
L 133.917898 111.128382 
L 134.763352 114.143471 
L 136.454261 125.682262 
L 137.299716 126.858032 
L 138.14517 129.516622 
L 138.990625 138.461754 
L 139.83608 144.970436 
L 140.681534 142.237891 
L 141.526989 146.018436 
L 142.372443 148.27681 
L 143.217898 152.985986 
L 144.063352 146.939282 
L 144.908807 145.550269 
L 145.754261 146.154845 
L 146.599716 143.578088 
L 147.44517 142.120697 
L 148.290625 138.82778 
L 149.13608 137.32097 
L 149.981534 140.170434 
L 150.826989 149.749148 
L 151.672443 145.161919 
L 152.517898 144.809135 
L 153.363352 141.918695 
L 154.208807 142.056481 
L 155.054261 142.689369 
L 156.74517 144.888742 
L 157.590625 147.579569 
L 158.43608 144.557811 
L 159.281534 146.19867 
L 160.126989 147.266567 
L 160.972443 141.963787 
L 161.817898 146.561523 
L 162.663352 145.704415 
L 163.508807 146.942807 
L 164.354261 146.571102 
L 165.199716 148.992949 
L 166.04517 151.018944 
L 166.890625 149.433482 
L 167.73608 151.088431 
L 168.581534 151.882622 
L 169.426989 152.057159 
L 170.272443 155.39376 
L 171.117898 154.443253 
L 171.963352 155.064561 
L 172.808807 157.186868 
L 173.654261 157.456633 
L 174.499716 157.874685 
L 175.34517 161.618246 
L 176.190625 159.61991 
L 177.03608 160.24721 
L 177.881534 159.359568 
L 178.726989 159.626263 
L 179.572443 162.870984 
L 180.417898 162.820485 
L 181.263352 164.349312 
L 182.108807 160.682349 
L 182.954261 164.299326 
L 183.799716 159.838717 
L 184.64517 160.412177 
L 185.490625 159.96084 
L 186.33608 162.549048 
L 187.181534 159.617214 
L 188.026989 162.521514 
L 188.872443 163.72117 
L 189.717898 164.689134 
L 190.563352 166.947126 
L 191.408807 167.327422 
L 192.254261 166.729629 
L 193.099716 167.759036 
L 193.94517 165.917583 
L 194.790625 169.659523 
L 195.63608 169.737889 
L 196.481534 170.755676 
L 197.326989 167.899051 
L 198.172443 169.586443 
L 199.863352 170.564861 
L 200.708807 169.882117 
L 201.554261 172.760942 
L 202.399716 170.967299 
L 203.24517 170.438895 
L 204.090625 170.860476 
L 204.93608 172.297656 
L 205.781534 171.898915 
L 206.626989 172.457074 
L 207.472443 171.412696 
L 208.317898 172.181458 
L 209.163352 170.633335 
L 210.008807 169.350699 
L 210.854261 171.819749 
L 211.699716 170.702797 
L 212.54517 170.386568 
L 213.390625 171.764484 
L 214.23608 170.363681 
L 215.081534 170.943923 
L 215.926989 171.742956 
L 216.772443 173.321088 
L 217.617898 173.543595 
L 218.463352 173.401278 
L 219.308807 172.410984 
L 220.154261 172.754716 
L 220.999716 172.896141 
L 221.84517 172.496494 
L 222.690625 172.807733 
L 223.53608 172.372041 
L 224.381534 171.548362 
L 225.226989 172.908841 
L 226.917898 173.751662 
L 227.763352 173.680925 
L 228.608807 174.136271 
L 229.454261 173.041145 
L 230.299716 174.437231 
L 231.14517 172.369407 
L 231.990625 174.972957 
L 232.83608 174.250099 
L 233.681534 175.539665 
L 234.526989 174.034876 
L 235.372443 173.63476 
L 236.217898 174.998044 
L 237.908807 173.713275 
L 238.754261 173.768643 
L 239.599716 174.192507 
L 240.44517 175.217428 
L 241.290625 174.549207 
L 242.13608 175.102351 
L 242.981534 173.000769 
L 243.826989 173.396092 
L 245.517898 172.24628 
L 246.363352 173.830064 
L 247.208807 172.971341 
L 248.054261 175.344392 
L 248.899716 176.316089 
L 250.590625 174.720648 
L 251.43608 175.750386 
L 252.281534 175.270053 
L 253.126989 175.659534 
L 253.972443 175.802949 
L 254.817898 176.777934 
L 255.663352 176.066467 
L 256.508807 174.60952 
L 257.354261 175.701538 
L 258.199716 177.18643 
L 259.04517 177.146097 
L 260.73608 176.671732 
L 261.581534 177.625823 
L 262.426989 178.826261 
L 263.272443 178.840463 
L 264.117898 178.124467 
L 264.963352 178.644971 
L 265.808807 177.639782 
L 266.654261 178.637141 
L 267.499716 178.333677 
L 268.34517 178.623996 
L 269.190625 178.507095 
L 270.03608 178.055754 
L 270.881534 178.154192 
L 271.726989 177.461703 
L 272.572443 178.141784 
L 273.417898 178.66269 
L 274.263352 178.675581 
L 275.108807 178.230668 
L 275.954261 178.09883 
L 276.799716 178.652588 
L 277.64517 177.930105 
L 280.181534 179.523749 
L 281.026989 178.940492 
L 281.872443 180.274731 
L 282.717898 179.956917 
L 283.563352 179.352725 
L 284.408807 180.378575 
L 285.254261 179.36548 
L 286.099716 179.641085 
L 286.94517 178.456831 
L 288.63608 179.406886 
L 289.481534 179.82643 
L 290.326989 180.00236 
L 291.172443 180.935344 
L 292.017898 180.224525 
L 292.863352 180.851568 
L 293.708807 179.961341 
L 294.554261 180.187773 
L 295.399716 180.141461 
L 296.24517 181.494606 
L 297.090625 179.749474 
L 297.93608 181.661703 
L 298.781534 180.841325 
L 299.626989 181.108068 
L 300.472443 180.436024 
L 301.317898 181.135765 
L 302.163352 182.051575 
L 303.008807 181.42228 
L 303.854261 181.417484 
L 304.699716 181.192607 
L 305.54517 181.70878 
L 307.23608 183.370872 
L 308.081534 182.602122 
L 308.926989 181.152498 
L 309.772443 182.618152 
L 310.617898 182.96134 
L 311.463352 182.33576 
L 312.308807 182.827178 
L 313.154261 182.95431 
L 313.999716 182.864038 
L 314.84517 182.510754 
L 315.690625 183.230302 
L 316.53608 182.899408 
L 317.381534 183.054188 
L 319.072443 183.659796 
L 319.917898 183.253415 
L 320.763352 182.987873 
L 321.608807 183.77546 
L 322.454261 182.660957 
L 323.299716 183.157786 
L 324.14517 182.728784 
L 324.990625 183.01416 
L 325.83608 183.988878 
L 326.681534 184.529058 
L 327.526989 184.064193 
L 328.372443 184.222385 
L 329.217898 183.845806 
L 330.908807 183.780493 
L 332.599716 183.786981 
L 334.290625 183.979283 
L 335.13608 184.288766 
L 335.981534 184.176505 
L 337.672443 184.239144 
L 338.517898 184.552823 
L 340.208807 184.184467 
L 341.054261 184.679586 
L 341.899716 184.656079 
L 342.74517 184.883799 
L 343.590625 184.518958 
L 344.43608 184.613429 
L 346.126989 184.125656 
L 346.972443 184.52696 
L 347.817898 184.677067 
L 348.663352 184.492818 
L 349.508807 184.456798 
L 350.354261 185.084062 
L 351.199716 184.766681 
L 352.04517 184.134889 
L 352.890625 184.583512 
L 353.73608 184.059195 
L 354.581534 184.615016 
L 355.426989 184.953905 
L 356.272443 184.443376 
L 357.117898 183.458362 
L 357.963352 183.980596 
L 358.808807 184.344202 
L 359.654261 183.849578 
L 360.499716 184.253663 
L 361.34517 184.82729 
L 362.190625 184.469422 
L 363.03608 185.046916 
L 363.881534 184.443785 
L 364.726989 184.476484 
L 365.572443 184.368245 
L 366.417898 183.937993 
L 368.108807 184.013952 
L 368.954261 184.777115 
L 369.799716 184.99747 
L 370.64517 183.772517 
L 371.490625 184.035706 
L 372.33608 184.102105 
L 373.181534 184.288311 
L 374.026989 184.173766 
L 374.872443 184.293227 
L 375.717898 184.00341 
L 376.563352 184.199036 
L 378.254261 184.092655 
L 379.099716 184.455043 
L 380.790625 184.287347 
L 381.63608 184.290951 
L 382.481534 183.727209 
L 384.172443 184.605861 
L 385.863352 184.274913 
L 386.708807 184.874952 
L 387.554261 184.9632 
L 388.399716 185.316616 
L 389.24517 185.323023 
L 390.090625 184.748002 
L 390.93608 184.519384 
L 391.781534 184.862935 
L 392.626989 184.523637 
L 394.317898 184.617477 
L 395.163352 184.415773 
L 396.008807 184.568713 
L 396.854261 184.074704 
L 397.699716 183.720718 
L 398.54517 183.962436 
L 399.390625 183.809039 
L 400.23608 184.237151 
L 401.081534 184.03921 
L 401.926989 184.086871 
L 402.772443 184.247767 
L 406.154261 184.360026 
L 406.999716 184.510466 
L 407.84517 184.111391 
L 409.53608 184.1085 
L 410.381534 183.809955 
L 411.226989 184.328808 
L 412.072443 183.780577 
L 412.917898 184.626633 
L 413.763352 183.751032 
L 414.608807 183.766926 
L 415.454261 184.064515 
L 417.14517 184.284459 
L 417.990625 184.067987 
L 418.83608 184.061054 
L 419.681534 183.094892 
L 421.372443 183.743901 
L 422.217898 184.677753 
L 423.908807 183.939998 
L 424.754261 184.251046 
L 425.599716 184.200395 
L 426.44517 183.966637 
L 428.981534 184.067416 
L 429.826989 183.732881 
L 430.672443 184.6301 
L 431.517898 184.169221 
L 432.363352 183.967957 
L 433.208807 184.074859 
L 434.054261 183.424278 
L 434.899716 184.070452 
L 439.972443 183.61208 
L 440.817898 183.740517 
L 441.663352 184.238776 
L 442.508807 183.488428 
L 444.199716 183.851165 
L 445.890625 183.710228 
L 446.73608 183.838051 
L 449.272443 183.82598 
L 450.963352 183.289922 
L 451.808807 183.561546 
L 452.654261 183.463037 
L 453.499716 183.594836 
L 454.34517 183.446234 
L 455.190625 183.573195 
L 456.03608 183.125697 
L 456.881534 183.257786 
L 457.726989 183.147491 
L 458.572443 182.907027 
L 459.417898 183.072826 
L 460.263352 183.771144 
L 461.108807 183.213293 
L 461.954261 182.883006 
L 462.799716 183.23388 
L 463.64517 183.288898 
L 464.490625 183.483698 
L 465.33608 183.068249 
L 467.026989 183.287115 
L 467.872443 183.159291 
L 468.717898 183.559667 
L 469.563352 183.361178 
L 470.408807 183.401738 
L 471.254261 183.750652 
L 472.099716 183.301438 
L 472.94517 183.920194 
L 473.790625 183.57105 
L 475.481534 183.171462 
L 476.326989 183.961579 
L 477.172443 184.187983 
L 478.017898 184.128509 
L 478.863352 183.744035 
L 479.708807 184.037423 
L 480.554261 183.771991 
L 481.399716 184.014808 
L 483.090625 183.771839 
L 484.781534 183.874599 
L 485.626989 184.11918 
L 486.472443 184.044082 
L 487.317898 183.77541 
L 488.163352 183.297732 
L 489.008807 183.237449 
L 489.854261 183.889617 
L 491.54517 183.403603 
L 492.390625 183.638456 
L 493.23608 183.237933 
L 494.081534 183.478615 
L 495.772443 183.355926 
L 496.617898 183.629338 
L 497.463352 183.641067 
L 498.308807 183.380171 
L 499.154261 183.35723 
L 499.999716 183.559473 
L 500.84517 183.546734 
L 502.53608 184.281031 
L 504.226989 184.485685 
L 505.072443 183.961286 
L 505.917898 184.134919 
L 506.763352 183.670988 
L 507.608807 183.955958 
L 508.454261 183.86234 
L 509.299716 183.350208 
L 510.14517 184.152244 
L 510.990625 183.509946 
L 511.83608 183.848731 
L 516.063352 184.314536 
L 516.908807 183.967137 
L 518.599716 184.477344 
L 519.44517 184.298746 
L 520.290625 183.977648 
L 521.13608 184.087434 
L 521.981534 184.402455 
L 523.672443 184.508636 
L 524.517898 183.924588 
L 526.208807 184.370312 
L 527.054261 184.261772 
L 527.899716 184.387189 
L 528.74517 184.22331 
L 529.590625 184.502419 
L 530.43608 184.57622 
L 531.281534 184.528911 
L 532.126989 184.61146 
L 534.663352 184.47329 
L 536.354261 184.449592 
L 538.04517 184.542384 
L 538.890625 184.103415 
L 539.73608 183.93274 
L 540.581534 184.643783 
L 541.426989 184.946179 
L 542.272443 184.625262 
L 543.117898 184.744458 
L 543.963352 184.123365 
L 544.808807 184.379415 
L 545.654261 184.333722 
L 546.499716 183.967268 
L 549.881534 183.902133 
L 550.726989 183.658483 
L 551.572443 184.056607 
L 553.263352 184.025916 
L 554.108807 183.864077 
L 554.954261 184.022285 
L 555.799716 184.414301 
L 556.64517 184.354348 
L 557.490625 184.134181 
L 559.181534 184.180303 
L 560.872443 183.895296 
L 561.717898 184.035501 
L 562.563352 183.811048 
L 563.408807 184.344264 
L 564.254261 183.948619 
L 565.099716 183.94321 
L 565.94517 183.649513 
L 566.790625 183.551772 
L 569.326989 184.018637 
L 570.172443 183.87005 
L 571.017898 183.563759 
L 571.863352 183.636485 
L 572.708807 183.828049 
L 573.554261 184.158674 
L 574.399716 183.668407 
L 575.24517 183.609338 
L 576.090625 183.336489 
L 576.93608 183.443337 
L 578.626989 183.992413 
L 579.472443 183.9525 
L 580.317898 183.591024 
L 581.163352 183.866701 
L 582.008807 183.821246 
L 582.854261 183.532774 
L 583.699716 183.614149 
L 585.390625 183.406414 
L 586.23608 183.598981 
L 587.081534 183.11501 
L 589.617898 183.699908 
L 592.154261 183.256929 
L 592.999716 183.53883 
L 593.84517 183.211051 
L 594.690625 183.496829 
L 595.53608 183.146545 
L 596.381534 183.510771 
L 597.226989 183.53694 
L 598.072443 183.138242 
L 598.917898 182.937259 
L 600.608807 183.56218 
L 601.454261 183.294892 
L 603.14517 183.236702 
L 603.990625 183.185423 
L 605.681534 183.572691 
L 607.372443 183.287384 
L 609.063352 183.374488 
L 609.908807 182.964802 
L 610.754261 183.324472 
L 613.290625 183.179447 
L 614.981534 182.909484 
L 615.826989 183.053275 
L 618.363352 182.703301 
L 619.208807 182.928952 
L 620.054261 182.642331 
L 620.899716 183.217741 
L 621.74517 182.641699 
L 622.590625 182.342965 
L 625.126989 182.595602 
L 625.126989 182.595602 
" clip-path="url(#p61b2aaa259)" style="fill: none; stroke: #1f77b4; stroke-width: 1.5; stroke-linecap: square"/>
   </g>
   <g id="line2d_14">
    <path d="M 117.854261 296.03625 
L 118.699716 281.604935 
L 119.54517 284.937888 
L 120.390625 246.001987 
L 121.23608 270.950308 
L 122.081534 246.561247 
L 123.772443 226.968639 
L 124.617898 210.778769 
L 125.463352 215.903882 
L 126.308807 216.941819 
L 127.154261 213.350333 
L 127.999716 209.154784 
L 128.84517 206.772593 
L 129.690625 203.915034 
L 130.53608 202.60435 
L 131.381534 206.177986 
L 132.226989 210.825042 
L 133.072443 216.91855 
L 133.917898 216.352314 
L 134.763352 218.493547 
L 135.608807 215.598695 
L 137.299716 221.377916 
L 138.14517 221.237981 
L 138.990625 209.700687 
L 139.83608 203.982905 
L 140.681534 201.936608 
L 141.526989 196.027266 
L 142.372443 195.848203 
L 143.217898 187.438441 
L 144.063352 190.141416 
L 144.908807 189.42714 
L 145.754261 188.949437 
L 146.599716 190.792885 
L 147.44517 190.124215 
L 148.290625 190.46342 
L 149.13608 189.313475 
L 149.981534 188.765514 
L 150.826989 185.85427 
L 151.672443 186.505182 
L 152.517898 185.489899 
L 153.363352 185.992536 
L 154.208807 187.428099 
L 155.054261 187.422095 
L 157.590625 184.904326 
L 158.43608 186.32159 
L 159.281534 184.280463 
L 160.126989 185.073553 
L 160.972443 187.132296 
L 162.663352 185.552295 
L 163.508807 184.810089 
L 164.354261 185.770033 
L 165.199716 184.676514 
L 166.04517 184.446925 
L 166.890625 184.73742 
L 167.73608 185.756947 
L 168.581534 184.552798 
L 169.426989 184.889511 
L 170.272443 184.004759 
L 171.117898 183.901411 
L 171.963352 184.210607 
L 172.808807 183.773288 
L 173.654261 183.881292 
L 174.499716 184.302752 
L 175.34517 184.383936 
L 176.190625 184.847795 
L 177.03608 183.874218 
L 177.881534 183.985069 
L 178.726989 184.487505 
L 179.572443 182.909122 
L 180.417898 182.846106 
L 181.263352 183.355634 
L 182.108807 184.113366 
L 182.954261 183.175639 
L 183.799716 183.903217 
L 184.64517 183.699209 
L 185.490625 183.061725 
L 186.33608 183.196088 
L 187.181534 185.027866 
L 188.026989 184.126514 
L 188.872443 183.024234 
L 189.717898 183.024664 
L 190.563352 182.908792 
L 191.408807 182.921731 
L 192.254261 183.446698 
L 193.099716 183.231953 
L 193.94517 183.782402 
L 194.790625 183.157305 
L 196.481534 183.542492 
L 197.326989 183.446975 
L 198.172443 182.928913 
L 199.017898 183.836236 
L 199.863352 183.736315 
L 200.708807 183.907988 
L 201.554261 183.273056 
L 202.399716 183.490009 
L 203.24517 182.720341 
L 204.090625 182.625096 
L 204.93608 182.920247 
L 205.781534 183.852156 
L 206.626989 182.802564 
L 207.472443 182.738626 
L 208.317898 182.801259 
L 210.008807 183.681555 
L 210.854261 182.885937 
L 211.699716 183.817856 
L 212.54517 183.130461 
L 213.390625 183.143888 
L 215.081534 182.841679 
L 215.926989 183.534285 
L 216.772443 182.956399 
L 217.617898 183.1017 
L 218.463352 183.593199 
L 219.308807 183.231413 
L 220.154261 183.494154 
L 220.999716 182.587269 
L 222.690625 183.233486 
L 223.53608 183.014462 
L 224.381534 183.921541 
L 225.226989 183.145828 
L 226.072443 184.071561 
L 226.917898 183.153563 
L 227.763352 183.120939 
L 228.608807 183.217194 
L 229.454261 182.82653 
L 230.299716 183.195985 
L 231.14517 183.2152 
L 231.990625 182.068551 
L 232.83608 182.517478 
L 233.681534 183.2954 
L 234.526989 183.449769 
L 235.372443 183.395169 
L 236.217898 183.713621 
L 237.063352 182.791018 
L 237.908807 182.950666 
L 238.754261 183.437971 
L 239.599716 183.397177 
L 240.44517 182.63061 
L 241.290625 183.785292 
L 242.13608 182.474261 
L 242.981534 183.387489 
L 243.826989 182.480907 
L 244.672443 183.151485 
L 246.363352 182.730728 
L 247.208807 183.290475 
L 248.054261 182.409606 
L 248.899716 182.700566 
L 249.74517 183.743703 
L 250.590625 182.943793 
L 253.126989 182.818776 
L 253.972443 183.03813 
L 254.817898 182.991935 
L 255.663352 183.939272 
L 256.508807 183.640936 
L 257.354261 182.692036 
L 258.199716 182.555659 
L 259.04517 182.842249 
L 259.890625 182.57223 
L 260.73608 183.123184 
L 261.581534 182.891681 
L 262.426989 183.99973 
L 264.117898 182.255185 
L 264.963352 182.325751 
L 266.654261 182.950932 
L 267.499716 182.766578 
L 268.34517 183.213411 
L 269.190625 182.990066 
L 270.03608 183.10962 
L 270.881534 182.88939 
L 271.726989 183.19995 
L 272.572443 182.548171 
L 273.417898 182.331845 
L 274.263352 182.754582 
L 275.108807 182.386773 
L 275.954261 182.499166 
L 276.799716 183.056651 
L 277.64517 182.807802 
L 278.490625 183.105543 
L 279.33608 182.743468 
L 280.181534 183.52151 
L 281.026989 182.973611 
L 285.254261 183.079528 
L 286.099716 182.768168 
L 287.790625 182.513927 
L 289.481534 182.752587 
L 290.326989 183.008193 
L 291.172443 183.679111 
L 292.863352 182.806429 
L 293.708807 182.954243 
L 297.090625 183.070869 
L 297.93608 183.105361 
L 298.781534 182.863134 
L 300.472443 183.206005 
L 302.163352 182.746778 
L 303.854261 183.31884 
L 304.699716 183.573065 
L 305.54517 183.018668 
L 306.390625 183.043531 
L 307.23608 183.317399 
L 308.926989 183.136009 
L 309.772443 183.506695 
L 310.617898 183.383708 
L 311.463352 183.030956 
L 313.154261 183.255503 
L 313.999716 183.74766 
L 314.84517 183.539514 
L 315.690625 184.122744 
L 316.53608 183.116812 
L 317.381534 183.055189 
L 319.072443 183.218949 
L 321.608807 183.497466 
L 322.454261 183.173385 
L 323.299716 183.701313 
L 324.14517 183.1398 
L 325.83608 183.983366 
L 326.681534 183.509783 
L 327.526989 183.31685 
L 328.372443 183.477441 
L 329.217898 182.976603 
L 330.063352 183.427922 
L 330.908807 183.32973 
L 331.754261 182.693731 
L 332.599716 183.190847 
L 333.44517 182.878586 
L 334.290625 183.631742 
L 335.13608 183.532027 
L 335.981534 184.148137 
L 336.826989 183.484397 
L 338.517898 183.193172 
L 339.363352 183.484256 
L 340.208807 183.52136 
L 341.054261 183.165281 
L 341.899716 182.983246 
L 342.74517 183.474534 
L 343.590625 183.229546 
L 344.43608 183.502455 
L 345.281534 183.333029 
L 346.126989 183.590888 
L 346.972443 183.320601 
L 347.817898 183.380472 
L 348.663352 183.071998 
L 349.508807 183.440573 
L 350.354261 183.385062 
L 351.199716 183.523604 
L 352.04517 183.365623 
L 352.890625 183.015156 
L 353.73608 183.250515 
L 354.581534 184.034514 
L 355.426989 183.839587 
L 356.272443 183.988011 
L 357.117898 183.312729 
L 357.963352 183.503067 
L 358.808807 183.375753 
L 359.654261 183.544545 
L 360.499716 183.094009 
L 362.190625 183.721852 
L 363.03608 183.432648 
L 363.881534 183.598003 
L 364.726989 182.852362 
L 365.572443 183.394857 
L 367.263352 183.282232 
L 368.108807 183.698576 
L 368.954261 184.269199 
L 369.799716 183.427617 
L 370.64517 183.745692 
L 371.490625 183.455576 
L 373.181534 183.798223 
L 374.026989 183.654011 
L 374.872443 183.747524 
L 375.717898 183.490886 
L 376.563352 183.697737 
L 377.408807 183.543973 
L 378.254261 183.584663 
L 379.099716 183.770174 
L 379.94517 183.322506 
L 380.790625 183.880069 
L 381.63608 183.989708 
L 382.481534 183.367329 
L 383.326989 183.600689 
L 385.017898 183.696709 
L 385.863352 184.280465 
L 386.708807 183.46197 
L 387.554261 183.688691 
L 389.24517 183.806285 
L 390.090625 183.094654 
L 391.781534 183.904287 
L 392.626989 183.294811 
L 393.472443 183.580542 
L 396.008807 183.662428 
L 396.854261 183.316345 
L 397.699716 183.534865 
L 398.54517 183.912978 
L 399.390625 184.048144 
L 400.23608 183.461047 
L 401.926989 183.752332 
L 402.772443 183.61315 
L 403.617898 184.063493 
L 404.463352 183.592658 
L 405.308807 183.870614 
L 406.154261 183.186031 
L 406.999716 183.964145 
L 407.84517 183.160091 
L 408.690625 183.861212 
L 409.53608 183.292585 
L 410.381534 183.516306 
L 411.226989 183.331213 
L 412.072443 183.617877 
L 412.917898 183.525817 
L 413.763352 183.292991 
L 414.608807 183.480584 
L 415.454261 183.852578 
L 417.14517 183.79079 
L 417.990625 183.497384 
L 418.83608 183.815023 
L 419.681534 184.341255 
L 420.526989 183.225012 
L 421.372443 183.734344 
L 422.217898 183.358944 
L 423.063352 183.242344 
L 423.908807 183.601829 
L 424.754261 183.476473 
L 425.599716 183.648195 
L 426.44517 183.675303 
L 427.290625 183.545577 
L 428.13608 183.551833 
L 428.981534 183.68815 
L 429.826989 184.067365 
L 430.672443 184.011006 
L 432.363352 183.518072 
L 433.208807 183.905989 
L 434.054261 183.72298 
L 434.899716 184.051702 
L 435.74517 183.556504 
L 437.43608 183.560879 
L 438.281534 183.850074 
L 439.126989 183.510944 
L 439.972443 183.786796 
L 440.817898 183.574853 
L 441.663352 184.06199 
L 442.508807 183.535886 
L 443.354261 183.619326 
L 444.199716 184.003903 
L 445.890625 184.168796 
L 446.73608 183.648536 
L 447.581534 184.069936 
L 448.426989 183.989729 
L 449.272443 184.104739 
L 450.117898 183.551519 
L 450.963352 184.201567 
L 452.654261 183.335254 
L 453.499716 183.935562 
L 454.34517 183.628661 
L 455.190625 183.608723 
L 456.03608 183.338168 
L 456.881534 183.369248 
L 457.726989 183.728027 
L 458.572443 183.653923 
L 459.417898 183.871679 
L 460.263352 183.500933 
L 461.108807 183.804692 
L 461.954261 183.557266 
L 462.799716 183.536052 
L 463.64517 183.677491 
L 464.490625 183.511561 
L 465.33608 183.818911 
L 466.181534 183.680106 
L 467.026989 183.316719 
L 467.872443 183.606841 
L 468.717898 184.030771 
L 469.563352 183.89653 
L 470.408807 183.561905 
L 471.254261 183.963076 
L 472.099716 183.589406 
L 472.94517 183.671066 
L 473.790625 184.032846 
L 474.63608 183.816132 
L 475.481534 183.734416 
L 477.172443 183.984267 
L 478.017898 184.460725 
L 479.708807 183.955757 
L 480.554261 183.371575 
L 481.399716 183.800792 
L 482.24517 183.811522 
L 483.090625 184.438955 
L 483.93608 183.90586 
L 484.781534 183.751405 
L 485.626989 184.136892 
L 486.472443 184.113377 
L 487.317898 184.361561 
L 488.163352 183.893618 
L 489.854261 184.154274 
L 490.699716 183.986099 
L 491.54517 184.031172 
L 492.390625 184.746893 
L 493.23608 183.829595 
L 494.081534 184.525654 
L 495.772443 184.484841 
L 496.617898 183.539757 
L 497.463352 184.396892 
L 498.308807 183.562071 
L 499.154261 184.058096 
L 499.999716 184.027067 
L 501.690625 183.606717 
L 502.53608 184.135914 
L 504.226989 183.971408 
L 505.072443 183.836393 
L 505.917898 184.141271 
L 506.763352 183.986363 
L 507.608807 184.560163 
L 508.454261 184.119487 
L 510.14517 184.380259 
L 510.990625 183.942237 
L 511.83608 184.577942 
L 512.681534 184.126651 
L 513.526989 184.089082 
L 514.372443 184.519843 
L 515.217898 184.160777 
L 516.063352 184.141598 
L 516.908807 183.727954 
L 517.754261 184.247347 
L 518.599716 183.795225 
L 519.44517 183.797496 
L 520.290625 183.976826 
L 521.13608 184.007656 
L 521.981534 184.432068 
L 523.672443 184.492172 
L 524.517898 183.747344 
L 525.363352 183.93629 
L 526.208807 184.274464 
L 527.054261 184.085552 
L 527.899716 183.680952 
L 528.74517 184.109062 
L 529.590625 183.982663 
L 530.43608 184.470374 
L 531.281534 183.848077 
L 532.126989 184.292654 
L 532.972443 184.252351 
L 533.817898 184.65116 
L 535.508807 183.831811 
L 536.354261 184.151975 
L 537.199716 183.759917 
L 538.04517 184.046638 
L 538.890625 183.293369 
L 539.73608 183.455596 
L 540.581534 183.788144 
L 541.426989 183.97835 
L 542.272443 184.395394 
L 543.117898 184.200659 
L 543.963352 183.62969 
L 544.808807 183.918979 
L 545.654261 183.887444 
L 546.499716 183.680268 
L 547.34517 184.121697 
L 549.03608 183.577968 
L 549.881534 183.406932 
L 550.726989 183.699485 
L 551.572443 183.838053 
L 552.417898 184.174193 
L 553.263352 183.406188 
L 554.108807 183.566256 
L 554.954261 184.112185 
L 556.64517 183.857474 
L 557.490625 183.661187 
L 558.33608 183.345625 
L 559.181534 183.797981 
L 560.026989 184.10976 
L 560.872443 183.552716 
L 561.717898 183.578276 
L 562.563352 183.451638 
L 564.254261 183.804361 
L 565.099716 183.562106 
L 565.94517 183.65838 
L 566.790625 183.506233 
L 570.172443 183.5843 
L 571.017898 183.401444 
L 571.863352 183.679564 
L 572.708807 183.625895 
L 573.554261 184.167791 
L 574.399716 183.337589 
L 575.24517 183.581917 
L 576.090625 183.259873 
L 576.93608 183.674293 
L 578.626989 183.769385 
L 579.472443 183.061354 
L 580.317898 183.31131 
L 581.163352 183.679162 
L 582.008807 183.900729 
L 582.854261 183.444012 
L 584.54517 183.288519 
L 585.390625 183.655874 
L 586.23608 183.632594 
L 587.081534 183.295308 
L 587.926989 183.364492 
L 588.772443 183.186586 
L 589.617898 183.503763 
L 592.154261 183.32978 
L 592.999716 183.466503 
L 593.84517 183.454851 
L 594.690625 183.076589 
L 595.53608 183.41821 
L 596.381534 183.524796 
L 597.226989 182.842981 
L 598.072443 183.131057 
L 599.763352 183.245596 
L 600.608807 183.376076 
L 601.454261 183.107833 
L 602.299716 183.460305 
L 603.14517 183.425541 
L 603.990625 183.241457 
L 605.681534 183.619045 
L 606.526989 183.147681 
L 607.372443 183.273929 
L 609.063352 183.159597 
L 609.908807 183.491664 
L 610.754261 183.561443 
L 611.599716 183.185605 
L 612.44517 183.588135 
L 613.290625 183.219707 
L 614.13608 183.087308 
L 614.981534 183.319028 
L 615.826989 183.410961 
L 616.672443 183.24749 
L 618.363352 183.111364 
L 619.208807 183.54411 
L 620.054261 183.164345 
L 620.899716 183.752388 
L 621.74517 182.989223 
L 625.126989 183.309707 
L 625.126989 183.309707 
" clip-path="url(#p61b2aaa259)" style="fill: none; stroke: #ff7f0e; stroke-width: 1.5; stroke-linecap: square"/>
   </g>
   <g id="patch_3">
    <path d="M 92.490625 308.63625 
L 92.490625 31.43625 
" style="fill: none; stroke: #000000; stroke-width: 0.8; stroke-linejoin: miter; stroke-linecap: square"/>
   </g>
   <g id="patch_4">
    <path d="M 650.490625 308.63625 
L 650.490625 31.43625 
" style="fill: none; stroke: #000000; stroke-width: 0.8; stroke-linejoin: miter; stroke-linecap: square"/>
   </g>
   <g id="patch_5">
    <path d="M 92.490625 308.63625 
L 650.490625 308.63625 
" style="fill: none; stroke: #000000; stroke-width: 0.8; stroke-linejoin: miter; stroke-linecap: square"/>
   </g>
   <g id="patch_6">
    <path d="M 92.490625 31.43625 
L 650.490625 31.43625 
" style="fill: none; stroke: #000000; stroke-width: 0.8; stroke-linejoin: miter; stroke-linecap: square"/>
   </g>
   <g id="text_15">
    <!-- Generator and Discriminator Loss During Training -->
    <g transform="translate(74.258125 25.43625) scale(0.24 -0.24)">
     <defs>
      <path id="DejaVuSans-47" d="M 3809 666 
L 3809 1919 
L 2778 1919 
L 2778 2438 
L 4434 2438 
L 4434 434 
Q 4069 175 3628 42 
Q 3188 -91 2688 -91 
Q 1594 -91 976 548 
Q 359 1188 359 2328 
Q 359 3472 976 4111 
Q 1594 4750 2688 4750 
Q 3144 4750 3555 4637 
Q 3966 4525 4313 4306 
L 4313 3634 
Q 3963 3931 3569 4081 
Q 3175 4231 2741 4231 
Q 1884 4231 1454 3753 
Q 1025 3275 1025 2328 
Q 1025 1384 1454 906 
Q 1884 428 2741 428 
Q 3075 428 3337 486 
Q 3600 544 3809 666 
z
" transform="scale(0.015625)"/>
      <path id="DejaVuSans-20" transform="scale(0.015625)"/>
      <path id="DejaVuSans-64" d="M 2906 2969 
L 2906 4863 
L 3481 4863 
L 3481 0 
L 2906 0 
L 2906 525 
Q 2725 213 2448 61 
Q 2172 -91 1784 -91 
Q 1150 -91 751 415 
Q 353 922 353 1747 
Q 353 2572 751 3078 
Q 1150 3584 1784 3584 
Q 2172 3584 2448 3432 
Q 2725 3281 2906 2969 
z
M 947 1747 
Q 947 1113 1208 752 
Q 1469 391 1925 391 
Q 2381 391 2643 752 
Q 2906 1113 2906 1747 
Q 2906 2381 2643 2742 
Q 2381 3103 1925 3103 
Q 1469 3103 1208 2742 
Q 947 2381 947 1747 
z
" transform="scale(0.015625)"/>
      <path id="DejaVuSans-44" d="M 1259 4147 
L 1259 519 
L 2022 519 
Q 2988 519 3436 956 
Q 3884 1394 3884 2338 
Q 3884 3275 3436 3711 
Q 2988 4147 2022 4147 
L 1259 4147 
z
M 628 4666 
L 1925 4666 
Q 3281 4666 3915 4102 
Q 4550 3538 4550 2338 
Q 4550 1131 3912 565 
Q 3275 0 1925 0 
L 628 0 
L 628 4666 
z
" transform="scale(0.015625)"/>
      <path id="DejaVuSans-63" d="M 3122 3366 
L 3122 2828 
Q 2878 2963 2633 3030 
Q 2388 3097 2138 3097 
Q 1578 3097 1268 2742 
Q 959 2388 959 1747 
Q 959 1106 1268 751 
Q 1578 397 2138 397 
Q 2388 397 2633 464 
Q 2878 531 3122 666 
L 3122 134 
Q 2881 22 2623 -34 
Q 2366 -91 2075 -91 
Q 1284 -91 818 406 
Q 353 903 353 1747 
Q 353 2603 823 3093 
Q 1294 3584 2113 3584 
Q 2378 3584 2631 3529 
Q 2884 3475 3122 3366 
z
" transform="scale(0.015625)"/>
      <path id="DejaVuSans-6d" d="M 3328 2828 
Q 3544 3216 3844 3400 
Q 4144 3584 4550 3584 
Q 5097 3584 5394 3201 
Q 5691 2819 5691 2113 
L 5691 0 
L 5113 0 
L 5113 2094 
Q 5113 2597 4934 2840 
Q 4756 3084 4391 3084 
Q 3944 3084 3684 2787 
Q 3425 2491 3425 1978 
L 3425 0 
L 2847 0 
L 2847 2094 
Q 2847 2600 2669 2842 
Q 2491 3084 2119 3084 
Q 1678 3084 1418 2786 
Q 1159 2488 1159 1978 
L 1159 0 
L 581 0 
L 581 3500 
L 1159 3500 
L 1159 2956 
Q 1356 3278 1631 3431 
Q 1906 3584 2284 3584 
Q 2666 3584 2933 3390 
Q 3200 3197 3328 2828 
z
" transform="scale(0.015625)"/>
      <path id="DejaVuSans-75" d="M 544 1381 
L 544 3500 
L 1119 3500 
L 1119 1403 
Q 1119 906 1312 657 
Q 1506 409 1894 409 
Q 2359 409 2629 706 
Q 2900 1003 2900 1516 
L 2900 3500 
L 3475 3500 
L 3475 0 
L 2900 0 
L 2900 538 
Q 2691 219 2414 64 
Q 2138 -91 1772 -91 
Q 1169 -91 856 284 
Q 544 659 544 1381 
z
M 1991 3584 
L 1991 3584 
z
" transform="scale(0.015625)"/>
      <path id="DejaVuSans-67" d="M 2906 1791 
Q 2906 2416 2648 2759 
Q 2391 3103 1925 3103 
Q 1463 3103 1205 2759 
Q 947 2416 947 1791 
Q 947 1169 1205 825 
Q 1463 481 1925 481 
Q 2391 481 2648 825 
Q 2906 1169 2906 1791 
z
M 3481 434 
Q 3481 -459 3084 -895 
Q 2688 -1331 1869 -1331 
Q 1566 -1331 1297 -1286 
Q 1028 -1241 775 -1147 
L 775 -588 
Q 1028 -725 1275 -790 
Q 1522 -856 1778 -856 
Q 2344 -856 2625 -561 
Q 2906 -266 2906 331 
L 2906 616 
Q 2728 306 2450 153 
Q 2172 0 1784 0 
Q 1141 0 747 490 
Q 353 981 353 1791 
Q 353 2603 747 3093 
Q 1141 3584 1784 3584 
Q 2172 3584 2450 3431 
Q 2728 3278 2906 2969 
L 2906 3500 
L 3481 3500 
L 3481 434 
z
" transform="scale(0.015625)"/>
      <path id="DejaVuSans-54" d="M -19 4666 
L 3928 4666 
L 3928 4134 
L 2272 4134 
L 2272 0 
L 1638 0 
L 1638 4134 
L -19 4134 
L -19 4666 
z
" transform="scale(0.015625)"/>
     </defs>
     <use xlink:href="#DejaVuSans-47"/>
     <use xlink:href="#DejaVuSans-65" x="77.490234"/>
     <use xlink:href="#DejaVuSans-6e" x="139.013672"/>
     <use xlink:href="#DejaVuSans-65" x="202.392578"/>
     <use xlink:href="#DejaVuSans-72" x="263.916016"/>
     <use xlink:href="#DejaVuSans-61" x="305.029297"/>
     <use xlink:href="#DejaVuSans-74" x="366.308594"/>
     <use xlink:href="#DejaVuSans-6f" x="405.517578"/>
     <use xlink:href="#DejaVuSans-72" x="466.699219"/>
     <use xlink:href="#DejaVuSans-20" x="507.8125"/>
     <use xlink:href="#DejaVuSans-61" x="539.599609"/>
     <use xlink:href="#DejaVuSans-6e" x="600.878906"/>
     <use xlink:href="#DejaVuSans-64" x="664.257812"/>
     <use xlink:href="#DejaVuSans-20" x="727.734375"/>
     <use xlink:href="#DejaVuSans-44" x="759.521484"/>
     <use xlink:href="#DejaVuSans-69" x="836.523438"/>
     <use xlink:href="#DejaVuSans-73" x="864.306641"/>
     <use xlink:href="#DejaVuSans-63" x="916.40625"/>
     <use xlink:href="#DejaVuSans-72" x="971.386719"/>
     <use xlink:href="#DejaVuSans-69" x="1012.5"/>
     <use xlink:href="#DejaVuSans-6d" x="1040.283203"/>
     <use xlink:href="#DejaVuSans-69" x="1137.695312"/>
     <use xlink:href="#DejaVuSans-6e" x="1165.478516"/>
     <use xlink:href="#DejaVuSans-61" x="1228.857422"/>
     <use xlink:href="#DejaVuSans-74" x="1290.136719"/>
     <use xlink:href="#DejaVuSans-6f" x="1329.345703"/>
     <use xlink:href="#DejaVuSans-72" x="1390.527344"/>
     <use xlink:href="#DejaVuSans-20" x="1431.640625"/>
     <use xlink:href="#DejaVuSans-4c" x="1463.427734"/>
     <use xlink:href="#DejaVuSans-6f" x="1517.390625"/>
     <use xlink:href="#DejaVuSans-73" x="1578.572266"/>
     <use xlink:href="#DejaVuSans-73" x="1630.671875"/>
     <use xlink:href="#DejaVuSans-20" x="1682.771484"/>
     <use xlink:href="#DejaVuSans-44" x="1714.558594"/>
     <use xlink:href="#DejaVuSans-75" x="1791.560547"/>
     <use xlink:href="#DejaVuSans-72" x="1854.939453"/>
     <use xlink:href="#DejaVuSans-69" x="1896.052734"/>
     <use xlink:href="#DejaVuSans-6e" x="1923.835938"/>
     <use xlink:href="#DejaVuSans-67" x="1987.214844"/>
     <use xlink:href="#DejaVuSans-20" x="2050.691406"/>
     <use xlink:href="#DejaVuSans-54" x="2082.478516"/>
     <use xlink:href="#DejaVuSans-72" x="2128.8125"/>
     <use xlink:href="#DejaVuSans-61" x="2169.925781"/>
     <use xlink:href="#DejaVuSans-69" x="2231.205078"/>
     <use xlink:href="#DejaVuSans-6e" x="2258.988281"/>
     <use xlink:href="#DejaVuSans-69" x="2322.367188"/>
     <use xlink:href="#DejaVuSans-6e" x="2350.150391"/>
     <use xlink:href="#DejaVuSans-67" x="2413.529297"/>
    </g>
   </g>
   <g id="legend_1">
    <g id="patch_7">
     <path d="M 556.99375 106.14875 
L 636.490625 106.14875 
Q 640.490625 106.14875 640.490625 102.14875 
L 640.490625 45.43625 
Q 640.490625 41.43625 636.490625 41.43625 
L 556.99375 41.43625 
Q 552.99375 41.43625 552.99375 45.43625 
L 552.99375 102.14875 
Q 552.99375 106.14875 556.99375 106.14875 
z
" style="fill: #ffffff; opacity: 0.8; stroke: #cccccc; stroke-linejoin: miter"/>
    </g>
    <g id="line2d_15">
     <path d="M 560.99375 57.633125 
L 580.99375 57.633125 
L 600.99375 57.633125 
" style="fill: none; stroke: #1f77b4; stroke-width: 1.5; stroke-linecap: square"/>
    </g>
    <g id="text_16">
     <!-- G -->
     <g transform="translate(616.99375 64.633125) scale(0.2 -0.2)">
      <use xlink:href="#DejaVuSans-47"/>
     </g>
    </g>
    <g id="line2d_16">
     <path d="M 560.99375 86.989375 
L 580.99375 86.989375 
L 600.99375 86.989375 
" style="fill: none; stroke: #ff7f0e; stroke-width: 1.5; stroke-linecap: square"/>
    </g>
    <g id="text_17">
     <!-- D -->
     <g transform="translate(616.99375 93.989375) scale(0.2 -0.2)">
      <use xlink:href="#DejaVuSans-44"/>
     </g>
    </g>
   </g>
  </g>
 </g>
 <defs>
  <clipPath id="p61b2aaa259">
   <rect x="92.490625" y="31.43625" width="558" height="277.2"/>
  </clipPath>
 </defs>
</svg>
