<?xml version="1.0" encoding="utf-8" standalone="no"?>
<!DOCTYPE svg PUBLIC "-//W3C//DTD SVG 1.1//EN"
  "http://www.w3.org/Graphics/SVG/1.1/DTD/svg11.dtd">
<svg xmlns:xlink="http://www.w3.org/1999/xlink" width="675.923125pt" height="365.54875pt" viewBox="0 0 675.923125 365.54875" xmlns="http://www.w3.org/2000/svg" version="1.1">
 <metadata>
  <rdf:RDF xmlns:dc="http://purl.org/dc/elements/1.1/" xmlns:cc="http://creativecommons.org/ns#" xmlns:rdf="http://www.w3.org/1999/02/22-rdf-syntax-ns#">
   <cc:Work>
    <dc:type rdf:resource="http://purl.org/dc/dcmitype/StillImage"/>
    <dc:date>2024-02-04T01:16:33.820248</dc:date>
    <dc:format>image/svg+xml</dc:format>
    <dc:creator>
     <cc:Agent>
      <dc:title>Matplotlib v3.7.2, https://matplotlib.org/</dc:title>
     </cc:Agent>
    </dc:creator>
   </cc:Work>
  </rdf:RDF>
 </metadata>
 <defs>
  <style type="text/css">*{stroke-linejoin: round; stroke-linecap: butt}</style>
 </defs>
 <g id="figure_1">
  <g id="patch_1">
   <path d="M 0 365.54875 
L 675.923125 365.54875 
L 675.923125 -0 
L 0 -0 
z
" style="fill: #ffffff"/>
  </g>
  <g id="axes_1">
   <g id="patch_2">
    <path d="M 92.490625 308.63625 
L 650.490625 308.63625 
L 650.490625 31.43625 
L 92.490625 31.43625 
z
" style="fill: #ffffff"/>
   </g>
   <g id="matplotlib.axis_1">
    <g id="xtick_1">
     <g id="line2d_1">
      <defs>
       <path id="md30bb931b6" d="M 0 0 
L 0 3.5 
" style="stroke: #000000; stroke-width: 0.8"/>
      </defs>
      <g>
       <use xlink:href="#md30bb931b6" x="117.854261" y="308.63625" style="stroke: #000000; stroke-width: 0.8"/>
      </g>
     </g>
     <g id="text_1">
      <!-- 0 -->
      <g transform="translate(111.491761 330.833125) scale(0.2 -0.2)">
       <defs>
        <path id="DejaVuSans-30" d="M 2034 4250 
Q 1547 4250 1301 3770 
Q 1056 3291 1056 2328 
Q 1056 1369 1301 889 
Q 1547 409 2034 409 
Q 2525 409 2770 889 
Q 3016 1369 3016 2328 
Q 3016 3291 2770 3770 
Q 2525 4250 2034 4250 
z
M 2034 4750 
Q 2819 4750 3233 4129 
Q 3647 3509 3647 2328 
Q 3647 1150 3233 529 
Q 2819 -91 2034 -91 
Q 1250 -91 836 529 
Q 422 1150 422 2328 
Q 422 3509 836 4129 
Q 1250 4750 2034 4750 
z
" transform="scale(0.015625)"/>
       </defs>
       <use xlink:href="#DejaVuSans-30"/>
      </g>
     </g>
    </g>
    <g id="xtick_2">
     <g id="line2d_2">
      <g>
       <use xlink:href="#md30bb931b6" x="184.600673" y="308.63625" style="stroke: #000000; stroke-width: 0.8"/>
      </g>
     </g>
     <g id="text_2">
      <!-- 250 -->
      <g transform="translate(165.513173 330.833125) scale(0.2 -0.2)">
       <defs>
        <path id="DejaVuSans-32" d="M 1228 531 
L 3431 531 
L 3431 0 
L 469 0 
L 469 531 
Q 828 903 1448 1529 
Q 2069 2156 2228 2338 
Q 2531 2678 2651 2914 
Q 2772 3150 2772 3378 
Q 2772 3750 2511 3984 
Q 2250 4219 1831 4219 
Q 1534 4219 1204 4116 
Q 875 4013 500 3803 
L 500 4441 
Q 881 4594 1212 4672 
Q 1544 4750 1819 4750 
Q 2544 4750 2975 4387 
Q 3406 4025 3406 3419 
Q 3406 3131 3298 2873 
Q 3191 2616 2906 2266 
Q 2828 2175 2409 1742 
Q 1991 1309 1228 531 
z
" transform="scale(0.015625)"/>
        <path id="DejaVuSans-35" d="M 691 4666 
L 3169 4666 
L 3169 4134 
L 1269 4134 
L 1269 2991 
Q 1406 3038 1543 3061 
Q 1681 3084 1819 3084 
Q 2600 3084 3056 2656 
Q 3513 2228 3513 1497 
Q 3513 744 3044 326 
Q 2575 -91 1722 -91 
Q 1428 -91 1123 -41 
Q 819 9 494 109 
L 494 744 
Q 775 591 1075 516 
Q 1375 441 1709 441 
Q 2250 441 2565 725 
Q 2881 1009 2881 1497 
Q 2881 1984 2565 2268 
Q 2250 2553 1709 2553 
Q 1456 2553 1204 2497 
Q 953 2441 691 2322 
L 691 4666 
z
" transform="scale(0.015625)"/>
       </defs>
       <use xlink:href="#DejaVuSans-32"/>
       <use xlink:href="#DejaVuSans-35" x="63.623047"/>
       <use xlink:href="#DejaVuSans-30" x="127.246094"/>
      </g>
     </g>
    </g>
    <g id="xtick_3">
     <g id="line2d_3">
      <g>
       <use xlink:href="#md30bb931b6" x="251.347084" y="308.63625" style="stroke: #000000; stroke-width: 0.8"/>
      </g>
     </g>
     <g id="text_3">
      <!-- 500 -->
      <g transform="translate(232.259584 330.833125) scale(0.2 -0.2)">
       <use xlink:href="#DejaVuSans-35"/>
       <use xlink:href="#DejaVuSans-30" x="63.623047"/>
       <use xlink:href="#DejaVuSans-30" x="127.246094"/>
      </g>
     </g>
    </g>
    <g id="xtick_4">
     <g id="line2d_4">
      <g>
       <use xlink:href="#md30bb931b6" x="318.093496" y="308.63625" style="stroke: #000000; stroke-width: 0.8"/>
      </g>
     </g>
     <g id="text_4">
      <!-- 750 -->
      <g transform="translate(299.005996 330.833125) scale(0.2 -0.2)">
       <defs>
        <path id="DejaVuSans-37" d="M 525 4666 
L 3525 4666 
L 3525 4397 
L 1831 0 
L 1172 0 
L 2766 4134 
L 525 4134 
L 525 4666 
z
" transform="scale(0.015625)"/>
       </defs>
       <use xlink:href="#DejaVuSans-37"/>
       <use xlink:href="#DejaVuSans-35" x="63.623047"/>
       <use xlink:href="#DejaVuSans-30" x="127.246094"/>
      </g>
     </g>
    </g>
    <g id="xtick_5">
     <g id="line2d_5">
      <g>
       <use xlink:href="#md30bb931b6" x="384.839907" y="308.63625" style="stroke: #000000; stroke-width: 0.8"/>
      </g>
     </g>
     <g id="text_5">
      <!-- 1000 -->
      <g transform="translate(359.389907 330.833125) scale(0.2 -0.2)">
       <defs>
        <path id="DejaVuSans-31" d="M 794 531 
L 1825 531 
L 1825 4091 
L 703 3866 
L 703 4441 
L 1819 4666 
L 2450 4666 
L 2450 531 
L 3481 531 
L 3481 0 
L 794 0 
L 794 531 
z
" transform="scale(0.015625)"/>
       </defs>
       <use xlink:href="#DejaVuSans-31"/>
       <use xlink:href="#DejaVuSans-30" x="63.623047"/>
       <use xlink:href="#DejaVuSans-30" x="127.246094"/>
       <use xlink:href="#DejaVuSans-30" x="190.869141"/>
      </g>
     </g>
    </g>
    <g id="xtick_6">
     <g id="line2d_6">
      <g>
       <use xlink:href="#md30bb931b6" x="451.586319" y="308.63625" style="stroke: #000000; stroke-width: 0.8"/>
      </g>
     </g>
     <g id="text_6">
      <!-- 1250 -->
      <g transform="translate(426.136319 330.833125) scale(0.2 -0.2)">
       <use xlink:href="#DejaVuSans-31"/>
       <use xlink:href="#DejaVuSans-32" x="63.623047"/>
       <use xlink:href="#DejaVuSans-35" x="127.246094"/>
       <use xlink:href="#DejaVuSans-30" x="190.869141"/>
      </g>
     </g>
    </g>
    <g id="xtick_7">
     <g id="line2d_7">
      <g>
       <use xlink:href="#md30bb931b6" x="518.33273" y="308.63625" style="stroke: #000000; stroke-width: 0.8"/>
      </g>
     </g>
     <g id="text_7">
      <!-- 1500 -->
      <g transform="translate(492.88273 330.833125) scale(0.2 -0.2)">
       <use xlink:href="#DejaVuSans-31"/>
       <use xlink:href="#DejaVuSans-35" x="63.623047"/>
       <use xlink:href="#DejaVuSans-30" x="127.246094"/>
       <use xlink:href="#DejaVuSans-30" x="190.869141"/>
      </g>
     </g>
    </g>
    <g id="xtick_8">
     <g id="line2d_8">
      <g>
       <use xlink:href="#md30bb931b6" x="585.079142" y="308.63625" style="stroke: #000000; stroke-width: 0.8"/>
      </g>
     </g>
     <g id="text_8">
      <!-- 1750 -->
      <g transform="translate(559.629142 330.833125) scale(0.2 -0.2)">
       <use xlink:href="#DejaVuSans-31"/>
       <use xlink:href="#DejaVuSans-37" x="63.623047"/>
       <use xlink:href="#DejaVuSans-35" x="127.246094"/>
       <use xlink:href="#DejaVuSans-30" x="190.869141"/>
      </g>
     </g>
    </g>
    <g id="text_9">
     <!-- iterations -->
     <g transform="translate(324.035938 354.189375) scale(0.2 -0.2)">
      <defs>
       <path id="DejaVuSans-69" d="M 603 3500 
L 1178 3500 
L 1178 0 
L 603 0 
L 603 3500 
z
M 603 4863 
L 1178 4863 
L 1178 4134 
L 603 4134 
L 603 4863 
z
" transform="scale(0.015625)"/>
       <path id="DejaVuSans-74" d="M 1172 4494 
L 1172 3500 
L 2356 3500 
L 2356 3053 
L 1172 3053 
L 1172 1153 
Q 1172 725 1289 603 
Q 1406 481 1766 481 
L 2356 481 
L 2356 0 
L 1766 0 
Q 1100 0 847 248 
Q 594 497 594 1153 
L 594 3053 
L 172 3053 
L 172 3500 
L 594 3500 
L 594 4494 
L 1172 4494 
z
" transform="scale(0.015625)"/>
       <path id="DejaVuSans-65" d="M 3597 1894 
L 3597 1613 
L 953 1613 
Q 991 1019 1311 708 
Q 1631 397 2203 397 
Q 2534 397 2845 478 
Q 3156 559 3463 722 
L 3463 178 
Q 3153 47 2828 -22 
Q 2503 -91 2169 -91 
Q 1331 -91 842 396 
Q 353 884 353 1716 
Q 353 2575 817 3079 
Q 1281 3584 2069 3584 
Q 2775 3584 3186 3129 
Q 3597 2675 3597 1894 
z
M 3022 2063 
Q 3016 2534 2758 2815 
Q 2500 3097 2075 3097 
Q 1594 3097 1305 2825 
Q 1016 2553 972 2059 
L 3022 2063 
z
" transform="scale(0.015625)"/>
       <path id="DejaVuSans-72" d="M 2631 2963 
Q 2534 3019 2420 3045 
Q 2306 3072 2169 3072 
Q 1681 3072 1420 2755 
Q 1159 2438 1159 1844 
L 1159 0 
L 581 0 
L 581 3500 
L 1159 3500 
L 1159 2956 
Q 1341 3275 1631 3429 
Q 1922 3584 2338 3584 
Q 2397 3584 2469 3576 
Q 2541 3569 2628 3553 
L 2631 2963 
z
" transform="scale(0.015625)"/>
       <path id="DejaVuSans-61" d="M 2194 1759 
Q 1497 1759 1228 1600 
Q 959 1441 959 1056 
Q 959 750 1161 570 
Q 1363 391 1709 391 
Q 2188 391 2477 730 
Q 2766 1069 2766 1631 
L 2766 1759 
L 2194 1759 
z
M 3341 1997 
L 3341 0 
L 2766 0 
L 2766 531 
Q 2569 213 2275 61 
Q 1981 -91 1556 -91 
Q 1019 -91 701 211 
Q 384 513 384 1019 
Q 384 1609 779 1909 
Q 1175 2209 1959 2209 
L 2766 2209 
L 2766 2266 
Q 2766 2663 2505 2880 
Q 2244 3097 1772 3097 
Q 1472 3097 1187 3025 
Q 903 2953 641 2809 
L 641 3341 
Q 956 3463 1253 3523 
Q 1550 3584 1831 3584 
Q 2591 3584 2966 3190 
Q 3341 2797 3341 1997 
z
" transform="scale(0.015625)"/>
       <path id="DejaVuSans-6f" d="M 1959 3097 
Q 1497 3097 1228 2736 
Q 959 2375 959 1747 
Q 959 1119 1226 758 
Q 1494 397 1959 397 
Q 2419 397 2687 759 
Q 2956 1122 2956 1747 
Q 2956 2369 2687 2733 
Q 2419 3097 1959 3097 
z
M 1959 3584 
Q 2709 3584 3137 3096 
Q 3566 2609 3566 1747 
Q 3566 888 3137 398 
Q 2709 -91 1959 -91 
Q 1206 -91 779 398 
Q 353 888 353 1747 
Q 353 2609 779 3096 
Q 1206 3584 1959 3584 
z
" transform="scale(0.015625)"/>
       <path id="DejaVuSans-6e" d="M 3513 2113 
L 3513 0 
L 2938 0 
L 2938 2094 
Q 2938 2591 2744 2837 
Q 2550 3084 2163 3084 
Q 1697 3084 1428 2787 
Q 1159 2491 1159 1978 
L 1159 0 
L 581 0 
L 581 3500 
L 1159 3500 
L 1159 2956 
Q 1366 3272 1645 3428 
Q 1925 3584 2291 3584 
Q 2894 3584 3203 3211 
Q 3513 2838 3513 2113 
z
" transform="scale(0.015625)"/>
       <path id="DejaVuSans-73" d="M 2834 3397 
L 2834 2853 
Q 2591 2978 2328 3040 
Q 2066 3103 1784 3103 
Q 1356 3103 1142 2972 
Q 928 2841 928 2578 
Q 928 2378 1081 2264 
Q 1234 2150 1697 2047 
L 1894 2003 
Q 2506 1872 2764 1633 
Q 3022 1394 3022 966 
Q 3022 478 2636 193 
Q 2250 -91 1575 -91 
Q 1294 -91 989 -36 
Q 684 19 347 128 
L 347 722 
Q 666 556 975 473 
Q 1284 391 1588 391 
Q 1994 391 2212 530 
Q 2431 669 2431 922 
Q 2431 1156 2273 1281 
Q 2116 1406 1581 1522 
L 1381 1569 
Q 847 1681 609 1914 
Q 372 2147 372 2553 
Q 372 3047 722 3315 
Q 1072 3584 1716 3584 
Q 2034 3584 2315 3537 
Q 2597 3491 2834 3397 
z
" transform="scale(0.015625)"/>
      </defs>
      <use xlink:href="#DejaVuSans-69"/>
      <use xlink:href="#DejaVuSans-74" x="27.783203"/>
      <use xlink:href="#DejaVuSans-65" x="66.992188"/>
      <use xlink:href="#DejaVuSans-72" x="128.515625"/>
      <use xlink:href="#DejaVuSans-61" x="169.628906"/>
      <use xlink:href="#DejaVuSans-74" x="230.908203"/>
      <use xlink:href="#DejaVuSans-69" x="270.117188"/>
      <use xlink:href="#DejaVuSans-6f" x="297.900391"/>
      <use xlink:href="#DejaVuSans-6e" x="359.082031"/>
      <use xlink:href="#DejaVuSans-73" x="422.460938"/>
     </g>
    </g>
   </g>
   <g id="matplotlib.axis_2">
    <g id="ytick_1">
     <g id="line2d_9">
      <defs>
       <path id="m5d86e5c5f4" d="M 0 0 
L -3.5 0 
" style="stroke: #000000; stroke-width: 0.8"/>
      </defs>
      <g>
       <use xlink:href="#m5d86e5c5f4" x="92.490625" y="295.148568" style="stroke: #000000; stroke-width: 0.8"/>
      </g>
     </g>
     <g id="text_10">
      <!-- −400 -->
      <g transform="translate(30.55625 302.747005) scale(0.2 -0.2)">
       <defs>
        <path id="DejaVuSans-2212" d="M 678 2272 
L 4684 2272 
L 4684 1741 
L 678 1741 
L 678 2272 
z
" transform="scale(0.015625)"/>
        <path id="DejaVuSans-34" d="M 2419 4116 
L 825 1625 
L 2419 1625 
L 2419 4116 
z
M 2253 4666 
L 3047 4666 
L 3047 1625 
L 3713 1625 
L 3713 1100 
L 3047 1100 
L 3047 0 
L 2419 0 
L 2419 1100 
L 313 1100 
L 313 1709 
L 2253 4666 
z
" transform="scale(0.015625)"/>
       </defs>
       <use xlink:href="#DejaVuSans-2212"/>
       <use xlink:href="#DejaVuSans-34" x="83.789062"/>
       <use xlink:href="#DejaVuSans-30" x="147.412109"/>
       <use xlink:href="#DejaVuSans-30" x="211.035156"/>
      </g>
     </g>
    </g>
    <g id="ytick_2">
     <g id="line2d_10">
      <g>
       <use xlink:href="#m5d86e5c5f4" x="92.490625" y="237.405832" style="stroke: #000000; stroke-width: 0.8"/>
      </g>
     </g>
     <g id="text_11">
      <!-- −200 -->
      <g transform="translate(30.55625 245.00427) scale(0.2 -0.2)">
       <use xlink:href="#DejaVuSans-2212"/>
       <use xlink:href="#DejaVuSans-32" x="83.789062"/>
       <use xlink:href="#DejaVuSans-30" x="147.412109"/>
       <use xlink:href="#DejaVuSans-30" x="211.035156"/>
      </g>
     </g>
    </g>
    <g id="ytick_3">
     <g id="line2d_11">
      <g>
       <use xlink:href="#m5d86e5c5f4" x="92.490625" y="179.663097" style="stroke: #000000; stroke-width: 0.8"/>
      </g>
     </g>
     <g id="text_12">
      <!-- 0 -->
      <g transform="translate(72.765625 187.261534) scale(0.2 -0.2)">
       <use xlink:href="#DejaVuSans-30"/>
      </g>
     </g>
    </g>
    <g id="ytick_4">
     <g id="line2d_12">
      <g>
       <use xlink:href="#m5d86e5c5f4" x="92.490625" y="121.920361" style="stroke: #000000; stroke-width: 0.8"/>
      </g>
     </g>
     <g id="text_13">
      <!-- 200 -->
      <g transform="translate(47.315625 129.518799) scale(0.2 -0.2)">
       <use xlink:href="#DejaVuSans-32"/>
       <use xlink:href="#DejaVuSans-30" x="63.623047"/>
       <use xlink:href="#DejaVuSans-30" x="127.246094"/>
      </g>
     </g>
    </g>
    <g id="ytick_5">
     <g id="line2d_13">
      <g>
       <use xlink:href="#m5d86e5c5f4" x="92.490625" y="64.177625" style="stroke: #000000; stroke-width: 0.8"/>
      </g>
     </g>
     <g id="text_14">
      <!-- 400 -->
      <g transform="translate(47.315625 71.776063) scale(0.2 -0.2)">
       <use xlink:href="#DejaVuSans-34"/>
       <use xlink:href="#DejaVuSans-30" x="63.623047"/>
       <use xlink:href="#DejaVuSans-30" x="127.246094"/>
      </g>
     </g>
    </g>
    <g id="text_15">
     <!-- Loss -->
     <g transform="translate(22.396875 191.970625) rotate(-90) scale(0.2 -0.2)">
      <defs>
       <path id="DejaVuSans-4c" d="M 628 4666 
L 1259 4666 
L 1259 531 
L 3531 531 
L 3531 0 
L 628 0 
L 628 4666 
z
" transform="scale(0.015625)"/>
      </defs>
      <use xlink:href="#DejaVuSans-4c"/>
      <use xlink:href="#DejaVuSans-6f" x="53.962891"/>
      <use xlink:href="#DejaVuSans-73" x="115.144531"/>
      <use xlink:href="#DejaVuSans-73" x="167.244141"/>
     </g>
    </g>
   </g>
   <g id="line2d_14">
    <path d="M 117.854261 139.751496 
L 118.121247 144.722794 
L 118.388233 162.598831 
L 118.922204 44.03625 
L 119.18919 89.448318 
L 119.456175 77.551362 
L 119.990147 106.365093 
L 120.257132 109.725828 
L 120.524118 120.640356 
L 120.791103 119.204262 
L 121.058089 119.595028 
L 121.325075 123.111252 
L 121.59206 128.275629 
L 121.859046 126.631141 
L 122.126032 125.789985 
L 122.926989 111.128382 
L 123.193974 114.143471 
L 123.727946 125.682262 
L 123.994931 126.858032 
L 124.261917 129.516622 
L 124.795888 144.970436 
L 125.062874 142.237891 
L 125.863831 152.985986 
L 126.130816 146.939282 
L 126.397802 145.550269 
L 126.664788 146.154845 
L 126.931773 143.578088 
L 127.198759 142.120697 
L 127.465745 138.82778 
L 127.73273 137.32097 
L 127.999716 140.170434 
L 128.266702 149.749148 
L 128.533687 145.161919 
L 128.800673 144.809135 
L 129.067658 141.918695 
L 129.334644 142.056481 
L 129.60163 142.689369 
L 130.135601 144.888742 
L 130.402587 147.579569 
L 130.669572 144.557811 
L 131.203544 147.266567 
L 131.470529 141.963787 
L 131.737515 146.561523 
L 132.004501 145.704415 
L 132.271486 146.942807 
L 132.538472 146.571102 
L 133.072443 151.018944 
L 133.339429 149.433482 
L 133.606414 151.088431 
L 133.8734 151.882622 
L 134.140386 152.057159 
L 134.407371 155.39376 
L 134.674357 154.443253 
L 134.941343 155.064561 
L 135.208328 157.186868 
L 135.7423 157.874685 
L 136.009285 161.618246 
L 136.276271 159.61991 
L 136.543257 160.24721 
L 136.810242 159.359568 
L 137.077228 159.626263 
L 137.344214 162.870984 
L 137.611199 162.820485 
L 137.878185 164.349312 
L 138.14517 160.682349 
L 138.412156 164.299326 
L 138.679142 159.838717 
L 138.946127 160.412177 
L 139.213113 159.96084 
L 139.480099 162.549048 
L 139.747084 159.617214 
L 140.01407 162.521514 
L 140.548041 164.689134 
L 140.815027 166.947126 
L 141.082013 167.327422 
L 141.348998 166.729629 
L 141.615984 167.759036 
L 141.882969 165.917583 
L 142.149955 169.659523 
L 142.416941 169.737889 
L 142.683926 170.755676 
L 142.950912 167.899051 
L 143.217898 169.586443 
L 143.751869 170.564861 
L 144.018855 169.882117 
L 144.28584 172.760942 
L 144.552826 170.967299 
L 144.819812 170.438895 
L 145.086797 170.860476 
L 145.353783 172.297656 
L 145.620769 171.898915 
L 145.887754 172.457074 
L 146.15474 171.412696 
L 146.421725 172.181458 
L 146.955697 169.350699 
L 147.222682 171.819749 
L 147.489668 170.702797 
L 147.756654 170.386568 
L 148.023639 171.764484 
L 148.290625 170.363681 
L 148.824596 171.742956 
L 149.091582 173.321088 
L 149.358568 173.543595 
L 149.625553 173.401278 
L 149.892539 172.410984 
L 150.159525 172.754716 
L 150.42651 172.896141 
L 150.693496 172.496494 
L 150.960481 172.807733 
L 151.227467 172.372041 
L 151.494453 171.548362 
L 151.761438 172.908841 
L 152.29541 173.751662 
L 152.562395 173.680925 
L 152.829381 174.136271 
L 153.096367 173.041145 
L 153.363352 174.437231 
L 153.630338 172.369407 
L 153.897324 174.972957 
L 154.164309 174.250099 
L 154.431295 175.539665 
L 154.698281 174.034876 
L 154.965266 173.63476 
L 155.232252 174.998044 
L 155.766223 173.713275 
L 156.033209 173.768643 
L 156.300194 174.192507 
L 156.56718 175.217428 
L 156.834166 174.549207 
L 157.101151 175.102351 
L 157.368137 173.000769 
L 157.635123 173.396092 
L 158.169094 172.24628 
L 158.43608 173.830064 
L 158.703065 172.971341 
L 158.970051 175.344392 
L 159.237036 176.316089 
L 159.771008 174.720648 
L 160.037993 175.750386 
L 160.304979 175.270053 
L 160.571965 175.659534 
L 160.83895 175.802949 
L 161.105936 176.777934 
L 161.372922 176.066467 
L 161.639907 174.60952 
L 162.173879 177.18643 
L 162.440864 177.146097 
L 162.974836 176.671732 
L 163.508807 178.826261 
L 163.775792 178.840463 
L 164.042778 178.124467 
L 164.309764 178.644971 
L 164.576749 177.639782 
L 164.843735 178.637141 
L 165.110721 178.333677 
L 165.377706 178.623996 
L 165.644692 178.507095 
L 165.911678 178.055754 
L 166.178663 178.154192 
L 166.445649 177.461703 
L 166.97962 178.66269 
L 167.246606 178.675581 
L 167.513592 178.230668 
L 167.780577 178.09883 
L 168.047563 178.652588 
L 168.314548 177.930105 
L 169.115505 179.523749 
L 169.382491 178.940492 
L 169.649477 180.274731 
L 169.916462 179.956917 
L 170.183448 179.352725 
L 170.450434 180.378575 
L 170.717419 179.36548 
L 170.984405 179.641085 
L 171.251391 178.456831 
L 172.052347 179.82643 
L 172.319333 180.00236 
L 172.586319 180.935344 
L 172.853304 180.224525 
L 173.12029 180.851568 
L 173.387276 179.961341 
L 173.654261 180.187773 
L 173.921247 180.141461 
L 174.188233 181.494606 
L 174.455218 179.749474 
L 174.722204 181.661703 
L 174.98919 180.841325 
L 175.256175 181.108068 
L 175.523161 180.436024 
L 176.057132 182.051575 
L 176.324118 181.42228 
L 176.591103 181.417484 
L 176.858089 181.192607 
L 177.125075 181.70878 
L 177.659046 183.370872 
L 177.926032 182.602122 
L 178.193017 181.152498 
L 178.460003 182.618152 
L 178.726989 182.96134 
L 178.993974 182.33576 
L 179.26096 182.827178 
L 179.527946 182.95431 
L 179.794931 182.864038 
L 180.061917 182.510754 
L 180.328903 183.230302 
L 180.595888 182.899408 
L 180.862874 183.054188 
L 181.396845 183.659796 
L 181.930816 182.987873 
L 182.197802 183.77546 
L 182.464788 182.660957 
L 182.731773 183.157786 
L 182.998759 182.728784 
L 183.265745 183.01416 
L 183.53273 183.988878 
L 183.799716 184.529058 
L 184.066702 184.064193 
L 184.333687 184.222385 
L 184.600673 183.845806 
L 185.134644 183.780493 
L 185.668615 183.786981 
L 186.202587 183.979283 
L 186.469572 184.288766 
L 186.736558 184.176505 
L 187.270529 184.239144 
L 187.537515 184.552823 
L 188.071486 184.184467 
L 188.338472 184.679586 
L 188.605458 184.656079 
L 188.872443 184.883799 
L 189.139429 184.518958 
L 189.406414 184.613429 
L 189.940386 184.125656 
L 190.207371 184.52696 
L 190.474357 184.677067 
L 190.741343 184.492818 
L 191.008328 184.456798 
L 191.275314 185.084062 
L 191.5423 184.766681 
L 191.809285 184.134889 
L 192.076271 184.583512 
L 192.343257 184.059195 
L 192.877228 184.953905 
L 193.144214 184.443376 
L 193.411199 183.458362 
L 193.94517 184.344202 
L 194.212156 183.849578 
L 194.746127 184.82729 
L 195.013113 184.469422 
L 195.280099 185.046916 
L 195.547084 184.443785 
L 195.81407 184.476484 
L 196.081056 184.368245 
L 196.348041 183.937993 
L 196.882013 184.013952 
L 197.148998 184.777115 
L 197.415984 184.99747 
L 197.682969 183.772517 
L 197.949955 184.035706 
L 198.216941 184.102105 
L 198.483926 184.288311 
L 198.750912 184.173766 
L 199.017898 184.293227 
L 199.284883 184.00341 
L 199.551869 184.199036 
L 200.08584 184.092655 
L 200.352826 184.455043 
L 200.886797 184.287347 
L 201.153783 184.290951 
L 201.420769 183.727209 
L 201.95474 184.605861 
L 202.488711 184.274913 
L 202.755697 184.874952 
L 203.022682 184.9632 
L 203.289668 185.316616 
L 203.556654 185.323023 
L 203.823639 184.748002 
L 204.090625 184.519384 
L 204.357611 184.862935 
L 204.624596 184.523637 
L 205.158568 184.617477 
L 205.425553 184.415773 
L 205.692539 184.568713 
L 206.22651 183.720718 
L 206.493496 183.962436 
L 206.760481 183.809039 
L 207.027467 184.237151 
L 207.294453 184.03921 
L 207.561438 184.086871 
L 207.828424 184.247767 
L 208.896367 184.360026 
L 209.163352 184.510466 
L 209.430338 184.111391 
L 209.964309 184.1085 
L 210.231295 183.809955 
L 210.498281 184.328808 
L 210.765266 183.780577 
L 211.032252 184.626633 
L 211.299237 183.751032 
L 211.566223 183.766926 
L 211.833209 184.064515 
L 212.36718 184.284459 
L 212.634166 184.067987 
L 212.901151 184.061054 
L 213.168137 183.094892 
L 213.702108 183.743901 
L 213.969094 184.677753 
L 214.503065 183.939998 
L 214.770051 184.251046 
L 215.037036 184.200395 
L 215.304022 183.966637 
L 216.104979 184.067416 
L 216.371965 183.732881 
L 216.63895 184.6301 
L 216.905936 184.169221 
L 217.172922 183.967957 
L 217.439907 184.074859 
L 217.706893 183.424278 
L 217.973879 184.070452 
L 219.575792 183.61208 
L 219.842778 183.740517 
L 220.109764 184.238776 
L 220.376749 183.488428 
L 220.910721 183.851165 
L 221.444692 183.710228 
L 221.711678 183.838051 
L 222.512635 183.82598 
L 223.046606 183.289922 
L 223.313592 183.561546 
L 223.580577 183.463037 
L 223.847563 183.594836 
L 224.114548 183.446234 
L 224.381534 183.573195 
L 224.64852 183.125697 
L 224.915505 183.257786 
L 225.182491 183.147491 
L 225.449477 182.907027 
L 225.716462 183.072826 
L 225.983448 183.771144 
L 226.517419 182.883006 
L 226.784405 183.23388 
L 227.051391 183.288898 
L 227.318376 183.483698 
L 227.585362 183.068249 
L 228.119333 183.287115 
L 228.386319 183.159291 
L 228.653304 183.559667 
L 228.92029 183.361178 
L 229.187276 183.401738 
L 229.454261 183.750652 
L 229.721247 183.301438 
L 229.988233 183.920194 
L 230.522204 183.373584 
L 230.78919 183.171462 
L 231.056175 183.961579 
L 231.323161 184.187983 
L 231.590147 184.128509 
L 231.857132 183.744035 
L 232.124118 184.037423 
L 232.391103 183.771991 
L 232.658089 184.014808 
L 233.19206 183.771839 
L 233.726032 183.874599 
L 233.993017 184.11918 
L 234.260003 184.044082 
L 234.526989 183.77541 
L 234.793974 183.297732 
L 235.06096 183.237449 
L 235.327946 183.889617 
L 235.861917 183.403603 
L 236.128903 183.638456 
L 236.395888 183.237933 
L 236.662874 183.478615 
L 237.196845 183.355926 
L 237.463831 183.629338 
L 237.730816 183.641067 
L 237.997802 183.380171 
L 238.264788 183.35723 
L 238.531773 183.559473 
L 238.798759 183.546734 
L 239.33273 184.281031 
L 239.866702 184.485685 
L 240.133687 183.961286 
L 240.400673 184.134919 
L 240.667658 183.670988 
L 240.934644 183.955958 
L 241.20163 183.86234 
L 241.468615 183.350208 
L 241.735601 184.152244 
L 242.002587 183.509946 
L 242.269572 183.848731 
L 243.604501 184.314536 
L 243.871486 183.967137 
L 244.405458 184.477344 
L 244.672443 184.298746 
L 244.939429 183.977648 
L 245.206414 184.087434 
L 245.4734 184.402455 
L 246.007371 184.508636 
L 246.274357 183.924588 
L 246.808328 184.370312 
L 247.075314 184.261772 
L 247.3423 184.387189 
L 247.609285 184.22331 
L 247.876271 184.502419 
L 248.143257 184.57622 
L 248.410242 184.528911 
L 248.677228 184.61146 
L 249.478185 184.47329 
L 250.012156 184.449592 
L 250.546127 184.542384 
L 250.813113 184.103415 
L 251.080099 183.93274 
L 251.347084 184.643783 
L 251.61407 184.946179 
L 251.881056 184.625262 
L 252.148041 184.744458 
L 252.415027 184.123365 
L 252.682013 184.379415 
L 252.948998 184.333722 
L 253.215984 183.967268 
L 254.283926 183.902133 
L 254.550912 183.658483 
L 254.817898 184.056607 
L 255.351869 184.025916 
L 255.618855 183.864077 
L 255.88584 184.022285 
L 256.152826 184.414301 
L 256.419812 184.354348 
L 256.686797 184.134181 
L 257.220769 184.180303 
L 257.75474 183.895296 
L 258.021725 184.035501 
L 258.288711 183.811048 
L 258.555697 184.344264 
L 258.822682 183.948619 
L 259.089668 183.94321 
L 259.356654 183.649513 
L 259.623639 183.551772 
L 260.424596 184.018637 
L 260.691582 183.87005 
L 260.958568 183.563759 
L 261.225553 183.636485 
L 261.492539 183.828049 
L 261.759525 184.158674 
L 262.02651 183.668407 
L 262.293496 183.609338 
L 262.560481 183.336489 
L 262.827467 183.443337 
L 263.361438 183.992413 
L 263.628424 183.9525 
L 263.89541 183.591024 
L 264.162395 183.866701 
L 264.429381 183.821246 
L 264.696367 183.532774 
L 264.963352 183.614149 
L 265.497324 183.406414 
L 265.764309 183.598981 
L 266.031295 183.11501 
L 266.832252 183.699908 
L 267.633209 183.256929 
L 267.900194 183.53883 
L 268.16718 183.211051 
L 268.434166 183.496829 
L 268.701151 183.146545 
L 268.968137 183.510771 
L 269.235123 183.53694 
L 269.769094 182.937259 
L 270.303065 183.56218 
L 270.570051 183.294892 
L 271.104022 183.236702 
L 271.371008 183.185423 
L 271.904979 183.572691 
L 272.43895 183.287384 
L 272.972922 183.374488 
L 273.239907 182.964802 
L 273.506893 183.324472 
L 274.30785 183.179447 
L 274.841821 182.909484 
L 275.108807 183.053275 
L 275.909764 182.703301 
L 276.176749 182.928952 
L 276.443735 182.642331 
L 276.710721 183.217741 
L 276.977706 182.641699 
L 277.244692 182.342965 
L 278.312635 182.654454 
L 278.846606 182.04344 
L 279.380577 182.575247 
L 279.914548 182.170588 
L 280.181534 182.086222 
L 280.44852 182.501844 
L 281.249477 182.10379 
L 281.783448 181.997351 
L 282.050434 181.859451 
L 282.317419 182.134081 
L 282.584405 181.989034 
L 283.385362 182.131205 
L 283.652347 181.99641 
L 283.919333 182.274329 
L 284.186319 182.348797 
L 284.453304 182.062362 
L 284.72029 182.172839 
L 284.987276 181.898594 
L 285.254261 182.152763 
L 285.521247 182.165862 
L 285.788233 182.051092 
L 286.055218 182.185709 
L 286.322204 182.104618 
L 286.58919 182.26453 
L 286.856175 182.081845 
L 287.390147 182.247898 
L 287.657132 181.880172 
L 287.924118 182.457096 
L 288.725075 182.123083 
L 288.99206 182.252178 
L 289.259046 181.974846 
L 289.526032 181.92908 
L 290.060003 182.289681 
L 290.326989 182.285905 
L 290.86096 181.982313 
L 291.127946 182.177789 
L 291.394931 181.717284 
L 291.661917 182.115084 
L 291.928903 181.991587 
L 292.729859 182.021724 
L 293.263831 181.672198 
L 293.530816 182.019801 
L 293.797802 181.900228 
L 294.064788 181.976095 
L 294.331773 181.715399 
L 294.865745 181.798032 
L 295.13273 181.819888 
L 295.399716 182.410156 
L 295.666702 182.356757 
L 295.933687 181.928667 
L 296.467658 182.085625 
L 296.734644 181.855502 
L 297.535601 182.06467 
L 297.802587 182.173658 
L 298.069572 181.477344 
L 298.336558 181.563387 
L 298.870529 181.991482 
L 299.137515 181.61934 
L 299.404501 181.66816 
L 299.671486 181.947722 
L 299.938472 181.55457 
L 300.472443 181.537416 
L 300.739429 181.455061 
L 301.006414 181.694866 
L 301.540386 181.499582 
L 301.807371 181.899471 
L 302.341343 181.673316 
L 303.1423 181.880001 
L 303.409285 181.918744 
L 303.676271 181.617495 
L 303.943257 181.882768 
L 305.278185 181.82529 
L 305.54517 182.057315 
L 305.812156 181.858086 
L 306.079142 182.088927 
L 306.613113 181.821125 
L 307.147084 182.074436 
L 307.41407 181.714748 
L 307.681056 181.911808 
L 308.215027 181.892884 
L 308.748998 181.914714 
L 309.015984 182.182074 
L 309.549955 182.094069 
L 309.816941 181.837987 
L 310.083926 182.179586 
L 310.350912 182.106454 
L 310.617898 181.874803 
L 310.884883 182.114865 
L 311.151869 182.202642 
L 311.68584 181.849286 
L 312.219812 181.730861 
L 312.486797 181.946451 
L 312.753783 181.832808 
L 313.020769 181.873687 
L 313.287754 181.671185 
L 313.55474 182.115224 
L 314.088711 181.819581 
L 314.355697 181.896013 
L 315.156654 181.633087 
L 315.423639 181.837148 
L 315.957611 181.605606 
L 316.758568 181.807993 
L 317.025553 181.75169 
L 317.292539 182.010497 
L 317.559525 181.767403 
L 317.82651 181.929536 
L 318.093496 181.713882 
L 318.360481 181.910084 
L 318.627467 181.715839 
L 318.894453 181.752078 
L 319.161438 181.65318 
L 319.428424 182.018652 
L 319.69541 181.700738 
L 320.229381 182.011431 
L 320.496367 181.88846 
L 320.763352 182.119584 
L 321.030338 181.820852 
L 321.297324 181.794943 
L 321.564309 181.933428 
L 321.831295 181.904922 
L 322.098281 182.315877 
L 322.365266 182.176393 
L 322.632252 181.857772 
L 322.899237 181.741719 
L 323.166223 181.970247 
L 323.96718 181.764419 
L 324.234166 181.566946 
L 324.501151 181.948751 
L 325.035123 181.941357 
L 325.302108 181.635605 
L 325.569094 181.647958 
L 326.103065 181.984615 
L 326.370051 181.775092 
L 326.637036 181.958755 
L 326.904022 181.860021 
L 327.437993 181.968245 
L 327.971965 181.940155 
L 328.23895 182.079896 
L 328.505936 181.972468 
L 328.772922 181.635019 
L 329.039907 181.556081 
L 329.306893 182.018883 
L 329.840864 181.70419 
L 330.374836 181.908331 
L 330.641821 181.801337 
L 330.908807 182.096227 
L 331.175792 182.214674 
L 331.709764 182.045872 
L 331.976749 181.844999 
L 332.243735 182.168191 
L 332.777706 182.260202 
L 333.044692 182.578369 
L 333.311678 182.133033 
L 333.578663 182.356243 
L 333.845649 182.325819 
L 334.112635 182.539144 
L 334.913592 182.338434 
L 335.447563 182.612346 
L 335.714548 182.326725 
L 335.981534 182.233393 
L 336.24852 182.260451 
L 336.515505 181.823559 
L 337.049477 182.496897 
L 338.384405 182.028594 
L 338.651391 182.035199 
L 339.452347 182.719011 
L 339.719333 181.980023 
L 339.986319 182.126992 
L 340.253304 182.079339 
L 340.52029 182.281469 
L 340.787276 182.152763 
L 341.321247 182.425524 
L 341.588233 182.648119 
L 341.855218 182.343108 
L 342.122204 182.472849 
L 342.38919 182.278617 
L 342.656175 182.420449 
L 342.923161 182.187931 
L 343.457132 182.345065 
L 343.724118 182.225108 
L 343.991103 182.342791 
L 344.258089 182.20205 
L 344.525075 182.310865 
L 344.79206 182.262567 
L 345.059046 182.422297 
L 345.326032 182.238311 
L 345.593017 182.227703 
L 345.860003 182.734405 
L 346.126989 182.64305 
L 346.66096 182.269725 
L 346.927946 182.604648 
L 347.728903 182.665619 
L 347.995888 182.409528 
L 348.262874 182.314671 
L 348.529859 182.61643 
L 349.063831 182.756263 
L 349.597802 181.713727 
L 350.131773 182.09574 
L 350.398759 181.860879 
L 350.665745 182.235108 
L 350.93273 182.417097 
L 351.199716 182.094524 
L 351.466702 182.088403 
L 351.733687 180.75613 
L 352.000673 181.36807 
L 352.267658 181.044722 
L 352.534644 181.499861 
L 352.80163 181.216758 
L 353.335601 181.557919 
L 353.602587 182.067005 
L 353.869572 181.154298 
L 354.136558 181.581426 
L 354.403544 181.72072 
L 354.670529 181.993008 
L 354.937515 181.445361 
L 355.204501 181.992719 
L 355.471486 181.221768 
L 355.738472 182.055756 
L 356.272443 181.703545 
L 356.539429 182.17739 
L 357.340386 181.286916 
L 357.607371 181.642467 
L 358.141343 181.366215 
L 358.675314 182.14388 
L 358.9423 180.702184 
L 359.209285 181.131757 
L 359.476271 181.293721 
L 359.743257 180.934853 
L 360.010242 181.029025 
L 360.277228 181.84112 
L 360.544214 181.075245 
L 360.811199 181.645691 
L 361.612156 181.209068 
L 361.879142 181.697049 
L 362.146127 181.304358 
L 362.413113 181.800731 
L 362.680099 181.822994 
L 362.947084 181.207423 
L 363.21407 181.309172 
L 363.481056 181.225346 
L 363.748041 181.636205 
L 364.015027 181.361757 
L 364.282013 181.749318 
L 364.548998 181.579193 
L 365.349955 181.553703 
L 365.616941 181.266989 
L 365.883926 181.62811 
L 366.150912 181.508618 
L 366.417898 181.681638 
L 366.951869 181.757448 
L 367.218855 181.843494 
L 367.48584 181.274246 
L 367.752826 181.889342 
L 368.019812 181.378323 
L 368.286797 181.883192 
L 368.820769 181.864901 
L 369.087754 181.842312 
L 369.621725 181.452042 
L 369.888711 181.670057 
L 370.155697 181.718032 
L 370.689668 181.548898 
L 370.956654 180.753878 
L 371.223639 181.241443 
L 371.490625 181.482671 
L 372.024596 181.486929 
L 372.291582 181.536142 
L 372.558568 181.760343 
L 372.825553 181.297336 
L 373.092539 181.610279 
L 373.359525 181.469966 
L 374.961438 181.843426 
L 375.228424 181.458134 
L 375.49541 181.873508 
L 375.762395 182.026648 
L 376.296367 181.671739 
L 376.563352 181.914428 
L 376.830338 181.650586 
L 377.097324 182.178105 
L 377.631295 181.441076 
L 377.898281 181.833657 
L 378.165266 181.172624 
L 378.432252 181.295659 
L 378.699237 181.926367 
L 379.233209 181.327458 
L 379.500194 181.305159 
L 379.76718 181.417141 
L 380.301151 181.903998 
L 380.568137 181.697418 
L 380.835123 181.785847 
L 381.102108 181.507624 
L 381.369094 181.664356 
L 381.63608 182.113188 
L 381.903065 181.599762 
L 382.170051 181.815893 
L 382.437036 181.438996 
L 382.704022 181.888527 
L 382.971008 181.849666 
L 383.771965 181.297826 
L 384.03895 181.897426 
L 384.305936 181.899791 
L 384.572922 181.477058 
L 384.839907 181.658385 
L 385.640864 181.86535 
L 386.174836 181.32762 
L 386.441821 181.460468 
L 386.708807 181.807242 
L 387.509764 182.052626 
L 387.776749 182.018695 
L 388.043735 181.868872 
L 388.310721 182.063088 
L 388.577706 181.921009 
L 388.844692 181.391191 
L 389.111678 181.494604 
L 389.378663 181.401483 
L 389.645649 181.834328 
L 390.17962 181.707132 
L 390.713592 181.743471 
L 390.980577 181.415848 
L 391.247563 181.810782 
L 391.514548 181.884912 
L 392.04852 181.248831 
L 392.582491 181.488627 
L 392.849477 181.52042 
L 393.116462 181.254669 
L 393.383448 181.528004 
L 393.650434 181.443039 
L 393.917419 181.840267 
L 394.184405 181.845332 
L 394.451391 181.490288 
L 394.718376 181.654259 
L 394.985362 181.411453 
L 395.252347 181.533898 
L 395.519333 181.976768 
L 395.786319 181.514771 
L 396.053304 181.592697 
L 396.32029 181.438598 
L 396.854261 181.753403 
L 397.121247 181.912763 
L 397.655218 181.736755 
L 397.922204 181.807545 
L 398.18919 181.690725 
L 398.456175 181.911436 
L 398.723161 181.806047 
L 398.990147 181.938551 
L 399.257132 181.494397 
L 399.524118 181.592661 
L 399.791103 181.022009 
L 400.325075 181.577588 
L 400.59206 181.430094 
L 400.859046 181.692156 
L 401.126032 181.229433 
L 401.393017 181.530109 
L 401.660003 181.510832 
L 401.926989 181.647804 
L 402.193974 181.451512 
L 402.46096 180.858173 
L 402.727946 181.29498 
L 402.994931 181.225573 
L 403.261917 181.498542 
L 403.528903 181.578933 
L 403.795888 181.189674 
L 404.062874 181.42433 
L 404.329859 181.838708 
L 404.596845 181.634412 
L 404.863831 181.901887 
L 405.664788 181.437522 
L 405.931773 181.875266 
L 406.73273 181.273501 
L 406.999716 181.464215 
L 407.266702 181.869559 
L 407.533687 181.514982 
L 408.067658 181.477865 
L 408.60163 181.090554 
L 408.868615 181.125148 
L 409.135601 181.333768 
L 409.669572 181.180575 
L 409.936558 181.437622 
L 410.203544 181.415829 
L 410.470529 181.034219 
L 410.737515 181.513499 
L 411.004501 181.271683 
L 411.271486 181.677524 
L 411.805458 181.310056 
L 412.339429 181.110963 
L 412.606414 181.032935 
L 412.8734 181.407717 
L 413.140386 181.252521 
L 413.674357 181.229856 
L 413.941343 181.002191 
L 414.208328 181.370231 
L 414.475314 181.176056 
L 414.7423 181.122167 
L 415.543257 181.285982 
L 415.810242 181.32131 
L 416.077228 181.529299 
L 416.344214 181.160873 
L 416.611199 181.306721 
L 416.878185 180.989817 
L 417.14517 181.390401 
L 417.412156 180.95902 
L 417.679142 180.897879 
L 418.480099 181.315517 
L 419.01407 181.166751 
L 419.548041 181.542666 
L 419.815027 181.495931 
L 420.082013 181.634351 
L 420.348998 181.352787 
L 420.882969 181.146566 
L 421.149955 181.565958 
L 421.416941 181.406342 
L 421.683926 181.402117 
L 421.950912 181.216916 
L 422.217898 180.879316 
L 422.484883 181.289625 
L 422.751869 181.456855 
L 423.018855 181.440792 
L 423.28584 181.63946 
L 423.552826 181.209183 
L 423.819812 181.133027 
L 424.353783 181.432904 
L 424.620769 181.23675 
L 424.887754 181.291353 
L 425.955697 181.133215 
L 426.222682 181.197257 
L 426.489668 181.460739 
L 426.756654 181.349707 
L 427.023639 180.776414 
L 427.290625 181.074406 
L 427.557611 181.172411 
L 428.091582 181.089392 
L 428.358568 181.399396 
L 428.625553 181.17251 
L 429.159525 181.313571 
L 429.42651 181.246441 
L 429.693496 181.419497 
L 429.960481 181.332542 
L 430.227467 181.596243 
L 430.494453 181.579064 
L 430.761438 181.222241 
L 431.29541 181.406437 
L 431.562395 181.898546 
L 431.829381 181.861239 
L 432.096367 181.960052 
L 432.630338 181.41851 
L 432.897324 181.605858 
L 433.164309 181.627459 
L 433.698281 180.900183 
L 433.965266 181.557718 
L 434.232252 181.674811 
L 435.033209 181.296289 
L 435.300194 181.366604 
L 435.834166 180.99909 
L 436.101151 181.4416 
L 436.368137 181.395215 
L 436.635123 181.486239 
L 437.43608 180.985482 
L 437.970051 181.756134 
L 438.237036 181.425716 
L 438.771008 181.771701 
L 439.037993 181.497585 
L 439.304979 181.737434 
L 439.571965 181.715865 
L 439.83895 181.075738 
L 440.105936 181.615182 
L 440.372922 181.687665 
L 440.639907 181.195419 
L 440.906893 180.966697 
L 441.173879 181.318864 
L 441.440864 181.004544 
L 441.70785 181.139349 
L 442.241821 181.549465 
L 442.508807 181.008634 
L 443.309764 181.74093 
L 443.576749 181.57486 
L 443.843735 181.196054 
L 444.377706 181.386718 
L 444.644692 181.194902 
L 445.178663 181.45957 
L 445.712635 181.235023 
L 445.97962 181.254574 
L 446.246606 181.605993 
L 446.513592 181.195828 
L 446.780577 181.692224 
L 447.314548 181.309798 
L 447.84852 181.421142 
L 448.115505 181.698777 
L 448.382491 181.042027 
L 449.183448 181.445471 
L 449.450434 181.31081 
L 449.717419 181.327594 
L 449.984405 181.11666 
L 450.251391 181.162544 
L 450.518376 181.388371 
L 450.785362 180.929671 
L 451.319333 180.956782 
L 451.586319 181.107553 
L 451.853304 180.957793 
L 452.12029 180.969267 
L 452.387276 181.129155 
L 452.654261 181.00983 
L 452.921247 181.196754 
L 453.188233 181.021908 
L 453.455218 181.102313 
L 453.722204 180.948431 
L 453.98919 181.297166 
L 454.256175 181.165441 
L 454.790147 181.379923 
L 455.057132 181.24827 
L 455.324118 181.245206 
L 455.591103 181.014085 
L 455.858089 181.268584 
L 456.39206 181.067971 
L 456.659046 181.133632 
L 457.193017 180.966421 
L 457.460003 181.198961 
L 457.726989 181.276763 
L 457.993974 180.771982 
L 459.061917 181.271907 
L 459.595888 181.630018 
L 459.862874 181.248319 
L 460.129859 181.327156 
L 460.396845 181.039197 
L 461.197802 180.947379 
L 461.464788 181.121538 
L 461.731773 180.708901 
L 462.265745 180.584239 
L 462.53273 180.833558 
L 462.799716 181.293264 
L 463.066702 181.405414 
L 463.333687 180.896941 
L 463.600673 181.035514 
L 464.40163 180.936077 
L 464.935601 181.148888 
L 465.202587 180.999466 
L 465.736558 181.283075 
L 466.270529 181.158665 
L 466.537515 180.980033 
L 466.804501 181.131137 
L 467.071486 181.11259 
L 467.338472 181.258273 
L 467.872443 181.027846 
L 468.139429 181.153425 
L 468.6734 180.970333 
L 469.207371 180.963251 
L 469.741343 181.057717 
L 470.275314 180.92849 
L 470.809285 181.128635 
L 471.343257 180.888857 
L 471.877228 181.018296 
L 472.144214 180.95006 
L 472.411199 181.00235 
L 472.678185 180.809315 
L 473.479142 181.626655 
L 473.746127 181.329525 
L 474.013113 181.442471 
L 474.280099 181.13052 
L 474.547084 181.399724 
L 474.81407 181.126611 
L 475.081056 181.144814 
L 475.615027 180.633508 
L 475.882013 180.790328 
L 476.148998 180.786827 
L 476.415984 180.958344 
L 476.682969 180.626251 
L 476.949955 180.840996 
L 477.750912 180.887006 
L 478.017898 181.184334 
L 478.284883 181.170837 
L 478.551869 181.397779 
L 479.352826 181.4434 
L 479.619812 180.909454 
L 479.886797 180.912085 
L 480.420769 181.288611 
L 481.221725 180.91234 
L 481.488711 181.251044 
L 481.755697 181.219561 
L 482.022682 180.908751 
L 483.090625 181.323486 
L 483.357611 181.04596 
L 483.624596 181.106774 
L 483.891582 180.716366 
L 484.425553 181.689367 
L 484.692539 181.369765 
L 484.959525 181.469591 
L 485.22651 181.425079 
L 485.493496 181.591382 
L 485.760481 181.520574 
L 486.027467 180.96498 
L 486.561438 181.444721 
L 486.828424 181.414505 
L 487.09541 180.965178 
L 487.362395 181.091142 
L 487.629381 180.600008 
L 487.896367 178.195744 
L 488.163352 180.335918 
L 488.430338 181.304346 
L 488.697324 180.632877 
L 488.964309 180.689646 
L 489.498281 181.17833 
L 490.032252 180.614472 
L 490.299237 180.603363 
L 490.833209 181.402396 
L 491.36718 181.079732 
L 491.901151 180.761105 
L 492.168137 181.091421 
L 492.435123 181.197466 
L 492.702108 180.940109 
L 493.23608 181.445612 
L 493.503065 181.064918 
L 493.770051 181.520251 
L 494.037036 181.185867 
L 494.304022 181.034077 
L 494.837993 181.469962 
L 495.371965 181.220537 
L 496.172922 181.170599 
L 496.439907 181.419236 
L 496.706893 181.100528 
L 497.240864 181.259376 
L 497.50785 180.914987 
L 497.774836 181.27989 
L 498.041821 180.601183 
L 498.308807 180.813282 
L 498.575792 180.734188 
L 498.842778 180.885173 
L 499.109764 180.684073 
L 499.643735 181.44531 
L 500.177706 181.42527 
L 500.444692 181.13163 
L 500.711678 181.163901 
L 500.978663 181.329058 
L 501.245649 181.086477 
L 501.512635 181.348427 
L 502.046606 181.314705 
L 502.313592 180.992435 
L 502.580577 181.072758 
L 502.847563 181.020047 
L 503.114548 181.579128 
L 503.381534 181.223946 
L 503.915505 181.02497 
L 504.716462 181.276464 
L 504.983448 181.100499 
L 505.250434 181.225573 
L 505.517419 180.992601 
L 505.784405 181.258336 
L 506.051391 181.150322 
L 506.852347 181.296014 
L 507.119333 180.854017 
L 507.386319 181.515229 
L 507.653304 180.702824 
L 508.187276 181.390042 
L 508.454261 180.9192 
L 508.988233 181.136893 
L 509.255218 181.155831 
L 509.522204 180.91396 
L 509.78919 181.228419 
L 510.056175 180.874791 
L 510.323161 181.344017 
L 510.590147 181.086922 
L 510.857132 181.359759 
L 511.124118 181.002714 
L 511.658089 180.746402 
L 512.459046 181.19567 
L 512.993017 181.028098 
L 513.260003 181.260594 
L 513.526989 181.124131 
L 514.327946 181.452992 
L 514.594931 180.969291 
L 514.861917 180.891601 
L 515.128903 180.553723 
L 515.395888 180.830379 
L 516.997802 180.921729 
L 517.531773 181.306288 
L 517.798759 181.140257 
L 518.33273 181.049901 
L 518.599716 180.874135 
L 518.866702 181.220252 
L 519.133687 181.147729 
L 519.400673 181.232543 
L 519.667658 181.127042 
L 520.20163 181.235119 
L 520.468615 180.923689 
L 520.735601 181.301152 
L 521.002587 180.851945 
L 522.070529 181.230405 
L 522.337515 180.951801 
L 522.604501 181.17697 
L 522.871486 180.914806 
L 523.138472 181.085157 
L 523.405458 180.804534 
L 523.672443 181.122564 
L 524.206414 180.935161 
L 524.4734 181.134084 
L 524.740386 180.869549 
L 525.274357 180.841789 
L 525.541343 181.07211 
L 525.808328 180.817081 
L 526.075314 180.995654 
L 526.3423 180.972251 
L 526.609285 180.680751 
L 526.876271 181.034491 
L 527.143257 181.045023 
L 527.410242 181.176391 
L 527.677228 181.05166 
L 527.944214 181.10928 
L 528.211199 181.362863 
L 528.74517 181.145791 
L 529.279142 181.455469 
L 529.546127 181.126605 
L 529.813113 181.258855 
L 530.61407 181.084195 
L 530.881056 181.426523 
L 531.148041 181.582109 
L 531.415027 181.415061 
L 531.682013 181.769752 
L 531.948998 180.838184 
L 532.215984 181.292165 
L 532.482969 181.192071 
L 532.749955 180.890976 
L 533.016941 180.890706 
L 533.550912 181.517277 
L 533.817898 181.178283 
L 534.084883 181.067059 
L 534.351869 181.477957 
L 534.618855 181.522186 
L 534.88584 181.274997 
L 535.419812 181.204813 
L 535.686797 180.90992 
L 535.953783 180.940753 
L 536.220769 181.345957 
L 536.487754 181.26618 
L 536.75474 181.357045 
L 537.021725 181.117432 
L 537.288711 181.315114 
L 537.822682 181.28821 
L 538.623639 181.801642 
L 538.890625 181.760866 
L 539.424596 181.13773 
L 539.691582 181.161489 
L 539.958568 180.797015 
L 540.225553 181.231943 
L 540.492539 181.227049 
L 540.759525 181.087179 
L 541.560481 181.289441 
L 542.094453 181.70623 
L 542.361438 181.399366 
L 542.628424 181.552 
L 543.429381 181.196248 
L 543.963352 181.533052 
L 544.230338 181.182404 
L 544.497324 181.162531 
L 544.764309 181.268562 
L 545.031295 181.166188 
L 545.298281 181.237255 
L 545.565266 181.508306 
L 545.832252 181.217322 
L 546.099237 181.174004 
L 546.366223 181.448423 
L 547.16718 180.993825 
L 547.701151 181.211348 
L 548.235123 180.853506 
L 548.769094 181.251321 
L 549.03608 181.036013 
L 549.303065 181.236788 
L 549.570051 180.91502 
L 550.104022 181.260197 
L 550.371008 180.992569 
L 550.637993 180.906492 
L 550.904979 181.264495 
L 551.171965 181.337705 
L 551.43895 181.141876 
L 551.705936 181.401987 
L 551.972922 181.083603 
L 552.239907 181.15513 
L 552.506893 181.099415 
L 552.773879 181.461185 
L 553.040864 180.995664 
L 553.30785 181.027961 
L 553.574836 181.254851 
L 553.841821 180.992565 
L 554.642778 180.835867 
L 554.909764 181.28522 
L 555.176749 181.136979 
L 555.977706 181.057248 
L 556.244692 181.334315 
L 556.511678 181.008874 
L 557.045649 181.165392 
L 558.113592 181.151976 
L 558.380577 181.587694 
L 558.647563 181.344564 
L 558.914548 181.559964 
L 559.181534 181.217784 
L 559.715505 181.191891 
L 559.982491 181.123444 
L 560.249477 181.369443 
L 560.516462 181.240362 
L 560.783448 181.427559 
L 561.050434 181.157927 
L 561.584405 181.055463 
L 561.851391 181.306174 
L 562.118376 181.097812 
L 562.385362 181.036483 
L 562.652347 181.110304 
L 562.919333 181.516375 
L 563.72029 181.340823 
L 563.987276 181.411133 
L 564.254261 181.646827 
L 564.521247 181.29806 
L 564.788233 181.469156 
L 565.055218 181.324528 
L 565.322204 181.323779 
L 565.58919 181.094255 
L 565.856175 181.443039 
L 566.390147 181.251748 
L 566.657132 181.493639 
L 566.924118 181.096465 
L 567.191103 181.354825 
L 567.458089 181.248849 
L 567.725075 180.903714 
L 567.99206 181.30448 
L 568.259046 181.07765 
L 569.86096 181.447581 
L 570.127946 181.633296 
L 570.394931 181.411465 
L 570.661917 181.615869 
L 570.928903 181.299058 
L 571.195888 181.521007 
L 571.462874 181.036321 
L 571.729859 181.244403 
L 571.996845 181.005535 
L 572.263831 181.371929 
L 572.530816 181.507278 
L 573.331773 181.372458 
L 573.865745 181.445029 
L 574.13273 181.618564 
L 574.666702 181.375098 
L 575.200673 181.588986 
L 575.467658 181.396585 
L 576.00163 181.392479 
L 576.268615 181.283104 
L 576.802587 181.400861 
L 577.069572 181.548934 
L 577.603544 181.463861 
L 578.137515 181.141053 
L 578.671486 181.472924 
L 578.938472 181.279482 
L 581.074357 181.559974 
L 581.608328 181.047783 
L 581.875314 181.310111 
L 582.409285 181.440316 
L 582.676271 181.27208 
L 582.943257 181.583037 
L 583.210242 181.413462 
L 583.477228 181.595696 
L 583.744214 181.379148 
L 584.011199 181.532002 
L 584.278185 181.369503 
L 584.54517 181.355839 
L 585.079142 181.715865 
L 585.346127 181.637601 
L 585.880099 181.791485 
L 587.215027 181.34428 
L 587.482013 181.12835 
L 587.748998 181.242481 
L 588.015984 181.528182 
L 588.282969 181.231125 
L 588.549955 181.318476 
L 588.816941 181.639617 
L 589.083926 181.553197 
L 589.350912 181.873894 
L 589.617898 181.820115 
L 589.884883 181.608769 
L 590.418855 181.589959 
L 590.952826 181.350915 
L 591.219812 181.44303 
L 591.486797 181.204818 
L 591.753783 181.526179 
L 592.020769 181.221062 
L 592.287754 181.511454 
L 592.55474 181.152053 
L 592.821725 181.385891 
L 593.355697 181.464869 
L 594.156654 181.273569 
L 594.423639 181.31444 
L 594.690625 181.033464 
L 594.957611 181.321916 
L 595.224596 181.214465 
L 595.758568 181.447376 
L 596.292539 181.489232 
L 596.559525 181.38524 
L 596.82651 181.481585 
L 597.093496 181.264413 
L 597.360481 181.479106 
L 597.894453 181.174063 
L 598.161438 181.297273 
L 598.428424 181.016067 
L 598.962395 181.367601 
L 599.229381 181.197218 
L 599.763352 181.559006 
L 600.030338 181.286898 
L 600.831295 181.557688 
L 601.098281 181.326235 
L 601.899237 181.456638 
L 602.166223 181.108201 
L 602.433209 181.255625 
L 602.700194 181.048836 
L 603.501151 181.268885 
L 603.768137 181.456591 
L 604.035123 181.247767 
L 604.569094 181.579739 
L 604.83608 181.238241 
L 605.103065 181.411794 
L 605.904022 181.524637 
L 606.171008 181.319154 
L 606.437993 181.298789 
L 606.704979 181.409381 
L 606.971965 181.169365 
L 607.23895 181.538971 
L 607.505936 181.108263 
L 607.772922 181.486399 
L 608.039907 181.363987 
L 608.306893 181.492672 
L 608.573879 181.211351 
L 609.10785 181.499536 
L 609.374836 181.198476 
L 609.641821 181.40712 
L 609.908807 181.394784 
L 610.442778 181.540093 
L 610.709764 181.267008 
L 610.976749 181.302535 
L 611.243735 181.186981 
L 612.044692 181.322811 
L 612.311678 181.475049 
L 612.578663 181.307411 
L 612.845649 181.496721 
L 613.112635 181.467341 
L 613.37962 181.560677 
L 614.447563 181.25221 
L 614.714548 181.34457 
L 614.981534 181.59011 
L 615.24852 181.38999 
L 615.782491 181.758113 
L 616.049477 181.481323 
L 617.117419 181.526635 
L 617.384405 181.144676 
L 617.651391 181.091317 
L 617.918376 181.567398 
L 618.185362 181.321628 
L 618.452347 181.56538 
L 618.719333 181.184235 
L 618.986319 181.49557 
L 619.52029 181.545454 
L 619.787276 181.680645 
L 620.054261 181.335056 
L 620.588233 181.433714 
L 620.855218 181.387633 
L 621.122204 181.748402 
L 621.38919 181.721711 
L 621.656175 181.340453 
L 621.923161 181.248095 
L 622.457132 181.406763 
L 622.724118 181.616058 
L 622.991103 181.568543 
L 623.258089 181.220991 
L 623.525075 181.502585 
L 623.79206 181.423927 
L 624.059046 181.667378 
L 624.326032 181.344849 
L 624.593017 181.839675 
L 624.860003 181.959283 
L 625.126989 181.897074 
L 625.126989 181.897074 
" clip-path="url(#pf5219ea410)" style="fill: none; stroke: #1f77b4; stroke-width: 1.5; stroke-linecap: square"/>
   </g>
   <g id="line2d_15">
    <path d="M 117.854261 296.03625 
L 118.121247 281.604935 
L 118.388233 284.937888 
L 118.655218 246.001987 
L 118.922204 270.950308 
L 119.18919 246.561247 
L 119.723161 226.968639 
L 119.990147 210.778769 
L 120.257132 215.903882 
L 120.524118 216.941819 
L 121.59206 203.915034 
L 121.859046 202.60435 
L 122.393017 210.825042 
L 122.660003 216.91855 
L 122.926989 216.352314 
L 123.193974 218.493547 
L 123.46096 215.598695 
L 123.994931 221.377916 
L 124.261917 221.237981 
L 124.528903 209.700687 
L 124.795888 203.982905 
L 125.062874 201.936608 
L 125.329859 196.027266 
L 125.596845 195.848203 
L 125.863831 187.438441 
L 126.130816 190.141416 
L 126.664788 188.949437 
L 126.931773 190.792885 
L 127.198759 190.124215 
L 127.465745 190.46342 
L 127.73273 189.313475 
L 127.999716 188.765514 
L 128.266702 185.85427 
L 128.533687 186.505182 
L 128.800673 185.489899 
L 129.067658 185.992536 
L 129.334644 187.428099 
L 129.60163 187.422095 
L 130.402587 184.904326 
L 130.669572 186.32159 
L 130.936558 184.280463 
L 131.203544 185.073553 
L 131.470529 187.132296 
L 132.271486 184.810089 
L 132.538472 185.770033 
L 132.805458 184.676514 
L 133.072443 184.446925 
L 133.339429 184.73742 
L 133.606414 185.756947 
L 133.8734 184.552798 
L 134.140386 184.889511 
L 134.407371 184.004759 
L 134.674357 183.901411 
L 134.941343 184.210607 
L 135.208328 183.773288 
L 135.475314 183.881292 
L 135.7423 184.302752 
L 136.009285 184.383936 
L 136.276271 184.847795 
L 136.543257 183.874218 
L 136.810242 183.985069 
L 137.077228 184.487505 
L 137.344214 182.909122 
L 137.611199 182.846106 
L 137.878185 183.355634 
L 138.14517 184.113366 
L 138.412156 183.175639 
L 138.679142 183.903217 
L 138.946127 183.699209 
L 139.213113 183.061725 
L 139.480099 183.196088 
L 139.747084 185.027866 
L 140.281056 183.024234 
L 140.548041 183.024664 
L 140.815027 182.908792 
L 141.082013 182.921731 
L 141.348998 183.446698 
L 141.615984 183.231953 
L 141.882969 183.782402 
L 142.149955 183.157305 
L 142.683926 183.542492 
L 142.950912 183.446975 
L 143.217898 182.928913 
L 143.484883 183.836236 
L 143.751869 183.736315 
L 144.018855 183.907988 
L 144.28584 183.273056 
L 144.552826 183.490009 
L 144.819812 182.720341 
L 145.086797 182.625096 
L 145.353783 182.920247 
L 145.620769 183.852156 
L 145.887754 182.802564 
L 146.15474 182.738626 
L 146.421725 182.801259 
L 146.955697 183.681555 
L 147.222682 182.885937 
L 147.489668 183.817856 
L 147.756654 183.130461 
L 148.023639 183.143888 
L 148.557611 182.841679 
L 148.824596 183.534285 
L 149.091582 182.956399 
L 149.358568 183.1017 
L 149.625553 183.593199 
L 149.892539 183.231413 
L 150.159525 183.494154 
L 150.42651 182.587269 
L 150.960481 183.233486 
L 151.227467 183.014462 
L 151.494453 183.921541 
L 151.761438 183.145828 
L 152.028424 184.071561 
L 152.29541 183.153563 
L 152.562395 183.120939 
L 152.829381 183.217194 
L 153.096367 182.82653 
L 153.363352 183.195985 
L 153.630338 183.2152 
L 153.897324 182.068551 
L 154.164309 182.517478 
L 154.431295 183.2954 
L 154.698281 183.449769 
L 154.965266 183.395169 
L 155.232252 183.713621 
L 155.499237 182.791018 
L 155.766223 182.950666 
L 156.033209 183.437971 
L 156.300194 183.397177 
L 156.56718 182.63061 
L 156.834166 183.785292 
L 157.101151 182.474261 
L 157.368137 183.387489 
L 157.635123 182.480907 
L 157.902108 183.151485 
L 158.43608 182.730728 
L 158.703065 183.290475 
L 158.970051 182.409606 
L 159.237036 182.700566 
L 159.504022 183.743703 
L 159.771008 182.943793 
L 160.571965 182.818776 
L 160.83895 183.03813 
L 161.105936 182.991935 
L 161.372922 183.939272 
L 161.639907 183.640936 
L 161.906893 182.692036 
L 162.173879 182.555659 
L 162.440864 182.842249 
L 162.70785 182.57223 
L 162.974836 183.123184 
L 163.241821 182.891681 
L 163.508807 183.99973 
L 164.042778 182.255185 
L 164.309764 182.325751 
L 164.843735 182.950932 
L 165.110721 182.766578 
L 165.377706 183.213411 
L 165.644692 182.990066 
L 165.911678 183.10962 
L 166.178663 182.88939 
L 166.445649 183.19995 
L 166.712635 182.548171 
L 166.97962 182.331845 
L 167.246606 182.754582 
L 167.513592 182.386773 
L 167.780577 182.499166 
L 168.047563 183.056651 
L 168.314548 182.807802 
L 168.581534 183.105543 
L 168.84852 182.743468 
L 169.115505 183.52151 
L 169.382491 182.973611 
L 170.717419 183.079528 
L 171.251391 182.606775 
L 171.518376 182.513927 
L 172.052347 182.752587 
L 172.319333 183.008193 
L 172.586319 183.679111 
L 173.12029 182.806429 
L 173.387276 182.954243 
L 174.455218 183.070869 
L 174.722204 183.105361 
L 174.98919 182.863134 
L 175.523161 183.206005 
L 176.057132 182.746778 
L 176.858089 183.573065 
L 177.125075 183.018668 
L 177.39206 183.043531 
L 177.659046 183.317399 
L 178.193017 183.136009 
L 178.460003 183.506695 
L 178.726989 183.383708 
L 178.993974 183.030956 
L 179.527946 183.255503 
L 179.794931 183.74766 
L 180.061917 183.539514 
L 180.328903 184.122744 
L 180.595888 183.116812 
L 180.862874 183.055189 
L 181.396845 183.218949 
L 182.197802 183.497466 
L 182.464788 183.173385 
L 182.731773 183.701313 
L 182.998759 183.1398 
L 183.53273 183.983366 
L 183.799716 183.509783 
L 184.066702 183.31685 
L 184.333687 183.477441 
L 184.600673 182.976603 
L 184.867658 183.427922 
L 185.134644 183.32973 
L 185.40163 182.693731 
L 185.668615 183.190847 
L 185.935601 182.878586 
L 186.202587 183.631742 
L 186.469572 183.532027 
L 186.736558 184.148137 
L 187.003544 183.484397 
L 187.537515 183.193172 
L 187.804501 183.484256 
L 188.071486 183.52136 
L 188.605458 182.983246 
L 188.872443 183.474534 
L 189.139429 183.229546 
L 189.406414 183.502455 
L 189.6734 183.333029 
L 189.940386 183.590888 
L 190.207371 183.320601 
L 190.474357 183.380472 
L 190.741343 183.071998 
L 191.008328 183.440573 
L 191.275314 183.385062 
L 191.5423 183.523604 
L 191.809285 183.365623 
L 192.076271 183.015156 
L 192.343257 183.250515 
L 192.610242 184.034514 
L 192.877228 183.839587 
L 193.144214 183.988011 
L 193.411199 183.312729 
L 193.678185 183.503067 
L 193.94517 183.375753 
L 194.212156 183.544545 
L 194.479142 183.094009 
L 195.013113 183.721852 
L 195.280099 183.432648 
L 195.547084 183.598003 
L 195.81407 182.852362 
L 196.081056 183.394857 
L 196.615027 183.282232 
L 197.148998 184.269199 
L 197.415984 183.427617 
L 197.682969 183.745692 
L 197.949955 183.455576 
L 198.483926 183.798223 
L 198.750912 183.654011 
L 199.017898 183.747524 
L 199.284883 183.490886 
L 199.551869 183.697737 
L 199.818855 183.543973 
L 200.08584 183.584663 
L 200.352826 183.770174 
L 200.619812 183.322506 
L 200.886797 183.880069 
L 201.153783 183.989708 
L 201.420769 183.367329 
L 201.687754 183.600689 
L 202.221725 183.696709 
L 202.488711 184.280465 
L 202.755697 183.46197 
L 203.289668 183.7913 
L 203.556654 183.806285 
L 203.823639 183.094654 
L 204.357611 183.904287 
L 204.624596 183.294811 
L 204.891582 183.580542 
L 205.692539 183.662428 
L 205.959525 183.316345 
L 206.22651 183.534865 
L 206.493496 183.912978 
L 206.760481 184.048144 
L 207.027467 183.461047 
L 207.561438 183.752332 
L 207.828424 183.61315 
L 208.09541 184.063493 
L 208.362395 183.592658 
L 208.629381 183.870614 
L 208.896367 183.186031 
L 209.163352 183.964145 
L 209.430338 183.160091 
L 209.697324 183.861212 
L 209.964309 183.292585 
L 210.231295 183.516306 
L 210.498281 183.331213 
L 210.765266 183.617877 
L 211.032252 183.525817 
L 211.299237 183.292991 
L 211.566223 183.480584 
L 211.833209 183.852578 
L 212.36718 183.79079 
L 212.634166 183.497384 
L 212.901151 183.815023 
L 213.168137 184.341255 
L 213.435123 183.225012 
L 213.702108 183.734344 
L 213.969094 183.358944 
L 214.23608 183.242344 
L 214.503065 183.601829 
L 214.770051 183.476473 
L 215.037036 183.648195 
L 215.304022 183.675303 
L 215.571008 183.545577 
L 215.837993 183.551833 
L 216.104979 183.68815 
L 216.371965 184.067365 
L 216.63895 184.011006 
L 217.172922 183.518072 
L 217.439907 183.905989 
L 217.706893 183.72298 
L 217.973879 184.051702 
L 218.240864 183.556504 
L 218.774836 183.560879 
L 219.041821 183.850074 
L 219.308807 183.510944 
L 219.575792 183.786796 
L 219.842778 183.574853 
L 220.109764 184.06199 
L 220.376749 183.535886 
L 220.643735 183.619326 
L 220.910721 184.003903 
L 221.444692 184.168796 
L 221.711678 183.648536 
L 221.978663 184.069936 
L 222.245649 183.989729 
L 222.512635 184.104739 
L 222.77962 183.551519 
L 223.046606 184.201567 
L 223.580577 183.335254 
L 223.847563 183.935562 
L 224.114548 183.628661 
L 224.381534 183.608723 
L 224.64852 183.338168 
L 224.915505 183.369248 
L 225.182491 183.728027 
L 225.449477 183.653923 
L 225.716462 183.871679 
L 225.983448 183.500933 
L 226.250434 183.804692 
L 226.517419 183.557266 
L 226.784405 183.536052 
L 227.051391 183.677491 
L 227.318376 183.511561 
L 227.585362 183.818911 
L 227.852347 183.680106 
L 228.119333 183.316719 
L 228.653304 184.030771 
L 228.92029 183.89653 
L 229.187276 183.561905 
L 229.454261 183.963076 
L 229.721247 183.589406 
L 229.988233 183.671066 
L 230.255218 184.032846 
L 230.78919 183.734416 
L 231.323161 183.984267 
L 231.590147 184.460725 
L 232.124118 183.955757 
L 232.391103 183.371575 
L 232.658089 183.800792 
L 232.925075 183.811522 
L 233.19206 184.438955 
L 233.459046 183.90586 
L 233.726032 183.751405 
L 233.993017 184.136892 
L 234.260003 184.113377 
L 234.526989 184.361561 
L 234.793974 183.893618 
L 235.327946 184.154274 
L 235.594931 183.986099 
L 235.861917 184.031172 
L 236.128903 184.746893 
L 236.395888 183.829595 
L 236.662874 184.525654 
L 237.196845 184.484841 
L 237.463831 183.539757 
L 237.730816 184.396892 
L 237.997802 183.562071 
L 238.264788 184.058096 
L 238.531773 184.027067 
L 239.065745 183.606717 
L 239.33273 184.135914 
L 239.866702 183.971408 
L 240.133687 183.836393 
L 240.400673 184.141271 
L 240.667658 183.986363 
L 240.934644 184.560163 
L 241.20163 184.119487 
L 241.735601 184.380259 
L 242.002587 183.942237 
L 242.269572 184.577942 
L 242.536558 184.126651 
L 242.803544 184.089082 
L 243.070529 184.519843 
L 243.337515 184.160777 
L 243.604501 184.141598 
L 243.871486 183.727954 
L 244.138472 184.247347 
L 244.405458 183.795225 
L 244.672443 183.797496 
L 244.939429 183.976826 
L 245.206414 184.007656 
L 245.4734 184.432068 
L 246.007371 184.492172 
L 246.274357 183.747344 
L 246.541343 183.93629 
L 246.808328 184.274464 
L 247.075314 184.085552 
L 247.3423 183.680952 
L 247.609285 184.109062 
L 247.876271 183.982663 
L 248.143257 184.470374 
L 248.410242 183.848077 
L 248.677228 184.292654 
L 248.944214 184.252351 
L 249.211199 184.65116 
L 249.74517 183.831811 
L 250.012156 184.151975 
L 250.279142 183.759917 
L 250.546127 184.046638 
L 250.813113 183.293369 
L 251.080099 183.455596 
L 251.881056 184.395394 
L 252.148041 184.200659 
L 252.415027 183.62969 
L 252.682013 183.918979 
L 252.948998 183.887444 
L 253.215984 183.680268 
L 253.482969 184.121697 
L 254.016941 183.577968 
L 254.283926 183.406932 
L 255.084883 184.174193 
L 255.351869 183.406188 
L 255.618855 183.566256 
L 255.88584 184.112185 
L 256.419812 183.857474 
L 256.953783 183.345625 
L 257.487754 184.10976 
L 257.75474 183.552716 
L 258.021725 183.578276 
L 258.288711 183.451638 
L 258.822682 183.804361 
L 259.089668 183.562106 
L 259.356654 183.65838 
L 259.623639 183.506233 
L 260.691582 183.5843 
L 260.958568 183.401444 
L 261.225553 183.679564 
L 261.492539 183.625895 
L 261.759525 184.167791 
L 262.02651 183.337589 
L 262.293496 183.581917 
L 262.560481 183.259873 
L 262.827467 183.674293 
L 263.361438 183.769385 
L 263.628424 183.061354 
L 264.429381 183.900729 
L 264.696367 183.444012 
L 265.230338 183.288519 
L 265.497324 183.655874 
L 265.764309 183.632594 
L 266.031295 183.295308 
L 266.298281 183.364492 
L 266.565266 183.186586 
L 266.832252 183.503763 
L 267.633209 183.32978 
L 267.900194 183.466503 
L 268.16718 183.454851 
L 268.434166 183.076589 
L 268.701151 183.41821 
L 268.968137 183.524796 
L 269.235123 182.842981 
L 269.502108 183.131057 
L 270.03608 183.245596 
L 270.303065 183.376076 
L 270.570051 183.107833 
L 270.837036 183.460305 
L 271.104022 183.425541 
L 271.371008 183.241457 
L 271.904979 183.619045 
L 272.171965 183.147681 
L 272.43895 183.273929 
L 272.972922 183.159597 
L 273.239907 183.491664 
L 273.506893 183.561443 
L 273.773879 183.185605 
L 274.040864 183.588135 
L 274.30785 183.219707 
L 274.574836 183.087308 
L 275.108807 183.410961 
L 275.375792 183.24749 
L 275.909764 183.111364 
L 276.176749 183.54411 
L 276.443735 183.164345 
L 276.710721 183.752388 
L 276.977706 182.989223 
L 278.045649 183.309707 
L 278.312635 183.410028 
L 278.57962 183.065202 
L 278.846606 183.062422 
L 279.380577 183.589781 
L 279.647563 183.391143 
L 279.914548 182.950594 
L 280.44852 183.592637 
L 280.982491 183.61025 
L 281.249477 183.113705 
L 281.516462 182.873457 
L 281.783448 183.084194 
L 282.050434 183.452025 
L 282.317419 182.923494 
L 282.584405 183.434375 
L 283.118376 182.997813 
L 283.385362 183.315565 
L 283.652347 183.145289 
L 284.186319 183.57406 
L 284.453304 183.260156 
L 284.987276 183.06024 
L 285.254261 183.147698 
L 285.788233 182.782334 
L 286.055218 183.381895 
L 286.322204 182.975455 
L 286.58919 183.442126 
L 286.856175 183.106796 
L 287.123161 183.474376 
L 287.390147 182.835026 
L 287.657132 183.149862 
L 287.924118 183.087538 
L 288.191103 183.411053 
L 288.458089 183.168374 
L 288.725075 183.180928 
L 288.99206 183.325319 
L 289.259046 182.791654 
L 289.526032 182.55984 
L 289.793017 182.914375 
L 290.060003 182.917697 
L 290.593974 183.183789 
L 291.127946 183.159303 
L 291.661917 183.012312 
L 291.928903 182.604557 
L 292.195888 183.046112 
L 292.462874 183.195119 
L 292.729859 182.889687 
L 292.996845 182.996916 
L 293.530816 183.026144 
L 294.064788 183.267688 
L 294.331773 182.864167 
L 294.598759 182.900338 
L 294.865745 183.192053 
L 295.13273 183.121054 
L 295.399716 183.387414 
L 295.933687 182.854778 
L 296.200673 182.99409 
L 296.467658 182.84007 
L 296.734644 182.958257 
L 297.00163 183.343694 
L 297.268615 182.8654 
L 297.535601 183.227404 
L 297.802587 183.320284 
L 298.069572 182.946414 
L 298.336558 182.853768 
L 298.603544 183.247682 
L 299.404501 183.227195 
L 299.671486 183.543206 
L 299.938472 183.115228 
L 300.205458 183.077924 
L 300.472443 182.86555 
L 300.739429 183.262107 
L 301.006414 183.17484 
L 301.2734 182.869864 
L 301.807371 183.181223 
L 302.074357 182.948603 
L 302.608328 182.98284 
L 302.875314 183.411502 
L 303.1423 183.456222 
L 303.409285 183.160918 
L 303.676271 183.315215 
L 303.943257 183.187405 
L 304.210242 183.406213 
L 304.477228 182.721065 
L 304.744214 183.299725 
L 305.011199 183.430653 
L 305.54517 183.090215 
L 306.079142 183.392291 
L 306.346127 183.283125 
L 306.613113 182.707293 
L 307.147084 183.587734 
L 307.41407 183.586786 
L 307.681056 183.027914 
L 307.948041 183.120785 
L 308.482013 182.952666 
L 309.015984 183.340357 
L 310.350912 183.243999 
L 310.617898 183.015496 
L 311.151869 183.388726 
L 311.952826 183.245335 
L 312.219812 183.526566 
L 312.753783 183.38595 
L 313.020769 183.678664 
L 313.287754 183.587264 
L 313.55474 183.229104 
L 313.821725 183.244474 
L 314.355697 183.591564 
L 314.622682 182.83058 
L 315.156654 183.467039 
L 315.957611 183.012192 
L 316.224596 183.285372 
L 316.491582 182.856099 
L 317.025553 183.321429 
L 317.292539 183.278836 
L 317.559525 183.06228 
L 317.82651 183.08701 
L 318.093496 182.810761 
L 318.360481 183.033006 
L 318.894453 183.205329 
L 319.161438 182.746892 
L 319.428424 183.668937 
L 319.69541 183.280835 
L 320.229381 182.987819 
L 320.496367 182.980378 
L 320.763352 182.689718 
L 321.030338 182.881797 
L 321.297324 183.238529 
L 321.564309 182.903573 
L 322.098281 183.278655 
L 322.365266 183.864914 
L 322.899237 182.881302 
L 323.433209 182.496939 
L 323.700194 182.964083 
L 323.96718 182.932074 
L 324.234166 183.328355 
L 324.501151 183.414942 
L 325.035123 183.08329 
L 325.302108 183.502748 
L 325.569094 183.406766 
L 325.83608 182.975909 
L 326.103065 183.033288 
L 326.370051 183.264682 
L 327.171008 183.125527 
L 329.039907 183.210635 
L 329.306893 183.390996 
L 329.840864 183.227618 
L 330.10785 183.139241 
L 330.374836 182.7976 
L 330.641821 183.158489 
L 330.908807 183.300028 
L 331.442778 182.631251 
L 331.709764 182.771337 
L 331.976749 183.118759 
L 332.243735 182.976473 
L 332.777706 183.497905 
L 333.578663 183.037855 
L 333.845649 183.406321 
L 334.112635 183.506245 
L 334.37962 183.117107 
L 334.646606 183.270517 
L 334.913592 183.069813 
L 335.180577 183.06227 
L 335.447563 183.500583 
L 335.714548 183.213128 
L 336.782491 183.231397 
L 337.049477 183.41181 
L 337.583448 183.051382 
L 337.850434 183.010845 
L 338.117419 183.358565 
L 338.918376 182.973402 
L 339.185362 183.439632 
L 339.452347 183.343979 
L 339.719333 183.451405 
L 339.986319 183.754983 
L 340.253304 183.196067 
L 340.52029 183.369495 
L 340.787276 182.879069 
L 341.054261 182.881103 
L 341.321247 183.323204 
L 341.855218 183.800187 
L 342.122204 183.416379 
L 342.38919 183.388463 
L 342.656175 182.964581 
L 342.923161 183.437921 
L 343.457132 183.108274 
L 343.991103 182.974154 
L 344.258089 182.937994 
L 344.525075 183.247622 
L 344.79206 183.255529 
L 345.059046 183.843212 
L 345.326032 182.950002 
L 346.393974 183.181687 
L 346.927946 183.507414 
L 347.194931 183.212241 
L 347.461917 183.569302 
L 347.728903 183.43711 
L 347.995888 183.118884 
L 348.262874 183.359822 
L 348.529859 183.312847 
L 348.796845 182.979613 
L 349.063831 183.438856 
L 349.330816 182.299609 
L 349.597802 181.762942 
L 349.864788 183.441184 
L 350.665745 182.961926 
L 350.93273 183.454121 
L 351.199716 183.175714 
L 351.466702 183.373462 
L 351.733687 182.405084 
L 352.000673 180.350935 
L 352.267658 180.307807 
L 353.068615 181.647799 
L 353.335601 181.67833 
L 353.602587 182.428926 
L 353.869572 181.779399 
L 354.136558 182.309822 
L 354.403544 181.950503 
L 354.937515 181.811203 
L 355.204501 182.112539 
L 355.471486 182.119962 
L 355.738472 183.012767 
L 356.272443 182.240705 
L 356.539429 182.865056 
L 356.806414 182.625435 
L 357.0734 182.555945 
L 357.607371 181.790267 
L 357.874357 181.872344 
L 358.141343 182.292266 
L 358.408328 182.355283 
L 358.675314 182.651025 
L 358.9423 181.105141 
L 359.209285 181.664196 
L 359.476271 181.607785 
L 359.743257 181.839257 
L 360.010242 181.778432 
L 360.277228 182.066054 
L 360.544214 182.024339 
L 360.811199 182.132545 
L 361.34517 181.90766 
L 361.612156 182.047168 
L 361.879142 181.99583 
L 362.146127 182.254159 
L 362.413113 181.839294 
L 362.680099 182.432153 
L 362.947084 181.941677 
L 363.21407 182.270582 
L 363.481056 181.797613 
L 363.748041 181.937586 
L 364.015027 181.866494 
L 364.282013 182.105283 
L 364.548998 182.004853 
L 364.815984 181.770463 
L 365.082969 182.209652 
L 365.349955 182.15394 
L 365.616941 182.278743 
L 365.883926 182.0443 
L 366.417898 182.350906 
L 366.684883 181.991202 
L 367.218855 182.179557 
L 367.48584 182.057555 
L 367.752826 182.350878 
L 368.019812 182.414161 
L 368.286797 182.635928 
L 368.820769 182.199205 
L 369.087754 182.378853 
L 369.35474 182.341046 
L 369.621725 182.13528 
L 369.888711 182.076736 
L 370.155697 182.199744 
L 370.422682 182.111265 
L 370.689668 182.264371 
L 370.956654 181.75747 
L 371.223639 181.624852 
L 371.490625 182.026701 
L 372.024596 182.153099 
L 372.558568 182.247594 
L 372.825553 182.569226 
L 373.092539 182.231737 
L 373.359525 182.239436 
L 373.62651 181.855166 
L 373.893496 182.195919 
L 374.160481 182.236617 
L 374.427467 182.157868 
L 374.694453 182.442652 
L 374.961438 182.495546 
L 375.228424 181.732491 
L 375.49541 182.424756 
L 375.762395 182.535168 
L 376.029381 182.355891 
L 376.296367 182.012175 
L 376.563352 182.700203 
L 376.830338 182.243314 
L 377.097324 182.543644 
L 377.364309 182.660535 
L 377.631295 182.208276 
L 377.898281 182.065511 
L 378.165266 182.313926 
L 378.432252 182.199557 
L 378.699237 182.488326 
L 379.233209 181.972093 
L 380.301151 182.320669 
L 380.568137 182.06008 
L 380.835123 182.687156 
L 381.369094 182.594929 
L 381.63608 182.375168 
L 381.903065 182.324818 
L 382.170051 182.508199 
L 382.437036 182.524887 
L 382.704022 182.242166 
L 382.971008 182.504688 
L 383.504979 182.138973 
L 383.771965 181.981903 
L 384.03895 182.243448 
L 385.106893 182.119861 
L 385.373879 182.057143 
L 385.90785 182.286359 
L 386.174836 182.082584 
L 386.441821 182.138121 
L 386.975792 182.505293 
L 387.242778 182.401842 
L 387.509764 182.485467 
L 387.776749 182.34327 
L 388.043735 182.569181 
L 388.310721 182.530533 
L 388.577706 182.149332 
L 388.844692 182.232089 
L 389.111678 182.113911 
L 389.378663 182.324375 
L 389.645649 182.351873 
L 389.912635 182.20829 
L 391.514548 182.632047 
L 391.781534 182.390814 
L 392.04852 182.440597 
L 392.315505 182.656737 
L 392.582491 182.502688 
L 392.849477 182.637357 
L 393.116462 182.095196 
L 393.383448 182.283805 
L 393.650434 182.069755 
L 393.917419 182.536919 
L 394.184405 182.640008 
L 394.451391 182.396871 
L 394.718376 182.545075 
L 395.252347 182.460655 
L 395.786319 182.594223 
L 396.053304 182.883057 
L 396.854261 182.550176 
L 397.655218 182.335158 
L 397.922204 182.094919 
L 398.18919 182.439439 
L 398.456175 182.449754 
L 398.723161 182.333685 
L 398.990147 182.384298 
L 399.791103 181.973572 
L 400.859046 181.909574 
L 401.393017 182.367982 
L 401.660003 182.184092 
L 401.926989 182.209204 
L 402.727946 181.757783 
L 402.994931 182.046813 
L 403.528903 181.895438 
L 403.795888 181.761605 
L 404.062874 182.163757 
L 404.329859 181.922442 
L 404.863831 182.002908 
L 405.130816 182.331292 
L 405.397802 182.230149 
L 405.664788 182.319543 
L 405.931773 182.174219 
L 406.198759 182.220184 
L 406.465745 181.848545 
L 406.73273 182.240633 
L 406.999716 182.003928 
L 407.266702 182.187805 
L 408.334644 182.115941 
L 408.60163 181.728746 
L 408.868615 181.858457 
L 409.135601 182.188899 
L 409.669572 182.174414 
L 410.203544 182.175654 
L 410.737515 182.163007 
L 411.004501 182.230807 
L 411.271486 182.135633 
L 411.538472 182.287623 
L 412.339429 181.866172 
L 412.606414 181.89936 
L 412.8734 182.239634 
L 413.140386 182.186477 
L 413.407371 181.93379 
L 413.674357 182.083731 
L 413.941343 182.068481 
L 414.208328 181.74011 
L 414.475314 181.921651 
L 414.7423 181.807126 
L 415.543257 181.953517 
L 415.810242 181.902134 
L 416.077228 182.037676 
L 416.611199 181.718665 
L 416.878185 181.825252 
L 417.14517 182.142079 
L 417.679142 181.853801 
L 418.213113 182.064664 
L 418.480099 182.087273 
L 418.747084 181.799895 
L 419.01407 182.269505 
L 419.281056 182.295824 
L 419.548041 182.054519 
L 419.815027 182.290106 
L 420.348998 181.885735 
L 420.615984 181.740144 
L 421.149955 181.90172 
L 421.683926 182.017275 
L 421.950912 181.970675 
L 422.217898 181.68243 
L 422.484883 182.09441 
L 423.018855 182.167889 
L 423.552826 181.676868 
L 424.086797 181.921529 
L 424.353783 182.091311 
L 424.620769 181.811555 
L 424.887754 181.72748 
L 425.15474 181.918756 
L 425.421725 181.577909 
L 426.222682 181.884943 
L 426.489668 182.195232 
L 426.756654 182.076375 
L 427.290625 181.688939 
L 428.091582 181.888783 
L 428.358568 181.935298 
L 428.625553 181.553882 
L 429.159525 181.70919 
L 429.42651 181.962171 
L 429.693496 181.805463 
L 429.960481 182.31243 
L 430.227467 181.850127 
L 430.494453 181.743885 
L 431.028424 181.934827 
L 431.29541 181.73376 
L 431.562395 182.240763 
L 431.829381 182.297025 
L 432.096367 181.865324 
L 432.363352 182.298322 
L 432.897324 181.792845 
L 433.164309 182.101816 
L 433.431295 181.807663 
L 433.698281 182.011369 
L 433.965266 181.862656 
L 434.232252 181.545636 
L 434.499237 181.935272 
L 435.033209 182.082325 
L 435.300194 181.987239 
L 435.56718 182.145787 
L 435.834166 181.901138 
L 436.101151 182.199781 
L 436.368137 181.592446 
L 436.635123 181.312293 
L 437.169094 182.069524 
L 437.43608 180.052708 
L 437.970051 181.958992 
L 438.237036 182.280114 
L 438.504022 181.981429 
L 439.037993 181.847476 
L 439.304979 182.080644 
L 439.571965 181.74972 
L 440.105936 181.995071 
L 440.372922 182.29362 
L 440.639907 181.965993 
L 440.906893 182.010501 
L 441.173879 181.834422 
L 441.440864 181.894159 
L 441.974836 181.761904 
L 442.241821 182.043791 
L 443.042778 181.765094 
L 443.576749 182.41181 
L 443.843735 182.096682 
L 444.110721 182.228219 
L 444.377706 182.134654 
L 444.644692 182.183119 
L 444.911678 182.042655 
L 445.178663 182.234615 
L 445.445649 182.149602 
L 445.712635 181.919169 
L 446.246606 182.110859 
L 446.513592 181.927376 
L 446.780577 182.019863 
L 447.314548 181.8605 
L 447.84852 182.15836 
L 448.115505 182.242096 
L 448.649477 182.168419 
L 448.916462 181.920597 
L 449.183448 182.078837 
L 449.450434 181.968266 
L 449.717419 182.125528 
L 449.984405 181.925233 
L 450.251391 181.995146 
L 450.518376 182.256933 
L 451.052347 181.956486 
L 451.319333 182.07418 
L 451.586319 181.57487 
L 451.853304 181.804915 
L 452.12029 181.242766 
L 452.387276 181.793522 
L 452.654261 181.959183 
L 453.188233 181.850256 
L 453.455218 181.794141 
L 453.98919 182.030353 
L 454.256175 182.449644 
L 454.523161 181.999728 
L 454.790147 182.160305 
L 455.591103 181.726165 
L 455.858089 181.878269 
L 456.125075 181.773254 
L 456.659046 182.000091 
L 456.926032 182.002512 
L 457.460003 181.803269 
L 458.26096 181.803712 
L 458.527946 181.659426 
L 458.794931 181.730658 
L 459.595888 182.190769 
L 459.862874 181.833131 
L 460.129859 182.159772 
L 460.396845 181.805979 
L 460.663831 181.738369 
L 460.930816 181.793717 
L 461.464788 182.205691 
L 461.731773 181.962345 
L 462.265745 181.824625 
L 462.799716 182.167373 
L 463.333687 181.8784 
L 463.600673 181.654484 
L 463.867658 181.949669 
L 464.134644 181.678056 
L 464.40163 181.735695 
L 464.668615 181.913964 
L 464.935601 181.721036 
L 465.202587 181.874075 
L 465.469572 181.806772 
L 465.736558 182.016588 
L 466.003544 181.839141 
L 466.270529 182.074242 
L 466.537515 181.818003 
L 466.804501 181.753855 
L 467.071486 181.830436 
L 467.338472 181.642867 
L 467.872443 181.696632 
L 468.6734 181.812505 
L 468.940386 181.684922 
L 469.474357 181.85471 
L 469.741343 181.634675 
L 470.275314 182.171771 
L 470.5423 181.519403 
L 471.343257 182.009526 
L 471.610242 181.672554 
L 471.877228 181.83577 
L 472.144214 181.833104 
L 472.411199 181.600327 
L 472.678185 182.016647 
L 472.94517 182.024052 
L 473.212156 181.727536 
L 473.746127 181.98245 
L 474.013113 182.084721 
L 474.280099 181.833465 
L 474.547084 182.02428 
L 475.348041 181.616899 
L 475.615027 181.854124 
L 475.882013 181.894306 
L 476.148998 181.700946 
L 476.415984 182.163858 
L 476.682969 181.960477 
L 476.949955 181.603975 
L 478.017898 181.941194 
L 478.284883 181.838706 
L 478.818855 182.088693 
L 479.08584 182.308904 
L 479.352826 182.282092 
L 479.619812 181.980502 
L 479.886797 181.975156 
L 480.420769 181.694727 
L 480.687754 181.973114 
L 480.95474 181.920721 
L 481.221725 182.122342 
L 482.022682 181.93848 
L 482.289668 181.739666 
L 482.556654 181.9783 
L 482.823639 181.766782 
L 483.090625 181.800565 
L 483.357611 181.975119 
L 483.624596 181.819662 
L 484.425553 182.168837 
L 484.959525 181.837776 
L 485.22651 182.248496 
L 485.493496 181.818937 
L 485.760481 181.899228 
L 486.027467 181.61977 
L 486.294453 182.075376 
L 486.828424 181.745763 
L 487.09541 182.02806 
L 487.362395 181.729104 
L 487.629381 178.870123 
L 487.896367 170.229221 
L 488.163352 180.666642 
L 488.430338 181.321931 
L 488.697324 181.555562 
L 488.964309 181.493365 
L 489.231295 182.043347 
L 489.498281 181.271262 
L 489.765266 181.467953 
L 490.032252 181.459883 
L 490.566223 181.891243 
L 490.833209 181.748658 
L 491.36718 181.715927 
L 491.634166 181.602932 
L 491.901151 181.855308 
L 492.435123 181.777103 
L 492.702108 181.856539 
L 492.969094 181.664169 
L 493.23608 181.799604 
L 493.503065 181.606036 
L 494.037036 181.976507 
L 494.304022 181.974598 
L 494.571008 181.662989 
L 494.837993 181.846343 
L 495.104979 181.620717 
L 495.371965 181.831968 
L 495.905936 181.697359 
L 496.172922 181.795002 
L 496.439907 182.18322 
L 497.240864 181.52973 
L 497.774836 181.981396 
L 498.041821 182.022673 
L 498.308807 181.891226 
L 499.376749 182.050009 
L 499.910721 181.740706 
L 500.177706 182.095322 
L 500.444692 181.610063 
L 500.978663 181.788659 
L 501.245649 181.683531 
L 501.512635 181.845154 
L 501.77962 181.523445 
L 502.046606 181.523421 
L 502.313592 181.734572 
L 502.847563 181.609469 
L 503.381534 181.797784 
L 503.64852 181.220871 
L 504.182491 181.70697 
L 504.983448 181.897701 
L 505.784405 181.679268 
L 506.318376 181.943345 
L 506.852347 181.801782 
L 507.386319 182.104988 
L 507.653304 181.685994 
L 507.92029 181.849745 
L 508.454261 181.692192 
L 508.721247 181.915774 
L 508.988233 181.756404 
L 509.522204 181.890293 
L 510.857132 181.823925 
L 511.124118 181.625437 
L 511.391103 181.63508 
L 511.658089 181.959367 
L 512.459046 181.880399 
L 512.726032 181.464954 
L 512.993017 182.008576 
L 513.260003 181.659954 
L 513.526989 181.57685 
L 513.793974 181.722709 
L 514.594931 181.553949 
L 514.861917 181.906624 
L 515.128903 181.778482 
L 515.395888 181.95063 
L 515.929859 181.845578 
L 516.196845 182.035475 
L 516.463831 181.994049 
L 516.997802 181.595286 
L 517.798759 181.790146 
L 518.065745 181.568494 
L 518.33273 181.767949 
L 518.866702 181.555577 
L 519.133687 181.71629 
L 519.400673 181.500318 
L 519.934644 181.589613 
L 520.20163 182.324492 
L 520.468615 181.65213 
L 520.735601 181.556863 
L 521.269572 181.687451 
L 521.536558 181.621999 
L 521.803544 181.713766 
L 522.070529 181.530357 
L 522.337515 181.492269 
L 522.871486 181.653447 
L 523.405458 181.444557 
L 524.206414 181.840735 
L 524.4734 181.76703 
L 524.740386 181.903335 
L 525.007371 181.780249 
L 525.274357 181.884581 
L 526.075314 181.601995 
L 526.876271 181.943653 
L 527.143257 181.72517 
L 527.410242 181.915604 
L 528.211199 181.719722 
L 528.478185 181.45755 
L 528.74517 181.958284 
L 529.012156 181.722957 
L 529.813113 181.732174 
L 530.347084 181.726356 
L 530.61407 181.532331 
L 530.881056 181.871927 
L 531.148041 181.520266 
L 531.415027 181.605969 
L 531.682013 181.846301 
L 531.948998 181.80138 
L 532.215984 181.603367 
L 532.482969 181.683795 
L 533.016941 181.439124 
L 533.283926 181.731045 
L 533.550912 181.818212 
L 533.817898 182.024506 
L 534.084883 181.73129 
L 534.351869 181.667424 
L 534.618855 181.452831 
L 534.88584 181.69617 
L 535.152826 181.627867 
L 535.419812 181.885654 
L 535.686797 181.707161 
L 535.953783 181.774239 
L 536.220769 181.70003 
L 536.487754 181.866095 
L 536.75474 181.671007 
L 537.021725 181.629185 
L 537.288711 182.064093 
L 538.089668 181.658267 
L 538.356654 181.994362 
L 538.623639 181.850652 
L 538.890625 181.834231 
L 539.157611 182.018925 
L 539.424596 181.896272 
L 539.691582 181.593554 
L 540.225553 181.842488 
L 540.492539 181.698642 
L 540.759525 181.724998 
L 541.293496 181.652872 
L 541.560481 181.823168 
L 541.827467 181.714259 
L 542.094453 181.789478 
L 542.361438 182.173943 
L 542.89541 181.795705 
L 543.162395 181.997057 
L 543.429381 181.690881 
L 543.696367 181.813999 
L 544.230338 181.486097 
L 544.497324 181.839363 
L 544.764309 181.49964 
L 545.298281 181.574061 
L 545.565266 181.820781 
L 546.366223 181.370249 
L 546.633209 181.644991 
L 546.900194 181.670888 
L 547.16718 181.562027 
L 547.434166 181.867859 
L 547.701151 181.95981 
L 548.502108 181.452225 
L 549.570051 181.699159 
L 549.837036 181.945157 
L 550.104022 181.48012 
L 550.637993 181.893213 
L 551.43895 181.709921 
L 551.705936 181.892387 
L 553.040864 181.571889 
L 553.30785 181.771368 
L 554.108807 181.890005 
L 554.375792 181.757482 
L 554.642778 182.157293 
L 554.909764 181.755708 
L 555.443735 181.644451 
L 555.977706 181.594422 
L 556.244692 181.771173 
L 556.778663 181.547272 
L 557.045649 181.721043 
L 557.57962 181.608906 
L 557.846606 182.015569 
L 558.113592 181.932338 
L 558.380577 181.667759 
L 558.647563 181.593854 
L 559.181534 181.90755 
L 559.44852 181.757697 
L 559.715505 181.833484 
L 560.249477 181.719709 
L 560.516462 181.907642 
L 561.317419 181.501521 
L 561.584405 181.561981 
L 561.851391 181.930689 
L 562.118376 181.538115 
L 562.385362 181.759602 
L 562.652347 181.610441 
L 563.186319 181.735541 
L 563.72029 181.506536 
L 563.987276 182.060447 
L 564.254261 181.841778 
L 564.521247 181.849069 
L 564.788233 181.620308 
L 565.055218 181.666982 
L 565.322204 181.529124 
L 565.58919 181.875701 
L 566.123161 181.854913 
L 566.390147 181.489123 
L 566.657132 181.81502 
L 567.191103 182.015372 
L 567.458089 181.980564 
L 567.99206 182.720218 
L 569.593974 181.601029 
L 569.86096 181.911801 
L 570.127946 181.720877 
L 570.394931 181.869234 
L 570.661917 181.802882 
L 570.928903 182.078903 
L 571.195888 181.634985 
L 571.729859 181.727036 
L 571.996845 181.462822 
L 572.263831 181.882836 
L 572.530816 181.63341 
L 572.797802 181.645359 
L 573.064788 181.772013 
L 573.331773 181.688306 
L 573.865745 181.819536 
L 574.13273 181.700176 
L 574.399716 181.877592 
L 574.666702 181.82339 
L 574.933687 181.531704 
L 575.200673 181.962338 
L 575.467658 181.834118 
L 576.00163 181.878996 
L 576.535601 181.738872 
L 576.802587 182.178227 
L 577.336558 181.990597 
L 577.870529 181.807109 
L 578.404501 181.839315 
L 578.671486 181.985682 
L 578.938472 181.829286 
L 579.205458 182.007496 
L 579.472443 181.965345 
L 579.739429 181.732017 
L 580.006414 181.676977 
L 580.2734 181.863159 
L 580.540386 181.87181 
L 580.807371 182.115696 
L 581.341343 181.634832 
L 581.608328 181.813781 
L 581.875314 181.52786 
L 582.1423 181.663778 
L 582.409285 181.936551 
L 582.943257 181.795083 
L 583.210242 181.856577 
L 583.477228 182.041561 
L 584.011199 181.822598 
L 584.278185 181.686407 
L 584.54517 181.675122 
L 584.812156 181.943276 
L 585.346127 181.902914 
L 585.613113 182.140561 
L 586.41407 181.958917 
L 586.681056 181.339972 
L 587.215027 181.790418 
L 587.748998 181.706857 
L 588.015984 181.843433 
L 588.282969 181.698563 
L 588.549955 182.02183 
L 588.816941 181.899628 
L 590.418855 182.112162 
L 590.68584 181.733319 
L 591.219812 181.693129 
L 591.486797 181.487862 
L 591.753783 181.567374 
L 592.287754 182.072214 
L 592.55474 181.616261 
L 593.088711 181.848855 
L 593.355697 181.849599 
L 593.622682 181.580077 
L 594.156654 181.893769 
L 594.423639 181.9619 
L 595.224596 181.694811 
L 595.758568 181.785406 
L 596.025553 181.55069 
L 596.292539 181.761032 
L 596.82651 181.85405 
L 597.093496 181.602376 
L 597.360481 181.602835 
L 597.627467 181.73657 
L 597.894453 181.689683 
L 598.161438 181.806617 
L 598.428424 181.582594 
L 598.69541 181.65564 
L 599.229381 181.635796 
L 599.496367 181.848479 
L 600.030338 181.70466 
L 600.564309 182.033307 
L 600.831295 182.002178 
L 601.632252 181.45896 
L 601.899237 181.635638 
L 602.166223 181.591845 
L 602.433209 182.058432 
L 603.768137 181.784021 
L 604.035123 181.81641 
L 604.569094 181.627834 
L 605.370051 181.835132 
L 605.637036 181.672917 
L 606.171008 181.69079 
L 606.437993 182.123444 
L 606.704979 181.839031 
L 607.23895 182.097175 
L 607.505936 181.880892 
L 607.772922 182.063329 
L 608.306893 181.768544 
L 608.840864 181.952975 
L 609.10785 181.960739 
L 609.641821 181.665948 
L 609.908807 182.190648 
L 610.175792 181.598158 
L 610.442778 181.802687 
L 610.709764 181.730445 
L 610.976749 182.017366 
L 611.243735 181.605589 
L 612.578663 181.816991 
L 612.845649 181.514226 
L 613.112635 181.953969 
L 613.37962 181.93564 
L 613.646606 181.585637 
L 613.913592 182.098662 
L 614.180577 182.000305 
L 614.447563 181.456098 
L 614.714548 181.964001 
L 614.981534 181.781864 
L 615.515505 181.921542 
L 615.782491 181.786916 
L 616.049477 181.882699 
L 616.316462 181.81582 
L 616.583448 182.010576 
L 617.117419 181.853168 
L 617.384405 181.543411 
L 617.651391 182.01386 
L 617.918376 181.859022 
L 618.986319 181.985243 
L 619.253304 181.77679 
L 619.52029 181.86108 
L 619.787276 181.621 
L 620.321247 181.776822 
L 620.588233 181.6466 
L 620.855218 181.974832 
L 621.122204 181.896535 
L 621.38919 182.155293 
L 621.656175 181.688092 
L 621.923161 181.524266 
L 622.190147 181.712213 
L 622.457132 181.759691 
L 622.724118 181.970003 
L 622.991103 181.911143 
L 623.258089 182.029691 
L 623.525075 181.878768 
L 623.79206 182.055948 
L 624.059046 181.904412 
L 624.326032 181.981369 
L 624.593017 181.938732 
L 624.860003 182.353499 
L 625.126989 182.274811 
L 625.126989 182.274811 
" clip-path="url(#pf5219ea410)" style="fill: none; stroke: #ff7f0e; stroke-width: 1.5; stroke-linecap: square"/>
   </g>
   <g id="patch_3">
    <path d="M 92.490625 308.63625 
L 92.490625 31.43625 
" style="fill: none; stroke: #000000; stroke-width: 0.8; stroke-linejoin: miter; stroke-linecap: square"/>
   </g>
   <g id="patch_4">
    <path d="M 650.490625 308.63625 
L 650.490625 31.43625 
" style="fill: none; stroke: #000000; stroke-width: 0.8; stroke-linejoin: miter; stroke-linecap: square"/>
   </g>
   <g id="patch_5">
    <path d="M 92.490625 308.63625 
L 650.490625 308.63625 
" style="fill: none; stroke: #000000; stroke-width: 0.8; stroke-linejoin: miter; stroke-linecap: square"/>
   </g>
   <g id="patch_6">
    <path d="M 92.490625 31.43625 
L 650.490625 31.43625 
" style="fill: none; stroke: #000000; stroke-width: 0.8; stroke-linejoin: miter; stroke-linecap: square"/>
   </g>
   <g id="text_16">
    <!-- Generator and Discriminator Loss During Training -->
    <g transform="translate(74.258125 25.43625) scale(0.24 -0.24)">
     <defs>
      <path id="DejaVuSans-47" d="M 3809 666 
L 3809 1919 
L 2778 1919 
L 2778 2438 
L 4434 2438 
L 4434 434 
Q 4069 175 3628 42 
Q 3188 -91 2688 -91 
Q 1594 -91 976 548 
Q 359 1188 359 2328 
Q 359 3472 976 4111 
Q 1594 4750 2688 4750 
Q 3144 4750 3555 4637 
Q 3966 4525 4313 4306 
L 4313 3634 
Q 3963 3931 3569 4081 
Q 3175 4231 2741 4231 
Q 1884 4231 1454 3753 
Q 1025 3275 1025 2328 
Q 1025 1384 1454 906 
Q 1884 428 2741 428 
Q 3075 428 3337 486 
Q 3600 544 3809 666 
z
" transform="scale(0.015625)"/>
      <path id="DejaVuSans-20" transform="scale(0.015625)"/>
      <path id="DejaVuSans-64" d="M 2906 2969 
L 2906 4863 
L 3481 4863 
L 3481 0 
L 2906 0 
L 2906 525 
Q 2725 213 2448 61 
Q 2172 -91 1784 -91 
Q 1150 -91 751 415 
Q 353 922 353 1747 
Q 353 2572 751 3078 
Q 1150 3584 1784 3584 
Q 2172 3584 2448 3432 
Q 2725 3281 2906 2969 
z
M 947 1747 
Q 947 1113 1208 752 
Q 1469 391 1925 391 
Q 2381 391 2643 752 
Q 2906 1113 2906 1747 
Q 2906 2381 2643 2742 
Q 2381 3103 1925 3103 
Q 1469 3103 1208 2742 
Q 947 2381 947 1747 
z
" transform="scale(0.015625)"/>
      <path id="DejaVuSans-44" d="M 1259 4147 
L 1259 519 
L 2022 519 
Q 2988 519 3436 956 
Q 3884 1394 3884 2338 
Q 3884 3275 3436 3711 
Q 2988 4147 2022 4147 
L 1259 4147 
z
M 628 4666 
L 1925 4666 
Q 3281 4666 3915 4102 
Q 4550 3538 4550 2338 
Q 4550 1131 3912 565 
Q 3275 0 1925 0 
L 628 0 
L 628 4666 
z
" transform="scale(0.015625)"/>
      <path id="DejaVuSans-63" d="M 3122 3366 
L 3122 2828 
Q 2878 2963 2633 3030 
Q 2388 3097 2138 3097 
Q 1578 3097 1268 2742 
Q 959 2388 959 1747 
Q 959 1106 1268 751 
Q 1578 397 2138 397 
Q 2388 397 2633 464 
Q 2878 531 3122 666 
L 3122 134 
Q 2881 22 2623 -34 
Q 2366 -91 2075 -91 
Q 1284 -91 818 406 
Q 353 903 353 1747 
Q 353 2603 823 3093 
Q 1294 3584 2113 3584 
Q 2378 3584 2631 3529 
Q 2884 3475 3122 3366 
z
" transform="scale(0.015625)"/>
      <path id="DejaVuSans-6d" d="M 3328 2828 
Q 3544 3216 3844 3400 
Q 4144 3584 4550 3584 
Q 5097 3584 5394 3201 
Q 5691 2819 5691 2113 
L 5691 0 
L 5113 0 
L 5113 2094 
Q 5113 2597 4934 2840 
Q 4756 3084 4391 3084 
Q 3944 3084 3684 2787 
Q 3425 2491 3425 1978 
L 3425 0 
L 2847 0 
L 2847 2094 
Q 2847 2600 2669 2842 
Q 2491 3084 2119 3084 
Q 1678 3084 1418 2786 
Q 1159 2488 1159 1978 
L 1159 0 
L 581 0 
L 581 3500 
L 1159 3500 
L 1159 2956 
Q 1356 3278 1631 3431 
Q 1906 3584 2284 3584 
Q 2666 3584 2933 3390 
Q 3200 3197 3328 2828 
z
" transform="scale(0.015625)"/>
      <path id="DejaVuSans-75" d="M 544 1381 
L 544 3500 
L 1119 3500 
L 1119 1403 
Q 1119 906 1312 657 
Q 1506 409 1894 409 
Q 2359 409 2629 706 
Q 2900 1003 2900 1516 
L 2900 3500 
L 3475 3500 
L 3475 0 
L 2900 0 
L 2900 538 
Q 2691 219 2414 64 
Q 2138 -91 1772 -91 
Q 1169 -91 856 284 
Q 544 659 544 1381 
z
M 1991 3584 
L 1991 3584 
z
" transform="scale(0.015625)"/>
      <path id="DejaVuSans-67" d="M 2906 1791 
Q 2906 2416 2648 2759 
Q 2391 3103 1925 3103 
Q 1463 3103 1205 2759 
Q 947 2416 947 1791 
Q 947 1169 1205 825 
Q 1463 481 1925 481 
Q 2391 481 2648 825 
Q 2906 1169 2906 1791 
z
M 3481 434 
Q 3481 -459 3084 -895 
Q 2688 -1331 1869 -1331 
Q 1566 -1331 1297 -1286 
Q 1028 -1241 775 -1147 
L 775 -588 
Q 1028 -725 1275 -790 
Q 1522 -856 1778 -856 
Q 2344 -856 2625 -561 
Q 2906 -266 2906 331 
L 2906 616 
Q 2728 306 2450 153 
Q 2172 0 1784 0 
Q 1141 0 747 490 
Q 353 981 353 1791 
Q 353 2603 747 3093 
Q 1141 3584 1784 3584 
Q 2172 3584 2450 3431 
Q 2728 3278 2906 2969 
L 2906 3500 
L 3481 3500 
L 3481 434 
z
" transform="scale(0.015625)"/>
      <path id="DejaVuSans-54" d="M -19 4666 
L 3928 4666 
L 3928 4134 
L 2272 4134 
L 2272 0 
L 1638 0 
L 1638 4134 
L -19 4134 
L -19 4666 
z
" transform="scale(0.015625)"/>
     </defs>
     <use xlink:href="#DejaVuSans-47"/>
     <use xlink:href="#DejaVuSans-65" x="77.490234"/>
     <use xlink:href="#DejaVuSans-6e" x="139.013672"/>
     <use xlink:href="#DejaVuSans-65" x="202.392578"/>
     <use xlink:href="#DejaVuSans-72" x="263.916016"/>
     <use xlink:href="#DejaVuSans-61" x="305.029297"/>
     <use xlink:href="#DejaVuSans-74" x="366.308594"/>
     <use xlink:href="#DejaVuSans-6f" x="405.517578"/>
     <use xlink:href="#DejaVuSans-72" x="466.699219"/>
     <use xlink:href="#DejaVuSans-20" x="507.8125"/>
     <use xlink:href="#DejaVuSans-61" x="539.599609"/>
     <use xlink:href="#DejaVuSans-6e" x="600.878906"/>
     <use xlink:href="#DejaVuSans-64" x="664.257812"/>
     <use xlink:href="#DejaVuSans-20" x="727.734375"/>
     <use xlink:href="#DejaVuSans-44" x="759.521484"/>
     <use xlink:href="#DejaVuSans-69" x="836.523438"/>
     <use xlink:href="#DejaVuSans-73" x="864.306641"/>
     <use xlink:href="#DejaVuSans-63" x="916.40625"/>
     <use xlink:href="#DejaVuSans-72" x="971.386719"/>
     <use xlink:href="#DejaVuSans-69" x="1012.5"/>
     <use xlink:href="#DejaVuSans-6d" x="1040.283203"/>
     <use xlink:href="#DejaVuSans-69" x="1137.695312"/>
     <use xlink:href="#DejaVuSans-6e" x="1165.478516"/>
     <use xlink:href="#DejaVuSans-61" x="1228.857422"/>
     <use xlink:href="#DejaVuSans-74" x="1290.136719"/>
     <use xlink:href="#DejaVuSans-6f" x="1329.345703"/>
     <use xlink:href="#DejaVuSans-72" x="1390.527344"/>
     <use xlink:href="#DejaVuSans-20" x="1431.640625"/>
     <use xlink:href="#DejaVuSans-4c" x="1463.427734"/>
     <use xlink:href="#DejaVuSans-6f" x="1517.390625"/>
     <use xlink:href="#DejaVuSans-73" x="1578.572266"/>
     <use xlink:href="#DejaVuSans-73" x="1630.671875"/>
     <use xlink:href="#DejaVuSans-20" x="1682.771484"/>
     <use xlink:href="#DejaVuSans-44" x="1714.558594"/>
     <use xlink:href="#DejaVuSans-75" x="1791.560547"/>
     <use xlink:href="#DejaVuSans-72" x="1854.939453"/>
     <use xlink:href="#DejaVuSans-69" x="1896.052734"/>
     <use xlink:href="#DejaVuSans-6e" x="1923.835938"/>
     <use xlink:href="#DejaVuSans-67" x="1987.214844"/>
     <use xlink:href="#DejaVuSans-20" x="2050.691406"/>
     <use xlink:href="#DejaVuSans-54" x="2082.478516"/>
     <use xlink:href="#DejaVuSans-72" x="2128.8125"/>
     <use xlink:href="#DejaVuSans-61" x="2169.925781"/>
     <use xlink:href="#DejaVuSans-69" x="2231.205078"/>
     <use xlink:href="#DejaVuSans-6e" x="2258.988281"/>
     <use xlink:href="#DejaVuSans-69" x="2322.367188"/>
     <use xlink:href="#DejaVuSans-6e" x="2350.150391"/>
     <use xlink:href="#DejaVuSans-67" x="2413.529297"/>
    </g>
   </g>
   <g id="legend_1">
    <g id="patch_7">
     <path d="M 556.99375 106.14875 
L 636.490625 106.14875 
Q 640.490625 106.14875 640.490625 102.14875 
L 640.490625 45.43625 
Q 640.490625 41.43625 636.490625 41.43625 
L 556.99375 41.43625 
Q 552.99375 41.43625 552.99375 45.43625 
L 552.99375 102.14875 
Q 552.99375 106.14875 556.99375 106.14875 
z
" style="fill: #ffffff; opacity: 0.8; stroke: #cccccc; stroke-linejoin: miter"/>
    </g>
    <g id="line2d_16">
     <path d="M 560.99375 57.633125 
L 580.99375 57.633125 
L 600.99375 57.633125 
" style="fill: none; stroke: #1f77b4; stroke-width: 1.5; stroke-linecap: square"/>
    </g>
    <g id="text_17">
     <!-- G -->
     <g transform="translate(616.99375 64.633125) scale(0.2 -0.2)">
      <use xlink:href="#DejaVuSans-47"/>
     </g>
    </g>
    <g id="line2d_17">
     <path d="M 560.99375 86.989375 
L 580.99375 86.989375 
L 600.99375 86.989375 
" style="fill: none; stroke: #ff7f0e; stroke-width: 1.5; stroke-linecap: square"/>
    </g>
    <g id="text_18">
     <!-- D -->
     <g transform="translate(616.99375 93.989375) scale(0.2 -0.2)">
      <use xlink:href="#DejaVuSans-44"/>
     </g>
    </g>
   </g>
  </g>
 </g>
 <defs>
  <clipPath id="pf5219ea410">
   <rect x="92.490625" y="31.43625" width="558" height="277.2"/>
  </clipPath>
 </defs>
</svg>
