<?xml version="1.0" encoding="utf-8" standalone="no"?>
<!DOCTYPE svg PUBLIC "-//W3C//DTD SVG 1.1//EN"
  "http://www.w3.org/Graphics/SVG/1.1/DTD/svg11.dtd">
<svg xmlns:xlink="http://www.w3.org/1999/xlink" width="675.923125pt" height="365.54875pt" viewBox="0 0 675.923125 365.54875" xmlns="http://www.w3.org/2000/svg" version="1.1">
 <metadata>
  <rdf:RDF xmlns:dc="http://purl.org/dc/elements/1.1/" xmlns:cc="http://creativecommons.org/ns#" xmlns:rdf="http://www.w3.org/1999/02/22-rdf-syntax-ns#">
   <cc:Work>
    <dc:type rdf:resource="http://purl.org/dc/dcmitype/StillImage"/>
    <dc:date>2024-02-04T01:07:17.098873</dc:date>
    <dc:format>image/svg+xml</dc:format>
    <dc:creator>
     <cc:Agent>
      <dc:title>Matplotlib v3.7.2, https://matplotlib.org/</dc:title>
     </cc:Agent>
    </dc:creator>
   </cc:Work>
  </rdf:RDF>
 </metadata>
 <defs>
  <style type="text/css">*{stroke-linejoin: round; stroke-linecap: butt}</style>
 </defs>
 <g id="figure_1">
  <g id="patch_1">
   <path d="M 0 365.54875 
L 675.923125 365.54875 
L 675.923125 -0 
L 0 -0 
z
" style="fill: #ffffff"/>
  </g>
  <g id="axes_1">
   <g id="patch_2">
    <path d="M 92.490625 308.63625 
L 650.490625 308.63625 
L 650.490625 31.43625 
L 92.490625 31.43625 
z
" style="fill: #ffffff"/>
   </g>
   <g id="matplotlib.axis_1">
    <g id="xtick_1">
     <g id="line2d_1">
      <defs>
       <path id="m62cc608c5b" d="M 0 0 
L 0 3.5 
" style="stroke: #000000; stroke-width: 0.8"/>
      </defs>
      <g>
       <use xlink:href="#m62cc608c5b" x="117.854261" y="308.63625" style="stroke: #000000; stroke-width: 0.8"/>
      </g>
     </g>
     <g id="text_1">
      <!-- 0 -->
      <g transform="translate(111.491761 330.833125) scale(0.2 -0.2)">
       <defs>
        <path id="DejaVuSans-30" d="M 2034 4250 
Q 1547 4250 1301 3770 
Q 1056 3291 1056 2328 
Q 1056 1369 1301 889 
Q 1547 409 2034 409 
Q 2525 409 2770 889 
Q 3016 1369 3016 2328 
Q 3016 3291 2770 3770 
Q 2525 4250 2034 4250 
z
M 2034 4750 
Q 2819 4750 3233 4129 
Q 3647 3509 3647 2328 
Q 3647 1150 3233 529 
Q 2819 -91 2034 -91 
Q 1250 -91 836 529 
Q 422 1150 422 2328 
Q 422 3509 836 4129 
Q 1250 4750 2034 4750 
z
" transform="scale(0.015625)"/>
       </defs>
       <use xlink:href="#DejaVuSans-30"/>
      </g>
     </g>
    </g>
    <g id="xtick_2">
     <g id="line2d_2">
      <g>
       <use xlink:href="#m62cc608c5b" x="183.308807" y="308.63625" style="stroke: #000000; stroke-width: 0.8"/>
      </g>
     </g>
     <g id="text_2">
      <!-- 200 -->
      <g transform="translate(164.221307 330.833125) scale(0.2 -0.2)">
       <defs>
        <path id="DejaVuSans-32" d="M 1228 531 
L 3431 531 
L 3431 0 
L 469 0 
L 469 531 
Q 828 903 1448 1529 
Q 2069 2156 2228 2338 
Q 2531 2678 2651 2914 
Q 2772 3150 2772 3378 
Q 2772 3750 2511 3984 
Q 2250 4219 1831 4219 
Q 1534 4219 1204 4116 
Q 875 4013 500 3803 
L 500 4441 
Q 881 4594 1212 4672 
Q 1544 4750 1819 4750 
Q 2544 4750 2975 4387 
Q 3406 4025 3406 3419 
Q 3406 3131 3298 2873 
Q 3191 2616 2906 2266 
Q 2828 2175 2409 1742 
Q 1991 1309 1228 531 
z
" transform="scale(0.015625)"/>
       </defs>
       <use xlink:href="#DejaVuSans-32"/>
       <use xlink:href="#DejaVuSans-30" x="63.623047"/>
       <use xlink:href="#DejaVuSans-30" x="127.246094"/>
      </g>
     </g>
    </g>
    <g id="xtick_3">
     <g id="line2d_3">
      <g>
       <use xlink:href="#m62cc608c5b" x="248.763352" y="308.63625" style="stroke: #000000; stroke-width: 0.8"/>
      </g>
     </g>
     <g id="text_3">
      <!-- 400 -->
      <g transform="translate(229.675852 330.833125) scale(0.2 -0.2)">
       <defs>
        <path id="DejaVuSans-34" d="M 2419 4116 
L 825 1625 
L 2419 1625 
L 2419 4116 
z
M 2253 4666 
L 3047 4666 
L 3047 1625 
L 3713 1625 
L 3713 1100 
L 3047 1100 
L 3047 0 
L 2419 0 
L 2419 1100 
L 313 1100 
L 313 1709 
L 2253 4666 
z
" transform="scale(0.015625)"/>
       </defs>
       <use xlink:href="#DejaVuSans-34"/>
       <use xlink:href="#DejaVuSans-30" x="63.623047"/>
       <use xlink:href="#DejaVuSans-30" x="127.246094"/>
      </g>
     </g>
    </g>
    <g id="xtick_4">
     <g id="line2d_4">
      <g>
       <use xlink:href="#m62cc608c5b" x="314.217898" y="308.63625" style="stroke: #000000; stroke-width: 0.8"/>
      </g>
     </g>
     <g id="text_4">
      <!-- 600 -->
      <g transform="translate(295.130398 330.833125) scale(0.2 -0.2)">
       <defs>
        <path id="DejaVuSans-36" d="M 2113 2584 
Q 1688 2584 1439 2293 
Q 1191 2003 1191 1497 
Q 1191 994 1439 701 
Q 1688 409 2113 409 
Q 2538 409 2786 701 
Q 3034 994 3034 1497 
Q 3034 2003 2786 2293 
Q 2538 2584 2113 2584 
z
M 3366 4563 
L 3366 3988 
Q 3128 4100 2886 4159 
Q 2644 4219 2406 4219 
Q 1781 4219 1451 3797 
Q 1122 3375 1075 2522 
Q 1259 2794 1537 2939 
Q 1816 3084 2150 3084 
Q 2853 3084 3261 2657 
Q 3669 2231 3669 1497 
Q 3669 778 3244 343 
Q 2819 -91 2113 -91 
Q 1303 -91 875 529 
Q 447 1150 447 2328 
Q 447 3434 972 4092 
Q 1497 4750 2381 4750 
Q 2619 4750 2861 4703 
Q 3103 4656 3366 4563 
z
" transform="scale(0.015625)"/>
       </defs>
       <use xlink:href="#DejaVuSans-36"/>
       <use xlink:href="#DejaVuSans-30" x="63.623047"/>
       <use xlink:href="#DejaVuSans-30" x="127.246094"/>
      </g>
     </g>
    </g>
    <g id="xtick_5">
     <g id="line2d_5">
      <g>
       <use xlink:href="#m62cc608c5b" x="379.672443" y="308.63625" style="stroke: #000000; stroke-width: 0.8"/>
      </g>
     </g>
     <g id="text_5">
      <!-- 800 -->
      <g transform="translate(360.584943 330.833125) scale(0.2 -0.2)">
       <defs>
        <path id="DejaVuSans-38" d="M 2034 2216 
Q 1584 2216 1326 1975 
Q 1069 1734 1069 1313 
Q 1069 891 1326 650 
Q 1584 409 2034 409 
Q 2484 409 2743 651 
Q 3003 894 3003 1313 
Q 3003 1734 2745 1975 
Q 2488 2216 2034 2216 
z
M 1403 2484 
Q 997 2584 770 2862 
Q 544 3141 544 3541 
Q 544 4100 942 4425 
Q 1341 4750 2034 4750 
Q 2731 4750 3128 4425 
Q 3525 4100 3525 3541 
Q 3525 3141 3298 2862 
Q 3072 2584 2669 2484 
Q 3125 2378 3379 2068 
Q 3634 1759 3634 1313 
Q 3634 634 3220 271 
Q 2806 -91 2034 -91 
Q 1263 -91 848 271 
Q 434 634 434 1313 
Q 434 1759 690 2068 
Q 947 2378 1403 2484 
z
M 1172 3481 
Q 1172 3119 1398 2916 
Q 1625 2713 2034 2713 
Q 2441 2713 2670 2916 
Q 2900 3119 2900 3481 
Q 2900 3844 2670 4047 
Q 2441 4250 2034 4250 
Q 1625 4250 1398 4047 
Q 1172 3844 1172 3481 
z
" transform="scale(0.015625)"/>
       </defs>
       <use xlink:href="#DejaVuSans-38"/>
       <use xlink:href="#DejaVuSans-30" x="63.623047"/>
       <use xlink:href="#DejaVuSans-30" x="127.246094"/>
      </g>
     </g>
    </g>
    <g id="xtick_6">
     <g id="line2d_6">
      <g>
       <use xlink:href="#m62cc608c5b" x="445.126989" y="308.63625" style="stroke: #000000; stroke-width: 0.8"/>
      </g>
     </g>
     <g id="text_6">
      <!-- 1000 -->
      <g transform="translate(419.676989 330.833125) scale(0.2 -0.2)">
       <defs>
        <path id="DejaVuSans-31" d="M 794 531 
L 1825 531 
L 1825 4091 
L 703 3866 
L 703 4441 
L 1819 4666 
L 2450 4666 
L 2450 531 
L 3481 531 
L 3481 0 
L 794 0 
L 794 531 
z
" transform="scale(0.015625)"/>
       </defs>
       <use xlink:href="#DejaVuSans-31"/>
       <use xlink:href="#DejaVuSans-30" x="63.623047"/>
       <use xlink:href="#DejaVuSans-30" x="127.246094"/>
       <use xlink:href="#DejaVuSans-30" x="190.869141"/>
      </g>
     </g>
    </g>
    <g id="xtick_7">
     <g id="line2d_7">
      <g>
       <use xlink:href="#m62cc608c5b" x="510.581534" y="308.63625" style="stroke: #000000; stroke-width: 0.8"/>
      </g>
     </g>
     <g id="text_7">
      <!-- 1200 -->
      <g transform="translate(485.131534 330.833125) scale(0.2 -0.2)">
       <use xlink:href="#DejaVuSans-31"/>
       <use xlink:href="#DejaVuSans-32" x="63.623047"/>
       <use xlink:href="#DejaVuSans-30" x="127.246094"/>
       <use xlink:href="#DejaVuSans-30" x="190.869141"/>
      </g>
     </g>
    </g>
    <g id="xtick_8">
     <g id="line2d_8">
      <g>
       <use xlink:href="#m62cc608c5b" x="576.03608" y="308.63625" style="stroke: #000000; stroke-width: 0.8"/>
      </g>
     </g>
     <g id="text_8">
      <!-- 1400 -->
      <g transform="translate(550.58608 330.833125) scale(0.2 -0.2)">
       <use xlink:href="#DejaVuSans-31"/>
       <use xlink:href="#DejaVuSans-34" x="63.623047"/>
       <use xlink:href="#DejaVuSans-30" x="127.246094"/>
       <use xlink:href="#DejaVuSans-30" x="190.869141"/>
      </g>
     </g>
    </g>
    <g id="xtick_9">
     <g id="line2d_9">
      <g>
       <use xlink:href="#m62cc608c5b" x="641.490625" y="308.63625" style="stroke: #000000; stroke-width: 0.8"/>
      </g>
     </g>
     <g id="text_9">
      <!-- 1600 -->
      <g transform="translate(616.040625 330.833125) scale(0.2 -0.2)">
       <use xlink:href="#DejaVuSans-31"/>
       <use xlink:href="#DejaVuSans-36" x="63.623047"/>
       <use xlink:href="#DejaVuSans-30" x="127.246094"/>
       <use xlink:href="#DejaVuSans-30" x="190.869141"/>
      </g>
     </g>
    </g>
    <g id="text_10">
     <!-- iterations -->
     <g transform="translate(324.035938 354.189375) scale(0.2 -0.2)">
      <defs>
       <path id="DejaVuSans-69" d="M 603 3500 
L 1178 3500 
L 1178 0 
L 603 0 
L 603 3500 
z
M 603 4863 
L 1178 4863 
L 1178 4134 
L 603 4134 
L 603 4863 
z
" transform="scale(0.015625)"/>
       <path id="DejaVuSans-74" d="M 1172 4494 
L 1172 3500 
L 2356 3500 
L 2356 3053 
L 1172 3053 
L 1172 1153 
Q 1172 725 1289 603 
Q 1406 481 1766 481 
L 2356 481 
L 2356 0 
L 1766 0 
Q 1100 0 847 248 
Q 594 497 594 1153 
L 594 3053 
L 172 3053 
L 172 3500 
L 594 3500 
L 594 4494 
L 1172 4494 
z
" transform="scale(0.015625)"/>
       <path id="DejaVuSans-65" d="M 3597 1894 
L 3597 1613 
L 953 1613 
Q 991 1019 1311 708 
Q 1631 397 2203 397 
Q 2534 397 2845 478 
Q 3156 559 3463 722 
L 3463 178 
Q 3153 47 2828 -22 
Q 2503 -91 2169 -91 
Q 1331 -91 842 396 
Q 353 884 353 1716 
Q 353 2575 817 3079 
Q 1281 3584 2069 3584 
Q 2775 3584 3186 3129 
Q 3597 2675 3597 1894 
z
M 3022 2063 
Q 3016 2534 2758 2815 
Q 2500 3097 2075 3097 
Q 1594 3097 1305 2825 
Q 1016 2553 972 2059 
L 3022 2063 
z
" transform="scale(0.015625)"/>
       <path id="DejaVuSans-72" d="M 2631 2963 
Q 2534 3019 2420 3045 
Q 2306 3072 2169 3072 
Q 1681 3072 1420 2755 
Q 1159 2438 1159 1844 
L 1159 0 
L 581 0 
L 581 3500 
L 1159 3500 
L 1159 2956 
Q 1341 3275 1631 3429 
Q 1922 3584 2338 3584 
Q 2397 3584 2469 3576 
Q 2541 3569 2628 3553 
L 2631 2963 
z
" transform="scale(0.015625)"/>
       <path id="DejaVuSans-61" d="M 2194 1759 
Q 1497 1759 1228 1600 
Q 959 1441 959 1056 
Q 959 750 1161 570 
Q 1363 391 1709 391 
Q 2188 391 2477 730 
Q 2766 1069 2766 1631 
L 2766 1759 
L 2194 1759 
z
M 3341 1997 
L 3341 0 
L 2766 0 
L 2766 531 
Q 2569 213 2275 61 
Q 1981 -91 1556 -91 
Q 1019 -91 701 211 
Q 384 513 384 1019 
Q 384 1609 779 1909 
Q 1175 2209 1959 2209 
L 2766 2209 
L 2766 2266 
Q 2766 2663 2505 2880 
Q 2244 3097 1772 3097 
Q 1472 3097 1187 3025 
Q 903 2953 641 2809 
L 641 3341 
Q 956 3463 1253 3523 
Q 1550 3584 1831 3584 
Q 2591 3584 2966 3190 
Q 3341 2797 3341 1997 
z
" transform="scale(0.015625)"/>
       <path id="DejaVuSans-6f" d="M 1959 3097 
Q 1497 3097 1228 2736 
Q 959 2375 959 1747 
Q 959 1119 1226 758 
Q 1494 397 1959 397 
Q 2419 397 2687 759 
Q 2956 1122 2956 1747 
Q 2956 2369 2687 2733 
Q 2419 3097 1959 3097 
z
M 1959 3584 
Q 2709 3584 3137 3096 
Q 3566 2609 3566 1747 
Q 3566 888 3137 398 
Q 2709 -91 1959 -91 
Q 1206 -91 779 398 
Q 353 888 353 1747 
Q 353 2609 779 3096 
Q 1206 3584 1959 3584 
z
" transform="scale(0.015625)"/>
       <path id="DejaVuSans-6e" d="M 3513 2113 
L 3513 0 
L 2938 0 
L 2938 2094 
Q 2938 2591 2744 2837 
Q 2550 3084 2163 3084 
Q 1697 3084 1428 2787 
Q 1159 2491 1159 1978 
L 1159 0 
L 581 0 
L 581 3500 
L 1159 3500 
L 1159 2956 
Q 1366 3272 1645 3428 
Q 1925 3584 2291 3584 
Q 2894 3584 3203 3211 
Q 3513 2838 3513 2113 
z
" transform="scale(0.015625)"/>
       <path id="DejaVuSans-73" d="M 2834 3397 
L 2834 2853 
Q 2591 2978 2328 3040 
Q 2066 3103 1784 3103 
Q 1356 3103 1142 2972 
Q 928 2841 928 2578 
Q 928 2378 1081 2264 
Q 1234 2150 1697 2047 
L 1894 2003 
Q 2506 1872 2764 1633 
Q 3022 1394 3022 966 
Q 3022 478 2636 193 
Q 2250 -91 1575 -91 
Q 1294 -91 989 -36 
Q 684 19 347 128 
L 347 722 
Q 666 556 975 473 
Q 1284 391 1588 391 
Q 1994 391 2212 530 
Q 2431 669 2431 922 
Q 2431 1156 2273 1281 
Q 2116 1406 1581 1522 
L 1381 1569 
Q 847 1681 609 1914 
Q 372 2147 372 2553 
Q 372 3047 722 3315 
Q 1072 3584 1716 3584 
Q 2034 3584 2315 3537 
Q 2597 3491 2834 3397 
z
" transform="scale(0.015625)"/>
      </defs>
      <use xlink:href="#DejaVuSans-69"/>
      <use xlink:href="#DejaVuSans-74" x="27.783203"/>
      <use xlink:href="#DejaVuSans-65" x="66.992188"/>
      <use xlink:href="#DejaVuSans-72" x="128.515625"/>
      <use xlink:href="#DejaVuSans-61" x="169.628906"/>
      <use xlink:href="#DejaVuSans-74" x="230.908203"/>
      <use xlink:href="#DejaVuSans-69" x="270.117188"/>
      <use xlink:href="#DejaVuSans-6f" x="297.900391"/>
      <use xlink:href="#DejaVuSans-6e" x="359.082031"/>
      <use xlink:href="#DejaVuSans-73" x="422.460938"/>
     </g>
    </g>
   </g>
   <g id="matplotlib.axis_2">
    <g id="ytick_1">
     <g id="line2d_10">
      <defs>
       <path id="m96d03a2ef2" d="M 0 0 
L -3.5 0 
" style="stroke: #000000; stroke-width: 0.8"/>
      </defs>
      <g>
       <use xlink:href="#m96d03a2ef2" x="92.490625" y="295.148568" style="stroke: #000000; stroke-width: 0.8"/>
      </g>
     </g>
     <g id="text_11">
      <!-- −400 -->
      <g transform="translate(30.55625 302.747005) scale(0.2 -0.2)">
       <defs>
        <path id="DejaVuSans-2212" d="M 678 2272 
L 4684 2272 
L 4684 1741 
L 678 1741 
L 678 2272 
z
" transform="scale(0.015625)"/>
       </defs>
       <use xlink:href="#DejaVuSans-2212"/>
       <use xlink:href="#DejaVuSans-34" x="83.789062"/>
       <use xlink:href="#DejaVuSans-30" x="147.412109"/>
       <use xlink:href="#DejaVuSans-30" x="211.035156"/>
      </g>
     </g>
    </g>
    <g id="ytick_2">
     <g id="line2d_11">
      <g>
       <use xlink:href="#m96d03a2ef2" x="92.490625" y="237.405832" style="stroke: #000000; stroke-width: 0.8"/>
      </g>
     </g>
     <g id="text_12">
      <!-- −200 -->
      <g transform="translate(30.55625 245.00427) scale(0.2 -0.2)">
       <use xlink:href="#DejaVuSans-2212"/>
       <use xlink:href="#DejaVuSans-32" x="83.789062"/>
       <use xlink:href="#DejaVuSans-30" x="147.412109"/>
       <use xlink:href="#DejaVuSans-30" x="211.035156"/>
      </g>
     </g>
    </g>
    <g id="ytick_3">
     <g id="line2d_12">
      <g>
       <use xlink:href="#m96d03a2ef2" x="92.490625" y="179.663097" style="stroke: #000000; stroke-width: 0.8"/>
      </g>
     </g>
     <g id="text_13">
      <!-- 0 -->
      <g transform="translate(72.765625 187.261534) scale(0.2 -0.2)">
       <use xlink:href="#DejaVuSans-30"/>
      </g>
     </g>
    </g>
    <g id="ytick_4">
     <g id="line2d_13">
      <g>
       <use xlink:href="#m96d03a2ef2" x="92.490625" y="121.920361" style="stroke: #000000; stroke-width: 0.8"/>
      </g>
     </g>
     <g id="text_14">
      <!-- 200 -->
      <g transform="translate(47.315625 129.518799) scale(0.2 -0.2)">
       <use xlink:href="#DejaVuSans-32"/>
       <use xlink:href="#DejaVuSans-30" x="63.623047"/>
       <use xlink:href="#DejaVuSans-30" x="127.246094"/>
      </g>
     </g>
    </g>
    <g id="ytick_5">
     <g id="line2d_14">
      <g>
       <use xlink:href="#m96d03a2ef2" x="92.490625" y="64.177625" style="stroke: #000000; stroke-width: 0.8"/>
      </g>
     </g>
     <g id="text_15">
      <!-- 400 -->
      <g transform="translate(47.315625 71.776063) scale(0.2 -0.2)">
       <use xlink:href="#DejaVuSans-34"/>
       <use xlink:href="#DejaVuSans-30" x="63.623047"/>
       <use xlink:href="#DejaVuSans-30" x="127.246094"/>
      </g>
     </g>
    </g>
    <g id="text_16">
     <!-- Loss -->
     <g transform="translate(22.396875 191.970625) rotate(-90) scale(0.2 -0.2)">
      <defs>
       <path id="DejaVuSans-4c" d="M 628 4666 
L 1259 4666 
L 1259 531 
L 3531 531 
L 3531 0 
L 628 0 
L 628 4666 
z
" transform="scale(0.015625)"/>
      </defs>
      <use xlink:href="#DejaVuSans-4c"/>
      <use xlink:href="#DejaVuSans-6f" x="53.962891"/>
      <use xlink:href="#DejaVuSans-73" x="115.144531"/>
      <use xlink:href="#DejaVuSans-73" x="167.244141"/>
     </g>
    </g>
   </g>
   <g id="line2d_15">
    <path d="M 117.854261 139.751496 
L 118.181534 144.722794 
L 118.508807 162.598831 
L 119.163352 44.03625 
L 119.490625 89.448318 
L 119.817898 77.551362 
L 120.472443 106.365093 
L 120.799716 109.725828 
L 121.126989 120.640356 
L 121.454261 119.204262 
L 121.781534 119.595028 
L 122.108807 123.111252 
L 122.43608 128.275629 
L 122.763352 126.631141 
L 123.090625 125.789985 
L 124.072443 111.128382 
L 124.399716 114.143471 
L 125.054261 125.682262 
L 125.381534 126.858032 
L 125.708807 129.516622 
L 126.363352 144.970436 
L 126.690625 142.237891 
L 127.017898 146.018436 
L 127.34517 148.27681 
L 127.672443 152.985986 
L 127.999716 146.939282 
L 128.326989 145.550269 
L 128.654261 146.154845 
L 128.981534 143.578088 
L 129.308807 142.120697 
L 129.63608 138.82778 
L 129.963352 137.32097 
L 130.290625 140.170434 
L 130.617898 149.749148 
L 130.94517 145.161919 
L 131.272443 144.809135 
L 131.599716 141.918695 
L 131.926989 142.056481 
L 132.254261 142.689369 
L 132.908807 144.888742 
L 133.23608 147.579569 
L 133.563352 144.557811 
L 133.890625 146.19867 
L 134.217898 147.266567 
L 134.54517 141.963787 
L 134.872443 146.561523 
L 135.199716 145.704415 
L 135.526989 146.942807 
L 135.854261 146.571102 
L 136.508807 151.018944 
L 136.83608 149.433482 
L 137.163352 151.088431 
L 137.490625 151.882622 
L 137.817898 152.057159 
L 138.14517 155.39376 
L 138.472443 154.443253 
L 138.799716 155.064561 
L 139.126989 157.186868 
L 139.454261 157.456633 
L 139.781534 157.874685 
L 140.108807 161.618246 
L 140.43608 159.61991 
L 140.763352 160.24721 
L 141.090625 159.359568 
L 141.417898 159.626263 
L 141.74517 162.870984 
L 142.072443 162.820485 
L 142.399716 164.349312 
L 142.726989 160.682349 
L 143.054261 164.299326 
L 143.381534 159.838717 
L 143.708807 160.412177 
L 144.03608 159.96084 
L 144.363352 162.549048 
L 144.690625 159.617214 
L 145.017898 162.521514 
L 145.672443 164.689134 
L 145.999716 166.947126 
L 146.326989 167.327422 
L 146.654261 166.729629 
L 146.981534 167.759036 
L 147.308807 165.917583 
L 147.63608 169.659523 
L 147.963352 169.737889 
L 148.290625 170.755676 
L 148.617898 167.899051 
L 148.94517 169.586443 
L 149.599716 170.564861 
L 149.926989 169.882117 
L 150.254261 172.760942 
L 150.581534 170.967299 
L 150.908807 170.438895 
L 151.23608 170.860476 
L 151.563352 172.297656 
L 151.890625 171.898915 
L 152.217898 172.457074 
L 152.54517 171.412696 
L 152.872443 172.181458 
L 153.526989 169.350699 
L 153.854261 171.819749 
L 154.181534 170.702797 
L 154.508807 170.386568 
L 154.83608 171.764484 
L 155.163352 170.363681 
L 155.817898 171.742956 
L 156.14517 173.321088 
L 156.472443 173.543595 
L 156.799716 173.401278 
L 157.126989 172.410984 
L 157.454261 172.754716 
L 157.781534 172.896141 
L 158.108807 172.496494 
L 158.43608 172.807733 
L 158.763352 172.372041 
L 159.090625 171.548362 
L 159.417898 172.908841 
L 160.072443 173.751662 
L 160.399716 173.680925 
L 160.726989 174.136271 
L 161.054261 173.041145 
L 161.381534 174.437231 
L 161.708807 172.369407 
L 162.03608 174.972957 
L 162.363352 174.250099 
L 162.690625 175.539665 
L 163.017898 174.034876 
L 163.34517 173.63476 
L 163.672443 174.998044 
L 164.326989 173.713275 
L 164.654261 173.768643 
L 164.981534 174.192507 
L 165.308807 175.217428 
L 165.63608 174.549207 
L 165.963352 175.102351 
L 166.290625 173.000769 
L 166.617898 173.396092 
L 167.272443 172.24628 
L 167.599716 173.830064 
L 167.926989 172.971341 
L 168.254261 175.344392 
L 168.581534 176.316089 
L 169.23608 174.720648 
L 169.563352 175.750386 
L 169.890625 175.270053 
L 170.217898 175.659534 
L 170.54517 175.802949 
L 170.872443 176.777934 
L 171.199716 176.066467 
L 171.526989 174.60952 
L 171.854261 175.701538 
L 172.181534 177.18643 
L 172.508807 177.146097 
L 173.163352 176.671732 
L 173.817898 178.826261 
L 174.14517 178.840463 
L 174.472443 178.124467 
L 174.799716 178.644971 
L 175.126989 177.639782 
L 175.454261 178.637141 
L 175.781534 178.333677 
L 176.108807 178.623996 
L 176.43608 178.507095 
L 176.763352 178.055754 
L 177.090625 178.154192 
L 177.417898 177.461703 
L 178.072443 178.66269 
L 178.399716 178.675581 
L 178.726989 178.230668 
L 179.054261 178.09883 
L 179.381534 178.652588 
L 179.708807 177.930105 
L 180.690625 179.523749 
L 181.017898 178.940492 
L 181.34517 180.274731 
L 181.672443 179.956917 
L 181.999716 179.352725 
L 182.326989 180.378575 
L 182.654261 179.36548 
L 182.981534 179.641085 
L 183.308807 178.456831 
L 184.290625 179.82643 
L 184.617898 180.00236 
L 184.94517 180.935344 
L 185.272443 180.224525 
L 185.599716 180.851568 
L 185.926989 179.961341 
L 186.254261 180.187773 
L 186.581534 180.141461 
L 186.908807 181.494606 
L 187.23608 179.749474 
L 187.563352 181.661703 
L 187.890625 180.841325 
L 188.217898 181.108068 
L 188.54517 180.436024 
L 189.199716 182.051575 
L 189.526989 181.42228 
L 189.854261 181.417484 
L 190.181534 181.192607 
L 190.508807 181.70878 
L 191.163352 183.370872 
L 191.490625 182.602122 
L 191.817898 181.152498 
L 192.14517 182.618152 
L 192.472443 182.96134 
L 192.799716 182.33576 
L 193.126989 182.827178 
L 193.454261 182.95431 
L 193.781534 182.864038 
L 194.108807 182.510754 
L 194.43608 183.230302 
L 194.763352 182.899408 
L 195.090625 183.054188 
L 195.74517 183.659796 
L 196.399716 182.987873 
L 196.726989 183.77546 
L 197.054261 182.660957 
L 197.381534 183.157786 
L 197.708807 182.728784 
L 198.03608 183.01416 
L 198.363352 183.988878 
L 198.690625 184.529058 
L 199.017898 184.064193 
L 199.34517 184.222385 
L 199.672443 183.845806 
L 200.326989 183.780493 
L 200.981534 183.786981 
L 201.63608 183.979283 
L 201.963352 184.288766 
L 202.290625 184.176505 
L 202.94517 184.239144 
L 203.272443 184.552823 
L 203.926989 184.184467 
L 204.254261 184.679586 
L 204.581534 184.656079 
L 204.908807 184.883799 
L 205.23608 184.518958 
L 205.563352 184.613429 
L 206.217898 184.125656 
L 206.54517 184.52696 
L 206.872443 184.677067 
L 207.199716 184.492818 
L 207.526989 184.456798 
L 207.854261 185.084062 
L 208.181534 184.766681 
L 208.508807 184.134889 
L 208.83608 184.583512 
L 209.163352 184.059195 
L 209.817898 184.953905 
L 210.14517 184.443376 
L 210.472443 183.458362 
L 211.126989 184.344202 
L 211.454261 183.849578 
L 212.108807 184.82729 
L 212.43608 184.469422 
L 212.763352 185.046916 
L 213.090625 184.443785 
L 213.417898 184.476484 
L 213.74517 184.368245 
L 214.072443 183.937993 
L 214.726989 184.013952 
L 215.054261 184.777115 
L 215.381534 184.99747 
L 215.708807 183.772517 
L 216.03608 184.035706 
L 216.363352 184.102105 
L 216.690625 184.288311 
L 217.017898 184.173766 
L 217.34517 184.293227 
L 217.672443 184.00341 
L 217.999716 184.199036 
L 218.654261 184.092655 
L 218.981534 184.455043 
L 219.63608 184.287347 
L 219.963352 184.290951 
L 220.290625 183.727209 
L 220.94517 184.605861 
L 221.599716 184.274913 
L 221.926989 184.874952 
L 222.254261 184.9632 
L 222.581534 185.316616 
L 222.908807 185.323023 
L 223.23608 184.748002 
L 223.563352 184.519384 
L 223.890625 184.862935 
L 224.217898 184.523637 
L 224.872443 184.617477 
L 225.199716 184.415773 
L 225.526989 184.568713 
L 226.181534 183.720718 
L 226.508807 183.962436 
L 226.83608 183.809039 
L 227.163352 184.237151 
L 227.490625 184.03921 
L 227.817898 184.086871 
L 228.14517 184.247767 
L 229.454261 184.360026 
L 229.781534 184.510466 
L 230.108807 184.111391 
L 230.763352 184.1085 
L 231.090625 183.809955 
L 231.417898 184.328808 
L 231.74517 183.780577 
L 232.072443 184.626633 
L 232.399716 183.751032 
L 232.726989 183.766926 
L 233.054261 184.064515 
L 233.708807 184.284459 
L 234.03608 184.067987 
L 234.363352 184.061054 
L 234.690625 183.094892 
L 235.34517 183.743901 
L 235.672443 184.677753 
L 236.326989 183.939998 
L 236.654261 184.251046 
L 236.981534 184.200395 
L 237.308807 183.966637 
L 238.290625 184.067416 
L 238.617898 183.732881 
L 238.94517 184.6301 
L 239.272443 184.169221 
L 239.599716 183.967957 
L 239.926989 184.074859 
L 240.254261 183.424278 
L 240.581534 184.070452 
L 242.54517 183.61208 
L 242.872443 183.740517 
L 243.199716 184.238776 
L 243.526989 183.488428 
L 244.181534 183.851165 
L 244.83608 183.710228 
L 245.163352 183.838051 
L 246.14517 183.82598 
L 246.799716 183.289922 
L 247.126989 183.561546 
L 247.454261 183.463037 
L 247.781534 183.594836 
L 248.108807 183.446234 
L 248.43608 183.573195 
L 248.763352 183.125697 
L 249.090625 183.257786 
L 249.417898 183.147491 
L 249.74517 182.907027 
L 250.072443 183.072826 
L 250.399716 183.771144 
L 250.726989 183.213293 
L 251.054261 182.883006 
L 251.381534 183.23388 
L 251.708807 183.288898 
L 252.03608 183.483698 
L 252.363352 183.068249 
L 253.017898 183.287115 
L 253.34517 183.159291 
L 253.672443 183.559667 
L 253.999716 183.361178 
L 254.326989 183.401738 
L 254.654261 183.750652 
L 254.981534 183.301438 
L 255.308807 183.920194 
L 255.963352 183.373584 
L 256.290625 183.171462 
L 256.617898 183.961579 
L 256.94517 184.187983 
L 257.272443 184.128509 
L 257.599716 183.744035 
L 257.926989 184.037423 
L 258.254261 183.771991 
L 258.581534 184.014808 
L 259.23608 183.771839 
L 259.890625 183.874599 
L 260.217898 184.11918 
L 260.54517 184.044082 
L 260.872443 183.77541 
L 261.199716 183.297732 
L 261.526989 183.237449 
L 261.854261 183.889617 
L 262.508807 183.403603 
L 262.83608 183.638456 
L 263.163352 183.237933 
L 263.490625 183.478615 
L 264.14517 183.355926 
L 264.472443 183.629338 
L 264.799716 183.641067 
L 265.126989 183.380171 
L 265.454261 183.35723 
L 265.781534 183.559473 
L 266.108807 183.546734 
L 266.763352 184.281031 
L 267.417898 184.485685 
L 267.74517 183.961286 
L 268.072443 184.134919 
L 268.399716 183.670988 
L 268.726989 183.955958 
L 269.054261 183.86234 
L 269.381534 183.350208 
L 269.708807 184.152244 
L 270.03608 183.509946 
L 270.363352 183.848731 
L 271.999716 184.314536 
L 272.326989 183.967137 
L 272.981534 184.477344 
L 273.308807 184.298746 
L 273.63608 183.977648 
L 273.963352 184.087434 
L 274.290625 184.402455 
L 274.94517 184.508636 
L 275.272443 183.924588 
L 275.926989 184.370312 
L 276.254261 184.261772 
L 276.581534 184.387189 
L 276.908807 184.22331 
L 277.23608 184.502419 
L 277.563352 184.57622 
L 277.890625 184.528911 
L 278.217898 184.61146 
L 279.199716 184.47329 
L 279.854261 184.449592 
L 280.508807 184.542384 
L 280.83608 184.103415 
L 281.163352 183.93274 
L 281.490625 184.643783 
L 281.817898 184.946179 
L 282.14517 184.625262 
L 282.472443 184.744458 
L 282.799716 184.123365 
L 283.126989 184.379415 
L 283.454261 184.333722 
L 283.781534 183.967268 
L 285.090625 183.902133 
L 285.417898 183.658483 
L 285.74517 184.056607 
L 286.399716 184.025916 
L 286.726989 183.864077 
L 287.054261 184.022285 
L 287.381534 184.414301 
L 287.708807 184.354348 
L 288.03608 184.134181 
L 288.690625 184.180303 
L 289.34517 183.895296 
L 289.672443 184.035501 
L 289.999716 183.811048 
L 290.326989 184.344264 
L 290.654261 183.948619 
L 290.981534 183.94321 
L 291.308807 183.649513 
L 291.63608 183.551772 
L 292.617898 184.018637 
L 292.94517 183.87005 
L 293.272443 183.563759 
L 293.599716 183.636485 
L 293.926989 183.828049 
L 294.254261 184.158674 
L 294.581534 183.668407 
L 294.908807 183.609338 
L 295.23608 183.336489 
L 295.563352 183.443337 
L 296.217898 183.992413 
L 296.54517 183.9525 
L 296.872443 183.591024 
L 297.199716 183.866701 
L 297.526989 183.821246 
L 297.854261 183.532774 
L 298.181534 183.614149 
L 298.83608 183.406414 
L 299.163352 183.598981 
L 299.490625 183.11501 
L 300.472443 183.699908 
L 301.454261 183.256929 
L 301.781534 183.53883 
L 302.108807 183.211051 
L 302.43608 183.496829 
L 302.763352 183.146545 
L 303.090625 183.510771 
L 303.417898 183.53694 
L 303.74517 183.138242 
L 304.072443 182.937259 
L 304.726989 183.56218 
L 305.054261 183.294892 
L 305.708807 183.236702 
L 306.03608 183.185423 
L 306.690625 183.572691 
L 307.34517 183.287384 
L 307.999716 183.374488 
L 308.326989 182.964802 
L 308.654261 183.324472 
L 309.63608 183.179447 
L 310.290625 182.909484 
L 310.617898 183.053275 
L 311.599716 182.703301 
L 311.926989 182.928952 
L 312.254261 182.642331 
L 312.581534 183.217741 
L 312.908807 182.641699 
L 313.23608 182.342965 
L 314.54517 182.654454 
L 315.199716 182.04344 
L 315.854261 182.575247 
L 316.508807 182.170588 
L 316.83608 182.086222 
L 317.163352 182.501844 
L 318.14517 182.10379 
L 318.799716 181.997351 
L 319.126989 181.859451 
L 319.454261 182.134081 
L 319.781534 181.989034 
L 320.763352 182.131205 
L 321.090625 181.99641 
L 321.417898 182.274329 
L 321.74517 182.348797 
L 322.072443 182.062362 
L 322.399716 182.172839 
L 322.726989 181.898594 
L 323.054261 182.152763 
L 323.381534 182.165862 
L 323.708807 182.051092 
L 324.03608 182.185709 
L 324.363352 182.104618 
L 324.690625 182.26453 
L 325.017898 182.081845 
L 325.672443 182.247898 
L 325.999716 181.880172 
L 326.326989 182.457096 
L 327.308807 182.123083 
L 327.63608 182.252178 
L 327.963352 181.974846 
L 328.290625 181.92908 
L 328.94517 182.289681 
L 329.272443 182.285905 
L 329.926989 181.982313 
L 330.254261 182.177789 
L 330.581534 181.717284 
L 330.908807 182.115084 
L 331.23608 181.991587 
L 332.217898 182.021724 
L 332.872443 181.672198 
L 333.199716 182.019801 
L 333.526989 181.900228 
L 333.854261 181.976095 
L 334.181534 181.715399 
L 334.83608 181.798032 
L 335.163352 181.819888 
L 335.490625 182.410156 
L 335.817898 182.356757 
L 336.14517 181.928667 
L 336.799716 182.085625 
L 337.126989 181.855502 
L 338.108807 182.06467 
L 338.43608 182.173658 
L 338.763352 181.477344 
L 339.090625 181.563387 
L 339.74517 181.991482 
L 340.072443 181.61934 
L 340.399716 181.66816 
L 340.726989 181.947722 
L 341.054261 181.55457 
L 341.708807 181.537416 
L 342.03608 181.455061 
L 342.363352 181.694866 
L 343.017898 181.499582 
L 343.34517 181.899471 
L 343.999716 181.673316 
L 344.981534 181.880001 
L 345.308807 181.918744 
L 345.63608 181.617495 
L 345.963352 181.882768 
L 347.599716 181.82529 
L 347.926989 182.057315 
L 348.254261 181.858086 
L 348.581534 182.088927 
L 349.23608 181.821125 
L 349.890625 182.074436 
L 350.217898 181.714748 
L 350.54517 181.911808 
L 351.199716 181.892884 
L 351.854261 181.914714 
L 352.181534 182.182074 
L 352.83608 182.094069 
L 353.163352 181.837987 
L 353.490625 182.179586 
L 353.817898 182.106454 
L 354.14517 181.874803 
L 354.472443 182.114865 
L 354.799716 182.202642 
L 355.454261 181.849286 
L 356.108807 181.730861 
L 356.43608 181.946451 
L 356.763352 181.832808 
L 357.090625 181.873687 
L 357.417898 181.671185 
L 357.74517 182.115224 
L 358.072443 181.895581 
L 358.399716 181.819581 
L 358.726989 181.896013 
L 359.708807 181.633087 
L 360.03608 181.837148 
L 360.690625 181.605606 
L 361.672443 181.807993 
L 361.999716 181.75169 
L 362.326989 182.010497 
L 362.654261 181.767403 
L 362.981534 181.929536 
L 363.308807 181.713882 
L 363.63608 181.910084 
L 363.963352 181.715839 
L 364.290625 181.752078 
L 364.617898 181.65318 
L 364.94517 182.018652 
L 365.272443 181.700738 
L 365.926989 182.011431 
L 366.254261 181.88846 
L 366.581534 182.119584 
L 366.908807 181.820852 
L 367.23608 181.794943 
L 367.563352 181.933428 
L 367.890625 181.904922 
L 368.217898 182.315877 
L 368.54517 182.176393 
L 368.872443 181.857772 
L 369.199716 181.741719 
L 369.526989 181.970247 
L 370.508807 181.764419 
L 370.83608 181.566946 
L 371.163352 181.948751 
L 371.817898 181.941357 
L 372.14517 181.635605 
L 372.472443 181.647958 
L 373.126989 181.984615 
L 373.454261 181.775092 
L 373.781534 181.958755 
L 374.108807 181.860021 
L 374.763352 181.968245 
L 375.417898 181.940155 
L 375.74517 182.079896 
L 376.072443 181.972468 
L 376.399716 181.635019 
L 376.726989 181.556081 
L 377.054261 182.018883 
L 377.708807 181.70419 
L 378.363352 181.908331 
L 378.690625 181.801337 
L 379.017898 182.096227 
L 379.34517 182.214674 
L 379.999716 182.045872 
L 380.326989 181.844999 
L 380.654261 182.168191 
L 381.308807 182.260202 
L 381.63608 182.578369 
L 381.963352 182.133033 
L 382.290625 182.356243 
L 382.617898 182.325819 
L 382.94517 182.539144 
L 383.926989 182.338434 
L 384.581534 182.612346 
L 384.908807 182.326725 
L 385.23608 182.233393 
L 385.563352 182.260451 
L 385.890625 181.823559 
L 386.54517 182.496897 
L 386.872443 182.381429 
L 387.199716 182.386388 
L 387.854261 182.018036 
L 388.508807 182.035199 
L 389.490625 182.719011 
L 389.817898 181.980023 
L 390.14517 182.126992 
L 390.472443 182.079339 
L 390.799716 182.281469 
L 391.126989 182.152763 
L 391.781534 182.425524 
L 392.108807 182.648119 
L 392.43608 182.343108 
L 392.763352 182.472849 
L 393.090625 182.278617 
L 393.417898 182.420449 
L 393.74517 182.187931 
L 394.399716 182.345065 
L 394.726989 182.225108 
L 395.054261 182.342791 
L 395.381534 182.20205 
L 395.708807 182.310865 
L 396.03608 182.262567 
L 396.363352 182.422297 
L 396.690625 182.238311 
L 397.017898 182.227703 
L 397.34517 182.734405 
L 397.672443 182.64305 
L 398.326989 182.269725 
L 398.654261 182.604648 
L 399.63608 182.665619 
L 399.963352 182.409528 
L 400.290625 182.314671 
L 400.617898 182.61643 
L 401.272443 182.756263 
L 401.926989 181.713727 
L 402.581534 182.09574 
L 402.908807 181.860879 
L 403.23608 182.235108 
L 403.563352 182.417097 
L 403.890625 182.094524 
L 404.217898 182.088403 
L 404.54517 180.75613 
L 404.872443 181.36807 
L 405.199716 181.044722 
L 405.526989 181.499861 
L 405.854261 181.216758 
L 406.508807 181.557919 
L 406.83608 182.067005 
L 407.163352 181.154298 
L 407.490625 181.581426 
L 407.817898 181.72072 
L 408.14517 181.993008 
L 408.472443 181.445361 
L 408.799716 181.992719 
L 409.126989 181.221768 
L 409.454261 182.055756 
L 410.108807 181.703545 
L 410.43608 182.17739 
L 410.763352 181.86346 
L 411.090625 181.709557 
L 411.417898 181.286916 
L 411.74517 181.642467 
L 412.399716 181.366215 
L 413.054261 182.14388 
L 413.381534 180.702184 
L 413.708807 181.131757 
L 414.03608 181.293721 
L 414.363352 180.934853 
L 414.690625 181.029025 
L 415.017898 181.84112 
L 415.34517 181.075245 
L 415.672443 181.645691 
L 416.654261 181.209068 
L 416.981534 181.697049 
L 417.308807 181.304358 
L 417.63608 181.800731 
L 417.963352 181.822994 
L 418.290625 181.207423 
L 418.617898 181.309172 
L 418.94517 181.225346 
L 419.272443 181.636205 
L 419.599716 181.361757 
L 419.926989 181.749318 
L 420.254261 181.579193 
L 421.23608 181.553703 
L 421.563352 181.266989 
L 421.890625 181.62811 
L 422.217898 181.508618 
L 422.54517 181.681638 
L 423.199716 181.757448 
L 423.526989 181.843494 
L 423.854261 181.274246 
L 424.181534 181.889342 
L 424.508807 181.378323 
L 424.83608 181.883192 
L 425.490625 181.864901 
L 425.817898 181.842312 
L 426.472443 181.452042 
L 426.799716 181.670057 
L 427.126989 181.718032 
L 427.781534 181.548898 
L 428.108807 180.753878 
L 428.43608 181.241443 
L 428.763352 181.482671 
L 429.417898 181.486929 
L 429.74517 181.536142 
L 430.072443 181.760343 
L 430.399716 181.297336 
L 430.726989 181.610279 
L 431.054261 181.469966 
L 433.017898 181.843426 
L 433.34517 181.458134 
L 433.672443 181.873508 
L 433.999716 182.026648 
L 434.654261 181.671739 
L 434.981534 181.914428 
L 435.308807 181.650586 
L 435.63608 182.178105 
L 436.290625 181.441076 
L 436.617898 181.833657 
L 436.94517 181.172624 
L 437.272443 181.295659 
L 437.599716 181.926367 
L 438.254261 181.327458 
L 438.581534 181.305159 
L 438.908807 181.417141 
L 439.563352 181.903998 
L 439.890625 181.697418 
L 440.217898 181.785847 
L 440.54517 181.507624 
L 440.872443 181.664356 
L 441.199716 182.113188 
L 441.526989 181.599762 
L 441.854261 181.815893 
L 442.181534 181.438996 
L 442.508807 181.888527 
L 442.83608 181.849666 
L 443.817898 181.297826 
L 444.14517 181.897426 
L 444.472443 181.899791 
L 444.799716 181.477058 
L 445.126989 181.658385 
L 446.108807 181.86535 
L 446.763352 181.32762 
L 447.090625 181.460468 
L 447.417898 181.807242 
L 448.399716 182.052626 
L 448.726989 182.018695 
L 449.054261 181.868872 
L 449.381534 182.063088 
L 449.708807 181.921009 
L 450.03608 181.391191 
L 450.363352 181.494604 
L 450.690625 181.401483 
L 451.017898 181.834328 
L 451.672443 181.707132 
L 452.326989 181.743471 
L 452.654261 181.415848 
L 452.981534 181.810782 
L 453.308807 181.884912 
L 453.963352 181.248831 
L 454.617898 181.488627 
L 454.94517 181.52042 
L 455.272443 181.254669 
L 455.599716 181.528004 
L 455.926989 181.443039 
L 456.254261 181.840267 
L 456.581534 181.845332 
L 456.908807 181.490288 
L 457.23608 181.654259 
L 457.563352 181.411453 
L 457.890625 181.533898 
L 458.217898 181.976768 
L 458.54517 181.514771 
L 458.872443 181.592697 
L 459.199716 181.438598 
L 459.526989 181.666391 
L 460.181534 181.912763 
L 460.83608 181.736755 
L 461.163352 181.807545 
L 461.490625 181.690725 
L 461.817898 181.911436 
L 462.14517 181.806047 
L 462.472443 181.938551 
L 462.799716 181.494397 
L 463.126989 181.592661 
L 463.454261 181.022009 
L 464.108807 181.577588 
L 464.43608 181.430094 
L 464.763352 181.692156 
L 465.090625 181.229433 
L 465.417898 181.530109 
L 465.74517 181.510832 
L 466.072443 181.647804 
L 466.399716 181.451512 
L 466.726989 180.858173 
L 467.054261 181.29498 
L 467.381534 181.225573 
L 467.708807 181.498542 
L 468.03608 181.578933 
L 468.363352 181.189674 
L 468.690625 181.42433 
L 469.017898 181.838708 
L 469.34517 181.634412 
L 469.672443 181.901887 
L 470.654261 181.437522 
L 470.981534 181.875266 
L 471.963352 181.273501 
L 472.290625 181.464215 
L 472.617898 181.869559 
L 472.94517 181.514982 
L 473.599716 181.477865 
L 473.926989 181.211469 
L 474.254261 181.090554 
L 474.581534 181.125148 
L 474.908807 181.333768 
L 475.563352 181.180575 
L 475.890625 181.437622 
L 476.217898 181.415829 
L 476.54517 181.034219 
L 476.872443 181.513499 
L 477.199716 181.271683 
L 477.526989 181.677524 
L 478.181534 181.310056 
L 478.83608 181.110963 
L 479.163352 181.032935 
L 479.490625 181.407717 
L 479.817898 181.252521 
L 480.472443 181.229856 
L 480.799716 181.002191 
L 481.126989 181.370231 
L 481.454261 181.176056 
L 481.781534 181.122167 
L 482.763352 181.285982 
L 483.090625 181.32131 
L 483.417898 181.529299 
L 483.74517 181.160873 
L 484.072443 181.306721 
L 484.399716 180.989817 
L 484.726989 181.390401 
L 485.054261 180.95902 
L 485.381534 180.897879 
L 486.363352 181.315517 
L 487.017898 181.166751 
L 487.672443 181.542666 
L 487.999716 181.495931 
L 488.326989 181.634351 
L 488.654261 181.352787 
L 489.308807 181.146566 
L 489.63608 181.565958 
L 489.963352 181.406342 
L 490.290625 181.402117 
L 490.617898 181.216916 
L 490.94517 180.879316 
L 491.272443 181.289625 
L 491.599716 181.456855 
L 491.926989 181.440792 
L 492.254261 181.63946 
L 492.581534 181.209183 
L 492.908807 181.133027 
L 493.563352 181.432904 
L 493.890625 181.23675 
L 494.217898 181.291353 
L 495.526989 181.133215 
L 495.854261 181.197257 
L 496.181534 181.460739 
L 496.508807 181.349707 
L 496.83608 180.776414 
L 497.163352 181.074406 
L 497.490625 181.172411 
L 498.14517 181.089392 
L 498.472443 181.399396 
L 498.799716 181.17251 
L 499.454261 181.313571 
L 499.781534 181.246441 
L 500.108807 181.419497 
L 500.43608 181.332542 
L 500.763352 181.596243 
L 501.090625 181.579064 
L 501.417898 181.222241 
L 502.072443 181.406437 
L 502.399716 181.898546 
L 502.726989 181.861239 
L 503.054261 181.960052 
L 503.708807 181.41851 
L 504.03608 181.605858 
L 504.363352 181.627459 
L 505.017898 180.900183 
L 505.34517 181.557718 
L 505.672443 181.674811 
L 506.654261 181.296289 
L 506.981534 181.366604 
L 507.63608 180.99909 
L 507.963352 181.4416 
L 508.290625 181.395215 
L 508.617898 181.486239 
L 509.599716 180.985482 
L 509.926989 181.480009 
L 510.254261 181.756134 
L 510.581534 181.425716 
L 511.23608 181.771701 
L 511.563352 181.497585 
L 511.890625 181.737434 
L 512.217898 181.715865 
L 512.54517 181.075738 
L 512.872443 181.615182 
L 513.199716 181.687665 
L 513.526989 181.195419 
L 513.854261 180.966697 
L 514.181534 181.318864 
L 514.508807 181.004544 
L 514.83608 181.139349 
L 515.490625 181.549465 
L 515.817898 181.008634 
L 516.799716 181.74093 
L 517.126989 181.57486 
L 517.454261 181.196054 
L 518.108807 181.386718 
L 518.43608 181.194902 
L 519.090625 181.45957 
L 519.74517 181.235023 
L 520.072443 181.254574 
L 520.399716 181.605993 
L 520.726989 181.195828 
L 521.054261 181.692224 
L 521.708807 181.309798 
L 522.363352 181.421142 
L 522.690625 181.698777 
L 523.017898 181.042027 
L 523.999716 181.445471 
L 524.326989 181.31081 
L 524.654261 181.327594 
L 524.981534 181.11666 
L 525.308807 181.162544 
L 525.63608 181.388371 
L 525.963352 180.929671 
L 526.617898 180.956782 
L 526.94517 181.107553 
L 527.272443 180.957793 
L 527.599716 180.969267 
L 527.926989 181.129155 
L 528.254261 181.00983 
L 528.581534 181.196754 
L 528.908807 181.021908 
L 529.23608 181.102313 
L 529.563352 180.948431 
L 529.890625 181.297166 
L 530.217898 181.165441 
L 530.872443 181.379923 
L 531.199716 181.24827 
L 531.526989 181.245206 
L 531.854261 181.014085 
L 532.181534 181.268584 
L 532.83608 181.067971 
L 533.163352 181.133632 
L 533.817898 180.966421 
L 534.14517 181.198961 
L 534.472443 181.276763 
L 534.799716 180.771982 
L 536.108807 181.271907 
L 536.763352 181.630018 
L 537.090625 181.248319 
L 537.417898 181.327156 
L 537.74517 181.039197 
L 538.726989 180.947379 
L 539.054261 181.121538 
L 539.381534 180.708901 
L 540.03608 180.584239 
L 540.363352 180.833558 
L 540.690625 181.293264 
L 541.017898 181.405414 
L 541.34517 180.896941 
L 541.672443 181.035514 
L 542.654261 180.936077 
L 543.308807 181.148888 
L 543.63608 180.999466 
L 544.290625 181.283075 
L 544.94517 181.158665 
L 545.272443 180.980033 
L 545.599716 181.131137 
L 545.926989 181.11259 
L 546.254261 181.258273 
L 546.908807 181.027846 
L 547.23608 181.153425 
L 547.890625 180.970333 
L 548.54517 180.963251 
L 549.199716 181.057717 
L 549.854261 180.92849 
L 550.508807 181.128635 
L 551.163352 180.888857 
L 551.817898 181.018296 
L 552.14517 180.95006 
L 552.472443 181.00235 
L 552.799716 180.809315 
L 553.781534 181.626655 
L 554.108807 181.329525 
L 554.43608 181.442471 
L 554.763352 181.13052 
L 555.090625 181.399724 
L 555.417898 181.126611 
L 555.74517 181.144814 
L 556.399716 180.633508 
L 556.726989 180.790328 
L 557.054261 180.786827 
L 557.381534 180.958344 
L 557.708807 180.626251 
L 558.03608 180.840996 
L 559.017898 180.887006 
L 559.34517 181.184334 
L 559.672443 181.170837 
L 559.999716 181.397779 
L 560.981534 181.4434 
L 561.308807 180.909454 
L 561.63608 180.912085 
L 562.290625 181.288611 
L 563.272443 180.91234 
L 563.599716 181.251044 
L 563.926989 181.219561 
L 564.254261 180.908751 
L 565.563352 181.323486 
L 565.890625 181.04596 
L 566.217898 181.106774 
L 566.54517 180.716366 
L 567.199716 181.689367 
L 567.526989 181.369765 
L 567.854261 181.469591 
L 568.181534 181.425079 
L 568.508807 181.591382 
L 568.83608 181.520574 
L 569.163352 180.96498 
L 569.817898 181.444721 
L 570.14517 181.414505 
L 570.472443 180.965178 
L 570.799716 181.091142 
L 571.126989 180.600008 
L 571.454261 178.195744 
L 571.781534 180.335918 
L 572.108807 181.304346 
L 572.43608 180.632877 
L 572.763352 180.689646 
L 573.417898 181.17833 
L 574.072443 180.614472 
L 574.399716 180.603363 
L 575.054261 181.402396 
L 575.381534 181.299704 
L 576.363352 180.761105 
L 576.690625 181.091421 
L 577.017898 181.197466 
L 577.34517 180.940109 
L 577.999716 181.445612 
L 578.326989 181.064918 
L 578.654261 181.520251 
L 578.981534 181.185867 
L 579.308807 181.034077 
L 579.963352 181.469962 
L 580.617898 181.220537 
L 581.599716 181.170599 
L 581.926989 181.419236 
L 582.254261 181.100528 
L 582.908807 181.259376 
L 583.23608 180.914987 
L 583.563352 181.27989 
L 583.890625 180.601183 
L 584.217898 180.813282 
L 584.54517 180.734188 
L 584.872443 180.885173 
L 585.199716 180.684073 
L 585.526989 181.172577 
L 585.854261 181.44531 
L 586.508807 181.42527 
L 586.83608 181.13163 
L 587.163352 181.163901 
L 587.490625 181.329058 
L 587.817898 181.086477 
L 588.14517 181.348427 
L 588.799716 181.314705 
L 589.126989 180.992435 
L 589.454261 181.072758 
L 589.781534 181.020047 
L 590.108807 181.579128 
L 590.43608 181.223946 
L 591.090625 181.02497 
L 592.072443 181.276464 
L 592.399716 181.100499 
L 592.726989 181.225573 
L 593.054261 180.992601 
L 593.381534 181.258336 
L 593.708807 181.150322 
L 594.690625 181.296014 
L 595.017898 180.854017 
L 595.34517 181.515229 
L 595.672443 180.702824 
L 596.326989 181.390042 
L 596.654261 180.9192 
L 597.308807 181.136893 
L 597.63608 181.155831 
L 597.963352 180.91396 
L 598.290625 181.228419 
L 598.617898 180.874791 
L 598.94517 181.344017 
L 599.272443 181.086922 
L 599.599716 181.359759 
L 599.926989 181.002714 
L 600.581534 180.746402 
L 601.563352 181.19567 
L 602.217898 181.028098 
L 602.54517 181.260594 
L 602.872443 181.124131 
L 603.854261 181.452992 
L 604.181534 180.969291 
L 604.508807 180.891601 
L 604.83608 180.553723 
L 605.163352 180.830379 
L 607.126989 180.921729 
L 607.781534 181.306288 
L 608.108807 181.140257 
L 608.763352 181.049901 
L 609.090625 180.874135 
L 609.417898 181.220252 
L 609.74517 181.147729 
L 610.072443 181.232543 
L 610.399716 181.127042 
L 611.054261 181.235119 
L 611.381534 180.923689 
L 611.708807 181.301152 
L 612.03608 180.851945 
L 613.34517 181.230405 
L 613.672443 180.951801 
L 613.999716 181.17697 
L 614.326989 180.914806 
L 614.654261 181.085157 
L 614.981534 180.804534 
L 615.308807 181.122564 
L 615.963352 180.935161 
L 616.290625 181.134084 
L 616.617898 180.869549 
L 617.272443 180.841789 
L 617.599716 181.07211 
L 617.926989 180.817081 
L 618.254261 180.995654 
L 618.581534 180.972251 
L 618.908807 180.680751 
L 619.23608 181.034491 
L 619.563352 181.045023 
L 619.890625 181.176391 
L 620.217898 181.05166 
L 620.54517 181.10928 
L 620.872443 181.362863 
L 621.526989 181.145791 
L 622.181534 181.455469 
L 622.508807 181.126605 
L 622.83608 181.258855 
L 623.817898 181.084195 
L 624.14517 181.426523 
L 624.472443 181.582109 
L 624.799716 181.415061 
L 625.126989 181.769752 
L 625.126989 181.769752 
" clip-path="url(#p29637bdd4c)" style="fill: none; stroke: #1f77b4; stroke-width: 1.5; stroke-linecap: square"/>
   </g>
   <g id="line2d_16">
    <path d="M 117.854261 296.03625 
L 118.181534 281.604935 
L 118.508807 284.937888 
L 118.83608 246.001987 
L 119.163352 270.950308 
L 119.490625 246.561247 
L 120.14517 226.968639 
L 120.472443 210.778769 
L 120.799716 215.903882 
L 121.126989 216.941819 
L 122.108807 206.772593 
L 122.43608 203.915034 
L 122.763352 202.60435 
L 123.417898 210.825042 
L 123.74517 216.91855 
L 124.072443 216.352314 
L 124.399716 218.493547 
L 124.726989 215.598695 
L 125.381534 221.377916 
L 125.708807 221.237981 
L 126.03608 209.700687 
L 126.363352 203.982905 
L 126.690625 201.936608 
L 127.017898 196.027266 
L 127.34517 195.848203 
L 127.672443 187.438441 
L 127.999716 190.141416 
L 128.654261 188.949437 
L 128.981534 190.792885 
L 129.308807 190.124215 
L 129.63608 190.46342 
L 129.963352 189.313475 
L 130.290625 188.765514 
L 130.617898 185.85427 
L 130.94517 186.505182 
L 131.272443 185.489899 
L 131.599716 185.992536 
L 131.926989 187.428099 
L 132.254261 187.422095 
L 133.23608 184.904326 
L 133.563352 186.32159 
L 133.890625 184.280463 
L 134.217898 185.073553 
L 134.54517 187.132296 
L 135.526989 184.810089 
L 135.854261 185.770033 
L 136.181534 184.676514 
L 136.508807 184.446925 
L 136.83608 184.73742 
L 137.163352 185.756947 
L 137.490625 184.552798 
L 137.817898 184.889511 
L 138.14517 184.004759 
L 138.472443 183.901411 
L 138.799716 184.210607 
L 139.126989 183.773288 
L 139.454261 183.881292 
L 139.781534 184.302752 
L 140.108807 184.383936 
L 140.43608 184.847795 
L 140.763352 183.874218 
L 141.090625 183.985069 
L 141.417898 184.487505 
L 141.74517 182.909122 
L 142.072443 182.846106 
L 142.399716 183.355634 
L 142.726989 184.113366 
L 143.054261 183.175639 
L 143.381534 183.903217 
L 143.708807 183.699209 
L 144.03608 183.061725 
L 144.363352 183.196088 
L 144.690625 185.027866 
L 145.34517 183.024234 
L 145.672443 183.024664 
L 145.999716 182.908792 
L 146.326989 182.921731 
L 146.654261 183.446698 
L 146.981534 183.231953 
L 147.308807 183.782402 
L 147.63608 183.157305 
L 148.290625 183.542492 
L 148.617898 183.446975 
L 148.94517 182.928913 
L 149.272443 183.836236 
L 149.599716 183.736315 
L 149.926989 183.907988 
L 150.254261 183.273056 
L 150.581534 183.490009 
L 150.908807 182.720341 
L 151.23608 182.625096 
L 151.563352 182.920247 
L 151.890625 183.852156 
L 152.217898 182.802564 
L 152.54517 182.738626 
L 152.872443 182.801259 
L 153.526989 183.681555 
L 153.854261 182.885937 
L 154.181534 183.817856 
L 154.508807 183.130461 
L 154.83608 183.143888 
L 155.490625 182.841679 
L 155.817898 183.534285 
L 156.14517 182.956399 
L 156.472443 183.1017 
L 156.799716 183.593199 
L 157.126989 183.231413 
L 157.454261 183.494154 
L 157.781534 182.587269 
L 158.43608 183.233486 
L 158.763352 183.014462 
L 159.090625 183.921541 
L 159.417898 183.145828 
L 159.74517 184.071561 
L 160.072443 183.153563 
L 160.399716 183.120939 
L 160.726989 183.217194 
L 161.054261 182.82653 
L 161.381534 183.195985 
L 161.708807 183.2152 
L 162.03608 182.068551 
L 162.363352 182.517478 
L 162.690625 183.2954 
L 163.017898 183.449769 
L 163.34517 183.395169 
L 163.672443 183.713621 
L 163.999716 182.791018 
L 164.326989 182.950666 
L 164.654261 183.437971 
L 164.981534 183.397177 
L 165.308807 182.63061 
L 165.63608 183.785292 
L 165.963352 182.474261 
L 166.290625 183.387489 
L 166.617898 182.480907 
L 166.94517 183.151485 
L 167.599716 182.730728 
L 167.926989 183.290475 
L 168.254261 182.409606 
L 168.581534 182.700566 
L 168.908807 183.743703 
L 169.23608 182.943793 
L 170.217898 182.818776 
L 170.54517 183.03813 
L 170.872443 182.991935 
L 171.199716 183.939272 
L 171.526989 183.640936 
L 171.854261 182.692036 
L 172.181534 182.555659 
L 172.508807 182.842249 
L 172.83608 182.57223 
L 173.163352 183.123184 
L 173.490625 182.891681 
L 173.817898 183.99973 
L 174.472443 182.255185 
L 174.799716 182.325751 
L 175.454261 182.950932 
L 175.781534 182.766578 
L 176.108807 183.213411 
L 176.43608 182.990066 
L 176.763352 183.10962 
L 177.090625 182.88939 
L 177.417898 183.19995 
L 177.74517 182.548171 
L 178.072443 182.331845 
L 178.399716 182.754582 
L 178.726989 182.386773 
L 179.054261 182.499166 
L 179.381534 183.056651 
L 179.708807 182.807802 
L 180.03608 183.105543 
L 180.363352 182.743468 
L 180.690625 183.52151 
L 181.017898 182.973611 
L 182.654261 183.079528 
L 183.308807 182.606775 
L 183.63608 182.513927 
L 184.290625 182.752587 
L 184.617898 183.008193 
L 184.94517 183.679111 
L 185.599716 182.806429 
L 185.926989 182.954243 
L 187.23608 183.070869 
L 187.563352 183.105361 
L 187.890625 182.863134 
L 188.54517 183.206005 
L 189.199716 182.746778 
L 190.181534 183.573065 
L 190.508807 183.018668 
L 190.83608 183.043531 
L 191.163352 183.317399 
L 191.817898 183.136009 
L 192.14517 183.506695 
L 192.472443 183.383708 
L 192.799716 183.030956 
L 193.454261 183.255503 
L 193.781534 183.74766 
L 194.108807 183.539514 
L 194.43608 184.122744 
L 194.763352 183.116812 
L 195.090625 183.055189 
L 195.74517 183.218949 
L 196.726989 183.497466 
L 197.054261 183.173385 
L 197.381534 183.701313 
L 197.708807 183.1398 
L 198.363352 183.983366 
L 198.690625 183.509783 
L 199.017898 183.31685 
L 199.34517 183.477441 
L 199.672443 182.976603 
L 199.999716 183.427922 
L 200.326989 183.32973 
L 200.654261 182.693731 
L 200.981534 183.190847 
L 201.308807 182.878586 
L 201.63608 183.631742 
L 201.963352 183.532027 
L 202.290625 184.148137 
L 202.617898 183.484397 
L 203.272443 183.193172 
L 203.599716 183.484256 
L 203.926989 183.52136 
L 204.254261 183.165281 
L 204.581534 182.983246 
L 204.908807 183.474534 
L 205.23608 183.229546 
L 205.563352 183.502455 
L 205.890625 183.333029 
L 206.217898 183.590888 
L 206.54517 183.320601 
L 206.872443 183.380472 
L 207.199716 183.071998 
L 207.526989 183.440573 
L 207.854261 183.385062 
L 208.181534 183.523604 
L 208.508807 183.365623 
L 208.83608 183.015156 
L 209.163352 183.250515 
L 209.490625 184.034514 
L 209.817898 183.839587 
L 210.14517 183.988011 
L 210.472443 183.312729 
L 210.799716 183.503067 
L 211.126989 183.375753 
L 211.454261 183.544545 
L 211.781534 183.094009 
L 212.43608 183.721852 
L 212.763352 183.432648 
L 213.090625 183.598003 
L 213.417898 182.852362 
L 213.74517 183.394857 
L 214.399716 183.282232 
L 215.054261 184.269199 
L 215.381534 183.427617 
L 215.708807 183.745692 
L 216.03608 183.455576 
L 216.690625 183.798223 
L 217.017898 183.654011 
L 217.34517 183.747524 
L 217.672443 183.490886 
L 217.999716 183.697737 
L 218.326989 183.543973 
L 218.654261 183.584663 
L 218.981534 183.770174 
L 219.308807 183.322506 
L 219.63608 183.880069 
L 219.963352 183.989708 
L 220.290625 183.367329 
L 220.617898 183.600689 
L 221.272443 183.696709 
L 221.599716 184.280465 
L 221.926989 183.46197 
L 222.581534 183.7913 
L 222.908807 183.806285 
L 223.23608 183.094654 
L 223.890625 183.904287 
L 224.217898 183.294811 
L 224.54517 183.580542 
L 225.526989 183.662428 
L 225.854261 183.316345 
L 226.181534 183.534865 
L 226.508807 183.912978 
L 226.83608 184.048144 
L 227.163352 183.461047 
L 227.817898 183.752332 
L 228.14517 183.61315 
L 228.472443 184.063493 
L 228.799716 183.592658 
L 229.126989 183.870614 
L 229.454261 183.186031 
L 229.781534 183.964145 
L 230.108807 183.160091 
L 230.43608 183.861212 
L 230.763352 183.292585 
L 231.090625 183.516306 
L 231.417898 183.331213 
L 231.74517 183.617877 
L 232.072443 183.525817 
L 232.399716 183.292991 
L 232.726989 183.480584 
L 233.054261 183.852578 
L 233.708807 183.79079 
L 234.03608 183.497384 
L 234.363352 183.815023 
L 234.690625 184.341255 
L 235.017898 183.225012 
L 235.34517 183.734344 
L 235.672443 183.358944 
L 235.999716 183.242344 
L 236.326989 183.601829 
L 236.654261 183.476473 
L 236.981534 183.648195 
L 237.308807 183.675303 
L 237.63608 183.545577 
L 237.963352 183.551833 
L 238.290625 183.68815 
L 238.617898 184.067365 
L 238.94517 184.011006 
L 239.599716 183.518072 
L 239.926989 183.905989 
L 240.254261 183.72298 
L 240.581534 184.051702 
L 240.908807 183.556504 
L 241.563352 183.560879 
L 241.890625 183.850074 
L 242.217898 183.510944 
L 242.54517 183.786796 
L 242.872443 183.574853 
L 243.199716 184.06199 
L 243.526989 183.535886 
L 243.854261 183.619326 
L 244.181534 184.003903 
L 244.83608 184.168796 
L 245.163352 183.648536 
L 245.490625 184.069936 
L 245.817898 183.989729 
L 246.14517 184.104739 
L 246.472443 183.551519 
L 246.799716 184.201567 
L 247.454261 183.335254 
L 247.781534 183.935562 
L 248.108807 183.628661 
L 248.43608 183.608723 
L 248.763352 183.338168 
L 249.090625 183.369248 
L 249.417898 183.728027 
L 249.74517 183.653923 
L 250.072443 183.871679 
L 250.399716 183.500933 
L 250.726989 183.804692 
L 251.054261 183.557266 
L 251.381534 183.536052 
L 251.708807 183.677491 
L 252.03608 183.511561 
L 252.363352 183.818911 
L 252.690625 183.680106 
L 253.017898 183.316719 
L 253.672443 184.030771 
L 253.999716 183.89653 
L 254.326989 183.561905 
L 254.654261 183.963076 
L 254.981534 183.589406 
L 255.308807 183.671066 
L 255.63608 184.032846 
L 255.963352 183.816132 
L 256.290625 183.734416 
L 256.94517 183.984267 
L 257.272443 184.460725 
L 257.926989 183.955757 
L 258.254261 183.371575 
L 258.581534 183.800792 
L 258.908807 183.811522 
L 259.23608 184.438955 
L 259.563352 183.90586 
L 259.890625 183.751405 
L 260.217898 184.136892 
L 260.54517 184.113377 
L 260.872443 184.361561 
L 261.199716 183.893618 
L 261.854261 184.154274 
L 262.181534 183.986099 
L 262.508807 184.031172 
L 262.83608 184.746893 
L 263.163352 183.829595 
L 263.490625 184.525654 
L 264.14517 184.484841 
L 264.472443 183.539757 
L 264.799716 184.396892 
L 265.126989 183.562071 
L 265.454261 184.058096 
L 265.781534 184.027067 
L 266.43608 183.606717 
L 266.763352 184.135914 
L 267.417898 183.971408 
L 267.74517 183.836393 
L 268.072443 184.141271 
L 268.399716 183.986363 
L 268.726989 184.560163 
L 269.054261 184.119487 
L 269.708807 184.380259 
L 270.03608 183.942237 
L 270.363352 184.577942 
L 270.690625 184.126651 
L 271.017898 184.089082 
L 271.34517 184.519843 
L 271.672443 184.160777 
L 271.999716 184.141598 
L 272.326989 183.727954 
L 272.654261 184.247347 
L 272.981534 183.795225 
L 273.308807 183.797496 
L 273.63608 183.976826 
L 273.963352 184.007656 
L 274.290625 184.432068 
L 274.94517 184.492172 
L 275.272443 183.747344 
L 275.599716 183.93629 
L 275.926989 184.274464 
L 276.254261 184.085552 
L 276.581534 183.680952 
L 276.908807 184.109062 
L 277.23608 183.982663 
L 277.563352 184.470374 
L 277.890625 183.848077 
L 278.217898 184.292654 
L 278.54517 184.252351 
L 278.872443 184.65116 
L 279.526989 183.831811 
L 279.854261 184.151975 
L 280.181534 183.759917 
L 280.508807 184.046638 
L 280.83608 183.293369 
L 281.163352 183.455596 
L 282.14517 184.395394 
L 282.472443 184.200659 
L 282.799716 183.62969 
L 283.126989 183.918979 
L 283.454261 183.887444 
L 283.781534 183.680268 
L 284.108807 184.121697 
L 284.763352 183.577968 
L 285.090625 183.406932 
L 285.417898 183.699485 
L 285.74517 183.838053 
L 286.072443 184.174193 
L 286.399716 183.406188 
L 286.726989 183.566256 
L 287.054261 184.112185 
L 287.708807 183.857474 
L 288.363352 183.345625 
L 289.017898 184.10976 
L 289.34517 183.552716 
L 289.672443 183.578276 
L 289.999716 183.451638 
L 290.654261 183.804361 
L 290.981534 183.562106 
L 291.308807 183.65838 
L 291.63608 183.506233 
L 292.94517 183.5843 
L 293.272443 183.401444 
L 293.599716 183.679564 
L 293.926989 183.625895 
L 294.254261 184.167791 
L 294.581534 183.337589 
L 294.908807 183.581917 
L 295.23608 183.259873 
L 295.563352 183.674293 
L 296.217898 183.769385 
L 296.54517 183.061354 
L 297.526989 183.900729 
L 297.854261 183.444012 
L 298.508807 183.288519 
L 298.83608 183.655874 
L 299.163352 183.632594 
L 299.490625 183.295308 
L 299.817898 183.364492 
L 300.14517 183.186586 
L 300.472443 183.503763 
L 301.454261 183.32978 
L 301.781534 183.466503 
L 302.108807 183.454851 
L 302.43608 183.076589 
L 302.763352 183.41821 
L 303.090625 183.524796 
L 303.417898 182.842981 
L 303.74517 183.131057 
L 304.399716 183.245596 
L 304.726989 183.376076 
L 305.054261 183.107833 
L 305.381534 183.460305 
L 305.708807 183.425541 
L 306.03608 183.241457 
L 306.690625 183.619045 
L 307.017898 183.147681 
L 307.34517 183.273929 
L 307.999716 183.159597 
L 308.326989 183.491664 
L 308.654261 183.561443 
L 308.981534 183.185605 
L 309.308807 183.588135 
L 309.63608 183.219707 
L 309.963352 183.087308 
L 310.290625 183.319028 
L 310.617898 183.410961 
L 310.94517 183.24749 
L 311.599716 183.111364 
L 311.926989 183.54411 
L 312.254261 183.164345 
L 312.581534 183.752388 
L 312.908807 182.989223 
L 314.217898 183.309707 
L 314.54517 183.410028 
L 314.872443 183.065202 
L 315.199716 183.062422 
L 315.854261 183.589781 
L 316.181534 183.391143 
L 316.508807 182.950594 
L 317.163352 183.592637 
L 317.817898 183.61025 
L 318.14517 183.113705 
L 318.472443 182.873457 
L 318.799716 183.084194 
L 319.126989 183.452025 
L 319.454261 182.923494 
L 319.781534 183.434375 
L 320.43608 182.997813 
L 320.763352 183.315565 
L 321.090625 183.145289 
L 321.74517 183.57406 
L 322.072443 183.260156 
L 322.726989 183.06024 
L 323.054261 183.147698 
L 323.708807 182.782334 
L 324.03608 183.381895 
L 324.363352 182.975455 
L 324.690625 183.442126 
L 325.017898 183.106796 
L 325.34517 183.474376 
L 325.672443 182.835026 
L 325.999716 183.149862 
L 326.326989 183.087538 
L 326.654261 183.411053 
L 326.981534 183.168374 
L 327.308807 183.180928 
L 327.63608 183.325319 
L 327.963352 182.791654 
L 328.290625 182.55984 
L 328.617898 182.914375 
L 328.94517 182.917697 
L 329.599716 183.183789 
L 330.254261 183.159303 
L 330.908807 183.012312 
L 331.23608 182.604557 
L 331.563352 183.046112 
L 331.890625 183.195119 
L 332.217898 182.889687 
L 332.54517 182.996916 
L 333.199716 183.026144 
L 333.854261 183.267688 
L 334.181534 182.864167 
L 334.508807 182.900338 
L 334.83608 183.192053 
L 335.163352 183.121054 
L 335.490625 183.387414 
L 336.14517 182.854778 
L 336.472443 182.99409 
L 336.799716 182.84007 
L 337.126989 182.958257 
L 337.454261 183.343694 
L 337.781534 182.8654 
L 338.108807 183.227404 
L 338.43608 183.320284 
L 338.763352 182.946414 
L 339.090625 182.853768 
L 339.417898 183.247682 
L 340.399716 183.227195 
L 340.726989 183.543206 
L 341.054261 183.115228 
L 341.381534 183.077924 
L 341.708807 182.86555 
L 342.03608 183.262107 
L 342.363352 183.17484 
L 342.690625 182.869864 
L 343.017898 183.09306 
L 343.34517 183.181223 
L 343.672443 182.948603 
L 344.326989 182.98284 
L 344.654261 183.411502 
L 344.981534 183.456222 
L 345.308807 183.160918 
L 345.63608 183.315215 
L 345.963352 183.187405 
L 346.290625 183.406213 
L 346.617898 182.721065 
L 346.94517 183.299725 
L 347.272443 183.430653 
L 347.926989 183.090215 
L 348.581534 183.392291 
L 348.908807 183.283125 
L 349.23608 182.707293 
L 349.890625 183.587734 
L 350.217898 183.586786 
L 350.54517 183.027914 
L 350.872443 183.120785 
L 351.526989 182.952666 
L 351.854261 183.219916 
L 352.181534 183.340357 
L 353.817898 183.243999 
L 354.14517 183.015496 
L 354.799716 183.388726 
L 355.781534 183.245335 
L 356.108807 183.526566 
L 356.763352 183.38595 
L 357.090625 183.678664 
L 357.417898 183.587264 
L 357.74517 183.229104 
L 358.072443 183.244474 
L 358.726989 183.591564 
L 359.054261 182.83058 
L 359.708807 183.467039 
L 360.690625 183.012192 
L 361.017898 183.285372 
L 361.34517 182.856099 
L 361.999716 183.321429 
L 362.326989 183.278836 
L 362.654261 183.06228 
L 362.981534 183.08701 
L 363.308807 182.810761 
L 363.63608 183.033006 
L 364.290625 183.205329 
L 364.617898 182.746892 
L 364.94517 183.668937 
L 365.272443 183.280835 
L 365.926989 182.987819 
L 366.254261 182.980378 
L 366.581534 182.689718 
L 366.908807 182.881797 
L 367.23608 183.238529 
L 367.563352 182.903573 
L 368.217898 183.278655 
L 368.54517 183.864914 
L 369.199716 182.881302 
L 369.854261 182.496939 
L 370.181534 182.964083 
L 370.508807 182.932074 
L 370.83608 183.328355 
L 371.163352 183.414942 
L 371.817898 183.08329 
L 372.14517 183.502748 
L 372.472443 183.406766 
L 372.799716 182.975909 
L 373.126989 183.033288 
L 373.454261 183.264682 
L 374.43608 183.125527 
L 376.726989 183.210635 
L 377.054261 183.390996 
L 377.381534 183.247714 
L 378.03608 183.139241 
L 378.363352 182.7976 
L 378.690625 183.158489 
L 379.017898 183.300028 
L 379.672443 182.631251 
L 379.999716 182.771337 
L 380.326989 183.118759 
L 380.654261 182.976473 
L 380.981534 183.321974 
L 381.308807 183.497905 
L 382.290625 183.037855 
L 382.617898 183.406321 
L 382.94517 183.506245 
L 383.272443 183.117107 
L 383.599716 183.270517 
L 383.926989 183.069813 
L 384.254261 183.06227 
L 384.581534 183.500583 
L 384.908807 183.213128 
L 386.217898 183.231397 
L 386.54517 183.41181 
L 387.199716 183.051382 
L 387.526989 183.010845 
L 387.854261 183.358565 
L 388.83608 182.973402 
L 389.163352 183.439632 
L 389.490625 183.343979 
L 389.817898 183.451405 
L 390.14517 183.754983 
L 390.472443 183.196067 
L 390.799716 183.369495 
L 391.126989 182.879069 
L 391.454261 182.881103 
L 391.781534 183.323204 
L 392.43608 183.800187 
L 392.763352 183.416379 
L 393.090625 183.388463 
L 393.417898 182.964581 
L 393.74517 183.437921 
L 394.399716 183.108274 
L 395.054261 182.974154 
L 395.381534 182.937994 
L 395.708807 183.247622 
L 396.03608 183.255529 
L 396.363352 183.843212 
L 396.690625 182.950002 
L 397.999716 183.181687 
L 398.654261 183.507414 
L 398.981534 183.212241 
L 399.308807 183.569302 
L 399.63608 183.43711 
L 399.963352 183.118884 
L 400.290625 183.359822 
L 400.617898 183.312847 
L 400.94517 182.979613 
L 401.272443 183.438856 
L 401.599716 182.299609 
L 401.926989 181.762942 
L 402.254261 183.441184 
L 403.23608 182.961926 
L 403.563352 183.454121 
L 403.890625 183.175714 
L 404.217898 183.373462 
L 404.54517 182.405084 
L 404.872443 180.350935 
L 405.199716 180.307807 
L 406.181534 181.647799 
L 406.508807 181.67833 
L 406.83608 182.428926 
L 407.163352 181.779399 
L 407.490625 182.309822 
L 407.817898 181.950503 
L 408.472443 181.811203 
L 408.799716 182.112539 
L 409.126989 182.119962 
L 409.454261 183.012767 
L 410.108807 182.240705 
L 410.43608 182.865056 
L 410.763352 182.625435 
L 411.090625 182.555945 
L 411.417898 182.060638 
L 411.74517 181.790267 
L 412.072443 181.872344 
L 412.399716 182.292266 
L 412.726989 182.355283 
L 413.054261 182.651025 
L 413.381534 181.105141 
L 413.708807 181.664196 
L 414.03608 181.607785 
L 414.363352 181.839257 
L 414.690625 181.778432 
L 415.017898 182.066054 
L 415.34517 182.024339 
L 415.672443 182.132545 
L 416.326989 181.90766 
L 416.654261 182.047168 
L 416.981534 181.99583 
L 417.308807 182.254159 
L 417.63608 181.839294 
L 417.963352 182.432153 
L 418.290625 181.941677 
L 418.617898 182.270582 
L 418.94517 181.797613 
L 419.272443 181.937586 
L 419.599716 181.866494 
L 419.926989 182.105283 
L 420.254261 182.004853 
L 420.581534 181.770463 
L 420.908807 182.209652 
L 421.23608 182.15394 
L 421.563352 182.278743 
L 421.890625 182.0443 
L 422.54517 182.350906 
L 422.872443 181.991202 
L 423.526989 182.179557 
L 423.854261 182.057555 
L 424.181534 182.350878 
L 424.508807 182.414161 
L 424.83608 182.635928 
L 425.490625 182.199205 
L 425.817898 182.378853 
L 426.14517 182.341046 
L 426.472443 182.13528 
L 426.799716 182.076736 
L 427.126989 182.199744 
L 427.454261 182.111265 
L 427.781534 182.264371 
L 428.108807 181.75747 
L 428.43608 181.624852 
L 428.763352 182.026701 
L 429.417898 182.153099 
L 430.072443 182.247594 
L 430.399716 182.569226 
L 430.726989 182.231737 
L 431.054261 182.239436 
L 431.381534 181.855166 
L 431.708807 182.195919 
L 432.03608 182.236617 
L 432.363352 182.157868 
L 432.690625 182.442652 
L 433.017898 182.495546 
L 433.34517 181.732491 
L 433.672443 182.424756 
L 433.999716 182.535168 
L 434.326989 182.355891 
L 434.654261 182.012175 
L 434.981534 182.700203 
L 435.308807 182.243314 
L 435.63608 182.543644 
L 435.963352 182.660535 
L 436.290625 182.208276 
L 436.617898 182.065511 
L 436.94517 182.313926 
L 437.272443 182.199557 
L 437.599716 182.488326 
L 438.254261 181.972093 
L 439.563352 182.320669 
L 439.890625 182.06008 
L 440.217898 182.687156 
L 440.872443 182.594929 
L 441.199716 182.375168 
L 441.526989 182.324818 
L 441.854261 182.508199 
L 442.181534 182.524887 
L 442.508807 182.242166 
L 442.83608 182.504688 
L 443.490625 182.138973 
L 443.817898 181.981903 
L 444.14517 182.243448 
L 445.454261 182.119861 
L 445.781534 182.057143 
L 446.43608 182.286359 
L 446.763352 182.082584 
L 447.090625 182.138121 
L 447.74517 182.505293 
L 448.072443 182.401842 
L 448.399716 182.485467 
L 448.726989 182.34327 
L 449.054261 182.569181 
L 449.381534 182.530533 
L 449.708807 182.149332 
L 450.03608 182.232089 
L 450.363352 182.113911 
L 450.690625 182.324375 
L 451.017898 182.351873 
L 451.34517 182.20829 
L 453.308807 182.632047 
L 453.63608 182.390814 
L 453.963352 182.440597 
L 454.290625 182.656737 
L 454.617898 182.502688 
L 454.94517 182.637357 
L 455.272443 182.095196 
L 455.599716 182.283805 
L 455.926989 182.069755 
L 456.254261 182.536919 
L 456.581534 182.640008 
L 456.908807 182.396871 
L 457.23608 182.545075 
L 457.890625 182.460655 
L 458.54517 182.594223 
L 458.872443 182.883057 
L 459.854261 182.550176 
L 460.83608 182.335158 
L 461.163352 182.094919 
L 461.490625 182.439439 
L 461.817898 182.449754 
L 462.14517 182.333685 
L 462.472443 182.384298 
L 463.454261 181.973572 
L 464.763352 181.909574 
L 465.417898 182.367982 
L 465.74517 182.184092 
L 466.072443 182.209204 
L 467.054261 181.757783 
L 467.381534 182.046813 
L 468.03608 181.895438 
L 468.363352 181.761605 
L 468.690625 182.163757 
L 469.017898 181.922442 
L 469.672443 182.002908 
L 469.999716 182.331292 
L 470.326989 182.230149 
L 470.654261 182.319543 
L 470.981534 182.174219 
L 471.308807 182.220184 
L 471.63608 181.848545 
L 471.963352 182.240633 
L 472.290625 182.003928 
L 472.617898 182.187805 
L 473.926989 182.115941 
L 474.254261 181.728746 
L 474.581534 181.858457 
L 474.908807 182.188899 
L 475.563352 182.174414 
L 476.217898 182.175654 
L 476.872443 182.163007 
L 477.199716 182.230807 
L 477.526989 182.135633 
L 477.854261 182.287623 
L 478.83608 181.866172 
L 479.163352 181.89936 
L 479.490625 182.239634 
L 479.817898 182.186477 
L 480.14517 181.93379 
L 480.472443 182.083731 
L 480.799716 182.068481 
L 481.126989 181.74011 
L 481.454261 181.921651 
L 481.781534 181.807126 
L 482.763352 181.953517 
L 483.090625 181.902134 
L 483.417898 182.037676 
L 484.072443 181.718665 
L 484.399716 181.825252 
L 484.726989 182.142079 
L 485.381534 181.853801 
L 486.03608 182.064664 
L 486.363352 182.087273 
L 486.690625 181.799895 
L 487.017898 182.269505 
L 487.34517 182.295824 
L 487.672443 182.054519 
L 487.999716 182.290106 
L 488.326989 182.149317 
L 488.981534 181.740144 
L 489.308807 181.883053 
L 490.617898 181.970675 
L 490.94517 181.68243 
L 491.272443 182.09441 
L 491.926989 182.167889 
L 492.581534 181.676868 
L 492.908807 181.864798 
L 493.23608 181.921529 
L 493.563352 182.091311 
L 493.890625 181.811555 
L 494.217898 181.72748 
L 494.54517 181.918756 
L 494.872443 181.577909 
L 495.854261 181.884943 
L 496.181534 182.195232 
L 496.508807 182.076375 
L 497.163352 181.688939 
L 498.14517 181.888783 
L 498.472443 181.935298 
L 498.799716 181.553882 
L 499.454261 181.70919 
L 499.781534 181.962171 
L 500.108807 181.805463 
L 500.43608 182.31243 
L 500.763352 181.850127 
L 501.090625 181.743885 
L 501.74517 181.934827 
L 502.072443 181.73376 
L 502.399716 182.240763 
L 502.726989 182.297025 
L 503.054261 181.865324 
L 503.381534 182.298322 
L 504.03608 181.792845 
L 504.363352 182.101816 
L 504.690625 181.807663 
L 505.017898 182.011369 
L 505.34517 181.862656 
L 505.672443 181.545636 
L 505.999716 181.935272 
L 506.654261 182.082325 
L 506.981534 181.987239 
L 507.308807 182.145787 
L 507.63608 181.901138 
L 507.963352 182.199781 
L 508.290625 181.592446 
L 508.617898 181.312293 
L 509.272443 182.069524 
L 509.599716 180.052708 
L 510.254261 181.958992 
L 510.581534 182.280114 
L 510.908807 181.981429 
L 511.563352 181.847476 
L 511.890625 182.080644 
L 512.217898 181.74972 
L 512.872443 181.995071 
L 513.199716 182.29362 
L 513.526989 181.965993 
L 513.854261 182.010501 
L 514.181534 181.834422 
L 514.508807 181.894159 
L 515.163352 181.761904 
L 515.490625 182.043791 
L 516.472443 181.765094 
L 517.126989 182.41181 
L 517.454261 182.096682 
L 517.781534 182.228219 
L 518.108807 182.134654 
L 518.43608 182.183119 
L 518.763352 182.042655 
L 519.090625 182.234615 
L 519.417898 182.149602 
L 519.74517 181.919169 
L 520.399716 182.110859 
L 520.726989 181.927376 
L 521.054261 182.019863 
L 521.708807 181.8605 
L 522.363352 182.15836 
L 522.690625 182.242096 
L 523.34517 182.168419 
L 523.672443 181.920597 
L 523.999716 182.078837 
L 524.326989 181.968266 
L 524.654261 182.125528 
L 524.981534 181.925233 
L 525.308807 181.995146 
L 525.63608 182.256933 
L 526.290625 181.956486 
L 526.617898 182.07418 
L 526.94517 181.57487 
L 527.272443 181.804915 
L 527.599716 181.242766 
L 527.926989 181.793522 
L 528.254261 181.959183 
L 528.908807 181.850256 
L 529.23608 181.794141 
L 529.890625 182.030353 
L 530.217898 182.449644 
L 530.54517 181.999728 
L 530.872443 182.160305 
L 531.854261 181.726165 
L 532.181534 181.878269 
L 532.508807 181.773254 
L 533.163352 182.000091 
L 533.490625 182.002512 
L 534.14517 181.803269 
L 535.126989 181.803712 
L 535.454261 181.659426 
L 535.781534 181.730658 
L 536.763352 182.190769 
L 537.090625 181.833131 
L 537.417898 182.159772 
L 537.74517 181.805979 
L 538.072443 181.738369 
L 538.399716 181.793717 
L 538.726989 182.077099 
L 539.054261 182.205691 
L 539.381534 181.962345 
L 540.03608 181.824625 
L 540.690625 182.167373 
L 541.34517 181.8784 
L 541.672443 181.654484 
L 541.999716 181.949669 
L 542.326989 181.678056 
L 542.654261 181.735695 
L 542.981534 181.913964 
L 543.308807 181.721036 
L 543.63608 181.874075 
L 543.963352 181.806772 
L 544.290625 182.016588 
L 544.617898 181.839141 
L 544.94517 182.074242 
L 545.272443 181.818003 
L 545.599716 181.753855 
L 545.926989 181.830436 
L 546.254261 181.642867 
L 546.908807 181.696632 
L 547.890625 181.812505 
L 548.217898 181.684922 
L 548.872443 181.85471 
L 549.199716 181.634675 
L 549.854261 182.171771 
L 550.181534 181.519403 
L 551.163352 182.009526 
L 551.490625 181.672554 
L 551.817898 181.83577 
L 552.14517 181.833104 
L 552.472443 181.600327 
L 552.799716 182.016647 
L 553.126989 182.024052 
L 553.454261 181.727536 
L 554.108807 181.98245 
L 554.43608 182.084721 
L 554.763352 181.833465 
L 555.090625 182.02428 
L 556.072443 181.616899 
L 556.399716 181.854124 
L 556.726989 181.894306 
L 557.054261 181.700946 
L 557.381534 182.163858 
L 557.708807 181.960477 
L 558.03608 181.603975 
L 559.34517 181.941194 
L 559.672443 181.838706 
L 560.326989 182.088693 
L 560.654261 182.308904 
L 560.981534 182.282092 
L 561.308807 181.980502 
L 561.63608 181.975156 
L 561.963352 181.768173 
L 562.290625 181.694727 
L 562.617898 181.973114 
L 562.94517 181.920721 
L 563.272443 182.122342 
L 564.254261 181.93848 
L 564.581534 181.739666 
L 564.908807 181.9783 
L 565.23608 181.766782 
L 565.563352 181.800565 
L 565.890625 181.975119 
L 566.217898 181.819662 
L 567.199716 182.168837 
L 567.526989 181.932679 
L 567.854261 181.837776 
L 568.181534 182.248496 
L 568.508807 181.818937 
L 568.83608 181.899228 
L 569.163352 181.61977 
L 569.490625 182.075376 
L 570.14517 181.745763 
L 570.472443 182.02806 
L 570.799716 181.729104 
L 571.126989 178.870123 
L 571.454261 170.229221 
L 571.781534 180.666642 
L 572.108807 181.321931 
L 572.43608 181.555562 
L 572.763352 181.493365 
L 573.090625 182.043347 
L 573.417898 181.271262 
L 573.74517 181.467953 
L 574.072443 181.459883 
L 574.726989 181.891243 
L 575.054261 181.748658 
L 575.708807 181.715927 
L 576.03608 181.602932 
L 576.363352 181.855308 
L 577.017898 181.777103 
L 577.34517 181.856539 
L 577.672443 181.664169 
L 577.999716 181.799604 
L 578.326989 181.606036 
L 578.981534 181.976507 
L 579.308807 181.974598 
L 579.63608 181.662989 
L 579.963352 181.846343 
L 580.290625 181.620717 
L 580.617898 181.831968 
L 581.272443 181.697359 
L 581.599716 181.795002 
L 581.926989 182.18322 
L 582.908807 181.52973 
L 583.563352 181.981396 
L 583.890625 182.022673 
L 584.217898 181.891226 
L 585.526989 182.050009 
L 586.181534 181.740706 
L 586.508807 182.095322 
L 586.83608 181.610063 
L 587.490625 181.788659 
L 587.817898 181.683531 
L 588.14517 181.845154 
L 588.472443 181.523445 
L 588.799716 181.523421 
L 589.126989 181.734572 
L 589.781534 181.609469 
L 590.43608 181.797784 
L 590.763352 181.220871 
L 591.417898 181.70697 
L 592.399716 181.897701 
L 593.381534 181.679268 
L 594.03608 181.943345 
L 594.690625 181.801782 
L 595.34517 182.104988 
L 595.672443 181.685994 
L 595.999716 181.849745 
L 596.654261 181.692192 
L 596.981534 181.915774 
L 597.308807 181.756404 
L 597.963352 181.890293 
L 599.599716 181.823925 
L 599.926989 181.625437 
L 600.254261 181.63508 
L 600.581534 181.959367 
L 601.563352 181.880399 
L 601.890625 181.464954 
L 602.217898 182.008576 
L 602.54517 181.659954 
L 602.872443 181.57685 
L 603.199716 181.722709 
L 604.181534 181.553949 
L 604.508807 181.906624 
L 604.83608 181.778482 
L 605.163352 181.95063 
L 605.817898 181.845578 
L 606.14517 182.035475 
L 606.472443 181.994049 
L 607.126989 181.595286 
L 608.108807 181.790146 
L 608.43608 181.568494 
L 608.763352 181.767949 
L 609.417898 181.555577 
L 609.74517 181.71629 
L 610.072443 181.500318 
L 610.726989 181.589613 
L 611.054261 182.324492 
L 611.381534 181.65213 
L 611.708807 181.556863 
L 612.363352 181.687451 
L 612.690625 181.621999 
L 613.017898 181.713766 
L 613.34517 181.530357 
L 613.672443 181.492269 
L 614.326989 181.653447 
L 614.981534 181.444557 
L 615.963352 181.840735 
L 616.290625 181.76703 
L 616.617898 181.903335 
L 616.94517 181.780249 
L 617.272443 181.884581 
L 617.599716 181.753939 
L 617.926989 181.502286 
L 619.23608 181.943653 
L 619.563352 181.72517 
L 619.890625 181.915604 
L 620.872443 181.719722 
L 621.199716 181.45755 
L 621.526989 181.958284 
L 621.854261 181.722957 
L 622.83608 181.732174 
L 623.490625 181.726356 
L 623.817898 181.532331 
L 624.14517 181.871927 
L 624.472443 181.520266 
L 624.799716 181.605969 
L 625.126989 181.846301 
L 625.126989 181.846301 
" clip-path="url(#p29637bdd4c)" style="fill: none; stroke: #ff7f0e; stroke-width: 1.5; stroke-linecap: square"/>
   </g>
   <g id="patch_3">
    <path d="M 92.490625 308.63625 
L 92.490625 31.43625 
" style="fill: none; stroke: #000000; stroke-width: 0.8; stroke-linejoin: miter; stroke-linecap: square"/>
   </g>
   <g id="patch_4">
    <path d="M 650.490625 308.63625 
L 650.490625 31.43625 
" style="fill: none; stroke: #000000; stroke-width: 0.8; stroke-linejoin: miter; stroke-linecap: square"/>
   </g>
   <g id="patch_5">
    <path d="M 92.490625 308.63625 
L 650.490625 308.63625 
" style="fill: none; stroke: #000000; stroke-width: 0.8; stroke-linejoin: miter; stroke-linecap: square"/>
   </g>
   <g id="patch_6">
    <path d="M 92.490625 31.43625 
L 650.490625 31.43625 
" style="fill: none; stroke: #000000; stroke-width: 0.8; stroke-linejoin: miter; stroke-linecap: square"/>
   </g>
   <g id="text_17">
    <!-- Generator and Discriminator Loss During Training -->
    <g transform="translate(74.258125 25.43625) scale(0.24 -0.24)">
     <defs>
      <path id="DejaVuSans-47" d="M 3809 666 
L 3809 1919 
L 2778 1919 
L 2778 2438 
L 4434 2438 
L 4434 434 
Q 4069 175 3628 42 
Q 3188 -91 2688 -91 
Q 1594 -91 976 548 
Q 359 1188 359 2328 
Q 359 3472 976 4111 
Q 1594 4750 2688 4750 
Q 3144 4750 3555 4637 
Q 3966 4525 4313 4306 
L 4313 3634 
Q 3963 3931 3569 4081 
Q 3175 4231 2741 4231 
Q 1884 4231 1454 3753 
Q 1025 3275 1025 2328 
Q 1025 1384 1454 906 
Q 1884 428 2741 428 
Q 3075 428 3337 486 
Q 3600 544 3809 666 
z
" transform="scale(0.015625)"/>
      <path id="DejaVuSans-20" transform="scale(0.015625)"/>
      <path id="DejaVuSans-64" d="M 2906 2969 
L 2906 4863 
L 3481 4863 
L 3481 0 
L 2906 0 
L 2906 525 
Q 2725 213 2448 61 
Q 2172 -91 1784 -91 
Q 1150 -91 751 415 
Q 353 922 353 1747 
Q 353 2572 751 3078 
Q 1150 3584 1784 3584 
Q 2172 3584 2448 3432 
Q 2725 3281 2906 2969 
z
M 947 1747 
Q 947 1113 1208 752 
Q 1469 391 1925 391 
Q 2381 391 2643 752 
Q 2906 1113 2906 1747 
Q 2906 2381 2643 2742 
Q 2381 3103 1925 3103 
Q 1469 3103 1208 2742 
Q 947 2381 947 1747 
z
" transform="scale(0.015625)"/>
      <path id="DejaVuSans-44" d="M 1259 4147 
L 1259 519 
L 2022 519 
Q 2988 519 3436 956 
Q 3884 1394 3884 2338 
Q 3884 3275 3436 3711 
Q 2988 4147 2022 4147 
L 1259 4147 
z
M 628 4666 
L 1925 4666 
Q 3281 4666 3915 4102 
Q 4550 3538 4550 2338 
Q 4550 1131 3912 565 
Q 3275 0 1925 0 
L 628 0 
L 628 4666 
z
" transform="scale(0.015625)"/>
      <path id="DejaVuSans-63" d="M 3122 3366 
L 3122 2828 
Q 2878 2963 2633 3030 
Q 2388 3097 2138 3097 
Q 1578 3097 1268 2742 
Q 959 2388 959 1747 
Q 959 1106 1268 751 
Q 1578 397 2138 397 
Q 2388 397 2633 464 
Q 2878 531 3122 666 
L 3122 134 
Q 2881 22 2623 -34 
Q 2366 -91 2075 -91 
Q 1284 -91 818 406 
Q 353 903 353 1747 
Q 353 2603 823 3093 
Q 1294 3584 2113 3584 
Q 2378 3584 2631 3529 
Q 2884 3475 3122 3366 
z
" transform="scale(0.015625)"/>
      <path id="DejaVuSans-6d" d="M 3328 2828 
Q 3544 3216 3844 3400 
Q 4144 3584 4550 3584 
Q 5097 3584 5394 3201 
Q 5691 2819 5691 2113 
L 5691 0 
L 5113 0 
L 5113 2094 
Q 5113 2597 4934 2840 
Q 4756 3084 4391 3084 
Q 3944 3084 3684 2787 
Q 3425 2491 3425 1978 
L 3425 0 
L 2847 0 
L 2847 2094 
Q 2847 2600 2669 2842 
Q 2491 3084 2119 3084 
Q 1678 3084 1418 2786 
Q 1159 2488 1159 1978 
L 1159 0 
L 581 0 
L 581 3500 
L 1159 3500 
L 1159 2956 
Q 1356 3278 1631 3431 
Q 1906 3584 2284 3584 
Q 2666 3584 2933 3390 
Q 3200 3197 3328 2828 
z
" transform="scale(0.015625)"/>
      <path id="DejaVuSans-75" d="M 544 1381 
L 544 3500 
L 1119 3500 
L 1119 1403 
Q 1119 906 1312 657 
Q 1506 409 1894 409 
Q 2359 409 2629 706 
Q 2900 1003 2900 1516 
L 2900 3500 
L 3475 3500 
L 3475 0 
L 2900 0 
L 2900 538 
Q 2691 219 2414 64 
Q 2138 -91 1772 -91 
Q 1169 -91 856 284 
Q 544 659 544 1381 
z
M 1991 3584 
L 1991 3584 
z
" transform="scale(0.015625)"/>
      <path id="DejaVuSans-67" d="M 2906 1791 
Q 2906 2416 2648 2759 
Q 2391 3103 1925 3103 
Q 1463 3103 1205 2759 
Q 947 2416 947 1791 
Q 947 1169 1205 825 
Q 1463 481 1925 481 
Q 2391 481 2648 825 
Q 2906 1169 2906 1791 
z
M 3481 434 
Q 3481 -459 3084 -895 
Q 2688 -1331 1869 -1331 
Q 1566 -1331 1297 -1286 
Q 1028 -1241 775 -1147 
L 775 -588 
Q 1028 -725 1275 -790 
Q 1522 -856 1778 -856 
Q 2344 -856 2625 -561 
Q 2906 -266 2906 331 
L 2906 616 
Q 2728 306 2450 153 
Q 2172 0 1784 0 
Q 1141 0 747 490 
Q 353 981 353 1791 
Q 353 2603 747 3093 
Q 1141 3584 1784 3584 
Q 2172 3584 2450 3431 
Q 2728 3278 2906 2969 
L 2906 3500 
L 3481 3500 
L 3481 434 
z
" transform="scale(0.015625)"/>
      <path id="DejaVuSans-54" d="M -19 4666 
L 3928 4666 
L 3928 4134 
L 2272 4134 
L 2272 0 
L 1638 0 
L 1638 4134 
L -19 4134 
L -19 4666 
z
" transform="scale(0.015625)"/>
     </defs>
     <use xlink:href="#DejaVuSans-47"/>
     <use xlink:href="#DejaVuSans-65" x="77.490234"/>
     <use xlink:href="#DejaVuSans-6e" x="139.013672"/>
     <use xlink:href="#DejaVuSans-65" x="202.392578"/>
     <use xlink:href="#DejaVuSans-72" x="263.916016"/>
     <use xlink:href="#DejaVuSans-61" x="305.029297"/>
     <use xlink:href="#DejaVuSans-74" x="366.308594"/>
     <use xlink:href="#DejaVuSans-6f" x="405.517578"/>
     <use xlink:href="#DejaVuSans-72" x="466.699219"/>
     <use xlink:href="#DejaVuSans-20" x="507.8125"/>
     <use xlink:href="#DejaVuSans-61" x="539.599609"/>
     <use xlink:href="#DejaVuSans-6e" x="600.878906"/>
     <use xlink:href="#DejaVuSans-64" x="664.257812"/>
     <use xlink:href="#DejaVuSans-20" x="727.734375"/>
     <use xlink:href="#DejaVuSans-44" x="759.521484"/>
     <use xlink:href="#DejaVuSans-69" x="836.523438"/>
     <use xlink:href="#DejaVuSans-73" x="864.306641"/>
     <use xlink:href="#DejaVuSans-63" x="916.40625"/>
     <use xlink:href="#DejaVuSans-72" x="971.386719"/>
     <use xlink:href="#DejaVuSans-69" x="1012.5"/>
     <use xlink:href="#DejaVuSans-6d" x="1040.283203"/>
     <use xlink:href="#DejaVuSans-69" x="1137.695312"/>
     <use xlink:href="#DejaVuSans-6e" x="1165.478516"/>
     <use xlink:href="#DejaVuSans-61" x="1228.857422"/>
     <use xlink:href="#DejaVuSans-74" x="1290.136719"/>
     <use xlink:href="#DejaVuSans-6f" x="1329.345703"/>
     <use xlink:href="#DejaVuSans-72" x="1390.527344"/>
     <use xlink:href="#DejaVuSans-20" x="1431.640625"/>
     <use xlink:href="#DejaVuSans-4c" x="1463.427734"/>
     <use xlink:href="#DejaVuSans-6f" x="1517.390625"/>
     <use xlink:href="#DejaVuSans-73" x="1578.572266"/>
     <use xlink:href="#DejaVuSans-73" x="1630.671875"/>
     <use xlink:href="#DejaVuSans-20" x="1682.771484"/>
     <use xlink:href="#DejaVuSans-44" x="1714.558594"/>
     <use xlink:href="#DejaVuSans-75" x="1791.560547"/>
     <use xlink:href="#DejaVuSans-72" x="1854.939453"/>
     <use xlink:href="#DejaVuSans-69" x="1896.052734"/>
     <use xlink:href="#DejaVuSans-6e" x="1923.835938"/>
     <use xlink:href="#DejaVuSans-67" x="1987.214844"/>
     <use xlink:href="#DejaVuSans-20" x="2050.691406"/>
     <use xlink:href="#DejaVuSans-54" x="2082.478516"/>
     <use xlink:href="#DejaVuSans-72" x="2128.8125"/>
     <use xlink:href="#DejaVuSans-61" x="2169.925781"/>
     <use xlink:href="#DejaVuSans-69" x="2231.205078"/>
     <use xlink:href="#DejaVuSans-6e" x="2258.988281"/>
     <use xlink:href="#DejaVuSans-69" x="2322.367188"/>
     <use xlink:href="#DejaVuSans-6e" x="2350.150391"/>
     <use xlink:href="#DejaVuSans-67" x="2413.529297"/>
    </g>
   </g>
   <g id="legend_1">
    <g id="patch_7">
     <path d="M 556.99375 106.14875 
L 636.490625 106.14875 
Q 640.490625 106.14875 640.490625 102.14875 
L 640.490625 45.43625 
Q 640.490625 41.43625 636.490625 41.43625 
L 556.99375 41.43625 
Q 552.99375 41.43625 552.99375 45.43625 
L 552.99375 102.14875 
Q 552.99375 106.14875 556.99375 106.14875 
z
" style="fill: #ffffff; opacity: 0.8; stroke: #cccccc; stroke-linejoin: miter"/>
    </g>
    <g id="line2d_17">
     <path d="M 560.99375 57.633125 
L 580.99375 57.633125 
L 600.99375 57.633125 
" style="fill: none; stroke: #1f77b4; stroke-width: 1.5; stroke-linecap: square"/>
    </g>
    <g id="text_18">
     <!-- G -->
     <g transform="translate(616.99375 64.633125) scale(0.2 -0.2)">
      <use xlink:href="#DejaVuSans-47"/>
     </g>
    </g>
    <g id="line2d_18">
     <path d="M 560.99375 86.989375 
L 580.99375 86.989375 
L 600.99375 86.989375 
" style="fill: none; stroke: #ff7f0e; stroke-width: 1.5; stroke-linecap: square"/>
    </g>
    <g id="text_19">
     <!-- D -->
     <g transform="translate(616.99375 93.989375) scale(0.2 -0.2)">
      <use xlink:href="#DejaVuSans-44"/>
     </g>
    </g>
   </g>
  </g>
 </g>
 <defs>
  <clipPath id="p29637bdd4c">
   <rect x="92.490625" y="31.43625" width="558" height="277.2"/>
  </clipPath>
 </defs>
</svg>
