<?xml version="1.0" encoding="utf-8" standalone="no"?>
<!DOCTYPE svg PUBLIC "-//W3C//DTD SVG 1.1//EN"
  "http://www.w3.org/Graphics/SVG/1.1/DTD/svg11.dtd">
<svg xmlns:xlink="http://www.w3.org/1999/xlink" width="675.923125pt" height="365.54875pt" viewBox="0 0 675.923125 365.54875" xmlns="http://www.w3.org/2000/svg" version="1.1">
 <metadata>
  <rdf:RDF xmlns:dc="http://purl.org/dc/elements/1.1/" xmlns:cc="http://creativecommons.org/ns#" xmlns:rdf="http://www.w3.org/1999/02/22-rdf-syntax-ns#">
   <cc:Work>
    <dc:type rdf:resource="http://purl.org/dc/dcmitype/StillImage"/>
    <dc:date>2024-02-04T00:35:26.885558</dc:date>
    <dc:format>image/svg+xml</dc:format>
    <dc:creator>
     <cc:Agent>
      <dc:title>Matplotlib v3.7.2, https://matplotlib.org/</dc:title>
     </cc:Agent>
    </dc:creator>
   </cc:Work>
  </rdf:RDF>
 </metadata>
 <defs>
  <style type="text/css">*{stroke-linejoin: round; stroke-linecap: butt}</style>
 </defs>
 <g id="figure_1">
  <g id="patch_1">
   <path d="M 0 365.54875 
L 675.923125 365.54875 
L 675.923125 -0 
L 0 -0 
z
" style="fill: #ffffff"/>
  </g>
  <g id="axes_1">
   <g id="patch_2">
    <path d="M 92.490625 308.63625 
L 650.490625 308.63625 
L 650.490625 31.43625 
L 92.490625 31.43625 
z
" style="fill: #ffffff"/>
   </g>
   <g id="matplotlib.axis_1">
    <g id="xtick_1">
     <g id="line2d_1">
      <defs>
       <path id="m4b634fd605" d="M 0 0 
L 0 3.5 
" style="stroke: #000000; stroke-width: 0.8"/>
      </defs>
      <g>
       <use xlink:href="#m4b634fd605" x="117.854261" y="308.63625" style="stroke: #000000; stroke-width: 0.8"/>
      </g>
     </g>
     <g id="text_1">
      <!-- 0 -->
      <g transform="translate(111.491761 330.833125) scale(0.2 -0.2)">
       <defs>
        <path id="DejaVuSans-30" d="M 2034 4250 
Q 1547 4250 1301 3770 
Q 1056 3291 1056 2328 
Q 1056 1369 1301 889 
Q 1547 409 2034 409 
Q 2525 409 2770 889 
Q 3016 1369 3016 2328 
Q 3016 3291 2770 3770 
Q 2525 4250 2034 4250 
z
M 2034 4750 
Q 2819 4750 3233 4129 
Q 3647 3509 3647 2328 
Q 3647 1150 3233 529 
Q 2819 -91 2034 -91 
Q 1250 -91 836 529 
Q 422 1150 422 2328 
Q 422 3509 836 4129 
Q 1250 4750 2034 4750 
z
" transform="scale(0.015625)"/>
       </defs>
       <use xlink:href="#DejaVuSans-30"/>
      </g>
     </g>
    </g>
    <g id="xtick_2">
     <g id="line2d_2">
      <g>
       <use xlink:href="#m4b634fd605" x="190.321794" y="308.63625" style="stroke: #000000; stroke-width: 0.8"/>
      </g>
     </g>
     <g id="text_2">
      <!-- 50 -->
      <g transform="translate(177.596794 330.833125) scale(0.2 -0.2)">
       <defs>
        <path id="DejaVuSans-35" d="M 691 4666 
L 3169 4666 
L 3169 4134 
L 1269 4134 
L 1269 2991 
Q 1406 3038 1543 3061 
Q 1681 3084 1819 3084 
Q 2600 3084 3056 2656 
Q 3513 2228 3513 1497 
Q 3513 744 3044 326 
Q 2575 -91 1722 -91 
Q 1428 -91 1123 -41 
Q 819 9 494 109 
L 494 744 
Q 775 591 1075 516 
Q 1375 441 1709 441 
Q 2250 441 2565 725 
Q 2881 1009 2881 1497 
Q 2881 1984 2565 2268 
Q 2250 2553 1709 2553 
Q 1456 2553 1204 2497 
Q 953 2441 691 2322 
L 691 4666 
z
" transform="scale(0.015625)"/>
       </defs>
       <use xlink:href="#DejaVuSans-35"/>
       <use xlink:href="#DejaVuSans-30" x="63.623047"/>
      </g>
     </g>
    </g>
    <g id="xtick_3">
     <g id="line2d_3">
      <g>
       <use xlink:href="#m4b634fd605" x="262.789326" y="308.63625" style="stroke: #000000; stroke-width: 0.8"/>
      </g>
     </g>
     <g id="text_3">
      <!-- 100 -->
      <g transform="translate(243.701826 330.833125) scale(0.2 -0.2)">
       <defs>
        <path id="DejaVuSans-31" d="M 794 531 
L 1825 531 
L 1825 4091 
L 703 3866 
L 703 4441 
L 1819 4666 
L 2450 4666 
L 2450 531 
L 3481 531 
L 3481 0 
L 794 0 
L 794 531 
z
" transform="scale(0.015625)"/>
       </defs>
       <use xlink:href="#DejaVuSans-31"/>
       <use xlink:href="#DejaVuSans-30" x="63.623047"/>
       <use xlink:href="#DejaVuSans-30" x="127.246094"/>
      </g>
     </g>
    </g>
    <g id="xtick_4">
     <g id="line2d_4">
      <g>
       <use xlink:href="#m4b634fd605" x="335.256859" y="308.63625" style="stroke: #000000; stroke-width: 0.8"/>
      </g>
     </g>
     <g id="text_4">
      <!-- 150 -->
      <g transform="translate(316.169359 330.833125) scale(0.2 -0.2)">
       <use xlink:href="#DejaVuSans-31"/>
       <use xlink:href="#DejaVuSans-35" x="63.623047"/>
       <use xlink:href="#DejaVuSans-30" x="127.246094"/>
      </g>
     </g>
    </g>
    <g id="xtick_5">
     <g id="line2d_5">
      <g>
       <use xlink:href="#m4b634fd605" x="407.724391" y="308.63625" style="stroke: #000000; stroke-width: 0.8"/>
      </g>
     </g>
     <g id="text_5">
      <!-- 200 -->
      <g transform="translate(388.636891 330.833125) scale(0.2 -0.2)">
       <defs>
        <path id="DejaVuSans-32" d="M 1228 531 
L 3431 531 
L 3431 0 
L 469 0 
L 469 531 
Q 828 903 1448 1529 
Q 2069 2156 2228 2338 
Q 2531 2678 2651 2914 
Q 2772 3150 2772 3378 
Q 2772 3750 2511 3984 
Q 2250 4219 1831 4219 
Q 1534 4219 1204 4116 
Q 875 4013 500 3803 
L 500 4441 
Q 881 4594 1212 4672 
Q 1544 4750 1819 4750 
Q 2544 4750 2975 4387 
Q 3406 4025 3406 3419 
Q 3406 3131 3298 2873 
Q 3191 2616 2906 2266 
Q 2828 2175 2409 1742 
Q 1991 1309 1228 531 
z
" transform="scale(0.015625)"/>
       </defs>
       <use xlink:href="#DejaVuSans-32"/>
       <use xlink:href="#DejaVuSans-30" x="63.623047"/>
       <use xlink:href="#DejaVuSans-30" x="127.246094"/>
      </g>
     </g>
    </g>
    <g id="xtick_6">
     <g id="line2d_6">
      <g>
       <use xlink:href="#m4b634fd605" x="480.191924" y="308.63625" style="stroke: #000000; stroke-width: 0.8"/>
      </g>
     </g>
     <g id="text_6">
      <!-- 250 -->
      <g transform="translate(461.104424 330.833125) scale(0.2 -0.2)">
       <use xlink:href="#DejaVuSans-32"/>
       <use xlink:href="#DejaVuSans-35" x="63.623047"/>
       <use xlink:href="#DejaVuSans-30" x="127.246094"/>
      </g>
     </g>
    </g>
    <g id="xtick_7">
     <g id="line2d_7">
      <g>
       <use xlink:href="#m4b634fd605" x="552.659456" y="308.63625" style="stroke: #000000; stroke-width: 0.8"/>
      </g>
     </g>
     <g id="text_7">
      <!-- 300 -->
      <g transform="translate(533.571956 330.833125) scale(0.2 -0.2)">
       <defs>
        <path id="DejaVuSans-33" d="M 2597 2516 
Q 3050 2419 3304 2112 
Q 3559 1806 3559 1356 
Q 3559 666 3084 287 
Q 2609 -91 1734 -91 
Q 1441 -91 1130 -33 
Q 819 25 488 141 
L 488 750 
Q 750 597 1062 519 
Q 1375 441 1716 441 
Q 2309 441 2620 675 
Q 2931 909 2931 1356 
Q 2931 1769 2642 2001 
Q 2353 2234 1838 2234 
L 1294 2234 
L 1294 2753 
L 1863 2753 
Q 2328 2753 2575 2939 
Q 2822 3125 2822 3475 
Q 2822 3834 2567 4026 
Q 2313 4219 1838 4219 
Q 1578 4219 1281 4162 
Q 984 4106 628 3988 
L 628 4550 
Q 988 4650 1302 4700 
Q 1616 4750 1894 4750 
Q 2613 4750 3031 4423 
Q 3450 4097 3450 3541 
Q 3450 3153 3228 2886 
Q 3006 2619 2597 2516 
z
" transform="scale(0.015625)"/>
       </defs>
       <use xlink:href="#DejaVuSans-33"/>
       <use xlink:href="#DejaVuSans-30" x="63.623047"/>
       <use xlink:href="#DejaVuSans-30" x="127.246094"/>
      </g>
     </g>
    </g>
    <g id="xtick_8">
     <g id="line2d_8">
      <g>
       <use xlink:href="#m4b634fd605" x="625.126989" y="308.63625" style="stroke: #000000; stroke-width: 0.8"/>
      </g>
     </g>
     <g id="text_8">
      <!-- 350 -->
      <g transform="translate(606.039489 330.833125) scale(0.2 -0.2)">
       <use xlink:href="#DejaVuSans-33"/>
       <use xlink:href="#DejaVuSans-35" x="63.623047"/>
       <use xlink:href="#DejaVuSans-30" x="127.246094"/>
      </g>
     </g>
    </g>
    <g id="text_9">
     <!-- iterations -->
     <g transform="translate(324.035938 354.189375) scale(0.2 -0.2)">
      <defs>
       <path id="DejaVuSans-69" d="M 603 3500 
L 1178 3500 
L 1178 0 
L 603 0 
L 603 3500 
z
M 603 4863 
L 1178 4863 
L 1178 4134 
L 603 4134 
L 603 4863 
z
" transform="scale(0.015625)"/>
       <path id="DejaVuSans-74" d="M 1172 4494 
L 1172 3500 
L 2356 3500 
L 2356 3053 
L 1172 3053 
L 1172 1153 
Q 1172 725 1289 603 
Q 1406 481 1766 481 
L 2356 481 
L 2356 0 
L 1766 0 
Q 1100 0 847 248 
Q 594 497 594 1153 
L 594 3053 
L 172 3053 
L 172 3500 
L 594 3500 
L 594 4494 
L 1172 4494 
z
" transform="scale(0.015625)"/>
       <path id="DejaVuSans-65" d="M 3597 1894 
L 3597 1613 
L 953 1613 
Q 991 1019 1311 708 
Q 1631 397 2203 397 
Q 2534 397 2845 478 
Q 3156 559 3463 722 
L 3463 178 
Q 3153 47 2828 -22 
Q 2503 -91 2169 -91 
Q 1331 -91 842 396 
Q 353 884 353 1716 
Q 353 2575 817 3079 
Q 1281 3584 2069 3584 
Q 2775 3584 3186 3129 
Q 3597 2675 3597 1894 
z
M 3022 2063 
Q 3016 2534 2758 2815 
Q 2500 3097 2075 3097 
Q 1594 3097 1305 2825 
Q 1016 2553 972 2059 
L 3022 2063 
z
" transform="scale(0.015625)"/>
       <path id="DejaVuSans-72" d="M 2631 2963 
Q 2534 3019 2420 3045 
Q 2306 3072 2169 3072 
Q 1681 3072 1420 2755 
Q 1159 2438 1159 1844 
L 1159 0 
L 581 0 
L 581 3500 
L 1159 3500 
L 1159 2956 
Q 1341 3275 1631 3429 
Q 1922 3584 2338 3584 
Q 2397 3584 2469 3576 
Q 2541 3569 2628 3553 
L 2631 2963 
z
" transform="scale(0.015625)"/>
       <path id="DejaVuSans-61" d="M 2194 1759 
Q 1497 1759 1228 1600 
Q 959 1441 959 1056 
Q 959 750 1161 570 
Q 1363 391 1709 391 
Q 2188 391 2477 730 
Q 2766 1069 2766 1631 
L 2766 1759 
L 2194 1759 
z
M 3341 1997 
L 3341 0 
L 2766 0 
L 2766 531 
Q 2569 213 2275 61 
Q 1981 -91 1556 -91 
Q 1019 -91 701 211 
Q 384 513 384 1019 
Q 384 1609 779 1909 
Q 1175 2209 1959 2209 
L 2766 2209 
L 2766 2266 
Q 2766 2663 2505 2880 
Q 2244 3097 1772 3097 
Q 1472 3097 1187 3025 
Q 903 2953 641 2809 
L 641 3341 
Q 956 3463 1253 3523 
Q 1550 3584 1831 3584 
Q 2591 3584 2966 3190 
Q 3341 2797 3341 1997 
z
" transform="scale(0.015625)"/>
       <path id="DejaVuSans-6f" d="M 1959 3097 
Q 1497 3097 1228 2736 
Q 959 2375 959 1747 
Q 959 1119 1226 758 
Q 1494 397 1959 397 
Q 2419 397 2687 759 
Q 2956 1122 2956 1747 
Q 2956 2369 2687 2733 
Q 2419 3097 1959 3097 
z
M 1959 3584 
Q 2709 3584 3137 3096 
Q 3566 2609 3566 1747 
Q 3566 888 3137 398 
Q 2709 -91 1959 -91 
Q 1206 -91 779 398 
Q 353 888 353 1747 
Q 353 2609 779 3096 
Q 1206 3584 1959 3584 
z
" transform="scale(0.015625)"/>
       <path id="DejaVuSans-6e" d="M 3513 2113 
L 3513 0 
L 2938 0 
L 2938 2094 
Q 2938 2591 2744 2837 
Q 2550 3084 2163 3084 
Q 1697 3084 1428 2787 
Q 1159 2491 1159 1978 
L 1159 0 
L 581 0 
L 581 3500 
L 1159 3500 
L 1159 2956 
Q 1366 3272 1645 3428 
Q 1925 3584 2291 3584 
Q 2894 3584 3203 3211 
Q 3513 2838 3513 2113 
z
" transform="scale(0.015625)"/>
       <path id="DejaVuSans-73" d="M 2834 3397 
L 2834 2853 
Q 2591 2978 2328 3040 
Q 2066 3103 1784 3103 
Q 1356 3103 1142 2972 
Q 928 2841 928 2578 
Q 928 2378 1081 2264 
Q 1234 2150 1697 2047 
L 1894 2003 
Q 2506 1872 2764 1633 
Q 3022 1394 3022 966 
Q 3022 478 2636 193 
Q 2250 -91 1575 -91 
Q 1294 -91 989 -36 
Q 684 19 347 128 
L 347 722 
Q 666 556 975 473 
Q 1284 391 1588 391 
Q 1994 391 2212 530 
Q 2431 669 2431 922 
Q 2431 1156 2273 1281 
Q 2116 1406 1581 1522 
L 1381 1569 
Q 847 1681 609 1914 
Q 372 2147 372 2553 
Q 372 3047 722 3315 
Q 1072 3584 1716 3584 
Q 2034 3584 2315 3537 
Q 2597 3491 2834 3397 
z
" transform="scale(0.015625)"/>
      </defs>
      <use xlink:href="#DejaVuSans-69"/>
      <use xlink:href="#DejaVuSans-74" x="27.783203"/>
      <use xlink:href="#DejaVuSans-65" x="66.992188"/>
      <use xlink:href="#DejaVuSans-72" x="128.515625"/>
      <use xlink:href="#DejaVuSans-61" x="169.628906"/>
      <use xlink:href="#DejaVuSans-74" x="230.908203"/>
      <use xlink:href="#DejaVuSans-69" x="270.117188"/>
      <use xlink:href="#DejaVuSans-6f" x="297.900391"/>
      <use xlink:href="#DejaVuSans-6e" x="359.082031"/>
      <use xlink:href="#DejaVuSans-73" x="422.460938"/>
     </g>
    </g>
   </g>
   <g id="matplotlib.axis_2">
    <g id="ytick_1">
     <g id="line2d_9">
      <defs>
       <path id="ma229935ff5" d="M 0 0 
L -3.5 0 
" style="stroke: #000000; stroke-width: 0.8"/>
      </defs>
      <g>
       <use xlink:href="#ma229935ff5" x="92.490625" y="295.148568" style="stroke: #000000; stroke-width: 0.8"/>
      </g>
     </g>
     <g id="text_10">
      <!-- −400 -->
      <g transform="translate(30.55625 302.747005) scale(0.2 -0.2)">
       <defs>
        <path id="DejaVuSans-2212" d="M 678 2272 
L 4684 2272 
L 4684 1741 
L 678 1741 
L 678 2272 
z
" transform="scale(0.015625)"/>
        <path id="DejaVuSans-34" d="M 2419 4116 
L 825 1625 
L 2419 1625 
L 2419 4116 
z
M 2253 4666 
L 3047 4666 
L 3047 1625 
L 3713 1625 
L 3713 1100 
L 3047 1100 
L 3047 0 
L 2419 0 
L 2419 1100 
L 313 1100 
L 313 1709 
L 2253 4666 
z
" transform="scale(0.015625)"/>
       </defs>
       <use xlink:href="#DejaVuSans-2212"/>
       <use xlink:href="#DejaVuSans-34" x="83.789062"/>
       <use xlink:href="#DejaVuSans-30" x="147.412109"/>
       <use xlink:href="#DejaVuSans-30" x="211.035156"/>
      </g>
     </g>
    </g>
    <g id="ytick_2">
     <g id="line2d_10">
      <g>
       <use xlink:href="#ma229935ff5" x="92.490625" y="237.405832" style="stroke: #000000; stroke-width: 0.8"/>
      </g>
     </g>
     <g id="text_11">
      <!-- −200 -->
      <g transform="translate(30.55625 245.00427) scale(0.2 -0.2)">
       <use xlink:href="#DejaVuSans-2212"/>
       <use xlink:href="#DejaVuSans-32" x="83.789062"/>
       <use xlink:href="#DejaVuSans-30" x="147.412109"/>
       <use xlink:href="#DejaVuSans-30" x="211.035156"/>
      </g>
     </g>
    </g>
    <g id="ytick_3">
     <g id="line2d_11">
      <g>
       <use xlink:href="#ma229935ff5" x="92.490625" y="179.663097" style="stroke: #000000; stroke-width: 0.8"/>
      </g>
     </g>
     <g id="text_12">
      <!-- 0 -->
      <g transform="translate(72.765625 187.261534) scale(0.2 -0.2)">
       <use xlink:href="#DejaVuSans-30"/>
      </g>
     </g>
    </g>
    <g id="ytick_4">
     <g id="line2d_12">
      <g>
       <use xlink:href="#ma229935ff5" x="92.490625" y="121.920361" style="stroke: #000000; stroke-width: 0.8"/>
      </g>
     </g>
     <g id="text_13">
      <!-- 200 -->
      <g transform="translate(47.315625 129.518799) scale(0.2 -0.2)">
       <use xlink:href="#DejaVuSans-32"/>
       <use xlink:href="#DejaVuSans-30" x="63.623047"/>
       <use xlink:href="#DejaVuSans-30" x="127.246094"/>
      </g>
     </g>
    </g>
    <g id="ytick_5">
     <g id="line2d_13">
      <g>
       <use xlink:href="#ma229935ff5" x="92.490625" y="64.177625" style="stroke: #000000; stroke-width: 0.8"/>
      </g>
     </g>
     <g id="text_14">
      <!-- 400 -->
      <g transform="translate(47.315625 71.776063) scale(0.2 -0.2)">
       <use xlink:href="#DejaVuSans-34"/>
       <use xlink:href="#DejaVuSans-30" x="63.623047"/>
       <use xlink:href="#DejaVuSans-30" x="127.246094"/>
      </g>
     </g>
    </g>
    <g id="text_15">
     <!-- Loss -->
     <g transform="translate(22.396875 191.970625) rotate(-90) scale(0.2 -0.2)">
      <defs>
       <path id="DejaVuSans-4c" d="M 628 4666 
L 1259 4666 
L 1259 531 
L 3531 531 
L 3531 0 
L 628 0 
L 628 4666 
z
" transform="scale(0.015625)"/>
      </defs>
      <use xlink:href="#DejaVuSans-4c"/>
      <use xlink:href="#DejaVuSans-6f" x="53.962891"/>
      <use xlink:href="#DejaVuSans-73" x="115.144531"/>
      <use xlink:href="#DejaVuSans-73" x="167.244141"/>
     </g>
    </g>
   </g>
   <g id="line2d_14">
    <path d="M 117.854261 139.751496 
L 119.303612 144.722794 
L 120.752963 162.598831 
L 122.202313 109.941422 
L 123.651664 44.03625 
L 125.101015 89.448318 
L 126.550365 77.551362 
L 127.999716 92.725377 
L 129.449067 106.365093 
L 130.898417 109.725828 
L 132.347768 120.640356 
L 133.797119 119.204262 
L 135.246469 119.595028 
L 136.69582 123.111252 
L 138.14517 128.275629 
L 139.594521 126.631141 
L 141.043872 125.789985 
L 143.942573 114.95142 
L 145.391924 111.128382 
L 146.841274 114.143471 
L 148.290625 119.564068 
L 149.739976 125.682262 
L 151.189326 126.858032 
L 152.638677 129.516622 
L 154.088028 138.461754 
L 155.537378 144.970436 
L 156.986729 142.237891 
L 158.43608 146.018436 
L 159.88543 148.27681 
L 161.334781 152.985986 
L 162.784131 146.939282 
L 164.233482 145.550269 
L 165.682833 146.154845 
L 167.132183 143.578088 
L 168.581534 142.120697 
L 170.030885 138.82778 
L 171.480235 137.32097 
L 172.929586 140.170434 
L 174.378937 149.749148 
L 175.828287 145.161919 
L 177.277638 144.809135 
L 178.726989 141.918695 
L 180.176339 142.056481 
L 181.62569 142.689369 
L 184.524391 144.888742 
L 185.973742 147.579569 
L 187.423093 144.557811 
L 188.872443 146.19867 
L 190.321794 147.266567 
L 191.771144 141.963787 
L 193.220495 146.561523 
L 194.669846 145.704415 
L 196.119196 146.942807 
L 197.568547 146.571102 
L 199.017898 148.992949 
L 200.467248 151.018944 
L 201.916599 149.433482 
L 203.36595 151.088431 
L 204.8153 151.882622 
L 206.264651 152.057159 
L 207.714002 155.39376 
L 209.163352 154.443253 
L 210.612703 155.064561 
L 212.062054 157.186868 
L 213.511404 157.456633 
L 214.960755 157.874685 
L 216.410106 161.618246 
L 217.859456 159.61991 
L 219.308807 160.24721 
L 220.758157 159.359568 
L 222.207508 159.626263 
L 223.656859 162.870984 
L 225.106209 162.820485 
L 226.55556 164.349312 
L 228.004911 160.682349 
L 229.454261 164.299326 
L 230.903612 159.838717 
L 232.352963 160.412177 
L 233.802313 159.96084 
L 235.251664 162.549048 
L 236.701015 159.617214 
L 238.150365 162.521514 
L 239.599716 163.72117 
L 241.049067 164.689134 
L 242.498417 166.947126 
L 243.947768 167.327422 
L 245.397119 166.729629 
L 246.846469 167.759036 
L 248.29582 165.917583 
L 249.74517 169.659523 
L 251.194521 169.737889 
L 252.643872 170.755676 
L 254.093222 167.899051 
L 255.542573 169.586443 
L 258.441274 170.564861 
L 259.890625 169.882117 
L 261.339976 172.760942 
L 262.789326 170.967299 
L 264.238677 170.438895 
L 265.688028 170.860476 
L 267.137378 172.297656 
L 268.586729 171.898915 
L 270.03608 172.457074 
L 271.48543 171.412696 
L 272.934781 172.181458 
L 274.384131 170.633335 
L 275.833482 169.350699 
L 277.282833 171.819749 
L 278.732183 170.702797 
L 280.181534 170.386568 
L 281.630885 171.764484 
L 283.080235 170.363681 
L 284.529586 170.943923 
L 285.978937 171.742956 
L 287.428287 173.321088 
L 288.877638 173.543595 
L 290.326989 173.401278 
L 291.776339 172.410984 
L 293.22569 172.754716 
L 294.675041 172.896141 
L 296.124391 172.496494 
L 297.573742 172.807733 
L 299.023093 172.372041 
L 300.472443 171.548362 
L 301.921794 172.908841 
L 304.820495 173.751662 
L 306.269846 173.680925 
L 307.719196 174.136271 
L 309.168547 173.041145 
L 310.617898 174.437231 
L 312.067248 172.369407 
L 313.516599 174.972957 
L 314.96595 174.250099 
L 316.4153 175.539665 
L 317.864651 174.034876 
L 319.314002 173.63476 
L 320.763352 174.998044 
L 323.662054 173.713275 
L 325.111404 173.768643 
L 326.560755 174.192507 
L 328.010106 175.217428 
L 329.459456 174.549207 
L 330.908807 175.102351 
L 332.358157 173.000769 
L 333.807508 173.396092 
L 336.706209 172.24628 
L 338.15556 173.830064 
L 339.604911 172.971341 
L 341.054261 175.344392 
L 342.503612 176.316089 
L 343.952963 175.448675 
L 345.402313 174.720648 
L 346.851664 175.750386 
L 348.301015 175.270053 
L 349.750365 175.659534 
L 351.199716 175.802949 
L 352.649067 176.777934 
L 354.098417 176.066467 
L 355.547768 174.60952 
L 356.997119 175.701538 
L 358.446469 177.18643 
L 359.89582 177.146097 
L 362.794521 176.671732 
L 364.243872 177.625823 
L 365.693222 178.826261 
L 367.142573 178.840463 
L 368.591924 178.124467 
L 370.041274 178.644971 
L 371.490625 177.639782 
L 372.939976 178.637141 
L 374.389326 178.333677 
L 375.838677 178.623996 
L 377.288028 178.507095 
L 378.737378 178.055754 
L 380.186729 178.154192 
L 381.63608 177.461703 
L 383.08543 178.141784 
L 384.534781 178.66269 
L 385.984131 178.675581 
L 387.433482 178.230668 
L 388.882833 178.09883 
L 390.332183 178.652588 
L 391.781534 177.930105 
L 396.129586 179.523749 
L 397.578937 178.940492 
L 399.028287 180.274731 
L 400.477638 179.956917 
L 401.926989 179.352725 
L 403.376339 180.378575 
L 404.82569 179.36548 
L 406.275041 179.641085 
L 407.724391 178.456831 
L 410.623093 179.406886 
L 412.072443 179.82643 
L 413.521794 180.00236 
L 414.971144 180.935344 
L 416.420495 180.224525 
L 417.869846 180.851568 
L 419.319196 179.961341 
L 420.768547 180.187773 
L 422.217898 180.141461 
L 423.667248 181.494606 
L 425.116599 179.749474 
L 426.56595 181.661703 
L 428.0153 180.841325 
L 429.464651 181.108068 
L 430.914002 180.436024 
L 432.363352 181.135765 
L 433.812703 182.051575 
L 435.262054 181.42228 
L 436.711404 181.417484 
L 438.160755 181.192607 
L 439.610106 181.70878 
L 442.508807 183.370872 
L 443.958157 182.602122 
L 445.407508 181.152498 
L 446.856859 182.618152 
L 448.306209 182.96134 
L 449.75556 182.33576 
L 451.204911 182.827178 
L 452.654261 182.95431 
L 454.103612 182.864038 
L 455.552963 182.510754 
L 457.002313 183.230302 
L 458.451664 182.899408 
L 459.901015 183.054188 
L 462.799716 183.659796 
L 464.249067 183.253415 
L 465.698417 182.987873 
L 467.147768 183.77546 
L 468.597119 182.660957 
L 470.046469 183.157786 
L 471.49582 182.728784 
L 472.94517 183.01416 
L 474.394521 183.988878 
L 475.843872 184.529058 
L 477.293222 184.064193 
L 478.742573 184.222385 
L 480.191924 183.845806 
L 483.090625 183.780493 
L 485.989326 183.786981 
L 488.888028 183.979283 
L 490.337378 184.288766 
L 491.786729 184.176505 
L 494.68543 184.239144 
L 496.134781 184.552823 
L 499.033482 184.184467 
L 500.482833 184.679586 
L 501.932183 184.656079 
L 503.381534 184.883799 
L 504.830885 184.518958 
L 506.280235 184.613429 
L 509.178937 184.125656 
L 510.628287 184.52696 
L 512.077638 184.677067 
L 513.526989 184.492818 
L 514.976339 184.456798 
L 516.42569 185.084062 
L 517.875041 184.766681 
L 519.324391 184.134889 
L 520.773742 184.583512 
L 522.223093 184.059195 
L 523.672443 184.615016 
L 525.121794 184.953905 
L 526.571144 184.443376 
L 528.020495 183.458362 
L 529.469846 183.980596 
L 530.919196 184.344202 
L 532.368547 183.849578 
L 533.817898 184.253663 
L 535.267248 184.82729 
L 536.716599 184.469422 
L 538.16595 185.046916 
L 539.6153 184.443785 
L 541.064651 184.476484 
L 542.514002 184.368245 
L 543.963352 183.937993 
L 546.862054 184.013952 
L 548.311404 184.777115 
L 549.760755 184.99747 
L 551.210106 183.772517 
L 552.659456 184.035706 
L 554.108807 184.102105 
L 555.558157 184.288311 
L 557.007508 184.173766 
L 558.456859 184.293227 
L 559.906209 184.00341 
L 561.35556 184.199036 
L 564.254261 184.092655 
L 565.703612 184.455043 
L 568.602313 184.287347 
L 570.051664 184.290951 
L 571.501015 183.727209 
L 574.399716 184.605861 
L 577.298417 184.274913 
L 578.747768 184.874952 
L 580.197119 184.9632 
L 581.646469 185.316616 
L 583.09582 185.323023 
L 584.54517 184.748002 
L 585.994521 184.519384 
L 587.443872 184.862935 
L 588.893222 184.523637 
L 591.791924 184.617477 
L 593.241274 184.415773 
L 594.690625 184.568713 
L 596.139976 184.074704 
L 597.589326 183.720718 
L 599.038677 183.962436 
L 600.488028 183.809039 
L 601.937378 184.237151 
L 603.386729 184.03921 
L 604.83608 184.086871 
L 606.28543 184.247767 
L 612.082833 184.360026 
L 613.532183 184.510466 
L 614.981534 184.111391 
L 617.880235 184.1085 
L 619.329586 183.809955 
L 620.778937 184.328808 
L 622.228287 183.780577 
L 623.677638 184.626633 
L 625.126989 183.751032 
L 625.126989 183.751032 
" clip-path="url(#pc349049d55)" style="fill: none; stroke: #1f77b4; stroke-width: 1.5; stroke-linecap: square"/>
   </g>
   <g id="line2d_15">
    <path d="M 117.854261 296.03625 
L 119.303612 281.604935 
L 120.752963 284.937888 
L 122.202313 246.001987 
L 123.651664 270.950308 
L 125.101015 246.561247 
L 126.550365 236.099499 
L 127.999716 226.968639 
L 129.449067 210.778769 
L 130.898417 215.903882 
L 132.347768 216.941819 
L 133.797119 213.350333 
L 135.246469 209.154784 
L 136.69582 206.772593 
L 138.14517 203.915034 
L 139.594521 202.60435 
L 141.043872 206.177986 
L 142.493222 210.825042 
L 143.942573 216.91855 
L 145.391924 216.352314 
L 146.841274 218.493547 
L 148.290625 215.598695 
L 149.739976 218.69377 
L 151.189326 221.377916 
L 152.638677 221.237981 
L 154.088028 209.700687 
L 155.537378 203.982905 
L 156.986729 201.936608 
L 158.43608 196.027266 
L 159.88543 195.848203 
L 161.334781 187.438441 
L 162.784131 190.141416 
L 164.233482 189.42714 
L 165.682833 188.949437 
L 167.132183 190.792885 
L 168.581534 190.124215 
L 170.030885 190.46342 
L 171.480235 189.313475 
L 172.929586 188.765514 
L 174.378937 185.85427 
L 175.828287 186.505182 
L 177.277638 185.489899 
L 178.726989 185.992536 
L 180.176339 187.428099 
L 181.62569 187.422095 
L 185.973742 184.904326 
L 187.423093 186.32159 
L 188.872443 184.280463 
L 190.321794 185.073553 
L 191.771144 187.132296 
L 194.669846 185.552295 
L 196.119196 184.810089 
L 197.568547 185.770033 
L 199.017898 184.676514 
L 200.467248 184.446925 
L 201.916599 184.73742 
L 203.36595 185.756947 
L 204.8153 184.552798 
L 206.264651 184.889511 
L 207.714002 184.004759 
L 209.163352 183.901411 
L 210.612703 184.210607 
L 212.062054 183.773288 
L 213.511404 183.881292 
L 214.960755 184.302752 
L 216.410106 184.383936 
L 217.859456 184.847795 
L 219.308807 183.874218 
L 220.758157 183.985069 
L 222.207508 184.487505 
L 223.656859 182.909122 
L 225.106209 182.846106 
L 226.55556 183.355634 
L 228.004911 184.113366 
L 229.454261 183.175639 
L 230.903612 183.903217 
L 232.352963 183.699209 
L 233.802313 183.061725 
L 235.251664 183.196088 
L 236.701015 185.027866 
L 238.150365 184.126514 
L 239.599716 183.024234 
L 241.049067 183.024664 
L 242.498417 182.908792 
L 243.947768 182.921731 
L 245.397119 183.446698 
L 246.846469 183.231953 
L 248.29582 183.782402 
L 249.74517 183.157305 
L 252.643872 183.542492 
L 254.093222 183.446975 
L 255.542573 182.928913 
L 256.991924 183.836236 
L 258.441274 183.736315 
L 259.890625 183.907988 
L 261.339976 183.273056 
L 262.789326 183.490009 
L 264.238677 182.720341 
L 265.688028 182.625096 
L 267.137378 182.920247 
L 268.586729 183.852156 
L 270.03608 182.802564 
L 271.48543 182.738626 
L 272.934781 182.801259 
L 275.833482 183.681555 
L 277.282833 182.885937 
L 278.732183 183.817856 
L 280.181534 183.130461 
L 281.630885 183.143888 
L 284.529586 182.841679 
L 285.978937 183.534285 
L 287.428287 182.956399 
L 288.877638 183.1017 
L 290.326989 183.593199 
L 291.776339 183.231413 
L 293.22569 183.494154 
L 294.675041 182.587269 
L 296.124391 182.967965 
L 297.573742 183.233486 
L 299.023093 183.014462 
L 300.472443 183.921541 
L 301.921794 183.145828 
L 303.371144 184.071561 
L 304.820495 183.153563 
L 306.269846 183.120939 
L 307.719196 183.217194 
L 309.168547 182.82653 
L 310.617898 183.195985 
L 312.067248 183.2152 
L 313.516599 182.068551 
L 314.96595 182.517478 
L 316.4153 183.2954 
L 317.864651 183.449769 
L 319.314002 183.395169 
L 320.763352 183.713621 
L 322.212703 182.791018 
L 323.662054 182.950666 
L 325.111404 183.437971 
L 326.560755 183.397177 
L 328.010106 182.63061 
L 329.459456 183.785292 
L 330.908807 182.474261 
L 332.358157 183.387489 
L 333.807508 182.480907 
L 335.256859 183.151485 
L 338.15556 182.730728 
L 339.604911 183.290475 
L 341.054261 182.409606 
L 342.503612 182.700566 
L 343.952963 183.743703 
L 345.402313 182.943793 
L 349.750365 182.818776 
L 351.199716 183.03813 
L 352.649067 182.991935 
L 354.098417 183.939272 
L 355.547768 183.640936 
L 356.997119 182.692036 
L 358.446469 182.555659 
L 359.89582 182.842249 
L 361.34517 182.57223 
L 362.794521 183.123184 
L 364.243872 182.891681 
L 365.693222 183.99973 
L 368.591924 182.255185 
L 370.041274 182.325751 
L 372.939976 182.950932 
L 374.389326 182.766578 
L 375.838677 183.213411 
L 377.288028 182.990066 
L 378.737378 183.10962 
L 380.186729 182.88939 
L 381.63608 183.19995 
L 383.08543 182.548171 
L 384.534781 182.331845 
L 385.984131 182.754582 
L 387.433482 182.386773 
L 388.882833 182.499166 
L 390.332183 183.056651 
L 391.781534 182.807802 
L 393.230885 183.105543 
L 394.680235 182.743468 
L 396.129586 183.52151 
L 397.578937 182.973611 
L 404.82569 183.079528 
L 406.275041 182.768168 
L 409.173742 182.513927 
L 412.072443 182.752587 
L 413.521794 183.008193 
L 414.971144 183.679111 
L 417.869846 182.806429 
L 419.319196 182.954243 
L 425.116599 183.070869 
L 426.56595 183.105361 
L 428.0153 182.863134 
L 430.914002 183.206005 
L 433.812703 182.746778 
L 436.711404 183.31884 
L 438.160755 183.573065 
L 439.610106 183.018668 
L 441.059456 183.043531 
L 442.508807 183.317399 
L 445.407508 183.136009 
L 446.856859 183.506695 
L 448.306209 183.383708 
L 449.75556 183.030956 
L 452.654261 183.255503 
L 454.103612 183.74766 
L 455.552963 183.539514 
L 457.002313 184.122744 
L 458.451664 183.116812 
L 459.901015 183.055189 
L 462.799716 183.218949 
L 467.147768 183.497466 
L 468.597119 183.173385 
L 470.046469 183.701313 
L 471.49582 183.1398 
L 474.394521 183.983366 
L 475.843872 183.509783 
L 477.293222 183.31685 
L 478.742573 183.477441 
L 480.191924 182.976603 
L 481.641274 183.427922 
L 483.090625 183.32973 
L 484.539976 182.693731 
L 485.989326 183.190847 
L 487.438677 182.878586 
L 488.888028 183.631742 
L 490.337378 183.532027 
L 491.786729 184.148137 
L 493.23608 183.484397 
L 496.134781 183.193172 
L 497.584131 183.484256 
L 499.033482 183.52136 
L 500.482833 183.165281 
L 501.932183 182.983246 
L 503.381534 183.474534 
L 504.830885 183.229546 
L 506.280235 183.502455 
L 507.729586 183.333029 
L 509.178937 183.590888 
L 510.628287 183.320601 
L 512.077638 183.380472 
L 513.526989 183.071998 
L 514.976339 183.440573 
L 516.42569 183.385062 
L 517.875041 183.523604 
L 519.324391 183.365623 
L 520.773742 183.015156 
L 522.223093 183.250515 
L 523.672443 184.034514 
L 525.121794 183.839587 
L 526.571144 183.988011 
L 528.020495 183.312729 
L 529.469846 183.503067 
L 530.919196 183.375753 
L 532.368547 183.544545 
L 533.817898 183.094009 
L 536.716599 183.721852 
L 538.16595 183.432648 
L 539.6153 183.598003 
L 541.064651 182.852362 
L 542.514002 183.394857 
L 545.412703 183.282232 
L 546.862054 183.698576 
L 548.311404 184.269199 
L 549.760755 183.427617 
L 551.210106 183.745692 
L 552.659456 183.455576 
L 555.558157 183.798223 
L 557.007508 183.654011 
L 558.456859 183.747524 
L 559.906209 183.490886 
L 561.35556 183.697737 
L 562.804911 183.543973 
L 564.254261 183.584663 
L 565.703612 183.770174 
L 567.152963 183.322506 
L 568.602313 183.880069 
L 570.051664 183.989708 
L 571.501015 183.367329 
L 572.950365 183.600689 
L 575.849067 183.696709 
L 577.298417 184.280465 
L 578.747768 183.46197 
L 580.197119 183.688691 
L 583.09582 183.806285 
L 584.54517 183.094654 
L 587.443872 183.904287 
L 588.893222 183.294811 
L 590.342573 183.580542 
L 594.690625 183.662428 
L 596.139976 183.316345 
L 597.589326 183.534865 
L 599.038677 183.912978 
L 600.488028 184.048144 
L 601.937378 183.461047 
L 604.83608 183.752332 
L 606.28543 183.61315 
L 607.734781 184.063493 
L 609.184131 183.592658 
L 610.633482 183.870614 
L 612.082833 183.186031 
L 613.532183 183.964145 
L 614.981534 183.160091 
L 616.430885 183.861212 
L 617.880235 183.292585 
L 619.329586 183.516306 
L 620.778937 183.331213 
L 622.228287 183.617877 
L 623.677638 183.525817 
L 625.126989 183.292991 
L 625.126989 183.292991 
" clip-path="url(#pc349049d55)" style="fill: none; stroke: #ff7f0e; stroke-width: 1.5; stroke-linecap: square"/>
   </g>
   <g id="patch_3">
    <path d="M 92.490625 308.63625 
L 92.490625 31.43625 
" style="fill: none; stroke: #000000; stroke-width: 0.8; stroke-linejoin: miter; stroke-linecap: square"/>
   </g>
   <g id="patch_4">
    <path d="M 650.490625 308.63625 
L 650.490625 31.43625 
" style="fill: none; stroke: #000000; stroke-width: 0.8; stroke-linejoin: miter; stroke-linecap: square"/>
   </g>
   <g id="patch_5">
    <path d="M 92.490625 308.63625 
L 650.490625 308.63625 
" style="fill: none; stroke: #000000; stroke-width: 0.8; stroke-linejoin: miter; stroke-linecap: square"/>
   </g>
   <g id="patch_6">
    <path d="M 92.490625 31.43625 
L 650.490625 31.43625 
" style="fill: none; stroke: #000000; stroke-width: 0.8; stroke-linejoin: miter; stroke-linecap: square"/>
   </g>
   <g id="text_16">
    <!-- Generator and Discriminator Loss During Training -->
    <g transform="translate(74.258125 25.43625) scale(0.24 -0.24)">
     <defs>
      <path id="DejaVuSans-47" d="M 3809 666 
L 3809 1919 
L 2778 1919 
L 2778 2438 
L 4434 2438 
L 4434 434 
Q 4069 175 3628 42 
Q 3188 -91 2688 -91 
Q 1594 -91 976 548 
Q 359 1188 359 2328 
Q 359 3472 976 4111 
Q 1594 4750 2688 4750 
Q 3144 4750 3555 4637 
Q 3966 4525 4313 4306 
L 4313 3634 
Q 3963 3931 3569 4081 
Q 3175 4231 2741 4231 
Q 1884 4231 1454 3753 
Q 1025 3275 1025 2328 
Q 1025 1384 1454 906 
Q 1884 428 2741 428 
Q 3075 428 3337 486 
Q 3600 544 3809 666 
z
" transform="scale(0.015625)"/>
      <path id="DejaVuSans-20" transform="scale(0.015625)"/>
      <path id="DejaVuSans-64" d="M 2906 2969 
L 2906 4863 
L 3481 4863 
L 3481 0 
L 2906 0 
L 2906 525 
Q 2725 213 2448 61 
Q 2172 -91 1784 -91 
Q 1150 -91 751 415 
Q 353 922 353 1747 
Q 353 2572 751 3078 
Q 1150 3584 1784 3584 
Q 2172 3584 2448 3432 
Q 2725 3281 2906 2969 
z
M 947 1747 
Q 947 1113 1208 752 
Q 1469 391 1925 391 
Q 2381 391 2643 752 
Q 2906 1113 2906 1747 
Q 2906 2381 2643 2742 
Q 2381 3103 1925 3103 
Q 1469 3103 1208 2742 
Q 947 2381 947 1747 
z
" transform="scale(0.015625)"/>
      <path id="DejaVuSans-44" d="M 1259 4147 
L 1259 519 
L 2022 519 
Q 2988 519 3436 956 
Q 3884 1394 3884 2338 
Q 3884 3275 3436 3711 
Q 2988 4147 2022 4147 
L 1259 4147 
z
M 628 4666 
L 1925 4666 
Q 3281 4666 3915 4102 
Q 4550 3538 4550 2338 
Q 4550 1131 3912 565 
Q 3275 0 1925 0 
L 628 0 
L 628 4666 
z
" transform="scale(0.015625)"/>
      <path id="DejaVuSans-63" d="M 3122 3366 
L 3122 2828 
Q 2878 2963 2633 3030 
Q 2388 3097 2138 3097 
Q 1578 3097 1268 2742 
Q 959 2388 959 1747 
Q 959 1106 1268 751 
Q 1578 397 2138 397 
Q 2388 397 2633 464 
Q 2878 531 3122 666 
L 3122 134 
Q 2881 22 2623 -34 
Q 2366 -91 2075 -91 
Q 1284 -91 818 406 
Q 353 903 353 1747 
Q 353 2603 823 3093 
Q 1294 3584 2113 3584 
Q 2378 3584 2631 3529 
Q 2884 3475 3122 3366 
z
" transform="scale(0.015625)"/>
      <path id="DejaVuSans-6d" d="M 3328 2828 
Q 3544 3216 3844 3400 
Q 4144 3584 4550 3584 
Q 5097 3584 5394 3201 
Q 5691 2819 5691 2113 
L 5691 0 
L 5113 0 
L 5113 2094 
Q 5113 2597 4934 2840 
Q 4756 3084 4391 3084 
Q 3944 3084 3684 2787 
Q 3425 2491 3425 1978 
L 3425 0 
L 2847 0 
L 2847 2094 
Q 2847 2600 2669 2842 
Q 2491 3084 2119 3084 
Q 1678 3084 1418 2786 
Q 1159 2488 1159 1978 
L 1159 0 
L 581 0 
L 581 3500 
L 1159 3500 
L 1159 2956 
Q 1356 3278 1631 3431 
Q 1906 3584 2284 3584 
Q 2666 3584 2933 3390 
Q 3200 3197 3328 2828 
z
" transform="scale(0.015625)"/>
      <path id="DejaVuSans-75" d="M 544 1381 
L 544 3500 
L 1119 3500 
L 1119 1403 
Q 1119 906 1312 657 
Q 1506 409 1894 409 
Q 2359 409 2629 706 
Q 2900 1003 2900 1516 
L 2900 3500 
L 3475 3500 
L 3475 0 
L 2900 0 
L 2900 538 
Q 2691 219 2414 64 
Q 2138 -91 1772 -91 
Q 1169 -91 856 284 
Q 544 659 544 1381 
z
M 1991 3584 
L 1991 3584 
z
" transform="scale(0.015625)"/>
      <path id="DejaVuSans-67" d="M 2906 1791 
Q 2906 2416 2648 2759 
Q 2391 3103 1925 3103 
Q 1463 3103 1205 2759 
Q 947 2416 947 1791 
Q 947 1169 1205 825 
Q 1463 481 1925 481 
Q 2391 481 2648 825 
Q 2906 1169 2906 1791 
z
M 3481 434 
Q 3481 -459 3084 -895 
Q 2688 -1331 1869 -1331 
Q 1566 -1331 1297 -1286 
Q 1028 -1241 775 -1147 
L 775 -588 
Q 1028 -725 1275 -790 
Q 1522 -856 1778 -856 
Q 2344 -856 2625 -561 
Q 2906 -266 2906 331 
L 2906 616 
Q 2728 306 2450 153 
Q 2172 0 1784 0 
Q 1141 0 747 490 
Q 353 981 353 1791 
Q 353 2603 747 3093 
Q 1141 3584 1784 3584 
Q 2172 3584 2450 3431 
Q 2728 3278 2906 2969 
L 2906 3500 
L 3481 3500 
L 3481 434 
z
" transform="scale(0.015625)"/>
      <path id="DejaVuSans-54" d="M -19 4666 
L 3928 4666 
L 3928 4134 
L 2272 4134 
L 2272 0 
L 1638 0 
L 1638 4134 
L -19 4134 
L -19 4666 
z
" transform="scale(0.015625)"/>
     </defs>
     <use xlink:href="#DejaVuSans-47"/>
     <use xlink:href="#DejaVuSans-65" x="77.490234"/>
     <use xlink:href="#DejaVuSans-6e" x="139.013672"/>
     <use xlink:href="#DejaVuSans-65" x="202.392578"/>
     <use xlink:href="#DejaVuSans-72" x="263.916016"/>
     <use xlink:href="#DejaVuSans-61" x="305.029297"/>
     <use xlink:href="#DejaVuSans-74" x="366.308594"/>
     <use xlink:href="#DejaVuSans-6f" x="405.517578"/>
     <use xlink:href="#DejaVuSans-72" x="466.699219"/>
     <use xlink:href="#DejaVuSans-20" x="507.8125"/>
     <use xlink:href="#DejaVuSans-61" x="539.599609"/>
     <use xlink:href="#DejaVuSans-6e" x="600.878906"/>
     <use xlink:href="#DejaVuSans-64" x="664.257812"/>
     <use xlink:href="#DejaVuSans-20" x="727.734375"/>
     <use xlink:href="#DejaVuSans-44" x="759.521484"/>
     <use xlink:href="#DejaVuSans-69" x="836.523438"/>
     <use xlink:href="#DejaVuSans-73" x="864.306641"/>
     <use xlink:href="#DejaVuSans-63" x="916.40625"/>
     <use xlink:href="#DejaVuSans-72" x="971.386719"/>
     <use xlink:href="#DejaVuSans-69" x="1012.5"/>
     <use xlink:href="#DejaVuSans-6d" x="1040.283203"/>
     <use xlink:href="#DejaVuSans-69" x="1137.695312"/>
     <use xlink:href="#DejaVuSans-6e" x="1165.478516"/>
     <use xlink:href="#DejaVuSans-61" x="1228.857422"/>
     <use xlink:href="#DejaVuSans-74" x="1290.136719"/>
     <use xlink:href="#DejaVuSans-6f" x="1329.345703"/>
     <use xlink:href="#DejaVuSans-72" x="1390.527344"/>
     <use xlink:href="#DejaVuSans-20" x="1431.640625"/>
     <use xlink:href="#DejaVuSans-4c" x="1463.427734"/>
     <use xlink:href="#DejaVuSans-6f" x="1517.390625"/>
     <use xlink:href="#DejaVuSans-73" x="1578.572266"/>
     <use xlink:href="#DejaVuSans-73" x="1630.671875"/>
     <use xlink:href="#DejaVuSans-20" x="1682.771484"/>
     <use xlink:href="#DejaVuSans-44" x="1714.558594"/>
     <use xlink:href="#DejaVuSans-75" x="1791.560547"/>
     <use xlink:href="#DejaVuSans-72" x="1854.939453"/>
     <use xlink:href="#DejaVuSans-69" x="1896.052734"/>
     <use xlink:href="#DejaVuSans-6e" x="1923.835938"/>
     <use xlink:href="#DejaVuSans-67" x="1987.214844"/>
     <use xlink:href="#DejaVuSans-20" x="2050.691406"/>
     <use xlink:href="#DejaVuSans-54" x="2082.478516"/>
     <use xlink:href="#DejaVuSans-72" x="2128.8125"/>
     <use xlink:href="#DejaVuSans-61" x="2169.925781"/>
     <use xlink:href="#DejaVuSans-69" x="2231.205078"/>
     <use xlink:href="#DejaVuSans-6e" x="2258.988281"/>
     <use xlink:href="#DejaVuSans-69" x="2322.367188"/>
     <use xlink:href="#DejaVuSans-6e" x="2350.150391"/>
     <use xlink:href="#DejaVuSans-67" x="2413.529297"/>
    </g>
   </g>
   <g id="legend_1">
    <g id="patch_7">
     <path d="M 556.99375 106.14875 
L 636.490625 106.14875 
Q 640.490625 106.14875 640.490625 102.14875 
L 640.490625 45.43625 
Q 640.490625 41.43625 636.490625 41.43625 
L 556.99375 41.43625 
Q 552.99375 41.43625 552.99375 45.43625 
L 552.99375 102.14875 
Q 552.99375 106.14875 556.99375 106.14875 
z
" style="fill: #ffffff; opacity: 0.8; stroke: #cccccc; stroke-linejoin: miter"/>
    </g>
    <g id="line2d_16">
     <path d="M 560.99375 57.633125 
L 580.99375 57.633125 
L 600.99375 57.633125 
" style="fill: none; stroke: #1f77b4; stroke-width: 1.5; stroke-linecap: square"/>
    </g>
    <g id="text_17">
     <!-- G -->
     <g transform="translate(616.99375 64.633125) scale(0.2 -0.2)">
      <use xlink:href="#DejaVuSans-47"/>
     </g>
    </g>
    <g id="line2d_17">
     <path d="M 560.99375 86.989375 
L 580.99375 86.989375 
L 600.99375 86.989375 
" style="fill: none; stroke: #ff7f0e; stroke-width: 1.5; stroke-linecap: square"/>
    </g>
    <g id="text_18">
     <!-- D -->
     <g transform="translate(616.99375 93.989375) scale(0.2 -0.2)">
      <use xlink:href="#DejaVuSans-44"/>
     </g>
    </g>
   </g>
  </g>
 </g>
 <defs>
  <clipPath id="pc349049d55">
   <rect x="92.490625" y="31.43625" width="558" height="277.2"/>
  </clipPath>
 </defs>
</svg>
