<?xml version="1.0" encoding="utf-8" standalone="no"?>
<!DOCTYPE svg PUBLIC "-//W3C//DTD SVG 1.1//EN"
  "http://www.w3.org/Graphics/SVG/1.1/DTD/svg11.dtd">
<svg xmlns:xlink="http://www.w3.org/1999/xlink" width="675.923125pt" height="365.54875pt" viewBox="0 0 675.923125 365.54875" xmlns="http://www.w3.org/2000/svg" version="1.1">
 <metadata>
  <rdf:RDF xmlns:dc="http://purl.org/dc/elements/1.1/" xmlns:cc="http://creativecommons.org/ns#" xmlns:rdf="http://www.w3.org/1999/02/22-rdf-syntax-ns#">
   <cc:Work>
    <dc:type rdf:resource="http://purl.org/dc/dcmitype/StillImage"/>
    <dc:date>2024-02-04T01:12:35.414547</dc:date>
    <dc:format>image/svg+xml</dc:format>
    <dc:creator>
     <cc:Agent>
      <dc:title>Matplotlib v3.7.2, https://matplotlib.org/</dc:title>
     </cc:Agent>
    </dc:creator>
   </cc:Work>
  </rdf:RDF>
 </metadata>
 <defs>
  <style type="text/css">*{stroke-linejoin: round; stroke-linecap: butt}</style>
 </defs>
 <g id="figure_1">
  <g id="patch_1">
   <path d="M 0 365.54875 
L 675.923125 365.54875 
L 675.923125 -0 
L 0 -0 
z
" style="fill: #ffffff"/>
  </g>
  <g id="axes_1">
   <g id="patch_2">
    <path d="M 92.490625 308.63625 
L 650.490625 308.63625 
L 650.490625 31.43625 
L 92.490625 31.43625 
z
" style="fill: #ffffff"/>
   </g>
   <g id="matplotlib.axis_1">
    <g id="xtick_1">
     <g id="line2d_1">
      <defs>
       <path id="mdfc8e90e43" d="M 0 0 
L 0 3.5 
" style="stroke: #000000; stroke-width: 0.8"/>
      </defs>
      <g>
       <use xlink:href="#mdfc8e90e43" x="117.854261" y="308.63625" style="stroke: #000000; stroke-width: 0.8"/>
      </g>
     </g>
     <g id="text_1">
      <!-- 0 -->
      <g transform="translate(111.491761 330.833125) scale(0.2 -0.2)">
       <defs>
        <path id="DejaVuSans-30" d="M 2034 4250 
Q 1547 4250 1301 3770 
Q 1056 3291 1056 2328 
Q 1056 1369 1301 889 
Q 1547 409 2034 409 
Q 2525 409 2770 889 
Q 3016 1369 3016 2328 
Q 3016 3291 2770 3770 
Q 2525 4250 2034 4250 
z
M 2034 4750 
Q 2819 4750 3233 4129 
Q 3647 3509 3647 2328 
Q 3647 1150 3233 529 
Q 2819 -91 2034 -91 
Q 1250 -91 836 529 
Q 422 1150 422 2328 
Q 422 3509 836 4129 
Q 1250 4750 2034 4750 
z
" transform="scale(0.015625)"/>
       </defs>
       <use xlink:href="#DejaVuSans-30"/>
      </g>
     </g>
    </g>
    <g id="xtick_2">
     <g id="line2d_2">
      <g>
       <use xlink:href="#mdfc8e90e43" x="190.321794" y="308.63625" style="stroke: #000000; stroke-width: 0.8"/>
      </g>
     </g>
     <g id="text_2">
      <!-- 250 -->
      <g transform="translate(171.234294 330.833125) scale(0.2 -0.2)">
       <defs>
        <path id="DejaVuSans-32" d="M 1228 531 
L 3431 531 
L 3431 0 
L 469 0 
L 469 531 
Q 828 903 1448 1529 
Q 2069 2156 2228 2338 
Q 2531 2678 2651 2914 
Q 2772 3150 2772 3378 
Q 2772 3750 2511 3984 
Q 2250 4219 1831 4219 
Q 1534 4219 1204 4116 
Q 875 4013 500 3803 
L 500 4441 
Q 881 4594 1212 4672 
Q 1544 4750 1819 4750 
Q 2544 4750 2975 4387 
Q 3406 4025 3406 3419 
Q 3406 3131 3298 2873 
Q 3191 2616 2906 2266 
Q 2828 2175 2409 1742 
Q 1991 1309 1228 531 
z
" transform="scale(0.015625)"/>
        <path id="DejaVuSans-35" d="M 691 4666 
L 3169 4666 
L 3169 4134 
L 1269 4134 
L 1269 2991 
Q 1406 3038 1543 3061 
Q 1681 3084 1819 3084 
Q 2600 3084 3056 2656 
Q 3513 2228 3513 1497 
Q 3513 744 3044 326 
Q 2575 -91 1722 -91 
Q 1428 -91 1123 -41 
Q 819 9 494 109 
L 494 744 
Q 775 591 1075 516 
Q 1375 441 1709 441 
Q 2250 441 2565 725 
Q 2881 1009 2881 1497 
Q 2881 1984 2565 2268 
Q 2250 2553 1709 2553 
Q 1456 2553 1204 2497 
Q 953 2441 691 2322 
L 691 4666 
z
" transform="scale(0.015625)"/>
       </defs>
       <use xlink:href="#DejaVuSans-32"/>
       <use xlink:href="#DejaVuSans-35" x="63.623047"/>
       <use xlink:href="#DejaVuSans-30" x="127.246094"/>
      </g>
     </g>
    </g>
    <g id="xtick_3">
     <g id="line2d_3">
      <g>
       <use xlink:href="#mdfc8e90e43" x="262.789326" y="308.63625" style="stroke: #000000; stroke-width: 0.8"/>
      </g>
     </g>
     <g id="text_3">
      <!-- 500 -->
      <g transform="translate(243.701826 330.833125) scale(0.2 -0.2)">
       <use xlink:href="#DejaVuSans-35"/>
       <use xlink:href="#DejaVuSans-30" x="63.623047"/>
       <use xlink:href="#DejaVuSans-30" x="127.246094"/>
      </g>
     </g>
    </g>
    <g id="xtick_4">
     <g id="line2d_4">
      <g>
       <use xlink:href="#mdfc8e90e43" x="335.256859" y="308.63625" style="stroke: #000000; stroke-width: 0.8"/>
      </g>
     </g>
     <g id="text_4">
      <!-- 750 -->
      <g transform="translate(316.169359 330.833125) scale(0.2 -0.2)">
       <defs>
        <path id="DejaVuSans-37" d="M 525 4666 
L 3525 4666 
L 3525 4397 
L 1831 0 
L 1172 0 
L 2766 4134 
L 525 4134 
L 525 4666 
z
" transform="scale(0.015625)"/>
       </defs>
       <use xlink:href="#DejaVuSans-37"/>
       <use xlink:href="#DejaVuSans-35" x="63.623047"/>
       <use xlink:href="#DejaVuSans-30" x="127.246094"/>
      </g>
     </g>
    </g>
    <g id="xtick_5">
     <g id="line2d_5">
      <g>
       <use xlink:href="#mdfc8e90e43" x="407.724391" y="308.63625" style="stroke: #000000; stroke-width: 0.8"/>
      </g>
     </g>
     <g id="text_5">
      <!-- 1000 -->
      <g transform="translate(382.274391 330.833125) scale(0.2 -0.2)">
       <defs>
        <path id="DejaVuSans-31" d="M 794 531 
L 1825 531 
L 1825 4091 
L 703 3866 
L 703 4441 
L 1819 4666 
L 2450 4666 
L 2450 531 
L 3481 531 
L 3481 0 
L 794 0 
L 794 531 
z
" transform="scale(0.015625)"/>
       </defs>
       <use xlink:href="#DejaVuSans-31"/>
       <use xlink:href="#DejaVuSans-30" x="63.623047"/>
       <use xlink:href="#DejaVuSans-30" x="127.246094"/>
       <use xlink:href="#DejaVuSans-30" x="190.869141"/>
      </g>
     </g>
    </g>
    <g id="xtick_6">
     <g id="line2d_6">
      <g>
       <use xlink:href="#mdfc8e90e43" x="480.191924" y="308.63625" style="stroke: #000000; stroke-width: 0.8"/>
      </g>
     </g>
     <g id="text_6">
      <!-- 1250 -->
      <g transform="translate(454.741924 330.833125) scale(0.2 -0.2)">
       <use xlink:href="#DejaVuSans-31"/>
       <use xlink:href="#DejaVuSans-32" x="63.623047"/>
       <use xlink:href="#DejaVuSans-35" x="127.246094"/>
       <use xlink:href="#DejaVuSans-30" x="190.869141"/>
      </g>
     </g>
    </g>
    <g id="xtick_7">
     <g id="line2d_7">
      <g>
       <use xlink:href="#mdfc8e90e43" x="552.659456" y="308.63625" style="stroke: #000000; stroke-width: 0.8"/>
      </g>
     </g>
     <g id="text_7">
      <!-- 1500 -->
      <g transform="translate(527.209456 330.833125) scale(0.2 -0.2)">
       <use xlink:href="#DejaVuSans-31"/>
       <use xlink:href="#DejaVuSans-35" x="63.623047"/>
       <use xlink:href="#DejaVuSans-30" x="127.246094"/>
       <use xlink:href="#DejaVuSans-30" x="190.869141"/>
      </g>
     </g>
    </g>
    <g id="xtick_8">
     <g id="line2d_8">
      <g>
       <use xlink:href="#mdfc8e90e43" x="625.126989" y="308.63625" style="stroke: #000000; stroke-width: 0.8"/>
      </g>
     </g>
     <g id="text_8">
      <!-- 1750 -->
      <g transform="translate(599.676989 330.833125) scale(0.2 -0.2)">
       <use xlink:href="#DejaVuSans-31"/>
       <use xlink:href="#DejaVuSans-37" x="63.623047"/>
       <use xlink:href="#DejaVuSans-35" x="127.246094"/>
       <use xlink:href="#DejaVuSans-30" x="190.869141"/>
      </g>
     </g>
    </g>
    <g id="text_9">
     <!-- iterations -->
     <g transform="translate(324.035938 354.189375) scale(0.2 -0.2)">
      <defs>
       <path id="DejaVuSans-69" d="M 603 3500 
L 1178 3500 
L 1178 0 
L 603 0 
L 603 3500 
z
M 603 4863 
L 1178 4863 
L 1178 4134 
L 603 4134 
L 603 4863 
z
" transform="scale(0.015625)"/>
       <path id="DejaVuSans-74" d="M 1172 4494 
L 1172 3500 
L 2356 3500 
L 2356 3053 
L 1172 3053 
L 1172 1153 
Q 1172 725 1289 603 
Q 1406 481 1766 481 
L 2356 481 
L 2356 0 
L 1766 0 
Q 1100 0 847 248 
Q 594 497 594 1153 
L 594 3053 
L 172 3053 
L 172 3500 
L 594 3500 
L 594 4494 
L 1172 4494 
z
" transform="scale(0.015625)"/>
       <path id="DejaVuSans-65" d="M 3597 1894 
L 3597 1613 
L 953 1613 
Q 991 1019 1311 708 
Q 1631 397 2203 397 
Q 2534 397 2845 478 
Q 3156 559 3463 722 
L 3463 178 
Q 3153 47 2828 -22 
Q 2503 -91 2169 -91 
Q 1331 -91 842 396 
Q 353 884 353 1716 
Q 353 2575 817 3079 
Q 1281 3584 2069 3584 
Q 2775 3584 3186 3129 
Q 3597 2675 3597 1894 
z
M 3022 2063 
Q 3016 2534 2758 2815 
Q 2500 3097 2075 3097 
Q 1594 3097 1305 2825 
Q 1016 2553 972 2059 
L 3022 2063 
z
" transform="scale(0.015625)"/>
       <path id="DejaVuSans-72" d="M 2631 2963 
Q 2534 3019 2420 3045 
Q 2306 3072 2169 3072 
Q 1681 3072 1420 2755 
Q 1159 2438 1159 1844 
L 1159 0 
L 581 0 
L 581 3500 
L 1159 3500 
L 1159 2956 
Q 1341 3275 1631 3429 
Q 1922 3584 2338 3584 
Q 2397 3584 2469 3576 
Q 2541 3569 2628 3553 
L 2631 2963 
z
" transform="scale(0.015625)"/>
       <path id="DejaVuSans-61" d="M 2194 1759 
Q 1497 1759 1228 1600 
Q 959 1441 959 1056 
Q 959 750 1161 570 
Q 1363 391 1709 391 
Q 2188 391 2477 730 
Q 2766 1069 2766 1631 
L 2766 1759 
L 2194 1759 
z
M 3341 1997 
L 3341 0 
L 2766 0 
L 2766 531 
Q 2569 213 2275 61 
Q 1981 -91 1556 -91 
Q 1019 -91 701 211 
Q 384 513 384 1019 
Q 384 1609 779 1909 
Q 1175 2209 1959 2209 
L 2766 2209 
L 2766 2266 
Q 2766 2663 2505 2880 
Q 2244 3097 1772 3097 
Q 1472 3097 1187 3025 
Q 903 2953 641 2809 
L 641 3341 
Q 956 3463 1253 3523 
Q 1550 3584 1831 3584 
Q 2591 3584 2966 3190 
Q 3341 2797 3341 1997 
z
" transform="scale(0.015625)"/>
       <path id="DejaVuSans-6f" d="M 1959 3097 
Q 1497 3097 1228 2736 
Q 959 2375 959 1747 
Q 959 1119 1226 758 
Q 1494 397 1959 397 
Q 2419 397 2687 759 
Q 2956 1122 2956 1747 
Q 2956 2369 2687 2733 
Q 2419 3097 1959 3097 
z
M 1959 3584 
Q 2709 3584 3137 3096 
Q 3566 2609 3566 1747 
Q 3566 888 3137 398 
Q 2709 -91 1959 -91 
Q 1206 -91 779 398 
Q 353 888 353 1747 
Q 353 2609 779 3096 
Q 1206 3584 1959 3584 
z
" transform="scale(0.015625)"/>
       <path id="DejaVuSans-6e" d="M 3513 2113 
L 3513 0 
L 2938 0 
L 2938 2094 
Q 2938 2591 2744 2837 
Q 2550 3084 2163 3084 
Q 1697 3084 1428 2787 
Q 1159 2491 1159 1978 
L 1159 0 
L 581 0 
L 581 3500 
L 1159 3500 
L 1159 2956 
Q 1366 3272 1645 3428 
Q 1925 3584 2291 3584 
Q 2894 3584 3203 3211 
Q 3513 2838 3513 2113 
z
" transform="scale(0.015625)"/>
       <path id="DejaVuSans-73" d="M 2834 3397 
L 2834 2853 
Q 2591 2978 2328 3040 
Q 2066 3103 1784 3103 
Q 1356 3103 1142 2972 
Q 928 2841 928 2578 
Q 928 2378 1081 2264 
Q 1234 2150 1697 2047 
L 1894 2003 
Q 2506 1872 2764 1633 
Q 3022 1394 3022 966 
Q 3022 478 2636 193 
Q 2250 -91 1575 -91 
Q 1294 -91 989 -36 
Q 684 19 347 128 
L 347 722 
Q 666 556 975 473 
Q 1284 391 1588 391 
Q 1994 391 2212 530 
Q 2431 669 2431 922 
Q 2431 1156 2273 1281 
Q 2116 1406 1581 1522 
L 1381 1569 
Q 847 1681 609 1914 
Q 372 2147 372 2553 
Q 372 3047 722 3315 
Q 1072 3584 1716 3584 
Q 2034 3584 2315 3537 
Q 2597 3491 2834 3397 
z
" transform="scale(0.015625)"/>
      </defs>
      <use xlink:href="#DejaVuSans-69"/>
      <use xlink:href="#DejaVuSans-74" x="27.783203"/>
      <use xlink:href="#DejaVuSans-65" x="66.992188"/>
      <use xlink:href="#DejaVuSans-72" x="128.515625"/>
      <use xlink:href="#DejaVuSans-61" x="169.628906"/>
      <use xlink:href="#DejaVuSans-74" x="230.908203"/>
      <use xlink:href="#DejaVuSans-69" x="270.117188"/>
      <use xlink:href="#DejaVuSans-6f" x="297.900391"/>
      <use xlink:href="#DejaVuSans-6e" x="359.082031"/>
      <use xlink:href="#DejaVuSans-73" x="422.460938"/>
     </g>
    </g>
   </g>
   <g id="matplotlib.axis_2">
    <g id="ytick_1">
     <g id="line2d_9">
      <defs>
       <path id="m3e94217d7a" d="M 0 0 
L -3.5 0 
" style="stroke: #000000; stroke-width: 0.8"/>
      </defs>
      <g>
       <use xlink:href="#m3e94217d7a" x="92.490625" y="295.148568" style="stroke: #000000; stroke-width: 0.8"/>
      </g>
     </g>
     <g id="text_10">
      <!-- −400 -->
      <g transform="translate(30.55625 302.747005) scale(0.2 -0.2)">
       <defs>
        <path id="DejaVuSans-2212" d="M 678 2272 
L 4684 2272 
L 4684 1741 
L 678 1741 
L 678 2272 
z
" transform="scale(0.015625)"/>
        <path id="DejaVuSans-34" d="M 2419 4116 
L 825 1625 
L 2419 1625 
L 2419 4116 
z
M 2253 4666 
L 3047 4666 
L 3047 1625 
L 3713 1625 
L 3713 1100 
L 3047 1100 
L 3047 0 
L 2419 0 
L 2419 1100 
L 313 1100 
L 313 1709 
L 2253 4666 
z
" transform="scale(0.015625)"/>
       </defs>
       <use xlink:href="#DejaVuSans-2212"/>
       <use xlink:href="#DejaVuSans-34" x="83.789062"/>
       <use xlink:href="#DejaVuSans-30" x="147.412109"/>
       <use xlink:href="#DejaVuSans-30" x="211.035156"/>
      </g>
     </g>
    </g>
    <g id="ytick_2">
     <g id="line2d_10">
      <g>
       <use xlink:href="#m3e94217d7a" x="92.490625" y="237.405832" style="stroke: #000000; stroke-width: 0.8"/>
      </g>
     </g>
     <g id="text_11">
      <!-- −200 -->
      <g transform="translate(30.55625 245.00427) scale(0.2 -0.2)">
       <use xlink:href="#DejaVuSans-2212"/>
       <use xlink:href="#DejaVuSans-32" x="83.789062"/>
       <use xlink:href="#DejaVuSans-30" x="147.412109"/>
       <use xlink:href="#DejaVuSans-30" x="211.035156"/>
      </g>
     </g>
    </g>
    <g id="ytick_3">
     <g id="line2d_11">
      <g>
       <use xlink:href="#m3e94217d7a" x="92.490625" y="179.663097" style="stroke: #000000; stroke-width: 0.8"/>
      </g>
     </g>
     <g id="text_12">
      <!-- 0 -->
      <g transform="translate(72.765625 187.261534) scale(0.2 -0.2)">
       <use xlink:href="#DejaVuSans-30"/>
      </g>
     </g>
    </g>
    <g id="ytick_4">
     <g id="line2d_12">
      <g>
       <use xlink:href="#m3e94217d7a" x="92.490625" y="121.920361" style="stroke: #000000; stroke-width: 0.8"/>
      </g>
     </g>
     <g id="text_13">
      <!-- 200 -->
      <g transform="translate(47.315625 129.518799) scale(0.2 -0.2)">
       <use xlink:href="#DejaVuSans-32"/>
       <use xlink:href="#DejaVuSans-30" x="63.623047"/>
       <use xlink:href="#DejaVuSans-30" x="127.246094"/>
      </g>
     </g>
    </g>
    <g id="ytick_5">
     <g id="line2d_13">
      <g>
       <use xlink:href="#m3e94217d7a" x="92.490625" y="64.177625" style="stroke: #000000; stroke-width: 0.8"/>
      </g>
     </g>
     <g id="text_14">
      <!-- 400 -->
      <g transform="translate(47.315625 71.776063) scale(0.2 -0.2)">
       <use xlink:href="#DejaVuSans-34"/>
       <use xlink:href="#DejaVuSans-30" x="63.623047"/>
       <use xlink:href="#DejaVuSans-30" x="127.246094"/>
      </g>
     </g>
    </g>
    <g id="text_15">
     <!-- Loss -->
     <g transform="translate(22.396875 191.970625) rotate(-90) scale(0.2 -0.2)">
      <defs>
       <path id="DejaVuSans-4c" d="M 628 4666 
L 1259 4666 
L 1259 531 
L 3531 531 
L 3531 0 
L 628 0 
L 628 4666 
z
" transform="scale(0.015625)"/>
      </defs>
      <use xlink:href="#DejaVuSans-4c"/>
      <use xlink:href="#DejaVuSans-6f" x="53.962891"/>
      <use xlink:href="#DejaVuSans-73" x="115.144531"/>
      <use xlink:href="#DejaVuSans-73" x="167.244141"/>
     </g>
    </g>
   </g>
   <g id="line2d_14">
    <path d="M 117.854261 139.751496 
L 118.144131 144.722794 
L 118.434002 162.598831 
L 119.013742 44.03625 
L 119.303612 89.448318 
L 119.593482 77.551362 
L 120.173222 106.365093 
L 120.463093 109.725828 
L 120.752963 120.640356 
L 121.042833 119.204262 
L 121.332703 119.595028 
L 121.622573 123.111252 
L 121.912443 128.275629 
L 122.202313 126.631141 
L 122.492183 125.789985 
L 123.361794 111.128382 
L 123.651664 114.143471 
L 124.231404 125.682262 
L 124.521274 126.858032 
L 124.811144 129.516622 
L 125.390885 144.970436 
L 125.680755 142.237891 
L 125.970625 146.018436 
L 126.260495 148.27681 
L 126.550365 152.985986 
L 126.840235 146.939282 
L 127.130106 145.550269 
L 127.419976 146.154845 
L 127.709846 143.578088 
L 127.999716 142.120697 
L 128.289586 138.82778 
L 128.579456 137.32097 
L 128.869326 140.170434 
L 129.159196 149.749148 
L 129.449067 145.161919 
L 129.738937 144.809135 
L 130.028807 141.918695 
L 130.318677 142.056481 
L 130.608547 142.689369 
L 131.188287 144.888742 
L 131.478157 147.579569 
L 131.768028 144.557811 
L 132.347768 147.266567 
L 132.637638 141.963787 
L 132.927508 146.561523 
L 133.217378 145.704415 
L 133.507248 146.942807 
L 133.797119 146.571102 
L 134.376859 151.018944 
L 134.666729 149.433482 
L 134.956599 151.088431 
L 135.246469 151.882622 
L 135.536339 152.057159 
L 135.826209 155.39376 
L 136.11608 154.443253 
L 136.40595 155.064561 
L 136.69582 157.186868 
L 137.27556 157.874685 
L 137.56543 161.618246 
L 137.8553 159.61991 
L 138.14517 160.24721 
L 138.435041 159.359568 
L 138.724911 159.626263 
L 139.014781 162.870984 
L 139.304651 162.820485 
L 139.594521 164.349312 
L 139.884391 160.682349 
L 140.174261 164.299326 
L 140.464131 159.838717 
L 140.754002 160.412177 
L 141.043872 159.96084 
L 141.333742 162.549048 
L 141.623612 159.617214 
L 141.913482 162.521514 
L 142.493222 164.689134 
L 142.783093 166.947126 
L 143.072963 167.327422 
L 143.362833 166.729629 
L 143.652703 167.759036 
L 143.942573 165.917583 
L 144.232443 169.659523 
L 144.522313 169.737889 
L 144.812183 170.755676 
L 145.102054 167.899051 
L 145.391924 169.586443 
L 145.971664 170.564861 
L 146.261534 169.882117 
L 146.551404 172.760942 
L 146.841274 170.967299 
L 147.131144 170.438895 
L 147.421015 170.860476 
L 147.710885 172.297656 
L 148.000755 171.898915 
L 148.290625 172.457074 
L 148.580495 171.412696 
L 148.870365 172.181458 
L 149.450106 169.350699 
L 149.739976 171.819749 
L 150.029846 170.702797 
L 150.319716 170.386568 
L 150.609586 171.764484 
L 150.899456 170.363681 
L 151.479196 171.742956 
L 151.769067 173.321088 
L 152.058937 173.543595 
L 152.348807 173.401278 
L 152.638677 172.410984 
L 152.928547 172.754716 
L 153.218417 172.896141 
L 153.508287 172.496494 
L 153.798157 172.807733 
L 154.088028 172.372041 
L 154.377898 171.548362 
L 154.667768 172.908841 
L 155.247508 173.751662 
L 155.537378 173.680925 
L 155.827248 174.136271 
L 156.117119 173.041145 
L 156.406989 174.437231 
L 156.696859 172.369407 
L 156.986729 174.972957 
L 157.276599 174.250099 
L 157.566469 175.539665 
L 157.856339 174.034876 
L 158.146209 173.63476 
L 158.43608 174.998044 
L 159.01582 173.713275 
L 159.30569 173.768643 
L 159.59556 174.192507 
L 159.88543 175.217428 
L 160.1753 174.549207 
L 160.46517 175.102351 
L 160.755041 173.000769 
L 161.044911 173.396092 
L 161.624651 172.24628 
L 161.914521 173.830064 
L 162.204391 172.971341 
L 162.494261 175.344392 
L 162.784131 176.316089 
L 163.363872 174.720648 
L 163.653742 175.750386 
L 163.943612 175.270053 
L 164.233482 175.659534 
L 164.523352 175.802949 
L 164.813222 176.777934 
L 165.103093 176.066467 
L 165.392963 174.60952 
L 165.972703 177.18643 
L 166.262573 177.146097 
L 166.842313 176.671732 
L 167.422054 178.826261 
L 167.711924 178.840463 
L 168.001794 178.124467 
L 168.291664 178.644971 
L 168.581534 177.639782 
L 168.871404 178.637141 
L 169.161274 178.333677 
L 169.451144 178.623996 
L 169.741015 178.507095 
L 170.030885 178.055754 
L 170.320755 178.154192 
L 170.610625 177.461703 
L 171.190365 178.66269 
L 171.480235 178.675581 
L 171.770106 178.230668 
L 172.059976 178.09883 
L 172.349846 178.652588 
L 172.639716 177.930105 
L 173.509326 179.523749 
L 173.799196 178.940492 
L 174.089067 180.274731 
L 174.378937 179.956917 
L 174.668807 179.352725 
L 174.958677 180.378575 
L 175.248547 179.36548 
L 175.538417 179.641085 
L 175.828287 178.456831 
L 176.697898 179.82643 
L 176.987768 180.00236 
L 177.277638 180.935344 
L 177.567508 180.224525 
L 177.857378 180.851568 
L 178.147248 179.961341 
L 178.437119 180.187773 
L 178.726989 180.141461 
L 179.016859 181.494606 
L 179.306729 179.749474 
L 179.596599 181.661703 
L 179.886469 180.841325 
L 180.176339 181.108068 
L 180.466209 180.436024 
L 181.04595 182.051575 
L 181.33582 181.42228 
L 181.62569 181.417484 
L 181.91556 181.192607 
L 182.20543 181.70878 
L 182.78517 183.370872 
L 183.075041 182.602122 
L 183.364911 181.152498 
L 183.654781 182.618152 
L 183.944651 182.96134 
L 184.234521 182.33576 
L 184.524391 182.827178 
L 184.814261 182.95431 
L 185.104131 182.864038 
L 185.394002 182.510754 
L 185.683872 183.230302 
L 185.973742 182.899408 
L 186.263612 183.054188 
L 186.843352 183.659796 
L 187.423093 182.987873 
L 187.712963 183.77546 
L 188.002833 182.660957 
L 188.292703 183.157786 
L 188.582573 182.728784 
L 188.872443 183.01416 
L 189.162313 183.988878 
L 189.452183 184.529058 
L 189.742054 184.064193 
L 190.031924 184.222385 
L 190.321794 183.845806 
L 190.901534 183.780493 
L 191.481274 183.786981 
L 192.061015 183.979283 
L 192.350885 184.288766 
L 192.640755 184.176505 
L 193.220495 184.239144 
L 193.510365 184.552823 
L 194.090106 184.184467 
L 194.379976 184.679586 
L 194.669846 184.656079 
L 194.959716 184.883799 
L 195.249586 184.518958 
L 195.539456 184.613429 
L 196.119196 184.125656 
L 196.409067 184.52696 
L 196.698937 184.677067 
L 196.988807 184.492818 
L 197.278677 184.456798 
L 197.568547 185.084062 
L 197.858417 184.766681 
L 198.148287 184.134889 
L 198.438157 184.583512 
L 198.728028 184.059195 
L 199.307768 184.953905 
L 199.597638 184.443376 
L 199.887508 183.458362 
L 200.467248 184.344202 
L 200.757119 183.849578 
L 201.336859 184.82729 
L 201.626729 184.469422 
L 201.916599 185.046916 
L 202.206469 184.443785 
L 202.496339 184.476484 
L 202.786209 184.368245 
L 203.07608 183.937993 
L 203.65582 184.013952 
L 203.94569 184.777115 
L 204.23556 184.99747 
L 204.52543 183.772517 
L 204.8153 184.035706 
L 205.10517 184.102105 
L 205.395041 184.288311 
L 205.684911 184.173766 
L 205.974781 184.293227 
L 206.264651 184.00341 
L 206.554521 184.199036 
L 207.134261 184.092655 
L 207.424131 184.455043 
L 208.003872 184.287347 
L 208.293742 184.290951 
L 208.583612 183.727209 
L 209.163352 184.605861 
L 209.743093 184.274913 
L 210.032963 184.874952 
L 210.322833 184.9632 
L 210.612703 185.316616 
L 210.902573 185.323023 
L 211.192443 184.748002 
L 211.482313 184.519384 
L 211.772183 184.862935 
L 212.062054 184.523637 
L 212.641794 184.617477 
L 212.931664 184.415773 
L 213.221534 184.568713 
L 213.801274 183.720718 
L 214.091144 183.962436 
L 214.381015 183.809039 
L 214.670885 184.237151 
L 214.960755 184.03921 
L 215.250625 184.086871 
L 215.540495 184.247767 
L 216.699976 184.360026 
L 216.989846 184.510466 
L 217.279716 184.111391 
L 217.859456 184.1085 
L 218.149326 183.809955 
L 218.439196 184.328808 
L 218.729067 183.780577 
L 219.018937 184.626633 
L 219.308807 183.751032 
L 219.598677 183.766926 
L 219.888547 184.064515 
L 220.468287 184.284459 
L 220.758157 184.067987 
L 221.048028 184.061054 
L 221.337898 183.094892 
L 221.917638 183.743901 
L 222.207508 184.677753 
L 222.787248 183.939998 
L 223.077119 184.251046 
L 223.366989 184.200395 
L 223.656859 183.966637 
L 224.526469 184.067416 
L 224.816339 183.732881 
L 225.106209 184.6301 
L 225.39608 184.169221 
L 225.68595 183.967957 
L 225.97582 184.074859 
L 226.26569 183.424278 
L 226.55556 184.070452 
L 228.294781 183.61208 
L 228.584651 183.740517 
L 228.874521 184.238776 
L 229.164391 183.488428 
L 229.744131 183.851165 
L 230.323872 183.710228 
L 230.613742 183.838051 
L 231.483352 183.82598 
L 232.063093 183.289922 
L 232.352963 183.561546 
L 232.642833 183.463037 
L 232.932703 183.594836 
L 233.222573 183.446234 
L 233.512443 183.573195 
L 233.802313 183.125697 
L 234.092183 183.257786 
L 234.382054 183.147491 
L 234.671924 182.907027 
L 234.961794 183.072826 
L 235.251664 183.771144 
L 235.831404 182.883006 
L 236.121274 183.23388 
L 236.411144 183.288898 
L 236.701015 183.483698 
L 236.990885 183.068249 
L 237.570625 183.287115 
L 237.860495 183.159291 
L 238.150365 183.559667 
L 238.440235 183.361178 
L 238.730106 183.401738 
L 239.019976 183.750652 
L 239.309846 183.301438 
L 239.599716 183.920194 
L 240.179456 183.373584 
L 240.469326 183.171462 
L 240.759196 183.961579 
L 241.049067 184.187983 
L 241.338937 184.128509 
L 241.628807 183.744035 
L 241.918677 184.037423 
L 242.208547 183.771991 
L 242.498417 184.014808 
L 243.078157 183.771839 
L 243.657898 183.874599 
L 243.947768 184.11918 
L 244.237638 184.044082 
L 244.527508 183.77541 
L 244.817378 183.297732 
L 245.107248 183.237449 
L 245.397119 183.889617 
L 245.976859 183.403603 
L 246.266729 183.638456 
L 246.556599 183.237933 
L 246.846469 183.478615 
L 247.426209 183.355926 
L 247.71608 183.629338 
L 248.00595 183.641067 
L 248.29582 183.380171 
L 248.58569 183.35723 
L 248.87556 183.559473 
L 249.16543 183.546734 
L 249.74517 184.281031 
L 250.324911 184.485685 
L 250.614781 183.961286 
L 250.904651 184.134919 
L 251.194521 183.670988 
L 251.484391 183.955958 
L 251.774261 183.86234 
L 252.064131 183.350208 
L 252.354002 184.152244 
L 252.643872 183.509946 
L 252.933742 183.848731 
L 254.383093 184.314536 
L 254.672963 183.967137 
L 255.252703 184.477344 
L 255.542573 184.298746 
L 255.832443 183.977648 
L 256.122313 184.087434 
L 256.412183 184.402455 
L 256.991924 184.508636 
L 257.281794 183.924588 
L 257.861534 184.370312 
L 258.151404 184.261772 
L 258.441274 184.387189 
L 258.731144 184.22331 
L 259.021015 184.502419 
L 259.310885 184.57622 
L 259.600755 184.528911 
L 259.890625 184.61146 
L 260.760235 184.47329 
L 261.339976 184.449592 
L 261.919716 184.542384 
L 262.209586 184.103415 
L 262.499456 183.93274 
L 262.789326 184.643783 
L 263.079196 184.946179 
L 263.369067 184.625262 
L 263.658937 184.744458 
L 263.948807 184.123365 
L 264.238677 184.379415 
L 264.528547 184.333722 
L 264.818417 183.967268 
L 265.977898 183.902133 
L 266.267768 183.658483 
L 266.557638 184.056607 
L 267.137378 184.025916 
L 267.427248 183.864077 
L 267.717119 184.022285 
L 268.006989 184.414301 
L 268.296859 184.354348 
L 268.586729 184.134181 
L 269.166469 184.180303 
L 269.746209 183.895296 
L 270.03608 184.035501 
L 270.32595 183.811048 
L 270.61582 184.344264 
L 270.90569 183.948619 
L 271.19556 183.94321 
L 271.48543 183.649513 
L 271.7753 183.551772 
L 272.644911 184.018637 
L 272.934781 183.87005 
L 273.224651 183.563759 
L 273.514521 183.636485 
L 273.804391 183.828049 
L 274.094261 184.158674 
L 274.384131 183.668407 
L 274.674002 183.609338 
L 274.963872 183.336489 
L 275.253742 183.443337 
L 275.833482 183.992413 
L 276.123352 183.9525 
L 276.413222 183.591024 
L 276.703093 183.866701 
L 276.992963 183.821246 
L 277.282833 183.532774 
L 277.572703 183.614149 
L 278.152443 183.406414 
L 278.442313 183.598981 
L 278.732183 183.11501 
L 279.601794 183.699908 
L 280.471404 183.256929 
L 280.761274 183.53883 
L 281.051144 183.211051 
L 281.341015 183.496829 
L 281.630885 183.146545 
L 281.920755 183.510771 
L 282.210625 183.53694 
L 282.500495 183.138242 
L 282.790365 182.937259 
L 283.370106 183.56218 
L 283.659976 183.294892 
L 284.239716 183.236702 
L 284.529586 183.185423 
L 285.109326 183.572691 
L 285.689067 183.287384 
L 286.268807 183.374488 
L 286.558677 182.964802 
L 286.848547 183.324472 
L 287.718157 183.179447 
L 288.297898 182.909484 
L 288.587768 183.053275 
L 289.457378 182.703301 
L 289.747248 182.928952 
L 290.037119 182.642331 
L 290.326989 183.217741 
L 290.616859 182.641699 
L 290.906729 182.342965 
L 292.066209 182.654454 
L 292.64595 182.04344 
L 293.22569 182.575247 
L 293.80543 182.170588 
L 294.0953 182.086222 
L 294.38517 182.501844 
L 295.254781 182.10379 
L 295.834521 181.997351 
L 296.124391 181.859451 
L 296.414261 182.134081 
L 296.704131 181.989034 
L 297.573742 182.131205 
L 297.863612 181.99641 
L 298.153482 182.274329 
L 298.443352 182.348797 
L 298.733222 182.062362 
L 299.023093 182.172839 
L 299.312963 181.898594 
L 299.602833 182.152763 
L 299.892703 182.165862 
L 300.182573 182.051092 
L 300.472443 182.185709 
L 300.762313 182.104618 
L 301.052183 182.26453 
L 301.342054 182.081845 
L 301.921794 182.247898 
L 302.211664 181.880172 
L 302.501534 182.457096 
L 303.371144 182.123083 
L 303.661015 182.252178 
L 303.950885 181.974846 
L 304.240755 181.92908 
L 304.820495 182.289681 
L 305.110365 182.285905 
L 305.690106 181.982313 
L 305.979976 182.177789 
L 306.269846 181.717284 
L 306.559716 182.115084 
L 306.849586 181.991587 
L 307.719196 182.021724 
L 308.298937 181.672198 
L 308.588807 182.019801 
L 308.878677 181.900228 
L 309.168547 181.976095 
L 309.458417 181.715399 
L 310.038157 181.798032 
L 310.328028 181.819888 
L 310.617898 182.410156 
L 310.907768 182.356757 
L 311.197638 181.928667 
L 311.777378 182.085625 
L 312.067248 181.855502 
L 312.936859 182.06467 
L 313.226729 182.173658 
L 313.516599 181.477344 
L 313.806469 181.563387 
L 314.386209 181.991482 
L 314.67608 181.61934 
L 314.96595 181.66816 
L 315.25582 181.947722 
L 315.54569 181.55457 
L 316.12543 181.537416 
L 316.4153 181.455061 
L 316.70517 181.694866 
L 317.284911 181.499582 
L 317.574781 181.899471 
L 318.154521 181.673316 
L 319.024131 181.880001 
L 319.314002 181.918744 
L 319.603872 181.617495 
L 319.893742 181.882768 
L 321.343093 181.82529 
L 321.632963 182.057315 
L 321.922833 181.858086 
L 322.212703 182.088927 
L 322.792443 181.821125 
L 323.372183 182.074436 
L 323.662054 181.714748 
L 323.951924 181.911808 
L 324.531664 181.892884 
L 325.111404 181.914714 
L 325.401274 182.182074 
L 325.981015 182.094069 
L 326.270885 181.837987 
L 326.560755 182.179586 
L 326.850625 182.106454 
L 327.140495 181.874803 
L 327.430365 182.114865 
L 327.720235 182.202642 
L 328.299976 181.849286 
L 328.879716 181.730861 
L 329.169586 181.946451 
L 329.459456 181.832808 
L 329.749326 181.873687 
L 330.039196 181.671185 
L 330.329067 182.115224 
L 330.618937 181.895581 
L 330.908807 181.819581 
L 331.198677 181.896013 
L 332.068287 181.633087 
L 332.358157 181.837148 
L 332.937898 181.605606 
L 333.807508 181.807993 
L 334.097378 181.75169 
L 334.387248 182.010497 
L 334.677119 181.767403 
L 334.966989 181.929536 
L 335.256859 181.713882 
L 335.546729 181.910084 
L 335.836599 181.715839 
L 336.126469 181.752078 
L 336.416339 181.65318 
L 336.706209 182.018652 
L 336.99608 181.700738 
L 337.57582 182.011431 
L 337.86569 181.88846 
L 338.15556 182.119584 
L 338.44543 181.820852 
L 338.7353 181.794943 
L 339.02517 181.933428 
L 339.315041 181.904922 
L 339.604911 182.315877 
L 339.894781 182.176393 
L 340.184651 181.857772 
L 340.474521 181.741719 
L 340.764391 181.970247 
L 341.634002 181.764419 
L 341.923872 181.566946 
L 342.213742 181.948751 
L 342.793482 181.941357 
L 343.083352 181.635605 
L 343.373222 181.647958 
L 343.952963 181.984615 
L 344.242833 181.775092 
L 344.532703 181.958755 
L 344.822573 181.860021 
L 345.402313 181.968245 
L 345.982054 181.940155 
L 346.271924 182.079896 
L 346.561794 181.972468 
L 346.851664 181.635019 
L 347.141534 181.556081 
L 347.431404 182.018883 
L 348.011144 181.70419 
L 348.590885 181.908331 
L 348.880755 181.801337 
L 349.170625 182.096227 
L 349.460495 182.214674 
L 350.040235 182.045872 
L 350.330106 181.844999 
L 350.619976 182.168191 
L 351.199716 182.260202 
L 351.489586 182.578369 
L 351.779456 182.133033 
L 352.069326 182.356243 
L 352.359196 182.325819 
L 352.649067 182.539144 
L 353.518677 182.338434 
L 354.098417 182.612346 
L 354.388287 182.326725 
L 354.678157 182.233393 
L 354.968028 182.260451 
L 355.257898 181.823559 
L 355.837638 182.496897 
L 356.127508 182.381429 
L 356.417378 182.386388 
L 356.997119 182.018036 
L 357.576859 182.035199 
L 358.446469 182.719011 
L 358.736339 181.980023 
L 359.026209 182.126992 
L 359.31608 182.079339 
L 359.60595 182.281469 
L 359.89582 182.152763 
L 360.47556 182.425524 
L 360.76543 182.648119 
L 361.0553 182.343108 
L 361.34517 182.472849 
L 361.635041 182.278617 
L 361.924911 182.420449 
L 362.214781 182.187931 
L 362.794521 182.345065 
L 363.084391 182.225108 
L 363.374261 182.342791 
L 363.664131 182.20205 
L 363.954002 182.310865 
L 364.243872 182.262567 
L 364.533742 182.422297 
L 364.823612 182.238311 
L 365.113482 182.227703 
L 365.403352 182.734405 
L 365.693222 182.64305 
L 366.272963 182.269725 
L 366.562833 182.604648 
L 367.432443 182.665619 
L 367.722313 182.409528 
L 368.012183 182.314671 
L 368.302054 182.61643 
L 368.881794 182.756263 
L 369.461534 181.713727 
L 370.041274 182.09574 
L 370.331144 181.860879 
L 370.621015 182.235108 
L 370.910885 182.417097 
L 371.200755 182.094524 
L 371.490625 182.088403 
L 371.780495 180.75613 
L 372.070365 181.36807 
L 372.360235 181.044722 
L 372.650106 181.499861 
L 372.939976 181.216758 
L 373.519716 181.557919 
L 373.809586 182.067005 
L 374.099456 181.154298 
L 374.389326 181.581426 
L 374.679196 181.72072 
L 374.969067 181.993008 
L 375.258937 181.445361 
L 375.548807 181.992719 
L 375.838677 181.221768 
L 376.128547 182.055756 
L 376.708287 181.703545 
L 376.998157 182.17739 
L 377.867768 181.286916 
L 378.157638 181.642467 
L 378.737378 181.366215 
L 379.317119 182.14388 
L 379.606989 180.702184 
L 379.896859 181.131757 
L 380.186729 181.293721 
L 380.476599 180.934853 
L 380.766469 181.029025 
L 381.056339 181.84112 
L 381.346209 181.075245 
L 381.63608 181.645691 
L 382.50569 181.209068 
L 382.79556 181.697049 
L 383.08543 181.304358 
L 383.3753 181.800731 
L 383.66517 181.822994 
L 383.955041 181.207423 
L 384.244911 181.309172 
L 384.534781 181.225346 
L 384.824651 181.636205 
L 385.114521 181.361757 
L 385.404391 181.749318 
L 385.694261 181.579193 
L 386.563872 181.553703 
L 386.853742 181.266989 
L 387.143612 181.62811 
L 387.433482 181.508618 
L 387.723352 181.681638 
L 388.303093 181.757448 
L 388.592963 181.843494 
L 388.882833 181.274246 
L 389.172703 181.889342 
L 389.462573 181.378323 
L 389.752443 181.883192 
L 390.332183 181.864901 
L 390.622054 181.842312 
L 391.201794 181.452042 
L 391.491664 181.670057 
L 391.781534 181.718032 
L 392.361274 181.548898 
L 392.651144 180.753878 
L 392.941015 181.241443 
L 393.230885 181.482671 
L 393.810625 181.486929 
L 394.100495 181.536142 
L 394.390365 181.760343 
L 394.680235 181.297336 
L 394.970106 181.610279 
L 395.259976 181.469966 
L 396.999196 181.843426 
L 397.289067 181.458134 
L 397.578937 181.873508 
L 397.868807 182.026648 
L 398.448547 181.671739 
L 398.738417 181.914428 
L 399.028287 181.650586 
L 399.318157 182.178105 
L 399.897898 181.441076 
L 400.187768 181.833657 
L 400.477638 181.172624 
L 400.767508 181.295659 
L 401.057378 181.926367 
L 401.637119 181.327458 
L 401.926989 181.305159 
L 402.216859 181.417141 
L 402.796599 181.903998 
L 403.086469 181.697418 
L 403.376339 181.785847 
L 403.666209 181.507624 
L 403.95608 181.664356 
L 404.24595 182.113188 
L 404.53582 181.599762 
L 404.82569 181.815893 
L 405.11556 181.438996 
L 405.40543 181.888527 
L 405.6953 181.849666 
L 406.564911 181.297826 
L 406.854781 181.897426 
L 407.144651 181.899791 
L 407.434521 181.477058 
L 407.724391 181.658385 
L 408.594002 181.86535 
L 409.173742 181.32762 
L 409.463612 181.460468 
L 409.753482 181.807242 
L 410.623093 182.052626 
L 410.912963 182.018695 
L 411.202833 181.868872 
L 411.492703 182.063088 
L 411.782573 181.921009 
L 412.072443 181.391191 
L 412.362313 181.494604 
L 412.652183 181.401483 
L 412.942054 181.834328 
L 413.521794 181.707132 
L 414.101534 181.743471 
L 414.391404 181.415848 
L 414.681274 181.810782 
L 414.971144 181.884912 
L 415.550885 181.248831 
L 416.130625 181.488627 
L 416.420495 181.52042 
L 416.710365 181.254669 
L 417.000235 181.528004 
L 417.290106 181.443039 
L 417.579976 181.840267 
L 417.869846 181.845332 
L 418.159716 181.490288 
L 418.449586 181.654259 
L 418.739456 181.411453 
L 419.029326 181.533898 
L 419.319196 181.976768 
L 419.609067 181.514771 
L 419.898937 181.592697 
L 420.188807 181.438598 
L 420.768547 181.753403 
L 421.058417 181.912763 
L 421.638157 181.736755 
L 421.928028 181.807545 
L 422.217898 181.690725 
L 422.507768 181.911436 
L 422.797638 181.806047 
L 423.087508 181.938551 
L 423.377378 181.494397 
L 423.667248 181.592661 
L 423.957119 181.022009 
L 424.536859 181.577588 
L 424.826729 181.430094 
L 425.116599 181.692156 
L 425.406469 181.229433 
L 425.696339 181.530109 
L 425.986209 181.510832 
L 426.27608 181.647804 
L 426.56595 181.451512 
L 426.85582 180.858173 
L 427.14569 181.29498 
L 427.43556 181.225573 
L 427.72543 181.498542 
L 428.0153 181.578933 
L 428.30517 181.189674 
L 428.595041 181.42433 
L 428.884911 181.838708 
L 429.174781 181.634412 
L 429.464651 181.901887 
L 430.334261 181.437522 
L 430.624131 181.875266 
L 431.493742 181.273501 
L 431.783612 181.464215 
L 432.073482 181.869559 
L 432.363352 181.514982 
L 432.943093 181.477865 
L 433.522833 181.090554 
L 433.812703 181.125148 
L 434.102573 181.333768 
L 434.682313 181.180575 
L 434.972183 181.437622 
L 435.262054 181.415829 
L 435.551924 181.034219 
L 435.841794 181.513499 
L 436.131664 181.271683 
L 436.421534 181.677524 
L 437.001274 181.310056 
L 437.581015 181.110963 
L 437.870885 181.032935 
L 438.160755 181.407717 
L 438.450625 181.252521 
L 439.030365 181.229856 
L 439.320235 181.002191 
L 439.610106 181.370231 
L 439.899976 181.176056 
L 440.189846 181.122167 
L 441.059456 181.285982 
L 441.349326 181.32131 
L 441.639196 181.529299 
L 441.929067 181.160873 
L 442.218937 181.306721 
L 442.508807 180.989817 
L 442.798677 181.390401 
L 443.088547 180.95902 
L 443.378417 180.897879 
L 444.248028 181.315517 
L 444.827768 181.166751 
L 445.407508 181.542666 
L 445.697378 181.495931 
L 445.987248 181.634351 
L 446.277119 181.352787 
L 446.856859 181.146566 
L 447.146729 181.565958 
L 447.436599 181.406342 
L 447.726469 181.402117 
L 448.016339 181.216916 
L 448.306209 180.879316 
L 448.59608 181.289625 
L 448.88595 181.456855 
L 449.17582 181.440792 
L 449.46569 181.63946 
L 449.75556 181.209183 
L 450.04543 181.133027 
L 450.62517 181.432904 
L 450.915041 181.23675 
L 451.204911 181.291353 
L 452.364391 181.133215 
L 452.654261 181.197257 
L 452.944131 181.460739 
L 453.234002 181.349707 
L 453.523872 180.776414 
L 453.813742 181.074406 
L 454.103612 181.172411 
L 454.683352 181.089392 
L 454.973222 181.399396 
L 455.263093 181.17251 
L 455.842833 181.313571 
L 456.132703 181.246441 
L 456.422573 181.419497 
L 456.712443 181.332542 
L 457.002313 181.596243 
L 457.292183 181.579064 
L 457.582054 181.222241 
L 458.161794 181.406437 
L 458.451664 181.898546 
L 458.741534 181.861239 
L 459.031404 181.960052 
L 459.611144 181.41851 
L 459.901015 181.605858 
L 460.190885 181.627459 
L 460.770625 180.900183 
L 461.060495 181.557718 
L 461.350365 181.674811 
L 462.219976 181.296289 
L 462.509846 181.366604 
L 463.089586 180.99909 
L 463.379456 181.4416 
L 463.669326 181.395215 
L 463.959196 181.486239 
L 464.828807 180.985482 
L 465.408547 181.756134 
L 465.698417 181.425716 
L 466.278157 181.771701 
L 466.568028 181.497585 
L 466.857898 181.737434 
L 467.147768 181.715865 
L 467.437638 181.075738 
L 467.727508 181.615182 
L 468.017378 181.687665 
L 468.307248 181.195419 
L 468.597119 180.966697 
L 468.886989 181.318864 
L 469.176859 181.004544 
L 469.466729 181.139349 
L 470.046469 181.549465 
L 470.336339 181.008634 
L 471.20595 181.74093 
L 471.49582 181.57486 
L 471.78569 181.196054 
L 472.36543 181.386718 
L 472.6553 181.194902 
L 473.235041 181.45957 
L 473.814781 181.235023 
L 474.104651 181.254574 
L 474.394521 181.605993 
L 474.684391 181.195828 
L 474.974261 181.692224 
L 475.554002 181.309798 
L 476.133742 181.421142 
L 476.423612 181.698777 
L 476.713482 181.042027 
L 477.583093 181.445471 
L 477.872963 181.31081 
L 478.162833 181.327594 
L 478.452703 181.11666 
L 478.742573 181.162544 
L 479.032443 181.388371 
L 479.322313 180.929671 
L 479.902054 180.956782 
L 480.191924 181.107553 
L 480.481794 180.957793 
L 480.771664 180.969267 
L 481.061534 181.129155 
L 481.351404 181.00983 
L 481.641274 181.196754 
L 481.931144 181.021908 
L 482.221015 181.102313 
L 482.510885 180.948431 
L 482.800755 181.297166 
L 483.090625 181.165441 
L 483.670365 181.379923 
L 483.960235 181.24827 
L 484.250106 181.245206 
L 484.539976 181.014085 
L 484.829846 181.268584 
L 485.409586 181.067971 
L 485.699456 181.133632 
L 486.279196 180.966421 
L 486.569067 181.198961 
L 486.858937 181.276763 
L 487.148807 180.771982 
L 488.308287 181.271907 
L 488.888028 181.630018 
L 489.177898 181.248319 
L 489.467768 181.327156 
L 489.757638 181.039197 
L 490.627248 180.947379 
L 490.917119 181.121538 
L 491.206989 180.708901 
L 491.786729 180.584239 
L 492.076599 180.833558 
L 492.366469 181.293264 
L 492.656339 181.405414 
L 492.946209 180.896941 
L 493.23608 181.035514 
L 494.10569 180.936077 
L 494.68543 181.148888 
L 494.9753 180.999466 
L 495.555041 181.283075 
L 496.134781 181.158665 
L 496.424651 180.980033 
L 496.714521 181.131137 
L 497.004391 181.11259 
L 497.294261 181.258273 
L 497.874002 181.027846 
L 498.163872 181.153425 
L 498.743612 180.970333 
L 499.323352 180.963251 
L 499.903093 181.057717 
L 500.482833 180.92849 
L 501.062573 181.128635 
L 501.642313 180.888857 
L 502.222054 181.018296 
L 502.511924 180.95006 
L 502.801794 181.00235 
L 503.091664 180.809315 
L 503.961274 181.626655 
L 504.251144 181.329525 
L 504.541015 181.442471 
L 504.830885 181.13052 
L 505.120755 181.399724 
L 505.410625 181.126611 
L 505.700495 181.144814 
L 506.280235 180.633508 
L 506.570106 180.790328 
L 506.859976 180.786827 
L 507.149846 180.958344 
L 507.439716 180.626251 
L 507.729586 180.840996 
L 508.599196 180.887006 
L 508.889067 181.184334 
L 509.178937 181.170837 
L 509.468807 181.397779 
L 510.338417 181.4434 
L 510.628287 180.909454 
L 510.918157 180.912085 
L 511.497898 181.288611 
L 512.367508 180.91234 
L 512.657378 181.251044 
L 512.947248 181.219561 
L 513.237119 180.908751 
L 514.396599 181.323486 
L 514.686469 181.04596 
L 514.976339 181.106774 
L 515.266209 180.716366 
L 515.84595 181.689367 
L 516.13582 181.369765 
L 516.42569 181.469591 
L 516.71556 181.425079 
L 517.00543 181.591382 
L 517.2953 181.520574 
L 517.58517 180.96498 
L 518.164911 181.444721 
L 518.454781 181.414505 
L 518.744651 180.965178 
L 519.034521 181.091142 
L 519.324391 180.600008 
L 519.614261 178.195744 
L 519.904131 180.335918 
L 520.194002 181.304346 
L 520.483872 180.632877 
L 520.773742 180.689646 
L 521.353482 181.17833 
L 521.933222 180.614472 
L 522.223093 180.603363 
L 522.802833 181.402396 
L 523.382573 181.079732 
L 523.962313 180.761105 
L 524.252183 181.091421 
L 524.542054 181.197466 
L 524.831924 180.940109 
L 525.411664 181.445612 
L 525.701534 181.064918 
L 525.991404 181.520251 
L 526.281274 181.185867 
L 526.571144 181.034077 
L 527.150885 181.469962 
L 527.730625 181.220537 
L 528.600235 181.170599 
L 528.890106 181.419236 
L 529.179976 181.100528 
L 529.759716 181.259376 
L 530.049586 180.914987 
L 530.339456 181.27989 
L 530.629326 180.601183 
L 530.919196 180.813282 
L 531.209067 180.734188 
L 531.498937 180.885173 
L 531.788807 180.684073 
L 532.368547 181.44531 
L 532.948287 181.42527 
L 533.238157 181.13163 
L 533.528028 181.163901 
L 533.817898 181.329058 
L 534.107768 181.086477 
L 534.397638 181.348427 
L 534.977378 181.314705 
L 535.267248 180.992435 
L 535.557119 181.072758 
L 535.846989 181.020047 
L 536.136859 181.579128 
L 536.426729 181.223946 
L 537.006469 181.02497 
L 537.87608 181.276464 
L 538.16595 181.100499 
L 538.45582 181.225573 
L 538.74569 180.992601 
L 539.03556 181.258336 
L 539.32543 181.150322 
L 540.195041 181.296014 
L 540.484911 180.854017 
L 540.774781 181.515229 
L 541.064651 180.702824 
L 541.644391 181.390042 
L 541.934261 180.9192 
L 542.514002 181.136893 
L 542.803872 181.155831 
L 543.093742 180.91396 
L 543.383612 181.228419 
L 543.673482 180.874791 
L 543.963352 181.344017 
L 544.253222 181.086922 
L 544.543093 181.359759 
L 544.832963 181.002714 
L 545.412703 180.746402 
L 546.282313 181.19567 
L 546.862054 181.028098 
L 547.151924 181.260594 
L 547.441794 181.124131 
L 548.311404 181.452992 
L 548.601274 180.969291 
L 548.891144 180.891601 
L 549.181015 180.553723 
L 549.470885 180.830379 
L 551.210106 180.921729 
L 551.789846 181.306288 
L 552.079716 181.140257 
L 552.659456 181.049901 
L 552.949326 180.874135 
L 553.239196 181.220252 
L 553.529067 181.147729 
L 553.818937 181.232543 
L 554.108807 181.127042 
L 554.688547 181.235119 
L 554.978417 180.923689 
L 555.268287 181.301152 
L 555.558157 180.851945 
L 556.717638 181.230405 
L 557.007508 180.951801 
L 557.297378 181.17697 
L 557.587248 180.914806 
L 557.877119 181.085157 
L 558.166989 180.804534 
L 558.456859 181.122564 
L 559.036599 180.935161 
L 559.326469 181.134084 
L 559.616339 180.869549 
L 560.19608 180.841789 
L 560.48595 181.07211 
L 560.77582 180.817081 
L 561.06569 180.995654 
L 561.35556 180.972251 
L 561.64543 180.680751 
L 561.9353 181.034491 
L 562.22517 181.045023 
L 562.515041 181.176391 
L 562.804911 181.05166 
L 563.094781 181.10928 
L 563.384651 181.362863 
L 563.964391 181.145791 
L 564.544131 181.455469 
L 564.834002 181.126605 
L 565.123872 181.258855 
L 565.993482 181.084195 
L 566.283352 181.426523 
L 566.573222 181.582109 
L 566.863093 181.415061 
L 567.152963 181.769752 
L 567.442833 180.838184 
L 567.732703 181.292165 
L 568.022573 181.192071 
L 568.312443 180.890976 
L 568.602313 180.890706 
L 569.182054 181.517277 
L 569.471924 181.178283 
L 569.761794 181.067059 
L 570.051664 181.477957 
L 570.341534 181.522186 
L 570.631404 181.274997 
L 571.211144 181.204813 
L 571.501015 180.90992 
L 571.790885 180.940753 
L 572.080755 181.345957 
L 572.370625 181.26618 
L 572.660495 181.357045 
L 572.950365 181.117432 
L 573.240235 181.315114 
L 573.819976 181.28821 
L 574.689586 181.801642 
L 574.979456 181.760866 
L 575.559196 181.13773 
L 575.849067 181.161489 
L 576.138937 180.797015 
L 576.428807 181.231943 
L 576.718677 181.227049 
L 577.008547 181.087179 
L 577.878157 181.289441 
L 578.457898 181.70623 
L 578.747768 181.399366 
L 579.037638 181.552 
L 579.907248 181.196248 
L 580.486989 181.533052 
L 580.776859 181.182404 
L 581.066729 181.162531 
L 581.356599 181.268562 
L 581.646469 181.166188 
L 581.936339 181.237255 
L 582.226209 181.508306 
L 582.51608 181.217322 
L 582.80595 181.174004 
L 583.09582 181.448423 
L 583.96543 180.993825 
L 584.54517 181.211348 
L 585.124911 180.853506 
L 585.704651 181.251321 
L 585.994521 181.036013 
L 586.284391 181.236788 
L 586.574261 180.91502 
L 587.154002 181.260197 
L 587.443872 180.992569 
L 587.733742 180.906492 
L 588.023612 181.264495 
L 588.313482 181.337705 
L 588.603352 181.141876 
L 588.893222 181.401987 
L 589.183093 181.083603 
L 589.472963 181.15513 
L 589.762833 181.099415 
L 590.052703 181.461185 
L 590.342573 180.995664 
L 590.632443 181.027961 
L 590.922313 181.254851 
L 591.212183 180.992565 
L 592.081794 180.835867 
L 592.371664 181.28522 
L 592.661534 181.136979 
L 593.531144 181.057248 
L 593.821015 181.334315 
L 594.110885 181.008874 
L 594.400755 181.149922 
L 595.850106 181.151976 
L 596.139976 181.587694 
L 596.429846 181.344564 
L 596.719716 181.559964 
L 597.009586 181.217784 
L 597.589326 181.191891 
L 597.879196 181.123444 
L 598.169067 181.369443 
L 598.458937 181.240362 
L 598.748807 181.427559 
L 599.038677 181.157927 
L 599.618417 181.055463 
L 599.908287 181.306174 
L 600.198157 181.097812 
L 600.488028 181.036483 
L 600.777898 181.110304 
L 601.067768 181.516375 
L 601.937378 181.340823 
L 602.227248 181.411133 
L 602.517119 181.646827 
L 602.806989 181.29806 
L 603.096859 181.469156 
L 603.386729 181.324528 
L 603.676599 181.323779 
L 603.966469 181.094255 
L 604.256339 181.443039 
L 604.83608 181.251748 
L 605.12595 181.493639 
L 605.41582 181.096465 
L 605.70569 181.354825 
L 605.99556 181.248849 
L 606.28543 180.903714 
L 606.5753 181.30448 
L 606.86517 181.07765 
L 608.604391 181.447581 
L 608.894261 181.633296 
L 609.184131 181.411465 
L 609.474002 181.615869 
L 609.763872 181.299058 
L 610.053742 181.521007 
L 610.343612 181.036321 
L 610.633482 181.244403 
L 610.923352 181.005535 
L 611.213222 181.371929 
L 611.503093 181.507278 
L 612.372703 181.372458 
L 612.952443 181.445029 
L 613.242313 181.618564 
L 613.822054 181.375098 
L 614.401794 181.588986 
L 614.691664 181.396585 
L 615.271404 181.392479 
L 615.561274 181.283104 
L 616.141015 181.400861 
L 616.430885 181.548934 
L 617.010625 181.463861 
L 617.590365 181.141053 
L 618.170106 181.472924 
L 618.459976 181.279482 
L 620.778937 181.559974 
L 621.358677 181.047783 
L 621.648547 181.310111 
L 622.228287 181.440316 
L 622.518157 181.27208 
L 622.808028 181.583037 
L 623.097898 181.413462 
L 623.387768 181.595696 
L 623.677638 181.379148 
L 623.967508 181.532002 
L 624.257378 181.369503 
L 624.547248 181.355839 
L 625.126989 181.715865 
L 625.126989 181.715865 
" clip-path="url(#p64377aaad3)" style="fill: none; stroke: #1f77b4; stroke-width: 1.5; stroke-linecap: square"/>
   </g>
   <g id="line2d_15">
    <path d="M 117.854261 296.03625 
L 118.144131 281.604935 
L 118.434002 284.937888 
L 118.723872 246.001987 
L 119.013742 270.950308 
L 119.303612 246.561247 
L 119.883352 226.968639 
L 120.173222 210.778769 
L 120.463093 215.903882 
L 120.752963 216.941819 
L 121.912443 203.915034 
L 122.202313 202.60435 
L 122.782054 210.825042 
L 123.071924 216.91855 
L 123.361794 216.352314 
L 123.651664 218.493547 
L 123.941534 215.598695 
L 124.521274 221.377916 
L 124.811144 221.237981 
L 125.101015 209.700687 
L 125.390885 203.982905 
L 125.680755 201.936608 
L 125.970625 196.027266 
L 126.260495 195.848203 
L 126.550365 187.438441 
L 126.840235 190.141416 
L 127.419976 188.949437 
L 127.709846 190.792885 
L 127.999716 190.124215 
L 128.289586 190.46342 
L 128.579456 189.313475 
L 128.869326 188.765514 
L 129.159196 185.85427 
L 129.449067 186.505182 
L 129.738937 185.489899 
L 130.028807 185.992536 
L 130.318677 187.428099 
L 130.608547 187.422095 
L 131.478157 184.904326 
L 131.768028 186.32159 
L 132.057898 184.280463 
L 132.347768 185.073553 
L 132.637638 187.132296 
L 133.507248 184.810089 
L 133.797119 185.770033 
L 134.086989 184.676514 
L 134.376859 184.446925 
L 134.666729 184.73742 
L 134.956599 185.756947 
L 135.246469 184.552798 
L 135.536339 184.889511 
L 135.826209 184.004759 
L 136.11608 183.901411 
L 136.40595 184.210607 
L 136.69582 183.773288 
L 136.98569 183.881292 
L 137.27556 184.302752 
L 137.56543 184.383936 
L 137.8553 184.847795 
L 138.14517 183.874218 
L 138.435041 183.985069 
L 138.724911 184.487505 
L 139.014781 182.909122 
L 139.304651 182.846106 
L 139.594521 183.355634 
L 139.884391 184.113366 
L 140.174261 183.175639 
L 140.464131 183.903217 
L 140.754002 183.699209 
L 141.043872 183.061725 
L 141.333742 183.196088 
L 141.623612 185.027866 
L 142.203352 183.024234 
L 142.493222 183.024664 
L 142.783093 182.908792 
L 143.072963 182.921731 
L 143.362833 183.446698 
L 143.652703 183.231953 
L 143.942573 183.782402 
L 144.232443 183.157305 
L 144.812183 183.542492 
L 145.102054 183.446975 
L 145.391924 182.928913 
L 145.681794 183.836236 
L 145.971664 183.736315 
L 146.261534 183.907988 
L 146.551404 183.273056 
L 146.841274 183.490009 
L 147.131144 182.720341 
L 147.421015 182.625096 
L 147.710885 182.920247 
L 148.000755 183.852156 
L 148.290625 182.802564 
L 148.580495 182.738626 
L 148.870365 182.801259 
L 149.450106 183.681555 
L 149.739976 182.885937 
L 150.029846 183.817856 
L 150.319716 183.130461 
L 150.609586 183.143888 
L 151.189326 182.841679 
L 151.479196 183.534285 
L 151.769067 182.956399 
L 152.058937 183.1017 
L 152.348807 183.593199 
L 152.638677 183.231413 
L 152.928547 183.494154 
L 153.218417 182.587269 
L 153.798157 183.233486 
L 154.088028 183.014462 
L 154.377898 183.921541 
L 154.667768 183.145828 
L 154.957638 184.071561 
L 155.247508 183.153563 
L 155.537378 183.120939 
L 155.827248 183.217194 
L 156.117119 182.82653 
L 156.406989 183.195985 
L 156.696859 183.2152 
L 156.986729 182.068551 
L 157.276599 182.517478 
L 157.566469 183.2954 
L 157.856339 183.449769 
L 158.146209 183.395169 
L 158.43608 183.713621 
L 158.72595 182.791018 
L 159.01582 182.950666 
L 159.30569 183.437971 
L 159.59556 183.397177 
L 159.88543 182.63061 
L 160.1753 183.785292 
L 160.46517 182.474261 
L 160.755041 183.387489 
L 161.044911 182.480907 
L 161.334781 183.151485 
L 161.914521 182.730728 
L 162.204391 183.290475 
L 162.494261 182.409606 
L 162.784131 182.700566 
L 163.074002 183.743703 
L 163.363872 182.943793 
L 164.233482 182.818776 
L 164.523352 183.03813 
L 164.813222 182.991935 
L 165.103093 183.939272 
L 165.392963 183.640936 
L 165.682833 182.692036 
L 165.972703 182.555659 
L 166.262573 182.842249 
L 166.552443 182.57223 
L 166.842313 183.123184 
L 167.132183 182.891681 
L 167.422054 183.99973 
L 168.001794 182.255185 
L 168.291664 182.325751 
L 168.871404 182.950932 
L 169.161274 182.766578 
L 169.451144 183.213411 
L 169.741015 182.990066 
L 170.030885 183.10962 
L 170.320755 182.88939 
L 170.610625 183.19995 
L 170.900495 182.548171 
L 171.190365 182.331845 
L 171.480235 182.754582 
L 171.770106 182.386773 
L 172.059976 182.499166 
L 172.349846 183.056651 
L 172.639716 182.807802 
L 172.929586 183.105543 
L 173.219456 182.743468 
L 173.509326 183.52151 
L 173.799196 182.973611 
L 175.248547 183.079528 
L 175.828287 182.606775 
L 176.118157 182.513927 
L 176.697898 182.752587 
L 176.987768 183.008193 
L 177.277638 183.679111 
L 177.857378 182.806429 
L 178.147248 182.954243 
L 179.306729 183.070869 
L 179.596599 183.105361 
L 179.886469 182.863134 
L 180.466209 183.206005 
L 181.04595 182.746778 
L 181.91556 183.573065 
L 182.20543 183.018668 
L 182.4953 183.043531 
L 182.78517 183.317399 
L 183.364911 183.136009 
L 183.654781 183.506695 
L 183.944651 183.383708 
L 184.234521 183.030956 
L 184.814261 183.255503 
L 185.104131 183.74766 
L 185.394002 183.539514 
L 185.683872 184.122744 
L 185.973742 183.116812 
L 186.263612 183.055189 
L 186.843352 183.218949 
L 187.712963 183.497466 
L 188.002833 183.173385 
L 188.292703 183.701313 
L 188.582573 183.1398 
L 189.162313 183.983366 
L 189.452183 183.509783 
L 189.742054 183.31685 
L 190.031924 183.477441 
L 190.321794 182.976603 
L 190.611664 183.427922 
L 190.901534 183.32973 
L 191.191404 182.693731 
L 191.481274 183.190847 
L 191.771144 182.878586 
L 192.061015 183.631742 
L 192.350885 183.532027 
L 192.640755 184.148137 
L 192.930625 183.484397 
L 193.510365 183.193172 
L 193.800235 183.484256 
L 194.090106 183.52136 
L 194.669846 182.983246 
L 194.959716 183.474534 
L 195.249586 183.229546 
L 195.539456 183.502455 
L 195.829326 183.333029 
L 196.119196 183.590888 
L 196.409067 183.320601 
L 196.698937 183.380472 
L 196.988807 183.071998 
L 197.278677 183.440573 
L 197.568547 183.385062 
L 197.858417 183.523604 
L 198.148287 183.365623 
L 198.438157 183.015156 
L 198.728028 183.250515 
L 199.017898 184.034514 
L 199.307768 183.839587 
L 199.597638 183.988011 
L 199.887508 183.312729 
L 200.177378 183.503067 
L 200.467248 183.375753 
L 200.757119 183.544545 
L 201.046989 183.094009 
L 201.626729 183.721852 
L 201.916599 183.432648 
L 202.206469 183.598003 
L 202.496339 182.852362 
L 202.786209 183.394857 
L 203.36595 183.282232 
L 203.94569 184.269199 
L 204.23556 183.427617 
L 204.52543 183.745692 
L 204.8153 183.455576 
L 205.395041 183.798223 
L 205.684911 183.654011 
L 205.974781 183.747524 
L 206.264651 183.490886 
L 206.554521 183.697737 
L 206.844391 183.543973 
L 207.134261 183.584663 
L 207.424131 183.770174 
L 207.714002 183.322506 
L 208.003872 183.880069 
L 208.293742 183.989708 
L 208.583612 183.367329 
L 208.873482 183.600689 
L 209.453222 183.696709 
L 209.743093 184.280465 
L 210.032963 183.46197 
L 210.612703 183.7913 
L 210.902573 183.806285 
L 211.192443 183.094654 
L 211.772183 183.904287 
L 212.062054 183.294811 
L 212.351924 183.580542 
L 213.221534 183.662428 
L 213.511404 183.316345 
L 213.801274 183.534865 
L 214.091144 183.912978 
L 214.381015 184.048144 
L 214.670885 183.461047 
L 215.250625 183.752332 
L 215.540495 183.61315 
L 215.830365 184.063493 
L 216.120235 183.592658 
L 216.410106 183.870614 
L 216.699976 183.186031 
L 216.989846 183.964145 
L 217.279716 183.160091 
L 217.569586 183.861212 
L 217.859456 183.292585 
L 218.149326 183.516306 
L 218.439196 183.331213 
L 218.729067 183.617877 
L 219.018937 183.525817 
L 219.308807 183.292991 
L 219.598677 183.480584 
L 219.888547 183.852578 
L 220.468287 183.79079 
L 220.758157 183.497384 
L 221.048028 183.815023 
L 221.337898 184.341255 
L 221.627768 183.225012 
L 221.917638 183.734344 
L 222.207508 183.358944 
L 222.497378 183.242344 
L 222.787248 183.601829 
L 223.077119 183.476473 
L 223.366989 183.648195 
L 223.656859 183.675303 
L 223.946729 183.545577 
L 224.236599 183.551833 
L 224.526469 183.68815 
L 224.816339 184.067365 
L 225.106209 184.011006 
L 225.68595 183.518072 
L 225.97582 183.905989 
L 226.26569 183.72298 
L 226.55556 184.051702 
L 226.84543 183.556504 
L 227.42517 183.560879 
L 227.715041 183.850074 
L 228.004911 183.510944 
L 228.294781 183.786796 
L 228.584651 183.574853 
L 228.874521 184.06199 
L 229.164391 183.535886 
L 229.454261 183.619326 
L 229.744131 184.003903 
L 230.323872 184.168796 
L 230.613742 183.648536 
L 230.903612 184.069936 
L 231.193482 183.989729 
L 231.483352 184.104739 
L 231.773222 183.551519 
L 232.063093 184.201567 
L 232.642833 183.335254 
L 232.932703 183.935562 
L 233.222573 183.628661 
L 233.512443 183.608723 
L 233.802313 183.338168 
L 234.092183 183.369248 
L 234.382054 183.728027 
L 234.671924 183.653923 
L 234.961794 183.871679 
L 235.251664 183.500933 
L 235.541534 183.804692 
L 235.831404 183.557266 
L 236.121274 183.536052 
L 236.411144 183.677491 
L 236.701015 183.511561 
L 236.990885 183.818911 
L 237.280755 183.680106 
L 237.570625 183.316719 
L 238.150365 184.030771 
L 238.440235 183.89653 
L 238.730106 183.561905 
L 239.019976 183.963076 
L 239.309846 183.589406 
L 239.599716 183.671066 
L 239.889586 184.032846 
L 240.469326 183.734416 
L 241.049067 183.984267 
L 241.338937 184.460725 
L 241.918677 183.955757 
L 242.208547 183.371575 
L 242.498417 183.800792 
L 242.788287 183.811522 
L 243.078157 184.438955 
L 243.368028 183.90586 
L 243.657898 183.751405 
L 243.947768 184.136892 
L 244.237638 184.113377 
L 244.527508 184.361561 
L 244.817378 183.893618 
L 245.397119 184.154274 
L 245.686989 183.986099 
L 245.976859 184.031172 
L 246.266729 184.746893 
L 246.556599 183.829595 
L 246.846469 184.525654 
L 247.426209 184.484841 
L 247.71608 183.539757 
L 248.00595 184.396892 
L 248.29582 183.562071 
L 248.58569 184.058096 
L 248.87556 184.027067 
L 249.4553 183.606717 
L 249.74517 184.135914 
L 250.324911 183.971408 
L 250.614781 183.836393 
L 250.904651 184.141271 
L 251.194521 183.986363 
L 251.484391 184.560163 
L 251.774261 184.119487 
L 252.354002 184.380259 
L 252.643872 183.942237 
L 252.933742 184.577942 
L 253.223612 184.126651 
L 253.513482 184.089082 
L 253.803352 184.519843 
L 254.093222 184.160777 
L 254.383093 184.141598 
L 254.672963 183.727954 
L 254.962833 184.247347 
L 255.252703 183.795225 
L 255.542573 183.797496 
L 255.832443 183.976826 
L 256.122313 184.007656 
L 256.412183 184.432068 
L 256.991924 184.492172 
L 257.281794 183.747344 
L 257.571664 183.93629 
L 257.861534 184.274464 
L 258.151404 184.085552 
L 258.441274 183.680952 
L 258.731144 184.109062 
L 259.021015 183.982663 
L 259.310885 184.470374 
L 259.600755 183.848077 
L 259.890625 184.292654 
L 260.180495 184.252351 
L 260.470365 184.65116 
L 261.050106 183.831811 
L 261.339976 184.151975 
L 261.629846 183.759917 
L 261.919716 184.046638 
L 262.209586 183.293369 
L 262.499456 183.455596 
L 263.369067 184.395394 
L 263.658937 184.200659 
L 263.948807 183.62969 
L 264.238677 183.918979 
L 264.528547 183.887444 
L 264.818417 183.680268 
L 265.108287 184.121697 
L 265.688028 183.577968 
L 265.977898 183.406932 
L 266.847508 184.174193 
L 267.137378 183.406188 
L 267.427248 183.566256 
L 267.717119 184.112185 
L 268.296859 183.857474 
L 268.876599 183.345625 
L 269.456339 184.10976 
L 269.746209 183.552716 
L 270.03608 183.578276 
L 270.32595 183.451638 
L 270.90569 183.804361 
L 271.19556 183.562106 
L 271.48543 183.65838 
L 271.7753 183.506233 
L 272.934781 183.5843 
L 273.224651 183.401444 
L 273.514521 183.679564 
L 273.804391 183.625895 
L 274.094261 184.167791 
L 274.384131 183.337589 
L 274.674002 183.581917 
L 274.963872 183.259873 
L 275.253742 183.674293 
L 275.833482 183.769385 
L 276.123352 183.061354 
L 276.992963 183.900729 
L 277.282833 183.444012 
L 277.862573 183.288519 
L 278.152443 183.655874 
L 278.442313 183.632594 
L 278.732183 183.295308 
L 279.022054 183.364492 
L 279.311924 183.186586 
L 279.601794 183.503763 
L 280.471404 183.32978 
L 280.761274 183.466503 
L 281.051144 183.454851 
L 281.341015 183.076589 
L 281.630885 183.41821 
L 281.920755 183.524796 
L 282.210625 182.842981 
L 282.500495 183.131057 
L 283.080235 183.245596 
L 283.370106 183.376076 
L 283.659976 183.107833 
L 283.949846 183.460305 
L 284.239716 183.425541 
L 284.529586 183.241457 
L 285.109326 183.619045 
L 285.399196 183.147681 
L 285.689067 183.273929 
L 286.268807 183.159597 
L 286.558677 183.491664 
L 286.848547 183.561443 
L 287.138417 183.185605 
L 287.428287 183.588135 
L 287.718157 183.219707 
L 288.008028 183.087308 
L 288.587768 183.410961 
L 288.877638 183.24749 
L 289.457378 183.111364 
L 289.747248 183.54411 
L 290.037119 183.164345 
L 290.326989 183.752388 
L 290.616859 182.989223 
L 291.776339 183.309707 
L 292.066209 183.410028 
L 292.35608 183.065202 
L 292.64595 183.062422 
L 293.22569 183.589781 
L 293.51556 183.391143 
L 293.80543 182.950594 
L 294.38517 183.592637 
L 294.964911 183.61025 
L 295.254781 183.113705 
L 295.544651 182.873457 
L 295.834521 183.084194 
L 296.124391 183.452025 
L 296.414261 182.923494 
L 296.704131 183.434375 
L 297.283872 182.997813 
L 297.573742 183.315565 
L 297.863612 183.145289 
L 298.443352 183.57406 
L 298.733222 183.260156 
L 299.312963 183.06024 
L 299.602833 183.147698 
L 300.182573 182.782334 
L 300.472443 183.381895 
L 300.762313 182.975455 
L 301.052183 183.442126 
L 301.342054 183.106796 
L 301.631924 183.474376 
L 301.921794 182.835026 
L 302.211664 183.149862 
L 302.501534 183.087538 
L 302.791404 183.411053 
L 303.081274 183.168374 
L 303.371144 183.180928 
L 303.661015 183.325319 
L 303.950885 182.791654 
L 304.240755 182.55984 
L 304.530625 182.914375 
L 304.820495 182.917697 
L 305.400235 183.183789 
L 305.979976 183.159303 
L 306.559716 183.012312 
L 306.849586 182.604557 
L 307.139456 183.046112 
L 307.429326 183.195119 
L 307.719196 182.889687 
L 308.009067 182.996916 
L 308.588807 183.026144 
L 309.168547 183.267688 
L 309.458417 182.864167 
L 309.748287 182.900338 
L 310.038157 183.192053 
L 310.328028 183.121054 
L 310.617898 183.387414 
L 311.197638 182.854778 
L 311.487508 182.99409 
L 311.777378 182.84007 
L 312.067248 182.958257 
L 312.357119 183.343694 
L 312.646989 182.8654 
L 312.936859 183.227404 
L 313.226729 183.320284 
L 313.516599 182.946414 
L 313.806469 182.853768 
L 314.096339 183.247682 
L 314.96595 183.227195 
L 315.25582 183.543206 
L 315.54569 183.115228 
L 315.83556 183.077924 
L 316.12543 182.86555 
L 316.4153 183.262107 
L 316.70517 183.17484 
L 316.995041 182.869864 
L 317.574781 183.181223 
L 317.864651 182.948603 
L 318.444391 182.98284 
L 318.734261 183.411502 
L 319.024131 183.456222 
L 319.314002 183.160918 
L 319.603872 183.315215 
L 319.893742 183.187405 
L 320.183612 183.406213 
L 320.473482 182.721065 
L 320.763352 183.299725 
L 321.053222 183.430653 
L 321.632963 183.090215 
L 322.212703 183.392291 
L 322.502573 183.283125 
L 322.792443 182.707293 
L 323.372183 183.587734 
L 323.662054 183.586786 
L 323.951924 183.027914 
L 324.241794 183.120785 
L 324.821534 182.952666 
L 325.401274 183.340357 
L 326.850625 183.243999 
L 327.140495 183.015496 
L 327.720235 183.388726 
L 328.589846 183.245335 
L 328.879716 183.526566 
L 329.459456 183.38595 
L 329.749326 183.678664 
L 330.039196 183.587264 
L 330.329067 183.229104 
L 330.618937 183.244474 
L 331.198677 183.591564 
L 331.488547 182.83058 
L 332.068287 183.467039 
L 332.937898 183.012192 
L 333.227768 183.285372 
L 333.517638 182.856099 
L 334.097378 183.321429 
L 334.387248 183.278836 
L 334.677119 183.06228 
L 334.966989 183.08701 
L 335.256859 182.810761 
L 335.546729 183.033006 
L 336.126469 183.205329 
L 336.416339 182.746892 
L 336.706209 183.668937 
L 336.99608 183.280835 
L 337.57582 182.987819 
L 337.86569 182.980378 
L 338.15556 182.689718 
L 338.44543 182.881797 
L 338.7353 183.238529 
L 339.02517 182.903573 
L 339.604911 183.278655 
L 339.894781 183.864914 
L 340.474521 182.881302 
L 341.054261 182.496939 
L 341.344131 182.964083 
L 341.634002 182.932074 
L 341.923872 183.328355 
L 342.213742 183.414942 
L 342.793482 183.08329 
L 343.083352 183.502748 
L 343.373222 183.406766 
L 343.663093 182.975909 
L 343.952963 183.033288 
L 344.242833 183.264682 
L 345.112443 183.125527 
L 347.141534 183.210635 
L 347.431404 183.390996 
L 348.011144 183.227618 
L 348.301015 183.139241 
L 348.590885 182.7976 
L 348.880755 183.158489 
L 349.170625 183.300028 
L 349.750365 182.631251 
L 350.040235 182.771337 
L 350.330106 183.118759 
L 350.619976 182.976473 
L 351.199716 183.497905 
L 352.069326 183.037855 
L 352.359196 183.406321 
L 352.649067 183.506245 
L 352.938937 183.117107 
L 353.228807 183.270517 
L 353.518677 183.069813 
L 353.808547 183.06227 
L 354.098417 183.500583 
L 354.388287 183.213128 
L 355.547768 183.231397 
L 355.837638 183.41181 
L 356.417378 183.051382 
L 356.707248 183.010845 
L 356.997119 183.358565 
L 357.866729 182.973402 
L 358.156599 183.439632 
L 358.446469 183.343979 
L 358.736339 183.451405 
L 359.026209 183.754983 
L 359.31608 183.196067 
L 359.60595 183.369495 
L 359.89582 182.879069 
L 360.18569 182.881103 
L 360.47556 183.323204 
L 361.0553 183.800187 
L 361.34517 183.416379 
L 361.635041 183.388463 
L 361.924911 182.964581 
L 362.214781 183.437921 
L 362.794521 183.108274 
L 363.374261 182.974154 
L 363.664131 182.937994 
L 363.954002 183.247622 
L 364.243872 183.255529 
L 364.533742 183.843212 
L 364.823612 182.950002 
L 365.983093 183.181687 
L 366.562833 183.507414 
L 366.852703 183.212241 
L 367.142573 183.569302 
L 367.432443 183.43711 
L 367.722313 183.118884 
L 368.012183 183.359822 
L 368.302054 183.312847 
L 368.591924 182.979613 
L 368.881794 183.438856 
L 369.171664 182.299609 
L 369.461534 181.762942 
L 369.751404 183.441184 
L 370.621015 182.961926 
L 370.910885 183.454121 
L 371.200755 183.175714 
L 371.490625 183.373462 
L 371.780495 182.405084 
L 372.070365 180.350935 
L 372.360235 180.307807 
L 373.229846 181.647799 
L 373.519716 181.67833 
L 373.809586 182.428926 
L 374.099456 181.779399 
L 374.389326 182.309822 
L 374.679196 181.950503 
L 375.258937 181.811203 
L 375.548807 182.112539 
L 375.838677 182.119962 
L 376.128547 183.012767 
L 376.708287 182.240705 
L 376.998157 182.865056 
L 377.288028 182.625435 
L 377.577898 182.555945 
L 377.867768 182.060638 
L 378.157638 181.790267 
L 378.447508 181.872344 
L 378.737378 182.292266 
L 379.027248 182.355283 
L 379.317119 182.651025 
L 379.606989 181.105141 
L 379.896859 181.664196 
L 380.186729 181.607785 
L 380.476599 181.839257 
L 380.766469 181.778432 
L 381.056339 182.066054 
L 381.346209 182.024339 
L 381.63608 182.132545 
L 382.21582 181.90766 
L 382.50569 182.047168 
L 382.79556 181.99583 
L 383.08543 182.254159 
L 383.3753 181.839294 
L 383.66517 182.432153 
L 383.955041 181.941677 
L 384.244911 182.270582 
L 384.534781 181.797613 
L 384.824651 181.937586 
L 385.114521 181.866494 
L 385.404391 182.105283 
L 385.694261 182.004853 
L 385.984131 181.770463 
L 386.274002 182.209652 
L 386.563872 182.15394 
L 386.853742 182.278743 
L 387.143612 182.0443 
L 387.723352 182.350906 
L 388.013222 181.991202 
L 388.592963 182.179557 
L 388.882833 182.057555 
L 389.172703 182.350878 
L 389.462573 182.414161 
L 389.752443 182.635928 
L 390.332183 182.199205 
L 390.622054 182.378853 
L 390.911924 182.341046 
L 391.201794 182.13528 
L 391.491664 182.076736 
L 391.781534 182.199744 
L 392.071404 182.111265 
L 392.361274 182.264371 
L 392.651144 181.75747 
L 392.941015 181.624852 
L 393.230885 182.026701 
L 393.810625 182.153099 
L 394.390365 182.247594 
L 394.680235 182.569226 
L 394.970106 182.231737 
L 395.259976 182.239436 
L 395.549846 181.855166 
L 395.839716 182.195919 
L 396.129586 182.236617 
L 396.419456 182.157868 
L 396.709326 182.442652 
L 396.999196 182.495546 
L 397.289067 181.732491 
L 397.578937 182.424756 
L 397.868807 182.535168 
L 398.158677 182.355891 
L 398.448547 182.012175 
L 398.738417 182.700203 
L 399.028287 182.243314 
L 399.318157 182.543644 
L 399.608028 182.660535 
L 399.897898 182.208276 
L 400.187768 182.065511 
L 400.477638 182.313926 
L 400.767508 182.199557 
L 401.057378 182.488326 
L 401.637119 181.972093 
L 402.796599 182.320669 
L 403.086469 182.06008 
L 403.376339 182.687156 
L 403.95608 182.594929 
L 404.24595 182.375168 
L 404.53582 182.324818 
L 404.82569 182.508199 
L 405.11556 182.524887 
L 405.40543 182.242166 
L 405.6953 182.504688 
L 406.275041 182.138973 
L 406.564911 181.981903 
L 406.854781 182.243448 
L 408.014261 182.119861 
L 408.304131 182.057143 
L 408.883872 182.286359 
L 409.173742 182.082584 
L 409.463612 182.138121 
L 410.043352 182.505293 
L 410.333222 182.401842 
L 410.623093 182.485467 
L 410.912963 182.34327 
L 411.202833 182.569181 
L 411.492703 182.530533 
L 411.782573 182.149332 
L 412.072443 182.232089 
L 412.362313 182.113911 
L 412.652183 182.324375 
L 412.942054 182.351873 
L 413.231924 182.20829 
L 414.971144 182.632047 
L 415.261015 182.390814 
L 415.550885 182.440597 
L 415.840755 182.656737 
L 416.130625 182.502688 
L 416.420495 182.637357 
L 416.710365 182.095196 
L 417.000235 182.283805 
L 417.290106 182.069755 
L 417.579976 182.536919 
L 417.869846 182.640008 
L 418.159716 182.396871 
L 418.449586 182.545075 
L 419.029326 182.460655 
L 419.609067 182.594223 
L 419.898937 182.883057 
L 420.768547 182.550176 
L 421.638157 182.335158 
L 421.928028 182.094919 
L 422.217898 182.439439 
L 422.507768 182.449754 
L 422.797638 182.333685 
L 423.087508 182.384298 
L 423.957119 181.973572 
L 425.116599 181.909574 
L 425.696339 182.367982 
L 425.986209 182.184092 
L 426.27608 182.209204 
L 427.14569 181.757783 
L 427.43556 182.046813 
L 428.0153 181.895438 
L 428.30517 181.761605 
L 428.595041 182.163757 
L 428.884911 181.922442 
L 429.464651 182.002908 
L 429.754521 182.331292 
L 430.044391 182.230149 
L 430.334261 182.319543 
L 430.624131 182.174219 
L 430.914002 182.220184 
L 431.203872 181.848545 
L 431.493742 182.240633 
L 431.783612 182.003928 
L 432.073482 182.187805 
L 433.232963 182.115941 
L 433.522833 181.728746 
L 433.812703 181.858457 
L 434.102573 182.188899 
L 434.682313 182.174414 
L 435.262054 182.175654 
L 435.841794 182.163007 
L 436.131664 182.230807 
L 436.421534 182.135633 
L 436.711404 182.287623 
L 437.581015 181.866172 
L 437.870885 181.89936 
L 438.160755 182.239634 
L 438.450625 182.186477 
L 438.740495 181.93379 
L 439.030365 182.083731 
L 439.320235 182.068481 
L 439.610106 181.74011 
L 439.899976 181.921651 
L 440.189846 181.807126 
L 441.059456 181.953517 
L 441.349326 181.902134 
L 441.639196 182.037676 
L 442.218937 181.718665 
L 442.508807 181.825252 
L 442.798677 182.142079 
L 443.378417 181.853801 
L 443.958157 182.064664 
L 444.248028 182.087273 
L 444.537898 181.799895 
L 444.827768 182.269505 
L 445.117638 182.295824 
L 445.407508 182.054519 
L 445.697378 182.290106 
L 446.277119 181.885735 
L 446.566989 181.740144 
L 446.856859 181.883053 
L 448.016339 181.970675 
L 448.306209 181.68243 
L 448.59608 182.09441 
L 449.17582 182.167889 
L 449.75556 181.676868 
L 450.3353 181.921529 
L 450.62517 182.091311 
L 450.915041 181.811555 
L 451.204911 181.72748 
L 451.494781 181.918756 
L 451.784651 181.577909 
L 452.654261 181.884943 
L 452.944131 182.195232 
L 453.234002 182.076375 
L 453.813742 181.688939 
L 454.683352 181.888783 
L 454.973222 181.935298 
L 455.263093 181.553882 
L 455.842833 181.70919 
L 456.132703 181.962171 
L 456.422573 181.805463 
L 456.712443 182.31243 
L 457.002313 181.850127 
L 457.292183 181.743885 
L 457.871924 181.934827 
L 458.161794 181.73376 
L 458.451664 182.240763 
L 458.741534 182.297025 
L 459.031404 181.865324 
L 459.321274 182.298322 
L 459.901015 181.792845 
L 460.190885 182.101816 
L 460.480755 181.807663 
L 460.770625 182.011369 
L 461.060495 181.862656 
L 461.350365 181.545636 
L 461.640235 181.935272 
L 462.219976 182.082325 
L 462.509846 181.987239 
L 462.799716 182.145787 
L 463.089586 181.901138 
L 463.379456 182.199781 
L 463.669326 181.592446 
L 463.959196 181.312293 
L 464.538937 182.069524 
L 464.828807 180.052708 
L 465.408547 181.958992 
L 465.698417 182.280114 
L 465.988287 181.981429 
L 466.568028 181.847476 
L 466.857898 182.080644 
L 467.147768 181.74972 
L 467.727508 181.995071 
L 468.017378 182.29362 
L 468.307248 181.965993 
L 468.597119 182.010501 
L 468.886989 181.834422 
L 469.176859 181.894159 
L 469.756599 181.761904 
L 470.046469 182.043791 
L 470.91608 181.765094 
L 471.49582 182.41181 
L 471.78569 182.096682 
L 472.07556 182.228219 
L 472.36543 182.134654 
L 472.6553 182.183119 
L 472.94517 182.042655 
L 473.235041 182.234615 
L 473.524911 182.149602 
L 473.814781 181.919169 
L 474.394521 182.110859 
L 474.684391 181.927376 
L 474.974261 182.019863 
L 475.554002 181.8605 
L 476.133742 182.15836 
L 476.423612 182.242096 
L 477.003352 182.168419 
L 477.293222 181.920597 
L 477.583093 182.078837 
L 477.872963 181.968266 
L 478.162833 182.125528 
L 478.452703 181.925233 
L 478.742573 181.995146 
L 479.032443 182.256933 
L 479.612183 181.956486 
L 479.902054 182.07418 
L 480.191924 181.57487 
L 480.481794 181.804915 
L 480.771664 181.242766 
L 481.061534 181.793522 
L 481.351404 181.959183 
L 481.931144 181.850256 
L 482.221015 181.794141 
L 482.800755 182.030353 
L 483.090625 182.449644 
L 483.380495 181.999728 
L 483.670365 182.160305 
L 484.539976 181.726165 
L 484.829846 181.878269 
L 485.119716 181.773254 
L 485.699456 182.000091 
L 485.989326 182.002512 
L 486.569067 181.803269 
L 487.438677 181.803712 
L 487.728547 181.659426 
L 488.018417 181.730658 
L 488.888028 182.190769 
L 489.177898 181.833131 
L 489.467768 182.159772 
L 489.757638 181.805979 
L 490.047508 181.738369 
L 490.337378 181.793717 
L 490.917119 182.205691 
L 491.206989 181.962345 
L 491.786729 181.824625 
L 492.366469 182.167373 
L 492.946209 181.8784 
L 493.23608 181.654484 
L 493.52595 181.949669 
L 493.81582 181.678056 
L 494.10569 181.735695 
L 494.39556 181.913964 
L 494.68543 181.721036 
L 494.9753 181.874075 
L 495.26517 181.806772 
L 495.555041 182.016588 
L 495.844911 181.839141 
L 496.134781 182.074242 
L 496.424651 181.818003 
L 496.714521 181.753855 
L 497.004391 181.830436 
L 497.294261 181.642867 
L 497.874002 181.696632 
L 498.743612 181.812505 
L 499.033482 181.684922 
L 499.613222 181.85471 
L 499.903093 181.634675 
L 500.482833 182.171771 
L 500.772703 181.519403 
L 501.642313 182.009526 
L 501.932183 181.672554 
L 502.222054 181.83577 
L 502.511924 181.833104 
L 502.801794 181.600327 
L 503.091664 182.016647 
L 503.381534 182.024052 
L 503.671404 181.727536 
L 504.251144 181.98245 
L 504.541015 182.084721 
L 504.830885 181.833465 
L 505.120755 182.02428 
L 505.990365 181.616899 
L 506.280235 181.854124 
L 506.570106 181.894306 
L 506.859976 181.700946 
L 507.149846 182.163858 
L 507.439716 181.960477 
L 507.729586 181.603975 
L 508.889067 181.941194 
L 509.178937 181.838706 
L 509.758677 182.088693 
L 510.048547 182.308904 
L 510.338417 182.282092 
L 510.628287 181.980502 
L 510.918157 181.975156 
L 511.497898 181.694727 
L 511.787768 181.973114 
L 512.077638 181.920721 
L 512.367508 182.122342 
L 513.237119 181.93848 
L 513.526989 181.739666 
L 513.816859 181.9783 
L 514.106729 181.766782 
L 514.396599 181.800565 
L 514.686469 181.975119 
L 514.976339 181.819662 
L 515.84595 182.168837 
L 516.42569 181.837776 
L 516.71556 182.248496 
L 517.00543 181.818937 
L 517.2953 181.899228 
L 517.58517 181.61977 
L 517.875041 182.075376 
L 518.454781 181.745763 
L 518.744651 182.02806 
L 519.034521 181.729104 
L 519.324391 178.870123 
L 519.614261 170.229221 
L 519.904131 180.666642 
L 520.194002 181.321931 
L 520.483872 181.555562 
L 520.773742 181.493365 
L 521.063612 182.043347 
L 521.353482 181.271262 
L 521.643352 181.467953 
L 521.933222 181.459883 
L 522.512963 181.891243 
L 522.802833 181.748658 
L 523.382573 181.715927 
L 523.672443 181.602932 
L 523.962313 181.855308 
L 524.542054 181.777103 
L 524.831924 181.856539 
L 525.121794 181.664169 
L 525.411664 181.799604 
L 525.701534 181.606036 
L 526.281274 181.976507 
L 526.571144 181.974598 
L 526.861015 181.662989 
L 527.150885 181.846343 
L 527.440755 181.620717 
L 527.730625 181.831968 
L 528.310365 181.697359 
L 528.600235 181.795002 
L 528.890106 182.18322 
L 529.759716 181.52973 
L 530.339456 181.981396 
L 530.629326 182.022673 
L 530.919196 181.891226 
L 532.078677 182.050009 
L 532.658417 181.740706 
L 532.948287 182.095322 
L 533.238157 181.610063 
L 533.817898 181.788659 
L 534.107768 181.683531 
L 534.397638 181.845154 
L 534.687508 181.523445 
L 534.977378 181.523421 
L 535.267248 181.734572 
L 535.846989 181.609469 
L 536.426729 181.797784 
L 536.716599 181.220871 
L 537.296339 181.70697 
L 538.16595 181.897701 
L 539.03556 181.679268 
L 539.6153 181.943345 
L 540.195041 181.801782 
L 540.774781 182.104988 
L 541.064651 181.685994 
L 541.354521 181.849745 
L 541.934261 181.692192 
L 542.224131 181.915774 
L 542.514002 181.756404 
L 543.093742 181.890293 
L 544.543093 181.823925 
L 544.832963 181.625437 
L 545.122833 181.63508 
L 545.412703 181.959367 
L 546.282313 181.880399 
L 546.572183 181.464954 
L 546.862054 182.008576 
L 547.151924 181.659954 
L 547.441794 181.57685 
L 547.731664 181.722709 
L 548.601274 181.553949 
L 548.891144 181.906624 
L 549.181015 181.778482 
L 549.470885 181.95063 
L 550.050625 181.845578 
L 550.340495 182.035475 
L 550.630365 181.994049 
L 551.210106 181.595286 
L 552.079716 181.790146 
L 552.369586 181.568494 
L 552.659456 181.767949 
L 553.239196 181.555577 
L 553.529067 181.71629 
L 553.818937 181.500318 
L 554.398677 181.589613 
L 554.688547 182.324492 
L 554.978417 181.65213 
L 555.268287 181.556863 
L 555.848028 181.687451 
L 556.137898 181.621999 
L 556.427768 181.713766 
L 556.717638 181.530357 
L 557.007508 181.492269 
L 557.587248 181.653447 
L 558.166989 181.444557 
L 559.036599 181.840735 
L 559.326469 181.76703 
L 559.616339 181.903335 
L 559.906209 181.780249 
L 560.19608 181.884581 
L 561.06569 181.601995 
L 561.9353 181.943653 
L 562.22517 181.72517 
L 562.515041 181.915604 
L 563.384651 181.719722 
L 563.674521 181.45755 
L 563.964391 181.958284 
L 564.254261 181.722957 
L 565.123872 181.732174 
L 565.703612 181.726356 
L 565.993482 181.532331 
L 566.283352 181.871927 
L 566.573222 181.520266 
L 566.863093 181.605969 
L 567.152963 181.846301 
L 567.442833 181.80138 
L 567.732703 181.603367 
L 568.022573 181.683795 
L 568.602313 181.439124 
L 568.892183 181.731045 
L 569.182054 181.818212 
L 569.471924 182.024506 
L 569.761794 181.73129 
L 570.051664 181.667424 
L 570.341534 181.452831 
L 570.631404 181.69617 
L 570.921274 181.627867 
L 571.211144 181.885654 
L 571.501015 181.707161 
L 571.790885 181.774239 
L 572.080755 181.70003 
L 572.370625 181.866095 
L 572.660495 181.671007 
L 572.950365 181.629185 
L 573.240235 182.064093 
L 574.109846 181.658267 
L 574.399716 181.994362 
L 574.689586 181.850652 
L 574.979456 181.834231 
L 575.269326 182.018925 
L 575.559196 181.896272 
L 575.849067 181.593554 
L 576.428807 181.842488 
L 576.718677 181.698642 
L 577.008547 181.724998 
L 577.588287 181.652872 
L 577.878157 181.823168 
L 578.168028 181.714259 
L 578.457898 181.789478 
L 578.747768 182.173943 
L 579.327508 181.795705 
L 579.617378 181.997057 
L 579.907248 181.690881 
L 580.197119 181.813999 
L 580.776859 181.486097 
L 581.066729 181.839363 
L 581.356599 181.49964 
L 581.936339 181.574061 
L 582.226209 181.820781 
L 582.80595 181.414456 
L 583.09582 181.370249 
L 583.38569 181.644991 
L 583.67556 181.670888 
L 583.96543 181.562027 
L 584.2553 181.867859 
L 584.54517 181.95981 
L 585.414781 181.452225 
L 586.574261 181.699159 
L 586.864131 181.945157 
L 587.154002 181.48012 
L 587.733742 181.893213 
L 588.603352 181.709921 
L 588.893222 181.892387 
L 590.342573 181.571889 
L 590.632443 181.771368 
L 591.502054 181.890005 
L 591.791924 181.757482 
L 592.081794 182.157293 
L 592.371664 181.755708 
L 592.951404 181.644451 
L 593.531144 181.594422 
L 593.821015 181.771173 
L 594.400755 181.547272 
L 594.690625 181.721043 
L 595.270365 181.608906 
L 595.560235 182.015569 
L 595.850106 181.932338 
L 596.139976 181.667759 
L 596.429846 181.593854 
L 597.009586 181.90755 
L 597.299456 181.757697 
L 597.589326 181.833484 
L 598.169067 181.719709 
L 598.458937 181.907642 
L 599.328547 181.501521 
L 599.618417 181.561981 
L 599.908287 181.930689 
L 600.198157 181.538115 
L 600.488028 181.759602 
L 600.777898 181.610441 
L 601.357638 181.735541 
L 601.937378 181.506536 
L 602.227248 182.060447 
L 602.517119 181.841778 
L 602.806989 181.849069 
L 603.096859 181.620308 
L 603.386729 181.666982 
L 603.676599 181.529124 
L 603.966469 181.875701 
L 604.546209 181.854913 
L 604.83608 181.489123 
L 605.12595 181.81502 
L 605.70569 182.015372 
L 605.99556 181.980564 
L 606.5753 182.720218 
L 608.314521 181.601029 
L 608.604391 181.911801 
L 608.894261 181.720877 
L 609.184131 181.869234 
L 609.474002 181.802882 
L 609.763872 182.078903 
L 610.053742 181.634985 
L 610.633482 181.727036 
L 610.923352 181.462822 
L 611.213222 181.882836 
L 611.503093 181.63341 
L 611.792963 181.645359 
L 612.082833 181.772013 
L 612.372703 181.688306 
L 612.952443 181.819536 
L 613.242313 181.700176 
L 613.532183 181.877592 
L 613.822054 181.82339 
L 614.111924 181.531704 
L 614.401794 181.962338 
L 614.691664 181.834118 
L 615.271404 181.878996 
L 615.851144 181.738872 
L 616.141015 182.178227 
L 616.430885 182.020123 
L 617.010625 181.879096 
L 617.590365 181.815252 
L 617.880235 181.839315 
L 618.170106 181.985682 
L 618.459976 181.829286 
L 618.749846 182.007496 
L 619.039716 181.965345 
L 619.329586 181.732017 
L 619.619456 181.676977 
L 619.909326 181.863159 
L 620.199196 181.87181 
L 620.489067 182.115696 
L 621.068807 181.634832 
L 621.358677 181.813781 
L 621.648547 181.52786 
L 621.938417 181.663778 
L 622.228287 181.936551 
L 622.808028 181.795083 
L 623.097898 181.856577 
L 623.387768 182.041561 
L 623.967508 181.822598 
L 624.257378 181.686407 
L 624.547248 181.675122 
L 624.837119 181.943276 
L 625.126989 181.963169 
L 625.126989 181.963169 
" clip-path="url(#p64377aaad3)" style="fill: none; stroke: #ff7f0e; stroke-width: 1.5; stroke-linecap: square"/>
   </g>
   <g id="patch_3">
    <path d="M 92.490625 308.63625 
L 92.490625 31.43625 
" style="fill: none; stroke: #000000; stroke-width: 0.8; stroke-linejoin: miter; stroke-linecap: square"/>
   </g>
   <g id="patch_4">
    <path d="M 650.490625 308.63625 
L 650.490625 31.43625 
" style="fill: none; stroke: #000000; stroke-width: 0.8; stroke-linejoin: miter; stroke-linecap: square"/>
   </g>
   <g id="patch_5">
    <path d="M 92.490625 308.63625 
L 650.490625 308.63625 
" style="fill: none; stroke: #000000; stroke-width: 0.8; stroke-linejoin: miter; stroke-linecap: square"/>
   </g>
   <g id="patch_6">
    <path d="M 92.490625 31.43625 
L 650.490625 31.43625 
" style="fill: none; stroke: #000000; stroke-width: 0.8; stroke-linejoin: miter; stroke-linecap: square"/>
   </g>
   <g id="text_16">
    <!-- Generator and Discriminator Loss During Training -->
    <g transform="translate(74.258125 25.43625) scale(0.24 -0.24)">
     <defs>
      <path id="DejaVuSans-47" d="M 3809 666 
L 3809 1919 
L 2778 1919 
L 2778 2438 
L 4434 2438 
L 4434 434 
Q 4069 175 3628 42 
Q 3188 -91 2688 -91 
Q 1594 -91 976 548 
Q 359 1188 359 2328 
Q 359 3472 976 4111 
Q 1594 4750 2688 4750 
Q 3144 4750 3555 4637 
Q 3966 4525 4313 4306 
L 4313 3634 
Q 3963 3931 3569 4081 
Q 3175 4231 2741 4231 
Q 1884 4231 1454 3753 
Q 1025 3275 1025 2328 
Q 1025 1384 1454 906 
Q 1884 428 2741 428 
Q 3075 428 3337 486 
Q 3600 544 3809 666 
z
" transform="scale(0.015625)"/>
      <path id="DejaVuSans-20" transform="scale(0.015625)"/>
      <path id="DejaVuSans-64" d="M 2906 2969 
L 2906 4863 
L 3481 4863 
L 3481 0 
L 2906 0 
L 2906 525 
Q 2725 213 2448 61 
Q 2172 -91 1784 -91 
Q 1150 -91 751 415 
Q 353 922 353 1747 
Q 353 2572 751 3078 
Q 1150 3584 1784 3584 
Q 2172 3584 2448 3432 
Q 2725 3281 2906 2969 
z
M 947 1747 
Q 947 1113 1208 752 
Q 1469 391 1925 391 
Q 2381 391 2643 752 
Q 2906 1113 2906 1747 
Q 2906 2381 2643 2742 
Q 2381 3103 1925 3103 
Q 1469 3103 1208 2742 
Q 947 2381 947 1747 
z
" transform="scale(0.015625)"/>
      <path id="DejaVuSans-44" d="M 1259 4147 
L 1259 519 
L 2022 519 
Q 2988 519 3436 956 
Q 3884 1394 3884 2338 
Q 3884 3275 3436 3711 
Q 2988 4147 2022 4147 
L 1259 4147 
z
M 628 4666 
L 1925 4666 
Q 3281 4666 3915 4102 
Q 4550 3538 4550 2338 
Q 4550 1131 3912 565 
Q 3275 0 1925 0 
L 628 0 
L 628 4666 
z
" transform="scale(0.015625)"/>
      <path id="DejaVuSans-63" d="M 3122 3366 
L 3122 2828 
Q 2878 2963 2633 3030 
Q 2388 3097 2138 3097 
Q 1578 3097 1268 2742 
Q 959 2388 959 1747 
Q 959 1106 1268 751 
Q 1578 397 2138 397 
Q 2388 397 2633 464 
Q 2878 531 3122 666 
L 3122 134 
Q 2881 22 2623 -34 
Q 2366 -91 2075 -91 
Q 1284 -91 818 406 
Q 353 903 353 1747 
Q 353 2603 823 3093 
Q 1294 3584 2113 3584 
Q 2378 3584 2631 3529 
Q 2884 3475 3122 3366 
z
" transform="scale(0.015625)"/>
      <path id="DejaVuSans-6d" d="M 3328 2828 
Q 3544 3216 3844 3400 
Q 4144 3584 4550 3584 
Q 5097 3584 5394 3201 
Q 5691 2819 5691 2113 
L 5691 0 
L 5113 0 
L 5113 2094 
Q 5113 2597 4934 2840 
Q 4756 3084 4391 3084 
Q 3944 3084 3684 2787 
Q 3425 2491 3425 1978 
L 3425 0 
L 2847 0 
L 2847 2094 
Q 2847 2600 2669 2842 
Q 2491 3084 2119 3084 
Q 1678 3084 1418 2786 
Q 1159 2488 1159 1978 
L 1159 0 
L 581 0 
L 581 3500 
L 1159 3500 
L 1159 2956 
Q 1356 3278 1631 3431 
Q 1906 3584 2284 3584 
Q 2666 3584 2933 3390 
Q 3200 3197 3328 2828 
z
" transform="scale(0.015625)"/>
      <path id="DejaVuSans-75" d="M 544 1381 
L 544 3500 
L 1119 3500 
L 1119 1403 
Q 1119 906 1312 657 
Q 1506 409 1894 409 
Q 2359 409 2629 706 
Q 2900 1003 2900 1516 
L 2900 3500 
L 3475 3500 
L 3475 0 
L 2900 0 
L 2900 538 
Q 2691 219 2414 64 
Q 2138 -91 1772 -91 
Q 1169 -91 856 284 
Q 544 659 544 1381 
z
M 1991 3584 
L 1991 3584 
z
" transform="scale(0.015625)"/>
      <path id="DejaVuSans-67" d="M 2906 1791 
Q 2906 2416 2648 2759 
Q 2391 3103 1925 3103 
Q 1463 3103 1205 2759 
Q 947 2416 947 1791 
Q 947 1169 1205 825 
Q 1463 481 1925 481 
Q 2391 481 2648 825 
Q 2906 1169 2906 1791 
z
M 3481 434 
Q 3481 -459 3084 -895 
Q 2688 -1331 1869 -1331 
Q 1566 -1331 1297 -1286 
Q 1028 -1241 775 -1147 
L 775 -588 
Q 1028 -725 1275 -790 
Q 1522 -856 1778 -856 
Q 2344 -856 2625 -561 
Q 2906 -266 2906 331 
L 2906 616 
Q 2728 306 2450 153 
Q 2172 0 1784 0 
Q 1141 0 747 490 
Q 353 981 353 1791 
Q 353 2603 747 3093 
Q 1141 3584 1784 3584 
Q 2172 3584 2450 3431 
Q 2728 3278 2906 2969 
L 2906 3500 
L 3481 3500 
L 3481 434 
z
" transform="scale(0.015625)"/>
      <path id="DejaVuSans-54" d="M -19 4666 
L 3928 4666 
L 3928 4134 
L 2272 4134 
L 2272 0 
L 1638 0 
L 1638 4134 
L -19 4134 
L -19 4666 
z
" transform="scale(0.015625)"/>
     </defs>
     <use xlink:href="#DejaVuSans-47"/>
     <use xlink:href="#DejaVuSans-65" x="77.490234"/>
     <use xlink:href="#DejaVuSans-6e" x="139.013672"/>
     <use xlink:href="#DejaVuSans-65" x="202.392578"/>
     <use xlink:href="#DejaVuSans-72" x="263.916016"/>
     <use xlink:href="#DejaVuSans-61" x="305.029297"/>
     <use xlink:href="#DejaVuSans-74" x="366.308594"/>
     <use xlink:href="#DejaVuSans-6f" x="405.517578"/>
     <use xlink:href="#DejaVuSans-72" x="466.699219"/>
     <use xlink:href="#DejaVuSans-20" x="507.8125"/>
     <use xlink:href="#DejaVuSans-61" x="539.599609"/>
     <use xlink:href="#DejaVuSans-6e" x="600.878906"/>
     <use xlink:href="#DejaVuSans-64" x="664.257812"/>
     <use xlink:href="#DejaVuSans-20" x="727.734375"/>
     <use xlink:href="#DejaVuSans-44" x="759.521484"/>
     <use xlink:href="#DejaVuSans-69" x="836.523438"/>
     <use xlink:href="#DejaVuSans-73" x="864.306641"/>
     <use xlink:href="#DejaVuSans-63" x="916.40625"/>
     <use xlink:href="#DejaVuSans-72" x="971.386719"/>
     <use xlink:href="#DejaVuSans-69" x="1012.5"/>
     <use xlink:href="#DejaVuSans-6d" x="1040.283203"/>
     <use xlink:href="#DejaVuSans-69" x="1137.695312"/>
     <use xlink:href="#DejaVuSans-6e" x="1165.478516"/>
     <use xlink:href="#DejaVuSans-61" x="1228.857422"/>
     <use xlink:href="#DejaVuSans-74" x="1290.136719"/>
     <use xlink:href="#DejaVuSans-6f" x="1329.345703"/>
     <use xlink:href="#DejaVuSans-72" x="1390.527344"/>
     <use xlink:href="#DejaVuSans-20" x="1431.640625"/>
     <use xlink:href="#DejaVuSans-4c" x="1463.427734"/>
     <use xlink:href="#DejaVuSans-6f" x="1517.390625"/>
     <use xlink:href="#DejaVuSans-73" x="1578.572266"/>
     <use xlink:href="#DejaVuSans-73" x="1630.671875"/>
     <use xlink:href="#DejaVuSans-20" x="1682.771484"/>
     <use xlink:href="#DejaVuSans-44" x="1714.558594"/>
     <use xlink:href="#DejaVuSans-75" x="1791.560547"/>
     <use xlink:href="#DejaVuSans-72" x="1854.939453"/>
     <use xlink:href="#DejaVuSans-69" x="1896.052734"/>
     <use xlink:href="#DejaVuSans-6e" x="1923.835938"/>
     <use xlink:href="#DejaVuSans-67" x="1987.214844"/>
     <use xlink:href="#DejaVuSans-20" x="2050.691406"/>
     <use xlink:href="#DejaVuSans-54" x="2082.478516"/>
     <use xlink:href="#DejaVuSans-72" x="2128.8125"/>
     <use xlink:href="#DejaVuSans-61" x="2169.925781"/>
     <use xlink:href="#DejaVuSans-69" x="2231.205078"/>
     <use xlink:href="#DejaVuSans-6e" x="2258.988281"/>
     <use xlink:href="#DejaVuSans-69" x="2322.367188"/>
     <use xlink:href="#DejaVuSans-6e" x="2350.150391"/>
     <use xlink:href="#DejaVuSans-67" x="2413.529297"/>
    </g>
   </g>
   <g id="legend_1">
    <g id="patch_7">
     <path d="M 556.99375 106.14875 
L 636.490625 106.14875 
Q 640.490625 106.14875 640.490625 102.14875 
L 640.490625 45.43625 
Q 640.490625 41.43625 636.490625 41.43625 
L 556.99375 41.43625 
Q 552.99375 41.43625 552.99375 45.43625 
L 552.99375 102.14875 
Q 552.99375 106.14875 556.99375 106.14875 
z
" style="fill: #ffffff; opacity: 0.8; stroke: #cccccc; stroke-linejoin: miter"/>
    </g>
    <g id="line2d_16">
     <path d="M 560.99375 57.633125 
L 580.99375 57.633125 
L 600.99375 57.633125 
" style="fill: none; stroke: #1f77b4; stroke-width: 1.5; stroke-linecap: square"/>
    </g>
    <g id="text_17">
     <!-- G -->
     <g transform="translate(616.99375 64.633125) scale(0.2 -0.2)">
      <use xlink:href="#DejaVuSans-47"/>
     </g>
    </g>
    <g id="line2d_17">
     <path d="M 560.99375 86.989375 
L 580.99375 86.989375 
L 600.99375 86.989375 
" style="fill: none; stroke: #ff7f0e; stroke-width: 1.5; stroke-linecap: square"/>
    </g>
    <g id="text_18">
     <!-- D -->
     <g transform="translate(616.99375 93.989375) scale(0.2 -0.2)">
      <use xlink:href="#DejaVuSans-44"/>
     </g>
    </g>
   </g>
  </g>
 </g>
 <defs>
  <clipPath id="p64377aaad3">
   <rect x="92.490625" y="31.43625" width="558" height="277.2"/>
  </clipPath>
 </defs>
</svg>
