<?xml version="1.0" encoding="utf-8" standalone="no"?>
<!DOCTYPE svg PUBLIC "-//W3C//DTD SVG 1.1//EN"
  "http://www.w3.org/Graphics/SVG/1.1/DTD/svg11.dtd">
<svg xmlns:xlink="http://www.w3.org/1999/xlink" width="675.923125pt" height="365.54875pt" viewBox="0 0 675.923125 365.54875" xmlns="http://www.w3.org/2000/svg" version="1.1">
 <metadata>
  <rdf:RDF xmlns:dc="http://purl.org/dc/elements/1.1/" xmlns:cc="http://creativecommons.org/ns#" xmlns:rdf="http://www.w3.org/1999/02/22-rdf-syntax-ns#">
   <cc:Work>
    <dc:type rdf:resource="http://purl.org/dc/dcmitype/StillImage"/>
    <dc:date>2024-02-04T01:09:56.161114</dc:date>
    <dc:format>image/svg+xml</dc:format>
    <dc:creator>
     <cc:Agent>
      <dc:title>Matplotlib v3.7.2, https://matplotlib.org/</dc:title>
     </cc:Agent>
    </dc:creator>
   </cc:Work>
  </rdf:RDF>
 </metadata>
 <defs>
  <style type="text/css">*{stroke-linejoin: round; stroke-linecap: butt}</style>
 </defs>
 <g id="figure_1">
  <g id="patch_1">
   <path d="M 0 365.54875 
L 675.923125 365.54875 
L 675.923125 -0 
L 0 -0 
z
" style="fill: #ffffff"/>
  </g>
  <g id="axes_1">
   <g id="patch_2">
    <path d="M 92.490625 308.63625 
L 650.490625 308.63625 
L 650.490625 31.43625 
L 92.490625 31.43625 
z
" style="fill: #ffffff"/>
   </g>
   <g id="matplotlib.axis_1">
    <g id="xtick_1">
     <g id="line2d_1">
      <defs>
       <path id="m2fad170e08" d="M 0 0 
L 0 3.5 
" style="stroke: #000000; stroke-width: 0.8"/>
      </defs>
      <g>
       <use xlink:href="#m2fad170e08" x="117.854261" y="308.63625" style="stroke: #000000; stroke-width: 0.8"/>
      </g>
     </g>
     <g id="text_1">
      <!-- 0 -->
      <g transform="translate(111.491761 330.833125) scale(0.2 -0.2)">
       <defs>
        <path id="DejaVuSans-30" d="M 2034 4250 
Q 1547 4250 1301 3770 
Q 1056 3291 1056 2328 
Q 1056 1369 1301 889 
Q 1547 409 2034 409 
Q 2525 409 2770 889 
Q 3016 1369 3016 2328 
Q 3016 3291 2770 3770 
Q 2525 4250 2034 4250 
z
M 2034 4750 
Q 2819 4750 3233 4129 
Q 3647 3509 3647 2328 
Q 3647 1150 3233 529 
Q 2819 -91 2034 -91 
Q 1250 -91 836 529 
Q 422 1150 422 2328 
Q 422 3509 836 4129 
Q 1250 4750 2034 4750 
z
" transform="scale(0.015625)"/>
       </defs>
       <use xlink:href="#DejaVuSans-30"/>
      </g>
     </g>
    </g>
    <g id="xtick_2">
     <g id="line2d_2">
      <g>
       <use xlink:href="#m2fad170e08" x="194.713765" y="308.63625" style="stroke: #000000; stroke-width: 0.8"/>
      </g>
     </g>
     <g id="text_2">
      <!-- 250 -->
      <g transform="translate(175.626265 330.833125) scale(0.2 -0.2)">
       <defs>
        <path id="DejaVuSans-32" d="M 1228 531 
L 3431 531 
L 3431 0 
L 469 0 
L 469 531 
Q 828 903 1448 1529 
Q 2069 2156 2228 2338 
Q 2531 2678 2651 2914 
Q 2772 3150 2772 3378 
Q 2772 3750 2511 3984 
Q 2250 4219 1831 4219 
Q 1534 4219 1204 4116 
Q 875 4013 500 3803 
L 500 4441 
Q 881 4594 1212 4672 
Q 1544 4750 1819 4750 
Q 2544 4750 2975 4387 
Q 3406 4025 3406 3419 
Q 3406 3131 3298 2873 
Q 3191 2616 2906 2266 
Q 2828 2175 2409 1742 
Q 1991 1309 1228 531 
z
" transform="scale(0.015625)"/>
        <path id="DejaVuSans-35" d="M 691 4666 
L 3169 4666 
L 3169 4134 
L 1269 4134 
L 1269 2991 
Q 1406 3038 1543 3061 
Q 1681 3084 1819 3084 
Q 2600 3084 3056 2656 
Q 3513 2228 3513 1497 
Q 3513 744 3044 326 
Q 2575 -91 1722 -91 
Q 1428 -91 1123 -41 
Q 819 9 494 109 
L 494 744 
Q 775 591 1075 516 
Q 1375 441 1709 441 
Q 2250 441 2565 725 
Q 2881 1009 2881 1497 
Q 2881 1984 2565 2268 
Q 2250 2553 1709 2553 
Q 1456 2553 1204 2497 
Q 953 2441 691 2322 
L 691 4666 
z
" transform="scale(0.015625)"/>
       </defs>
       <use xlink:href="#DejaVuSans-32"/>
       <use xlink:href="#DejaVuSans-35" x="63.623047"/>
       <use xlink:href="#DejaVuSans-30" x="127.246094"/>
      </g>
     </g>
    </g>
    <g id="xtick_3">
     <g id="line2d_3">
      <g>
       <use xlink:href="#m2fad170e08" x="271.57327" y="308.63625" style="stroke: #000000; stroke-width: 0.8"/>
      </g>
     </g>
     <g id="text_3">
      <!-- 500 -->
      <g transform="translate(252.48577 330.833125) scale(0.2 -0.2)">
       <use xlink:href="#DejaVuSans-35"/>
       <use xlink:href="#DejaVuSans-30" x="63.623047"/>
       <use xlink:href="#DejaVuSans-30" x="127.246094"/>
      </g>
     </g>
    </g>
    <g id="xtick_4">
     <g id="line2d_4">
      <g>
       <use xlink:href="#m2fad170e08" x="348.432774" y="308.63625" style="stroke: #000000; stroke-width: 0.8"/>
      </g>
     </g>
     <g id="text_4">
      <!-- 750 -->
      <g transform="translate(329.345274 330.833125) scale(0.2 -0.2)">
       <defs>
        <path id="DejaVuSans-37" d="M 525 4666 
L 3525 4666 
L 3525 4397 
L 1831 0 
L 1172 0 
L 2766 4134 
L 525 4134 
L 525 4666 
z
" transform="scale(0.015625)"/>
       </defs>
       <use xlink:href="#DejaVuSans-37"/>
       <use xlink:href="#DejaVuSans-35" x="63.623047"/>
       <use xlink:href="#DejaVuSans-30" x="127.246094"/>
      </g>
     </g>
    </g>
    <g id="xtick_5">
     <g id="line2d_5">
      <g>
       <use xlink:href="#m2fad170e08" x="425.292278" y="308.63625" style="stroke: #000000; stroke-width: 0.8"/>
      </g>
     </g>
     <g id="text_5">
      <!-- 1000 -->
      <g transform="translate(399.842278 330.833125) scale(0.2 -0.2)">
       <defs>
        <path id="DejaVuSans-31" d="M 794 531 
L 1825 531 
L 1825 4091 
L 703 3866 
L 703 4441 
L 1819 4666 
L 2450 4666 
L 2450 531 
L 3481 531 
L 3481 0 
L 794 0 
L 794 531 
z
" transform="scale(0.015625)"/>
       </defs>
       <use xlink:href="#DejaVuSans-31"/>
       <use xlink:href="#DejaVuSans-30" x="63.623047"/>
       <use xlink:href="#DejaVuSans-30" x="127.246094"/>
       <use xlink:href="#DejaVuSans-30" x="190.869141"/>
      </g>
     </g>
    </g>
    <g id="xtick_6">
     <g id="line2d_6">
      <g>
       <use xlink:href="#m2fad170e08" x="502.151782" y="308.63625" style="stroke: #000000; stroke-width: 0.8"/>
      </g>
     </g>
     <g id="text_6">
      <!-- 1250 -->
      <g transform="translate(476.701782 330.833125) scale(0.2 -0.2)">
       <use xlink:href="#DejaVuSans-31"/>
       <use xlink:href="#DejaVuSans-32" x="63.623047"/>
       <use xlink:href="#DejaVuSans-35" x="127.246094"/>
       <use xlink:href="#DejaVuSans-30" x="190.869141"/>
      </g>
     </g>
    </g>
    <g id="xtick_7">
     <g id="line2d_7">
      <g>
       <use xlink:href="#m2fad170e08" x="579.011286" y="308.63625" style="stroke: #000000; stroke-width: 0.8"/>
      </g>
     </g>
     <g id="text_7">
      <!-- 1500 -->
      <g transform="translate(553.561286 330.833125) scale(0.2 -0.2)">
       <use xlink:href="#DejaVuSans-31"/>
       <use xlink:href="#DejaVuSans-35" x="63.623047"/>
       <use xlink:href="#DejaVuSans-30" x="127.246094"/>
       <use xlink:href="#DejaVuSans-30" x="190.869141"/>
      </g>
     </g>
    </g>
    <g id="text_8">
     <!-- iterations -->
     <g transform="translate(324.035938 354.189375) scale(0.2 -0.2)">
      <defs>
       <path id="DejaVuSans-69" d="M 603 3500 
L 1178 3500 
L 1178 0 
L 603 0 
L 603 3500 
z
M 603 4863 
L 1178 4863 
L 1178 4134 
L 603 4134 
L 603 4863 
z
" transform="scale(0.015625)"/>
       <path id="DejaVuSans-74" d="M 1172 4494 
L 1172 3500 
L 2356 3500 
L 2356 3053 
L 1172 3053 
L 1172 1153 
Q 1172 725 1289 603 
Q 1406 481 1766 481 
L 2356 481 
L 2356 0 
L 1766 0 
Q 1100 0 847 248 
Q 594 497 594 1153 
L 594 3053 
L 172 3053 
L 172 3500 
L 594 3500 
L 594 4494 
L 1172 4494 
z
" transform="scale(0.015625)"/>
       <path id="DejaVuSans-65" d="M 3597 1894 
L 3597 1613 
L 953 1613 
Q 991 1019 1311 708 
Q 1631 397 2203 397 
Q 2534 397 2845 478 
Q 3156 559 3463 722 
L 3463 178 
Q 3153 47 2828 -22 
Q 2503 -91 2169 -91 
Q 1331 -91 842 396 
Q 353 884 353 1716 
Q 353 2575 817 3079 
Q 1281 3584 2069 3584 
Q 2775 3584 3186 3129 
Q 3597 2675 3597 1894 
z
M 3022 2063 
Q 3016 2534 2758 2815 
Q 2500 3097 2075 3097 
Q 1594 3097 1305 2825 
Q 1016 2553 972 2059 
L 3022 2063 
z
" transform="scale(0.015625)"/>
       <path id="DejaVuSans-72" d="M 2631 2963 
Q 2534 3019 2420 3045 
Q 2306 3072 2169 3072 
Q 1681 3072 1420 2755 
Q 1159 2438 1159 1844 
L 1159 0 
L 581 0 
L 581 3500 
L 1159 3500 
L 1159 2956 
Q 1341 3275 1631 3429 
Q 1922 3584 2338 3584 
Q 2397 3584 2469 3576 
Q 2541 3569 2628 3553 
L 2631 2963 
z
" transform="scale(0.015625)"/>
       <path id="DejaVuSans-61" d="M 2194 1759 
Q 1497 1759 1228 1600 
Q 959 1441 959 1056 
Q 959 750 1161 570 
Q 1363 391 1709 391 
Q 2188 391 2477 730 
Q 2766 1069 2766 1631 
L 2766 1759 
L 2194 1759 
z
M 3341 1997 
L 3341 0 
L 2766 0 
L 2766 531 
Q 2569 213 2275 61 
Q 1981 -91 1556 -91 
Q 1019 -91 701 211 
Q 384 513 384 1019 
Q 384 1609 779 1909 
Q 1175 2209 1959 2209 
L 2766 2209 
L 2766 2266 
Q 2766 2663 2505 2880 
Q 2244 3097 1772 3097 
Q 1472 3097 1187 3025 
Q 903 2953 641 2809 
L 641 3341 
Q 956 3463 1253 3523 
Q 1550 3584 1831 3584 
Q 2591 3584 2966 3190 
Q 3341 2797 3341 1997 
z
" transform="scale(0.015625)"/>
       <path id="DejaVuSans-6f" d="M 1959 3097 
Q 1497 3097 1228 2736 
Q 959 2375 959 1747 
Q 959 1119 1226 758 
Q 1494 397 1959 397 
Q 2419 397 2687 759 
Q 2956 1122 2956 1747 
Q 2956 2369 2687 2733 
Q 2419 3097 1959 3097 
z
M 1959 3584 
Q 2709 3584 3137 3096 
Q 3566 2609 3566 1747 
Q 3566 888 3137 398 
Q 2709 -91 1959 -91 
Q 1206 -91 779 398 
Q 353 888 353 1747 
Q 353 2609 779 3096 
Q 1206 3584 1959 3584 
z
" transform="scale(0.015625)"/>
       <path id="DejaVuSans-6e" d="M 3513 2113 
L 3513 0 
L 2938 0 
L 2938 2094 
Q 2938 2591 2744 2837 
Q 2550 3084 2163 3084 
Q 1697 3084 1428 2787 
Q 1159 2491 1159 1978 
L 1159 0 
L 581 0 
L 581 3500 
L 1159 3500 
L 1159 2956 
Q 1366 3272 1645 3428 
Q 1925 3584 2291 3584 
Q 2894 3584 3203 3211 
Q 3513 2838 3513 2113 
z
" transform="scale(0.015625)"/>
       <path id="DejaVuSans-73" d="M 2834 3397 
L 2834 2853 
Q 2591 2978 2328 3040 
Q 2066 3103 1784 3103 
Q 1356 3103 1142 2972 
Q 928 2841 928 2578 
Q 928 2378 1081 2264 
Q 1234 2150 1697 2047 
L 1894 2003 
Q 2506 1872 2764 1633 
Q 3022 1394 3022 966 
Q 3022 478 2636 193 
Q 2250 -91 1575 -91 
Q 1294 -91 989 -36 
Q 684 19 347 128 
L 347 722 
Q 666 556 975 473 
Q 1284 391 1588 391 
Q 1994 391 2212 530 
Q 2431 669 2431 922 
Q 2431 1156 2273 1281 
Q 2116 1406 1581 1522 
L 1381 1569 
Q 847 1681 609 1914 
Q 372 2147 372 2553 
Q 372 3047 722 3315 
Q 1072 3584 1716 3584 
Q 2034 3584 2315 3537 
Q 2597 3491 2834 3397 
z
" transform="scale(0.015625)"/>
      </defs>
      <use xlink:href="#DejaVuSans-69"/>
      <use xlink:href="#DejaVuSans-74" x="27.783203"/>
      <use xlink:href="#DejaVuSans-65" x="66.992188"/>
      <use xlink:href="#DejaVuSans-72" x="128.515625"/>
      <use xlink:href="#DejaVuSans-61" x="169.628906"/>
      <use xlink:href="#DejaVuSans-74" x="230.908203"/>
      <use xlink:href="#DejaVuSans-69" x="270.117188"/>
      <use xlink:href="#DejaVuSans-6f" x="297.900391"/>
      <use xlink:href="#DejaVuSans-6e" x="359.082031"/>
      <use xlink:href="#DejaVuSans-73" x="422.460938"/>
     </g>
    </g>
   </g>
   <g id="matplotlib.axis_2">
    <g id="ytick_1">
     <g id="line2d_8">
      <defs>
       <path id="m87e47c4e79" d="M 0 0 
L -3.5 0 
" style="stroke: #000000; stroke-width: 0.8"/>
      </defs>
      <g>
       <use xlink:href="#m87e47c4e79" x="92.490625" y="295.148568" style="stroke: #000000; stroke-width: 0.8"/>
      </g>
     </g>
     <g id="text_9">
      <!-- −400 -->
      <g transform="translate(30.55625 302.747005) scale(0.2 -0.2)">
       <defs>
        <path id="DejaVuSans-2212" d="M 678 2272 
L 4684 2272 
L 4684 1741 
L 678 1741 
L 678 2272 
z
" transform="scale(0.015625)"/>
        <path id="DejaVuSans-34" d="M 2419 4116 
L 825 1625 
L 2419 1625 
L 2419 4116 
z
M 2253 4666 
L 3047 4666 
L 3047 1625 
L 3713 1625 
L 3713 1100 
L 3047 1100 
L 3047 0 
L 2419 0 
L 2419 1100 
L 313 1100 
L 313 1709 
L 2253 4666 
z
" transform="scale(0.015625)"/>
       </defs>
       <use xlink:href="#DejaVuSans-2212"/>
       <use xlink:href="#DejaVuSans-34" x="83.789062"/>
       <use xlink:href="#DejaVuSans-30" x="147.412109"/>
       <use xlink:href="#DejaVuSans-30" x="211.035156"/>
      </g>
     </g>
    </g>
    <g id="ytick_2">
     <g id="line2d_9">
      <g>
       <use xlink:href="#m87e47c4e79" x="92.490625" y="237.405832" style="stroke: #000000; stroke-width: 0.8"/>
      </g>
     </g>
     <g id="text_10">
      <!-- −200 -->
      <g transform="translate(30.55625 245.00427) scale(0.2 -0.2)">
       <use xlink:href="#DejaVuSans-2212"/>
       <use xlink:href="#DejaVuSans-32" x="83.789062"/>
       <use xlink:href="#DejaVuSans-30" x="147.412109"/>
       <use xlink:href="#DejaVuSans-30" x="211.035156"/>
      </g>
     </g>
    </g>
    <g id="ytick_3">
     <g id="line2d_10">
      <g>
       <use xlink:href="#m87e47c4e79" x="92.490625" y="179.663097" style="stroke: #000000; stroke-width: 0.8"/>
      </g>
     </g>
     <g id="text_11">
      <!-- 0 -->
      <g transform="translate(72.765625 187.261534) scale(0.2 -0.2)">
       <use xlink:href="#DejaVuSans-30"/>
      </g>
     </g>
    </g>
    <g id="ytick_4">
     <g id="line2d_11">
      <g>
       <use xlink:href="#m87e47c4e79" x="92.490625" y="121.920361" style="stroke: #000000; stroke-width: 0.8"/>
      </g>
     </g>
     <g id="text_12">
      <!-- 200 -->
      <g transform="translate(47.315625 129.518799) scale(0.2 -0.2)">
       <use xlink:href="#DejaVuSans-32"/>
       <use xlink:href="#DejaVuSans-30" x="63.623047"/>
       <use xlink:href="#DejaVuSans-30" x="127.246094"/>
      </g>
     </g>
    </g>
    <g id="ytick_5">
     <g id="line2d_12">
      <g>
       <use xlink:href="#m87e47c4e79" x="92.490625" y="64.177625" style="stroke: #000000; stroke-width: 0.8"/>
      </g>
     </g>
     <g id="text_13">
      <!-- 400 -->
      <g transform="translate(47.315625 71.776063) scale(0.2 -0.2)">
       <use xlink:href="#DejaVuSans-34"/>
       <use xlink:href="#DejaVuSans-30" x="63.623047"/>
       <use xlink:href="#DejaVuSans-30" x="127.246094"/>
      </g>
     </g>
    </g>
    <g id="text_14">
     <!-- Loss -->
     <g transform="translate(22.396875 191.970625) rotate(-90) scale(0.2 -0.2)">
      <defs>
       <path id="DejaVuSans-4c" d="M 628 4666 
L 1259 4666 
L 1259 531 
L 3531 531 
L 3531 0 
L 628 0 
L 628 4666 
z
" transform="scale(0.015625)"/>
      </defs>
      <use xlink:href="#DejaVuSans-4c"/>
      <use xlink:href="#DejaVuSans-6f" x="53.962891"/>
      <use xlink:href="#DejaVuSans-73" x="115.144531"/>
      <use xlink:href="#DejaVuSans-73" x="167.244141"/>
     </g>
    </g>
   </g>
   <g id="line2d_13">
    <path d="M 117.854261 139.751496 
L 118.161699 144.722794 
L 118.469137 162.598831 
L 119.084013 44.03625 
L 119.391451 89.448318 
L 119.698889 77.551362 
L 120.313765 106.365093 
L 120.621204 109.725828 
L 120.928642 120.640356 
L 121.23608 119.204262 
L 121.543518 119.595028 
L 121.850956 123.111252 
L 122.158394 128.275629 
L 122.465832 126.631141 
L 122.77327 125.789985 
L 123.695584 111.128382 
L 124.003022 114.143471 
L 124.617898 125.682262 
L 124.925336 126.858032 
L 125.232774 129.516622 
L 125.84765 144.970436 
L 126.155088 142.237891 
L 126.462526 146.018436 
L 126.769964 148.27681 
L 127.077402 152.985986 
L 127.38484 146.939282 
L 127.692278 145.550269 
L 127.999716 146.154845 
L 128.307154 143.578088 
L 128.614592 142.120697 
L 128.92203 138.82778 
L 129.229468 137.32097 
L 129.536906 140.170434 
L 129.844344 149.749148 
L 130.151782 145.161919 
L 130.45922 144.809135 
L 130.766658 141.918695 
L 131.074096 142.056481 
L 131.381534 142.689369 
L 131.99641 144.888742 
L 132.303848 147.579569 
L 132.611286 144.557811 
L 133.226162 147.266567 
L 133.5336 141.963787 
L 133.841038 146.561523 
L 134.148476 145.704415 
L 134.455914 146.942807 
L 134.763352 146.571102 
L 135.378228 151.018944 
L 135.685666 149.433482 
L 135.993104 151.088431 
L 136.300542 151.882622 
L 136.60798 152.057159 
L 136.915418 155.39376 
L 137.222856 154.443253 
L 137.530294 155.064561 
L 137.837732 157.186868 
L 138.14517 157.456633 
L 138.452608 157.874685 
L 138.760046 161.618246 
L 139.067485 159.61991 
L 139.374923 160.24721 
L 139.682361 159.359568 
L 139.989799 159.626263 
L 140.297237 162.870984 
L 140.604675 162.820485 
L 140.912113 164.349312 
L 141.219551 160.682349 
L 141.526989 164.299326 
L 141.834427 159.838717 
L 142.141865 160.412177 
L 142.449303 159.96084 
L 142.756741 162.549048 
L 143.064179 159.617214 
L 143.371617 162.521514 
L 143.986493 164.689134 
L 144.293931 166.947126 
L 144.601369 167.327422 
L 144.908807 166.729629 
L 145.216245 167.759036 
L 145.523683 165.917583 
L 145.831121 169.659523 
L 146.138559 169.737889 
L 146.445997 170.755676 
L 146.753435 167.899051 
L 147.060873 169.586443 
L 147.675749 170.564861 
L 147.983187 169.882117 
L 148.290625 172.760942 
L 148.598063 170.967299 
L 148.905501 170.438895 
L 149.212939 170.860476 
L 149.520377 172.297656 
L 149.827815 171.898915 
L 150.135253 172.457074 
L 150.442691 171.412696 
L 150.750129 172.181458 
L 151.365005 169.350699 
L 151.672443 171.819749 
L 151.979881 170.702797 
L 152.287319 170.386568 
L 152.594757 171.764484 
L 152.902195 170.363681 
L 153.517071 171.742956 
L 153.824509 173.321088 
L 154.131947 173.543595 
L 154.439385 173.401278 
L 154.746823 172.410984 
L 155.054261 172.754716 
L 155.361699 172.896141 
L 155.669137 172.496494 
L 155.976575 172.807733 
L 156.284013 172.372041 
L 156.591451 171.548362 
L 156.898889 172.908841 
L 157.513765 173.751662 
L 157.821204 173.680925 
L 158.128642 174.136271 
L 158.43608 173.041145 
L 158.743518 174.437231 
L 159.050956 172.369407 
L 159.358394 174.972957 
L 159.665832 174.250099 
L 159.97327 175.539665 
L 160.280708 174.034876 
L 160.588146 173.63476 
L 160.895584 174.998044 
L 161.51046 173.713275 
L 161.817898 173.768643 
L 162.125336 174.192507 
L 162.432774 175.217428 
L 162.740212 174.549207 
L 163.04765 175.102351 
L 163.355088 173.000769 
L 163.662526 173.396092 
L 164.277402 172.24628 
L 164.58484 173.830064 
L 164.892278 172.971341 
L 165.199716 175.344392 
L 165.507154 176.316089 
L 166.12203 174.720648 
L 166.429468 175.750386 
L 166.736906 175.270053 
L 167.044344 175.659534 
L 167.351782 175.802949 
L 167.65922 176.777934 
L 167.966658 176.066467 
L 168.274096 174.60952 
L 168.888972 177.18643 
L 169.19641 177.146097 
L 169.811286 176.671732 
L 170.426162 178.826261 
L 170.7336 178.840463 
L 171.041038 178.124467 
L 171.348476 178.644971 
L 171.655914 177.639782 
L 171.963352 178.637141 
L 172.27079 178.333677 
L 172.578228 178.623996 
L 172.885666 178.507095 
L 173.193104 178.055754 
L 173.500542 178.154192 
L 173.80798 177.461703 
L 174.422856 178.66269 
L 174.730294 178.675581 
L 175.037732 178.230668 
L 175.34517 178.09883 
L 175.652608 178.652588 
L 175.960046 177.930105 
L 176.882361 179.523749 
L 177.189799 178.940492 
L 177.497237 180.274731 
L 177.804675 179.956917 
L 178.112113 179.352725 
L 178.419551 180.378575 
L 178.726989 179.36548 
L 179.034427 179.641085 
L 179.341865 178.456831 
L 180.264179 179.82643 
L 180.571617 180.00236 
L 180.879055 180.935344 
L 181.186493 180.224525 
L 181.493931 180.851568 
L 181.801369 179.961341 
L 182.108807 180.187773 
L 182.416245 180.141461 
L 182.723683 181.494606 
L 183.031121 179.749474 
L 183.338559 181.661703 
L 183.645997 180.841325 
L 183.953435 181.108068 
L 184.260873 180.436024 
L 184.875749 182.051575 
L 185.183187 181.42228 
L 185.490625 181.417484 
L 185.798063 181.192607 
L 186.105501 181.70878 
L 186.720377 183.370872 
L 187.027815 182.602122 
L 187.335253 181.152498 
L 187.642691 182.618152 
L 187.950129 182.96134 
L 188.257567 182.33576 
L 188.565005 182.827178 
L 188.872443 182.95431 
L 189.179881 182.864038 
L 189.487319 182.510754 
L 189.794757 183.230302 
L 190.102195 182.899408 
L 190.409633 183.054188 
L 191.024509 183.659796 
L 191.639385 182.987873 
L 191.946823 183.77546 
L 192.254261 182.660957 
L 192.561699 183.157786 
L 192.869137 182.728784 
L 193.176575 183.01416 
L 193.484013 183.988878 
L 193.791451 184.529058 
L 194.098889 184.064193 
L 194.406327 184.222385 
L 194.713765 183.845806 
L 195.328642 183.780493 
L 195.943518 183.786981 
L 196.558394 183.979283 
L 196.865832 184.288766 
L 197.17327 184.176505 
L 197.788146 184.239144 
L 198.095584 184.552823 
L 198.71046 184.184467 
L 199.017898 184.679586 
L 199.325336 184.656079 
L 199.632774 184.883799 
L 199.940212 184.518958 
L 200.24765 184.613429 
L 200.862526 184.125656 
L 201.169964 184.52696 
L 201.477402 184.677067 
L 201.78484 184.492818 
L 202.092278 184.456798 
L 202.399716 185.084062 
L 202.707154 184.766681 
L 203.014592 184.134889 
L 203.32203 184.583512 
L 203.629468 184.059195 
L 204.244344 184.953905 
L 204.551782 184.443376 
L 204.85922 183.458362 
L 205.474096 184.344202 
L 205.781534 183.849578 
L 206.39641 184.82729 
L 206.703848 184.469422 
L 207.011286 185.046916 
L 207.318724 184.443785 
L 207.626162 184.476484 
L 207.9336 184.368245 
L 208.241038 183.937993 
L 208.855914 184.013952 
L 209.163352 184.777115 
L 209.47079 184.99747 
L 209.778228 183.772517 
L 210.085666 184.035706 
L 210.393104 184.102105 
L 210.700542 184.288311 
L 211.00798 184.173766 
L 211.315418 184.293227 
L 211.622856 184.00341 
L 211.930294 184.199036 
L 212.54517 184.092655 
L 212.852608 184.455043 
L 213.467485 184.287347 
L 213.774923 184.290951 
L 214.082361 183.727209 
L 214.697237 184.605861 
L 215.312113 184.274913 
L 215.619551 184.874952 
L 215.926989 184.9632 
L 216.234427 185.316616 
L 216.541865 185.323023 
L 216.849303 184.748002 
L 217.156741 184.519384 
L 217.464179 184.862935 
L 217.771617 184.523637 
L 218.386493 184.617477 
L 218.693931 184.415773 
L 219.001369 184.568713 
L 219.616245 183.720718 
L 219.923683 183.962436 
L 220.231121 183.809039 
L 220.538559 184.237151 
L 220.845997 184.03921 
L 221.153435 184.086871 
L 221.460873 184.247767 
L 222.690625 184.360026 
L 222.998063 184.510466 
L 223.305501 184.111391 
L 223.920377 184.1085 
L 224.227815 183.809955 
L 224.535253 184.328808 
L 224.842691 183.780577 
L 225.150129 184.626633 
L 225.457567 183.751032 
L 225.765005 183.766926 
L 226.072443 184.064515 
L 226.687319 184.284459 
L 226.994757 184.067987 
L 227.302195 184.061054 
L 227.609633 183.094892 
L 228.224509 183.743901 
L 228.531947 184.677753 
L 229.146823 183.939998 
L 229.454261 184.251046 
L 229.761699 184.200395 
L 230.069137 183.966637 
L 230.991451 184.067416 
L 231.298889 183.732881 
L 231.606327 184.6301 
L 231.913765 184.169221 
L 232.221204 183.967957 
L 232.528642 184.074859 
L 232.83608 183.424278 
L 233.143518 184.070452 
L 234.988146 183.61208 
L 235.295584 183.740517 
L 235.603022 184.238776 
L 235.91046 183.488428 
L 236.525336 183.851165 
L 237.140212 183.710228 
L 237.44765 183.838051 
L 238.369964 183.82598 
L 238.98484 183.289922 
L 239.292278 183.561546 
L 239.599716 183.463037 
L 239.907154 183.594836 
L 240.214592 183.446234 
L 240.52203 183.573195 
L 240.829468 183.125697 
L 241.136906 183.257786 
L 241.444344 183.147491 
L 241.751782 182.907027 
L 242.05922 183.072826 
L 242.366658 183.771144 
L 242.981534 182.883006 
L 243.288972 183.23388 
L 243.59641 183.288898 
L 243.903848 183.483698 
L 244.211286 183.068249 
L 244.826162 183.287115 
L 245.1336 183.159291 
L 245.441038 183.559667 
L 245.748476 183.361178 
L 246.055914 183.401738 
L 246.363352 183.750652 
L 246.67079 183.301438 
L 246.978228 183.920194 
L 247.593104 183.373584 
L 247.900542 183.171462 
L 248.20798 183.961579 
L 248.515418 184.187983 
L 248.822856 184.128509 
L 249.130294 183.744035 
L 249.437732 184.037423 
L 249.74517 183.771991 
L 250.052608 184.014808 
L 250.667485 183.771839 
L 251.282361 183.874599 
L 251.589799 184.11918 
L 251.897237 184.044082 
L 252.204675 183.77541 
L 252.512113 183.297732 
L 252.819551 183.237449 
L 253.126989 183.889617 
L 253.741865 183.403603 
L 254.049303 183.638456 
L 254.356741 183.237933 
L 254.664179 183.478615 
L 255.279055 183.355926 
L 255.586493 183.629338 
L 255.893931 183.641067 
L 256.201369 183.380171 
L 256.508807 183.35723 
L 256.816245 183.559473 
L 257.123683 183.546734 
L 257.738559 184.281031 
L 258.353435 184.485685 
L 258.660873 183.961286 
L 258.968311 184.134919 
L 259.275749 183.670988 
L 259.583187 183.955958 
L 259.890625 183.86234 
L 260.198063 183.350208 
L 260.505501 184.152244 
L 260.812939 183.509946 
L 261.120377 183.848731 
L 262.657567 184.314536 
L 262.965005 183.967137 
L 263.579881 184.477344 
L 263.887319 184.298746 
L 264.194757 183.977648 
L 264.502195 184.087434 
L 264.809633 184.402455 
L 265.424509 184.508636 
L 265.731947 183.924588 
L 266.346823 184.370312 
L 266.654261 184.261772 
L 266.961699 184.387189 
L 267.269137 184.22331 
L 267.576575 184.502419 
L 267.884013 184.57622 
L 268.191451 184.528911 
L 268.498889 184.61146 
L 269.421204 184.47329 
L 270.03608 184.449592 
L 270.650956 184.542384 
L 270.958394 184.103415 
L 271.265832 183.93274 
L 271.57327 184.643783 
L 271.880708 184.946179 
L 272.188146 184.625262 
L 272.495584 184.744458 
L 272.803022 184.123365 
L 273.11046 184.379415 
L 273.417898 184.333722 
L 273.725336 183.967268 
L 274.955088 183.902133 
L 275.262526 183.658483 
L 275.569964 184.056607 
L 276.18484 184.025916 
L 276.492278 183.864077 
L 276.799716 184.022285 
L 277.107154 184.414301 
L 277.414592 184.354348 
L 277.72203 184.134181 
L 278.336906 184.180303 
L 278.951782 183.895296 
L 279.25922 184.035501 
L 279.566658 183.811048 
L 279.874096 184.344264 
L 280.181534 183.948619 
L 280.488972 183.94321 
L 280.79641 183.649513 
L 281.103848 183.551772 
L 282.026162 184.018637 
L 282.3336 183.87005 
L 282.641038 183.563759 
L 282.948476 183.636485 
L 283.255914 183.828049 
L 283.563352 184.158674 
L 283.87079 183.668407 
L 284.178228 183.609338 
L 284.485666 183.336489 
L 284.793104 183.443337 
L 285.40798 183.992413 
L 285.715418 183.9525 
L 286.022856 183.591024 
L 286.330294 183.866701 
L 286.637732 183.821246 
L 286.94517 183.532774 
L 287.252608 183.614149 
L 287.867485 183.406414 
L 288.174923 183.598981 
L 288.482361 183.11501 
L 289.404675 183.699908 
L 290.326989 183.256929 
L 290.634427 183.53883 
L 290.941865 183.211051 
L 291.249303 183.496829 
L 291.556741 183.146545 
L 291.864179 183.510771 
L 292.171617 183.53694 
L 292.479055 183.138242 
L 292.786493 182.937259 
L 293.401369 183.56218 
L 293.708807 183.294892 
L 294.323683 183.236702 
L 294.631121 183.185423 
L 295.245997 183.572691 
L 295.860873 183.287384 
L 296.475749 183.374488 
L 296.783187 182.964802 
L 297.090625 183.324472 
L 298.012939 183.179447 
L 298.627815 182.909484 
L 298.935253 183.053275 
L 299.857567 182.703301 
L 300.165005 182.928952 
L 300.472443 182.642331 
L 300.779881 183.217741 
L 301.087319 182.641699 
L 301.394757 182.342965 
L 302.624509 182.654454 
L 303.239385 182.04344 
L 303.854261 182.575247 
L 304.469137 182.170588 
L 304.776575 182.086222 
L 305.084013 182.501844 
L 306.006327 182.10379 
L 306.621204 181.997351 
L 306.928642 181.859451 
L 307.23608 182.134081 
L 307.543518 181.989034 
L 308.465832 182.131205 
L 308.77327 181.99641 
L 309.080708 182.274329 
L 309.388146 182.348797 
L 309.695584 182.062362 
L 310.003022 182.172839 
L 310.31046 181.898594 
L 310.617898 182.152763 
L 310.925336 182.165862 
L 311.232774 182.051092 
L 311.540212 182.185709 
L 311.84765 182.104618 
L 312.155088 182.26453 
L 312.462526 182.081845 
L 313.077402 182.247898 
L 313.38484 181.880172 
L 313.692278 182.457096 
L 314.614592 182.123083 
L 314.92203 182.252178 
L 315.229468 181.974846 
L 315.536906 181.92908 
L 316.151782 182.289681 
L 316.45922 182.285905 
L 317.074096 181.982313 
L 317.381534 182.177789 
L 317.688972 181.717284 
L 317.99641 182.115084 
L 318.303848 181.991587 
L 319.226162 182.021724 
L 319.841038 181.672198 
L 320.148476 182.019801 
L 320.455914 181.900228 
L 320.763352 181.976095 
L 321.07079 181.715399 
L 321.685666 181.798032 
L 321.993104 181.819888 
L 322.300542 182.410156 
L 322.60798 182.356757 
L 322.915418 181.928667 
L 323.530294 182.085625 
L 323.837732 181.855502 
L 324.760046 182.06467 
L 325.067485 182.173658 
L 325.374923 181.477344 
L 325.682361 181.563387 
L 326.297237 181.991482 
L 326.604675 181.61934 
L 326.912113 181.66816 
L 327.219551 181.947722 
L 327.526989 181.55457 
L 328.141865 181.537416 
L 328.449303 181.455061 
L 328.756741 181.694866 
L 329.371617 181.499582 
L 329.679055 181.899471 
L 330.293931 181.673316 
L 331.216245 181.880001 
L 331.523683 181.918744 
L 331.831121 181.617495 
L 332.138559 181.882768 
L 333.675749 181.82529 
L 333.983187 182.057315 
L 334.290625 181.858086 
L 334.598063 182.088927 
L 335.212939 181.821125 
L 335.827815 182.074436 
L 336.135253 181.714748 
L 336.442691 181.911808 
L 337.057567 181.892884 
L 337.672443 181.914714 
L 337.979881 182.182074 
L 338.594757 182.094069 
L 338.902195 181.837987 
L 339.209633 182.179586 
L 339.517071 182.106454 
L 339.824509 181.874803 
L 340.131947 182.114865 
L 340.439385 182.202642 
L 341.054261 181.849286 
L 341.669137 181.730861 
L 341.976575 181.946451 
L 342.284013 181.832808 
L 342.591451 181.873687 
L 342.898889 181.671185 
L 343.206327 182.115224 
L 343.513765 181.895581 
L 343.821204 181.819581 
L 344.128642 181.896013 
L 345.050956 181.633087 
L 345.358394 181.837148 
L 345.97327 181.605606 
L 346.895584 181.807993 
L 347.203022 181.75169 
L 347.51046 182.010497 
L 347.817898 181.767403 
L 348.125336 181.929536 
L 348.432774 181.713882 
L 348.740212 181.910084 
L 349.04765 181.715839 
L 349.355088 181.752078 
L 349.662526 181.65318 
L 349.969964 182.018652 
L 350.277402 181.700738 
L 350.892278 182.011431 
L 351.199716 181.88846 
L 351.507154 182.119584 
L 351.814592 181.820852 
L 352.12203 181.794943 
L 352.429468 181.933428 
L 352.736906 181.904922 
L 353.044344 182.315877 
L 353.351782 182.176393 
L 353.65922 181.857772 
L 353.966658 181.741719 
L 354.274096 181.970247 
L 355.19641 181.764419 
L 355.503848 181.566946 
L 355.811286 181.948751 
L 356.426162 181.941357 
L 356.7336 181.635605 
L 357.041038 181.647958 
L 357.655914 181.984615 
L 357.963352 181.775092 
L 358.27079 181.958755 
L 358.578228 181.860021 
L 359.193104 181.968245 
L 359.80798 181.940155 
L 360.115418 182.079896 
L 360.422856 181.972468 
L 360.730294 181.635019 
L 361.037732 181.556081 
L 361.34517 182.018883 
L 361.960046 181.70419 
L 362.574923 181.908331 
L 362.882361 181.801337 
L 363.189799 182.096227 
L 363.497237 182.214674 
L 364.112113 182.045872 
L 364.419551 181.844999 
L 364.726989 182.168191 
L 365.341865 182.260202 
L 365.649303 182.578369 
L 365.956741 182.133033 
L 366.264179 182.356243 
L 366.571617 182.325819 
L 366.879055 182.539144 
L 367.801369 182.338434 
L 368.416245 182.612346 
L 368.723683 182.326725 
L 369.031121 182.233393 
L 369.338559 182.260451 
L 369.645997 181.823559 
L 370.260873 182.496897 
L 370.568311 182.381429 
L 370.875749 182.386388 
L 371.490625 182.018036 
L 372.105501 182.035199 
L 373.027815 182.719011 
L 373.335253 181.980023 
L 373.642691 182.126992 
L 373.950129 182.079339 
L 374.257567 182.281469 
L 374.565005 182.152763 
L 375.179881 182.425524 
L 375.487319 182.648119 
L 375.794757 182.343108 
L 376.102195 182.472849 
L 376.409633 182.278617 
L 376.717071 182.420449 
L 377.024509 182.187931 
L 377.639385 182.345065 
L 377.946823 182.225108 
L 378.254261 182.342791 
L 378.561699 182.20205 
L 378.869137 182.310865 
L 379.176575 182.262567 
L 379.484013 182.422297 
L 379.791451 182.238311 
L 380.098889 182.227703 
L 380.406327 182.734405 
L 380.713765 182.64305 
L 381.328642 182.269725 
L 381.63608 182.604648 
L 382.558394 182.665619 
L 382.865832 182.409528 
L 383.17327 182.314671 
L 383.480708 182.61643 
L 384.095584 182.756263 
L 384.71046 181.713727 
L 385.325336 182.09574 
L 385.632774 181.860879 
L 385.940212 182.235108 
L 386.24765 182.417097 
L 386.555088 182.094524 
L 386.862526 182.088403 
L 387.169964 180.75613 
L 387.477402 181.36807 
L 387.78484 181.044722 
L 388.092278 181.499861 
L 388.399716 181.216758 
L 389.014592 181.557919 
L 389.32203 182.067005 
L 389.629468 181.154298 
L 389.936906 181.581426 
L 390.244344 181.72072 
L 390.551782 181.993008 
L 390.85922 181.445361 
L 391.166658 181.992719 
L 391.474096 181.221768 
L 391.781534 182.055756 
L 392.39641 181.703545 
L 392.703848 182.17739 
L 393.011286 181.86346 
L 393.318724 181.709557 
L 393.626162 181.286916 
L 393.9336 181.642467 
L 394.548476 181.366215 
L 395.163352 182.14388 
L 395.47079 180.702184 
L 395.778228 181.131757 
L 396.085666 181.293721 
L 396.393104 180.934853 
L 396.700542 181.029025 
L 397.00798 181.84112 
L 397.315418 181.075245 
L 397.622856 181.645691 
L 398.54517 181.209068 
L 398.852608 181.697049 
L 399.160046 181.304358 
L 399.467485 181.800731 
L 399.774923 181.822994 
L 400.082361 181.207423 
L 400.389799 181.309172 
L 400.697237 181.225346 
L 401.004675 181.636205 
L 401.312113 181.361757 
L 401.619551 181.749318 
L 401.926989 181.579193 
L 402.849303 181.553703 
L 403.156741 181.266989 
L 403.464179 181.62811 
L 403.771617 181.508618 
L 404.079055 181.681638 
L 404.693931 181.757448 
L 405.001369 181.843494 
L 405.308807 181.274246 
L 405.616245 181.889342 
L 405.923683 181.378323 
L 406.231121 181.883192 
L 406.845997 181.864901 
L 407.153435 181.842312 
L 407.768311 181.452042 
L 408.075749 181.670057 
L 408.383187 181.718032 
L 408.998063 181.548898 
L 409.305501 180.753878 
L 409.612939 181.241443 
L 409.920377 181.482671 
L 410.535253 181.486929 
L 410.842691 181.536142 
L 411.150129 181.760343 
L 411.457567 181.297336 
L 411.765005 181.610279 
L 412.072443 181.469966 
L 413.917071 181.843426 
L 414.224509 181.458134 
L 414.531947 181.873508 
L 414.839385 182.026648 
L 415.454261 181.671739 
L 415.761699 181.914428 
L 416.069137 181.650586 
L 416.376575 182.178105 
L 416.991451 181.441076 
L 417.298889 181.833657 
L 417.606327 181.172624 
L 417.913765 181.295659 
L 418.221204 181.926367 
L 418.83608 181.327458 
L 419.143518 181.305159 
L 419.450956 181.417141 
L 420.065832 181.903998 
L 420.37327 181.697418 
L 420.680708 181.785847 
L 420.988146 181.507624 
L 421.295584 181.664356 
L 421.603022 182.113188 
L 421.91046 181.599762 
L 422.217898 181.815893 
L 422.525336 181.438996 
L 422.832774 181.888527 
L 423.140212 181.849666 
L 424.062526 181.297826 
L 424.369964 181.897426 
L 424.677402 181.899791 
L 424.98484 181.477058 
L 425.292278 181.658385 
L 426.214592 181.86535 
L 426.829468 181.32762 
L 427.136906 181.460468 
L 427.444344 181.807242 
L 428.366658 182.052626 
L 428.674096 182.018695 
L 428.981534 181.868872 
L 429.288972 182.063088 
L 429.59641 181.921009 
L 429.903848 181.391191 
L 430.211286 181.494604 
L 430.518724 181.401483 
L 430.826162 181.834328 
L 431.441038 181.707132 
L 432.055914 181.743471 
L 432.363352 181.415848 
L 432.67079 181.810782 
L 432.978228 181.884912 
L 433.593104 181.248831 
L 434.20798 181.488627 
L 434.515418 181.52042 
L 434.822856 181.254669 
L 435.130294 181.528004 
L 435.437732 181.443039 
L 435.74517 181.840267 
L 436.052608 181.845332 
L 436.360046 181.490288 
L 436.667485 181.654259 
L 436.974923 181.411453 
L 437.282361 181.533898 
L 437.589799 181.976768 
L 437.897237 181.514771 
L 438.204675 181.592697 
L 438.512113 181.438598 
L 438.819551 181.666391 
L 439.434427 181.912763 
L 440.049303 181.736755 
L 440.356741 181.807545 
L 440.664179 181.690725 
L 440.971617 181.911436 
L 441.279055 181.806047 
L 441.586493 181.938551 
L 441.893931 181.494397 
L 442.201369 181.592661 
L 442.508807 181.022009 
L 443.123683 181.577588 
L 443.431121 181.430094 
L 443.738559 181.692156 
L 444.045997 181.229433 
L 444.353435 181.530109 
L 444.660873 181.510832 
L 444.968311 181.647804 
L 445.275749 181.451512 
L 445.583187 180.858173 
L 445.890625 181.29498 
L 446.198063 181.225573 
L 446.505501 181.498542 
L 446.812939 181.578933 
L 447.120377 181.189674 
L 447.427815 181.42433 
L 447.735253 181.838708 
L 448.042691 181.634412 
L 448.350129 181.901887 
L 449.272443 181.437522 
L 449.579881 181.875266 
L 450.502195 181.273501 
L 450.809633 181.464215 
L 451.117071 181.869559 
L 451.424509 181.514982 
L 452.039385 181.477865 
L 452.654261 181.090554 
L 452.961699 181.125148 
L 453.269137 181.333768 
L 453.884013 181.180575 
L 454.191451 181.437622 
L 454.498889 181.415829 
L 454.806327 181.034219 
L 455.113765 181.513499 
L 455.421204 181.271683 
L 455.728642 181.677524 
L 456.343518 181.310056 
L 456.958394 181.110963 
L 457.265832 181.032935 
L 457.57327 181.407717 
L 457.880708 181.252521 
L 458.495584 181.229856 
L 458.803022 181.002191 
L 459.11046 181.370231 
L 459.417898 181.176056 
L 459.725336 181.122167 
L 460.64765 181.285982 
L 460.955088 181.32131 
L 461.262526 181.529299 
L 461.569964 181.160873 
L 461.877402 181.306721 
L 462.18484 180.989817 
L 462.492278 181.390401 
L 462.799716 180.95902 
L 463.107154 180.897879 
L 464.029468 181.315517 
L 464.644344 181.166751 
L 465.25922 181.542666 
L 465.566658 181.495931 
L 465.874096 181.634351 
L 466.181534 181.352787 
L 466.79641 181.146566 
L 467.103848 181.565958 
L 467.411286 181.406342 
L 467.718724 181.402117 
L 468.026162 181.216916 
L 468.3336 180.879316 
L 468.641038 181.289625 
L 468.948476 181.456855 
L 469.255914 181.440792 
L 469.563352 181.63946 
L 469.87079 181.209183 
L 470.178228 181.133027 
L 470.793104 181.432904 
L 471.100542 181.23675 
L 471.40798 181.291353 
L 472.637732 181.133215 
L 472.94517 181.197257 
L 473.252608 181.460739 
L 473.560046 181.349707 
L 473.867485 180.776414 
L 474.174923 181.074406 
L 474.482361 181.172411 
L 475.097237 181.089392 
L 475.404675 181.399396 
L 475.712113 181.17251 
L 476.326989 181.313571 
L 476.634427 181.246441 
L 476.941865 181.419497 
L 477.249303 181.332542 
L 477.556741 181.596243 
L 477.864179 181.579064 
L 478.171617 181.222241 
L 478.786493 181.406437 
L 479.093931 181.898546 
L 479.401369 181.861239 
L 479.708807 181.960052 
L 480.323683 181.41851 
L 480.631121 181.605858 
L 480.938559 181.627459 
L 481.553435 180.900183 
L 481.860873 181.557718 
L 482.168311 181.674811 
L 483.090625 181.296289 
L 483.398063 181.366604 
L 484.012939 180.99909 
L 484.320377 181.4416 
L 484.627815 181.395215 
L 484.935253 181.486239 
L 485.857567 180.985482 
L 486.165005 181.480009 
L 486.472443 181.756134 
L 486.779881 181.425716 
L 487.394757 181.771701 
L 487.702195 181.497585 
L 488.009633 181.737434 
L 488.317071 181.715865 
L 488.624509 181.075738 
L 488.931947 181.615182 
L 489.239385 181.687665 
L 489.546823 181.195419 
L 489.854261 180.966697 
L 490.161699 181.318864 
L 490.469137 181.004544 
L 490.776575 181.139349 
L 491.391451 181.549465 
L 491.698889 181.008634 
L 492.621204 181.74093 
L 492.928642 181.57486 
L 493.23608 181.196054 
L 493.850956 181.386718 
L 494.158394 181.194902 
L 494.77327 181.45957 
L 495.388146 181.235023 
L 495.695584 181.254574 
L 496.003022 181.605993 
L 496.31046 181.195828 
L 496.617898 181.692224 
L 497.232774 181.309798 
L 497.84765 181.421142 
L 498.155088 181.698777 
L 498.462526 181.042027 
L 499.38484 181.445471 
L 499.692278 181.31081 
L 499.999716 181.327594 
L 500.307154 181.11666 
L 500.614592 181.162544 
L 500.92203 181.388371 
L 501.229468 180.929671 
L 501.844344 180.956782 
L 502.151782 181.107553 
L 502.45922 180.957793 
L 502.766658 180.969267 
L 503.074096 181.129155 
L 503.381534 181.00983 
L 503.688972 181.196754 
L 503.99641 181.021908 
L 504.303848 181.102313 
L 504.611286 180.948431 
L 504.918724 181.297166 
L 505.226162 181.165441 
L 505.841038 181.379923 
L 506.148476 181.24827 
L 506.455914 181.245206 
L 506.763352 181.014085 
L 507.07079 181.268584 
L 507.685666 181.067971 
L 507.993104 181.133632 
L 508.60798 180.966421 
L 508.915418 181.198961 
L 509.222856 181.276763 
L 509.530294 180.771982 
L 510.760046 181.271907 
L 511.374923 181.630018 
L 511.682361 181.248319 
L 511.989799 181.327156 
L 512.297237 181.039197 
L 513.219551 180.947379 
L 513.526989 181.121538 
L 513.834427 180.708901 
L 514.449303 180.584239 
L 514.756741 180.833558 
L 515.064179 181.293264 
L 515.371617 181.405414 
L 515.679055 180.896941 
L 515.986493 181.035514 
L 516.908807 180.936077 
L 517.523683 181.148888 
L 517.831121 180.999466 
L 518.445997 181.283075 
L 519.060873 181.158665 
L 519.368311 180.980033 
L 519.675749 181.131137 
L 519.983187 181.11259 
L 520.290625 181.258273 
L 520.905501 181.027846 
L 521.212939 181.153425 
L 521.827815 180.970333 
L 522.442691 180.963251 
L 523.057567 181.057717 
L 523.672443 180.92849 
L 524.287319 181.128635 
L 524.902195 180.888857 
L 525.517071 181.018296 
L 525.824509 180.95006 
L 526.131947 181.00235 
L 526.439385 180.809315 
L 527.361699 181.626655 
L 527.669137 181.329525 
L 527.976575 181.442471 
L 528.284013 181.13052 
L 528.591451 181.399724 
L 528.898889 181.126611 
L 529.206327 181.144814 
L 529.821204 180.633508 
L 530.128642 180.790328 
L 530.43608 180.786827 
L 530.743518 180.958344 
L 531.050956 180.626251 
L 531.358394 180.840996 
L 532.280708 180.887006 
L 532.588146 181.184334 
L 532.895584 181.170837 
L 533.203022 181.397779 
L 534.125336 181.4434 
L 534.432774 180.909454 
L 534.740212 180.912085 
L 535.355088 181.288611 
L 536.277402 180.91234 
L 536.58484 181.251044 
L 536.892278 181.219561 
L 537.199716 180.908751 
L 538.429468 181.323486 
L 538.736906 181.04596 
L 539.044344 181.106774 
L 539.351782 180.716366 
L 539.966658 181.689367 
L 540.274096 181.369765 
L 540.581534 181.469591 
L 540.888972 181.425079 
L 541.19641 181.591382 
L 541.503848 181.520574 
L 541.811286 180.96498 
L 542.426162 181.444721 
L 542.7336 181.414505 
L 543.041038 180.965178 
L 543.348476 181.091142 
L 543.655914 180.600008 
L 543.963352 178.195744 
L 544.27079 180.335918 
L 544.578228 181.304346 
L 544.885666 180.632877 
L 545.193104 180.689646 
L 545.80798 181.17833 
L 546.422856 180.614472 
L 546.730294 180.603363 
L 547.34517 181.402396 
L 547.652608 181.299704 
L 548.574923 180.761105 
L 548.882361 181.091421 
L 549.189799 181.197466 
L 549.497237 180.940109 
L 550.112113 181.445612 
L 550.419551 181.064918 
L 550.726989 181.520251 
L 551.034427 181.185867 
L 551.341865 181.034077 
L 551.956741 181.469962 
L 552.571617 181.220537 
L 553.493931 181.170599 
L 553.801369 181.419236 
L 554.108807 181.100528 
L 554.723683 181.259376 
L 555.031121 180.914987 
L 555.338559 181.27989 
L 555.645997 180.601183 
L 555.953435 180.813282 
L 556.260873 180.734188 
L 556.568311 180.885173 
L 556.875749 180.684073 
L 557.183187 181.172577 
L 557.490625 181.44531 
L 558.105501 181.42527 
L 558.412939 181.13163 
L 558.720377 181.163901 
L 559.027815 181.329058 
L 559.335253 181.086477 
L 559.642691 181.348427 
L 560.257567 181.314705 
L 560.565005 180.992435 
L 560.872443 181.072758 
L 561.179881 181.020047 
L 561.487319 181.579128 
L 561.794757 181.223946 
L 562.409633 181.02497 
L 563.331947 181.276464 
L 563.639385 181.100499 
L 563.946823 181.225573 
L 564.254261 180.992601 
L 564.561699 181.258336 
L 564.869137 181.150322 
L 565.791451 181.296014 
L 566.098889 180.854017 
L 566.406327 181.515229 
L 566.713765 180.702824 
L 567.328642 181.390042 
L 567.63608 180.9192 
L 568.250956 181.136893 
L 568.558394 181.155831 
L 568.865832 180.91396 
L 569.17327 181.228419 
L 569.480708 180.874791 
L 569.788146 181.344017 
L 570.095584 181.086922 
L 570.403022 181.359759 
L 570.71046 181.002714 
L 571.325336 180.746402 
L 572.24765 181.19567 
L 572.862526 181.028098 
L 573.169964 181.260594 
L 573.477402 181.124131 
L 574.399716 181.452992 
L 574.707154 180.969291 
L 575.014592 180.891601 
L 575.32203 180.553723 
L 575.629468 180.830379 
L 577.474096 180.921729 
L 578.088972 181.306288 
L 578.39641 181.140257 
L 579.011286 181.049901 
L 579.318724 180.874135 
L 579.626162 181.220252 
L 579.9336 181.147729 
L 580.241038 181.232543 
L 580.548476 181.127042 
L 581.163352 181.235119 
L 581.47079 180.923689 
L 581.778228 181.301152 
L 582.085666 180.851945 
L 583.315418 181.230405 
L 583.622856 180.951801 
L 583.930294 181.17697 
L 584.237732 180.914806 
L 584.54517 181.085157 
L 584.852608 180.804534 
L 585.160046 181.122564 
L 585.774923 180.935161 
L 586.082361 181.134084 
L 586.389799 180.869549 
L 587.004675 180.841789 
L 587.312113 181.07211 
L 587.619551 180.817081 
L 587.926989 180.995654 
L 588.234427 180.972251 
L 588.541865 180.680751 
L 588.849303 181.034491 
L 589.156741 181.045023 
L 589.464179 181.176391 
L 589.771617 181.05166 
L 590.079055 181.10928 
L 590.386493 181.362863 
L 591.001369 181.145791 
L 591.616245 181.455469 
L 591.923683 181.126605 
L 592.231121 181.258855 
L 593.153435 181.084195 
L 593.460873 181.426523 
L 593.768311 181.582109 
L 594.075749 181.415061 
L 594.383187 181.769752 
L 594.690625 180.838184 
L 594.998063 181.292165 
L 595.305501 181.192071 
L 595.612939 180.890976 
L 595.920377 180.890706 
L 596.535253 181.517277 
L 596.842691 181.178283 
L 597.150129 181.067059 
L 597.457567 181.477957 
L 597.765005 181.522186 
L 598.072443 181.274997 
L 598.687319 181.204813 
L 598.994757 180.90992 
L 599.302195 180.940753 
L 599.609633 181.345957 
L 599.917071 181.26618 
L 600.224509 181.357045 
L 600.531947 181.117432 
L 600.839385 181.315114 
L 601.454261 181.28821 
L 602.376575 181.801642 
L 602.684013 181.760866 
L 603.298889 181.13773 
L 603.606327 181.161489 
L 603.913765 180.797015 
L 604.221204 181.231943 
L 604.528642 181.227049 
L 604.83608 181.087179 
L 605.758394 181.289441 
L 606.37327 181.70623 
L 606.680708 181.399366 
L 606.988146 181.552 
L 607.91046 181.196248 
L 608.525336 181.533052 
L 608.832774 181.182404 
L 609.140212 181.162531 
L 609.44765 181.268562 
L 609.755088 181.166188 
L 610.062526 181.237255 
L 610.369964 181.508306 
L 610.677402 181.217322 
L 610.98484 181.174004 
L 611.292278 181.448423 
L 612.214592 180.993825 
L 612.829468 181.211348 
L 613.444344 180.853506 
L 614.05922 181.251321 
L 614.366658 181.036013 
L 614.674096 181.236788 
L 614.981534 180.91502 
L 615.59641 181.260197 
L 615.903848 180.992569 
L 616.211286 180.906492 
L 616.518724 181.264495 
L 616.826162 181.337705 
L 617.1336 181.141876 
L 617.441038 181.401987 
L 617.748476 181.083603 
L 618.055914 181.15513 
L 618.363352 181.099415 
L 618.67079 181.461185 
L 618.978228 180.995664 
L 619.285666 181.027961 
L 619.593104 181.254851 
L 619.900542 180.992565 
L 620.822856 180.835867 
L 621.130294 181.28522 
L 621.437732 181.136979 
L 622.360046 181.057248 
L 622.667485 181.334315 
L 622.974923 181.008874 
L 623.282361 181.149922 
L 624.819551 181.151976 
L 625.126989 181.587694 
L 625.126989 181.587694 
" clip-path="url(#pc65b0967a1)" style="fill: none; stroke: #1f77b4; stroke-width: 1.5; stroke-linecap: square"/>
   </g>
   <g id="line2d_14">
    <path d="M 117.854261 296.03625 
L 118.161699 281.604935 
L 118.469137 284.937888 
L 118.776575 246.001987 
L 119.084013 270.950308 
L 119.391451 246.561247 
L 120.006327 226.968639 
L 120.313765 210.778769 
L 120.621204 215.903882 
L 120.928642 216.941819 
L 121.850956 206.772593 
L 122.158394 203.915034 
L 122.465832 202.60435 
L 123.080708 210.825042 
L 123.388146 216.91855 
L 123.695584 216.352314 
L 124.003022 218.493547 
L 124.31046 215.598695 
L 124.925336 221.377916 
L 125.232774 221.237981 
L 125.540212 209.700687 
L 125.84765 203.982905 
L 126.155088 201.936608 
L 126.462526 196.027266 
L 126.769964 195.848203 
L 127.077402 187.438441 
L 127.38484 190.141416 
L 127.999716 188.949437 
L 128.307154 190.792885 
L 128.614592 190.124215 
L 128.92203 190.46342 
L 129.229468 189.313475 
L 129.536906 188.765514 
L 129.844344 185.85427 
L 130.151782 186.505182 
L 130.45922 185.489899 
L 130.766658 185.992536 
L 131.074096 187.428099 
L 131.381534 187.422095 
L 132.303848 184.904326 
L 132.611286 186.32159 
L 132.918724 184.280463 
L 133.226162 185.073553 
L 133.5336 187.132296 
L 134.455914 184.810089 
L 134.763352 185.770033 
L 135.07079 184.676514 
L 135.378228 184.446925 
L 135.685666 184.73742 
L 135.993104 185.756947 
L 136.300542 184.552798 
L 136.60798 184.889511 
L 136.915418 184.004759 
L 137.222856 183.901411 
L 137.530294 184.210607 
L 137.837732 183.773288 
L 138.14517 183.881292 
L 138.452608 184.302752 
L 138.760046 184.383936 
L 139.067485 184.847795 
L 139.374923 183.874218 
L 139.682361 183.985069 
L 139.989799 184.487505 
L 140.297237 182.909122 
L 140.604675 182.846106 
L 140.912113 183.355634 
L 141.219551 184.113366 
L 141.526989 183.175639 
L 141.834427 183.903217 
L 142.141865 183.699209 
L 142.449303 183.061725 
L 142.756741 183.196088 
L 143.064179 185.027866 
L 143.679055 183.024234 
L 143.986493 183.024664 
L 144.293931 182.908792 
L 144.601369 182.921731 
L 144.908807 183.446698 
L 145.216245 183.231953 
L 145.523683 183.782402 
L 145.831121 183.157305 
L 146.445997 183.542492 
L 146.753435 183.446975 
L 147.060873 182.928913 
L 147.368311 183.836236 
L 147.675749 183.736315 
L 147.983187 183.907988 
L 148.290625 183.273056 
L 148.598063 183.490009 
L 148.905501 182.720341 
L 149.212939 182.625096 
L 149.520377 182.920247 
L 149.827815 183.852156 
L 150.135253 182.802564 
L 150.442691 182.738626 
L 150.750129 182.801259 
L 151.365005 183.681555 
L 151.672443 182.885937 
L 151.979881 183.817856 
L 152.287319 183.130461 
L 152.594757 183.143888 
L 153.209633 182.841679 
L 153.517071 183.534285 
L 153.824509 182.956399 
L 154.131947 183.1017 
L 154.439385 183.593199 
L 154.746823 183.231413 
L 155.054261 183.494154 
L 155.361699 182.587269 
L 155.976575 183.233486 
L 156.284013 183.014462 
L 156.591451 183.921541 
L 156.898889 183.145828 
L 157.206327 184.071561 
L 157.513765 183.153563 
L 157.821204 183.120939 
L 158.128642 183.217194 
L 158.43608 182.82653 
L 158.743518 183.195985 
L 159.050956 183.2152 
L 159.358394 182.068551 
L 159.665832 182.517478 
L 159.97327 183.2954 
L 160.280708 183.449769 
L 160.588146 183.395169 
L 160.895584 183.713621 
L 161.203022 182.791018 
L 161.51046 182.950666 
L 161.817898 183.437971 
L 162.125336 183.397177 
L 162.432774 182.63061 
L 162.740212 183.785292 
L 163.04765 182.474261 
L 163.355088 183.387489 
L 163.662526 182.480907 
L 163.969964 183.151485 
L 164.58484 182.730728 
L 164.892278 183.290475 
L 165.199716 182.409606 
L 165.507154 182.700566 
L 165.814592 183.743703 
L 166.12203 182.943793 
L 167.044344 182.818776 
L 167.351782 183.03813 
L 167.65922 182.991935 
L 167.966658 183.939272 
L 168.274096 183.640936 
L 168.581534 182.692036 
L 168.888972 182.555659 
L 169.19641 182.842249 
L 169.503848 182.57223 
L 169.811286 183.123184 
L 170.118724 182.891681 
L 170.426162 183.99973 
L 171.041038 182.255185 
L 171.348476 182.325751 
L 171.963352 182.950932 
L 172.27079 182.766578 
L 172.578228 183.213411 
L 172.885666 182.990066 
L 173.193104 183.10962 
L 173.500542 182.88939 
L 173.80798 183.19995 
L 174.115418 182.548171 
L 174.422856 182.331845 
L 174.730294 182.754582 
L 175.037732 182.386773 
L 175.34517 182.499166 
L 175.652608 183.056651 
L 175.960046 182.807802 
L 176.267485 183.105543 
L 176.574923 182.743468 
L 176.882361 183.52151 
L 177.189799 182.973611 
L 178.726989 183.079528 
L 179.341865 182.606775 
L 179.649303 182.513927 
L 180.264179 182.752587 
L 180.571617 183.008193 
L 180.879055 183.679111 
L 181.493931 182.806429 
L 181.801369 182.954243 
L 183.031121 183.070869 
L 183.338559 183.105361 
L 183.645997 182.863134 
L 184.260873 183.206005 
L 184.875749 182.746778 
L 185.798063 183.573065 
L 186.105501 183.018668 
L 186.412939 183.043531 
L 186.720377 183.317399 
L 187.335253 183.136009 
L 187.642691 183.506695 
L 187.950129 183.383708 
L 188.257567 183.030956 
L 188.872443 183.255503 
L 189.179881 183.74766 
L 189.487319 183.539514 
L 189.794757 184.122744 
L 190.102195 183.116812 
L 190.409633 183.055189 
L 191.024509 183.218949 
L 191.946823 183.497466 
L 192.254261 183.173385 
L 192.561699 183.701313 
L 192.869137 183.1398 
L 193.484013 183.983366 
L 193.791451 183.509783 
L 194.098889 183.31685 
L 194.406327 183.477441 
L 194.713765 182.976603 
L 195.021204 183.427922 
L 195.328642 183.32973 
L 195.63608 182.693731 
L 195.943518 183.190847 
L 196.250956 182.878586 
L 196.558394 183.631742 
L 196.865832 183.532027 
L 197.17327 184.148137 
L 197.480708 183.484397 
L 198.095584 183.193172 
L 198.403022 183.484256 
L 198.71046 183.52136 
L 199.017898 183.165281 
L 199.325336 182.983246 
L 199.632774 183.474534 
L 199.940212 183.229546 
L 200.24765 183.502455 
L 200.555088 183.333029 
L 200.862526 183.590888 
L 201.169964 183.320601 
L 201.477402 183.380472 
L 201.78484 183.071998 
L 202.092278 183.440573 
L 202.399716 183.385062 
L 202.707154 183.523604 
L 203.014592 183.365623 
L 203.32203 183.015156 
L 203.629468 183.250515 
L 203.936906 184.034514 
L 204.244344 183.839587 
L 204.551782 183.988011 
L 204.85922 183.312729 
L 205.166658 183.503067 
L 205.474096 183.375753 
L 205.781534 183.544545 
L 206.088972 183.094009 
L 206.703848 183.721852 
L 207.011286 183.432648 
L 207.318724 183.598003 
L 207.626162 182.852362 
L 207.9336 183.394857 
L 208.548476 183.282232 
L 209.163352 184.269199 
L 209.47079 183.427617 
L 209.778228 183.745692 
L 210.085666 183.455576 
L 210.700542 183.798223 
L 211.00798 183.654011 
L 211.315418 183.747524 
L 211.622856 183.490886 
L 211.930294 183.697737 
L 212.237732 183.543973 
L 212.54517 183.584663 
L 212.852608 183.770174 
L 213.160046 183.322506 
L 213.467485 183.880069 
L 213.774923 183.989708 
L 214.082361 183.367329 
L 214.389799 183.600689 
L 215.004675 183.696709 
L 215.312113 184.280465 
L 215.619551 183.46197 
L 216.234427 183.7913 
L 216.541865 183.806285 
L 216.849303 183.094654 
L 217.464179 183.904287 
L 217.771617 183.294811 
L 218.079055 183.580542 
L 219.001369 183.662428 
L 219.308807 183.316345 
L 219.616245 183.534865 
L 219.923683 183.912978 
L 220.231121 184.048144 
L 220.538559 183.461047 
L 221.153435 183.752332 
L 221.460873 183.61315 
L 221.768311 184.063493 
L 222.075749 183.592658 
L 222.383187 183.870614 
L 222.690625 183.186031 
L 222.998063 183.964145 
L 223.305501 183.160091 
L 223.612939 183.861212 
L 223.920377 183.292585 
L 224.227815 183.516306 
L 224.535253 183.331213 
L 224.842691 183.617877 
L 225.150129 183.525817 
L 225.457567 183.292991 
L 225.765005 183.480584 
L 226.072443 183.852578 
L 226.687319 183.79079 
L 226.994757 183.497384 
L 227.302195 183.815023 
L 227.609633 184.341255 
L 227.917071 183.225012 
L 228.224509 183.734344 
L 228.531947 183.358944 
L 228.839385 183.242344 
L 229.146823 183.601829 
L 229.454261 183.476473 
L 229.761699 183.648195 
L 230.069137 183.675303 
L 230.376575 183.545577 
L 230.684013 183.551833 
L 230.991451 183.68815 
L 231.298889 184.067365 
L 231.606327 184.011006 
L 232.221204 183.518072 
L 232.528642 183.905989 
L 232.83608 183.72298 
L 233.143518 184.051702 
L 233.450956 183.556504 
L 234.065832 183.560879 
L 234.37327 183.850074 
L 234.680708 183.510944 
L 234.988146 183.786796 
L 235.295584 183.574853 
L 235.603022 184.06199 
L 235.91046 183.535886 
L 236.217898 183.619326 
L 236.525336 184.003903 
L 237.140212 184.168796 
L 237.44765 183.648536 
L 237.755088 184.069936 
L 238.062526 183.989729 
L 238.369964 184.104739 
L 238.677402 183.551519 
L 238.98484 184.201567 
L 239.599716 183.335254 
L 239.907154 183.935562 
L 240.214592 183.628661 
L 240.52203 183.608723 
L 240.829468 183.338168 
L 241.136906 183.369248 
L 241.444344 183.728027 
L 241.751782 183.653923 
L 242.05922 183.871679 
L 242.366658 183.500933 
L 242.674096 183.804692 
L 242.981534 183.557266 
L 243.288972 183.536052 
L 243.59641 183.677491 
L 243.903848 183.511561 
L 244.211286 183.818911 
L 244.518724 183.680106 
L 244.826162 183.316719 
L 245.441038 184.030771 
L 245.748476 183.89653 
L 246.055914 183.561905 
L 246.363352 183.963076 
L 246.67079 183.589406 
L 246.978228 183.671066 
L 247.285666 184.032846 
L 247.900542 183.734416 
L 248.515418 183.984267 
L 248.822856 184.460725 
L 249.437732 183.955757 
L 249.74517 183.371575 
L 250.052608 183.800792 
L 250.360046 183.811522 
L 250.667485 184.438955 
L 250.974923 183.90586 
L 251.282361 183.751405 
L 251.589799 184.136892 
L 251.897237 184.113377 
L 252.204675 184.361561 
L 252.512113 183.893618 
L 253.126989 184.154274 
L 253.434427 183.986099 
L 253.741865 184.031172 
L 254.049303 184.746893 
L 254.356741 183.829595 
L 254.664179 184.525654 
L 255.279055 184.484841 
L 255.586493 183.539757 
L 255.893931 184.396892 
L 256.201369 183.562071 
L 256.508807 184.058096 
L 256.816245 184.027067 
L 257.431121 183.606717 
L 257.738559 184.135914 
L 258.353435 183.971408 
L 258.660873 183.836393 
L 258.968311 184.141271 
L 259.275749 183.986363 
L 259.583187 184.560163 
L 259.890625 184.119487 
L 260.505501 184.380259 
L 260.812939 183.942237 
L 261.120377 184.577942 
L 261.427815 184.126651 
L 261.735253 184.089082 
L 262.042691 184.519843 
L 262.350129 184.160777 
L 262.657567 184.141598 
L 262.965005 183.727954 
L 263.272443 184.247347 
L 263.579881 183.795225 
L 263.887319 183.797496 
L 264.194757 183.976826 
L 264.502195 184.007656 
L 264.809633 184.432068 
L 265.424509 184.492172 
L 265.731947 183.747344 
L 266.039385 183.93629 
L 266.346823 184.274464 
L 266.654261 184.085552 
L 266.961699 183.680952 
L 267.269137 184.109062 
L 267.576575 183.982663 
L 267.884013 184.470374 
L 268.191451 183.848077 
L 268.498889 184.292654 
L 268.806327 184.252351 
L 269.113765 184.65116 
L 269.728642 183.831811 
L 270.03608 184.151975 
L 270.343518 183.759917 
L 270.650956 184.046638 
L 270.958394 183.293369 
L 271.265832 183.455596 
L 272.188146 184.395394 
L 272.495584 184.200659 
L 272.803022 183.62969 
L 273.11046 183.918979 
L 273.417898 183.887444 
L 273.725336 183.680268 
L 274.032774 184.121697 
L 274.64765 183.577968 
L 274.955088 183.406932 
L 275.262526 183.699485 
L 275.569964 183.838053 
L 275.877402 184.174193 
L 276.18484 183.406188 
L 276.492278 183.566256 
L 276.799716 184.112185 
L 277.414592 183.857474 
L 278.029468 183.345625 
L 278.644344 184.10976 
L 278.951782 183.552716 
L 279.25922 183.578276 
L 279.566658 183.451638 
L 280.181534 183.804361 
L 280.488972 183.562106 
L 280.79641 183.65838 
L 281.103848 183.506233 
L 282.3336 183.5843 
L 282.641038 183.401444 
L 282.948476 183.679564 
L 283.255914 183.625895 
L 283.563352 184.167791 
L 283.87079 183.337589 
L 284.178228 183.581917 
L 284.485666 183.259873 
L 284.793104 183.674293 
L 285.40798 183.769385 
L 285.715418 183.061354 
L 286.637732 183.900729 
L 286.94517 183.444012 
L 287.560046 183.288519 
L 287.867485 183.655874 
L 288.174923 183.632594 
L 288.482361 183.295308 
L 288.789799 183.364492 
L 289.097237 183.186586 
L 289.404675 183.503763 
L 290.326989 183.32978 
L 290.634427 183.466503 
L 290.941865 183.454851 
L 291.249303 183.076589 
L 291.556741 183.41821 
L 291.864179 183.524796 
L 292.171617 182.842981 
L 292.479055 183.131057 
L 293.093931 183.245596 
L 293.401369 183.376076 
L 293.708807 183.107833 
L 294.016245 183.460305 
L 294.323683 183.425541 
L 294.631121 183.241457 
L 295.245997 183.619045 
L 295.553435 183.147681 
L 295.860873 183.273929 
L 296.475749 183.159597 
L 296.783187 183.491664 
L 297.090625 183.561443 
L 297.398063 183.185605 
L 297.705501 183.588135 
L 298.012939 183.219707 
L 298.320377 183.087308 
L 298.627815 183.319028 
L 298.935253 183.410961 
L 299.242691 183.24749 
L 299.857567 183.111364 
L 300.165005 183.54411 
L 300.472443 183.164345 
L 300.779881 183.752388 
L 301.087319 182.989223 
L 302.317071 183.309707 
L 302.624509 183.410028 
L 302.931947 183.065202 
L 303.239385 183.062422 
L 303.854261 183.589781 
L 304.161699 183.391143 
L 304.469137 182.950594 
L 305.084013 183.592637 
L 305.698889 183.61025 
L 306.006327 183.113705 
L 306.313765 182.873457 
L 306.621204 183.084194 
L 306.928642 183.452025 
L 307.23608 182.923494 
L 307.543518 183.434375 
L 308.158394 182.997813 
L 308.465832 183.315565 
L 308.77327 183.145289 
L 309.388146 183.57406 
L 309.695584 183.260156 
L 310.31046 183.06024 
L 310.617898 183.147698 
L 311.232774 182.782334 
L 311.540212 183.381895 
L 311.84765 182.975455 
L 312.155088 183.442126 
L 312.462526 183.106796 
L 312.769964 183.474376 
L 313.077402 182.835026 
L 313.38484 183.149862 
L 313.692278 183.087538 
L 313.999716 183.411053 
L 314.307154 183.168374 
L 314.614592 183.180928 
L 314.92203 183.325319 
L 315.229468 182.791654 
L 315.536906 182.55984 
L 315.844344 182.914375 
L 316.151782 182.917697 
L 316.766658 183.183789 
L 317.381534 183.159303 
L 317.99641 183.012312 
L 318.303848 182.604557 
L 318.611286 183.046112 
L 318.918724 183.195119 
L 319.226162 182.889687 
L 319.5336 182.996916 
L 320.148476 183.026144 
L 320.763352 183.267688 
L 321.07079 182.864167 
L 321.378228 182.900338 
L 321.685666 183.192053 
L 321.993104 183.121054 
L 322.300542 183.387414 
L 322.915418 182.854778 
L 323.222856 182.99409 
L 323.530294 182.84007 
L 323.837732 182.958257 
L 324.14517 183.343694 
L 324.452608 182.8654 
L 324.760046 183.227404 
L 325.067485 183.320284 
L 325.374923 182.946414 
L 325.682361 182.853768 
L 325.989799 183.247682 
L 326.912113 183.227195 
L 327.219551 183.543206 
L 327.526989 183.115228 
L 327.834427 183.077924 
L 328.141865 182.86555 
L 328.449303 183.262107 
L 328.756741 183.17484 
L 329.064179 182.869864 
L 329.679055 183.181223 
L 329.986493 182.948603 
L 330.601369 182.98284 
L 330.908807 183.411502 
L 331.216245 183.456222 
L 331.523683 183.160918 
L 331.831121 183.315215 
L 332.138559 183.187405 
L 332.445997 183.406213 
L 332.753435 182.721065 
L 333.060873 183.299725 
L 333.368311 183.430653 
L 333.983187 183.090215 
L 334.598063 183.392291 
L 334.905501 183.283125 
L 335.212939 182.707293 
L 335.827815 183.587734 
L 336.135253 183.586786 
L 336.442691 183.027914 
L 336.750129 183.120785 
L 337.365005 182.952666 
L 337.979881 183.340357 
L 339.517071 183.243999 
L 339.824509 183.015496 
L 340.439385 183.388726 
L 341.361699 183.245335 
L 341.669137 183.526566 
L 342.284013 183.38595 
L 342.591451 183.678664 
L 342.898889 183.587264 
L 343.206327 183.229104 
L 343.513765 183.244474 
L 344.128642 183.591564 
L 344.43608 182.83058 
L 345.050956 183.467039 
L 345.97327 183.012192 
L 346.280708 183.285372 
L 346.588146 182.856099 
L 347.203022 183.321429 
L 347.51046 183.278836 
L 347.817898 183.06228 
L 348.125336 183.08701 
L 348.432774 182.810761 
L 348.740212 183.033006 
L 349.355088 183.205329 
L 349.662526 182.746892 
L 349.969964 183.668937 
L 350.277402 183.280835 
L 350.892278 182.987819 
L 351.199716 182.980378 
L 351.507154 182.689718 
L 351.814592 182.881797 
L 352.12203 183.238529 
L 352.429468 182.903573 
L 353.044344 183.278655 
L 353.351782 183.864914 
L 353.966658 182.881302 
L 354.581534 182.496939 
L 354.888972 182.964083 
L 355.19641 182.932074 
L 355.503848 183.328355 
L 355.811286 183.414942 
L 356.426162 183.08329 
L 356.7336 183.502748 
L 357.041038 183.406766 
L 357.348476 182.975909 
L 357.655914 183.033288 
L 357.963352 183.264682 
L 358.885666 183.125527 
L 361.037732 183.210635 
L 361.34517 183.390996 
L 361.652608 183.247714 
L 362.267485 183.139241 
L 362.574923 182.7976 
L 362.882361 183.158489 
L 363.189799 183.300028 
L 363.804675 182.631251 
L 364.112113 182.771337 
L 364.419551 183.118759 
L 364.726989 182.976473 
L 365.034427 183.321974 
L 365.341865 183.497905 
L 366.264179 183.037855 
L 366.571617 183.406321 
L 366.879055 183.506245 
L 367.186493 183.117107 
L 367.493931 183.270517 
L 367.801369 183.069813 
L 368.108807 183.06227 
L 368.416245 183.500583 
L 368.723683 183.213128 
L 369.953435 183.231397 
L 370.260873 183.41181 
L 370.875749 183.051382 
L 371.183187 183.010845 
L 371.490625 183.358565 
L 372.412939 182.973402 
L 372.720377 183.439632 
L 373.027815 183.343979 
L 373.335253 183.451405 
L 373.642691 183.754983 
L 373.950129 183.196067 
L 374.257567 183.369495 
L 374.565005 182.879069 
L 374.872443 182.881103 
L 375.179881 183.323204 
L 375.794757 183.800187 
L 376.102195 183.416379 
L 376.409633 183.388463 
L 376.717071 182.964581 
L 377.024509 183.437921 
L 377.639385 183.108274 
L 378.254261 182.974154 
L 378.561699 182.937994 
L 378.869137 183.247622 
L 379.176575 183.255529 
L 379.484013 183.843212 
L 379.791451 182.950002 
L 381.021204 183.181687 
L 381.63608 183.507414 
L 381.943518 183.212241 
L 382.250956 183.569302 
L 382.558394 183.43711 
L 382.865832 183.118884 
L 383.17327 183.359822 
L 383.480708 183.312847 
L 383.788146 182.979613 
L 384.095584 183.438856 
L 384.403022 182.299609 
L 384.71046 181.762942 
L 385.017898 183.441184 
L 385.940212 182.961926 
L 386.24765 183.454121 
L 386.555088 183.175714 
L 386.862526 183.373462 
L 387.169964 182.405084 
L 387.477402 180.350935 
L 387.78484 180.307807 
L 388.707154 181.647799 
L 389.014592 181.67833 
L 389.32203 182.428926 
L 389.629468 181.779399 
L 389.936906 182.309822 
L 390.244344 181.950503 
L 390.85922 181.811203 
L 391.166658 182.112539 
L 391.474096 182.119962 
L 391.781534 183.012767 
L 392.39641 182.240705 
L 392.703848 182.865056 
L 393.011286 182.625435 
L 393.318724 182.555945 
L 393.626162 182.060638 
L 393.9336 181.790267 
L 394.241038 181.872344 
L 394.548476 182.292266 
L 394.855914 182.355283 
L 395.163352 182.651025 
L 395.47079 181.105141 
L 395.778228 181.664196 
L 396.085666 181.607785 
L 396.393104 181.839257 
L 396.700542 181.778432 
L 397.00798 182.066054 
L 397.315418 182.024339 
L 397.622856 182.132545 
L 398.237732 181.90766 
L 398.54517 182.047168 
L 398.852608 181.99583 
L 399.160046 182.254159 
L 399.467485 181.839294 
L 399.774923 182.432153 
L 400.082361 181.941677 
L 400.389799 182.270582 
L 400.697237 181.797613 
L 401.004675 181.937586 
L 401.312113 181.866494 
L 401.619551 182.105283 
L 401.926989 182.004853 
L 402.234427 181.770463 
L 402.541865 182.209652 
L 402.849303 182.15394 
L 403.156741 182.278743 
L 403.464179 182.0443 
L 404.079055 182.350906 
L 404.386493 181.991202 
L 405.001369 182.179557 
L 405.308807 182.057555 
L 405.616245 182.350878 
L 405.923683 182.414161 
L 406.231121 182.635928 
L 406.845997 182.199205 
L 407.153435 182.378853 
L 407.460873 182.341046 
L 407.768311 182.13528 
L 408.075749 182.076736 
L 408.383187 182.199744 
L 408.690625 182.111265 
L 408.998063 182.264371 
L 409.305501 181.75747 
L 409.612939 181.624852 
L 409.920377 182.026701 
L 410.535253 182.153099 
L 411.150129 182.247594 
L 411.457567 182.569226 
L 411.765005 182.231737 
L 412.072443 182.239436 
L 412.379881 181.855166 
L 412.687319 182.195919 
L 412.994757 182.236617 
L 413.302195 182.157868 
L 413.609633 182.442652 
L 413.917071 182.495546 
L 414.224509 181.732491 
L 414.531947 182.424756 
L 414.839385 182.535168 
L 415.146823 182.355891 
L 415.454261 182.012175 
L 415.761699 182.700203 
L 416.069137 182.243314 
L 416.376575 182.543644 
L 416.684013 182.660535 
L 416.991451 182.208276 
L 417.298889 182.065511 
L 417.606327 182.313926 
L 417.913765 182.199557 
L 418.221204 182.488326 
L 418.83608 181.972093 
L 420.065832 182.320669 
L 420.37327 182.06008 
L 420.680708 182.687156 
L 421.295584 182.594929 
L 421.603022 182.375168 
L 421.91046 182.324818 
L 422.217898 182.508199 
L 422.525336 182.524887 
L 422.832774 182.242166 
L 423.140212 182.504688 
L 423.755088 182.138973 
L 424.062526 181.981903 
L 424.369964 182.243448 
L 425.599716 182.119861 
L 425.907154 182.057143 
L 426.52203 182.286359 
L 426.829468 182.082584 
L 427.136906 182.138121 
L 427.751782 182.505293 
L 428.05922 182.401842 
L 428.366658 182.485467 
L 428.674096 182.34327 
L 428.981534 182.569181 
L 429.288972 182.530533 
L 429.59641 182.149332 
L 429.903848 182.232089 
L 430.211286 182.113911 
L 430.518724 182.324375 
L 430.826162 182.351873 
L 431.1336 182.20829 
L 432.978228 182.632047 
L 433.285666 182.390814 
L 433.593104 182.440597 
L 433.900542 182.656737 
L 434.20798 182.502688 
L 434.515418 182.637357 
L 434.822856 182.095196 
L 435.130294 182.283805 
L 435.437732 182.069755 
L 435.74517 182.536919 
L 436.052608 182.640008 
L 436.360046 182.396871 
L 436.667485 182.545075 
L 437.282361 182.460655 
L 437.897237 182.594223 
L 438.204675 182.883057 
L 439.126989 182.550176 
L 440.049303 182.335158 
L 440.356741 182.094919 
L 440.664179 182.439439 
L 440.971617 182.449754 
L 441.279055 182.333685 
L 441.586493 182.384298 
L 442.508807 181.973572 
L 443.738559 181.909574 
L 444.353435 182.367982 
L 444.660873 182.184092 
L 444.968311 182.209204 
L 445.890625 181.757783 
L 446.198063 182.046813 
L 446.812939 181.895438 
L 447.120377 181.761605 
L 447.427815 182.163757 
L 447.735253 181.922442 
L 448.350129 182.002908 
L 448.657567 182.331292 
L 448.965005 182.230149 
L 449.272443 182.319543 
L 449.579881 182.174219 
L 449.887319 182.220184 
L 450.194757 181.848545 
L 450.502195 182.240633 
L 450.809633 182.003928 
L 451.117071 182.187805 
L 452.346823 182.115941 
L 452.654261 181.728746 
L 452.961699 181.858457 
L 453.269137 182.188899 
L 453.884013 182.174414 
L 454.498889 182.175654 
L 455.113765 182.163007 
L 455.421204 182.230807 
L 455.728642 182.135633 
L 456.03608 182.287623 
L 456.958394 181.866172 
L 457.265832 181.89936 
L 457.57327 182.239634 
L 457.880708 182.186477 
L 458.188146 181.93379 
L 458.495584 182.083731 
L 458.803022 182.068481 
L 459.11046 181.74011 
L 459.417898 181.921651 
L 459.725336 181.807126 
L 460.64765 181.953517 
L 460.955088 181.902134 
L 461.262526 182.037676 
L 461.877402 181.718665 
L 462.18484 181.825252 
L 462.492278 182.142079 
L 463.107154 181.853801 
L 463.72203 182.064664 
L 464.029468 182.087273 
L 464.336906 181.799895 
L 464.644344 182.269505 
L 464.951782 182.295824 
L 465.25922 182.054519 
L 465.566658 182.290106 
L 465.874096 182.149317 
L 466.488972 181.740144 
L 466.79641 181.883053 
L 468.026162 181.970675 
L 468.3336 181.68243 
L 468.641038 182.09441 
L 469.255914 182.167889 
L 469.87079 181.676868 
L 470.178228 181.864798 
L 470.485666 181.921529 
L 470.793104 182.091311 
L 471.100542 181.811555 
L 471.40798 181.72748 
L 471.715418 181.918756 
L 472.022856 181.577909 
L 472.94517 181.884943 
L 473.252608 182.195232 
L 473.560046 182.076375 
L 474.174923 181.688939 
L 475.097237 181.888783 
L 475.404675 181.935298 
L 475.712113 181.553882 
L 476.326989 181.70919 
L 476.634427 181.962171 
L 476.941865 181.805463 
L 477.249303 182.31243 
L 477.556741 181.850127 
L 477.864179 181.743885 
L 478.479055 181.934827 
L 478.786493 181.73376 
L 479.093931 182.240763 
L 479.401369 182.297025 
L 479.708807 181.865324 
L 480.016245 182.298322 
L 480.631121 181.792845 
L 480.938559 182.101816 
L 481.245997 181.807663 
L 481.553435 182.011369 
L 481.860873 181.862656 
L 482.168311 181.545636 
L 482.475749 181.935272 
L 483.090625 182.082325 
L 483.398063 181.987239 
L 483.705501 182.145787 
L 484.012939 181.901138 
L 484.320377 182.199781 
L 484.627815 181.592446 
L 484.935253 181.312293 
L 485.550129 182.069524 
L 485.857567 180.052708 
L 486.472443 181.958992 
L 486.779881 182.280114 
L 487.087319 181.981429 
L 487.702195 181.847476 
L 488.009633 182.080644 
L 488.317071 181.74972 
L 488.931947 181.995071 
L 489.239385 182.29362 
L 489.546823 181.965993 
L 489.854261 182.010501 
L 490.161699 181.834422 
L 490.469137 181.894159 
L 491.084013 181.761904 
L 491.391451 182.043791 
L 492.313765 181.765094 
L 492.928642 182.41181 
L 493.23608 182.096682 
L 493.543518 182.228219 
L 493.850956 182.134654 
L 494.158394 182.183119 
L 494.465832 182.042655 
L 494.77327 182.234615 
L 495.080708 182.149602 
L 495.388146 181.919169 
L 496.003022 182.110859 
L 496.31046 181.927376 
L 496.617898 182.019863 
L 497.232774 181.8605 
L 497.84765 182.15836 
L 498.155088 182.242096 
L 498.769964 182.168419 
L 499.077402 181.920597 
L 499.38484 182.078837 
L 499.692278 181.968266 
L 499.999716 182.125528 
L 500.307154 181.925233 
L 500.614592 181.995146 
L 500.92203 182.256933 
L 501.536906 181.956486 
L 501.844344 182.07418 
L 502.151782 181.57487 
L 502.45922 181.804915 
L 502.766658 181.242766 
L 503.074096 181.793522 
L 503.381534 181.959183 
L 503.99641 181.850256 
L 504.303848 181.794141 
L 504.918724 182.030353 
L 505.226162 182.449644 
L 505.5336 181.999728 
L 505.841038 182.160305 
L 506.763352 181.726165 
L 507.07079 181.878269 
L 507.378228 181.773254 
L 507.993104 182.000091 
L 508.300542 182.002512 
L 508.915418 181.803269 
L 509.837732 181.803712 
L 510.14517 181.659426 
L 510.452608 181.730658 
L 511.374923 182.190769 
L 511.682361 181.833131 
L 511.989799 182.159772 
L 512.297237 181.805979 
L 512.604675 181.738369 
L 512.912113 181.793717 
L 513.219551 182.077099 
L 513.526989 182.205691 
L 513.834427 181.962345 
L 514.449303 181.824625 
L 515.064179 182.167373 
L 515.679055 181.8784 
L 515.986493 181.654484 
L 516.293931 181.949669 
L 516.601369 181.678056 
L 516.908807 181.735695 
L 517.216245 181.913964 
L 517.523683 181.721036 
L 517.831121 181.874075 
L 518.138559 181.806772 
L 518.445997 182.016588 
L 518.753435 181.839141 
L 519.060873 182.074242 
L 519.368311 181.818003 
L 519.675749 181.753855 
L 519.983187 181.830436 
L 520.290625 181.642867 
L 520.905501 181.696632 
L 521.827815 181.812505 
L 522.135253 181.684922 
L 522.750129 181.85471 
L 523.057567 181.634675 
L 523.672443 182.171771 
L 523.979881 181.519403 
L 524.902195 182.009526 
L 525.209633 181.672554 
L 525.517071 181.83577 
L 525.824509 181.833104 
L 526.131947 181.600327 
L 526.439385 182.016647 
L 526.746823 182.024052 
L 527.054261 181.727536 
L 527.669137 181.98245 
L 527.976575 182.084721 
L 528.284013 181.833465 
L 528.591451 182.02428 
L 529.513765 181.616899 
L 529.821204 181.854124 
L 530.128642 181.894306 
L 530.43608 181.700946 
L 530.743518 182.163858 
L 531.050956 181.960477 
L 531.358394 181.603975 
L 532.588146 181.941194 
L 532.895584 181.838706 
L 533.51046 182.088693 
L 533.817898 182.308904 
L 534.125336 182.282092 
L 534.432774 181.980502 
L 534.740212 181.975156 
L 535.355088 181.694727 
L 535.662526 181.973114 
L 535.969964 181.920721 
L 536.277402 182.122342 
L 537.199716 181.93848 
L 537.507154 181.739666 
L 537.814592 181.9783 
L 538.12203 181.766782 
L 538.429468 181.800565 
L 538.736906 181.975119 
L 539.044344 181.819662 
L 539.966658 182.168837 
L 540.274096 181.932679 
L 540.581534 181.837776 
L 540.888972 182.248496 
L 541.19641 181.818937 
L 541.503848 181.899228 
L 541.811286 181.61977 
L 542.118724 182.075376 
L 542.7336 181.745763 
L 543.041038 182.02806 
L 543.348476 181.729104 
L 543.655914 178.870123 
L 543.963352 170.229221 
L 544.27079 180.666642 
L 544.578228 181.321931 
L 544.885666 181.555562 
L 545.193104 181.493365 
L 545.500542 182.043347 
L 545.80798 181.271262 
L 546.115418 181.467953 
L 546.422856 181.459883 
L 547.037732 181.891243 
L 547.34517 181.748658 
L 547.960046 181.715927 
L 548.267485 181.602932 
L 548.574923 181.855308 
L 549.189799 181.777103 
L 549.497237 181.856539 
L 549.804675 181.664169 
L 550.112113 181.799604 
L 550.419551 181.606036 
L 551.034427 181.976507 
L 551.341865 181.974598 
L 551.649303 181.662989 
L 551.956741 181.846343 
L 552.264179 181.620717 
L 552.571617 181.831968 
L 553.186493 181.697359 
L 553.493931 181.795002 
L 553.801369 182.18322 
L 554.723683 181.52973 
L 555.338559 181.981396 
L 555.645997 182.022673 
L 555.953435 181.891226 
L 557.183187 182.050009 
L 557.798063 181.740706 
L 558.105501 182.095322 
L 558.412939 181.610063 
L 559.027815 181.788659 
L 559.335253 181.683531 
L 559.642691 181.845154 
L 559.950129 181.523445 
L 560.257567 181.523421 
L 560.565005 181.734572 
L 561.179881 181.609469 
L 561.794757 181.797784 
L 562.102195 181.220871 
L 562.717071 181.70697 
L 563.639385 181.897701 
L 564.561699 181.679268 
L 565.176575 181.943345 
L 565.791451 181.801782 
L 566.406327 182.104988 
L 566.713765 181.685994 
L 567.021204 181.849745 
L 567.63608 181.692192 
L 567.943518 181.915774 
L 568.250956 181.756404 
L 568.865832 181.890293 
L 570.403022 181.823925 
L 570.71046 181.625437 
L 571.017898 181.63508 
L 571.325336 181.959367 
L 572.24765 181.880399 
L 572.555088 181.464954 
L 572.862526 182.008576 
L 573.169964 181.659954 
L 573.477402 181.57685 
L 573.78484 181.722709 
L 574.707154 181.553949 
L 575.014592 181.906624 
L 575.32203 181.778482 
L 575.629468 181.95063 
L 576.244344 181.845578 
L 576.551782 182.035475 
L 576.85922 181.994049 
L 577.474096 181.595286 
L 578.39641 181.790146 
L 578.703848 181.568494 
L 579.011286 181.767949 
L 579.626162 181.555577 
L 579.9336 181.71629 
L 580.241038 181.500318 
L 580.855914 181.589613 
L 581.163352 182.324492 
L 581.47079 181.65213 
L 581.778228 181.556863 
L 582.393104 181.687451 
L 582.700542 181.621999 
L 583.00798 181.713766 
L 583.315418 181.530357 
L 583.622856 181.492269 
L 584.237732 181.653447 
L 584.852608 181.444557 
L 585.774923 181.840735 
L 586.082361 181.76703 
L 586.389799 181.903335 
L 586.697237 181.780249 
L 587.004675 181.884581 
L 587.312113 181.753939 
L 587.619551 181.502286 
L 588.849303 181.943653 
L 589.156741 181.72517 
L 589.464179 181.915604 
L 590.386493 181.719722 
L 590.693931 181.45755 
L 591.001369 181.958284 
L 591.308807 181.722957 
L 592.231121 181.732174 
L 592.845997 181.726356 
L 593.153435 181.532331 
L 593.460873 181.871927 
L 593.768311 181.520266 
L 594.075749 181.605969 
L 594.383187 181.846301 
L 594.690625 181.80138 
L 594.998063 181.603367 
L 595.305501 181.683795 
L 595.920377 181.439124 
L 596.227815 181.731045 
L 596.535253 181.818212 
L 596.842691 182.024506 
L 597.150129 181.73129 
L 597.457567 181.667424 
L 597.765005 181.452831 
L 598.072443 181.69617 
L 598.379881 181.627867 
L 598.687319 181.885654 
L 598.994757 181.707161 
L 599.302195 181.774239 
L 599.609633 181.70003 
L 599.917071 181.866095 
L 600.224509 181.671007 
L 600.531947 181.629185 
L 600.839385 182.064093 
L 601.761699 181.658267 
L 602.069137 181.994362 
L 602.376575 181.850652 
L 602.684013 181.834231 
L 602.991451 182.018925 
L 603.298889 181.896272 
L 603.606327 181.593554 
L 604.221204 181.842488 
L 604.528642 181.698642 
L 604.83608 181.724998 
L 605.450956 181.652872 
L 605.758394 181.823168 
L 606.065832 181.714259 
L 606.37327 181.789478 
L 606.680708 182.173943 
L 607.295584 181.795705 
L 607.603022 181.997057 
L 607.91046 181.690881 
L 608.217898 181.813999 
L 608.832774 181.486097 
L 609.140212 181.839363 
L 609.44765 181.49964 
L 610.062526 181.574061 
L 610.369964 181.820781 
L 610.98484 181.414456 
L 611.292278 181.370249 
L 611.599716 181.644991 
L 611.907154 181.670888 
L 612.214592 181.562027 
L 612.52203 181.867859 
L 612.829468 181.95981 
L 613.751782 181.452225 
L 614.981534 181.699159 
L 615.288972 181.945157 
L 615.59641 181.48012 
L 616.211286 181.893213 
L 617.1336 181.709921 
L 617.441038 181.892387 
L 618.978228 181.571889 
L 619.285666 181.771368 
L 620.20798 181.890005 
L 620.515418 181.757482 
L 620.822856 182.157293 
L 621.130294 181.755708 
L 621.74517 181.644451 
L 622.360046 181.594422 
L 622.667485 181.771173 
L 623.282361 181.547272 
L 623.589799 181.721043 
L 624.204675 181.608906 
L 624.512113 182.015569 
L 624.819551 181.932338 
L 625.126989 181.667759 
L 625.126989 181.667759 
" clip-path="url(#pc65b0967a1)" style="fill: none; stroke: #ff7f0e; stroke-width: 1.5; stroke-linecap: square"/>
   </g>
   <g id="patch_3">
    <path d="M 92.490625 308.63625 
L 92.490625 31.43625 
" style="fill: none; stroke: #000000; stroke-width: 0.8; stroke-linejoin: miter; stroke-linecap: square"/>
   </g>
   <g id="patch_4">
    <path d="M 650.490625 308.63625 
L 650.490625 31.43625 
" style="fill: none; stroke: #000000; stroke-width: 0.8; stroke-linejoin: miter; stroke-linecap: square"/>
   </g>
   <g id="patch_5">
    <path d="M 92.490625 308.63625 
L 650.490625 308.63625 
" style="fill: none; stroke: #000000; stroke-width: 0.8; stroke-linejoin: miter; stroke-linecap: square"/>
   </g>
   <g id="patch_6">
    <path d="M 92.490625 31.43625 
L 650.490625 31.43625 
" style="fill: none; stroke: #000000; stroke-width: 0.8; stroke-linejoin: miter; stroke-linecap: square"/>
   </g>
   <g id="text_15">
    <!-- Generator and Discriminator Loss During Training -->
    <g transform="translate(74.258125 25.43625) scale(0.24 -0.24)">
     <defs>
      <path id="DejaVuSans-47" d="M 3809 666 
L 3809 1919 
L 2778 1919 
L 2778 2438 
L 4434 2438 
L 4434 434 
Q 4069 175 3628 42 
Q 3188 -91 2688 -91 
Q 1594 -91 976 548 
Q 359 1188 359 2328 
Q 359 3472 976 4111 
Q 1594 4750 2688 4750 
Q 3144 4750 3555 4637 
Q 3966 4525 4313 4306 
L 4313 3634 
Q 3963 3931 3569 4081 
Q 3175 4231 2741 4231 
Q 1884 4231 1454 3753 
Q 1025 3275 1025 2328 
Q 1025 1384 1454 906 
Q 1884 428 2741 428 
Q 3075 428 3337 486 
Q 3600 544 3809 666 
z
" transform="scale(0.015625)"/>
      <path id="DejaVuSans-20" transform="scale(0.015625)"/>
      <path id="DejaVuSans-64" d="M 2906 2969 
L 2906 4863 
L 3481 4863 
L 3481 0 
L 2906 0 
L 2906 525 
Q 2725 213 2448 61 
Q 2172 -91 1784 -91 
Q 1150 -91 751 415 
Q 353 922 353 1747 
Q 353 2572 751 3078 
Q 1150 3584 1784 3584 
Q 2172 3584 2448 3432 
Q 2725 3281 2906 2969 
z
M 947 1747 
Q 947 1113 1208 752 
Q 1469 391 1925 391 
Q 2381 391 2643 752 
Q 2906 1113 2906 1747 
Q 2906 2381 2643 2742 
Q 2381 3103 1925 3103 
Q 1469 3103 1208 2742 
Q 947 2381 947 1747 
z
" transform="scale(0.015625)"/>
      <path id="DejaVuSans-44" d="M 1259 4147 
L 1259 519 
L 2022 519 
Q 2988 519 3436 956 
Q 3884 1394 3884 2338 
Q 3884 3275 3436 3711 
Q 2988 4147 2022 4147 
L 1259 4147 
z
M 628 4666 
L 1925 4666 
Q 3281 4666 3915 4102 
Q 4550 3538 4550 2338 
Q 4550 1131 3912 565 
Q 3275 0 1925 0 
L 628 0 
L 628 4666 
z
" transform="scale(0.015625)"/>
      <path id="DejaVuSans-63" d="M 3122 3366 
L 3122 2828 
Q 2878 2963 2633 3030 
Q 2388 3097 2138 3097 
Q 1578 3097 1268 2742 
Q 959 2388 959 1747 
Q 959 1106 1268 751 
Q 1578 397 2138 397 
Q 2388 397 2633 464 
Q 2878 531 3122 666 
L 3122 134 
Q 2881 22 2623 -34 
Q 2366 -91 2075 -91 
Q 1284 -91 818 406 
Q 353 903 353 1747 
Q 353 2603 823 3093 
Q 1294 3584 2113 3584 
Q 2378 3584 2631 3529 
Q 2884 3475 3122 3366 
z
" transform="scale(0.015625)"/>
      <path id="DejaVuSans-6d" d="M 3328 2828 
Q 3544 3216 3844 3400 
Q 4144 3584 4550 3584 
Q 5097 3584 5394 3201 
Q 5691 2819 5691 2113 
L 5691 0 
L 5113 0 
L 5113 2094 
Q 5113 2597 4934 2840 
Q 4756 3084 4391 3084 
Q 3944 3084 3684 2787 
Q 3425 2491 3425 1978 
L 3425 0 
L 2847 0 
L 2847 2094 
Q 2847 2600 2669 2842 
Q 2491 3084 2119 3084 
Q 1678 3084 1418 2786 
Q 1159 2488 1159 1978 
L 1159 0 
L 581 0 
L 581 3500 
L 1159 3500 
L 1159 2956 
Q 1356 3278 1631 3431 
Q 1906 3584 2284 3584 
Q 2666 3584 2933 3390 
Q 3200 3197 3328 2828 
z
" transform="scale(0.015625)"/>
      <path id="DejaVuSans-75" d="M 544 1381 
L 544 3500 
L 1119 3500 
L 1119 1403 
Q 1119 906 1312 657 
Q 1506 409 1894 409 
Q 2359 409 2629 706 
Q 2900 1003 2900 1516 
L 2900 3500 
L 3475 3500 
L 3475 0 
L 2900 0 
L 2900 538 
Q 2691 219 2414 64 
Q 2138 -91 1772 -91 
Q 1169 -91 856 284 
Q 544 659 544 1381 
z
M 1991 3584 
L 1991 3584 
z
" transform="scale(0.015625)"/>
      <path id="DejaVuSans-67" d="M 2906 1791 
Q 2906 2416 2648 2759 
Q 2391 3103 1925 3103 
Q 1463 3103 1205 2759 
Q 947 2416 947 1791 
Q 947 1169 1205 825 
Q 1463 481 1925 481 
Q 2391 481 2648 825 
Q 2906 1169 2906 1791 
z
M 3481 434 
Q 3481 -459 3084 -895 
Q 2688 -1331 1869 -1331 
Q 1566 -1331 1297 -1286 
Q 1028 -1241 775 -1147 
L 775 -588 
Q 1028 -725 1275 -790 
Q 1522 -856 1778 -856 
Q 2344 -856 2625 -561 
Q 2906 -266 2906 331 
L 2906 616 
Q 2728 306 2450 153 
Q 2172 0 1784 0 
Q 1141 0 747 490 
Q 353 981 353 1791 
Q 353 2603 747 3093 
Q 1141 3584 1784 3584 
Q 2172 3584 2450 3431 
Q 2728 3278 2906 2969 
L 2906 3500 
L 3481 3500 
L 3481 434 
z
" transform="scale(0.015625)"/>
      <path id="DejaVuSans-54" d="M -19 4666 
L 3928 4666 
L 3928 4134 
L 2272 4134 
L 2272 0 
L 1638 0 
L 1638 4134 
L -19 4134 
L -19 4666 
z
" transform="scale(0.015625)"/>
     </defs>
     <use xlink:href="#DejaVuSans-47"/>
     <use xlink:href="#DejaVuSans-65" x="77.490234"/>
     <use xlink:href="#DejaVuSans-6e" x="139.013672"/>
     <use xlink:href="#DejaVuSans-65" x="202.392578"/>
     <use xlink:href="#DejaVuSans-72" x="263.916016"/>
     <use xlink:href="#DejaVuSans-61" x="305.029297"/>
     <use xlink:href="#DejaVuSans-74" x="366.308594"/>
     <use xlink:href="#DejaVuSans-6f" x="405.517578"/>
     <use xlink:href="#DejaVuSans-72" x="466.699219"/>
     <use xlink:href="#DejaVuSans-20" x="507.8125"/>
     <use xlink:href="#DejaVuSans-61" x="539.599609"/>
     <use xlink:href="#DejaVuSans-6e" x="600.878906"/>
     <use xlink:href="#DejaVuSans-64" x="664.257812"/>
     <use xlink:href="#DejaVuSans-20" x="727.734375"/>
     <use xlink:href="#DejaVuSans-44" x="759.521484"/>
     <use xlink:href="#DejaVuSans-69" x="836.523438"/>
     <use xlink:href="#DejaVuSans-73" x="864.306641"/>
     <use xlink:href="#DejaVuSans-63" x="916.40625"/>
     <use xlink:href="#DejaVuSans-72" x="971.386719"/>
     <use xlink:href="#DejaVuSans-69" x="1012.5"/>
     <use xlink:href="#DejaVuSans-6d" x="1040.283203"/>
     <use xlink:href="#DejaVuSans-69" x="1137.695312"/>
     <use xlink:href="#DejaVuSans-6e" x="1165.478516"/>
     <use xlink:href="#DejaVuSans-61" x="1228.857422"/>
     <use xlink:href="#DejaVuSans-74" x="1290.136719"/>
     <use xlink:href="#DejaVuSans-6f" x="1329.345703"/>
     <use xlink:href="#DejaVuSans-72" x="1390.527344"/>
     <use xlink:href="#DejaVuSans-20" x="1431.640625"/>
     <use xlink:href="#DejaVuSans-4c" x="1463.427734"/>
     <use xlink:href="#DejaVuSans-6f" x="1517.390625"/>
     <use xlink:href="#DejaVuSans-73" x="1578.572266"/>
     <use xlink:href="#DejaVuSans-73" x="1630.671875"/>
     <use xlink:href="#DejaVuSans-20" x="1682.771484"/>
     <use xlink:href="#DejaVuSans-44" x="1714.558594"/>
     <use xlink:href="#DejaVuSans-75" x="1791.560547"/>
     <use xlink:href="#DejaVuSans-72" x="1854.939453"/>
     <use xlink:href="#DejaVuSans-69" x="1896.052734"/>
     <use xlink:href="#DejaVuSans-6e" x="1923.835938"/>
     <use xlink:href="#DejaVuSans-67" x="1987.214844"/>
     <use xlink:href="#DejaVuSans-20" x="2050.691406"/>
     <use xlink:href="#DejaVuSans-54" x="2082.478516"/>
     <use xlink:href="#DejaVuSans-72" x="2128.8125"/>
     <use xlink:href="#DejaVuSans-61" x="2169.925781"/>
     <use xlink:href="#DejaVuSans-69" x="2231.205078"/>
     <use xlink:href="#DejaVuSans-6e" x="2258.988281"/>
     <use xlink:href="#DejaVuSans-69" x="2322.367188"/>
     <use xlink:href="#DejaVuSans-6e" x="2350.150391"/>
     <use xlink:href="#DejaVuSans-67" x="2413.529297"/>
    </g>
   </g>
   <g id="legend_1">
    <g id="patch_7">
     <path d="M 556.99375 106.14875 
L 636.490625 106.14875 
Q 640.490625 106.14875 640.490625 102.14875 
L 640.490625 45.43625 
Q 640.490625 41.43625 636.490625 41.43625 
L 556.99375 41.43625 
Q 552.99375 41.43625 552.99375 45.43625 
L 552.99375 102.14875 
Q 552.99375 106.14875 556.99375 106.14875 
z
" style="fill: #ffffff; opacity: 0.8; stroke: #cccccc; stroke-linejoin: miter"/>
    </g>
    <g id="line2d_15">
     <path d="M 560.99375 57.633125 
L 580.99375 57.633125 
L 600.99375 57.633125 
" style="fill: none; stroke: #1f77b4; stroke-width: 1.5; stroke-linecap: square"/>
    </g>
    <g id="text_16">
     <!-- G -->
     <g transform="translate(616.99375 64.633125) scale(0.2 -0.2)">
      <use xlink:href="#DejaVuSans-47"/>
     </g>
    </g>
    <g id="line2d_16">
     <path d="M 560.99375 86.989375 
L 580.99375 86.989375 
L 600.99375 86.989375 
" style="fill: none; stroke: #ff7f0e; stroke-width: 1.5; stroke-linecap: square"/>
    </g>
    <g id="text_17">
     <!-- D -->
     <g transform="translate(616.99375 93.989375) scale(0.2 -0.2)">
      <use xlink:href="#DejaVuSans-44"/>
     </g>
    </g>
   </g>
  </g>
 </g>
 <defs>
  <clipPath id="pc65b0967a1">
   <rect x="92.490625" y="31.43625" width="558" height="277.2"/>
  </clipPath>
 </defs>
</svg>
