<?xml version="1.0" encoding="utf-8" standalone="no"?>
<!DOCTYPE svg PUBLIC "-//W3C//DTD SVG 1.1//EN"
  "http://www.w3.org/Graphics/SVG/1.1/DTD/svg11.dtd">
<svg xmlns:xlink="http://www.w3.org/1999/xlink" width="679.832325pt" height="365.54875pt" viewBox="0 0 679.832325 365.54875" xmlns="http://www.w3.org/2000/svg" version="1.1">
 <metadata>
  <rdf:RDF xmlns:dc="http://purl.org/dc/elements/1.1/" xmlns:cc="http://creativecommons.org/ns#" xmlns:rdf="http://www.w3.org/1999/02/22-rdf-syntax-ns#">
   <cc:Work>
    <dc:type rdf:resource="http://purl.org/dc/dcmitype/StillImage"/>
    <dc:date>2024-02-04T00:56:39.902344</dc:date>
    <dc:format>image/svg+xml</dc:format>
    <dc:creator>
     <cc:Agent>
      <dc:title>Matplotlib v3.7.2, https://matplotlib.org/</dc:title>
     </cc:Agent>
    </dc:creator>
   </cc:Work>
  </rdf:RDF>
 </metadata>
 <defs>
  <style type="text/css">*{stroke-linejoin: round; stroke-linecap: butt}</style>
 </defs>
 <g id="figure_1">
  <g id="patch_1">
   <path d="M 0 365.54875 
L 679.832325 365.54875 
L 679.832325 -0 
L 0 -0 
z
" style="fill: #ffffff"/>
  </g>
  <g id="axes_1">
   <g id="patch_2">
    <path d="M 92.490625 308.63625 
L 650.490625 308.63625 
L 650.490625 31.43625 
L 92.490625 31.43625 
z
" style="fill: #ffffff"/>
   </g>
   <g id="matplotlib.axis_1">
    <g id="xtick_1">
     <g id="line2d_1">
      <defs>
       <path id="m6b8903b69d" d="M 0 0 
L 0 3.5 
" style="stroke: #000000; stroke-width: 0.8"/>
      </defs>
      <g>
       <use xlink:href="#m6b8903b69d" x="117.854261" y="308.63625" style="stroke: #000000; stroke-width: 0.8"/>
      </g>
     </g>
     <g id="text_1">
      <!-- 0 -->
      <g transform="translate(111.491761 330.833125) scale(0.2 -0.2)">
       <defs>
        <path id="DejaVuSans-30" d="M 2034 4250 
Q 1547 4250 1301 3770 
Q 1056 3291 1056 2328 
Q 1056 1369 1301 889 
Q 1547 409 2034 409 
Q 2525 409 2770 889 
Q 3016 1369 3016 2328 
Q 3016 3291 2770 3770 
Q 2525 4250 2034 4250 
z
M 2034 4750 
Q 2819 4750 3233 4129 
Q 3647 3509 3647 2328 
Q 3647 1150 3233 529 
Q 2819 -91 2034 -91 
Q 1250 -91 836 529 
Q 422 1150 422 2328 
Q 422 3509 836 4129 
Q 1250 4750 2034 4750 
z
" transform="scale(0.015625)"/>
       </defs>
       <use xlink:href="#DejaVuSans-30"/>
      </g>
     </g>
    </g>
    <g id="xtick_2">
     <g id="line2d_2">
      <g>
       <use xlink:href="#m6b8903b69d" x="206.075605" y="308.63625" style="stroke: #000000; stroke-width: 0.8"/>
      </g>
     </g>
     <g id="text_2">
      <!-- 200 -->
      <g transform="translate(186.988105 330.833125) scale(0.2 -0.2)">
       <defs>
        <path id="DejaVuSans-32" d="M 1228 531 
L 3431 531 
L 3431 0 
L 469 0 
L 469 531 
Q 828 903 1448 1529 
Q 2069 2156 2228 2338 
Q 2531 2678 2651 2914 
Q 2772 3150 2772 3378 
Q 2772 3750 2511 3984 
Q 2250 4219 1831 4219 
Q 1534 4219 1204 4116 
Q 875 4013 500 3803 
L 500 4441 
Q 881 4594 1212 4672 
Q 1544 4750 1819 4750 
Q 2544 4750 2975 4387 
Q 3406 4025 3406 3419 
Q 3406 3131 3298 2873 
Q 3191 2616 2906 2266 
Q 2828 2175 2409 1742 
Q 1991 1309 1228 531 
z
" transform="scale(0.015625)"/>
       </defs>
       <use xlink:href="#DejaVuSans-32"/>
       <use xlink:href="#DejaVuSans-30" x="63.623047"/>
       <use xlink:href="#DejaVuSans-30" x="127.246094"/>
      </g>
     </g>
    </g>
    <g id="xtick_3">
     <g id="line2d_3">
      <g>
       <use xlink:href="#m6b8903b69d" x="294.296949" y="308.63625" style="stroke: #000000; stroke-width: 0.8"/>
      </g>
     </g>
     <g id="text_3">
      <!-- 400 -->
      <g transform="translate(275.209449 330.833125) scale(0.2 -0.2)">
       <defs>
        <path id="DejaVuSans-34" d="M 2419 4116 
L 825 1625 
L 2419 1625 
L 2419 4116 
z
M 2253 4666 
L 3047 4666 
L 3047 1625 
L 3713 1625 
L 3713 1100 
L 3047 1100 
L 3047 0 
L 2419 0 
L 2419 1100 
L 313 1100 
L 313 1709 
L 2253 4666 
z
" transform="scale(0.015625)"/>
       </defs>
       <use xlink:href="#DejaVuSans-34"/>
       <use xlink:href="#DejaVuSans-30" x="63.623047"/>
       <use xlink:href="#DejaVuSans-30" x="127.246094"/>
      </g>
     </g>
    </g>
    <g id="xtick_4">
     <g id="line2d_4">
      <g>
       <use xlink:href="#m6b8903b69d" x="382.518293" y="308.63625" style="stroke: #000000; stroke-width: 0.8"/>
      </g>
     </g>
     <g id="text_4">
      <!-- 600 -->
      <g transform="translate(363.430793 330.833125) scale(0.2 -0.2)">
       <defs>
        <path id="DejaVuSans-36" d="M 2113 2584 
Q 1688 2584 1439 2293 
Q 1191 2003 1191 1497 
Q 1191 994 1439 701 
Q 1688 409 2113 409 
Q 2538 409 2786 701 
Q 3034 994 3034 1497 
Q 3034 2003 2786 2293 
Q 2538 2584 2113 2584 
z
M 3366 4563 
L 3366 3988 
Q 3128 4100 2886 4159 
Q 2644 4219 2406 4219 
Q 1781 4219 1451 3797 
Q 1122 3375 1075 2522 
Q 1259 2794 1537 2939 
Q 1816 3084 2150 3084 
Q 2853 3084 3261 2657 
Q 3669 2231 3669 1497 
Q 3669 778 3244 343 
Q 2819 -91 2113 -91 
Q 1303 -91 875 529 
Q 447 1150 447 2328 
Q 447 3434 972 4092 
Q 1497 4750 2381 4750 
Q 2619 4750 2861 4703 
Q 3103 4656 3366 4563 
z
" transform="scale(0.015625)"/>
       </defs>
       <use xlink:href="#DejaVuSans-36"/>
       <use xlink:href="#DejaVuSans-30" x="63.623047"/>
       <use xlink:href="#DejaVuSans-30" x="127.246094"/>
      </g>
     </g>
    </g>
    <g id="xtick_5">
     <g id="line2d_5">
      <g>
       <use xlink:href="#m6b8903b69d" x="470.739637" y="308.63625" style="stroke: #000000; stroke-width: 0.8"/>
      </g>
     </g>
     <g id="text_5">
      <!-- 800 -->
      <g transform="translate(451.652137 330.833125) scale(0.2 -0.2)">
       <defs>
        <path id="DejaVuSans-38" d="M 2034 2216 
Q 1584 2216 1326 1975 
Q 1069 1734 1069 1313 
Q 1069 891 1326 650 
Q 1584 409 2034 409 
Q 2484 409 2743 651 
Q 3003 894 3003 1313 
Q 3003 1734 2745 1975 
Q 2488 2216 2034 2216 
z
M 1403 2484 
Q 997 2584 770 2862 
Q 544 3141 544 3541 
Q 544 4100 942 4425 
Q 1341 4750 2034 4750 
Q 2731 4750 3128 4425 
Q 3525 4100 3525 3541 
Q 3525 3141 3298 2862 
Q 3072 2584 2669 2484 
Q 3125 2378 3379 2068 
Q 3634 1759 3634 1313 
Q 3634 634 3220 271 
Q 2806 -91 2034 -91 
Q 1263 -91 848 271 
Q 434 634 434 1313 
Q 434 1759 690 2068 
Q 947 2378 1403 2484 
z
M 1172 3481 
Q 1172 3119 1398 2916 
Q 1625 2713 2034 2713 
Q 2441 2713 2670 2916 
Q 2900 3119 2900 3481 
Q 2900 3844 2670 4047 
Q 2441 4250 2034 4250 
Q 1625 4250 1398 4047 
Q 1172 3844 1172 3481 
z
" transform="scale(0.015625)"/>
       </defs>
       <use xlink:href="#DejaVuSans-38"/>
       <use xlink:href="#DejaVuSans-30" x="63.623047"/>
       <use xlink:href="#DejaVuSans-30" x="127.246094"/>
      </g>
     </g>
    </g>
    <g id="xtick_6">
     <g id="line2d_6">
      <g>
       <use xlink:href="#m6b8903b69d" x="558.960981" y="308.63625" style="stroke: #000000; stroke-width: 0.8"/>
      </g>
     </g>
     <g id="text_6">
      <!-- 1000 -->
      <g transform="translate(533.510981 330.833125) scale(0.2 -0.2)">
       <defs>
        <path id="DejaVuSans-31" d="M 794 531 
L 1825 531 
L 1825 4091 
L 703 3866 
L 703 4441 
L 1819 4666 
L 2450 4666 
L 2450 531 
L 3481 531 
L 3481 0 
L 794 0 
L 794 531 
z
" transform="scale(0.015625)"/>
       </defs>
       <use xlink:href="#DejaVuSans-31"/>
       <use xlink:href="#DejaVuSans-30" x="63.623047"/>
       <use xlink:href="#DejaVuSans-30" x="127.246094"/>
       <use xlink:href="#DejaVuSans-30" x="190.869141"/>
      </g>
     </g>
    </g>
    <g id="xtick_7">
     <g id="line2d_7">
      <g>
       <use xlink:href="#m6b8903b69d" x="647.182325" y="308.63625" style="stroke: #000000; stroke-width: 0.8"/>
      </g>
     </g>
     <g id="text_7">
      <!-- 1200 -->
      <g transform="translate(621.732325 330.833125) scale(0.2 -0.2)">
       <use xlink:href="#DejaVuSans-31"/>
       <use xlink:href="#DejaVuSans-32" x="63.623047"/>
       <use xlink:href="#DejaVuSans-30" x="127.246094"/>
       <use xlink:href="#DejaVuSans-30" x="190.869141"/>
      </g>
     </g>
    </g>
    <g id="text_8">
     <!-- iterations -->
     <g transform="translate(324.035938 354.189375) scale(0.2 -0.2)">
      <defs>
       <path id="DejaVuSans-69" d="M 603 3500 
L 1178 3500 
L 1178 0 
L 603 0 
L 603 3500 
z
M 603 4863 
L 1178 4863 
L 1178 4134 
L 603 4134 
L 603 4863 
z
" transform="scale(0.015625)"/>
       <path id="DejaVuSans-74" d="M 1172 4494 
L 1172 3500 
L 2356 3500 
L 2356 3053 
L 1172 3053 
L 1172 1153 
Q 1172 725 1289 603 
Q 1406 481 1766 481 
L 2356 481 
L 2356 0 
L 1766 0 
Q 1100 0 847 248 
Q 594 497 594 1153 
L 594 3053 
L 172 3053 
L 172 3500 
L 594 3500 
L 594 4494 
L 1172 4494 
z
" transform="scale(0.015625)"/>
       <path id="DejaVuSans-65" d="M 3597 1894 
L 3597 1613 
L 953 1613 
Q 991 1019 1311 708 
Q 1631 397 2203 397 
Q 2534 397 2845 478 
Q 3156 559 3463 722 
L 3463 178 
Q 3153 47 2828 -22 
Q 2503 -91 2169 -91 
Q 1331 -91 842 396 
Q 353 884 353 1716 
Q 353 2575 817 3079 
Q 1281 3584 2069 3584 
Q 2775 3584 3186 3129 
Q 3597 2675 3597 1894 
z
M 3022 2063 
Q 3016 2534 2758 2815 
Q 2500 3097 2075 3097 
Q 1594 3097 1305 2825 
Q 1016 2553 972 2059 
L 3022 2063 
z
" transform="scale(0.015625)"/>
       <path id="DejaVuSans-72" d="M 2631 2963 
Q 2534 3019 2420 3045 
Q 2306 3072 2169 3072 
Q 1681 3072 1420 2755 
Q 1159 2438 1159 1844 
L 1159 0 
L 581 0 
L 581 3500 
L 1159 3500 
L 1159 2956 
Q 1341 3275 1631 3429 
Q 1922 3584 2338 3584 
Q 2397 3584 2469 3576 
Q 2541 3569 2628 3553 
L 2631 2963 
z
" transform="scale(0.015625)"/>
       <path id="DejaVuSans-61" d="M 2194 1759 
Q 1497 1759 1228 1600 
Q 959 1441 959 1056 
Q 959 750 1161 570 
Q 1363 391 1709 391 
Q 2188 391 2477 730 
Q 2766 1069 2766 1631 
L 2766 1759 
L 2194 1759 
z
M 3341 1997 
L 3341 0 
L 2766 0 
L 2766 531 
Q 2569 213 2275 61 
Q 1981 -91 1556 -91 
Q 1019 -91 701 211 
Q 384 513 384 1019 
Q 384 1609 779 1909 
Q 1175 2209 1959 2209 
L 2766 2209 
L 2766 2266 
Q 2766 2663 2505 2880 
Q 2244 3097 1772 3097 
Q 1472 3097 1187 3025 
Q 903 2953 641 2809 
L 641 3341 
Q 956 3463 1253 3523 
Q 1550 3584 1831 3584 
Q 2591 3584 2966 3190 
Q 3341 2797 3341 1997 
z
" transform="scale(0.015625)"/>
       <path id="DejaVuSans-6f" d="M 1959 3097 
Q 1497 3097 1228 2736 
Q 959 2375 959 1747 
Q 959 1119 1226 758 
Q 1494 397 1959 397 
Q 2419 397 2687 759 
Q 2956 1122 2956 1747 
Q 2956 2369 2687 2733 
Q 2419 3097 1959 3097 
z
M 1959 3584 
Q 2709 3584 3137 3096 
Q 3566 2609 3566 1747 
Q 3566 888 3137 398 
Q 2709 -91 1959 -91 
Q 1206 -91 779 398 
Q 353 888 353 1747 
Q 353 2609 779 3096 
Q 1206 3584 1959 3584 
z
" transform="scale(0.015625)"/>
       <path id="DejaVuSans-6e" d="M 3513 2113 
L 3513 0 
L 2938 0 
L 2938 2094 
Q 2938 2591 2744 2837 
Q 2550 3084 2163 3084 
Q 1697 3084 1428 2787 
Q 1159 2491 1159 1978 
L 1159 0 
L 581 0 
L 581 3500 
L 1159 3500 
L 1159 2956 
Q 1366 3272 1645 3428 
Q 1925 3584 2291 3584 
Q 2894 3584 3203 3211 
Q 3513 2838 3513 2113 
z
" transform="scale(0.015625)"/>
       <path id="DejaVuSans-73" d="M 2834 3397 
L 2834 2853 
Q 2591 2978 2328 3040 
Q 2066 3103 1784 3103 
Q 1356 3103 1142 2972 
Q 928 2841 928 2578 
Q 928 2378 1081 2264 
Q 1234 2150 1697 2047 
L 1894 2003 
Q 2506 1872 2764 1633 
Q 3022 1394 3022 966 
Q 3022 478 2636 193 
Q 2250 -91 1575 -91 
Q 1294 -91 989 -36 
Q 684 19 347 128 
L 347 722 
Q 666 556 975 473 
Q 1284 391 1588 391 
Q 1994 391 2212 530 
Q 2431 669 2431 922 
Q 2431 1156 2273 1281 
Q 2116 1406 1581 1522 
L 1381 1569 
Q 847 1681 609 1914 
Q 372 2147 372 2553 
Q 372 3047 722 3315 
Q 1072 3584 1716 3584 
Q 2034 3584 2315 3537 
Q 2597 3491 2834 3397 
z
" transform="scale(0.015625)"/>
      </defs>
      <use xlink:href="#DejaVuSans-69"/>
      <use xlink:href="#DejaVuSans-74" x="27.783203"/>
      <use xlink:href="#DejaVuSans-65" x="66.992188"/>
      <use xlink:href="#DejaVuSans-72" x="128.515625"/>
      <use xlink:href="#DejaVuSans-61" x="169.628906"/>
      <use xlink:href="#DejaVuSans-74" x="230.908203"/>
      <use xlink:href="#DejaVuSans-69" x="270.117188"/>
      <use xlink:href="#DejaVuSans-6f" x="297.900391"/>
      <use xlink:href="#DejaVuSans-6e" x="359.082031"/>
      <use xlink:href="#DejaVuSans-73" x="422.460938"/>
     </g>
    </g>
   </g>
   <g id="matplotlib.axis_2">
    <g id="ytick_1">
     <g id="line2d_8">
      <defs>
       <path id="m7472145012" d="M 0 0 
L -3.5 0 
" style="stroke: #000000; stroke-width: 0.8"/>
      </defs>
      <g>
       <use xlink:href="#m7472145012" x="92.490625" y="295.148568" style="stroke: #000000; stroke-width: 0.8"/>
      </g>
     </g>
     <g id="text_9">
      <!-- −400 -->
      <g transform="translate(30.55625 302.747005) scale(0.2 -0.2)">
       <defs>
        <path id="DejaVuSans-2212" d="M 678 2272 
L 4684 2272 
L 4684 1741 
L 678 1741 
L 678 2272 
z
" transform="scale(0.015625)"/>
       </defs>
       <use xlink:href="#DejaVuSans-2212"/>
       <use xlink:href="#DejaVuSans-34" x="83.789062"/>
       <use xlink:href="#DejaVuSans-30" x="147.412109"/>
       <use xlink:href="#DejaVuSans-30" x="211.035156"/>
      </g>
     </g>
    </g>
    <g id="ytick_2">
     <g id="line2d_9">
      <g>
       <use xlink:href="#m7472145012" x="92.490625" y="237.405832" style="stroke: #000000; stroke-width: 0.8"/>
      </g>
     </g>
     <g id="text_10">
      <!-- −200 -->
      <g transform="translate(30.55625 245.00427) scale(0.2 -0.2)">
       <use xlink:href="#DejaVuSans-2212"/>
       <use xlink:href="#DejaVuSans-32" x="83.789062"/>
       <use xlink:href="#DejaVuSans-30" x="147.412109"/>
       <use xlink:href="#DejaVuSans-30" x="211.035156"/>
      </g>
     </g>
    </g>
    <g id="ytick_3">
     <g id="line2d_10">
      <g>
       <use xlink:href="#m7472145012" x="92.490625" y="179.663097" style="stroke: #000000; stroke-width: 0.8"/>
      </g>
     </g>
     <g id="text_11">
      <!-- 0 -->
      <g transform="translate(72.765625 187.261534) scale(0.2 -0.2)">
       <use xlink:href="#DejaVuSans-30"/>
      </g>
     </g>
    </g>
    <g id="ytick_4">
     <g id="line2d_11">
      <g>
       <use xlink:href="#m7472145012" x="92.490625" y="121.920361" style="stroke: #000000; stroke-width: 0.8"/>
      </g>
     </g>
     <g id="text_12">
      <!-- 200 -->
      <g transform="translate(47.315625 129.518799) scale(0.2 -0.2)">
       <use xlink:href="#DejaVuSans-32"/>
       <use xlink:href="#DejaVuSans-30" x="63.623047"/>
       <use xlink:href="#DejaVuSans-30" x="127.246094"/>
      </g>
     </g>
    </g>
    <g id="ytick_5">
     <g id="line2d_12">
      <g>
       <use xlink:href="#m7472145012" x="92.490625" y="64.177625" style="stroke: #000000; stroke-width: 0.8"/>
      </g>
     </g>
     <g id="text_13">
      <!-- 400 -->
      <g transform="translate(47.315625 71.776063) scale(0.2 -0.2)">
       <use xlink:href="#DejaVuSans-34"/>
       <use xlink:href="#DejaVuSans-30" x="63.623047"/>
       <use xlink:href="#DejaVuSans-30" x="127.246094"/>
      </g>
     </g>
    </g>
    <g id="text_14">
     <!-- Loss -->
     <g transform="translate(22.396875 191.970625) rotate(-90) scale(0.2 -0.2)">
      <defs>
       <path id="DejaVuSans-4c" d="M 628 4666 
L 1259 4666 
L 1259 531 
L 3531 531 
L 3531 0 
L 628 0 
L 628 4666 
z
" transform="scale(0.015625)"/>
      </defs>
      <use xlink:href="#DejaVuSans-4c"/>
      <use xlink:href="#DejaVuSans-6f" x="53.962891"/>
      <use xlink:href="#DejaVuSans-73" x="115.144531"/>
      <use xlink:href="#DejaVuSans-73" x="167.244141"/>
     </g>
    </g>
   </g>
   <g id="line2d_13">
    <path d="M 117.854261 139.751496 
L 118.295368 144.722794 
L 118.736475 162.598831 
L 119.618688 44.03625 
L 120.059795 89.448318 
L 120.500902 77.551362 
L 121.383115 106.365093 
L 121.824222 109.725828 
L 122.265329 120.640356 
L 122.706435 119.204262 
L 123.147542 119.595028 
L 123.588649 123.111252 
L 124.029755 128.275629 
L 124.470862 126.631141 
L 124.911969 125.789985 
L 125.794182 114.95142 
L 126.235289 111.128382 
L 126.676396 114.143471 
L 127.558609 125.682262 
L 127.999716 126.858032 
L 128.440823 129.516622 
L 128.881929 138.461754 
L 129.323036 144.970436 
L 129.764143 142.237891 
L 130.20525 146.018436 
L 130.646356 148.27681 
L 131.087463 152.985986 
L 131.52857 146.939282 
L 131.969676 145.550269 
L 132.410783 146.154845 
L 132.85189 143.578088 
L 133.292997 142.120697 
L 133.734103 138.82778 
L 134.17521 137.32097 
L 134.616317 140.170434 
L 135.057423 149.749148 
L 135.49853 145.161919 
L 135.939637 144.809135 
L 136.380744 141.918695 
L 136.82185 142.056481 
L 137.262957 142.689369 
L 138.14517 144.888742 
L 138.586277 147.579569 
L 139.027384 144.557811 
L 139.468491 146.19867 
L 139.909597 147.266567 
L 140.350704 141.963787 
L 140.791811 146.561523 
L 141.232917 145.704415 
L 141.674024 146.942807 
L 142.115131 146.571102 
L 142.997344 151.018944 
L 143.438451 149.433482 
L 143.879558 151.088431 
L 144.320665 151.882622 
L 144.761771 152.057159 
L 145.202878 155.39376 
L 145.643985 154.443253 
L 146.085091 155.064561 
L 146.526198 157.186868 
L 146.967305 157.456633 
L 147.408412 157.874685 
L 147.849518 161.618246 
L 148.290625 159.61991 
L 148.731732 160.24721 
L 149.172838 159.359568 
L 149.613945 159.626263 
L 150.055052 162.870984 
L 150.496159 162.820485 
L 150.937265 164.349312 
L 151.378372 160.682349 
L 151.819479 164.299326 
L 152.260585 159.838717 
L 152.701692 160.412177 
L 153.142799 159.96084 
L 153.583906 162.549048 
L 154.025012 159.617214 
L 154.466119 162.521514 
L 155.348333 164.689134 
L 155.789439 166.947126 
L 156.230546 167.327422 
L 156.671653 166.729629 
L 157.112759 167.759036 
L 157.553866 165.917583 
L 157.994973 169.659523 
L 158.43608 169.737889 
L 158.877186 170.755676 
L 159.318293 167.899051 
L 159.7594 169.586443 
L 160.641613 170.564861 
L 161.08272 169.882117 
L 161.523827 172.760942 
L 161.964933 170.967299 
L 162.40604 170.438895 
L 162.847147 170.860476 
L 163.288253 172.297656 
L 163.72936 171.898915 
L 164.170467 172.457074 
L 164.611574 171.412696 
L 165.05268 172.181458 
L 165.934894 169.350699 
L 166.376 171.819749 
L 166.817107 170.702797 
L 167.258214 170.386568 
L 167.699321 171.764484 
L 168.140427 170.363681 
L 168.581534 170.943923 
L 169.022641 171.742956 
L 169.463748 173.321088 
L 169.904854 173.543595 
L 170.345961 173.401278 
L 170.787068 172.410984 
L 171.228174 172.754716 
L 171.669281 172.896141 
L 172.110388 172.496494 
L 172.551495 172.807733 
L 172.992601 172.372041 
L 173.433708 171.548362 
L 173.874815 172.908841 
L 174.757028 173.751662 
L 175.198135 173.680925 
L 175.639242 174.136271 
L 176.080348 173.041145 
L 176.521455 174.437231 
L 176.962562 172.369407 
L 177.403668 174.972957 
L 177.844775 174.250099 
L 178.285882 175.539665 
L 178.726989 174.034876 
L 179.168095 173.63476 
L 179.609202 174.998044 
L 180.491416 173.713275 
L 180.932522 173.768643 
L 181.373629 174.192507 
L 181.814736 175.217428 
L 182.255842 174.549207 
L 182.696949 175.102351 
L 183.138056 173.000769 
L 183.579163 173.396092 
L 184.461376 172.24628 
L 184.902483 173.830064 
L 185.343589 172.971341 
L 185.784696 175.344392 
L 186.225803 176.316089 
L 187.108016 174.720648 
L 187.549123 175.750386 
L 187.99023 175.270053 
L 188.431336 175.659534 
L 188.872443 175.802949 
L 189.31355 176.777934 
L 189.754657 176.066467 
L 190.195763 174.60952 
L 190.63687 175.701538 
L 191.077977 177.18643 
L 191.519083 177.146097 
L 192.401297 176.671732 
L 193.28351 178.826261 
L 193.724617 178.840463 
L 194.165724 178.124467 
L 194.606831 178.644971 
L 195.047937 177.639782 
L 195.489044 178.637141 
L 195.930151 178.333677 
L 196.371257 178.623996 
L 196.812364 178.507095 
L 197.253471 178.055754 
L 197.694578 178.154192 
L 198.135684 177.461703 
L 199.017898 178.66269 
L 199.459004 178.675581 
L 199.900111 178.230668 
L 200.341218 178.09883 
L 200.782325 178.652588 
L 201.223431 177.930105 
L 202.546751 179.523749 
L 202.987858 178.940492 
L 203.428965 180.274731 
L 203.870072 179.956917 
L 204.311178 179.352725 
L 204.752285 180.378575 
L 205.193392 179.36548 
L 205.634499 179.641085 
L 206.075605 178.456831 
L 207.398925 179.82643 
L 207.840032 180.00236 
L 208.281139 180.935344 
L 208.722246 180.224525 
L 209.163352 180.851568 
L 209.604459 179.961341 
L 210.045566 180.187773 
L 210.486672 180.141461 
L 210.927779 181.494606 
L 211.368886 179.749474 
L 211.809993 181.661703 
L 212.251099 180.841325 
L 212.692206 181.108068 
L 213.133313 180.436024 
L 213.574419 181.135765 
L 214.015526 182.051575 
L 214.456633 181.42228 
L 214.89774 181.417484 
L 215.338846 181.192607 
L 215.779953 181.70878 
L 216.662167 183.370872 
L 217.103273 182.602122 
L 217.54438 181.152498 
L 217.985487 182.618152 
L 218.426593 182.96134 
L 218.8677 182.33576 
L 219.308807 182.827178 
L 219.749914 182.95431 
L 220.19102 182.864038 
L 220.632127 182.510754 
L 221.073234 183.230302 
L 221.51434 182.899408 
L 221.955447 183.054188 
L 222.837661 183.659796 
L 223.719874 182.987873 
L 224.160981 183.77546 
L 224.602087 182.660957 
L 225.043194 183.157786 
L 225.484301 182.728784 
L 225.925408 183.01416 
L 226.366514 183.988878 
L 226.807621 184.529058 
L 227.248728 184.064193 
L 227.689834 184.222385 
L 228.130941 183.845806 
L 229.013155 183.780493 
L 229.895368 183.786981 
L 230.777582 183.979283 
L 231.218688 184.288766 
L 231.659795 184.176505 
L 232.542008 184.239144 
L 232.983115 184.552823 
L 233.865329 184.184467 
L 234.306435 184.679586 
L 234.747542 184.656079 
L 235.188649 184.883799 
L 235.629755 184.518958 
L 236.070862 184.613429 
L 236.953076 184.125656 
L 237.394182 184.52696 
L 237.835289 184.677067 
L 238.276396 184.492818 
L 238.717502 184.456798 
L 239.158609 185.084062 
L 239.599716 184.766681 
L 240.040823 184.134889 
L 240.481929 184.583512 
L 240.923036 184.059195 
L 241.364143 184.615016 
L 241.80525 184.953905 
L 242.246356 184.443376 
L 242.687463 183.458362 
L 243.569676 184.344202 
L 244.010783 183.849578 
L 244.45189 184.253663 
L 244.892997 184.82729 
L 245.334103 184.469422 
L 245.77521 185.046916 
L 246.216317 184.443785 
L 246.657423 184.476484 
L 247.09853 184.368245 
L 247.539637 183.937993 
L 248.42185 184.013952 
L 248.862957 184.777115 
L 249.304064 184.99747 
L 249.74517 183.772517 
L 250.186277 184.035706 
L 250.627384 184.102105 
L 251.068491 184.288311 
L 251.509597 184.173766 
L 251.950704 184.293227 
L 252.391811 184.00341 
L 252.832917 184.199036 
L 253.715131 184.092655 
L 254.156238 184.455043 
L 255.038451 184.287347 
L 255.479558 184.290951 
L 255.920665 183.727209 
L 256.802878 184.605861 
L 257.685091 184.274913 
L 258.126198 184.874952 
L 258.567305 184.9632 
L 259.008412 185.316616 
L 259.449518 185.323023 
L 259.890625 184.748002 
L 260.331732 184.519384 
L 260.772838 184.862935 
L 261.213945 184.523637 
L 262.096159 184.617477 
L 262.537265 184.415773 
L 262.978372 184.568713 
L 263.860585 183.720718 
L 264.301692 183.962436 
L 264.742799 183.809039 
L 265.183906 184.237151 
L 265.625012 184.03921 
L 266.066119 184.086871 
L 266.507226 184.247767 
L 268.271653 184.360026 
L 268.712759 184.510466 
L 269.153866 184.111391 
L 270.03608 184.1085 
L 270.477186 183.809955 
L 270.918293 184.328808 
L 271.3594 183.780577 
L 271.800506 184.626633 
L 272.241613 183.751032 
L 272.68272 183.766926 
L 273.123827 184.064515 
L 274.00604 184.284459 
L 274.447147 184.067987 
L 274.888253 184.061054 
L 275.32936 183.094892 
L 276.211574 183.743901 
L 276.65268 184.677753 
L 277.534894 183.939998 
L 277.976 184.251046 
L 278.417107 184.200395 
L 278.858214 183.966637 
L 280.181534 184.067416 
L 280.622641 183.732881 
L 281.063748 184.6301 
L 281.504854 184.169221 
L 281.945961 183.967957 
L 282.387068 184.074859 
L 282.828174 183.424278 
L 283.269281 184.070452 
L 285.915921 183.61208 
L 286.357028 183.740517 
L 286.798135 184.238776 
L 287.239242 183.488428 
L 288.121455 183.851165 
L 289.003668 183.710228 
L 289.444775 183.838051 
L 290.768095 183.82598 
L 291.650309 183.289922 
L 292.091416 183.561546 
L 292.532522 183.463037 
L 292.973629 183.594836 
L 293.414736 183.446234 
L 293.855842 183.573195 
L 294.296949 183.125697 
L 294.738056 183.257786 
L 295.179163 183.147491 
L 295.620269 182.907027 
L 296.061376 183.072826 
L 296.502483 183.771144 
L 296.943589 183.213293 
L 297.384696 182.883006 
L 297.825803 183.23388 
L 298.26691 183.288898 
L 298.708016 183.483698 
L 299.149123 183.068249 
L 300.031336 183.287115 
L 300.472443 183.159291 
L 300.91355 183.559667 
L 301.354657 183.361178 
L 301.795763 183.401738 
L 302.23687 183.750652 
L 302.677977 183.301438 
L 303.119083 183.920194 
L 303.56019 183.57105 
L 304.442404 183.171462 
L 304.88351 183.961579 
L 305.324617 184.187983 
L 305.765724 184.128509 
L 306.206831 183.744035 
L 306.647937 184.037423 
L 307.089044 183.771991 
L 307.530151 184.014808 
L 308.412364 183.771839 
L 309.294578 183.874599 
L 309.735684 184.11918 
L 310.176791 184.044082 
L 310.617898 183.77541 
L 311.059004 183.297732 
L 311.500111 183.237449 
L 311.941218 183.889617 
L 312.823431 183.403603 
L 313.264538 183.638456 
L 313.705645 183.237933 
L 314.146751 183.478615 
L 315.028965 183.355926 
L 315.470072 183.629338 
L 315.911178 183.641067 
L 316.352285 183.380171 
L 316.793392 183.35723 
L 317.234499 183.559473 
L 317.675605 183.546734 
L 318.557819 184.281031 
L 319.440032 184.485685 
L 319.881139 183.961286 
L 320.322246 184.134919 
L 320.763352 183.670988 
L 321.204459 183.955958 
L 321.645566 183.86234 
L 322.086672 183.350208 
L 322.527779 184.152244 
L 322.968886 183.509946 
L 323.409993 183.848731 
L 325.615526 184.314536 
L 326.056633 183.967137 
L 326.938846 184.477344 
L 327.379953 184.298746 
L 327.82106 183.977648 
L 328.262167 184.087434 
L 328.703273 184.402455 
L 329.585487 184.508636 
L 330.026593 183.924588 
L 330.908807 184.370312 
L 331.349914 184.261772 
L 331.79102 184.387189 
L 332.232127 184.22331 
L 332.673234 184.502419 
L 333.11434 184.57622 
L 333.555447 184.528911 
L 333.996554 184.61146 
L 335.319874 184.47329 
L 336.202087 184.449592 
L 337.084301 184.542384 
L 337.525408 184.103415 
L 337.966514 183.93274 
L 338.407621 184.643783 
L 338.848728 184.946179 
L 339.289834 184.625262 
L 339.730941 184.744458 
L 340.172048 184.123365 
L 340.613155 184.379415 
L 341.054261 184.333722 
L 341.495368 183.967268 
L 343.259795 183.902133 
L 343.700902 183.658483 
L 344.142008 184.056607 
L 345.024222 184.025916 
L 345.465329 183.864077 
L 345.906435 184.022285 
L 346.347542 184.414301 
L 346.788649 184.354348 
L 347.229755 184.134181 
L 348.111969 184.180303 
L 348.994182 183.895296 
L 349.435289 184.035501 
L 349.876396 183.811048 
L 350.317502 184.344264 
L 350.758609 183.948619 
L 351.199716 183.94321 
L 351.640823 183.649513 
L 352.081929 183.551772 
L 353.40525 184.018637 
L 353.846356 183.87005 
L 354.287463 183.563759 
L 354.72857 183.636485 
L 355.169676 183.828049 
L 355.610783 184.158674 
L 356.05189 183.668407 
L 356.492997 183.609338 
L 356.934103 183.336489 
L 357.37521 183.443337 
L 358.257423 183.992413 
L 358.69853 183.9525 
L 359.139637 183.591024 
L 359.580744 183.866701 
L 360.02185 183.821246 
L 360.462957 183.532774 
L 360.904064 183.614149 
L 361.786277 183.406414 
L 362.227384 183.598981 
L 362.668491 183.11501 
L 363.991811 183.699908 
L 365.315131 183.256929 
L 365.756238 183.53883 
L 366.197344 183.211051 
L 366.638451 183.496829 
L 367.079558 183.146545 
L 367.520665 183.510771 
L 367.961771 183.53694 
L 368.402878 183.138242 
L 368.843985 182.937259 
L 369.726198 183.56218 
L 370.167305 183.294892 
L 371.049518 183.236702 
L 371.490625 183.185423 
L 372.372838 183.572691 
L 373.255052 183.287384 
L 374.137265 183.374488 
L 374.578372 182.964802 
L 375.019479 183.324472 
L 376.342799 183.179447 
L 377.225012 182.909484 
L 377.666119 183.053275 
L 378.989439 182.703301 
L 379.430546 182.928952 
L 379.871653 182.642331 
L 380.312759 183.217741 
L 380.753866 182.641699 
L 381.194973 182.342965 
L 382.9594 182.654454 
L 383.841613 182.04344 
L 384.723827 182.575247 
L 385.60604 182.170588 
L 386.047147 182.086222 
L 386.488253 182.501844 
L 387.811574 182.10379 
L 388.693787 181.997351 
L 389.134894 181.859451 
L 389.576 182.134081 
L 390.017107 181.989034 
L 391.340427 182.131205 
L 391.781534 181.99641 
L 392.222641 182.274329 
L 392.663748 182.348797 
L 393.104854 182.062362 
L 393.545961 182.172839 
L 393.987068 181.898594 
L 394.428174 182.152763 
L 394.869281 182.165862 
L 395.310388 182.051092 
L 395.751495 182.185709 
L 396.192601 182.104618 
L 396.633708 182.26453 
L 397.074815 182.081845 
L 397.957028 182.247898 
L 398.398135 181.880172 
L 398.839242 182.457096 
L 400.162562 182.123083 
L 400.603668 182.252178 
L 401.044775 181.974846 
L 401.485882 181.92908 
L 402.368095 182.289681 
L 402.809202 182.285905 
L 403.691416 181.982313 
L 404.132522 182.177789 
L 404.573629 181.717284 
L 405.014736 182.115084 
L 405.455842 181.991587 
L 406.779163 182.021724 
L 407.661376 181.672198 
L 408.102483 182.019801 
L 408.543589 181.900228 
L 408.984696 181.976095 
L 409.425803 181.715399 
L 410.308016 181.798032 
L 410.749123 181.819888 
L 411.19023 182.410156 
L 411.631336 182.356757 
L 412.072443 181.928667 
L 412.954657 182.085625 
L 413.395763 181.855502 
L 414.719083 182.06467 
L 415.16019 182.173658 
L 415.601297 181.477344 
L 416.042404 181.563387 
L 416.924617 181.991482 
L 417.365724 181.61934 
L 417.806831 181.66816 
L 418.247937 181.947722 
L 418.689044 181.55457 
L 419.571257 181.537416 
L 420.012364 181.455061 
L 420.453471 181.694866 
L 421.335684 181.499582 
L 421.776791 181.899471 
L 422.659004 181.673316 
L 423.982325 181.880001 
L 424.423431 181.918744 
L 424.864538 181.617495 
L 425.305645 181.882768 
L 427.511178 181.82529 
L 427.952285 182.057315 
L 428.393392 181.858086 
L 428.834499 182.088927 
L 429.716712 181.821125 
L 430.598925 182.074436 
L 431.040032 181.714748 
L 431.481139 181.911808 
L 432.363352 181.892884 
L 433.245566 181.914714 
L 433.686672 182.182074 
L 434.568886 182.094069 
L 435.009993 181.837987 
L 435.451099 182.179586 
L 435.892206 182.106454 
L 436.333313 181.874803 
L 436.774419 182.114865 
L 437.215526 182.202642 
L 438.09774 181.849286 
L 438.979953 181.730861 
L 439.42106 181.946451 
L 439.862167 181.832808 
L 440.303273 181.873687 
L 440.74438 181.671185 
L 441.185487 182.115224 
L 441.626593 181.895581 
L 442.0677 181.819581 
L 442.508807 181.896013 
L 443.832127 181.633087 
L 444.273234 181.837148 
L 445.155447 181.605606 
L 446.478767 181.807993 
L 446.919874 181.75169 
L 447.360981 182.010497 
L 447.802087 181.767403 
L 448.243194 181.929536 
L 448.684301 181.713882 
L 449.125408 181.910084 
L 449.566514 181.715839 
L 450.007621 181.752078 
L 450.448728 181.65318 
L 450.889834 182.018652 
L 451.330941 181.700738 
L 452.213155 182.011431 
L 452.654261 181.88846 
L 453.095368 182.119584 
L 453.536475 181.820852 
L 453.977582 181.794943 
L 454.418688 181.933428 
L 454.859795 181.904922 
L 455.300902 182.315877 
L 455.742008 182.176393 
L 456.183115 181.857772 
L 456.624222 181.741719 
L 457.065329 181.970247 
L 458.388649 181.764419 
L 458.829755 181.566946 
L 459.270862 181.948751 
L 460.153076 181.941357 
L 460.594182 181.635605 
L 461.035289 181.647958 
L 461.917502 181.984615 
L 462.358609 181.775092 
L 462.799716 181.958755 
L 463.240823 181.860021 
L 464.123036 181.968245 
L 465.00525 181.940155 
L 465.446356 182.079896 
L 465.887463 181.972468 
L 466.32857 181.635019 
L 466.769676 181.556081 
L 467.210783 182.018883 
L 468.092997 181.70419 
L 468.97521 181.908331 
L 469.416317 181.801337 
L 469.857423 182.096227 
L 470.29853 182.214674 
L 471.180744 182.045872 
L 471.62185 181.844999 
L 472.062957 182.168191 
L 472.94517 182.260202 
L 473.386277 182.578369 
L 473.827384 182.133033 
L 474.268491 182.356243 
L 474.709597 182.325819 
L 475.150704 182.539144 
L 476.474024 182.338434 
L 477.356238 182.612346 
L 477.797344 182.326725 
L 478.238451 182.233393 
L 478.679558 182.260451 
L 479.120665 181.823559 
L 480.002878 182.496897 
L 480.443985 182.381429 
L 480.885091 182.386388 
L 481.767305 182.018036 
L 482.649518 182.035199 
L 483.972838 182.719011 
L 484.413945 181.980023 
L 484.855052 182.126992 
L 485.296159 182.079339 
L 485.737265 182.281469 
L 486.178372 182.152763 
L 487.060585 182.425524 
L 487.501692 182.648119 
L 487.942799 182.343108 
L 488.383906 182.472849 
L 488.825012 182.278617 
L 489.266119 182.420449 
L 489.707226 182.187931 
L 490.589439 182.345065 
L 491.030546 182.225108 
L 491.471653 182.342791 
L 491.912759 182.20205 
L 492.353866 182.310865 
L 492.794973 182.262567 
L 493.23608 182.422297 
L 493.677186 182.238311 
L 494.118293 182.227703 
L 494.5594 182.734405 
L 495.000506 182.64305 
L 495.88272 182.269725 
L 496.323827 182.604648 
L 497.647147 182.665619 
L 498.088253 182.409528 
L 498.52936 182.314671 
L 498.970467 182.61643 
L 499.85268 182.756263 
L 500.734894 181.713727 
L 501.617107 182.09574 
L 502.058214 181.860879 
L 502.499321 182.235108 
L 502.940427 182.417097 
L 503.381534 182.094524 
L 503.822641 182.088403 
L 504.263748 180.75613 
L 504.704854 181.36807 
L 505.145961 181.044722 
L 505.587068 181.499861 
L 506.028174 181.216758 
L 506.910388 181.557919 
L 507.351495 182.067005 
L 507.792601 181.154298 
L 508.233708 181.581426 
L 508.674815 181.72072 
L 509.115921 181.993008 
L 509.557028 181.445361 
L 509.998135 181.992719 
L 510.439242 181.221768 
L 510.880348 182.055756 
L 511.762562 181.703545 
L 512.203668 182.17739 
L 512.644775 181.86346 
L 513.085882 181.709557 
L 513.526989 181.286916 
L 513.968095 181.642467 
L 514.850309 181.366215 
L 515.732522 182.14388 
L 516.173629 180.702184 
L 516.614736 181.131757 
L 517.055842 181.293721 
L 517.496949 180.934853 
L 517.938056 181.029025 
L 518.379163 181.84112 
L 518.820269 181.075245 
L 519.261376 181.645691 
L 520.584696 181.209068 
L 521.025803 181.697049 
L 521.46691 181.304358 
L 521.908016 181.800731 
L 522.349123 181.822994 
L 522.79023 181.207423 
L 523.231336 181.309172 
L 523.672443 181.225346 
L 524.11355 181.636205 
L 524.554657 181.361757 
L 524.995763 181.749318 
L 525.43687 181.579193 
L 526.76019 181.553703 
L 527.201297 181.266989 
L 527.642404 181.62811 
L 528.08351 181.508618 
L 528.524617 181.681638 
L 529.406831 181.757448 
L 529.847937 181.843494 
L 530.289044 181.274246 
L 530.730151 181.889342 
L 531.171257 181.378323 
L 531.612364 181.883192 
L 532.494578 181.864901 
L 532.935684 181.842312 
L 533.817898 181.452042 
L 534.259004 181.670057 
L 534.700111 181.718032 
L 535.582325 181.548898 
L 536.023431 180.753878 
L 536.464538 181.241443 
L 536.905645 181.482671 
L 537.787858 181.486929 
L 538.228965 181.536142 
L 538.670072 181.760343 
L 539.111178 181.297336 
L 539.552285 181.610279 
L 539.993392 181.469966 
L 542.640032 181.843426 
L 543.081139 181.458134 
L 543.522246 181.873508 
L 543.963352 182.026648 
L 544.404459 181.781158 
L 544.845566 181.671739 
L 545.286672 181.914428 
L 545.727779 181.650586 
L 546.168886 182.178105 
L 547.051099 181.441076 
L 547.492206 181.833657 
L 547.933313 181.172624 
L 548.374419 181.295659 
L 548.815526 181.926367 
L 549.69774 181.327458 
L 550.138846 181.305159 
L 550.579953 181.417141 
L 551.462167 181.903998 
L 551.903273 181.697418 
L 552.34438 181.785847 
L 552.785487 181.507624 
L 553.226593 181.664356 
L 553.6677 182.113188 
L 554.108807 181.599762 
L 554.549914 181.815893 
L 554.99102 181.438996 
L 555.432127 181.888527 
L 555.873234 181.849666 
L 557.196554 181.297826 
L 557.637661 181.897426 
L 558.078767 181.899791 
L 558.519874 181.477058 
L 558.960981 181.658385 
L 560.284301 181.86535 
L 561.166514 181.32762 
L 561.607621 181.460468 
L 562.048728 181.807242 
L 563.372048 182.052626 
L 563.813155 182.018695 
L 564.254261 181.868872 
L 564.695368 182.063088 
L 565.136475 181.921009 
L 565.577582 181.391191 
L 566.018688 181.494604 
L 566.459795 181.401483 
L 566.900902 181.834328 
L 567.783115 181.707132 
L 568.665329 181.743471 
L 569.106435 181.415848 
L 569.547542 181.810782 
L 569.988649 181.884912 
L 570.870862 181.248831 
L 571.311969 181.429028 
L 572.194182 181.52042 
L 572.635289 181.254669 
L 573.076396 181.528004 
L 573.517502 181.443039 
L 573.958609 181.840267 
L 574.399716 181.845332 
L 574.840823 181.490288 
L 575.281929 181.654259 
L 575.723036 181.411453 
L 576.164143 181.533898 
L 576.60525 181.976768 
L 577.046356 181.514771 
L 577.487463 181.592697 
L 577.92857 181.438598 
L 578.369676 181.666391 
L 579.25189 181.912763 
L 580.134103 181.736755 
L 580.57521 181.807545 
L 581.016317 181.690725 
L 581.457423 181.911436 
L 581.89853 181.806047 
L 582.339637 181.938551 
L 582.780744 181.494397 
L 583.22185 181.592661 
L 583.662957 181.022009 
L 584.104064 181.236785 
L 584.54517 181.577588 
L 584.986277 181.430094 
L 585.427384 181.692156 
L 585.868491 181.229433 
L 586.309597 181.530109 
L 586.750704 181.510832 
L 587.191811 181.647804 
L 587.632917 181.451512 
L 588.074024 180.858173 
L 588.515131 181.29498 
L 588.956238 181.225573 
L 589.397344 181.498542 
L 589.838451 181.578933 
L 590.279558 181.189674 
L 590.720665 181.42433 
L 591.161771 181.838708 
L 591.602878 181.634412 
L 592.043985 181.901887 
L 593.367305 181.437522 
L 593.808412 181.875266 
L 594.690625 181.463414 
L 595.131732 181.273501 
L 595.572838 181.464215 
L 596.013945 181.869559 
L 596.455052 181.514982 
L 597.337265 181.477865 
L 597.778372 181.211469 
L 598.219479 181.090554 
L 598.660585 181.125148 
L 599.101692 181.333768 
L 599.983906 181.180575 
L 600.425012 181.437622 
L 600.866119 181.415829 
L 601.307226 181.034219 
L 601.748333 181.513499 
L 602.189439 181.271683 
L 602.630546 181.677524 
L 603.512759 181.310056 
L 603.953866 181.148625 
L 604.83608 181.032935 
L 605.277186 181.407717 
L 605.718293 181.252521 
L 606.600506 181.229856 
L 607.041613 181.002191 
L 607.48272 181.370231 
L 607.923827 181.176056 
L 608.364933 181.122167 
L 609.688253 181.285982 
L 610.12936 181.32131 
L 610.570467 181.529299 
L 611.011574 181.160873 
L 611.45268 181.306721 
L 611.893787 180.989817 
L 612.334894 181.390401 
L 612.776 180.95902 
L 613.217107 180.897879 
L 614.540427 181.315517 
L 615.422641 181.166751 
L 615.863748 181.420259 
L 616.304854 181.542666 
L 616.745961 181.495931 
L 617.187068 181.634351 
L 617.628174 181.352787 
L 618.510388 181.146566 
L 618.951495 181.565958 
L 619.392601 181.406342 
L 619.833708 181.402117 
L 620.274815 181.216916 
L 620.715921 180.879316 
L 621.157028 181.289625 
L 621.598135 181.456855 
L 622.039242 181.440792 
L 622.480348 181.63946 
L 622.921455 181.209183 
L 623.362562 181.133027 
L 624.244775 181.432904 
L 624.685882 181.23675 
L 625.126989 181.291353 
L 625.126989 181.291353 
" clip-path="url(#p3145f0544a)" style="fill: none; stroke: #1f77b4; stroke-width: 1.5; stroke-linecap: square"/>
   </g>
   <g id="line2d_14">
    <path d="M 117.854261 296.03625 
L 118.295368 281.604935 
L 118.736475 284.937888 
L 119.177582 246.001987 
L 119.618688 270.950308 
L 120.059795 246.561247 
L 120.942008 226.968639 
L 121.383115 210.778769 
L 121.824222 215.903882 
L 122.265329 216.941819 
L 123.588649 206.772593 
L 124.029755 203.915034 
L 124.470862 202.60435 
L 124.911969 206.177986 
L 125.353076 210.825042 
L 125.794182 216.91855 
L 126.235289 216.352314 
L 126.676396 218.493547 
L 127.117502 215.598695 
L 127.999716 221.377916 
L 128.440823 221.237981 
L 128.881929 209.700687 
L 129.323036 203.982905 
L 129.764143 201.936608 
L 130.20525 196.027266 
L 130.646356 195.848203 
L 131.087463 187.438441 
L 131.52857 190.141416 
L 131.969676 189.42714 
L 132.410783 188.949437 
L 132.85189 190.792885 
L 133.292997 190.124215 
L 133.734103 190.46342 
L 134.17521 189.313475 
L 134.616317 188.765514 
L 135.057423 185.85427 
L 135.49853 186.505182 
L 135.939637 185.489899 
L 136.380744 185.992536 
L 136.82185 187.428099 
L 137.262957 187.422095 
L 138.586277 184.904326 
L 139.027384 186.32159 
L 139.468491 184.280463 
L 139.909597 185.073553 
L 140.350704 187.132296 
L 141.674024 184.810089 
L 142.115131 185.770033 
L 142.556238 184.676514 
L 142.997344 184.446925 
L 143.438451 184.73742 
L 143.879558 185.756947 
L 144.320665 184.552798 
L 144.761771 184.889511 
L 145.202878 184.004759 
L 145.643985 183.901411 
L 146.085091 184.210607 
L 146.526198 183.773288 
L 146.967305 183.881292 
L 147.408412 184.302752 
L 147.849518 184.383936 
L 148.290625 184.847795 
L 148.731732 183.874218 
L 149.172838 183.985069 
L 149.613945 184.487505 
L 150.055052 182.909122 
L 150.496159 182.846106 
L 150.937265 183.355634 
L 151.378372 184.113366 
L 151.819479 183.175639 
L 152.260585 183.903217 
L 152.701692 183.699209 
L 153.142799 183.061725 
L 153.583906 183.196088 
L 154.025012 185.027866 
L 154.907226 183.024234 
L 155.348333 183.024664 
L 155.789439 182.908792 
L 156.230546 182.921731 
L 156.671653 183.446698 
L 157.112759 183.231953 
L 157.553866 183.782402 
L 157.994973 183.157305 
L 158.877186 183.542492 
L 159.318293 183.446975 
L 159.7594 182.928913 
L 160.200506 183.836236 
L 160.641613 183.736315 
L 161.08272 183.907988 
L 161.523827 183.273056 
L 161.964933 183.490009 
L 162.40604 182.720341 
L 162.847147 182.625096 
L 163.288253 182.920247 
L 163.72936 183.852156 
L 164.170467 182.802564 
L 164.611574 182.738626 
L 165.05268 182.801259 
L 165.934894 183.681555 
L 166.376 182.885937 
L 166.817107 183.817856 
L 167.258214 183.130461 
L 167.699321 183.143888 
L 168.581534 182.841679 
L 169.022641 183.534285 
L 169.463748 182.956399 
L 169.904854 183.1017 
L 170.345961 183.593199 
L 170.787068 183.231413 
L 171.228174 183.494154 
L 171.669281 182.587269 
L 172.551495 183.233486 
L 172.992601 183.014462 
L 173.433708 183.921541 
L 173.874815 183.145828 
L 174.315921 184.071561 
L 174.757028 183.153563 
L 175.198135 183.120939 
L 175.639242 183.217194 
L 176.080348 182.82653 
L 176.521455 183.195985 
L 176.962562 183.2152 
L 177.403668 182.068551 
L 177.844775 182.517478 
L 178.285882 183.2954 
L 178.726989 183.449769 
L 179.168095 183.395169 
L 179.609202 183.713621 
L 180.050309 182.791018 
L 180.491416 182.950666 
L 180.932522 183.437971 
L 181.373629 183.397177 
L 181.814736 182.63061 
L 182.255842 183.785292 
L 182.696949 182.474261 
L 183.138056 183.387489 
L 183.579163 182.480907 
L 184.020269 183.151485 
L 184.902483 182.730728 
L 185.343589 183.290475 
L 185.784696 182.409606 
L 186.225803 182.700566 
L 186.66691 183.743703 
L 187.108016 182.943793 
L 188.431336 182.818776 
L 188.872443 183.03813 
L 189.31355 182.991935 
L 189.754657 183.939272 
L 190.195763 183.640936 
L 190.63687 182.692036 
L 191.077977 182.555659 
L 191.519083 182.842249 
L 191.96019 182.57223 
L 192.401297 183.123184 
L 192.842404 182.891681 
L 193.28351 183.99973 
L 194.165724 182.255185 
L 194.606831 182.325751 
L 195.489044 182.950932 
L 195.930151 182.766578 
L 196.371257 183.213411 
L 196.812364 182.990066 
L 197.253471 183.10962 
L 197.694578 182.88939 
L 198.135684 183.19995 
L 198.576791 182.548171 
L 199.017898 182.331845 
L 199.459004 182.754582 
L 199.900111 182.386773 
L 200.341218 182.499166 
L 200.782325 183.056651 
L 201.223431 182.807802 
L 201.664538 183.105543 
L 202.105645 182.743468 
L 202.546751 183.52151 
L 202.987858 182.973611 
L 205.193392 183.079528 
L 205.634499 182.768168 
L 206.516712 182.513927 
L 207.398925 182.752587 
L 207.840032 183.008193 
L 208.281139 183.679111 
L 209.163352 182.806429 
L 209.604459 182.954243 
L 211.368886 183.070869 
L 211.809993 183.105361 
L 212.251099 182.863134 
L 213.133313 183.206005 
L 214.015526 182.746778 
L 214.89774 183.31884 
L 215.338846 183.573065 
L 215.779953 183.018668 
L 216.22106 183.043531 
L 216.662167 183.317399 
L 217.54438 183.136009 
L 217.985487 183.506695 
L 218.426593 183.383708 
L 218.8677 183.030956 
L 219.749914 183.255503 
L 220.19102 183.74766 
L 220.632127 183.539514 
L 221.073234 184.122744 
L 221.51434 183.116812 
L 221.955447 183.055189 
L 222.837661 183.218949 
L 224.160981 183.497466 
L 224.602087 183.173385 
L 225.043194 183.701313 
L 225.484301 183.1398 
L 226.366514 183.983366 
L 226.807621 183.509783 
L 227.248728 183.31685 
L 227.689834 183.477441 
L 228.130941 182.976603 
L 228.572048 183.427922 
L 229.013155 183.32973 
L 229.454261 182.693731 
L 229.895368 183.190847 
L 230.336475 182.878586 
L 230.777582 183.631742 
L 231.218688 183.532027 
L 231.659795 184.148137 
L 232.100902 183.484397 
L 232.983115 183.193172 
L 233.424222 183.484256 
L 233.865329 183.52136 
L 234.306435 183.165281 
L 234.747542 182.983246 
L 235.188649 183.474534 
L 235.629755 183.229546 
L 236.070862 183.502455 
L 236.511969 183.333029 
L 236.953076 183.590888 
L 237.394182 183.320601 
L 237.835289 183.380472 
L 238.276396 183.071998 
L 238.717502 183.440573 
L 239.158609 183.385062 
L 239.599716 183.523604 
L 240.040823 183.365623 
L 240.481929 183.015156 
L 240.923036 183.250515 
L 241.364143 184.034514 
L 241.80525 183.839587 
L 242.246356 183.988011 
L 242.687463 183.312729 
L 243.12857 183.503067 
L 243.569676 183.375753 
L 244.010783 183.544545 
L 244.45189 183.094009 
L 245.334103 183.721852 
L 245.77521 183.432648 
L 246.216317 183.598003 
L 246.657423 182.852362 
L 247.09853 183.394857 
L 247.980744 183.282232 
L 248.42185 183.698576 
L 248.862957 184.269199 
L 249.304064 183.427617 
L 249.74517 183.745692 
L 250.186277 183.455576 
L 251.068491 183.798223 
L 251.509597 183.654011 
L 251.950704 183.747524 
L 252.391811 183.490886 
L 252.832917 183.697737 
L 253.274024 183.543973 
L 253.715131 183.584663 
L 254.156238 183.770174 
L 254.597344 183.322506 
L 255.038451 183.880069 
L 255.479558 183.989708 
L 255.920665 183.367329 
L 256.361771 183.600689 
L 257.243985 183.696709 
L 257.685091 184.280465 
L 258.126198 183.46197 
L 259.008412 183.7913 
L 259.449518 183.806285 
L 259.890625 183.094654 
L 260.772838 183.904287 
L 261.213945 183.294811 
L 261.655052 183.580542 
L 262.978372 183.662428 
L 263.419479 183.316345 
L 263.860585 183.534865 
L 264.301692 183.912978 
L 264.742799 184.048144 
L 265.183906 183.461047 
L 266.066119 183.752332 
L 266.507226 183.61315 
L 266.948333 184.063493 
L 267.389439 183.592658 
L 267.830546 183.870614 
L 268.271653 183.186031 
L 268.712759 183.964145 
L 269.153866 183.160091 
L 269.594973 183.861212 
L 270.03608 183.292585 
L 270.477186 183.516306 
L 270.918293 183.331213 
L 271.3594 183.617877 
L 271.800506 183.525817 
L 272.241613 183.292991 
L 272.68272 183.480584 
L 273.123827 183.852578 
L 274.00604 183.79079 
L 274.447147 183.497384 
L 274.888253 183.815023 
L 275.32936 184.341255 
L 275.770467 183.225012 
L 276.211574 183.734344 
L 276.65268 183.358944 
L 277.093787 183.242344 
L 277.534894 183.601829 
L 277.976 183.476473 
L 278.417107 183.648195 
L 278.858214 183.675303 
L 279.299321 183.545577 
L 279.740427 183.551833 
L 280.181534 183.68815 
L 280.622641 184.067365 
L 281.063748 184.011006 
L 281.945961 183.518072 
L 282.387068 183.905989 
L 282.828174 183.72298 
L 283.269281 184.051702 
L 283.710388 183.556504 
L 284.592601 183.560879 
L 285.033708 183.850074 
L 285.474815 183.510944 
L 285.915921 183.786796 
L 286.357028 183.574853 
L 286.798135 184.06199 
L 287.239242 183.535886 
L 287.680348 183.619326 
L 288.121455 184.003903 
L 289.003668 184.168796 
L 289.444775 183.648536 
L 289.885882 184.069936 
L 290.326989 183.989729 
L 290.768095 184.104739 
L 291.209202 183.551519 
L 291.650309 184.201567 
L 292.532522 183.335254 
L 292.973629 183.935562 
L 293.414736 183.628661 
L 293.855842 183.608723 
L 294.296949 183.338168 
L 294.738056 183.369248 
L 295.179163 183.728027 
L 295.620269 183.653923 
L 296.061376 183.871679 
L 296.502483 183.500933 
L 296.943589 183.804692 
L 297.384696 183.557266 
L 297.825803 183.536052 
L 298.26691 183.677491 
L 298.708016 183.511561 
L 299.149123 183.818911 
L 299.59023 183.680106 
L 300.031336 183.316719 
L 300.472443 183.606841 
L 300.91355 184.030771 
L 301.354657 183.89653 
L 301.795763 183.561905 
L 302.23687 183.963076 
L 302.677977 183.589406 
L 303.119083 183.671066 
L 303.56019 184.032846 
L 304.001297 183.816132 
L 304.442404 183.734416 
L 305.324617 183.984267 
L 305.765724 184.460725 
L 306.647937 183.955757 
L 307.089044 183.371575 
L 307.530151 183.800792 
L 307.971257 183.811522 
L 308.412364 184.438955 
L 308.853471 183.90586 
L 309.294578 183.751405 
L 309.735684 184.136892 
L 310.176791 184.113377 
L 310.617898 184.361561 
L 311.059004 183.893618 
L 311.941218 184.154274 
L 312.382325 183.986099 
L 312.823431 184.031172 
L 313.264538 184.746893 
L 313.705645 183.829595 
L 314.146751 184.525654 
L 315.028965 184.484841 
L 315.470072 183.539757 
L 315.911178 184.396892 
L 316.352285 183.562071 
L 316.793392 184.058096 
L 317.234499 184.027067 
L 318.116712 183.606717 
L 318.557819 184.135914 
L 319.440032 183.971408 
L 319.881139 183.836393 
L 320.322246 184.141271 
L 320.763352 183.986363 
L 321.204459 184.560163 
L 321.645566 184.119487 
L 322.527779 184.380259 
L 322.968886 183.942237 
L 323.409993 184.577942 
L 323.851099 184.126651 
L 324.292206 184.089082 
L 324.733313 184.519843 
L 325.174419 184.160777 
L 325.615526 184.141598 
L 326.056633 183.727954 
L 326.49774 184.247347 
L 326.938846 183.795225 
L 327.379953 183.797496 
L 327.82106 183.976826 
L 328.262167 184.007656 
L 328.703273 184.432068 
L 329.585487 184.492172 
L 330.026593 183.747344 
L 330.4677 183.93629 
L 330.908807 184.274464 
L 331.349914 184.085552 
L 331.79102 183.680952 
L 332.232127 184.109062 
L 332.673234 183.982663 
L 333.11434 184.470374 
L 333.555447 183.848077 
L 333.996554 184.292654 
L 334.437661 184.252351 
L 334.878767 184.65116 
L 335.760981 183.831811 
L 336.202087 184.151975 
L 336.643194 183.759917 
L 337.084301 184.046638 
L 337.525408 183.293369 
L 337.966514 183.455596 
L 338.407621 183.788144 
L 338.848728 183.97835 
L 339.289834 184.395394 
L 339.730941 184.200659 
L 340.172048 183.62969 
L 340.613155 183.918979 
L 341.054261 183.887444 
L 341.495368 183.680268 
L 341.936475 184.121697 
L 342.818688 183.577968 
L 343.259795 183.406932 
L 343.700902 183.699485 
L 344.142008 183.838053 
L 344.583115 184.174193 
L 345.024222 183.406188 
L 345.465329 183.566256 
L 345.906435 184.112185 
L 346.788649 183.857474 
L 347.670862 183.345625 
L 348.553076 184.10976 
L 348.994182 183.552716 
L 349.435289 183.578276 
L 349.876396 183.451638 
L 350.758609 183.804361 
L 351.199716 183.562106 
L 351.640823 183.65838 
L 352.081929 183.506233 
L 353.846356 183.5843 
L 354.287463 183.401444 
L 354.72857 183.679564 
L 355.169676 183.625895 
L 355.610783 184.167791 
L 356.05189 183.337589 
L 356.492997 183.581917 
L 356.934103 183.259873 
L 357.37521 183.674293 
L 358.257423 183.769385 
L 358.69853 183.061354 
L 360.02185 183.900729 
L 360.462957 183.444012 
L 361.34517 183.288519 
L 361.786277 183.655874 
L 362.227384 183.632594 
L 362.668491 183.295308 
L 363.109597 183.364492 
L 363.550704 183.186586 
L 363.991811 183.503763 
L 365.315131 183.32978 
L 365.756238 183.466503 
L 366.197344 183.454851 
L 366.638451 183.076589 
L 367.079558 183.41821 
L 367.520665 183.524796 
L 367.961771 182.842981 
L 368.402878 183.131057 
L 369.285091 183.245596 
L 369.726198 183.376076 
L 370.167305 183.107833 
L 370.608412 183.460305 
L 371.049518 183.425541 
L 371.490625 183.241457 
L 372.372838 183.619045 
L 372.813945 183.147681 
L 373.255052 183.273929 
L 374.137265 183.159597 
L 374.578372 183.491664 
L 375.019479 183.561443 
L 375.460585 183.185605 
L 375.901692 183.588135 
L 376.342799 183.219707 
L 376.783906 183.087308 
L 377.225012 183.319028 
L 377.666119 183.410961 
L 378.107226 183.24749 
L 378.989439 183.111364 
L 379.430546 183.54411 
L 379.871653 183.164345 
L 380.312759 183.752388 
L 380.753866 182.989223 
L 382.518293 183.309707 
L 382.9594 183.410028 
L 383.400506 183.065202 
L 383.841613 183.062422 
L 384.723827 183.589781 
L 385.164933 183.391143 
L 385.60604 182.950594 
L 386.047147 183.355 
L 386.488253 183.592637 
L 387.370467 183.61025 
L 387.811574 183.113705 
L 388.25268 182.873457 
L 388.693787 183.084194 
L 389.134894 183.452025 
L 389.576 182.923494 
L 390.017107 183.434375 
L 390.899321 182.997813 
L 391.340427 183.315565 
L 391.781534 183.145289 
L 392.663748 183.57406 
L 393.104854 183.260156 
L 393.987068 183.06024 
L 394.428174 183.147698 
L 395.310388 182.782334 
L 395.751495 183.381895 
L 396.192601 182.975455 
L 396.633708 183.442126 
L 397.074815 183.106796 
L 397.515921 183.474376 
L 397.957028 182.835026 
L 398.398135 183.149862 
L 398.839242 183.087538 
L 399.280348 183.411053 
L 399.721455 183.168374 
L 400.162562 183.180928 
L 400.603668 183.325319 
L 401.044775 182.791654 
L 401.485882 182.55984 
L 401.926989 182.914375 
L 402.368095 182.917697 
L 403.250309 183.183789 
L 404.132522 183.159303 
L 405.014736 183.012312 
L 405.455842 182.604557 
L 405.896949 183.046112 
L 406.338056 183.195119 
L 406.779163 182.889687 
L 407.220269 182.996916 
L 408.102483 183.026144 
L 408.984696 183.267688 
L 409.425803 182.864167 
L 409.86691 182.900338 
L 410.308016 183.192053 
L 410.749123 183.121054 
L 411.19023 183.387414 
L 412.072443 182.854778 
L 412.51355 182.99409 
L 412.954657 182.84007 
L 413.395763 182.958257 
L 413.83687 183.343694 
L 414.277977 182.8654 
L 414.719083 183.227404 
L 415.16019 183.320284 
L 415.601297 182.946414 
L 416.042404 182.853768 
L 416.48351 183.247682 
L 417.806831 183.227195 
L 418.247937 183.543206 
L 418.689044 183.115228 
L 419.130151 183.077924 
L 419.571257 182.86555 
L 420.012364 183.262107 
L 420.453471 183.17484 
L 420.894578 182.869864 
L 421.335684 183.09306 
L 421.776791 183.181223 
L 422.217898 182.948603 
L 423.100111 182.98284 
L 423.541218 183.411502 
L 423.982325 183.456222 
L 424.423431 183.160918 
L 424.864538 183.315215 
L 425.305645 183.187405 
L 425.746751 183.406213 
L 426.187858 182.721065 
L 426.628965 183.299725 
L 427.070072 183.430653 
L 427.952285 183.090215 
L 428.834499 183.392291 
L 429.275605 183.283125 
L 429.716712 182.707293 
L 430.598925 183.587734 
L 431.040032 183.586786 
L 431.481139 183.027914 
L 431.922246 183.120785 
L 432.804459 182.952666 
L 433.245566 183.219916 
L 433.686672 183.340357 
L 435.892206 183.243999 
L 436.333313 183.015496 
L 436.774419 183.266255 
L 437.215526 183.388726 
L 438.538846 183.245335 
L 438.979953 183.526566 
L 439.862167 183.38595 
L 440.303273 183.678664 
L 440.74438 183.587264 
L 441.185487 183.229104 
L 441.626593 183.244474 
L 442.508807 183.591564 
L 442.949914 182.83058 
L 443.832127 183.467039 
L 445.155447 183.012192 
L 445.596554 183.285372 
L 446.037661 182.856099 
L 446.919874 183.321429 
L 447.360981 183.278836 
L 447.802087 183.06228 
L 448.243194 183.08701 
L 448.684301 182.810761 
L 449.125408 183.033006 
L 450.007621 183.205329 
L 450.448728 182.746892 
L 450.889834 183.668937 
L 451.330941 183.280835 
L 452.213155 182.987819 
L 452.654261 182.980378 
L 453.095368 182.689718 
L 453.536475 182.881797 
L 453.977582 183.238529 
L 454.418688 182.903573 
L 454.859795 183.032723 
L 455.300902 183.278655 
L 455.742008 183.864914 
L 456.624222 182.881302 
L 457.506435 182.496939 
L 457.947542 182.964083 
L 458.388649 182.932074 
L 458.829755 183.328355 
L 459.270862 183.414942 
L 460.153076 183.08329 
L 460.594182 183.502748 
L 461.035289 183.406766 
L 461.476396 182.975909 
L 461.917502 183.033288 
L 462.358609 183.264682 
L 463.681929 183.125527 
L 466.769676 183.210635 
L 467.210783 183.390996 
L 467.65189 183.247714 
L 468.534103 183.139241 
L 468.97521 182.7976 
L 469.416317 183.158489 
L 469.857423 183.300028 
L 470.739637 182.631251 
L 471.180744 182.771337 
L 471.62185 183.118759 
L 472.062957 182.976473 
L 472.504064 183.321974 
L 472.94517 183.497905 
L 474.268491 183.037855 
L 474.709597 183.406321 
L 475.150704 183.506245 
L 475.591811 183.117107 
L 476.032917 183.270517 
L 476.474024 183.069813 
L 476.915131 183.06227 
L 477.356238 183.500583 
L 477.797344 183.213128 
L 479.561771 183.231397 
L 480.002878 183.41181 
L 480.885091 183.051382 
L 481.326198 183.010845 
L 481.767305 183.358565 
L 483.090625 182.973402 
L 483.531732 183.439632 
L 483.972838 183.343979 
L 484.413945 183.451405 
L 484.855052 183.754983 
L 485.296159 183.196067 
L 485.737265 183.369495 
L 486.178372 182.879069 
L 486.619479 182.881103 
L 487.060585 183.323204 
L 487.942799 183.800187 
L 488.383906 183.416379 
L 488.825012 183.388463 
L 489.266119 182.964581 
L 489.707226 183.437921 
L 490.589439 183.108274 
L 491.471653 182.974154 
L 491.912759 182.937994 
L 492.353866 183.247622 
L 492.794973 183.255529 
L 493.23608 183.843212 
L 493.677186 182.950002 
L 495.441613 183.181687 
L 496.323827 183.507414 
L 496.764933 183.212241 
L 497.20604 183.569302 
L 497.647147 183.43711 
L 498.088253 183.118884 
L 498.52936 183.359822 
L 498.970467 183.312847 
L 499.411574 182.979613 
L 499.85268 183.438856 
L 500.293787 182.299609 
L 500.734894 181.762942 
L 501.176 183.441184 
L 502.499321 182.961926 
L 502.940427 183.454121 
L 503.381534 183.175714 
L 503.822641 183.373462 
L 504.263748 182.405084 
L 504.704854 180.350935 
L 505.145961 180.307807 
L 506.469281 181.647799 
L 506.910388 181.67833 
L 507.351495 182.428926 
L 507.792601 181.779399 
L 508.233708 182.309822 
L 508.674815 181.950503 
L 509.557028 181.811203 
L 509.998135 182.112539 
L 510.439242 182.119962 
L 510.880348 183.012767 
L 511.762562 182.240705 
L 512.203668 182.865056 
L 512.644775 182.625435 
L 513.085882 182.555945 
L 513.526989 182.060638 
L 513.968095 181.790267 
L 514.409202 181.872344 
L 514.850309 182.292266 
L 515.291416 182.355283 
L 515.732522 182.651025 
L 516.173629 181.105141 
L 516.614736 181.664196 
L 517.055842 181.607785 
L 517.496949 181.839257 
L 517.938056 181.778432 
L 518.379163 182.066054 
L 518.820269 182.024339 
L 519.261376 182.132545 
L 520.143589 181.90766 
L 520.584696 182.047168 
L 521.025803 181.99583 
L 521.46691 182.254159 
L 521.908016 181.839294 
L 522.349123 182.432153 
L 522.79023 181.941677 
L 523.231336 182.270582 
L 523.672443 181.797613 
L 524.11355 181.937586 
L 524.554657 181.866494 
L 524.995763 182.105283 
L 525.43687 182.004853 
L 525.877977 181.770463 
L 526.319083 182.209652 
L 526.76019 182.15394 
L 527.201297 182.278743 
L 527.642404 182.0443 
L 528.08351 182.263266 
L 528.524617 182.350906 
L 528.965724 181.991202 
L 529.847937 182.179557 
L 530.289044 182.057555 
L 530.730151 182.350878 
L 531.171257 182.414161 
L 531.612364 182.635928 
L 532.494578 182.199205 
L 532.935684 182.378853 
L 533.376791 182.341046 
L 533.817898 182.13528 
L 534.259004 182.076736 
L 534.700111 182.199744 
L 535.141218 182.111265 
L 535.582325 182.264371 
L 536.023431 181.75747 
L 536.464538 181.624852 
L 536.905645 182.026701 
L 537.787858 182.153099 
L 538.670072 182.247594 
L 539.111178 182.569226 
L 539.552285 182.231737 
L 539.993392 182.239436 
L 540.434499 181.855166 
L 540.875605 182.195919 
L 541.316712 182.236617 
L 541.757819 182.157868 
L 542.198925 182.442652 
L 542.640032 182.495546 
L 543.081139 181.732491 
L 543.522246 182.424756 
L 543.963352 182.535168 
L 544.404459 182.355891 
L 544.845566 182.012175 
L 545.286672 182.700203 
L 545.727779 182.243314 
L 546.168886 182.543644 
L 546.609993 182.660535 
L 547.051099 182.208276 
L 547.492206 182.065511 
L 547.933313 182.313926 
L 548.374419 182.199557 
L 548.815526 182.488326 
L 549.69774 181.972093 
L 551.462167 182.320669 
L 551.903273 182.06008 
L 552.34438 182.687156 
L 553.226593 182.594929 
L 553.6677 182.375168 
L 554.108807 182.324818 
L 554.549914 182.508199 
L 554.99102 182.524887 
L 555.432127 182.242166 
L 555.873234 182.504688 
L 556.755447 182.138973 
L 557.196554 181.981903 
L 557.637661 182.243448 
L 559.402087 182.119861 
L 559.843194 182.057143 
L 560.725408 182.286359 
L 561.166514 182.082584 
L 561.607621 182.138121 
L 562.489834 182.505293 
L 562.930941 182.401842 
L 563.372048 182.485467 
L 563.813155 182.34327 
L 564.254261 182.569181 
L 564.695368 182.530533 
L 565.136475 182.149332 
L 565.577582 182.232089 
L 566.018688 182.113911 
L 566.459795 182.324375 
L 566.900902 182.351873 
L 567.342008 182.20829 
L 569.988649 182.632047 
L 570.429755 182.390814 
L 570.870862 182.440597 
L 571.311969 182.656737 
L 571.753076 182.502688 
L 572.194182 182.637357 
L 572.635289 182.095196 
L 573.076396 182.283805 
L 573.517502 182.069755 
L 573.958609 182.536919 
L 574.399716 182.640008 
L 574.840823 182.396871 
L 575.281929 182.545075 
L 576.164143 182.460655 
L 577.046356 182.594223 
L 577.487463 182.883057 
L 578.810783 182.550176 
L 580.134103 182.335158 
L 580.57521 182.094919 
L 581.016317 182.439439 
L 581.457423 182.449754 
L 581.89853 182.333685 
L 582.339637 182.384298 
L 583.662957 181.973572 
L 585.427384 181.909574 
L 586.309597 182.367982 
L 586.750704 182.184092 
L 587.191811 182.209204 
L 588.515131 181.757783 
L 588.956238 182.046813 
L 589.838451 181.895438 
L 590.279558 181.761605 
L 590.720665 182.163757 
L 591.161771 181.922442 
L 592.043985 182.002908 
L 592.485091 182.331292 
L 592.926198 182.230149 
L 593.367305 182.319543 
L 593.808412 182.174219 
L 594.249518 182.220184 
L 594.690625 181.848545 
L 595.131732 182.240633 
L 595.572838 182.003928 
L 596.013945 182.187805 
L 597.778372 182.115941 
L 598.219479 181.728746 
L 598.660585 181.858457 
L 599.101692 182.188899 
L 599.983906 182.174414 
L 600.866119 182.175654 
L 601.748333 182.163007 
L 602.189439 182.230807 
L 602.630546 182.135633 
L 603.071653 182.287623 
L 604.394973 181.866172 
L 604.83608 181.89936 
L 605.277186 182.239634 
L 605.718293 182.186477 
L 606.1594 181.93379 
L 606.600506 182.083731 
L 607.041613 182.068481 
L 607.48272 181.74011 
L 607.923827 181.921651 
L 608.364933 181.807126 
L 609.688253 181.953517 
L 610.12936 181.902134 
L 610.570467 182.037676 
L 611.45268 181.718665 
L 611.893787 181.825252 
L 612.334894 182.142079 
L 613.217107 181.853801 
L 614.099321 182.064664 
L 614.540427 182.087273 
L 614.981534 181.799895 
L 615.422641 182.269505 
L 615.863748 182.295824 
L 616.304854 182.054519 
L 616.745961 182.290106 
L 617.187068 182.149317 
L 618.069281 181.740144 
L 618.510388 181.883053 
L 620.274815 181.970675 
L 620.715921 181.68243 
L 621.157028 182.09441 
L 622.039242 182.167889 
L 622.480348 181.84792 
L 622.921455 181.676868 
L 623.362562 181.864798 
L 623.803668 181.921529 
L 624.244775 182.091311 
L 624.685882 181.811555 
L 625.126989 181.72748 
L 625.126989 181.72748 
" clip-path="url(#p3145f0544a)" style="fill: none; stroke: #ff7f0e; stroke-width: 1.5; stroke-linecap: square"/>
   </g>
   <g id="patch_3">
    <path d="M 92.490625 308.63625 
L 92.490625 31.43625 
" style="fill: none; stroke: #000000; stroke-width: 0.8; stroke-linejoin: miter; stroke-linecap: square"/>
   </g>
   <g id="patch_4">
    <path d="M 650.490625 308.63625 
L 650.490625 31.43625 
" style="fill: none; stroke: #000000; stroke-width: 0.8; stroke-linejoin: miter; stroke-linecap: square"/>
   </g>
   <g id="patch_5">
    <path d="M 92.490625 308.63625 
L 650.490625 308.63625 
" style="fill: none; stroke: #000000; stroke-width: 0.8; stroke-linejoin: miter; stroke-linecap: square"/>
   </g>
   <g id="patch_6">
    <path d="M 92.490625 31.43625 
L 650.490625 31.43625 
" style="fill: none; stroke: #000000; stroke-width: 0.8; stroke-linejoin: miter; stroke-linecap: square"/>
   </g>
   <g id="text_15">
    <!-- Generator and Discriminator Loss During Training -->
    <g transform="translate(74.258125 25.43625) scale(0.24 -0.24)">
     <defs>
      <path id="DejaVuSans-47" d="M 3809 666 
L 3809 1919 
L 2778 1919 
L 2778 2438 
L 4434 2438 
L 4434 434 
Q 4069 175 3628 42 
Q 3188 -91 2688 -91 
Q 1594 -91 976 548 
Q 359 1188 359 2328 
Q 359 3472 976 4111 
Q 1594 4750 2688 4750 
Q 3144 4750 3555 4637 
Q 3966 4525 4313 4306 
L 4313 3634 
Q 3963 3931 3569 4081 
Q 3175 4231 2741 4231 
Q 1884 4231 1454 3753 
Q 1025 3275 1025 2328 
Q 1025 1384 1454 906 
Q 1884 428 2741 428 
Q 3075 428 3337 486 
Q 3600 544 3809 666 
z
" transform="scale(0.015625)"/>
      <path id="DejaVuSans-20" transform="scale(0.015625)"/>
      <path id="DejaVuSans-64" d="M 2906 2969 
L 2906 4863 
L 3481 4863 
L 3481 0 
L 2906 0 
L 2906 525 
Q 2725 213 2448 61 
Q 2172 -91 1784 -91 
Q 1150 -91 751 415 
Q 353 922 353 1747 
Q 353 2572 751 3078 
Q 1150 3584 1784 3584 
Q 2172 3584 2448 3432 
Q 2725 3281 2906 2969 
z
M 947 1747 
Q 947 1113 1208 752 
Q 1469 391 1925 391 
Q 2381 391 2643 752 
Q 2906 1113 2906 1747 
Q 2906 2381 2643 2742 
Q 2381 3103 1925 3103 
Q 1469 3103 1208 2742 
Q 947 2381 947 1747 
z
" transform="scale(0.015625)"/>
      <path id="DejaVuSans-44" d="M 1259 4147 
L 1259 519 
L 2022 519 
Q 2988 519 3436 956 
Q 3884 1394 3884 2338 
Q 3884 3275 3436 3711 
Q 2988 4147 2022 4147 
L 1259 4147 
z
M 628 4666 
L 1925 4666 
Q 3281 4666 3915 4102 
Q 4550 3538 4550 2338 
Q 4550 1131 3912 565 
Q 3275 0 1925 0 
L 628 0 
L 628 4666 
z
" transform="scale(0.015625)"/>
      <path id="DejaVuSans-63" d="M 3122 3366 
L 3122 2828 
Q 2878 2963 2633 3030 
Q 2388 3097 2138 3097 
Q 1578 3097 1268 2742 
Q 959 2388 959 1747 
Q 959 1106 1268 751 
Q 1578 397 2138 397 
Q 2388 397 2633 464 
Q 2878 531 3122 666 
L 3122 134 
Q 2881 22 2623 -34 
Q 2366 -91 2075 -91 
Q 1284 -91 818 406 
Q 353 903 353 1747 
Q 353 2603 823 3093 
Q 1294 3584 2113 3584 
Q 2378 3584 2631 3529 
Q 2884 3475 3122 3366 
z
" transform="scale(0.015625)"/>
      <path id="DejaVuSans-6d" d="M 3328 2828 
Q 3544 3216 3844 3400 
Q 4144 3584 4550 3584 
Q 5097 3584 5394 3201 
Q 5691 2819 5691 2113 
L 5691 0 
L 5113 0 
L 5113 2094 
Q 5113 2597 4934 2840 
Q 4756 3084 4391 3084 
Q 3944 3084 3684 2787 
Q 3425 2491 3425 1978 
L 3425 0 
L 2847 0 
L 2847 2094 
Q 2847 2600 2669 2842 
Q 2491 3084 2119 3084 
Q 1678 3084 1418 2786 
Q 1159 2488 1159 1978 
L 1159 0 
L 581 0 
L 581 3500 
L 1159 3500 
L 1159 2956 
Q 1356 3278 1631 3431 
Q 1906 3584 2284 3584 
Q 2666 3584 2933 3390 
Q 3200 3197 3328 2828 
z
" transform="scale(0.015625)"/>
      <path id="DejaVuSans-75" d="M 544 1381 
L 544 3500 
L 1119 3500 
L 1119 1403 
Q 1119 906 1312 657 
Q 1506 409 1894 409 
Q 2359 409 2629 706 
Q 2900 1003 2900 1516 
L 2900 3500 
L 3475 3500 
L 3475 0 
L 2900 0 
L 2900 538 
Q 2691 219 2414 64 
Q 2138 -91 1772 -91 
Q 1169 -91 856 284 
Q 544 659 544 1381 
z
M 1991 3584 
L 1991 3584 
z
" transform="scale(0.015625)"/>
      <path id="DejaVuSans-67" d="M 2906 1791 
Q 2906 2416 2648 2759 
Q 2391 3103 1925 3103 
Q 1463 3103 1205 2759 
Q 947 2416 947 1791 
Q 947 1169 1205 825 
Q 1463 481 1925 481 
Q 2391 481 2648 825 
Q 2906 1169 2906 1791 
z
M 3481 434 
Q 3481 -459 3084 -895 
Q 2688 -1331 1869 -1331 
Q 1566 -1331 1297 -1286 
Q 1028 -1241 775 -1147 
L 775 -588 
Q 1028 -725 1275 -790 
Q 1522 -856 1778 -856 
Q 2344 -856 2625 -561 
Q 2906 -266 2906 331 
L 2906 616 
Q 2728 306 2450 153 
Q 2172 0 1784 0 
Q 1141 0 747 490 
Q 353 981 353 1791 
Q 353 2603 747 3093 
Q 1141 3584 1784 3584 
Q 2172 3584 2450 3431 
Q 2728 3278 2906 2969 
L 2906 3500 
L 3481 3500 
L 3481 434 
z
" transform="scale(0.015625)"/>
      <path id="DejaVuSans-54" d="M -19 4666 
L 3928 4666 
L 3928 4134 
L 2272 4134 
L 2272 0 
L 1638 0 
L 1638 4134 
L -19 4134 
L -19 4666 
z
" transform="scale(0.015625)"/>
     </defs>
     <use xlink:href="#DejaVuSans-47"/>
     <use xlink:href="#DejaVuSans-65" x="77.490234"/>
     <use xlink:href="#DejaVuSans-6e" x="139.013672"/>
     <use xlink:href="#DejaVuSans-65" x="202.392578"/>
     <use xlink:href="#DejaVuSans-72" x="263.916016"/>
     <use xlink:href="#DejaVuSans-61" x="305.029297"/>
     <use xlink:href="#DejaVuSans-74" x="366.308594"/>
     <use xlink:href="#DejaVuSans-6f" x="405.517578"/>
     <use xlink:href="#DejaVuSans-72" x="466.699219"/>
     <use xlink:href="#DejaVuSans-20" x="507.8125"/>
     <use xlink:href="#DejaVuSans-61" x="539.599609"/>
     <use xlink:href="#DejaVuSans-6e" x="600.878906"/>
     <use xlink:href="#DejaVuSans-64" x="664.257812"/>
     <use xlink:href="#DejaVuSans-20" x="727.734375"/>
     <use xlink:href="#DejaVuSans-44" x="759.521484"/>
     <use xlink:href="#DejaVuSans-69" x="836.523438"/>
     <use xlink:href="#DejaVuSans-73" x="864.306641"/>
     <use xlink:href="#DejaVuSans-63" x="916.40625"/>
     <use xlink:href="#DejaVuSans-72" x="971.386719"/>
     <use xlink:href="#DejaVuSans-69" x="1012.5"/>
     <use xlink:href="#DejaVuSans-6d" x="1040.283203"/>
     <use xlink:href="#DejaVuSans-69" x="1137.695312"/>
     <use xlink:href="#DejaVuSans-6e" x="1165.478516"/>
     <use xlink:href="#DejaVuSans-61" x="1228.857422"/>
     <use xlink:href="#DejaVuSans-74" x="1290.136719"/>
     <use xlink:href="#DejaVuSans-6f" x="1329.345703"/>
     <use xlink:href="#DejaVuSans-72" x="1390.527344"/>
     <use xlink:href="#DejaVuSans-20" x="1431.640625"/>
     <use xlink:href="#DejaVuSans-4c" x="1463.427734"/>
     <use xlink:href="#DejaVuSans-6f" x="1517.390625"/>
     <use xlink:href="#DejaVuSans-73" x="1578.572266"/>
     <use xlink:href="#DejaVuSans-73" x="1630.671875"/>
     <use xlink:href="#DejaVuSans-20" x="1682.771484"/>
     <use xlink:href="#DejaVuSans-44" x="1714.558594"/>
     <use xlink:href="#DejaVuSans-75" x="1791.560547"/>
     <use xlink:href="#DejaVuSans-72" x="1854.939453"/>
     <use xlink:href="#DejaVuSans-69" x="1896.052734"/>
     <use xlink:href="#DejaVuSans-6e" x="1923.835938"/>
     <use xlink:href="#DejaVuSans-67" x="1987.214844"/>
     <use xlink:href="#DejaVuSans-20" x="2050.691406"/>
     <use xlink:href="#DejaVuSans-54" x="2082.478516"/>
     <use xlink:href="#DejaVuSans-72" x="2128.8125"/>
     <use xlink:href="#DejaVuSans-61" x="2169.925781"/>
     <use xlink:href="#DejaVuSans-69" x="2231.205078"/>
     <use xlink:href="#DejaVuSans-6e" x="2258.988281"/>
     <use xlink:href="#DejaVuSans-69" x="2322.367188"/>
     <use xlink:href="#DejaVuSans-6e" x="2350.150391"/>
     <use xlink:href="#DejaVuSans-67" x="2413.529297"/>
    </g>
   </g>
   <g id="legend_1">
    <g id="patch_7">
     <path d="M 556.99375 106.14875 
L 636.490625 106.14875 
Q 640.490625 106.14875 640.490625 102.14875 
L 640.490625 45.43625 
Q 640.490625 41.43625 636.490625 41.43625 
L 556.99375 41.43625 
Q 552.99375 41.43625 552.99375 45.43625 
L 552.99375 102.14875 
Q 552.99375 106.14875 556.99375 106.14875 
z
" style="fill: #ffffff; opacity: 0.8; stroke: #cccccc; stroke-linejoin: miter"/>
    </g>
    <g id="line2d_15">
     <path d="M 560.99375 57.633125 
L 580.99375 57.633125 
L 600.99375 57.633125 
" style="fill: none; stroke: #1f77b4; stroke-width: 1.5; stroke-linecap: square"/>
    </g>
    <g id="text_16">
     <!-- G -->
     <g transform="translate(616.99375 64.633125) scale(0.2 -0.2)">
      <use xlink:href="#DejaVuSans-47"/>
     </g>
    </g>
    <g id="line2d_16">
     <path d="M 560.99375 86.989375 
L 580.99375 86.989375 
L 600.99375 86.989375 
" style="fill: none; stroke: #ff7f0e; stroke-width: 1.5; stroke-linecap: square"/>
    </g>
    <g id="text_17">
     <!-- D -->
     <g transform="translate(616.99375 93.989375) scale(0.2 -0.2)">
      <use xlink:href="#DejaVuSans-44"/>
     </g>
    </g>
   </g>
  </g>
 </g>
 <defs>
  <clipPath id="p3145f0544a">
   <rect x="92.490625" y="31.43625" width="558" height="277.2"/>
  </clipPath>
 </defs>
</svg>
