<?xml version="1.0" encoding="utf-8" standalone="no"?>
<!DOCTYPE svg PUBLIC "-//W3C//DTD SVG 1.1//EN"
  "http://www.w3.org/Graphics/SVG/1.1/DTD/svg11.dtd">
<svg xmlns:xlink="http://www.w3.org/1999/xlink" width="679.832325pt" height="365.54875pt" viewBox="0 0 679.832325 365.54875" xmlns="http://www.w3.org/2000/svg" version="1.1">
 <metadata>
  <rdf:RDF xmlns:dc="http://purl.org/dc/elements/1.1/" xmlns:cc="http://creativecommons.org/ns#" xmlns:rdf="http://www.w3.org/1999/02/22-rdf-syntax-ns#">
   <cc:Work>
    <dc:type rdf:resource="http://purl.org/dc/dcmitype/StillImage"/>
    <dc:date>2024-02-04T17:56:26.820109</dc:date>
    <dc:format>image/svg+xml</dc:format>
    <dc:creator>
     <cc:Agent>
      <dc:title>Matplotlib v3.7.2, https://matplotlib.org/</dc:title>
     </cc:Agent>
    </dc:creator>
   </cc:Work>
  </rdf:RDF>
 </metadata>
 <defs>
  <style type="text/css">*{stroke-linejoin: round; stroke-linecap: butt}</style>
 </defs>
 <g id="figure_1">
  <g id="patch_1">
   <path d="M 0 365.54875 
L 679.832325 365.54875 
L 679.832325 -0 
L 0 -0 
z
" style="fill: #ffffff"/>
  </g>
  <g id="axes_1">
   <g id="patch_2">
    <path d="M 92.490625 308.63625 
L 650.490625 308.63625 
L 650.490625 31.43625 
L 92.490625 31.43625 
z
" style="fill: #ffffff"/>
   </g>
   <g id="matplotlib.axis_1">
    <g id="xtick_1">
     <g id="line2d_1">
      <defs>
       <path id="me4734ba4ce" d="M 0 0 
L 0 3.5 
" style="stroke: #000000; stroke-width: 0.8"/>
      </defs>
      <g>
       <use xlink:href="#me4734ba4ce" x="117.854261" y="308.63625" style="stroke: #000000; stroke-width: 0.8"/>
      </g>
     </g>
     <g id="text_1">
      <!-- 0 -->
      <g transform="translate(111.491761 330.833125) scale(0.2 -0.2)">
       <defs>
        <path id="DejaVuSans-30" d="M 2034 4250 
Q 1547 4250 1301 3770 
Q 1056 3291 1056 2328 
Q 1056 1369 1301 889 
Q 1547 409 2034 409 
Q 2525 409 2770 889 
Q 3016 1369 3016 2328 
Q 3016 3291 2770 3770 
Q 2525 4250 2034 4250 
z
M 2034 4750 
Q 2819 4750 3233 4129 
Q 3647 3509 3647 2328 
Q 3647 1150 3233 529 
Q 2819 -91 2034 -91 
Q 1250 -91 836 529 
Q 422 1150 422 2328 
Q 422 3509 836 4129 
Q 1250 4750 2034 4750 
z
" transform="scale(0.015625)"/>
       </defs>
       <use xlink:href="#DejaVuSans-30"/>
      </g>
     </g>
    </g>
    <g id="xtick_2">
     <g id="line2d_2">
      <g>
       <use xlink:href="#me4734ba4ce" x="206.075605" y="308.63625" style="stroke: #000000; stroke-width: 0.8"/>
      </g>
     </g>
     <g id="text_2">
      <!-- 200 -->
      <g transform="translate(186.988105 330.833125) scale(0.2 -0.2)">
       <defs>
        <path id="DejaVuSans-32" d="M 1228 531 
L 3431 531 
L 3431 0 
L 469 0 
L 469 531 
Q 828 903 1448 1529 
Q 2069 2156 2228 2338 
Q 2531 2678 2651 2914 
Q 2772 3150 2772 3378 
Q 2772 3750 2511 3984 
Q 2250 4219 1831 4219 
Q 1534 4219 1204 4116 
Q 875 4013 500 3803 
L 500 4441 
Q 881 4594 1212 4672 
Q 1544 4750 1819 4750 
Q 2544 4750 2975 4387 
Q 3406 4025 3406 3419 
Q 3406 3131 3298 2873 
Q 3191 2616 2906 2266 
Q 2828 2175 2409 1742 
Q 1991 1309 1228 531 
z
" transform="scale(0.015625)"/>
       </defs>
       <use xlink:href="#DejaVuSans-32"/>
       <use xlink:href="#DejaVuSans-30" x="63.623047"/>
       <use xlink:href="#DejaVuSans-30" x="127.246094"/>
      </g>
     </g>
    </g>
    <g id="xtick_3">
     <g id="line2d_3">
      <g>
       <use xlink:href="#me4734ba4ce" x="294.296949" y="308.63625" style="stroke: #000000; stroke-width: 0.8"/>
      </g>
     </g>
     <g id="text_3">
      <!-- 400 -->
      <g transform="translate(275.209449 330.833125) scale(0.2 -0.2)">
       <defs>
        <path id="DejaVuSans-34" d="M 2419 4116 
L 825 1625 
L 2419 1625 
L 2419 4116 
z
M 2253 4666 
L 3047 4666 
L 3047 1625 
L 3713 1625 
L 3713 1100 
L 3047 1100 
L 3047 0 
L 2419 0 
L 2419 1100 
L 313 1100 
L 313 1709 
L 2253 4666 
z
" transform="scale(0.015625)"/>
       </defs>
       <use xlink:href="#DejaVuSans-34"/>
       <use xlink:href="#DejaVuSans-30" x="63.623047"/>
       <use xlink:href="#DejaVuSans-30" x="127.246094"/>
      </g>
     </g>
    </g>
    <g id="xtick_4">
     <g id="line2d_4">
      <g>
       <use xlink:href="#me4734ba4ce" x="382.518293" y="308.63625" style="stroke: #000000; stroke-width: 0.8"/>
      </g>
     </g>
     <g id="text_4">
      <!-- 600 -->
      <g transform="translate(363.430793 330.833125) scale(0.2 -0.2)">
       <defs>
        <path id="DejaVuSans-36" d="M 2113 2584 
Q 1688 2584 1439 2293 
Q 1191 2003 1191 1497 
Q 1191 994 1439 701 
Q 1688 409 2113 409 
Q 2538 409 2786 701 
Q 3034 994 3034 1497 
Q 3034 2003 2786 2293 
Q 2538 2584 2113 2584 
z
M 3366 4563 
L 3366 3988 
Q 3128 4100 2886 4159 
Q 2644 4219 2406 4219 
Q 1781 4219 1451 3797 
Q 1122 3375 1075 2522 
Q 1259 2794 1537 2939 
Q 1816 3084 2150 3084 
Q 2853 3084 3261 2657 
Q 3669 2231 3669 1497 
Q 3669 778 3244 343 
Q 2819 -91 2113 -91 
Q 1303 -91 875 529 
Q 447 1150 447 2328 
Q 447 3434 972 4092 
Q 1497 4750 2381 4750 
Q 2619 4750 2861 4703 
Q 3103 4656 3366 4563 
z
" transform="scale(0.015625)"/>
       </defs>
       <use xlink:href="#DejaVuSans-36"/>
       <use xlink:href="#DejaVuSans-30" x="63.623047"/>
       <use xlink:href="#DejaVuSans-30" x="127.246094"/>
      </g>
     </g>
    </g>
    <g id="xtick_5">
     <g id="line2d_5">
      <g>
       <use xlink:href="#me4734ba4ce" x="470.739637" y="308.63625" style="stroke: #000000; stroke-width: 0.8"/>
      </g>
     </g>
     <g id="text_5">
      <!-- 800 -->
      <g transform="translate(451.652137 330.833125) scale(0.2 -0.2)">
       <defs>
        <path id="DejaVuSans-38" d="M 2034 2216 
Q 1584 2216 1326 1975 
Q 1069 1734 1069 1313 
Q 1069 891 1326 650 
Q 1584 409 2034 409 
Q 2484 409 2743 651 
Q 3003 894 3003 1313 
Q 3003 1734 2745 1975 
Q 2488 2216 2034 2216 
z
M 1403 2484 
Q 997 2584 770 2862 
Q 544 3141 544 3541 
Q 544 4100 942 4425 
Q 1341 4750 2034 4750 
Q 2731 4750 3128 4425 
Q 3525 4100 3525 3541 
Q 3525 3141 3298 2862 
Q 3072 2584 2669 2484 
Q 3125 2378 3379 2068 
Q 3634 1759 3634 1313 
Q 3634 634 3220 271 
Q 2806 -91 2034 -91 
Q 1263 -91 848 271 
Q 434 634 434 1313 
Q 434 1759 690 2068 
Q 947 2378 1403 2484 
z
M 1172 3481 
Q 1172 3119 1398 2916 
Q 1625 2713 2034 2713 
Q 2441 2713 2670 2916 
Q 2900 3119 2900 3481 
Q 2900 3844 2670 4047 
Q 2441 4250 2034 4250 
Q 1625 4250 1398 4047 
Q 1172 3844 1172 3481 
z
" transform="scale(0.015625)"/>
       </defs>
       <use xlink:href="#DejaVuSans-38"/>
       <use xlink:href="#DejaVuSans-30" x="63.623047"/>
       <use xlink:href="#DejaVuSans-30" x="127.246094"/>
      </g>
     </g>
    </g>
    <g id="xtick_6">
     <g id="line2d_6">
      <g>
       <use xlink:href="#me4734ba4ce" x="558.960981" y="308.63625" style="stroke: #000000; stroke-width: 0.8"/>
      </g>
     </g>
     <g id="text_6">
      <!-- 1000 -->
      <g transform="translate(533.510981 330.833125) scale(0.2 -0.2)">
       <defs>
        <path id="DejaVuSans-31" d="M 794 531 
L 1825 531 
L 1825 4091 
L 703 3866 
L 703 4441 
L 1819 4666 
L 2450 4666 
L 2450 531 
L 3481 531 
L 3481 0 
L 794 0 
L 794 531 
z
" transform="scale(0.015625)"/>
       </defs>
       <use xlink:href="#DejaVuSans-31"/>
       <use xlink:href="#DejaVuSans-30" x="63.623047"/>
       <use xlink:href="#DejaVuSans-30" x="127.246094"/>
       <use xlink:href="#DejaVuSans-30" x="190.869141"/>
      </g>
     </g>
    </g>
    <g id="xtick_7">
     <g id="line2d_7">
      <g>
       <use xlink:href="#me4734ba4ce" x="647.182325" y="308.63625" style="stroke: #000000; stroke-width: 0.8"/>
      </g>
     </g>
     <g id="text_7">
      <!-- 1200 -->
      <g transform="translate(621.732325 330.833125) scale(0.2 -0.2)">
       <use xlink:href="#DejaVuSans-31"/>
       <use xlink:href="#DejaVuSans-32" x="63.623047"/>
       <use xlink:href="#DejaVuSans-30" x="127.246094"/>
       <use xlink:href="#DejaVuSans-30" x="190.869141"/>
      </g>
     </g>
    </g>
    <g id="text_8">
     <!-- iterations -->
     <g transform="translate(324.035938 354.189375) scale(0.2 -0.2)">
      <defs>
       <path id="DejaVuSans-69" d="M 603 3500 
L 1178 3500 
L 1178 0 
L 603 0 
L 603 3500 
z
M 603 4863 
L 1178 4863 
L 1178 4134 
L 603 4134 
L 603 4863 
z
" transform="scale(0.015625)"/>
       <path id="DejaVuSans-74" d="M 1172 4494 
L 1172 3500 
L 2356 3500 
L 2356 3053 
L 1172 3053 
L 1172 1153 
Q 1172 725 1289 603 
Q 1406 481 1766 481 
L 2356 481 
L 2356 0 
L 1766 0 
Q 1100 0 847 248 
Q 594 497 594 1153 
L 594 3053 
L 172 3053 
L 172 3500 
L 594 3500 
L 594 4494 
L 1172 4494 
z
" transform="scale(0.015625)"/>
       <path id="DejaVuSans-65" d="M 3597 1894 
L 3597 1613 
L 953 1613 
Q 991 1019 1311 708 
Q 1631 397 2203 397 
Q 2534 397 2845 478 
Q 3156 559 3463 722 
L 3463 178 
Q 3153 47 2828 -22 
Q 2503 -91 2169 -91 
Q 1331 -91 842 396 
Q 353 884 353 1716 
Q 353 2575 817 3079 
Q 1281 3584 2069 3584 
Q 2775 3584 3186 3129 
Q 3597 2675 3597 1894 
z
M 3022 2063 
Q 3016 2534 2758 2815 
Q 2500 3097 2075 3097 
Q 1594 3097 1305 2825 
Q 1016 2553 972 2059 
L 3022 2063 
z
" transform="scale(0.015625)"/>
       <path id="DejaVuSans-72" d="M 2631 2963 
Q 2534 3019 2420 3045 
Q 2306 3072 2169 3072 
Q 1681 3072 1420 2755 
Q 1159 2438 1159 1844 
L 1159 0 
L 581 0 
L 581 3500 
L 1159 3500 
L 1159 2956 
Q 1341 3275 1631 3429 
Q 1922 3584 2338 3584 
Q 2397 3584 2469 3576 
Q 2541 3569 2628 3553 
L 2631 2963 
z
" transform="scale(0.015625)"/>
       <path id="DejaVuSans-61" d="M 2194 1759 
Q 1497 1759 1228 1600 
Q 959 1441 959 1056 
Q 959 750 1161 570 
Q 1363 391 1709 391 
Q 2188 391 2477 730 
Q 2766 1069 2766 1631 
L 2766 1759 
L 2194 1759 
z
M 3341 1997 
L 3341 0 
L 2766 0 
L 2766 531 
Q 2569 213 2275 61 
Q 1981 -91 1556 -91 
Q 1019 -91 701 211 
Q 384 513 384 1019 
Q 384 1609 779 1909 
Q 1175 2209 1959 2209 
L 2766 2209 
L 2766 2266 
Q 2766 2663 2505 2880 
Q 2244 3097 1772 3097 
Q 1472 3097 1187 3025 
Q 903 2953 641 2809 
L 641 3341 
Q 956 3463 1253 3523 
Q 1550 3584 1831 3584 
Q 2591 3584 2966 3190 
Q 3341 2797 3341 1997 
z
" transform="scale(0.015625)"/>
       <path id="DejaVuSans-6f" d="M 1959 3097 
Q 1497 3097 1228 2736 
Q 959 2375 959 1747 
Q 959 1119 1226 758 
Q 1494 397 1959 397 
Q 2419 397 2687 759 
Q 2956 1122 2956 1747 
Q 2956 2369 2687 2733 
Q 2419 3097 1959 3097 
z
M 1959 3584 
Q 2709 3584 3137 3096 
Q 3566 2609 3566 1747 
Q 3566 888 3137 398 
Q 2709 -91 1959 -91 
Q 1206 -91 779 398 
Q 353 888 353 1747 
Q 353 2609 779 3096 
Q 1206 3584 1959 3584 
z
" transform="scale(0.015625)"/>
       <path id="DejaVuSans-6e" d="M 3513 2113 
L 3513 0 
L 2938 0 
L 2938 2094 
Q 2938 2591 2744 2837 
Q 2550 3084 2163 3084 
Q 1697 3084 1428 2787 
Q 1159 2491 1159 1978 
L 1159 0 
L 581 0 
L 581 3500 
L 1159 3500 
L 1159 2956 
Q 1366 3272 1645 3428 
Q 1925 3584 2291 3584 
Q 2894 3584 3203 3211 
Q 3513 2838 3513 2113 
z
" transform="scale(0.015625)"/>
       <path id="DejaVuSans-73" d="M 2834 3397 
L 2834 2853 
Q 2591 2978 2328 3040 
Q 2066 3103 1784 3103 
Q 1356 3103 1142 2972 
Q 928 2841 928 2578 
Q 928 2378 1081 2264 
Q 1234 2150 1697 2047 
L 1894 2003 
Q 2506 1872 2764 1633 
Q 3022 1394 3022 966 
Q 3022 478 2636 193 
Q 2250 -91 1575 -91 
Q 1294 -91 989 -36 
Q 684 19 347 128 
L 347 722 
Q 666 556 975 473 
Q 1284 391 1588 391 
Q 1994 391 2212 530 
Q 2431 669 2431 922 
Q 2431 1156 2273 1281 
Q 2116 1406 1581 1522 
L 1381 1569 
Q 847 1681 609 1914 
Q 372 2147 372 2553 
Q 372 3047 722 3315 
Q 1072 3584 1716 3584 
Q 2034 3584 2315 3537 
Q 2597 3491 2834 3397 
z
" transform="scale(0.015625)"/>
      </defs>
      <use xlink:href="#DejaVuSans-69"/>
      <use xlink:href="#DejaVuSans-74" x="27.783203"/>
      <use xlink:href="#DejaVuSans-65" x="66.992188"/>
      <use xlink:href="#DejaVuSans-72" x="128.515625"/>
      <use xlink:href="#DejaVuSans-61" x="169.628906"/>
      <use xlink:href="#DejaVuSans-74" x="230.908203"/>
      <use xlink:href="#DejaVuSans-69" x="270.117188"/>
      <use xlink:href="#DejaVuSans-6f" x="297.900391"/>
      <use xlink:href="#DejaVuSans-6e" x="359.082031"/>
      <use xlink:href="#DejaVuSans-73" x="422.460938"/>
     </g>
    </g>
   </g>
   <g id="matplotlib.axis_2">
    <g id="ytick_1">
     <g id="line2d_8">
      <defs>
       <path id="mcedac7d161" d="M 0 0 
L -3.5 0 
" style="stroke: #000000; stroke-width: 0.8"/>
      </defs>
      <g>
       <use xlink:href="#mcedac7d161" x="92.490625" y="275.383624" style="stroke: #000000; stroke-width: 0.8"/>
      </g>
     </g>
     <g id="text_9">
      <!-- −300 -->
      <g transform="translate(30.55625 282.982061) scale(0.2 -0.2)">
       <defs>
        <path id="DejaVuSans-2212" d="M 678 2272 
L 4684 2272 
L 4684 1741 
L 678 1741 
L 678 2272 
z
" transform="scale(0.015625)"/>
        <path id="DejaVuSans-33" d="M 2597 2516 
Q 3050 2419 3304 2112 
Q 3559 1806 3559 1356 
Q 3559 666 3084 287 
Q 2609 -91 1734 -91 
Q 1441 -91 1130 -33 
Q 819 25 488 141 
L 488 750 
Q 750 597 1062 519 
Q 1375 441 1716 441 
Q 2309 441 2620 675 
Q 2931 909 2931 1356 
Q 2931 1769 2642 2001 
Q 2353 2234 1838 2234 
L 1294 2234 
L 1294 2753 
L 1863 2753 
Q 2328 2753 2575 2939 
Q 2822 3125 2822 3475 
Q 2822 3834 2567 4026 
Q 2313 4219 1838 4219 
Q 1578 4219 1281 4162 
Q 984 4106 628 3988 
L 628 4550 
Q 988 4650 1302 4700 
Q 1616 4750 1894 4750 
Q 2613 4750 3031 4423 
Q 3450 4097 3450 3541 
Q 3450 3153 3228 2886 
Q 3006 2619 2597 2516 
z
" transform="scale(0.015625)"/>
       </defs>
       <use xlink:href="#DejaVuSans-2212"/>
       <use xlink:href="#DejaVuSans-33" x="83.789062"/>
       <use xlink:href="#DejaVuSans-30" x="147.412109"/>
       <use xlink:href="#DejaVuSans-30" x="211.035156"/>
      </g>
     </g>
    </g>
    <g id="ytick_2">
     <g id="line2d_9">
      <g>
       <use xlink:href="#mcedac7d161" x="92.490625" y="226.548593" style="stroke: #000000; stroke-width: 0.8"/>
      </g>
     </g>
     <g id="text_10">
      <!-- −200 -->
      <g transform="translate(30.55625 234.147031) scale(0.2 -0.2)">
       <use xlink:href="#DejaVuSans-2212"/>
       <use xlink:href="#DejaVuSans-32" x="83.789062"/>
       <use xlink:href="#DejaVuSans-30" x="147.412109"/>
       <use xlink:href="#DejaVuSans-30" x="211.035156"/>
      </g>
     </g>
    </g>
    <g id="ytick_3">
     <g id="line2d_10">
      <g>
       <use xlink:href="#mcedac7d161" x="92.490625" y="177.713563" style="stroke: #000000; stroke-width: 0.8"/>
      </g>
     </g>
     <g id="text_11">
      <!-- −100 -->
      <g transform="translate(30.55625 185.312) scale(0.2 -0.2)">
       <use xlink:href="#DejaVuSans-2212"/>
       <use xlink:href="#DejaVuSans-31" x="83.789062"/>
       <use xlink:href="#DejaVuSans-30" x="147.412109"/>
       <use xlink:href="#DejaVuSans-30" x="211.035156"/>
      </g>
     </g>
    </g>
    <g id="ytick_4">
     <g id="line2d_11">
      <g>
       <use xlink:href="#mcedac7d161" x="92.490625" y="128.878533" style="stroke: #000000; stroke-width: 0.8"/>
      </g>
     </g>
     <g id="text_12">
      <!-- 0 -->
      <g transform="translate(72.765625 136.47697) scale(0.2 -0.2)">
       <use xlink:href="#DejaVuSans-30"/>
      </g>
     </g>
    </g>
    <g id="ytick_5">
     <g id="line2d_12">
      <g>
       <use xlink:href="#mcedac7d161" x="92.490625" y="80.043502" style="stroke: #000000; stroke-width: 0.8"/>
      </g>
     </g>
     <g id="text_13">
      <!-- 100 -->
      <g transform="translate(47.315625 87.64194) scale(0.2 -0.2)">
       <use xlink:href="#DejaVuSans-31"/>
       <use xlink:href="#DejaVuSans-30" x="63.623047"/>
       <use xlink:href="#DejaVuSans-30" x="127.246094"/>
      </g>
     </g>
    </g>
    <g id="text_14">
     <!-- Loss -->
     <g transform="translate(22.396875 191.970625) rotate(-90) scale(0.2 -0.2)">
      <defs>
       <path id="DejaVuSans-4c" d="M 628 4666 
L 1259 4666 
L 1259 531 
L 3531 531 
L 3531 0 
L 628 0 
L 628 4666 
z
" transform="scale(0.015625)"/>
      </defs>
      <use xlink:href="#DejaVuSans-4c"/>
      <use xlink:href="#DejaVuSans-6f" x="53.962891"/>
      <use xlink:href="#DejaVuSans-73" x="115.144531"/>
      <use xlink:href="#DejaVuSans-73" x="167.244141"/>
     </g>
    </g>
   </g>
   <g id="line2d_13">
    <path d="M 117.854261 107.143996 
L 118.295368 57.897655 
L 118.736475 62.589217 
L 119.177582 71.838444 
L 119.618688 72.058068 
L 120.059795 78.835638 
L 120.500902 48.700135 
L 120.942008 69.151889 
L 121.383115 52.930212 
L 121.824222 66.096965 
L 122.265329 66.553032 
L 122.706435 76.876548 
L 123.147542 55.497317 
L 123.588649 51.115701 
L 124.029755 44.03625 
L 124.470862 51.05182 
L 124.911969 50.556376 
L 125.353076 47.220406 
L 125.794182 48.866878 
L 126.235289 59.287779 
L 126.676396 53.814842 
L 127.558609 75.333709 
L 127.999716 66.979208 
L 128.440823 67.998484 
L 129.323036 56.908396 
L 129.764143 56.25427 
L 130.20525 62.683745 
L 130.646356 62.834119 
L 131.087463 61.864756 
L 131.52857 59.659047 
L 131.969676 66.219703 
L 132.410783 64.707216 
L 132.85189 63.601624 
L 133.292997 67.449061 
L 133.734103 60.970884 
L 134.17521 60.75248 
L 134.616317 63.60389 
L 135.939637 58.813955 
L 136.380744 67.023484 
L 136.82185 68.229069 
L 137.262957 64.692444 
L 137.704064 67.37511 
L 138.14517 70.902459 
L 138.586277 69.795967 
L 139.027384 74.728848 
L 139.468491 76.321566 
L 139.909597 77.42436 
L 140.350704 83.33243 
L 140.791811 83.696863 
L 141.232917 81.139497 
L 141.674024 84.503779 
L 142.115131 82.653976 
L 142.556238 83.971179 
L 142.997344 83.117448 
L 143.438451 92.629959 
L 143.879558 90.330475 
L 144.320665 92.275981 
L 144.761771 90.397232 
L 145.202878 85.023339 
L 146.085091 91.154721 
L 146.526198 90.441416 
L 146.967305 93.864369 
L 147.408412 94.436591 
L 147.849518 92.705835 
L 148.290625 92.095729 
L 148.731732 93.933289 
L 149.172838 93.130061 
L 149.613945 96.57687 
L 150.055052 96.221721 
L 150.496159 97.915892 
L 150.937265 97.105258 
L 151.378372 96.027037 
L 151.819479 98.865555 
L 152.260585 98.462802 
L 152.701692 99.901126 
L 153.142799 98.010141 
L 153.583906 96.744706 
L 154.025012 101.116059 
L 154.466119 101.463043 
L 154.907226 99.407777 
L 155.348333 99.079392 
L 155.789439 101.748936 
L 156.230546 96.373721 
L 156.671653 98.877538 
L 157.112759 98.64235 
L 157.553866 101.755311 
L 157.994973 100.498503 
L 158.43608 100.197472 
L 158.877186 101.359065 
L 159.318293 103.278208 
L 159.7594 101.968927 
L 160.200506 102.623733 
L 160.641613 105.687596 
L 161.08272 105.591574 
L 161.523827 105.222651 
L 161.964933 105.442727 
L 162.40604 105.435291 
L 162.847147 106.080857 
L 163.288253 104.933541 
L 164.170467 105.439361 
L 164.611574 104.112317 
L 165.05268 107.187193 
L 165.493787 105.623654 
L 165.934894 108.334138 
L 166.376 109.120913 
L 166.817107 108.514233 
L 167.258214 108.621994 
L 167.699321 110.088807 
L 168.140427 107.799802 
L 168.581534 110.200852 
L 169.022641 107.412463 
L 169.463748 110.288919 
L 169.904854 110.331991 
L 170.345961 109.867902 
L 170.787068 112.363599 
L 171.228174 111.384776 
L 171.669281 112.310107 
L 172.110388 111.154051 
L 172.551495 111.986557 
L 172.992601 111.672193 
L 173.433708 113.862704 
L 173.874815 113.19168 
L 174.315921 114.015056 
L 174.757028 115.817951 
L 175.198135 115.191117 
L 175.639242 113.570448 
L 176.080348 114.281939 
L 176.521455 113.887923 
L 176.962562 115.180849 
L 177.403668 113.979114 
L 177.844775 113.208098 
L 178.285882 113.576696 
L 178.726989 112.998 
L 179.168095 113.869487 
L 180.050309 111.773753 
L 180.491416 114.315421 
L 180.932522 114.651964 
L 181.373629 113.95065 
L 181.814736 111.565328 
L 182.255842 113.268465 
L 182.696949 113.723887 
L 183.138056 116.218163 
L 183.579163 116.482947 
L 184.461376 116.223465 
L 184.902483 115.955427 
L 185.784696 116.043666 
L 186.225803 115.516151 
L 186.66691 115.237095 
L 187.108016 115.526654 
L 187.549123 116.500384 
L 187.99023 115.701997 
L 188.431336 115.514227 
L 188.872443 116.566719 
L 189.754657 113.033838 
L 190.195763 117.386173 
L 190.63687 115.030196 
L 191.077977 116.114283 
L 191.96019 116.685988 
L 192.401297 116.285479 
L 192.842404 116.383238 
L 193.28351 117.809727 
L 193.724617 116.247651 
L 194.606831 117.118397 
L 195.047937 116.978864 
L 195.489044 116.266156 
L 195.930151 116.828591 
L 196.371257 115.704825 
L 196.812364 117.848933 
L 197.253471 117.516695 
L 197.694578 118.217987 
L 198.135684 117.790735 
L 198.576791 117.613888 
L 199.017898 117.925882 
L 199.459004 116.471722 
L 199.900111 116.633613 
L 200.341218 116.587235 
L 200.782325 118.686857 
L 201.223431 117.391465 
L 201.664538 116.579879 
L 202.105645 116.951022 
L 202.546751 118.058637 
L 203.428965 116.99867 
L 203.870072 118.228131 
L 204.311178 118.162169 
L 204.752285 117.314565 
L 205.193392 117.584009 
L 205.634499 116.539411 
L 206.075605 116.131323 
L 206.516712 116.251882 
L 206.957819 117.751235 
L 207.398925 118.780418 
L 207.840032 117.675981 
L 208.281139 117.951128 
L 208.722246 117.44087 
L 209.163352 118.886704 
L 209.604459 119.55603 
L 210.045566 119.246623 
L 210.486672 118.79163 
L 211.368886 118.79812 
L 211.809993 117.778909 
L 212.251099 118.844346 
L 212.692206 119.614259 
L 213.133313 119.138963 
L 213.574419 117.891263 
L 214.015526 118.490706 
L 214.89774 118.425521 
L 215.338846 118.760239 
L 215.779953 117.305008 
L 216.22106 116.889487 
L 216.662167 118.018663 
L 217.103273 117.121134 
L 217.54438 117.851503 
L 217.985487 119.094316 
L 218.426593 118.676769 
L 218.8677 119.082107 
L 219.308807 118.623146 
L 219.749914 117.768881 
L 220.632127 118.825413 
L 221.073234 118.2673 
L 221.51434 119.092046 
L 221.955447 118.887891 
L 222.396554 118.195138 
L 222.837661 118.752301 
L 223.278767 118.149038 
L 223.719874 118.431451 
L 224.160981 119.302395 
L 225.043194 118.081396 
L 225.484301 119.076726 
L 225.925408 120.398914 
L 226.366514 118.94 
L 226.807621 119.590047 
L 227.689834 118.686176 
L 228.130941 119.379729 
L 228.572048 119.397097 
L 229.013155 119.043407 
L 229.454261 119.561633 
L 230.336475 118.768141 
L 231.218688 118.335123 
L 232.100902 119.719201 
L 232.542008 119.506408 
L 232.983115 120.306386 
L 233.424222 119.454758 
L 233.865329 119.946772 
L 234.306435 119.823493 
L 234.747542 120.35784 
L 235.629755 120.023433 
L 236.070862 121.096725 
L 236.511969 120.173311 
L 236.953076 119.595591 
L 237.394182 119.661148 
L 237.835289 120.087533 
L 238.276396 119.862036 
L 238.717502 120.239391 
L 239.158609 120.83174 
L 239.599716 119.818343 
L 240.040823 119.496576 
L 240.481929 120.018282 
L 240.923036 119.449078 
L 241.364143 119.43946 
L 241.80525 121.084304 
L 242.246356 120.896631 
L 242.687463 119.88671 
L 243.12857 121.115615 
L 243.569676 121.079473 
L 244.010783 120.582263 
L 244.45189 121.267944 
L 244.892997 118.883221 
L 245.334103 119.745675 
L 245.77521 121.08311 
L 246.216317 120.034706 
L 246.657423 120.5562 
L 247.09853 120.845277 
L 247.539637 120.157877 
L 247.980744 121.521667 
L 248.862957 121.102262 
L 249.304064 120.238156 
L 249.74517 121.339193 
L 250.186277 120.199512 
L 250.627384 121.283286 
L 251.068491 121.328363 
L 251.509597 121.090805 
L 251.950704 121.248682 
L 252.391811 121.526801 
L 252.832917 121.493453 
L 253.274024 121.636812 
L 253.715131 121.077947 
L 254.156238 121.476202 
L 254.597344 121.201237 
L 255.038451 121.400379 
L 255.920665 122.001312 
L 256.361771 122.243346 
L 256.802878 121.400922 
L 257.243985 121.35934 
L 257.685091 121.848311 
L 258.567305 122.28045 
L 259.008412 122.622874 
L 259.449518 122.336203 
L 259.890625 121.806722 
L 260.331732 122.501442 
L 261.655052 122.077469 
L 262.096159 122.280026 
L 262.537265 122.860493 
L 263.419479 122.665896 
L 263.860585 122.895017 
L 264.301692 122.338507 
L 265.183906 122.451576 
L 266.066119 121.707988 
L 266.507226 122.859794 
L 266.948333 122.667835 
L 267.830546 123.603367 
L 268.271653 123.089229 
L 268.712759 122.382557 
L 269.153866 122.72702 
L 269.594973 123.601962 
L 270.03608 123.963273 
L 270.477186 123.736112 
L 270.918293 123.857175 
L 271.3594 122.995332 
L 271.800506 123.003966 
L 272.241613 123.310766 
L 272.68272 122.64072 
L 273.564933 124.149156 
L 274.447147 124.441286 
L 274.888253 123.90084 
L 275.32936 124.299631 
L 275.770467 124.292514 
L 276.211574 124.465209 
L 277.093787 124.244183 
L 277.534894 124.511954 
L 277.976 123.637802 
L 278.417107 124.307783 
L 279.299321 124.127827 
L 279.740427 123.726083 
L 280.622641 123.724214 
L 281.063748 124.74 
L 281.504854 124.949683 
L 281.945961 123.838682 
L 282.387068 123.885097 
L 282.828174 124.16535 
L 283.269281 124.699011 
L 283.710388 124.508582 
L 284.151495 125.245366 
L 285.033708 124.571209 
L 285.474815 125.131734 
L 285.915921 125.363722 
L 286.798135 125.050739 
L 287.239242 125.055236 
L 287.680348 125.719419 
L 288.121455 125.032975 
L 288.562562 125.356857 
L 289.003668 124.376778 
L 289.444775 125.585305 
L 289.885882 125.55837 
L 290.326989 126.362388 
L 290.768095 125.94994 
L 291.209202 126.090182 
L 291.650309 125.831119 
L 292.973629 125.499097 
L 293.414736 125.888574 
L 293.855842 125.332861 
L 294.296949 125.287222 
L 294.738056 125.851303 
L 295.179163 124.967126 
L 296.061376 124.594401 
L 296.502483 125.561248 
L 296.943589 125.775176 
L 297.384696 125.727656 
L 297.825803 125.336836 
L 298.26691 125.301675 
L 298.708016 125.451579 
L 299.59023 124.365278 
L 300.031336 125.077519 
L 300.472443 124.378871 
L 300.91355 125.538634 
L 301.354657 125.434654 
L 301.795763 125.647375 
L 302.23687 125.990991 
L 302.677977 126.135326 
L 303.119083 125.767461 
L 303.56019 125.845781 
L 304.88351 125.635223 
L 305.324617 125.766875 
L 305.765724 125.191649 
L 306.206831 125.427896 
L 306.647937 125.349871 
L 307.089044 125.789513 
L 307.530151 125.161249 
L 308.412364 125.094227 
L 308.853471 124.689431 
L 309.294578 125.550149 
L 309.735684 124.966956 
L 310.176791 125.69994 
L 310.617898 125.228714 
L 311.059004 125.309919 
L 311.500111 125.213436 
L 311.941218 125.708024 
L 312.382325 125.588056 
L 312.823431 125.288172 
L 313.264538 126.054596 
L 313.705645 125.552537 
L 314.146751 125.544268 
L 314.587858 126.226752 
L 315.028965 125.488179 
L 315.470072 125.763466 
L 315.911178 126.171901 
L 316.352285 125.513511 
L 316.793392 125.794149 
L 317.234499 125.658881 
L 317.675605 126.502453 
L 318.116712 126.525528 
L 318.557819 126.031675 
L 318.998925 126.090373 
L 319.440032 125.781718 
L 319.881139 125.779334 
L 320.322246 125.889086 
L 321.645566 126.961614 
L 322.086672 126.142468 
L 322.968886 126.914565 
L 323.409993 126.207148 
L 324.292206 126.59136 
L 324.733313 126.02833 
L 325.615526 126.177766 
L 326.056633 125.841597 
L 326.49774 125.92563 
L 326.938846 125.752012 
L 327.379953 126.261588 
L 327.82106 126.077602 
L 328.262167 126.604134 
L 328.703273 126.23771 
L 329.14438 126.861873 
L 329.585487 126.203507 
L 330.026593 126.376087 
L 330.908807 127.224808 
L 331.349914 126.901074 
L 331.79102 126.415117 
L 332.232127 126.696078 
L 332.673234 127.224358 
L 333.555447 126.999313 
L 333.996554 127.609103 
L 334.437661 127.060794 
L 334.878767 127.279437 
L 335.319874 127.929773 
L 335.760981 127.681504 
L 336.202087 126.765478 
L 336.643194 127.210413 
L 337.084301 128.074752 
L 337.525408 127.983863 
L 338.407621 127.600631 
L 338.848728 127.585221 
L 339.289834 127.371201 
L 339.730941 128.154938 
L 341.054261 127.58216 
L 342.377582 128.134644 
L 342.818688 127.549762 
L 343.259795 128.180398 
L 343.700902 128.32243 
L 344.142008 128.220869 
L 344.583115 127.773186 
L 345.024222 128.274126 
L 345.465329 128.375967 
L 346.788649 128.272506 
L 347.670862 127.626651 
L 348.111969 127.882218 
L 348.553076 128.622262 
L 348.994182 128.624273 
L 349.435289 128.380195 
L 350.758609 127.226119 
L 351.199716 127.475618 
L 351.640823 127.335648 
L 352.081929 127.884496 
L 352.964143 128.029227 
L 353.40525 127.075883 
L 353.846356 127.338533 
L 354.287463 128.281584 
L 354.72857 128.207444 
L 355.169676 127.372999 
L 355.610783 127.572064 
L 356.05189 127.077766 
L 356.934103 128.311318 
L 357.37521 128.307992 
L 358.257423 127.580508 
L 358.69853 126.764973 
L 359.139637 127.734314 
L 359.580744 126.768116 
L 360.02185 126.896653 
L 360.462957 126.813981 
L 360.904064 127.304233 
L 361.34517 127.431338 
L 361.786277 126.937992 
L 362.227384 126.795393 
L 362.668491 127.407002 
L 363.550704 127.013732 
L 363.991811 127.122365 
L 364.432917 128.153388 
L 364.874024 126.857992 
L 365.315131 127.826451 
L 365.756238 127.222345 
L 366.197344 127.428328 
L 366.638451 126.994658 
L 367.079558 127.659318 
L 367.520665 126.673171 
L 367.961771 127.574447 
L 368.402878 127.432291 
L 368.843985 128.323104 
L 369.285091 128.007326 
L 369.726198 127.952391 
L 370.167305 127.181402 
L 370.608412 128.105599 
L 371.049518 127.729914 
L 371.490625 128.242449 
L 371.931732 128.175044 
L 372.372838 127.805558 
L 372.813945 128.141651 
L 373.255052 128.10651 
L 373.696159 128.312509 
L 374.137265 127.661634 
L 375.019479 128.423643 
L 375.460585 128.112519 
L 375.901692 128.424213 
L 376.783906 128.212217 
L 377.225012 128.250398 
L 377.666119 127.226366 
L 378.107226 127.538592 
L 378.548333 128.460846 
L 378.989439 128.842332 
L 379.430546 128.382478 
L 379.871653 128.311378 
L 380.312759 129.098682 
L 381.194973 128.93048 
L 382.077186 129.345805 
L 382.518293 129.571246 
L 382.9594 129.133117 
L 383.400506 128.924347 
L 383.841613 129.6165 
L 384.723827 128.979247 
L 385.164933 129.156974 
L 385.60604 128.539898 
L 386.488253 129.568516 
L 386.92936 128.962134 
L 387.370467 128.878142 
L 387.811574 129.052093 
L 388.25268 128.657464 
L 388.693787 128.693572 
L 389.134894 129.237439 
L 389.576 129.440119 
L 390.017107 128.315439 
L 390.458214 129.084725 
L 390.899321 129.259416 
L 391.340427 129.020508 
L 392.663748 129.65396 
L 393.104854 129.759707 
L 393.545961 129.736929 
L 393.987068 129.989611 
L 394.428174 130.095301 
L 395.751495 129.332092 
L 396.192601 129.546395 
L 396.633708 129.575164 
L 397.074815 129.787767 
L 397.515921 129.783134 
L 398.398135 130.133199 
L 399.280348 129.863755 
L 399.721455 130.226971 
L 400.162562 129.521859 
L 400.603668 129.919794 
L 401.044775 129.266993 
L 401.485882 130.362737 
L 401.926989 129.671953 
L 402.368095 130.100109 
L 402.809202 130.124111 
L 403.250309 130.386335 
L 403.691416 130.077366 
L 404.132522 130.468662 
L 404.573629 130.247035 
L 405.014736 130.502511 
L 405.455842 129.622565 
L 405.896949 130.044121 
L 406.338056 129.637852 
L 406.779163 129.852127 
L 407.220269 129.820835 
L 407.661376 130.095071 
L 408.102483 129.915606 
L 408.543589 130.056417 
L 409.425803 129.681197 
L 409.86691 129.462623 
L 410.308016 129.722866 
L 410.749123 129.678706 
L 411.19023 129.344987 
L 411.631336 129.697922 
L 412.072443 129.556763 
L 412.51355 129.590645 
L 412.954657 129.844723 
L 413.395763 129.945158 
L 413.83687 129.664395 
L 414.277977 130.114712 
L 414.719083 129.91082 
L 415.16019 130.040111 
L 415.601297 129.634323 
L 416.042404 130.2478 
L 416.48351 129.693251 
L 416.924617 129.574529 
L 417.365724 128.501651 
L 417.806831 129.833853 
L 418.247937 129.795103 
L 419.571257 130.259546 
L 420.012364 129.709199 
L 420.453471 130.61436 
L 420.894578 129.822597 
L 421.335684 130.118296 
L 421.776791 129.588654 
L 422.217898 130.485866 
L 422.659004 129.886924 
L 423.982325 130.319328 
L 424.423431 129.869323 
L 424.864538 130.428421 
L 425.746751 129.777697 
L 426.187858 130.069704 
L 426.628965 129.903047 
L 427.070072 130.419247 
L 427.511178 130.241578 
L 427.952285 130.275795 
L 428.393392 130.005742 
L 428.834499 129.965241 
L 430.157819 130.486054 
L 430.598925 130.162824 
L 431.040032 130.53959 
L 431.481139 130.735584 
L 431.922246 130.176004 
L 432.804459 130.229223 
L 433.245566 130.476132 
L 433.686672 130.424463 
L 434.127779 129.924593 
L 435.009993 130.363919 
L 435.892206 130.355589 
L 436.333313 130.739932 
L 436.774419 130.694598 
L 437.215526 130.334052 
L 437.656633 129.444201 
L 438.979953 130.348248 
L 439.42106 130.020741 
L 439.862167 129.961073 
L 440.303273 130.082845 
L 440.74438 130.397618 
L 441.185487 129.982875 
L 441.626593 130.561671 
L 442.0677 130.213164 
L 442.508807 130.604929 
L 442.949914 131.294337 
L 443.39102 130.740751 
L 443.832127 130.589133 
L 444.273234 130.822809 
L 444.71434 130.283417 
L 445.155447 130.68735 
L 445.596554 130.50424 
L 446.037661 129.904625 
L 446.478767 130.646921 
L 447.360981 129.985194 
L 447.802087 129.977035 
L 448.243194 130.223887 
L 448.684301 130.193264 
L 449.125408 129.997993 
L 449.566514 130.135833 
L 450.007621 130.397035 
L 450.889834 130.167881 
L 451.772048 130.305398 
L 452.213155 130.505332 
L 452.654261 130.181581 
L 453.095368 130.489115 
L 453.977582 130.091959 
L 454.418688 129.265459 
L 454.859795 129.368122 
L 455.300902 129.748727 
L 455.742008 129.728249 
L 456.183115 129.272479 
L 456.624222 129.345508 
L 457.065329 129.594932 
L 457.506435 129.031852 
L 458.388649 130.163698 
L 458.829755 130.015808 
L 459.270862 130.398374 
L 459.711969 130.497082 
L 460.153076 130.284284 
L 460.594182 129.895821 
L 461.035289 129.95164 
L 461.476396 130.228593 
L 461.917502 129.924436 
L 462.358609 129.945637 
L 462.799716 129.703161 
L 463.240823 129.928617 
L 463.681929 129.874596 
L 464.123036 129.065751 
L 464.564143 129.610412 
L 465.00525 129.641082 
L 465.446356 130.025137 
L 465.887463 129.282538 
L 466.32857 129.887531 
L 466.769676 129.134435 
L 467.210783 129.5941 
L 467.65189 129.310474 
L 468.092997 129.619078 
L 468.97521 129.876 
L 469.857423 129.413999 
L 470.29853 129.846728 
L 470.739637 129.839309 
L 471.180744 129.532719 
L 471.62185 129.929045 
L 472.062957 129.81411 
L 472.504064 129.001903 
L 473.386277 129.802867 
L 473.827384 129.036354 
L 474.268491 129.566592 
L 474.709597 128.963836 
L 475.150704 129.210057 
L 475.591811 129.202111 
L 476.032917 128.938855 
L 476.474024 128.992754 
L 476.915131 129.552311 
L 477.356238 129.595012 
L 477.797344 129.500006 
L 478.238451 129.81267 
L 478.679558 129.091221 
L 479.120665 129.534045 
L 479.561771 129.779661 
L 480.002878 129.192974 
L 480.443985 129.568089 
L 480.885091 129.663963 
L 481.326198 129.337801 
L 481.767305 129.403436 
L 482.208412 129.2691 
L 482.649518 129.505534 
L 483.531732 129.271972 
L 483.972838 128.770547 
L 484.413945 129.282876 
L 484.855052 128.817693 
L 485.296159 129.648637 
L 486.178372 129.777384 
L 486.619479 129.827788 
L 487.060585 129.643045 
L 487.501692 129.849396 
L 487.942799 129.708486 
L 488.383906 129.771251 
L 488.825012 129.565484 
L 489.266119 130.118856 
L 489.707226 130.012593 
L 490.148333 129.504526 
L 490.589439 129.831151 
L 491.030546 130.334078 
L 491.471653 129.457748 
L 491.912759 129.939677 
L 492.353866 129.908597 
L 492.794973 129.673478 
L 493.23608 129.825302 
L 493.677186 129.424542 
L 494.118293 130.086837 
L 494.5594 129.326513 
L 495.000506 129.394737 
L 495.88272 130.025031 
L 496.323827 129.457657 
L 496.764933 129.465405 
L 497.20604 128.855817 
L 498.088253 129.675592 
L 498.52936 129.273101 
L 498.970467 129.699137 
L 500.293787 129.275913 
L 500.734894 129.060016 
L 501.176 129.018594 
L 501.617107 129.602737 
L 502.058214 129.918736 
L 502.499321 129.743232 
L 502.940427 129.039499 
L 503.381534 129.410146 
L 503.822641 129.372393 
L 504.263748 129.181139 
L 504.704854 129.177771 
L 505.145961 129.014223 
L 505.587068 129.492857 
L 506.028174 128.96327 
L 506.469281 129.274704 
L 507.351495 129.293524 
L 507.792601 129.699108 
L 508.233708 129.333775 
L 508.674815 129.364506 
L 509.115921 129.227237 
L 509.998135 129.937171 
L 510.439242 129.694828 
L 510.880348 130.339109 
L 511.321455 130.202544 
L 511.762562 129.356784 
L 512.203668 130.455383 
L 512.644775 129.527187 
L 513.085882 128.905974 
L 513.526989 129.542912 
L 513.968095 129.139699 
L 514.409202 129.622053 
L 514.850309 129.102166 
L 515.291416 129.624722 
L 515.732522 129.29776 
L 516.173629 129.665699 
L 516.614736 129.234349 
L 517.496949 129.9291 
L 518.379163 129.623833 
L 519.261376 129.901507 
L 519.702483 129.783073 
L 520.584696 130.009547 
L 521.025803 129.779832 
L 521.46691 129.397797 
L 521.908016 129.898398 
L 522.79023 129.799989 
L 523.231336 130.19684 
L 523.672443 129.902221 
L 524.11355 130.106436 
L 524.554657 129.724585 
L 525.43687 130.254489 
L 525.877977 129.517266 
L 526.319083 130.249029 
L 526.76019 129.543914 
L 527.201297 129.596553 
L 527.642404 129.270234 
L 528.524617 129.248627 
L 529.406831 129.526264 
L 530.289044 129.563824 
L 530.730151 129.311416 
L 531.612364 129.2001 
L 532.053471 129.41512 
L 532.494578 130.050375 
L 532.935684 129.880463 
L 533.817898 129.140209 
L 534.259004 129.622756 
L 534.700111 129.33362 
L 535.141218 129.694871 
L 535.582325 128.930139 
L 536.023431 129.217149 
L 536.905645 129.404956 
L 537.346751 129.136685 
L 537.787858 130.160433 
L 538.228965 129.430545 
L 538.670072 129.717037 
L 539.111178 129.120133 
L 539.552285 129.5394 
L 540.434499 129.265994 
L 540.875605 129.492653 
L 541.316712 130.105262 
L 541.757819 128.873867 
L 542.640032 129.19581 
L 543.081139 128.567282 
L 543.522246 129.009785 
L 543.963352 128.841077 
L 544.404459 129.666749 
L 544.845566 129.075663 
L 545.286672 129.469776 
L 545.727779 129.376064 
L 546.168886 129.002378 
L 546.609993 129.031508 
L 547.492206 128.839035 
L 547.933313 128.245778 
L 548.374419 128.814183 
L 548.815526 128.826568 
L 549.256633 128.56749 
L 549.69774 128.927847 
L 550.138846 129.097931 
L 550.579953 128.994362 
L 551.02106 129.273158 
L 551.462167 128.838646 
L 551.903273 128.999002 
L 552.34438 128.377869 
L 552.785487 128.440455 
L 553.226593 129.010179 
L 553.6677 128.580631 
L 554.108807 129.050767 
L 554.549914 128.845646 
L 554.99102 129.086807 
L 555.873234 129.15741 
L 556.31434 129.5106 
L 556.755447 128.575541 
L 557.637661 128.760225 
L 558.078767 129.086237 
L 558.960981 128.731246 
L 559.843194 129.323534 
L 560.284301 128.882291 
L 560.725408 129.199844 
L 561.166514 129.260641 
L 561.607621 129.715386 
L 562.048728 129.606151 
L 562.489834 129.301528 
L 562.930941 129.802307 
L 563.372048 129.950324 
L 563.813155 129.699864 
L 564.254261 129.874097 
L 564.695368 129.799927 
L 565.136475 130.122401 
L 565.577582 130.100335 
L 566.018688 129.822963 
L 567.342008 129.595272 
L 567.783115 129.9061 
L 568.665329 130.102403 
L 569.106435 129.877028 
L 569.547542 129.822044 
L 569.988649 130.242333 
L 570.429755 129.830423 
L 571.311969 129.706848 
L 571.753076 130.056645 
L 572.635289 129.658311 
L 573.076396 129.922129 
L 573.517502 129.511503 
L 573.958609 129.799767 
L 574.840823 129.697311 
L 575.281929 129.698124 
L 575.723036 130.046745 
L 576.164143 129.713902 
L 576.60525 129.811349 
L 577.046356 130.063575 
L 577.487463 129.193286 
L 577.92857 129.724635 
L 578.369676 129.657031 
L 578.810783 129.248464 
L 579.25189 129.568345 
L 579.692997 129.219842 
L 580.134103 129.909134 
L 580.57521 129.257718 
L 581.016317 129.274771 
L 581.457423 129.128446 
L 581.89853 129.49554 
L 582.339637 129.473543 
L 582.780744 129.575969 
L 583.662957 129.300355 
L 584.104064 129.008837 
L 584.54517 128.870192 
L 585.427384 129.004234 
L 585.868491 128.737137 
L 586.309597 129.50202 
L 586.750704 129.2725 
L 587.191811 129.694257 
L 588.074024 129.29811 
L 588.515131 129.580447 
L 588.956238 129.122254 
L 589.397344 129.78399 
L 589.838451 129.300112 
L 590.279558 129.313821 
L 590.720665 128.890595 
L 591.161771 129.019493 
L 591.602878 129.438576 
L 592.043985 129.237903 
L 592.485091 129.726783 
L 592.926198 128.955365 
L 593.367305 129.385717 
L 593.808412 129.172345 
L 594.249518 129.462424 
L 595.131732 128.807651 
L 595.572838 129.433521 
L 596.013945 129.657752 
L 596.455052 129.521103 
L 596.896159 129.649701 
L 597.337265 130.221773 
L 598.219479 129.944898 
L 598.660585 129.565189 
L 599.101692 129.363485 
L 599.542799 129.732546 
L 599.983906 129.706345 
L 600.425012 130.18155 
L 600.866119 129.130463 
L 601.307226 129.499494 
L 602.189439 129.123866 
L 602.630546 129.637462 
L 603.071653 129.442032 
L 603.512759 129.511014 
L 604.394973 129.058644 
L 604.83608 129.60906 
L 605.718293 129.497795 
L 606.1594 129.797556 
L 606.600506 129.384087 
L 607.041613 129.356319 
L 607.48272 129.781112 
L 608.80604 129.27109 
L 609.247147 129.065377 
L 610.12936 128.984457 
L 610.570467 129.062661 
L 611.011574 128.85382 
L 611.45268 129.446803 
L 611.893787 128.935977 
L 612.334894 129.123099 
L 612.776 129.496972 
L 613.217107 129.571477 
L 613.658214 129.448486 
L 614.099321 129.524786 
L 614.540427 129.226414 
L 614.981534 129.211072 
L 615.422641 128.875025 
L 616.304854 128.952538 
L 616.745961 129.462962 
L 617.628174 128.496338 
L 618.069281 129.54042 
L 618.951495 128.991579 
L 619.392601 129.523479 
L 619.833708 129.606585 
L 620.274815 129.064465 
L 621.157028 129.514023 
L 621.598135 129.579943 
L 622.039242 129.492179 
L 622.480348 129.261606 
L 622.921455 129.510614 
L 623.362562 129.445875 
L 623.803668 129.803308 
L 624.244775 129.184501 
L 624.685882 129.379273 
L 625.126989 129.355883 
L 625.126989 129.355883 
" clip-path="url(#p908f0cd6fa)" style="fill: none; stroke: #1f77b4; stroke-width: 1.5; stroke-linecap: square"/>
   </g>
   <g id="line2d_14">
    <path d="M 117.854261 296.03625 
L 118.295368 245.888602 
L 118.736475 214.115786 
L 119.177582 230.211874 
L 119.618688 218.599268 
L 120.059795 201.279694 
L 120.500902 204.535087 
L 120.942008 177.439579 
L 121.383115 178.201539 
L 121.824222 178.387096 
L 122.265329 192.048813 
L 122.706435 174.811641 
L 123.147542 173.893449 
L 123.588649 172.251017 
L 124.029755 166.690114 
L 124.470862 165.151511 
L 124.911969 167.933912 
L 125.353076 161.328426 
L 125.794182 164.204354 
L 126.235289 153.408818 
L 126.676396 156.496962 
L 127.558609 141.56019 
L 127.999716 150.693481 
L 128.440823 143.469704 
L 128.881929 147.780062 
L 129.323036 149.479849 
L 129.764143 140.208749 
L 130.20525 138.160794 
L 130.646356 138.65618 
L 131.087463 140.776186 
L 131.52857 140.215124 
L 131.969676 138.391512 
L 132.410783 140.082936 
L 132.85189 140.228622 
L 133.734103 141.201404 
L 134.17521 139.392105 
L 134.616317 138.851676 
L 135.057423 139.384558 
L 135.49853 140.740816 
L 135.939637 142.600893 
L 136.380744 135.421926 
L 136.82185 138.496197 
L 137.262957 137.892038 
L 138.14517 136.234525 
L 138.586277 136.311622 
L 139.027384 135.915689 
L 139.468491 136.605064 
L 139.909597 134.887215 
L 140.350704 133.797282 
L 141.232917 135.471295 
L 141.674024 135.576047 
L 142.556238 136.853589 
L 142.997344 136.368541 
L 143.438451 134.730041 
L 143.879558 135.079856 
L 144.320665 134.857729 
L 144.761771 135.928269 
L 145.202878 135.902864 
L 145.643985 135.479767 
L 146.085091 136.290746 
L 146.526198 135.345801 
L 147.408412 134.136329 
L 147.849518 135.905185 
L 148.290625 134.292529 
L 148.731732 133.586184 
L 149.172838 134.703917 
L 149.613945 134.803726 
L 150.055052 133.847583 
L 150.496159 133.400648 
L 150.937265 134.508056 
L 151.378372 134.677574 
L 151.819479 133.207451 
L 152.260585 133.966004 
L 152.701692 133.320137 
L 153.142799 133.888563 
L 153.583906 133.800353 
L 154.025012 134.327242 
L 154.466119 133.302039 
L 154.907226 133.276394 
L 156.230546 133.938771 
L 156.671653 134.482109 
L 157.112759 133.800864 
L 157.553866 133.419586 
L 157.994973 133.970658 
L 158.877186 133.536974 
L 159.318293 133.03475 
L 159.7594 132.734868 
L 160.200506 133.151006 
L 160.641613 133.268245 
L 161.08272 133.664162 
L 161.523827 132.938008 
L 161.964933 133.474141 
L 162.40604 133.107742 
L 162.847147 133.13171 
L 163.288253 133.333721 
L 163.72936 133.905861 
L 164.170467 133.8752 
L 164.611574 133.058296 
L 165.05268 132.906614 
L 165.493787 133.401837 
L 165.934894 132.611227 
L 166.817107 133.527885 
L 167.258214 132.677103 
L 167.699321 133.470667 
L 168.140427 133.101942 
L 168.581534 132.407692 
L 169.022641 132.923927 
L 169.904854 133.133008 
L 170.345961 132.127532 
L 170.787068 132.148788 
L 171.228174 132.723923 
L 171.669281 132.550499 
L 172.110388 132.696816 
L 172.992601 132.730674 
L 173.433708 132.97607 
L 174.315921 131.981124 
L 174.757028 132.270329 
L 175.198135 132.740458 
L 175.639242 132.811208 
L 176.080348 133.022354 
L 176.521455 132.379132 
L 176.962562 132.85824 
L 177.403668 132.55696 
L 177.844775 132.710993 
L 178.726989 132.46765 
L 179.609202 132.807079 
L 180.050309 132.556555 
L 180.491416 132.440168 
L 180.932522 132.202275 
L 181.373629 132.521364 
L 181.814736 133.040405 
L 182.255842 132.525261 
L 182.696949 132.330627 
L 183.138056 131.793893 
L 183.579163 132.032172 
L 184.020269 131.869341 
L 184.461376 131.536319 
L 184.902483 131.891923 
L 185.343589 131.570927 
L 185.784696 132.110183 
L 186.225803 132.442361 
L 186.66691 132.353453 
L 187.108016 131.994056 
L 187.549123 132.252207 
L 187.99023 132.03052 
L 188.431336 132.59314 
L 188.872443 132.12911 
L 189.31355 133.529531 
L 189.754657 132.898776 
L 190.195763 131.845893 
L 190.63687 132.623624 
L 191.077977 132.22945 
L 191.519083 132.143768 
L 191.96019 132.356335 
L 192.401297 131.998474 
L 192.842404 132.373811 
L 193.28351 132.069205 
L 193.724617 132.132424 
L 194.165724 132.017815 
L 194.606831 132.31129 
L 195.047937 132.154329 
L 195.489044 132.182232 
L 195.930151 132.54397 
L 196.371257 132.546299 
L 196.812364 132.055983 
L 197.253471 132.3148 
L 197.694578 131.939997 
L 198.576791 132.088832 
L 199.017898 132.0281 
L 199.459004 132.726062 
L 199.900111 132.686055 
L 200.341218 132.429676 
L 200.782325 131.888833 
L 201.223431 132.689105 
L 201.664538 131.980631 
L 202.546751 132.405713 
L 202.987858 132.911299 
L 203.428965 132.242697 
L 204.752285 133.309819 
L 205.193392 132.617213 
L 205.634499 132.793237 
L 206.075605 133.184172 
L 206.516712 132.898692 
L 206.957819 132.476888 
L 207.840032 132.775752 
L 208.281139 132.19803 
L 208.722246 133.001959 
L 209.163352 132.551494 
L 209.604459 132.281968 
L 210.045566 132.615187 
L 210.486672 132.264056 
L 210.927779 132.511456 
L 211.368886 132.562455 
L 211.809993 132.196387 
L 212.692206 132.509296 
L 213.133313 132.625033 
L 214.456633 132.23886 
L 214.89774 132.926132 
L 215.338846 132.622763 
L 215.779953 132.725486 
L 216.22106 134.327361 
L 216.662167 131.88328 
L 217.103273 132.567378 
L 217.54438 132.624808 
L 217.985487 132.867478 
L 218.426593 132.078352 
L 218.8677 132.298725 
L 219.308807 132.375235 
L 219.749914 132.899031 
L 220.19102 132.299455 
L 221.073234 132.698965 
L 221.51434 132.749106 
L 221.955447 132.572047 
L 222.396554 132.735333 
L 222.837661 132.501331 
L 223.278767 132.445749 
L 223.719874 132.800844 
L 224.160981 132.599577 
L 224.602087 132.528069 
L 225.043194 133.418649 
L 225.484301 132.304059 
L 225.925408 132.693067 
L 226.366514 132.084031 
L 226.807621 132.523896 
L 227.248728 132.600118 
L 228.130941 133.298588 
L 228.572048 132.386039 
L 229.454261 133.19902 
L 229.895368 132.739007 
L 230.336475 133.198867 
L 230.777582 132.736262 
L 231.218688 133.412287 
L 231.659795 132.808439 
L 232.100902 132.475197 
L 232.542008 132.640403 
L 232.983115 132.634424 
L 233.424222 133.023913 
L 233.865329 132.313796 
L 234.306435 133.014596 
L 234.747542 132.573859 
L 235.188649 132.310629 
L 235.629755 132.751505 
L 236.070862 132.027011 
L 236.511969 132.637068 
L 236.953076 131.997341 
L 237.394182 132.65365 
L 238.276396 132.254952 
L 238.717502 133.166727 
L 239.158609 133.161044 
L 239.599716 132.868057 
L 240.481929 132.715886 
L 240.923036 133.313758 
L 241.364143 133.259094 
L 241.80525 132.374664 
L 242.246356 132.370019 
L 242.687463 133.122317 
L 243.569676 132.516071 
L 244.010783 132.596273 
L 244.45189 134.212614 
L 244.892997 132.868127 
L 245.77521 133.448304 
L 246.216317 132.497697 
L 246.657423 132.84084 
L 247.09853 132.998419 
L 247.980744 132.979176 
L 248.42185 133.124053 
L 248.862957 132.775361 
L 249.304064 133.26447 
L 249.74517 133.447651 
L 250.186277 132.831682 
L 250.627384 132.643544 
L 251.068491 132.71595 
L 251.509597 133.071013 
L 251.950704 133.205481 
L 252.832917 133.018732 
L 253.274024 133.177562 
L 253.715131 133.212742 
L 254.156238 133.070536 
L 254.597344 132.7111 
L 255.038451 132.619717 
L 255.920665 132.757311 
L 256.361771 132.287485 
L 256.802878 132.917935 
L 257.243985 132.7582 
L 257.685091 132.74229 
L 258.126198 133.203917 
L 258.567305 132.704265 
L 259.008412 132.688085 
L 259.449518 133.394741 
L 260.331732 132.715876 
L 260.772838 132.583073 
L 261.213945 133.363201 
L 261.655052 133.218542 
L 262.096159 133.327864 
L 262.978372 133.046398 
L 263.860585 132.391266 
L 264.301692 132.746404 
L 265.183906 132.579992 
L 265.625012 133.6675 
L 266.066119 133.153177 
L 266.507226 131.871708 
L 266.948333 132.866669 
L 267.830546 132.529901 
L 268.271653 131.081888 
L 268.712759 132.932414 
L 269.153866 132.085451 
L 269.594973 132.760385 
L 270.03608 132.146346 
L 270.477186 132.88974 
L 270.918293 132.563737 
L 271.3594 133.069097 
L 271.800506 133.365032 
L 272.241613 132.478084 
L 272.68272 132.902677 
L 273.123827 132.039826 
L 273.564933 132.423971 
L 274.00604 131.618577 
L 274.447147 132.19232 
L 274.888253 132.203069 
L 275.32936 132.514157 
L 275.770467 131.714142 
L 276.211574 131.917348 
L 276.65268 132.424369 
L 277.534894 132.100815 
L 278.417107 132.229428 
L 278.858214 132.13933 
L 279.299321 132.49344 
L 279.740427 132.105242 
L 280.181534 132.713502 
L 280.622641 132.33379 
L 281.063748 132.39439 
L 281.504854 132.209234 
L 281.945961 132.594199 
L 282.387068 132.673185 
L 282.828174 132.636544 
L 283.269281 132.045622 
L 283.710388 132.008696 
L 284.151495 132.296281 
L 284.592601 132.24379 
L 285.033708 132.629577 
L 285.474815 132.472327 
L 285.915921 132.670994 
L 286.357028 132.354122 
L 286.798135 132.323109 
L 287.239242 132.050248 
L 287.680348 132.447097 
L 288.121455 132.604512 
L 288.562562 132.27953 
L 289.003668 132.520756 
L 289.444775 132.360568 
L 289.885882 132.645127 
L 290.326989 132.133955 
L 290.768095 132.289025 
L 291.209202 132.21375 
L 291.650309 132.499823 
L 292.091416 132.318607 
L 292.532522 132.631839 
L 292.973629 132.517404 
L 293.414736 132.130841 
L 294.738056 132.7143 
L 295.179163 132.746425 
L 296.943589 132.34459 
L 297.384696 132.324889 
L 298.26691 132.673226 
L 298.708016 132.289639 
L 299.59023 132.640017 
L 300.031336 132.315031 
L 300.91355 132.864238 
L 301.795763 132.427692 
L 302.23687 132.489386 
L 302.677977 132.695802 
L 303.119083 132.442031 
L 303.56019 132.444117 
L 304.001297 132.791402 
L 304.442404 132.49101 
L 304.88351 132.756234 
L 305.324617 132.738034 
L 305.765724 133.154523 
L 306.206831 132.749366 
L 306.647937 132.783611 
L 307.089044 132.704427 
L 307.530151 132.845462 
L 308.412364 132.135485 
L 308.853471 132.562593 
L 311.059004 132.575102 
L 311.500111 132.82337 
L 311.941218 132.520394 
L 312.382325 132.787151 
L 312.823431 132.848905 
L 313.264538 132.732427 
L 314.146751 132.34149 
L 314.587858 132.569255 
L 315.028965 132.546035 
L 315.470072 132.382392 
L 315.911178 132.401055 
L 316.352285 132.942796 
L 316.793392 132.836618 
L 317.234499 132.045046 
L 317.675605 132.712118 
L 318.116712 132.475609 
L 319.881139 132.068622 
L 320.322246 132.852751 
L 320.763352 132.256039 
L 321.645566 132.592666 
L 322.086672 132.348413 
L 322.527779 132.303566 
L 322.968886 132.914314 
L 323.409993 132.387026 
L 323.851099 132.243224 
L 324.292206 132.85367 
L 325.615526 132.076505 
L 326.49774 132.539537 
L 326.938846 132.486669 
L 327.379953 132.644096 
L 328.703273 132.471121 
L 329.14438 132.113016 
L 329.585487 132.344418 
L 330.026593 132.339665 
L 330.4677 132.469396 
L 331.349914 133.01542 
L 331.79102 132.548661 
L 332.232127 132.326819 
L 332.673234 131.941895 
L 333.11434 132.629059 
L 333.555447 132.41616 
L 333.996554 132.777514 
L 334.437661 132.625445 
L 334.878767 132.205738 
L 335.319874 132.573852 
L 335.760981 132.351475 
L 336.202087 132.738733 
L 336.643194 132.609102 
L 337.084301 132.661179 
L 337.525408 132.248434 
L 337.966514 132.676072 
L 338.407621 132.574415 
L 338.848728 132.616665 
L 339.289834 132.074958 
L 339.730941 132.590863 
L 340.172048 132.401085 
L 340.613155 132.366064 
L 341.495368 132.649835 
L 341.936475 131.936974 
L 342.377582 132.337399 
L 342.818688 132.525656 
L 343.259795 132.230222 
L 344.142008 132.167707 
L 344.583115 132.493532 
L 345.024222 132.462083 
L 345.906435 132.110215 
L 346.347542 132.661394 
L 346.788649 132.257731 
L 347.229755 132.707855 
L 348.111969 132.689304 
L 348.553076 132.23817 
L 348.994182 132.636134 
L 349.435289 132.398538 
L 349.876396 131.929444 
L 350.758609 132.252696 
L 351.199716 132.351063 
L 351.640823 132.641152 
L 352.081929 131.990749 
L 352.523036 132.540849 
L 352.964143 131.671488 
L 353.846356 132.12717 
L 354.287463 132.034189 
L 355.169676 132.369767 
L 355.610783 131.803189 
L 356.492997 132.095206 
L 356.934103 132.051681 
L 357.37521 132.303661 
L 358.69853 132.161085 
L 359.139637 131.967513 
L 359.580744 132.354161 
L 360.02185 131.975016 
L 360.462957 132.182796 
L 360.904064 132.544544 
L 361.34517 131.972249 
L 362.227384 131.915321 
L 362.668491 132.331115 
L 363.550704 131.816527 
L 363.991811 132.304512 
L 364.432917 132.377821 
L 364.874024 132.626734 
L 365.315131 131.688815 
L 365.756238 131.714281 
L 366.197344 131.614019 
L 366.638451 132.079389 
L 367.079558 132.188325 
L 367.520665 132.439305 
L 367.961771 131.979743 
L 368.402878 132.116415 
L 368.843985 132.016496 
L 369.285091 131.69748 
L 370.167305 131.803803 
L 370.608412 132.211845 
L 371.490625 131.57137 
L 372.372838 131.918404 
L 373.255052 131.618256 
L 373.696159 131.558009 
L 374.137265 132.026717 
L 374.578372 131.699965 
L 375.019479 131.870529 
L 375.460585 131.543193 
L 375.901692 132.062371 
L 376.342799 131.957107 
L 376.783906 132.110093 
L 377.225012 132.470885 
L 377.666119 131.054369 
L 378.107226 131.723853 
L 378.548333 131.715947 
L 378.989439 132.028528 
L 379.871653 131.659274 
L 380.312759 132.247391 
L 380.753866 131.672925 
L 381.194973 131.597974 
L 381.63608 131.732283 
L 382.077186 131.699916 
L 382.9594 131.758162 
L 383.400506 131.795467 
L 383.841613 131.673372 
L 384.28272 131.809686 
L 385.164933 131.494584 
L 385.60604 131.954713 
L 386.488253 131.584319 
L 386.92936 131.833002 
L 387.811574 131.703295 
L 388.25268 131.677965 
L 388.693787 131.992524 
L 389.134894 131.968231 
L 389.576 131.450183 
L 390.017107 131.479969 
L 390.458214 131.844268 
L 391.781534 132.008511 
L 392.663748 131.492316 
L 393.104854 131.757611 
L 393.987068 131.993016 
L 394.428174 131.637031 
L 394.869281 131.938927 
L 395.310388 131.774237 
L 395.751495 131.964773 
L 396.633708 131.895405 
L 397.074815 131.948727 
L 397.515921 131.515204 
L 398.398135 132.207389 
L 398.839242 131.735948 
L 399.280348 132.070266 
L 399.721455 131.860781 
L 400.162562 132.190618 
L 402.809202 131.559104 
L 403.250309 131.671975 
L 403.691416 131.950997 
L 404.132522 131.896108 
L 404.573629 131.64032 
L 405.014736 131.933831 
L 405.896949 131.75569 
L 407.220269 132.094871 
L 407.661376 131.759928 
L 408.102483 132.166826 
L 408.543589 131.618161 
L 408.984696 131.561967 
L 409.425803 131.859707 
L 410.308016 132.088196 
L 410.749123 132.030596 
L 411.19023 131.648646 
L 411.631336 131.550221 
L 412.072443 131.971596 
L 412.51355 131.857384 
L 412.954657 131.878065 
L 413.83687 131.605734 
L 414.277977 131.69852 
L 414.719083 131.660687 
L 415.16019 131.775266 
L 415.601297 131.438046 
L 416.042404 131.552678 
L 416.48351 131.396635 
L 417.365724 131.83833 
L 417.806831 131.473621 
L 418.247937 131.635664 
L 418.689044 131.678527 
L 419.130151 131.920461 
L 419.571257 131.773751 
L 420.012364 132.306822 
L 420.453471 131.304828 
L 420.894578 131.778464 
L 421.335684 131.538824 
L 421.776791 131.763851 
L 422.217898 131.714413 
L 422.659004 131.429222 
L 423.100111 131.819786 
L 423.541218 131.845981 
L 423.982325 131.56035 
L 424.864538 132.002589 
L 425.305645 131.722383 
L 426.628965 131.521583 
L 427.070072 131.46646 
L 427.952285 131.50372 
L 428.393392 131.938737 
L 428.834499 131.92355 
L 429.275605 132.035225 
L 430.157819 131.24189 
L 430.598925 131.710644 
L 431.040032 131.549152 
L 431.481139 131.866717 
L 431.922246 131.670899 
L 432.363352 132.145703 
L 432.804459 131.633061 
L 433.245566 132.025985 
L 433.686672 131.635501 
L 434.127779 131.846807 
L 434.568886 131.586124 
L 435.009993 131.59473 
L 435.451099 131.844681 
L 435.892206 131.914229 
L 436.333313 131.781952 
L 436.774419 131.862954 
L 437.215526 131.612892 
L 437.656633 132.049388 
L 438.538846 131.710847 
L 439.42106 131.814407 
L 441.185487 131.633862 
L 441.626593 131.919696 
L 442.0677 131.889533 
L 442.508807 131.308385 
L 442.949914 131.816644 
L 443.39102 131.87194 
L 443.832127 132.250742 
L 444.273234 131.864412 
L 444.71434 132.072855 
L 446.037661 131.621402 
L 446.478767 132.11461 
L 447.360981 131.885377 
L 447.802087 131.685562 
L 448.684301 132.014241 
L 449.125408 131.842992 
L 449.566514 131.883854 
L 450.007621 131.669728 
L 450.889834 132.134826 
L 451.330941 132.196674 
L 451.772048 131.534695 
L 452.213155 132.15809 
L 453.095368 131.824913 
L 453.536475 131.623415 
L 453.977582 131.993667 
L 454.418688 131.661674 
L 455.300902 131.780232 
L 455.742008 132.19422 
L 456.183115 131.92404 
L 456.624222 132.082007 
L 457.506435 131.905608 
L 457.947542 131.992586 
L 458.388649 131.585773 
L 458.829755 131.977195 
L 459.270862 131.712126 
L 460.153076 131.844544 
L 460.594182 131.698864 
L 461.035289 131.845577 
L 461.476396 131.667254 
L 461.917502 132.02546 
L 463.240823 131.764295 
L 464.123036 132.132961 
L 464.564143 132.054161 
L 465.00525 132.244216 
L 465.446356 132.261325 
L 465.887463 131.83644 
L 466.32857 132.054553 
L 466.769676 132.070764 
L 467.210783 131.745654 
L 467.65189 131.886346 
L 468.97521 131.744843 
L 469.416317 132.091431 
L 470.29853 131.787761 
L 470.739637 131.802511 
L 471.180744 131.600847 
L 472.504064 131.84851 
L 472.94517 131.834268 
L 473.386277 131.674467 
L 473.827384 132.130691 
L 474.709597 131.613253 
L 475.150704 132.004221 
L 475.591811 131.64069 
L 476.032917 131.919935 
L 476.474024 131.977815 
L 476.915131 131.861181 
L 477.356238 131.879449 
L 477.797344 132.129206 
L 478.238451 132.586272 
L 478.679558 132.397014 
L 479.120665 132.374833 
L 480.002878 131.922759 
L 481.326198 132.166175 
L 481.767305 131.987028 
L 482.208412 132.20129 
L 482.649518 131.900301 
L 483.090625 132.454928 
L 483.531732 131.965419 
L 485.737265 131.995658 
L 486.178372 131.694976 
L 486.619479 131.820483 
L 487.060585 132.268407 
L 487.501692 131.81003 
L 488.825012 132.331839 
L 489.266119 132.089079 
L 489.707226 132.156123 
L 490.589439 131.914557 
L 491.030546 131.779056 
L 491.471653 132.429212 
L 491.912759 132.035896 
L 492.353866 132.156378 
L 492.794973 131.920942 
L 493.23608 132.067177 
L 494.118293 131.7994 
L 494.5594 132.076494 
L 495.000506 131.892182 
L 495.441613 132.137919 
L 495.88272 131.956273 
L 497.20604 132.317842 
L 498.970467 132.052113 
L 499.411574 132.360091 
L 499.85268 132.15185 
L 500.293787 132.561835 
L 500.734894 132.520409 
L 501.176 132.730541 
L 501.617107 132.36537 
L 503.381534 132.09182 
L 504.263748 132.482762 
L 504.704854 132.309271 
L 505.145961 131.982322 
L 505.587068 132.079422 
L 506.028174 131.983711 
L 506.469281 132.030987 
L 506.910388 132.357754 
L 507.351495 132.456726 
L 507.792601 132.059792 
L 508.233708 132.039161 
L 508.674815 132.164013 
L 509.115921 131.927215 
L 509.998135 132.157801 
L 510.439242 132.131282 
L 510.880348 132.28258 
L 511.321455 132.155762 
L 511.762562 132.3389 
L 512.644775 131.681194 
L 513.085882 132.035336 
L 514.409202 131.958351 
L 514.850309 131.752352 
L 515.291416 132.173254 
L 515.732522 132.027158 
L 516.173629 132.439215 
L 517.055842 132.032869 
L 517.496949 131.622207 
L 518.820269 132.280623 
L 520.584696 131.676886 
L 521.025803 132.106748 
L 522.349123 131.894944 
L 524.11355 131.958977 
L 524.554657 131.787778 
L 524.995763 132.011997 
L 525.43687 131.811797 
L 525.877977 131.811067 
L 526.319083 132.095896 
L 526.76019 131.912196 
L 527.201297 132.21161 
L 527.642404 131.908913 
L 528.08351 131.974276 
L 528.524617 131.662828 
L 528.965724 131.908525 
L 529.406831 131.913864 
L 529.847937 132.275485 
L 530.289044 131.415337 
L 530.730151 131.800467 
L 531.612364 131.534548 
L 532.494578 131.915864 
L 532.935684 131.623809 
L 533.376791 131.542614 
L 533.817898 132.145538 
L 534.259004 131.915697 
L 534.700111 131.830227 
L 535.141218 131.610366 
L 535.582325 131.577343 
L 536.023431 131.953042 
L 536.464538 131.941517 
L 536.905645 132.242704 
L 537.346751 131.788079 
L 537.787858 131.994276 
L 538.670072 131.956424 
L 539.111178 131.602818 
L 539.552285 131.628402 
L 539.993392 132.003848 
L 540.434499 131.951748 
L 540.875605 132.337541 
L 541.316712 131.763898 
L 543.081139 131.841793 
L 543.522246 132.12563 
L 544.404459 132.106456 
L 545.286672 131.921969 
L 545.727779 132.068573 
L 546.168886 131.907576 
L 547.051099 132.076438 
L 547.492206 131.905297 
L 547.933313 132.151423 
L 548.374419 132.214246 
L 548.815526 132.081507 
L 549.69774 132.124251 
L 550.138846 132.522862 
L 550.579953 132.314021 
L 551.462167 132.43381 
L 551.903273 131.838743 
L 552.34438 132.22191 
L 552.785487 132.196385 
L 553.226593 132.291652 
L 553.6677 131.910402 
L 554.549914 131.851582 
L 554.99102 132.088144 
L 556.31434 131.763961 
L 556.755447 132.008608 
L 557.196554 131.867423 
L 557.637661 131.968499 
L 558.078767 131.783698 
L 558.519874 132.018266 
L 558.960981 131.839266 
L 559.402087 132.038851 
L 560.284301 132.204907 
L 560.725408 131.847972 
L 561.166514 131.72808 
L 561.607621 131.877868 
L 562.048728 131.687886 
L 562.489834 132.052456 
L 562.930941 131.944734 
L 563.372048 131.951519 
L 563.813155 132.070552 
L 564.254261 131.751878 
L 564.695368 131.796799 
L 565.136475 131.968814 
L 566.018688 131.916459 
L 566.459795 131.415957 
L 566.900902 131.630413 
L 567.342008 131.497864 
L 568.224222 131.955041 
L 568.665329 131.836435 
L 569.106435 131.895353 
L 569.547542 131.788212 
L 569.988649 132.161407 
L 570.429755 131.866419 
L 571.311969 131.699732 
L 571.753076 132.213766 
L 572.194182 131.728133 
L 572.635289 132.387442 
L 573.076396 131.771368 
L 573.958609 131.959422 
L 574.399716 131.776262 
L 574.840823 131.725607 
L 575.281929 131.864995 
L 576.60525 131.836825 
L 577.046356 131.542041 
L 577.487463 131.857837 
L 577.92857 131.815657 
L 578.369676 131.329548 
L 578.810783 131.696928 
L 579.25189 131.533836 
L 580.134103 132.006003 
L 580.57521 131.404012 
L 581.016317 131.777815 
L 581.457423 131.767231 
L 581.89853 131.398486 
L 582.339637 131.837332 
L 582.780744 131.576614 
L 583.22185 131.784697 
L 583.662957 131.822586 
L 584.104064 131.563991 
L 584.54517 131.753948 
L 584.986277 131.643732 
L 585.427384 131.711258 
L 585.868491 131.894859 
L 587.191811 131.652048 
L 587.632917 131.321052 
L 588.074024 131.612636 
L 588.956238 131.768802 
L 589.397344 131.553112 
L 590.279558 131.735078 
L 590.720665 131.81815 
L 591.161771 131.734775 
L 591.602878 131.869323 
L 592.043985 131.656739 
L 592.485091 131.70683 
L 592.926198 132.017098 
L 593.367305 131.590594 
L 593.808412 131.729867 
L 594.690625 132.211052 
L 595.131732 131.722657 
L 595.572838 131.531011 
L 596.013945 131.598798 
L 596.896159 131.449122 
L 597.337265 131.692884 
L 598.660585 131.56468 
L 599.101692 131.804936 
L 600.425012 131.698899 
L 600.866119 131.576302 
L 601.307226 131.164704 
L 601.748333 131.653755 
L 602.189439 131.569612 
L 603.071653 131.224464 
L 603.512759 131.535934 
L 603.953866 131.357117 
L 604.83608 131.567762 
L 605.277186 131.213929 
L 605.718293 131.59829 
L 606.1594 131.152675 
L 607.48272 131.739145 
L 607.923827 131.465133 
L 608.364933 131.453089 
L 608.80604 131.314995 
L 610.12936 131.677337 
L 610.570467 131.748742 
L 611.011574 131.973248 
L 611.45268 131.343102 
L 611.893787 131.580627 
L 612.334894 131.402333 
L 614.099321 131.40373 
L 614.540427 131.238737 
L 615.422641 131.584023 
L 615.863748 131.375681 
L 616.304854 131.671517 
L 616.745961 131.403375 
L 617.187068 131.788508 
L 618.069281 131.376979 
L 619.392601 131.483392 
L 619.833708 131.268123 
L 620.715921 131.57249 
L 621.157028 131.274227 
L 621.598135 131.556683 
L 622.039242 131.59896 
L 622.480348 131.831504 
L 622.921455 131.315487 
L 623.362562 131.371424 
L 623.803668 131.184238 
L 624.244775 131.247575 
L 624.685882 131.533858 
L 625.126989 131.439911 
L 625.126989 131.439911 
" clip-path="url(#p908f0cd6fa)" style="fill: none; stroke: #ff7f0e; stroke-width: 1.5; stroke-linecap: square"/>
   </g>
   <g id="patch_3">
    <path d="M 92.490625 308.63625 
L 92.490625 31.43625 
" style="fill: none; stroke: #000000; stroke-width: 0.8; stroke-linejoin: miter; stroke-linecap: square"/>
   </g>
   <g id="patch_4">
    <path d="M 650.490625 308.63625 
L 650.490625 31.43625 
" style="fill: none; stroke: #000000; stroke-width: 0.8; stroke-linejoin: miter; stroke-linecap: square"/>
   </g>
   <g id="patch_5">
    <path d="M 92.490625 308.63625 
L 650.490625 308.63625 
" style="fill: none; stroke: #000000; stroke-width: 0.8; stroke-linejoin: miter; stroke-linecap: square"/>
   </g>
   <g id="patch_6">
    <path d="M 92.490625 31.43625 
L 650.490625 31.43625 
" style="fill: none; stroke: #000000; stroke-width: 0.8; stroke-linejoin: miter; stroke-linecap: square"/>
   </g>
   <g id="text_15">
    <!-- Generator and Discriminator Loss During Training -->
    <g transform="translate(74.258125 25.43625) scale(0.24 -0.24)">
     <defs>
      <path id="DejaVuSans-47" d="M 3809 666 
L 3809 1919 
L 2778 1919 
L 2778 2438 
L 4434 2438 
L 4434 434 
Q 4069 175 3628 42 
Q 3188 -91 2688 -91 
Q 1594 -91 976 548 
Q 359 1188 359 2328 
Q 359 3472 976 4111 
Q 1594 4750 2688 4750 
Q 3144 4750 3555 4637 
Q 3966 4525 4313 4306 
L 4313 3634 
Q 3963 3931 3569 4081 
Q 3175 4231 2741 4231 
Q 1884 4231 1454 3753 
Q 1025 3275 1025 2328 
Q 1025 1384 1454 906 
Q 1884 428 2741 428 
Q 3075 428 3337 486 
Q 3600 544 3809 666 
z
" transform="scale(0.015625)"/>
      <path id="DejaVuSans-20" transform="scale(0.015625)"/>
      <path id="DejaVuSans-64" d="M 2906 2969 
L 2906 4863 
L 3481 4863 
L 3481 0 
L 2906 0 
L 2906 525 
Q 2725 213 2448 61 
Q 2172 -91 1784 -91 
Q 1150 -91 751 415 
Q 353 922 353 1747 
Q 353 2572 751 3078 
Q 1150 3584 1784 3584 
Q 2172 3584 2448 3432 
Q 2725 3281 2906 2969 
z
M 947 1747 
Q 947 1113 1208 752 
Q 1469 391 1925 391 
Q 2381 391 2643 752 
Q 2906 1113 2906 1747 
Q 2906 2381 2643 2742 
Q 2381 3103 1925 3103 
Q 1469 3103 1208 2742 
Q 947 2381 947 1747 
z
" transform="scale(0.015625)"/>
      <path id="DejaVuSans-44" d="M 1259 4147 
L 1259 519 
L 2022 519 
Q 2988 519 3436 956 
Q 3884 1394 3884 2338 
Q 3884 3275 3436 3711 
Q 2988 4147 2022 4147 
L 1259 4147 
z
M 628 4666 
L 1925 4666 
Q 3281 4666 3915 4102 
Q 4550 3538 4550 2338 
Q 4550 1131 3912 565 
Q 3275 0 1925 0 
L 628 0 
L 628 4666 
z
" transform="scale(0.015625)"/>
      <path id="DejaVuSans-63" d="M 3122 3366 
L 3122 2828 
Q 2878 2963 2633 3030 
Q 2388 3097 2138 3097 
Q 1578 3097 1268 2742 
Q 959 2388 959 1747 
Q 959 1106 1268 751 
Q 1578 397 2138 397 
Q 2388 397 2633 464 
Q 2878 531 3122 666 
L 3122 134 
Q 2881 22 2623 -34 
Q 2366 -91 2075 -91 
Q 1284 -91 818 406 
Q 353 903 353 1747 
Q 353 2603 823 3093 
Q 1294 3584 2113 3584 
Q 2378 3584 2631 3529 
Q 2884 3475 3122 3366 
z
" transform="scale(0.015625)"/>
      <path id="DejaVuSans-6d" d="M 3328 2828 
Q 3544 3216 3844 3400 
Q 4144 3584 4550 3584 
Q 5097 3584 5394 3201 
Q 5691 2819 5691 2113 
L 5691 0 
L 5113 0 
L 5113 2094 
Q 5113 2597 4934 2840 
Q 4756 3084 4391 3084 
Q 3944 3084 3684 2787 
Q 3425 2491 3425 1978 
L 3425 0 
L 2847 0 
L 2847 2094 
Q 2847 2600 2669 2842 
Q 2491 3084 2119 3084 
Q 1678 3084 1418 2786 
Q 1159 2488 1159 1978 
L 1159 0 
L 581 0 
L 581 3500 
L 1159 3500 
L 1159 2956 
Q 1356 3278 1631 3431 
Q 1906 3584 2284 3584 
Q 2666 3584 2933 3390 
Q 3200 3197 3328 2828 
z
" transform="scale(0.015625)"/>
      <path id="DejaVuSans-75" d="M 544 1381 
L 544 3500 
L 1119 3500 
L 1119 1403 
Q 1119 906 1312 657 
Q 1506 409 1894 409 
Q 2359 409 2629 706 
Q 2900 1003 2900 1516 
L 2900 3500 
L 3475 3500 
L 3475 0 
L 2900 0 
L 2900 538 
Q 2691 219 2414 64 
Q 2138 -91 1772 -91 
Q 1169 -91 856 284 
Q 544 659 544 1381 
z
M 1991 3584 
L 1991 3584 
z
" transform="scale(0.015625)"/>
      <path id="DejaVuSans-67" d="M 2906 1791 
Q 2906 2416 2648 2759 
Q 2391 3103 1925 3103 
Q 1463 3103 1205 2759 
Q 947 2416 947 1791 
Q 947 1169 1205 825 
Q 1463 481 1925 481 
Q 2391 481 2648 825 
Q 2906 1169 2906 1791 
z
M 3481 434 
Q 3481 -459 3084 -895 
Q 2688 -1331 1869 -1331 
Q 1566 -1331 1297 -1286 
Q 1028 -1241 775 -1147 
L 775 -588 
Q 1028 -725 1275 -790 
Q 1522 -856 1778 -856 
Q 2344 -856 2625 -561 
Q 2906 -266 2906 331 
L 2906 616 
Q 2728 306 2450 153 
Q 2172 0 1784 0 
Q 1141 0 747 490 
Q 353 981 353 1791 
Q 353 2603 747 3093 
Q 1141 3584 1784 3584 
Q 2172 3584 2450 3431 
Q 2728 3278 2906 2969 
L 2906 3500 
L 3481 3500 
L 3481 434 
z
" transform="scale(0.015625)"/>
      <path id="DejaVuSans-54" d="M -19 4666 
L 3928 4666 
L 3928 4134 
L 2272 4134 
L 2272 0 
L 1638 0 
L 1638 4134 
L -19 4134 
L -19 4666 
z
" transform="scale(0.015625)"/>
     </defs>
     <use xlink:href="#DejaVuSans-47"/>
     <use xlink:href="#DejaVuSans-65" x="77.490234"/>
     <use xlink:href="#DejaVuSans-6e" x="139.013672"/>
     <use xlink:href="#DejaVuSans-65" x="202.392578"/>
     <use xlink:href="#DejaVuSans-72" x="263.916016"/>
     <use xlink:href="#DejaVuSans-61" x="305.029297"/>
     <use xlink:href="#DejaVuSans-74" x="366.308594"/>
     <use xlink:href="#DejaVuSans-6f" x="405.517578"/>
     <use xlink:href="#DejaVuSans-72" x="466.699219"/>
     <use xlink:href="#DejaVuSans-20" x="507.8125"/>
     <use xlink:href="#DejaVuSans-61" x="539.599609"/>
     <use xlink:href="#DejaVuSans-6e" x="600.878906"/>
     <use xlink:href="#DejaVuSans-64" x="664.257812"/>
     <use xlink:href="#DejaVuSans-20" x="727.734375"/>
     <use xlink:href="#DejaVuSans-44" x="759.521484"/>
     <use xlink:href="#DejaVuSans-69" x="836.523438"/>
     <use xlink:href="#DejaVuSans-73" x="864.306641"/>
     <use xlink:href="#DejaVuSans-63" x="916.40625"/>
     <use xlink:href="#DejaVuSans-72" x="971.386719"/>
     <use xlink:href="#DejaVuSans-69" x="1012.5"/>
     <use xlink:href="#DejaVuSans-6d" x="1040.283203"/>
     <use xlink:href="#DejaVuSans-69" x="1137.695312"/>
     <use xlink:href="#DejaVuSans-6e" x="1165.478516"/>
     <use xlink:href="#DejaVuSans-61" x="1228.857422"/>
     <use xlink:href="#DejaVuSans-74" x="1290.136719"/>
     <use xlink:href="#DejaVuSans-6f" x="1329.345703"/>
     <use xlink:href="#DejaVuSans-72" x="1390.527344"/>
     <use xlink:href="#DejaVuSans-20" x="1431.640625"/>
     <use xlink:href="#DejaVuSans-4c" x="1463.427734"/>
     <use xlink:href="#DejaVuSans-6f" x="1517.390625"/>
     <use xlink:href="#DejaVuSans-73" x="1578.572266"/>
     <use xlink:href="#DejaVuSans-73" x="1630.671875"/>
     <use xlink:href="#DejaVuSans-20" x="1682.771484"/>
     <use xlink:href="#DejaVuSans-44" x="1714.558594"/>
     <use xlink:href="#DejaVuSans-75" x="1791.560547"/>
     <use xlink:href="#DejaVuSans-72" x="1854.939453"/>
     <use xlink:href="#DejaVuSans-69" x="1896.052734"/>
     <use xlink:href="#DejaVuSans-6e" x="1923.835938"/>
     <use xlink:href="#DejaVuSans-67" x="1987.214844"/>
     <use xlink:href="#DejaVuSans-20" x="2050.691406"/>
     <use xlink:href="#DejaVuSans-54" x="2082.478516"/>
     <use xlink:href="#DejaVuSans-72" x="2128.8125"/>
     <use xlink:href="#DejaVuSans-61" x="2169.925781"/>
     <use xlink:href="#DejaVuSans-69" x="2231.205078"/>
     <use xlink:href="#DejaVuSans-6e" x="2258.988281"/>
     <use xlink:href="#DejaVuSans-69" x="2322.367188"/>
     <use xlink:href="#DejaVuSans-6e" x="2350.150391"/>
     <use xlink:href="#DejaVuSans-67" x="2413.529297"/>
    </g>
   </g>
   <g id="legend_1">
    <g id="patch_7">
     <path d="M 556.99375 106.14875 
L 636.490625 106.14875 
Q 640.490625 106.14875 640.490625 102.14875 
L 640.490625 45.43625 
Q 640.490625 41.43625 636.490625 41.43625 
L 556.99375 41.43625 
Q 552.99375 41.43625 552.99375 45.43625 
L 552.99375 102.14875 
Q 552.99375 106.14875 556.99375 106.14875 
z
" style="fill: #ffffff; opacity: 0.8; stroke: #cccccc; stroke-linejoin: miter"/>
    </g>
    <g id="line2d_15">
     <path d="M 560.99375 57.633125 
L 580.99375 57.633125 
L 600.99375 57.633125 
" style="fill: none; stroke: #1f77b4; stroke-width: 1.5; stroke-linecap: square"/>
    </g>
    <g id="text_16">
     <!-- G -->
     <g transform="translate(616.99375 64.633125) scale(0.2 -0.2)">
      <use xlink:href="#DejaVuSans-47"/>
     </g>
    </g>
    <g id="line2d_16">
     <path d="M 560.99375 86.989375 
L 580.99375 86.989375 
L 600.99375 86.989375 
" style="fill: none; stroke: #ff7f0e; stroke-width: 1.5; stroke-linecap: square"/>
    </g>
    <g id="text_17">
     <!-- D -->
     <g transform="translate(616.99375 93.989375) scale(0.2 -0.2)">
      <use xlink:href="#DejaVuSans-44"/>
     </g>
    </g>
   </g>
  </g>
 </g>
 <defs>
  <clipPath id="p908f0cd6fa">
   <rect x="92.490625" y="31.43625" width="558" height="277.2"/>
  </clipPath>
 </defs>
</svg>
