<?xml version="1.0" encoding="utf-8" standalone="no"?>
<!DOCTYPE svg PUBLIC "-//W3C//DTD SVG 1.1//EN"
  "http://www.w3.org/Graphics/SVG/1.1/DTD/svg11.dtd">
<svg xmlns:xlink="http://www.w3.org/1999/xlink" width="675.923125pt" height="365.54875pt" viewBox="0 0 675.923125 365.54875" xmlns="http://www.w3.org/2000/svg" version="1.1">
 <metadata>
  <rdf:RDF xmlns:dc="http://purl.org/dc/elements/1.1/" xmlns:cc="http://creativecommons.org/ns#" xmlns:rdf="http://www.w3.org/1999/02/22-rdf-syntax-ns#">
   <cc:Work>
    <dc:type rdf:resource="http://purl.org/dc/dcmitype/StillImage"/>
    <dc:date>2024-02-04T18:06:37.369523</dc:date>
    <dc:format>image/svg+xml</dc:format>
    <dc:creator>
     <cc:Agent>
      <dc:title>Matplotlib v3.7.2, https://matplotlib.org/</dc:title>
     </cc:Agent>
    </dc:creator>
   </cc:Work>
  </rdf:RDF>
 </metadata>
 <defs>
  <style type="text/css">*{stroke-linejoin: round; stroke-linecap: butt}</style>
 </defs>
 <g id="figure_1">
  <g id="patch_1">
   <path d="M 0 365.54875 
L 675.923125 365.54875 
L 675.923125 -0 
L 0 -0 
z
" style="fill: #ffffff"/>
  </g>
  <g id="axes_1">
   <g id="patch_2">
    <path d="M 92.490625 308.63625 
L 650.490625 308.63625 
L 650.490625 31.43625 
L 92.490625 31.43625 
z
" style="fill: #ffffff"/>
   </g>
   <g id="matplotlib.axis_1">
    <g id="xtick_1">
     <g id="line2d_1">
      <defs>
       <path id="m6fb0420f64" d="M 0 0 
L 0 3.5 
" style="stroke: #000000; stroke-width: 0.8"/>
      </defs>
      <g>
       <use xlink:href="#m6fb0420f64" x="117.854261" y="308.63625" style="stroke: #000000; stroke-width: 0.8"/>
      </g>
     </g>
     <g id="text_1">
      <!-- 0 -->
      <g transform="translate(111.491761 330.833125) scale(0.2 -0.2)">
       <defs>
        <path id="DejaVuSans-30" d="M 2034 4250 
Q 1547 4250 1301 3770 
Q 1056 3291 1056 2328 
Q 1056 1369 1301 889 
Q 1547 409 2034 409 
Q 2525 409 2770 889 
Q 3016 1369 3016 2328 
Q 3016 3291 2770 3770 
Q 2525 4250 2034 4250 
z
M 2034 4750 
Q 2819 4750 3233 4129 
Q 3647 3509 3647 2328 
Q 3647 1150 3233 529 
Q 2819 -91 2034 -91 
Q 1250 -91 836 529 
Q 422 1150 422 2328 
Q 422 3509 836 4129 
Q 1250 4750 2034 4750 
z
" transform="scale(0.015625)"/>
       </defs>
       <use xlink:href="#DejaVuSans-30"/>
      </g>
     </g>
    </g>
    <g id="xtick_2">
     <g id="line2d_2">
      <g>
       <use xlink:href="#m6fb0420f64" x="181.263352" y="308.63625" style="stroke: #000000; stroke-width: 0.8"/>
      </g>
     </g>
     <g id="text_2">
      <!-- 200 -->
      <g transform="translate(162.175852 330.833125) scale(0.2 -0.2)">
       <defs>
        <path id="DejaVuSans-32" d="M 1228 531 
L 3431 531 
L 3431 0 
L 469 0 
L 469 531 
Q 828 903 1448 1529 
Q 2069 2156 2228 2338 
Q 2531 2678 2651 2914 
Q 2772 3150 2772 3378 
Q 2772 3750 2511 3984 
Q 2250 4219 1831 4219 
Q 1534 4219 1204 4116 
Q 875 4013 500 3803 
L 500 4441 
Q 881 4594 1212 4672 
Q 1544 4750 1819 4750 
Q 2544 4750 2975 4387 
Q 3406 4025 3406 3419 
Q 3406 3131 3298 2873 
Q 3191 2616 2906 2266 
Q 2828 2175 2409 1742 
Q 1991 1309 1228 531 
z
" transform="scale(0.015625)"/>
       </defs>
       <use xlink:href="#DejaVuSans-32"/>
       <use xlink:href="#DejaVuSans-30" x="63.623047"/>
       <use xlink:href="#DejaVuSans-30" x="127.246094"/>
      </g>
     </g>
    </g>
    <g id="xtick_3">
     <g id="line2d_3">
      <g>
       <use xlink:href="#m6fb0420f64" x="244.672443" y="308.63625" style="stroke: #000000; stroke-width: 0.8"/>
      </g>
     </g>
     <g id="text_3">
      <!-- 400 -->
      <g transform="translate(225.584943 330.833125) scale(0.2 -0.2)">
       <defs>
        <path id="DejaVuSans-34" d="M 2419 4116 
L 825 1625 
L 2419 1625 
L 2419 4116 
z
M 2253 4666 
L 3047 4666 
L 3047 1625 
L 3713 1625 
L 3713 1100 
L 3047 1100 
L 3047 0 
L 2419 0 
L 2419 1100 
L 313 1100 
L 313 1709 
L 2253 4666 
z
" transform="scale(0.015625)"/>
       </defs>
       <use xlink:href="#DejaVuSans-34"/>
       <use xlink:href="#DejaVuSans-30" x="63.623047"/>
       <use xlink:href="#DejaVuSans-30" x="127.246094"/>
      </g>
     </g>
    </g>
    <g id="xtick_4">
     <g id="line2d_4">
      <g>
       <use xlink:href="#m6fb0420f64" x="308.081534" y="308.63625" style="stroke: #000000; stroke-width: 0.8"/>
      </g>
     </g>
     <g id="text_4">
      <!-- 600 -->
      <g transform="translate(288.994034 330.833125) scale(0.2 -0.2)">
       <defs>
        <path id="DejaVuSans-36" d="M 2113 2584 
Q 1688 2584 1439 2293 
Q 1191 2003 1191 1497 
Q 1191 994 1439 701 
Q 1688 409 2113 409 
Q 2538 409 2786 701 
Q 3034 994 3034 1497 
Q 3034 2003 2786 2293 
Q 2538 2584 2113 2584 
z
M 3366 4563 
L 3366 3988 
Q 3128 4100 2886 4159 
Q 2644 4219 2406 4219 
Q 1781 4219 1451 3797 
Q 1122 3375 1075 2522 
Q 1259 2794 1537 2939 
Q 1816 3084 2150 3084 
Q 2853 3084 3261 2657 
Q 3669 2231 3669 1497 
Q 3669 778 3244 343 
Q 2819 -91 2113 -91 
Q 1303 -91 875 529 
Q 447 1150 447 2328 
Q 447 3434 972 4092 
Q 1497 4750 2381 4750 
Q 2619 4750 2861 4703 
Q 3103 4656 3366 4563 
z
" transform="scale(0.015625)"/>
       </defs>
       <use xlink:href="#DejaVuSans-36"/>
       <use xlink:href="#DejaVuSans-30" x="63.623047"/>
       <use xlink:href="#DejaVuSans-30" x="127.246094"/>
      </g>
     </g>
    </g>
    <g id="xtick_5">
     <g id="line2d_5">
      <g>
       <use xlink:href="#m6fb0420f64" x="371.490625" y="308.63625" style="stroke: #000000; stroke-width: 0.8"/>
      </g>
     </g>
     <g id="text_5">
      <!-- 800 -->
      <g transform="translate(352.403125 330.833125) scale(0.2 -0.2)">
       <defs>
        <path id="DejaVuSans-38" d="M 2034 2216 
Q 1584 2216 1326 1975 
Q 1069 1734 1069 1313 
Q 1069 891 1326 650 
Q 1584 409 2034 409 
Q 2484 409 2743 651 
Q 3003 894 3003 1313 
Q 3003 1734 2745 1975 
Q 2488 2216 2034 2216 
z
M 1403 2484 
Q 997 2584 770 2862 
Q 544 3141 544 3541 
Q 544 4100 942 4425 
Q 1341 4750 2034 4750 
Q 2731 4750 3128 4425 
Q 3525 4100 3525 3541 
Q 3525 3141 3298 2862 
Q 3072 2584 2669 2484 
Q 3125 2378 3379 2068 
Q 3634 1759 3634 1313 
Q 3634 634 3220 271 
Q 2806 -91 2034 -91 
Q 1263 -91 848 271 
Q 434 634 434 1313 
Q 434 1759 690 2068 
Q 947 2378 1403 2484 
z
M 1172 3481 
Q 1172 3119 1398 2916 
Q 1625 2713 2034 2713 
Q 2441 2713 2670 2916 
Q 2900 3119 2900 3481 
Q 2900 3844 2670 4047 
Q 2441 4250 2034 4250 
Q 1625 4250 1398 4047 
Q 1172 3844 1172 3481 
z
" transform="scale(0.015625)"/>
       </defs>
       <use xlink:href="#DejaVuSans-38"/>
       <use xlink:href="#DejaVuSans-30" x="63.623047"/>
       <use xlink:href="#DejaVuSans-30" x="127.246094"/>
      </g>
     </g>
    </g>
    <g id="xtick_6">
     <g id="line2d_6">
      <g>
       <use xlink:href="#m6fb0420f64" x="434.899716" y="308.63625" style="stroke: #000000; stroke-width: 0.8"/>
      </g>
     </g>
     <g id="text_6">
      <!-- 1000 -->
      <g transform="translate(409.449716 330.833125) scale(0.2 -0.2)">
       <defs>
        <path id="DejaVuSans-31" d="M 794 531 
L 1825 531 
L 1825 4091 
L 703 3866 
L 703 4441 
L 1819 4666 
L 2450 4666 
L 2450 531 
L 3481 531 
L 3481 0 
L 794 0 
L 794 531 
z
" transform="scale(0.015625)"/>
       </defs>
       <use xlink:href="#DejaVuSans-31"/>
       <use xlink:href="#DejaVuSans-30" x="63.623047"/>
       <use xlink:href="#DejaVuSans-30" x="127.246094"/>
       <use xlink:href="#DejaVuSans-30" x="190.869141"/>
      </g>
     </g>
    </g>
    <g id="xtick_7">
     <g id="line2d_7">
      <g>
       <use xlink:href="#m6fb0420f64" x="498.308807" y="308.63625" style="stroke: #000000; stroke-width: 0.8"/>
      </g>
     </g>
     <g id="text_7">
      <!-- 1200 -->
      <g transform="translate(472.858807 330.833125) scale(0.2 -0.2)">
       <use xlink:href="#DejaVuSans-31"/>
       <use xlink:href="#DejaVuSans-32" x="63.623047"/>
       <use xlink:href="#DejaVuSans-30" x="127.246094"/>
       <use xlink:href="#DejaVuSans-30" x="190.869141"/>
      </g>
     </g>
    </g>
    <g id="xtick_8">
     <g id="line2d_8">
      <g>
       <use xlink:href="#m6fb0420f64" x="561.717898" y="308.63625" style="stroke: #000000; stroke-width: 0.8"/>
      </g>
     </g>
     <g id="text_8">
      <!-- 1400 -->
      <g transform="translate(536.267898 330.833125) scale(0.2 -0.2)">
       <use xlink:href="#DejaVuSans-31"/>
       <use xlink:href="#DejaVuSans-34" x="63.623047"/>
       <use xlink:href="#DejaVuSans-30" x="127.246094"/>
       <use xlink:href="#DejaVuSans-30" x="190.869141"/>
      </g>
     </g>
    </g>
    <g id="xtick_9">
     <g id="line2d_9">
      <g>
       <use xlink:href="#m6fb0420f64" x="625.126989" y="308.63625" style="stroke: #000000; stroke-width: 0.8"/>
      </g>
     </g>
     <g id="text_9">
      <!-- 1600 -->
      <g transform="translate(599.676989 330.833125) scale(0.2 -0.2)">
       <use xlink:href="#DejaVuSans-31"/>
       <use xlink:href="#DejaVuSans-36" x="63.623047"/>
       <use xlink:href="#DejaVuSans-30" x="127.246094"/>
       <use xlink:href="#DejaVuSans-30" x="190.869141"/>
      </g>
     </g>
    </g>
    <g id="text_10">
     <!-- iterations -->
     <g transform="translate(324.035938 354.189375) scale(0.2 -0.2)">
      <defs>
       <path id="DejaVuSans-69" d="M 603 3500 
L 1178 3500 
L 1178 0 
L 603 0 
L 603 3500 
z
M 603 4863 
L 1178 4863 
L 1178 4134 
L 603 4134 
L 603 4863 
z
" transform="scale(0.015625)"/>
       <path id="DejaVuSans-74" d="M 1172 4494 
L 1172 3500 
L 2356 3500 
L 2356 3053 
L 1172 3053 
L 1172 1153 
Q 1172 725 1289 603 
Q 1406 481 1766 481 
L 2356 481 
L 2356 0 
L 1766 0 
Q 1100 0 847 248 
Q 594 497 594 1153 
L 594 3053 
L 172 3053 
L 172 3500 
L 594 3500 
L 594 4494 
L 1172 4494 
z
" transform="scale(0.015625)"/>
       <path id="DejaVuSans-65" d="M 3597 1894 
L 3597 1613 
L 953 1613 
Q 991 1019 1311 708 
Q 1631 397 2203 397 
Q 2534 397 2845 478 
Q 3156 559 3463 722 
L 3463 178 
Q 3153 47 2828 -22 
Q 2503 -91 2169 -91 
Q 1331 -91 842 396 
Q 353 884 353 1716 
Q 353 2575 817 3079 
Q 1281 3584 2069 3584 
Q 2775 3584 3186 3129 
Q 3597 2675 3597 1894 
z
M 3022 2063 
Q 3016 2534 2758 2815 
Q 2500 3097 2075 3097 
Q 1594 3097 1305 2825 
Q 1016 2553 972 2059 
L 3022 2063 
z
" transform="scale(0.015625)"/>
       <path id="DejaVuSans-72" d="M 2631 2963 
Q 2534 3019 2420 3045 
Q 2306 3072 2169 3072 
Q 1681 3072 1420 2755 
Q 1159 2438 1159 1844 
L 1159 0 
L 581 0 
L 581 3500 
L 1159 3500 
L 1159 2956 
Q 1341 3275 1631 3429 
Q 1922 3584 2338 3584 
Q 2397 3584 2469 3576 
Q 2541 3569 2628 3553 
L 2631 2963 
z
" transform="scale(0.015625)"/>
       <path id="DejaVuSans-61" d="M 2194 1759 
Q 1497 1759 1228 1600 
Q 959 1441 959 1056 
Q 959 750 1161 570 
Q 1363 391 1709 391 
Q 2188 391 2477 730 
Q 2766 1069 2766 1631 
L 2766 1759 
L 2194 1759 
z
M 3341 1997 
L 3341 0 
L 2766 0 
L 2766 531 
Q 2569 213 2275 61 
Q 1981 -91 1556 -91 
Q 1019 -91 701 211 
Q 384 513 384 1019 
Q 384 1609 779 1909 
Q 1175 2209 1959 2209 
L 2766 2209 
L 2766 2266 
Q 2766 2663 2505 2880 
Q 2244 3097 1772 3097 
Q 1472 3097 1187 3025 
Q 903 2953 641 2809 
L 641 3341 
Q 956 3463 1253 3523 
Q 1550 3584 1831 3584 
Q 2591 3584 2966 3190 
Q 3341 2797 3341 1997 
z
" transform="scale(0.015625)"/>
       <path id="DejaVuSans-6f" d="M 1959 3097 
Q 1497 3097 1228 2736 
Q 959 2375 959 1747 
Q 959 1119 1226 758 
Q 1494 397 1959 397 
Q 2419 397 2687 759 
Q 2956 1122 2956 1747 
Q 2956 2369 2687 2733 
Q 2419 3097 1959 3097 
z
M 1959 3584 
Q 2709 3584 3137 3096 
Q 3566 2609 3566 1747 
Q 3566 888 3137 398 
Q 2709 -91 1959 -91 
Q 1206 -91 779 398 
Q 353 888 353 1747 
Q 353 2609 779 3096 
Q 1206 3584 1959 3584 
z
" transform="scale(0.015625)"/>
       <path id="DejaVuSans-6e" d="M 3513 2113 
L 3513 0 
L 2938 0 
L 2938 2094 
Q 2938 2591 2744 2837 
Q 2550 3084 2163 3084 
Q 1697 3084 1428 2787 
Q 1159 2491 1159 1978 
L 1159 0 
L 581 0 
L 581 3500 
L 1159 3500 
L 1159 2956 
Q 1366 3272 1645 3428 
Q 1925 3584 2291 3584 
Q 2894 3584 3203 3211 
Q 3513 2838 3513 2113 
z
" transform="scale(0.015625)"/>
       <path id="DejaVuSans-73" d="M 2834 3397 
L 2834 2853 
Q 2591 2978 2328 3040 
Q 2066 3103 1784 3103 
Q 1356 3103 1142 2972 
Q 928 2841 928 2578 
Q 928 2378 1081 2264 
Q 1234 2150 1697 2047 
L 1894 2003 
Q 2506 1872 2764 1633 
Q 3022 1394 3022 966 
Q 3022 478 2636 193 
Q 2250 -91 1575 -91 
Q 1294 -91 989 -36 
Q 684 19 347 128 
L 347 722 
Q 666 556 975 473 
Q 1284 391 1588 391 
Q 1994 391 2212 530 
Q 2431 669 2431 922 
Q 2431 1156 2273 1281 
Q 2116 1406 1581 1522 
L 1381 1569 
Q 847 1681 609 1914 
Q 372 2147 372 2553 
Q 372 3047 722 3315 
Q 1072 3584 1716 3584 
Q 2034 3584 2315 3537 
Q 2597 3491 2834 3397 
z
" transform="scale(0.015625)"/>
      </defs>
      <use xlink:href="#DejaVuSans-69"/>
      <use xlink:href="#DejaVuSans-74" x="27.783203"/>
      <use xlink:href="#DejaVuSans-65" x="66.992188"/>
      <use xlink:href="#DejaVuSans-72" x="128.515625"/>
      <use xlink:href="#DejaVuSans-61" x="169.628906"/>
      <use xlink:href="#DejaVuSans-74" x="230.908203"/>
      <use xlink:href="#DejaVuSans-69" x="270.117188"/>
      <use xlink:href="#DejaVuSans-6f" x="297.900391"/>
      <use xlink:href="#DejaVuSans-6e" x="359.082031"/>
      <use xlink:href="#DejaVuSans-73" x="422.460938"/>
     </g>
    </g>
   </g>
   <g id="matplotlib.axis_2">
    <g id="ytick_1">
     <g id="line2d_10">
      <defs>
       <path id="m24427b8434" d="M 0 0 
L -3.5 0 
" style="stroke: #000000; stroke-width: 0.8"/>
      </defs>
      <g>
       <use xlink:href="#m24427b8434" x="92.490625" y="275.383624" style="stroke: #000000; stroke-width: 0.8"/>
      </g>
     </g>
     <g id="text_11">
      <!-- −300 -->
      <g transform="translate(30.55625 282.982061) scale(0.2 -0.2)">
       <defs>
        <path id="DejaVuSans-2212" d="M 678 2272 
L 4684 2272 
L 4684 1741 
L 678 1741 
L 678 2272 
z
" transform="scale(0.015625)"/>
        <path id="DejaVuSans-33" d="M 2597 2516 
Q 3050 2419 3304 2112 
Q 3559 1806 3559 1356 
Q 3559 666 3084 287 
Q 2609 -91 1734 -91 
Q 1441 -91 1130 -33 
Q 819 25 488 141 
L 488 750 
Q 750 597 1062 519 
Q 1375 441 1716 441 
Q 2309 441 2620 675 
Q 2931 909 2931 1356 
Q 2931 1769 2642 2001 
Q 2353 2234 1838 2234 
L 1294 2234 
L 1294 2753 
L 1863 2753 
Q 2328 2753 2575 2939 
Q 2822 3125 2822 3475 
Q 2822 3834 2567 4026 
Q 2313 4219 1838 4219 
Q 1578 4219 1281 4162 
Q 984 4106 628 3988 
L 628 4550 
Q 988 4650 1302 4700 
Q 1616 4750 1894 4750 
Q 2613 4750 3031 4423 
Q 3450 4097 3450 3541 
Q 3450 3153 3228 2886 
Q 3006 2619 2597 2516 
z
" transform="scale(0.015625)"/>
       </defs>
       <use xlink:href="#DejaVuSans-2212"/>
       <use xlink:href="#DejaVuSans-33" x="83.789062"/>
       <use xlink:href="#DejaVuSans-30" x="147.412109"/>
       <use xlink:href="#DejaVuSans-30" x="211.035156"/>
      </g>
     </g>
    </g>
    <g id="ytick_2">
     <g id="line2d_11">
      <g>
       <use xlink:href="#m24427b8434" x="92.490625" y="226.548593" style="stroke: #000000; stroke-width: 0.8"/>
      </g>
     </g>
     <g id="text_12">
      <!-- −200 -->
      <g transform="translate(30.55625 234.147031) scale(0.2 -0.2)">
       <use xlink:href="#DejaVuSans-2212"/>
       <use xlink:href="#DejaVuSans-32" x="83.789062"/>
       <use xlink:href="#DejaVuSans-30" x="147.412109"/>
       <use xlink:href="#DejaVuSans-30" x="211.035156"/>
      </g>
     </g>
    </g>
    <g id="ytick_3">
     <g id="line2d_12">
      <g>
       <use xlink:href="#m24427b8434" x="92.490625" y="177.713563" style="stroke: #000000; stroke-width: 0.8"/>
      </g>
     </g>
     <g id="text_13">
      <!-- −100 -->
      <g transform="translate(30.55625 185.312) scale(0.2 -0.2)">
       <use xlink:href="#DejaVuSans-2212"/>
       <use xlink:href="#DejaVuSans-31" x="83.789062"/>
       <use xlink:href="#DejaVuSans-30" x="147.412109"/>
       <use xlink:href="#DejaVuSans-30" x="211.035156"/>
      </g>
     </g>
    </g>
    <g id="ytick_4">
     <g id="line2d_13">
      <g>
       <use xlink:href="#m24427b8434" x="92.490625" y="128.878533" style="stroke: #000000; stroke-width: 0.8"/>
      </g>
     </g>
     <g id="text_14">
      <!-- 0 -->
      <g transform="translate(72.765625 136.47697) scale(0.2 -0.2)">
       <use xlink:href="#DejaVuSans-30"/>
      </g>
     </g>
    </g>
    <g id="ytick_5">
     <g id="line2d_14">
      <g>
       <use xlink:href="#m24427b8434" x="92.490625" y="80.043502" style="stroke: #000000; stroke-width: 0.8"/>
      </g>
     </g>
     <g id="text_15">
      <!-- 100 -->
      <g transform="translate(47.315625 87.64194) scale(0.2 -0.2)">
       <use xlink:href="#DejaVuSans-31"/>
       <use xlink:href="#DejaVuSans-30" x="63.623047"/>
       <use xlink:href="#DejaVuSans-30" x="127.246094"/>
      </g>
     </g>
    </g>
    <g id="text_16">
     <!-- Loss -->
     <g transform="translate(22.396875 191.970625) rotate(-90) scale(0.2 -0.2)">
      <defs>
       <path id="DejaVuSans-4c" d="M 628 4666 
L 1259 4666 
L 1259 531 
L 3531 531 
L 3531 0 
L 628 0 
L 628 4666 
z
" transform="scale(0.015625)"/>
      </defs>
      <use xlink:href="#DejaVuSans-4c"/>
      <use xlink:href="#DejaVuSans-6f" x="53.962891"/>
      <use xlink:href="#DejaVuSans-73" x="115.144531"/>
      <use xlink:href="#DejaVuSans-73" x="167.244141"/>
     </g>
    </g>
   </g>
   <g id="line2d_15">
    <path d="M 117.854261 107.143996 
L 118.171307 57.897655 
L 118.488352 62.589217 
L 118.805398 71.838444 
L 119.122443 72.058068 
L 119.439489 78.835638 
L 119.756534 48.700135 
L 120.07358 69.151889 
L 120.390625 52.930212 
L 120.70767 66.096965 
L 121.024716 66.553032 
L 121.341761 76.876548 
L 121.658807 55.497317 
L 121.975852 51.115701 
L 122.292898 44.03625 
L 122.609943 51.05182 
L 122.926989 50.556376 
L 123.244034 47.220406 
L 123.56108 48.866878 
L 123.878125 59.287779 
L 124.19517 53.814842 
L 124.829261 75.333709 
L 125.146307 66.979208 
L 125.463352 67.998484 
L 126.097443 56.908396 
L 126.414489 56.25427 
L 126.731534 62.683745 
L 127.04858 62.834119 
L 127.365625 61.864756 
L 127.68267 59.659047 
L 127.999716 66.219703 
L 128.633807 63.601624 
L 128.950852 67.449061 
L 129.267898 60.970884 
L 129.584943 60.75248 
L 129.901989 63.60389 
L 130.853125 58.813955 
L 131.17017 67.023484 
L 131.487216 68.229069 
L 131.804261 64.692444 
L 132.438352 70.902459 
L 132.755398 69.795967 
L 133.072443 74.728848 
L 133.706534 77.42436 
L 134.02358 83.33243 
L 134.340625 83.696863 
L 134.65767 81.139497 
L 134.974716 84.503779 
L 135.291761 82.653976 
L 135.608807 83.971179 
L 135.925852 83.117448 
L 136.242898 92.629959 
L 136.559943 90.330475 
L 136.876989 92.275981 
L 137.194034 90.397232 
L 137.51108 85.023339 
L 138.14517 91.154721 
L 138.462216 90.441416 
L 138.779261 93.864369 
L 139.096307 94.436591 
L 139.413352 92.705835 
L 139.730398 92.095729 
L 140.047443 93.933289 
L 140.364489 93.130061 
L 140.681534 96.57687 
L 140.99858 96.221721 
L 141.315625 97.915892 
L 141.949716 96.027037 
L 142.266761 98.865555 
L 142.583807 98.462802 
L 142.900852 99.901126 
L 143.534943 96.744706 
L 143.851989 101.116059 
L 144.169034 101.463043 
L 144.48608 99.407777 
L 144.803125 99.079392 
L 145.12017 101.748936 
L 145.437216 96.373721 
L 145.754261 98.877538 
L 146.071307 98.64235 
L 146.388352 101.755311 
L 146.705398 100.498503 
L 147.022443 100.197472 
L 147.339489 101.359065 
L 147.656534 103.278208 
L 147.97358 101.968927 
L 148.290625 102.623733 
L 148.60767 105.687596 
L 148.924716 105.591574 
L 149.241761 105.222651 
L 149.558807 105.442727 
L 149.875852 105.435291 
L 150.192898 106.080857 
L 150.509943 104.933541 
L 151.144034 105.439361 
L 151.46108 104.112317 
L 151.778125 107.187193 
L 152.09517 105.623654 
L 152.412216 108.334138 
L 152.729261 109.120913 
L 153.046307 108.514233 
L 153.363352 108.621994 
L 153.680398 110.088807 
L 153.997443 107.799802 
L 154.314489 110.200852 
L 154.631534 107.412463 
L 154.94858 110.288919 
L 155.265625 110.331991 
L 155.58267 109.867902 
L 155.899716 112.363599 
L 156.216761 111.384776 
L 156.533807 112.310107 
L 156.850852 111.154051 
L 157.167898 111.986557 
L 157.484943 111.672193 
L 157.801989 113.862704 
L 158.119034 113.19168 
L 158.43608 114.015056 
L 158.753125 115.817951 
L 159.07017 115.191117 
L 159.387216 113.570448 
L 159.704261 114.281939 
L 160.021307 113.887923 
L 160.338352 115.180849 
L 160.972443 113.208098 
L 161.289489 113.576696 
L 161.606534 112.998 
L 161.92358 113.869487 
L 162.55767 111.773753 
L 162.874716 114.315421 
L 163.191761 114.651964 
L 163.508807 113.95065 
L 163.825852 111.565328 
L 164.142898 113.268465 
L 164.459943 113.723887 
L 164.776989 116.218163 
L 165.094034 116.482947 
L 165.728125 116.223465 
L 166.04517 115.955427 
L 166.679261 116.043666 
L 166.996307 115.516151 
L 167.313352 115.237095 
L 167.630398 115.526654 
L 167.947443 116.500384 
L 168.264489 115.701997 
L 168.581534 115.514227 
L 168.89858 116.566719 
L 169.53267 113.033838 
L 169.849716 117.386173 
L 170.166761 115.030196 
L 170.483807 116.114283 
L 171.117898 116.685988 
L 171.434943 116.285479 
L 171.751989 116.383238 
L 172.069034 117.809727 
L 172.38608 116.247651 
L 173.02017 117.118397 
L 173.337216 116.978864 
L 173.654261 116.266156 
L 173.971307 116.828591 
L 174.288352 115.704825 
L 174.605398 117.848933 
L 174.922443 117.516695 
L 175.239489 118.217987 
L 175.556534 117.790735 
L 175.87358 117.613888 
L 176.190625 117.925882 
L 176.50767 116.471722 
L 176.824716 116.633613 
L 177.141761 116.587235 
L 177.458807 118.686857 
L 177.775852 117.391465 
L 178.092898 116.579879 
L 178.409943 116.951022 
L 178.726989 118.058637 
L 179.36108 116.99867 
L 179.678125 118.228131 
L 179.99517 118.162169 
L 180.312216 117.314565 
L 180.629261 117.584009 
L 180.946307 116.539411 
L 181.263352 116.131323 
L 181.580398 116.251882 
L 182.214489 118.780418 
L 182.531534 117.675981 
L 182.84858 117.951128 
L 183.165625 117.44087 
L 183.48267 118.886704 
L 183.799716 119.55603 
L 184.433807 118.79163 
L 185.067898 118.79812 
L 185.384943 117.778909 
L 186.019034 119.614259 
L 186.33608 119.138963 
L 186.653125 117.891263 
L 186.97017 118.490706 
L 187.604261 118.425521 
L 187.921307 118.760239 
L 188.238352 117.305008 
L 188.555398 116.889487 
L 188.872443 118.018663 
L 189.189489 117.121134 
L 189.506534 117.851503 
L 189.82358 119.094316 
L 190.140625 118.676769 
L 190.45767 119.082107 
L 190.774716 118.623146 
L 191.091761 117.768881 
L 191.725852 118.825413 
L 192.042898 118.2673 
L 192.359943 119.092046 
L 192.676989 118.887891 
L 192.994034 118.195138 
L 193.31108 118.752301 
L 193.628125 118.149038 
L 193.94517 118.431451 
L 194.262216 119.302395 
L 194.896307 118.081396 
L 195.530398 120.398914 
L 195.847443 118.94 
L 196.164489 119.590047 
L 196.79858 118.686176 
L 197.115625 119.379729 
L 197.43267 119.397097 
L 197.749716 119.043407 
L 198.066761 119.561633 
L 199.017898 118.547244 
L 199.334943 118.335123 
L 199.969034 119.719201 
L 200.28608 119.506408 
L 200.603125 120.306386 
L 200.92017 119.454758 
L 201.237216 119.946772 
L 201.554261 119.823493 
L 201.871307 120.35784 
L 202.505398 120.023433 
L 202.822443 121.096725 
L 203.139489 120.173311 
L 203.456534 119.595591 
L 203.77358 119.661148 
L 204.090625 120.087533 
L 204.40767 119.862036 
L 204.724716 120.239391 
L 205.041761 120.83174 
L 205.358807 119.818343 
L 205.675852 119.496576 
L 205.992898 120.018282 
L 206.309943 119.449078 
L 206.626989 119.43946 
L 206.944034 121.084304 
L 207.26108 120.896631 
L 207.578125 119.88671 
L 207.89517 121.115615 
L 208.212216 121.079473 
L 208.529261 120.582263 
L 208.846307 121.267944 
L 209.163352 118.883221 
L 209.480398 119.745675 
L 209.797443 121.08311 
L 210.114489 120.034706 
L 210.431534 120.5562 
L 210.74858 120.845277 
L 211.065625 120.157877 
L 211.38267 121.521667 
L 212.016761 121.102262 
L 212.333807 120.238156 
L 212.650852 121.339193 
L 212.967898 120.199512 
L 213.284943 121.283286 
L 213.601989 121.328363 
L 213.919034 121.090805 
L 215.187216 121.636812 
L 215.504261 121.077947 
L 215.821307 121.476202 
L 216.138352 121.201237 
L 216.455398 121.400379 
L 217.089489 122.001312 
L 217.406534 122.243346 
L 217.72358 121.400922 
L 218.040625 121.35934 
L 218.35767 121.848311 
L 218.991761 122.28045 
L 219.308807 122.622874 
L 219.625852 122.336203 
L 219.942898 121.806722 
L 220.259943 122.501442 
L 221.21108 122.077469 
L 221.528125 122.280026 
L 221.84517 122.860493 
L 222.479261 122.665896 
L 222.796307 122.895017 
L 223.113352 122.338507 
L 223.747443 122.451576 
L 224.381534 121.707988 
L 224.69858 122.859794 
L 225.015625 122.667835 
L 225.649716 123.603367 
L 226.283807 122.382557 
L 226.600852 122.72702 
L 226.917898 123.601962 
L 227.234943 123.963273 
L 227.551989 123.736112 
L 227.869034 123.857175 
L 228.18608 122.995332 
L 228.503125 123.003966 
L 228.82017 123.310766 
L 229.137216 122.64072 
L 229.771307 124.149156 
L 230.405398 124.441286 
L 230.722443 123.90084 
L 231.039489 124.299631 
L 231.356534 124.292514 
L 231.67358 124.465209 
L 232.30767 124.244183 
L 232.624716 124.511954 
L 232.941761 123.637802 
L 233.258807 124.307783 
L 233.892898 124.127827 
L 234.209943 123.726083 
L 234.844034 123.724214 
L 235.16108 124.74 
L 235.478125 124.949683 
L 235.79517 123.838682 
L 236.112216 123.885097 
L 236.429261 124.16535 
L 236.746307 124.699011 
L 237.063352 124.508582 
L 237.380398 125.245366 
L 238.014489 124.571209 
L 238.331534 125.131734 
L 238.64858 125.363722 
L 239.28267 125.050739 
L 239.599716 125.055236 
L 239.916761 125.719419 
L 240.233807 125.032975 
L 240.550852 125.356857 
L 240.867898 124.376778 
L 241.184943 125.585305 
L 241.501989 125.55837 
L 241.819034 126.362388 
L 242.13608 125.94994 
L 242.453125 126.090182 
L 242.77017 125.831119 
L 243.721307 125.499097 
L 244.038352 125.888574 
L 244.355398 125.332861 
L 244.672443 125.287222 
L 244.989489 125.851303 
L 245.306534 124.967126 
L 245.940625 124.594401 
L 246.25767 125.561248 
L 246.574716 125.775176 
L 246.891761 125.727656 
L 247.208807 125.336836 
L 247.525852 125.301675 
L 247.842898 125.451579 
L 248.476989 124.365278 
L 248.794034 125.077519 
L 249.11108 124.378871 
L 249.428125 125.538634 
L 249.74517 125.434654 
L 250.696307 126.135326 
L 251.013352 125.767461 
L 251.330398 125.845781 
L 252.281534 125.635223 
L 252.59858 125.766875 
L 252.915625 125.191649 
L 253.23267 125.427896 
L 253.549716 125.349871 
L 253.866761 125.789513 
L 254.183807 125.161249 
L 254.817898 125.094227 
L 255.134943 124.689431 
L 255.451989 125.550149 
L 255.769034 124.966956 
L 256.08608 125.69994 
L 256.403125 125.228714 
L 256.72017 125.309919 
L 257.037216 125.213436 
L 257.354261 125.708024 
L 257.671307 125.588056 
L 257.988352 125.288172 
L 258.305398 126.054596 
L 258.622443 125.552537 
L 258.939489 125.544268 
L 259.256534 126.226752 
L 259.57358 125.488179 
L 260.20767 126.171901 
L 260.524716 125.513511 
L 260.841761 125.794149 
L 261.158807 125.658881 
L 261.475852 126.502453 
L 261.792898 126.525528 
L 262.109943 126.031675 
L 262.426989 126.090373 
L 262.744034 125.781718 
L 263.06108 125.779334 
L 263.378125 125.889086 
L 264.329261 126.961614 
L 264.646307 126.142468 
L 265.280398 126.914565 
L 265.597443 126.207148 
L 266.231534 126.59136 
L 266.54858 126.02833 
L 267.18267 126.177766 
L 267.499716 125.841597 
L 267.816761 125.92563 
L 268.133807 125.752012 
L 268.450852 126.261588 
L 268.767898 126.077602 
L 269.084943 126.604134 
L 269.401989 126.23771 
L 269.719034 126.861873 
L 270.03608 126.203507 
L 270.353125 126.376087 
L 270.987216 127.224808 
L 271.304261 126.901074 
L 271.621307 126.415117 
L 271.938352 126.696078 
L 272.255398 127.224358 
L 272.889489 126.999313 
L 273.206534 127.609103 
L 273.52358 127.060794 
L 273.840625 127.279437 
L 274.15767 127.929773 
L 274.474716 127.681504 
L 274.791761 126.765478 
L 275.108807 127.210413 
L 275.425852 128.074752 
L 275.742898 127.983863 
L 276.376989 127.600631 
L 276.694034 127.585221 
L 277.01108 127.371201 
L 277.328125 128.154938 
L 278.279261 127.58216 
L 279.230398 128.134644 
L 279.547443 127.549762 
L 279.864489 128.180398 
L 280.181534 128.32243 
L 280.49858 128.220869 
L 280.815625 127.773186 
L 281.13267 128.274126 
L 281.449716 128.375967 
L 282.400852 128.272506 
L 283.034943 127.626651 
L 283.351989 127.882218 
L 283.669034 128.622262 
L 283.98608 128.624273 
L 284.303125 128.380195 
L 285.254261 127.226119 
L 285.571307 127.475618 
L 285.888352 127.335648 
L 286.205398 127.884496 
L 286.839489 128.029227 
L 287.156534 127.075883 
L 287.47358 127.338533 
L 287.790625 128.281584 
L 288.10767 128.207444 
L 288.424716 127.372999 
L 288.741761 127.572064 
L 289.058807 127.077766 
L 289.692898 128.311318 
L 290.009943 128.307992 
L 290.644034 127.580508 
L 290.96108 126.764973 
L 291.278125 127.734314 
L 291.59517 126.768116 
L 291.912216 126.896653 
L 292.229261 126.813981 
L 292.546307 127.304233 
L 292.863352 127.431338 
L 293.180398 126.937992 
L 293.497443 126.795393 
L 293.814489 127.407002 
L 294.44858 127.013732 
L 294.765625 127.122365 
L 295.08267 128.153388 
L 295.399716 126.857992 
L 295.716761 127.826451 
L 296.033807 127.222345 
L 296.350852 127.428328 
L 296.667898 126.994658 
L 296.984943 127.659318 
L 297.301989 126.673171 
L 297.619034 127.574447 
L 297.93608 127.432291 
L 298.253125 128.323104 
L 298.57017 128.007326 
L 298.887216 127.952391 
L 299.204261 127.181402 
L 299.521307 128.105599 
L 299.838352 127.729914 
L 300.155398 128.242449 
L 300.472443 128.175044 
L 300.789489 127.805558 
L 301.106534 128.141651 
L 301.42358 128.10651 
L 301.740625 128.312509 
L 302.05767 127.661634 
L 302.691761 128.423643 
L 303.008807 128.112519 
L 303.325852 128.424213 
L 303.959943 128.212217 
L 304.276989 128.250398 
L 304.594034 127.226366 
L 304.91108 127.538592 
L 305.228125 128.460846 
L 305.54517 128.842332 
L 305.862216 128.382478 
L 306.179261 128.311378 
L 306.496307 129.098682 
L 307.130398 128.93048 
L 307.764489 129.345805 
L 308.081534 129.571246 
L 308.39858 129.133117 
L 308.715625 128.924347 
L 309.03267 129.6165 
L 309.666761 128.979247 
L 309.983807 129.156974 
L 310.300852 128.539898 
L 310.934943 129.568516 
L 311.251989 128.962134 
L 311.569034 128.878142 
L 311.88608 129.052093 
L 312.203125 128.657464 
L 312.52017 128.693572 
L 312.837216 129.237439 
L 313.154261 129.440119 
L 313.471307 128.315439 
L 313.788352 129.084725 
L 314.105398 129.259416 
L 314.422443 129.020508 
L 315.37358 129.65396 
L 315.690625 129.759707 
L 316.00767 129.736929 
L 316.324716 129.989611 
L 316.641761 130.095301 
L 317.592898 129.332092 
L 317.909943 129.546395 
L 318.226989 129.575164 
L 318.544034 129.787767 
L 318.86108 129.783134 
L 319.49517 130.133199 
L 320.129261 129.863755 
L 320.446307 130.226971 
L 320.763352 129.521859 
L 321.080398 129.919794 
L 321.397443 129.266993 
L 321.714489 130.362737 
L 322.031534 129.671953 
L 322.34858 130.100109 
L 322.665625 130.124111 
L 322.98267 130.386335 
L 323.299716 130.077366 
L 323.616761 130.468662 
L 323.933807 130.247035 
L 324.250852 130.502511 
L 324.567898 129.622565 
L 324.884943 130.044121 
L 325.201989 129.637852 
L 325.519034 129.852127 
L 325.83608 129.820835 
L 326.153125 130.095071 
L 326.47017 129.915606 
L 326.787216 130.056417 
L 327.738352 129.462623 
L 328.055398 129.722866 
L 328.372443 129.678706 
L 328.689489 129.344987 
L 329.006534 129.697922 
L 329.32358 129.556763 
L 329.640625 129.590645 
L 329.95767 129.844723 
L 330.274716 129.945158 
L 330.591761 129.664395 
L 330.908807 130.114712 
L 331.225852 129.91082 
L 331.542898 130.040111 
L 331.859943 129.634323 
L 332.176989 130.2478 
L 332.494034 129.693251 
L 332.81108 129.574529 
L 333.128125 128.501651 
L 333.44517 129.833853 
L 333.762216 129.795103 
L 334.713352 130.259546 
L 335.030398 129.709199 
L 335.347443 130.61436 
L 335.664489 129.822597 
L 335.981534 130.118296 
L 336.29858 129.588654 
L 336.615625 130.485866 
L 336.93267 129.886924 
L 337.883807 130.319328 
L 338.200852 129.869323 
L 338.517898 130.428421 
L 339.151989 129.777697 
L 339.469034 130.069704 
L 339.78608 129.903047 
L 340.103125 130.419247 
L 340.42017 130.241578 
L 340.737216 130.275795 
L 341.054261 130.005742 
L 341.371307 129.965241 
L 342.322443 130.486054 
L 342.639489 130.162824 
L 342.956534 130.53959 
L 343.27358 130.735584 
L 343.590625 130.176004 
L 344.224716 130.229223 
L 344.541761 130.476132 
L 344.858807 130.424463 
L 345.175852 129.924593 
L 345.809943 130.363919 
L 346.444034 130.355589 
L 346.76108 130.739932 
L 347.078125 130.694598 
L 347.39517 130.334052 
L 347.712216 129.444201 
L 348.663352 130.348248 
L 348.980398 130.020741 
L 349.297443 129.961073 
L 349.614489 130.082845 
L 349.931534 130.397618 
L 350.24858 129.982875 
L 350.565625 130.561671 
L 350.88267 130.213164 
L 351.199716 130.604929 
L 351.516761 131.294337 
L 351.833807 130.740751 
L 352.150852 130.589133 
L 352.467898 130.822809 
L 352.784943 130.283417 
L 353.101989 130.68735 
L 353.419034 130.50424 
L 353.73608 129.904625 
L 354.053125 130.646921 
L 354.687216 129.985194 
L 355.004261 129.977035 
L 355.321307 130.223887 
L 355.638352 130.193264 
L 355.955398 129.997993 
L 356.272443 130.135833 
L 356.589489 130.397035 
L 357.22358 130.167881 
L 357.85767 130.305398 
L 358.174716 130.505332 
L 358.491761 130.181581 
L 358.808807 130.489115 
L 359.442898 130.091959 
L 359.759943 129.265459 
L 360.076989 129.368122 
L 360.394034 129.748727 
L 360.71108 129.728249 
L 361.028125 129.272479 
L 361.34517 129.345508 
L 361.662216 129.594932 
L 361.979261 129.031852 
L 362.613352 130.163698 
L 362.930398 130.015808 
L 363.247443 130.398374 
L 363.564489 130.497082 
L 363.881534 130.284284 
L 364.19858 129.895821 
L 364.515625 129.95164 
L 364.83267 130.228593 
L 365.149716 129.924436 
L 365.466761 129.945637 
L 365.783807 129.703161 
L 366.100852 129.928617 
L 366.417898 129.874596 
L 366.734943 129.065751 
L 367.051989 129.610412 
L 367.369034 129.641082 
L 367.68608 130.025137 
L 368.003125 129.282538 
L 368.32017 129.887531 
L 368.637216 129.134435 
L 368.954261 129.5941 
L 369.271307 129.310474 
L 369.588352 129.619078 
L 370.222443 129.876 
L 370.856534 129.413999 
L 371.17358 129.846728 
L 371.490625 129.839309 
L 371.80767 129.532719 
L 372.124716 129.929045 
L 372.441761 129.81411 
L 372.758807 129.001903 
L 373.392898 129.802867 
L 373.709943 129.036354 
L 374.026989 129.566592 
L 374.344034 128.963836 
L 374.66108 129.210057 
L 374.978125 129.202111 
L 375.29517 128.938855 
L 375.612216 128.992754 
L 375.929261 129.552311 
L 376.246307 129.595012 
L 376.563352 129.500006 
L 376.880398 129.81267 
L 377.197443 129.091221 
L 377.514489 129.534045 
L 377.831534 129.779661 
L 378.14858 129.192974 
L 378.465625 129.568089 
L 378.78267 129.663963 
L 379.099716 129.337801 
L 379.416761 129.403436 
L 379.733807 129.2691 
L 380.050852 129.505534 
L 380.684943 129.271972 
L 381.001989 128.770547 
L 381.319034 129.282876 
L 381.63608 128.817693 
L 381.953125 129.648637 
L 382.587216 129.777384 
L 382.904261 129.827788 
L 383.221307 129.643045 
L 383.538352 129.849396 
L 383.855398 129.708486 
L 384.172443 129.771251 
L 384.489489 129.565484 
L 384.806534 130.118856 
L 385.12358 130.012593 
L 385.440625 129.504526 
L 385.75767 129.831151 
L 386.074716 130.334078 
L 386.391761 129.457748 
L 386.708807 129.939677 
L 387.025852 129.908597 
L 387.342898 129.673478 
L 387.659943 129.825302 
L 387.976989 129.424542 
L 388.294034 130.086837 
L 388.61108 129.326513 
L 388.928125 129.394737 
L 389.562216 130.025031 
L 389.879261 129.457657 
L 390.196307 129.465405 
L 390.513352 128.855817 
L 391.147443 129.675592 
L 391.464489 129.273101 
L 391.781534 129.699137 
L 392.73267 129.275913 
L 393.049716 129.060016 
L 393.366761 129.018594 
L 393.683807 129.602737 
L 394.000852 129.918736 
L 394.317898 129.743232 
L 394.634943 129.039499 
L 394.951989 129.410146 
L 395.269034 129.372393 
L 395.58608 129.181139 
L 395.903125 129.177771 
L 396.22017 129.014223 
L 396.537216 129.492857 
L 396.854261 128.96327 
L 397.171307 129.274704 
L 397.805398 129.293524 
L 398.122443 129.699108 
L 398.439489 129.333775 
L 398.756534 129.364506 
L 399.07358 129.227237 
L 399.70767 129.937171 
L 400.024716 129.694828 
L 400.341761 130.339109 
L 400.658807 130.202544 
L 400.975852 129.356784 
L 401.292898 130.455383 
L 401.926989 128.905974 
L 402.244034 129.542912 
L 402.56108 129.139699 
L 402.878125 129.622053 
L 403.19517 129.102166 
L 403.512216 129.624722 
L 403.829261 129.29776 
L 404.146307 129.665699 
L 404.463352 129.234349 
L 405.097443 129.9291 
L 405.731534 129.623833 
L 406.365625 129.901507 
L 406.68267 129.783073 
L 407.316761 130.009547 
L 407.633807 129.779832 
L 407.950852 129.397797 
L 408.267898 129.898398 
L 408.901989 129.799989 
L 409.219034 130.19684 
L 409.53608 129.902221 
L 409.853125 130.106436 
L 410.17017 129.724585 
L 410.804261 130.254489 
L 411.121307 129.517266 
L 411.438352 130.249029 
L 411.755398 129.543914 
L 412.072443 129.596553 
L 412.389489 129.270234 
L 413.02358 129.248627 
L 413.65767 129.526264 
L 414.291761 129.563824 
L 414.608807 129.311416 
L 415.242898 129.2001 
L 415.559943 129.41512 
L 415.876989 130.050375 
L 416.194034 129.880463 
L 416.828125 129.140209 
L 417.14517 129.622756 
L 417.462216 129.33362 
L 417.779261 129.694871 
L 418.096307 128.930139 
L 418.413352 129.217149 
L 419.047443 129.404956 
L 419.364489 129.136685 
L 419.681534 130.160433 
L 419.99858 129.430545 
L 420.315625 129.717037 
L 420.63267 129.120133 
L 420.949716 129.5394 
L 421.583807 129.265994 
L 421.900852 129.492653 
L 422.217898 130.105262 
L 422.534943 128.873867 
L 423.169034 129.19581 
L 423.48608 128.567282 
L 423.803125 129.009785 
L 424.12017 128.841077 
L 424.437216 129.666749 
L 424.754261 129.075663 
L 425.071307 129.469776 
L 425.388352 129.376064 
L 425.705398 129.002378 
L 426.022443 129.031508 
L 426.656534 128.839035 
L 426.97358 128.245778 
L 427.290625 128.814183 
L 427.60767 128.826568 
L 427.924716 128.56749 
L 428.241761 128.927847 
L 428.558807 129.097931 
L 428.875852 128.994362 
L 429.192898 129.273158 
L 429.509943 128.838646 
L 429.826989 128.999002 
L 430.144034 128.377869 
L 430.46108 128.440455 
L 430.778125 129.010179 
L 431.09517 128.580631 
L 431.412216 129.050767 
L 431.729261 128.845646 
L 432.046307 129.086807 
L 432.680398 129.15741 
L 432.997443 129.5106 
L 433.314489 128.575541 
L 433.94858 128.760225 
L 434.265625 129.086237 
L 434.899716 128.731246 
L 435.533807 129.323534 
L 435.850852 128.882291 
L 436.167898 129.199844 
L 436.484943 129.260641 
L 436.801989 129.715386 
L 437.119034 129.606151 
L 437.43608 129.301528 
L 437.753125 129.802307 
L 438.07017 129.950324 
L 438.387216 129.699864 
L 438.704261 129.874097 
L 439.021307 129.799927 
L 439.338352 130.122401 
L 439.655398 130.100335 
L 439.972443 129.822963 
L 440.92358 129.595272 
L 441.240625 129.9061 
L 441.874716 130.102403 
L 442.191761 129.877028 
L 442.508807 129.822044 
L 442.825852 130.242333 
L 443.142898 129.830423 
L 443.776989 129.706848 
L 444.094034 130.056645 
L 444.728125 129.658311 
L 445.04517 129.922129 
L 445.362216 129.511503 
L 445.679261 129.799767 
L 446.313352 129.697311 
L 446.630398 129.698124 
L 446.947443 130.046745 
L 447.264489 129.713902 
L 447.581534 129.811349 
L 447.89858 130.063575 
L 448.215625 129.193286 
L 448.53267 129.724635 
L 448.849716 129.657031 
L 449.166761 129.248464 
L 449.483807 129.568345 
L 449.800852 129.219842 
L 450.117898 129.909134 
L 450.434943 129.257718 
L 450.751989 129.274771 
L 451.069034 129.128446 
L 451.38608 129.49554 
L 451.703125 129.473543 
L 452.02017 129.575969 
L 452.654261 129.300355 
L 452.971307 129.008837 
L 453.288352 128.870192 
L 453.922443 129.004234 
L 454.239489 128.737137 
L 454.556534 129.50202 
L 454.87358 129.2725 
L 455.190625 129.694257 
L 455.824716 129.29811 
L 456.141761 129.580447 
L 456.458807 129.122254 
L 456.775852 129.78399 
L 457.092898 129.300112 
L 457.409943 129.313821 
L 457.726989 128.890595 
L 458.044034 129.019493 
L 458.36108 129.438576 
L 458.678125 129.237903 
L 458.99517 129.726783 
L 459.312216 128.955365 
L 459.629261 129.385717 
L 459.946307 129.172345 
L 460.263352 129.462424 
L 460.897443 128.807651 
L 461.214489 129.433521 
L 461.531534 129.657752 
L 461.84858 129.521103 
L 462.165625 129.649701 
L 462.48267 130.221773 
L 463.116761 129.944898 
L 463.433807 129.565189 
L 463.750852 129.363485 
L 464.067898 129.732546 
L 464.384943 129.706345 
L 464.701989 130.18155 
L 465.019034 129.130463 
L 465.33608 129.499494 
L 465.97017 129.123866 
L 466.287216 129.637462 
L 466.604261 129.442032 
L 466.921307 129.511014 
L 467.555398 129.058644 
L 467.872443 129.60906 
L 468.506534 129.497795 
L 468.82358 129.797556 
L 469.140625 129.384087 
L 469.45767 129.356319 
L 469.774716 129.781112 
L 470.725852 129.27109 
L 471.359943 128.989895 
L 471.994034 129.062661 
L 472.31108 128.85382 
L 472.628125 129.446803 
L 472.94517 128.935977 
L 473.262216 129.123099 
L 473.579261 129.496972 
L 473.896307 129.571477 
L 474.213352 129.448486 
L 474.530398 129.524786 
L 474.847443 129.226414 
L 475.164489 129.211072 
L 475.481534 128.875025 
L 476.115625 128.952538 
L 476.43267 129.462962 
L 477.066761 128.496338 
L 477.383807 129.54042 
L 478.017898 128.991579 
L 478.334943 129.523479 
L 478.651989 129.606585 
L 478.969034 129.064465 
L 479.603125 129.514023 
L 479.92017 129.579943 
L 480.237216 129.492179 
L 480.554261 129.261606 
L 480.871307 129.510614 
L 481.188352 129.445875 
L 481.505398 129.803308 
L 481.822443 129.184501 
L 482.139489 129.379273 
L 482.456534 129.355883 
L 482.77358 129.889387 
L 483.090625 129.523718 
L 483.40767 129.38543 
L 484.041761 129.336524 
L 484.358807 129.622795 
L 484.675852 129.359805 
L 484.992898 129.582036 
L 485.309943 129.511781 
L 485.626989 129.21919 
L 485.944034 129.682594 
L 486.26108 129.575525 
L 486.578125 129.732211 
L 486.89517 129.452428 
L 487.212216 129.57343 
L 487.529261 129.343953 
L 488.163352 129.836596 
L 488.480398 129.896478 
L 489.114489 129.396517 
L 489.431534 129.840954 
L 489.74858 129.315289 
L 490.065625 129.479751 
L 490.38267 129.788044 
L 490.699716 129.379115 
L 491.016761 129.464909 
L 491.333807 129.72964 
L 491.650852 129.020022 
L 491.967898 129.199585 
L 492.601989 129.304889 
L 492.919034 129.139614 
L 493.23608 129.280327 
L 493.553125 128.851629 
L 493.87017 129.392385 
L 494.187216 129.306136 
L 494.504261 129.432736 
L 494.821307 129.292222 
L 495.138352 129.882478 
L 495.772443 129.442961 
L 496.089489 129.709876 
L 496.72358 129.479887 
L 497.040625 129.937817 
L 497.35767 129.6404 
L 497.674716 129.128633 
L 497.991761 129.435908 
L 498.308807 129.31177 
L 498.625852 128.821428 
L 498.942898 129.516342 
L 499.259943 129.079846 
L 499.576989 129.725581 
L 499.894034 129.960516 
L 500.21108 129.695112 
L 500.528125 129.865406 
L 501.162216 129.467901 
L 501.479261 129.835513 
L 501.796307 129.45184 
L 502.747443 129.868273 
L 503.064489 129.624646 
L 503.381534 130.040334 
L 504.015625 130.172623 
L 504.33267 129.724317 
L 504.649716 129.865639 
L 504.966761 130.188866 
L 505.283807 129.740526 
L 505.600852 129.6303 
L 505.917898 130.437957 
L 506.551989 129.984182 
L 506.869034 130.249862 
L 507.503125 129.815413 
L 508.137216 129.99769 
L 508.454261 129.801395 
L 508.771307 129.998155 
L 509.088352 129.816605 
L 509.405398 129.828816 
L 509.722443 129.967745 
L 510.039489 129.530592 
L 510.356534 129.760931 
L 510.67358 129.556921 
L 510.990625 130.348207 
L 511.30767 130.70572 
L 511.624716 129.450114 
L 511.941761 129.926243 
L 512.258807 129.676824 
L 512.575852 129.984201 
L 512.892898 129.713325 
L 513.209943 130.18868 
L 513.526989 130.127643 
L 513.844034 129.717947 
L 514.16108 129.963325 
L 514.478125 129.994539 
L 514.79517 129.875418 
L 515.112216 129.925317 
L 515.429261 130.363943 
L 516.063352 129.751468 
L 516.380398 129.893227 
L 517.014489 129.748545 
L 517.331534 129.946448 
L 517.64858 129.83901 
L 517.965625 129.419426 
L 518.28267 129.424183 
L 518.599716 130.136087 
L 518.916761 129.759768 
L 519.233807 130.017333 
L 519.550852 129.576246 
L 519.867898 129.96932 
L 520.184943 129.440286 
L 520.501989 129.690048 
L 520.819034 130.100448 
L 521.13608 129.791428 
L 521.453125 129.967481 
L 521.77017 129.94543 
L 522.404261 130.352642 
L 523.038352 129.894532 
L 523.355398 130.272412 
L 523.672443 130.359727 
L 523.989489 130.290731 
L 524.306534 130.448816 
L 524.62358 130.069052 
L 525.25767 130.289215 
L 525.574716 130.070962 
L 525.891761 130.242757 
L 526.208807 130.058044 
L 526.525852 130.358225 
L 526.842898 129.982377 
L 527.476989 130.052075 
L 528.11108 129.500457 
L 528.428125 130.502013 
L 528.74517 129.99777 
L 529.379261 129.66346 
L 529.696307 129.654681 
L 530.013352 129.876855 
L 530.647443 130.056785 
L 530.964489 129.903017 
L 531.281534 129.989356 
L 531.59858 129.72271 
L 531.915625 130.420184 
L 532.23267 130.168323 
L 532.549716 130.513852 
L 532.866761 129.931979 
L 533.183807 130.543259 
L 533.500852 130.324122 
L 533.817898 130.274369 
L 534.134943 129.716758 
L 534.451989 129.947767 
L 535.08608 129.907772 
L 535.403125 130.187832 
L 536.037216 130.009947 
L 536.354261 129.959176 
L 536.671307 130.128845 
L 537.939489 129.855749 
L 538.256534 129.953296 
L 538.57358 129.875475 
L 538.890625 130.23878 
L 539.524716 129.929678 
L 540.158807 130.216301 
L 540.475852 130.51656 
L 540.792898 130.115561 
L 541.109943 129.944862 
L 541.426989 130.249304 
L 541.744034 130.062954 
L 542.378125 130.15239 
L 542.69517 130.516736 
L 543.329261 130.374908 
L 543.646307 130.604817 
L 543.963352 130.479651 
L 544.280398 130.810025 
L 544.597443 130.310741 
L 544.914489 130.799782 
L 545.231534 130.849729 
L 545.54858 130.317247 
L 546.18267 130.516741 
L 546.499716 130.275585 
L 546.816761 130.291907 
L 547.450852 129.935586 
L 547.767898 129.705002 
L 548.084943 129.968654 
L 548.401989 129.900032 
L 548.719034 130.111113 
L 549.03608 129.865407 
L 549.353125 129.931219 
L 549.67017 130.139007 
L 549.987216 129.856051 
L 550.304261 129.903933 
L 550.621307 130.170677 
L 551.255398 129.593155 
L 551.572443 130.266506 
L 551.889489 129.906515 
L 552.206534 130.225397 
L 552.52358 129.840535 
L 552.840625 130.07707 
L 553.15767 130.139934 
L 553.474716 129.53315 
L 553.791761 129.581369 
L 554.108807 130.091385 
L 554.742898 130.39865 
L 555.059943 130.281634 
L 555.376989 130.462478 
L 556.01108 129.882831 
L 556.328125 130.29118 
L 556.64517 130.192206 
L 556.962216 129.954249 
L 557.596307 130.526409 
L 558.230398 130.024417 
L 558.547443 130.510948 
L 559.181534 130.575007 
L 559.49858 130.507783 
L 559.815625 130.24699 
L 560.13267 130.265493 
L 560.449716 130.477993 
L 560.766761 130.378056 
L 561.083807 130.138071 
L 562.351989 130.183653 
L 562.669034 129.371924 
L 562.98608 129.37723 
L 563.303125 129.238581 
L 563.62017 129.848817 
L 563.937216 129.320916 
L 564.571307 130.346846 
L 564.888352 129.741806 
L 565.205398 129.747333 
L 565.522443 129.569302 
L 565.839489 129.976657 
L 566.156534 129.580482 
L 566.790625 129.630947 
L 567.10767 129.124811 
L 567.424716 129.749459 
L 567.741761 129.352507 
L 568.375852 129.435989 
L 568.692898 129.645588 
L 569.009943 129.217707 
L 569.326989 129.459766 
L 569.644034 129.325309 
L 569.96108 129.507689 
L 570.278125 129.505483 
L 570.59517 129.650807 
L 570.912216 129.1473 
L 571.229261 129.414349 
L 571.546307 129.233745 
L 571.863352 129.62114 
L 572.180398 129.205077 
L 572.497443 129.964109 
L 572.814489 129.676834 
L 573.131534 129.994424 
L 574.08267 129.971718 
L 574.399716 129.643 
L 574.716761 130.14189 
L 575.033807 129.28967 
L 575.667898 130.194342 
L 576.301989 129.370981 
L 576.93608 129.687996 
L 577.253125 130.315318 
L 577.57017 129.993432 
L 577.887216 129.973416 
L 578.204261 129.345928 
L 578.521307 129.826678 
L 578.838352 129.918547 
L 579.155398 129.735927 
L 579.472443 129.950543 
L 579.789489 129.775137 
L 580.106534 130.138228 
L 580.740625 129.993206 
L 581.05767 130.037026 
L 581.374716 129.676673 
L 581.691761 130.012923 
L 582.008807 129.968165 
L 582.325852 129.519359 
L 582.642898 129.442734 
L 583.276989 129.888315 
L 583.594034 129.246611 
L 583.91108 129.463434 
L 584.228125 129.42309 
L 584.54517 129.937439 
L 585.179261 129.920235 
L 585.496307 129.509941 
L 585.813352 130.006985 
L 586.130398 129.643469 
L 587.081534 130.196112 
L 587.39858 129.685273 
L 588.03267 129.976608 
L 588.349716 129.464967 
L 588.666761 129.737233 
L 589.300852 129.861719 
L 589.617898 129.664028 
L 589.934943 129.754975 
L 590.251989 130.041056 
L 590.569034 129.646011 
L 590.88608 129.957329 
L 591.203125 129.916543 
L 591.837216 130.125487 
L 592.154261 129.865277 
L 592.471307 130.002475 
L 592.788352 129.894204 
L 593.105398 129.492841 
L 593.422443 129.431343 
L 593.739489 129.667043 
L 594.056534 129.670024 
L 594.37358 129.328093 
L 594.690625 129.688982 
L 595.00767 129.687974 
L 595.324716 129.538604 
L 595.641761 129.769798 
L 595.958807 129.761666 
L 596.275852 129.990004 
L 596.592898 129.401124 
L 596.909943 129.86412 
L 597.86108 129.446086 
L 598.178125 129.67754 
L 598.49517 130.070999 
L 598.812216 129.786346 
L 599.129261 129.698637 
L 599.446307 129.402492 
L 599.763352 129.997671 
L 600.080398 129.620257 
L 600.397443 129.86406 
L 600.714489 129.941256 
L 601.031534 130.185578 
L 601.34858 130.015004 
L 601.665625 130.136425 
L 601.98267 129.805566 
L 602.299716 129.773396 
L 602.616761 129.910437 
L 602.933807 130.36057 
L 603.250852 130.060843 
L 603.567898 130.029431 
L 603.884943 129.837197 
L 604.201989 130.065819 
L 604.519034 130.138698 
L 605.153125 129.854661 
L 605.47017 129.901732 
L 605.787216 129.749885 
L 606.104261 130.04958 
L 606.421307 129.852055 
L 607.055398 129.75108 
L 607.372443 130.098498 
L 608.006534 130.327073 
L 608.32358 130.014289 
L 608.640625 129.992794 
L 608.95767 129.711087 
L 609.274716 130.504402 
L 609.591761 129.926739 
L 609.908807 130.502778 
L 610.542898 130.191619 
L 610.859943 130.301014 
L 611.176989 130.560973 
L 611.494034 130.32816 
L 611.81108 131.026182 
L 612.128125 130.669899 
L 612.44517 130.142439 
L 612.762216 130.453694 
L 613.079261 130.366937 
L 613.396307 130.452992 
L 613.713352 129.757263 
L 614.030398 129.638435 
L 614.347443 129.867173 
L 614.664489 130.712006 
L 614.981534 130.721839 
L 615.615625 130.344202 
L 615.93267 130.458389 
L 616.249716 130.013942 
L 616.566761 130.336517 
L 616.883807 130.422266 
L 617.200852 130.219149 
L 617.517898 130.413966 
L 617.834943 130.100774 
L 618.151989 130.276927 
L 618.78608 130.897638 
L 619.103125 130.518907 
L 619.42017 130.753962 
L 619.737216 130.157476 
L 620.054261 130.084419 
L 620.371307 130.830762 
L 621.005398 130.213425 
L 621.322443 130.672204 
L 621.639489 130.32692 
L 621.956534 130.80796 
L 622.590625 130.393164 
L 622.90767 130.327747 
L 623.224716 130.071959 
L 623.541761 130.332992 
L 623.858807 130.251132 
L 624.175852 130.295532 
L 624.492898 130.785195 
L 625.126989 130.204197 
L 625.126989 130.204197 
" clip-path="url(#pe57309c7da)" style="fill: none; stroke: #1f77b4; stroke-width: 1.5; stroke-linecap: square"/>
   </g>
   <g id="line2d_16">
    <path d="M 117.854261 296.03625 
L 118.171307 245.888602 
L 118.488352 214.115786 
L 118.805398 230.211874 
L 119.122443 218.599268 
L 119.439489 201.279694 
L 119.756534 204.535087 
L 120.07358 177.439579 
L 120.390625 178.201539 
L 120.70767 178.387096 
L 121.024716 192.048813 
L 121.341761 174.811641 
L 121.658807 173.893449 
L 121.975852 172.251017 
L 122.292898 166.690114 
L 122.609943 165.151511 
L 122.926989 167.933912 
L 123.244034 161.328426 
L 123.56108 164.204354 
L 123.878125 153.408818 
L 124.19517 156.496962 
L 124.829261 141.56019 
L 125.146307 150.693481 
L 125.463352 143.469704 
L 125.780398 147.780062 
L 126.097443 149.479849 
L 126.414489 140.208749 
L 126.731534 138.160794 
L 127.04858 138.65618 
L 127.365625 140.776186 
L 127.68267 140.215124 
L 127.999716 138.391512 
L 128.316761 140.082936 
L 128.633807 140.228622 
L 129.267898 141.201404 
L 129.584943 139.392105 
L 129.901989 138.851676 
L 130.219034 139.384558 
L 130.53608 140.740816 
L 130.853125 142.600893 
L 131.17017 135.421926 
L 131.487216 138.496197 
L 131.804261 137.892038 
L 132.438352 136.234525 
L 132.755398 136.311622 
L 133.072443 135.915689 
L 133.389489 136.605064 
L 133.706534 134.887215 
L 134.02358 133.797282 
L 134.65767 135.471295 
L 134.974716 135.576047 
L 135.608807 136.853589 
L 135.925852 136.368541 
L 136.242898 134.730041 
L 136.559943 135.079856 
L 136.876989 134.857729 
L 137.194034 135.928269 
L 137.51108 135.902864 
L 137.828125 135.479767 
L 138.14517 136.290746 
L 138.779261 134.739593 
L 139.096307 134.136329 
L 139.413352 135.905185 
L 139.730398 134.292529 
L 140.047443 133.586184 
L 140.364489 134.703917 
L 140.681534 134.803726 
L 140.99858 133.847583 
L 141.315625 133.400648 
L 141.63267 134.508056 
L 141.949716 134.677574 
L 142.266761 133.207451 
L 142.583807 133.966004 
L 142.900852 133.320137 
L 143.217898 133.888563 
L 143.534943 133.800353 
L 143.851989 134.327242 
L 144.169034 133.302039 
L 144.48608 133.276394 
L 145.437216 133.938771 
L 145.754261 134.482109 
L 146.071307 133.800864 
L 146.388352 133.419586 
L 146.705398 133.970658 
L 147.339489 133.536974 
L 147.97358 132.734868 
L 148.290625 133.151006 
L 148.60767 133.268245 
L 148.924716 133.664162 
L 149.241761 132.938008 
L 149.558807 133.474141 
L 149.875852 133.107742 
L 150.192898 133.13171 
L 150.509943 133.333721 
L 150.826989 133.905861 
L 151.144034 133.8752 
L 151.46108 133.058296 
L 151.778125 132.906614 
L 152.09517 133.401837 
L 152.412216 132.611227 
L 153.046307 133.527885 
L 153.363352 132.677103 
L 153.680398 133.470667 
L 153.997443 133.101942 
L 154.314489 132.407692 
L 154.631534 132.923927 
L 155.265625 133.133008 
L 155.58267 132.127532 
L 155.899716 132.148788 
L 156.216761 132.723923 
L 156.533807 132.550499 
L 157.167898 132.725377 
L 157.484943 132.730674 
L 157.801989 132.97607 
L 158.43608 131.981124 
L 158.753125 132.270329 
L 159.07017 132.740458 
L 159.387216 132.811208 
L 159.704261 133.022354 
L 160.021307 132.379132 
L 160.338352 132.85824 
L 160.655398 132.55696 
L 160.972443 132.710993 
L 161.606534 132.46765 
L 162.240625 132.807079 
L 162.874716 132.440168 
L 163.191761 132.202275 
L 163.508807 132.521364 
L 163.825852 133.040405 
L 164.142898 132.525261 
L 164.459943 132.330627 
L 164.776989 131.793893 
L 165.094034 132.032172 
L 165.41108 131.869341 
L 165.728125 131.536319 
L 166.04517 131.891923 
L 166.362216 131.570927 
L 166.996307 132.442361 
L 167.313352 132.353453 
L 167.630398 131.994056 
L 167.947443 132.252207 
L 168.264489 132.03052 
L 168.581534 132.59314 
L 168.89858 132.12911 
L 169.215625 133.529531 
L 169.53267 132.898776 
L 169.849716 131.845893 
L 170.166761 132.623624 
L 170.483807 132.22945 
L 170.800852 132.143768 
L 171.117898 132.356335 
L 171.434943 131.998474 
L 171.751989 132.373811 
L 172.069034 132.069205 
L 172.38608 132.132424 
L 172.703125 132.017815 
L 173.02017 132.31129 
L 173.337216 132.154329 
L 173.654261 132.182232 
L 173.971307 132.54397 
L 174.288352 132.546299 
L 174.605398 132.055983 
L 174.922443 132.3148 
L 175.239489 131.939997 
L 175.87358 132.088832 
L 176.190625 132.0281 
L 176.50767 132.726062 
L 176.824716 132.686055 
L 177.141761 132.429676 
L 177.458807 131.888833 
L 177.775852 132.689105 
L 178.092898 131.980631 
L 178.726989 132.405713 
L 179.044034 132.911299 
L 179.36108 132.242697 
L 180.312216 133.309819 
L 180.629261 132.617213 
L 180.946307 132.793237 
L 181.263352 133.184172 
L 181.897443 132.476888 
L 182.531534 132.775752 
L 182.84858 132.19803 
L 183.165625 133.001959 
L 183.799716 132.281968 
L 184.116761 132.615187 
L 184.433807 132.264056 
L 184.750852 132.511456 
L 185.067898 132.562455 
L 185.384943 132.196387 
L 186.33608 132.625033 
L 187.287216 132.23886 
L 187.604261 132.926132 
L 187.921307 132.622763 
L 188.238352 132.725486 
L 188.555398 134.327361 
L 188.872443 131.88328 
L 189.189489 132.567378 
L 189.506534 132.624808 
L 189.82358 132.867478 
L 190.140625 132.078352 
L 190.45767 132.298725 
L 190.774716 132.375235 
L 191.091761 132.899031 
L 191.408807 132.299455 
L 192.042898 132.698965 
L 192.359943 132.749106 
L 192.676989 132.572047 
L 192.994034 132.735333 
L 193.31108 132.501331 
L 193.628125 132.445749 
L 193.94517 132.800844 
L 194.579261 132.528069 
L 194.896307 133.418649 
L 195.213352 132.304059 
L 195.530398 132.693067 
L 195.847443 132.084031 
L 196.164489 132.523896 
L 196.481534 132.600118 
L 197.115625 133.298588 
L 197.43267 132.386039 
L 198.066761 133.19902 
L 198.383807 132.739007 
L 198.700852 133.198867 
L 199.017898 132.736262 
L 199.334943 133.412287 
L 199.651989 132.808439 
L 199.969034 132.475197 
L 200.28608 132.640403 
L 200.603125 132.634424 
L 200.92017 133.023913 
L 201.237216 132.313796 
L 201.554261 133.014596 
L 202.188352 132.310629 
L 202.505398 132.751505 
L 202.822443 132.027011 
L 203.139489 132.637068 
L 203.456534 131.997341 
L 203.77358 132.65365 
L 204.40767 132.254952 
L 204.724716 133.166727 
L 205.041761 133.161044 
L 205.358807 132.868057 
L 205.992898 132.715886 
L 206.309943 133.313758 
L 206.626989 133.259094 
L 206.944034 132.374664 
L 207.26108 132.370019 
L 207.578125 133.122317 
L 208.212216 132.516071 
L 208.529261 132.596273 
L 208.846307 134.212614 
L 209.163352 132.868127 
L 209.797443 133.448304 
L 210.114489 132.497697 
L 210.431534 132.84084 
L 210.74858 132.998419 
L 211.38267 132.979176 
L 211.699716 133.124053 
L 212.016761 132.775361 
L 212.333807 133.26447 
L 212.650852 133.447651 
L 212.967898 132.831682 
L 213.284943 132.643544 
L 213.601989 132.71595 
L 213.919034 133.071013 
L 214.23608 133.205481 
L 214.87017 133.018732 
L 215.504261 133.212742 
L 215.821307 133.070536 
L 216.138352 132.7111 
L 216.455398 132.619717 
L 217.089489 132.757311 
L 217.406534 132.287485 
L 217.72358 132.917935 
L 218.040625 132.7582 
L 218.35767 132.74229 
L 218.674716 133.203917 
L 218.991761 132.704265 
L 219.308807 132.688085 
L 219.625852 133.394741 
L 220.259943 132.715876 
L 220.576989 132.583073 
L 220.894034 133.363201 
L 221.21108 133.218542 
L 221.528125 133.327864 
L 222.162216 133.046398 
L 222.796307 132.391266 
L 223.113352 132.746404 
L 223.747443 132.579992 
L 224.064489 133.6675 
L 224.381534 133.153177 
L 224.69858 131.871708 
L 225.015625 132.866669 
L 225.649716 132.529901 
L 225.966761 131.081888 
L 226.283807 132.932414 
L 226.600852 132.085451 
L 226.917898 132.760385 
L 227.234943 132.146346 
L 227.551989 132.88974 
L 227.869034 132.563737 
L 228.18608 133.069097 
L 228.503125 133.365032 
L 228.82017 132.478084 
L 229.137216 132.902677 
L 229.454261 132.039826 
L 229.771307 132.423971 
L 230.088352 131.618577 
L 230.405398 132.19232 
L 230.722443 132.203069 
L 231.039489 132.514157 
L 231.356534 131.714142 
L 231.67358 131.917348 
L 231.990625 132.424369 
L 232.624716 132.100815 
L 233.258807 132.229428 
L 233.575852 132.13933 
L 233.892898 132.49344 
L 234.209943 132.105242 
L 234.526989 132.713502 
L 234.844034 132.33379 
L 235.16108 132.39439 
L 235.478125 132.209234 
L 235.79517 132.594199 
L 236.112216 132.673185 
L 236.429261 132.636544 
L 236.746307 132.045622 
L 237.063352 132.008696 
L 237.380398 132.296281 
L 237.697443 132.24379 
L 238.014489 132.629577 
L 238.331534 132.472327 
L 238.64858 132.670994 
L 238.965625 132.354122 
L 239.28267 132.323109 
L 239.599716 132.050248 
L 239.916761 132.447097 
L 240.233807 132.604512 
L 240.550852 132.27953 
L 240.867898 132.520756 
L 241.184943 132.360568 
L 241.501989 132.645127 
L 241.819034 132.133955 
L 242.13608 132.289025 
L 242.453125 132.21375 
L 242.77017 132.499823 
L 243.087216 132.318607 
L 243.404261 132.631839 
L 243.721307 132.517404 
L 244.038352 132.130841 
L 244.989489 132.7143 
L 245.306534 132.746425 
L 246.574716 132.34459 
L 246.891761 132.324889 
L 247.525852 132.673226 
L 247.842898 132.289639 
L 248.476989 132.640017 
L 248.794034 132.315031 
L 249.428125 132.864238 
L 250.062216 132.427692 
L 250.379261 132.489386 
L 250.696307 132.695802 
L 251.013352 132.442031 
L 251.330398 132.444117 
L 251.647443 132.791402 
L 251.964489 132.49101 
L 252.281534 132.756234 
L 252.59858 132.738034 
L 252.915625 133.154523 
L 253.23267 132.749366 
L 253.549716 132.783611 
L 253.866761 132.704427 
L 254.183807 132.845462 
L 254.817898 132.135485 
L 255.134943 132.562593 
L 256.72017 132.575102 
L 257.037216 132.82337 
L 257.354261 132.520394 
L 257.671307 132.787151 
L 257.988352 132.848905 
L 258.305398 132.732427 
L 258.939489 132.34149 
L 259.256534 132.569255 
L 259.57358 132.546035 
L 259.890625 132.382392 
L 260.20767 132.401055 
L 260.524716 132.942796 
L 260.841761 132.836618 
L 261.158807 132.045046 
L 261.475852 132.712118 
L 262.109943 132.370883 
L 263.06108 132.068622 
L 263.378125 132.852751 
L 263.69517 132.256039 
L 264.329261 132.592666 
L 264.646307 132.348413 
L 264.963352 132.303566 
L 265.280398 132.914314 
L 265.597443 132.387026 
L 265.914489 132.243224 
L 266.231534 132.85367 
L 267.18267 132.076505 
L 267.816761 132.539537 
L 268.133807 132.486669 
L 268.450852 132.644096 
L 269.401989 132.471121 
L 269.719034 132.113016 
L 270.03608 132.344418 
L 270.353125 132.339665 
L 270.987216 132.715247 
L 271.304261 133.01542 
L 271.621307 132.548661 
L 271.938352 132.326819 
L 272.255398 131.941895 
L 272.572443 132.629059 
L 272.889489 132.41616 
L 273.206534 132.777514 
L 273.52358 132.625445 
L 273.840625 132.205738 
L 274.15767 132.573852 
L 274.474716 132.351475 
L 274.791761 132.738733 
L 275.108807 132.609102 
L 275.425852 132.661179 
L 275.742898 132.248434 
L 276.059943 132.676072 
L 276.376989 132.574415 
L 276.694034 132.616665 
L 277.01108 132.074958 
L 277.328125 132.590863 
L 277.64517 132.401085 
L 277.962216 132.366064 
L 278.596307 132.649835 
L 278.913352 131.936974 
L 279.230398 132.337399 
L 279.547443 132.525656 
L 279.864489 132.230222 
L 280.49858 132.167707 
L 280.815625 132.493532 
L 281.13267 132.462083 
L 281.766761 132.110215 
L 282.083807 132.661394 
L 282.400852 132.257731 
L 282.717898 132.707855 
L 283.351989 132.689304 
L 283.669034 132.23817 
L 283.98608 132.636134 
L 284.303125 132.398538 
L 284.62017 131.929444 
L 285.254261 132.252696 
L 285.571307 132.351063 
L 285.888352 132.641152 
L 286.205398 131.990749 
L 286.522443 132.540849 
L 286.839489 131.671488 
L 287.47358 132.12717 
L 287.790625 132.034189 
L 288.424716 132.369767 
L 288.741761 131.803189 
L 289.375852 132.095206 
L 289.692898 132.051681 
L 290.009943 132.303661 
L 290.96108 132.161085 
L 291.278125 131.967513 
L 291.59517 132.354161 
L 291.912216 131.975016 
L 292.229261 132.182796 
L 292.546307 132.544544 
L 292.863352 131.972249 
L 293.497443 131.915321 
L 293.814489 132.331115 
L 294.44858 131.816527 
L 294.765625 132.304512 
L 295.08267 132.377821 
L 295.399716 132.626734 
L 295.716761 131.688815 
L 296.033807 131.714281 
L 296.350852 131.614019 
L 296.667898 132.079389 
L 296.984943 132.188325 
L 297.301989 132.439305 
L 297.619034 131.979743 
L 297.93608 132.116415 
L 298.253125 132.016496 
L 298.57017 131.69748 
L 299.204261 131.803803 
L 299.521307 132.211845 
L 300.155398 131.57137 
L 300.789489 131.918404 
L 301.740625 131.558009 
L 302.05767 132.026717 
L 302.374716 131.699965 
L 302.691761 131.870529 
L 303.008807 131.543193 
L 303.325852 132.062371 
L 303.642898 131.957107 
L 303.959943 132.110093 
L 304.276989 132.470885 
L 304.594034 131.054369 
L 304.91108 131.723853 
L 305.228125 131.715947 
L 305.54517 132.028528 
L 306.179261 131.659274 
L 306.496307 132.247391 
L 306.813352 131.672925 
L 307.130398 131.597974 
L 307.447443 131.732283 
L 307.764489 131.699916 
L 308.39858 131.758162 
L 308.715625 131.795467 
L 309.03267 131.673372 
L 309.349716 131.809686 
L 309.983807 131.494584 
L 310.300852 131.954713 
L 310.934943 131.584319 
L 311.251989 131.833002 
L 311.88608 131.703295 
L 312.203125 131.677965 
L 312.52017 131.992524 
L 312.837216 131.968231 
L 313.154261 131.450183 
L 313.471307 131.479969 
L 313.788352 131.844268 
L 314.739489 132.008511 
L 315.37358 131.492316 
L 315.690625 131.757611 
L 316.324716 131.993016 
L 316.641761 131.637031 
L 316.958807 131.938927 
L 317.275852 131.774237 
L 317.592898 131.964773 
L 318.226989 131.895405 
L 318.544034 131.948727 
L 318.86108 131.515204 
L 319.49517 132.207389 
L 319.812216 131.735948 
L 320.129261 132.070266 
L 320.446307 131.860781 
L 320.763352 132.190618 
L 322.665625 131.559104 
L 322.98267 131.671975 
L 323.299716 131.950997 
L 323.616761 131.896108 
L 323.933807 131.64032 
L 324.250852 131.933831 
L 324.884943 131.75569 
L 325.83608 132.094871 
L 326.153125 131.759928 
L 326.47017 132.166826 
L 326.787216 131.618161 
L 327.104261 131.561967 
L 327.421307 131.859707 
L 328.055398 132.088196 
L 328.372443 132.030596 
L 328.689489 131.648646 
L 329.006534 131.550221 
L 329.32358 131.971596 
L 329.640625 131.857384 
L 329.95767 131.878065 
L 330.591761 131.605734 
L 330.908807 131.69852 
L 331.225852 131.660687 
L 331.542898 131.775266 
L 331.859943 131.438046 
L 332.176989 131.552678 
L 332.494034 131.396635 
L 333.128125 131.83833 
L 333.44517 131.473621 
L 334.396307 131.920461 
L 334.713352 131.773751 
L 335.030398 132.306822 
L 335.347443 131.304828 
L 335.664489 131.778464 
L 335.981534 131.538824 
L 336.29858 131.763851 
L 336.615625 131.714413 
L 336.93267 131.429222 
L 337.249716 131.819786 
L 337.566761 131.845981 
L 337.883807 131.56035 
L 338.517898 132.002589 
L 338.834943 131.722383 
L 339.78608 131.521583 
L 340.103125 131.46646 
L 340.737216 131.50372 
L 341.054261 131.938737 
L 341.371307 131.92355 
L 341.688352 132.035225 
L 342.322443 131.24189 
L 342.639489 131.710644 
L 342.956534 131.549152 
L 343.27358 131.866717 
L 343.590625 131.670899 
L 343.90767 132.145703 
L 344.224716 131.633061 
L 344.541761 132.025985 
L 344.858807 131.635501 
L 345.175852 131.846807 
L 345.492898 131.586124 
L 345.809943 131.59473 
L 346.126989 131.844681 
L 346.444034 131.914229 
L 346.76108 131.781952 
L 347.078125 131.862954 
L 347.39517 131.612892 
L 347.712216 132.049388 
L 348.346307 131.710847 
L 348.980398 131.814407 
L 350.24858 131.633862 
L 350.565625 131.919696 
L 350.88267 131.889533 
L 351.199716 131.308385 
L 351.516761 131.816644 
L 351.833807 131.87194 
L 352.150852 132.250742 
L 352.467898 131.864412 
L 352.784943 132.072855 
L 353.73608 131.621402 
L 354.053125 132.11461 
L 354.687216 131.885377 
L 355.004261 131.685562 
L 355.638352 132.014241 
L 355.955398 131.842992 
L 356.272443 131.883854 
L 356.589489 131.669728 
L 357.22358 132.134826 
L 357.540625 132.196674 
L 357.85767 131.534695 
L 358.174716 132.15809 
L 358.808807 131.824913 
L 359.125852 131.623415 
L 359.442898 131.993667 
L 359.759943 131.661674 
L 360.394034 131.780232 
L 360.71108 132.19422 
L 361.028125 131.92404 
L 361.34517 132.082007 
L 361.979261 131.905608 
L 362.296307 131.992586 
L 362.613352 131.585773 
L 362.930398 131.977195 
L 363.247443 131.712126 
L 363.881534 131.844544 
L 364.19858 131.698864 
L 364.515625 131.845577 
L 364.83267 131.667254 
L 365.149716 132.02546 
L 366.100852 131.764295 
L 366.734943 132.132961 
L 367.051989 132.054161 
L 367.369034 132.244216 
L 367.68608 132.261325 
L 368.003125 131.83644 
L 368.32017 132.054553 
L 368.637216 132.070764 
L 368.954261 131.745654 
L 369.271307 131.886346 
L 370.222443 131.744843 
L 370.539489 132.091431 
L 371.17358 131.787761 
L 371.490625 131.802511 
L 371.80767 131.600847 
L 372.758807 131.84851 
L 373.075852 131.834268 
L 373.392898 131.674467 
L 373.709943 132.130691 
L 374.344034 131.613253 
L 374.66108 132.004221 
L 374.978125 131.64069 
L 375.29517 131.919935 
L 375.612216 131.977815 
L 375.929261 131.861181 
L 376.246307 131.879449 
L 376.563352 132.129206 
L 376.880398 132.586272 
L 377.197443 132.397014 
L 377.514489 132.374833 
L 378.14858 131.922759 
L 379.099716 132.166175 
L 379.416761 131.987028 
L 379.733807 132.20129 
L 380.050852 131.900301 
L 380.367898 132.454928 
L 380.684943 131.965419 
L 382.27017 131.995658 
L 382.587216 131.694976 
L 382.904261 131.820483 
L 383.221307 132.268407 
L 383.538352 131.81003 
L 384.489489 132.331839 
L 384.806534 132.089079 
L 385.12358 132.156123 
L 385.75767 131.914557 
L 386.074716 131.779056 
L 386.391761 132.429212 
L 386.708807 132.035896 
L 387.025852 132.156378 
L 387.342898 131.920942 
L 387.659943 132.067177 
L 388.294034 131.7994 
L 388.61108 132.076494 
L 388.928125 131.892182 
L 389.24517 132.137919 
L 389.562216 131.956273 
L 390.513352 132.317842 
L 391.781534 132.052113 
L 392.09858 132.360091 
L 392.415625 132.15185 
L 392.73267 132.561835 
L 393.049716 132.520409 
L 393.366761 132.730541 
L 393.683807 132.36537 
L 394.951989 132.09182 
L 395.58608 132.482762 
L 395.903125 132.309271 
L 396.22017 131.982322 
L 396.537216 132.079422 
L 396.854261 131.983711 
L 397.171307 132.030987 
L 397.488352 132.357754 
L 397.805398 132.456726 
L 398.122443 132.059792 
L 398.439489 132.039161 
L 398.756534 132.164013 
L 399.07358 131.927215 
L 399.70767 132.157801 
L 400.024716 132.131282 
L 400.341761 132.28258 
L 400.658807 132.155762 
L 400.975852 132.3389 
L 401.609943 131.681194 
L 401.926989 132.035336 
L 402.878125 131.958351 
L 403.19517 131.752352 
L 403.512216 132.173254 
L 403.829261 132.027158 
L 404.146307 132.439215 
L 404.780398 132.032869 
L 405.097443 131.622207 
L 406.04858 132.280623 
L 407.316761 131.676886 
L 407.633807 132.106748 
L 408.584943 131.894944 
L 409.853125 131.958977 
L 410.17017 131.787778 
L 410.487216 132.011997 
L 410.804261 131.811797 
L 411.121307 131.811067 
L 411.438352 132.095896 
L 411.755398 131.912196 
L 412.072443 132.21161 
L 412.389489 131.908913 
L 412.706534 131.974276 
L 413.02358 131.662828 
L 413.340625 131.908525 
L 413.65767 131.913864 
L 413.974716 132.275485 
L 414.291761 131.415337 
L 414.608807 131.800467 
L 415.242898 131.534548 
L 415.876989 131.915864 
L 416.194034 131.623809 
L 416.51108 131.542614 
L 416.828125 132.145538 
L 417.14517 131.915697 
L 417.462216 131.830227 
L 417.779261 131.610366 
L 418.096307 131.577343 
L 418.413352 131.953042 
L 418.730398 131.941517 
L 419.047443 132.242704 
L 419.364489 131.788079 
L 419.681534 131.994276 
L 420.315625 131.956424 
L 420.63267 131.602818 
L 420.949716 131.628402 
L 421.266761 132.003848 
L 421.583807 131.951748 
L 421.900852 132.337541 
L 422.217898 131.763898 
L 423.48608 131.841793 
L 423.803125 132.12563 
L 424.437216 132.106456 
L 425.071307 131.921969 
L 425.388352 132.068573 
L 425.705398 131.907576 
L 426.339489 132.076438 
L 426.656534 131.905297 
L 426.97358 132.151423 
L 427.290625 132.214246 
L 427.60767 132.081507 
L 428.241761 132.124251 
L 428.558807 132.522862 
L 428.875852 132.314021 
L 429.509943 132.43381 
L 429.826989 131.838743 
L 430.144034 132.22191 
L 430.46108 132.196385 
L 430.778125 132.291652 
L 431.09517 131.910402 
L 431.729261 131.851582 
L 432.046307 132.088144 
L 432.997443 131.763961 
L 433.314489 132.008608 
L 433.631534 131.867423 
L 433.94858 131.968499 
L 434.265625 131.783698 
L 434.58267 132.018266 
L 434.899716 131.839266 
L 435.533807 132.113795 
L 435.850852 132.204907 
L 436.167898 131.847972 
L 436.484943 131.72808 
L 436.801989 131.877868 
L 437.119034 131.687886 
L 437.43608 132.052456 
L 438.07017 131.951519 
L 438.387216 132.070552 
L 438.704261 131.751878 
L 439.021307 131.796799 
L 439.338352 131.968814 
L 439.972443 131.916459 
L 440.289489 131.415957 
L 440.606534 131.630413 
L 440.92358 131.497864 
L 441.55767 131.955041 
L 441.874716 131.836435 
L 442.191761 131.895353 
L 442.508807 131.788212 
L 442.825852 132.161407 
L 443.142898 131.866419 
L 443.776989 131.699732 
L 444.094034 132.213766 
L 444.41108 131.728133 
L 444.728125 132.387442 
L 445.04517 131.771368 
L 445.679261 131.959422 
L 445.996307 131.776262 
L 446.313352 131.725607 
L 446.630398 131.864995 
L 447.581534 131.836825 
L 447.89858 131.542041 
L 448.215625 131.857837 
L 448.53267 131.815657 
L 448.849716 131.329548 
L 449.166761 131.696928 
L 449.483807 131.533836 
L 450.117898 132.006003 
L 450.434943 131.404012 
L 450.751989 131.777815 
L 451.069034 131.767231 
L 451.38608 131.398486 
L 451.703125 131.837332 
L 452.02017 131.576614 
L 452.337216 131.784697 
L 452.654261 131.822586 
L 452.971307 131.563991 
L 453.288352 131.753948 
L 453.605398 131.643732 
L 453.922443 131.711258 
L 454.239489 131.894859 
L 455.190625 131.652048 
L 455.50767 131.321052 
L 455.824716 131.612636 
L 456.458807 131.768802 
L 456.775852 131.553112 
L 457.409943 131.735078 
L 457.726989 131.81815 
L 458.044034 131.734775 
L 458.36108 131.869323 
L 458.678125 131.656739 
L 458.99517 131.70683 
L 459.312216 132.017098 
L 459.629261 131.590594 
L 459.946307 131.729867 
L 460.580398 132.211052 
L 460.897443 131.722657 
L 461.214489 131.531011 
L 461.531534 131.598798 
L 462.165625 131.449122 
L 462.48267 131.692884 
L 463.433807 131.56468 
L 463.750852 131.804936 
L 464.701989 131.698899 
L 465.019034 131.576302 
L 465.33608 131.164704 
L 465.653125 131.653755 
L 465.97017 131.569612 
L 466.604261 131.224464 
L 466.921307 131.535934 
L 467.238352 131.357117 
L 467.872443 131.567762 
L 468.189489 131.213929 
L 468.506534 131.59829 
L 468.82358 131.152675 
L 469.774716 131.739145 
L 470.091761 131.465133 
L 470.408807 131.453089 
L 470.725852 131.314995 
L 471.676989 131.677337 
L 471.994034 131.748742 
L 472.31108 131.973248 
L 472.628125 131.343102 
L 472.94517 131.580627 
L 473.262216 131.402333 
L 474.530398 131.40373 
L 474.847443 131.238737 
L 475.481534 131.584023 
L 475.79858 131.375681 
L 476.115625 131.671517 
L 476.43267 131.403375 
L 476.749716 131.788508 
L 477.383807 131.376979 
L 478.334943 131.483392 
L 478.651989 131.268123 
L 479.28608 131.57249 
L 479.603125 131.274227 
L 479.92017 131.556683 
L 480.237216 131.59896 
L 480.554261 131.831504 
L 480.871307 131.315487 
L 481.188352 131.371424 
L 481.505398 131.184238 
L 481.822443 131.247575 
L 482.139489 131.533858 
L 482.456534 131.439911 
L 482.77358 131.589682 
L 483.090625 131.287109 
L 483.724716 131.683824 
L 484.041761 131.61923 
L 484.358807 131.669858 
L 484.675852 130.969618 
L 484.992898 130.810178 
L 485.309943 131.309287 
L 485.626989 131.165409 
L 485.944034 131.423773 
L 486.26108 131.306445 
L 486.578125 130.881194 
L 487.212216 131.622168 
L 487.529261 131.48835 
L 487.846307 131.12394 
L 488.480398 131.342115 
L 489.114489 131.15863 
L 489.431534 131.392061 
L 489.74858 131.339938 
L 490.065625 131.585466 
L 490.38267 131.313515 
L 490.699716 131.716583 
L 491.016761 131.245639 
L 491.333807 131.554074 
L 492.284943 131.269393 
L 493.23608 131.546983 
L 493.553125 131.016815 
L 494.187216 131.712664 
L 494.504261 131.433202 
L 494.821307 131.364848 
L 495.138352 131.425148 
L 495.455398 131.130419 
L 495.772443 131.024514 
L 496.089489 131.273165 
L 496.406534 130.993595 
L 496.72358 131.53009 
L 497.040625 131.36149 
L 497.35767 131.562629 
L 497.674716 131.20167 
L 498.308807 131.299452 
L 498.625852 131.553812 
L 498.942898 131.150863 
L 499.259943 131.40958 
L 499.576989 131.124255 
L 499.894034 131.215577 
L 500.21108 130.970897 
L 500.528125 131.545904 
L 501.162216 131.169531 
L 501.479261 131.50402 
L 501.796307 131.575606 
L 502.113352 131.384051 
L 502.430398 131.480658 
L 502.747443 131.400593 
L 503.381534 131.46457 
L 503.69858 131.163274 
L 504.015625 131.523415 
L 504.649716 131.190596 
L 505.283807 131.310975 
L 505.600852 131.630702 
L 505.917898 131.169151 
L 506.234943 131.039505 
L 506.551989 131.037927 
L 506.869034 131.219068 
L 507.18608 131.05841 
L 507.503125 131.51147 
L 507.82017 131.448166 
L 508.454261 131.71447 
L 508.771307 131.316122 
L 509.088352 131.469966 
L 509.405398 131.222741 
L 510.039489 131.505236 
L 510.356534 131.457204 
L 510.67358 131.637589 
L 511.30767 131.067112 
L 511.624716 131.136962 
L 511.941761 131.366614 
L 512.258807 131.778345 
L 512.575852 131.536757 
L 512.892898 131.501241 
L 513.209943 131.605747 
L 513.844034 131.465848 
L 514.16108 131.731375 
L 514.478125 131.713457 
L 514.79517 131.477451 
L 515.112216 131.456224 
L 515.429261 131.119791 
L 515.746307 131.190572 
L 516.380398 131.452396 
L 517.331534 131.694542 
L 517.64858 131.432508 
L 517.965625 131.429285 
L 518.28267 131.749219 
L 518.599716 131.150779 
L 519.867898 131.577303 
L 520.184943 131.811504 
L 520.501989 131.41673 
L 520.819034 131.444956 
L 521.13608 131.26649 
L 521.453125 131.583304 
L 521.77017 131.335662 
L 522.087216 131.615927 
L 523.038352 131.365126 
L 523.355398 131.583033 
L 523.672443 131.542721 
L 523.989489 131.729707 
L 524.306534 131.424947 
L 524.62358 131.352412 
L 524.940625 131.44336 
L 525.25767 131.700714 
L 525.574716 131.305627 
L 526.208807 131.444577 
L 526.525852 131.219751 
L 527.476989 131.278478 
L 528.11108 131.782109 
L 528.428125 131.290591 
L 529.696307 131.520578 
L 530.013352 131.382871 
L 530.647443 131.534519 
L 530.964489 131.602163 
L 531.915625 131.373908 
L 532.23267 131.750278 
L 532.549716 131.740545 
L 533.183807 131.2285 
L 533.500852 131.174561 
L 533.817898 131.424005 
L 534.134943 131.503319 
L 535.08608 131.320569 
L 535.403125 131.167674 
L 536.354261 131.442016 
L 536.671307 131.432219 
L 536.988352 131.291859 
L 537.939489 131.442947 
L 538.256534 131.074232 
L 538.890625 131.156943 
L 539.20767 131.302615 
L 539.524716 131.296418 
L 539.841761 131.476627 
L 540.792898 131.346275 
L 541.426989 131.414973 
L 541.744034 131.217917 
L 542.06108 131.262462 
L 542.69517 131.114828 
L 543.329261 131.228466 
L 543.646307 130.976384 
L 544.280398 131.235615 
L 544.914489 131.088931 
L 545.54858 131.609499 
L 545.865625 131.278431 
L 546.18267 131.343334 
L 546.499716 131.093883 
L 547.133807 131.410251 
L 547.767898 131.447108 
L 548.084943 131.548553 
L 548.719034 131.261014 
L 549.03608 131.361117 
L 549.353125 131.166273 
L 549.67017 131.487162 
L 550.304261 131.560751 
L 550.621307 131.077796 
L 550.938352 131.246698 
L 551.255398 131.557392 
L 551.889489 131.237677 
L 552.52358 131.413089 
L 553.474716 131.417419 
L 553.791761 131.180052 
L 554.108807 131.174835 
L 554.742898 131.528454 
L 555.059943 131.238783 
L 555.694034 131.362832 
L 556.01108 131.201953 
L 556.328125 131.32817 
L 556.64517 131.28141 
L 556.962216 131.452231 
L 557.279261 131.329763 
L 557.596307 131.337622 
L 557.913352 131.523734 
L 558.230398 131.378977 
L 558.547443 131.669703 
L 558.864489 131.537059 
L 559.181534 131.86782 
L 559.49858 131.475729 
L 560.13267 131.576848 
L 560.449716 131.868218 
L 560.766761 131.490127 
L 561.083807 131.847893 
L 561.400852 131.714276 
L 561.717898 131.89651 
L 562.034943 131.790117 
L 562.669034 131.796327 
L 562.98608 131.597672 
L 563.303125 131.973706 
L 563.937216 130.662237 
L 564.254261 130.69195 
L 564.571307 130.971303 
L 564.888352 130.935548 
L 565.522443 130.993849 
L 565.839489 131.400423 
L 567.10767 131.128928 
L 567.741761 131.178499 
L 568.058807 131.02703 
L 568.375852 131.420192 
L 568.692898 131.138143 
L 569.009943 131.308406 
L 569.326989 131.193542 
L 569.644034 131.373895 
L 570.278125 131.526675 
L 570.59517 131.9746 
L 570.912216 131.251423 
L 571.229261 131.143247 
L 571.546307 131.325846 
L 571.863352 131.102467 
L 572.180398 131.515249 
L 572.497443 131.691079 
L 573.131534 131.24146 
L 573.765625 131.495941 
L 574.08267 131.11669 
L 575.667898 131.379219 
L 575.984943 131.241842 
L 576.301989 131.377519 
L 576.619034 131.134867 
L 576.93608 131.364208 
L 577.57017 131.168448 
L 577.887216 131.47654 
L 578.521307 131.337093 
L 579.155398 131.085402 
L 579.472443 131.243586 
L 579.789489 131.26974 
L 580.106534 131.121253 
L 580.42358 131.530049 
L 580.740625 131.559233 
L 581.05767 131.229325 
L 581.374716 131.173394 
L 581.691761 131.501952 
L 582.008807 131.490782 
L 582.325852 131.219356 
L 582.642898 131.180196 
L 582.959943 131.361962 
L 583.276989 131.284448 
L 583.91108 131.552896 
L 584.54517 131.409942 
L 584.862216 131.215406 
L 585.496307 131.645837 
L 586.447443 131.184437 
L 586.764489 131.385378 
L 588.03267 131.409162 
L 588.349716 131.189708 
L 588.666761 131.30255 
L 588.983807 131.180556 
L 589.300852 131.478817 
L 589.617898 131.162332 
L 589.934943 131.019751 
L 590.251989 131.234073 
L 590.569034 131.102446 
L 591.203125 131.077601 
L 591.52017 131.502116 
L 591.837216 131.241637 
L 592.154261 131.159214 
L 592.471307 131.571451 
L 592.788352 131.354628 
L 593.105398 131.290441 
L 593.739489 131.630049 
L 594.056534 131.028025 
L 594.37358 131.153771 
L 594.690625 130.882236 
L 595.641761 130.853426 
L 596.592898 131.613108 
L 596.909943 131.022657 
L 597.226989 131.3146 
L 597.544034 131.040848 
L 597.86108 130.998857 
L 598.178125 131.497009 
L 598.812216 131.096779 
L 599.446307 131.343776 
L 599.763352 130.982872 
L 600.397443 131.212569 
L 601.031534 131.200552 
L 601.34858 131.403574 
L 601.665625 131.032742 
L 601.98267 131.010406 
L 602.299716 131.144822 
L 602.933807 130.931743 
L 603.884943 131.140177 
L 604.201989 131.093956 
L 604.519034 131.390899 
L 604.83608 131.078914 
L 605.47017 131.415554 
L 605.787216 131.258874 
L 606.421307 131.386495 
L 606.738352 130.997941 
L 607.372443 131.304777 
L 607.689489 131.131158 
L 608.006534 131.117146 
L 608.32358 131.239236 
L 608.640625 131.183413 
L 608.95767 131.244631 
L 609.274716 131.071714 
L 609.591761 131.333295 
L 610.225852 131.098615 
L 610.542898 131.112857 
L 610.859943 131.344119 
L 611.494034 131.415417 
L 611.81108 131.203601 
L 612.44517 131.316519 
L 612.762216 130.887106 
L 613.079261 131.37377 
L 613.396307 131.130791 
L 613.713352 131.229476 
L 614.030398 131.566461 
L 614.347443 131.264227 
L 614.981534 131.232481 
L 615.615625 131.580546 
L 615.93267 131.281944 
L 616.249716 131.207017 
L 616.566761 131.351876 
L 616.883807 131.262133 
L 617.834943 131.469338 
L 618.151989 131.113352 
L 618.469034 131.390379 
L 618.78608 131.31042 
L 619.103125 131.05273 
L 619.42017 131.285751 
L 619.737216 131.041753 
L 620.054261 131.415023 
L 620.371307 130.710574 
L 620.688352 130.987932 
L 621.005398 131.101379 
L 621.322443 130.995912 
L 621.639489 131.191983 
L 621.956534 131.179088 
L 622.27358 130.989587 
L 622.590625 131.006066 
L 622.90767 131.145227 
L 623.224716 130.893547 
L 623.858807 131.308513 
L 624.175852 130.949311 
L 625.126989 131.319933 
L 625.126989 131.319933 
" clip-path="url(#pe57309c7da)" style="fill: none; stroke: #ff7f0e; stroke-width: 1.5; stroke-linecap: square"/>
   </g>
   <g id="patch_3">
    <path d="M 92.490625 308.63625 
L 92.490625 31.43625 
" style="fill: none; stroke: #000000; stroke-width: 0.8; stroke-linejoin: miter; stroke-linecap: square"/>
   </g>
   <g id="patch_4">
    <path d="M 650.490625 308.63625 
L 650.490625 31.43625 
" style="fill: none; stroke: #000000; stroke-width: 0.8; stroke-linejoin: miter; stroke-linecap: square"/>
   </g>
   <g id="patch_5">
    <path d="M 92.490625 308.63625 
L 650.490625 308.63625 
" style="fill: none; stroke: #000000; stroke-width: 0.8; stroke-linejoin: miter; stroke-linecap: square"/>
   </g>
   <g id="patch_6">
    <path d="M 92.490625 31.43625 
L 650.490625 31.43625 
" style="fill: none; stroke: #000000; stroke-width: 0.8; stroke-linejoin: miter; stroke-linecap: square"/>
   </g>
   <g id="text_17">
    <!-- Generator and Discriminator Loss During Training -->
    <g transform="translate(74.258125 25.43625) scale(0.24 -0.24)">
     <defs>
      <path id="DejaVuSans-47" d="M 3809 666 
L 3809 1919 
L 2778 1919 
L 2778 2438 
L 4434 2438 
L 4434 434 
Q 4069 175 3628 42 
Q 3188 -91 2688 -91 
Q 1594 -91 976 548 
Q 359 1188 359 2328 
Q 359 3472 976 4111 
Q 1594 4750 2688 4750 
Q 3144 4750 3555 4637 
Q 3966 4525 4313 4306 
L 4313 3634 
Q 3963 3931 3569 4081 
Q 3175 4231 2741 4231 
Q 1884 4231 1454 3753 
Q 1025 3275 1025 2328 
Q 1025 1384 1454 906 
Q 1884 428 2741 428 
Q 3075 428 3337 486 
Q 3600 544 3809 666 
z
" transform="scale(0.015625)"/>
      <path id="DejaVuSans-20" transform="scale(0.015625)"/>
      <path id="DejaVuSans-64" d="M 2906 2969 
L 2906 4863 
L 3481 4863 
L 3481 0 
L 2906 0 
L 2906 525 
Q 2725 213 2448 61 
Q 2172 -91 1784 -91 
Q 1150 -91 751 415 
Q 353 922 353 1747 
Q 353 2572 751 3078 
Q 1150 3584 1784 3584 
Q 2172 3584 2448 3432 
Q 2725 3281 2906 2969 
z
M 947 1747 
Q 947 1113 1208 752 
Q 1469 391 1925 391 
Q 2381 391 2643 752 
Q 2906 1113 2906 1747 
Q 2906 2381 2643 2742 
Q 2381 3103 1925 3103 
Q 1469 3103 1208 2742 
Q 947 2381 947 1747 
z
" transform="scale(0.015625)"/>
      <path id="DejaVuSans-44" d="M 1259 4147 
L 1259 519 
L 2022 519 
Q 2988 519 3436 956 
Q 3884 1394 3884 2338 
Q 3884 3275 3436 3711 
Q 2988 4147 2022 4147 
L 1259 4147 
z
M 628 4666 
L 1925 4666 
Q 3281 4666 3915 4102 
Q 4550 3538 4550 2338 
Q 4550 1131 3912 565 
Q 3275 0 1925 0 
L 628 0 
L 628 4666 
z
" transform="scale(0.015625)"/>
      <path id="DejaVuSans-63" d="M 3122 3366 
L 3122 2828 
Q 2878 2963 2633 3030 
Q 2388 3097 2138 3097 
Q 1578 3097 1268 2742 
Q 959 2388 959 1747 
Q 959 1106 1268 751 
Q 1578 397 2138 397 
Q 2388 397 2633 464 
Q 2878 531 3122 666 
L 3122 134 
Q 2881 22 2623 -34 
Q 2366 -91 2075 -91 
Q 1284 -91 818 406 
Q 353 903 353 1747 
Q 353 2603 823 3093 
Q 1294 3584 2113 3584 
Q 2378 3584 2631 3529 
Q 2884 3475 3122 3366 
z
" transform="scale(0.015625)"/>
      <path id="DejaVuSans-6d" d="M 3328 2828 
Q 3544 3216 3844 3400 
Q 4144 3584 4550 3584 
Q 5097 3584 5394 3201 
Q 5691 2819 5691 2113 
L 5691 0 
L 5113 0 
L 5113 2094 
Q 5113 2597 4934 2840 
Q 4756 3084 4391 3084 
Q 3944 3084 3684 2787 
Q 3425 2491 3425 1978 
L 3425 0 
L 2847 0 
L 2847 2094 
Q 2847 2600 2669 2842 
Q 2491 3084 2119 3084 
Q 1678 3084 1418 2786 
Q 1159 2488 1159 1978 
L 1159 0 
L 581 0 
L 581 3500 
L 1159 3500 
L 1159 2956 
Q 1356 3278 1631 3431 
Q 1906 3584 2284 3584 
Q 2666 3584 2933 3390 
Q 3200 3197 3328 2828 
z
" transform="scale(0.015625)"/>
      <path id="DejaVuSans-75" d="M 544 1381 
L 544 3500 
L 1119 3500 
L 1119 1403 
Q 1119 906 1312 657 
Q 1506 409 1894 409 
Q 2359 409 2629 706 
Q 2900 1003 2900 1516 
L 2900 3500 
L 3475 3500 
L 3475 0 
L 2900 0 
L 2900 538 
Q 2691 219 2414 64 
Q 2138 -91 1772 -91 
Q 1169 -91 856 284 
Q 544 659 544 1381 
z
M 1991 3584 
L 1991 3584 
z
" transform="scale(0.015625)"/>
      <path id="DejaVuSans-67" d="M 2906 1791 
Q 2906 2416 2648 2759 
Q 2391 3103 1925 3103 
Q 1463 3103 1205 2759 
Q 947 2416 947 1791 
Q 947 1169 1205 825 
Q 1463 481 1925 481 
Q 2391 481 2648 825 
Q 2906 1169 2906 1791 
z
M 3481 434 
Q 3481 -459 3084 -895 
Q 2688 -1331 1869 -1331 
Q 1566 -1331 1297 -1286 
Q 1028 -1241 775 -1147 
L 775 -588 
Q 1028 -725 1275 -790 
Q 1522 -856 1778 -856 
Q 2344 -856 2625 -561 
Q 2906 -266 2906 331 
L 2906 616 
Q 2728 306 2450 153 
Q 2172 0 1784 0 
Q 1141 0 747 490 
Q 353 981 353 1791 
Q 353 2603 747 3093 
Q 1141 3584 1784 3584 
Q 2172 3584 2450 3431 
Q 2728 3278 2906 2969 
L 2906 3500 
L 3481 3500 
L 3481 434 
z
" transform="scale(0.015625)"/>
      <path id="DejaVuSans-54" d="M -19 4666 
L 3928 4666 
L 3928 4134 
L 2272 4134 
L 2272 0 
L 1638 0 
L 1638 4134 
L -19 4134 
L -19 4666 
z
" transform="scale(0.015625)"/>
     </defs>
     <use xlink:href="#DejaVuSans-47"/>
     <use xlink:href="#DejaVuSans-65" x="77.490234"/>
     <use xlink:href="#DejaVuSans-6e" x="139.013672"/>
     <use xlink:href="#DejaVuSans-65" x="202.392578"/>
     <use xlink:href="#DejaVuSans-72" x="263.916016"/>
     <use xlink:href="#DejaVuSans-61" x="305.029297"/>
     <use xlink:href="#DejaVuSans-74" x="366.308594"/>
     <use xlink:href="#DejaVuSans-6f" x="405.517578"/>
     <use xlink:href="#DejaVuSans-72" x="466.699219"/>
     <use xlink:href="#DejaVuSans-20" x="507.8125"/>
     <use xlink:href="#DejaVuSans-61" x="539.599609"/>
     <use xlink:href="#DejaVuSans-6e" x="600.878906"/>
     <use xlink:href="#DejaVuSans-64" x="664.257812"/>
     <use xlink:href="#DejaVuSans-20" x="727.734375"/>
     <use xlink:href="#DejaVuSans-44" x="759.521484"/>
     <use xlink:href="#DejaVuSans-69" x="836.523438"/>
     <use xlink:href="#DejaVuSans-73" x="864.306641"/>
     <use xlink:href="#DejaVuSans-63" x="916.40625"/>
     <use xlink:href="#DejaVuSans-72" x="971.386719"/>
     <use xlink:href="#DejaVuSans-69" x="1012.5"/>
     <use xlink:href="#DejaVuSans-6d" x="1040.283203"/>
     <use xlink:href="#DejaVuSans-69" x="1137.695312"/>
     <use xlink:href="#DejaVuSans-6e" x="1165.478516"/>
     <use xlink:href="#DejaVuSans-61" x="1228.857422"/>
     <use xlink:href="#DejaVuSans-74" x="1290.136719"/>
     <use xlink:href="#DejaVuSans-6f" x="1329.345703"/>
     <use xlink:href="#DejaVuSans-72" x="1390.527344"/>
     <use xlink:href="#DejaVuSans-20" x="1431.640625"/>
     <use xlink:href="#DejaVuSans-4c" x="1463.427734"/>
     <use xlink:href="#DejaVuSans-6f" x="1517.390625"/>
     <use xlink:href="#DejaVuSans-73" x="1578.572266"/>
     <use xlink:href="#DejaVuSans-73" x="1630.671875"/>
     <use xlink:href="#DejaVuSans-20" x="1682.771484"/>
     <use xlink:href="#DejaVuSans-44" x="1714.558594"/>
     <use xlink:href="#DejaVuSans-75" x="1791.560547"/>
     <use xlink:href="#DejaVuSans-72" x="1854.939453"/>
     <use xlink:href="#DejaVuSans-69" x="1896.052734"/>
     <use xlink:href="#DejaVuSans-6e" x="1923.835938"/>
     <use xlink:href="#DejaVuSans-67" x="1987.214844"/>
     <use xlink:href="#DejaVuSans-20" x="2050.691406"/>
     <use xlink:href="#DejaVuSans-54" x="2082.478516"/>
     <use xlink:href="#DejaVuSans-72" x="2128.8125"/>
     <use xlink:href="#DejaVuSans-61" x="2169.925781"/>
     <use xlink:href="#DejaVuSans-69" x="2231.205078"/>
     <use xlink:href="#DejaVuSans-6e" x="2258.988281"/>
     <use xlink:href="#DejaVuSans-69" x="2322.367188"/>
     <use xlink:href="#DejaVuSans-6e" x="2350.150391"/>
     <use xlink:href="#DejaVuSans-67" x="2413.529297"/>
    </g>
   </g>
   <g id="legend_1">
    <g id="patch_7">
     <path d="M 556.99375 106.14875 
L 636.490625 106.14875 
Q 640.490625 106.14875 640.490625 102.14875 
L 640.490625 45.43625 
Q 640.490625 41.43625 636.490625 41.43625 
L 556.99375 41.43625 
Q 552.99375 41.43625 552.99375 45.43625 
L 552.99375 102.14875 
Q 552.99375 106.14875 556.99375 106.14875 
z
" style="fill: #ffffff; opacity: 0.8; stroke: #cccccc; stroke-linejoin: miter"/>
    </g>
    <g id="line2d_17">
     <path d="M 560.99375 57.633125 
L 580.99375 57.633125 
L 600.99375 57.633125 
" style="fill: none; stroke: #1f77b4; stroke-width: 1.5; stroke-linecap: square"/>
    </g>
    <g id="text_18">
     <!-- G -->
     <g transform="translate(616.99375 64.633125) scale(0.2 -0.2)">
      <use xlink:href="#DejaVuSans-47"/>
     </g>
    </g>
    <g id="line2d_18">
     <path d="M 560.99375 86.989375 
L 580.99375 86.989375 
L 600.99375 86.989375 
" style="fill: none; stroke: #ff7f0e; stroke-width: 1.5; stroke-linecap: square"/>
    </g>
    <g id="text_19">
     <!-- D -->
     <g transform="translate(616.99375 93.989375) scale(0.2 -0.2)">
      <use xlink:href="#DejaVuSans-44"/>
     </g>
    </g>
   </g>
  </g>
 </g>
 <defs>
  <clipPath id="pe57309c7da">
   <rect x="92.490625" y="31.43625" width="558" height="277.2"/>
  </clipPath>
 </defs>
</svg>
