<?xml version="1.0" encoding="utf-8" standalone="no"?>
<!DOCTYPE svg PUBLIC "-//W3C//DTD SVG 1.1//EN"
  "http://www.w3.org/Graphics/SVG/1.1/DTD/svg11.dtd">
<svg xmlns:xlink="http://www.w3.org/1999/xlink" width="675.923125pt" height="365.54875pt" viewBox="0 0 675.923125 365.54875" xmlns="http://www.w3.org/2000/svg" version="1.1">
 <metadata>
  <rdf:RDF xmlns:dc="http://purl.org/dc/elements/1.1/" xmlns:cc="http://creativecommons.org/ns#" xmlns:rdf="http://www.w3.org/1999/02/22-rdf-syntax-ns#">
   <cc:Work>
    <dc:type rdf:resource="http://purl.org/dc/dcmitype/StillImage"/>
    <dc:date>2024-02-04T17:49:39.306613</dc:date>
    <dc:format>image/svg+xml</dc:format>
    <dc:creator>
     <cc:Agent>
      <dc:title>Matplotlib v3.7.2, https://matplotlib.org/</dc:title>
     </cc:Agent>
    </dc:creator>
   </cc:Work>
  </rdf:RDF>
 </metadata>
 <defs>
  <style type="text/css">*{stroke-linejoin: round; stroke-linecap: butt}</style>
 </defs>
 <g id="figure_1">
  <g id="patch_1">
   <path d="M 0 365.54875 
L 675.923125 365.54875 
L 675.923125 -0 
L 0 -0 
z
" style="fill: #ffffff"/>
  </g>
  <g id="axes_1">
   <g id="patch_2">
    <path d="M 92.490625 308.63625 
L 650.490625 308.63625 
L 650.490625 31.43625 
L 92.490625 31.43625 
z
" style="fill: #ffffff"/>
   </g>
   <g id="matplotlib.axis_1">
    <g id="xtick_1">
     <g id="line2d_1">
      <defs>
       <path id="m9efcf4b340" d="M 0 0 
L 0 3.5 
" style="stroke: #000000; stroke-width: 0.8"/>
      </defs>
      <g>
       <use xlink:href="#m9efcf4b340" x="117.854261" y="308.63625" style="stroke: #000000; stroke-width: 0.8"/>
      </g>
     </g>
     <g id="text_1">
      <!-- 0 -->
      <g transform="translate(111.491761 330.833125) scale(0.2 -0.2)">
       <defs>
        <path id="DejaVuSans-30" d="M 2034 4250 
Q 1547 4250 1301 3770 
Q 1056 3291 1056 2328 
Q 1056 1369 1301 889 
Q 1547 409 2034 409 
Q 2525 409 2770 889 
Q 3016 1369 3016 2328 
Q 3016 3291 2770 3770 
Q 2525 4250 2034 4250 
z
M 2034 4750 
Q 2819 4750 3233 4129 
Q 3647 3509 3647 2328 
Q 3647 1150 3233 529 
Q 2819 -91 2034 -91 
Q 1250 -91 836 529 
Q 422 1150 422 2328 
Q 422 3509 836 4129 
Q 1250 4750 2034 4750 
z
" transform="scale(0.015625)"/>
       </defs>
       <use xlink:href="#DejaVuSans-30"/>
      </g>
     </g>
    </g>
    <g id="xtick_2">
     <g id="line2d_2">
      <g>
       <use xlink:href="#m9efcf4b340" x="237.21255" y="308.63625" style="stroke: #000000; stroke-width: 0.8"/>
      </g>
     </g>
     <g id="text_2">
      <!-- 200 -->
      <g transform="translate(218.12505 330.833125) scale(0.2 -0.2)">
       <defs>
        <path id="DejaVuSans-32" d="M 1228 531 
L 3431 531 
L 3431 0 
L 469 0 
L 469 531 
Q 828 903 1448 1529 
Q 2069 2156 2228 2338 
Q 2531 2678 2651 2914 
Q 2772 3150 2772 3378 
Q 2772 3750 2511 3984 
Q 2250 4219 1831 4219 
Q 1534 4219 1204 4116 
Q 875 4013 500 3803 
L 500 4441 
Q 881 4594 1212 4672 
Q 1544 4750 1819 4750 
Q 2544 4750 2975 4387 
Q 3406 4025 3406 3419 
Q 3406 3131 3298 2873 
Q 3191 2616 2906 2266 
Q 2828 2175 2409 1742 
Q 1991 1309 1228 531 
z
" transform="scale(0.015625)"/>
       </defs>
       <use xlink:href="#DejaVuSans-32"/>
       <use xlink:href="#DejaVuSans-30" x="63.623047"/>
       <use xlink:href="#DejaVuSans-30" x="127.246094"/>
      </g>
     </g>
    </g>
    <g id="xtick_3">
     <g id="line2d_3">
      <g>
       <use xlink:href="#m9efcf4b340" x="356.570839" y="308.63625" style="stroke: #000000; stroke-width: 0.8"/>
      </g>
     </g>
     <g id="text_3">
      <!-- 400 -->
      <g transform="translate(337.483339 330.833125) scale(0.2 -0.2)">
       <defs>
        <path id="DejaVuSans-34" d="M 2419 4116 
L 825 1625 
L 2419 1625 
L 2419 4116 
z
M 2253 4666 
L 3047 4666 
L 3047 1625 
L 3713 1625 
L 3713 1100 
L 3047 1100 
L 3047 0 
L 2419 0 
L 2419 1100 
L 313 1100 
L 313 1709 
L 2253 4666 
z
" transform="scale(0.015625)"/>
       </defs>
       <use xlink:href="#DejaVuSans-34"/>
       <use xlink:href="#DejaVuSans-30" x="63.623047"/>
       <use xlink:href="#DejaVuSans-30" x="127.246094"/>
      </g>
     </g>
    </g>
    <g id="xtick_4">
     <g id="line2d_4">
      <g>
       <use xlink:href="#m9efcf4b340" x="475.929128" y="308.63625" style="stroke: #000000; stroke-width: 0.8"/>
      </g>
     </g>
     <g id="text_4">
      <!-- 600 -->
      <g transform="translate(456.841628 330.833125) scale(0.2 -0.2)">
       <defs>
        <path id="DejaVuSans-36" d="M 2113 2584 
Q 1688 2584 1439 2293 
Q 1191 2003 1191 1497 
Q 1191 994 1439 701 
Q 1688 409 2113 409 
Q 2538 409 2786 701 
Q 3034 994 3034 1497 
Q 3034 2003 2786 2293 
Q 2538 2584 2113 2584 
z
M 3366 4563 
L 3366 3988 
Q 3128 4100 2886 4159 
Q 2644 4219 2406 4219 
Q 1781 4219 1451 3797 
Q 1122 3375 1075 2522 
Q 1259 2794 1537 2939 
Q 1816 3084 2150 3084 
Q 2853 3084 3261 2657 
Q 3669 2231 3669 1497 
Q 3669 778 3244 343 
Q 2819 -91 2113 -91 
Q 1303 -91 875 529 
Q 447 1150 447 2328 
Q 447 3434 972 4092 
Q 1497 4750 2381 4750 
Q 2619 4750 2861 4703 
Q 3103 4656 3366 4563 
z
" transform="scale(0.015625)"/>
       </defs>
       <use xlink:href="#DejaVuSans-36"/>
       <use xlink:href="#DejaVuSans-30" x="63.623047"/>
       <use xlink:href="#DejaVuSans-30" x="127.246094"/>
      </g>
     </g>
    </g>
    <g id="xtick_5">
     <g id="line2d_5">
      <g>
       <use xlink:href="#m9efcf4b340" x="595.287416" y="308.63625" style="stroke: #000000; stroke-width: 0.8"/>
      </g>
     </g>
     <g id="text_5">
      <!-- 800 -->
      <g transform="translate(576.199916 330.833125) scale(0.2 -0.2)">
       <defs>
        <path id="DejaVuSans-38" d="M 2034 2216 
Q 1584 2216 1326 1975 
Q 1069 1734 1069 1313 
Q 1069 891 1326 650 
Q 1584 409 2034 409 
Q 2484 409 2743 651 
Q 3003 894 3003 1313 
Q 3003 1734 2745 1975 
Q 2488 2216 2034 2216 
z
M 1403 2484 
Q 997 2584 770 2862 
Q 544 3141 544 3541 
Q 544 4100 942 4425 
Q 1341 4750 2034 4750 
Q 2731 4750 3128 4425 
Q 3525 4100 3525 3541 
Q 3525 3141 3298 2862 
Q 3072 2584 2669 2484 
Q 3125 2378 3379 2068 
Q 3634 1759 3634 1313 
Q 3634 634 3220 271 
Q 2806 -91 2034 -91 
Q 1263 -91 848 271 
Q 434 634 434 1313 
Q 434 1759 690 2068 
Q 947 2378 1403 2484 
z
M 1172 3481 
Q 1172 3119 1398 2916 
Q 1625 2713 2034 2713 
Q 2441 2713 2670 2916 
Q 2900 3119 2900 3481 
Q 2900 3844 2670 4047 
Q 2441 4250 2034 4250 
Q 1625 4250 1398 4047 
Q 1172 3844 1172 3481 
z
" transform="scale(0.015625)"/>
       </defs>
       <use xlink:href="#DejaVuSans-38"/>
       <use xlink:href="#DejaVuSans-30" x="63.623047"/>
       <use xlink:href="#DejaVuSans-30" x="127.246094"/>
      </g>
     </g>
    </g>
    <g id="text_6">
     <!-- iterations -->
     <g transform="translate(324.035938 354.189375) scale(0.2 -0.2)">
      <defs>
       <path id="DejaVuSans-69" d="M 603 3500 
L 1178 3500 
L 1178 0 
L 603 0 
L 603 3500 
z
M 603 4863 
L 1178 4863 
L 1178 4134 
L 603 4134 
L 603 4863 
z
" transform="scale(0.015625)"/>
       <path id="DejaVuSans-74" d="M 1172 4494 
L 1172 3500 
L 2356 3500 
L 2356 3053 
L 1172 3053 
L 1172 1153 
Q 1172 725 1289 603 
Q 1406 481 1766 481 
L 2356 481 
L 2356 0 
L 1766 0 
Q 1100 0 847 248 
Q 594 497 594 1153 
L 594 3053 
L 172 3053 
L 172 3500 
L 594 3500 
L 594 4494 
L 1172 4494 
z
" transform="scale(0.015625)"/>
       <path id="DejaVuSans-65" d="M 3597 1894 
L 3597 1613 
L 953 1613 
Q 991 1019 1311 708 
Q 1631 397 2203 397 
Q 2534 397 2845 478 
Q 3156 559 3463 722 
L 3463 178 
Q 3153 47 2828 -22 
Q 2503 -91 2169 -91 
Q 1331 -91 842 396 
Q 353 884 353 1716 
Q 353 2575 817 3079 
Q 1281 3584 2069 3584 
Q 2775 3584 3186 3129 
Q 3597 2675 3597 1894 
z
M 3022 2063 
Q 3016 2534 2758 2815 
Q 2500 3097 2075 3097 
Q 1594 3097 1305 2825 
Q 1016 2553 972 2059 
L 3022 2063 
z
" transform="scale(0.015625)"/>
       <path id="DejaVuSans-72" d="M 2631 2963 
Q 2534 3019 2420 3045 
Q 2306 3072 2169 3072 
Q 1681 3072 1420 2755 
Q 1159 2438 1159 1844 
L 1159 0 
L 581 0 
L 581 3500 
L 1159 3500 
L 1159 2956 
Q 1341 3275 1631 3429 
Q 1922 3584 2338 3584 
Q 2397 3584 2469 3576 
Q 2541 3569 2628 3553 
L 2631 2963 
z
" transform="scale(0.015625)"/>
       <path id="DejaVuSans-61" d="M 2194 1759 
Q 1497 1759 1228 1600 
Q 959 1441 959 1056 
Q 959 750 1161 570 
Q 1363 391 1709 391 
Q 2188 391 2477 730 
Q 2766 1069 2766 1631 
L 2766 1759 
L 2194 1759 
z
M 3341 1997 
L 3341 0 
L 2766 0 
L 2766 531 
Q 2569 213 2275 61 
Q 1981 -91 1556 -91 
Q 1019 -91 701 211 
Q 384 513 384 1019 
Q 384 1609 779 1909 
Q 1175 2209 1959 2209 
L 2766 2209 
L 2766 2266 
Q 2766 2663 2505 2880 
Q 2244 3097 1772 3097 
Q 1472 3097 1187 3025 
Q 903 2953 641 2809 
L 641 3341 
Q 956 3463 1253 3523 
Q 1550 3584 1831 3584 
Q 2591 3584 2966 3190 
Q 3341 2797 3341 1997 
z
" transform="scale(0.015625)"/>
       <path id="DejaVuSans-6f" d="M 1959 3097 
Q 1497 3097 1228 2736 
Q 959 2375 959 1747 
Q 959 1119 1226 758 
Q 1494 397 1959 397 
Q 2419 397 2687 759 
Q 2956 1122 2956 1747 
Q 2956 2369 2687 2733 
Q 2419 3097 1959 3097 
z
M 1959 3584 
Q 2709 3584 3137 3096 
Q 3566 2609 3566 1747 
Q 3566 888 3137 398 
Q 2709 -91 1959 -91 
Q 1206 -91 779 398 
Q 353 888 353 1747 
Q 353 2609 779 3096 
Q 1206 3584 1959 3584 
z
" transform="scale(0.015625)"/>
       <path id="DejaVuSans-6e" d="M 3513 2113 
L 3513 0 
L 2938 0 
L 2938 2094 
Q 2938 2591 2744 2837 
Q 2550 3084 2163 3084 
Q 1697 3084 1428 2787 
Q 1159 2491 1159 1978 
L 1159 0 
L 581 0 
L 581 3500 
L 1159 3500 
L 1159 2956 
Q 1366 3272 1645 3428 
Q 1925 3584 2291 3584 
Q 2894 3584 3203 3211 
Q 3513 2838 3513 2113 
z
" transform="scale(0.015625)"/>
       <path id="DejaVuSans-73" d="M 2834 3397 
L 2834 2853 
Q 2591 2978 2328 3040 
Q 2066 3103 1784 3103 
Q 1356 3103 1142 2972 
Q 928 2841 928 2578 
Q 928 2378 1081 2264 
Q 1234 2150 1697 2047 
L 1894 2003 
Q 2506 1872 2764 1633 
Q 3022 1394 3022 966 
Q 3022 478 2636 193 
Q 2250 -91 1575 -91 
Q 1294 -91 989 -36 
Q 684 19 347 128 
L 347 722 
Q 666 556 975 473 
Q 1284 391 1588 391 
Q 1994 391 2212 530 
Q 2431 669 2431 922 
Q 2431 1156 2273 1281 
Q 2116 1406 1581 1522 
L 1381 1569 
Q 847 1681 609 1914 
Q 372 2147 372 2553 
Q 372 3047 722 3315 
Q 1072 3584 1716 3584 
Q 2034 3584 2315 3537 
Q 2597 3491 2834 3397 
z
" transform="scale(0.015625)"/>
      </defs>
      <use xlink:href="#DejaVuSans-69"/>
      <use xlink:href="#DejaVuSans-74" x="27.783203"/>
      <use xlink:href="#DejaVuSans-65" x="66.992188"/>
      <use xlink:href="#DejaVuSans-72" x="128.515625"/>
      <use xlink:href="#DejaVuSans-61" x="169.628906"/>
      <use xlink:href="#DejaVuSans-74" x="230.908203"/>
      <use xlink:href="#DejaVuSans-69" x="270.117188"/>
      <use xlink:href="#DejaVuSans-6f" x="297.900391"/>
      <use xlink:href="#DejaVuSans-6e" x="359.082031"/>
      <use xlink:href="#DejaVuSans-73" x="422.460938"/>
     </g>
    </g>
   </g>
   <g id="matplotlib.axis_2">
    <g id="ytick_1">
     <g id="line2d_6">
      <defs>
       <path id="m861ca92b11" d="M 0 0 
L -3.5 0 
" style="stroke: #000000; stroke-width: 0.8"/>
      </defs>
      <g>
       <use xlink:href="#m861ca92b11" x="92.490625" y="275.383624" style="stroke: #000000; stroke-width: 0.8"/>
      </g>
     </g>
     <g id="text_7">
      <!-- −300 -->
      <g transform="translate(30.55625 282.982061) scale(0.2 -0.2)">
       <defs>
        <path id="DejaVuSans-2212" d="M 678 2272 
L 4684 2272 
L 4684 1741 
L 678 1741 
L 678 2272 
z
" transform="scale(0.015625)"/>
        <path id="DejaVuSans-33" d="M 2597 2516 
Q 3050 2419 3304 2112 
Q 3559 1806 3559 1356 
Q 3559 666 3084 287 
Q 2609 -91 1734 -91 
Q 1441 -91 1130 -33 
Q 819 25 488 141 
L 488 750 
Q 750 597 1062 519 
Q 1375 441 1716 441 
Q 2309 441 2620 675 
Q 2931 909 2931 1356 
Q 2931 1769 2642 2001 
Q 2353 2234 1838 2234 
L 1294 2234 
L 1294 2753 
L 1863 2753 
Q 2328 2753 2575 2939 
Q 2822 3125 2822 3475 
Q 2822 3834 2567 4026 
Q 2313 4219 1838 4219 
Q 1578 4219 1281 4162 
Q 984 4106 628 3988 
L 628 4550 
Q 988 4650 1302 4700 
Q 1616 4750 1894 4750 
Q 2613 4750 3031 4423 
Q 3450 4097 3450 3541 
Q 3450 3153 3228 2886 
Q 3006 2619 2597 2516 
z
" transform="scale(0.015625)"/>
       </defs>
       <use xlink:href="#DejaVuSans-2212"/>
       <use xlink:href="#DejaVuSans-33" x="83.789062"/>
       <use xlink:href="#DejaVuSans-30" x="147.412109"/>
       <use xlink:href="#DejaVuSans-30" x="211.035156"/>
      </g>
     </g>
    </g>
    <g id="ytick_2">
     <g id="line2d_7">
      <g>
       <use xlink:href="#m861ca92b11" x="92.490625" y="226.548593" style="stroke: #000000; stroke-width: 0.8"/>
      </g>
     </g>
     <g id="text_8">
      <!-- −200 -->
      <g transform="translate(30.55625 234.147031) scale(0.2 -0.2)">
       <use xlink:href="#DejaVuSans-2212"/>
       <use xlink:href="#DejaVuSans-32" x="83.789062"/>
       <use xlink:href="#DejaVuSans-30" x="147.412109"/>
       <use xlink:href="#DejaVuSans-30" x="211.035156"/>
      </g>
     </g>
    </g>
    <g id="ytick_3">
     <g id="line2d_8">
      <g>
       <use xlink:href="#m861ca92b11" x="92.490625" y="177.713563" style="stroke: #000000; stroke-width: 0.8"/>
      </g>
     </g>
     <g id="text_9">
      <!-- −100 -->
      <g transform="translate(30.55625 185.312) scale(0.2 -0.2)">
       <defs>
        <path id="DejaVuSans-31" d="M 794 531 
L 1825 531 
L 1825 4091 
L 703 3866 
L 703 4441 
L 1819 4666 
L 2450 4666 
L 2450 531 
L 3481 531 
L 3481 0 
L 794 0 
L 794 531 
z
" transform="scale(0.015625)"/>
       </defs>
       <use xlink:href="#DejaVuSans-2212"/>
       <use xlink:href="#DejaVuSans-31" x="83.789062"/>
       <use xlink:href="#DejaVuSans-30" x="147.412109"/>
       <use xlink:href="#DejaVuSans-30" x="211.035156"/>
      </g>
     </g>
    </g>
    <g id="ytick_4">
     <g id="line2d_9">
      <g>
       <use xlink:href="#m861ca92b11" x="92.490625" y="128.878533" style="stroke: #000000; stroke-width: 0.8"/>
      </g>
     </g>
     <g id="text_10">
      <!-- 0 -->
      <g transform="translate(72.765625 136.47697) scale(0.2 -0.2)">
       <use xlink:href="#DejaVuSans-30"/>
      </g>
     </g>
    </g>
    <g id="ytick_5">
     <g id="line2d_10">
      <g>
       <use xlink:href="#m861ca92b11" x="92.490625" y="80.043502" style="stroke: #000000; stroke-width: 0.8"/>
      </g>
     </g>
     <g id="text_11">
      <!-- 100 -->
      <g transform="translate(47.315625 87.64194) scale(0.2 -0.2)">
       <use xlink:href="#DejaVuSans-31"/>
       <use xlink:href="#DejaVuSans-30" x="63.623047"/>
       <use xlink:href="#DejaVuSans-30" x="127.246094"/>
      </g>
     </g>
    </g>
    <g id="text_12">
     <!-- Loss -->
     <g transform="translate(22.396875 191.970625) rotate(-90) scale(0.2 -0.2)">
      <defs>
       <path id="DejaVuSans-4c" d="M 628 4666 
L 1259 4666 
L 1259 531 
L 3531 531 
L 3531 0 
L 628 0 
L 628 4666 
z
" transform="scale(0.015625)"/>
      </defs>
      <use xlink:href="#DejaVuSans-4c"/>
      <use xlink:href="#DejaVuSans-6f" x="53.962891"/>
      <use xlink:href="#DejaVuSans-73" x="115.144531"/>
      <use xlink:href="#DejaVuSans-73" x="167.244141"/>
     </g>
    </g>
   </g>
   <g id="line2d_11">
    <path d="M 117.854261 107.143996 
L 118.451053 57.897655 
L 119.047844 62.589217 
L 119.644636 71.838444 
L 120.241427 72.058068 
L 120.838219 78.835638 
L 121.43501 48.700135 
L 122.031801 69.151889 
L 122.628593 52.930212 
L 123.225384 66.096965 
L 123.822176 66.553032 
L 124.418967 76.876548 
L 125.015759 55.497317 
L 125.61255 51.115701 
L 126.209342 44.03625 
L 126.806133 51.05182 
L 127.402924 50.556376 
L 127.999716 47.220406 
L 128.596507 48.866878 
L 129.193299 59.287779 
L 129.79009 53.814842 
L 130.983673 75.333709 
L 131.580465 66.979208 
L 132.177256 67.998484 
L 133.370839 56.908396 
L 133.96763 56.25427 
L 134.564422 62.683745 
L 135.161213 62.834119 
L 135.758005 61.864756 
L 136.354796 59.659047 
L 136.951588 66.219703 
L 137.548379 64.707216 
L 138.14517 63.601624 
L 138.741962 67.449061 
L 139.338753 60.970884 
L 139.935545 60.75248 
L 140.532336 63.60389 
L 142.322711 58.813955 
L 142.919502 67.023484 
L 143.516293 68.229069 
L 144.113085 64.692444 
L 144.709876 67.37511 
L 145.306668 70.902459 
L 145.903459 69.795967 
L 146.500251 74.728848 
L 147.097042 76.321566 
L 147.693834 77.42436 
L 148.290625 83.33243 
L 148.887416 83.696863 
L 149.484208 81.139497 
L 150.080999 84.503779 
L 150.677791 82.653976 
L 151.274582 83.971179 
L 151.871374 83.117448 
L 152.468165 92.629959 
L 153.064957 90.330475 
L 153.661748 92.275981 
L 154.258539 90.397232 
L 154.855331 85.023339 
L 155.452122 88.471006 
L 156.048914 91.154721 
L 156.645705 90.441416 
L 157.242497 93.864369 
L 157.839288 94.436591 
L 158.43608 92.705835 
L 159.032871 92.095729 
L 159.629662 93.933289 
L 160.226454 93.130061 
L 160.823245 96.57687 
L 161.420037 96.221721 
L 162.016828 97.915892 
L 162.61362 97.105258 
L 163.210411 96.027037 
L 163.807203 98.865555 
L 164.403994 98.462802 
L 165.000785 99.901126 
L 165.597577 98.010141 
L 166.194368 96.744706 
L 166.79116 101.116059 
L 167.387951 101.463043 
L 167.984743 99.407777 
L 168.581534 99.079392 
L 169.178326 101.748936 
L 169.775117 96.373721 
L 170.371908 98.877538 
L 170.9687 98.64235 
L 171.565491 101.755311 
L 172.162283 100.498503 
L 172.759074 100.197472 
L 173.355866 101.359065 
L 173.952657 103.278208 
L 174.549449 101.968927 
L 175.14624 102.623733 
L 175.743031 105.687596 
L 176.339823 105.591574 
L 176.936614 105.222651 
L 177.533406 105.442727 
L 178.130197 105.435291 
L 178.726989 106.080857 
L 179.32378 104.933541 
L 180.517363 105.439361 
L 181.114154 104.112317 
L 181.710946 107.187193 
L 182.307737 105.623654 
L 182.904529 108.334138 
L 183.50132 109.120913 
L 184.098112 108.514233 
L 184.694903 108.621994 
L 185.291695 110.088807 
L 185.888486 107.799802 
L 186.485277 110.200852 
L 187.082069 107.412463 
L 187.67886 110.288919 
L 188.275652 110.331991 
L 188.872443 109.867902 
L 189.469235 112.363599 
L 190.066026 111.384776 
L 190.662818 112.310107 
L 191.259609 111.154051 
L 191.8564 111.986557 
L 192.453192 111.672193 
L 193.049983 113.862704 
L 193.646775 113.19168 
L 194.243566 114.015056 
L 194.840358 115.817951 
L 195.437149 115.191117 
L 196.033941 113.570448 
L 196.630732 114.281939 
L 197.227523 113.887923 
L 197.824315 115.180849 
L 198.421106 113.979114 
L 199.017898 113.208098 
L 199.614689 113.576696 
L 200.211481 112.998 
L 200.808272 113.869487 
L 202.001855 111.773753 
L 202.598646 114.315421 
L 203.195438 114.651964 
L 203.792229 113.95065 
L 204.389021 111.565328 
L 204.985812 113.268465 
L 205.582604 113.723887 
L 206.179395 116.218163 
L 206.776186 116.482947 
L 207.969769 116.223465 
L 208.566561 115.955427 
L 209.760144 116.043666 
L 210.356935 115.516151 
L 210.953727 115.237095 
L 211.550518 115.526654 
L 212.147309 116.500384 
L 212.744101 115.701997 
L 213.340892 115.514227 
L 213.937684 116.566719 
L 214.534475 114.586516 
L 215.131267 113.033838 
L 215.728058 117.386173 
L 216.32485 115.030196 
L 216.921641 116.114283 
L 218.115224 116.685988 
L 218.712015 116.285479 
L 219.308807 116.383238 
L 219.905598 117.809727 
L 220.50239 116.247651 
L 221.695973 117.118397 
L 222.292764 116.978864 
L 222.889555 116.266156 
L 223.486347 116.828591 
L 224.083138 115.704825 
L 224.67993 117.848933 
L 225.276721 117.516695 
L 225.873513 118.217987 
L 226.470304 117.790735 
L 227.067096 117.613888 
L 227.663887 117.925882 
L 228.260678 116.471722 
L 228.85747 116.633613 
L 229.454261 116.587235 
L 230.051053 118.686857 
L 230.647844 117.391465 
L 231.244636 116.579879 
L 231.841427 116.951022 
L 232.438219 118.058637 
L 233.631801 116.99867 
L 234.228593 118.228131 
L 234.825384 118.162169 
L 235.422176 117.314565 
L 236.018967 117.584009 
L 236.615759 116.539411 
L 237.21255 116.131323 
L 237.809342 116.251882 
L 238.406133 117.751235 
L 239.002924 118.780418 
L 239.599716 117.675981 
L 240.196507 117.951128 
L 240.793299 117.44087 
L 241.39009 118.886704 
L 241.986882 119.55603 
L 242.583673 119.246623 
L 243.180465 118.79163 
L 244.374047 118.79812 
L 244.970839 117.778909 
L 245.56763 118.844346 
L 246.164422 119.614259 
L 246.761213 119.138963 
L 247.358005 117.891263 
L 247.954796 118.490706 
L 249.148379 118.425521 
L 249.74517 118.760239 
L 250.341962 117.305008 
L 250.938753 116.889487 
L 251.535545 118.018663 
L 252.132336 117.121134 
L 252.729128 117.851503 
L 253.325919 119.094316 
L 253.922711 118.676769 
L 254.519502 119.082107 
L 255.116293 118.623146 
L 255.713085 117.768881 
L 256.906668 118.825413 
L 257.503459 118.2673 
L 258.100251 119.092046 
L 258.697042 118.887891 
L 259.293834 118.195138 
L 259.890625 118.752301 
L 260.487416 118.149038 
L 261.084208 118.431451 
L 261.680999 119.302395 
L 262.874582 118.081396 
L 263.471374 119.076726 
L 264.068165 120.398914 
L 264.664957 118.94 
L 265.261748 119.590047 
L 266.455331 118.686176 
L 267.052122 119.379729 
L 267.648914 119.397097 
L 268.245705 119.043407 
L 268.842497 119.561633 
L 270.03608 118.768141 
L 271.229662 118.335123 
L 272.423245 119.719201 
L 273.020037 119.506408 
L 273.616828 120.306386 
L 274.21362 119.454758 
L 274.810411 119.946772 
L 275.407203 119.823493 
L 276.003994 120.35784 
L 277.197577 120.023433 
L 277.794368 121.096725 
L 278.39116 120.173311 
L 278.987951 119.595591 
L 279.584743 119.661148 
L 280.181534 120.087533 
L 280.778326 119.862036 
L 281.375117 120.239391 
L 281.971908 120.83174 
L 282.5687 119.818343 
L 283.165491 119.496576 
L 283.762283 120.018282 
L 284.359074 119.449078 
L 284.955866 119.43946 
L 285.552657 121.084304 
L 286.149449 120.896631 
L 286.74624 119.88671 
L 287.343031 121.115615 
L 287.939823 121.079473 
L 288.536614 120.582263 
L 289.133406 121.267944 
L 289.730197 118.883221 
L 290.326989 119.745675 
L 290.92378 121.08311 
L 291.520572 120.034706 
L 292.117363 120.5562 
L 292.714154 120.845277 
L 293.310946 120.157877 
L 293.907737 121.521667 
L 294.504529 121.369442 
L 295.10132 121.102262 
L 295.698112 120.238156 
L 296.294903 121.339193 
L 296.891695 120.199512 
L 297.488486 121.283286 
L 298.085277 121.328363 
L 298.682069 121.090805 
L 299.27886 121.248682 
L 299.875652 121.526801 
L 300.472443 121.493453 
L 301.069235 121.636812 
L 301.666026 121.077947 
L 302.262818 121.476202 
L 302.859609 121.201237 
L 303.4564 121.400379 
L 304.649983 122.001312 
L 305.246775 122.243346 
L 305.843566 121.400922 
L 306.440358 121.35934 
L 307.037149 121.848311 
L 307.633941 122.00612 
L 308.827523 122.622874 
L 309.424315 122.336203 
L 310.021106 121.806722 
L 310.617898 122.501442 
L 312.408272 122.077469 
L 313.005064 122.280026 
L 313.601855 122.860493 
L 314.795438 122.665896 
L 315.392229 122.895017 
L 315.989021 122.338507 
L 317.182604 122.451576 
L 318.376186 121.707988 
L 318.972978 122.859794 
L 319.569769 122.667835 
L 320.763352 123.603367 
L 321.360144 123.089229 
L 321.956935 122.382557 
L 322.553727 122.72702 
L 323.150518 123.601962 
L 323.747309 123.963273 
L 324.344101 123.736112 
L 324.940892 123.857175 
L 325.537684 122.995332 
L 326.134475 123.003966 
L 326.731267 123.310766 
L 327.328058 122.64072 
L 327.92485 123.307272 
L 328.521641 124.149156 
L 329.715224 124.441286 
L 330.312015 123.90084 
L 330.908807 124.299631 
L 331.505598 124.292514 
L 332.10239 124.465209 
L 333.295973 124.244183 
L 333.892764 124.511954 
L 334.489555 123.637802 
L 335.086347 124.307783 
L 336.27993 124.127827 
L 336.876721 123.726083 
L 338.070304 123.724214 
L 338.667096 124.74 
L 339.263887 124.949683 
L 339.860678 123.838682 
L 340.45747 123.885097 
L 341.054261 124.16535 
L 341.651053 124.699011 
L 342.247844 124.508582 
L 342.844636 125.245366 
L 344.038219 124.571209 
L 344.63501 125.131734 
L 345.231801 125.363722 
L 346.425384 125.050739 
L 347.022176 125.055236 
L 347.618967 125.719419 
L 348.215759 125.032975 
L 348.81255 125.356857 
L 349.409342 124.376778 
L 350.006133 125.585305 
L 350.602924 125.55837 
L 351.199716 126.362388 
L 351.796507 125.94994 
L 352.393299 126.090182 
L 352.99009 125.831119 
L 354.780465 125.499097 
L 355.377256 125.888574 
L 355.974047 125.332861 
L 356.570839 125.287222 
L 357.16763 125.851303 
L 357.764422 124.967126 
L 358.958005 124.594401 
L 359.554796 125.561248 
L 360.151588 125.775176 
L 360.748379 125.727656 
L 361.34517 125.336836 
L 361.941962 125.301675 
L 362.538753 125.451579 
L 363.732336 124.365278 
L 364.329128 125.077519 
L 364.925919 124.378871 
L 365.522711 125.538634 
L 366.119502 125.434654 
L 366.716293 125.647375 
L 367.313085 125.990991 
L 367.909876 126.135326 
L 368.506668 125.767461 
L 369.103459 125.845781 
L 370.893834 125.635223 
L 371.490625 125.766875 
L 372.087416 125.191649 
L 372.684208 125.427896 
L 373.280999 125.349871 
L 373.877791 125.789513 
L 374.474582 125.161249 
L 375.668165 125.094227 
L 376.264957 124.689431 
L 376.861748 125.550149 
L 377.458539 124.966956 
L 378.055331 125.69994 
L 378.652122 125.228714 
L 379.248914 125.309919 
L 379.845705 125.213436 
L 380.442497 125.708024 
L 381.039288 125.588056 
L 381.63608 125.288172 
L 382.232871 126.054596 
L 382.829662 125.552537 
L 383.426454 125.544268 
L 384.023245 126.226752 
L 384.620037 125.488179 
L 385.216828 125.763466 
L 385.81362 126.171901 
L 386.410411 125.513511 
L 387.007203 125.794149 
L 387.603994 125.658881 
L 388.200785 126.502453 
L 388.797577 126.525528 
L 389.394368 126.031675 
L 389.99116 126.090373 
L 390.587951 125.781718 
L 391.184743 125.779334 
L 391.781534 125.889086 
L 392.378326 126.231628 
L 392.975117 126.440143 
L 393.571908 126.961614 
L 394.1687 126.142468 
L 395.362283 126.914565 
L 395.959074 126.207148 
L 397.152657 126.59136 
L 397.749449 126.02833 
L 398.943031 126.177766 
L 399.539823 125.841597 
L 400.136614 125.92563 
L 400.733406 125.752012 
L 401.330197 126.261588 
L 401.926989 126.077602 
L 402.52378 126.604134 
L 403.120572 126.23771 
L 403.717363 126.861873 
L 404.314154 126.203507 
L 404.910946 126.376087 
L 406.104529 127.224808 
L 406.70132 126.901074 
L 407.298112 126.415117 
L 407.894903 126.696078 
L 408.491695 127.224358 
L 409.685277 126.999313 
L 410.282069 127.609103 
L 410.87886 127.060794 
L 411.475652 127.279437 
L 412.072443 127.929773 
L 412.669235 127.681504 
L 413.266026 126.765478 
L 413.862818 127.210413 
L 414.459609 128.074752 
L 415.0564 127.983863 
L 416.249983 127.600631 
L 416.846775 127.585221 
L 417.443566 127.371201 
L 418.040358 128.154938 
L 419.830732 127.58216 
L 421.621106 128.134644 
L 422.217898 127.549762 
L 422.814689 128.180398 
L 423.411481 128.32243 
L 424.008272 128.220869 
L 424.605064 127.773186 
L 425.201855 128.274126 
L 425.798646 128.375967 
L 427.589021 128.272506 
L 428.782604 127.626651 
L 429.379395 127.882218 
L 429.976186 128.622262 
L 430.572978 128.624273 
L 431.169769 128.380195 
L 432.960144 127.226119 
L 433.556935 127.475618 
L 434.153727 127.335648 
L 434.750518 127.884496 
L 435.944101 128.029227 
L 436.540892 127.075883 
L 437.137684 127.338533 
L 437.734475 128.281584 
L 438.331267 128.207444 
L 438.928058 127.372999 
L 439.52485 127.572064 
L 440.121641 127.077766 
L 441.315224 128.311318 
L 441.912015 128.307992 
L 443.105598 127.580508 
L 443.70239 126.764973 
L 444.299181 127.734314 
L 444.895973 126.768116 
L 445.492764 126.896653 
L 446.089555 126.813981 
L 446.686347 127.304233 
L 447.283138 127.431338 
L 447.87993 126.937992 
L 448.476721 126.795393 
L 449.073513 127.407002 
L 450.267096 127.013732 
L 450.863887 127.122365 
L 451.460678 128.153388 
L 452.05747 126.857992 
L 452.654261 127.826451 
L 453.251053 127.222345 
L 453.847844 127.428328 
L 454.444636 126.994658 
L 455.041427 127.659318 
L 455.638219 126.673171 
L 456.23501 127.574447 
L 456.831801 127.432291 
L 457.428593 128.323104 
L 458.025384 128.007326 
L 458.622176 127.952391 
L 459.218967 127.181402 
L 459.815759 128.105599 
L 460.41255 127.729914 
L 461.009342 128.242449 
L 461.606133 128.175044 
L 462.202924 127.805558 
L 462.799716 128.141651 
L 463.396507 128.10651 
L 463.993299 128.312509 
L 464.59009 127.661634 
L 465.783673 128.423643 
L 466.380465 128.112519 
L 466.977256 128.424213 
L 468.170839 128.212217 
L 468.76763 128.250398 
L 469.364422 127.226366 
L 469.961213 127.538592 
L 470.558005 128.460846 
L 471.154796 128.842332 
L 471.751588 128.382478 
L 472.348379 128.311378 
L 472.94517 129.098682 
L 474.138753 128.93048 
L 475.332336 129.345805 
L 475.929128 129.571246 
L 476.525919 129.133117 
L 477.122711 128.924347 
L 477.719502 129.6165 
L 478.913085 128.979247 
L 479.509876 129.156974 
L 480.106668 128.539898 
L 481.300251 129.568516 
L 481.897042 128.962134 
L 482.493834 128.878142 
L 483.090625 129.052093 
L 483.687416 128.657464 
L 484.284208 128.693572 
L 484.880999 129.237439 
L 485.477791 129.440119 
L 486.074582 128.315439 
L 486.671374 129.084725 
L 487.268165 129.259416 
L 487.864957 129.020508 
L 489.058539 129.544928 
L 490.252122 129.759707 
L 490.848914 129.736929 
L 491.445705 129.989611 
L 492.042497 130.095301 
L 493.832871 129.332092 
L 494.429662 129.546395 
L 495.026454 129.575164 
L 495.623245 129.787767 
L 496.220037 129.783134 
L 497.41362 130.133199 
L 498.607203 129.863755 
L 499.203994 130.226971 
L 499.800785 129.521859 
L 500.397577 129.919794 
L 500.994368 129.266993 
L 501.59116 130.362737 
L 502.187951 129.671953 
L 502.784743 130.100109 
L 503.381534 130.124111 
L 503.978326 130.386335 
L 504.575117 130.077366 
L 505.171908 130.468662 
L 505.7687 130.247035 
L 506.365491 130.502511 
L 506.962283 129.622565 
L 507.559074 130.044121 
L 508.155866 129.637852 
L 508.752657 129.852127 
L 509.349449 129.820835 
L 509.94624 130.095071 
L 510.543031 129.915606 
L 511.139823 130.056417 
L 512.333406 129.681197 
L 512.930197 129.462623 
L 513.526989 129.722866 
L 514.12378 129.678706 
L 514.720572 129.344987 
L 515.317363 129.697922 
L 515.914154 129.556763 
L 516.510946 129.590645 
L 517.107737 129.844723 
L 517.704529 129.945158 
L 518.30132 129.664395 
L 518.898112 130.114712 
L 519.494903 129.91082 
L 520.091695 130.040111 
L 520.688486 129.634323 
L 521.285277 130.2478 
L 521.882069 129.693251 
L 522.47886 129.574529 
L 523.075652 128.501651 
L 523.672443 129.833853 
L 524.269235 129.795103 
L 526.059609 130.259546 
L 526.6564 129.709199 
L 527.253192 130.61436 
L 527.849983 129.822597 
L 528.446775 130.118296 
L 529.043566 129.588654 
L 529.640358 130.485866 
L 530.237149 129.886924 
L 532.027523 130.319328 
L 532.624315 129.869323 
L 533.221106 130.428421 
L 534.414689 129.777697 
L 535.011481 130.069704 
L 535.608272 129.903047 
L 536.205064 130.419247 
L 536.801855 130.241578 
L 537.398646 130.275795 
L 537.995438 130.005742 
L 538.592229 129.965241 
L 540.382604 130.486054 
L 540.979395 130.162824 
L 541.576186 130.53959 
L 542.172978 130.735584 
L 542.769769 130.176004 
L 543.963352 130.229223 
L 544.560144 130.476132 
L 545.156935 130.424463 
L 545.753727 129.924593 
L 546.350518 130.206446 
L 546.947309 130.363919 
L 548.140892 130.355589 
L 548.737684 130.739932 
L 549.334475 130.694598 
L 549.931267 130.334052 
L 550.528058 129.444201 
L 551.12485 129.777074 
L 551.721641 130.248941 
L 552.318432 130.348248 
L 552.915224 130.020741 
L 553.512015 129.961073 
L 554.108807 130.082845 
L 554.705598 130.397618 
L 555.30239 129.982875 
L 555.899181 130.561671 
L 556.495973 130.213164 
L 557.092764 130.604929 
L 557.689555 131.294337 
L 558.286347 130.740751 
L 558.883138 130.589133 
L 559.47993 130.822809 
L 560.076721 130.283417 
L 560.673513 130.68735 
L 561.270304 130.50424 
L 561.867096 129.904625 
L 562.463887 130.646921 
L 563.65747 129.985194 
L 564.254261 129.977035 
L 564.851053 130.223887 
L 565.447844 130.193264 
L 566.044636 129.997993 
L 566.641427 130.135833 
L 567.238219 130.397035 
L 568.431801 130.167881 
L 569.625384 130.305398 
L 570.222176 130.505332 
L 570.818967 130.181581 
L 571.415759 130.489115 
L 572.609342 130.091959 
L 573.206133 129.265459 
L 573.802924 129.368122 
L 574.399716 129.748727 
L 574.996507 129.728249 
L 575.593299 129.272479 
L 576.19009 129.345508 
L 576.786882 129.594932 
L 577.383673 129.031852 
L 578.577256 130.163698 
L 579.174047 130.015808 
L 579.770839 130.398374 
L 580.36763 130.497082 
L 580.964422 130.284284 
L 581.561213 129.895821 
L 582.158005 129.95164 
L 582.754796 130.228593 
L 583.351588 129.924436 
L 583.948379 129.945637 
L 584.54517 129.703161 
L 585.141962 129.928617 
L 585.738753 129.874596 
L 586.335545 129.065751 
L 586.932336 129.610412 
L 587.529128 129.641082 
L 588.125919 130.025137 
L 588.722711 129.282538 
L 589.319502 129.887531 
L 589.916293 129.134435 
L 590.513085 129.5941 
L 591.109876 129.310474 
L 591.706668 129.619078 
L 592.900251 129.876 
L 594.093834 129.413999 
L 594.690625 129.846728 
L 595.287416 129.839309 
L 595.884208 129.532719 
L 596.480999 129.929045 
L 597.077791 129.81411 
L 597.674582 129.001903 
L 598.868165 129.802867 
L 599.464957 129.036354 
L 600.061748 129.566592 
L 600.658539 128.963836 
L 601.255331 129.210057 
L 601.852122 129.202111 
L 602.448914 128.938855 
L 603.045705 128.992754 
L 603.642497 129.552311 
L 604.239288 129.595012 
L 604.83608 129.500006 
L 605.432871 129.81267 
L 606.029662 129.091221 
L 606.626454 129.534045 
L 607.223245 129.779661 
L 607.820037 129.192974 
L 608.416828 129.568089 
L 609.01362 129.663963 
L 609.610411 129.337801 
L 610.207203 129.403436 
L 610.803994 129.2691 
L 611.400785 129.505534 
L 611.997577 129.330584 
L 612.594368 129.271972 
L 613.19116 128.770547 
L 613.787951 129.282876 
L 614.384743 128.817693 
L 614.981534 129.648637 
L 616.175117 129.777384 
L 616.771908 129.827788 
L 617.3687 129.643045 
L 617.965491 129.849396 
L 618.562283 129.708486 
L 619.159074 129.771251 
L 619.755866 129.565484 
L 620.352657 130.118856 
L 620.949449 130.012593 
L 621.54624 129.504526 
L 622.143031 129.831151 
L 622.739823 130.334078 
L 623.336614 129.457748 
L 623.933406 129.939677 
L 624.530197 129.908597 
L 625.126989 129.673478 
L 625.126989 129.673478 
" clip-path="url(#p5481aa8f4e)" style="fill: none; stroke: #1f77b4; stroke-width: 1.5; stroke-linecap: square"/>
   </g>
   <g id="line2d_12">
    <path d="M 117.854261 296.03625 
L 118.451053 245.888602 
L 119.047844 214.115786 
L 119.644636 230.211874 
L 120.241427 218.599268 
L 120.838219 201.279694 
L 121.43501 204.535087 
L 122.031801 177.439579 
L 122.628593 178.201539 
L 123.225384 178.387096 
L 123.822176 192.048813 
L 124.418967 174.811641 
L 125.015759 173.893449 
L 125.61255 172.251017 
L 126.209342 166.690114 
L 126.806133 165.151511 
L 127.402924 167.933912 
L 127.999716 161.328426 
L 128.596507 164.204354 
L 129.193299 153.408818 
L 129.79009 156.496962 
L 130.983673 141.56019 
L 131.580465 150.693481 
L 132.177256 143.469704 
L 132.774047 147.780062 
L 133.370839 149.479849 
L 133.96763 140.208749 
L 134.564422 138.160794 
L 135.161213 138.65618 
L 135.758005 140.776186 
L 136.354796 140.215124 
L 136.951588 138.391512 
L 137.548379 140.082936 
L 138.14517 140.228622 
L 139.338753 141.201404 
L 139.935545 139.392105 
L 140.532336 138.851676 
L 141.129128 139.384558 
L 141.725919 140.740816 
L 142.322711 142.600893 
L 142.919502 135.421926 
L 143.516293 138.496197 
L 144.113085 137.892038 
L 145.306668 136.234525 
L 145.903459 136.311622 
L 146.500251 135.915689 
L 147.097042 136.605064 
L 147.693834 134.887215 
L 148.290625 133.797282 
L 148.887416 134.763648 
L 149.484208 135.471295 
L 150.080999 135.576047 
L 150.677791 136.308094 
L 151.274582 136.853589 
L 151.871374 136.368541 
L 152.468165 134.730041 
L 153.064957 135.079856 
L 153.661748 134.857729 
L 154.258539 135.928269 
L 154.855331 135.902864 
L 155.452122 135.479767 
L 156.048914 136.290746 
L 156.645705 135.345801 
L 157.839288 134.136329 
L 158.43608 135.905185 
L 159.032871 134.292529 
L 159.629662 133.586184 
L 160.226454 134.703917 
L 160.823245 134.803726 
L 161.420037 133.847583 
L 162.016828 133.400648 
L 162.61362 134.508056 
L 163.210411 134.677574 
L 163.807203 133.207451 
L 164.403994 133.966004 
L 165.000785 133.320137 
L 165.597577 133.888563 
L 166.194368 133.800353 
L 166.79116 134.327242 
L 167.387951 133.302039 
L 167.984743 133.276394 
L 169.775117 133.938771 
L 170.371908 134.482109 
L 170.9687 133.800864 
L 171.565491 133.419586 
L 172.162283 133.970658 
L 173.355866 133.536974 
L 173.952657 133.03475 
L 174.549449 132.734868 
L 175.14624 133.151006 
L 175.743031 133.268245 
L 176.339823 133.664162 
L 176.936614 132.938008 
L 177.533406 133.474141 
L 178.130197 133.107742 
L 178.726989 133.13171 
L 179.32378 133.333721 
L 179.920572 133.905861 
L 180.517363 133.8752 
L 181.114154 133.058296 
L 181.710946 132.906614 
L 182.307737 133.401837 
L 182.904529 132.611227 
L 184.098112 133.527885 
L 184.694903 132.677103 
L 185.291695 133.470667 
L 185.888486 133.101942 
L 186.485277 132.407692 
L 187.082069 132.923927 
L 188.275652 133.133008 
L 188.872443 132.127532 
L 189.469235 132.148788 
L 190.066026 132.723923 
L 190.662818 132.550499 
L 191.259609 132.696816 
L 192.453192 132.730674 
L 193.049983 132.97607 
L 194.243566 131.981124 
L 194.840358 132.270329 
L 195.437149 132.740458 
L 196.033941 132.811208 
L 196.630732 133.022354 
L 197.227523 132.379132 
L 197.824315 132.85824 
L 198.421106 132.55696 
L 199.017898 132.710993 
L 200.211481 132.46765 
L 201.405064 132.807079 
L 202.001855 132.556555 
L 202.598646 132.440168 
L 203.195438 132.202275 
L 203.792229 132.521364 
L 204.389021 133.040405 
L 204.985812 132.525261 
L 205.582604 132.330627 
L 206.179395 131.793893 
L 206.776186 132.032172 
L 207.372978 131.869341 
L 207.969769 131.536319 
L 208.566561 131.891923 
L 209.163352 131.570927 
L 209.760144 132.110183 
L 210.356935 132.442361 
L 210.953727 132.353453 
L 211.550518 131.994056 
L 212.147309 132.252207 
L 212.744101 132.03052 
L 213.340892 132.59314 
L 213.937684 132.12911 
L 214.534475 133.529531 
L 215.131267 132.898776 
L 215.728058 131.845893 
L 216.32485 132.623624 
L 216.921641 132.22945 
L 217.518432 132.143768 
L 218.115224 132.356335 
L 218.712015 131.998474 
L 219.308807 132.373811 
L 219.905598 132.069205 
L 220.50239 132.132424 
L 221.099181 132.017815 
L 221.695973 132.31129 
L 222.292764 132.154329 
L 222.889555 132.182232 
L 223.486347 132.54397 
L 224.083138 132.546299 
L 224.67993 132.055983 
L 225.276721 132.3148 
L 225.873513 131.939997 
L 227.067096 132.088832 
L 227.663887 132.0281 
L 228.260678 132.726062 
L 228.85747 132.686055 
L 229.454261 132.429676 
L 230.051053 131.888833 
L 230.647844 132.689105 
L 231.244636 131.980631 
L 232.438219 132.405713 
L 233.03501 132.911299 
L 233.631801 132.242697 
L 235.422176 133.309819 
L 236.018967 132.617213 
L 236.615759 132.793237 
L 237.21255 133.184172 
L 237.809342 132.898692 
L 238.406133 132.476888 
L 239.599716 132.775752 
L 240.196507 132.19803 
L 240.793299 133.001959 
L 241.39009 132.551494 
L 241.986882 132.281968 
L 242.583673 132.615187 
L 243.180465 132.264056 
L 243.777256 132.511456 
L 244.374047 132.562455 
L 244.970839 132.196387 
L 246.164422 132.509296 
L 246.761213 132.625033 
L 248.551588 132.23886 
L 249.148379 132.926132 
L 249.74517 132.622763 
L 250.341962 132.725486 
L 250.938753 134.327361 
L 251.535545 131.88328 
L 252.132336 132.567378 
L 252.729128 132.624808 
L 253.325919 132.867478 
L 253.922711 132.078352 
L 254.519502 132.298725 
L 255.116293 132.375235 
L 255.713085 132.899031 
L 256.309876 132.299455 
L 257.503459 132.698965 
L 258.100251 132.749106 
L 258.697042 132.572047 
L 259.293834 132.735333 
L 259.890625 132.501331 
L 260.487416 132.445749 
L 261.084208 132.800844 
L 261.680999 132.599577 
L 262.277791 132.528069 
L 262.874582 133.418649 
L 263.471374 132.304059 
L 264.068165 132.693067 
L 264.664957 132.084031 
L 265.261748 132.523896 
L 265.858539 132.600118 
L 267.052122 133.298588 
L 267.648914 132.386039 
L 268.842497 133.19902 
L 269.439288 132.739007 
L 270.03608 133.198867 
L 270.632871 132.736262 
L 271.229662 133.412287 
L 271.826454 132.808439 
L 272.423245 132.475197 
L 273.020037 132.640403 
L 273.616828 132.634424 
L 274.21362 133.023913 
L 274.810411 132.313796 
L 275.407203 133.014596 
L 276.003994 132.573859 
L 276.600785 132.310629 
L 277.197577 132.751505 
L 277.794368 132.027011 
L 278.39116 132.637068 
L 278.987951 131.997341 
L 279.584743 132.65365 
L 280.778326 132.254952 
L 281.375117 133.166727 
L 281.971908 133.161044 
L 282.5687 132.868057 
L 283.762283 132.715886 
L 284.359074 133.313758 
L 284.955866 133.259094 
L 285.552657 132.374664 
L 286.149449 132.370019 
L 286.74624 133.122317 
L 287.939823 132.516071 
L 288.536614 132.596273 
L 289.133406 134.212614 
L 289.730197 132.868127 
L 290.92378 133.448304 
L 291.520572 132.497697 
L 292.117363 132.84084 
L 292.714154 132.998419 
L 293.907737 132.979176 
L 294.504529 133.124053 
L 295.10132 132.775361 
L 295.698112 133.26447 
L 296.294903 133.447651 
L 296.891695 132.831682 
L 297.488486 132.643544 
L 298.085277 132.71595 
L 298.682069 133.071013 
L 299.27886 133.205481 
L 300.472443 133.018732 
L 301.069235 133.177562 
L 301.666026 133.212742 
L 302.262818 133.070536 
L 302.859609 132.7111 
L 303.4564 132.619717 
L 304.649983 132.757311 
L 305.246775 132.287485 
L 305.843566 132.917935 
L 306.440358 132.7582 
L 307.037149 132.74229 
L 307.633941 133.203917 
L 308.230732 132.704265 
L 308.827523 132.688085 
L 309.424315 133.394741 
L 310.617898 132.715876 
L 311.214689 132.583073 
L 311.811481 133.363201 
L 312.408272 133.218542 
L 313.005064 133.327864 
L 314.198646 133.046398 
L 315.392229 132.391266 
L 315.989021 132.746404 
L 317.182604 132.579992 
L 317.779395 133.6675 
L 318.376186 133.153177 
L 318.972978 131.871708 
L 319.569769 132.866669 
L 320.763352 132.529901 
L 321.360144 131.081888 
L 321.956935 132.932414 
L 322.553727 132.085451 
L 323.150518 132.760385 
L 323.747309 132.146346 
L 324.344101 132.88974 
L 324.940892 132.563737 
L 325.537684 133.069097 
L 326.134475 133.365032 
L 326.731267 132.478084 
L 327.328058 132.902677 
L 327.92485 132.039826 
L 328.521641 132.423971 
L 329.118432 131.618577 
L 329.715224 132.19232 
L 330.312015 132.203069 
L 330.908807 132.514157 
L 331.505598 131.714142 
L 332.10239 131.917348 
L 332.699181 132.424369 
L 333.892764 132.100815 
L 335.086347 132.229428 
L 335.683138 132.13933 
L 336.27993 132.49344 
L 336.876721 132.105242 
L 337.473513 132.713502 
L 338.070304 132.33379 
L 338.667096 132.39439 
L 339.263887 132.209234 
L 339.860678 132.594199 
L 340.45747 132.673185 
L 341.054261 132.636544 
L 341.651053 132.045622 
L 342.247844 132.008696 
L 342.844636 132.296281 
L 343.441427 132.24379 
L 344.038219 132.629577 
L 344.63501 132.472327 
L 345.231801 132.670994 
L 345.828593 132.354122 
L 346.425384 132.323109 
L 347.022176 132.050248 
L 347.618967 132.447097 
L 348.215759 132.604512 
L 348.81255 132.27953 
L 349.409342 132.520756 
L 350.006133 132.360568 
L 350.602924 132.645127 
L 351.199716 132.133955 
L 351.796507 132.289025 
L 352.393299 132.21375 
L 352.99009 132.499823 
L 353.586882 132.318607 
L 354.183673 132.631839 
L 354.780465 132.517404 
L 355.377256 132.130841 
L 357.16763 132.7143 
L 357.764422 132.746425 
L 360.151588 132.34459 
L 360.748379 132.324889 
L 361.941962 132.673226 
L 362.538753 132.289639 
L 363.732336 132.640017 
L 364.329128 132.315031 
L 365.522711 132.864238 
L 366.716293 132.427692 
L 367.313085 132.489386 
L 367.909876 132.695802 
L 368.506668 132.442031 
L 369.103459 132.444117 
L 369.700251 132.791402 
L 370.297042 132.49101 
L 370.893834 132.756234 
L 371.490625 132.738034 
L 372.087416 133.154523 
L 372.684208 132.749366 
L 373.280999 132.783611 
L 373.877791 132.704427 
L 374.474582 132.845462 
L 375.668165 132.135485 
L 376.264957 132.562593 
L 379.248914 132.575102 
L 379.845705 132.82337 
L 380.442497 132.520394 
L 381.039288 132.787151 
L 381.63608 132.848905 
L 382.232871 132.732427 
L 383.426454 132.34149 
L 384.023245 132.569255 
L 384.620037 132.546035 
L 385.216828 132.382392 
L 385.81362 132.401055 
L 386.410411 132.942796 
L 387.007203 132.836618 
L 387.603994 132.045046 
L 388.200785 132.712118 
L 388.797577 132.475609 
L 391.184743 132.068622 
L 391.781534 132.852751 
L 392.378326 132.256039 
L 393.571908 132.592666 
L 394.1687 132.348413 
L 394.765491 132.303566 
L 395.362283 132.914314 
L 395.959074 132.387026 
L 396.555866 132.243224 
L 397.152657 132.85367 
L 398.943031 132.076505 
L 400.136614 132.539537 
L 400.733406 132.486669 
L 401.330197 132.644096 
L 403.120572 132.471121 
L 403.717363 132.113016 
L 404.314154 132.344418 
L 404.910946 132.339665 
L 405.507737 132.469396 
L 406.70132 133.01542 
L 407.298112 132.548661 
L 407.894903 132.326819 
L 408.491695 131.941895 
L 409.088486 132.629059 
L 409.685277 132.41616 
L 410.282069 132.777514 
L 410.87886 132.625445 
L 411.475652 132.205738 
L 412.072443 132.573852 
L 412.669235 132.351475 
L 413.266026 132.738733 
L 413.862818 132.609102 
L 414.459609 132.661179 
L 415.0564 132.248434 
L 415.653192 132.676072 
L 416.249983 132.574415 
L 416.846775 132.616665 
L 417.443566 132.074958 
L 418.040358 132.590863 
L 418.637149 132.401085 
L 419.233941 132.366064 
L 420.427523 132.649835 
L 421.024315 131.936974 
L 421.621106 132.337399 
L 422.217898 132.525656 
L 422.814689 132.230222 
L 424.008272 132.167707 
L 424.605064 132.493532 
L 425.201855 132.462083 
L 426.395438 132.110215 
L 426.992229 132.661394 
L 427.589021 132.257731 
L 428.185812 132.707855 
L 429.379395 132.689304 
L 429.976186 132.23817 
L 430.572978 132.636134 
L 431.169769 132.398538 
L 431.766561 131.929444 
L 432.960144 132.252696 
L 433.556935 132.351063 
L 434.153727 132.641152 
L 434.750518 131.990749 
L 435.347309 132.540849 
L 435.944101 131.671488 
L 437.137684 132.12717 
L 437.734475 132.034189 
L 438.928058 132.369767 
L 439.52485 131.803189 
L 440.718432 132.095206 
L 441.315224 132.051681 
L 441.912015 132.303661 
L 443.70239 132.161085 
L 444.299181 131.967513 
L 444.895973 132.354161 
L 445.492764 131.975016 
L 446.089555 132.182796 
L 446.686347 132.544544 
L 447.283138 131.972249 
L 448.476721 131.915321 
L 449.073513 132.331115 
L 450.267096 131.816527 
L 450.863887 132.304512 
L 451.460678 132.377821 
L 452.05747 132.626734 
L 452.654261 131.688815 
L 453.251053 131.714281 
L 453.847844 131.614019 
L 454.444636 132.079389 
L 455.041427 132.188325 
L 455.638219 132.439305 
L 456.23501 131.979743 
L 456.831801 132.116415 
L 457.428593 132.016496 
L 458.025384 131.69748 
L 459.218967 131.803803 
L 459.815759 132.211845 
L 461.009342 131.57137 
L 462.202924 131.918404 
L 463.396507 131.618256 
L 463.993299 131.558009 
L 464.59009 132.026717 
L 465.186882 131.699965 
L 465.783673 131.870529 
L 466.380465 131.543193 
L 466.977256 132.062371 
L 467.574047 131.957107 
L 468.170839 132.110093 
L 468.76763 132.470885 
L 469.364422 131.054369 
L 469.961213 131.723853 
L 470.558005 131.715947 
L 471.154796 132.028528 
L 472.348379 131.659274 
L 472.94517 132.247391 
L 473.541962 131.672925 
L 474.138753 131.597974 
L 474.735545 131.732283 
L 475.332336 131.699916 
L 476.525919 131.758162 
L 477.122711 131.795467 
L 477.719502 131.673372 
L 478.316293 131.809686 
L 479.509876 131.494584 
L 480.106668 131.954713 
L 481.300251 131.584319 
L 481.897042 131.833002 
L 483.090625 131.703295 
L 483.687416 131.677965 
L 484.284208 131.992524 
L 484.880999 131.968231 
L 485.477791 131.450183 
L 486.074582 131.479969 
L 486.671374 131.844268 
L 488.461748 132.008511 
L 489.058539 131.809393 
L 489.655331 131.492316 
L 490.252122 131.757611 
L 491.445705 131.993016 
L 492.042497 131.637031 
L 492.639288 131.938927 
L 493.23608 131.774237 
L 493.832871 131.964773 
L 495.026454 131.895405 
L 495.623245 131.948727 
L 496.220037 131.515204 
L 497.41362 132.207389 
L 498.010411 131.735948 
L 498.607203 132.070266 
L 499.203994 131.860781 
L 499.800785 132.190618 
L 503.381534 131.559104 
L 503.978326 131.671975 
L 504.575117 131.950997 
L 505.171908 131.896108 
L 505.7687 131.64032 
L 506.365491 131.933831 
L 507.559074 131.75569 
L 509.349449 132.094871 
L 509.94624 131.759928 
L 510.543031 132.166826 
L 511.139823 131.618161 
L 511.736614 131.561967 
L 512.333406 131.859707 
L 513.526989 132.088196 
L 514.12378 132.030596 
L 514.720572 131.648646 
L 515.317363 131.550221 
L 515.914154 131.971596 
L 516.510946 131.857384 
L 517.107737 131.878065 
L 518.30132 131.605734 
L 518.898112 131.69852 
L 519.494903 131.660687 
L 520.091695 131.775266 
L 520.688486 131.438046 
L 521.285277 131.552678 
L 521.882069 131.396635 
L 523.075652 131.83833 
L 523.672443 131.473621 
L 524.269235 131.635664 
L 524.866026 131.678527 
L 525.462818 131.920461 
L 526.059609 131.773751 
L 526.6564 132.306822 
L 527.253192 131.304828 
L 527.849983 131.778464 
L 528.446775 131.538824 
L 529.043566 131.763851 
L 529.640358 131.714413 
L 530.237149 131.429222 
L 530.833941 131.819786 
L 531.430732 131.845981 
L 532.027523 131.56035 
L 533.221106 132.002589 
L 533.817898 131.722383 
L 535.608272 131.521583 
L 536.205064 131.46646 
L 537.398646 131.50372 
L 537.995438 131.938737 
L 538.592229 131.92355 
L 539.189021 132.035225 
L 540.382604 131.24189 
L 540.979395 131.710644 
L 541.576186 131.549152 
L 542.172978 131.866717 
L 542.769769 131.670899 
L 543.366561 132.145703 
L 543.963352 131.633061 
L 544.560144 132.025985 
L 545.156935 131.635501 
L 545.753727 131.846807 
L 546.350518 131.586124 
L 546.947309 131.59473 
L 547.544101 131.844681 
L 548.140892 131.914229 
L 548.737684 131.781952 
L 549.334475 131.862954 
L 549.931267 131.612892 
L 550.528058 132.049388 
L 551.721641 131.710847 
L 552.915224 131.814407 
L 555.30239 131.633862 
L 555.899181 131.919696 
L 556.495973 131.889533 
L 557.092764 131.308385 
L 557.689555 131.816644 
L 558.286347 131.87194 
L 558.883138 132.250742 
L 559.47993 131.864412 
L 560.076721 132.072855 
L 561.867096 131.621402 
L 562.463887 132.11461 
L 563.65747 131.885377 
L 564.254261 131.685562 
L 565.447844 132.014241 
L 566.044636 131.842992 
L 566.641427 131.883854 
L 567.238219 131.669728 
L 568.431801 132.134826 
L 569.028593 132.196674 
L 569.625384 131.534695 
L 570.222176 132.15809 
L 571.415759 131.824913 
L 572.01255 131.623415 
L 572.609342 131.993667 
L 573.206133 131.661674 
L 574.399716 131.780232 
L 574.996507 132.19422 
L 575.593299 131.92404 
L 576.19009 132.082007 
L 577.383673 131.905608 
L 577.980465 131.992586 
L 578.577256 131.585773 
L 579.174047 131.977195 
L 579.770839 131.712126 
L 580.964422 131.844544 
L 581.561213 131.698864 
L 582.158005 131.845577 
L 582.754796 131.667254 
L 583.351588 132.02546 
L 585.141962 131.764295 
L 586.335545 132.132961 
L 586.932336 132.054161 
L 587.529128 132.244216 
L 588.125919 132.261325 
L 588.722711 131.83644 
L 589.319502 132.054553 
L 589.916293 132.070764 
L 590.513085 131.745654 
L 591.109876 131.886346 
L 592.900251 131.744843 
L 593.497042 132.091431 
L 594.690625 131.787761 
L 595.287416 131.802511 
L 595.884208 131.600847 
L 597.674582 131.84851 
L 598.271374 131.834268 
L 598.868165 131.674467 
L 599.464957 132.130691 
L 600.658539 131.613253 
L 601.255331 132.004221 
L 601.852122 131.64069 
L 602.448914 131.919935 
L 603.045705 131.977815 
L 603.642497 131.861181 
L 604.239288 131.879449 
L 604.83608 132.129206 
L 605.432871 132.586272 
L 606.029662 132.397014 
L 606.626454 132.374833 
L 607.820037 131.922759 
L 609.610411 132.166175 
L 610.207203 131.987028 
L 610.803994 132.20129 
L 611.400785 131.900301 
L 611.997577 132.454928 
L 612.594368 131.965419 
L 615.578326 131.995658 
L 616.175117 131.694976 
L 616.771908 131.820483 
L 617.3687 132.268407 
L 617.965491 131.81003 
L 619.755866 132.331839 
L 620.352657 132.089079 
L 620.949449 132.156123 
L 622.143031 131.914557 
L 622.739823 131.779056 
L 623.336614 132.429212 
L 623.933406 132.035896 
L 624.530197 132.156378 
L 625.126989 131.920942 
L 625.126989 131.920942 
" clip-path="url(#p5481aa8f4e)" style="fill: none; stroke: #ff7f0e; stroke-width: 1.5; stroke-linecap: square"/>
   </g>
   <g id="patch_3">
    <path d="M 92.490625 308.63625 
L 92.490625 31.43625 
" style="fill: none; stroke: #000000; stroke-width: 0.8; stroke-linejoin: miter; stroke-linecap: square"/>
   </g>
   <g id="patch_4">
    <path d="M 650.490625 308.63625 
L 650.490625 31.43625 
" style="fill: none; stroke: #000000; stroke-width: 0.8; stroke-linejoin: miter; stroke-linecap: square"/>
   </g>
   <g id="patch_5">
    <path d="M 92.490625 308.63625 
L 650.490625 308.63625 
" style="fill: none; stroke: #000000; stroke-width: 0.8; stroke-linejoin: miter; stroke-linecap: square"/>
   </g>
   <g id="patch_6">
    <path d="M 92.490625 31.43625 
L 650.490625 31.43625 
" style="fill: none; stroke: #000000; stroke-width: 0.8; stroke-linejoin: miter; stroke-linecap: square"/>
   </g>
   <g id="text_13">
    <!-- Generator and Discriminator Loss During Training -->
    <g transform="translate(74.258125 25.43625) scale(0.24 -0.24)">
     <defs>
      <path id="DejaVuSans-47" d="M 3809 666 
L 3809 1919 
L 2778 1919 
L 2778 2438 
L 4434 2438 
L 4434 434 
Q 4069 175 3628 42 
Q 3188 -91 2688 -91 
Q 1594 -91 976 548 
Q 359 1188 359 2328 
Q 359 3472 976 4111 
Q 1594 4750 2688 4750 
Q 3144 4750 3555 4637 
Q 3966 4525 4313 4306 
L 4313 3634 
Q 3963 3931 3569 4081 
Q 3175 4231 2741 4231 
Q 1884 4231 1454 3753 
Q 1025 3275 1025 2328 
Q 1025 1384 1454 906 
Q 1884 428 2741 428 
Q 3075 428 3337 486 
Q 3600 544 3809 666 
z
" transform="scale(0.015625)"/>
      <path id="DejaVuSans-20" transform="scale(0.015625)"/>
      <path id="DejaVuSans-64" d="M 2906 2969 
L 2906 4863 
L 3481 4863 
L 3481 0 
L 2906 0 
L 2906 525 
Q 2725 213 2448 61 
Q 2172 -91 1784 -91 
Q 1150 -91 751 415 
Q 353 922 353 1747 
Q 353 2572 751 3078 
Q 1150 3584 1784 3584 
Q 2172 3584 2448 3432 
Q 2725 3281 2906 2969 
z
M 947 1747 
Q 947 1113 1208 752 
Q 1469 391 1925 391 
Q 2381 391 2643 752 
Q 2906 1113 2906 1747 
Q 2906 2381 2643 2742 
Q 2381 3103 1925 3103 
Q 1469 3103 1208 2742 
Q 947 2381 947 1747 
z
" transform="scale(0.015625)"/>
      <path id="DejaVuSans-44" d="M 1259 4147 
L 1259 519 
L 2022 519 
Q 2988 519 3436 956 
Q 3884 1394 3884 2338 
Q 3884 3275 3436 3711 
Q 2988 4147 2022 4147 
L 1259 4147 
z
M 628 4666 
L 1925 4666 
Q 3281 4666 3915 4102 
Q 4550 3538 4550 2338 
Q 4550 1131 3912 565 
Q 3275 0 1925 0 
L 628 0 
L 628 4666 
z
" transform="scale(0.015625)"/>
      <path id="DejaVuSans-63" d="M 3122 3366 
L 3122 2828 
Q 2878 2963 2633 3030 
Q 2388 3097 2138 3097 
Q 1578 3097 1268 2742 
Q 959 2388 959 1747 
Q 959 1106 1268 751 
Q 1578 397 2138 397 
Q 2388 397 2633 464 
Q 2878 531 3122 666 
L 3122 134 
Q 2881 22 2623 -34 
Q 2366 -91 2075 -91 
Q 1284 -91 818 406 
Q 353 903 353 1747 
Q 353 2603 823 3093 
Q 1294 3584 2113 3584 
Q 2378 3584 2631 3529 
Q 2884 3475 3122 3366 
z
" transform="scale(0.015625)"/>
      <path id="DejaVuSans-6d" d="M 3328 2828 
Q 3544 3216 3844 3400 
Q 4144 3584 4550 3584 
Q 5097 3584 5394 3201 
Q 5691 2819 5691 2113 
L 5691 0 
L 5113 0 
L 5113 2094 
Q 5113 2597 4934 2840 
Q 4756 3084 4391 3084 
Q 3944 3084 3684 2787 
Q 3425 2491 3425 1978 
L 3425 0 
L 2847 0 
L 2847 2094 
Q 2847 2600 2669 2842 
Q 2491 3084 2119 3084 
Q 1678 3084 1418 2786 
Q 1159 2488 1159 1978 
L 1159 0 
L 581 0 
L 581 3500 
L 1159 3500 
L 1159 2956 
Q 1356 3278 1631 3431 
Q 1906 3584 2284 3584 
Q 2666 3584 2933 3390 
Q 3200 3197 3328 2828 
z
" transform="scale(0.015625)"/>
      <path id="DejaVuSans-75" d="M 544 1381 
L 544 3500 
L 1119 3500 
L 1119 1403 
Q 1119 906 1312 657 
Q 1506 409 1894 409 
Q 2359 409 2629 706 
Q 2900 1003 2900 1516 
L 2900 3500 
L 3475 3500 
L 3475 0 
L 2900 0 
L 2900 538 
Q 2691 219 2414 64 
Q 2138 -91 1772 -91 
Q 1169 -91 856 284 
Q 544 659 544 1381 
z
M 1991 3584 
L 1991 3584 
z
" transform="scale(0.015625)"/>
      <path id="DejaVuSans-67" d="M 2906 1791 
Q 2906 2416 2648 2759 
Q 2391 3103 1925 3103 
Q 1463 3103 1205 2759 
Q 947 2416 947 1791 
Q 947 1169 1205 825 
Q 1463 481 1925 481 
Q 2391 481 2648 825 
Q 2906 1169 2906 1791 
z
M 3481 434 
Q 3481 -459 3084 -895 
Q 2688 -1331 1869 -1331 
Q 1566 -1331 1297 -1286 
Q 1028 -1241 775 -1147 
L 775 -588 
Q 1028 -725 1275 -790 
Q 1522 -856 1778 -856 
Q 2344 -856 2625 -561 
Q 2906 -266 2906 331 
L 2906 616 
Q 2728 306 2450 153 
Q 2172 0 1784 0 
Q 1141 0 747 490 
Q 353 981 353 1791 
Q 353 2603 747 3093 
Q 1141 3584 1784 3584 
Q 2172 3584 2450 3431 
Q 2728 3278 2906 2969 
L 2906 3500 
L 3481 3500 
L 3481 434 
z
" transform="scale(0.015625)"/>
      <path id="DejaVuSans-54" d="M -19 4666 
L 3928 4666 
L 3928 4134 
L 2272 4134 
L 2272 0 
L 1638 0 
L 1638 4134 
L -19 4134 
L -19 4666 
z
" transform="scale(0.015625)"/>
     </defs>
     <use xlink:href="#DejaVuSans-47"/>
     <use xlink:href="#DejaVuSans-65" x="77.490234"/>
     <use xlink:href="#DejaVuSans-6e" x="139.013672"/>
     <use xlink:href="#DejaVuSans-65" x="202.392578"/>
     <use xlink:href="#DejaVuSans-72" x="263.916016"/>
     <use xlink:href="#DejaVuSans-61" x="305.029297"/>
     <use xlink:href="#DejaVuSans-74" x="366.308594"/>
     <use xlink:href="#DejaVuSans-6f" x="405.517578"/>
     <use xlink:href="#DejaVuSans-72" x="466.699219"/>
     <use xlink:href="#DejaVuSans-20" x="507.8125"/>
     <use xlink:href="#DejaVuSans-61" x="539.599609"/>
     <use xlink:href="#DejaVuSans-6e" x="600.878906"/>
     <use xlink:href="#DejaVuSans-64" x="664.257812"/>
     <use xlink:href="#DejaVuSans-20" x="727.734375"/>
     <use xlink:href="#DejaVuSans-44" x="759.521484"/>
     <use xlink:href="#DejaVuSans-69" x="836.523438"/>
     <use xlink:href="#DejaVuSans-73" x="864.306641"/>
     <use xlink:href="#DejaVuSans-63" x="916.40625"/>
     <use xlink:href="#DejaVuSans-72" x="971.386719"/>
     <use xlink:href="#DejaVuSans-69" x="1012.5"/>
     <use xlink:href="#DejaVuSans-6d" x="1040.283203"/>
     <use xlink:href="#DejaVuSans-69" x="1137.695312"/>
     <use xlink:href="#DejaVuSans-6e" x="1165.478516"/>
     <use xlink:href="#DejaVuSans-61" x="1228.857422"/>
     <use xlink:href="#DejaVuSans-74" x="1290.136719"/>
     <use xlink:href="#DejaVuSans-6f" x="1329.345703"/>
     <use xlink:href="#DejaVuSans-72" x="1390.527344"/>
     <use xlink:href="#DejaVuSans-20" x="1431.640625"/>
     <use xlink:href="#DejaVuSans-4c" x="1463.427734"/>
     <use xlink:href="#DejaVuSans-6f" x="1517.390625"/>
     <use xlink:href="#DejaVuSans-73" x="1578.572266"/>
     <use xlink:href="#DejaVuSans-73" x="1630.671875"/>
     <use xlink:href="#DejaVuSans-20" x="1682.771484"/>
     <use xlink:href="#DejaVuSans-44" x="1714.558594"/>
     <use xlink:href="#DejaVuSans-75" x="1791.560547"/>
     <use xlink:href="#DejaVuSans-72" x="1854.939453"/>
     <use xlink:href="#DejaVuSans-69" x="1896.052734"/>
     <use xlink:href="#DejaVuSans-6e" x="1923.835938"/>
     <use xlink:href="#DejaVuSans-67" x="1987.214844"/>
     <use xlink:href="#DejaVuSans-20" x="2050.691406"/>
     <use xlink:href="#DejaVuSans-54" x="2082.478516"/>
     <use xlink:href="#DejaVuSans-72" x="2128.8125"/>
     <use xlink:href="#DejaVuSans-61" x="2169.925781"/>
     <use xlink:href="#DejaVuSans-69" x="2231.205078"/>
     <use xlink:href="#DejaVuSans-6e" x="2258.988281"/>
     <use xlink:href="#DejaVuSans-69" x="2322.367188"/>
     <use xlink:href="#DejaVuSans-6e" x="2350.150391"/>
     <use xlink:href="#DejaVuSans-67" x="2413.529297"/>
    </g>
   </g>
   <g id="legend_1">
    <g id="patch_7">
     <path d="M 556.99375 106.14875 
L 636.490625 106.14875 
Q 640.490625 106.14875 640.490625 102.14875 
L 640.490625 45.43625 
Q 640.490625 41.43625 636.490625 41.43625 
L 556.99375 41.43625 
Q 552.99375 41.43625 552.99375 45.43625 
L 552.99375 102.14875 
Q 552.99375 106.14875 556.99375 106.14875 
z
" style="fill: #ffffff; opacity: 0.8; stroke: #cccccc; stroke-linejoin: miter"/>
    </g>
    <g id="line2d_13">
     <path d="M 560.99375 57.633125 
L 580.99375 57.633125 
L 600.99375 57.633125 
" style="fill: none; stroke: #1f77b4; stroke-width: 1.5; stroke-linecap: square"/>
    </g>
    <g id="text_14">
     <!-- G -->
     <g transform="translate(616.99375 64.633125) scale(0.2 -0.2)">
      <use xlink:href="#DejaVuSans-47"/>
     </g>
    </g>
    <g id="line2d_14">
     <path d="M 560.99375 86.989375 
L 580.99375 86.989375 
L 600.99375 86.989375 
" style="fill: none; stroke: #ff7f0e; stroke-width: 1.5; stroke-linecap: square"/>
    </g>
    <g id="text_15">
     <!-- D -->
     <g transform="translate(616.99375 93.989375) scale(0.2 -0.2)">
      <use xlink:href="#DejaVuSans-44"/>
     </g>
    </g>
   </g>
  </g>
 </g>
 <defs>
  <clipPath id="p5481aa8f4e">
   <rect x="92.490625" y="31.43625" width="558" height="277.2"/>
  </clipPath>
 </defs>
</svg>
