<?xml version="1.0" encoding="utf-8" standalone="no"?>
<!DOCTYPE svg PUBLIC "-//W3C//DTD SVG 1.1//EN"
  "http://www.w3.org/Graphics/SVG/1.1/DTD/svg11.dtd">
<svg xmlns:xlink="http://www.w3.org/1999/xlink" width="676.564867pt" height="365.54875pt" viewBox="0 0 676.564867 365.54875" xmlns="http://www.w3.org/2000/svg" version="1.1">
 <metadata>
  <rdf:RDF xmlns:dc="http://purl.org/dc/elements/1.1/" xmlns:cc="http://creativecommons.org/ns#" xmlns:rdf="http://www.w3.org/1999/02/22-rdf-syntax-ns#">
   <cc:Work>
    <dc:type rdf:resource="http://purl.org/dc/dcmitype/StillImage"/>
    <dc:date>2024-02-04T18:00:58.481011</dc:date>
    <dc:format>image/svg+xml</dc:format>
    <dc:creator>
     <cc:Agent>
      <dc:title>Matplotlib v3.7.2, https://matplotlib.org/</dc:title>
     </cc:Agent>
    </dc:creator>
   </cc:Work>
  </rdf:RDF>
 </metadata>
 <defs>
  <style type="text/css">*{stroke-linejoin: round; stroke-linecap: butt}</style>
 </defs>
 <g id="figure_1">
  <g id="patch_1">
   <path d="M 0 365.54875 
L 676.564867 365.54875 
L 676.564867 -0 
L 0 -0 
z
" style="fill: #ffffff"/>
  </g>
  <g id="axes_1">
   <g id="patch_2">
    <path d="M 92.490625 308.63625 
L 650.490625 308.63625 
L 650.490625 31.43625 
L 92.490625 31.43625 
z
" style="fill: #ffffff"/>
   </g>
   <g id="matplotlib.axis_1">
    <g id="xtick_1">
     <g id="line2d_1">
      <defs>
       <path id="m33a44e55ea" d="M 0 0 
L 0 3.5 
" style="stroke: #000000; stroke-width: 0.8"/>
      </defs>
      <g>
       <use xlink:href="#m33a44e55ea" x="117.854261" y="308.63625" style="stroke: #000000; stroke-width: 0.8"/>
      </g>
     </g>
     <g id="text_1">
      <!-- 0 -->
      <g transform="translate(111.491761 330.833125) scale(0.2 -0.2)">
       <defs>
        <path id="DejaVuSans-30" d="M 2034 4250 
Q 1547 4250 1301 3770 
Q 1056 3291 1056 2328 
Q 1056 1369 1301 889 
Q 1547 409 2034 409 
Q 2525 409 2770 889 
Q 3016 1369 3016 2328 
Q 3016 3291 2770 3770 
Q 2525 4250 2034 4250 
z
M 2034 4750 
Q 2819 4750 3233 4129 
Q 3647 3509 3647 2328 
Q 3647 1150 3233 529 
Q 2819 -91 2034 -91 
Q 1250 -91 836 529 
Q 422 1150 422 2328 
Q 422 3509 836 4129 
Q 1250 4750 2034 4750 
z
" transform="scale(0.015625)"/>
       </defs>
       <use xlink:href="#DejaVuSans-30"/>
      </g>
     </g>
    </g>
    <g id="xtick_2">
     <g id="line2d_2">
      <g>
       <use xlink:href="#m33a44e55ea" x="193.005777" y="308.63625" style="stroke: #000000; stroke-width: 0.8"/>
      </g>
     </g>
     <g id="text_2">
      <!-- 200 -->
      <g transform="translate(173.918277 330.833125) scale(0.2 -0.2)">
       <defs>
        <path id="DejaVuSans-32" d="M 1228 531 
L 3431 531 
L 3431 0 
L 469 0 
L 469 531 
Q 828 903 1448 1529 
Q 2069 2156 2228 2338 
Q 2531 2678 2651 2914 
Q 2772 3150 2772 3378 
Q 2772 3750 2511 3984 
Q 2250 4219 1831 4219 
Q 1534 4219 1204 4116 
Q 875 4013 500 3803 
L 500 4441 
Q 881 4594 1212 4672 
Q 1544 4750 1819 4750 
Q 2544 4750 2975 4387 
Q 3406 4025 3406 3419 
Q 3406 3131 3298 2873 
Q 3191 2616 2906 2266 
Q 2828 2175 2409 1742 
Q 1991 1309 1228 531 
z
" transform="scale(0.015625)"/>
       </defs>
       <use xlink:href="#DejaVuSans-32"/>
       <use xlink:href="#DejaVuSans-30" x="63.623047"/>
       <use xlink:href="#DejaVuSans-30" x="127.246094"/>
      </g>
     </g>
    </g>
    <g id="xtick_3">
     <g id="line2d_3">
      <g>
       <use xlink:href="#m33a44e55ea" x="268.157292" y="308.63625" style="stroke: #000000; stroke-width: 0.8"/>
      </g>
     </g>
     <g id="text_3">
      <!-- 400 -->
      <g transform="translate(249.069792 330.833125) scale(0.2 -0.2)">
       <defs>
        <path id="DejaVuSans-34" d="M 2419 4116 
L 825 1625 
L 2419 1625 
L 2419 4116 
z
M 2253 4666 
L 3047 4666 
L 3047 1625 
L 3713 1625 
L 3713 1100 
L 3047 1100 
L 3047 0 
L 2419 0 
L 2419 1100 
L 313 1100 
L 313 1709 
L 2253 4666 
z
" transform="scale(0.015625)"/>
       </defs>
       <use xlink:href="#DejaVuSans-34"/>
       <use xlink:href="#DejaVuSans-30" x="63.623047"/>
       <use xlink:href="#DejaVuSans-30" x="127.246094"/>
      </g>
     </g>
    </g>
    <g id="xtick_4">
     <g id="line2d_4">
      <g>
       <use xlink:href="#m33a44e55ea" x="343.308807" y="308.63625" style="stroke: #000000; stroke-width: 0.8"/>
      </g>
     </g>
     <g id="text_4">
      <!-- 600 -->
      <g transform="translate(324.221307 330.833125) scale(0.2 -0.2)">
       <defs>
        <path id="DejaVuSans-36" d="M 2113 2584 
Q 1688 2584 1439 2293 
Q 1191 2003 1191 1497 
Q 1191 994 1439 701 
Q 1688 409 2113 409 
Q 2538 409 2786 701 
Q 3034 994 3034 1497 
Q 3034 2003 2786 2293 
Q 2538 2584 2113 2584 
z
M 3366 4563 
L 3366 3988 
Q 3128 4100 2886 4159 
Q 2644 4219 2406 4219 
Q 1781 4219 1451 3797 
Q 1122 3375 1075 2522 
Q 1259 2794 1537 2939 
Q 1816 3084 2150 3084 
Q 2853 3084 3261 2657 
Q 3669 2231 3669 1497 
Q 3669 778 3244 343 
Q 2819 -91 2113 -91 
Q 1303 -91 875 529 
Q 447 1150 447 2328 
Q 447 3434 972 4092 
Q 1497 4750 2381 4750 
Q 2619 4750 2861 4703 
Q 3103 4656 3366 4563 
z
" transform="scale(0.015625)"/>
       </defs>
       <use xlink:href="#DejaVuSans-36"/>
       <use xlink:href="#DejaVuSans-30" x="63.623047"/>
       <use xlink:href="#DejaVuSans-30" x="127.246094"/>
      </g>
     </g>
    </g>
    <g id="xtick_5">
     <g id="line2d_5">
      <g>
       <use xlink:href="#m33a44e55ea" x="418.460322" y="308.63625" style="stroke: #000000; stroke-width: 0.8"/>
      </g>
     </g>
     <g id="text_5">
      <!-- 800 -->
      <g transform="translate(399.372822 330.833125) scale(0.2 -0.2)">
       <defs>
        <path id="DejaVuSans-38" d="M 2034 2216 
Q 1584 2216 1326 1975 
Q 1069 1734 1069 1313 
Q 1069 891 1326 650 
Q 1584 409 2034 409 
Q 2484 409 2743 651 
Q 3003 894 3003 1313 
Q 3003 1734 2745 1975 
Q 2488 2216 2034 2216 
z
M 1403 2484 
Q 997 2584 770 2862 
Q 544 3141 544 3541 
Q 544 4100 942 4425 
Q 1341 4750 2034 4750 
Q 2731 4750 3128 4425 
Q 3525 4100 3525 3541 
Q 3525 3141 3298 2862 
Q 3072 2584 2669 2484 
Q 3125 2378 3379 2068 
Q 3634 1759 3634 1313 
Q 3634 634 3220 271 
Q 2806 -91 2034 -91 
Q 1263 -91 848 271 
Q 434 634 434 1313 
Q 434 1759 690 2068 
Q 947 2378 1403 2484 
z
M 1172 3481 
Q 1172 3119 1398 2916 
Q 1625 2713 2034 2713 
Q 2441 2713 2670 2916 
Q 2900 3119 2900 3481 
Q 2900 3844 2670 4047 
Q 2441 4250 2034 4250 
Q 1625 4250 1398 4047 
Q 1172 3844 1172 3481 
z
" transform="scale(0.015625)"/>
       </defs>
       <use xlink:href="#DejaVuSans-38"/>
       <use xlink:href="#DejaVuSans-30" x="63.623047"/>
       <use xlink:href="#DejaVuSans-30" x="127.246094"/>
      </g>
     </g>
    </g>
    <g id="xtick_6">
     <g id="line2d_6">
      <g>
       <use xlink:href="#m33a44e55ea" x="493.611837" y="308.63625" style="stroke: #000000; stroke-width: 0.8"/>
      </g>
     </g>
     <g id="text_6">
      <!-- 1000 -->
      <g transform="translate(468.161837 330.833125) scale(0.2 -0.2)">
       <defs>
        <path id="DejaVuSans-31" d="M 794 531 
L 1825 531 
L 1825 4091 
L 703 3866 
L 703 4441 
L 1819 4666 
L 2450 4666 
L 2450 531 
L 3481 531 
L 3481 0 
L 794 0 
L 794 531 
z
" transform="scale(0.015625)"/>
       </defs>
       <use xlink:href="#DejaVuSans-31"/>
       <use xlink:href="#DejaVuSans-30" x="63.623047"/>
       <use xlink:href="#DejaVuSans-30" x="127.246094"/>
       <use xlink:href="#DejaVuSans-30" x="190.869141"/>
      </g>
     </g>
    </g>
    <g id="xtick_7">
     <g id="line2d_7">
      <g>
       <use xlink:href="#m33a44e55ea" x="568.763352" y="308.63625" style="stroke: #000000; stroke-width: 0.8"/>
      </g>
     </g>
     <g id="text_7">
      <!-- 1200 -->
      <g transform="translate(543.313352 330.833125) scale(0.2 -0.2)">
       <use xlink:href="#DejaVuSans-31"/>
       <use xlink:href="#DejaVuSans-32" x="63.623047"/>
       <use xlink:href="#DejaVuSans-30" x="127.246094"/>
       <use xlink:href="#DejaVuSans-30" x="190.869141"/>
      </g>
     </g>
    </g>
    <g id="xtick_8">
     <g id="line2d_8">
      <g>
       <use xlink:href="#m33a44e55ea" x="643.914867" y="308.63625" style="stroke: #000000; stroke-width: 0.8"/>
      </g>
     </g>
     <g id="text_8">
      <!-- 1400 -->
      <g transform="translate(618.464867 330.833125) scale(0.2 -0.2)">
       <use xlink:href="#DejaVuSans-31"/>
       <use xlink:href="#DejaVuSans-34" x="63.623047"/>
       <use xlink:href="#DejaVuSans-30" x="127.246094"/>
       <use xlink:href="#DejaVuSans-30" x="190.869141"/>
      </g>
     </g>
    </g>
    <g id="text_9">
     <!-- iterations -->
     <g transform="translate(324.035938 354.189375) scale(0.2 -0.2)">
      <defs>
       <path id="DejaVuSans-69" d="M 603 3500 
L 1178 3500 
L 1178 0 
L 603 0 
L 603 3500 
z
M 603 4863 
L 1178 4863 
L 1178 4134 
L 603 4134 
L 603 4863 
z
" transform="scale(0.015625)"/>
       <path id="DejaVuSans-74" d="M 1172 4494 
L 1172 3500 
L 2356 3500 
L 2356 3053 
L 1172 3053 
L 1172 1153 
Q 1172 725 1289 603 
Q 1406 481 1766 481 
L 2356 481 
L 2356 0 
L 1766 0 
Q 1100 0 847 248 
Q 594 497 594 1153 
L 594 3053 
L 172 3053 
L 172 3500 
L 594 3500 
L 594 4494 
L 1172 4494 
z
" transform="scale(0.015625)"/>
       <path id="DejaVuSans-65" d="M 3597 1894 
L 3597 1613 
L 953 1613 
Q 991 1019 1311 708 
Q 1631 397 2203 397 
Q 2534 397 2845 478 
Q 3156 559 3463 722 
L 3463 178 
Q 3153 47 2828 -22 
Q 2503 -91 2169 -91 
Q 1331 -91 842 396 
Q 353 884 353 1716 
Q 353 2575 817 3079 
Q 1281 3584 2069 3584 
Q 2775 3584 3186 3129 
Q 3597 2675 3597 1894 
z
M 3022 2063 
Q 3016 2534 2758 2815 
Q 2500 3097 2075 3097 
Q 1594 3097 1305 2825 
Q 1016 2553 972 2059 
L 3022 2063 
z
" transform="scale(0.015625)"/>
       <path id="DejaVuSans-72" d="M 2631 2963 
Q 2534 3019 2420 3045 
Q 2306 3072 2169 3072 
Q 1681 3072 1420 2755 
Q 1159 2438 1159 1844 
L 1159 0 
L 581 0 
L 581 3500 
L 1159 3500 
L 1159 2956 
Q 1341 3275 1631 3429 
Q 1922 3584 2338 3584 
Q 2397 3584 2469 3576 
Q 2541 3569 2628 3553 
L 2631 2963 
z
" transform="scale(0.015625)"/>
       <path id="DejaVuSans-61" d="M 2194 1759 
Q 1497 1759 1228 1600 
Q 959 1441 959 1056 
Q 959 750 1161 570 
Q 1363 391 1709 391 
Q 2188 391 2477 730 
Q 2766 1069 2766 1631 
L 2766 1759 
L 2194 1759 
z
M 3341 1997 
L 3341 0 
L 2766 0 
L 2766 531 
Q 2569 213 2275 61 
Q 1981 -91 1556 -91 
Q 1019 -91 701 211 
Q 384 513 384 1019 
Q 384 1609 779 1909 
Q 1175 2209 1959 2209 
L 2766 2209 
L 2766 2266 
Q 2766 2663 2505 2880 
Q 2244 3097 1772 3097 
Q 1472 3097 1187 3025 
Q 903 2953 641 2809 
L 641 3341 
Q 956 3463 1253 3523 
Q 1550 3584 1831 3584 
Q 2591 3584 2966 3190 
Q 3341 2797 3341 1997 
z
" transform="scale(0.015625)"/>
       <path id="DejaVuSans-6f" d="M 1959 3097 
Q 1497 3097 1228 2736 
Q 959 2375 959 1747 
Q 959 1119 1226 758 
Q 1494 397 1959 397 
Q 2419 397 2687 759 
Q 2956 1122 2956 1747 
Q 2956 2369 2687 2733 
Q 2419 3097 1959 3097 
z
M 1959 3584 
Q 2709 3584 3137 3096 
Q 3566 2609 3566 1747 
Q 3566 888 3137 398 
Q 2709 -91 1959 -91 
Q 1206 -91 779 398 
Q 353 888 353 1747 
Q 353 2609 779 3096 
Q 1206 3584 1959 3584 
z
" transform="scale(0.015625)"/>
       <path id="DejaVuSans-6e" d="M 3513 2113 
L 3513 0 
L 2938 0 
L 2938 2094 
Q 2938 2591 2744 2837 
Q 2550 3084 2163 3084 
Q 1697 3084 1428 2787 
Q 1159 2491 1159 1978 
L 1159 0 
L 581 0 
L 581 3500 
L 1159 3500 
L 1159 2956 
Q 1366 3272 1645 3428 
Q 1925 3584 2291 3584 
Q 2894 3584 3203 3211 
Q 3513 2838 3513 2113 
z
" transform="scale(0.015625)"/>
       <path id="DejaVuSans-73" d="M 2834 3397 
L 2834 2853 
Q 2591 2978 2328 3040 
Q 2066 3103 1784 3103 
Q 1356 3103 1142 2972 
Q 928 2841 928 2578 
Q 928 2378 1081 2264 
Q 1234 2150 1697 2047 
L 1894 2003 
Q 2506 1872 2764 1633 
Q 3022 1394 3022 966 
Q 3022 478 2636 193 
Q 2250 -91 1575 -91 
Q 1294 -91 989 -36 
Q 684 19 347 128 
L 347 722 
Q 666 556 975 473 
Q 1284 391 1588 391 
Q 1994 391 2212 530 
Q 2431 669 2431 922 
Q 2431 1156 2273 1281 
Q 2116 1406 1581 1522 
L 1381 1569 
Q 847 1681 609 1914 
Q 372 2147 372 2553 
Q 372 3047 722 3315 
Q 1072 3584 1716 3584 
Q 2034 3584 2315 3537 
Q 2597 3491 2834 3397 
z
" transform="scale(0.015625)"/>
      </defs>
      <use xlink:href="#DejaVuSans-69"/>
      <use xlink:href="#DejaVuSans-74" x="27.783203"/>
      <use xlink:href="#DejaVuSans-65" x="66.992188"/>
      <use xlink:href="#DejaVuSans-72" x="128.515625"/>
      <use xlink:href="#DejaVuSans-61" x="169.628906"/>
      <use xlink:href="#DejaVuSans-74" x="230.908203"/>
      <use xlink:href="#DejaVuSans-69" x="270.117188"/>
      <use xlink:href="#DejaVuSans-6f" x="297.900391"/>
      <use xlink:href="#DejaVuSans-6e" x="359.082031"/>
      <use xlink:href="#DejaVuSans-73" x="422.460938"/>
     </g>
    </g>
   </g>
   <g id="matplotlib.axis_2">
    <g id="ytick_1">
     <g id="line2d_9">
      <defs>
       <path id="me5b3b787f7" d="M 0 0 
L -3.5 0 
" style="stroke: #000000; stroke-width: 0.8"/>
      </defs>
      <g>
       <use xlink:href="#me5b3b787f7" x="92.490625" y="275.383624" style="stroke: #000000; stroke-width: 0.8"/>
      </g>
     </g>
     <g id="text_10">
      <!-- −300 -->
      <g transform="translate(30.55625 282.982061) scale(0.2 -0.2)">
       <defs>
        <path id="DejaVuSans-2212" d="M 678 2272 
L 4684 2272 
L 4684 1741 
L 678 1741 
L 678 2272 
z
" transform="scale(0.015625)"/>
        <path id="DejaVuSans-33" d="M 2597 2516 
Q 3050 2419 3304 2112 
Q 3559 1806 3559 1356 
Q 3559 666 3084 287 
Q 2609 -91 1734 -91 
Q 1441 -91 1130 -33 
Q 819 25 488 141 
L 488 750 
Q 750 597 1062 519 
Q 1375 441 1716 441 
Q 2309 441 2620 675 
Q 2931 909 2931 1356 
Q 2931 1769 2642 2001 
Q 2353 2234 1838 2234 
L 1294 2234 
L 1294 2753 
L 1863 2753 
Q 2328 2753 2575 2939 
Q 2822 3125 2822 3475 
Q 2822 3834 2567 4026 
Q 2313 4219 1838 4219 
Q 1578 4219 1281 4162 
Q 984 4106 628 3988 
L 628 4550 
Q 988 4650 1302 4700 
Q 1616 4750 1894 4750 
Q 2613 4750 3031 4423 
Q 3450 4097 3450 3541 
Q 3450 3153 3228 2886 
Q 3006 2619 2597 2516 
z
" transform="scale(0.015625)"/>
       </defs>
       <use xlink:href="#DejaVuSans-2212"/>
       <use xlink:href="#DejaVuSans-33" x="83.789062"/>
       <use xlink:href="#DejaVuSans-30" x="147.412109"/>
       <use xlink:href="#DejaVuSans-30" x="211.035156"/>
      </g>
     </g>
    </g>
    <g id="ytick_2">
     <g id="line2d_10">
      <g>
       <use xlink:href="#me5b3b787f7" x="92.490625" y="226.548593" style="stroke: #000000; stroke-width: 0.8"/>
      </g>
     </g>
     <g id="text_11">
      <!-- −200 -->
      <g transform="translate(30.55625 234.147031) scale(0.2 -0.2)">
       <use xlink:href="#DejaVuSans-2212"/>
       <use xlink:href="#DejaVuSans-32" x="83.789062"/>
       <use xlink:href="#DejaVuSans-30" x="147.412109"/>
       <use xlink:href="#DejaVuSans-30" x="211.035156"/>
      </g>
     </g>
    </g>
    <g id="ytick_3">
     <g id="line2d_11">
      <g>
       <use xlink:href="#me5b3b787f7" x="92.490625" y="177.713563" style="stroke: #000000; stroke-width: 0.8"/>
      </g>
     </g>
     <g id="text_12">
      <!-- −100 -->
      <g transform="translate(30.55625 185.312) scale(0.2 -0.2)">
       <use xlink:href="#DejaVuSans-2212"/>
       <use xlink:href="#DejaVuSans-31" x="83.789062"/>
       <use xlink:href="#DejaVuSans-30" x="147.412109"/>
       <use xlink:href="#DejaVuSans-30" x="211.035156"/>
      </g>
     </g>
    </g>
    <g id="ytick_4">
     <g id="line2d_12">
      <g>
       <use xlink:href="#me5b3b787f7" x="92.490625" y="128.878533" style="stroke: #000000; stroke-width: 0.8"/>
      </g>
     </g>
     <g id="text_13">
      <!-- 0 -->
      <g transform="translate(72.765625 136.47697) scale(0.2 -0.2)">
       <use xlink:href="#DejaVuSans-30"/>
      </g>
     </g>
    </g>
    <g id="ytick_5">
     <g id="line2d_13">
      <g>
       <use xlink:href="#me5b3b787f7" x="92.490625" y="80.043502" style="stroke: #000000; stroke-width: 0.8"/>
      </g>
     </g>
     <g id="text_14">
      <!-- 100 -->
      <g transform="translate(47.315625 87.64194) scale(0.2 -0.2)">
       <use xlink:href="#DejaVuSans-31"/>
       <use xlink:href="#DejaVuSans-30" x="63.623047"/>
       <use xlink:href="#DejaVuSans-30" x="127.246094"/>
      </g>
     </g>
    </g>
    <g id="text_15">
     <!-- Loss -->
     <g transform="translate(22.396875 191.970625) rotate(-90) scale(0.2 -0.2)">
      <defs>
       <path id="DejaVuSans-4c" d="M 628 4666 
L 1259 4666 
L 1259 531 
L 3531 531 
L 3531 0 
L 628 0 
L 628 4666 
z
" transform="scale(0.015625)"/>
      </defs>
      <use xlink:href="#DejaVuSans-4c"/>
      <use xlink:href="#DejaVuSans-6f" x="53.962891"/>
      <use xlink:href="#DejaVuSans-73" x="115.144531"/>
      <use xlink:href="#DejaVuSans-73" x="167.244141"/>
     </g>
    </g>
   </g>
   <g id="line2d_14">
    <path d="M 117.854261 107.143996 
L 118.230019 57.897655 
L 118.605777 62.589217 
L 118.981534 71.838444 
L 119.357292 72.058068 
L 119.733049 78.835638 
L 120.108807 48.700135 
L 120.484564 69.151889 
L 120.860322 52.930212 
L 121.23608 66.096965 
L 121.611837 66.553032 
L 121.987595 76.876548 
L 122.363352 55.497317 
L 122.73911 51.115701 
L 123.114867 44.03625 
L 123.490625 51.05182 
L 123.866383 50.556376 
L 124.24214 47.220406 
L 124.617898 48.866878 
L 124.993655 59.287779 
L 125.369413 53.814842 
L 126.120928 75.333709 
L 126.496686 66.979208 
L 126.872443 67.998484 
L 127.623958 56.908396 
L 127.999716 56.25427 
L 128.375473 62.683745 
L 128.751231 62.834119 
L 129.126989 61.864756 
L 129.502746 59.659047 
L 129.878504 66.219703 
L 130.630019 63.601624 
L 131.005777 67.449061 
L 131.381534 60.970884 
L 131.757292 60.75248 
L 132.133049 63.60389 
L 133.260322 58.813955 
L 133.63608 67.023484 
L 134.011837 68.229069 
L 134.387595 64.692444 
L 134.763352 67.37511 
L 135.13911 70.902459 
L 135.514867 69.795967 
L 135.890625 74.728848 
L 136.266383 76.321566 
L 136.64214 77.42436 
L 137.017898 83.33243 
L 137.393655 83.696863 
L 137.769413 81.139497 
L 138.14517 84.503779 
L 138.520928 82.653976 
L 138.896686 83.971179 
L 139.272443 83.117448 
L 139.648201 92.629959 
L 140.023958 90.330475 
L 140.399716 92.275981 
L 140.775473 90.397232 
L 141.151231 85.023339 
L 141.902746 91.154721 
L 142.278504 90.441416 
L 142.654261 93.864369 
L 143.030019 94.436591 
L 143.405777 92.705835 
L 143.781534 92.095729 
L 144.157292 93.933289 
L 144.533049 93.130061 
L 144.908807 96.57687 
L 145.284564 96.221721 
L 145.660322 97.915892 
L 146.03608 97.105258 
L 146.411837 96.027037 
L 146.787595 98.865555 
L 147.163352 98.462802 
L 147.53911 99.901126 
L 147.914867 98.010141 
L 148.290625 96.744706 
L 148.666383 101.116059 
L 149.04214 101.463043 
L 149.417898 99.407777 
L 149.793655 99.079392 
L 150.169413 101.748936 
L 150.54517 96.373721 
L 150.920928 98.877538 
L 151.296686 98.64235 
L 151.672443 101.755311 
L 152.048201 100.498503 
L 152.423958 100.197472 
L 152.799716 101.359065 
L 153.175473 103.278208 
L 153.551231 101.968927 
L 153.926989 102.623733 
L 154.302746 105.687596 
L 154.678504 105.591574 
L 155.054261 105.222651 
L 155.430019 105.442727 
L 155.805777 105.435291 
L 156.181534 106.080857 
L 156.557292 104.933541 
L 157.308807 105.439361 
L 157.684564 104.112317 
L 158.060322 107.187193 
L 158.43608 105.623654 
L 158.811837 108.334138 
L 159.187595 109.120913 
L 159.563352 108.514233 
L 159.93911 108.621994 
L 160.314867 110.088807 
L 160.690625 107.799802 
L 161.066383 110.200852 
L 161.44214 107.412463 
L 161.817898 110.288919 
L 162.193655 110.331991 
L 162.569413 109.867902 
L 162.94517 112.363599 
L 163.320928 111.384776 
L 163.696686 112.310107 
L 164.072443 111.154051 
L 164.448201 111.986557 
L 164.823958 111.672193 
L 165.199716 113.862704 
L 165.575473 113.19168 
L 165.951231 114.015056 
L 166.326989 115.817951 
L 166.702746 115.191117 
L 167.078504 113.570448 
L 167.454261 114.281939 
L 167.830019 113.887923 
L 168.205777 115.180849 
L 168.581534 113.979114 
L 168.957292 113.208098 
L 169.333049 113.576696 
L 169.708807 112.998 
L 170.084564 113.869487 
L 170.83608 111.773753 
L 171.211837 114.315421 
L 171.587595 114.651964 
L 171.963352 113.95065 
L 172.33911 111.565328 
L 172.714867 113.268465 
L 173.090625 113.723887 
L 173.466383 116.218163 
L 173.84214 116.482947 
L 174.593655 116.223465 
L 174.969413 115.955427 
L 175.720928 116.043666 
L 176.096686 115.516151 
L 176.472443 115.237095 
L 176.848201 115.526654 
L 177.223958 116.500384 
L 177.599716 115.701997 
L 177.975473 115.514227 
L 178.351231 116.566719 
L 179.102746 113.033838 
L 179.478504 117.386173 
L 179.854261 115.030196 
L 180.230019 116.114283 
L 180.981534 116.685988 
L 181.357292 116.285479 
L 181.733049 116.383238 
L 182.108807 117.809727 
L 182.484564 116.247651 
L 183.23608 117.118397 
L 183.611837 116.978864 
L 183.987595 116.266156 
L 184.363352 116.828591 
L 184.73911 115.704825 
L 185.114867 117.848933 
L 185.490625 117.516695 
L 185.866383 118.217987 
L 186.24214 117.790735 
L 186.617898 117.613888 
L 186.993655 117.925882 
L 187.369413 116.471722 
L 187.74517 116.633613 
L 188.120928 116.587235 
L 188.496686 118.686857 
L 188.872443 117.391465 
L 189.248201 116.579879 
L 189.623958 116.951022 
L 189.999716 118.058637 
L 190.751231 116.99867 
L 191.126989 118.228131 
L 191.502746 118.162169 
L 191.878504 117.314565 
L 192.254261 117.584009 
L 192.630019 116.539411 
L 193.005777 116.131323 
L 193.381534 116.251882 
L 193.757292 117.751235 
L 194.133049 118.780418 
L 194.508807 117.675981 
L 194.884564 117.951128 
L 195.260322 117.44087 
L 195.63608 118.886704 
L 196.011837 119.55603 
L 196.387595 119.246623 
L 196.763352 118.79163 
L 197.514867 118.79812 
L 197.890625 117.778909 
L 198.64214 119.614259 
L 199.017898 119.138963 
L 199.393655 117.891263 
L 199.769413 118.490706 
L 200.520928 118.425521 
L 200.896686 118.760239 
L 201.272443 117.305008 
L 201.648201 116.889487 
L 202.023958 118.018663 
L 202.399716 117.121134 
L 202.775473 117.851503 
L 203.151231 119.094316 
L 203.526989 118.676769 
L 203.902746 119.082107 
L 204.278504 118.623146 
L 204.654261 117.768881 
L 205.405777 118.825413 
L 205.781534 118.2673 
L 206.157292 119.092046 
L 206.533049 118.887891 
L 206.908807 118.195138 
L 207.284564 118.752301 
L 207.660322 118.149038 
L 208.03608 118.431451 
L 208.411837 119.302395 
L 209.163352 118.081396 
L 209.53911 119.076726 
L 209.914867 120.398914 
L 210.290625 118.94 
L 210.666383 119.590047 
L 211.417898 118.686176 
L 211.793655 119.379729 
L 212.169413 119.397097 
L 212.54517 119.043407 
L 212.920928 119.561633 
L 213.672443 118.768141 
L 214.423958 118.335123 
L 215.175473 119.719201 
L 215.551231 119.506408 
L 215.926989 120.306386 
L 216.302746 119.454758 
L 216.678504 119.946772 
L 217.054261 119.823493 
L 217.430019 120.35784 
L 218.181534 120.023433 
L 218.557292 121.096725 
L 218.933049 120.173311 
L 219.308807 119.595591 
L 219.684564 119.661148 
L 220.060322 120.087533 
L 220.43608 119.862036 
L 220.811837 120.239391 
L 221.187595 120.83174 
L 221.563352 119.818343 
L 221.93911 119.496576 
L 222.314867 120.018282 
L 222.690625 119.449078 
L 223.066383 119.43946 
L 223.44214 121.084304 
L 223.817898 120.896631 
L 224.193655 119.88671 
L 224.569413 121.115615 
L 224.94517 121.079473 
L 225.320928 120.582263 
L 225.696686 121.267944 
L 226.072443 118.883221 
L 226.448201 119.745675 
L 226.823958 121.08311 
L 227.199716 120.034706 
L 227.575473 120.5562 
L 227.951231 120.845277 
L 228.326989 120.157877 
L 228.702746 121.521667 
L 229.454261 121.102262 
L 229.830019 120.238156 
L 230.205777 121.339193 
L 230.581534 120.199512 
L 230.957292 121.283286 
L 231.333049 121.328363 
L 231.708807 121.090805 
L 233.211837 121.636812 
L 233.587595 121.077947 
L 233.963352 121.476202 
L 234.33911 121.201237 
L 234.714867 121.400379 
L 235.466383 122.001312 
L 235.84214 122.243346 
L 236.217898 121.400922 
L 236.593655 121.35934 
L 236.969413 121.848311 
L 237.720928 122.28045 
L 238.096686 122.622874 
L 238.472443 122.336203 
L 238.848201 121.806722 
L 239.223958 122.501442 
L 240.351231 122.077469 
L 240.726989 122.280026 
L 241.102746 122.860493 
L 241.854261 122.665896 
L 242.230019 122.895017 
L 242.605777 122.338507 
L 243.357292 122.451576 
L 244.108807 121.707988 
L 244.484564 122.859794 
L 244.860322 122.667835 
L 245.611837 123.603367 
L 245.987595 123.089229 
L 246.363352 122.382557 
L 246.73911 122.72702 
L 247.114867 123.601962 
L 247.490625 123.963273 
L 247.866383 123.736112 
L 248.24214 123.857175 
L 248.617898 122.995332 
L 248.993655 123.003966 
L 249.369413 123.310766 
L 249.74517 122.64072 
L 250.496686 124.149156 
L 251.248201 124.441286 
L 251.623958 123.90084 
L 251.999716 124.299631 
L 252.375473 124.292514 
L 252.751231 124.465209 
L 253.502746 124.244183 
L 253.878504 124.511954 
L 254.254261 123.637802 
L 254.630019 124.307783 
L 255.381534 124.127827 
L 255.757292 123.726083 
L 256.508807 123.724214 
L 256.884564 124.74 
L 257.260322 124.949683 
L 257.63608 123.838682 
L 258.011837 123.885097 
L 258.387595 124.16535 
L 258.763352 124.699011 
L 259.13911 124.508582 
L 259.514867 125.245366 
L 260.266383 124.571209 
L 260.64214 125.131734 
L 261.017898 125.363722 
L 261.769413 125.050739 
L 262.14517 125.055236 
L 262.520928 125.719419 
L 262.896686 125.032975 
L 263.272443 125.356857 
L 263.648201 124.376778 
L 264.023958 125.585305 
L 264.399716 125.55837 
L 264.775473 126.362388 
L 265.151231 125.94994 
L 265.526989 126.090182 
L 265.902746 125.831119 
L 267.030019 125.499097 
L 267.405777 125.888574 
L 267.781534 125.332861 
L 268.157292 125.287222 
L 268.533049 125.851303 
L 268.908807 124.967126 
L 269.660322 124.594401 
L 270.03608 125.561248 
L 270.411837 125.775176 
L 270.787595 125.727656 
L 271.163352 125.336836 
L 271.53911 125.301675 
L 271.914867 125.451579 
L 272.666383 124.365278 
L 273.04214 125.077519 
L 273.417898 124.378871 
L 273.793655 125.538634 
L 274.169413 125.434654 
L 274.54517 125.647375 
L 274.920928 125.990991 
L 275.296686 126.135326 
L 275.672443 125.767461 
L 276.048201 125.845781 
L 277.175473 125.635223 
L 277.551231 125.766875 
L 277.926989 125.191649 
L 278.302746 125.427896 
L 278.678504 125.349871 
L 279.054261 125.789513 
L 279.430019 125.161249 
L 280.181534 125.094227 
L 280.557292 124.689431 
L 280.933049 125.550149 
L 281.308807 124.966956 
L 281.684564 125.69994 
L 282.060322 125.228714 
L 282.43608 125.309919 
L 282.811837 125.213436 
L 283.187595 125.708024 
L 283.563352 125.588056 
L 283.93911 125.288172 
L 284.314867 126.054596 
L 284.690625 125.552537 
L 285.066383 125.544268 
L 285.44214 126.226752 
L 285.817898 125.488179 
L 286.569413 126.171901 
L 286.94517 125.513511 
L 287.320928 125.794149 
L 287.696686 125.658881 
L 288.072443 126.502453 
L 288.448201 126.525528 
L 288.823958 126.031675 
L 289.199716 126.090373 
L 289.575473 125.781718 
L 289.951231 125.779334 
L 290.326989 125.889086 
L 291.454261 126.961614 
L 291.830019 126.142468 
L 292.581534 126.914565 
L 292.957292 126.207148 
L 293.708807 126.59136 
L 294.084564 126.02833 
L 294.83608 126.177766 
L 295.211837 125.841597 
L 295.587595 125.92563 
L 295.963352 125.752012 
L 296.33911 126.261588 
L 296.714867 126.077602 
L 297.090625 126.604134 
L 297.466383 126.23771 
L 297.84214 126.861873 
L 298.217898 126.203507 
L 298.593655 126.376087 
L 299.34517 127.224808 
L 299.720928 126.901074 
L 300.096686 126.415117 
L 300.472443 126.696078 
L 300.848201 127.224358 
L 301.599716 126.999313 
L 301.975473 127.609103 
L 302.351231 127.060794 
L 302.726989 127.279437 
L 303.102746 127.929773 
L 303.478504 127.681504 
L 303.854261 126.765478 
L 304.230019 127.210413 
L 304.605777 128.074752 
L 304.981534 127.983863 
L 305.733049 127.600631 
L 306.108807 127.585221 
L 306.484564 127.371201 
L 306.860322 128.154938 
L 307.987595 127.58216 
L 309.114867 128.134644 
L 309.490625 127.549762 
L 309.866383 128.180398 
L 310.24214 128.32243 
L 310.617898 128.220869 
L 310.993655 127.773186 
L 311.369413 128.274126 
L 311.74517 128.375967 
L 312.872443 128.272506 
L 313.623958 127.626651 
L 313.999716 127.882218 
L 314.375473 128.622262 
L 314.751231 128.624273 
L 315.126989 128.380195 
L 316.254261 127.226119 
L 316.630019 127.475618 
L 317.005777 127.335648 
L 317.381534 127.884496 
L 318.133049 128.029227 
L 318.508807 127.075883 
L 318.884564 127.338533 
L 319.260322 128.281584 
L 319.63608 128.207444 
L 320.011837 127.372999 
L 320.387595 127.572064 
L 320.763352 127.077766 
L 321.514867 128.311318 
L 321.890625 128.307992 
L 322.64214 127.580508 
L 323.017898 126.764973 
L 323.393655 127.734314 
L 323.769413 126.768116 
L 324.14517 126.896653 
L 324.520928 126.813981 
L 324.896686 127.304233 
L 325.272443 127.431338 
L 325.648201 126.937992 
L 326.023958 126.795393 
L 326.399716 127.407002 
L 327.151231 127.013732 
L 327.526989 127.122365 
L 327.902746 128.153388 
L 328.278504 126.857992 
L 328.654261 127.826451 
L 329.030019 127.222345 
L 329.405777 127.428328 
L 329.781534 126.994658 
L 330.157292 127.659318 
L 330.533049 126.673171 
L 330.908807 127.574447 
L 331.284564 127.432291 
L 331.660322 128.323104 
L 332.03608 128.007326 
L 332.411837 127.952391 
L 332.787595 127.181402 
L 333.163352 128.105599 
L 333.53911 127.729914 
L 333.914867 128.242449 
L 334.290625 128.175044 
L 334.666383 127.805558 
L 335.04214 128.141651 
L 335.417898 128.10651 
L 335.793655 128.312509 
L 336.169413 127.661634 
L 336.920928 128.423643 
L 337.296686 128.112519 
L 337.672443 128.424213 
L 338.423958 128.212217 
L 338.799716 128.250398 
L 339.175473 127.226366 
L 339.551231 127.538592 
L 339.926989 128.460846 
L 340.302746 128.842332 
L 340.678504 128.382478 
L 341.054261 128.311378 
L 341.430019 129.098682 
L 342.181534 128.93048 
L 342.933049 129.345805 
L 343.308807 129.571246 
L 343.684564 129.133117 
L 344.060322 128.924347 
L 344.43608 129.6165 
L 345.187595 128.979247 
L 345.563352 129.156974 
L 345.93911 128.539898 
L 346.690625 129.568516 
L 347.066383 128.962134 
L 347.44214 128.878142 
L 347.817898 129.052093 
L 348.193655 128.657464 
L 348.569413 128.693572 
L 348.94517 129.237439 
L 349.320928 129.440119 
L 349.696686 128.315439 
L 350.072443 129.084725 
L 350.448201 129.259416 
L 350.823958 129.020508 
L 351.951231 129.65396 
L 352.326989 129.759707 
L 352.702746 129.736929 
L 353.078504 129.989611 
L 353.454261 130.095301 
L 354.581534 129.332092 
L 354.957292 129.546395 
L 355.333049 129.575164 
L 355.708807 129.787767 
L 356.084564 129.783134 
L 356.83608 130.133199 
L 357.587595 129.863755 
L 357.963352 130.226971 
L 358.33911 129.521859 
L 358.714867 129.919794 
L 359.090625 129.266993 
L 359.466383 130.362737 
L 359.84214 129.671953 
L 360.217898 130.100109 
L 360.593655 130.124111 
L 360.969413 130.386335 
L 361.34517 130.077366 
L 361.720928 130.468662 
L 362.096686 130.247035 
L 362.472443 130.502511 
L 362.848201 129.622565 
L 363.223958 130.044121 
L 363.599716 129.637852 
L 363.975473 129.852127 
L 364.351231 129.820835 
L 364.726989 130.095071 
L 365.102746 129.915606 
L 365.478504 130.056417 
L 366.605777 129.462623 
L 366.981534 129.722866 
L 367.357292 129.678706 
L 367.733049 129.344987 
L 368.108807 129.697922 
L 368.484564 129.556763 
L 368.860322 129.590645 
L 369.23608 129.844723 
L 369.611837 129.945158 
L 369.987595 129.664395 
L 370.363352 130.114712 
L 370.73911 129.91082 
L 371.114867 130.040111 
L 371.490625 129.634323 
L 371.866383 130.2478 
L 372.24214 129.693251 
L 372.617898 129.574529 
L 372.993655 128.501651 
L 373.369413 129.833853 
L 373.74517 129.795103 
L 374.872443 130.259546 
L 375.248201 129.709199 
L 375.623958 130.61436 
L 375.999716 129.822597 
L 376.375473 130.118296 
L 376.751231 129.588654 
L 377.126989 130.485866 
L 377.502746 129.886924 
L 378.630019 130.319328 
L 379.005777 129.869323 
L 379.381534 130.428421 
L 380.133049 129.777697 
L 380.508807 130.069704 
L 380.884564 129.903047 
L 381.260322 130.419247 
L 381.63608 130.241578 
L 382.011837 130.275795 
L 382.387595 130.005742 
L 382.763352 129.965241 
L 383.890625 130.486054 
L 384.266383 130.162824 
L 384.64214 130.53959 
L 385.017898 130.735584 
L 385.393655 130.176004 
L 386.14517 130.229223 
L 386.520928 130.476132 
L 386.896686 130.424463 
L 387.272443 129.924593 
L 388.023958 130.363919 
L 388.775473 130.355589 
L 389.151231 130.739932 
L 389.526989 130.694598 
L 389.902746 130.334052 
L 390.278504 129.444201 
L 391.405777 130.348248 
L 391.781534 130.020741 
L 392.157292 129.961073 
L 392.533049 130.082845 
L 392.908807 130.397618 
L 393.284564 129.982875 
L 393.660322 130.561671 
L 394.03608 130.213164 
L 394.411837 130.604929 
L 394.787595 131.294337 
L 395.163352 130.740751 
L 395.53911 130.589133 
L 395.914867 130.822809 
L 396.290625 130.283417 
L 396.666383 130.68735 
L 397.04214 130.50424 
L 397.417898 129.904625 
L 397.793655 130.646921 
L 398.54517 129.985194 
L 398.920928 129.977035 
L 399.296686 130.223887 
L 399.672443 130.193264 
L 400.048201 129.997993 
L 400.423958 130.135833 
L 400.799716 130.397035 
L 401.551231 130.167881 
L 402.302746 130.305398 
L 402.678504 130.505332 
L 403.054261 130.181581 
L 403.430019 130.489115 
L 404.181534 130.091959 
L 404.557292 129.265459 
L 404.933049 129.368122 
L 405.308807 129.748727 
L 405.684564 129.728249 
L 406.060322 129.272479 
L 406.43608 129.345508 
L 406.811837 129.594932 
L 407.187595 129.031852 
L 407.93911 130.163698 
L 408.314867 130.015808 
L 408.690625 130.398374 
L 409.066383 130.497082 
L 409.44214 130.284284 
L 409.817898 129.895821 
L 410.193655 129.95164 
L 410.569413 130.228593 
L 410.94517 129.924436 
L 411.320928 129.945637 
L 411.696686 129.703161 
L 412.072443 129.928617 
L 412.448201 129.874596 
L 412.823958 129.065751 
L 413.199716 129.610412 
L 413.575473 129.641082 
L 413.951231 130.025137 
L 414.326989 129.282538 
L 414.702746 129.887531 
L 415.078504 129.134435 
L 415.454261 129.5941 
L 415.830019 129.310474 
L 416.205777 129.619078 
L 416.957292 129.876 
L 417.708807 129.413999 
L 418.084564 129.846728 
L 418.460322 129.839309 
L 418.83608 129.532719 
L 419.211837 129.929045 
L 419.587595 129.81411 
L 419.963352 129.001903 
L 420.714867 129.802867 
L 421.090625 129.036354 
L 421.466383 129.566592 
L 421.84214 128.963836 
L 422.217898 129.210057 
L 422.593655 129.202111 
L 422.969413 128.938855 
L 423.34517 128.992754 
L 423.720928 129.552311 
L 424.096686 129.595012 
L 424.472443 129.500006 
L 424.848201 129.81267 
L 425.223958 129.091221 
L 425.599716 129.534045 
L 425.975473 129.779661 
L 426.351231 129.192974 
L 426.726989 129.568089 
L 427.102746 129.663963 
L 427.478504 129.337801 
L 427.854261 129.403436 
L 428.230019 129.2691 
L 428.605777 129.505534 
L 429.357292 129.271972 
L 429.733049 128.770547 
L 430.108807 129.282876 
L 430.484564 128.817693 
L 430.860322 129.648637 
L 431.611837 129.777384 
L 431.987595 129.827788 
L 432.363352 129.643045 
L 432.73911 129.849396 
L 433.114867 129.708486 
L 433.490625 129.771251 
L 433.866383 129.565484 
L 434.24214 130.118856 
L 434.617898 130.012593 
L 434.993655 129.504526 
L 435.369413 129.831151 
L 435.74517 130.334078 
L 436.120928 129.457748 
L 436.496686 129.939677 
L 436.872443 129.908597 
L 437.248201 129.673478 
L 437.623958 129.825302 
L 437.999716 129.424542 
L 438.375473 130.086837 
L 438.751231 129.326513 
L 439.126989 129.394737 
L 439.878504 130.025031 
L 440.254261 129.457657 
L 440.630019 129.465405 
L 441.005777 128.855817 
L 441.757292 129.675592 
L 442.133049 129.273101 
L 442.508807 129.699137 
L 443.63608 129.275913 
L 444.011837 129.060016 
L 444.387595 129.018594 
L 444.763352 129.602737 
L 445.13911 129.918736 
L 445.514867 129.743232 
L 445.890625 129.039499 
L 446.266383 129.410146 
L 446.64214 129.372393 
L 447.017898 129.181139 
L 447.393655 129.177771 
L 447.769413 129.014223 
L 448.14517 129.492857 
L 448.520928 128.96327 
L 448.896686 129.274704 
L 449.648201 129.293524 
L 450.023958 129.699108 
L 450.399716 129.333775 
L 450.775473 129.364506 
L 451.151231 129.227237 
L 451.902746 129.937171 
L 452.278504 129.694828 
L 452.654261 130.339109 
L 453.030019 130.202544 
L 453.405777 129.356784 
L 453.781534 130.455383 
L 454.157292 129.527187 
L 454.533049 128.905974 
L 454.908807 129.542912 
L 455.284564 129.139699 
L 455.660322 129.622053 
L 456.03608 129.102166 
L 456.411837 129.624722 
L 456.787595 129.29776 
L 457.163352 129.665699 
L 457.53911 129.234349 
L 458.290625 129.9291 
L 459.04214 129.623833 
L 459.793655 129.901507 
L 460.169413 129.783073 
L 460.920928 130.009547 
L 461.296686 129.779832 
L 461.672443 129.397797 
L 462.048201 129.898398 
L 462.799716 129.799989 
L 463.175473 130.19684 
L 463.551231 129.902221 
L 463.926989 130.106436 
L 464.302746 129.724585 
L 465.054261 130.254489 
L 465.430019 129.517266 
L 465.805777 130.249029 
L 466.181534 129.543914 
L 466.557292 129.596553 
L 466.933049 129.270234 
L 467.684564 129.248627 
L 468.43608 129.526264 
L 469.187595 129.563824 
L 469.563352 129.311416 
L 470.314867 129.2001 
L 470.690625 129.41512 
L 471.066383 130.050375 
L 471.44214 129.880463 
L 472.193655 129.140209 
L 472.569413 129.622756 
L 472.94517 129.33362 
L 473.320928 129.694871 
L 473.696686 128.930139 
L 474.072443 129.217149 
L 474.823958 129.404956 
L 475.199716 129.136685 
L 475.575473 130.160433 
L 475.951231 129.430545 
L 476.326989 129.717037 
L 476.702746 129.120133 
L 477.078504 129.5394 
L 477.830019 129.265994 
L 478.205777 129.492653 
L 478.581534 130.105262 
L 478.957292 128.873867 
L 479.708807 129.19581 
L 480.084564 128.567282 
L 480.460322 129.009785 
L 480.83608 128.841077 
L 481.211837 129.666749 
L 481.587595 129.075663 
L 481.963352 129.469776 
L 482.33911 129.376064 
L 482.714867 129.002378 
L 483.090625 129.031508 
L 483.84214 128.839035 
L 484.217898 128.245778 
L 484.593655 128.814183 
L 484.969413 128.826568 
L 485.34517 128.56749 
L 485.720928 128.927847 
L 486.096686 129.097931 
L 486.472443 128.994362 
L 486.848201 129.273158 
L 487.223958 128.838646 
L 487.599716 128.999002 
L 487.975473 128.377869 
L 488.351231 128.440455 
L 488.726989 129.010179 
L 489.102746 128.580631 
L 489.478504 129.050767 
L 489.854261 128.845646 
L 490.230019 129.086807 
L 490.981534 129.15741 
L 491.357292 129.5106 
L 491.733049 128.575541 
L 492.484564 128.760225 
L 492.860322 129.086237 
L 493.611837 128.731246 
L 494.363352 129.323534 
L 494.73911 128.882291 
L 495.114867 129.199844 
L 495.490625 129.260641 
L 495.866383 129.715386 
L 496.24214 129.606151 
L 496.617898 129.301528 
L 496.993655 129.802307 
L 497.369413 129.950324 
L 497.74517 129.699864 
L 498.120928 129.874097 
L 498.496686 129.799927 
L 498.872443 130.122401 
L 499.248201 130.100335 
L 499.623958 129.822963 
L 500.751231 129.595272 
L 501.126989 129.9061 
L 501.878504 130.102403 
L 502.254261 129.877028 
L 502.630019 129.822044 
L 503.005777 130.242333 
L 503.381534 129.830423 
L 504.133049 129.706848 
L 504.508807 130.056645 
L 505.260322 129.658311 
L 505.63608 129.922129 
L 506.011837 129.511503 
L 506.387595 129.799767 
L 507.13911 129.697311 
L 507.514867 129.698124 
L 507.890625 130.046745 
L 508.266383 129.713902 
L 508.64214 129.811349 
L 509.017898 130.063575 
L 509.393655 129.193286 
L 509.769413 129.724635 
L 510.14517 129.657031 
L 510.520928 129.248464 
L 510.896686 129.568345 
L 511.272443 129.219842 
L 511.648201 129.909134 
L 512.023958 129.257718 
L 512.399716 129.274771 
L 512.775473 129.128446 
L 513.151231 129.49554 
L 513.526989 129.473543 
L 513.902746 129.575969 
L 514.654261 129.300355 
L 515.030019 129.008837 
L 515.405777 128.870192 
L 516.157292 129.004234 
L 516.533049 128.737137 
L 516.908807 129.50202 
L 517.284564 129.2725 
L 517.660322 129.694257 
L 518.411837 129.29811 
L 518.787595 129.580447 
L 519.163352 129.122254 
L 519.53911 129.78399 
L 519.914867 129.300112 
L 520.290625 129.313821 
L 520.666383 128.890595 
L 521.04214 129.019493 
L 521.417898 129.438576 
L 521.793655 129.237903 
L 522.169413 129.726783 
L 522.54517 128.955365 
L 522.920928 129.385717 
L 523.296686 129.172345 
L 523.672443 129.462424 
L 524.423958 128.807651 
L 524.799716 129.433521 
L 525.175473 129.657752 
L 525.551231 129.521103 
L 525.926989 129.649701 
L 526.302746 130.221773 
L 527.054261 129.944898 
L 527.430019 129.565189 
L 527.805777 129.363485 
L 528.181534 129.732546 
L 528.557292 129.706345 
L 528.933049 130.18155 
L 529.308807 129.130463 
L 529.684564 129.499494 
L 530.43608 129.123866 
L 530.811837 129.637462 
L 531.187595 129.442032 
L 531.563352 129.511014 
L 532.314867 129.058644 
L 532.690625 129.60906 
L 533.44214 129.497795 
L 533.817898 129.797556 
L 534.193655 129.384087 
L 534.569413 129.356319 
L 534.94517 129.781112 
L 536.072443 129.27109 
L 536.448201 129.065377 
L 537.199716 128.984457 
L 537.575473 129.062661 
L 537.951231 128.85382 
L 538.326989 129.446803 
L 538.702746 128.935977 
L 539.078504 129.123099 
L 539.454261 129.496972 
L 539.830019 129.571477 
L 540.205777 129.448486 
L 540.581534 129.524786 
L 540.957292 129.226414 
L 541.333049 129.211072 
L 541.708807 128.875025 
L 542.460322 128.952538 
L 542.83608 129.462962 
L 543.587595 128.496338 
L 543.963352 129.54042 
L 544.714867 128.991579 
L 545.090625 129.523479 
L 545.466383 129.606585 
L 545.84214 129.064465 
L 546.593655 129.514023 
L 546.969413 129.579943 
L 547.34517 129.492179 
L 547.720928 129.261606 
L 548.096686 129.510614 
L 548.472443 129.445875 
L 548.848201 129.803308 
L 549.223958 129.184501 
L 549.599716 129.379273 
L 549.975473 129.355883 
L 550.351231 129.889387 
L 550.726989 129.523718 
L 551.102746 129.38543 
L 551.854261 129.336524 
L 552.230019 129.622795 
L 552.605777 129.359805 
L 552.981534 129.582036 
L 553.357292 129.511781 
L 553.733049 129.21919 
L 554.108807 129.682594 
L 554.484564 129.575525 
L 554.860322 129.732211 
L 555.23608 129.452428 
L 555.611837 129.57343 
L 555.987595 129.343953 
L 556.73911 129.836596 
L 557.114867 129.896478 
L 557.866383 129.396517 
L 558.24214 129.840954 
L 558.617898 129.315289 
L 558.993655 129.479751 
L 559.369413 129.788044 
L 559.74517 129.379115 
L 560.120928 129.464909 
L 560.496686 129.72964 
L 560.872443 129.020022 
L 561.248201 129.199585 
L 561.999716 129.304889 
L 562.375473 129.139614 
L 562.751231 129.280327 
L 563.126989 128.851629 
L 563.502746 129.392385 
L 563.878504 129.306136 
L 564.254261 129.432736 
L 564.630019 129.292222 
L 565.005777 129.882478 
L 565.757292 129.442961 
L 566.133049 129.709876 
L 566.884564 129.479887 
L 567.260322 129.937817 
L 567.63608 129.6404 
L 568.011837 129.128633 
L 568.387595 129.435908 
L 568.763352 129.31177 
L 569.13911 128.821428 
L 569.514867 129.516342 
L 569.890625 129.079846 
L 570.266383 129.725581 
L 570.64214 129.960516 
L 571.017898 129.695112 
L 571.393655 129.865406 
L 572.14517 129.467901 
L 572.520928 129.835513 
L 572.896686 129.45184 
L 573.272443 129.631964 
L 573.648201 129.68552 
L 574.023958 129.868273 
L 574.399716 129.624646 
L 574.775473 130.040334 
L 575.526989 130.172623 
L 575.902746 129.724317 
L 576.278504 129.865639 
L 576.654261 130.188866 
L 577.030019 129.740526 
L 577.405777 129.6303 
L 577.781534 130.437957 
L 578.533049 129.984182 
L 578.908807 130.249862 
L 579.660322 129.815413 
L 580.411837 129.99769 
L 580.787595 129.801395 
L 581.163352 129.998155 
L 581.53911 129.816605 
L 581.914867 129.828816 
L 582.290625 129.967745 
L 582.666383 129.530592 
L 583.04214 129.760931 
L 583.417898 129.556921 
L 583.793655 130.348207 
L 584.169413 130.70572 
L 584.54517 129.450114 
L 584.920928 129.926243 
L 585.296686 129.676824 
L 585.672443 129.984201 
L 586.048201 129.713325 
L 586.423958 130.18868 
L 586.799716 130.127643 
L 587.175473 129.717947 
L 587.551231 129.963325 
L 587.926989 129.994539 
L 588.302746 129.875418 
L 588.678504 129.925317 
L 589.054261 130.363943 
L 589.805777 129.751468 
L 590.181534 129.893227 
L 590.933049 129.748545 
L 591.308807 129.946448 
L 591.684564 129.83901 
L 592.060322 129.419426 
L 592.43608 129.424183 
L 592.811837 130.136087 
L 593.187595 129.759768 
L 593.563352 130.017333 
L 593.93911 129.576246 
L 594.314867 129.96932 
L 594.690625 129.440286 
L 595.066383 129.690048 
L 595.44214 130.100448 
L 595.817898 129.791428 
L 596.193655 129.967481 
L 596.569413 129.94543 
L 597.320928 130.352642 
L 598.072443 129.894532 
L 598.448201 130.272412 
L 598.823958 130.359727 
L 599.199716 130.290731 
L 599.575473 130.448816 
L 599.951231 130.069052 
L 600.702746 130.289215 
L 601.078504 130.070962 
L 601.454261 130.242757 
L 601.830019 130.058044 
L 602.205777 130.358225 
L 602.581534 129.982377 
L 603.333049 130.052075 
L 604.084564 129.500457 
L 604.460322 130.502013 
L 604.83608 129.99777 
L 605.587595 129.66346 
L 605.963352 129.654681 
L 606.33911 129.876855 
L 607.090625 130.056785 
L 607.466383 129.903017 
L 607.84214 129.989356 
L 608.217898 129.72271 
L 608.593655 130.420184 
L 608.969413 130.168323 
L 609.34517 130.513852 
L 609.720928 129.931979 
L 610.096686 130.543259 
L 610.472443 130.324122 
L 610.848201 130.274369 
L 611.223958 129.716758 
L 611.599716 129.947767 
L 612.351231 129.907772 
L 612.726989 130.187832 
L 613.478504 130.009947 
L 613.854261 129.959176 
L 614.230019 130.128845 
L 615.733049 129.855749 
L 616.108807 129.953296 
L 616.484564 129.875475 
L 616.860322 130.23878 
L 617.611837 129.929678 
L 618.363352 130.216301 
L 618.73911 130.51656 
L 619.114867 130.115561 
L 619.490625 129.944862 
L 619.866383 130.249304 
L 620.24214 130.062954 
L 620.993655 130.15239 
L 621.369413 130.516736 
L 622.120928 130.374908 
L 622.496686 130.604817 
L 622.872443 130.479651 
L 623.248201 130.810025 
L 623.623958 130.310741 
L 623.999716 130.799782 
L 624.375473 130.849729 
L 624.751231 130.317247 
L 625.126989 130.467563 
L 625.126989 130.467563 
" clip-path="url(#pe1d2842d65)" style="fill: none; stroke: #1f77b4; stroke-width: 1.5; stroke-linecap: square"/>
   </g>
   <g id="line2d_15">
    <path d="M 117.854261 296.03625 
L 118.230019 245.888602 
L 118.605777 214.115786 
L 118.981534 230.211874 
L 119.357292 218.599268 
L 119.733049 201.279694 
L 120.108807 204.535087 
L 120.484564 177.439579 
L 120.860322 178.201539 
L 121.23608 178.387096 
L 121.611837 192.048813 
L 121.987595 174.811641 
L 122.363352 173.893449 
L 122.73911 172.251017 
L 123.114867 166.690114 
L 123.490625 165.151511 
L 123.866383 167.933912 
L 124.24214 161.328426 
L 124.617898 164.204354 
L 124.993655 153.408818 
L 125.369413 156.496962 
L 126.120928 141.56019 
L 126.496686 150.693481 
L 126.872443 143.469704 
L 127.248201 147.780062 
L 127.623958 149.479849 
L 127.999716 140.208749 
L 128.375473 138.160794 
L 128.751231 138.65618 
L 129.126989 140.776186 
L 129.502746 140.215124 
L 129.878504 138.391512 
L 130.254261 140.082936 
L 130.630019 140.228622 
L 131.381534 141.201404 
L 131.757292 139.392105 
L 132.133049 138.851676 
L 132.508807 139.384558 
L 132.884564 140.740816 
L 133.260322 142.600893 
L 133.63608 135.421926 
L 134.011837 138.496197 
L 134.387595 137.892038 
L 135.13911 136.234525 
L 135.514867 136.311622 
L 135.890625 135.915689 
L 136.266383 136.605064 
L 136.64214 134.887215 
L 137.017898 133.797282 
L 137.769413 135.471295 
L 138.14517 135.576047 
L 138.896686 136.853589 
L 139.272443 136.368541 
L 139.648201 134.730041 
L 140.023958 135.079856 
L 140.399716 134.857729 
L 140.775473 135.928269 
L 141.151231 135.902864 
L 141.526989 135.479767 
L 141.902746 136.290746 
L 142.278504 135.345801 
L 143.030019 134.136329 
L 143.405777 135.905185 
L 143.781534 134.292529 
L 144.157292 133.586184 
L 144.533049 134.703917 
L 144.908807 134.803726 
L 145.284564 133.847583 
L 145.660322 133.400648 
L 146.03608 134.508056 
L 146.411837 134.677574 
L 146.787595 133.207451 
L 147.163352 133.966004 
L 147.53911 133.320137 
L 147.914867 133.888563 
L 148.290625 133.800353 
L 148.666383 134.327242 
L 149.04214 133.302039 
L 149.417898 133.276394 
L 150.54517 133.938771 
L 150.920928 134.482109 
L 151.296686 133.800864 
L 151.672443 133.419586 
L 152.048201 133.970658 
L 152.799716 133.536974 
L 153.175473 133.03475 
L 153.551231 132.734868 
L 153.926989 133.151006 
L 154.302746 133.268245 
L 154.678504 133.664162 
L 155.054261 132.938008 
L 155.430019 133.474141 
L 155.805777 133.107742 
L 156.181534 133.13171 
L 156.557292 133.333721 
L 156.933049 133.905861 
L 157.308807 133.8752 
L 157.684564 133.058296 
L 158.060322 132.906614 
L 158.43608 133.401837 
L 158.811837 132.611227 
L 159.563352 133.527885 
L 159.93911 132.677103 
L 160.314867 133.470667 
L 160.690625 133.101942 
L 161.066383 132.407692 
L 161.44214 132.923927 
L 162.193655 133.133008 
L 162.569413 132.127532 
L 162.94517 132.148788 
L 163.320928 132.723923 
L 163.696686 132.550499 
L 164.448201 132.725377 
L 164.823958 132.730674 
L 165.199716 132.97607 
L 165.951231 131.981124 
L 166.326989 132.270329 
L 166.702746 132.740458 
L 167.078504 132.811208 
L 167.454261 133.022354 
L 167.830019 132.379132 
L 168.205777 132.85824 
L 168.581534 132.55696 
L 168.957292 132.710993 
L 169.708807 132.46765 
L 170.460322 132.807079 
L 170.83608 132.556555 
L 171.211837 132.440168 
L 171.587595 132.202275 
L 171.963352 132.521364 
L 172.33911 133.040405 
L 172.714867 132.525261 
L 173.090625 132.330627 
L 173.466383 131.793893 
L 173.84214 132.032172 
L 174.217898 131.869341 
L 174.593655 131.536319 
L 174.969413 131.891923 
L 175.34517 131.570927 
L 175.720928 132.110183 
L 176.096686 132.442361 
L 176.472443 132.353453 
L 176.848201 131.994056 
L 177.223958 132.252207 
L 177.599716 132.03052 
L 177.975473 132.59314 
L 178.351231 132.12911 
L 178.726989 133.529531 
L 179.102746 132.898776 
L 179.478504 131.845893 
L 179.854261 132.623624 
L 180.230019 132.22945 
L 180.605777 132.143768 
L 180.981534 132.356335 
L 181.357292 131.998474 
L 181.733049 132.373811 
L 182.108807 132.069205 
L 182.484564 132.132424 
L 182.860322 132.017815 
L 183.23608 132.31129 
L 183.611837 132.154329 
L 183.987595 132.182232 
L 184.363352 132.54397 
L 184.73911 132.546299 
L 185.114867 132.055983 
L 185.490625 132.3148 
L 185.866383 131.939997 
L 186.617898 132.088832 
L 186.993655 132.0281 
L 187.369413 132.726062 
L 187.74517 132.686055 
L 188.120928 132.429676 
L 188.496686 131.888833 
L 188.872443 132.689105 
L 189.248201 131.980631 
L 189.999716 132.405713 
L 190.375473 132.911299 
L 190.751231 132.242697 
L 191.878504 133.309819 
L 192.254261 132.617213 
L 192.630019 132.793237 
L 193.005777 133.184172 
L 193.757292 132.476888 
L 194.508807 132.775752 
L 194.884564 132.19803 
L 195.260322 133.001959 
L 195.63608 132.551494 
L 196.011837 132.281968 
L 196.387595 132.615187 
L 196.763352 132.264056 
L 197.13911 132.511456 
L 197.514867 132.562455 
L 197.890625 132.196387 
L 198.64214 132.509296 
L 199.017898 132.625033 
L 200.14517 132.23886 
L 200.520928 132.926132 
L 200.896686 132.622763 
L 201.272443 132.725486 
L 201.648201 134.327361 
L 202.023958 131.88328 
L 202.399716 132.567378 
L 202.775473 132.624808 
L 203.151231 132.867478 
L 203.526989 132.078352 
L 203.902746 132.298725 
L 204.278504 132.375235 
L 204.654261 132.899031 
L 205.030019 132.299455 
L 205.781534 132.698965 
L 206.157292 132.749106 
L 206.533049 132.572047 
L 206.908807 132.735333 
L 207.284564 132.501331 
L 207.660322 132.445749 
L 208.03608 132.800844 
L 208.411837 132.599577 
L 208.787595 132.528069 
L 209.163352 133.418649 
L 209.53911 132.304059 
L 209.914867 132.693067 
L 210.290625 132.084031 
L 210.666383 132.523896 
L 211.04214 132.600118 
L 211.793655 133.298588 
L 212.169413 132.386039 
L 212.920928 133.19902 
L 213.296686 132.739007 
L 213.672443 133.198867 
L 214.048201 132.736262 
L 214.423958 133.412287 
L 214.799716 132.808439 
L 215.175473 132.475197 
L 215.551231 132.640403 
L 215.926989 132.634424 
L 216.302746 133.023913 
L 216.678504 132.313796 
L 217.054261 133.014596 
L 217.430019 132.573859 
L 217.805777 132.310629 
L 218.181534 132.751505 
L 218.557292 132.027011 
L 218.933049 132.637068 
L 219.308807 131.997341 
L 219.684564 132.65365 
L 220.43608 132.254952 
L 220.811837 133.166727 
L 221.187595 133.161044 
L 221.563352 132.868057 
L 222.314867 132.715886 
L 222.690625 133.313758 
L 223.066383 133.259094 
L 223.44214 132.374664 
L 223.817898 132.370019 
L 224.193655 133.122317 
L 224.94517 132.516071 
L 225.320928 132.596273 
L 225.696686 134.212614 
L 226.072443 132.868127 
L 226.823958 133.448304 
L 227.199716 132.497697 
L 227.575473 132.84084 
L 227.951231 132.998419 
L 228.702746 132.979176 
L 229.078504 133.124053 
L 229.454261 132.775361 
L 229.830019 133.26447 
L 230.205777 133.447651 
L 230.581534 132.831682 
L 230.957292 132.643544 
L 231.333049 132.71595 
L 231.708807 133.071013 
L 232.084564 133.205481 
L 232.83608 133.018732 
L 233.211837 133.177562 
L 233.587595 133.212742 
L 233.963352 133.070536 
L 234.33911 132.7111 
L 234.714867 132.619717 
L 235.466383 132.757311 
L 235.84214 132.287485 
L 236.217898 132.917935 
L 236.593655 132.7582 
L 236.969413 132.74229 
L 237.34517 133.203917 
L 237.720928 132.704265 
L 238.096686 132.688085 
L 238.472443 133.394741 
L 239.223958 132.715876 
L 239.599716 132.583073 
L 239.975473 133.363201 
L 240.351231 133.218542 
L 240.726989 133.327864 
L 241.478504 133.046398 
L 242.230019 132.391266 
L 242.605777 132.746404 
L 243.357292 132.579992 
L 243.733049 133.6675 
L 244.108807 133.153177 
L 244.484564 131.871708 
L 244.860322 132.866669 
L 245.611837 132.529901 
L 245.987595 131.081888 
L 246.363352 132.932414 
L 246.73911 132.085451 
L 247.114867 132.760385 
L 247.490625 132.146346 
L 247.866383 132.88974 
L 248.24214 132.563737 
L 248.617898 133.069097 
L 248.993655 133.365032 
L 249.369413 132.478084 
L 249.74517 132.902677 
L 250.120928 132.039826 
L 250.496686 132.423971 
L 250.872443 131.618577 
L 251.248201 132.19232 
L 251.623958 132.203069 
L 251.999716 132.514157 
L 252.375473 131.714142 
L 252.751231 131.917348 
L 253.126989 132.424369 
L 253.878504 132.100815 
L 254.630019 132.229428 
L 255.005777 132.13933 
L 255.381534 132.49344 
L 255.757292 132.105242 
L 256.133049 132.713502 
L 256.508807 132.33379 
L 256.884564 132.39439 
L 257.260322 132.209234 
L 257.63608 132.594199 
L 258.011837 132.673185 
L 258.387595 132.636544 
L 258.763352 132.045622 
L 259.13911 132.008696 
L 259.514867 132.296281 
L 259.890625 132.24379 
L 260.266383 132.629577 
L 260.64214 132.472327 
L 261.017898 132.670994 
L 261.393655 132.354122 
L 261.769413 132.323109 
L 262.14517 132.050248 
L 262.520928 132.447097 
L 262.896686 132.604512 
L 263.272443 132.27953 
L 263.648201 132.520756 
L 264.023958 132.360568 
L 264.399716 132.645127 
L 264.775473 132.133955 
L 265.151231 132.289025 
L 265.526989 132.21375 
L 265.902746 132.499823 
L 266.278504 132.318607 
L 266.654261 132.631839 
L 267.030019 132.517404 
L 267.405777 132.130841 
L 268.533049 132.7143 
L 268.908807 132.746425 
L 270.411837 132.34459 
L 270.787595 132.324889 
L 271.53911 132.673226 
L 271.914867 132.289639 
L 272.666383 132.640017 
L 273.04214 132.315031 
L 273.793655 132.864238 
L 274.54517 132.427692 
L 274.920928 132.489386 
L 275.296686 132.695802 
L 275.672443 132.442031 
L 276.048201 132.444117 
L 276.423958 132.791402 
L 276.799716 132.49101 
L 277.175473 132.756234 
L 277.551231 132.738034 
L 277.926989 133.154523 
L 278.302746 132.749366 
L 278.678504 132.783611 
L 279.054261 132.704427 
L 279.430019 132.845462 
L 280.181534 132.135485 
L 280.557292 132.562593 
L 282.43608 132.575102 
L 282.811837 132.82337 
L 283.187595 132.520394 
L 283.563352 132.787151 
L 283.93911 132.848905 
L 284.314867 132.732427 
L 285.066383 132.34149 
L 285.44214 132.569255 
L 285.817898 132.546035 
L 286.193655 132.382392 
L 286.569413 132.401055 
L 286.94517 132.942796 
L 287.320928 132.836618 
L 287.696686 132.045046 
L 288.072443 132.712118 
L 288.448201 132.475609 
L 289.951231 132.068622 
L 290.326989 132.852751 
L 290.702746 132.256039 
L 291.454261 132.592666 
L 291.830019 132.348413 
L 292.205777 132.303566 
L 292.581534 132.914314 
L 292.957292 132.387026 
L 293.333049 132.243224 
L 293.708807 132.85367 
L 294.83608 132.076505 
L 295.587595 132.539537 
L 295.963352 132.486669 
L 296.33911 132.644096 
L 297.466383 132.471121 
L 297.84214 132.113016 
L 298.217898 132.344418 
L 298.593655 132.339665 
L 299.34517 132.715247 
L 299.720928 133.01542 
L 300.096686 132.548661 
L 300.472443 132.326819 
L 300.848201 131.941895 
L 301.223958 132.629059 
L 301.599716 132.41616 
L 301.975473 132.777514 
L 302.351231 132.625445 
L 302.726989 132.205738 
L 303.102746 132.573852 
L 303.478504 132.351475 
L 303.854261 132.738733 
L 304.230019 132.609102 
L 304.605777 132.661179 
L 304.981534 132.248434 
L 305.357292 132.676072 
L 305.733049 132.574415 
L 306.108807 132.616665 
L 306.484564 132.074958 
L 306.860322 132.590863 
L 307.23608 132.401085 
L 307.611837 132.366064 
L 308.363352 132.649835 
L 308.73911 131.936974 
L 309.114867 132.337399 
L 309.490625 132.525656 
L 309.866383 132.230222 
L 310.617898 132.167707 
L 310.993655 132.493532 
L 311.369413 132.462083 
L 312.120928 132.110215 
L 312.496686 132.661394 
L 312.872443 132.257731 
L 313.248201 132.707855 
L 313.999716 132.689304 
L 314.375473 132.23817 
L 314.751231 132.636134 
L 315.126989 132.398538 
L 315.502746 131.929444 
L 316.254261 132.252696 
L 316.630019 132.351063 
L 317.005777 132.641152 
L 317.381534 131.990749 
L 317.757292 132.540849 
L 318.133049 131.671488 
L 318.884564 132.12717 
L 319.260322 132.034189 
L 320.011837 132.369767 
L 320.387595 131.803189 
L 321.13911 132.095206 
L 321.514867 132.051681 
L 321.890625 132.303661 
L 323.017898 132.161085 
L 323.393655 131.967513 
L 323.769413 132.354161 
L 324.14517 131.975016 
L 324.520928 132.182796 
L 324.896686 132.544544 
L 325.272443 131.972249 
L 326.023958 131.915321 
L 326.399716 132.331115 
L 327.151231 131.816527 
L 327.526989 132.304512 
L 327.902746 132.377821 
L 328.278504 132.626734 
L 328.654261 131.688815 
L 329.030019 131.714281 
L 329.405777 131.614019 
L 329.781534 132.079389 
L 330.157292 132.188325 
L 330.533049 132.439305 
L 330.908807 131.979743 
L 331.284564 132.116415 
L 331.660322 132.016496 
L 332.03608 131.69748 
L 332.787595 131.803803 
L 333.163352 132.211845 
L 333.914867 131.57137 
L 334.666383 131.918404 
L 335.417898 131.618256 
L 335.793655 131.558009 
L 336.169413 132.026717 
L 336.54517 131.699965 
L 336.920928 131.870529 
L 337.296686 131.543193 
L 337.672443 132.062371 
L 338.048201 131.957107 
L 338.423958 132.110093 
L 338.799716 132.470885 
L 339.175473 131.054369 
L 339.551231 131.723853 
L 339.926989 131.715947 
L 340.302746 132.028528 
L 341.054261 131.659274 
L 341.430019 132.247391 
L 341.805777 131.672925 
L 342.181534 131.597974 
L 342.557292 131.732283 
L 342.933049 131.699916 
L 343.684564 131.758162 
L 344.060322 131.795467 
L 344.43608 131.673372 
L 344.811837 131.809686 
L 345.563352 131.494584 
L 345.93911 131.954713 
L 346.690625 131.584319 
L 347.066383 131.833002 
L 347.817898 131.703295 
L 348.193655 131.677965 
L 348.569413 131.992524 
L 348.94517 131.968231 
L 349.320928 131.450183 
L 349.696686 131.479969 
L 350.072443 131.844268 
L 351.199716 132.008511 
L 351.951231 131.492316 
L 352.326989 131.757611 
L 353.078504 131.993016 
L 353.454261 131.637031 
L 353.830019 131.938927 
L 354.205777 131.774237 
L 354.581534 131.964773 
L 355.333049 131.895405 
L 355.708807 131.948727 
L 356.084564 131.515204 
L 356.83608 132.207389 
L 357.211837 131.735948 
L 357.587595 132.070266 
L 357.963352 131.860781 
L 358.33911 132.190618 
L 360.593655 131.559104 
L 360.969413 131.671975 
L 361.34517 131.950997 
L 361.720928 131.896108 
L 362.096686 131.64032 
L 362.472443 131.933831 
L 363.223958 131.75569 
L 364.351231 132.094871 
L 364.726989 131.759928 
L 365.102746 132.166826 
L 365.478504 131.618161 
L 365.854261 131.561967 
L 366.230019 131.859707 
L 366.981534 132.088196 
L 367.357292 132.030596 
L 367.733049 131.648646 
L 368.108807 131.550221 
L 368.484564 131.971596 
L 368.860322 131.857384 
L 369.23608 131.878065 
L 369.987595 131.605734 
L 370.363352 131.69852 
L 370.73911 131.660687 
L 371.114867 131.775266 
L 371.490625 131.438046 
L 371.866383 131.552678 
L 372.24214 131.396635 
L 372.993655 131.83833 
L 373.369413 131.473621 
L 374.496686 131.920461 
L 374.872443 131.773751 
L 375.248201 132.306822 
L 375.623958 131.304828 
L 375.999716 131.778464 
L 376.375473 131.538824 
L 376.751231 131.763851 
L 377.126989 131.714413 
L 377.502746 131.429222 
L 377.878504 131.819786 
L 378.254261 131.845981 
L 378.630019 131.56035 
L 379.381534 132.002589 
L 379.757292 131.722383 
L 380.884564 131.521583 
L 381.260322 131.46646 
L 382.011837 131.50372 
L 382.387595 131.938737 
L 382.763352 131.92355 
L 383.13911 132.035225 
L 383.890625 131.24189 
L 384.266383 131.710644 
L 384.64214 131.549152 
L 385.017898 131.866717 
L 385.393655 131.670899 
L 385.769413 132.145703 
L 386.14517 131.633061 
L 386.520928 132.025985 
L 386.896686 131.635501 
L 387.272443 131.846807 
L 387.648201 131.586124 
L 388.023958 131.59473 
L 388.399716 131.844681 
L 388.775473 131.914229 
L 389.151231 131.781952 
L 389.526989 131.862954 
L 389.902746 131.612892 
L 390.278504 132.049388 
L 391.030019 131.710847 
L 391.781534 131.814407 
L 393.284564 131.633862 
L 393.660322 131.919696 
L 394.03608 131.889533 
L 394.411837 131.308385 
L 394.787595 131.816644 
L 395.163352 131.87194 
L 395.53911 132.250742 
L 395.914867 131.864412 
L 396.290625 132.072855 
L 397.417898 131.621402 
L 397.793655 132.11461 
L 398.54517 131.885377 
L 398.920928 131.685562 
L 399.672443 132.014241 
L 400.048201 131.842992 
L 400.423958 131.883854 
L 400.799716 131.669728 
L 401.551231 132.134826 
L 401.926989 132.196674 
L 402.302746 131.534695 
L 402.678504 132.15809 
L 403.430019 131.824913 
L 403.805777 131.623415 
L 404.181534 131.993667 
L 404.557292 131.661674 
L 405.308807 131.780232 
L 405.684564 132.19422 
L 406.060322 131.92404 
L 406.43608 132.082007 
L 407.187595 131.905608 
L 407.563352 131.992586 
L 407.93911 131.585773 
L 408.314867 131.977195 
L 408.690625 131.712126 
L 409.44214 131.844544 
L 409.817898 131.698864 
L 410.193655 131.845577 
L 410.569413 131.667254 
L 410.94517 132.02546 
L 412.072443 131.764295 
L 412.823958 132.132961 
L 413.199716 132.054161 
L 413.575473 132.244216 
L 413.951231 132.261325 
L 414.326989 131.83644 
L 414.702746 132.054553 
L 415.078504 132.070764 
L 415.454261 131.745654 
L 415.830019 131.886346 
L 416.957292 131.744843 
L 417.333049 132.091431 
L 418.084564 131.787761 
L 418.460322 131.802511 
L 418.83608 131.600847 
L 419.963352 131.84851 
L 420.33911 131.834268 
L 420.714867 131.674467 
L 421.090625 132.130691 
L 421.84214 131.613253 
L 422.217898 132.004221 
L 422.593655 131.64069 
L 422.969413 131.919935 
L 423.34517 131.977815 
L 423.720928 131.861181 
L 424.096686 131.879449 
L 424.472443 132.129206 
L 424.848201 132.586272 
L 425.223958 132.397014 
L 425.599716 132.374833 
L 426.351231 131.922759 
L 427.478504 132.166175 
L 427.854261 131.987028 
L 428.230019 132.20129 
L 428.605777 131.900301 
L 428.981534 132.454928 
L 429.357292 131.965419 
L 431.23608 131.995658 
L 431.611837 131.694976 
L 431.987595 131.820483 
L 432.363352 132.268407 
L 432.73911 131.81003 
L 433.866383 132.331839 
L 434.24214 132.089079 
L 434.617898 132.156123 
L 435.369413 131.914557 
L 435.74517 131.779056 
L 436.120928 132.429212 
L 436.496686 132.035896 
L 436.872443 132.156378 
L 437.248201 131.920942 
L 437.623958 132.067177 
L 438.375473 131.7994 
L 438.751231 132.076494 
L 439.126989 131.892182 
L 439.502746 132.137919 
L 439.878504 131.956273 
L 441.005777 132.317842 
L 442.508807 132.052113 
L 442.884564 132.360091 
L 443.260322 132.15185 
L 443.63608 132.561835 
L 444.011837 132.520409 
L 444.387595 132.730541 
L 444.763352 132.36537 
L 446.266383 132.09182 
L 447.017898 132.482762 
L 447.393655 132.309271 
L 447.769413 131.982322 
L 448.14517 132.079422 
L 448.520928 131.983711 
L 448.896686 132.030987 
L 449.272443 132.357754 
L 449.648201 132.456726 
L 450.023958 132.059792 
L 450.399716 132.039161 
L 450.775473 132.164013 
L 451.151231 131.927215 
L 451.902746 132.157801 
L 452.278504 132.131282 
L 452.654261 132.28258 
L 453.030019 132.155762 
L 453.405777 132.3389 
L 454.157292 131.681194 
L 454.533049 132.035336 
L 455.660322 131.958351 
L 456.03608 131.752352 
L 456.411837 132.173254 
L 456.787595 132.027158 
L 457.163352 132.439215 
L 457.914867 132.032869 
L 458.290625 131.622207 
L 459.417898 132.280623 
L 460.920928 131.676886 
L 461.296686 132.106748 
L 462.423958 131.894944 
L 463.926989 131.958977 
L 464.302746 131.787778 
L 464.678504 132.011997 
L 465.054261 131.811797 
L 465.430019 131.811067 
L 465.805777 132.095896 
L 466.181534 131.912196 
L 466.557292 132.21161 
L 466.933049 131.908913 
L 467.308807 131.974276 
L 467.684564 131.662828 
L 468.060322 131.908525 
L 468.43608 131.913864 
L 468.811837 132.275485 
L 469.187595 131.415337 
L 469.563352 131.800467 
L 470.314867 131.534548 
L 471.066383 131.915864 
L 471.44214 131.623809 
L 471.817898 131.542614 
L 472.193655 132.145538 
L 472.569413 131.915697 
L 472.94517 131.830227 
L 473.320928 131.610366 
L 473.696686 131.577343 
L 474.072443 131.953042 
L 474.448201 131.941517 
L 474.823958 132.242704 
L 475.199716 131.788079 
L 475.575473 131.994276 
L 476.326989 131.956424 
L 476.702746 131.602818 
L 477.078504 131.628402 
L 477.454261 132.003848 
L 477.830019 131.951748 
L 478.205777 132.337541 
L 478.581534 131.763898 
L 480.084564 131.841793 
L 480.460322 132.12563 
L 481.211837 132.106456 
L 481.963352 131.921969 
L 482.33911 132.068573 
L 482.714867 131.907576 
L 483.466383 132.076438 
L 483.84214 131.905297 
L 484.217898 132.151423 
L 484.593655 132.214246 
L 484.969413 132.081507 
L 485.720928 132.124251 
L 486.096686 132.522862 
L 486.472443 132.314021 
L 487.223958 132.43381 
L 487.599716 131.838743 
L 487.975473 132.22191 
L 488.351231 132.196385 
L 488.726989 132.291652 
L 489.102746 131.910402 
L 489.854261 131.851582 
L 490.230019 132.088144 
L 491.357292 131.763961 
L 491.733049 132.008608 
L 492.108807 131.867423 
L 492.484564 131.968499 
L 492.860322 131.783698 
L 493.23608 132.018266 
L 493.611837 131.839266 
L 494.363352 132.113795 
L 494.73911 132.204907 
L 495.114867 131.847972 
L 495.490625 131.72808 
L 495.866383 131.877868 
L 496.24214 131.687886 
L 496.617898 132.052456 
L 497.369413 131.951519 
L 497.74517 132.070552 
L 498.120928 131.751878 
L 498.496686 131.796799 
L 498.872443 131.968814 
L 499.623958 131.916459 
L 499.999716 131.415957 
L 500.375473 131.630413 
L 500.751231 131.497864 
L 501.502746 131.955041 
L 501.878504 131.836435 
L 502.254261 131.895353 
L 502.630019 131.788212 
L 503.005777 132.161407 
L 503.381534 131.866419 
L 504.133049 131.699732 
L 504.508807 132.213766 
L 504.884564 131.728133 
L 505.260322 132.387442 
L 505.63608 131.771368 
L 506.387595 131.959422 
L 506.763352 131.776262 
L 507.13911 131.725607 
L 507.514867 131.864995 
L 508.64214 131.836825 
L 509.017898 131.542041 
L 509.393655 131.857837 
L 509.769413 131.815657 
L 510.14517 131.329548 
L 510.520928 131.696928 
L 510.896686 131.533836 
L 511.648201 132.006003 
L 512.023958 131.404012 
L 512.399716 131.777815 
L 512.775473 131.767231 
L 513.151231 131.398486 
L 513.526989 131.837332 
L 513.902746 131.576614 
L 514.278504 131.784697 
L 514.654261 131.822586 
L 515.030019 131.563991 
L 515.405777 131.753948 
L 515.781534 131.643732 
L 516.157292 131.711258 
L 516.533049 131.894859 
L 517.660322 131.652048 
L 518.03608 131.321052 
L 518.411837 131.612636 
L 519.163352 131.768802 
L 519.53911 131.553112 
L 520.290625 131.735078 
L 520.666383 131.81815 
L 521.04214 131.734775 
L 521.417898 131.869323 
L 521.793655 131.656739 
L 522.169413 131.70683 
L 522.54517 132.017098 
L 522.920928 131.590594 
L 523.296686 131.729867 
L 524.048201 132.211052 
L 524.423958 131.722657 
L 524.799716 131.531011 
L 525.175473 131.598798 
L 525.926989 131.449122 
L 526.302746 131.692884 
L 527.430019 131.56468 
L 527.805777 131.804936 
L 528.933049 131.698899 
L 529.308807 131.576302 
L 529.684564 131.164704 
L 530.060322 131.653755 
L 530.43608 131.569612 
L 531.187595 131.224464 
L 531.563352 131.535934 
L 531.93911 131.357117 
L 532.690625 131.567762 
L 533.066383 131.213929 
L 533.44214 131.59829 
L 533.817898 131.152675 
L 534.94517 131.739145 
L 535.320928 131.465133 
L 535.696686 131.453089 
L 536.072443 131.314995 
L 537.199716 131.677337 
L 537.575473 131.748742 
L 537.951231 131.973248 
L 538.326989 131.343102 
L 538.702746 131.580627 
L 539.078504 131.402333 
L 540.581534 131.40373 
L 540.957292 131.238737 
L 541.708807 131.584023 
L 542.084564 131.375681 
L 542.460322 131.671517 
L 542.83608 131.403375 
L 543.211837 131.788508 
L 543.963352 131.376979 
L 545.090625 131.483392 
L 545.466383 131.268123 
L 546.217898 131.57249 
L 546.593655 131.274227 
L 546.969413 131.556683 
L 547.34517 131.59896 
L 547.720928 131.831504 
L 548.096686 131.315487 
L 548.472443 131.371424 
L 548.848201 131.184238 
L 549.223958 131.247575 
L 549.599716 131.533858 
L 549.975473 131.439911 
L 550.351231 131.589682 
L 550.726989 131.287109 
L 551.478504 131.683824 
L 551.854261 131.61923 
L 552.230019 131.669858 
L 552.605777 130.969618 
L 552.981534 130.810178 
L 553.357292 131.309287 
L 553.733049 131.165409 
L 554.108807 131.423773 
L 554.484564 131.306445 
L 554.860322 130.881194 
L 555.23608 131.343836 
L 555.611837 131.622168 
L 555.987595 131.48835 
L 556.363352 131.12394 
L 557.114867 131.342115 
L 557.866383 131.15863 
L 558.24214 131.392061 
L 558.617898 131.339938 
L 558.993655 131.585466 
L 559.369413 131.313515 
L 559.74517 131.716583 
L 560.120928 131.245639 
L 560.496686 131.554074 
L 561.623958 131.269393 
L 562.751231 131.546983 
L 563.126989 131.016815 
L 563.878504 131.712664 
L 564.254261 131.433202 
L 564.630019 131.364848 
L 565.005777 131.425148 
L 565.381534 131.130419 
L 565.757292 131.024514 
L 566.133049 131.273165 
L 566.508807 130.993595 
L 566.884564 131.53009 
L 567.260322 131.36149 
L 567.63608 131.562629 
L 568.011837 131.20167 
L 568.763352 131.299452 
L 569.13911 131.553812 
L 569.514867 131.150863 
L 569.890625 131.40958 
L 570.266383 131.124255 
L 570.64214 131.215577 
L 571.017898 130.970897 
L 571.393655 131.545904 
L 572.14517 131.169531 
L 572.520928 131.50402 
L 572.896686 131.575606 
L 573.272443 131.384051 
L 573.648201 131.480658 
L 574.023958 131.400593 
L 574.775473 131.46457 
L 575.151231 131.163274 
L 575.526989 131.523415 
L 576.278504 131.190596 
L 577.030019 131.310975 
L 577.405777 131.630702 
L 577.781534 131.169151 
L 578.157292 131.039505 
L 578.533049 131.037927 
L 578.908807 131.219068 
L 579.284564 131.05841 
L 579.660322 131.51147 
L 580.03608 131.448166 
L 580.787595 131.71447 
L 581.163352 131.316122 
L 581.53911 131.469966 
L 581.914867 131.222741 
L 582.666383 131.505236 
L 583.04214 131.457204 
L 583.417898 131.637589 
L 584.169413 131.067112 
L 584.54517 131.136962 
L 584.920928 131.366614 
L 585.296686 131.778345 
L 585.672443 131.536757 
L 586.048201 131.501241 
L 586.423958 131.605747 
L 587.175473 131.465848 
L 587.551231 131.731375 
L 587.926989 131.713457 
L 588.302746 131.477451 
L 588.678504 131.456224 
L 589.054261 131.119791 
L 589.430019 131.190572 
L 589.805777 131.384539 
L 591.308807 131.694542 
L 591.684564 131.432508 
L 592.060322 131.429285 
L 592.43608 131.749219 
L 592.811837 131.150779 
L 594.314867 131.577303 
L 594.690625 131.811504 
L 595.066383 131.41673 
L 595.44214 131.444956 
L 595.817898 131.26649 
L 596.193655 131.583304 
L 596.569413 131.335662 
L 596.94517 131.615927 
L 598.072443 131.365126 
L 598.448201 131.583033 
L 598.823958 131.542721 
L 599.199716 131.729707 
L 599.575473 131.424947 
L 599.951231 131.352412 
L 600.326989 131.44336 
L 600.702746 131.700714 
L 601.078504 131.305627 
L 601.830019 131.444577 
L 602.205777 131.219751 
L 603.333049 131.278478 
L 604.084564 131.782109 
L 604.460322 131.290591 
L 605.963352 131.520578 
L 606.33911 131.382871 
L 607.090625 131.534519 
L 607.466383 131.602163 
L 608.593655 131.373908 
L 608.969413 131.750278 
L 609.34517 131.740545 
L 610.096686 131.2285 
L 610.472443 131.174561 
L 610.848201 131.424005 
L 611.223958 131.503319 
L 612.351231 131.320569 
L 612.726989 131.167674 
L 613.854261 131.442016 
L 614.230019 131.432219 
L 614.605777 131.291859 
L 615.733049 131.442947 
L 616.108807 131.074232 
L 616.860322 131.156943 
L 617.23608 131.302615 
L 617.611837 131.296418 
L 617.987595 131.476627 
L 619.114867 131.346275 
L 619.866383 131.414973 
L 620.24214 131.217917 
L 620.617898 131.262462 
L 621.369413 131.114828 
L 622.120928 131.228466 
L 622.496686 130.976384 
L 623.248201 131.235615 
L 623.999716 131.088931 
L 624.751231 131.609499 
L 625.126989 131.278431 
L 625.126989 131.278431 
" clip-path="url(#pe1d2842d65)" style="fill: none; stroke: #ff7f0e; stroke-width: 1.5; stroke-linecap: square"/>
   </g>
   <g id="patch_3">
    <path d="M 92.490625 308.63625 
L 92.490625 31.43625 
" style="fill: none; stroke: #000000; stroke-width: 0.8; stroke-linejoin: miter; stroke-linecap: square"/>
   </g>
   <g id="patch_4">
    <path d="M 650.490625 308.63625 
L 650.490625 31.43625 
" style="fill: none; stroke: #000000; stroke-width: 0.8; stroke-linejoin: miter; stroke-linecap: square"/>
   </g>
   <g id="patch_5">
    <path d="M 92.490625 308.63625 
L 650.490625 308.63625 
" style="fill: none; stroke: #000000; stroke-width: 0.8; stroke-linejoin: miter; stroke-linecap: square"/>
   </g>
   <g id="patch_6">
    <path d="M 92.490625 31.43625 
L 650.490625 31.43625 
" style="fill: none; stroke: #000000; stroke-width: 0.8; stroke-linejoin: miter; stroke-linecap: square"/>
   </g>
   <g id="text_16">
    <!-- Generator and Discriminator Loss During Training -->
    <g transform="translate(74.258125 25.43625) scale(0.24 -0.24)">
     <defs>
      <path id="DejaVuSans-47" d="M 3809 666 
L 3809 1919 
L 2778 1919 
L 2778 2438 
L 4434 2438 
L 4434 434 
Q 4069 175 3628 42 
Q 3188 -91 2688 -91 
Q 1594 -91 976 548 
Q 359 1188 359 2328 
Q 359 3472 976 4111 
Q 1594 4750 2688 4750 
Q 3144 4750 3555 4637 
Q 3966 4525 4313 4306 
L 4313 3634 
Q 3963 3931 3569 4081 
Q 3175 4231 2741 4231 
Q 1884 4231 1454 3753 
Q 1025 3275 1025 2328 
Q 1025 1384 1454 906 
Q 1884 428 2741 428 
Q 3075 428 3337 486 
Q 3600 544 3809 666 
z
" transform="scale(0.015625)"/>
      <path id="DejaVuSans-20" transform="scale(0.015625)"/>
      <path id="DejaVuSans-64" d="M 2906 2969 
L 2906 4863 
L 3481 4863 
L 3481 0 
L 2906 0 
L 2906 525 
Q 2725 213 2448 61 
Q 2172 -91 1784 -91 
Q 1150 -91 751 415 
Q 353 922 353 1747 
Q 353 2572 751 3078 
Q 1150 3584 1784 3584 
Q 2172 3584 2448 3432 
Q 2725 3281 2906 2969 
z
M 947 1747 
Q 947 1113 1208 752 
Q 1469 391 1925 391 
Q 2381 391 2643 752 
Q 2906 1113 2906 1747 
Q 2906 2381 2643 2742 
Q 2381 3103 1925 3103 
Q 1469 3103 1208 2742 
Q 947 2381 947 1747 
z
" transform="scale(0.015625)"/>
      <path id="DejaVuSans-44" d="M 1259 4147 
L 1259 519 
L 2022 519 
Q 2988 519 3436 956 
Q 3884 1394 3884 2338 
Q 3884 3275 3436 3711 
Q 2988 4147 2022 4147 
L 1259 4147 
z
M 628 4666 
L 1925 4666 
Q 3281 4666 3915 4102 
Q 4550 3538 4550 2338 
Q 4550 1131 3912 565 
Q 3275 0 1925 0 
L 628 0 
L 628 4666 
z
" transform="scale(0.015625)"/>
      <path id="DejaVuSans-63" d="M 3122 3366 
L 3122 2828 
Q 2878 2963 2633 3030 
Q 2388 3097 2138 3097 
Q 1578 3097 1268 2742 
Q 959 2388 959 1747 
Q 959 1106 1268 751 
Q 1578 397 2138 397 
Q 2388 397 2633 464 
Q 2878 531 3122 666 
L 3122 134 
Q 2881 22 2623 -34 
Q 2366 -91 2075 -91 
Q 1284 -91 818 406 
Q 353 903 353 1747 
Q 353 2603 823 3093 
Q 1294 3584 2113 3584 
Q 2378 3584 2631 3529 
Q 2884 3475 3122 3366 
z
" transform="scale(0.015625)"/>
      <path id="DejaVuSans-6d" d="M 3328 2828 
Q 3544 3216 3844 3400 
Q 4144 3584 4550 3584 
Q 5097 3584 5394 3201 
Q 5691 2819 5691 2113 
L 5691 0 
L 5113 0 
L 5113 2094 
Q 5113 2597 4934 2840 
Q 4756 3084 4391 3084 
Q 3944 3084 3684 2787 
Q 3425 2491 3425 1978 
L 3425 0 
L 2847 0 
L 2847 2094 
Q 2847 2600 2669 2842 
Q 2491 3084 2119 3084 
Q 1678 3084 1418 2786 
Q 1159 2488 1159 1978 
L 1159 0 
L 581 0 
L 581 3500 
L 1159 3500 
L 1159 2956 
Q 1356 3278 1631 3431 
Q 1906 3584 2284 3584 
Q 2666 3584 2933 3390 
Q 3200 3197 3328 2828 
z
" transform="scale(0.015625)"/>
      <path id="DejaVuSans-75" d="M 544 1381 
L 544 3500 
L 1119 3500 
L 1119 1403 
Q 1119 906 1312 657 
Q 1506 409 1894 409 
Q 2359 409 2629 706 
Q 2900 1003 2900 1516 
L 2900 3500 
L 3475 3500 
L 3475 0 
L 2900 0 
L 2900 538 
Q 2691 219 2414 64 
Q 2138 -91 1772 -91 
Q 1169 -91 856 284 
Q 544 659 544 1381 
z
M 1991 3584 
L 1991 3584 
z
" transform="scale(0.015625)"/>
      <path id="DejaVuSans-67" d="M 2906 1791 
Q 2906 2416 2648 2759 
Q 2391 3103 1925 3103 
Q 1463 3103 1205 2759 
Q 947 2416 947 1791 
Q 947 1169 1205 825 
Q 1463 481 1925 481 
Q 2391 481 2648 825 
Q 2906 1169 2906 1791 
z
M 3481 434 
Q 3481 -459 3084 -895 
Q 2688 -1331 1869 -1331 
Q 1566 -1331 1297 -1286 
Q 1028 -1241 775 -1147 
L 775 -588 
Q 1028 -725 1275 -790 
Q 1522 -856 1778 -856 
Q 2344 -856 2625 -561 
Q 2906 -266 2906 331 
L 2906 616 
Q 2728 306 2450 153 
Q 2172 0 1784 0 
Q 1141 0 747 490 
Q 353 981 353 1791 
Q 353 2603 747 3093 
Q 1141 3584 1784 3584 
Q 2172 3584 2450 3431 
Q 2728 3278 2906 2969 
L 2906 3500 
L 3481 3500 
L 3481 434 
z
" transform="scale(0.015625)"/>
      <path id="DejaVuSans-54" d="M -19 4666 
L 3928 4666 
L 3928 4134 
L 2272 4134 
L 2272 0 
L 1638 0 
L 1638 4134 
L -19 4134 
L -19 4666 
z
" transform="scale(0.015625)"/>
     </defs>
     <use xlink:href="#DejaVuSans-47"/>
     <use xlink:href="#DejaVuSans-65" x="77.490234"/>
     <use xlink:href="#DejaVuSans-6e" x="139.013672"/>
     <use xlink:href="#DejaVuSans-65" x="202.392578"/>
     <use xlink:href="#DejaVuSans-72" x="263.916016"/>
     <use xlink:href="#DejaVuSans-61" x="305.029297"/>
     <use xlink:href="#DejaVuSans-74" x="366.308594"/>
     <use xlink:href="#DejaVuSans-6f" x="405.517578"/>
     <use xlink:href="#DejaVuSans-72" x="466.699219"/>
     <use xlink:href="#DejaVuSans-20" x="507.8125"/>
     <use xlink:href="#DejaVuSans-61" x="539.599609"/>
     <use xlink:href="#DejaVuSans-6e" x="600.878906"/>
     <use xlink:href="#DejaVuSans-64" x="664.257812"/>
     <use xlink:href="#DejaVuSans-20" x="727.734375"/>
     <use xlink:href="#DejaVuSans-44" x="759.521484"/>
     <use xlink:href="#DejaVuSans-69" x="836.523438"/>
     <use xlink:href="#DejaVuSans-73" x="864.306641"/>
     <use xlink:href="#DejaVuSans-63" x="916.40625"/>
     <use xlink:href="#DejaVuSans-72" x="971.386719"/>
     <use xlink:href="#DejaVuSans-69" x="1012.5"/>
     <use xlink:href="#DejaVuSans-6d" x="1040.283203"/>
     <use xlink:href="#DejaVuSans-69" x="1137.695312"/>
     <use xlink:href="#DejaVuSans-6e" x="1165.478516"/>
     <use xlink:href="#DejaVuSans-61" x="1228.857422"/>
     <use xlink:href="#DejaVuSans-74" x="1290.136719"/>
     <use xlink:href="#DejaVuSans-6f" x="1329.345703"/>
     <use xlink:href="#DejaVuSans-72" x="1390.527344"/>
     <use xlink:href="#DejaVuSans-20" x="1431.640625"/>
     <use xlink:href="#DejaVuSans-4c" x="1463.427734"/>
     <use xlink:href="#DejaVuSans-6f" x="1517.390625"/>
     <use xlink:href="#DejaVuSans-73" x="1578.572266"/>
     <use xlink:href="#DejaVuSans-73" x="1630.671875"/>
     <use xlink:href="#DejaVuSans-20" x="1682.771484"/>
     <use xlink:href="#DejaVuSans-44" x="1714.558594"/>
     <use xlink:href="#DejaVuSans-75" x="1791.560547"/>
     <use xlink:href="#DejaVuSans-72" x="1854.939453"/>
     <use xlink:href="#DejaVuSans-69" x="1896.052734"/>
     <use xlink:href="#DejaVuSans-6e" x="1923.835938"/>
     <use xlink:href="#DejaVuSans-67" x="1987.214844"/>
     <use xlink:href="#DejaVuSans-20" x="2050.691406"/>
     <use xlink:href="#DejaVuSans-54" x="2082.478516"/>
     <use xlink:href="#DejaVuSans-72" x="2128.8125"/>
     <use xlink:href="#DejaVuSans-61" x="2169.925781"/>
     <use xlink:href="#DejaVuSans-69" x="2231.205078"/>
     <use xlink:href="#DejaVuSans-6e" x="2258.988281"/>
     <use xlink:href="#DejaVuSans-69" x="2322.367188"/>
     <use xlink:href="#DejaVuSans-6e" x="2350.150391"/>
     <use xlink:href="#DejaVuSans-67" x="2413.529297"/>
    </g>
   </g>
   <g id="legend_1">
    <g id="patch_7">
     <path d="M 556.99375 106.14875 
L 636.490625 106.14875 
Q 640.490625 106.14875 640.490625 102.14875 
L 640.490625 45.43625 
Q 640.490625 41.43625 636.490625 41.43625 
L 556.99375 41.43625 
Q 552.99375 41.43625 552.99375 45.43625 
L 552.99375 102.14875 
Q 552.99375 106.14875 556.99375 106.14875 
z
" style="fill: #ffffff; opacity: 0.8; stroke: #cccccc; stroke-linejoin: miter"/>
    </g>
    <g id="line2d_16">
     <path d="M 560.99375 57.633125 
L 580.99375 57.633125 
L 600.99375 57.633125 
" style="fill: none; stroke: #1f77b4; stroke-width: 1.5; stroke-linecap: square"/>
    </g>
    <g id="text_17">
     <!-- G -->
     <g transform="translate(616.99375 64.633125) scale(0.2 -0.2)">
      <use xlink:href="#DejaVuSans-47"/>
     </g>
    </g>
    <g id="line2d_17">
     <path d="M 560.99375 86.989375 
L 580.99375 86.989375 
L 600.99375 86.989375 
" style="fill: none; stroke: #ff7f0e; stroke-width: 1.5; stroke-linecap: square"/>
    </g>
    <g id="text_18">
     <!-- D -->
     <g transform="translate(616.99375 93.989375) scale(0.2 -0.2)">
      <use xlink:href="#DejaVuSans-44"/>
     </g>
    </g>
   </g>
  </g>
 </g>
 <defs>
  <clipPath id="pe1d2842d65">
   <rect x="92.490625" y="31.43625" width="558" height="277.2"/>
  </clipPath>
 </defs>
</svg>
