<?xml version="1.0" encoding="utf-8" standalone="no"?>
<!DOCTYPE svg PUBLIC "-//W3C//DTD SVG 1.1//EN"
  "http://www.w3.org/Graphics/SVG/1.1/DTD/svg11.dtd">
<svg xmlns:xlink="http://www.w3.org/1999/xlink" width="675.923125pt" height="365.54875pt" viewBox="0 0 675.923125 365.54875" xmlns="http://www.w3.org/2000/svg" version="1.1">
 <metadata>
  <rdf:RDF xmlns:dc="http://purl.org/dc/elements/1.1/" xmlns:cc="http://creativecommons.org/ns#" xmlns:rdf="http://www.w3.org/1999/02/22-rdf-syntax-ns#">
   <cc:Work>
    <dc:type rdf:resource="http://purl.org/dc/dcmitype/StillImage"/>
    <dc:date>2024-02-04T18:08:52.871225</dc:date>
    <dc:format>image/svg+xml</dc:format>
    <dc:creator>
     <cc:Agent>
      <dc:title>Matplotlib v3.7.2, https://matplotlib.org/</dc:title>
     </cc:Agent>
    </dc:creator>
   </cc:Work>
  </rdf:RDF>
 </metadata>
 <defs>
  <style type="text/css">*{stroke-linejoin: round; stroke-linecap: butt}</style>
 </defs>
 <g id="figure_1">
  <g id="patch_1">
   <path d="M 0 365.54875 
L 675.923125 365.54875 
L 675.923125 -0 
L 0 -0 
z
" style="fill: #ffffff"/>
  </g>
  <g id="axes_1">
   <g id="patch_2">
    <path d="M 92.490625 308.63625 
L 650.490625 308.63625 
L 650.490625 31.43625 
L 92.490625 31.43625 
z
" style="fill: #ffffff"/>
   </g>
   <g id="matplotlib.axis_1">
    <g id="xtick_1">
     <g id="line2d_1">
      <defs>
       <path id="mb1aaae403f" d="M 0 0 
L 0 3.5 
" style="stroke: #000000; stroke-width: 0.8"/>
      </defs>
      <g>
       <use xlink:href="#mb1aaae403f" x="117.854261" y="308.63625" style="stroke: #000000; stroke-width: 0.8"/>
      </g>
     </g>
     <g id="text_1">
      <!-- 0 -->
      <g transform="translate(111.491761 330.833125) scale(0.2 -0.2)">
       <defs>
        <path id="DejaVuSans-30" d="M 2034 4250 
Q 1547 4250 1301 3770 
Q 1056 3291 1056 2328 
Q 1056 1369 1301 889 
Q 1547 409 2034 409 
Q 2525 409 2770 889 
Q 3016 1369 3016 2328 
Q 3016 3291 2770 3770 
Q 2525 4250 2034 4250 
z
M 2034 4750 
Q 2819 4750 3233 4129 
Q 3647 3509 3647 2328 
Q 3647 1150 3233 529 
Q 2819 -91 2034 -91 
Q 1250 -91 836 529 
Q 422 1150 422 2328 
Q 422 3509 836 4129 
Q 1250 4750 2034 4750 
z
" transform="scale(0.015625)"/>
       </defs>
       <use xlink:href="#DejaVuSans-30"/>
      </g>
     </g>
    </g>
    <g id="xtick_2">
     <g id="line2d_2">
      <g>
       <use xlink:href="#mb1aaae403f" x="192.453192" y="308.63625" style="stroke: #000000; stroke-width: 0.8"/>
      </g>
     </g>
     <g id="text_2">
      <!-- 250 -->
      <g transform="translate(173.365692 330.833125) scale(0.2 -0.2)">
       <defs>
        <path id="DejaVuSans-32" d="M 1228 531 
L 3431 531 
L 3431 0 
L 469 0 
L 469 531 
Q 828 903 1448 1529 
Q 2069 2156 2228 2338 
Q 2531 2678 2651 2914 
Q 2772 3150 2772 3378 
Q 2772 3750 2511 3984 
Q 2250 4219 1831 4219 
Q 1534 4219 1204 4116 
Q 875 4013 500 3803 
L 500 4441 
Q 881 4594 1212 4672 
Q 1544 4750 1819 4750 
Q 2544 4750 2975 4387 
Q 3406 4025 3406 3419 
Q 3406 3131 3298 2873 
Q 3191 2616 2906 2266 
Q 2828 2175 2409 1742 
Q 1991 1309 1228 531 
z
" transform="scale(0.015625)"/>
        <path id="DejaVuSans-35" d="M 691 4666 
L 3169 4666 
L 3169 4134 
L 1269 4134 
L 1269 2991 
Q 1406 3038 1543 3061 
Q 1681 3084 1819 3084 
Q 2600 3084 3056 2656 
Q 3513 2228 3513 1497 
Q 3513 744 3044 326 
Q 2575 -91 1722 -91 
Q 1428 -91 1123 -41 
Q 819 9 494 109 
L 494 744 
Q 775 591 1075 516 
Q 1375 441 1709 441 
Q 2250 441 2565 725 
Q 2881 1009 2881 1497 
Q 2881 1984 2565 2268 
Q 2250 2553 1709 2553 
Q 1456 2553 1204 2497 
Q 953 2441 691 2322 
L 691 4666 
z
" transform="scale(0.015625)"/>
       </defs>
       <use xlink:href="#DejaVuSans-32"/>
       <use xlink:href="#DejaVuSans-35" x="63.623047"/>
       <use xlink:href="#DejaVuSans-30" x="127.246094"/>
      </g>
     </g>
    </g>
    <g id="xtick_3">
     <g id="line2d_3">
      <g>
       <use xlink:href="#mb1aaae403f" x="267.052122" y="308.63625" style="stroke: #000000; stroke-width: 0.8"/>
      </g>
     </g>
     <g id="text_3">
      <!-- 500 -->
      <g transform="translate(247.964622 330.833125) scale(0.2 -0.2)">
       <use xlink:href="#DejaVuSans-35"/>
       <use xlink:href="#DejaVuSans-30" x="63.623047"/>
       <use xlink:href="#DejaVuSans-30" x="127.246094"/>
      </g>
     </g>
    </g>
    <g id="xtick_4">
     <g id="line2d_4">
      <g>
       <use xlink:href="#mb1aaae403f" x="341.651053" y="308.63625" style="stroke: #000000; stroke-width: 0.8"/>
      </g>
     </g>
     <g id="text_4">
      <!-- 750 -->
      <g transform="translate(322.563553 330.833125) scale(0.2 -0.2)">
       <defs>
        <path id="DejaVuSans-37" d="M 525 4666 
L 3525 4666 
L 3525 4397 
L 1831 0 
L 1172 0 
L 2766 4134 
L 525 4134 
L 525 4666 
z
" transform="scale(0.015625)"/>
       </defs>
       <use xlink:href="#DejaVuSans-37"/>
       <use xlink:href="#DejaVuSans-35" x="63.623047"/>
       <use xlink:href="#DejaVuSans-30" x="127.246094"/>
      </g>
     </g>
    </g>
    <g id="xtick_5">
     <g id="line2d_5">
      <g>
       <use xlink:href="#mb1aaae403f" x="416.249983" y="308.63625" style="stroke: #000000; stroke-width: 0.8"/>
      </g>
     </g>
     <g id="text_5">
      <!-- 1000 -->
      <g transform="translate(390.799983 330.833125) scale(0.2 -0.2)">
       <defs>
        <path id="DejaVuSans-31" d="M 794 531 
L 1825 531 
L 1825 4091 
L 703 3866 
L 703 4441 
L 1819 4666 
L 2450 4666 
L 2450 531 
L 3481 531 
L 3481 0 
L 794 0 
L 794 531 
z
" transform="scale(0.015625)"/>
       </defs>
       <use xlink:href="#DejaVuSans-31"/>
       <use xlink:href="#DejaVuSans-30" x="63.623047"/>
       <use xlink:href="#DejaVuSans-30" x="127.246094"/>
       <use xlink:href="#DejaVuSans-30" x="190.869141"/>
      </g>
     </g>
    </g>
    <g id="xtick_6">
     <g id="line2d_6">
      <g>
       <use xlink:href="#mb1aaae403f" x="490.848914" y="308.63625" style="stroke: #000000; stroke-width: 0.8"/>
      </g>
     </g>
     <g id="text_6">
      <!-- 1250 -->
      <g transform="translate(465.398914 330.833125) scale(0.2 -0.2)">
       <use xlink:href="#DejaVuSans-31"/>
       <use xlink:href="#DejaVuSans-32" x="63.623047"/>
       <use xlink:href="#DejaVuSans-35" x="127.246094"/>
       <use xlink:href="#DejaVuSans-30" x="190.869141"/>
      </g>
     </g>
    </g>
    <g id="xtick_7">
     <g id="line2d_7">
      <g>
       <use xlink:href="#mb1aaae403f" x="565.447844" y="308.63625" style="stroke: #000000; stroke-width: 0.8"/>
      </g>
     </g>
     <g id="text_7">
      <!-- 1500 -->
      <g transform="translate(539.997844 330.833125) scale(0.2 -0.2)">
       <use xlink:href="#DejaVuSans-31"/>
       <use xlink:href="#DejaVuSans-35" x="63.623047"/>
       <use xlink:href="#DejaVuSans-30" x="127.246094"/>
       <use xlink:href="#DejaVuSans-30" x="190.869141"/>
      </g>
     </g>
    </g>
    <g id="xtick_8">
     <g id="line2d_8">
      <g>
       <use xlink:href="#mb1aaae403f" x="640.046775" y="308.63625" style="stroke: #000000; stroke-width: 0.8"/>
      </g>
     </g>
     <g id="text_8">
      <!-- 1750 -->
      <g transform="translate(614.596775 330.833125) scale(0.2 -0.2)">
       <use xlink:href="#DejaVuSans-31"/>
       <use xlink:href="#DejaVuSans-37" x="63.623047"/>
       <use xlink:href="#DejaVuSans-35" x="127.246094"/>
       <use xlink:href="#DejaVuSans-30" x="190.869141"/>
      </g>
     </g>
    </g>
    <g id="text_9">
     <!-- iterations -->
     <g transform="translate(324.035938 354.189375) scale(0.2 -0.2)">
      <defs>
       <path id="DejaVuSans-69" d="M 603 3500 
L 1178 3500 
L 1178 0 
L 603 0 
L 603 3500 
z
M 603 4863 
L 1178 4863 
L 1178 4134 
L 603 4134 
L 603 4863 
z
" transform="scale(0.015625)"/>
       <path id="DejaVuSans-74" d="M 1172 4494 
L 1172 3500 
L 2356 3500 
L 2356 3053 
L 1172 3053 
L 1172 1153 
Q 1172 725 1289 603 
Q 1406 481 1766 481 
L 2356 481 
L 2356 0 
L 1766 0 
Q 1100 0 847 248 
Q 594 497 594 1153 
L 594 3053 
L 172 3053 
L 172 3500 
L 594 3500 
L 594 4494 
L 1172 4494 
z
" transform="scale(0.015625)"/>
       <path id="DejaVuSans-65" d="M 3597 1894 
L 3597 1613 
L 953 1613 
Q 991 1019 1311 708 
Q 1631 397 2203 397 
Q 2534 397 2845 478 
Q 3156 559 3463 722 
L 3463 178 
Q 3153 47 2828 -22 
Q 2503 -91 2169 -91 
Q 1331 -91 842 396 
Q 353 884 353 1716 
Q 353 2575 817 3079 
Q 1281 3584 2069 3584 
Q 2775 3584 3186 3129 
Q 3597 2675 3597 1894 
z
M 3022 2063 
Q 3016 2534 2758 2815 
Q 2500 3097 2075 3097 
Q 1594 3097 1305 2825 
Q 1016 2553 972 2059 
L 3022 2063 
z
" transform="scale(0.015625)"/>
       <path id="DejaVuSans-72" d="M 2631 2963 
Q 2534 3019 2420 3045 
Q 2306 3072 2169 3072 
Q 1681 3072 1420 2755 
Q 1159 2438 1159 1844 
L 1159 0 
L 581 0 
L 581 3500 
L 1159 3500 
L 1159 2956 
Q 1341 3275 1631 3429 
Q 1922 3584 2338 3584 
Q 2397 3584 2469 3576 
Q 2541 3569 2628 3553 
L 2631 2963 
z
" transform="scale(0.015625)"/>
       <path id="DejaVuSans-61" d="M 2194 1759 
Q 1497 1759 1228 1600 
Q 959 1441 959 1056 
Q 959 750 1161 570 
Q 1363 391 1709 391 
Q 2188 391 2477 730 
Q 2766 1069 2766 1631 
L 2766 1759 
L 2194 1759 
z
M 3341 1997 
L 3341 0 
L 2766 0 
L 2766 531 
Q 2569 213 2275 61 
Q 1981 -91 1556 -91 
Q 1019 -91 701 211 
Q 384 513 384 1019 
Q 384 1609 779 1909 
Q 1175 2209 1959 2209 
L 2766 2209 
L 2766 2266 
Q 2766 2663 2505 2880 
Q 2244 3097 1772 3097 
Q 1472 3097 1187 3025 
Q 903 2953 641 2809 
L 641 3341 
Q 956 3463 1253 3523 
Q 1550 3584 1831 3584 
Q 2591 3584 2966 3190 
Q 3341 2797 3341 1997 
z
" transform="scale(0.015625)"/>
       <path id="DejaVuSans-6f" d="M 1959 3097 
Q 1497 3097 1228 2736 
Q 959 2375 959 1747 
Q 959 1119 1226 758 
Q 1494 397 1959 397 
Q 2419 397 2687 759 
Q 2956 1122 2956 1747 
Q 2956 2369 2687 2733 
Q 2419 3097 1959 3097 
z
M 1959 3584 
Q 2709 3584 3137 3096 
Q 3566 2609 3566 1747 
Q 3566 888 3137 398 
Q 2709 -91 1959 -91 
Q 1206 -91 779 398 
Q 353 888 353 1747 
Q 353 2609 779 3096 
Q 1206 3584 1959 3584 
z
" transform="scale(0.015625)"/>
       <path id="DejaVuSans-6e" d="M 3513 2113 
L 3513 0 
L 2938 0 
L 2938 2094 
Q 2938 2591 2744 2837 
Q 2550 3084 2163 3084 
Q 1697 3084 1428 2787 
Q 1159 2491 1159 1978 
L 1159 0 
L 581 0 
L 581 3500 
L 1159 3500 
L 1159 2956 
Q 1366 3272 1645 3428 
Q 1925 3584 2291 3584 
Q 2894 3584 3203 3211 
Q 3513 2838 3513 2113 
z
" transform="scale(0.015625)"/>
       <path id="DejaVuSans-73" d="M 2834 3397 
L 2834 2853 
Q 2591 2978 2328 3040 
Q 2066 3103 1784 3103 
Q 1356 3103 1142 2972 
Q 928 2841 928 2578 
Q 928 2378 1081 2264 
Q 1234 2150 1697 2047 
L 1894 2003 
Q 2506 1872 2764 1633 
Q 3022 1394 3022 966 
Q 3022 478 2636 193 
Q 2250 -91 1575 -91 
Q 1294 -91 989 -36 
Q 684 19 347 128 
L 347 722 
Q 666 556 975 473 
Q 1284 391 1588 391 
Q 1994 391 2212 530 
Q 2431 669 2431 922 
Q 2431 1156 2273 1281 
Q 2116 1406 1581 1522 
L 1381 1569 
Q 847 1681 609 1914 
Q 372 2147 372 2553 
Q 372 3047 722 3315 
Q 1072 3584 1716 3584 
Q 2034 3584 2315 3537 
Q 2597 3491 2834 3397 
z
" transform="scale(0.015625)"/>
      </defs>
      <use xlink:href="#DejaVuSans-69"/>
      <use xlink:href="#DejaVuSans-74" x="27.783203"/>
      <use xlink:href="#DejaVuSans-65" x="66.992188"/>
      <use xlink:href="#DejaVuSans-72" x="128.515625"/>
      <use xlink:href="#DejaVuSans-61" x="169.628906"/>
      <use xlink:href="#DejaVuSans-74" x="230.908203"/>
      <use xlink:href="#DejaVuSans-69" x="270.117188"/>
      <use xlink:href="#DejaVuSans-6f" x="297.900391"/>
      <use xlink:href="#DejaVuSans-6e" x="359.082031"/>
      <use xlink:href="#DejaVuSans-73" x="422.460938"/>
     </g>
    </g>
   </g>
   <g id="matplotlib.axis_2">
    <g id="ytick_1">
     <g id="line2d_9">
      <defs>
       <path id="m7661823bde" d="M 0 0 
L -3.5 0 
" style="stroke: #000000; stroke-width: 0.8"/>
      </defs>
      <g>
       <use xlink:href="#m7661823bde" x="92.490625" y="275.383624" style="stroke: #000000; stroke-width: 0.8"/>
      </g>
     </g>
     <g id="text_10">
      <!-- −300 -->
      <g transform="translate(30.55625 282.982061) scale(0.2 -0.2)">
       <defs>
        <path id="DejaVuSans-2212" d="M 678 2272 
L 4684 2272 
L 4684 1741 
L 678 1741 
L 678 2272 
z
" transform="scale(0.015625)"/>
        <path id="DejaVuSans-33" d="M 2597 2516 
Q 3050 2419 3304 2112 
Q 3559 1806 3559 1356 
Q 3559 666 3084 287 
Q 2609 -91 1734 -91 
Q 1441 -91 1130 -33 
Q 819 25 488 141 
L 488 750 
Q 750 597 1062 519 
Q 1375 441 1716 441 
Q 2309 441 2620 675 
Q 2931 909 2931 1356 
Q 2931 1769 2642 2001 
Q 2353 2234 1838 2234 
L 1294 2234 
L 1294 2753 
L 1863 2753 
Q 2328 2753 2575 2939 
Q 2822 3125 2822 3475 
Q 2822 3834 2567 4026 
Q 2313 4219 1838 4219 
Q 1578 4219 1281 4162 
Q 984 4106 628 3988 
L 628 4550 
Q 988 4650 1302 4700 
Q 1616 4750 1894 4750 
Q 2613 4750 3031 4423 
Q 3450 4097 3450 3541 
Q 3450 3153 3228 2886 
Q 3006 2619 2597 2516 
z
" transform="scale(0.015625)"/>
       </defs>
       <use xlink:href="#DejaVuSans-2212"/>
       <use xlink:href="#DejaVuSans-33" x="83.789062"/>
       <use xlink:href="#DejaVuSans-30" x="147.412109"/>
       <use xlink:href="#DejaVuSans-30" x="211.035156"/>
      </g>
     </g>
    </g>
    <g id="ytick_2">
     <g id="line2d_10">
      <g>
       <use xlink:href="#m7661823bde" x="92.490625" y="226.548593" style="stroke: #000000; stroke-width: 0.8"/>
      </g>
     </g>
     <g id="text_11">
      <!-- −200 -->
      <g transform="translate(30.55625 234.147031) scale(0.2 -0.2)">
       <use xlink:href="#DejaVuSans-2212"/>
       <use xlink:href="#DejaVuSans-32" x="83.789062"/>
       <use xlink:href="#DejaVuSans-30" x="147.412109"/>
       <use xlink:href="#DejaVuSans-30" x="211.035156"/>
      </g>
     </g>
    </g>
    <g id="ytick_3">
     <g id="line2d_11">
      <g>
       <use xlink:href="#m7661823bde" x="92.490625" y="177.713563" style="stroke: #000000; stroke-width: 0.8"/>
      </g>
     </g>
     <g id="text_12">
      <!-- −100 -->
      <g transform="translate(30.55625 185.312) scale(0.2 -0.2)">
       <use xlink:href="#DejaVuSans-2212"/>
       <use xlink:href="#DejaVuSans-31" x="83.789062"/>
       <use xlink:href="#DejaVuSans-30" x="147.412109"/>
       <use xlink:href="#DejaVuSans-30" x="211.035156"/>
      </g>
     </g>
    </g>
    <g id="ytick_4">
     <g id="line2d_12">
      <g>
       <use xlink:href="#m7661823bde" x="92.490625" y="128.878533" style="stroke: #000000; stroke-width: 0.8"/>
      </g>
     </g>
     <g id="text_13">
      <!-- 0 -->
      <g transform="translate(72.765625 136.47697) scale(0.2 -0.2)">
       <use xlink:href="#DejaVuSans-30"/>
      </g>
     </g>
    </g>
    <g id="ytick_5">
     <g id="line2d_13">
      <g>
       <use xlink:href="#m7661823bde" x="92.490625" y="80.043502" style="stroke: #000000; stroke-width: 0.8"/>
      </g>
     </g>
     <g id="text_14">
      <!-- 100 -->
      <g transform="translate(47.315625 87.64194) scale(0.2 -0.2)">
       <use xlink:href="#DejaVuSans-31"/>
       <use xlink:href="#DejaVuSans-30" x="63.623047"/>
       <use xlink:href="#DejaVuSans-30" x="127.246094"/>
      </g>
     </g>
    </g>
    <g id="text_15">
     <!-- Loss -->
     <g transform="translate(22.396875 191.970625) rotate(-90) scale(0.2 -0.2)">
      <defs>
       <path id="DejaVuSans-4c" d="M 628 4666 
L 1259 4666 
L 1259 531 
L 3531 531 
L 3531 0 
L 628 0 
L 628 4666 
z
" transform="scale(0.015625)"/>
      </defs>
      <use xlink:href="#DejaVuSans-4c"/>
      <use xlink:href="#DejaVuSans-6f" x="53.962891"/>
      <use xlink:href="#DejaVuSans-73" x="115.144531"/>
      <use xlink:href="#DejaVuSans-73" x="167.244141"/>
     </g>
    </g>
   </g>
   <g id="line2d_14">
    <path d="M 117.854261 107.143996 
L 118.152657 57.897655 
L 118.451053 62.589217 
L 118.749449 71.838444 
L 119.047844 72.058068 
L 119.34624 78.835638 
L 119.644636 48.700135 
L 119.943031 69.151889 
L 120.241427 52.930212 
L 120.539823 66.096965 
L 120.838219 66.553032 
L 121.136614 76.876548 
L 121.43501 55.497317 
L 121.733406 51.115701 
L 122.031801 44.03625 
L 122.330197 51.05182 
L 122.628593 50.556376 
L 122.926989 47.220406 
L 123.225384 48.866878 
L 123.52378 59.287779 
L 123.822176 53.814842 
L 124.418967 75.333709 
L 124.717363 66.979208 
L 125.015759 67.998484 
L 125.61255 56.908396 
L 125.910946 56.25427 
L 126.209342 62.683745 
L 126.507737 62.834119 
L 126.806133 61.864756 
L 127.104529 59.659047 
L 127.402924 66.219703 
L 127.999716 63.601624 
L 128.298112 67.449061 
L 128.596507 60.970884 
L 128.894903 60.75248 
L 129.193299 63.60389 
L 130.088486 58.813955 
L 130.386882 67.023484 
L 130.685277 68.229069 
L 130.983673 64.692444 
L 131.580465 70.902459 
L 131.87886 69.795967 
L 132.177256 74.728848 
L 132.774047 77.42436 
L 133.072443 83.33243 
L 133.370839 83.696863 
L 133.669235 81.139497 
L 133.96763 84.503779 
L 134.266026 82.653976 
L 134.564422 83.971179 
L 134.862818 83.117448 
L 135.161213 92.629959 
L 135.459609 90.330475 
L 135.758005 92.275981 
L 136.0564 90.397232 
L 136.354796 85.023339 
L 136.951588 91.154721 
L 137.249983 90.441416 
L 137.548379 93.864369 
L 137.846775 94.436591 
L 138.14517 92.705835 
L 138.443566 92.095729 
L 138.741962 93.933289 
L 139.040358 93.130061 
L 139.338753 96.57687 
L 139.637149 96.221721 
L 139.935545 97.915892 
L 140.532336 96.027037 
L 140.830732 98.865555 
L 141.129128 98.462802 
L 141.427523 99.901126 
L 142.024315 96.744706 
L 142.322711 101.116059 
L 142.621106 101.463043 
L 142.919502 99.407777 
L 143.217898 99.079392 
L 143.516293 101.748936 
L 143.814689 96.373721 
L 144.113085 98.877538 
L 144.411481 98.64235 
L 144.709876 101.755311 
L 145.008272 100.498503 
L 145.306668 100.197472 
L 145.605064 101.359065 
L 145.903459 103.278208 
L 146.201855 101.968927 
L 146.500251 102.623733 
L 146.798646 105.687596 
L 147.097042 105.591574 
L 147.395438 105.222651 
L 147.693834 105.442727 
L 147.992229 105.435291 
L 148.290625 106.080857 
L 148.589021 104.933541 
L 149.185812 105.439361 
L 149.484208 104.112317 
L 149.782604 107.187193 
L 150.080999 105.623654 
L 150.379395 108.334138 
L 150.677791 109.120913 
L 150.976186 108.514233 
L 151.274582 108.621994 
L 151.572978 110.088807 
L 151.871374 107.799802 
L 152.169769 110.200852 
L 152.468165 107.412463 
L 152.766561 110.288919 
L 153.064957 110.331991 
L 153.363352 109.867902 
L 153.661748 112.363599 
L 153.960144 111.384776 
L 154.258539 112.310107 
L 154.556935 111.154051 
L 154.855331 111.986557 
L 155.153727 111.672193 
L 155.452122 113.862704 
L 155.750518 113.19168 
L 156.048914 114.015056 
L 156.347309 115.817951 
L 156.645705 115.191117 
L 156.944101 113.570448 
L 157.242497 114.281939 
L 157.540892 113.887923 
L 157.839288 115.180849 
L 158.43608 113.208098 
L 158.734475 113.576696 
L 159.032871 112.998 
L 159.331267 113.869487 
L 159.928058 111.773753 
L 160.226454 114.315421 
L 160.52485 114.651964 
L 160.823245 113.95065 
L 161.121641 111.565328 
L 161.420037 113.268465 
L 161.718432 113.723887 
L 162.016828 116.218163 
L 162.315224 116.482947 
L 162.912015 116.223465 
L 163.210411 115.955427 
L 163.807203 116.043666 
L 164.105598 115.516151 
L 164.403994 115.237095 
L 164.70239 115.526654 
L 165.000785 116.500384 
L 165.299181 115.701997 
L 165.597577 115.514227 
L 165.895973 116.566719 
L 166.492764 113.033838 
L 166.79116 117.386173 
L 167.089555 115.030196 
L 167.387951 116.114283 
L 167.984743 116.685988 
L 168.283138 116.285479 
L 168.581534 116.383238 
L 168.87993 117.809727 
L 169.178326 116.247651 
L 169.775117 117.118397 
L 170.073513 116.978864 
L 170.371908 116.266156 
L 170.670304 116.828591 
L 170.9687 115.704825 
L 171.267096 117.848933 
L 171.565491 117.516695 
L 171.863887 118.217987 
L 172.162283 117.790735 
L 172.460678 117.613888 
L 172.759074 117.925882 
L 173.05747 116.471722 
L 173.355866 116.633613 
L 173.654261 116.587235 
L 173.952657 118.686857 
L 174.549449 116.579879 
L 174.847844 116.951022 
L 175.14624 118.058637 
L 175.743031 116.99867 
L 176.041427 118.228131 
L 176.339823 118.162169 
L 176.638219 117.314565 
L 176.936614 117.584009 
L 177.23501 116.539411 
L 177.533406 116.131323 
L 177.831801 116.251882 
L 178.428593 118.780418 
L 178.726989 117.675981 
L 179.025384 117.951128 
L 179.32378 117.44087 
L 179.622176 118.886704 
L 179.920572 119.55603 
L 180.517363 118.79163 
L 181.114154 118.79812 
L 181.41255 117.778909 
L 182.009342 119.614259 
L 182.307737 119.138963 
L 182.606133 117.891263 
L 182.904529 118.490706 
L 183.50132 118.425521 
L 183.799716 118.760239 
L 184.098112 117.305008 
L 184.396507 116.889487 
L 184.694903 118.018663 
L 184.993299 117.121134 
L 185.291695 117.851503 
L 185.59009 119.094316 
L 185.888486 118.676769 
L 186.186882 119.082107 
L 186.485277 118.623146 
L 186.783673 117.768881 
L 187.380465 118.825413 
L 187.67886 118.2673 
L 187.977256 119.092046 
L 188.275652 118.887891 
L 188.574047 118.195138 
L 188.872443 118.752301 
L 189.170839 118.149038 
L 189.469235 118.431451 
L 189.76763 119.302395 
L 190.364422 118.081396 
L 190.961213 120.398914 
L 191.259609 118.94 
L 191.558005 119.590047 
L 192.154796 118.686176 
L 192.453192 119.379729 
L 192.751588 119.397097 
L 193.049983 119.043407 
L 193.348379 119.561633 
L 194.243566 118.547244 
L 194.541962 118.335123 
L 195.138753 119.719201 
L 195.437149 119.506408 
L 195.735545 120.306386 
L 196.033941 119.454758 
L 196.332336 119.946772 
L 196.630732 119.823493 
L 196.929128 120.35784 
L 197.525919 120.023433 
L 197.824315 121.096725 
L 198.421106 119.595591 
L 198.719502 119.661148 
L 199.017898 120.087533 
L 199.316293 119.862036 
L 199.614689 120.239391 
L 199.913085 120.83174 
L 200.211481 119.818343 
L 200.509876 119.496576 
L 200.808272 120.018282 
L 201.106668 119.449078 
L 201.405064 119.43946 
L 201.703459 121.084304 
L 202.001855 120.896631 
L 202.300251 119.88671 
L 202.598646 121.115615 
L 202.897042 121.079473 
L 203.195438 120.582263 
L 203.493834 121.267944 
L 203.792229 118.883221 
L 204.090625 119.745675 
L 204.389021 121.08311 
L 204.687416 120.034706 
L 204.985812 120.5562 
L 205.284208 120.845277 
L 205.582604 120.157877 
L 205.880999 121.521667 
L 206.477791 121.102262 
L 206.776186 120.238156 
L 207.074582 121.339193 
L 207.372978 120.199512 
L 207.671374 121.283286 
L 207.969769 121.328363 
L 208.268165 121.090805 
L 209.461748 121.636812 
L 209.760144 121.077947 
L 210.058539 121.476202 
L 210.356935 121.201237 
L 210.655331 121.400379 
L 211.252122 122.001312 
L 211.550518 122.243346 
L 211.848914 121.400922 
L 212.147309 121.35934 
L 212.445705 121.848311 
L 213.042497 122.28045 
L 213.340892 122.622874 
L 213.639288 122.336203 
L 213.937684 121.806722 
L 214.23608 122.501442 
L 215.131267 122.077469 
L 215.429662 122.280026 
L 215.728058 122.860493 
L 216.32485 122.665896 
L 216.623245 122.895017 
L 216.921641 122.338507 
L 217.518432 122.451576 
L 218.115224 121.707988 
L 218.41362 122.859794 
L 218.712015 122.667835 
L 219.308807 123.603367 
L 219.905598 122.382557 
L 220.203994 122.72702 
L 220.50239 123.601962 
L 220.800785 123.963273 
L 221.099181 123.736112 
L 221.397577 123.857175 
L 221.695973 122.995332 
L 221.994368 123.003966 
L 222.292764 123.310766 
L 222.59116 122.64072 
L 223.187951 124.149156 
L 223.784743 124.441286 
L 224.083138 123.90084 
L 224.381534 124.299631 
L 224.67993 124.292514 
L 224.978326 124.465209 
L 225.575117 124.244183 
L 225.873513 124.511954 
L 226.171908 123.637802 
L 226.470304 124.307783 
L 227.067096 124.127827 
L 227.365491 123.726083 
L 227.962283 123.724214 
L 228.260678 124.74 
L 228.559074 124.949683 
L 228.85747 123.838682 
L 229.155866 123.885097 
L 229.454261 124.16535 
L 229.752657 124.699011 
L 230.051053 124.508582 
L 230.349449 125.245366 
L 230.94624 124.571209 
L 231.244636 125.131734 
L 231.543031 125.363722 
L 232.139823 125.050739 
L 232.438219 125.055236 
L 232.736614 125.719419 
L 233.03501 125.032975 
L 233.333406 125.356857 
L 233.631801 124.376778 
L 233.930197 125.585305 
L 234.228593 125.55837 
L 234.526989 126.362388 
L 234.825384 125.94994 
L 235.12378 126.090182 
L 235.422176 125.831119 
L 236.317363 125.499097 
L 236.615759 125.888574 
L 236.914154 125.332861 
L 237.21255 125.287222 
L 237.510946 125.851303 
L 237.809342 124.967126 
L 238.406133 124.594401 
L 238.704529 125.561248 
L 239.002924 125.775176 
L 239.30132 125.727656 
L 239.599716 125.336836 
L 239.898112 125.301675 
L 240.196507 125.451579 
L 240.793299 124.365278 
L 241.091695 125.077519 
L 241.39009 124.378871 
L 241.688486 125.538634 
L 241.986882 125.434654 
L 242.882069 126.135326 
L 243.180465 125.767461 
L 243.47886 125.845781 
L 244.374047 125.635223 
L 244.672443 125.766875 
L 244.970839 125.191649 
L 245.269235 125.427896 
L 245.56763 125.349871 
L 245.866026 125.789513 
L 246.164422 125.161249 
L 246.761213 125.094227 
L 247.059609 124.689431 
L 247.358005 125.550149 
L 247.6564 124.966956 
L 247.954796 125.69994 
L 248.253192 125.228714 
L 248.551588 125.309919 
L 248.849983 125.213436 
L 249.148379 125.708024 
L 249.446775 125.588056 
L 249.74517 125.288172 
L 250.043566 126.054596 
L 250.341962 125.552537 
L 250.640358 125.544268 
L 250.938753 126.226752 
L 251.237149 125.488179 
L 251.833941 126.171901 
L 252.132336 125.513511 
L 252.430732 125.794149 
L 252.729128 125.658881 
L 253.027523 126.502453 
L 253.325919 126.525528 
L 253.624315 126.031675 
L 253.922711 126.090373 
L 254.221106 125.781718 
L 254.519502 125.779334 
L 254.817898 125.889086 
L 255.713085 126.961614 
L 256.011481 126.142468 
L 256.608272 126.914565 
L 256.906668 126.207148 
L 257.503459 126.59136 
L 257.801855 126.02833 
L 258.398646 126.177766 
L 258.697042 125.841597 
L 258.995438 125.92563 
L 259.293834 125.752012 
L 259.592229 126.261588 
L 259.890625 126.077602 
L 260.189021 126.604134 
L 260.487416 126.23771 
L 260.785812 126.861873 
L 261.084208 126.203507 
L 261.382604 126.376087 
L 261.979395 127.224808 
L 262.576186 126.415117 
L 262.874582 126.696078 
L 263.172978 127.224358 
L 263.769769 126.999313 
L 264.068165 127.609103 
L 264.366561 127.060794 
L 264.664957 127.279437 
L 264.963352 127.929773 
L 265.261748 127.681504 
L 265.560144 126.765478 
L 265.858539 127.210413 
L 266.156935 128.074752 
L 266.455331 127.983863 
L 267.052122 127.600631 
L 267.350518 127.585221 
L 267.648914 127.371201 
L 267.947309 128.154938 
L 268.842497 127.58216 
L 269.737684 128.134644 
L 270.03608 127.549762 
L 270.334475 128.180398 
L 270.632871 128.32243 
L 270.931267 128.220869 
L 271.229662 127.773186 
L 271.528058 128.274126 
L 271.826454 128.375967 
L 272.721641 128.272506 
L 273.318432 127.626651 
L 273.616828 127.882218 
L 273.915224 128.622262 
L 274.21362 128.624273 
L 274.512015 128.380195 
L 275.407203 127.226119 
L 275.705598 127.475618 
L 276.003994 127.335648 
L 276.30239 127.884496 
L 276.899181 128.029227 
L 277.197577 127.075883 
L 277.495973 127.338533 
L 277.794368 128.281584 
L 278.092764 128.207444 
L 278.39116 127.372999 
L 278.689555 127.572064 
L 278.987951 127.077766 
L 279.584743 128.311318 
L 279.883138 128.307992 
L 280.47993 127.580508 
L 280.778326 126.764973 
L 281.076721 127.734314 
L 281.375117 126.768116 
L 281.673513 126.896653 
L 281.971908 126.813981 
L 282.270304 127.304233 
L 282.5687 127.431338 
L 282.867096 126.937992 
L 283.165491 126.795393 
L 283.463887 127.407002 
L 284.060678 127.013732 
L 284.359074 127.122365 
L 284.65747 128.153388 
L 284.955866 126.857992 
L 285.254261 127.826451 
L 285.552657 127.222345 
L 285.851053 127.428328 
L 286.149449 126.994658 
L 286.447844 127.659318 
L 286.74624 126.673171 
L 287.044636 127.574447 
L 287.343031 127.432291 
L 287.641427 128.323104 
L 287.939823 128.007326 
L 288.238219 127.952391 
L 288.536614 127.181402 
L 288.83501 128.105599 
L 289.133406 127.729914 
L 289.431801 128.242449 
L 289.730197 128.175044 
L 290.028593 127.805558 
L 290.326989 128.141651 
L 290.625384 128.10651 
L 290.92378 128.312509 
L 291.222176 127.661634 
L 291.818967 128.423643 
L 292.117363 128.112519 
L 292.415759 128.424213 
L 293.01255 128.212217 
L 293.310946 128.250398 
L 293.609342 127.226366 
L 293.907737 127.538592 
L 294.206133 128.460846 
L 294.504529 128.842332 
L 294.802924 128.382478 
L 295.10132 128.311378 
L 295.399716 129.098682 
L 295.996507 128.93048 
L 296.593299 129.345805 
L 296.891695 129.571246 
L 297.19009 129.133117 
L 297.488486 128.924347 
L 297.786882 129.6165 
L 298.383673 128.979247 
L 298.682069 129.156974 
L 298.980465 128.539898 
L 299.577256 129.568516 
L 299.875652 128.962134 
L 300.174047 128.878142 
L 300.472443 129.052093 
L 300.770839 128.657464 
L 301.069235 128.693572 
L 301.36763 129.237439 
L 301.666026 129.440119 
L 301.964422 128.315439 
L 302.262818 129.084725 
L 302.561213 129.259416 
L 302.859609 129.020508 
L 303.754796 129.65396 
L 304.053192 129.759707 
L 304.351588 129.736929 
L 304.649983 129.989611 
L 304.948379 130.095301 
L 305.843566 129.332092 
L 306.141962 129.546395 
L 306.440358 129.575164 
L 306.738753 129.787767 
L 307.037149 129.783134 
L 307.633941 130.133199 
L 308.230732 129.863755 
L 308.529128 130.226971 
L 308.827523 129.521859 
L 309.125919 129.919794 
L 309.424315 129.266993 
L 309.722711 130.362737 
L 310.021106 129.671953 
L 310.319502 130.100109 
L 310.617898 130.124111 
L 310.916293 130.386335 
L 311.214689 130.077366 
L 311.513085 130.468662 
L 311.811481 130.247035 
L 312.109876 130.502511 
L 312.408272 129.622565 
L 312.706668 130.044121 
L 313.005064 129.637852 
L 313.303459 129.852127 
L 313.601855 129.820835 
L 313.900251 130.095071 
L 314.198646 129.915606 
L 314.497042 130.056417 
L 315.392229 129.462623 
L 315.690625 129.722866 
L 315.989021 129.678706 
L 316.287416 129.344987 
L 316.585812 129.697922 
L 316.884208 129.556763 
L 317.182604 129.590645 
L 317.480999 129.844723 
L 317.779395 129.945158 
L 318.077791 129.664395 
L 318.376186 130.114712 
L 318.674582 129.91082 
L 318.972978 130.040111 
L 319.271374 129.634323 
L 319.569769 130.2478 
L 319.868165 129.693251 
L 320.166561 129.574529 
L 320.464957 128.501651 
L 320.763352 129.833853 
L 321.061748 129.795103 
L 321.956935 130.259546 
L 322.255331 129.709199 
L 322.553727 130.61436 
L 322.852122 129.822597 
L 323.150518 130.118296 
L 323.448914 129.588654 
L 323.747309 130.485866 
L 324.045705 129.886924 
L 324.940892 130.319328 
L 325.239288 129.869323 
L 325.537684 130.428421 
L 326.134475 129.777697 
L 326.432871 130.069704 
L 326.731267 129.903047 
L 327.029662 130.419247 
L 327.328058 130.241578 
L 327.626454 130.275795 
L 327.92485 130.005742 
L 328.223245 129.965241 
L 329.118432 130.486054 
L 329.416828 130.162824 
L 329.715224 130.53959 
L 330.01362 130.735584 
L 330.312015 130.176004 
L 330.908807 130.229223 
L 331.207203 130.476132 
L 331.505598 130.424463 
L 331.803994 129.924593 
L 332.400785 130.363919 
L 332.997577 130.355589 
L 333.295973 130.739932 
L 333.594368 130.694598 
L 333.892764 130.334052 
L 334.19116 129.444201 
L 335.086347 130.348248 
L 335.384743 130.020741 
L 335.683138 129.961073 
L 335.981534 130.082845 
L 336.27993 130.397618 
L 336.578326 129.982875 
L 336.876721 130.561671 
L 337.175117 130.213164 
L 337.473513 130.604929 
L 337.771908 131.294337 
L 338.070304 130.740751 
L 338.3687 130.589133 
L 338.667096 130.822809 
L 338.965491 130.283417 
L 339.263887 130.68735 
L 339.562283 130.50424 
L 339.860678 129.904625 
L 340.159074 130.646921 
L 340.755866 129.985194 
L 341.054261 129.977035 
L 341.352657 130.223887 
L 341.651053 130.193264 
L 341.949449 129.997993 
L 342.247844 130.135833 
L 342.54624 130.397035 
L 343.143031 130.167881 
L 343.739823 130.305398 
L 344.038219 130.505332 
L 344.336614 130.181581 
L 344.63501 130.489115 
L 345.231801 130.091959 
L 345.530197 129.265459 
L 345.828593 129.368122 
L 346.126989 129.748727 
L 346.425384 129.728249 
L 346.72378 129.272479 
L 347.022176 129.345508 
L 347.320572 129.594932 
L 347.618967 129.031852 
L 348.215759 130.163698 
L 348.514154 130.015808 
L 348.81255 130.398374 
L 349.110946 130.497082 
L 349.409342 130.284284 
L 349.707737 129.895821 
L 350.006133 129.95164 
L 350.304529 130.228593 
L 350.602924 129.924436 
L 350.90132 129.945637 
L 351.199716 129.703161 
L 351.498112 129.928617 
L 351.796507 129.874596 
L 352.094903 129.065751 
L 352.393299 129.610412 
L 352.691695 129.641082 
L 352.99009 130.025137 
L 353.288486 129.282538 
L 353.586882 129.887531 
L 353.885277 129.134435 
L 354.183673 129.5941 
L 354.482069 129.310474 
L 354.780465 129.619078 
L 355.377256 129.876 
L 355.974047 129.413999 
L 356.272443 129.846728 
L 356.570839 129.839309 
L 356.869235 129.532719 
L 357.16763 129.929045 
L 357.466026 129.81411 
L 357.764422 129.001903 
L 358.361213 129.802867 
L 358.659609 129.036354 
L 358.958005 129.566592 
L 359.2564 128.963836 
L 359.554796 129.210057 
L 359.853192 129.202111 
L 360.151588 128.938855 
L 360.449983 128.992754 
L 360.748379 129.552311 
L 361.046775 129.595012 
L 361.34517 129.500006 
L 361.643566 129.81267 
L 361.941962 129.091221 
L 362.538753 129.779661 
L 362.837149 129.192974 
L 363.135545 129.568089 
L 363.433941 129.663963 
L 363.732336 129.337801 
L 364.030732 129.403436 
L 364.329128 129.2691 
L 364.627523 129.505534 
L 365.224315 129.271972 
L 365.522711 128.770547 
L 365.821106 129.282876 
L 366.119502 128.817693 
L 366.417898 129.648637 
L 367.014689 129.777384 
L 367.313085 129.827788 
L 367.611481 129.643045 
L 367.909876 129.849396 
L 368.208272 129.708486 
L 368.506668 129.771251 
L 368.805064 129.565484 
L 369.103459 130.118856 
L 369.401855 130.012593 
L 369.700251 129.504526 
L 369.998646 129.831151 
L 370.297042 130.334078 
L 370.595438 129.457748 
L 370.893834 129.939677 
L 371.192229 129.908597 
L 371.490625 129.673478 
L 371.789021 129.825302 
L 372.087416 129.424542 
L 372.385812 130.086837 
L 372.684208 129.326513 
L 372.982604 129.394737 
L 373.579395 130.025031 
L 373.877791 129.457657 
L 374.176186 129.465405 
L 374.474582 128.855817 
L 375.071374 129.675592 
L 375.369769 129.273101 
L 375.668165 129.699137 
L 376.563352 129.275913 
L 376.861748 129.060016 
L 377.160144 129.018594 
L 377.458539 129.602737 
L 377.756935 129.918736 
L 378.055331 129.743232 
L 378.353727 129.039499 
L 378.652122 129.410146 
L 378.950518 129.372393 
L 379.248914 129.181139 
L 379.547309 129.177771 
L 379.845705 129.014223 
L 380.144101 129.492857 
L 380.442497 128.96327 
L 380.740892 129.274704 
L 381.337684 129.293524 
L 381.63608 129.699108 
L 381.934475 129.333775 
L 382.232871 129.364506 
L 382.531267 129.227237 
L 383.128058 129.937171 
L 383.426454 129.694828 
L 383.72485 130.339109 
L 384.023245 130.202544 
L 384.321641 129.356784 
L 384.620037 130.455383 
L 385.216828 128.905974 
L 385.515224 129.542912 
L 385.81362 129.139699 
L 386.112015 129.622053 
L 386.410411 129.102166 
L 386.708807 129.624722 
L 387.007203 129.29776 
L 387.305598 129.665699 
L 387.603994 129.234349 
L 388.200785 129.9291 
L 388.797577 129.623833 
L 389.394368 129.901507 
L 389.692764 129.783073 
L 390.289555 130.009547 
L 390.587951 129.779832 
L 390.886347 129.397797 
L 391.184743 129.898398 
L 391.781534 129.799989 
L 392.07993 130.19684 
L 392.378326 129.902221 
L 392.676721 130.106436 
L 392.975117 129.724585 
L 393.571908 130.254489 
L 393.870304 129.517266 
L 394.1687 130.249029 
L 394.467096 129.543914 
L 394.765491 129.596553 
L 395.063887 129.270234 
L 395.660678 129.248627 
L 396.25747 129.526264 
L 396.854261 129.563824 
L 397.152657 129.311416 
L 397.749449 129.2001 
L 398.047844 129.41512 
L 398.34624 130.050375 
L 398.644636 129.880463 
L 399.241427 129.140209 
L 399.539823 129.622756 
L 399.838219 129.33362 
L 400.136614 129.694871 
L 400.43501 128.930139 
L 400.733406 129.217149 
L 401.330197 129.404956 
L 401.628593 129.136685 
L 401.926989 130.160433 
L 402.225384 129.430545 
L 402.52378 129.717037 
L 402.822176 129.120133 
L 403.120572 129.5394 
L 403.717363 129.265994 
L 404.015759 129.492653 
L 404.314154 130.105262 
L 404.61255 128.873867 
L 405.209342 129.19581 
L 405.507737 128.567282 
L 405.806133 129.009785 
L 406.104529 128.841077 
L 406.402924 129.666749 
L 406.70132 129.075663 
L 406.999716 129.469776 
L 407.298112 129.376064 
L 407.596507 129.002378 
L 407.894903 129.031508 
L 408.491695 128.839035 
L 408.79009 128.245778 
L 409.088486 128.814183 
L 409.386882 128.826568 
L 409.685277 128.56749 
L 409.983673 128.927847 
L 410.282069 129.097931 
L 410.580465 128.994362 
L 410.87886 129.273158 
L 411.177256 128.838646 
L 411.475652 128.999002 
L 411.774047 128.377869 
L 412.072443 128.440455 
L 412.370839 129.010179 
L 412.669235 128.580631 
L 412.96763 129.050767 
L 413.266026 128.845646 
L 413.564422 129.086807 
L 414.161213 129.15741 
L 414.459609 129.5106 
L 414.758005 128.575541 
L 415.354796 128.760225 
L 415.653192 129.086237 
L 416.249983 128.731246 
L 416.846775 129.323534 
L 417.14517 128.882291 
L 417.443566 129.199844 
L 417.741962 129.260641 
L 418.040358 129.715386 
L 418.338753 129.606151 
L 418.637149 129.301528 
L 418.935545 129.802307 
L 419.233941 129.950324 
L 419.532336 129.699864 
L 419.830732 129.874097 
L 420.129128 129.799927 
L 420.427523 130.122401 
L 420.725919 130.100335 
L 421.024315 129.822963 
L 421.919502 129.595272 
L 422.217898 129.9061 
L 422.814689 130.102403 
L 423.113085 129.877028 
L 423.411481 129.822044 
L 423.709876 130.242333 
L 424.008272 129.830423 
L 424.605064 129.706848 
L 424.903459 130.056645 
L 425.500251 129.658311 
L 425.798646 129.922129 
L 426.097042 129.511503 
L 426.395438 129.799767 
L 426.992229 129.697311 
L 427.290625 129.698124 
L 427.589021 130.046745 
L 427.887416 129.713902 
L 428.185812 129.811349 
L 428.484208 130.063575 
L 428.782604 129.193286 
L 429.080999 129.724635 
L 429.379395 129.657031 
L 429.677791 129.248464 
L 429.976186 129.568345 
L 430.274582 129.219842 
L 430.572978 129.909134 
L 430.871374 129.257718 
L 431.169769 129.274771 
L 431.468165 129.128446 
L 431.766561 129.49554 
L 432.064957 129.473543 
L 432.363352 129.575969 
L 432.960144 129.300355 
L 433.556935 128.870192 
L 434.153727 129.004234 
L 434.452122 128.737137 
L 434.750518 129.50202 
L 435.048914 129.2725 
L 435.347309 129.694257 
L 435.944101 129.29811 
L 436.242497 129.580447 
L 436.540892 129.122254 
L 436.839288 129.78399 
L 437.137684 129.300112 
L 437.43608 129.313821 
L 437.734475 128.890595 
L 438.032871 129.019493 
L 438.331267 129.438576 
L 438.629662 129.237903 
L 438.928058 129.726783 
L 439.226454 128.955365 
L 439.52485 129.385717 
L 439.823245 129.172345 
L 440.121641 129.462424 
L 440.718432 128.807651 
L 441.016828 129.433521 
L 441.315224 129.657752 
L 441.61362 129.521103 
L 441.912015 129.649701 
L 442.210411 130.221773 
L 442.807203 129.944898 
L 443.403994 129.363485 
L 443.70239 129.732546 
L 444.000785 129.706345 
L 444.299181 130.18155 
L 444.597577 129.130463 
L 444.895973 129.499494 
L 445.492764 129.123866 
L 445.79116 129.637462 
L 446.089555 129.442032 
L 446.387951 129.511014 
L 446.984743 129.058644 
L 447.283138 129.60906 
L 447.87993 129.497795 
L 448.178326 129.797556 
L 448.476721 129.384087 
L 448.775117 129.356319 
L 449.073513 129.781112 
L 449.9687 129.27109 
L 450.565491 128.989895 
L 451.162283 129.062661 
L 451.460678 128.85382 
L 451.759074 129.446803 
L 452.05747 128.935977 
L 452.355866 129.123099 
L 452.654261 129.496972 
L 452.952657 129.571477 
L 453.251053 129.448486 
L 453.549449 129.524786 
L 453.847844 129.226414 
L 454.14624 129.211072 
L 454.444636 128.875025 
L 455.041427 128.952538 
L 455.339823 129.462962 
L 455.936614 128.496338 
L 456.23501 129.54042 
L 456.831801 128.991579 
L 457.130197 129.523479 
L 457.428593 129.606585 
L 457.726989 129.064465 
L 458.32378 129.514023 
L 458.622176 129.579943 
L 458.920572 129.492179 
L 459.218967 129.261606 
L 459.517363 129.510614 
L 459.815759 129.445875 
L 460.114154 129.803308 
L 460.41255 129.184501 
L 460.710946 129.379273 
L 461.009342 129.355883 
L 461.307737 129.889387 
L 461.606133 129.523718 
L 461.904529 129.38543 
L 462.50132 129.336524 
L 462.799716 129.622795 
L 463.098112 129.359805 
L 463.396507 129.582036 
L 463.694903 129.511781 
L 463.993299 129.21919 
L 464.291695 129.682594 
L 464.59009 129.575525 
L 464.888486 129.732211 
L 465.186882 129.452428 
L 465.485277 129.57343 
L 465.783673 129.343953 
L 466.380465 129.836596 
L 466.67886 129.896478 
L 467.275652 129.396517 
L 467.574047 129.840954 
L 467.872443 129.315289 
L 468.170839 129.479751 
L 468.469235 129.788044 
L 468.76763 129.379115 
L 469.066026 129.464909 
L 469.364422 129.72964 
L 469.662818 129.020022 
L 469.961213 129.199585 
L 470.558005 129.304889 
L 470.8564 129.139614 
L 471.154796 129.280327 
L 471.453192 128.851629 
L 471.751588 129.392385 
L 472.049983 129.306136 
L 472.348379 129.432736 
L 472.646775 129.292222 
L 472.94517 129.882478 
L 473.541962 129.442961 
L 473.840358 129.709876 
L 474.437149 129.479887 
L 474.735545 129.937817 
L 475.033941 129.6404 
L 475.332336 129.128633 
L 475.630732 129.435908 
L 475.929128 129.31177 
L 476.227523 128.821428 
L 476.525919 129.516342 
L 476.824315 129.079846 
L 477.122711 129.725581 
L 477.421106 129.960516 
L 477.719502 129.695112 
L 478.017898 129.865406 
L 478.614689 129.467901 
L 478.913085 129.835513 
L 479.211481 129.45184 
L 480.106668 129.868273 
L 480.405064 129.624646 
L 480.703459 130.040334 
L 481.300251 130.172623 
L 481.598646 129.724317 
L 481.897042 129.865639 
L 482.195438 130.188866 
L 482.493834 129.740526 
L 482.792229 129.6303 
L 483.090625 130.437957 
L 483.687416 129.984182 
L 483.985812 130.249862 
L 484.582604 129.815413 
L 485.179395 129.99769 
L 485.477791 129.801395 
L 485.776186 129.998155 
L 486.074582 129.816605 
L 486.372978 129.828816 
L 486.671374 129.967745 
L 486.969769 129.530592 
L 487.268165 129.760931 
L 487.566561 129.556921 
L 487.864957 130.348207 
L 488.163352 130.70572 
L 488.461748 129.450114 
L 488.760144 129.926243 
L 489.058539 129.676824 
L 489.356935 129.984201 
L 489.655331 129.713325 
L 489.953727 130.18868 
L 490.252122 130.127643 
L 490.550518 129.717947 
L 490.848914 129.963325 
L 491.147309 129.994539 
L 491.445705 129.875418 
L 491.744101 129.925317 
L 492.042497 130.363943 
L 492.639288 129.751468 
L 492.937684 129.893227 
L 493.534475 129.748545 
L 493.832871 129.946448 
L 494.131267 129.83901 
L 494.429662 129.419426 
L 494.728058 129.424183 
L 495.026454 130.136087 
L 495.32485 129.759768 
L 495.623245 130.017333 
L 495.921641 129.576246 
L 496.220037 129.96932 
L 496.518432 129.440286 
L 496.816828 129.690048 
L 497.115224 130.100448 
L 497.41362 129.791428 
L 497.712015 129.967481 
L 498.010411 129.94543 
L 498.607203 130.352642 
L 499.203994 129.894532 
L 499.50239 130.272412 
L 499.800785 130.359727 
L 500.099181 130.290731 
L 500.397577 130.448816 
L 500.695973 130.069052 
L 501.292764 130.289215 
L 501.59116 130.070962 
L 501.889555 130.242757 
L 502.187951 130.058044 
L 502.486347 130.358225 
L 502.784743 129.982377 
L 503.381534 130.052075 
L 503.978326 129.500457 
L 504.276721 130.502013 
L 504.575117 129.99777 
L 505.171908 129.66346 
L 505.470304 129.654681 
L 505.7687 129.876855 
L 506.365491 130.056785 
L 506.663887 129.903017 
L 506.962283 129.989356 
L 507.260678 129.72271 
L 507.559074 130.420184 
L 507.85747 130.168323 
L 508.155866 130.513852 
L 508.454261 129.931979 
L 508.752657 130.543259 
L 509.051053 130.324122 
L 509.349449 130.274369 
L 509.647844 129.716758 
L 509.94624 129.947767 
L 510.543031 129.907772 
L 510.841427 130.187832 
L 511.438219 130.009947 
L 511.736614 129.959176 
L 512.03501 130.128845 
L 513.228593 129.855749 
L 513.526989 129.953296 
L 513.825384 129.875475 
L 514.12378 130.23878 
L 514.720572 129.929678 
L 515.317363 130.216301 
L 515.615759 130.51656 
L 515.914154 130.115561 
L 516.21255 129.944862 
L 516.510946 130.249304 
L 516.809342 130.062954 
L 517.406133 130.15239 
L 517.704529 130.516736 
L 518.30132 130.374908 
L 518.599716 130.604817 
L 518.898112 130.479651 
L 519.196507 130.810025 
L 519.494903 130.310741 
L 519.793299 130.799782 
L 520.091695 130.849729 
L 520.39009 130.317247 
L 520.986882 130.516741 
L 521.285277 130.275585 
L 521.583673 130.291907 
L 522.180465 129.935586 
L 522.47886 129.705002 
L 522.777256 129.968654 
L 523.075652 129.900032 
L 523.374047 130.111113 
L 523.672443 129.865407 
L 523.970839 129.931219 
L 524.269235 130.139007 
L 524.56763 129.856051 
L 524.866026 129.903933 
L 525.164422 130.170677 
L 525.761213 129.593155 
L 526.059609 130.266506 
L 526.358005 129.906515 
L 526.6564 130.225397 
L 526.954796 129.840535 
L 527.253192 130.07707 
L 527.551588 130.139934 
L 527.849983 129.53315 
L 528.148379 129.581369 
L 528.446775 130.091385 
L 529.043566 130.39865 
L 529.341962 130.281634 
L 529.640358 130.462478 
L 530.237149 129.882831 
L 530.535545 130.29118 
L 530.833941 130.192206 
L 531.132336 129.954249 
L 531.729128 130.526409 
L 532.325919 130.024417 
L 532.624315 130.510948 
L 533.221106 130.575007 
L 533.519502 130.507783 
L 533.817898 130.24699 
L 534.116293 130.265493 
L 534.414689 130.477993 
L 534.713085 130.378056 
L 535.011481 130.138071 
L 536.205064 130.183653 
L 536.503459 129.371924 
L 536.801855 129.37723 
L 537.100251 129.238581 
L 537.398646 129.848817 
L 537.697042 129.320916 
L 538.293834 130.346846 
L 538.592229 129.741806 
L 538.890625 129.747333 
L 539.189021 129.569302 
L 539.487416 129.976657 
L 539.785812 129.580482 
L 540.382604 129.630947 
L 540.680999 129.124811 
L 540.979395 129.749459 
L 541.277791 129.352507 
L 541.874582 129.435989 
L 542.172978 129.645588 
L 542.471374 129.217707 
L 542.769769 129.459766 
L 543.068165 129.325309 
L 543.366561 129.507689 
L 543.664957 129.505483 
L 543.963352 129.650807 
L 544.261748 129.1473 
L 544.560144 129.414349 
L 544.858539 129.233745 
L 545.156935 129.62114 
L 545.455331 129.205077 
L 545.753727 129.964109 
L 546.052122 129.676834 
L 546.350518 129.994424 
L 547.245705 129.971718 
L 547.544101 129.643 
L 547.842497 130.14189 
L 548.140892 129.28967 
L 548.737684 130.194342 
L 549.334475 129.370981 
L 549.931267 129.687996 
L 550.229662 130.315318 
L 550.528058 129.993432 
L 550.826454 129.973416 
L 551.12485 129.345928 
L 551.423245 129.826678 
L 551.721641 129.918547 
L 552.020037 129.735927 
L 552.318432 129.950543 
L 552.616828 129.775137 
L 552.915224 130.138228 
L 553.512015 129.993206 
L 553.810411 130.037026 
L 554.108807 129.676673 
L 554.407203 130.012923 
L 554.705598 129.968165 
L 555.003994 129.519359 
L 555.30239 129.442734 
L 555.899181 129.888315 
L 556.197577 129.246611 
L 556.495973 129.463434 
L 556.794368 129.42309 
L 557.092764 129.937439 
L 557.689555 129.920235 
L 557.987951 129.509941 
L 558.286347 130.006985 
L 558.584743 129.643469 
L 559.47993 130.196112 
L 559.778326 129.685273 
L 560.375117 129.976608 
L 560.673513 129.464967 
L 560.971908 129.737233 
L 561.5687 129.861719 
L 561.867096 129.664028 
L 562.165491 129.754975 
L 562.463887 130.041056 
L 562.762283 129.646011 
L 563.060678 129.957329 
L 563.359074 129.916543 
L 563.955866 130.125487 
L 564.254261 129.865277 
L 564.552657 130.002475 
L 564.851053 129.894204 
L 565.149449 129.492841 
L 565.447844 129.431343 
L 565.74624 129.667043 
L 566.044636 129.670024 
L 566.343031 129.328093 
L 566.641427 129.688982 
L 566.939823 129.687974 
L 567.238219 129.538604 
L 567.536614 129.769798 
L 567.83501 129.761666 
L 568.133406 129.990004 
L 568.431801 129.401124 
L 568.730197 129.86412 
L 569.625384 129.446086 
L 569.92378 129.67754 
L 570.222176 130.070999 
L 570.520572 129.786346 
L 570.818967 129.698637 
L 571.117363 129.402492 
L 571.415759 129.997671 
L 571.714154 129.620257 
L 572.01255 129.86406 
L 572.310946 129.941256 
L 572.609342 130.185578 
L 572.907737 130.015004 
L 573.206133 130.136425 
L 573.504529 129.805566 
L 573.802924 129.773396 
L 574.10132 129.910437 
L 574.399716 130.36057 
L 574.698112 130.060843 
L 574.996507 130.029431 
L 575.294903 129.837197 
L 575.593299 130.065819 
L 575.891695 130.138698 
L 576.488486 129.854661 
L 576.786882 129.901732 
L 577.085277 129.749885 
L 577.383673 130.04958 
L 577.682069 129.852055 
L 578.27886 129.75108 
L 578.577256 130.098498 
L 579.174047 130.327073 
L 579.472443 130.014289 
L 579.770839 129.992794 
L 580.069235 129.711087 
L 580.36763 130.504402 
L 580.666026 129.926739 
L 580.964422 130.502778 
L 581.561213 130.191619 
L 581.859609 130.301014 
L 582.158005 130.560973 
L 582.4564 130.32816 
L 582.754796 131.026182 
L 583.351588 130.142439 
L 583.649983 130.453694 
L 583.948379 130.366937 
L 584.246775 130.452992 
L 584.54517 129.757263 
L 584.843566 129.638435 
L 585.141962 129.867173 
L 585.440358 130.712006 
L 585.738753 130.721839 
L 586.335545 130.344202 
L 586.633941 130.458389 
L 586.932336 130.013942 
L 587.230732 130.336517 
L 587.529128 130.422266 
L 587.827523 130.219149 
L 588.125919 130.413966 
L 588.424315 130.100774 
L 588.722711 130.276927 
L 589.319502 130.897638 
L 589.617898 130.518907 
L 589.916293 130.753962 
L 590.214689 130.157476 
L 590.513085 130.084419 
L 590.811481 130.830762 
L 591.408272 130.213425 
L 591.706668 130.672204 
L 592.005064 130.32692 
L 592.303459 130.80796 
L 592.900251 130.393164 
L 593.198646 130.327747 
L 593.497042 130.071959 
L 593.795438 130.332992 
L 594.093834 130.251132 
L 594.392229 130.295532 
L 594.690625 130.785195 
L 595.287416 130.204197 
L 595.884208 130.180023 
L 596.480999 129.793333 
L 597.077791 130.542689 
L 597.674582 129.786181 
L 598.271374 130.284327 
L 598.569769 129.881315 
L 598.868165 129.920437 
L 599.464957 130.265978 
L 600.061748 130.118479 
L 600.360144 130.448301 
L 600.658539 130.28406 
L 600.956935 130.488101 
L 601.255331 129.822612 
L 601.553727 130.034821 
L 601.852122 129.940008 
L 602.150518 130.10117 
L 602.448914 130.118262 
L 602.747309 129.657838 
L 603.045705 129.974765 
L 603.642497 129.765674 
L 603.940892 130.010405 
L 604.239288 130.563369 
L 604.537684 130.350073 
L 604.83608 129.659354 
L 605.134475 130.130414 
L 605.432871 129.815835 
L 605.731267 129.80407 
L 606.029662 130.225267 
L 606.328058 130.219813 
L 606.626454 130.46421 
L 606.92485 129.990708 
L 607.223245 130.069737 
L 607.521641 130.029542 
L 607.820037 130.230316 
L 608.118432 130.205194 
L 608.416828 129.784417 
L 609.01362 130.107159 
L 609.312015 129.662996 
L 609.610411 129.965926 
L 609.908807 129.646569 
L 610.207203 129.897376 
L 610.505598 129.526818 
L 610.803994 129.937127 
L 611.10239 129.305825 
L 611.400785 129.665387 
L 611.997577 129.729034 
L 612.295973 129.234923 
L 612.594368 129.256892 
L 612.892764 129.684833 
L 613.19116 129.446582 
L 613.489555 129.760597 
L 614.086347 129.581336 
L 614.384743 129.725355 
L 614.683138 129.622515 
L 615.578326 130.120267 
L 615.876721 130.086405 
L 616.175117 129.650392 
L 616.473513 130.001785 
L 616.771908 129.577023 
L 617.070304 129.594431 
L 617.3687 130.024853 
L 617.965491 130.190573 
L 618.263887 129.793445 
L 618.562283 130.336676 
L 618.860678 129.820627 
L 619.159074 130.081205 
L 619.45747 129.924682 
L 619.755866 130.04112 
L 620.054261 129.630124 
L 620.352657 129.699259 
L 620.651053 130.290813 
L 620.949449 130.264615 
L 621.247844 130.420365 
L 621.54624 129.846612 
L 621.844636 130.24051 
L 622.143031 129.972123 
L 623.038219 129.985358 
L 623.336614 129.440801 
L 623.63501 129.702363 
L 623.933406 129.753461 
L 624.231801 130.189816 
L 624.530197 129.657687 
L 624.828593 129.846293 
L 625.126989 129.507312 
L 625.126989 129.507312 
" clip-path="url(#p840e09fed4)" style="fill: none; stroke: #1f77b4; stroke-width: 1.5; stroke-linecap: square"/>
   </g>
   <g id="line2d_15">
    <path d="M 117.854261 296.03625 
L 118.451053 214.115786 
L 118.749449 230.211874 
L 119.047844 218.599268 
L 119.34624 201.279694 
L 119.644636 204.535087 
L 119.943031 177.439579 
L 120.241427 178.201539 
L 120.539823 178.387096 
L 120.838219 192.048813 
L 121.136614 174.811641 
L 121.43501 173.893449 
L 121.733406 172.251017 
L 122.031801 166.690114 
L 122.330197 165.151511 
L 122.628593 167.933912 
L 122.926989 161.328426 
L 123.225384 164.204354 
L 123.52378 153.408818 
L 123.822176 156.496962 
L 124.418967 141.56019 
L 124.717363 150.693481 
L 125.015759 143.469704 
L 125.314154 147.780062 
L 125.61255 149.479849 
L 125.910946 140.208749 
L 126.209342 138.160794 
L 126.507737 138.65618 
L 126.806133 140.776186 
L 127.104529 140.215124 
L 127.402924 138.391512 
L 127.70132 140.082936 
L 127.999716 140.228622 
L 128.596507 141.201404 
L 128.894903 139.392105 
L 129.193299 138.851676 
L 129.491695 139.384558 
L 130.088486 142.600893 
L 130.386882 135.421926 
L 130.685277 138.496197 
L 130.983673 137.892038 
L 131.580465 136.234525 
L 131.87886 136.311622 
L 132.177256 135.915689 
L 132.475652 136.605064 
L 133.072443 133.797282 
L 133.669235 135.471295 
L 133.96763 135.576047 
L 134.564422 136.853589 
L 134.862818 136.368541 
L 135.161213 134.730041 
L 135.459609 135.079856 
L 135.758005 134.857729 
L 136.0564 135.928269 
L 136.354796 135.902864 
L 136.653192 135.479767 
L 136.951588 136.290746 
L 137.548379 134.739593 
L 137.846775 134.136329 
L 138.14517 135.905185 
L 138.443566 134.292529 
L 138.741962 133.586184 
L 139.040358 134.703917 
L 139.338753 134.803726 
L 139.637149 133.847583 
L 139.935545 133.400648 
L 140.233941 134.508056 
L 140.532336 134.677574 
L 140.830732 133.207451 
L 141.129128 133.966004 
L 141.427523 133.320137 
L 141.725919 133.888563 
L 142.024315 133.800353 
L 142.322711 134.327242 
L 142.621106 133.302039 
L 142.919502 133.276394 
L 143.814689 133.938771 
L 144.113085 134.482109 
L 144.411481 133.800864 
L 144.709876 133.419586 
L 145.008272 133.970658 
L 145.605064 133.536974 
L 146.201855 132.734868 
L 146.500251 133.151006 
L 146.798646 133.268245 
L 147.097042 133.664162 
L 147.395438 132.938008 
L 147.693834 133.474141 
L 147.992229 133.107742 
L 148.290625 133.13171 
L 148.589021 133.333721 
L 148.887416 133.905861 
L 149.185812 133.8752 
L 149.484208 133.058296 
L 149.782604 132.906614 
L 150.080999 133.401837 
L 150.379395 132.611227 
L 150.976186 133.527885 
L 151.274582 132.677103 
L 151.572978 133.470667 
L 151.871374 133.101942 
L 152.169769 132.407692 
L 152.468165 132.923927 
L 153.064957 133.133008 
L 153.363352 132.127532 
L 153.661748 132.148788 
L 153.960144 132.723923 
L 154.258539 132.550499 
L 154.855331 132.725377 
L 155.153727 132.730674 
L 155.452122 132.97607 
L 156.048914 131.981124 
L 156.347309 132.270329 
L 156.645705 132.740458 
L 156.944101 132.811208 
L 157.242497 133.022354 
L 157.540892 132.379132 
L 157.839288 132.85824 
L 158.137684 132.55696 
L 158.43608 132.710993 
L 159.032871 132.46765 
L 159.629662 132.807079 
L 160.226454 132.440168 
L 160.52485 132.202275 
L 160.823245 132.521364 
L 161.121641 133.040405 
L 161.420037 132.525261 
L 161.718432 132.330627 
L 162.016828 131.793893 
L 162.315224 132.032172 
L 162.61362 131.869341 
L 162.912015 131.536319 
L 163.210411 131.891923 
L 163.508807 131.570927 
L 164.105598 132.442361 
L 164.403994 132.353453 
L 164.70239 131.994056 
L 165.000785 132.252207 
L 165.299181 132.03052 
L 165.597577 132.59314 
L 165.895973 132.12911 
L 166.194368 133.529531 
L 166.492764 132.898776 
L 166.79116 131.845893 
L 167.089555 132.623624 
L 167.387951 132.22945 
L 167.686347 132.143768 
L 167.984743 132.356335 
L 168.283138 131.998474 
L 168.581534 132.373811 
L 168.87993 132.069205 
L 169.178326 132.132424 
L 169.476721 132.017815 
L 169.775117 132.31129 
L 170.073513 132.154329 
L 170.371908 132.182232 
L 170.670304 132.54397 
L 170.9687 132.546299 
L 171.267096 132.055983 
L 171.565491 132.3148 
L 171.863887 131.939997 
L 172.460678 132.088832 
L 172.759074 132.0281 
L 173.05747 132.726062 
L 173.355866 132.686055 
L 173.654261 132.429676 
L 173.952657 131.888833 
L 174.251053 132.689105 
L 174.549449 131.980631 
L 175.14624 132.405713 
L 175.444636 132.911299 
L 175.743031 132.242697 
L 176.638219 133.309819 
L 176.936614 132.617213 
L 177.23501 132.793237 
L 177.533406 133.184172 
L 178.130197 132.476888 
L 178.726989 132.775752 
L 179.025384 132.19803 
L 179.32378 133.001959 
L 179.920572 132.281968 
L 180.218967 132.615187 
L 180.517363 132.264056 
L 180.815759 132.511456 
L 181.114154 132.562455 
L 181.41255 132.196387 
L 182.307737 132.625033 
L 183.202924 132.23886 
L 183.50132 132.926132 
L 183.799716 132.622763 
L 184.098112 132.725486 
L 184.396507 134.327361 
L 184.694903 131.88328 
L 184.993299 132.567378 
L 185.291695 132.624808 
L 185.59009 132.867478 
L 185.888486 132.078352 
L 186.186882 132.298725 
L 186.485277 132.375235 
L 186.783673 132.899031 
L 187.082069 132.299455 
L 187.67886 132.698965 
L 187.977256 132.749106 
L 188.275652 132.572047 
L 188.574047 132.735333 
L 188.872443 132.501331 
L 189.170839 132.445749 
L 189.469235 132.800844 
L 190.066026 132.528069 
L 190.364422 133.418649 
L 190.662818 132.304059 
L 190.961213 132.693067 
L 191.259609 132.084031 
L 191.558005 132.523896 
L 191.8564 132.600118 
L 192.453192 133.298588 
L 192.751588 132.386039 
L 193.348379 133.19902 
L 193.646775 132.739007 
L 193.94517 133.198867 
L 194.243566 132.736262 
L 194.541962 133.412287 
L 194.840358 132.808439 
L 195.138753 132.475197 
L 195.437149 132.640403 
L 195.735545 132.634424 
L 196.033941 133.023913 
L 196.332336 132.313796 
L 196.630732 133.014596 
L 197.227523 132.310629 
L 197.525919 132.751505 
L 197.824315 132.027011 
L 198.122711 132.637068 
L 198.421106 131.997341 
L 198.719502 132.65365 
L 199.316293 132.254952 
L 199.614689 133.166727 
L 199.913085 133.161044 
L 200.211481 132.868057 
L 200.808272 132.715886 
L 201.106668 133.313758 
L 201.405064 133.259094 
L 201.703459 132.374664 
L 202.001855 132.370019 
L 202.300251 133.122317 
L 202.897042 132.516071 
L 203.195438 132.596273 
L 203.493834 134.212614 
L 203.792229 132.868127 
L 204.389021 133.448304 
L 204.687416 132.497697 
L 204.985812 132.84084 
L 205.284208 132.998419 
L 205.880999 132.979176 
L 206.179395 133.124053 
L 206.477791 132.775361 
L 206.776186 133.26447 
L 207.074582 133.447651 
L 207.372978 132.831682 
L 207.671374 132.643544 
L 207.969769 132.71595 
L 208.268165 133.071013 
L 208.566561 133.205481 
L 209.163352 133.018732 
L 209.760144 133.212742 
L 210.058539 133.070536 
L 210.356935 132.7111 
L 210.655331 132.619717 
L 211.252122 132.757311 
L 211.550518 132.287485 
L 211.848914 132.917935 
L 212.147309 132.7582 
L 212.445705 132.74229 
L 212.744101 133.203917 
L 213.042497 132.704265 
L 213.340892 132.688085 
L 213.639288 133.394741 
L 214.23608 132.715876 
L 214.534475 132.583073 
L 214.832871 133.363201 
L 215.131267 133.218542 
L 215.429662 133.327864 
L 216.026454 133.046398 
L 216.623245 132.391266 
L 216.921641 132.746404 
L 217.518432 132.579992 
L 217.816828 133.6675 
L 218.115224 133.153177 
L 218.41362 131.871708 
L 218.712015 132.866669 
L 219.308807 132.529901 
L 219.607203 131.081888 
L 219.905598 132.932414 
L 220.203994 132.085451 
L 220.50239 132.760385 
L 220.800785 132.146346 
L 221.099181 132.88974 
L 221.397577 132.563737 
L 221.994368 133.365032 
L 222.292764 132.478084 
L 222.59116 132.902677 
L 222.889555 132.039826 
L 223.187951 132.423971 
L 223.486347 131.618577 
L 223.784743 132.19232 
L 224.083138 132.203069 
L 224.381534 132.514157 
L 224.67993 131.714142 
L 224.978326 131.917348 
L 225.276721 132.424369 
L 225.873513 132.100815 
L 226.470304 132.229428 
L 226.7687 132.13933 
L 227.067096 132.49344 
L 227.365491 132.105242 
L 227.663887 132.713502 
L 227.962283 132.33379 
L 228.260678 132.39439 
L 228.559074 132.209234 
L 228.85747 132.594199 
L 229.155866 132.673185 
L 229.454261 132.636544 
L 229.752657 132.045622 
L 230.051053 132.008696 
L 230.349449 132.296281 
L 230.647844 132.24379 
L 230.94624 132.629577 
L 231.244636 132.472327 
L 231.543031 132.670994 
L 231.841427 132.354122 
L 232.139823 132.323109 
L 232.438219 132.050248 
L 232.736614 132.447097 
L 233.03501 132.604512 
L 233.333406 132.27953 
L 233.631801 132.520756 
L 233.930197 132.360568 
L 234.228593 132.645127 
L 234.526989 132.133955 
L 234.825384 132.289025 
L 235.12378 132.21375 
L 235.422176 132.499823 
L 235.720572 132.318607 
L 236.018967 132.631839 
L 236.317363 132.517404 
L 236.615759 132.130841 
L 237.510946 132.7143 
L 237.809342 132.746425 
L 239.002924 132.34459 
L 239.30132 132.324889 
L 239.898112 132.673226 
L 240.196507 132.289639 
L 240.793299 132.640017 
L 241.091695 132.315031 
L 241.688486 132.864238 
L 242.285277 132.427692 
L 242.583673 132.489386 
L 242.882069 132.695802 
L 243.180465 132.442031 
L 243.47886 132.444117 
L 243.777256 132.791402 
L 244.075652 132.49101 
L 244.374047 132.756234 
L 244.672443 132.738034 
L 244.970839 133.154523 
L 245.269235 132.749366 
L 245.56763 132.783611 
L 245.866026 132.704427 
L 246.164422 132.845462 
L 246.761213 132.135485 
L 247.059609 132.562593 
L 248.551588 132.575102 
L 248.849983 132.82337 
L 249.148379 132.520394 
L 249.446775 132.787151 
L 249.74517 132.848905 
L 250.043566 132.732427 
L 250.640358 132.34149 
L 250.938753 132.569255 
L 251.237149 132.546035 
L 251.535545 132.382392 
L 251.833941 132.401055 
L 252.132336 132.942796 
L 252.430732 132.836618 
L 252.729128 132.045046 
L 253.027523 132.712118 
L 253.624315 132.370883 
L 254.519502 132.068622 
L 254.817898 132.852751 
L 255.116293 132.256039 
L 255.713085 132.592666 
L 256.011481 132.348413 
L 256.309876 132.303566 
L 256.608272 132.914314 
L 256.906668 132.387026 
L 257.205064 132.243224 
L 257.503459 132.85367 
L 258.398646 132.076505 
L 258.995438 132.539537 
L 259.293834 132.486669 
L 259.592229 132.644096 
L 260.487416 132.471121 
L 260.785812 132.113016 
L 261.084208 132.344418 
L 261.382604 132.339665 
L 261.979395 132.715247 
L 262.277791 133.01542 
L 262.576186 132.548661 
L 262.874582 132.326819 
L 263.172978 131.941895 
L 263.471374 132.629059 
L 263.769769 132.41616 
L 264.068165 132.777514 
L 264.366561 132.625445 
L 264.664957 132.205738 
L 264.963352 132.573852 
L 265.261748 132.351475 
L 265.560144 132.738733 
L 265.858539 132.609102 
L 266.156935 132.661179 
L 266.455331 132.248434 
L 266.753727 132.676072 
L 267.052122 132.574415 
L 267.350518 132.616665 
L 267.648914 132.074958 
L 267.947309 132.590863 
L 268.245705 132.401085 
L 268.544101 132.366064 
L 269.140892 132.649835 
L 269.439288 131.936974 
L 269.737684 132.337399 
L 270.03608 132.525656 
L 270.334475 132.230222 
L 270.931267 132.167707 
L 271.229662 132.493532 
L 271.528058 132.462083 
L 272.12485 132.110215 
L 272.423245 132.661394 
L 272.721641 132.257731 
L 273.020037 132.707855 
L 273.616828 132.689304 
L 273.915224 132.23817 
L 274.21362 132.636134 
L 274.512015 132.398538 
L 274.810411 131.929444 
L 275.407203 132.252696 
L 275.705598 132.351063 
L 276.003994 132.641152 
L 276.30239 131.990749 
L 276.600785 132.540849 
L 276.899181 131.671488 
L 277.495973 132.12717 
L 277.794368 132.034189 
L 278.39116 132.369767 
L 278.689555 131.803189 
L 279.286347 132.095206 
L 279.584743 132.051681 
L 279.883138 132.303661 
L 280.778326 132.161085 
L 281.076721 131.967513 
L 281.375117 132.354161 
L 281.673513 131.975016 
L 281.971908 132.182796 
L 282.270304 132.544544 
L 282.5687 131.972249 
L 283.165491 131.915321 
L 283.463887 132.331115 
L 284.060678 131.816527 
L 284.359074 132.304512 
L 284.65747 132.377821 
L 284.955866 132.626734 
L 285.254261 131.688815 
L 285.552657 131.714281 
L 285.851053 131.614019 
L 286.149449 132.079389 
L 286.447844 132.188325 
L 286.74624 132.439305 
L 287.044636 131.979743 
L 287.343031 132.116415 
L 287.641427 132.016496 
L 287.939823 131.69748 
L 288.536614 131.803803 
L 288.83501 132.211845 
L 289.431801 131.57137 
L 290.028593 131.918404 
L 290.92378 131.558009 
L 291.222176 132.026717 
L 291.520572 131.699965 
L 291.818967 131.870529 
L 292.117363 131.543193 
L 292.415759 132.062371 
L 292.714154 131.957107 
L 293.01255 132.110093 
L 293.310946 132.470885 
L 293.609342 131.054369 
L 293.907737 131.723853 
L 294.206133 131.715947 
L 294.504529 132.028528 
L 295.10132 131.659274 
L 295.399716 132.247391 
L 295.698112 131.672925 
L 295.996507 131.597974 
L 296.294903 131.732283 
L 296.593299 131.699916 
L 297.19009 131.758162 
L 297.488486 131.795467 
L 297.786882 131.673372 
L 298.085277 131.809686 
L 298.682069 131.494584 
L 298.980465 131.954713 
L 299.577256 131.584319 
L 299.875652 131.833002 
L 300.472443 131.703295 
L 300.770839 131.677965 
L 301.069235 131.992524 
L 301.36763 131.968231 
L 301.666026 131.450183 
L 301.964422 131.479969 
L 302.262818 131.844268 
L 303.158005 132.008511 
L 303.754796 131.492316 
L 304.053192 131.757611 
L 304.649983 131.993016 
L 304.948379 131.637031 
L 305.246775 131.938927 
L 305.54517 131.774237 
L 305.843566 131.964773 
L 306.440358 131.895405 
L 306.738753 131.948727 
L 307.037149 131.515204 
L 307.633941 132.207389 
L 307.932336 131.735948 
L 308.230732 132.070266 
L 308.529128 131.860781 
L 308.827523 132.190618 
L 310.617898 131.559104 
L 310.916293 131.671975 
L 311.214689 131.950997 
L 311.513085 131.896108 
L 311.811481 131.64032 
L 312.109876 131.933831 
L 312.706668 131.75569 
L 313.601855 132.094871 
L 313.900251 131.759928 
L 314.198646 132.166826 
L 314.497042 131.618161 
L 314.795438 131.561967 
L 315.093834 131.859707 
L 315.690625 132.088196 
L 315.989021 132.030596 
L 316.287416 131.648646 
L 316.585812 131.550221 
L 316.884208 131.971596 
L 317.182604 131.857384 
L 317.480999 131.878065 
L 318.077791 131.605734 
L 318.376186 131.69852 
L 318.674582 131.660687 
L 318.972978 131.775266 
L 319.271374 131.438046 
L 319.569769 131.552678 
L 319.868165 131.396635 
L 320.464957 131.83833 
L 320.763352 131.473621 
L 321.658539 131.920461 
L 321.956935 131.773751 
L 322.255331 132.306822 
L 322.553727 131.304828 
L 322.852122 131.778464 
L 323.150518 131.538824 
L 323.448914 131.763851 
L 323.747309 131.714413 
L 324.045705 131.429222 
L 324.344101 131.819786 
L 324.642497 131.845981 
L 324.940892 131.56035 
L 325.537684 132.002589 
L 325.83608 131.722383 
L 326.731267 131.521583 
L 327.029662 131.46646 
L 327.626454 131.50372 
L 327.92485 131.938737 
L 328.223245 131.92355 
L 328.521641 132.035225 
L 329.118432 131.24189 
L 329.416828 131.710644 
L 329.715224 131.549152 
L 330.01362 131.866717 
L 330.312015 131.670899 
L 330.610411 132.145703 
L 330.908807 131.633061 
L 331.207203 132.025985 
L 331.505598 131.635501 
L 331.803994 131.846807 
L 332.10239 131.586124 
L 332.400785 131.59473 
L 332.699181 131.844681 
L 332.997577 131.914229 
L 333.295973 131.781952 
L 333.594368 131.862954 
L 333.892764 131.612892 
L 334.19116 132.049388 
L 334.787951 131.710847 
L 335.384743 131.814407 
L 336.578326 131.633862 
L 336.876721 131.919696 
L 337.175117 131.889533 
L 337.473513 131.308385 
L 337.771908 131.816644 
L 338.070304 131.87194 
L 338.3687 132.250742 
L 338.667096 131.864412 
L 338.965491 132.072855 
L 339.860678 131.621402 
L 340.159074 132.11461 
L 340.755866 131.885377 
L 341.054261 131.685562 
L 341.651053 132.014241 
L 341.949449 131.842992 
L 342.247844 131.883854 
L 342.54624 131.669728 
L 343.143031 132.134826 
L 343.441427 132.196674 
L 343.739823 131.534695 
L 344.038219 132.15809 
L 344.63501 131.824913 
L 344.933406 131.623415 
L 345.231801 131.993667 
L 345.530197 131.661674 
L 346.126989 131.780232 
L 346.425384 132.19422 
L 346.72378 131.92404 
L 347.022176 132.082007 
L 347.618967 131.905608 
L 347.917363 131.992586 
L 348.215759 131.585773 
L 348.514154 131.977195 
L 348.81255 131.712126 
L 349.409342 131.844544 
L 349.707737 131.698864 
L 350.006133 131.845577 
L 350.304529 131.667254 
L 350.602924 132.02546 
L 351.498112 131.764295 
L 352.094903 132.132961 
L 352.393299 132.054161 
L 352.691695 132.244216 
L 352.99009 132.261325 
L 353.288486 131.83644 
L 353.586882 132.054553 
L 353.885277 132.070764 
L 354.183673 131.745654 
L 354.482069 131.886346 
L 355.377256 131.744843 
L 355.675652 132.091431 
L 356.272443 131.787761 
L 356.570839 131.802511 
L 356.869235 131.600847 
L 357.764422 131.84851 
L 358.062818 131.834268 
L 358.361213 131.674467 
L 358.659609 132.130691 
L 359.2564 131.613253 
L 359.554796 132.004221 
L 359.853192 131.64069 
L 360.151588 131.919935 
L 360.449983 131.977815 
L 360.748379 131.861181 
L 361.046775 131.879449 
L 361.34517 132.129206 
L 361.643566 132.586272 
L 361.941962 132.397014 
L 362.240358 132.374833 
L 362.837149 131.922759 
L 363.732336 132.166175 
L 364.030732 131.987028 
L 364.329128 132.20129 
L 364.627523 131.900301 
L 364.925919 132.454928 
L 365.224315 131.965419 
L 366.716293 131.995658 
L 367.014689 131.694976 
L 367.313085 131.820483 
L 367.611481 132.268407 
L 367.909876 131.81003 
L 368.805064 132.331839 
L 369.103459 132.089079 
L 369.401855 132.156123 
L 369.998646 131.914557 
L 370.297042 131.779056 
L 370.595438 132.429212 
L 370.893834 132.035896 
L 371.192229 132.156378 
L 371.490625 131.920942 
L 371.789021 132.067177 
L 372.385812 131.7994 
L 372.684208 132.076494 
L 372.982604 131.892182 
L 373.280999 132.137919 
L 373.579395 131.956273 
L 374.474582 132.317842 
L 375.668165 132.052113 
L 375.966561 132.360091 
L 376.264957 132.15185 
L 376.563352 132.561835 
L 376.861748 132.520409 
L 377.160144 132.730541 
L 377.458539 132.36537 
L 378.652122 132.09182 
L 379.248914 132.482762 
L 379.547309 132.309271 
L 379.845705 131.982322 
L 380.144101 132.079422 
L 380.442497 131.983711 
L 380.740892 132.030987 
L 381.039288 132.357754 
L 381.337684 132.456726 
L 381.63608 132.059792 
L 381.934475 132.039161 
L 382.232871 132.164013 
L 382.531267 131.927215 
L 383.128058 132.157801 
L 383.426454 132.131282 
L 383.72485 132.28258 
L 384.023245 132.155762 
L 384.321641 132.3389 
L 384.918432 131.681194 
L 385.216828 132.035336 
L 386.112015 131.958351 
L 386.410411 131.752352 
L 386.708807 132.173254 
L 387.007203 132.027158 
L 387.305598 132.439215 
L 387.90239 132.032869 
L 388.200785 131.622207 
L 389.095973 132.280623 
L 390.289555 131.676886 
L 390.587951 132.106748 
L 391.483138 131.894944 
L 392.676721 131.958977 
L 392.975117 131.787778 
L 393.273513 132.011997 
L 393.571908 131.811797 
L 393.870304 131.811067 
L 394.1687 132.095896 
L 394.467096 131.912196 
L 394.765491 132.21161 
L 395.063887 131.908913 
L 395.362283 131.974276 
L 395.660678 131.662828 
L 395.959074 131.908525 
L 396.25747 131.913864 
L 396.555866 132.275485 
L 396.854261 131.415337 
L 397.152657 131.800467 
L 397.749449 131.534548 
L 398.34624 131.915864 
L 398.644636 131.623809 
L 398.943031 131.542614 
L 399.241427 132.145538 
L 399.539823 131.915697 
L 399.838219 131.830227 
L 400.136614 131.610366 
L 400.43501 131.577343 
L 400.733406 131.953042 
L 401.031801 131.941517 
L 401.330197 132.242704 
L 401.628593 131.788079 
L 401.926989 131.994276 
L 402.52378 131.956424 
L 402.822176 131.602818 
L 403.120572 131.628402 
L 403.418967 132.003848 
L 403.717363 131.951748 
L 404.015759 132.337541 
L 404.314154 131.763898 
L 405.507737 131.841793 
L 405.806133 132.12563 
L 406.402924 132.106456 
L 406.999716 131.921969 
L 407.298112 132.068573 
L 407.596507 131.907576 
L 408.193299 132.076438 
L 408.491695 131.905297 
L 408.79009 132.151423 
L 409.088486 132.214246 
L 409.386882 132.081507 
L 409.983673 132.124251 
L 410.282069 132.522862 
L 410.580465 132.314021 
L 411.177256 132.43381 
L 411.475652 131.838743 
L 411.774047 132.22191 
L 412.072443 132.196385 
L 412.370839 132.291652 
L 412.669235 131.910402 
L 413.266026 131.851582 
L 413.564422 132.088144 
L 414.459609 131.763961 
L 414.758005 132.008608 
L 415.0564 131.867423 
L 415.354796 131.968499 
L 415.653192 131.783698 
L 415.951588 132.018266 
L 416.249983 131.839266 
L 416.846775 132.113795 
L 417.14517 132.204907 
L 417.443566 131.847972 
L 417.741962 131.72808 
L 418.040358 131.877868 
L 418.338753 131.687886 
L 418.637149 132.052456 
L 419.233941 131.951519 
L 419.532336 132.070552 
L 419.830732 131.751878 
L 420.129128 131.796799 
L 420.427523 131.968814 
L 421.024315 131.916459 
L 421.322711 131.415957 
L 421.621106 131.630413 
L 421.919502 131.497864 
L 422.516293 131.955041 
L 422.814689 131.836435 
L 423.113085 131.895353 
L 423.411481 131.788212 
L 423.709876 132.161407 
L 424.008272 131.866419 
L 424.605064 131.699732 
L 424.903459 132.213766 
L 425.201855 131.728133 
L 425.500251 132.387442 
L 425.798646 131.771368 
L 426.395438 131.959422 
L 426.693834 131.776262 
L 426.992229 131.725607 
L 427.290625 131.864995 
L 428.185812 131.836825 
L 428.484208 131.542041 
L 428.782604 131.857837 
L 429.080999 131.815657 
L 429.379395 131.329548 
L 429.677791 131.696928 
L 429.976186 131.533836 
L 430.572978 132.006003 
L 430.871374 131.404012 
L 431.169769 131.777815 
L 431.468165 131.767231 
L 431.766561 131.398486 
L 432.064957 131.837332 
L 432.363352 131.576614 
L 432.661748 131.784697 
L 432.960144 131.822586 
L 433.258539 131.563991 
L 433.556935 131.753948 
L 433.855331 131.643732 
L 434.153727 131.711258 
L 434.452122 131.894859 
L 435.347309 131.652048 
L 435.645705 131.321052 
L 435.944101 131.612636 
L 436.540892 131.768802 
L 436.839288 131.553112 
L 437.43608 131.735078 
L 437.734475 131.81815 
L 438.032871 131.734775 
L 438.331267 131.869323 
L 438.629662 131.656739 
L 438.928058 131.70683 
L 439.226454 132.017098 
L 439.52485 131.590594 
L 439.823245 131.729867 
L 440.420037 132.211052 
L 440.718432 131.722657 
L 441.016828 131.531011 
L 441.315224 131.598798 
L 441.912015 131.449122 
L 442.210411 131.692884 
L 443.105598 131.56468 
L 443.403994 131.804936 
L 444.299181 131.698899 
L 444.597577 131.576302 
L 444.895973 131.164704 
L 445.194368 131.653755 
L 445.492764 131.569612 
L 446.089555 131.224464 
L 446.387951 131.535934 
L 446.686347 131.357117 
L 447.283138 131.567762 
L 447.581534 131.213929 
L 447.87993 131.59829 
L 448.178326 131.152675 
L 449.073513 131.739145 
L 449.371908 131.465133 
L 449.670304 131.453089 
L 449.9687 131.314995 
L 450.863887 131.677337 
L 451.162283 131.748742 
L 451.460678 131.973248 
L 451.759074 131.343102 
L 452.05747 131.580627 
L 452.355866 131.402333 
L 453.549449 131.40373 
L 453.847844 131.238737 
L 454.444636 131.584023 
L 454.743031 131.375681 
L 455.041427 131.671517 
L 455.339823 131.403375 
L 455.638219 131.788508 
L 456.23501 131.376979 
L 457.130197 131.483392 
L 457.428593 131.268123 
L 458.025384 131.57249 
L 458.32378 131.274227 
L 458.622176 131.556683 
L 458.920572 131.59896 
L 459.218967 131.831504 
L 459.517363 131.315487 
L 459.815759 131.371424 
L 460.114154 131.184238 
L 460.41255 131.247575 
L 460.710946 131.533858 
L 461.009342 131.439911 
L 461.307737 131.589682 
L 461.606133 131.287109 
L 462.202924 131.683824 
L 462.50132 131.61923 
L 462.799716 131.669858 
L 463.098112 130.969618 
L 463.396507 130.810178 
L 463.694903 131.309287 
L 463.993299 131.165409 
L 464.291695 131.423773 
L 464.59009 131.306445 
L 464.888486 130.881194 
L 465.485277 131.622168 
L 465.783673 131.48835 
L 466.082069 131.12394 
L 466.67886 131.342115 
L 467.275652 131.15863 
L 467.574047 131.392061 
L 467.872443 131.339938 
L 468.170839 131.585466 
L 468.469235 131.313515 
L 468.76763 131.716583 
L 469.066026 131.245639 
L 469.364422 131.554074 
L 470.259609 131.269393 
L 471.154796 131.546983 
L 471.453192 131.016815 
L 472.049983 131.712664 
L 472.348379 131.433202 
L 472.646775 131.364848 
L 472.94517 131.425148 
L 473.243566 131.130419 
L 473.541962 131.024514 
L 473.840358 131.273165 
L 474.138753 130.993595 
L 474.437149 131.53009 
L 474.735545 131.36149 
L 475.033941 131.562629 
L 475.332336 131.20167 
L 475.929128 131.299452 
L 476.227523 131.553812 
L 476.525919 131.150863 
L 476.824315 131.40958 
L 477.122711 131.124255 
L 477.421106 131.215577 
L 477.719502 130.970897 
L 478.017898 131.545904 
L 478.614689 131.169531 
L 478.913085 131.50402 
L 479.211481 131.575606 
L 479.509876 131.384051 
L 479.808272 131.480658 
L 480.106668 131.400593 
L 480.703459 131.46457 
L 481.001855 131.163274 
L 481.300251 131.523415 
L 481.897042 131.190596 
L 482.493834 131.310975 
L 482.792229 131.630702 
L 483.090625 131.169151 
L 483.389021 131.039505 
L 483.687416 131.037927 
L 483.985812 131.219068 
L 484.284208 131.05841 
L 484.582604 131.51147 
L 484.880999 131.448166 
L 485.477791 131.71447 
L 485.776186 131.316122 
L 486.074582 131.469966 
L 486.372978 131.222741 
L 486.969769 131.505236 
L 487.268165 131.457204 
L 487.566561 131.637589 
L 488.163352 131.067112 
L 488.461748 131.136962 
L 488.760144 131.366614 
L 489.058539 131.778345 
L 489.356935 131.536757 
L 489.655331 131.501241 
L 489.953727 131.605747 
L 490.550518 131.465848 
L 490.848914 131.731375 
L 491.147309 131.713457 
L 491.445705 131.477451 
L 491.744101 131.456224 
L 492.042497 131.119791 
L 492.340892 131.190572 
L 492.937684 131.452396 
L 493.832871 131.694542 
L 494.131267 131.432508 
L 494.429662 131.429285 
L 494.728058 131.749219 
L 495.026454 131.150779 
L 496.220037 131.577303 
L 496.518432 131.811504 
L 496.816828 131.41673 
L 497.115224 131.444956 
L 497.41362 131.26649 
L 497.712015 131.583304 
L 498.010411 131.335662 
L 498.308807 131.615927 
L 499.203994 131.365126 
L 499.50239 131.583033 
L 499.800785 131.542721 
L 500.099181 131.729707 
L 500.397577 131.424947 
L 500.695973 131.352412 
L 500.994368 131.44336 
L 501.292764 131.700714 
L 501.59116 131.305627 
L 502.187951 131.444577 
L 502.486347 131.219751 
L 503.381534 131.278478 
L 503.978326 131.782109 
L 504.276721 131.290591 
L 505.470304 131.520578 
L 505.7687 131.382871 
L 506.365491 131.534519 
L 506.663887 131.602163 
L 507.559074 131.373908 
L 507.85747 131.750278 
L 508.155866 131.740545 
L 508.752657 131.2285 
L 509.051053 131.174561 
L 509.349449 131.424005 
L 509.647844 131.503319 
L 510.543031 131.320569 
L 510.841427 131.167674 
L 511.736614 131.442016 
L 512.03501 131.432219 
L 512.333406 131.291859 
L 513.228593 131.442947 
L 513.526989 131.074232 
L 514.12378 131.156943 
L 514.422176 131.302615 
L 514.720572 131.296418 
L 515.018967 131.476627 
L 515.914154 131.346275 
L 516.510946 131.414973 
L 516.809342 131.217917 
L 517.107737 131.262462 
L 517.704529 131.114828 
L 518.30132 131.228466 
L 518.599716 130.976384 
L 519.196507 131.235615 
L 519.793299 131.088931 
L 520.39009 131.609499 
L 520.688486 131.278431 
L 520.986882 131.343334 
L 521.285277 131.093883 
L 521.882069 131.410251 
L 522.47886 131.447108 
L 522.777256 131.548553 
L 523.374047 131.261014 
L 523.672443 131.361117 
L 523.970839 131.166273 
L 524.269235 131.487162 
L 524.866026 131.560751 
L 525.164422 131.077796 
L 525.462818 131.246698 
L 525.761213 131.557392 
L 526.358005 131.237677 
L 526.954796 131.413089 
L 527.849983 131.417419 
L 528.148379 131.180052 
L 528.446775 131.174835 
L 529.043566 131.528454 
L 529.341962 131.238783 
L 529.938753 131.362832 
L 530.237149 131.201953 
L 530.535545 131.32817 
L 530.833941 131.28141 
L 531.132336 131.452231 
L 531.430732 131.329763 
L 531.729128 131.337622 
L 532.027523 131.523734 
L 532.325919 131.378977 
L 532.624315 131.669703 
L 532.922711 131.537059 
L 533.221106 131.86782 
L 533.519502 131.475729 
L 534.116293 131.576848 
L 534.414689 131.868218 
L 534.713085 131.490127 
L 535.011481 131.847893 
L 535.309876 131.714276 
L 535.608272 131.89651 
L 535.906668 131.790117 
L 536.503459 131.796327 
L 536.801855 131.597672 
L 537.100251 131.973706 
L 537.697042 130.662237 
L 537.995438 130.69195 
L 538.293834 130.971303 
L 538.592229 130.935548 
L 539.189021 130.993849 
L 539.487416 131.400423 
L 540.680999 131.128928 
L 541.277791 131.178499 
L 541.576186 131.02703 
L 541.874582 131.420192 
L 542.172978 131.138143 
L 542.471374 131.308406 
L 542.769769 131.193542 
L 543.068165 131.373895 
L 543.664957 131.526675 
L 543.963352 131.9746 
L 544.261748 131.251423 
L 544.560144 131.143247 
L 544.858539 131.325846 
L 545.156935 131.102467 
L 545.455331 131.515249 
L 545.753727 131.691079 
L 546.350518 131.24146 
L 546.947309 131.495941 
L 547.245705 131.11669 
L 548.737684 131.379219 
L 549.03608 131.241842 
L 549.334475 131.377519 
L 549.632871 131.134867 
L 549.931267 131.364208 
L 550.528058 131.168448 
L 550.826454 131.47654 
L 551.423245 131.337093 
L 552.020037 131.085402 
L 552.318432 131.243586 
L 552.616828 131.26974 
L 552.915224 131.121253 
L 553.21362 131.530049 
L 553.512015 131.559233 
L 553.810411 131.229325 
L 554.108807 131.173394 
L 554.407203 131.501952 
L 554.705598 131.490782 
L 555.003994 131.219356 
L 555.30239 131.180196 
L 555.600785 131.361962 
L 555.899181 131.284448 
L 556.495973 131.552896 
L 557.092764 131.409942 
L 557.39116 131.215406 
L 557.987951 131.645837 
L 558.883138 131.184437 
L 559.181534 131.385378 
L 560.375117 131.409162 
L 560.673513 131.189708 
L 560.971908 131.30255 
L 561.270304 131.180556 
L 561.5687 131.478817 
L 561.867096 131.162332 
L 562.165491 131.019751 
L 562.463887 131.234073 
L 562.762283 131.102446 
L 563.359074 131.077601 
L 563.65747 131.502116 
L 563.955866 131.241637 
L 564.254261 131.159214 
L 564.552657 131.571451 
L 564.851053 131.354628 
L 565.149449 131.290441 
L 565.74624 131.630049 
L 566.044636 131.028025 
L 566.343031 131.153771 
L 566.641427 130.882236 
L 567.536614 130.853426 
L 568.431801 131.613108 
L 568.730197 131.022657 
L 569.028593 131.3146 
L 569.326989 131.040848 
L 569.625384 130.998857 
L 569.92378 131.497009 
L 570.520572 131.096779 
L 571.117363 131.343776 
L 571.415759 130.982872 
L 572.01255 131.212569 
L 572.609342 131.200552 
L 572.907737 131.403574 
L 573.206133 131.032742 
L 573.504529 131.010406 
L 573.802924 131.144822 
L 574.399716 130.931743 
L 575.294903 131.140177 
L 575.593299 131.093956 
L 575.891695 131.390899 
L 576.19009 131.078914 
L 576.786882 131.415554 
L 577.085277 131.258874 
L 577.682069 131.386495 
L 577.980465 130.997941 
L 578.577256 131.304777 
L 578.875652 131.131158 
L 579.174047 131.117146 
L 579.472443 131.239236 
L 579.770839 131.183413 
L 580.069235 131.244631 
L 580.36763 131.071714 
L 580.666026 131.333295 
L 581.262818 131.098615 
L 581.561213 131.112857 
L 581.859609 131.344119 
L 582.4564 131.415417 
L 582.754796 131.203601 
L 583.351588 131.316519 
L 583.649983 130.887106 
L 583.948379 131.37377 
L 584.246775 131.130791 
L 584.54517 131.229476 
L 584.843566 131.566461 
L 585.141962 131.264227 
L 585.738753 131.232481 
L 586.335545 131.580546 
L 586.633941 131.281944 
L 586.932336 131.207017 
L 587.230732 131.351876 
L 587.529128 131.262133 
L 588.424315 131.469338 
L 588.722711 131.113352 
L 589.021106 131.390379 
L 589.319502 131.31042 
L 589.617898 131.05273 
L 589.916293 131.285751 
L 590.214689 131.041753 
L 590.513085 131.415023 
L 590.811481 130.710574 
L 591.109876 130.987932 
L 591.408272 131.101379 
L 591.706668 130.995912 
L 592.005064 131.191983 
L 592.303459 131.179088 
L 592.601855 130.989587 
L 592.900251 131.006066 
L 593.198646 131.145227 
L 593.497042 130.893547 
L 594.093834 131.308513 
L 594.392229 130.949311 
L 595.585812 131.385486 
L 595.884208 131.204376 
L 596.182604 131.237028 
L 596.480999 131.532938 
L 596.779395 131.605411 
L 597.077791 131.277777 
L 597.376186 131.300816 
L 597.674582 131.13329 
L 597.972978 131.377729 
L 599.763352 130.977238 
L 600.061748 131.396674 
L 600.956935 131.154804 
L 601.255331 131.076689 
L 601.852122 131.589773 
L 602.150518 131.101212 
L 602.448914 131.073198 
L 602.747309 131.299861 
L 603.045705 131.291384 
L 603.344101 131.158896 
L 603.940892 131.118564 
L 604.239288 131.373801 
L 604.537684 131.007786 
L 604.83608 131.160704 
L 605.432871 130.940162 
L 606.328058 131.404144 
L 606.626454 131.159111 
L 609.01362 130.908688 
L 609.312015 131.2515 
L 609.610411 131.247069 
L 609.908807 130.923456 
L 610.207203 130.951516 
L 610.505598 131.191179 
L 610.803994 131.062563 
L 611.400785 131.146231 
L 611.699181 130.888329 
L 611.997577 131.13652 
L 612.295973 131.589177 
L 612.594368 131.053148 
L 613.19116 130.990946 
L 613.489555 131.181027 
L 613.787951 131.237725 
L 614.086347 131.119237 
L 614.384743 131.330205 
L 614.683138 131.03888 
L 614.981534 131.113427 
L 615.27993 131.042327 
L 615.578326 131.116434 
L 615.876721 131.064593 
L 616.175117 131.279263 
L 616.473513 131.190439 
L 616.771908 130.940904 
L 617.070304 131.275198 
L 617.965491 130.990747 
L 618.263887 131.236083 
L 618.562283 131.250837 
L 618.860678 131.08078 
L 619.159074 131.154847 
L 619.45747 131.090894 
L 620.651053 131.340895 
L 621.247844 131.526457 
L 621.54624 131.116359 
L 621.844636 131.268382 
L 622.441427 131.074589 
L 622.739823 131.010074 
L 623.038219 131.062828 
L 623.336614 131.43118 
L 624.231801 130.942856 
L 624.530197 131.236581 
L 624.828593 131.145125 
L 625.126989 131.418002 
L 625.126989 131.418002 
" clip-path="url(#p840e09fed4)" style="fill: none; stroke: #ff7f0e; stroke-width: 1.5; stroke-linecap: square"/>
   </g>
   <g id="patch_3">
    <path d="M 92.490625 308.63625 
L 92.490625 31.43625 
" style="fill: none; stroke: #000000; stroke-width: 0.8; stroke-linejoin: miter; stroke-linecap: square"/>
   </g>
   <g id="patch_4">
    <path d="M 650.490625 308.63625 
L 650.490625 31.43625 
" style="fill: none; stroke: #000000; stroke-width: 0.8; stroke-linejoin: miter; stroke-linecap: square"/>
   </g>
   <g id="patch_5">
    <path d="M 92.490625 308.63625 
L 650.490625 308.63625 
" style="fill: none; stroke: #000000; stroke-width: 0.8; stroke-linejoin: miter; stroke-linecap: square"/>
   </g>
   <g id="patch_6">
    <path d="M 92.490625 31.43625 
L 650.490625 31.43625 
" style="fill: none; stroke: #000000; stroke-width: 0.8; stroke-linejoin: miter; stroke-linecap: square"/>
   </g>
   <g id="text_16">
    <!-- Generator and Discriminator Loss During Training -->
    <g transform="translate(74.258125 25.43625) scale(0.24 -0.24)">
     <defs>
      <path id="DejaVuSans-47" d="M 3809 666 
L 3809 1919 
L 2778 1919 
L 2778 2438 
L 4434 2438 
L 4434 434 
Q 4069 175 3628 42 
Q 3188 -91 2688 -91 
Q 1594 -91 976 548 
Q 359 1188 359 2328 
Q 359 3472 976 4111 
Q 1594 4750 2688 4750 
Q 3144 4750 3555 4637 
Q 3966 4525 4313 4306 
L 4313 3634 
Q 3963 3931 3569 4081 
Q 3175 4231 2741 4231 
Q 1884 4231 1454 3753 
Q 1025 3275 1025 2328 
Q 1025 1384 1454 906 
Q 1884 428 2741 428 
Q 3075 428 3337 486 
Q 3600 544 3809 666 
z
" transform="scale(0.015625)"/>
      <path id="DejaVuSans-20" transform="scale(0.015625)"/>
      <path id="DejaVuSans-64" d="M 2906 2969 
L 2906 4863 
L 3481 4863 
L 3481 0 
L 2906 0 
L 2906 525 
Q 2725 213 2448 61 
Q 2172 -91 1784 -91 
Q 1150 -91 751 415 
Q 353 922 353 1747 
Q 353 2572 751 3078 
Q 1150 3584 1784 3584 
Q 2172 3584 2448 3432 
Q 2725 3281 2906 2969 
z
M 947 1747 
Q 947 1113 1208 752 
Q 1469 391 1925 391 
Q 2381 391 2643 752 
Q 2906 1113 2906 1747 
Q 2906 2381 2643 2742 
Q 2381 3103 1925 3103 
Q 1469 3103 1208 2742 
Q 947 2381 947 1747 
z
" transform="scale(0.015625)"/>
      <path id="DejaVuSans-44" d="M 1259 4147 
L 1259 519 
L 2022 519 
Q 2988 519 3436 956 
Q 3884 1394 3884 2338 
Q 3884 3275 3436 3711 
Q 2988 4147 2022 4147 
L 1259 4147 
z
M 628 4666 
L 1925 4666 
Q 3281 4666 3915 4102 
Q 4550 3538 4550 2338 
Q 4550 1131 3912 565 
Q 3275 0 1925 0 
L 628 0 
L 628 4666 
z
" transform="scale(0.015625)"/>
      <path id="DejaVuSans-63" d="M 3122 3366 
L 3122 2828 
Q 2878 2963 2633 3030 
Q 2388 3097 2138 3097 
Q 1578 3097 1268 2742 
Q 959 2388 959 1747 
Q 959 1106 1268 751 
Q 1578 397 2138 397 
Q 2388 397 2633 464 
Q 2878 531 3122 666 
L 3122 134 
Q 2881 22 2623 -34 
Q 2366 -91 2075 -91 
Q 1284 -91 818 406 
Q 353 903 353 1747 
Q 353 2603 823 3093 
Q 1294 3584 2113 3584 
Q 2378 3584 2631 3529 
Q 2884 3475 3122 3366 
z
" transform="scale(0.015625)"/>
      <path id="DejaVuSans-6d" d="M 3328 2828 
Q 3544 3216 3844 3400 
Q 4144 3584 4550 3584 
Q 5097 3584 5394 3201 
Q 5691 2819 5691 2113 
L 5691 0 
L 5113 0 
L 5113 2094 
Q 5113 2597 4934 2840 
Q 4756 3084 4391 3084 
Q 3944 3084 3684 2787 
Q 3425 2491 3425 1978 
L 3425 0 
L 2847 0 
L 2847 2094 
Q 2847 2600 2669 2842 
Q 2491 3084 2119 3084 
Q 1678 3084 1418 2786 
Q 1159 2488 1159 1978 
L 1159 0 
L 581 0 
L 581 3500 
L 1159 3500 
L 1159 2956 
Q 1356 3278 1631 3431 
Q 1906 3584 2284 3584 
Q 2666 3584 2933 3390 
Q 3200 3197 3328 2828 
z
" transform="scale(0.015625)"/>
      <path id="DejaVuSans-75" d="M 544 1381 
L 544 3500 
L 1119 3500 
L 1119 1403 
Q 1119 906 1312 657 
Q 1506 409 1894 409 
Q 2359 409 2629 706 
Q 2900 1003 2900 1516 
L 2900 3500 
L 3475 3500 
L 3475 0 
L 2900 0 
L 2900 538 
Q 2691 219 2414 64 
Q 2138 -91 1772 -91 
Q 1169 -91 856 284 
Q 544 659 544 1381 
z
M 1991 3584 
L 1991 3584 
z
" transform="scale(0.015625)"/>
      <path id="DejaVuSans-67" d="M 2906 1791 
Q 2906 2416 2648 2759 
Q 2391 3103 1925 3103 
Q 1463 3103 1205 2759 
Q 947 2416 947 1791 
Q 947 1169 1205 825 
Q 1463 481 1925 481 
Q 2391 481 2648 825 
Q 2906 1169 2906 1791 
z
M 3481 434 
Q 3481 -459 3084 -895 
Q 2688 -1331 1869 -1331 
Q 1566 -1331 1297 -1286 
Q 1028 -1241 775 -1147 
L 775 -588 
Q 1028 -725 1275 -790 
Q 1522 -856 1778 -856 
Q 2344 -856 2625 -561 
Q 2906 -266 2906 331 
L 2906 616 
Q 2728 306 2450 153 
Q 2172 0 1784 0 
Q 1141 0 747 490 
Q 353 981 353 1791 
Q 353 2603 747 3093 
Q 1141 3584 1784 3584 
Q 2172 3584 2450 3431 
Q 2728 3278 2906 2969 
L 2906 3500 
L 3481 3500 
L 3481 434 
z
" transform="scale(0.015625)"/>
      <path id="DejaVuSans-54" d="M -19 4666 
L 3928 4666 
L 3928 4134 
L 2272 4134 
L 2272 0 
L 1638 0 
L 1638 4134 
L -19 4134 
L -19 4666 
z
" transform="scale(0.015625)"/>
     </defs>
     <use xlink:href="#DejaVuSans-47"/>
     <use xlink:href="#DejaVuSans-65" x="77.490234"/>
     <use xlink:href="#DejaVuSans-6e" x="139.013672"/>
     <use xlink:href="#DejaVuSans-65" x="202.392578"/>
     <use xlink:href="#DejaVuSans-72" x="263.916016"/>
     <use xlink:href="#DejaVuSans-61" x="305.029297"/>
     <use xlink:href="#DejaVuSans-74" x="366.308594"/>
     <use xlink:href="#DejaVuSans-6f" x="405.517578"/>
     <use xlink:href="#DejaVuSans-72" x="466.699219"/>
     <use xlink:href="#DejaVuSans-20" x="507.8125"/>
     <use xlink:href="#DejaVuSans-61" x="539.599609"/>
     <use xlink:href="#DejaVuSans-6e" x="600.878906"/>
     <use xlink:href="#DejaVuSans-64" x="664.257812"/>
     <use xlink:href="#DejaVuSans-20" x="727.734375"/>
     <use xlink:href="#DejaVuSans-44" x="759.521484"/>
     <use xlink:href="#DejaVuSans-69" x="836.523438"/>
     <use xlink:href="#DejaVuSans-73" x="864.306641"/>
     <use xlink:href="#DejaVuSans-63" x="916.40625"/>
     <use xlink:href="#DejaVuSans-72" x="971.386719"/>
     <use xlink:href="#DejaVuSans-69" x="1012.5"/>
     <use xlink:href="#DejaVuSans-6d" x="1040.283203"/>
     <use xlink:href="#DejaVuSans-69" x="1137.695312"/>
     <use xlink:href="#DejaVuSans-6e" x="1165.478516"/>
     <use xlink:href="#DejaVuSans-61" x="1228.857422"/>
     <use xlink:href="#DejaVuSans-74" x="1290.136719"/>
     <use xlink:href="#DejaVuSans-6f" x="1329.345703"/>
     <use xlink:href="#DejaVuSans-72" x="1390.527344"/>
     <use xlink:href="#DejaVuSans-20" x="1431.640625"/>
     <use xlink:href="#DejaVuSans-4c" x="1463.427734"/>
     <use xlink:href="#DejaVuSans-6f" x="1517.390625"/>
     <use xlink:href="#DejaVuSans-73" x="1578.572266"/>
     <use xlink:href="#DejaVuSans-73" x="1630.671875"/>
     <use xlink:href="#DejaVuSans-20" x="1682.771484"/>
     <use xlink:href="#DejaVuSans-44" x="1714.558594"/>
     <use xlink:href="#DejaVuSans-75" x="1791.560547"/>
     <use xlink:href="#DejaVuSans-72" x="1854.939453"/>
     <use xlink:href="#DejaVuSans-69" x="1896.052734"/>
     <use xlink:href="#DejaVuSans-6e" x="1923.835938"/>
     <use xlink:href="#DejaVuSans-67" x="1987.214844"/>
     <use xlink:href="#DejaVuSans-20" x="2050.691406"/>
     <use xlink:href="#DejaVuSans-54" x="2082.478516"/>
     <use xlink:href="#DejaVuSans-72" x="2128.8125"/>
     <use xlink:href="#DejaVuSans-61" x="2169.925781"/>
     <use xlink:href="#DejaVuSans-69" x="2231.205078"/>
     <use xlink:href="#DejaVuSans-6e" x="2258.988281"/>
     <use xlink:href="#DejaVuSans-69" x="2322.367188"/>
     <use xlink:href="#DejaVuSans-6e" x="2350.150391"/>
     <use xlink:href="#DejaVuSans-67" x="2413.529297"/>
    </g>
   </g>
   <g id="legend_1">
    <g id="patch_7">
     <path d="M 556.99375 106.14875 
L 636.490625 106.14875 
Q 640.490625 106.14875 640.490625 102.14875 
L 640.490625 45.43625 
Q 640.490625 41.43625 636.490625 41.43625 
L 556.99375 41.43625 
Q 552.99375 41.43625 552.99375 45.43625 
L 552.99375 102.14875 
Q 552.99375 106.14875 556.99375 106.14875 
z
" style="fill: #ffffff; opacity: 0.8; stroke: #cccccc; stroke-linejoin: miter"/>
    </g>
    <g id="line2d_16">
     <path d="M 560.99375 57.633125 
L 580.99375 57.633125 
L 600.99375 57.633125 
" style="fill: none; stroke: #1f77b4; stroke-width: 1.5; stroke-linecap: square"/>
    </g>
    <g id="text_17">
     <!-- G -->
     <g transform="translate(616.99375 64.633125) scale(0.2 -0.2)">
      <use xlink:href="#DejaVuSans-47"/>
     </g>
    </g>
    <g id="line2d_17">
     <path d="M 560.99375 86.989375 
L 580.99375 86.989375 
L 600.99375 86.989375 
" style="fill: none; stroke: #ff7f0e; stroke-width: 1.5; stroke-linecap: square"/>
    </g>
    <g id="text_18">
     <!-- D -->
     <g transform="translate(616.99375 93.989375) scale(0.2 -0.2)">
      <use xlink:href="#DejaVuSans-44"/>
     </g>
    </g>
   </g>
  </g>
 </g>
 <defs>
  <clipPath id="p840e09fed4">
   <rect x="92.490625" y="31.43625" width="558" height="277.2"/>
  </clipPath>
 </defs>
</svg>
