<?xml version="1.0" encoding="utf-8" standalone="no"?>
<!DOCTYPE svg PUBLIC "-//W3C//DTD SVG 1.1//EN"
  "http://www.w3.org/Graphics/SVG/1.1/DTD/svg11.dtd">
<svg xmlns:xlink="http://www.w3.org/1999/xlink" width="675.923125pt" height="365.54875pt" viewBox="0 0 675.923125 365.54875" xmlns="http://www.w3.org/2000/svg" version="1.1">
 <metadata>
  <rdf:RDF xmlns:dc="http://purl.org/dc/elements/1.1/" xmlns:cc="http://creativecommons.org/ns#" xmlns:rdf="http://www.w3.org/1999/02/22-rdf-syntax-ns#">
   <cc:Work>
    <dc:type rdf:resource="http://purl.org/dc/dcmitype/StillImage"/>
    <dc:date>2024-02-04T18:11:08.725191</dc:date>
    <dc:format>image/svg+xml</dc:format>
    <dc:creator>
     <cc:Agent>
      <dc:title>Matplotlib v3.7.2, https://matplotlib.org/</dc:title>
     </cc:Agent>
    </dc:creator>
   </cc:Work>
  </rdf:RDF>
 </metadata>
 <defs>
  <style type="text/css">*{stroke-linejoin: round; stroke-linecap: butt}</style>
 </defs>
 <g id="figure_1">
  <g id="patch_1">
   <path d="M 0 365.54875 
L 675.923125 365.54875 
L 675.923125 -0 
L 0 -0 
z
" style="fill: #ffffff"/>
  </g>
  <g id="axes_1">
   <g id="patch_2">
    <path d="M 92.490625 308.63625 
L 650.490625 308.63625 
L 650.490625 31.43625 
L 92.490625 31.43625 
z
" style="fill: #ffffff"/>
   </g>
   <g id="matplotlib.axis_1">
    <g id="xtick_1">
     <g id="line2d_1">
      <defs>
       <path id="maa5082660b" d="M 0 0 
L 0 3.5 
" style="stroke: #000000; stroke-width: 0.8"/>
      </defs>
      <g>
       <use xlink:href="#maa5082660b" x="117.854261" y="308.63625" style="stroke: #000000; stroke-width: 0.8"/>
      </g>
     </g>
     <g id="text_1">
      <!-- 0 -->
      <g transform="translate(111.491761 330.833125) scale(0.2 -0.2)">
       <defs>
        <path id="DejaVuSans-30" d="M 2034 4250 
Q 1547 4250 1301 3770 
Q 1056 3291 1056 2328 
Q 1056 1369 1301 889 
Q 1547 409 2034 409 
Q 2525 409 2770 889 
Q 3016 1369 3016 2328 
Q 3016 3291 2770 3770 
Q 2525 4250 2034 4250 
z
M 2034 4750 
Q 2819 4750 3233 4129 
Q 3647 3509 3647 2328 
Q 3647 1150 3233 529 
Q 2819 -91 2034 -91 
Q 1250 -91 836 529 
Q 422 1150 422 2328 
Q 422 3509 836 4129 
Q 1250 4750 2034 4750 
z
" transform="scale(0.015625)"/>
       </defs>
       <use xlink:href="#DejaVuSans-30"/>
      </g>
     </g>
    </g>
    <g id="xtick_2">
     <g id="line2d_2">
      <g>
       <use xlink:href="#maa5082660b" x="188.308807" y="308.63625" style="stroke: #000000; stroke-width: 0.8"/>
      </g>
     </g>
     <g id="text_2">
      <!-- 250 -->
      <g transform="translate(169.221307 330.833125) scale(0.2 -0.2)">
       <defs>
        <path id="DejaVuSans-32" d="M 1228 531 
L 3431 531 
L 3431 0 
L 469 0 
L 469 531 
Q 828 903 1448 1529 
Q 2069 2156 2228 2338 
Q 2531 2678 2651 2914 
Q 2772 3150 2772 3378 
Q 2772 3750 2511 3984 
Q 2250 4219 1831 4219 
Q 1534 4219 1204 4116 
Q 875 4013 500 3803 
L 500 4441 
Q 881 4594 1212 4672 
Q 1544 4750 1819 4750 
Q 2544 4750 2975 4387 
Q 3406 4025 3406 3419 
Q 3406 3131 3298 2873 
Q 3191 2616 2906 2266 
Q 2828 2175 2409 1742 
Q 1991 1309 1228 531 
z
" transform="scale(0.015625)"/>
        <path id="DejaVuSans-35" d="M 691 4666 
L 3169 4666 
L 3169 4134 
L 1269 4134 
L 1269 2991 
Q 1406 3038 1543 3061 
Q 1681 3084 1819 3084 
Q 2600 3084 3056 2656 
Q 3513 2228 3513 1497 
Q 3513 744 3044 326 
Q 2575 -91 1722 -91 
Q 1428 -91 1123 -41 
Q 819 9 494 109 
L 494 744 
Q 775 591 1075 516 
Q 1375 441 1709 441 
Q 2250 441 2565 725 
Q 2881 1009 2881 1497 
Q 2881 1984 2565 2268 
Q 2250 2553 1709 2553 
Q 1456 2553 1204 2497 
Q 953 2441 691 2322 
L 691 4666 
z
" transform="scale(0.015625)"/>
       </defs>
       <use xlink:href="#DejaVuSans-32"/>
       <use xlink:href="#DejaVuSans-35" x="63.623047"/>
       <use xlink:href="#DejaVuSans-30" x="127.246094"/>
      </g>
     </g>
    </g>
    <g id="xtick_3">
     <g id="line2d_3">
      <g>
       <use xlink:href="#maa5082660b" x="258.763352" y="308.63625" style="stroke: #000000; stroke-width: 0.8"/>
      </g>
     </g>
     <g id="text_3">
      <!-- 500 -->
      <g transform="translate(239.675852 330.833125) scale(0.2 -0.2)">
       <use xlink:href="#DejaVuSans-35"/>
       <use xlink:href="#DejaVuSans-30" x="63.623047"/>
       <use xlink:href="#DejaVuSans-30" x="127.246094"/>
      </g>
     </g>
    </g>
    <g id="xtick_4">
     <g id="line2d_4">
      <g>
       <use xlink:href="#maa5082660b" x="329.217898" y="308.63625" style="stroke: #000000; stroke-width: 0.8"/>
      </g>
     </g>
     <g id="text_4">
      <!-- 750 -->
      <g transform="translate(310.130398 330.833125) scale(0.2 -0.2)">
       <defs>
        <path id="DejaVuSans-37" d="M 525 4666 
L 3525 4666 
L 3525 4397 
L 1831 0 
L 1172 0 
L 2766 4134 
L 525 4134 
L 525 4666 
z
" transform="scale(0.015625)"/>
       </defs>
       <use xlink:href="#DejaVuSans-37"/>
       <use xlink:href="#DejaVuSans-35" x="63.623047"/>
       <use xlink:href="#DejaVuSans-30" x="127.246094"/>
      </g>
     </g>
    </g>
    <g id="xtick_5">
     <g id="line2d_5">
      <g>
       <use xlink:href="#maa5082660b" x="399.672443" y="308.63625" style="stroke: #000000; stroke-width: 0.8"/>
      </g>
     </g>
     <g id="text_5">
      <!-- 1000 -->
      <g transform="translate(374.222443 330.833125) scale(0.2 -0.2)">
       <defs>
        <path id="DejaVuSans-31" d="M 794 531 
L 1825 531 
L 1825 4091 
L 703 3866 
L 703 4441 
L 1819 4666 
L 2450 4666 
L 2450 531 
L 3481 531 
L 3481 0 
L 794 0 
L 794 531 
z
" transform="scale(0.015625)"/>
       </defs>
       <use xlink:href="#DejaVuSans-31"/>
       <use xlink:href="#DejaVuSans-30" x="63.623047"/>
       <use xlink:href="#DejaVuSans-30" x="127.246094"/>
       <use xlink:href="#DejaVuSans-30" x="190.869141"/>
      </g>
     </g>
    </g>
    <g id="xtick_6">
     <g id="line2d_6">
      <g>
       <use xlink:href="#maa5082660b" x="470.126989" y="308.63625" style="stroke: #000000; stroke-width: 0.8"/>
      </g>
     </g>
     <g id="text_6">
      <!-- 1250 -->
      <g transform="translate(444.676989 330.833125) scale(0.2 -0.2)">
       <use xlink:href="#DejaVuSans-31"/>
       <use xlink:href="#DejaVuSans-32" x="63.623047"/>
       <use xlink:href="#DejaVuSans-35" x="127.246094"/>
       <use xlink:href="#DejaVuSans-30" x="190.869141"/>
      </g>
     </g>
    </g>
    <g id="xtick_7">
     <g id="line2d_7">
      <g>
       <use xlink:href="#maa5082660b" x="540.581534" y="308.63625" style="stroke: #000000; stroke-width: 0.8"/>
      </g>
     </g>
     <g id="text_7">
      <!-- 1500 -->
      <g transform="translate(515.131534 330.833125) scale(0.2 -0.2)">
       <use xlink:href="#DejaVuSans-31"/>
       <use xlink:href="#DejaVuSans-35" x="63.623047"/>
       <use xlink:href="#DejaVuSans-30" x="127.246094"/>
       <use xlink:href="#DejaVuSans-30" x="190.869141"/>
      </g>
     </g>
    </g>
    <g id="xtick_8">
     <g id="line2d_8">
      <g>
       <use xlink:href="#maa5082660b" x="611.03608" y="308.63625" style="stroke: #000000; stroke-width: 0.8"/>
      </g>
     </g>
     <g id="text_8">
      <!-- 1750 -->
      <g transform="translate(585.58608 330.833125) scale(0.2 -0.2)">
       <use xlink:href="#DejaVuSans-31"/>
       <use xlink:href="#DejaVuSans-37" x="63.623047"/>
       <use xlink:href="#DejaVuSans-35" x="127.246094"/>
       <use xlink:href="#DejaVuSans-30" x="190.869141"/>
      </g>
     </g>
    </g>
    <g id="text_9">
     <!-- iterations -->
     <g transform="translate(324.035938 354.189375) scale(0.2 -0.2)">
      <defs>
       <path id="DejaVuSans-69" d="M 603 3500 
L 1178 3500 
L 1178 0 
L 603 0 
L 603 3500 
z
M 603 4863 
L 1178 4863 
L 1178 4134 
L 603 4134 
L 603 4863 
z
" transform="scale(0.015625)"/>
       <path id="DejaVuSans-74" d="M 1172 4494 
L 1172 3500 
L 2356 3500 
L 2356 3053 
L 1172 3053 
L 1172 1153 
Q 1172 725 1289 603 
Q 1406 481 1766 481 
L 2356 481 
L 2356 0 
L 1766 0 
Q 1100 0 847 248 
Q 594 497 594 1153 
L 594 3053 
L 172 3053 
L 172 3500 
L 594 3500 
L 594 4494 
L 1172 4494 
z
" transform="scale(0.015625)"/>
       <path id="DejaVuSans-65" d="M 3597 1894 
L 3597 1613 
L 953 1613 
Q 991 1019 1311 708 
Q 1631 397 2203 397 
Q 2534 397 2845 478 
Q 3156 559 3463 722 
L 3463 178 
Q 3153 47 2828 -22 
Q 2503 -91 2169 -91 
Q 1331 -91 842 396 
Q 353 884 353 1716 
Q 353 2575 817 3079 
Q 1281 3584 2069 3584 
Q 2775 3584 3186 3129 
Q 3597 2675 3597 1894 
z
M 3022 2063 
Q 3016 2534 2758 2815 
Q 2500 3097 2075 3097 
Q 1594 3097 1305 2825 
Q 1016 2553 972 2059 
L 3022 2063 
z
" transform="scale(0.015625)"/>
       <path id="DejaVuSans-72" d="M 2631 2963 
Q 2534 3019 2420 3045 
Q 2306 3072 2169 3072 
Q 1681 3072 1420 2755 
Q 1159 2438 1159 1844 
L 1159 0 
L 581 0 
L 581 3500 
L 1159 3500 
L 1159 2956 
Q 1341 3275 1631 3429 
Q 1922 3584 2338 3584 
Q 2397 3584 2469 3576 
Q 2541 3569 2628 3553 
L 2631 2963 
z
" transform="scale(0.015625)"/>
       <path id="DejaVuSans-61" d="M 2194 1759 
Q 1497 1759 1228 1600 
Q 959 1441 959 1056 
Q 959 750 1161 570 
Q 1363 391 1709 391 
Q 2188 391 2477 730 
Q 2766 1069 2766 1631 
L 2766 1759 
L 2194 1759 
z
M 3341 1997 
L 3341 0 
L 2766 0 
L 2766 531 
Q 2569 213 2275 61 
Q 1981 -91 1556 -91 
Q 1019 -91 701 211 
Q 384 513 384 1019 
Q 384 1609 779 1909 
Q 1175 2209 1959 2209 
L 2766 2209 
L 2766 2266 
Q 2766 2663 2505 2880 
Q 2244 3097 1772 3097 
Q 1472 3097 1187 3025 
Q 903 2953 641 2809 
L 641 3341 
Q 956 3463 1253 3523 
Q 1550 3584 1831 3584 
Q 2591 3584 2966 3190 
Q 3341 2797 3341 1997 
z
" transform="scale(0.015625)"/>
       <path id="DejaVuSans-6f" d="M 1959 3097 
Q 1497 3097 1228 2736 
Q 959 2375 959 1747 
Q 959 1119 1226 758 
Q 1494 397 1959 397 
Q 2419 397 2687 759 
Q 2956 1122 2956 1747 
Q 2956 2369 2687 2733 
Q 2419 3097 1959 3097 
z
M 1959 3584 
Q 2709 3584 3137 3096 
Q 3566 2609 3566 1747 
Q 3566 888 3137 398 
Q 2709 -91 1959 -91 
Q 1206 -91 779 398 
Q 353 888 353 1747 
Q 353 2609 779 3096 
Q 1206 3584 1959 3584 
z
" transform="scale(0.015625)"/>
       <path id="DejaVuSans-6e" d="M 3513 2113 
L 3513 0 
L 2938 0 
L 2938 2094 
Q 2938 2591 2744 2837 
Q 2550 3084 2163 3084 
Q 1697 3084 1428 2787 
Q 1159 2491 1159 1978 
L 1159 0 
L 581 0 
L 581 3500 
L 1159 3500 
L 1159 2956 
Q 1366 3272 1645 3428 
Q 1925 3584 2291 3584 
Q 2894 3584 3203 3211 
Q 3513 2838 3513 2113 
z
" transform="scale(0.015625)"/>
       <path id="DejaVuSans-73" d="M 2834 3397 
L 2834 2853 
Q 2591 2978 2328 3040 
Q 2066 3103 1784 3103 
Q 1356 3103 1142 2972 
Q 928 2841 928 2578 
Q 928 2378 1081 2264 
Q 1234 2150 1697 2047 
L 1894 2003 
Q 2506 1872 2764 1633 
Q 3022 1394 3022 966 
Q 3022 478 2636 193 
Q 2250 -91 1575 -91 
Q 1294 -91 989 -36 
Q 684 19 347 128 
L 347 722 
Q 666 556 975 473 
Q 1284 391 1588 391 
Q 1994 391 2212 530 
Q 2431 669 2431 922 
Q 2431 1156 2273 1281 
Q 2116 1406 1581 1522 
L 1381 1569 
Q 847 1681 609 1914 
Q 372 2147 372 2553 
Q 372 3047 722 3315 
Q 1072 3584 1716 3584 
Q 2034 3584 2315 3537 
Q 2597 3491 2834 3397 
z
" transform="scale(0.015625)"/>
      </defs>
      <use xlink:href="#DejaVuSans-69"/>
      <use xlink:href="#DejaVuSans-74" x="27.783203"/>
      <use xlink:href="#DejaVuSans-65" x="66.992188"/>
      <use xlink:href="#DejaVuSans-72" x="128.515625"/>
      <use xlink:href="#DejaVuSans-61" x="169.628906"/>
      <use xlink:href="#DejaVuSans-74" x="230.908203"/>
      <use xlink:href="#DejaVuSans-69" x="270.117188"/>
      <use xlink:href="#DejaVuSans-6f" x="297.900391"/>
      <use xlink:href="#DejaVuSans-6e" x="359.082031"/>
      <use xlink:href="#DejaVuSans-73" x="422.460938"/>
     </g>
    </g>
   </g>
   <g id="matplotlib.axis_2">
    <g id="ytick_1">
     <g id="line2d_9">
      <defs>
       <path id="mf3327d28f9" d="M 0 0 
L -3.5 0 
" style="stroke: #000000; stroke-width: 0.8"/>
      </defs>
      <g>
       <use xlink:href="#mf3327d28f9" x="92.490625" y="275.383624" style="stroke: #000000; stroke-width: 0.8"/>
      </g>
     </g>
     <g id="text_10">
      <!-- −300 -->
      <g transform="translate(30.55625 282.982061) scale(0.2 -0.2)">
       <defs>
        <path id="DejaVuSans-2212" d="M 678 2272 
L 4684 2272 
L 4684 1741 
L 678 1741 
L 678 2272 
z
" transform="scale(0.015625)"/>
        <path id="DejaVuSans-33" d="M 2597 2516 
Q 3050 2419 3304 2112 
Q 3559 1806 3559 1356 
Q 3559 666 3084 287 
Q 2609 -91 1734 -91 
Q 1441 -91 1130 -33 
Q 819 25 488 141 
L 488 750 
Q 750 597 1062 519 
Q 1375 441 1716 441 
Q 2309 441 2620 675 
Q 2931 909 2931 1356 
Q 2931 1769 2642 2001 
Q 2353 2234 1838 2234 
L 1294 2234 
L 1294 2753 
L 1863 2753 
Q 2328 2753 2575 2939 
Q 2822 3125 2822 3475 
Q 2822 3834 2567 4026 
Q 2313 4219 1838 4219 
Q 1578 4219 1281 4162 
Q 984 4106 628 3988 
L 628 4550 
Q 988 4650 1302 4700 
Q 1616 4750 1894 4750 
Q 2613 4750 3031 4423 
Q 3450 4097 3450 3541 
Q 3450 3153 3228 2886 
Q 3006 2619 2597 2516 
z
" transform="scale(0.015625)"/>
       </defs>
       <use xlink:href="#DejaVuSans-2212"/>
       <use xlink:href="#DejaVuSans-33" x="83.789062"/>
       <use xlink:href="#DejaVuSans-30" x="147.412109"/>
       <use xlink:href="#DejaVuSans-30" x="211.035156"/>
      </g>
     </g>
    </g>
    <g id="ytick_2">
     <g id="line2d_10">
      <g>
       <use xlink:href="#mf3327d28f9" x="92.490625" y="226.548593" style="stroke: #000000; stroke-width: 0.8"/>
      </g>
     </g>
     <g id="text_11">
      <!-- −200 -->
      <g transform="translate(30.55625 234.147031) scale(0.2 -0.2)">
       <use xlink:href="#DejaVuSans-2212"/>
       <use xlink:href="#DejaVuSans-32" x="83.789062"/>
       <use xlink:href="#DejaVuSans-30" x="147.412109"/>
       <use xlink:href="#DejaVuSans-30" x="211.035156"/>
      </g>
     </g>
    </g>
    <g id="ytick_3">
     <g id="line2d_11">
      <g>
       <use xlink:href="#mf3327d28f9" x="92.490625" y="177.713563" style="stroke: #000000; stroke-width: 0.8"/>
      </g>
     </g>
     <g id="text_12">
      <!-- −100 -->
      <g transform="translate(30.55625 185.312) scale(0.2 -0.2)">
       <use xlink:href="#DejaVuSans-2212"/>
       <use xlink:href="#DejaVuSans-31" x="83.789062"/>
       <use xlink:href="#DejaVuSans-30" x="147.412109"/>
       <use xlink:href="#DejaVuSans-30" x="211.035156"/>
      </g>
     </g>
    </g>
    <g id="ytick_4">
     <g id="line2d_12">
      <g>
       <use xlink:href="#mf3327d28f9" x="92.490625" y="128.878533" style="stroke: #000000; stroke-width: 0.8"/>
      </g>
     </g>
     <g id="text_13">
      <!-- 0 -->
      <g transform="translate(72.765625 136.47697) scale(0.2 -0.2)">
       <use xlink:href="#DejaVuSans-30"/>
      </g>
     </g>
    </g>
    <g id="ytick_5">
     <g id="line2d_13">
      <g>
       <use xlink:href="#mf3327d28f9" x="92.490625" y="80.043502" style="stroke: #000000; stroke-width: 0.8"/>
      </g>
     </g>
     <g id="text_14">
      <!-- 100 -->
      <g transform="translate(47.315625 87.64194) scale(0.2 -0.2)">
       <use xlink:href="#DejaVuSans-31"/>
       <use xlink:href="#DejaVuSans-30" x="63.623047"/>
       <use xlink:href="#DejaVuSans-30" x="127.246094"/>
      </g>
     </g>
    </g>
    <g id="text_15">
     <!-- Loss -->
     <g transform="translate(22.396875 191.970625) rotate(-90) scale(0.2 -0.2)">
      <defs>
       <path id="DejaVuSans-4c" d="M 628 4666 
L 1259 4666 
L 1259 531 
L 3531 531 
L 3531 0 
L 628 0 
L 628 4666 
z
" transform="scale(0.015625)"/>
      </defs>
      <use xlink:href="#DejaVuSans-4c"/>
      <use xlink:href="#DejaVuSans-6f" x="53.962891"/>
      <use xlink:href="#DejaVuSans-73" x="115.144531"/>
      <use xlink:href="#DejaVuSans-73" x="167.244141"/>
     </g>
    </g>
   </g>
   <g id="line2d_14">
    <path d="M 117.854261 107.143996 
L 118.13608 57.897655 
L 118.417898 62.589217 
L 118.699716 71.838444 
L 118.981534 72.058068 
L 119.263352 78.835638 
L 119.54517 48.700135 
L 119.826989 69.151889 
L 120.108807 52.930212 
L 120.390625 66.096965 
L 120.672443 66.553032 
L 120.954261 76.876548 
L 121.23608 55.497317 
L 121.517898 51.115701 
L 121.799716 44.03625 
L 122.081534 51.05182 
L 122.363352 50.556376 
L 122.64517 47.220406 
L 122.926989 48.866878 
L 123.208807 59.287779 
L 123.490625 53.814842 
L 124.054261 75.333709 
L 124.33608 66.979208 
L 124.617898 67.998484 
L 125.181534 56.908396 
L 125.463352 56.25427 
L 125.74517 62.683745 
L 126.026989 62.834119 
L 126.308807 61.864756 
L 126.590625 59.659047 
L 126.872443 66.219703 
L 127.43608 63.601624 
L 127.717898 67.449061 
L 127.999716 60.970884 
L 128.281534 60.75248 
L 128.563352 63.60389 
L 129.408807 58.813955 
L 129.690625 67.023484 
L 129.972443 68.229069 
L 130.254261 64.692444 
L 130.817898 70.902459 
L 131.099716 69.795967 
L 131.381534 74.728848 
L 131.94517 77.42436 
L 132.226989 83.33243 
L 132.508807 83.696863 
L 132.790625 81.139497 
L 133.072443 84.503779 
L 133.354261 82.653976 
L 133.63608 83.971179 
L 133.917898 83.117448 
L 134.199716 92.629959 
L 134.481534 90.330475 
L 134.763352 92.275981 
L 135.04517 90.397232 
L 135.326989 85.023339 
L 135.890625 91.154721 
L 136.172443 90.441416 
L 136.454261 93.864369 
L 136.73608 94.436591 
L 137.017898 92.705835 
L 137.299716 92.095729 
L 137.581534 93.933289 
L 137.863352 93.130061 
L 138.14517 96.57687 
L 138.426989 96.221721 
L 138.708807 97.915892 
L 139.272443 96.027037 
L 139.554261 98.865555 
L 139.83608 98.462802 
L 140.117898 99.901126 
L 140.681534 96.744706 
L 140.963352 101.116059 
L 141.24517 101.463043 
L 141.526989 99.407777 
L 141.808807 99.079392 
L 142.090625 101.748936 
L 142.372443 96.373721 
L 142.654261 98.877538 
L 142.93608 98.64235 
L 143.217898 101.755311 
L 143.499716 100.498503 
L 143.781534 100.197472 
L 144.063352 101.359065 
L 144.34517 103.278208 
L 144.626989 101.968927 
L 144.908807 102.623733 
L 145.190625 105.687596 
L 145.472443 105.591574 
L 145.754261 105.222651 
L 146.03608 105.442727 
L 146.317898 105.435291 
L 146.599716 106.080857 
L 146.881534 104.933541 
L 147.44517 105.439361 
L 147.726989 104.112317 
L 148.008807 107.187193 
L 148.290625 105.623654 
L 148.572443 108.334138 
L 148.854261 109.120913 
L 149.13608 108.514233 
L 149.417898 108.621994 
L 149.699716 110.088807 
L 149.981534 107.799802 
L 150.263352 110.200852 
L 150.54517 107.412463 
L 150.826989 110.288919 
L 151.108807 110.331991 
L 151.390625 109.867902 
L 151.672443 112.363599 
L 151.954261 111.384776 
L 152.23608 112.310107 
L 152.517898 111.154051 
L 152.799716 111.986557 
L 153.081534 111.672193 
L 153.363352 113.862704 
L 153.64517 113.19168 
L 153.926989 114.015056 
L 154.208807 115.817951 
L 154.490625 115.191117 
L 154.772443 113.570448 
L 155.054261 114.281939 
L 155.33608 113.887923 
L 155.617898 115.180849 
L 156.181534 113.208098 
L 156.463352 113.576696 
L 156.74517 112.998 
L 157.026989 113.869487 
L 157.590625 111.773753 
L 157.872443 114.315421 
L 158.154261 114.651964 
L 158.43608 113.95065 
L 158.717898 111.565328 
L 158.999716 113.268465 
L 159.281534 113.723887 
L 159.563352 116.218163 
L 159.84517 116.482947 
L 160.408807 116.223465 
L 160.690625 115.955427 
L 161.254261 116.043666 
L 161.53608 115.516151 
L 161.817898 115.237095 
L 162.099716 115.526654 
L 162.381534 116.500384 
L 162.663352 115.701997 
L 162.94517 115.514227 
L 163.226989 116.566719 
L 163.790625 113.033838 
L 164.072443 117.386173 
L 164.354261 115.030196 
L 164.63608 116.114283 
L 165.199716 116.685988 
L 165.481534 116.285479 
L 165.763352 116.383238 
L 166.04517 117.809727 
L 166.326989 116.247651 
L 166.890625 117.118397 
L 167.172443 116.978864 
L 167.454261 116.266156 
L 167.73608 116.828591 
L 168.017898 115.704825 
L 168.299716 117.848933 
L 168.581534 117.516695 
L 168.863352 118.217987 
L 169.14517 117.790735 
L 169.426989 117.613888 
L 169.708807 117.925882 
L 169.990625 116.471722 
L 170.272443 116.633613 
L 170.554261 116.587235 
L 170.83608 118.686857 
L 171.399716 116.579879 
L 171.681534 116.951022 
L 171.963352 118.058637 
L 172.526989 116.99867 
L 172.808807 118.228131 
L 173.090625 118.162169 
L 173.372443 117.314565 
L 173.654261 117.584009 
L 173.93608 116.539411 
L 174.217898 116.131323 
L 174.499716 116.251882 
L 175.063352 118.780418 
L 175.34517 117.675981 
L 175.626989 117.951128 
L 175.908807 117.44087 
L 176.190625 118.886704 
L 176.472443 119.55603 
L 177.03608 118.79163 
L 177.599716 118.79812 
L 177.881534 117.778909 
L 178.44517 119.614259 
L 178.726989 119.138963 
L 179.008807 117.891263 
L 179.290625 118.490706 
L 179.854261 118.425521 
L 180.13608 118.760239 
L 180.417898 117.305008 
L 180.699716 116.889487 
L 180.981534 118.018663 
L 181.263352 117.121134 
L 181.54517 117.851503 
L 181.826989 119.094316 
L 182.108807 118.676769 
L 182.390625 119.082107 
L 182.672443 118.623146 
L 182.954261 117.768881 
L 183.517898 118.825413 
L 183.799716 118.2673 
L 184.081534 119.092046 
L 184.363352 118.887891 
L 184.64517 118.195138 
L 184.926989 118.752301 
L 185.208807 118.149038 
L 185.490625 118.431451 
L 185.772443 119.302395 
L 186.33608 118.081396 
L 186.899716 120.398914 
L 187.181534 118.94 
L 187.463352 119.590047 
L 188.026989 118.686176 
L 188.308807 119.379729 
L 188.590625 119.397097 
L 188.872443 119.043407 
L 189.154261 119.561633 
L 189.999716 118.547244 
L 190.281534 118.335123 
L 190.84517 119.719201 
L 191.126989 119.506408 
L 191.408807 120.306386 
L 191.690625 119.454758 
L 191.972443 119.946772 
L 192.254261 119.823493 
L 192.53608 120.35784 
L 193.099716 120.023433 
L 193.381534 121.096725 
L 193.94517 119.595591 
L 194.226989 119.661148 
L 194.508807 120.087533 
L 194.790625 119.862036 
L 195.072443 120.239391 
L 195.354261 120.83174 
L 195.63608 119.818343 
L 195.917898 119.496576 
L 196.199716 120.018282 
L 196.481534 119.449078 
L 196.763352 119.43946 
L 197.04517 121.084304 
L 197.326989 120.896631 
L 197.608807 119.88671 
L 197.890625 121.115615 
L 198.172443 121.079473 
L 198.454261 120.582263 
L 198.73608 121.267944 
L 199.017898 118.883221 
L 199.299716 119.745675 
L 199.581534 121.08311 
L 199.863352 120.034706 
L 200.426989 120.845277 
L 200.708807 120.157877 
L 200.990625 121.521667 
L 201.554261 121.102262 
L 201.83608 120.238156 
L 202.117898 121.339193 
L 202.399716 120.199512 
L 202.681534 121.283286 
L 202.963352 121.328363 
L 203.24517 121.090805 
L 204.372443 121.636812 
L 204.654261 121.077947 
L 204.93608 121.476202 
L 205.217898 121.201237 
L 205.499716 121.400379 
L 206.063352 122.001312 
L 206.34517 122.243346 
L 206.626989 121.400922 
L 206.908807 121.35934 
L 207.190625 121.848311 
L 207.754261 122.28045 
L 208.03608 122.622874 
L 208.317898 122.336203 
L 208.599716 121.806722 
L 208.881534 122.501442 
L 209.726989 122.077469 
L 210.008807 122.280026 
L 210.290625 122.860493 
L 210.854261 122.665896 
L 211.13608 122.895017 
L 211.417898 122.338507 
L 211.981534 122.451576 
L 212.54517 121.707988 
L 212.826989 122.859794 
L 213.108807 122.667835 
L 213.672443 123.603367 
L 214.23608 122.382557 
L 214.517898 122.72702 
L 214.799716 123.601962 
L 215.081534 123.963273 
L 215.363352 123.736112 
L 215.64517 123.857175 
L 215.926989 122.995332 
L 216.208807 123.003966 
L 216.490625 123.310766 
L 216.772443 122.64072 
L 217.33608 124.149156 
L 217.899716 124.441286 
L 218.181534 123.90084 
L 218.463352 124.299631 
L 218.74517 124.292514 
L 219.026989 124.465209 
L 219.590625 124.244183 
L 219.872443 124.511954 
L 220.154261 123.637802 
L 220.43608 124.307783 
L 220.999716 124.127827 
L 221.281534 123.726083 
L 221.84517 123.724214 
L 222.126989 124.74 
L 222.408807 124.949683 
L 222.690625 123.838682 
L 222.972443 123.885097 
L 223.254261 124.16535 
L 223.53608 124.699011 
L 223.817898 124.508582 
L 224.099716 125.245366 
L 224.663352 124.571209 
L 224.94517 125.131734 
L 225.226989 125.363722 
L 225.790625 125.050739 
L 226.072443 125.055236 
L 226.354261 125.719419 
L 226.63608 125.032975 
L 226.917898 125.356857 
L 227.199716 124.376778 
L 227.481534 125.585305 
L 227.763352 125.55837 
L 228.04517 126.362388 
L 228.326989 125.94994 
L 228.608807 126.090182 
L 228.890625 125.831119 
L 229.73608 125.499097 
L 230.017898 125.888574 
L 230.299716 125.332861 
L 230.581534 125.287222 
L 230.863352 125.851303 
L 231.14517 124.967126 
L 231.708807 124.594401 
L 231.990625 125.561248 
L 232.272443 125.775176 
L 232.554261 125.727656 
L 232.83608 125.336836 
L 233.117898 125.301675 
L 233.399716 125.451579 
L 233.963352 124.365278 
L 234.24517 125.077519 
L 234.526989 124.378871 
L 234.808807 125.538634 
L 235.090625 125.434654 
L 235.93608 126.135326 
L 236.217898 125.767461 
L 236.499716 125.845781 
L 237.34517 125.635223 
L 237.626989 125.766875 
L 237.908807 125.191649 
L 238.190625 125.427896 
L 238.472443 125.349871 
L 238.754261 125.789513 
L 239.03608 125.161249 
L 239.599716 125.094227 
L 239.881534 124.689431 
L 240.163352 125.550149 
L 240.44517 124.966956 
L 240.726989 125.69994 
L 241.008807 125.228714 
L 241.290625 125.309919 
L 241.572443 125.213436 
L 241.854261 125.708024 
L 242.13608 125.588056 
L 242.417898 125.288172 
L 242.699716 126.054596 
L 242.981534 125.552537 
L 243.263352 125.544268 
L 243.54517 126.226752 
L 243.826989 125.488179 
L 244.390625 126.171901 
L 244.672443 125.513511 
L 244.954261 125.794149 
L 245.23608 125.658881 
L 245.517898 126.502453 
L 245.799716 126.525528 
L 246.081534 126.031675 
L 246.363352 126.090373 
L 246.64517 125.781718 
L 246.926989 125.779334 
L 247.208807 125.889086 
L 248.054261 126.961614 
L 248.33608 126.142468 
L 248.899716 126.914565 
L 249.181534 126.207148 
L 249.74517 126.59136 
L 250.026989 126.02833 
L 250.590625 126.177766 
L 250.872443 125.841597 
L 251.154261 125.92563 
L 251.43608 125.752012 
L 251.717898 126.261588 
L 251.999716 126.077602 
L 252.281534 126.604134 
L 252.563352 126.23771 
L 252.84517 126.861873 
L 253.126989 126.203507 
L 253.408807 126.376087 
L 253.972443 127.224808 
L 254.53608 126.415117 
L 254.817898 126.696078 
L 255.099716 127.224358 
L 255.663352 126.999313 
L 255.94517 127.609103 
L 256.226989 127.060794 
L 256.508807 127.279437 
L 256.790625 127.929773 
L 257.072443 127.681504 
L 257.354261 126.765478 
L 257.63608 127.210413 
L 257.917898 128.074752 
L 258.199716 127.983863 
L 258.763352 127.600631 
L 259.04517 127.585221 
L 259.326989 127.371201 
L 259.608807 128.154938 
L 260.454261 127.58216 
L 261.299716 128.134644 
L 261.581534 127.549762 
L 261.863352 128.180398 
L 262.14517 128.32243 
L 262.426989 128.220869 
L 262.708807 127.773186 
L 262.990625 128.274126 
L 263.272443 128.375967 
L 264.117898 128.272506 
L 264.681534 127.626651 
L 264.963352 127.882218 
L 265.24517 128.622262 
L 265.526989 128.624273 
L 265.808807 128.380195 
L 266.654261 127.226119 
L 266.93608 127.475618 
L 267.217898 127.335648 
L 267.499716 127.884496 
L 268.063352 128.029227 
L 268.34517 127.075883 
L 268.626989 127.338533 
L 268.908807 128.281584 
L 269.190625 128.207444 
L 269.472443 127.372999 
L 269.754261 127.572064 
L 270.03608 127.077766 
L 270.599716 128.311318 
L 270.881534 128.307992 
L 271.44517 127.580508 
L 271.726989 126.764973 
L 272.008807 127.734314 
L 272.290625 126.768116 
L 272.572443 126.896653 
L 272.854261 126.813981 
L 273.13608 127.304233 
L 273.417898 127.431338 
L 273.699716 126.937992 
L 273.981534 126.795393 
L 274.263352 127.407002 
L 274.826989 127.013732 
L 275.108807 127.122365 
L 275.390625 128.153388 
L 275.672443 126.857992 
L 275.954261 127.826451 
L 276.23608 127.222345 
L 276.517898 127.428328 
L 276.799716 126.994658 
L 277.081534 127.659318 
L 277.363352 126.673171 
L 277.64517 127.574447 
L 277.926989 127.432291 
L 278.208807 128.323104 
L 278.490625 128.007326 
L 278.772443 127.952391 
L 279.054261 127.181402 
L 279.33608 128.105599 
L 279.617898 127.729914 
L 279.899716 128.242449 
L 280.181534 128.175044 
L 280.463352 127.805558 
L 280.74517 128.141651 
L 281.026989 128.10651 
L 281.308807 128.312509 
L 281.590625 127.661634 
L 282.154261 128.423643 
L 282.43608 128.112519 
L 282.717898 128.424213 
L 283.281534 128.212217 
L 283.563352 128.250398 
L 283.84517 127.226366 
L 284.126989 127.538592 
L 284.408807 128.460846 
L 284.690625 128.842332 
L 284.972443 128.382478 
L 285.254261 128.311378 
L 285.53608 129.098682 
L 286.099716 128.93048 
L 286.663352 129.345805 
L 286.94517 129.571246 
L 287.226989 129.133117 
L 287.508807 128.924347 
L 287.790625 129.6165 
L 288.354261 128.979247 
L 288.63608 129.156974 
L 288.917898 128.539898 
L 289.481534 129.568516 
L 289.763352 128.962134 
L 290.04517 128.878142 
L 290.326989 129.052093 
L 290.608807 128.657464 
L 290.890625 128.693572 
L 291.172443 129.237439 
L 291.454261 129.440119 
L 291.73608 128.315439 
L 292.017898 129.084725 
L 292.299716 129.259416 
L 292.581534 129.020508 
L 293.426989 129.65396 
L 293.708807 129.759707 
L 293.990625 129.736929 
L 294.554261 130.095301 
L 295.399716 129.332092 
L 295.681534 129.546395 
L 295.963352 129.575164 
L 296.24517 129.787767 
L 296.526989 129.783134 
L 297.090625 130.133199 
L 297.654261 129.863755 
L 297.93608 130.226971 
L 298.217898 129.521859 
L 298.499716 129.919794 
L 298.781534 129.266993 
L 299.063352 130.362737 
L 299.34517 129.671953 
L 299.626989 130.100109 
L 299.908807 130.124111 
L 300.190625 130.386335 
L 300.472443 130.077366 
L 300.754261 130.468662 
L 301.03608 130.247035 
L 301.317898 130.502511 
L 301.599716 129.622565 
L 301.881534 130.044121 
L 302.163352 129.637852 
L 302.44517 129.852127 
L 302.726989 129.820835 
L 303.008807 130.095071 
L 303.290625 129.915606 
L 303.572443 130.056417 
L 304.417898 129.462623 
L 304.699716 129.722866 
L 304.981534 129.678706 
L 305.263352 129.344987 
L 305.54517 129.697922 
L 305.826989 129.556763 
L 306.108807 129.590645 
L 306.390625 129.844723 
L 306.672443 129.945158 
L 306.954261 129.664395 
L 307.23608 130.114712 
L 307.517898 129.91082 
L 307.799716 130.040111 
L 308.081534 129.634323 
L 308.363352 130.2478 
L 308.64517 129.693251 
L 308.926989 129.574529 
L 309.208807 128.501651 
L 309.490625 129.833853 
L 309.772443 129.795103 
L 310.617898 130.259546 
L 310.899716 129.709199 
L 311.181534 130.61436 
L 311.463352 129.822597 
L 311.74517 130.118296 
L 312.026989 129.588654 
L 312.308807 130.485866 
L 312.590625 129.886924 
L 313.43608 130.319328 
L 313.717898 129.869323 
L 313.999716 130.428421 
L 314.563352 129.777697 
L 314.84517 130.069704 
L 315.126989 129.903047 
L 315.408807 130.419247 
L 315.690625 130.241578 
L 315.972443 130.275795 
L 316.254261 130.005742 
L 316.53608 129.965241 
L 317.381534 130.486054 
L 317.663352 130.162824 
L 318.226989 130.735584 
L 318.508807 130.176004 
L 319.072443 130.229223 
L 319.354261 130.476132 
L 319.63608 130.424463 
L 319.917898 129.924593 
L 320.481534 130.363919 
L 321.04517 130.355589 
L 321.326989 130.739932 
L 321.608807 130.694598 
L 321.890625 130.334052 
L 322.172443 129.444201 
L 323.017898 130.348248 
L 323.299716 130.020741 
L 323.581534 129.961073 
L 323.863352 130.082845 
L 324.14517 130.397618 
L 324.426989 129.982875 
L 324.708807 130.561671 
L 324.990625 130.213164 
L 325.272443 130.604929 
L 325.554261 131.294337 
L 325.83608 130.740751 
L 326.117898 130.589133 
L 326.399716 130.822809 
L 326.681534 130.283417 
L 326.963352 130.68735 
L 327.24517 130.50424 
L 327.526989 129.904625 
L 327.808807 130.646921 
L 328.372443 129.985194 
L 328.654261 129.977035 
L 328.93608 130.223887 
L 329.217898 130.193264 
L 329.499716 129.997993 
L 330.063352 130.397035 
L 330.626989 130.167881 
L 331.190625 130.305398 
L 331.472443 130.505332 
L 331.754261 130.181581 
L 332.03608 130.489115 
L 332.599716 130.091959 
L 332.881534 129.265459 
L 333.163352 129.368122 
L 333.44517 129.748727 
L 333.726989 129.728249 
L 334.008807 129.272479 
L 334.290625 129.345508 
L 334.572443 129.594932 
L 334.854261 129.031852 
L 335.417898 130.163698 
L 335.699716 130.015808 
L 335.981534 130.398374 
L 336.263352 130.497082 
L 336.54517 130.284284 
L 336.826989 129.895821 
L 337.108807 129.95164 
L 337.390625 130.228593 
L 337.672443 129.924436 
L 337.954261 129.945637 
L 338.23608 129.703161 
L 338.517898 129.928617 
L 338.799716 129.874596 
L 339.081534 129.065751 
L 339.363352 129.610412 
L 339.64517 129.641082 
L 339.926989 130.025137 
L 340.208807 129.282538 
L 340.490625 129.887531 
L 340.772443 129.134435 
L 341.054261 129.5941 
L 341.33608 129.310474 
L 341.617898 129.619078 
L 342.181534 129.876 
L 342.74517 129.413999 
L 343.026989 129.846728 
L 343.308807 129.839309 
L 343.590625 129.532719 
L 343.872443 129.929045 
L 344.154261 129.81411 
L 344.43608 129.001903 
L 344.999716 129.802867 
L 345.281534 129.036354 
L 345.563352 129.566592 
L 345.84517 128.963836 
L 346.126989 129.210057 
L 346.408807 129.202111 
L 346.690625 128.938855 
L 346.972443 128.992754 
L 347.254261 129.552311 
L 347.53608 129.595012 
L 347.817898 129.500006 
L 348.099716 129.81267 
L 348.381534 129.091221 
L 348.94517 129.779661 
L 349.226989 129.192974 
L 349.508807 129.568089 
L 349.790625 129.663963 
L 350.072443 129.337801 
L 350.354261 129.403436 
L 350.63608 129.2691 
L 350.917898 129.505534 
L 351.481534 129.271972 
L 351.763352 128.770547 
L 352.04517 129.282876 
L 352.326989 128.817693 
L 352.608807 129.648637 
L 353.172443 129.777384 
L 353.454261 129.827788 
L 353.73608 129.643045 
L 354.017898 129.849396 
L 354.299716 129.708486 
L 354.581534 129.771251 
L 354.863352 129.565484 
L 355.14517 130.118856 
L 355.426989 130.012593 
L 355.708807 129.504526 
L 355.990625 129.831151 
L 356.272443 130.334078 
L 356.554261 129.457748 
L 356.83608 129.939677 
L 357.117898 129.908597 
L 357.399716 129.673478 
L 357.681534 129.825302 
L 357.963352 129.424542 
L 358.24517 130.086837 
L 358.526989 129.326513 
L 358.808807 129.394737 
L 359.372443 130.025031 
L 359.654261 129.457657 
L 359.93608 129.465405 
L 360.217898 128.855817 
L 360.781534 129.675592 
L 361.063352 129.273101 
L 361.34517 129.699137 
L 362.190625 129.275913 
L 362.472443 129.060016 
L 362.754261 129.018594 
L 363.03608 129.602737 
L 363.317898 129.918736 
L 363.599716 129.743232 
L 363.881534 129.039499 
L 364.163352 129.410146 
L 364.44517 129.372393 
L 364.726989 129.181139 
L 365.008807 129.177771 
L 365.290625 129.014223 
L 365.572443 129.492857 
L 365.854261 128.96327 
L 366.13608 129.274704 
L 366.699716 129.293524 
L 366.981534 129.699108 
L 367.263352 129.333775 
L 367.54517 129.364506 
L 367.826989 129.227237 
L 368.390625 129.937171 
L 368.672443 129.694828 
L 368.954261 130.339109 
L 369.23608 130.202544 
L 369.517898 129.356784 
L 369.799716 130.455383 
L 370.363352 128.905974 
L 370.64517 129.542912 
L 370.926989 129.139699 
L 371.208807 129.622053 
L 371.490625 129.102166 
L 371.772443 129.624722 
L 372.054261 129.29776 
L 372.33608 129.665699 
L 372.617898 129.234349 
L 373.181534 129.9291 
L 373.74517 129.623833 
L 374.308807 129.901507 
L 374.590625 129.783073 
L 375.154261 130.009547 
L 375.43608 129.779832 
L 375.717898 129.397797 
L 375.999716 129.898398 
L 376.563352 129.799989 
L 376.84517 130.19684 
L 377.126989 129.902221 
L 377.408807 130.106436 
L 377.690625 129.724585 
L 378.254261 130.254489 
L 378.53608 129.517266 
L 378.817898 130.249029 
L 379.099716 129.543914 
L 379.381534 129.596553 
L 379.663352 129.270234 
L 380.226989 129.248627 
L 380.790625 129.526264 
L 381.354261 129.563824 
L 381.63608 129.311416 
L 382.199716 129.2001 
L 382.481534 129.41512 
L 382.763352 130.050375 
L 383.04517 129.880463 
L 383.608807 129.140209 
L 383.890625 129.622756 
L 384.172443 129.33362 
L 384.454261 129.694871 
L 384.73608 128.930139 
L 385.017898 129.217149 
L 385.581534 129.404956 
L 385.863352 129.136685 
L 386.14517 130.160433 
L 386.426989 129.430545 
L 386.708807 129.717037 
L 386.990625 129.120133 
L 387.272443 129.5394 
L 387.83608 129.265994 
L 388.117898 129.492653 
L 388.399716 130.105262 
L 388.681534 128.873867 
L 389.24517 129.19581 
L 389.526989 128.567282 
L 389.808807 129.009785 
L 390.090625 128.841077 
L 390.372443 129.666749 
L 390.654261 129.075663 
L 390.93608 129.469776 
L 391.217898 129.376064 
L 391.499716 129.002378 
L 391.781534 129.031508 
L 392.34517 128.839035 
L 392.626989 128.245778 
L 392.908807 128.814183 
L 393.190625 128.826568 
L 393.472443 128.56749 
L 393.754261 128.927847 
L 394.03608 129.097931 
L 394.317898 128.994362 
L 394.599716 129.273158 
L 394.881534 128.838646 
L 395.163352 128.999002 
L 395.44517 128.377869 
L 395.726989 128.440455 
L 396.008807 129.010179 
L 396.290625 128.580631 
L 396.572443 129.050767 
L 396.854261 128.845646 
L 397.13608 129.086807 
L 397.699716 129.15741 
L 397.981534 129.5106 
L 398.263352 128.575541 
L 398.826989 128.760225 
L 399.108807 129.086237 
L 399.672443 128.731246 
L 400.23608 129.323534 
L 400.517898 128.882291 
L 400.799716 129.199844 
L 401.081534 129.260641 
L 401.363352 129.715386 
L 401.64517 129.606151 
L 401.926989 129.301528 
L 402.208807 129.802307 
L 402.490625 129.950324 
L 402.772443 129.699864 
L 403.054261 129.874097 
L 403.33608 129.799927 
L 403.617898 130.122401 
L 403.899716 130.100335 
L 404.181534 129.822963 
L 405.026989 129.595272 
L 405.308807 129.9061 
L 405.872443 130.102403 
L 406.154261 129.877028 
L 406.43608 129.822044 
L 406.717898 130.242333 
L 406.999716 129.830423 
L 407.563352 129.706848 
L 407.84517 130.056645 
L 408.408807 129.658311 
L 408.690625 129.922129 
L 408.972443 129.511503 
L 409.254261 129.799767 
L 409.817898 129.697311 
L 410.099716 129.698124 
L 410.381534 130.046745 
L 410.663352 129.713902 
L 410.94517 129.811349 
L 411.226989 130.063575 
L 411.508807 129.193286 
L 411.790625 129.724635 
L 412.072443 129.657031 
L 412.354261 129.248464 
L 412.63608 129.568345 
L 412.917898 129.219842 
L 413.199716 129.909134 
L 413.481534 129.257718 
L 413.763352 129.274771 
L 414.04517 129.128446 
L 414.326989 129.49554 
L 414.608807 129.473543 
L 414.890625 129.575969 
L 415.454261 129.300355 
L 416.017898 128.870192 
L 416.581534 129.004234 
L 416.863352 128.737137 
L 417.14517 129.50202 
L 417.426989 129.2725 
L 417.708807 129.694257 
L 418.272443 129.29811 
L 418.554261 129.580447 
L 418.83608 129.122254 
L 419.117898 129.78399 
L 419.399716 129.300112 
L 419.681534 129.313821 
L 419.963352 128.890595 
L 420.24517 129.019493 
L 420.526989 129.438576 
L 420.808807 129.237903 
L 421.090625 129.726783 
L 421.372443 128.955365 
L 421.654261 129.385717 
L 421.93608 129.172345 
L 422.217898 129.462424 
L 422.781534 128.807651 
L 423.063352 129.433521 
L 423.34517 129.657752 
L 423.626989 129.521103 
L 423.908807 129.649701 
L 424.190625 130.221773 
L 424.754261 129.944898 
L 425.317898 129.363485 
L 425.599716 129.732546 
L 425.881534 129.706345 
L 426.163352 130.18155 
L 426.44517 129.130463 
L 426.726989 129.499494 
L 427.290625 129.123866 
L 427.572443 129.637462 
L 427.854261 129.442032 
L 428.13608 129.511014 
L 428.699716 129.058644 
L 428.981534 129.60906 
L 429.54517 129.497795 
L 429.826989 129.797556 
L 430.108807 129.384087 
L 430.390625 129.356319 
L 430.672443 129.781112 
L 431.517898 129.27109 
L 432.081534 128.989895 
L 432.64517 129.062661 
L 432.926989 128.85382 
L 433.208807 129.446803 
L 433.490625 128.935977 
L 433.772443 129.123099 
L 434.054261 129.496972 
L 434.33608 129.571477 
L 434.617898 129.448486 
L 434.899716 129.524786 
L 435.181534 129.226414 
L 435.463352 129.211072 
L 435.74517 128.875025 
L 436.308807 128.952538 
L 436.590625 129.462962 
L 437.154261 128.496338 
L 437.43608 129.54042 
L 437.999716 128.991579 
L 438.281534 129.523479 
L 438.563352 129.606585 
L 438.84517 129.064465 
L 439.408807 129.514023 
L 439.690625 129.579943 
L 439.972443 129.492179 
L 440.254261 129.261606 
L 440.53608 129.510614 
L 440.817898 129.445875 
L 441.099716 129.803308 
L 441.381534 129.184501 
L 441.663352 129.379273 
L 441.94517 129.355883 
L 442.226989 129.889387 
L 442.508807 129.523718 
L 442.790625 129.38543 
L 443.354261 129.336524 
L 443.63608 129.622795 
L 443.917898 129.359805 
L 444.199716 129.582036 
L 444.481534 129.511781 
L 444.763352 129.21919 
L 445.04517 129.682594 
L 445.326989 129.575525 
L 445.608807 129.732211 
L 445.890625 129.452428 
L 446.172443 129.57343 
L 446.454261 129.343953 
L 447.017898 129.836596 
L 447.299716 129.896478 
L 447.863352 129.396517 
L 448.14517 129.840954 
L 448.426989 129.315289 
L 448.708807 129.479751 
L 448.990625 129.788044 
L 449.272443 129.379115 
L 449.554261 129.464909 
L 449.83608 129.72964 
L 450.117898 129.020022 
L 450.399716 129.199585 
L 450.963352 129.304889 
L 451.24517 129.139614 
L 451.526989 129.280327 
L 451.808807 128.851629 
L 452.090625 129.392385 
L 452.372443 129.306136 
L 452.654261 129.432736 
L 452.93608 129.292222 
L 453.217898 129.882478 
L 453.781534 129.442961 
L 454.063352 129.709876 
L 454.626989 129.479887 
L 454.908807 129.937817 
L 455.190625 129.6404 
L 455.472443 129.128633 
L 455.754261 129.435908 
L 456.03608 129.31177 
L 456.317898 128.821428 
L 456.599716 129.516342 
L 456.881534 129.079846 
L 457.163352 129.725581 
L 457.44517 129.960516 
L 457.726989 129.695112 
L 458.008807 129.865406 
L 458.572443 129.467901 
L 458.854261 129.835513 
L 459.13608 129.45184 
L 459.981534 129.868273 
L 460.263352 129.624646 
L 460.54517 130.040334 
L 461.108807 130.172623 
L 461.390625 129.724317 
L 461.672443 129.865639 
L 461.954261 130.188866 
L 462.23608 129.740526 
L 462.517898 129.6303 
L 462.799716 130.437957 
L 463.363352 129.984182 
L 463.64517 130.249862 
L 464.208807 129.815413 
L 464.772443 129.99769 
L 465.054261 129.801395 
L 465.33608 129.998155 
L 465.617898 129.816605 
L 465.899716 129.828816 
L 466.181534 129.967745 
L 466.463352 129.530592 
L 466.74517 129.760931 
L 467.026989 129.556921 
L 467.308807 130.348207 
L 467.590625 130.70572 
L 467.872443 129.450114 
L 468.154261 129.926243 
L 468.43608 129.676824 
L 468.717898 129.984201 
L 468.999716 129.713325 
L 469.281534 130.18868 
L 469.563352 130.127643 
L 469.84517 129.717947 
L 470.126989 129.963325 
L 470.408807 129.994539 
L 470.690625 129.875418 
L 470.972443 129.925317 
L 471.254261 130.363943 
L 471.817898 129.751468 
L 472.099716 129.893227 
L 472.663352 129.748545 
L 472.94517 129.946448 
L 473.226989 129.83901 
L 473.508807 129.419426 
L 473.790625 129.424183 
L 474.072443 130.136087 
L 474.354261 129.759768 
L 474.63608 130.017333 
L 474.917898 129.576246 
L 475.199716 129.96932 
L 475.481534 129.440286 
L 475.763352 129.690048 
L 476.04517 130.100448 
L 476.326989 129.791428 
L 476.608807 129.967481 
L 476.890625 129.94543 
L 477.454261 130.352642 
L 478.017898 129.894532 
L 478.299716 130.272412 
L 478.581534 130.359727 
L 478.863352 130.290731 
L 479.14517 130.448816 
L 479.426989 130.069052 
L 479.990625 130.289215 
L 480.272443 130.070962 
L 480.554261 130.242757 
L 480.83608 130.058044 
L 481.117898 130.358225 
L 481.399716 129.982377 
L 481.963352 130.052075 
L 482.526989 129.500457 
L 482.808807 130.502013 
L 483.090625 129.99777 
L 483.654261 129.66346 
L 483.93608 129.654681 
L 484.217898 129.876855 
L 484.781534 130.056785 
L 485.063352 129.903017 
L 485.34517 129.989356 
L 485.626989 129.72271 
L 485.908807 130.420184 
L 486.190625 130.168323 
L 486.472443 130.513852 
L 486.754261 129.931979 
L 487.03608 130.543259 
L 487.317898 130.324122 
L 487.599716 130.274369 
L 487.881534 129.716758 
L 488.163352 129.947767 
L 488.726989 129.907772 
L 489.008807 130.187832 
L 489.572443 130.009947 
L 489.854261 129.959176 
L 490.13608 130.128845 
L 491.263352 129.855749 
L 491.54517 129.953296 
L 491.826989 129.875475 
L 492.108807 130.23878 
L 492.672443 129.929678 
L 493.23608 130.216301 
L 493.517898 130.51656 
L 493.799716 130.115561 
L 494.081534 129.944862 
L 494.363352 130.249304 
L 494.64517 130.062954 
L 495.208807 130.15239 
L 495.490625 130.516736 
L 496.054261 130.374908 
L 496.33608 130.604817 
L 496.617898 130.479651 
L 496.899716 130.810025 
L 497.181534 130.310741 
L 497.463352 130.799782 
L 497.74517 130.849729 
L 498.026989 130.317247 
L 498.590625 130.516741 
L 498.872443 130.275585 
L 499.154261 130.291907 
L 499.717898 129.935586 
L 499.999716 129.705002 
L 500.281534 129.968654 
L 500.563352 129.900032 
L 500.84517 130.111113 
L 501.126989 129.865407 
L 501.408807 129.931219 
L 501.690625 130.139007 
L 501.972443 129.856051 
L 502.254261 129.903933 
L 502.53608 130.170677 
L 503.099716 129.593155 
L 503.381534 130.266506 
L 503.663352 129.906515 
L 503.94517 130.225397 
L 504.226989 129.840535 
L 504.508807 130.07707 
L 504.790625 130.139934 
L 505.072443 129.53315 
L 505.354261 129.581369 
L 505.63608 130.091385 
L 506.199716 130.39865 
L 506.481534 130.281634 
L 506.763352 130.462478 
L 507.326989 129.882831 
L 507.608807 130.29118 
L 507.890625 130.192206 
L 508.172443 129.954249 
L 508.73608 130.526409 
L 509.299716 130.024417 
L 509.581534 130.510948 
L 510.14517 130.575007 
L 510.426989 130.507783 
L 510.708807 130.24699 
L 510.990625 130.265493 
L 511.272443 130.477993 
L 511.554261 130.378056 
L 511.83608 130.138071 
L 512.963352 130.183653 
L 513.24517 129.371924 
L 513.526989 129.37723 
L 513.808807 129.238581 
L 514.090625 129.848817 
L 514.372443 129.320916 
L 514.93608 130.346846 
L 515.217898 129.741806 
L 515.499716 129.747333 
L 515.781534 129.569302 
L 516.063352 129.976657 
L 516.34517 129.580482 
L 516.908807 129.630947 
L 517.190625 129.124811 
L 517.472443 129.749459 
L 517.754261 129.352507 
L 518.317898 129.435989 
L 518.599716 129.645588 
L 518.881534 129.217707 
L 519.163352 129.459766 
L 519.44517 129.325309 
L 519.726989 129.507689 
L 520.008807 129.505483 
L 520.290625 129.650807 
L 520.572443 129.1473 
L 520.854261 129.414349 
L 521.13608 129.233745 
L 521.417898 129.62114 
L 521.699716 129.205077 
L 521.981534 129.964109 
L 522.263352 129.676834 
L 522.54517 129.994424 
L 523.390625 129.971718 
L 523.672443 129.643 
L 523.954261 130.14189 
L 524.23608 129.28967 
L 524.799716 130.194342 
L 525.363352 129.370981 
L 525.926989 129.687996 
L 526.208807 130.315318 
L 526.490625 129.993432 
L 526.772443 129.973416 
L 527.054261 129.345928 
L 527.33608 129.826678 
L 527.617898 129.918547 
L 527.899716 129.735927 
L 528.181534 129.950543 
L 528.463352 129.775137 
L 528.74517 130.138228 
L 529.308807 129.993206 
L 529.590625 130.037026 
L 529.872443 129.676673 
L 530.154261 130.012923 
L 530.43608 129.968165 
L 530.717898 129.519359 
L 530.999716 129.442734 
L 531.563352 129.888315 
L 531.84517 129.246611 
L 532.126989 129.463434 
L 532.408807 129.42309 
L 532.690625 129.937439 
L 533.254261 129.920235 
L 533.53608 129.509941 
L 533.817898 130.006985 
L 534.099716 129.643469 
L 534.94517 130.196112 
L 535.226989 129.685273 
L 535.790625 129.976608 
L 536.072443 129.464967 
L 536.354261 129.737233 
L 536.917898 129.861719 
L 537.199716 129.664028 
L 537.481534 129.754975 
L 537.763352 130.041056 
L 538.04517 129.646011 
L 538.326989 129.957329 
L 538.608807 129.916543 
L 539.172443 130.125487 
L 539.454261 129.865277 
L 539.73608 130.002475 
L 540.017898 129.894204 
L 540.299716 129.492841 
L 540.581534 129.431343 
L 540.863352 129.667043 
L 541.14517 129.670024 
L 541.426989 129.328093 
L 541.708807 129.688982 
L 541.990625 129.687974 
L 542.272443 129.538604 
L 542.554261 129.769798 
L 542.83608 129.761666 
L 543.117898 129.990004 
L 543.399716 129.401124 
L 543.681534 129.86412 
L 544.526989 129.446086 
L 544.808807 129.67754 
L 545.090625 130.070999 
L 545.372443 129.786346 
L 545.654261 129.698637 
L 545.93608 129.402492 
L 546.217898 129.997671 
L 546.499716 129.620257 
L 546.781534 129.86406 
L 547.063352 129.941256 
L 547.34517 130.185578 
L 547.626989 130.015004 
L 547.908807 130.136425 
L 548.190625 129.805566 
L 548.472443 129.773396 
L 548.754261 129.910437 
L 549.03608 130.36057 
L 549.317898 130.060843 
L 549.599716 130.029431 
L 549.881534 129.837197 
L 550.163352 130.065819 
L 550.44517 130.138698 
L 551.008807 129.854661 
L 551.290625 129.901732 
L 551.572443 129.749885 
L 551.854261 130.04958 
L 552.13608 129.852055 
L 552.699716 129.75108 
L 552.981534 130.098498 
L 553.54517 130.327073 
L 553.826989 130.014289 
L 554.108807 129.992794 
L 554.390625 129.711087 
L 554.672443 130.504402 
L 554.954261 129.926739 
L 555.23608 130.502778 
L 555.799716 130.191619 
L 556.081534 130.301014 
L 556.363352 130.560973 
L 556.64517 130.32816 
L 556.926989 131.026182 
L 557.490625 130.142439 
L 557.772443 130.453694 
L 558.054261 130.366937 
L 558.33608 130.452992 
L 558.617898 129.757263 
L 558.899716 129.638435 
L 559.181534 129.867173 
L 559.463352 130.712006 
L 559.74517 130.721839 
L 560.308807 130.344202 
L 560.590625 130.458389 
L 560.872443 130.013942 
L 561.154261 130.336517 
L 561.43608 130.422266 
L 561.717898 130.219149 
L 561.999716 130.413966 
L 562.281534 130.100774 
L 562.563352 130.276927 
L 563.126989 130.897638 
L 563.408807 130.518907 
L 563.690625 130.753962 
L 563.972443 130.157476 
L 564.254261 130.084419 
L 564.53608 130.830762 
L 565.099716 130.213425 
L 565.381534 130.672204 
L 565.663352 130.32692 
L 565.94517 130.80796 
L 566.508807 130.393164 
L 566.790625 130.327747 
L 567.072443 130.071959 
L 567.354261 130.332992 
L 567.63608 130.251132 
L 567.917898 130.295532 
L 568.199716 130.785195 
L 568.763352 130.204197 
L 569.326989 130.180023 
L 569.890625 129.793333 
L 570.454261 130.542689 
L 571.017898 129.786181 
L 571.581534 130.284327 
L 571.863352 129.881315 
L 572.14517 129.920437 
L 572.708807 130.265978 
L 573.272443 130.118479 
L 573.554261 130.448301 
L 573.83608 130.28406 
L 574.117898 130.488101 
L 574.399716 129.822612 
L 574.681534 130.034821 
L 574.963352 129.940008 
L 575.24517 130.10117 
L 575.526989 130.118262 
L 575.808807 129.657838 
L 576.090625 129.974765 
L 576.654261 129.765674 
L 576.93608 130.010405 
L 577.217898 130.563369 
L 577.499716 130.350073 
L 577.781534 129.659354 
L 578.063352 130.130414 
L 578.34517 129.815835 
L 578.626989 129.80407 
L 578.908807 130.225267 
L 579.190625 130.219813 
L 579.472443 130.46421 
L 579.754261 129.990708 
L 580.03608 130.069737 
L 580.317898 130.029542 
L 580.599716 130.230316 
L 580.881534 130.205194 
L 581.163352 129.784417 
L 581.726989 130.107159 
L 582.008807 129.662996 
L 582.290625 129.965926 
L 582.572443 129.646569 
L 582.854261 129.897376 
L 583.13608 129.526818 
L 583.417898 129.937127 
L 583.699716 129.305825 
L 583.981534 129.665387 
L 584.54517 129.729034 
L 584.826989 129.234923 
L 585.108807 129.256892 
L 585.390625 129.684833 
L 585.672443 129.446582 
L 585.954261 129.760597 
L 586.517898 129.581336 
L 586.799716 129.725355 
L 587.081534 129.622515 
L 587.926989 130.120267 
L 588.208807 130.086405 
L 588.490625 129.650392 
L 588.772443 130.001785 
L 589.054261 129.577023 
L 589.33608 129.594431 
L 589.617898 130.024853 
L 590.181534 130.190573 
L 590.463352 129.793445 
L 590.74517 130.336676 
L 591.026989 129.820627 
L 591.308807 130.081205 
L 591.590625 129.924682 
L 591.872443 130.04112 
L 592.154261 129.630124 
L 592.43608 129.699259 
L 592.717898 130.290813 
L 592.999716 130.264615 
L 593.281534 130.420365 
L 593.563352 129.846612 
L 593.84517 130.24051 
L 594.126989 129.972123 
L 594.972443 129.985358 
L 595.254261 129.440801 
L 595.53608 129.702363 
L 595.817898 129.753461 
L 596.099716 130.189816 
L 596.381534 129.657687 
L 596.663352 129.846293 
L 596.94517 129.507312 
L 597.226989 129.824716 
L 597.508807 129.687573 
L 597.790625 129.898763 
L 598.072443 129.315329 
L 598.354261 129.775243 
L 598.63608 129.401633 
L 598.917898 129.700178 
L 599.199716 128.911862 
L 599.763352 129.620877 
L 600.04517 129.641427 
L 600.326989 129.932628 
L 600.608807 129.93416 
L 600.890625 130.11059 
L 601.172443 129.543936 
L 601.454261 129.416732 
L 601.73608 129.795326 
L 602.017898 129.767706 
L 602.299716 130.136561 
L 602.581534 129.567311 
L 602.863352 129.407431 
L 603.14517 130.277219 
L 603.426989 129.925211 
L 603.708807 130.253616 
L 603.990625 130.049804 
L 604.272443 130.062296 
L 604.554261 129.661297 
L 604.83608 130.104825 
L 605.117898 128.747828 
L 605.681534 128.958803 
L 605.963352 128.843629 
L 606.526989 129.866968 
L 606.808807 129.732852 
L 607.090625 130.296979 
L 607.372443 129.733879 
L 607.654261 130.106321 
L 607.93608 129.860774 
L 608.499716 129.950667 
L 608.781534 130.204273 
L 609.063352 130.085178 
L 609.34517 129.786675 
L 609.626989 129.847214 
L 609.908807 130.121428 
L 610.190625 129.836714 
L 611.03608 129.719199 
L 611.317898 130.282086 
L 611.599716 129.665457 
L 611.881534 129.580009 
L 612.163352 130.123607 
L 612.44517 129.667034 
L 612.726989 130.105464 
L 613.290625 129.757015 
L 613.572443 129.990969 
L 613.854261 129.98588 
L 614.13608 129.604029 
L 614.417898 129.890315 
L 614.699716 129.681668 
L 614.981534 129.70196 
L 615.263352 129.854465 
L 615.54517 129.616926 
L 615.826989 129.628251 
L 616.108807 130.014756 
L 616.390625 129.542628 
L 616.672443 129.434995 
L 617.23608 129.944505 
L 617.517898 130.039275 
L 617.799716 129.611186 
L 618.363352 129.434942 
L 618.64517 129.822581 
L 618.926989 129.673573 
L 619.772443 129.867006 
L 620.054261 129.691863 
L 620.617898 129.757318 
L 621.181534 129.532455 
L 621.463352 129.594387 
L 621.74517 129.427521 
L 622.026989 129.894332 
L 622.308807 129.905412 
L 622.590625 129.333059 
L 622.872443 129.737757 
L 623.43608 129.427349 
L 623.717898 129.500023 
L 623.999716 129.705787 
L 624.281534 129.548662 
L 624.84517 129.022783 
L 625.126989 129.532456 
L 625.126989 129.532456 
" clip-path="url(#p652b2c4e39)" style="fill: none; stroke: #1f77b4; stroke-width: 1.5; stroke-linecap: square"/>
   </g>
   <g id="line2d_15">
    <path d="M 117.854261 296.03625 
L 118.417898 214.115786 
L 118.699716 230.211874 
L 118.981534 218.599268 
L 119.263352 201.279694 
L 119.54517 204.535087 
L 119.826989 177.439579 
L 120.108807 178.201539 
L 120.390625 178.387096 
L 120.672443 192.048813 
L 120.954261 174.811641 
L 121.23608 173.893449 
L 121.517898 172.251017 
L 121.799716 166.690114 
L 122.081534 165.151511 
L 122.363352 167.933912 
L 122.64517 161.328426 
L 122.926989 164.204354 
L 123.208807 153.408818 
L 123.490625 156.496962 
L 124.054261 141.56019 
L 124.33608 150.693481 
L 124.617898 143.469704 
L 124.899716 147.780062 
L 125.181534 149.479849 
L 125.463352 140.208749 
L 125.74517 138.160794 
L 126.026989 138.65618 
L 126.308807 140.776186 
L 126.590625 140.215124 
L 126.872443 138.391512 
L 127.154261 140.082936 
L 127.43608 140.228622 
L 127.999716 141.201404 
L 128.281534 139.392105 
L 128.563352 138.851676 
L 128.84517 139.384558 
L 129.408807 142.600893 
L 129.690625 135.421926 
L 129.972443 138.496197 
L 130.254261 137.892038 
L 130.817898 136.234525 
L 131.099716 136.311622 
L 131.381534 135.915689 
L 131.663352 136.605064 
L 132.226989 133.797282 
L 132.790625 135.471295 
L 133.072443 135.576047 
L 133.63608 136.853589 
L 133.917898 136.368541 
L 134.199716 134.730041 
L 134.481534 135.079856 
L 134.763352 134.857729 
L 135.04517 135.928269 
L 135.326989 135.902864 
L 135.608807 135.479767 
L 135.890625 136.290746 
L 136.454261 134.739593 
L 136.73608 134.136329 
L 137.017898 135.905185 
L 137.299716 134.292529 
L 137.581534 133.586184 
L 137.863352 134.703917 
L 138.14517 134.803726 
L 138.426989 133.847583 
L 138.708807 133.400648 
L 138.990625 134.508056 
L 139.272443 134.677574 
L 139.554261 133.207451 
L 139.83608 133.966004 
L 140.117898 133.320137 
L 140.399716 133.888563 
L 140.681534 133.800353 
L 140.963352 134.327242 
L 141.24517 133.302039 
L 141.526989 133.276394 
L 142.372443 133.938771 
L 142.654261 134.482109 
L 142.93608 133.800864 
L 143.217898 133.419586 
L 143.499716 133.970658 
L 144.063352 133.536974 
L 144.626989 132.734868 
L 144.908807 133.151006 
L 145.190625 133.268245 
L 145.472443 133.664162 
L 145.754261 132.938008 
L 146.03608 133.474141 
L 146.317898 133.107742 
L 146.599716 133.13171 
L 146.881534 133.333721 
L 147.163352 133.905861 
L 147.44517 133.8752 
L 147.726989 133.058296 
L 148.008807 132.906614 
L 148.290625 133.401837 
L 148.572443 132.611227 
L 149.13608 133.527885 
L 149.417898 132.677103 
L 149.699716 133.470667 
L 149.981534 133.101942 
L 150.263352 132.407692 
L 150.54517 132.923927 
L 151.108807 133.133008 
L 151.390625 132.127532 
L 151.672443 132.148788 
L 151.954261 132.723923 
L 152.23608 132.550499 
L 152.799716 132.725377 
L 153.081534 132.730674 
L 153.363352 132.97607 
L 153.926989 131.981124 
L 154.208807 132.270329 
L 154.490625 132.740458 
L 154.772443 132.811208 
L 155.054261 133.022354 
L 155.33608 132.379132 
L 155.617898 132.85824 
L 155.899716 132.55696 
L 156.181534 132.710993 
L 156.74517 132.46765 
L 157.308807 132.807079 
L 158.154261 132.202275 
L 158.43608 132.521364 
L 158.717898 133.040405 
L 158.999716 132.525261 
L 159.281534 132.330627 
L 159.563352 131.793893 
L 159.84517 132.032172 
L 160.126989 131.869341 
L 160.408807 131.536319 
L 160.690625 131.891923 
L 160.972443 131.570927 
L 161.53608 132.442361 
L 161.817898 132.353453 
L 162.099716 131.994056 
L 162.381534 132.252207 
L 162.663352 132.03052 
L 162.94517 132.59314 
L 163.226989 132.12911 
L 163.508807 133.529531 
L 163.790625 132.898776 
L 164.072443 131.845893 
L 164.354261 132.623624 
L 164.63608 132.22945 
L 164.917898 132.143768 
L 165.199716 132.356335 
L 165.481534 131.998474 
L 165.763352 132.373811 
L 166.04517 132.069205 
L 166.326989 132.132424 
L 166.608807 132.017815 
L 166.890625 132.31129 
L 167.172443 132.154329 
L 167.454261 132.182232 
L 167.73608 132.54397 
L 168.017898 132.546299 
L 168.299716 132.055983 
L 168.581534 132.3148 
L 168.863352 131.939997 
L 169.426989 132.088832 
L 169.708807 132.0281 
L 169.990625 132.726062 
L 170.272443 132.686055 
L 170.554261 132.429676 
L 170.83608 131.888833 
L 171.117898 132.689105 
L 171.399716 131.980631 
L 171.963352 132.405713 
L 172.24517 132.911299 
L 172.526989 132.242697 
L 173.372443 133.309819 
L 173.654261 132.617213 
L 173.93608 132.793237 
L 174.217898 133.184172 
L 174.781534 132.476888 
L 175.34517 132.775752 
L 175.626989 132.19803 
L 175.908807 133.001959 
L 176.472443 132.281968 
L 176.754261 132.615187 
L 177.03608 132.264056 
L 177.317898 132.511456 
L 177.599716 132.562455 
L 177.881534 132.196387 
L 178.726989 132.625033 
L 179.572443 132.23886 
L 179.854261 132.926132 
L 180.13608 132.622763 
L 180.417898 132.725486 
L 180.699716 134.327361 
L 180.981534 131.88328 
L 181.263352 132.567378 
L 181.54517 132.624808 
L 181.826989 132.867478 
L 182.108807 132.078352 
L 182.390625 132.298725 
L 182.672443 132.375235 
L 182.954261 132.899031 
L 183.23608 132.299455 
L 183.799716 132.698965 
L 184.081534 132.749106 
L 184.363352 132.572047 
L 184.64517 132.735333 
L 184.926989 132.501331 
L 185.208807 132.445749 
L 185.490625 132.800844 
L 186.054261 132.528069 
L 186.33608 133.418649 
L 186.617898 132.304059 
L 186.899716 132.693067 
L 187.181534 132.084031 
L 187.463352 132.523896 
L 187.74517 132.600118 
L 188.308807 133.298588 
L 188.590625 132.386039 
L 189.154261 133.19902 
L 189.43608 132.739007 
L 189.717898 133.198867 
L 189.999716 132.736262 
L 190.281534 133.412287 
L 190.563352 132.808439 
L 190.84517 132.475197 
L 191.126989 132.640403 
L 191.408807 132.634424 
L 191.690625 133.023913 
L 191.972443 132.313796 
L 192.254261 133.014596 
L 192.817898 132.310629 
L 193.099716 132.751505 
L 193.381534 132.027011 
L 193.663352 132.637068 
L 193.94517 131.997341 
L 194.226989 132.65365 
L 194.790625 132.254952 
L 195.072443 133.166727 
L 195.354261 133.161044 
L 195.63608 132.868057 
L 196.199716 132.715886 
L 196.481534 133.313758 
L 196.763352 133.259094 
L 197.04517 132.374664 
L 197.326989 132.370019 
L 197.608807 133.122317 
L 198.172443 132.516071 
L 198.454261 132.596273 
L 198.73608 134.212614 
L 199.017898 132.868127 
L 199.581534 133.448304 
L 199.863352 132.497697 
L 200.14517 132.84084 
L 200.426989 132.998419 
L 200.990625 132.979176 
L 201.272443 133.124053 
L 201.554261 132.775361 
L 201.83608 133.26447 
L 202.117898 133.447651 
L 202.399716 132.831682 
L 202.681534 132.643544 
L 202.963352 132.71595 
L 203.24517 133.071013 
L 203.526989 133.205481 
L 204.090625 133.018732 
L 204.654261 133.212742 
L 204.93608 133.070536 
L 205.217898 132.7111 
L 205.499716 132.619717 
L 206.063352 132.757311 
L 206.34517 132.287485 
L 206.626989 132.917935 
L 206.908807 132.7582 
L 207.190625 132.74229 
L 207.472443 133.203917 
L 207.754261 132.704265 
L 208.03608 132.688085 
L 208.317898 133.394741 
L 208.881534 132.715876 
L 209.163352 132.583073 
L 209.44517 133.363201 
L 209.726989 133.218542 
L 210.008807 133.327864 
L 210.572443 133.046398 
L 211.13608 132.391266 
L 211.417898 132.746404 
L 211.981534 132.579992 
L 212.263352 133.6675 
L 212.54517 133.153177 
L 212.826989 131.871708 
L 213.108807 132.866669 
L 213.672443 132.529901 
L 213.954261 131.081888 
L 214.23608 132.932414 
L 214.517898 132.085451 
L 214.799716 132.760385 
L 215.081534 132.146346 
L 215.363352 132.88974 
L 215.64517 132.563737 
L 216.208807 133.365032 
L 216.490625 132.478084 
L 216.772443 132.902677 
L 217.054261 132.039826 
L 217.33608 132.423971 
L 217.617898 131.618577 
L 217.899716 132.19232 
L 218.181534 132.203069 
L 218.463352 132.514157 
L 218.74517 131.714142 
L 219.026989 131.917348 
L 219.308807 132.424369 
L 219.872443 132.100815 
L 220.43608 132.229428 
L 220.717898 132.13933 
L 220.999716 132.49344 
L 221.281534 132.105242 
L 221.563352 132.713502 
L 221.84517 132.33379 
L 222.126989 132.39439 
L 222.408807 132.209234 
L 222.690625 132.594199 
L 222.972443 132.673185 
L 223.254261 132.636544 
L 223.53608 132.045622 
L 223.817898 132.008696 
L 224.099716 132.296281 
L 224.381534 132.24379 
L 224.663352 132.629577 
L 224.94517 132.472327 
L 225.226989 132.670994 
L 225.508807 132.354122 
L 225.790625 132.323109 
L 226.072443 132.050248 
L 226.354261 132.447097 
L 226.63608 132.604512 
L 226.917898 132.27953 
L 227.199716 132.520756 
L 227.481534 132.360568 
L 227.763352 132.645127 
L 228.04517 132.133955 
L 228.326989 132.289025 
L 228.608807 132.21375 
L 228.890625 132.499823 
L 229.172443 132.318607 
L 229.454261 132.631839 
L 229.73608 132.517404 
L 230.017898 132.130841 
L 230.863352 132.7143 
L 231.14517 132.746425 
L 232.272443 132.34459 
L 232.554261 132.324889 
L 233.117898 132.673226 
L 233.399716 132.289639 
L 233.963352 132.640017 
L 234.24517 132.315031 
L 234.808807 132.864238 
L 235.372443 132.427692 
L 235.654261 132.489386 
L 235.93608 132.695802 
L 236.217898 132.442031 
L 236.499716 132.444117 
L 236.781534 132.791402 
L 237.063352 132.49101 
L 237.34517 132.756234 
L 237.626989 132.738034 
L 237.908807 133.154523 
L 238.190625 132.749366 
L 238.472443 132.783611 
L 238.754261 132.704427 
L 239.03608 132.845462 
L 239.599716 132.135485 
L 239.881534 132.562593 
L 241.290625 132.575102 
L 241.572443 132.82337 
L 241.854261 132.520394 
L 242.13608 132.787151 
L 242.417898 132.848905 
L 242.981534 132.49646 
L 243.263352 132.34149 
L 243.54517 132.569255 
L 243.826989 132.546035 
L 244.108807 132.382392 
L 244.390625 132.401055 
L 244.672443 132.942796 
L 244.954261 132.836618 
L 245.23608 132.045046 
L 245.517898 132.712118 
L 246.081534 132.370883 
L 246.926989 132.068622 
L 247.208807 132.852751 
L 247.490625 132.256039 
L 248.054261 132.592666 
L 248.33608 132.348413 
L 248.617898 132.303566 
L 248.899716 132.914314 
L 249.181534 132.387026 
L 249.463352 132.243224 
L 249.74517 132.85367 
L 250.590625 132.076505 
L 251.154261 132.539537 
L 251.43608 132.486669 
L 251.717898 132.644096 
L 252.563352 132.471121 
L 252.84517 132.113016 
L 253.126989 132.344418 
L 253.408807 132.339665 
L 253.972443 132.715247 
L 254.254261 133.01542 
L 254.53608 132.548661 
L 254.817898 132.326819 
L 255.099716 131.941895 
L 255.381534 132.629059 
L 255.663352 132.41616 
L 255.94517 132.777514 
L 256.226989 132.625445 
L 256.508807 132.205738 
L 256.790625 132.573852 
L 257.072443 132.351475 
L 257.354261 132.738733 
L 257.63608 132.609102 
L 257.917898 132.661179 
L 258.199716 132.248434 
L 258.481534 132.676072 
L 258.763352 132.574415 
L 259.04517 132.616665 
L 259.326989 132.074958 
L 259.608807 132.590863 
L 259.890625 132.401085 
L 260.172443 132.366064 
L 260.73608 132.649835 
L 261.017898 131.936974 
L 261.299716 132.337399 
L 261.581534 132.525656 
L 261.863352 132.230222 
L 262.426989 132.167707 
L 262.708807 132.493532 
L 262.990625 132.462083 
L 263.554261 132.110215 
L 263.83608 132.661394 
L 264.117898 132.257731 
L 264.399716 132.707855 
L 264.963352 132.689304 
L 265.24517 132.23817 
L 265.526989 132.636134 
L 265.808807 132.398538 
L 266.090625 131.929444 
L 266.654261 132.252696 
L 266.93608 132.351063 
L 267.217898 132.641152 
L 267.499716 131.990749 
L 267.781534 132.540849 
L 268.063352 131.671488 
L 268.626989 132.12717 
L 268.908807 132.034189 
L 269.472443 132.369767 
L 269.754261 131.803189 
L 270.317898 132.095206 
L 270.599716 132.051681 
L 270.881534 132.303661 
L 271.726989 132.161085 
L 272.008807 131.967513 
L 272.290625 132.354161 
L 272.572443 131.975016 
L 272.854261 132.182796 
L 273.13608 132.544544 
L 273.417898 131.972249 
L 273.981534 131.915321 
L 274.263352 132.331115 
L 274.826989 131.816527 
L 275.108807 132.304512 
L 275.390625 132.377821 
L 275.672443 132.626734 
L 275.954261 131.688815 
L 276.23608 131.714281 
L 276.517898 131.614019 
L 276.799716 132.079389 
L 277.081534 132.188325 
L 277.363352 132.439305 
L 277.64517 131.979743 
L 277.926989 132.116415 
L 278.208807 132.016496 
L 278.490625 131.69748 
L 279.054261 131.803803 
L 279.33608 132.211845 
L 279.899716 131.57137 
L 280.463352 131.918404 
L 281.308807 131.558009 
L 281.590625 132.026717 
L 281.872443 131.699965 
L 282.154261 131.870529 
L 282.43608 131.543193 
L 282.717898 132.062371 
L 282.999716 131.957107 
L 283.281534 132.110093 
L 283.563352 132.470885 
L 283.84517 131.054369 
L 284.126989 131.723853 
L 284.408807 131.715947 
L 284.690625 132.028528 
L 285.254261 131.659274 
L 285.53608 132.247391 
L 285.817898 131.672925 
L 286.099716 131.597974 
L 286.381534 131.732283 
L 286.663352 131.699916 
L 287.226989 131.758162 
L 287.508807 131.795467 
L 287.790625 131.673372 
L 288.072443 131.809686 
L 288.63608 131.494584 
L 288.917898 131.954713 
L 289.481534 131.584319 
L 289.763352 131.833002 
L 290.326989 131.703295 
L 290.608807 131.677965 
L 290.890625 131.992524 
L 291.172443 131.968231 
L 291.454261 131.450183 
L 291.73608 131.479969 
L 292.017898 131.844268 
L 292.863352 132.008511 
L 293.426989 131.492316 
L 293.708807 131.757611 
L 294.272443 131.993016 
L 294.554261 131.637031 
L 294.83608 131.938927 
L 295.117898 131.774237 
L 295.399716 131.964773 
L 295.963352 131.895405 
L 296.24517 131.948727 
L 296.526989 131.515204 
L 297.090625 132.207389 
L 297.372443 131.735948 
L 297.654261 132.070266 
L 297.93608 131.860781 
L 298.217898 132.190618 
L 299.908807 131.559104 
L 300.190625 131.671975 
L 300.472443 131.950997 
L 300.754261 131.896108 
L 301.03608 131.64032 
L 301.317898 131.933831 
L 301.881534 131.75569 
L 302.726989 132.094871 
L 303.008807 131.759928 
L 303.290625 132.166826 
L 303.572443 131.618161 
L 303.854261 131.561967 
L 304.13608 131.859707 
L 304.699716 132.088196 
L 304.981534 132.030596 
L 305.263352 131.648646 
L 305.54517 131.550221 
L 305.826989 131.971596 
L 306.108807 131.857384 
L 306.390625 131.878065 
L 306.954261 131.605734 
L 307.23608 131.69852 
L 307.517898 131.660687 
L 307.799716 131.775266 
L 308.081534 131.438046 
L 308.363352 131.552678 
L 308.64517 131.396635 
L 309.208807 131.83833 
L 309.490625 131.473621 
L 310.33608 131.920461 
L 310.617898 131.773751 
L 310.899716 132.306822 
L 311.181534 131.304828 
L 311.463352 131.778464 
L 311.74517 131.538824 
L 312.026989 131.763851 
L 312.308807 131.714413 
L 312.590625 131.429222 
L 312.872443 131.819786 
L 313.154261 131.845981 
L 313.43608 131.56035 
L 313.999716 132.002589 
L 314.281534 131.722383 
L 315.126989 131.521583 
L 315.408807 131.46646 
L 315.972443 131.50372 
L 316.254261 131.938737 
L 316.53608 131.92355 
L 316.817898 132.035225 
L 317.381534 131.24189 
L 317.663352 131.710644 
L 317.94517 131.549152 
L 318.226989 131.866717 
L 318.508807 131.670899 
L 318.790625 132.145703 
L 319.072443 131.633061 
L 319.354261 132.025985 
L 319.63608 131.635501 
L 319.917898 131.846807 
L 320.199716 131.586124 
L 320.481534 131.59473 
L 320.763352 131.844681 
L 321.04517 131.914229 
L 321.326989 131.781952 
L 321.608807 131.862954 
L 321.890625 131.612892 
L 322.172443 132.049388 
L 322.73608 131.710847 
L 323.299716 131.814407 
L 324.426989 131.633862 
L 324.708807 131.919696 
L 324.990625 131.889533 
L 325.272443 131.308385 
L 325.554261 131.816644 
L 325.83608 131.87194 
L 326.117898 132.250742 
L 326.399716 131.864412 
L 326.681534 132.072855 
L 327.526989 131.621402 
L 327.808807 132.11461 
L 328.372443 131.885377 
L 328.654261 131.685562 
L 329.217898 132.014241 
L 329.499716 131.842992 
L 329.781534 131.883854 
L 330.063352 131.669728 
L 330.626989 132.134826 
L 330.908807 132.196674 
L 331.190625 131.534695 
L 331.472443 132.15809 
L 332.03608 131.824913 
L 332.317898 131.623415 
L 332.599716 131.993667 
L 332.881534 131.661674 
L 333.44517 131.780232 
L 333.726989 132.19422 
L 334.008807 131.92404 
L 334.290625 132.082007 
L 334.854261 131.905608 
L 335.13608 131.992586 
L 335.417898 131.585773 
L 335.699716 131.977195 
L 335.981534 131.712126 
L 336.54517 131.844544 
L 336.826989 131.698864 
L 337.108807 131.845577 
L 337.390625 131.667254 
L 337.672443 132.02546 
L 338.517898 131.764295 
L 339.081534 132.132961 
L 339.363352 132.054161 
L 339.64517 132.244216 
L 339.926989 132.261325 
L 340.208807 131.83644 
L 340.490625 132.054553 
L 340.772443 132.070764 
L 341.054261 131.745654 
L 341.33608 131.886346 
L 342.181534 131.744843 
L 342.463352 132.091431 
L 343.026989 131.787761 
L 343.308807 131.802511 
L 343.590625 131.600847 
L 344.43608 131.84851 
L 344.717898 131.834268 
L 344.999716 131.674467 
L 345.281534 132.130691 
L 345.84517 131.613253 
L 346.126989 132.004221 
L 346.408807 131.64069 
L 346.690625 131.919935 
L 346.972443 131.977815 
L 347.254261 131.861181 
L 347.53608 131.879449 
L 347.817898 132.129206 
L 348.099716 132.586272 
L 348.381534 132.397014 
L 348.663352 132.374833 
L 349.226989 131.922759 
L 350.072443 132.166175 
L 350.354261 131.987028 
L 350.63608 132.20129 
L 350.917898 131.900301 
L 351.199716 132.454928 
L 351.481534 131.965419 
L 352.890625 131.995658 
L 353.172443 131.694976 
L 353.454261 131.820483 
L 353.73608 132.268407 
L 354.017898 131.81003 
L 354.863352 132.331839 
L 355.14517 132.089079 
L 355.426989 132.156123 
L 355.990625 131.914557 
L 356.272443 131.779056 
L 356.554261 132.429212 
L 356.83608 132.035896 
L 357.117898 132.156378 
L 357.399716 131.920942 
L 357.681534 132.067177 
L 358.24517 131.7994 
L 358.526989 132.076494 
L 358.808807 131.892182 
L 359.090625 132.137919 
L 359.372443 131.956273 
L 360.217898 132.317842 
L 361.34517 132.052113 
L 361.626989 132.360091 
L 361.908807 132.15185 
L 362.190625 132.561835 
L 362.472443 132.520409 
L 362.754261 132.730541 
L 363.03608 132.36537 
L 364.163352 132.09182 
L 364.726989 132.482762 
L 365.008807 132.309271 
L 365.290625 131.982322 
L 365.572443 132.079422 
L 365.854261 131.983711 
L 366.13608 132.030987 
L 366.417898 132.357754 
L 366.699716 132.456726 
L 366.981534 132.059792 
L 367.263352 132.039161 
L 367.54517 132.164013 
L 367.826989 131.927215 
L 368.390625 132.157801 
L 368.672443 132.131282 
L 368.954261 132.28258 
L 369.23608 132.155762 
L 369.517898 132.3389 
L 370.081534 131.681194 
L 370.363352 132.035336 
L 371.208807 131.958351 
L 371.490625 131.752352 
L 371.772443 132.173254 
L 372.054261 132.027158 
L 372.33608 132.439215 
L 372.899716 132.032869 
L 373.181534 131.622207 
L 374.026989 132.280623 
L 375.154261 131.676886 
L 375.43608 132.106748 
L 376.281534 131.894944 
L 377.408807 131.958977 
L 377.690625 131.787778 
L 377.972443 132.011997 
L 378.254261 131.811797 
L 378.53608 131.811067 
L 378.817898 132.095896 
L 379.099716 131.912196 
L 379.381534 132.21161 
L 379.663352 131.908913 
L 379.94517 131.974276 
L 380.226989 131.662828 
L 380.508807 131.908525 
L 380.790625 131.913864 
L 381.072443 132.275485 
L 381.354261 131.415337 
L 381.63608 131.800467 
L 382.199716 131.534548 
L 382.763352 131.915864 
L 383.04517 131.623809 
L 383.326989 131.542614 
L 383.608807 132.145538 
L 383.890625 131.915697 
L 384.172443 131.830227 
L 384.454261 131.610366 
L 384.73608 131.577343 
L 385.017898 131.953042 
L 385.299716 131.941517 
L 385.581534 132.242704 
L 385.863352 131.788079 
L 386.14517 131.994276 
L 386.708807 131.956424 
L 386.990625 131.602818 
L 387.272443 131.628402 
L 387.554261 132.003848 
L 387.83608 131.951748 
L 388.117898 132.337541 
L 388.399716 131.763898 
L 389.526989 131.841793 
L 389.808807 132.12563 
L 390.372443 132.106456 
L 390.93608 131.921969 
L 391.217898 132.068573 
L 391.499716 131.907576 
L 392.063352 132.076438 
L 392.34517 131.905297 
L 392.626989 132.151423 
L 392.908807 132.214246 
L 393.190625 132.081507 
L 393.754261 132.124251 
L 394.03608 132.522862 
L 394.317898 132.314021 
L 394.881534 132.43381 
L 395.163352 131.838743 
L 395.44517 132.22191 
L 395.726989 132.196385 
L 396.008807 132.291652 
L 396.290625 131.910402 
L 396.854261 131.851582 
L 397.13608 132.088144 
L 397.981534 131.763961 
L 398.263352 132.008608 
L 398.54517 131.867423 
L 398.826989 131.968499 
L 399.108807 131.783698 
L 399.390625 132.018266 
L 399.672443 131.839266 
L 400.23608 132.113795 
L 400.517898 132.204907 
L 400.799716 131.847972 
L 401.081534 131.72808 
L 401.363352 131.877868 
L 401.64517 131.687886 
L 401.926989 132.052456 
L 402.490625 131.951519 
L 402.772443 132.070552 
L 403.054261 131.751878 
L 403.33608 131.796799 
L 403.617898 131.968814 
L 404.181534 131.916459 
L 404.463352 131.415957 
L 404.74517 131.630413 
L 405.026989 131.497864 
L 405.590625 131.955041 
L 405.872443 131.836435 
L 406.154261 131.895353 
L 406.43608 131.788212 
L 406.717898 132.161407 
L 406.999716 131.866419 
L 407.563352 131.699732 
L 407.84517 132.213766 
L 408.126989 131.728133 
L 408.408807 132.387442 
L 408.690625 131.771368 
L 409.254261 131.959422 
L 409.817898 131.725607 
L 410.099716 131.864995 
L 410.94517 131.836825 
L 411.226989 131.542041 
L 411.508807 131.857837 
L 411.790625 131.815657 
L 412.072443 131.329548 
L 412.354261 131.696928 
L 412.63608 131.533836 
L 413.199716 132.006003 
L 413.481534 131.404012 
L 413.763352 131.777815 
L 414.04517 131.767231 
L 414.326989 131.398486 
L 414.608807 131.837332 
L 414.890625 131.576614 
L 415.172443 131.784697 
L 415.454261 131.822586 
L 415.73608 131.563991 
L 416.017898 131.753948 
L 416.299716 131.643732 
L 416.581534 131.711258 
L 416.863352 131.894859 
L 417.708807 131.652048 
L 417.990625 131.321052 
L 418.272443 131.612636 
L 418.83608 131.768802 
L 419.117898 131.553112 
L 419.681534 131.735078 
L 419.963352 131.81815 
L 420.24517 131.734775 
L 420.526989 131.869323 
L 420.808807 131.656739 
L 421.090625 131.70683 
L 421.372443 132.017098 
L 421.654261 131.590594 
L 421.93608 131.729867 
L 422.499716 132.211052 
L 422.781534 131.722657 
L 423.063352 131.531011 
L 423.34517 131.598798 
L 423.908807 131.449122 
L 424.190625 131.692884 
L 425.03608 131.56468 
L 425.317898 131.804936 
L 426.163352 131.698899 
L 426.44517 131.576302 
L 426.726989 131.164704 
L 427.008807 131.653755 
L 427.290625 131.569612 
L 427.854261 131.224464 
L 428.13608 131.535934 
L 428.417898 131.357117 
L 428.981534 131.567762 
L 429.263352 131.213929 
L 429.54517 131.59829 
L 429.826989 131.152675 
L 430.672443 131.739145 
L 430.954261 131.465133 
L 431.23608 131.453089 
L 431.517898 131.314995 
L 432.363352 131.677337 
L 432.64517 131.748742 
L 432.926989 131.973248 
L 433.208807 131.343102 
L 433.490625 131.580627 
L 433.772443 131.402333 
L 434.899716 131.40373 
L 435.181534 131.238737 
L 435.74517 131.584023 
L 436.026989 131.375681 
L 436.308807 131.671517 
L 436.590625 131.403375 
L 436.872443 131.788508 
L 437.43608 131.376979 
L 438.281534 131.483392 
L 438.563352 131.268123 
L 439.126989 131.57249 
L 439.408807 131.274227 
L 439.690625 131.556683 
L 439.972443 131.59896 
L 440.254261 131.831504 
L 440.53608 131.315487 
L 440.817898 131.371424 
L 441.099716 131.184238 
L 441.381534 131.247575 
L 441.663352 131.533858 
L 441.94517 131.439911 
L 442.226989 131.589682 
L 442.508807 131.287109 
L 443.072443 131.683824 
L 443.354261 131.61923 
L 443.63608 131.669858 
L 443.917898 130.969618 
L 444.199716 130.810178 
L 444.481534 131.309287 
L 444.763352 131.165409 
L 445.04517 131.423773 
L 445.326989 131.306445 
L 445.608807 130.881194 
L 446.172443 131.622168 
L 446.454261 131.48835 
L 446.73608 131.12394 
L 447.299716 131.342115 
L 447.863352 131.15863 
L 448.14517 131.392061 
L 448.426989 131.339938 
L 448.708807 131.585466 
L 448.990625 131.313515 
L 449.272443 131.716583 
L 449.554261 131.245639 
L 449.83608 131.554074 
L 450.681534 131.269393 
L 451.526989 131.546983 
L 451.808807 131.016815 
L 452.372443 131.712664 
L 452.654261 131.433202 
L 452.93608 131.364848 
L 453.217898 131.425148 
L 453.499716 131.130419 
L 453.781534 131.024514 
L 454.063352 131.273165 
L 454.34517 130.993595 
L 454.626989 131.53009 
L 454.908807 131.36149 
L 455.190625 131.562629 
L 455.472443 131.20167 
L 456.03608 131.299452 
L 456.317898 131.553812 
L 456.599716 131.150863 
L 456.881534 131.40958 
L 457.163352 131.124255 
L 457.44517 131.215577 
L 457.726989 130.970897 
L 458.008807 131.545904 
L 458.572443 131.169531 
L 458.854261 131.50402 
L 459.13608 131.575606 
L 459.417898 131.384051 
L 459.699716 131.480658 
L 459.981534 131.400593 
L 460.54517 131.46457 
L 460.826989 131.163274 
L 461.108807 131.523415 
L 461.672443 131.190596 
L 462.23608 131.310975 
L 462.517898 131.630702 
L 462.799716 131.169151 
L 463.081534 131.039505 
L 463.363352 131.037927 
L 463.64517 131.219068 
L 463.926989 131.05841 
L 464.208807 131.51147 
L 464.490625 131.448166 
L 465.054261 131.71447 
L 465.33608 131.316122 
L 465.617898 131.469966 
L 465.899716 131.222741 
L 466.463352 131.505236 
L 466.74517 131.457204 
L 467.026989 131.637589 
L 467.590625 131.067112 
L 467.872443 131.136962 
L 468.154261 131.366614 
L 468.43608 131.778345 
L 468.717898 131.536757 
L 468.999716 131.501241 
L 469.281534 131.605747 
L 469.84517 131.465848 
L 470.126989 131.731375 
L 470.408807 131.713457 
L 470.690625 131.477451 
L 470.972443 131.456224 
L 471.254261 131.119791 
L 471.53608 131.190572 
L 472.099716 131.452396 
L 472.94517 131.694542 
L 473.226989 131.432508 
L 473.508807 131.429285 
L 473.790625 131.749219 
L 474.072443 131.150779 
L 475.199716 131.577303 
L 475.481534 131.811504 
L 475.763352 131.41673 
L 476.04517 131.444956 
L 476.326989 131.26649 
L 476.608807 131.583304 
L 476.890625 131.335662 
L 477.172443 131.615927 
L 478.017898 131.365126 
L 478.299716 131.583033 
L 478.581534 131.542721 
L 478.863352 131.729707 
L 479.14517 131.424947 
L 479.426989 131.352412 
L 479.708807 131.44336 
L 479.990625 131.700714 
L 480.272443 131.305627 
L 480.83608 131.444577 
L 481.117898 131.219751 
L 481.963352 131.278478 
L 482.526989 131.782109 
L 482.808807 131.290591 
L 483.93608 131.520578 
L 484.217898 131.382871 
L 484.781534 131.534519 
L 485.063352 131.602163 
L 485.908807 131.373908 
L 486.190625 131.750278 
L 486.472443 131.740545 
L 487.03608 131.2285 
L 487.317898 131.174561 
L 487.599716 131.424005 
L 487.881534 131.503319 
L 488.726989 131.320569 
L 489.008807 131.167674 
L 489.854261 131.442016 
L 490.13608 131.432219 
L 490.417898 131.291859 
L 491.263352 131.442947 
L 491.54517 131.074232 
L 492.108807 131.156943 
L 492.390625 131.302615 
L 492.672443 131.296418 
L 492.954261 131.476627 
L 493.799716 131.346275 
L 494.363352 131.414973 
L 494.64517 131.217917 
L 494.926989 131.262462 
L 495.490625 131.114828 
L 496.054261 131.228466 
L 496.33608 130.976384 
L 496.899716 131.235615 
L 497.463352 131.088931 
L 498.026989 131.609499 
L 498.308807 131.278431 
L 498.590625 131.343334 
L 498.872443 131.093883 
L 499.43608 131.410251 
L 499.999716 131.447108 
L 500.281534 131.548553 
L 500.84517 131.261014 
L 501.126989 131.361117 
L 501.408807 131.166273 
L 501.690625 131.487162 
L 502.254261 131.560751 
L 502.53608 131.077796 
L 502.817898 131.246698 
L 503.099716 131.557392 
L 503.663352 131.237677 
L 504.226989 131.413089 
L 505.072443 131.417419 
L 505.354261 131.180052 
L 505.63608 131.174835 
L 506.199716 131.528454 
L 506.481534 131.238783 
L 507.04517 131.362832 
L 507.326989 131.201953 
L 507.608807 131.32817 
L 507.890625 131.28141 
L 508.172443 131.452231 
L 508.454261 131.329763 
L 508.73608 131.337622 
L 509.017898 131.523734 
L 509.299716 131.378977 
L 509.581534 131.669703 
L 509.863352 131.537059 
L 510.14517 131.86782 
L 510.426989 131.475729 
L 510.990625 131.576848 
L 511.272443 131.868218 
L 511.554261 131.490127 
L 511.83608 131.847893 
L 512.117898 131.714276 
L 512.399716 131.89651 
L 512.681534 131.790117 
L 513.24517 131.796327 
L 513.526989 131.597672 
L 513.808807 131.973706 
L 514.372443 130.662237 
L 514.654261 130.69195 
L 514.93608 130.971303 
L 515.217898 130.935548 
L 515.781534 130.993849 
L 516.063352 131.400423 
L 517.190625 131.128928 
L 517.754261 131.178499 
L 518.03608 131.02703 
L 518.317898 131.420192 
L 518.599716 131.138143 
L 518.881534 131.308406 
L 519.163352 131.193542 
L 519.44517 131.373895 
L 520.008807 131.526675 
L 520.290625 131.9746 
L 520.572443 131.251423 
L 520.854261 131.143247 
L 521.13608 131.325846 
L 521.417898 131.102467 
L 521.699716 131.515249 
L 521.981534 131.691079 
L 522.54517 131.24146 
L 523.108807 131.495941 
L 523.390625 131.11669 
L 524.799716 131.379219 
L 525.081534 131.241842 
L 525.363352 131.377519 
L 525.64517 131.134867 
L 525.926989 131.364208 
L 526.490625 131.168448 
L 526.772443 131.47654 
L 527.33608 131.337093 
L 527.899716 131.085402 
L 528.181534 131.243586 
L 528.463352 131.26974 
L 528.74517 131.121253 
L 529.026989 131.530049 
L 529.308807 131.559233 
L 529.590625 131.229325 
L 529.872443 131.173394 
L 530.154261 131.501952 
L 530.43608 131.490782 
L 530.717898 131.219356 
L 530.999716 131.180196 
L 531.281534 131.361962 
L 531.563352 131.284448 
L 532.126989 131.552896 
L 532.690625 131.409942 
L 532.972443 131.215406 
L 533.53608 131.645837 
L 534.381534 131.184437 
L 534.663352 131.385378 
L 535.790625 131.409162 
L 536.072443 131.189708 
L 536.354261 131.30255 
L 536.63608 131.180556 
L 536.917898 131.478817 
L 537.199716 131.162332 
L 537.481534 131.019751 
L 537.763352 131.234073 
L 538.04517 131.102446 
L 538.608807 131.077601 
L 538.890625 131.502116 
L 539.172443 131.241637 
L 539.454261 131.159214 
L 539.73608 131.571451 
L 540.017898 131.354628 
L 540.299716 131.290441 
L 540.863352 131.630049 
L 541.14517 131.028025 
L 541.426989 131.153771 
L 541.708807 130.882236 
L 542.554261 130.853426 
L 543.399716 131.613108 
L 543.681534 131.022657 
L 543.963352 131.3146 
L 544.24517 131.040848 
L 544.526989 130.998857 
L 544.808807 131.497009 
L 545.372443 131.096779 
L 545.93608 131.343776 
L 546.217898 130.982872 
L 546.781534 131.212569 
L 547.34517 131.200552 
L 547.626989 131.403574 
L 547.908807 131.032742 
L 548.190625 131.010406 
L 548.472443 131.144822 
L 549.03608 130.931743 
L 549.881534 131.140177 
L 550.163352 131.093956 
L 550.44517 131.390899 
L 550.726989 131.078914 
L 551.290625 131.415554 
L 551.572443 131.258874 
L 552.13608 131.386495 
L 552.417898 130.997941 
L 552.981534 131.304777 
L 553.263352 131.131158 
L 553.54517 131.117146 
L 553.826989 131.239236 
L 554.108807 131.183413 
L 554.390625 131.244631 
L 554.672443 131.071714 
L 554.954261 131.333295 
L 555.517898 131.098615 
L 555.799716 131.112857 
L 556.081534 131.344119 
L 556.64517 131.415417 
L 556.926989 131.203601 
L 557.490625 131.316519 
L 557.772443 130.887106 
L 558.054261 131.37377 
L 558.33608 131.130791 
L 558.617898 131.229476 
L 558.899716 131.566461 
L 559.181534 131.264227 
L 559.74517 131.232481 
L 560.308807 131.580546 
L 560.590625 131.281944 
L 560.872443 131.207017 
L 561.154261 131.351876 
L 561.43608 131.262133 
L 562.281534 131.469338 
L 562.563352 131.113352 
L 562.84517 131.390379 
L 563.126989 131.31042 
L 563.408807 131.05273 
L 563.690625 131.285751 
L 563.972443 131.041753 
L 564.254261 131.415023 
L 564.53608 130.710574 
L 564.817898 130.987932 
L 565.099716 131.101379 
L 565.381534 130.995912 
L 565.663352 131.191983 
L 565.94517 131.179088 
L 566.226989 130.989587 
L 566.508807 131.006066 
L 566.790625 131.145227 
L 567.072443 130.893547 
L 567.63608 131.308513 
L 567.917898 130.949311 
L 569.04517 131.385486 
L 569.326989 131.204376 
L 569.608807 131.237028 
L 569.890625 131.532938 
L 570.172443 131.605411 
L 570.454261 131.277777 
L 570.73608 131.300816 
L 571.017898 131.13329 
L 571.299716 131.377729 
L 572.990625 130.977238 
L 573.272443 131.396674 
L 574.117898 131.154804 
L 574.399716 131.076689 
L 574.963352 131.589773 
L 575.24517 131.101212 
L 575.526989 131.073198 
L 575.808807 131.299861 
L 576.090625 131.291384 
L 576.654261 131.14869 
L 576.93608 131.118564 
L 577.217898 131.373801 
L 577.499716 131.007786 
L 577.781534 131.160704 
L 578.34517 130.940162 
L 579.190625 131.404144 
L 579.472443 131.159111 
L 581.726989 130.908688 
L 582.008807 131.2515 
L 582.290625 131.247069 
L 582.572443 130.923456 
L 582.854261 130.951516 
L 583.13608 131.191179 
L 583.417898 131.062563 
L 583.981534 131.146231 
L 584.263352 130.888329 
L 584.54517 131.13652 
L 584.826989 131.589177 
L 585.108807 131.053148 
L 585.672443 130.990946 
L 586.23608 131.237725 
L 586.517898 131.119237 
L 586.799716 131.330205 
L 587.081534 131.03888 
L 587.363352 131.113427 
L 587.64517 131.042327 
L 587.926989 131.116434 
L 588.208807 131.064593 
L 588.490625 131.279263 
L 588.772443 131.190439 
L 589.054261 130.940904 
L 589.33608 131.275198 
L 590.181534 130.990747 
L 590.463352 131.236083 
L 590.74517 131.250837 
L 591.026989 131.08078 
L 591.308807 131.154847 
L 591.590625 131.090894 
L 592.717898 131.340895 
L 593.281534 131.526457 
L 593.563352 131.116359 
L 593.84517 131.268382 
L 594.408807 131.074589 
L 594.690625 131.010074 
L 594.972443 131.062828 
L 595.254261 131.43118 
L 596.099716 130.942856 
L 596.381534 131.236581 
L 596.663352 131.145125 
L 596.94517 131.418002 
L 597.226989 131.074022 
L 597.508807 131.084184 
L 597.790625 130.869593 
L 598.072443 130.976892 
L 598.354261 131.229226 
L 598.63608 131.157525 
L 598.917898 130.910479 
L 599.199716 131.073868 
L 599.481534 131.095176 
L 599.763352 130.890726 
L 600.04517 131.223187 
L 600.326989 130.867342 
L 600.608807 131.135189 
L 601.172443 130.923142 
L 601.454261 131.165212 
L 602.863352 131.13796 
L 603.14517 131.323053 
L 603.426989 131.100153 
L 603.708807 131.579142 
L 603.990625 131.141515 
L 604.554261 130.711503 
L 604.83608 130.343767 
L 605.117898 129.395315 
L 605.399716 129.890067 
L 605.681534 130.058102 
L 605.963352 130.408153 
L 606.526989 130.397789 
L 606.808807 130.227703 
L 607.090625 130.360256 
L 607.372443 130.276117 
L 607.654261 130.51528 
L 607.93608 130.188923 
L 608.217898 130.437827 
L 608.499716 130.353668 
L 608.781534 130.480493 
L 609.063352 130.302553 
L 609.34517 130.533369 
L 609.626989 130.255525 
L 609.908807 130.326904 
L 610.190625 130.15466 
L 610.472443 130.273557 
L 610.754261 130.132963 
L 611.03608 130.489813 
L 611.317898 130.124449 
L 611.599716 130.532663 
L 611.881534 130.25206 
L 612.726989 130.618211 
L 613.290625 130.280884 
L 613.572443 130.496912 
L 613.854261 130.523701 
L 614.13608 130.377154 
L 614.417898 130.715412 
L 614.699716 130.718917 
L 614.981534 130.349098 
L 615.263352 130.82573 
L 615.54517 130.490049 
L 615.826989 130.61813 
L 616.108807 130.520726 
L 616.390625 130.724845 
L 616.954261 130.622493 
L 617.517898 130.878232 
L 617.799716 130.851783 
L 618.081534 130.510681 
L 618.363352 130.611485 
L 619.208807 130.427272 
L 619.490625 130.583919 
L 619.772443 130.548224 
L 620.054261 130.727802 
L 620.617898 130.440376 
L 620.899716 130.590268 
L 621.181534 130.287919 
L 621.463352 130.463744 
L 621.74517 130.855894 
L 622.026989 130.911768 
L 622.308807 130.67653 
L 622.590625 130.289717 
L 623.154261 130.685715 
L 623.43608 130.712583 
L 623.717898 130.472617 
L 623.999716 130.862775 
L 624.281534 130.944628 
L 624.563352 130.689615 
L 624.84517 130.820526 
L 625.126989 130.549803 
L 625.126989 130.549803 
" clip-path="url(#p652b2c4e39)" style="fill: none; stroke: #ff7f0e; stroke-width: 1.5; stroke-linecap: square"/>
   </g>
   <g id="patch_3">
    <path d="M 92.490625 308.63625 
L 92.490625 31.43625 
" style="fill: none; stroke: #000000; stroke-width: 0.8; stroke-linejoin: miter; stroke-linecap: square"/>
   </g>
   <g id="patch_4">
    <path d="M 650.490625 308.63625 
L 650.490625 31.43625 
" style="fill: none; stroke: #000000; stroke-width: 0.8; stroke-linejoin: miter; stroke-linecap: square"/>
   </g>
   <g id="patch_5">
    <path d="M 92.490625 308.63625 
L 650.490625 308.63625 
" style="fill: none; stroke: #000000; stroke-width: 0.8; stroke-linejoin: miter; stroke-linecap: square"/>
   </g>
   <g id="patch_6">
    <path d="M 92.490625 31.43625 
L 650.490625 31.43625 
" style="fill: none; stroke: #000000; stroke-width: 0.8; stroke-linejoin: miter; stroke-linecap: square"/>
   </g>
   <g id="text_16">
    <!-- Generator and Discriminator Loss During Training -->
    <g transform="translate(74.258125 25.43625) scale(0.24 -0.24)">
     <defs>
      <path id="DejaVuSans-47" d="M 3809 666 
L 3809 1919 
L 2778 1919 
L 2778 2438 
L 4434 2438 
L 4434 434 
Q 4069 175 3628 42 
Q 3188 -91 2688 -91 
Q 1594 -91 976 548 
Q 359 1188 359 2328 
Q 359 3472 976 4111 
Q 1594 4750 2688 4750 
Q 3144 4750 3555 4637 
Q 3966 4525 4313 4306 
L 4313 3634 
Q 3963 3931 3569 4081 
Q 3175 4231 2741 4231 
Q 1884 4231 1454 3753 
Q 1025 3275 1025 2328 
Q 1025 1384 1454 906 
Q 1884 428 2741 428 
Q 3075 428 3337 486 
Q 3600 544 3809 666 
z
" transform="scale(0.015625)"/>
      <path id="DejaVuSans-20" transform="scale(0.015625)"/>
      <path id="DejaVuSans-64" d="M 2906 2969 
L 2906 4863 
L 3481 4863 
L 3481 0 
L 2906 0 
L 2906 525 
Q 2725 213 2448 61 
Q 2172 -91 1784 -91 
Q 1150 -91 751 415 
Q 353 922 353 1747 
Q 353 2572 751 3078 
Q 1150 3584 1784 3584 
Q 2172 3584 2448 3432 
Q 2725 3281 2906 2969 
z
M 947 1747 
Q 947 1113 1208 752 
Q 1469 391 1925 391 
Q 2381 391 2643 752 
Q 2906 1113 2906 1747 
Q 2906 2381 2643 2742 
Q 2381 3103 1925 3103 
Q 1469 3103 1208 2742 
Q 947 2381 947 1747 
z
" transform="scale(0.015625)"/>
      <path id="DejaVuSans-44" d="M 1259 4147 
L 1259 519 
L 2022 519 
Q 2988 519 3436 956 
Q 3884 1394 3884 2338 
Q 3884 3275 3436 3711 
Q 2988 4147 2022 4147 
L 1259 4147 
z
M 628 4666 
L 1925 4666 
Q 3281 4666 3915 4102 
Q 4550 3538 4550 2338 
Q 4550 1131 3912 565 
Q 3275 0 1925 0 
L 628 0 
L 628 4666 
z
" transform="scale(0.015625)"/>
      <path id="DejaVuSans-63" d="M 3122 3366 
L 3122 2828 
Q 2878 2963 2633 3030 
Q 2388 3097 2138 3097 
Q 1578 3097 1268 2742 
Q 959 2388 959 1747 
Q 959 1106 1268 751 
Q 1578 397 2138 397 
Q 2388 397 2633 464 
Q 2878 531 3122 666 
L 3122 134 
Q 2881 22 2623 -34 
Q 2366 -91 2075 -91 
Q 1284 -91 818 406 
Q 353 903 353 1747 
Q 353 2603 823 3093 
Q 1294 3584 2113 3584 
Q 2378 3584 2631 3529 
Q 2884 3475 3122 3366 
z
" transform="scale(0.015625)"/>
      <path id="DejaVuSans-6d" d="M 3328 2828 
Q 3544 3216 3844 3400 
Q 4144 3584 4550 3584 
Q 5097 3584 5394 3201 
Q 5691 2819 5691 2113 
L 5691 0 
L 5113 0 
L 5113 2094 
Q 5113 2597 4934 2840 
Q 4756 3084 4391 3084 
Q 3944 3084 3684 2787 
Q 3425 2491 3425 1978 
L 3425 0 
L 2847 0 
L 2847 2094 
Q 2847 2600 2669 2842 
Q 2491 3084 2119 3084 
Q 1678 3084 1418 2786 
Q 1159 2488 1159 1978 
L 1159 0 
L 581 0 
L 581 3500 
L 1159 3500 
L 1159 2956 
Q 1356 3278 1631 3431 
Q 1906 3584 2284 3584 
Q 2666 3584 2933 3390 
Q 3200 3197 3328 2828 
z
" transform="scale(0.015625)"/>
      <path id="DejaVuSans-75" d="M 544 1381 
L 544 3500 
L 1119 3500 
L 1119 1403 
Q 1119 906 1312 657 
Q 1506 409 1894 409 
Q 2359 409 2629 706 
Q 2900 1003 2900 1516 
L 2900 3500 
L 3475 3500 
L 3475 0 
L 2900 0 
L 2900 538 
Q 2691 219 2414 64 
Q 2138 -91 1772 -91 
Q 1169 -91 856 284 
Q 544 659 544 1381 
z
M 1991 3584 
L 1991 3584 
z
" transform="scale(0.015625)"/>
      <path id="DejaVuSans-67" d="M 2906 1791 
Q 2906 2416 2648 2759 
Q 2391 3103 1925 3103 
Q 1463 3103 1205 2759 
Q 947 2416 947 1791 
Q 947 1169 1205 825 
Q 1463 481 1925 481 
Q 2391 481 2648 825 
Q 2906 1169 2906 1791 
z
M 3481 434 
Q 3481 -459 3084 -895 
Q 2688 -1331 1869 -1331 
Q 1566 -1331 1297 -1286 
Q 1028 -1241 775 -1147 
L 775 -588 
Q 1028 -725 1275 -790 
Q 1522 -856 1778 -856 
Q 2344 -856 2625 -561 
Q 2906 -266 2906 331 
L 2906 616 
Q 2728 306 2450 153 
Q 2172 0 1784 0 
Q 1141 0 747 490 
Q 353 981 353 1791 
Q 353 2603 747 3093 
Q 1141 3584 1784 3584 
Q 2172 3584 2450 3431 
Q 2728 3278 2906 2969 
L 2906 3500 
L 3481 3500 
L 3481 434 
z
" transform="scale(0.015625)"/>
      <path id="DejaVuSans-54" d="M -19 4666 
L 3928 4666 
L 3928 4134 
L 2272 4134 
L 2272 0 
L 1638 0 
L 1638 4134 
L -19 4134 
L -19 4666 
z
" transform="scale(0.015625)"/>
     </defs>
     <use xlink:href="#DejaVuSans-47"/>
     <use xlink:href="#DejaVuSans-65" x="77.490234"/>
     <use xlink:href="#DejaVuSans-6e" x="139.013672"/>
     <use xlink:href="#DejaVuSans-65" x="202.392578"/>
     <use xlink:href="#DejaVuSans-72" x="263.916016"/>
     <use xlink:href="#DejaVuSans-61" x="305.029297"/>
     <use xlink:href="#DejaVuSans-74" x="366.308594"/>
     <use xlink:href="#DejaVuSans-6f" x="405.517578"/>
     <use xlink:href="#DejaVuSans-72" x="466.699219"/>
     <use xlink:href="#DejaVuSans-20" x="507.8125"/>
     <use xlink:href="#DejaVuSans-61" x="539.599609"/>
     <use xlink:href="#DejaVuSans-6e" x="600.878906"/>
     <use xlink:href="#DejaVuSans-64" x="664.257812"/>
     <use xlink:href="#DejaVuSans-20" x="727.734375"/>
     <use xlink:href="#DejaVuSans-44" x="759.521484"/>
     <use xlink:href="#DejaVuSans-69" x="836.523438"/>
     <use xlink:href="#DejaVuSans-73" x="864.306641"/>
     <use xlink:href="#DejaVuSans-63" x="916.40625"/>
     <use xlink:href="#DejaVuSans-72" x="971.386719"/>
     <use xlink:href="#DejaVuSans-69" x="1012.5"/>
     <use xlink:href="#DejaVuSans-6d" x="1040.283203"/>
     <use xlink:href="#DejaVuSans-69" x="1137.695312"/>
     <use xlink:href="#DejaVuSans-6e" x="1165.478516"/>
     <use xlink:href="#DejaVuSans-61" x="1228.857422"/>
     <use xlink:href="#DejaVuSans-74" x="1290.136719"/>
     <use xlink:href="#DejaVuSans-6f" x="1329.345703"/>
     <use xlink:href="#DejaVuSans-72" x="1390.527344"/>
     <use xlink:href="#DejaVuSans-20" x="1431.640625"/>
     <use xlink:href="#DejaVuSans-4c" x="1463.427734"/>
     <use xlink:href="#DejaVuSans-6f" x="1517.390625"/>
     <use xlink:href="#DejaVuSans-73" x="1578.572266"/>
     <use xlink:href="#DejaVuSans-73" x="1630.671875"/>
     <use xlink:href="#DejaVuSans-20" x="1682.771484"/>
     <use xlink:href="#DejaVuSans-44" x="1714.558594"/>
     <use xlink:href="#DejaVuSans-75" x="1791.560547"/>
     <use xlink:href="#DejaVuSans-72" x="1854.939453"/>
     <use xlink:href="#DejaVuSans-69" x="1896.052734"/>
     <use xlink:href="#DejaVuSans-6e" x="1923.835938"/>
     <use xlink:href="#DejaVuSans-67" x="1987.214844"/>
     <use xlink:href="#DejaVuSans-20" x="2050.691406"/>
     <use xlink:href="#DejaVuSans-54" x="2082.478516"/>
     <use xlink:href="#DejaVuSans-72" x="2128.8125"/>
     <use xlink:href="#DejaVuSans-61" x="2169.925781"/>
     <use xlink:href="#DejaVuSans-69" x="2231.205078"/>
     <use xlink:href="#DejaVuSans-6e" x="2258.988281"/>
     <use xlink:href="#DejaVuSans-69" x="2322.367188"/>
     <use xlink:href="#DejaVuSans-6e" x="2350.150391"/>
     <use xlink:href="#DejaVuSans-67" x="2413.529297"/>
    </g>
   </g>
   <g id="legend_1">
    <g id="patch_7">
     <path d="M 556.99375 106.14875 
L 636.490625 106.14875 
Q 640.490625 106.14875 640.490625 102.14875 
L 640.490625 45.43625 
Q 640.490625 41.43625 636.490625 41.43625 
L 556.99375 41.43625 
Q 552.99375 41.43625 552.99375 45.43625 
L 552.99375 102.14875 
Q 552.99375 106.14875 556.99375 106.14875 
z
" style="fill: #ffffff; opacity: 0.8; stroke: #cccccc; stroke-linejoin: miter"/>
    </g>
    <g id="line2d_16">
     <path d="M 560.99375 57.633125 
L 580.99375 57.633125 
L 600.99375 57.633125 
" style="fill: none; stroke: #1f77b4; stroke-width: 1.5; stroke-linecap: square"/>
    </g>
    <g id="text_17">
     <!-- G -->
     <g transform="translate(616.99375 64.633125) scale(0.2 -0.2)">
      <use xlink:href="#DejaVuSans-47"/>
     </g>
    </g>
    <g id="line2d_17">
     <path d="M 560.99375 86.989375 
L 580.99375 86.989375 
L 600.99375 86.989375 
" style="fill: none; stroke: #ff7f0e; stroke-width: 1.5; stroke-linecap: square"/>
    </g>
    <g id="text_18">
     <!-- D -->
     <g transform="translate(616.99375 93.989375) scale(0.2 -0.2)">
      <use xlink:href="#DejaVuSans-44"/>
     </g>
    </g>
   </g>
  </g>
 </g>
 <defs>
  <clipPath id="p652b2c4e39">
   <rect x="92.490625" y="31.43625" width="558" height="277.2"/>
  </clipPath>
 </defs>
</svg>
