<?xml version="1.0" encoding="utf-8" standalone="no"?>
<!DOCTYPE svg PUBLIC "-//W3C//DTD SVG 1.1//EN"
  "http://www.w3.org/Graphics/SVG/1.1/DTD/svg11.dtd">
<svg xmlns:xlink="http://www.w3.org/1999/xlink" width="675.923125pt" height="365.54875pt" viewBox="0 0 675.923125 365.54875" xmlns="http://www.w3.org/2000/svg" version="1.1">
 <metadata>
  <rdf:RDF xmlns:dc="http://purl.org/dc/elements/1.1/" xmlns:cc="http://creativecommons.org/ns#" xmlns:rdf="http://www.w3.org/1999/02/22-rdf-syntax-ns#">
   <cc:Work>
    <dc:type rdf:resource="http://purl.org/dc/dcmitype/StillImage"/>
    <dc:date>2024-02-01T07:19:23.325777</dc:date>
    <dc:format>image/svg+xml</dc:format>
    <dc:creator>
     <cc:Agent>
      <dc:title>Matplotlib v3.7.2, https://matplotlib.org/</dc:title>
     </cc:Agent>
    </dc:creator>
   </cc:Work>
  </rdf:RDF>
 </metadata>
 <defs>
  <style type="text/css">*{stroke-linejoin: round; stroke-linecap: butt}</style>
 </defs>
 <g id="figure_1">
  <g id="patch_1">
   <path d="M 0 365.54875 
L 675.923125 365.54875 
L 675.923125 -0 
L 0 -0 
z
" style="fill: #ffffff"/>
  </g>
  <g id="axes_1">
   <g id="patch_2">
    <path d="M 92.490625 308.63625 
L 650.490625 308.63625 
L 650.490625 31.43625 
L 92.490625 31.43625 
z
" style="fill: #ffffff"/>
   </g>
   <g id="matplotlib.axis_1">
    <g id="xtick_1">
     <g id="line2d_1">
      <defs>
       <path id="m4870eeb80e" d="M 0 0 
L 0 3.5 
" style="stroke: #000000; stroke-width: 0.8"/>
      </defs>
      <g>
       <use xlink:href="#m4870eeb80e" x="117.854261" y="308.63625" style="stroke: #000000; stroke-width: 0.8"/>
      </g>
     </g>
     <g id="text_1">
      <!-- 0 -->
      <g transform="translate(111.491761 330.833125) scale(0.2 -0.2)">
       <defs>
        <path id="DejaVuSans-30" d="M 2034 4250 
Q 1547 4250 1301 3770 
Q 1056 3291 1056 2328 
Q 1056 1369 1301 889 
Q 1547 409 2034 409 
Q 2525 409 2770 889 
Q 3016 1369 3016 2328 
Q 3016 3291 2770 3770 
Q 2525 4250 2034 4250 
z
M 2034 4750 
Q 2819 4750 3233 4129 
Q 3647 3509 3647 2328 
Q 3647 1150 3233 529 
Q 2819 -91 2034 -91 
Q 1250 -91 836 529 
Q 422 1150 422 2328 
Q 422 3509 836 4129 
Q 1250 4750 2034 4750 
z
" transform="scale(0.015625)"/>
       </defs>
       <use xlink:href="#DejaVuSans-30"/>
      </g>
     </g>
    </g>
    <g id="xtick_2">
     <g id="line2d_2">
      <g>
       <use xlink:href="#m4870eeb80e" x="186.40463" y="308.63625" style="stroke: #000000; stroke-width: 0.8"/>
      </g>
     </g>
     <g id="text_2">
      <!-- 250 -->
      <g transform="translate(167.31713 330.833125) scale(0.2 -0.2)">
       <defs>
        <path id="DejaVuSans-32" d="M 1228 531 
L 3431 531 
L 3431 0 
L 469 0 
L 469 531 
Q 828 903 1448 1529 
Q 2069 2156 2228 2338 
Q 2531 2678 2651 2914 
Q 2772 3150 2772 3378 
Q 2772 3750 2511 3984 
Q 2250 4219 1831 4219 
Q 1534 4219 1204 4116 
Q 875 4013 500 3803 
L 500 4441 
Q 881 4594 1212 4672 
Q 1544 4750 1819 4750 
Q 2544 4750 2975 4387 
Q 3406 4025 3406 3419 
Q 3406 3131 3298 2873 
Q 3191 2616 2906 2266 
Q 2828 2175 2409 1742 
Q 1991 1309 1228 531 
z
" transform="scale(0.015625)"/>
        <path id="DejaVuSans-35" d="M 691 4666 
L 3169 4666 
L 3169 4134 
L 1269 4134 
L 1269 2991 
Q 1406 3038 1543 3061 
Q 1681 3084 1819 3084 
Q 2600 3084 3056 2656 
Q 3513 2228 3513 1497 
Q 3513 744 3044 326 
Q 2575 -91 1722 -91 
Q 1428 -91 1123 -41 
Q 819 9 494 109 
L 494 744 
Q 775 591 1075 516 
Q 1375 441 1709 441 
Q 2250 441 2565 725 
Q 2881 1009 2881 1497 
Q 2881 1984 2565 2268 
Q 2250 2553 1709 2553 
Q 1456 2553 1204 2497 
Q 953 2441 691 2322 
L 691 4666 
z
" transform="scale(0.015625)"/>
       </defs>
       <use xlink:href="#DejaVuSans-32"/>
       <use xlink:href="#DejaVuSans-35" x="63.623047"/>
       <use xlink:href="#DejaVuSans-30" x="127.246094"/>
      </g>
     </g>
    </g>
    <g id="xtick_3">
     <g id="line2d_3">
      <g>
       <use xlink:href="#m4870eeb80e" x="254.954998" y="308.63625" style="stroke: #000000; stroke-width: 0.8"/>
      </g>
     </g>
     <g id="text_3">
      <!-- 500 -->
      <g transform="translate(235.867498 330.833125) scale(0.2 -0.2)">
       <use xlink:href="#DejaVuSans-35"/>
       <use xlink:href="#DejaVuSans-30" x="63.623047"/>
       <use xlink:href="#DejaVuSans-30" x="127.246094"/>
      </g>
     </g>
    </g>
    <g id="xtick_4">
     <g id="line2d_4">
      <g>
       <use xlink:href="#m4870eeb80e" x="323.505367" y="308.63625" style="stroke: #000000; stroke-width: 0.8"/>
      </g>
     </g>
     <g id="text_4">
      <!-- 750 -->
      <g transform="translate(304.417867 330.833125) scale(0.2 -0.2)">
       <defs>
        <path id="DejaVuSans-37" d="M 525 4666 
L 3525 4666 
L 3525 4397 
L 1831 0 
L 1172 0 
L 2766 4134 
L 525 4134 
L 525 4666 
z
" transform="scale(0.015625)"/>
       </defs>
       <use xlink:href="#DejaVuSans-37"/>
       <use xlink:href="#DejaVuSans-35" x="63.623047"/>
       <use xlink:href="#DejaVuSans-30" x="127.246094"/>
      </g>
     </g>
    </g>
    <g id="xtick_5">
     <g id="line2d_5">
      <g>
       <use xlink:href="#m4870eeb80e" x="392.055736" y="308.63625" style="stroke: #000000; stroke-width: 0.8"/>
      </g>
     </g>
     <g id="text_5">
      <!-- 1000 -->
      <g transform="translate(366.605736 330.833125) scale(0.2 -0.2)">
       <defs>
        <path id="DejaVuSans-31" d="M 794 531 
L 1825 531 
L 1825 4091 
L 703 3866 
L 703 4441 
L 1819 4666 
L 2450 4666 
L 2450 531 
L 3481 531 
L 3481 0 
L 794 0 
L 794 531 
z
" transform="scale(0.015625)"/>
       </defs>
       <use xlink:href="#DejaVuSans-31"/>
       <use xlink:href="#DejaVuSans-30" x="63.623047"/>
       <use xlink:href="#DejaVuSans-30" x="127.246094"/>
       <use xlink:href="#DejaVuSans-30" x="190.869141"/>
      </g>
     </g>
    </g>
    <g id="xtick_6">
     <g id="line2d_6">
      <g>
       <use xlink:href="#m4870eeb80e" x="460.606104" y="308.63625" style="stroke: #000000; stroke-width: 0.8"/>
      </g>
     </g>
     <g id="text_6">
      <!-- 1250 -->
      <g transform="translate(435.156104 330.833125) scale(0.2 -0.2)">
       <use xlink:href="#DejaVuSans-31"/>
       <use xlink:href="#DejaVuSans-32" x="63.623047"/>
       <use xlink:href="#DejaVuSans-35" x="127.246094"/>
       <use xlink:href="#DejaVuSans-30" x="190.869141"/>
      </g>
     </g>
    </g>
    <g id="xtick_7">
     <g id="line2d_7">
      <g>
       <use xlink:href="#m4870eeb80e" x="529.156473" y="308.63625" style="stroke: #000000; stroke-width: 0.8"/>
      </g>
     </g>
     <g id="text_7">
      <!-- 1500 -->
      <g transform="translate(503.706473 330.833125) scale(0.2 -0.2)">
       <use xlink:href="#DejaVuSans-31"/>
       <use xlink:href="#DejaVuSans-35" x="63.623047"/>
       <use xlink:href="#DejaVuSans-30" x="127.246094"/>
       <use xlink:href="#DejaVuSans-30" x="190.869141"/>
      </g>
     </g>
    </g>
    <g id="xtick_8">
     <g id="line2d_8">
      <g>
       <use xlink:href="#m4870eeb80e" x="597.706841" y="308.63625" style="stroke: #000000; stroke-width: 0.8"/>
      </g>
     </g>
     <g id="text_8">
      <!-- 1750 -->
      <g transform="translate(572.256841 330.833125) scale(0.2 -0.2)">
       <use xlink:href="#DejaVuSans-31"/>
       <use xlink:href="#DejaVuSans-37" x="63.623047"/>
       <use xlink:href="#DejaVuSans-35" x="127.246094"/>
       <use xlink:href="#DejaVuSans-30" x="190.869141"/>
      </g>
     </g>
    </g>
    <g id="text_9">
     <!-- iterations -->
     <g transform="translate(324.035938 354.189375) scale(0.2 -0.2)">
      <defs>
       <path id="DejaVuSans-69" d="M 603 3500 
L 1178 3500 
L 1178 0 
L 603 0 
L 603 3500 
z
M 603 4863 
L 1178 4863 
L 1178 4134 
L 603 4134 
L 603 4863 
z
" transform="scale(0.015625)"/>
       <path id="DejaVuSans-74" d="M 1172 4494 
L 1172 3500 
L 2356 3500 
L 2356 3053 
L 1172 3053 
L 1172 1153 
Q 1172 725 1289 603 
Q 1406 481 1766 481 
L 2356 481 
L 2356 0 
L 1766 0 
Q 1100 0 847 248 
Q 594 497 594 1153 
L 594 3053 
L 172 3053 
L 172 3500 
L 594 3500 
L 594 4494 
L 1172 4494 
z
" transform="scale(0.015625)"/>
       <path id="DejaVuSans-65" d="M 3597 1894 
L 3597 1613 
L 953 1613 
Q 991 1019 1311 708 
Q 1631 397 2203 397 
Q 2534 397 2845 478 
Q 3156 559 3463 722 
L 3463 178 
Q 3153 47 2828 -22 
Q 2503 -91 2169 -91 
Q 1331 -91 842 396 
Q 353 884 353 1716 
Q 353 2575 817 3079 
Q 1281 3584 2069 3584 
Q 2775 3584 3186 3129 
Q 3597 2675 3597 1894 
z
M 3022 2063 
Q 3016 2534 2758 2815 
Q 2500 3097 2075 3097 
Q 1594 3097 1305 2825 
Q 1016 2553 972 2059 
L 3022 2063 
z
" transform="scale(0.015625)"/>
       <path id="DejaVuSans-72" d="M 2631 2963 
Q 2534 3019 2420 3045 
Q 2306 3072 2169 3072 
Q 1681 3072 1420 2755 
Q 1159 2438 1159 1844 
L 1159 0 
L 581 0 
L 581 3500 
L 1159 3500 
L 1159 2956 
Q 1341 3275 1631 3429 
Q 1922 3584 2338 3584 
Q 2397 3584 2469 3576 
Q 2541 3569 2628 3553 
L 2631 2963 
z
" transform="scale(0.015625)"/>
       <path id="DejaVuSans-61" d="M 2194 1759 
Q 1497 1759 1228 1600 
Q 959 1441 959 1056 
Q 959 750 1161 570 
Q 1363 391 1709 391 
Q 2188 391 2477 730 
Q 2766 1069 2766 1631 
L 2766 1759 
L 2194 1759 
z
M 3341 1997 
L 3341 0 
L 2766 0 
L 2766 531 
Q 2569 213 2275 61 
Q 1981 -91 1556 -91 
Q 1019 -91 701 211 
Q 384 513 384 1019 
Q 384 1609 779 1909 
Q 1175 2209 1959 2209 
L 2766 2209 
L 2766 2266 
Q 2766 2663 2505 2880 
Q 2244 3097 1772 3097 
Q 1472 3097 1187 3025 
Q 903 2953 641 2809 
L 641 3341 
Q 956 3463 1253 3523 
Q 1550 3584 1831 3584 
Q 2591 3584 2966 3190 
Q 3341 2797 3341 1997 
z
" transform="scale(0.015625)"/>
       <path id="DejaVuSans-6f" d="M 1959 3097 
Q 1497 3097 1228 2736 
Q 959 2375 959 1747 
Q 959 1119 1226 758 
Q 1494 397 1959 397 
Q 2419 397 2687 759 
Q 2956 1122 2956 1747 
Q 2956 2369 2687 2733 
Q 2419 3097 1959 3097 
z
M 1959 3584 
Q 2709 3584 3137 3096 
Q 3566 2609 3566 1747 
Q 3566 888 3137 398 
Q 2709 -91 1959 -91 
Q 1206 -91 779 398 
Q 353 888 353 1747 
Q 353 2609 779 3096 
Q 1206 3584 1959 3584 
z
" transform="scale(0.015625)"/>
       <path id="DejaVuSans-6e" d="M 3513 2113 
L 3513 0 
L 2938 0 
L 2938 2094 
Q 2938 2591 2744 2837 
Q 2550 3084 2163 3084 
Q 1697 3084 1428 2787 
Q 1159 2491 1159 1978 
L 1159 0 
L 581 0 
L 581 3500 
L 1159 3500 
L 1159 2956 
Q 1366 3272 1645 3428 
Q 1925 3584 2291 3584 
Q 2894 3584 3203 3211 
Q 3513 2838 3513 2113 
z
" transform="scale(0.015625)"/>
       <path id="DejaVuSans-73" d="M 2834 3397 
L 2834 2853 
Q 2591 2978 2328 3040 
Q 2066 3103 1784 3103 
Q 1356 3103 1142 2972 
Q 928 2841 928 2578 
Q 928 2378 1081 2264 
Q 1234 2150 1697 2047 
L 1894 2003 
Q 2506 1872 2764 1633 
Q 3022 1394 3022 966 
Q 3022 478 2636 193 
Q 2250 -91 1575 -91 
Q 1294 -91 989 -36 
Q 684 19 347 128 
L 347 722 
Q 666 556 975 473 
Q 1284 391 1588 391 
Q 1994 391 2212 530 
Q 2431 669 2431 922 
Q 2431 1156 2273 1281 
Q 2116 1406 1581 1522 
L 1381 1569 
Q 847 1681 609 1914 
Q 372 2147 372 2553 
Q 372 3047 722 3315 
Q 1072 3584 1716 3584 
Q 2034 3584 2315 3537 
Q 2597 3491 2834 3397 
z
" transform="scale(0.015625)"/>
      </defs>
      <use xlink:href="#DejaVuSans-69"/>
      <use xlink:href="#DejaVuSans-74" x="27.783203"/>
      <use xlink:href="#DejaVuSans-65" x="66.992188"/>
      <use xlink:href="#DejaVuSans-72" x="128.515625"/>
      <use xlink:href="#DejaVuSans-61" x="169.628906"/>
      <use xlink:href="#DejaVuSans-74" x="230.908203"/>
      <use xlink:href="#DejaVuSans-69" x="270.117188"/>
      <use xlink:href="#DejaVuSans-6f" x="297.900391"/>
      <use xlink:href="#DejaVuSans-6e" x="359.082031"/>
      <use xlink:href="#DejaVuSans-73" x="422.460938"/>
     </g>
    </g>
   </g>
   <g id="matplotlib.axis_2">
    <g id="ytick_1">
     <g id="line2d_9">
      <defs>
       <path id="m4f0ad187dc" d="M 0 0 
L -3.5 0 
" style="stroke: #000000; stroke-width: 0.8"/>
      </defs>
      <g>
       <use xlink:href="#m4f0ad187dc" x="92.490625" y="233.89928" style="stroke: #000000; stroke-width: 0.8"/>
      </g>
     </g>
     <g id="text_10">
      <!-- −200 -->
      <g transform="translate(30.55625 241.497718) scale(0.2 -0.2)">
       <defs>
        <path id="DejaVuSans-2212" d="M 678 2272 
L 4684 2272 
L 4684 1741 
L 678 1741 
L 678 2272 
z
" transform="scale(0.015625)"/>
       </defs>
       <use xlink:href="#DejaVuSans-2212"/>
       <use xlink:href="#DejaVuSans-32" x="83.789062"/>
       <use xlink:href="#DejaVuSans-30" x="147.412109"/>
       <use xlink:href="#DejaVuSans-30" x="211.035156"/>
      </g>
     </g>
    </g>
    <g id="ytick_2">
     <g id="line2d_10">
      <g>
       <use xlink:href="#m4f0ad187dc" x="92.490625" y="156.400898" style="stroke: #000000; stroke-width: 0.8"/>
      </g>
     </g>
     <g id="text_11">
      <!-- 0 -->
      <g transform="translate(72.765625 163.999335) scale(0.2 -0.2)">
       <use xlink:href="#DejaVuSans-30"/>
      </g>
     </g>
    </g>
    <g id="ytick_3">
     <g id="line2d_11">
      <g>
       <use xlink:href="#m4f0ad187dc" x="92.490625" y="78.902515" style="stroke: #000000; stroke-width: 0.8"/>
      </g>
     </g>
     <g id="text_12">
      <!-- 200 -->
      <g transform="translate(47.315625 86.500953) scale(0.2 -0.2)">
       <use xlink:href="#DejaVuSans-32"/>
       <use xlink:href="#DejaVuSans-30" x="63.623047"/>
       <use xlink:href="#DejaVuSans-30" x="127.246094"/>
      </g>
     </g>
    </g>
    <g id="text_13">
     <!-- Loss -->
     <g transform="translate(22.396875 191.970625) rotate(-90) scale(0.2 -0.2)">
      <defs>
       <path id="DejaVuSans-4c" d="M 628 4666 
L 1259 4666 
L 1259 531 
L 3531 531 
L 3531 0 
L 628 0 
L 628 4666 
z
" transform="scale(0.015625)"/>
      </defs>
      <use xlink:href="#DejaVuSans-4c"/>
      <use xlink:href="#DejaVuSans-6f" x="53.962891"/>
      <use xlink:href="#DejaVuSans-73" x="115.144531"/>
      <use xlink:href="#DejaVuSans-73" x="167.244141"/>
     </g>
    </g>
   </g>
   <g id="line2d_12">
    <path d="M 117.854261 136.140105 
L 118.402664 97.658702 
L 118.951067 132.66545 
L 119.225269 131.50223 
L 119.49947 109.074995 
L 119.773672 70.056914 
L 120.047873 54.902085 
L 120.322075 57.926545 
L 120.596276 54.948943 
L 120.870478 45.679812 
L 121.144679 44.03625 
L 121.418881 46.554003 
L 121.693082 46.4645 
L 121.967283 61.12117 
L 122.241485 55.452144 
L 122.515686 47.371821 
L 122.789888 48.94424 
L 123.338291 67.071176 
L 123.612492 67.466942 
L 123.886694 72.47849 
L 124.160895 69.342872 
L 124.9835 94.790736 
L 125.257701 91.969084 
L 125.531903 93.229692 
L 125.806104 92.7299 
L 126.080306 100.783666 
L 126.354507 98.377732 
L 126.628709 103.555557 
L 126.90291 102.926982 
L 127.177111 106.843558 
L 127.451313 103.849343 
L 127.725514 107.982067 
L 127.999716 104.046284 
L 128.273917 105.454914 
L 128.548119 106.159588 
L 128.82232 109.279874 
L 129.096522 108.658111 
L 129.370723 113.348977 
L 129.644925 112.802562 
L 129.919126 112.886724 
L 130.741731 117.192842 
L 131.290134 121.529548 
L 131.564335 117.759482 
L 131.838537 121.031451 
L 132.112738 117.874613 
L 132.386939 123.929319 
L 132.935342 125.098673 
L 133.209544 122.790211 
L 133.483745 126.681087 
L 133.757947 124.35353 
L 134.032148 124.598737 
L 134.30635 127.579039 
L 134.854753 125.949512 
L 135.128954 128.740085 
L 135.951559 124.500406 
L 136.22576 128.099512 
L 136.499962 127.64869 
L 136.774163 124.880741 
L 137.048365 126.072068 
L 137.322566 125.0338 
L 137.870969 128.291852 
L 138.14517 127.820071 
L 138.419372 128.384262 
L 138.693573 127.725314 
L 138.967775 130.487021 
L 139.241976 124.764492 
L 139.790379 131.03801 
L 140.064581 129.370054 
L 140.338782 128.507903 
L 140.612984 129.992741 
L 140.887185 127.025059 
L 141.161387 128.463137 
L 141.435588 132.280888 
L 141.70979 126.205151 
L 141.983991 127.786885 
L 142.258193 128.36622 
L 142.532394 130.870562 
L 142.806596 129.202161 
L 143.080797 130.454508 
L 143.354998 129.324651 
L 143.6292 131.486962 
L 143.903401 126.280908 
L 144.177603 129.134088 
L 144.451804 127.71524 
L 144.726006 127.933912 
L 145.000207 130.968429 
L 145.274409 131.451701 
L 145.54861 128.47423 
L 145.822812 131.651787 
L 146.097013 132.517027 
L 146.371215 132.328264 
L 146.645416 131.551236 
L 146.919618 127.719658 
L 147.193819 129.542392 
L 147.468021 129.013006 
L 147.742222 133.998128 
L 148.016424 132.652585 
L 148.290625 134.846951 
L 148.564826 134.467355 
L 148.839028 136.200018 
L 149.113229 135.546954 
L 149.387431 132.983733 
L 149.661632 132.881623 
L 149.935834 135.628088 
L 150.210035 134.707247 
L 150.484237 132.554932 
L 150.758438 134.507047 
L 151.03264 133.025755 
L 151.306841 139.875843 
L 151.581043 134.53711 
L 151.855244 138.060798 
L 152.403647 134.071004 
L 152.677849 137.174334 
L 152.95205 138.894034 
L 153.226252 134.346656 
L 153.500453 133.628541 
L 153.774654 139.905496 
L 154.048856 139.351825 
L 154.323057 141.054145 
L 154.597259 140.309269 
L 154.87146 138.998649 
L 155.419863 139.653628 
L 155.694065 140.618431 
L 155.968266 137.012362 
L 156.242468 139.155162 
L 157.065072 136.511355 
L 157.339274 140.473876 
L 157.613475 136.474656 
L 157.887677 137.701627 
L 158.161878 137.834537 
L 158.43608 137.004483 
L 158.710281 137.949913 
L 158.984482 137.668135 
L 159.258684 141.592374 
L 159.532885 138.273643 
L 159.807087 140.58307 
L 160.35549 137.903665 
L 160.629691 139.007768 
L 160.903893 138.482864 
L 161.178094 137.668388 
L 161.452296 137.640647 
L 161.726497 137.021624 
L 162.000699 136.006231 
L 162.2749 137.474276 
L 162.549102 137.944546 
L 162.823303 135.579974 
L 163.097505 135.523171 
L 163.371706 137.942839 
L 163.645908 138.274288 
L 163.920109 140.577836 
L 164.468512 137.334687 
L 164.742713 137.22565 
L 165.565318 140.935747 
L 165.839519 138.706081 
L 166.113721 138.031621 
L 166.387922 141.258663 
L 166.662124 139.099333 
L 166.936325 141.369672 
L 167.210527 137.77225 
L 167.484728 137.347757 
L 167.75893 140.418194 
L 168.033131 139.414461 
L 168.307333 138.878593 
L 168.855736 142.18506 
L 169.129937 141.024633 
L 169.404139 141.071503 
L 169.67834 143.735901 
L 169.952541 143.388929 
L 170.500944 142.271918 
L 170.775146 144.383795 
L 171.049347 145.16363 
L 171.323549 144.086809 
L 171.59775 143.883762 
L 171.871952 144.458331 
L 172.146153 144.067005 
L 172.420355 144.523268 
L 172.694556 144.575892 
L 172.968758 144.057221 
L 173.242959 145.96549 
L 173.791362 142.712513 
L 174.065564 143.651971 
L 174.613967 146.492216 
L 174.888168 144.780635 
L 175.162369 144.081637 
L 175.436571 144.851548 
L 175.710772 146.190345 
L 175.984974 144.657309 
L 176.259175 145.82573 
L 176.807578 143.079696 
L 177.08178 144.296385 
L 177.355981 144.961194 
L 177.630183 143.808949 
L 177.904384 143.997531 
L 178.178586 146.215528 
L 178.452787 144.776813 
L 178.726989 144.718914 
L 179.00119 147.279174 
L 179.275392 145.481445 
L 179.549593 144.759004 
L 179.823795 144.778459 
L 180.372197 147.19603 
L 180.646399 145.77178 
L 180.9206 146.071329 
L 181.194802 146.691365 
L 181.469003 146.571939 
L 181.743205 146.757617 
L 182.017406 146.584022 
L 182.291608 145.073014 
L 182.565809 146.164435 
L 182.840011 146.019355 
L 183.114212 143.897742 
L 183.388414 143.447988 
L 183.662615 143.242848 
L 183.936817 144.033963 
L 184.211018 145.291173 
L 184.48522 144.827294 
L 184.759421 145.635636 
L 185.033623 145.168239 
L 185.582025 145.380979 
L 185.856227 145.052218 
L 186.130428 146.595932 
L 186.40463 146.597405 
L 186.678831 146.024231 
L 186.953033 146.12066 
L 187.227234 145.644051 
L 187.501436 145.637259 
L 187.775637 145.064343 
L 188.049839 146.527707 
L 188.32404 146.054691 
L 188.598242 146.378687 
L 189.146645 147.743065 
L 189.695048 145.699305 
L 189.969249 145.614191 
L 190.517652 146.032133 
L 190.791854 145.842341 
L 191.066055 145.851376 
L 191.340256 147.242077 
L 191.888659 145.384992 
L 192.162861 144.331136 
L 192.437062 145.156912 
L 192.711264 145.113214 
L 192.985465 146.046768 
L 193.259667 146.109475 
L 193.533868 146.358465 
L 193.80807 147.967362 
L 194.082271 145.834115 
L 194.356473 145.471832 
L 194.630674 145.909016 
L 194.904876 145.176336 
L 195.179077 145.312189 
L 195.453279 144.622425 
L 195.72748 146.161472 
L 196.001682 145.988952 
L 196.275883 145.609696 
L 196.550084 146.340256 
L 196.824286 145.255584 
L 197.098487 146.137073 
L 197.372689 145.934825 
L 197.921092 144.794355 
L 198.195293 145.822868 
L 198.469495 146.259016 
L 198.743696 145.545879 
L 199.017898 145.704226 
L 199.292099 143.833665 
L 199.566301 143.39312 
L 200.114704 144.764031 
L 200.388905 141.471619 
L 200.663107 143.258355 
L 200.937308 142.1225 
L 201.21151 142.770739 
L 201.759912 140.613826 
L 202.034114 140.124447 
L 202.308315 139.984476 
L 202.582517 140.198564 
L 202.856718 139.866343 
L 203.13092 140.192398 
L 203.405121 139.209319 
L 203.679323 137.699922 
L 203.953524 138.211979 
L 204.227726 137.472748 
L 204.501927 135.659297 
L 204.776129 136.513748 
L 205.05033 136.846126 
L 205.324532 136.708991 
L 205.872935 136.991124 
L 206.147136 137.518005 
L 206.421338 137.284661 
L 206.96974 135.462121 
L 207.243942 135.642996 
L 207.518143 135.398218 
L 207.792345 133.458761 
L 208.340748 134.309588 
L 208.889151 133.713049 
L 209.163352 133.073662 
L 209.437554 133.282183 
L 209.711755 134.055024 
L 209.985957 133.006076 
L 210.260158 133.292302 
L 210.53436 134.015364 
L 210.808561 133.691593 
L 211.082763 133.654318 
L 211.356964 134.463807 
L 211.631166 134.107787 
L 211.905367 134.925327 
L 212.179568 134.93708 
L 212.45377 134.225088 
L 212.727971 135.658831 
L 213.002173 135.124509 
L 213.276374 134.892409 
L 213.550576 136.184751 
L 213.824777 135.805301 
L 214.098979 136.403224 
L 214.37318 136.162705 
L 214.647382 137.044153 
L 214.921583 136.978352 
L 215.195785 137.257002 
L 216.018389 138.599311 
L 216.292591 138.164326 
L 216.566792 138.148874 
L 216.840994 138.875902 
L 217.115195 139.009496 
L 217.389396 138.996887 
L 217.663598 139.359301 
L 217.937799 140.196006 
L 218.486202 139.446259 
L 218.760404 139.624629 
L 219.034605 139.175819 
L 219.308807 140.360832 
L 219.583008 140.507721 
L 219.85721 140.277501 
L 220.131411 140.344361 
L 220.405613 139.688527 
L 220.679814 139.764017 
L 220.954016 140.47098 
L 221.228217 140.823755 
L 221.502419 140.00849 
L 221.77662 140.867939 
L 222.325023 140.809753 
L 222.599225 141.309758 
L 223.147627 140.6429 
L 223.421829 141.04968 
L 223.69603 141.153351 
L 223.970232 140.423128 
L 224.244433 140.617213 
L 224.518635 140.614077 
L 224.792836 141.862909 
L 225.341239 141.368711 
L 225.615441 141.72775 
L 225.889642 141.138194 
L 226.163844 141.33949 
L 226.712247 141.923022 
L 226.986448 141.878898 
L 227.26065 141.446056 
L 227.534851 142.348734 
L 227.809053 142.177576 
L 228.083254 142.347438 
L 228.357455 142.125741 
L 228.905858 142.400078 
L 229.18006 142.475297 
L 229.728463 143.255098 
L 230.276866 142.624791 
L 230.551067 142.940462 
L 230.825269 142.544034 
L 231.09947 142.637308 
L 231.373672 143.49133 
L 231.647873 143.441073 
L 231.922075 142.498801 
L 232.470478 143.267946 
L 232.744679 143.508972 
L 233.018881 144.054366 
L 233.293082 144.34474 
L 233.567283 144.041871 
L 233.841485 143.350409 
L 234.115686 143.766515 
L 234.389888 143.467922 
L 234.938291 144.488671 
L 235.212492 144.668617 
L 235.486694 144.67175 
L 235.760895 145.670451 
L 236.035097 145.760743 
L 236.309298 146.258358 
L 236.857701 147.847549 
L 237.131903 148.41856 
L 237.406104 148.68886 
L 237.680306 148.046676 
L 237.954507 148.448831 
L 238.228709 147.839463 
L 238.50291 148.048703 
L 238.777111 148.580042 
L 239.051313 148.47331 
L 239.325514 148.869761 
L 239.599716 148.968766 
L 240.42232 148.022524 
L 240.696522 148.76923 
L 240.970723 148.372024 
L 241.244925 148.493244 
L 241.519126 148.478269 
L 241.793328 148.748364 
L 242.615932 148.377159 
L 242.890134 148.893702 
L 243.438537 149.112677 
L 243.712738 148.8705 
L 243.986939 149.059157 
L 244.261141 148.448253 
L 244.535342 148.639738 
L 244.809544 148.443988 
L 245.083745 148.854225 
L 245.357947 148.831863 
L 245.632148 149.493462 
L 245.90635 149.32119 
L 246.180551 148.955499 
L 246.728954 149.348102 
L 247.003156 149.343716 
L 247.277357 149.914771 
L 247.551559 149.513644 
L 247.82576 149.769645 
L 248.374163 149.281482 
L 248.648365 149.528568 
L 248.922566 150.340114 
L 249.196768 149.765789 
L 249.470969 149.810813 
L 249.74517 150.424258 
L 250.019372 149.525793 
L 250.293573 149.916599 
L 250.841976 149.784206 
L 251.116178 149.297795 
L 251.664581 149.799474 
L 251.938782 150.375535 
L 252.212984 150.047529 
L 252.487185 150.061927 
L 252.761387 150.378216 
L 253.035588 149.992059 
L 253.30979 149.896424 
L 253.858193 150.541045 
L 254.132394 150.338546 
L 254.406596 150.392109 
L 254.680797 150.798539 
L 254.954998 150.783767 
L 255.2292 150.475998 
L 255.503401 150.561397 
L 255.777603 150.76721 
L 256.051804 150.404802 
L 256.326006 150.591651 
L 256.600207 150.610028 
L 256.874409 150.43635 
L 257.14861 150.758872 
L 257.697013 150.626565 
L 257.971215 150.923386 
L 258.245416 151.43372 
L 258.519618 150.559952 
L 258.793819 150.812884 
L 259.068021 151.217041 
L 259.342222 151.339018 
L 259.616424 151.682673 
L 259.890625 151.686438 
L 260.164826 151.245356 
L 260.439028 151.340401 
L 260.713229 151.189276 
L 261.261632 151.459706 
L 261.535834 151.102673 
L 261.810035 151.462666 
L 262.084237 150.909301 
L 262.358438 151.435733 
L 262.63264 151.265245 
L 262.906841 151.238926 
L 263.181043 151.036157 
L 263.455244 151.155105 
L 263.729446 151.430886 
L 264.003647 151.182892 
L 264.55205 151.762198 
L 265.100453 151.339679 
L 265.374654 152.078093 
L 265.648856 151.541049 
L 265.923057 152.217249 
L 266.197259 151.720446 
L 266.745662 152.453899 
L 267.019863 152.47466 
L 267.294065 152.178387 
L 267.568266 152.557004 
L 267.842468 151.581745 
L 268.390871 152.08738 
L 268.665072 151.927755 
L 268.939274 151.923196 
L 269.487677 152.252462 
L 269.761878 151.786521 
L 270.03608 151.652429 
L 270.310281 152.266472 
L 270.584482 151.899119 
L 270.858684 151.93214 
L 271.132885 151.812318 
L 271.407087 151.389304 
L 271.681288 151.815481 
L 271.95549 151.796132 
L 272.503893 152.379641 
L 272.778094 152.494751 
L 273.052296 152.357874 
L 273.326497 151.779789 
L 273.600699 151.870045 
L 273.8749 151.81871 
L 274.423303 152.744623 
L 274.697505 152.027593 
L 275.245908 152.579643 
L 275.520109 151.995365 
L 275.794311 152.91781 
L 276.068512 152.035264 
L 276.342713 152.038265 
L 276.616915 152.223482 
L 276.891116 152.150448 
L 277.439519 152.494614 
L 277.713721 153.040017 
L 278.262124 152.224673 
L 278.536325 152.337672 
L 278.810527 152.756649 
L 279.084728 152.018976 
L 279.35893 152.465712 
L 279.633131 152.591943 
L 279.907333 152.545378 
L 280.455736 153.036084 
L 280.729937 153.082897 
L 281.004139 153.593069 
L 281.27834 153.244655 
L 281.552541 153.559309 
L 281.826743 153.291544 
L 282.100944 153.297665 
L 282.923549 153.69826 
L 283.19775 153.675887 
L 283.471952 154.340532 
L 283.746153 153.994852 
L 284.020355 154.429286 
L 284.294556 154.116396 
L 284.568758 154.144122 
L 285.117161 154.426372 
L 285.391362 154.494814 
L 285.665564 154.264573 
L 285.939765 154.362213 
L 286.213967 154.155068 
L 286.762369 154.004674 
L 287.036571 153.935798 
L 287.584974 154.768638 
L 287.859175 154.579417 
L 288.133377 155.456125 
L 289.230183 155.400505 
L 289.504384 155.46561 
L 289.778586 155.063341 
L 290.052787 155.62921 
L 290.326989 155.636871 
L 290.875392 155.925934 
L 291.149593 155.242112 
L 291.423795 155.242005 
L 291.697996 155.431229 
L 291.972197 155.342126 
L 292.246399 155.675356 
L 292.5206 155.317863 
L 292.794802 155.312605 
L 293.069003 155.587132 
L 293.343205 155.539639 
L 293.617406 155.212933 
L 294.165809 155.795154 
L 295.262615 155.96858 
L 295.536817 155.538262 
L 296.08522 155.561329 
L 296.359421 155.127905 
L 296.633623 155.427119 
L 296.907824 154.904094 
L 297.182025 155.655727 
L 297.456227 155.442788 
L 297.730428 155.553067 
L 298.00463 155.221002 
L 298.278831 155.211599 
L 298.553033 155.376185 
L 298.827234 155.325448 
L 299.375637 156.000229 
L 299.649839 155.642691 
L 299.92404 155.71339 
L 300.198242 155.55804 
L 300.472443 156.06054 
L 301.569249 155.963129 
L 301.843451 155.754411 
L 302.117652 155.876285 
L 302.666055 156.499908 
L 302.940256 156.33346 
L 303.488659 156.593919 
L 303.762861 156.8335 
L 304.037062 156.668702 
L 304.311264 156.794918 
L 304.585465 156.476798 
L 305.133868 156.337321 
L 305.40807 156.607915 
L 306.504876 156.199787 
L 306.779077 156.409511 
L 307.053279 156.418915 
L 307.601682 156.920316 
L 308.424286 156.500873 
L 308.698487 156.703038 
L 308.972689 156.705211 
L 309.24689 157.113282 
L 309.521092 156.699662 
L 310.069495 157.104351 
L 310.343696 157.024251 
L 310.617898 156.489976 
L 310.892099 156.827424 
L 311.440502 156.908301 
L 311.714704 156.981501 
L 311.988905 156.459182 
L 312.263107 156.947286 
L 312.537308 157.035849 
L 312.81151 156.907641 
L 313.085711 156.962777 
L 313.359912 156.661193 
L 313.634114 156.696036 
L 314.182517 156.491423 
L 314.456718 156.746532 
L 314.73092 156.511599 
L 315.005121 157.237169 
L 315.279323 156.881704 
L 315.553524 157.134891 
L 315.827726 156.859105 
L 316.376129 157.091594 
L 317.198733 157.060549 
L 317.472935 156.659538 
L 317.747136 156.484064 
L 318.021338 157.089212 
L 318.295539 156.919912 
L 318.56974 157.220388 
L 319.392345 156.938472 
L 319.666546 156.524485 
L 319.940748 156.773895 
L 320.489151 156.595714 
L 320.763352 156.120883 
L 321.037554 156.279941 
L 321.311755 156.10918 
L 321.585957 156.802168 
L 321.860158 156.50623 
L 322.408561 156.570882 
L 322.956964 156.085815 
L 323.231166 156.558871 
L 323.779568 156.428751 
L 324.05377 156.743505 
L 324.327971 156.563803 
L 324.602173 156.865861 
L 324.876374 156.778252 
L 325.150576 156.87216 
L 325.97318 156.796657 
L 326.247382 156.349296 
L 326.521583 156.889186 
L 327.618389 156.72056 
L 327.892591 156.948533 
L 328.166792 156.867149 
L 328.715195 156.924917 
L 328.989396 157.307309 
L 329.263598 157.138188 
L 330.086202 157.020573 
L 330.360404 157.242116 
L 330.634605 156.89345 
L 330.908807 156.954108 
L 331.183008 156.868894 
L 331.45721 156.91237 
L 331.731411 157.117368 
L 332.005613 157.564812 
L 332.279814 157.002444 
L 333.102419 157.304028 
L 333.37662 157.064388 
L 333.650822 157.098418 
L 334.199225 157.402296 
L 334.473426 157.157317 
L 335.021829 157.305286 
L 335.29603 157.041411 
L 336.118635 157.02764 
L 336.392836 157.231152 
L 336.941239 157.13538 
L 337.215441 156.949878 
L 337.489642 157.166234 
L 337.763844 156.814488 
L 338.312247 156.947148 
L 339.134851 157.092111 
L 339.409053 157.169659 
L 339.683254 156.863023 
L 340.231657 156.897315 
L 340.505858 157.19827 
L 340.78006 157.229496 
L 341.602664 156.590116 
L 342.151067 157.064287 
L 342.425269 156.939517 
L 342.973672 157.183636 
L 343.247873 156.978618 
L 344.070478 157.215952 
L 344.344679 156.659101 
L 344.618881 157.073064 
L 345.441485 156.957331 
L 345.715686 157.355872 
L 346.264089 156.861785 
L 346.538291 157.05704 
L 346.812492 156.635702 
L 347.086694 156.752532 
L 347.360895 156.679933 
L 347.635097 156.857354 
L 347.909298 156.844268 
L 348.1835 157.049871 
L 348.731903 157.113893 
L 349.280306 156.859888 
L 349.554507 157.006028 
L 350.10291 156.903558 
L 350.377111 157.157826 
L 350.651313 157.005948 
L 350.925514 156.707447 
L 351.199716 156.7611 
L 351.473917 156.965757 
L 352.02232 156.879134 
L 352.296522 157.015963 
L 352.570723 156.933193 
L 352.844925 156.5966 
L 353.119126 156.938272 
L 353.667529 156.619101 
L 353.941731 156.905403 
L 354.764335 156.840711 
L 355.038537 156.98429 
L 355.312738 156.784391 
L 355.586939 156.950945 
L 355.861141 156.845454 
L 356.135342 156.944772 
L 356.409544 156.738596 
L 356.683745 156.985249 
L 356.957947 156.798298 
L 358.054753 157.228802 
L 358.328954 157.085884 
L 358.603156 157.29452 
L 358.877357 157.358049 
L 359.42576 156.767647 
L 359.699962 157.276589 
L 359.974163 156.969462 
L 360.248365 157.357298 
L 360.522566 157.315657 
L 360.796768 156.992552 
L 361.070969 157.255557 
L 361.34517 157.107822 
L 361.619372 157.194068 
L 361.893573 156.964599 
L 362.441976 156.881277 
L 362.716178 156.857108 
L 362.990379 157.127138 
L 363.264581 156.814408 
L 364.087185 157.181291 
L 364.361387 157.127673 
L 364.635588 156.920315 
L 365.458193 157.081161 
L 365.732394 156.862729 
L 366.280797 157.202825 
L 366.554998 156.860582 
L 366.8292 157.04992 
L 367.377603 157.097812 
L 367.651804 156.884484 
L 368.200207 157.04506 
L 368.474409 157.240259 
L 368.74861 157.081584 
L 369.022812 157.06549 
L 369.297013 156.804342 
L 369.845416 156.900257 
L 370.119618 156.620796 
L 370.393819 156.584278 
L 370.668021 156.28696 
L 371.216424 157.002038 
L 371.490625 156.78861 
L 371.764826 157.04417 
L 372.313229 156.965016 
L 372.587431 156.958457 
L 372.861632 157.162572 
L 373.135834 157.050881 
L 373.410035 156.783993 
L 373.684237 157.317478 
L 373.958438 157.24046 
L 374.23264 157.293773 
L 375.329446 156.930029 
L 375.603647 157.151737 
L 375.877849 156.774057 
L 376.15205 157.071522 
L 376.426252 157.188691 
L 376.700453 157.071641 
L 377.248856 157.157254 
L 377.797259 157.214291 
L 378.07146 157.15898 
L 378.345662 157.360904 
L 378.894065 156.997702 
L 379.168266 157.194465 
L 379.442468 156.958928 
L 379.716669 157.207504 
L 380.265072 157.123454 
L 380.539274 157.379931 
L 381.087677 156.781357 
L 381.361878 156.843251 
L 381.63608 157.025809 
L 381.910281 156.672248 
L 382.184482 156.997018 
L 382.458684 156.767273 
L 383.007087 156.891964 
L 383.281288 156.525233 
L 383.55549 157.069887 
L 383.829691 156.711689 
L 384.378094 156.629385 
L 384.652296 156.921364 
L 384.926497 156.741025 
L 385.200699 156.931866 
L 385.4749 156.869437 
L 385.749102 156.95297 
L 386.023303 157.325228 
L 386.297505 157.298327 
L 386.571706 156.965534 
L 387.120109 157.174368 
L 387.394311 157.216075 
L 387.668512 156.922971 
L 387.942713 157.106337 
L 388.491116 157.022951 
L 388.765318 157.332163 
L 389.039519 157.168667 
L 389.587922 157.453814 
L 389.862124 156.994763 
L 390.136325 156.99318 
L 390.410527 157.190726 
L 390.684728 156.968555 
L 390.95893 157.005915 
L 391.233131 157.276595 
L 391.507333 157.026292 
L 391.781534 157.241281 
L 392.055736 156.931915 
L 392.604139 156.664016 
L 392.87834 156.84604 
L 393.426743 156.780014 
L 393.700944 156.673134 
L 393.975146 156.824006 
L 394.249347 157.168924 
L 394.523549 157.190466 
L 395.620355 156.75704 
L 395.894556 157.067917 
L 396.168758 157.201226 
L 396.442959 157.552285 
L 397.265564 157.099451 
L 397.539765 157.305882 
L 398.362369 156.954412 
L 398.636571 157.08658 
L 399.184974 156.716346 
L 399.459175 156.814848 
L 399.733377 156.794005 
L 400.007578 157.097061 
L 400.28178 156.752772 
L 400.555981 156.809305 
L 400.830183 156.726122 
L 401.378586 156.853729 
L 401.926989 156.558932 
L 402.475392 156.821823 
L 402.749593 156.637478 
L 403.023795 157.228641 
L 403.297996 156.790699 
L 403.572197 156.873658 
L 403.846399 156.761293 
L 404.394802 157.043346 
L 404.669003 156.626639 
L 404.943205 156.745497 
L 405.217406 156.735423 
L 405.491608 156.589803 
L 405.765809 156.967555 
L 406.040011 156.991546 
L 406.862615 156.619805 
L 407.136817 157.033005 
L 407.411018 156.256251 
L 407.68522 156.560651 
L 408.233623 156.581748 
L 408.782025 156.40131 
L 409.056227 156.379756 
L 409.878831 156.669645 
L 410.427234 156.541291 
L 410.701436 156.336147 
L 410.975637 156.331775 
L 411.249839 156.531117 
L 411.798242 156.429771 
L 412.072443 156.726495 
L 412.346645 156.686724 
L 412.620846 156.912091 
L 413.169249 156.765474 
L 413.443451 157.007131 
L 413.717652 156.657293 
L 414.266055 156.765566 
L 414.540256 156.676975 
L 414.814458 156.774615 
L 415.088659 156.676206 
L 415.362861 156.897556 
L 415.637062 156.580199 
L 415.911264 157.002127 
L 416.459667 156.38125 
L 417.556473 156.42652 
L 418.104876 156.166888 
L 418.379077 156.676661 
L 418.653279 156.607214 
L 418.92748 156.813065 
L 419.475883 156.676634 
L 420.024286 156.45115 
L 420.298487 156.524964 
L 420.572689 156.857067 
L 421.121092 156.844767 
L 421.669495 157.035811 
L 421.943696 156.956528 
L 422.217898 156.700263 
L 422.766301 156.982464 
L 423.040502 156.829137 
L 423.588905 156.851996 
L 423.863107 156.630005 
L 424.41151 156.813495 
L 424.685711 156.530259 
L 425.234114 156.526709 
L 425.508315 156.791914 
L 425.782517 156.70857 
L 426.056718 156.482309 
L 426.33092 156.748484 
L 426.605121 156.667525 
L 427.976129 156.873798 
L 428.25033 156.665598 
L 428.524532 156.969997 
L 428.798733 156.868234 
L 429.072935 156.394809 
L 429.621338 156.935192 
L 429.895539 156.648261 
L 430.16974 156.779428 
L 430.443942 156.637957 
L 430.718143 156.767656 
L 430.992345 157.115061 
L 431.266546 156.695413 
L 431.540748 156.494281 
L 432.089151 156.707596 
L 432.363352 157.044696 
L 432.637554 156.747812 
L 433.185957 156.681122 
L 433.460158 156.917042 
L 434.008561 156.556288 
L 434.282763 156.971636 
L 434.556964 156.724337 
L 434.831166 156.872701 
L 435.105367 156.814154 
L 435.379568 156.950991 
L 435.65377 156.807323 
L 435.927971 157.214683 
L 436.202173 157.158081 
L 436.476374 156.902606 
L 436.750576 157.197934 
L 437.024777 157.274166 
L 437.298979 157.006934 
L 437.57318 156.933382 
L 438.395785 157.299545 
L 438.944188 157.317807 
L 439.218389 157.395789 
L 439.492591 157.229788 
L 441.412001 157.153888 
L 441.686202 157.218635 
L 441.960404 157.4042 
L 442.783008 157.319612 
L 443.05721 157.066366 
L 443.331411 157.030827 
L 443.605613 157.208899 
L 444.428217 157.305866 
L 444.702419 157.147753 
L 444.97662 157.478512 
L 445.250822 157.431349 
L 445.525023 157.151738 
L 445.799225 157.064506 
L 446.073426 157.277349 
L 447.170232 157.153039 
L 447.444433 157.424577 
L 447.718635 157.185398 
L 447.992836 157.377459 
L 448.267038 157.38607 
L 448.541239 157.16414 
L 449.089642 157.543701 
L 449.363844 157.473206 
L 449.638045 157.186025 
L 449.912247 157.440872 
L 450.186448 157.398754 
L 450.46065 157.230969 
L 451.009053 157.136352 
L 451.283254 157.396812 
L 451.557455 157.236476 
L 451.831657 157.410381 
L 452.38006 157.339079 
L 452.654261 157.452236 
L 453.202664 157.458858 
L 453.476866 157.609286 
L 453.751067 157.397912 
L 454.025269 157.363696 
L 454.29947 157.095948 
L 454.573672 157.451459 
L 454.847873 157.228895 
L 455.122075 157.165011 
L 455.396276 157.243152 
L 455.670478 157.461782 
L 455.944679 157.176534 
L 456.218881 157.386941 
L 456.493082 157.297579 
L 456.767283 157.720571 
L 457.041485 157.405566 
L 457.315686 157.685948 
L 457.589888 157.731368 
L 458.138291 157.459591 
L 458.412492 157.829444 
L 458.686694 157.401019 
L 458.960895 157.383646 
L 459.235097 157.688003 
L 459.7835 157.478963 
L 460.057701 157.611723 
L 460.606104 157.463038 
L 460.880306 157.196849 
L 461.154507 157.450248 
L 461.428709 157.273119 
L 461.70291 157.486691 
L 461.977111 157.248067 
L 462.251313 157.398509 
L 462.525514 157.413549 
L 462.799716 157.544717 
L 464.170723 157.351241 
L 464.444925 157.047504 
L 464.993328 157.474026 
L 466.090134 157.608809 
L 466.364335 157.616021 
L 466.638537 157.762144 
L 466.912738 157.577958 
L 467.186939 157.748481 
L 467.461141 157.674787 
L 467.735342 157.367928 
L 468.283745 157.731152 
L 468.557947 157.675192 
L 468.832148 157.388196 
L 469.10635 157.723952 
L 469.380551 157.425709 
L 469.928954 157.276192 
L 470.203156 157.243702 
L 470.477357 157.371686 
L 470.751559 157.311179 
L 471.02576 157.480472 
L 471.299962 157.333347 
L 471.848365 157.435204 
L 472.122566 157.213202 
L 472.396768 157.42264 
L 472.94517 157.516533 
L 473.219372 157.397726 
L 473.493573 157.471742 
L 473.767775 157.400704 
L 474.041976 157.452568 
L 474.316178 157.118808 
L 474.590379 157.121419 
L 474.864581 157.320368 
L 475.138782 157.065685 
L 475.412984 157.480127 
L 475.687185 157.580221 
L 475.961387 157.941956 
L 476.235588 157.99473 
L 476.50979 157.392726 
L 476.783991 157.62587 
L 478.154998 157.479241 
L 478.703401 157.186928 
L 478.977603 157.031504 
L 479.526006 157.135997 
L 480.622812 157.586261 
L 481.445416 157.040234 
L 481.719618 157.45804 
L 482.268021 157.401577 
L 482.542222 157.215256 
L 482.816424 157.63279 
L 483.090625 157.174889 
L 483.364826 157.436009 
L 483.639028 157.246168 
L 483.913229 157.449039 
L 484.187431 157.233074 
L 484.735834 157.574156 
L 485.010035 157.242756 
L 485.284237 157.222277 
L 485.558438 156.961946 
L 486.106841 157.24139 
L 486.381043 157.275007 
L 486.655244 157.133943 
L 486.929446 157.306623 
L 487.203647 157.068769 
L 487.477849 157.364376 
L 487.75205 157.305828 
L 488.026252 157.579262 
L 488.300453 157.534252 
L 488.574654 157.73048 
L 489.123057 157.160485 
L 489.397259 157.14379 
L 489.67146 157.241685 
L 490.219863 157.713176 
L 491.042468 157.052433 
L 491.590871 157.711293 
L 492.139274 157.360933 
L 492.413475 157.731732 
L 493.510281 157.986674 
L 493.784482 158.224134 
L 494.332885 157.863367 
L 494.607087 158.056374 
L 495.15549 157.971196 
L 495.703893 158.122377 
L 495.978094 157.706486 
L 496.252296 157.802726 
L 496.800699 158.359444 
L 497.0749 158.151754 
L 497.349102 158.189393 
L 498.171706 158.025179 
L 498.445908 158.160489 
L 498.994311 158.128554 
L 499.268512 158.185402 
L 499.542713 158.114062 
L 499.816915 157.810648 
L 500.091116 158.288977 
L 500.365318 158.082816 
L 500.639519 158.157528 
L 500.913721 157.972389 
L 501.187922 157.958637 
L 501.462124 158.168791 
L 502.010527 157.869957 
L 502.284728 158.08321 
L 502.55893 157.995369 
L 502.833131 158.150523 
L 503.655736 158.080294 
L 503.929937 158.080599 
L 504.47834 158.300445 
L 504.752541 158.260873 
L 505.026743 158.038262 
L 505.849347 158.301004 
L 506.123549 158.438642 
L 506.39775 158.227964 
L 506.671952 158.285599 
L 506.946153 158.108866 
L 507.220355 158.128389 
L 507.494556 158.001208 
L 508.042959 158.045974 
L 508.317161 157.829037 
L 508.591362 158.125693 
L 508.865564 157.699357 
L 509.139765 158.021588 
L 509.688168 157.689195 
L 509.962369 157.96439 
L 510.510772 157.633171 
L 511.059175 158.226138 
L 511.333377 157.875538 
L 511.607578 157.712027 
L 511.88178 157.840517 
L 512.155981 157.611358 
L 512.430183 157.731589 
L 512.978586 157.496991 
L 513.252787 157.610955 
L 513.526989 157.444894 
L 514.075392 157.842906 
L 514.623795 157.479309 
L 515.446399 158.03149 
L 515.7206 157.767348 
L 515.994802 157.92344 
L 516.269003 157.74766 
L 516.543205 157.963075 
L 516.817406 157.504708 
L 517.365809 157.71524 
L 518.188414 157.801124 
L 518.462615 157.780383 
L 518.736817 157.602048 
L 519.011018 157.969906 
L 519.28522 157.851506 
L 519.559421 157.860081 
L 519.833623 157.466349 
L 520.107824 157.806401 
L 520.382025 157.659981 
L 520.656227 157.886537 
L 520.930428 157.502009 
L 521.20463 157.475304 
L 522.027234 157.863981 
L 522.301436 157.855771 
L 522.575637 158.138948 
L 523.12404 157.685258 
L 523.946645 157.587453 
L 524.495048 157.948054 
L 524.769249 157.712707 
L 525.043451 157.689305 
L 525.591854 157.503519 
L 526.140256 158.070544 
L 526.414458 157.555642 
L 526.688659 157.911242 
L 526.962861 157.97747 
L 527.237062 157.760102 
L 527.511264 158.034998 
L 528.059667 157.823807 
L 528.333868 157.977156 
L 528.882271 157.938486 
L 529.156473 157.961408 
L 529.430674 157.682361 
L 529.704876 157.794958 
L 529.979077 157.49921 
L 530.52748 157.68894 
L 530.801682 157.433559 
L 531.350084 157.582751 
L 531.624286 157.539845 
L 531.898487 157.73281 
L 532.172689 157.638841 
L 532.721092 157.86119 
L 533.269495 157.594704 
L 533.543696 157.925916 
L 533.817898 157.625117 
L 534.092099 157.549178 
L 534.366301 157.789651 
L 534.640502 157.553611 
L 534.914704 157.740942 
L 535.188905 157.589741 
L 535.737308 157.622405 
L 536.01151 157.383812 
L 536.285711 157.552347 
L 536.559912 157.424867 
L 536.834114 157.756217 
L 537.108315 157.801961 
L 537.382517 157.553469 
L 537.656718 157.770641 
L 537.93092 157.768272 
L 538.479323 157.471275 
L 539.027726 157.767883 
L 539.301927 157.593783 
L 539.576129 157.896669 
L 540.124532 157.93131 
L 540.398733 157.81331 
L 541.495539 157.87469 
L 542.043942 157.67426 
L 542.318143 157.725691 
L 542.866546 157.610073 
L 543.140748 157.662954 
L 543.689151 157.336612 
L 543.963352 157.613198 
L 544.237554 157.5346 
L 544.511755 157.154997 
L 545.060158 157.233737 
L 545.33436 157.909556 
L 545.882763 157.532703 
L 546.156964 157.546559 
L 546.431166 157.672078 
L 546.705367 157.20263 
L 546.979568 157.018569 
L 547.25377 157.442466 
L 547.527971 157.596777 
L 547.802173 157.23918 
L 548.350576 157.65768 
L 548.624777 157.396838 
L 548.898979 157.623418 
L 549.447382 157.484274 
L 549.721583 157.721884 
L 549.995785 157.508966 
L 550.269986 157.764389 
L 550.818389 157.505975 
L 551.366792 157.743156 
L 551.915195 157.840981 
L 552.189396 157.580055 
L 552.463598 157.55157 
L 552.737799 157.778027 
L 553.012001 157.449123 
L 553.286202 157.869658 
L 553.560404 157.59729 
L 554.108807 157.605017 
L 554.383008 157.764661 
L 554.65721 157.659595 
L 554.931411 157.87691 
L 555.205613 157.705622 
L 555.479814 157.773473 
L 555.754016 157.546814 
L 556.028217 157.531149 
L 556.302419 157.683392 
L 556.57662 157.407992 
L 557.125023 157.724069 
L 557.399225 157.344477 
L 557.673426 157.743472 
L 557.947627 157.526342 
L 558.49603 157.611014 
L 558.770232 157.617163 
L 559.044433 157.87734 
L 559.318635 157.532254 
L 559.592836 157.708911 
L 559.867038 157.641141 
L 560.141239 157.759307 
L 560.963844 157.616095 
L 561.238045 157.820933 
L 561.512247 157.804791 
L 561.786448 157.975464 
L 562.06065 157.72731 
L 562.334851 157.747482 
L 562.609053 157.525282 
L 563.157455 157.900287 
L 563.98006 157.698475 
L 564.254261 157.867135 
L 564.528463 157.634738 
L 565.076866 157.772174 
L 565.625269 157.64916 
L 566.173672 157.114389 
L 566.722075 157.798533 
L 566.996276 157.554442 
L 567.818881 157.756239 
L 568.093082 157.740759 
L 568.367283 157.521421 
L 568.915686 157.698147 
L 569.189888 157.868272 
L 569.464089 157.797966 
L 569.738291 157.86282 
L 570.012492 157.734487 
L 570.286694 157.453691 
L 570.560895 157.795092 
L 571.109298 157.77029 
L 571.3835 157.440921 
L 572.206104 157.90009 
L 572.480306 157.738334 
L 573.577111 157.710931 
L 573.851313 157.631378 
L 574.125514 157.847901 
L 574.399716 157.651281 
L 574.673917 157.786088 
L 574.948119 157.737756 
L 575.22232 157.321947 
L 575.770723 157.604255 
L 576.319126 157.459478 
L 577.690134 157.746468 
L 577.964335 157.082673 
L 578.512738 157.003651 
L 578.786939 157.359292 
L 579.061141 157.376604 
L 579.335342 157.80967 
L 579.609544 157.550614 
L 580.157947 158.035146 
L 580.432148 158.042473 
L 580.980551 157.72142 
L 581.254753 157.815258 
L 581.528954 158.078517 
L 581.803156 157.682671 
L 582.077357 157.515631 
L 582.351559 157.881075 
L 582.62576 157.714549 
L 582.899962 157.329939 
L 583.174163 157.49114 
L 583.448365 157.386692 
L 583.722566 157.635487 
L 583.996768 157.485264 
L 584.270969 157.716257 
L 584.54517 157.353224 
L 584.819372 157.607024 
L 585.367775 157.51627 
L 585.641976 157.641356 
L 585.916178 157.483552 
L 586.190379 157.649739 
L 586.464581 157.545873 
L 586.738782 157.794796 
L 587.012984 157.608627 
L 587.287185 157.796775 
L 587.561387 157.50909 
L 588.10979 157.371444 
L 588.383991 156.963666 
L 588.932394 157.607738 
L 589.206596 157.261248 
L 589.480797 157.46966 
L 589.754998 157.370851 
L 590.0292 157.527226 
L 590.303401 157.975446 
L 590.577603 157.811063 
L 590.851804 157.814517 
L 591.674409 157.461869 
L 592.497013 157.612096 
L 592.771215 157.425711 
L 593.045416 157.692565 
L 593.319618 157.653135 
L 593.593819 157.299848 
L 594.142222 157.687697 
L 594.690625 157.602856 
L 595.239028 157.787088 
L 595.513229 157.653886 
L 596.061632 157.574719 
L 596.884237 157.1544 
L 597.158438 157.48553 
L 597.43264 157.41846 
L 597.706841 157.53363 
L 597.981043 157.482296 
L 598.255244 157.249348 
L 598.529446 157.497397 
L 599.077849 157.666267 
L 599.626252 157.323235 
L 599.900453 157.478626 
L 600.174654 157.315742 
L 600.723057 157.342157 
L 600.997259 157.744141 
L 601.27146 157.379933 
L 601.545662 157.768976 
L 601.819863 157.82353 
L 602.094065 157.48486 
L 602.368266 157.556979 
L 602.642468 157.786835 
L 602.916669 157.683917 
L 603.190871 157.742106 
L 603.465072 157.250578 
L 603.739274 157.882644 
L 604.013475 157.352554 
L 604.287677 157.618952 
L 604.561878 157.552203 
L 604.83608 157.810314 
L 605.384482 157.747254 
L 605.658684 157.96629 
L 605.932885 157.637494 
L 606.207087 157.840465 
L 607.303893 158.053088 
L 607.578094 157.860334 
L 607.852296 157.878711 
L 608.400699 157.627546 
L 608.6749 157.741776 
L 608.949102 157.494956 
L 609.223303 157.62489 
L 609.497505 157.627944 
L 609.771706 157.82993 
L 610.045908 157.702649 
L 610.320109 157.818193 
L 611.691116 157.664092 
L 611.965318 157.467348 
L 612.513721 158.117657 
L 612.787922 157.961348 
L 613.062124 157.656475 
L 613.336325 157.575927 
L 613.610527 157.987246 
L 614.433131 157.464802 
L 614.707333 157.873153 
L 614.981534 158.004703 
L 615.255736 158.006909 
L 615.804139 157.676152 
L 616.07834 157.946209 
L 616.352541 157.697413 
L 616.626743 157.635562 
L 616.900944 157.842202 
L 617.175146 157.718379 
L 617.449347 157.94242 
L 617.723549 157.891256 
L 617.99775 158.138062 
L 618.271952 158.162837 
L 618.820355 157.83943 
L 619.094556 157.975943 
L 619.368758 157.715908 
L 619.642959 157.746637 
L 620.191362 157.268295 
L 620.739765 158.005007 
L 621.013967 157.78413 
L 621.562369 157.948923 
L 621.836571 157.854459 
L 622.384974 158.023611 
L 622.659175 157.865586 
L 622.933377 157.964979 
L 623.207578 157.806228 
L 623.48178 157.859752 
L 624.304384 157.621087 
L 624.578586 157.800328 
L 624.852787 157.647773 
L 625.126989 157.968243 
L 625.126989 157.968243 
" clip-path="url(#pf416ee58ba)" style="fill: none; stroke: #1f77b4; stroke-width: 1.5; stroke-linecap: square"/>
   </g>
   <g id="line2d_13">
    <path d="M 117.854261 254.938135 
L 118.128463 296.03625 
L 118.951067 187.276667 
L 119.225269 189.706367 
L 119.49947 199.947919 
L 119.773672 215.797721 
L 120.322075 198.696802 
L 120.870478 191.667623 
L 121.144679 187.178186 
L 121.693082 181.518091 
L 121.967283 172.836631 
L 122.241485 177.084168 
L 122.515686 176.002442 
L 122.789888 180.292152 
L 123.338291 176.06466 
L 123.612492 175.975991 
L 123.886694 174.803012 
L 124.160895 176.218112 
L 124.709298 172.621992 
L 124.9835 174.243191 
L 125.257701 176.566693 
L 125.531903 173.999041 
L 125.806104 173.336092 
L 126.080306 171.437928 
L 126.354507 173.335198 
L 126.628709 172.257273 
L 126.90291 172.221129 
L 127.177111 171.317887 
L 127.451313 174.228225 
L 127.725514 174.212043 
L 127.999716 172.3616 
L 128.273917 174.62792 
L 128.82232 173.635043 
L 129.096522 172.33708 
L 129.370723 172.44086 
L 129.644925 171.153063 
L 129.919126 171.94099 
L 130.193328 171.945602 
L 130.467529 172.134762 
L 130.741731 171.688203 
L 131.015932 172.966357 
L 131.564335 171.552824 
L 132.112738 173.746198 
L 132.386939 171.707896 
L 132.935342 171.970886 
L 133.209544 170.970049 
L 133.757947 171.354679 
L 134.30635 173.167313 
L 134.854753 172.811369 
L 135.128954 171.409545 
L 135.677357 174.302414 
L 135.951559 172.613514 
L 136.22576 172.593085 
L 136.499962 171.222889 
L 136.774163 171.566571 
L 137.048365 172.197917 
L 137.596768 172.719121 
L 137.870969 172.528508 
L 138.14517 171.880279 
L 138.419372 171.604792 
L 138.693573 172.486302 
L 138.967775 172.588694 
L 139.241976 173.111377 
L 139.516178 171.824538 
L 139.790379 171.427537 
L 140.064581 172.134662 
L 140.338782 172.388463 
L 140.612984 172.99041 
L 141.161387 173.19691 
L 141.435588 172.615522 
L 141.70979 173.116519 
L 141.983991 174.450834 
L 142.532394 173.067075 
L 142.806596 173.406221 
L 143.080797 172.090916 
L 143.354998 173.59965 
L 143.6292 173.205076 
L 144.177603 175.600819 
L 144.451804 175.336454 
L 144.726006 175.347132 
L 145.000207 172.839012 
L 145.274409 174.86629 
L 145.54861 172.849161 
L 146.371215 175.266 
L 146.645416 173.253777 
L 146.919618 175.196099 
L 147.193819 176.064354 
L 147.468021 174.710514 
L 147.742222 174.716729 
L 148.016424 174.534071 
L 148.290625 173.717343 
L 148.564826 174.202458 
L 148.839028 175.168232 
L 149.113229 173.329799 
L 149.387431 173.707572 
L 149.661632 175.512934 
L 149.935834 175.412587 
L 150.484237 174.236053 
L 150.758438 174.495109 
L 151.03264 174.457927 
L 151.306841 173.598044 
L 151.581043 173.556798 
L 151.855244 174.226957 
L 152.129446 172.842117 
L 152.403647 174.033998 
L 152.677849 171.82722 
L 152.95205 173.466877 
L 153.226252 171.590813 
L 153.500453 173.837477 
L 153.774654 174.196744 
L 154.323057 172.477713 
L 154.597259 174.105548 
L 154.87146 170.266629 
L 155.145662 170.28206 
L 155.419863 170.728368 
L 155.694065 172.379129 
L 155.968266 172.545078 
L 156.242468 173.10725 
L 156.516669 172.727759 
L 157.065072 171.206784 
L 157.339274 172.85732 
L 157.613475 169.132799 
L 157.887677 167.331023 
L 158.161878 169.746138 
L 158.43608 170.89915 
L 158.710281 171.197267 
L 158.984482 171.290808 
L 159.258684 170.065879 
L 159.532885 170.701915 
L 159.807087 169.38946 
L 160.081288 169.828205 
L 160.35549 167.50936 
L 160.629691 169.867771 
L 160.903893 170.174255 
L 161.178094 169.140012 
L 161.452296 169.54945 
L 161.726497 171.783569 
L 162.000699 168.517541 
L 162.2749 168.987571 
L 162.549102 168.750076 
L 163.097505 171.450895 
L 163.371706 171.729048 
L 163.645908 171.055364 
L 163.920109 168.730249 
L 164.468512 171.317043 
L 164.742713 170.891562 
L 165.016915 168.43404 
L 165.839519 170.685864 
L 166.113721 167.229364 
L 166.387922 169.860336 
L 166.662124 170.315567 
L 166.936325 166.725035 
L 167.210527 168.727225 
L 167.484728 168.558664 
L 168.033131 169.35949 
L 168.307333 169.370134 
L 168.581534 169.961826 
L 168.855736 168.556259 
L 169.129937 170.718922 
L 169.404139 168.860858 
L 169.67834 170.40796 
L 169.952541 167.685218 
L 170.226743 168.199201 
L 170.775146 170.578275 
L 171.323549 169.629412 
L 171.871952 169.775695 
L 172.146153 170.735877 
L 172.420355 170.170243 
L 172.694556 170.533776 
L 172.968758 170.003519 
L 173.242959 170.422865 
L 173.517161 169.232927 
L 173.791362 168.608221 
L 174.065564 168.981682 
L 174.339765 169.866374 
L 174.613967 168.866532 
L 174.888168 170.029044 
L 175.162369 169.272354 
L 175.436571 170.493606 
L 175.710772 169.511944 
L 175.984974 169.666177 
L 176.259175 170.312552 
L 176.807578 170.441513 
L 177.08178 169.193993 
L 177.355981 170.700225 
L 177.630183 170.408394 
L 177.904384 170.390795 
L 178.178586 168.707613 
L 178.452787 168.567834 
L 178.726989 168.555006 
L 179.00119 169.782664 
L 179.275392 169.375414 
L 179.549593 170.828587 
L 179.823795 169.300857 
L 180.097996 169.55813 
L 180.372197 168.334885 
L 180.646399 167.962417 
L 181.194802 169.137734 
L 181.469003 169.272664 
L 181.743205 168.226628 
L 182.017406 169.71668 
L 182.565809 167.264729 
L 182.840011 168.508186 
L 183.114212 168.568905 
L 183.388414 169.47394 
L 183.662615 167.353207 
L 184.211018 169.12375 
L 184.48522 167.556371 
L 184.759421 167.498236 
L 185.033623 168.372565 
L 185.307824 166.057744 
L 185.582025 168.455916 
L 185.856227 169.283844 
L 186.40463 168.434012 
L 186.953033 169.942208 
L 187.227234 171.442653 
L 187.501436 170.744467 
L 187.775637 169.635116 
L 188.049839 169.531875 
L 188.32404 169.192391 
L 188.598242 171.219978 
L 189.146645 168.883082 
L 189.420846 169.9975 
L 189.695048 170.620432 
L 189.969249 170.428596 
L 190.243451 169.78904 
L 190.517652 171.271427 
L 190.791854 170.455118 
L 191.340256 169.500853 
L 192.162861 171.378662 
L 192.437062 169.724076 
L 192.711264 169.908073 
L 192.985465 170.59831 
L 193.259667 168.845588 
L 194.082271 170.477496 
L 194.356473 169.453045 
L 194.630674 170.539155 
L 194.904876 170.41447 
L 195.179077 170.541219 
L 195.453279 170.364321 
L 195.72748 169.476405 
L 196.275883 170.988097 
L 196.550084 170.720209 
L 196.824286 170.610929 
L 197.098487 170.250932 
L 197.372689 170.983601 
L 197.64689 171.334155 
L 197.921092 170.607384 
L 198.195293 171.594585 
L 198.469495 170.74801 
L 198.743696 171.102039 
L 199.017898 165.668203 
L 199.292099 157.260271 
L 199.566301 158.109435 
L 200.114704 158.065066 
L 200.388905 159.253093 
L 200.663107 157.933172 
L 201.21151 159.216684 
L 201.485711 158.952384 
L 201.759912 159.774269 
L 202.034114 159.497486 
L 202.308315 159.514434 
L 202.582517 159.810076 
L 202.856718 159.243292 
L 203.13092 159.990796 
L 203.405121 159.520692 
L 203.679323 160.025602 
L 204.227726 159.908322 
L 204.501927 160.32958 
L 204.776129 160.154614 
L 205.05033 159.818638 
L 205.324532 159.734872 
L 205.598733 159.897215 
L 205.872935 159.637781 
L 206.147136 160.053261 
L 206.421338 159.948993 
L 206.695539 160.615295 
L 206.96974 159.828245 
L 207.243942 159.865906 
L 207.518143 159.767255 
L 207.792345 160.544821 
L 208.066546 159.858306 
L 208.340748 160.628665 
L 208.614949 160.316323 
L 208.889151 160.832474 
L 209.163352 160.978815 
L 209.437554 159.986471 
L 209.711755 159.913214 
L 209.985957 160.487713 
L 210.53436 160.706538 
L 211.082763 160.026634 
L 211.356964 160.417298 
L 211.631166 160.304212 
L 211.905367 160.57298 
L 212.179568 160.25048 
L 212.45377 160.492115 
L 212.727971 160.432943 
L 213.002173 160.643788 
L 213.276374 160.544122 
L 213.824777 160.211009 
L 214.098979 159.614008 
L 214.37318 160.273213 
L 214.921583 159.906737 
L 215.195785 160.47459 
L 215.469986 159.342558 
L 215.744188 159.780157 
L 216.018389 159.273843 
L 216.566792 159.899822 
L 216.840994 159.765321 
L 217.115195 159.897305 
L 217.389396 159.424204 
L 217.663598 159.791611 
L 217.937799 159.646656 
L 218.212001 159.29827 
L 218.486202 159.624578 
L 218.760404 159.152912 
L 219.034605 159.176085 
L 219.308807 159.064748 
L 219.583008 159.418686 
L 219.85721 159.253508 
L 220.405613 159.800961 
L 220.679814 159.610222 
L 220.954016 159.767646 
L 221.228217 159.258101 
L 221.502419 159.465059 
L 221.77662 159.516275 
L 222.325023 159.381971 
L 222.873426 159.476896 
L 223.147627 159.130857 
L 223.69603 159.603505 
L 223.970232 158.947125 
L 224.244433 159.258055 
L 224.792836 159.591428 
L 225.067038 159.406045 
L 225.341239 159.503871 
L 225.615441 158.876726 
L 225.889642 159.627697 
L 226.163844 159.631467 
L 226.438045 159.09707 
L 226.712247 159.191761 
L 226.986448 159.851682 
L 227.26065 159.400114 
L 227.534851 159.600971 
L 227.809053 159.400481 
L 228.083254 159.734207 
L 228.357455 159.494294 
L 228.905858 159.609264 
L 229.728463 159.752787 
L 230.002664 159.198844 
L 230.276866 159.908282 
L 230.551067 159.466196 
L 230.825269 159.699557 
L 231.09947 159.645381 
L 231.373672 160.019621 
L 231.647873 159.595929 
L 233.018881 159.606665 
L 233.293082 159.94807 
L 233.567283 159.719841 
L 233.841485 159.649272 
L 234.115686 162.848622 
L 234.389888 158.196261 
L 234.664089 159.594087 
L 234.938291 159.816541 
L 235.212492 159.585803 
L 235.486694 159.791473 
L 235.760895 159.62025 
L 236.035097 159.814353 
L 236.309298 159.681243 
L 236.5835 159.994622 
L 236.857701 159.768833 
L 237.131903 159.373059 
L 237.954507 159.860811 
L 238.228709 159.527404 
L 238.50291 159.690969 
L 238.777111 159.504895 
L 239.051313 159.835262 
L 239.325514 159.449771 
L 239.599716 159.812848 
L 239.873917 159.550961 
L 240.148119 159.758294 
L 240.696522 159.550144 
L 241.244925 159.683732 
L 241.519126 159.744483 
L 242.067529 159.492884 
L 242.341731 159.886462 
L 242.615932 159.425712 
L 243.438537 159.597965 
L 243.986939 159.507324 
L 244.261141 159.820618 
L 244.535342 159.745091 
L 245.083745 159.926608 
L 245.357947 159.71463 
L 245.632148 160.015056 
L 245.90635 159.538858 
L 246.728954 160.086147 
L 247.003156 159.750671 
L 247.551559 159.785548 
L 247.82576 159.464118 
L 248.099962 159.979955 
L 248.374163 160.123462 
L 248.648365 159.783599 
L 249.196768 159.852492 
L 249.470969 159.76547 
L 249.74517 159.849602 
L 250.019372 160.331629 
L 250.293573 159.971812 
L 250.567775 159.825108 
L 250.841976 159.831308 
L 251.116178 160.129987 
L 251.390379 160.084658 
L 251.664581 160.428929 
L 251.938782 159.703395 
L 253.035588 159.86017 
L 253.30979 160.021164 
L 253.583991 159.838181 
L 253.858193 160.044828 
L 254.406596 159.802884 
L 254.680797 160.08104 
L 254.954998 159.821094 
L 255.2292 159.862872 
L 255.503401 159.664279 
L 256.051804 159.991116 
L 256.326006 159.845669 
L 256.600207 159.564818 
L 256.874409 159.790168 
L 257.14861 159.71072 
L 257.422812 159.947068 
L 257.971215 159.906012 
L 258.245416 159.76006 
L 258.519618 159.991688 
L 259.068021 159.622636 
L 259.342222 159.63479 
L 259.616424 160.404745 
L 259.890625 159.638482 
L 260.164826 159.88917 
L 260.439028 159.97846 
L 260.713229 159.696818 
L 260.987431 160.236157 
L 261.261632 160.100391 
L 261.535834 159.790208 
L 261.810035 160.004479 
L 262.084237 159.662231 
L 262.358438 159.830562 
L 262.63264 160.244886 
L 262.906841 160.341749 
L 263.181043 159.687567 
L 263.455244 159.846473 
L 263.729446 159.855453 
L 264.003647 159.645816 
L 264.277849 159.946496 
L 264.55205 159.753758 
L 264.826252 160.061147 
L 265.923057 159.708261 
L 266.197259 159.433518 
L 266.745662 159.985576 
L 267.019863 159.963234 
L 267.294065 160.270411 
L 267.568266 159.757382 
L 268.390871 160.045401 
L 268.939274 159.52485 
L 269.487677 159.783737 
L 269.761878 160.015356 
L 270.03608 159.970082 
L 270.310281 159.466431 
L 270.858684 159.635054 
L 271.407087 159.885683 
L 271.681288 159.906866 
L 271.95549 159.816491 
L 272.229691 159.598509 
L 272.503893 159.9902 
L 272.778094 159.46575 
L 273.052296 159.562266 
L 273.326497 159.920128 
L 273.600699 159.713966 
L 273.8749 159.773368 
L 274.423303 159.604772 
L 274.971706 159.926805 
L 275.245908 159.652873 
L 276.068512 159.965805 
L 276.616915 159.548664 
L 277.165318 159.707622 
L 277.439519 159.896745 
L 277.713721 159.945302 
L 277.987922 159.644816 
L 278.536325 159.736002 
L 278.810527 159.510788 
L 279.35893 159.811761 
L 280.181534 159.450157 
L 280.455736 159.792891 
L 281.27834 159.629241 
L 281.552541 159.587784 
L 281.826743 159.78791 
L 282.100944 159.697469 
L 282.923549 159.848373 
L 283.19775 159.419198 
L 283.746153 159.72341 
L 284.294556 159.395262 
L 284.568758 159.633672 
L 284.842959 159.68716 
L 285.117161 159.473452 
L 285.391362 159.770971 
L 285.665564 159.680967 
L 285.939765 159.826732 
L 286.213967 159.701002 
L 287.036571 159.706407 
L 287.310772 158.956341 
L 287.584974 159.210162 
L 287.859175 159.150131 
L 288.68178 159.326243 
L 288.955981 159.274705 
L 289.230183 159.101313 
L 289.504384 159.082649 
L 289.778586 159.538282 
L 290.052787 159.18276 
L 290.326989 159.372376 
L 290.875392 159.415286 
L 291.149593 159.405631 
L 291.697996 159.099731 
L 291.972197 159.168823 
L 292.246399 159.613607 
L 292.5206 159.548557 
L 293.069003 159.197683 
L 294.440011 159.347542 
L 294.714212 159.231899 
L 295.262615 159.535565 
L 295.536817 159.212669 
L 295.811018 159.350605 
L 296.08522 159.010449 
L 296.359421 159.577426 
L 296.633623 159.346066 
L 297.182025 159.271282 
L 297.456227 159.582383 
L 297.730428 159.202346 
L 298.00463 159.384679 
L 298.278831 159.292158 
L 298.553033 159.356976 
L 298.827234 159.145893 
L 299.101436 159.101161 
L 299.375637 159.326422 
L 299.649839 159.329543 
L 299.92404 159.536034 
L 300.198242 159.403914 
L 301.020846 159.628812 
L 301.569249 159.206096 
L 301.843451 159.228473 
L 302.117652 159.556564 
L 302.666055 159.344892 
L 302.940256 159.371927 
L 303.214458 159.515831 
L 303.488659 159.412729 
L 304.037062 159.516309 
L 304.311264 159.291315 
L 304.859667 159.604475 
L 305.40807 159.478132 
L 305.682271 159.163141 
L 306.230674 159.43178 
L 306.504876 159.352497 
L 306.779077 159.655163 
L 307.053279 159.574333 
L 307.32748 159.285191 
L 307.601682 159.381459 
L 308.150084 159.324402 
L 308.424286 159.458589 
L 308.698487 159.088448 
L 309.795293 159.732886 
L 310.069495 159.821255 
L 310.617898 159.397001 
L 310.892099 159.350916 
L 311.714704 159.64263 
L 312.263107 159.167728 
L 312.81151 159.803997 
L 313.359912 159.420055 
L 313.634114 159.583008 
L 314.182517 159.307652 
L 314.456718 159.83824 
L 314.73092 159.50724 
L 315.005121 159.513531 
L 315.279323 159.750751 
L 316.101927 159.395116 
L 316.376129 159.244557 
L 316.65033 159.54009 
L 316.924532 159.555156 
L 317.198733 159.443475 
L 317.472935 159.761959 
L 317.747136 159.439606 
L 318.56974 159.493523 
L 318.843942 159.5239 
L 319.118143 159.861896 
L 319.940748 159.462552 
L 321.311755 159.698796 
L 321.585957 159.472698 
L 321.860158 159.801056 
L 322.13436 159.782304 
L 322.408561 159.508473 
L 322.682763 159.517261 
L 322.956964 159.743753 
L 323.505367 159.692201 
L 324.327971 159.799585 
L 325.150576 159.69435 
L 325.424777 160.026117 
L 325.698979 159.533543 
L 325.97318 160.027189 
L 326.247382 159.729629 
L 326.521583 159.834519 
L 326.795785 159.761206 
L 327.069986 159.543284 
L 327.344188 159.661817 
L 327.618389 159.571411 
L 327.892591 159.959909 
L 328.166792 159.747461 
L 328.715195 159.724208 
L 328.989396 159.480784 
L 329.263598 159.593188 
L 329.537799 159.83157 
L 330.360404 159.585146 
L 330.634605 159.439153 
L 330.908807 159.819119 
L 331.45721 159.708435 
L 332.005613 159.662827 
L 332.279814 159.879633 
L 332.554016 159.687496 
L 332.828217 159.74539 
L 333.37662 159.553485 
L 333.650822 159.622187 
L 333.925023 159.415154 
L 334.199225 159.775125 
L 334.747627 159.7147 
L 335.021829 159.783111 
L 335.29603 159.538692 
L 335.844433 159.90848 
L 336.392836 159.477932 
L 336.667038 159.900248 
L 336.941239 159.471127 
L 337.489642 159.601649 
L 337.763844 159.62955 
L 338.038045 159.790189 
L 338.312247 159.513038 
L 338.586448 159.569492 
L 339.409053 159.289072 
L 339.683254 159.471976 
L 340.231657 159.374036 
L 340.505858 159.788639 
L 340.78006 159.147229 
L 341.054261 159.307542 
L 341.328463 159.742232 
L 341.602664 159.67504 
L 341.876866 159.410793 
L 342.151067 159.50115 
L 342.425269 159.385024 
L 342.69947 159.700471 
L 343.247873 159.697331 
L 343.522075 159.766796 
L 343.796276 159.496689 
L 344.070478 159.914742 
L 344.344679 159.448661 
L 344.893082 159.526298 
L 346.264089 160.034643 
L 346.538291 159.930973 
L 346.812492 159.549915 
L 347.086694 160.006157 
L 347.360895 159.85438 
L 347.635097 159.455156 
L 347.909298 159.668607 
L 348.1835 159.711955 
L 348.457701 159.543182 
L 348.731903 159.570787 
L 349.006104 159.952514 
L 349.554507 159.740781 
L 349.828709 160.024092 
L 350.377111 159.661005 
L 350.651313 159.608166 
L 350.925514 159.982724 
L 351.199716 159.745533 
L 351.473917 159.720903 
L 351.748119 159.866206 
L 352.02232 159.519399 
L 352.570723 159.60149 
L 352.844925 159.139675 
L 353.119126 159.711909 
L 353.667529 159.328031 
L 353.941731 159.430813 
L 354.215932 159.414399 
L 354.490134 159.823902 
L 354.764335 159.534425 
L 355.038537 159.454347 
L 355.312738 159.697668 
L 355.586939 159.526248 
L 356.135342 159.530927 
L 356.683745 159.779882 
L 357.232148 159.492664 
L 357.50635 159.429365 
L 358.054753 159.531068 
L 359.151559 159.521309 
L 359.42576 159.282817 
L 359.699962 159.404112 
L 359.974163 159.25863 
L 360.248365 159.297662 
L 360.522566 159.739175 
L 360.796768 159.663931 
L 361.070969 159.352342 
L 361.34517 159.532874 
L 361.619372 159.571296 
L 361.893573 159.304234 
L 362.167775 159.5288 
L 362.441976 159.408174 
L 363.264581 159.446086 
L 363.538782 159.429242 
L 363.812984 159.583049 
L 364.087185 159.256764 
L 364.361387 159.178391 
L 364.635588 159.21655 
L 364.90979 159.500185 
L 365.458193 159.502946 
L 365.732394 159.324808 
L 366.280797 159.452139 
L 366.554998 159.556143 
L 366.8292 159.346862 
L 367.377603 159.795516 
L 367.651804 159.456845 
L 367.926006 159.656084 
L 369.022812 159.54322 
L 369.297013 159.108917 
L 369.571215 159.491197 
L 370.119618 159.747815 
L 370.393819 159.789845 
L 370.942222 159.338114 
L 371.764826 159.667715 
L 372.587431 159.439418 
L 372.861632 159.64441 
L 373.135834 159.326737 
L 373.410035 159.710196 
L 373.684237 159.687435 
L 373.958438 159.374196 
L 374.23264 159.734714 
L 374.506841 159.494122 
L 374.781043 159.644118 
L 375.055244 159.394707 
L 375.603647 159.702644 
L 375.877849 159.587716 
L 376.15205 159.624401 
L 376.700453 159.435365 
L 376.974654 159.643733 
L 377.248856 159.20884 
L 377.523057 159.38156 
L 378.07146 159.524548 
L 378.345662 159.656495 
L 379.168266 159.673257 
L 379.442468 159.341085 
L 379.716669 159.314489 
L 380.265072 159.63012 
L 380.813475 159.545637 
L 381.087677 159.724555 
L 381.63608 159.720195 
L 381.910281 159.732752 
L 382.458684 159.517618 
L 382.732885 159.65694 
L 383.55549 159.716498 
L 383.829691 159.819512 
L 384.378094 159.449787 
L 384.926497 159.579427 
L 385.200699 159.587575 
L 385.4749 159.313503 
L 385.749102 159.495652 
L 386.023303 159.536232 
L 386.297505 159.875302 
L 386.571706 159.609927 
L 386.845908 159.505796 
L 387.120109 159.744403 
L 387.394311 159.816955 
L 387.942713 159.428054 
L 388.491116 159.509739 
L 389.039519 159.525389 
L 389.313721 159.380383 
L 389.587922 159.604921 
L 389.862124 159.494035 
L 390.410527 159.763635 
L 390.684728 159.45245 
L 391.507333 159.634865 
L 391.781534 159.449201 
L 392.055736 159.901162 
L 392.329937 159.591707 
L 392.604139 159.561419 
L 392.87834 159.824703 
L 393.152541 159.600347 
L 394.249347 159.889638 
L 394.523549 159.714231 
L 394.79775 159.8754 
L 395.346153 159.450661 
L 395.620355 159.637099 
L 395.894556 159.446477 
L 396.442959 159.584198 
L 396.717161 159.662242 
L 396.991362 159.520966 
L 397.539765 159.62848 
L 397.813967 159.505493 
L 398.088168 159.674214 
L 398.362369 159.519186 
L 398.636571 159.832837 
L 399.184974 159.429122 
L 399.459175 159.757839 
L 399.733377 159.898156 
L 400.007578 159.755126 
L 400.28178 160.112504 
L 400.555981 159.725632 
L 401.378586 159.669072 
L 401.652787 159.729294 
L 401.926989 160.040188 
L 402.20119 160.052854 
L 402.475392 159.896999 
L 402.749593 159.933446 
L 403.572197 159.734445 
L 403.846399 159.968722 
L 404.1206 159.836955 
L 404.394802 160.016696 
L 404.669003 159.606598 
L 405.491608 160.148566 
L 405.765809 159.980135 
L 406.314212 160.26983 
L 406.588414 159.920814 
L 406.862615 159.862846 
L 407.136817 160.12178 
L 407.68522 160.136281 
L 407.959421 160.057228 
L 408.233623 160.21907 
L 408.507824 160.005969 
L 408.782025 160.135018 
L 409.056227 159.881965 
L 409.330428 160.059702 
L 409.878831 159.860121 
L 410.153033 160.081947 
L 411.52404 160.133197 
L 411.798242 159.956105 
L 412.346645 159.806906 
L 412.620846 159.713799 
L 412.895048 160.083397 
L 413.169249 160.00115 
L 413.991854 160.12699 
L 414.266055 159.649867 
L 414.540256 159.990463 
L 415.362861 159.860726 
L 415.637062 160.18576 
L 416.185465 159.780786 
L 416.459667 159.838794 
L 416.733868 159.601415 
L 417.00807 159.949269 
L 417.282271 159.993924 
L 417.556473 159.920866 
L 417.830674 159.729038 
L 418.104876 160.00489 
L 418.379077 159.954406 
L 418.653279 159.6966 
L 419.201682 159.87414 
L 419.750084 159.824099 
L 420.024286 160.081569 
L 420.298487 159.5808 
L 420.572689 159.930805 
L 420.84689 159.626735 
L 421.121092 159.81654 
L 421.395293 159.718918 
L 421.669495 159.936655 
L 421.943696 159.711283 
L 422.217898 159.868317 
L 422.766301 159.679539 
L 423.040502 159.797399 
L 423.588905 159.741714 
L 423.863107 159.552871 
L 424.41151 159.933726 
L 424.685711 160.183809 
L 424.959912 160.00262 
L 425.234114 159.673592 
L 425.782517 159.940752 
L 426.056718 159.645777 
L 426.33092 159.875995 
L 426.879323 159.746021 
L 427.976129 159.865316 
L 429.072935 159.537773 
L 429.347136 159.819234 
L 429.621338 159.630136 
L 430.16974 159.759536 
L 430.443942 159.641354 
L 430.718143 159.859099 
L 430.992345 159.908891 
L 431.540748 159.794249 
L 431.814949 159.80096 
L 432.089151 159.677804 
L 432.363352 159.813629 
L 432.637554 159.488641 
L 433.73436 159.694787 
L 434.008561 160.147921 
L 434.282763 160.156468 
L 434.556964 159.693855 
L 435.105367 159.606839 
L 435.379568 159.686566 
L 435.65377 159.463515 
L 435.927971 159.655897 
L 436.750576 159.27166 
L 437.024777 159.659907 
L 437.298979 159.562841 
L 437.57318 159.846286 
L 437.847382 159.791676 
L 438.121583 159.62079 
L 438.395785 159.753217 
L 438.669986 159.36951 
L 439.218389 159.751166 
L 439.492591 159.425858 
L 440.040994 159.417738 
L 440.315195 159.798508 
L 440.589396 159.485476 
L 441.137799 159.69975 
L 441.412001 159.574771 
L 441.686202 159.590338 
L 441.960404 159.408781 
L 442.783008 159.610035 
L 443.05721 159.351786 
L 443.331411 159.763508 
L 443.605613 159.855228 
L 444.154016 159.666302 
L 444.428217 159.699491 
L 444.702419 159.490449 
L 444.97662 159.587118 
L 445.250822 159.905329 
L 445.525023 159.793016 
L 445.799225 159.435549 
L 446.073426 159.586284 
L 447.170232 159.41242 
L 447.718635 159.511803 
L 447.992836 159.421732 
L 448.541239 159.527112 
L 448.815441 159.738887 
L 449.089642 159.659056 
L 449.363844 159.380914 
L 450.186448 159.647705 
L 450.46065 159.485879 
L 451.009053 159.772861 
L 451.283254 159.288573 
L 451.557455 159.512686 
L 452.105858 159.726163 
L 452.38006 159.493014 
L 452.928463 159.752655 
L 453.202664 159.53422 
L 453.476866 159.76499 
L 453.751067 159.549533 
L 455.396276 159.373882 
L 455.670478 159.59583 
L 455.944679 159.520448 
L 456.218881 159.291873 
L 457.315686 159.347053 
L 457.589888 159.183105 
L 457.864089 159.432497 
L 458.138291 159.262491 
L 458.412492 159.593969 
L 458.960895 159.227279 
L 459.509298 159.328931 
L 460.057701 159.251524 
L 460.880306 159.665913 
L 461.154507 159.454533 
L 461.428709 159.435962 
L 461.70291 159.68433 
L 461.977111 159.426113 
L 462.251313 159.449003 
L 462.525514 159.257284 
L 462.799716 159.456978 
L 463.073917 159.30405 
L 463.348119 159.501237 
L 463.896522 159.394667 
L 464.170723 159.515108 
L 464.444925 159.179665 
L 464.719126 159.532834 
L 464.993328 159.309891 
L 465.267529 159.464331 
L 465.541731 159.466292 
L 465.815932 159.20631 
L 466.090134 159.343079 
L 466.364335 159.329486 
L 466.912738 159.555537 
L 467.186939 159.409654 
L 467.461141 159.478526 
L 467.735342 159.175951 
L 468.009544 159.221496 
L 468.283745 158.999204 
L 469.10635 159.427368 
L 469.654753 159.079605 
L 470.203156 159.65813 
L 470.477357 159.381467 
L 470.751559 159.341337 
L 471.02576 159.72104 
L 471.299962 159.317652 
L 471.574163 159.145908 
L 471.848365 159.304488 
L 473.493573 159.472833 
L 474.041976 159.191371 
L 474.316178 159.402192 
L 474.590379 159.44428 
L 474.864581 159.337955 
L 475.138782 159.616899 
L 475.412984 159.073256 
L 475.687185 159.091922 
L 475.961387 159.556844 
L 477.332394 159.452945 
L 477.606596 159.586297 
L 477.880797 159.592005 
L 478.154998 159.486001 
L 478.4292 158.899336 
L 478.703401 158.003987 
L 479.251804 158.879162 
L 479.526006 158.862496 
L 479.800207 159.005324 
L 480.074409 158.879011 
L 480.622812 159.197948 
L 481.171215 159.051869 
L 481.445416 159.274149 
L 481.993819 159.099388 
L 482.268021 159.046486 
L 482.542222 159.175417 
L 483.913229 159.272893 
L 484.461632 158.842898 
L 484.735834 159.021238 
L 485.010035 159.361978 
L 485.284237 159.518446 
L 485.558438 159.199618 
L 486.106841 159.091074 
L 486.929446 159.263664 
L 487.203647 159.453515 
L 487.75205 159.090151 
L 488.300453 159.198085 
L 488.574654 159.349574 
L 488.848856 159.116218 
L 489.123057 159.307855 
L 489.397259 159.319902 
L 489.67146 159.155548 
L 490.219863 159.442667 
L 490.768266 159.088154 
L 491.590871 159.392005 
L 491.865072 159.225261 
L 492.139274 159.453977 
L 492.413475 159.444142 
L 492.687677 159.151936 
L 492.961878 159.274032 
L 493.23608 159.084634 
L 493.510281 159.34848 
L 493.784482 159.186183 
L 494.607087 159.264768 
L 494.881288 159.064034 
L 495.15549 159.114143 
L 495.429691 159.438743 
L 495.703893 159.383622 
L 495.978094 159.141323 
L 496.252296 159.511424 
L 497.0749 159.223266 
L 497.349102 159.304592 
L 497.623303 159.122111 
L 497.897505 159.140219 
L 498.171706 159.01583 
L 498.445908 159.289632 
L 499.816915 159.289031 
L 500.091116 159.360818 
L 500.365318 159.036288 
L 500.639519 159.053012 
L 500.913721 158.863311 
L 501.462124 159.210691 
L 501.736325 159.447206 
L 502.010527 159.093597 
L 502.284728 159.246072 
L 503.929937 159.110554 
L 504.204139 159.278099 
L 504.47834 159.10161 
L 505.026743 159.155708 
L 505.300944 159.153041 
L 505.575146 159.373727 
L 505.849347 159.082113 
L 506.39775 159.299473 
L 506.671952 159.548631 
L 506.946153 159.267257 
L 507.220355 159.146505 
L 507.768758 159.234023 
L 508.042959 159.125528 
L 508.317161 159.259211 
L 508.591362 159.256376 
L 508.865564 159.072117 
L 509.413967 159.155252 
L 509.688168 159.448899 
L 509.962369 159.398846 
L 510.236571 159.466904 
L 510.510772 159.179112 
L 511.059175 159.438995 
L 511.88178 159.183983 
L 512.155981 159.488518 
L 513.252787 159.250571 
L 513.80119 159.414905 
L 514.075392 159.183358 
L 514.349593 159.098757 
L 514.623795 159.390451 
L 515.446399 159.185516 
L 515.7206 159.534182 
L 516.269003 158.827296 
L 516.543205 159.230734 
L 516.817406 159.018089 
L 517.365809 159.450297 
L 518.188414 158.956488 
L 518.462615 159.10434 
L 518.736817 159.406038 
L 519.011018 159.390124 
L 519.28522 159.093709 
L 519.559421 159.301532 
L 520.656227 159.259072 
L 521.20463 159.654362 
L 521.478831 159.517937 
L 521.753033 159.112459 
L 522.027234 159.579525 
L 522.301436 159.356064 
L 522.575637 159.538176 
L 522.849839 159.336329 
L 523.12404 159.523294 
L 523.398242 159.095471 
L 523.672443 159.328474 
L 523.946645 159.214917 
L 524.220846 159.238568 
L 524.495048 159.463432 
L 524.769249 159.336114 
L 525.043451 159.371214 
L 525.317652 159.003497 
L 525.591854 159.425594 
L 525.866055 159.275349 
L 526.140256 159.447039 
L 526.688659 159.341351 
L 527.237062 159.043313 
L 527.511264 159.290882 
L 527.785465 159.111946 
L 528.059667 159.39416 
L 528.333868 158.978849 
L 528.60807 159.594843 
L 528.882271 159.268843 
L 529.156473 159.203447 
L 529.430674 159.360939 
L 529.704876 159.158794 
L 529.979077 159.344586 
L 530.52748 159.429633 
L 530.801682 158.983202 
L 531.075883 159.167933 
L 531.624286 159.264787 
L 531.898487 159.55279 
L 532.44689 159.182046 
L 532.721092 159.251437 
L 532.995293 159.19695 
L 533.269495 159.389876 
L 533.543696 159.363848 
L 533.817898 159.151184 
L 534.092099 159.219959 
L 534.366301 159.540704 
L 534.640502 159.432546 
L 534.914704 159.104321 
L 535.188905 159.346655 
L 535.463107 159.136442 
L 536.01151 159.280501 
L 536.834114 158.997794 
L 537.108315 159.330885 
L 537.382517 159.362026 
L 537.656718 158.992906 
L 538.205121 159.116277 
L 538.479323 158.92544 
L 538.753524 159.209745 
L 539.301927 158.928437 
L 539.576129 158.84874 
L 540.124532 159.032629 
L 540.672935 158.910901 
L 541.221338 159.058414 
L 541.495539 159.039388 
L 541.76974 159.2095 
L 542.043942 159.084884 
L 543.140748 159.331411 
L 543.689151 159.101291 
L 543.963352 159.083502 
L 544.237554 159.204251 
L 544.511755 158.108318 
L 545.608561 158.736507 
L 546.156964 158.839687 
L 546.431166 158.382554 
L 546.979568 158.185659 
L 547.25377 157.968647 
L 547.527971 158.511352 
L 548.076374 158.304499 
L 548.350576 158.482685 
L 548.624777 158.356419 
L 549.447382 158.43663 
L 549.721583 158.668759 
L 550.269986 158.720199 
L 550.818389 158.157177 
L 551.092591 158.405659 
L 551.366792 158.191948 
L 551.640994 158.439843 
L 552.189396 158.387554 
L 552.463598 158.314403 
L 553.012001 158.34334 
L 553.286202 158.331678 
L 553.834605 158.582212 
L 554.108807 158.235271 
L 554.383008 158.481213 
L 554.65721 158.34142 
L 555.479814 158.443074 
L 556.028217 158.10498 
L 556.57662 158.440227 
L 556.850822 158.327735 
L 557.673426 158.429455 
L 557.947627 158.076776 
L 558.221829 158.406135 
L 558.49603 158.104959 
L 558.770232 158.265343 
L 559.044433 158.239468 
L 559.318635 158.386296 
L 559.592836 158.295456 
L 560.141239 158.323243 
L 560.689642 158.276168 
L 560.963844 158.348569 
L 561.238045 158.553417 
L 561.786448 158.286388 
L 562.06065 158.400917 
L 562.334851 158.323523 
L 562.883254 158.537015 
L 563.431657 158.301369 
L 563.705858 158.440519 
L 563.98006 158.415879 
L 564.254261 158.577805 
L 564.802664 158.474524 
L 565.076866 158.520382 
L 565.625269 158.234909 
L 565.89947 157.96738 
L 566.173672 158.652495 
L 566.996276 158.361952 
L 567.544679 158.484098 
L 567.818881 158.304603 
L 568.093082 158.496432 
L 568.367283 158.274428 
L 569.189888 158.522384 
L 569.464089 158.408583 
L 569.738291 158.468863 
L 570.012492 158.675547 
L 570.286694 158.424128 
L 570.560895 158.564791 
L 571.3835 158.427071 
L 571.657701 158.469526 
L 571.931903 158.27099 
L 572.206104 158.438399 
L 572.754507 158.236386 
L 573.30291 158.37815 
L 573.577111 158.483304 
L 573.851313 158.334638 
L 574.673917 158.348012 
L 574.948119 158.102606 
L 575.22232 158.201766 
L 575.496522 158.462072 
L 575.770723 158.227601 
L 576.044925 158.377568 
L 576.319126 158.315315 
L 576.593328 158.394371 
L 576.867529 158.275148 
L 577.690134 158.273684 
L 578.238537 157.208127 
L 579.061141 157.491882 
L 579.335342 157.621168 
L 579.883745 157.669049 
L 580.157947 157.779067 
L 580.432148 158.152072 
L 580.70635 158.036305 
L 581.254753 158.146226 
L 581.528954 157.985161 
L 582.899962 158.069482 
L 583.174163 157.873415 
L 583.448365 157.979548 
L 583.722566 158.285356 
L 584.270969 158.059329 
L 584.54517 158.108893 
L 585.093573 157.640404 
L 585.367775 158.01851 
L 585.641976 157.88671 
L 586.190379 158.008035 
L 586.464581 157.752118 
L 586.738782 158.009229 
L 587.012984 157.92961 
L 587.287185 157.645254 
L 587.835588 157.608622 
L 588.10979 156.963062 
L 588.383991 157.704123 
L 588.658193 157.75225 
L 588.932394 157.647033 
L 589.480797 157.791681 
L 590.0292 157.809546 
L 590.303401 157.636198 
L 590.577603 157.810162 
L 591.126006 157.789503 
L 591.400207 157.901056 
L 591.94861 157.653382 
L 592.222812 157.786364 
L 592.497013 157.717021 
L 592.771215 158.010967 
L 593.319618 157.868429 
L 593.868021 157.930493 
L 594.142222 157.944006 
L 594.416424 157.835117 
L 594.690625 158.127367 
L 594.964826 157.838622 
L 595.239028 157.751677 
L 595.787431 158.170981 
L 596.335834 157.724092 
L 596.610035 157.730193 
L 596.884237 157.960321 
L 597.43264 158.028358 
L 597.981043 157.995979 
L 598.803647 157.913792 
L 599.077849 158.039267 
L 599.35205 157.859206 
L 599.626252 158.165626 
L 599.900453 158.11353 
L 600.174654 158.320557 
L 600.448856 158.38037 
L 601.27146 157.983463 
L 602.368266 158.212841 
L 602.642468 158.114344 
L 602.916669 158.148869 
L 603.190871 157.961212 
L 603.465072 158.206359 
L 604.287677 158.102318 
L 604.561878 157.879331 
L 604.83608 158.177994 
L 605.658684 157.957734 
L 605.932885 158.173975 
L 606.207087 158.086463 
L 606.481288 158.335944 
L 607.029691 158.158665 
L 607.303893 158.218491 
L 607.852296 158.101603 
L 608.400699 158.155686 
L 608.6749 158.283107 
L 609.223303 158.241061 
L 609.771706 158.562617 
L 610.045908 158.29635 
L 610.868512 158.111821 
L 611.142713 158.247908 
L 611.416915 158.160399 
L 611.691116 158.567746 
L 611.965318 158.314658 
L 612.239519 158.40682 
L 612.513721 158.802631 
L 612.787922 158.350314 
L 613.062124 158.321737 
L 613.336325 158.093911 
L 613.610527 158.120214 
L 613.884728 157.999021 
L 614.15893 158.026889 
L 614.433131 158.412805 
L 615.529937 158.162366 
L 616.352541 158.405794 
L 616.626743 158.151752 
L 616.900944 158.188082 
L 617.175146 158.089977 
L 617.449347 158.242712 
L 617.723549 158.142021 
L 617.99775 158.390372 
L 618.546153 158.412656 
L 618.820355 158.096092 
L 619.094556 158.25548 
L 619.642959 158.121568 
L 619.917161 158.386141 
L 620.191362 158.172479 
L 620.465564 158.438488 
L 621.013967 158.282356 
L 621.288168 158.346021 
L 621.562369 158.275132 
L 621.836571 158.433918 
L 622.110772 158.423793 
L 622.659175 158.070554 
L 622.933377 158.359387 
L 623.207578 158.242031 
L 623.48178 158.437071 
L 624.030183 158.343158 
L 624.304384 158.025153 
L 624.578586 158.138141 
L 624.852787 157.899362 
L 625.126989 158.154239 
L 625.126989 158.154239 
" clip-path="url(#pf416ee58ba)" style="fill: none; stroke: #ff7f0e; stroke-width: 1.5; stroke-linecap: square"/>
   </g>
   <g id="patch_3">
    <path d="M 92.490625 308.63625 
L 92.490625 31.43625 
" style="fill: none; stroke: #000000; stroke-width: 0.8; stroke-linejoin: miter; stroke-linecap: square"/>
   </g>
   <g id="patch_4">
    <path d="M 650.490625 308.63625 
L 650.490625 31.43625 
" style="fill: none; stroke: #000000; stroke-width: 0.8; stroke-linejoin: miter; stroke-linecap: square"/>
   </g>
   <g id="patch_5">
    <path d="M 92.490625 308.63625 
L 650.490625 308.63625 
" style="fill: none; stroke: #000000; stroke-width: 0.8; stroke-linejoin: miter; stroke-linecap: square"/>
   </g>
   <g id="patch_6">
    <path d="M 92.490625 31.43625 
L 650.490625 31.43625 
" style="fill: none; stroke: #000000; stroke-width: 0.8; stroke-linejoin: miter; stroke-linecap: square"/>
   </g>
   <g id="text_14">
    <!-- Generator and Discriminator Loss During Training -->
    <g transform="translate(74.258125 25.43625) scale(0.24 -0.24)">
     <defs>
      <path id="DejaVuSans-47" d="M 3809 666 
L 3809 1919 
L 2778 1919 
L 2778 2438 
L 4434 2438 
L 4434 434 
Q 4069 175 3628 42 
Q 3188 -91 2688 -91 
Q 1594 -91 976 548 
Q 359 1188 359 2328 
Q 359 3472 976 4111 
Q 1594 4750 2688 4750 
Q 3144 4750 3555 4637 
Q 3966 4525 4313 4306 
L 4313 3634 
Q 3963 3931 3569 4081 
Q 3175 4231 2741 4231 
Q 1884 4231 1454 3753 
Q 1025 3275 1025 2328 
Q 1025 1384 1454 906 
Q 1884 428 2741 428 
Q 3075 428 3337 486 
Q 3600 544 3809 666 
z
" transform="scale(0.015625)"/>
      <path id="DejaVuSans-20" transform="scale(0.015625)"/>
      <path id="DejaVuSans-64" d="M 2906 2969 
L 2906 4863 
L 3481 4863 
L 3481 0 
L 2906 0 
L 2906 525 
Q 2725 213 2448 61 
Q 2172 -91 1784 -91 
Q 1150 -91 751 415 
Q 353 922 353 1747 
Q 353 2572 751 3078 
Q 1150 3584 1784 3584 
Q 2172 3584 2448 3432 
Q 2725 3281 2906 2969 
z
M 947 1747 
Q 947 1113 1208 752 
Q 1469 391 1925 391 
Q 2381 391 2643 752 
Q 2906 1113 2906 1747 
Q 2906 2381 2643 2742 
Q 2381 3103 1925 3103 
Q 1469 3103 1208 2742 
Q 947 2381 947 1747 
z
" transform="scale(0.015625)"/>
      <path id="DejaVuSans-44" d="M 1259 4147 
L 1259 519 
L 2022 519 
Q 2988 519 3436 956 
Q 3884 1394 3884 2338 
Q 3884 3275 3436 3711 
Q 2988 4147 2022 4147 
L 1259 4147 
z
M 628 4666 
L 1925 4666 
Q 3281 4666 3915 4102 
Q 4550 3538 4550 2338 
Q 4550 1131 3912 565 
Q 3275 0 1925 0 
L 628 0 
L 628 4666 
z
" transform="scale(0.015625)"/>
      <path id="DejaVuSans-63" d="M 3122 3366 
L 3122 2828 
Q 2878 2963 2633 3030 
Q 2388 3097 2138 3097 
Q 1578 3097 1268 2742 
Q 959 2388 959 1747 
Q 959 1106 1268 751 
Q 1578 397 2138 397 
Q 2388 397 2633 464 
Q 2878 531 3122 666 
L 3122 134 
Q 2881 22 2623 -34 
Q 2366 -91 2075 -91 
Q 1284 -91 818 406 
Q 353 903 353 1747 
Q 353 2603 823 3093 
Q 1294 3584 2113 3584 
Q 2378 3584 2631 3529 
Q 2884 3475 3122 3366 
z
" transform="scale(0.015625)"/>
      <path id="DejaVuSans-6d" d="M 3328 2828 
Q 3544 3216 3844 3400 
Q 4144 3584 4550 3584 
Q 5097 3584 5394 3201 
Q 5691 2819 5691 2113 
L 5691 0 
L 5113 0 
L 5113 2094 
Q 5113 2597 4934 2840 
Q 4756 3084 4391 3084 
Q 3944 3084 3684 2787 
Q 3425 2491 3425 1978 
L 3425 0 
L 2847 0 
L 2847 2094 
Q 2847 2600 2669 2842 
Q 2491 3084 2119 3084 
Q 1678 3084 1418 2786 
Q 1159 2488 1159 1978 
L 1159 0 
L 581 0 
L 581 3500 
L 1159 3500 
L 1159 2956 
Q 1356 3278 1631 3431 
Q 1906 3584 2284 3584 
Q 2666 3584 2933 3390 
Q 3200 3197 3328 2828 
z
" transform="scale(0.015625)"/>
      <path id="DejaVuSans-75" d="M 544 1381 
L 544 3500 
L 1119 3500 
L 1119 1403 
Q 1119 906 1312 657 
Q 1506 409 1894 409 
Q 2359 409 2629 706 
Q 2900 1003 2900 1516 
L 2900 3500 
L 3475 3500 
L 3475 0 
L 2900 0 
L 2900 538 
Q 2691 219 2414 64 
Q 2138 -91 1772 -91 
Q 1169 -91 856 284 
Q 544 659 544 1381 
z
M 1991 3584 
L 1991 3584 
z
" transform="scale(0.015625)"/>
      <path id="DejaVuSans-67" d="M 2906 1791 
Q 2906 2416 2648 2759 
Q 2391 3103 1925 3103 
Q 1463 3103 1205 2759 
Q 947 2416 947 1791 
Q 947 1169 1205 825 
Q 1463 481 1925 481 
Q 2391 481 2648 825 
Q 2906 1169 2906 1791 
z
M 3481 434 
Q 3481 -459 3084 -895 
Q 2688 -1331 1869 -1331 
Q 1566 -1331 1297 -1286 
Q 1028 -1241 775 -1147 
L 775 -588 
Q 1028 -725 1275 -790 
Q 1522 -856 1778 -856 
Q 2344 -856 2625 -561 
Q 2906 -266 2906 331 
L 2906 616 
Q 2728 306 2450 153 
Q 2172 0 1784 0 
Q 1141 0 747 490 
Q 353 981 353 1791 
Q 353 2603 747 3093 
Q 1141 3584 1784 3584 
Q 2172 3584 2450 3431 
Q 2728 3278 2906 2969 
L 2906 3500 
L 3481 3500 
L 3481 434 
z
" transform="scale(0.015625)"/>
      <path id="DejaVuSans-54" d="M -19 4666 
L 3928 4666 
L 3928 4134 
L 2272 4134 
L 2272 0 
L 1638 0 
L 1638 4134 
L -19 4134 
L -19 4666 
z
" transform="scale(0.015625)"/>
     </defs>
     <use xlink:href="#DejaVuSans-47"/>
     <use xlink:href="#DejaVuSans-65" x="77.490234"/>
     <use xlink:href="#DejaVuSans-6e" x="139.013672"/>
     <use xlink:href="#DejaVuSans-65" x="202.392578"/>
     <use xlink:href="#DejaVuSans-72" x="263.916016"/>
     <use xlink:href="#DejaVuSans-61" x="305.029297"/>
     <use xlink:href="#DejaVuSans-74" x="366.308594"/>
     <use xlink:href="#DejaVuSans-6f" x="405.517578"/>
     <use xlink:href="#DejaVuSans-72" x="466.699219"/>
     <use xlink:href="#DejaVuSans-20" x="507.8125"/>
     <use xlink:href="#DejaVuSans-61" x="539.599609"/>
     <use xlink:href="#DejaVuSans-6e" x="600.878906"/>
     <use xlink:href="#DejaVuSans-64" x="664.257812"/>
     <use xlink:href="#DejaVuSans-20" x="727.734375"/>
     <use xlink:href="#DejaVuSans-44" x="759.521484"/>
     <use xlink:href="#DejaVuSans-69" x="836.523438"/>
     <use xlink:href="#DejaVuSans-73" x="864.306641"/>
     <use xlink:href="#DejaVuSans-63" x="916.40625"/>
     <use xlink:href="#DejaVuSans-72" x="971.386719"/>
     <use xlink:href="#DejaVuSans-69" x="1012.5"/>
     <use xlink:href="#DejaVuSans-6d" x="1040.283203"/>
     <use xlink:href="#DejaVuSans-69" x="1137.695312"/>
     <use xlink:href="#DejaVuSans-6e" x="1165.478516"/>
     <use xlink:href="#DejaVuSans-61" x="1228.857422"/>
     <use xlink:href="#DejaVuSans-74" x="1290.136719"/>
     <use xlink:href="#DejaVuSans-6f" x="1329.345703"/>
     <use xlink:href="#DejaVuSans-72" x="1390.527344"/>
     <use xlink:href="#DejaVuSans-20" x="1431.640625"/>
     <use xlink:href="#DejaVuSans-4c" x="1463.427734"/>
     <use xlink:href="#DejaVuSans-6f" x="1517.390625"/>
     <use xlink:href="#DejaVuSans-73" x="1578.572266"/>
     <use xlink:href="#DejaVuSans-73" x="1630.671875"/>
     <use xlink:href="#DejaVuSans-20" x="1682.771484"/>
     <use xlink:href="#DejaVuSans-44" x="1714.558594"/>
     <use xlink:href="#DejaVuSans-75" x="1791.560547"/>
     <use xlink:href="#DejaVuSans-72" x="1854.939453"/>
     <use xlink:href="#DejaVuSans-69" x="1896.052734"/>
     <use xlink:href="#DejaVuSans-6e" x="1923.835938"/>
     <use xlink:href="#DejaVuSans-67" x="1987.214844"/>
     <use xlink:href="#DejaVuSans-20" x="2050.691406"/>
     <use xlink:href="#DejaVuSans-54" x="2082.478516"/>
     <use xlink:href="#DejaVuSans-72" x="2128.8125"/>
     <use xlink:href="#DejaVuSans-61" x="2169.925781"/>
     <use xlink:href="#DejaVuSans-69" x="2231.205078"/>
     <use xlink:href="#DejaVuSans-6e" x="2258.988281"/>
     <use xlink:href="#DejaVuSans-69" x="2322.367188"/>
     <use xlink:href="#DejaVuSans-6e" x="2350.150391"/>
     <use xlink:href="#DejaVuSans-67" x="2413.529297"/>
    </g>
   </g>
   <g id="legend_1">
    <g id="patch_7">
     <path d="M 556.99375 106.14875 
L 636.490625 106.14875 
Q 640.490625 106.14875 640.490625 102.14875 
L 640.490625 45.43625 
Q 640.490625 41.43625 636.490625 41.43625 
L 556.99375 41.43625 
Q 552.99375 41.43625 552.99375 45.43625 
L 552.99375 102.14875 
Q 552.99375 106.14875 556.99375 106.14875 
z
" style="fill: #ffffff; opacity: 0.8; stroke: #cccccc; stroke-linejoin: miter"/>
    </g>
    <g id="line2d_14">
     <path d="M 560.99375 57.633125 
L 580.99375 57.633125 
L 600.99375 57.633125 
" style="fill: none; stroke: #1f77b4; stroke-width: 1.5; stroke-linecap: square"/>
    </g>
    <g id="text_15">
     <!-- G -->
     <g transform="translate(616.99375 64.633125) scale(0.2 -0.2)">
      <use xlink:href="#DejaVuSans-47"/>
     </g>
    </g>
    <g id="line2d_15">
     <path d="M 560.99375 86.989375 
L 580.99375 86.989375 
L 600.99375 86.989375 
" style="fill: none; stroke: #ff7f0e; stroke-width: 1.5; stroke-linecap: square"/>
    </g>
    <g id="text_16">
     <!-- D -->
     <g transform="translate(616.99375 93.989375) scale(0.2 -0.2)">
      <use xlink:href="#DejaVuSans-44"/>
     </g>
    </g>
   </g>
  </g>
 </g>
 <defs>
  <clipPath id="pf416ee58ba">
   <rect x="92.490625" y="31.43625" width="558" height="277.2"/>
  </clipPath>
 </defs>
</svg>
