<?xml version="1.0" encoding="utf-8" standalone="no"?>
<!DOCTYPE svg PUBLIC "-//W3C//DTD SVG 1.1//EN"
  "http://www.w3.org/Graphics/SVG/1.1/DTD/svg11.dtd">
<svg xmlns:xlink="http://www.w3.org/1999/xlink" width="675.923125pt" height="365.54875pt" viewBox="0 0 675.923125 365.54875" xmlns="http://www.w3.org/2000/svg" version="1.1">
 <metadata>
  <rdf:RDF xmlns:dc="http://purl.org/dc/elements/1.1/" xmlns:cc="http://creativecommons.org/ns#" xmlns:rdf="http://www.w3.org/1999/02/22-rdf-syntax-ns#">
   <cc:Work>
    <dc:type rdf:resource="http://purl.org/dc/dcmitype/StillImage"/>
    <dc:date>2024-02-01T06:51:52.434917</dc:date>
    <dc:format>image/svg+xml</dc:format>
    <dc:creator>
     <cc:Agent>
      <dc:title>Matplotlib v3.7.2, https://matplotlib.org/</dc:title>
     </cc:Agent>
    </dc:creator>
   </cc:Work>
  </rdf:RDF>
 </metadata>
 <defs>
  <style type="text/css">*{stroke-linejoin: round; stroke-linecap: butt}</style>
 </defs>
 <g id="figure_1">
  <g id="patch_1">
   <path d="M 0 365.54875 
L 675.923125 365.54875 
L 675.923125 -0 
L 0 -0 
z
" style="fill: #ffffff"/>
  </g>
  <g id="axes_1">
   <g id="patch_2">
    <path d="M 92.490625 308.63625 
L 650.490625 308.63625 
L 650.490625 31.43625 
L 92.490625 31.43625 
z
" style="fill: #ffffff"/>
   </g>
   <g id="matplotlib.axis_1">
    <g id="xtick_1">
     <g id="line2d_1">
      <defs>
       <path id="mfd34553004" d="M 0 0 
L 0 3.5 
" style="stroke: #000000; stroke-width: 0.8"/>
      </defs>
      <g>
       <use xlink:href="#mfd34553004" x="117.854261" y="308.63625" style="stroke: #000000; stroke-width: 0.8"/>
      </g>
     </g>
     <g id="text_1">
      <!-- 0 -->
      <g transform="translate(111.491761 330.833125) scale(0.2 -0.2)">
       <defs>
        <path id="DejaVuSans-30" d="M 2034 4250 
Q 1547 4250 1301 3770 
Q 1056 3291 1056 2328 
Q 1056 1369 1301 889 
Q 1547 409 2034 409 
Q 2525 409 2770 889 
Q 3016 1369 3016 2328 
Q 3016 3291 2770 3770 
Q 2525 4250 2034 4250 
z
M 2034 4750 
Q 2819 4750 3233 4129 
Q 3647 3509 3647 2328 
Q 3647 1150 3233 529 
Q 2819 -91 2034 -91 
Q 1250 -91 836 529 
Q 422 1150 422 2328 
Q 422 3509 836 4129 
Q 1250 4750 2034 4750 
z
" transform="scale(0.015625)"/>
       </defs>
       <use xlink:href="#DejaVuSans-30"/>
      </g>
     </g>
    </g>
    <g id="xtick_2">
     <g id="line2d_2">
      <g>
       <use xlink:href="#mfd34553004" x="202.399716" y="308.63625" style="stroke: #000000; stroke-width: 0.8"/>
      </g>
     </g>
     <g id="text_2">
      <!-- 100 -->
      <g transform="translate(183.312216 330.833125) scale(0.2 -0.2)">
       <defs>
        <path id="DejaVuSans-31" d="M 794 531 
L 1825 531 
L 1825 4091 
L 703 3866 
L 703 4441 
L 1819 4666 
L 2450 4666 
L 2450 531 
L 3481 531 
L 3481 0 
L 794 0 
L 794 531 
z
" transform="scale(0.015625)"/>
       </defs>
       <use xlink:href="#DejaVuSans-31"/>
       <use xlink:href="#DejaVuSans-30" x="63.623047"/>
       <use xlink:href="#DejaVuSans-30" x="127.246094"/>
      </g>
     </g>
    </g>
    <g id="xtick_3">
     <g id="line2d_3">
      <g>
       <use xlink:href="#mfd34553004" x="286.94517" y="308.63625" style="stroke: #000000; stroke-width: 0.8"/>
      </g>
     </g>
     <g id="text_3">
      <!-- 200 -->
      <g transform="translate(267.85767 330.833125) scale(0.2 -0.2)">
       <defs>
        <path id="DejaVuSans-32" d="M 1228 531 
L 3431 531 
L 3431 0 
L 469 0 
L 469 531 
Q 828 903 1448 1529 
Q 2069 2156 2228 2338 
Q 2531 2678 2651 2914 
Q 2772 3150 2772 3378 
Q 2772 3750 2511 3984 
Q 2250 4219 1831 4219 
Q 1534 4219 1204 4116 
Q 875 4013 500 3803 
L 500 4441 
Q 881 4594 1212 4672 
Q 1544 4750 1819 4750 
Q 2544 4750 2975 4387 
Q 3406 4025 3406 3419 
Q 3406 3131 3298 2873 
Q 3191 2616 2906 2266 
Q 2828 2175 2409 1742 
Q 1991 1309 1228 531 
z
" transform="scale(0.015625)"/>
       </defs>
       <use xlink:href="#DejaVuSans-32"/>
       <use xlink:href="#DejaVuSans-30" x="63.623047"/>
       <use xlink:href="#DejaVuSans-30" x="127.246094"/>
      </g>
     </g>
    </g>
    <g id="xtick_4">
     <g id="line2d_4">
      <g>
       <use xlink:href="#mfd34553004" x="371.490625" y="308.63625" style="stroke: #000000; stroke-width: 0.8"/>
      </g>
     </g>
     <g id="text_4">
      <!-- 300 -->
      <g transform="translate(352.403125 330.833125) scale(0.2 -0.2)">
       <defs>
        <path id="DejaVuSans-33" d="M 2597 2516 
Q 3050 2419 3304 2112 
Q 3559 1806 3559 1356 
Q 3559 666 3084 287 
Q 2609 -91 1734 -91 
Q 1441 -91 1130 -33 
Q 819 25 488 141 
L 488 750 
Q 750 597 1062 519 
Q 1375 441 1716 441 
Q 2309 441 2620 675 
Q 2931 909 2931 1356 
Q 2931 1769 2642 2001 
Q 2353 2234 1838 2234 
L 1294 2234 
L 1294 2753 
L 1863 2753 
Q 2328 2753 2575 2939 
Q 2822 3125 2822 3475 
Q 2822 3834 2567 4026 
Q 2313 4219 1838 4219 
Q 1578 4219 1281 4162 
Q 984 4106 628 3988 
L 628 4550 
Q 988 4650 1302 4700 
Q 1616 4750 1894 4750 
Q 2613 4750 3031 4423 
Q 3450 4097 3450 3541 
Q 3450 3153 3228 2886 
Q 3006 2619 2597 2516 
z
" transform="scale(0.015625)"/>
       </defs>
       <use xlink:href="#DejaVuSans-33"/>
       <use xlink:href="#DejaVuSans-30" x="63.623047"/>
       <use xlink:href="#DejaVuSans-30" x="127.246094"/>
      </g>
     </g>
    </g>
    <g id="xtick_5">
     <g id="line2d_5">
      <g>
       <use xlink:href="#mfd34553004" x="456.03608" y="308.63625" style="stroke: #000000; stroke-width: 0.8"/>
      </g>
     </g>
     <g id="text_5">
      <!-- 400 -->
      <g transform="translate(436.94858 330.833125) scale(0.2 -0.2)">
       <defs>
        <path id="DejaVuSans-34" d="M 2419 4116 
L 825 1625 
L 2419 1625 
L 2419 4116 
z
M 2253 4666 
L 3047 4666 
L 3047 1625 
L 3713 1625 
L 3713 1100 
L 3047 1100 
L 3047 0 
L 2419 0 
L 2419 1100 
L 313 1100 
L 313 1709 
L 2253 4666 
z
" transform="scale(0.015625)"/>
       </defs>
       <use xlink:href="#DejaVuSans-34"/>
       <use xlink:href="#DejaVuSans-30" x="63.623047"/>
       <use xlink:href="#DejaVuSans-30" x="127.246094"/>
      </g>
     </g>
    </g>
    <g id="xtick_6">
     <g id="line2d_6">
      <g>
       <use xlink:href="#mfd34553004" x="540.581534" y="308.63625" style="stroke: #000000; stroke-width: 0.8"/>
      </g>
     </g>
     <g id="text_6">
      <!-- 500 -->
      <g transform="translate(521.494034 330.833125) scale(0.2 -0.2)">
       <defs>
        <path id="DejaVuSans-35" d="M 691 4666 
L 3169 4666 
L 3169 4134 
L 1269 4134 
L 1269 2991 
Q 1406 3038 1543 3061 
Q 1681 3084 1819 3084 
Q 2600 3084 3056 2656 
Q 3513 2228 3513 1497 
Q 3513 744 3044 326 
Q 2575 -91 1722 -91 
Q 1428 -91 1123 -41 
Q 819 9 494 109 
L 494 744 
Q 775 591 1075 516 
Q 1375 441 1709 441 
Q 2250 441 2565 725 
Q 2881 1009 2881 1497 
Q 2881 1984 2565 2268 
Q 2250 2553 1709 2553 
Q 1456 2553 1204 2497 
Q 953 2441 691 2322 
L 691 4666 
z
" transform="scale(0.015625)"/>
       </defs>
       <use xlink:href="#DejaVuSans-35"/>
       <use xlink:href="#DejaVuSans-30" x="63.623047"/>
       <use xlink:href="#DejaVuSans-30" x="127.246094"/>
      </g>
     </g>
    </g>
    <g id="xtick_7">
     <g id="line2d_7">
      <g>
       <use xlink:href="#mfd34553004" x="625.126989" y="308.63625" style="stroke: #000000; stroke-width: 0.8"/>
      </g>
     </g>
     <g id="text_7">
      <!-- 600 -->
      <g transform="translate(606.039489 330.833125) scale(0.2 -0.2)">
       <defs>
        <path id="DejaVuSans-36" d="M 2113 2584 
Q 1688 2584 1439 2293 
Q 1191 2003 1191 1497 
Q 1191 994 1439 701 
Q 1688 409 2113 409 
Q 2538 409 2786 701 
Q 3034 994 3034 1497 
Q 3034 2003 2786 2293 
Q 2538 2584 2113 2584 
z
M 3366 4563 
L 3366 3988 
Q 3128 4100 2886 4159 
Q 2644 4219 2406 4219 
Q 1781 4219 1451 3797 
Q 1122 3375 1075 2522 
Q 1259 2794 1537 2939 
Q 1816 3084 2150 3084 
Q 2853 3084 3261 2657 
Q 3669 2231 3669 1497 
Q 3669 778 3244 343 
Q 2819 -91 2113 -91 
Q 1303 -91 875 529 
Q 447 1150 447 2328 
Q 447 3434 972 4092 
Q 1497 4750 2381 4750 
Q 2619 4750 2861 4703 
Q 3103 4656 3366 4563 
z
" transform="scale(0.015625)"/>
       </defs>
       <use xlink:href="#DejaVuSans-36"/>
       <use xlink:href="#DejaVuSans-30" x="63.623047"/>
       <use xlink:href="#DejaVuSans-30" x="127.246094"/>
      </g>
     </g>
    </g>
    <g id="text_8">
     <!-- iterations -->
     <g transform="translate(324.035938 354.189375) scale(0.2 -0.2)">
      <defs>
       <path id="DejaVuSans-69" d="M 603 3500 
L 1178 3500 
L 1178 0 
L 603 0 
L 603 3500 
z
M 603 4863 
L 1178 4863 
L 1178 4134 
L 603 4134 
L 603 4863 
z
" transform="scale(0.015625)"/>
       <path id="DejaVuSans-74" d="M 1172 4494 
L 1172 3500 
L 2356 3500 
L 2356 3053 
L 1172 3053 
L 1172 1153 
Q 1172 725 1289 603 
Q 1406 481 1766 481 
L 2356 481 
L 2356 0 
L 1766 0 
Q 1100 0 847 248 
Q 594 497 594 1153 
L 594 3053 
L 172 3053 
L 172 3500 
L 594 3500 
L 594 4494 
L 1172 4494 
z
" transform="scale(0.015625)"/>
       <path id="DejaVuSans-65" d="M 3597 1894 
L 3597 1613 
L 953 1613 
Q 991 1019 1311 708 
Q 1631 397 2203 397 
Q 2534 397 2845 478 
Q 3156 559 3463 722 
L 3463 178 
Q 3153 47 2828 -22 
Q 2503 -91 2169 -91 
Q 1331 -91 842 396 
Q 353 884 353 1716 
Q 353 2575 817 3079 
Q 1281 3584 2069 3584 
Q 2775 3584 3186 3129 
Q 3597 2675 3597 1894 
z
M 3022 2063 
Q 3016 2534 2758 2815 
Q 2500 3097 2075 3097 
Q 1594 3097 1305 2825 
Q 1016 2553 972 2059 
L 3022 2063 
z
" transform="scale(0.015625)"/>
       <path id="DejaVuSans-72" d="M 2631 2963 
Q 2534 3019 2420 3045 
Q 2306 3072 2169 3072 
Q 1681 3072 1420 2755 
Q 1159 2438 1159 1844 
L 1159 0 
L 581 0 
L 581 3500 
L 1159 3500 
L 1159 2956 
Q 1341 3275 1631 3429 
Q 1922 3584 2338 3584 
Q 2397 3584 2469 3576 
Q 2541 3569 2628 3553 
L 2631 2963 
z
" transform="scale(0.015625)"/>
       <path id="DejaVuSans-61" d="M 2194 1759 
Q 1497 1759 1228 1600 
Q 959 1441 959 1056 
Q 959 750 1161 570 
Q 1363 391 1709 391 
Q 2188 391 2477 730 
Q 2766 1069 2766 1631 
L 2766 1759 
L 2194 1759 
z
M 3341 1997 
L 3341 0 
L 2766 0 
L 2766 531 
Q 2569 213 2275 61 
Q 1981 -91 1556 -91 
Q 1019 -91 701 211 
Q 384 513 384 1019 
Q 384 1609 779 1909 
Q 1175 2209 1959 2209 
L 2766 2209 
L 2766 2266 
Q 2766 2663 2505 2880 
Q 2244 3097 1772 3097 
Q 1472 3097 1187 3025 
Q 903 2953 641 2809 
L 641 3341 
Q 956 3463 1253 3523 
Q 1550 3584 1831 3584 
Q 2591 3584 2966 3190 
Q 3341 2797 3341 1997 
z
" transform="scale(0.015625)"/>
       <path id="DejaVuSans-6f" d="M 1959 3097 
Q 1497 3097 1228 2736 
Q 959 2375 959 1747 
Q 959 1119 1226 758 
Q 1494 397 1959 397 
Q 2419 397 2687 759 
Q 2956 1122 2956 1747 
Q 2956 2369 2687 2733 
Q 2419 3097 1959 3097 
z
M 1959 3584 
Q 2709 3584 3137 3096 
Q 3566 2609 3566 1747 
Q 3566 888 3137 398 
Q 2709 -91 1959 -91 
Q 1206 -91 779 398 
Q 353 888 353 1747 
Q 353 2609 779 3096 
Q 1206 3584 1959 3584 
z
" transform="scale(0.015625)"/>
       <path id="DejaVuSans-6e" d="M 3513 2113 
L 3513 0 
L 2938 0 
L 2938 2094 
Q 2938 2591 2744 2837 
Q 2550 3084 2163 3084 
Q 1697 3084 1428 2787 
Q 1159 2491 1159 1978 
L 1159 0 
L 581 0 
L 581 3500 
L 1159 3500 
L 1159 2956 
Q 1366 3272 1645 3428 
Q 1925 3584 2291 3584 
Q 2894 3584 3203 3211 
Q 3513 2838 3513 2113 
z
" transform="scale(0.015625)"/>
       <path id="DejaVuSans-73" d="M 2834 3397 
L 2834 2853 
Q 2591 2978 2328 3040 
Q 2066 3103 1784 3103 
Q 1356 3103 1142 2972 
Q 928 2841 928 2578 
Q 928 2378 1081 2264 
Q 1234 2150 1697 2047 
L 1894 2003 
Q 2506 1872 2764 1633 
Q 3022 1394 3022 966 
Q 3022 478 2636 193 
Q 2250 -91 1575 -91 
Q 1294 -91 989 -36 
Q 684 19 347 128 
L 347 722 
Q 666 556 975 473 
Q 1284 391 1588 391 
Q 1994 391 2212 530 
Q 2431 669 2431 922 
Q 2431 1156 2273 1281 
Q 2116 1406 1581 1522 
L 1381 1569 
Q 847 1681 609 1914 
Q 372 2147 372 2553 
Q 372 3047 722 3315 
Q 1072 3584 1716 3584 
Q 2034 3584 2315 3537 
Q 2597 3491 2834 3397 
z
" transform="scale(0.015625)"/>
      </defs>
      <use xlink:href="#DejaVuSans-69"/>
      <use xlink:href="#DejaVuSans-74" x="27.783203"/>
      <use xlink:href="#DejaVuSans-65" x="66.992188"/>
      <use xlink:href="#DejaVuSans-72" x="128.515625"/>
      <use xlink:href="#DejaVuSans-61" x="169.628906"/>
      <use xlink:href="#DejaVuSans-74" x="230.908203"/>
      <use xlink:href="#DejaVuSans-69" x="270.117188"/>
      <use xlink:href="#DejaVuSans-6f" x="297.900391"/>
      <use xlink:href="#DejaVuSans-6e" x="359.082031"/>
      <use xlink:href="#DejaVuSans-73" x="422.460938"/>
     </g>
    </g>
   </g>
   <g id="matplotlib.axis_2">
    <g id="ytick_1">
     <g id="line2d_8">
      <defs>
       <path id="m5fe01992a8" d="M 0 0 
L -3.5 0 
" style="stroke: #000000; stroke-width: 0.8"/>
      </defs>
      <g>
       <use xlink:href="#m5fe01992a8" x="92.490625" y="233.89928" style="stroke: #000000; stroke-width: 0.8"/>
      </g>
     </g>
     <g id="text_9">
      <!-- −200 -->
      <g transform="translate(30.55625 241.497718) scale(0.2 -0.2)">
       <defs>
        <path id="DejaVuSans-2212" d="M 678 2272 
L 4684 2272 
L 4684 1741 
L 678 1741 
L 678 2272 
z
" transform="scale(0.015625)"/>
       </defs>
       <use xlink:href="#DejaVuSans-2212"/>
       <use xlink:href="#DejaVuSans-32" x="83.789062"/>
       <use xlink:href="#DejaVuSans-30" x="147.412109"/>
       <use xlink:href="#DejaVuSans-30" x="211.035156"/>
      </g>
     </g>
    </g>
    <g id="ytick_2">
     <g id="line2d_9">
      <g>
       <use xlink:href="#m5fe01992a8" x="92.490625" y="156.400898" style="stroke: #000000; stroke-width: 0.8"/>
      </g>
     </g>
     <g id="text_10">
      <!-- 0 -->
      <g transform="translate(72.765625 163.999335) scale(0.2 -0.2)">
       <use xlink:href="#DejaVuSans-30"/>
      </g>
     </g>
    </g>
    <g id="ytick_3">
     <g id="line2d_10">
      <g>
       <use xlink:href="#m5fe01992a8" x="92.490625" y="78.902515" style="stroke: #000000; stroke-width: 0.8"/>
      </g>
     </g>
     <g id="text_11">
      <!-- 200 -->
      <g transform="translate(47.315625 86.500953) scale(0.2 -0.2)">
       <use xlink:href="#DejaVuSans-32"/>
       <use xlink:href="#DejaVuSans-30" x="63.623047"/>
       <use xlink:href="#DejaVuSans-30" x="127.246094"/>
      </g>
     </g>
    </g>
    <g id="text_12">
     <!-- Loss -->
     <g transform="translate(22.396875 191.970625) rotate(-90) scale(0.2 -0.2)">
      <defs>
       <path id="DejaVuSans-4c" d="M 628 4666 
L 1259 4666 
L 1259 531 
L 3531 531 
L 3531 0 
L 628 0 
L 628 4666 
z
" transform="scale(0.015625)"/>
      </defs>
      <use xlink:href="#DejaVuSans-4c"/>
      <use xlink:href="#DejaVuSans-6f" x="53.962891"/>
      <use xlink:href="#DejaVuSans-73" x="115.144531"/>
      <use xlink:href="#DejaVuSans-73" x="167.244141"/>
     </g>
    </g>
   </g>
   <g id="line2d_11">
    <path d="M 117.854261 136.140105 
L 118.699716 119.386488 
L 119.54517 97.658702 
L 120.390625 116.435418 
L 121.23608 132.66545 
L 122.081534 131.50223 
L 122.926989 109.074995 
L 123.772443 70.056914 
L 124.617898 54.902085 
L 125.463352 57.926545 
L 126.308807 54.948943 
L 127.154261 45.679812 
L 127.999716 44.03625 
L 128.84517 46.554003 
L 129.690625 46.4645 
L 130.53608 61.12117 
L 131.381534 55.452144 
L 132.226989 47.371821 
L 133.072443 48.94424 
L 133.917898 60.27658 
L 134.763352 67.071176 
L 135.608807 67.466942 
L 136.454261 72.47849 
L 137.299716 69.342872 
L 138.990625 88.049269 
L 139.83608 94.790736 
L 140.681534 91.969084 
L 141.526989 93.229692 
L 142.372443 92.7299 
L 143.217898 100.783666 
L 144.063352 98.377732 
L 144.908807 103.555557 
L 145.754261 102.926982 
L 146.599716 106.843558 
L 147.44517 103.849343 
L 148.290625 107.982067 
L 149.13608 104.046284 
L 149.981534 105.454914 
L 150.826989 106.159588 
L 151.672443 109.279874 
L 152.517898 108.658111 
L 153.363352 113.348977 
L 154.208807 112.802562 
L 155.054261 112.886724 
L 155.899716 114.323495 
L 156.74517 115.418994 
L 157.590625 117.192842 
L 158.43608 119.698511 
L 159.281534 121.529548 
L 160.126989 117.759482 
L 160.972443 121.031451 
L 161.817898 117.874613 
L 162.663352 123.929319 
L 163.508807 124.437846 
L 164.354261 125.098673 
L 165.199716 122.790211 
L 166.04517 126.681087 
L 166.890625 124.35353 
L 167.73608 124.598737 
L 168.581534 127.579039 
L 169.426989 126.84408 
L 170.272443 125.949512 
L 171.117898 128.740085 
L 171.963352 127.119974 
L 172.808807 126.066819 
L 173.654261 124.500406 
L 174.499716 128.099512 
L 175.34517 127.64869 
L 176.190625 124.880741 
L 177.03608 126.072068 
L 177.881534 125.0338 
L 179.572443 128.291852 
L 180.417898 127.820071 
L 181.263352 128.384262 
L 182.108807 127.725314 
L 182.954261 130.487021 
L 183.799716 124.764492 
L 184.64517 128.248503 
L 185.490625 131.03801 
L 186.33608 129.370054 
L 187.181534 128.507903 
L 188.026989 129.992741 
L 188.872443 127.025059 
L 189.717898 128.463137 
L 190.563352 132.280888 
L 191.408807 126.205151 
L 192.254261 127.786885 
L 193.099716 128.36622 
L 193.94517 130.870562 
L 194.790625 129.202161 
L 195.63608 130.454508 
L 196.481534 129.324651 
L 197.326989 131.486962 
L 198.172443 126.280908 
L 199.017898 129.134088 
L 199.863352 127.71524 
L 200.708807 127.933912 
L 201.554261 130.968429 
L 202.399716 131.451701 
L 203.24517 128.47423 
L 204.090625 131.651787 
L 204.93608 132.517027 
L 205.781534 132.328264 
L 206.626989 131.551236 
L 207.472443 127.719658 
L 208.317898 129.542392 
L 209.163352 129.013006 
L 210.008807 133.998128 
L 210.854261 132.652585 
L 211.699716 134.846951 
L 212.54517 134.467355 
L 213.390625 136.200018 
L 214.23608 135.546954 
L 215.081534 132.983733 
L 215.926989 132.881623 
L 216.772443 135.628088 
L 217.617898 134.707247 
L 218.463352 132.554932 
L 219.308807 134.507047 
L 220.154261 133.025755 
L 220.999716 139.875843 
L 221.84517 134.53711 
L 222.690625 138.060798 
L 223.53608 135.610679 
L 224.381534 134.071004 
L 225.226989 137.174334 
L 226.072443 138.894034 
L 226.917898 134.346656 
L 227.763352 133.628541 
L 228.608807 139.905496 
L 229.454261 139.351825 
L 230.299716 141.054145 
L 231.14517 140.309269 
L 231.990625 138.998649 
L 233.681534 139.653628 
L 234.526989 140.618431 
L 235.372443 137.012362 
L 236.217898 139.155162 
L 237.063352 138.342522 
L 237.908807 137.298371 
L 238.754261 136.511355 
L 239.599716 140.473876 
L 240.44517 136.474656 
L 241.290625 137.701627 
L 242.13608 137.834537 
L 242.981534 137.004483 
L 243.826989 137.949913 
L 244.672443 137.668135 
L 245.517898 141.592374 
L 246.363352 138.273643 
L 247.208807 140.58307 
L 248.054261 139.392533 
L 248.899716 137.903665 
L 249.74517 139.007768 
L 250.590625 138.482864 
L 251.43608 137.668388 
L 252.281534 137.640647 
L 253.126989 137.021624 
L 253.972443 136.006231 
L 254.817898 137.474276 
L 255.663352 137.944546 
L 256.508807 135.579974 
L 257.354261 135.523171 
L 258.199716 137.942839 
L 259.04517 138.274288 
L 259.890625 140.577836 
L 261.581534 137.334687 
L 262.426989 137.22565 
L 263.272443 138.422765 
L 264.117898 139.345492 
L 264.963352 140.935747 
L 265.808807 138.706081 
L 266.654261 138.031621 
L 267.499716 141.258663 
L 268.34517 139.099333 
L 269.190625 141.369672 
L 270.03608 137.77225 
L 270.881534 137.347757 
L 271.726989 140.418194 
L 272.572443 139.414461 
L 273.417898 138.878593 
L 275.108807 142.18506 
L 275.954261 141.024633 
L 276.799716 141.071503 
L 277.64517 143.735901 
L 278.490625 143.388929 
L 280.181534 142.271918 
L 281.026989 144.383795 
L 281.872443 145.16363 
L 282.717898 144.086809 
L 283.563352 143.883762 
L 284.408807 144.458331 
L 285.254261 144.067005 
L 286.099716 144.523268 
L 286.94517 144.575892 
L 287.790625 144.057221 
L 288.63608 145.96549 
L 290.326989 142.712513 
L 291.172443 143.651971 
L 292.017898 145.212597 
L 292.863352 146.492216 
L 293.708807 144.780635 
L 294.554261 144.081637 
L 295.399716 144.851548 
L 296.24517 146.190345 
L 297.090625 144.657309 
L 297.93608 145.82573 
L 299.626989 143.079696 
L 300.472443 144.296385 
L 301.317898 144.961194 
L 302.163352 143.808949 
L 303.008807 143.997531 
L 303.854261 146.215528 
L 304.699716 144.776813 
L 305.54517 144.718914 
L 306.390625 147.279174 
L 307.23608 145.481445 
L 308.081534 144.759004 
L 308.926989 144.778459 
L 310.617898 147.19603 
L 311.463352 145.77178 
L 312.308807 146.071329 
L 313.154261 146.691365 
L 313.999716 146.571939 
L 314.84517 146.757617 
L 315.690625 146.584022 
L 316.53608 145.073014 
L 317.381534 146.164435 
L 318.226989 146.019355 
L 319.072443 143.897742 
L 319.917898 143.447988 
L 320.763352 143.242848 
L 321.608807 144.033963 
L 322.454261 145.291173 
L 323.299716 144.827294 
L 324.14517 145.635636 
L 324.990625 145.168239 
L 326.681534 145.380979 
L 327.526989 145.052218 
L 328.372443 146.595932 
L 329.217898 146.597405 
L 330.063352 146.024231 
L 330.908807 146.12066 
L 331.754261 145.644051 
L 332.599716 145.637259 
L 333.44517 145.064343 
L 334.290625 146.527707 
L 335.13608 146.054691 
L 335.981534 146.378687 
L 336.826989 147.244862 
L 337.672443 147.743065 
L 339.363352 145.699305 
L 340.208807 145.614191 
L 341.899716 146.032133 
L 342.74517 145.842341 
L 343.590625 145.851376 
L 344.43608 147.242077 
L 345.281534 146.43271 
L 346.972443 144.331136 
L 347.817898 145.156912 
L 348.663352 145.113214 
L 349.508807 146.046768 
L 350.354261 146.109475 
L 351.199716 146.358465 
L 352.04517 147.967362 
L 352.890625 145.834115 
L 353.73608 145.471832 
L 354.581534 145.909016 
L 355.426989 145.176336 
L 356.272443 145.312189 
L 357.117898 144.622425 
L 357.963352 146.161472 
L 358.808807 145.988952 
L 359.654261 145.609696 
L 360.499716 146.340256 
L 361.34517 145.255584 
L 362.190625 146.137073 
L 363.03608 145.934825 
L 364.726989 144.794355 
L 365.572443 145.822868 
L 366.417898 146.259016 
L 367.263352 145.545879 
L 368.108807 145.704226 
L 368.954261 143.833665 
L 369.799716 143.39312 
L 370.64517 143.983717 
L 371.490625 144.764031 
L 372.33608 141.471619 
L 373.181534 143.258355 
L 374.026989 142.1225 
L 374.872443 142.770739 
L 376.563352 140.613826 
L 377.408807 140.124447 
L 378.254261 139.984476 
L 379.099716 140.198564 
L 379.94517 139.866343 
L 380.790625 140.192398 
L 381.63608 139.209319 
L 382.481534 137.699922 
L 383.326989 138.211979 
L 384.172443 137.472748 
L 385.017898 135.659297 
L 385.863352 136.513748 
L 386.708807 136.846126 
L 387.554261 136.708991 
L 389.24517 136.991124 
L 390.090625 137.518005 
L 390.93608 137.284661 
L 391.781534 136.19745 
L 392.626989 135.462121 
L 393.472443 135.642996 
L 394.317898 135.398218 
L 395.163352 133.458761 
L 396.008807 133.953103 
L 396.854261 134.309588 
L 398.54517 133.713049 
L 399.390625 133.073662 
L 400.23608 133.282183 
L 401.081534 134.055024 
L 401.926989 133.006076 
L 402.772443 133.292302 
L 403.617898 134.015364 
L 404.463352 133.691593 
L 405.308807 133.654318 
L 406.154261 134.463807 
L 406.999716 134.107787 
L 407.84517 134.925327 
L 408.690625 134.93708 
L 409.53608 134.225088 
L 410.381534 135.658831 
L 411.226989 135.124509 
L 412.072443 134.892409 
L 412.917898 136.184751 
L 413.763352 135.805301 
L 414.608807 136.403224 
L 415.454261 136.162705 
L 416.299716 137.044153 
L 417.14517 136.978352 
L 417.990625 137.257002 
L 420.526989 138.599311 
L 421.372443 138.164326 
L 422.217898 138.148874 
L 423.063352 138.875902 
L 423.908807 139.009496 
L 424.754261 138.996887 
L 425.599716 139.359301 
L 426.44517 140.196006 
L 427.290625 139.88815 
L 428.13608 139.446259 
L 428.981534 139.624629 
L 429.826989 139.175819 
L 430.672443 140.360832 
L 431.517898 140.507721 
L 432.363352 140.277501 
L 433.208807 140.344361 
L 434.054261 139.688527 
L 434.899716 139.764017 
L 435.74517 140.47098 
L 436.590625 140.823755 
L 437.43608 140.00849 
L 438.281534 140.867939 
L 439.972443 140.809753 
L 440.817898 141.309758 
L 442.508807 140.6429 
L 443.354261 141.04968 
L 444.199716 141.153351 
L 445.04517 140.423128 
L 445.890625 140.617213 
L 446.73608 140.614077 
L 447.581534 141.862909 
L 448.426989 141.540245 
L 449.272443 141.368711 
L 450.117898 141.72775 
L 450.963352 141.138194 
L 451.808807 141.33949 
L 453.499716 141.923022 
L 454.34517 141.878898 
L 455.190625 141.446056 
L 456.03608 142.348734 
L 456.881534 142.177576 
L 457.726989 142.347438 
L 458.572443 142.125741 
L 460.263352 142.400078 
L 461.108807 142.475297 
L 461.954261 142.970731 
L 462.799716 143.255098 
L 463.64517 142.866823 
L 464.490625 142.624791 
L 465.33608 142.940462 
L 466.181534 142.544034 
L 467.026989 142.637308 
L 467.872443 143.49133 
L 468.717898 143.441073 
L 469.563352 142.498801 
L 471.254261 143.267946 
L 472.099716 143.508972 
L 472.94517 144.054366 
L 473.790625 144.34474 
L 474.63608 144.041871 
L 475.481534 143.350409 
L 476.326989 143.766515 
L 477.172443 143.467922 
L 478.863352 144.488671 
L 479.708807 144.668617 
L 480.554261 144.67175 
L 481.399716 145.670451 
L 482.24517 145.760743 
L 483.090625 146.258358 
L 483.93608 147.1414 
L 485.626989 148.41856 
L 486.472443 148.68886 
L 487.317898 148.046676 
L 488.163352 148.448831 
L 489.008807 147.839463 
L 489.854261 148.048703 
L 490.699716 148.580042 
L 491.54517 148.47331 
L 492.390625 148.869761 
L 493.23608 148.968766 
L 495.772443 148.022524 
L 496.617898 148.76923 
L 497.463352 148.372024 
L 498.308807 148.493244 
L 499.154261 148.478269 
L 499.999716 148.748364 
L 502.53608 148.377159 
L 503.381534 148.893702 
L 505.072443 149.112677 
L 505.917898 148.8705 
L 506.763352 149.059157 
L 507.608807 148.448253 
L 508.454261 148.639738 
L 509.299716 148.443988 
L 510.14517 148.854225 
L 510.990625 148.831863 
L 511.83608 149.493462 
L 512.681534 149.32119 
L 513.526989 148.955499 
L 515.217898 149.348102 
L 516.063352 149.343716 
L 516.908807 149.914771 
L 517.754261 149.513644 
L 518.599716 149.769645 
L 520.290625 149.281482 
L 521.13608 149.528568 
L 521.981534 150.340114 
L 522.826989 149.765789 
L 523.672443 149.810813 
L 524.517898 150.424258 
L 525.363352 149.525793 
L 526.208807 149.916599 
L 527.899716 149.784206 
L 528.74517 149.297795 
L 530.43608 149.799474 
L 531.281534 150.375535 
L 532.126989 150.047529 
L 532.972443 150.061927 
L 533.817898 150.378216 
L 534.663352 149.992059 
L 535.508807 149.896424 
L 536.354261 150.321031 
L 537.199716 150.541045 
L 538.04517 150.338546 
L 538.890625 150.392109 
L 539.73608 150.798539 
L 540.581534 150.783767 
L 541.426989 150.475998 
L 542.272443 150.561397 
L 543.117898 150.76721 
L 543.963352 150.404802 
L 544.808807 150.591651 
L 545.654261 150.610028 
L 546.499716 150.43635 
L 547.34517 150.758872 
L 549.03608 150.626565 
L 549.881534 150.923386 
L 550.726989 151.43372 
L 551.572443 150.559952 
L 552.417898 150.812884 
L 553.263352 151.217041 
L 554.108807 151.339018 
L 554.954261 151.682673 
L 555.799716 151.686438 
L 556.64517 151.245356 
L 557.490625 151.340401 
L 558.33608 151.189276 
L 560.026989 151.459706 
L 560.872443 151.102673 
L 561.717898 151.462666 
L 562.563352 150.909301 
L 563.408807 151.435733 
L 564.254261 151.265245 
L 565.099716 151.238926 
L 565.94517 151.036157 
L 566.790625 151.155105 
L 567.63608 151.430886 
L 568.481534 151.182892 
L 570.172443 151.762198 
L 571.863352 151.339679 
L 572.708807 152.078093 
L 573.554261 151.541049 
L 574.399716 152.217249 
L 575.24517 151.720446 
L 576.93608 152.453899 
L 577.781534 152.47466 
L 578.626989 152.178387 
L 579.472443 152.557004 
L 580.317898 151.581745 
L 581.163352 151.90679 
L 582.008807 152.08738 
L 582.854261 151.927755 
L 583.699716 151.923196 
L 585.390625 152.252462 
L 586.23608 151.786521 
L 587.081534 151.652429 
L 587.926989 152.266472 
L 588.772443 151.899119 
L 589.617898 151.93214 
L 590.463352 151.812318 
L 591.308807 151.389304 
L 592.154261 151.815481 
L 592.999716 151.796132 
L 594.690625 152.379641 
L 595.53608 152.494751 
L 596.381534 152.357874 
L 597.226989 151.779789 
L 598.072443 151.870045 
L 598.917898 151.81871 
L 599.763352 152.20695 
L 600.608807 152.744623 
L 601.454261 152.027593 
L 603.14517 152.579643 
L 603.990625 151.995365 
L 604.83608 152.91781 
L 605.681534 152.035264 
L 606.526989 152.038265 
L 607.372443 152.223482 
L 608.217898 152.150448 
L 609.908807 152.494614 
L 610.754261 153.040017 
L 611.599716 152.566691 
L 612.44517 152.224673 
L 613.290625 152.337672 
L 614.13608 152.756649 
L 614.981534 152.018976 
L 615.826989 152.465712 
L 616.672443 152.591943 
L 617.517898 152.545378 
L 618.363352 152.874846 
L 619.208807 153.036084 
L 620.054261 153.082897 
L 620.899716 153.593069 
L 621.74517 153.244655 
L 622.590625 153.559309 
L 623.43608 153.291544 
L 624.281534 153.297665 
L 625.126989 153.437911 
L 625.126989 153.437911 
" clip-path="url(#p121e8efedb)" style="fill: none; stroke: #1f77b4; stroke-width: 1.5; stroke-linecap: square"/>
   </g>
   <g id="line2d_12">
    <path d="M 117.854261 254.938135 
L 118.699716 296.03625 
L 119.54517 255.116532 
L 120.390625 208.813361 
L 121.23608 187.276667 
L 122.081534 189.706367 
L 122.926989 199.947919 
L 123.772443 215.797721 
L 124.617898 206.249023 
L 125.463352 198.696802 
L 126.308807 195.653424 
L 127.999716 187.178186 
L 128.84517 184.771631 
L 129.690625 181.518091 
L 130.53608 172.836631 
L 131.381534 177.084168 
L 132.226989 176.002442 
L 133.072443 180.292152 
L 134.763352 176.06466 
L 135.608807 175.975991 
L 136.454261 174.803012 
L 137.299716 176.218112 
L 138.14517 174.095347 
L 138.990625 172.621992 
L 139.83608 174.243191 
L 140.681534 176.566693 
L 141.526989 173.999041 
L 142.372443 173.336092 
L 143.217898 171.437928 
L 144.063352 173.335198 
L 144.908807 172.257273 
L 145.754261 172.221129 
L 146.599716 171.317887 
L 147.44517 174.228225 
L 148.290625 174.212043 
L 149.13608 172.3616 
L 149.981534 174.62792 
L 151.672443 173.635043 
L 152.517898 172.33708 
L 153.363352 172.44086 
L 154.208807 171.153063 
L 155.054261 171.94099 
L 155.899716 171.945602 
L 156.74517 172.134762 
L 157.590625 171.688203 
L 158.43608 172.966357 
L 159.281534 172.10459 
L 160.126989 171.552824 
L 160.972443 172.491549 
L 161.817898 173.746198 
L 162.663352 171.707896 
L 164.354261 171.970886 
L 165.199716 170.970049 
L 166.890625 171.354679 
L 168.581534 173.167313 
L 170.272443 172.811369 
L 171.117898 171.409545 
L 172.808807 174.302414 
L 173.654261 172.613514 
L 174.499716 172.593085 
L 175.34517 171.222889 
L 176.190625 171.566571 
L 177.03608 172.197917 
L 177.881534 172.400267 
L 178.726989 172.719121 
L 179.572443 172.528508 
L 180.417898 171.880279 
L 181.263352 171.604792 
L 182.108807 172.486302 
L 182.954261 172.588694 
L 183.799716 173.111377 
L 184.64517 171.824538 
L 185.490625 171.427537 
L 186.33608 172.134662 
L 187.181534 172.388463 
L 188.026989 172.99041 
L 189.717898 173.19691 
L 190.563352 172.615522 
L 191.408807 173.116519 
L 192.254261 174.450834 
L 193.099716 173.848685 
L 193.94517 173.067075 
L 194.790625 173.406221 
L 195.63608 172.090916 
L 196.481534 173.59965 
L 197.326989 173.205076 
L 199.017898 175.600819 
L 199.863352 175.336454 
L 200.708807 175.347132 
L 201.554261 172.839012 
L 202.399716 174.86629 
L 203.24517 172.849161 
L 204.090625 173.691814 
L 204.93608 174.198152 
L 205.781534 175.266 
L 206.626989 173.253777 
L 207.472443 175.196099 
L 208.317898 176.064354 
L 209.163352 174.710514 
L 210.008807 174.716729 
L 210.854261 174.534071 
L 211.699716 173.717343 
L 212.54517 174.202458 
L 213.390625 175.168232 
L 214.23608 173.329799 
L 215.081534 173.707572 
L 215.926989 175.512934 
L 216.772443 175.412587 
L 217.617898 174.743105 
L 218.463352 174.236053 
L 219.308807 174.495109 
L 220.154261 174.457927 
L 220.999716 173.598044 
L 221.84517 173.556798 
L 222.690625 174.226957 
L 223.53608 172.842117 
L 224.381534 174.033998 
L 225.226989 171.82722 
L 226.072443 173.466877 
L 226.917898 171.590813 
L 227.763352 173.837477 
L 228.608807 174.196744 
L 230.299716 172.477713 
L 231.14517 174.105548 
L 231.990625 170.266629 
L 232.83608 170.28206 
L 233.681534 170.728368 
L 234.526989 172.379129 
L 235.372443 172.545078 
L 236.217898 173.10725 
L 237.063352 172.727759 
L 238.754261 171.206784 
L 239.599716 172.85732 
L 240.44517 169.132799 
L 241.290625 167.331023 
L 242.13608 169.746138 
L 242.981534 170.89915 
L 243.826989 171.197267 
L 244.672443 171.290808 
L 245.517898 170.065879 
L 246.363352 170.701915 
L 247.208807 169.38946 
L 248.054261 169.828205 
L 248.899716 167.50936 
L 249.74517 169.867771 
L 250.590625 170.174255 
L 251.43608 169.140012 
L 252.281534 169.54945 
L 253.126989 171.783569 
L 253.972443 168.517541 
L 254.817898 168.987571 
L 255.663352 168.750076 
L 257.354261 171.450895 
L 258.199716 171.729048 
L 259.04517 171.055364 
L 259.890625 168.730249 
L 260.73608 170.262241 
L 261.581534 171.317043 
L 262.426989 170.891562 
L 263.272443 168.43404 
L 264.117898 169.292704 
L 264.963352 169.887103 
L 265.808807 170.685864 
L 266.654261 167.229364 
L 267.499716 169.860336 
L 268.34517 170.315567 
L 269.190625 166.725035 
L 270.03608 168.727225 
L 270.881534 168.558664 
L 272.572443 169.35949 
L 273.417898 169.370134 
L 274.263352 169.961826 
L 275.108807 168.556259 
L 275.954261 170.718922 
L 276.799716 168.860858 
L 277.64517 170.40796 
L 278.490625 167.685218 
L 279.33608 168.199201 
L 281.026989 170.578275 
L 282.717898 169.629412 
L 284.408807 169.775695 
L 285.254261 170.735877 
L 286.099716 170.170243 
L 286.94517 170.533776 
L 287.790625 170.003519 
L 288.63608 170.422865 
L 289.481534 169.232927 
L 290.326989 168.608221 
L 291.172443 168.981682 
L 292.017898 169.866374 
L 292.863352 168.866532 
L 293.708807 170.029044 
L 294.554261 169.272354 
L 295.399716 170.493606 
L 296.24517 169.511944 
L 297.090625 169.666177 
L 297.93608 170.312552 
L 299.626989 170.441513 
L 300.472443 169.193993 
L 301.317898 170.700225 
L 302.163352 170.408394 
L 303.008807 170.390795 
L 303.854261 168.707613 
L 304.699716 168.567834 
L 305.54517 168.555006 
L 306.390625 169.782664 
L 307.23608 169.375414 
L 308.081534 170.828587 
L 308.926989 169.300857 
L 309.772443 169.55813 
L 310.617898 168.334885 
L 311.463352 167.962417 
L 313.154261 169.137734 
L 313.999716 169.272664 
L 314.84517 168.226628 
L 315.690625 169.71668 
L 316.53608 168.361433 
L 317.381534 167.264729 
L 318.226989 168.508186 
L 319.072443 168.568905 
L 319.917898 169.47394 
L 320.763352 167.353207 
L 322.454261 169.12375 
L 323.299716 167.556371 
L 324.14517 167.498236 
L 324.990625 168.372565 
L 325.83608 166.057744 
L 326.681534 168.455916 
L 327.526989 169.283844 
L 329.217898 168.434012 
L 330.908807 169.942208 
L 331.754261 171.442653 
L 332.599716 170.744467 
L 333.44517 169.635116 
L 334.290625 169.531875 
L 335.13608 169.192391 
L 335.981534 171.219978 
L 336.826989 169.751376 
L 337.672443 168.883082 
L 338.517898 169.9975 
L 339.363352 170.620432 
L 340.208807 170.428596 
L 341.054261 169.78904 
L 341.899716 171.271427 
L 342.74517 170.455118 
L 344.43608 169.500853 
L 346.972443 171.378662 
L 347.817898 169.724076 
L 348.663352 169.908073 
L 349.508807 170.59831 
L 350.354261 168.845588 
L 352.04517 170.196902 
L 352.890625 170.477496 
L 353.73608 169.453045 
L 354.581534 170.539155 
L 355.426989 170.41447 
L 356.272443 170.541219 
L 357.117898 170.364321 
L 357.963352 169.476405 
L 359.654261 170.988097 
L 360.499716 170.720209 
L 361.34517 170.610929 
L 362.190625 170.250932 
L 363.03608 170.983601 
L 363.881534 171.334155 
L 364.726989 170.607384 
L 365.572443 171.594585 
L 366.417898 170.74801 
L 367.263352 171.102039 
L 368.108807 165.668203 
L 368.954261 157.260271 
L 369.799716 158.109435 
L 371.490625 158.065066 
L 372.33608 159.253093 
L 373.181534 157.933172 
L 374.026989 158.683074 
L 374.872443 159.216684 
L 375.717898 158.952384 
L 376.563352 159.774269 
L 377.408807 159.497486 
L 378.254261 159.514434 
L 379.099716 159.810076 
L 379.94517 159.243292 
L 380.790625 159.990796 
L 381.63608 159.520692 
L 382.481534 160.025602 
L 384.172443 159.908322 
L 385.017898 160.32958 
L 385.863352 160.154614 
L 386.708807 159.818638 
L 387.554261 159.734872 
L 388.399716 159.897215 
L 389.24517 159.637781 
L 390.090625 160.053261 
L 390.93608 159.948993 
L 391.781534 160.615295 
L 392.626989 159.828245 
L 393.472443 159.865906 
L 394.317898 159.767255 
L 395.163352 160.544821 
L 396.008807 159.858306 
L 396.854261 160.628665 
L 397.699716 160.316323 
L 398.54517 160.832474 
L 399.390625 160.978815 
L 400.23608 159.986471 
L 401.081534 159.913214 
L 401.926989 160.487713 
L 403.617898 160.706538 
L 404.463352 160.286802 
L 405.308807 160.026634 
L 406.154261 160.417298 
L 406.999716 160.304212 
L 407.84517 160.57298 
L 408.690625 160.25048 
L 409.53608 160.492115 
L 410.381534 160.432943 
L 411.226989 160.643788 
L 412.072443 160.544122 
L 412.917898 160.312588 
L 413.763352 160.211009 
L 414.608807 159.614008 
L 415.454261 160.273213 
L 417.14517 159.906737 
L 417.990625 160.47459 
L 418.83608 159.342558 
L 419.681534 159.780157 
L 420.526989 159.273843 
L 422.217898 159.899822 
L 423.063352 159.765321 
L 423.908807 159.897305 
L 424.754261 159.424204 
L 425.599716 159.791611 
L 426.44517 159.646656 
L 427.290625 159.29827 
L 428.13608 159.624578 
L 428.981534 159.152912 
L 429.826989 159.176085 
L 430.672443 159.064748 
L 431.517898 159.418686 
L 432.363352 159.253508 
L 433.208807 159.600608 
L 434.054261 159.800961 
L 434.899716 159.610222 
L 435.74517 159.767646 
L 436.590625 159.258101 
L 437.43608 159.465059 
L 438.281534 159.516275 
L 439.126989 159.389562 
L 441.663352 159.476896 
L 442.508807 159.130857 
L 444.199716 159.603505 
L 445.04517 158.947125 
L 445.890625 159.258055 
L 447.581534 159.591428 
L 448.426989 159.406045 
L 449.272443 159.503871 
L 450.117898 158.876726 
L 450.963352 159.627697 
L 451.808807 159.631467 
L 452.654261 159.09707 
L 453.499716 159.191761 
L 454.34517 159.851682 
L 455.190625 159.400114 
L 456.03608 159.600971 
L 456.881534 159.400481 
L 457.726989 159.734207 
L 458.572443 159.494294 
L 460.263352 159.609264 
L 462.799716 159.752787 
L 463.64517 159.198844 
L 464.490625 159.908282 
L 465.33608 159.466196 
L 466.181534 159.699557 
L 467.026989 159.645381 
L 467.872443 160.019621 
L 468.717898 159.595929 
L 472.94517 159.606665 
L 473.790625 159.94807 
L 474.63608 159.719841 
L 475.481534 159.649272 
L 476.326989 162.848622 
L 477.172443 158.196261 
L 478.017898 159.594087 
L 478.863352 159.816541 
L 479.708807 159.585803 
L 480.554261 159.791473 
L 481.399716 159.62025 
L 482.24517 159.814353 
L 483.090625 159.681243 
L 483.93608 159.994622 
L 484.781534 159.768833 
L 485.626989 159.373059 
L 488.163352 159.860811 
L 489.008807 159.527404 
L 489.854261 159.690969 
L 490.699716 159.504895 
L 491.54517 159.835262 
L 492.390625 159.449771 
L 493.23608 159.812848 
L 494.081534 159.550961 
L 494.926989 159.758294 
L 496.617898 159.550144 
L 498.308807 159.683732 
L 499.154261 159.744483 
L 500.84517 159.492884 
L 501.690625 159.886462 
L 502.53608 159.425712 
L 505.072443 159.597965 
L 506.763352 159.507324 
L 507.608807 159.820618 
L 508.454261 159.745091 
L 510.14517 159.926608 
L 510.990625 159.71463 
L 511.83608 160.015056 
L 512.681534 159.538858 
L 515.217898 160.086147 
L 516.063352 159.750671 
L 517.754261 159.785548 
L 518.599716 159.464118 
L 519.44517 159.979955 
L 520.290625 160.123462 
L 521.13608 159.783599 
L 522.826989 159.852492 
L 523.672443 159.76547 
L 524.517898 159.849602 
L 525.363352 160.331629 
L 526.208807 159.971812 
L 527.054261 159.825108 
L 527.899716 159.831308 
L 528.74517 160.129987 
L 529.590625 160.084658 
L 530.43608 160.428929 
L 531.281534 159.703395 
L 534.663352 159.86017 
L 535.508807 160.021164 
L 536.354261 159.838181 
L 537.199716 160.044828 
L 538.890625 159.802884 
L 539.73608 160.08104 
L 540.581534 159.821094 
L 541.426989 159.862872 
L 542.272443 159.664279 
L 543.117898 159.891898 
L 543.963352 159.991116 
L 544.808807 159.845669 
L 545.654261 159.564818 
L 546.499716 159.790168 
L 547.34517 159.71072 
L 548.190625 159.947068 
L 549.881534 159.906012 
L 550.726989 159.76006 
L 551.572443 159.991688 
L 552.417898 159.744492 
L 553.263352 159.622636 
L 554.108807 159.63479 
L 554.954261 160.404745 
L 555.799716 159.638482 
L 556.64517 159.88917 
L 557.490625 159.97846 
L 558.33608 159.696818 
L 559.181534 160.236157 
L 560.026989 160.100391 
L 560.872443 159.790208 
L 561.717898 160.004479 
L 562.563352 159.662231 
L 563.408807 159.830562 
L 564.254261 160.244886 
L 565.099716 160.341749 
L 565.94517 159.687567 
L 566.790625 159.846473 
L 567.63608 159.855453 
L 568.481534 159.645816 
L 569.326989 159.946496 
L 570.172443 159.753758 
L 571.017898 160.061147 
L 574.399716 159.708261 
L 575.24517 159.433518 
L 576.090625 159.782549 
L 576.93608 159.985576 
L 577.781534 159.963234 
L 578.626989 160.270411 
L 579.472443 159.757382 
L 582.008807 160.045401 
L 583.699716 159.52485 
L 585.390625 159.783737 
L 586.23608 160.015356 
L 587.081534 159.970082 
L 587.926989 159.466431 
L 589.617898 159.635054 
L 591.308807 159.885683 
L 592.154261 159.906866 
L 592.999716 159.816491 
L 593.84517 159.598509 
L 594.690625 159.9902 
L 595.53608 159.46575 
L 596.381534 159.562266 
L 597.226989 159.920128 
L 598.072443 159.713966 
L 598.917898 159.773368 
L 600.608807 159.604772 
L 602.299716 159.926805 
L 603.14517 159.652873 
L 605.681534 159.965805 
L 606.526989 159.683187 
L 607.372443 159.548664 
L 609.063352 159.707622 
L 609.908807 159.896745 
L 610.754261 159.945302 
L 611.599716 159.644816 
L 613.290625 159.736002 
L 614.13608 159.510788 
L 615.826989 159.811761 
L 618.363352 159.450157 
L 619.208807 159.792891 
L 621.74517 159.629241 
L 622.590625 159.587784 
L 623.43608 159.78791 
L 624.281534 159.697469 
L 625.126989 159.766106 
L 625.126989 159.766106 
" clip-path="url(#p121e8efedb)" style="fill: none; stroke: #ff7f0e; stroke-width: 1.5; stroke-linecap: square"/>
   </g>
   <g id="patch_3">
    <path d="M 92.490625 308.63625 
L 92.490625 31.43625 
" style="fill: none; stroke: #000000; stroke-width: 0.8; stroke-linejoin: miter; stroke-linecap: square"/>
   </g>
   <g id="patch_4">
    <path d="M 650.490625 308.63625 
L 650.490625 31.43625 
" style="fill: none; stroke: #000000; stroke-width: 0.8; stroke-linejoin: miter; stroke-linecap: square"/>
   </g>
   <g id="patch_5">
    <path d="M 92.490625 308.63625 
L 650.490625 308.63625 
" style="fill: none; stroke: #000000; stroke-width: 0.8; stroke-linejoin: miter; stroke-linecap: square"/>
   </g>
   <g id="patch_6">
    <path d="M 92.490625 31.43625 
L 650.490625 31.43625 
" style="fill: none; stroke: #000000; stroke-width: 0.8; stroke-linejoin: miter; stroke-linecap: square"/>
   </g>
   <g id="text_13">
    <!-- Generator and Discriminator Loss During Training -->
    <g transform="translate(74.258125 25.43625) scale(0.24 -0.24)">
     <defs>
      <path id="DejaVuSans-47" d="M 3809 666 
L 3809 1919 
L 2778 1919 
L 2778 2438 
L 4434 2438 
L 4434 434 
Q 4069 175 3628 42 
Q 3188 -91 2688 -91 
Q 1594 -91 976 548 
Q 359 1188 359 2328 
Q 359 3472 976 4111 
Q 1594 4750 2688 4750 
Q 3144 4750 3555 4637 
Q 3966 4525 4313 4306 
L 4313 3634 
Q 3963 3931 3569 4081 
Q 3175 4231 2741 4231 
Q 1884 4231 1454 3753 
Q 1025 3275 1025 2328 
Q 1025 1384 1454 906 
Q 1884 428 2741 428 
Q 3075 428 3337 486 
Q 3600 544 3809 666 
z
" transform="scale(0.015625)"/>
      <path id="DejaVuSans-20" transform="scale(0.015625)"/>
      <path id="DejaVuSans-64" d="M 2906 2969 
L 2906 4863 
L 3481 4863 
L 3481 0 
L 2906 0 
L 2906 525 
Q 2725 213 2448 61 
Q 2172 -91 1784 -91 
Q 1150 -91 751 415 
Q 353 922 353 1747 
Q 353 2572 751 3078 
Q 1150 3584 1784 3584 
Q 2172 3584 2448 3432 
Q 2725 3281 2906 2969 
z
M 947 1747 
Q 947 1113 1208 752 
Q 1469 391 1925 391 
Q 2381 391 2643 752 
Q 2906 1113 2906 1747 
Q 2906 2381 2643 2742 
Q 2381 3103 1925 3103 
Q 1469 3103 1208 2742 
Q 947 2381 947 1747 
z
" transform="scale(0.015625)"/>
      <path id="DejaVuSans-44" d="M 1259 4147 
L 1259 519 
L 2022 519 
Q 2988 519 3436 956 
Q 3884 1394 3884 2338 
Q 3884 3275 3436 3711 
Q 2988 4147 2022 4147 
L 1259 4147 
z
M 628 4666 
L 1925 4666 
Q 3281 4666 3915 4102 
Q 4550 3538 4550 2338 
Q 4550 1131 3912 565 
Q 3275 0 1925 0 
L 628 0 
L 628 4666 
z
" transform="scale(0.015625)"/>
      <path id="DejaVuSans-63" d="M 3122 3366 
L 3122 2828 
Q 2878 2963 2633 3030 
Q 2388 3097 2138 3097 
Q 1578 3097 1268 2742 
Q 959 2388 959 1747 
Q 959 1106 1268 751 
Q 1578 397 2138 397 
Q 2388 397 2633 464 
Q 2878 531 3122 666 
L 3122 134 
Q 2881 22 2623 -34 
Q 2366 -91 2075 -91 
Q 1284 -91 818 406 
Q 353 903 353 1747 
Q 353 2603 823 3093 
Q 1294 3584 2113 3584 
Q 2378 3584 2631 3529 
Q 2884 3475 3122 3366 
z
" transform="scale(0.015625)"/>
      <path id="DejaVuSans-6d" d="M 3328 2828 
Q 3544 3216 3844 3400 
Q 4144 3584 4550 3584 
Q 5097 3584 5394 3201 
Q 5691 2819 5691 2113 
L 5691 0 
L 5113 0 
L 5113 2094 
Q 5113 2597 4934 2840 
Q 4756 3084 4391 3084 
Q 3944 3084 3684 2787 
Q 3425 2491 3425 1978 
L 3425 0 
L 2847 0 
L 2847 2094 
Q 2847 2600 2669 2842 
Q 2491 3084 2119 3084 
Q 1678 3084 1418 2786 
Q 1159 2488 1159 1978 
L 1159 0 
L 581 0 
L 581 3500 
L 1159 3500 
L 1159 2956 
Q 1356 3278 1631 3431 
Q 1906 3584 2284 3584 
Q 2666 3584 2933 3390 
Q 3200 3197 3328 2828 
z
" transform="scale(0.015625)"/>
      <path id="DejaVuSans-75" d="M 544 1381 
L 544 3500 
L 1119 3500 
L 1119 1403 
Q 1119 906 1312 657 
Q 1506 409 1894 409 
Q 2359 409 2629 706 
Q 2900 1003 2900 1516 
L 2900 3500 
L 3475 3500 
L 3475 0 
L 2900 0 
L 2900 538 
Q 2691 219 2414 64 
Q 2138 -91 1772 -91 
Q 1169 -91 856 284 
Q 544 659 544 1381 
z
M 1991 3584 
L 1991 3584 
z
" transform="scale(0.015625)"/>
      <path id="DejaVuSans-67" d="M 2906 1791 
Q 2906 2416 2648 2759 
Q 2391 3103 1925 3103 
Q 1463 3103 1205 2759 
Q 947 2416 947 1791 
Q 947 1169 1205 825 
Q 1463 481 1925 481 
Q 2391 481 2648 825 
Q 2906 1169 2906 1791 
z
M 3481 434 
Q 3481 -459 3084 -895 
Q 2688 -1331 1869 -1331 
Q 1566 -1331 1297 -1286 
Q 1028 -1241 775 -1147 
L 775 -588 
Q 1028 -725 1275 -790 
Q 1522 -856 1778 -856 
Q 2344 -856 2625 -561 
Q 2906 -266 2906 331 
L 2906 616 
Q 2728 306 2450 153 
Q 2172 0 1784 0 
Q 1141 0 747 490 
Q 353 981 353 1791 
Q 353 2603 747 3093 
Q 1141 3584 1784 3584 
Q 2172 3584 2450 3431 
Q 2728 3278 2906 2969 
L 2906 3500 
L 3481 3500 
L 3481 434 
z
" transform="scale(0.015625)"/>
      <path id="DejaVuSans-54" d="M -19 4666 
L 3928 4666 
L 3928 4134 
L 2272 4134 
L 2272 0 
L 1638 0 
L 1638 4134 
L -19 4134 
L -19 4666 
z
" transform="scale(0.015625)"/>
     </defs>
     <use xlink:href="#DejaVuSans-47"/>
     <use xlink:href="#DejaVuSans-65" x="77.490234"/>
     <use xlink:href="#DejaVuSans-6e" x="139.013672"/>
     <use xlink:href="#DejaVuSans-65" x="202.392578"/>
     <use xlink:href="#DejaVuSans-72" x="263.916016"/>
     <use xlink:href="#DejaVuSans-61" x="305.029297"/>
     <use xlink:href="#DejaVuSans-74" x="366.308594"/>
     <use xlink:href="#DejaVuSans-6f" x="405.517578"/>
     <use xlink:href="#DejaVuSans-72" x="466.699219"/>
     <use xlink:href="#DejaVuSans-20" x="507.8125"/>
     <use xlink:href="#DejaVuSans-61" x="539.599609"/>
     <use xlink:href="#DejaVuSans-6e" x="600.878906"/>
     <use xlink:href="#DejaVuSans-64" x="664.257812"/>
     <use xlink:href="#DejaVuSans-20" x="727.734375"/>
     <use xlink:href="#DejaVuSans-44" x="759.521484"/>
     <use xlink:href="#DejaVuSans-69" x="836.523438"/>
     <use xlink:href="#DejaVuSans-73" x="864.306641"/>
     <use xlink:href="#DejaVuSans-63" x="916.40625"/>
     <use xlink:href="#DejaVuSans-72" x="971.386719"/>
     <use xlink:href="#DejaVuSans-69" x="1012.5"/>
     <use xlink:href="#DejaVuSans-6d" x="1040.283203"/>
     <use xlink:href="#DejaVuSans-69" x="1137.695312"/>
     <use xlink:href="#DejaVuSans-6e" x="1165.478516"/>
     <use xlink:href="#DejaVuSans-61" x="1228.857422"/>
     <use xlink:href="#DejaVuSans-74" x="1290.136719"/>
     <use xlink:href="#DejaVuSans-6f" x="1329.345703"/>
     <use xlink:href="#DejaVuSans-72" x="1390.527344"/>
     <use xlink:href="#DejaVuSans-20" x="1431.640625"/>
     <use xlink:href="#DejaVuSans-4c" x="1463.427734"/>
     <use xlink:href="#DejaVuSans-6f" x="1517.390625"/>
     <use xlink:href="#DejaVuSans-73" x="1578.572266"/>
     <use xlink:href="#DejaVuSans-73" x="1630.671875"/>
     <use xlink:href="#DejaVuSans-20" x="1682.771484"/>
     <use xlink:href="#DejaVuSans-44" x="1714.558594"/>
     <use xlink:href="#DejaVuSans-75" x="1791.560547"/>
     <use xlink:href="#DejaVuSans-72" x="1854.939453"/>
     <use xlink:href="#DejaVuSans-69" x="1896.052734"/>
     <use xlink:href="#DejaVuSans-6e" x="1923.835938"/>
     <use xlink:href="#DejaVuSans-67" x="1987.214844"/>
     <use xlink:href="#DejaVuSans-20" x="2050.691406"/>
     <use xlink:href="#DejaVuSans-54" x="2082.478516"/>
     <use xlink:href="#DejaVuSans-72" x="2128.8125"/>
     <use xlink:href="#DejaVuSans-61" x="2169.925781"/>
     <use xlink:href="#DejaVuSans-69" x="2231.205078"/>
     <use xlink:href="#DejaVuSans-6e" x="2258.988281"/>
     <use xlink:href="#DejaVuSans-69" x="2322.367188"/>
     <use xlink:href="#DejaVuSans-6e" x="2350.150391"/>
     <use xlink:href="#DejaVuSans-67" x="2413.529297"/>
    </g>
   </g>
   <g id="legend_1">
    <g id="patch_7">
     <path d="M 556.99375 106.14875 
L 636.490625 106.14875 
Q 640.490625 106.14875 640.490625 102.14875 
L 640.490625 45.43625 
Q 640.490625 41.43625 636.490625 41.43625 
L 556.99375 41.43625 
Q 552.99375 41.43625 552.99375 45.43625 
L 552.99375 102.14875 
Q 552.99375 106.14875 556.99375 106.14875 
z
" style="fill: #ffffff; opacity: 0.8; stroke: #cccccc; stroke-linejoin: miter"/>
    </g>
    <g id="line2d_13">
     <path d="M 560.99375 57.633125 
L 580.99375 57.633125 
L 600.99375 57.633125 
" style="fill: none; stroke: #1f77b4; stroke-width: 1.5; stroke-linecap: square"/>
    </g>
    <g id="text_14">
     <!-- G -->
     <g transform="translate(616.99375 64.633125) scale(0.2 -0.2)">
      <use xlink:href="#DejaVuSans-47"/>
     </g>
    </g>
    <g id="line2d_14">
     <path d="M 560.99375 86.989375 
L 580.99375 86.989375 
L 600.99375 86.989375 
" style="fill: none; stroke: #ff7f0e; stroke-width: 1.5; stroke-linecap: square"/>
    </g>
    <g id="text_15">
     <!-- D -->
     <g transform="translate(616.99375 93.989375) scale(0.2 -0.2)">
      <use xlink:href="#DejaVuSans-44"/>
     </g>
    </g>
   </g>
  </g>
 </g>
 <defs>
  <clipPath id="p121e8efedb">
   <rect x="92.490625" y="31.43625" width="558" height="277.2"/>
  </clipPath>
 </defs>
</svg>
