<?xml version="1.0" encoding="utf-8" standalone="no"?>
<!DOCTYPE svg PUBLIC "-//W3C//DTD SVG 1.1//EN"
  "http://www.w3.org/Graphics/SVG/1.1/DTD/svg11.dtd">
<svg xmlns:xlink="http://www.w3.org/1999/xlink" width="675.923125pt" height="365.54875pt" viewBox="0 0 675.923125 365.54875" xmlns="http://www.w3.org/2000/svg" version="1.1">
 <metadata>
  <rdf:RDF xmlns:dc="http://purl.org/dc/elements/1.1/" xmlns:cc="http://creativecommons.org/ns#" xmlns:rdf="http://www.w3.org/1999/02/22-rdf-syntax-ns#">
   <cc:Work>
    <dc:type rdf:resource="http://purl.org/dc/dcmitype/StillImage"/>
    <dc:date>2024-02-01T06:49:41.153833</dc:date>
    <dc:format>image/svg+xml</dc:format>
    <dc:creator>
     <cc:Agent>
      <dc:title>Matplotlib v3.7.2, https://matplotlib.org/</dc:title>
     </cc:Agent>
    </dc:creator>
   </cc:Work>
  </rdf:RDF>
 </metadata>
 <defs>
  <style type="text/css">*{stroke-linejoin: round; stroke-linecap: butt}</style>
 </defs>
 <g id="figure_1">
  <g id="patch_1">
   <path d="M 0 365.54875 
L 675.923125 365.54875 
L 675.923125 -0 
L 0 -0 
z
" style="fill: #ffffff"/>
  </g>
  <g id="axes_1">
   <g id="patch_2">
    <path d="M 92.490625 308.63625 
L 650.490625 308.63625 
L 650.490625 31.43625 
L 92.490625 31.43625 
z
" style="fill: #ffffff"/>
   </g>
   <g id="matplotlib.axis_1">
    <g id="xtick_1">
     <g id="line2d_1">
      <defs>
       <path id="m00b128fd61" d="M 0 0 
L 0 3.5 
" style="stroke: #000000; stroke-width: 0.8"/>
      </defs>
      <g>
       <use xlink:href="#m00b128fd61" x="117.854261" y="308.63625" style="stroke: #000000; stroke-width: 0.8"/>
      </g>
     </g>
     <g id="text_1">
      <!-- 0 -->
      <g transform="translate(111.491761 330.833125) scale(0.2 -0.2)">
       <defs>
        <path id="DejaVuSans-30" d="M 2034 4250 
Q 1547 4250 1301 3770 
Q 1056 3291 1056 2328 
Q 1056 1369 1301 889 
Q 1547 409 2034 409 
Q 2525 409 2770 889 
Q 3016 1369 3016 2328 
Q 3016 3291 2770 3770 
Q 2525 4250 2034 4250 
z
M 2034 4750 
Q 2819 4750 3233 4129 
Q 3647 3509 3647 2328 
Q 3647 1150 3233 529 
Q 2819 -91 2034 -91 
Q 1250 -91 836 529 
Q 422 1150 422 2328 
Q 422 3509 836 4129 
Q 1250 4750 2034 4750 
z
" transform="scale(0.015625)"/>
       </defs>
       <use xlink:href="#DejaVuSans-30"/>
      </g>
     </g>
    </g>
    <g id="xtick_2">
     <g id="line2d_2">
      <g>
       <use xlink:href="#m00b128fd61" x="219.308807" y="308.63625" style="stroke: #000000; stroke-width: 0.8"/>
      </g>
     </g>
     <g id="text_2">
      <!-- 100 -->
      <g transform="translate(200.221307 330.833125) scale(0.2 -0.2)">
       <defs>
        <path id="DejaVuSans-31" d="M 794 531 
L 1825 531 
L 1825 4091 
L 703 3866 
L 703 4441 
L 1819 4666 
L 2450 4666 
L 2450 531 
L 3481 531 
L 3481 0 
L 794 0 
L 794 531 
z
" transform="scale(0.015625)"/>
       </defs>
       <use xlink:href="#DejaVuSans-31"/>
       <use xlink:href="#DejaVuSans-30" x="63.623047"/>
       <use xlink:href="#DejaVuSans-30" x="127.246094"/>
      </g>
     </g>
    </g>
    <g id="xtick_3">
     <g id="line2d_3">
      <g>
       <use xlink:href="#m00b128fd61" x="320.763352" y="308.63625" style="stroke: #000000; stroke-width: 0.8"/>
      </g>
     </g>
     <g id="text_3">
      <!-- 200 -->
      <g transform="translate(301.675852 330.833125) scale(0.2 -0.2)">
       <defs>
        <path id="DejaVuSans-32" d="M 1228 531 
L 3431 531 
L 3431 0 
L 469 0 
L 469 531 
Q 828 903 1448 1529 
Q 2069 2156 2228 2338 
Q 2531 2678 2651 2914 
Q 2772 3150 2772 3378 
Q 2772 3750 2511 3984 
Q 2250 4219 1831 4219 
Q 1534 4219 1204 4116 
Q 875 4013 500 3803 
L 500 4441 
Q 881 4594 1212 4672 
Q 1544 4750 1819 4750 
Q 2544 4750 2975 4387 
Q 3406 4025 3406 3419 
Q 3406 3131 3298 2873 
Q 3191 2616 2906 2266 
Q 2828 2175 2409 1742 
Q 1991 1309 1228 531 
z
" transform="scale(0.015625)"/>
       </defs>
       <use xlink:href="#DejaVuSans-32"/>
       <use xlink:href="#DejaVuSans-30" x="63.623047"/>
       <use xlink:href="#DejaVuSans-30" x="127.246094"/>
      </g>
     </g>
    </g>
    <g id="xtick_4">
     <g id="line2d_4">
      <g>
       <use xlink:href="#m00b128fd61" x="422.217898" y="308.63625" style="stroke: #000000; stroke-width: 0.8"/>
      </g>
     </g>
     <g id="text_4">
      <!-- 300 -->
      <g transform="translate(403.130398 330.833125) scale(0.2 -0.2)">
       <defs>
        <path id="DejaVuSans-33" d="M 2597 2516 
Q 3050 2419 3304 2112 
Q 3559 1806 3559 1356 
Q 3559 666 3084 287 
Q 2609 -91 1734 -91 
Q 1441 -91 1130 -33 
Q 819 25 488 141 
L 488 750 
Q 750 597 1062 519 
Q 1375 441 1716 441 
Q 2309 441 2620 675 
Q 2931 909 2931 1356 
Q 2931 1769 2642 2001 
Q 2353 2234 1838 2234 
L 1294 2234 
L 1294 2753 
L 1863 2753 
Q 2328 2753 2575 2939 
Q 2822 3125 2822 3475 
Q 2822 3834 2567 4026 
Q 2313 4219 1838 4219 
Q 1578 4219 1281 4162 
Q 984 4106 628 3988 
L 628 4550 
Q 988 4650 1302 4700 
Q 1616 4750 1894 4750 
Q 2613 4750 3031 4423 
Q 3450 4097 3450 3541 
Q 3450 3153 3228 2886 
Q 3006 2619 2597 2516 
z
" transform="scale(0.015625)"/>
       </defs>
       <use xlink:href="#DejaVuSans-33"/>
       <use xlink:href="#DejaVuSans-30" x="63.623047"/>
       <use xlink:href="#DejaVuSans-30" x="127.246094"/>
      </g>
     </g>
    </g>
    <g id="xtick_5">
     <g id="line2d_5">
      <g>
       <use xlink:href="#m00b128fd61" x="523.672443" y="308.63625" style="stroke: #000000; stroke-width: 0.8"/>
      </g>
     </g>
     <g id="text_5">
      <!-- 400 -->
      <g transform="translate(504.584943 330.833125) scale(0.2 -0.2)">
       <defs>
        <path id="DejaVuSans-34" d="M 2419 4116 
L 825 1625 
L 2419 1625 
L 2419 4116 
z
M 2253 4666 
L 3047 4666 
L 3047 1625 
L 3713 1625 
L 3713 1100 
L 3047 1100 
L 3047 0 
L 2419 0 
L 2419 1100 
L 313 1100 
L 313 1709 
L 2253 4666 
z
" transform="scale(0.015625)"/>
       </defs>
       <use xlink:href="#DejaVuSans-34"/>
       <use xlink:href="#DejaVuSans-30" x="63.623047"/>
       <use xlink:href="#DejaVuSans-30" x="127.246094"/>
      </g>
     </g>
    </g>
    <g id="xtick_6">
     <g id="line2d_6">
      <g>
       <use xlink:href="#m00b128fd61" x="625.126989" y="308.63625" style="stroke: #000000; stroke-width: 0.8"/>
      </g>
     </g>
     <g id="text_6">
      <!-- 500 -->
      <g transform="translate(606.039489 330.833125) scale(0.2 -0.2)">
       <defs>
        <path id="DejaVuSans-35" d="M 691 4666 
L 3169 4666 
L 3169 4134 
L 1269 4134 
L 1269 2991 
Q 1406 3038 1543 3061 
Q 1681 3084 1819 3084 
Q 2600 3084 3056 2656 
Q 3513 2228 3513 1497 
Q 3513 744 3044 326 
Q 2575 -91 1722 -91 
Q 1428 -91 1123 -41 
Q 819 9 494 109 
L 494 744 
Q 775 591 1075 516 
Q 1375 441 1709 441 
Q 2250 441 2565 725 
Q 2881 1009 2881 1497 
Q 2881 1984 2565 2268 
Q 2250 2553 1709 2553 
Q 1456 2553 1204 2497 
Q 953 2441 691 2322 
L 691 4666 
z
" transform="scale(0.015625)"/>
       </defs>
       <use xlink:href="#DejaVuSans-35"/>
       <use xlink:href="#DejaVuSans-30" x="63.623047"/>
       <use xlink:href="#DejaVuSans-30" x="127.246094"/>
      </g>
     </g>
    </g>
    <g id="text_7">
     <!-- iterations -->
     <g transform="translate(324.035938 354.189375) scale(0.2 -0.2)">
      <defs>
       <path id="DejaVuSans-69" d="M 603 3500 
L 1178 3500 
L 1178 0 
L 603 0 
L 603 3500 
z
M 603 4863 
L 1178 4863 
L 1178 4134 
L 603 4134 
L 603 4863 
z
" transform="scale(0.015625)"/>
       <path id="DejaVuSans-74" d="M 1172 4494 
L 1172 3500 
L 2356 3500 
L 2356 3053 
L 1172 3053 
L 1172 1153 
Q 1172 725 1289 603 
Q 1406 481 1766 481 
L 2356 481 
L 2356 0 
L 1766 0 
Q 1100 0 847 248 
Q 594 497 594 1153 
L 594 3053 
L 172 3053 
L 172 3500 
L 594 3500 
L 594 4494 
L 1172 4494 
z
" transform="scale(0.015625)"/>
       <path id="DejaVuSans-65" d="M 3597 1894 
L 3597 1613 
L 953 1613 
Q 991 1019 1311 708 
Q 1631 397 2203 397 
Q 2534 397 2845 478 
Q 3156 559 3463 722 
L 3463 178 
Q 3153 47 2828 -22 
Q 2503 -91 2169 -91 
Q 1331 -91 842 396 
Q 353 884 353 1716 
Q 353 2575 817 3079 
Q 1281 3584 2069 3584 
Q 2775 3584 3186 3129 
Q 3597 2675 3597 1894 
z
M 3022 2063 
Q 3016 2534 2758 2815 
Q 2500 3097 2075 3097 
Q 1594 3097 1305 2825 
Q 1016 2553 972 2059 
L 3022 2063 
z
" transform="scale(0.015625)"/>
       <path id="DejaVuSans-72" d="M 2631 2963 
Q 2534 3019 2420 3045 
Q 2306 3072 2169 3072 
Q 1681 3072 1420 2755 
Q 1159 2438 1159 1844 
L 1159 0 
L 581 0 
L 581 3500 
L 1159 3500 
L 1159 2956 
Q 1341 3275 1631 3429 
Q 1922 3584 2338 3584 
Q 2397 3584 2469 3576 
Q 2541 3569 2628 3553 
L 2631 2963 
z
" transform="scale(0.015625)"/>
       <path id="DejaVuSans-61" d="M 2194 1759 
Q 1497 1759 1228 1600 
Q 959 1441 959 1056 
Q 959 750 1161 570 
Q 1363 391 1709 391 
Q 2188 391 2477 730 
Q 2766 1069 2766 1631 
L 2766 1759 
L 2194 1759 
z
M 3341 1997 
L 3341 0 
L 2766 0 
L 2766 531 
Q 2569 213 2275 61 
Q 1981 -91 1556 -91 
Q 1019 -91 701 211 
Q 384 513 384 1019 
Q 384 1609 779 1909 
Q 1175 2209 1959 2209 
L 2766 2209 
L 2766 2266 
Q 2766 2663 2505 2880 
Q 2244 3097 1772 3097 
Q 1472 3097 1187 3025 
Q 903 2953 641 2809 
L 641 3341 
Q 956 3463 1253 3523 
Q 1550 3584 1831 3584 
Q 2591 3584 2966 3190 
Q 3341 2797 3341 1997 
z
" transform="scale(0.015625)"/>
       <path id="DejaVuSans-6f" d="M 1959 3097 
Q 1497 3097 1228 2736 
Q 959 2375 959 1747 
Q 959 1119 1226 758 
Q 1494 397 1959 397 
Q 2419 397 2687 759 
Q 2956 1122 2956 1747 
Q 2956 2369 2687 2733 
Q 2419 3097 1959 3097 
z
M 1959 3584 
Q 2709 3584 3137 3096 
Q 3566 2609 3566 1747 
Q 3566 888 3137 398 
Q 2709 -91 1959 -91 
Q 1206 -91 779 398 
Q 353 888 353 1747 
Q 353 2609 779 3096 
Q 1206 3584 1959 3584 
z
" transform="scale(0.015625)"/>
       <path id="DejaVuSans-6e" d="M 3513 2113 
L 3513 0 
L 2938 0 
L 2938 2094 
Q 2938 2591 2744 2837 
Q 2550 3084 2163 3084 
Q 1697 3084 1428 2787 
Q 1159 2491 1159 1978 
L 1159 0 
L 581 0 
L 581 3500 
L 1159 3500 
L 1159 2956 
Q 1366 3272 1645 3428 
Q 1925 3584 2291 3584 
Q 2894 3584 3203 3211 
Q 3513 2838 3513 2113 
z
" transform="scale(0.015625)"/>
       <path id="DejaVuSans-73" d="M 2834 3397 
L 2834 2853 
Q 2591 2978 2328 3040 
Q 2066 3103 1784 3103 
Q 1356 3103 1142 2972 
Q 928 2841 928 2578 
Q 928 2378 1081 2264 
Q 1234 2150 1697 2047 
L 1894 2003 
Q 2506 1872 2764 1633 
Q 3022 1394 3022 966 
Q 3022 478 2636 193 
Q 2250 -91 1575 -91 
Q 1294 -91 989 -36 
Q 684 19 347 128 
L 347 722 
Q 666 556 975 473 
Q 1284 391 1588 391 
Q 1994 391 2212 530 
Q 2431 669 2431 922 
Q 2431 1156 2273 1281 
Q 2116 1406 1581 1522 
L 1381 1569 
Q 847 1681 609 1914 
Q 372 2147 372 2553 
Q 372 3047 722 3315 
Q 1072 3584 1716 3584 
Q 2034 3584 2315 3537 
Q 2597 3491 2834 3397 
z
" transform="scale(0.015625)"/>
      </defs>
      <use xlink:href="#DejaVuSans-69"/>
      <use xlink:href="#DejaVuSans-74" x="27.783203"/>
      <use xlink:href="#DejaVuSans-65" x="66.992188"/>
      <use xlink:href="#DejaVuSans-72" x="128.515625"/>
      <use xlink:href="#DejaVuSans-61" x="169.628906"/>
      <use xlink:href="#DejaVuSans-74" x="230.908203"/>
      <use xlink:href="#DejaVuSans-69" x="270.117188"/>
      <use xlink:href="#DejaVuSans-6f" x="297.900391"/>
      <use xlink:href="#DejaVuSans-6e" x="359.082031"/>
      <use xlink:href="#DejaVuSans-73" x="422.460938"/>
     </g>
    </g>
   </g>
   <g id="matplotlib.axis_2">
    <g id="ytick_1">
     <g id="line2d_7">
      <defs>
       <path id="m3c4b390700" d="M 0 0 
L -3.5 0 
" style="stroke: #000000; stroke-width: 0.8"/>
      </defs>
      <g>
       <use xlink:href="#m3c4b390700" x="92.490625" y="233.89928" style="stroke: #000000; stroke-width: 0.8"/>
      </g>
     </g>
     <g id="text_8">
      <!-- −200 -->
      <g transform="translate(30.55625 241.497718) scale(0.2 -0.2)">
       <defs>
        <path id="DejaVuSans-2212" d="M 678 2272 
L 4684 2272 
L 4684 1741 
L 678 1741 
L 678 2272 
z
" transform="scale(0.015625)"/>
       </defs>
       <use xlink:href="#DejaVuSans-2212"/>
       <use xlink:href="#DejaVuSans-32" x="83.789062"/>
       <use xlink:href="#DejaVuSans-30" x="147.412109"/>
       <use xlink:href="#DejaVuSans-30" x="211.035156"/>
      </g>
     </g>
    </g>
    <g id="ytick_2">
     <g id="line2d_8">
      <g>
       <use xlink:href="#m3c4b390700" x="92.490625" y="156.400898" style="stroke: #000000; stroke-width: 0.8"/>
      </g>
     </g>
     <g id="text_9">
      <!-- 0 -->
      <g transform="translate(72.765625 163.999335) scale(0.2 -0.2)">
       <use xlink:href="#DejaVuSans-30"/>
      </g>
     </g>
    </g>
    <g id="ytick_3">
     <g id="line2d_9">
      <g>
       <use xlink:href="#m3c4b390700" x="92.490625" y="78.902515" style="stroke: #000000; stroke-width: 0.8"/>
      </g>
     </g>
     <g id="text_10">
      <!-- 200 -->
      <g transform="translate(47.315625 86.500953) scale(0.2 -0.2)">
       <use xlink:href="#DejaVuSans-32"/>
       <use xlink:href="#DejaVuSans-30" x="63.623047"/>
       <use xlink:href="#DejaVuSans-30" x="127.246094"/>
      </g>
     </g>
    </g>
    <g id="text_11">
     <!-- Loss -->
     <g transform="translate(22.396875 191.970625) rotate(-90) scale(0.2 -0.2)">
      <defs>
       <path id="DejaVuSans-4c" d="M 628 4666 
L 1259 4666 
L 1259 531 
L 3531 531 
L 3531 0 
L 628 0 
L 628 4666 
z
" transform="scale(0.015625)"/>
      </defs>
      <use xlink:href="#DejaVuSans-4c"/>
      <use xlink:href="#DejaVuSans-6f" x="53.962891"/>
      <use xlink:href="#DejaVuSans-73" x="115.144531"/>
      <use xlink:href="#DejaVuSans-73" x="167.244141"/>
     </g>
    </g>
   </g>
   <g id="line2d_10">
    <path d="M 117.854261 136.140105 
L 118.868807 119.386488 
L 119.883352 97.658702 
L 120.897898 116.435418 
L 121.912443 132.66545 
L 122.926989 131.50223 
L 123.941534 109.074995 
L 124.95608 70.056914 
L 125.970625 54.902085 
L 126.98517 57.926545 
L 127.999716 54.948943 
L 129.014261 45.679812 
L 130.028807 44.03625 
L 131.043352 46.554003 
L 132.057898 46.4645 
L 133.072443 61.12117 
L 134.086989 55.452144 
L 135.101534 47.371821 
L 136.11608 48.94424 
L 137.130625 60.27658 
L 138.14517 67.071176 
L 139.159716 67.466942 
L 140.174261 72.47849 
L 141.188807 69.342872 
L 143.217898 88.049269 
L 144.232443 94.790736 
L 145.246989 91.969084 
L 146.261534 93.229692 
L 147.27608 92.7299 
L 148.290625 100.783666 
L 149.30517 98.377732 
L 150.319716 103.555557 
L 151.334261 102.926982 
L 152.348807 106.843558 
L 153.363352 103.849343 
L 154.377898 107.982067 
L 155.392443 104.046284 
L 156.406989 105.454914 
L 157.421534 106.159588 
L 158.43608 109.279874 
L 159.450625 108.658111 
L 160.46517 113.348977 
L 161.479716 112.802562 
L 162.494261 112.886724 
L 163.508807 114.323495 
L 164.523352 115.418994 
L 165.537898 117.192842 
L 166.552443 119.698511 
L 167.566989 121.529548 
L 168.581534 117.759482 
L 169.59608 121.031451 
L 170.610625 117.874613 
L 171.62517 123.929319 
L 172.639716 124.437846 
L 173.654261 125.098673 
L 174.668807 122.790211 
L 175.683352 126.681087 
L 176.697898 124.35353 
L 177.712443 124.598737 
L 178.726989 127.579039 
L 179.741534 126.84408 
L 180.75608 125.949512 
L 181.770625 128.740085 
L 182.78517 127.119974 
L 183.799716 126.066819 
L 184.814261 124.500406 
L 185.828807 128.099512 
L 186.843352 127.64869 
L 187.857898 124.880741 
L 188.872443 126.072068 
L 189.886989 125.0338 
L 191.91608 128.291852 
L 192.930625 127.820071 
L 193.94517 128.384262 
L 194.959716 127.725314 
L 195.974261 130.487021 
L 196.988807 124.764492 
L 198.003352 128.248503 
L 199.017898 131.03801 
L 200.032443 129.370054 
L 201.046989 128.507903 
L 202.061534 129.992741 
L 203.07608 127.025059 
L 204.090625 128.463137 
L 205.10517 132.280888 
L 206.119716 126.205151 
L 207.134261 127.786885 
L 208.148807 128.36622 
L 209.163352 130.870562 
L 210.177898 129.202161 
L 211.192443 130.454508 
L 212.206989 129.324651 
L 213.221534 131.486962 
L 214.23608 126.280908 
L 215.250625 129.134088 
L 216.26517 127.71524 
L 217.279716 127.933912 
L 218.294261 130.968429 
L 219.308807 131.451701 
L 220.323352 128.47423 
L 221.337898 131.651787 
L 222.352443 132.517027 
L 223.366989 132.328264 
L 224.381534 131.551236 
L 225.39608 127.719658 
L 226.410625 129.542392 
L 227.42517 129.013006 
L 228.439716 133.998128 
L 229.454261 132.652585 
L 230.468807 134.846951 
L 231.483352 134.467355 
L 232.497898 136.200018 
L 233.512443 135.546954 
L 234.526989 132.983733 
L 235.541534 132.881623 
L 236.55608 135.628088 
L 237.570625 134.707247 
L 238.58517 132.554932 
L 239.599716 134.507047 
L 240.614261 133.025755 
L 241.628807 139.875843 
L 242.643352 134.53711 
L 243.657898 138.060798 
L 244.672443 135.610679 
L 245.686989 134.071004 
L 246.701534 137.174334 
L 247.71608 138.894034 
L 248.730625 134.346656 
L 249.74517 133.628541 
L 250.759716 139.905496 
L 251.774261 139.351825 
L 252.788807 141.054145 
L 253.803352 140.309269 
L 254.817898 138.998649 
L 256.846989 139.653628 
L 257.861534 140.618431 
L 258.87608 137.012362 
L 259.890625 139.155162 
L 260.90517 138.342522 
L 261.919716 137.298371 
L 262.934261 136.511355 
L 263.948807 140.473876 
L 264.963352 136.474656 
L 265.977898 137.701627 
L 266.992443 137.834537 
L 268.006989 137.004483 
L 269.021534 137.949913 
L 270.03608 137.668135 
L 271.050625 141.592374 
L 272.06517 138.273643 
L 273.079716 140.58307 
L 274.094261 139.392533 
L 275.108807 137.903665 
L 276.123352 139.007768 
L 277.137898 138.482864 
L 278.152443 137.668388 
L 279.166989 137.640647 
L 280.181534 137.021624 
L 281.19608 136.006231 
L 282.210625 137.474276 
L 283.22517 137.944546 
L 284.239716 135.579974 
L 285.254261 135.523171 
L 286.268807 137.942839 
L 287.283352 138.274288 
L 288.297898 140.577836 
L 290.326989 137.334687 
L 291.341534 137.22565 
L 292.35608 138.422765 
L 293.370625 139.345492 
L 294.38517 140.935747 
L 295.399716 138.706081 
L 296.414261 138.031621 
L 297.428807 141.258663 
L 298.443352 139.099333 
L 299.457898 141.369672 
L 300.472443 137.77225 
L 301.486989 137.347757 
L 302.501534 140.418194 
L 303.51608 139.414461 
L 304.530625 138.878593 
L 306.559716 142.18506 
L 307.574261 141.024633 
L 308.588807 141.071503 
L 309.603352 143.735901 
L 310.617898 143.388929 
L 312.646989 142.271918 
L 313.661534 144.383795 
L 314.67608 145.16363 
L 315.690625 144.086809 
L 316.70517 143.883762 
L 317.719716 144.458331 
L 318.734261 144.067005 
L 319.748807 144.523268 
L 320.763352 144.575892 
L 321.777898 144.057221 
L 322.792443 145.96549 
L 324.821534 142.712513 
L 325.83608 143.651971 
L 326.850625 145.212597 
L 327.86517 146.492216 
L 328.879716 144.780635 
L 329.894261 144.081637 
L 330.908807 144.851548 
L 331.923352 146.190345 
L 332.937898 144.657309 
L 333.952443 145.82573 
L 335.981534 143.079696 
L 336.99608 144.296385 
L 338.010625 144.961194 
L 339.02517 143.808949 
L 340.039716 143.997531 
L 341.054261 146.215528 
L 342.068807 144.776813 
L 343.083352 144.718914 
L 344.097898 147.279174 
L 345.112443 145.481445 
L 346.126989 144.759004 
L 347.141534 144.778459 
L 349.170625 147.19603 
L 350.18517 145.77178 
L 351.199716 146.071329 
L 352.214261 146.691365 
L 353.228807 146.571939 
L 354.243352 146.757617 
L 355.257898 146.584022 
L 356.272443 145.073014 
L 357.286989 146.164435 
L 358.301534 146.019355 
L 359.31608 143.897742 
L 360.330625 143.447988 
L 361.34517 143.242848 
L 362.359716 144.033963 
L 363.374261 145.291173 
L 364.388807 144.827294 
L 365.403352 145.635636 
L 366.417898 145.168239 
L 368.446989 145.380979 
L 369.461534 145.052218 
L 370.47608 146.595932 
L 371.490625 146.597405 
L 372.50517 146.024231 
L 373.519716 146.12066 
L 374.534261 145.644051 
L 375.548807 145.637259 
L 376.563352 145.064343 
L 377.577898 146.527707 
L 378.592443 146.054691 
L 379.606989 146.378687 
L 380.621534 147.244862 
L 381.63608 147.743065 
L 383.66517 145.699305 
L 384.679716 145.614191 
L 386.708807 146.032133 
L 387.723352 145.842341 
L 388.737898 145.851376 
L 389.752443 147.242077 
L 390.766989 146.43271 
L 392.79608 144.331136 
L 393.810625 145.156912 
L 394.82517 145.113214 
L 395.839716 146.046768 
L 396.854261 146.109475 
L 397.868807 146.358465 
L 398.883352 147.967362 
L 399.897898 145.834115 
L 400.912443 145.471832 
L 401.926989 145.909016 
L 402.941534 145.176336 
L 403.95608 145.312189 
L 404.970625 144.622425 
L 405.98517 146.161472 
L 406.999716 145.988952 
L 408.014261 145.609696 
L 409.028807 146.340256 
L 410.043352 145.255584 
L 411.057898 146.137073 
L 412.072443 145.934825 
L 414.101534 144.794355 
L 415.11608 145.822868 
L 416.130625 146.259016 
L 417.14517 145.545879 
L 418.159716 145.704226 
L 419.174261 143.833665 
L 420.188807 143.39312 
L 421.203352 143.983717 
L 422.217898 144.764031 
L 423.232443 141.471619 
L 424.246989 143.258355 
L 425.261534 142.1225 
L 426.27608 142.770739 
L 428.30517 140.613826 
L 429.319716 140.124447 
L 430.334261 139.984476 
L 431.348807 140.198564 
L 432.363352 139.866343 
L 433.377898 140.192398 
L 434.392443 139.209319 
L 435.406989 137.699922 
L 436.421534 138.211979 
L 437.43608 137.472748 
L 438.450625 135.659297 
L 439.46517 136.513748 
L 440.479716 136.846126 
L 441.494261 136.708991 
L 443.523352 136.991124 
L 444.537898 137.518005 
L 445.552443 137.284661 
L 446.566989 136.19745 
L 447.581534 135.462121 
L 448.59608 135.642996 
L 449.610625 135.398218 
L 450.62517 133.458761 
L 451.639716 133.953103 
L 452.654261 134.309588 
L 454.683352 133.713049 
L 455.697898 133.073662 
L 456.712443 133.282183 
L 457.726989 134.055024 
L 458.741534 133.006076 
L 459.75608 133.292302 
L 460.770625 134.015364 
L 461.78517 133.691593 
L 462.799716 133.654318 
L 463.814261 134.463807 
L 464.828807 134.107787 
L 465.843352 134.925327 
L 466.857898 134.93708 
L 467.872443 134.225088 
L 468.886989 135.658831 
L 469.901534 135.124509 
L 470.91608 134.892409 
L 471.930625 136.184751 
L 472.94517 135.805301 
L 473.959716 136.403224 
L 474.974261 136.162705 
L 475.988807 137.044153 
L 477.003352 136.978352 
L 478.017898 137.257002 
L 480.046989 138.220465 
L 481.061534 138.599311 
L 482.07608 138.164326 
L 483.090625 138.148874 
L 484.10517 138.875902 
L 485.119716 139.009496 
L 486.134261 138.996887 
L 487.148807 139.359301 
L 488.163352 140.196006 
L 489.177898 139.88815 
L 490.192443 139.446259 
L 491.206989 139.624629 
L 492.221534 139.175819 
L 493.23608 140.360832 
L 494.250625 140.507721 
L 495.26517 140.277501 
L 496.279716 140.344361 
L 497.294261 139.688527 
L 498.308807 139.764017 
L 499.323352 140.47098 
L 500.337898 140.823755 
L 501.352443 140.00849 
L 502.366989 140.867939 
L 504.39608 140.809753 
L 505.410625 141.309758 
L 507.439716 140.6429 
L 508.454261 141.04968 
L 509.468807 141.153351 
L 510.483352 140.423128 
L 511.497898 140.617213 
L 512.512443 140.614077 
L 513.526989 141.862909 
L 514.541534 141.540245 
L 515.55608 141.368711 
L 516.570625 141.72775 
L 517.58517 141.138194 
L 518.599716 141.33949 
L 520.628807 141.923022 
L 521.643352 141.878898 
L 522.657898 141.446056 
L 523.672443 142.348734 
L 524.686989 142.177576 
L 525.701534 142.347438 
L 526.71608 142.125741 
L 528.74517 142.400078 
L 529.759716 142.475297 
L 530.774261 142.970731 
L 531.788807 143.255098 
L 532.803352 142.866823 
L 533.817898 142.624791 
L 534.832443 142.940462 
L 535.846989 142.544034 
L 536.861534 142.637308 
L 537.87608 143.49133 
L 538.890625 143.441073 
L 539.90517 142.498801 
L 541.934261 143.267946 
L 542.948807 143.508972 
L 543.963352 144.054366 
L 544.977898 144.34474 
L 545.992443 144.041871 
L 547.006989 143.350409 
L 548.021534 143.766515 
L 549.03608 143.467922 
L 551.06517 144.488671 
L 552.079716 144.668617 
L 553.094261 144.67175 
L 554.108807 145.670451 
L 555.123352 145.760743 
L 556.137898 146.258358 
L 557.152443 147.1414 
L 559.181534 148.41856 
L 560.19608 148.68886 
L 561.210625 148.046676 
L 562.22517 148.448831 
L 563.239716 147.839463 
L 564.254261 148.048703 
L 565.268807 148.580042 
L 566.283352 148.47331 
L 567.297898 148.869761 
L 568.312443 148.968766 
L 571.35608 148.022524 
L 572.370625 148.76923 
L 573.38517 148.372024 
L 574.399716 148.493244 
L 575.414261 148.478269 
L 576.428807 148.748364 
L 579.472443 148.377159 
L 580.486989 148.893702 
L 582.51608 149.112677 
L 583.530625 148.8705 
L 584.54517 149.059157 
L 585.559716 148.448253 
L 586.574261 148.639738 
L 587.588807 148.443988 
L 588.603352 148.854225 
L 589.617898 148.831863 
L 590.632443 149.493462 
L 591.646989 149.32119 
L 592.661534 148.955499 
L 594.690625 149.348102 
L 595.70517 149.343716 
L 596.719716 149.914771 
L 597.734261 149.513644 
L 598.748807 149.769645 
L 600.777898 149.281482 
L 601.792443 149.528568 
L 602.806989 150.340114 
L 603.821534 149.765789 
L 604.83608 149.810813 
L 605.850625 150.424258 
L 606.86517 149.525793 
L 607.879716 149.916599 
L 609.908807 149.784206 
L 610.923352 149.297795 
L 612.952443 149.799474 
L 613.966989 150.375535 
L 614.981534 150.047529 
L 615.99608 150.061927 
L 617.010625 150.378216 
L 618.02517 149.992059 
L 619.039716 149.896424 
L 620.054261 150.321031 
L 621.068807 150.541045 
L 622.083352 150.338546 
L 623.097898 150.392109 
L 624.112443 150.798539 
L 625.126989 150.783767 
L 625.126989 150.783767 
" clip-path="url(#pa053fcc5dc)" style="fill: none; stroke: #1f77b4; stroke-width: 1.5; stroke-linecap: square"/>
   </g>
   <g id="line2d_11">
    <path d="M 117.854261 254.938135 
L 118.868807 296.03625 
L 119.883352 255.116532 
L 120.897898 208.813361 
L 121.912443 187.276667 
L 122.926989 189.706367 
L 123.941534 199.947919 
L 124.95608 215.797721 
L 125.970625 206.249023 
L 126.98517 198.696802 
L 127.999716 195.653424 
L 129.014261 191.667623 
L 130.028807 187.178186 
L 131.043352 184.771631 
L 132.057898 181.518091 
L 133.072443 172.836631 
L 134.086989 177.084168 
L 135.101534 176.002442 
L 136.11608 180.292152 
L 138.14517 176.06466 
L 139.159716 175.975991 
L 140.174261 174.803012 
L 141.188807 176.218112 
L 142.203352 174.095347 
L 143.217898 172.621992 
L 144.232443 174.243191 
L 145.246989 176.566693 
L 146.261534 173.999041 
L 147.27608 173.336092 
L 148.290625 171.437928 
L 149.30517 173.335198 
L 150.319716 172.257273 
L 151.334261 172.221129 
L 152.348807 171.317887 
L 153.363352 174.228225 
L 154.377898 174.212043 
L 155.392443 172.3616 
L 156.406989 174.62792 
L 158.43608 173.635043 
L 159.450625 172.33708 
L 160.46517 172.44086 
L 161.479716 171.153063 
L 162.494261 171.94099 
L 163.508807 171.945602 
L 164.523352 172.134762 
L 165.537898 171.688203 
L 166.552443 172.966357 
L 167.566989 172.10459 
L 168.581534 171.552824 
L 169.59608 172.491549 
L 170.610625 173.746198 
L 171.62517 171.707896 
L 173.654261 171.970886 
L 174.668807 170.970049 
L 176.697898 171.354679 
L 178.726989 173.167313 
L 180.75608 172.811369 
L 181.770625 171.409545 
L 183.799716 174.302414 
L 184.814261 172.613514 
L 185.828807 172.593085 
L 186.843352 171.222889 
L 187.857898 171.566571 
L 188.872443 172.197917 
L 189.886989 172.400267 
L 190.901534 172.719121 
L 191.91608 172.528508 
L 192.930625 171.880279 
L 193.94517 171.604792 
L 194.959716 172.486302 
L 195.974261 172.588694 
L 196.988807 173.111377 
L 198.003352 171.824538 
L 199.017898 171.427537 
L 200.032443 172.134662 
L 201.046989 172.388463 
L 202.061534 172.99041 
L 204.090625 173.19691 
L 205.10517 172.615522 
L 206.119716 173.116519 
L 207.134261 174.450834 
L 208.148807 173.848685 
L 209.163352 173.067075 
L 210.177898 173.406221 
L 211.192443 172.090916 
L 212.206989 173.59965 
L 213.221534 173.205076 
L 215.250625 175.600819 
L 216.26517 175.336454 
L 217.279716 175.347132 
L 218.294261 172.839012 
L 219.308807 174.86629 
L 220.323352 172.849161 
L 221.337898 173.691814 
L 222.352443 174.198152 
L 223.366989 175.266 
L 224.381534 173.253777 
L 225.39608 175.196099 
L 226.410625 176.064354 
L 227.42517 174.710514 
L 228.439716 174.716729 
L 229.454261 174.534071 
L 230.468807 173.717343 
L 231.483352 174.202458 
L 232.497898 175.168232 
L 233.512443 173.329799 
L 234.526989 173.707572 
L 235.541534 175.512934 
L 236.55608 175.412587 
L 237.570625 174.743105 
L 238.58517 174.236053 
L 239.599716 174.495109 
L 240.614261 174.457927 
L 241.628807 173.598044 
L 242.643352 173.556798 
L 243.657898 174.226957 
L 244.672443 172.842117 
L 245.686989 174.033998 
L 246.701534 171.82722 
L 247.71608 173.466877 
L 248.730625 171.590813 
L 249.74517 173.837477 
L 250.759716 174.196744 
L 252.788807 172.477713 
L 253.803352 174.105548 
L 254.817898 170.266629 
L 255.832443 170.28206 
L 256.846989 170.728368 
L 257.861534 172.379129 
L 258.87608 172.545078 
L 259.890625 173.10725 
L 260.90517 172.727759 
L 262.934261 171.206784 
L 263.948807 172.85732 
L 264.963352 169.132799 
L 265.977898 167.331023 
L 266.992443 169.746138 
L 268.006989 170.89915 
L 269.021534 171.197267 
L 270.03608 171.290808 
L 271.050625 170.065879 
L 272.06517 170.701915 
L 273.079716 169.38946 
L 274.094261 169.828205 
L 275.108807 167.50936 
L 276.123352 169.867771 
L 277.137898 170.174255 
L 278.152443 169.140012 
L 279.166989 169.54945 
L 280.181534 171.783569 
L 281.19608 168.517541 
L 282.210625 168.987571 
L 283.22517 168.750076 
L 285.254261 171.450895 
L 286.268807 171.729048 
L 287.283352 171.055364 
L 288.297898 168.730249 
L 289.312443 170.262241 
L 290.326989 171.317043 
L 291.341534 170.891562 
L 292.35608 168.43404 
L 293.370625 169.292704 
L 294.38517 169.887103 
L 295.399716 170.685864 
L 296.414261 167.229364 
L 297.428807 169.860336 
L 298.443352 170.315567 
L 299.457898 166.725035 
L 300.472443 168.727225 
L 301.486989 168.558664 
L 303.51608 169.35949 
L 304.530625 169.370134 
L 305.54517 169.961826 
L 306.559716 168.556259 
L 307.574261 170.718922 
L 308.588807 168.860858 
L 309.603352 170.40796 
L 310.617898 167.685218 
L 311.632443 168.199201 
L 313.661534 170.578275 
L 315.690625 169.629412 
L 317.719716 169.775695 
L 318.734261 170.735877 
L 319.748807 170.170243 
L 320.763352 170.533776 
L 321.777898 170.003519 
L 322.792443 170.422865 
L 323.806989 169.232927 
L 324.821534 168.608221 
L 325.83608 168.981682 
L 326.850625 169.866374 
L 327.86517 168.866532 
L 328.879716 170.029044 
L 329.894261 169.272354 
L 330.908807 170.493606 
L 331.923352 169.511944 
L 332.937898 169.666177 
L 333.952443 170.312552 
L 335.981534 170.441513 
L 336.99608 169.193993 
L 338.010625 170.700225 
L 339.02517 170.408394 
L 340.039716 170.390795 
L 341.054261 168.707613 
L 342.068807 168.567834 
L 343.083352 168.555006 
L 344.097898 169.782664 
L 345.112443 169.375414 
L 346.126989 170.828587 
L 347.141534 169.300857 
L 348.15608 169.55813 
L 349.170625 168.334885 
L 350.18517 167.962417 
L 352.214261 169.137734 
L 353.228807 169.272664 
L 354.243352 168.226628 
L 355.257898 169.71668 
L 356.272443 168.361433 
L 357.286989 167.264729 
L 358.301534 168.508186 
L 359.31608 168.568905 
L 360.330625 169.47394 
L 361.34517 167.353207 
L 363.374261 169.12375 
L 364.388807 167.556371 
L 365.403352 167.498236 
L 366.417898 168.372565 
L 367.432443 166.057744 
L 368.446989 168.455916 
L 369.461534 169.283844 
L 371.490625 168.434012 
L 373.519716 169.942208 
L 374.534261 171.442653 
L 375.548807 170.744467 
L 376.563352 169.635116 
L 377.577898 169.531875 
L 378.592443 169.192391 
L 379.606989 171.219978 
L 380.621534 169.751376 
L 381.63608 168.883082 
L 382.650625 169.9975 
L 383.66517 170.620432 
L 384.679716 170.428596 
L 385.694261 169.78904 
L 386.708807 171.271427 
L 387.723352 170.455118 
L 389.752443 169.500853 
L 392.79608 171.378662 
L 393.810625 169.724076 
L 394.82517 169.908073 
L 395.839716 170.59831 
L 396.854261 168.845588 
L 398.883352 170.196902 
L 399.897898 170.477496 
L 400.912443 169.453045 
L 401.926989 170.539155 
L 402.941534 170.41447 
L 403.95608 170.541219 
L 404.970625 170.364321 
L 405.98517 169.476405 
L 408.014261 170.988097 
L 409.028807 170.720209 
L 410.043352 170.610929 
L 411.057898 170.250932 
L 412.072443 170.983601 
L 413.086989 171.334155 
L 414.101534 170.607384 
L 415.11608 171.594585 
L 416.130625 170.74801 
L 417.14517 171.102039 
L 418.159716 165.668203 
L 419.174261 157.260271 
L 420.188807 158.109435 
L 422.217898 158.065066 
L 423.232443 159.253093 
L 424.246989 157.933172 
L 425.261534 158.683074 
L 426.27608 159.216684 
L 427.290625 158.952384 
L 428.30517 159.774269 
L 429.319716 159.497486 
L 430.334261 159.514434 
L 431.348807 159.810076 
L 432.363352 159.243292 
L 433.377898 159.990796 
L 434.392443 159.520692 
L 435.406989 160.025602 
L 437.43608 159.908322 
L 438.450625 160.32958 
L 439.46517 160.154614 
L 440.479716 159.818638 
L 441.494261 159.734872 
L 442.508807 159.897215 
L 443.523352 159.637781 
L 444.537898 160.053261 
L 445.552443 159.948993 
L 446.566989 160.615295 
L 447.581534 159.828245 
L 448.59608 159.865906 
L 449.610625 159.767255 
L 450.62517 160.544821 
L 451.639716 159.858306 
L 452.654261 160.628665 
L 453.668807 160.316323 
L 454.683352 160.832474 
L 455.697898 160.978815 
L 456.712443 159.986471 
L 457.726989 159.913214 
L 458.741534 160.487713 
L 460.770625 160.706538 
L 461.78517 160.286802 
L 462.799716 160.026634 
L 463.814261 160.417298 
L 464.828807 160.304212 
L 465.843352 160.57298 
L 466.857898 160.25048 
L 467.872443 160.492115 
L 468.886989 160.432943 
L 469.901534 160.643788 
L 470.91608 160.544122 
L 471.930625 160.312588 
L 472.94517 160.211009 
L 473.959716 159.614008 
L 474.974261 160.273213 
L 477.003352 159.906737 
L 478.017898 160.47459 
L 479.032443 159.342558 
L 480.046989 159.780157 
L 481.061534 159.273843 
L 483.090625 159.899822 
L 484.10517 159.765321 
L 485.119716 159.897305 
L 486.134261 159.424204 
L 487.148807 159.791611 
L 488.163352 159.646656 
L 489.177898 159.29827 
L 490.192443 159.624578 
L 491.206989 159.152912 
L 492.221534 159.176085 
L 493.23608 159.064748 
L 494.250625 159.418686 
L 495.26517 159.253508 
L 496.279716 159.600608 
L 497.294261 159.800961 
L 498.308807 159.610222 
L 499.323352 159.767646 
L 500.337898 159.258101 
L 501.352443 159.465059 
L 502.366989 159.516275 
L 503.381534 159.389562 
L 506.42517 159.476896 
L 507.439716 159.130857 
L 509.468807 159.603505 
L 510.483352 158.947125 
L 511.497898 159.258055 
L 513.526989 159.591428 
L 514.541534 159.406045 
L 515.55608 159.503871 
L 516.570625 158.876726 
L 517.58517 159.627697 
L 518.599716 159.631467 
L 519.614261 159.09707 
L 520.628807 159.191761 
L 521.643352 159.851682 
L 522.657898 159.400114 
L 523.672443 159.600971 
L 524.686989 159.400481 
L 525.701534 159.734207 
L 526.71608 159.494294 
L 528.74517 159.609264 
L 531.788807 159.752787 
L 532.803352 159.198844 
L 533.817898 159.908282 
L 534.832443 159.466196 
L 535.846989 159.699557 
L 536.861534 159.645381 
L 537.87608 160.019621 
L 538.890625 159.595929 
L 543.963352 159.606665 
L 544.977898 159.94807 
L 545.992443 159.719841 
L 547.006989 159.649272 
L 548.021534 162.848622 
L 549.03608 158.196261 
L 550.050625 159.594087 
L 551.06517 159.816541 
L 552.079716 159.585803 
L 553.094261 159.791473 
L 554.108807 159.62025 
L 555.123352 159.814353 
L 556.137898 159.681243 
L 557.152443 159.994622 
L 558.166989 159.768833 
L 559.181534 159.373059 
L 562.22517 159.860811 
L 563.239716 159.527404 
L 564.254261 159.690969 
L 565.268807 159.504895 
L 566.283352 159.835262 
L 567.297898 159.449771 
L 568.312443 159.812848 
L 569.326989 159.550961 
L 570.341534 159.758294 
L 572.370625 159.550144 
L 574.399716 159.683732 
L 575.414261 159.744483 
L 577.443352 159.492884 
L 578.457898 159.886462 
L 579.472443 159.425712 
L 582.51608 159.597965 
L 584.54517 159.507324 
L 585.559716 159.820618 
L 586.574261 159.745091 
L 588.603352 159.926608 
L 589.617898 159.71463 
L 590.632443 160.015056 
L 591.646989 159.538858 
L 594.690625 160.086147 
L 595.70517 159.750671 
L 597.734261 159.785548 
L 598.748807 159.464118 
L 599.763352 159.979955 
L 600.777898 160.123462 
L 601.792443 159.783599 
L 603.821534 159.852492 
L 604.83608 159.76547 
L 605.850625 159.849602 
L 606.86517 160.331629 
L 607.879716 159.971812 
L 608.894261 159.825108 
L 609.908807 159.831308 
L 610.923352 160.129987 
L 611.937898 160.084658 
L 612.952443 160.428929 
L 613.966989 159.703395 
L 618.02517 159.86017 
L 619.039716 160.021164 
L 620.054261 159.838181 
L 621.068807 160.044828 
L 623.097898 159.802884 
L 624.112443 160.08104 
L 625.126989 159.821094 
L 625.126989 159.821094 
" clip-path="url(#pa053fcc5dc)" style="fill: none; stroke: #ff7f0e; stroke-width: 1.5; stroke-linecap: square"/>
   </g>
   <g id="patch_3">
    <path d="M 92.490625 308.63625 
L 92.490625 31.43625 
" style="fill: none; stroke: #000000; stroke-width: 0.8; stroke-linejoin: miter; stroke-linecap: square"/>
   </g>
   <g id="patch_4">
    <path d="M 650.490625 308.63625 
L 650.490625 31.43625 
" style="fill: none; stroke: #000000; stroke-width: 0.8; stroke-linejoin: miter; stroke-linecap: square"/>
   </g>
   <g id="patch_5">
    <path d="M 92.490625 308.63625 
L 650.490625 308.63625 
" style="fill: none; stroke: #000000; stroke-width: 0.8; stroke-linejoin: miter; stroke-linecap: square"/>
   </g>
   <g id="patch_6">
    <path d="M 92.490625 31.43625 
L 650.490625 31.43625 
" style="fill: none; stroke: #000000; stroke-width: 0.8; stroke-linejoin: miter; stroke-linecap: square"/>
   </g>
   <g id="text_12">
    <!-- Generator and Discriminator Loss During Training -->
    <g transform="translate(74.258125 25.43625) scale(0.24 -0.24)">
     <defs>
      <path id="DejaVuSans-47" d="M 3809 666 
L 3809 1919 
L 2778 1919 
L 2778 2438 
L 4434 2438 
L 4434 434 
Q 4069 175 3628 42 
Q 3188 -91 2688 -91 
Q 1594 -91 976 548 
Q 359 1188 359 2328 
Q 359 3472 976 4111 
Q 1594 4750 2688 4750 
Q 3144 4750 3555 4637 
Q 3966 4525 4313 4306 
L 4313 3634 
Q 3963 3931 3569 4081 
Q 3175 4231 2741 4231 
Q 1884 4231 1454 3753 
Q 1025 3275 1025 2328 
Q 1025 1384 1454 906 
Q 1884 428 2741 428 
Q 3075 428 3337 486 
Q 3600 544 3809 666 
z
" transform="scale(0.015625)"/>
      <path id="DejaVuSans-20" transform="scale(0.015625)"/>
      <path id="DejaVuSans-64" d="M 2906 2969 
L 2906 4863 
L 3481 4863 
L 3481 0 
L 2906 0 
L 2906 525 
Q 2725 213 2448 61 
Q 2172 -91 1784 -91 
Q 1150 -91 751 415 
Q 353 922 353 1747 
Q 353 2572 751 3078 
Q 1150 3584 1784 3584 
Q 2172 3584 2448 3432 
Q 2725 3281 2906 2969 
z
M 947 1747 
Q 947 1113 1208 752 
Q 1469 391 1925 391 
Q 2381 391 2643 752 
Q 2906 1113 2906 1747 
Q 2906 2381 2643 2742 
Q 2381 3103 1925 3103 
Q 1469 3103 1208 2742 
Q 947 2381 947 1747 
z
" transform="scale(0.015625)"/>
      <path id="DejaVuSans-44" d="M 1259 4147 
L 1259 519 
L 2022 519 
Q 2988 519 3436 956 
Q 3884 1394 3884 2338 
Q 3884 3275 3436 3711 
Q 2988 4147 2022 4147 
L 1259 4147 
z
M 628 4666 
L 1925 4666 
Q 3281 4666 3915 4102 
Q 4550 3538 4550 2338 
Q 4550 1131 3912 565 
Q 3275 0 1925 0 
L 628 0 
L 628 4666 
z
" transform="scale(0.015625)"/>
      <path id="DejaVuSans-63" d="M 3122 3366 
L 3122 2828 
Q 2878 2963 2633 3030 
Q 2388 3097 2138 3097 
Q 1578 3097 1268 2742 
Q 959 2388 959 1747 
Q 959 1106 1268 751 
Q 1578 397 2138 397 
Q 2388 397 2633 464 
Q 2878 531 3122 666 
L 3122 134 
Q 2881 22 2623 -34 
Q 2366 -91 2075 -91 
Q 1284 -91 818 406 
Q 353 903 353 1747 
Q 353 2603 823 3093 
Q 1294 3584 2113 3584 
Q 2378 3584 2631 3529 
Q 2884 3475 3122 3366 
z
" transform="scale(0.015625)"/>
      <path id="DejaVuSans-6d" d="M 3328 2828 
Q 3544 3216 3844 3400 
Q 4144 3584 4550 3584 
Q 5097 3584 5394 3201 
Q 5691 2819 5691 2113 
L 5691 0 
L 5113 0 
L 5113 2094 
Q 5113 2597 4934 2840 
Q 4756 3084 4391 3084 
Q 3944 3084 3684 2787 
Q 3425 2491 3425 1978 
L 3425 0 
L 2847 0 
L 2847 2094 
Q 2847 2600 2669 2842 
Q 2491 3084 2119 3084 
Q 1678 3084 1418 2786 
Q 1159 2488 1159 1978 
L 1159 0 
L 581 0 
L 581 3500 
L 1159 3500 
L 1159 2956 
Q 1356 3278 1631 3431 
Q 1906 3584 2284 3584 
Q 2666 3584 2933 3390 
Q 3200 3197 3328 2828 
z
" transform="scale(0.015625)"/>
      <path id="DejaVuSans-75" d="M 544 1381 
L 544 3500 
L 1119 3500 
L 1119 1403 
Q 1119 906 1312 657 
Q 1506 409 1894 409 
Q 2359 409 2629 706 
Q 2900 1003 2900 1516 
L 2900 3500 
L 3475 3500 
L 3475 0 
L 2900 0 
L 2900 538 
Q 2691 219 2414 64 
Q 2138 -91 1772 -91 
Q 1169 -91 856 284 
Q 544 659 544 1381 
z
M 1991 3584 
L 1991 3584 
z
" transform="scale(0.015625)"/>
      <path id="DejaVuSans-67" d="M 2906 1791 
Q 2906 2416 2648 2759 
Q 2391 3103 1925 3103 
Q 1463 3103 1205 2759 
Q 947 2416 947 1791 
Q 947 1169 1205 825 
Q 1463 481 1925 481 
Q 2391 481 2648 825 
Q 2906 1169 2906 1791 
z
M 3481 434 
Q 3481 -459 3084 -895 
Q 2688 -1331 1869 -1331 
Q 1566 -1331 1297 -1286 
Q 1028 -1241 775 -1147 
L 775 -588 
Q 1028 -725 1275 -790 
Q 1522 -856 1778 -856 
Q 2344 -856 2625 -561 
Q 2906 -266 2906 331 
L 2906 616 
Q 2728 306 2450 153 
Q 2172 0 1784 0 
Q 1141 0 747 490 
Q 353 981 353 1791 
Q 353 2603 747 3093 
Q 1141 3584 1784 3584 
Q 2172 3584 2450 3431 
Q 2728 3278 2906 2969 
L 2906 3500 
L 3481 3500 
L 3481 434 
z
" transform="scale(0.015625)"/>
      <path id="DejaVuSans-54" d="M -19 4666 
L 3928 4666 
L 3928 4134 
L 2272 4134 
L 2272 0 
L 1638 0 
L 1638 4134 
L -19 4134 
L -19 4666 
z
" transform="scale(0.015625)"/>
     </defs>
     <use xlink:href="#DejaVuSans-47"/>
     <use xlink:href="#DejaVuSans-65" x="77.490234"/>
     <use xlink:href="#DejaVuSans-6e" x="139.013672"/>
     <use xlink:href="#DejaVuSans-65" x="202.392578"/>
     <use xlink:href="#DejaVuSans-72" x="263.916016"/>
     <use xlink:href="#DejaVuSans-61" x="305.029297"/>
     <use xlink:href="#DejaVuSans-74" x="366.308594"/>
     <use xlink:href="#DejaVuSans-6f" x="405.517578"/>
     <use xlink:href="#DejaVuSans-72" x="466.699219"/>
     <use xlink:href="#DejaVuSans-20" x="507.8125"/>
     <use xlink:href="#DejaVuSans-61" x="539.599609"/>
     <use xlink:href="#DejaVuSans-6e" x="600.878906"/>
     <use xlink:href="#DejaVuSans-64" x="664.257812"/>
     <use xlink:href="#DejaVuSans-20" x="727.734375"/>
     <use xlink:href="#DejaVuSans-44" x="759.521484"/>
     <use xlink:href="#DejaVuSans-69" x="836.523438"/>
     <use xlink:href="#DejaVuSans-73" x="864.306641"/>
     <use xlink:href="#DejaVuSans-63" x="916.40625"/>
     <use xlink:href="#DejaVuSans-72" x="971.386719"/>
     <use xlink:href="#DejaVuSans-69" x="1012.5"/>
     <use xlink:href="#DejaVuSans-6d" x="1040.283203"/>
     <use xlink:href="#DejaVuSans-69" x="1137.695312"/>
     <use xlink:href="#DejaVuSans-6e" x="1165.478516"/>
     <use xlink:href="#DejaVuSans-61" x="1228.857422"/>
     <use xlink:href="#DejaVuSans-74" x="1290.136719"/>
     <use xlink:href="#DejaVuSans-6f" x="1329.345703"/>
     <use xlink:href="#DejaVuSans-72" x="1390.527344"/>
     <use xlink:href="#DejaVuSans-20" x="1431.640625"/>
     <use xlink:href="#DejaVuSans-4c" x="1463.427734"/>
     <use xlink:href="#DejaVuSans-6f" x="1517.390625"/>
     <use xlink:href="#DejaVuSans-73" x="1578.572266"/>
     <use xlink:href="#DejaVuSans-73" x="1630.671875"/>
     <use xlink:href="#DejaVuSans-20" x="1682.771484"/>
     <use xlink:href="#DejaVuSans-44" x="1714.558594"/>
     <use xlink:href="#DejaVuSans-75" x="1791.560547"/>
     <use xlink:href="#DejaVuSans-72" x="1854.939453"/>
     <use xlink:href="#DejaVuSans-69" x="1896.052734"/>
     <use xlink:href="#DejaVuSans-6e" x="1923.835938"/>
     <use xlink:href="#DejaVuSans-67" x="1987.214844"/>
     <use xlink:href="#DejaVuSans-20" x="2050.691406"/>
     <use xlink:href="#DejaVuSans-54" x="2082.478516"/>
     <use xlink:href="#DejaVuSans-72" x="2128.8125"/>
     <use xlink:href="#DejaVuSans-61" x="2169.925781"/>
     <use xlink:href="#DejaVuSans-69" x="2231.205078"/>
     <use xlink:href="#DejaVuSans-6e" x="2258.988281"/>
     <use xlink:href="#DejaVuSans-69" x="2322.367188"/>
     <use xlink:href="#DejaVuSans-6e" x="2350.150391"/>
     <use xlink:href="#DejaVuSans-67" x="2413.529297"/>
    </g>
   </g>
   <g id="legend_1">
    <g id="patch_7">
     <path d="M 556.99375 106.14875 
L 636.490625 106.14875 
Q 640.490625 106.14875 640.490625 102.14875 
L 640.490625 45.43625 
Q 640.490625 41.43625 636.490625 41.43625 
L 556.99375 41.43625 
Q 552.99375 41.43625 552.99375 45.43625 
L 552.99375 102.14875 
Q 552.99375 106.14875 556.99375 106.14875 
z
" style="fill: #ffffff; opacity: 0.8; stroke: #cccccc; stroke-linejoin: miter"/>
    </g>
    <g id="line2d_12">
     <path d="M 560.99375 57.633125 
L 580.99375 57.633125 
L 600.99375 57.633125 
" style="fill: none; stroke: #1f77b4; stroke-width: 1.5; stroke-linecap: square"/>
    </g>
    <g id="text_13">
     <!-- G -->
     <g transform="translate(616.99375 64.633125) scale(0.2 -0.2)">
      <use xlink:href="#DejaVuSans-47"/>
     </g>
    </g>
    <g id="line2d_13">
     <path d="M 560.99375 86.989375 
L 580.99375 86.989375 
L 600.99375 86.989375 
" style="fill: none; stroke: #ff7f0e; stroke-width: 1.5; stroke-linecap: square"/>
    </g>
    <g id="text_14">
     <!-- D -->
     <g transform="translate(616.99375 93.989375) scale(0.2 -0.2)">
      <use xlink:href="#DejaVuSans-44"/>
     </g>
    </g>
   </g>
  </g>
 </g>
 <defs>
  <clipPath id="pa053fcc5dc">
   <rect x="92.490625" y="31.43625" width="558" height="277.2"/>
  </clipPath>
 </defs>
</svg>
