<?xml version="1.0" encoding="utf-8" standalone="no"?>
<!DOCTYPE svg PUBLIC "-//W3C//DTD SVG 1.1//EN"
  "http://www.w3.org/Graphics/SVG/1.1/DTD/svg11.dtd">
<svg xmlns:xlink="http://www.w3.org/1999/xlink" width="675.923125pt" height="365.54875pt" viewBox="0 0 675.923125 365.54875" xmlns="http://www.w3.org/2000/svg" version="1.1">
 <metadata>
  <rdf:RDF xmlns:dc="http://purl.org/dc/elements/1.1/" xmlns:cc="http://creativecommons.org/ns#" xmlns:rdf="http://www.w3.org/1999/02/22-rdf-syntax-ns#">
   <cc:Work>
    <dc:type rdf:resource="http://purl.org/dc/dcmitype/StillImage"/>
    <dc:date>2024-02-01T07:23:47.633695</dc:date>
    <dc:format>image/svg+xml</dc:format>
    <dc:creator>
     <cc:Agent>
      <dc:title>Matplotlib v3.7.2, https://matplotlib.org/</dc:title>
     </cc:Agent>
    </dc:creator>
   </cc:Work>
  </rdf:RDF>
 </metadata>
 <defs>
  <style type="text/css">*{stroke-linejoin: round; stroke-linecap: butt}</style>
 </defs>
 <g id="figure_1">
  <g id="patch_1">
   <path d="M 0 365.54875 
L 675.923125 365.54875 
L 675.923125 -0 
L 0 -0 
z
" style="fill: #ffffff"/>
  </g>
  <g id="axes_1">
   <g id="patch_2">
    <path d="M 92.490625 308.63625 
L 650.490625 308.63625 
L 650.490625 31.43625 
L 92.490625 31.43625 
z
" style="fill: #ffffff"/>
   </g>
   <g id="matplotlib.axis_1">
    <g id="xtick_1">
     <g id="line2d_1">
      <defs>
       <path id="maec6dc1329" d="M 0 0 
L 0 3.5 
" style="stroke: #000000; stroke-width: 0.8"/>
      </defs>
      <g>
       <use xlink:href="#maec6dc1329" x="117.854261" y="308.63625" style="stroke: #000000; stroke-width: 0.8"/>
      </g>
     </g>
     <g id="text_1">
      <!-- 0 -->
      <g transform="translate(111.491761 330.833125) scale(0.2 -0.2)">
       <defs>
        <path id="DejaVuSans-30" d="M 2034 4250 
Q 1547 4250 1301 3770 
Q 1056 3291 1056 2328 
Q 1056 1369 1301 889 
Q 1547 409 2034 409 
Q 2525 409 2770 889 
Q 3016 1369 3016 2328 
Q 3016 3291 2770 3770 
Q 2525 4250 2034 4250 
z
M 2034 4750 
Q 2819 4750 3233 4129 
Q 3647 3509 3647 2328 
Q 3647 1150 3233 529 
Q 2819 -91 2034 -91 
Q 1250 -91 836 529 
Q 422 1150 422 2328 
Q 422 3509 836 4129 
Q 1250 4750 2034 4750 
z
" transform="scale(0.015625)"/>
       </defs>
       <use xlink:href="#DejaVuSans-30"/>
      </g>
     </g>
    </g>
    <g id="xtick_2">
     <g id="line2d_2">
      <g>
       <use xlink:href="#maec6dc1329" x="241.579317" y="308.63625" style="stroke: #000000; stroke-width: 0.8"/>
      </g>
     </g>
     <g id="text_2">
      <!-- 500 -->
      <g transform="translate(222.491817 330.833125) scale(0.2 -0.2)">
       <defs>
        <path id="DejaVuSans-35" d="M 691 4666 
L 3169 4666 
L 3169 4134 
L 1269 4134 
L 1269 2991 
Q 1406 3038 1543 3061 
Q 1681 3084 1819 3084 
Q 2600 3084 3056 2656 
Q 3513 2228 3513 1497 
Q 3513 744 3044 326 
Q 2575 -91 1722 -91 
Q 1428 -91 1123 -41 
Q 819 9 494 109 
L 494 744 
Q 775 591 1075 516 
Q 1375 441 1709 441 
Q 2250 441 2565 725 
Q 2881 1009 2881 1497 
Q 2881 1984 2565 2268 
Q 2250 2553 1709 2553 
Q 1456 2553 1204 2497 
Q 953 2441 691 2322 
L 691 4666 
z
" transform="scale(0.015625)"/>
       </defs>
       <use xlink:href="#DejaVuSans-35"/>
       <use xlink:href="#DejaVuSans-30" x="63.623047"/>
       <use xlink:href="#DejaVuSans-30" x="127.246094"/>
      </g>
     </g>
    </g>
    <g id="xtick_3">
     <g id="line2d_3">
      <g>
       <use xlink:href="#maec6dc1329" x="365.304372" y="308.63625" style="stroke: #000000; stroke-width: 0.8"/>
      </g>
     </g>
     <g id="text_3">
      <!-- 1000 -->
      <g transform="translate(339.854372 330.833125) scale(0.2 -0.2)">
       <defs>
        <path id="DejaVuSans-31" d="M 794 531 
L 1825 531 
L 1825 4091 
L 703 3866 
L 703 4441 
L 1819 4666 
L 2450 4666 
L 2450 531 
L 3481 531 
L 3481 0 
L 794 0 
L 794 531 
z
" transform="scale(0.015625)"/>
       </defs>
       <use xlink:href="#DejaVuSans-31"/>
       <use xlink:href="#DejaVuSans-30" x="63.623047"/>
       <use xlink:href="#DejaVuSans-30" x="127.246094"/>
       <use xlink:href="#DejaVuSans-30" x="190.869141"/>
      </g>
     </g>
    </g>
    <g id="xtick_4">
     <g id="line2d_4">
      <g>
       <use xlink:href="#maec6dc1329" x="489.029428" y="308.63625" style="stroke: #000000; stroke-width: 0.8"/>
      </g>
     </g>
     <g id="text_4">
      <!-- 1500 -->
      <g transform="translate(463.579428 330.833125) scale(0.2 -0.2)">
       <use xlink:href="#DejaVuSans-31"/>
       <use xlink:href="#DejaVuSans-35" x="63.623047"/>
       <use xlink:href="#DejaVuSans-30" x="127.246094"/>
       <use xlink:href="#DejaVuSans-30" x="190.869141"/>
      </g>
     </g>
    </g>
    <g id="xtick_5">
     <g id="line2d_5">
      <g>
       <use xlink:href="#maec6dc1329" x="612.754483" y="308.63625" style="stroke: #000000; stroke-width: 0.8"/>
      </g>
     </g>
     <g id="text_5">
      <!-- 2000 -->
      <g transform="translate(587.304483 330.833125) scale(0.2 -0.2)">
       <defs>
        <path id="DejaVuSans-32" d="M 1228 531 
L 3431 531 
L 3431 0 
L 469 0 
L 469 531 
Q 828 903 1448 1529 
Q 2069 2156 2228 2338 
Q 2531 2678 2651 2914 
Q 2772 3150 2772 3378 
Q 2772 3750 2511 3984 
Q 2250 4219 1831 4219 
Q 1534 4219 1204 4116 
Q 875 4013 500 3803 
L 500 4441 
Q 881 4594 1212 4672 
Q 1544 4750 1819 4750 
Q 2544 4750 2975 4387 
Q 3406 4025 3406 3419 
Q 3406 3131 3298 2873 
Q 3191 2616 2906 2266 
Q 2828 2175 2409 1742 
Q 1991 1309 1228 531 
z
" transform="scale(0.015625)"/>
       </defs>
       <use xlink:href="#DejaVuSans-32"/>
       <use xlink:href="#DejaVuSans-30" x="63.623047"/>
       <use xlink:href="#DejaVuSans-30" x="127.246094"/>
       <use xlink:href="#DejaVuSans-30" x="190.869141"/>
      </g>
     </g>
    </g>
    <g id="text_6">
     <!-- iterations -->
     <g transform="translate(324.035938 354.189375) scale(0.2 -0.2)">
      <defs>
       <path id="DejaVuSans-69" d="M 603 3500 
L 1178 3500 
L 1178 0 
L 603 0 
L 603 3500 
z
M 603 4863 
L 1178 4863 
L 1178 4134 
L 603 4134 
L 603 4863 
z
" transform="scale(0.015625)"/>
       <path id="DejaVuSans-74" d="M 1172 4494 
L 1172 3500 
L 2356 3500 
L 2356 3053 
L 1172 3053 
L 1172 1153 
Q 1172 725 1289 603 
Q 1406 481 1766 481 
L 2356 481 
L 2356 0 
L 1766 0 
Q 1100 0 847 248 
Q 594 497 594 1153 
L 594 3053 
L 172 3053 
L 172 3500 
L 594 3500 
L 594 4494 
L 1172 4494 
z
" transform="scale(0.015625)"/>
       <path id="DejaVuSans-65" d="M 3597 1894 
L 3597 1613 
L 953 1613 
Q 991 1019 1311 708 
Q 1631 397 2203 397 
Q 2534 397 2845 478 
Q 3156 559 3463 722 
L 3463 178 
Q 3153 47 2828 -22 
Q 2503 -91 2169 -91 
Q 1331 -91 842 396 
Q 353 884 353 1716 
Q 353 2575 817 3079 
Q 1281 3584 2069 3584 
Q 2775 3584 3186 3129 
Q 3597 2675 3597 1894 
z
M 3022 2063 
Q 3016 2534 2758 2815 
Q 2500 3097 2075 3097 
Q 1594 3097 1305 2825 
Q 1016 2553 972 2059 
L 3022 2063 
z
" transform="scale(0.015625)"/>
       <path id="DejaVuSans-72" d="M 2631 2963 
Q 2534 3019 2420 3045 
Q 2306 3072 2169 3072 
Q 1681 3072 1420 2755 
Q 1159 2438 1159 1844 
L 1159 0 
L 581 0 
L 581 3500 
L 1159 3500 
L 1159 2956 
Q 1341 3275 1631 3429 
Q 1922 3584 2338 3584 
Q 2397 3584 2469 3576 
Q 2541 3569 2628 3553 
L 2631 2963 
z
" transform="scale(0.015625)"/>
       <path id="DejaVuSans-61" d="M 2194 1759 
Q 1497 1759 1228 1600 
Q 959 1441 959 1056 
Q 959 750 1161 570 
Q 1363 391 1709 391 
Q 2188 391 2477 730 
Q 2766 1069 2766 1631 
L 2766 1759 
L 2194 1759 
z
M 3341 1997 
L 3341 0 
L 2766 0 
L 2766 531 
Q 2569 213 2275 61 
Q 1981 -91 1556 -91 
Q 1019 -91 701 211 
Q 384 513 384 1019 
Q 384 1609 779 1909 
Q 1175 2209 1959 2209 
L 2766 2209 
L 2766 2266 
Q 2766 2663 2505 2880 
Q 2244 3097 1772 3097 
Q 1472 3097 1187 3025 
Q 903 2953 641 2809 
L 641 3341 
Q 956 3463 1253 3523 
Q 1550 3584 1831 3584 
Q 2591 3584 2966 3190 
Q 3341 2797 3341 1997 
z
" transform="scale(0.015625)"/>
       <path id="DejaVuSans-6f" d="M 1959 3097 
Q 1497 3097 1228 2736 
Q 959 2375 959 1747 
Q 959 1119 1226 758 
Q 1494 397 1959 397 
Q 2419 397 2687 759 
Q 2956 1122 2956 1747 
Q 2956 2369 2687 2733 
Q 2419 3097 1959 3097 
z
M 1959 3584 
Q 2709 3584 3137 3096 
Q 3566 2609 3566 1747 
Q 3566 888 3137 398 
Q 2709 -91 1959 -91 
Q 1206 -91 779 398 
Q 353 888 353 1747 
Q 353 2609 779 3096 
Q 1206 3584 1959 3584 
z
" transform="scale(0.015625)"/>
       <path id="DejaVuSans-6e" d="M 3513 2113 
L 3513 0 
L 2938 0 
L 2938 2094 
Q 2938 2591 2744 2837 
Q 2550 3084 2163 3084 
Q 1697 3084 1428 2787 
Q 1159 2491 1159 1978 
L 1159 0 
L 581 0 
L 581 3500 
L 1159 3500 
L 1159 2956 
Q 1366 3272 1645 3428 
Q 1925 3584 2291 3584 
Q 2894 3584 3203 3211 
Q 3513 2838 3513 2113 
z
" transform="scale(0.015625)"/>
       <path id="DejaVuSans-73" d="M 2834 3397 
L 2834 2853 
Q 2591 2978 2328 3040 
Q 2066 3103 1784 3103 
Q 1356 3103 1142 2972 
Q 928 2841 928 2578 
Q 928 2378 1081 2264 
Q 1234 2150 1697 2047 
L 1894 2003 
Q 2506 1872 2764 1633 
Q 3022 1394 3022 966 
Q 3022 478 2636 193 
Q 2250 -91 1575 -91 
Q 1294 -91 989 -36 
Q 684 19 347 128 
L 347 722 
Q 666 556 975 473 
Q 1284 391 1588 391 
Q 1994 391 2212 530 
Q 2431 669 2431 922 
Q 2431 1156 2273 1281 
Q 2116 1406 1581 1522 
L 1381 1569 
Q 847 1681 609 1914 
Q 372 2147 372 2553 
Q 372 3047 722 3315 
Q 1072 3584 1716 3584 
Q 2034 3584 2315 3537 
Q 2597 3491 2834 3397 
z
" transform="scale(0.015625)"/>
      </defs>
      <use xlink:href="#DejaVuSans-69"/>
      <use xlink:href="#DejaVuSans-74" x="27.783203"/>
      <use xlink:href="#DejaVuSans-65" x="66.992188"/>
      <use xlink:href="#DejaVuSans-72" x="128.515625"/>
      <use xlink:href="#DejaVuSans-61" x="169.628906"/>
      <use xlink:href="#DejaVuSans-74" x="230.908203"/>
      <use xlink:href="#DejaVuSans-69" x="270.117188"/>
      <use xlink:href="#DejaVuSans-6f" x="297.900391"/>
      <use xlink:href="#DejaVuSans-6e" x="359.082031"/>
      <use xlink:href="#DejaVuSans-73" x="422.460938"/>
     </g>
    </g>
   </g>
   <g id="matplotlib.axis_2">
    <g id="ytick_1">
     <g id="line2d_6">
      <defs>
       <path id="mc73f1ca77b" d="M 0 0 
L -3.5 0 
" style="stroke: #000000; stroke-width: 0.8"/>
      </defs>
      <g>
       <use xlink:href="#mc73f1ca77b" x="92.490625" y="233.89928" style="stroke: #000000; stroke-width: 0.8"/>
      </g>
     </g>
     <g id="text_7">
      <!-- −200 -->
      <g transform="translate(30.55625 241.497718) scale(0.2 -0.2)">
       <defs>
        <path id="DejaVuSans-2212" d="M 678 2272 
L 4684 2272 
L 4684 1741 
L 678 1741 
L 678 2272 
z
" transform="scale(0.015625)"/>
       </defs>
       <use xlink:href="#DejaVuSans-2212"/>
       <use xlink:href="#DejaVuSans-32" x="83.789062"/>
       <use xlink:href="#DejaVuSans-30" x="147.412109"/>
       <use xlink:href="#DejaVuSans-30" x="211.035156"/>
      </g>
     </g>
    </g>
    <g id="ytick_2">
     <g id="line2d_7">
      <g>
       <use xlink:href="#mc73f1ca77b" x="92.490625" y="156.400898" style="stroke: #000000; stroke-width: 0.8"/>
      </g>
     </g>
     <g id="text_8">
      <!-- 0 -->
      <g transform="translate(72.765625 163.999335) scale(0.2 -0.2)">
       <use xlink:href="#DejaVuSans-30"/>
      </g>
     </g>
    </g>
    <g id="ytick_3">
     <g id="line2d_8">
      <g>
       <use xlink:href="#mc73f1ca77b" x="92.490625" y="78.902515" style="stroke: #000000; stroke-width: 0.8"/>
      </g>
     </g>
     <g id="text_9">
      <!-- 200 -->
      <g transform="translate(47.315625 86.500953) scale(0.2 -0.2)">
       <use xlink:href="#DejaVuSans-32"/>
       <use xlink:href="#DejaVuSans-30" x="63.623047"/>
       <use xlink:href="#DejaVuSans-30" x="127.246094"/>
      </g>
     </g>
    </g>
    <g id="text_10">
     <!-- Loss -->
     <g transform="translate(22.396875 191.970625) rotate(-90) scale(0.2 -0.2)">
      <defs>
       <path id="DejaVuSans-4c" d="M 628 4666 
L 1259 4666 
L 1259 531 
L 3531 531 
L 3531 0 
L 628 0 
L 628 4666 
z
" transform="scale(0.015625)"/>
      </defs>
      <use xlink:href="#DejaVuSans-4c"/>
      <use xlink:href="#DejaVuSans-6f" x="53.962891"/>
      <use xlink:href="#DejaVuSans-73" x="115.144531"/>
      <use xlink:href="#DejaVuSans-73" x="167.244141"/>
     </g>
    </g>
   </g>
   <g id="line2d_9">
    <path d="M 117.854261 136.140105 
L 118.349162 97.658702 
L 118.844062 132.66545 
L 119.091512 131.50223 
L 119.338962 109.074995 
L 119.586412 70.056914 
L 119.833862 54.902085 
L 120.081312 57.926545 
L 120.328762 54.948943 
L 120.576213 45.679812 
L 120.823663 44.03625 
L 121.071113 46.554003 
L 121.318563 46.4645 
L 121.566013 61.12117 
L 122.060913 47.371821 
L 122.308363 48.94424 
L 122.803264 67.071176 
L 123.050714 67.466942 
L 123.298164 72.47849 
L 123.545614 69.342872 
L 124.287964 94.790736 
L 124.535414 91.969084 
L 124.782864 93.229692 
L 125.030315 92.7299 
L 125.277765 100.783666 
L 125.525215 98.377732 
L 125.772665 103.555557 
L 126.020115 102.926982 
L 126.267565 106.843558 
L 126.515015 103.849343 
L 126.762465 107.982067 
L 127.009915 104.046284 
L 127.257366 105.454914 
L 127.504816 106.159588 
L 127.752266 109.279874 
L 127.999716 108.658111 
L 128.247166 113.348977 
L 128.494616 112.802562 
L 128.742066 112.886724 
L 129.484417 117.192842 
L 129.979317 121.529548 
L 130.226767 117.759482 
L 130.474217 121.031451 
L 130.721667 117.874613 
L 130.969117 123.929319 
L 131.464017 125.098673 
L 131.711468 122.790211 
L 131.958918 126.681087 
L 132.206368 124.35353 
L 132.453818 124.598737 
L 132.701268 127.579039 
L 133.196168 125.949512 
L 133.443618 128.740085 
L 134.185969 124.500406 
L 134.433419 128.099512 
L 134.680869 127.64869 
L 134.928319 124.880741 
L 135.175769 126.072068 
L 135.423219 125.0338 
L 135.918119 128.291852 
L 136.16557 127.820071 
L 136.41302 128.384262 
L 136.66047 127.725314 
L 136.90792 130.487021 
L 137.15537 124.764492 
L 137.65027 131.03801 
L 137.89772 129.370054 
L 138.14517 128.507903 
L 138.392621 129.992741 
L 138.640071 127.025059 
L 138.887521 128.463137 
L 139.134971 132.280888 
L 139.382421 126.205151 
L 139.629871 127.786885 
L 139.877321 128.36622 
L 140.124771 130.870562 
L 140.372221 129.202161 
L 140.619672 130.454508 
L 140.867122 129.324651 
L 141.114572 131.486962 
L 141.362022 126.280908 
L 141.609472 129.134088 
L 141.856922 127.71524 
L 142.104372 127.933912 
L 142.351822 130.968429 
L 142.599272 131.451701 
L 142.846723 128.47423 
L 143.094173 131.651787 
L 143.341623 132.517027 
L 143.589073 132.328264 
L 143.836523 131.551236 
L 144.083973 127.719658 
L 144.331423 129.542392 
L 144.578873 129.013006 
L 144.826323 133.998128 
L 145.073774 132.652585 
L 145.321224 134.846951 
L 145.568674 134.467355 
L 145.816124 136.200018 
L 146.063574 135.546954 
L 146.311024 132.983733 
L 146.558474 132.881623 
L 146.805924 135.628088 
L 147.053374 134.707247 
L 147.300825 132.554932 
L 147.548275 134.507047 
L 147.795725 133.025755 
L 148.043175 139.875843 
L 148.290625 134.53711 
L 148.538075 138.060798 
L 149.032975 134.071004 
L 149.527876 138.894034 
L 149.775326 134.346656 
L 150.022776 133.628541 
L 150.270226 139.905496 
L 150.517676 139.351825 
L 150.765126 141.054145 
L 151.012576 140.309269 
L 151.260026 138.998649 
L 151.754927 139.653628 
L 152.002377 140.618431 
L 152.249827 137.012362 
L 152.497277 139.155162 
L 153.239627 136.511355 
L 153.487077 140.473876 
L 153.734527 136.474656 
L 153.981978 137.701627 
L 154.229428 137.834537 
L 154.476878 137.004483 
L 154.724328 137.949913 
L 154.971778 137.668135 
L 155.219228 141.592374 
L 155.466678 138.273643 
L 155.714128 140.58307 
L 156.209029 137.903665 
L 156.456479 139.007768 
L 156.703929 138.482864 
L 156.951379 137.668388 
L 157.198829 137.640647 
L 157.446279 137.021624 
L 157.693729 136.006231 
L 157.941179 137.474276 
L 158.188629 137.944546 
L 158.43608 135.579974 
L 158.68353 135.523171 
L 158.93098 137.942839 
L 159.17843 138.274288 
L 159.42588 140.577836 
L 159.92078 137.334687 
L 160.16823 137.22565 
L 160.910581 140.935747 
L 161.158031 138.706081 
L 161.405481 138.031621 
L 161.652931 141.258663 
L 161.900381 139.099333 
L 162.147831 141.369672 
L 162.395281 137.77225 
L 162.642731 137.347757 
L 162.890182 140.418194 
L 163.137632 139.414461 
L 163.385082 138.878593 
L 163.879982 142.18506 
L 164.127432 141.024633 
L 164.374882 141.071503 
L 164.622332 143.735901 
L 164.869782 143.388929 
L 165.364683 142.271918 
L 165.612133 144.383795 
L 165.859583 145.16363 
L 166.107033 144.086809 
L 166.354483 143.883762 
L 166.601933 144.458331 
L 166.849383 144.067005 
L 167.096833 144.523268 
L 167.344284 144.575892 
L 167.591734 144.057221 
L 167.839184 145.96549 
L 168.334084 142.712513 
L 168.581534 143.651971 
L 169.076434 146.492216 
L 169.323884 144.780635 
L 169.571335 144.081637 
L 169.818785 144.851548 
L 170.066235 146.190345 
L 170.313685 144.657309 
L 170.561135 145.82573 
L 171.056035 143.079696 
L 171.550935 144.961194 
L 171.798386 143.808949 
L 172.045836 143.997531 
L 172.293286 146.215528 
L 172.540736 144.776813 
L 172.788186 144.718914 
L 173.035636 147.279174 
L 173.283086 145.481445 
L 173.530536 144.759004 
L 173.777986 144.778459 
L 174.272887 147.19603 
L 174.520337 145.77178 
L 174.767787 146.071329 
L 175.015237 146.691365 
L 175.262687 146.571939 
L 175.510137 146.757617 
L 175.757587 146.584022 
L 176.005037 145.073014 
L 176.252488 146.164435 
L 176.499938 146.019355 
L 176.747388 143.897742 
L 176.994838 143.447988 
L 177.242288 143.242848 
L 177.489738 144.033963 
L 177.737188 145.291173 
L 177.984638 144.827294 
L 178.232088 145.635636 
L 178.479539 145.168239 
L 178.974439 145.380979 
L 179.221889 145.052218 
L 179.469339 146.595932 
L 179.716789 146.597405 
L 179.964239 146.024231 
L 180.211689 146.12066 
L 180.459139 145.644051 
L 180.70659 145.637259 
L 180.95404 145.064343 
L 181.20149 146.527707 
L 181.44894 146.054691 
L 181.69639 146.378687 
L 182.19129 147.743065 
L 182.68619 145.699305 
L 182.933641 145.614191 
L 183.428541 146.032133 
L 183.675991 145.842341 
L 183.923441 145.851376 
L 184.170891 147.242077 
L 184.665791 145.384992 
L 184.913241 144.331136 
L 185.160692 145.156912 
L 185.408142 145.113214 
L 185.655592 146.046768 
L 185.903042 146.109475 
L 186.150492 146.358465 
L 186.397942 147.967362 
L 186.645392 145.834115 
L 186.892842 145.471832 
L 187.140292 145.909016 
L 187.387743 145.176336 
L 187.635193 145.312189 
L 187.882643 144.622425 
L 188.130093 146.161472 
L 188.377543 145.988952 
L 188.624993 145.609696 
L 188.872443 146.340256 
L 189.119893 145.255584 
L 189.367343 146.137073 
L 189.614794 145.934825 
L 190.109694 144.794355 
L 190.357144 145.822868 
L 190.604594 146.259016 
L 190.852044 145.545879 
L 191.099494 145.704226 
L 191.346944 143.833665 
L 191.594394 143.39312 
L 192.089295 144.764031 
L 192.336745 141.471619 
L 192.584195 143.258355 
L 192.831645 142.1225 
L 193.079095 142.770739 
L 193.573995 140.613826 
L 193.821445 140.124447 
L 194.068896 139.984476 
L 194.316346 140.198564 
L 194.563796 139.866343 
L 194.811246 140.192398 
L 195.058696 139.209319 
L 195.306146 137.699922 
L 195.553596 138.211979 
L 195.801046 137.472748 
L 196.048496 135.659297 
L 196.295947 136.513748 
L 196.543397 136.846126 
L 196.790847 136.708991 
L 197.285747 136.991124 
L 197.533197 137.518005 
L 197.780647 137.284661 
L 198.275547 135.462121 
L 198.522998 135.642996 
L 198.770448 135.398218 
L 199.017898 133.458761 
L 199.512798 134.309588 
L 200.007698 133.713049 
L 200.255148 133.073662 
L 200.502598 133.282183 
L 200.750049 134.055024 
L 200.997499 133.006076 
L 201.244949 133.292302 
L 201.492399 134.015364 
L 201.739849 133.691593 
L 201.987299 133.654318 
L 202.234749 134.463807 
L 202.482199 134.107787 
L 202.729649 134.925327 
L 202.9771 134.93708 
L 203.22455 134.225088 
L 203.472 135.658831 
L 203.71945 135.124509 
L 203.9669 134.892409 
L 204.21435 136.184751 
L 204.4618 135.805301 
L 204.70925 136.403224 
L 204.9567 136.162705 
L 205.20415 137.044153 
L 205.451601 136.978352 
L 205.699051 137.257002 
L 206.441401 138.599311 
L 206.688851 138.164326 
L 206.936301 138.148874 
L 207.183751 138.875902 
L 207.431201 139.009496 
L 207.678652 138.996887 
L 207.926102 139.359301 
L 208.173552 140.196006 
L 208.668452 139.446259 
L 208.915902 139.624629 
L 209.163352 139.175819 
L 209.410802 140.360832 
L 209.658252 140.507721 
L 209.905703 140.277501 
L 210.153153 140.344361 
L 210.400603 139.688527 
L 210.648053 139.764017 
L 210.895503 140.47098 
L 211.142953 140.823755 
L 211.390403 140.00849 
L 211.637853 140.867939 
L 212.132754 140.809753 
L 212.380204 141.309758 
L 212.875104 140.6429 
L 213.122554 141.04968 
L 213.370004 141.153351 
L 213.617454 140.423128 
L 213.864904 140.617213 
L 214.112354 140.614077 
L 214.359805 141.862909 
L 214.854705 141.368711 
L 215.102155 141.72775 
L 215.349605 141.138194 
L 215.844505 141.680263 
L 216.091955 141.923022 
L 216.339405 141.878898 
L 216.586856 141.446056 
L 216.834306 142.348734 
L 217.081756 142.177576 
L 217.329206 142.347438 
L 217.576656 142.125741 
L 218.071556 142.400078 
L 218.319006 142.475297 
L 218.813907 143.255098 
L 219.308807 142.624791 
L 219.556257 142.940462 
L 219.803707 142.544034 
L 220.051157 142.637308 
L 220.298607 143.49133 
L 220.546057 143.441073 
L 220.793507 142.498801 
L 222.030758 144.34474 
L 222.278208 144.041871 
L 222.525658 143.350409 
L 222.773108 143.766515 
L 223.020558 143.467922 
L 223.515459 144.488671 
L 223.762909 144.668617 
L 224.010359 144.67175 
L 224.257809 145.670451 
L 224.505259 145.760743 
L 224.752709 146.258358 
L 225.247609 147.847549 
L 225.49506 148.41856 
L 225.74251 148.68886 
L 225.98996 148.046676 
L 226.23741 148.448831 
L 226.48486 147.839463 
L 226.73231 148.048703 
L 226.97976 148.580042 
L 227.22721 148.47331 
L 227.47466 148.869761 
L 227.722111 148.968766 
L 228.464461 148.022524 
L 228.711911 148.76923 
L 228.959361 148.372024 
L 229.206811 148.493244 
L 229.454261 148.478269 
L 229.701711 148.748364 
L 230.444062 148.377159 
L 230.691512 148.893702 
L 231.186412 149.112677 
L 231.433862 148.8705 
L 231.681312 149.059157 
L 231.928762 148.448253 
L 232.176213 148.639738 
L 232.423663 148.443988 
L 232.671113 148.854225 
L 232.918563 148.831863 
L 233.166013 149.493462 
L 233.413463 149.32119 
L 233.660913 148.955499 
L 234.155813 149.348102 
L 234.403264 149.343716 
L 234.650714 149.914771 
L 234.898164 149.513644 
L 235.145614 149.769645 
L 235.640514 149.281482 
L 235.887964 149.528568 
L 236.135414 150.340114 
L 236.382864 149.765789 
L 236.630315 149.810813 
L 236.877765 150.424258 
L 237.125215 149.525793 
L 237.372665 149.916599 
L 237.867565 149.784206 
L 238.115015 149.297795 
L 238.609915 149.799474 
L 238.857366 150.375535 
L 239.104816 150.047529 
L 239.352266 150.061927 
L 239.599716 150.378216 
L 239.847166 149.992059 
L 240.094616 149.896424 
L 240.589516 150.541045 
L 240.836966 150.338546 
L 241.084417 150.392109 
L 241.331867 150.798539 
L 241.579317 150.783767 
L 241.826767 150.475998 
L 242.074217 150.561397 
L 242.321667 150.76721 
L 242.569117 150.404802 
L 242.816567 150.591651 
L 243.064017 150.610028 
L 243.311468 150.43635 
L 243.558918 150.758872 
L 244.053818 150.626565 
L 244.301268 150.923386 
L 244.548718 151.43372 
L 244.796168 150.559952 
L 246.033419 151.686438 
L 246.280869 151.245356 
L 246.528319 151.340401 
L 246.775769 151.189276 
L 247.270669 151.459706 
L 247.518119 151.102673 
L 247.76557 151.462666 
L 248.01302 150.909301 
L 248.26047 151.435733 
L 248.50792 151.265245 
L 248.75537 151.238926 
L 249.00282 151.036157 
L 249.25027 151.155105 
L 249.49772 151.430886 
L 249.74517 151.182892 
L 250.240071 151.762198 
L 250.734971 151.339679 
L 250.982421 152.078093 
L 251.229871 151.541049 
L 251.477321 152.217249 
L 251.724771 151.720446 
L 252.219672 152.453899 
L 252.467122 152.47466 
L 252.714572 152.178387 
L 252.962022 152.557004 
L 253.209472 151.581745 
L 253.704372 152.08738 
L 253.951822 151.927755 
L 254.199272 151.923196 
L 254.694173 152.252462 
L 254.941623 151.786521 
L 255.189073 151.652429 
L 255.436523 152.266472 
L 255.683973 151.899119 
L 255.931423 151.93214 
L 256.178873 151.812318 
L 256.426323 151.389304 
L 256.673774 151.815481 
L 256.921224 151.796132 
L 257.416124 152.379641 
L 257.663574 152.494751 
L 257.911024 152.357874 
L 258.158474 151.779789 
L 258.405924 151.870045 
L 258.653374 151.81871 
L 259.148275 152.744623 
L 259.395725 152.027593 
L 259.890625 152.579643 
L 260.138075 151.995365 
L 260.385525 152.91781 
L 260.632975 152.035264 
L 260.880425 152.038265 
L 261.127876 152.223482 
L 261.375326 152.150448 
L 261.870226 152.494614 
L 262.117676 153.040017 
L 262.612576 152.224673 
L 262.860026 152.337672 
L 263.107476 152.756649 
L 263.354927 152.018976 
L 263.602377 152.465712 
L 263.849827 152.591943 
L 264.097277 152.545378 
L 264.592177 153.036084 
L 264.839627 153.082897 
L 265.087077 153.593069 
L 265.334527 153.244655 
L 265.581978 153.559309 
L 265.829428 153.291544 
L 266.076878 153.297665 
L 266.819228 153.69826 
L 267.066678 153.675887 
L 267.314128 154.340532 
L 267.561578 153.994852 
L 267.809029 154.429286 
L 268.056479 154.116396 
L 268.303929 154.144122 
L 268.798829 154.426372 
L 269.046279 154.494814 
L 269.293729 154.264573 
L 269.541179 154.362213 
L 269.788629 154.155068 
L 270.28353 154.004674 
L 270.53098 153.935798 
L 271.02588 154.768638 
L 271.27333 154.579417 
L 271.52078 155.456125 
L 272.510581 155.400505 
L 272.758031 155.46561 
L 273.005481 155.063341 
L 273.252931 155.62921 
L 273.500381 155.636871 
L 273.995281 155.925934 
L 274.242731 155.242112 
L 274.490182 155.242005 
L 274.737632 155.431229 
L 274.985082 155.342126 
L 275.232532 155.675356 
L 275.479982 155.317863 
L 275.727432 155.312605 
L 275.974882 155.587132 
L 276.222332 155.539639 
L 276.469782 155.212933 
L 276.964683 155.795154 
L 277.954483 155.96858 
L 278.201933 155.538262 
L 278.696833 155.561329 
L 278.944284 155.127905 
L 279.191734 155.427119 
L 279.439184 154.904094 
L 279.686634 155.655727 
L 279.934084 155.442788 
L 280.181534 155.553067 
L 280.428984 155.221002 
L 280.676434 155.211599 
L 280.923884 155.376185 
L 281.171335 155.325448 
L 281.666235 156.000229 
L 281.913685 155.642691 
L 282.161135 155.71339 
L 282.408585 155.55804 
L 282.656035 156.06054 
L 283.645836 155.963129 
L 283.893286 155.754411 
L 284.140736 155.876285 
L 284.635636 156.499908 
L 284.883086 156.33346 
L 285.377986 156.593919 
L 285.625437 156.8335 
L 285.872887 156.668702 
L 286.120337 156.794918 
L 286.367787 156.476798 
L 286.862687 156.337321 
L 287.110137 156.607915 
L 288.099938 156.199787 
L 288.347388 156.409511 
L 288.594838 156.418915 
L 289.089738 156.920316 
L 289.832088 156.500873 
L 290.079539 156.703038 
L 290.326989 156.705211 
L 290.574439 157.113282 
L 290.821889 156.699662 
L 291.316789 157.104351 
L 291.564239 157.024251 
L 291.811689 156.489976 
L 292.059139 156.827424 
L 292.55404 156.908301 
L 292.80149 156.981501 
L 293.04894 156.459182 
L 293.29639 156.947286 
L 293.54384 157.035849 
L 293.79129 156.907641 
L 294.03874 156.962777 
L 294.28619 156.661193 
L 294.533641 156.696036 
L 295.028541 156.491423 
L 295.275991 156.746532 
L 295.523441 156.511599 
L 295.770891 157.237169 
L 296.018341 156.881704 
L 296.265791 157.134891 
L 296.513241 156.859105 
L 297.008142 157.091594 
L 297.750492 157.060549 
L 297.997942 156.659538 
L 298.245392 156.484064 
L 298.492842 157.089212 
L 298.740292 156.919912 
L 298.987743 157.220388 
L 299.730093 156.938472 
L 299.977543 156.524485 
L 300.224993 156.773895 
L 300.719893 156.595714 
L 300.967343 156.120883 
L 301.214794 156.279941 
L 301.462244 156.10918 
L 301.709694 156.802168 
L 301.957144 156.50623 
L 302.452044 156.570882 
L 302.946944 156.085815 
L 303.194394 156.558871 
L 303.689295 156.428751 
L 303.936745 156.743505 
L 304.184195 156.563803 
L 304.431645 156.865861 
L 304.679095 156.778252 
L 304.926545 156.87216 
L 305.668896 156.796657 
L 305.916346 156.349296 
L 306.163796 156.889186 
L 307.153596 156.72056 
L 307.401046 156.948533 
L 307.648496 156.867149 
L 308.143397 156.924917 
L 308.390847 157.307309 
L 308.638297 157.138188 
L 309.380647 157.020573 
L 309.628097 157.242116 
L 309.875547 156.89345 
L 310.122998 156.954108 
L 310.370448 156.868894 
L 310.617898 156.91237 
L 310.865348 157.117368 
L 311.112798 157.564812 
L 311.360248 157.002444 
L 312.102598 157.304028 
L 312.350049 157.064388 
L 312.597499 157.098418 
L 313.092399 157.402296 
L 313.339849 157.157317 
L 313.834749 157.305286 
L 314.082199 157.041411 
L 314.82455 157.02764 
L 315.072 157.231152 
L 315.5669 157.13538 
L 315.81435 156.949878 
L 316.0618 157.166234 
L 316.30925 156.814488 
L 316.80415 156.947148 
L 317.546501 157.092111 
L 317.793951 157.169659 
L 318.041401 156.863023 
L 318.536301 156.897315 
L 318.783751 157.19827 
L 319.031201 157.229496 
L 319.773552 156.590116 
L 320.268452 157.064287 
L 320.515902 156.939517 
L 321.010802 157.183636 
L 321.258252 156.978618 
L 322.000603 157.215952 
L 322.248053 156.659101 
L 322.495503 157.073064 
L 323.237853 156.957331 
L 323.485303 157.355872 
L 323.980204 156.861785 
L 324.227654 157.05704 
L 324.475104 156.635702 
L 324.722554 156.752532 
L 324.970004 156.679933 
L 325.217454 156.857354 
L 325.464904 156.844268 
L 325.712354 157.049871 
L 326.207255 157.113893 
L 326.702155 156.859888 
L 326.949605 157.006028 
L 327.444505 156.903558 
L 327.691955 157.157826 
L 327.939405 157.005948 
L 328.186856 156.707447 
L 328.434306 156.7611 
L 328.681756 156.965757 
L 329.176656 156.879134 
L 329.424106 157.015963 
L 329.671556 156.933193 
L 329.919006 156.5966 
L 330.166456 156.938272 
L 330.661357 156.619101 
L 330.908807 156.905403 
L 331.651157 156.840711 
L 331.898607 156.98429 
L 332.146057 156.784391 
L 332.393507 156.950945 
L 332.640958 156.845454 
L 332.888408 156.944772 
L 333.135858 156.738596 
L 333.383308 156.985249 
L 333.630758 156.798298 
L 334.620558 157.228802 
L 334.868009 157.085884 
L 335.362909 157.358049 
L 335.857809 156.767647 
L 336.105259 157.276589 
L 336.352709 156.969462 
L 336.600159 157.357298 
L 336.847609 157.315657 
L 337.09506 156.992552 
L 337.34251 157.255557 
L 337.58996 157.107822 
L 337.83741 157.194068 
L 338.08486 156.964599 
L 338.57976 156.881277 
L 338.82721 156.857108 
L 339.07466 157.127138 
L 339.322111 156.814408 
L 340.064461 157.181291 
L 340.311911 157.127673 
L 340.559361 156.920315 
L 341.301711 157.081161 
L 341.549162 156.862729 
L 342.044062 157.202825 
L 342.291512 156.860582 
L 342.538962 157.04992 
L 343.033862 157.097812 
L 343.281312 156.884484 
L 343.776213 157.04506 
L 344.023663 157.240259 
L 344.271113 157.081584 
L 344.518563 157.06549 
L 344.766013 156.804342 
L 345.260913 156.900257 
L 345.508363 156.620796 
L 345.755813 156.584278 
L 346.003264 156.28696 
L 346.498164 157.002038 
L 346.745614 156.78861 
L 346.993064 157.04417 
L 347.487964 156.965016 
L 347.735414 156.958457 
L 347.982864 157.162572 
L 348.230315 157.050881 
L 348.477765 156.783993 
L 348.725215 157.317478 
L 348.972665 157.24046 
L 349.220115 157.293773 
L 350.209915 156.930029 
L 350.457366 157.151737 
L 350.704816 156.774057 
L 350.952266 157.071522 
L 351.199716 157.188691 
L 351.447166 157.071641 
L 351.942066 157.157254 
L 352.436966 157.214291 
L 352.684417 157.15898 
L 352.931867 157.360904 
L 353.426767 156.997702 
L 353.674217 157.194465 
L 353.921667 156.958928 
L 354.169117 157.207504 
L 354.664017 157.123454 
L 354.911468 157.379931 
L 355.406368 156.781357 
L 355.653818 156.843251 
L 355.901268 157.025809 
L 356.148718 156.672248 
L 356.396168 156.997018 
L 356.643618 156.767273 
L 357.138519 156.891964 
L 357.385969 156.525233 
L 357.633419 157.069887 
L 357.880869 156.711689 
L 358.375769 156.629385 
L 358.623219 156.921364 
L 358.870669 156.741025 
L 359.118119 156.931866 
L 359.36557 156.869437 
L 359.61302 156.95297 
L 359.86047 157.325228 
L 360.10792 157.298327 
L 360.35537 156.965534 
L 360.85027 157.174368 
L 361.09772 157.216075 
L 361.34517 156.922971 
L 361.592621 157.106337 
L 362.087521 157.022951 
L 362.334971 157.332163 
L 362.582421 157.168667 
L 363.077321 157.453814 
L 363.324771 156.994763 
L 363.572221 156.99318 
L 363.819672 157.190726 
L 364.067122 156.968555 
L 364.314572 157.005915 
L 364.562022 157.276595 
L 364.809472 157.026292 
L 365.056922 157.241281 
L 365.304372 156.931915 
L 365.799272 156.664016 
L 366.046723 156.84604 
L 366.541623 156.780014 
L 366.789073 156.673134 
L 367.036523 156.824006 
L 367.283973 157.168924 
L 367.531423 157.190466 
L 368.521224 156.75704 
L 369.263574 157.552285 
L 370.005924 157.099451 
L 370.253374 157.305882 
L 370.995725 156.954412 
L 371.243175 157.08658 
L 371.738075 156.716346 
L 372.480425 157.097061 
L 372.727876 156.752772 
L 372.975326 156.809305 
L 373.222776 156.726122 
L 373.717676 156.853729 
L 374.212576 156.558932 
L 374.707476 156.821823 
L 374.954927 156.637478 
L 375.202377 157.228641 
L 375.449827 156.790699 
L 375.697277 156.873658 
L 375.944727 156.761293 
L 376.439627 157.043346 
L 376.687077 156.626639 
L 376.934527 156.745497 
L 377.181978 156.735423 
L 377.429428 156.589803 
L 377.676878 156.967555 
L 377.924328 156.991546 
L 378.666678 156.619805 
L 378.914128 157.033005 
L 379.161578 156.256251 
L 379.409029 156.560651 
L 379.903929 156.581748 
L 380.398829 156.40131 
L 380.646279 156.379756 
L 381.388629 156.669645 
L 381.88353 156.541291 
L 382.13098 156.336147 
L 382.37843 156.331775 
L 382.62588 156.531117 
L 383.12078 156.429771 
L 383.36823 156.726495 
L 383.61568 156.686724 
L 383.863131 156.912091 
L 384.358031 156.765474 
L 384.605481 157.007131 
L 384.852931 156.657293 
L 385.347831 156.765566 
L 385.595281 156.676975 
L 385.842731 156.774615 
L 386.090182 156.676206 
L 386.337632 156.897556 
L 386.585082 156.580199 
L 386.832532 157.002127 
L 387.327432 156.38125 
L 388.317233 156.42652 
L 388.812133 156.166888 
L 389.059583 156.676661 
L 389.307033 156.607214 
L 389.554483 156.813065 
L 390.049383 156.676634 
L 390.544284 156.45115 
L 390.791734 156.524964 
L 391.039184 156.857067 
L 391.534084 156.844767 
L 392.028984 157.035811 
L 392.276434 156.956528 
L 392.523884 156.700263 
L 393.018785 156.982464 
L 393.266235 156.829137 
L 393.761135 156.851996 
L 394.008585 156.630005 
L 394.503485 156.813495 
L 394.750935 156.530259 
L 395.245836 156.526709 
L 395.493286 156.791914 
L 395.740736 156.70857 
L 395.988186 156.482309 
L 396.235636 156.748484 
L 396.483086 156.667525 
L 397.720337 156.873798 
L 397.967787 156.665598 
L 398.215237 156.969997 
L 398.462687 156.868234 
L 398.710137 156.394809 
L 399.205037 156.935192 
L 399.452488 156.648261 
L 399.699938 156.779428 
L 399.947388 156.637957 
L 400.194838 156.767656 
L 400.442288 157.115061 
L 400.937188 156.494281 
L 401.432088 156.707596 
L 401.679539 157.044696 
L 401.926989 156.747812 
L 402.421889 156.681122 
L 402.669339 156.917042 
L 403.164239 156.556288 
L 403.411689 156.971636 
L 403.659139 156.724337 
L 403.90659 156.872701 
L 404.15404 156.814154 
L 404.40149 156.950991 
L 404.64894 156.807323 
L 404.89639 157.214683 
L 405.14384 157.158081 
L 405.39129 156.902606 
L 405.63874 157.197934 
L 405.88619 157.274166 
L 406.133641 157.006934 
L 406.381091 156.933382 
L 407.123441 157.299545 
L 407.618341 157.317807 
L 407.865791 157.395789 
L 408.113241 157.229788 
L 409.845392 157.153888 
L 410.092842 157.218635 
L 410.340292 157.4042 
L 411.082643 157.319612 
L 411.330093 157.066366 
L 411.577543 157.030827 
L 411.824993 157.208899 
L 412.567343 157.305866 
L 412.814794 157.147753 
L 413.062244 157.478512 
L 413.309694 157.431349 
L 413.557144 157.151738 
L 413.804594 157.064506 
L 414.052044 157.277349 
L 415.041845 157.153039 
L 415.289295 157.424577 
L 415.536745 157.185398 
L 415.784195 157.377459 
L 416.031645 157.38607 
L 416.279095 157.16414 
L 416.773995 157.543701 
L 417.021445 157.473206 
L 417.268896 157.186025 
L 417.516346 157.440872 
L 417.763796 157.398754 
L 418.011246 157.230969 
L 418.506146 157.136352 
L 418.753596 157.396812 
L 419.001046 157.236476 
L 419.248496 157.410381 
L 419.743397 157.339079 
L 419.990847 157.452236 
L 420.485747 157.458858 
L 420.733197 157.609286 
L 420.980647 157.397912 
L 421.228097 157.363696 
L 421.475547 157.095948 
L 421.722998 157.451459 
L 421.970448 157.228895 
L 422.217898 157.165011 
L 422.465348 157.243152 
L 422.712798 157.461782 
L 422.960248 157.176534 
L 423.207698 157.386941 
L 423.455148 157.297579 
L 423.702598 157.720571 
L 423.950049 157.405566 
L 424.197499 157.685948 
L 424.444949 157.731368 
L 424.939849 157.459591 
L 425.187299 157.829444 
L 425.434749 157.401019 
L 425.682199 157.383646 
L 425.929649 157.688003 
L 426.42455 157.478963 
L 426.672 157.611723 
L 427.1669 157.463038 
L 427.41435 157.196849 
L 427.6618 157.450248 
L 427.90925 157.273119 
L 428.1567 157.486691 
L 428.40415 157.248067 
L 428.651601 157.398509 
L 428.899051 157.413549 
L 429.146501 157.544717 
L 430.383751 157.351241 
L 430.631201 157.047504 
L 431.126102 157.474026 
L 432.115902 157.608809 
L 432.363352 157.616021 
L 432.610802 157.762144 
L 432.858252 157.577958 
L 433.105703 157.748481 
L 433.353153 157.674787 
L 433.600603 157.367928 
L 434.095503 157.731152 
L 434.342953 157.675192 
L 434.590403 157.388196 
L 434.837853 157.723952 
L 435.085303 157.425709 
L 435.580204 157.276192 
L 435.827654 157.243702 
L 436.075104 157.371686 
L 436.322554 157.311179 
L 436.570004 157.480472 
L 436.817454 157.333347 
L 437.312354 157.435204 
L 437.559805 157.213202 
L 437.807255 157.42264 
L 438.302155 157.516533 
L 438.549605 157.397726 
L 438.797055 157.471742 
L 439.044505 157.400704 
L 439.291955 157.452568 
L 439.539405 157.118808 
L 439.786856 157.121419 
L 440.034306 157.320368 
L 440.281756 157.065685 
L 440.529206 157.480127 
L 440.776656 157.580221 
L 441.024106 157.941956 
L 441.271556 157.99473 
L 441.519006 157.392726 
L 441.766456 157.62587 
L 443.003707 157.479241 
L 443.498607 157.186928 
L 443.746057 157.031504 
L 444.240958 157.135997 
L 445.230758 157.586261 
L 445.973108 157.040234 
L 446.220558 157.45804 
L 446.715459 157.401577 
L 446.962909 157.215256 
L 447.210359 157.63279 
L 447.457809 157.174889 
L 447.705259 157.436009 
L 447.952709 157.246168 
L 448.200159 157.449039 
L 448.447609 157.233074 
L 448.94251 157.574156 
L 449.18996 157.242756 
L 449.43741 157.222277 
L 449.68486 156.961946 
L 450.17976 157.24139 
L 450.42721 157.275007 
L 450.67466 157.133943 
L 450.922111 157.306623 
L 451.169561 157.068769 
L 451.417011 157.364376 
L 451.664461 157.305828 
L 451.911911 157.579262 
L 452.159361 157.534252 
L 452.406811 157.73048 
L 452.901711 157.160485 
L 453.149162 157.14379 
L 453.396612 157.241685 
L 453.891512 157.713176 
L 454.633862 157.052433 
L 455.128762 157.711293 
L 455.623663 157.360933 
L 455.871113 157.731732 
L 456.860913 157.986674 
L 457.108363 158.224134 
L 457.603264 157.863367 
L 457.850714 158.056374 
L 458.345614 157.971196 
L 458.840514 158.122377 
L 459.087964 157.706486 
L 459.335414 157.802726 
L 459.830315 158.359444 
L 460.077765 158.151754 
L 460.325215 158.189393 
L 461.067565 158.025179 
L 461.315015 158.160489 
L 461.809915 158.128554 
L 462.057366 158.185402 
L 462.304816 158.114062 
L 462.552266 157.810648 
L 462.799716 158.288977 
L 463.047166 158.082816 
L 463.294616 158.157528 
L 463.542066 157.972389 
L 463.789516 157.958637 
L 464.036966 158.168791 
L 464.531867 157.869957 
L 464.779317 158.08321 
L 465.026767 157.995369 
L 465.274217 158.150523 
L 466.016567 158.080294 
L 466.264017 158.080599 
L 466.758918 158.300445 
L 467.006368 158.260873 
L 467.253818 158.038262 
L 467.996168 158.301004 
L 468.243618 158.438642 
L 468.491068 158.227964 
L 468.738519 158.285599 
L 468.985969 158.108866 
L 469.233419 158.128389 
L 469.480869 158.001208 
L 469.975769 158.045974 
L 470.223219 157.829037 
L 470.470669 158.125693 
L 470.718119 157.699357 
L 470.96557 158.021588 
L 471.46047 157.689195 
L 471.70792 157.96439 
L 472.20282 157.633171 
L 472.69772 158.226138 
L 473.192621 157.712027 
L 473.440071 157.840517 
L 473.687521 157.611358 
L 473.934971 157.731589 
L 474.429871 157.496991 
L 474.677321 157.610955 
L 474.924771 157.444894 
L 475.419672 157.842906 
L 475.914572 157.479309 
L 476.656922 158.03149 
L 476.904372 157.767348 
L 477.151822 157.92344 
L 477.399272 157.74766 
L 477.646723 157.963075 
L 477.894173 157.504708 
L 478.389073 157.71524 
L 479.131423 157.801124 
L 479.378873 157.780383 
L 479.626323 157.602048 
L 479.873774 157.969906 
L 480.121224 157.851506 
L 480.368674 157.860081 
L 480.616124 157.466349 
L 480.863574 157.806401 
L 481.111024 157.659981 
L 481.358474 157.886537 
L 481.605924 157.502009 
L 481.853374 157.475304 
L 482.595725 157.863981 
L 482.843175 157.855771 
L 483.090625 158.138948 
L 483.585525 157.685258 
L 484.327876 157.587453 
L 484.822776 157.948054 
L 485.070226 157.712707 
L 485.317676 157.689305 
L 485.812576 157.503519 
L 486.307476 158.070544 
L 486.554927 157.555642 
L 486.802377 157.911242 
L 487.049827 157.97747 
L 487.297277 157.760102 
L 487.544727 158.034998 
L 488.039627 157.823807 
L 488.287077 157.977156 
L 488.781978 157.938486 
L 489.029428 157.961408 
L 489.276878 157.682361 
L 489.524328 157.794958 
L 489.771778 157.49921 
L 490.266678 157.68894 
L 490.514128 157.433559 
L 491.009029 157.582751 
L 491.256479 157.539845 
L 491.503929 157.73281 
L 491.751379 157.638841 
L 492.246279 157.86119 
L 492.741179 157.594704 
L 492.988629 157.925916 
L 493.23608 157.625117 
L 493.48353 157.549178 
L 493.73098 157.789651 
L 493.97843 157.553611 
L 494.22588 157.740942 
L 494.47333 157.589741 
L 494.96823 157.622405 
L 495.21568 157.383812 
L 495.463131 157.552347 
L 495.710581 157.424867 
L 495.958031 157.756217 
L 496.205481 157.801961 
L 496.452931 157.553469 
L 496.700381 157.770641 
L 496.947831 157.768272 
L 497.442731 157.471275 
L 497.937632 157.767883 
L 498.185082 157.593783 
L 498.432532 157.896669 
L 498.927432 157.93131 
L 499.174882 157.81331 
L 500.164683 157.87469 
L 500.659583 157.67426 
L 500.907033 157.725691 
L 501.401933 157.610073 
L 501.649383 157.662954 
L 502.144284 157.336612 
L 502.391734 157.613198 
L 502.639184 157.5346 
L 502.886634 157.154997 
L 503.381534 157.233737 
L 503.628984 157.909556 
L 504.123884 157.532703 
L 504.371335 157.546559 
L 504.618785 157.672078 
L 504.866235 157.20263 
L 505.113685 157.018569 
L 505.361135 157.442466 
L 505.608585 157.596777 
L 505.856035 157.23918 
L 506.350935 157.65768 
L 506.598386 157.396838 
L 506.845836 157.623418 
L 507.340736 157.484274 
L 507.588186 157.721884 
L 507.835636 157.508966 
L 508.083086 157.764389 
L 508.577986 157.505975 
L 509.072887 157.743156 
L 509.567787 157.840981 
L 509.815237 157.580055 
L 510.062687 157.55157 
L 510.310137 157.778027 
L 510.557587 157.449123 
L 510.805037 157.869658 
L 511.052488 157.59729 
L 511.547388 157.605017 
L 511.794838 157.764661 
L 512.042288 157.659595 
L 512.289738 157.87691 
L 512.537188 157.705622 
L 512.784638 157.773473 
L 513.032088 157.546814 
L 513.279539 157.531149 
L 513.526989 157.683392 
L 513.774439 157.407992 
L 514.269339 157.724069 
L 514.516789 157.344477 
L 514.764239 157.743472 
L 515.011689 157.526342 
L 515.50659 157.611014 
L 515.75404 157.617163 
L 516.00149 157.87734 
L 516.24894 157.532254 
L 516.49639 157.708911 
L 516.74384 157.641141 
L 516.99129 157.759307 
L 517.733641 157.616095 
L 517.981091 157.820933 
L 518.228541 157.804791 
L 518.475991 157.975464 
L 518.723441 157.72731 
L 518.970891 157.747482 
L 519.218341 157.525282 
L 519.713241 157.900287 
L 520.455592 157.698475 
L 520.703042 157.867135 
L 520.950492 157.634738 
L 521.445392 157.772174 
L 521.940292 157.64916 
L 522.435193 157.114389 
L 522.930093 157.798533 
L 523.177543 157.554442 
L 523.919893 157.756239 
L 524.167343 157.740759 
L 524.414794 157.521421 
L 524.909694 157.698147 
L 525.157144 157.868272 
L 525.404594 157.797966 
L 525.652044 157.86282 
L 525.899494 157.734487 
L 526.146944 157.453691 
L 526.394394 157.795092 
L 526.889295 157.77029 
L 527.136745 157.440921 
L 527.879095 157.90009 
L 528.126545 157.738334 
L 529.116346 157.710931 
L 529.363796 157.631378 
L 529.611246 157.847901 
L 529.858696 157.651281 
L 530.106146 157.786088 
L 530.353596 157.737756 
L 530.601046 157.321947 
L 531.095947 157.604255 
L 531.590847 157.459478 
L 532.828097 157.746468 
L 533.075547 157.082673 
L 533.570448 157.003651 
L 533.817898 157.359292 
L 534.065348 157.376604 
L 534.312798 157.80967 
L 534.560248 157.550614 
L 535.055148 158.035146 
L 535.302598 158.042473 
L 535.797499 157.72142 
L 536.044949 157.815258 
L 536.292399 158.078517 
L 536.539849 157.682671 
L 536.787299 157.515631 
L 537.034749 157.881075 
L 537.282199 157.714549 
L 537.529649 157.329939 
L 537.7771 157.49114 
L 538.02455 157.386692 
L 538.272 157.635487 
L 538.51945 157.485264 
L 538.7669 157.716257 
L 539.01435 157.353224 
L 539.2618 157.607024 
L 539.7567 157.51627 
L 540.00415 157.641356 
L 540.251601 157.483552 
L 540.499051 157.649739 
L 540.746501 157.545873 
L 540.993951 157.794796 
L 541.241401 157.608627 
L 541.488851 157.796775 
L 541.736301 157.50909 
L 542.231201 157.371444 
L 542.478652 156.963666 
L 542.973552 157.607738 
L 543.221002 157.261248 
L 543.468452 157.46966 
L 543.715902 157.370851 
L 543.963352 157.527226 
L 544.210802 157.975446 
L 544.458252 157.811063 
L 544.705703 157.814517 
L 545.448053 157.461869 
L 546.190403 157.612096 
L 546.437853 157.425711 
L 546.685303 157.692565 
L 546.932754 157.653135 
L 547.180204 157.299848 
L 547.675104 157.687697 
L 548.170004 157.602856 
L 548.664904 157.787088 
L 548.912354 157.653886 
L 549.407255 157.574719 
L 550.149605 157.1544 
L 550.397055 157.48553 
L 550.644505 157.41846 
L 550.891955 157.53363 
L 551.139405 157.482296 
L 551.386856 157.249348 
L 551.634306 157.497397 
L 552.129206 157.666267 
L 552.624106 157.323235 
L 552.871556 157.478626 
L 553.119006 157.315742 
L 553.613907 157.342157 
L 553.861357 157.744141 
L 554.108807 157.379933 
L 554.356257 157.768976 
L 554.603707 157.82353 
L 554.851157 157.48486 
L 555.098607 157.556979 
L 555.346057 157.786835 
L 555.593507 157.683917 
L 555.840958 157.742106 
L 556.088408 157.250578 
L 556.335858 157.882644 
L 556.583308 157.352554 
L 556.830758 157.618952 
L 557.078208 157.552203 
L 557.325658 157.810314 
L 557.820558 157.747254 
L 558.068009 157.96629 
L 558.315459 157.637494 
L 558.562909 157.840465 
L 559.552709 158.053088 
L 559.800159 157.860334 
L 560.047609 157.878711 
L 560.54251 157.627546 
L 560.78996 157.741776 
L 561.03741 157.494956 
L 561.28486 157.62489 
L 561.53231 157.627944 
L 561.77976 157.82993 
L 562.02721 157.702649 
L 562.27466 157.818193 
L 563.511911 157.664092 
L 563.759361 157.467348 
L 564.254261 158.117657 
L 564.501711 157.961348 
L 564.749162 157.656475 
L 564.996612 157.575927 
L 565.244062 157.987246 
L 565.986412 157.464802 
L 566.233862 157.873153 
L 566.481312 158.004703 
L 566.728762 158.006909 
L 567.223663 157.676152 
L 567.471113 157.946209 
L 567.718563 157.697413 
L 567.966013 157.635562 
L 568.213463 157.842202 
L 568.460913 157.718379 
L 568.708363 157.94242 
L 568.955813 157.891256 
L 569.203264 158.138062 
L 569.450714 158.162837 
L 569.945614 157.83943 
L 570.193064 157.975943 
L 570.440514 157.715908 
L 570.687964 157.746637 
L 571.182864 157.268295 
L 571.677765 158.005007 
L 571.925215 157.78413 
L 572.420115 157.948923 
L 572.667565 157.854459 
L 573.162465 158.023611 
L 573.409915 157.865586 
L 573.657366 157.964979 
L 573.904816 157.806228 
L 574.152266 157.859752 
L 574.894616 157.621087 
L 575.142066 157.800328 
L 575.389516 157.647773 
L 575.636966 157.968243 
L 577.121667 157.812471 
L 577.369117 157.706434 
L 578.111468 158.007571 
L 578.358918 157.731495 
L 578.606368 157.755374 
L 578.853818 157.618735 
L 579.101268 157.897625 
L 579.348718 157.579873 
L 579.596168 157.869409 
L 579.843618 157.912186 
L 580.585969 157.495576 
L 580.833419 157.760244 
L 581.328319 157.75722 
L 581.575769 157.884517 
L 581.823219 157.845191 
L 582.070669 157.998307 
L 582.56557 158.039585 
L 582.81302 157.701593 
L 583.06047 157.985027 
L 583.30792 157.682186 
L 583.80282 158.031847 
L 584.54517 157.301636 
L 585.287521 157.924529 
L 585.534971 157.808914 
L 585.782421 158.181066 
L 586.029871 157.891204 
L 586.277321 158.090881 
L 586.524771 157.905414 
L 587.019672 157.813422 
L 587.267122 158.100396 
L 587.514572 157.708498 
L 587.762022 157.731194 
L 588.256922 157.971182 
L 588.504372 157.485402 
L 589.246723 157.452876 
L 589.989073 157.866566 
L 590.236523 157.818196 
L 590.483973 157.457842 
L 590.731423 157.538569 
L 591.226323 157.303033 
L 591.473774 157.629472 
L 592.463574 157.098107 
L 593.205924 157.52577 
L 593.700825 157.36202 
L 593.948275 157.694951 
L 594.195725 157.59469 
L 594.690625 157.739575 
L 595.185525 157.398172 
L 595.680425 157.383312 
L 595.927876 157.825218 
L 596.175326 157.890113 
L 596.422776 157.509417 
L 596.670226 157.656709 
L 596.917676 157.62301 
L 597.165126 157.25844 
L 597.412576 157.348386 
L 597.660026 157.253988 
L 597.907476 157.473929 
L 598.154927 157.294499 
L 598.649827 157.601268 
L 598.897277 157.335094 
L 599.144727 157.726869 
L 599.639627 157.175413 
L 599.887077 157.374778 
L 600.381978 157.265677 
L 600.629428 157.021888 
L 600.876878 157.266963 
L 601.124328 157.701256 
L 601.371778 157.323726 
L 601.619228 157.572427 
L 601.866678 156.764094 
L 602.114128 157.165787 
L 602.361578 156.967034 
L 602.609029 157.035405 
L 602.856479 157.232857 
L 603.103929 157.229732 
L 603.351379 157.016884 
L 603.598829 156.971511 
L 603.846279 157.087381 
L 604.093729 156.881643 
L 604.588629 157.066998 
L 604.83608 156.626595 
L 605.57843 157.105155 
L 605.82588 157.242444 
L 606.07333 157.162216 
L 606.56823 156.788324 
L 606.81568 157.092966 
L 607.063131 157.129838 
L 607.310581 157.322318 
L 607.558031 157.109488 
L 608.052931 157.314166 
L 608.547831 157.419959 
L 608.795281 156.996261 
L 609.537632 157.164302 
L 609.785082 157.130376 
L 610.279982 157.520673 
L 610.774882 156.928472 
L 611.022332 157.241128 
L 611.517233 156.798085 
L 611.764683 156.76293 
L 612.012133 156.910406 
L 612.259583 157.301633 
L 612.507033 156.811676 
L 613.001933 157.109143 
L 613.496833 156.85113 
L 613.744284 157.254147 
L 614.239184 157.196499 
L 614.486634 157.066338 
L 614.734084 157.104307 
L 615.228984 157.300675 
L 615.723884 157.399159 
L 615.971335 156.953346 
L 616.218785 157.37528 
L 616.466235 157.100905 
L 616.713685 157.180832 
L 616.961135 157.103108 
L 617.208585 157.183623 
L 617.703485 156.777718 
L 617.950935 157.106261 
L 618.198386 157.053773 
L 618.445836 156.860893 
L 618.940736 157.325687 
L 619.188186 157.167247 
L 619.435636 157.320311 
L 619.683086 157.255586 
L 619.930536 156.948806 
L 620.177986 157.145857 
L 620.425437 156.914486 
L 621.167787 157.251124 
L 621.415237 156.77909 
L 621.910137 157.129454 
L 622.157587 156.985803 
L 622.899938 157.334776 
L 623.147388 156.852326 
L 623.642288 157.290764 
L 623.889738 157.051629 
L 624.384638 157.30822 
L 624.879539 157.233229 
L 625.126989 157.404294 
L 625.126989 157.404294 
" clip-path="url(#p9318bb1280)" style="fill: none; stroke: #1f77b4; stroke-width: 1.5; stroke-linecap: square"/>
   </g>
   <g id="line2d_10">
    <path d="M 117.854261 254.938135 
L 118.101711 296.03625 
L 118.844062 187.276667 
L 119.091512 189.706367 
L 119.338962 199.947919 
L 119.586412 215.797721 
L 120.081312 198.696802 
L 120.576213 191.667623 
L 120.823663 187.178186 
L 121.318563 181.518091 
L 121.566013 172.836631 
L 121.813463 177.084168 
L 122.060913 176.002442 
L 122.308363 180.292152 
L 122.803264 176.06466 
L 123.050714 175.975991 
L 123.298164 174.803012 
L 123.545614 176.218112 
L 124.040514 172.621992 
L 124.535414 176.566693 
L 124.782864 173.999041 
L 125.030315 173.336092 
L 125.277765 171.437928 
L 125.525215 173.335198 
L 125.772665 172.257273 
L 126.020115 172.221129 
L 126.267565 171.317887 
L 126.515015 174.228225 
L 126.762465 174.212043 
L 127.009915 172.3616 
L 127.257366 174.62792 
L 127.752266 173.635043 
L 127.999716 172.33708 
L 128.247166 172.44086 
L 128.494616 171.153063 
L 128.742066 171.94099 
L 128.989516 171.945602 
L 129.236966 172.134762 
L 129.484417 171.688203 
L 129.731867 172.966357 
L 130.226767 171.552824 
L 130.721667 173.746198 
L 130.969117 171.707896 
L 131.464017 171.970886 
L 131.711468 170.970049 
L 132.206368 171.354679 
L 132.701268 173.167313 
L 133.196168 172.811369 
L 133.443618 171.409545 
L 133.938519 174.302414 
L 134.185969 172.613514 
L 134.433419 172.593085 
L 134.680869 171.222889 
L 134.928319 171.566571 
L 135.175769 172.197917 
L 135.670669 172.719121 
L 135.918119 172.528508 
L 136.16557 171.880279 
L 136.41302 171.604792 
L 136.66047 172.486302 
L 136.90792 172.588694 
L 137.15537 173.111377 
L 137.40282 171.824538 
L 137.65027 171.427537 
L 137.89772 172.134662 
L 138.14517 172.388463 
L 138.392621 172.99041 
L 138.887521 173.19691 
L 139.134971 172.615522 
L 139.382421 173.116519 
L 139.629871 174.450834 
L 140.124771 173.067075 
L 140.372221 173.406221 
L 140.619672 172.090916 
L 140.867122 173.59965 
L 141.114572 173.205076 
L 141.609472 175.600819 
L 141.856922 175.336454 
L 142.104372 175.347132 
L 142.351822 172.839012 
L 142.599272 174.86629 
L 142.846723 172.849161 
L 143.589073 175.266 
L 143.836523 173.253777 
L 144.083973 175.196099 
L 144.331423 176.064354 
L 144.578873 174.710514 
L 144.826323 174.716729 
L 145.073774 174.534071 
L 145.321224 173.717343 
L 145.568674 174.202458 
L 145.816124 175.168232 
L 146.063574 173.329799 
L 146.311024 173.707572 
L 146.558474 175.512934 
L 146.805924 175.412587 
L 147.300825 174.236053 
L 147.548275 174.495109 
L 147.795725 174.457927 
L 148.043175 173.598044 
L 148.290625 173.556798 
L 148.538075 174.226957 
L 148.785525 172.842117 
L 149.032975 174.033998 
L 149.280425 171.82722 
L 149.527876 173.466877 
L 149.775326 171.590813 
L 150.022776 173.837477 
L 150.270226 174.196744 
L 150.765126 172.477713 
L 151.012576 174.105548 
L 151.260026 170.266629 
L 151.507476 170.28206 
L 151.754927 170.728368 
L 152.002377 172.379129 
L 152.249827 172.545078 
L 152.497277 173.10725 
L 152.744727 172.727759 
L 153.239627 171.206784 
L 153.487077 172.85732 
L 153.734527 169.132799 
L 153.981978 167.331023 
L 154.229428 169.746138 
L 154.476878 170.89915 
L 154.724328 171.197267 
L 154.971778 171.290808 
L 155.219228 170.065879 
L 155.466678 170.701915 
L 155.714128 169.38946 
L 155.961578 169.828205 
L 156.209029 167.50936 
L 156.456479 169.867771 
L 156.703929 170.174255 
L 156.951379 169.140012 
L 157.198829 169.54945 
L 157.446279 171.783569 
L 157.693729 168.517541 
L 157.941179 168.987571 
L 158.188629 168.750076 
L 158.68353 171.450895 
L 158.93098 171.729048 
L 159.17843 171.055364 
L 159.42588 168.730249 
L 159.92078 171.317043 
L 160.16823 170.891562 
L 160.41568 168.43404 
L 161.158031 170.685864 
L 161.405481 167.229364 
L 161.652931 169.860336 
L 161.900381 170.315567 
L 162.147831 166.725035 
L 162.395281 168.727225 
L 162.642731 168.558664 
L 163.137632 169.35949 
L 163.385082 169.370134 
L 163.632532 169.961826 
L 163.879982 168.556259 
L 164.127432 170.718922 
L 164.374882 168.860858 
L 164.622332 170.40796 
L 164.869782 167.685218 
L 165.117233 168.199201 
L 165.612133 170.578275 
L 166.107033 169.629412 
L 166.601933 169.775695 
L 166.849383 170.735877 
L 167.096833 170.170243 
L 167.344284 170.533776 
L 167.591734 170.003519 
L 167.839184 170.422865 
L 168.086634 169.232927 
L 168.334084 168.608221 
L 168.581534 168.981682 
L 168.828984 169.866374 
L 169.076434 168.866532 
L 169.323884 170.029044 
L 169.571335 169.272354 
L 169.818785 170.493606 
L 170.066235 169.511944 
L 170.313685 169.666177 
L 170.561135 170.312552 
L 171.056035 170.441513 
L 171.303485 169.193993 
L 171.550935 170.700225 
L 171.798386 170.408394 
L 172.045836 170.390795 
L 172.293286 168.707613 
L 172.788186 168.555006 
L 173.035636 169.782664 
L 173.283086 169.375414 
L 173.530536 170.828587 
L 173.777986 169.300857 
L 174.025437 169.55813 
L 174.272887 168.334885 
L 174.520337 167.962417 
L 175.015237 169.137734 
L 175.262687 169.272664 
L 175.510137 168.226628 
L 175.757587 169.71668 
L 176.252488 167.264729 
L 176.499938 168.508186 
L 176.747388 168.568905 
L 176.994838 169.47394 
L 177.242288 167.353207 
L 177.737188 169.12375 
L 177.984638 167.556371 
L 178.232088 167.498236 
L 178.479539 168.372565 
L 178.726989 166.057744 
L 178.974439 168.455916 
L 179.221889 169.283844 
L 179.716789 168.434012 
L 180.211689 169.942208 
L 180.459139 171.442653 
L 180.70659 170.744467 
L 180.95404 169.635116 
L 181.20149 169.531875 
L 181.44894 169.192391 
L 181.69639 171.219978 
L 182.19129 168.883082 
L 182.68619 170.620432 
L 182.933641 170.428596 
L 183.181091 169.78904 
L 183.428541 171.271427 
L 183.923441 169.997031 
L 184.170891 169.500853 
L 184.913241 171.378662 
L 185.160692 169.724076 
L 185.408142 169.908073 
L 185.655592 170.59831 
L 185.903042 168.845588 
L 186.645392 170.477496 
L 186.892842 169.453045 
L 187.140292 170.539155 
L 187.387743 170.41447 
L 187.635193 170.541219 
L 187.882643 170.364321 
L 188.130093 169.476405 
L 188.624993 170.988097 
L 189.367343 170.250932 
L 189.614794 170.983601 
L 189.862244 171.334155 
L 190.109694 170.607384 
L 190.357144 171.594585 
L 190.604594 170.74801 
L 190.852044 171.102039 
L 191.099494 165.668203 
L 191.346944 157.260271 
L 191.594394 158.109435 
L 192.089295 158.065066 
L 192.336745 159.253093 
L 192.584195 157.933172 
L 193.079095 159.216684 
L 193.326545 158.952384 
L 193.573995 159.774269 
L 193.821445 159.497486 
L 194.068896 159.514434 
L 194.316346 159.810076 
L 194.563796 159.243292 
L 194.811246 159.990796 
L 195.058696 159.520692 
L 195.306146 160.025602 
L 195.801046 159.908322 
L 196.048496 160.32958 
L 196.295947 160.154614 
L 196.543397 159.818638 
L 196.790847 159.734872 
L 197.038297 159.897215 
L 197.285747 159.637781 
L 197.533197 160.053261 
L 197.780647 159.948993 
L 198.028097 160.615295 
L 198.275547 159.828245 
L 198.522998 159.865906 
L 198.770448 159.767255 
L 199.017898 160.544821 
L 199.265348 159.858306 
L 199.512798 160.628665 
L 199.760248 160.316323 
L 200.007698 160.832474 
L 200.255148 160.978815 
L 200.502598 159.986471 
L 200.750049 159.913214 
L 200.997499 160.487713 
L 201.492399 160.706538 
L 201.987299 160.026634 
L 202.234749 160.417298 
L 202.482199 160.304212 
L 202.729649 160.57298 
L 202.9771 160.25048 
L 203.22455 160.492115 
L 203.472 160.432943 
L 203.71945 160.643788 
L 203.9669 160.544122 
L 204.4618 160.211009 
L 204.70925 159.614008 
L 204.9567 160.273213 
L 205.451601 159.906737 
L 205.699051 160.47459 
L 205.946501 159.342558 
L 206.193951 159.780157 
L 206.441401 159.273843 
L 206.936301 159.899822 
L 207.183751 159.765321 
L 207.431201 159.897305 
L 207.678652 159.424204 
L 207.926102 159.791611 
L 208.173552 159.646656 
L 208.421002 159.29827 
L 208.668452 159.624578 
L 208.915902 159.152912 
L 209.163352 159.176085 
L 209.410802 159.064748 
L 209.658252 159.418686 
L 209.905703 159.253508 
L 210.400603 159.800961 
L 210.648053 159.610222 
L 210.895503 159.767646 
L 211.142953 159.258101 
L 211.390403 159.465059 
L 211.637853 159.516275 
L 212.132754 159.381971 
L 212.627654 159.476896 
L 212.875104 159.130857 
L 213.370004 159.603505 
L 213.617454 158.947125 
L 214.112354 159.399262 
L 214.359805 159.591428 
L 214.607255 159.406045 
L 214.854705 159.503871 
L 215.102155 158.876726 
L 215.349605 159.627697 
L 215.597055 159.631467 
L 215.844505 159.09707 
L 216.091955 159.191761 
L 216.339405 159.851682 
L 216.586856 159.400114 
L 216.834306 159.600971 
L 217.081756 159.400481 
L 217.329206 159.734207 
L 217.576656 159.494294 
L 218.071556 159.609264 
L 218.813907 159.752787 
L 219.061357 159.198844 
L 219.308807 159.908282 
L 219.556257 159.466196 
L 219.803707 159.699557 
L 220.051157 159.645381 
L 220.298607 160.019621 
L 220.546057 159.595929 
L 221.783308 159.606665 
L 222.030758 159.94807 
L 222.278208 159.719841 
L 222.525658 159.649272 
L 222.773108 162.848622 
L 223.020558 158.196261 
L 223.268009 159.594087 
L 223.515459 159.816541 
L 223.762909 159.585803 
L 224.010359 159.791473 
L 224.257809 159.62025 
L 224.505259 159.814353 
L 224.752709 159.681243 
L 225.000159 159.994622 
L 225.247609 159.768833 
L 225.49506 159.373059 
L 226.23741 159.860811 
L 226.48486 159.527404 
L 226.73231 159.690969 
L 226.97976 159.504895 
L 227.22721 159.835262 
L 227.47466 159.449771 
L 227.722111 159.812848 
L 227.969561 159.550961 
L 228.217011 159.758294 
L 228.711911 159.550144 
L 229.206811 159.683732 
L 229.454261 159.744483 
L 229.949162 159.492884 
L 230.196612 159.886462 
L 230.444062 159.425712 
L 231.186412 159.597965 
L 231.681312 159.507324 
L 231.928762 159.820618 
L 232.176213 159.745091 
L 232.671113 159.926608 
L 232.918563 159.71463 
L 233.166013 160.015056 
L 233.413463 159.538858 
L 234.155813 160.086147 
L 234.403264 159.750671 
L 234.898164 159.785548 
L 235.145614 159.464118 
L 235.393064 159.979955 
L 235.640514 160.123462 
L 235.887964 159.783599 
L 236.382864 159.852492 
L 236.630315 159.76547 
L 236.877765 159.849602 
L 237.125215 160.331629 
L 237.372665 159.971812 
L 237.620115 159.825108 
L 237.867565 159.831308 
L 238.115015 160.129987 
L 238.362465 160.084658 
L 238.609915 160.428929 
L 238.857366 159.703395 
L 239.847166 159.86017 
L 240.094616 160.021164 
L 240.342066 159.838181 
L 240.589516 160.044828 
L 241.084417 159.802884 
L 241.331867 160.08104 
L 241.579317 159.821094 
L 241.826767 159.862872 
L 242.074217 159.664279 
L 242.569117 159.991116 
L 242.816567 159.845669 
L 243.064017 159.564818 
L 243.311468 159.790168 
L 243.558918 159.71072 
L 243.806368 159.947068 
L 244.301268 159.906012 
L 244.548718 159.76006 
L 244.796168 159.991688 
L 245.291068 159.622636 
L 245.538519 159.63479 
L 245.785969 160.404745 
L 246.033419 159.638482 
L 246.280869 159.88917 
L 246.528319 159.97846 
L 246.775769 159.696818 
L 247.023219 160.236157 
L 247.270669 160.100391 
L 247.518119 159.790208 
L 247.76557 160.004479 
L 248.01302 159.662231 
L 248.26047 159.830562 
L 248.50792 160.244886 
L 248.75537 160.341749 
L 249.00282 159.687567 
L 249.25027 159.846473 
L 249.49772 159.855453 
L 249.74517 159.645816 
L 249.992621 159.946496 
L 250.240071 159.753758 
L 250.487521 160.061147 
L 251.477321 159.708261 
L 251.724771 159.433518 
L 252.219672 159.985576 
L 252.467122 159.963234 
L 252.714572 160.270411 
L 252.962022 159.757382 
L 253.704372 160.045401 
L 254.199272 159.52485 
L 254.694173 159.783737 
L 254.941623 160.015356 
L 255.189073 159.970082 
L 255.436523 159.466431 
L 255.931423 159.635054 
L 256.426323 159.885683 
L 256.673774 159.906866 
L 256.921224 159.816491 
L 257.168674 159.598509 
L 257.416124 159.9902 
L 257.663574 159.46575 
L 257.911024 159.562266 
L 258.158474 159.920128 
L 258.405924 159.713966 
L 258.653374 159.773368 
L 259.148275 159.604772 
L 259.643175 159.926805 
L 259.890625 159.652873 
L 260.632975 159.965805 
L 261.127876 159.548664 
L 261.622776 159.707622 
L 261.870226 159.896745 
L 262.117676 159.945302 
L 262.365126 159.644816 
L 262.860026 159.736002 
L 263.107476 159.510788 
L 263.602377 159.811761 
L 264.344727 159.450157 
L 264.592177 159.792891 
L 265.334527 159.629241 
L 265.581978 159.587784 
L 265.829428 159.78791 
L 266.076878 159.697469 
L 266.819228 159.848373 
L 267.066678 159.419198 
L 267.561578 159.72341 
L 268.056479 159.395262 
L 268.303929 159.633672 
L 268.551379 159.68716 
L 268.798829 159.473452 
L 269.046279 159.770971 
L 269.293729 159.680967 
L 269.541179 159.826732 
L 269.788629 159.701002 
L 270.53098 159.706407 
L 270.77843 158.956341 
L 271.02588 159.210162 
L 271.27333 159.150131 
L 272.01568 159.326243 
L 272.263131 159.274705 
L 272.510581 159.101313 
L 272.758031 159.082649 
L 273.005481 159.538282 
L 273.252931 159.18276 
L 273.500381 159.372376 
L 273.995281 159.415286 
L 274.242731 159.405631 
L 274.737632 159.099731 
L 274.985082 159.168823 
L 275.232532 159.613607 
L 275.479982 159.548557 
L 275.974882 159.197683 
L 277.212133 159.347542 
L 277.459583 159.231899 
L 277.954483 159.535565 
L 278.201933 159.212669 
L 278.449383 159.350605 
L 278.696833 159.010449 
L 278.944284 159.577426 
L 279.191734 159.346066 
L 279.686634 159.271282 
L 279.934084 159.582383 
L 280.181534 159.202346 
L 280.428984 159.384679 
L 280.676434 159.292158 
L 280.923884 159.356976 
L 281.171335 159.145893 
L 281.418785 159.101161 
L 281.666235 159.326422 
L 281.913685 159.329543 
L 282.161135 159.536034 
L 282.408585 159.403914 
L 283.150935 159.628812 
L 283.645836 159.206096 
L 283.893286 159.228473 
L 284.140736 159.556564 
L 284.635636 159.344892 
L 284.883086 159.371927 
L 285.130536 159.515831 
L 285.377986 159.412729 
L 285.872887 159.516309 
L 286.120337 159.291315 
L 286.615237 159.604475 
L 287.110137 159.478132 
L 287.357587 159.163141 
L 287.852488 159.43178 
L 288.099938 159.352497 
L 288.347388 159.655163 
L 288.594838 159.574333 
L 288.842288 159.285191 
L 289.089738 159.381459 
L 289.584638 159.324402 
L 289.832088 159.458589 
L 290.079539 159.088448 
L 291.069339 159.732886 
L 291.316789 159.821255 
L 291.811689 159.397001 
L 292.059139 159.350916 
L 292.80149 159.64263 
L 293.29639 159.167728 
L 293.79129 159.803997 
L 294.28619 159.420055 
L 294.533641 159.583008 
L 295.028541 159.307652 
L 295.275991 159.83824 
L 295.523441 159.50724 
L 295.770891 159.513531 
L 296.018341 159.750751 
L 297.008142 159.244557 
L 297.255592 159.54009 
L 297.503042 159.555156 
L 297.750492 159.443475 
L 297.997942 159.761959 
L 298.245392 159.439606 
L 298.987743 159.493523 
L 299.235193 159.5239 
L 299.482643 159.861896 
L 300.224993 159.462552 
L 301.462244 159.698796 
L 301.709694 159.472698 
L 301.957144 159.801056 
L 302.204594 159.782304 
L 302.452044 159.508473 
L 302.699494 159.517261 
L 302.946944 159.743753 
L 303.441845 159.692201 
L 304.184195 159.799585 
L 304.926545 159.69435 
L 305.173995 160.026117 
L 305.421445 159.533543 
L 305.668896 160.027189 
L 305.916346 159.729629 
L 306.163796 159.834519 
L 306.411246 159.761206 
L 306.658696 159.543284 
L 306.906146 159.661817 
L 307.153596 159.571411 
L 307.401046 159.959909 
L 307.648496 159.747461 
L 308.143397 159.724208 
L 308.390847 159.480784 
L 308.638297 159.593188 
L 308.885747 159.83157 
L 309.628097 159.585146 
L 309.875547 159.439153 
L 310.122998 159.819119 
L 310.617898 159.708435 
L 311.112798 159.662827 
L 311.360248 159.879633 
L 311.607698 159.687496 
L 311.855148 159.74539 
L 312.350049 159.553485 
L 312.597499 159.622187 
L 312.844949 159.415154 
L 313.092399 159.775125 
L 313.587299 159.7147 
L 313.834749 159.783111 
L 314.082199 159.538692 
L 314.5771 159.90848 
L 315.072 159.477932 
L 315.31945 159.900248 
L 315.5669 159.471127 
L 316.0618 159.601649 
L 316.30925 159.62955 
L 316.5567 159.790189 
L 316.80415 159.513038 
L 317.051601 159.569492 
L 317.793951 159.289072 
L 318.041401 159.471976 
L 318.536301 159.374036 
L 318.783751 159.788639 
L 319.031201 159.147229 
L 319.278652 159.307542 
L 319.526102 159.742232 
L 319.773552 159.67504 
L 320.021002 159.410793 
L 320.268452 159.50115 
L 320.515902 159.385024 
L 320.763352 159.700471 
L 321.258252 159.697331 
L 321.505703 159.766796 
L 321.753153 159.496689 
L 322.000603 159.914742 
L 322.248053 159.448661 
L 322.742953 159.526298 
L 323.980204 160.034643 
L 324.227654 159.930973 
L 324.475104 159.549915 
L 324.722554 160.006157 
L 324.970004 159.85438 
L 325.217454 159.455156 
L 325.464904 159.668607 
L 325.712354 159.711955 
L 325.959805 159.543182 
L 326.207255 159.570787 
L 326.454705 159.952514 
L 326.949605 159.740781 
L 327.197055 160.024092 
L 327.691955 159.661005 
L 327.939405 159.608166 
L 328.186856 159.982724 
L 328.434306 159.745533 
L 328.681756 159.720903 
L 328.929206 159.866206 
L 329.176656 159.519399 
L 329.671556 159.60149 
L 329.919006 159.139675 
L 330.166456 159.711909 
L 330.661357 159.328031 
L 331.156257 159.414399 
L 331.403707 159.823902 
L 331.651157 159.534425 
L 331.898607 159.454347 
L 332.146057 159.697668 
L 332.393507 159.526248 
L 332.888408 159.530927 
L 333.383308 159.779882 
L 333.878208 159.492664 
L 334.125658 159.429365 
L 334.620558 159.531068 
L 335.610359 159.521309 
L 335.857809 159.282817 
L 336.105259 159.404112 
L 336.352709 159.25863 
L 336.600159 159.297662 
L 336.847609 159.739175 
L 337.09506 159.663931 
L 337.34251 159.352342 
L 337.58996 159.532874 
L 337.83741 159.571296 
L 338.08486 159.304234 
L 338.33231 159.5288 
L 338.57976 159.408174 
L 339.322111 159.446086 
L 339.569561 159.429242 
L 339.817011 159.583049 
L 340.064461 159.256764 
L 340.559361 159.21655 
L 340.806811 159.500185 
L 341.301711 159.502946 
L 341.549162 159.324808 
L 342.044062 159.452139 
L 342.291512 159.556143 
L 342.538962 159.346862 
L 343.033862 159.795516 
L 343.281312 159.456845 
L 343.528762 159.656084 
L 344.518563 159.54322 
L 344.766013 159.108917 
L 345.013463 159.491197 
L 345.508363 159.747815 
L 345.755813 159.789845 
L 346.250714 159.338114 
L 346.993064 159.667715 
L 347.735414 159.439418 
L 347.982864 159.64441 
L 348.230315 159.326737 
L 348.477765 159.710196 
L 348.725215 159.687435 
L 348.972665 159.374196 
L 349.220115 159.734714 
L 349.467565 159.494122 
L 349.715015 159.644118 
L 349.962465 159.394707 
L 350.457366 159.702644 
L 350.704816 159.587716 
L 350.952266 159.624401 
L 351.447166 159.435365 
L 351.694616 159.643733 
L 351.942066 159.20884 
L 352.189516 159.38156 
L 352.684417 159.524548 
L 352.931867 159.656495 
L 353.674217 159.673257 
L 353.921667 159.341085 
L 354.169117 159.314489 
L 354.664017 159.63012 
L 355.158918 159.545637 
L 355.406368 159.724555 
L 355.901268 159.720195 
L 356.148718 159.732752 
L 356.643618 159.517618 
L 356.891068 159.65694 
L 357.633419 159.716498 
L 357.880869 159.819512 
L 358.375769 159.449787 
L 358.870669 159.579427 
L 359.118119 159.587575 
L 359.36557 159.313503 
L 359.61302 159.495652 
L 359.86047 159.536232 
L 360.10792 159.875302 
L 360.60282 159.505796 
L 360.85027 159.744403 
L 361.09772 159.816955 
L 361.592621 159.428054 
L 362.087521 159.509739 
L 362.582421 159.525389 
L 362.829871 159.380383 
L 363.077321 159.604921 
L 363.324771 159.494035 
L 363.819672 159.763635 
L 364.067122 159.45245 
L 364.809472 159.634865 
L 365.056922 159.449201 
L 365.304372 159.901162 
L 365.551822 159.591707 
L 365.799272 159.561419 
L 366.046723 159.824703 
L 366.294173 159.600347 
L 367.283973 159.889638 
L 367.531423 159.714231 
L 367.778873 159.8754 
L 368.273774 159.450661 
L 368.521224 159.637099 
L 368.768674 159.446477 
L 369.263574 159.584198 
L 369.511024 159.662242 
L 369.758474 159.520966 
L 370.253374 159.62848 
L 370.500825 159.505493 
L 370.748275 159.674214 
L 370.995725 159.519186 
L 371.243175 159.832837 
L 371.738075 159.429122 
L 371.985525 159.757839 
L 372.232975 159.898156 
L 372.480425 159.755126 
L 372.727876 160.112504 
L 372.975326 159.725632 
L 373.717676 159.669072 
L 373.965126 159.729294 
L 374.212576 160.040188 
L 374.460026 160.052854 
L 374.707476 159.896999 
L 374.954927 159.933446 
L 375.697277 159.734445 
L 375.944727 159.968722 
L 376.192177 159.836955 
L 376.439627 160.016696 
L 376.687077 159.606598 
L 377.429428 160.148566 
L 377.676878 159.980135 
L 378.171778 160.26983 
L 378.419228 159.920814 
L 378.666678 159.862846 
L 378.914128 160.12178 
L 379.409029 160.136281 
L 379.656479 160.057228 
L 379.903929 160.21907 
L 380.151379 160.005969 
L 380.398829 160.135018 
L 380.646279 159.881965 
L 380.893729 160.059702 
L 381.388629 159.860121 
L 381.63608 160.081947 
L 382.87333 160.133197 
L 383.12078 159.956105 
L 383.61568 159.806906 
L 383.863131 159.713799 
L 384.110581 160.083397 
L 384.358031 160.00115 
L 385.100381 160.12699 
L 385.347831 159.649867 
L 385.595281 159.990463 
L 386.337632 159.860726 
L 386.585082 160.18576 
L 387.079982 159.780786 
L 387.327432 159.838794 
L 387.574882 159.601415 
L 387.822332 159.949269 
L 388.069782 159.993924 
L 388.317233 159.920866 
L 388.564683 159.729038 
L 388.812133 160.00489 
L 389.059583 159.954406 
L 389.307033 159.6966 
L 389.801933 159.87414 
L 390.296833 159.824099 
L 390.544284 160.081569 
L 390.791734 159.5808 
L 391.039184 159.930805 
L 391.286634 159.626735 
L 391.534084 159.81654 
L 391.781534 159.718918 
L 392.028984 159.936655 
L 392.276434 159.711283 
L 392.523884 159.868317 
L 393.018785 159.679539 
L 393.266235 159.797399 
L 393.761135 159.741714 
L 394.008585 159.552871 
L 394.503485 159.933726 
L 394.750935 160.183809 
L 394.998386 160.00262 
L 395.245836 159.673592 
L 395.740736 159.940752 
L 395.988186 159.645777 
L 396.235636 159.875995 
L 396.730536 159.746021 
L 397.720337 159.865316 
L 398.710137 159.537773 
L 398.957587 159.819234 
L 399.205037 159.630136 
L 399.699938 159.759536 
L 399.947388 159.641354 
L 400.194838 159.859099 
L 400.442288 159.908891 
L 400.937188 159.794249 
L 401.184638 159.80096 
L 401.432088 159.677804 
L 401.679539 159.813629 
L 401.926989 159.488641 
L 402.916789 159.694787 
L 403.164239 160.147921 
L 403.411689 160.156468 
L 403.659139 159.693855 
L 404.15404 159.606839 
L 404.40149 159.686566 
L 404.64894 159.463515 
L 404.89639 159.655897 
L 405.63874 159.27166 
L 405.88619 159.659907 
L 406.133641 159.562841 
L 406.381091 159.846286 
L 406.628541 159.791676 
L 406.875991 159.62079 
L 407.123441 159.753217 
L 407.370891 159.36951 
L 407.865791 159.751166 
L 408.113241 159.425858 
L 408.608142 159.417738 
L 408.855592 159.798508 
L 409.103042 159.485476 
L 409.597942 159.69975 
L 409.845392 159.574771 
L 410.092842 159.590338 
L 410.340292 159.408781 
L 411.082643 159.610035 
L 411.330093 159.351786 
L 411.577543 159.763508 
L 411.824993 159.855228 
L 412.319893 159.666302 
L 412.567343 159.699491 
L 412.814794 159.490449 
L 413.062244 159.587118 
L 413.309694 159.905329 
L 413.557144 159.793016 
L 413.804594 159.435549 
L 414.052044 159.586284 
L 415.041845 159.41242 
L 415.536745 159.511803 
L 415.784195 159.421732 
L 416.279095 159.527112 
L 416.526545 159.738887 
L 416.773995 159.659056 
L 417.021445 159.380914 
L 417.763796 159.647705 
L 418.011246 159.485879 
L 418.506146 159.772861 
L 418.753596 159.288573 
L 419.248496 159.587216 
L 419.495947 159.726163 
L 419.743397 159.493014 
L 420.238297 159.752655 
L 420.485747 159.53422 
L 420.733197 159.76499 
L 420.980647 159.549533 
L 422.465348 159.373882 
L 422.712798 159.59583 
L 422.960248 159.520448 
L 423.207698 159.291873 
L 424.197499 159.347053 
L 424.444949 159.183105 
L 424.692399 159.432497 
L 424.939849 159.262491 
L 425.187299 159.593969 
L 425.682199 159.227279 
L 426.1771 159.328931 
L 426.672 159.251524 
L 427.41435 159.665913 
L 427.6618 159.454533 
L 427.90925 159.435962 
L 428.1567 159.68433 
L 428.40415 159.426113 
L 428.651601 159.449003 
L 428.899051 159.257284 
L 429.146501 159.456978 
L 429.393951 159.30405 
L 429.641401 159.501237 
L 430.136301 159.394667 
L 430.383751 159.515108 
L 430.631201 159.179665 
L 430.878652 159.532834 
L 431.126102 159.309891 
L 431.373552 159.464331 
L 431.621002 159.466292 
L 431.868452 159.20631 
L 432.115902 159.343079 
L 432.363352 159.329486 
L 432.858252 159.555537 
L 433.105703 159.409654 
L 433.353153 159.478526 
L 433.600603 159.175951 
L 433.848053 159.221496 
L 434.095503 158.999204 
L 434.837853 159.427368 
L 435.332754 159.079605 
L 435.827654 159.65813 
L 436.075104 159.381467 
L 436.322554 159.341337 
L 436.570004 159.72104 
L 436.817454 159.317652 
L 437.064904 159.145908 
L 437.312354 159.304488 
L 438.797055 159.472833 
L 439.291955 159.191371 
L 439.539405 159.402192 
L 439.786856 159.44428 
L 440.034306 159.337955 
L 440.281756 159.616899 
L 440.529206 159.073256 
L 440.776656 159.091922 
L 441.024106 159.556844 
L 442.261357 159.452945 
L 442.508807 159.586297 
L 442.756257 159.592005 
L 443.003707 159.486001 
L 443.251157 158.899336 
L 443.498607 158.003987 
L 443.993507 158.879162 
L 444.240958 158.862496 
L 444.488408 159.005324 
L 444.735858 158.879011 
L 445.230758 159.197948 
L 445.725658 159.051869 
L 445.973108 159.274149 
L 446.468009 159.099388 
L 446.715459 159.046486 
L 447.210359 159.180211 
L 447.457809 159.083176 
L 448.200159 159.272893 
L 448.69506 158.842898 
L 448.94251 159.021238 
L 449.43741 159.518446 
L 449.68486 159.199618 
L 450.17976 159.091074 
L 450.922111 159.263664 
L 451.169561 159.453515 
L 451.664461 159.090151 
L 452.159361 159.198085 
L 452.406811 159.349574 
L 452.654261 159.116218 
L 452.901711 159.307855 
L 453.149162 159.319902 
L 453.396612 159.155548 
L 453.891512 159.442667 
L 454.386412 159.088154 
L 455.128762 159.392005 
L 455.376213 159.225261 
L 455.623663 159.453977 
L 455.871113 159.444142 
L 456.118563 159.151936 
L 456.366013 159.274032 
L 456.613463 159.084634 
L 456.860913 159.34848 
L 457.108363 159.186183 
L 457.850714 159.264768 
L 458.098164 159.064034 
L 458.345614 159.114143 
L 458.593064 159.438743 
L 458.840514 159.383622 
L 459.087964 159.141323 
L 459.335414 159.511424 
L 460.077765 159.223266 
L 460.325215 159.304592 
L 460.572665 159.122111 
L 460.820115 159.140219 
L 461.067565 159.01583 
L 461.315015 159.289632 
L 462.552266 159.289031 
L 462.799716 159.360818 
L 463.047166 159.036288 
L 463.294616 159.053012 
L 463.542066 158.863311 
L 464.036966 159.210691 
L 464.284417 159.447206 
L 464.531867 159.093597 
L 464.779317 159.246072 
L 466.264017 159.110554 
L 466.511468 159.278099 
L 466.758918 159.10161 
L 467.253818 159.155708 
L 467.501268 159.153041 
L 467.748718 159.373727 
L 467.996168 159.082113 
L 468.491068 159.299473 
L 468.738519 159.548631 
L 469.233419 159.146505 
L 469.728319 159.234023 
L 469.975769 159.125528 
L 470.223219 159.259211 
L 470.470669 159.256376 
L 470.718119 159.072117 
L 471.21302 159.155252 
L 471.46047 159.448899 
L 471.70792 159.398846 
L 471.95537 159.466904 
L 472.20282 159.179112 
L 472.69772 159.438995 
L 473.440071 159.183983 
L 473.687521 159.488518 
L 474.677321 159.250571 
L 475.172221 159.414905 
L 475.667122 159.098757 
L 475.914572 159.390451 
L 476.656922 159.185516 
L 476.904372 159.534182 
L 477.399272 158.827296 
L 477.646723 159.230734 
L 477.894173 159.018089 
L 478.389073 159.450297 
L 479.131423 158.956488 
L 479.378873 159.10434 
L 479.626323 159.406038 
L 479.873774 159.390124 
L 480.121224 159.093709 
L 480.368674 159.301532 
L 481.358474 159.259072 
L 481.853374 159.654362 
L 482.100825 159.517937 
L 482.348275 159.112459 
L 482.595725 159.579525 
L 482.843175 159.356064 
L 483.090625 159.538176 
L 483.338075 159.336329 
L 483.585525 159.523294 
L 483.832975 159.095471 
L 484.080425 159.328474 
L 484.327876 159.214917 
L 484.575326 159.238568 
L 484.822776 159.463432 
L 485.070226 159.336114 
L 485.317676 159.371214 
L 485.565126 159.003497 
L 485.812576 159.425594 
L 486.060026 159.275349 
L 486.307476 159.447039 
L 486.802377 159.341351 
L 487.297277 159.043313 
L 487.544727 159.290882 
L 487.792177 159.111946 
L 488.039627 159.39416 
L 488.287077 158.978849 
L 488.534527 159.594843 
L 488.781978 159.268843 
L 489.029428 159.203447 
L 489.276878 159.360939 
L 489.524328 159.158794 
L 489.771778 159.344586 
L 490.266678 159.429633 
L 490.514128 158.983202 
L 490.761578 159.167933 
L 491.256479 159.264787 
L 491.503929 159.55279 
L 491.998829 159.182046 
L 492.246279 159.251437 
L 492.493729 159.19695 
L 492.741179 159.389876 
L 492.988629 159.363848 
L 493.23608 159.151184 
L 493.48353 159.219959 
L 493.73098 159.540704 
L 493.97843 159.432546 
L 494.22588 159.104321 
L 494.47333 159.346655 
L 494.72078 159.136442 
L 495.21568 159.280501 
L 495.958031 158.997794 
L 496.205481 159.330885 
L 496.452931 159.362026 
L 496.700381 158.992906 
L 497.195281 159.116277 
L 497.442731 158.92544 
L 497.690182 159.209745 
L 498.185082 158.928437 
L 498.432532 158.84874 
L 498.927432 159.032629 
L 499.422332 158.910901 
L 499.917233 159.058414 
L 500.164683 159.039388 
L 500.412133 159.2095 
L 500.659583 159.084884 
L 501.649383 159.331411 
L 502.144284 159.101291 
L 502.391734 159.083502 
L 502.639184 159.204251 
L 502.886634 158.108318 
L 503.876434 158.736507 
L 504.371335 158.839687 
L 504.618785 158.382554 
L 505.113685 158.185659 
L 505.361135 157.968647 
L 505.608585 158.511352 
L 506.103485 158.304499 
L 506.350935 158.482685 
L 506.598386 158.356419 
L 507.340736 158.43663 
L 507.588186 158.668759 
L 508.083086 158.720199 
L 508.577986 158.157177 
L 508.825437 158.405659 
L 509.072887 158.191948 
L 509.320337 158.439843 
L 509.815237 158.387554 
L 510.062687 158.314403 
L 510.557587 158.34334 
L 510.805037 158.331678 
L 511.299938 158.582212 
L 511.547388 158.235271 
L 511.794838 158.481213 
L 512.042288 158.34142 
L 512.784638 158.443074 
L 513.279539 158.10498 
L 513.774439 158.440227 
L 514.021889 158.327735 
L 514.764239 158.429455 
L 515.011689 158.076776 
L 515.259139 158.406135 
L 515.50659 158.104959 
L 515.75404 158.265343 
L 516.00149 158.239468 
L 516.24894 158.386296 
L 516.49639 158.295456 
L 516.99129 158.323243 
L 517.48619 158.276168 
L 517.733641 158.348569 
L 517.981091 158.553417 
L 518.475991 158.286388 
L 518.723441 158.400917 
L 518.970891 158.323523 
L 519.465791 158.537015 
L 519.960692 158.301369 
L 520.208142 158.440519 
L 520.455592 158.415879 
L 520.703042 158.577805 
L 521.197942 158.474524 
L 521.445392 158.520382 
L 521.940292 158.234909 
L 522.187743 157.96738 
L 522.435193 158.652495 
L 523.177543 158.361952 
L 523.672443 158.484098 
L 523.919893 158.304603 
L 524.167343 158.496432 
L 524.414794 158.274428 
L 525.157144 158.522384 
L 525.404594 158.408583 
L 525.652044 158.468863 
L 525.899494 158.675547 
L 526.146944 158.424128 
L 526.394394 158.564791 
L 527.136745 158.427071 
L 527.384195 158.469526 
L 527.631645 158.27099 
L 527.879095 158.438399 
L 528.373995 158.236386 
L 528.868896 158.37815 
L 529.116346 158.483304 
L 529.363796 158.334638 
L 530.106146 158.348012 
L 530.353596 158.102606 
L 530.601046 158.201766 
L 530.848496 158.462072 
L 531.095947 158.227601 
L 531.343397 158.377568 
L 531.590847 158.315315 
L 531.838297 158.394371 
L 532.085747 158.275148 
L 532.828097 158.273684 
L 533.322998 157.208127 
L 534.065348 157.491882 
L 534.312798 157.621168 
L 534.807698 157.669049 
L 535.055148 157.779067 
L 535.302598 158.152072 
L 535.550049 158.036305 
L 536.044949 158.146226 
L 536.292399 157.985161 
L 537.529649 158.069482 
L 537.7771 157.873415 
L 538.02455 157.979548 
L 538.272 158.285356 
L 538.7669 158.059329 
L 539.01435 158.108893 
L 539.50925 157.640404 
L 539.7567 158.01851 
L 540.00415 157.88671 
L 540.499051 158.008035 
L 540.746501 157.752118 
L 540.993951 158.009229 
L 541.241401 157.92961 
L 541.488851 157.645254 
L 541.983751 157.608622 
L 542.231201 156.963062 
L 542.478652 157.704123 
L 542.726102 157.75225 
L 542.973552 157.647033 
L 543.468452 157.791681 
L 543.963352 157.809546 
L 544.210802 157.636198 
L 544.458252 157.810162 
L 544.953153 157.789503 
L 545.200603 157.901056 
L 545.695503 157.653382 
L 545.942953 157.786364 
L 546.190403 157.717021 
L 546.437853 158.010967 
L 546.932754 157.868429 
L 547.427654 157.930493 
L 547.675104 157.944006 
L 547.922554 157.835117 
L 548.170004 158.127367 
L 548.417454 157.838622 
L 548.664904 157.751677 
L 549.159805 158.170981 
L 549.654705 157.724092 
L 549.902155 157.730193 
L 550.397055 158.044818 
L 551.386856 157.951918 
L 551.634306 157.825039 
L 552.129206 158.039267 
L 552.376656 157.859206 
L 552.624106 158.165626 
L 552.871556 158.11353 
L 553.119006 158.320557 
L 553.366456 158.38037 
L 554.108807 157.983463 
L 555.098607 158.212841 
L 555.346057 158.114344 
L 555.593507 158.148869 
L 555.840958 157.961212 
L 556.088408 158.206359 
L 556.830758 158.102318 
L 557.078208 157.879331 
L 557.325658 158.177994 
L 558.068009 157.957734 
L 558.315459 158.173975 
L 558.562909 158.086463 
L 558.810359 158.335944 
L 559.305259 158.158665 
L 559.552709 158.218491 
L 560.047609 158.101603 
L 560.54251 158.155686 
L 560.78996 158.283107 
L 561.28486 158.241061 
L 561.77976 158.562617 
L 562.02721 158.29635 
L 562.769561 158.111821 
L 563.017011 158.247908 
L 563.264461 158.160399 
L 563.511911 158.567746 
L 563.759361 158.314658 
L 564.006811 158.40682 
L 564.254261 158.802631 
L 564.501711 158.350314 
L 564.749162 158.321737 
L 564.996612 158.093911 
L 565.244062 158.120214 
L 565.491512 157.999021 
L 565.738962 158.026889 
L 565.986412 158.412805 
L 566.976213 158.162366 
L 567.718563 158.405794 
L 567.966013 158.151752 
L 568.213463 158.188082 
L 568.460913 158.089977 
L 568.708363 158.242712 
L 568.955813 158.142021 
L 569.203264 158.390372 
L 569.698164 158.412656 
L 569.945614 158.096092 
L 570.193064 158.25548 
L 570.687964 158.121568 
L 570.935414 158.386141 
L 571.182864 158.172479 
L 571.430315 158.438488 
L 572.420115 158.275132 
L 572.667565 158.433918 
L 572.915015 158.423793 
L 573.409915 158.070554 
L 573.657366 158.359387 
L 573.904816 158.242031 
L 574.152266 158.437071 
L 574.647166 158.343158 
L 574.894616 158.025153 
L 575.142066 158.138141 
L 575.389516 157.899362 
L 575.636966 158.154239 
L 575.884417 158.221885 
L 576.131867 157.872003 
L 576.874217 158.212029 
L 577.121667 158.297788 
L 577.369117 158.205791 
L 577.616567 158.249922 
L 577.864017 158.051844 
L 578.111468 158.231774 
L 579.101268 158.0152 
L 579.596168 158.252807 
L 579.843618 158.214959 
L 580.338519 157.785178 
L 580.585969 158.298543 
L 580.833419 158.350622 
L 581.080869 158.072288 
L 581.328319 158.317967 
L 581.575769 158.401579 
L 581.823219 158.052437 
L 582.070669 158.190394 
L 582.318119 158.041829 
L 582.81302 158.192663 
L 583.06047 158.028833 
L 583.30792 158.01966 
L 583.55537 158.290655 
L 583.80282 157.906979 
L 584.05027 158.097424 
L 584.29772 157.945792 
L 584.54517 158.170289 
L 584.792621 157.965395 
L 585.040071 158.155786 
L 585.287521 158.199229 
L 585.534971 158.060751 
L 585.782421 158.328546 
L 586.029871 158.092691 
L 586.524771 158.140336 
L 587.019672 158.323826 
L 587.514572 158.142628 
L 587.762022 158.082686 
L 588.009472 157.802967 
L 588.256922 158.060191 
L 588.504372 158.037061 
L 588.751822 158.215599 
L 588.999272 157.703954 
L 589.989073 158.345518 
L 590.236523 158.291794 
L 590.731423 158.023952 
L 592.216124 158.098783 
L 593.453374 157.892229 
L 593.700825 158.136599 
L 593.948275 157.899702 
L 594.690625 158.238861 
L 594.938075 158.200531 
L 595.185525 157.984411 
L 595.432975 158.021473 
L 595.680425 158.27219 
L 595.927876 157.772638 
L 596.670226 158.170679 
L 596.917676 157.994607 
L 597.165126 158.075661 
L 597.412576 158.038238 
L 597.907476 158.144142 
L 598.402377 158.037558 
L 598.649827 158.205057 
L 598.897277 158.232528 
L 599.144727 158.096529 
L 599.639627 158.315625 
L 601.124328 158.278343 
L 601.371778 158.441947 
L 601.619228 157.993844 
L 601.866678 157.876637 
L 602.114128 158.307268 
L 602.361578 158.257392 
L 602.609029 158.014376 
L 603.103929 158.369645 
L 603.598829 158.006365 
L 603.846279 158.251846 
L 604.588629 158.138128 
L 604.83608 158.007616 
L 605.08353 158.379456 
L 605.57843 157.922966 
L 605.82588 158.054701 
L 606.07333 158.021596 
L 606.32078 158.148643 
L 606.81568 158.113389 
L 607.063131 158.30487 
L 607.558031 158.09291 
L 607.805481 157.85248 
L 608.300381 158.135516 
L 608.547831 157.949134 
L 608.795281 157.997578 
L 609.042731 158.16557 
L 609.290182 157.846524 
L 609.537632 157.889091 
L 609.785082 158.086893 
L 610.032532 157.930463 
L 610.279982 157.986409 
L 610.527432 157.840241 
L 610.774882 158.141681 
L 611.022332 158.080059 
L 611.269782 158.218915 
L 612.012133 157.978174 
L 612.259583 158.07369 
L 612.507033 157.9278 
L 613.001933 158.146909 
L 613.249383 158.452319 
L 613.496833 158.099592 
L 613.744284 158.298805 
L 613.991734 158.002424 
L 614.239184 157.903277 
L 614.486634 158.206952 
L 614.981534 157.999689 
L 615.228984 158.2919 
L 615.476434 158.367989 
L 615.723884 158.061389 
L 615.971335 158.195913 
L 616.218785 158.030994 
L 616.713685 158.628024 
L 616.961135 158.085567 
L 617.456035 158.51998 
L 617.703485 158.232541 
L 617.950935 158.39512 
L 618.198386 158.135541 
L 618.693286 157.946978 
L 618.940736 158.12264 
L 619.188186 158.102566 
L 619.435636 158.306637 
L 619.683086 158.017884 
L 619.930536 157.944981 
L 620.177986 158.161187 
L 620.425437 158.026969 
L 620.672887 158.260394 
L 621.910137 158.189723 
L 622.157587 158.252536 
L 622.405037 158.189319 
L 622.652488 158.266452 
L 622.899938 158.138446 
L 623.889738 158.266901 
L 624.137188 158.586472 
L 624.384638 158.081611 
L 624.632088 158.119783 
L 624.879539 158.286349 
L 625.126989 158.041503 
L 625.126989 158.041503 
" clip-path="url(#p9318bb1280)" style="fill: none; stroke: #ff7f0e; stroke-width: 1.5; stroke-linecap: square"/>
   </g>
   <g id="patch_3">
    <path d="M 92.490625 308.63625 
L 92.490625 31.43625 
" style="fill: none; stroke: #000000; stroke-width: 0.8; stroke-linejoin: miter; stroke-linecap: square"/>
   </g>
   <g id="patch_4">
    <path d="M 650.490625 308.63625 
L 650.490625 31.43625 
" style="fill: none; stroke: #000000; stroke-width: 0.8; stroke-linejoin: miter; stroke-linecap: square"/>
   </g>
   <g id="patch_5">
    <path d="M 92.490625 308.63625 
L 650.490625 308.63625 
" style="fill: none; stroke: #000000; stroke-width: 0.8; stroke-linejoin: miter; stroke-linecap: square"/>
   </g>
   <g id="patch_6">
    <path d="M 92.490625 31.43625 
L 650.490625 31.43625 
" style="fill: none; stroke: #000000; stroke-width: 0.8; stroke-linejoin: miter; stroke-linecap: square"/>
   </g>
   <g id="text_11">
    <!-- Generator and Discriminator Loss During Training -->
    <g transform="translate(74.258125 25.43625) scale(0.24 -0.24)">
     <defs>
      <path id="DejaVuSans-47" d="M 3809 666 
L 3809 1919 
L 2778 1919 
L 2778 2438 
L 4434 2438 
L 4434 434 
Q 4069 175 3628 42 
Q 3188 -91 2688 -91 
Q 1594 -91 976 548 
Q 359 1188 359 2328 
Q 359 3472 976 4111 
Q 1594 4750 2688 4750 
Q 3144 4750 3555 4637 
Q 3966 4525 4313 4306 
L 4313 3634 
Q 3963 3931 3569 4081 
Q 3175 4231 2741 4231 
Q 1884 4231 1454 3753 
Q 1025 3275 1025 2328 
Q 1025 1384 1454 906 
Q 1884 428 2741 428 
Q 3075 428 3337 486 
Q 3600 544 3809 666 
z
" transform="scale(0.015625)"/>
      <path id="DejaVuSans-20" transform="scale(0.015625)"/>
      <path id="DejaVuSans-64" d="M 2906 2969 
L 2906 4863 
L 3481 4863 
L 3481 0 
L 2906 0 
L 2906 525 
Q 2725 213 2448 61 
Q 2172 -91 1784 -91 
Q 1150 -91 751 415 
Q 353 922 353 1747 
Q 353 2572 751 3078 
Q 1150 3584 1784 3584 
Q 2172 3584 2448 3432 
Q 2725 3281 2906 2969 
z
M 947 1747 
Q 947 1113 1208 752 
Q 1469 391 1925 391 
Q 2381 391 2643 752 
Q 2906 1113 2906 1747 
Q 2906 2381 2643 2742 
Q 2381 3103 1925 3103 
Q 1469 3103 1208 2742 
Q 947 2381 947 1747 
z
" transform="scale(0.015625)"/>
      <path id="DejaVuSans-44" d="M 1259 4147 
L 1259 519 
L 2022 519 
Q 2988 519 3436 956 
Q 3884 1394 3884 2338 
Q 3884 3275 3436 3711 
Q 2988 4147 2022 4147 
L 1259 4147 
z
M 628 4666 
L 1925 4666 
Q 3281 4666 3915 4102 
Q 4550 3538 4550 2338 
Q 4550 1131 3912 565 
Q 3275 0 1925 0 
L 628 0 
L 628 4666 
z
" transform="scale(0.015625)"/>
      <path id="DejaVuSans-63" d="M 3122 3366 
L 3122 2828 
Q 2878 2963 2633 3030 
Q 2388 3097 2138 3097 
Q 1578 3097 1268 2742 
Q 959 2388 959 1747 
Q 959 1106 1268 751 
Q 1578 397 2138 397 
Q 2388 397 2633 464 
Q 2878 531 3122 666 
L 3122 134 
Q 2881 22 2623 -34 
Q 2366 -91 2075 -91 
Q 1284 -91 818 406 
Q 353 903 353 1747 
Q 353 2603 823 3093 
Q 1294 3584 2113 3584 
Q 2378 3584 2631 3529 
Q 2884 3475 3122 3366 
z
" transform="scale(0.015625)"/>
      <path id="DejaVuSans-6d" d="M 3328 2828 
Q 3544 3216 3844 3400 
Q 4144 3584 4550 3584 
Q 5097 3584 5394 3201 
Q 5691 2819 5691 2113 
L 5691 0 
L 5113 0 
L 5113 2094 
Q 5113 2597 4934 2840 
Q 4756 3084 4391 3084 
Q 3944 3084 3684 2787 
Q 3425 2491 3425 1978 
L 3425 0 
L 2847 0 
L 2847 2094 
Q 2847 2600 2669 2842 
Q 2491 3084 2119 3084 
Q 1678 3084 1418 2786 
Q 1159 2488 1159 1978 
L 1159 0 
L 581 0 
L 581 3500 
L 1159 3500 
L 1159 2956 
Q 1356 3278 1631 3431 
Q 1906 3584 2284 3584 
Q 2666 3584 2933 3390 
Q 3200 3197 3328 2828 
z
" transform="scale(0.015625)"/>
      <path id="DejaVuSans-75" d="M 544 1381 
L 544 3500 
L 1119 3500 
L 1119 1403 
Q 1119 906 1312 657 
Q 1506 409 1894 409 
Q 2359 409 2629 706 
Q 2900 1003 2900 1516 
L 2900 3500 
L 3475 3500 
L 3475 0 
L 2900 0 
L 2900 538 
Q 2691 219 2414 64 
Q 2138 -91 1772 -91 
Q 1169 -91 856 284 
Q 544 659 544 1381 
z
M 1991 3584 
L 1991 3584 
z
" transform="scale(0.015625)"/>
      <path id="DejaVuSans-67" d="M 2906 1791 
Q 2906 2416 2648 2759 
Q 2391 3103 1925 3103 
Q 1463 3103 1205 2759 
Q 947 2416 947 1791 
Q 947 1169 1205 825 
Q 1463 481 1925 481 
Q 2391 481 2648 825 
Q 2906 1169 2906 1791 
z
M 3481 434 
Q 3481 -459 3084 -895 
Q 2688 -1331 1869 -1331 
Q 1566 -1331 1297 -1286 
Q 1028 -1241 775 -1147 
L 775 -588 
Q 1028 -725 1275 -790 
Q 1522 -856 1778 -856 
Q 2344 -856 2625 -561 
Q 2906 -266 2906 331 
L 2906 616 
Q 2728 306 2450 153 
Q 2172 0 1784 0 
Q 1141 0 747 490 
Q 353 981 353 1791 
Q 353 2603 747 3093 
Q 1141 3584 1784 3584 
Q 2172 3584 2450 3431 
Q 2728 3278 2906 2969 
L 2906 3500 
L 3481 3500 
L 3481 434 
z
" transform="scale(0.015625)"/>
      <path id="DejaVuSans-54" d="M -19 4666 
L 3928 4666 
L 3928 4134 
L 2272 4134 
L 2272 0 
L 1638 0 
L 1638 4134 
L -19 4134 
L -19 4666 
z
" transform="scale(0.015625)"/>
     </defs>
     <use xlink:href="#DejaVuSans-47"/>
     <use xlink:href="#DejaVuSans-65" x="77.490234"/>
     <use xlink:href="#DejaVuSans-6e" x="139.013672"/>
     <use xlink:href="#DejaVuSans-65" x="202.392578"/>
     <use xlink:href="#DejaVuSans-72" x="263.916016"/>
     <use xlink:href="#DejaVuSans-61" x="305.029297"/>
     <use xlink:href="#DejaVuSans-74" x="366.308594"/>
     <use xlink:href="#DejaVuSans-6f" x="405.517578"/>
     <use xlink:href="#DejaVuSans-72" x="466.699219"/>
     <use xlink:href="#DejaVuSans-20" x="507.8125"/>
     <use xlink:href="#DejaVuSans-61" x="539.599609"/>
     <use xlink:href="#DejaVuSans-6e" x="600.878906"/>
     <use xlink:href="#DejaVuSans-64" x="664.257812"/>
     <use xlink:href="#DejaVuSans-20" x="727.734375"/>
     <use xlink:href="#DejaVuSans-44" x="759.521484"/>
     <use xlink:href="#DejaVuSans-69" x="836.523438"/>
     <use xlink:href="#DejaVuSans-73" x="864.306641"/>
     <use xlink:href="#DejaVuSans-63" x="916.40625"/>
     <use xlink:href="#DejaVuSans-72" x="971.386719"/>
     <use xlink:href="#DejaVuSans-69" x="1012.5"/>
     <use xlink:href="#DejaVuSans-6d" x="1040.283203"/>
     <use xlink:href="#DejaVuSans-69" x="1137.695312"/>
     <use xlink:href="#DejaVuSans-6e" x="1165.478516"/>
     <use xlink:href="#DejaVuSans-61" x="1228.857422"/>
     <use xlink:href="#DejaVuSans-74" x="1290.136719"/>
     <use xlink:href="#DejaVuSans-6f" x="1329.345703"/>
     <use xlink:href="#DejaVuSans-72" x="1390.527344"/>
     <use xlink:href="#DejaVuSans-20" x="1431.640625"/>
     <use xlink:href="#DejaVuSans-4c" x="1463.427734"/>
     <use xlink:href="#DejaVuSans-6f" x="1517.390625"/>
     <use xlink:href="#DejaVuSans-73" x="1578.572266"/>
     <use xlink:href="#DejaVuSans-73" x="1630.671875"/>
     <use xlink:href="#DejaVuSans-20" x="1682.771484"/>
     <use xlink:href="#DejaVuSans-44" x="1714.558594"/>
     <use xlink:href="#DejaVuSans-75" x="1791.560547"/>
     <use xlink:href="#DejaVuSans-72" x="1854.939453"/>
     <use xlink:href="#DejaVuSans-69" x="1896.052734"/>
     <use xlink:href="#DejaVuSans-6e" x="1923.835938"/>
     <use xlink:href="#DejaVuSans-67" x="1987.214844"/>
     <use xlink:href="#DejaVuSans-20" x="2050.691406"/>
     <use xlink:href="#DejaVuSans-54" x="2082.478516"/>
     <use xlink:href="#DejaVuSans-72" x="2128.8125"/>
     <use xlink:href="#DejaVuSans-61" x="2169.925781"/>
     <use xlink:href="#DejaVuSans-69" x="2231.205078"/>
     <use xlink:href="#DejaVuSans-6e" x="2258.988281"/>
     <use xlink:href="#DejaVuSans-69" x="2322.367188"/>
     <use xlink:href="#DejaVuSans-6e" x="2350.150391"/>
     <use xlink:href="#DejaVuSans-67" x="2413.529297"/>
    </g>
   </g>
   <g id="legend_1">
    <g id="patch_7">
     <path d="M 556.99375 106.14875 
L 636.490625 106.14875 
Q 640.490625 106.14875 640.490625 102.14875 
L 640.490625 45.43625 
Q 640.490625 41.43625 636.490625 41.43625 
L 556.99375 41.43625 
Q 552.99375 41.43625 552.99375 45.43625 
L 552.99375 102.14875 
Q 552.99375 106.14875 556.99375 106.14875 
z
" style="fill: #ffffff; opacity: 0.8; stroke: #cccccc; stroke-linejoin: miter"/>
    </g>
    <g id="line2d_11">
     <path d="M 560.99375 57.633125 
L 580.99375 57.633125 
L 600.99375 57.633125 
" style="fill: none; stroke: #1f77b4; stroke-width: 1.5; stroke-linecap: square"/>
    </g>
    <g id="text_12">
     <!-- G -->
     <g transform="translate(616.99375 64.633125) scale(0.2 -0.2)">
      <use xlink:href="#DejaVuSans-47"/>
     </g>
    </g>
    <g id="line2d_12">
     <path d="M 560.99375 86.989375 
L 580.99375 86.989375 
L 600.99375 86.989375 
" style="fill: none; stroke: #ff7f0e; stroke-width: 1.5; stroke-linecap: square"/>
    </g>
    <g id="text_13">
     <!-- D -->
     <g transform="translate(616.99375 93.989375) scale(0.2 -0.2)">
      <use xlink:href="#DejaVuSans-44"/>
     </g>
    </g>
   </g>
  </g>
 </g>
 <defs>
  <clipPath id="p9318bb1280">
   <rect x="92.490625" y="31.43625" width="558" height="277.2"/>
  </clipPath>
 </defs>
</svg>
